{
  "track_name": "11 - Unknown (Sound Test 12)",
  "duration_sec": 134.024,
  "sample_rate": 44100,
  "note_count": 1771,
  "unique_pitches": 34,
  "pitch_range": 44,
  "avg_note_duration": 0.1133,
  "reconstruction_stats": {
    "notes_reconstructed": 1771,
    "keyon_events": 1771,
    "keyoff_events": 1770,
    "orphan_keyons": 1,
    "unique_pitches": 34,
    "pitch_range": 44,
    "avg_duration_sec": 0.1133
  },
  "metadata": {
    "source": "D\\Dragon's Revenge\\11 - Unknown (Sound Test 12).vgz"
  },
  "notes": [
    {
      "channel": 0,
      "note": 54,
      "start": 0.0174,
      "duration": 0.2286,
      "velocity": 127,
      "chip": "ym2612"
    },
    {
      "channel": 0,
      "note": 57,
      "start": 0.2695,
      "duration": 0.0693,
      "velocity": 127,
      "chip": "ym2612"
    },
    {
      "channel": 0,
      "note": 54,
      "start": 0.3561,
      "duration": 0.1576,
      "velocity": 127,
      "chip": "ym2612"
    },
    {
      "channel": 0,
      "note": 61,
      "start": 0.5368,
      "duration": 0.0769,
      "velocity": 127,
      "chip": "ym2612"
    },
    {
      "channel": 0,
      "note": 62,
      "start": 0.6243,
      "duration": 0.1409,
      "velocity": 127,
      "chip": "ym2612"
    },
    {
      "channel": 0,
      "note": 57,
      "start": 0.8054,
      "duration": 0.0766,
      "velocity": 127,
      "chip": "ym2612"
    },
    {
      "channel": 0,
      "note": 52,
      "start": 0.8927,
      "duration": 0.234,
      "velocity": 127,
      "chip": "ym2612"
    },
    {
      "channel": 0,
      "note": 56,
      "start": 1.1587,
      "duration": 0.1578,
      "velocity": 127,
      "chip": "ym2612"
    },
    {
      "channel": 0,
      "note": 57,
      "start": 1.3396,
      "duration": 0.0777,
      "velocity": 127,
      "chip": "ym2612"
    },
    {
      "channel": 0,
      "note": 49,
      "start": 1.427,
      "duration": 0.1576,
      "velocity": 127,
      "chip": "ym2612"
    },
    {
      "channel": 0,
      "note": 56,
      "start": 1.6075,
      "duration": 0.0763,
      "velocity": 127,
      "chip": "ym2612"
    },
    {
      "channel": 0,
      "note": 57,
      "start": 1.6945,
      "duration": 0.1415,
      "velocity": 127,
      "chip": "ym2612"
    },
    {
      "channel": 0,
      "note": 50,
      "start": 1.8758,
      "duration": 0.0766,
      "velocity": 127,
      "chip": "ym2612"
    },
    {
      "channel": 0,
      "note": 57,
      "start": 1.9629,
      "duration": 0.1579,
      "velocity": 127,
      "chip": "ym2612"
    },
    {
      "channel": 1,
      "note": 54,
      "start": 2.1461,
      "duration": 1.6373,
      "velocity": 95,
      "chip": "ym2612"
    },
    {
      "channel": 0,
      "note": 54,
      "start": 2.1484,
      "duration": 0.2406,
      "velocity": 127,
      "chip": "ym2612"
    },
    {
      "channel": 0,
      "note": 57,
      "start": 2.4123,
      "duration": 0.0633,
      "velocity": 127,
      "chip": "ym2612"
    },
    {
      "channel": 0,
      "note": 54,
      "start": 2.4993,
      "duration": 0.1576,
      "velocity": 127,
      "chip": "ym2612"
    },
    {
      "channel": 0,
      "note": 61,
      "start": 2.68,
      "duration": 0.0769,
      "velocity": 127,
      "chip": "ym2612"
    },
    {
      "channel": 0,
      "note": 62,
      "start": 2.7677,
      "duration": 0.124,
      "velocity": 127,
      "chip": "ym2612"
    },
    {
      "channel": 0,
      "note": 57,
      "start": 2.9482,
      "duration": 0.0691,
      "velocity": 127,
      "chip": "ym2612"
    },
    {
      "channel": 0,
      "note": 52,
      "start": 3.0353,
      "duration": 0.2566,
      "velocity": 127,
      "chip": "ym2612"
    },
    {
      "channel": 0,
      "note": 56,
      "start": 3.3017,
      "duration": 0.1579,
      "velocity": 127,
      "chip": "ym2612"
    },
    {
      "channel": 0,
      "note": 57,
      "start": 3.4827,
      "duration": 0.0776,
      "velocity": 127,
      "chip": "ym2612"
    },
    {
      "channel": 0,
      "note": 64,
      "start": 3.5701,
      "duration": 0.1076,
      "velocity": 127,
      "chip": "ym2612"
    },
    {
      "channel": 0,
      "note": 50,
      "start": 3.7508,
      "duration": 0.0756,
      "velocity": 127,
      "chip": "ym2612"
    },
    {
      "channel": 1,
      "note": 52,
      "start": 3.837,
      "duration": 0.1572,
      "velocity": 95,
      "chip": "ym2612"
    },
    {
      "channel": 0,
      "note": 52,
      "start": 3.8393,
      "duration": 0.1548,
      "velocity": 127,
      "chip": "ym2612"
    },
    {
      "channel": 0,
      "note": 57,
      "start": 4.0176,
      "duration": 0.0681,
      "velocity": 127,
      "chip": "ym2612"
    },
    {
      "channel": 1,
      "note": 54,
      "start": 4.1038,
      "duration": 1.2107,
      "velocity": 95,
      "chip": "ym2612"
    },
    {
      "channel": 0,
      "note": 54,
      "start": 4.1062,
      "duration": 0.4044,
      "velocity": 127,
      "chip": "ym2612"
    },
    {
      "channel": 0,
      "note": 57,
      "start": 4.5507,
      "duration": 0.07,
      "velocity": 127,
      "chip": "ym2612"
    },
    {
      "channel": 0,
      "note": 54,
      "start": 4.6376,
      "duration": 0.1242,
      "velocity": 127,
      "chip": "ym2612"
    },
    {
      "channel": 0,
      "note": 61,
      "start": 4.8183,
      "duration": 0.0693,
      "velocity": 127,
      "chip": "ym2612"
    },
    {
      "channel": 0,
      "note": 62,
      "start": 4.9053,
      "duration": 0.1246,
      "velocity": 127,
      "chip": "ym2612"
    },
    {
      "channel": 0,
      "note": 57,
      "start": 5.0698,
      "duration": 0.0838,
      "velocity": 127,
      "chip": "ym2612"
    },
    {
      "channel": 0,
      "note": 52,
      "start": 5.1651,
      "duration": 0.2509,
      "velocity": 127,
      "chip": "ym2612"
    },
    {
      "channel": 1,
      "note": 56,
      "start": 5.4339,
      "duration": 0.1166,
      "velocity": 95,
      "chip": "ym2612"
    },
    {
      "channel": 0,
      "note": 56,
      "start": 5.4375,
      "duration": 0.1295,
      "velocity": 127,
      "chip": "ym2612"
    },
    {
      "channel": 1,
      "note": 57,
      "start": 5.6044,
      "duration": 0.1294,
      "velocity": 95,
      "chip": "ym2612"
    },
    {
      "channel": 0,
      "note": 57,
      "start": 5.6068,
      "duration": 0.1769,
      "velocity": 127,
      "chip": "ym2612"
    },
    {
      "channel": 0,
      "note": 49,
      "start": 5.8238,
      "duration": 0.0757,
      "velocity": 127,
      "chip": "ym2612"
    },
    {
      "channel": 1,
      "note": 56,
      "start": 5.91,
      "duration": 0.0689,
      "velocity": 95,
      "chip": "ym2612"
    },
    {
      "channel": 0,
      "note": 56,
      "start": 5.912,
      "duration": 0.0921,
      "velocity": 127,
      "chip": "ym2612"
    },
    {
      "channel": 1,
      "note": 57,
      "start": 6.0243,
      "duration": 0.1133,
      "velocity": 95,
      "chip": "ym2612"
    },
    {
      "channel": 0,
      "note": 57,
      "start": 6.0268,
      "duration": 0.1606,
      "velocity": 127,
      "chip": "ym2612"
    },
    {
      "channel": 0,
      "note": 50,
      "start": 6.2277,
      "duration": 0.0839,
      "velocity": 127,
      "chip": "ym2612"
    },
    {
      "channel": 0,
      "note": 57,
      "start": 6.3228,
      "duration": 0.0615,
      "velocity": 127,
      "chip": "ym2612"
    },
    {
      "channel": 1,
      "note": 54,
      "start": 6.4318,
      "duration": 0.6456,
      "velocity": 95,
      "chip": "ym2612"
    },
    {
      "channel": 0,
      "note": 54,
      "start": 6.4345,
      "duration": 0.2429,
      "velocity": 127,
      "chip": "ym2612"
    },
    {
      "channel": 0,
      "note": 57,
      "start": 6.698,
      "duration": 0.1793,
      "velocity": 127,
      "chip": "ym2612"
    },
    {
      "channel": 0,
      "note": 54,
      "start": 6.914,
      "duration": 0.18,
      "velocity": 127,
      "chip": "ym2612"
    },
    {
      "channel": 0,
      "note": 61,
      "start": 7.1141,
      "duration": 0.0886,
      "velocity": 127,
      "chip": "ym2612"
    },
    {
      "channel": 1,
      "note": 52,
      "start": 7.2121,
      "duration": 0.1665,
      "velocity": 95,
      "chip": "ym2612"
    },
    {
      "channel": 0,
      "note": 62,
      "start": 7.2155,
      "duration": 0.1298,
      "velocity": 127,
      "chip": "ym2612"
    },
    {
      "channel": 0,
      "note": 57,
      "start": 7.3822,
      "duration": 0.1964,
      "velocity": 127,
      "chip": "ym2612"
    },
    {
      "channel": 1,
      "note": 50,
      "start": 7.5999,
      "duration": 0.1788,
      "velocity": 95,
      "chip": "ym2612"
    },
    {
      "channel": 0,
      "note": 52,
      "start": 7.6025,
      "duration": 0.2336,
      "velocity": 127,
      "chip": "ym2612"
    },
    {
      "channel": 0,
      "note": 86,
      "start": 7.8687,
      "duration": 0.0181,
      "velocity": 109,
      "chip": "ym2612"
    },
    {
      "channel": 0,
      "note": 85,
      "start": 7.8968,
      "duration": 0.0199,
      "velocity": 109,
      "chip": "ym2612"
    },
    {
      "channel": 0,
      "note": 83,
      "start": 7.9325,
      "duration": 0.0631,
      "velocity": 109,
      "chip": "ym2612"
    },
    {
      "channel": 0,
      "note": 81,
      "start": 8.0661,
      "duration": 0.0795,
      "velocity": 109,
      "chip": "ym2612"
    },
    {
      "channel": 0,
      "note": 80,
      "start": 8.1656,
      "duration": 0.0967,
      "velocity": 109,
      "chip": "ym2612"
    },
    {
      "channel": 0,
      "note": 78,
      "start": 8.2822,
      "duration": 0.08,
      "velocity": 109,
      "chip": "ym2612"
    },
    {
      "channel": 0,
      "note": 76,
      "start": 8.3822,
      "duration": 0.08,
      "velocity": 109,
      "chip": "ym2612"
    },
    {
      "channel": 0,
      "note": 74,
      "start": 8.4828,
      "duration": 0.0371,
      "velocity": 109,
      "chip": "ym2612"
    },
    {
      "channel": 0,
      "note": 81,
      "start": 8.5307,
      "duration": 0.0327,
      "velocity": 109,
      "chip": "ym2612"
    },
    {
      "channel": 0,
      "note": 78,
      "start": 8.5846,
      "duration": 0.0314,
      "velocity": 109,
      "chip": "ym2612"
    },
    {
      "channel": 0,
      "note": 74,
      "start": 8.6278,
      "duration": 0.0322,
      "velocity": 109,
      "chip": "ym2612"
    },
    {
      "channel": 0,
      "note": 73,
      "start": 8.6753,
      "duration": 0.0313,
      "velocity": 109,
      "chip": "ym2612"
    },
    {
      "channel": 0,
      "note": 74,
      "start": 8.7158,
      "duration": 0.0502,
      "velocity": 109,
      "chip": "ym2612"
    },
    {
      "channel": 0,
      "note": 73,
      "start": 8.7726,
      "duration": 0.0309,
      "velocity": 109,
      "chip": "ym2612"
    },
    {
      "channel": 0,
      "note": 69,
      "start": 8.8132,
      "duration": 0.0335,
      "velocity": 109,
      "chip": "ym2612"
    },
    {
      "channel": 3,
      "note": 87,
      "start": 8.8602,
      "duration": 0.0257,
      "velocity": 124,
      "chip": "ym2612"
    },
    {
      "channel": 1,
      "note": 54,
      "start": 8.8637,
      "duration": 0.2856,
      "velocity": 95,
      "chip": "ym2612"
    },
    {
      "channel": 0,
      "note": 66,
      "start": 8.8674,
      "duration": 0.8585,
      "velocity": 127,
      "chip": "ym2612"
    },
    {
      "channel": 3,
      "note": 89,
      "start": 8.9689,
      "duration": 0.0637,
      "velocity": 124,
      "chip": "ym2612"
    },
    {
      "channel": 3,
      "note": 87,
      "start": 9.1724,
      "duration": 0.0289,
      "velocity": 124,
      "chip": "ym2612"
    },
    {
      "channel": 1,
      "note": 57,
      "start": 9.175,
      "duration": 0.0854,
      "velocity": 95,
      "chip": "ym2612"
    },
    {
      "channel": 3,
      "note": 89,
      "start": 9.2695,
      "duration": 0.0286,
      "velocity": 124,
      "chip": "ym2612"
    },
    {
      "channel": 1,
      "note": 54,
      "start": 9.2719,
      "duration": 0.0689,
      "velocity": 95,
      "chip": "ym2612"
    },
    {
      "channel": 3,
      "note": 87,
      "start": 9.3773,
      "duration": 0.0318,
      "velocity": 124,
      "chip": "ym2612"
    },
    {
      "channel": 1,
      "note": 61,
      "start": 9.38,
      "duration": 0.0855,
      "velocity": 95,
      "chip": "ym2612"
    },
    {
      "channel": 3,
      "note": 89,
      "start": 9.475,
      "duration": 0.032,
      "velocity": 124,
      "chip": "ym2612"
    },
    {
      "channel": 1,
      "note": 62,
      "start": 9.4776,
      "duration": 0.146,
      "velocity": 95,
      "chip": "ym2612"
    },
    {
      "channel": 3,
      "note": 87,
      "start": 9.6466,
      "duration": 0.0291,
      "velocity": 124,
      "chip": "ym2612"
    },
    {
      "channel": 1,
      "note": 57,
      "start": 9.6492,
      "duration": 0.0852,
      "velocity": 95,
      "chip": "ym2612"
    },
    {
      "channel": 3,
      "note": 89,
      "start": 9.7436,
      "duration": 0.0289,
      "velocity": 124,
      "chip": "ym2612"
    },
    {
      "channel": 1,
      "note": 52,
      "start": 9.7462,
      "duration": 0.1822,
      "velocity": 95,
      "chip": "ym2612"
    },
    {
      "channel": 0,
      "note": 78,
      "start": 9.7495,
      "duration": 0.0822,
      "velocity": 127,
      "chip": "ym2612"
    },
    {
      "channel": 3,
      "note": 87,
      "start": 9.8545,
      "duration": 0.0307,
      "velocity": 124,
      "chip": "ym2612"
    },
    {
      "channel": 0,
      "note": 76,
      "start": 9.8573,
      "duration": 0.3424,
      "velocity": 127,
      "chip": "ym2612"
    },
    {
      "channel": 3,
      "note": 89,
      "start": 9.9542,
      "duration": 0.0273,
      "velocity": 124,
      "chip": "ym2612"
    },
    {
      "channel": 1,
      "note": 56,
      "start": 9.9569,
      "duration": 0.1412,
      "velocity": 95,
      "chip": "ym2612"
    },
    {
      "channel": 3,
      "note": 87,
      "start": 10.1212,
      "duration": 0.028,
      "velocity": 124,
      "chip": "ym2612"
    },
    {
      "channel": 1,
      "note": 57,
      "start": 10.1237,
      "duration": 0.1077,
      "velocity": 95,
      "chip": "ym2612"
    },
    {
      "channel": 3,
      "note": 89,
      "start": 10.2171,
      "duration": 0.0294,
      "velocity": 124,
      "chip": "ym2612"
    },
    {
      "channel": 4,
      "note": 49,
      "start": 10.2198,
      "duration": 0.086,
      "velocity": 95,
      "chip": "ym2612"
    },
    {
      "channel": 0,
      "note": 74,
      "start": 10.2238,
      "duration": 0.0817,
      "velocity": 127,
      "chip": "ym2612"
    },
    {
      "channel": 3,
      "note": 87,
      "start": 10.3254,
      "duration": 0.0322,
      "velocity": 124,
      "chip": "ym2612"
    },
    {
      "channel": 1,
      "note": 56,
      "start": 10.328,
      "duration": 0.0801,
      "velocity": 95,
      "chip": "ym2612"
    },
    {
      "channel": 0,
      "note": 73,
      "start": 10.3307,
      "duration": 0.3358,
      "velocity": 127,
      "chip": "ym2612"
    },
    {
      "channel": 3,
      "note": 89,
      "start": 10.426,
      "duration": 0.029,
      "velocity": 124,
      "chip": "ym2612"
    },
    {
      "channel": 1,
      "note": 57,
      "start": 10.4282,
      "duration": 0.1432,
      "velocity": 95,
      "chip": "ym2612"
    },
    {
      "channel": 3,
      "note": 87,
      "start": 10.5949,
      "duration": 0.0284,
      "velocity": 124,
      "chip": "ym2612"
    },
    {
      "channel": 1,
      "note": 50,
      "start": 10.5971,
      "duration": 0.0765,
      "velocity": 95,
      "chip": "ym2612"
    },
    {
      "channel": 3,
      "note": 89,
      "start": 10.6844,
      "duration": 0.0355,
      "velocity": 124,
      "chip": "ym2612"
    },
    {
      "channel": 1,
      "note": 57,
      "start": 10.6873,
      "duration": 0.077,
      "velocity": 95,
      "chip": "ym2612"
    },
    {
      "channel": 0,
      "note": 71,
      "start": 10.6899,
      "duration": 0.0893,
      "velocity": 127,
      "chip": "ym2612"
    },
    {
      "channel": 3,
      "note": 87,
      "start": 10.8022,
      "duration": 0.0332,
      "velocity": 124,
      "chip": "ym2612"
    },
    {
      "channel": 1,
      "note": 54,
      "start": 10.8051,
      "duration": 0.2229,
      "velocity": 95,
      "chip": "ym2612"
    },
    {
      "channel": 0,
      "note": 73,
      "start": 10.8081,
      "duration": 0.7618,
      "velocity": 127,
      "chip": "ym2612"
    },
    {
      "channel": 3,
      "note": 89,
      "start": 10.8945,
      "duration": 0.034,
      "velocity": 124,
      "chip": "ym2612"
    },
    {
      "channel": 3,
      "note": 87,
      "start": 11.0679,
      "duration": 0.0286,
      "velocity": 124,
      "chip": "ym2612"
    },
    {
      "channel": 1,
      "note": 57,
      "start": 11.0705,
      "duration": 0.0691,
      "velocity": 95,
      "chip": "ym2612"
    },
    {
      "channel": 3,
      "note": 89,
      "start": 11.1577,
      "duration": 0.0349,
      "velocity": 124,
      "chip": "ym2612"
    },
    {
      "channel": 1,
      "note": 54,
      "start": 11.1602,
      "duration": 0.0607,
      "velocity": 95,
      "chip": "ym2612"
    },
    {
      "channel": 3,
      "note": 87,
      "start": 11.2718,
      "duration": 0.0319,
      "velocity": 124,
      "chip": "ym2612"
    },
    {
      "channel": 1,
      "note": 61,
      "start": 11.2745,
      "duration": 0.0794,
      "velocity": 95,
      "chip": "ym2612"
    },
    {
      "channel": 3,
      "note": 89,
      "start": 11.3651,
      "duration": 0.0373,
      "velocity": 124,
      "chip": "ym2612"
    },
    {
      "channel": 1,
      "note": 62,
      "start": 11.3674,
      "duration": 0.1516,
      "velocity": 95,
      "chip": "ym2612"
    },
    {
      "channel": 3,
      "note": 87,
      "start": 11.542,
      "duration": 0.028,
      "velocity": 124,
      "chip": "ym2612"
    },
    {
      "channel": 1,
      "note": 57,
      "start": 11.5446,
      "duration": 0.068,
      "velocity": 95,
      "chip": "ym2612"
    },
    {
      "channel": 3,
      "note": 89,
      "start": 11.6311,
      "duration": 0.0354,
      "velocity": 124,
      "chip": "ym2612"
    },
    {
      "channel": 1,
      "note": 52,
      "start": 11.634,
      "duration": 0.1958,
      "velocity": 95,
      "chip": "ym2612"
    },
    {
      "channel": 0,
      "note": 74,
      "start": 11.6377,
      "duration": 0.088,
      "velocity": 127,
      "chip": "ym2612"
    },
    {
      "channel": 3,
      "note": 87,
      "start": 11.7488,
      "duration": 0.0305,
      "velocity": 124,
      "chip": "ym2612"
    },
    {
      "channel": 0,
      "note": 69,
      "start": 11.7521,
      "duration": 0.2824,
      "velocity": 127,
      "chip": "ym2612"
    },
    {
      "channel": 3,
      "note": 89,
      "start": 11.84,
      "duration": 0.0344,
      "velocity": 124,
      "chip": "ym2612"
    },
    {
      "channel": 1,
      "note": 56,
      "start": 11.8426,
      "duration": 0.1483,
      "velocity": 95,
      "chip": "ym2612"
    },
    {
      "channel": 3,
      "note": 87,
      "start": 12.0139,
      "duration": 0.0288,
      "velocity": 124,
      "chip": "ym2612"
    },
    {
      "channel": 1,
      "note": 57,
      "start": 12.0164,
      "duration": 0.0767,
      "velocity": 95,
      "chip": "ym2612"
    },
    {
      "channel": 3,
      "note": 89,
      "start": 12.1039,
      "duration": 0.0347,
      "velocity": 124,
      "chip": "ym2612"
    },
    {
      "channel": 1,
      "note": 64,
      "start": 12.1065,
      "duration": 0.0691,
      "velocity": 95,
      "chip": "ym2612"
    },
    {
      "channel": 0,
      "note": 68,
      "start": 12.1088,
      "duration": 0.4591,
      "velocity": 127,
      "chip": "ym2612"
    },
    {
      "channel": 3,
      "note": 87,
      "start": 12.2178,
      "duration": 0.0318,
      "velocity": 124,
      "chip": "ym2612"
    },
    {
      "channel": 1,
      "note": 50,
      "start": 12.2204,
      "duration": 0.0793,
      "velocity": 95,
      "chip": "ym2612"
    },
    {
      "channel": 3,
      "note": 89,
      "start": 12.311,
      "duration": 0.0273,
      "velocity": 124,
      "chip": "ym2612"
    },
    {
      "channel": 1,
      "note": 52,
      "start": 12.3133,
      "duration": 0.1522,
      "velocity": 95,
      "chip": "ym2612"
    },
    {
      "channel": 3,
      "note": 87,
      "start": 12.4886,
      "duration": 0.0288,
      "velocity": 124,
      "chip": "ym2612"
    },
    {
      "channel": 1,
      "note": 57,
      "start": 12.4912,
      "duration": 0.0768,
      "velocity": 95,
      "chip": "ym2612"
    },
    {
      "channel": 3,
      "note": 89,
      "start": 12.5789,
      "duration": 0.028,
      "velocity": 124,
      "chip": "ym2612"
    },
    {
      "channel": 1,
      "note": 54,
      "start": 12.5814,
      "duration": 0.3423,
      "velocity": 95,
      "chip": "ym2612"
    },
    {
      "channel": 0,
      "note": 69,
      "start": 12.5838,
      "duration": 0.0897,
      "velocity": 127,
      "chip": "ym2612"
    },
    {
      "channel": 3,
      "note": 87,
      "start": 12.6967,
      "duration": 0.0307,
      "velocity": 124,
      "chip": "ym2612"
    },
    {
      "channel": 0,
      "note": 62,
      "start": 12.6995,
      "duration": 0.292,
      "velocity": 127,
      "chip": "ym2612"
    },
    {
      "channel": 3,
      "note": 89,
      "start": 12.7883,
      "duration": 0.0268,
      "velocity": 124,
      "chip": "ym2612"
    },
    {
      "channel": 3,
      "note": 87,
      "start": 12.964,
      "duration": 0.0276,
      "velocity": 124,
      "chip": "ym2612"
    },
    {
      "channel": 1,
      "note": 57,
      "start": 12.967,
      "duration": 0.0672,
      "velocity": 95,
      "chip": "ym2612"
    },
    {
      "channel": 3,
      "note": 89,
      "start": 13.0527,
      "duration": 0.0276,
      "velocity": 124,
      "chip": "ym2612"
    },
    {
      "channel": 1,
      "note": 54,
      "start": 13.0551,
      "duration": 0.0916,
      "velocity": 95,
      "chip": "ym2612"
    },
    {
      "channel": 0,
      "note": 61,
      "start": 13.0575,
      "duration": 0.4781,
      "velocity": 127,
      "chip": "ym2612"
    },
    {
      "channel": 3,
      "note": 87,
      "start": 13.1666,
      "duration": 0.0318,
      "velocity": 124,
      "chip": "ym2612"
    },
    {
      "channel": 1,
      "note": 61,
      "start": 13.1693,
      "duration": 0.0735,
      "velocity": 95,
      "chip": "ym2612"
    },
    {
      "channel": 3,
      "note": 89,
      "start": 13.2595,
      "duration": 0.028,
      "velocity": 124,
      "chip": "ym2612"
    },
    {
      "channel": 1,
      "note": 62,
      "start": 13.2619,
      "duration": 0.1526,
      "velocity": 95,
      "chip": "ym2612"
    },
    {
      "channel": 3,
      "note": 87,
      "start": 13.4379,
      "duration": 0.0287,
      "velocity": 124,
      "chip": "ym2612"
    },
    {
      "channel": 1,
      "note": 57,
      "start": 13.4402,
      "duration": 0.0769,
      "velocity": 95,
      "chip": "ym2612"
    },
    {
      "channel": 3,
      "note": 89,
      "start": 13.5278,
      "duration": 0.0278,
      "velocity": 124,
      "chip": "ym2612"
    },
    {
      "channel": 1,
      "note": 52,
      "start": 13.5305,
      "duration": 0.189,
      "velocity": 95,
      "chip": "ym2612"
    },
    {
      "channel": 4,
      "note": 59,
      "start": 13.5343,
      "duration": 0.0723,
      "velocity": 127,
      "chip": "ym2612"
    },
    {
      "channel": 3,
      "note": 87,
      "start": 13.6449,
      "duration": 0.0315,
      "velocity": 124,
      "chip": "ym2612"
    },
    {
      "channel": 0,
      "note": 61,
      "start": 13.6481,
      "duration": 0.9239,
      "velocity": 127,
      "chip": "ym2612"
    },
    {
      "channel": 3,
      "note": 89,
      "start": 13.7364,
      "duration": 0.0287,
      "velocity": 124,
      "chip": "ym2612"
    },
    {
      "channel": 1,
      "note": 56,
      "start": 13.7393,
      "duration": 0.1496,
      "velocity": 95,
      "chip": "ym2612"
    },
    {
      "channel": 3,
      "note": 87,
      "start": 13.912,
      "duration": 0.0287,
      "velocity": 124,
      "chip": "ym2612"
    },
    {
      "channel": 1,
      "note": 57,
      "start": 13.9145,
      "duration": 0.0934,
      "velocity": 95,
      "chip": "ym2612"
    },
    {
      "channel": 3,
      "note": 89,
      "start": 14.0019,
      "duration": 0.0272,
      "velocity": 124,
      "chip": "ym2612"
    },
    {
      "channel": 2,
      "note": 49,
      "start": 14.0049,
      "duration": 0.0926,
      "velocity": 95,
      "chip": "ym2612"
    },
    {
      "channel": 3,
      "note": 87,
      "start": 14.1171,
      "duration": 0.0317,
      "velocity": 124,
      "chip": "ym2612"
    },
    {
      "channel": 1,
      "note": 56,
      "start": 14.1198,
      "duration": 0.0724,
      "velocity": 95,
      "chip": "ym2612"
    },
    {
      "channel": 3,
      "note": 89,
      "start": 14.2101,
      "duration": 0.0274,
      "velocity": 124,
      "chip": "ym2612"
    },
    {
      "channel": 1,
      "note": 57,
      "start": 14.2127,
      "duration": 0.1521,
      "velocity": 95,
      "chip": "ym2612"
    },
    {
      "channel": 3,
      "note": 87,
      "start": 14.388,
      "duration": 0.0287,
      "velocity": 124,
      "chip": "ym2612"
    },
    {
      "channel": 1,
      "note": 50,
      "start": 14.3905,
      "duration": 0.0767,
      "velocity": 95,
      "chip": "ym2612"
    },
    {
      "channel": 3,
      "note": 89,
      "start": 14.4783,
      "duration": 0.0276,
      "velocity": 124,
      "chip": "ym2612"
    },
    {
      "channel": 1,
      "note": 57,
      "start": 14.4807,
      "duration": 0.0764,
      "velocity": 95,
      "chip": "ym2612"
    },
    {
      "channel": 3,
      "note": 87,
      "start": 14.595,
      "duration": 0.0307,
      "velocity": 124,
      "chip": "ym2612"
    },
    {
      "channel": 1,
      "note": 54,
      "start": 14.5978,
      "duration": 0.2405,
      "velocity": 95,
      "chip": "ym2612"
    },
    {
      "channel": 3,
      "note": 89,
      "start": 14.6865,
      "duration": 0.0265,
      "velocity": 124,
      "chip": "ym2612"
    },
    {
      "channel": 3,
      "note": 87,
      "start": 14.8614,
      "duration": 0.0282,
      "velocity": 124,
      "chip": "ym2612"
    },
    {
      "channel": 1,
      "note": 57,
      "start": 14.8641,
      "duration": 0.0717,
      "velocity": 95,
      "chip": "ym2612"
    },
    {
      "channel": 0,
      "note": 73,
      "start": 14.8668,
      "duration": 0.0226,
      "velocity": 124,
      "chip": "ym2612"
    },
    {
      "channel": 0,
      "note": 74,
      "start": 14.9072,
      "duration": 0.0284,
      "velocity": 124,
      "chip": "ym2612"
    },
    {
      "channel": 3,
      "note": 89,
      "start": 14.9531,
      "duration": 0.0285,
      "velocity": 124,
      "chip": "ym2612"
    },
    {
      "channel": 1,
      "note": 54,
      "start": 14.9559,
      "duration": 0.1084,
      "velocity": 95,
      "chip": "ym2612"
    },
    {
      "channel": 0,
      "note": 80,
      "start": 14.9583,
      "duration": 0.0306,
      "velocity": 124,
      "chip": "ym2612"
    },
    {
      "channel": 0,
      "note": 85,
      "start": 15.0008,
      "duration": 0.0334,
      "velocity": 124,
      "chip": "ym2612"
    },
    {
      "channel": 3,
      "note": 87,
      "start": 15.0675,
      "duration": 0.0334,
      "velocity": 124,
      "chip": "ym2612"
    },
    {
      "channel": 1,
      "note": 61,
      "start": 15.0702,
      "duration": 0.0823,
      "velocity": 95,
      "chip": "ym2612"
    },
    {
      "channel": 0,
      "note": 88,
      "start": 15.0728,
      "duration": 0.0211,
      "velocity": 124,
      "chip": "ym2612"
    },
    {
      "channel": 0,
      "note": 85,
      "start": 15.1183,
      "duration": 0.0341,
      "velocity": 124,
      "chip": "ym2612"
    },
    {
      "channel": 3,
      "note": 89,
      "start": 15.1617,
      "duration": 0.0285,
      "velocity": 124,
      "chip": "ym2612"
    },
    {
      "channel": 1,
      "note": 62,
      "start": 15.164,
      "duration": 0.1336,
      "velocity": 95,
      "chip": "ym2612"
    },
    {
      "channel": 0,
      "note": 80,
      "start": 15.1676,
      "duration": 0.03,
      "velocity": 124,
      "chip": "ym2612"
    },
    {
      "channel": 0,
      "note": 74,
      "start": 15.2176,
      "duration": 0.0632,
      "velocity": 124,
      "chip": "ym2612"
    },
    {
      "channel": 3,
      "note": 87,
      "start": 15.3375,
      "duration": 0.0279,
      "velocity": 124,
      "chip": "ym2612"
    },
    {
      "channel": 1,
      "note": 57,
      "start": 15.34,
      "duration": 0.0717,
      "velocity": 95,
      "chip": "ym2612"
    },
    {
      "channel": 0,
      "note": 73,
      "start": 15.3424,
      "duration": 0.0304,
      "velocity": 124,
      "chip": "ym2612"
    },
    {
      "channel": 0,
      "note": 74,
      "start": 15.3844,
      "duration": 0.0504,
      "velocity": 124,
      "chip": "ym2612"
    },
    {
      "channel": 3,
      "note": 89,
      "start": 15.4288,
      "duration": 0.0273,
      "velocity": 124,
      "chip": "ym2612"
    },
    {
      "channel": 1,
      "note": 52,
      "start": 15.4313,
      "duration": 0.1422,
      "velocity": 95,
      "chip": "ym2612"
    },
    {
      "channel": 4,
      "note": 80,
      "start": 15.4336,
      "duration": 0.0458,
      "velocity": 124,
      "chip": "ym2612"
    },
    {
      "channel": 0,
      "note": 85,
      "start": 15.4741,
      "duration": 0.047,
      "velocity": 124,
      "chip": "ym2612"
    },
    {
      "channel": 3,
      "note": 87,
      "start": 15.5276,
      "duration": 0.0378,
      "velocity": 124,
      "chip": "ym2612"
    },
    {
      "channel": 0,
      "note": 88,
      "start": 15.5304,
      "duration": 0.0276,
      "velocity": 124,
      "chip": "ym2612"
    },
    {
      "channel": 0,
      "note": 85,
      "start": 15.5833,
      "duration": 0.0338,
      "velocity": 124,
      "chip": "ym2612"
    },
    {
      "channel": 3,
      "note": 89,
      "start": 15.6273,
      "duration": 0.0284,
      "velocity": 124,
      "chip": "ym2612"
    },
    {
      "channel": 1,
      "note": 52,
      "start": 15.6307,
      "duration": 0.1399,
      "velocity": 95,
      "chip": "ym2612"
    },
    {
      "channel": 0,
      "note": 80,
      "start": 15.6332,
      "duration": 0.0223,
      "velocity": 124,
      "chip": "ym2612"
    },
    {
      "channel": 0,
      "note": 74,
      "start": 15.6909,
      "duration": 0.063,
      "velocity": 124,
      "chip": "ym2612"
    },
    {
      "channel": 3,
      "note": 87,
      "start": 15.7939,
      "duration": 0.0351,
      "velocity": 124,
      "chip": "ym2612"
    },
    {
      "channel": 1,
      "note": 56,
      "start": 15.7963,
      "duration": 0.0841,
      "velocity": 95,
      "chip": "ym2612"
    },
    {
      "channel": 0,
      "note": 73,
      "start": 15.7985,
      "duration": 0.0305,
      "velocity": 124,
      "chip": "ym2612"
    },
    {
      "channel": 0,
      "note": 76,
      "start": 15.8473,
      "duration": 0.033,
      "velocity": 124,
      "chip": "ym2612"
    },
    {
      "channel": 3,
      "note": 89,
      "start": 15.8908,
      "duration": 0.0286,
      "velocity": 124,
      "chip": "ym2612"
    },
    {
      "channel": 1,
      "note": 57,
      "start": 15.8932,
      "duration": 0.0844,
      "velocity": 95,
      "chip": "ym2612"
    },
    {
      "channel": 0,
      "note": 78,
      "start": 15.8955,
      "duration": 0.0315,
      "velocity": 124,
      "chip": "ym2612"
    },
    {
      "channel": 0,
      "note": 81,
      "start": 15.9381,
      "duration": 0.0394,
      "velocity": 124,
      "chip": "ym2612"
    },
    {
      "channel": 3,
      "note": 87,
      "start": 15.9973,
      "duration": 0.0405,
      "velocity": 124,
      "chip": "ym2612"
    },
    {
      "channel": 1,
      "note": 50,
      "start": 16.0,
      "duration": 0.0671,
      "velocity": 95,
      "chip": "ym2612"
    },
    {
      "channel": 0,
      "note": 83,
      "start": 16.0028,
      "duration": 0.0866,
      "velocity": 124,
      "chip": "ym2612"
    },
    {
      "channel": 3,
      "note": 89,
      "start": 16.1052,
      "duration": 0.0255,
      "velocity": 124,
      "chip": "ym2612"
    },
    {
      "channel": 1,
      "note": 50,
      "start": 16.1081,
      "duration": 0.0677,
      "velocity": 95,
      "chip": "ym2612"
    },
    {
      "channel": 0,
      "note": 81,
      "start": 16.1106,
      "duration": 0.0349,
      "velocity": 124,
      "chip": "ym2612"
    },
    {
      "channel": 0,
      "note": 78,
      "start": 16.1486,
      "duration": 0.0272,
      "velocity": 124,
      "chip": "ym2612"
    },
    {
      "channel": 3,
      "note": 87,
      "start": 16.1977,
      "duration": 0.0334,
      "velocity": 124,
      "chip": "ym2612"
    },
    {
      "channel": 1,
      "note": 56,
      "start": 16.2001,
      "duration": 0.0829,
      "velocity": 95,
      "chip": "ym2612"
    },
    {
      "channel": 0,
      "note": 83,
      "start": 16.2027,
      "duration": 0.0358,
      "velocity": 124,
      "chip": "ym2612"
    },
    {
      "channel": 0,
      "note": 81,
      "start": 16.2501,
      "duration": 0.079,
      "velocity": 124,
      "chip": "ym2612"
    },
    {
      "channel": 3,
      "note": 89,
      "start": 16.2943,
      "duration": 0.0282,
      "velocity": 124,
      "chip": "ym2612"
    },
    {
      "channel": 1,
      "note": 57,
      "start": 16.2968,
      "duration": 0.0554,
      "velocity": 95,
      "chip": "ym2612"
    },
    {
      "channel": 0,
      "note": 78,
      "start": 16.341,
      "duration": 0.0371,
      "velocity": 124,
      "chip": "ym2612"
    },
    {
      "channel": 3,
      "note": 87,
      "start": 16.4012,
      "duration": 0.041,
      "velocity": 124,
      "chip": "ym2612"
    },
    {
      "channel": 1,
      "note": 54,
      "start": 16.404,
      "duration": 0.2417,
      "velocity": 95,
      "chip": "ym2612"
    },
    {
      "channel": 0,
      "note": 76,
      "start": 16.4069,
      "duration": 0.8163,
      "velocity": 124,
      "chip": "ym2612"
    },
    {
      "channel": 3,
      "note": 89,
      "start": 16.502,
      "duration": 0.0282,
      "velocity": 124,
      "chip": "ym2612"
    },
    {
      "channel": 3,
      "note": 87,
      "start": 16.6688,
      "duration": 0.0335,
      "velocity": 124,
      "chip": "ym2612"
    },
    {
      "channel": 1,
      "note": 57,
      "start": 16.6715,
      "duration": 0.0831,
      "velocity": 95,
      "chip": "ym2612"
    },
    {
      "channel": 3,
      "note": 89,
      "start": 16.7636,
      "duration": 0.0287,
      "velocity": 124,
      "chip": "ym2612"
    },
    {
      "channel": 1,
      "note": 54,
      "start": 16.7659,
      "duration": 0.0704,
      "velocity": 95,
      "chip": "ym2612"
    },
    {
      "channel": 3,
      "note": 87,
      "start": 16.8729,
      "duration": 0.0394,
      "velocity": 124,
      "chip": "ym2612"
    },
    {
      "channel": 1,
      "note": 61,
      "start": 16.8755,
      "duration": 0.0876,
      "velocity": 95,
      "chip": "ym2612"
    },
    {
      "channel": 3,
      "note": 89,
      "start": 16.9729,
      "duration": 0.0309,
      "velocity": 124,
      "chip": "ym2612"
    },
    {
      "channel": 1,
      "note": 62,
      "start": 16.9756,
      "duration": 0.1449,
      "velocity": 95,
      "chip": "ym2612"
    },
    {
      "channel": 3,
      "note": 87,
      "start": 17.1434,
      "duration": 0.0292,
      "velocity": 124,
      "chip": "ym2612"
    },
    {
      "channel": 1,
      "note": 57,
      "start": 17.146,
      "duration": 0.0855,
      "velocity": 95,
      "chip": "ym2612"
    },
    {
      "channel": 3,
      "note": 89,
      "start": 17.2403,
      "duration": 0.029,
      "velocity": 124,
      "chip": "ym2612"
    },
    {
      "channel": 1,
      "note": 52,
      "start": 17.2428,
      "duration": 0.1974,
      "velocity": 95,
      "chip": "ym2612"
    },
    {
      "channel": 0,
      "note": 80,
      "start": 17.2465,
      "duration": 0.4521,
      "velocity": 124,
      "chip": "ym2612"
    },
    {
      "channel": 3,
      "note": 87,
      "start": 17.3521,
      "duration": 0.0294,
      "velocity": 124,
      "chip": "ym2612"
    },
    {
      "channel": 3,
      "note": 89,
      "start": 17.4513,
      "duration": 0.0286,
      "velocity": 124,
      "chip": "ym2612"
    },
    {
      "channel": 1,
      "note": 56,
      "start": 17.454,
      "duration": 0.1593,
      "velocity": 95,
      "chip": "ym2612"
    },
    {
      "channel": 3,
      "note": 87,
      "start": 17.6199,
      "duration": 0.028,
      "velocity": 124,
      "chip": "ym2612"
    },
    {
      "channel": 1,
      "note": 57,
      "start": 17.6225,
      "duration": 0.1083,
      "velocity": 95,
      "chip": "ym2612"
    },
    {
      "channel": 3,
      "note": 89,
      "start": 17.7162,
      "duration": 0.0296,
      "velocity": 124,
      "chip": "ym2612"
    },
    {
      "channel": 2,
      "note": 49,
      "start": 17.7189,
      "duration": 0.087,
      "velocity": 95,
      "chip": "ym2612"
    },
    {
      "channel": 0,
      "note": 86,
      "start": 17.7225,
      "duration": 0.0831,
      "velocity": 124,
      "chip": "ym2612"
    },
    {
      "channel": 3,
      "note": 87,
      "start": 17.8255,
      "duration": 0.0336,
      "velocity": 124,
      "chip": "ym2612"
    },
    {
      "channel": 1,
      "note": 56,
      "start": 17.828,
      "duration": 0.0897,
      "velocity": 95,
      "chip": "ym2612"
    },
    {
      "channel": 0,
      "note": 85,
      "start": 17.8308,
      "duration": 0.3468,
      "velocity": 124,
      "chip": "ym2612"
    },
    {
      "channel": 3,
      "note": 89,
      "start": 17.9288,
      "duration": 0.0293,
      "velocity": 124,
      "chip": "ym2612"
    },
    {
      "channel": 1,
      "note": 57,
      "start": 17.9311,
      "duration": 0.1435,
      "velocity": 95,
      "chip": "ym2612"
    },
    {
      "channel": 3,
      "note": 87,
      "start": 18.0977,
      "duration": 0.0291,
      "velocity": 124,
      "chip": "ym2612"
    },
    {
      "channel": 1,
      "note": 50,
      "start": 18.1003,
      "duration": 0.0857,
      "velocity": 95,
      "chip": "ym2612"
    },
    {
      "channel": 3,
      "note": 89,
      "start": 18.1947,
      "duration": 0.0298,
      "velocity": 124,
      "chip": "ym2612"
    },
    {
      "channel": 1,
      "note": 57,
      "start": 18.1986,
      "duration": 0.0695,
      "velocity": 95,
      "chip": "ym2612"
    },
    {
      "channel": 0,
      "note": 83,
      "start": 18.2012,
      "duration": 0.099,
      "velocity": 124,
      "chip": "ym2612"
    },
    {
      "channel": 3,
      "note": 87,
      "start": 18.3067,
      "duration": 0.0341,
      "velocity": 124,
      "chip": "ym2612"
    },
    {
      "channel": 1,
      "note": 54,
      "start": 18.3096,
      "duration": 0.2235,
      "velocity": 95,
      "chip": "ym2612"
    },
    {
      "channel": 0,
      "note": 85,
      "start": 18.3127,
      "duration": 0.8229,
      "velocity": 124,
      "chip": "ym2612"
    },
    {
      "channel": 3,
      "note": 89,
      "start": 18.4078,
      "duration": 0.0259,
      "velocity": 124,
      "chip": "ym2612"
    },
    {
      "channel": 3,
      "note": 87,
      "start": 18.573,
      "duration": 0.029,
      "velocity": 124,
      "chip": "ym2612"
    },
    {
      "channel": 1,
      "note": 57,
      "start": 18.5756,
      "duration": 0.0771,
      "velocity": 95,
      "chip": "ym2612"
    },
    {
      "channel": 3,
      "note": 89,
      "start": 18.6703,
      "duration": 0.0286,
      "velocity": 124,
      "chip": "ym2612"
    },
    {
      "channel": 1,
      "note": 54,
      "start": 18.6726,
      "duration": 0.0551,
      "velocity": 95,
      "chip": "ym2612"
    },
    {
      "channel": 3,
      "note": 87,
      "start": 18.7792,
      "duration": 0.0317,
      "velocity": 124,
      "chip": "ym2612"
    },
    {
      "channel": 1,
      "note": 61,
      "start": 18.7818,
      "duration": 0.0881,
      "velocity": 95,
      "chip": "ym2612"
    },
    {
      "channel": 3,
      "note": 89,
      "start": 18.8797,
      "duration": 0.0308,
      "velocity": 124,
      "chip": "ym2612"
    },
    {
      "channel": 1,
      "note": 62,
      "start": 18.882,
      "duration": 0.1452,
      "velocity": 95,
      "chip": "ym2612"
    },
    {
      "channel": 3,
      "note": 87,
      "start": 19.0501,
      "duration": 0.0279,
      "velocity": 124,
      "chip": "ym2612"
    },
    {
      "channel": 1,
      "note": 57,
      "start": 19.0527,
      "duration": 0.075,
      "velocity": 95,
      "chip": "ym2612"
    },
    {
      "channel": 3,
      "note": 89,
      "start": 19.1445,
      "duration": 0.0292,
      "velocity": 124,
      "chip": "ym2612"
    },
    {
      "channel": 1,
      "note": 52,
      "start": 19.1483,
      "duration": 0.1958,
      "velocity": 95,
      "chip": "ym2612"
    },
    {
      "channel": 0,
      "note": 86,
      "start": 19.1513,
      "duration": 0.0663,
      "velocity": 124,
      "chip": "ym2612"
    },
    {
      "channel": 3,
      "note": 87,
      "start": 19.2563,
      "duration": 0.0305,
      "velocity": 124,
      "chip": "ym2612"
    },
    {
      "channel": 0,
      "note": 81,
      "start": 19.2593,
      "duration": 0.3259,
      "velocity": 124,
      "chip": "ym2612"
    },
    {
      "channel": 3,
      "note": 89,
      "start": 19.3551,
      "duration": 0.0271,
      "velocity": 124,
      "chip": "ym2612"
    },
    {
      "channel": 1,
      "note": 56,
      "start": 19.3578,
      "duration": 0.1577,
      "velocity": 95,
      "chip": "ym2612"
    },
    {
      "channel": 3,
      "note": 87,
      "start": 19.522,
      "duration": 0.0277,
      "velocity": 124,
      "chip": "ym2612"
    },
    {
      "channel": 1,
      "note": 57,
      "start": 19.5245,
      "duration": 0.1002,
      "velocity": 95,
      "chip": "ym2612"
    },
    {
      "channel": 3,
      "note": 89,
      "start": 19.617,
      "duration": 0.0297,
      "velocity": 124,
      "chip": "ym2612"
    },
    {
      "channel": 2,
      "note": 64,
      "start": 19.6197,
      "duration": 0.0636,
      "velocity": 95,
      "chip": "ym2612"
    },
    {
      "channel": 0,
      "note": 80,
      "start": 19.6233,
      "duration": 0.4378,
      "velocity": 124,
      "chip": "ym2612"
    },
    {
      "channel": 3,
      "note": 87,
      "start": 19.7263,
      "duration": 0.0317,
      "velocity": 124,
      "chip": "ym2612"
    },
    {
      "channel": 1,
      "note": 50,
      "start": 19.7289,
      "duration": 0.0798,
      "velocity": 95,
      "chip": "ym2612"
    },
    {
      "channel": 3,
      "note": 89,
      "start": 19.8256,
      "duration": 0.0308,
      "velocity": 124,
      "chip": "ym2612"
    },
    {
      "channel": 1,
      "note": 52,
      "start": 19.8279,
      "duration": 0.1452,
      "velocity": 95,
      "chip": "ym2612"
    },
    {
      "channel": 3,
      "note": 87,
      "start": 19.9961,
      "duration": 0.0292,
      "velocity": 124,
      "chip": "ym2612"
    },
    {
      "channel": 1,
      "note": 57,
      "start": 19.9987,
      "duration": 0.0769,
      "velocity": 95,
      "chip": "ym2612"
    },
    {
      "channel": 3,
      "note": 89,
      "start": 20.0922,
      "duration": 0.0298,
      "velocity": 124,
      "chip": "ym2612"
    },
    {
      "channel": 1,
      "note": 54,
      "start": 20.0947,
      "duration": 0.3349,
      "velocity": 95,
      "chip": "ym2612"
    },
    {
      "channel": 0,
      "note": 81,
      "start": 20.0982,
      "duration": 0.0822,
      "velocity": 124,
      "chip": "ym2612"
    },
    {
      "channel": 3,
      "note": 87,
      "start": 20.2034,
      "duration": 0.0304,
      "velocity": 124,
      "chip": "ym2612"
    },
    {
      "channel": 0,
      "note": 74,
      "start": 20.2064,
      "duration": 0.3338,
      "velocity": 124,
      "chip": "ym2612"
    },
    {
      "channel": 3,
      "note": 89,
      "start": 20.2943,
      "duration": 0.0352,
      "velocity": 124,
      "chip": "ym2612"
    },
    {
      "channel": 3,
      "note": 87,
      "start": 20.4692,
      "duration": 0.0281,
      "velocity": 124,
      "chip": "ym2612"
    },
    {
      "channel": 1,
      "note": 57,
      "start": 20.4722,
      "duration": 0.0753,
      "velocity": 95,
      "chip": "ym2612"
    },
    {
      "channel": 3,
      "note": 89,
      "start": 20.5581,
      "duration": 0.0357,
      "velocity": 124,
      "chip": "ym2612"
    },
    {
      "channel": 1,
      "note": 54,
      "start": 20.5604,
      "duration": 0.091,
      "velocity": 95,
      "chip": "ym2612"
    },
    {
      "channel": 0,
      "note": 73,
      "start": 20.563,
      "duration": 0.3558,
      "velocity": 124,
      "chip": "ym2612"
    },
    {
      "channel": 3,
      "note": 87,
      "start": 20.6713,
      "duration": 0.032,
      "velocity": 124,
      "chip": "ym2612"
    },
    {
      "channel": 1,
      "note": 61,
      "start": 20.6739,
      "duration": 0.0798,
      "velocity": 95,
      "chip": "ym2612"
    },
    {
      "channel": 3,
      "note": 89,
      "start": 20.7644,
      "duration": 0.038,
      "velocity": 124,
      "chip": "ym2612"
    },
    {
      "channel": 1,
      "note": 62,
      "start": 20.7669,
      "duration": 0.1521,
      "velocity": 95,
      "chip": "ym2612"
    },
    {
      "channel": 3,
      "note": 87,
      "start": 20.9421,
      "duration": 0.0279,
      "velocity": 124,
      "chip": "ym2612"
    },
    {
      "channel": 1,
      "note": 57,
      "start": 20.9444,
      "duration": 0.0759,
      "velocity": 95,
      "chip": "ym2612"
    },
    {
      "channel": 0,
      "note": 71,
      "start": 20.9475,
      "duration": 0.0727,
      "velocity": 124,
      "chip": "ym2612"
    },
    {
      "channel": 3,
      "note": 89,
      "start": 21.0315,
      "duration": 0.0351,
      "velocity": 124,
      "chip": "ym2612"
    },
    {
      "channel": 1,
      "note": 52,
      "start": 21.0342,
      "duration": 0.1866,
      "velocity": 95,
      "chip": "ym2612"
    },
    {
      "channel": 0,
      "note": 73,
      "start": 21.0372,
      "duration": 1.1311,
      "velocity": 124,
      "chip": "ym2612"
    },
    {
      "channel": 3,
      "note": 87,
      "start": 21.1482,
      "duration": 0.0295,
      "velocity": 124,
      "chip": "ym2612"
    },
    {
      "channel": 3,
      "note": 89,
      "start": 21.2389,
      "duration": 0.038,
      "velocity": 124,
      "chip": "ym2612"
    },
    {
      "channel": 1,
      "note": 56,
      "start": 21.2426,
      "duration": 0.151,
      "velocity": 95,
      "chip": "ym2612"
    },
    {
      "channel": 3,
      "note": 87,
      "start": 21.4166,
      "duration": 0.028,
      "velocity": 124,
      "chip": "ym2612"
    },
    {
      "channel": 1,
      "note": 57,
      "start": 21.4192,
      "duration": 0.092,
      "velocity": 95,
      "chip": "ym2612"
    },
    {
      "channel": 3,
      "note": 89,
      "start": 21.5056,
      "duration": 0.0351,
      "velocity": 124,
      "chip": "ym2612"
    },
    {
      "channel": 2,
      "note": 49,
      "start": 21.5084,
      "duration": 0.094,
      "velocity": 95,
      "chip": "ym2612"
    },
    {
      "channel": 3,
      "note": 87,
      "start": 21.622,
      "duration": 0.0323,
      "velocity": 124,
      "chip": "ym2612"
    },
    {
      "channel": 1,
      "note": 56,
      "start": 21.625,
      "duration": 0.0741,
      "velocity": 95,
      "chip": "ym2612"
    },
    {
      "channel": 3,
      "note": 89,
      "start": 21.7161,
      "duration": 0.0381,
      "velocity": 124,
      "chip": "ym2612"
    },
    {
      "channel": 1,
      "note": 57,
      "start": 21.7186,
      "duration": 0.1523,
      "velocity": 95,
      "chip": "ym2612"
    },
    {
      "channel": 3,
      "note": 87,
      "start": 21.8942,
      "duration": 0.0279,
      "velocity": 124,
      "chip": "ym2612"
    },
    {
      "channel": 1,
      "note": 50,
      "start": 21.8969,
      "duration": 0.1132,
      "velocity": 95,
      "chip": "ym2612"
    },
    {
      "channel": 3,
      "note": 89,
      "start": 21.9831,
      "duration": 0.027,
      "velocity": 124,
      "chip": "ym2612"
    },
    {
      "channel": 2,
      "note": 57,
      "start": 21.9858,
      "duration": 0.076,
      "velocity": 95,
      "chip": "ym2612"
    },
    {
      "channel": 3,
      "note": 87,
      "start": 22.1014,
      "duration": 0.0305,
      "velocity": 124,
      "chip": "ym2612"
    },
    {
      "channel": 1,
      "note": 54,
      "start": 22.1042,
      "duration": 0.239,
      "velocity": 95,
      "chip": "ym2612"
    },
    {
      "channel": 3,
      "note": 89,
      "start": 22.1925,
      "duration": 0.027,
      "velocity": 124,
      "chip": "ym2612"
    },
    {
      "channel": 0,
      "note": 80,
      "start": 22.1954,
      "duration": 0.4569,
      "velocity": 124,
      "chip": "ym2612"
    },
    {
      "channel": 3,
      "note": 87,
      "start": 22.3666,
      "duration": 0.0267,
      "velocity": 124,
      "chip": "ym2612"
    },
    {
      "channel": 1,
      "note": 57,
      "start": 22.3693,
      "duration": 0.0682,
      "velocity": 95,
      "chip": "ym2612"
    },
    {
      "channel": 3,
      "note": 89,
      "start": 22.4557,
      "duration": 0.0269,
      "velocity": 124,
      "chip": "ym2612"
    },
    {
      "channel": 1,
      "note": 54,
      "start": 22.4583,
      "duration": 0.1075,
      "velocity": 95,
      "chip": "ym2612"
    },
    {
      "channel": 3,
      "note": 87,
      "start": 22.5691,
      "duration": 0.0326,
      "velocity": 124,
      "chip": "ym2612"
    },
    {
      "channel": 1,
      "note": 61,
      "start": 22.5722,
      "duration": 0.0802,
      "velocity": 95,
      "chip": "ym2612"
    },
    {
      "channel": 3,
      "note": 89,
      "start": 22.6634,
      "duration": 0.0281,
      "velocity": 124,
      "chip": "ym2612"
    },
    {
      "channel": 1,
      "note": 62,
      "start": 22.6657,
      "duration": 0.1515,
      "velocity": 95,
      "chip": "ym2612"
    },
    {
      "channel": 0,
      "note": 76,
      "start": 22.6683,
      "duration": 0.1487,
      "velocity": 124,
      "chip": "ym2612"
    },
    {
      "channel": 3,
      "note": 87,
      "start": 22.8404,
      "duration": 0.0277,
      "velocity": 124,
      "chip": "ym2612"
    },
    {
      "channel": 1,
      "note": 57,
      "start": 22.843,
      "duration": 0.0689,
      "velocity": 95,
      "chip": "ym2612"
    },
    {
      "channel": 0,
      "note": 73,
      "start": 22.8451,
      "duration": 0.0735,
      "velocity": 124,
      "chip": "ym2612"
    },
    {
      "channel": 3,
      "note": 89,
      "start": 22.9298,
      "duration": 0.0295,
      "velocity": 124,
      "chip": "ym2612"
    },
    {
      "channel": 1,
      "note": 52,
      "start": 22.9325,
      "duration": 0.1526,
      "velocity": 95,
      "chip": "ym2612"
    },
    {
      "channel": 0,
      "note": 80,
      "start": 22.9351,
      "duration": 0.4586,
      "velocity": 124,
      "chip": "ym2612"
    },
    {
      "channel": 3,
      "note": 87,
      "start": 23.0475,
      "duration": 0.0304,
      "velocity": 124,
      "chip": "ym2612"
    },
    {
      "channel": 3,
      "note": 89,
      "start": 23.139,
      "duration": 0.028,
      "velocity": 124,
      "chip": "ym2612"
    },
    {
      "channel": 1,
      "note": 52,
      "start": 23.1428,
      "duration": 0.1491,
      "velocity": 95,
      "chip": "ym2612"
    },
    {
      "channel": 3,
      "note": 87,
      "start": 23.3151,
      "duration": 0.0278,
      "velocity": 124,
      "chip": "ym2612"
    },
    {
      "channel": 1,
      "note": 56,
      "start": 23.3177,
      "duration": 0.0762,
      "velocity": 95,
      "chip": "ym2612"
    },
    {
      "channel": 3,
      "note": 89,
      "start": 23.405,
      "duration": 0.0278,
      "velocity": 124,
      "chip": "ym2612"
    },
    {
      "channel": 1,
      "note": 57,
      "start": 23.4073,
      "duration": 0.0927,
      "velocity": 95,
      "chip": "ym2612"
    },
    {
      "channel": 0,
      "note": 76,
      "start": 23.4098,
      "duration": 0.0901,
      "velocity": 124,
      "chip": "ym2612"
    },
    {
      "channel": 3,
      "note": 87,
      "start": 23.5197,
      "duration": 0.0327,
      "velocity": 124,
      "chip": "ym2612"
    },
    {
      "channel": 1,
      "note": 50,
      "start": 23.5224,
      "duration": 0.0599,
      "velocity": 95,
      "chip": "ym2612"
    },
    {
      "channel": 0,
      "note": 83,
      "start": 23.5254,
      "duration": 0.0784,
      "velocity": 124,
      "chip": "ym2612"
    },
    {
      "channel": 3,
      "note": 89,
      "start": 23.6171,
      "duration": 0.0267,
      "velocity": 124,
      "chip": "ym2612"
    },
    {
      "channel": 1,
      "note": 50,
      "start": 23.62,
      "duration": 0.0745,
      "velocity": 95,
      "chip": "ym2612"
    },
    {
      "channel": 0,
      "note": 81,
      "start": 23.6227,
      "duration": 0.0717,
      "velocity": 124,
      "chip": "ym2612"
    },
    {
      "channel": 3,
      "note": 87,
      "start": 23.7169,
      "duration": 0.0262,
      "velocity": 124,
      "chip": "ym2612"
    },
    {
      "channel": 1,
      "note": 56,
      "start": 23.7197,
      "duration": 0.0747,
      "velocity": 95,
      "chip": "ym2612"
    },
    {
      "channel": 0,
      "note": 78,
      "start": 23.7221,
      "duration": 0.0722,
      "velocity": 124,
      "chip": "ym2612"
    },
    {
      "channel": 3,
      "note": 89,
      "start": 23.804,
      "duration": 0.0293,
      "velocity": 124,
      "chip": "ym2612"
    },
    {
      "channel": 1,
      "note": 57,
      "start": 23.8077,
      "duration": 0.0542,
      "velocity": 95,
      "chip": "ym2612"
    },
    {
      "channel": 0,
      "note": 76,
      "start": 23.8102,
      "duration": 0.0591,
      "velocity": 124,
      "chip": "ym2612"
    },
    {
      "channel": 3,
      "note": 87,
      "start": 23.9191,
      "duration": 0.0315,
      "velocity": 124,
      "chip": "ym2612"
    },
    {
      "channel": 1,
      "note": 55,
      "start": 23.922,
      "duration": 0.0868,
      "velocity": 95,
      "chip": "ym2612"
    },
    {
      "channel": 0,
      "note": 74,
      "start": 23.9691,
      "duration": 0.0321,
      "velocity": 124,
      "chip": "ym2612"
    },
    {
      "channel": 3,
      "note": 89,
      "start": 24.0114,
      "duration": 0.029,
      "velocity": 124,
      "chip": "ym2612"
    },
    {
      "channel": 0,
      "note": 79,
      "start": 24.014,
      "duration": 0.0341,
      "velocity": 124,
      "chip": "ym2612"
    },
    {
      "channel": 0,
      "note": 83,
      "start": 24.0673,
      "duration": 0.0798,
      "velocity": 124,
      "chip": "ym2612"
    },
    {
      "channel": 3,
      "note": 87,
      "start": 24.1872,
      "duration": 0.0287,
      "velocity": 124,
      "chip": "ym2612"
    },
    {
      "channel": 0,
      "note": 85,
      "start": 24.1899,
      "duration": 0.0324,
      "velocity": 124,
      "chip": "ym2612"
    },
    {
      "channel": 0,
      "note": 83,
      "start": 24.234,
      "duration": 0.0329,
      "velocity": 124,
      "chip": "ym2612"
    },
    {
      "channel": 3,
      "note": 89,
      "start": 24.2781,
      "duration": 0.0288,
      "velocity": 124,
      "chip": "ym2612"
    },
    {
      "channel": 1,
      "note": 55,
      "start": 24.2809,
      "duration": 0.0912,
      "velocity": 95,
      "chip": "ym2612"
    },
    {
      "channel": 0,
      "note": 79,
      "start": 24.2832,
      "duration": 0.0304,
      "velocity": 124,
      "chip": "ym2612"
    },
    {
      "channel": 0,
      "note": 74,
      "start": 24.3254,
      "duration": 0.0465,
      "velocity": 124,
      "chip": "ym2612"
    },
    {
      "channel": 3,
      "note": 87,
      "start": 24.3918,
      "duration": 0.0317,
      "velocity": 124,
      "chip": "ym2612"
    },
    {
      "channel": 1,
      "note": 57,
      "start": 24.3947,
      "duration": 0.0726,
      "velocity": 95,
      "chip": "ym2612"
    },
    {
      "channel": 0,
      "note": 76,
      "start": 24.4411,
      "duration": 0.0261,
      "velocity": 124,
      "chip": "ym2612"
    },
    {
      "channel": 3,
      "note": 89,
      "start": 24.4851,
      "duration": 0.029,
      "velocity": 124,
      "chip": "ym2612"
    },
    {
      "channel": 0,
      "note": 81,
      "start": 24.4879,
      "duration": 0.0345,
      "velocity": 124,
      "chip": "ym2612"
    },
    {
      "channel": 0,
      "note": 85,
      "start": 24.5425,
      "duration": 0.08,
      "velocity": 124,
      "chip": "ym2612"
    },
    {
      "channel": 3,
      "note": 87,
      "start": 24.6627,
      "duration": 0.0279,
      "velocity": 124,
      "chip": "ym2612"
    },
    {
      "channel": 0,
      "note": 86,
      "start": 24.6656,
      "duration": 0.0311,
      "velocity": 124,
      "chip": "ym2612"
    },
    {
      "channel": 0,
      "note": 85,
      "start": 24.7078,
      "duration": 0.0267,
      "velocity": 124,
      "chip": "ym2612"
    },
    {
      "channel": 3,
      "note": 89,
      "start": 24.752,
      "duration": 0.0282,
      "velocity": 124,
      "chip": "ym2612"
    },
    {
      "channel": 1,
      "note": 57,
      "start": 24.7545,
      "duration": 0.0689,
      "velocity": 95,
      "chip": "ym2612"
    },
    {
      "channel": 0,
      "note": 81,
      "start": 24.7569,
      "duration": 0.029,
      "velocity": 124,
      "chip": "ym2612"
    },
    {
      "channel": 0,
      "note": 76,
      "start": 24.7976,
      "duration": 0.0333,
      "velocity": 124,
      "chip": "ym2612"
    },
    {
      "channel": 3,
      "note": 87,
      "start": 24.8679,
      "duration": 0.0307,
      "velocity": 124,
      "chip": "ym2612"
    },
    {
      "channel": 1,
      "note": 59,
      "start": 24.8709,
      "duration": 0.072,
      "velocity": 95,
      "chip": "ym2612"
    },
    {
      "channel": 0,
      "note": 78,
      "start": 24.9165,
      "duration": 0.0263,
      "velocity": 124,
      "chip": "ym2612"
    },
    {
      "channel": 3,
      "note": 89,
      "start": 24.9599,
      "duration": 0.0296,
      "velocity": 124,
      "chip": "ym2612"
    },
    {
      "channel": 1,
      "note": 59,
      "start": 24.9626,
      "duration": 0.1328,
      "velocity": 95,
      "chip": "ym2612"
    },
    {
      "channel": 0,
      "note": 83,
      "start": 24.965,
      "duration": 0.032,
      "velocity": 124,
      "chip": "ym2612"
    },
    {
      "channel": 0,
      "note": 87,
      "start": 25.0155,
      "duration": 0.0632,
      "velocity": 124,
      "chip": "ym2612"
    },
    {
      "channel": 3,
      "note": 87,
      "start": 25.1187,
      "duration": 0.0347,
      "velocity": 124,
      "chip": "ym2612"
    },
    {
      "channel": 1,
      "note": 59,
      "start": 25.1213,
      "duration": 0.0708,
      "velocity": 95,
      "chip": "ym2612"
    },
    {
      "channel": 0,
      "note": 88,
      "start": 25.1238,
      "duration": 0.0369,
      "velocity": 124,
      "chip": "ym2612"
    },
    {
      "channel": 0,
      "note": 87,
      "start": 25.1724,
      "duration": 0.0334,
      "velocity": 124,
      "chip": "ym2612"
    },
    {
      "channel": 3,
      "note": 89,
      "start": 25.2163,
      "duration": 0.028,
      "velocity": 124,
      "chip": "ym2612"
    },
    {
      "channel": 1,
      "note": 59,
      "start": 25.2188,
      "duration": 0.0834,
      "velocity": 95,
      "chip": "ym2612"
    },
    {
      "channel": 0,
      "note": 83,
      "start": 25.2211,
      "duration": 0.0301,
      "velocity": 124,
      "chip": "ym2612"
    },
    {
      "channel": 0,
      "note": 78,
      "start": 25.2625,
      "duration": 0.0265,
      "velocity": 124,
      "chip": "ym2612"
    },
    {
      "channel": 3,
      "note": 87,
      "start": 25.322,
      "duration": 0.0402,
      "velocity": 124,
      "chip": "ym2612"
    },
    {
      "channel": 1,
      "note": 59,
      "start": 25.3246,
      "duration": 0.0891,
      "velocity": 95,
      "chip": "ym2612"
    },
    {
      "channel": 0,
      "note": 88,
      "start": 25.3273,
      "duration": 0.0863,
      "velocity": 124,
      "chip": "ym2612"
    },
    {
      "channel": 3,
      "note": 89,
      "start": 25.4249,
      "duration": 0.0287,
      "velocity": 124,
      "chip": "ym2612"
    },
    {
      "channel": 1,
      "note": 59,
      "start": 25.4276,
      "duration": 0.2228,
      "velocity": 95,
      "chip": "ym2612"
    },
    {
      "channel": 0,
      "note": 87,
      "start": 25.4306,
      "duration": 0.0227,
      "velocity": 124,
      "chip": "ym2612"
    },
    {
      "channel": 0,
      "note": 83,
      "start": 25.4901,
      "duration": 0.08,
      "velocity": 124,
      "chip": "ym2612"
    },
    {
      "channel": 3,
      "note": 87,
      "start": 25.5933,
      "duration": 0.0341,
      "velocity": 124,
      "chip": "ym2612"
    },
    {
      "channel": 0,
      "note": 78,
      "start": 25.5959,
      "duration": 0.0314,
      "velocity": 124,
      "chip": "ym2612"
    },
    {
      "channel": 0,
      "note": 76,
      "start": 25.6459,
      "duration": 0.0339,
      "velocity": 124,
      "chip": "ym2612"
    },
    {
      "channel": 3,
      "note": 89,
      "start": 25.69,
      "duration": 0.0294,
      "velocity": 124,
      "chip": "ym2612"
    },
    {
      "channel": 1,
      "note": 59,
      "start": 25.6927,
      "duration": 0.0645,
      "velocity": 95,
      "chip": "ym2612"
    },
    {
      "channel": 0,
      "note": 75,
      "start": 25.6949,
      "duration": 0.0314,
      "velocity": 124,
      "chip": "ym2612"
    },
    {
      "channel": 0,
      "note": 71,
      "start": 25.7368,
      "duration": 0.042,
      "velocity": 124,
      "chip": "ym2612"
    },
    {
      "channel": 3,
      "note": 87,
      "start": 25.8019,
      "duration": 0.0395,
      "velocity": 124,
      "chip": "ym2612"
    },
    {
      "channel": 1,
      "note": 60,
      "start": 25.8046,
      "duration": 0.0728,
      "velocity": 95,
      "chip": "ym2612"
    },
    {
      "channel": 0,
      "note": 66,
      "start": 25.8073,
      "duration": 0.0278,
      "velocity": 124,
      "chip": "ym2612"
    },
    {
      "channel": 0,
      "note": 67,
      "start": 25.8583,
      "duration": 0.0346,
      "velocity": 124,
      "chip": "ym2612"
    },
    {
      "channel": 3,
      "note": 89,
      "start": 25.9022,
      "duration": 0.0287,
      "velocity": 124,
      "chip": "ym2612"
    },
    {
      "channel": 0,
      "note": 72,
      "start": 25.9047,
      "duration": 0.0411,
      "velocity": 124,
      "chip": "ym2612"
    },
    {
      "channel": 0,
      "note": 76,
      "start": 25.9657,
      "duration": 0.0801,
      "velocity": 124,
      "chip": "ym2612"
    },
    {
      "channel": 3,
      "note": 87,
      "start": 26.069,
      "duration": 0.0349,
      "velocity": 124,
      "chip": "ym2612"
    },
    {
      "channel": 0,
      "note": 78,
      "start": 26.0719,
      "duration": 0.0396,
      "velocity": 124,
      "chip": "ym2612"
    },
    {
      "channel": 0,
      "note": 76,
      "start": 26.1226,
      "duration": 0.0259,
      "velocity": 124,
      "chip": "ym2612"
    },
    {
      "channel": 3,
      "note": 89,
      "start": 26.1659,
      "duration": 0.0287,
      "velocity": 124,
      "chip": "ym2612"
    },
    {
      "channel": 1,
      "note": 60,
      "start": 26.1688,
      "duration": 0.0699,
      "velocity": 95,
      "chip": "ym2612"
    },
    {
      "channel": 0,
      "note": 72,
      "start": 26.1724,
      "duration": 0.029,
      "velocity": 124,
      "chip": "ym2612"
    },
    {
      "channel": 0,
      "note": 67,
      "start": 26.2119,
      "duration": 0.0412,
      "velocity": 124,
      "chip": "ym2612"
    },
    {
      "channel": 3,
      "note": 87,
      "start": 26.2729,
      "duration": 0.0393,
      "velocity": 124,
      "chip": "ym2612"
    },
    {
      "channel": 1,
      "note": 62,
      "start": 26.2756,
      "duration": 0.0804,
      "velocity": 95,
      "chip": "ym2612"
    },
    {
      "channel": 0,
      "note": 69,
      "start": 26.3304,
      "duration": 0.0333,
      "velocity": 124,
      "chip": "ym2612"
    },
    {
      "channel": 3,
      "note": 89,
      "start": 26.3741,
      "duration": 0.0302,
      "velocity": 124,
      "chip": "ym2612"
    },
    {
      "channel": 0,
      "note": 74,
      "start": 26.3766,
      "duration": 0.0444,
      "velocity": 124,
      "chip": "ym2612"
    },
    {
      "channel": 0,
      "note": 78,
      "start": 26.4409,
      "duration": 0.0801,
      "velocity": 124,
      "chip": "ym2612"
    },
    {
      "channel": 3,
      "note": 87,
      "start": 26.5442,
      "duration": 0.0335,
      "velocity": 124,
      "chip": "ym2612"
    },
    {
      "channel": 0,
      "note": 79,
      "start": 26.5468,
      "duration": 0.0383,
      "velocity": 124,
      "chip": "ym2612"
    },
    {
      "channel": 0,
      "note": 78,
      "start": 26.5961,
      "duration": 0.0339,
      "velocity": 124,
      "chip": "ym2612"
    },
    {
      "channel": 3,
      "note": 89,
      "start": 26.6403,
      "duration": 0.0294,
      "velocity": 124,
      "chip": "ym2612"
    },
    {
      "channel": 1,
      "note": 62,
      "start": 26.6427,
      "duration": 0.072,
      "velocity": 95,
      "chip": "ym2612"
    },
    {
      "channel": 0,
      "note": 74,
      "start": 26.6451,
      "duration": 0.0315,
      "velocity": 124,
      "chip": "ym2612"
    },
    {
      "channel": 0,
      "note": 69,
      "start": 26.6871,
      "duration": 0.042,
      "velocity": 124,
      "chip": "ym2612"
    },
    {
      "channel": 3,
      "note": 87,
      "start": 26.7521,
      "duration": 0.031,
      "velocity": 124,
      "chip": "ym2612"
    },
    {
      "channel": 1,
      "note": 64,
      "start": 26.7548,
      "duration": 0.073,
      "velocity": 95,
      "chip": "ym2612"
    },
    {
      "channel": 0,
      "note": 71,
      "start": 26.8081,
      "duration": 0.0343,
      "velocity": 124,
      "chip": "ym2612"
    },
    {
      "channel": 3,
      "note": 89,
      "start": 26.8525,
      "duration": 0.0293,
      "velocity": 124,
      "chip": "ym2612"
    },
    {
      "channel": 1,
      "note": 52,
      "start": 26.856,
      "duration": 0.1242,
      "velocity": 95,
      "chip": "ym2612"
    },
    {
      "channel": 0,
      "note": 76,
      "start": 26.8582,
      "duration": 0.0388,
      "velocity": 124,
      "chip": "ym2612"
    },
    {
      "channel": 0,
      "note": 80,
      "start": 26.9169,
      "duration": 0.08,
      "velocity": 124,
      "chip": "ym2612"
    },
    {
      "channel": 3,
      "note": 87,
      "start": 27.0205,
      "duration": 0.0273,
      "velocity": 124,
      "chip": "ym2612"
    },
    {
      "channel": 1,
      "note": 52,
      "start": 27.023,
      "duration": 0.0701,
      "velocity": 95,
      "chip": "ym2612"
    },
    {
      "channel": 0,
      "note": 81,
      "start": 27.0255,
      "duration": 0.0153,
      "velocity": 124,
      "chip": "ym2612"
    },
    {
      "channel": 0,
      "note": 83,
      "start": 27.0738,
      "duration": 0.0328,
      "velocity": 124,
      "chip": "ym2612"
    },
    {
      "channel": 3,
      "note": 89,
      "start": 27.117,
      "duration": 0.028,
      "velocity": 124,
      "chip": "ym2612"
    },
    {
      "channel": 1,
      "note": 52,
      "start": 27.1195,
      "duration": 0.0634,
      "velocity": 95,
      "chip": "ym2612"
    },
    {
      "channel": 0,
      "note": 88,
      "start": 27.1219,
      "duration": 0.03,
      "velocity": 124,
      "chip": "ym2612"
    },
    {
      "channel": 0,
      "note": 92,
      "start": 27.163,
      "duration": 0.0396,
      "velocity": 124,
      "chip": "ym2612"
    },
    {
      "channel": 3,
      "note": 87,
      "start": 27.2224,
      "duration": 0.0326,
      "velocity": 124,
      "chip": "ym2612"
    },
    {
      "channel": 1,
      "note": 54,
      "start": 27.2251,
      "duration": 0.0806,
      "velocity": 95,
      "chip": "ym2612"
    },
    {
      "channel": 0,
      "note": 93,
      "start": 27.2278,
      "duration": 0.085,
      "velocity": 124,
      "chip": "ym2612"
    },
    {
      "channel": 3,
      "note": 89,
      "start": 27.3283,
      "duration": 0.0259,
      "velocity": 124,
      "chip": "ym2612"
    },
    {
      "channel": 1,
      "note": 54,
      "start": 27.3311,
      "duration": 0.0664,
      "velocity": 95,
      "chip": "ym2612"
    },
    {
      "channel": 0,
      "note": 92,
      "start": 27.3339,
      "duration": 0.0275,
      "velocity": 124,
      "chip": "ym2612"
    },
    {
      "channel": 0,
      "note": 88,
      "start": 27.3721,
      "duration": 0.0326,
      "velocity": 124,
      "chip": "ym2612"
    },
    {
      "channel": 3,
      "note": 87,
      "start": 27.4153,
      "duration": 0.0294,
      "velocity": 124,
      "chip": "ym2612"
    },
    {
      "channel": 1,
      "note": 54,
      "start": 27.4178,
      "duration": 0.0715,
      "velocity": 95,
      "chip": "ym2612"
    },
    {
      "channel": 0,
      "note": 85,
      "start": 27.4215,
      "duration": 0.0232,
      "velocity": 124,
      "chip": "ym2612"
    },
    {
      "channel": 0,
      "note": 83,
      "start": 27.4628,
      "duration": 0.0439,
      "velocity": 124,
      "chip": "ym2612"
    },
    {
      "channel": 3,
      "note": 89,
      "start": 27.5302,
      "duration": 0.0273,
      "velocity": 124,
      "chip": "ym2612"
    },
    {
      "channel": 1,
      "note": 54,
      "start": 27.5328,
      "duration": 0.0751,
      "velocity": 95,
      "chip": "ym2612"
    },
    {
      "channel": 0,
      "note": 81,
      "start": 27.5353,
      "duration": 0.0295,
      "velocity": 124,
      "chip": "ym2612"
    },
    {
      "channel": 3,
      "note": 87,
      "start": 27.6219,
      "duration": 0.0237,
      "velocity": 124,
      "chip": "ym2612"
    },
    {
      "channel": 1,
      "note": 55,
      "start": 27.6258,
      "duration": 0.0722,
      "velocity": 95,
      "chip": "ym2612"
    },
    {
      "channel": 0,
      "note": 74,
      "start": 27.6648,
      "duration": 0.0481,
      "velocity": 124,
      "chip": "ym2612"
    },
    {
      "channel": 3,
      "note": 89,
      "start": 27.7327,
      "duration": 0.0637,
      "velocity": 124,
      "chip": "ym2612"
    },
    {
      "channel": 0,
      "note": 79,
      "start": 27.7354,
      "duration": 0.0776,
      "velocity": 124,
      "chip": "ym2612"
    },
    {
      "channel": 0,
      "note": 83,
      "start": 27.8329,
      "duration": 0.0801,
      "velocity": 124,
      "chip": "ym2612"
    },
    {
      "channel": 3,
      "note": 87,
      "start": 27.9362,
      "duration": 0.0282,
      "velocity": 124,
      "chip": "ym2612"
    },
    {
      "channel": 0,
      "note": 85,
      "start": 27.9388,
      "duration": 0.032,
      "velocity": 124,
      "chip": "ym2612"
    },
    {
      "channel": 0,
      "note": 83,
      "start": 27.9825,
      "duration": 0.0405,
      "velocity": 124,
      "chip": "ym2612"
    },
    {
      "channel": 3,
      "note": 89,
      "start": 28.0332,
      "duration": 0.0294,
      "velocity": 124,
      "chip": "ym2612"
    },
    {
      "channel": 1,
      "note": 55,
      "start": 28.0358,
      "duration": 0.0861,
      "velocity": 95,
      "chip": "ym2612"
    },
    {
      "channel": 0,
      "note": 79,
      "start": 28.0381,
      "duration": 0.0315,
      "velocity": 124,
      "chip": "ym2612"
    },
    {
      "channel": 0,
      "note": 74,
      "start": 28.08,
      "duration": 0.0418,
      "velocity": 124,
      "chip": "ym2612"
    },
    {
      "channel": 3,
      "note": 87,
      "start": 28.1417,
      "duration": 0.0316,
      "velocity": 124,
      "chip": "ym2612"
    },
    {
      "channel": 1,
      "note": 57,
      "start": 28.1445,
      "duration": 0.0722,
      "velocity": 95,
      "chip": "ym2612"
    },
    {
      "channel": 0,
      "note": 76,
      "start": 28.1906,
      "duration": 0.033,
      "velocity": 124,
      "chip": "ym2612"
    },
    {
      "channel": 3,
      "note": 89,
      "start": 28.2413,
      "duration": 0.0295,
      "velocity": 124,
      "chip": "ym2612"
    },
    {
      "channel": 0,
      "note": 81,
      "start": 28.2441,
      "duration": 0.0433,
      "velocity": 124,
      "chip": "ym2612"
    },
    {
      "channel": 0,
      "note": 85,
      "start": 28.3075,
      "duration": 0.08,
      "velocity": 124,
      "chip": "ym2612"
    },
    {
      "channel": 3,
      "note": 87,
      "start": 28.4106,
      "duration": 0.0281,
      "velocity": 124,
      "chip": "ym2612"
    },
    {
      "channel": 0,
      "note": 86,
      "start": 28.4132,
      "duration": 0.0318,
      "velocity": 124,
      "chip": "ym2612"
    },
    {
      "channel": 0,
      "note": 85,
      "start": 28.4568,
      "duration": 0.0323,
      "velocity": 124,
      "chip": "ym2612"
    },
    {
      "channel": 3,
      "note": 89,
      "start": 28.5066,
      "duration": 0.029,
      "velocity": 124,
      "chip": "ym2612"
    },
    {
      "channel": 1,
      "note": 57,
      "start": 28.5091,
      "duration": 0.0636,
      "velocity": 95,
      "chip": "ym2612"
    },
    {
      "channel": 0,
      "note": 81,
      "start": 28.5116,
      "duration": 0.0308,
      "velocity": 124,
      "chip": "ym2612"
    },
    {
      "channel": 0,
      "note": 76,
      "start": 28.5529,
      "duration": 0.041,
      "velocity": 124,
      "chip": "ym2612"
    },
    {
      "channel": 3,
      "note": 87,
      "start": 28.6169,
      "duration": 0.0314,
      "velocity": 124,
      "chip": "ym2612"
    },
    {
      "channel": 1,
      "note": 59,
      "start": 28.62,
      "duration": 0.0799,
      "velocity": 95,
      "chip": "ym2612"
    },
    {
      "channel": 0,
      "note": 78,
      "start": 28.6666,
      "duration": 0.0332,
      "velocity": 124,
      "chip": "ym2612"
    },
    {
      "channel": 3,
      "note": 89,
      "start": 28.7172,
      "duration": 0.0293,
      "velocity": 124,
      "chip": "ym2612"
    },
    {
      "channel": 1,
      "note": 59,
      "start": 28.7207,
      "duration": 0.1241,
      "velocity": 95,
      "chip": "ym2612"
    },
    {
      "channel": 0,
      "note": 83,
      "start": 28.723,
      "duration": 0.0383,
      "velocity": 124,
      "chip": "ym2612"
    },
    {
      "channel": 0,
      "note": 87,
      "start": 28.7814,
      "duration": 0.08,
      "velocity": 124,
      "chip": "ym2612"
    },
    {
      "channel": 3,
      "note": 87,
      "start": 28.8844,
      "duration": 0.0282,
      "velocity": 124,
      "chip": "ym2612"
    },
    {
      "channel": 1,
      "note": 59,
      "start": 28.8868,
      "duration": 0.0777,
      "velocity": 95,
      "chip": "ym2612"
    },
    {
      "channel": 0,
      "note": 88,
      "start": 28.8893,
      "duration": 0.0306,
      "velocity": 124,
      "chip": "ym2612"
    },
    {
      "channel": 0,
      "note": 87,
      "start": 28.9316,
      "duration": 0.04,
      "velocity": 124,
      "chip": "ym2612"
    },
    {
      "channel": 3,
      "note": 89,
      "start": 28.9817,
      "duration": 0.029,
      "velocity": 124,
      "chip": "ym2612"
    },
    {
      "channel": 1,
      "note": 59,
      "start": 28.9841,
      "duration": 0.0707,
      "velocity": 95,
      "chip": "ym2612"
    },
    {
      "channel": 0,
      "note": 83,
      "start": 28.9864,
      "duration": 0.0314,
      "velocity": 124,
      "chip": "ym2612"
    },
    {
      "channel": 0,
      "note": 78,
      "start": 29.0286,
      "duration": 0.0262,
      "velocity": 124,
      "chip": "ym2612"
    },
    {
      "channel": 3,
      "note": 87,
      "start": 29.0878,
      "duration": 0.033,
      "velocity": 124,
      "chip": "ym2612"
    },
    {
      "channel": 1,
      "note": 59,
      "start": 29.0905,
      "duration": 0.0673,
      "velocity": 95,
      "chip": "ym2612"
    },
    {
      "channel": 0,
      "note": 88,
      "start": 29.0933,
      "duration": 0.0871,
      "velocity": 124,
      "chip": "ym2612"
    },
    {
      "channel": 3,
      "note": 89,
      "start": 29.1916,
      "duration": 0.0285,
      "velocity": 124,
      "chip": "ym2612"
    },
    {
      "channel": 1,
      "note": 59,
      "start": 29.1941,
      "duration": 0.1093,
      "velocity": 95,
      "chip": "ym2612"
    },
    {
      "channel": 0,
      "note": 87,
      "start": 29.1968,
      "duration": 0.0398,
      "velocity": 124,
      "chip": "ym2612"
    },
    {
      "channel": 0,
      "note": 83,
      "start": 29.2566,
      "duration": 0.08,
      "velocity": 124,
      "chip": "ym2612"
    },
    {
      "channel": 3,
      "note": 87,
      "start": 29.3598,
      "duration": 0.0279,
      "velocity": 124,
      "chip": "ym2612"
    },
    {
      "channel": 1,
      "note": 59,
      "start": 29.3625,
      "duration": 0.0707,
      "velocity": 95,
      "chip": "ym2612"
    },
    {
      "channel": 0,
      "note": 78,
      "start": 29.3649,
      "duration": 0.0227,
      "velocity": 124,
      "chip": "ym2612"
    },
    {
      "channel": 0,
      "note": 76,
      "start": 29.4055,
      "duration": 0.034,
      "velocity": 124,
      "chip": "ym2612"
    },
    {
      "channel": 3,
      "note": 89,
      "start": 29.4572,
      "duration": 0.0288,
      "velocity": 124,
      "chip": "ym2612"
    },
    {
      "channel": 1,
      "note": 59,
      "start": 29.4596,
      "duration": 0.0706,
      "velocity": 95,
      "chip": "ym2612"
    },
    {
      "channel": 0,
      "note": 75,
      "start": 29.4621,
      "duration": 0.0311,
      "velocity": 124,
      "chip": "ym2612"
    },
    {
      "channel": 0,
      "note": 71,
      "start": 29.5043,
      "duration": 0.0392,
      "velocity": 124,
      "chip": "ym2612"
    },
    {
      "channel": 3,
      "note": 87,
      "start": 29.5666,
      "duration": 0.0336,
      "velocity": 124,
      "chip": "ym2612"
    },
    {
      "channel": 1,
      "note": 60,
      "start": 29.5694,
      "duration": 0.0679,
      "velocity": 95,
      "chip": "ym2612"
    },
    {
      "channel": 0,
      "note": 66,
      "start": 29.5721,
      "duration": 0.0202,
      "velocity": 124,
      "chip": "ym2612"
    },
    {
      "channel": 0,
      "note": 67,
      "start": 29.6186,
      "duration": 0.0321,
      "velocity": 124,
      "chip": "ym2612"
    },
    {
      "channel": 3,
      "note": 89,
      "start": 29.6679,
      "duration": 0.0281,
      "velocity": 124,
      "chip": "ym2612"
    },
    {
      "channel": 0,
      "note": 72,
      "start": 29.6705,
      "duration": 0.0404,
      "velocity": 124,
      "chip": "ym2612"
    },
    {
      "channel": 0,
      "note": 76,
      "start": 29.731,
      "duration": 0.0966,
      "velocity": 124,
      "chip": "ym2612"
    },
    {
      "channel": 3,
      "note": 87,
      "start": 29.8343,
      "duration": 0.0279,
      "velocity": 124,
      "chip": "ym2612"
    },
    {
      "channel": 0,
      "note": 78,
      "start": 29.8373,
      "duration": 0.0312,
      "velocity": 124,
      "chip": "ym2612"
    },
    {
      "channel": 0,
      "note": 76,
      "start": 29.88,
      "duration": 0.0335,
      "velocity": 124,
      "chip": "ym2612"
    },
    {
      "channel": 3,
      "note": 89,
      "start": 29.9249,
      "duration": 0.0351,
      "velocity": 124,
      "chip": "ym2612"
    },
    {
      "channel": 1,
      "note": 60,
      "start": 29.9278,
      "duration": 0.0765,
      "velocity": 95,
      "chip": "ym2612"
    },
    {
      "channel": 0,
      "note": 72,
      "start": 29.9301,
      "duration": 0.0371,
      "velocity": 124,
      "chip": "ym2612"
    },
    {
      "channel": 0,
      "note": 67,
      "start": 29.9774,
      "duration": 0.041,
      "velocity": 124,
      "chip": "ym2612"
    },
    {
      "channel": 3,
      "note": 87,
      "start": 30.0384,
      "duration": 0.0315,
      "velocity": 124,
      "chip": "ym2612"
    },
    {
      "channel": 1,
      "note": 62,
      "start": 30.0412,
      "duration": 0.1034,
      "velocity": 95,
      "chip": "ym2612"
    },
    {
      "channel": 0,
      "note": 69,
      "start": 30.087,
      "duration": 0.0337,
      "velocity": 124,
      "chip": "ym2612"
    },
    {
      "channel": 3,
      "note": 89,
      "start": 30.132,
      "duration": 0.0371,
      "velocity": 124,
      "chip": "ym2612"
    },
    {
      "channel": 0,
      "note": 74,
      "start": 30.1346,
      "duration": 0.0511,
      "velocity": 124,
      "chip": "ym2612"
    },
    {
      "channel": 0,
      "note": 78,
      "start": 30.2056,
      "duration": 0.0801,
      "velocity": 124,
      "chip": "ym2612"
    },
    {
      "channel": 3,
      "note": 87,
      "start": 30.3088,
      "duration": 0.0281,
      "velocity": 124,
      "chip": "ym2612"
    },
    {
      "channel": 0,
      "note": 79,
      "start": 30.3113,
      "duration": 0.032,
      "velocity": 124,
      "chip": "ym2612"
    },
    {
      "channel": 0,
      "note": 78,
      "start": 30.355,
      "duration": 0.0329,
      "velocity": 124,
      "chip": "ym2612"
    },
    {
      "channel": 3,
      "note": 89,
      "start": 30.3991,
      "duration": 0.0352,
      "velocity": 124,
      "chip": "ym2612"
    },
    {
      "channel": 1,
      "note": 62,
      "start": 30.4018,
      "duration": 0.0909,
      "velocity": 95,
      "chip": "ym2612"
    },
    {
      "channel": 0,
      "note": 74,
      "start": 30.4043,
      "duration": 0.0368,
      "velocity": 124,
      "chip": "ym2612"
    },
    {
      "channel": 0,
      "note": 69,
      "start": 30.4516,
      "duration": 0.041,
      "velocity": 124,
      "chip": "ym2612"
    },
    {
      "channel": 3,
      "note": 87,
      "start": 30.5156,
      "duration": 0.031,
      "velocity": 124,
      "chip": "ym2612"
    },
    {
      "channel": 1,
      "note": 64,
      "start": 30.5184,
      "duration": 0.073,
      "velocity": 95,
      "chip": "ym2612"
    },
    {
      "channel": 0,
      "note": 71,
      "start": 30.5652,
      "duration": 0.0334,
      "velocity": 124,
      "chip": "ym2612"
    },
    {
      "channel": 3,
      "note": 89,
      "start": 30.6085,
      "duration": 0.0362,
      "velocity": 124,
      "chip": "ym2612"
    },
    {
      "channel": 1,
      "note": 64,
      "start": 30.6109,
      "duration": 0.1322,
      "velocity": 95,
      "chip": "ym2612"
    },
    {
      "channel": 0,
      "note": 76,
      "start": 30.613,
      "duration": 0.0468,
      "velocity": 124,
      "chip": "ym2612"
    },
    {
      "channel": 0,
      "note": 80,
      "start": 30.6798,
      "duration": 0.08,
      "velocity": 124,
      "chip": "ym2612"
    },
    {
      "channel": 3,
      "note": 87,
      "start": 30.7833,
      "duration": 0.028,
      "velocity": 124,
      "chip": "ym2612"
    },
    {
      "channel": 1,
      "note": 64,
      "start": 30.7856,
      "duration": 0.0632,
      "velocity": 95,
      "chip": "ym2612"
    },
    {
      "channel": 0,
      "note": 81,
      "start": 30.7882,
      "duration": 0.0154,
      "velocity": 124,
      "chip": "ym2612"
    },
    {
      "channel": 0,
      "note": 83,
      "start": 30.8301,
      "duration": 0.0333,
      "velocity": 124,
      "chip": "ym2612"
    },
    {
      "channel": 3,
      "note": 89,
      "start": 30.8746,
      "duration": 0.0342,
      "velocity": 124,
      "chip": "ym2612"
    },
    {
      "channel": 1,
      "note": 64,
      "start": 30.8769,
      "duration": 0.0697,
      "velocity": 95,
      "chip": "ym2612"
    },
    {
      "channel": 0,
      "note": 88,
      "start": 30.8792,
      "duration": 0.0366,
      "velocity": 124,
      "chip": "ym2612"
    },
    {
      "channel": 0,
      "note": 92,
      "start": 30.9268,
      "duration": 0.0397,
      "velocity": 124,
      "chip": "ym2612"
    },
    {
      "channel": 3,
      "note": 87,
      "start": 30.9863,
      "duration": 0.0334,
      "velocity": 124,
      "chip": "ym2612"
    },
    {
      "channel": 1,
      "note": 64,
      "start": 30.9888,
      "duration": 0.0671,
      "velocity": 95,
      "chip": "ym2612"
    },
    {
      "channel": 0,
      "note": 93,
      "start": 30.9915,
      "duration": 0.0789,
      "velocity": 124,
      "chip": "ym2612"
    },
    {
      "channel": 3,
      "note": 89,
      "start": 31.0841,
      "duration": 0.0338,
      "velocity": 124,
      "chip": "ym2612"
    },
    {
      "channel": 1,
      "note": 64,
      "start": 31.0865,
      "duration": 0.0686,
      "velocity": 95,
      "chip": "ym2612"
    },
    {
      "channel": 0,
      "note": 92,
      "start": 31.089,
      "duration": 0.0355,
      "velocity": 124,
      "chip": "ym2612"
    },
    {
      "channel": 0,
      "note": 88,
      "start": 31.1361,
      "duration": 0.0335,
      "velocity": 124,
      "chip": "ym2612"
    },
    {
      "channel": 3,
      "note": 87,
      "start": 31.1807,
      "duration": 0.0283,
      "velocity": 124,
      "chip": "ym2612"
    },
    {
      "channel": 1,
      "note": 64,
      "start": 31.1832,
      "duration": 0.0615,
      "velocity": 95,
      "chip": "ym2612"
    },
    {
      "channel": 0,
      "note": 85,
      "start": 31.1855,
      "duration": 0.0233,
      "velocity": 124,
      "chip": "ym2612"
    },
    {
      "channel": 0,
      "note": 83,
      "start": 31.2267,
      "duration": 0.0362,
      "velocity": 124,
      "chip": "ym2612"
    },
    {
      "channel": 3,
      "note": 89,
      "start": 31.2865,
      "duration": 0.0355,
      "velocity": 124,
      "chip": "ym2612"
    },
    {
      "channel": 1,
      "note": 64,
      "start": 31.2893,
      "duration": 0.0541,
      "velocity": 95,
      "chip": "ym2612"
    },
    {
      "channel": 0,
      "note": 81,
      "start": 31.2923,
      "duration": 0.0368,
      "velocity": 124,
      "chip": "ym2612"
    },
    {
      "channel": 3,
      "note": 87,
      "start": 31.3859,
      "duration": 0.0272,
      "velocity": 124,
      "chip": "ym2612"
    },
    {
      "channel": 1,
      "note": 54,
      "start": 31.3884,
      "duration": 0.0175,
      "velocity": 95,
      "chip": "ym2612"
    },
    {
      "channel": 0,
      "note": 78,
      "start": 31.3909,
      "duration": 0.0149,
      "velocity": 127,
      "chip": "ym2612"
    },
    {
      "channel": 4,
      "note": 54,
      "start": 31.394,
      "duration": 0.0121,
      "velocity": 113,
      "chip": "ym2612"
    },
    {
      "channel": 2,
      "note": 61,
      "start": 31.3976,
      "duration": 0.0086,
      "velocity": 113,
      "chip": "ym2612"
    },
    {
      "channel": 4,
      "note": 66,
      "start": 31.4303,
      "duration": 0.0268,
      "velocity": 113,
      "chip": "ym2612"
    },
    {
      "channel": 2,
      "note": 73,
      "start": 31.4327,
      "duration": 0.0244,
      "velocity": 113,
      "chip": "ym2612"
    },
    {
      "channel": 3,
      "note": 89,
      "start": 31.4877,
      "duration": 0.0638,
      "velocity": 124,
      "chip": "ym2612"
    },
    {
      "channel": 1,
      "note": 54,
      "start": 31.4903,
      "duration": 0.0446,
      "velocity": 95,
      "chip": "ym2612"
    },
    {
      "channel": 0,
      "note": 78,
      "start": 31.4927,
      "duration": 0.0421,
      "velocity": 127,
      "chip": "ym2612"
    },
    {
      "channel": 4,
      "note": 61,
      "start": 31.4954,
      "duration": 0.0398,
      "velocity": 113,
      "chip": "ym2612"
    },
    {
      "channel": 4,
      "note": 54,
      "start": 31.6051,
      "duration": 0.0464,
      "velocity": 113,
      "chip": "ym2612"
    },
    {
      "channel": 2,
      "note": 61,
      "start": 31.6078,
      "duration": 0.0439,
      "velocity": 113,
      "chip": "ym2612"
    },
    {
      "channel": 3,
      "note": 87,
      "start": 31.7082,
      "duration": 0.0302,
      "velocity": 124,
      "chip": "ym2612"
    },
    {
      "channel": 1,
      "note": 54,
      "start": 31.7106,
      "duration": 0.0202,
      "velocity": 95,
      "chip": "ym2612"
    },
    {
      "channel": 0,
      "note": 78,
      "start": 31.7126,
      "duration": 0.0181,
      "velocity": 127,
      "chip": "ym2612"
    },
    {
      "channel": 4,
      "note": 59,
      "start": 31.7155,
      "duration": 0.0077,
      "velocity": 113,
      "chip": "ym2612"
    },
    {
      "channel": 2,
      "note": 66,
      "start": 31.718,
      "duration": 0.0053,
      "velocity": 113,
      "chip": "ym2612"
    },
    {
      "channel": 3,
      "note": 89,
      "start": 31.7995,
      "duration": 0.0304,
      "velocity": 124,
      "chip": "ym2612"
    },
    {
      "channel": 1,
      "note": 54,
      "start": 31.8029,
      "duration": 0.0195,
      "velocity": 95,
      "chip": "ym2612"
    },
    {
      "channel": 0,
      "note": 78,
      "start": 31.8051,
      "duration": 0.0246,
      "velocity": 127,
      "chip": "ym2612"
    },
    {
      "channel": 4,
      "note": 61,
      "start": 31.8076,
      "duration": 0.0223,
      "velocity": 113,
      "chip": "ym2612"
    },
    {
      "channel": 2,
      "note": 66,
      "start": 31.8102,
      "duration": 0.0198,
      "velocity": 113,
      "chip": "ym2612"
    },
    {
      "channel": 3,
      "note": 87,
      "start": 31.9106,
      "duration": 0.0368,
      "velocity": 124,
      "chip": "ym2612"
    },
    {
      "channel": 1,
      "note": 54,
      "start": 31.9133,
      "duration": 0.034,
      "velocity": 95,
      "chip": "ym2612"
    },
    {
      "channel": 0,
      "note": 78,
      "start": 31.916,
      "duration": 0.0312,
      "velocity": 127,
      "chip": "ym2612"
    },
    {
      "channel": 4,
      "note": 54,
      "start": 31.9188,
      "duration": 0.0205,
      "velocity": 113,
      "chip": "ym2612"
    },
    {
      "channel": 2,
      "note": 61,
      "start": 31.9215,
      "duration": 0.0179,
      "velocity": 113,
      "chip": "ym2612"
    },
    {
      "channel": 3,
      "note": 89,
      "start": 32.0059,
      "duration": 0.0317,
      "velocity": 124,
      "chip": "ym2612"
    },
    {
      "channel": 1,
      "note": 54,
      "start": 32.0084,
      "duration": 0.029,
      "velocity": 95,
      "chip": "ym2612"
    },
    {
      "channel": 0,
      "note": 78,
      "start": 32.0105,
      "duration": 0.0269,
      "velocity": 127,
      "chip": "ym2612"
    },
    {
      "channel": 4,
      "note": 66,
      "start": 32.0132,
      "duration": 0.0166,
      "velocity": 113,
      "chip": "ym2612"
    },
    {
      "channel": 2,
      "note": 73,
      "start": 32.0168,
      "duration": 0.0131,
      "velocity": 113,
      "chip": "ym2612"
    },
    {
      "channel": 3,
      "note": 87,
      "start": 32.1806,
      "duration": 0.0286,
      "velocity": 124,
      "chip": "ym2612"
    },
    {
      "channel": 0,
      "note": 78,
      "start": 32.1832,
      "duration": 0.0127,
      "velocity": 127,
      "chip": "ym2612"
    },
    {
      "channel": 4,
      "note": 54,
      "start": 32.1859,
      "duration": 0.0101,
      "velocity": 113,
      "chip": "ym2612"
    },
    {
      "channel": 2,
      "note": 61,
      "start": 32.1886,
      "duration": 0.0139,
      "velocity": 113,
      "chip": "ym2612"
    },
    {
      "channel": 3,
      "note": 89,
      "start": 32.2705,
      "duration": 0.0285,
      "velocity": 124,
      "chip": "ym2612"
    },
    {
      "channel": 0,
      "note": 85,
      "start": 32.2731,
      "duration": 0.0887,
      "velocity": 127,
      "chip": "ym2612"
    },
    {
      "channel": 4,
      "note": 61,
      "start": 32.2759,
      "duration": 0.0231,
      "velocity": 113,
      "chip": "ym2612"
    },
    {
      "channel": 2,
      "note": 66,
      "start": 32.2785,
      "duration": 0.0206,
      "velocity": 113,
      "chip": "ym2612"
    },
    {
      "channel": 3,
      "note": 87,
      "start": 32.3849,
      "duration": 0.0357,
      "velocity": 124,
      "chip": "ym2612"
    },
    {
      "channel": 1,
      "note": 54,
      "start": 32.3877,
      "duration": 0.026,
      "velocity": 95,
      "chip": "ym2612"
    },
    {
      "channel": 4,
      "note": 54,
      "start": 32.3912,
      "duration": 0.0162,
      "velocity": 113,
      "chip": "ym2612"
    },
    {
      "channel": 2,
      "note": 61,
      "start": 32.3946,
      "duration": 0.0193,
      "velocity": 113,
      "chip": "ym2612"
    },
    {
      "channel": 3,
      "note": 89,
      "start": 32.4827,
      "duration": 0.0303,
      "velocity": 124,
      "chip": "ym2612"
    },
    {
      "channel": 1,
      "note": 54,
      "start": 32.4849,
      "duration": 0.0205,
      "velocity": 95,
      "chip": "ym2612"
    },
    {
      "channel": 0,
      "note": 85,
      "start": 32.4886,
      "duration": 0.6738,
      "velocity": 127,
      "chip": "ym2612"
    },
    {
      "channel": 4,
      "note": 59,
      "start": 32.4922,
      "duration": 0.0134,
      "velocity": 113,
      "chip": "ym2612"
    },
    {
      "channel": 2,
      "note": 66,
      "start": 32.4948,
      "duration": 0.0184,
      "velocity": 113,
      "chip": "ym2612"
    },
    {
      "channel": 3,
      "note": 87,
      "start": 32.6543,
      "duration": 0.0294,
      "velocity": 124,
      "chip": "ym2612"
    },
    {
      "channel": 1,
      "note": 54,
      "start": 32.6566,
      "duration": 0.0197,
      "velocity": 95,
      "chip": "ym2612"
    },
    {
      "channel": 4,
      "note": 54,
      "start": 32.6594,
      "duration": 0.017,
      "velocity": 113,
      "chip": "ym2612"
    },
    {
      "channel": 2,
      "note": 61,
      "start": 32.6619,
      "duration": 0.0146,
      "velocity": 113,
      "chip": "ym2612"
    },
    {
      "channel": 3,
      "note": 89,
      "start": 32.7455,
      "duration": 0.0286,
      "velocity": 124,
      "chip": "ym2612"
    },
    {
      "channel": 1,
      "note": 54,
      "start": 32.7481,
      "duration": 0.0187,
      "velocity": 95,
      "chip": "ym2612"
    },
    {
      "channel": 4,
      "note": 61,
      "start": 32.751,
      "duration": 0.0232,
      "velocity": 113,
      "chip": "ym2612"
    },
    {
      "channel": 2,
      "note": 66,
      "start": 32.7537,
      "duration": 0.0133,
      "velocity": 113,
      "chip": "ym2612"
    },
    {
      "channel": 3,
      "note": 87,
      "start": 32.8563,
      "duration": 0.0341,
      "velocity": 124,
      "chip": "ym2612"
    },
    {
      "channel": 1,
      "note": 54,
      "start": 32.8589,
      "duration": 0.0313,
      "velocity": 95,
      "chip": "ym2612"
    },
    {
      "channel": 4,
      "note": 54,
      "start": 32.8619,
      "duration": 0.0286,
      "velocity": 113,
      "chip": "ym2612"
    },
    {
      "channel": 2,
      "note": 61,
      "start": 32.8645,
      "duration": 0.0261,
      "velocity": 113,
      "chip": "ym2612"
    },
    {
      "channel": 3,
      "note": 89,
      "start": 32.9513,
      "duration": 0.0305,
      "velocity": 124,
      "chip": "ym2612"
    },
    {
      "channel": 1,
      "note": 54,
      "start": 32.9539,
      "duration": 0.0278,
      "velocity": 95,
      "chip": "ym2612"
    },
    {
      "channel": 4,
      "note": 66,
      "start": 32.9578,
      "duration": 0.0179,
      "velocity": 113,
      "chip": "ym2612"
    },
    {
      "channel": 2,
      "note": 73,
      "start": 32.9605,
      "duration": 0.0215,
      "velocity": 113,
      "chip": "ym2612"
    },
    {
      "channel": 3,
      "note": 87,
      "start": 33.1272,
      "duration": 0.0279,
      "velocity": 124,
      "chip": "ym2612"
    },
    {
      "channel": 4,
      "note": 54,
      "start": 33.13,
      "duration": 0.0179,
      "velocity": 113,
      "chip": "ym2612"
    },
    {
      "channel": 2,
      "note": 61,
      "start": 33.1329,
      "duration": 0.0152,
      "velocity": 113,
      "chip": "ym2612"
    },
    {
      "channel": 0,
      "note": 80,
      "start": 33.174,
      "duration": 0.0327,
      "velocity": 127,
      "chip": "ym2612"
    },
    {
      "channel": 3,
      "note": 89,
      "start": 33.2179,
      "duration": 0.0289,
      "velocity": 124,
      "chip": "ym2612"
    },
    {
      "channel": 0,
      "note": 74,
      "start": 33.2202,
      "duration": 0.0342,
      "velocity": 127,
      "chip": "ym2612"
    },
    {
      "channel": 4,
      "note": 61,
      "start": 33.2228,
      "duration": 0.024,
      "velocity": 113,
      "chip": "ym2612"
    },
    {
      "channel": 2,
      "note": 66,
      "start": 33.2255,
      "duration": 0.0215,
      "velocity": 113,
      "chip": "ym2612"
    },
    {
      "channel": 0,
      "note": 73,
      "start": 33.2653,
      "duration": 0.1805,
      "velocity": 127,
      "chip": "ym2612"
    },
    {
      "channel": 3,
      "note": 87,
      "start": 33.3338,
      "duration": 0.0308,
      "velocity": 124,
      "chip": "ym2612"
    },
    {
      "channel": 1,
      "note": 54,
      "start": 33.3366,
      "duration": 0.021,
      "velocity": 95,
      "chip": "ym2612"
    },
    {
      "channel": 3,
      "note": 89,
      "start": 33.4255,
      "duration": 0.0275,
      "velocity": 124,
      "chip": "ym2612"
    },
    {
      "channel": 1,
      "note": 54,
      "start": 33.4278,
      "duration": 0.018,
      "velocity": 95,
      "chip": "ym2612"
    },
    {
      "channel": 0,
      "note": 78,
      "start": 33.4804,
      "duration": 0.0964,
      "velocity": 127,
      "chip": "ym2612"
    },
    {
      "channel": 3,
      "note": 87,
      "start": 33.6,
      "duration": 0.0276,
      "velocity": 124,
      "chip": "ym2612"
    },
    {
      "channel": 1,
      "note": 54,
      "start": 33.6023,
      "duration": 0.0182,
      "velocity": 95,
      "chip": "ym2612"
    },
    {
      "channel": 0,
      "note": 73,
      "start": 33.6044,
      "duration": 0.0305,
      "velocity": 127,
      "chip": "ym2612"
    },
    {
      "channel": 0,
      "note": 71,
      "start": 33.6463,
      "duration": 0.2098,
      "velocity": 127,
      "chip": "ym2612"
    },
    {
      "channel": 3,
      "note": 89,
      "start": 33.6901,
      "duration": 0.0279,
      "velocity": 124,
      "chip": "ym2612"
    },
    {
      "channel": 1,
      "note": 54,
      "start": 33.6925,
      "duration": 0.0175,
      "velocity": 95,
      "chip": "ym2612"
    },
    {
      "channel": 3,
      "note": 87,
      "start": 33.8031,
      "duration": 0.0318,
      "velocity": 124,
      "chip": "ym2612"
    },
    {
      "channel": 1,
      "note": 54,
      "start": 33.8057,
      "duration": 0.029,
      "velocity": 95,
      "chip": "ym2612"
    },
    {
      "channel": 3,
      "note": 89,
      "start": 33.8962,
      "duration": 0.0292,
      "velocity": 124,
      "chip": "ym2612"
    },
    {
      "channel": 1,
      "note": 54,
      "start": 33.8988,
      "duration": 0.0351,
      "velocity": 95,
      "chip": "ym2612"
    },
    {
      "channel": 0,
      "note": 76,
      "start": 33.9017,
      "duration": 0.0237,
      "velocity": 127,
      "chip": "ym2612"
    },
    {
      "channel": 0,
      "note": 71,
      "start": 33.954,
      "duration": 0.0967,
      "velocity": 127,
      "chip": "ym2612"
    },
    {
      "channel": 3,
      "note": 87,
      "start": 34.0736,
      "duration": 0.0285,
      "velocity": 124,
      "chip": "ym2612"
    },
    {
      "channel": 0,
      "note": 69,
      "start": 34.0763,
      "duration": 0.1644,
      "velocity": 127,
      "chip": "ym2612"
    },
    {
      "channel": 3,
      "note": 89,
      "start": 34.1628,
      "duration": 0.0264,
      "velocity": 124,
      "chip": "ym2612"
    },
    {
      "channel": 3,
      "note": 87,
      "start": 34.2804,
      "duration": 0.0345,
      "velocity": 124,
      "chip": "ym2612"
    },
    {
      "channel": 1,
      "note": 54,
      "start": 34.2837,
      "duration": 0.0232,
      "velocity": 95,
      "chip": "ym2612"
    },
    {
      "channel": 0,
      "note": 74,
      "start": 34.2863,
      "duration": 0.0285,
      "velocity": 127,
      "chip": "ym2612"
    },
    {
      "channel": 0,
      "note": 69,
      "start": 34.3326,
      "duration": 0.0327,
      "velocity": 127,
      "chip": "ym2612"
    },
    {
      "channel": 3,
      "note": 89,
      "start": 34.3764,
      "duration": 0.0271,
      "velocity": 124,
      "chip": "ym2612"
    },
    {
      "channel": 1,
      "note": 54,
      "start": 34.3788,
      "duration": 0.018,
      "velocity": 95,
      "chip": "ym2612"
    },
    {
      "channel": 0,
      "note": 68,
      "start": 34.3812,
      "duration": 0.245,
      "velocity": 127,
      "chip": "ym2612"
    },
    {
      "channel": 3,
      "note": 87,
      "start": 34.5476,
      "duration": 0.0282,
      "velocity": 124,
      "chip": "ym2612"
    },
    {
      "channel": 1,
      "note": 54,
      "start": 34.55,
      "duration": 0.0176,
      "velocity": 95,
      "chip": "ym2612"
    },
    {
      "channel": 3,
      "note": 89,
      "start": 34.6372,
      "duration": 0.0283,
      "velocity": 124,
      "chip": "ym2612"
    },
    {
      "channel": 1,
      "note": 54,
      "start": 34.6397,
      "duration": 0.0257,
      "velocity": 95,
      "chip": "ym2612"
    },
    {
      "channel": 0,
      "note": 73,
      "start": 34.6426,
      "duration": 0.0305,
      "velocity": 127,
      "chip": "ym2612"
    },
    {
      "channel": 0,
      "note": 68,
      "start": 34.6843,
      "duration": 0.0335,
      "velocity": 127,
      "chip": "ym2612"
    },
    {
      "channel": 3,
      "note": 87,
      "start": 34.7361,
      "duration": 0.0397,
      "velocity": 124,
      "chip": "ym2612"
    },
    {
      "channel": 1,
      "note": 54,
      "start": 34.7388,
      "duration": 0.03,
      "velocity": 95,
      "chip": "ym2612"
    },
    {
      "channel": 0,
      "note": 66,
      "start": 34.7414,
      "duration": 0.086,
      "velocity": 127,
      "chip": "ym2612"
    },
    {
      "channel": 3,
      "note": 89,
      "start": 34.8386,
      "duration": 0.0295,
      "velocity": 124,
      "chip": "ym2612"
    },
    {
      "channel": 1,
      "note": 54,
      "start": 34.8412,
      "duration": 0.0268,
      "velocity": 95,
      "chip": "ym2612"
    },
    {
      "channel": 0,
      "note": 71,
      "start": 34.8436,
      "duration": 0.0242,
      "velocity": 127,
      "chip": "ym2612"
    },
    {
      "channel": 0,
      "note": 66,
      "start": 34.9046,
      "duration": 0.08,
      "velocity": 127,
      "chip": "ym2612"
    },
    {
      "channel": 3,
      "note": 87,
      "start": 35.0076,
      "duration": 0.0346,
      "velocity": 124,
      "chip": "ym2612"
    },
    {
      "channel": 0,
      "note": 64,
      "start": 35.0102,
      "duration": 0.0841,
      "velocity": 127,
      "chip": "ym2612"
    },
    {
      "channel": 3,
      "note": 89,
      "start": 35.1032,
      "duration": 0.0282,
      "velocity": 124,
      "chip": "ym2612"
    },
    {
      "channel": 0,
      "note": 69,
      "start": 35.1071,
      "duration": 0.0319,
      "velocity": 127,
      "chip": "ym2612"
    },
    {
      "channel": 0,
      "note": 64,
      "start": 35.1488,
      "duration": 0.0422,
      "velocity": 127,
      "chip": "ym2612"
    },
    {
      "channel": 3,
      "note": 87,
      "start": 35.2139,
      "duration": 0.0446,
      "velocity": 124,
      "chip": "ym2612"
    },
    {
      "channel": 1,
      "note": 54,
      "start": 35.2168,
      "duration": 0.0329,
      "velocity": 95,
      "chip": "ym2612"
    },
    {
      "channel": 0,
      "note": 66,
      "start": 35.2195,
      "duration": 0.0389,
      "velocity": 127,
      "chip": "ym2612"
    },
    {
      "channel": 4,
      "note": 66,
      "start": 35.2223,
      "duration": 0.0275,
      "velocity": 113,
      "chip": "ym2612"
    },
    {
      "channel": 2,
      "note": 73,
      "start": 35.2252,
      "duration": 0.0175,
      "velocity": 113,
      "chip": "ym2612"
    },
    {
      "channel": 4,
      "note": 78,
      "start": 35.2762,
      "duration": 0.0335,
      "velocity": 113,
      "chip": "ym2612"
    },
    {
      "channel": 2,
      "note": 85,
      "start": 35.2788,
      "duration": 0.0168,
      "velocity": 113,
      "chip": "ym2612"
    },
    {
      "channel": 3,
      "note": 89,
      "start": 35.3206,
      "duration": 0.0294,
      "velocity": 124,
      "chip": "ym2612"
    },
    {
      "channel": 1,
      "note": 54,
      "start": 35.3231,
      "duration": 0.0196,
      "velocity": 95,
      "chip": "ym2612"
    },
    {
      "channel": 0,
      "note": 66,
      "start": 35.3255,
      "duration": 0.0171,
      "velocity": 127,
      "chip": "ym2612"
    },
    {
      "channel": 4,
      "note": 73,
      "start": 35.328,
      "duration": 0.0649,
      "velocity": 113,
      "chip": "ym2612"
    },
    {
      "channel": 2,
      "note": 66,
      "start": 35.3798,
      "duration": 0.0466,
      "velocity": 113,
      "chip": "ym2612"
    },
    {
      "channel": 3,
      "note": 87,
      "start": 35.4827,
      "duration": 0.0367,
      "velocity": 124,
      "chip": "ym2612"
    },
    {
      "channel": 1,
      "note": 54,
      "start": 35.4854,
      "duration": 0.0258,
      "velocity": 95,
      "chip": "ym2612"
    },
    {
      "channel": 0,
      "note": 66,
      "start": 35.4875,
      "duration": 0.0236,
      "velocity": 127,
      "chip": "ym2612"
    },
    {
      "channel": 4,
      "note": 71,
      "start": 35.4901,
      "duration": 0.0293,
      "velocity": 113,
      "chip": "ym2612"
    },
    {
      "channel": 2,
      "note": 78,
      "start": 35.4926,
      "duration": 0.0271,
      "velocity": 113,
      "chip": "ym2612"
    },
    {
      "channel": 3,
      "note": 89,
      "start": 35.5794,
      "duration": 0.0313,
      "velocity": 124,
      "chip": "ym2612"
    },
    {
      "channel": 1,
      "note": 54,
      "start": 35.5817,
      "duration": 0.0202,
      "velocity": 95,
      "chip": "ym2612"
    },
    {
      "channel": 0,
      "note": 66,
      "start": 35.5839,
      "duration": 0.0267,
      "velocity": 127,
      "chip": "ym2612"
    },
    {
      "channel": 4,
      "note": 73,
      "start": 35.5879,
      "duration": 0.0229,
      "velocity": 113,
      "chip": "ym2612"
    },
    {
      "channel": 2,
      "note": 78,
      "start": 35.5907,
      "duration": 0.0202,
      "velocity": 113,
      "chip": "ym2612"
    },
    {
      "channel": 3,
      "note": 87,
      "start": 35.6855,
      "duration": 0.0428,
      "velocity": 124,
      "chip": "ym2612"
    },
    {
      "channel": 1,
      "note": 54,
      "start": 35.688,
      "duration": 0.0339,
      "velocity": 95,
      "chip": "ym2612"
    },
    {
      "channel": 0,
      "note": 66,
      "start": 35.6905,
      "duration": 0.0377,
      "velocity": 127,
      "chip": "ym2612"
    },
    {
      "channel": 4,
      "note": 66,
      "start": 35.6933,
      "duration": 0.0288,
      "velocity": 113,
      "chip": "ym2612"
    },
    {
      "channel": 2,
      "note": 73,
      "start": 35.6961,
      "duration": 0.0323,
      "velocity": 113,
      "chip": "ym2612"
    },
    {
      "channel": 3,
      "note": 89,
      "start": 35.7889,
      "duration": 0.0311,
      "velocity": 124,
      "chip": "ym2612"
    },
    {
      "channel": 1,
      "note": 54,
      "start": 35.7927,
      "duration": 0.0272,
      "velocity": 95,
      "chip": "ym2612"
    },
    {
      "channel": 0,
      "note": 66,
      "start": 35.7949,
      "duration": 0.025,
      "velocity": 127,
      "chip": "ym2612"
    },
    {
      "channel": 4,
      "note": 78,
      "start": 35.7974,
      "duration": 0.0158,
      "velocity": 113,
      "chip": "ym2612"
    },
    {
      "channel": 2,
      "note": 85,
      "start": 35.8001,
      "duration": 0.0201,
      "velocity": 113,
      "chip": "ym2612"
    },
    {
      "channel": 3,
      "note": 87,
      "start": 35.9561,
      "duration": 0.0364,
      "velocity": 124,
      "chip": "ym2612"
    },
    {
      "channel": 0,
      "note": 66,
      "start": 35.9585,
      "duration": 0.0407,
      "velocity": 127,
      "chip": "ym2612"
    },
    {
      "channel": 4,
      "note": 66,
      "start": 35.9612,
      "duration": 0.0163,
      "velocity": 113,
      "chip": "ym2612"
    },
    {
      "channel": 2,
      "note": 73,
      "start": 35.9641,
      "duration": 0.0135,
      "velocity": 113,
      "chip": "ym2612"
    },
    {
      "channel": 3,
      "note": 89,
      "start": 36.0531,
      "duration": 0.0297,
      "velocity": 124,
      "chip": "ym2612"
    },
    {
      "channel": 0,
      "note": 73,
      "start": 36.056,
      "duration": 0.0555,
      "velocity": 127,
      "chip": "ym2612"
    },
    {
      "channel": 4,
      "note": 73,
      "start": 36.0586,
      "duration": 0.0242,
      "velocity": 113,
      "chip": "ym2612"
    },
    {
      "channel": 2,
      "note": 78,
      "start": 36.0625,
      "duration": 0.0205,
      "velocity": 113,
      "chip": "ym2612"
    },
    {
      "channel": 3,
      "note": 87,
      "start": 36.162,
      "duration": 0.042,
      "velocity": 124,
      "chip": "ym2612"
    },
    {
      "channel": 1,
      "note": 54,
      "start": 36.1648,
      "duration": 0.0247,
      "velocity": 95,
      "chip": "ym2612"
    },
    {
      "channel": 4,
      "note": 66,
      "start": 36.1678,
      "duration": 0.0219,
      "velocity": 113,
      "chip": "ym2612"
    },
    {
      "channel": 2,
      "note": 73,
      "start": 36.1704,
      "duration": 0.0194,
      "velocity": 113,
      "chip": "ym2612"
    },
    {
      "channel": 3,
      "note": 89,
      "start": 36.2645,
      "duration": 0.0307,
      "velocity": 124,
      "chip": "ym2612"
    },
    {
      "channel": 1,
      "note": 54,
      "start": 36.2668,
      "duration": 0.0212,
      "velocity": 95,
      "chip": "ym2612"
    },
    {
      "channel": 0,
      "note": 73,
      "start": 36.2704,
      "duration": 0.4544,
      "velocity": 127,
      "chip": "ym2612"
    },
    {
      "channel": 4,
      "note": 71,
      "start": 36.2729,
      "duration": 0.0153,
      "velocity": 113,
      "chip": "ym2612"
    },
    {
      "channel": 2,
      "note": 78,
      "start": 36.2755,
      "duration": 0.0129,
      "velocity": 113,
      "chip": "ym2612"
    },
    {
      "channel": 3,
      "note": 87,
      "start": 36.4296,
      "duration": 0.0289,
      "velocity": 124,
      "chip": "ym2612"
    },
    {
      "channel": 1,
      "note": 54,
      "start": 36.4321,
      "duration": 0.0185,
      "velocity": 95,
      "chip": "ym2612"
    },
    {
      "channel": 4,
      "note": 66,
      "start": 36.435,
      "duration": 0.0159,
      "velocity": 113,
      "chip": "ym2612"
    },
    {
      "channel": 2,
      "note": 73,
      "start": 36.4377,
      "duration": 0.0133,
      "velocity": 113,
      "chip": "ym2612"
    },
    {
      "channel": 3,
      "note": 89,
      "start": 36.5278,
      "duration": 0.0297,
      "velocity": 124,
      "chip": "ym2612"
    },
    {
      "channel": 1,
      "note": 54,
      "start": 36.5303,
      "duration": 0.0202,
      "velocity": 95,
      "chip": "ym2612"
    },
    {
      "channel": 4,
      "note": 73,
      "start": 36.5329,
      "duration": 0.0246,
      "velocity": 113,
      "chip": "ym2612"
    },
    {
      "channel": 2,
      "note": 78,
      "start": 36.537,
      "duration": 0.0137,
      "velocity": 113,
      "chip": "ym2612"
    },
    {
      "channel": 3,
      "note": 87,
      "start": 36.633,
      "duration": 0.0346,
      "velocity": 124,
      "chip": "ym2612"
    },
    {
      "channel": 1,
      "note": 54,
      "start": 36.6356,
      "duration": 0.0244,
      "velocity": 95,
      "chip": "ym2612"
    },
    {
      "channel": 4,
      "note": 66,
      "start": 36.6385,
      "duration": 0.0292,
      "velocity": 113,
      "chip": "ym2612"
    },
    {
      "channel": 2,
      "note": 73,
      "start": 36.6412,
      "duration": 0.0266,
      "velocity": 113,
      "chip": "ym2612"
    },
    {
      "channel": 3,
      "note": 89,
      "start": 36.7362,
      "duration": 0.0297,
      "velocity": 124,
      "chip": "ym2612"
    },
    {
      "channel": 1,
      "note": 54,
      "start": 36.739,
      "duration": 0.0269,
      "velocity": 95,
      "chip": "ym2612"
    },
    {
      "channel": 0,
      "note": 62,
      "start": 36.7415,
      "duration": 0.0242,
      "velocity": 127,
      "chip": "ym2612"
    },
    {
      "channel": 4,
      "note": 78,
      "start": 36.7447,
      "duration": 0.0141,
      "velocity": 113,
      "chip": "ym2612"
    },
    {
      "channel": 2,
      "note": 85,
      "start": 36.7485,
      "duration": 0.0177,
      "velocity": 113,
      "chip": "ym2612"
    },
    {
      "channel": 0,
      "note": 68,
      "start": 36.8002,
      "duration": 0.08,
      "velocity": 127,
      "chip": "ym2612"
    },
    {
      "channel": 3,
      "note": 87,
      "start": 36.9038,
      "duration": 0.0286,
      "velocity": 124,
      "chip": "ym2612"
    },
    {
      "channel": 0,
      "note": 69,
      "start": 36.9063,
      "duration": 0.0768,
      "velocity": 127,
      "chip": "ym2612"
    },
    {
      "channel": 4,
      "note": 66,
      "start": 36.9089,
      "duration": 0.016,
      "velocity": 113,
      "chip": "ym2612"
    },
    {
      "channel": 2,
      "note": 73,
      "start": 36.9114,
      "duration": 0.0137,
      "velocity": 113,
      "chip": "ym2612"
    },
    {
      "channel": 3,
      "note": 89,
      "start": 37.0008,
      "duration": 0.029,
      "velocity": 124,
      "chip": "ym2612"
    },
    {
      "channel": 0,
      "note": 64,
      "start": 37.0033,
      "duration": 0.0339,
      "velocity": 127,
      "chip": "ym2612"
    },
    {
      "channel": 4,
      "note": 73,
      "start": 37.006,
      "duration": 0.0239,
      "velocity": 113,
      "chip": "ym2612"
    },
    {
      "channel": 2,
      "note": 78,
      "start": 37.0102,
      "duration": 0.0198,
      "velocity": 113,
      "chip": "ym2612"
    },
    {
      "channel": 0,
      "note": 66,
      "start": 37.0487,
      "duration": 0.0376,
      "velocity": 127,
      "chip": "ym2612"
    },
    {
      "channel": 3,
      "note": 87,
      "start": 37.1093,
      "duration": 0.0344,
      "velocity": 124,
      "chip": "ym2612"
    },
    {
      "channel": 1,
      "note": 54,
      "start": 37.1125,
      "duration": 0.0232,
      "velocity": 95,
      "chip": "ym2612"
    },
    {
      "channel": 0,
      "note": 71,
      "start": 37.1152,
      "duration": 0.0847,
      "velocity": 127,
      "chip": "ym2612"
    },
    {
      "channel": 3,
      "note": 89,
      "start": 37.2101,
      "duration": 0.0289,
      "velocity": 124,
      "chip": "ym2612"
    },
    {
      "channel": 1,
      "note": 54,
      "start": 37.2135,
      "duration": 0.0182,
      "velocity": 95,
      "chip": "ym2612"
    },
    {
      "channel": 0,
      "note": 66,
      "start": 37.216,
      "duration": 0.0378,
      "velocity": 127,
      "chip": "ym2612"
    },
    {
      "channel": 0,
      "note": 68,
      "start": 37.2739,
      "duration": 0.0633,
      "velocity": 127,
      "chip": "ym2612"
    },
    {
      "channel": 3,
      "note": 87,
      "start": 37.3771,
      "duration": 0.0277,
      "velocity": 124,
      "chip": "ym2612"
    },
    {
      "channel": 1,
      "note": 54,
      "start": 37.3795,
      "duration": 0.0182,
      "velocity": 95,
      "chip": "ym2612"
    },
    {
      "channel": 0,
      "note": 73,
      "start": 37.3818,
      "duration": 0.0734,
      "velocity": 127,
      "chip": "ym2612"
    },
    {
      "channel": 3,
      "note": 89,
      "start": 37.4728,
      "duration": 0.0293,
      "velocity": 124,
      "chip": "ym2612"
    },
    {
      "channel": 1,
      "note": 54,
      "start": 37.4752,
      "duration": 0.0202,
      "velocity": 95,
      "chip": "ym2612"
    },
    {
      "channel": 0,
      "note": 68,
      "start": 37.4777,
      "duration": 0.0312,
      "velocity": 127,
      "chip": "ym2612"
    },
    {
      "channel": 0,
      "note": 73,
      "start": 37.5193,
      "duration": 0.0411,
      "velocity": 127,
      "chip": "ym2612"
    },
    {
      "channel": 3,
      "note": 87,
      "start": 37.5803,
      "duration": 0.0337,
      "velocity": 124,
      "chip": "ym2612"
    },
    {
      "channel": 1,
      "note": 54,
      "start": 37.583,
      "duration": 0.031,
      "velocity": 95,
      "chip": "ym2612"
    },
    {
      "channel": 0,
      "note": 74,
      "start": 37.586,
      "duration": 0.086,
      "velocity": 127,
      "chip": "ym2612"
    },
    {
      "channel": 3,
      "note": 89,
      "start": 37.6834,
      "duration": 0.0294,
      "velocity": 124,
      "chip": "ym2612"
    },
    {
      "channel": 1,
      "note": 54,
      "start": 37.6862,
      "duration": 0.0434,
      "velocity": 95,
      "chip": "ym2612"
    },
    {
      "channel": 0,
      "note": 69,
      "start": 37.6887,
      "duration": 0.0407,
      "velocity": 127,
      "chip": "ym2612"
    },
    {
      "channel": 0,
      "note": 73,
      "start": 37.7494,
      "duration": 0.0801,
      "velocity": 127,
      "chip": "ym2612"
    },
    {
      "channel": 3,
      "note": 87,
      "start": 37.8526,
      "duration": 0.0283,
      "velocity": 124,
      "chip": "ym2612"
    },
    {
      "channel": 0,
      "note": 76,
      "start": 37.8551,
      "duration": 0.0829,
      "velocity": 127,
      "chip": "ym2612"
    },
    {
      "channel": 3,
      "note": 89,
      "start": 37.947,
      "duration": 0.0292,
      "velocity": 124,
      "chip": "ym2612"
    },
    {
      "channel": 1,
      "note": 54,
      "start": 37.9495,
      "duration": 0.019,
      "velocity": 95,
      "chip": "ym2612"
    },
    {
      "channel": 0,
      "note": 71,
      "start": 37.9529,
      "duration": 0.0312,
      "velocity": 127,
      "chip": "ym2612"
    },
    {
      "channel": 0,
      "note": 73,
      "start": 37.9929,
      "duration": 0.0422,
      "velocity": 127,
      "chip": "ym2612"
    },
    {
      "channel": 3,
      "note": 87,
      "start": 38.0581,
      "duration": 0.0334,
      "velocity": 124,
      "chip": "ym2612"
    },
    {
      "channel": 1,
      "note": 50,
      "start": 38.0607,
      "duration": 0.0232,
      "velocity": 95,
      "chip": "ym2612"
    },
    {
      "channel": 0,
      "note": 78,
      "start": 38.0637,
      "duration": 0.092,
      "velocity": 127,
      "chip": "ym2612"
    },
    {
      "channel": 3,
      "note": 89,
      "start": 38.1585,
      "duration": 0.029,
      "velocity": 124,
      "chip": "ym2612"
    },
    {
      "channel": 1,
      "note": 50,
      "start": 38.1625,
      "duration": 0.025,
      "velocity": 95,
      "chip": "ym2612"
    },
    {
      "channel": 0,
      "note": 73,
      "start": 38.1652,
      "duration": 2.845,
      "velocity": 127,
      "chip": "ym2612"
    },
    {
      "channel": 4,
      "note": 74,
      "start": 38.2226,
      "duration": 0.063,
      "velocity": 127,
      "chip": "ym2612"
    },
    {
      "channel": 3,
      "note": 87,
      "start": 38.3254,
      "duration": 0.027,
      "velocity": 124,
      "chip": "ym2612"
    },
    {
      "channel": 1,
      "note": 50,
      "start": 38.3278,
      "duration": 0.0176,
      "velocity": 95,
      "chip": "ym2612"
    },
    {
      "channel": 4,
      "note": 80,
      "start": 38.3305,
      "duration": 0.0798,
      "velocity": 127,
      "chip": "ym2612"
    },
    {
      "channel": 3,
      "note": 89,
      "start": 38.4205,
      "duration": 0.0295,
      "velocity": 124,
      "chip": "ym2612"
    },
    {
      "channel": 1,
      "note": 50,
      "start": 38.4228,
      "duration": 0.0271,
      "velocity": 95,
      "chip": "ym2612"
    },
    {
      "channel": 4,
      "note": 74,
      "start": 38.4254,
      "duration": 0.0314,
      "velocity": 127,
      "chip": "ym2612"
    },
    {
      "channel": 4,
      "note": 76,
      "start": 38.4672,
      "duration": 0.0269,
      "velocity": 127,
      "chip": "ym2612"
    },
    {
      "channel": 3,
      "note": 87,
      "start": 38.528,
      "duration": 0.0331,
      "velocity": 124,
      "chip": "ym2612"
    },
    {
      "channel": 1,
      "note": 52,
      "start": 38.5305,
      "duration": 0.0305,
      "velocity": 95,
      "chip": "ym2612"
    },
    {
      "channel": 4,
      "note": 81,
      "start": 38.5331,
      "duration": 0.0282,
      "velocity": 127,
      "chip": "ym2612"
    },
    {
      "channel": 4,
      "note": 76,
      "start": 38.5792,
      "duration": 0.0403,
      "velocity": 127,
      "chip": "ym2612"
    },
    {
      "channel": 3,
      "note": 89,
      "start": 38.6349,
      "duration": 0.0256,
      "velocity": 124,
      "chip": "ym2612"
    },
    {
      "channel": 1,
      "note": 52,
      "start": 38.6376,
      "duration": 0.0166,
      "velocity": 95,
      "chip": "ym2612"
    },
    {
      "channel": 4,
      "note": 78,
      "start": 38.64,
      "duration": 0.0205,
      "velocity": 127,
      "chip": "ym2612"
    },
    {
      "channel": 4,
      "note": 83,
      "start": 38.6779,
      "duration": 0.0276,
      "velocity": 127,
      "chip": "ym2612"
    },
    {
      "channel": 3,
      "note": 87,
      "start": 38.7264,
      "duration": 0.0266,
      "velocity": 124,
      "chip": "ym2612"
    },
    {
      "channel": 1,
      "note": 52,
      "start": 38.7287,
      "duration": 0.0173,
      "velocity": 95,
      "chip": "ym2612"
    },
    {
      "channel": 4,
      "note": 83,
      "start": 38.7312,
      "duration": 0.0803,
      "velocity": 127,
      "chip": "ym2612"
    },
    {
      "channel": 3,
      "note": 89,
      "start": 38.8222,
      "duration": 0.0293,
      "velocity": 124,
      "chip": "ym2612"
    },
    {
      "channel": 1,
      "note": 52,
      "start": 38.8246,
      "duration": 0.0332,
      "velocity": 95,
      "chip": "ym2612"
    },
    {
      "channel": 4,
      "note": 81,
      "start": 38.8276,
      "duration": 0.0304,
      "velocity": 127,
      "chip": "ym2612"
    },
    {
      "channel": 4,
      "note": 78,
      "start": 38.8697,
      "duration": 0.0115,
      "velocity": 127,
      "chip": "ym2612"
    },
    {
      "channel": 3,
      "note": 87,
      "start": 38.9307,
      "duration": 0.0361,
      "velocity": 124,
      "chip": "ym2612"
    },
    {
      "channel": 4,
      "note": 54,
      "start": 38.9387,
      "duration": 0.2372,
      "velocity": 127,
      "chip": "ym2612"
    },
    {
      "channel": 3,
      "note": 89,
      "start": 39.0344,
      "duration": 0.0272,
      "velocity": 124,
      "chip": "ym2612"
    },
    {
      "channel": 3,
      "note": 87,
      "start": 39.1956,
      "duration": 0.0635,
      "velocity": 124,
      "chip": "ym2612"
    },
    {
      "channel": 4,
      "note": 57,
      "start": 39.1987,
      "duration": 0.1605,
      "velocity": 127,
      "chip": "ym2612"
    },
    {
      "channel": 3,
      "note": 89,
      "start": 39.412,
      "duration": 0.0638,
      "velocity": 124,
      "chip": "ym2612"
    },
    {
      "channel": 4,
      "note": 54,
      "start": 39.415,
      "duration": 0.1776,
      "velocity": 127,
      "chip": "ym2612"
    },
    {
      "channel": 3,
      "note": 87,
      "start": 39.6123,
      "duration": 0.0315,
      "velocity": 124,
      "chip": "ym2612"
    },
    {
      "channel": 4,
      "note": 61,
      "start": 39.615,
      "duration": 0.079,
      "velocity": 127,
      "chip": "ym2612"
    },
    {
      "channel": 3,
      "note": 89,
      "start": 39.7046,
      "duration": 0.0373,
      "velocity": 124,
      "chip": "ym2612"
    },
    {
      "channel": 4,
      "note": 62,
      "start": 39.7071,
      "duration": 0.1348,
      "velocity": 127,
      "chip": "ym2612"
    },
    {
      "channel": 3,
      "note": 87,
      "start": 39.8783,
      "duration": 0.0636,
      "velocity": 124,
      "chip": "ym2612"
    },
    {
      "channel": 4,
      "note": 57,
      "start": 39.8812,
      "duration": 0.1773,
      "velocity": 127,
      "chip": "ym2612"
    },
    {
      "channel": 3,
      "note": 89,
      "start": 40.0781,
      "duration": 0.0804,
      "velocity": 124,
      "chip": "ym2612"
    },
    {
      "channel": 4,
      "note": 52,
      "start": 40.0815,
      "duration": 0.2766,
      "velocity": 127,
      "chip": "ym2612"
    },
    {
      "channel": 3,
      "note": 87,
      "start": 40.298,
      "duration": 0.0305,
      "velocity": 124,
      "chip": "ym2612"
    },
    {
      "channel": 3,
      "note": 89,
      "start": 40.3885,
      "duration": 0.0374,
      "velocity": 124,
      "chip": "ym2612"
    },
    {
      "channel": 4,
      "note": 56,
      "start": 40.3923,
      "duration": 0.1503,
      "velocity": 127,
      "chip": "ym2612"
    },
    {
      "channel": 3,
      "note": 87,
      "start": 40.5623,
      "duration": 0.0635,
      "velocity": 124,
      "chip": "ym2612"
    },
    {
      "channel": 4,
      "note": 57,
      "start": 40.565,
      "duration": 0.1775,
      "velocity": 127,
      "chip": "ym2612"
    },
    {
      "channel": 3,
      "note": 89,
      "start": 40.762,
      "duration": 0.0805,
      "velocity": 124,
      "chip": "ym2612"
    },
    {
      "channel": 4,
      "note": 49,
      "start": 40.7648,
      "duration": 0.1944,
      "velocity": 127,
      "chip": "ym2612"
    },
    {
      "channel": 3,
      "note": 87,
      "start": 40.9788,
      "duration": 0.0315,
      "velocity": 124,
      "chip": "ym2612"
    },
    {
      "channel": 4,
      "note": 56,
      "start": 40.9816,
      "duration": 0.0796,
      "velocity": 127,
      "chip": "ym2612"
    },
    {
      "channel": 3,
      "note": 89,
      "start": 41.0719,
      "duration": 0.0382,
      "velocity": 124,
      "chip": "ym2612"
    },
    {
      "channel": 0,
      "note": 57,
      "start": 41.0745,
      "duration": 0.1355,
      "velocity": 127,
      "chip": "ym2612"
    },
    {
      "channel": 3,
      "note": 87,
      "start": 41.2464,
      "duration": 0.0635,
      "velocity": 124,
      "chip": "ym2612"
    },
    {
      "channel": 0,
      "note": 50,
      "start": 41.2491,
      "duration": 0.1774,
      "velocity": 127,
      "chip": "ym2612"
    },
    {
      "channel": 3,
      "note": 89,
      "start": 41.4462,
      "duration": 0.0804,
      "velocity": 124,
      "chip": "ym2612"
    },
    {
      "channel": 0,
      "note": 57,
      "start": 41.4488,
      "duration": 0.1945,
      "velocity": 127,
      "chip": "ym2612"
    },
    {
      "channel": 3,
      "note": 87,
      "start": 41.6663,
      "duration": 0.0349,
      "velocity": 124,
      "chip": "ym2612"
    },
    {
      "channel": 1,
      "note": 54,
      "start": 41.6694,
      "duration": 2.085,
      "velocity": 95,
      "chip": "ym2612"
    },
    {
      "channel": 0,
      "note": 54,
      "start": 41.672,
      "duration": 0.2392,
      "velocity": 127,
      "chip": "ym2612"
    },
    {
      "channel": 3,
      "note": 89,
      "start": 41.7611,
      "duration": 0.0342,
      "velocity": 124,
      "chip": "ym2612"
    },
    {
      "channel": 3,
      "note": 87,
      "start": 41.931,
      "duration": 0.0636,
      "velocity": 124,
      "chip": "ym2612"
    },
    {
      "channel": 0,
      "note": 57,
      "start": 41.9343,
      "duration": 0.1436,
      "velocity": 127,
      "chip": "ym2612"
    },
    {
      "channel": 3,
      "note": 89,
      "start": 42.1309,
      "duration": 0.0638,
      "velocity": 124,
      "chip": "ym2612"
    },
    {
      "channel": 0,
      "note": 54,
      "start": 42.1337,
      "duration": 0.1943,
      "velocity": 127,
      "chip": "ym2612"
    },
    {
      "channel": 3,
      "note": 87,
      "start": 42.3478,
      "duration": 0.0313,
      "velocity": 124,
      "chip": "ym2612"
    },
    {
      "channel": 0,
      "note": 61,
      "start": 42.3503,
      "duration": 0.079,
      "velocity": 127,
      "chip": "ym2612"
    },
    {
      "channel": 3,
      "note": 89,
      "start": 42.44,
      "duration": 0.0271,
      "velocity": 124,
      "chip": "ym2612"
    },
    {
      "channel": 0,
      "note": 62,
      "start": 42.4424,
      "duration": 0.1188,
      "velocity": 127,
      "chip": "ym2612"
    },
    {
      "channel": 3,
      "note": 87,
      "start": 42.6143,
      "duration": 0.0636,
      "velocity": 124,
      "chip": "ym2612"
    },
    {
      "channel": 0,
      "note": 57,
      "start": 42.617,
      "duration": 0.1608,
      "velocity": 127,
      "chip": "ym2612"
    },
    {
      "channel": 3,
      "note": 89,
      "start": 42.8142,
      "duration": 0.0638,
      "velocity": 124,
      "chip": "ym2612"
    },
    {
      "channel": 0,
      "note": 52,
      "start": 42.8171,
      "duration": 0.2979,
      "velocity": 127,
      "chip": "ym2612"
    },
    {
      "channel": 3,
      "note": 87,
      "start": 43.0341,
      "duration": 0.0305,
      "velocity": 124,
      "chip": "ym2612"
    },
    {
      "channel": 3,
      "note": 89,
      "start": 43.1245,
      "duration": 0.0279,
      "velocity": 124,
      "chip": "ym2612"
    },
    {
      "channel": 0,
      "note": 56,
      "start": 43.1282,
      "duration": 0.1504,
      "velocity": 127,
      "chip": "ym2612"
    },
    {
      "channel": 3,
      "note": 87,
      "start": 43.2985,
      "duration": 0.0635,
      "velocity": 124,
      "chip": "ym2612"
    },
    {
      "channel": 0,
      "note": 57,
      "start": 43.3015,
      "duration": 0.1772,
      "velocity": 127,
      "chip": "ym2612"
    },
    {
      "channel": 3,
      "note": 89,
      "start": 43.4983,
      "duration": 0.0638,
      "velocity": 124,
      "chip": "ym2612"
    },
    {
      "channel": 0,
      "note": 64,
      "start": 43.5011,
      "duration": 0.1609,
      "velocity": 127,
      "chip": "ym2612"
    },
    {
      "channel": 3,
      "note": 87,
      "start": 43.7152,
      "duration": 0.0321,
      "velocity": 124,
      "chip": "ym2612"
    },
    {
      "channel": 0,
      "note": 50,
      "start": 43.7179,
      "duration": 0.0802,
      "velocity": 127,
      "chip": "ym2612"
    },
    {
      "channel": 3,
      "note": 89,
      "start": 43.8089,
      "duration": 0.0289,
      "velocity": 124,
      "chip": "ym2612"
    },
    {
      "channel": 1,
      "note": 52,
      "start": 43.812,
      "duration": 0.1518,
      "velocity": 95,
      "chip": "ym2612"
    },
    {
      "channel": 0,
      "note": 52,
      "start": 43.8142,
      "duration": 0.1493,
      "velocity": 127,
      "chip": "ym2612"
    },
    {
      "channel": 3,
      "note": 87,
      "start": 43.9833,
      "duration": 0.0636,
      "velocity": 124,
      "chip": "ym2612"
    },
    {
      "channel": 0,
      "note": 57,
      "start": 43.9861,
      "duration": 0.1609,
      "velocity": 127,
      "chip": "ym2612"
    },
    {
      "channel": 3,
      "note": 89,
      "start": 44.1832,
      "duration": 0.0637,
      "velocity": 124,
      "chip": "ym2612"
    },
    {
      "channel": 1,
      "note": 54,
      "start": 44.1864,
      "duration": 1.561,
      "velocity": 95,
      "chip": "ym2612"
    },
    {
      "channel": 0,
      "note": 54,
      "start": 44.189,
      "duration": 0.4582,
      "velocity": 127,
      "chip": "ym2612"
    },
    {
      "channel": 3,
      "note": 87,
      "start": 44.4032,
      "duration": 0.0295,
      "velocity": 124,
      "chip": "ym2612"
    },
    {
      "channel": 3,
      "note": 89,
      "start": 44.4931,
      "duration": 0.0285,
      "velocity": 124,
      "chip": "ym2612"
    },
    {
      "channel": 3,
      "note": 87,
      "start": 44.667,
      "duration": 0.0636,
      "velocity": 124,
      "chip": "ym2612"
    },
    {
      "channel": 0,
      "note": 57,
      "start": 44.6699,
      "duration": 0.1606,
      "velocity": 127,
      "chip": "ym2612"
    },
    {
      "channel": 3,
      "note": 89,
      "start": 44.8669,
      "duration": 0.0637,
      "velocity": 124,
      "chip": "ym2612"
    },
    {
      "channel": 0,
      "note": 54,
      "start": 44.8694,
      "duration": 0.1778,
      "velocity": 127,
      "chip": "ym2612"
    },
    {
      "channel": 3,
      "note": 87,
      "start": 45.0837,
      "duration": 0.0316,
      "velocity": 124,
      "chip": "ym2612"
    },
    {
      "channel": 0,
      "note": 61,
      "start": 45.0862,
      "duration": 0.0732,
      "velocity": 127,
      "chip": "ym2612"
    },
    {
      "channel": 3,
      "note": 89,
      "start": 45.1764,
      "duration": 0.0266,
      "velocity": 124,
      "chip": "ym2612"
    },
    {
      "channel": 0,
      "note": 62,
      "start": 45.1791,
      "duration": 0.1349,
      "velocity": 127,
      "chip": "ym2612"
    },
    {
      "channel": 3,
      "note": 87,
      "start": 45.3506,
      "duration": 0.0636,
      "velocity": 124,
      "chip": "ym2612"
    },
    {
      "channel": 0,
      "note": 57,
      "start": 45.3534,
      "duration": 0.1774,
      "velocity": 127,
      "chip": "ym2612"
    },
    {
      "channel": 3,
      "note": 89,
      "start": 45.5504,
      "duration": 0.0637,
      "velocity": 124,
      "chip": "ym2612"
    },
    {
      "channel": 0,
      "note": 52,
      "start": 45.5532,
      "duration": 0.2905,
      "velocity": 127,
      "chip": "ym2612"
    },
    {
      "channel": 3,
      "note": 87,
      "start": 45.7704,
      "duration": 0.0299,
      "velocity": 124,
      "chip": "ym2612"
    },
    {
      "channel": 3,
      "note": 89,
      "start": 45.8607,
      "duration": 0.0288,
      "velocity": 124,
      "chip": "ym2612"
    },
    {
      "channel": 1,
      "note": 56,
      "start": 45.8645,
      "duration": 0.1002,
      "velocity": 95,
      "chip": "ym2612"
    },
    {
      "channel": 0,
      "note": 56,
      "start": 45.8669,
      "duration": 0.1144,
      "velocity": 127,
      "chip": "ym2612"
    },
    {
      "channel": 3,
      "note": 87,
      "start": 46.0345,
      "duration": 0.0635,
      "velocity": 124,
      "chip": "ym2612"
    },
    {
      "channel": 1,
      "note": 57,
      "start": 46.0373,
      "duration": 0.1107,
      "velocity": 95,
      "chip": "ym2612"
    },
    {
      "channel": 0,
      "note": 57,
      "start": 46.0397,
      "duration": 0.1583,
      "velocity": 127,
      "chip": "ym2612"
    },
    {
      "channel": 3,
      "note": 89,
      "start": 46.2343,
      "duration": 0.0637,
      "velocity": 124,
      "chip": "ym2612"
    },
    {
      "channel": 0,
      "note": 49,
      "start": 46.237,
      "duration": 0.1776,
      "velocity": 127,
      "chip": "ym2612"
    },
    {
      "channel": 3,
      "note": 87,
      "start": 46.4512,
      "duration": 0.033,
      "velocity": 124,
      "chip": "ym2612"
    },
    {
      "channel": 1,
      "note": 56,
      "start": 46.454,
      "duration": 0.0664,
      "velocity": 95,
      "chip": "ym2612"
    },
    {
      "channel": 0,
      "note": 56,
      "start": 46.4564,
      "duration": 0.0779,
      "velocity": 127,
      "chip": "ym2612"
    },
    {
      "channel": 3,
      "note": 89,
      "start": 46.5444,
      "duration": 0.0284,
      "velocity": 124,
      "chip": "ym2612"
    },
    {
      "channel": 1,
      "note": 57,
      "start": 46.5484,
      "duration": 0.0662,
      "velocity": 95,
      "chip": "ym2612"
    },
    {
      "channel": 0,
      "note": 57,
      "start": 46.5507,
      "duration": 0.1137,
      "velocity": 127,
      "chip": "ym2612"
    },
    {
      "channel": 3,
      "note": 87,
      "start": 46.701,
      "duration": 0.0803,
      "velocity": 124,
      "chip": "ym2612"
    },
    {
      "channel": 0,
      "note": 50,
      "start": 46.7041,
      "duration": 0.1937,
      "velocity": 127,
      "chip": "ym2612"
    },
    {
      "channel": 3,
      "note": 89,
      "start": 46.9175,
      "duration": 0.0638,
      "velocity": 124,
      "chip": "ym2612"
    },
    {
      "channel": 0,
      "note": 57,
      "start": 46.9202,
      "duration": 0.1442,
      "velocity": 127,
      "chip": "ym2612"
    },
    {
      "channel": 3,
      "note": 87,
      "start": 47.1208,
      "duration": 0.0402,
      "velocity": 124,
      "chip": "ym2612"
    },
    {
      "channel": 1,
      "note": 54,
      "start": 47.1237,
      "duration": 0.642,
      "velocity": 95,
      "chip": "ym2612"
    },
    {
      "channel": 0,
      "note": 54,
      "start": 47.1263,
      "duration": 0.2393,
      "velocity": 127,
      "chip": "ym2612"
    },
    {
      "channel": 3,
      "note": 89,
      "start": 47.2222,
      "duration": 0.0274,
      "velocity": 124,
      "chip": "ym2612"
    },
    {
      "channel": 3,
      "note": 87,
      "start": 47.3854,
      "duration": 0.0804,
      "velocity": 124,
      "chip": "ym2612"
    },
    {
      "channel": 0,
      "note": 57,
      "start": 47.3883,
      "duration": 0.1773,
      "velocity": 127,
      "chip": "ym2612"
    },
    {
      "channel": 3,
      "note": 89,
      "start": 47.6019,
      "duration": 0.0637,
      "velocity": 124,
      "chip": "ym2612"
    },
    {
      "channel": 0,
      "note": 54,
      "start": 47.6046,
      "duration": 0.1776,
      "velocity": 127,
      "chip": "ym2612"
    },
    {
      "channel": 3,
      "note": 87,
      "start": 47.802,
      "duration": 0.0389,
      "velocity": 124,
      "chip": "ym2612"
    },
    {
      "channel": 0,
      "note": 61,
      "start": 47.8046,
      "duration": 0.0873,
      "velocity": 127,
      "chip": "ym2612"
    },
    {
      "channel": 3,
      "note": 89,
      "start": 47.902,
      "duration": 0.0323,
      "velocity": 124,
      "chip": "ym2612"
    },
    {
      "channel": 1,
      "note": 52,
      "start": 47.9046,
      "duration": 0.1631,
      "velocity": 95,
      "chip": "ym2612"
    },
    {
      "channel": 0,
      "note": 62,
      "start": 47.9069,
      "duration": 0.1274,
      "velocity": 127,
      "chip": "ym2612"
    },
    {
      "channel": 3,
      "note": 87,
      "start": 48.0709,
      "duration": 0.0801,
      "velocity": 124,
      "chip": "ym2612"
    },
    {
      "channel": 0,
      "note": 57,
      "start": 48.0736,
      "duration": 0.194,
      "velocity": 127,
      "chip": "ym2612"
    },
    {
      "channel": 3,
      "note": 89,
      "start": 48.2873,
      "duration": 0.0637,
      "velocity": 124,
      "chip": "ym2612"
    },
    {
      "channel": 1,
      "note": 50,
      "start": 48.2909,
      "duration": 0.1769,
      "velocity": 95,
      "chip": "ym2612"
    },
    {
      "channel": 0,
      "note": 52,
      "start": 48.2939,
      "duration": 0.2417,
      "velocity": 127,
      "chip": "ym2612"
    },
    {
      "channel": 3,
      "note": 87,
      "start": 48.4907,
      "duration": 0.0378,
      "velocity": 124,
      "chip": "ym2612"
    },
    {
      "channel": 0,
      "note": 86,
      "start": 48.5603,
      "duration": 0.0193,
      "velocity": 109,
      "chip": "ym2612"
    },
    {
      "channel": 3,
      "note": 89,
      "start": 48.5909,
      "duration": 0.0279,
      "velocity": 124,
      "chip": "ym2612"
    },
    {
      "channel": 0,
      "note": 85,
      "start": 48.5934,
      "duration": 0.0169,
      "velocity": 109,
      "chip": "ym2612"
    },
    {
      "channel": 0,
      "note": 83,
      "start": 48.6223,
      "duration": 0.0629,
      "velocity": 109,
      "chip": "ym2612"
    },
    {
      "channel": 3,
      "note": 87,
      "start": 48.7551,
      "duration": 0.0803,
      "velocity": 124,
      "chip": "ym2612"
    },
    {
      "channel": 0,
      "note": 81,
      "start": 48.7585,
      "duration": 0.0935,
      "velocity": 109,
      "chip": "ym2612"
    },
    {
      "channel": 0,
      "note": 80,
      "start": 48.8721,
      "duration": 0.08,
      "velocity": 109,
      "chip": "ym2612"
    },
    {
      "channel": 3,
      "note": 89,
      "start": 48.9717,
      "duration": 0.0637,
      "velocity": 124,
      "chip": "ym2612"
    },
    {
      "channel": 0,
      "note": 78,
      "start": 48.9744,
      "duration": 0.0776,
      "velocity": 109,
      "chip": "ym2612"
    },
    {
      "channel": 0,
      "note": 76,
      "start": 49.0719,
      "duration": 0.0801,
      "velocity": 109,
      "chip": "ym2612"
    },
    {
      "channel": 3,
      "note": 87,
      "start": 49.1718,
      "duration": 0.0316,
      "velocity": 124,
      "chip": "ym2612"
    },
    {
      "channel": 0,
      "note": 74,
      "start": 49.1745,
      "duration": 0.043,
      "velocity": 109,
      "chip": "ym2612"
    },
    {
      "channel": 0,
      "note": 81,
      "start": 49.229,
      "duration": 0.0257,
      "velocity": 109,
      "chip": "ym2612"
    },
    {
      "channel": 3,
      "note": 89,
      "start": 49.2725,
      "duration": 0.0302,
      "velocity": 124,
      "chip": "ym2612"
    },
    {
      "channel": 0,
      "note": 78,
      "start": 49.275,
      "duration": 0.0444,
      "velocity": 109,
      "chip": "ym2612"
    },
    {
      "channel": 0,
      "note": 74,
      "start": 49.3393,
      "duration": 0.08,
      "velocity": 109,
      "chip": "ym2612"
    },
    {
      "channel": 3,
      "note": 87,
      "start": 49.4391,
      "duration": 0.0635,
      "velocity": 124,
      "chip": "ym2612"
    },
    {
      "channel": 0,
      "note": 73,
      "start": 49.4419,
      "duration": 0.0774,
      "velocity": 109,
      "chip": "ym2612"
    },
    {
      "channel": 0,
      "note": 74,
      "start": 49.5561,
      "duration": 0.0966,
      "velocity": 109,
      "chip": "ym2612"
    },
    {
      "channel": 3,
      "note": 89,
      "start": 49.6557,
      "duration": 0.0637,
      "velocity": 124,
      "chip": "ym2612"
    },
    {
      "channel": 0,
      "note": 73,
      "start": 49.659,
      "duration": 0.077,
      "velocity": 109,
      "chip": "ym2612"
    },
    {
      "channel": 0,
      "note": 69,
      "start": 49.7561,
      "duration": 0.0798,
      "velocity": 109,
      "chip": "ym2612"
    },
    {
      "channel": 3,
      "note": 87,
      "start": 49.859,
      "duration": 0.035,
      "velocity": 124,
      "chip": "ym2612"
    },
    {
      "channel": 1,
      "note": 54,
      "start": 49.8628,
      "duration": 0.2412,
      "velocity": 95,
      "chip": "ym2612"
    },
    {
      "channel": 0,
      "note": 66,
      "start": 49.8658,
      "duration": 1.1214,
      "velocity": 127,
      "chip": "ym2612"
    },
    {
      "channel": 3,
      "note": 89,
      "start": 49.9614,
      "duration": 0.0274,
      "velocity": 124,
      "chip": "ym2612"
    },
    {
      "channel": 3,
      "note": 87,
      "start": 50.1237,
      "duration": 0.0637,
      "velocity": 124,
      "chip": "ym2612"
    },
    {
      "channel": 1,
      "note": 57,
      "start": 50.1266,
      "duration": 0.1941,
      "velocity": 95,
      "chip": "ym2612"
    },
    {
      "channel": 3,
      "note": 89,
      "start": 50.3403,
      "duration": 0.0637,
      "velocity": 124,
      "chip": "ym2612"
    },
    {
      "channel": 1,
      "note": 54,
      "start": 50.343,
      "duration": 0.1609,
      "velocity": 95,
      "chip": "ym2612"
    },
    {
      "channel": 3,
      "note": 87,
      "start": 50.5404,
      "duration": 0.0314,
      "velocity": 124,
      "chip": "ym2612"
    },
    {
      "channel": 1,
      "note": 61,
      "start": 50.5432,
      "duration": 0.0859,
      "velocity": 95,
      "chip": "ym2612"
    },
    {
      "channel": 3,
      "note": 89,
      "start": 50.6387,
      "duration": 0.032,
      "velocity": 124,
      "chip": "ym2612"
    },
    {
      "channel": 1,
      "note": 62,
      "start": 50.6412,
      "duration": 0.146,
      "velocity": 95,
      "chip": "ym2612"
    },
    {
      "channel": 3,
      "note": 87,
      "start": 50.8069,
      "duration": 0.0637,
      "velocity": 124,
      "chip": "ym2612"
    },
    {
      "channel": 1,
      "note": 57,
      "start": 50.8095,
      "duration": 0.1944,
      "velocity": 95,
      "chip": "ym2612"
    },
    {
      "channel": 3,
      "note": 89,
      "start": 51.0235,
      "duration": 0.0639,
      "velocity": 124,
      "chip": "ym2612"
    },
    {
      "channel": 1,
      "note": 52,
      "start": 51.0263,
      "duration": 0.2841,
      "velocity": 95,
      "chip": "ym2612"
    },
    {
      "channel": 0,
      "note": 78,
      "start": 51.0293,
      "duration": 0.1745,
      "velocity": 127,
      "chip": "ym2612"
    },
    {
      "channel": 3,
      "note": 87,
      "start": 51.2268,
      "duration": 0.0313,
      "velocity": 124,
      "chip": "ym2612"
    },
    {
      "channel": 0,
      "note": 76,
      "start": 51.2297,
      "duration": 0.4584,
      "velocity": 127,
      "chip": "ym2612"
    },
    {
      "channel": 3,
      "note": 89,
      "start": 51.3274,
      "duration": 0.0274,
      "velocity": 124,
      "chip": "ym2612"
    },
    {
      "channel": 1,
      "note": 56,
      "start": 51.3303,
      "duration": 0.1412,
      "velocity": 95,
      "chip": "ym2612"
    },
    {
      "channel": 3,
      "note": 87,
      "start": 51.4913,
      "duration": 0.0635,
      "velocity": 124,
      "chip": "ym2612"
    },
    {
      "channel": 1,
      "note": 57,
      "start": 51.4939,
      "duration": 0.2442,
      "velocity": 95,
      "chip": "ym2612"
    },
    {
      "channel": 3,
      "note": 89,
      "start": 51.7077,
      "duration": 0.0638,
      "velocity": 124,
      "chip": "ym2612"
    },
    {
      "channel": 4,
      "note": 49,
      "start": 51.7106,
      "duration": 0.1777,
      "velocity": 95,
      "chip": "ym2612"
    },
    {
      "channel": 0,
      "note": 74,
      "start": 51.7133,
      "duration": 0.1748,
      "velocity": 127,
      "chip": "ym2612"
    },
    {
      "channel": 3,
      "note": 87,
      "start": 51.9079,
      "duration": 0.033,
      "velocity": 124,
      "chip": "ym2612"
    },
    {
      "channel": 1,
      "note": 56,
      "start": 51.9104,
      "duration": 0.0875,
      "velocity": 95,
      "chip": "ym2612"
    },
    {
      "channel": 0,
      "note": 73,
      "start": 51.9131,
      "duration": 0.4414,
      "velocity": 127,
      "chip": "ym2612"
    },
    {
      "channel": 3,
      "note": 89,
      "start": 52.0088,
      "duration": 0.0292,
      "velocity": 124,
      "chip": "ym2612"
    },
    {
      "channel": 1,
      "note": 57,
      "start": 52.011,
      "duration": 0.1435,
      "velocity": 95,
      "chip": "ym2612"
    },
    {
      "channel": 3,
      "note": 87,
      "start": 52.1742,
      "duration": 0.0637,
      "velocity": 124,
      "chip": "ym2612"
    },
    {
      "channel": 1,
      "note": 50,
      "start": 52.1768,
      "duration": 0.1944,
      "velocity": 95,
      "chip": "ym2612"
    },
    {
      "channel": 3,
      "note": 89,
      "start": 52.3908,
      "duration": 0.0637,
      "velocity": 124,
      "chip": "ym2612"
    },
    {
      "channel": 1,
      "note": 57,
      "start": 52.3935,
      "duration": 0.161,
      "velocity": 95,
      "chip": "ym2612"
    },
    {
      "channel": 0,
      "note": 71,
      "start": 52.3962,
      "duration": 0.1749,
      "velocity": 127,
      "chip": "ym2612"
    },
    {
      "channel": 3,
      "note": 87,
      "start": 52.5941,
      "duration": 0.0348,
      "velocity": 124,
      "chip": "ym2612"
    },
    {
      "channel": 1,
      "note": 54,
      "start": 52.597,
      "duration": 0.2261,
      "velocity": 95,
      "chip": "ym2612"
    },
    {
      "channel": 0,
      "note": 73,
      "start": 52.6002,
      "duration": 1.0059,
      "velocity": 127,
      "chip": "ym2612"
    },
    {
      "channel": 3,
      "note": 89,
      "start": 52.6965,
      "duration": 0.0271,
      "velocity": 124,
      "chip": "ym2612"
    },
    {
      "channel": 3,
      "note": 87,
      "start": 52.8594,
      "duration": 0.0637,
      "velocity": 124,
      "chip": "ym2612"
    },
    {
      "channel": 1,
      "note": 57,
      "start": 52.8626,
      "duration": 0.1604,
      "velocity": 95,
      "chip": "ym2612"
    },
    {
      "channel": 3,
      "note": 89,
      "start": 53.076,
      "duration": 0.0636,
      "velocity": 124,
      "chip": "ym2612"
    },
    {
      "channel": 1,
      "note": 54,
      "start": 53.0787,
      "duration": 0.1276,
      "velocity": 95,
      "chip": "ym2612"
    },
    {
      "channel": 3,
      "note": 87,
      "start": 53.2761,
      "duration": 0.0313,
      "velocity": 124,
      "chip": "ym2612"
    },
    {
      "channel": 1,
      "note": 61,
      "start": 53.2788,
      "duration": 0.0788,
      "velocity": 95,
      "chip": "ym2612"
    },
    {
      "channel": 3,
      "note": 89,
      "start": 53.3743,
      "duration": 0.0319,
      "velocity": 124,
      "chip": "ym2612"
    },
    {
      "channel": 1,
      "note": 62,
      "start": 53.3768,
      "duration": 0.1459,
      "velocity": 95,
      "chip": "ym2612"
    },
    {
      "channel": 3,
      "note": 87,
      "start": 53.5425,
      "duration": 0.0638,
      "velocity": 124,
      "chip": "ym2612"
    },
    {
      "channel": 1,
      "note": 57,
      "start": 53.5453,
      "duration": 0.1608,
      "velocity": 95,
      "chip": "ym2612"
    },
    {
      "channel": 3,
      "note": 89,
      "start": 53.7424,
      "duration": 0.0805,
      "velocity": 124,
      "chip": "ym2612"
    },
    {
      "channel": 1,
      "note": 52,
      "start": 53.7453,
      "duration": 0.3005,
      "velocity": 95,
      "chip": "ym2612"
    },
    {
      "channel": 0,
      "note": 74,
      "start": 53.748,
      "duration": 0.1914,
      "velocity": 127,
      "chip": "ym2612"
    },
    {
      "channel": 3,
      "note": 87,
      "start": 53.9624,
      "duration": 0.0312,
      "velocity": 124,
      "chip": "ym2612"
    },
    {
      "channel": 0,
      "note": 69,
      "start": 53.9653,
      "duration": 0.3079,
      "velocity": 127,
      "chip": "ym2612"
    },
    {
      "channel": 3,
      "note": 89,
      "start": 54.0543,
      "duration": 0.0358,
      "velocity": 124,
      "chip": "ym2612"
    },
    {
      "channel": 1,
      "note": 56,
      "start": 54.0571,
      "duration": 0.1494,
      "velocity": 95,
      "chip": "ym2612"
    },
    {
      "channel": 3,
      "note": 87,
      "start": 54.2263,
      "duration": 0.0636,
      "velocity": 124,
      "chip": "ym2612"
    },
    {
      "channel": 1,
      "note": 57,
      "start": 54.2288,
      "duration": 0.1777,
      "velocity": 95,
      "chip": "ym2612"
    },
    {
      "channel": 3,
      "note": 89,
      "start": 54.4261,
      "duration": 0.0805,
      "velocity": 124,
      "chip": "ym2612"
    },
    {
      "channel": 1,
      "note": 64,
      "start": 54.4292,
      "duration": 0.1607,
      "velocity": 95,
      "chip": "ym2612"
    },
    {
      "channel": 0,
      "note": 68,
      "start": 54.4319,
      "duration": 0.659,
      "velocity": 127,
      "chip": "ym2612"
    },
    {
      "channel": 3,
      "note": 87,
      "start": 54.6429,
      "duration": 0.0317,
      "velocity": 124,
      "chip": "ym2612"
    },
    {
      "channel": 1,
      "note": 50,
      "start": 54.6457,
      "duration": 0.0798,
      "velocity": 95,
      "chip": "ym2612"
    },
    {
      "channel": 3,
      "note": 89,
      "start": 54.7362,
      "duration": 0.0381,
      "velocity": 124,
      "chip": "ym2612"
    },
    {
      "channel": 1,
      "note": 52,
      "start": 54.7387,
      "duration": 0.1522,
      "velocity": 95,
      "chip": "ym2612"
    },
    {
      "channel": 3,
      "note": 87,
      "start": 54.9107,
      "duration": 0.0635,
      "velocity": 124,
      "chip": "ym2612"
    },
    {
      "channel": 1,
      "note": 57,
      "start": 54.9132,
      "duration": 0.1777,
      "velocity": 95,
      "chip": "ym2612"
    },
    {
      "channel": 3,
      "note": 89,
      "start": 55.1104,
      "duration": 0.0805,
      "velocity": 124,
      "chip": "ym2612"
    },
    {
      "channel": 1,
      "note": 54,
      "start": 55.1133,
      "duration": 0.4442,
      "velocity": 95,
      "chip": "ym2612"
    },
    {
      "channel": 0,
      "note": 69,
      "start": 55.116,
      "duration": 0.1914,
      "velocity": 127,
      "chip": "ym2612"
    },
    {
      "channel": 3,
      "note": 87,
      "start": 55.3304,
      "duration": 0.0312,
      "velocity": 124,
      "chip": "ym2612"
    },
    {
      "channel": 0,
      "note": 62,
      "start": 55.3337,
      "duration": 0.3238,
      "velocity": 127,
      "chip": "ym2612"
    },
    {
      "channel": 3,
      "note": 89,
      "start": 55.4222,
      "duration": 0.0354,
      "velocity": 124,
      "chip": "ym2612"
    },
    {
      "channel": 3,
      "note": 87,
      "start": 55.594,
      "duration": 0.0637,
      "velocity": 124,
      "chip": "ym2612"
    },
    {
      "channel": 1,
      "note": 57,
      "start": 55.5968,
      "duration": 0.1607,
      "velocity": 95,
      "chip": "ym2612"
    },
    {
      "channel": 3,
      "note": 89,
      "start": 55.7938,
      "duration": 0.0805,
      "velocity": 124,
      "chip": "ym2612"
    },
    {
      "channel": 1,
      "note": 54,
      "start": 55.7965,
      "duration": 0.1945,
      "velocity": 95,
      "chip": "ym2612"
    },
    {
      "channel": 0,
      "note": 61,
      "start": 55.7991,
      "duration": 0.6918,
      "velocity": 127,
      "chip": "ym2612"
    },
    {
      "channel": 3,
      "note": 87,
      "start": 56.0107,
      "duration": 0.0316,
      "velocity": 124,
      "chip": "ym2612"
    },
    {
      "channel": 1,
      "note": 61,
      "start": 56.0134,
      "duration": 0.0725,
      "velocity": 95,
      "chip": "ym2612"
    },
    {
      "channel": 3,
      "note": 89,
      "start": 56.103,
      "duration": 0.0274,
      "velocity": 124,
      "chip": "ym2612"
    },
    {
      "channel": 1,
      "note": 62,
      "start": 56.1056,
      "duration": 0.152,
      "velocity": 95,
      "chip": "ym2612"
    },
    {
      "channel": 3,
      "note": 87,
      "start": 56.2774,
      "duration": 0.0635,
      "velocity": 124,
      "chip": "ym2612"
    },
    {
      "channel": 1,
      "note": 57,
      "start": 56.2799,
      "duration": 0.1777,
      "velocity": 95,
      "chip": "ym2612"
    },
    {
      "channel": 3,
      "note": 89,
      "start": 56.4772,
      "duration": 0.0637,
      "velocity": 124,
      "chip": "ym2612"
    },
    {
      "channel": 1,
      "note": 52,
      "start": 56.48,
      "duration": 0.2916,
      "velocity": 95,
      "chip": "ym2612"
    },
    {
      "channel": 4,
      "note": 59,
      "start": 56.483,
      "duration": 0.1746,
      "velocity": 127,
      "chip": "ym2612"
    },
    {
      "channel": 3,
      "note": 87,
      "start": 56.6971,
      "duration": 0.0311,
      "velocity": 124,
      "chip": "ym2612"
    },
    {
      "channel": 0,
      "note": 61,
      "start": 56.7004,
      "duration": 1.3407,
      "velocity": 127,
      "chip": "ym2612"
    },
    {
      "channel": 3,
      "note": 89,
      "start": 56.789,
      "duration": 0.028,
      "velocity": 124,
      "chip": "ym2612"
    },
    {
      "channel": 1,
      "note": 56,
      "start": 56.7918,
      "duration": 0.1493,
      "velocity": 95,
      "chip": "ym2612"
    },
    {
      "channel": 3,
      "note": 87,
      "start": 56.9609,
      "duration": 0.0635,
      "velocity": 124,
      "chip": "ym2612"
    },
    {
      "channel": 1,
      "note": 57,
      "start": 56.9635,
      "duration": 0.2108,
      "velocity": 95,
      "chip": "ym2612"
    },
    {
      "channel": 3,
      "note": 89,
      "start": 57.1607,
      "duration": 0.0637,
      "velocity": 124,
      "chip": "ym2612"
    },
    {
      "channel": 2,
      "note": 49,
      "start": 57.1636,
      "duration": 0.1944,
      "velocity": 95,
      "chip": "ym2612"
    },
    {
      "channel": 3,
      "note": 87,
      "start": 57.3776,
      "duration": 0.0315,
      "velocity": 124,
      "chip": "ym2612"
    },
    {
      "channel": 1,
      "note": 56,
      "start": 57.3802,
      "duration": 0.0724,
      "velocity": 95,
      "chip": "ym2612"
    },
    {
      "channel": 3,
      "note": 89,
      "start": 57.4697,
      "duration": 0.0275,
      "velocity": 124,
      "chip": "ym2612"
    },
    {
      "channel": 1,
      "note": 57,
      "start": 57.4724,
      "duration": 0.1521,
      "velocity": 95,
      "chip": "ym2612"
    },
    {
      "channel": 3,
      "note": 87,
      "start": 57.6442,
      "duration": 0.0635,
      "velocity": 124,
      "chip": "ym2612"
    },
    {
      "channel": 1,
      "note": 50,
      "start": 57.6468,
      "duration": 0.1776,
      "velocity": 95,
      "chip": "ym2612"
    },
    {
      "channel": 3,
      "note": 89,
      "start": 57.844,
      "duration": 0.0637,
      "velocity": 124,
      "chip": "ym2612"
    },
    {
      "channel": 1,
      "note": 57,
      "start": 57.8466,
      "duration": 0.1778,
      "velocity": 95,
      "chip": "ym2612"
    },
    {
      "channel": 3,
      "note": 87,
      "start": 58.0641,
      "duration": 0.0307,
      "velocity": 124,
      "chip": "ym2612"
    },
    {
      "channel": 1,
      "note": 54,
      "start": 58.0669,
      "duration": 0.2409,
      "velocity": 95,
      "chip": "ym2612"
    },
    {
      "channel": 3,
      "note": 89,
      "start": 58.1561,
      "duration": 0.0271,
      "velocity": 124,
      "chip": "ym2612"
    },
    {
      "channel": 3,
      "note": 87,
      "start": 58.3275,
      "duration": 0.0638,
      "velocity": 124,
      "chip": "ym2612"
    },
    {
      "channel": 1,
      "note": 57,
      "start": 58.3304,
      "duration": 0.1608,
      "velocity": 95,
      "chip": "ym2612"
    },
    {
      "channel": 0,
      "note": 73,
      "start": 58.3331,
      "duration": 0.058,
      "velocity": 124,
      "chip": "ym2612"
    },
    {
      "channel": 0,
      "note": 74,
      "start": 58.4277,
      "duration": 0.0634,
      "velocity": 124,
      "chip": "ym2612"
    },
    {
      "channel": 3,
      "note": 89,
      "start": 58.5274,
      "duration": 0.0637,
      "velocity": 124,
      "chip": "ym2612"
    },
    {
      "channel": 1,
      "note": 54,
      "start": 58.5301,
      "duration": 0.211,
      "velocity": 95,
      "chip": "ym2612"
    },
    {
      "channel": 0,
      "note": 80,
      "start": 58.5331,
      "duration": 0.0747,
      "velocity": 124,
      "chip": "ym2612"
    },
    {
      "channel": 0,
      "note": 85,
      "start": 58.6277,
      "duration": 0.0966,
      "velocity": 124,
      "chip": "ym2612"
    },
    {
      "channel": 3,
      "note": 87,
      "start": 58.7443,
      "duration": 0.0336,
      "velocity": 124,
      "chip": "ym2612"
    },
    {
      "channel": 1,
      "note": 61,
      "start": 58.747,
      "duration": 0.0837,
      "velocity": 95,
      "chip": "ym2612"
    },
    {
      "channel": 0,
      "note": 88,
      "start": 58.7496,
      "duration": 0.0212,
      "velocity": 124,
      "chip": "ym2612"
    },
    {
      "channel": 0,
      "note": 85,
      "start": 58.7956,
      "duration": 0.035,
      "velocity": 124,
      "chip": "ym2612"
    },
    {
      "channel": 3,
      "note": 89,
      "start": 58.8403,
      "duration": 0.0288,
      "velocity": 124,
      "chip": "ym2612"
    },
    {
      "channel": 1,
      "note": 62,
      "start": 58.8427,
      "duration": 0.1503,
      "velocity": 95,
      "chip": "ym2612"
    },
    {
      "channel": 0,
      "note": 80,
      "start": 58.8459,
      "duration": 0.0305,
      "velocity": 124,
      "chip": "ym2612"
    },
    {
      "channel": 0,
      "note": 74,
      "start": 58.8963,
      "duration": 0.08,
      "velocity": 124,
      "chip": "ym2612"
    },
    {
      "channel": 3,
      "note": 87,
      "start": 59.0127,
      "duration": 0.0636,
      "velocity": 124,
      "chip": "ym2612"
    },
    {
      "channel": 1,
      "note": 57,
      "start": 59.0159,
      "duration": 0.1605,
      "velocity": 95,
      "chip": "ym2612"
    },
    {
      "channel": 0,
      "note": 73,
      "start": 59.0184,
      "duration": 0.0746,
      "velocity": 124,
      "chip": "ym2612"
    },
    {
      "channel": 0,
      "note": 74,
      "start": 59.1131,
      "duration": 0.1132,
      "velocity": 124,
      "chip": "ym2612"
    },
    {
      "channel": 3,
      "note": 89,
      "start": 59.2127,
      "duration": 0.0637,
      "velocity": 124,
      "chip": "ym2612"
    },
    {
      "channel": 1,
      "note": 52,
      "start": 59.2155,
      "duration": 0.2561,
      "velocity": 95,
      "chip": "ym2612"
    },
    {
      "channel": 4,
      "note": 80,
      "start": 59.2181,
      "duration": 0.1085,
      "velocity": 124,
      "chip": "ym2612"
    },
    {
      "channel": 0,
      "note": 85,
      "start": 59.3131,
      "duration": 0.1133,
      "velocity": 124,
      "chip": "ym2612"
    },
    {
      "channel": 3,
      "note": 87,
      "start": 59.4328,
      "duration": 0.0316,
      "velocity": 124,
      "chip": "ym2612"
    },
    {
      "channel": 0,
      "note": 88,
      "start": 59.436,
      "duration": 0.0208,
      "velocity": 124,
      "chip": "ym2612"
    },
    {
      "channel": 0,
      "note": 85,
      "start": 59.4829,
      "duration": 0.0335,
      "velocity": 124,
      "chip": "ym2612"
    },
    {
      "channel": 3,
      "note": 89,
      "start": 59.5264,
      "duration": 0.029,
      "velocity": 124,
      "chip": "ym2612"
    },
    {
      "channel": 1,
      "note": 52,
      "start": 59.5292,
      "duration": 0.1484,
      "velocity": 95,
      "chip": "ym2612"
    },
    {
      "channel": 0,
      "note": 80,
      "start": 59.5317,
      "duration": 0.0235,
      "velocity": 124,
      "chip": "ym2612"
    },
    {
      "channel": 0,
      "note": 74,
      "start": 59.5807,
      "duration": 0.0634,
      "velocity": 124,
      "chip": "ym2612"
    },
    {
      "channel": 3,
      "note": 87,
      "start": 59.6973,
      "duration": 0.0637,
      "velocity": 124,
      "chip": "ym2612"
    },
    {
      "channel": 1,
      "note": 56,
      "start": 59.6999,
      "duration": 0.1777,
      "velocity": 95,
      "chip": "ym2612"
    },
    {
      "channel": 0,
      "note": 73,
      "start": 59.7023,
      "duration": 0.0585,
      "velocity": 124,
      "chip": "ym2612"
    },
    {
      "channel": 0,
      "note": 76,
      "start": 59.7976,
      "duration": 0.0799,
      "velocity": 124,
      "chip": "ym2612"
    },
    {
      "channel": 3,
      "note": 89,
      "start": 59.8972,
      "duration": 0.0637,
      "velocity": 124,
      "chip": "ym2612"
    },
    {
      "channel": 1,
      "note": 57,
      "start": 59.8998,
      "duration": 0.1778,
      "velocity": 95,
      "chip": "ym2612"
    },
    {
      "channel": 0,
      "note": 78,
      "start": 59.9022,
      "duration": 0.0753,
      "velocity": 124,
      "chip": "ym2612"
    },
    {
      "channel": 0,
      "note": 81,
      "start": 59.9974,
      "duration": 0.08,
      "velocity": 124,
      "chip": "ym2612"
    },
    {
      "channel": 3,
      "note": 87,
      "start": 60.114,
      "duration": 0.0331,
      "velocity": 124,
      "chip": "ym2612"
    },
    {
      "channel": 1,
      "note": 50,
      "start": 60.1167,
      "duration": 0.0605,
      "velocity": 95,
      "chip": "ym2612"
    },
    {
      "channel": 0,
      "note": 83,
      "start": 60.1195,
      "duration": 0.078,
      "velocity": 124,
      "chip": "ym2612"
    },
    {
      "channel": 3,
      "note": 89,
      "start": 60.2071,
      "duration": 0.0294,
      "velocity": 124,
      "chip": "ym2612"
    },
    {
      "channel": 1,
      "note": 50,
      "start": 60.2108,
      "duration": 0.1175,
      "velocity": 95,
      "chip": "ym2612"
    },
    {
      "channel": 0,
      "note": 81,
      "start": 60.2135,
      "duration": 0.0481,
      "velocity": 124,
      "chip": "ym2612"
    },
    {
      "channel": 0,
      "note": 78,
      "start": 60.2651,
      "duration": 0.0631,
      "velocity": 124,
      "chip": "ym2612"
    },
    {
      "channel": 3,
      "note": 87,
      "start": 60.3813,
      "duration": 0.0637,
      "velocity": 124,
      "chip": "ym2612"
    },
    {
      "channel": 1,
      "note": 56,
      "start": 60.384,
      "duration": 0.1775,
      "velocity": 95,
      "chip": "ym2612"
    },
    {
      "channel": 0,
      "note": 83,
      "start": 60.3866,
      "duration": 0.075,
      "velocity": 124,
      "chip": "ym2612"
    },
    {
      "channel": 0,
      "note": 81,
      "start": 60.4821,
      "duration": 0.1794,
      "velocity": 124,
      "chip": "ym2612"
    },
    {
      "channel": 3,
      "note": 89,
      "start": 60.5812,
      "duration": 0.0637,
      "velocity": 124,
      "chip": "ym2612"
    },
    {
      "channel": 1,
      "note": 57,
      "start": 60.5843,
      "duration": 0.1273,
      "velocity": 95,
      "chip": "ym2612"
    },
    {
      "channel": 0,
      "note": 78,
      "start": 60.6818,
      "duration": 0.0797,
      "velocity": 124,
      "chip": "ym2612"
    },
    {
      "channel": 3,
      "note": 87,
      "start": 60.7845,
      "duration": 0.041,
      "velocity": 124,
      "chip": "ym2612"
    },
    {
      "channel": 1,
      "note": 54,
      "start": 60.7874,
      "duration": 0.2419,
      "velocity": 95,
      "chip": "ym2612"
    },
    {
      "channel": 0,
      "note": 76,
      "start": 60.7903,
      "duration": 1.1222,
      "velocity": 124,
      "chip": "ym2612"
    },
    {
      "channel": 3,
      "note": 89,
      "start": 60.8866,
      "duration": 0.0272,
      "velocity": 124,
      "chip": "ym2612"
    },
    {
      "channel": 3,
      "note": 87,
      "start": 61.0491,
      "duration": 0.0801,
      "velocity": 124,
      "chip": "ym2612"
    },
    {
      "channel": 1,
      "note": 57,
      "start": 61.0519,
      "duration": 0.1941,
      "velocity": 95,
      "chip": "ym2612"
    },
    {
      "channel": 3,
      "note": 89,
      "start": 61.2655,
      "duration": 0.0637,
      "velocity": 124,
      "chip": "ym2612"
    },
    {
      "channel": 1,
      "note": 54,
      "start": 61.2683,
      "duration": 0.1609,
      "velocity": 95,
      "chip": "ym2612"
    },
    {
      "channel": 3,
      "note": 87,
      "start": 61.4657,
      "duration": 0.0384,
      "velocity": 124,
      "chip": "ym2612"
    },
    {
      "channel": 1,
      "note": 61,
      "start": 61.4684,
      "duration": 0.086,
      "velocity": 95,
      "chip": "ym2612"
    },
    {
      "channel": 3,
      "note": 89,
      "start": 61.5641,
      "duration": 0.0319,
      "velocity": 124,
      "chip": "ym2612"
    },
    {
      "channel": 1,
      "note": 62,
      "start": 61.5666,
      "duration": 0.1459,
      "velocity": 95,
      "chip": "ym2612"
    },
    {
      "channel": 3,
      "note": 87,
      "start": 61.7323,
      "duration": 0.0803,
      "velocity": 124,
      "chip": "ym2612"
    },
    {
      "channel": 1,
      "note": 57,
      "start": 61.7348,
      "duration": 0.1944,
      "velocity": 95,
      "chip": "ym2612"
    },
    {
      "channel": 3,
      "note": 89,
      "start": 61.9488,
      "duration": 0.0638,
      "velocity": 124,
      "chip": "ym2612"
    },
    {
      "channel": 1,
      "note": 52,
      "start": 61.9516,
      "duration": 0.2893,
      "velocity": 95,
      "chip": "ym2612"
    },
    {
      "channel": 0,
      "note": 80,
      "start": 61.9546,
      "duration": 0.6427,
      "velocity": 124,
      "chip": "ym2612"
    },
    {
      "channel": 3,
      "note": 87,
      "start": 62.1521,
      "duration": 0.0378,
      "velocity": 124,
      "chip": "ym2612"
    },
    {
      "channel": 3,
      "note": 89,
      "start": 62.252,
      "duration": 0.0287,
      "velocity": 124,
      "chip": "ym2612"
    },
    {
      "channel": 1,
      "note": 56,
      "start": 62.2549,
      "duration": 0.159,
      "velocity": 95,
      "chip": "ym2612"
    },
    {
      "channel": 3,
      "note": 87,
      "start": 62.4171,
      "duration": 0.0803,
      "velocity": 124,
      "chip": "ym2612"
    },
    {
      "channel": 1,
      "note": 57,
      "start": 62.4198,
      "duration": 0.2442,
      "velocity": 95,
      "chip": "ym2612"
    },
    {
      "channel": 3,
      "note": 89,
      "start": 62.6335,
      "duration": 0.0638,
      "velocity": 124,
      "chip": "ym2612"
    },
    {
      "channel": 2,
      "note": 49,
      "start": 62.6364,
      "duration": 0.1778,
      "velocity": 95,
      "chip": "ym2612"
    },
    {
      "channel": 0,
      "note": 86,
      "start": 62.6392,
      "duration": 0.1746,
      "velocity": 124,
      "chip": "ym2612"
    },
    {
      "channel": 3,
      "note": 87,
      "start": 62.8338,
      "duration": 0.0406,
      "velocity": 124,
      "chip": "ym2612"
    },
    {
      "channel": 1,
      "note": 56,
      "start": 62.8363,
      "duration": 0.0882,
      "velocity": 95,
      "chip": "ym2612"
    },
    {
      "channel": 0,
      "note": 85,
      "start": 62.8391,
      "duration": 0.4417,
      "velocity": 124,
      "chip": "ym2612"
    },
    {
      "channel": 3,
      "note": 89,
      "start": 62.9353,
      "duration": 0.029,
      "velocity": 124,
      "chip": "ym2612"
    },
    {
      "channel": 1,
      "note": 57,
      "start": 62.9376,
      "duration": 0.1433,
      "velocity": 95,
      "chip": "ym2612"
    },
    {
      "channel": 3,
      "note": 87,
      "start": 63.1007,
      "duration": 0.0635,
      "velocity": 124,
      "chip": "ym2612"
    },
    {
      "channel": 1,
      "note": 50,
      "start": 63.1032,
      "duration": 0.1943,
      "velocity": 95,
      "chip": "ym2612"
    },
    {
      "channel": 3,
      "note": 89,
      "start": 63.3171,
      "duration": 0.0639,
      "velocity": 124,
      "chip": "ym2612"
    },
    {
      "channel": 1,
      "note": 57,
      "start": 63.3198,
      "duration": 0.1611,
      "velocity": 95,
      "chip": "ym2612"
    },
    {
      "channel": 0,
      "note": 83,
      "start": 63.3226,
      "duration": 0.1915,
      "velocity": 124,
      "chip": "ym2612"
    },
    {
      "channel": 3,
      "note": 87,
      "start": 63.5205,
      "duration": 0.0347,
      "velocity": 124,
      "chip": "ym2612"
    },
    {
      "channel": 1,
      "note": 54,
      "start": 63.5234,
      "duration": 0.2259,
      "velocity": 95,
      "chip": "ym2612"
    },
    {
      "channel": 0,
      "note": 85,
      "start": 63.5268,
      "duration": 1.1383,
      "velocity": 124,
      "chip": "ym2612"
    },
    {
      "channel": 3,
      "note": 89,
      "start": 63.6225,
      "duration": 0.0273,
      "velocity": 124,
      "chip": "ym2612"
    },
    {
      "channel": 3,
      "note": 87,
      "start": 63.7857,
      "duration": 0.0637,
      "velocity": 124,
      "chip": "ym2612"
    },
    {
      "channel": 1,
      "note": 57,
      "start": 63.789,
      "duration": 0.177,
      "velocity": 95,
      "chip": "ym2612"
    },
    {
      "channel": 3,
      "note": 89,
      "start": 64.0023,
      "duration": 0.0637,
      "velocity": 124,
      "chip": "ym2612"
    },
    {
      "channel": 1,
      "note": 54,
      "start": 64.0049,
      "duration": 0.1277,
      "velocity": 95,
      "chip": "ym2612"
    },
    {
      "channel": 3,
      "note": 87,
      "start": 64.2024,
      "duration": 0.0314,
      "velocity": 124,
      "chip": "ym2612"
    },
    {
      "channel": 1,
      "note": 61,
      "start": 64.2051,
      "duration": 0.0857,
      "velocity": 95,
      "chip": "ym2612"
    },
    {
      "channel": 3,
      "note": 89,
      "start": 64.3006,
      "duration": 0.0313,
      "velocity": 124,
      "chip": "ym2612"
    },
    {
      "channel": 1,
      "note": 62,
      "start": 64.3029,
      "duration": 0.1457,
      "velocity": 95,
      "chip": "ym2612"
    },
    {
      "channel": 3,
      "note": 87,
      "start": 64.4684,
      "duration": 0.0635,
      "velocity": 124,
      "chip": "ym2612"
    },
    {
      "channel": 1,
      "note": 57,
      "start": 64.471,
      "duration": 0.1776,
      "velocity": 95,
      "chip": "ym2612"
    },
    {
      "channel": 3,
      "note": 89,
      "start": 64.6849,
      "duration": 0.0637,
      "velocity": 124,
      "chip": "ym2612"
    },
    {
      "channel": 1,
      "note": 52,
      "start": 64.6877,
      "duration": 0.2893,
      "velocity": 95,
      "chip": "ym2612"
    },
    {
      "channel": 0,
      "note": 86,
      "start": 64.6905,
      "duration": 0.158,
      "velocity": 124,
      "chip": "ym2612"
    },
    {
      "channel": 3,
      "note": 87,
      "start": 64.8881,
      "duration": 0.0311,
      "velocity": 124,
      "chip": "ym2612"
    },
    {
      "channel": 0,
      "note": 81,
      "start": 64.8911,
      "duration": 0.424,
      "velocity": 124,
      "chip": "ym2612"
    },
    {
      "channel": 3,
      "note": 89,
      "start": 64.988,
      "duration": 0.0272,
      "velocity": 124,
      "chip": "ym2612"
    },
    {
      "channel": 1,
      "note": 56,
      "start": 64.9908,
      "duration": 0.1578,
      "velocity": 95,
      "chip": "ym2612"
    },
    {
      "channel": 3,
      "note": 87,
      "start": 65.1517,
      "duration": 0.0634,
      "velocity": 124,
      "chip": "ym2612"
    },
    {
      "channel": 1,
      "note": 57,
      "start": 65.1548,
      "duration": 0.227,
      "velocity": 95,
      "chip": "ym2612"
    },
    {
      "channel": 3,
      "note": 89,
      "start": 65.3682,
      "duration": 0.0637,
      "velocity": 124,
      "chip": "ym2612"
    },
    {
      "channel": 2,
      "note": 64,
      "start": 65.3711,
      "duration": 0.1442,
      "velocity": 95,
      "chip": "ym2612"
    },
    {
      "channel": 0,
      "note": 80,
      "start": 65.3738,
      "duration": 0.6085,
      "velocity": 124,
      "chip": "ym2612"
    },
    {
      "channel": 3,
      "note": 87,
      "start": 65.5682,
      "duration": 0.0317,
      "velocity": 124,
      "chip": "ym2612"
    },
    {
      "channel": 1,
      "note": 50,
      "start": 65.571,
      "duration": 0.0868,
      "velocity": 95,
      "chip": "ym2612"
    },
    {
      "channel": 3,
      "note": 89,
      "start": 65.6676,
      "duration": 0.0315,
      "velocity": 124,
      "chip": "ym2612"
    },
    {
      "channel": 1,
      "note": 52,
      "start": 65.6699,
      "duration": 0.1459,
      "velocity": 95,
      "chip": "ym2612"
    },
    {
      "channel": 3,
      "note": 87,
      "start": 65.8355,
      "duration": 0.0635,
      "velocity": 124,
      "chip": "ym2612"
    },
    {
      "channel": 1,
      "note": 57,
      "start": 65.8381,
      "duration": 0.1943,
      "velocity": 95,
      "chip": "ym2612"
    },
    {
      "channel": 3,
      "note": 89,
      "start": 66.052,
      "duration": 0.0637,
      "velocity": 124,
      "chip": "ym2612"
    },
    {
      "channel": 1,
      "note": 54,
      "start": 66.0549,
      "duration": 0.4276,
      "velocity": 95,
      "chip": "ym2612"
    },
    {
      "channel": 0,
      "note": 81,
      "start": 66.058,
      "duration": 0.1744,
      "velocity": 124,
      "chip": "ym2612"
    },
    {
      "channel": 3,
      "note": 87,
      "start": 66.2554,
      "duration": 0.0307,
      "velocity": 124,
      "chip": "ym2612"
    },
    {
      "channel": 0,
      "note": 74,
      "start": 66.2584,
      "duration": 0.424,
      "velocity": 124,
      "chip": "ym2612"
    },
    {
      "channel": 3,
      "note": 89,
      "start": 66.355,
      "duration": 0.0274,
      "velocity": 124,
      "chip": "ym2612"
    },
    {
      "channel": 3,
      "note": 87,
      "start": 66.5188,
      "duration": 0.0637,
      "velocity": 124,
      "chip": "ym2612"
    },
    {
      "channel": 1,
      "note": 57,
      "start": 66.5217,
      "duration": 0.1941,
      "velocity": 95,
      "chip": "ym2612"
    },
    {
      "channel": 3,
      "note": 89,
      "start": 66.7354,
      "duration": 0.0637,
      "velocity": 124,
      "chip": "ym2612"
    },
    {
      "channel": 1,
      "note": 54,
      "start": 66.7379,
      "duration": 0.1779,
      "velocity": 95,
      "chip": "ym2612"
    },
    {
      "channel": 0,
      "note": 73,
      "start": 66.7406,
      "duration": 0.4419,
      "velocity": 124,
      "chip": "ym2612"
    },
    {
      "channel": 3,
      "note": 87,
      "start": 66.9356,
      "duration": 0.0315,
      "velocity": 124,
      "chip": "ym2612"
    },
    {
      "channel": 1,
      "note": 61,
      "start": 66.9381,
      "duration": 0.0795,
      "velocity": 95,
      "chip": "ym2612"
    },
    {
      "channel": 3,
      "note": 89,
      "start": 67.0343,
      "duration": 0.0317,
      "velocity": 124,
      "chip": "ym2612"
    },
    {
      "channel": 1,
      "note": 62,
      "start": 67.0368,
      "duration": 0.1459,
      "velocity": 95,
      "chip": "ym2612"
    },
    {
      "channel": 3,
      "note": 87,
      "start": 67.2023,
      "duration": 0.0637,
      "velocity": 124,
      "chip": "ym2612"
    },
    {
      "channel": 1,
      "note": 57,
      "start": 67.2052,
      "duration": 0.1773,
      "velocity": 95,
      "chip": "ym2612"
    },
    {
      "channel": 0,
      "note": 71,
      "start": 67.208,
      "duration": 0.1745,
      "velocity": 124,
      "chip": "ym2612"
    },
    {
      "channel": 3,
      "note": 89,
      "start": 67.4188,
      "duration": 0.0637,
      "velocity": 124,
      "chip": "ym2612"
    },
    {
      "channel": 1,
      "note": 52,
      "start": 67.4217,
      "duration": 0.2732,
      "velocity": 95,
      "chip": "ym2612"
    },
    {
      "channel": 0,
      "note": 73,
      "start": 67.4248,
      "duration": 1.6327,
      "velocity": 124,
      "chip": "ym2612"
    },
    {
      "channel": 3,
      "note": 87,
      "start": 67.6221,
      "duration": 0.0293,
      "velocity": 124,
      "chip": "ym2612"
    },
    {
      "channel": 3,
      "note": 89,
      "start": 67.7119,
      "duration": 0.0372,
      "velocity": 124,
      "chip": "ym2612"
    },
    {
      "channel": 1,
      "note": 56,
      "start": 67.7156,
      "duration": 0.1501,
      "velocity": 95,
      "chip": "ym2612"
    },
    {
      "channel": 3,
      "note": 87,
      "start": 67.8854,
      "duration": 0.0637,
      "velocity": 124,
      "chip": "ym2612"
    },
    {
      "channel": 1,
      "note": 57,
      "start": 67.8882,
      "duration": 0.2275,
      "velocity": 95,
      "chip": "ym2612"
    },
    {
      "channel": 3,
      "note": 89,
      "start": 68.0854,
      "duration": 0.0804,
      "velocity": 124,
      "chip": "ym2612"
    },
    {
      "channel": 2,
      "note": 49,
      "start": 68.0883,
      "duration": 0.1942,
      "velocity": 95,
      "chip": "ym2612"
    },
    {
      "channel": 3,
      "note": 87,
      "start": 68.3021,
      "duration": 0.0317,
      "velocity": 124,
      "chip": "ym2612"
    },
    {
      "channel": 1,
      "note": 56,
      "start": 68.3049,
      "duration": 0.0734,
      "velocity": 95,
      "chip": "ym2612"
    },
    {
      "channel": 3,
      "note": 89,
      "start": 68.3955,
      "duration": 0.0382,
      "velocity": 124,
      "chip": "ym2612"
    },
    {
      "channel": 1,
      "note": 57,
      "start": 68.398,
      "duration": 0.1522,
      "velocity": 95,
      "chip": "ym2612"
    },
    {
      "channel": 3,
      "note": 87,
      "start": 68.57,
      "duration": 0.0636,
      "velocity": 124,
      "chip": "ym2612"
    },
    {
      "channel": 1,
      "note": 50,
      "start": 68.5731,
      "duration": 0.2771,
      "velocity": 95,
      "chip": "ym2612"
    },
    {
      "channel": 3,
      "note": 89,
      "start": 68.7698,
      "duration": 0.0805,
      "velocity": 124,
      "chip": "ym2612"
    },
    {
      "channel": 2,
      "note": 57,
      "start": 68.7728,
      "duration": 0.1777,
      "velocity": 95,
      "chip": "ym2612"
    },
    {
      "channel": 3,
      "note": 87,
      "start": 68.9899,
      "duration": 0.0312,
      "velocity": 124,
      "chip": "ym2612"
    },
    {
      "channel": 1,
      "note": 54,
      "start": 68.9927,
      "duration": 0.2422,
      "velocity": 95,
      "chip": "ym2612"
    },
    {
      "channel": 3,
      "note": 89,
      "start": 69.0822,
      "duration": 0.0361,
      "velocity": 124,
      "chip": "ym2612"
    },
    {
      "channel": 0,
      "note": 80,
      "start": 69.0855,
      "duration": 0.6687,
      "velocity": 124,
      "chip": "ym2612"
    },
    {
      "channel": 3,
      "note": 87,
      "start": 69.2547,
      "duration": 0.0637,
      "velocity": 124,
      "chip": "ym2612"
    },
    {
      "channel": 1,
      "note": 57,
      "start": 69.2575,
      "duration": 0.1607,
      "velocity": 95,
      "chip": "ym2612"
    },
    {
      "channel": 3,
      "note": 89,
      "start": 69.4546,
      "duration": 0.0804,
      "velocity": 124,
      "chip": "ym2612"
    },
    {
      "channel": 1,
      "note": 54,
      "start": 69.4573,
      "duration": 0.2111,
      "velocity": 95,
      "chip": "ym2612"
    },
    {
      "channel": 3,
      "note": 87,
      "start": 69.6715,
      "duration": 0.0324,
      "velocity": 124,
      "chip": "ym2612"
    },
    {
      "channel": 1,
      "note": 61,
      "start": 69.6742,
      "duration": 0.08,
      "velocity": 95,
      "chip": "ym2612"
    },
    {
      "channel": 3,
      "note": 89,
      "start": 69.7648,
      "duration": 0.0363,
      "velocity": 124,
      "chip": "ym2612"
    },
    {
      "channel": 1,
      "note": 62,
      "start": 69.7671,
      "duration": 0.1506,
      "velocity": 95,
      "chip": "ym2612"
    },
    {
      "channel": 0,
      "note": 76,
      "start": 69.7697,
      "duration": 0.1479,
      "velocity": 124,
      "chip": "ym2612"
    },
    {
      "channel": 3,
      "note": 87,
      "start": 69.9376,
      "duration": 0.0636,
      "velocity": 124,
      "chip": "ym2612"
    },
    {
      "channel": 1,
      "note": 57,
      "start": 69.9403,
      "duration": 0.1608,
      "velocity": 95,
      "chip": "ym2612"
    },
    {
      "channel": 0,
      "note": 73,
      "start": 69.9427,
      "duration": 0.175,
      "velocity": 124,
      "chip": "ym2612"
    },
    {
      "channel": 3,
      "note": 89,
      "start": 70.1374,
      "duration": 0.0637,
      "velocity": 124,
      "chip": "ym2612"
    },
    {
      "channel": 1,
      "note": 52,
      "start": 70.1406,
      "duration": 0.2545,
      "velocity": 95,
      "chip": "ym2612"
    },
    {
      "channel": 0,
      "note": 80,
      "start": 70.1438,
      "duration": 0.6579,
      "velocity": 124,
      "chip": "ym2612"
    },
    {
      "channel": 3,
      "note": 87,
      "start": 70.3574,
      "duration": 0.03,
      "velocity": 124,
      "chip": "ym2612"
    },
    {
      "channel": 3,
      "note": 89,
      "start": 70.4489,
      "duration": 0.0278,
      "velocity": 124,
      "chip": "ym2612"
    },
    {
      "channel": 1,
      "note": 52,
      "start": 70.4527,
      "duration": 0.149,
      "velocity": 95,
      "chip": "ym2612"
    },
    {
      "channel": 3,
      "note": 87,
      "start": 70.6215,
      "duration": 0.0637,
      "velocity": 124,
      "chip": "ym2612"
    },
    {
      "channel": 1,
      "note": 56,
      "start": 70.624,
      "duration": 0.1778,
      "velocity": 95,
      "chip": "ym2612"
    },
    {
      "channel": 3,
      "note": 89,
      "start": 70.8214,
      "duration": 0.0638,
      "velocity": 124,
      "chip": "ym2612"
    },
    {
      "channel": 1,
      "note": 57,
      "start": 70.8239,
      "duration": 0.1946,
      "velocity": 95,
      "chip": "ym2612"
    },
    {
      "channel": 0,
      "note": 76,
      "start": 70.8266,
      "duration": 0.1917,
      "velocity": 124,
      "chip": "ym2612"
    },
    {
      "channel": 3,
      "note": 87,
      "start": 71.0382,
      "duration": 0.0335,
      "velocity": 124,
      "chip": "ym2612"
    },
    {
      "channel": 1,
      "note": 50,
      "start": 71.0409,
      "duration": 0.0608,
      "velocity": 95,
      "chip": "ym2612"
    },
    {
      "channel": 0,
      "note": 83,
      "start": 71.0435,
      "duration": 0.0795,
      "velocity": 124,
      "chip": "ym2612"
    },
    {
      "channel": 3,
      "note": 89,
      "start": 71.1334,
      "duration": 0.0289,
      "velocity": 124,
      "chip": "ym2612"
    },
    {
      "channel": 1,
      "note": 50,
      "start": 71.1368,
      "duration": 0.1337,
      "velocity": 95,
      "chip": "ym2612"
    },
    {
      "channel": 0,
      "note": 81,
      "start": 71.1394,
      "duration": 0.1311,
      "velocity": 124,
      "chip": "ym2612"
    },
    {
      "channel": 3,
      "note": 87,
      "start": 71.3069,
      "duration": 0.0637,
      "velocity": 124,
      "chip": "ym2612"
    },
    {
      "channel": 1,
      "note": 56,
      "start": 71.3096,
      "duration": 0.1776,
      "velocity": 95,
      "chip": "ym2612"
    },
    {
      "channel": 0,
      "note": 78,
      "start": 71.3126,
      "duration": 0.1745,
      "velocity": 124,
      "chip": "ym2612"
    },
    {
      "channel": 3,
      "note": 89,
      "start": 71.5068,
      "duration": 0.0637,
      "velocity": 124,
      "chip": "ym2612"
    },
    {
      "channel": 1,
      "note": 57,
      "start": 71.5095,
      "duration": 0.1443,
      "velocity": 95,
      "chip": "ym2612"
    },
    {
      "channel": 0,
      "note": 76,
      "start": 71.5123,
      "duration": 0.1582,
      "velocity": 124,
      "chip": "ym2612"
    },
    {
      "channel": 3,
      "note": 87,
      "start": 71.7267,
      "duration": 0.0315,
      "velocity": 124,
      "chip": "ym2612"
    },
    {
      "channel": 1,
      "note": 55,
      "start": 71.73,
      "duration": 0.0876,
      "velocity": 95,
      "chip": "ym2612"
    },
    {
      "channel": 0,
      "note": 74,
      "start": 71.7768,
      "duration": 0.0332,
      "velocity": 124,
      "chip": "ym2612"
    },
    {
      "channel": 3,
      "note": 89,
      "start": 71.8201,
      "duration": 0.028,
      "velocity": 124,
      "chip": "ym2612"
    },
    {
      "channel": 0,
      "note": 79,
      "start": 71.8227,
      "duration": 0.033,
      "velocity": 124,
      "chip": "ym2612"
    },
    {
      "channel": 0,
      "note": 83,
      "start": 71.8748,
      "duration": 0.0798,
      "velocity": 124,
      "chip": "ym2612"
    },
    {
      "channel": 3,
      "note": 87,
      "start": 71.9912,
      "duration": 0.0635,
      "velocity": 124,
      "chip": "ym2612"
    },
    {
      "channel": 0,
      "note": 85,
      "start": 71.994,
      "duration": 0.0773,
      "velocity": 124,
      "chip": "ym2612"
    },
    {
      "channel": 0,
      "note": 83,
      "start": 72.0912,
      "duration": 0.0801,
      "velocity": 124,
      "chip": "ym2612"
    },
    {
      "channel": 3,
      "note": 89,
      "start": 72.191,
      "duration": 0.0637,
      "velocity": 124,
      "chip": "ym2612"
    },
    {
      "channel": 1,
      "note": 55,
      "start": 72.1939,
      "duration": 0.1943,
      "velocity": 95,
      "chip": "ym2612"
    },
    {
      "channel": 0,
      "note": 79,
      "start": 72.1964,
      "duration": 0.0749,
      "velocity": 124,
      "chip": "ym2612"
    },
    {
      "channel": 0,
      "note": 74,
      "start": 72.2915,
      "duration": 0.0966,
      "velocity": 124,
      "chip": "ym2612"
    },
    {
      "channel": 3,
      "note": 87,
      "start": 72.4078,
      "duration": 0.032,
      "velocity": 124,
      "chip": "ym2612"
    },
    {
      "channel": 1,
      "note": 57,
      "start": 72.4107,
      "duration": 0.0725,
      "velocity": 95,
      "chip": "ym2612"
    },
    {
      "channel": 0,
      "note": 76,
      "start": 72.4581,
      "duration": 0.025,
      "velocity": 124,
      "chip": "ym2612"
    },
    {
      "channel": 3,
      "note": 89,
      "start": 72.5012,
      "duration": 0.0281,
      "velocity": 124,
      "chip": "ym2612"
    },
    {
      "channel": 0,
      "note": 81,
      "start": 72.5038,
      "duration": 0.0343,
      "velocity": 124,
      "chip": "ym2612"
    },
    {
      "channel": 0,
      "note": 85,
      "start": 72.558,
      "duration": 0.0966,
      "velocity": 124,
      "chip": "ym2612"
    },
    {
      "channel": 3,
      "note": 87,
      "start": 72.6744,
      "duration": 0.0637,
      "velocity": 124,
      "chip": "ym2612"
    },
    {
      "channel": 0,
      "note": 86,
      "start": 72.6772,
      "duration": 0.0775,
      "velocity": 124,
      "chip": "ym2612"
    },
    {
      "channel": 0,
      "note": 85,
      "start": 72.7749,
      "duration": 0.0631,
      "velocity": 124,
      "chip": "ym2612"
    },
    {
      "channel": 3,
      "note": 89,
      "start": 72.8744,
      "duration": 0.0638,
      "velocity": 124,
      "chip": "ym2612"
    },
    {
      "channel": 1,
      "note": 57,
      "start": 72.8771,
      "duration": 0.1777,
      "velocity": 95,
      "chip": "ym2612"
    },
    {
      "channel": 0,
      "note": 81,
      "start": 72.8797,
      "duration": 0.0751,
      "velocity": 124,
      "chip": "ym2612"
    },
    {
      "channel": 0,
      "note": 76,
      "start": 72.9748,
      "duration": 0.0966,
      "velocity": 124,
      "chip": "ym2612"
    },
    {
      "channel": 3,
      "note": 87,
      "start": 73.0944,
      "duration": 0.0307,
      "velocity": 124,
      "chip": "ym2612"
    },
    {
      "channel": 1,
      "note": 59,
      "start": 73.097,
      "duration": 0.0726,
      "velocity": 95,
      "chip": "ym2612"
    },
    {
      "channel": 0,
      "note": 78,
      "start": 73.1434,
      "duration": 0.0261,
      "velocity": 124,
      "chip": "ym2612"
    },
    {
      "channel": 3,
      "note": 89,
      "start": 73.1867,
      "duration": 0.0288,
      "velocity": 124,
      "chip": "ym2612"
    },
    {
      "channel": 1,
      "note": 59,
      "start": 73.1891,
      "duration": 0.1488,
      "velocity": 95,
      "chip": "ym2612"
    },
    {
      "channel": 0,
      "note": 83,
      "start": 73.1919,
      "duration": 0.0309,
      "velocity": 124,
      "chip": "ym2612"
    },
    {
      "channel": 0,
      "note": 87,
      "start": 73.2414,
      "duration": 0.0798,
      "velocity": 124,
      "chip": "ym2612"
    },
    {
      "channel": 3,
      "note": 87,
      "start": 73.3578,
      "duration": 0.0635,
      "velocity": 124,
      "chip": "ym2612"
    },
    {
      "channel": 1,
      "note": 59,
      "start": 73.3605,
      "duration": 0.1441,
      "velocity": 95,
      "chip": "ym2612"
    },
    {
      "channel": 0,
      "note": 88,
      "start": 73.3631,
      "duration": 0.0748,
      "velocity": 124,
      "chip": "ym2612"
    },
    {
      "channel": 0,
      "note": 87,
      "start": 73.4579,
      "duration": 0.0801,
      "velocity": 124,
      "chip": "ym2612"
    },
    {
      "channel": 3,
      "note": 89,
      "start": 73.5576,
      "duration": 0.0637,
      "velocity": 124,
      "chip": "ym2612"
    },
    {
      "channel": 1,
      "note": 59,
      "start": 73.5607,
      "duration": 0.1939,
      "velocity": 95,
      "chip": "ym2612"
    },
    {
      "channel": 0,
      "note": 83,
      "start": 73.5631,
      "duration": 0.0748,
      "velocity": 124,
      "chip": "ym2612"
    },
    {
      "channel": 0,
      "note": 78,
      "start": 73.6581,
      "duration": 0.0632,
      "velocity": 124,
      "chip": "ym2612"
    },
    {
      "channel": 3,
      "note": 87,
      "start": 73.7744,
      "duration": 0.0335,
      "velocity": 124,
      "chip": "ym2612"
    },
    {
      "channel": 1,
      "note": 59,
      "start": 73.777,
      "duration": 0.0815,
      "velocity": 95,
      "chip": "ym2612"
    },
    {
      "channel": 0,
      "note": 88,
      "start": 73.7798,
      "duration": 0.0786,
      "velocity": 124,
      "chip": "ym2612"
    },
    {
      "channel": 3,
      "note": 89,
      "start": 73.8681,
      "duration": 0.0288,
      "velocity": 124,
      "chip": "ym2612"
    },
    {
      "channel": 1,
      "note": 59,
      "start": 73.8718,
      "duration": 0.2833,
      "velocity": 95,
      "chip": "ym2612"
    },
    {
      "channel": 0,
      "note": 87,
      "start": 73.8742,
      "duration": 0.0225,
      "velocity": 124,
      "chip": "ym2612"
    },
    {
      "channel": 0,
      "note": 83,
      "start": 73.9251,
      "duration": 0.08,
      "velocity": 124,
      "chip": "ym2612"
    },
    {
      "channel": 3,
      "note": 87,
      "start": 74.0415,
      "duration": 0.0637,
      "velocity": 124,
      "chip": "ym2612"
    },
    {
      "channel": 0,
      "note": 78,
      "start": 74.0444,
      "duration": 0.0606,
      "velocity": 124,
      "chip": "ym2612"
    },
    {
      "channel": 0,
      "note": 76,
      "start": 74.1418,
      "duration": 0.0799,
      "velocity": 124,
      "chip": "ym2612"
    },
    {
      "channel": 3,
      "note": 89,
      "start": 74.2414,
      "duration": 0.0638,
      "velocity": 124,
      "chip": "ym2612"
    },
    {
      "channel": 1,
      "note": 59,
      "start": 74.2442,
      "duration": 0.1443,
      "velocity": 95,
      "chip": "ym2612"
    },
    {
      "channel": 0,
      "note": 75,
      "start": 74.2467,
      "duration": 0.0751,
      "velocity": 124,
      "chip": "ym2612"
    },
    {
      "channel": 0,
      "note": 71,
      "start": 74.3416,
      "duration": 0.0801,
      "velocity": 124,
      "chip": "ym2612"
    },
    {
      "channel": 3,
      "note": 87,
      "start": 74.4613,
      "duration": 0.0343,
      "velocity": 124,
      "chip": "ym2612"
    },
    {
      "channel": 1,
      "note": 60,
      "start": 74.464,
      "duration": 0.0677,
      "velocity": 95,
      "chip": "ym2612"
    },
    {
      "channel": 0,
      "note": 66,
      "start": 74.467,
      "duration": 0.0208,
      "velocity": 124,
      "chip": "ym2612"
    },
    {
      "channel": 0,
      "note": 67,
      "start": 74.5135,
      "duration": 0.0325,
      "velocity": 124,
      "chip": "ym2612"
    },
    {
      "channel": 3,
      "note": 89,
      "start": 74.5571,
      "duration": 0.0268,
      "velocity": 124,
      "chip": "ym2612"
    },
    {
      "channel": 0,
      "note": 72,
      "start": 74.5595,
      "duration": 0.0315,
      "velocity": 124,
      "chip": "ym2612"
    },
    {
      "channel": 0,
      "note": 76,
      "start": 74.6093,
      "duration": 0.0801,
      "velocity": 124,
      "chip": "ym2612"
    },
    {
      "channel": 3,
      "note": 87,
      "start": 74.7092,
      "duration": 0.0802,
      "velocity": 124,
      "chip": "ym2612"
    },
    {
      "channel": 0,
      "note": 78,
      "start": 74.7119,
      "duration": 0.0941,
      "velocity": 124,
      "chip": "ym2612"
    },
    {
      "channel": 0,
      "note": 76,
      "start": 74.8261,
      "duration": 0.0631,
      "velocity": 124,
      "chip": "ym2612"
    },
    {
      "channel": 3,
      "note": 89,
      "start": 74.9257,
      "duration": 0.0637,
      "velocity": 124,
      "chip": "ym2612"
    },
    {
      "channel": 1,
      "note": 60,
      "start": 74.9285,
      "duration": 0.1609,
      "velocity": 95,
      "chip": "ym2612"
    },
    {
      "channel": 0,
      "note": 72,
      "start": 74.9312,
      "duration": 0.0748,
      "velocity": 124,
      "chip": "ym2612"
    },
    {
      "channel": 0,
      "note": 67,
      "start": 75.0261,
      "duration": 0.0799,
      "velocity": 124,
      "chip": "ym2612"
    },
    {
      "channel": 3,
      "note": 87,
      "start": 75.1259,
      "duration": 0.039,
      "velocity": 124,
      "chip": "ym2612"
    },
    {
      "channel": 1,
      "note": 62,
      "start": 75.1286,
      "duration": 0.0802,
      "velocity": 95,
      "chip": "ym2612"
    },
    {
      "channel": 0,
      "note": 69,
      "start": 75.1829,
      "duration": 0.033,
      "velocity": 124,
      "chip": "ym2612"
    },
    {
      "channel": 3,
      "note": 89,
      "start": 75.2267,
      "duration": 0.0299,
      "velocity": 124,
      "chip": "ym2612"
    },
    {
      "channel": 0,
      "note": 74,
      "start": 75.2292,
      "duration": 0.0439,
      "velocity": 124,
      "chip": "ym2612"
    },
    {
      "channel": 0,
      "note": 78,
      "start": 75.2934,
      "duration": 0.0798,
      "velocity": 124,
      "chip": "ym2612"
    },
    {
      "channel": 3,
      "note": 87,
      "start": 75.393,
      "duration": 0.0803,
      "velocity": 124,
      "chip": "ym2612"
    },
    {
      "channel": 0,
      "note": 79,
      "start": 75.3957,
      "duration": 0.0941,
      "velocity": 124,
      "chip": "ym2612"
    },
    {
      "channel": 0,
      "note": 78,
      "start": 75.5098,
      "duration": 0.08,
      "velocity": 124,
      "chip": "ym2612"
    },
    {
      "channel": 3,
      "note": 89,
      "start": 75.6094,
      "duration": 0.0637,
      "velocity": 124,
      "chip": "ym2612"
    },
    {
      "channel": 1,
      "note": 62,
      "start": 75.6125,
      "duration": 0.1607,
      "velocity": 95,
      "chip": "ym2612"
    },
    {
      "channel": 0,
      "note": 74,
      "start": 75.615,
      "duration": 0.0748,
      "velocity": 124,
      "chip": "ym2612"
    },
    {
      "channel": 0,
      "note": 69,
      "start": 75.71,
      "duration": 0.0799,
      "velocity": 124,
      "chip": "ym2612"
    },
    {
      "channel": 3,
      "note": 87,
      "start": 75.8129,
      "duration": 0.0382,
      "velocity": 124,
      "chip": "ym2612"
    },
    {
      "channel": 1,
      "note": 64,
      "start": 75.8156,
      "duration": 0.073,
      "velocity": 95,
      "chip": "ym2612"
    },
    {
      "channel": 0,
      "note": 71,
      "start": 75.8684,
      "duration": 0.0346,
      "velocity": 124,
      "chip": "ym2612"
    },
    {
      "channel": 3,
      "note": 89,
      "start": 75.9131,
      "duration": 0.0286,
      "velocity": 124,
      "chip": "ym2612"
    },
    {
      "channel": 1,
      "note": 52,
      "start": 75.9166,
      "duration": 0.1235,
      "velocity": 95,
      "chip": "ym2612"
    },
    {
      "channel": 0,
      "note": 76,
      "start": 75.919,
      "duration": 0.0377,
      "velocity": 124,
      "chip": "ym2612"
    },
    {
      "channel": 0,
      "note": 80,
      "start": 75.9766,
      "duration": 0.0801,
      "velocity": 124,
      "chip": "ym2612"
    },
    {
      "channel": 3,
      "note": 87,
      "start": 76.0766,
      "duration": 0.0802,
      "velocity": 124,
      "chip": "ym2612"
    },
    {
      "channel": 1,
      "note": 52,
      "start": 76.0792,
      "duration": 0.1609,
      "velocity": 95,
      "chip": "ym2612"
    },
    {
      "channel": 0,
      "note": 81,
      "start": 76.0818,
      "duration": 0.0582,
      "velocity": 124,
      "chip": "ym2612"
    },
    {
      "channel": 0,
      "note": 83,
      "start": 76.1934,
      "duration": 0.0799,
      "velocity": 124,
      "chip": "ym2612"
    },
    {
      "channel": 3,
      "note": 89,
      "start": 76.2929,
      "duration": 0.0639,
      "velocity": 124,
      "chip": "ym2612"
    },
    {
      "channel": 1,
      "note": 52,
      "start": 76.2955,
      "duration": 0.1446,
      "velocity": 95,
      "chip": "ym2612"
    },
    {
      "channel": 0,
      "note": 88,
      "start": 76.298,
      "duration": 0.0754,
      "velocity": 124,
      "chip": "ym2612"
    },
    {
      "channel": 0,
      "note": 92,
      "start": 76.3932,
      "duration": 0.0801,
      "velocity": 124,
      "chip": "ym2612"
    },
    {
      "channel": 3,
      "note": 87,
      "start": 76.4932,
      "duration": 0.0408,
      "velocity": 124,
      "chip": "ym2612"
    },
    {
      "channel": 1,
      "note": 54,
      "start": 76.4958,
      "duration": 0.0819,
      "velocity": 95,
      "chip": "ym2612"
    },
    {
      "channel": 0,
      "note": 93,
      "start": 76.4988,
      "duration": 0.0864,
      "velocity": 124,
      "chip": "ym2612"
    },
    {
      "channel": 3,
      "note": 89,
      "start": 76.5962,
      "duration": 0.0282,
      "velocity": 124,
      "chip": "ym2612"
    },
    {
      "channel": 1,
      "note": 54,
      "start": 76.5986,
      "duration": 0.1258,
      "velocity": 95,
      "chip": "ym2612"
    },
    {
      "channel": 0,
      "note": 92,
      "start": 76.601,
      "duration": 0.0399,
      "velocity": 124,
      "chip": "ym2612"
    },
    {
      "channel": 0,
      "note": 88,
      "start": 76.661,
      "duration": 0.08,
      "velocity": 124,
      "chip": "ym2612"
    },
    {
      "channel": 3,
      "note": 87,
      "start": 76.7608,
      "duration": 0.0803,
      "velocity": 124,
      "chip": "ym2612"
    },
    {
      "channel": 1,
      "note": 54,
      "start": 76.7636,
      "duration": 0.1607,
      "velocity": 95,
      "chip": "ym2612"
    },
    {
      "channel": 0,
      "note": 85,
      "start": 76.7662,
      "duration": 0.0748,
      "velocity": 124,
      "chip": "ym2612"
    },
    {
      "channel": 0,
      "note": 83,
      "start": 76.8778,
      "duration": 0.0799,
      "velocity": 124,
      "chip": "ym2612"
    },
    {
      "channel": 3,
      "note": 89,
      "start": 76.9773,
      "duration": 0.0637,
      "velocity": 124,
      "chip": "ym2612"
    },
    {
      "channel": 1,
      "note": 54,
      "start": 76.98,
      "duration": 0.1776,
      "velocity": 95,
      "chip": "ym2612"
    },
    {
      "channel": 0,
      "note": 81,
      "start": 76.9826,
      "duration": 0.075,
      "velocity": 124,
      "chip": "ym2612"
    },
    {
      "channel": 3,
      "note": 87,
      "start": 77.1805,
      "duration": 0.0316,
      "velocity": 124,
      "chip": "ym2612"
    },
    {
      "channel": 1,
      "note": 55,
      "start": 77.1838,
      "duration": 0.0795,
      "velocity": 95,
      "chip": "ym2612"
    },
    {
      "channel": 0,
      "note": 74,
      "start": 77.2365,
      "duration": 0.0341,
      "velocity": 124,
      "chip": "ym2612"
    },
    {
      "channel": 3,
      "note": 89,
      "start": 77.2808,
      "duration": 0.0286,
      "velocity": 124,
      "chip": "ym2612"
    },
    {
      "channel": 0,
      "note": 79,
      "start": 77.2843,
      "duration": 0.0406,
      "velocity": 124,
      "chip": "ym2612"
    },
    {
      "channel": 0,
      "note": 83,
      "start": 77.3448,
      "duration": 0.0801,
      "velocity": 124,
      "chip": "ym2612"
    },
    {
      "channel": 3,
      "note": 87,
      "start": 77.4447,
      "duration": 0.0635,
      "velocity": 124,
      "chip": "ym2612"
    },
    {
      "channel": 0,
      "note": 85,
      "start": 77.4474,
      "duration": 0.0774,
      "velocity": 124,
      "chip": "ym2612"
    },
    {
      "channel": 0,
      "note": 83,
      "start": 77.5615,
      "duration": 0.08,
      "velocity": 124,
      "chip": "ym2612"
    },
    {
      "channel": 3,
      "note": 89,
      "start": 77.6611,
      "duration": 0.0639,
      "velocity": 124,
      "chip": "ym2612"
    },
    {
      "channel": 1,
      "note": 55,
      "start": 77.6639,
      "duration": 0.1777,
      "velocity": 95,
      "chip": "ym2612"
    },
    {
      "channel": 0,
      "note": 79,
      "start": 77.6664,
      "duration": 0.0751,
      "velocity": 124,
      "chip": "ym2612"
    },
    {
      "channel": 0,
      "note": 74,
      "start": 77.7619,
      "duration": 0.0796,
      "velocity": 124,
      "chip": "ym2612"
    },
    {
      "channel": 3,
      "note": 87,
      "start": 77.8613,
      "duration": 0.0319,
      "velocity": 124,
      "chip": "ym2612"
    },
    {
      "channel": 1,
      "note": 57,
      "start": 77.8641,
      "duration": 0.0726,
      "velocity": 95,
      "chip": "ym2612"
    },
    {
      "channel": 0,
      "note": 76,
      "start": 77.9188,
      "duration": 0.0251,
      "velocity": 124,
      "chip": "ym2612"
    },
    {
      "channel": 3,
      "note": 89,
      "start": 77.9613,
      "duration": 0.0298,
      "velocity": 124,
      "chip": "ym2612"
    },
    {
      "channel": 0,
      "note": 81,
      "start": 77.9639,
      "duration": 0.0439,
      "velocity": 124,
      "chip": "ym2612"
    },
    {
      "channel": 0,
      "note": 85,
      "start": 78.0278,
      "duration": 0.08,
      "velocity": 124,
      "chip": "ym2612"
    },
    {
      "channel": 3,
      "note": 87,
      "start": 78.1276,
      "duration": 0.0635,
      "velocity": 124,
      "chip": "ym2612"
    },
    {
      "channel": 0,
      "note": 86,
      "start": 78.1303,
      "duration": 0.0774,
      "velocity": 124,
      "chip": "ym2612"
    },
    {
      "channel": 0,
      "note": 85,
      "start": 78.2278,
      "duration": 0.08,
      "velocity": 124,
      "chip": "ym2612"
    },
    {
      "channel": 3,
      "note": 89,
      "start": 78.344,
      "duration": 0.0639,
      "velocity": 124,
      "chip": "ym2612"
    },
    {
      "channel": 1,
      "note": 57,
      "start": 78.3467,
      "duration": 0.1445,
      "velocity": 95,
      "chip": "ym2612"
    },
    {
      "channel": 0,
      "note": 81,
      "start": 78.3493,
      "duration": 0.0752,
      "velocity": 124,
      "chip": "ym2612"
    },
    {
      "channel": 0,
      "note": 76,
      "start": 78.4445,
      "duration": 0.0799,
      "velocity": 124,
      "chip": "ym2612"
    },
    {
      "channel": 3,
      "note": 87,
      "start": 78.5474,
      "duration": 0.0311,
      "velocity": 124,
      "chip": "ym2612"
    },
    {
      "channel": 1,
      "note": 59,
      "start": 78.5501,
      "duration": 0.0804,
      "velocity": 95,
      "chip": "ym2612"
    },
    {
      "channel": 0,
      "note": 78,
      "start": 78.5976,
      "duration": 0.0328,
      "velocity": 124,
      "chip": "ym2612"
    },
    {
      "channel": 3,
      "note": 89,
      "start": 78.6478,
      "duration": 0.0293,
      "velocity": 124,
      "chip": "ym2612"
    },
    {
      "channel": 1,
      "note": 59,
      "start": 78.6513,
      "duration": 0.1243,
      "velocity": 95,
      "chip": "ym2612"
    },
    {
      "channel": 0,
      "note": 83,
      "start": 78.6537,
      "duration": 0.0386,
      "velocity": 124,
      "chip": "ym2612"
    },
    {
      "channel": 0,
      "note": 87,
      "start": 78.7122,
      "duration": 0.08,
      "velocity": 124,
      "chip": "ym2612"
    },
    {
      "channel": 3,
      "note": 87,
      "start": 78.812,
      "duration": 0.0637,
      "velocity": 124,
      "chip": "ym2612"
    },
    {
      "channel": 1,
      "note": 59,
      "start": 78.8146,
      "duration": 0.1777,
      "velocity": 95,
      "chip": "ym2612"
    },
    {
      "channel": 0,
      "note": 88,
      "start": 78.817,
      "duration": 0.0752,
      "velocity": 124,
      "chip": "ym2612"
    },
    {
      "channel": 0,
      "note": 87,
      "start": 78.9121,
      "duration": 0.0968,
      "velocity": 124,
      "chip": "ym2612"
    },
    {
      "channel": 3,
      "note": 89,
      "start": 79.0286,
      "duration": 0.0637,
      "velocity": 124,
      "chip": "ym2612"
    },
    {
      "channel": 1,
      "note": 59,
      "start": 79.0312,
      "duration": 0.1612,
      "velocity": 95,
      "chip": "ym2612"
    },
    {
      "channel": 0,
      "note": 83,
      "start": 79.0336,
      "duration": 0.0753,
      "velocity": 124,
      "chip": "ym2612"
    },
    {
      "channel": 0,
      "note": 78,
      "start": 79.129,
      "duration": 0.0632,
      "velocity": 124,
      "chip": "ym2612"
    },
    {
      "channel": 3,
      "note": 87,
      "start": 79.2288,
      "duration": 0.0336,
      "velocity": 124,
      "chip": "ym2612"
    },
    {
      "channel": 1,
      "note": 59,
      "start": 79.2318,
      "duration": 0.0736,
      "velocity": 95,
      "chip": "ym2612"
    },
    {
      "channel": 0,
      "note": 88,
      "start": 79.2346,
      "duration": 0.0855,
      "velocity": 124,
      "chip": "ym2612"
    },
    {
      "channel": 3,
      "note": 89,
      "start": 79.3313,
      "duration": 0.0285,
      "velocity": 124,
      "chip": "ym2612"
    },
    {
      "channel": 1,
      "note": 59,
      "start": 79.3337,
      "duration": 0.1094,
      "velocity": 95,
      "chip": "ym2612"
    },
    {
      "channel": 0,
      "note": 87,
      "start": 79.3361,
      "duration": 0.0402,
      "velocity": 124,
      "chip": "ym2612"
    },
    {
      "channel": 0,
      "note": 83,
      "start": 79.3964,
      "duration": 0.08,
      "velocity": 124,
      "chip": "ym2612"
    },
    {
      "channel": 3,
      "note": 87,
      "start": 79.4962,
      "duration": 0.0637,
      "velocity": 124,
      "chip": "ym2612"
    },
    {
      "channel": 1,
      "note": 59,
      "start": 79.4989,
      "duration": 0.1775,
      "velocity": 95,
      "chip": "ym2612"
    },
    {
      "channel": 0,
      "note": 78,
      "start": 79.5015,
      "duration": 0.0582,
      "velocity": 124,
      "chip": "ym2612"
    },
    {
      "channel": 0,
      "note": 76,
      "start": 79.5965,
      "duration": 0.0965,
      "velocity": 124,
      "chip": "ym2612"
    },
    {
      "channel": 3,
      "note": 89,
      "start": 79.7127,
      "duration": 0.0639,
      "velocity": 124,
      "chip": "ym2612"
    },
    {
      "channel": 1,
      "note": 59,
      "start": 79.7153,
      "duration": 0.1611,
      "velocity": 95,
      "chip": "ym2612"
    },
    {
      "channel": 0,
      "note": 75,
      "start": 79.7177,
      "duration": 0.0754,
      "velocity": 124,
      "chip": "ym2612"
    },
    {
      "channel": 0,
      "note": 71,
      "start": 79.8129,
      "duration": 0.0801,
      "velocity": 124,
      "chip": "ym2612"
    },
    {
      "channel": 3,
      "note": 87,
      "start": 79.916,
      "duration": 0.0343,
      "velocity": 124,
      "chip": "ym2612"
    },
    {
      "channel": 1,
      "note": 60,
      "start": 79.9188,
      "duration": 0.0676,
      "velocity": 95,
      "chip": "ym2612"
    },
    {
      "channel": 0,
      "note": 66,
      "start": 79.9218,
      "duration": 0.0205,
      "velocity": 124,
      "chip": "ym2612"
    },
    {
      "channel": 0,
      "note": 67,
      "start": 79.9678,
      "duration": 0.0409,
      "velocity": 124,
      "chip": "ym2612"
    },
    {
      "channel": 3,
      "note": 89,
      "start": 80.018,
      "duration": 0.0276,
      "velocity": 124,
      "chip": "ym2612"
    },
    {
      "channel": 0,
      "note": 72,
      "start": 80.0206,
      "duration": 0.0399,
      "velocity": 124,
      "chip": "ym2612"
    },
    {
      "channel": 0,
      "note": 76,
      "start": 80.0806,
      "duration": 0.0966,
      "velocity": 124,
      "chip": "ym2612"
    },
    {
      "channel": 3,
      "note": 87,
      "start": 80.1804,
      "duration": 0.0635,
      "velocity": 124,
      "chip": "ym2612"
    },
    {
      "channel": 0,
      "note": 78,
      "start": 80.1832,
      "duration": 0.0773,
      "velocity": 124,
      "chip": "ym2612"
    },
    {
      "channel": 0,
      "note": 76,
      "start": 80.2804,
      "duration": 0.0968,
      "velocity": 124,
      "chip": "ym2612"
    },
    {
      "channel": 3,
      "note": 89,
      "start": 80.3968,
      "duration": 0.0639,
      "velocity": 124,
      "chip": "ym2612"
    },
    {
      "channel": 1,
      "note": 60,
      "start": 80.3996,
      "duration": 0.1609,
      "velocity": 95,
      "chip": "ym2612"
    },
    {
      "channel": 0,
      "note": 72,
      "start": 80.4021,
      "duration": 0.0751,
      "velocity": 124,
      "chip": "ym2612"
    },
    {
      "channel": 0,
      "note": 67,
      "start": 80.4972,
      "duration": 0.0799,
      "velocity": 124,
      "chip": "ym2612"
    },
    {
      "channel": 3,
      "note": 87,
      "start": 80.5969,
      "duration": 0.0319,
      "velocity": 124,
      "chip": "ym2612"
    },
    {
      "channel": 1,
      "note": 62,
      "start": 80.5998,
      "duration": 0.1035,
      "velocity": 95,
      "chip": "ym2612"
    },
    {
      "channel": 0,
      "note": 69,
      "start": 80.6459,
      "duration": 0.0413,
      "velocity": 124,
      "chip": "ym2612"
    },
    {
      "channel": 3,
      "note": 89,
      "start": 80.6978,
      "duration": 0.0302,
      "velocity": 124,
      "chip": "ym2612"
    },
    {
      "channel": 0,
      "note": 74,
      "start": 80.7003,
      "duration": 0.0443,
      "velocity": 124,
      "chip": "ym2612"
    },
    {
      "channel": 0,
      "note": 78,
      "start": 80.7646,
      "duration": 0.08,
      "velocity": 124,
      "chip": "ym2612"
    },
    {
      "channel": 3,
      "note": 87,
      "start": 80.8644,
      "duration": 0.0636,
      "velocity": 124,
      "chip": "ym2612"
    },
    {
      "channel": 0,
      "note": 79,
      "start": 80.8674,
      "duration": 0.0771,
      "velocity": 124,
      "chip": "ym2612"
    },
    {
      "channel": 0,
      "note": 78,
      "start": 80.9646,
      "duration": 0.08,
      "velocity": 124,
      "chip": "ym2612"
    },
    {
      "channel": 3,
      "note": 89,
      "start": 81.0808,
      "duration": 0.0637,
      "velocity": 124,
      "chip": "ym2612"
    },
    {
      "channel": 1,
      "note": 62,
      "start": 81.0841,
      "duration": 0.1772,
      "velocity": 95,
      "chip": "ym2612"
    },
    {
      "channel": 0,
      "note": 74,
      "start": 81.0865,
      "duration": 0.0747,
      "velocity": 124,
      "chip": "ym2612"
    },
    {
      "channel": 0,
      "note": 69,
      "start": 81.1814,
      "duration": 0.0798,
      "velocity": 124,
      "chip": "ym2612"
    },
    {
      "channel": 3,
      "note": 87,
      "start": 81.2842,
      "duration": 0.031,
      "velocity": 124,
      "chip": "ym2612"
    },
    {
      "channel": 1,
      "note": 64,
      "start": 81.287,
      "duration": 0.0727,
      "velocity": 95,
      "chip": "ym2612"
    },
    {
      "channel": 0,
      "note": 71,
      "start": 81.3338,
      "duration": 0.0332,
      "velocity": 124,
      "chip": "ym2612"
    },
    {
      "channel": 3,
      "note": 89,
      "start": 81.3842,
      "duration": 0.0284,
      "velocity": 124,
      "chip": "ym2612"
    },
    {
      "channel": 1,
      "note": 64,
      "start": 81.3876,
      "duration": 0.1237,
      "velocity": 95,
      "chip": "ym2612"
    },
    {
      "channel": 0,
      "note": 76,
      "start": 81.3898,
      "duration": 0.0379,
      "velocity": 124,
      "chip": "ym2612"
    },
    {
      "channel": 0,
      "note": 80,
      "start": 81.4477,
      "duration": 0.0801,
      "velocity": 124,
      "chip": "ym2612"
    },
    {
      "channel": 3,
      "note": 87,
      "start": 81.5477,
      "duration": 0.0636,
      "velocity": 124,
      "chip": "ym2612"
    },
    {
      "channel": 1,
      "note": 64,
      "start": 81.5503,
      "duration": 0.1441,
      "velocity": 95,
      "chip": "ym2612"
    },
    {
      "channel": 0,
      "note": 81,
      "start": 81.5529,
      "duration": 0.0415,
      "velocity": 124,
      "chip": "ym2612"
    },
    {
      "channel": 0,
      "note": 83,
      "start": 81.6479,
      "duration": 0.0799,
      "velocity": 124,
      "chip": "ym2612"
    },
    {
      "channel": 3,
      "note": 89,
      "start": 81.7475,
      "duration": 0.0805,
      "velocity": 124,
      "chip": "ym2612"
    },
    {
      "channel": 1,
      "note": 64,
      "start": 81.75,
      "duration": 0.1612,
      "velocity": 95,
      "chip": "ym2612"
    },
    {
      "channel": 0,
      "note": 88,
      "start": 81.7525,
      "duration": 0.092,
      "velocity": 124,
      "chip": "ym2612"
    },
    {
      "channel": 0,
      "note": 92,
      "start": 81.8643,
      "duration": 0.0801,
      "velocity": 124,
      "chip": "ym2612"
    },
    {
      "channel": 3,
      "note": 87,
      "start": 81.9643,
      "duration": 0.0327,
      "velocity": 124,
      "chip": "ym2612"
    },
    {
      "channel": 1,
      "note": 64,
      "start": 81.9668,
      "duration": 0.0674,
      "velocity": 95,
      "chip": "ym2612"
    },
    {
      "channel": 0,
      "note": 93,
      "start": 81.9697,
      "duration": 0.0789,
      "velocity": 124,
      "chip": "ym2612"
    },
    {
      "channel": 3,
      "note": 89,
      "start": 82.058,
      "duration": 0.037,
      "velocity": 124,
      "chip": "ym2612"
    },
    {
      "channel": 1,
      "note": 64,
      "start": 82.0615,
      "duration": 0.1167,
      "velocity": 95,
      "chip": "ym2612"
    },
    {
      "channel": 0,
      "note": 92,
      "start": 82.0641,
      "duration": 0.0475,
      "velocity": 124,
      "chip": "ym2612"
    },
    {
      "channel": 0,
      "note": 88,
      "start": 82.1321,
      "duration": 0.0795,
      "velocity": 124,
      "chip": "ym2612"
    },
    {
      "channel": 3,
      "note": 87,
      "start": 82.2314,
      "duration": 0.0637,
      "velocity": 124,
      "chip": "ym2612"
    },
    {
      "channel": 1,
      "note": 64,
      "start": 82.234,
      "duration": 0.1443,
      "velocity": 95,
      "chip": "ym2612"
    },
    {
      "channel": 0,
      "note": 85,
      "start": 82.2366,
      "duration": 0.0583,
      "velocity": 124,
      "chip": "ym2612"
    },
    {
      "channel": 0,
      "note": 83,
      "start": 82.3317,
      "duration": 0.0799,
      "velocity": 124,
      "chip": "ym2612"
    },
    {
      "channel": 3,
      "note": 89,
      "start": 82.4312,
      "duration": 0.0805,
      "velocity": 124,
      "chip": "ym2612"
    },
    {
      "channel": 1,
      "note": 64,
      "start": 82.4339,
      "duration": 0.1277,
      "velocity": 95,
      "chip": "ym2612"
    },
    {
      "channel": 0,
      "note": 81,
      "start": 82.4365,
      "duration": 0.0918,
      "velocity": 124,
      "chip": "ym2612"
    },
    {
      "channel": 3,
      "note": 87,
      "start": 82.6512,
      "duration": 0.0357,
      "velocity": 124,
      "chip": "ym2612"
    },
    {
      "channel": 1,
      "note": 54,
      "start": 82.6539,
      "duration": 0.0259,
      "velocity": 95,
      "chip": "ym2612"
    },
    {
      "channel": 0,
      "note": 78,
      "start": 82.6569,
      "duration": 0.0228,
      "velocity": 127,
      "chip": "ym2612"
    },
    {
      "channel": 4,
      "note": 54,
      "start": 82.6599,
      "duration": 0.02,
      "velocity": 113,
      "chip": "ym2612"
    },
    {
      "channel": 2,
      "note": 61,
      "start": 82.6627,
      "duration": 0.0172,
      "velocity": 113,
      "chip": "ym2612"
    },
    {
      "channel": 4,
      "note": 66,
      "start": 82.7043,
      "duration": 0.028,
      "velocity": 113,
      "chip": "ym2612"
    },
    {
      "channel": 2,
      "note": 73,
      "start": 82.7082,
      "duration": 0.0242,
      "velocity": 113,
      "chip": "ym2612"
    },
    {
      "channel": 3,
      "note": 89,
      "start": 82.7491,
      "duration": 0.0373,
      "velocity": 124,
      "chip": "ym2612"
    },
    {
      "channel": 1,
      "note": 54,
      "start": 82.7513,
      "duration": 0.0275,
      "velocity": 95,
      "chip": "ym2612"
    },
    {
      "channel": 0,
      "note": 78,
      "start": 82.7545,
      "duration": 0.0243,
      "velocity": 127,
      "chip": "ym2612"
    },
    {
      "channel": 4,
      "note": 61,
      "start": 82.7568,
      "duration": 0.0221,
      "velocity": 113,
      "chip": "ym2612"
    },
    {
      "channel": 4,
      "note": 54,
      "start": 82.8159,
      "duration": 0.0465,
      "velocity": 113,
      "chip": "ym2612"
    },
    {
      "channel": 2,
      "note": 61,
      "start": 82.8185,
      "duration": 0.044,
      "velocity": 113,
      "chip": "ym2612"
    },
    {
      "channel": 3,
      "note": 87,
      "start": 82.9154,
      "duration": 0.0636,
      "velocity": 124,
      "chip": "ym2612"
    },
    {
      "channel": 1,
      "note": 54,
      "start": 82.9183,
      "duration": 0.0441,
      "velocity": 95,
      "chip": "ym2612"
    },
    {
      "channel": 0,
      "note": 78,
      "start": 82.9207,
      "duration": 0.0416,
      "velocity": 127,
      "chip": "ym2612"
    },
    {
      "channel": 4,
      "note": 59,
      "start": 82.9236,
      "duration": 0.0221,
      "velocity": 113,
      "chip": "ym2612"
    },
    {
      "channel": 2,
      "note": 66,
      "start": 82.9262,
      "duration": 0.0197,
      "velocity": 113,
      "chip": "ym2612"
    },
    {
      "channel": 3,
      "note": 89,
      "start": 83.1152,
      "duration": 0.0806,
      "velocity": 124,
      "chip": "ym2612"
    },
    {
      "channel": 1,
      "note": 54,
      "start": 83.1178,
      "duration": 0.0612,
      "velocity": 95,
      "chip": "ym2612"
    },
    {
      "channel": 0,
      "note": 78,
      "start": 83.1202,
      "duration": 0.0754,
      "velocity": 127,
      "chip": "ym2612"
    },
    {
      "channel": 4,
      "note": 61,
      "start": 83.1231,
      "duration": 0.0728,
      "velocity": 113,
      "chip": "ym2612"
    },
    {
      "channel": 2,
      "note": 66,
      "start": 83.1261,
      "duration": 0.07,
      "velocity": 113,
      "chip": "ym2612"
    },
    {
      "channel": 3,
      "note": 87,
      "start": 83.3321,
      "duration": 0.0373,
      "velocity": 124,
      "chip": "ym2612"
    },
    {
      "channel": 1,
      "note": 54,
      "start": 83.3348,
      "duration": 0.0345,
      "velocity": 95,
      "chip": "ym2612"
    },
    {
      "channel": 0,
      "note": 78,
      "start": 83.3372,
      "duration": 0.0321,
      "velocity": 127,
      "chip": "ym2612"
    },
    {
      "channel": 4,
      "note": 54,
      "start": 83.34,
      "duration": 0.0214,
      "velocity": 113,
      "chip": "ym2612"
    },
    {
      "channel": 2,
      "note": 61,
      "start": 83.3427,
      "duration": 0.0188,
      "velocity": 113,
      "chip": "ym2612"
    },
    {
      "channel": 3,
      "note": 89,
      "start": 83.429,
      "duration": 0.0382,
      "velocity": 124,
      "chip": "ym2612"
    },
    {
      "channel": 1,
      "note": 54,
      "start": 83.4316,
      "duration": 0.0356,
      "velocity": 95,
      "chip": "ym2612"
    },
    {
      "channel": 0,
      "note": 78,
      "start": 83.4336,
      "duration": 0.0334,
      "velocity": 127,
      "chip": "ym2612"
    },
    {
      "channel": 4,
      "note": 66,
      "start": 83.4363,
      "duration": 0.0166,
      "velocity": 113,
      "chip": "ym2612"
    },
    {
      "channel": 2,
      "note": 73,
      "start": 83.44,
      "duration": 0.0131,
      "velocity": 113,
      "chip": "ym2612"
    },
    {
      "channel": 3,
      "note": 87,
      "start": 83.6003,
      "duration": 0.0635,
      "velocity": 124,
      "chip": "ym2612"
    },
    {
      "channel": 0,
      "note": 78,
      "start": 83.603,
      "duration": 0.0274,
      "velocity": 127,
      "chip": "ym2612"
    },
    {
      "channel": 4,
      "note": 54,
      "start": 83.6058,
      "duration": 0.0249,
      "velocity": 113,
      "chip": "ym2612"
    },
    {
      "channel": 2,
      "note": 61,
      "start": 83.6087,
      "duration": 0.0386,
      "velocity": 113,
      "chip": "ym2612"
    },
    {
      "channel": 3,
      "note": 89,
      "start": 83.8001,
      "duration": 0.0803,
      "velocity": 124,
      "chip": "ym2612"
    },
    {
      "channel": 0,
      "note": 85,
      "start": 83.803,
      "duration": 0.1941,
      "velocity": 127,
      "chip": "ym2612"
    },
    {
      "channel": 4,
      "note": 61,
      "start": 83.8062,
      "duration": 0.0744,
      "velocity": 113,
      "chip": "ym2612"
    },
    {
      "channel": 2,
      "note": 66,
      "start": 83.8089,
      "duration": 0.0719,
      "velocity": 113,
      "chip": "ym2612"
    },
    {
      "channel": 3,
      "note": 87,
      "start": 84.0201,
      "duration": 0.0347,
      "velocity": 124,
      "chip": "ym2612"
    },
    {
      "channel": 1,
      "note": 54,
      "start": 84.023,
      "duration": 0.0247,
      "velocity": 95,
      "chip": "ym2612"
    },
    {
      "channel": 4,
      "note": 54,
      "start": 84.0268,
      "duration": 0.0148,
      "velocity": 113,
      "chip": "ym2612"
    },
    {
      "channel": 2,
      "note": 61,
      "start": 84.0298,
      "duration": 0.018,
      "velocity": 113,
      "chip": "ym2612"
    },
    {
      "channel": 3,
      "note": 89,
      "start": 84.1163,
      "duration": 0.0294,
      "velocity": 124,
      "chip": "ym2612"
    },
    {
      "channel": 1,
      "note": 54,
      "start": 84.1185,
      "duration": 0.02,
      "velocity": 95,
      "chip": "ym2612"
    },
    {
      "channel": 0,
      "note": 85,
      "start": 84.1221,
      "duration": 0.9248,
      "velocity": 127,
      "chip": "ym2612"
    },
    {
      "channel": 4,
      "note": 59,
      "start": 84.1257,
      "duration": 0.0129,
      "velocity": 113,
      "chip": "ym2612"
    },
    {
      "channel": 2,
      "note": 66,
      "start": 84.1283,
      "duration": 0.0176,
      "velocity": 113,
      "chip": "ym2612"
    },
    {
      "channel": 3,
      "note": 87,
      "start": 84.283,
      "duration": 0.0636,
      "velocity": 124,
      "chip": "ym2612"
    },
    {
      "channel": 1,
      "note": 54,
      "start": 84.2856,
      "duration": 0.0443,
      "velocity": 95,
      "chip": "ym2612"
    },
    {
      "channel": 4,
      "note": 54,
      "start": 84.2888,
      "duration": 0.0412,
      "velocity": 113,
      "chip": "ym2612"
    },
    {
      "channel": 2,
      "note": 61,
      "start": 84.2915,
      "duration": 0.0387,
      "velocity": 113,
      "chip": "ym2612"
    },
    {
      "channel": 3,
      "note": 89,
      "start": 84.4828,
      "duration": 0.0637,
      "velocity": 124,
      "chip": "ym2612"
    },
    {
      "channel": 1,
      "note": 54,
      "start": 84.4854,
      "duration": 0.0445,
      "velocity": 95,
      "chip": "ym2612"
    },
    {
      "channel": 4,
      "note": 61,
      "start": 84.4883,
      "duration": 0.0584,
      "velocity": 113,
      "chip": "ym2612"
    },
    {
      "channel": 2,
      "note": 66,
      "start": 84.4911,
      "duration": 0.039,
      "velocity": 113,
      "chip": "ym2612"
    },
    {
      "channel": 3,
      "note": 87,
      "start": 84.6997,
      "duration": 0.0344,
      "velocity": 124,
      "chip": "ym2612"
    },
    {
      "channel": 1,
      "note": 54,
      "start": 84.7024,
      "duration": 0.0316,
      "velocity": 95,
      "chip": "ym2612"
    },
    {
      "channel": 4,
      "note": 54,
      "start": 84.7053,
      "duration": 0.0288,
      "velocity": 113,
      "chip": "ym2612"
    },
    {
      "channel": 2,
      "note": 61,
      "start": 84.708,
      "duration": 0.0263,
      "velocity": 113,
      "chip": "ym2612"
    },
    {
      "channel": 3,
      "note": 89,
      "start": 84.795,
      "duration": 0.03,
      "velocity": 124,
      "chip": "ym2612"
    },
    {
      "channel": 1,
      "note": 54,
      "start": 84.7976,
      "duration": 0.0273,
      "velocity": 95,
      "chip": "ym2612"
    },
    {
      "channel": 4,
      "note": 66,
      "start": 84.8017,
      "duration": 0.0171,
      "velocity": 113,
      "chip": "ym2612"
    },
    {
      "channel": 2,
      "note": 73,
      "start": 84.8043,
      "duration": 0.0208,
      "velocity": 113,
      "chip": "ym2612"
    },
    {
      "channel": 3,
      "note": 87,
      "start": 84.9668,
      "duration": 0.0635,
      "velocity": 124,
      "chip": "ym2612"
    },
    {
      "channel": 4,
      "note": 54,
      "start": 84.9699,
      "duration": 0.0439,
      "velocity": 113,
      "chip": "ym2612"
    },
    {
      "channel": 2,
      "note": 61,
      "start": 84.9726,
      "duration": 0.0413,
      "velocity": 113,
      "chip": "ym2612"
    },
    {
      "channel": 0,
      "note": 80,
      "start": 85.067,
      "duration": 0.0799,
      "velocity": 127,
      "chip": "ym2612"
    },
    {
      "channel": 3,
      "note": 89,
      "start": 85.1665,
      "duration": 0.0638,
      "velocity": 124,
      "chip": "ym2612"
    },
    {
      "channel": 0,
      "note": 74,
      "start": 85.1691,
      "duration": 0.0779,
      "velocity": 127,
      "chip": "ym2612"
    },
    {
      "channel": 4,
      "note": 61,
      "start": 85.172,
      "duration": 0.0586,
      "velocity": 113,
      "chip": "ym2612"
    },
    {
      "channel": 2,
      "note": 66,
      "start": 85.1751,
      "duration": 0.0555,
      "velocity": 113,
      "chip": "ym2612"
    },
    {
      "channel": 0,
      "note": 73,
      "start": 85.267,
      "duration": 0.2324,
      "velocity": 127,
      "chip": "ym2612"
    },
    {
      "channel": 3,
      "note": 87,
      "start": 85.3865,
      "duration": 0.0316,
      "velocity": 124,
      "chip": "ym2612"
    },
    {
      "channel": 1,
      "note": 54,
      "start": 85.3897,
      "duration": 0.0209,
      "velocity": 95,
      "chip": "ym2612"
    },
    {
      "channel": 3,
      "note": 89,
      "start": 85.4785,
      "duration": 0.0281,
      "velocity": 124,
      "chip": "ym2612"
    },
    {
      "channel": 1,
      "note": 54,
      "start": 85.4809,
      "duration": 0.0185,
      "velocity": 95,
      "chip": "ym2612"
    },
    {
      "channel": 0,
      "note": 78,
      "start": 85.534,
      "duration": 0.0962,
      "velocity": 127,
      "chip": "ym2612"
    },
    {
      "channel": 3,
      "note": 87,
      "start": 85.65,
      "duration": 0.0637,
      "velocity": 124,
      "chip": "ym2612"
    },
    {
      "channel": 1,
      "note": 54,
      "start": 85.6526,
      "duration": 0.0444,
      "velocity": 95,
      "chip": "ym2612"
    },
    {
      "channel": 0,
      "note": 73,
      "start": 85.6549,
      "duration": 0.0753,
      "velocity": 127,
      "chip": "ym2612"
    },
    {
      "channel": 0,
      "note": 71,
      "start": 85.7503,
      "duration": 0.3696,
      "velocity": 127,
      "chip": "ym2612"
    },
    {
      "channel": 3,
      "note": 89,
      "start": 85.8499,
      "duration": 0.0638,
      "velocity": 124,
      "chip": "ym2612"
    },
    {
      "channel": 1,
      "note": 54,
      "start": 85.8524,
      "duration": 0.0445,
      "velocity": 95,
      "chip": "ym2612"
    },
    {
      "channel": 3,
      "note": 87,
      "start": 86.0666,
      "duration": 0.0318,
      "velocity": 124,
      "chip": "ym2612"
    },
    {
      "channel": 1,
      "note": 54,
      "start": 86.0694,
      "duration": 0.029,
      "velocity": 95,
      "chip": "ym2612"
    },
    {
      "channel": 3,
      "note": 89,
      "start": 86.1598,
      "duration": 0.0289,
      "velocity": 124,
      "chip": "ym2612"
    },
    {
      "channel": 1,
      "note": 54,
      "start": 86.1624,
      "duration": 0.0354,
      "velocity": 95,
      "chip": "ym2612"
    },
    {
      "channel": 0,
      "note": 76,
      "start": 86.1647,
      "duration": 0.024,
      "velocity": 127,
      "chip": "ym2612"
    },
    {
      "channel": 0,
      "note": 71,
      "start": 86.2176,
      "duration": 0.0966,
      "velocity": 127,
      "chip": "ym2612"
    },
    {
      "channel": 3,
      "note": 87,
      "start": 86.334,
      "duration": 0.0636,
      "velocity": 124,
      "chip": "ym2612"
    },
    {
      "channel": 0,
      "note": 69,
      "start": 86.337,
      "duration": 0.394,
      "velocity": 127,
      "chip": "ym2612"
    },
    {
      "channel": 3,
      "note": 89,
      "start": 86.534,
      "duration": 0.0637,
      "velocity": 124,
      "chip": "ym2612"
    },
    {
      "channel": 3,
      "note": 87,
      "start": 86.7539,
      "duration": 0.0346,
      "velocity": 124,
      "chip": "ym2612"
    },
    {
      "channel": 1,
      "note": 54,
      "start": 86.7568,
      "duration": 0.0237,
      "velocity": 95,
      "chip": "ym2612"
    },
    {
      "channel": 0,
      "note": 74,
      "start": 86.7595,
      "duration": 0.0289,
      "velocity": 127,
      "chip": "ym2612"
    },
    {
      "channel": 0,
      "note": 69,
      "start": 86.807,
      "duration": 0.0332,
      "velocity": 127,
      "chip": "ym2612"
    },
    {
      "channel": 3,
      "note": 89,
      "start": 86.851,
      "duration": 0.0278,
      "velocity": 124,
      "chip": "ym2612"
    },
    {
      "channel": 1,
      "note": 54,
      "start": 86.8533,
      "duration": 0.0182,
      "velocity": 95,
      "chip": "ym2612"
    },
    {
      "channel": 0,
      "note": 68,
      "start": 86.8556,
      "duration": 0.3446,
      "velocity": 127,
      "chip": "ym2612"
    },
    {
      "channel": 3,
      "note": 87,
      "start": 87.02,
      "duration": 0.0637,
      "velocity": 124,
      "chip": "ym2612"
    },
    {
      "channel": 1,
      "note": 54,
      "start": 87.0225,
      "duration": 0.0444,
      "velocity": 95,
      "chip": "ym2612"
    },
    {
      "channel": 3,
      "note": 89,
      "start": 87.2199,
      "duration": 0.0638,
      "velocity": 124,
      "chip": "ym2612"
    },
    {
      "channel": 1,
      "note": 54,
      "start": 87.223,
      "duration": 0.0605,
      "velocity": 95,
      "chip": "ym2612"
    },
    {
      "channel": 0,
      "note": 73,
      "start": 87.2257,
      "duration": 0.0745,
      "velocity": 127,
      "chip": "ym2612"
    },
    {
      "channel": 0,
      "note": 68,
      "start": 87.32,
      "duration": 0.0969,
      "velocity": 127,
      "chip": "ym2612"
    },
    {
      "channel": 3,
      "note": 87,
      "start": 87.4368,
      "duration": 0.0331,
      "velocity": 124,
      "chip": "ym2612"
    },
    {
      "channel": 1,
      "note": 54,
      "start": 87.4395,
      "duration": 0.0234,
      "velocity": 95,
      "chip": "ym2612"
    },
    {
      "channel": 0,
      "note": 66,
      "start": 87.4422,
      "duration": 0.0778,
      "velocity": 127,
      "chip": "ym2612"
    },
    {
      "channel": 3,
      "note": 89,
      "start": 87.5301,
      "duration": 0.0292,
      "velocity": 124,
      "chip": "ym2612"
    },
    {
      "channel": 1,
      "note": 54,
      "start": 87.5339,
      "duration": 0.0254,
      "velocity": 95,
      "chip": "ym2612"
    },
    {
      "channel": 0,
      "note": 71,
      "start": 87.5363,
      "duration": 0.0228,
      "velocity": 127,
      "chip": "ym2612"
    },
    {
      "channel": 0,
      "note": 66,
      "start": 87.5879,
      "duration": 0.0963,
      "velocity": 127,
      "chip": "ym2612"
    },
    {
      "channel": 3,
      "note": 87,
      "start": 87.7041,
      "duration": 0.0635,
      "velocity": 124,
      "chip": "ym2612"
    },
    {
      "channel": 0,
      "note": 64,
      "start": 87.707,
      "duration": 0.1772,
      "velocity": 127,
      "chip": "ym2612"
    },
    {
      "channel": 3,
      "note": 89,
      "start": 87.9038,
      "duration": 0.0637,
      "velocity": 124,
      "chip": "ym2612"
    },
    {
      "channel": 0,
      "note": 69,
      "start": 87.9067,
      "duration": 0.0775,
      "velocity": 127,
      "chip": "ym2612"
    },
    {
      "channel": 0,
      "note": 64,
      "start": 88.004,
      "duration": 0.0802,
      "velocity": 127,
      "chip": "ym2612"
    },
    {
      "channel": 3,
      "note": 87,
      "start": 88.1238,
      "duration": 0.0362,
      "velocity": 124,
      "chip": "ym2612"
    },
    {
      "channel": 1,
      "note": 54,
      "start": 88.1267,
      "duration": 0.0259,
      "velocity": 95,
      "chip": "ym2612"
    },
    {
      "channel": 0,
      "note": 66,
      "start": 88.1294,
      "duration": 0.0306,
      "velocity": 127,
      "chip": "ym2612"
    },
    {
      "channel": 4,
      "note": 66,
      "start": 88.1322,
      "duration": 0.0205,
      "velocity": 113,
      "chip": "ym2612"
    },
    {
      "channel": 2,
      "note": 73,
      "start": 88.1351,
      "duration": 0.0103,
      "velocity": 113,
      "chip": "ym2612"
    },
    {
      "channel": 4,
      "note": 78,
      "start": 88.1784,
      "duration": 0.0354,
      "velocity": 113,
      "chip": "ym2612"
    },
    {
      "channel": 2,
      "note": 85,
      "start": 88.182,
      "duration": 0.0166,
      "velocity": 113,
      "chip": "ym2612"
    },
    {
      "channel": 3,
      "note": 89,
      "start": 88.2233,
      "duration": 0.0294,
      "velocity": 124,
      "chip": "ym2612"
    },
    {
      "channel": 1,
      "note": 54,
      "start": 88.2256,
      "duration": 0.0205,
      "velocity": 95,
      "chip": "ym2612"
    },
    {
      "channel": 0,
      "note": 66,
      "start": 88.2288,
      "duration": 0.0172,
      "velocity": 127,
      "chip": "ym2612"
    },
    {
      "channel": 4,
      "note": 73,
      "start": 88.2314,
      "duration": 0.0547,
      "velocity": 113,
      "chip": "ym2612"
    },
    {
      "channel": 2,
      "note": 66,
      "start": 88.2735,
      "duration": 0.0461,
      "velocity": 113,
      "chip": "ym2612"
    },
    {
      "channel": 3,
      "note": 87,
      "start": 88.389,
      "duration": 0.0637,
      "velocity": 124,
      "chip": "ym2612"
    },
    {
      "channel": 1,
      "note": 54,
      "start": 88.3917,
      "duration": 0.0445,
      "velocity": 95,
      "chip": "ym2612"
    },
    {
      "channel": 0,
      "note": 66,
      "start": 88.394,
      "duration": 0.042,
      "velocity": 127,
      "chip": "ym2612"
    },
    {
      "channel": 4,
      "note": 71,
      "start": 88.3968,
      "duration": 0.0561,
      "velocity": 113,
      "chip": "ym2612"
    },
    {
      "channel": 2,
      "note": 78,
      "start": 88.3995,
      "duration": 0.0536,
      "velocity": 113,
      "chip": "ym2612"
    },
    {
      "channel": 3,
      "note": 89,
      "start": 88.5889,
      "duration": 0.0639,
      "velocity": 124,
      "chip": "ym2612"
    },
    {
      "channel": 1,
      "note": 54,
      "start": 88.5915,
      "duration": 0.0445,
      "velocity": 95,
      "chip": "ym2612"
    },
    {
      "channel": 0,
      "note": 66,
      "start": 88.5939,
      "duration": 0.0587,
      "velocity": 127,
      "chip": "ym2612"
    },
    {
      "channel": 4,
      "note": 73,
      "start": 88.5966,
      "duration": 0.0563,
      "velocity": 113,
      "chip": "ym2612"
    },
    {
      "channel": 2,
      "note": 78,
      "start": 88.5993,
      "duration": 0.0538,
      "velocity": 113,
      "chip": "ym2612"
    },
    {
      "channel": 3,
      "note": 87,
      "start": 88.789,
      "duration": 0.0435,
      "velocity": 124,
      "chip": "ym2612"
    },
    {
      "channel": 1,
      "note": 54,
      "start": 88.7916,
      "duration": 0.034,
      "velocity": 95,
      "chip": "ym2612"
    },
    {
      "channel": 0,
      "note": 66,
      "start": 88.7944,
      "duration": 0.038,
      "velocity": 127,
      "chip": "ym2612"
    },
    {
      "channel": 4,
      "note": 66,
      "start": 88.7972,
      "duration": 0.0285,
      "velocity": 113,
      "chip": "ym2612"
    },
    {
      "channel": 2,
      "note": 73,
      "start": 88.8,
      "duration": 0.0326,
      "velocity": 113,
      "chip": "ym2612"
    },
    {
      "channel": 3,
      "note": 89,
      "start": 88.8927,
      "duration": 0.0307,
      "velocity": 124,
      "chip": "ym2612"
    },
    {
      "channel": 1,
      "note": 54,
      "start": 88.8966,
      "duration": 0.0266,
      "velocity": 95,
      "chip": "ym2612"
    },
    {
      "channel": 0,
      "note": 66,
      "start": 88.8989,
      "duration": 0.0242,
      "velocity": 127,
      "chip": "ym2612"
    },
    {
      "channel": 4,
      "note": 78,
      "start": 88.9018,
      "duration": 0.0149,
      "velocity": 113,
      "chip": "ym2612"
    },
    {
      "channel": 2,
      "note": 85,
      "start": 88.9045,
      "duration": 0.019,
      "velocity": 113,
      "chip": "ym2612"
    },
    {
      "channel": 3,
      "note": 87,
      "start": 89.0562,
      "duration": 0.0803,
      "velocity": 124,
      "chip": "ym2612"
    },
    {
      "channel": 0,
      "note": 66,
      "start": 89.0589,
      "duration": 0.0941,
      "velocity": 127,
      "chip": "ym2612"
    },
    {
      "channel": 4,
      "note": 66,
      "start": 89.0618,
      "duration": 0.0581,
      "velocity": 113,
      "chip": "ym2612"
    },
    {
      "channel": 2,
      "note": 73,
      "start": 89.0644,
      "duration": 0.0556,
      "velocity": 113,
      "chip": "ym2612"
    },
    {
      "channel": 3,
      "note": 89,
      "start": 89.2727,
      "duration": 0.0638,
      "velocity": 124,
      "chip": "ym2612"
    },
    {
      "channel": 0,
      "note": 73,
      "start": 89.2756,
      "duration": 0.1275,
      "velocity": 127,
      "chip": "ym2612"
    },
    {
      "channel": 4,
      "note": 73,
      "start": 89.2784,
      "duration": 0.0583,
      "velocity": 113,
      "chip": "ym2612"
    },
    {
      "channel": 2,
      "note": 78,
      "start": 89.2811,
      "duration": 0.0558,
      "velocity": 113,
      "chip": "ym2612"
    },
    {
      "channel": 3,
      "note": 87,
      "start": 89.4761,
      "duration": 0.0426,
      "velocity": 124,
      "chip": "ym2612"
    },
    {
      "channel": 1,
      "note": 54,
      "start": 89.4789,
      "duration": 0.0325,
      "velocity": 95,
      "chip": "ym2612"
    },
    {
      "channel": 4,
      "note": 66,
      "start": 89.4822,
      "duration": 0.0293,
      "velocity": 113,
      "chip": "ym2612"
    },
    {
      "channel": 2,
      "note": 73,
      "start": 89.485,
      "duration": 0.0266,
      "velocity": 113,
      "chip": "ym2612"
    },
    {
      "channel": 3,
      "note": 89,
      "start": 89.5795,
      "duration": 0.031,
      "velocity": 124,
      "chip": "ym2612"
    },
    {
      "channel": 1,
      "note": 54,
      "start": 89.5818,
      "duration": 0.0212,
      "velocity": 95,
      "chip": "ym2612"
    },
    {
      "channel": 0,
      "note": 73,
      "start": 89.5841,
      "duration": 0.666,
      "velocity": 127,
      "chip": "ym2612"
    },
    {
      "channel": 4,
      "note": 71,
      "start": 89.5876,
      "duration": 0.0155,
      "velocity": 113,
      "chip": "ym2612"
    },
    {
      "channel": 2,
      "note": 78,
      "start": 89.5903,
      "duration": 0.013,
      "velocity": 113,
      "chip": "ym2612"
    },
    {
      "channel": 3,
      "note": 87,
      "start": 89.7417,
      "duration": 0.0804,
      "velocity": 124,
      "chip": "ym2612"
    },
    {
      "channel": 1,
      "note": 54,
      "start": 89.7442,
      "duration": 0.0611,
      "velocity": 95,
      "chip": "ym2612"
    },
    {
      "channel": 4,
      "note": 66,
      "start": 89.747,
      "duration": 0.0585,
      "velocity": 113,
      "chip": "ym2612"
    },
    {
      "channel": 2,
      "note": 73,
      "start": 89.7497,
      "duration": 0.056,
      "velocity": 113,
      "chip": "ym2612"
    },
    {
      "channel": 3,
      "note": 89,
      "start": 89.9583,
      "duration": 0.0637,
      "velocity": 124,
      "chip": "ym2612"
    },
    {
      "channel": 1,
      "note": 54,
      "start": 89.9608,
      "duration": 0.0445,
      "velocity": 95,
      "chip": "ym2612"
    },
    {
      "channel": 4,
      "note": 73,
      "start": 89.9637,
      "duration": 0.0583,
      "velocity": 113,
      "chip": "ym2612"
    },
    {
      "channel": 2,
      "note": 78,
      "start": 89.9669,
      "duration": 0.0386,
      "velocity": 113,
      "chip": "ym2612"
    },
    {
      "channel": 3,
      "note": 87,
      "start": 90.1585,
      "duration": 0.0412,
      "velocity": 124,
      "chip": "ym2612"
    },
    {
      "channel": 1,
      "note": 54,
      "start": 90.161,
      "duration": 0.0312,
      "velocity": 95,
      "chip": "ym2612"
    },
    {
      "channel": 4,
      "note": 66,
      "start": 90.1639,
      "duration": 0.0359,
      "velocity": 113,
      "chip": "ym2612"
    },
    {
      "channel": 2,
      "note": 73,
      "start": 90.1665,
      "duration": 0.0334,
      "velocity": 113,
      "chip": "ym2612"
    },
    {
      "channel": 3,
      "note": 89,
      "start": 90.2615,
      "duration": 0.0297,
      "velocity": 124,
      "chip": "ym2612"
    },
    {
      "channel": 1,
      "note": 54,
      "start": 90.2642,
      "duration": 0.0268,
      "velocity": 95,
      "chip": "ym2612"
    },
    {
      "channel": 0,
      "note": 62,
      "start": 90.2668,
      "duration": 0.0241,
      "velocity": 127,
      "chip": "ym2612"
    },
    {
      "channel": 4,
      "note": 78,
      "start": 90.2697,
      "duration": 0.0139,
      "velocity": 113,
      "chip": "ym2612"
    },
    {
      "channel": 2,
      "note": 85,
      "start": 90.2733,
      "duration": 0.018,
      "velocity": 113,
      "chip": "ym2612"
    },
    {
      "channel": 0,
      "note": 68,
      "start": 90.3253,
      "duration": 0.08,
      "velocity": 127,
      "chip": "ym2612"
    },
    {
      "channel": 3,
      "note": 87,
      "start": 90.4252,
      "duration": 0.0801,
      "velocity": 124,
      "chip": "ym2612"
    },
    {
      "channel": 0,
      "note": 69,
      "start": 90.4284,
      "duration": 0.1768,
      "velocity": 127,
      "chip": "ym2612"
    },
    {
      "channel": 4,
      "note": 66,
      "start": 90.4316,
      "duration": 0.0405,
      "velocity": 113,
      "chip": "ym2612"
    },
    {
      "channel": 2,
      "note": 73,
      "start": 90.4343,
      "duration": 0.038,
      "velocity": 113,
      "chip": "ym2612"
    },
    {
      "channel": 3,
      "note": 89,
      "start": 90.6417,
      "duration": 0.0637,
      "velocity": 124,
      "chip": "ym2612"
    },
    {
      "channel": 0,
      "note": 64,
      "start": 90.6445,
      "duration": 0.0776,
      "velocity": 127,
      "chip": "ym2612"
    },
    {
      "channel": 4,
      "note": 73,
      "start": 90.6473,
      "duration": 0.0583,
      "velocity": 113,
      "chip": "ym2612"
    },
    {
      "channel": 2,
      "note": 78,
      "start": 90.6501,
      "duration": 0.0556,
      "velocity": 113,
      "chip": "ym2612"
    },
    {
      "channel": 0,
      "note": 66,
      "start": 90.7418,
      "duration": 0.0802,
      "velocity": 127,
      "chip": "ym2612"
    },
    {
      "channel": 3,
      "note": 87,
      "start": 90.8449,
      "duration": 0.0413,
      "velocity": 124,
      "chip": "ym2612"
    },
    {
      "channel": 1,
      "note": 54,
      "start": 90.8478,
      "duration": 0.0236,
      "velocity": 95,
      "chip": "ym2612"
    },
    {
      "channel": 0,
      "note": 71,
      "start": 90.8504,
      "duration": 0.087,
      "velocity": 127,
      "chip": "ym2612"
    },
    {
      "channel": 3,
      "note": 89,
      "start": 90.9476,
      "duration": 0.0295,
      "velocity": 124,
      "chip": "ym2612"
    },
    {
      "channel": 1,
      "note": 54,
      "start": 90.9511,
      "duration": 0.0186,
      "velocity": 95,
      "chip": "ym2612"
    },
    {
      "channel": 0,
      "note": 66,
      "start": 90.9535,
      "duration": 0.0385,
      "velocity": 127,
      "chip": "ym2612"
    },
    {
      "channel": 0,
      "note": 68,
      "start": 91.0121,
      "duration": 0.0633,
      "velocity": 127,
      "chip": "ym2612"
    },
    {
      "channel": 3,
      "note": 87,
      "start": 91.1118,
      "duration": 0.0637,
      "velocity": 124,
      "chip": "ym2612"
    },
    {
      "channel": 1,
      "note": 54,
      "start": 91.1144,
      "duration": 0.0443,
      "velocity": 95,
      "chip": "ym2612"
    },
    {
      "channel": 0,
      "note": 73,
      "start": 91.1174,
      "duration": 0.1747,
      "velocity": 127,
      "chip": "ym2612"
    },
    {
      "channel": 3,
      "note": 89,
      "start": 91.3283,
      "duration": 0.0638,
      "velocity": 124,
      "chip": "ym2612"
    },
    {
      "channel": 1,
      "note": 54,
      "start": 91.3312,
      "duration": 0.0441,
      "velocity": 95,
      "chip": "ym2612"
    },
    {
      "channel": 0,
      "note": 68,
      "start": 91.3339,
      "duration": 0.0748,
      "velocity": 127,
      "chip": "ym2612"
    },
    {
      "channel": 0,
      "note": 73,
      "start": 91.4286,
      "duration": 0.0801,
      "velocity": 127,
      "chip": "ym2612"
    },
    {
      "channel": 3,
      "note": 87,
      "start": 91.5286,
      "duration": 0.0326,
      "velocity": 124,
      "chip": "ym2612"
    },
    {
      "channel": 1,
      "note": 54,
      "start": 91.5313,
      "duration": 0.0297,
      "velocity": 95,
      "chip": "ym2612"
    },
    {
      "channel": 0,
      "note": 74,
      "start": 91.534,
      "duration": 0.0843,
      "velocity": 127,
      "chip": "ym2612"
    },
    {
      "channel": 3,
      "note": 89,
      "start": 91.6293,
      "duration": 0.0285,
      "velocity": 124,
      "chip": "ym2612"
    },
    {
      "channel": 1,
      "note": 54,
      "start": 91.6318,
      "duration": 0.0427,
      "velocity": 95,
      "chip": "ym2612"
    },
    {
      "channel": 0,
      "note": 69,
      "start": 91.6341,
      "duration": 0.0403,
      "velocity": 127,
      "chip": "ym2612"
    },
    {
      "channel": 0,
      "note": 73,
      "start": 91.6944,
      "duration": 0.0801,
      "velocity": 127,
      "chip": "ym2612"
    },
    {
      "channel": 3,
      "note": 87,
      "start": 91.7944,
      "duration": 0.0635,
      "velocity": 124,
      "chip": "ym2612"
    },
    {
      "channel": 0,
      "note": 76,
      "start": 91.7972,
      "duration": 0.1939,
      "velocity": 127,
      "chip": "ym2612"
    },
    {
      "channel": 3,
      "note": 89,
      "start": 92.0108,
      "duration": 0.0637,
      "velocity": 124,
      "chip": "ym2612"
    },
    {
      "channel": 1,
      "note": 54,
      "start": 92.0137,
      "duration": 0.0441,
      "velocity": 95,
      "chip": "ym2612"
    },
    {
      "channel": 0,
      "note": 71,
      "start": 92.0167,
      "duration": 0.0744,
      "velocity": 127,
      "chip": "ym2612"
    },
    {
      "channel": 0,
      "note": 73,
      "start": 92.111,
      "duration": 0.0801,
      "velocity": 127,
      "chip": "ym2612"
    },
    {
      "channel": 3,
      "note": 87,
      "start": 92.2141,
      "duration": 0.0338,
      "velocity": 124,
      "chip": "ym2612"
    },
    {
      "channel": 1,
      "note": 50,
      "start": 92.2167,
      "duration": 0.0233,
      "velocity": 95,
      "chip": "ym2612"
    },
    {
      "channel": 0,
      "note": 78,
      "start": 92.2194,
      "duration": 0.0937,
      "velocity": 127,
      "chip": "ym2612"
    },
    {
      "channel": 3,
      "note": 89,
      "start": 92.3158,
      "duration": 0.0293,
      "velocity": 124,
      "chip": "ym2612"
    },
    {
      "channel": 1,
      "note": 50,
      "start": 92.3193,
      "duration": 0.0258,
      "velocity": 95,
      "chip": "ym2612"
    },
    {
      "channel": 0,
      "note": 73,
      "start": 92.3219,
      "duration": 41.7016,
      "velocity": 127,
      "chip": "ym2612"
    },
    {
      "channel": 4,
      "note": 74,
      "start": 92.3803,
      "duration": 0.0631,
      "velocity": 127,
      "chip": "ym2612"
    },
    {
      "channel": 3,
      "note": 87,
      "start": 92.4798,
      "duration": 0.0635,
      "velocity": 124,
      "chip": "ym2612"
    },
    {
      "channel": 1,
      "note": 50,
      "start": 92.4825,
      "duration": 0.0441,
      "velocity": 95,
      "chip": "ym2612"
    },
    {
      "channel": 4,
      "note": 80,
      "start": 92.4853,
      "duration": 0.1915,
      "velocity": 127,
      "chip": "ym2612"
    },
    {
      "channel": 3,
      "note": 89,
      "start": 92.6964,
      "duration": 0.0637,
      "velocity": 124,
      "chip": "ym2612"
    },
    {
      "channel": 1,
      "note": 50,
      "start": 92.699,
      "duration": 0.0609,
      "velocity": 95,
      "chip": "ym2612"
    },
    {
      "channel": 4,
      "note": 74,
      "start": 92.7022,
      "duration": 0.0746,
      "velocity": 127,
      "chip": "ym2612"
    },
    {
      "channel": 4,
      "note": 76,
      "start": 92.7968,
      "duration": 0.0634,
      "velocity": 127,
      "chip": "ym2612"
    },
    {
      "channel": 3,
      "note": 87,
      "start": 92.8964,
      "duration": 0.0336,
      "velocity": 124,
      "chip": "ym2612"
    },
    {
      "channel": 1,
      "note": 52,
      "start": 92.8994,
      "duration": 0.0306,
      "velocity": 95,
      "chip": "ym2612"
    },
    {
      "channel": 4,
      "note": 81,
      "start": 92.9018,
      "duration": 0.0283,
      "velocity": 127,
      "chip": "ym2612"
    },
    {
      "channel": 4,
      "note": 76,
      "start": 92.9473,
      "duration": 0.0409,
      "velocity": 127,
      "chip": "ym2612"
    },
    {
      "channel": 3,
      "note": 89,
      "start": 92.9993,
      "duration": 0.0279,
      "velocity": 124,
      "chip": "ym2612"
    },
    {
      "channel": 1,
      "note": 52,
      "start": 93.0017,
      "duration": 0.018,
      "velocity": 95,
      "chip": "ym2612"
    },
    {
      "channel": 4,
      "note": 78,
      "start": 93.0041,
      "duration": 0.0233,
      "velocity": 127,
      "chip": "ym2612"
    },
    {
      "channel": 4,
      "note": 83,
      "start": 93.0639,
      "duration": 0.0634,
      "velocity": 127,
      "chip": "ym2612"
    },
    {
      "channel": 3,
      "note": 87,
      "start": 93.1635,
      "duration": 0.0637,
      "velocity": 124,
      "chip": "ym2612"
    },
    {
      "channel": 1,
      "note": 52,
      "start": 93.1661,
      "duration": 0.0445,
      "velocity": 95,
      "chip": "ym2612"
    },
    {
      "channel": 4,
      "note": 83,
      "start": 93.1689,
      "duration": 0.1916,
      "velocity": 127,
      "chip": "ym2612"
    },
    {
      "channel": 3,
      "note": 89,
      "start": 93.3801,
      "duration": 0.0637,
      "velocity": 124,
      "chip": "ym2612"
    },
    {
      "channel": 1,
      "note": 52,
      "start": 93.3827,
      "duration": 0.0777,
      "velocity": 95,
      "chip": "ym2612"
    },
    {
      "channel": 4,
      "note": 81,
      "start": 93.3857,
      "duration": 0.075,
      "velocity": 127,
      "chip": "ym2612"
    },
    {
      "channel": 4,
      "note": 78,
      "start": 93.4807,
      "duration": 0.0298,
      "velocity": 127,
      "chip": "ym2612"
    },
    {
      "channel": 3,
      "note": 87,
      "start": 93.5834,
      "duration": 0.0352,
      "velocity": 124,
      "chip": "ym2612"
    },
    {
      "channel": 4,
      "note": 54,
      "start": 93.5906,
      "duration": 0.2375,
      "velocity": 127,
      "chip": "ym2612"
    },
    {
      "channel": 3,
      "note": 89,
      "start": 93.6864,
      "duration": 0.0268,
      "velocity": 124,
      "chip": "ym2612"
    },
    {
      "channel": 3,
      "note": 87,
      "start": 93.8478,
      "duration": 0.0637,
      "velocity": 124,
      "chip": "ym2612"
    },
    {
      "channel": 4,
      "note": 57,
      "start": 93.8508,
      "duration": 0.1773,
      "velocity": 127,
      "chip": "ym2612"
    },
    {
      "channel": 3,
      "note": 89,
      "start": 94.0643,
      "duration": 0.0638,
      "velocity": 124,
      "chip": "ym2612"
    },
    {
      "channel": 4,
      "note": 54,
      "start": 94.0672,
      "duration": 0.1777,
      "velocity": 127,
      "chip": "ym2612"
    }
  ]
}