{
  "track_name": "11 - Papa Shango",
  "duration_sec": 40.52,
  "sample_rate": 44100,
  "note_count": 448,
  "unique_pitches": 32,
  "pitch_range": 68,
  "avg_note_duration": 0.3586,
  "reconstruction_stats": {
    "notes_reconstructed": 448,
    "keyon_events": 448,
    "keyoff_events": 446,
    "orphan_keyons": 2,
    "unique_pitches": 32,
    "pitch_range": 68,
    "avg_duration_sec": 0.3586
  },
  "metadata": {
    "source": "W\\WWF Royal Rumble\\11 - Papa Shango.vgz"
  },
  "notes": [
    {
      "channel": 0,
      "note": 59,
      "start": 0.0,
      "duration": 0.0,
      "velocity": 101,
      "chip": "ym2612"
    },
    {
      "channel": 0,
      "note": 47,
      "start": 0.0,
      "duration": 0.0,
      "velocity": 101,
      "chip": "ym2612"
    },
    {
      "channel": 0,
      "note": 47,
      "start": 0.0,
      "duration": 0.0,
      "velocity": 101,
      "chip": "ym2612"
    },
    {
      "channel": 0,
      "note": 47,
      "start": 0.0,
      "duration": 0.0,
      "velocity": 101,
      "chip": "ym2612"
    },
    {
      "channel": 0,
      "note": 59,
      "start": 0.0,
      "duration": 0.0,
      "velocity": 101,
      "chip": "ym2612"
    },
    {
      "channel": 0,
      "note": 47,
      "start": 0.0,
      "duration": 0.0,
      "velocity": 101,
      "chip": "ym2612"
    },
    {
      "channel": 0,
      "note": 47,
      "start": 0.0,
      "duration": 0.0,
      "velocity": 101,
      "chip": "ym2612"
    },
    {
      "channel": 0,
      "note": 57,
      "start": 0.0,
      "duration": 0.0,
      "velocity": 101,
      "chip": "ym2612"
    },
    {
      "channel": 0,
      "note": 57,
      "start": 0.0,
      "duration": 0.0,
      "velocity": 101,
      "chip": "ym2612"
    },
    {
      "channel": 0,
      "note": 47,
      "start": 0.0,
      "duration": 0.0,
      "velocity": 101,
      "chip": "ym2612"
    },
    {
      "channel": 0,
      "note": 59,
      "start": 0.0,
      "duration": 0.0,
      "velocity": 101,
      "chip": "ym2612"
    },
    {
      "channel": 0,
      "note": 47,
      "start": 0.0,
      "duration": 0.0,
      "velocity": 101,
      "chip": "ym2612"
    },
    {
      "channel": 0,
      "note": 57,
      "start": 0.0,
      "duration": 0.0,
      "velocity": 101,
      "chip": "ym2612"
    },
    {
      "channel": 0,
      "note": 47,
      "start": 0.0,
      "duration": 0.0,
      "velocity": 101,
      "chip": "ym2612"
    },
    {
      "channel": 0,
      "note": 52,
      "start": 0.0,
      "duration": 0.0,
      "velocity": 101,
      "chip": "ym2612"
    },
    {
      "channel": 0,
      "note": 59,
      "start": 0.0,
      "duration": 0.0,
      "velocity": 101,
      "chip": "ym2612"
    },
    {
      "channel": 0,
      "note": 47,
      "start": 0.0,
      "duration": 0.0,
      "velocity": 101,
      "chip": "ym2612"
    },
    {
      "channel": 0,
      "note": 52,
      "start": 0.0,
      "duration": 0.0,
      "velocity": 101,
      "chip": "ym2612"
    },
    {
      "channel": 1,
      "note": 74,
      "start": 0.0,
      "duration": 0.0,
      "velocity": 116,
      "chip": "ym2612"
    },
    {
      "channel": 1,
      "note": 42,
      "start": 0.0,
      "duration": 0.0,
      "velocity": 125,
      "chip": "ym2612"
    },
    {
      "channel": 1,
      "note": 74,
      "start": 0.0,
      "duration": 0.0,
      "velocity": 116,
      "chip": "ym2612"
    },
    {
      "channel": 1,
      "note": 42,
      "start": 0.0,
      "duration": 0.0,
      "velocity": 125,
      "chip": "ym2612"
    },
    {
      "channel": 1,
      "note": 74,
      "start": 0.0,
      "duration": 0.0,
      "velocity": 116,
      "chip": "ym2612"
    },
    {
      "channel": 1,
      "note": 42,
      "start": 0.0,
      "duration": 0.0,
      "velocity": 125,
      "chip": "ym2612"
    },
    {
      "channel": 1,
      "note": 74,
      "start": 0.0,
      "duration": 0.0,
      "velocity": 127,
      "chip": "ym2612"
    },
    {
      "channel": 1,
      "note": 74,
      "start": 0.0,
      "duration": 0.0,
      "velocity": 127,
      "chip": "ym2612"
    },
    {
      "channel": 1,
      "note": 74,
      "start": 0.0,
      "duration": 0.0,
      "velocity": 127,
      "chip": "ym2612"
    },
    {
      "channel": 1,
      "note": 42,
      "start": 0.0,
      "duration": 0.0,
      "velocity": 125,
      "chip": "ym2612"
    },
    {
      "channel": 2,
      "note": 87,
      "start": 0.0,
      "duration": 0.0,
      "velocity": 126,
      "chip": "ym2612"
    },
    {
      "channel": 2,
      "note": 85,
      "start": 0.0,
      "duration": 0.0,
      "velocity": 126,
      "chip": "ym2612"
    },
    {
      "channel": 2,
      "note": 87,
      "start": 0.0,
      "duration": 0.0,
      "velocity": 126,
      "chip": "ym2612"
    },
    {
      "channel": 2,
      "note": 88,
      "start": 0.0,
      "duration": 0.0,
      "velocity": 126,
      "chip": "ym2612"
    },
    {
      "channel": 2,
      "note": 87,
      "start": 0.0,
      "duration": 0.0,
      "velocity": 126,
      "chip": "ym2612"
    },
    {
      "channel": 2,
      "note": 83,
      "start": 0.0,
      "duration": 0.0,
      "velocity": 1,
      "chip": "ym2612"
    },
    {
      "channel": 3,
      "note": 66,
      "start": 0.0,
      "duration": 0.0,
      "velocity": 97,
      "chip": "ym2612"
    },
    {
      "channel": 3,
      "note": 66,
      "start": 0.0,
      "duration": 0.0,
      "velocity": 97,
      "chip": "ym2612"
    },
    {
      "channel": 3,
      "note": 66,
      "start": 0.0,
      "duration": 0.0,
      "velocity": 97,
      "chip": "ym2612"
    },
    {
      "channel": 3,
      "note": 76,
      "start": 0.0,
      "duration": 0.0,
      "velocity": 97,
      "chip": "ym2612"
    },
    {
      "channel": 4,
      "note": 75,
      "start": 0.0,
      "duration": 0.0,
      "velocity": 97,
      "chip": "ym2612"
    },
    {
      "channel": 4,
      "note": 73,
      "start": 0.0,
      "duration": 0.0,
      "velocity": 97,
      "chip": "ym2612"
    },
    {
      "channel": 4,
      "note": 75,
      "start": 0.0,
      "duration": 0.0,
      "velocity": 97,
      "chip": "ym2612"
    },
    {
      "channel": 4,
      "note": 68,
      "start": 0.0,
      "duration": 0.0,
      "velocity": 97,
      "chip": "ym2612"
    },
    {
      "channel": 5,
      "note": 74,
      "start": 0.0,
      "duration": 0.0,
      "velocity": 127,
      "chip": "ym2612"
    },
    {
      "channel": 5,
      "note": 74,
      "start": 0.0,
      "duration": 0.0,
      "velocity": 127,
      "chip": "ym2612"
    },
    {
      "channel": 5,
      "note": 74,
      "start": 0.0,
      "duration": 0.0,
      "velocity": 127,
      "chip": "ym2612"
    },
    {
      "channel": 5,
      "note": 74,
      "start": 0.0,
      "duration": 0.0,
      "velocity": 127,
      "chip": "ym2612"
    },
    {
      "channel": 5,
      "note": 74,
      "start": 0.0,
      "duration": 0.0,
      "velocity": 127,
      "chip": "ym2612"
    },
    {
      "channel": 5,
      "note": 74,
      "start": 0.0,
      "duration": 0.0,
      "velocity": 127,
      "chip": "ym2612"
    },
    {
      "channel": 5,
      "note": 74,
      "start": 0.0,
      "duration": 0.0,
      "velocity": 127,
      "chip": "ym2612"
    },
    {
      "channel": 5,
      "note": 74,
      "start": 0.0,
      "duration": 0.0,
      "velocity": 127,
      "chip": "ym2612"
    },
    {
      "channel": 5,
      "note": 74,
      "start": 0.0,
      "duration": 0.0,
      "velocity": 127,
      "chip": "ym2612"
    },
    {
      "channel": 5,
      "note": 74,
      "start": 0.0,
      "duration": 0.0,
      "velocity": 127,
      "chip": "ym2612"
    },
    {
      "channel": 5,
      "note": 74,
      "start": 0.0,
      "duration": 0.0,
      "velocity": 127,
      "chip": "ym2612"
    },
    {
      "channel": 5,
      "note": 75,
      "start": 0.0,
      "duration": 0.0,
      "velocity": 116,
      "chip": "ym2612"
    },
    {
      "channel": 5,
      "note": 74,
      "start": 0.0,
      "duration": 0.0,
      "velocity": 116,
      "chip": "ym2612"
    },
    {
      "channel": 5,
      "note": 75,
      "start": 0.0,
      "duration": 0.0,
      "velocity": 116,
      "chip": "ym2612"
    },
    {
      "channel": 5,
      "note": 74,
      "start": 0.0,
      "duration": 0.0,
      "velocity": 127,
      "chip": "ym2612"
    },
    {
      "channel": 0,
      "note": 38,
      "start": 0.0745,
      "duration": 4.5096,
      "velocity": 90,
      "chip": "ym2612"
    },
    {
      "channel": 2,
      "note": 37,
      "start": 0.0803,
      "duration": 0.1374,
      "velocity": 125,
      "chip": "ym2612"
    },
    {
      "channel": 3,
      "note": 55,
      "start": 0.0897,
      "duration": 0.228,
      "velocity": 91,
      "chip": "ym2612"
    },
    {
      "channel": 1,
      "note": 63,
      "start": 0.0983,
      "duration": 0.2527,
      "velocity": 127,
      "chip": "ym2612"
    },
    {
      "channel": 3,
      "note": 55,
      "start": 0.3551,
      "duration": 0.2293,
      "velocity": 91,
      "chip": "ym2612"
    },
    {
      "channel": 1,
      "note": 63,
      "start": 0.3599,
      "duration": 1.0578,
      "velocity": 127,
      "chip": "ym2612"
    },
    {
      "channel": 5,
      "note": 88,
      "start": 0.3635,
      "duration": 0.0709,
      "velocity": 88,
      "chip": "ym2612"
    },
    {
      "channel": 3,
      "note": 55,
      "start": 0.638,
      "duration": 0.2298,
      "velocity": 91,
      "chip": "ym2612"
    },
    {
      "channel": 4,
      "note": 87,
      "start": 0.6429,
      "duration": 3.3747,
      "velocity": 99,
      "chip": "ym2612"
    },
    {
      "channel": 5,
      "note": 88,
      "start": 0.648,
      "duration": 0.1364,
      "velocity": 88,
      "chip": "ym2612"
    },
    {
      "channel": 3,
      "note": 55,
      "start": 0.9214,
      "duration": 0.2296,
      "velocity": 91,
      "chip": "ym2612"
    },
    {
      "channel": 5,
      "note": 88,
      "start": 0.9264,
      "duration": 0.0581,
      "velocity": 88,
      "chip": "ym2612"
    },
    {
      "channel": 3,
      "note": 55,
      "start": 1.2047,
      "duration": 0.2296,
      "velocity": 91,
      "chip": "ym2612"
    },
    {
      "channel": 2,
      "note": 58,
      "start": 1.2103,
      "duration": 0.1243,
      "velocity": 94,
      "chip": "ym2612"
    },
    {
      "channel": 5,
      "note": 88,
      "start": 1.2135,
      "duration": 0.121,
      "velocity": 88,
      "chip": "ym2612"
    },
    {
      "channel": 3,
      "note": 56,
      "start": 1.4881,
      "duration": 0.2295,
      "velocity": 91,
      "chip": "ym2612"
    },
    {
      "channel": 5,
      "note": 88,
      "start": 1.492,
      "duration": 0.059,
      "velocity": 88,
      "chip": "ym2612"
    },
    {
      "channel": 3,
      "note": 56,
      "start": 1.7713,
      "duration": 0.2297,
      "velocity": 91,
      "chip": "ym2612"
    },
    {
      "channel": 1,
      "note": 63,
      "start": 1.7765,
      "duration": 0.4079,
      "velocity": 127,
      "chip": "ym2612"
    },
    {
      "channel": 3,
      "note": 56,
      "start": 2.0546,
      "duration": 0.2298,
      "velocity": 92,
      "chip": "ym2612"
    },
    {
      "channel": 5,
      "note": 88,
      "start": 2.0583,
      "duration": 0.0595,
      "velocity": 88,
      "chip": "ym2612"
    },
    {
      "channel": 3,
      "note": 56,
      "start": 2.3213,
      "duration": 0.2464,
      "velocity": 92,
      "chip": "ym2612"
    },
    {
      "channel": 2,
      "note": 58,
      "start": 2.3252,
      "duration": 0.1426,
      "velocity": 94,
      "chip": "ym2612"
    },
    {
      "channel": 1,
      "note": 63,
      "start": 2.3294,
      "duration": 0.2715,
      "velocity": 127,
      "chip": "ym2612"
    },
    {
      "channel": 3,
      "note": 56,
      "start": 2.6047,
      "duration": 0.2296,
      "velocity": 92,
      "chip": "ym2612"
    },
    {
      "channel": 5,
      "note": 88,
      "start": 2.6097,
      "duration": 0.0747,
      "velocity": 88,
      "chip": "ym2612"
    },
    {
      "channel": 3,
      "note": 57,
      "start": 2.888,
      "duration": 0.2298,
      "velocity": 92,
      "chip": "ym2612"
    },
    {
      "channel": 5,
      "note": 88,
      "start": 2.8919,
      "duration": 0.1424,
      "velocity": 88,
      "chip": "ym2612"
    },
    {
      "channel": 3,
      "note": 57,
      "start": 3.1717,
      "duration": 0.2293,
      "velocity": 92,
      "chip": "ym2612"
    },
    {
      "channel": 5,
      "note": 88,
      "start": 3.1761,
      "duration": 0.0583,
      "velocity": 88,
      "chip": "ym2612"
    },
    {
      "channel": 3,
      "note": 58,
      "start": 3.4546,
      "duration": 0.2298,
      "velocity": 92,
      "chip": "ym2612"
    },
    {
      "channel": 2,
      "note": 58,
      "start": 3.4588,
      "duration": 0.1257,
      "velocity": 94,
      "chip": "ym2612"
    },
    {
      "channel": 5,
      "note": 88,
      "start": 3.4621,
      "duration": 0.1223,
      "velocity": 88,
      "chip": "ym2612"
    },
    {
      "channel": 3,
      "note": 58,
      "start": 3.738,
      "duration": 0.2297,
      "velocity": 95,
      "chip": "ym2612"
    },
    {
      "channel": 5,
      "note": 88,
      "start": 3.7427,
      "duration": 0.0583,
      "velocity": 88,
      "chip": "ym2612"
    },
    {
      "channel": 3,
      "note": 58,
      "start": 4.0219,
      "duration": 0.2291,
      "velocity": 97,
      "chip": "ym2612"
    },
    {
      "channel": 2,
      "note": 58,
      "start": 4.0262,
      "duration": 0.1251,
      "velocity": 94,
      "chip": "ym2612"
    },
    {
      "channel": 5,
      "note": 88,
      "start": 4.0301,
      "duration": 0.1211,
      "velocity": 88,
      "chip": "ym2612"
    },
    {
      "channel": 3,
      "note": 59,
      "start": 4.3047,
      "duration": 0.2153,
      "velocity": 97,
      "chip": "ym2612"
    },
    {
      "channel": 5,
      "note": 88,
      "start": 4.309,
      "duration": 0.0587,
      "velocity": 88,
      "chip": "ym2612"
    },
    {
      "channel": 0,
      "note": 34,
      "start": 4.5871,
      "duration": 4.4971,
      "velocity": 90,
      "chip": "ym2612"
    },
    {
      "channel": 1,
      "note": 37,
      "start": 4.591,
      "duration": 0.1265,
      "velocity": 125,
      "chip": "ym2612"
    },
    {
      "channel": 3,
      "note": 59,
      "start": 4.5961,
      "duration": 0.2217,
      "velocity": 97,
      "chip": "ym2612"
    },
    {
      "channel": 4,
      "note": 63,
      "start": 4.6002,
      "duration": 2.4176,
      "velocity": 127,
      "chip": "ym2612"
    },
    {
      "channel": 3,
      "note": 59,
      "start": 4.8545,
      "duration": 0.2299,
      "velocity": 97,
      "chip": "ym2612"
    },
    {
      "channel": 2,
      "note": 63,
      "start": 4.8591,
      "duration": 1.4087,
      "velocity": 127,
      "chip": "ym2612"
    },
    {
      "channel": 5,
      "note": 88,
      "start": 4.8632,
      "duration": 0.0713,
      "velocity": 88,
      "chip": "ym2612"
    },
    {
      "channel": 3,
      "note": 59,
      "start": 5.1386,
      "duration": 0.229,
      "velocity": 98,
      "chip": "ym2612"
    },
    {
      "channel": 5,
      "note": 88,
      "start": 5.1419,
      "duration": 0.1426,
      "velocity": 88,
      "chip": "ym2612"
    },
    {
      "channel": 3,
      "note": 59,
      "start": 5.4212,
      "duration": 0.2299,
      "velocity": 98,
      "chip": "ym2612"
    },
    {
      "channel": 5,
      "note": 88,
      "start": 5.425,
      "duration": 0.0594,
      "velocity": 88,
      "chip": "ym2612"
    },
    {
      "channel": 3,
      "note": 59,
      "start": 5.7046,
      "duration": 0.2297,
      "velocity": 98,
      "chip": "ym2612"
    },
    {
      "channel": 1,
      "note": 58,
      "start": 5.7089,
      "duration": 0.1254,
      "velocity": 94,
      "chip": "ym2612"
    },
    {
      "channel": 5,
      "note": 88,
      "start": 5.7121,
      "duration": 0.1224,
      "velocity": 88,
      "chip": "ym2612"
    },
    {
      "channel": 3,
      "note": 59,
      "start": 5.988,
      "duration": 0.2297,
      "velocity": 98,
      "chip": "ym2612"
    },
    {
      "channel": 5,
      "note": 88,
      "start": 5.9924,
      "duration": 0.0587,
      "velocity": 88,
      "chip": "ym2612"
    },
    {
      "channel": 3,
      "note": 58,
      "start": 6.2714,
      "duration": 0.2296,
      "velocity": 98,
      "chip": "ym2612"
    },
    {
      "channel": 5,
      "note": 88,
      "start": 6.2753,
      "duration": 0.1258,
      "velocity": 88,
      "chip": "ym2612"
    },
    {
      "channel": 3,
      "note": 58,
      "start": 6.5546,
      "duration": 0.2297,
      "velocity": 98,
      "chip": "ym2612"
    },
    {
      "channel": 5,
      "note": 88,
      "start": 6.5602,
      "duration": 0.0576,
      "velocity": 88,
      "chip": "ym2612"
    },
    {
      "channel": 1,
      "note": 58,
      "start": 6.6883,
      "duration": 0.146,
      "velocity": 127,
      "chip": "ym2612"
    },
    {
      "channel": 3,
      "note": 58,
      "start": 6.838,
      "duration": 0.2296,
      "velocity": 98,
      "chip": "ym2612"
    },
    {
      "channel": 2,
      "note": 82,
      "start": 6.845,
      "duration": 2.2396,
      "velocity": 99,
      "chip": "ym2612"
    },
    {
      "channel": 3,
      "note": 58,
      "start": 7.1046,
      "duration": 0.2464,
      "velocity": 95,
      "chip": "ym2612"
    },
    {
      "channel": 1,
      "note": 58,
      "start": 7.1095,
      "duration": 0.1415,
      "velocity": 127,
      "chip": "ym2612"
    },
    {
      "channel": 5,
      "note": 88,
      "start": 7.1147,
      "duration": 0.0698,
      "velocity": 88,
      "chip": "ym2612"
    },
    {
      "channel": 3,
      "note": 58,
      "start": 7.388,
      "duration": 0.2297,
      "velocity": 95,
      "chip": "ym2612"
    },
    {
      "channel": 1,
      "note": 58,
      "start": 7.392,
      "duration": 0.1422,
      "velocity": 127,
      "chip": "ym2612"
    },
    {
      "channel": 5,
      "note": 88,
      "start": 7.3952,
      "duration": 0.1393,
      "velocity": 88,
      "chip": "ym2612"
    },
    {
      "channel": 3,
      "note": 58,
      "start": 7.6713,
      "duration": 0.2298,
      "velocity": 95,
      "chip": "ym2612"
    },
    {
      "channel": 1,
      "note": 58,
      "start": 7.6758,
      "duration": 0.1417,
      "velocity": 127,
      "chip": "ym2612"
    },
    {
      "channel": 5,
      "note": 88,
      "start": 7.6803,
      "duration": 0.0541,
      "velocity": 88,
      "chip": "ym2612"
    },
    {
      "channel": 1,
      "note": 58,
      "start": 7.8212,
      "duration": 0.1298,
      "velocity": 127,
      "chip": "ym2612"
    },
    {
      "channel": 3,
      "note": 57,
      "start": 7.9551,
      "duration": 0.2292,
      "velocity": 95,
      "chip": "ym2612"
    },
    {
      "channel": 1,
      "note": 58,
      "start": 7.9592,
      "duration": 0.1417,
      "velocity": 127,
      "chip": "ym2612"
    },
    {
      "channel": 4,
      "note": 63,
      "start": 7.9628,
      "duration": 0.9216,
      "velocity": 127,
      "chip": "ym2612"
    },
    {
      "channel": 5,
      "note": 88,
      "start": 7.9658,
      "duration": 0.1353,
      "velocity": 88,
      "chip": "ym2612"
    },
    {
      "channel": 1,
      "note": 58,
      "start": 8.1047,
      "duration": 0.1296,
      "velocity": 127,
      "chip": "ym2612"
    },
    {
      "channel": 3,
      "note": 57,
      "start": 8.2381,
      "duration": 0.2295,
      "velocity": 95,
      "chip": "ym2612"
    },
    {
      "channel": 1,
      "note": 58,
      "start": 8.2425,
      "duration": 0.125,
      "velocity": 127,
      "chip": "ym2612"
    },
    {
      "channel": 5,
      "note": 88,
      "start": 8.2461,
      "duration": 0.055,
      "velocity": 88,
      "chip": "ym2612"
    },
    {
      "channel": 1,
      "note": 58,
      "start": 8.3711,
      "duration": 0.1464,
      "velocity": 127,
      "chip": "ym2612"
    },
    {
      "channel": 3,
      "note": 56,
      "start": 8.5218,
      "duration": 0.2291,
      "velocity": 94,
      "chip": "ym2612"
    },
    {
      "channel": 1,
      "note": 58,
      "start": 8.5263,
      "duration": 0.1247,
      "velocity": 127,
      "chip": "ym2612"
    },
    {
      "channel": 5,
      "note": 88,
      "start": 8.5294,
      "duration": 0.1219,
      "velocity": 88,
      "chip": "ym2612"
    },
    {
      "channel": 1,
      "note": 58,
      "start": 8.6552,
      "duration": 0.1457,
      "velocity": 127,
      "chip": "ym2612"
    },
    {
      "channel": 3,
      "note": 56,
      "start": 8.8047,
      "duration": 0.2296,
      "velocity": 94,
      "chip": "ym2612"
    },
    {
      "channel": 1,
      "note": 58,
      "start": 8.8087,
      "duration": 0.1256,
      "velocity": 127,
      "chip": "ym2612"
    },
    {
      "channel": 5,
      "note": 88,
      "start": 8.8119,
      "duration": 0.0559,
      "velocity": 88,
      "chip": "ym2612"
    },
    {
      "channel": 1,
      "note": 58,
      "start": 8.938,
      "duration": 0.1463,
      "velocity": 127,
      "chip": "ym2612"
    },
    {
      "channel": 0,
      "note": 38,
      "start": 9.0875,
      "duration": 4.4966,
      "velocity": 90,
      "chip": "ym2612"
    },
    {
      "channel": 5,
      "note": 37,
      "start": 9.0914,
      "duration": 0.1265,
      "velocity": 125,
      "chip": "ym2612"
    },
    {
      "channel": 3,
      "note": 56,
      "start": 9.0966,
      "duration": 0.2212,
      "velocity": 94,
      "chip": "ym2612"
    },
    {
      "channel": 4,
      "note": 63,
      "start": 9.1015,
      "duration": 0.2497,
      "velocity": 127,
      "chip": "ym2612"
    },
    {
      "channel": 3,
      "note": 56,
      "start": 9.3551,
      "duration": 0.2459,
      "velocity": 94,
      "chip": "ym2612"
    },
    {
      "channel": 4,
      "note": 63,
      "start": 9.3598,
      "duration": 1.1245,
      "velocity": 127,
      "chip": "ym2612"
    },
    {
      "channel": 1,
      "note": 88,
      "start": 9.364,
      "duration": 0.0703,
      "velocity": 88,
      "chip": "ym2612"
    },
    {
      "channel": 3,
      "note": 56,
      "start": 9.6385,
      "duration": 0.2292,
      "velocity": 92,
      "chip": "ym2612"
    },
    {
      "channel": 1,
      "note": 88,
      "start": 9.6423,
      "duration": 0.142,
      "velocity": 88,
      "chip": "ym2612"
    },
    {
      "channel": 3,
      "note": 56,
      "start": 9.9218,
      "duration": 0.2292,
      "velocity": 92,
      "chip": "ym2612"
    },
    {
      "channel": 1,
      "note": 88,
      "start": 9.9261,
      "duration": 0.0582,
      "velocity": 88,
      "chip": "ym2612"
    },
    {
      "channel": 3,
      "note": 55,
      "start": 10.2051,
      "duration": 0.2292,
      "velocity": 91,
      "chip": "ym2612"
    },
    {
      "channel": 2,
      "note": 58,
      "start": 10.2089,
      "duration": 0.1424,
      "velocity": 94,
      "chip": "ym2612"
    },
    {
      "channel": 1,
      "note": 88,
      "start": 10.212,
      "duration": 0.139,
      "velocity": 88,
      "chip": "ym2612"
    },
    {
      "channel": 3,
      "note": 55,
      "start": 10.488,
      "duration": 0.2296,
      "velocity": 91,
      "chip": "ym2612"
    },
    {
      "channel": 5,
      "note": 58,
      "start": 10.4923,
      "duration": 0.5588,
      "velocity": 127,
      "chip": "ym2612"
    },
    {
      "channel": 1,
      "note": 88,
      "start": 10.4957,
      "duration": 0.0553,
      "velocity": 88,
      "chip": "ym2612"
    },
    {
      "channel": 3,
      "note": 54,
      "start": 10.7714,
      "duration": 0.2296,
      "velocity": 91,
      "chip": "ym2612"
    },
    {
      "channel": 1,
      "note": 88,
      "start": 10.7752,
      "duration": 0.1257,
      "velocity": 88,
      "chip": "ym2612"
    },
    {
      "channel": 3,
      "note": 54,
      "start": 11.0546,
      "duration": 0.2296,
      "velocity": 91,
      "chip": "ym2612"
    },
    {
      "channel": 5,
      "note": 58,
      "start": 11.0577,
      "duration": 0.5601,
      "velocity": 127,
      "chip": "ym2612"
    },
    {
      "channel": 1,
      "note": 88,
      "start": 11.0607,
      "duration": 0.0569,
      "velocity": 88,
      "chip": "ym2612"
    },
    {
      "channel": 3,
      "note": 54,
      "start": 11.338,
      "duration": 0.2296,
      "velocity": 91,
      "chip": "ym2612"
    },
    {
      "channel": 2,
      "note": 58,
      "start": 11.3428,
      "duration": 0.1251,
      "velocity": 94,
      "chip": "ym2612"
    },
    {
      "channel": 4,
      "note": 63,
      "start": 11.3461,
      "duration": 1.4384,
      "velocity": 127,
      "chip": "ym2612"
    },
    {
      "channel": 3,
      "note": 53,
      "start": 11.6215,
      "duration": 0.2294,
      "velocity": 90,
      "chip": "ym2612"
    },
    {
      "channel": 1,
      "note": 88,
      "start": 11.6264,
      "duration": 0.0578,
      "velocity": 88,
      "chip": "ym2612"
    },
    {
      "channel": 3,
      "note": 53,
      "start": 11.888,
      "duration": 0.2297,
      "velocity": 90,
      "chip": "ym2612"
    },
    {
      "channel": 1,
      "note": 88,
      "start": 11.8926,
      "duration": 0.1417,
      "velocity": 88,
      "chip": "ym2612"
    },
    {
      "channel": 3,
      "note": 53,
      "start": 12.1713,
      "duration": 0.2296,
      "velocity": 88,
      "chip": "ym2612"
    },
    {
      "channel": 5,
      "note": 56,
      "start": 12.1757,
      "duration": 0.2754,
      "velocity": 127,
      "chip": "ym2612"
    },
    {
      "channel": 1,
      "note": 88,
      "start": 12.1791,
      "duration": 0.0551,
      "velocity": 88,
      "chip": "ym2612"
    },
    {
      "channel": 3,
      "note": 53,
      "start": 12.4548,
      "duration": 0.2295,
      "velocity": 88,
      "chip": "ym2612"
    },
    {
      "channel": 5,
      "note": 56,
      "start": 12.4593,
      "duration": 0.2751,
      "velocity": 127,
      "chip": "ym2612"
    },
    {
      "channel": 2,
      "note": 93,
      "start": 12.4635,
      "duration": 1.6709,
      "velocity": 99,
      "chip": "ym2612"
    },
    {
      "channel": 1,
      "note": 88,
      "start": 12.4684,
      "duration": 0.1325,
      "velocity": 88,
      "chip": "ym2612"
    },
    {
      "channel": 3,
      "note": 52,
      "start": 12.7385,
      "duration": 0.2292,
      "velocity": 88,
      "chip": "ym2612"
    },
    {
      "channel": 5,
      "note": 56,
      "start": 12.7427,
      "duration": 0.2751,
      "velocity": 127,
      "chip": "ym2612"
    },
    {
      "channel": 1,
      "note": 88,
      "start": 12.7461,
      "duration": 0.0549,
      "velocity": 88,
      "chip": "ym2612"
    },
    {
      "channel": 3,
      "note": 52,
      "start": 13.0215,
      "duration": 0.2295,
      "velocity": 88,
      "chip": "ym2612"
    },
    {
      "channel": 5,
      "note": 56,
      "start": 13.0258,
      "duration": 0.2752,
      "velocity": 127,
      "chip": "ym2612"
    },
    {
      "channel": 1,
      "note": 88,
      "start": 13.0288,
      "duration": 0.1222,
      "velocity": 88,
      "chip": "ym2612"
    },
    {
      "channel": 3,
      "note": 52,
      "start": 13.3048,
      "duration": 0.2296,
      "velocity": 88,
      "chip": "ym2612"
    },
    {
      "channel": 5,
      "note": 56,
      "start": 13.3098,
      "duration": 0.2746,
      "velocity": 127,
      "chip": "ym2612"
    },
    {
      "channel": 1,
      "note": 88,
      "start": 13.3128,
      "duration": 0.0547,
      "velocity": 88,
      "chip": "ym2612"
    },
    {
      "channel": 0,
      "note": 34,
      "start": 13.5873,
      "duration": 4.497,
      "velocity": 90,
      "chip": "ym2612"
    },
    {
      "channel": 4,
      "note": 37,
      "start": 13.5912,
      "duration": 0.1266,
      "velocity": 125,
      "chip": "ym2612"
    },
    {
      "channel": 3,
      "note": 52,
      "start": 13.5964,
      "duration": 0.2212,
      "velocity": 88,
      "chip": "ym2612"
    },
    {
      "channel": 1,
      "note": 63,
      "start": 13.6016,
      "duration": 1.7326,
      "velocity": 127,
      "chip": "ym2612"
    },
    {
      "channel": 3,
      "note": 52,
      "start": 13.8715,
      "duration": 0.2296,
      "velocity": 88,
      "chip": "ym2612"
    },
    {
      "channel": 5,
      "note": 88,
      "start": 13.8766,
      "duration": 0.0579,
      "velocity": 88,
      "chip": "ym2612"
    },
    {
      "channel": 3,
      "note": 51,
      "start": 14.1382,
      "duration": 0.2296,
      "velocity": 88,
      "chip": "ym2612"
    },
    {
      "channel": 5,
      "note": 88,
      "start": 14.1425,
      "duration": 0.1421,
      "velocity": 88,
      "chip": "ym2612"
    },
    {
      "channel": 3,
      "note": 51,
      "start": 14.4212,
      "duration": 0.2298,
      "velocity": 88,
      "chip": "ym2612"
    },
    {
      "channel": 5,
      "note": 88,
      "start": 14.4256,
      "duration": 0.0755,
      "velocity": 88,
      "chip": "ym2612"
    },
    {
      "channel": 3,
      "note": 51,
      "start": 14.7047,
      "duration": 0.2296,
      "velocity": 88,
      "chip": "ym2612"
    },
    {
      "channel": 4,
      "note": 58,
      "start": 14.7085,
      "duration": 0.1426,
      "velocity": 94,
      "chip": "ym2612"
    },
    {
      "channel": 5,
      "note": 88,
      "start": 14.7117,
      "duration": 0.1395,
      "velocity": 88,
      "chip": "ym2612"
    },
    {
      "channel": 3,
      "note": 51,
      "start": 14.988,
      "duration": 0.2296,
      "velocity": 88,
      "chip": "ym2612"
    },
    {
      "channel": 5,
      "note": 88,
      "start": 14.9924,
      "duration": 0.0586,
      "velocity": 88,
      "chip": "ym2612"
    },
    {
      "channel": 3,
      "note": 51,
      "start": 15.2717,
      "duration": 0.2292,
      "velocity": 88,
      "chip": "ym2612"
    },
    {
      "channel": 5,
      "note": 88,
      "start": 15.2757,
      "duration": 0.1253,
      "velocity": 88,
      "chip": "ym2612"
    },
    {
      "channel": 3,
      "note": 51,
      "start": 15.5547,
      "duration": 0.2295,
      "velocity": 88,
      "chip": "ym2612"
    },
    {
      "channel": 5,
      "note": 88,
      "start": 15.5586,
      "duration": 0.0591,
      "velocity": 88,
      "chip": "ym2612"
    },
    {
      "channel": 3,
      "note": 51,
      "start": 15.838,
      "duration": 0.2295,
      "velocity": 88,
      "chip": "ym2612"
    },
    {
      "channel": 4,
      "note": 58,
      "start": 15.8419,
      "duration": 0.1258,
      "velocity": 94,
      "chip": "ym2612"
    },
    {
      "channel": 1,
      "note": 63,
      "start": 15.8455,
      "duration": 0.8054,
      "velocity": 127,
      "chip": "ym2612"
    },
    {
      "channel": 3,
      "note": 51,
      "start": 16.1213,
      "duration": 0.2297,
      "velocity": 88,
      "chip": "ym2612"
    },
    {
      "channel": 5,
      "note": 88,
      "start": 16.1273,
      "duration": 0.0571,
      "velocity": 88,
      "chip": "ym2612"
    },
    {
      "channel": 3,
      "note": 52,
      "start": 16.388,
      "duration": 0.2463,
      "velocity": 88,
      "chip": "ym2612"
    },
    {
      "channel": 5,
      "note": 88,
      "start": 16.3919,
      "duration": 0.1426,
      "velocity": 88,
      "chip": "ym2612"
    },
    {
      "channel": 3,
      "note": 52,
      "start": 16.6714,
      "duration": 0.2296,
      "velocity": 88,
      "chip": "ym2612"
    },
    {
      "channel": 5,
      "note": 88,
      "start": 16.6761,
      "duration": 0.0749,
      "velocity": 88,
      "chip": "ym2612"
    },
    {
      "channel": 3,
      "note": 52,
      "start": 16.9547,
      "duration": 0.2296,
      "velocity": 88,
      "chip": "ym2612"
    },
    {
      "channel": 4,
      "note": 58,
      "start": 16.9583,
      "duration": 0.1427,
      "velocity": 94,
      "chip": "ym2612"
    },
    {
      "channel": 1,
      "note": 63,
      "start": 16.963,
      "duration": 0.3212,
      "velocity": 127,
      "chip": "ym2612"
    },
    {
      "channel": 5,
      "note": 88,
      "start": 16.966,
      "duration": 0.1352,
      "velocity": 88,
      "chip": "ym2612"
    },
    {
      "channel": 3,
      "note": 53,
      "start": 17.238,
      "duration": 0.2295,
      "velocity": 88,
      "chip": "ym2612"
    },
    {
      "channel": 5,
      "note": 88,
      "start": 17.2424,
      "duration": 0.0588,
      "velocity": 88,
      "chip": "ym2612"
    },
    {
      "channel": 3,
      "note": 53,
      "start": 17.5217,
      "duration": 0.2294,
      "velocity": 88,
      "chip": "ym2612"
    },
    {
      "channel": 4,
      "note": 58,
      "start": 17.5258,
      "duration": 0.1251,
      "velocity": 94,
      "chip": "ym2612"
    },
    {
      "channel": 1,
      "note": 63,
      "start": 17.5287,
      "duration": 0.2889,
      "velocity": 127,
      "chip": "ym2612"
    },
    {
      "channel": 5,
      "note": 88,
      "start": 17.5317,
      "duration": 0.1194,
      "velocity": 88,
      "chip": "ym2612"
    },
    {
      "channel": 3,
      "note": 54,
      "start": 17.8046,
      "duration": 0.2298,
      "velocity": 88,
      "chip": "ym2612"
    },
    {
      "channel": 2,
      "note": 56,
      "start": 17.8085,
      "duration": 0.2761,
      "velocity": 127,
      "chip": "ym2612"
    },
    {
      "channel": 5,
      "note": 88,
      "start": 17.8116,
      "duration": 0.056,
      "velocity": 88,
      "chip": "ym2612"
    },
    {
      "channel": 0,
      "note": 31,
      "start": 18.0873,
      "duration": 4.4969,
      "velocity": 90,
      "chip": "ym2612"
    },
    {
      "channel": 4,
      "note": 37,
      "start": 18.0912,
      "duration": 0.1266,
      "velocity": 125,
      "chip": "ym2612"
    },
    {
      "channel": 3,
      "note": 54,
      "start": 18.098,
      "duration": 0.2196,
      "velocity": 91,
      "chip": "ym2612"
    },
    {
      "channel": 1,
      "note": 63,
      "start": 18.1027,
      "duration": 1.6482,
      "velocity": 127,
      "chip": "ym2612"
    },
    {
      "channel": 3,
      "note": 55,
      "start": 18.3714,
      "duration": 0.2296,
      "velocity": 91,
      "chip": "ym2612"
    },
    {
      "channel": 5,
      "note": 88,
      "start": 18.3768,
      "duration": 0.0576,
      "velocity": 88,
      "chip": "ym2612"
    },
    {
      "channel": 3,
      "note": 55,
      "start": 18.638,
      "duration": 0.2464,
      "velocity": 91,
      "chip": "ym2612"
    },
    {
      "channel": 5,
      "note": 88,
      "start": 18.642,
      "duration": 0.1425,
      "velocity": 88,
      "chip": "ym2612"
    },
    {
      "channel": 3,
      "note": 55,
      "start": 18.9214,
      "duration": 0.2296,
      "velocity": 91,
      "chip": "ym2612"
    },
    {
      "channel": 5,
      "note": 88,
      "start": 18.9258,
      "duration": 0.0754,
      "velocity": 88,
      "chip": "ym2612"
    },
    {
      "channel": 3,
      "note": 55,
      "start": 19.2048,
      "duration": 0.2295,
      "velocity": 91,
      "chip": "ym2612"
    },
    {
      "channel": 2,
      "note": 58,
      "start": 19.2089,
      "duration": 0.1423,
      "velocity": 94,
      "chip": "ym2612"
    },
    {
      "channel": 5,
      "note": 88,
      "start": 19.2121,
      "duration": 0.1389,
      "velocity": 88,
      "chip": "ym2612"
    },
    {
      "channel": 3,
      "note": 56,
      "start": 19.488,
      "duration": 0.2297,
      "velocity": 91,
      "chip": "ym2612"
    },
    {
      "channel": 5,
      "note": 88,
      "start": 19.4924,
      "duration": 0.0586,
      "velocity": 88,
      "chip": "ym2612"
    },
    {
      "channel": 3,
      "note": 56,
      "start": 19.7714,
      "duration": 0.2296,
      "velocity": 91,
      "chip": "ym2612"
    },
    {
      "channel": 5,
      "note": 88,
      "start": 19.7762,
      "duration": 0.1249,
      "velocity": 88,
      "chip": "ym2612"
    },
    {
      "channel": 3,
      "note": 56,
      "start": 20.0546,
      "duration": 0.2298,
      "velocity": 92,
      "chip": "ym2612"
    },
    {
      "channel": 5,
      "note": 88,
      "start": 20.0585,
      "duration": 0.0592,
      "velocity": 88,
      "chip": "ym2612"
    },
    {
      "channel": 3,
      "note": 56,
      "start": 20.3379,
      "duration": 0.2297,
      "velocity": 92,
      "chip": "ym2612"
    },
    {
      "channel": 2,
      "note": 58,
      "start": 20.3415,
      "duration": 0.1262,
      "velocity": 94,
      "chip": "ym2612"
    },
    {
      "channel": 1,
      "note": 63,
      "start": 20.3449,
      "duration": 0.7394,
      "velocity": 127,
      "chip": "ym2612"
    },
    {
      "channel": 3,
      "note": 56,
      "start": 20.6213,
      "duration": 0.2297,
      "velocity": 92,
      "chip": "ym2612"
    },
    {
      "channel": 5,
      "note": 88,
      "start": 20.6267,
      "duration": 0.0577,
      "velocity": 88,
      "chip": "ym2612"
    },
    {
      "channel": 3,
      "note": 57,
      "start": 20.9046,
      "duration": 0.2298,
      "velocity": 92,
      "chip": "ym2612"
    },
    {
      "channel": 4,
      "note": 99,
      "start": 20.9114,
      "duration": 1.1063,
      "velocity": 99,
      "chip": "ym2612"
    },
    {
      "channel": 5,
      "note": 88,
      "start": 20.9143,
      "duration": 0.1202,
      "velocity": 88,
      "chip": "ym2612"
    },
    {
      "channel": 3,
      "note": 57,
      "start": 21.1714,
      "duration": 0.2296,
      "velocity": 92,
      "chip": "ym2612"
    },
    {
      "channel": 5,
      "note": 88,
      "start": 21.1758,
      "duration": 0.0754,
      "velocity": 88,
      "chip": "ym2612"
    },
    {
      "channel": 3,
      "note": 58,
      "start": 21.455,
      "duration": 0.2293,
      "velocity": 92,
      "chip": "ym2612"
    },
    {
      "channel": 2,
      "note": 58,
      "start": 21.4592,
      "duration": 0.1419,
      "velocity": 94,
      "chip": "ym2612"
    },
    {
      "channel": 1,
      "note": 63,
      "start": 21.4628,
      "duration": 0.6881,
      "velocity": 127,
      "chip": "ym2612"
    },
    {
      "channel": 5,
      "note": 88,
      "start": 21.4658,
      "duration": 0.1352,
      "velocity": 88,
      "chip": "ym2612"
    },
    {
      "channel": 3,
      "note": 58,
      "start": 21.738,
      "duration": 0.2298,
      "velocity": 95,
      "chip": "ym2612"
    },
    {
      "channel": 5,
      "note": 88,
      "start": 21.7429,
      "duration": 0.0581,
      "velocity": 88,
      "chip": "ym2612"
    },
    {
      "channel": 3,
      "note": 58,
      "start": 22.0224,
      "duration": 0.2286,
      "velocity": 97,
      "chip": "ym2612"
    },
    {
      "channel": 2,
      "note": 58,
      "start": 22.0262,
      "duration": 0.1251,
      "velocity": 94,
      "chip": "ym2612"
    },
    {
      "channel": 5,
      "note": 88,
      "start": 22.0295,
      "duration": 0.1217,
      "velocity": 88,
      "chip": "ym2612"
    },
    {
      "channel": 3,
      "note": 59,
      "start": 22.3047,
      "duration": 0.2296,
      "velocity": 97,
      "chip": "ym2612"
    },
    {
      "channel": 5,
      "note": 88,
      "start": 22.3086,
      "duration": 0.0591,
      "velocity": 88,
      "chip": "ym2612"
    },
    {
      "channel": 0,
      "note": 33,
      "start": 22.5872,
      "duration": 4.4969,
      "velocity": 90,
      "chip": "ym2612"
    },
    {
      "channel": 4,
      "note": 37,
      "start": 22.5911,
      "duration": 0.1266,
      "velocity": 125,
      "chip": "ym2612"
    },
    {
      "channel": 3,
      "note": 59,
      "start": 22.5962,
      "duration": 0.2216,
      "velocity": 97,
      "chip": "ym2612"
    },
    {
      "channel": 1,
      "note": 63,
      "start": 22.6006,
      "duration": 1.6838,
      "velocity": 127,
      "chip": "ym2612"
    },
    {
      "channel": 3,
      "note": 59,
      "start": 22.8711,
      "duration": 0.2299,
      "velocity": 97,
      "chip": "ym2612"
    },
    {
      "channel": 5,
      "note": 88,
      "start": 22.8756,
      "duration": 0.0589,
      "velocity": 88,
      "chip": "ym2612"
    },
    {
      "channel": 3,
      "note": 59,
      "start": 23.1556,
      "duration": 0.2288,
      "velocity": 98,
      "chip": "ym2612"
    },
    {
      "channel": 5,
      "note": 88,
      "start": 23.159,
      "duration": 0.1256,
      "velocity": 88,
      "chip": "ym2612"
    },
    {
      "channel": 3,
      "note": 59,
      "start": 23.4212,
      "duration": 0.2299,
      "velocity": 98,
      "chip": "ym2612"
    },
    {
      "channel": 5,
      "note": 88,
      "start": 23.4249,
      "duration": 0.0762,
      "velocity": 88,
      "chip": "ym2612"
    },
    {
      "channel": 3,
      "note": 59,
      "start": 23.7046,
      "duration": 0.2298,
      "velocity": 98,
      "chip": "ym2612"
    },
    {
      "channel": 2,
      "note": 58,
      "start": 23.7084,
      "duration": 0.143,
      "velocity": 94,
      "chip": "ym2612"
    },
    {
      "channel": 4,
      "note": 90,
      "start": 23.7117,
      "duration": 0.3728,
      "velocity": 99,
      "chip": "ym2612"
    },
    {
      "channel": 5,
      "note": 88,
      "start": 23.7167,
      "duration": 0.1346,
      "velocity": 88,
      "chip": "ym2612"
    },
    {
      "channel": 3,
      "note": 59,
      "start": 23.988,
      "duration": 0.2296,
      "velocity": 98,
      "chip": "ym2612"
    },
    {
      "channel": 5,
      "note": 88,
      "start": 23.9932,
      "duration": 0.058,
      "velocity": 88,
      "chip": "ym2612"
    },
    {
      "channel": 3,
      "note": 58,
      "start": 24.2713,
      "duration": 0.2297,
      "velocity": 98,
      "chip": "ym2612"
    },
    {
      "channel": 5,
      "note": 88,
      "start": 24.2752,
      "duration": 0.1426,
      "velocity": 88,
      "chip": "ym2612"
    },
    {
      "channel": 3,
      "note": 58,
      "start": 24.5546,
      "duration": 0.2297,
      "velocity": 98,
      "chip": "ym2612"
    },
    {
      "channel": 5,
      "note": 88,
      "start": 24.5586,
      "duration": 0.0592,
      "velocity": 88,
      "chip": "ym2612"
    },
    {
      "channel": 3,
      "note": 58,
      "start": 24.8383,
      "duration": 0.2293,
      "velocity": 98,
      "chip": "ym2612"
    },
    {
      "channel": 2,
      "note": 58,
      "start": 24.8427,
      "duration": 0.1252,
      "velocity": 94,
      "chip": "ym2612"
    },
    {
      "channel": 1,
      "note": 63,
      "start": 24.8457,
      "duration": 0.2718,
      "velocity": 127,
      "chip": "ym2612"
    },
    {
      "channel": 3,
      "note": 58,
      "start": 25.1214,
      "duration": 0.2297,
      "velocity": 95,
      "chip": "ym2612"
    },
    {
      "channel": 4,
      "note": 58,
      "start": 25.1251,
      "duration": 0.2759,
      "velocity": 127,
      "chip": "ym2612"
    },
    {
      "channel": 1,
      "note": 63,
      "start": 25.1279,
      "duration": 0.573,
      "velocity": 127,
      "chip": "ym2612"
    },
    {
      "channel": 5,
      "note": 88,
      "start": 25.132,
      "duration": 0.0524,
      "velocity": 88,
      "chip": "ym2612"
    },
    {
      "channel": 3,
      "note": 58,
      "start": 25.4046,
      "duration": 0.2297,
      "velocity": 95,
      "chip": "ym2612"
    },
    {
      "channel": 4,
      "note": 58,
      "start": 25.4085,
      "duration": 0.2593,
      "velocity": 127,
      "chip": "ym2612"
    },
    {
      "channel": 5,
      "note": 88,
      "start": 25.4116,
      "duration": 0.1229,
      "velocity": 88,
      "chip": "ym2612"
    },
    {
      "channel": 3,
      "note": 58,
      "start": 25.6714,
      "duration": 0.2462,
      "velocity": 95,
      "chip": "ym2612"
    },
    {
      "channel": 4,
      "note": 58,
      "start": 25.6752,
      "duration": 0.2758,
      "velocity": 127,
      "chip": "ym2612"
    },
    {
      "channel": 5,
      "note": 88,
      "start": 25.6788,
      "duration": 0.0723,
      "velocity": 88,
      "chip": "ym2612"
    },
    {
      "channel": 3,
      "note": 57,
      "start": 25.9546,
      "duration": 0.2297,
      "velocity": 95,
      "chip": "ym2612"
    },
    {
      "channel": 4,
      "note": 58,
      "start": 25.9588,
      "duration": 0.2756,
      "velocity": 127,
      "chip": "ym2612"
    },
    {
      "channel": 1,
      "note": 63,
      "start": 25.9623,
      "duration": 0.4219,
      "velocity": 127,
      "chip": "ym2612"
    },
    {
      "channel": 5,
      "note": 88,
      "start": 25.9653,
      "duration": 0.1358,
      "velocity": 88,
      "chip": "ym2612"
    },
    {
      "channel": 3,
      "note": 57,
      "start": 26.2385,
      "duration": 0.2291,
      "velocity": 95,
      "chip": "ym2612"
    },
    {
      "channel": 4,
      "note": 58,
      "start": 26.2426,
      "duration": 0.2751,
      "velocity": 127,
      "chip": "ym2612"
    },
    {
      "channel": 5,
      "note": 88,
      "start": 26.2461,
      "duration": 0.055,
      "velocity": 88,
      "chip": "ym2612"
    },
    {
      "channel": 3,
      "note": 56,
      "start": 26.5219,
      "duration": 0.2291,
      "velocity": 94,
      "chip": "ym2612"
    },
    {
      "channel": 4,
      "note": 58,
      "start": 26.5265,
      "duration": 0.2746,
      "velocity": 127,
      "chip": "ym2612"
    },
    {
      "channel": 1,
      "note": 63,
      "start": 26.529,
      "duration": 0.4053,
      "velocity": 127,
      "chip": "ym2612"
    },
    {
      "channel": 5,
      "note": 88,
      "start": 26.532,
      "duration": 0.1358,
      "velocity": 88,
      "chip": "ym2612"
    },
    {
      "channel": 3,
      "note": 56,
      "start": 26.8051,
      "duration": 0.2291,
      "velocity": 94,
      "chip": "ym2612"
    },
    {
      "channel": 4,
      "note": 58,
      "start": 26.8093,
      "duration": 0.275,
      "velocity": 127,
      "chip": "ym2612"
    },
    {
      "channel": 5,
      "note": 88,
      "start": 26.8124,
      "duration": 0.0554,
      "velocity": 88,
      "chip": "ym2612"
    },
    {
      "channel": 0,
      "note": 34,
      "start": 27.0872,
      "duration": 4.4971,
      "velocity": 90,
      "chip": "ym2612"
    },
    {
      "channel": 2,
      "note": 37,
      "start": 27.0912,
      "duration": 0.1265,
      "velocity": 125,
      "chip": "ym2612"
    },
    {
      "channel": 3,
      "note": 56,
      "start": 27.0964,
      "duration": 0.2213,
      "velocity": 94,
      "chip": "ym2612"
    },
    {
      "channel": 1,
      "note": 63,
      "start": 27.1014,
      "duration": 1.8495,
      "velocity": 127,
      "chip": "ym2612"
    },
    {
      "channel": 3,
      "note": 56,
      "start": 27.3714,
      "duration": 0.2297,
      "velocity": 94,
      "chip": "ym2612"
    },
    {
      "channel": 5,
      "note": 88,
      "start": 27.3768,
      "duration": 0.0577,
      "velocity": 88,
      "chip": "ym2612"
    },
    {
      "channel": 3,
      "note": 56,
      "start": 27.6551,
      "duration": 0.2292,
      "velocity": 92,
      "chip": "ym2612"
    },
    {
      "channel": 5,
      "note": 88,
      "start": 27.659,
      "duration": 0.1254,
      "velocity": 88,
      "chip": "ym2612"
    },
    {
      "channel": 3,
      "note": 56,
      "start": 27.9214,
      "duration": 0.2463,
      "velocity": 92,
      "chip": "ym2612"
    },
    {
      "channel": 5,
      "note": 88,
      "start": 27.9258,
      "duration": 0.0754,
      "velocity": 88,
      "chip": "ym2612"
    },
    {
      "channel": 3,
      "note": 55,
      "start": 28.2056,
      "duration": 0.2286,
      "velocity": 91,
      "chip": "ym2612"
    },
    {
      "channel": 4,
      "note": 58,
      "start": 28.2097,
      "duration": 0.1413,
      "velocity": 94,
      "chip": "ym2612"
    },
    {
      "channel": 5,
      "note": 88,
      "start": 28.213,
      "duration": 0.1383,
      "velocity": 88,
      "chip": "ym2612"
    },
    {
      "channel": 3,
      "note": 55,
      "start": 28.488,
      "duration": 0.2297,
      "velocity": 91,
      "chip": "ym2612"
    },
    {
      "channel": 5,
      "note": 88,
      "start": 28.4924,
      "duration": 0.0587,
      "velocity": 88,
      "chip": "ym2612"
    },
    {
      "channel": 3,
      "note": 54,
      "start": 28.7717,
      "duration": 0.2293,
      "velocity": 91,
      "chip": "ym2612"
    },
    {
      "channel": 5,
      "note": 88,
      "start": 28.7756,
      "duration": 0.1422,
      "velocity": 88,
      "chip": "ym2612"
    },
    {
      "channel": 3,
      "note": 54,
      "start": 29.0545,
      "duration": 0.2298,
      "velocity": 91,
      "chip": "ym2612"
    },
    {
      "channel": 5,
      "note": 88,
      "start": 29.0579,
      "duration": 0.0599,
      "velocity": 88,
      "chip": "ym2612"
    },
    {
      "channel": 3,
      "note": 54,
      "start": 29.338,
      "duration": 0.2296,
      "velocity": 91,
      "chip": "ym2612"
    },
    {
      "channel": 4,
      "note": 58,
      "start": 29.3422,
      "duration": 0.1254,
      "velocity": 94,
      "chip": "ym2612"
    },
    {
      "channel": 1,
      "note": 63,
      "start": 29.3452,
      "duration": 0.9057,
      "velocity": 127,
      "chip": "ym2612"
    },
    {
      "channel": 3,
      "note": 53,
      "start": 29.6218,
      "duration": 0.2291,
      "velocity": 90,
      "chip": "ym2612"
    },
    {
      "channel": 5,
      "note": 88,
      "start": 29.6268,
      "duration": 0.0576,
      "velocity": 88,
      "chip": "ym2612"
    },
    {
      "channel": 3,
      "note": 53,
      "start": 29.9046,
      "duration": 0.2297,
      "velocity": 90,
      "chip": "ym2612"
    },
    {
      "channel": 5,
      "note": 88,
      "start": 29.9091,
      "duration": 0.1254,
      "velocity": 88,
      "chip": "ym2612"
    },
    {
      "channel": 3,
      "note": 53,
      "start": 30.188,
      "duration": 0.2296,
      "velocity": 88,
      "chip": "ym2612"
    },
    {
      "channel": 5,
      "note": 88,
      "start": 30.1934,
      "duration": 0.0578,
      "velocity": 88,
      "chip": "ym2612"
    },
    {
      "channel": 2,
      "note": 58,
      "start": 30.3215,
      "duration": 0.1296,
      "velocity": 127,
      "chip": "ym2612"
    },
    {
      "channel": 3,
      "note": 53,
      "start": 30.4548,
      "duration": 0.2296,
      "velocity": 88,
      "chip": "ym2612"
    },
    {
      "channel": 2,
      "note": 58,
      "start": 30.4597,
      "duration": 0.2747,
      "velocity": 127,
      "chip": "ym2612"
    },
    {
      "channel": 1,
      "note": 63,
      "start": 30.4635,
      "duration": 0.4207,
      "velocity": 127,
      "chip": "ym2612"
    },
    {
      "channel": 5,
      "note": 88,
      "start": 30.4666,
      "duration": 0.1345,
      "velocity": 88,
      "chip": "ym2612"
    },
    {
      "channel": 3,
      "note": 52,
      "start": 30.738,
      "duration": 0.2295,
      "velocity": 88,
      "chip": "ym2612"
    },
    {
      "channel": 2,
      "note": 58,
      "start": 30.7418,
      "duration": 0.2759,
      "velocity": 127,
      "chip": "ym2612"
    },
    {
      "channel": 5,
      "note": 88,
      "start": 30.7454,
      "duration": 0.0722,
      "velocity": 88,
      "chip": "ym2612"
    },
    {
      "channel": 3,
      "note": 52,
      "start": 31.0218,
      "duration": 0.2293,
      "velocity": 88,
      "chip": "ym2612"
    },
    {
      "channel": 4,
      "note": 58,
      "start": 31.0252,
      "duration": 0.1424,
      "velocity": 94,
      "chip": "ym2612"
    },
    {
      "channel": 1,
      "note": 63,
      "start": 31.028,
      "duration": 0.4063,
      "velocity": 127,
      "chip": "ym2612"
    },
    {
      "channel": 5,
      "note": 88,
      "start": 31.031,
      "duration": 0.1369,
      "velocity": 88,
      "chip": "ym2612"
    },
    {
      "channel": 2,
      "note": 90,
      "start": 31.0903,
      "duration": 0.5609,
      "velocity": 99,
      "chip": "ym2612"
    },
    {
      "channel": 3,
      "note": 52,
      "start": 31.3048,
      "duration": 0.2296,
      "velocity": 88,
      "chip": "ym2612"
    },
    {
      "channel": 5,
      "note": 88,
      "start": 31.3093,
      "duration": 0.0585,
      "velocity": 88,
      "chip": "ym2612"
    },
    {
      "channel": 0,
      "note": 36,
      "start": 31.5873,
      "duration": 4.4969,
      "velocity": 90,
      "chip": "ym2612"
    },
    {
      "channel": 4,
      "note": 37,
      "start": 31.5912,
      "duration": 0.1265,
      "velocity": 125,
      "chip": "ym2612"
    },
    {
      "channel": 3,
      "note": 52,
      "start": 31.5964,
      "duration": 0.2214,
      "velocity": 88,
      "chip": "ym2612"
    },
    {
      "channel": 1,
      "note": 63,
      "start": 31.6015,
      "duration": 1.8494,
      "velocity": 127,
      "chip": "ym2612"
    },
    {
      "channel": 3,
      "note": 52,
      "start": 31.8716,
      "duration": 0.2294,
      "velocity": 88,
      "chip": "ym2612"
    },
    {
      "channel": 5,
      "note": 88,
      "start": 31.8766,
      "duration": 0.0579,
      "velocity": 88,
      "chip": "ym2612"
    },
    {
      "channel": 3,
      "note": 51,
      "start": 32.1548,
      "duration": 0.2296,
      "velocity": 88,
      "chip": "ym2612"
    },
    {
      "channel": 5,
      "note": 88,
      "start": 32.1593,
      "duration": 0.1251,
      "velocity": 88,
      "chip": "ym2612"
    },
    {
      "channel": 3,
      "note": 51,
      "start": 32.4379,
      "duration": 0.2298,
      "velocity": 88,
      "chip": "ym2612"
    },
    {
      "channel": 5,
      "note": 88,
      "start": 32.4423,
      "duration": 0.0588,
      "velocity": 88,
      "chip": "ym2612"
    },
    {
      "channel": 3,
      "note": 51,
      "start": 32.7051,
      "duration": 0.2458,
      "velocity": 88,
      "chip": "ym2612"
    },
    {
      "channel": 2,
      "note": 58,
      "start": 32.7089,
      "duration": 0.1423,
      "velocity": 94,
      "chip": "ym2612"
    },
    {
      "channel": 5,
      "note": 88,
      "start": 32.7121,
      "duration": 0.1389,
      "velocity": 88,
      "chip": "ym2612"
    },
    {
      "channel": 3,
      "note": 51,
      "start": 32.988,
      "duration": 0.2297,
      "velocity": 88,
      "chip": "ym2612"
    },
    {
      "channel": 5,
      "note": 88,
      "start": 32.9924,
      "duration": 0.0754,
      "velocity": 88,
      "chip": "ym2612"
    },
    {
      "channel": 3,
      "note": 51,
      "start": 33.2712,
      "duration": 0.2299,
      "velocity": 88,
      "chip": "ym2612"
    },
    {
      "channel": 5,
      "note": 88,
      "start": 33.2756,
      "duration": 0.1421,
      "velocity": 88,
      "chip": "ym2612"
    },
    {
      "channel": 4,
      "note": 85,
      "start": 33.4895,
      "duration": 1.5115,
      "velocity": 99,
      "chip": "ym2612"
    },
    {
      "channel": 3,
      "note": 51,
      "start": 33.5548,
      "duration": 0.2295,
      "velocity": 88,
      "chip": "ym2612"
    },
    {
      "channel": 5,
      "note": 88,
      "start": 33.5594,
      "duration": 0.0585,
      "velocity": 88,
      "chip": "ym2612"
    },
    {
      "channel": 3,
      "note": 51,
      "start": 33.8381,
      "duration": 0.2296,
      "velocity": 88,
      "chip": "ym2612"
    },
    {
      "channel": 2,
      "note": 58,
      "start": 33.8417,
      "duration": 0.1261,
      "velocity": 94,
      "chip": "ym2612"
    },
    {
      "channel": 1,
      "note": 63,
      "start": 33.8446,
      "duration": 0.2229,
      "velocity": 127,
      "chip": "ym2612"
    },
    {
      "channel": 3,
      "note": 51,
      "start": 34.1214,
      "duration": 0.2296,
      "velocity": 88,
      "chip": "ym2612"
    },
    {
      "channel": 1,
      "note": 63,
      "start": 34.1265,
      "duration": 0.7911,
      "velocity": 127,
      "chip": "ym2612"
    },
    {
      "channel": 5,
      "note": 88,
      "start": 34.1312,
      "duration": 0.0532,
      "velocity": 88,
      "chip": "ym2612"
    },
    {
      "channel": 3,
      "note": 52,
      "start": 34.4047,
      "duration": 0.2296,
      "velocity": 88,
      "chip": "ym2612"
    },
    {
      "channel": 5,
      "note": 88,
      "start": 34.4092,
      "duration": 0.1253,
      "velocity": 88,
      "chip": "ym2612"
    },
    {
      "channel": 3,
      "note": 52,
      "start": 34.688,
      "duration": 0.2298,
      "velocity": 88,
      "chip": "ym2612"
    },
    {
      "channel": 5,
      "note": 88,
      "start": 34.6923,
      "duration": 0.0588,
      "velocity": 88,
      "chip": "ym2612"
    },
    {
      "channel": 3,
      "note": 52,
      "start": 34.9551,
      "duration": 0.2459,
      "velocity": 88,
      "chip": "ym2612"
    },
    {
      "channel": 2,
      "note": 58,
      "start": 34.9587,
      "duration": 0.1426,
      "velocity": 94,
      "chip": "ym2612"
    },
    {
      "channel": 1,
      "note": 63,
      "start": 34.9623,
      "duration": 0.4219,
      "velocity": 127,
      "chip": "ym2612"
    },
    {
      "channel": 5,
      "note": 88,
      "start": 34.9654,
      "duration": 0.1358,
      "velocity": 88,
      "chip": "ym2612"
    },
    {
      "channel": 3,
      "note": 53,
      "start": 35.238,
      "duration": 0.2296,
      "velocity": 88,
      "chip": "ym2612"
    },
    {
      "channel": 4,
      "note": 58,
      "start": 35.2423,
      "duration": 0.2753,
      "velocity": 127,
      "chip": "ym2612"
    },
    {
      "channel": 5,
      "note": 88,
      "start": 35.2458,
      "duration": 0.0719,
      "velocity": 88,
      "chip": "ym2612"
    },
    {
      "channel": 3,
      "note": 53,
      "start": 35.5214,
      "duration": 0.2296,
      "velocity": 88,
      "chip": "ym2612"
    },
    {
      "channel": 4,
      "note": 58,
      "start": 35.5263,
      "duration": 0.2748,
      "velocity": 127,
      "chip": "ym2612"
    },
    {
      "channel": 1,
      "note": 63,
      "start": 35.5302,
      "duration": 0.2707,
      "velocity": 127,
      "chip": "ym2612"
    },
    {
      "channel": 5,
      "note": 88,
      "start": 35.5332,
      "duration": 0.1345,
      "velocity": 88,
      "chip": "ym2612"
    },
    {
      "channel": 3,
      "note": 54,
      "start": 35.8048,
      "duration": 0.2295,
      "velocity": 88,
      "chip": "ym2612"
    },
    {
      "channel": 4,
      "note": 58,
      "start": 35.8081,
      "duration": 0.2763,
      "velocity": 127,
      "chip": "ym2612"
    },
    {
      "channel": 1,
      "note": 63,
      "start": 35.8109,
      "duration": 0.2567,
      "velocity": 127,
      "chip": "ym2612"
    },
    {
      "channel": 5,
      "note": 88,
      "start": 35.8139,
      "duration": 0.0539,
      "velocity": 88,
      "chip": "ym2612"
    },
    {
      "channel": 0,
      "note": 38,
      "start": 36.0901,
      "duration": 4.4299,
      "velocity": 90,
      "chip": "ym2612"
    },
    {
      "channel": 2,
      "note": 37,
      "start": 36.094,
      "duration": 0.1239,
      "velocity": 125,
      "chip": "ym2612"
    },
    {
      "channel": 3,
      "note": 54,
      "start": 36.1009,
      "duration": 0.2168,
      "velocity": 91,
      "chip": "ym2612"
    },
    {
      "channel": 1,
      "note": 63,
      "start": 36.1085,
      "duration": 0.2592,
      "velocity": 127,
      "chip": "ym2612"
    },
    {
      "channel": 3,
      "note": 55,
      "start": 36.3714,
      "duration": 0.2296,
      "velocity": 91,
      "chip": "ym2612"
    },
    {
      "channel": 1,
      "note": 63,
      "start": 36.3762,
      "duration": 1.0415,
      "velocity": 127,
      "chip": "ym2612"
    },
    {
      "channel": 5,
      "note": 88,
      "start": 36.3805,
      "duration": 0.0539,
      "velocity": 88,
      "chip": "ym2612"
    },
    {
      "channel": 3,
      "note": 55,
      "start": 36.6546,
      "duration": 0.2298,
      "velocity": 91,
      "chip": "ym2612"
    },
    {
      "channel": 4,
      "note": 87,
      "start": 36.6593,
      "duration": 3.3584,
      "velocity": 99,
      "chip": "ym2612"
    },
    {
      "channel": 5,
      "note": 88,
      "start": 36.6646,
      "duration": 0.1199,
      "velocity": 88,
      "chip": "ym2612"
    },
    {
      "channel": 3,
      "note": 55,
      "start": 36.9382,
      "duration": 0.2294,
      "velocity": 91,
      "chip": "ym2612"
    },
    {
      "channel": 5,
      "note": 88,
      "start": 36.9431,
      "duration": 0.058,
      "velocity": 88,
      "chip": "ym2612"
    },
    {
      "channel": 3,
      "note": 55,
      "start": 37.2214,
      "duration": 0.2295,
      "velocity": 91,
      "chip": "ym2612"
    },
    {
      "channel": 2,
      "note": 58,
      "start": 37.2273,
      "duration": 0.1239,
      "velocity": 94,
      "chip": "ym2612"
    },
    {
      "channel": 5,
      "note": 88,
      "start": 37.2306,
      "duration": 0.1205,
      "velocity": 88,
      "chip": "ym2612"
    },
    {
      "channel": 3,
      "note": 56,
      "start": 37.4881,
      "duration": 0.2296,
      "velocity": 91,
      "chip": "ym2612"
    },
    {
      "channel": 5,
      "note": 88,
      "start": 37.4924,
      "duration": 0.0753,
      "velocity": 88,
      "chip": "ym2612"
    },
    {
      "channel": 3,
      "note": 56,
      "start": 37.7714,
      "duration": 0.2296,
      "velocity": 91,
      "chip": "ym2612"
    },
    {
      "channel": 1,
      "note": 63,
      "start": 37.777,
      "duration": 0.424,
      "velocity": 127,
      "chip": "ym2612"
    },
    {
      "channel": 3,
      "note": 56,
      "start": 38.0546,
      "duration": 0.2297,
      "velocity": 92,
      "chip": "ym2612"
    },
    {
      "channel": 5,
      "note": 88,
      "start": 38.0585,
      "duration": 0.0593,
      "velocity": 88,
      "chip": "ym2612"
    },
    {
      "channel": 3,
      "note": 56,
      "start": 38.338,
      "duration": 0.2298,
      "velocity": 92,
      "chip": "ym2612"
    },
    {
      "channel": 2,
      "note": 58,
      "start": 38.3415,
      "duration": 0.1263,
      "velocity": 94,
      "chip": "ym2612"
    },
    {
      "channel": 1,
      "note": 63,
      "start": 38.3453,
      "duration": 0.2723,
      "velocity": 127,
      "chip": "ym2612"
    },
    {
      "channel": 3,
      "note": 56,
      "start": 38.6214,
      "duration": 0.2296,
      "velocity": 92,
      "chip": "ym2612"
    },
    {
      "channel": 5,
      "note": 88,
      "start": 38.6264,
      "duration": 0.0581,
      "velocity": 88,
      "chip": "ym2612"
    },
    {
      "channel": 3,
      "note": 57,
      "start": 38.9046,
      "duration": 0.2296,
      "velocity": 92,
      "chip": "ym2612"
    },
    {
      "channel": 5,
      "note": 88,
      "start": 38.909,
      "duration": 0.1254,
      "velocity": 88,
      "chip": "ym2612"
    },
    {
      "channel": 3,
      "note": 57,
      "start": 39.188,
      "duration": 0.2296,
      "velocity": 92,
      "chip": "ym2612"
    },
    {
      "channel": 5,
      "note": 88,
      "start": 39.192,
      "duration": 0.0591,
      "velocity": 88,
      "chip": "ym2612"
    },
    {
      "channel": 3,
      "note": 58,
      "start": 39.4717,
      "duration": 0.2292,
      "velocity": 92,
      "chip": "ym2612"
    },
    {
      "channel": 2,
      "note": 58,
      "start": 39.4759,
      "duration": 0.1253,
      "velocity": 94,
      "chip": "ym2612"
    },
    {
      "channel": 5,
      "note": 88,
      "start": 39.4792,
      "duration": 0.122,
      "velocity": 88,
      "chip": "ym2612"
    },
    {
      "channel": 3,
      "note": 58,
      "start": 39.738,
      "duration": 0.2297,
      "velocity": 95,
      "chip": "ym2612"
    },
    {
      "channel": 5,
      "note": 88,
      "start": 39.7419,
      "duration": 0.0758,
      "velocity": 88,
      "chip": "ym2612"
    },
    {
      "channel": 3,
      "note": 58,
      "start": 40.0223,
      "duration": 0.2288,
      "velocity": 97,
      "chip": "ym2612"
    },
    {
      "channel": 2,
      "note": 58,
      "start": 40.0266,
      "duration": 0.1414,
      "velocity": 94,
      "chip": "ym2612"
    },
    {
      "channel": 5,
      "note": 88,
      "start": 40.0308,
      "duration": 0.137,
      "velocity": 88,
      "chip": "ym2612"
    },
    {
      "channel": 3,
      "note": 59,
      "start": 40.3046,
      "duration": 0.2154,
      "velocity": 97,
      "chip": "ym2612"
    },
    {
      "channel": 5,
      "note": 88,
      "start": 40.3085,
      "duration": 0.0593,
      "velocity": 88,
      "chip": "ym2612"
    }
  ]
}