{
  "track_name": "11 - False",
  "duration_sec": 93.43,
  "sample_rate": 44100,
  "note_count": 283,
  "unique_pitches": 10,
  "pitch_range": 19,
  "avg_note_duration": 1.3826,
  "reconstruction_stats": {
    "notes_reconstructed": 283,
    "keyon_events": 283,
    "keyoff_events": 277,
    "orphan_keyons": 4,
    "unique_pitches": 10,
    "pitch_range": 19,
    "avg_duration_sec": 1.3826
  },
  "metadata": {
    "source": "D\\Dengeki Nurse\\11 - False.vgz"
  },
  "notes": [
    {
      "channel": 0,
      "note": 53,
      "start": 0.009,
      "duration": 0.1293,
      "velocity": 95,
      "chip": "ym2612"
    },
    {
      "channel": 2,
      "note": 53,
      "start": 0.0113,
      "duration": 2.6796,
      "velocity": 95,
      "chip": "ym2612"
    },
    {
      "channel": 3,
      "note": 60,
      "start": 0.0128,
      "duration": 2.6782,
      "velocity": 95,
      "chip": "ym2612"
    },
    {
      "channel": 4,
      "note": 53,
      "start": 0.1162,
      "duration": 0.1548,
      "velocity": 95,
      "chip": "ym2612"
    },
    {
      "channel": 5,
      "note": 53,
      "start": 0.1397,
      "duration": 0.1548,
      "velocity": 95,
      "chip": "ym2612"
    },
    {
      "channel": 0,
      "note": 60,
      "start": 0.1699,
      "duration": 0.1558,
      "velocity": 95,
      "chip": "ym2612"
    },
    {
      "channel": 4,
      "note": 60,
      "start": 0.3027,
      "duration": 0.1379,
      "velocity": 95,
      "chip": "ym2612"
    },
    {
      "channel": 5,
      "note": 60,
      "start": 0.3262,
      "duration": 0.1501,
      "velocity": 95,
      "chip": "ym2612"
    },
    {
      "channel": 0,
      "note": 56,
      "start": 0.3574,
      "duration": 0.1185,
      "velocity": 95,
      "chip": "ym2612"
    },
    {
      "channel": 4,
      "note": 56,
      "start": 0.4528,
      "duration": 0.1558,
      "velocity": 95,
      "chip": "ym2612"
    },
    {
      "channel": 5,
      "note": 56,
      "start": 0.4763,
      "duration": 0.1557,
      "velocity": 95,
      "chip": "ym2612"
    },
    {
      "channel": 0,
      "note": 60,
      "start": 0.5075,
      "duration": 0.1558,
      "velocity": 95,
      "chip": "ym2612"
    },
    {
      "channel": 4,
      "note": 60,
      "start": 0.6402,
      "duration": 0.1724,
      "velocity": 95,
      "chip": "ym2612"
    },
    {
      "channel": 5,
      "note": 60,
      "start": 0.6637,
      "duration": 0.1724,
      "velocity": 95,
      "chip": "ym2612"
    },
    {
      "channel": 0,
      "note": 61,
      "start": 0.6949,
      "duration": 0.1724,
      "velocity": 95,
      "chip": "ym2612"
    },
    {
      "channel": 4,
      "note": 61,
      "start": 0.8443,
      "duration": 0.1558,
      "velocity": 95,
      "chip": "ym2612"
    },
    {
      "channel": 5,
      "note": 61,
      "start": 0.8678,
      "duration": 0.1558,
      "velocity": 95,
      "chip": "ym2612"
    },
    {
      "channel": 0,
      "note": 58,
      "start": 0.899,
      "duration": 0.1558,
      "velocity": 95,
      "chip": "ym2612"
    },
    {
      "channel": 4,
      "note": 58,
      "start": 1.0318,
      "duration": 0.1323,
      "velocity": 95,
      "chip": "ym2612"
    },
    {
      "channel": 5,
      "note": 58,
      "start": 1.0553,
      "duration": 0.1322,
      "velocity": 95,
      "chip": "ym2612"
    },
    {
      "channel": 0,
      "note": 60,
      "start": 1.0864,
      "duration": 0.1324,
      "velocity": 95,
      "chip": "ym2612"
    },
    {
      "channel": 4,
      "note": 60,
      "start": 1.1957,
      "duration": 0.1558,
      "velocity": 95,
      "chip": "ym2612"
    },
    {
      "channel": 5,
      "note": 60,
      "start": 1.2193,
      "duration": 0.1557,
      "velocity": 95,
      "chip": "ym2612"
    },
    {
      "channel": 0,
      "note": 56,
      "start": 1.2504,
      "duration": 0.1558,
      "velocity": 95,
      "chip": "ym2612"
    },
    {
      "channel": 4,
      "note": 56,
      "start": 1.3832,
      "duration": 0.1724,
      "velocity": 95,
      "chip": "ym2612"
    },
    {
      "channel": 5,
      "note": 56,
      "start": 1.4067,
      "duration": 0.1724,
      "velocity": 95,
      "chip": "ym2612"
    },
    {
      "channel": 0,
      "note": 58,
      "start": 1.4379,
      "duration": 0.1724,
      "velocity": 95,
      "chip": "ym2612"
    },
    {
      "channel": 4,
      "note": 58,
      "start": 1.5873,
      "duration": 0.1558,
      "velocity": 95,
      "chip": "ym2612"
    },
    {
      "channel": 5,
      "note": 58,
      "start": 1.6107,
      "duration": 0.1558,
      "velocity": 95,
      "chip": "ym2612"
    },
    {
      "channel": 0,
      "note": 55,
      "start": 1.6419,
      "duration": 0.1558,
      "velocity": 95,
      "chip": "ym2612"
    },
    {
      "channel": 4,
      "note": 55,
      "start": 1.7747,
      "duration": 0.1378,
      "velocity": 95,
      "chip": "ym2612"
    },
    {
      "channel": 5,
      "note": 55,
      "start": 1.7982,
      "duration": 0.1205,
      "velocity": 95,
      "chip": "ym2612"
    },
    {
      "channel": 0,
      "note": 56,
      "start": 1.8294,
      "duration": 0.1207,
      "velocity": 95,
      "chip": "ym2612"
    },
    {
      "channel": 4,
      "note": 56,
      "start": 1.927,
      "duration": 0.1558,
      "velocity": 95,
      "chip": "ym2612"
    },
    {
      "channel": 5,
      "note": 56,
      "start": 1.9506,
      "duration": 0.1556,
      "velocity": 95,
      "chip": "ym2612"
    },
    {
      "channel": 0,
      "note": 53,
      "start": 1.9816,
      "duration": 0.1558,
      "velocity": 95,
      "chip": "ym2612"
    },
    {
      "channel": 4,
      "note": 53,
      "start": 2.1144,
      "duration": 0.1724,
      "velocity": 95,
      "chip": "ym2612"
    },
    {
      "channel": 5,
      "note": 53,
      "start": 2.1379,
      "duration": 0.1724,
      "velocity": 95,
      "chip": "ym2612"
    },
    {
      "channel": 0,
      "note": 55,
      "start": 2.1693,
      "duration": 0.1722,
      "velocity": 95,
      "chip": "ym2612"
    },
    {
      "channel": 4,
      "note": 55,
      "start": 2.3184,
      "duration": 0.1558,
      "velocity": 95,
      "chip": "ym2612"
    },
    {
      "channel": 5,
      "note": 55,
      "start": 2.3419,
      "duration": 0.1558,
      "velocity": 95,
      "chip": "ym2612"
    },
    {
      "channel": 0,
      "note": 51,
      "start": 2.3731,
      "duration": 0.1558,
      "velocity": 95,
      "chip": "ym2612"
    },
    {
      "channel": 4,
      "note": 51,
      "start": 2.5059,
      "duration": 0.1351,
      "velocity": 95,
      "chip": "ym2612"
    },
    {
      "channel": 5,
      "note": 51,
      "start": 2.5294,
      "duration": 0.1147,
      "velocity": 95,
      "chip": "ym2612"
    },
    {
      "channel": 0,
      "note": 53,
      "start": 2.5606,
      "duration": 0.1149,
      "velocity": 95,
      "chip": "ym2612"
    },
    {
      "channel": 4,
      "note": 53,
      "start": 2.6523,
      "duration": 0.1637,
      "velocity": 95,
      "chip": "ym2612"
    },
    {
      "channel": 5,
      "note": 53,
      "start": 2.676,
      "duration": 0.1634,
      "velocity": 95,
      "chip": "ym2612"
    },
    {
      "channel": 0,
      "note": 55,
      "start": 2.707,
      "duration": 0.1636,
      "velocity": 95,
      "chip": "ym2612"
    },
    {
      "channel": 2,
      "note": 53,
      "start": 2.7074,
      "duration": 0.0773,
      "velocity": 95,
      "chip": "ym2612"
    },
    {
      "channel": 3,
      "note": 60,
      "start": 2.7079,
      "duration": 0.0768,
      "velocity": 95,
      "chip": "ym2612"
    },
    {
      "channel": 2,
      "note": 53,
      "start": 2.8085,
      "duration": 0.0777,
      "velocity": 95,
      "chip": "ym2612"
    },
    {
      "channel": 3,
      "note": 60,
      "start": 2.809,
      "duration": 0.0773,
      "velocity": 95,
      "chip": "ym2612"
    },
    {
      "channel": 4,
      "note": 55,
      "start": 2.8476,
      "duration": 0.1724,
      "velocity": 95,
      "chip": "ym2612"
    },
    {
      "channel": 5,
      "note": 55,
      "start": 2.8711,
      "duration": 0.1724,
      "velocity": 95,
      "chip": "ym2612"
    },
    {
      "channel": 0,
      "note": 53,
      "start": 2.9023,
      "duration": 0.1724,
      "velocity": 95,
      "chip": "ym2612"
    },
    {
      "channel": 2,
      "note": 53,
      "start": 2.9027,
      "duration": 2.2847,
      "velocity": 95,
      "chip": "ym2612"
    },
    {
      "channel": 3,
      "note": 60,
      "start": 2.9032,
      "duration": 2.2843,
      "velocity": 95,
      "chip": "ym2612"
    },
    {
      "channel": 4,
      "note": 53,
      "start": 3.0516,
      "duration": 0.1558,
      "velocity": 95,
      "chip": "ym2612"
    },
    {
      "channel": 5,
      "note": 53,
      "start": 3.0751,
      "duration": 0.1558,
      "velocity": 95,
      "chip": "ym2612"
    },
    {
      "channel": 0,
      "note": 60,
      "start": 3.1063,
      "duration": 0.1558,
      "velocity": 95,
      "chip": "ym2612"
    },
    {
      "channel": 4,
      "note": 60,
      "start": 3.2391,
      "duration": 0.1302,
      "velocity": 95,
      "chip": "ym2612"
    },
    {
      "channel": 5,
      "note": 60,
      "start": 3.2626,
      "duration": 0.1299,
      "velocity": 95,
      "chip": "ym2612"
    },
    {
      "channel": 0,
      "note": 56,
      "start": 3.2938,
      "duration": 0.13,
      "velocity": 95,
      "chip": "ym2612"
    },
    {
      "channel": 4,
      "note": 56,
      "start": 3.4007,
      "duration": 0.1557,
      "velocity": 95,
      "chip": "ym2612"
    },
    {
      "channel": 5,
      "note": 56,
      "start": 3.4242,
      "duration": 0.1557,
      "velocity": 95,
      "chip": "ym2612"
    },
    {
      "channel": 0,
      "note": 60,
      "start": 3.4554,
      "duration": 0.1557,
      "velocity": 95,
      "chip": "ym2612"
    },
    {
      "channel": 4,
      "note": 60,
      "start": 3.5881,
      "duration": 0.1724,
      "velocity": 95,
      "chip": "ym2612"
    },
    {
      "channel": 5,
      "note": 60,
      "start": 3.6116,
      "duration": 0.1724,
      "velocity": 95,
      "chip": "ym2612"
    },
    {
      "channel": 0,
      "note": 61,
      "start": 3.6428,
      "duration": 0.1724,
      "velocity": 95,
      "chip": "ym2612"
    },
    {
      "channel": 4,
      "note": 61,
      "start": 3.7922,
      "duration": 0.1558,
      "velocity": 95,
      "chip": "ym2612"
    },
    {
      "channel": 5,
      "note": 61,
      "start": 3.8156,
      "duration": 0.1558,
      "velocity": 95,
      "chip": "ym2612"
    },
    {
      "channel": 0,
      "note": 58,
      "start": 3.8468,
      "duration": 0.1558,
      "velocity": 95,
      "chip": "ym2612"
    },
    {
      "channel": 4,
      "note": 58,
      "start": 3.9797,
      "duration": 0.136,
      "velocity": 95,
      "chip": "ym2612"
    },
    {
      "channel": 5,
      "note": 58,
      "start": 4.0032,
      "duration": 0.1161,
      "velocity": 95,
      "chip": "ym2612"
    },
    {
      "channel": 0,
      "note": 60,
      "start": 4.0343,
      "duration": 0.1161,
      "velocity": 95,
      "chip": "ym2612"
    },
    {
      "channel": 4,
      "note": 60,
      "start": 4.1274,
      "duration": 0.1558,
      "velocity": 95,
      "chip": "ym2612"
    },
    {
      "channel": 5,
      "note": 60,
      "start": 4.1509,
      "duration": 0.1558,
      "velocity": 95,
      "chip": "ym2612"
    },
    {
      "channel": 0,
      "note": 56,
      "start": 4.1821,
      "duration": 0.1558,
      "velocity": 95,
      "chip": "ym2612"
    },
    {
      "channel": 4,
      "note": 56,
      "start": 4.3149,
      "duration": 0.1724,
      "velocity": 95,
      "chip": "ym2612"
    },
    {
      "channel": 5,
      "note": 56,
      "start": 4.3384,
      "duration": 0.1724,
      "velocity": 95,
      "chip": "ym2612"
    },
    {
      "channel": 0,
      "note": 58,
      "start": 4.3696,
      "duration": 0.1724,
      "velocity": 95,
      "chip": "ym2612"
    },
    {
      "channel": 4,
      "note": 58,
      "start": 4.519,
      "duration": 0.1558,
      "velocity": 95,
      "chip": "ym2612"
    },
    {
      "channel": 5,
      "note": 58,
      "start": 4.5424,
      "duration": 0.1558,
      "velocity": 95,
      "chip": "ym2612"
    },
    {
      "channel": 0,
      "note": 55,
      "start": 4.5736,
      "duration": 0.1558,
      "velocity": 95,
      "chip": "ym2612"
    },
    {
      "channel": 4,
      "note": 55,
      "start": 4.7064,
      "duration": 0.14,
      "velocity": 95,
      "chip": "ym2612"
    },
    {
      "channel": 5,
      "note": 55,
      "start": 4.7299,
      "duration": 0.1251,
      "velocity": 95,
      "chip": "ym2612"
    },
    {
      "channel": 0,
      "note": 56,
      "start": 4.7611,
      "duration": 0.1251,
      "velocity": 95,
      "chip": "ym2612"
    },
    {
      "channel": 4,
      "note": 56,
      "start": 4.8632,
      "duration": 0.1318,
      "velocity": 95,
      "chip": "ym2612"
    },
    {
      "channel": 5,
      "note": 56,
      "start": 4.8867,
      "duration": 0.1027,
      "velocity": 95,
      "chip": "ym2612"
    },
    {
      "channel": 0,
      "note": 53,
      "start": 4.9179,
      "duration": 0.1002,
      "velocity": 95,
      "chip": "ym2612"
    },
    {
      "channel": 4,
      "note": 53,
      "start": 4.9951,
      "duration": 0.1224,
      "velocity": 95,
      "chip": "ym2612"
    },
    {
      "channel": 5,
      "note": 53,
      "start": 5.0185,
      "duration": 0.1221,
      "velocity": 95,
      "chip": "ym2612"
    },
    {
      "channel": 0,
      "note": 55,
      "start": 5.0497,
      "duration": 0.1221,
      "velocity": 95,
      "chip": "ym2612"
    },
    {
      "channel": 4,
      "note": 55,
      "start": 5.1488,
      "duration": 0.1327,
      "velocity": 95,
      "chip": "ym2612"
    },
    {
      "channel": 5,
      "note": 55,
      "start": 5.1723,
      "duration": 0.1327,
      "velocity": 95,
      "chip": "ym2612"
    },
    {
      "channel": 0,
      "note": 56,
      "start": 5.2044,
      "duration": 0.327,
      "velocity": 95,
      "chip": "ym2612"
    },
    {
      "channel": 1,
      "note": 56,
      "start": 5.2049,
      "duration": 0.3266,
      "velocity": 99,
      "chip": "ym2612"
    },
    {
      "channel": 2,
      "note": 63,
      "start": 5.2054,
      "duration": 0.3262,
      "velocity": 95,
      "chip": "ym2612"
    },
    {
      "channel": 3,
      "note": 68,
      "start": 5.2058,
      "duration": 0.3258,
      "velocity": 95,
      "chip": "ym2612"
    },
    {
      "channel": 4,
      "note": 56,
      "start": 5.3141,
      "duration": 0.3247,
      "velocity": 95,
      "chip": "ym2612"
    },
    {
      "channel": 5,
      "note": 56,
      "start": 5.3377,
      "duration": 0.3251,
      "velocity": 95,
      "chip": "ym2612"
    },
    {
      "channel": 0,
      "note": 51,
      "start": 5.5553,
      "duration": 1.2462,
      "velocity": 95,
      "chip": "ym2612"
    },
    {
      "channel": 1,
      "note": 51,
      "start": 5.5558,
      "duration": 1.2458,
      "velocity": 99,
      "chip": "ym2612"
    },
    {
      "channel": 2,
      "note": 58,
      "start": 5.5562,
      "duration": 1.2454,
      "velocity": 95,
      "chip": "ym2612"
    },
    {
      "channel": 3,
      "note": 63,
      "start": 5.5567,
      "duration": 1.2449,
      "velocity": 95,
      "chip": "ym2612"
    },
    {
      "channel": 4,
      "note": 51,
      "start": 5.6627,
      "duration": 1.2574,
      "velocity": 95,
      "chip": "ym2612"
    },
    {
      "channel": 5,
      "note": 51,
      "start": 5.6862,
      "duration": 1.2574,
      "velocity": 95,
      "chip": "ym2612"
    },
    {
      "channel": 0,
      "note": 49,
      "start": 6.8175,
      "duration": 0.1573,
      "velocity": 95,
      "chip": "ym2612"
    },
    {
      "channel": 1,
      "note": 49,
      "start": 6.818,
      "duration": 0.1569,
      "velocity": 99,
      "chip": "ym2612"
    },
    {
      "channel": 2,
      "note": 56,
      "start": 6.8184,
      "duration": 0.1564,
      "velocity": 95,
      "chip": "ym2612"
    },
    {
      "channel": 3,
      "note": 61,
      "start": 6.8189,
      "duration": 0.156,
      "velocity": 95,
      "chip": "ym2612"
    },
    {
      "channel": 4,
      "note": 49,
      "start": 6.9362,
      "duration": 0.1483,
      "velocity": 95,
      "chip": "ym2612"
    },
    {
      "channel": 5,
      "note": 49,
      "start": 6.9596,
      "duration": 0.1483,
      "velocity": 95,
      "chip": "ym2612"
    },
    {
      "channel": 0,
      "note": 51,
      "start": 6.9908,
      "duration": 0.6539,
      "velocity": 95,
      "chip": "ym2612"
    },
    {
      "channel": 1,
      "note": 51,
      "start": 6.9913,
      "duration": 0.6534,
      "velocity": 99,
      "chip": "ym2612"
    },
    {
      "channel": 2,
      "note": 58,
      "start": 6.9917,
      "duration": 0.653,
      "velocity": 95,
      "chip": "ym2612"
    },
    {
      "channel": 3,
      "note": 63,
      "start": 6.9922,
      "duration": 0.6526,
      "velocity": 95,
      "chip": "ym2612"
    },
    {
      "channel": 4,
      "note": 51,
      "start": 7.1006,
      "duration": 0.6537,
      "velocity": 95,
      "chip": "ym2612"
    },
    {
      "channel": 5,
      "note": 51,
      "start": 7.124,
      "duration": 0.6537,
      "velocity": 95,
      "chip": "ym2612"
    },
    {
      "channel": 0,
      "note": 56,
      "start": 7.6764,
      "duration": 0.8153,
      "velocity": 95,
      "chip": "ym2612"
    },
    {
      "channel": 1,
      "note": 56,
      "start": 7.6768,
      "duration": 0.8149,
      "velocity": 99,
      "chip": "ym2612"
    },
    {
      "channel": 2,
      "note": 63,
      "start": 7.6773,
      "duration": 0.8144,
      "velocity": 95,
      "chip": "ym2612"
    },
    {
      "channel": 3,
      "note": 68,
      "start": 7.6777,
      "duration": 0.814,
      "velocity": 95,
      "chip": "ym2612"
    },
    {
      "channel": 4,
      "note": 56,
      "start": 7.7859,
      "duration": 0.8143,
      "velocity": 95,
      "chip": "ym2612"
    },
    {
      "channel": 5,
      "note": 56,
      "start": 7.8094,
      "duration": 0.8143,
      "velocity": 95,
      "chip": "ym2612"
    },
    {
      "channel": 0,
      "note": 53,
      "start": 8.5087,
      "duration": 0.1306,
      "velocity": 95,
      "chip": "ym2612"
    },
    {
      "channel": 2,
      "note": 53,
      "start": 8.5091,
      "duration": 2.6925,
      "velocity": 95,
      "chip": "ym2612"
    },
    {
      "channel": 3,
      "note": 60,
      "start": 8.5096,
      "duration": 2.6921,
      "velocity": 95,
      "chip": "ym2612"
    },
    {
      "channel": 4,
      "note": 53,
      "start": 8.6172,
      "duration": 0.1548,
      "velocity": 95,
      "chip": "ym2612"
    },
    {
      "channel": 5,
      "note": 53,
      "start": 8.6407,
      "duration": 0.1548,
      "velocity": 95,
      "chip": "ym2612"
    },
    {
      "channel": 0,
      "note": 60,
      "start": 8.6709,
      "duration": 0.1558,
      "velocity": 95,
      "chip": "ym2612"
    },
    {
      "channel": 4,
      "note": 60,
      "start": 8.8037,
      "duration": 0.1339,
      "velocity": 95,
      "chip": "ym2612"
    },
    {
      "channel": 5,
      "note": 60,
      "start": 8.8272,
      "duration": 0.1146,
      "velocity": 95,
      "chip": "ym2612"
    },
    {
      "channel": 0,
      "note": 56,
      "start": 8.8584,
      "duration": 0.1146,
      "velocity": 95,
      "chip": "ym2612"
    },
    {
      "channel": 4,
      "note": 56,
      "start": 8.95,
      "duration": 0.1558,
      "velocity": 95,
      "chip": "ym2612"
    },
    {
      "channel": 5,
      "note": 56,
      "start": 8.9735,
      "duration": 0.1557,
      "velocity": 95,
      "chip": "ym2612"
    },
    {
      "channel": 0,
      "note": 60,
      "start": 9.0047,
      "duration": 0.1558,
      "velocity": 95,
      "chip": "ym2612"
    },
    {
      "channel": 4,
      "note": 60,
      "start": 9.1374,
      "duration": 0.1724,
      "velocity": 95,
      "chip": "ym2612"
    },
    {
      "channel": 5,
      "note": 60,
      "start": 9.1609,
      "duration": 0.1724,
      "velocity": 95,
      "chip": "ym2612"
    },
    {
      "channel": 0,
      "note": 61,
      "start": 9.1921,
      "duration": 0.1724,
      "velocity": 95,
      "chip": "ym2612"
    },
    {
      "channel": 4,
      "note": 61,
      "start": 9.3415,
      "duration": 0.1558,
      "velocity": 95,
      "chip": "ym2612"
    },
    {
      "channel": 5,
      "note": 61,
      "start": 9.365,
      "duration": 0.1558,
      "velocity": 95,
      "chip": "ym2612"
    },
    {
      "channel": 0,
      "note": 58,
      "start": 9.3961,
      "duration": 0.1558,
      "velocity": 95,
      "chip": "ym2612"
    },
    {
      "channel": 4,
      "note": 58,
      "start": 9.529,
      "duration": 0.1391,
      "velocity": 95,
      "chip": "ym2612"
    },
    {
      "channel": 5,
      "note": 58,
      "start": 9.5524,
      "duration": 0.1224,
      "velocity": 95,
      "chip": "ym2612"
    },
    {
      "channel": 0,
      "note": 60,
      "start": 9.5836,
      "duration": 0.1225,
      "velocity": 95,
      "chip": "ym2612"
    },
    {
      "channel": 4,
      "note": 60,
      "start": 9.6831,
      "duration": 0.1558,
      "velocity": 95,
      "chip": "ym2612"
    },
    {
      "channel": 5,
      "note": 60,
      "start": 9.7066,
      "duration": 0.1558,
      "velocity": 95,
      "chip": "ym2612"
    },
    {
      "channel": 0,
      "note": 56,
      "start": 9.7378,
      "duration": 0.1558,
      "velocity": 95,
      "chip": "ym2612"
    },
    {
      "channel": 4,
      "note": 56,
      "start": 9.8706,
      "duration": 0.1726,
      "velocity": 95,
      "chip": "ym2612"
    },
    {
      "channel": 5,
      "note": 56,
      "start": 9.8941,
      "duration": 0.1723,
      "velocity": 95,
      "chip": "ym2612"
    },
    {
      "channel": 0,
      "note": 58,
      "start": 9.9252,
      "duration": 0.1724,
      "velocity": 95,
      "chip": "ym2612"
    },
    {
      "channel": 4,
      "note": 58,
      "start": 10.0746,
      "duration": 0.1558,
      "velocity": 95,
      "chip": "ym2612"
    },
    {
      "channel": 5,
      "note": 58,
      "start": 10.0982,
      "duration": 0.1557,
      "velocity": 95,
      "chip": "ym2612"
    },
    {
      "channel": 0,
      "note": 55,
      "start": 10.1293,
      "duration": 0.1558,
      "velocity": 95,
      "chip": "ym2612"
    },
    {
      "channel": 4,
      "note": 55,
      "start": 10.2621,
      "duration": 0.1345,
      "velocity": 95,
      "chip": "ym2612"
    },
    {
      "channel": 5,
      "note": 55,
      "start": 10.2856,
      "duration": 0.1164,
      "velocity": 95,
      "chip": "ym2612"
    },
    {
      "channel": 0,
      "note": 56,
      "start": 10.3168,
      "duration": 0.1164,
      "velocity": 95,
      "chip": "ym2612"
    },
    {
      "channel": 4,
      "note": 56,
      "start": 10.4102,
      "duration": 0.1558,
      "velocity": 95,
      "chip": "ym2612"
    },
    {
      "channel": 5,
      "note": 56,
      "start": 10.4336,
      "duration": 0.1557,
      "velocity": 95,
      "chip": "ym2612"
    },
    {
      "channel": 0,
      "note": 53,
      "start": 10.4648,
      "duration": 0.1558,
      "velocity": 95,
      "chip": "ym2612"
    },
    {
      "channel": 4,
      "note": 53,
      "start": 10.5976,
      "duration": 0.1724,
      "velocity": 95,
      "chip": "ym2612"
    },
    {
      "channel": 5,
      "note": 53,
      "start": 10.6211,
      "duration": 0.1723,
      "velocity": 95,
      "chip": "ym2612"
    },
    {
      "channel": 0,
      "note": 55,
      "start": 10.6522,
      "duration": 0.1725,
      "velocity": 95,
      "chip": "ym2612"
    },
    {
      "channel": 4,
      "note": 55,
      "start": 10.8016,
      "duration": 0.1636,
      "velocity": 95,
      "chip": "ym2612"
    },
    {
      "channel": 5,
      "note": 55,
      "start": 10.8252,
      "duration": 0.1635,
      "velocity": 95,
      "chip": "ym2612"
    },
    {
      "channel": 0,
      "note": 51,
      "start": 10.8563,
      "duration": 0.1637,
      "velocity": 95,
      "chip": "ym2612"
    },
    {
      "channel": 4,
      "note": 51,
      "start": 10.9969,
      "duration": 0.1344,
      "velocity": 95,
      "chip": "ym2612"
    },
    {
      "channel": 5,
      "note": 51,
      "start": 11.0204,
      "duration": 0.1344,
      "velocity": 95,
      "chip": "ym2612"
    },
    {
      "channel": 0,
      "note": 53,
      "start": 11.0516,
      "duration": 0.1344,
      "velocity": 95,
      "chip": "ym2612"
    },
    {
      "channel": 4,
      "note": 53,
      "start": 11.163,
      "duration": 0.1558,
      "velocity": 95,
      "chip": "ym2612"
    },
    {
      "channel": 5,
      "note": 53,
      "start": 11.1864,
      "duration": 0.1558,
      "velocity": 95,
      "chip": "ym2612"
    },
    {
      "channel": 0,
      "note": 55,
      "start": 11.2176,
      "duration": 0.1558,
      "velocity": 95,
      "chip": "ym2612"
    },
    {
      "channel": 2,
      "note": 53,
      "start": 11.2181,
      "duration": 0.0773,
      "velocity": 95,
      "chip": "ym2612"
    },
    {
      "channel": 3,
      "note": 60,
      "start": 11.2185,
      "duration": 0.0768,
      "velocity": 95,
      "chip": "ym2612"
    },
    {
      "channel": 2,
      "note": 53,
      "start": 11.3114,
      "duration": 0.0777,
      "velocity": 95,
      "chip": "ym2612"
    },
    {
      "channel": 3,
      "note": 60,
      "start": 11.3118,
      "duration": 0.0773,
      "velocity": 95,
      "chip": "ym2612"
    },
    {
      "channel": 4,
      "note": 55,
      "start": 11.3505,
      "duration": 0.1723,
      "velocity": 95,
      "chip": "ym2612"
    },
    {
      "channel": 5,
      "note": 55,
      "start": 11.3739,
      "duration": 0.1723,
      "velocity": 95,
      "chip": "ym2612"
    },
    {
      "channel": 0,
      "note": 53,
      "start": 11.4051,
      "duration": 0.1724,
      "velocity": 95,
      "chip": "ym2612"
    },
    {
      "channel": 2,
      "note": 53,
      "start": 11.4056,
      "duration": 2.2791,
      "velocity": 95,
      "chip": "ym2612"
    },
    {
      "channel": 3,
      "note": 60,
      "start": 11.406,
      "duration": 2.2787,
      "velocity": 95,
      "chip": "ym2612"
    },
    {
      "channel": 4,
      "note": 53,
      "start": 11.5545,
      "duration": 0.1558,
      "velocity": 95,
      "chip": "ym2612"
    },
    {
      "channel": 5,
      "note": 53,
      "start": 11.5779,
      "duration": 0.1558,
      "velocity": 95,
      "chip": "ym2612"
    },
    {
      "channel": 0,
      "note": 60,
      "start": 11.6091,
      "duration": 0.1558,
      "velocity": 95,
      "chip": "ym2612"
    },
    {
      "channel": 4,
      "note": 60,
      "start": 11.742,
      "duration": 0.1371,
      "velocity": 95,
      "chip": "ym2612"
    },
    {
      "channel": 5,
      "note": 60,
      "start": 11.7654,
      "duration": 0.1204,
      "velocity": 95,
      "chip": "ym2612"
    },
    {
      "channel": 0,
      "note": 56,
      "start": 11.7966,
      "duration": 0.1204,
      "velocity": 95,
      "chip": "ym2612"
    },
    {
      "channel": 4,
      "note": 56,
      "start": 11.894,
      "duration": 0.1558,
      "velocity": 95,
      "chip": "ym2612"
    },
    {
      "channel": 5,
      "note": 56,
      "start": 11.9175,
      "duration": 0.1557,
      "velocity": 95,
      "chip": "ym2612"
    },
    {
      "channel": 0,
      "note": 60,
      "start": 11.9487,
      "duration": 0.1558,
      "velocity": 95,
      "chip": "ym2612"
    },
    {
      "channel": 4,
      "note": 60,
      "start": 12.0815,
      "duration": 0.1724,
      "velocity": 95,
      "chip": "ym2612"
    },
    {
      "channel": 5,
      "note": 60,
      "start": 12.1049,
      "duration": 0.1724,
      "velocity": 95,
      "chip": "ym2612"
    },
    {
      "channel": 0,
      "note": 61,
      "start": 12.1361,
      "duration": 0.1724,
      "velocity": 95,
      "chip": "ym2612"
    },
    {
      "channel": 4,
      "note": 61,
      "start": 12.2855,
      "duration": 0.1558,
      "velocity": 95,
      "chip": "ym2612"
    },
    {
      "channel": 5,
      "note": 61,
      "start": 12.309,
      "duration": 0.1558,
      "velocity": 95,
      "chip": "ym2612"
    },
    {
      "channel": 0,
      "note": 58,
      "start": 12.3401,
      "duration": 0.1558,
      "velocity": 95,
      "chip": "ym2612"
    },
    {
      "channel": 4,
      "note": 58,
      "start": 12.473,
      "duration": 0.1323,
      "velocity": 95,
      "chip": "ym2612"
    },
    {
      "channel": 5,
      "note": 58,
      "start": 12.4964,
      "duration": 0.1323,
      "velocity": 95,
      "chip": "ym2612"
    },
    {
      "channel": 0,
      "note": 60,
      "start": 12.5276,
      "duration": 0.1323,
      "velocity": 95,
      "chip": "ym2612"
    },
    {
      "channel": 4,
      "note": 60,
      "start": 12.6369,
      "duration": 0.1558,
      "velocity": 95,
      "chip": "ym2612"
    },
    {
      "channel": 5,
      "note": 60,
      "start": 12.6604,
      "duration": 0.1558,
      "velocity": 95,
      "chip": "ym2612"
    },
    {
      "channel": 0,
      "note": 56,
      "start": 12.6916,
      "duration": 0.1558,
      "velocity": 95,
      "chip": "ym2612"
    },
    {
      "channel": 4,
      "note": 56,
      "start": 12.8244,
      "duration": 0.1724,
      "velocity": 95,
      "chip": "ym2612"
    },
    {
      "channel": 5,
      "note": 56,
      "start": 12.8479,
      "duration": 0.1723,
      "velocity": 95,
      "chip": "ym2612"
    },
    {
      "channel": 0,
      "note": 58,
      "start": 12.8791,
      "duration": 0.1724,
      "velocity": 95,
      "chip": "ym2612"
    },
    {
      "channel": 4,
      "note": 58,
      "start": 13.0285,
      "duration": 0.1558,
      "velocity": 95,
      "chip": "ym2612"
    },
    {
      "channel": 5,
      "note": 58,
      "start": 13.052,
      "duration": 0.1558,
      "velocity": 95,
      "chip": "ym2612"
    },
    {
      "channel": 0,
      "note": 55,
      "start": 13.0831,
      "duration": 0.1558,
      "velocity": 95,
      "chip": "ym2612"
    },
    {
      "channel": 4,
      "note": 55,
      "start": 13.216,
      "duration": 0.1374,
      "velocity": 95,
      "chip": "ym2612"
    },
    {
      "channel": 5,
      "note": 55,
      "start": 13.2394,
      "duration": 0.1186,
      "velocity": 95,
      "chip": "ym2612"
    },
    {
      "channel": 0,
      "note": 56,
      "start": 13.2706,
      "duration": 0.1186,
      "velocity": 95,
      "chip": "ym2612"
    },
    {
      "channel": 4,
      "note": 56,
      "start": 13.3663,
      "duration": 0.115,
      "velocity": 95,
      "chip": "ym2612"
    },
    {
      "channel": 5,
      "note": 56,
      "start": 13.3897,
      "duration": 0.0983,
      "velocity": 95,
      "chip": "ym2612"
    },
    {
      "channel": 0,
      "note": 53,
      "start": 13.4209,
      "duration": 0.0925,
      "velocity": 95,
      "chip": "ym2612"
    },
    {
      "channel": 4,
      "note": 53,
      "start": 13.4904,
      "duration": 0.124,
      "velocity": 95,
      "chip": "ym2612"
    },
    {
      "channel": 5,
      "note": 53,
      "start": 13.5139,
      "duration": 0.1239,
      "velocity": 95,
      "chip": "ym2612"
    },
    {
      "channel": 0,
      "note": 55,
      "start": 13.5451,
      "duration": 0.124,
      "velocity": 95,
      "chip": "ym2612"
    },
    {
      "channel": 4,
      "note": 55,
      "start": 13.6461,
      "duration": 0.1315,
      "velocity": 95,
      "chip": "ym2612"
    },
    {
      "channel": 5,
      "note": 55,
      "start": 13.6695,
      "duration": 0.1315,
      "velocity": 95,
      "chip": "ym2612"
    },
    {
      "channel": 0,
      "note": 56,
      "start": 13.7017,
      "duration": 0.3259,
      "velocity": 95,
      "chip": "ym2612"
    },
    {
      "channel": 1,
      "note": 56,
      "start": 13.7021,
      "duration": 0.3254,
      "velocity": 99,
      "chip": "ym2612"
    },
    {
      "channel": 2,
      "note": 63,
      "start": 13.7026,
      "duration": 0.325,
      "velocity": 95,
      "chip": "ym2612"
    },
    {
      "channel": 3,
      "note": 68,
      "start": 13.703,
      "duration": 0.3246,
      "velocity": 95,
      "chip": "ym2612"
    },
    {
      "channel": 4,
      "note": 56,
      "start": 13.8102,
      "duration": 0.3271,
      "velocity": 95,
      "chip": "ym2612"
    },
    {
      "channel": 5,
      "note": 56,
      "start": 13.8337,
      "duration": 0.3275,
      "velocity": 95,
      "chip": "ym2612"
    },
    {
      "channel": 0,
      "note": 51,
      "start": 14.0514,
      "duration": 1.2562,
      "velocity": 95,
      "chip": "ym2612"
    },
    {
      "channel": 1,
      "note": 51,
      "start": 14.0518,
      "duration": 1.2558,
      "velocity": 99,
      "chip": "ym2612"
    },
    {
      "channel": 2,
      "note": 58,
      "start": 14.0523,
      "duration": 1.2554,
      "velocity": 95,
      "chip": "ym2612"
    },
    {
      "channel": 3,
      "note": 63,
      "start": 14.0527,
      "duration": 1.255,
      "velocity": 95,
      "chip": "ym2612"
    },
    {
      "channel": 4,
      "note": 51,
      "start": 14.1611,
      "duration": 1.2572,
      "velocity": 95,
      "chip": "ym2612"
    },
    {
      "channel": 5,
      "note": 51,
      "start": 14.1846,
      "duration": 1.2572,
      "velocity": 95,
      "chip": "ym2612"
    },
    {
      "channel": 0,
      "note": 49,
      "start": 15.3237,
      "duration": 0.1493,
      "velocity": 95,
      "chip": "ym2612"
    },
    {
      "channel": 1,
      "note": 49,
      "start": 15.3241,
      "duration": 0.1489,
      "velocity": 99,
      "chip": "ym2612"
    },
    {
      "channel": 2,
      "note": 56,
      "start": 15.3246,
      "duration": 0.1485,
      "velocity": 95,
      "chip": "ym2612"
    },
    {
      "channel": 3,
      "note": 61,
      "start": 15.325,
      "duration": 0.1481,
      "velocity": 95,
      "chip": "ym2612"
    },
    {
      "channel": 4,
      "note": 49,
      "start": 15.4344,
      "duration": 0.1484,
      "velocity": 95,
      "chip": "ym2612"
    },
    {
      "channel": 5,
      "note": 49,
      "start": 15.4578,
      "duration": 0.1484,
      "velocity": 95,
      "chip": "ym2612"
    },
    {
      "channel": 0,
      "note": 51,
      "start": 15.489,
      "duration": 0.6527,
      "velocity": 95,
      "chip": "ym2612"
    },
    {
      "channel": 1,
      "note": 51,
      "start": 15.4895,
      "duration": 0.6523,
      "velocity": 99,
      "chip": "ym2612"
    },
    {
      "channel": 2,
      "note": 58,
      "start": 15.49,
      "duration": 0.6519,
      "velocity": 95,
      "chip": "ym2612"
    },
    {
      "channel": 3,
      "note": 63,
      "start": 15.4904,
      "duration": 0.6515,
      "velocity": 95,
      "chip": "ym2612"
    },
    {
      "channel": 4,
      "note": 51,
      "start": 15.5988,
      "duration": 0.6504,
      "velocity": 95,
      "chip": "ym2612"
    },
    {
      "channel": 5,
      "note": 51,
      "start": 15.6222,
      "duration": 0.6504,
      "velocity": 95,
      "chip": "ym2612"
    },
    {
      "channel": 0,
      "note": 56,
      "start": 16.1734,
      "duration": 0.8137,
      "velocity": 95,
      "chip": "ym2612"
    },
    {
      "channel": 1,
      "note": 56,
      "start": 16.1739,
      "duration": 0.8132,
      "velocity": 99,
      "chip": "ym2612"
    },
    {
      "channel": 2,
      "note": 63,
      "start": 16.1743,
      "duration": 0.8128,
      "velocity": 95,
      "chip": "ym2612"
    },
    {
      "channel": 3,
      "note": 68,
      "start": 16.1748,
      "duration": 0.8124,
      "velocity": 95,
      "chip": "ym2612"
    },
    {
      "channel": 4,
      "note": 56,
      "start": 16.2808,
      "duration": 0.8148,
      "velocity": 95,
      "chip": "ym2612"
    },
    {
      "channel": 5,
      "note": 56,
      "start": 16.3043,
      "duration": 0.8148,
      "velocity": 95,
      "chip": "ym2612"
    },
    {
      "channel": 0,
      "note": 53,
      "start": 17.0041,
      "duration": 0.1306,
      "velocity": 95,
      "chip": "ym2612"
    },
    {
      "channel": 2,
      "note": 53,
      "start": 17.0046,
      "duration": 76.4253,
      "velocity": 95,
      "chip": "ym2612"
    },
    {
      "channel": 3,
      "note": 60,
      "start": 17.005,
      "duration": 76.4249,
      "velocity": 95,
      "chip": "ym2612"
    },
    {
      "channel": 4,
      "note": 53,
      "start": 17.1127,
      "duration": 0.1549,
      "velocity": 95,
      "chip": "ym2612"
    },
    {
      "channel": 5,
      "note": 53,
      "start": 17.1361,
      "duration": 0.1548,
      "velocity": 95,
      "chip": "ym2612"
    },
    {
      "channel": 0,
      "note": 60,
      "start": 17.1663,
      "duration": 0.1558,
      "velocity": 95,
      "chip": "ym2612"
    },
    {
      "channel": 4,
      "note": 60,
      "start": 17.2992,
      "duration": 0.1304,
      "velocity": 95,
      "chip": "ym2612"
    },
    {
      "channel": 5,
      "note": 60,
      "start": 17.3227,
      "duration": 0.1304,
      "velocity": 95,
      "chip": "ym2612"
    },
    {
      "channel": 0,
      "note": 56,
      "start": 17.3538,
      "duration": 0.1304,
      "velocity": 95,
      "chip": "ym2612"
    },
    {
      "channel": 4,
      "note": 56,
      "start": 17.4612,
      "duration": 0.1558,
      "velocity": 95,
      "chip": "ym2612"
    },
    {
      "channel": 5,
      "note": 56,
      "start": 17.4847,
      "duration": 0.1557,
      "velocity": 95,
      "chip": "ym2612"
    },
    {
      "channel": 0,
      "note": 60,
      "start": 17.5159,
      "duration": 0.1558,
      "velocity": 95,
      "chip": "ym2612"
    },
    {
      "channel": 4,
      "note": 60,
      "start": 17.6487,
      "duration": 0.1724,
      "velocity": 95,
      "chip": "ym2612"
    },
    {
      "channel": 5,
      "note": 60,
      "start": 17.6721,
      "duration": 0.1724,
      "velocity": 95,
      "chip": "ym2612"
    },
    {
      "channel": 0,
      "note": 61,
      "start": 17.7033,
      "duration": 0.1724,
      "velocity": 95,
      "chip": "ym2612"
    },
    {
      "channel": 4,
      "note": 61,
      "start": 17.8527,
      "duration": 0.1558,
      "velocity": 95,
      "chip": "ym2612"
    },
    {
      "channel": 5,
      "note": 61,
      "start": 17.8762,
      "duration": 0.1558,
      "velocity": 95,
      "chip": "ym2612"
    },
    {
      "channel": 0,
      "note": 58,
      "start": 17.9074,
      "duration": 0.1558,
      "velocity": 95,
      "chip": "ym2612"
    },
    {
      "channel": 4,
      "note": 58,
      "start": 18.0402,
      "duration": 0.1385,
      "velocity": 95,
      "chip": "ym2612"
    },
    {
      "channel": 5,
      "note": 58,
      "start": 18.0637,
      "duration": 0.1185,
      "velocity": 95,
      "chip": "ym2612"
    },
    {
      "channel": 0,
      "note": 60,
      "start": 18.0949,
      "duration": 0.1185,
      "velocity": 95,
      "chip": "ym2612"
    },
    {
      "channel": 4,
      "note": 60,
      "start": 18.1904,
      "duration": 0.1558,
      "velocity": 95,
      "chip": "ym2612"
    },
    {
      "channel": 5,
      "note": 60,
      "start": 18.2139,
      "duration": 0.1558,
      "velocity": 95,
      "chip": "ym2612"
    },
    {
      "channel": 0,
      "note": 56,
      "start": 18.245,
      "duration": 0.156,
      "velocity": 95,
      "chip": "ym2612"
    },
    {
      "channel": 4,
      "note": 56,
      "start": 18.3779,
      "duration": 0.1724,
      "velocity": 95,
      "chip": "ym2612"
    },
    {
      "channel": 5,
      "note": 56,
      "start": 18.4015,
      "duration": 0.1722,
      "velocity": 95,
      "chip": "ym2612"
    },
    {
      "channel": 0,
      "note": 58,
      "start": 18.4325,
      "duration": 0.1724,
      "velocity": 95,
      "chip": "ym2612"
    },
    {
      "channel": 4,
      "note": 58,
      "start": 18.5819,
      "duration": 0.1558,
      "velocity": 95,
      "chip": "ym2612"
    },
    {
      "channel": 5,
      "note": 58,
      "start": 18.6054,
      "duration": 0.1558,
      "velocity": 95,
      "chip": "ym2612"
    },
    {
      "channel": 0,
      "note": 55,
      "start": 18.6366,
      "duration": 0.1558,
      "velocity": 95,
      "chip": "ym2612"
    },
    {
      "channel": 4,
      "note": 55,
      "start": 18.7694,
      "duration": 0.1315,
      "velocity": 95,
      "chip": "ym2612"
    },
    {
      "channel": 5,
      "note": 55,
      "start": 18.7929,
      "duration": 74.637,
      "velocity": 95,
      "chip": "ym2612"
    },
    {
      "channel": 0,
      "note": 56,
      "start": 18.8241,
      "duration": 74.6059,
      "velocity": 95,
      "chip": "ym2612"
    }
  ]
}