{
  "track_name": "11 - Levels 9 & 11- Slippery Slopes ~ Lunar Showdown",
  "duration_sec": 56.652,
  "sample_rate": 44100,
  "note_count": 1656,
  "unique_pitches": 58,
  "pitch_range": 82,
  "avg_note_duration": 0.1232,
  "reconstruction_stats": {
    "notes_reconstructed": 1656,
    "keyon_events": 1656,
    "keyoff_events": 1655,
    "orphan_keyons": 1,
    "unique_pitches": 58,
    "pitch_range": 82,
    "avg_duration_sec": 0.1232
  },
  "metadata": {
    "source": "S\\Snake Rattle 'n' Roll\\11 - Levels 9 & 11- Slippery Slopes ~ Lunar Showdown.vgz"
  },
  "notes": [
    {
      "channel": 2,
      "note": 27,
      "start": 0.0022,
      "duration": 0.1519,
      "velocity": 93,
      "chip": "ym2612"
    },
    {
      "channel": 3,
      "note": 64,
      "start": 0.0051,
      "duration": 0.1492,
      "velocity": 97,
      "chip": "ym2612"
    },
    {
      "channel": 5,
      "note": 28,
      "start": 0.0105,
      "duration": 0.244,
      "velocity": 110,
      "chip": "ym2612"
    },
    {
      "channel": 0,
      "note": 64,
      "start": 0.1761,
      "duration": 0.1379,
      "velocity": 97,
      "chip": "ym2612"
    },
    {
      "channel": 2,
      "note": 49,
      "start": 0.1787,
      "duration": 0.0754,
      "velocity": 123,
      "chip": "ym2612"
    },
    {
      "channel": 2,
      "note": 37,
      "start": 0.2965,
      "duration": 0.1376,
      "velocity": 127,
      "chip": "ym2612"
    },
    {
      "channel": 5,
      "note": 32,
      "start": 0.2989,
      "duration": 0.2556,
      "velocity": 110,
      "chip": "ym2612"
    },
    {
      "channel": 2,
      "note": 49,
      "start": 0.4565,
      "duration": 0.0976,
      "velocity": 123,
      "chip": "ym2612"
    },
    {
      "channel": 3,
      "note": 67,
      "start": 0.4587,
      "duration": 0.0956,
      "velocity": 97,
      "chip": "ym2612"
    },
    {
      "channel": 2,
      "note": 27,
      "start": 0.5765,
      "duration": 0.1377,
      "velocity": 93,
      "chip": "ym2612"
    },
    {
      "channel": 3,
      "note": 68,
      "start": 0.5787,
      "duration": 0.1601,
      "velocity": 97,
      "chip": "ym2612"
    },
    {
      "channel": 5,
      "note": 35,
      "start": 0.5808,
      "duration": 0.2536,
      "velocity": 110,
      "chip": "ym2612"
    },
    {
      "channel": 0,
      "note": 67,
      "start": 0.6159,
      "duration": 0.0981,
      "velocity": 97,
      "chip": "ym2612"
    },
    {
      "channel": 0,
      "note": 68,
      "start": 0.7359,
      "duration": 0.1581,
      "velocity": 97,
      "chip": "ym2612"
    },
    {
      "channel": 2,
      "note": 49,
      "start": 0.7385,
      "duration": 0.0956,
      "velocity": 123,
      "chip": "ym2612"
    },
    {
      "channel": 2,
      "note": 37,
      "start": 0.8565,
      "duration": 0.1376,
      "velocity": 127,
      "chip": "ym2612"
    },
    {
      "channel": 3,
      "note": 71,
      "start": 0.8587,
      "duration": 0.1356,
      "velocity": 97,
      "chip": "ym2612"
    },
    {
      "channel": 5,
      "note": 35,
      "start": 0.8608,
      "duration": 0.2537,
      "velocity": 110,
      "chip": "ym2612"
    },
    {
      "channel": 0,
      "note": 71,
      "start": 1.0159,
      "duration": 0.1381,
      "velocity": 97,
      "chip": "ym2612"
    },
    {
      "channel": 2,
      "note": 37,
      "start": 1.0181,
      "duration": 0.096,
      "velocity": 127,
      "chip": "ym2612"
    },
    {
      "channel": 3,
      "note": 73,
      "start": 1.0202,
      "duration": 0.0941,
      "velocity": 97,
      "chip": "ym2612"
    },
    {
      "channel": 2,
      "note": 37,
      "start": 1.1361,
      "duration": 0.1381,
      "velocity": 127,
      "chip": "ym2612"
    },
    {
      "channel": 3,
      "note": 64,
      "start": 1.1382,
      "duration": 0.16,
      "velocity": 97,
      "chip": "ym2612"
    },
    {
      "channel": 5,
      "note": 28,
      "start": 1.1404,
      "duration": 0.1341,
      "velocity": 110,
      "chip": "ym2612"
    },
    {
      "channel": 0,
      "note": 73,
      "start": 1.1759,
      "duration": 0.0981,
      "velocity": 97,
      "chip": "ym2612"
    },
    {
      "channel": 0,
      "note": 64,
      "start": 1.2959,
      "duration": 0.1581,
      "velocity": 97,
      "chip": "ym2612"
    },
    {
      "channel": 5,
      "note": 28,
      "start": 1.3005,
      "duration": 0.0939,
      "velocity": 110,
      "chip": "ym2612"
    },
    {
      "channel": 5,
      "note": 23,
      "start": 1.4163,
      "duration": 0.178,
      "velocity": 110,
      "chip": "ym2612"
    },
    {
      "channel": 5,
      "note": 25,
      "start": 1.6963,
      "duration": 0.178,
      "velocity": 110,
      "chip": "ym2612"
    },
    {
      "channel": 2,
      "note": 37,
      "start": 1.8561,
      "duration": 0.098,
      "velocity": 127,
      "chip": "ym2612"
    },
    {
      "channel": 2,
      "note": 37,
      "start": 1.9761,
      "duration": 0.1381,
      "velocity": 127,
      "chip": "ym2612"
    },
    {
      "channel": 5,
      "note": 27,
      "start": 1.9784,
      "duration": 0.1959,
      "velocity": 110,
      "chip": "ym2612"
    },
    {
      "channel": 1,
      "note": 88,
      "start": 2.136,
      "duration": 0.098,
      "velocity": 117,
      "chip": "ym2612"
    },
    {
      "channel": 2,
      "note": 49,
      "start": 2.1386,
      "duration": 0.0956,
      "velocity": 123,
      "chip": "ym2612"
    },
    {
      "channel": 4,
      "note": 88,
      "start": 2.1408,
      "duration": 0.0936,
      "velocity": 117,
      "chip": "ym2612"
    },
    {
      "channel": 1,
      "note": 91,
      "start": 2.2561,
      "duration": 0.1379,
      "velocity": 117,
      "chip": "ym2612"
    },
    {
      "channel": 2,
      "note": 27,
      "start": 2.259,
      "duration": 0.1352,
      "velocity": 93,
      "chip": "ym2612"
    },
    {
      "channel": 3,
      "note": 64,
      "start": 2.2613,
      "duration": 0.1929,
      "velocity": 97,
      "chip": "ym2612"
    },
    {
      "channel": 4,
      "note": 94,
      "start": 2.2637,
      "duration": 0.1308,
      "velocity": 117,
      "chip": "ym2612"
    },
    {
      "channel": 5,
      "note": 28,
      "start": 2.2659,
      "duration": 0.2487,
      "velocity": 110,
      "chip": "ym2612"
    },
    {
      "channel": 0,
      "note": 64,
      "start": 2.4161,
      "duration": 0.1978,
      "velocity": 97,
      "chip": "ym2612"
    },
    {
      "channel": 1,
      "note": 92,
      "start": 2.4182,
      "duration": 0.0958,
      "velocity": 117,
      "chip": "ym2612"
    },
    {
      "channel": 2,
      "note": 49,
      "start": 2.4208,
      "duration": 0.0934,
      "velocity": 123,
      "chip": "ym2612"
    },
    {
      "channel": 4,
      "note": 95,
      "start": 2.423,
      "duration": 0.0914,
      "velocity": 117,
      "chip": "ym2612"
    },
    {
      "channel": 2,
      "note": 37,
      "start": 2.5385,
      "duration": 0.1357,
      "velocity": 127,
      "chip": "ym2612"
    },
    {
      "channel": 4,
      "note": 88,
      "start": 2.5407,
      "duration": 0.1358,
      "velocity": 117,
      "chip": "ym2612"
    },
    {
      "channel": 5,
      "note": 32,
      "start": 2.5428,
      "duration": 0.2539,
      "velocity": 110,
      "chip": "ym2612"
    },
    {
      "channel": 3,
      "note": 67,
      "start": 2.6763,
      "duration": 0.0979,
      "velocity": 97,
      "chip": "ym2612"
    },
    {
      "channel": 1,
      "note": 91,
      "start": 2.7159,
      "duration": 0.0781,
      "velocity": 117,
      "chip": "ym2612"
    },
    {
      "channel": 2,
      "note": 49,
      "start": 2.7181,
      "duration": 0.0761,
      "velocity": 127,
      "chip": "ym2612"
    },
    {
      "channel": 4,
      "note": 94,
      "start": 2.7203,
      "duration": 0.0762,
      "velocity": 117,
      "chip": "ym2612"
    },
    {
      "channel": 3,
      "note": 68,
      "start": 2.7963,
      "duration": 0.138,
      "velocity": 97,
      "chip": "ym2612"
    },
    {
      "channel": 1,
      "note": 92,
      "start": 2.8159,
      "duration": 0.1401,
      "velocity": 117,
      "chip": "ym2612"
    },
    {
      "channel": 2,
      "note": 27,
      "start": 2.819,
      "duration": 0.1371,
      "velocity": 93,
      "chip": "ym2612"
    },
    {
      "channel": 4,
      "note": 95,
      "start": 2.8213,
      "duration": 0.1351,
      "velocity": 117,
      "chip": "ym2612"
    },
    {
      "channel": 5,
      "note": 35,
      "start": 2.8234,
      "duration": 0.2533,
      "velocity": 110,
      "chip": "ym2612"
    },
    {
      "channel": 0,
      "note": 67,
      "start": 2.8559,
      "duration": 0.0781,
      "velocity": 97,
      "chip": "ym2612"
    },
    {
      "channel": 0,
      "note": 68,
      "start": 2.9559,
      "duration": 0.1581,
      "velocity": 97,
      "chip": "ym2612"
    },
    {
      "channel": 2,
      "note": 49,
      "start": 2.9985,
      "duration": 0.0757,
      "velocity": 123,
      "chip": "ym2612"
    },
    {
      "channel": 4,
      "note": 88,
      "start": 3.0007,
      "duration": 0.0758,
      "velocity": 117,
      "chip": "ym2612"
    },
    {
      "channel": 3,
      "note": 71,
      "start": 3.0763,
      "duration": 0.1379,
      "velocity": 97,
      "chip": "ym2612"
    },
    {
      "channel": 1,
      "note": 91,
      "start": 3.1161,
      "duration": 0.14,
      "velocity": 117,
      "chip": "ym2612"
    },
    {
      "channel": 2,
      "note": 37,
      "start": 3.1187,
      "duration": 0.1375,
      "velocity": 127,
      "chip": "ym2612"
    },
    {
      "channel": 4,
      "note": 94,
      "start": 3.1208,
      "duration": 0.1356,
      "velocity": 117,
      "chip": "ym2612"
    },
    {
      "channel": 5,
      "note": 37,
      "start": 3.1229,
      "duration": 0.2315,
      "velocity": 110,
      "chip": "ym2612"
    },
    {
      "channel": 0,
      "note": 71,
      "start": 3.2559,
      "duration": 0.1381,
      "velocity": 97,
      "chip": "ym2612"
    },
    {
      "channel": 1,
      "note": 95,
      "start": 3.2759,
      "duration": 0.0581,
      "velocity": 117,
      "chip": "ym2612"
    },
    {
      "channel": 2,
      "note": 49,
      "start": 3.2781,
      "duration": 0.076,
      "velocity": 127,
      "chip": "ym2612"
    },
    {
      "channel": 4,
      "note": 98,
      "start": 3.2803,
      "duration": 0.0559,
      "velocity": 117,
      "chip": "ym2612"
    },
    {
      "channel": 4,
      "note": 88,
      "start": 3.3383,
      "duration": 0.078,
      "velocity": 117,
      "chip": "ym2612"
    },
    {
      "channel": 2,
      "note": 27,
      "start": 3.3972,
      "duration": 0.1369,
      "velocity": 93,
      "chip": "ym2612"
    },
    {
      "channel": 5,
      "note": 38,
      "start": 3.3995,
      "duration": 0.2549,
      "velocity": 110,
      "chip": "ym2612"
    },
    {
      "channel": 1,
      "note": 95,
      "start": 3.416,
      "duration": 0.058,
      "velocity": 117,
      "chip": "ym2612"
    },
    {
      "channel": 4,
      "note": 98,
      "start": 3.4184,
      "duration": 0.0578,
      "velocity": 117,
      "chip": "ym2612"
    },
    {
      "channel": 4,
      "note": 88,
      "start": 3.4783,
      "duration": 0.0826,
      "velocity": 117,
      "chip": "ym2612"
    },
    {
      "channel": 1,
      "note": 95,
      "start": 3.556,
      "duration": 0.058,
      "velocity": 117,
      "chip": "ym2612"
    },
    {
      "channel": 2,
      "note": 49,
      "start": 3.5586,
      "duration": 0.0955,
      "velocity": 123,
      "chip": "ym2612"
    },
    {
      "channel": 3,
      "note": 64,
      "start": 3.5607,
      "duration": 0.1335,
      "velocity": 97,
      "chip": "ym2612"
    },
    {
      "channel": 4,
      "note": 98,
      "start": 3.5629,
      "duration": 0.0534,
      "velocity": 117,
      "chip": "ym2612"
    },
    {
      "channel": 4,
      "note": 88,
      "start": 3.6183,
      "duration": 0.0605,
      "velocity": 117,
      "chip": "ym2612"
    },
    {
      "channel": 1,
      "note": 93,
      "start": 3.676,
      "duration": 0.138,
      "velocity": 117,
      "chip": "ym2612"
    },
    {
      "channel": 2,
      "note": 37,
      "start": 3.6786,
      "duration": 0.1356,
      "velocity": 127,
      "chip": "ym2612"
    },
    {
      "channel": 4,
      "note": 97,
      "start": 3.6808,
      "duration": 0.1336,
      "velocity": 117,
      "chip": "ym2612"
    },
    {
      "channel": 5,
      "note": 37,
      "start": 3.6829,
      "duration": 0.2517,
      "velocity": 110,
      "chip": "ym2612"
    },
    {
      "channel": 0,
      "note": 64,
      "start": 3.7159,
      "duration": 0.1381,
      "velocity": 97,
      "chip": "ym2612"
    },
    {
      "channel": 2,
      "note": 49,
      "start": 3.838,
      "duration": 0.0962,
      "velocity": 127,
      "chip": "ym2612"
    },
    {
      "channel": 3,
      "note": 67,
      "start": 3.8401,
      "duration": 0.0942,
      "velocity": 97,
      "chip": "ym2612"
    },
    {
      "channel": 4,
      "note": 88,
      "start": 3.8422,
      "duration": 0.0923,
      "velocity": 117,
      "chip": "ym2612"
    },
    {
      "channel": 1,
      "note": 91,
      "start": 3.9559,
      "duration": 0.1382,
      "velocity": 117,
      "chip": "ym2612"
    },
    {
      "channel": 2,
      "note": 49,
      "start": 3.9587,
      "duration": 0.1355,
      "velocity": 123,
      "chip": "ym2612"
    },
    {
      "channel": 3,
      "note": 68,
      "start": 3.9608,
      "duration": 0.1336,
      "velocity": 97,
      "chip": "ym2612"
    },
    {
      "channel": 4,
      "note": 94,
      "start": 3.9629,
      "duration": 0.1317,
      "velocity": 117,
      "chip": "ym2612"
    },
    {
      "channel": 5,
      "note": 35,
      "start": 3.9651,
      "duration": 0.2494,
      "velocity": 110,
      "chip": "ym2612"
    },
    {
      "channel": 0,
      "note": 67,
      "start": 3.9959,
      "duration": 0.0981,
      "velocity": 97,
      "chip": "ym2612"
    },
    {
      "channel": 0,
      "note": 68,
      "start": 4.1159,
      "duration": 0.1381,
      "velocity": 97,
      "chip": "ym2612"
    },
    {
      "channel": 1,
      "note": 92,
      "start": 4.118,
      "duration": 0.116,
      "velocity": 117,
      "chip": "ym2612"
    },
    {
      "channel": 2,
      "note": 37,
      "start": 4.1206,
      "duration": 0.0935,
      "velocity": 127,
      "chip": "ym2612"
    },
    {
      "channel": 4,
      "note": 95,
      "start": 4.1228,
      "duration": 0.1157,
      "velocity": 117,
      "chip": "ym2612"
    },
    {
      "channel": 2,
      "note": 37,
      "start": 4.2362,
      "duration": 0.1379,
      "velocity": 127,
      "chip": "ym2612"
    },
    {
      "channel": 3,
      "note": 71,
      "start": 4.2384,
      "duration": 0.1359,
      "velocity": 97,
      "chip": "ym2612"
    },
    {
      "channel": 5,
      "note": 32,
      "start": 4.2407,
      "duration": 0.2539,
      "velocity": 110,
      "chip": "ym2612"
    },
    {
      "channel": 0,
      "note": 71,
      "start": 4.3959,
      "duration": 0.1381,
      "velocity": 97,
      "chip": "ym2612"
    },
    {
      "channel": 2,
      "note": 49,
      "start": 4.4005,
      "duration": 0.0937,
      "velocity": 123,
      "chip": "ym2612"
    },
    {
      "channel": 4,
      "note": 88,
      "start": 4.4027,
      "duration": 0.0917,
      "velocity": 117,
      "chip": "ym2612"
    },
    {
      "channel": 1,
      "note": 91,
      "start": 4.5161,
      "duration": 0.1379,
      "velocity": 117,
      "chip": "ym2612"
    },
    {
      "channel": 2,
      "note": 27,
      "start": 4.5189,
      "duration": 0.1353,
      "velocity": 93,
      "chip": "ym2612"
    },
    {
      "channel": 3,
      "note": 64,
      "start": 4.521,
      "duration": 0.1732,
      "velocity": 97,
      "chip": "ym2612"
    },
    {
      "channel": 4,
      "note": 94,
      "start": 4.5232,
      "duration": 0.1312,
      "velocity": 117,
      "chip": "ym2612"
    },
    {
      "channel": 5,
      "note": 28,
      "start": 4.5253,
      "duration": 0.2493,
      "velocity": 110,
      "chip": "ym2612"
    },
    {
      "channel": 0,
      "note": 64,
      "start": 4.6759,
      "duration": 0.1981,
      "velocity": 97,
      "chip": "ym2612"
    },
    {
      "channel": 1,
      "note": 92,
      "start": 4.678,
      "duration": 0.096,
      "velocity": 117,
      "chip": "ym2612"
    },
    {
      "channel": 2,
      "note": 49,
      "start": 4.6805,
      "duration": 0.0937,
      "velocity": 123,
      "chip": "ym2612"
    },
    {
      "channel": 4,
      "note": 95,
      "start": 4.6827,
      "duration": 0.0917,
      "velocity": 117,
      "chip": "ym2612"
    },
    {
      "channel": 2,
      "note": 37,
      "start": 4.7985,
      "duration": 0.1357,
      "velocity": 127,
      "chip": "ym2612"
    },
    {
      "channel": 4,
      "note": 88,
      "start": 4.8007,
      "duration": 0.1358,
      "velocity": 117,
      "chip": "ym2612"
    },
    {
      "channel": 5,
      "note": 32,
      "start": 4.8028,
      "duration": 0.2539,
      "velocity": 110,
      "chip": "ym2612"
    },
    {
      "channel": 3,
      "note": 67,
      "start": 4.9363,
      "duration": 0.0979,
      "velocity": 97,
      "chip": "ym2612"
    },
    {
      "channel": 1,
      "note": 91,
      "start": 4.9559,
      "duration": 0.0981,
      "velocity": 117,
      "chip": "ym2612"
    },
    {
      "channel": 2,
      "note": 49,
      "start": 4.9581,
      "duration": 0.0961,
      "velocity": 127,
      "chip": "ym2612"
    },
    {
      "channel": 4,
      "note": 94,
      "start": 4.9603,
      "duration": 0.0962,
      "velocity": 117,
      "chip": "ym2612"
    },
    {
      "channel": 3,
      "note": 68,
      "start": 5.0563,
      "duration": 0.138,
      "velocity": 97,
      "chip": "ym2612"
    },
    {
      "channel": 1,
      "note": 92,
      "start": 5.0759,
      "duration": 0.1401,
      "velocity": 117,
      "chip": "ym2612"
    },
    {
      "channel": 2,
      "note": 27,
      "start": 5.079,
      "duration": 0.1371,
      "velocity": 93,
      "chip": "ym2612"
    },
    {
      "channel": 4,
      "note": 95,
      "start": 5.0813,
      "duration": 0.1351,
      "velocity": 117,
      "chip": "ym2612"
    },
    {
      "channel": 5,
      "note": 35,
      "start": 5.0834,
      "duration": 0.2533,
      "velocity": 110,
      "chip": "ym2612"
    },
    {
      "channel": 0,
      "note": 67,
      "start": 5.0959,
      "duration": 0.0981,
      "velocity": 97,
      "chip": "ym2612"
    },
    {
      "channel": 0,
      "note": 68,
      "start": 5.2159,
      "duration": 0.1381,
      "velocity": 97,
      "chip": "ym2612"
    },
    {
      "channel": 2,
      "note": 49,
      "start": 5.2385,
      "duration": 0.0957,
      "velocity": 123,
      "chip": "ym2612"
    },
    {
      "channel": 4,
      "note": 88,
      "start": 5.2407,
      "duration": 0.0958,
      "velocity": 117,
      "chip": "ym2612"
    },
    {
      "channel": 3,
      "note": 71,
      "start": 5.3363,
      "duration": 0.1379,
      "velocity": 97,
      "chip": "ym2612"
    },
    {
      "channel": 1,
      "note": 91,
      "start": 5.3561,
      "duration": 0.14,
      "velocity": 117,
      "chip": "ym2612"
    },
    {
      "channel": 2,
      "note": 37,
      "start": 5.3587,
      "duration": 0.1375,
      "velocity": 127,
      "chip": "ym2612"
    },
    {
      "channel": 4,
      "note": 94,
      "start": 5.3608,
      "duration": 0.1356,
      "velocity": 117,
      "chip": "ym2612"
    },
    {
      "channel": 5,
      "note": 37,
      "start": 5.3629,
      "duration": 0.2515,
      "velocity": 110,
      "chip": "ym2612"
    },
    {
      "channel": 0,
      "note": 71,
      "start": 5.4959,
      "duration": 0.1381,
      "velocity": 97,
      "chip": "ym2612"
    },
    {
      "channel": 1,
      "note": 95,
      "start": 5.5159,
      "duration": 0.0781,
      "velocity": 117,
      "chip": "ym2612"
    },
    {
      "channel": 2,
      "note": 49,
      "start": 5.5181,
      "duration": 0.096,
      "velocity": 127,
      "chip": "ym2612"
    },
    {
      "channel": 4,
      "note": 98,
      "start": 5.5203,
      "duration": 0.0759,
      "velocity": 117,
      "chip": "ym2612"
    },
    {
      "channel": 4,
      "note": 88,
      "start": 5.5983,
      "duration": 0.078,
      "velocity": 117,
      "chip": "ym2612"
    },
    {
      "channel": 2,
      "note": 27,
      "start": 5.6372,
      "duration": 0.1369,
      "velocity": 93,
      "chip": "ym2612"
    },
    {
      "channel": 5,
      "note": 38,
      "start": 5.6395,
      "duration": 0.2549,
      "velocity": 110,
      "chip": "ym2612"
    },
    {
      "channel": 1,
      "note": 95,
      "start": 5.676,
      "duration": 0.058,
      "velocity": 117,
      "chip": "ym2612"
    },
    {
      "channel": 4,
      "note": 98,
      "start": 5.6784,
      "duration": 0.0578,
      "velocity": 117,
      "chip": "ym2612"
    },
    {
      "channel": 4,
      "note": 88,
      "start": 5.7383,
      "duration": 0.0826,
      "velocity": 117,
      "chip": "ym2612"
    },
    {
      "channel": 1,
      "note": 95,
      "start": 5.816,
      "duration": 0.058,
      "velocity": 117,
      "chip": "ym2612"
    },
    {
      "channel": 2,
      "note": 49,
      "start": 5.8186,
      "duration": 0.0755,
      "velocity": 123,
      "chip": "ym2612"
    },
    {
      "channel": 3,
      "note": 64,
      "start": 5.8207,
      "duration": 0.1335,
      "velocity": 97,
      "chip": "ym2612"
    },
    {
      "channel": 4,
      "note": 98,
      "start": 5.8229,
      "duration": 0.0534,
      "velocity": 117,
      "chip": "ym2612"
    },
    {
      "channel": 4,
      "note": 88,
      "start": 5.8783,
      "duration": 0.0405,
      "velocity": 117,
      "chip": "ym2612"
    },
    {
      "channel": 1,
      "note": 93,
      "start": 5.916,
      "duration": 0.138,
      "velocity": 117,
      "chip": "ym2612"
    },
    {
      "channel": 2,
      "note": 37,
      "start": 5.9186,
      "duration": 0.1356,
      "velocity": 127,
      "chip": "ym2612"
    },
    {
      "channel": 4,
      "note": 97,
      "start": 5.9208,
      "duration": 0.1336,
      "velocity": 117,
      "chip": "ym2612"
    },
    {
      "channel": 5,
      "note": 37,
      "start": 5.9229,
      "duration": 0.2517,
      "velocity": 110,
      "chip": "ym2612"
    },
    {
      "channel": 0,
      "note": 64,
      "start": 5.9759,
      "duration": 0.1381,
      "velocity": 97,
      "chip": "ym2612"
    },
    {
      "channel": 2,
      "note": 49,
      "start": 6.098,
      "duration": 0.0762,
      "velocity": 127,
      "chip": "ym2612"
    },
    {
      "channel": 3,
      "note": 67,
      "start": 6.1001,
      "duration": 0.0742,
      "velocity": 97,
      "chip": "ym2612"
    },
    {
      "channel": 4,
      "note": 88,
      "start": 6.1022,
      "duration": 0.0723,
      "velocity": 117,
      "chip": "ym2612"
    },
    {
      "channel": 1,
      "note": 91,
      "start": 6.2159,
      "duration": 0.1382,
      "velocity": 117,
      "chip": "ym2612"
    },
    {
      "channel": 2,
      "note": 49,
      "start": 6.2187,
      "duration": 0.1355,
      "velocity": 123,
      "chip": "ym2612"
    },
    {
      "channel": 3,
      "note": 68,
      "start": 6.2208,
      "duration": 0.1336,
      "velocity": 97,
      "chip": "ym2612"
    },
    {
      "channel": 4,
      "note": 94,
      "start": 6.2229,
      "duration": 0.1317,
      "velocity": 117,
      "chip": "ym2612"
    },
    {
      "channel": 5,
      "note": 35,
      "start": 6.2251,
      "duration": 0.2294,
      "velocity": 110,
      "chip": "ym2612"
    },
    {
      "channel": 0,
      "note": 67,
      "start": 6.2559,
      "duration": 0.0981,
      "velocity": 97,
      "chip": "ym2612"
    },
    {
      "channel": 0,
      "note": 68,
      "start": 6.3759,
      "duration": 0.1381,
      "velocity": 97,
      "chip": "ym2612"
    },
    {
      "channel": 1,
      "note": 92,
      "start": 6.378,
      "duration": 0.116,
      "velocity": 117,
      "chip": "ym2612"
    },
    {
      "channel": 2,
      "note": 37,
      "start": 6.3806,
      "duration": 0.0735,
      "velocity": 127,
      "chip": "ym2612"
    },
    {
      "channel": 4,
      "note": 95,
      "start": 6.3828,
      "duration": 0.1157,
      "velocity": 117,
      "chip": "ym2612"
    },
    {
      "channel": 2,
      "note": 37,
      "start": 6.4962,
      "duration": 0.1379,
      "velocity": 127,
      "chip": "ym2612"
    },
    {
      "channel": 3,
      "note": 71,
      "start": 6.4984,
      "duration": 0.1359,
      "velocity": 97,
      "chip": "ym2612"
    },
    {
      "channel": 5,
      "note": 32,
      "start": 6.5007,
      "duration": 0.2539,
      "velocity": 110,
      "chip": "ym2612"
    },
    {
      "channel": 0,
      "note": 71,
      "start": 6.6559,
      "duration": 0.1381,
      "velocity": 97,
      "chip": "ym2612"
    },
    {
      "channel": 2,
      "note": 49,
      "start": 6.6605,
      "duration": 0.0937,
      "velocity": 123,
      "chip": "ym2612"
    },
    {
      "channel": 4,
      "note": 88,
      "start": 6.6627,
      "duration": 0.0917,
      "velocity": 117,
      "chip": "ym2612"
    },
    {
      "channel": 1,
      "note": 84,
      "start": 6.7762,
      "duration": 0.1378,
      "velocity": 117,
      "chip": "ym2612"
    },
    {
      "channel": 2,
      "note": 27,
      "start": 6.779,
      "duration": 0.1352,
      "velocity": 93,
      "chip": "ym2612"
    },
    {
      "channel": 3,
      "note": 69,
      "start": 6.7811,
      "duration": 0.1731,
      "velocity": 97,
      "chip": "ym2612"
    },
    {
      "channel": 4,
      "note": 87,
      "start": 6.7835,
      "duration": 0.1309,
      "velocity": 117,
      "chip": "ym2612"
    },
    {
      "channel": 5,
      "note": 33,
      "start": 6.7856,
      "duration": 0.249,
      "velocity": 110,
      "chip": "ym2612"
    },
    {
      "channel": 0,
      "note": 69,
      "start": 6.9359,
      "duration": 0.1781,
      "velocity": 97,
      "chip": "ym2612"
    },
    {
      "channel": 1,
      "note": 85,
      "start": 6.938,
      "duration": 0.096,
      "velocity": 117,
      "chip": "ym2612"
    },
    {
      "channel": 2,
      "note": 49,
      "start": 6.9405,
      "duration": 0.0937,
      "velocity": 123,
      "chip": "ym2612"
    },
    {
      "channel": 4,
      "note": 88,
      "start": 6.9427,
      "duration": 0.0917,
      "velocity": 117,
      "chip": "ym2612"
    },
    {
      "channel": 2,
      "note": 37,
      "start": 7.0585,
      "duration": 0.1357,
      "velocity": 127,
      "chip": "ym2612"
    },
    {
      "channel": 4,
      "note": 81,
      "start": 7.0607,
      "duration": 0.1358,
      "velocity": 117,
      "chip": "ym2612"
    },
    {
      "channel": 5,
      "note": 37,
      "start": 7.0628,
      "duration": 0.2539,
      "velocity": 110,
      "chip": "ym2612"
    },
    {
      "channel": 3,
      "note": 72,
      "start": 7.1963,
      "duration": 0.0979,
      "velocity": 97,
      "chip": "ym2612"
    },
    {
      "channel": 1,
      "note": 84,
      "start": 7.2159,
      "duration": 0.0981,
      "velocity": 117,
      "chip": "ym2612"
    },
    {
      "channel": 2,
      "note": 49,
      "start": 7.2181,
      "duration": 0.0961,
      "velocity": 127,
      "chip": "ym2612"
    },
    {
      "channel": 4,
      "note": 87,
      "start": 7.2203,
      "duration": 0.0962,
      "velocity": 117,
      "chip": "ym2612"
    },
    {
      "channel": 3,
      "note": 73,
      "start": 7.3163,
      "duration": 0.138,
      "velocity": 97,
      "chip": "ym2612"
    },
    {
      "channel": 1,
      "note": 85,
      "start": 7.3359,
      "duration": 0.1401,
      "velocity": 117,
      "chip": "ym2612"
    },
    {
      "channel": 2,
      "note": 27,
      "start": 7.339,
      "duration": 0.1371,
      "velocity": 93,
      "chip": "ym2612"
    },
    {
      "channel": 4,
      "note": 88,
      "start": 7.3413,
      "duration": 0.1351,
      "velocity": 117,
      "chip": "ym2612"
    },
    {
      "channel": 5,
      "note": 40,
      "start": 7.3434,
      "duration": 0.2533,
      "velocity": 110,
      "chip": "ym2612"
    },
    {
      "channel": 0,
      "note": 72,
      "start": 7.3559,
      "duration": 0.0981,
      "velocity": 97,
      "chip": "ym2612"
    },
    {
      "channel": 0,
      "note": 73,
      "start": 7.4759,
      "duration": 0.1381,
      "velocity": 97,
      "chip": "ym2612"
    },
    {
      "channel": 2,
      "note": 49,
      "start": 7.4985,
      "duration": 0.0957,
      "velocity": 123,
      "chip": "ym2612"
    },
    {
      "channel": 4,
      "note": 81,
      "start": 7.5007,
      "duration": 0.0958,
      "velocity": 117,
      "chip": "ym2612"
    },
    {
      "channel": 3,
      "note": 76,
      "start": 7.5963,
      "duration": 0.1379,
      "velocity": 97,
      "chip": "ym2612"
    },
    {
      "channel": 1,
      "note": 84,
      "start": 7.6161,
      "duration": 0.14,
      "velocity": 117,
      "chip": "ym2612"
    },
    {
      "channel": 2,
      "note": 37,
      "start": 7.6187,
      "duration": 0.1375,
      "velocity": 127,
      "chip": "ym2612"
    },
    {
      "channel": 4,
      "note": 87,
      "start": 7.6208,
      "duration": 0.1356,
      "velocity": 117,
      "chip": "ym2612"
    },
    {
      "channel": 5,
      "note": 42,
      "start": 7.6229,
      "duration": 0.2515,
      "velocity": 110,
      "chip": "ym2612"
    },
    {
      "channel": 0,
      "note": 76,
      "start": 7.7559,
      "duration": 0.1381,
      "velocity": 97,
      "chip": "ym2612"
    },
    {
      "channel": 1,
      "note": 88,
      "start": 7.7759,
      "duration": 0.0781,
      "velocity": 117,
      "chip": "ym2612"
    },
    {
      "channel": 2,
      "note": 49,
      "start": 7.7781,
      "duration": 0.096,
      "velocity": 127,
      "chip": "ym2612"
    },
    {
      "channel": 4,
      "note": 91,
      "start": 7.7803,
      "duration": 0.0759,
      "velocity": 117,
      "chip": "ym2612"
    },
    {
      "channel": 4,
      "note": 81,
      "start": 7.8583,
      "duration": 0.058,
      "velocity": 117,
      "chip": "ym2612"
    },
    {
      "channel": 2,
      "note": 27,
      "start": 7.8972,
      "duration": 0.1369,
      "velocity": 93,
      "chip": "ym2612"
    },
    {
      "channel": 5,
      "note": 43,
      "start": 7.8995,
      "duration": 0.2549,
      "velocity": 110,
      "chip": "ym2612"
    },
    {
      "channel": 1,
      "note": 88,
      "start": 7.916,
      "duration": 0.078,
      "velocity": 117,
      "chip": "ym2612"
    },
    {
      "channel": 4,
      "note": 91,
      "start": 7.9184,
      "duration": 0.0778,
      "velocity": 117,
      "chip": "ym2612"
    },
    {
      "channel": 4,
      "note": 81,
      "start": 7.9983,
      "duration": 0.0626,
      "velocity": 117,
      "chip": "ym2612"
    },
    {
      "channel": 1,
      "note": 88,
      "start": 8.056,
      "duration": 0.078,
      "velocity": 117,
      "chip": "ym2612"
    },
    {
      "channel": 2,
      "note": 49,
      "start": 8.0586,
      "duration": 0.0955,
      "velocity": 123,
      "chip": "ym2612"
    },
    {
      "channel": 3,
      "note": 69,
      "start": 8.0607,
      "duration": 0.1335,
      "velocity": 97,
      "chip": "ym2612"
    },
    {
      "channel": 4,
      "note": 91,
      "start": 8.0629,
      "duration": 0.0734,
      "velocity": 117,
      "chip": "ym2612"
    },
    {
      "channel": 4,
      "note": 81,
      "start": 8.1383,
      "duration": 0.0405,
      "velocity": 117,
      "chip": "ym2612"
    },
    {
      "channel": 1,
      "note": 86,
      "start": 8.176,
      "duration": 0.138,
      "velocity": 117,
      "chip": "ym2612"
    },
    {
      "channel": 2,
      "note": 37,
      "start": 8.1786,
      "duration": 0.1356,
      "velocity": 127,
      "chip": "ym2612"
    },
    {
      "channel": 4,
      "note": 90,
      "start": 8.1808,
      "duration": 0.1336,
      "velocity": 117,
      "chip": "ym2612"
    },
    {
      "channel": 5,
      "note": 42,
      "start": 8.1829,
      "duration": 0.2517,
      "velocity": 110,
      "chip": "ym2612"
    },
    {
      "channel": 0,
      "note": 69,
      "start": 8.2359,
      "duration": 0.1381,
      "velocity": 97,
      "chip": "ym2612"
    },
    {
      "channel": 2,
      "note": 49,
      "start": 8.338,
      "duration": 0.0962,
      "velocity": 127,
      "chip": "ym2612"
    },
    {
      "channel": 3,
      "note": 72,
      "start": 8.3401,
      "duration": 0.0942,
      "velocity": 97,
      "chip": "ym2612"
    },
    {
      "channel": 4,
      "note": 81,
      "start": 8.3422,
      "duration": 0.0923,
      "velocity": 117,
      "chip": "ym2612"
    },
    {
      "channel": 1,
      "note": 84,
      "start": 8.4559,
      "duration": 0.1382,
      "velocity": 117,
      "chip": "ym2612"
    },
    {
      "channel": 2,
      "note": 49,
      "start": 8.4587,
      "duration": 0.1355,
      "velocity": 123,
      "chip": "ym2612"
    },
    {
      "channel": 3,
      "note": 73,
      "start": 8.4608,
      "duration": 0.1336,
      "velocity": 97,
      "chip": "ym2612"
    },
    {
      "channel": 4,
      "note": 87,
      "start": 8.4629,
      "duration": 0.1317,
      "velocity": 117,
      "chip": "ym2612"
    },
    {
      "channel": 5,
      "note": 40,
      "start": 8.4651,
      "duration": 0.2494,
      "velocity": 110,
      "chip": "ym2612"
    },
    {
      "channel": 0,
      "note": 72,
      "start": 8.5159,
      "duration": 0.0781,
      "velocity": 97,
      "chip": "ym2612"
    },
    {
      "channel": 0,
      "note": 73,
      "start": 8.6159,
      "duration": 0.1581,
      "velocity": 97,
      "chip": "ym2612"
    },
    {
      "channel": 1,
      "note": 85,
      "start": 8.618,
      "duration": 0.116,
      "velocity": 117,
      "chip": "ym2612"
    },
    {
      "channel": 2,
      "note": 37,
      "start": 8.6206,
      "duration": 0.0935,
      "velocity": 127,
      "chip": "ym2612"
    },
    {
      "channel": 4,
      "note": 88,
      "start": 8.6228,
      "duration": 0.1157,
      "velocity": 117,
      "chip": "ym2612"
    },
    {
      "channel": 2,
      "note": 37,
      "start": 8.7362,
      "duration": 0.1379,
      "velocity": 127,
      "chip": "ym2612"
    },
    {
      "channel": 3,
      "note": 76,
      "start": 8.7384,
      "duration": 0.1359,
      "velocity": 97,
      "chip": "ym2612"
    },
    {
      "channel": 5,
      "note": 37,
      "start": 8.7407,
      "duration": 0.2539,
      "velocity": 110,
      "chip": "ym2612"
    },
    {
      "channel": 0,
      "note": 76,
      "start": 8.9159,
      "duration": 0.1381,
      "velocity": 97,
      "chip": "ym2612"
    },
    {
      "channel": 2,
      "note": 49,
      "start": 8.9205,
      "duration": 0.0737,
      "velocity": 123,
      "chip": "ym2612"
    },
    {
      "channel": 4,
      "note": 81,
      "start": 8.9227,
      "duration": 0.0717,
      "velocity": 117,
      "chip": "ym2612"
    },
    {
      "channel": 1,
      "note": 91,
      "start": 9.0162,
      "duration": 0.1378,
      "velocity": 117,
      "chip": "ym2612"
    },
    {
      "channel": 2,
      "note": 27,
      "start": 9.019,
      "duration": 0.1352,
      "velocity": 93,
      "chip": "ym2612"
    },
    {
      "channel": 3,
      "note": 64,
      "start": 9.0211,
      "duration": 0.1931,
      "velocity": 97,
      "chip": "ym2612"
    },
    {
      "channel": 4,
      "note": 94,
      "start": 9.0235,
      "duration": 0.1309,
      "velocity": 117,
      "chip": "ym2612"
    },
    {
      "channel": 5,
      "note": 28,
      "start": 9.0256,
      "duration": 0.249,
      "velocity": 110,
      "chip": "ym2612"
    },
    {
      "channel": 0,
      "note": 64,
      "start": 9.1959,
      "duration": 0.1781,
      "velocity": 97,
      "chip": "ym2612"
    },
    {
      "channel": 1,
      "note": 92,
      "start": 9.198,
      "duration": 0.076,
      "velocity": 117,
      "chip": "ym2612"
    },
    {
      "channel": 2,
      "note": 49,
      "start": 9.2005,
      "duration": 0.0737,
      "velocity": 123,
      "chip": "ym2612"
    },
    {
      "channel": 4,
      "note": 95,
      "start": 9.2027,
      "duration": 0.0717,
      "velocity": 117,
      "chip": "ym2612"
    },
    {
      "channel": 2,
      "note": 37,
      "start": 9.3185,
      "duration": 0.1357,
      "velocity": 127,
      "chip": "ym2612"
    },
    {
      "channel": 4,
      "note": 88,
      "start": 9.3207,
      "duration": 0.1358,
      "velocity": 117,
      "chip": "ym2612"
    },
    {
      "channel": 5,
      "note": 32,
      "start": 9.3228,
      "duration": 0.2339,
      "velocity": 110,
      "chip": "ym2612"
    },
    {
      "channel": 3,
      "note": 67,
      "start": 9.4563,
      "duration": 0.0779,
      "velocity": 97,
      "chip": "ym2612"
    },
    {
      "channel": 1,
      "note": 91,
      "start": 9.4759,
      "duration": 0.0781,
      "velocity": 117,
      "chip": "ym2612"
    },
    {
      "channel": 2,
      "note": 49,
      "start": 9.4781,
      "duration": 0.0761,
      "velocity": 127,
      "chip": "ym2612"
    },
    {
      "channel": 4,
      "note": 94,
      "start": 9.4803,
      "duration": 0.0762,
      "velocity": 117,
      "chip": "ym2612"
    },
    {
      "channel": 3,
      "note": 68,
      "start": 9.5563,
      "duration": 0.138,
      "velocity": 97,
      "chip": "ym2612"
    },
    {
      "channel": 1,
      "note": 92,
      "start": 9.5959,
      "duration": 0.1401,
      "velocity": 117,
      "chip": "ym2612"
    },
    {
      "channel": 2,
      "note": 27,
      "start": 9.599,
      "duration": 0.1371,
      "velocity": 93,
      "chip": "ym2612"
    },
    {
      "channel": 4,
      "note": 95,
      "start": 9.6013,
      "duration": 0.1351,
      "velocity": 117,
      "chip": "ym2612"
    },
    {
      "channel": 5,
      "note": 35,
      "start": 9.6034,
      "duration": 0.2533,
      "velocity": 110,
      "chip": "ym2612"
    },
    {
      "channel": 0,
      "note": 67,
      "start": 9.6159,
      "duration": 0.0781,
      "velocity": 97,
      "chip": "ym2612"
    },
    {
      "channel": 0,
      "note": 68,
      "start": 9.7359,
      "duration": 0.1381,
      "velocity": 97,
      "chip": "ym2612"
    },
    {
      "channel": 2,
      "note": 49,
      "start": 9.7585,
      "duration": 0.0957,
      "velocity": 123,
      "chip": "ym2612"
    },
    {
      "channel": 4,
      "note": 88,
      "start": 9.7607,
      "duration": 0.0958,
      "velocity": 117,
      "chip": "ym2612"
    },
    {
      "channel": 3,
      "note": 71,
      "start": 9.8563,
      "duration": 0.1379,
      "velocity": 97,
      "chip": "ym2612"
    },
    {
      "channel": 1,
      "note": 91,
      "start": 9.8761,
      "duration": 0.14,
      "velocity": 117,
      "chip": "ym2612"
    },
    {
      "channel": 2,
      "note": 37,
      "start": 9.8787,
      "duration": 0.1375,
      "velocity": 127,
      "chip": "ym2612"
    },
    {
      "channel": 4,
      "note": 94,
      "start": 9.8808,
      "duration": 0.1356,
      "velocity": 117,
      "chip": "ym2612"
    },
    {
      "channel": 5,
      "note": 37,
      "start": 9.8829,
      "duration": 0.2515,
      "velocity": 110,
      "chip": "ym2612"
    },
    {
      "channel": 0,
      "note": 71,
      "start": 10.0159,
      "duration": 0.1381,
      "velocity": 97,
      "chip": "ym2612"
    },
    {
      "channel": 1,
      "note": 95,
      "start": 10.0359,
      "duration": 0.0581,
      "velocity": 117,
      "chip": "ym2612"
    },
    {
      "channel": 2,
      "note": 49,
      "start": 10.0381,
      "duration": 0.096,
      "velocity": 127,
      "chip": "ym2612"
    },
    {
      "channel": 4,
      "note": 98,
      "start": 10.0403,
      "duration": 0.0559,
      "velocity": 117,
      "chip": "ym2612"
    },
    {
      "channel": 4,
      "note": 88,
      "start": 10.0983,
      "duration": 0.078,
      "velocity": 117,
      "chip": "ym2612"
    },
    {
      "channel": 2,
      "note": 27,
      "start": 10.1572,
      "duration": 0.1369,
      "velocity": 93,
      "chip": "ym2612"
    },
    {
      "channel": 5,
      "note": 38,
      "start": 10.1595,
      "duration": 0.2549,
      "velocity": 110,
      "chip": "ym2612"
    },
    {
      "channel": 1,
      "note": 95,
      "start": 10.176,
      "duration": 0.058,
      "velocity": 117,
      "chip": "ym2612"
    },
    {
      "channel": 4,
      "note": 98,
      "start": 10.1784,
      "duration": 0.0578,
      "velocity": 117,
      "chip": "ym2612"
    },
    {
      "channel": 4,
      "note": 88,
      "start": 10.2383,
      "duration": 0.0826,
      "velocity": 117,
      "chip": "ym2612"
    },
    {
      "channel": 1,
      "note": 95,
      "start": 10.316,
      "duration": 0.078,
      "velocity": 117,
      "chip": "ym2612"
    },
    {
      "channel": 2,
      "note": 49,
      "start": 10.3186,
      "duration": 0.0955,
      "velocity": 123,
      "chip": "ym2612"
    },
    {
      "channel": 3,
      "note": 64,
      "start": 10.3207,
      "duration": 0.1335,
      "velocity": 97,
      "chip": "ym2612"
    },
    {
      "channel": 4,
      "note": 98,
      "start": 10.3229,
      "duration": 0.0734,
      "velocity": 117,
      "chip": "ym2612"
    },
    {
      "channel": 4,
      "note": 88,
      "start": 10.3983,
      "duration": 0.0405,
      "velocity": 117,
      "chip": "ym2612"
    },
    {
      "channel": 1,
      "note": 93,
      "start": 10.436,
      "duration": 0.138,
      "velocity": 117,
      "chip": "ym2612"
    },
    {
      "channel": 2,
      "note": 37,
      "start": 10.4386,
      "duration": 0.1356,
      "velocity": 127,
      "chip": "ym2612"
    },
    {
      "channel": 4,
      "note": 97,
      "start": 10.4408,
      "duration": 0.1336,
      "velocity": 117,
      "chip": "ym2612"
    },
    {
      "channel": 5,
      "note": 37,
      "start": 10.4429,
      "duration": 0.2517,
      "velocity": 110,
      "chip": "ym2612"
    },
    {
      "channel": 0,
      "note": 64,
      "start": 10.4759,
      "duration": 0.1381,
      "velocity": 97,
      "chip": "ym2612"
    },
    {
      "channel": 2,
      "note": 49,
      "start": 10.598,
      "duration": 0.0962,
      "velocity": 127,
      "chip": "ym2612"
    },
    {
      "channel": 3,
      "note": 67,
      "start": 10.6001,
      "duration": 0.0942,
      "velocity": 97,
      "chip": "ym2612"
    },
    {
      "channel": 4,
      "note": 88,
      "start": 10.6022,
      "duration": 0.0923,
      "velocity": 117,
      "chip": "ym2612"
    },
    {
      "channel": 1,
      "note": 91,
      "start": 10.7159,
      "duration": 0.1382,
      "velocity": 117,
      "chip": "ym2612"
    },
    {
      "channel": 2,
      "note": 49,
      "start": 10.7187,
      "duration": 0.1355,
      "velocity": 123,
      "chip": "ym2612"
    },
    {
      "channel": 3,
      "note": 68,
      "start": 10.7208,
      "duration": 0.1336,
      "velocity": 97,
      "chip": "ym2612"
    },
    {
      "channel": 4,
      "note": 94,
      "start": 10.7229,
      "duration": 0.1317,
      "velocity": 117,
      "chip": "ym2612"
    },
    {
      "channel": 5,
      "note": 35,
      "start": 10.7251,
      "duration": 0.2494,
      "velocity": 110,
      "chip": "ym2612"
    },
    {
      "channel": 0,
      "note": 67,
      "start": 10.7559,
      "duration": 0.0981,
      "velocity": 97,
      "chip": "ym2612"
    },
    {
      "channel": 0,
      "note": 68,
      "start": 10.8759,
      "duration": 0.1381,
      "velocity": 97,
      "chip": "ym2612"
    },
    {
      "channel": 1,
      "note": 92,
      "start": 10.878,
      "duration": 0.116,
      "velocity": 117,
      "chip": "ym2612"
    },
    {
      "channel": 2,
      "note": 37,
      "start": 10.8806,
      "duration": 0.0935,
      "velocity": 127,
      "chip": "ym2612"
    },
    {
      "channel": 4,
      "note": 95,
      "start": 10.8828,
      "duration": 0.1157,
      "velocity": 117,
      "chip": "ym2612"
    },
    {
      "channel": 2,
      "note": 37,
      "start": 10.9962,
      "duration": 0.1379,
      "velocity": 127,
      "chip": "ym2612"
    },
    {
      "channel": 3,
      "note": 71,
      "start": 10.9984,
      "duration": 0.1359,
      "velocity": 97,
      "chip": "ym2612"
    },
    {
      "channel": 5,
      "note": 32,
      "start": 11.0007,
      "duration": 0.2539,
      "velocity": 110,
      "chip": "ym2612"
    },
    {
      "channel": 0,
      "note": 71,
      "start": 11.1559,
      "duration": 0.1381,
      "velocity": 97,
      "chip": "ym2612"
    },
    {
      "channel": 2,
      "note": 49,
      "start": 11.1605,
      "duration": 0.0937,
      "velocity": 123,
      "chip": "ym2612"
    },
    {
      "channel": 4,
      "note": 88,
      "start": 11.1627,
      "duration": 0.0917,
      "velocity": 117,
      "chip": "ym2612"
    },
    {
      "channel": 1,
      "note": 98,
      "start": 11.2762,
      "duration": 0.1378,
      "velocity": 117,
      "chip": "ym2612"
    },
    {
      "channel": 2,
      "note": 27,
      "start": 11.2789,
      "duration": 0.1353,
      "velocity": 93,
      "chip": "ym2612"
    },
    {
      "channel": 3,
      "note": 71,
      "start": 11.281,
      "duration": 0.1932,
      "velocity": 97,
      "chip": "ym2612"
    },
    {
      "channel": 4,
      "note": 101,
      "start": 11.2834,
      "duration": 0.131,
      "velocity": 117,
      "chip": "ym2612"
    },
    {
      "channel": 5,
      "note": 35,
      "start": 11.2855,
      "duration": 0.249,
      "velocity": 110,
      "chip": "ym2612"
    },
    {
      "channel": 0,
      "note": 71,
      "start": 11.4359,
      "duration": 0.1981,
      "velocity": 97,
      "chip": "ym2612"
    },
    {
      "channel": 1,
      "note": 99,
      "start": 11.438,
      "duration": 0.116,
      "velocity": 117,
      "chip": "ym2612"
    },
    {
      "channel": 2,
      "note": 49,
      "start": 11.4405,
      "duration": 0.0936,
      "velocity": 123,
      "chip": "ym2612"
    },
    {
      "channel": 4,
      "note": 102,
      "start": 11.4427,
      "duration": 0.0916,
      "velocity": 117,
      "chip": "ym2612"
    },
    {
      "channel": 2,
      "note": 37,
      "start": 11.5566,
      "duration": 0.1376,
      "velocity": 127,
      "chip": "ym2612"
    },
    {
      "channel": 4,
      "note": 95,
      "start": 11.5588,
      "duration": 0.1376,
      "velocity": 117,
      "chip": "ym2612"
    },
    {
      "channel": 5,
      "note": 38,
      "start": 11.5609,
      "duration": 0.2558,
      "velocity": 110,
      "chip": "ym2612"
    },
    {
      "channel": 3,
      "note": 74,
      "start": 11.6962,
      "duration": 0.098,
      "velocity": 97,
      "chip": "ym2612"
    },
    {
      "channel": 1,
      "note": 98,
      "start": 11.7159,
      "duration": 0.0981,
      "velocity": 117,
      "chip": "ym2612"
    },
    {
      "channel": 2,
      "note": 49,
      "start": 11.7181,
      "duration": 0.0961,
      "velocity": 127,
      "chip": "ym2612"
    },
    {
      "channel": 4,
      "note": 101,
      "start": 11.7203,
      "duration": 0.0962,
      "velocity": 117,
      "chip": "ym2612"
    },
    {
      "channel": 3,
      "note": 75,
      "start": 11.8163,
      "duration": 0.138,
      "velocity": 97,
      "chip": "ym2612"
    },
    {
      "channel": 1,
      "note": 99,
      "start": 11.8359,
      "duration": 0.1401,
      "velocity": 117,
      "chip": "ym2612"
    },
    {
      "channel": 2,
      "note": 27,
      "start": 11.839,
      "duration": 0.1371,
      "velocity": 93,
      "chip": "ym2612"
    },
    {
      "channel": 4,
      "note": 102,
      "start": 11.8413,
      "duration": 0.1351,
      "velocity": 117,
      "chip": "ym2612"
    },
    {
      "channel": 5,
      "note": 39,
      "start": 11.8434,
      "duration": 0.2532,
      "velocity": 110,
      "chip": "ym2612"
    },
    {
      "channel": 0,
      "note": 74,
      "start": 11.8759,
      "duration": 0.0781,
      "velocity": 97,
      "chip": "ym2612"
    },
    {
      "channel": 0,
      "note": 75,
      "start": 11.9759,
      "duration": 0.1381,
      "velocity": 97,
      "chip": "ym2612"
    },
    {
      "channel": 2,
      "note": 49,
      "start": 12.0165,
      "duration": 0.0776,
      "velocity": 123,
      "chip": "ym2612"
    },
    {
      "channel": 4,
      "note": 95,
      "start": 12.0187,
      "duration": 0.0776,
      "velocity": 117,
      "chip": "ym2612"
    },
    {
      "channel": 3,
      "note": 78,
      "start": 12.0962,
      "duration": 0.138,
      "velocity": 97,
      "chip": "ym2612"
    },
    {
      "channel": 1,
      "note": 98,
      "start": 12.1161,
      "duration": 0.14,
      "velocity": 117,
      "chip": "ym2612"
    },
    {
      "channel": 2,
      "note": 37,
      "start": 12.1187,
      "duration": 0.1375,
      "velocity": 127,
      "chip": "ym2612"
    },
    {
      "channel": 4,
      "note": 101,
      "start": 12.1208,
      "duration": 0.1356,
      "velocity": 117,
      "chip": "ym2612"
    },
    {
      "channel": 5,
      "note": 42,
      "start": 12.1229,
      "duration": 0.2516,
      "velocity": 110,
      "chip": "ym2612"
    },
    {
      "channel": 0,
      "note": 78,
      "start": 12.2559,
      "duration": 0.1581,
      "velocity": 97,
      "chip": "ym2612"
    },
    {
      "channel": 1,
      "note": 99,
      "start": 12.2959,
      "duration": 0.1182,
      "velocity": 117,
      "chip": "ym2612"
    },
    {
      "channel": 2,
      "note": 49,
      "start": 12.2981,
      "duration": 0.076,
      "velocity": 127,
      "chip": "ym2612"
    },
    {
      "channel": 4,
      "note": 102,
      "start": 12.3003,
      "duration": 0.0741,
      "velocity": 117,
      "chip": "ym2612"
    },
    {
      "channel": 2,
      "note": 27,
      "start": 12.4173,
      "duration": 0.1369,
      "velocity": 93,
      "chip": "ym2612"
    },
    {
      "channel": 4,
      "note": 93,
      "start": 12.4194,
      "duration": 0.1349,
      "velocity": 117,
      "chip": "ym2612"
    },
    {
      "channel": 5,
      "note": 33,
      "start": 12.4215,
      "duration": 0.2331,
      "velocity": 110,
      "chip": "ym2612"
    },
    {
      "channel": 1,
      "note": 96,
      "start": 12.5759,
      "duration": 0.0781,
      "velocity": 117,
      "chip": "ym2612"
    },
    {
      "channel": 2,
      "note": 49,
      "start": 12.5785,
      "duration": 0.0757,
      "velocity": 123,
      "chip": "ym2612"
    },
    {
      "channel": 3,
      "note": 69,
      "start": 12.5806,
      "duration": 0.1336,
      "velocity": 97,
      "chip": "ym2612"
    },
    {
      "channel": 4,
      "note": 99,
      "start": 12.5827,
      "duration": 0.0717,
      "velocity": 117,
      "chip": "ym2612"
    },
    {
      "channel": 1,
      "note": 97,
      "start": 12.6959,
      "duration": 0.1381,
      "velocity": 117,
      "chip": "ym2612"
    },
    {
      "channel": 2,
      "note": 37,
      "start": 12.6985,
      "duration": 0.1357,
      "velocity": 127,
      "chip": "ym2612"
    },
    {
      "channel": 4,
      "note": 100,
      "start": 12.7008,
      "duration": 0.1337,
      "velocity": 117,
      "chip": "ym2612"
    },
    {
      "channel": 5,
      "note": 36,
      "start": 12.7029,
      "duration": 0.2518,
      "velocity": 110,
      "chip": "ym2612"
    },
    {
      "channel": 0,
      "note": 69,
      "start": 12.7359,
      "duration": 0.1381,
      "velocity": 97,
      "chip": "ym2612"
    },
    {
      "channel": 2,
      "note": 49,
      "start": 12.8561,
      "duration": 0.0981,
      "velocity": 127,
      "chip": "ym2612"
    },
    {
      "channel": 3,
      "note": 72,
      "start": 12.8582,
      "duration": 0.0961,
      "velocity": 97,
      "chip": "ym2612"
    },
    {
      "channel": 4,
      "note": 93,
      "start": 12.8603,
      "duration": 0.0941,
      "velocity": 117,
      "chip": "ym2612"
    },
    {
      "channel": 1,
      "note": 96,
      "start": 12.9759,
      "duration": 0.1382,
      "velocity": 117,
      "chip": "ym2612"
    },
    {
      "channel": 2,
      "note": 49,
      "start": 12.9787,
      "duration": 0.1355,
      "velocity": 123,
      "chip": "ym2612"
    },
    {
      "channel": 3,
      "note": 73,
      "start": 12.9808,
      "duration": 0.1336,
      "velocity": 97,
      "chip": "ym2612"
    },
    {
      "channel": 4,
      "note": 99,
      "start": 12.9829,
      "duration": 0.1317,
      "velocity": 117,
      "chip": "ym2612"
    },
    {
      "channel": 5,
      "note": 37,
      "start": 12.9851,
      "duration": 0.2496,
      "velocity": 110,
      "chip": "ym2612"
    },
    {
      "channel": 0,
      "note": 72,
      "start": 13.0159,
      "duration": 0.0981,
      "velocity": 97,
      "chip": "ym2612"
    },
    {
      "channel": 0,
      "note": 73,
      "start": 13.1359,
      "duration": 0.1381,
      "velocity": 97,
      "chip": "ym2612"
    },
    {
      "channel": 1,
      "note": 97,
      "start": 13.138,
      "duration": 0.096,
      "velocity": 117,
      "chip": "ym2612"
    },
    {
      "channel": 2,
      "note": 37,
      "start": 13.1406,
      "duration": 0.0936,
      "velocity": 127,
      "chip": "ym2612"
    },
    {
      "channel": 4,
      "note": 100,
      "start": 13.1428,
      "duration": 0.0916,
      "velocity": 117,
      "chip": "ym2612"
    },
    {
      "channel": 1,
      "note": 93,
      "start": 13.2559,
      "duration": 0.1601,
      "velocity": 117,
      "chip": "ym2612"
    },
    {
      "channel": 2,
      "note": 37,
      "start": 13.2582,
      "duration": 0.136,
      "velocity": 127,
      "chip": "ym2612"
    },
    {
      "channel": 3,
      "note": 76,
      "start": 13.2603,
      "duration": 0.134,
      "velocity": 97,
      "chip": "ym2612"
    },
    {
      "channel": 4,
      "note": 93,
      "start": 13.2624,
      "duration": 0.1321,
      "velocity": 117,
      "chip": "ym2612"
    },
    {
      "channel": 5,
      "note": 40,
      "start": 13.2645,
      "duration": 0.25,
      "velocity": 110,
      "chip": "ym2612"
    },
    {
      "channel": 0,
      "note": 76,
      "start": 13.4159,
      "duration": 0.1381,
      "velocity": 97,
      "chip": "ym2612"
    },
    {
      "channel": 2,
      "note": 49,
      "start": 13.4186,
      "duration": 0.0955,
      "velocity": 123,
      "chip": "ym2612"
    },
    {
      "channel": 4,
      "note": 88,
      "start": 13.4208,
      "duration": 0.0935,
      "velocity": 117,
      "chip": "ym2612"
    },
    {
      "channel": 1,
      "note": 91,
      "start": 13.5362,
      "duration": 0.1378,
      "velocity": 117,
      "chip": "ym2612"
    },
    {
      "channel": 2,
      "note": 27,
      "start": 13.5389,
      "duration": 0.1353,
      "velocity": 93,
      "chip": "ym2612"
    },
    {
      "channel": 3,
      "note": 64,
      "start": 13.5413,
      "duration": 0.1331,
      "velocity": 97,
      "chip": "ym2612"
    },
    {
      "channel": 4,
      "note": 94,
      "start": 13.5436,
      "duration": 0.1309,
      "velocity": 117,
      "chip": "ym2612"
    },
    {
      "channel": 5,
      "note": 28,
      "start": 13.5459,
      "duration": 0.2488,
      "velocity": 110,
      "chip": "ym2612"
    },
    {
      "channel": 0,
      "note": 64,
      "start": 13.6961,
      "duration": 0.1379,
      "velocity": 97,
      "chip": "ym2612"
    },
    {
      "channel": 1,
      "note": 92,
      "start": 13.6982,
      "duration": 0.0958,
      "velocity": 117,
      "chip": "ym2612"
    },
    {
      "channel": 2,
      "note": 49,
      "start": 13.7007,
      "duration": 0.0935,
      "velocity": 123,
      "chip": "ym2612"
    },
    {
      "channel": 4,
      "note": 95,
      "start": 13.7029,
      "duration": 0.0915,
      "velocity": 117,
      "chip": "ym2612"
    },
    {
      "channel": 2,
      "note": 37,
      "start": 13.8185,
      "duration": 0.1357,
      "velocity": 127,
      "chip": "ym2612"
    },
    {
      "channel": 4,
      "note": 88,
      "start": 13.8207,
      "duration": 0.1337,
      "velocity": 117,
      "chip": "ym2612"
    },
    {
      "channel": 5,
      "note": 32,
      "start": 13.8228,
      "duration": 0.2519,
      "velocity": 110,
      "chip": "ym2612"
    },
    {
      "channel": 1,
      "note": 91,
      "start": 13.9759,
      "duration": 0.0981,
      "velocity": 117,
      "chip": "ym2612"
    },
    {
      "channel": 2,
      "note": 49,
      "start": 13.9785,
      "duration": 0.0957,
      "velocity": 123,
      "chip": "ym2612"
    },
    {
      "channel": 3,
      "note": 67,
      "start": 13.9806,
      "duration": 0.0937,
      "velocity": 97,
      "chip": "ym2612"
    },
    {
      "channel": 4,
      "note": 94,
      "start": 13.9827,
      "duration": 0.0918,
      "velocity": 117,
      "chip": "ym2612"
    },
    {
      "channel": 1,
      "note": 92,
      "start": 14.0959,
      "duration": 0.1382,
      "velocity": 117,
      "chip": "ym2612"
    },
    {
      "channel": 2,
      "note": 27,
      "start": 14.0985,
      "duration": 0.1357,
      "velocity": 93,
      "chip": "ym2612"
    },
    {
      "channel": 3,
      "note": 68,
      "start": 14.1006,
      "duration": 0.16,
      "velocity": 97,
      "chip": "ym2612"
    },
    {
      "channel": 4,
      "note": 95,
      "start": 14.1027,
      "duration": 0.1318,
      "velocity": 117,
      "chip": "ym2612"
    },
    {
      "channel": 5,
      "note": 35,
      "start": 14.1049,
      "duration": 0.2498,
      "velocity": 110,
      "chip": "ym2612"
    },
    {
      "channel": 0,
      "note": 67,
      "start": 14.1359,
      "duration": 0.0981,
      "velocity": 97,
      "chip": "ym2612"
    },
    {
      "channel": 0,
      "note": 68,
      "start": 14.2559,
      "duration": 0.1781,
      "velocity": 97,
      "chip": "ym2612"
    },
    {
      "channel": 2,
      "note": 49,
      "start": 14.2605,
      "duration": 0.0937,
      "velocity": 123,
      "chip": "ym2612"
    },
    {
      "channel": 4,
      "note": 88,
      "start": 14.2627,
      "duration": 0.0917,
      "velocity": 117,
      "chip": "ym2612"
    },
    {
      "channel": 1,
      "note": 91,
      "start": 14.3759,
      "duration": 0.1381,
      "velocity": 117,
      "chip": "ym2612"
    },
    {
      "channel": 2,
      "note": 37,
      "start": 14.3785,
      "duration": 0.1357,
      "velocity": 127,
      "chip": "ym2612"
    },
    {
      "channel": 3,
      "note": 71,
      "start": 14.3806,
      "duration": 0.1337,
      "velocity": 97,
      "chip": "ym2612"
    },
    {
      "channel": 4,
      "note": 94,
      "start": 14.3827,
      "duration": 0.1318,
      "velocity": 117,
      "chip": "ym2612"
    },
    {
      "channel": 5,
      "note": 35,
      "start": 14.3849,
      "duration": 0.2497,
      "velocity": 110,
      "chip": "ym2612"
    },
    {
      "channel": 0,
      "note": 71,
      "start": 14.5359,
      "duration": 0.1381,
      "velocity": 97,
      "chip": "ym2612"
    },
    {
      "channel": 1,
      "note": 95,
      "start": 14.538,
      "duration": 0.076,
      "velocity": 117,
      "chip": "ym2612"
    },
    {
      "channel": 2,
      "note": 37,
      "start": 14.5401,
      "duration": 0.0941,
      "velocity": 127,
      "chip": "ym2612"
    },
    {
      "channel": 3,
      "note": 73,
      "start": 14.5422,
      "duration": 0.0921,
      "velocity": 97,
      "chip": "ym2612"
    },
    {
      "channel": 4,
      "note": 98,
      "start": 14.5443,
      "duration": 0.072,
      "velocity": 117,
      "chip": "ym2612"
    },
    {
      "channel": 4,
      "note": 88,
      "start": 14.6183,
      "duration": 0.0581,
      "velocity": 117,
      "chip": "ym2612"
    },
    {
      "channel": 2,
      "note": 37,
      "start": 14.6561,
      "duration": 0.1381,
      "velocity": 127,
      "chip": "ym2612"
    },
    {
      "channel": 3,
      "note": 64,
      "start": 14.6582,
      "duration": 0.1621,
      "velocity": 97,
      "chip": "ym2612"
    },
    {
      "channel": 5,
      "note": 28,
      "start": 14.6604,
      "duration": 0.1341,
      "velocity": 110,
      "chip": "ym2612"
    },
    {
      "channel": 1,
      "note": 95,
      "start": 14.6761,
      "duration": 0.0779,
      "velocity": 117,
      "chip": "ym2612"
    },
    {
      "channel": 4,
      "note": 98,
      "start": 14.6785,
      "duration": 0.0778,
      "velocity": 117,
      "chip": "ym2612"
    },
    {
      "channel": 0,
      "note": 73,
      "start": 14.7159,
      "duration": 0.0781,
      "velocity": 97,
      "chip": "ym2612"
    },
    {
      "channel": 4,
      "note": 88,
      "start": 14.7583,
      "duration": 0.062,
      "velocity": 117,
      "chip": "ym2612"
    },
    {
      "channel": 0,
      "note": 64,
      "start": 14.8159,
      "duration": 0.1781,
      "velocity": 97,
      "chip": "ym2612"
    },
    {
      "channel": 1,
      "note": 95,
      "start": 14.818,
      "duration": 0.076,
      "velocity": 117,
      "chip": "ym2612"
    },
    {
      "channel": 4,
      "note": 98,
      "start": 14.8224,
      "duration": 0.0738,
      "velocity": 117,
      "chip": "ym2612"
    },
    {
      "channel": 5,
      "note": 28,
      "start": 14.8245,
      "duration": 0.0898,
      "velocity": 110,
      "chip": "ym2612"
    },
    {
      "channel": 4,
      "note": 88,
      "start": 14.8983,
      "duration": 0.038,
      "velocity": 117,
      "chip": "ym2612"
    },
    {
      "channel": 1,
      "note": 93,
      "start": 14.936,
      "duration": 0.138,
      "velocity": 117,
      "chip": "ym2612"
    },
    {
      "channel": 4,
      "note": 97,
      "start": 14.9384,
      "duration": 0.136,
      "velocity": 117,
      "chip": "ym2612"
    },
    {
      "channel": 5,
      "note": 23,
      "start": 14.9405,
      "duration": 0.1938,
      "velocity": 110,
      "chip": "ym2612"
    },
    {
      "channel": 4,
      "note": 88,
      "start": 15.1182,
      "duration": 0.0762,
      "velocity": 117,
      "chip": "ym2612"
    },
    {
      "channel": 1,
      "note": 91,
      "start": 15.2159,
      "duration": 0.1381,
      "velocity": 117,
      "chip": "ym2612"
    },
    {
      "channel": 4,
      "note": 94,
      "start": 15.2183,
      "duration": 0.1361,
      "velocity": 117,
      "chip": "ym2612"
    },
    {
      "channel": 5,
      "note": 25,
      "start": 15.2204,
      "duration": 0.1939,
      "velocity": 110,
      "chip": "ym2612"
    },
    {
      "channel": 1,
      "note": 92,
      "start": 15.3959,
      "duration": 0.1181,
      "velocity": 117,
      "chip": "ym2612"
    },
    {
      "channel": 2,
      "note": 37,
      "start": 15.3982,
      "duration": 0.076,
      "velocity": 127,
      "chip": "ym2612"
    },
    {
      "channel": 4,
      "note": 95,
      "start": 15.4004,
      "duration": 0.116,
      "velocity": 117,
      "chip": "ym2612"
    },
    {
      "channel": 2,
      "note": 37,
      "start": 15.5162,
      "duration": 0.138,
      "velocity": 127,
      "chip": "ym2612"
    },
    {
      "channel": 5,
      "note": 27,
      "start": 15.5186,
      "duration": 0.1757,
      "velocity": 110,
      "chip": "ym2612"
    },
    {
      "channel": 2,
      "note": 49,
      "start": 15.6785,
      "duration": 0.0757,
      "velocity": 123,
      "chip": "ym2612"
    },
    {
      "channel": 4,
      "note": 88,
      "start": 15.6807,
      "duration": 0.0737,
      "velocity": 117,
      "chip": "ym2612"
    },
    {
      "channel": 1,
      "note": 79,
      "start": 15.7962,
      "duration": 0.1378,
      "velocity": 117,
      "chip": "ym2612"
    },
    {
      "channel": 2,
      "note": 27,
      "start": 15.7991,
      "duration": 0.1351,
      "velocity": 93,
      "chip": "ym2612"
    },
    {
      "channel": 3,
      "note": 76,
      "start": 15.8015,
      "duration": 0.1727,
      "velocity": 97,
      "chip": "ym2612"
    },
    {
      "channel": 4,
      "note": 82,
      "start": 15.8039,
      "duration": 0.1305,
      "velocity": 117,
      "chip": "ym2612"
    },
    {
      "channel": 5,
      "note": 28,
      "start": 15.8063,
      "duration": 0.2483,
      "velocity": 110,
      "chip": "ym2612"
    },
    {
      "channel": 0,
      "note": 76,
      "start": 15.9561,
      "duration": 0.1778,
      "velocity": 97,
      "chip": "ym2612"
    },
    {
      "channel": 1,
      "note": 80,
      "start": 15.9582,
      "duration": 0.1158,
      "velocity": 117,
      "chip": "ym2612"
    },
    {
      "channel": 2,
      "note": 49,
      "start": 15.9608,
      "duration": 0.0934,
      "velocity": 123,
      "chip": "ym2612"
    },
    {
      "channel": 4,
      "note": 83,
      "start": 15.963,
      "duration": 0.0914,
      "velocity": 117,
      "chip": "ym2612"
    },
    {
      "channel": 2,
      "note": 37,
      "start": 16.0766,
      "duration": 0.1375,
      "velocity": 127,
      "chip": "ym2612"
    },
    {
      "channel": 4,
      "note": 76,
      "start": 16.0788,
      "duration": 0.1376,
      "velocity": 117,
      "chip": "ym2612"
    },
    {
      "channel": 5,
      "note": 32,
      "start": 16.0809,
      "duration": 0.2558,
      "velocity": 110,
      "chip": "ym2612"
    },
    {
      "channel": 3,
      "note": 79,
      "start": 16.2162,
      "duration": 0.078,
      "velocity": 97,
      "chip": "ym2612"
    },
    {
      "channel": 1,
      "note": 79,
      "start": 16.2359,
      "duration": 0.0981,
      "velocity": 117,
      "chip": "ym2612"
    },
    {
      "channel": 2,
      "note": 49,
      "start": 16.2381,
      "duration": 0.0961,
      "velocity": 127,
      "chip": "ym2612"
    },
    {
      "channel": 4,
      "note": 82,
      "start": 16.2403,
      "duration": 0.0962,
      "velocity": 117,
      "chip": "ym2612"
    },
    {
      "channel": 3,
      "note": 80,
      "start": 16.3363,
      "duration": 0.138,
      "velocity": 97,
      "chip": "ym2612"
    },
    {
      "channel": 1,
      "note": 80,
      "start": 16.3559,
      "duration": 0.1581,
      "velocity": 117,
      "chip": "ym2612"
    },
    {
      "channel": 2,
      "note": 27,
      "start": 16.359,
      "duration": 0.1371,
      "velocity": 93,
      "chip": "ym2612"
    },
    {
      "channel": 4,
      "note": 83,
      "start": 16.3613,
      "duration": 0.1351,
      "velocity": 117,
      "chip": "ym2612"
    },
    {
      "channel": 5,
      "note": 35,
      "start": 16.3634,
      "duration": 0.2532,
      "velocity": 110,
      "chip": "ym2612"
    },
    {
      "channel": 0,
      "note": 79,
      "start": 16.3759,
      "duration": 0.0981,
      "velocity": 97,
      "chip": "ym2612"
    },
    {
      "channel": 0,
      "note": 80,
      "start": 16.4959,
      "duration": 0.1381,
      "velocity": 97,
      "chip": "ym2612"
    },
    {
      "channel": 2,
      "note": 49,
      "start": 16.5166,
      "duration": 0.0975,
      "velocity": 123,
      "chip": "ym2612"
    },
    {
      "channel": 4,
      "note": 76,
      "start": 16.5188,
      "duration": 0.0976,
      "velocity": 117,
      "chip": "ym2612"
    },
    {
      "channel": 3,
      "note": 83,
      "start": 16.6162,
      "duration": 0.138,
      "velocity": 97,
      "chip": "ym2612"
    },
    {
      "channel": 1,
      "note": 79,
      "start": 16.6361,
      "duration": 0.14,
      "velocity": 117,
      "chip": "ym2612"
    },
    {
      "channel": 2,
      "note": 37,
      "start": 16.6387,
      "duration": 0.1375,
      "velocity": 127,
      "chip": "ym2612"
    },
    {
      "channel": 4,
      "note": 82,
      "start": 16.6408,
      "duration": 0.1356,
      "velocity": 117,
      "chip": "ym2612"
    },
    {
      "channel": 5,
      "note": 37,
      "start": 16.6429,
      "duration": 0.2517,
      "velocity": 110,
      "chip": "ym2612"
    },
    {
      "channel": 0,
      "note": 83,
      "start": 16.7759,
      "duration": 0.1381,
      "velocity": 97,
      "chip": "ym2612"
    },
    {
      "channel": 1,
      "note": 80,
      "start": 16.7959,
      "duration": 0.0981,
      "velocity": 117,
      "chip": "ym2612"
    },
    {
      "channel": 2,
      "note": 49,
      "start": 16.7981,
      "duration": 0.0961,
      "velocity": 127,
      "chip": "ym2612"
    },
    {
      "channel": 4,
      "note": 83,
      "start": 16.8003,
      "duration": 0.0941,
      "velocity": 117,
      "chip": "ym2612"
    },
    {
      "channel": 2,
      "note": 27,
      "start": 16.9191,
      "duration": 0.135,
      "velocity": 93,
      "chip": "ym2612"
    },
    {
      "channel": 4,
      "note": 76,
      "start": 16.9213,
      "duration": 0.1331,
      "velocity": 117,
      "chip": "ym2612"
    },
    {
      "channel": 5,
      "note": 38,
      "start": 16.9234,
      "duration": 0.2512,
      "velocity": 110,
      "chip": "ym2612"
    },
    {
      "channel": 1,
      "note": 79,
      "start": 17.076,
      "duration": 0.098,
      "velocity": 117,
      "chip": "ym2612"
    },
    {
      "channel": 2,
      "note": 49,
      "start": 17.0786,
      "duration": 0.0956,
      "velocity": 123,
      "chip": "ym2612"
    },
    {
      "channel": 3,
      "note": 76,
      "start": 17.0807,
      "duration": 0.1335,
      "velocity": 97,
      "chip": "ym2612"
    },
    {
      "channel": 4,
      "note": 82,
      "start": 17.0828,
      "duration": 0.0916,
      "velocity": 117,
      "chip": "ym2612"
    },
    {
      "channel": 1,
      "note": 80,
      "start": 17.1959,
      "duration": 0.1581,
      "velocity": 117,
      "chip": "ym2612"
    },
    {
      "channel": 2,
      "note": 37,
      "start": 17.1985,
      "duration": 0.1356,
      "velocity": 127,
      "chip": "ym2612"
    },
    {
      "channel": 4,
      "note": 83,
      "start": 17.2008,
      "duration": 0.1336,
      "velocity": 117,
      "chip": "ym2612"
    },
    {
      "channel": 5,
      "note": 37,
      "start": 17.2029,
      "duration": 0.2518,
      "velocity": 110,
      "chip": "ym2612"
    },
    {
      "channel": 0,
      "note": 76,
      "start": 17.2359,
      "duration": 0.1381,
      "velocity": 97,
      "chip": "ym2612"
    },
    {
      "channel": 2,
      "note": 49,
      "start": 17.3562,
      "duration": 0.098,
      "velocity": 127,
      "chip": "ym2612"
    },
    {
      "channel": 3,
      "note": 79,
      "start": 17.3583,
      "duration": 0.0959,
      "velocity": 97,
      "chip": "ym2612"
    },
    {
      "channel": 4,
      "note": 76,
      "start": 17.3605,
      "duration": 0.094,
      "velocity": 117,
      "chip": "ym2612"
    },
    {
      "channel": 1,
      "note": 79,
      "start": 17.4759,
      "duration": 0.1382,
      "velocity": 117,
      "chip": "ym2612"
    },
    {
      "channel": 2,
      "note": 49,
      "start": 17.4787,
      "duration": 0.1355,
      "velocity": 123,
      "chip": "ym2612"
    },
    {
      "channel": 3,
      "note": 80,
      "start": 17.4808,
      "duration": 0.1336,
      "velocity": 97,
      "chip": "ym2612"
    },
    {
      "channel": 4,
      "note": 82,
      "start": 17.4829,
      "duration": 0.1317,
      "velocity": 117,
      "chip": "ym2612"
    },
    {
      "channel": 5,
      "note": 35,
      "start": 17.4851,
      "duration": 0.2496,
      "velocity": 110,
      "chip": "ym2612"
    },
    {
      "channel": 0,
      "note": 79,
      "start": 17.5359,
      "duration": 0.0781,
      "velocity": 97,
      "chip": "ym2612"
    },
    {
      "channel": 0,
      "note": 80,
      "start": 17.6359,
      "duration": 0.1381,
      "velocity": 97,
      "chip": "ym2612"
    },
    {
      "channel": 1,
      "note": 80,
      "start": 17.638,
      "duration": 0.096,
      "velocity": 117,
      "chip": "ym2612"
    },
    {
      "channel": 2,
      "note": 37,
      "start": 17.6406,
      "duration": 0.0936,
      "velocity": 127,
      "chip": "ym2612"
    },
    {
      "channel": 4,
      "note": 83,
      "start": 17.6428,
      "duration": 0.0916,
      "velocity": 117,
      "chip": "ym2612"
    },
    {
      "channel": 2,
      "note": 37,
      "start": 17.7582,
      "duration": 0.136,
      "velocity": 127,
      "chip": "ym2612"
    },
    {
      "channel": 3,
      "note": 83,
      "start": 17.7603,
      "duration": 0.134,
      "velocity": 97,
      "chip": "ym2612"
    },
    {
      "channel": 5,
      "note": 32,
      "start": 17.7644,
      "duration": 0.2501,
      "velocity": 110,
      "chip": "ym2612"
    },
    {
      "channel": 0,
      "note": 83,
      "start": 17.9159,
      "duration": 0.1581,
      "velocity": 97,
      "chip": "ym2612"
    },
    {
      "channel": 2,
      "note": 49,
      "start": 17.9185,
      "duration": 0.0956,
      "velocity": 123,
      "chip": "ym2612"
    },
    {
      "channel": 4,
      "note": 76,
      "start": 17.9208,
      "duration": 0.0935,
      "velocity": 117,
      "chip": "ym2612"
    },
    {
      "channel": 1,
      "note": 79,
      "start": 18.0361,
      "duration": 0.1379,
      "velocity": 117,
      "chip": "ym2612"
    },
    {
      "channel": 2,
      "note": 27,
      "start": 18.0389,
      "duration": 0.1353,
      "velocity": 93,
      "chip": "ym2612"
    },
    {
      "channel": 3,
      "note": 76,
      "start": 18.041,
      "duration": 0.1932,
      "velocity": 97,
      "chip": "ym2612"
    },
    {
      "channel": 4,
      "note": 82,
      "start": 18.0433,
      "duration": 0.1312,
      "velocity": 117,
      "chip": "ym2612"
    },
    {
      "channel": 5,
      "note": 28,
      "start": 18.0454,
      "duration": 0.2491,
      "velocity": 110,
      "chip": "ym2612"
    },
    {
      "channel": 0,
      "note": 76,
      "start": 18.2159,
      "duration": 0.1781,
      "velocity": 97,
      "chip": "ym2612"
    },
    {
      "channel": 1,
      "note": 80,
      "start": 18.218,
      "duration": 0.096,
      "velocity": 117,
      "chip": "ym2612"
    },
    {
      "channel": 2,
      "note": 49,
      "start": 18.2205,
      "duration": 0.0736,
      "velocity": 123,
      "chip": "ym2612"
    },
    {
      "channel": 4,
      "note": 83,
      "start": 18.2227,
      "duration": 0.0716,
      "velocity": 117,
      "chip": "ym2612"
    },
    {
      "channel": 2,
      "note": 37,
      "start": 18.3166,
      "duration": 0.1575,
      "velocity": 127,
      "chip": "ym2612"
    },
    {
      "channel": 4,
      "note": 76,
      "start": 18.3188,
      "duration": 0.1576,
      "velocity": 117,
      "chip": "ym2612"
    },
    {
      "channel": 5,
      "note": 32,
      "start": 18.3209,
      "duration": 0.2558,
      "velocity": 110,
      "chip": "ym2612"
    },
    {
      "channel": 3,
      "note": 79,
      "start": 18.4762,
      "duration": 0.078,
      "velocity": 97,
      "chip": "ym2612"
    },
    {
      "channel": 1,
      "note": 79,
      "start": 18.4959,
      "duration": 0.0781,
      "velocity": 117,
      "chip": "ym2612"
    },
    {
      "channel": 2,
      "note": 49,
      "start": 18.4981,
      "duration": 0.0761,
      "velocity": 127,
      "chip": "ym2612"
    },
    {
      "channel": 4,
      "note": 82,
      "start": 18.5003,
      "duration": 0.0762,
      "velocity": 117,
      "chip": "ym2612"
    },
    {
      "channel": 3,
      "note": 80,
      "start": 18.5763,
      "duration": 0.138,
      "velocity": 97,
      "chip": "ym2612"
    },
    {
      "channel": 1,
      "note": 80,
      "start": 18.6159,
      "duration": 0.1581,
      "velocity": 117,
      "chip": "ym2612"
    },
    {
      "channel": 2,
      "note": 27,
      "start": 18.619,
      "duration": 0.1371,
      "velocity": 93,
      "chip": "ym2612"
    },
    {
      "channel": 4,
      "note": 83,
      "start": 18.6213,
      "duration": 0.1351,
      "velocity": 117,
      "chip": "ym2612"
    },
    {
      "channel": 5,
      "note": 35,
      "start": 18.6234,
      "duration": 0.2332,
      "velocity": 110,
      "chip": "ym2612"
    },
    {
      "channel": 0,
      "note": 79,
      "start": 18.6359,
      "duration": 0.0781,
      "velocity": 97,
      "chip": "ym2612"
    },
    {
      "channel": 0,
      "note": 80,
      "start": 18.7559,
      "duration": 0.1381,
      "velocity": 97,
      "chip": "ym2612"
    },
    {
      "channel": 2,
      "note": 49,
      "start": 18.7766,
      "duration": 0.0775,
      "velocity": 123,
      "chip": "ym2612"
    },
    {
      "channel": 4,
      "note": 76,
      "start": 18.7788,
      "duration": 0.0776,
      "velocity": 117,
      "chip": "ym2612"
    },
    {
      "channel": 3,
      "note": 83,
      "start": 18.8562,
      "duration": 0.158,
      "velocity": 97,
      "chip": "ym2612"
    },
    {
      "channel": 1,
      "note": 79,
      "start": 18.8961,
      "duration": 0.14,
      "velocity": 117,
      "chip": "ym2612"
    },
    {
      "channel": 2,
      "note": 37,
      "start": 18.8987,
      "duration": 0.1375,
      "velocity": 127,
      "chip": "ym2612"
    },
    {
      "channel": 4,
      "note": 82,
      "start": 18.9008,
      "duration": 0.1356,
      "velocity": 117,
      "chip": "ym2612"
    },
    {
      "channel": 5,
      "note": 37,
      "start": 18.9029,
      "duration": 0.2517,
      "velocity": 110,
      "chip": "ym2612"
    },
    {
      "channel": 0,
      "note": 83,
      "start": 19.0359,
      "duration": 0.1381,
      "velocity": 97,
      "chip": "ym2612"
    },
    {
      "channel": 1,
      "note": 80,
      "start": 19.0559,
      "duration": 0.0981,
      "velocity": 117,
      "chip": "ym2612"
    },
    {
      "channel": 2,
      "note": 49,
      "start": 19.0581,
      "duration": 0.0961,
      "velocity": 127,
      "chip": "ym2612"
    },
    {
      "channel": 4,
      "note": 83,
      "start": 19.0603,
      "duration": 0.0941,
      "velocity": 117,
      "chip": "ym2612"
    },
    {
      "channel": 2,
      "note": 27,
      "start": 19.1791,
      "duration": 0.135,
      "velocity": 93,
      "chip": "ym2612"
    },
    {
      "channel": 4,
      "note": 76,
      "start": 19.1813,
      "duration": 0.1331,
      "velocity": 117,
      "chip": "ym2612"
    },
    {
      "channel": 5,
      "note": 38,
      "start": 19.1834,
      "duration": 0.2512,
      "velocity": 110,
      "chip": "ym2612"
    },
    {
      "channel": 1,
      "note": 79,
      "start": 19.336,
      "duration": 0.098,
      "velocity": 117,
      "chip": "ym2612"
    },
    {
      "channel": 2,
      "note": 49,
      "start": 19.3386,
      "duration": 0.0956,
      "velocity": 123,
      "chip": "ym2612"
    },
    {
      "channel": 3,
      "note": 76,
      "start": 19.3407,
      "duration": 0.1335,
      "velocity": 97,
      "chip": "ym2612"
    },
    {
      "channel": 4,
      "note": 82,
      "start": 19.3428,
      "duration": 0.0916,
      "velocity": 117,
      "chip": "ym2612"
    },
    {
      "channel": 1,
      "note": 80,
      "start": 19.4559,
      "duration": 0.1581,
      "velocity": 117,
      "chip": "ym2612"
    },
    {
      "channel": 2,
      "note": 37,
      "start": 19.4585,
      "duration": 0.1356,
      "velocity": 127,
      "chip": "ym2612"
    },
    {
      "channel": 4,
      "note": 83,
      "start": 19.4608,
      "duration": 0.1336,
      "velocity": 117,
      "chip": "ym2612"
    },
    {
      "channel": 5,
      "note": 37,
      "start": 19.4629,
      "duration": 0.2518,
      "velocity": 110,
      "chip": "ym2612"
    },
    {
      "channel": 0,
      "note": 76,
      "start": 19.4959,
      "duration": 0.1381,
      "velocity": 97,
      "chip": "ym2612"
    },
    {
      "channel": 2,
      "note": 49,
      "start": 19.6162,
      "duration": 0.098,
      "velocity": 127,
      "chip": "ym2612"
    },
    {
      "channel": 3,
      "note": 79,
      "start": 19.6183,
      "duration": 0.0959,
      "velocity": 97,
      "chip": "ym2612"
    },
    {
      "channel": 4,
      "note": 76,
      "start": 19.6205,
      "duration": 0.094,
      "velocity": 117,
      "chip": "ym2612"
    },
    {
      "channel": 1,
      "note": 79,
      "start": 19.7359,
      "duration": 0.1382,
      "velocity": 117,
      "chip": "ym2612"
    },
    {
      "channel": 2,
      "note": 49,
      "start": 19.7387,
      "duration": 0.1355,
      "velocity": 123,
      "chip": "ym2612"
    },
    {
      "channel": 3,
      "note": 80,
      "start": 19.7408,
      "duration": 0.1336,
      "velocity": 97,
      "chip": "ym2612"
    },
    {
      "channel": 4,
      "note": 82,
      "start": 19.7429,
      "duration": 0.1317,
      "velocity": 117,
      "chip": "ym2612"
    },
    {
      "channel": 5,
      "note": 35,
      "start": 19.7451,
      "duration": 0.2496,
      "velocity": 110,
      "chip": "ym2612"
    },
    {
      "channel": 0,
      "note": 79,
      "start": 19.7759,
      "duration": 0.0981,
      "velocity": 97,
      "chip": "ym2612"
    },
    {
      "channel": 0,
      "note": 80,
      "start": 19.8959,
      "duration": 0.1381,
      "velocity": 97,
      "chip": "ym2612"
    },
    {
      "channel": 1,
      "note": 80,
      "start": 19.898,
      "duration": 0.096,
      "velocity": 117,
      "chip": "ym2612"
    },
    {
      "channel": 2,
      "note": 37,
      "start": 19.9006,
      "duration": 0.0936,
      "velocity": 127,
      "chip": "ym2612"
    },
    {
      "channel": 4,
      "note": 83,
      "start": 19.9028,
      "duration": 0.0916,
      "velocity": 117,
      "chip": "ym2612"
    },
    {
      "channel": 2,
      "note": 37,
      "start": 20.0182,
      "duration": 0.136,
      "velocity": 127,
      "chip": "ym2612"
    },
    {
      "channel": 3,
      "note": 83,
      "start": 20.0203,
      "duration": 0.134,
      "velocity": 97,
      "chip": "ym2612"
    },
    {
      "channel": 5,
      "note": 32,
      "start": 20.0244,
      "duration": 0.2501,
      "velocity": 110,
      "chip": "ym2612"
    },
    {
      "channel": 0,
      "note": 83,
      "start": 20.1759,
      "duration": 0.1381,
      "velocity": 97,
      "chip": "ym2612"
    },
    {
      "channel": 2,
      "note": 49,
      "start": 20.1785,
      "duration": 0.0956,
      "velocity": 123,
      "chip": "ym2612"
    },
    {
      "channel": 4,
      "note": 76,
      "start": 20.1808,
      "duration": 0.0935,
      "velocity": 117,
      "chip": "ym2612"
    },
    {
      "channel": 1,
      "note": 84,
      "start": 20.2962,
      "duration": 0.1378,
      "velocity": 117,
      "chip": "ym2612"
    },
    {
      "channel": 2,
      "note": 27,
      "start": 20.299,
      "duration": 0.1351,
      "velocity": 93,
      "chip": "ym2612"
    },
    {
      "channel": 3,
      "note": 81,
      "start": 20.3012,
      "duration": 0.173,
      "velocity": 97,
      "chip": "ym2612"
    },
    {
      "channel": 4,
      "note": 87,
      "start": 20.3036,
      "duration": 0.1309,
      "velocity": 117,
      "chip": "ym2612"
    },
    {
      "channel": 5,
      "note": 33,
      "start": 20.3057,
      "duration": 0.2488,
      "velocity": 110,
      "chip": "ym2612"
    },
    {
      "channel": 0,
      "note": 81,
      "start": 20.4559,
      "duration": 0.1981,
      "velocity": 97,
      "chip": "ym2612"
    },
    {
      "channel": 1,
      "note": 85,
      "start": 20.458,
      "duration": 0.116,
      "velocity": 117,
      "chip": "ym2612"
    },
    {
      "channel": 2,
      "note": 49,
      "start": 20.4605,
      "duration": 0.0936,
      "velocity": 123,
      "chip": "ym2612"
    },
    {
      "channel": 4,
      "note": 88,
      "start": 20.4627,
      "duration": 0.0916,
      "velocity": 117,
      "chip": "ym2612"
    },
    {
      "channel": 2,
      "note": 37,
      "start": 20.5766,
      "duration": 0.1375,
      "velocity": 127,
      "chip": "ym2612"
    },
    {
      "channel": 4,
      "note": 81,
      "start": 20.5788,
      "duration": 0.1376,
      "velocity": 117,
      "chip": "ym2612"
    },
    {
      "channel": 5,
      "note": 37,
      "start": 20.5809,
      "duration": 0.2558,
      "velocity": 110,
      "chip": "ym2612"
    },
    {
      "channel": 3,
      "note": 84,
      "start": 20.7162,
      "duration": 0.098,
      "velocity": 97,
      "chip": "ym2612"
    },
    {
      "channel": 1,
      "note": 84,
      "start": 20.7359,
      "duration": 0.0981,
      "velocity": 117,
      "chip": "ym2612"
    },
    {
      "channel": 2,
      "note": 49,
      "start": 20.7381,
      "duration": 0.0961,
      "velocity": 127,
      "chip": "ym2612"
    },
    {
      "channel": 4,
      "note": 87,
      "start": 20.7403,
      "duration": 0.0962,
      "velocity": 117,
      "chip": "ym2612"
    },
    {
      "channel": 3,
      "note": 85,
      "start": 20.8363,
      "duration": 0.138,
      "velocity": 97,
      "chip": "ym2612"
    },
    {
      "channel": 1,
      "note": 85,
      "start": 20.8559,
      "duration": 0.1781,
      "velocity": 117,
      "chip": "ym2612"
    },
    {
      "channel": 2,
      "note": 27,
      "start": 20.859,
      "duration": 0.1371,
      "velocity": 93,
      "chip": "ym2612"
    },
    {
      "channel": 4,
      "note": 88,
      "start": 20.8613,
      "duration": 0.1351,
      "velocity": 117,
      "chip": "ym2612"
    },
    {
      "channel": 5,
      "note": 40,
      "start": 20.8634,
      "duration": 0.2532,
      "velocity": 110,
      "chip": "ym2612"
    },
    {
      "channel": 0,
      "note": 84,
      "start": 20.8759,
      "duration": 0.0981,
      "velocity": 97,
      "chip": "ym2612"
    },
    {
      "channel": 0,
      "note": 85,
      "start": 20.9959,
      "duration": 0.1381,
      "velocity": 97,
      "chip": "ym2612"
    },
    {
      "channel": 2,
      "note": 49,
      "start": 21.0366,
      "duration": 0.0775,
      "velocity": 123,
      "chip": "ym2612"
    },
    {
      "channel": 4,
      "note": 81,
      "start": 21.0388,
      "duration": 0.0776,
      "velocity": 117,
      "chip": "ym2612"
    },
    {
      "channel": 3,
      "note": 88,
      "start": 21.1162,
      "duration": 0.138,
      "velocity": 97,
      "chip": "ym2612"
    },
    {
      "channel": 1,
      "note": 84,
      "start": 21.1361,
      "duration": 0.14,
      "velocity": 117,
      "chip": "ym2612"
    },
    {
      "channel": 2,
      "note": 37,
      "start": 21.1387,
      "duration": 0.1375,
      "velocity": 127,
      "chip": "ym2612"
    },
    {
      "channel": 4,
      "note": 87,
      "start": 21.1408,
      "duration": 0.1356,
      "velocity": 117,
      "chip": "ym2612"
    },
    {
      "channel": 5,
      "note": 42,
      "start": 21.1429,
      "duration": 0.2517,
      "velocity": 110,
      "chip": "ym2612"
    },
    {
      "channel": 0,
      "note": 88,
      "start": 21.2759,
      "duration": 0.1381,
      "velocity": 97,
      "chip": "ym2612"
    },
    {
      "channel": 1,
      "note": 85,
      "start": 21.3159,
      "duration": 0.0781,
      "velocity": 117,
      "chip": "ym2612"
    },
    {
      "channel": 2,
      "note": 49,
      "start": 21.3181,
      "duration": 0.0761,
      "velocity": 127,
      "chip": "ym2612"
    },
    {
      "channel": 4,
      "note": 88,
      "start": 21.3203,
      "duration": 0.0741,
      "velocity": 117,
      "chip": "ym2612"
    },
    {
      "channel": 2,
      "note": 27,
      "start": 21.4191,
      "duration": 0.155,
      "velocity": 93,
      "chip": "ym2612"
    },
    {
      "channel": 4,
      "note": 81,
      "start": 21.4213,
      "duration": 0.1531,
      "velocity": 117,
      "chip": "ym2612"
    },
    {
      "channel": 5,
      "note": 43,
      "start": 21.4234,
      "duration": 0.2512,
      "velocity": 110,
      "chip": "ym2612"
    },
    {
      "channel": 1,
      "note": 84,
      "start": 21.596,
      "duration": 0.078,
      "velocity": 117,
      "chip": "ym2612"
    },
    {
      "channel": 2,
      "note": 49,
      "start": 21.5986,
      "duration": 0.0756,
      "velocity": 123,
      "chip": "ym2612"
    },
    {
      "channel": 3,
      "note": 81,
      "start": 21.6007,
      "duration": 0.1335,
      "velocity": 97,
      "chip": "ym2612"
    },
    {
      "channel": 4,
      "note": 87,
      "start": 21.6028,
      "duration": 0.0716,
      "velocity": 117,
      "chip": "ym2612"
    },
    {
      "channel": 1,
      "note": 85,
      "start": 21.7159,
      "duration": 0.1581,
      "velocity": 117,
      "chip": "ym2612"
    },
    {
      "channel": 2,
      "note": 37,
      "start": 21.7185,
      "duration": 0.1356,
      "velocity": 127,
      "chip": "ym2612"
    },
    {
      "channel": 4,
      "note": 88,
      "start": 21.7208,
      "duration": 0.1336,
      "velocity": 117,
      "chip": "ym2612"
    },
    {
      "channel": 5,
      "note": 42,
      "start": 21.7229,
      "duration": 0.2318,
      "velocity": 110,
      "chip": "ym2612"
    },
    {
      "channel": 0,
      "note": 81,
      "start": 21.7559,
      "duration": 0.1381,
      "velocity": 97,
      "chip": "ym2612"
    },
    {
      "channel": 2,
      "note": 49,
      "start": 21.8762,
      "duration": 0.078,
      "velocity": 127,
      "chip": "ym2612"
    },
    {
      "channel": 3,
      "note": 84,
      "start": 21.8783,
      "duration": 0.0759,
      "velocity": 97,
      "chip": "ym2612"
    },
    {
      "channel": 4,
      "note": 81,
      "start": 21.8805,
      "duration": 0.074,
      "velocity": 117,
      "chip": "ym2612"
    },
    {
      "channel": 1,
      "note": 84,
      "start": 21.9959,
      "duration": 0.1382,
      "velocity": 117,
      "chip": "ym2612"
    },
    {
      "channel": 2,
      "note": 49,
      "start": 21.9987,
      "duration": 0.1355,
      "velocity": 123,
      "chip": "ym2612"
    },
    {
      "channel": 3,
      "note": 85,
      "start": 22.0008,
      "duration": 0.1336,
      "velocity": 97,
      "chip": "ym2612"
    },
    {
      "channel": 4,
      "note": 87,
      "start": 22.0029,
      "duration": 0.1317,
      "velocity": 117,
      "chip": "ym2612"
    },
    {
      "channel": 5,
      "note": 40,
      "start": 22.0051,
      "duration": 0.2496,
      "velocity": 110,
      "chip": "ym2612"
    },
    {
      "channel": 0,
      "note": 84,
      "start": 22.0359,
      "duration": 0.0981,
      "velocity": 97,
      "chip": "ym2612"
    },
    {
      "channel": 0,
      "note": 85,
      "start": 22.1559,
      "duration": 0.1381,
      "velocity": 97,
      "chip": "ym2612"
    },
    {
      "channel": 1,
      "note": 85,
      "start": 22.158,
      "duration": 0.096,
      "velocity": 117,
      "chip": "ym2612"
    },
    {
      "channel": 2,
      "note": 37,
      "start": 22.1606,
      "duration": 0.0936,
      "velocity": 127,
      "chip": "ym2612"
    },
    {
      "channel": 4,
      "note": 88,
      "start": 22.1628,
      "duration": 0.0916,
      "velocity": 117,
      "chip": "ym2612"
    },
    {
      "channel": 2,
      "note": 37,
      "start": 22.2782,
      "duration": 0.136,
      "velocity": 127,
      "chip": "ym2612"
    },
    {
      "channel": 3,
      "note": 88,
      "start": 22.2803,
      "duration": 0.134,
      "velocity": 97,
      "chip": "ym2612"
    },
    {
      "channel": 5,
      "note": 37,
      "start": 22.2844,
      "duration": 0.2501,
      "velocity": 110,
      "chip": "ym2612"
    },
    {
      "channel": 0,
      "note": 88,
      "start": 22.4359,
      "duration": 0.1381,
      "velocity": 97,
      "chip": "ym2612"
    },
    {
      "channel": 2,
      "note": 49,
      "start": 22.4385,
      "duration": 0.0956,
      "velocity": 123,
      "chip": "ym2612"
    },
    {
      "channel": 4,
      "note": 81,
      "start": 22.4408,
      "duration": 0.0935,
      "velocity": 117,
      "chip": "ym2612"
    },
    {
      "channel": 1,
      "note": 79,
      "start": 22.5562,
      "duration": 0.1378,
      "velocity": 117,
      "chip": "ym2612"
    },
    {
      "channel": 2,
      "note": 27,
      "start": 22.559,
      "duration": 0.1351,
      "velocity": 93,
      "chip": "ym2612"
    },
    {
      "channel": 3,
      "note": 76,
      "start": 22.5612,
      "duration": 0.173,
      "velocity": 97,
      "chip": "ym2612"
    },
    {
      "channel": 4,
      "note": 82,
      "start": 22.5636,
      "duration": 0.1309,
      "velocity": 117,
      "chip": "ym2612"
    },
    {
      "channel": 5,
      "note": 28,
      "start": 22.5657,
      "duration": 0.2488,
      "velocity": 110,
      "chip": "ym2612"
    },
    {
      "channel": 0,
      "note": 76,
      "start": 22.7159,
      "duration": 0.1781,
      "velocity": 97,
      "chip": "ym2612"
    },
    {
      "channel": 1,
      "note": 80,
      "start": 22.718,
      "duration": 0.116,
      "velocity": 117,
      "chip": "ym2612"
    },
    {
      "channel": 2,
      "note": 49,
      "start": 22.7205,
      "duration": 0.0936,
      "velocity": 123,
      "chip": "ym2612"
    },
    {
      "channel": 4,
      "note": 83,
      "start": 22.7227,
      "duration": 0.0916,
      "velocity": 117,
      "chip": "ym2612"
    },
    {
      "channel": 2,
      "note": 37,
      "start": 22.8366,
      "duration": 0.1375,
      "velocity": 127,
      "chip": "ym2612"
    },
    {
      "channel": 4,
      "note": 76,
      "start": 22.8388,
      "duration": 0.1376,
      "velocity": 117,
      "chip": "ym2612"
    },
    {
      "channel": 5,
      "note": 32,
      "start": 22.8409,
      "duration": 0.2558,
      "velocity": 110,
      "chip": "ym2612"
    },
    {
      "channel": 3,
      "note": 79,
      "start": 22.9762,
      "duration": 0.098,
      "velocity": 97,
      "chip": "ym2612"
    },
    {
      "channel": 1,
      "note": 79,
      "start": 22.9959,
      "duration": 0.0981,
      "velocity": 117,
      "chip": "ym2612"
    },
    {
      "channel": 2,
      "note": 49,
      "start": 22.9981,
      "duration": 0.0961,
      "velocity": 127,
      "chip": "ym2612"
    },
    {
      "channel": 4,
      "note": 82,
      "start": 23.0003,
      "duration": 0.0962,
      "velocity": 117,
      "chip": "ym2612"
    },
    {
      "channel": 3,
      "note": 80,
      "start": 23.0963,
      "duration": 0.138,
      "velocity": 97,
      "chip": "ym2612"
    },
    {
      "channel": 1,
      "note": 80,
      "start": 23.1159,
      "duration": 0.1581,
      "velocity": 117,
      "chip": "ym2612"
    },
    {
      "channel": 2,
      "note": 27,
      "start": 23.119,
      "duration": 0.1371,
      "velocity": 93,
      "chip": "ym2612"
    },
    {
      "channel": 4,
      "note": 83,
      "start": 23.1213,
      "duration": 0.1351,
      "velocity": 117,
      "chip": "ym2612"
    },
    {
      "channel": 5,
      "note": 35,
      "start": 23.1234,
      "duration": 0.2532,
      "velocity": 110,
      "chip": "ym2612"
    },
    {
      "channel": 0,
      "note": 79,
      "start": 23.1359,
      "duration": 0.0981,
      "velocity": 97,
      "chip": "ym2612"
    },
    {
      "channel": 0,
      "note": 80,
      "start": 23.2559,
      "duration": 0.1381,
      "velocity": 97,
      "chip": "ym2612"
    },
    {
      "channel": 2,
      "note": 49,
      "start": 23.2766,
      "duration": 0.0975,
      "velocity": 123,
      "chip": "ym2612"
    },
    {
      "channel": 4,
      "note": 76,
      "start": 23.2788,
      "duration": 0.0976,
      "velocity": 117,
      "chip": "ym2612"
    },
    {
      "channel": 3,
      "note": 83,
      "start": 23.3762,
      "duration": 0.138,
      "velocity": 97,
      "chip": "ym2612"
    },
    {
      "channel": 1,
      "note": 79,
      "start": 23.3961,
      "duration": 0.14,
      "velocity": 117,
      "chip": "ym2612"
    },
    {
      "channel": 2,
      "note": 37,
      "start": 23.3987,
      "duration": 0.1375,
      "velocity": 127,
      "chip": "ym2612"
    },
    {
      "channel": 4,
      "note": 82,
      "start": 23.4008,
      "duration": 0.1356,
      "velocity": 117,
      "chip": "ym2612"
    },
    {
      "channel": 5,
      "note": 37,
      "start": 23.4029,
      "duration": 0.2517,
      "velocity": 110,
      "chip": "ym2612"
    },
    {
      "channel": 0,
      "note": 83,
      "start": 23.5359,
      "duration": 0.1381,
      "velocity": 97,
      "chip": "ym2612"
    },
    {
      "channel": 1,
      "note": 80,
      "start": 23.5559,
      "duration": 0.0981,
      "velocity": 117,
      "chip": "ym2612"
    },
    {
      "channel": 2,
      "note": 49,
      "start": 23.5581,
      "duration": 0.0961,
      "velocity": 127,
      "chip": "ym2612"
    },
    {
      "channel": 4,
      "note": 83,
      "start": 23.5603,
      "duration": 0.0941,
      "velocity": 117,
      "chip": "ym2612"
    },
    {
      "channel": 2,
      "note": 27,
      "start": 23.679,
      "duration": 0.1351,
      "velocity": 93,
      "chip": "ym2612"
    },
    {
      "channel": 4,
      "note": 76,
      "start": 23.6813,
      "duration": 0.1331,
      "velocity": 117,
      "chip": "ym2612"
    },
    {
      "channel": 5,
      "note": 38,
      "start": 23.6834,
      "duration": 0.2512,
      "velocity": 110,
      "chip": "ym2612"
    },
    {
      "channel": 1,
      "note": 79,
      "start": 23.836,
      "duration": 0.098,
      "velocity": 117,
      "chip": "ym2612"
    },
    {
      "channel": 2,
      "note": 49,
      "start": 23.8386,
      "duration": 0.0956,
      "velocity": 123,
      "chip": "ym2612"
    },
    {
      "channel": 3,
      "note": 76,
      "start": 23.8407,
      "duration": 0.1335,
      "velocity": 97,
      "chip": "ym2612"
    },
    {
      "channel": 4,
      "note": 82,
      "start": 23.8428,
      "duration": 0.0916,
      "velocity": 117,
      "chip": "ym2612"
    },
    {
      "channel": 1,
      "note": 80,
      "start": 23.9559,
      "duration": 0.1781,
      "velocity": 117,
      "chip": "ym2612"
    },
    {
      "channel": 2,
      "note": 37,
      "start": 23.9585,
      "duration": 0.1356,
      "velocity": 127,
      "chip": "ym2612"
    },
    {
      "channel": 4,
      "note": 83,
      "start": 23.9608,
      "duration": 0.1336,
      "velocity": 117,
      "chip": "ym2612"
    },
    {
      "channel": 5,
      "note": 37,
      "start": 23.9629,
      "duration": 0.2518,
      "velocity": 110,
      "chip": "ym2612"
    },
    {
      "channel": 0,
      "note": 76,
      "start": 24.0159,
      "duration": 0.1381,
      "velocity": 97,
      "chip": "ym2612"
    },
    {
      "channel": 2,
      "note": 49,
      "start": 24.1362,
      "duration": 0.078,
      "velocity": 127,
      "chip": "ym2612"
    },
    {
      "channel": 3,
      "note": 79,
      "start": 24.1383,
      "duration": 0.0759,
      "velocity": 97,
      "chip": "ym2612"
    },
    {
      "channel": 4,
      "note": 76,
      "start": 24.1405,
      "duration": 0.074,
      "velocity": 117,
      "chip": "ym2612"
    },
    {
      "channel": 1,
      "note": 79,
      "start": 24.2359,
      "duration": 0.1382,
      "velocity": 117,
      "chip": "ym2612"
    },
    {
      "channel": 2,
      "note": 49,
      "start": 24.2387,
      "duration": 0.1355,
      "velocity": 123,
      "chip": "ym2612"
    },
    {
      "channel": 3,
      "note": 80,
      "start": 24.2408,
      "duration": 0.1336,
      "velocity": 97,
      "chip": "ym2612"
    },
    {
      "channel": 4,
      "note": 82,
      "start": 24.2429,
      "duration": 0.1317,
      "velocity": 117,
      "chip": "ym2612"
    },
    {
      "channel": 5,
      "note": 35,
      "start": 24.2451,
      "duration": 0.2496,
      "velocity": 110,
      "chip": "ym2612"
    },
    {
      "channel": 0,
      "note": 79,
      "start": 24.2959,
      "duration": 0.0781,
      "velocity": 97,
      "chip": "ym2612"
    },
    {
      "channel": 0,
      "note": 80,
      "start": 24.4159,
      "duration": 0.1381,
      "velocity": 97,
      "chip": "ym2612"
    },
    {
      "channel": 1,
      "note": 80,
      "start": 24.418,
      "duration": 0.076,
      "velocity": 117,
      "chip": "ym2612"
    },
    {
      "channel": 2,
      "note": 37,
      "start": 24.4206,
      "duration": 0.0736,
      "velocity": 127,
      "chip": "ym2612"
    },
    {
      "channel": 4,
      "note": 83,
      "start": 24.4228,
      "duration": 0.0716,
      "velocity": 117,
      "chip": "ym2612"
    },
    {
      "channel": 2,
      "note": 37,
      "start": 24.5182,
      "duration": 0.156,
      "velocity": 127,
      "chip": "ym2612"
    },
    {
      "channel": 3,
      "note": 83,
      "start": 24.5203,
      "duration": 0.154,
      "velocity": 97,
      "chip": "ym2612"
    },
    {
      "channel": 5,
      "note": 32,
      "start": 24.5244,
      "duration": 0.2501,
      "velocity": 110,
      "chip": "ym2612"
    },
    {
      "channel": 0,
      "note": 83,
      "start": 24.6959,
      "duration": 0.1381,
      "velocity": 97,
      "chip": "ym2612"
    },
    {
      "channel": 2,
      "note": 49,
      "start": 24.6985,
      "duration": 0.0756,
      "velocity": 123,
      "chip": "ym2612"
    },
    {
      "channel": 4,
      "note": 76,
      "start": 24.7008,
      "duration": 0.0735,
      "velocity": 117,
      "chip": "ym2612"
    },
    {
      "channel": 1,
      "note": 86,
      "start": 24.8162,
      "duration": 0.1378,
      "velocity": 117,
      "chip": "ym2612"
    },
    {
      "channel": 2,
      "note": 27,
      "start": 24.819,
      "duration": 0.1351,
      "velocity": 93,
      "chip": "ym2612"
    },
    {
      "channel": 3,
      "note": 83,
      "start": 24.8212,
      "duration": 0.173,
      "velocity": 97,
      "chip": "ym2612"
    },
    {
      "channel": 4,
      "note": 89,
      "start": 24.8236,
      "duration": 0.1309,
      "velocity": 117,
      "chip": "ym2612"
    },
    {
      "channel": 5,
      "note": 35,
      "start": 24.8257,
      "duration": 0.2288,
      "velocity": 110,
      "chip": "ym2612"
    },
    {
      "channel": 0,
      "note": 83,
      "start": 24.9759,
      "duration": 0.1781,
      "velocity": 97,
      "chip": "ym2612"
    },
    {
      "channel": 1,
      "note": 87,
      "start": 24.978,
      "duration": 0.116,
      "velocity": 117,
      "chip": "ym2612"
    },
    {
      "channel": 2,
      "note": 49,
      "start": 24.9805,
      "duration": 0.0736,
      "velocity": 123,
      "chip": "ym2612"
    },
    {
      "channel": 4,
      "note": 90,
      "start": 24.9827,
      "duration": 0.0716,
      "velocity": 117,
      "chip": "ym2612"
    },
    {
      "channel": 2,
      "note": 37,
      "start": 25.0966,
      "duration": 0.1375,
      "velocity": 127,
      "chip": "ym2612"
    },
    {
      "channel": 4,
      "note": 83,
      "start": 25.0988,
      "duration": 0.1376,
      "velocity": 117,
      "chip": "ym2612"
    },
    {
      "channel": 5,
      "note": 38,
      "start": 25.1009,
      "duration": 0.2558,
      "velocity": 110,
      "chip": "ym2612"
    },
    {
      "channel": 3,
      "note": 86,
      "start": 25.2362,
      "duration": 0.078,
      "velocity": 97,
      "chip": "ym2612"
    },
    {
      "channel": 1,
      "note": 86,
      "start": 25.2559,
      "duration": 0.0981,
      "velocity": 117,
      "chip": "ym2612"
    },
    {
      "channel": 2,
      "note": 49,
      "start": 25.2581,
      "duration": 0.0961,
      "velocity": 127,
      "chip": "ym2612"
    },
    {
      "channel": 4,
      "note": 89,
      "start": 25.2603,
      "duration": 0.0962,
      "velocity": 117,
      "chip": "ym2612"
    },
    {
      "channel": 3,
      "note": 87,
      "start": 25.3563,
      "duration": 0.138,
      "velocity": 97,
      "chip": "ym2612"
    },
    {
      "channel": 1,
      "note": 87,
      "start": 25.3759,
      "duration": 0.1401,
      "velocity": 117,
      "chip": "ym2612"
    },
    {
      "channel": 2,
      "note": 27,
      "start": 25.379,
      "duration": 0.1371,
      "velocity": 93,
      "chip": "ym2612"
    },
    {
      "channel": 4,
      "note": 90,
      "start": 25.3813,
      "duration": 0.1351,
      "velocity": 117,
      "chip": "ym2612"
    },
    {
      "channel": 5,
      "note": 39,
      "start": 25.3834,
      "duration": 0.2532,
      "velocity": 110,
      "chip": "ym2612"
    },
    {
      "channel": 0,
      "note": 86,
      "start": 25.3959,
      "duration": 0.0981,
      "velocity": 97,
      "chip": "ym2612"
    },
    {
      "channel": 0,
      "note": 87,
      "start": 25.5159,
      "duration": 0.1381,
      "velocity": 97,
      "chip": "ym2612"
    },
    {
      "channel": 2,
      "note": 49,
      "start": 25.5365,
      "duration": 0.0976,
      "velocity": 123,
      "chip": "ym2612"
    },
    {
      "channel": 4,
      "note": 83,
      "start": 25.5387,
      "duration": 0.0976,
      "velocity": 117,
      "chip": "ym2612"
    },
    {
      "channel": 3,
      "note": 90,
      "start": 25.6362,
      "duration": 0.138,
      "velocity": 97,
      "chip": "ym2612"
    },
    {
      "channel": 1,
      "note": 86,
      "start": 25.6561,
      "duration": 0.14,
      "velocity": 117,
      "chip": "ym2612"
    },
    {
      "channel": 2,
      "note": 37,
      "start": 25.6587,
      "duration": 0.1375,
      "velocity": 127,
      "chip": "ym2612"
    },
    {
      "channel": 4,
      "note": 89,
      "start": 25.6608,
      "duration": 0.1356,
      "velocity": 117,
      "chip": "ym2612"
    },
    {
      "channel": 5,
      "note": 42,
      "start": 25.6629,
      "duration": 0.2516,
      "velocity": 110,
      "chip": "ym2612"
    },
    {
      "channel": 0,
      "note": 90,
      "start": 25.7959,
      "duration": 0.1381,
      "velocity": 97,
      "chip": "ym2612"
    },
    {
      "channel": 1,
      "note": 87,
      "start": 25.8159,
      "duration": 0.1182,
      "velocity": 117,
      "chip": "ym2612"
    },
    {
      "channel": 2,
      "note": 49,
      "start": 25.8181,
      "duration": 0.096,
      "velocity": 127,
      "chip": "ym2612"
    },
    {
      "channel": 4,
      "note": 90,
      "start": 25.8203,
      "duration": 0.0941,
      "velocity": 117,
      "chip": "ym2612"
    },
    {
      "channel": 2,
      "note": 27,
      "start": 25.9373,
      "duration": 0.1369,
      "velocity": 93,
      "chip": "ym2612"
    },
    {
      "channel": 4,
      "note": 81,
      "start": 25.9394,
      "duration": 0.1349,
      "velocity": 117,
      "chip": "ym2612"
    },
    {
      "channel": 5,
      "note": 33,
      "start": 25.9415,
      "duration": 0.2531,
      "velocity": 110,
      "chip": "ym2612"
    },
    {
      "channel": 1,
      "note": 84,
      "start": 26.0959,
      "duration": 0.0981,
      "velocity": 117,
      "chip": "ym2612"
    },
    {
      "channel": 2,
      "note": 49,
      "start": 26.0985,
      "duration": 0.0957,
      "velocity": 123,
      "chip": "ym2612"
    },
    {
      "channel": 3,
      "note": 81,
      "start": 26.1006,
      "duration": 0.1336,
      "velocity": 97,
      "chip": "ym2612"
    },
    {
      "channel": 4,
      "note": 87,
      "start": 26.1027,
      "duration": 0.0917,
      "velocity": 117,
      "chip": "ym2612"
    },
    {
      "channel": 1,
      "note": 85,
      "start": 26.2159,
      "duration": 0.1381,
      "velocity": 117,
      "chip": "ym2612"
    },
    {
      "channel": 2,
      "note": 37,
      "start": 26.2185,
      "duration": 0.1357,
      "velocity": 127,
      "chip": "ym2612"
    },
    {
      "channel": 4,
      "note": 88,
      "start": 26.2208,
      "duration": 0.1337,
      "velocity": 117,
      "chip": "ym2612"
    },
    {
      "channel": 5,
      "note": 36,
      "start": 26.2229,
      "duration": 0.2518,
      "velocity": 110,
      "chip": "ym2612"
    },
    {
      "channel": 0,
      "note": 81,
      "start": 26.2559,
      "duration": 0.1381,
      "velocity": 97,
      "chip": "ym2612"
    },
    {
      "channel": 2,
      "note": 49,
      "start": 26.3761,
      "duration": 0.0981,
      "velocity": 127,
      "chip": "ym2612"
    },
    {
      "channel": 3,
      "note": 84,
      "start": 26.3782,
      "duration": 0.0961,
      "velocity": 97,
      "chip": "ym2612"
    },
    {
      "channel": 4,
      "note": 81,
      "start": 26.3803,
      "duration": 0.0941,
      "velocity": 117,
      "chip": "ym2612"
    },
    {
      "channel": 1,
      "note": 84,
      "start": 26.4959,
      "duration": 0.1382,
      "velocity": 117,
      "chip": "ym2612"
    },
    {
      "channel": 2,
      "note": 49,
      "start": 26.4987,
      "duration": 0.1355,
      "velocity": 123,
      "chip": "ym2612"
    },
    {
      "channel": 3,
      "note": 85,
      "start": 26.5008,
      "duration": 0.1336,
      "velocity": 97,
      "chip": "ym2612"
    },
    {
      "channel": 4,
      "note": 87,
      "start": 26.5029,
      "duration": 0.1317,
      "velocity": 117,
      "chip": "ym2612"
    },
    {
      "channel": 5,
      "note": 37,
      "start": 26.5051,
      "duration": 0.2496,
      "velocity": 110,
      "chip": "ym2612"
    },
    {
      "channel": 0,
      "note": 84,
      "start": 26.5359,
      "duration": 0.0981,
      "velocity": 97,
      "chip": "ym2612"
    },
    {
      "channel": 0,
      "note": 85,
      "start": 26.6559,
      "duration": 0.1381,
      "velocity": 97,
      "chip": "ym2612"
    },
    {
      "channel": 1,
      "note": 85,
      "start": 26.658,
      "duration": 0.096,
      "velocity": 117,
      "chip": "ym2612"
    },
    {
      "channel": 2,
      "note": 37,
      "start": 26.6606,
      "duration": 0.0936,
      "velocity": 127,
      "chip": "ym2612"
    },
    {
      "channel": 4,
      "note": 88,
      "start": 26.6628,
      "duration": 0.0916,
      "velocity": 117,
      "chip": "ym2612"
    },
    {
      "channel": 1,
      "note": 81,
      "start": 26.7759,
      "duration": 0.1601,
      "velocity": 117,
      "chip": "ym2612"
    },
    {
      "channel": 2,
      "note": 37,
      "start": 26.7782,
      "duration": 0.136,
      "velocity": 127,
      "chip": "ym2612"
    },
    {
      "channel": 3,
      "note": 88,
      "start": 26.7803,
      "duration": 0.134,
      "velocity": 97,
      "chip": "ym2612"
    },
    {
      "channel": 4,
      "note": 81,
      "start": 26.7824,
      "duration": 0.1321,
      "velocity": 117,
      "chip": "ym2612"
    },
    {
      "channel": 5,
      "note": 40,
      "start": 26.7845,
      "duration": 0.25,
      "velocity": 110,
      "chip": "ym2612"
    },
    {
      "channel": 0,
      "note": 88,
      "start": 26.9359,
      "duration": 0.1381,
      "velocity": 97,
      "chip": "ym2612"
    },
    {
      "channel": 2,
      "note": 49,
      "start": 26.9386,
      "duration": 0.0955,
      "velocity": 123,
      "chip": "ym2612"
    },
    {
      "channel": 4,
      "note": 76,
      "start": 26.9408,
      "duration": 0.0935,
      "velocity": 117,
      "chip": "ym2612"
    },
    {
      "channel": 1,
      "note": 79,
      "start": 27.0562,
      "duration": 0.1378,
      "velocity": 117,
      "chip": "ym2612"
    },
    {
      "channel": 2,
      "note": 27,
      "start": 27.0589,
      "duration": 0.1353,
      "velocity": 93,
      "chip": "ym2612"
    },
    {
      "channel": 3,
      "note": 76,
      "start": 27.0613,
      "duration": 0.1331,
      "velocity": 97,
      "chip": "ym2612"
    },
    {
      "channel": 4,
      "note": 82,
      "start": 27.0636,
      "duration": 0.1309,
      "velocity": 117,
      "chip": "ym2612"
    },
    {
      "channel": 5,
      "note": 28,
      "start": 27.0659,
      "duration": 0.2488,
      "velocity": 110,
      "chip": "ym2612"
    },
    {
      "channel": 0,
      "note": 76,
      "start": 27.2361,
      "duration": 0.1379,
      "velocity": 97,
      "chip": "ym2612"
    },
    {
      "channel": 1,
      "note": 80,
      "start": 27.2382,
      "duration": 0.0758,
      "velocity": 117,
      "chip": "ym2612"
    },
    {
      "channel": 2,
      "note": 49,
      "start": 27.2407,
      "duration": 0.0735,
      "velocity": 123,
      "chip": "ym2612"
    },
    {
      "channel": 4,
      "note": 83,
      "start": 27.2429,
      "duration": 0.0715,
      "velocity": 117,
      "chip": "ym2612"
    },
    {
      "channel": 2,
      "note": 37,
      "start": 27.3385,
      "duration": 0.1357,
      "velocity": 127,
      "chip": "ym2612"
    },
    {
      "channel": 4,
      "note": 76,
      "start": 27.3407,
      "duration": 0.1337,
      "velocity": 117,
      "chip": "ym2612"
    },
    {
      "channel": 5,
      "note": 32,
      "start": 27.3428,
      "duration": 0.2519,
      "velocity": 110,
      "chip": "ym2612"
    },
    {
      "channel": 1,
      "note": 79,
      "start": 27.5159,
      "duration": 0.0781,
      "velocity": 117,
      "chip": "ym2612"
    },
    {
      "channel": 2,
      "note": 49,
      "start": 27.5185,
      "duration": 0.0757,
      "velocity": 123,
      "chip": "ym2612"
    },
    {
      "channel": 3,
      "note": 79,
      "start": 27.5206,
      "duration": 0.0737,
      "velocity": 97,
      "chip": "ym2612"
    },
    {
      "channel": 4,
      "note": 82,
      "start": 27.5227,
      "duration": 0.0718,
      "velocity": 117,
      "chip": "ym2612"
    },
    {
      "channel": 1,
      "note": 80,
      "start": 27.6159,
      "duration": 0.1582,
      "velocity": 117,
      "chip": "ym2612"
    },
    {
      "channel": 2,
      "note": 27,
      "start": 27.6185,
      "duration": 0.1557,
      "velocity": 93,
      "chip": "ym2612"
    },
    {
      "channel": 3,
      "note": 80,
      "start": 27.6206,
      "duration": 0.18,
      "velocity": 97,
      "chip": "ym2612"
    },
    {
      "channel": 4,
      "note": 83,
      "start": 27.6227,
      "duration": 0.1518,
      "velocity": 117,
      "chip": "ym2612"
    },
    {
      "channel": 5,
      "note": 35,
      "start": 27.6249,
      "duration": 0.2498,
      "velocity": 110,
      "chip": "ym2612"
    },
    {
      "channel": 0,
      "note": 79,
      "start": 27.6759,
      "duration": 0.0981,
      "velocity": 97,
      "chip": "ym2612"
    },
    {
      "channel": 0,
      "note": 80,
      "start": 27.7959,
      "duration": 0.1581,
      "velocity": 97,
      "chip": "ym2612"
    },
    {
      "channel": 2,
      "note": 49,
      "start": 27.8005,
      "duration": 0.0737,
      "velocity": 123,
      "chip": "ym2612"
    },
    {
      "channel": 4,
      "note": 76,
      "start": 27.8027,
      "duration": 0.0717,
      "velocity": 117,
      "chip": "ym2612"
    },
    {
      "channel": 1,
      "note": 79,
      "start": 27.9159,
      "duration": 0.1381,
      "velocity": 117,
      "chip": "ym2612"
    },
    {
      "channel": 2,
      "note": 37,
      "start": 27.9185,
      "duration": 0.1357,
      "velocity": 127,
      "chip": "ym2612"
    },
    {
      "channel": 3,
      "note": 83,
      "start": 27.9206,
      "duration": 0.1337,
      "velocity": 97,
      "chip": "ym2612"
    },
    {
      "channel": 4,
      "note": 82,
      "start": 27.9227,
      "duration": 0.1318,
      "velocity": 117,
      "chip": "ym2612"
    },
    {
      "channel": 5,
      "note": 35,
      "start": 27.9249,
      "duration": 0.2297,
      "velocity": 110,
      "chip": "ym2612"
    },
    {
      "channel": 0,
      "note": 83,
      "start": 28.0759,
      "duration": 0.1381,
      "velocity": 97,
      "chip": "ym2612"
    },
    {
      "channel": 1,
      "note": 83,
      "start": 28.078,
      "duration": 0.056,
      "velocity": 117,
      "chip": "ym2612"
    },
    {
      "channel": 2,
      "note": 37,
      "start": 28.0801,
      "duration": 0.0741,
      "velocity": 127,
      "chip": "ym2612"
    },
    {
      "channel": 3,
      "note": 85,
      "start": 28.0822,
      "duration": 0.0721,
      "velocity": 97,
      "chip": "ym2612"
    },
    {
      "channel": 4,
      "note": 86,
      "start": 28.0843,
      "duration": 0.052,
      "velocity": 117,
      "chip": "ym2612"
    },
    {
      "channel": 4,
      "note": 76,
      "start": 28.1383,
      "duration": 0.0781,
      "velocity": 117,
      "chip": "ym2612"
    },
    {
      "channel": 2,
      "note": 37,
      "start": 28.1961,
      "duration": 0.1381,
      "velocity": 127,
      "chip": "ym2612"
    },
    {
      "channel": 3,
      "note": 76,
      "start": 28.1982,
      "duration": 0.1621,
      "velocity": 97,
      "chip": "ym2612"
    },
    {
      "channel": 5,
      "note": 28,
      "start": 28.2004,
      "duration": 0.1341,
      "velocity": 110,
      "chip": "ym2612"
    },
    {
      "channel": 1,
      "note": 83,
      "start": 28.2161,
      "duration": 0.0579,
      "velocity": 117,
      "chip": "ym2612"
    },
    {
      "channel": 4,
      "note": 86,
      "start": 28.2185,
      "duration": 0.0578,
      "velocity": 117,
      "chip": "ym2612"
    },
    {
      "channel": 0,
      "note": 85,
      "start": 28.2359,
      "duration": 0.0981,
      "velocity": 97,
      "chip": "ym2612"
    },
    {
      "channel": 4,
      "note": 76,
      "start": 28.2783,
      "duration": 0.082,
      "velocity": 117,
      "chip": "ym2612"
    },
    {
      "channel": 0,
      "note": 76,
      "start": 28.3559,
      "duration": 0.1581,
      "velocity": 97,
      "chip": "ym2612"
    },
    {
      "channel": 1,
      "note": 83,
      "start": 28.358,
      "duration": 0.056,
      "velocity": 117,
      "chip": "ym2612"
    },
    {
      "channel": 4,
      "note": 86,
      "start": 28.3624,
      "duration": 0.0538,
      "velocity": 117,
      "chip": "ym2612"
    },
    {
      "channel": 5,
      "note": 28,
      "start": 28.3645,
      "duration": 0.0898,
      "velocity": 110,
      "chip": "ym2612"
    },
    {
      "channel": 4,
      "note": 76,
      "start": 28.4183,
      "duration": 0.058,
      "velocity": 117,
      "chip": "ym2612"
    },
    {
      "channel": 1,
      "note": 81,
      "start": 28.476,
      "duration": 0.138,
      "velocity": 117,
      "chip": "ym2612"
    },
    {
      "channel": 4,
      "note": 85,
      "start": 28.4784,
      "duration": 0.136,
      "velocity": 117,
      "chip": "ym2612"
    },
    {
      "channel": 5,
      "note": 23,
      "start": 28.4805,
      "duration": 0.1738,
      "velocity": 110,
      "chip": "ym2612"
    },
    {
      "channel": 4,
      "note": 76,
      "start": 28.6382,
      "duration": 0.0962,
      "velocity": 117,
      "chip": "ym2612"
    },
    {
      "channel": 1,
      "note": 79,
      "start": 28.7559,
      "duration": 0.1381,
      "velocity": 117,
      "chip": "ym2612"
    },
    {
      "channel": 4,
      "note": 82,
      "start": 28.7583,
      "duration": 0.1361,
      "velocity": 117,
      "chip": "ym2612"
    },
    {
      "channel": 5,
      "note": 25,
      "start": 28.7604,
      "duration": 0.1739,
      "velocity": 110,
      "chip": "ym2612"
    },
    {
      "channel": 1,
      "note": 80,
      "start": 28.9159,
      "duration": 0.1181,
      "velocity": 117,
      "chip": "ym2612"
    },
    {
      "channel": 2,
      "note": 37,
      "start": 28.9182,
      "duration": 0.096,
      "velocity": 127,
      "chip": "ym2612"
    },
    {
      "channel": 4,
      "note": 83,
      "start": 28.9204,
      "duration": 0.116,
      "velocity": 117,
      "chip": "ym2612"
    },
    {
      "channel": 2,
      "note": 37,
      "start": 29.0362,
      "duration": 0.138,
      "velocity": 127,
      "chip": "ym2612"
    },
    {
      "channel": 5,
      "note": 27,
      "start": 29.0386,
      "duration": 0.1757,
      "velocity": 110,
      "chip": "ym2612"
    },
    {
      "channel": 2,
      "note": 49,
      "start": 29.1985,
      "duration": 0.0957,
      "velocity": 123,
      "chip": "ym2612"
    },
    {
      "channel": 4,
      "note": 76,
      "start": 29.2007,
      "duration": 0.0937,
      "velocity": 117,
      "chip": "ym2612"
    },
    {
      "channel": 1,
      "note": 88,
      "start": 29.3163,
      "duration": 0.1377,
      "velocity": 117,
      "chip": "ym2612"
    },
    {
      "channel": 2,
      "note": 37,
      "start": 29.3191,
      "duration": 0.255,
      "velocity": 127,
      "chip": "ym2612"
    },
    {
      "channel": 3,
      "note": 69,
      "start": 29.3215,
      "duration": 0.1549,
      "velocity": 97,
      "chip": "ym2612"
    },
    {
      "channel": 4,
      "note": 91,
      "start": 29.324,
      "duration": 0.1304,
      "velocity": 117,
      "chip": "ym2612"
    },
    {
      "channel": 5,
      "note": 33,
      "start": 29.3263,
      "duration": 0.2481,
      "velocity": 110,
      "chip": "ym2612"
    },
    {
      "channel": 0,
      "note": 69,
      "start": 29.4761,
      "duration": 0.1578,
      "velocity": 97,
      "chip": "ym2612"
    },
    {
      "channel": 4,
      "note": 81,
      "start": 29.4786,
      "duration": 0.0557,
      "velocity": 117,
      "chip": "ym2612"
    },
    {
      "channel": 1,
      "note": 90,
      "start": 29.5959,
      "duration": 0.1381,
      "velocity": 117,
      "chip": "ym2612"
    },
    {
      "channel": 4,
      "note": 90,
      "start": 29.5983,
      "duration": 0.1361,
      "velocity": 117,
      "chip": "ym2612"
    },
    {
      "channel": 1,
      "note": 85,
      "start": 29.7559,
      "duration": 0.0781,
      "velocity": 117,
      "chip": "ym2612"
    },
    {
      "channel": 4,
      "note": 88,
      "start": 29.7583,
      "duration": 0.0761,
      "velocity": 117,
      "chip": "ym2612"
    },
    {
      "channel": 4,
      "note": 81,
      "start": 29.8364,
      "duration": 0.0379,
      "velocity": 117,
      "chip": "ym2612"
    },
    {
      "channel": 1,
      "note": 85,
      "start": 29.8959,
      "duration": 0.0781,
      "velocity": 117,
      "chip": "ym2612"
    },
    {
      "channel": 4,
      "note": 88,
      "start": 29.8983,
      "duration": 0.0761,
      "velocity": 117,
      "chip": "ym2612"
    },
    {
      "channel": 4,
      "note": 81,
      "start": 29.9764,
      "duration": 0.0379,
      "velocity": 117,
      "chip": "ym2612"
    },
    {
      "channel": 1,
      "note": 85,
      "start": 30.0359,
      "duration": 0.0781,
      "velocity": 117,
      "chip": "ym2612"
    },
    {
      "channel": 2,
      "note": 37,
      "start": 30.0382,
      "duration": 0.096,
      "velocity": 127,
      "chip": "ym2612"
    },
    {
      "channel": 3,
      "note": 64,
      "start": 30.0403,
      "duration": 0.094,
      "velocity": 97,
      "chip": "ym2612"
    },
    {
      "channel": 4,
      "note": 88,
      "start": 30.0424,
      "duration": 0.072,
      "velocity": 117,
      "chip": "ym2612"
    },
    {
      "channel": 5,
      "note": 28,
      "start": 30.0445,
      "duration": 0.09,
      "velocity": 110,
      "chip": "ym2612"
    },
    {
      "channel": 4,
      "note": 81,
      "start": 30.1164,
      "duration": 0.0421,
      "velocity": 117,
      "chip": "ym2612"
    },
    {
      "channel": 2,
      "note": 37,
      "start": 30.1562,
      "duration": 0.138,
      "velocity": 127,
      "chip": "ym2612"
    },
    {
      "channel": 3,
      "note": 67,
      "start": 30.1583,
      "duration": 0.136,
      "velocity": 97,
      "chip": "ym2612"
    },
    {
      "channel": 4,
      "note": 81,
      "start": 30.1605,
      "duration": 0.134,
      "velocity": 117,
      "chip": "ym2612"
    },
    {
      "channel": 5,
      "note": 31,
      "start": 30.1626,
      "duration": 0.1321,
      "velocity": 110,
      "chip": "ym2612"
    },
    {
      "channel": 1,
      "note": 93,
      "start": 30.1759,
      "duration": 0.1601,
      "velocity": 117,
      "chip": "ym2612"
    },
    {
      "channel": 0,
      "note": 64,
      "start": 30.2159,
      "duration": 0.0781,
      "velocity": 97,
      "chip": "ym2612"
    },
    {
      "channel": 0,
      "note": 67,
      "start": 30.3359,
      "duration": 0.1381,
      "velocity": 97,
      "chip": "ym2612"
    },
    {
      "channel": 2,
      "note": 37,
      "start": 30.3382,
      "duration": 0.0759,
      "velocity": 127,
      "chip": "ym2612"
    },
    {
      "channel": 3,
      "note": 68,
      "start": 30.3403,
      "duration": 0.0739,
      "velocity": 97,
      "chip": "ym2612"
    },
    {
      "channel": 4,
      "note": 93,
      "start": 30.3424,
      "duration": 0.072,
      "velocity": 117,
      "chip": "ym2612"
    },
    {
      "channel": 5,
      "note": 32,
      "start": 30.3445,
      "duration": 0.0701,
      "velocity": 110,
      "chip": "ym2612"
    },
    {
      "channel": 1,
      "note": 105,
      "start": 30.3559,
      "duration": 0.0781,
      "velocity": 117,
      "chip": "ym2612"
    },
    {
      "channel": 1,
      "note": 95,
      "start": 30.436,
      "duration": 0.1381,
      "velocity": 117,
      "chip": "ym2612"
    },
    {
      "channel": 2,
      "note": 37,
      "start": 30.4387,
      "duration": 0.2555,
      "velocity": 127,
      "chip": "ym2612"
    },
    {
      "channel": 3,
      "note": 69,
      "start": 30.4408,
      "duration": 0.1754,
      "velocity": 97,
      "chip": "ym2612"
    },
    {
      "channel": 4,
      "note": 91,
      "start": 30.4429,
      "duration": 0.1316,
      "velocity": 117,
      "chip": "ym2612"
    },
    {
      "channel": 5,
      "note": 33,
      "start": 30.445,
      "duration": 0.2495,
      "velocity": 110,
      "chip": "ym2612"
    },
    {
      "channel": 0,
      "note": 68,
      "start": 30.4959,
      "duration": 0.0781,
      "velocity": 97,
      "chip": "ym2612"
    },
    {
      "channel": 0,
      "note": 69,
      "start": 30.6159,
      "duration": 0.1581,
      "velocity": 97,
      "chip": "ym2612"
    },
    {
      "channel": 4,
      "note": 81,
      "start": 30.6183,
      "duration": 0.0359,
      "velocity": 117,
      "chip": "ym2612"
    },
    {
      "channel": 1,
      "note": 93,
      "start": 30.7159,
      "duration": 0.1581,
      "velocity": 117,
      "chip": "ym2612"
    },
    {
      "channel": 4,
      "note": 90,
      "start": 30.7183,
      "duration": 0.1561,
      "velocity": 117,
      "chip": "ym2612"
    },
    {
      "channel": 1,
      "note": 91,
      "start": 30.8959,
      "duration": 0.0581,
      "velocity": 117,
      "chip": "ym2612"
    },
    {
      "channel": 4,
      "note": 88,
      "start": 30.8983,
      "duration": 0.0561,
      "velocity": 117,
      "chip": "ym2612"
    },
    {
      "channel": 4,
      "note": 81,
      "start": 30.9564,
      "duration": 0.0579,
      "velocity": 117,
      "chip": "ym2612"
    },
    {
      "channel": 1,
      "note": 91,
      "start": 31.0359,
      "duration": 0.0581,
      "velocity": 117,
      "chip": "ym2612"
    },
    {
      "channel": 4,
      "note": 88,
      "start": 31.0383,
      "duration": 0.0561,
      "velocity": 117,
      "chip": "ym2612"
    },
    {
      "channel": 4,
      "note": 81,
      "start": 31.0964,
      "duration": 0.0579,
      "velocity": 117,
      "chip": "ym2612"
    },
    {
      "channel": 1,
      "note": 91,
      "start": 31.1759,
      "duration": 0.0581,
      "velocity": 117,
      "chip": "ym2612"
    },
    {
      "channel": 2,
      "note": 37,
      "start": 31.1782,
      "duration": 0.096,
      "velocity": 127,
      "chip": "ym2612"
    },
    {
      "channel": 3,
      "note": 59,
      "start": 31.1803,
      "duration": 0.094,
      "velocity": 97,
      "chip": "ym2612"
    },
    {
      "channel": 4,
      "note": 88,
      "start": 31.1824,
      "duration": 0.052,
      "velocity": 117,
      "chip": "ym2612"
    },
    {
      "channel": 5,
      "note": 23,
      "start": 31.1845,
      "duration": 0.09,
      "velocity": 110,
      "chip": "ym2612"
    },
    {
      "channel": 4,
      "note": 81,
      "start": 31.2364,
      "duration": 0.0621,
      "velocity": 117,
      "chip": "ym2612"
    },
    {
      "channel": 2,
      "note": 37,
      "start": 31.2962,
      "duration": 0.138,
      "velocity": 127,
      "chip": "ym2612"
    },
    {
      "channel": 3,
      "note": 62,
      "start": 31.2983,
      "duration": 0.136,
      "velocity": 97,
      "chip": "ym2612"
    },
    {
      "channel": 4,
      "note": 76,
      "start": 31.3005,
      "duration": 0.134,
      "velocity": 117,
      "chip": "ym2612"
    },
    {
      "channel": 5,
      "note": 26,
      "start": 31.3026,
      "duration": 0.1321,
      "velocity": 110,
      "chip": "ym2612"
    },
    {
      "channel": 1,
      "note": 88,
      "start": 31.3159,
      "duration": 0.1401,
      "velocity": 117,
      "chip": "ym2612"
    },
    {
      "channel": 0,
      "note": 59,
      "start": 31.3359,
      "duration": 0.0981,
      "velocity": 97,
      "chip": "ym2612"
    },
    {
      "channel": 0,
      "note": 62,
      "start": 31.4559,
      "duration": 0.1381,
      "velocity": 97,
      "chip": "ym2612"
    },
    {
      "channel": 2,
      "note": 37,
      "start": 31.4582,
      "duration": 0.0959,
      "velocity": 127,
      "chip": "ym2612"
    },
    {
      "channel": 3,
      "note": 63,
      "start": 31.4603,
      "duration": 0.0939,
      "velocity": 97,
      "chip": "ym2612"
    },
    {
      "channel": 4,
      "note": 88,
      "start": 31.4624,
      "duration": 0.092,
      "velocity": 117,
      "chip": "ym2612"
    },
    {
      "channel": 5,
      "note": 27,
      "start": 31.4645,
      "duration": 0.0901,
      "velocity": 110,
      "chip": "ym2612"
    },
    {
      "channel": 1,
      "note": 100,
      "start": 31.4759,
      "duration": 0.0981,
      "velocity": 117,
      "chip": "ym2612"
    },
    {
      "channel": 1,
      "note": 83,
      "start": 31.576,
      "duration": 0.1381,
      "velocity": 117,
      "chip": "ym2612"
    },
    {
      "channel": 2,
      "note": 37,
      "start": 31.5787,
      "duration": 0.2555,
      "velocity": 127,
      "chip": "ym2612"
    },
    {
      "channel": 3,
      "note": 64,
      "start": 31.5808,
      "duration": 0.1554,
      "velocity": 97,
      "chip": "ym2612"
    },
    {
      "channel": 4,
      "note": 86,
      "start": 31.5829,
      "duration": 0.1316,
      "velocity": 117,
      "chip": "ym2612"
    },
    {
      "channel": 5,
      "note": 28,
      "start": 31.585,
      "duration": 0.2495,
      "velocity": 110,
      "chip": "ym2612"
    },
    {
      "channel": 0,
      "note": 63,
      "start": 31.6159,
      "duration": 0.0981,
      "velocity": 97,
      "chip": "ym2612"
    },
    {
      "channel": 0,
      "note": 64,
      "start": 31.7359,
      "duration": 0.1581,
      "velocity": 97,
      "chip": "ym2612"
    },
    {
      "channel": 4,
      "note": 76,
      "start": 31.7383,
      "duration": 0.0359,
      "velocity": 117,
      "chip": "ym2612"
    },
    {
      "channel": 1,
      "note": 81,
      "start": 31.8559,
      "duration": 0.1381,
      "velocity": 117,
      "chip": "ym2612"
    },
    {
      "channel": 4,
      "note": 85,
      "start": 31.8583,
      "duration": 0.1361,
      "velocity": 117,
      "chip": "ym2612"
    },
    {
      "channel": 1,
      "note": 80,
      "start": 32.0159,
      "duration": 0.0781,
      "velocity": 117,
      "chip": "ym2612"
    },
    {
      "channel": 4,
      "note": 83,
      "start": 32.0183,
      "duration": 0.0761,
      "velocity": 117,
      "chip": "ym2612"
    },
    {
      "channel": 4,
      "note": 76,
      "start": 32.0964,
      "duration": 0.0379,
      "velocity": 117,
      "chip": "ym2612"
    },
    {
      "channel": 1,
      "note": 80,
      "start": 32.1559,
      "duration": 0.0781,
      "velocity": 117,
      "chip": "ym2612"
    },
    {
      "channel": 4,
      "note": 83,
      "start": 32.1583,
      "duration": 0.0761,
      "velocity": 117,
      "chip": "ym2612"
    },
    {
      "channel": 4,
      "note": 76,
      "start": 32.2364,
      "duration": 0.0379,
      "velocity": 117,
      "chip": "ym2612"
    },
    {
      "channel": 1,
      "note": 80,
      "start": 32.2959,
      "duration": 0.0781,
      "velocity": 117,
      "chip": "ym2612"
    },
    {
      "channel": 2,
      "note": 37,
      "start": 32.2982,
      "duration": 0.096,
      "velocity": 127,
      "chip": "ym2612"
    },
    {
      "channel": 3,
      "note": 59,
      "start": 32.3003,
      "duration": 0.094,
      "velocity": 97,
      "chip": "ym2612"
    },
    {
      "channel": 4,
      "note": 83,
      "start": 32.3024,
      "duration": 0.072,
      "velocity": 117,
      "chip": "ym2612"
    },
    {
      "channel": 5,
      "note": 23,
      "start": 32.3045,
      "duration": 0.09,
      "velocity": 110,
      "chip": "ym2612"
    },
    {
      "channel": 4,
      "note": 76,
      "start": 32.3764,
      "duration": 0.0421,
      "velocity": 117,
      "chip": "ym2612"
    },
    {
      "channel": 2,
      "note": 37,
      "start": 32.4162,
      "duration": 0.138,
      "velocity": 127,
      "chip": "ym2612"
    },
    {
      "channel": 3,
      "note": 62,
      "start": 32.4183,
      "duration": 0.136,
      "velocity": 97,
      "chip": "ym2612"
    },
    {
      "channel": 4,
      "note": 76,
      "start": 32.4205,
      "duration": 0.134,
      "velocity": 117,
      "chip": "ym2612"
    },
    {
      "channel": 5,
      "note": 26,
      "start": 32.4226,
      "duration": 0.1321,
      "velocity": 110,
      "chip": "ym2612"
    },
    {
      "channel": 1,
      "note": 88,
      "start": 32.4359,
      "duration": 0.1401,
      "velocity": 117,
      "chip": "ym2612"
    },
    {
      "channel": 0,
      "note": 59,
      "start": 32.4559,
      "duration": 0.0981,
      "velocity": 97,
      "chip": "ym2612"
    },
    {
      "channel": 0,
      "note": 62,
      "start": 32.5759,
      "duration": 0.1381,
      "velocity": 97,
      "chip": "ym2612"
    },
    {
      "channel": 2,
      "note": 37,
      "start": 32.5782,
      "duration": 0.0959,
      "velocity": 127,
      "chip": "ym2612"
    },
    {
      "channel": 3,
      "note": 63,
      "start": 32.5803,
      "duration": 0.0939,
      "velocity": 97,
      "chip": "ym2612"
    },
    {
      "channel": 4,
      "note": 88,
      "start": 32.5824,
      "duration": 0.092,
      "velocity": 117,
      "chip": "ym2612"
    },
    {
      "channel": 5,
      "note": 27,
      "start": 32.5845,
      "duration": 0.0901,
      "velocity": 110,
      "chip": "ym2612"
    },
    {
      "channel": 1,
      "note": 100,
      "start": 32.5959,
      "duration": 0.0981,
      "velocity": 117,
      "chip": "ym2612"
    },
    {
      "channel": 1,
      "note": 90,
      "start": 32.696,
      "duration": 0.1381,
      "velocity": 117,
      "chip": "ym2612"
    },
    {
      "channel": 2,
      "note": 37,
      "start": 32.6987,
      "duration": 0.2555,
      "velocity": 127,
      "chip": "ym2612"
    },
    {
      "channel": 3,
      "note": 64,
      "start": 32.7008,
      "duration": 0.1554,
      "velocity": 97,
      "chip": "ym2612"
    },
    {
      "channel": 4,
      "note": 86,
      "start": 32.7029,
      "duration": 0.1316,
      "velocity": 117,
      "chip": "ym2612"
    },
    {
      "channel": 5,
      "note": 28,
      "start": 32.705,
      "duration": 0.2495,
      "velocity": 110,
      "chip": "ym2612"
    },
    {
      "channel": 0,
      "note": 63,
      "start": 32.7359,
      "duration": 0.0981,
      "velocity": 97,
      "chip": "ym2612"
    },
    {
      "channel": 0,
      "note": 64,
      "start": 32.8559,
      "duration": 0.1781,
      "velocity": 97,
      "chip": "ym2612"
    },
    {
      "channel": 4,
      "note": 76,
      "start": 32.8583,
      "duration": 0.0559,
      "velocity": 117,
      "chip": "ym2612"
    },
    {
      "channel": 1,
      "note": 88,
      "start": 32.9759,
      "duration": 0.1381,
      "velocity": 117,
      "chip": "ym2612"
    },
    {
      "channel": 4,
      "note": 85,
      "start": 32.9783,
      "duration": 0.1361,
      "velocity": 117,
      "chip": "ym2612"
    },
    {
      "channel": 1,
      "note": 86,
      "start": 33.1359,
      "duration": 0.0781,
      "velocity": 117,
      "chip": "ym2612"
    },
    {
      "channel": 4,
      "note": 83,
      "start": 33.1383,
      "duration": 0.0761,
      "velocity": 117,
      "chip": "ym2612"
    },
    {
      "channel": 4,
      "note": 76,
      "start": 33.2164,
      "duration": 0.0379,
      "velocity": 117,
      "chip": "ym2612"
    },
    {
      "channel": 1,
      "note": 86,
      "start": 33.2759,
      "duration": 0.0781,
      "velocity": 117,
      "chip": "ym2612"
    },
    {
      "channel": 4,
      "note": 83,
      "start": 33.2783,
      "duration": 0.0761,
      "velocity": 117,
      "chip": "ym2612"
    },
    {
      "channel": 4,
      "note": 76,
      "start": 33.3564,
      "duration": 0.0379,
      "velocity": 117,
      "chip": "ym2612"
    },
    {
      "channel": 1,
      "note": 86,
      "start": 33.4359,
      "duration": 0.0581,
      "velocity": 117,
      "chip": "ym2612"
    },
    {
      "channel": 2,
      "note": 37,
      "start": 33.4382,
      "duration": 0.076,
      "velocity": 127,
      "chip": "ym2612"
    },
    {
      "channel": 3,
      "note": 64,
      "start": 33.4403,
      "duration": 0.074,
      "velocity": 97,
      "chip": "ym2612"
    },
    {
      "channel": 4,
      "note": 83,
      "start": 33.4424,
      "duration": 0.052,
      "velocity": 117,
      "chip": "ym2612"
    },
    {
      "channel": 5,
      "note": 28,
      "start": 33.4445,
      "duration": 0.07,
      "velocity": 110,
      "chip": "ym2612"
    },
    {
      "channel": 4,
      "note": 76,
      "start": 33.4964,
      "duration": 0.0421,
      "velocity": 117,
      "chip": "ym2612"
    },
    {
      "channel": 2,
      "note": 37,
      "start": 33.5362,
      "duration": 0.138,
      "velocity": 127,
      "chip": "ym2612"
    },
    {
      "channel": 3,
      "note": 67,
      "start": 33.5383,
      "duration": 0.136,
      "velocity": 97,
      "chip": "ym2612"
    },
    {
      "channel": 4,
      "note": 81,
      "start": 33.5405,
      "duration": 0.134,
      "velocity": 117,
      "chip": "ym2612"
    },
    {
      "channel": 5,
      "note": 31,
      "start": 33.5426,
      "duration": 0.1321,
      "velocity": 110,
      "chip": "ym2612"
    },
    {
      "channel": 1,
      "note": 93,
      "start": 33.5759,
      "duration": 0.1401,
      "velocity": 117,
      "chip": "ym2612"
    },
    {
      "channel": 0,
      "note": 64,
      "start": 33.5959,
      "duration": 0.0781,
      "velocity": 97,
      "chip": "ym2612"
    },
    {
      "channel": 0,
      "note": 67,
      "start": 33.7159,
      "duration": 0.1381,
      "velocity": 97,
      "chip": "ym2612"
    },
    {
      "channel": 2,
      "note": 37,
      "start": 33.7182,
      "duration": 0.0759,
      "velocity": 127,
      "chip": "ym2612"
    },
    {
      "channel": 3,
      "note": 68,
      "start": 33.7203,
      "duration": 0.0739,
      "velocity": 97,
      "chip": "ym2612"
    },
    {
      "channel": 4,
      "note": 93,
      "start": 33.7224,
      "duration": 0.072,
      "velocity": 117,
      "chip": "ym2612"
    },
    {
      "channel": 5,
      "note": 32,
      "start": 33.7245,
      "duration": 0.0701,
      "velocity": 110,
      "chip": "ym2612"
    },
    {
      "channel": 1,
      "note": 105,
      "start": 33.7359,
      "duration": 0.0981,
      "velocity": 117,
      "chip": "ym2612"
    },
    {
      "channel": 1,
      "note": 88,
      "start": 33.8361,
      "duration": 0.138,
      "velocity": 117,
      "chip": "ym2612"
    },
    {
      "channel": 2,
      "note": 37,
      "start": 33.8388,
      "duration": 0.2353,
      "velocity": 127,
      "chip": "ym2612"
    },
    {
      "channel": 3,
      "note": 69,
      "start": 33.8409,
      "duration": 0.1553,
      "velocity": 97,
      "chip": "ym2612"
    },
    {
      "channel": 4,
      "note": 91,
      "start": 33.8431,
      "duration": 0.1313,
      "velocity": 117,
      "chip": "ym2612"
    },
    {
      "channel": 5,
      "note": 33,
      "start": 33.8452,
      "duration": 0.2292,
      "velocity": 110,
      "chip": "ym2612"
    },
    {
      "channel": 0,
      "note": 68,
      "start": 33.8759,
      "duration": 0.0981,
      "velocity": 97,
      "chip": "ym2612"
    },
    {
      "channel": 0,
      "note": 69,
      "start": 33.9959,
      "duration": 0.1581,
      "velocity": 97,
      "chip": "ym2612"
    },
    {
      "channel": 4,
      "note": 81,
      "start": 33.9983,
      "duration": 0.0359,
      "velocity": 117,
      "chip": "ym2612"
    },
    {
      "channel": 1,
      "note": 90,
      "start": 34.1159,
      "duration": 0.1381,
      "velocity": 117,
      "chip": "ym2612"
    },
    {
      "channel": 4,
      "note": 90,
      "start": 34.1183,
      "duration": 0.1361,
      "velocity": 117,
      "chip": "ym2612"
    },
    {
      "channel": 1,
      "note": 85,
      "start": 34.2759,
      "duration": 0.0581,
      "velocity": 117,
      "chip": "ym2612"
    },
    {
      "channel": 4,
      "note": 88,
      "start": 34.2783,
      "duration": 0.0561,
      "velocity": 117,
      "chip": "ym2612"
    },
    {
      "channel": 4,
      "note": 81,
      "start": 34.3364,
      "duration": 0.0579,
      "velocity": 117,
      "chip": "ym2612"
    },
    {
      "channel": 1,
      "note": 85,
      "start": 34.4159,
      "duration": 0.0581,
      "velocity": 117,
      "chip": "ym2612"
    },
    {
      "channel": 4,
      "note": 88,
      "start": 34.4183,
      "duration": 0.0561,
      "velocity": 117,
      "chip": "ym2612"
    },
    {
      "channel": 4,
      "note": 81,
      "start": 34.4764,
      "duration": 0.0579,
      "velocity": 117,
      "chip": "ym2612"
    },
    {
      "channel": 1,
      "note": 85,
      "start": 34.5559,
      "duration": 0.0581,
      "velocity": 117,
      "chip": "ym2612"
    },
    {
      "channel": 2,
      "note": 37,
      "start": 34.5582,
      "duration": 0.096,
      "velocity": 127,
      "chip": "ym2612"
    },
    {
      "channel": 3,
      "note": 64,
      "start": 34.5603,
      "duration": 0.094,
      "velocity": 97,
      "chip": "ym2612"
    },
    {
      "channel": 4,
      "note": 88,
      "start": 34.5624,
      "duration": 0.052,
      "velocity": 117,
      "chip": "ym2612"
    },
    {
      "channel": 5,
      "note": 28,
      "start": 34.5645,
      "duration": 0.09,
      "velocity": 110,
      "chip": "ym2612"
    },
    {
      "channel": 4,
      "note": 81,
      "start": 34.6164,
      "duration": 0.0621,
      "velocity": 117,
      "chip": "ym2612"
    },
    {
      "channel": 2,
      "note": 37,
      "start": 34.6762,
      "duration": 0.138,
      "velocity": 127,
      "chip": "ym2612"
    },
    {
      "channel": 3,
      "note": 67,
      "start": 34.6783,
      "duration": 0.136,
      "velocity": 97,
      "chip": "ym2612"
    },
    {
      "channel": 4,
      "note": 81,
      "start": 34.6805,
      "duration": 0.134,
      "velocity": 117,
      "chip": "ym2612"
    },
    {
      "channel": 5,
      "note": 31,
      "start": 34.6826,
      "duration": 0.1321,
      "velocity": 110,
      "chip": "ym2612"
    },
    {
      "channel": 1,
      "note": 93,
      "start": 34.6959,
      "duration": 0.1401,
      "velocity": 117,
      "chip": "ym2612"
    },
    {
      "channel": 0,
      "note": 64,
      "start": 34.7159,
      "duration": 0.0981,
      "velocity": 97,
      "chip": "ym2612"
    },
    {
      "channel": 0,
      "note": 67,
      "start": 34.8359,
      "duration": 0.1381,
      "velocity": 97,
      "chip": "ym2612"
    },
    {
      "channel": 2,
      "note": 37,
      "start": 34.8382,
      "duration": 0.0959,
      "velocity": 127,
      "chip": "ym2612"
    },
    {
      "channel": 3,
      "note": 68,
      "start": 34.8403,
      "duration": 0.0939,
      "velocity": 97,
      "chip": "ym2612"
    },
    {
      "channel": 4,
      "note": 93,
      "start": 34.8424,
      "duration": 0.092,
      "velocity": 117,
      "chip": "ym2612"
    },
    {
      "channel": 5,
      "note": 32,
      "start": 34.8445,
      "duration": 0.0901,
      "velocity": 110,
      "chip": "ym2612"
    },
    {
      "channel": 1,
      "note": 105,
      "start": 34.8559,
      "duration": 0.0981,
      "velocity": 117,
      "chip": "ym2612"
    },
    {
      "channel": 1,
      "note": 95,
      "start": 34.956,
      "duration": 0.1381,
      "velocity": 117,
      "chip": "ym2612"
    },
    {
      "channel": 2,
      "note": 37,
      "start": 34.9587,
      "duration": 0.2555,
      "velocity": 127,
      "chip": "ym2612"
    },
    {
      "channel": 3,
      "note": 69,
      "start": 34.9608,
      "duration": 0.1554,
      "velocity": 97,
      "chip": "ym2612"
    },
    {
      "channel": 4,
      "note": 91,
      "start": 34.9629,
      "duration": 0.1316,
      "velocity": 117,
      "chip": "ym2612"
    },
    {
      "channel": 5,
      "note": 33,
      "start": 34.965,
      "duration": 0.2495,
      "velocity": 110,
      "chip": "ym2612"
    },
    {
      "channel": 0,
      "note": 68,
      "start": 34.9959,
      "duration": 0.0981,
      "velocity": 97,
      "chip": "ym2612"
    },
    {
      "channel": 0,
      "note": 69,
      "start": 35.1159,
      "duration": 0.1581,
      "velocity": 97,
      "chip": "ym2612"
    },
    {
      "channel": 4,
      "note": 81,
      "start": 35.1183,
      "duration": 0.0359,
      "velocity": 117,
      "chip": "ym2612"
    },
    {
      "channel": 1,
      "note": 93,
      "start": 35.2359,
      "duration": 0.1381,
      "velocity": 117,
      "chip": "ym2612"
    },
    {
      "channel": 4,
      "note": 90,
      "start": 35.2383,
      "duration": 0.1361,
      "velocity": 117,
      "chip": "ym2612"
    },
    {
      "channel": 1,
      "note": 91,
      "start": 35.3959,
      "duration": 0.0781,
      "velocity": 117,
      "chip": "ym2612"
    },
    {
      "channel": 4,
      "note": 88,
      "start": 35.3983,
      "duration": 0.0761,
      "velocity": 117,
      "chip": "ym2612"
    },
    {
      "channel": 4,
      "note": 81,
      "start": 35.4764,
      "duration": 0.0379,
      "velocity": 117,
      "chip": "ym2612"
    },
    {
      "channel": 1,
      "note": 91,
      "start": 35.5359,
      "duration": 0.0781,
      "velocity": 117,
      "chip": "ym2612"
    },
    {
      "channel": 4,
      "note": 88,
      "start": 35.5383,
      "duration": 0.0761,
      "velocity": 117,
      "chip": "ym2612"
    },
    {
      "channel": 4,
      "note": 81,
      "start": 35.6164,
      "duration": 0.0379,
      "velocity": 117,
      "chip": "ym2612"
    },
    {
      "channel": 1,
      "note": 91,
      "start": 35.6759,
      "duration": 0.0781,
      "velocity": 117,
      "chip": "ym2612"
    },
    {
      "channel": 2,
      "note": 37,
      "start": 35.6782,
      "duration": 0.096,
      "velocity": 127,
      "chip": "ym2612"
    },
    {
      "channel": 3,
      "note": 59,
      "start": 35.6803,
      "duration": 0.094,
      "velocity": 97,
      "chip": "ym2612"
    },
    {
      "channel": 4,
      "note": 88,
      "start": 35.6824,
      "duration": 0.072,
      "velocity": 117,
      "chip": "ym2612"
    },
    {
      "channel": 5,
      "note": 23,
      "start": 35.6845,
      "duration": 0.09,
      "velocity": 110,
      "chip": "ym2612"
    },
    {
      "channel": 4,
      "note": 81,
      "start": 35.7564,
      "duration": 0.0421,
      "velocity": 117,
      "chip": "ym2612"
    },
    {
      "channel": 2,
      "note": 37,
      "start": 35.7962,
      "duration": 0.138,
      "velocity": 127,
      "chip": "ym2612"
    },
    {
      "channel": 3,
      "note": 62,
      "start": 35.7983,
      "duration": 0.136,
      "velocity": 97,
      "chip": "ym2612"
    },
    {
      "channel": 4,
      "note": 76,
      "start": 35.8005,
      "duration": 0.134,
      "velocity": 117,
      "chip": "ym2612"
    },
    {
      "channel": 5,
      "note": 26,
      "start": 35.8026,
      "duration": 0.1321,
      "velocity": 110,
      "chip": "ym2612"
    },
    {
      "channel": 1,
      "note": 88,
      "start": 35.8159,
      "duration": 0.1401,
      "velocity": 117,
      "chip": "ym2612"
    },
    {
      "channel": 0,
      "note": 59,
      "start": 35.8359,
      "duration": 0.0981,
      "velocity": 97,
      "chip": "ym2612"
    },
    {
      "channel": 0,
      "note": 62,
      "start": 35.9559,
      "duration": 0.1381,
      "velocity": 97,
      "chip": "ym2612"
    },
    {
      "channel": 2,
      "note": 37,
      "start": 35.9582,
      "duration": 0.0959,
      "velocity": 127,
      "chip": "ym2612"
    },
    {
      "channel": 3,
      "note": 63,
      "start": 35.9603,
      "duration": 0.0939,
      "velocity": 97,
      "chip": "ym2612"
    },
    {
      "channel": 4,
      "note": 88,
      "start": 35.9624,
      "duration": 0.092,
      "velocity": 117,
      "chip": "ym2612"
    },
    {
      "channel": 5,
      "note": 27,
      "start": 35.9645,
      "duration": 0.0901,
      "velocity": 110,
      "chip": "ym2612"
    },
    {
      "channel": 1,
      "note": 100,
      "start": 35.9959,
      "duration": 0.0781,
      "velocity": 117,
      "chip": "ym2612"
    },
    {
      "channel": 1,
      "note": 83,
      "start": 36.076,
      "duration": 0.1381,
      "velocity": 117,
      "chip": "ym2612"
    },
    {
      "channel": 2,
      "note": 37,
      "start": 36.0787,
      "duration": 0.2555,
      "velocity": 127,
      "chip": "ym2612"
    },
    {
      "channel": 3,
      "note": 64,
      "start": 36.0808,
      "duration": 0.1554,
      "velocity": 97,
      "chip": "ym2612"
    },
    {
      "channel": 4,
      "note": 86,
      "start": 36.0829,
      "duration": 0.1316,
      "velocity": 117,
      "chip": "ym2612"
    },
    {
      "channel": 5,
      "note": 28,
      "start": 36.085,
      "duration": 0.2495,
      "velocity": 110,
      "chip": "ym2612"
    },
    {
      "channel": 0,
      "note": 63,
      "start": 36.1359,
      "duration": 0.0781,
      "velocity": 97,
      "chip": "ym2612"
    },
    {
      "channel": 0,
      "note": 64,
      "start": 36.2359,
      "duration": 0.1781,
      "velocity": 97,
      "chip": "ym2612"
    },
    {
      "channel": 4,
      "note": 76,
      "start": 36.2383,
      "duration": 0.0559,
      "velocity": 117,
      "chip": "ym2612"
    },
    {
      "channel": 1,
      "note": 81,
      "start": 36.3559,
      "duration": 0.1381,
      "velocity": 117,
      "chip": "ym2612"
    },
    {
      "channel": 4,
      "note": 85,
      "start": 36.3583,
      "duration": 0.1361,
      "velocity": 117,
      "chip": "ym2612"
    },
    {
      "channel": 1,
      "note": 80,
      "start": 36.5359,
      "duration": 0.0581,
      "velocity": 117,
      "chip": "ym2612"
    },
    {
      "channel": 4,
      "note": 83,
      "start": 36.5383,
      "duration": 0.0561,
      "velocity": 117,
      "chip": "ym2612"
    },
    {
      "channel": 4,
      "note": 76,
      "start": 36.5964,
      "duration": 0.0379,
      "velocity": 117,
      "chip": "ym2612"
    },
    {
      "channel": 1,
      "note": 80,
      "start": 36.6759,
      "duration": 0.0581,
      "velocity": 117,
      "chip": "ym2612"
    },
    {
      "channel": 4,
      "note": 83,
      "start": 36.6783,
      "duration": 0.0561,
      "velocity": 117,
      "chip": "ym2612"
    },
    {
      "channel": 4,
      "note": 76,
      "start": 36.7364,
      "duration": 0.0379,
      "velocity": 117,
      "chip": "ym2612"
    },
    {
      "channel": 1,
      "note": 80,
      "start": 36.8159,
      "duration": 0.0581,
      "velocity": 117,
      "chip": "ym2612"
    },
    {
      "channel": 2,
      "note": 37,
      "start": 36.8182,
      "duration": 0.076,
      "velocity": 127,
      "chip": "ym2612"
    },
    {
      "channel": 3,
      "note": 59,
      "start": 36.8203,
      "duration": 0.074,
      "velocity": 97,
      "chip": "ym2612"
    },
    {
      "channel": 4,
      "note": 83,
      "start": 36.8224,
      "duration": 0.052,
      "velocity": 117,
      "chip": "ym2612"
    },
    {
      "channel": 5,
      "note": 23,
      "start": 36.8245,
      "duration": 0.07,
      "velocity": 110,
      "chip": "ym2612"
    },
    {
      "channel": 4,
      "note": 76,
      "start": 36.8764,
      "duration": 0.0621,
      "velocity": 117,
      "chip": "ym2612"
    },
    {
      "channel": 2,
      "note": 37,
      "start": 36.9362,
      "duration": 0.138,
      "velocity": 127,
      "chip": "ym2612"
    },
    {
      "channel": 3,
      "note": 62,
      "start": 36.9383,
      "duration": 0.136,
      "velocity": 97,
      "chip": "ym2612"
    },
    {
      "channel": 4,
      "note": 76,
      "start": 36.9405,
      "duration": 0.134,
      "velocity": 117,
      "chip": "ym2612"
    },
    {
      "channel": 5,
      "note": 26,
      "start": 36.9426,
      "duration": 0.1321,
      "velocity": 110,
      "chip": "ym2612"
    },
    {
      "channel": 1,
      "note": 88,
      "start": 36.9559,
      "duration": 0.1401,
      "velocity": 117,
      "chip": "ym2612"
    },
    {
      "channel": 0,
      "note": 59,
      "start": 36.9759,
      "duration": 0.0981,
      "velocity": 97,
      "chip": "ym2612"
    },
    {
      "channel": 0,
      "note": 62,
      "start": 37.0959,
      "duration": 0.1381,
      "velocity": 97,
      "chip": "ym2612"
    },
    {
      "channel": 2,
      "note": 37,
      "start": 37.0982,
      "duration": 0.0759,
      "velocity": 127,
      "chip": "ym2612"
    },
    {
      "channel": 3,
      "note": 63,
      "start": 37.1003,
      "duration": 0.0739,
      "velocity": 97,
      "chip": "ym2612"
    },
    {
      "channel": 4,
      "note": 88,
      "start": 37.1024,
      "duration": 0.072,
      "velocity": 117,
      "chip": "ym2612"
    },
    {
      "channel": 5,
      "note": 27,
      "start": 37.1045,
      "duration": 0.0701,
      "velocity": 110,
      "chip": "ym2612"
    },
    {
      "channel": 1,
      "note": 100,
      "start": 37.1159,
      "duration": 0.0981,
      "velocity": 117,
      "chip": "ym2612"
    },
    {
      "channel": 1,
      "note": 90,
      "start": 37.216,
      "duration": 0.1381,
      "velocity": 117,
      "chip": "ym2612"
    },
    {
      "channel": 2,
      "note": 37,
      "start": 37.2183,
      "duration": 0.0558,
      "velocity": 127,
      "chip": "ym2612"
    },
    {
      "channel": 3,
      "note": 64,
      "start": 37.2205,
      "duration": 0.1559,
      "velocity": 97,
      "chip": "ym2612"
    },
    {
      "channel": 4,
      "note": 86,
      "start": 37.2226,
      "duration": 0.1319,
      "velocity": 117,
      "chip": "ym2612"
    },
    {
      "channel": 5,
      "note": 28,
      "start": 37.2247,
      "duration": 0.2498,
      "velocity": 110,
      "chip": "ym2612"
    },
    {
      "channel": 0,
      "note": 63,
      "start": 37.2559,
      "duration": 0.0981,
      "velocity": 97,
      "chip": "ym2612"
    },
    {
      "channel": 2,
      "note": 37,
      "start": 37.2961,
      "duration": 0.08,
      "velocity": 127,
      "chip": "ym2612"
    },
    {
      "channel": 0,
      "note": 64,
      "start": 37.3759,
      "duration": 0.1581,
      "velocity": 97,
      "chip": "ym2612"
    },
    {
      "channel": 4,
      "note": 76,
      "start": 37.3785,
      "duration": 0.0358,
      "velocity": 117,
      "chip": "ym2612"
    },
    {
      "channel": 2,
      "note": 35,
      "start": 37.3961,
      "duration": 0.0781,
      "velocity": 127,
      "chip": "ym2612"
    },
    {
      "channel": 1,
      "note": 88,
      "start": 37.4959,
      "duration": 0.1381,
      "velocity": 117,
      "chip": "ym2612"
    },
    {
      "channel": 2,
      "note": 37,
      "start": 37.4982,
      "duration": 0.0559,
      "velocity": 127,
      "chip": "ym2612"
    },
    {
      "channel": 3,
      "note": 66,
      "start": 37.5003,
      "duration": 0.158,
      "velocity": 97,
      "chip": "ym2612"
    },
    {
      "channel": 4,
      "note": 85,
      "start": 37.5024,
      "duration": 0.132,
      "velocity": 117,
      "chip": "ym2612"
    },
    {
      "channel": 5,
      "note": 30,
      "start": 37.5045,
      "duration": 0.2499,
      "velocity": 110,
      "chip": "ym2612"
    },
    {
      "channel": 2,
      "note": 37,
      "start": 37.5761,
      "duration": 0.0821,
      "velocity": 127,
      "chip": "ym2612"
    },
    {
      "channel": 0,
      "note": 66,
      "start": 37.6559,
      "duration": 0.1581,
      "velocity": 97,
      "chip": "ym2612"
    },
    {
      "channel": 1,
      "note": 86,
      "start": 37.658,
      "duration": 0.056,
      "velocity": 117,
      "chip": "ym2612"
    },
    {
      "channel": 4,
      "note": 83,
      "start": 37.6605,
      "duration": 0.0539,
      "velocity": 117,
      "chip": "ym2612"
    },
    {
      "channel": 2,
      "note": 35,
      "start": 37.6761,
      "duration": 0.0781,
      "velocity": 127,
      "chip": "ym2612"
    },
    {
      "channel": 4,
      "note": 76,
      "start": 37.7164,
      "duration": 0.0621,
      "velocity": 117,
      "chip": "ym2612"
    },
    {
      "channel": 2,
      "note": 37,
      "start": 37.7762,
      "duration": 0.058,
      "velocity": 127,
      "chip": "ym2612"
    },
    {
      "channel": 3,
      "note": 68,
      "start": 37.7783,
      "duration": 0.1599,
      "velocity": 97,
      "chip": "ym2612"
    },
    {
      "channel": 5,
      "note": 32,
      "start": 37.7806,
      "duration": 0.2538,
      "velocity": 110,
      "chip": "ym2612"
    },
    {
      "channel": 1,
      "note": 86,
      "start": 37.7959,
      "duration": 0.0581,
      "velocity": 117,
      "chip": "ym2612"
    },
    {
      "channel": 4,
      "note": 83,
      "start": 37.7983,
      "duration": 0.0581,
      "velocity": 117,
      "chip": "ym2612"
    },
    {
      "channel": 2,
      "note": 37,
      "start": 37.8562,
      "duration": 0.082,
      "velocity": 127,
      "chip": "ym2612"
    },
    {
      "channel": 4,
      "note": 76,
      "start": 37.8585,
      "duration": 0.0558,
      "velocity": 117,
      "chip": "ym2612"
    },
    {
      "channel": 0,
      "note": 68,
      "start": 37.9359,
      "duration": 0.1581,
      "velocity": 97,
      "chip": "ym2612"
    },
    {
      "channel": 1,
      "note": 86,
      "start": 37.938,
      "duration": 0.076,
      "velocity": 117,
      "chip": "ym2612"
    },
    {
      "channel": 4,
      "note": 83,
      "start": 37.9405,
      "duration": 0.0739,
      "velocity": 117,
      "chip": "ym2612"
    },
    {
      "channel": 2,
      "note": 35,
      "start": 37.9561,
      "duration": 0.0781,
      "velocity": 127,
      "chip": "ym2612"
    },
    {
      "channel": 4,
      "note": 76,
      "start": 38.0164,
      "duration": 0.0421,
      "velocity": 117,
      "chip": "ym2612"
    },
    {
      "channel": 2,
      "note": 37,
      "start": 38.0562,
      "duration": 0.058,
      "velocity": 127,
      "chip": "ym2612"
    },
    {
      "channel": 3,
      "note": 69,
      "start": 38.0583,
      "duration": 0.158,
      "velocity": 97,
      "chip": "ym2612"
    },
    {
      "channel": 4,
      "note": 81,
      "start": 38.0605,
      "duration": 0.1337,
      "velocity": 117,
      "chip": "ym2612"
    },
    {
      "channel": 5,
      "note": 33,
      "start": 38.0626,
      "duration": 0.2519,
      "velocity": 110,
      "chip": "ym2612"
    },
    {
      "channel": 1,
      "note": 93,
      "start": 38.0759,
      "duration": 0.1401,
      "velocity": 117,
      "chip": "ym2612"
    },
    {
      "channel": 2,
      "note": 37,
      "start": 38.1561,
      "duration": 0.0601,
      "velocity": 127,
      "chip": "ym2612"
    },
    {
      "channel": 0,
      "note": 69,
      "start": 38.2159,
      "duration": 0.1581,
      "velocity": 97,
      "chip": "ym2612"
    },
    {
      "channel": 4,
      "note": 93,
      "start": 38.2185,
      "duration": 0.0959,
      "velocity": 117,
      "chip": "ym2612"
    },
    {
      "channel": 1,
      "note": 105,
      "start": 38.2359,
      "duration": 0.0981,
      "velocity": 117,
      "chip": "ym2612"
    },
    {
      "channel": 2,
      "note": 35,
      "start": 38.2381,
      "duration": 0.076,
      "velocity": 127,
      "chip": "ym2612"
    },
    {
      "channel": 1,
      "note": 86,
      "start": 38.3362,
      "duration": 0.1378,
      "velocity": 117,
      "chip": "ym2612"
    },
    {
      "channel": 2,
      "note": 27,
      "start": 38.339,
      "duration": 0.1351,
      "velocity": 93,
      "chip": "ym2612"
    },
    {
      "channel": 3,
      "note": 71,
      "start": 38.3413,
      "duration": 0.1729,
      "velocity": 97,
      "chip": "ym2612"
    },
    {
      "channel": 4,
      "note": 89,
      "start": 38.3436,
      "duration": 0.1309,
      "velocity": 117,
      "chip": "ym2612"
    },
    {
      "channel": 5,
      "note": 35,
      "start": 38.3458,
      "duration": 0.2487,
      "velocity": 110,
      "chip": "ym2612"
    },
    {
      "channel": 0,
      "note": 71,
      "start": 38.4959,
      "duration": 0.198,
      "velocity": 97,
      "chip": "ym2612"
    },
    {
      "channel": 1,
      "note": 87,
      "start": 38.498,
      "duration": 0.116,
      "velocity": 117,
      "chip": "ym2612"
    },
    {
      "channel": 2,
      "note": 49,
      "start": 38.5006,
      "duration": 0.0935,
      "velocity": 123,
      "chip": "ym2612"
    },
    {
      "channel": 4,
      "note": 90,
      "start": 38.5028,
      "duration": 0.0916,
      "velocity": 117,
      "chip": "ym2612"
    },
    {
      "channel": 2,
      "note": 37,
      "start": 38.6166,
      "duration": 0.1375,
      "velocity": 127,
      "chip": "ym2612"
    },
    {
      "channel": 4,
      "note": 83,
      "start": 38.6188,
      "duration": 0.1376,
      "velocity": 117,
      "chip": "ym2612"
    },
    {
      "channel": 5,
      "note": 38,
      "start": 38.6209,
      "duration": 0.2558,
      "velocity": 110,
      "chip": "ym2612"
    },
    {
      "channel": 3,
      "note": 74,
      "start": 38.7562,
      "duration": 0.098,
      "velocity": 97,
      "chip": "ym2612"
    },
    {
      "channel": 1,
      "note": 86,
      "start": 38.7759,
      "duration": 0.0981,
      "velocity": 117,
      "chip": "ym2612"
    },
    {
      "channel": 2,
      "note": 49,
      "start": 38.7781,
      "duration": 0.0961,
      "velocity": 127,
      "chip": "ym2612"
    },
    {
      "channel": 4,
      "note": 89,
      "start": 38.7803,
      "duration": 0.0962,
      "velocity": 117,
      "chip": "ym2612"
    },
    {
      "channel": 3,
      "note": 75,
      "start": 38.8763,
      "duration": 0.138,
      "velocity": 97,
      "chip": "ym2612"
    },
    {
      "channel": 1,
      "note": 87,
      "start": 38.8959,
      "duration": 0.1401,
      "velocity": 117,
      "chip": "ym2612"
    },
    {
      "channel": 2,
      "note": 27,
      "start": 38.899,
      "duration": 0.1371,
      "velocity": 93,
      "chip": "ym2612"
    },
    {
      "channel": 4,
      "note": 90,
      "start": 38.9013,
      "duration": 0.1351,
      "velocity": 117,
      "chip": "ym2612"
    },
    {
      "channel": 5,
      "note": 39,
      "start": 38.9034,
      "duration": 0.2532,
      "velocity": 110,
      "chip": "ym2612"
    },
    {
      "channel": 0,
      "note": 74,
      "start": 38.9159,
      "duration": 0.0981,
      "velocity": 97,
      "chip": "ym2612"
    },
    {
      "channel": 0,
      "note": 75,
      "start": 39.0359,
      "duration": 0.1381,
      "velocity": 97,
      "chip": "ym2612"
    },
    {
      "channel": 2,
      "note": 49,
      "start": 39.0565,
      "duration": 0.0976,
      "velocity": 123,
      "chip": "ym2612"
    },
    {
      "channel": 4,
      "note": 83,
      "start": 39.0587,
      "duration": 0.0976,
      "velocity": 117,
      "chip": "ym2612"
    },
    {
      "channel": 3,
      "note": 78,
      "start": 39.1562,
      "duration": 0.138,
      "velocity": 97,
      "chip": "ym2612"
    },
    {
      "channel": 1,
      "note": 86,
      "start": 39.1761,
      "duration": 0.14,
      "velocity": 117,
      "chip": "ym2612"
    },
    {
      "channel": 2,
      "note": 37,
      "start": 39.1787,
      "duration": 0.1375,
      "velocity": 127,
      "chip": "ym2612"
    },
    {
      "channel": 4,
      "note": 89,
      "start": 39.1808,
      "duration": 0.1356,
      "velocity": 117,
      "chip": "ym2612"
    },
    {
      "channel": 5,
      "note": 42,
      "start": 39.1829,
      "duration": 0.2516,
      "velocity": 110,
      "chip": "ym2612"
    },
    {
      "channel": 0,
      "note": 78,
      "start": 39.3159,
      "duration": 0.1381,
      "velocity": 97,
      "chip": "ym2612"
    },
    {
      "channel": 1,
      "note": 87,
      "start": 39.3359,
      "duration": 0.1182,
      "velocity": 117,
      "chip": "ym2612"
    },
    {
      "channel": 2,
      "note": 49,
      "start": 39.3381,
      "duration": 0.096,
      "velocity": 127,
      "chip": "ym2612"
    },
    {
      "channel": 4,
      "note": 90,
      "start": 39.3403,
      "duration": 0.0941,
      "velocity": 117,
      "chip": "ym2612"
    },
    {
      "channel": 2,
      "note": 27,
      "start": 39.4573,
      "duration": 0.1369,
      "velocity": 93,
      "chip": "ym2612"
    },
    {
      "channel": 4,
      "note": 81,
      "start": 39.4594,
      "duration": 0.1349,
      "velocity": 117,
      "chip": "ym2612"
    },
    {
      "channel": 5,
      "note": 33,
      "start": 39.4615,
      "duration": 0.2531,
      "velocity": 110,
      "chip": "ym2612"
    },
    {
      "channel": 1,
      "note": 84,
      "start": 39.6359,
      "duration": 0.0781,
      "velocity": 117,
      "chip": "ym2612"
    },
    {
      "channel": 2,
      "note": 49,
      "start": 39.6385,
      "duration": 0.0757,
      "velocity": 123,
      "chip": "ym2612"
    },
    {
      "channel": 3,
      "note": 69,
      "start": 39.6406,
      "duration": 0.1336,
      "velocity": 97,
      "chip": "ym2612"
    },
    {
      "channel": 4,
      "note": 87,
      "start": 39.6427,
      "duration": 0.0717,
      "velocity": 117,
      "chip": "ym2612"
    },
    {
      "channel": 1,
      "note": 85,
      "start": 39.7359,
      "duration": 0.1381,
      "velocity": 117,
      "chip": "ym2612"
    },
    {
      "channel": 2,
      "note": 37,
      "start": 39.7385,
      "duration": 0.1357,
      "velocity": 127,
      "chip": "ym2612"
    },
    {
      "channel": 4,
      "note": 88,
      "start": 39.7408,
      "duration": 0.1337,
      "velocity": 117,
      "chip": "ym2612"
    },
    {
      "channel": 5,
      "note": 36,
      "start": 39.7429,
      "duration": 0.2518,
      "velocity": 110,
      "chip": "ym2612"
    },
    {
      "channel": 0,
      "note": 69,
      "start": 39.7959,
      "duration": 0.1381,
      "velocity": 97,
      "chip": "ym2612"
    },
    {
      "channel": 2,
      "note": 49,
      "start": 39.9161,
      "duration": 0.0781,
      "velocity": 127,
      "chip": "ym2612"
    },
    {
      "channel": 3,
      "note": 72,
      "start": 39.9182,
      "duration": 0.0761,
      "velocity": 97,
      "chip": "ym2612"
    },
    {
      "channel": 4,
      "note": 81,
      "start": 39.9203,
      "duration": 0.0741,
      "velocity": 117,
      "chip": "ym2612"
    },
    {
      "channel": 1,
      "note": 84,
      "start": 40.0359,
      "duration": 0.1382,
      "velocity": 117,
      "chip": "ym2612"
    },
    {
      "channel": 2,
      "note": 49,
      "start": 40.0387,
      "duration": 0.1355,
      "velocity": 123,
      "chip": "ym2612"
    },
    {
      "channel": 3,
      "note": 73,
      "start": 40.0408,
      "duration": 0.1336,
      "velocity": 97,
      "chip": "ym2612"
    },
    {
      "channel": 4,
      "note": 87,
      "start": 40.0429,
      "duration": 0.1317,
      "velocity": 117,
      "chip": "ym2612"
    },
    {
      "channel": 5,
      "note": 37,
      "start": 40.0451,
      "duration": 0.2296,
      "velocity": 110,
      "chip": "ym2612"
    },
    {
      "channel": 0,
      "note": 72,
      "start": 40.0759,
      "duration": 0.0981,
      "velocity": 97,
      "chip": "ym2612"
    },
    {
      "channel": 0,
      "note": 73,
      "start": 40.1959,
      "duration": 0.1381,
      "velocity": 97,
      "chip": "ym2612"
    },
    {
      "channel": 1,
      "note": 85,
      "start": 40.198,
      "duration": 0.076,
      "velocity": 117,
      "chip": "ym2612"
    },
    {
      "channel": 2,
      "note": 37,
      "start": 40.2006,
      "duration": 0.0736,
      "velocity": 127,
      "chip": "ym2612"
    },
    {
      "channel": 4,
      "note": 88,
      "start": 40.2028,
      "duration": 0.0716,
      "velocity": 117,
      "chip": "ym2612"
    },
    {
      "channel": 1,
      "note": 81,
      "start": 40.3159,
      "duration": 0.1601,
      "velocity": 117,
      "chip": "ym2612"
    },
    {
      "channel": 2,
      "note": 37,
      "start": 40.3182,
      "duration": 0.136,
      "velocity": 127,
      "chip": "ym2612"
    },
    {
      "channel": 3,
      "note": 76,
      "start": 40.3203,
      "duration": 0.134,
      "velocity": 97,
      "chip": "ym2612"
    },
    {
      "channel": 4,
      "note": 81,
      "start": 40.3224,
      "duration": 0.1321,
      "velocity": 117,
      "chip": "ym2612"
    },
    {
      "channel": 5,
      "note": 40,
      "start": 40.3245,
      "duration": 0.25,
      "velocity": 110,
      "chip": "ym2612"
    },
    {
      "channel": 0,
      "note": 76,
      "start": 40.4759,
      "duration": 0.1381,
      "velocity": 97,
      "chip": "ym2612"
    },
    {
      "channel": 2,
      "note": 49,
      "start": 40.4786,
      "duration": 0.0955,
      "velocity": 123,
      "chip": "ym2612"
    },
    {
      "channel": 4,
      "note": 76,
      "start": 40.4808,
      "duration": 0.0935,
      "velocity": 117,
      "chip": "ym2612"
    },
    {
      "channel": 1,
      "note": 79,
      "start": 40.5962,
      "duration": 0.1378,
      "velocity": 117,
      "chip": "ym2612"
    },
    {
      "channel": 2,
      "note": 27,
      "start": 40.5989,
      "duration": 0.1353,
      "velocity": 93,
      "chip": "ym2612"
    },
    {
      "channel": 3,
      "note": 64,
      "start": 40.6012,
      "duration": 0.1332,
      "velocity": 97,
      "chip": "ym2612"
    },
    {
      "channel": 4,
      "note": 82,
      "start": 40.6034,
      "duration": 0.1311,
      "velocity": 117,
      "chip": "ym2612"
    },
    {
      "channel": 5,
      "note": 28,
      "start": 40.6057,
      "duration": 0.249,
      "velocity": 110,
      "chip": "ym2612"
    },
    {
      "channel": 0,
      "note": 64,
      "start": 40.756,
      "duration": 0.138,
      "velocity": 97,
      "chip": "ym2612"
    },
    {
      "channel": 1,
      "note": 80,
      "start": 40.7581,
      "duration": 0.0959,
      "velocity": 117,
      "chip": "ym2612"
    },
    {
      "channel": 2,
      "note": 49,
      "start": 40.7606,
      "duration": 0.0936,
      "velocity": 123,
      "chip": "ym2612"
    },
    {
      "channel": 4,
      "note": 83,
      "start": 40.7629,
      "duration": 0.0916,
      "velocity": 117,
      "chip": "ym2612"
    },
    {
      "channel": 2,
      "note": 37,
      "start": 40.8785,
      "duration": 0.1357,
      "velocity": 127,
      "chip": "ym2612"
    },
    {
      "channel": 4,
      "note": 76,
      "start": 40.8807,
      "duration": 0.1337,
      "velocity": 117,
      "chip": "ym2612"
    },
    {
      "channel": 5,
      "note": 32,
      "start": 40.8828,
      "duration": 0.2519,
      "velocity": 110,
      "chip": "ym2612"
    },
    {
      "channel": 1,
      "note": 79,
      "start": 41.0359,
      "duration": 0.0981,
      "velocity": 117,
      "chip": "ym2612"
    },
    {
      "channel": 2,
      "note": 49,
      "start": 41.0385,
      "duration": 0.0957,
      "velocity": 123,
      "chip": "ym2612"
    },
    {
      "channel": 3,
      "note": 67,
      "start": 41.0406,
      "duration": 0.0937,
      "velocity": 97,
      "chip": "ym2612"
    },
    {
      "channel": 4,
      "note": 82,
      "start": 41.0427,
      "duration": 0.0918,
      "velocity": 117,
      "chip": "ym2612"
    },
    {
      "channel": 1,
      "note": 80,
      "start": 41.1559,
      "duration": 0.1382,
      "velocity": 117,
      "chip": "ym2612"
    },
    {
      "channel": 2,
      "note": 27,
      "start": 41.1585,
      "duration": 0.1357,
      "velocity": 93,
      "chip": "ym2612"
    },
    {
      "channel": 3,
      "note": 68,
      "start": 41.1606,
      "duration": 0.16,
      "velocity": 97,
      "chip": "ym2612"
    },
    {
      "channel": 4,
      "note": 83,
      "start": 41.1627,
      "duration": 0.1318,
      "velocity": 117,
      "chip": "ym2612"
    },
    {
      "channel": 5,
      "note": 35,
      "start": 41.1649,
      "duration": 0.2498,
      "velocity": 110,
      "chip": "ym2612"
    },
    {
      "channel": 0,
      "note": 67,
      "start": 41.1959,
      "duration": 0.0981,
      "velocity": 97,
      "chip": "ym2612"
    },
    {
      "channel": 0,
      "note": 68,
      "start": 41.3159,
      "duration": 0.1581,
      "velocity": 97,
      "chip": "ym2612"
    },
    {
      "channel": 2,
      "note": 49,
      "start": 41.3205,
      "duration": 0.0937,
      "velocity": 123,
      "chip": "ym2612"
    },
    {
      "channel": 4,
      "note": 76,
      "start": 41.3227,
      "duration": 0.0917,
      "velocity": 117,
      "chip": "ym2612"
    },
    {
      "channel": 1,
      "note": 79,
      "start": 41.4359,
      "duration": 0.1381,
      "velocity": 117,
      "chip": "ym2612"
    },
    {
      "channel": 2,
      "note": 37,
      "start": 41.4385,
      "duration": 0.1357,
      "velocity": 127,
      "chip": "ym2612"
    },
    {
      "channel": 3,
      "note": 71,
      "start": 41.4406,
      "duration": 0.1337,
      "velocity": 97,
      "chip": "ym2612"
    },
    {
      "channel": 4,
      "note": 82,
      "start": 41.4427,
      "duration": 0.1318,
      "velocity": 117,
      "chip": "ym2612"
    },
    {
      "channel": 5,
      "note": 35,
      "start": 41.4449,
      "duration": 0.2497,
      "velocity": 110,
      "chip": "ym2612"
    },
    {
      "channel": 0,
      "note": 71,
      "start": 41.5959,
      "duration": 0.1381,
      "velocity": 97,
      "chip": "ym2612"
    },
    {
      "channel": 1,
      "note": 83,
      "start": 41.598,
      "duration": 0.076,
      "velocity": 117,
      "chip": "ym2612"
    },
    {
      "channel": 2,
      "note": 37,
      "start": 41.6001,
      "duration": 0.0941,
      "velocity": 127,
      "chip": "ym2612"
    },
    {
      "channel": 3,
      "note": 73,
      "start": 41.6022,
      "duration": 0.0921,
      "velocity": 97,
      "chip": "ym2612"
    },
    {
      "channel": 4,
      "note": 86,
      "start": 41.6043,
      "duration": 0.072,
      "velocity": 117,
      "chip": "ym2612"
    },
    {
      "channel": 4,
      "note": 76,
      "start": 41.6783,
      "duration": 0.0581,
      "velocity": 117,
      "chip": "ym2612"
    },
    {
      "channel": 2,
      "note": 37,
      "start": 41.7161,
      "duration": 0.1381,
      "velocity": 127,
      "chip": "ym2612"
    },
    {
      "channel": 3,
      "note": 64,
      "start": 41.7182,
      "duration": 0.1621,
      "velocity": 97,
      "chip": "ym2612"
    },
    {
      "channel": 5,
      "note": 28,
      "start": 41.7205,
      "duration": 0.1341,
      "velocity": 110,
      "chip": "ym2612"
    },
    {
      "channel": 1,
      "note": 83,
      "start": 41.7361,
      "duration": 0.0779,
      "velocity": 117,
      "chip": "ym2612"
    },
    {
      "channel": 4,
      "note": 86,
      "start": 41.7385,
      "duration": 0.0778,
      "velocity": 117,
      "chip": "ym2612"
    },
    {
      "channel": 0,
      "note": 73,
      "start": 41.7559,
      "duration": 0.0981,
      "velocity": 97,
      "chip": "ym2612"
    },
    {
      "channel": 4,
      "note": 76,
      "start": 41.8183,
      "duration": 0.062,
      "velocity": 117,
      "chip": "ym2612"
    },
    {
      "channel": 0,
      "note": 64,
      "start": 41.8759,
      "duration": 0.1781,
      "velocity": 97,
      "chip": "ym2612"
    },
    {
      "channel": 1,
      "note": 83,
      "start": 41.878,
      "duration": 0.076,
      "velocity": 117,
      "chip": "ym2612"
    },
    {
      "channel": 4,
      "note": 86,
      "start": 41.8824,
      "duration": 0.0738,
      "velocity": 117,
      "chip": "ym2612"
    },
    {
      "channel": 5,
      "note": 28,
      "start": 41.8845,
      "duration": 0.0898,
      "velocity": 110,
      "chip": "ym2612"
    },
    {
      "channel": 4,
      "note": 76,
      "start": 41.9583,
      "duration": 0.038,
      "velocity": 117,
      "chip": "ym2612"
    },
    {
      "channel": 1,
      "note": 81,
      "start": 41.996,
      "duration": 0.138,
      "velocity": 117,
      "chip": "ym2612"
    },
    {
      "channel": 4,
      "note": 85,
      "start": 41.9984,
      "duration": 0.136,
      "velocity": 117,
      "chip": "ym2612"
    },
    {
      "channel": 5,
      "note": 23,
      "start": 42.0005,
      "duration": 0.1938,
      "velocity": 110,
      "chip": "ym2612"
    },
    {
      "channel": 4,
      "note": 76,
      "start": 42.1582,
      "duration": 0.0962,
      "velocity": 117,
      "chip": "ym2612"
    },
    {
      "channel": 1,
      "note": 79,
      "start": 42.2759,
      "duration": 0.1381,
      "velocity": 117,
      "chip": "ym2612"
    },
    {
      "channel": 4,
      "note": 82,
      "start": 42.2783,
      "duration": 0.1361,
      "velocity": 117,
      "chip": "ym2612"
    },
    {
      "channel": 5,
      "note": 25,
      "start": 42.2804,
      "duration": 0.1939,
      "velocity": 110,
      "chip": "ym2612"
    },
    {
      "channel": 1,
      "note": 80,
      "start": 42.4359,
      "duration": 0.1181,
      "velocity": 117,
      "chip": "ym2612"
    },
    {
      "channel": 2,
      "note": 37,
      "start": 42.4382,
      "duration": 0.096,
      "velocity": 127,
      "chip": "ym2612"
    },
    {
      "channel": 4,
      "note": 83,
      "start": 42.4404,
      "duration": 0.116,
      "velocity": 117,
      "chip": "ym2612"
    },
    {
      "channel": 2,
      "note": 37,
      "start": 42.5562,
      "duration": 0.138,
      "velocity": 127,
      "chip": "ym2612"
    },
    {
      "channel": 5,
      "note": 27,
      "start": 42.5586,
      "duration": 0.1957,
      "velocity": 110,
      "chip": "ym2612"
    },
    {
      "channel": 2,
      "note": 49,
      "start": 42.7385,
      "duration": 0.0757,
      "velocity": 123,
      "chip": "ym2612"
    },
    {
      "channel": 4,
      "note": 76,
      "start": 42.7407,
      "duration": 0.0737,
      "velocity": 117,
      "chip": "ym2612"
    },
    {
      "channel": 1,
      "note": 88,
      "start": 42.8362,
      "duration": 0.1378,
      "velocity": 117,
      "chip": "ym2612"
    },
    {
      "channel": 2,
      "note": 37,
      "start": 42.8389,
      "duration": 0.2552,
      "velocity": 127,
      "chip": "ym2612"
    },
    {
      "channel": 3,
      "note": 69,
      "start": 42.8413,
      "duration": 0.1751,
      "velocity": 97,
      "chip": "ym2612"
    },
    {
      "channel": 4,
      "note": 91,
      "start": 42.8436,
      "duration": 0.1308,
      "velocity": 117,
      "chip": "ym2612"
    },
    {
      "channel": 5,
      "note": 33,
      "start": 42.8459,
      "duration": 0.2485,
      "velocity": 110,
      "chip": "ym2612"
    },
    {
      "channel": 0,
      "note": 69,
      "start": 43.0161,
      "duration": 0.1579,
      "velocity": 97,
      "chip": "ym2612"
    },
    {
      "channel": 4,
      "note": 81,
      "start": 43.0185,
      "duration": 0.0357,
      "velocity": 117,
      "chip": "ym2612"
    },
    {
      "channel": 1,
      "note": 90,
      "start": 43.1359,
      "duration": 0.1381,
      "velocity": 117,
      "chip": "ym2612"
    },
    {
      "channel": 4,
      "note": 90,
      "start": 43.1383,
      "duration": 0.1361,
      "velocity": 117,
      "chip": "ym2612"
    },
    {
      "channel": 1,
      "note": 85,
      "start": 43.2959,
      "duration": 0.0581,
      "velocity": 117,
      "chip": "ym2612"
    },
    {
      "channel": 4,
      "note": 88,
      "start": 43.2983,
      "duration": 0.0561,
      "velocity": 117,
      "chip": "ym2612"
    },
    {
      "channel": 4,
      "note": 81,
      "start": 43.3564,
      "duration": 0.0579,
      "velocity": 117,
      "chip": "ym2612"
    },
    {
      "channel": 1,
      "note": 85,
      "start": 43.4359,
      "duration": 0.0581,
      "velocity": 117,
      "chip": "ym2612"
    },
    {
      "channel": 4,
      "note": 88,
      "start": 43.4383,
      "duration": 0.0561,
      "velocity": 117,
      "chip": "ym2612"
    },
    {
      "channel": 4,
      "note": 81,
      "start": 43.4964,
      "duration": 0.0579,
      "velocity": 117,
      "chip": "ym2612"
    },
    {
      "channel": 1,
      "note": 85,
      "start": 43.5759,
      "duration": 0.0581,
      "velocity": 117,
      "chip": "ym2612"
    },
    {
      "channel": 2,
      "note": 37,
      "start": 43.5782,
      "duration": 0.096,
      "velocity": 127,
      "chip": "ym2612"
    },
    {
      "channel": 3,
      "note": 64,
      "start": 43.5803,
      "duration": 0.094,
      "velocity": 97,
      "chip": "ym2612"
    },
    {
      "channel": 4,
      "note": 88,
      "start": 43.5824,
      "duration": 0.052,
      "velocity": 117,
      "chip": "ym2612"
    },
    {
      "channel": 5,
      "note": 28,
      "start": 43.5845,
      "duration": 0.09,
      "velocity": 110,
      "chip": "ym2612"
    },
    {
      "channel": 4,
      "note": 81,
      "start": 43.6364,
      "duration": 0.0621,
      "velocity": 117,
      "chip": "ym2612"
    },
    {
      "channel": 2,
      "note": 37,
      "start": 43.6962,
      "duration": 0.138,
      "velocity": 127,
      "chip": "ym2612"
    },
    {
      "channel": 3,
      "note": 67,
      "start": 43.6983,
      "duration": 0.136,
      "velocity": 97,
      "chip": "ym2612"
    },
    {
      "channel": 4,
      "note": 81,
      "start": 43.7005,
      "duration": 0.134,
      "velocity": 117,
      "chip": "ym2612"
    },
    {
      "channel": 5,
      "note": 31,
      "start": 43.7026,
      "duration": 0.1321,
      "velocity": 110,
      "chip": "ym2612"
    },
    {
      "channel": 1,
      "note": 93,
      "start": 43.7159,
      "duration": 0.1401,
      "velocity": 117,
      "chip": "ym2612"
    },
    {
      "channel": 0,
      "note": 64,
      "start": 43.7359,
      "duration": 0.0981,
      "velocity": 97,
      "chip": "ym2612"
    },
    {
      "channel": 0,
      "note": 67,
      "start": 43.8559,
      "duration": 0.1381,
      "velocity": 97,
      "chip": "ym2612"
    },
    {
      "channel": 2,
      "note": 37,
      "start": 43.8582,
      "duration": 0.0959,
      "velocity": 127,
      "chip": "ym2612"
    },
    {
      "channel": 3,
      "note": 68,
      "start": 43.8603,
      "duration": 0.0939,
      "velocity": 97,
      "chip": "ym2612"
    },
    {
      "channel": 4,
      "note": 93,
      "start": 43.8624,
      "duration": 0.092,
      "velocity": 117,
      "chip": "ym2612"
    },
    {
      "channel": 5,
      "note": 32,
      "start": 43.8645,
      "duration": 0.0901,
      "velocity": 110,
      "chip": "ym2612"
    },
    {
      "channel": 1,
      "note": 105,
      "start": 43.8759,
      "duration": 0.0981,
      "velocity": 117,
      "chip": "ym2612"
    },
    {
      "channel": 1,
      "note": 95,
      "start": 43.976,
      "duration": 0.1381,
      "velocity": 117,
      "chip": "ym2612"
    },
    {
      "channel": 2,
      "note": 37,
      "start": 43.9787,
      "duration": 0.2555,
      "velocity": 127,
      "chip": "ym2612"
    },
    {
      "channel": 3,
      "note": 69,
      "start": 43.9808,
      "duration": 0.1554,
      "velocity": 97,
      "chip": "ym2612"
    },
    {
      "channel": 4,
      "note": 91,
      "start": 43.9829,
      "duration": 0.1316,
      "velocity": 117,
      "chip": "ym2612"
    },
    {
      "channel": 5,
      "note": 33,
      "start": 43.985,
      "duration": 0.2495,
      "velocity": 110,
      "chip": "ym2612"
    },
    {
      "channel": 0,
      "note": 68,
      "start": 44.0159,
      "duration": 0.0981,
      "velocity": 97,
      "chip": "ym2612"
    },
    {
      "channel": 0,
      "note": 69,
      "start": 44.1359,
      "duration": 0.1581,
      "velocity": 97,
      "chip": "ym2612"
    },
    {
      "channel": 4,
      "note": 81,
      "start": 44.1383,
      "duration": 0.0359,
      "velocity": 117,
      "chip": "ym2612"
    },
    {
      "channel": 1,
      "note": 93,
      "start": 44.2559,
      "duration": 0.1381,
      "velocity": 117,
      "chip": "ym2612"
    },
    {
      "channel": 4,
      "note": 90,
      "start": 44.2583,
      "duration": 0.1361,
      "velocity": 117,
      "chip": "ym2612"
    },
    {
      "channel": 1,
      "note": 91,
      "start": 44.4159,
      "duration": 0.0781,
      "velocity": 117,
      "chip": "ym2612"
    },
    {
      "channel": 4,
      "note": 88,
      "start": 44.4183,
      "duration": 0.0761,
      "velocity": 117,
      "chip": "ym2612"
    },
    {
      "channel": 4,
      "note": 81,
      "start": 44.4964,
      "duration": 0.0379,
      "velocity": 117,
      "chip": "ym2612"
    },
    {
      "channel": 1,
      "note": 91,
      "start": 44.5559,
      "duration": 0.0781,
      "velocity": 117,
      "chip": "ym2612"
    },
    {
      "channel": 4,
      "note": 88,
      "start": 44.5583,
      "duration": 0.0761,
      "velocity": 117,
      "chip": "ym2612"
    },
    {
      "channel": 4,
      "note": 81,
      "start": 44.6364,
      "duration": 0.0379,
      "velocity": 117,
      "chip": "ym2612"
    },
    {
      "channel": 1,
      "note": 91,
      "start": 44.6959,
      "duration": 0.0781,
      "velocity": 117,
      "chip": "ym2612"
    },
    {
      "channel": 2,
      "note": 37,
      "start": 44.6982,
      "duration": 0.096,
      "velocity": 127,
      "chip": "ym2612"
    },
    {
      "channel": 3,
      "note": 59,
      "start": 44.7003,
      "duration": 0.094,
      "velocity": 97,
      "chip": "ym2612"
    },
    {
      "channel": 4,
      "note": 88,
      "start": 44.7024,
      "duration": 0.072,
      "velocity": 117,
      "chip": "ym2612"
    },
    {
      "channel": 5,
      "note": 23,
      "start": 44.7045,
      "duration": 0.09,
      "velocity": 110,
      "chip": "ym2612"
    },
    {
      "channel": 4,
      "note": 81,
      "start": 44.7764,
      "duration": 0.0421,
      "velocity": 117,
      "chip": "ym2612"
    },
    {
      "channel": 2,
      "note": 37,
      "start": 44.8162,
      "duration": 0.138,
      "velocity": 127,
      "chip": "ym2612"
    },
    {
      "channel": 3,
      "note": 62,
      "start": 44.8183,
      "duration": 0.136,
      "velocity": 97,
      "chip": "ym2612"
    },
    {
      "channel": 4,
      "note": 76,
      "start": 44.8205,
      "duration": 0.134,
      "velocity": 117,
      "chip": "ym2612"
    },
    {
      "channel": 5,
      "note": 26,
      "start": 44.8226,
      "duration": 0.1321,
      "velocity": 110,
      "chip": "ym2612"
    },
    {
      "channel": 1,
      "note": 88,
      "start": 44.8359,
      "duration": 0.1401,
      "velocity": 117,
      "chip": "ym2612"
    },
    {
      "channel": 0,
      "note": 59,
      "start": 44.8559,
      "duration": 0.0981,
      "velocity": 97,
      "chip": "ym2612"
    },
    {
      "channel": 0,
      "note": 62,
      "start": 44.9759,
      "duration": 0.1381,
      "velocity": 97,
      "chip": "ym2612"
    },
    {
      "channel": 2,
      "note": 37,
      "start": 44.9782,
      "duration": 0.0959,
      "velocity": 127,
      "chip": "ym2612"
    },
    {
      "channel": 3,
      "note": 63,
      "start": 44.9803,
      "duration": 0.0939,
      "velocity": 97,
      "chip": "ym2612"
    },
    {
      "channel": 4,
      "note": 88,
      "start": 44.9824,
      "duration": 0.092,
      "velocity": 117,
      "chip": "ym2612"
    },
    {
      "channel": 5,
      "note": 27,
      "start": 44.9845,
      "duration": 0.0901,
      "velocity": 110,
      "chip": "ym2612"
    },
    {
      "channel": 1,
      "note": 100,
      "start": 44.9959,
      "duration": 0.0981,
      "velocity": 117,
      "chip": "ym2612"
    },
    {
      "channel": 1,
      "note": 83,
      "start": 45.096,
      "duration": 0.1381,
      "velocity": 117,
      "chip": "ym2612"
    },
    {
      "channel": 2,
      "note": 37,
      "start": 45.0987,
      "duration": 0.2555,
      "velocity": 127,
      "chip": "ym2612"
    },
    {
      "channel": 3,
      "note": 64,
      "start": 45.1008,
      "duration": 0.1554,
      "velocity": 97,
      "chip": "ym2612"
    },
    {
      "channel": 4,
      "note": 86,
      "start": 45.1029,
      "duration": 0.1316,
      "velocity": 117,
      "chip": "ym2612"
    },
    {
      "channel": 5,
      "note": 28,
      "start": 45.105,
      "duration": 0.2495,
      "velocity": 110,
      "chip": "ym2612"
    },
    {
      "channel": 0,
      "note": 63,
      "start": 45.1559,
      "duration": 0.0781,
      "velocity": 97,
      "chip": "ym2612"
    },
    {
      "channel": 0,
      "note": 64,
      "start": 45.2559,
      "duration": 0.1781,
      "velocity": 97,
      "chip": "ym2612"
    },
    {
      "channel": 4,
      "note": 76,
      "start": 45.2583,
      "duration": 0.0559,
      "velocity": 117,
      "chip": "ym2612"
    },
    {
      "channel": 1,
      "note": 81,
      "start": 45.3759,
      "duration": 0.1381,
      "velocity": 117,
      "chip": "ym2612"
    },
    {
      "channel": 4,
      "note": 85,
      "start": 45.3783,
      "duration": 0.1361,
      "velocity": 117,
      "chip": "ym2612"
    },
    {
      "channel": 1,
      "note": 80,
      "start": 45.5359,
      "duration": 0.0781,
      "velocity": 117,
      "chip": "ym2612"
    },
    {
      "channel": 4,
      "note": 83,
      "start": 45.5383,
      "duration": 0.0761,
      "velocity": 117,
      "chip": "ym2612"
    },
    {
      "channel": 4,
      "note": 76,
      "start": 45.6164,
      "duration": 0.0379,
      "velocity": 117,
      "chip": "ym2612"
    },
    {
      "channel": 1,
      "note": 80,
      "start": 45.6959,
      "duration": 0.0581,
      "velocity": 117,
      "chip": "ym2612"
    },
    {
      "channel": 4,
      "note": 83,
      "start": 45.6983,
      "duration": 0.0561,
      "velocity": 117,
      "chip": "ym2612"
    },
    {
      "channel": 4,
      "note": 76,
      "start": 45.7564,
      "duration": 0.0379,
      "velocity": 117,
      "chip": "ym2612"
    },
    {
      "channel": 1,
      "note": 80,
      "start": 45.8359,
      "duration": 0.0581,
      "velocity": 117,
      "chip": "ym2612"
    },
    {
      "channel": 2,
      "note": 37,
      "start": 45.8382,
      "duration": 0.076,
      "velocity": 127,
      "chip": "ym2612"
    },
    {
      "channel": 3,
      "note": 59,
      "start": 45.8403,
      "duration": 0.074,
      "velocity": 97,
      "chip": "ym2612"
    },
    {
      "channel": 4,
      "note": 83,
      "start": 45.8424,
      "duration": 0.052,
      "velocity": 117,
      "chip": "ym2612"
    },
    {
      "channel": 5,
      "note": 23,
      "start": 45.8445,
      "duration": 0.07,
      "velocity": 110,
      "chip": "ym2612"
    },
    {
      "channel": 4,
      "note": 76,
      "start": 45.8964,
      "duration": 0.0421,
      "velocity": 117,
      "chip": "ym2612"
    },
    {
      "channel": 2,
      "note": 37,
      "start": 45.9362,
      "duration": 0.138,
      "velocity": 127,
      "chip": "ym2612"
    },
    {
      "channel": 3,
      "note": 62,
      "start": 45.9383,
      "duration": 0.136,
      "velocity": 97,
      "chip": "ym2612"
    },
    {
      "channel": 4,
      "note": 76,
      "start": 45.9405,
      "duration": 0.134,
      "velocity": 117,
      "chip": "ym2612"
    },
    {
      "channel": 5,
      "note": 26,
      "start": 45.9426,
      "duration": 0.1321,
      "velocity": 110,
      "chip": "ym2612"
    },
    {
      "channel": 1,
      "note": 88,
      "start": 45.9759,
      "duration": 0.1401,
      "velocity": 117,
      "chip": "ym2612"
    },
    {
      "channel": 0,
      "note": 59,
      "start": 45.9959,
      "duration": 0.0781,
      "velocity": 97,
      "chip": "ym2612"
    },
    {
      "channel": 0,
      "note": 62,
      "start": 46.1159,
      "duration": 0.1381,
      "velocity": 97,
      "chip": "ym2612"
    },
    {
      "channel": 2,
      "note": 37,
      "start": 46.1182,
      "duration": 0.0759,
      "velocity": 127,
      "chip": "ym2612"
    },
    {
      "channel": 3,
      "note": 63,
      "start": 46.1203,
      "duration": 0.0739,
      "velocity": 97,
      "chip": "ym2612"
    },
    {
      "channel": 4,
      "note": 88,
      "start": 46.1224,
      "duration": 0.072,
      "velocity": 117,
      "chip": "ym2612"
    },
    {
      "channel": 5,
      "note": 27,
      "start": 46.1245,
      "duration": 0.0701,
      "velocity": 110,
      "chip": "ym2612"
    },
    {
      "channel": 1,
      "note": 100,
      "start": 46.1359,
      "duration": 0.0981,
      "velocity": 117,
      "chip": "ym2612"
    },
    {
      "channel": 1,
      "note": 90,
      "start": 46.236,
      "duration": 0.1381,
      "velocity": 117,
      "chip": "ym2612"
    },
    {
      "channel": 2,
      "note": 37,
      "start": 46.2387,
      "duration": 0.2355,
      "velocity": 127,
      "chip": "ym2612"
    },
    {
      "channel": 3,
      "note": 64,
      "start": 46.2408,
      "duration": 0.1554,
      "velocity": 97,
      "chip": "ym2612"
    },
    {
      "channel": 4,
      "note": 86,
      "start": 46.2429,
      "duration": 0.1316,
      "velocity": 117,
      "chip": "ym2612"
    },
    {
      "channel": 5,
      "note": 28,
      "start": 46.245,
      "duration": 0.2295,
      "velocity": 110,
      "chip": "ym2612"
    },
    {
      "channel": 0,
      "note": 63,
      "start": 46.2759,
      "duration": 0.0981,
      "velocity": 97,
      "chip": "ym2612"
    },
    {
      "channel": 0,
      "note": 64,
      "start": 46.3959,
      "duration": 0.1581,
      "velocity": 97,
      "chip": "ym2612"
    },
    {
      "channel": 4,
      "note": 76,
      "start": 46.3983,
      "duration": 0.0359,
      "velocity": 117,
      "chip": "ym2612"
    },
    {
      "channel": 1,
      "note": 88,
      "start": 46.5159,
      "duration": 0.1381,
      "velocity": 117,
      "chip": "ym2612"
    },
    {
      "channel": 4,
      "note": 85,
      "start": 46.5183,
      "duration": 0.1361,
      "velocity": 117,
      "chip": "ym2612"
    },
    {
      "channel": 1,
      "note": 86,
      "start": 46.6759,
      "duration": 0.0581,
      "velocity": 117,
      "chip": "ym2612"
    },
    {
      "channel": 4,
      "note": 83,
      "start": 46.6783,
      "duration": 0.0561,
      "velocity": 117,
      "chip": "ym2612"
    },
    {
      "channel": 4,
      "note": 76,
      "start": 46.7364,
      "duration": 0.0579,
      "velocity": 117,
      "chip": "ym2612"
    },
    {
      "channel": 1,
      "note": 86,
      "start": 46.8159,
      "duration": 0.0581,
      "velocity": 117,
      "chip": "ym2612"
    },
    {
      "channel": 4,
      "note": 83,
      "start": 46.8183,
      "duration": 0.0561,
      "velocity": 117,
      "chip": "ym2612"
    },
    {
      "channel": 4,
      "note": 76,
      "start": 46.8764,
      "duration": 0.0579,
      "velocity": 117,
      "chip": "ym2612"
    },
    {
      "channel": 1,
      "note": 86,
      "start": 46.9559,
      "duration": 0.0581,
      "velocity": 117,
      "chip": "ym2612"
    },
    {
      "channel": 2,
      "note": 37,
      "start": 46.9582,
      "duration": 0.096,
      "velocity": 127,
      "chip": "ym2612"
    },
    {
      "channel": 3,
      "note": 64,
      "start": 46.9603,
      "duration": 0.094,
      "velocity": 97,
      "chip": "ym2612"
    },
    {
      "channel": 4,
      "note": 83,
      "start": 46.9624,
      "duration": 0.052,
      "velocity": 117,
      "chip": "ym2612"
    },
    {
      "channel": 5,
      "note": 28,
      "start": 46.9645,
      "duration": 0.09,
      "velocity": 110,
      "chip": "ym2612"
    },
    {
      "channel": 4,
      "note": 76,
      "start": 47.0164,
      "duration": 0.0621,
      "velocity": 117,
      "chip": "ym2612"
    },
    {
      "channel": 2,
      "note": 37,
      "start": 47.0762,
      "duration": 0.138,
      "velocity": 127,
      "chip": "ym2612"
    },
    {
      "channel": 3,
      "note": 67,
      "start": 47.0783,
      "duration": 0.136,
      "velocity": 97,
      "chip": "ym2612"
    },
    {
      "channel": 4,
      "note": 81,
      "start": 47.0805,
      "duration": 0.134,
      "velocity": 117,
      "chip": "ym2612"
    },
    {
      "channel": 5,
      "note": 31,
      "start": 47.0826,
      "duration": 0.1321,
      "velocity": 110,
      "chip": "ym2612"
    },
    {
      "channel": 1,
      "note": 93,
      "start": 47.0959,
      "duration": 0.1401,
      "velocity": 117,
      "chip": "ym2612"
    },
    {
      "channel": 0,
      "note": 64,
      "start": 47.1159,
      "duration": 0.0981,
      "velocity": 97,
      "chip": "ym2612"
    },
    {
      "channel": 0,
      "note": 67,
      "start": 47.2359,
      "duration": 0.1381,
      "velocity": 97,
      "chip": "ym2612"
    },
    {
      "channel": 2,
      "note": 37,
      "start": 47.2382,
      "duration": 0.0959,
      "velocity": 127,
      "chip": "ym2612"
    },
    {
      "channel": 3,
      "note": 68,
      "start": 47.2403,
      "duration": 0.0939,
      "velocity": 97,
      "chip": "ym2612"
    },
    {
      "channel": 4,
      "note": 93,
      "start": 47.2424,
      "duration": 0.092,
      "velocity": 117,
      "chip": "ym2612"
    },
    {
      "channel": 5,
      "note": 32,
      "start": 47.2445,
      "duration": 0.0901,
      "velocity": 110,
      "chip": "ym2612"
    },
    {
      "channel": 1,
      "note": 105,
      "start": 47.2559,
      "duration": 0.0981,
      "velocity": 117,
      "chip": "ym2612"
    },
    {
      "channel": 1,
      "note": 88,
      "start": 47.3561,
      "duration": 0.138,
      "velocity": 117,
      "chip": "ym2612"
    },
    {
      "channel": 2,
      "note": 37,
      "start": 47.3588,
      "duration": 0.2553,
      "velocity": 127,
      "chip": "ym2612"
    },
    {
      "channel": 3,
      "note": 69,
      "start": 47.3609,
      "duration": 0.1553,
      "velocity": 97,
      "chip": "ym2612"
    },
    {
      "channel": 4,
      "note": 91,
      "start": 47.3631,
      "duration": 0.1313,
      "velocity": 117,
      "chip": "ym2612"
    },
    {
      "channel": 5,
      "note": 33,
      "start": 47.3652,
      "duration": 0.2492,
      "velocity": 110,
      "chip": "ym2612"
    },
    {
      "channel": 0,
      "note": 68,
      "start": 47.3959,
      "duration": 0.0981,
      "velocity": 97,
      "chip": "ym2612"
    },
    {
      "channel": 0,
      "note": 69,
      "start": 47.5159,
      "duration": 0.1581,
      "velocity": 97,
      "chip": "ym2612"
    },
    {
      "channel": 4,
      "note": 81,
      "start": 47.5183,
      "duration": 0.0359,
      "velocity": 117,
      "chip": "ym2612"
    },
    {
      "channel": 1,
      "note": 90,
      "start": 47.6359,
      "duration": 0.1381,
      "velocity": 117,
      "chip": "ym2612"
    },
    {
      "channel": 4,
      "note": 90,
      "start": 47.6383,
      "duration": 0.1361,
      "velocity": 117,
      "chip": "ym2612"
    },
    {
      "channel": 1,
      "note": 85,
      "start": 47.7959,
      "duration": 0.0781,
      "velocity": 117,
      "chip": "ym2612"
    },
    {
      "channel": 4,
      "note": 88,
      "start": 47.7983,
      "duration": 0.0761,
      "velocity": 117,
      "chip": "ym2612"
    },
    {
      "channel": 4,
      "note": 81,
      "start": 47.8764,
      "duration": 0.0379,
      "velocity": 117,
      "chip": "ym2612"
    },
    {
      "channel": 1,
      "note": 85,
      "start": 47.9359,
      "duration": 0.0781,
      "velocity": 117,
      "chip": "ym2612"
    },
    {
      "channel": 4,
      "note": 88,
      "start": 47.9383,
      "duration": 0.0761,
      "velocity": 117,
      "chip": "ym2612"
    },
    {
      "channel": 4,
      "note": 81,
      "start": 48.0164,
      "duration": 0.0379,
      "velocity": 117,
      "chip": "ym2612"
    },
    {
      "channel": 1,
      "note": 85,
      "start": 48.0759,
      "duration": 0.0781,
      "velocity": 117,
      "chip": "ym2612"
    },
    {
      "channel": 2,
      "note": 37,
      "start": 48.0782,
      "duration": 0.096,
      "velocity": 127,
      "chip": "ym2612"
    },
    {
      "channel": 3,
      "note": 64,
      "start": 48.0803,
      "duration": 0.094,
      "velocity": 97,
      "chip": "ym2612"
    },
    {
      "channel": 4,
      "note": 88,
      "start": 48.0824,
      "duration": 0.072,
      "velocity": 117,
      "chip": "ym2612"
    },
    {
      "channel": 5,
      "note": 28,
      "start": 48.0845,
      "duration": 0.09,
      "velocity": 110,
      "chip": "ym2612"
    },
    {
      "channel": 4,
      "note": 81,
      "start": 48.1564,
      "duration": 0.0421,
      "velocity": 117,
      "chip": "ym2612"
    },
    {
      "channel": 2,
      "note": 37,
      "start": 48.1962,
      "duration": 0.138,
      "velocity": 127,
      "chip": "ym2612"
    },
    {
      "channel": 3,
      "note": 67,
      "start": 48.1983,
      "duration": 0.136,
      "velocity": 97,
      "chip": "ym2612"
    },
    {
      "channel": 4,
      "note": 81,
      "start": 48.2005,
      "duration": 0.134,
      "velocity": 117,
      "chip": "ym2612"
    },
    {
      "channel": 5,
      "note": 31,
      "start": 48.2026,
      "duration": 0.1321,
      "velocity": 110,
      "chip": "ym2612"
    },
    {
      "channel": 1,
      "note": 93,
      "start": 48.2159,
      "duration": 0.1401,
      "velocity": 117,
      "chip": "ym2612"
    },
    {
      "channel": 0,
      "note": 64,
      "start": 48.2559,
      "duration": 0.0781,
      "velocity": 97,
      "chip": "ym2612"
    },
    {
      "channel": 0,
      "note": 67,
      "start": 48.3559,
      "duration": 0.1381,
      "velocity": 97,
      "chip": "ym2612"
    },
    {
      "channel": 2,
      "note": 37,
      "start": 48.3582,
      "duration": 0.0959,
      "velocity": 127,
      "chip": "ym2612"
    },
    {
      "channel": 3,
      "note": 68,
      "start": 48.3603,
      "duration": 0.0939,
      "velocity": 97,
      "chip": "ym2612"
    },
    {
      "channel": 4,
      "note": 93,
      "start": 48.3624,
      "duration": 0.092,
      "velocity": 117,
      "chip": "ym2612"
    },
    {
      "channel": 5,
      "note": 32,
      "start": 48.3645,
      "duration": 0.0901,
      "velocity": 110,
      "chip": "ym2612"
    },
    {
      "channel": 1,
      "note": 105,
      "start": 48.3959,
      "duration": 0.0781,
      "velocity": 117,
      "chip": "ym2612"
    },
    {
      "channel": 1,
      "note": 95,
      "start": 48.476,
      "duration": 0.1381,
      "velocity": 117,
      "chip": "ym2612"
    },
    {
      "channel": 2,
      "note": 37,
      "start": 48.4787,
      "duration": 0.2555,
      "velocity": 127,
      "chip": "ym2612"
    },
    {
      "channel": 3,
      "note": 69,
      "start": 48.4808,
      "duration": 0.1554,
      "velocity": 97,
      "chip": "ym2612"
    },
    {
      "channel": 4,
      "note": 91,
      "start": 48.4829,
      "duration": 0.1316,
      "velocity": 117,
      "chip": "ym2612"
    },
    {
      "channel": 5,
      "note": 33,
      "start": 48.485,
      "duration": 0.2495,
      "velocity": 110,
      "chip": "ym2612"
    },
    {
      "channel": 0,
      "note": 68,
      "start": 48.5359,
      "duration": 0.0781,
      "velocity": 97,
      "chip": "ym2612"
    },
    {
      "channel": 0,
      "note": 69,
      "start": 48.6359,
      "duration": 0.1781,
      "velocity": 97,
      "chip": "ym2612"
    },
    {
      "channel": 4,
      "note": 81,
      "start": 48.6383,
      "duration": 0.0559,
      "velocity": 117,
      "chip": "ym2612"
    },
    {
      "channel": 1,
      "note": 93,
      "start": 48.7559,
      "duration": 0.1381,
      "velocity": 117,
      "chip": "ym2612"
    },
    {
      "channel": 4,
      "note": 90,
      "start": 48.7583,
      "duration": 0.1361,
      "velocity": 117,
      "chip": "ym2612"
    },
    {
      "channel": 1,
      "note": 91,
      "start": 48.9359,
      "duration": 0.0581,
      "velocity": 117,
      "chip": "ym2612"
    },
    {
      "channel": 4,
      "note": 88,
      "start": 48.9383,
      "duration": 0.0561,
      "velocity": 117,
      "chip": "ym2612"
    },
    {
      "channel": 4,
      "note": 81,
      "start": 48.9964,
      "duration": 0.0379,
      "velocity": 117,
      "chip": "ym2612"
    },
    {
      "channel": 1,
      "note": 91,
      "start": 49.0759,
      "duration": 0.0581,
      "velocity": 117,
      "chip": "ym2612"
    },
    {
      "channel": 4,
      "note": 88,
      "start": 49.0783,
      "duration": 0.0561,
      "velocity": 117,
      "chip": "ym2612"
    },
    {
      "channel": 4,
      "note": 81,
      "start": 49.1364,
      "duration": 0.0579,
      "velocity": 117,
      "chip": "ym2612"
    },
    {
      "channel": 1,
      "note": 91,
      "start": 49.2159,
      "duration": 0.0581,
      "velocity": 117,
      "chip": "ym2612"
    },
    {
      "channel": 2,
      "note": 37,
      "start": 49.2182,
      "duration": 0.076,
      "velocity": 127,
      "chip": "ym2612"
    },
    {
      "channel": 3,
      "note": 59,
      "start": 49.2203,
      "duration": 0.074,
      "velocity": 97,
      "chip": "ym2612"
    },
    {
      "channel": 4,
      "note": 88,
      "start": 49.2224,
      "duration": 0.052,
      "velocity": 117,
      "chip": "ym2612"
    },
    {
      "channel": 5,
      "note": 23,
      "start": 49.2245,
      "duration": 0.07,
      "velocity": 110,
      "chip": "ym2612"
    },
    {
      "channel": 4,
      "note": 81,
      "start": 49.2764,
      "duration": 0.0621,
      "velocity": 117,
      "chip": "ym2612"
    },
    {
      "channel": 2,
      "note": 37,
      "start": 49.3362,
      "duration": 0.138,
      "velocity": 127,
      "chip": "ym2612"
    },
    {
      "channel": 3,
      "note": 62,
      "start": 49.3383,
      "duration": 0.136,
      "velocity": 97,
      "chip": "ym2612"
    },
    {
      "channel": 4,
      "note": 76,
      "start": 49.3405,
      "duration": 0.134,
      "velocity": 117,
      "chip": "ym2612"
    },
    {
      "channel": 5,
      "note": 26,
      "start": 49.3426,
      "duration": 0.1321,
      "velocity": 110,
      "chip": "ym2612"
    },
    {
      "channel": 1,
      "note": 88,
      "start": 49.3559,
      "duration": 0.1401,
      "velocity": 117,
      "chip": "ym2612"
    },
    {
      "channel": 0,
      "note": 59,
      "start": 49.3759,
      "duration": 0.0981,
      "velocity": 97,
      "chip": "ym2612"
    },
    {
      "channel": 0,
      "note": 62,
      "start": 49.4959,
      "duration": 0.1381,
      "velocity": 97,
      "chip": "ym2612"
    },
    {
      "channel": 2,
      "note": 37,
      "start": 49.4982,
      "duration": 0.0759,
      "velocity": 127,
      "chip": "ym2612"
    },
    {
      "channel": 3,
      "note": 63,
      "start": 49.5003,
      "duration": 0.0739,
      "velocity": 97,
      "chip": "ym2612"
    },
    {
      "channel": 4,
      "note": 88,
      "start": 49.5024,
      "duration": 0.072,
      "velocity": 117,
      "chip": "ym2612"
    },
    {
      "channel": 5,
      "note": 27,
      "start": 49.5045,
      "duration": 0.0701,
      "velocity": 110,
      "chip": "ym2612"
    },
    {
      "channel": 1,
      "note": 100,
      "start": 49.5159,
      "duration": 0.0981,
      "velocity": 117,
      "chip": "ym2612"
    },
    {
      "channel": 1,
      "note": 83,
      "start": 49.616,
      "duration": 0.1381,
      "velocity": 117,
      "chip": "ym2612"
    },
    {
      "channel": 2,
      "note": 37,
      "start": 49.6187,
      "duration": 0.2555,
      "velocity": 127,
      "chip": "ym2612"
    },
    {
      "channel": 3,
      "note": 64,
      "start": 49.6208,
      "duration": 0.1554,
      "velocity": 97,
      "chip": "ym2612"
    },
    {
      "channel": 4,
      "note": 86,
      "start": 49.6229,
      "duration": 0.1316,
      "velocity": 117,
      "chip": "ym2612"
    },
    {
      "channel": 5,
      "note": 28,
      "start": 49.625,
      "duration": 0.2495,
      "velocity": 110,
      "chip": "ym2612"
    },
    {
      "channel": 0,
      "note": 63,
      "start": 49.6559,
      "duration": 0.0981,
      "velocity": 97,
      "chip": "ym2612"
    },
    {
      "channel": 0,
      "note": 64,
      "start": 49.7759,
      "duration": 0.1581,
      "velocity": 97,
      "chip": "ym2612"
    },
    {
      "channel": 4,
      "note": 76,
      "start": 49.7783,
      "duration": 0.0359,
      "velocity": 117,
      "chip": "ym2612"
    },
    {
      "channel": 1,
      "note": 81,
      "start": 49.8959,
      "duration": 0.1381,
      "velocity": 117,
      "chip": "ym2612"
    },
    {
      "channel": 4,
      "note": 85,
      "start": 49.8983,
      "duration": 0.1361,
      "velocity": 117,
      "chip": "ym2612"
    },
    {
      "channel": 1,
      "note": 80,
      "start": 50.0559,
      "duration": 0.0581,
      "velocity": 117,
      "chip": "ym2612"
    },
    {
      "channel": 4,
      "note": 83,
      "start": 50.0583,
      "duration": 0.0561,
      "velocity": 117,
      "chip": "ym2612"
    },
    {
      "channel": 4,
      "note": 76,
      "start": 50.1164,
      "duration": 0.0579,
      "velocity": 117,
      "chip": "ym2612"
    },
    {
      "channel": 1,
      "note": 80,
      "start": 50.1959,
      "duration": 0.0781,
      "velocity": 117,
      "chip": "ym2612"
    },
    {
      "channel": 4,
      "note": 83,
      "start": 50.1983,
      "duration": 0.0761,
      "velocity": 117,
      "chip": "ym2612"
    },
    {
      "channel": 4,
      "note": 76,
      "start": 50.2764,
      "duration": 0.0379,
      "velocity": 117,
      "chip": "ym2612"
    },
    {
      "channel": 1,
      "note": 80,
      "start": 50.3359,
      "duration": 0.0781,
      "velocity": 117,
      "chip": "ym2612"
    },
    {
      "channel": 2,
      "note": 37,
      "start": 50.3382,
      "duration": 0.096,
      "velocity": 127,
      "chip": "ym2612"
    },
    {
      "channel": 3,
      "note": 59,
      "start": 50.3403,
      "duration": 0.094,
      "velocity": 97,
      "chip": "ym2612"
    },
    {
      "channel": 4,
      "note": 83,
      "start": 50.3424,
      "duration": 0.072,
      "velocity": 117,
      "chip": "ym2612"
    },
    {
      "channel": 5,
      "note": 23,
      "start": 50.3445,
      "duration": 0.09,
      "velocity": 110,
      "chip": "ym2612"
    },
    {
      "channel": 4,
      "note": 76,
      "start": 50.4164,
      "duration": 0.0421,
      "velocity": 117,
      "chip": "ym2612"
    },
    {
      "channel": 2,
      "note": 37,
      "start": 50.4562,
      "duration": 0.138,
      "velocity": 127,
      "chip": "ym2612"
    },
    {
      "channel": 3,
      "note": 62,
      "start": 50.4583,
      "duration": 0.136,
      "velocity": 97,
      "chip": "ym2612"
    },
    {
      "channel": 4,
      "note": 76,
      "start": 50.4605,
      "duration": 0.134,
      "velocity": 117,
      "chip": "ym2612"
    },
    {
      "channel": 5,
      "note": 26,
      "start": 50.4626,
      "duration": 0.1321,
      "velocity": 110,
      "chip": "ym2612"
    },
    {
      "channel": 1,
      "note": 88,
      "start": 50.4759,
      "duration": 0.1401,
      "velocity": 117,
      "chip": "ym2612"
    },
    {
      "channel": 0,
      "note": 59,
      "start": 50.4959,
      "duration": 0.0981,
      "velocity": 97,
      "chip": "ym2612"
    },
    {
      "channel": 0,
      "note": 62,
      "start": 50.6159,
      "duration": 0.1381,
      "velocity": 97,
      "chip": "ym2612"
    },
    {
      "channel": 2,
      "note": 37,
      "start": 50.6182,
      "duration": 0.0959,
      "velocity": 127,
      "chip": "ym2612"
    },
    {
      "channel": 3,
      "note": 63,
      "start": 50.6203,
      "duration": 0.0939,
      "velocity": 97,
      "chip": "ym2612"
    },
    {
      "channel": 4,
      "note": 88,
      "start": 50.6224,
      "duration": 0.092,
      "velocity": 117,
      "chip": "ym2612"
    },
    {
      "channel": 5,
      "note": 27,
      "start": 50.6245,
      "duration": 0.0901,
      "velocity": 110,
      "chip": "ym2612"
    },
    {
      "channel": 1,
      "note": 100,
      "start": 50.6359,
      "duration": 0.0981,
      "velocity": 117,
      "chip": "ym2612"
    },
    {
      "channel": 1,
      "note": 90,
      "start": 50.736,
      "duration": 0.1381,
      "velocity": 117,
      "chip": "ym2612"
    },
    {
      "channel": 2,
      "note": 37,
      "start": 50.7383,
      "duration": 0.0758,
      "velocity": 127,
      "chip": "ym2612"
    },
    {
      "channel": 3,
      "note": 64,
      "start": 50.7405,
      "duration": 0.1559,
      "velocity": 97,
      "chip": "ym2612"
    },
    {
      "channel": 4,
      "note": 86,
      "start": 50.7426,
      "duration": 0.1319,
      "velocity": 117,
      "chip": "ym2612"
    },
    {
      "channel": 5,
      "note": 28,
      "start": 50.7447,
      "duration": 0.2498,
      "velocity": 110,
      "chip": "ym2612"
    },
    {
      "channel": 0,
      "note": 63,
      "start": 50.7759,
      "duration": 0.0981,
      "velocity": 97,
      "chip": "ym2612"
    },
    {
      "channel": 2,
      "note": 37,
      "start": 50.8361,
      "duration": 0.06,
      "velocity": 127,
      "chip": "ym2612"
    },
    {
      "channel": 0,
      "note": 64,
      "start": 50.8959,
      "duration": 0.1581,
      "velocity": 97,
      "chip": "ym2612"
    },
    {
      "channel": 4,
      "note": 76,
      "start": 50.8985,
      "duration": 0.0558,
      "velocity": 117,
      "chip": "ym2612"
    },
    {
      "channel": 2,
      "note": 35,
      "start": 50.9161,
      "duration": 0.0781,
      "velocity": 127,
      "chip": "ym2612"
    },
    {
      "channel": 1,
      "note": 88,
      "start": 51.0159,
      "duration": 0.1381,
      "velocity": 117,
      "chip": "ym2612"
    },
    {
      "channel": 2,
      "note": 37,
      "start": 51.0182,
      "duration": 0.0759,
      "velocity": 127,
      "chip": "ym2612"
    },
    {
      "channel": 3,
      "note": 66,
      "start": 51.0203,
      "duration": 0.158,
      "velocity": 97,
      "chip": "ym2612"
    },
    {
      "channel": 4,
      "note": 85,
      "start": 51.0224,
      "duration": 0.132,
      "velocity": 117,
      "chip": "ym2612"
    },
    {
      "channel": 5,
      "note": 30,
      "start": 51.0245,
      "duration": 0.2499,
      "velocity": 110,
      "chip": "ym2612"
    },
    {
      "channel": 2,
      "note": 37,
      "start": 51.1161,
      "duration": 0.0621,
      "velocity": 127,
      "chip": "ym2612"
    },
    {
      "channel": 0,
      "note": 66,
      "start": 51.1759,
      "duration": 0.1781,
      "velocity": 97,
      "chip": "ym2612"
    },
    {
      "channel": 1,
      "note": 86,
      "start": 51.178,
      "duration": 0.076,
      "velocity": 117,
      "chip": "ym2612"
    },
    {
      "channel": 4,
      "note": 83,
      "start": 51.1805,
      "duration": 0.0739,
      "velocity": 117,
      "chip": "ym2612"
    },
    {
      "channel": 2,
      "note": 35,
      "start": 51.1961,
      "duration": 0.0781,
      "velocity": 127,
      "chip": "ym2612"
    },
    {
      "channel": 4,
      "note": 76,
      "start": 51.2564,
      "duration": 0.0421,
      "velocity": 117,
      "chip": "ym2612"
    },
    {
      "channel": 2,
      "note": 37,
      "start": 51.2962,
      "duration": 0.078,
      "velocity": 127,
      "chip": "ym2612"
    },
    {
      "channel": 3,
      "note": 68,
      "start": 51.2983,
      "duration": 0.1599,
      "velocity": 97,
      "chip": "ym2612"
    },
    {
      "channel": 5,
      "note": 32,
      "start": 51.3006,
      "duration": 0.2538,
      "velocity": 110,
      "chip": "ym2612"
    },
    {
      "channel": 1,
      "note": 86,
      "start": 51.3159,
      "duration": 0.0781,
      "velocity": 117,
      "chip": "ym2612"
    },
    {
      "channel": 4,
      "note": 83,
      "start": 51.3183,
      "duration": 0.0781,
      "velocity": 117,
      "chip": "ym2612"
    },
    {
      "channel": 2,
      "note": 37,
      "start": 51.3962,
      "duration": 0.062,
      "velocity": 127,
      "chip": "ym2612"
    },
    {
      "channel": 4,
      "note": 76,
      "start": 51.3985,
      "duration": 0.0358,
      "velocity": 117,
      "chip": "ym2612"
    },
    {
      "channel": 0,
      "note": 68,
      "start": 51.4559,
      "duration": 0.1781,
      "velocity": 97,
      "chip": "ym2612"
    },
    {
      "channel": 1,
      "note": 86,
      "start": 51.458,
      "duration": 0.076,
      "velocity": 117,
      "chip": "ym2612"
    },
    {
      "channel": 4,
      "note": 83,
      "start": 51.4605,
      "duration": 0.0739,
      "velocity": 117,
      "chip": "ym2612"
    },
    {
      "channel": 2,
      "note": 35,
      "start": 51.4961,
      "duration": 0.0581,
      "velocity": 127,
      "chip": "ym2612"
    },
    {
      "channel": 4,
      "note": 76,
      "start": 51.5364,
      "duration": 0.0421,
      "velocity": 117,
      "chip": "ym2612"
    },
    {
      "channel": 2,
      "note": 37,
      "start": 51.5762,
      "duration": 0.078,
      "velocity": 127,
      "chip": "ym2612"
    },
    {
      "channel": 3,
      "note": 69,
      "start": 51.5783,
      "duration": 0.178,
      "velocity": 97,
      "chip": "ym2612"
    },
    {
      "channel": 4,
      "note": 81,
      "start": 51.5805,
      "duration": 0.1337,
      "velocity": 117,
      "chip": "ym2612"
    },
    {
      "channel": 5,
      "note": 33,
      "start": 51.5826,
      "duration": 0.2519,
      "velocity": 110,
      "chip": "ym2612"
    },
    {
      "channel": 1,
      "note": 93,
      "start": 51.5959,
      "duration": 0.1601,
      "velocity": 117,
      "chip": "ym2612"
    },
    {
      "channel": 2,
      "note": 37,
      "start": 51.6761,
      "duration": 0.0801,
      "velocity": 127,
      "chip": "ym2612"
    },
    {
      "channel": 0,
      "note": 69,
      "start": 51.7559,
      "duration": 0.1581,
      "velocity": 97,
      "chip": "ym2612"
    },
    {
      "channel": 4,
      "note": 93,
      "start": 51.7585,
      "duration": 0.0759,
      "velocity": 117,
      "chip": "ym2612"
    },
    {
      "channel": 1,
      "note": 105,
      "start": 51.7759,
      "duration": 0.0781,
      "velocity": 117,
      "chip": "ym2612"
    },
    {
      "channel": 2,
      "note": 35,
      "start": 51.7781,
      "duration": 0.056,
      "velocity": 127,
      "chip": "ym2612"
    },
    {
      "channel": 1,
      "note": 86,
      "start": 51.8562,
      "duration": 0.1378,
      "velocity": 117,
      "chip": "ym2612"
    },
    {
      "channel": 2,
      "note": 27,
      "start": 51.859,
      "duration": 0.1351,
      "velocity": 93,
      "chip": "ym2612"
    },
    {
      "channel": 3,
      "note": 71,
      "start": 51.8613,
      "duration": 0.1929,
      "velocity": 97,
      "chip": "ym2612"
    },
    {
      "channel": 4,
      "note": 89,
      "start": 51.8636,
      "duration": 0.1309,
      "velocity": 117,
      "chip": "ym2612"
    },
    {
      "channel": 5,
      "note": 35,
      "start": 51.8658,
      "duration": 0.2487,
      "velocity": 110,
      "chip": "ym2612"
    },
    {
      "channel": 0,
      "note": 71,
      "start": 52.0359,
      "duration": 0.178,
      "velocity": 97,
      "chip": "ym2612"
    },
    {
      "channel": 1,
      "note": 87,
      "start": 52.038,
      "duration": 0.096,
      "velocity": 117,
      "chip": "ym2612"
    },
    {
      "channel": 2,
      "note": 49,
      "start": 52.0406,
      "duration": 0.0735,
      "velocity": 123,
      "chip": "ym2612"
    },
    {
      "channel": 4,
      "note": 90,
      "start": 52.0428,
      "duration": 0.0716,
      "velocity": 117,
      "chip": "ym2612"
    },
    {
      "channel": 2,
      "note": 37,
      "start": 52.1366,
      "duration": 0.1575,
      "velocity": 127,
      "chip": "ym2612"
    },
    {
      "channel": 4,
      "note": 83,
      "start": 52.1388,
      "duration": 0.1576,
      "velocity": 117,
      "chip": "ym2612"
    },
    {
      "channel": 5,
      "note": 38,
      "start": 52.1409,
      "duration": 0.2558,
      "velocity": 110,
      "chip": "ym2612"
    },
    {
      "channel": 3,
      "note": 74,
      "start": 52.2962,
      "duration": 0.078,
      "velocity": 97,
      "chip": "ym2612"
    },
    {
      "channel": 1,
      "note": 86,
      "start": 52.3159,
      "duration": 0.0781,
      "velocity": 117,
      "chip": "ym2612"
    },
    {
      "channel": 2,
      "note": 49,
      "start": 52.3181,
      "duration": 0.0761,
      "velocity": 127,
      "chip": "ym2612"
    },
    {
      "channel": 4,
      "note": 89,
      "start": 52.3203,
      "duration": 0.0762,
      "velocity": 117,
      "chip": "ym2612"
    },
    {
      "channel": 3,
      "note": 75,
      "start": 52.3963,
      "duration": 0.138,
      "velocity": 97,
      "chip": "ym2612"
    },
    {
      "channel": 1,
      "note": 87,
      "start": 52.4359,
      "duration": 0.1401,
      "velocity": 117,
      "chip": "ym2612"
    },
    {
      "channel": 2,
      "note": 27,
      "start": 52.439,
      "duration": 0.1371,
      "velocity": 93,
      "chip": "ym2612"
    },
    {
      "channel": 4,
      "note": 90,
      "start": 52.4413,
      "duration": 0.1351,
      "velocity": 117,
      "chip": "ym2612"
    },
    {
      "channel": 5,
      "note": 39,
      "start": 52.4434,
      "duration": 0.2332,
      "velocity": 110,
      "chip": "ym2612"
    },
    {
      "channel": 0,
      "note": 74,
      "start": 52.4559,
      "duration": 0.0781,
      "velocity": 97,
      "chip": "ym2612"
    },
    {
      "channel": 0,
      "note": 75,
      "start": 52.5759,
      "duration": 0.1381,
      "velocity": 97,
      "chip": "ym2612"
    },
    {
      "channel": 2,
      "note": 49,
      "start": 52.5965,
      "duration": 0.0776,
      "velocity": 123,
      "chip": "ym2612"
    },
    {
      "channel": 4,
      "note": 83,
      "start": 52.5987,
      "duration": 0.0776,
      "velocity": 117,
      "chip": "ym2612"
    },
    {
      "channel": 3,
      "note": 78,
      "start": 52.6762,
      "duration": 0.158,
      "velocity": 97,
      "chip": "ym2612"
    },
    {
      "channel": 1,
      "note": 86,
      "start": 52.7161,
      "duration": 0.14,
      "velocity": 117,
      "chip": "ym2612"
    },
    {
      "channel": 2,
      "note": 37,
      "start": 52.7187,
      "duration": 0.1375,
      "velocity": 127,
      "chip": "ym2612"
    },
    {
      "channel": 4,
      "note": 89,
      "start": 52.7208,
      "duration": 0.1356,
      "velocity": 117,
      "chip": "ym2612"
    },
    {
      "channel": 5,
      "note": 42,
      "start": 52.7229,
      "duration": 0.2516,
      "velocity": 110,
      "chip": "ym2612"
    },
    {
      "channel": 0,
      "note": 78,
      "start": 52.8559,
      "duration": 0.1381,
      "velocity": 97,
      "chip": "ym2612"
    },
    {
      "channel": 1,
      "note": 87,
      "start": 52.8759,
      "duration": 0.1182,
      "velocity": 117,
      "chip": "ym2612"
    },
    {
      "channel": 2,
      "note": 49,
      "start": 52.8781,
      "duration": 0.096,
      "velocity": 127,
      "chip": "ym2612"
    },
    {
      "channel": 4,
      "note": 90,
      "start": 52.8803,
      "duration": 0.0941,
      "velocity": 117,
      "chip": "ym2612"
    },
    {
      "channel": 2,
      "note": 27,
      "start": 52.9973,
      "duration": 0.1369,
      "velocity": 93,
      "chip": "ym2612"
    },
    {
      "channel": 4,
      "note": 81,
      "start": 52.9994,
      "duration": 0.1349,
      "velocity": 117,
      "chip": "ym2612"
    },
    {
      "channel": 5,
      "note": 33,
      "start": 53.0015,
      "duration": 0.2531,
      "velocity": 110,
      "chip": "ym2612"
    },
    {
      "channel": 1,
      "note": 84,
      "start": 53.1559,
      "duration": 0.0981,
      "velocity": 117,
      "chip": "ym2612"
    },
    {
      "channel": 2,
      "note": 49,
      "start": 53.1585,
      "duration": 0.0957,
      "velocity": 123,
      "chip": "ym2612"
    },
    {
      "channel": 3,
      "note": 69,
      "start": 53.1606,
      "duration": 0.1336,
      "velocity": 97,
      "chip": "ym2612"
    },
    {
      "channel": 4,
      "note": 87,
      "start": 53.1627,
      "duration": 0.0917,
      "velocity": 117,
      "chip": "ym2612"
    },
    {
      "channel": 1,
      "note": 85,
      "start": 53.2759,
      "duration": 0.1381,
      "velocity": 117,
      "chip": "ym2612"
    },
    {
      "channel": 2,
      "note": 37,
      "start": 53.2785,
      "duration": 0.1357,
      "velocity": 127,
      "chip": "ym2612"
    },
    {
      "channel": 4,
      "note": 88,
      "start": 53.2808,
      "duration": 0.1337,
      "velocity": 117,
      "chip": "ym2612"
    },
    {
      "channel": 5,
      "note": 36,
      "start": 53.2829,
      "duration": 0.2518,
      "velocity": 110,
      "chip": "ym2612"
    },
    {
      "channel": 0,
      "note": 69,
      "start": 53.3159,
      "duration": 0.1381,
      "velocity": 97,
      "chip": "ym2612"
    },
    {
      "channel": 2,
      "note": 49,
      "start": 53.4361,
      "duration": 0.0981,
      "velocity": 127,
      "chip": "ym2612"
    },
    {
      "channel": 3,
      "note": 72,
      "start": 53.4382,
      "duration": 0.0961,
      "velocity": 97,
      "chip": "ym2612"
    },
    {
      "channel": 4,
      "note": 81,
      "start": 53.4403,
      "duration": 0.0941,
      "velocity": 117,
      "chip": "ym2612"
    },
    {
      "channel": 1,
      "note": 84,
      "start": 53.5559,
      "duration": 0.1382,
      "velocity": 117,
      "chip": "ym2612"
    },
    {
      "channel": 2,
      "note": 49,
      "start": 53.5587,
      "duration": 0.1355,
      "velocity": 123,
      "chip": "ym2612"
    },
    {
      "channel": 3,
      "note": 73,
      "start": 53.5608,
      "duration": 0.1336,
      "velocity": 97,
      "chip": "ym2612"
    },
    {
      "channel": 4,
      "note": 87,
      "start": 53.5629,
      "duration": 0.1317,
      "velocity": 117,
      "chip": "ym2612"
    },
    {
      "channel": 5,
      "note": 37,
      "start": 53.5651,
      "duration": 0.2496,
      "velocity": 110,
      "chip": "ym2612"
    },
    {
      "channel": 0,
      "note": 72,
      "start": 53.5959,
      "duration": 0.0981,
      "velocity": 97,
      "chip": "ym2612"
    },
    {
      "channel": 0,
      "note": 73,
      "start": 53.7159,
      "duration": 0.1381,
      "velocity": 97,
      "chip": "ym2612"
    },
    {
      "channel": 1,
      "note": 85,
      "start": 53.718,
      "duration": 0.096,
      "velocity": 117,
      "chip": "ym2612"
    },
    {
      "channel": 2,
      "note": 37,
      "start": 53.7206,
      "duration": 0.0936,
      "velocity": 127,
      "chip": "ym2612"
    },
    {
      "channel": 4,
      "note": 88,
      "start": 53.7228,
      "duration": 0.0916,
      "velocity": 117,
      "chip": "ym2612"
    },
    {
      "channel": 1,
      "note": 81,
      "start": 53.8359,
      "duration": 0.1601,
      "velocity": 117,
      "chip": "ym2612"
    },
    {
      "channel": 2,
      "note": 37,
      "start": 53.8382,
      "duration": 0.136,
      "velocity": 127,
      "chip": "ym2612"
    },
    {
      "channel": 3,
      "note": 76,
      "start": 53.8403,
      "duration": 0.134,
      "velocity": 97,
      "chip": "ym2612"
    },
    {
      "channel": 4,
      "note": 81,
      "start": 53.8424,
      "duration": 0.1321,
      "velocity": 117,
      "chip": "ym2612"
    },
    {
      "channel": 5,
      "note": 40,
      "start": 53.8445,
      "duration": 0.25,
      "velocity": 110,
      "chip": "ym2612"
    },
    {
      "channel": 0,
      "note": 76,
      "start": 53.9959,
      "duration": 0.1381,
      "velocity": 97,
      "chip": "ym2612"
    },
    {
      "channel": 2,
      "note": 49,
      "start": 53.9986,
      "duration": 0.0955,
      "velocity": 123,
      "chip": "ym2612"
    },
    {
      "channel": 4,
      "note": 76,
      "start": 54.0008,
      "duration": 0.0935,
      "velocity": 117,
      "chip": "ym2612"
    },
    {
      "channel": 1,
      "note": 79,
      "start": 54.1162,
      "duration": 0.1378,
      "velocity": 117,
      "chip": "ym2612"
    },
    {
      "channel": 2,
      "note": 27,
      "start": 54.1189,
      "duration": 0.1353,
      "velocity": 93,
      "chip": "ym2612"
    },
    {
      "channel": 3,
      "note": 64,
      "start": 54.1212,
      "duration": 0.1332,
      "velocity": 97,
      "chip": "ym2612"
    },
    {
      "channel": 4,
      "note": 82,
      "start": 54.1234,
      "duration": 0.1311,
      "velocity": 117,
      "chip": "ym2612"
    },
    {
      "channel": 5,
      "note": 28,
      "start": 54.1257,
      "duration": 0.249,
      "velocity": 110,
      "chip": "ym2612"
    },
    {
      "channel": 0,
      "note": 64,
      "start": 54.276,
      "duration": 0.138,
      "velocity": 97,
      "chip": "ym2612"
    },
    {
      "channel": 1,
      "note": 80,
      "start": 54.2781,
      "duration": 0.0959,
      "velocity": 117,
      "chip": "ym2612"
    },
    {
      "channel": 2,
      "note": 49,
      "start": 54.2806,
      "duration": 0.0936,
      "velocity": 123,
      "chip": "ym2612"
    },
    {
      "channel": 4,
      "note": 83,
      "start": 54.2829,
      "duration": 0.0916,
      "velocity": 117,
      "chip": "ym2612"
    },
    {
      "channel": 2,
      "note": 37,
      "start": 54.3985,
      "duration": 0.1357,
      "velocity": 127,
      "chip": "ym2612"
    },
    {
      "channel": 4,
      "note": 76,
      "start": 54.4007,
      "duration": 0.1337,
      "velocity": 117,
      "chip": "ym2612"
    },
    {
      "channel": 5,
      "note": 32,
      "start": 54.4028,
      "duration": 0.2519,
      "velocity": 110,
      "chip": "ym2612"
    },
    {
      "channel": 1,
      "note": 79,
      "start": 54.5559,
      "duration": 0.0981,
      "velocity": 117,
      "chip": "ym2612"
    },
    {
      "channel": 2,
      "note": 49,
      "start": 54.5585,
      "duration": 0.0957,
      "velocity": 123,
      "chip": "ym2612"
    },
    {
      "channel": 3,
      "note": 67,
      "start": 54.5606,
      "duration": 0.0937,
      "velocity": 97,
      "chip": "ym2612"
    },
    {
      "channel": 4,
      "note": 82,
      "start": 54.5627,
      "duration": 0.0918,
      "velocity": 117,
      "chip": "ym2612"
    },
    {
      "channel": 1,
      "note": 80,
      "start": 54.6759,
      "duration": 0.1382,
      "velocity": 117,
      "chip": "ym2612"
    },
    {
      "channel": 2,
      "note": 27,
      "start": 54.6785,
      "duration": 0.1357,
      "velocity": 93,
      "chip": "ym2612"
    },
    {
      "channel": 3,
      "note": 68,
      "start": 54.6806,
      "duration": 0.18,
      "velocity": 97,
      "chip": "ym2612"
    },
    {
      "channel": 4,
      "note": 83,
      "start": 54.6827,
      "duration": 0.1318,
      "velocity": 117,
      "chip": "ym2612"
    },
    {
      "channel": 5,
      "note": 35,
      "start": 54.6849,
      "duration": 0.2498,
      "velocity": 110,
      "chip": "ym2612"
    },
    {
      "channel": 0,
      "note": 67,
      "start": 54.7359,
      "duration": 0.0781,
      "velocity": 97,
      "chip": "ym2612"
    },
    {
      "channel": 0,
      "note": 68,
      "start": 54.8559,
      "duration": 0.1581,
      "velocity": 97,
      "chip": "ym2612"
    },
    {
      "channel": 2,
      "note": 49,
      "start": 54.8605,
      "duration": 0.0737,
      "velocity": 123,
      "chip": "ym2612"
    },
    {
      "channel": 4,
      "note": 76,
      "start": 54.8627,
      "duration": 0.0717,
      "velocity": 117,
      "chip": "ym2612"
    },
    {
      "channel": 1,
      "note": 79,
      "start": 54.9559,
      "duration": 0.1381,
      "velocity": 117,
      "chip": "ym2612"
    },
    {
      "channel": 2,
      "note": 37,
      "start": 54.9585,
      "duration": 0.1357,
      "velocity": 127,
      "chip": "ym2612"
    },
    {
      "channel": 3,
      "note": 71,
      "start": 54.9606,
      "duration": 0.1337,
      "velocity": 97,
      "chip": "ym2612"
    },
    {
      "channel": 4,
      "note": 82,
      "start": 54.9627,
      "duration": 0.1318,
      "velocity": 117,
      "chip": "ym2612"
    },
    {
      "channel": 5,
      "note": 35,
      "start": 54.9649,
      "duration": 0.2497,
      "velocity": 110,
      "chip": "ym2612"
    },
    {
      "channel": 0,
      "note": 71,
      "start": 55.1359,
      "duration": 0.1381,
      "velocity": 97,
      "chip": "ym2612"
    },
    {
      "channel": 1,
      "note": 83,
      "start": 55.138,
      "duration": 0.056,
      "velocity": 117,
      "chip": "ym2612"
    },
    {
      "channel": 2,
      "note": 37,
      "start": 55.1401,
      "duration": 0.0741,
      "velocity": 127,
      "chip": "ym2612"
    },
    {
      "channel": 3,
      "note": 73,
      "start": 55.1422,
      "duration": 0.0721,
      "velocity": 97,
      "chip": "ym2612"
    },
    {
      "channel": 4,
      "note": 86,
      "start": 55.1443,
      "duration": 0.052,
      "velocity": 117,
      "chip": "ym2612"
    },
    {
      "channel": 4,
      "note": 76,
      "start": 55.1983,
      "duration": 0.0781,
      "velocity": 117,
      "chip": "ym2612"
    },
    {
      "channel": 2,
      "note": 37,
      "start": 55.2361,
      "duration": 0.1581,
      "velocity": 127,
      "chip": "ym2612"
    },
    {
      "channel": 3,
      "note": 64,
      "start": 55.2382,
      "duration": 0.1821,
      "velocity": 97,
      "chip": "ym2612"
    },
    {
      "channel": 5,
      "note": 28,
      "start": 55.2404,
      "duration": 0.1541,
      "velocity": 110,
      "chip": "ym2612"
    },
    {
      "channel": 1,
      "note": 83,
      "start": 55.2761,
      "duration": 0.0579,
      "velocity": 117,
      "chip": "ym2612"
    },
    {
      "channel": 4,
      "note": 86,
      "start": 55.2785,
      "duration": 0.0578,
      "velocity": 117,
      "chip": "ym2612"
    },
    {
      "channel": 0,
      "note": 73,
      "start": 55.2959,
      "duration": 0.0981,
      "velocity": 97,
      "chip": "ym2612"
    },
    {
      "channel": 4,
      "note": 76,
      "start": 55.3383,
      "duration": 0.082,
      "velocity": 117,
      "chip": "ym2612"
    },
    {
      "channel": 0,
      "note": 64,
      "start": 55.4159,
      "duration": 0.1581,
      "velocity": 97,
      "chip": "ym2612"
    },
    {
      "channel": 1,
      "note": 83,
      "start": 55.418,
      "duration": 0.056,
      "velocity": 117,
      "chip": "ym2612"
    },
    {
      "channel": 4,
      "note": 86,
      "start": 55.4224,
      "duration": 0.0538,
      "velocity": 117,
      "chip": "ym2612"
    },
    {
      "channel": 5,
      "note": 28,
      "start": 55.4245,
      "duration": 0.0698,
      "velocity": 110,
      "chip": "ym2612"
    },
    {
      "channel": 4,
      "note": 76,
      "start": 55.4783,
      "duration": 0.058,
      "velocity": 117,
      "chip": "ym2612"
    },
    {
      "channel": 1,
      "note": 81,
      "start": 55.536,
      "duration": 0.138,
      "velocity": 117,
      "chip": "ym2612"
    },
    {
      "channel": 4,
      "note": 85,
      "start": 55.5384,
      "duration": 0.136,
      "velocity": 117,
      "chip": "ym2612"
    },
    {
      "channel": 5,
      "note": 23,
      "start": 55.5405,
      "duration": 0.1738,
      "velocity": 110,
      "chip": "ym2612"
    },
    {
      "channel": 4,
      "note": 76,
      "start": 55.6982,
      "duration": 0.0762,
      "velocity": 117,
      "chip": "ym2612"
    },
    {
      "channel": 1,
      "note": 79,
      "start": 55.8159,
      "duration": 0.1381,
      "velocity": 117,
      "chip": "ym2612"
    },
    {
      "channel": 4,
      "note": 82,
      "start": 55.8183,
      "duration": 0.1361,
      "velocity": 117,
      "chip": "ym2612"
    },
    {
      "channel": 5,
      "note": 25,
      "start": 55.8204,
      "duration": 0.1739,
      "velocity": 110,
      "chip": "ym2612"
    },
    {
      "channel": 1,
      "note": 80,
      "start": 55.9759,
      "duration": 0.1181,
      "velocity": 117,
      "chip": "ym2612"
    },
    {
      "channel": 2,
      "note": 37,
      "start": 55.9782,
      "duration": 0.096,
      "velocity": 127,
      "chip": "ym2612"
    },
    {
      "channel": 4,
      "note": 83,
      "start": 55.9804,
      "duration": 0.116,
      "velocity": 117,
      "chip": "ym2612"
    },
    {
      "channel": 2,
      "note": 37,
      "start": 56.0962,
      "duration": 0.138,
      "velocity": 127,
      "chip": "ym2612"
    },
    {
      "channel": 5,
      "note": 27,
      "start": 56.0986,
      "duration": 0.1757,
      "velocity": 110,
      "chip": "ym2612"
    },
    {
      "channel": 2,
      "note": 49,
      "start": 56.2585,
      "duration": 0.0957,
      "velocity": 123,
      "chip": "ym2612"
    },
    {
      "channel": 4,
      "note": 76,
      "start": 56.2607,
      "duration": 0.0937,
      "velocity": 117,
      "chip": "ym2612"
    },
    {
      "channel": 1,
      "note": 91,
      "start": 56.3762,
      "duration": 0.1378,
      "velocity": 117,
      "chip": "ym2612"
    },
    {
      "channel": 2,
      "note": 27,
      "start": 56.3792,
      "duration": 0.135,
      "velocity": 93,
      "chip": "ym2612"
    },
    {
      "channel": 3,
      "note": 64,
      "start": 56.3816,
      "duration": 0.1726,
      "velocity": 97,
      "chip": "ym2612"
    },
    {
      "channel": 4,
      "note": 94,
      "start": 56.384,
      "duration": 0.1304,
      "velocity": 117,
      "chip": "ym2612"
    },
    {
      "channel": 5,
      "note": 28,
      "start": 56.3864,
      "duration": 0.2483,
      "velocity": 110,
      "chip": "ym2612"
    },
    {
      "channel": 0,
      "note": 64,
      "start": 56.5362,
      "duration": 0.1156,
      "velocity": 97,
      "chip": "ym2612"
    },
    {
      "channel": 1,
      "note": 92,
      "start": 56.5383,
      "duration": 0.0957,
      "velocity": 117,
      "chip": "ym2612"
    },
    {
      "channel": 2,
      "note": 49,
      "start": 56.5408,
      "duration": 0.0934,
      "velocity": 123,
      "chip": "ym2612"
    },
    {
      "channel": 4,
      "note": 95,
      "start": 56.5431,
      "duration": 0.0914,
      "velocity": 117,
      "chip": "ym2612"
    }
  ]
}