{
  "track_name": "11 - Bombing Attack",
  "duration_sec": 35.748,
  "sample_rate": 44100,
  "note_count": 487,
  "unique_pitches": 34,
  "pitch_range": 60,
  "avg_note_duration": 0.0326,
  "reconstruction_stats": {
    "notes_reconstructed": 487,
    "keyon_events": 487,
    "keyoff_events": 487,
    "orphan_keyons": 0,
    "unique_pitches": 34,
    "pitch_range": 60,
    "avg_duration_sec": 0.0326
  },
  "metadata": {
    "source": "H\\High Seas Havoc\\11 - Bombing Attack.vgz"
  },
  "notes": [
    {
      "channel": 0,
      "note": 32,
      "start": 0.4006,
      "duration": 0.1899,
      "velocity": 97,
      "chip": "ym2612"
    },
    {
      "channel": 1,
      "note": 35,
      "start": 0.4008,
      "duration": 0.1899,
      "velocity": 97,
      "chip": "ym2612"
    },
    {
      "channel": 2,
      "note": 38,
      "start": 0.4011,
      "duration": 0.3597,
      "velocity": 97,
      "chip": "ym2612"
    },
    {
      "channel": 3,
      "note": 41,
      "start": 0.4014,
      "duration": 0.3595,
      "velocity": 97,
      "chip": "ym2612"
    },
    {
      "channel": 4,
      "note": 32,
      "start": 0.4016,
      "duration": 0.1898,
      "velocity": 94,
      "chip": "ym2612"
    },
    {
      "channel": 4,
      "note": 56,
      "start": 0.5972,
      "duration": 0.0082,
      "velocity": 94,
      "chip": "ym2612"
    },
    {
      "channel": 4,
      "note": 62,
      "start": 0.6083,
      "duration": 0.0075,
      "velocity": 94,
      "chip": "ym2612"
    },
    {
      "channel": 4,
      "note": 56,
      "start": 0.6187,
      "duration": 0.0066,
      "velocity": 94,
      "chip": "ym2612"
    },
    {
      "channel": 4,
      "note": 62,
      "start": 0.6299,
      "duration": 0.0081,
      "velocity": 94,
      "chip": "ym2612"
    },
    {
      "channel": 4,
      "note": 56,
      "start": 0.6429,
      "duration": 0.0072,
      "velocity": 94,
      "chip": "ym2612"
    },
    {
      "channel": 4,
      "note": 65,
      "start": 0.6531,
      "duration": 0.0059,
      "velocity": 94,
      "chip": "ym2612"
    },
    {
      "channel": 4,
      "note": 68,
      "start": 0.6716,
      "duration": 0.0073,
      "velocity": 94,
      "chip": "ym2612"
    },
    {
      "channel": 4,
      "note": 56,
      "start": 0.6833,
      "duration": 0.0081,
      "velocity": 94,
      "chip": "ym2612"
    },
    {
      "channel": 4,
      "note": 65,
      "start": 0.694,
      "duration": 0.0071,
      "velocity": 94,
      "chip": "ym2612"
    },
    {
      "channel": 4,
      "note": 56,
      "start": 0.7046,
      "duration": 0.0079,
      "velocity": 94,
      "chip": "ym2612"
    },
    {
      "channel": 4,
      "note": 62,
      "start": 0.7155,
      "duration": 0.0067,
      "velocity": 94,
      "chip": "ym2612"
    },
    {
      "channel": 4,
      "note": 56,
      "start": 0.7267,
      "duration": 0.007,
      "velocity": 94,
      "chip": "ym2612"
    },
    {
      "channel": 4,
      "note": 62,
      "start": 0.7362,
      "duration": 0.006,
      "velocity": 94,
      "chip": "ym2612"
    },
    {
      "channel": 4,
      "note": 56,
      "start": 0.7447,
      "duration": 0.0067,
      "velocity": 94,
      "chip": "ym2612"
    },
    {
      "channel": 4,
      "note": 56,
      "start": 0.7565,
      "duration": 0.0085,
      "velocity": 94,
      "chip": "ym2612"
    },
    {
      "channel": 4,
      "note": 56,
      "start": 0.7699,
      "duration": 0.008,
      "velocity": 94,
      "chip": "ym2612"
    },
    {
      "channel": 4,
      "note": 62,
      "start": 0.7829,
      "duration": 0.0078,
      "velocity": 94,
      "chip": "ym2612"
    },
    {
      "channel": 4,
      "note": 56,
      "start": 0.7937,
      "duration": 0.0054,
      "velocity": 94,
      "chip": "ym2612"
    },
    {
      "channel": 4,
      "note": 62,
      "start": 0.8049,
      "duration": 0.0069,
      "velocity": 94,
      "chip": "ym2612"
    },
    {
      "channel": 4,
      "note": 56,
      "start": 0.8181,
      "duration": 0.006,
      "velocity": 94,
      "chip": "ym2612"
    },
    {
      "channel": 4,
      "note": 65,
      "start": 0.8278,
      "duration": 0.0049,
      "velocity": 94,
      "chip": "ym2612"
    },
    {
      "channel": 4,
      "note": 68,
      "start": 0.8464,
      "duration": 0.006,
      "velocity": 94,
      "chip": "ym2612"
    },
    {
      "channel": 4,
      "note": 56,
      "start": 0.858,
      "duration": 0.0072,
      "velocity": 94,
      "chip": "ym2612"
    },
    {
      "channel": 4,
      "note": 65,
      "start": 0.8692,
      "duration": 0.0054,
      "velocity": 94,
      "chip": "ym2612"
    },
    {
      "channel": 4,
      "note": 56,
      "start": 0.8791,
      "duration": 0.0069,
      "velocity": 94,
      "chip": "ym2612"
    },
    {
      "channel": 4,
      "note": 62,
      "start": 0.89,
      "duration": 0.0056,
      "velocity": 94,
      "chip": "ym2612"
    },
    {
      "channel": 4,
      "note": 56,
      "start": 0.9006,
      "duration": 0.007,
      "velocity": 94,
      "chip": "ym2612"
    },
    {
      "channel": 4,
      "note": 62,
      "start": 0.9106,
      "duration": 0.0059,
      "velocity": 94,
      "chip": "ym2612"
    },
    {
      "channel": 4,
      "note": 56,
      "start": 0.919,
      "duration": 0.0069,
      "velocity": 94,
      "chip": "ym2612"
    },
    {
      "channel": 4,
      "note": 56,
      "start": 0.931,
      "duration": 0.0082,
      "velocity": 94,
      "chip": "ym2612"
    },
    {
      "channel": 4,
      "note": 62,
      "start": 0.9441,
      "duration": 0.0092,
      "velocity": 94,
      "chip": "ym2612"
    },
    {
      "channel": 4,
      "note": 68,
      "start": 0.9575,
      "duration": 0.0093,
      "velocity": 94,
      "chip": "ym2612"
    },
    {
      "channel": 4,
      "note": 62,
      "start": 0.97,
      "duration": 0.0072,
      "velocity": 94,
      "chip": "ym2612"
    },
    {
      "channel": 4,
      "note": 68,
      "start": 0.9812,
      "duration": 0.0093,
      "velocity": 94,
      "chip": "ym2612"
    },
    {
      "channel": 4,
      "note": 62,
      "start": 0.9946,
      "duration": 0.0081,
      "velocity": 94,
      "chip": "ym2612"
    },
    {
      "channel": 4,
      "note": 71,
      "start": 1.0059,
      "duration": 0.0066,
      "velocity": 94,
      "chip": "ym2612"
    },
    {
      "channel": 4,
      "note": 74,
      "start": 1.0261,
      "duration": 0.0078,
      "velocity": 94,
      "chip": "ym2612"
    },
    {
      "channel": 4,
      "note": 62,
      "start": 1.039,
      "duration": 0.0094,
      "velocity": 94,
      "chip": "ym2612"
    },
    {
      "channel": 4,
      "note": 71,
      "start": 1.0516,
      "duration": 0.0073,
      "velocity": 94,
      "chip": "ym2612"
    },
    {
      "channel": 4,
      "note": 62,
      "start": 1.0628,
      "duration": 0.0094,
      "velocity": 94,
      "chip": "ym2612"
    },
    {
      "channel": 4,
      "note": 68,
      "start": 1.075,
      "duration": 0.0072,
      "velocity": 94,
      "chip": "ym2612"
    },
    {
      "channel": 4,
      "note": 62,
      "start": 1.0861,
      "duration": 0.0086,
      "velocity": 94,
      "chip": "ym2612"
    },
    {
      "channel": 4,
      "note": 68,
      "start": 1.0975,
      "duration": 0.0066,
      "velocity": 94,
      "chip": "ym2612"
    },
    {
      "channel": 4,
      "note": 62,
      "start": 1.1087,
      "duration": 0.0091,
      "velocity": 94,
      "chip": "ym2612"
    },
    {
      "channel": 4,
      "note": 62,
      "start": 1.1221,
      "duration": 0.0084,
      "velocity": 94,
      "chip": "ym2612"
    },
    {
      "channel": 4,
      "note": 62,
      "start": 1.1355,
      "duration": 0.008,
      "velocity": 94,
      "chip": "ym2612"
    },
    {
      "channel": 4,
      "note": 68,
      "start": 1.1489,
      "duration": 0.0081,
      "velocity": 94,
      "chip": "ym2612"
    },
    {
      "channel": 4,
      "note": 62,
      "start": 1.1614,
      "duration": 0.0061,
      "velocity": 94,
      "chip": "ym2612"
    },
    {
      "channel": 4,
      "note": 68,
      "start": 1.1726,
      "duration": 0.0081,
      "velocity": 94,
      "chip": "ym2612"
    },
    {
      "channel": 4,
      "note": 62,
      "start": 1.186,
      "duration": 0.0069,
      "velocity": 94,
      "chip": "ym2612"
    },
    {
      "channel": 4,
      "note": 71,
      "start": 1.1969,
      "duration": 0.0057,
      "velocity": 94,
      "chip": "ym2612"
    },
    {
      "channel": 4,
      "note": 74,
      "start": 1.2175,
      "duration": 0.0069,
      "velocity": 94,
      "chip": "ym2612"
    },
    {
      "channel": 4,
      "note": 62,
      "start": 1.2319,
      "duration": 0.008,
      "velocity": 94,
      "chip": "ym2612"
    },
    {
      "channel": 4,
      "note": 71,
      "start": 1.2431,
      "duration": 0.0073,
      "velocity": 94,
      "chip": "ym2612"
    },
    {
      "channel": 4,
      "note": 62,
      "start": 1.2536,
      "duration": 0.0086,
      "velocity": 94,
      "chip": "ym2612"
    },
    {
      "channel": 4,
      "note": 68,
      "start": 1.265,
      "duration": 0.0074,
      "velocity": 94,
      "chip": "ym2612"
    },
    {
      "channel": 4,
      "note": 62,
      "start": 1.2763,
      "duration": 0.008,
      "velocity": 94,
      "chip": "ym2612"
    },
    {
      "channel": 4,
      "note": 68,
      "start": 1.2874,
      "duration": 0.0066,
      "velocity": 94,
      "chip": "ym2612"
    },
    {
      "channel": 4,
      "note": 62,
      "start": 1.2986,
      "duration": 0.007,
      "velocity": 94,
      "chip": "ym2612"
    },
    {
      "channel": 4,
      "note": 62,
      "start": 1.3088,
      "duration": 0.0077,
      "velocity": 94,
      "chip": "ym2612"
    },
    {
      "channel": 0,
      "note": 83,
      "start": 1.3197,
      "duration": 0.0091,
      "velocity": 97,
      "chip": "ym2612"
    },
    {
      "channel": 2,
      "note": 62,
      "start": 1.3202,
      "duration": 0.0559,
      "velocity": 102,
      "chip": "ym2612"
    },
    {
      "channel": 3,
      "note": 56,
      "start": 1.3206,
      "duration": 0.0556,
      "velocity": 102,
      "chip": "ym2612"
    },
    {
      "channel": 4,
      "note": 56,
      "start": 1.321,
      "duration": 0.0082,
      "velocity": 94,
      "chip": "ym2612"
    },
    {
      "channel": 0,
      "note": 80,
      "start": 1.333,
      "duration": 0.0083,
      "velocity": 97,
      "chip": "ym2612"
    },
    {
      "channel": 4,
      "note": 62,
      "start": 1.3334,
      "duration": 0.0082,
      "velocity": 94,
      "chip": "ym2612"
    },
    {
      "channel": 0,
      "note": 81,
      "start": 1.3444,
      "duration": 0.0068,
      "velocity": 97,
      "chip": "ym2612"
    },
    {
      "channel": 4,
      "note": 56,
      "start": 1.3448,
      "duration": 0.0066,
      "velocity": 94,
      "chip": "ym2612"
    },
    {
      "channel": 0,
      "note": 82,
      "start": 1.3553,
      "duration": 0.0084,
      "velocity": 97,
      "chip": "ym2612"
    },
    {
      "channel": 4,
      "note": 62,
      "start": 1.3557,
      "duration": 0.0083,
      "velocity": 94,
      "chip": "ym2612"
    },
    {
      "channel": 0,
      "note": 83,
      "start": 1.3685,
      "duration": 0.0074,
      "velocity": 97,
      "chip": "ym2612"
    },
    {
      "channel": 4,
      "note": 56,
      "start": 1.369,
      "duration": 0.0074,
      "velocity": 94,
      "chip": "ym2612"
    },
    {
      "channel": 0,
      "note": 82,
      "start": 1.3788,
      "duration": 0.0064,
      "velocity": 97,
      "chip": "ym2612"
    },
    {
      "channel": 4,
      "note": 65,
      "start": 1.3792,
      "duration": 0.0063,
      "velocity": 94,
      "chip": "ym2612"
    },
    {
      "channel": 0,
      "note": 81,
      "start": 1.3879,
      "duration": 0.0067,
      "velocity": 97,
      "chip": "ym2612"
    },
    {
      "channel": 2,
      "note": 68,
      "start": 1.3883,
      "duration": 0.089,
      "velocity": 102,
      "chip": "ym2612"
    },
    {
      "channel": 3,
      "note": 62,
      "start": 1.3885,
      "duration": 0.0888,
      "velocity": 102,
      "chip": "ym2612"
    },
    {
      "channel": 0,
      "note": 80,
      "start": 1.3973,
      "duration": 0.2685,
      "velocity": 97,
      "chip": "ym2612"
    },
    {
      "channel": 4,
      "note": 68,
      "start": 1.3978,
      "duration": 0.007,
      "velocity": 94,
      "chip": "ym2612"
    },
    {
      "channel": 1,
      "note": 77,
      "start": 1.4075,
      "duration": 0.0087,
      "velocity": 92,
      "chip": "ym2612"
    },
    {
      "channel": 4,
      "note": 56,
      "start": 1.4082,
      "duration": 0.0083,
      "velocity": 94,
      "chip": "ym2612"
    },
    {
      "channel": 1,
      "note": 74,
      "start": 1.4191,
      "duration": 0.0069,
      "velocity": 92,
      "chip": "ym2612"
    },
    {
      "channel": 4,
      "note": 65,
      "start": 1.4195,
      "duration": 0.0068,
      "velocity": 94,
      "chip": "ym2612"
    },
    {
      "channel": 1,
      "note": 75,
      "start": 1.4298,
      "duration": 0.0083,
      "velocity": 92,
      "chip": "ym2612"
    },
    {
      "channel": 4,
      "note": 56,
      "start": 1.4301,
      "duration": 0.0081,
      "velocity": 94,
      "chip": "ym2612"
    },
    {
      "channel": 1,
      "note": 76,
      "start": 1.441,
      "duration": 0.0068,
      "velocity": 92,
      "chip": "ym2612"
    },
    {
      "channel": 4,
      "note": 62,
      "start": 1.4414,
      "duration": 0.0067,
      "velocity": 94,
      "chip": "ym2612"
    },
    {
      "channel": 1,
      "note": 77,
      "start": 1.4521,
      "duration": 0.0063,
      "velocity": 92,
      "chip": "ym2612"
    },
    {
      "channel": 4,
      "note": 56,
      "start": 1.4524,
      "duration": 0.0062,
      "velocity": 94,
      "chip": "ym2612"
    },
    {
      "channel": 1,
      "note": 76,
      "start": 1.4622,
      "duration": 0.0053,
      "velocity": 92,
      "chip": "ym2612"
    },
    {
      "channel": 4,
      "note": 62,
      "start": 1.4625,
      "duration": 0.0051,
      "velocity": 94,
      "chip": "ym2612"
    },
    {
      "channel": 1,
      "note": 75,
      "start": 1.4712,
      "duration": 0.006,
      "velocity": 92,
      "chip": "ym2612"
    },
    {
      "channel": 4,
      "note": 56,
      "start": 1.4716,
      "duration": 0.0059,
      "velocity": 94,
      "chip": "ym2612"
    },
    {
      "channel": 1,
      "note": 74,
      "start": 1.4835,
      "duration": 0.1824,
      "velocity": 92,
      "chip": "ym2612"
    },
    {
      "channel": 4,
      "note": 56,
      "start": 1.4839,
      "duration": 0.007,
      "velocity": 94,
      "chip": "ym2612"
    },
    {
      "channel": 4,
      "note": 56,
      "start": 1.4976,
      "duration": 0.0068,
      "velocity": 94,
      "chip": "ym2612"
    },
    {
      "channel": 4,
      "note": 62,
      "start": 1.51,
      "duration": 0.0067,
      "velocity": 94,
      "chip": "ym2612"
    },
    {
      "channel": 2,
      "note": 74,
      "start": 1.5207,
      "duration": 0.0034,
      "velocity": 102,
      "chip": "ym2612"
    },
    {
      "channel": 3,
      "note": 68,
      "start": 1.521,
      "duration": 0.0032,
      "velocity": 102,
      "chip": "ym2612"
    },
    {
      "channel": 4,
      "note": 56,
      "start": 1.5212,
      "duration": 0.006,
      "velocity": 94,
      "chip": "ym2612"
    },
    {
      "channel": 4,
      "note": 62,
      "start": 1.5323,
      "duration": 0.007,
      "velocity": 94,
      "chip": "ym2612"
    },
    {
      "channel": 2,
      "note": 74,
      "start": 1.5453,
      "duration": 0.0039,
      "velocity": 102,
      "chip": "ym2612"
    },
    {
      "channel": 3,
      "note": 68,
      "start": 1.5455,
      "duration": 0.0037,
      "velocity": 102,
      "chip": "ym2612"
    },
    {
      "channel": 4,
      "note": 56,
      "start": 1.5458,
      "duration": 0.0061,
      "velocity": 94,
      "chip": "ym2612"
    },
    {
      "channel": 2,
      "note": 71,
      "start": 1.5553,
      "duration": 0.0029,
      "velocity": 102,
      "chip": "ym2612"
    },
    {
      "channel": 3,
      "note": 68,
      "start": 1.5556,
      "duration": 0.0028,
      "velocity": 102,
      "chip": "ym2612"
    },
    {
      "channel": 4,
      "note": 65,
      "start": 1.5558,
      "duration": 0.005,
      "velocity": 94,
      "chip": "ym2612"
    },
    {
      "channel": 2,
      "note": 74,
      "start": 1.5721,
      "duration": 0.0052,
      "velocity": 102,
      "chip": "ym2612"
    },
    {
      "channel": 3,
      "note": 68,
      "start": 1.5724,
      "duration": 0.0051,
      "velocity": 102,
      "chip": "ym2612"
    },
    {
      "channel": 4,
      "note": 68,
      "start": 1.5726,
      "duration": 0.0073,
      "velocity": 94,
      "chip": "ym2612"
    },
    {
      "channel": 2,
      "note": 74,
      "start": 1.5823,
      "duration": 0.0056,
      "velocity": 102,
      "chip": "ym2612"
    },
    {
      "channel": 3,
      "note": 68,
      "start": 1.5826,
      "duration": 0.0055,
      "velocity": 102,
      "chip": "ym2612"
    },
    {
      "channel": 4,
      "note": 56,
      "start": 1.5828,
      "duration": 0.0079,
      "velocity": 94,
      "chip": "ym2612"
    },
    {
      "channel": 4,
      "note": 65,
      "start": 1.5936,
      "duration": 0.0067,
      "velocity": 94,
      "chip": "ym2612"
    },
    {
      "channel": 2,
      "note": 74,
      "start": 1.6041,
      "duration": 0.0058,
      "velocity": 102,
      "chip": "ym2612"
    },
    {
      "channel": 3,
      "note": 68,
      "start": 1.6044,
      "duration": 0.0056,
      "velocity": 102,
      "chip": "ym2612"
    },
    {
      "channel": 4,
      "note": 56,
      "start": 1.6046,
      "duration": 0.0083,
      "velocity": 94,
      "chip": "ym2612"
    },
    {
      "channel": 2,
      "note": 74,
      "start": 1.6154,
      "duration": 0.0044,
      "velocity": 102,
      "chip": "ym2612"
    },
    {
      "channel": 3,
      "note": 68,
      "start": 1.6157,
      "duration": 0.0042,
      "velocity": 102,
      "chip": "ym2612"
    },
    {
      "channel": 4,
      "note": 62,
      "start": 1.6159,
      "duration": 0.0068,
      "velocity": 94,
      "chip": "ym2612"
    },
    {
      "channel": 4,
      "note": 56,
      "start": 1.6263,
      "duration": 0.0076,
      "velocity": 94,
      "chip": "ym2612"
    },
    {
      "channel": 2,
      "note": 71,
      "start": 1.6363,
      "duration": 0.004,
      "velocity": 102,
      "chip": "ym2612"
    },
    {
      "channel": 3,
      "note": 68,
      "start": 1.6365,
      "duration": 0.0039,
      "velocity": 102,
      "chip": "ym2612"
    },
    {
      "channel": 4,
      "note": 62,
      "start": 1.6368,
      "duration": 0.0061,
      "velocity": 94,
      "chip": "ym2612"
    },
    {
      "channel": 4,
      "note": 56,
      "start": 1.6458,
      "duration": 0.0066,
      "velocity": 94,
      "chip": "ym2612"
    },
    {
      "channel": 2,
      "note": 74,
      "start": 1.6573,
      "duration": 0.0058,
      "velocity": 102,
      "chip": "ym2612"
    },
    {
      "channel": 3,
      "note": 68,
      "start": 1.6576,
      "duration": 0.0056,
      "velocity": 102,
      "chip": "ym2612"
    },
    {
      "channel": 4,
      "note": 56,
      "start": 1.6578,
      "duration": 0.0084,
      "velocity": 94,
      "chip": "ym2612"
    },
    {
      "channel": 0,
      "note": 86,
      "start": 1.6705,
      "duration": 0.0101,
      "velocity": 97,
      "chip": "ym2612"
    },
    {
      "channel": 2,
      "note": 65,
      "start": 1.671,
      "duration": 0.0582,
      "velocity": 102,
      "chip": "ym2612"
    },
    {
      "channel": 3,
      "note": 59,
      "start": 1.6714,
      "duration": 0.0579,
      "velocity": 102,
      "chip": "ym2612"
    },
    {
      "channel": 4,
      "note": 62,
      "start": 1.6717,
      "duration": 0.0093,
      "velocity": 94,
      "chip": "ym2612"
    },
    {
      "channel": 0,
      "note": 83,
      "start": 1.6836,
      "duration": 0.0094,
      "velocity": 97,
      "chip": "ym2612"
    },
    {
      "channel": 4,
      "note": 68,
      "start": 1.684,
      "duration": 0.0093,
      "velocity": 94,
      "chip": "ym2612"
    },
    {
      "channel": 0,
      "note": 84,
      "start": 1.6962,
      "duration": 0.0075,
      "velocity": 97,
      "chip": "ym2612"
    },
    {
      "channel": 4,
      "note": 62,
      "start": 1.6967,
      "duration": 0.0073,
      "velocity": 94,
      "chip": "ym2612"
    },
    {
      "channel": 0,
      "note": 85,
      "start": 1.7072,
      "duration": 0.0096,
      "velocity": 97,
      "chip": "ym2612"
    },
    {
      "channel": 4,
      "note": 68,
      "start": 1.7077,
      "duration": 0.0094,
      "velocity": 94,
      "chip": "ym2612"
    },
    {
      "channel": 0,
      "note": 86,
      "start": 1.7208,
      "duration": 0.0083,
      "velocity": 97,
      "chip": "ym2612"
    },
    {
      "channel": 4,
      "note": 62,
      "start": 1.7212,
      "duration": 0.0082,
      "velocity": 94,
      "chip": "ym2612"
    },
    {
      "channel": 0,
      "note": 85,
      "start": 1.7319,
      "duration": 0.0068,
      "velocity": 97,
      "chip": "ym2612"
    },
    {
      "channel": 4,
      "note": 71,
      "start": 1.7323,
      "duration": 0.0066,
      "velocity": 94,
      "chip": "ym2612"
    },
    {
      "channel": 0,
      "note": 84,
      "start": 1.7416,
      "duration": 0.0072,
      "velocity": 97,
      "chip": "ym2612"
    },
    {
      "channel": 2,
      "note": 71,
      "start": 1.742,
      "duration": 0.1005,
      "velocity": 102,
      "chip": "ym2612"
    },
    {
      "channel": 3,
      "note": 65,
      "start": 1.7422,
      "duration": 0.1003,
      "velocity": 102,
      "chip": "ym2612"
    },
    {
      "channel": 0,
      "note": 83,
      "start": 1.7518,
      "duration": 0.2898,
      "velocity": 97,
      "chip": "ym2612"
    },
    {
      "channel": 4,
      "note": 74,
      "start": 1.7522,
      "duration": 0.0082,
      "velocity": 94,
      "chip": "ym2612"
    },
    {
      "channel": 1,
      "note": 80,
      "start": 1.765,
      "duration": 0.0099,
      "velocity": 92,
      "chip": "ym2612"
    },
    {
      "channel": 4,
      "note": 62,
      "start": 1.7657,
      "duration": 0.0094,
      "velocity": 94,
      "chip": "ym2612"
    },
    {
      "channel": 1,
      "note": 77,
      "start": 1.7778,
      "duration": 0.0062,
      "velocity": 92,
      "chip": "ym2612"
    },
    {
      "channel": 4,
      "note": 71,
      "start": 1.7782,
      "duration": 0.0061,
      "velocity": 94,
      "chip": "ym2612"
    },
    {
      "channel": 1,
      "note": 78,
      "start": 1.7883,
      "duration": 0.008,
      "velocity": 92,
      "chip": "ym2612"
    },
    {
      "channel": 4,
      "note": 62,
      "start": 1.7886,
      "duration": 0.0078,
      "velocity": 94,
      "chip": "ym2612"
    },
    {
      "channel": 1,
      "note": 79,
      "start": 1.8007,
      "duration": 0.0059,
      "velocity": 92,
      "chip": "ym2612"
    },
    {
      "channel": 4,
      "note": 68,
      "start": 1.8011,
      "duration": 0.0058,
      "velocity": 94,
      "chip": "ym2612"
    },
    {
      "channel": 1,
      "note": 80,
      "start": 1.8114,
      "duration": 0.007,
      "velocity": 92,
      "chip": "ym2612"
    },
    {
      "channel": 4,
      "note": 62,
      "start": 1.8118,
      "duration": 0.0068,
      "velocity": 94,
      "chip": "ym2612"
    },
    {
      "channel": 1,
      "note": 79,
      "start": 1.8226,
      "duration": 0.0059,
      "velocity": 92,
      "chip": "ym2612"
    },
    {
      "channel": 4,
      "note": 68,
      "start": 1.8229,
      "duration": 0.0058,
      "velocity": 94,
      "chip": "ym2612"
    },
    {
      "channel": 1,
      "note": 78,
      "start": 1.834,
      "duration": 0.0083,
      "velocity": 92,
      "chip": "ym2612"
    },
    {
      "channel": 4,
      "note": 62,
      "start": 1.8344,
      "duration": 0.0083,
      "velocity": 94,
      "chip": "ym2612"
    },
    {
      "channel": 1,
      "note": 77,
      "start": 1.8475,
      "duration": 0.1942,
      "velocity": 92,
      "chip": "ym2612"
    },
    {
      "channel": 4,
      "note": 62,
      "start": 1.8479,
      "duration": 0.0081,
      "velocity": 94,
      "chip": "ym2612"
    },
    {
      "channel": 4,
      "note": 62,
      "start": 1.8619,
      "duration": 0.0082,
      "velocity": 94,
      "chip": "ym2612"
    },
    {
      "channel": 4,
      "note": 68,
      "start": 1.8749,
      "duration": 0.0079,
      "velocity": 94,
      "chip": "ym2612"
    },
    {
      "channel": 2,
      "note": 77,
      "start": 1.8873,
      "duration": 0.0035,
      "velocity": 102,
      "chip": "ym2612"
    },
    {
      "channel": 3,
      "note": 71,
      "start": 1.8875,
      "duration": 0.0034,
      "velocity": 102,
      "chip": "ym2612"
    },
    {
      "channel": 4,
      "note": 62,
      "start": 1.8877,
      "duration": 0.0062,
      "velocity": 94,
      "chip": "ym2612"
    },
    {
      "channel": 4,
      "note": 68,
      "start": 1.8985,
      "duration": 0.0081,
      "velocity": 94,
      "chip": "ym2612"
    },
    {
      "channel": 2,
      "note": 77,
      "start": 1.9119,
      "duration": 0.0056,
      "velocity": 102,
      "chip": "ym2612"
    },
    {
      "channel": 3,
      "note": 71,
      "start": 1.9122,
      "duration": 0.0055,
      "velocity": 102,
      "chip": "ym2612"
    },
    {
      "channel": 4,
      "note": 62,
      "start": 1.9124,
      "duration": 0.0079,
      "velocity": 94,
      "chip": "ym2612"
    },
    {
      "channel": 2,
      "note": 74,
      "start": 1.9231,
      "duration": 0.0044,
      "velocity": 102,
      "chip": "ym2612"
    },
    {
      "channel": 3,
      "note": 71,
      "start": 1.9233,
      "duration": 0.0042,
      "velocity": 102,
      "chip": "ym2612"
    },
    {
      "channel": 4,
      "note": 71,
      "start": 1.9236,
      "duration": 0.0069,
      "velocity": 94,
      "chip": "ym2612"
    },
    {
      "channel": 2,
      "note": 77,
      "start": 1.9429,
      "duration": 0.0058,
      "velocity": 102,
      "chip": "ym2612"
    },
    {
      "channel": 3,
      "note": 71,
      "start": 1.9431,
      "duration": 0.0056,
      "velocity": 102,
      "chip": "ym2612"
    },
    {
      "channel": 4,
      "note": 74,
      "start": 1.9433,
      "duration": 0.0083,
      "velocity": 94,
      "chip": "ym2612"
    },
    {
      "channel": 2,
      "note": 77,
      "start": 1.956,
      "duration": 0.0068,
      "velocity": 102,
      "chip": "ym2612"
    },
    {
      "channel": 3,
      "note": 71,
      "start": 1.9563,
      "duration": 0.0067,
      "velocity": 102,
      "chip": "ym2612"
    },
    {
      "channel": 4,
      "note": 62,
      "start": 1.9565,
      "duration": 0.0095,
      "velocity": 94,
      "chip": "ym2612"
    },
    {
      "channel": 4,
      "note": 71,
      "start": 1.9691,
      "duration": 0.0071,
      "velocity": 94,
      "chip": "ym2612"
    },
    {
      "channel": 2,
      "note": 77,
      "start": 1.9793,
      "duration": 0.0066,
      "velocity": 102,
      "chip": "ym2612"
    },
    {
      "channel": 3,
      "note": 71,
      "start": 1.9795,
      "duration": 0.0065,
      "velocity": 102,
      "chip": "ym2612"
    },
    {
      "channel": 4,
      "note": 62,
      "start": 1.9798,
      "duration": 0.0091,
      "velocity": 94,
      "chip": "ym2612"
    },
    {
      "channel": 2,
      "note": 77,
      "start": 1.992,
      "duration": 0.0046,
      "velocity": 102,
      "chip": "ym2612"
    },
    {
      "channel": 3,
      "note": 71,
      "start": 1.9922,
      "duration": 0.0045,
      "velocity": 102,
      "chip": "ym2612"
    },
    {
      "channel": 4,
      "note": 68,
      "start": 1.9925,
      "duration": 0.007,
      "velocity": 94,
      "chip": "ym2612"
    },
    {
      "channel": 4,
      "note": 62,
      "start": 2.0028,
      "duration": 0.0076,
      "velocity": 94,
      "chip": "ym2612"
    },
    {
      "channel": 2,
      "note": 74,
      "start": 2.0132,
      "duration": 0.003,
      "velocity": 102,
      "chip": "ym2612"
    },
    {
      "channel": 3,
      "note": 71,
      "start": 2.0134,
      "duration": 0.0029,
      "velocity": 102,
      "chip": "ym2612"
    },
    {
      "channel": 4,
      "note": 68,
      "start": 2.0137,
      "duration": 0.0067,
      "velocity": 94,
      "chip": "ym2612"
    },
    {
      "channel": 4,
      "note": 62,
      "start": 2.0241,
      "duration": 0.0073,
      "velocity": 94,
      "chip": "ym2612"
    },
    {
      "channel": 2,
      "note": 77,
      "start": 2.0339,
      "duration": 0.004,
      "velocity": 102,
      "chip": "ym2612"
    },
    {
      "channel": 3,
      "note": 71,
      "start": 2.0341,
      "duration": 0.0039,
      "velocity": 102,
      "chip": "ym2612"
    },
    {
      "channel": 4,
      "note": 62,
      "start": 2.0344,
      "duration": 0.0076,
      "velocity": 94,
      "chip": "ym2612"
    },
    {
      "channel": 0,
      "note": 89,
      "start": 2.0444,
      "duration": 0.0087,
      "velocity": 97,
      "chip": "ym2612"
    },
    {
      "channel": 2,
      "note": 62,
      "start": 2.0449,
      "duration": 0.0552,
      "velocity": 102,
      "chip": "ym2612"
    },
    {
      "channel": 3,
      "note": 56,
      "start": 2.0454,
      "duration": 0.0549,
      "velocity": 102,
      "chip": "ym2612"
    },
    {
      "channel": 4,
      "note": 56,
      "start": 2.0457,
      "duration": 0.0077,
      "velocity": 94,
      "chip": "ym2612"
    },
    {
      "channel": 0,
      "note": 86,
      "start": 2.0571,
      "duration": 0.0083,
      "velocity": 97,
      "chip": "ym2612"
    },
    {
      "channel": 4,
      "note": 62,
      "start": 2.0575,
      "duration": 0.0082,
      "velocity": 94,
      "chip": "ym2612"
    },
    {
      "channel": 0,
      "note": 87,
      "start": 2.0683,
      "duration": 0.0069,
      "velocity": 97,
      "chip": "ym2612"
    },
    {
      "channel": 4,
      "note": 56,
      "start": 2.0687,
      "duration": 0.0068,
      "velocity": 94,
      "chip": "ym2612"
    },
    {
      "channel": 0,
      "note": 88,
      "start": 2.0792,
      "duration": 0.0083,
      "velocity": 97,
      "chip": "ym2612"
    },
    {
      "channel": 4,
      "note": 62,
      "start": 2.0796,
      "duration": 0.0081,
      "velocity": 94,
      "chip": "ym2612"
    },
    {
      "channel": 0,
      "note": 89,
      "start": 2.0923,
      "duration": 0.0076,
      "velocity": 97,
      "chip": "ym2612"
    },
    {
      "channel": 4,
      "note": 56,
      "start": 2.0927,
      "duration": 0.0076,
      "velocity": 94,
      "chip": "ym2612"
    },
    {
      "channel": 0,
      "note": 88,
      "start": 2.1028,
      "duration": 0.0064,
      "velocity": 97,
      "chip": "ym2612"
    },
    {
      "channel": 4,
      "note": 65,
      "start": 2.1032,
      "duration": 0.0063,
      "velocity": 94,
      "chip": "ym2612"
    },
    {
      "channel": 0,
      "note": 87,
      "start": 2.1119,
      "duration": 0.0055,
      "velocity": 97,
      "chip": "ym2612"
    },
    {
      "channel": 2,
      "note": 68,
      "start": 2.1122,
      "duration": 0.0891,
      "velocity": 102,
      "chip": "ym2612"
    },
    {
      "channel": 3,
      "note": 62,
      "start": 2.1125,
      "duration": 0.0889,
      "velocity": 102,
      "chip": "ym2612"
    },
    {
      "channel": 0,
      "note": 86,
      "start": 2.1212,
      "duration": 0.2674,
      "velocity": 97,
      "chip": "ym2612"
    },
    {
      "channel": 4,
      "note": 68,
      "start": 2.1216,
      "duration": 0.0062,
      "velocity": 94,
      "chip": "ym2612"
    },
    {
      "channel": 1,
      "note": 83,
      "start": 2.1315,
      "duration": 0.0075,
      "velocity": 92,
      "chip": "ym2612"
    },
    {
      "channel": 4,
      "note": 56,
      "start": 2.1322,
      "duration": 0.007,
      "velocity": 94,
      "chip": "ym2612"
    },
    {
      "channel": 1,
      "note": 80,
      "start": 2.1429,
      "duration": 0.0056,
      "velocity": 92,
      "chip": "ym2612"
    },
    {
      "channel": 4,
      "note": 65,
      "start": 2.1433,
      "duration": 0.0055,
      "velocity": 94,
      "chip": "ym2612"
    },
    {
      "channel": 1,
      "note": 81,
      "start": 2.1535,
      "duration": 0.0069,
      "velocity": 92,
      "chip": "ym2612"
    },
    {
      "channel": 4,
      "note": 56,
      "start": 2.1539,
      "duration": 0.0068,
      "velocity": 94,
      "chip": "ym2612"
    },
    {
      "channel": 1,
      "note": 82,
      "start": 2.1646,
      "duration": 0.0059,
      "velocity": 92,
      "chip": "ym2612"
    },
    {
      "channel": 4,
      "note": 62,
      "start": 2.165,
      "duration": 0.0058,
      "velocity": 94,
      "chip": "ym2612"
    },
    {
      "channel": 1,
      "note": 83,
      "start": 2.176,
      "duration": 0.0063,
      "velocity": 92,
      "chip": "ym2612"
    },
    {
      "channel": 4,
      "note": 56,
      "start": 2.1764,
      "duration": 0.0062,
      "velocity": 94,
      "chip": "ym2612"
    },
    {
      "channel": 1,
      "note": 82,
      "start": 2.1861,
      "duration": 0.0053,
      "velocity": 92,
      "chip": "ym2612"
    },
    {
      "channel": 4,
      "note": 62,
      "start": 2.1865,
      "duration": 0.0051,
      "velocity": 94,
      "chip": "ym2612"
    },
    {
      "channel": 1,
      "note": 81,
      "start": 2.1951,
      "duration": 0.006,
      "velocity": 92,
      "chip": "ym2612"
    },
    {
      "channel": 4,
      "note": 56,
      "start": 2.1955,
      "duration": 0.006,
      "velocity": 94,
      "chip": "ym2612"
    },
    {
      "channel": 1,
      "note": 80,
      "start": 2.2075,
      "duration": 0.1811,
      "velocity": 92,
      "chip": "ym2612"
    },
    {
      "channel": 4,
      "note": 56,
      "start": 2.2079,
      "duration": 0.007,
      "velocity": 94,
      "chip": "ym2612"
    },
    {
      "channel": 4,
      "note": 56,
      "start": 2.2216,
      "duration": 0.0068,
      "velocity": 94,
      "chip": "ym2612"
    },
    {
      "channel": 4,
      "note": 62,
      "start": 2.2315,
      "duration": 0.0075,
      "velocity": 94,
      "chip": "ym2612"
    },
    {
      "channel": 2,
      "note": 74,
      "start": 2.2417,
      "duration": 0.0044,
      "velocity": 102,
      "chip": "ym2612"
    },
    {
      "channel": 3,
      "note": 68,
      "start": 2.242,
      "duration": 0.0042,
      "velocity": 102,
      "chip": "ym2612"
    },
    {
      "channel": 4,
      "note": 56,
      "start": 2.2422,
      "duration": 0.0069,
      "velocity": 94,
      "chip": "ym2612"
    },
    {
      "channel": 4,
      "note": 62,
      "start": 2.2531,
      "duration": 0.0085,
      "velocity": 94,
      "chip": "ym2612"
    },
    {
      "channel": 2,
      "note": 74,
      "start": 2.2665,
      "duration": 0.005,
      "velocity": 102,
      "chip": "ym2612"
    },
    {
      "channel": 3,
      "note": 68,
      "start": 2.2668,
      "duration": 0.0049,
      "velocity": 102,
      "chip": "ym2612"
    },
    {
      "channel": 4,
      "note": 56,
      "start": 2.267,
      "duration": 0.0071,
      "velocity": 94,
      "chip": "ym2612"
    },
    {
      "channel": 2,
      "note": 71,
      "start": 2.2766,
      "duration": 0.0042,
      "velocity": 102,
      "chip": "ym2612"
    },
    {
      "channel": 3,
      "note": 68,
      "start": 2.2769,
      "duration": 0.0041,
      "velocity": 102,
      "chip": "ym2612"
    },
    {
      "channel": 4,
      "note": 65,
      "start": 2.2771,
      "duration": 0.0063,
      "velocity": 94,
      "chip": "ym2612"
    },
    {
      "channel": 2,
      "note": 74,
      "start": 2.295,
      "duration": 0.0049,
      "velocity": 102,
      "chip": "ym2612"
    },
    {
      "channel": 3,
      "note": 68,
      "start": 2.2952,
      "duration": 0.0048,
      "velocity": 102,
      "chip": "ym2612"
    },
    {
      "channel": 4,
      "note": 68,
      "start": 2.2955,
      "duration": 0.0071,
      "velocity": 94,
      "chip": "ym2612"
    },
    {
      "channel": 2,
      "note": 74,
      "start": 2.305,
      "duration": 0.0056,
      "velocity": 102,
      "chip": "ym2612"
    },
    {
      "channel": 3,
      "note": 68,
      "start": 2.3052,
      "duration": 0.0054,
      "velocity": 102,
      "chip": "ym2612"
    },
    {
      "channel": 4,
      "note": 56,
      "start": 2.3055,
      "duration": 0.0078,
      "velocity": 94,
      "chip": "ym2612"
    },
    {
      "channel": 4,
      "note": 65,
      "start": 2.3162,
      "duration": 0.0067,
      "velocity": 94,
      "chip": "ym2612"
    },
    {
      "channel": 2,
      "note": 74,
      "start": 2.3268,
      "duration": 0.0044,
      "velocity": 102,
      "chip": "ym2612"
    },
    {
      "channel": 3,
      "note": 68,
      "start": 2.327,
      "duration": 0.0042,
      "velocity": 102,
      "chip": "ym2612"
    },
    {
      "channel": 4,
      "note": 56,
      "start": 2.3272,
      "duration": 0.0081,
      "velocity": 94,
      "chip": "ym2612"
    },
    {
      "channel": 2,
      "note": 74,
      "start": 2.3378,
      "duration": 0.0033,
      "velocity": 102,
      "chip": "ym2612"
    },
    {
      "channel": 3,
      "note": 68,
      "start": 2.338,
      "duration": 0.0032,
      "velocity": 102,
      "chip": "ym2612"
    },
    {
      "channel": 4,
      "note": 62,
      "start": 2.3383,
      "duration": 0.0071,
      "velocity": 94,
      "chip": "ym2612"
    },
    {
      "channel": 4,
      "note": 56,
      "start": 2.349,
      "duration": 0.0076,
      "velocity": 94,
      "chip": "ym2612"
    },
    {
      "channel": 2,
      "note": 71,
      "start": 2.3591,
      "duration": 0.0029,
      "velocity": 102,
      "chip": "ym2612"
    },
    {
      "channel": 3,
      "note": 68,
      "start": 2.3593,
      "duration": 0.0028,
      "velocity": 102,
      "chip": "ym2612"
    },
    {
      "channel": 4,
      "note": 62,
      "start": 2.3595,
      "duration": 0.0061,
      "velocity": 94,
      "chip": "ym2612"
    },
    {
      "channel": 4,
      "note": 56,
      "start": 2.3683,
      "duration": 0.0071,
      "velocity": 94,
      "chip": "ym2612"
    },
    {
      "channel": 2,
      "note": 74,
      "start": 2.3802,
      "duration": 0.0044,
      "velocity": 102,
      "chip": "ym2612"
    },
    {
      "channel": 3,
      "note": 68,
      "start": 2.3805,
      "duration": 0.0042,
      "velocity": 102,
      "chip": "ym2612"
    },
    {
      "channel": 4,
      "note": 56,
      "start": 2.3807,
      "duration": 0.0082,
      "velocity": 94,
      "chip": "ym2612"
    },
    {
      "channel": 0,
      "note": 92,
      "start": 2.3932,
      "duration": 0.0102,
      "velocity": 97,
      "chip": "ym2612"
    },
    {
      "channel": 2,
      "note": 65,
      "start": 2.3937,
      "duration": 0.0573,
      "velocity": 102,
      "chip": "ym2612"
    },
    {
      "channel": 3,
      "note": 59,
      "start": 2.3941,
      "duration": 0.057,
      "velocity": 102,
      "chip": "ym2612"
    },
    {
      "channel": 4,
      "note": 62,
      "start": 2.3944,
      "duration": 0.0094,
      "velocity": 94,
      "chip": "ym2612"
    },
    {
      "channel": 0,
      "note": 89,
      "start": 2.4064,
      "duration": 0.0094,
      "velocity": 97,
      "chip": "ym2612"
    },
    {
      "channel": 4,
      "note": 68,
      "start": 2.4069,
      "duration": 0.0093,
      "velocity": 94,
      "chip": "ym2612"
    },
    {
      "channel": 0,
      "note": 90,
      "start": 2.419,
      "duration": 0.0074,
      "velocity": 97,
      "chip": "ym2612"
    },
    {
      "channel": 4,
      "note": 62,
      "start": 2.4195,
      "duration": 0.0073,
      "velocity": 94,
      "chip": "ym2612"
    },
    {
      "channel": 0,
      "note": 91,
      "start": 2.4302,
      "duration": 0.0095,
      "velocity": 97,
      "chip": "ym2612"
    },
    {
      "channel": 4,
      "note": 68,
      "start": 2.4306,
      "duration": 0.0094,
      "velocity": 94,
      "chip": "ym2612"
    },
    {
      "channel": 0,
      "note": 92,
      "start": 2.4437,
      "duration": 0.0071,
      "velocity": 97,
      "chip": "ym2612"
    },
    {
      "channel": 4,
      "note": 62,
      "start": 2.4442,
      "duration": 0.007,
      "velocity": 94,
      "chip": "ym2612"
    },
    {
      "channel": 0,
      "note": 91,
      "start": 2.455,
      "duration": 0.0058,
      "velocity": 97,
      "chip": "ym2612"
    },
    {
      "channel": 4,
      "note": 71,
      "start": 2.4554,
      "duration": 0.0056,
      "velocity": 94,
      "chip": "ym2612"
    },
    {
      "channel": 0,
      "note": 90,
      "start": 2.4649,
      "duration": 0.0061,
      "velocity": 97,
      "chip": "ym2612"
    },
    {
      "channel": 2,
      "note": 71,
      "start": 2.4652,
      "duration": 0.1008,
      "velocity": 102,
      "chip": "ym2612"
    },
    {
      "channel": 3,
      "note": 65,
      "start": 2.4654,
      "duration": 0.1006,
      "velocity": 102,
      "chip": "ym2612"
    },
    {
      "channel": 0,
      "note": 89,
      "start": 2.475,
      "duration": 0.2903,
      "velocity": 97,
      "chip": "ym2612"
    },
    {
      "channel": 4,
      "note": 74,
      "start": 2.4754,
      "duration": 0.0071,
      "velocity": 94,
      "chip": "ym2612"
    },
    {
      "channel": 1,
      "note": 86,
      "start": 2.4884,
      "duration": 0.0084,
      "velocity": 92,
      "chip": "ym2612"
    },
    {
      "channel": 4,
      "note": 62,
      "start": 2.4891,
      "duration": 0.008,
      "velocity": 94,
      "chip": "ym2612"
    },
    {
      "channel": 1,
      "note": 83,
      "start": 2.5012,
      "duration": 0.0061,
      "velocity": 92,
      "chip": "ym2612"
    },
    {
      "channel": 4,
      "note": 71,
      "start": 2.5016,
      "duration": 0.006,
      "velocity": 94,
      "chip": "ym2612"
    },
    {
      "channel": 1,
      "note": 84,
      "start": 2.5118,
      "duration": 0.0077,
      "velocity": 92,
      "chip": "ym2612"
    },
    {
      "channel": 4,
      "note": 62,
      "start": 2.5122,
      "duration": 0.0075,
      "velocity": 94,
      "chip": "ym2612"
    },
    {
      "channel": 1,
      "note": 85,
      "start": 2.5239,
      "duration": 0.0061,
      "velocity": 92,
      "chip": "ym2612"
    },
    {
      "channel": 4,
      "note": 68,
      "start": 2.5243,
      "duration": 0.0059,
      "velocity": 94,
      "chip": "ym2612"
    },
    {
      "channel": 1,
      "note": 86,
      "start": 2.5346,
      "duration": 0.007,
      "velocity": 92,
      "chip": "ym2612"
    },
    {
      "channel": 4,
      "note": 62,
      "start": 2.535,
      "duration": 0.0069,
      "velocity": 94,
      "chip": "ym2612"
    },
    {
      "channel": 1,
      "note": 85,
      "start": 2.5459,
      "duration": 0.0059,
      "velocity": 92,
      "chip": "ym2612"
    },
    {
      "channel": 4,
      "note": 68,
      "start": 2.5462,
      "duration": 0.0058,
      "velocity": 94,
      "chip": "ym2612"
    },
    {
      "channel": 1,
      "note": 84,
      "start": 2.5564,
      "duration": 0.0094,
      "velocity": 92,
      "chip": "ym2612"
    },
    {
      "channel": 4,
      "note": 62,
      "start": 2.5568,
      "duration": 0.0094,
      "velocity": 94,
      "chip": "ym2612"
    },
    {
      "channel": 1,
      "note": 83,
      "start": 2.5699,
      "duration": 0.1916,
      "velocity": 92,
      "chip": "ym2612"
    },
    {
      "channel": 4,
      "note": 62,
      "start": 2.5703,
      "duration": 0.0095,
      "velocity": 94,
      "chip": "ym2612"
    },
    {
      "channel": 4,
      "note": 62,
      "start": 2.5843,
      "duration": 0.0095,
      "velocity": 94,
      "chip": "ym2612"
    },
    {
      "channel": 4,
      "note": 68,
      "start": 2.5969,
      "duration": 0.0093,
      "velocity": 94,
      "chip": "ym2612"
    },
    {
      "channel": 2,
      "note": 77,
      "start": 2.6094,
      "duration": 0.0047,
      "velocity": 102,
      "chip": "ym2612"
    },
    {
      "channel": 3,
      "note": 71,
      "start": 2.6097,
      "duration": 0.0045,
      "velocity": 102,
      "chip": "ym2612"
    },
    {
      "channel": 4,
      "note": 62,
      "start": 2.6099,
      "duration": 0.0074,
      "velocity": 94,
      "chip": "ym2612"
    },
    {
      "channel": 4,
      "note": 68,
      "start": 2.6207,
      "duration": 0.0095,
      "velocity": 94,
      "chip": "ym2612"
    },
    {
      "channel": 2,
      "note": 77,
      "start": 2.6341,
      "duration": 0.0056,
      "velocity": 102,
      "chip": "ym2612"
    },
    {
      "channel": 3,
      "note": 71,
      "start": 2.6343,
      "duration": 0.0055,
      "velocity": 102,
      "chip": "ym2612"
    },
    {
      "channel": 4,
      "note": 62,
      "start": 2.6346,
      "duration": 0.0079,
      "velocity": 94,
      "chip": "ym2612"
    },
    {
      "channel": 2,
      "note": 74,
      "start": 2.6453,
      "duration": 0.0044,
      "velocity": 102,
      "chip": "ym2612"
    },
    {
      "channel": 3,
      "note": 71,
      "start": 2.6455,
      "duration": 0.0043,
      "velocity": 102,
      "chip": "ym2612"
    },
    {
      "channel": 4,
      "note": 71,
      "start": 2.6458,
      "duration": 0.0069,
      "velocity": 94,
      "chip": "ym2612"
    },
    {
      "channel": 2,
      "note": 77,
      "start": 2.665,
      "duration": 0.0044,
      "velocity": 102,
      "chip": "ym2612"
    },
    {
      "channel": 3,
      "note": 71,
      "start": 2.6652,
      "duration": 0.0043,
      "velocity": 102,
      "chip": "ym2612"
    },
    {
      "channel": 4,
      "note": 74,
      "start": 2.6655,
      "duration": 0.008,
      "velocity": 94,
      "chip": "ym2612"
    },
    {
      "channel": 2,
      "note": 77,
      "start": 2.678,
      "duration": 0.0052,
      "velocity": 102,
      "chip": "ym2612"
    },
    {
      "channel": 3,
      "note": 71,
      "start": 2.6782,
      "duration": 0.0051,
      "velocity": 102,
      "chip": "ym2612"
    },
    {
      "channel": 4,
      "note": 62,
      "start": 2.6785,
      "duration": 0.0093,
      "velocity": 94,
      "chip": "ym2612"
    },
    {
      "channel": 4,
      "note": 71,
      "start": 2.691,
      "duration": 0.0073,
      "velocity": 94,
      "chip": "ym2612"
    },
    {
      "channel": 2,
      "note": 77,
      "start": 2.7016,
      "duration": 0.0056,
      "velocity": 102,
      "chip": "ym2612"
    },
    {
      "channel": 3,
      "note": 71,
      "start": 2.7018,
      "duration": 0.0054,
      "velocity": 102,
      "chip": "ym2612"
    },
    {
      "channel": 4,
      "note": 62,
      "start": 2.7021,
      "duration": 0.0094,
      "velocity": 94,
      "chip": "ym2612"
    },
    {
      "channel": 2,
      "note": 77,
      "start": 2.7145,
      "duration": 0.0035,
      "velocity": 102,
      "chip": "ym2612"
    },
    {
      "channel": 3,
      "note": 71,
      "start": 2.7147,
      "duration": 0.0033,
      "velocity": 102,
      "chip": "ym2612"
    },
    {
      "channel": 4,
      "note": 68,
      "start": 2.715,
      "duration": 0.0075,
      "velocity": 94,
      "chip": "ym2612"
    },
    {
      "channel": 4,
      "note": 62,
      "start": 2.7254,
      "duration": 0.008,
      "velocity": 94,
      "chip": "ym2612"
    },
    {
      "channel": 2,
      "note": 74,
      "start": 2.7363,
      "duration": 0.0033,
      "velocity": 102,
      "chip": "ym2612"
    },
    {
      "channel": 3,
      "note": 71,
      "start": 2.7365,
      "duration": 0.0031,
      "velocity": 102,
      "chip": "ym2612"
    },
    {
      "channel": 4,
      "note": 68,
      "start": 2.7368,
      "duration": 0.0069,
      "velocity": 94,
      "chip": "ym2612"
    },
    {
      "channel": 4,
      "note": 62,
      "start": 2.7475,
      "duration": 0.0073,
      "velocity": 94,
      "chip": "ym2612"
    },
    {
      "channel": 2,
      "note": 77,
      "start": 2.7572,
      "duration": 0.0044,
      "velocity": 102,
      "chip": "ym2612"
    },
    {
      "channel": 3,
      "note": 71,
      "start": 2.7575,
      "duration": 0.0001,
      "velocity": 102,
      "chip": "ym2612"
    },
    {
      "channel": 4,
      "note": 62,
      "start": 2.7578,
      "duration": 0.0101,
      "velocity": 94,
      "chip": "ym2612"
    },
    {
      "channel": 0,
      "note": 88,
      "start": 2.7704,
      "duration": 0.0389,
      "velocity": 97,
      "chip": "ym2612"
    },
    {
      "channel": 1,
      "note": 88,
      "start": 2.7708,
      "duration": 0.0386,
      "velocity": 101,
      "chip": "ym2612"
    },
    {
      "channel": 2,
      "note": 80,
      "start": 2.7723,
      "duration": 0.0041,
      "velocity": 103,
      "chip": "ym2612"
    },
    {
      "channel": 3,
      "note": 73,
      "start": 2.7726,
      "duration": 0.0039,
      "velocity": 103,
      "chip": "ym2612"
    },
    {
      "channel": 4,
      "note": 49,
      "start": 2.7729,
      "duration": 0.0076,
      "velocity": 94,
      "chip": "ym2612"
    },
    {
      "channel": 2,
      "note": 80,
      "start": 2.7832,
      "duration": 0.0137,
      "velocity": 103,
      "chip": "ym2612"
    },
    {
      "channel": 3,
      "note": 73,
      "start": 2.7834,
      "duration": 0.0136,
      "velocity": 103,
      "chip": "ym2612"
    },
    {
      "channel": 4,
      "note": 61,
      "start": 2.7837,
      "duration": 0.016,
      "velocity": 94,
      "chip": "ym2612"
    },
    {
      "channel": 2,
      "note": 80,
      "start": 2.8036,
      "duration": 0.003,
      "velocity": 103,
      "chip": "ym2612"
    },
    {
      "channel": 3,
      "note": 73,
      "start": 2.8039,
      "duration": 0.0028,
      "velocity": 103,
      "chip": "ym2612"
    },
    {
      "channel": 4,
      "note": 49,
      "start": 2.8041,
      "duration": 0.0055,
      "velocity": 94,
      "chip": "ym2612"
    },
    {
      "channel": 0,
      "note": 89,
      "start": 2.8145,
      "duration": 0.0158,
      "velocity": 97,
      "chip": "ym2612"
    },
    {
      "channel": 1,
      "note": 89,
      "start": 2.8148,
      "duration": 0.0156,
      "velocity": 101,
      "chip": "ym2612"
    },
    {
      "channel": 2,
      "note": 80,
      "start": 2.815,
      "duration": 0.0126,
      "velocity": 103,
      "chip": "ym2612"
    },
    {
      "channel": 3,
      "note": 73,
      "start": 2.8152,
      "duration": 0.0125,
      "velocity": 103,
      "chip": "ym2612"
    },
    {
      "channel": 4,
      "note": 61,
      "start": 2.8155,
      "duration": 0.0151,
      "velocity": 94,
      "chip": "ym2612"
    },
    {
      "channel": 0,
      "note": 83,
      "start": 2.8345,
      "duration": 0.038,
      "velocity": 97,
      "chip": "ym2612"
    },
    {
      "channel": 1,
      "note": 85,
      "start": 2.8348,
      "duration": 0.0378,
      "velocity": 101,
      "chip": "ym2612"
    },
    {
      "channel": 2,
      "note": 80,
      "start": 2.835,
      "duration": 0.0047,
      "velocity": 103,
      "chip": "ym2612"
    },
    {
      "channel": 3,
      "note": 73,
      "start": 2.8353,
      "duration": 0.0046,
      "velocity": 103,
      "chip": "ym2612"
    },
    {
      "channel": 4,
      "note": 49,
      "start": 2.8355,
      "duration": 0.0072,
      "velocity": 94,
      "chip": "ym2612"
    },
    {
      "channel": 2,
      "note": 80,
      "start": 2.8468,
      "duration": 0.0137,
      "velocity": 103,
      "chip": "ym2612"
    },
    {
      "channel": 3,
      "note": 73,
      "start": 2.847,
      "duration": 0.0135,
      "velocity": 103,
      "chip": "ym2612"
    },
    {
      "channel": 4,
      "note": 61,
      "start": 2.8472,
      "duration": 0.0158,
      "velocity": 94,
      "chip": "ym2612"
    },
    {
      "channel": 2,
      "note": 80,
      "start": 2.8667,
      "duration": 0.0029,
      "velocity": 103,
      "chip": "ym2612"
    },
    {
      "channel": 3,
      "note": 73,
      "start": 2.8669,
      "duration": 0.0028,
      "velocity": 103,
      "chip": "ym2612"
    },
    {
      "channel": 4,
      "note": 49,
      "start": 2.8672,
      "duration": 0.0056,
      "velocity": 94,
      "chip": "ym2612"
    },
    {
      "channel": 0,
      "note": 83,
      "start": 2.8767,
      "duration": 0.0169,
      "velocity": 97,
      "chip": "ym2612"
    },
    {
      "channel": 1,
      "note": 83,
      "start": 2.877,
      "duration": 0.0168,
      "velocity": 101,
      "chip": "ym2612"
    },
    {
      "channel": 2,
      "note": 80,
      "start": 2.8772,
      "duration": 0.0137,
      "velocity": 103,
      "chip": "ym2612"
    },
    {
      "channel": 3,
      "note": 73,
      "start": 2.8774,
      "duration": 0.0135,
      "velocity": 103,
      "chip": "ym2612"
    },
    {
      "channel": 4,
      "note": 61,
      "start": 2.8777,
      "duration": 0.0163,
      "velocity": 94,
      "chip": "ym2612"
    },
    {
      "channel": 0,
      "note": 83,
      "start": 2.8981,
      "duration": 0.7756,
      "velocity": 97,
      "chip": "ym2612"
    },
    {
      "channel": 1,
      "note": 83,
      "start": 2.8985,
      "duration": 0.7753,
      "velocity": 101,
      "chip": "ym2612"
    },
    {
      "channel": 2,
      "note": 80,
      "start": 2.8988,
      "duration": 0.0141,
      "velocity": 103,
      "chip": "ym2612"
    },
    {
      "channel": 3,
      "note": 73,
      "start": 2.899,
      "duration": 0.0139,
      "velocity": 103,
      "chip": "ym2612"
    },
    {
      "channel": 4,
      "note": 49,
      "start": 2.8993,
      "duration": 0.6989,
      "velocity": 94,
      "chip": "ym2612"
    },
    {
      "channel": 2,
      "note": 80,
      "start": 2.9183,
      "duration": 0.0117,
      "velocity": 103,
      "chip": "ym2612"
    },
    {
      "channel": 3,
      "note": 73,
      "start": 2.9186,
      "duration": 0.0116,
      "velocity": 103,
      "chip": "ym2612"
    },
    {
      "channel": 2,
      "note": 80,
      "start": 2.935,
      "duration": 0.004,
      "velocity": 103,
      "chip": "ym2612"
    },
    {
      "channel": 3,
      "note": 73,
      "start": 2.9353,
      "duration": 0.0038,
      "velocity": 103,
      "chip": "ym2612"
    },
    {
      "channel": 2,
      "note": 80,
      "start": 2.9678,
      "duration": 0.0829,
      "velocity": 103,
      "chip": "ym2612"
    },
    {
      "channel": 3,
      "note": 73,
      "start": 2.968,
      "duration": 0.0827,
      "velocity": 103,
      "chip": "ym2612"
    },
    {
      "channel": 2,
      "note": 80,
      "start": 3.1175,
      "duration": 0.0039,
      "velocity": 103,
      "chip": "ym2612"
    },
    {
      "channel": 3,
      "note": 73,
      "start": 3.1177,
      "duration": 0.0038,
      "velocity": 103,
      "chip": "ym2612"
    },
    {
      "channel": 2,
      "note": 80,
      "start": 3.1505,
      "duration": 0.0492,
      "velocity": 103,
      "chip": "ym2612"
    },
    {
      "channel": 3,
      "note": 73,
      "start": 3.1507,
      "duration": 0.0491,
      "velocity": 103,
      "chip": "ym2612"
    },
    {
      "channel": 2,
      "note": 80,
      "start": 3.2832,
      "duration": 0.0029,
      "velocity": 103,
      "chip": "ym2612"
    },
    {
      "channel": 3,
      "note": 73,
      "start": 3.2834,
      "duration": 0.0027,
      "velocity": 103,
      "chip": "ym2612"
    },
    {
      "channel": 2,
      "note": 80,
      "start": 3.3162,
      "duration": 0.0661,
      "velocity": 103,
      "chip": "ym2612"
    },
    {
      "channel": 3,
      "note": 73,
      "start": 3.3164,
      "duration": 0.066,
      "velocity": 103,
      "chip": "ym2612"
    },
    {
      "channel": 2,
      "note": 80,
      "start": 3.4659,
      "duration": 0.0029,
      "velocity": 103,
      "chip": "ym2612"
    },
    {
      "channel": 3,
      "note": 73,
      "start": 3.4661,
      "duration": 0.0027,
      "velocity": 103,
      "chip": "ym2612"
    },
    {
      "channel": 2,
      "note": 80,
      "start": 3.4988,
      "duration": 0.0492,
      "velocity": 103,
      "chip": "ym2612"
    },
    {
      "channel": 3,
      "note": 73,
      "start": 3.4991,
      "duration": 0.0491,
      "velocity": 103,
      "chip": "ym2612"
    },
    {
      "channel": 2,
      "note": 80,
      "start": 3.6316,
      "duration": 0.0141,
      "velocity": 103,
      "chip": "ym2612"
    },
    {
      "channel": 3,
      "note": 73,
      "start": 3.6319,
      "duration": 0.0139,
      "velocity": 103,
      "chip": "ym2612"
    },
    {
      "channel": 4,
      "note": 49,
      "start": 3.6321,
      "duration": 0.0081,
      "velocity": 94,
      "chip": "ym2612"
    },
    {
      "channel": 4,
      "note": 61,
      "start": 3.6429,
      "duration": 0.0068,
      "velocity": 94,
      "chip": "ym2612"
    },
    {
      "channel": 2,
      "note": 80,
      "start": 3.6537,
      "duration": 0.0174,
      "velocity": 103,
      "chip": "ym2612"
    },
    {
      "channel": 3,
      "note": 73,
      "start": 3.654,
      "duration": 0.0173,
      "velocity": 103,
      "chip": "ym2612"
    },
    {
      "channel": 4,
      "note": 59,
      "start": 3.6542,
      "duration": 0.0068,
      "velocity": 94,
      "chip": "ym2612"
    },
    {
      "channel": 4,
      "note": 56,
      "start": 3.667,
      "duration": 0.0071,
      "velocity": 94,
      "chip": "ym2612"
    },
    {
      "channel": 0,
      "note": 81,
      "start": 3.6801,
      "duration": 0.0398,
      "velocity": 97,
      "chip": "ym2612"
    },
    {
      "channel": 1,
      "note": 81,
      "start": 3.6805,
      "duration": 0.0396,
      "velocity": 101,
      "chip": "ym2612"
    },
    {
      "channel": 2,
      "note": 80,
      "start": 3.6808,
      "duration": 0.0044,
      "velocity": 103,
      "chip": "ym2612"
    },
    {
      "channel": 3,
      "note": 73,
      "start": 3.6811,
      "duration": 0.0042,
      "velocity": 103,
      "chip": "ym2612"
    },
    {
      "channel": 4,
      "note": 49,
      "start": 3.6814,
      "duration": 0.0067,
      "velocity": 94,
      "chip": "ym2612"
    },
    {
      "channel": 2,
      "note": 80,
      "start": 3.6919,
      "duration": 0.0159,
      "velocity": 103,
      "chip": "ym2612"
    },
    {
      "channel": 3,
      "note": 73,
      "start": 3.6921,
      "duration": 0.0157,
      "velocity": 103,
      "chip": "ym2612"
    },
    {
      "channel": 4,
      "note": 61,
      "start": 3.6924,
      "duration": 0.018,
      "velocity": 94,
      "chip": "ym2612"
    },
    {
      "channel": 2,
      "note": 80,
      "start": 3.7141,
      "duration": 0.0032,
      "velocity": 103,
      "chip": "ym2612"
    },
    {
      "channel": 3,
      "note": 73,
      "start": 3.7144,
      "duration": 0.0031,
      "velocity": 103,
      "chip": "ym2612"
    },
    {
      "channel": 4,
      "note": 49,
      "start": 3.7146,
      "duration": 0.0057,
      "velocity": 94,
      "chip": "ym2612"
    },
    {
      "channel": 0,
      "note": 80,
      "start": 3.7252,
      "duration": 0.0163,
      "velocity": 97,
      "chip": "ym2612"
    },
    {
      "channel": 1,
      "note": 80,
      "start": 3.7254,
      "duration": 0.0161,
      "velocity": 101,
      "chip": "ym2612"
    },
    {
      "channel": 2,
      "note": 80,
      "start": 3.7257,
      "duration": 0.0132,
      "velocity": 103,
      "chip": "ym2612"
    },
    {
      "channel": 3,
      "note": 73,
      "start": 3.7259,
      "duration": 0.0131,
      "velocity": 103,
      "chip": "ym2612"
    },
    {
      "channel": 4,
      "note": 61,
      "start": 3.7261,
      "duration": 0.0156,
      "velocity": 94,
      "chip": "ym2612"
    },
    {
      "channel": 0,
      "note": 81,
      "start": 3.7456,
      "duration": 0.0389,
      "velocity": 97,
      "chip": "ym2612"
    },
    {
      "channel": 1,
      "note": 81,
      "start": 3.746,
      "duration": 0.0386,
      "velocity": 101,
      "chip": "ym2612"
    },
    {
      "channel": 2,
      "note": 80,
      "start": 3.7463,
      "duration": 0.0047,
      "velocity": 103,
      "chip": "ym2612"
    },
    {
      "channel": 3,
      "note": 73,
      "start": 3.7466,
      "duration": 0.0046,
      "velocity": 103,
      "chip": "ym2612"
    },
    {
      "channel": 4,
      "note": 49,
      "start": 3.7468,
      "duration": 0.0074,
      "velocity": 94,
      "chip": "ym2612"
    },
    {
      "channel": 2,
      "note": 80,
      "start": 3.7582,
      "duration": 0.0136,
      "velocity": 103,
      "chip": "ym2612"
    },
    {
      "channel": 3,
      "note": 73,
      "start": 3.7585,
      "duration": 0.0135,
      "velocity": 103,
      "chip": "ym2612"
    },
    {
      "channel": 4,
      "note": 61,
      "start": 3.7587,
      "duration": 0.0161,
      "velocity": 94,
      "chip": "ym2612"
    },
    {
      "channel": 2,
      "note": 80,
      "start": 3.7776,
      "duration": 0.0044,
      "velocity": 103,
      "chip": "ym2612"
    },
    {
      "channel": 3,
      "note": 73,
      "start": 3.7779,
      "duration": 0.0042,
      "velocity": 103,
      "chip": "ym2612"
    },
    {
      "channel": 4,
      "note": 49,
      "start": 3.7781,
      "duration": 0.0067,
      "velocity": 94,
      "chip": "ym2612"
    },
    {
      "channel": 0,
      "note": 90,
      "start": 3.7874,
      "duration": 0.018,
      "velocity": 97,
      "chip": "ym2612"
    },
    {
      "channel": 1,
      "note": 90,
      "start": 3.7877,
      "duration": 0.0179,
      "velocity": 101,
      "chip": "ym2612"
    },
    {
      "channel": 2,
      "note": 80,
      "start": 3.7879,
      "duration": 0.0146,
      "velocity": 103,
      "chip": "ym2612"
    },
    {
      "channel": 3,
      "note": 73,
      "start": 3.7882,
      "duration": 0.0145,
      "velocity": 103,
      "chip": "ym2612"
    },
    {
      "channel": 4,
      "note": 61,
      "start": 3.7884,
      "duration": 0.0174,
      "velocity": 94,
      "chip": "ym2612"
    },
    {
      "channel": 0,
      "note": 89,
      "start": 3.8094,
      "duration": 0.7758,
      "velocity": 97,
      "chip": "ym2612"
    },
    {
      "channel": 1,
      "note": 89,
      "start": 3.8097,
      "duration": 0.7757,
      "velocity": 101,
      "chip": "ym2612"
    },
    {
      "channel": 2,
      "note": 80,
      "start": 3.8099,
      "duration": 0.0129,
      "velocity": 103,
      "chip": "ym2612"
    },
    {
      "channel": 3,
      "note": 73,
      "start": 3.8102,
      "duration": 0.0127,
      "velocity": 103,
      "chip": "ym2612"
    },
    {
      "channel": 4,
      "note": 49,
      "start": 3.8104,
      "duration": 0.6829,
      "velocity": 94,
      "chip": "ym2612"
    },
    {
      "channel": 2,
      "note": 80,
      "start": 3.8278,
      "duration": 0.0119,
      "velocity": 103,
      "chip": "ym2612"
    },
    {
      "channel": 3,
      "note": 73,
      "start": 3.828,
      "duration": 0.0118,
      "velocity": 103,
      "chip": "ym2612"
    },
    {
      "channel": 2,
      "note": 80,
      "start": 3.8463,
      "duration": 0.0041,
      "velocity": 103,
      "chip": "ym2612"
    },
    {
      "channel": 3,
      "note": 73,
      "start": 3.8466,
      "duration": 0.004,
      "velocity": 103,
      "chip": "ym2612"
    },
    {
      "channel": 2,
      "note": 80,
      "start": 3.8792,
      "duration": 0.0662,
      "velocity": 103,
      "chip": "ym2612"
    },
    {
      "channel": 3,
      "note": 73,
      "start": 3.8795,
      "duration": 0.066,
      "velocity": 103,
      "chip": "ym2612"
    },
    {
      "channel": 2,
      "note": 80,
      "start": 4.029,
      "duration": 0.0029,
      "velocity": 103,
      "chip": "ym2612"
    },
    {
      "channel": 3,
      "note": 73,
      "start": 4.0292,
      "duration": 0.0027,
      "velocity": 103,
      "chip": "ym2612"
    },
    {
      "channel": 2,
      "note": 80,
      "start": 4.0619,
      "duration": 0.0493,
      "velocity": 103,
      "chip": "ym2612"
    },
    {
      "channel": 3,
      "note": 73,
      "start": 4.0622,
      "duration": 0.0491,
      "velocity": 103,
      "chip": "ym2612"
    },
    {
      "channel": 2,
      "note": 80,
      "start": 4.1947,
      "duration": 0.0029,
      "velocity": 103,
      "chip": "ym2612"
    },
    {
      "channel": 3,
      "note": 73,
      "start": 4.195,
      "duration": 0.0027,
      "velocity": 103,
      "chip": "ym2612"
    },
    {
      "channel": 2,
      "note": 80,
      "start": 4.2277,
      "duration": 0.0662,
      "velocity": 103,
      "chip": "ym2612"
    },
    {
      "channel": 3,
      "note": 73,
      "start": 4.228,
      "duration": 0.066,
      "velocity": 103,
      "chip": "ym2612"
    },
    {
      "channel": 2,
      "note": 80,
      "start": 4.3775,
      "duration": 0.0029,
      "velocity": 103,
      "chip": "ym2612"
    },
    {
      "channel": 3,
      "note": 73,
      "start": 4.3777,
      "duration": 0.0027,
      "velocity": 103,
      "chip": "ym2612"
    },
    {
      "channel": 2,
      "note": 80,
      "start": 4.4104,
      "duration": 0.0494,
      "velocity": 103,
      "chip": "ym2612"
    },
    {
      "channel": 3,
      "note": 73,
      "start": 4.4107,
      "duration": 0.0493,
      "velocity": 103,
      "chip": "ym2612"
    },
    {
      "channel": 2,
      "note": 80,
      "start": 4.5434,
      "duration": 0.014,
      "velocity": 103,
      "chip": "ym2612"
    },
    {
      "channel": 3,
      "note": 73,
      "start": 4.5436,
      "duration": 0.0138,
      "velocity": 103,
      "chip": "ym2612"
    },
    {
      "channel": 4,
      "note": 49,
      "start": 4.5438,
      "duration": 0.0066,
      "velocity": 94,
      "chip": "ym2612"
    },
    {
      "channel": 4,
      "note": 61,
      "start": 4.5544,
      "duration": 0.0059,
      "velocity": 94,
      "chip": "ym2612"
    },
    {
      "channel": 2,
      "note": 80,
      "start": 4.5654,
      "duration": 0.0171,
      "velocity": 103,
      "chip": "ym2612"
    },
    {
      "channel": 3,
      "note": 73,
      "start": 4.5657,
      "duration": 0.0169,
      "velocity": 103,
      "chip": "ym2612"
    },
    {
      "channel": 4,
      "note": 59,
      "start": 4.5659,
      "duration": 0.0068,
      "velocity": 94,
      "chip": "ym2612"
    },
    {
      "channel": 4,
      "note": 56,
      "start": 4.5786,
      "duration": 0.0069,
      "velocity": 94,
      "chip": "ym2612"
    },
    {
      "channel": 4,
      "note": 51,
      "start": 4.5912,
      "duration": 0.0181,
      "velocity": 94,
      "chip": "ym2612"
    },
    {
      "channel": 0,
      "note": 90,
      "start": 4.6131,
      "duration": 0.0137,
      "velocity": 102,
      "chip": "ym2612"
    },
    {
      "channel": 1,
      "note": 85,
      "start": 4.6134,
      "duration": 0.0135,
      "velocity": 102,
      "chip": "ym2612"
    },
    {
      "channel": 2,
      "note": 82,
      "start": 4.6136,
      "duration": 0.0134,
      "velocity": 102,
      "chip": "ym2612"
    },
    {
      "channel": 3,
      "note": 79,
      "start": 4.6139,
      "duration": 0.0133,
      "velocity": 102,
      "chip": "ym2612"
    },
    {
      "channel": 4,
      "note": 63,
      "start": 4.6141,
      "duration": 0.0132,
      "velocity": 94,
      "chip": "ym2612"
    },
    {
      "channel": 4,
      "note": 51,
      "start": 4.6311,
      "duration": 0.0131,
      "velocity": 94,
      "chip": "ym2612"
    },
    {
      "channel": 0,
      "note": 90,
      "start": 4.6466,
      "duration": 0.0148,
      "velocity": 102,
      "chip": "ym2612"
    },
    {
      "channel": 1,
      "note": 85,
      "start": 4.6469,
      "duration": 0.0147,
      "velocity": 102,
      "chip": "ym2612"
    },
    {
      "channel": 2,
      "note": 82,
      "start": 4.6471,
      "duration": 0.0146,
      "velocity": 102,
      "chip": "ym2612"
    },
    {
      "channel": 3,
      "note": 79,
      "start": 4.6473,
      "duration": 0.0145,
      "velocity": 102,
      "chip": "ym2612"
    },
    {
      "channel": 4,
      "note": 63,
      "start": 4.6476,
      "duration": 0.0143,
      "velocity": 94,
      "chip": "ym2612"
    },
    {
      "channel": 4,
      "note": 51,
      "start": 4.6647,
      "duration": 0.0142,
      "velocity": 94,
      "chip": "ym2612"
    },
    {
      "channel": 0,
      "note": 90,
      "start": 4.6813,
      "duration": 0.0149,
      "velocity": 102,
      "chip": "ym2612"
    },
    {
      "channel": 1,
      "note": 85,
      "start": 4.6815,
      "duration": 0.0148,
      "velocity": 102,
      "chip": "ym2612"
    },
    {
      "channel": 2,
      "note": 82,
      "start": 4.6818,
      "duration": 0.0147,
      "velocity": 102,
      "chip": "ym2612"
    },
    {
      "channel": 3,
      "note": 79,
      "start": 4.682,
      "duration": 0.0146,
      "velocity": 102,
      "chip": "ym2612"
    },
    {
      "channel": 4,
      "note": 63,
      "start": 4.6823,
      "duration": 0.0144,
      "velocity": 94,
      "chip": "ym2612"
    },
    {
      "channel": 4,
      "note": 51,
      "start": 4.6995,
      "duration": 0.0143,
      "velocity": 94,
      "chip": "ym2612"
    },
    {
      "channel": 0,
      "note": 90,
      "start": 4.7162,
      "duration": 0.5009,
      "velocity": 102,
      "chip": "ym2612"
    },
    {
      "channel": 1,
      "note": 85,
      "start": 4.7165,
      "duration": 0.5009,
      "velocity": 102,
      "chip": "ym2612"
    },
    {
      "channel": 2,
      "note": 82,
      "start": 4.7168,
      "duration": 0.5009,
      "velocity": 102,
      "chip": "ym2612"
    },
    {
      "channel": 3,
      "note": 79,
      "start": 4.717,
      "duration": 0.5009,
      "velocity": 102,
      "chip": "ym2612"
    },
    {
      "channel": 4,
      "note": 63,
      "start": 4.7173,
      "duration": 0.5008,
      "velocity": 94,
      "chip": "ym2612"
    }
  ]
}