{
  "track_name": "11 - Stage 9- Robot World",
  "duration_sec": 34.628,
  "sample_rate": 44100,
  "note_count": 817,
  "unique_pitches": 29,
  "pitch_range": 36,
  "avg_note_duration": 0.1701,
  "reconstruction_stats": {
    "notes_reconstructed": 817,
    "keyon_events": 817,
    "keyoff_events": 807,
    "orphan_keyons": 4,
    "unique_pitches": 29,
    "pitch_range": 36,
    "avg_duration_sec": 0.1701
  },
  "metadata": {
    "source": "P\\Pepenga Pengo\\11 - Stage 9- Robot World.vgz"
  },
  "notes": [
    {
      "channel": 4,
      "note": 57,
      "start": 0.0022,
      "duration": 0.0139,
      "velocity": 113,
      "chip": "ym2612"
    },
    {
      "channel": 3,
      "note": 73,
      "start": 0.0061,
      "duration": 0.0111,
      "velocity": 80,
      "chip": "ym2612"
    },
    {
      "channel": 4,
      "note": 57,
      "start": 0.0169,
      "duration": 0.0105,
      "velocity": 113,
      "chip": "ym2612"
    },
    {
      "channel": 3,
      "note": 72,
      "start": 0.018,
      "duration": 0.0104,
      "velocity": 80,
      "chip": "ym2612"
    },
    {
      "channel": 4,
      "note": 57,
      "start": 0.0282,
      "duration": 0.0106,
      "velocity": 113,
      "chip": "ym2612"
    },
    {
      "channel": 3,
      "note": 71,
      "start": 0.0293,
      "duration": 0.0108,
      "velocity": 80,
      "chip": "ym2612"
    },
    {
      "channel": 4,
      "note": 57,
      "start": 0.0396,
      "duration": 0.011,
      "velocity": 113,
      "chip": "ym2612"
    },
    {
      "channel": 3,
      "note": 69,
      "start": 0.0409,
      "duration": 0.0109,
      "velocity": 80,
      "chip": "ym2612"
    },
    {
      "channel": 4,
      "note": 64,
      "start": 0.0516,
      "duration": 0.0078,
      "velocity": 113,
      "chip": "ym2612"
    },
    {
      "channel": 3,
      "note": 73,
      "start": 0.0527,
      "duration": 0.0076,
      "velocity": 80,
      "chip": "ym2612"
    },
    {
      "channel": 4,
      "note": 57,
      "start": 0.0601,
      "duration": 0.0103,
      "velocity": 113,
      "chip": "ym2612"
    },
    {
      "channel": 3,
      "note": 72,
      "start": 0.0611,
      "duration": 0.0103,
      "velocity": 80,
      "chip": "ym2612"
    },
    {
      "channel": 4,
      "note": 57,
      "start": 0.0712,
      "duration": 0.011,
      "velocity": 113,
      "chip": "ym2612"
    },
    {
      "channel": 3,
      "note": 71,
      "start": 0.0724,
      "duration": 0.0111,
      "velocity": 80,
      "chip": "ym2612"
    },
    {
      "channel": 4,
      "note": 57,
      "start": 0.0831,
      "duration": 0.0109,
      "velocity": 113,
      "chip": "ym2612"
    },
    {
      "channel": 3,
      "note": 69,
      "start": 0.0843,
      "duration": 0.0107,
      "velocity": 80,
      "chip": "ym2612"
    },
    {
      "channel": 4,
      "note": 57,
      "start": 0.0948,
      "duration": 0.0107,
      "velocity": 113,
      "chip": "ym2612"
    },
    {
      "channel": 3,
      "note": 73,
      "start": 0.0959,
      "duration": 0.0108,
      "velocity": 80,
      "chip": "ym2612"
    },
    {
      "channel": 4,
      "note": 57,
      "start": 0.1064,
      "duration": 0.0109,
      "velocity": 113,
      "chip": "ym2612"
    },
    {
      "channel": 3,
      "note": 72,
      "start": 0.1075,
      "duration": 0.0111,
      "velocity": 80,
      "chip": "ym2612"
    },
    {
      "channel": 4,
      "note": 57,
      "start": 0.1181,
      "duration": 0.011,
      "velocity": 113,
      "chip": "ym2612"
    },
    {
      "channel": 3,
      "note": 71,
      "start": 0.1194,
      "duration": 0.0109,
      "velocity": 80,
      "chip": "ym2612"
    },
    {
      "channel": 4,
      "note": 57,
      "start": 0.13,
      "duration": 0.0096,
      "velocity": 113,
      "chip": "ym2612"
    },
    {
      "channel": 3,
      "note": 69,
      "start": 0.1311,
      "duration": 0.0096,
      "velocity": 80,
      "chip": "ym2612"
    },
    {
      "channel": 4,
      "note": 64,
      "start": 0.1404,
      "duration": 0.009,
      "velocity": 113,
      "chip": "ym2612"
    },
    {
      "channel": 3,
      "note": 73,
      "start": 0.1415,
      "duration": 0.0092,
      "velocity": 80,
      "chip": "ym2612"
    },
    {
      "channel": 4,
      "note": 57,
      "start": 0.1503,
      "duration": 0.0111,
      "velocity": 113,
      "chip": "ym2612"
    },
    {
      "channel": 3,
      "note": 72,
      "start": 0.1516,
      "duration": 0.011,
      "velocity": 80,
      "chip": "ym2612"
    },
    {
      "channel": 4,
      "note": 57,
      "start": 0.1623,
      "duration": 0.0111,
      "velocity": 113,
      "chip": "ym2612"
    },
    {
      "channel": 3,
      "note": 71,
      "start": 0.1635,
      "duration": 0.0109,
      "velocity": 80,
      "chip": "ym2612"
    },
    {
      "channel": 4,
      "note": 57,
      "start": 0.1742,
      "duration": 0.0118,
      "velocity": 113,
      "chip": "ym2612"
    },
    {
      "channel": 3,
      "note": 69,
      "start": 0.1753,
      "duration": 0.0131,
      "velocity": 80,
      "chip": "ym2612"
    },
    {
      "channel": 0,
      "note": 73,
      "start": 0.1857,
      "duration": 0.0921,
      "velocity": 81,
      "chip": "ym2612"
    },
    {
      "channel": 4,
      "note": 57,
      "start": 0.1868,
      "duration": 0.0131,
      "velocity": 113,
      "chip": "ym2612"
    },
    {
      "channel": 2,
      "note": 69,
      "start": 0.188,
      "duration": 0.0921,
      "velocity": 81,
      "chip": "ym2612"
    },
    {
      "channel": 3,
      "note": 73,
      "start": 0.1892,
      "duration": 0.012,
      "velocity": 80,
      "chip": "ym2612"
    },
    {
      "channel": 4,
      "note": 57,
      "start": 0.2008,
      "duration": 0.0111,
      "velocity": 113,
      "chip": "ym2612"
    },
    {
      "channel": 3,
      "note": 72,
      "start": 0.2021,
      "duration": 0.0111,
      "velocity": 80,
      "chip": "ym2612"
    },
    {
      "channel": 4,
      "note": 57,
      "start": 0.2127,
      "duration": 0.0108,
      "velocity": 113,
      "chip": "ym2612"
    },
    {
      "channel": 3,
      "note": 71,
      "start": 0.2141,
      "duration": 0.0106,
      "velocity": 80,
      "chip": "ym2612"
    },
    {
      "channel": 4,
      "note": 57,
      "start": 0.2244,
      "duration": 0.0095,
      "velocity": 113,
      "chip": "ym2612"
    },
    {
      "channel": 3,
      "note": 69,
      "start": 0.2255,
      "duration": 0.0094,
      "velocity": 80,
      "chip": "ym2612"
    },
    {
      "channel": 4,
      "note": 64,
      "start": 0.2346,
      "duration": 0.0084,
      "velocity": 113,
      "chip": "ym2612"
    },
    {
      "channel": 3,
      "note": 73,
      "start": 0.2357,
      "duration": 0.0084,
      "velocity": 80,
      "chip": "ym2612"
    },
    {
      "channel": 4,
      "note": 57,
      "start": 0.2439,
      "duration": 0.0106,
      "velocity": 113,
      "chip": "ym2612"
    },
    {
      "channel": 3,
      "note": 72,
      "start": 0.245,
      "duration": 0.0108,
      "velocity": 80,
      "chip": "ym2612"
    },
    {
      "channel": 4,
      "note": 57,
      "start": 0.2554,
      "duration": 0.0109,
      "velocity": 113,
      "chip": "ym2612"
    },
    {
      "channel": 3,
      "note": 71,
      "start": 0.2566,
      "duration": 0.0107,
      "velocity": 80,
      "chip": "ym2612"
    },
    {
      "channel": 4,
      "note": 57,
      "start": 0.267,
      "duration": 0.012,
      "velocity": 113,
      "chip": "ym2612"
    },
    {
      "channel": 3,
      "note": 69,
      "start": 0.2681,
      "duration": 0.0132,
      "velocity": 80,
      "chip": "ym2612"
    },
    {
      "channel": 0,
      "note": 76,
      "start": 0.2787,
      "duration": 0.0697,
      "velocity": 81,
      "chip": "ym2612"
    },
    {
      "channel": 4,
      "note": 57,
      "start": 0.2798,
      "duration": 0.0132,
      "velocity": 113,
      "chip": "ym2612"
    },
    {
      "channel": 2,
      "note": 73,
      "start": 0.281,
      "duration": 0.0696,
      "velocity": 81,
      "chip": "ym2612"
    },
    {
      "channel": 3,
      "note": 73,
      "start": 0.2821,
      "duration": 0.0122,
      "velocity": 80,
      "chip": "ym2612"
    },
    {
      "channel": 4,
      "note": 57,
      "start": 0.2939,
      "duration": 0.0111,
      "velocity": 113,
      "chip": "ym2612"
    },
    {
      "channel": 3,
      "note": 72,
      "start": 0.2952,
      "duration": 0.0108,
      "velocity": 80,
      "chip": "ym2612"
    },
    {
      "channel": 4,
      "note": 57,
      "start": 0.3059,
      "duration": 0.0109,
      "velocity": 113,
      "chip": "ym2612"
    },
    {
      "channel": 3,
      "note": 71,
      "start": 0.3068,
      "duration": 0.0111,
      "velocity": 80,
      "chip": "ym2612"
    },
    {
      "channel": 4,
      "note": 57,
      "start": 0.3176,
      "duration": 0.0111,
      "velocity": 113,
      "chip": "ym2612"
    },
    {
      "channel": 3,
      "note": 69,
      "start": 0.3189,
      "duration": 0.0108,
      "velocity": 80,
      "chip": "ym2612"
    },
    {
      "channel": 4,
      "note": 64,
      "start": 0.3295,
      "duration": 0.0077,
      "velocity": 113,
      "chip": "ym2612"
    },
    {
      "channel": 3,
      "note": 73,
      "start": 0.3305,
      "duration": 0.0076,
      "velocity": 80,
      "chip": "ym2612"
    },
    {
      "channel": 4,
      "note": 57,
      "start": 0.338,
      "duration": 0.0115,
      "velocity": 113,
      "chip": "ym2612"
    },
    {
      "channel": 3,
      "note": 72,
      "start": 0.339,
      "duration": 0.0128,
      "velocity": 80,
      "chip": "ym2612"
    },
    {
      "channel": 0,
      "note": 73,
      "start": 0.3492,
      "duration": 0.0236,
      "velocity": 81,
      "chip": "ym2612"
    },
    {
      "channel": 4,
      "note": 57,
      "start": 0.3503,
      "duration": 0.011,
      "velocity": 113,
      "chip": "ym2612"
    },
    {
      "channel": 2,
      "note": 69,
      "start": 0.3515,
      "duration": 0.0236,
      "velocity": 81,
      "chip": "ym2612"
    },
    {
      "channel": 3,
      "note": 71,
      "start": 0.3526,
      "duration": 0.0097,
      "velocity": 80,
      "chip": "ym2612"
    },
    {
      "channel": 4,
      "note": 57,
      "start": 0.3621,
      "duration": 0.0118,
      "velocity": 113,
      "chip": "ym2612"
    },
    {
      "channel": 3,
      "note": 69,
      "start": 0.3632,
      "duration": 0.0129,
      "velocity": 80,
      "chip": "ym2612"
    },
    {
      "channel": 0,
      "note": 75,
      "start": 0.3736,
      "duration": 0.0272,
      "velocity": 81,
      "chip": "ym2612"
    },
    {
      "channel": 4,
      "note": 57,
      "start": 0.3748,
      "duration": 0.0141,
      "velocity": 113,
      "chip": "ym2612"
    },
    {
      "channel": 2,
      "note": 69,
      "start": 0.3759,
      "duration": 0.0273,
      "velocity": 81,
      "chip": "ym2612"
    },
    {
      "channel": 3,
      "note": 73,
      "start": 0.377,
      "duration": 0.0132,
      "velocity": 80,
      "chip": "ym2612"
    },
    {
      "channel": 4,
      "note": 57,
      "start": 0.3898,
      "duration": 0.0122,
      "velocity": 113,
      "chip": "ym2612"
    },
    {
      "channel": 3,
      "note": 72,
      "start": 0.3911,
      "duration": 0.0131,
      "velocity": 80,
      "chip": "ym2612"
    },
    {
      "channel": 0,
      "note": 75,
      "start": 0.4017,
      "duration": 0.0118,
      "velocity": 81,
      "chip": "ym2612"
    },
    {
      "channel": 4,
      "note": 57,
      "start": 0.4028,
      "duration": 0.0118,
      "velocity": 113,
      "chip": "ym2612"
    },
    {
      "channel": 2,
      "note": 69,
      "start": 0.4039,
      "duration": 0.0117,
      "velocity": 81,
      "chip": "ym2612"
    },
    {
      "channel": 3,
      "note": 71,
      "start": 0.4051,
      "duration": 0.0117,
      "velocity": 80,
      "chip": "ym2612"
    },
    {
      "channel": 0,
      "note": 73,
      "start": 0.4143,
      "duration": 0.0131,
      "velocity": 81,
      "chip": "ym2612"
    },
    {
      "channel": 4,
      "note": 57,
      "start": 0.4155,
      "duration": 0.0129,
      "velocity": 113,
      "chip": "ym2612"
    },
    {
      "channel": 2,
      "note": 69,
      "start": 0.4165,
      "duration": 0.013,
      "velocity": 81,
      "chip": "ym2612"
    },
    {
      "channel": 3,
      "note": 69,
      "start": 0.4177,
      "duration": 0.0129,
      "velocity": 80,
      "chip": "ym2612"
    },
    {
      "channel": 0,
      "note": 71,
      "start": 0.4281,
      "duration": 0.0212,
      "velocity": 81,
      "chip": "ym2612"
    },
    {
      "channel": 4,
      "note": 64,
      "start": 0.4293,
      "duration": 0.0088,
      "velocity": 113,
      "chip": "ym2612"
    },
    {
      "channel": 2,
      "note": 69,
      "start": 0.4303,
      "duration": 0.0213,
      "velocity": 81,
      "chip": "ym2612"
    },
    {
      "channel": 3,
      "note": 73,
      "start": 0.4314,
      "duration": 0.0077,
      "velocity": 80,
      "chip": "ym2612"
    },
    {
      "channel": 4,
      "note": 57,
      "start": 0.4388,
      "duration": 0.0117,
      "velocity": 113,
      "chip": "ym2612"
    },
    {
      "channel": 3,
      "note": 72,
      "start": 0.4399,
      "duration": 0.0127,
      "velocity": 80,
      "chip": "ym2612"
    },
    {
      "channel": 0,
      "note": 75,
      "start": 0.4502,
      "duration": 0.0235,
      "velocity": 81,
      "chip": "ym2612"
    },
    {
      "channel": 4,
      "note": 57,
      "start": 0.4513,
      "duration": 0.0109,
      "velocity": 113,
      "chip": "ym2612"
    },
    {
      "channel": 2,
      "note": 69,
      "start": 0.4525,
      "duration": 0.0235,
      "velocity": 81,
      "chip": "ym2612"
    },
    {
      "channel": 3,
      "note": 71,
      "start": 0.4535,
      "duration": 0.0098,
      "velocity": 80,
      "chip": "ym2612"
    },
    {
      "channel": 4,
      "note": 57,
      "start": 0.463,
      "duration": 0.0118,
      "velocity": 113,
      "chip": "ym2612"
    },
    {
      "channel": 3,
      "note": 69,
      "start": 0.4641,
      "duration": 0.013,
      "velocity": 80,
      "chip": "ym2612"
    },
    {
      "channel": 0,
      "note": 73,
      "start": 0.4746,
      "duration": 0.0234,
      "velocity": 81,
      "chip": "ym2612"
    },
    {
      "channel": 4,
      "note": 57,
      "start": 0.4757,
      "duration": 0.0107,
      "velocity": 113,
      "chip": "ym2612"
    },
    {
      "channel": 2,
      "note": 69,
      "start": 0.4768,
      "duration": 0.0233,
      "velocity": 81,
      "chip": "ym2612"
    },
    {
      "channel": 3,
      "note": 73,
      "start": 0.478,
      "duration": 0.0095,
      "velocity": 80,
      "chip": "ym2612"
    },
    {
      "channel": 4,
      "note": 57,
      "start": 0.4873,
      "duration": 0.0118,
      "velocity": 113,
      "chip": "ym2612"
    },
    {
      "channel": 3,
      "note": 72,
      "start": 0.4883,
      "duration": 0.0129,
      "velocity": 80,
      "chip": "ym2612"
    },
    {
      "channel": 0,
      "note": 71,
      "start": 0.4988,
      "duration": 0.014,
      "velocity": 81,
      "chip": "ym2612"
    },
    {
      "channel": 4,
      "note": 57,
      "start": 0.4999,
      "duration": 0.0141,
      "velocity": 113,
      "chip": "ym2612"
    },
    {
      "channel": 2,
      "note": 69,
      "start": 0.501,
      "duration": 0.0141,
      "velocity": 81,
      "chip": "ym2612"
    },
    {
      "channel": 3,
      "note": 71,
      "start": 0.5021,
      "duration": 0.0141,
      "velocity": 80,
      "chip": "ym2612"
    },
    {
      "channel": 0,
      "note": 69,
      "start": 0.5136,
      "duration": 0.0129,
      "velocity": 81,
      "chip": "ym2612"
    },
    {
      "channel": 4,
      "note": 57,
      "start": 0.5148,
      "duration": 0.0119,
      "velocity": 113,
      "chip": "ym2612"
    },
    {
      "channel": 2,
      "note": 69,
      "start": 0.5159,
      "duration": 0.0127,
      "velocity": 81,
      "chip": "ym2612"
    },
    {
      "channel": 3,
      "note": 69,
      "start": 0.5171,
      "duration": 0.0117,
      "velocity": 80,
      "chip": "ym2612"
    },
    {
      "channel": 0,
      "note": 69,
      "start": 0.5265,
      "duration": 0.0257,
      "velocity": 81,
      "chip": "ym2612"
    },
    {
      "channel": 4,
      "note": 64,
      "start": 0.5276,
      "duration": 0.0127,
      "velocity": 113,
      "chip": "ym2612"
    },
    {
      "channel": 2,
      "note": 69,
      "start": 0.5286,
      "duration": 0.053,
      "velocity": 81,
      "chip": "ym2612"
    },
    {
      "channel": 3,
      "note": 73,
      "start": 0.5298,
      "duration": 0.0118,
      "velocity": 80,
      "chip": "ym2612"
    },
    {
      "channel": 4,
      "note": 57,
      "start": 0.5412,
      "duration": 0.0122,
      "velocity": 113,
      "chip": "ym2612"
    },
    {
      "channel": 3,
      "note": 72,
      "start": 0.5424,
      "duration": 0.0122,
      "velocity": 80,
      "chip": "ym2612"
    },
    {
      "channel": 0,
      "note": 64,
      "start": 0.553,
      "duration": 0.0263,
      "velocity": 81,
      "chip": "ym2612"
    },
    {
      "channel": 4,
      "note": 57,
      "start": 0.5541,
      "duration": 0.0132,
      "velocity": 113,
      "chip": "ym2612"
    },
    {
      "channel": 3,
      "note": 71,
      "start": 0.5554,
      "duration": 0.0132,
      "velocity": 80,
      "chip": "ym2612"
    },
    {
      "channel": 4,
      "note": 57,
      "start": 0.5682,
      "duration": 0.0123,
      "velocity": 113,
      "chip": "ym2612"
    },
    {
      "channel": 3,
      "note": 69,
      "start": 0.5695,
      "duration": 0.0133,
      "velocity": 80,
      "chip": "ym2612"
    },
    {
      "channel": 0,
      "note": 67,
      "start": 0.5802,
      "duration": 0.0703,
      "velocity": 81,
      "chip": "ym2612"
    },
    {
      "channel": 4,
      "note": 55,
      "start": 0.5813,
      "duration": 0.0132,
      "velocity": 113,
      "chip": "ym2612"
    },
    {
      "channel": 2,
      "note": 67,
      "start": 0.5825,
      "duration": 0.0703,
      "velocity": 81,
      "chip": "ym2612"
    },
    {
      "channel": 3,
      "note": 71,
      "start": 0.5836,
      "duration": 0.0122,
      "velocity": 80,
      "chip": "ym2612"
    },
    {
      "channel": 4,
      "note": 55,
      "start": 0.5954,
      "duration": 0.0112,
      "velocity": 113,
      "chip": "ym2612"
    },
    {
      "channel": 3,
      "note": 70,
      "start": 0.5967,
      "duration": 0.0112,
      "velocity": 80,
      "chip": "ym2612"
    },
    {
      "channel": 4,
      "note": 55,
      "start": 0.6074,
      "duration": 0.011,
      "velocity": 113,
      "chip": "ym2612"
    },
    {
      "channel": 3,
      "note": 69,
      "start": 0.6087,
      "duration": 0.0108,
      "velocity": 80,
      "chip": "ym2612"
    },
    {
      "channel": 4,
      "note": 55,
      "start": 0.6193,
      "duration": 0.0094,
      "velocity": 113,
      "chip": "ym2612"
    },
    {
      "channel": 3,
      "note": 68,
      "start": 0.6204,
      "duration": 0.0094,
      "velocity": 80,
      "chip": "ym2612"
    },
    {
      "channel": 4,
      "note": 62,
      "start": 0.6296,
      "duration": 0.009,
      "velocity": 113,
      "chip": "ym2612"
    },
    {
      "channel": 3,
      "note": 71,
      "start": 0.6307,
      "duration": 0.0093,
      "velocity": 80,
      "chip": "ym2612"
    },
    {
      "channel": 4,
      "note": 55,
      "start": 0.6395,
      "duration": 0.0122,
      "velocity": 113,
      "chip": "ym2612"
    },
    {
      "channel": 3,
      "note": 70,
      "start": 0.6408,
      "duration": 0.0132,
      "velocity": 80,
      "chip": "ym2612"
    },
    {
      "channel": 0,
      "note": 71,
      "start": 0.6514,
      "duration": 0.0262,
      "velocity": 81,
      "chip": "ym2612"
    },
    {
      "channel": 4,
      "note": 55,
      "start": 0.6525,
      "duration": 0.0132,
      "velocity": 113,
      "chip": "ym2612"
    },
    {
      "channel": 2,
      "note": 67,
      "start": 0.6537,
      "duration": 0.0262,
      "velocity": 81,
      "chip": "ym2612"
    },
    {
      "channel": 3,
      "note": 69,
      "start": 0.6548,
      "duration": 0.0122,
      "velocity": 80,
      "chip": "ym2612"
    },
    {
      "channel": 4,
      "note": 55,
      "start": 0.6666,
      "duration": 0.0121,
      "velocity": 113,
      "chip": "ym2612"
    },
    {
      "channel": 3,
      "note": 68,
      "start": 0.6679,
      "duration": 0.0131,
      "velocity": 80,
      "chip": "ym2612"
    },
    {
      "channel": 0,
      "note": 74,
      "start": 0.6784,
      "duration": 0.0718,
      "velocity": 81,
      "chip": "ym2612"
    },
    {
      "channel": 4,
      "note": 55,
      "start": 0.6795,
      "duration": 0.0132,
      "velocity": 113,
      "chip": "ym2612"
    },
    {
      "channel": 2,
      "note": 67,
      "start": 0.6807,
      "duration": 0.0717,
      "velocity": 81,
      "chip": "ym2612"
    },
    {
      "channel": 3,
      "note": 71,
      "start": 0.6819,
      "duration": 0.0121,
      "velocity": 80,
      "chip": "ym2612"
    },
    {
      "channel": 4,
      "note": 55,
      "start": 0.6936,
      "duration": 0.0111,
      "velocity": 113,
      "chip": "ym2612"
    },
    {
      "channel": 3,
      "note": 70,
      "start": 0.6949,
      "duration": 0.011,
      "velocity": 80,
      "chip": "ym2612"
    },
    {
      "channel": 4,
      "note": 55,
      "start": 0.7055,
      "duration": 0.011,
      "velocity": 113,
      "chip": "ym2612"
    },
    {
      "channel": 3,
      "note": 69,
      "start": 0.7067,
      "duration": 0.0109,
      "velocity": 80,
      "chip": "ym2612"
    },
    {
      "channel": 4,
      "note": 55,
      "start": 0.7174,
      "duration": 0.0106,
      "velocity": 113,
      "chip": "ym2612"
    },
    {
      "channel": 3,
      "note": 68,
      "start": 0.7184,
      "duration": 0.0106,
      "velocity": 80,
      "chip": "ym2612"
    },
    {
      "channel": 4,
      "note": 62,
      "start": 0.7288,
      "duration": 0.0099,
      "velocity": 113,
      "chip": "ym2612"
    },
    {
      "channel": 3,
      "note": 71,
      "start": 0.7299,
      "duration": 0.01,
      "velocity": 80,
      "chip": "ym2612"
    },
    {
      "channel": 4,
      "note": 55,
      "start": 0.7396,
      "duration": 0.0117,
      "velocity": 113,
      "chip": "ym2612"
    },
    {
      "channel": 3,
      "note": 70,
      "start": 0.7406,
      "duration": 0.013,
      "velocity": 80,
      "chip": "ym2612"
    },
    {
      "channel": 0,
      "note": 78,
      "start": 0.7511,
      "duration": 0.0237,
      "velocity": 81,
      "chip": "ym2612"
    },
    {
      "channel": 4,
      "note": 55,
      "start": 0.7522,
      "duration": 0.011,
      "velocity": 113,
      "chip": "ym2612"
    },
    {
      "channel": 2,
      "note": 71,
      "start": 0.7533,
      "duration": 0.0238,
      "velocity": 81,
      "chip": "ym2612"
    },
    {
      "channel": 3,
      "note": 69,
      "start": 0.7544,
      "duration": 0.0098,
      "velocity": 80,
      "chip": "ym2612"
    },
    {
      "channel": 4,
      "note": 55,
      "start": 0.7639,
      "duration": 0.012,
      "velocity": 113,
      "chip": "ym2612"
    },
    {
      "channel": 3,
      "note": 68,
      "start": 0.7651,
      "duration": 0.013,
      "velocity": 80,
      "chip": "ym2612"
    },
    {
      "channel": 0,
      "note": 76,
      "start": 0.7756,
      "duration": 0.1401,
      "velocity": 81,
      "chip": "ym2612"
    },
    {
      "channel": 4,
      "note": 57,
      "start": 0.7768,
      "duration": 0.014,
      "velocity": 113,
      "chip": "ym2612"
    },
    {
      "channel": 2,
      "note": 73,
      "start": 0.7779,
      "duration": 0.1398,
      "velocity": 81,
      "chip": "ym2612"
    },
    {
      "channel": 3,
      "note": 73,
      "start": 0.779,
      "duration": 0.013,
      "velocity": 80,
      "chip": "ym2612"
    },
    {
      "channel": 4,
      "note": 57,
      "start": 0.7916,
      "duration": 0.011,
      "velocity": 113,
      "chip": "ym2612"
    },
    {
      "channel": 3,
      "note": 72,
      "start": 0.7928,
      "duration": 0.0107,
      "velocity": 80,
      "chip": "ym2612"
    },
    {
      "channel": 4,
      "note": 57,
      "start": 0.8034,
      "duration": 0.0107,
      "velocity": 113,
      "chip": "ym2612"
    },
    {
      "channel": 3,
      "note": 71,
      "start": 0.8045,
      "duration": 0.0109,
      "velocity": 80,
      "chip": "ym2612"
    },
    {
      "channel": 4,
      "note": 57,
      "start": 0.815,
      "duration": 0.011,
      "velocity": 113,
      "chip": "ym2612"
    },
    {
      "channel": 3,
      "note": 69,
      "start": 0.8162,
      "duration": 0.0107,
      "velocity": 80,
      "chip": "ym2612"
    },
    {
      "channel": 4,
      "note": 64,
      "start": 0.8268,
      "duration": 0.0098,
      "velocity": 113,
      "chip": "ym2612"
    },
    {
      "channel": 3,
      "note": 73,
      "start": 0.8278,
      "duration": 0.0099,
      "velocity": 80,
      "chip": "ym2612"
    },
    {
      "channel": 4,
      "note": 57,
      "start": 0.8375,
      "duration": 0.0107,
      "velocity": 113,
      "chip": "ym2612"
    },
    {
      "channel": 3,
      "note": 72,
      "start": 0.8386,
      "duration": 0.0106,
      "velocity": 80,
      "chip": "ym2612"
    },
    {
      "channel": 4,
      "note": 57,
      "start": 0.849,
      "duration": 0.011,
      "velocity": 113,
      "chip": "ym2612"
    },
    {
      "channel": 3,
      "note": 71,
      "start": 0.85,
      "duration": 0.0112,
      "velocity": 80,
      "chip": "ym2612"
    },
    {
      "channel": 4,
      "note": 57,
      "start": 0.8608,
      "duration": 0.0109,
      "velocity": 113,
      "chip": "ym2612"
    },
    {
      "channel": 3,
      "note": 69,
      "start": 0.8621,
      "duration": 0.0107,
      "velocity": 80,
      "chip": "ym2612"
    },
    {
      "channel": 4,
      "note": 57,
      "start": 0.8726,
      "duration": 0.0077,
      "velocity": 113,
      "chip": "ym2612"
    },
    {
      "channel": 3,
      "note": 73,
      "start": 0.8736,
      "duration": 0.0076,
      "velocity": 80,
      "chip": "ym2612"
    },
    {
      "channel": 4,
      "note": 57,
      "start": 0.881,
      "duration": 0.0104,
      "velocity": 113,
      "chip": "ym2612"
    },
    {
      "channel": 3,
      "note": 72,
      "start": 0.8821,
      "duration": 0.0105,
      "velocity": 80,
      "chip": "ym2612"
    },
    {
      "channel": 4,
      "note": 57,
      "start": 0.8922,
      "duration": 0.011,
      "velocity": 113,
      "chip": "ym2612"
    },
    {
      "channel": 3,
      "note": 71,
      "start": 0.8934,
      "duration": 0.0111,
      "velocity": 80,
      "chip": "ym2612"
    },
    {
      "channel": 4,
      "note": 57,
      "start": 0.9041,
      "duration": 0.0118,
      "velocity": 113,
      "chip": "ym2612"
    },
    {
      "channel": 3,
      "note": 69,
      "start": 0.9054,
      "duration": 0.0126,
      "velocity": 80,
      "chip": "ym2612"
    },
    {
      "channel": 0,
      "note": 76,
      "start": 0.9157,
      "duration": 0.0244,
      "velocity": 81,
      "chip": "ym2612"
    },
    {
      "channel": 4,
      "note": 64,
      "start": 0.9168,
      "duration": 0.0113,
      "velocity": 113,
      "chip": "ym2612"
    },
    {
      "channel": 2,
      "note": 73,
      "start": 0.9177,
      "duration": 0.0246,
      "velocity": 81,
      "chip": "ym2612"
    },
    {
      "channel": 3,
      "note": 73,
      "start": 0.9188,
      "duration": 0.0106,
      "velocity": 80,
      "chip": "ym2612"
    },
    {
      "channel": 4,
      "note": 57,
      "start": 0.9289,
      "duration": 0.0123,
      "velocity": 113,
      "chip": "ym2612"
    },
    {
      "channel": 3,
      "note": 72,
      "start": 0.9302,
      "duration": 0.0134,
      "velocity": 80,
      "chip": "ym2612"
    },
    {
      "channel": 0,
      "note": 76,
      "start": 0.9409,
      "duration": 0.0142,
      "velocity": 81,
      "chip": "ym2612"
    },
    {
      "channel": 4,
      "note": 57,
      "start": 0.9421,
      "duration": 0.0141,
      "velocity": 113,
      "chip": "ym2612"
    },
    {
      "channel": 2,
      "note": 69,
      "start": 0.9433,
      "duration": 0.0141,
      "velocity": 81,
      "chip": "ym2612"
    },
    {
      "channel": 3,
      "note": 71,
      "start": 0.9444,
      "duration": 0.0141,
      "velocity": 80,
      "chip": "ym2612"
    },
    {
      "channel": 0,
      "note": 78,
      "start": 0.9559,
      "duration": 0.0118,
      "velocity": 81,
      "chip": "ym2612"
    },
    {
      "channel": 4,
      "note": 57,
      "start": 0.9571,
      "duration": 0.0117,
      "velocity": 113,
      "chip": "ym2612"
    },
    {
      "channel": 2,
      "note": 69,
      "start": 0.9582,
      "duration": 0.0118,
      "velocity": 81,
      "chip": "ym2612"
    },
    {
      "channel": 3,
      "note": 69,
      "start": 0.9594,
      "duration": 0.0118,
      "velocity": 80,
      "chip": "ym2612"
    },
    {
      "channel": 0,
      "note": 79,
      "start": 0.9686,
      "duration": 0.0143,
      "velocity": 81,
      "chip": "ym2612"
    },
    {
      "channel": 4,
      "note": 60,
      "start": 0.9697,
      "duration": 0.0144,
      "velocity": 113,
      "chip": "ym2612"
    },
    {
      "channel": 2,
      "note": 72,
      "start": 0.9709,
      "duration": 0.0144,
      "velocity": 81,
      "chip": "ym2612"
    },
    {
      "channel": 3,
      "note": 72,
      "start": 0.972,
      "duration": 0.0144,
      "velocity": 80,
      "chip": "ym2612"
    },
    {
      "channel": 0,
      "note": 76,
      "start": 0.9838,
      "duration": 0.012,
      "velocity": 81,
      "chip": "ym2612"
    },
    {
      "channel": 4,
      "note": 60,
      "start": 0.9849,
      "duration": 0.0119,
      "velocity": 113,
      "chip": "ym2612"
    },
    {
      "channel": 2,
      "note": 72,
      "start": 0.9861,
      "duration": 0.012,
      "velocity": 81,
      "chip": "ym2612"
    },
    {
      "channel": 3,
      "note": 71,
      "start": 0.9872,
      "duration": 0.0119,
      "velocity": 80,
      "chip": "ym2612"
    },
    {
      "channel": 0,
      "note": 81,
      "start": 0.9966,
      "duration": 0.0141,
      "velocity": 81,
      "chip": "ym2612"
    },
    {
      "channel": 4,
      "note": 60,
      "start": 0.9978,
      "duration": 0.0141,
      "velocity": 113,
      "chip": "ym2612"
    },
    {
      "channel": 2,
      "note": 72,
      "start": 0.9989,
      "duration": 0.0141,
      "velocity": 81,
      "chip": "ym2612"
    },
    {
      "channel": 3,
      "note": 69,
      "start": 1.0,
      "duration": 0.0141,
      "velocity": 80,
      "chip": "ym2612"
    },
    {
      "channel": 0,
      "note": 76,
      "start": 1.0115,
      "duration": 0.0119,
      "velocity": 81,
      "chip": "ym2612"
    },
    {
      "channel": 4,
      "note": 60,
      "start": 1.0127,
      "duration": 0.0118,
      "velocity": 113,
      "chip": "ym2612"
    },
    {
      "channel": 2,
      "note": 72,
      "start": 1.0138,
      "duration": 0.0119,
      "velocity": 81,
      "chip": "ym2612"
    },
    {
      "channel": 3,
      "note": 67,
      "start": 1.015,
      "duration": 0.0119,
      "velocity": 80,
      "chip": "ym2612"
    },
    {
      "channel": 0,
      "note": 79,
      "start": 1.0242,
      "duration": 0.0349,
      "velocity": 81,
      "chip": "ym2612"
    },
    {
      "channel": 4,
      "note": 67,
      "start": 1.0254,
      "duration": 0.0102,
      "velocity": 113,
      "chip": "ym2612"
    },
    {
      "channel": 2,
      "note": 72,
      "start": 1.0265,
      "duration": 0.0347,
      "velocity": 81,
      "chip": "ym2612"
    },
    {
      "channel": 3,
      "note": 72,
      "start": 1.0277,
      "duration": 0.0091,
      "velocity": 80,
      "chip": "ym2612"
    },
    {
      "channel": 4,
      "note": 60,
      "start": 1.0365,
      "duration": 0.011,
      "velocity": 113,
      "chip": "ym2612"
    },
    {
      "channel": 3,
      "note": 71,
      "start": 1.0377,
      "duration": 0.011,
      "velocity": 80,
      "chip": "ym2612"
    },
    {
      "channel": 4,
      "note": 60,
      "start": 1.0483,
      "duration": 0.0118,
      "velocity": 113,
      "chip": "ym2612"
    },
    {
      "channel": 3,
      "note": 69,
      "start": 1.0497,
      "duration": 0.0127,
      "velocity": 80,
      "chip": "ym2612"
    },
    {
      "channel": 0,
      "note": 76,
      "start": 1.0599,
      "duration": 0.012,
      "velocity": 81,
      "chip": "ym2612"
    },
    {
      "channel": 4,
      "note": 60,
      "start": 1.061,
      "duration": 0.0119,
      "velocity": 113,
      "chip": "ym2612"
    },
    {
      "channel": 2,
      "note": 72,
      "start": 1.0622,
      "duration": 0.0118,
      "velocity": 81,
      "chip": "ym2612"
    },
    {
      "channel": 3,
      "note": 67,
      "start": 1.0633,
      "duration": 0.0118,
      "velocity": 80,
      "chip": "ym2612"
    },
    {
      "channel": 0,
      "note": 79,
      "start": 1.0726,
      "duration": 0.0141,
      "velocity": 81,
      "chip": "ym2612"
    },
    {
      "channel": 4,
      "note": 60,
      "start": 1.0738,
      "duration": 0.0141,
      "velocity": 113,
      "chip": "ym2612"
    },
    {
      "channel": 2,
      "note": 72,
      "start": 1.0748,
      "duration": 0.0143,
      "velocity": 81,
      "chip": "ym2612"
    },
    {
      "channel": 3,
      "note": 72,
      "start": 1.0759,
      "duration": 0.0143,
      "velocity": 80,
      "chip": "ym2612"
    },
    {
      "channel": 0,
      "note": 76,
      "start": 1.0876,
      "duration": 0.0119,
      "velocity": 81,
      "chip": "ym2612"
    },
    {
      "channel": 4,
      "note": 60,
      "start": 1.0888,
      "duration": 0.0118,
      "velocity": 113,
      "chip": "ym2612"
    },
    {
      "channel": 2,
      "note": 72,
      "start": 1.0899,
      "duration": 0.0117,
      "velocity": 81,
      "chip": "ym2612"
    },
    {
      "channel": 3,
      "note": 71,
      "start": 1.0911,
      "duration": 0.0116,
      "velocity": 80,
      "chip": "ym2612"
    },
    {
      "channel": 0,
      "note": 81,
      "start": 1.1002,
      "duration": 0.0141,
      "velocity": 81,
      "chip": "ym2612"
    },
    {
      "channel": 4,
      "note": 60,
      "start": 1.1014,
      "duration": 0.0141,
      "velocity": 113,
      "chip": "ym2612"
    },
    {
      "channel": 2,
      "note": 72,
      "start": 1.1024,
      "duration": 0.0142,
      "velocity": 81,
      "chip": "ym2612"
    },
    {
      "channel": 3,
      "note": 69,
      "start": 1.1036,
      "duration": 0.0142,
      "velocity": 80,
      "chip": "ym2612"
    },
    {
      "channel": 0,
      "note": 76,
      "start": 1.1152,
      "duration": 0.0121,
      "velocity": 81,
      "chip": "ym2612"
    },
    {
      "channel": 4,
      "note": 60,
      "start": 1.1164,
      "duration": 0.012,
      "velocity": 113,
      "chip": "ym2612"
    },
    {
      "channel": 2,
      "note": 72,
      "start": 1.1175,
      "duration": 0.012,
      "velocity": 81,
      "chip": "ym2612"
    },
    {
      "channel": 3,
      "note": 67,
      "start": 1.1186,
      "duration": 0.012,
      "velocity": 80,
      "chip": "ym2612"
    },
    {
      "channel": 0,
      "note": 79,
      "start": 1.1281,
      "duration": 0.0347,
      "velocity": 81,
      "chip": "ym2612"
    },
    {
      "channel": 4,
      "note": 67,
      "start": 1.1292,
      "duration": 0.0102,
      "velocity": 113,
      "chip": "ym2612"
    },
    {
      "channel": 2,
      "note": 72,
      "start": 1.1303,
      "duration": 0.0348,
      "velocity": 81,
      "chip": "ym2612"
    },
    {
      "channel": 3,
      "note": 72,
      "start": 1.1314,
      "duration": 0.0092,
      "velocity": 80,
      "chip": "ym2612"
    },
    {
      "channel": 4,
      "note": 60,
      "start": 1.1402,
      "duration": 0.0108,
      "velocity": 113,
      "chip": "ym2612"
    },
    {
      "channel": 3,
      "note": 71,
      "start": 1.1415,
      "duration": 0.0106,
      "velocity": 80,
      "chip": "ym2612"
    },
    {
      "channel": 4,
      "note": 60,
      "start": 1.1518,
      "duration": 0.0122,
      "velocity": 113,
      "chip": "ym2612"
    },
    {
      "channel": 3,
      "note": 69,
      "start": 1.1529,
      "duration": 0.0133,
      "velocity": 80,
      "chip": "ym2612"
    },
    {
      "channel": 0,
      "note": 76,
      "start": 1.1636,
      "duration": 0.0141,
      "velocity": 81,
      "chip": "ym2612"
    },
    {
      "channel": 4,
      "note": 60,
      "start": 1.1648,
      "duration": 0.0141,
      "velocity": 113,
      "chip": "ym2612"
    },
    {
      "channel": 2,
      "note": 72,
      "start": 1.1659,
      "duration": 0.0141,
      "velocity": 81,
      "chip": "ym2612"
    },
    {
      "channel": 3,
      "note": 67,
      "start": 1.1671,
      "duration": 0.0141,
      "velocity": 80,
      "chip": "ym2612"
    },
    {
      "channel": 0,
      "note": 79,
      "start": 1.1786,
      "duration": 0.0128,
      "velocity": 81,
      "chip": "ym2612"
    },
    {
      "channel": 4,
      "note": 62,
      "start": 1.1798,
      "duration": 0.0127,
      "velocity": 113,
      "chip": "ym2612"
    },
    {
      "channel": 2,
      "note": 74,
      "start": 1.1809,
      "duration": 0.0127,
      "velocity": 81,
      "chip": "ym2612"
    },
    {
      "channel": 3,
      "note": 74,
      "start": 1.182,
      "duration": 0.0126,
      "velocity": 80,
      "chip": "ym2612"
    },
    {
      "channel": 0,
      "note": 76,
      "start": 1.1922,
      "duration": 0.0139,
      "velocity": 81,
      "chip": "ym2612"
    },
    {
      "channel": 4,
      "note": 62,
      "start": 1.1933,
      "duration": 0.014,
      "velocity": 113,
      "chip": "ym2612"
    },
    {
      "channel": 2,
      "note": 74,
      "start": 1.1944,
      "duration": 0.0141,
      "velocity": 81,
      "chip": "ym2612"
    },
    {
      "channel": 3,
      "note": 72,
      "start": 1.1955,
      "duration": 0.014,
      "velocity": 80,
      "chip": "ym2612"
    },
    {
      "channel": 0,
      "note": 81,
      "start": 1.2069,
      "duration": 0.0119,
      "velocity": 81,
      "chip": "ym2612"
    },
    {
      "channel": 4,
      "note": 62,
      "start": 1.2081,
      "duration": 0.0118,
      "velocity": 113,
      "chip": "ym2612"
    },
    {
      "channel": 2,
      "note": 74,
      "start": 1.2093,
      "duration": 0.0117,
      "velocity": 81,
      "chip": "ym2612"
    },
    {
      "channel": 3,
      "note": 71,
      "start": 1.2104,
      "duration": 0.0117,
      "velocity": 80,
      "chip": "ym2612"
    },
    {
      "channel": 0,
      "note": 76,
      "start": 1.2197,
      "duration": 0.013,
      "velocity": 81,
      "chip": "ym2612"
    },
    {
      "channel": 4,
      "note": 62,
      "start": 1.2207,
      "duration": 0.0131,
      "velocity": 113,
      "chip": "ym2612"
    },
    {
      "channel": 2,
      "note": 74,
      "start": 1.2218,
      "duration": 0.013,
      "velocity": 81,
      "chip": "ym2612"
    },
    {
      "channel": 3,
      "note": 69,
      "start": 1.2229,
      "duration": 0.0129,
      "velocity": 80,
      "chip": "ym2612"
    },
    {
      "channel": 0,
      "note": 79,
      "start": 1.2335,
      "duration": 0.0326,
      "velocity": 81,
      "chip": "ym2612"
    },
    {
      "channel": 4,
      "note": 69,
      "start": 1.2345,
      "duration": 0.009,
      "velocity": 113,
      "chip": "ym2612"
    },
    {
      "channel": 2,
      "note": 74,
      "start": 1.2356,
      "duration": 0.0328,
      "velocity": 81,
      "chip": "ym2612"
    },
    {
      "channel": 3,
      "note": 74,
      "start": 1.2367,
      "duration": 0.0077,
      "velocity": 80,
      "chip": "ym2612"
    },
    {
      "channel": 4,
      "note": 62,
      "start": 1.2442,
      "duration": 0.0102,
      "velocity": 113,
      "chip": "ym2612"
    },
    {
      "channel": 3,
      "note": 72,
      "start": 1.2453,
      "duration": 0.0102,
      "velocity": 80,
      "chip": "ym2612"
    },
    {
      "channel": 4,
      "note": 62,
      "start": 1.2552,
      "duration": 0.0121,
      "velocity": 113,
      "chip": "ym2612"
    },
    {
      "channel": 3,
      "note": 71,
      "start": 1.2563,
      "duration": 0.0134,
      "velocity": 80,
      "chip": "ym2612"
    },
    {
      "channel": 0,
      "note": 76,
      "start": 1.267,
      "duration": 0.0141,
      "velocity": 81,
      "chip": "ym2612"
    },
    {
      "channel": 4,
      "note": 62,
      "start": 1.2682,
      "duration": 0.0141,
      "velocity": 113,
      "chip": "ym2612"
    },
    {
      "channel": 2,
      "note": 74,
      "start": 1.2694,
      "duration": 0.0141,
      "velocity": 81,
      "chip": "ym2612"
    },
    {
      "channel": 3,
      "note": 69,
      "start": 1.2705,
      "duration": 0.0141,
      "velocity": 80,
      "chip": "ym2612"
    },
    {
      "channel": 0,
      "note": 79,
      "start": 1.282,
      "duration": 0.0117,
      "velocity": 81,
      "chip": "ym2612"
    },
    {
      "channel": 4,
      "note": 62,
      "start": 1.2831,
      "duration": 0.0117,
      "velocity": 113,
      "chip": "ym2612"
    },
    {
      "channel": 2,
      "note": 74,
      "start": 1.2843,
      "duration": 0.0118,
      "velocity": 81,
      "chip": "ym2612"
    },
    {
      "channel": 3,
      "note": 74,
      "start": 1.2854,
      "duration": 0.0118,
      "velocity": 80,
      "chip": "ym2612"
    },
    {
      "channel": 0,
      "note": 76,
      "start": 1.2946,
      "duration": 0.0141,
      "velocity": 81,
      "chip": "ym2612"
    },
    {
      "channel": 4,
      "note": 62,
      "start": 1.2957,
      "duration": 0.0141,
      "velocity": 113,
      "chip": "ym2612"
    },
    {
      "channel": 2,
      "note": 74,
      "start": 1.2969,
      "duration": 0.014,
      "velocity": 81,
      "chip": "ym2612"
    },
    {
      "channel": 3,
      "note": 72,
      "start": 1.298,
      "duration": 0.0141,
      "velocity": 80,
      "chip": "ym2612"
    },
    {
      "channel": 0,
      "note": 81,
      "start": 1.3095,
      "duration": 0.012,
      "velocity": 81,
      "chip": "ym2612"
    },
    {
      "channel": 4,
      "note": 62,
      "start": 1.3106,
      "duration": 0.012,
      "velocity": 113,
      "chip": "ym2612"
    },
    {
      "channel": 2,
      "note": 74,
      "start": 1.3118,
      "duration": 0.012,
      "velocity": 81,
      "chip": "ym2612"
    },
    {
      "channel": 3,
      "note": 71,
      "start": 1.3129,
      "duration": 0.0119,
      "velocity": 80,
      "chip": "ym2612"
    },
    {
      "channel": 0,
      "note": 76,
      "start": 1.3224,
      "duration": 0.013,
      "velocity": 81,
      "chip": "ym2612"
    },
    {
      "channel": 4,
      "note": 62,
      "start": 1.3235,
      "duration": 0.013,
      "velocity": 113,
      "chip": "ym2612"
    },
    {
      "channel": 2,
      "note": 74,
      "start": 1.3246,
      "duration": 0.013,
      "velocity": 81,
      "chip": "ym2612"
    },
    {
      "channel": 3,
      "note": 69,
      "start": 1.3257,
      "duration": 0.0131,
      "velocity": 80,
      "chip": "ym2612"
    },
    {
      "channel": 0,
      "note": 79,
      "start": 1.3362,
      "duration": 0.0335,
      "velocity": 81,
      "chip": "ym2612"
    },
    {
      "channel": 4,
      "note": 69,
      "start": 1.3373,
      "duration": 0.0092,
      "velocity": 113,
      "chip": "ym2612"
    },
    {
      "channel": 2,
      "note": 74,
      "start": 1.3385,
      "duration": 0.0335,
      "velocity": 81,
      "chip": "ym2612"
    },
    {
      "channel": 3,
      "note": 74,
      "start": 1.3396,
      "duration": 0.0082,
      "velocity": 80,
      "chip": "ym2612"
    },
    {
      "channel": 4,
      "note": 62,
      "start": 1.3473,
      "duration": 0.0107,
      "velocity": 113,
      "chip": "ym2612"
    },
    {
      "channel": 3,
      "note": 72,
      "start": 1.3486,
      "duration": 0.0106,
      "velocity": 80,
      "chip": "ym2612"
    },
    {
      "channel": 4,
      "note": 62,
      "start": 1.3589,
      "duration": 0.012,
      "velocity": 113,
      "chip": "ym2612"
    },
    {
      "channel": 3,
      "note": 71,
      "start": 1.36,
      "duration": 0.0131,
      "velocity": 80,
      "chip": "ym2612"
    },
    {
      "channel": 0,
      "note": 76,
      "start": 1.3706,
      "duration": 0.012,
      "velocity": 81,
      "chip": "ym2612"
    },
    {
      "channel": 4,
      "note": 62,
      "start": 1.3717,
      "duration": 0.012,
      "velocity": 113,
      "chip": "ym2612"
    },
    {
      "channel": 2,
      "note": 74,
      "start": 1.3728,
      "duration": 0.0119,
      "velocity": 81,
      "chip": "ym2612"
    },
    {
      "channel": 3,
      "note": 69,
      "start": 1.3739,
      "duration": 0.0118,
      "velocity": 80,
      "chip": "ym2612"
    },
    {
      "channel": 0,
      "note": 80,
      "start": 1.3834,
      "duration": 0.0141,
      "velocity": 81,
      "chip": "ym2612"
    },
    {
      "channel": 4,
      "note": 64,
      "start": 1.3844,
      "duration": 0.0142,
      "velocity": 113,
      "chip": "ym2612"
    },
    {
      "channel": 2,
      "note": 76,
      "start": 1.3855,
      "duration": 0.0142,
      "velocity": 81,
      "chip": "ym2612"
    },
    {
      "channel": 3,
      "note": 76,
      "start": 1.3866,
      "duration": 0.0142,
      "velocity": 80,
      "chip": "ym2612"
    },
    {
      "channel": 0,
      "note": 76,
      "start": 1.3983,
      "duration": 0.0118,
      "velocity": 81,
      "chip": "ym2612"
    },
    {
      "channel": 4,
      "note": 64,
      "start": 1.3994,
      "duration": 0.0117,
      "velocity": 113,
      "chip": "ym2612"
    },
    {
      "channel": 2,
      "note": 76,
      "start": 1.4006,
      "duration": 0.0116,
      "velocity": 81,
      "chip": "ym2612"
    },
    {
      "channel": 3,
      "note": 74,
      "start": 1.4017,
      "duration": 0.0116,
      "velocity": 80,
      "chip": "ym2612"
    },
    {
      "channel": 0,
      "note": 81,
      "start": 1.4109,
      "duration": 0.0141,
      "velocity": 81,
      "chip": "ym2612"
    },
    {
      "channel": 4,
      "note": 64,
      "start": 1.4121,
      "duration": 0.0141,
      "velocity": 113,
      "chip": "ym2612"
    },
    {
      "channel": 2,
      "note": 76,
      "start": 1.413,
      "duration": 0.0142,
      "velocity": 81,
      "chip": "ym2612"
    },
    {
      "channel": 3,
      "note": 73,
      "start": 1.4142,
      "duration": 0.0141,
      "velocity": 80,
      "chip": "ym2612"
    },
    {
      "channel": 0,
      "note": 76,
      "start": 1.4258,
      "duration": 0.012,
      "velocity": 81,
      "chip": "ym2612"
    },
    {
      "channel": 4,
      "note": 64,
      "start": 1.427,
      "duration": 0.012,
      "velocity": 113,
      "chip": "ym2612"
    },
    {
      "channel": 2,
      "note": 76,
      "start": 1.4281,
      "duration": 0.0119,
      "velocity": 81,
      "chip": "ym2612"
    },
    {
      "channel": 3,
      "note": 71,
      "start": 1.4293,
      "duration": 0.0118,
      "velocity": 80,
      "chip": "ym2612"
    },
    {
      "channel": 0,
      "note": 80,
      "start": 1.4386,
      "duration": 0.0112,
      "velocity": 81,
      "chip": "ym2612"
    },
    {
      "channel": 4,
      "note": 71,
      "start": 1.4398,
      "duration": 0.0112,
      "velocity": 113,
      "chip": "ym2612"
    },
    {
      "channel": 2,
      "note": 76,
      "start": 1.4407,
      "duration": 0.0385,
      "velocity": 81,
      "chip": "ym2612"
    },
    {
      "channel": 3,
      "note": 76,
      "start": 1.4419,
      "duration": 0.0104,
      "velocity": 80,
      "chip": "ym2612"
    },
    {
      "channel": 0,
      "note": 76,
      "start": 1.4507,
      "duration": 0.0112,
      "velocity": 81,
      "chip": "ym2612"
    },
    {
      "channel": 4,
      "note": 64,
      "start": 1.4518,
      "duration": 0.0111,
      "velocity": 113,
      "chip": "ym2612"
    },
    {
      "channel": 3,
      "note": 74,
      "start": 1.4531,
      "duration": 0.0111,
      "velocity": 80,
      "chip": "ym2612"
    },
    {
      "channel": 0,
      "note": 83,
      "start": 1.4626,
      "duration": 0.0143,
      "velocity": 81,
      "chip": "ym2612"
    },
    {
      "channel": 4,
      "note": 64,
      "start": 1.4638,
      "duration": 0.0143,
      "velocity": 113,
      "chip": "ym2612"
    },
    {
      "channel": 3,
      "note": 73,
      "start": 1.4651,
      "duration": 0.0153,
      "velocity": 80,
      "chip": "ym2612"
    },
    {
      "channel": 0,
      "note": 85,
      "start": 1.4778,
      "duration": 0.012,
      "velocity": 81,
      "chip": "ym2612"
    },
    {
      "channel": 4,
      "note": 64,
      "start": 1.479,
      "duration": 0.0119,
      "velocity": 113,
      "chip": "ym2612"
    },
    {
      "channel": 2,
      "note": 76,
      "start": 1.4801,
      "duration": 0.012,
      "velocity": 81,
      "chip": "ym2612"
    },
    {
      "channel": 3,
      "note": 71,
      "start": 1.4812,
      "duration": 0.0119,
      "velocity": 80,
      "chip": "ym2612"
    },
    {
      "channel": 0,
      "note": 86,
      "start": 1.4906,
      "duration": 0.0143,
      "velocity": 81,
      "chip": "ym2612"
    },
    {
      "channel": 4,
      "note": 59,
      "start": 1.4917,
      "duration": 0.0143,
      "velocity": 113,
      "chip": "ym2612"
    },
    {
      "channel": 2,
      "note": 76,
      "start": 1.4929,
      "duration": 0.0142,
      "velocity": 81,
      "chip": "ym2612"
    },
    {
      "channel": 3,
      "note": 76,
      "start": 1.4941,
      "duration": 0.0142,
      "velocity": 80,
      "chip": "ym2612"
    },
    {
      "channel": 0,
      "note": 85,
      "start": 1.5057,
      "duration": 0.0121,
      "velocity": 81,
      "chip": "ym2612"
    },
    {
      "channel": 4,
      "note": 59,
      "start": 1.5068,
      "duration": 0.0121,
      "velocity": 113,
      "chip": "ym2612"
    },
    {
      "channel": 2,
      "note": 76,
      "start": 1.508,
      "duration": 0.012,
      "velocity": 81,
      "chip": "ym2612"
    },
    {
      "channel": 3,
      "note": 74,
      "start": 1.5091,
      "duration": 0.012,
      "velocity": 80,
      "chip": "ym2612"
    },
    {
      "channel": 0,
      "note": 83,
      "start": 1.5186,
      "duration": 0.0141,
      "velocity": 81,
      "chip": "ym2612"
    },
    {
      "channel": 4,
      "note": 59,
      "start": 1.5197,
      "duration": 0.0142,
      "velocity": 113,
      "chip": "ym2612"
    },
    {
      "channel": 2,
      "note": 76,
      "start": 1.5208,
      "duration": 0.0142,
      "velocity": 81,
      "chip": "ym2612"
    },
    {
      "channel": 3,
      "note": 73,
      "start": 1.5219,
      "duration": 0.0142,
      "velocity": 80,
      "chip": "ym2612"
    },
    {
      "channel": 0,
      "note": 79,
      "start": 1.5335,
      "duration": 0.0128,
      "velocity": 81,
      "chip": "ym2612"
    },
    {
      "channel": 4,
      "note": 59,
      "start": 1.5347,
      "duration": 0.0119,
      "velocity": 113,
      "chip": "ym2612"
    },
    {
      "channel": 2,
      "note": 76,
      "start": 1.5359,
      "duration": 0.0119,
      "velocity": 81,
      "chip": "ym2612"
    },
    {
      "channel": 3,
      "note": 71,
      "start": 1.537,
      "duration": 0.0119,
      "velocity": 80,
      "chip": "ym2612"
    },
    {
      "channel": 0,
      "note": 79,
      "start": 1.5463,
      "duration": 0.0112,
      "velocity": 81,
      "chip": "ym2612"
    },
    {
      "channel": 4,
      "note": 64,
      "start": 1.5475,
      "duration": 0.0113,
      "velocity": 113,
      "chip": "ym2612"
    },
    {
      "channel": 2,
      "note": 76,
      "start": 1.5486,
      "duration": 0.0372,
      "velocity": 81,
      "chip": "ym2612"
    },
    {
      "channel": 3,
      "note": 76,
      "start": 1.5498,
      "duration": 0.0102,
      "velocity": 80,
      "chip": "ym2612"
    },
    {
      "channel": 0,
      "note": 80,
      "start": 1.5584,
      "duration": 0.0111,
      "velocity": 81,
      "chip": "ym2612"
    },
    {
      "channel": 4,
      "note": 52,
      "start": 1.5596,
      "duration": 0.0111,
      "velocity": 113,
      "chip": "ym2612"
    },
    {
      "channel": 3,
      "note": 74,
      "start": 1.5608,
      "duration": 0.0111,
      "velocity": 80,
      "chip": "ym2612"
    },
    {
      "channel": 0,
      "note": 76,
      "start": 1.5704,
      "duration": 0.0292,
      "velocity": 81,
      "chip": "ym2612"
    },
    {
      "channel": 4,
      "note": 52,
      "start": 1.5715,
      "duration": 0.0132,
      "velocity": 113,
      "chip": "ym2612"
    },
    {
      "channel": 3,
      "note": 73,
      "start": 1.5728,
      "duration": 0.0142,
      "velocity": 80,
      "chip": "ym2612"
    },
    {
      "channel": 4,
      "note": 52,
      "start": 1.5855,
      "duration": 0.0152,
      "velocity": 113,
      "chip": "ym2612"
    },
    {
      "channel": 2,
      "note": 76,
      "start": 1.5866,
      "duration": 0.0152,
      "velocity": 81,
      "chip": "ym2612"
    },
    {
      "channel": 3,
      "note": 71,
      "start": 1.5878,
      "duration": 0.0152,
      "velocity": 80,
      "chip": "ym2612"
    },
    {
      "channel": 0,
      "note": 88,
      "start": 1.6005,
      "duration": 0.0151,
      "velocity": 81,
      "chip": "ym2612"
    },
    {
      "channel": 4,
      "note": 52,
      "start": 1.6016,
      "duration": 0.0151,
      "velocity": 113,
      "chip": "ym2612"
    },
    {
      "channel": 2,
      "note": 86,
      "start": 1.6027,
      "duration": 0.0152,
      "velocity": 81,
      "chip": "ym2612"
    },
    {
      "channel": 3,
      "note": 76,
      "start": 1.6038,
      "duration": 0.0151,
      "velocity": 80,
      "chip": "ym2612"
    },
    {
      "channel": 0,
      "note": 88,
      "start": 1.6164,
      "duration": 0.0142,
      "velocity": 81,
      "chip": "ym2612"
    },
    {
      "channel": 4,
      "note": 52,
      "start": 1.6175,
      "duration": 0.0142,
      "velocity": 113,
      "chip": "ym2612"
    },
    {
      "channel": 2,
      "note": 86,
      "start": 1.6187,
      "duration": 0.0142,
      "velocity": 81,
      "chip": "ym2612"
    },
    {
      "channel": 3,
      "note": 74,
      "start": 1.6199,
      "duration": 0.0142,
      "velocity": 80,
      "chip": "ym2612"
    },
    {
      "channel": 0,
      "note": 76,
      "start": 1.6314,
      "duration": 0.0119,
      "velocity": 81,
      "chip": "ym2612"
    },
    {
      "channel": 4,
      "note": 56,
      "start": 1.6326,
      "duration": 0.0119,
      "velocity": 113,
      "chip": "ym2612"
    },
    {
      "channel": 2,
      "note": 76,
      "start": 1.6337,
      "duration": 0.0119,
      "velocity": 81,
      "chip": "ym2612"
    },
    {
      "channel": 3,
      "note": 73,
      "start": 1.6349,
      "duration": 0.0119,
      "velocity": 80,
      "chip": "ym2612"
    },
    {
      "channel": 0,
      "note": 88,
      "start": 1.6442,
      "duration": 0.0132,
      "velocity": 81,
      "chip": "ym2612"
    },
    {
      "channel": 4,
      "note": 56,
      "start": 1.6454,
      "duration": 0.0131,
      "velocity": 113,
      "chip": "ym2612"
    },
    {
      "channel": 2,
      "note": 86,
      "start": 1.6465,
      "duration": 0.0132,
      "velocity": 81,
      "chip": "ym2612"
    },
    {
      "channel": 3,
      "note": 71,
      "start": 1.6476,
      "duration": 0.0132,
      "velocity": 80,
      "chip": "ym2612"
    },
    {
      "channel": 0,
      "note": 88,
      "start": 1.6582,
      "duration": 0.0099,
      "velocity": 81,
      "chip": "ym2612"
    },
    {
      "channel": 4,
      "note": 59,
      "start": 1.6593,
      "duration": 0.0099,
      "velocity": 113,
      "chip": "ym2612"
    },
    {
      "channel": 2,
      "note": 86,
      "start": 1.6605,
      "duration": 0.0098,
      "velocity": 81,
      "chip": "ym2612"
    },
    {
      "channel": 3,
      "note": 76,
      "start": 1.6616,
      "duration": 0.0098,
      "velocity": 80,
      "chip": "ym2612"
    },
    {
      "channel": 0,
      "note": 76,
      "start": 1.669,
      "duration": 0.0137,
      "velocity": 81,
      "chip": "ym2612"
    },
    {
      "channel": 4,
      "note": 59,
      "start": 1.67,
      "duration": 0.0137,
      "velocity": 113,
      "chip": "ym2612"
    },
    {
      "channel": 2,
      "note": 76,
      "start": 1.6711,
      "duration": 0.0137,
      "velocity": 81,
      "chip": "ym2612"
    },
    {
      "channel": 3,
      "note": 74,
      "start": 1.6722,
      "duration": 0.0138,
      "velocity": 80,
      "chip": "ym2612"
    },
    {
      "channel": 0,
      "note": 88,
      "start": 1.6834,
      "duration": 0.0121,
      "velocity": 81,
      "chip": "ym2612"
    },
    {
      "channel": 4,
      "note": 62,
      "start": 1.6846,
      "duration": 0.0121,
      "velocity": 113,
      "chip": "ym2612"
    },
    {
      "channel": 2,
      "note": 86,
      "start": 1.6857,
      "duration": 0.012,
      "velocity": 81,
      "chip": "ym2612"
    },
    {
      "channel": 3,
      "note": 73,
      "start": 1.6869,
      "duration": 0.012,
      "velocity": 80,
      "chip": "ym2612"
    },
    {
      "channel": 0,
      "note": 88,
      "start": 1.6963,
      "duration": 0.0143,
      "velocity": 81,
      "chip": "ym2612"
    },
    {
      "channel": 4,
      "note": 62,
      "start": 1.6975,
      "duration": 0.0143,
      "velocity": 113,
      "chip": "ym2612"
    },
    {
      "channel": 2,
      "note": 86,
      "start": 1.6985,
      "duration": 0.0144,
      "velocity": 81,
      "chip": "ym2612"
    },
    {
      "channel": 3,
      "note": 71,
      "start": 1.6997,
      "duration": 0.0144,
      "velocity": 80,
      "chip": "ym2612"
    },
    {
      "channel": 0,
      "note": 76,
      "start": 1.7114,
      "duration": 0.012,
      "velocity": 81,
      "chip": "ym2612"
    },
    {
      "channel": 4,
      "note": 64,
      "start": 1.7126,
      "duration": 0.0119,
      "velocity": 113,
      "chip": "ym2612"
    },
    {
      "channel": 2,
      "note": 76,
      "start": 1.7137,
      "duration": 0.0118,
      "velocity": 81,
      "chip": "ym2612"
    },
    {
      "channel": 3,
      "note": 76,
      "start": 1.7149,
      "duration": 0.0119,
      "velocity": 80,
      "chip": "ym2612"
    },
    {
      "channel": 0,
      "note": 88,
      "start": 1.7242,
      "duration": 0.011,
      "velocity": 81,
      "chip": "ym2612"
    },
    {
      "channel": 4,
      "note": 64,
      "start": 1.7254,
      "duration": 0.011,
      "velocity": 113,
      "chip": "ym2612"
    },
    {
      "channel": 2,
      "note": 86,
      "start": 1.7264,
      "duration": 0.0111,
      "velocity": 81,
      "chip": "ym2612"
    },
    {
      "channel": 3,
      "note": 74,
      "start": 1.7276,
      "duration": 0.011,
      "velocity": 80,
      "chip": "ym2612"
    },
    {
      "channel": 0,
      "note": 88,
      "start": 1.736,
      "duration": 0.0119,
      "velocity": 81,
      "chip": "ym2612"
    },
    {
      "channel": 4,
      "note": 66,
      "start": 1.7372,
      "duration": 0.0118,
      "velocity": 113,
      "chip": "ym2612"
    },
    {
      "channel": 2,
      "note": 86,
      "start": 1.7383,
      "duration": 0.0118,
      "velocity": 81,
      "chip": "ym2612"
    },
    {
      "channel": 3,
      "note": 73,
      "start": 1.7395,
      "duration": 0.0118,
      "velocity": 80,
      "chip": "ym2612"
    },
    {
      "channel": 0,
      "note": 76,
      "start": 1.7487,
      "duration": 0.0141,
      "velocity": 81,
      "chip": "ym2612"
    },
    {
      "channel": 4,
      "note": 66,
      "start": 1.7498,
      "duration": 0.0143,
      "velocity": 113,
      "chip": "ym2612"
    },
    {
      "channel": 2,
      "note": 76,
      "start": 1.7509,
      "duration": 0.0143,
      "velocity": 81,
      "chip": "ym2612"
    },
    {
      "channel": 3,
      "note": 71,
      "start": 1.7521,
      "duration": 0.0142,
      "velocity": 80,
      "chip": "ym2612"
    },
    {
      "channel": 0,
      "note": 88,
      "start": 1.7637,
      "duration": 0.012,
      "velocity": 81,
      "chip": "ym2612"
    },
    {
      "channel": 4,
      "note": 68,
      "start": 1.7649,
      "duration": 0.012,
      "velocity": 113,
      "chip": "ym2612"
    },
    {
      "channel": 2,
      "note": 86,
      "start": 1.7661,
      "duration": 0.0118,
      "velocity": 81,
      "chip": "ym2612"
    },
    {
      "channel": 3,
      "note": 76,
      "start": 1.7672,
      "duration": 0.0117,
      "velocity": 80,
      "chip": "ym2612"
    },
    {
      "channel": 0,
      "note": 88,
      "start": 1.7766,
      "duration": 0.0131,
      "velocity": 81,
      "chip": "ym2612"
    },
    {
      "channel": 4,
      "note": 68,
      "start": 1.7777,
      "duration": 0.0131,
      "velocity": 113,
      "chip": "ym2612"
    },
    {
      "channel": 2,
      "note": 86,
      "start": 1.7787,
      "duration": 0.0132,
      "velocity": 81,
      "chip": "ym2612"
    },
    {
      "channel": 3,
      "note": 74,
      "start": 1.7798,
      "duration": 0.0133,
      "velocity": 80,
      "chip": "ym2612"
    },
    {
      "channel": 0,
      "note": 76,
      "start": 1.7905,
      "duration": 0.0223,
      "velocity": 81,
      "chip": "ym2612"
    },
    {
      "channel": 4,
      "note": 64,
      "start": 1.7916,
      "duration": 0.0095,
      "velocity": 113,
      "chip": "ym2612"
    },
    {
      "channel": 2,
      "note": 76,
      "start": 1.7928,
      "duration": 0.0223,
      "velocity": 81,
      "chip": "ym2612"
    },
    {
      "channel": 3,
      "note": 73,
      "start": 1.7939,
      "duration": 0.0085,
      "velocity": 80,
      "chip": "ym2612"
    },
    {
      "channel": 4,
      "note": 64,
      "start": 1.802,
      "duration": 0.012,
      "velocity": 113,
      "chip": "ym2612"
    },
    {
      "channel": 3,
      "note": 71,
      "start": 1.8032,
      "duration": 0.013,
      "velocity": 80,
      "chip": "ym2612"
    },
    {
      "channel": 0,
      "note": 79,
      "start": 1.8137,
      "duration": 0.0488,
      "velocity": 81,
      "chip": "ym2612"
    },
    {
      "channel": 4,
      "note": 60,
      "start": 1.8148,
      "duration": 0.0133,
      "velocity": 113,
      "chip": "ym2612"
    },
    {
      "channel": 2,
      "note": 76,
      "start": 1.8159,
      "duration": 0.0489,
      "velocity": 81,
      "chip": "ym2612"
    },
    {
      "channel": 3,
      "note": 72,
      "start": 1.817,
      "duration": 0.0124,
      "velocity": 80,
      "chip": "ym2612"
    },
    {
      "channel": 1,
      "note": 83,
      "start": 1.8182,
      "duration": 0.101,
      "velocity": 74,
      "chip": "ym2612"
    },
    {
      "channel": 4,
      "note": 60,
      "start": 1.829,
      "duration": 0.0112,
      "velocity": 113,
      "chip": "ym2612"
    },
    {
      "channel": 3,
      "note": 71,
      "start": 1.8302,
      "duration": 0.0111,
      "velocity": 80,
      "chip": "ym2612"
    },
    {
      "channel": 4,
      "note": 60,
      "start": 1.841,
      "duration": 0.0109,
      "velocity": 113,
      "chip": "ym2612"
    },
    {
      "channel": 3,
      "note": 69,
      "start": 1.8423,
      "duration": 0.0108,
      "velocity": 80,
      "chip": "ym2612"
    },
    {
      "channel": 4,
      "note": 60,
      "start": 1.8528,
      "duration": 0.0109,
      "velocity": 113,
      "chip": "ym2612"
    },
    {
      "channel": 3,
      "note": 67,
      "start": 1.8539,
      "duration": 0.0119,
      "velocity": 80,
      "chip": "ym2612"
    },
    {
      "channel": 0,
      "note": 76,
      "start": 1.8634,
      "duration": 0.0241,
      "velocity": 81,
      "chip": "ym2612"
    },
    {
      "channel": 4,
      "note": 60,
      "start": 1.8645,
      "duration": 0.0111,
      "velocity": 113,
      "chip": "ym2612"
    },
    {
      "channel": 2,
      "note": 72,
      "start": 1.8656,
      "duration": 0.0242,
      "velocity": 81,
      "chip": "ym2612"
    },
    {
      "channel": 3,
      "note": 72,
      "start": 1.8667,
      "duration": 0.0102,
      "velocity": 80,
      "chip": "ym2612"
    },
    {
      "channel": 4,
      "note": 60,
      "start": 1.8765,
      "duration": 0.0122,
      "velocity": 113,
      "chip": "ym2612"
    },
    {
      "channel": 3,
      "note": 71,
      "start": 1.8777,
      "duration": 0.0133,
      "velocity": 80,
      "chip": "ym2612"
    },
    {
      "channel": 0,
      "note": 83,
      "start": 1.8883,
      "duration": 0.0262,
      "velocity": 81,
      "chip": "ym2612"
    },
    {
      "channel": 4,
      "note": 60,
      "start": 1.8895,
      "duration": 0.0131,
      "velocity": 113,
      "chip": "ym2612"
    },
    {
      "channel": 2,
      "note": 79,
      "start": 1.8907,
      "duration": 0.0262,
      "velocity": 81,
      "chip": "ym2612"
    },
    {
      "channel": 3,
      "note": 69,
      "start": 1.8918,
      "duration": 0.012,
      "velocity": 80,
      "chip": "ym2612"
    },
    {
      "channel": 4,
      "note": 60,
      "start": 1.9034,
      "duration": 0.0123,
      "velocity": 113,
      "chip": "ym2612"
    },
    {
      "channel": 3,
      "note": 67,
      "start": 1.9047,
      "duration": 0.0134,
      "velocity": 80,
      "chip": "ym2612"
    },
    {
      "channel": 0,
      "note": 81,
      "start": 1.9154,
      "duration": 0.0718,
      "velocity": 81,
      "chip": "ym2612"
    },
    {
      "channel": 4,
      "note": 60,
      "start": 1.9166,
      "duration": 0.0134,
      "velocity": 113,
      "chip": "ym2612"
    },
    {
      "channel": 2,
      "note": 78,
      "start": 1.9178,
      "duration": 0.0717,
      "velocity": 81,
      "chip": "ym2612"
    },
    {
      "channel": 3,
      "note": 74,
      "start": 1.9189,
      "duration": 0.0122,
      "velocity": 80,
      "chip": "ym2612"
    },
    {
      "channel": 1,
      "note": 81,
      "start": 1.9201,
      "duration": 0.0462,
      "velocity": 74,
      "chip": "ym2612"
    },
    {
      "channel": 4,
      "note": 60,
      "start": 1.9307,
      "duration": 0.0112,
      "velocity": 113,
      "chip": "ym2612"
    },
    {
      "channel": 3,
      "note": 72,
      "start": 1.932,
      "duration": 0.0111,
      "velocity": 80,
      "chip": "ym2612"
    },
    {
      "channel": 4,
      "note": 60,
      "start": 1.9427,
      "duration": 0.0107,
      "velocity": 113,
      "chip": "ym2612"
    },
    {
      "channel": 3,
      "note": 71,
      "start": 1.944,
      "duration": 0.0107,
      "velocity": 80,
      "chip": "ym2612"
    },
    {
      "channel": 4,
      "note": 60,
      "start": 1.9543,
      "duration": 0.0097,
      "velocity": 113,
      "chip": "ym2612"
    },
    {
      "channel": 3,
      "note": 69,
      "start": 1.9555,
      "duration": 0.0096,
      "velocity": 80,
      "chip": "ym2612"
    },
    {
      "channel": 4,
      "note": 60,
      "start": 1.9649,
      "duration": 0.011,
      "velocity": 113,
      "chip": "ym2612"
    },
    {
      "channel": 3,
      "note": 74,
      "start": 1.9659,
      "duration": 0.011,
      "velocity": 80,
      "chip": "ym2612"
    },
    {
      "channel": 1,
      "note": 86,
      "start": 1.9671,
      "duration": 0.052,
      "velocity": 1,
      "chip": "ym2612"
    },
    {
      "channel": 4,
      "note": 60,
      "start": 1.9767,
      "duration": 0.0116,
      "velocity": 113,
      "chip": "ym2612"
    },
    {
      "channel": 3,
      "note": 72,
      "start": 1.9778,
      "duration": 0.0129,
      "velocity": 80,
      "chip": "ym2612"
    },
    {
      "channel": 0,
      "note": 78,
      "start": 1.9881,
      "duration": 0.0262,
      "velocity": 81,
      "chip": "ym2612"
    },
    {
      "channel": 4,
      "note": 60,
      "start": 1.9892,
      "duration": 0.0132,
      "velocity": 113,
      "chip": "ym2612"
    },
    {
      "channel": 2,
      "note": 74,
      "start": 1.9905,
      "duration": 0.0262,
      "velocity": 81,
      "chip": "ym2612"
    },
    {
      "channel": 3,
      "note": 71,
      "start": 1.9916,
      "duration": 0.0121,
      "velocity": 80,
      "chip": "ym2612"
    },
    {
      "channel": 4,
      "note": 60,
      "start": 2.0033,
      "duration": 0.0121,
      "velocity": 113,
      "chip": "ym2612"
    },
    {
      "channel": 3,
      "note": 69,
      "start": 2.0046,
      "duration": 0.0132,
      "velocity": 80,
      "chip": "ym2612"
    },
    {
      "channel": 0,
      "note": 79,
      "start": 2.0151,
      "duration": 0.0264,
      "velocity": 81,
      "chip": "ym2612"
    },
    {
      "channel": 4,
      "note": 60,
      "start": 2.0163,
      "duration": 0.0133,
      "velocity": 113,
      "chip": "ym2612"
    },
    {
      "channel": 2,
      "note": 76,
      "start": 2.0175,
      "duration": 0.0263,
      "velocity": 81,
      "chip": "ym2612"
    },
    {
      "channel": 3,
      "note": 72,
      "start": 2.0186,
      "duration": 0.0123,
      "velocity": 80,
      "chip": "ym2612"
    },
    {
      "channel": 4,
      "note": 60,
      "start": 2.0305,
      "duration": 0.0122,
      "velocity": 113,
      "chip": "ym2612"
    },
    {
      "channel": 3,
      "note": 71,
      "start": 2.0317,
      "duration": 0.0131,
      "velocity": 80,
      "chip": "ym2612"
    },
    {
      "channel": 0,
      "note": 78,
      "start": 2.0423,
      "duration": 0.027,
      "velocity": 81,
      "chip": "ym2612"
    },
    {
      "channel": 4,
      "note": 60,
      "start": 2.0435,
      "duration": 0.014,
      "velocity": 113,
      "chip": "ym2612"
    },
    {
      "channel": 2,
      "note": 74,
      "start": 2.0446,
      "duration": 0.027,
      "velocity": 81,
      "chip": "ym2612"
    },
    {
      "channel": 3,
      "note": 69,
      "start": 2.0457,
      "duration": 0.0131,
      "velocity": 80,
      "chip": "ym2612"
    },
    {
      "channel": 1,
      "note": 83,
      "start": 2.0468,
      "duration": 0.0735,
      "velocity": 74,
      "chip": "ym2612"
    },
    {
      "channel": 4,
      "note": 60,
      "start": 2.0583,
      "duration": 0.0121,
      "velocity": 113,
      "chip": "ym2612"
    },
    {
      "channel": 3,
      "note": 67,
      "start": 2.0596,
      "duration": 0.013,
      "velocity": 80,
      "chip": "ym2612"
    },
    {
      "channel": 0,
      "note": 76,
      "start": 2.0701,
      "duration": 0.0213,
      "velocity": 81,
      "chip": "ym2612"
    },
    {
      "channel": 4,
      "note": 60,
      "start": 2.0713,
      "duration": 0.0089,
      "velocity": 113,
      "chip": "ym2612"
    },
    {
      "channel": 2,
      "note": 72,
      "start": 2.0724,
      "duration": 0.0212,
      "velocity": 81,
      "chip": "ym2612"
    },
    {
      "channel": 3,
      "note": 72,
      "start": 2.0734,
      "duration": 0.0078,
      "velocity": 80,
      "chip": "ym2612"
    },
    {
      "channel": 4,
      "note": 60,
      "start": 2.081,
      "duration": 0.0115,
      "velocity": 113,
      "chip": "ym2612"
    },
    {
      "channel": 3,
      "note": 71,
      "start": 2.0821,
      "duration": 0.0126,
      "velocity": 80,
      "chip": "ym2612"
    },
    {
      "channel": 0,
      "note": 79,
      "start": 2.0922,
      "duration": 0.0237,
      "velocity": 81,
      "chip": "ym2612"
    },
    {
      "channel": 4,
      "note": 60,
      "start": 2.0934,
      "duration": 0.0108,
      "velocity": 113,
      "chip": "ym2612"
    },
    {
      "channel": 2,
      "note": 76,
      "start": 2.0944,
      "duration": 0.0238,
      "velocity": 81,
      "chip": "ym2612"
    },
    {
      "channel": 3,
      "note": 69,
      "start": 2.0955,
      "duration": 0.0097,
      "velocity": 80,
      "chip": "ym2612"
    },
    {
      "channel": 4,
      "note": 60,
      "start": 2.1051,
      "duration": 0.0119,
      "velocity": 113,
      "chip": "ym2612"
    },
    {
      "channel": 3,
      "note": 67,
      "start": 2.1061,
      "duration": 0.0131,
      "velocity": 80,
      "chip": "ym2612"
    },
    {
      "channel": 0,
      "note": 78,
      "start": 2.1168,
      "duration": 0.0505,
      "velocity": 81,
      "chip": "ym2612"
    },
    {
      "channel": 4,
      "note": 60,
      "start": 2.1178,
      "duration": 0.014,
      "velocity": 113,
      "chip": "ym2612"
    },
    {
      "channel": 2,
      "note": 74,
      "start": 2.119,
      "duration": 0.0505,
      "velocity": 81,
      "chip": "ym2612"
    },
    {
      "channel": 3,
      "note": 74,
      "start": 2.1201,
      "duration": 0.013,
      "velocity": 80,
      "chip": "ym2612"
    },
    {
      "channel": 1,
      "note": 81,
      "start": 2.1212,
      "duration": 0.0505,
      "velocity": 74,
      "chip": "ym2612"
    },
    {
      "channel": 4,
      "note": 60,
      "start": 2.1327,
      "duration": 0.011,
      "velocity": 113,
      "chip": "ym2612"
    },
    {
      "channel": 3,
      "note": 72,
      "start": 2.134,
      "duration": 0.0107,
      "velocity": 80,
      "chip": "ym2612"
    },
    {
      "channel": 4,
      "note": 60,
      "start": 2.1445,
      "duration": 0.0107,
      "velocity": 113,
      "chip": "ym2612"
    },
    {
      "channel": 3,
      "note": 71,
      "start": 2.1456,
      "duration": 0.0109,
      "velocity": 80,
      "chip": "ym2612"
    },
    {
      "channel": 4,
      "note": 60,
      "start": 2.1561,
      "duration": 0.0122,
      "velocity": 113,
      "chip": "ym2612"
    },
    {
      "channel": 3,
      "note": 69,
      "start": 2.1574,
      "duration": 0.0133,
      "velocity": 80,
      "chip": "ym2612"
    },
    {
      "channel": 0,
      "note": 74,
      "start": 2.168,
      "duration": 0.0461,
      "velocity": 81,
      "chip": "ym2612"
    },
    {
      "channel": 4,
      "note": 60,
      "start": 2.1692,
      "duration": 0.01,
      "velocity": 113,
      "chip": "ym2612"
    },
    {
      "channel": 2,
      "note": 69,
      "start": 2.1703,
      "duration": 0.046,
      "velocity": 81,
      "chip": "ym2612"
    },
    {
      "channel": 3,
      "note": 74,
      "start": 2.1715,
      "duration": 0.0088,
      "velocity": 80,
      "chip": "ym2612"
    },
    {
      "channel": 1,
      "note": 78,
      "start": 2.1725,
      "duration": 0.0461,
      "velocity": 74,
      "chip": "ym2612"
    },
    {
      "channel": 4,
      "note": 60,
      "start": 2.18,
      "duration": 0.0104,
      "velocity": 113,
      "chip": "ym2612"
    },
    {
      "channel": 3,
      "note": 72,
      "start": 2.1811,
      "duration": 0.0106,
      "velocity": 80,
      "chip": "ym2612"
    },
    {
      "channel": 4,
      "note": 60,
      "start": 2.1914,
      "duration": 0.011,
      "velocity": 113,
      "chip": "ym2612"
    },
    {
      "channel": 3,
      "note": 71,
      "start": 2.1926,
      "duration": 0.0111,
      "velocity": 80,
      "chip": "ym2612"
    },
    {
      "channel": 4,
      "note": 60,
      "start": 2.2032,
      "duration": 0.012,
      "velocity": 113,
      "chip": "ym2612"
    },
    {
      "channel": 3,
      "note": 69,
      "start": 2.2045,
      "duration": 0.0129,
      "velocity": 80,
      "chip": "ym2612"
    },
    {
      "channel": 0,
      "note": 76,
      "start": 2.215,
      "duration": 0.0709,
      "velocity": 81,
      "chip": "ym2612"
    },
    {
      "channel": 4,
      "note": 60,
      "start": 2.2161,
      "duration": 0.0142,
      "velocity": 113,
      "chip": "ym2612"
    },
    {
      "channel": 2,
      "note": 72,
      "start": 2.2171,
      "duration": 0.0712,
      "velocity": 81,
      "chip": "ym2612"
    },
    {
      "channel": 3,
      "note": 72,
      "start": 2.2182,
      "duration": 0.0133,
      "velocity": 80,
      "chip": "ym2612"
    },
    {
      "channel": 1,
      "note": 83,
      "start": 2.2194,
      "duration": 0.0982,
      "velocity": 74,
      "chip": "ym2612"
    },
    {
      "channel": 4,
      "note": 60,
      "start": 2.2311,
      "duration": 0.0107,
      "velocity": 113,
      "chip": "ym2612"
    },
    {
      "channel": 3,
      "note": 71,
      "start": 2.2324,
      "duration": 0.0105,
      "velocity": 80,
      "chip": "ym2612"
    },
    {
      "channel": 4,
      "note": 60,
      "start": 2.2427,
      "duration": 0.0109,
      "velocity": 113,
      "chip": "ym2612"
    },
    {
      "channel": 3,
      "note": 69,
      "start": 2.2437,
      "duration": 0.0108,
      "velocity": 80,
      "chip": "ym2612"
    },
    {
      "channel": 4,
      "note": 60,
      "start": 2.2544,
      "duration": 0.0096,
      "velocity": 113,
      "chip": "ym2612"
    },
    {
      "channel": 3,
      "note": 67,
      "start": 2.2555,
      "duration": 0.0097,
      "velocity": 80,
      "chip": "ym2612"
    },
    {
      "channel": 4,
      "note": 60,
      "start": 2.2649,
      "duration": 0.0092,
      "velocity": 113,
      "chip": "ym2612"
    },
    {
      "channel": 3,
      "note": 72,
      "start": 2.2661,
      "duration": 0.0093,
      "velocity": 80,
      "chip": "ym2612"
    },
    {
      "channel": 4,
      "note": 60,
      "start": 2.2749,
      "duration": 0.0121,
      "velocity": 113,
      "chip": "ym2612"
    },
    {
      "channel": 3,
      "note": 71,
      "start": 2.2762,
      "duration": 0.0132,
      "velocity": 80,
      "chip": "ym2612"
    },
    {
      "channel": 0,
      "note": 79,
      "start": 2.2868,
      "duration": 0.0262,
      "velocity": 81,
      "chip": "ym2612"
    },
    {
      "channel": 4,
      "note": 60,
      "start": 2.2879,
      "duration": 0.0132,
      "velocity": 113,
      "chip": "ym2612"
    },
    {
      "channel": 2,
      "note": 76,
      "start": 2.2891,
      "duration": 0.0263,
      "velocity": 81,
      "chip": "ym2612"
    },
    {
      "channel": 3,
      "note": 69,
      "start": 2.2903,
      "duration": 0.0121,
      "velocity": 80,
      "chip": "ym2612"
    },
    {
      "channel": 4,
      "note": 60,
      "start": 2.302,
      "duration": 0.0122,
      "velocity": 113,
      "chip": "ym2612"
    },
    {
      "channel": 3,
      "note": 67,
      "start": 2.3032,
      "duration": 0.0132,
      "velocity": 80,
      "chip": "ym2612"
    },
    {
      "channel": 0,
      "note": 78,
      "start": 2.3139,
      "duration": 0.0489,
      "velocity": 81,
      "chip": "ym2612"
    },
    {
      "channel": 4,
      "note": 62,
      "start": 2.315,
      "duration": 0.0133,
      "velocity": 113,
      "chip": "ym2612"
    },
    {
      "channel": 2,
      "note": 74,
      "start": 2.3161,
      "duration": 0.0488,
      "velocity": 81,
      "chip": "ym2612"
    },
    {
      "channel": 3,
      "note": 74,
      "start": 2.3173,
      "duration": 0.0123,
      "velocity": 80,
      "chip": "ym2612"
    },
    {
      "channel": 1,
      "note": 81,
      "start": 2.3185,
      "duration": 0.0487,
      "velocity": 74,
      "chip": "ym2612"
    },
    {
      "channel": 4,
      "note": 62,
      "start": 2.3292,
      "duration": 0.0111,
      "velocity": 113,
      "chip": "ym2612"
    },
    {
      "channel": 3,
      "note": 72,
      "start": 2.3305,
      "duration": 0.0111,
      "velocity": 80,
      "chip": "ym2612"
    },
    {
      "channel": 4,
      "note": 62,
      "start": 2.3412,
      "duration": 0.011,
      "velocity": 113,
      "chip": "ym2612"
    },
    {
      "channel": 3,
      "note": 71,
      "start": 2.3424,
      "duration": 0.0109,
      "velocity": 80,
      "chip": "ym2612"
    },
    {
      "channel": 4,
      "note": 62,
      "start": 2.353,
      "duration": 0.0107,
      "velocity": 113,
      "chip": "ym2612"
    },
    {
      "channel": 3,
      "note": 69,
      "start": 2.3541,
      "duration": 0.0119,
      "velocity": 80,
      "chip": "ym2612"
    },
    {
      "channel": 0,
      "note": 83,
      "start": 2.3635,
      "duration": 0.0476,
      "velocity": 81,
      "chip": "ym2612"
    },
    {
      "channel": 4,
      "note": 62,
      "start": 2.3646,
      "duration": 0.0119,
      "velocity": 113,
      "chip": "ym2612"
    },
    {
      "channel": 2,
      "note": 78,
      "start": 2.3657,
      "duration": 0.0478,
      "velocity": 81,
      "chip": "ym2612"
    },
    {
      "channel": 3,
      "note": 74,
      "start": 2.3669,
      "duration": 0.0106,
      "velocity": 80,
      "chip": "ym2612"
    },
    {
      "channel": 1,
      "note": 86,
      "start": 2.3681,
      "duration": 0.0477,
      "velocity": 74,
      "chip": "ym2612"
    },
    {
      "channel": 4,
      "note": 62,
      "start": 2.3773,
      "duration": 0.0106,
      "velocity": 113,
      "chip": "ym2612"
    },
    {
      "channel": 3,
      "note": 72,
      "start": 2.3783,
      "duration": 0.0109,
      "velocity": 80,
      "chip": "ym2612"
    },
    {
      "channel": 4,
      "note": 62,
      "start": 2.3887,
      "duration": 0.011,
      "velocity": 113,
      "chip": "ym2612"
    },
    {
      "channel": 3,
      "note": 71,
      "start": 2.39,
      "duration": 0.0109,
      "velocity": 80,
      "chip": "ym2612"
    },
    {
      "channel": 4,
      "note": 62,
      "start": 2.4006,
      "duration": 0.0117,
      "velocity": 113,
      "chip": "ym2612"
    },
    {
      "channel": 3,
      "note": 69,
      "start": 2.4017,
      "duration": 0.0129,
      "velocity": 80,
      "chip": "ym2612"
    },
    {
      "channel": 0,
      "note": 81,
      "start": 2.412,
      "duration": 0.0988,
      "velocity": 81,
      "chip": "ym2612"
    },
    {
      "channel": 4,
      "note": 64,
      "start": 2.4132,
      "duration": 0.0134,
      "velocity": 113,
      "chip": "ym2612"
    },
    {
      "channel": 2,
      "note": 76,
      "start": 2.4143,
      "duration": 0.0988,
      "velocity": 81,
      "chip": "ym2612"
    },
    {
      "channel": 3,
      "note": 76,
      "start": 2.4155,
      "duration": 0.0124,
      "velocity": 80,
      "chip": "ym2612"
    },
    {
      "channel": 1,
      "note": 81,
      "start": 2.4166,
      "duration": 0.0244,
      "velocity": 74,
      "chip": "ym2612"
    },
    {
      "channel": 4,
      "note": 64,
      "start": 2.4274,
      "duration": 0.0112,
      "velocity": 113,
      "chip": "ym2612"
    },
    {
      "channel": 3,
      "note": 71,
      "start": 2.4287,
      "duration": 0.0112,
      "velocity": 80,
      "chip": "ym2612"
    },
    {
      "channel": 4,
      "note": 64,
      "start": 2.4394,
      "duration": 0.0142,
      "velocity": 113,
      "chip": "ym2612"
    },
    {
      "channel": 3,
      "note": 69,
      "start": 2.4407,
      "duration": 0.0141,
      "velocity": 80,
      "chip": "ym2612"
    },
    {
      "channel": 1,
      "note": 80,
      "start": 2.4418,
      "duration": 0.026,
      "velocity": 74,
      "chip": "ym2612"
    },
    {
      "channel": 4,
      "note": 64,
      "start": 2.4545,
      "duration": 0.0112,
      "velocity": 113,
      "chip": "ym2612"
    },
    {
      "channel": 3,
      "note": 68,
      "start": 2.4558,
      "duration": 0.0109,
      "velocity": 80,
      "chip": "ym2612"
    },
    {
      "channel": 4,
      "note": 59,
      "start": 2.4664,
      "duration": 0.0089,
      "velocity": 113,
      "chip": "ym2612"
    },
    {
      "channel": 3,
      "note": 76,
      "start": 2.4676,
      "duration": 0.0091,
      "velocity": 80,
      "chip": "ym2612"
    },
    {
      "channel": 1,
      "note": 78,
      "start": 2.4687,
      "duration": 0.0207,
      "velocity": 74,
      "chip": "ym2612"
    },
    {
      "channel": 4,
      "note": 59,
      "start": 2.4762,
      "duration": 0.0108,
      "velocity": 113,
      "chip": "ym2612"
    },
    {
      "channel": 3,
      "note": 71,
      "start": 2.4775,
      "duration": 0.0107,
      "velocity": 80,
      "chip": "ym2612"
    },
    {
      "channel": 4,
      "note": 59,
      "start": 2.4879,
      "duration": 0.011,
      "velocity": 113,
      "chip": "ym2612"
    },
    {
      "channel": 3,
      "note": 69,
      "start": 2.4891,
      "duration": 0.011,
      "velocity": 80,
      "chip": "ym2612"
    },
    {
      "channel": 1,
      "note": 80,
      "start": 2.4902,
      "duration": 0.0259,
      "velocity": 74,
      "chip": "ym2612"
    },
    {
      "channel": 4,
      "note": 59,
      "start": 2.4998,
      "duration": 0.0122,
      "velocity": 113,
      "chip": "ym2612"
    },
    {
      "channel": 3,
      "note": 68,
      "start": 2.5011,
      "duration": 0.0131,
      "velocity": 80,
      "chip": "ym2612"
    },
    {
      "channel": 0,
      "note": 80,
      "start": 2.5117,
      "duration": 0.0459,
      "velocity": 81,
      "chip": "ym2612"
    },
    {
      "channel": 4,
      "note": 57,
      "start": 2.5128,
      "duration": 0.0101,
      "velocity": 113,
      "chip": "ym2612"
    },
    {
      "channel": 2,
      "note": 76,
      "start": 2.5139,
      "duration": 0.0459,
      "velocity": 81,
      "chip": "ym2612"
    },
    {
      "channel": 3,
      "note": 76,
      "start": 2.515,
      "duration": 0.0088,
      "velocity": 80,
      "chip": "ym2612"
    },
    {
      "channel": 1,
      "note": 80,
      "start": 2.5161,
      "duration": 0.0933,
      "velocity": 74,
      "chip": "ym2612"
    },
    {
      "channel": 4,
      "note": 57,
      "start": 2.5237,
      "duration": 0.0103,
      "velocity": 113,
      "chip": "ym2612"
    },
    {
      "channel": 3,
      "note": 71,
      "start": 2.5247,
      "duration": 0.0103,
      "velocity": 80,
      "chip": "ym2612"
    },
    {
      "channel": 4,
      "note": 57,
      "start": 2.5348,
      "duration": 0.0111,
      "velocity": 113,
      "chip": "ym2612"
    },
    {
      "channel": 3,
      "note": 69,
      "start": 2.5359,
      "duration": 0.0112,
      "velocity": 80,
      "chip": "ym2612"
    },
    {
      "channel": 4,
      "note": 57,
      "start": 2.5467,
      "duration": 0.0119,
      "velocity": 113,
      "chip": "ym2612"
    },
    {
      "channel": 3,
      "note": 68,
      "start": 2.548,
      "duration": 0.013,
      "velocity": 80,
      "chip": "ym2612"
    },
    {
      "channel": 0,
      "note": 76,
      "start": 2.5585,
      "duration": 0.0221,
      "velocity": 81,
      "chip": "ym2612"
    },
    {
      "channel": 4,
      "note": 56,
      "start": 2.5595,
      "duration": 0.0094,
      "velocity": 113,
      "chip": "ym2612"
    },
    {
      "channel": 2,
      "note": 71,
      "start": 2.5607,
      "duration": 0.0221,
      "velocity": 81,
      "chip": "ym2612"
    },
    {
      "channel": 3,
      "note": 76,
      "start": 2.5618,
      "duration": 0.0085,
      "velocity": 80,
      "chip": "ym2612"
    },
    {
      "channel": 4,
      "note": 56,
      "start": 2.5699,
      "duration": 0.0118,
      "velocity": 113,
      "chip": "ym2612"
    },
    {
      "channel": 3,
      "note": 71,
      "start": 2.5712,
      "duration": 0.0127,
      "velocity": 80,
      "chip": "ym2612"
    },
    {
      "channel": 0,
      "note": 78,
      "start": 2.5814,
      "duration": 0.0236,
      "velocity": 81,
      "chip": "ym2612"
    },
    {
      "channel": 4,
      "note": 56,
      "start": 2.5825,
      "duration": 0.0109,
      "velocity": 113,
      "chip": "ym2612"
    },
    {
      "channel": 2,
      "note": 71,
      "start": 2.5836,
      "duration": 0.0237,
      "velocity": 81,
      "chip": "ym2612"
    },
    {
      "channel": 3,
      "note": 69,
      "start": 2.5847,
      "duration": 0.0098,
      "velocity": 80,
      "chip": "ym2612"
    },
    {
      "channel": 4,
      "note": 56,
      "start": 2.5942,
      "duration": 0.0119,
      "velocity": 113,
      "chip": "ym2612"
    },
    {
      "channel": 3,
      "note": 68,
      "start": 2.5953,
      "duration": 0.013,
      "velocity": 80,
      "chip": "ym2612"
    },
    {
      "channel": 0,
      "note": 79,
      "start": 2.6058,
      "duration": 0.0271,
      "velocity": 81,
      "chip": "ym2612"
    },
    {
      "channel": 4,
      "note": 60,
      "start": 2.607,
      "duration": 0.0142,
      "velocity": 113,
      "chip": "ym2612"
    },
    {
      "channel": 2,
      "note": 72,
      "start": 2.608,
      "duration": 0.0271,
      "velocity": 81,
      "chip": "ym2612"
    },
    {
      "channel": 3,
      "note": 72,
      "start": 2.6091,
      "duration": 0.0132,
      "velocity": 80,
      "chip": "ym2612"
    },
    {
      "channel": 1,
      "note": 83,
      "start": 2.6103,
      "duration": 0.0994,
      "velocity": 74,
      "chip": "ym2612"
    },
    {
      "channel": 4,
      "note": 60,
      "start": 2.622,
      "duration": 0.0121,
      "velocity": 113,
      "chip": "ym2612"
    },
    {
      "channel": 3,
      "note": 71,
      "start": 2.6233,
      "duration": 0.013,
      "velocity": 80,
      "chip": "ym2612"
    },
    {
      "channel": 0,
      "note": 81,
      "start": 2.6337,
      "duration": 0.0238,
      "velocity": 81,
      "chip": "ym2612"
    },
    {
      "channel": 4,
      "note": 60,
      "start": 2.6349,
      "duration": 0.0108,
      "velocity": 113,
      "chip": "ym2612"
    },
    {
      "channel": 2,
      "note": 74,
      "start": 2.636,
      "duration": 0.0238,
      "velocity": 81,
      "chip": "ym2612"
    },
    {
      "channel": 3,
      "note": 69,
      "start": 2.6371,
      "duration": 0.0096,
      "velocity": 80,
      "chip": "ym2612"
    },
    {
      "channel": 4,
      "note": 60,
      "start": 2.6466,
      "duration": 0.012,
      "velocity": 113,
      "chip": "ym2612"
    },
    {
      "channel": 3,
      "note": 67,
      "start": 2.6476,
      "duration": 0.0133,
      "velocity": 80,
      "chip": "ym2612"
    },
    {
      "channel": 0,
      "note": 83,
      "start": 2.6584,
      "duration": 0.0467,
      "velocity": 81,
      "chip": "ym2612"
    },
    {
      "channel": 4,
      "note": 60,
      "start": 2.6595,
      "duration": 0.0102,
      "velocity": 113,
      "chip": "ym2612"
    },
    {
      "channel": 2,
      "note": 76,
      "start": 2.6606,
      "duration": 0.0467,
      "velocity": 81,
      "chip": "ym2612"
    },
    {
      "channel": 3,
      "note": 72,
      "start": 2.6617,
      "duration": 0.0092,
      "velocity": 80,
      "chip": "ym2612"
    },
    {
      "channel": 4,
      "note": 60,
      "start": 2.6705,
      "duration": 0.0111,
      "velocity": 113,
      "chip": "ym2612"
    },
    {
      "channel": 3,
      "note": 71,
      "start": 2.6718,
      "duration": 0.0111,
      "velocity": 80,
      "chip": "ym2612"
    },
    {
      "channel": 4,
      "note": 60,
      "start": 2.6825,
      "duration": 0.0111,
      "velocity": 113,
      "chip": "ym2612"
    },
    {
      "channel": 3,
      "note": 69,
      "start": 2.6838,
      "duration": 0.0108,
      "velocity": 80,
      "chip": "ym2612"
    },
    {
      "channel": 4,
      "note": 60,
      "start": 2.6944,
      "duration": 0.0118,
      "velocity": 113,
      "chip": "ym2612"
    },
    {
      "channel": 3,
      "note": 67,
      "start": 2.6955,
      "duration": 0.013,
      "velocity": 80,
      "chip": "ym2612"
    },
    {
      "channel": 0,
      "note": 81,
      "start": 2.7059,
      "duration": 0.0486,
      "velocity": 81,
      "chip": "ym2612"
    },
    {
      "channel": 4,
      "note": 60,
      "start": 2.707,
      "duration": 0.0134,
      "velocity": 113,
      "chip": "ym2612"
    },
    {
      "channel": 2,
      "note": 74,
      "start": 2.7082,
      "duration": 0.0485,
      "velocity": 81,
      "chip": "ym2612"
    },
    {
      "channel": 3,
      "note": 74,
      "start": 2.7094,
      "duration": 0.0123,
      "velocity": 80,
      "chip": "ym2612"
    },
    {
      "channel": 1,
      "note": 81,
      "start": 2.7105,
      "duration": 0.0485,
      "velocity": 74,
      "chip": "ym2612"
    },
    {
      "channel": 4,
      "note": 60,
      "start": 2.7213,
      "duration": 0.0111,
      "velocity": 113,
      "chip": "ym2612"
    },
    {
      "channel": 3,
      "note": 72,
      "start": 2.7225,
      "duration": 0.0112,
      "velocity": 80,
      "chip": "ym2612"
    },
    {
      "channel": 4,
      "note": 60,
      "start": 2.7333,
      "duration": 0.0111,
      "velocity": 113,
      "chip": "ym2612"
    },
    {
      "channel": 3,
      "note": 71,
      "start": 2.7345,
      "duration": 0.0109,
      "velocity": 80,
      "chip": "ym2612"
    },
    {
      "channel": 4,
      "note": 60,
      "start": 2.7452,
      "duration": 0.0104,
      "velocity": 113,
      "chip": "ym2612"
    },
    {
      "channel": 3,
      "note": 69,
      "start": 2.7463,
      "duration": 0.0117,
      "velocity": 80,
      "chip": "ym2612"
    },
    {
      "channel": 0,
      "note": 78,
      "start": 2.7553,
      "duration": 0.0483,
      "velocity": 81,
      "chip": "ym2612"
    },
    {
      "channel": 4,
      "note": 60,
      "start": 2.7565,
      "duration": 0.0123,
      "velocity": 113,
      "chip": "ym2612"
    },
    {
      "channel": 2,
      "note": 69,
      "start": 2.7576,
      "duration": 0.0483,
      "velocity": 81,
      "chip": "ym2612"
    },
    {
      "channel": 3,
      "note": 74,
      "start": 2.7588,
      "duration": 0.011,
      "velocity": 80,
      "chip": "ym2612"
    },
    {
      "channel": 1,
      "note": 86,
      "start": 2.7598,
      "duration": 0.0485,
      "velocity": 1,
      "chip": "ym2612"
    },
    {
      "channel": 4,
      "note": 60,
      "start": 2.7696,
      "duration": 0.0106,
      "velocity": 113,
      "chip": "ym2612"
    },
    {
      "channel": 3,
      "note": 72,
      "start": 2.7706,
      "duration": 0.0108,
      "velocity": 80,
      "chip": "ym2612"
    },
    {
      "channel": 4,
      "note": 60,
      "start": 2.781,
      "duration": 0.0108,
      "velocity": 113,
      "chip": "ym2612"
    },
    {
      "channel": 3,
      "note": 71,
      "start": 2.7823,
      "duration": 0.0106,
      "velocity": 80,
      "chip": "ym2612"
    },
    {
      "channel": 4,
      "note": 60,
      "start": 2.7927,
      "duration": 0.0121,
      "velocity": 113,
      "chip": "ym2612"
    },
    {
      "channel": 3,
      "note": 69,
      "start": 2.7937,
      "duration": 0.0133,
      "velocity": 80,
      "chip": "ym2612"
    },
    {
      "channel": 0,
      "note": 79,
      "start": 2.8045,
      "duration": 0.0264,
      "velocity": 81,
      "chip": "ym2612"
    },
    {
      "channel": 4,
      "note": 60,
      "start": 2.8056,
      "duration": 0.0133,
      "velocity": 113,
      "chip": "ym2612"
    },
    {
      "channel": 2,
      "note": 72,
      "start": 2.8068,
      "duration": 0.0263,
      "velocity": 81,
      "chip": "ym2612"
    },
    {
      "channel": 3,
      "note": 72,
      "start": 2.8079,
      "duration": 0.0123,
      "velocity": 80,
      "chip": "ym2612"
    },
    {
      "channel": 4,
      "note": 60,
      "start": 2.8197,
      "duration": 0.0123,
      "velocity": 113,
      "chip": "ym2612"
    },
    {
      "channel": 3,
      "note": 71,
      "start": 2.821,
      "duration": 0.0133,
      "velocity": 80,
      "chip": "ym2612"
    },
    {
      "channel": 0,
      "note": 78,
      "start": 2.8317,
      "duration": 0.0254,
      "velocity": 81,
      "chip": "ym2612"
    },
    {
      "channel": 4,
      "note": 60,
      "start": 2.8329,
      "duration": 0.0134,
      "velocity": 113,
      "chip": "ym2612"
    },
    {
      "channel": 2,
      "note": 72,
      "start": 2.834,
      "duration": 0.0252,
      "velocity": 81,
      "chip": "ym2612"
    },
    {
      "channel": 3,
      "note": 69,
      "start": 2.8351,
      "duration": 0.0124,
      "velocity": 80,
      "chip": "ym2612"
    },
    {
      "channel": 1,
      "note": 83,
      "start": 2.8363,
      "duration": 0.0741,
      "velocity": 74,
      "chip": "ym2612"
    },
    {
      "channel": 4,
      "note": 60,
      "start": 2.8471,
      "duration": 0.011,
      "velocity": 113,
      "chip": "ym2612"
    },
    {
      "channel": 3,
      "note": 67,
      "start": 2.8484,
      "duration": 0.012,
      "velocity": 80,
      "chip": "ym2612"
    },
    {
      "channel": 0,
      "note": 76,
      "start": 2.8579,
      "duration": 0.0237,
      "velocity": 81,
      "chip": "ym2612"
    },
    {
      "channel": 4,
      "note": 60,
      "start": 2.859,
      "duration": 0.0109,
      "velocity": 113,
      "chip": "ym2612"
    },
    {
      "channel": 2,
      "note": 72,
      "start": 2.8601,
      "duration": 0.0236,
      "velocity": 81,
      "chip": "ym2612"
    },
    {
      "channel": 3,
      "note": 72,
      "start": 2.8612,
      "duration": 0.0099,
      "velocity": 80,
      "chip": "ym2612"
    },
    {
      "channel": 4,
      "note": 60,
      "start": 2.8708,
      "duration": 0.0118,
      "velocity": 113,
      "chip": "ym2612"
    },
    {
      "channel": 3,
      "note": 71,
      "start": 2.872,
      "duration": 0.0128,
      "velocity": 80,
      "chip": "ym2612"
    },
    {
      "channel": 0,
      "note": 79,
      "start": 2.8824,
      "duration": 0.0235,
      "velocity": 81,
      "chip": "ym2612"
    },
    {
      "channel": 4,
      "note": 60,
      "start": 2.8834,
      "duration": 0.0108,
      "velocity": 113,
      "chip": "ym2612"
    },
    {
      "channel": 2,
      "note": 72,
      "start": 2.8845,
      "duration": 0.0236,
      "velocity": 81,
      "chip": "ym2612"
    },
    {
      "channel": 3,
      "note": 69,
      "start": 2.8857,
      "duration": 0.0096,
      "velocity": 80,
      "chip": "ym2612"
    },
    {
      "channel": 4,
      "note": 60,
      "start": 2.895,
      "duration": 0.012,
      "velocity": 113,
      "chip": "ym2612"
    },
    {
      "channel": 3,
      "note": 67,
      "start": 2.8962,
      "duration": 0.0131,
      "velocity": 80,
      "chip": "ym2612"
    },
    {
      "channel": 0,
      "note": 78,
      "start": 2.9067,
      "duration": 0.0507,
      "velocity": 81,
      "chip": "ym2612"
    },
    {
      "channel": 4,
      "note": 62,
      "start": 2.9078,
      "duration": 0.0141,
      "velocity": 113,
      "chip": "ym2612"
    },
    {
      "channel": 2,
      "note": 74,
      "start": 2.909,
      "duration": 0.0506,
      "velocity": 81,
      "chip": "ym2612"
    },
    {
      "channel": 3,
      "note": 74,
      "start": 2.9101,
      "duration": 0.0131,
      "velocity": 80,
      "chip": "ym2612"
    },
    {
      "channel": 1,
      "note": 81,
      "start": 2.9112,
      "duration": 0.0505,
      "velocity": 74,
      "chip": "ym2612"
    },
    {
      "channel": 4,
      "note": 62,
      "start": 2.9228,
      "duration": 0.0109,
      "velocity": 113,
      "chip": "ym2612"
    },
    {
      "channel": 3,
      "note": 72,
      "start": 2.9241,
      "duration": 0.0108,
      "velocity": 80,
      "chip": "ym2612"
    },
    {
      "channel": 4,
      "note": 62,
      "start": 2.9346,
      "duration": 0.011,
      "velocity": 113,
      "chip": "ym2612"
    },
    {
      "channel": 3,
      "note": 71,
      "start": 2.9358,
      "duration": 0.011,
      "velocity": 80,
      "chip": "ym2612"
    },
    {
      "channel": 4,
      "note": 62,
      "start": 2.9464,
      "duration": 0.0121,
      "velocity": 113,
      "chip": "ym2612"
    },
    {
      "channel": 3,
      "note": 69,
      "start": 2.9477,
      "duration": 0.013,
      "velocity": 80,
      "chip": "ym2612"
    },
    {
      "channel": 0,
      "note": 74,
      "start": 2.9582,
      "duration": 0.0458,
      "velocity": 81,
      "chip": "ym2612"
    },
    {
      "channel": 4,
      "note": 62,
      "start": 2.9593,
      "duration": 0.0101,
      "velocity": 113,
      "chip": "ym2612"
    },
    {
      "channel": 2,
      "note": 69,
      "start": 2.9604,
      "duration": 0.0458,
      "velocity": 81,
      "chip": "ym2612"
    },
    {
      "channel": 3,
      "note": 74,
      "start": 2.9616,
      "duration": 0.0089,
      "velocity": 80,
      "chip": "ym2612"
    },
    {
      "channel": 1,
      "note": 78,
      "start": 2.9626,
      "duration": 0.0461,
      "velocity": 1,
      "chip": "ym2612"
    },
    {
      "channel": 4,
      "note": 62,
      "start": 2.9702,
      "duration": 0.0104,
      "velocity": 113,
      "chip": "ym2612"
    },
    {
      "channel": 3,
      "note": 72,
      "start": 2.9713,
      "duration": 0.0104,
      "velocity": 80,
      "chip": "ym2612"
    },
    {
      "channel": 4,
      "note": 62,
      "start": 2.9814,
      "duration": 0.0109,
      "velocity": 113,
      "chip": "ym2612"
    },
    {
      "channel": 3,
      "note": 71,
      "start": 2.9825,
      "duration": 0.0111,
      "velocity": 80,
      "chip": "ym2612"
    },
    {
      "channel": 4,
      "note": 62,
      "start": 2.9932,
      "duration": 0.012,
      "velocity": 113,
      "chip": "ym2612"
    },
    {
      "channel": 3,
      "note": 69,
      "start": 2.9944,
      "duration": 0.0129,
      "velocity": 80,
      "chip": "ym2612"
    },
    {
      "channel": 0,
      "note": 72,
      "start": 3.0048,
      "duration": 0.0272,
      "velocity": 81,
      "chip": "ym2612"
    },
    {
      "channel": 4,
      "note": 60,
      "start": 3.006,
      "duration": 0.0141,
      "velocity": 113,
      "chip": "ym2612"
    },
    {
      "channel": 2,
      "note": 72,
      "start": 3.007,
      "duration": 0.0273,
      "velocity": 81,
      "chip": "ym2612"
    },
    {
      "channel": 3,
      "note": 72,
      "start": 3.0082,
      "duration": 0.0131,
      "velocity": 80,
      "chip": "ym2612"
    },
    {
      "channel": 4,
      "note": 60,
      "start": 3.0209,
      "duration": 0.0122,
      "velocity": 113,
      "chip": "ym2612"
    },
    {
      "channel": 3,
      "note": 71,
      "start": 3.0222,
      "duration": 0.0132,
      "velocity": 80,
      "chip": "ym2612"
    },
    {
      "channel": 0,
      "note": 74,
      "start": 3.0329,
      "duration": 0.0273,
      "velocity": 81,
      "chip": "ym2612"
    },
    {
      "channel": 4,
      "note": 60,
      "start": 3.034,
      "duration": 0.0142,
      "velocity": 113,
      "chip": "ym2612"
    },
    {
      "channel": 2,
      "note": 72,
      "start": 3.0352,
      "duration": 0.0271,
      "velocity": 81,
      "chip": "ym2612"
    },
    {
      "channel": 3,
      "note": 69,
      "start": 3.0363,
      "duration": 0.0132,
      "velocity": 80,
      "chip": "ym2612"
    },
    {
      "channel": 1,
      "note": 83,
      "start": 3.0374,
      "duration": 0.0751,
      "velocity": 74,
      "chip": "ym2612"
    },
    {
      "channel": 4,
      "note": 60,
      "start": 3.049,
      "duration": 0.0122,
      "velocity": 113,
      "chip": "ym2612"
    },
    {
      "channel": 3,
      "note": 67,
      "start": 3.0503,
      "duration": 0.0131,
      "velocity": 80,
      "chip": "ym2612"
    },
    {
      "channel": 0,
      "note": 75,
      "start": 3.061,
      "duration": 0.021,
      "velocity": 81,
      "chip": "ym2612"
    },
    {
      "channel": 4,
      "note": 60,
      "start": 3.0621,
      "duration": 0.0087,
      "velocity": 113,
      "chip": "ym2612"
    },
    {
      "channel": 2,
      "note": 72,
      "start": 3.063,
      "duration": 0.0211,
      "velocity": 81,
      "chip": "ym2612"
    },
    {
      "channel": 3,
      "note": 72,
      "start": 3.0642,
      "duration": 0.0076,
      "velocity": 80,
      "chip": "ym2612"
    },
    {
      "channel": 4,
      "note": 60,
      "start": 3.0716,
      "duration": 0.0114,
      "velocity": 113,
      "chip": "ym2612"
    },
    {
      "channel": 3,
      "note": 71,
      "start": 3.0726,
      "duration": 0.0127,
      "velocity": 80,
      "chip": "ym2612"
    },
    {
      "channel": 0,
      "note": 76,
      "start": 3.0828,
      "duration": 0.0252,
      "velocity": 81,
      "chip": "ym2612"
    },
    {
      "channel": 4,
      "note": 60,
      "start": 3.0839,
      "duration": 0.0133,
      "velocity": 113,
      "chip": "ym2612"
    },
    {
      "channel": 2,
      "note": 72,
      "start": 3.085,
      "duration": 0.0253,
      "velocity": 81,
      "chip": "ym2612"
    },
    {
      "channel": 3,
      "note": 69,
      "start": 3.0862,
      "duration": 0.0122,
      "velocity": 80,
      "chip": "ym2612"
    },
    {
      "channel": 4,
      "note": 60,
      "start": 3.098,
      "duration": 0.0112,
      "velocity": 113,
      "chip": "ym2612"
    },
    {
      "channel": 3,
      "note": 67,
      "start": 3.0993,
      "duration": 0.0122,
      "velocity": 80,
      "chip": "ym2612"
    },
    {
      "channel": 0,
      "note": 77,
      "start": 3.1089,
      "duration": 0.0246,
      "velocity": 81,
      "chip": "ym2612"
    },
    {
      "channel": 4,
      "note": 60,
      "start": 3.11,
      "duration": 0.0122,
      "velocity": 113,
      "chip": "ym2612"
    },
    {
      "channel": 2,
      "note": 72,
      "start": 3.1111,
      "duration": 0.0247,
      "velocity": 81,
      "chip": "ym2612"
    },
    {
      "channel": 3,
      "note": 74,
      "start": 3.1123,
      "duration": 0.0109,
      "velocity": 80,
      "chip": "ym2612"
    },
    {
      "channel": 1,
      "note": 79,
      "start": 3.1134,
      "duration": 0.0501,
      "velocity": 74,
      "chip": "ym2612"
    },
    {
      "channel": 4,
      "note": 60,
      "start": 3.123,
      "duration": 0.0116,
      "velocity": 113,
      "chip": "ym2612"
    },
    {
      "channel": 3,
      "note": 72,
      "start": 3.1241,
      "duration": 0.0129,
      "velocity": 80,
      "chip": "ym2612"
    },
    {
      "channel": 0,
      "note": 78,
      "start": 3.1344,
      "duration": 0.0249,
      "velocity": 81,
      "chip": "ym2612"
    },
    {
      "channel": 4,
      "note": 60,
      "start": 3.1355,
      "duration": 0.0131,
      "velocity": 113,
      "chip": "ym2612"
    },
    {
      "channel": 2,
      "note": 72,
      "start": 3.1366,
      "duration": 0.0247,
      "velocity": 81,
      "chip": "ym2612"
    },
    {
      "channel": 3,
      "note": 71,
      "start": 3.1378,
      "duration": 0.0121,
      "velocity": 80,
      "chip": "ym2612"
    },
    {
      "channel": 4,
      "note": 60,
      "start": 3.1494,
      "duration": 0.0108,
      "velocity": 113,
      "chip": "ym2612"
    },
    {
      "channel": 3,
      "note": 69,
      "start": 3.1507,
      "duration": 0.0117,
      "velocity": 80,
      "chip": "ym2612"
    },
    {
      "channel": 0,
      "note": 79,
      "start": 3.16,
      "duration": 0.0245,
      "velocity": 81,
      "chip": "ym2612"
    },
    {
      "channel": 4,
      "note": 60,
      "start": 3.161,
      "duration": 0.012,
      "velocity": 113,
      "chip": "ym2612"
    },
    {
      "channel": 2,
      "note": 72,
      "start": 3.1621,
      "duration": 0.0247,
      "velocity": 81,
      "chip": "ym2612"
    },
    {
      "channel": 3,
      "note": 74,
      "start": 3.1632,
      "duration": 0.0109,
      "velocity": 80,
      "chip": "ym2612"
    },
    {
      "channel": 1,
      "note": 76,
      "start": 3.1643,
      "duration": 0.0505,
      "velocity": 74,
      "chip": "ym2612"
    },
    {
      "channel": 4,
      "note": 60,
      "start": 3.1738,
      "duration": 0.0119,
      "velocity": 113,
      "chip": "ym2612"
    },
    {
      "channel": 3,
      "note": 72,
      "start": 3.1749,
      "duration": 0.0131,
      "velocity": 80,
      "chip": "ym2612"
    },
    {
      "channel": 0,
      "note": 81,
      "start": 3.1854,
      "duration": 0.025,
      "velocity": 81,
      "chip": "ym2612"
    },
    {
      "channel": 4,
      "note": 60,
      "start": 3.1865,
      "duration": 0.0131,
      "velocity": 113,
      "chip": "ym2612"
    },
    {
      "channel": 2,
      "note": 72,
      "start": 3.1877,
      "duration": 0.0249,
      "velocity": 81,
      "chip": "ym2612"
    },
    {
      "channel": 3,
      "note": 71,
      "start": 3.1888,
      "duration": 0.0121,
      "velocity": 80,
      "chip": "ym2612"
    },
    {
      "channel": 4,
      "note": 60,
      "start": 3.2005,
      "duration": 0.011,
      "velocity": 113,
      "chip": "ym2612"
    },
    {
      "channel": 3,
      "note": 69,
      "start": 3.2018,
      "duration": 0.012,
      "velocity": 80,
      "chip": "ym2612"
    },
    {
      "channel": 0,
      "note": 83,
      "start": 3.2112,
      "duration": 0.0132,
      "velocity": 81,
      "chip": "ym2612"
    },
    {
      "channel": 4,
      "note": 59,
      "start": 3.2123,
      "duration": 0.0132,
      "velocity": 113,
      "chip": "ym2612"
    },
    {
      "channel": 2,
      "note": 71,
      "start": 3.2135,
      "duration": 0.0247,
      "velocity": 81,
      "chip": "ym2612"
    },
    {
      "channel": 3,
      "note": 71,
      "start": 3.2146,
      "duration": 0.012,
      "velocity": 80,
      "chip": "ym2612"
    },
    {
      "channel": 1,
      "note": 78,
      "start": 3.2157,
      "duration": 0.0248,
      "velocity": 74,
      "chip": "ym2612"
    },
    {
      "channel": 0,
      "note": 78,
      "start": 3.2253,
      "duration": 0.0106,
      "velocity": 81,
      "chip": "ym2612"
    },
    {
      "channel": 4,
      "note": 59,
      "start": 3.2264,
      "duration": 0.0106,
      "velocity": 113,
      "chip": "ym2612"
    },
    {
      "channel": 3,
      "note": 69,
      "start": 3.2274,
      "duration": 0.0119,
      "velocity": 80,
      "chip": "ym2612"
    },
    {
      "channel": 0,
      "note": 85,
      "start": 3.2367,
      "duration": 0.0145,
      "velocity": 81,
      "chip": "ym2612"
    },
    {
      "channel": 4,
      "note": 59,
      "start": 3.2379,
      "duration": 0.0144,
      "velocity": 113,
      "chip": "ym2612"
    },
    {
      "channel": 2,
      "note": 71,
      "start": 3.2391,
      "duration": 0.0259,
      "velocity": 81,
      "chip": "ym2612"
    },
    {
      "channel": 3,
      "note": 68,
      "start": 3.2402,
      "duration": 0.0134,
      "velocity": 80,
      "chip": "ym2612"
    },
    {
      "channel": 1,
      "note": 83,
      "start": 3.2414,
      "duration": 0.0509,
      "velocity": 74,
      "chip": "ym2612"
    },
    {
      "channel": 0,
      "note": 78,
      "start": 3.252,
      "duration": 0.0109,
      "velocity": 81,
      "chip": "ym2612"
    },
    {
      "channel": 4,
      "note": 59,
      "start": 3.2532,
      "duration": 0.0107,
      "velocity": 113,
      "chip": "ym2612"
    },
    {
      "channel": 3,
      "note": 66,
      "start": 3.2544,
      "duration": 0.0117,
      "velocity": 80,
      "chip": "ym2612"
    },
    {
      "channel": 0,
      "note": 86,
      "start": 3.2637,
      "duration": 0.0121,
      "velocity": 81,
      "chip": "ym2612"
    },
    {
      "channel": 4,
      "note": 59,
      "start": 3.2648,
      "duration": 0.0121,
      "velocity": 113,
      "chip": "ym2612"
    },
    {
      "channel": 2,
      "note": 71,
      "start": 3.2658,
      "duration": 0.0242,
      "velocity": 81,
      "chip": "ym2612"
    },
    {
      "channel": 3,
      "note": 71,
      "start": 3.267,
      "duration": 0.0112,
      "velocity": 80,
      "chip": "ym2612"
    },
    {
      "channel": 0,
      "note": 78,
      "start": 3.2766,
      "duration": 0.011,
      "velocity": 81,
      "chip": "ym2612"
    },
    {
      "channel": 4,
      "note": 59,
      "start": 3.2778,
      "duration": 0.011,
      "velocity": 113,
      "chip": "ym2612"
    },
    {
      "channel": 3,
      "note": 69,
      "start": 3.279,
      "duration": 0.012,
      "velocity": 80,
      "chip": "ym2612"
    },
    {
      "channel": 0,
      "note": 87,
      "start": 3.2885,
      "duration": 0.0144,
      "velocity": 81,
      "chip": "ym2612"
    },
    {
      "channel": 4,
      "note": 59,
      "start": 3.2896,
      "duration": 0.0144,
      "velocity": 113,
      "chip": "ym2612"
    },
    {
      "channel": 2,
      "note": 71,
      "start": 3.2907,
      "duration": 0.0274,
      "velocity": 81,
      "chip": "ym2612"
    },
    {
      "channel": 3,
      "note": 68,
      "start": 3.2919,
      "duration": 0.0134,
      "velocity": 80,
      "chip": "ym2612"
    },
    {
      "channel": 1,
      "note": 81,
      "start": 3.2931,
      "duration": 0.0272,
      "velocity": 74,
      "chip": "ym2612"
    },
    {
      "channel": 0,
      "note": 78,
      "start": 3.3037,
      "duration": 0.0122,
      "velocity": 81,
      "chip": "ym2612"
    },
    {
      "channel": 4,
      "note": 59,
      "start": 3.3048,
      "duration": 0.0122,
      "velocity": 113,
      "chip": "ym2612"
    },
    {
      "channel": 3,
      "note": 66,
      "start": 3.3061,
      "duration": 0.0132,
      "velocity": 80,
      "chip": "ym2612"
    },
    {
      "channel": 0,
      "note": 88,
      "start": 3.3168,
      "duration": 0.0891,
      "velocity": 81,
      "chip": "ym2612"
    },
    {
      "channel": 4,
      "note": 59,
      "start": 3.3179,
      "duration": 0.0098,
      "velocity": 113,
      "chip": "ym2612"
    },
    {
      "channel": 2,
      "note": 80,
      "start": 3.319,
      "duration": 0.0892,
      "velocity": 81,
      "chip": "ym2612"
    },
    {
      "channel": 3,
      "note": 76,
      "start": 3.3201,
      "duration": 0.0086,
      "velocity": 80,
      "chip": "ym2612"
    },
    {
      "channel": 1,
      "note": 80,
      "start": 3.321,
      "duration": 0.0896,
      "velocity": 1,
      "chip": "ym2612"
    },
    {
      "channel": 4,
      "note": 59,
      "start": 3.3285,
      "duration": 0.0104,
      "velocity": 113,
      "chip": "ym2612"
    },
    {
      "channel": 3,
      "note": 74,
      "start": 3.3295,
      "duration": 0.0106,
      "velocity": 80,
      "chip": "ym2612"
    },
    {
      "channel": 4,
      "note": 59,
      "start": 3.3398,
      "duration": 0.011,
      "velocity": 113,
      "chip": "ym2612"
    },
    {
      "channel": 3,
      "note": 73,
      "start": 3.341,
      "duration": 0.011,
      "velocity": 80,
      "chip": "ym2612"
    },
    {
      "channel": 4,
      "note": 59,
      "start": 3.3516,
      "duration": 0.011,
      "velocity": 113,
      "chip": "ym2612"
    },
    {
      "channel": 3,
      "note": 71,
      "start": 3.3528,
      "duration": 0.0109,
      "velocity": 80,
      "chip": "ym2612"
    },
    {
      "channel": 4,
      "note": 59,
      "start": 3.3634,
      "duration": 0.008,
      "velocity": 113,
      "chip": "ym2612"
    },
    {
      "channel": 3,
      "note": 76,
      "start": 3.3646,
      "duration": 0.0077,
      "velocity": 80,
      "chip": "ym2612"
    },
    {
      "channel": 4,
      "note": 59,
      "start": 3.3722,
      "duration": 0.0103,
      "velocity": 113,
      "chip": "ym2612"
    },
    {
      "channel": 3,
      "note": 74,
      "start": 3.3732,
      "duration": 0.0104,
      "velocity": 80,
      "chip": "ym2612"
    },
    {
      "channel": 4,
      "note": 59,
      "start": 3.3833,
      "duration": 0.011,
      "velocity": 113,
      "chip": "ym2612"
    },
    {
      "channel": 3,
      "note": 73,
      "start": 3.3844,
      "duration": 0.0112,
      "velocity": 80,
      "chip": "ym2612"
    },
    {
      "channel": 4,
      "note": 59,
      "start": 3.3951,
      "duration": 0.0119,
      "velocity": 113,
      "chip": "ym2612"
    },
    {
      "channel": 3,
      "note": 71,
      "start": 3.3964,
      "duration": 0.013,
      "velocity": 80,
      "chip": "ym2612"
    },
    {
      "channel": 0,
      "note": 73,
      "start": 3.4067,
      "duration": 31.2216,
      "velocity": 81,
      "chip": "ym2612"
    },
    {
      "channel": 4,
      "note": 57,
      "start": 3.4078,
      "duration": 0.0142,
      "velocity": 113,
      "chip": "ym2612"
    },
    {
      "channel": 2,
      "note": 69,
      "start": 3.4091,
      "duration": 31.2193,
      "velocity": 81,
      "chip": "ym2612"
    },
    {
      "channel": 3,
      "note": 73,
      "start": 3.4102,
      "duration": 0.013,
      "velocity": 80,
      "chip": "ym2612"
    },
    {
      "channel": 4,
      "note": 57,
      "start": 3.4228,
      "duration": 0.011,
      "velocity": 113,
      "chip": "ym2612"
    },
    {
      "channel": 3,
      "note": 72,
      "start": 3.4241,
      "duration": 0.0109,
      "velocity": 80,
      "chip": "ym2612"
    },
    {
      "channel": 4,
      "note": 57,
      "start": 3.4347,
      "duration": 0.0107,
      "velocity": 113,
      "chip": "ym2612"
    },
    {
      "channel": 3,
      "note": 71,
      "start": 3.4358,
      "duration": 0.0108,
      "velocity": 80,
      "chip": "ym2612"
    },
    {
      "channel": 4,
      "note": 57,
      "start": 3.4462,
      "duration": 31.1821,
      "velocity": 113,
      "chip": "ym2612"
    },
    {
      "channel": 3,
      "note": 69,
      "start": 3.4475,
      "duration": 31.1808,
      "velocity": 80,
      "chip": "ym2612"
    }
  ]
}