{
  "track_name": "11 - Battle Theme 8",
  "duration_sec": 97.285,
  "sample_rate": 44100,
  "note_count": 1900,
  "unique_pitches": 36,
  "pitch_range": 59,
  "avg_note_duration": 0.2742,
  "reconstruction_stats": {
    "notes_reconstructed": 1900,
    "keyon_events": 1900,
    "keyoff_events": 1896,
    "orphan_keyons": 4,
    "unique_pitches": 36,
    "pitch_range": 59,
    "avg_duration_sec": 0.2742
  },
  "metadata": {
    "source": "H\\Honoo no Toukyuuji Dodge Danpei\\11 - Battle Theme 8.vgz"
  },
  "notes": [
    {
      "channel": 3,
      "note": 59,
      "start": 0.0022,
      "duration": 0.2656,
      "velocity": 96,
      "chip": "ym2612"
    },
    {
      "channel": 5,
      "note": 59,
      "start": 0.0085,
      "duration": 0.2601,
      "velocity": 111,
      "chip": "ym2612"
    },
    {
      "channel": 2,
      "note": 69,
      "start": 0.0095,
      "duration": 0.211,
      "velocity": 127,
      "chip": "ym2612"
    },
    {
      "channel": 3,
      "note": 59,
      "start": 0.2683,
      "duration": 0.2662,
      "velocity": 96,
      "chip": "ym2612"
    },
    {
      "channel": 5,
      "note": 59,
      "start": 0.269,
      "duration": 0.2659,
      "velocity": 111,
      "chip": "ym2612"
    },
    {
      "channel": 2,
      "note": 69,
      "start": 0.27,
      "duration": 0.22,
      "velocity": 127,
      "chip": "ym2612"
    },
    {
      "channel": 5,
      "note": 59,
      "start": 0.5353,
      "duration": 0.2687,
      "velocity": 111,
      "chip": "ym2612"
    },
    {
      "channel": 3,
      "note": 59,
      "start": 0.6723,
      "duration": 0.2688,
      "velocity": 96,
      "chip": "ym2612"
    },
    {
      "channel": 2,
      "note": 69,
      "start": 0.6738,
      "duration": 0.2205,
      "velocity": 127,
      "chip": "ym2612"
    },
    {
      "channel": 5,
      "note": 59,
      "start": 0.8045,
      "duration": 0.2692,
      "velocity": 111,
      "chip": "ym2612"
    },
    {
      "channel": 3,
      "note": 59,
      "start": 0.9416,
      "duration": 0.1317,
      "velocity": 96,
      "chip": "ym2612"
    },
    {
      "channel": 2,
      "note": 69,
      "start": 0.943,
      "duration": 0.2209,
      "velocity": 127,
      "chip": "ym2612"
    },
    {
      "channel": 5,
      "note": 59,
      "start": 1.0743,
      "duration": 0.2687,
      "velocity": 111,
      "chip": "ym2612"
    },
    {
      "channel": 3,
      "note": 59,
      "start": 1.2112,
      "duration": 0.269,
      "velocity": 96,
      "chip": "ym2612"
    },
    {
      "channel": 2,
      "note": 69,
      "start": 1.2127,
      "duration": 0.2206,
      "velocity": 127,
      "chip": "ym2612"
    },
    {
      "channel": 5,
      "note": 59,
      "start": 1.3435,
      "duration": 0.2722,
      "velocity": 111,
      "chip": "ym2612"
    },
    {
      "channel": 3,
      "note": 59,
      "start": 1.4807,
      "duration": 0.1343,
      "velocity": 96,
      "chip": "ym2612"
    },
    {
      "channel": 2,
      "note": 69,
      "start": 1.4821,
      "duration": 0.1299,
      "velocity": 127,
      "chip": "ym2612"
    },
    {
      "channel": 3,
      "note": 59,
      "start": 1.6154,
      "duration": 0.2695,
      "velocity": 96,
      "chip": "ym2612"
    },
    {
      "channel": 5,
      "note": 59,
      "start": 1.6161,
      "duration": 0.2695,
      "velocity": 111,
      "chip": "ym2612"
    },
    {
      "channel": 2,
      "note": 69,
      "start": 1.6175,
      "duration": 0.2201,
      "velocity": 127,
      "chip": "ym2612"
    },
    {
      "channel": 3,
      "note": 59,
      "start": 1.8853,
      "duration": 0.2692,
      "velocity": 96,
      "chip": "ym2612"
    },
    {
      "channel": 5,
      "note": 59,
      "start": 1.886,
      "duration": 0.2697,
      "velocity": 111,
      "chip": "ym2612"
    },
    {
      "channel": 2,
      "note": 69,
      "start": 1.887,
      "duration": 0.2201,
      "velocity": 127,
      "chip": "ym2612"
    },
    {
      "channel": 3,
      "note": 59,
      "start": 2.1552,
      "duration": 0.2683,
      "velocity": 96,
      "chip": "ym2612"
    },
    {
      "channel": 5,
      "note": 59,
      "start": 2.1563,
      "duration": 0.2678,
      "velocity": 111,
      "chip": "ym2612"
    },
    {
      "channel": 2,
      "note": 69,
      "start": 2.1573,
      "duration": 0.2193,
      "velocity": 127,
      "chip": "ym2612"
    },
    {
      "channel": 3,
      "note": 59,
      "start": 2.4239,
      "duration": 0.2663,
      "velocity": 96,
      "chip": "ym2612"
    },
    {
      "channel": 5,
      "note": 59,
      "start": 2.4246,
      "duration": 0.266,
      "velocity": 111,
      "chip": "ym2612"
    },
    {
      "channel": 2,
      "note": 69,
      "start": 2.4255,
      "duration": 0.2205,
      "velocity": 127,
      "chip": "ym2612"
    },
    {
      "channel": 5,
      "note": 59,
      "start": 2.691,
      "duration": 0.2691,
      "velocity": 111,
      "chip": "ym2612"
    },
    {
      "channel": 3,
      "note": 59,
      "start": 2.8284,
      "duration": 0.2688,
      "velocity": 96,
      "chip": "ym2612"
    },
    {
      "channel": 2,
      "note": 69,
      "start": 2.8298,
      "duration": 0.2209,
      "velocity": 127,
      "chip": "ym2612"
    },
    {
      "channel": 5,
      "note": 59,
      "start": 2.9606,
      "duration": 0.2691,
      "velocity": 111,
      "chip": "ym2612"
    },
    {
      "channel": 3,
      "note": 59,
      "start": 3.0977,
      "duration": 0.1315,
      "velocity": 96,
      "chip": "ym2612"
    },
    {
      "channel": 2,
      "note": 69,
      "start": 3.0991,
      "duration": 0.2205,
      "velocity": 127,
      "chip": "ym2612"
    },
    {
      "channel": 5,
      "note": 59,
      "start": 3.2302,
      "duration": 0.2689,
      "velocity": 111,
      "chip": "ym2612"
    },
    {
      "channel": 3,
      "note": 59,
      "start": 3.3677,
      "duration": 0.2689,
      "velocity": 96,
      "chip": "ym2612"
    },
    {
      "channel": 2,
      "note": 69,
      "start": 3.3691,
      "duration": 0.2202,
      "velocity": 127,
      "chip": "ym2612"
    },
    {
      "channel": 5,
      "note": 59,
      "start": 3.4996,
      "duration": 0.272,
      "velocity": 111,
      "chip": "ym2612"
    },
    {
      "channel": 3,
      "note": 59,
      "start": 3.6371,
      "duration": 0.1339,
      "velocity": 96,
      "chip": "ym2612"
    },
    {
      "channel": 2,
      "note": 69,
      "start": 3.6385,
      "duration": 0.1294,
      "velocity": 127,
      "chip": "ym2612"
    },
    {
      "channel": 3,
      "note": 59,
      "start": 3.7714,
      "duration": 0.2691,
      "velocity": 96,
      "chip": "ym2612"
    },
    {
      "channel": 5,
      "note": 59,
      "start": 3.772,
      "duration": 0.2691,
      "velocity": 111,
      "chip": "ym2612"
    },
    {
      "channel": 2,
      "note": 69,
      "start": 3.7731,
      "duration": 0.2205,
      "velocity": 127,
      "chip": "ym2612"
    },
    {
      "channel": 3,
      "note": 59,
      "start": 4.0409,
      "duration": 0.2702,
      "velocity": 96,
      "chip": "ym2612"
    },
    {
      "channel": 5,
      "note": 59,
      "start": 4.0416,
      "duration": 0.2707,
      "velocity": 111,
      "chip": "ym2612"
    },
    {
      "channel": 2,
      "note": 69,
      "start": 4.0426,
      "duration": 0.2206,
      "velocity": 127,
      "chip": "ym2612"
    },
    {
      "channel": 1,
      "note": 83,
      "start": 4.311,
      "duration": 0.3563,
      "velocity": 103,
      "chip": "ym2612"
    },
    {
      "channel": 3,
      "note": 59,
      "start": 4.3118,
      "duration": 0.2685,
      "velocity": 96,
      "chip": "ym2612"
    },
    {
      "channel": 5,
      "note": 59,
      "start": 4.3129,
      "duration": 0.268,
      "velocity": 111,
      "chip": "ym2612"
    },
    {
      "channel": 2,
      "note": 69,
      "start": 4.3139,
      "duration": 0.2195,
      "velocity": 127,
      "chip": "ym2612"
    },
    {
      "channel": 0,
      "note": 83,
      "start": 4.3526,
      "duration": 0.3587,
      "velocity": 103,
      "chip": "ym2612"
    },
    {
      "channel": 3,
      "note": 59,
      "start": 4.5807,
      "duration": 0.2662,
      "velocity": 96,
      "chip": "ym2612"
    },
    {
      "channel": 5,
      "note": 59,
      "start": 4.5814,
      "duration": 0.2659,
      "velocity": 111,
      "chip": "ym2612"
    },
    {
      "channel": 2,
      "note": 69,
      "start": 4.5824,
      "duration": 0.2204,
      "velocity": 127,
      "chip": "ym2612"
    },
    {
      "channel": 1,
      "note": 83,
      "start": 4.668,
      "duration": 0.3583,
      "velocity": 103,
      "chip": "ym2612"
    },
    {
      "channel": 0,
      "note": 83,
      "start": 4.7121,
      "duration": 0.3588,
      "velocity": 103,
      "chip": "ym2612"
    },
    {
      "channel": 5,
      "note": 59,
      "start": 4.8477,
      "duration": 0.269,
      "velocity": 111,
      "chip": "ym2612"
    },
    {
      "channel": 3,
      "note": 59,
      "start": 4.9855,
      "duration": 0.2688,
      "velocity": 96,
      "chip": "ym2612"
    },
    {
      "channel": 2,
      "note": 69,
      "start": 4.9869,
      "duration": 0.2202,
      "velocity": 127,
      "chip": "ym2612"
    },
    {
      "channel": 1,
      "note": 83,
      "start": 5.0269,
      "duration": 0.3586,
      "velocity": 103,
      "chip": "ym2612"
    },
    {
      "channel": 0,
      "note": 83,
      "start": 5.0715,
      "duration": 0.3586,
      "velocity": 103,
      "chip": "ym2612"
    },
    {
      "channel": 5,
      "note": 59,
      "start": 5.1176,
      "duration": 0.2693,
      "velocity": 111,
      "chip": "ym2612"
    },
    {
      "channel": 3,
      "note": 59,
      "start": 5.2548,
      "duration": 0.1316,
      "velocity": 96,
      "chip": "ym2612"
    },
    {
      "channel": 2,
      "note": 69,
      "start": 5.2563,
      "duration": 0.22,
      "velocity": 127,
      "chip": "ym2612"
    },
    {
      "channel": 1,
      "note": 83,
      "start": 5.3863,
      "duration": 0.3587,
      "velocity": 103,
      "chip": "ym2612"
    },
    {
      "channel": 5,
      "note": 59,
      "start": 5.3875,
      "duration": 0.2684,
      "velocity": 111,
      "chip": "ym2612"
    },
    {
      "channel": 0,
      "note": 83,
      "start": 5.4308,
      "duration": 0.3614,
      "velocity": 103,
      "chip": "ym2612"
    },
    {
      "channel": 3,
      "note": 59,
      "start": 5.5239,
      "duration": 0.2695,
      "velocity": 96,
      "chip": "ym2612"
    },
    {
      "channel": 2,
      "note": 69,
      "start": 5.5254,
      "duration": 0.2212,
      "velocity": 127,
      "chip": "ym2612"
    },
    {
      "channel": 5,
      "note": 59,
      "start": 5.6564,
      "duration": 0.2721,
      "velocity": 111,
      "chip": "ym2612"
    },
    {
      "channel": 1,
      "note": 83,
      "start": 5.7456,
      "duration": 0.3586,
      "velocity": 103,
      "chip": "ym2612"
    },
    {
      "channel": 0,
      "note": 83,
      "start": 5.7929,
      "duration": 0.3559,
      "velocity": 103,
      "chip": "ym2612"
    },
    {
      "channel": 3,
      "note": 59,
      "start": 5.7939,
      "duration": 0.134,
      "velocity": 96,
      "chip": "ym2612"
    },
    {
      "channel": 2,
      "note": 69,
      "start": 5.7953,
      "duration": 0.1288,
      "velocity": 127,
      "chip": "ym2612"
    },
    {
      "channel": 3,
      "note": 59,
      "start": 5.9283,
      "duration": 0.2688,
      "velocity": 96,
      "chip": "ym2612"
    },
    {
      "channel": 5,
      "note": 59,
      "start": 5.9289,
      "duration": 0.2688,
      "velocity": 111,
      "chip": "ym2612"
    },
    {
      "channel": 2,
      "note": 69,
      "start": 5.9299,
      "duration": 0.2213,
      "velocity": 127,
      "chip": "ym2612"
    },
    {
      "channel": 1,
      "note": 83,
      "start": 6.105,
      "duration": 0.3615,
      "velocity": 103,
      "chip": "ym2612"
    },
    {
      "channel": 0,
      "note": 83,
      "start": 6.1495,
      "duration": 0.3587,
      "velocity": 103,
      "chip": "ym2612"
    },
    {
      "channel": 3,
      "note": 59,
      "start": 6.1975,
      "duration": 0.2703,
      "velocity": 96,
      "chip": "ym2612"
    },
    {
      "channel": 5,
      "note": 59,
      "start": 6.1982,
      "duration": 0.2707,
      "velocity": 111,
      "chip": "ym2612"
    },
    {
      "channel": 2,
      "note": 69,
      "start": 6.1992,
      "duration": 0.2207,
      "velocity": 127,
      "chip": "ym2612"
    },
    {
      "channel": 1,
      "note": 83,
      "start": 6.4676,
      "duration": 0.3555,
      "velocity": 103,
      "chip": "ym2612"
    },
    {
      "channel": 3,
      "note": 59,
      "start": 6.4684,
      "duration": 0.2683,
      "velocity": 96,
      "chip": "ym2612"
    },
    {
      "channel": 5,
      "note": 59,
      "start": 6.4696,
      "duration": 0.2679,
      "velocity": 111,
      "chip": "ym2612"
    },
    {
      "channel": 2,
      "note": 69,
      "start": 6.4705,
      "duration": 0.219,
      "velocity": 127,
      "chip": "ym2612"
    },
    {
      "channel": 0,
      "note": 83,
      "start": 6.5088,
      "duration": 0.3593,
      "velocity": 103,
      "chip": "ym2612"
    },
    {
      "channel": 3,
      "note": 59,
      "start": 6.7372,
      "duration": 0.2658,
      "velocity": 96,
      "chip": "ym2612"
    },
    {
      "channel": 5,
      "note": 59,
      "start": 6.7379,
      "duration": 0.2655,
      "velocity": 111,
      "chip": "ym2612"
    },
    {
      "channel": 2,
      "note": 69,
      "start": 6.7389,
      "duration": 0.2199,
      "velocity": 127,
      "chip": "ym2612"
    },
    {
      "channel": 1,
      "note": 83,
      "start": 6.8237,
      "duration": 0.3586,
      "velocity": 103,
      "chip": "ym2612"
    },
    {
      "channel": 0,
      "note": 83,
      "start": 6.8688,
      "duration": 0.358,
      "velocity": 103,
      "chip": "ym2612"
    },
    {
      "channel": 5,
      "note": 59,
      "start": 7.0039,
      "duration": 0.269,
      "velocity": 111,
      "chip": "ym2612"
    },
    {
      "channel": 3,
      "note": 59,
      "start": 7.1411,
      "duration": 0.269,
      "velocity": 96,
      "chip": "ym2612"
    },
    {
      "channel": 2,
      "note": 69,
      "start": 7.1425,
      "duration": 0.2207,
      "velocity": 127,
      "chip": "ym2612"
    },
    {
      "channel": 1,
      "note": 83,
      "start": 7.183,
      "duration": 0.3587,
      "velocity": 103,
      "chip": "ym2612"
    },
    {
      "channel": 0,
      "note": 83,
      "start": 7.2274,
      "duration": 0.3587,
      "velocity": 103,
      "chip": "ym2612"
    },
    {
      "channel": 5,
      "note": 59,
      "start": 7.2732,
      "duration": 0.2698,
      "velocity": 111,
      "chip": "ym2612"
    },
    {
      "channel": 3,
      "note": 59,
      "start": 7.4105,
      "duration": 0.132,
      "velocity": 96,
      "chip": "ym2612"
    },
    {
      "channel": 2,
      "note": 69,
      "start": 7.4119,
      "duration": 0.2204,
      "velocity": 127,
      "chip": "ym2612"
    },
    {
      "channel": 1,
      "note": 83,
      "start": 7.5424,
      "duration": 0.359,
      "velocity": 103,
      "chip": "ym2612"
    },
    {
      "channel": 5,
      "note": 59,
      "start": 7.5436,
      "duration": 0.2684,
      "velocity": 111,
      "chip": "ym2612"
    },
    {
      "channel": 0,
      "note": 83,
      "start": 7.5868,
      "duration": 0.3614,
      "velocity": 103,
      "chip": "ym2612"
    },
    {
      "channel": 3,
      "note": 59,
      "start": 7.68,
      "duration": 0.2694,
      "velocity": 96,
      "chip": "ym2612"
    },
    {
      "channel": 2,
      "note": 69,
      "start": 7.6815,
      "duration": 0.2217,
      "velocity": 127,
      "chip": "ym2612"
    },
    {
      "channel": 5,
      "note": 59,
      "start": 7.8124,
      "duration": 0.2727,
      "velocity": 111,
      "chip": "ym2612"
    },
    {
      "channel": 1,
      "note": 83,
      "start": 7.9021,
      "duration": 0.3582,
      "velocity": 103,
      "chip": "ym2612"
    },
    {
      "channel": 0,
      "note": 83,
      "start": 7.9489,
      "duration": 0.3559,
      "velocity": 103,
      "chip": "ym2612"
    },
    {
      "channel": 3,
      "note": 59,
      "start": 7.9498,
      "duration": 0.1345,
      "velocity": 96,
      "chip": "ym2612"
    },
    {
      "channel": 2,
      "note": 69,
      "start": 7.9517,
      "duration": 0.1286,
      "velocity": 127,
      "chip": "ym2612"
    },
    {
      "channel": 3,
      "note": 59,
      "start": 8.0848,
      "duration": 0.2686,
      "velocity": 96,
      "chip": "ym2612"
    },
    {
      "channel": 5,
      "note": 59,
      "start": 8.0855,
      "duration": 0.2686,
      "velocity": 111,
      "chip": "ym2612"
    },
    {
      "channel": 2,
      "note": 69,
      "start": 8.0866,
      "duration": 0.2203,
      "velocity": 127,
      "chip": "ym2612"
    },
    {
      "channel": 1,
      "note": 83,
      "start": 8.261,
      "duration": 0.3616,
      "velocity": 103,
      "chip": "ym2612"
    },
    {
      "channel": 0,
      "note": 83,
      "start": 8.3055,
      "duration": 0.3586,
      "velocity": 103,
      "chip": "ym2612"
    },
    {
      "channel": 3,
      "note": 59,
      "start": 8.3539,
      "duration": 0.2697,
      "velocity": 96,
      "chip": "ym2612"
    },
    {
      "channel": 5,
      "note": 59,
      "start": 8.3546,
      "duration": 0.2706,
      "velocity": 111,
      "chip": "ym2612"
    },
    {
      "channel": 2,
      "note": 69,
      "start": 8.3556,
      "duration": 0.2204,
      "velocity": 127,
      "chip": "ym2612"
    },
    {
      "channel": 1,
      "note": 83,
      "start": 8.6233,
      "duration": 0.3558,
      "velocity": 103,
      "chip": "ym2612"
    },
    {
      "channel": 3,
      "note": 59,
      "start": 8.6241,
      "duration": 0.2683,
      "velocity": 96,
      "chip": "ym2612"
    },
    {
      "channel": 4,
      "note": 59,
      "start": 8.625,
      "duration": 0.2679,
      "velocity": 91,
      "chip": "ym2612"
    },
    {
      "channel": 5,
      "note": 59,
      "start": 8.6259,
      "duration": 0.2679,
      "velocity": 111,
      "chip": "ym2612"
    },
    {
      "channel": 2,
      "note": 36,
      "start": 8.6267,
      "duration": 0.1746,
      "velocity": 127,
      "chip": "ym2612"
    },
    {
      "channel": 0,
      "note": 83,
      "start": 8.6649,
      "duration": 0.3587,
      "velocity": 103,
      "chip": "ym2612"
    },
    {
      "channel": 3,
      "note": 59,
      "start": 8.8928,
      "duration": 0.269,
      "velocity": 96,
      "chip": "ym2612"
    },
    {
      "channel": 4,
      "note": 54,
      "start": 8.8935,
      "duration": 0.2686,
      "velocity": 91,
      "chip": "ym2612"
    },
    {
      "channel": 5,
      "note": 59,
      "start": 8.8942,
      "duration": 0.2686,
      "velocity": 111,
      "chip": "ym2612"
    },
    {
      "channel": 2,
      "note": 72,
      "start": 8.8949,
      "duration": 0.2632,
      "velocity": 120,
      "chip": "ym2612"
    },
    {
      "channel": 1,
      "note": 83,
      "start": 8.9797,
      "duration": 0.3586,
      "velocity": 103,
      "chip": "ym2612"
    },
    {
      "channel": 0,
      "note": 83,
      "start": 9.0242,
      "duration": 0.3587,
      "velocity": 103,
      "chip": "ym2612"
    },
    {
      "channel": 4,
      "note": 55,
      "start": 9.1627,
      "duration": 0.2688,
      "velocity": 91,
      "chip": "ym2612"
    },
    {
      "channel": 5,
      "note": 59,
      "start": 9.1633,
      "duration": 0.269,
      "velocity": 111,
      "chip": "ym2612"
    },
    {
      "channel": 2,
      "note": 36,
      "start": 9.1641,
      "duration": 0.1761,
      "velocity": 127,
      "chip": "ym2612"
    },
    {
      "channel": 3,
      "note": 59,
      "start": 9.2947,
      "duration": 0.2686,
      "velocity": 96,
      "chip": "ym2612"
    },
    {
      "channel": 1,
      "note": 83,
      "start": 9.339,
      "duration": 0.3618,
      "velocity": 103,
      "chip": "ym2612"
    },
    {
      "channel": 0,
      "note": 83,
      "start": 9.3839,
      "duration": 0.3582,
      "velocity": 103,
      "chip": "ym2612"
    },
    {
      "channel": 4,
      "note": 57,
      "start": 9.4322,
      "duration": 0.1317,
      "velocity": 91,
      "chip": "ym2612"
    },
    {
      "channel": 5,
      "note": 59,
      "start": 9.4327,
      "duration": 0.2697,
      "velocity": 111,
      "chip": "ym2612"
    },
    {
      "channel": 2,
      "note": 72,
      "start": 9.4339,
      "duration": 0.2632,
      "velocity": 120,
      "chip": "ym2612"
    },
    {
      "channel": 3,
      "note": 59,
      "start": 9.5637,
      "duration": 0.138,
      "velocity": 96,
      "chip": "ym2612"
    },
    {
      "channel": 4,
      "note": 59,
      "start": 9.5645,
      "duration": 0.2694,
      "velocity": 91,
      "chip": "ym2612"
    },
    {
      "channel": 1,
      "note": 83,
      "start": 9.7016,
      "duration": 0.3555,
      "velocity": 103,
      "chip": "ym2612"
    },
    {
      "channel": 5,
      "note": 59,
      "start": 9.703,
      "duration": 0.2688,
      "velocity": 111,
      "chip": "ym2612"
    },
    {
      "channel": 2,
      "note": 36,
      "start": 9.7039,
      "duration": 0.1749,
      "velocity": 127,
      "chip": "ym2612"
    },
    {
      "channel": 0,
      "note": 83,
      "start": 9.7428,
      "duration": 0.3586,
      "velocity": 103,
      "chip": "ym2612"
    },
    {
      "channel": 3,
      "note": 59,
      "start": 9.8333,
      "duration": 0.2693,
      "velocity": 96,
      "chip": "ym2612"
    },
    {
      "channel": 4,
      "note": 59,
      "start": 9.8343,
      "duration": 0.1368,
      "velocity": 91,
      "chip": "ym2612"
    },
    {
      "channel": 4,
      "note": 54,
      "start": 9.9717,
      "duration": 0.2687,
      "velocity": 91,
      "chip": "ym2612"
    },
    {
      "channel": 5,
      "note": 59,
      "start": 9.9723,
      "duration": 0.2688,
      "velocity": 111,
      "chip": "ym2612"
    },
    {
      "channel": 2,
      "note": 72,
      "start": 9.973,
      "duration": 0.263,
      "velocity": 120,
      "chip": "ym2612"
    },
    {
      "channel": 1,
      "note": 83,
      "start": 10.0577,
      "duration": 0.3586,
      "velocity": 103,
      "chip": "ym2612"
    },
    {
      "channel": 0,
      "note": 83,
      "start": 10.1021,
      "duration": 0.3586,
      "velocity": 103,
      "chip": "ym2612"
    },
    {
      "channel": 3,
      "note": 59,
      "start": 10.1031,
      "duration": 0.1367,
      "velocity": 96,
      "chip": "ym2612"
    },
    {
      "channel": 3,
      "note": 59,
      "start": 10.2402,
      "duration": 0.2665,
      "velocity": 96,
      "chip": "ym2612"
    },
    {
      "channel": 4,
      "note": 55,
      "start": 10.2409,
      "duration": 0.2663,
      "velocity": 91,
      "chip": "ym2612"
    },
    {
      "channel": 5,
      "note": 59,
      "start": 10.2416,
      "duration": 0.2665,
      "velocity": 111,
      "chip": "ym2612"
    },
    {
      "channel": 2,
      "note": 36,
      "start": 10.2424,
      "duration": 0.1285,
      "velocity": 127,
      "chip": "ym2612"
    },
    {
      "channel": 2,
      "note": 72,
      "start": 10.3763,
      "duration": 0.2641,
      "velocity": 120,
      "chip": "ym2612"
    },
    {
      "channel": 1,
      "note": 83,
      "start": 10.4175,
      "duration": 0.3613,
      "velocity": 103,
      "chip": "ym2612"
    },
    {
      "channel": 0,
      "note": 83,
      "start": 10.4615,
      "duration": 0.3587,
      "velocity": 103,
      "chip": "ym2612"
    },
    {
      "channel": 3,
      "note": 59,
      "start": 10.5072,
      "duration": 0.2726,
      "velocity": 96,
      "chip": "ym2612"
    },
    {
      "channel": 4,
      "note": 57,
      "start": 10.5078,
      "duration": 0.2728,
      "velocity": 91,
      "chip": "ym2612"
    },
    {
      "channel": 5,
      "note": 59,
      "start": 10.5085,
      "duration": 0.273,
      "velocity": 111,
      "chip": "ym2612"
    },
    {
      "channel": 2,
      "note": 72,
      "start": 10.6458,
      "duration": 0.1297,
      "velocity": 120,
      "chip": "ym2612"
    },
    {
      "channel": 1,
      "note": 83,
      "start": 10.7795,
      "duration": 0.3556,
      "velocity": 103,
      "chip": "ym2612"
    },
    {
      "channel": 3,
      "note": 59,
      "start": 10.7803,
      "duration": 0.268,
      "velocity": 96,
      "chip": "ym2612"
    },
    {
      "channel": 4,
      "note": 59,
      "start": 10.7813,
      "duration": 0.2676,
      "velocity": 91,
      "chip": "ym2612"
    },
    {
      "channel": 5,
      "note": 59,
      "start": 10.7821,
      "duration": 0.2676,
      "velocity": 111,
      "chip": "ym2612"
    },
    {
      "channel": 2,
      "note": 36,
      "start": 10.7829,
      "duration": 0.174,
      "velocity": 127,
      "chip": "ym2612"
    },
    {
      "channel": 0,
      "note": 83,
      "start": 10.8209,
      "duration": 0.3587,
      "velocity": 103,
      "chip": "ym2612"
    },
    {
      "channel": 3,
      "note": 59,
      "start": 11.0488,
      "duration": 0.2695,
      "velocity": 96,
      "chip": "ym2612"
    },
    {
      "channel": 4,
      "note": 54,
      "start": 11.0495,
      "duration": 0.2691,
      "velocity": 91,
      "chip": "ym2612"
    },
    {
      "channel": 5,
      "note": 59,
      "start": 11.0503,
      "duration": 0.2691,
      "velocity": 111,
      "chip": "ym2612"
    },
    {
      "channel": 2,
      "note": 72,
      "start": 11.0512,
      "duration": 0.2629,
      "velocity": 120,
      "chip": "ym2612"
    },
    {
      "channel": 1,
      "note": 83,
      "start": 11.1358,
      "duration": 0.3586,
      "velocity": 103,
      "chip": "ym2612"
    },
    {
      "channel": 0,
      "note": 83,
      "start": 11.1802,
      "duration": 0.3588,
      "velocity": 103,
      "chip": "ym2612"
    },
    {
      "channel": 4,
      "note": 55,
      "start": 11.3192,
      "duration": 0.2687,
      "velocity": 91,
      "chip": "ym2612"
    },
    {
      "channel": 5,
      "note": 59,
      "start": 11.3198,
      "duration": 0.2688,
      "velocity": 111,
      "chip": "ym2612"
    },
    {
      "channel": 2,
      "note": 36,
      "start": 11.3206,
      "duration": 0.1756,
      "velocity": 127,
      "chip": "ym2612"
    },
    {
      "channel": 3,
      "note": 59,
      "start": 11.4509,
      "duration": 0.2684,
      "velocity": 96,
      "chip": "ym2612"
    },
    {
      "channel": 1,
      "note": 83,
      "start": 11.4951,
      "duration": 0.3615,
      "velocity": 103,
      "chip": "ym2612"
    },
    {
      "channel": 0,
      "note": 83,
      "start": 11.5397,
      "duration": 0.3585,
      "velocity": 103,
      "chip": "ym2612"
    },
    {
      "channel": 4,
      "note": 57,
      "start": 11.5885,
      "duration": 0.1314,
      "velocity": 91,
      "chip": "ym2612"
    },
    {
      "channel": 5,
      "note": 59,
      "start": 11.5891,
      "duration": 0.269,
      "velocity": 111,
      "chip": "ym2612"
    },
    {
      "channel": 2,
      "note": 72,
      "start": 11.5898,
      "duration": 0.2634,
      "velocity": 120,
      "chip": "ym2612"
    },
    {
      "channel": 3,
      "note": 59,
      "start": 11.7198,
      "duration": 0.1376,
      "velocity": 96,
      "chip": "ym2612"
    },
    {
      "channel": 4,
      "note": 59,
      "start": 11.7205,
      "duration": 0.269,
      "velocity": 91,
      "chip": "ym2612"
    },
    {
      "channel": 1,
      "note": 83,
      "start": 11.8572,
      "duration": 0.3558,
      "velocity": 103,
      "chip": "ym2612"
    },
    {
      "channel": 5,
      "note": 59,
      "start": 11.8588,
      "duration": 0.2687,
      "velocity": 111,
      "chip": "ym2612"
    },
    {
      "channel": 2,
      "note": 36,
      "start": 11.8596,
      "duration": 0.1758,
      "velocity": 127,
      "chip": "ym2612"
    },
    {
      "channel": 0,
      "note": 83,
      "start": 11.8988,
      "duration": 0.3587,
      "velocity": 103,
      "chip": "ym2612"
    },
    {
      "channel": 3,
      "note": 59,
      "start": 11.9893,
      "duration": 0.2688,
      "velocity": 96,
      "chip": "ym2612"
    },
    {
      "channel": 4,
      "note": 59,
      "start": 11.99,
      "duration": 0.1367,
      "velocity": 91,
      "chip": "ym2612"
    },
    {
      "channel": 4,
      "note": 54,
      "start": 12.1273,
      "duration": 0.2725,
      "velocity": 91,
      "chip": "ym2612"
    },
    {
      "channel": 5,
      "note": 59,
      "start": 12.1279,
      "duration": 0.273,
      "velocity": 111,
      "chip": "ym2612"
    },
    {
      "channel": 2,
      "note": 72,
      "start": 12.1287,
      "duration": 0.2635,
      "velocity": 120,
      "chip": "ym2612"
    },
    {
      "channel": 1,
      "note": 83,
      "start": 12.2137,
      "duration": 0.3587,
      "velocity": 103,
      "chip": "ym2612"
    },
    {
      "channel": 3,
      "note": 59,
      "start": 12.2586,
      "duration": 0.1405,
      "velocity": 96,
      "chip": "ym2612"
    },
    {
      "channel": 0,
      "note": 78,
      "start": 12.3986,
      "duration": 0.5362,
      "velocity": 86,
      "chip": "ym2612"
    },
    {
      "channel": 3,
      "note": 59,
      "start": 12.3996,
      "duration": 0.263,
      "velocity": 96,
      "chip": "ym2612"
    },
    {
      "channel": 4,
      "note": 55,
      "start": 12.4007,
      "duration": 0.2624,
      "velocity": 91,
      "chip": "ym2612"
    },
    {
      "channel": 5,
      "note": 59,
      "start": 12.4014,
      "duration": 0.2625,
      "velocity": 111,
      "chip": "ym2612"
    },
    {
      "channel": 2,
      "note": 36,
      "start": 12.4022,
      "duration": 0.1247,
      "velocity": 127,
      "chip": "ym2612"
    },
    {
      "channel": 2,
      "note": 72,
      "start": 12.5323,
      "duration": 0.2641,
      "velocity": 120,
      "chip": "ym2612"
    },
    {
      "channel": 1,
      "note": 83,
      "start": 12.5731,
      "duration": 0.3654,
      "velocity": 86,
      "chip": "ym2612"
    },
    {
      "channel": 3,
      "note": 59,
      "start": 12.663,
      "duration": 0.2759,
      "velocity": 96,
      "chip": "ym2612"
    },
    {
      "channel": 4,
      "note": 57,
      "start": 12.6637,
      "duration": 0.2761,
      "velocity": 91,
      "chip": "ym2612"
    },
    {
      "channel": 5,
      "note": 59,
      "start": 12.6644,
      "duration": 0.2794,
      "velocity": 102,
      "chip": "ym2612"
    },
    {
      "channel": 2,
      "note": 72,
      "start": 12.8022,
      "duration": 0.1292,
      "velocity": 120,
      "chip": "ym2612"
    },
    {
      "channel": 0,
      "note": 83,
      "start": 12.9355,
      "duration": 0.5375,
      "velocity": 86,
      "chip": "ym2612"
    },
    {
      "channel": 3,
      "note": 59,
      "start": 12.9395,
      "duration": 0.2648,
      "velocity": 96,
      "chip": "ym2612"
    },
    {
      "channel": 4,
      "note": 59,
      "start": 12.9405,
      "duration": 0.2644,
      "velocity": 91,
      "chip": "ym2612"
    },
    {
      "channel": 2,
      "note": 36,
      "start": 12.9448,
      "duration": 0.1678,
      "velocity": 127,
      "chip": "ym2612"
    },
    {
      "channel": 5,
      "note": 83,
      "start": 12.9781,
      "duration": 0.5379,
      "velocity": 102,
      "chip": "ym2612"
    },
    {
      "channel": 3,
      "note": 59,
      "start": 13.2047,
      "duration": 0.2691,
      "velocity": 96,
      "chip": "ym2612"
    },
    {
      "channel": 4,
      "note": 54,
      "start": 13.2054,
      "duration": 0.2688,
      "velocity": 91,
      "chip": "ym2612"
    },
    {
      "channel": 2,
      "note": 72,
      "start": 13.2066,
      "duration": 0.2635,
      "velocity": 120,
      "chip": "ym2612"
    },
    {
      "channel": 0,
      "note": 90,
      "start": 13.4736,
      "duration": 0.5383,
      "velocity": 86,
      "chip": "ym2612"
    },
    {
      "channel": 4,
      "note": 55,
      "start": 13.4748,
      "duration": 0.2686,
      "velocity": 91,
      "chip": "ym2612"
    },
    {
      "channel": 2,
      "note": 36,
      "start": 13.4761,
      "duration": 0.176,
      "velocity": 127,
      "chip": "ym2612"
    },
    {
      "channel": 5,
      "note": 90,
      "start": 13.517,
      "duration": 0.538,
      "velocity": 102,
      "chip": "ym2612"
    },
    {
      "channel": 3,
      "note": 59,
      "start": 13.6061,
      "duration": 0.269,
      "velocity": 96,
      "chip": "ym2612"
    },
    {
      "channel": 4,
      "note": 57,
      "start": 13.744,
      "duration": 0.1317,
      "velocity": 91,
      "chip": "ym2612"
    },
    {
      "channel": 2,
      "note": 72,
      "start": 13.7452,
      "duration": 0.2639,
      "velocity": 120,
      "chip": "ym2612"
    },
    {
      "channel": 3,
      "note": 59,
      "start": 13.8755,
      "duration": 0.1374,
      "velocity": 96,
      "chip": "ym2612"
    },
    {
      "channel": 4,
      "note": 59,
      "start": 13.8762,
      "duration": 0.269,
      "velocity": 91,
      "chip": "ym2612"
    },
    {
      "channel": 0,
      "note": 90,
      "start": 14.0126,
      "duration": 0.8053,
      "velocity": 86,
      "chip": "ym2612"
    },
    {
      "channel": 2,
      "note": 36,
      "start": 14.0147,
      "duration": 0.1759,
      "velocity": 127,
      "chip": "ym2612"
    },
    {
      "channel": 5,
      "note": 90,
      "start": 14.0557,
      "duration": 0.8085,
      "velocity": 102,
      "chip": "ym2612"
    },
    {
      "channel": 3,
      "note": 59,
      "start": 14.1451,
      "duration": 0.2689,
      "velocity": 96,
      "chip": "ym2612"
    },
    {
      "channel": 4,
      "note": 59,
      "start": 14.1457,
      "duration": 0.1367,
      "velocity": 91,
      "chip": "ym2612"
    },
    {
      "channel": 4,
      "note": 54,
      "start": 14.283,
      "duration": 0.2702,
      "velocity": 91,
      "chip": "ym2612"
    },
    {
      "channel": 2,
      "note": 72,
      "start": 14.2846,
      "duration": 0.2636,
      "velocity": 120,
      "chip": "ym2612"
    },
    {
      "channel": 3,
      "note": 59,
      "start": 14.4145,
      "duration": 0.1382,
      "velocity": 96,
      "chip": "ym2612"
    },
    {
      "channel": 1,
      "note": 78,
      "start": 14.5525,
      "duration": 0.5387,
      "velocity": 86,
      "chip": "ym2612"
    },
    {
      "channel": 3,
      "note": 59,
      "start": 14.5532,
      "duration": 0.2661,
      "velocity": 96,
      "chip": "ym2612"
    },
    {
      "channel": 4,
      "note": 55,
      "start": 14.5539,
      "duration": 0.266,
      "velocity": 91,
      "chip": "ym2612"
    },
    {
      "channel": 2,
      "note": 36,
      "start": 14.5552,
      "duration": 0.1277,
      "velocity": 127,
      "chip": "ym2612"
    },
    {
      "channel": 2,
      "note": 72,
      "start": 14.6888,
      "duration": 0.2636,
      "velocity": 120,
      "chip": "ym2612"
    },
    {
      "channel": 0,
      "note": 88,
      "start": 14.8187,
      "duration": 0.1366,
      "velocity": 86,
      "chip": "ym2612"
    },
    {
      "channel": 3,
      "note": 59,
      "start": 14.8197,
      "duration": 0.2725,
      "velocity": 96,
      "chip": "ym2612"
    },
    {
      "channel": 4,
      "note": 57,
      "start": 14.8205,
      "duration": 0.2728,
      "velocity": 91,
      "chip": "ym2612"
    },
    {
      "channel": 5,
      "note": 88,
      "start": 14.8649,
      "duration": 0.134,
      "velocity": 102,
      "chip": "ym2612"
    },
    {
      "channel": 0,
      "note": 90,
      "start": 14.9559,
      "duration": 0.1344,
      "velocity": 86,
      "chip": "ym2612"
    },
    {
      "channel": 2,
      "note": 72,
      "start": 14.9582,
      "duration": 0.1293,
      "velocity": 120,
      "chip": "ym2612"
    },
    {
      "channel": 5,
      "note": 90,
      "start": 14.9996,
      "duration": 0.1344,
      "velocity": 102,
      "chip": "ym2612"
    },
    {
      "channel": 0,
      "note": 85,
      "start": 15.091,
      "duration": 0.8074,
      "velocity": 86,
      "chip": "ym2612"
    },
    {
      "channel": 1,
      "note": 83,
      "start": 15.092,
      "duration": 0.5375,
      "velocity": 86,
      "chip": "ym2612"
    },
    {
      "channel": 3,
      "note": 59,
      "start": 15.0928,
      "duration": 0.2676,
      "velocity": 96,
      "chip": "ym2612"
    },
    {
      "channel": 4,
      "note": 59,
      "start": 15.0938,
      "duration": 0.2673,
      "velocity": 91,
      "chip": "ym2612"
    },
    {
      "channel": 2,
      "note": 36,
      "start": 15.095,
      "duration": 0.1744,
      "velocity": 127,
      "chip": "ym2612"
    },
    {
      "channel": 5,
      "note": 85,
      "start": 15.1347,
      "duration": 0.8074,
      "velocity": 102,
      "chip": "ym2612"
    },
    {
      "channel": 3,
      "note": 59,
      "start": 15.3608,
      "duration": 0.2695,
      "velocity": 96,
      "chip": "ym2612"
    },
    {
      "channel": 4,
      "note": 54,
      "start": 15.3616,
      "duration": 0.269,
      "velocity": 91,
      "chip": "ym2612"
    },
    {
      "channel": 2,
      "note": 72,
      "start": 15.3628,
      "duration": 0.2634,
      "velocity": 120,
      "chip": "ym2612"
    },
    {
      "channel": 1,
      "note": 90,
      "start": 15.6302,
      "duration": 0.5391,
      "velocity": 86,
      "chip": "ym2612"
    },
    {
      "channel": 4,
      "note": 55,
      "start": 15.6313,
      "duration": 0.2687,
      "velocity": 91,
      "chip": "ym2612"
    },
    {
      "channel": 2,
      "note": 36,
      "start": 15.6325,
      "duration": 0.1754,
      "velocity": 127,
      "chip": "ym2612"
    },
    {
      "channel": 3,
      "note": 59,
      "start": 15.7625,
      "duration": 0.2693,
      "velocity": 96,
      "chip": "ym2612"
    },
    {
      "channel": 0,
      "note": 85,
      "start": 15.899,
      "duration": 0.1315,
      "velocity": 86,
      "chip": "ym2612"
    },
    {
      "channel": 4,
      "note": 57,
      "start": 15.901,
      "duration": 0.1314,
      "velocity": 91,
      "chip": "ym2612"
    },
    {
      "channel": 2,
      "note": 72,
      "start": 15.9022,
      "duration": 0.263,
      "velocity": 120,
      "chip": "ym2612"
    },
    {
      "channel": 5,
      "note": 85,
      "start": 15.9427,
      "duration": 0.1341,
      "velocity": 102,
      "chip": "ym2612"
    },
    {
      "channel": 0,
      "note": 86,
      "start": 16.0312,
      "duration": 0.1372,
      "velocity": 86,
      "chip": "ym2612"
    },
    {
      "channel": 3,
      "note": 59,
      "start": 16.0322,
      "duration": 0.1378,
      "velocity": 96,
      "chip": "ym2612"
    },
    {
      "channel": 4,
      "note": 59,
      "start": 16.033,
      "duration": 0.2692,
      "velocity": 91,
      "chip": "ym2612"
    },
    {
      "channel": 5,
      "note": 86,
      "start": 16.0776,
      "duration": 0.1338,
      "velocity": 102,
      "chip": "ym2612"
    },
    {
      "channel": 0,
      "note": 83,
      "start": 16.1691,
      "duration": 0.5379,
      "velocity": 86,
      "chip": "ym2612"
    },
    {
      "channel": 1,
      "note": 90,
      "start": 16.1699,
      "duration": 0.8043,
      "velocity": 86,
      "chip": "ym2612"
    },
    {
      "channel": 2,
      "note": 36,
      "start": 16.1718,
      "duration": 0.1753,
      "velocity": 127,
      "chip": "ym2612"
    },
    {
      "channel": 5,
      "note": 83,
      "start": 16.2121,
      "duration": 0.5391,
      "velocity": 102,
      "chip": "ym2612"
    },
    {
      "channel": 3,
      "note": 59,
      "start": 16.302,
      "duration": 0.2684,
      "velocity": 96,
      "chip": "ym2612"
    },
    {
      "channel": 4,
      "note": 59,
      "start": 16.3026,
      "duration": 0.1363,
      "velocity": 91,
      "chip": "ym2612"
    },
    {
      "channel": 4,
      "note": 54,
      "start": 16.4394,
      "duration": 0.2695,
      "velocity": 91,
      "chip": "ym2612"
    },
    {
      "channel": 2,
      "note": 72,
      "start": 16.4406,
      "duration": 0.2636,
      "velocity": 120,
      "chip": "ym2612"
    },
    {
      "channel": 3,
      "note": 59,
      "start": 16.5708,
      "duration": 0.1375,
      "velocity": 96,
      "chip": "ym2612"
    },
    {
      "channel": 0,
      "note": 90,
      "start": 16.7077,
      "duration": 0.5387,
      "velocity": 86,
      "chip": "ym2612"
    },
    {
      "channel": 3,
      "note": 59,
      "start": 16.7088,
      "duration": 0.2663,
      "velocity": 96,
      "chip": "ym2612"
    },
    {
      "channel": 4,
      "note": 55,
      "start": 16.7094,
      "duration": 0.2663,
      "velocity": 91,
      "chip": "ym2612"
    },
    {
      "channel": 2,
      "note": 36,
      "start": 16.7108,
      "duration": 0.1282,
      "velocity": 127,
      "chip": "ym2612"
    },
    {
      "channel": 5,
      "note": 90,
      "start": 16.7519,
      "duration": 0.5377,
      "velocity": 102,
      "chip": "ym2612"
    },
    {
      "channel": 2,
      "note": 72,
      "start": 16.8444,
      "duration": 0.2641,
      "velocity": 120,
      "chip": "ym2612"
    },
    {
      "channel": 1,
      "note": 88,
      "start": 16.975,
      "duration": 0.1368,
      "velocity": 86,
      "chip": "ym2612"
    },
    {
      "channel": 3,
      "note": 59,
      "start": 16.9755,
      "duration": 0.2726,
      "velocity": 96,
      "chip": "ym2612"
    },
    {
      "channel": 4,
      "note": 57,
      "start": 16.9763,
      "duration": 0.2728,
      "velocity": 91,
      "chip": "ym2612"
    },
    {
      "channel": 1,
      "note": 90,
      "start": 17.1124,
      "duration": 0.1347,
      "velocity": 86,
      "chip": "ym2612"
    },
    {
      "channel": 2,
      "note": 72,
      "start": 17.1144,
      "duration": 0.1291,
      "velocity": 120,
      "chip": "ym2612"
    },
    {
      "channel": 0,
      "note": 88,
      "start": 17.247,
      "duration": 0.131,
      "velocity": 86,
      "chip": "ym2612"
    },
    {
      "channel": 1,
      "note": 85,
      "start": 17.2479,
      "duration": 0.8076,
      "velocity": 86,
      "chip": "ym2612"
    },
    {
      "channel": 3,
      "note": 59,
      "start": 17.2487,
      "duration": 0.2686,
      "velocity": 96,
      "chip": "ym2612"
    },
    {
      "channel": 4,
      "note": 59,
      "start": 17.2497,
      "duration": 0.2681,
      "velocity": 91,
      "chip": "ym2612"
    },
    {
      "channel": 2,
      "note": 36,
      "start": 17.2514,
      "duration": 0.1741,
      "velocity": 127,
      "chip": "ym2612"
    },
    {
      "channel": 5,
      "note": 88,
      "start": 17.2903,
      "duration": 0.1344,
      "velocity": 102,
      "chip": "ym2612"
    },
    {
      "channel": 0,
      "note": 90,
      "start": 17.3787,
      "duration": 0.1368,
      "velocity": 86,
      "chip": "ym2612"
    },
    {
      "channel": 5,
      "note": 90,
      "start": 17.4254,
      "duration": 0.1339,
      "velocity": 102,
      "chip": "ym2612"
    },
    {
      "channel": 0,
      "note": 91,
      "start": 17.5162,
      "duration": 0.5384,
      "velocity": 86,
      "chip": "ym2612"
    },
    {
      "channel": 3,
      "note": 59,
      "start": 17.5177,
      "duration": 0.2687,
      "velocity": 96,
      "chip": "ym2612"
    },
    {
      "channel": 4,
      "note": 54,
      "start": 17.5184,
      "duration": 0.2683,
      "velocity": 91,
      "chip": "ym2612"
    },
    {
      "channel": 2,
      "note": 72,
      "start": 17.5196,
      "duration": 0.2627,
      "velocity": 120,
      "chip": "ym2612"
    },
    {
      "channel": 5,
      "note": 91,
      "start": 17.56,
      "duration": 0.5382,
      "velocity": 102,
      "chip": "ym2612"
    },
    {
      "channel": 4,
      "note": 55,
      "start": 17.7873,
      "duration": 0.2692,
      "velocity": 91,
      "chip": "ym2612"
    },
    {
      "channel": 2,
      "note": 36,
      "start": 17.7886,
      "duration": 0.1754,
      "velocity": 127,
      "chip": "ym2612"
    },
    {
      "channel": 3,
      "note": 59,
      "start": 17.9189,
      "duration": 0.2688,
      "velocity": 96,
      "chip": "ym2612"
    },
    {
      "channel": 0,
      "note": 93,
      "start": 18.0553,
      "duration": 0.2688,
      "velocity": 86,
      "chip": "ym2612"
    },
    {
      "channel": 1,
      "note": 85,
      "start": 18.0559,
      "duration": 0.131,
      "velocity": 86,
      "chip": "ym2612"
    },
    {
      "channel": 4,
      "note": 57,
      "start": 18.057,
      "duration": 0.1314,
      "velocity": 91,
      "chip": "ym2612"
    },
    {
      "channel": 2,
      "note": 72,
      "start": 18.0582,
      "duration": 0.263,
      "velocity": 120,
      "chip": "ym2612"
    },
    {
      "channel": 5,
      "note": 93,
      "start": 18.0988,
      "duration": 0.269,
      "velocity": 102,
      "chip": "ym2612"
    },
    {
      "channel": 1,
      "note": 86,
      "start": 18.1876,
      "duration": 0.1373,
      "velocity": 86,
      "chip": "ym2612"
    },
    {
      "channel": 3,
      "note": 59,
      "start": 18.1882,
      "duration": 0.1376,
      "velocity": 96,
      "chip": "ym2612"
    },
    {
      "channel": 4,
      "note": 59,
      "start": 18.189,
      "duration": 0.2688,
      "velocity": 91,
      "chip": "ym2612"
    },
    {
      "channel": 0,
      "note": 90,
      "start": 18.3248,
      "duration": 0.5383,
      "velocity": 86,
      "chip": "ym2612"
    },
    {
      "channel": 1,
      "note": 83,
      "start": 18.3257,
      "duration": 0.5381,
      "velocity": 86,
      "chip": "ym2612"
    },
    {
      "channel": 2,
      "note": 36,
      "start": 18.3276,
      "duration": 0.1756,
      "velocity": 127,
      "chip": "ym2612"
    },
    {
      "channel": 5,
      "note": 90,
      "start": 18.3685,
      "duration": 0.5382,
      "velocity": 102,
      "chip": "ym2612"
    },
    {
      "channel": 3,
      "note": 59,
      "start": 18.4576,
      "duration": 0.2689,
      "velocity": 96,
      "chip": "ym2612"
    },
    {
      "channel": 4,
      "note": 59,
      "start": 18.4582,
      "duration": 0.1367,
      "velocity": 91,
      "chip": "ym2612"
    },
    {
      "channel": 4,
      "note": 54,
      "start": 18.5954,
      "duration": 0.2698,
      "velocity": 91,
      "chip": "ym2612"
    },
    {
      "channel": 2,
      "note": 72,
      "start": 18.5967,
      "duration": 0.2637,
      "velocity": 120,
      "chip": "ym2612"
    },
    {
      "channel": 3,
      "note": 59,
      "start": 18.7269,
      "duration": 0.1377,
      "velocity": 96,
      "chip": "ym2612"
    },
    {
      "channel": 0,
      "note": 90,
      "start": 18.8637,
      "duration": 0.5391,
      "velocity": 86,
      "chip": "ym2612"
    },
    {
      "channel": 1,
      "note": 90,
      "start": 18.8645,
      "duration": 0.5391,
      "velocity": 86,
      "chip": "ym2612"
    },
    {
      "channel": 3,
      "note": 59,
      "start": 18.865,
      "duration": 0.2657,
      "velocity": 96,
      "chip": "ym2612"
    },
    {
      "channel": 4,
      "note": 55,
      "start": 18.8658,
      "duration": 0.2655,
      "velocity": 91,
      "chip": "ym2612"
    },
    {
      "channel": 2,
      "note": 36,
      "start": 18.8675,
      "duration": 0.1275,
      "velocity": 127,
      "chip": "ym2612"
    },
    {
      "channel": 5,
      "note": 90,
      "start": 18.9072,
      "duration": 0.5384,
      "velocity": 102,
      "chip": "ym2612"
    },
    {
      "channel": 2,
      "note": 72,
      "start": 19.0008,
      "duration": 0.2638,
      "velocity": 120,
      "chip": "ym2612"
    },
    {
      "channel": 3,
      "note": 59,
      "start": 19.1312,
      "duration": 0.2733,
      "velocity": 96,
      "chip": "ym2612"
    },
    {
      "channel": 4,
      "note": 57,
      "start": 19.1319,
      "duration": 0.2737,
      "velocity": 91,
      "chip": "ym2612"
    },
    {
      "channel": 2,
      "note": 72,
      "start": 19.2705,
      "duration": 0.1291,
      "velocity": 120,
      "chip": "ym2612"
    },
    {
      "channel": 0,
      "note": 88,
      "start": 19.4035,
      "duration": 0.1309,
      "velocity": 86,
      "chip": "ym2612"
    },
    {
      "channel": 1,
      "note": 88,
      "start": 19.4043,
      "duration": 0.1309,
      "velocity": 86,
      "chip": "ym2612"
    },
    {
      "channel": 3,
      "note": 59,
      "start": 19.4051,
      "duration": 0.2681,
      "velocity": 96,
      "chip": "ym2612"
    },
    {
      "channel": 4,
      "note": 59,
      "start": 19.4061,
      "duration": 0.2677,
      "velocity": 91,
      "chip": "ym2612"
    },
    {
      "channel": 2,
      "note": 36,
      "start": 19.4075,
      "duration": 0.1738,
      "velocity": 127,
      "chip": "ym2612"
    },
    {
      "channel": 5,
      "note": 88,
      "start": 19.4463,
      "duration": 0.134,
      "velocity": 102,
      "chip": "ym2612"
    },
    {
      "channel": 0,
      "note": 90,
      "start": 19.535,
      "duration": 0.1366,
      "velocity": 86,
      "chip": "ym2612"
    },
    {
      "channel": 1,
      "note": 90,
      "start": 19.5359,
      "duration": 0.1366,
      "velocity": 86,
      "chip": "ym2612"
    },
    {
      "channel": 5,
      "note": 90,
      "start": 19.5811,
      "duration": 0.1341,
      "velocity": 102,
      "chip": "ym2612"
    },
    {
      "channel": 0,
      "note": 91,
      "start": 19.6723,
      "duration": 0.5384,
      "velocity": 86,
      "chip": "ym2612"
    },
    {
      "channel": 1,
      "note": 91,
      "start": 19.6731,
      "duration": 0.5383,
      "velocity": 86,
      "chip": "ym2612"
    },
    {
      "channel": 3,
      "note": 59,
      "start": 19.6737,
      "duration": 0.2683,
      "velocity": 96,
      "chip": "ym2612"
    },
    {
      "channel": 4,
      "note": 54,
      "start": 19.6745,
      "duration": 0.2679,
      "velocity": 91,
      "chip": "ym2612"
    },
    {
      "channel": 2,
      "note": 72,
      "start": 19.6755,
      "duration": 0.2627,
      "velocity": 120,
      "chip": "ym2612"
    },
    {
      "channel": 5,
      "note": 91,
      "start": 19.7159,
      "duration": 0.5383,
      "velocity": 102,
      "chip": "ym2612"
    },
    {
      "channel": 4,
      "note": 55,
      "start": 19.9429,
      "duration": 0.2697,
      "velocity": 91,
      "chip": "ym2612"
    },
    {
      "channel": 2,
      "note": 36,
      "start": 19.9442,
      "duration": 0.176,
      "velocity": 127,
      "chip": "ym2612"
    },
    {
      "channel": 3,
      "note": 59,
      "start": 20.0746,
      "duration": 0.2689,
      "velocity": 96,
      "chip": "ym2612"
    },
    {
      "channel": 0,
      "note": 88,
      "start": 20.2113,
      "duration": 0.2688,
      "velocity": 86,
      "chip": "ym2612"
    },
    {
      "channel": 1,
      "note": 93,
      "start": 20.2122,
      "duration": 0.2688,
      "velocity": 86,
      "chip": "ym2612"
    },
    {
      "channel": 4,
      "note": 57,
      "start": 20.2133,
      "duration": 0.1308,
      "velocity": 91,
      "chip": "ym2612"
    },
    {
      "channel": 2,
      "note": 72,
      "start": 20.2145,
      "duration": 0.2629,
      "velocity": 120,
      "chip": "ym2612"
    },
    {
      "channel": 5,
      "note": 88,
      "start": 20.2549,
      "duration": 0.2686,
      "velocity": 102,
      "chip": "ym2612"
    },
    {
      "channel": 3,
      "note": 59,
      "start": 20.344,
      "duration": 0.1378,
      "velocity": 96,
      "chip": "ym2612"
    },
    {
      "channel": 4,
      "note": 59,
      "start": 20.3447,
      "duration": 0.269,
      "velocity": 91,
      "chip": "ym2612"
    },
    {
      "channel": 0,
      "note": 90,
      "start": 20.4807,
      "duration": 0.5388,
      "velocity": 86,
      "chip": "ym2612"
    },
    {
      "channel": 1,
      "note": 90,
      "start": 20.4817,
      "duration": 0.5387,
      "velocity": 86,
      "chip": "ym2612"
    },
    {
      "channel": 2,
      "note": 36,
      "start": 20.484,
      "duration": 0.1751,
      "velocity": 127,
      "chip": "ym2612"
    },
    {
      "channel": 5,
      "note": 90,
      "start": 20.5241,
      "duration": 0.539,
      "velocity": 102,
      "chip": "ym2612"
    },
    {
      "channel": 3,
      "note": 59,
      "start": 20.6136,
      "duration": 0.269,
      "velocity": 96,
      "chip": "ym2612"
    },
    {
      "channel": 4,
      "note": 59,
      "start": 20.6142,
      "duration": 0.1371,
      "velocity": 91,
      "chip": "ym2612"
    },
    {
      "channel": 4,
      "note": 54,
      "start": 20.7519,
      "duration": 0.2697,
      "velocity": 91,
      "chip": "ym2612"
    },
    {
      "channel": 2,
      "note": 72,
      "start": 20.7532,
      "duration": 0.2631,
      "velocity": 120,
      "chip": "ym2612"
    },
    {
      "channel": 3,
      "note": 59,
      "start": 20.883,
      "duration": 0.138,
      "velocity": 96,
      "chip": "ym2612"
    },
    {
      "channel": 0,
      "note": 78,
      "start": 21.0202,
      "duration": 0.5382,
      "velocity": 86,
      "chip": "ym2612"
    },
    {
      "channel": 1,
      "note": 90,
      "start": 21.0209,
      "duration": 0.5385,
      "velocity": 86,
      "chip": "ym2612"
    },
    {
      "channel": 3,
      "note": 59,
      "start": 21.0215,
      "duration": 0.2653,
      "velocity": 96,
      "chip": "ym2612"
    },
    {
      "channel": 4,
      "note": 55,
      "start": 21.0222,
      "duration": 0.2652,
      "velocity": 91,
      "chip": "ym2612"
    },
    {
      "channel": 2,
      "note": 36,
      "start": 21.0235,
      "duration": 0.1276,
      "velocity": 127,
      "chip": "ym2612"
    },
    {
      "channel": 5,
      "note": 78,
      "start": 21.0639,
      "duration": 0.5383,
      "velocity": 102,
      "chip": "ym2612"
    },
    {
      "channel": 2,
      "note": 72,
      "start": 21.1564,
      "duration": 0.2642,
      "velocity": 120,
      "chip": "ym2612"
    },
    {
      "channel": 3,
      "note": 59,
      "start": 21.2873,
      "duration": 0.273,
      "velocity": 96,
      "chip": "ym2612"
    },
    {
      "channel": 4,
      "note": 57,
      "start": 21.288,
      "duration": 0.2734,
      "velocity": 91,
      "chip": "ym2612"
    },
    {
      "channel": 2,
      "note": 72,
      "start": 21.4261,
      "duration": 0.1295,
      "velocity": 120,
      "chip": "ym2612"
    },
    {
      "channel": 0,
      "note": 83,
      "start": 21.5592,
      "duration": 0.5382,
      "velocity": 86,
      "chip": "ym2612"
    },
    {
      "channel": 1,
      "note": 88,
      "start": 21.5601,
      "duration": 0.1304,
      "velocity": 86,
      "chip": "ym2612"
    },
    {
      "channel": 3,
      "note": 59,
      "start": 21.561,
      "duration": 0.2679,
      "velocity": 96,
      "chip": "ym2612"
    },
    {
      "channel": 4,
      "note": 59,
      "start": 21.562,
      "duration": 0.2676,
      "velocity": 91,
      "chip": "ym2612"
    },
    {
      "channel": 2,
      "note": 36,
      "start": 21.5633,
      "duration": 0.1738,
      "velocity": 127,
      "chip": "ym2612"
    },
    {
      "channel": 5,
      "note": 83,
      "start": 21.6029,
      "duration": 0.5377,
      "velocity": 102,
      "chip": "ym2612"
    },
    {
      "channel": 1,
      "note": 90,
      "start": 21.6912,
      "duration": 0.1369,
      "velocity": 86,
      "chip": "ym2612"
    },
    {
      "channel": 1,
      "note": 91,
      "start": 21.8288,
      "duration": 0.5388,
      "velocity": 86,
      "chip": "ym2612"
    },
    {
      "channel": 3,
      "note": 59,
      "start": 21.8294,
      "duration": 0.2693,
      "velocity": 96,
      "chip": "ym2612"
    },
    {
      "channel": 4,
      "note": 54,
      "start": 21.8301,
      "duration": 0.2688,
      "velocity": 91,
      "chip": "ym2612"
    },
    {
      "channel": 2,
      "note": 72,
      "start": 21.8313,
      "duration": 0.2632,
      "velocity": 120,
      "chip": "ym2612"
    },
    {
      "channel": 0,
      "note": 90,
      "start": 22.098,
      "duration": 0.5386,
      "velocity": 86,
      "chip": "ym2612"
    },
    {
      "channel": 4,
      "note": 55,
      "start": 22.0995,
      "duration": 0.2693,
      "velocity": 91,
      "chip": "ym2612"
    },
    {
      "channel": 2,
      "note": 36,
      "start": 22.1012,
      "duration": 0.1749,
      "velocity": 127,
      "chip": "ym2612"
    },
    {
      "channel": 5,
      "note": 90,
      "start": 22.1413,
      "duration": 0.5381,
      "velocity": 102,
      "chip": "ym2612"
    },
    {
      "channel": 3,
      "note": 59,
      "start": 22.2306,
      "duration": 0.269,
      "velocity": 96,
      "chip": "ym2612"
    },
    {
      "channel": 1,
      "note": 88,
      "start": 22.3683,
      "duration": 0.2692,
      "velocity": 86,
      "chip": "ym2612"
    },
    {
      "channel": 4,
      "note": 57,
      "start": 22.3694,
      "duration": 0.1312,
      "velocity": 91,
      "chip": "ym2612"
    },
    {
      "channel": 2,
      "note": 72,
      "start": 22.3706,
      "duration": 0.2629,
      "velocity": 120,
      "chip": "ym2612"
    },
    {
      "channel": 3,
      "note": 59,
      "start": 22.5,
      "duration": 0.1382,
      "velocity": 96,
      "chip": "ym2612"
    },
    {
      "channel": 4,
      "note": 59,
      "start": 22.5012,
      "duration": 0.2686,
      "velocity": 91,
      "chip": "ym2612"
    },
    {
      "channel": 0,
      "note": 90,
      "start": 22.6372,
      "duration": 0.8047,
      "velocity": 86,
      "chip": "ym2612"
    },
    {
      "channel": 1,
      "note": 90,
      "start": 22.6381,
      "duration": 0.5375,
      "velocity": 86,
      "chip": "ym2612"
    },
    {
      "channel": 2,
      "note": 36,
      "start": 22.64,
      "duration": 0.1751,
      "velocity": 127,
      "chip": "ym2612"
    },
    {
      "channel": 5,
      "note": 90,
      "start": 22.6801,
      "duration": 0.8082,
      "velocity": 102,
      "chip": "ym2612"
    },
    {
      "channel": 3,
      "note": 59,
      "start": 22.7697,
      "duration": 0.2688,
      "velocity": 96,
      "chip": "ym2612"
    },
    {
      "channel": 4,
      "note": 59,
      "start": 22.7702,
      "duration": 0.1367,
      "velocity": 91,
      "chip": "ym2612"
    },
    {
      "channel": 4,
      "note": 54,
      "start": 22.9075,
      "duration": 0.2695,
      "velocity": 91,
      "chip": "ym2612"
    },
    {
      "channel": 2,
      "note": 72,
      "start": 22.9088,
      "duration": 0.2636,
      "velocity": 120,
      "chip": "ym2612"
    },
    {
      "channel": 3,
      "note": 59,
      "start": 23.039,
      "duration": 0.1375,
      "velocity": 96,
      "chip": "ym2612"
    },
    {
      "channel": 1,
      "note": 78,
      "start": 23.1763,
      "duration": 0.539,
      "velocity": 86,
      "chip": "ym2612"
    },
    {
      "channel": 3,
      "note": 59,
      "start": 23.1769,
      "duration": 0.2664,
      "velocity": 96,
      "chip": "ym2612"
    },
    {
      "channel": 4,
      "note": 55,
      "start": 23.1776,
      "duration": 0.2663,
      "velocity": 91,
      "chip": "ym2612"
    },
    {
      "channel": 2,
      "note": 36,
      "start": 23.1789,
      "duration": 0.1284,
      "velocity": 127,
      "chip": "ym2612"
    },
    {
      "channel": 2,
      "note": 72,
      "start": 23.3128,
      "duration": 0.2639,
      "velocity": 120,
      "chip": "ym2612"
    },
    {
      "channel": 0,
      "note": 88,
      "start": 23.4427,
      "duration": 0.1368,
      "velocity": 86,
      "chip": "ym2612"
    },
    {
      "channel": 3,
      "note": 59,
      "start": 23.4437,
      "duration": 0.2725,
      "velocity": 96,
      "chip": "ym2612"
    },
    {
      "channel": 4,
      "note": 57,
      "start": 23.4444,
      "duration": 0.2733,
      "velocity": 91,
      "chip": "ym2612"
    },
    {
      "channel": 5,
      "note": 88,
      "start": 23.489,
      "duration": 0.134,
      "velocity": 102,
      "chip": "ym2612"
    },
    {
      "channel": 0,
      "note": 90,
      "start": 23.5801,
      "duration": 0.1343,
      "velocity": 86,
      "chip": "ym2612"
    },
    {
      "channel": 2,
      "note": 72,
      "start": 23.5824,
      "duration": 0.1292,
      "velocity": 120,
      "chip": "ym2612"
    },
    {
      "channel": 5,
      "note": 90,
      "start": 23.6238,
      "duration": 0.134,
      "velocity": 102,
      "chip": "ym2612"
    },
    {
      "channel": 0,
      "note": 85,
      "start": 23.7151,
      "duration": 0.808,
      "velocity": 86,
      "chip": "ym2612"
    },
    {
      "channel": 1,
      "note": 83,
      "start": 23.7161,
      "duration": 0.538,
      "velocity": 86,
      "chip": "ym2612"
    },
    {
      "channel": 3,
      "note": 59,
      "start": 23.7173,
      "duration": 0.2677,
      "velocity": 96,
      "chip": "ym2612"
    },
    {
      "channel": 4,
      "note": 59,
      "start": 23.7183,
      "duration": 0.2672,
      "velocity": 91,
      "chip": "ym2612"
    },
    {
      "channel": 2,
      "note": 36,
      "start": 23.7196,
      "duration": 0.1736,
      "velocity": 127,
      "chip": "ym2612"
    },
    {
      "channel": 5,
      "note": 85,
      "start": 23.7585,
      "duration": 0.8078,
      "velocity": 102,
      "chip": "ym2612"
    },
    {
      "channel": 3,
      "note": 59,
      "start": 23.9855,
      "duration": 0.2695,
      "velocity": 96,
      "chip": "ym2612"
    },
    {
      "channel": 4,
      "note": 54,
      "start": 23.9862,
      "duration": 0.2691,
      "velocity": 91,
      "chip": "ym2612"
    },
    {
      "channel": 2,
      "note": 72,
      "start": 23.9874,
      "duration": 0.2635,
      "velocity": 120,
      "chip": "ym2612"
    },
    {
      "channel": 1,
      "note": 90,
      "start": 24.2548,
      "duration": 0.5383,
      "velocity": 86,
      "chip": "ym2612"
    },
    {
      "channel": 4,
      "note": 55,
      "start": 24.2559,
      "duration": 0.2686,
      "velocity": 91,
      "chip": "ym2612"
    },
    {
      "channel": 2,
      "note": 36,
      "start": 24.2572,
      "duration": 0.1751,
      "velocity": 127,
      "chip": "ym2612"
    },
    {
      "channel": 3,
      "note": 59,
      "start": 24.3867,
      "duration": 0.2691,
      "velocity": 96,
      "chip": "ym2612"
    },
    {
      "channel": 0,
      "note": 85,
      "start": 24.5236,
      "duration": 0.131,
      "velocity": 86,
      "chip": "ym2612"
    },
    {
      "channel": 4,
      "note": 57,
      "start": 24.5251,
      "duration": 0.1314,
      "velocity": 91,
      "chip": "ym2612"
    },
    {
      "channel": 2,
      "note": 72,
      "start": 24.5264,
      "duration": 0.263,
      "velocity": 120,
      "chip": "ym2612"
    },
    {
      "channel": 5,
      "note": 85,
      "start": 24.5673,
      "duration": 0.1343,
      "velocity": 102,
      "chip": "ym2612"
    },
    {
      "channel": 0,
      "note": 86,
      "start": 24.6553,
      "duration": 0.1369,
      "velocity": 86,
      "chip": "ym2612"
    },
    {
      "channel": 3,
      "note": 59,
      "start": 24.6563,
      "duration": 0.1376,
      "velocity": 96,
      "chip": "ym2612"
    },
    {
      "channel": 4,
      "note": 59,
      "start": 24.6571,
      "duration": 0.2687,
      "velocity": 91,
      "chip": "ym2612"
    },
    {
      "channel": 5,
      "note": 86,
      "start": 24.7022,
      "duration": 0.1333,
      "velocity": 102,
      "chip": "ym2612"
    },
    {
      "channel": 0,
      "note": 83,
      "start": 24.7929,
      "duration": 0.5384,
      "velocity": 86,
      "chip": "ym2612"
    },
    {
      "channel": 1,
      "note": 90,
      "start": 24.7938,
      "duration": 0.8046,
      "velocity": 86,
      "chip": "ym2612"
    },
    {
      "channel": 2,
      "note": 36,
      "start": 24.7956,
      "duration": 0.1756,
      "velocity": 127,
      "chip": "ym2612"
    },
    {
      "channel": 5,
      "note": 83,
      "start": 24.8362,
      "duration": 0.5386,
      "velocity": 102,
      "chip": "ym2612"
    },
    {
      "channel": 3,
      "note": 59,
      "start": 24.9257,
      "duration": 0.2689,
      "velocity": 96,
      "chip": "ym2612"
    },
    {
      "channel": 4,
      "note": 59,
      "start": 24.9262,
      "duration": 0.1367,
      "velocity": 91,
      "chip": "ym2612"
    },
    {
      "channel": 4,
      "note": 54,
      "start": 25.0635,
      "duration": 0.2696,
      "velocity": 91,
      "chip": "ym2612"
    },
    {
      "channel": 2,
      "note": 72,
      "start": 25.0647,
      "duration": 0.2637,
      "velocity": 120,
      "chip": "ym2612"
    },
    {
      "channel": 3,
      "note": 59,
      "start": 25.195,
      "duration": 0.1375,
      "velocity": 96,
      "chip": "ym2612"
    },
    {
      "channel": 0,
      "note": 90,
      "start": 25.3319,
      "duration": 0.5388,
      "velocity": 86,
      "chip": "ym2612"
    },
    {
      "channel": 3,
      "note": 59,
      "start": 25.333,
      "duration": 0.2663,
      "velocity": 96,
      "chip": "ym2612"
    },
    {
      "channel": 4,
      "note": 55,
      "start": 25.3341,
      "duration": 0.2658,
      "velocity": 91,
      "chip": "ym2612"
    },
    {
      "channel": 2,
      "note": 36,
      "start": 25.3354,
      "duration": 0.1277,
      "velocity": 127,
      "chip": "ym2612"
    },
    {
      "channel": 5,
      "note": 90,
      "start": 25.3755,
      "duration": 0.5383,
      "velocity": 102,
      "chip": "ym2612"
    },
    {
      "channel": 2,
      "note": 72,
      "start": 25.4689,
      "duration": 0.2637,
      "velocity": 120,
      "chip": "ym2612"
    },
    {
      "channel": 1,
      "note": 88,
      "start": 25.5991,
      "duration": 0.1371,
      "velocity": 86,
      "chip": "ym2612"
    },
    {
      "channel": 3,
      "note": 59,
      "start": 25.5997,
      "duration": 0.2728,
      "velocity": 96,
      "chip": "ym2612"
    },
    {
      "channel": 4,
      "note": 57,
      "start": 25.6009,
      "duration": 0.2726,
      "velocity": 91,
      "chip": "ym2612"
    },
    {
      "channel": 1,
      "note": 90,
      "start": 25.737,
      "duration": 0.1346,
      "velocity": 86,
      "chip": "ym2612"
    },
    {
      "channel": 2,
      "note": 72,
      "start": 25.7389,
      "duration": 0.129,
      "velocity": 120,
      "chip": "ym2612"
    },
    {
      "channel": 0,
      "note": 88,
      "start": 25.8714,
      "duration": 0.1308,
      "velocity": 86,
      "chip": "ym2612"
    },
    {
      "channel": 1,
      "note": 85,
      "start": 25.8722,
      "duration": 0.8073,
      "velocity": 86,
      "chip": "ym2612"
    },
    {
      "channel": 3,
      "note": 59,
      "start": 25.8731,
      "duration": 0.2679,
      "velocity": 96,
      "chip": "ym2612"
    },
    {
      "channel": 4,
      "note": 59,
      "start": 25.8741,
      "duration": 0.2675,
      "velocity": 91,
      "chip": "ym2612"
    },
    {
      "channel": 2,
      "note": 36,
      "start": 25.8754,
      "duration": 0.1742,
      "velocity": 127,
      "chip": "ym2612"
    },
    {
      "channel": 5,
      "note": 88,
      "start": 25.9145,
      "duration": 0.1341,
      "velocity": 102,
      "chip": "ym2612"
    },
    {
      "channel": 0,
      "note": 90,
      "start": 26.0029,
      "duration": 0.1368,
      "velocity": 86,
      "chip": "ym2612"
    },
    {
      "channel": 5,
      "note": 90,
      "start": 26.0494,
      "duration": 0.1344,
      "velocity": 102,
      "chip": "ym2612"
    },
    {
      "channel": 0,
      "note": 91,
      "start": 26.1404,
      "duration": 0.5384,
      "velocity": 86,
      "chip": "ym2612"
    },
    {
      "channel": 3,
      "note": 59,
      "start": 26.1414,
      "duration": 0.2688,
      "velocity": 96,
      "chip": "ym2612"
    },
    {
      "channel": 4,
      "note": 54,
      "start": 26.1421,
      "duration": 0.2684,
      "velocity": 91,
      "chip": "ym2612"
    },
    {
      "channel": 2,
      "note": 72,
      "start": 26.1432,
      "duration": 0.2632,
      "velocity": 120,
      "chip": "ym2612"
    },
    {
      "channel": 5,
      "note": 91,
      "start": 26.1845,
      "duration": 0.5378,
      "velocity": 102,
      "chip": "ym2612"
    },
    {
      "channel": 4,
      "note": 55,
      "start": 26.4111,
      "duration": 0.2695,
      "velocity": 91,
      "chip": "ym2612"
    },
    {
      "channel": 2,
      "note": 36,
      "start": 26.4124,
      "duration": 0.1758,
      "velocity": 127,
      "chip": "ym2612"
    },
    {
      "channel": 3,
      "note": 59,
      "start": 26.5428,
      "duration": 0.2692,
      "velocity": 96,
      "chip": "ym2612"
    },
    {
      "channel": 0,
      "note": 93,
      "start": 26.6794,
      "duration": 0.2688,
      "velocity": 86,
      "chip": "ym2612"
    },
    {
      "channel": 1,
      "note": 85,
      "start": 26.6801,
      "duration": 0.131,
      "velocity": 86,
      "chip": "ym2612"
    },
    {
      "channel": 4,
      "note": 57,
      "start": 26.6812,
      "duration": 0.1313,
      "velocity": 91,
      "chip": "ym2612"
    },
    {
      "channel": 2,
      "note": 72,
      "start": 26.6824,
      "duration": 0.263,
      "velocity": 120,
      "chip": "ym2612"
    },
    {
      "channel": 5,
      "note": 93,
      "start": 26.7231,
      "duration": 0.2684,
      "velocity": 102,
      "chip": "ym2612"
    },
    {
      "channel": 1,
      "note": 86,
      "start": 26.8118,
      "duration": 0.1372,
      "velocity": 86,
      "chip": "ym2612"
    },
    {
      "channel": 3,
      "note": 59,
      "start": 26.8124,
      "duration": 0.1375,
      "velocity": 96,
      "chip": "ym2612"
    },
    {
      "channel": 4,
      "note": 59,
      "start": 26.8131,
      "duration": 0.2687,
      "velocity": 91,
      "chip": "ym2612"
    },
    {
      "channel": 0,
      "note": 90,
      "start": 26.9489,
      "duration": 0.5383,
      "velocity": 86,
      "chip": "ym2612"
    },
    {
      "channel": 1,
      "note": 83,
      "start": 26.9497,
      "duration": 0.5382,
      "velocity": 86,
      "chip": "ym2612"
    },
    {
      "channel": 2,
      "note": 36,
      "start": 26.9521,
      "duration": 0.1751,
      "velocity": 127,
      "chip": "ym2612"
    },
    {
      "channel": 5,
      "note": 90,
      "start": 26.9922,
      "duration": 0.5387,
      "velocity": 102,
      "chip": "ym2612"
    },
    {
      "channel": 3,
      "note": 59,
      "start": 27.0817,
      "duration": 0.2694,
      "velocity": 96,
      "chip": "ym2612"
    },
    {
      "channel": 4,
      "note": 59,
      "start": 27.0823,
      "duration": 0.1372,
      "velocity": 91,
      "chip": "ym2612"
    },
    {
      "channel": 4,
      "note": 54,
      "start": 27.2201,
      "duration": 0.2693,
      "velocity": 91,
      "chip": "ym2612"
    },
    {
      "channel": 2,
      "note": 72,
      "start": 27.2213,
      "duration": 0.2632,
      "velocity": 120,
      "chip": "ym2612"
    },
    {
      "channel": 3,
      "note": 59,
      "start": 27.3515,
      "duration": 0.1373,
      "velocity": 96,
      "chip": "ym2612"
    },
    {
      "channel": 0,
      "note": 90,
      "start": 27.4878,
      "duration": 0.5387,
      "velocity": 86,
      "chip": "ym2612"
    },
    {
      "channel": 1,
      "note": 90,
      "start": 27.4886,
      "duration": 0.5388,
      "velocity": 86,
      "chip": "ym2612"
    },
    {
      "channel": 3,
      "note": 59,
      "start": 27.4892,
      "duration": 0.2657,
      "velocity": 96,
      "chip": "ym2612"
    },
    {
      "channel": 4,
      "note": 55,
      "start": 27.4899,
      "duration": 0.2656,
      "velocity": 91,
      "chip": "ym2612"
    },
    {
      "channel": 2,
      "note": 36,
      "start": 27.4912,
      "duration": 0.1279,
      "velocity": 127,
      "chip": "ym2612"
    },
    {
      "channel": 5,
      "note": 90,
      "start": 27.5314,
      "duration": 0.5384,
      "velocity": 102,
      "chip": "ym2612"
    },
    {
      "channel": 2,
      "note": 72,
      "start": 27.6245,
      "duration": 0.2642,
      "velocity": 120,
      "chip": "ym2612"
    },
    {
      "channel": 3,
      "note": 59,
      "start": 27.7554,
      "duration": 0.2729,
      "velocity": 96,
      "chip": "ym2612"
    },
    {
      "channel": 4,
      "note": 57,
      "start": 27.7561,
      "duration": 0.2732,
      "velocity": 91,
      "chip": "ym2612"
    },
    {
      "channel": 2,
      "note": 72,
      "start": 27.8942,
      "duration": 0.1295,
      "velocity": 120,
      "chip": "ym2612"
    },
    {
      "channel": 0,
      "note": 88,
      "start": 28.0272,
      "duration": 0.131,
      "velocity": 86,
      "chip": "ym2612"
    },
    {
      "channel": 1,
      "note": 88,
      "start": 28.028,
      "duration": 0.131,
      "velocity": 86,
      "chip": "ym2612"
    },
    {
      "channel": 3,
      "note": 59,
      "start": 28.0289,
      "duration": 0.2684,
      "velocity": 96,
      "chip": "ym2612"
    },
    {
      "channel": 4,
      "note": 59,
      "start": 28.0299,
      "duration": 0.268,
      "velocity": 91,
      "chip": "ym2612"
    },
    {
      "channel": 2,
      "note": 36,
      "start": 28.0312,
      "duration": 0.1743,
      "velocity": 127,
      "chip": "ym2612"
    },
    {
      "channel": 5,
      "note": 88,
      "start": 28.0705,
      "duration": 0.1341,
      "velocity": 102,
      "chip": "ym2612"
    },
    {
      "channel": 0,
      "note": 90,
      "start": 28.1589,
      "duration": 0.1368,
      "velocity": 86,
      "chip": "ym2612"
    },
    {
      "channel": 1,
      "note": 90,
      "start": 28.1598,
      "duration": 0.1368,
      "velocity": 86,
      "chip": "ym2612"
    },
    {
      "channel": 5,
      "note": 90,
      "start": 28.2052,
      "duration": 0.134,
      "velocity": 102,
      "chip": "ym2612"
    },
    {
      "channel": 0,
      "note": 91,
      "start": 28.2963,
      "duration": 0.5388,
      "velocity": 86,
      "chip": "ym2612"
    },
    {
      "channel": 1,
      "note": 91,
      "start": 28.2972,
      "duration": 0.5388,
      "velocity": 86,
      "chip": "ym2612"
    },
    {
      "channel": 3,
      "note": 59,
      "start": 28.2978,
      "duration": 0.2685,
      "velocity": 96,
      "chip": "ym2612"
    },
    {
      "channel": 4,
      "note": 54,
      "start": 28.2985,
      "duration": 0.2681,
      "velocity": 91,
      "chip": "ym2612"
    },
    {
      "channel": 2,
      "note": 72,
      "start": 28.2996,
      "duration": 0.2629,
      "velocity": 120,
      "chip": "ym2612"
    },
    {
      "channel": 5,
      "note": 91,
      "start": 28.34,
      "duration": 0.5384,
      "velocity": 102,
      "chip": "ym2612"
    },
    {
      "channel": 4,
      "note": 55,
      "start": 28.5675,
      "duration": 0.2697,
      "velocity": 91,
      "chip": "ym2612"
    },
    {
      "channel": 2,
      "note": 36,
      "start": 28.5689,
      "duration": 0.1754,
      "velocity": 127,
      "chip": "ym2612"
    },
    {
      "channel": 3,
      "note": 59,
      "start": 28.6987,
      "duration": 0.2694,
      "velocity": 96,
      "chip": "ym2612"
    },
    {
      "channel": 0,
      "note": 88,
      "start": 28.8359,
      "duration": 0.2684,
      "velocity": 86,
      "chip": "ym2612"
    },
    {
      "channel": 1,
      "note": 93,
      "start": 28.8367,
      "duration": 0.2684,
      "velocity": 86,
      "chip": "ym2612"
    },
    {
      "channel": 4,
      "note": 57,
      "start": 28.8378,
      "duration": 0.1308,
      "velocity": 91,
      "chip": "ym2612"
    },
    {
      "channel": 2,
      "note": 72,
      "start": 28.839,
      "duration": 0.2625,
      "velocity": 120,
      "chip": "ym2612"
    },
    {
      "channel": 5,
      "note": 88,
      "start": 28.879,
      "duration": 0.2685,
      "velocity": 102,
      "chip": "ym2612"
    },
    {
      "channel": 3,
      "note": 59,
      "start": 28.9685,
      "duration": 0.1374,
      "velocity": 96,
      "chip": "ym2612"
    },
    {
      "channel": 4,
      "note": 59,
      "start": 28.9693,
      "duration": 0.2686,
      "velocity": 91,
      "chip": "ym2612"
    },
    {
      "channel": 0,
      "note": 90,
      "start": 29.1049,
      "duration": 0.5384,
      "velocity": 86,
      "chip": "ym2612"
    },
    {
      "channel": 1,
      "note": 90,
      "start": 29.1058,
      "duration": 0.5383,
      "velocity": 86,
      "chip": "ym2612"
    },
    {
      "channel": 2,
      "note": 36,
      "start": 29.1077,
      "duration": 0.1755,
      "velocity": 127,
      "chip": "ym2612"
    },
    {
      "channel": 5,
      "note": 90,
      "start": 29.1483,
      "duration": 0.5387,
      "velocity": 102,
      "chip": "ym2612"
    },
    {
      "channel": 3,
      "note": 59,
      "start": 29.2378,
      "duration": 0.2688,
      "velocity": 96,
      "chip": "ym2612"
    },
    {
      "channel": 4,
      "note": 59,
      "start": 29.2384,
      "duration": 0.1366,
      "velocity": 91,
      "chip": "ym2612"
    },
    {
      "channel": 4,
      "note": 54,
      "start": 29.3756,
      "duration": 0.2698,
      "velocity": 91,
      "chip": "ym2612"
    },
    {
      "channel": 2,
      "note": 72,
      "start": 29.3768,
      "duration": 0.2636,
      "velocity": 120,
      "chip": "ym2612"
    },
    {
      "channel": 3,
      "note": 59,
      "start": 29.5071,
      "duration": 0.1378,
      "velocity": 96,
      "chip": "ym2612"
    },
    {
      "channel": 0,
      "note": 78,
      "start": 29.6441,
      "duration": 0.5387,
      "velocity": 86,
      "chip": "ym2612"
    },
    {
      "channel": 1,
      "note": 90,
      "start": 29.6447,
      "duration": 0.5394,
      "velocity": 86,
      "chip": "ym2612"
    },
    {
      "channel": 3,
      "note": 59,
      "start": 29.6453,
      "duration": 0.2656,
      "velocity": 96,
      "chip": "ym2612"
    },
    {
      "channel": 4,
      "note": 55,
      "start": 29.646,
      "duration": 0.2656,
      "velocity": 91,
      "chip": "ym2612"
    },
    {
      "channel": 2,
      "note": 36,
      "start": 29.6473,
      "duration": 0.1278,
      "velocity": 127,
      "chip": "ym2612"
    },
    {
      "channel": 5,
      "note": 78,
      "start": 29.6876,
      "duration": 0.5385,
      "velocity": 102,
      "chip": "ym2612"
    },
    {
      "channel": 2,
      "note": 72,
      "start": 29.7806,
      "duration": 0.2641,
      "velocity": 120,
      "chip": "ym2612"
    },
    {
      "channel": 3,
      "note": 59,
      "start": 29.9114,
      "duration": 0.2735,
      "velocity": 96,
      "chip": "ym2612"
    },
    {
      "channel": 4,
      "note": 57,
      "start": 29.9122,
      "duration": 0.2737,
      "velocity": 91,
      "chip": "ym2612"
    },
    {
      "channel": 2,
      "note": 72,
      "start": 30.0505,
      "duration": 0.1293,
      "velocity": 120,
      "chip": "ym2612"
    },
    {
      "channel": 0,
      "note": 91,
      "start": 30.1834,
      "duration": 1.0768,
      "velocity": 86,
      "chip": "ym2612"
    },
    {
      "channel": 1,
      "note": 88,
      "start": 30.1848,
      "duration": 1.0763,
      "velocity": 86,
      "chip": "ym2612"
    },
    {
      "channel": 3,
      "note": 59,
      "start": 30.1856,
      "duration": 0.2675,
      "velocity": 96,
      "chip": "ym2612"
    },
    {
      "channel": 4,
      "note": 52,
      "start": 30.1865,
      "duration": 0.2672,
      "velocity": 91,
      "chip": "ym2612"
    },
    {
      "channel": 2,
      "note": 36,
      "start": 30.1878,
      "duration": 0.1735,
      "velocity": 127,
      "chip": "ym2612"
    },
    {
      "channel": 5,
      "note": 91,
      "start": 30.2268,
      "duration": 1.0768,
      "velocity": 102,
      "chip": "ym2612"
    },
    {
      "channel": 3,
      "note": 59,
      "start": 30.4535,
      "duration": 0.2686,
      "velocity": 96,
      "chip": "ym2612"
    },
    {
      "channel": 4,
      "note": 52,
      "start": 30.4542,
      "duration": 0.2683,
      "velocity": 91,
      "chip": "ym2612"
    },
    {
      "channel": 2,
      "note": 72,
      "start": 30.4554,
      "duration": 0.263,
      "velocity": 120,
      "chip": "ym2612"
    },
    {
      "channel": 4,
      "note": 52,
      "start": 30.7229,
      "duration": 0.132,
      "velocity": 91,
      "chip": "ym2612"
    },
    {
      "channel": 2,
      "note": 36,
      "start": 30.7242,
      "duration": 0.1766,
      "velocity": 127,
      "chip": "ym2612"
    },
    {
      "channel": 3,
      "note": 59,
      "start": 30.8548,
      "duration": 0.2688,
      "velocity": 96,
      "chip": "ym2612"
    },
    {
      "channel": 4,
      "note": 52,
      "start": 30.8554,
      "duration": 0.2688,
      "velocity": 91,
      "chip": "ym2612"
    },
    {
      "channel": 2,
      "note": 72,
      "start": 30.9935,
      "duration": 0.264,
      "velocity": 120,
      "chip": "ym2612"
    },
    {
      "channel": 3,
      "note": 59,
      "start": 31.1241,
      "duration": 0.1378,
      "velocity": 96,
      "chip": "ym2612"
    },
    {
      "channel": 4,
      "note": 52,
      "start": 31.1246,
      "duration": 0.1376,
      "velocity": 91,
      "chip": "ym2612"
    },
    {
      "channel": 0,
      "note": 95,
      "start": 31.2609,
      "duration": 1.0777,
      "velocity": 86,
      "chip": "ym2612"
    },
    {
      "channel": 1,
      "note": 91,
      "start": 31.2617,
      "duration": 1.0778,
      "velocity": 86,
      "chip": "ym2612"
    },
    {
      "channel": 4,
      "note": 52,
      "start": 31.2627,
      "duration": 0.1313,
      "velocity": 91,
      "chip": "ym2612"
    },
    {
      "channel": 2,
      "note": 36,
      "start": 31.264,
      "duration": 0.1756,
      "velocity": 127,
      "chip": "ym2612"
    },
    {
      "channel": 5,
      "note": 95,
      "start": 31.3044,
      "duration": 1.0776,
      "velocity": 102,
      "chip": "ym2612"
    },
    {
      "channel": 3,
      "note": 59,
      "start": 31.3938,
      "duration": 0.269,
      "velocity": 96,
      "chip": "ym2612"
    },
    {
      "channel": 4,
      "note": 52,
      "start": 31.3944,
      "duration": 0.2689,
      "velocity": 91,
      "chip": "ym2612"
    },
    {
      "channel": 2,
      "note": 72,
      "start": 31.5325,
      "duration": 0.264,
      "velocity": 120,
      "chip": "ym2612"
    },
    {
      "channel": 3,
      "note": 59,
      "start": 31.6632,
      "duration": 0.1375,
      "velocity": 96,
      "chip": "ym2612"
    },
    {
      "channel": 4,
      "note": 52,
      "start": 31.6638,
      "duration": 0.1375,
      "velocity": 91,
      "chip": "ym2612"
    },
    {
      "channel": 3,
      "note": 59,
      "start": 31.8011,
      "duration": 0.2662,
      "velocity": 96,
      "chip": "ym2612"
    },
    {
      "channel": 4,
      "note": 52,
      "start": 31.8017,
      "duration": 0.2662,
      "velocity": 91,
      "chip": "ym2612"
    },
    {
      "channel": 2,
      "note": 36,
      "start": 31.8029,
      "duration": 0.1283,
      "velocity": 127,
      "chip": "ym2612"
    },
    {
      "channel": 2,
      "note": 72,
      "start": 31.9372,
      "duration": 0.2637,
      "velocity": 120,
      "chip": "ym2612"
    },
    {
      "channel": 3,
      "note": 59,
      "start": 32.0678,
      "duration": 0.2726,
      "velocity": 96,
      "chip": "ym2612"
    },
    {
      "channel": 4,
      "note": 52,
      "start": 32.0683,
      "duration": 0.2728,
      "velocity": 91,
      "chip": "ym2612"
    },
    {
      "channel": 2,
      "note": 72,
      "start": 32.2064,
      "duration": 0.1294,
      "velocity": 120,
      "chip": "ym2612"
    },
    {
      "channel": 0,
      "note": 94,
      "start": 32.3393,
      "duration": 0.2685,
      "velocity": 86,
      "chip": "ym2612"
    },
    {
      "channel": 1,
      "note": 90,
      "start": 32.3402,
      "duration": 0.2685,
      "velocity": 86,
      "chip": "ym2612"
    },
    {
      "channel": 3,
      "note": 59,
      "start": 32.341,
      "duration": 0.2684,
      "velocity": 96,
      "chip": "ym2612"
    },
    {
      "channel": 4,
      "note": 54,
      "start": 32.3417,
      "duration": 0.2683,
      "velocity": 91,
      "chip": "ym2612"
    },
    {
      "channel": 2,
      "note": 36,
      "start": 32.343,
      "duration": 0.1747,
      "velocity": 127,
      "chip": "ym2612"
    },
    {
      "channel": 5,
      "note": 94,
      "start": 32.3826,
      "duration": 0.2695,
      "velocity": 102,
      "chip": "ym2612"
    },
    {
      "channel": 0,
      "note": 78,
      "start": 32.6085,
      "duration": 0.2688,
      "velocity": 86,
      "chip": "ym2612"
    },
    {
      "channel": 1,
      "note": 66,
      "start": 32.6093,
      "duration": 0.2689,
      "velocity": 86,
      "chip": "ym2612"
    },
    {
      "channel": 3,
      "note": 59,
      "start": 32.6099,
      "duration": 0.2691,
      "velocity": 96,
      "chip": "ym2612"
    },
    {
      "channel": 4,
      "note": 54,
      "start": 32.6105,
      "duration": 0.2688,
      "velocity": 91,
      "chip": "ym2612"
    },
    {
      "channel": 2,
      "note": 72,
      "start": 32.6117,
      "duration": 0.2628,
      "velocity": 120,
      "chip": "ym2612"
    },
    {
      "channel": 5,
      "note": 78,
      "start": 32.6528,
      "duration": 0.2679,
      "velocity": 102,
      "chip": "ym2612"
    },
    {
      "channel": 0,
      "note": 78,
      "start": 32.878,
      "duration": 0.2688,
      "velocity": 86,
      "chip": "ym2612"
    },
    {
      "channel": 1,
      "note": 66,
      "start": 32.8788,
      "duration": 0.2688,
      "velocity": 86,
      "chip": "ym2612"
    },
    {
      "channel": 4,
      "note": 54,
      "start": 32.8797,
      "duration": 0.1313,
      "velocity": 91,
      "chip": "ym2612"
    },
    {
      "channel": 2,
      "note": 36,
      "start": 32.881,
      "duration": 0.1753,
      "velocity": 127,
      "chip": "ym2612"
    },
    {
      "channel": 5,
      "note": 78,
      "start": 32.9213,
      "duration": 0.2692,
      "velocity": 102,
      "chip": "ym2612"
    },
    {
      "channel": 3,
      "note": 59,
      "start": 33.0108,
      "duration": 0.2688,
      "velocity": 96,
      "chip": "ym2612"
    },
    {
      "channel": 4,
      "note": 54,
      "start": 33.0115,
      "duration": 0.2688,
      "velocity": 91,
      "chip": "ym2612"
    },
    {
      "channel": 0,
      "note": 78,
      "start": 33.1475,
      "duration": 0.2688,
      "velocity": 86,
      "chip": "ym2612"
    },
    {
      "channel": 1,
      "note": 66,
      "start": 33.1483,
      "duration": 0.2693,
      "velocity": 86,
      "chip": "ym2612"
    },
    {
      "channel": 2,
      "note": 72,
      "start": 33.1506,
      "duration": 0.2629,
      "velocity": 120,
      "chip": "ym2612"
    },
    {
      "channel": 5,
      "note": 78,
      "start": 33.1911,
      "duration": 0.2685,
      "velocity": 102,
      "chip": "ym2612"
    },
    {
      "channel": 3,
      "note": 59,
      "start": 33.2801,
      "duration": 0.1382,
      "velocity": 96,
      "chip": "ym2612"
    },
    {
      "channel": 4,
      "note": 54,
      "start": 33.2807,
      "duration": 0.1379,
      "velocity": 91,
      "chip": "ym2612"
    },
    {
      "channel": 0,
      "note": 78,
      "start": 33.4174,
      "duration": 0.2689,
      "velocity": 86,
      "chip": "ym2612"
    },
    {
      "channel": 1,
      "note": 66,
      "start": 33.4182,
      "duration": 0.2689,
      "velocity": 86,
      "chip": "ym2612"
    },
    {
      "channel": 4,
      "note": 54,
      "start": 33.4191,
      "duration": 0.1309,
      "velocity": 91,
      "chip": "ym2612"
    },
    {
      "channel": 2,
      "note": 36,
      "start": 33.4204,
      "duration": 0.1749,
      "velocity": 127,
      "chip": "ym2612"
    },
    {
      "channel": 5,
      "note": 78,
      "start": 33.4603,
      "duration": 0.2691,
      "velocity": 102,
      "chip": "ym2612"
    },
    {
      "channel": 3,
      "note": 59,
      "start": 33.5498,
      "duration": 0.269,
      "velocity": 96,
      "chip": "ym2612"
    },
    {
      "channel": 4,
      "note": 54,
      "start": 33.5509,
      "duration": 0.2685,
      "velocity": 91,
      "chip": "ym2612"
    },
    {
      "channel": 0,
      "note": 78,
      "start": 33.687,
      "duration": 0.2684,
      "velocity": 86,
      "chip": "ym2612"
    },
    {
      "channel": 1,
      "note": 66,
      "start": 33.6878,
      "duration": 0.2683,
      "velocity": 86,
      "chip": "ym2612"
    },
    {
      "channel": 2,
      "note": 72,
      "start": 33.6897,
      "duration": 0.2628,
      "velocity": 120,
      "chip": "ym2612"
    },
    {
      "channel": 5,
      "note": 78,
      "start": 33.7301,
      "duration": 0.2688,
      "velocity": 102,
      "chip": "ym2612"
    },
    {
      "channel": 3,
      "note": 59,
      "start": 33.8193,
      "duration": 0.1377,
      "velocity": 96,
      "chip": "ym2612"
    },
    {
      "channel": 4,
      "note": 54,
      "start": 33.8198,
      "duration": 0.1377,
      "velocity": 91,
      "chip": "ym2612"
    },
    {
      "channel": 0,
      "note": 78,
      "start": 33.956,
      "duration": 0.2662,
      "velocity": 86,
      "chip": "ym2612"
    },
    {
      "channel": 1,
      "note": 66,
      "start": 33.9568,
      "duration": 0.2661,
      "velocity": 86,
      "chip": "ym2612"
    },
    {
      "channel": 3,
      "note": 59,
      "start": 33.9574,
      "duration": 0.2663,
      "velocity": 96,
      "chip": "ym2612"
    },
    {
      "channel": 4,
      "note": 54,
      "start": 33.958,
      "duration": 0.2663,
      "velocity": 91,
      "chip": "ym2612"
    },
    {
      "channel": 2,
      "note": 36,
      "start": 33.9593,
      "duration": 0.128,
      "velocity": 127,
      "chip": "ym2612"
    },
    {
      "channel": 5,
      "note": 78,
      "start": 33.9996,
      "duration": 0.2692,
      "velocity": 102,
      "chip": "ym2612"
    },
    {
      "channel": 2,
      "note": 72,
      "start": 34.0927,
      "duration": 0.2642,
      "velocity": 120,
      "chip": "ym2612"
    },
    {
      "channel": 0,
      "note": 78,
      "start": 34.2228,
      "duration": 0.2718,
      "velocity": 86,
      "chip": "ym2612"
    },
    {
      "channel": 1,
      "note": 66,
      "start": 34.2236,
      "duration": 0.2719,
      "velocity": 86,
      "chip": "ym2612"
    },
    {
      "channel": 3,
      "note": 59,
      "start": 34.2242,
      "duration": 0.2723,
      "velocity": 96,
      "chip": "ym2612"
    },
    {
      "channel": 4,
      "note": 54,
      "start": 34.2248,
      "duration": 0.2725,
      "velocity": 91,
      "chip": "ym2612"
    },
    {
      "channel": 5,
      "note": 78,
      "start": 34.2695,
      "duration": 0.2684,
      "velocity": 102,
      "chip": "ym2612"
    },
    {
      "channel": 2,
      "note": 72,
      "start": 34.3622,
      "duration": 0.1296,
      "velocity": 120,
      "chip": "ym2612"
    },
    {
      "channel": 0,
      "note": 91,
      "start": 34.4953,
      "duration": 1.0772,
      "velocity": 86,
      "chip": "ym2612"
    },
    {
      "channel": 1,
      "note": 88,
      "start": 34.4962,
      "duration": 1.077,
      "velocity": 86,
      "chip": "ym2612"
    },
    {
      "channel": 3,
      "note": 59,
      "start": 34.497,
      "duration": 0.2678,
      "velocity": 96,
      "chip": "ym2612"
    },
    {
      "channel": 4,
      "note": 52,
      "start": 34.4979,
      "duration": 0.2676,
      "velocity": 91,
      "chip": "ym2612"
    },
    {
      "channel": 2,
      "note": 36,
      "start": 34.4992,
      "duration": 0.1742,
      "velocity": 127,
      "chip": "ym2612"
    },
    {
      "channel": 5,
      "note": 91,
      "start": 34.5386,
      "duration": 1.077,
      "velocity": 102,
      "chip": "ym2612"
    },
    {
      "channel": 3,
      "note": 59,
      "start": 34.7653,
      "duration": 0.2693,
      "velocity": 96,
      "chip": "ym2612"
    },
    {
      "channel": 4,
      "note": 52,
      "start": 34.7659,
      "duration": 0.2691,
      "velocity": 91,
      "chip": "ym2612"
    },
    {
      "channel": 2,
      "note": 72,
      "start": 34.7675,
      "duration": 0.263,
      "velocity": 120,
      "chip": "ym2612"
    },
    {
      "channel": 4,
      "note": 52,
      "start": 35.0354,
      "duration": 0.1321,
      "velocity": 91,
      "chip": "ym2612"
    },
    {
      "channel": 2,
      "note": 36,
      "start": 35.0367,
      "duration": 0.1757,
      "velocity": 127,
      "chip": "ym2612"
    },
    {
      "channel": 3,
      "note": 59,
      "start": 35.1673,
      "duration": 0.2685,
      "velocity": 96,
      "chip": "ym2612"
    },
    {
      "channel": 4,
      "note": 52,
      "start": 35.1679,
      "duration": 0.2684,
      "velocity": 91,
      "chip": "ym2612"
    },
    {
      "channel": 2,
      "note": 72,
      "start": 35.306,
      "duration": 0.2636,
      "velocity": 120,
      "chip": "ym2612"
    },
    {
      "channel": 3,
      "note": 59,
      "start": 35.4362,
      "duration": 0.1378,
      "velocity": 96,
      "chip": "ym2612"
    },
    {
      "channel": 4,
      "note": 52,
      "start": 35.4368,
      "duration": 0.1376,
      "velocity": 91,
      "chip": "ym2612"
    },
    {
      "channel": 0,
      "note": 95,
      "start": 35.5731,
      "duration": 1.078,
      "velocity": 86,
      "chip": "ym2612"
    },
    {
      "channel": 1,
      "note": 91,
      "start": 35.5739,
      "duration": 1.0781,
      "velocity": 86,
      "chip": "ym2612"
    },
    {
      "channel": 4,
      "note": 52,
      "start": 35.5748,
      "duration": 0.1312,
      "velocity": 91,
      "chip": "ym2612"
    },
    {
      "channel": 2,
      "note": 36,
      "start": 35.5761,
      "duration": 0.1757,
      "velocity": 127,
      "chip": "ym2612"
    },
    {
      "channel": 5,
      "note": 95,
      "start": 35.6164,
      "duration": 1.0776,
      "velocity": 102,
      "chip": "ym2612"
    },
    {
      "channel": 3,
      "note": 59,
      "start": 35.7059,
      "duration": 0.2689,
      "velocity": 96,
      "chip": "ym2612"
    },
    {
      "channel": 4,
      "note": 52,
      "start": 35.7065,
      "duration": 0.269,
      "velocity": 91,
      "chip": "ym2612"
    },
    {
      "channel": 2,
      "note": 72,
      "start": 35.8446,
      "duration": 0.2642,
      "velocity": 120,
      "chip": "ym2612"
    },
    {
      "channel": 3,
      "note": 59,
      "start": 35.9752,
      "duration": 0.1373,
      "velocity": 96,
      "chip": "ym2612"
    },
    {
      "channel": 4,
      "note": 52,
      "start": 35.9759,
      "duration": 0.1373,
      "velocity": 91,
      "chip": "ym2612"
    },
    {
      "channel": 3,
      "note": 59,
      "start": 36.113,
      "duration": 0.266,
      "velocity": 96,
      "chip": "ym2612"
    },
    {
      "channel": 4,
      "note": 52,
      "start": 36.1136,
      "duration": 0.266,
      "velocity": 91,
      "chip": "ym2612"
    },
    {
      "channel": 2,
      "note": 36,
      "start": 36.1149,
      "duration": 0.1285,
      "velocity": 127,
      "chip": "ym2612"
    },
    {
      "channel": 2,
      "note": 72,
      "start": 36.2488,
      "duration": 0.2641,
      "velocity": 120,
      "chip": "ym2612"
    },
    {
      "channel": 3,
      "note": 59,
      "start": 36.3795,
      "duration": 0.2734,
      "velocity": 96,
      "chip": "ym2612"
    },
    {
      "channel": 4,
      "note": 52,
      "start": 36.38,
      "duration": 0.2736,
      "velocity": 91,
      "chip": "ym2612"
    },
    {
      "channel": 2,
      "note": 72,
      "start": 36.5188,
      "duration": 0.1291,
      "velocity": 120,
      "chip": "ym2612"
    },
    {
      "channel": 0,
      "note": 94,
      "start": 36.6518,
      "duration": 0.2685,
      "velocity": 86,
      "chip": "ym2612"
    },
    {
      "channel": 1,
      "note": 90,
      "start": 36.6527,
      "duration": 0.2685,
      "velocity": 86,
      "chip": "ym2612"
    },
    {
      "channel": 3,
      "note": 59,
      "start": 36.6535,
      "duration": 0.2684,
      "velocity": 96,
      "chip": "ym2612"
    },
    {
      "channel": 4,
      "note": 54,
      "start": 36.6542,
      "duration": 0.2683,
      "velocity": 91,
      "chip": "ym2612"
    },
    {
      "channel": 2,
      "note": 36,
      "start": 36.6556,
      "duration": 0.1738,
      "velocity": 127,
      "chip": "ym2612"
    },
    {
      "channel": 5,
      "note": 94,
      "start": 36.6947,
      "duration": 0.2688,
      "velocity": 102,
      "chip": "ym2612"
    },
    {
      "channel": 0,
      "note": 78,
      "start": 36.921,
      "duration": 0.2684,
      "velocity": 86,
      "chip": "ym2612"
    },
    {
      "channel": 1,
      "note": 66,
      "start": 36.9219,
      "duration": 0.2684,
      "velocity": 86,
      "chip": "ym2612"
    },
    {
      "channel": 3,
      "note": 59,
      "start": 36.9224,
      "duration": 0.2686,
      "velocity": 96,
      "chip": "ym2612"
    },
    {
      "channel": 4,
      "note": 54,
      "start": 36.923,
      "duration": 0.2684,
      "velocity": 91,
      "chip": "ym2612"
    },
    {
      "channel": 2,
      "note": 72,
      "start": 36.9242,
      "duration": 0.2624,
      "velocity": 120,
      "chip": "ym2612"
    },
    {
      "channel": 5,
      "note": 78,
      "start": 36.9641,
      "duration": 0.2685,
      "velocity": 102,
      "chip": "ym2612"
    },
    {
      "channel": 0,
      "note": 78,
      "start": 37.1901,
      "duration": 0.2688,
      "velocity": 86,
      "chip": "ym2612"
    },
    {
      "channel": 1,
      "note": 66,
      "start": 37.1909,
      "duration": 0.2689,
      "velocity": 86,
      "chip": "ym2612"
    },
    {
      "channel": 4,
      "note": 54,
      "start": 37.1918,
      "duration": 0.1315,
      "velocity": 91,
      "chip": "ym2612"
    },
    {
      "channel": 2,
      "note": 36,
      "start": 37.1931,
      "duration": 0.1757,
      "velocity": 127,
      "chip": "ym2612"
    },
    {
      "channel": 5,
      "note": 78,
      "start": 37.2334,
      "duration": 0.2691,
      "velocity": 102,
      "chip": "ym2612"
    },
    {
      "channel": 3,
      "note": 59,
      "start": 37.3232,
      "duration": 0.2686,
      "velocity": 96,
      "chip": "ym2612"
    },
    {
      "channel": 4,
      "note": 54,
      "start": 37.3238,
      "duration": 0.2686,
      "velocity": 91,
      "chip": "ym2612"
    },
    {
      "channel": 0,
      "note": 78,
      "start": 37.4596,
      "duration": 0.2688,
      "velocity": 86,
      "chip": "ym2612"
    },
    {
      "channel": 1,
      "note": 66,
      "start": 37.4605,
      "duration": 0.2688,
      "velocity": 86,
      "chip": "ym2612"
    },
    {
      "channel": 2,
      "note": 72,
      "start": 37.4624,
      "duration": 0.2633,
      "velocity": 120,
      "chip": "ym2612"
    },
    {
      "channel": 5,
      "note": 78,
      "start": 37.5032,
      "duration": 0.2686,
      "velocity": 102,
      "chip": "ym2612"
    },
    {
      "channel": 3,
      "note": 59,
      "start": 37.5923,
      "duration": 0.1378,
      "velocity": 96,
      "chip": "ym2612"
    },
    {
      "channel": 4,
      "note": 54,
      "start": 37.5928,
      "duration": 0.1375,
      "velocity": 91,
      "chip": "ym2612"
    },
    {
      "channel": 0,
      "note": 78,
      "start": 37.7291,
      "duration": 0.2688,
      "velocity": 86,
      "chip": "ym2612"
    },
    {
      "channel": 1,
      "note": 66,
      "start": 37.7299,
      "duration": 0.2688,
      "velocity": 86,
      "chip": "ym2612"
    },
    {
      "channel": 4,
      "note": 54,
      "start": 37.7308,
      "duration": 0.1312,
      "velocity": 91,
      "chip": "ym2612"
    },
    {
      "channel": 2,
      "note": 36,
      "start": 37.7321,
      "duration": 0.1754,
      "velocity": 127,
      "chip": "ym2612"
    },
    {
      "channel": 5,
      "note": 78,
      "start": 37.7724,
      "duration": 0.2691,
      "velocity": 102,
      "chip": "ym2612"
    },
    {
      "channel": 3,
      "note": 59,
      "start": 37.8619,
      "duration": 0.2689,
      "velocity": 96,
      "chip": "ym2612"
    },
    {
      "channel": 4,
      "note": 54,
      "start": 37.8625,
      "duration": 0.2689,
      "velocity": 91,
      "chip": "ym2612"
    },
    {
      "channel": 0,
      "note": 78,
      "start": 37.9986,
      "duration": 0.2693,
      "velocity": 86,
      "chip": "ym2612"
    },
    {
      "channel": 1,
      "note": 66,
      "start": 37.9994,
      "duration": 0.2693,
      "velocity": 86,
      "chip": "ym2612"
    },
    {
      "channel": 2,
      "note": 72,
      "start": 38.0017,
      "duration": 0.2629,
      "velocity": 120,
      "chip": "ym2612"
    },
    {
      "channel": 5,
      "note": 78,
      "start": 38.0421,
      "duration": 0.2688,
      "velocity": 102,
      "chip": "ym2612"
    },
    {
      "channel": 3,
      "note": 59,
      "start": 38.1313,
      "duration": 0.1382,
      "velocity": 96,
      "chip": "ym2612"
    },
    {
      "channel": 4,
      "note": 54,
      "start": 38.1318,
      "duration": 0.1382,
      "velocity": 91,
      "chip": "ym2612"
    },
    {
      "channel": 0,
      "note": 78,
      "start": 38.2685,
      "duration": 0.2661,
      "velocity": 86,
      "chip": "ym2612"
    },
    {
      "channel": 1,
      "note": 66,
      "start": 38.2693,
      "duration": 0.2662,
      "velocity": 86,
      "chip": "ym2612"
    },
    {
      "channel": 3,
      "note": 59,
      "start": 38.2699,
      "duration": 0.2664,
      "velocity": 96,
      "chip": "ym2612"
    },
    {
      "channel": 4,
      "note": 54,
      "start": 38.2705,
      "duration": 0.2664,
      "velocity": 91,
      "chip": "ym2612"
    },
    {
      "channel": 2,
      "note": 36,
      "start": 38.2718,
      "duration": 0.1276,
      "velocity": 127,
      "chip": "ym2612"
    },
    {
      "channel": 5,
      "note": 78,
      "start": 38.3116,
      "duration": 0.2689,
      "velocity": 102,
      "chip": "ym2612"
    },
    {
      "channel": 2,
      "note": 72,
      "start": 38.4052,
      "duration": 0.2637,
      "velocity": 120,
      "chip": "ym2612"
    },
    {
      "channel": 0,
      "note": 78,
      "start": 38.5354,
      "duration": 0.2713,
      "velocity": 86,
      "chip": "ym2612"
    },
    {
      "channel": 1,
      "note": 66,
      "start": 38.5362,
      "duration": 0.2714,
      "velocity": 86,
      "chip": "ym2612"
    },
    {
      "channel": 3,
      "note": 59,
      "start": 38.5368,
      "duration": 0.2717,
      "velocity": 96,
      "chip": "ym2612"
    },
    {
      "channel": 4,
      "note": 54,
      "start": 38.5374,
      "duration": 0.272,
      "velocity": 91,
      "chip": "ym2612"
    },
    {
      "channel": 5,
      "note": 78,
      "start": 38.5811,
      "duration": 0.2692,
      "velocity": 102,
      "chip": "ym2612"
    },
    {
      "channel": 2,
      "note": 72,
      "start": 38.6743,
      "duration": 0.1296,
      "velocity": 120,
      "chip": "ym2612"
    },
    {
      "channel": 0,
      "note": 78,
      "start": 38.8073,
      "duration": 0.2686,
      "velocity": 86,
      "chip": "ym2612"
    },
    {
      "channel": 1,
      "note": 66,
      "start": 38.8082,
      "duration": 0.2685,
      "velocity": 86,
      "chip": "ym2612"
    },
    {
      "channel": 3,
      "note": 59,
      "start": 38.8091,
      "duration": 0.2684,
      "velocity": 96,
      "chip": "ym2612"
    },
    {
      "channel": 4,
      "note": 54,
      "start": 38.81,
      "duration": 0.2682,
      "velocity": 91,
      "chip": "ym2612"
    },
    {
      "channel": 2,
      "note": 36,
      "start": 38.8112,
      "duration": 0.1747,
      "velocity": 127,
      "chip": "ym2612"
    },
    {
      "channel": 5,
      "note": 78,
      "start": 38.8512,
      "duration": 0.2684,
      "velocity": 102,
      "chip": "ym2612"
    },
    {
      "channel": 0,
      "note": 78,
      "start": 39.0766,
      "duration": 0.2689,
      "velocity": 86,
      "chip": "ym2612"
    },
    {
      "channel": 1,
      "note": 66,
      "start": 39.0774,
      "duration": 0.2689,
      "velocity": 86,
      "chip": "ym2612"
    },
    {
      "channel": 3,
      "note": 59,
      "start": 39.078,
      "duration": 0.2691,
      "velocity": 96,
      "chip": "ym2612"
    },
    {
      "channel": 4,
      "note": 54,
      "start": 39.0786,
      "duration": 0.2688,
      "velocity": 91,
      "chip": "ym2612"
    },
    {
      "channel": 2,
      "note": 72,
      "start": 39.0798,
      "duration": 0.2629,
      "velocity": 120,
      "chip": "ym2612"
    },
    {
      "channel": 5,
      "note": 78,
      "start": 39.1202,
      "duration": 0.2685,
      "velocity": 102,
      "chip": "ym2612"
    },
    {
      "channel": 0,
      "note": 78,
      "start": 39.3461,
      "duration": 0.2688,
      "velocity": 86,
      "chip": "ym2612"
    },
    {
      "channel": 1,
      "note": 66,
      "start": 39.3469,
      "duration": 0.2689,
      "velocity": 86,
      "chip": "ym2612"
    },
    {
      "channel": 4,
      "note": 54,
      "start": 39.3479,
      "duration": 0.1313,
      "velocity": 91,
      "chip": "ym2612"
    },
    {
      "channel": 2,
      "note": 36,
      "start": 39.3491,
      "duration": 0.1753,
      "velocity": 127,
      "chip": "ym2612"
    },
    {
      "channel": 5,
      "note": 78,
      "start": 39.3894,
      "duration": 0.2692,
      "velocity": 102,
      "chip": "ym2612"
    },
    {
      "channel": 3,
      "note": 59,
      "start": 39.479,
      "duration": 0.2688,
      "velocity": 96,
      "chip": "ym2612"
    },
    {
      "channel": 4,
      "note": 54,
      "start": 39.4796,
      "duration": 0.2688,
      "velocity": 91,
      "chip": "ym2612"
    },
    {
      "channel": 0,
      "note": 78,
      "start": 39.6157,
      "duration": 0.2692,
      "velocity": 86,
      "chip": "ym2612"
    },
    {
      "channel": 1,
      "note": 66,
      "start": 39.6164,
      "duration": 0.2693,
      "velocity": 86,
      "chip": "ym2612"
    },
    {
      "channel": 2,
      "note": 72,
      "start": 39.6188,
      "duration": 0.2629,
      "velocity": 120,
      "chip": "ym2612"
    },
    {
      "channel": 5,
      "note": 78,
      "start": 39.6593,
      "duration": 0.2685,
      "velocity": 102,
      "chip": "ym2612"
    },
    {
      "channel": 3,
      "note": 59,
      "start": 39.7483,
      "duration": 0.1383,
      "velocity": 96,
      "chip": "ym2612"
    },
    {
      "channel": 4,
      "note": 54,
      "start": 39.7488,
      "duration": 0.138,
      "velocity": 91,
      "chip": "ym2612"
    },
    {
      "channel": 0,
      "note": 78,
      "start": 39.8856,
      "duration": 0.2684,
      "velocity": 86,
      "chip": "ym2612"
    },
    {
      "channel": 1,
      "note": 66,
      "start": 39.8864,
      "duration": 0.2684,
      "velocity": 86,
      "chip": "ym2612"
    },
    {
      "channel": 4,
      "note": 54,
      "start": 39.8873,
      "duration": 0.2686,
      "velocity": 91,
      "chip": "ym2612"
    },
    {
      "channel": 2,
      "note": 36,
      "start": 39.8886,
      "duration": 0.1749,
      "velocity": 127,
      "chip": "ym2612"
    },
    {
      "channel": 5,
      "note": 78,
      "start": 39.9285,
      "duration": 0.2691,
      "velocity": 102,
      "chip": "ym2612"
    },
    {
      "channel": 3,
      "note": 59,
      "start": 40.0183,
      "duration": 0.2685,
      "velocity": 96,
      "chip": "ym2612"
    },
    {
      "channel": 0,
      "note": 76,
      "start": 40.1547,
      "duration": 0.2688,
      "velocity": 86,
      "chip": "ym2612"
    },
    {
      "channel": 1,
      "note": 64,
      "start": 40.1554,
      "duration": 0.2688,
      "velocity": 86,
      "chip": "ym2612"
    },
    {
      "channel": 4,
      "note": 52,
      "start": 40.1565,
      "duration": 0.2692,
      "velocity": 91,
      "chip": "ym2612"
    },
    {
      "channel": 2,
      "note": 72,
      "start": 40.1577,
      "duration": 0.2629,
      "velocity": 120,
      "chip": "ym2612"
    },
    {
      "channel": 5,
      "note": 76,
      "start": 40.1983,
      "duration": 0.2693,
      "velocity": 102,
      "chip": "ym2612"
    },
    {
      "channel": 3,
      "note": 59,
      "start": 40.2872,
      "duration": 0.1379,
      "velocity": 96,
      "chip": "ym2612"
    },
    {
      "channel": 0,
      "note": 74,
      "start": 40.4241,
      "duration": 0.2661,
      "velocity": 86,
      "chip": "ym2612"
    },
    {
      "channel": 1,
      "note": 62,
      "start": 40.425,
      "duration": 0.2662,
      "velocity": 86,
      "chip": "ym2612"
    },
    {
      "channel": 3,
      "note": 59,
      "start": 40.4255,
      "duration": 0.2664,
      "velocity": 96,
      "chip": "ym2612"
    },
    {
      "channel": 4,
      "note": 50,
      "start": 40.4262,
      "duration": 0.2663,
      "velocity": 91,
      "chip": "ym2612"
    },
    {
      "channel": 2,
      "note": 36,
      "start": 40.4276,
      "duration": 0.1279,
      "velocity": 127,
      "chip": "ym2612"
    },
    {
      "channel": 5,
      "note": 74,
      "start": 40.4682,
      "duration": 0.2684,
      "velocity": 102,
      "chip": "ym2612"
    },
    {
      "channel": 2,
      "note": 72,
      "start": 40.5608,
      "duration": 0.2641,
      "velocity": 120,
      "chip": "ym2612"
    },
    {
      "channel": 0,
      "note": 78,
      "start": 40.691,
      "duration": 0.2719,
      "velocity": 86,
      "chip": "ym2612"
    },
    {
      "channel": 1,
      "note": 61,
      "start": 40.6918,
      "duration": 0.272,
      "velocity": 86,
      "chip": "ym2612"
    },
    {
      "channel": 3,
      "note": 59,
      "start": 40.6924,
      "duration": 0.2718,
      "velocity": 96,
      "chip": "ym2612"
    },
    {
      "channel": 4,
      "note": 49,
      "start": 40.6932,
      "duration": 0.272,
      "velocity": 91,
      "chip": "ym2612"
    },
    {
      "channel": 5,
      "note": 78,
      "start": 40.7374,
      "duration": 0.2685,
      "velocity": 102,
      "chip": "ym2612"
    },
    {
      "channel": 2,
      "note": 72,
      "start": 40.8303,
      "duration": 0.1296,
      "velocity": 120,
      "chip": "ym2612"
    },
    {
      "channel": 0,
      "note": 83,
      "start": 40.9635,
      "duration": 0.5384,
      "velocity": 86,
      "chip": "ym2612"
    },
    {
      "channel": 3,
      "note": 59,
      "start": 40.9648,
      "duration": 0.2677,
      "velocity": 96,
      "chip": "ym2612"
    },
    {
      "channel": 4,
      "note": 59,
      "start": 40.9657,
      "duration": 0.2674,
      "velocity": 91,
      "chip": "ym2612"
    },
    {
      "channel": 2,
      "note": 36,
      "start": 40.9675,
      "duration": 0.1736,
      "velocity": 127,
      "chip": "ym2612"
    },
    {
      "channel": 5,
      "note": 83,
      "start": 41.0066,
      "duration": 0.5379,
      "velocity": 102,
      "chip": "ym2612"
    },
    {
      "channel": 3,
      "note": 59,
      "start": 41.2329,
      "duration": 0.2698,
      "velocity": 96,
      "chip": "ym2612"
    },
    {
      "channel": 4,
      "note": 54,
      "start": 41.2341,
      "duration": 0.269,
      "velocity": 91,
      "chip": "ym2612"
    },
    {
      "channel": 2,
      "note": 72,
      "start": 41.2353,
      "duration": 0.2634,
      "velocity": 120,
      "chip": "ym2612"
    },
    {
      "channel": 0,
      "note": 90,
      "start": 41.5025,
      "duration": 0.538,
      "velocity": 86,
      "chip": "ym2612"
    },
    {
      "channel": 4,
      "note": 55,
      "start": 41.5037,
      "duration": 0.2683,
      "velocity": 91,
      "chip": "ym2612"
    },
    {
      "channel": 2,
      "note": 36,
      "start": 41.505,
      "duration": 0.1751,
      "velocity": 127,
      "chip": "ym2612"
    },
    {
      "channel": 5,
      "note": 90,
      "start": 41.5452,
      "duration": 0.5388,
      "velocity": 102,
      "chip": "ym2612"
    },
    {
      "channel": 3,
      "note": 59,
      "start": 41.635,
      "duration": 0.2685,
      "velocity": 96,
      "chip": "ym2612"
    },
    {
      "channel": 4,
      "note": 57,
      "start": 41.7725,
      "duration": 0.1316,
      "velocity": 91,
      "chip": "ym2612"
    },
    {
      "channel": 2,
      "note": 72,
      "start": 41.7737,
      "duration": 0.264,
      "velocity": 120,
      "chip": "ym2612"
    },
    {
      "channel": 3,
      "note": 59,
      "start": 41.904,
      "duration": 0.1375,
      "velocity": 96,
      "chip": "ym2612"
    },
    {
      "channel": 4,
      "note": 59,
      "start": 41.9047,
      "duration": 0.269,
      "velocity": 91,
      "chip": "ym2612"
    },
    {
      "channel": 0,
      "note": 90,
      "start": 42.0412,
      "duration": 0.8051,
      "velocity": 86,
      "chip": "ym2612"
    },
    {
      "channel": 2,
      "note": 36,
      "start": 42.0432,
      "duration": 0.1761,
      "velocity": 127,
      "chip": "ym2612"
    },
    {
      "channel": 5,
      "note": 90,
      "start": 42.0846,
      "duration": 0.8081,
      "velocity": 102,
      "chip": "ym2612"
    },
    {
      "channel": 3,
      "note": 59,
      "start": 42.1736,
      "duration": 0.269,
      "velocity": 96,
      "chip": "ym2612"
    },
    {
      "channel": 4,
      "note": 59,
      "start": 42.1741,
      "duration": 0.1368,
      "velocity": 91,
      "chip": "ym2612"
    },
    {
      "channel": 4,
      "note": 54,
      "start": 42.3115,
      "duration": 0.2698,
      "velocity": 91,
      "chip": "ym2612"
    },
    {
      "channel": 2,
      "note": 72,
      "start": 42.3127,
      "duration": 0.2639,
      "velocity": 120,
      "chip": "ym2612"
    },
    {
      "channel": 3,
      "note": 59,
      "start": 42.443,
      "duration": 0.1378,
      "velocity": 96,
      "chip": "ym2612"
    },
    {
      "channel": 1,
      "note": 78,
      "start": 42.5806,
      "duration": 0.5395,
      "velocity": 86,
      "chip": "ym2612"
    },
    {
      "channel": 3,
      "note": 59,
      "start": 42.5812,
      "duration": 0.2663,
      "velocity": 96,
      "chip": "ym2612"
    },
    {
      "channel": 4,
      "note": 55,
      "start": 42.5819,
      "duration": 0.2663,
      "velocity": 91,
      "chip": "ym2612"
    },
    {
      "channel": 2,
      "note": 36,
      "start": 42.5832,
      "duration": 0.1282,
      "velocity": 127,
      "chip": "ym2612"
    },
    {
      "channel": 2,
      "note": 72,
      "start": 42.7174,
      "duration": 0.2636,
      "velocity": 120,
      "chip": "ym2612"
    },
    {
      "channel": 0,
      "note": 88,
      "start": 42.847,
      "duration": 0.1371,
      "velocity": 86,
      "chip": "ym2612"
    },
    {
      "channel": 3,
      "note": 59,
      "start": 42.848,
      "duration": 0.273,
      "velocity": 96,
      "chip": "ym2612"
    },
    {
      "channel": 4,
      "note": 57,
      "start": 42.8488,
      "duration": 0.2733,
      "velocity": 91,
      "chip": "ym2612"
    },
    {
      "channel": 5,
      "note": 88,
      "start": 42.8934,
      "duration": 0.134,
      "velocity": 102,
      "chip": "ym2612"
    },
    {
      "channel": 0,
      "note": 90,
      "start": 42.9848,
      "duration": 0.1344,
      "velocity": 86,
      "chip": "ym2612"
    },
    {
      "channel": 2,
      "note": 72,
      "start": 42.9871,
      "duration": 0.1288,
      "velocity": 120,
      "chip": "ym2612"
    },
    {
      "channel": 5,
      "note": 90,
      "start": 43.0281,
      "duration": 0.134,
      "velocity": 102,
      "chip": "ym2612"
    },
    {
      "channel": 0,
      "note": 85,
      "start": 43.1199,
      "duration": 0.8072,
      "velocity": 86,
      "chip": "ym2612"
    },
    {
      "channel": 1,
      "note": 83,
      "start": 43.1208,
      "duration": 0.5371,
      "velocity": 86,
      "chip": "ym2612"
    },
    {
      "channel": 3,
      "note": 59,
      "start": 43.1217,
      "duration": 0.2672,
      "velocity": 96,
      "chip": "ym2612"
    },
    {
      "channel": 4,
      "note": 59,
      "start": 43.1227,
      "duration": 0.2668,
      "velocity": 91,
      "chip": "ym2612"
    },
    {
      "channel": 2,
      "note": 36,
      "start": 43.1239,
      "duration": 0.1736,
      "velocity": 127,
      "chip": "ym2612"
    },
    {
      "channel": 5,
      "note": 85,
      "start": 43.1628,
      "duration": 0.8079,
      "velocity": 102,
      "chip": "ym2612"
    },
    {
      "channel": 3,
      "note": 59,
      "start": 43.3893,
      "duration": 0.2695,
      "velocity": 96,
      "chip": "ym2612"
    },
    {
      "channel": 4,
      "note": 54,
      "start": 43.3901,
      "duration": 0.269,
      "velocity": 91,
      "chip": "ym2612"
    },
    {
      "channel": 2,
      "note": 72,
      "start": 43.3913,
      "duration": 0.2634,
      "velocity": 120,
      "chip": "ym2612"
    },
    {
      "channel": 1,
      "note": 90,
      "start": 43.6586,
      "duration": 0.5388,
      "velocity": 86,
      "chip": "ym2612"
    },
    {
      "channel": 4,
      "note": 55,
      "start": 43.6597,
      "duration": 0.2689,
      "velocity": 91,
      "chip": "ym2612"
    },
    {
      "channel": 2,
      "note": 36,
      "start": 43.661,
      "duration": 0.1756,
      "velocity": 127,
      "chip": "ym2612"
    },
    {
      "channel": 3,
      "note": 59,
      "start": 43.7911,
      "duration": 0.2693,
      "velocity": 96,
      "chip": "ym2612"
    },
    {
      "channel": 0,
      "note": 85,
      "start": 43.9276,
      "duration": 0.1315,
      "velocity": 86,
      "chip": "ym2612"
    },
    {
      "channel": 4,
      "note": 57,
      "start": 43.9292,
      "duration": 0.1317,
      "velocity": 91,
      "chip": "ym2612"
    },
    {
      "channel": 2,
      "note": 72,
      "start": 43.9304,
      "duration": 0.2634,
      "velocity": 120,
      "chip": "ym2612"
    },
    {
      "channel": 5,
      "note": 85,
      "start": 43.9713,
      "duration": 0.1342,
      "velocity": 102,
      "chip": "ym2612"
    },
    {
      "channel": 0,
      "note": 86,
      "start": 44.0597,
      "duration": 0.1368,
      "velocity": 86,
      "chip": "ym2612"
    },
    {
      "channel": 3,
      "note": 59,
      "start": 44.0608,
      "duration": 0.1375,
      "velocity": 96,
      "chip": "ym2612"
    },
    {
      "channel": 4,
      "note": 59,
      "start": 44.0615,
      "duration": 0.2686,
      "velocity": 91,
      "chip": "ym2612"
    },
    {
      "channel": 5,
      "note": 86,
      "start": 44.1062,
      "duration": 0.1339,
      "velocity": 102,
      "chip": "ym2612"
    },
    {
      "channel": 0,
      "note": 83,
      "start": 44.1972,
      "duration": 0.5387,
      "velocity": 86,
      "chip": "ym2612"
    },
    {
      "channel": 1,
      "note": 90,
      "start": 44.1981,
      "duration": 0.8046,
      "velocity": 86,
      "chip": "ym2612"
    },
    {
      "channel": 2,
      "note": 36,
      "start": 44.2,
      "duration": 0.1756,
      "velocity": 127,
      "chip": "ym2612"
    },
    {
      "channel": 5,
      "note": 83,
      "start": 44.2407,
      "duration": 0.5384,
      "velocity": 102,
      "chip": "ym2612"
    },
    {
      "channel": 3,
      "note": 59,
      "start": 44.33,
      "duration": 0.2689,
      "velocity": 96,
      "chip": "ym2612"
    },
    {
      "channel": 4,
      "note": 59,
      "start": 44.3306,
      "duration": 0.1371,
      "velocity": 91,
      "chip": "ym2612"
    },
    {
      "channel": 4,
      "note": 54,
      "start": 44.4683,
      "duration": 0.2695,
      "velocity": 91,
      "chip": "ym2612"
    },
    {
      "channel": 2,
      "note": 72,
      "start": 44.4695,
      "duration": 0.2632,
      "velocity": 120,
      "chip": "ym2612"
    },
    {
      "channel": 3,
      "note": 59,
      "start": 44.5994,
      "duration": 0.1378,
      "velocity": 96,
      "chip": "ym2612"
    },
    {
      "channel": 0,
      "note": 90,
      "start": 44.7366,
      "duration": 0.5383,
      "velocity": 86,
      "chip": "ym2612"
    },
    {
      "channel": 3,
      "note": 59,
      "start": 44.7377,
      "duration": 0.2659,
      "velocity": 96,
      "chip": "ym2612"
    },
    {
      "channel": 4,
      "note": 55,
      "start": 44.7384,
      "duration": 0.2658,
      "velocity": 91,
      "chip": "ym2612"
    },
    {
      "channel": 2,
      "note": 36,
      "start": 44.7397,
      "duration": 0.1279,
      "velocity": 127,
      "chip": "ym2612"
    },
    {
      "channel": 5,
      "note": 90,
      "start": 44.7799,
      "duration": 0.5387,
      "velocity": 102,
      "chip": "ym2612"
    },
    {
      "channel": 2,
      "note": 72,
      "start": 44.873,
      "duration": 0.264,
      "velocity": 120,
      "chip": "ym2612"
    },
    {
      "channel": 1,
      "note": 88,
      "start": 45.0035,
      "duration": 0.1368,
      "velocity": 86,
      "chip": "ym2612"
    },
    {
      "channel": 3,
      "note": 59,
      "start": 45.004,
      "duration": 0.2727,
      "velocity": 96,
      "chip": "ym2612"
    },
    {
      "channel": 4,
      "note": 57,
      "start": 45.0048,
      "duration": 0.2729,
      "velocity": 91,
      "chip": "ym2612"
    },
    {
      "channel": 1,
      "note": 90,
      "start": 45.1409,
      "duration": 0.1348,
      "velocity": 86,
      "chip": "ym2612"
    },
    {
      "channel": 2,
      "note": 72,
      "start": 45.1428,
      "duration": 0.1293,
      "velocity": 120,
      "chip": "ym2612"
    },
    {
      "channel": 0,
      "note": 88,
      "start": 45.2756,
      "duration": 0.131,
      "velocity": 86,
      "chip": "ym2612"
    },
    {
      "channel": 1,
      "note": 85,
      "start": 45.2764,
      "duration": 0.8079,
      "velocity": 86,
      "chip": "ym2612"
    },
    {
      "channel": 3,
      "note": 59,
      "start": 45.2773,
      "duration": 0.2681,
      "velocity": 96,
      "chip": "ym2612"
    },
    {
      "channel": 4,
      "note": 59,
      "start": 45.2783,
      "duration": 0.2678,
      "velocity": 91,
      "chip": "ym2612"
    },
    {
      "channel": 2,
      "note": 36,
      "start": 45.2796,
      "duration": 0.1744,
      "velocity": 127,
      "chip": "ym2612"
    },
    {
      "channel": 5,
      "note": 88,
      "start": 45.3193,
      "duration": 0.1339,
      "velocity": 102,
      "chip": "ym2612"
    },
    {
      "channel": 0,
      "note": 90,
      "start": 45.4072,
      "duration": 0.1369,
      "velocity": 86,
      "chip": "ym2612"
    },
    {
      "channel": 5,
      "note": 90,
      "start": 45.4539,
      "duration": 0.1339,
      "velocity": 102,
      "chip": "ym2612"
    },
    {
      "channel": 0,
      "note": 91,
      "start": 45.5447,
      "duration": 0.5383,
      "velocity": 86,
      "chip": "ym2612"
    },
    {
      "channel": 3,
      "note": 59,
      "start": 45.5458,
      "duration": 0.2686,
      "velocity": 96,
      "chip": "ym2612"
    },
    {
      "channel": 4,
      "note": 54,
      "start": 45.5466,
      "duration": 0.2682,
      "velocity": 91,
      "chip": "ym2612"
    },
    {
      "channel": 2,
      "note": 72,
      "start": 45.5477,
      "duration": 0.263,
      "velocity": 120,
      "chip": "ym2612"
    },
    {
      "channel": 5,
      "note": 91,
      "start": 45.5885,
      "duration": 0.5382,
      "velocity": 102,
      "chip": "ym2612"
    },
    {
      "channel": 4,
      "note": 55,
      "start": 45.8154,
      "duration": 0.27,
      "velocity": 91,
      "chip": "ym2612"
    },
    {
      "channel": 2,
      "note": 36,
      "start": 45.8166,
      "duration": 0.1759,
      "velocity": 127,
      "chip": "ym2612"
    },
    {
      "channel": 3,
      "note": 59,
      "start": 45.9471,
      "duration": 0.2692,
      "velocity": 96,
      "chip": "ym2612"
    },
    {
      "channel": 0,
      "note": 93,
      "start": 46.0842,
      "duration": 0.2688,
      "velocity": 86,
      "chip": "ym2612"
    },
    {
      "channel": 1,
      "note": 85,
      "start": 46.0848,
      "duration": 0.1307,
      "velocity": 86,
      "chip": "ym2612"
    },
    {
      "channel": 4,
      "note": 57,
      "start": 46.086,
      "duration": 0.1314,
      "velocity": 91,
      "chip": "ym2612"
    },
    {
      "channel": 2,
      "note": 72,
      "start": 46.0872,
      "duration": 0.2626,
      "velocity": 120,
      "chip": "ym2612"
    },
    {
      "channel": 5,
      "note": 93,
      "start": 46.1273,
      "duration": 0.2685,
      "velocity": 102,
      "chip": "ym2612"
    },
    {
      "channel": 1,
      "note": 86,
      "start": 46.2162,
      "duration": 0.1377,
      "velocity": 86,
      "chip": "ym2612"
    },
    {
      "channel": 3,
      "note": 59,
      "start": 46.2171,
      "duration": 0.1375,
      "velocity": 96,
      "chip": "ym2612"
    },
    {
      "channel": 4,
      "note": 59,
      "start": 46.2179,
      "duration": 0.2684,
      "velocity": 91,
      "chip": "ym2612"
    },
    {
      "channel": 0,
      "note": 90,
      "start": 46.3537,
      "duration": 0.5379,
      "velocity": 86,
      "chip": "ym2612"
    },
    {
      "channel": 1,
      "note": 83,
      "start": 46.3545,
      "duration": 0.5377,
      "velocity": 86,
      "chip": "ym2612"
    },
    {
      "channel": 2,
      "note": 36,
      "start": 46.3565,
      "duration": 0.1751,
      "velocity": 127,
      "chip": "ym2612"
    },
    {
      "channel": 5,
      "note": 90,
      "start": 46.3965,
      "duration": 0.5391,
      "velocity": 102,
      "chip": "ym2612"
    },
    {
      "channel": 3,
      "note": 59,
      "start": 46.4861,
      "duration": 0.2689,
      "velocity": 96,
      "chip": "ym2612"
    },
    {
      "channel": 4,
      "note": 59,
      "start": 46.4867,
      "duration": 0.1366,
      "velocity": 91,
      "chip": "ym2612"
    },
    {
      "channel": 4,
      "note": 54,
      "start": 46.6239,
      "duration": 0.2697,
      "velocity": 91,
      "chip": "ym2612"
    },
    {
      "channel": 2,
      "note": 72,
      "start": 46.6251,
      "duration": 0.2636,
      "velocity": 120,
      "chip": "ym2612"
    },
    {
      "channel": 3,
      "note": 59,
      "start": 46.7554,
      "duration": 0.1377,
      "velocity": 96,
      "chip": "ym2612"
    },
    {
      "channel": 0,
      "note": 90,
      "start": 46.8921,
      "duration": 0.5388,
      "velocity": 86,
      "chip": "ym2612"
    },
    {
      "channel": 1,
      "note": 90,
      "start": 46.8929,
      "duration": 0.5388,
      "velocity": 86,
      "chip": "ym2612"
    },
    {
      "channel": 3,
      "note": 59,
      "start": 46.8935,
      "duration": 0.2658,
      "velocity": 96,
      "chip": "ym2612"
    },
    {
      "channel": 4,
      "note": 55,
      "start": 46.8942,
      "duration": 0.2656,
      "velocity": 91,
      "chip": "ym2612"
    },
    {
      "channel": 2,
      "note": 36,
      "start": 46.8956,
      "duration": 0.1279,
      "velocity": 127,
      "chip": "ym2612"
    },
    {
      "channel": 5,
      "note": 90,
      "start": 46.9362,
      "duration": 0.538,
      "velocity": 102,
      "chip": "ym2612"
    },
    {
      "channel": 2,
      "note": 72,
      "start": 47.0289,
      "duration": 0.2642,
      "velocity": 120,
      "chip": "ym2612"
    },
    {
      "channel": 3,
      "note": 59,
      "start": 47.1598,
      "duration": 0.2728,
      "velocity": 96,
      "chip": "ym2612"
    },
    {
      "channel": 4,
      "note": 57,
      "start": 47.1605,
      "duration": 0.2736,
      "velocity": 91,
      "chip": "ym2612"
    },
    {
      "channel": 2,
      "note": 72,
      "start": 47.2986,
      "duration": 0.1295,
      "velocity": 120,
      "chip": "ym2612"
    },
    {
      "channel": 0,
      "note": 88,
      "start": 47.4315,
      "duration": 0.131,
      "velocity": 86,
      "chip": "ym2612"
    },
    {
      "channel": 1,
      "note": 88,
      "start": 47.4324,
      "duration": 0.131,
      "velocity": 86,
      "chip": "ym2612"
    },
    {
      "channel": 3,
      "note": 59,
      "start": 47.4332,
      "duration": 0.269,
      "velocity": 96,
      "chip": "ym2612"
    },
    {
      "channel": 4,
      "note": 59,
      "start": 47.4347,
      "duration": 0.2681,
      "velocity": 91,
      "chip": "ym2612"
    },
    {
      "channel": 2,
      "note": 36,
      "start": 47.436,
      "duration": 0.1738,
      "velocity": 127,
      "chip": "ym2612"
    },
    {
      "channel": 5,
      "note": 88,
      "start": 47.4749,
      "duration": 0.134,
      "velocity": 102,
      "chip": "ym2612"
    },
    {
      "channel": 0,
      "note": 90,
      "start": 47.5633,
      "duration": 0.1373,
      "velocity": 86,
      "chip": "ym2612"
    },
    {
      "channel": 1,
      "note": 90,
      "start": 47.5641,
      "duration": 0.1373,
      "velocity": 86,
      "chip": "ym2612"
    },
    {
      "channel": 5,
      "note": 90,
      "start": 47.6096,
      "duration": 0.1341,
      "velocity": 102,
      "chip": "ym2612"
    },
    {
      "channel": 0,
      "note": 91,
      "start": 47.7012,
      "duration": 0.5378,
      "velocity": 86,
      "chip": "ym2612"
    },
    {
      "channel": 1,
      "note": 91,
      "start": 47.7021,
      "duration": 0.5378,
      "velocity": 86,
      "chip": "ym2612"
    },
    {
      "channel": 3,
      "note": 59,
      "start": 47.7027,
      "duration": 0.2683,
      "velocity": 96,
      "chip": "ym2612"
    },
    {
      "channel": 4,
      "note": 54,
      "start": 47.7034,
      "duration": 0.2679,
      "velocity": 91,
      "chip": "ym2612"
    },
    {
      "channel": 2,
      "note": 72,
      "start": 47.7045,
      "duration": 0.2627,
      "velocity": 120,
      "chip": "ym2612"
    },
    {
      "channel": 5,
      "note": 91,
      "start": 47.7444,
      "duration": 0.5383,
      "velocity": 102,
      "chip": "ym2612"
    },
    {
      "channel": 4,
      "note": 55,
      "start": 47.9719,
      "duration": 0.2692,
      "velocity": 91,
      "chip": "ym2612"
    },
    {
      "channel": 2,
      "note": 36,
      "start": 47.9732,
      "duration": 0.1754,
      "velocity": 127,
      "chip": "ym2612"
    },
    {
      "channel": 3,
      "note": 59,
      "start": 48.1032,
      "duration": 0.2688,
      "velocity": 96,
      "chip": "ym2612"
    },
    {
      "channel": 0,
      "note": 88,
      "start": 48.2397,
      "duration": 0.269,
      "velocity": 86,
      "chip": "ym2612"
    },
    {
      "channel": 1,
      "note": 93,
      "start": 48.2406,
      "duration": 0.2689,
      "velocity": 86,
      "chip": "ym2612"
    },
    {
      "channel": 4,
      "note": 57,
      "start": 48.2417,
      "duration": 0.1308,
      "velocity": 91,
      "chip": "ym2612"
    },
    {
      "channel": 2,
      "note": 72,
      "start": 48.2429,
      "duration": 0.263,
      "velocity": 120,
      "chip": "ym2612"
    },
    {
      "channel": 5,
      "note": 88,
      "start": 48.2834,
      "duration": 0.2688,
      "velocity": 102,
      "chip": "ym2612"
    },
    {
      "channel": 3,
      "note": 59,
      "start": 48.3724,
      "duration": 0.1379,
      "velocity": 96,
      "chip": "ym2612"
    },
    {
      "channel": 4,
      "note": 59,
      "start": 48.3732,
      "duration": 0.2691,
      "velocity": 91,
      "chip": "ym2612"
    },
    {
      "channel": 0,
      "note": 90,
      "start": 48.5093,
      "duration": 0.5384,
      "velocity": 86,
      "chip": "ym2612"
    },
    {
      "channel": 1,
      "note": 90,
      "start": 48.5102,
      "duration": 0.5384,
      "velocity": 86,
      "chip": "ym2612"
    },
    {
      "channel": 2,
      "note": 36,
      "start": 48.5121,
      "duration": 0.1755,
      "velocity": 127,
      "chip": "ym2612"
    },
    {
      "channel": 5,
      "note": 90,
      "start": 48.5529,
      "duration": 0.5388,
      "velocity": 102,
      "chip": "ym2612"
    },
    {
      "channel": 3,
      "note": 59,
      "start": 48.6421,
      "duration": 0.2691,
      "velocity": 96,
      "chip": "ym2612"
    },
    {
      "channel": 4,
      "note": 59,
      "start": 48.6427,
      "duration": 0.1366,
      "velocity": 91,
      "chip": "ym2612"
    },
    {
      "channel": 4,
      "note": 54,
      "start": 48.7799,
      "duration": 0.2699,
      "velocity": 91,
      "chip": "ym2612"
    },
    {
      "channel": 2,
      "note": 72,
      "start": 48.7811,
      "duration": 0.2637,
      "velocity": 120,
      "chip": "ym2612"
    },
    {
      "channel": 3,
      "note": 59,
      "start": 48.9117,
      "duration": 0.1376,
      "velocity": 96,
      "chip": "ym2612"
    },
    {
      "channel": 0,
      "note": 78,
      "start": 49.0484,
      "duration": 0.539,
      "velocity": 86,
      "chip": "ym2612"
    },
    {
      "channel": 1,
      "note": 90,
      "start": 49.0491,
      "duration": 0.5393,
      "velocity": 86,
      "chip": "ym2612"
    },
    {
      "channel": 3,
      "note": 59,
      "start": 49.0497,
      "duration": 0.2656,
      "velocity": 96,
      "chip": "ym2612"
    },
    {
      "channel": 4,
      "note": 55,
      "start": 49.0509,
      "duration": 0.265,
      "velocity": 91,
      "chip": "ym2612"
    },
    {
      "channel": 2,
      "note": 36,
      "start": 49.0521,
      "duration": 0.1275,
      "velocity": 127,
      "chip": "ym2612"
    },
    {
      "channel": 5,
      "note": 78,
      "start": 49.0924,
      "duration": 0.5379,
      "velocity": 102,
      "chip": "ym2612"
    },
    {
      "channel": 2,
      "note": 72,
      "start": 49.1854,
      "duration": 0.2637,
      "velocity": 120,
      "chip": "ym2612"
    },
    {
      "channel": 3,
      "note": 59,
      "start": 49.3157,
      "duration": 0.2735,
      "velocity": 96,
      "chip": "ym2612"
    },
    {
      "channel": 4,
      "note": 57,
      "start": 49.3164,
      "duration": 0.2739,
      "velocity": 91,
      "chip": "ym2612"
    },
    {
      "channel": 2,
      "note": 72,
      "start": 49.455,
      "duration": 0.1296,
      "velocity": 120,
      "chip": "ym2612"
    },
    {
      "channel": 0,
      "note": 83,
      "start": 49.5881,
      "duration": 0.5377,
      "velocity": 86,
      "chip": "ym2612"
    },
    {
      "channel": 1,
      "note": 88,
      "start": 49.5891,
      "duration": 0.13,
      "velocity": 86,
      "chip": "ym2612"
    },
    {
      "channel": 3,
      "note": 59,
      "start": 49.5899,
      "duration": 0.2675,
      "velocity": 96,
      "chip": "ym2612"
    },
    {
      "channel": 4,
      "note": 59,
      "start": 49.5909,
      "duration": 0.2671,
      "velocity": 91,
      "chip": "ym2612"
    },
    {
      "channel": 2,
      "note": 36,
      "start": 49.5923,
      "duration": 0.1734,
      "velocity": 127,
      "chip": "ym2612"
    },
    {
      "channel": 5,
      "note": 83,
      "start": 49.631,
      "duration": 0.538,
      "velocity": 102,
      "chip": "ym2612"
    },
    {
      "channel": 1,
      "note": 90,
      "start": 49.7197,
      "duration": 0.1369,
      "velocity": 86,
      "chip": "ym2612"
    },
    {
      "channel": 1,
      "note": 91,
      "start": 49.8573,
      "duration": 0.5383,
      "velocity": 86,
      "chip": "ym2612"
    },
    {
      "channel": 3,
      "note": 59,
      "start": 49.8578,
      "duration": 0.2693,
      "velocity": 96,
      "chip": "ym2612"
    },
    {
      "channel": 4,
      "note": 54,
      "start": 49.8585,
      "duration": 0.2689,
      "velocity": 91,
      "chip": "ym2612"
    },
    {
      "channel": 2,
      "note": 72,
      "start": 49.8598,
      "duration": 0.2633,
      "velocity": 120,
      "chip": "ym2612"
    },
    {
      "channel": 0,
      "note": 90,
      "start": 50.1265,
      "duration": 0.5381,
      "velocity": 86,
      "chip": "ym2612"
    },
    {
      "channel": 4,
      "note": 55,
      "start": 50.128,
      "duration": 0.2688,
      "velocity": 91,
      "chip": "ym2612"
    },
    {
      "channel": 2,
      "note": 36,
      "start": 50.1294,
      "duration": 0.1752,
      "velocity": 127,
      "chip": "ym2612"
    },
    {
      "channel": 5,
      "note": 90,
      "start": 50.1698,
      "duration": 0.5382,
      "velocity": 102,
      "chip": "ym2612"
    },
    {
      "channel": 3,
      "note": 59,
      "start": 50.2591,
      "duration": 0.2688,
      "velocity": 96,
      "chip": "ym2612"
    },
    {
      "channel": 1,
      "note": 88,
      "start": 50.3963,
      "duration": 0.2691,
      "velocity": 86,
      "chip": "ym2612"
    },
    {
      "channel": 4,
      "note": 57,
      "start": 50.3973,
      "duration": 0.1312,
      "velocity": 91,
      "chip": "ym2612"
    },
    {
      "channel": 2,
      "note": 72,
      "start": 50.3986,
      "duration": 0.2632,
      "velocity": 120,
      "chip": "ym2612"
    },
    {
      "channel": 3,
      "note": 59,
      "start": 50.5284,
      "duration": 0.1379,
      "velocity": 96,
      "chip": "ym2612"
    },
    {
      "channel": 4,
      "note": 59,
      "start": 50.5292,
      "duration": 0.2692,
      "velocity": 91,
      "chip": "ym2612"
    },
    {
      "channel": 0,
      "note": 90,
      "start": 50.6653,
      "duration": 0.8051,
      "velocity": 86,
      "chip": "ym2612"
    },
    {
      "channel": 1,
      "note": 90,
      "start": 50.6661,
      "duration": 0.538,
      "velocity": 86,
      "chip": "ym2612"
    },
    {
      "channel": 2,
      "note": 36,
      "start": 50.6685,
      "duration": 0.1751,
      "velocity": 127,
      "chip": "ym2612"
    },
    {
      "channel": 5,
      "note": 90,
      "start": 50.7086,
      "duration": 0.8086,
      "velocity": 102,
      "chip": "ym2612"
    },
    {
      "channel": 3,
      "note": 59,
      "start": 50.7981,
      "duration": 0.2693,
      "velocity": 96,
      "chip": "ym2612"
    },
    {
      "channel": 4,
      "note": 59,
      "start": 50.7988,
      "duration": 0.1371,
      "velocity": 91,
      "chip": "ym2612"
    },
    {
      "channel": 4,
      "note": 54,
      "start": 50.9364,
      "duration": 0.2691,
      "velocity": 91,
      "chip": "ym2612"
    },
    {
      "channel": 2,
      "note": 72,
      "start": 50.9376,
      "duration": 0.2633,
      "velocity": 120,
      "chip": "ym2612"
    },
    {
      "channel": 3,
      "note": 59,
      "start": 51.0679,
      "duration": 0.1371,
      "velocity": 96,
      "chip": "ym2612"
    },
    {
      "channel": 1,
      "note": 78,
      "start": 51.2049,
      "duration": 0.539,
      "velocity": 86,
      "chip": "ym2612"
    },
    {
      "channel": 3,
      "note": 59,
      "start": 51.2054,
      "duration": 0.2663,
      "velocity": 96,
      "chip": "ym2612"
    },
    {
      "channel": 4,
      "note": 55,
      "start": 51.2061,
      "duration": 0.2661,
      "velocity": 91,
      "chip": "ym2612"
    },
    {
      "channel": 2,
      "note": 36,
      "start": 51.2075,
      "duration": 0.1284,
      "velocity": 127,
      "chip": "ym2612"
    },
    {
      "channel": 2,
      "note": 72,
      "start": 51.3414,
      "duration": 0.2637,
      "velocity": 120,
      "chip": "ym2612"
    },
    {
      "channel": 0,
      "note": 88,
      "start": 51.4711,
      "duration": 0.1368,
      "velocity": 86,
      "chip": "ym2612"
    },
    {
      "channel": 3,
      "note": 59,
      "start": 51.4722,
      "duration": 0.2726,
      "velocity": 96,
      "chip": "ym2612"
    },
    {
      "channel": 4,
      "note": 57,
      "start": 51.4729,
      "duration": 0.273,
      "velocity": 91,
      "chip": "ym2612"
    },
    {
      "channel": 5,
      "note": 88,
      "start": 51.5179,
      "duration": 0.134,
      "velocity": 102,
      "chip": "ym2612"
    },
    {
      "channel": 0,
      "note": 90,
      "start": 51.6085,
      "duration": 0.1344,
      "velocity": 86,
      "chip": "ym2612"
    },
    {
      "channel": 2,
      "note": 72,
      "start": 51.6108,
      "duration": 0.1293,
      "velocity": 120,
      "chip": "ym2612"
    },
    {
      "channel": 5,
      "note": 90,
      "start": 51.6526,
      "duration": 0.1337,
      "velocity": 102,
      "chip": "ym2612"
    },
    {
      "channel": 0,
      "note": 85,
      "start": 51.7437,
      "duration": 0.8083,
      "velocity": 86,
      "chip": "ym2612"
    },
    {
      "channel": 1,
      "note": 83,
      "start": 51.7446,
      "duration": 0.5375,
      "velocity": 86,
      "chip": "ym2612"
    },
    {
      "channel": 3,
      "note": 59,
      "start": 51.7454,
      "duration": 0.2677,
      "velocity": 96,
      "chip": "ym2612"
    },
    {
      "channel": 4,
      "note": 59,
      "start": 51.7465,
      "duration": 0.2672,
      "velocity": 91,
      "chip": "ym2612"
    },
    {
      "channel": 2,
      "note": 36,
      "start": 51.7477,
      "duration": 0.174,
      "velocity": 127,
      "chip": "ym2612"
    },
    {
      "channel": 5,
      "note": 85,
      "start": 51.787,
      "duration": 0.8078,
      "velocity": 102,
      "chip": "ym2612"
    },
    {
      "channel": 3,
      "note": 59,
      "start": 52.0136,
      "duration": 0.2694,
      "velocity": 96,
      "chip": "ym2612"
    },
    {
      "channel": 4,
      "note": 54,
      "start": 52.0143,
      "duration": 0.269,
      "velocity": 91,
      "chip": "ym2612"
    },
    {
      "channel": 2,
      "note": 72,
      "start": 52.0155,
      "duration": 0.2634,
      "velocity": 120,
      "chip": "ym2612"
    },
    {
      "channel": 1,
      "note": 90,
      "start": 52.2828,
      "duration": 0.5387,
      "velocity": 86,
      "chip": "ym2612"
    },
    {
      "channel": 4,
      "note": 55,
      "start": 52.2843,
      "duration": 0.2691,
      "velocity": 91,
      "chip": "ym2612"
    },
    {
      "channel": 2,
      "note": 36,
      "start": 52.2856,
      "duration": 0.1751,
      "velocity": 127,
      "chip": "ym2612"
    },
    {
      "channel": 3,
      "note": 59,
      "start": 52.4152,
      "duration": 0.2697,
      "velocity": 96,
      "chip": "ym2612"
    },
    {
      "channel": 0,
      "note": 85,
      "start": 52.5524,
      "duration": 0.1307,
      "velocity": 86,
      "chip": "ym2612"
    },
    {
      "channel": 4,
      "note": 57,
      "start": 52.554,
      "duration": 0.1314,
      "velocity": 91,
      "chip": "ym2612"
    },
    {
      "channel": 2,
      "note": 72,
      "start": 52.5552,
      "duration": 0.2626,
      "velocity": 120,
      "chip": "ym2612"
    },
    {
      "channel": 5,
      "note": 85,
      "start": 52.5953,
      "duration": 0.1344,
      "velocity": 102,
      "chip": "ym2612"
    },
    {
      "channel": 0,
      "note": 86,
      "start": 52.6842,
      "duration": 0.1364,
      "velocity": 86,
      "chip": "ym2612"
    },
    {
      "channel": 3,
      "note": 59,
      "start": 52.6853,
      "duration": 0.137,
      "velocity": 96,
      "chip": "ym2612"
    },
    {
      "channel": 4,
      "note": 59,
      "start": 52.686,
      "duration": 0.2683,
      "velocity": 91,
      "chip": "ym2612"
    },
    {
      "channel": 5,
      "note": 86,
      "start": 52.7304,
      "duration": 0.1337,
      "velocity": 102,
      "chip": "ym2612"
    },
    {
      "channel": 0,
      "note": 83,
      "start": 52.8213,
      "duration": 0.5384,
      "velocity": 86,
      "chip": "ym2612"
    },
    {
      "channel": 1,
      "note": 90,
      "start": 52.8222,
      "duration": 0.8047,
      "velocity": 86,
      "chip": "ym2612"
    },
    {
      "channel": 2,
      "note": 36,
      "start": 52.824,
      "duration": 0.1757,
      "velocity": 127,
      "chip": "ym2612"
    },
    {
      "channel": 5,
      "note": 83,
      "start": 52.8647,
      "duration": 0.5386,
      "velocity": 102,
      "chip": "ym2612"
    },
    {
      "channel": 3,
      "note": 59,
      "start": 52.9542,
      "duration": 0.269,
      "velocity": 96,
      "chip": "ym2612"
    },
    {
      "channel": 4,
      "note": 59,
      "start": 52.9548,
      "duration": 0.1366,
      "velocity": 91,
      "chip": "ym2612"
    },
    {
      "channel": 4,
      "note": 54,
      "start": 53.092,
      "duration": 0.2696,
      "velocity": 91,
      "chip": "ym2612"
    },
    {
      "channel": 2,
      "note": 72,
      "start": 53.0932,
      "duration": 0.2637,
      "velocity": 120,
      "chip": "ym2612"
    },
    {
      "channel": 3,
      "note": 59,
      "start": 53.2236,
      "duration": 0.1374,
      "velocity": 96,
      "chip": "ym2612"
    },
    {
      "channel": 0,
      "note": 90,
      "start": 53.3604,
      "duration": 0.5386,
      "velocity": 86,
      "chip": "ym2612"
    },
    {
      "channel": 3,
      "note": 59,
      "start": 53.3614,
      "duration": 0.2663,
      "velocity": 96,
      "chip": "ym2612"
    },
    {
      "channel": 4,
      "note": 55,
      "start": 53.3622,
      "duration": 0.2662,
      "velocity": 91,
      "chip": "ym2612"
    },
    {
      "channel": 2,
      "note": 36,
      "start": 53.3634,
      "duration": 0.1283,
      "velocity": 127,
      "chip": "ym2612"
    },
    {
      "channel": 5,
      "note": 90,
      "start": 53.404,
      "duration": 0.5382,
      "velocity": 102,
      "chip": "ym2612"
    },
    {
      "channel": 2,
      "note": 72,
      "start": 53.4971,
      "duration": 0.2644,
      "velocity": 120,
      "chip": "ym2612"
    },
    {
      "channel": 1,
      "note": 88,
      "start": 53.6276,
      "duration": 0.1373,
      "velocity": 86,
      "chip": "ym2612"
    },
    {
      "channel": 3,
      "note": 59,
      "start": 53.6282,
      "duration": 0.273,
      "velocity": 96,
      "chip": "ym2612"
    },
    {
      "channel": 4,
      "note": 57,
      "start": 53.6289,
      "duration": 0.2733,
      "velocity": 91,
      "chip": "ym2612"
    },
    {
      "channel": 1,
      "note": 90,
      "start": 53.7655,
      "duration": 0.1344,
      "velocity": 86,
      "chip": "ym2612"
    },
    {
      "channel": 2,
      "note": 72,
      "start": 53.7678,
      "duration": 0.1284,
      "velocity": 120,
      "chip": "ym2612"
    },
    {
      "channel": 0,
      "note": 88,
      "start": 53.8997,
      "duration": 0.131,
      "velocity": 86,
      "chip": "ym2612"
    },
    {
      "channel": 1,
      "note": 85,
      "start": 53.901,
      "duration": 0.8071,
      "velocity": 86,
      "chip": "ym2612"
    },
    {
      "channel": 3,
      "note": 59,
      "start": 53.9018,
      "duration": 0.2681,
      "velocity": 96,
      "chip": "ym2612"
    },
    {
      "channel": 4,
      "note": 59,
      "start": 53.9028,
      "duration": 0.2677,
      "velocity": 91,
      "chip": "ym2612"
    },
    {
      "channel": 2,
      "note": 36,
      "start": 53.9042,
      "duration": 0.1739,
      "velocity": 127,
      "chip": "ym2612"
    },
    {
      "channel": 5,
      "note": 88,
      "start": 53.943,
      "duration": 0.1341,
      "velocity": 102,
      "chip": "ym2612"
    },
    {
      "channel": 0,
      "note": 90,
      "start": 54.0315,
      "duration": 0.1371,
      "velocity": 86,
      "chip": "ym2612"
    },
    {
      "channel": 5,
      "note": 90,
      "start": 54.0778,
      "duration": 0.1341,
      "velocity": 102,
      "chip": "ym2612"
    },
    {
      "channel": 0,
      "note": 91,
      "start": 54.1693,
      "duration": 0.538,
      "velocity": 86,
      "chip": "ym2612"
    },
    {
      "channel": 3,
      "note": 59,
      "start": 54.1703,
      "duration": 0.2683,
      "velocity": 96,
      "chip": "ym2612"
    },
    {
      "channel": 4,
      "note": 54,
      "start": 54.1711,
      "duration": 0.2679,
      "velocity": 91,
      "chip": "ym2612"
    },
    {
      "channel": 2,
      "note": 72,
      "start": 54.1722,
      "duration": 0.2627,
      "velocity": 120,
      "chip": "ym2612"
    },
    {
      "channel": 5,
      "note": 91,
      "start": 54.2126,
      "duration": 0.5387,
      "velocity": 102,
      "chip": "ym2612"
    },
    {
      "channel": 4,
      "note": 55,
      "start": 54.4395,
      "duration": 0.2695,
      "velocity": 91,
      "chip": "ym2612"
    },
    {
      "channel": 2,
      "note": 36,
      "start": 54.4408,
      "duration": 0.1763,
      "velocity": 127,
      "chip": "ym2612"
    },
    {
      "channel": 3,
      "note": 59,
      "start": 54.5712,
      "duration": 0.2693,
      "velocity": 96,
      "chip": "ym2612"
    },
    {
      "channel": 0,
      "note": 93,
      "start": 54.7079,
      "duration": 0.2688,
      "velocity": 86,
      "chip": "ym2612"
    },
    {
      "channel": 1,
      "note": 85,
      "start": 54.7085,
      "duration": 0.1311,
      "velocity": 86,
      "chip": "ym2612"
    },
    {
      "channel": 4,
      "note": 57,
      "start": 54.7097,
      "duration": 0.1314,
      "velocity": 91,
      "chip": "ym2612"
    },
    {
      "channel": 2,
      "note": 72,
      "start": 54.7109,
      "duration": 0.263,
      "velocity": 120,
      "chip": "ym2612"
    },
    {
      "channel": 5,
      "note": 93,
      "start": 54.752,
      "duration": 0.2681,
      "velocity": 102,
      "chip": "ym2612"
    },
    {
      "channel": 1,
      "note": 86,
      "start": 54.8404,
      "duration": 0.1373,
      "velocity": 86,
      "chip": "ym2612"
    },
    {
      "channel": 3,
      "note": 59,
      "start": 54.8409,
      "duration": 0.1375,
      "velocity": 96,
      "chip": "ym2612"
    },
    {
      "channel": 4,
      "note": 59,
      "start": 54.8417,
      "duration": 0.2686,
      "velocity": 91,
      "chip": "ym2612"
    },
    {
      "channel": 0,
      "note": 90,
      "start": 54.9774,
      "duration": 0.5382,
      "velocity": 86,
      "chip": "ym2612"
    },
    {
      "channel": 1,
      "note": 83,
      "start": 54.9783,
      "duration": 0.538,
      "velocity": 86,
      "chip": "ym2612"
    },
    {
      "channel": 2,
      "note": 36,
      "start": 54.9802,
      "duration": 0.1755,
      "velocity": 127,
      "chip": "ym2612"
    },
    {
      "channel": 5,
      "note": 90,
      "start": 55.0208,
      "duration": 0.5386,
      "velocity": 102,
      "chip": "ym2612"
    },
    {
      "channel": 3,
      "note": 59,
      "start": 55.1102,
      "duration": 0.2689,
      "velocity": 96,
      "chip": "ym2612"
    },
    {
      "channel": 4,
      "note": 59,
      "start": 55.1108,
      "duration": 0.1368,
      "velocity": 91,
      "chip": "ym2612"
    },
    {
      "channel": 4,
      "note": 54,
      "start": 55.2481,
      "duration": 0.2701,
      "velocity": 91,
      "chip": "ym2612"
    },
    {
      "channel": 2,
      "note": 72,
      "start": 55.2493,
      "duration": 0.2636,
      "velocity": 120,
      "chip": "ym2612"
    },
    {
      "channel": 3,
      "note": 59,
      "start": 55.3795,
      "duration": 0.138,
      "velocity": 96,
      "chip": "ym2612"
    },
    {
      "channel": 0,
      "note": 90,
      "start": 55.5162,
      "duration": 0.5389,
      "velocity": 86,
      "chip": "ym2612"
    },
    {
      "channel": 1,
      "note": 90,
      "start": 55.5175,
      "duration": 0.5384,
      "velocity": 86,
      "chip": "ym2612"
    },
    {
      "channel": 3,
      "note": 59,
      "start": 55.518,
      "duration": 0.2658,
      "velocity": 96,
      "chip": "ym2612"
    },
    {
      "channel": 4,
      "note": 55,
      "start": 55.5188,
      "duration": 0.2656,
      "velocity": 91,
      "chip": "ym2612"
    },
    {
      "channel": 2,
      "note": 36,
      "start": 55.5201,
      "duration": 0.1276,
      "velocity": 127,
      "chip": "ym2612"
    },
    {
      "channel": 5,
      "note": 90,
      "start": 55.5599,
      "duration": 0.5385,
      "velocity": 102,
      "chip": "ym2612"
    },
    {
      "channel": 2,
      "note": 72,
      "start": 55.6535,
      "duration": 0.2641,
      "velocity": 120,
      "chip": "ym2612"
    },
    {
      "channel": 3,
      "note": 59,
      "start": 55.7843,
      "duration": 0.2725,
      "velocity": 96,
      "chip": "ym2612"
    },
    {
      "channel": 4,
      "note": 57,
      "start": 55.785,
      "duration": 0.2728,
      "velocity": 91,
      "chip": "ym2612"
    },
    {
      "channel": 2,
      "note": 72,
      "start": 55.9231,
      "duration": 0.1292,
      "velocity": 120,
      "chip": "ym2612"
    },
    {
      "channel": 0,
      "note": 88,
      "start": 56.0558,
      "duration": 0.131,
      "velocity": 86,
      "chip": "ym2612"
    },
    {
      "channel": 1,
      "note": 88,
      "start": 56.0566,
      "duration": 0.131,
      "velocity": 86,
      "chip": "ym2612"
    },
    {
      "channel": 3,
      "note": 59,
      "start": 56.0575,
      "duration": 0.2684,
      "velocity": 96,
      "chip": "ym2612"
    },
    {
      "channel": 4,
      "note": 59,
      "start": 56.0585,
      "duration": 0.268,
      "velocity": 91,
      "chip": "ym2612"
    },
    {
      "channel": 2,
      "note": 36,
      "start": 56.0598,
      "duration": 0.1745,
      "velocity": 127,
      "chip": "ym2612"
    },
    {
      "channel": 5,
      "note": 88,
      "start": 56.0991,
      "duration": 0.134,
      "velocity": 102,
      "chip": "ym2612"
    },
    {
      "channel": 0,
      "note": 90,
      "start": 56.1874,
      "duration": 0.1368,
      "velocity": 86,
      "chip": "ym2612"
    },
    {
      "channel": 1,
      "note": 90,
      "start": 56.1883,
      "duration": 0.1368,
      "velocity": 86,
      "chip": "ym2612"
    },
    {
      "channel": 5,
      "note": 90,
      "start": 56.2341,
      "duration": 0.1341,
      "velocity": 102,
      "chip": "ym2612"
    },
    {
      "channel": 0,
      "note": 91,
      "start": 56.3249,
      "duration": 0.5383,
      "velocity": 86,
      "chip": "ym2612"
    },
    {
      "channel": 1,
      "note": 91,
      "start": 56.3258,
      "duration": 0.5382,
      "velocity": 86,
      "chip": "ym2612"
    },
    {
      "channel": 3,
      "note": 59,
      "start": 56.3264,
      "duration": 0.2683,
      "velocity": 96,
      "chip": "ym2612"
    },
    {
      "channel": 4,
      "note": 54,
      "start": 56.3271,
      "duration": 0.2679,
      "velocity": 91,
      "chip": "ym2612"
    },
    {
      "channel": 2,
      "note": 72,
      "start": 56.3282,
      "duration": 0.2627,
      "velocity": 120,
      "chip": "ym2612"
    },
    {
      "channel": 5,
      "note": 91,
      "start": 56.3689,
      "duration": 0.538,
      "velocity": 102,
      "chip": "ym2612"
    },
    {
      "channel": 4,
      "note": 55,
      "start": 56.5956,
      "duration": 0.2697,
      "velocity": 91,
      "chip": "ym2612"
    },
    {
      "channel": 2,
      "note": 36,
      "start": 56.5968,
      "duration": 0.1759,
      "velocity": 127,
      "chip": "ym2612"
    },
    {
      "channel": 3,
      "note": 59,
      "start": 56.7273,
      "duration": 0.2688,
      "velocity": 96,
      "chip": "ym2612"
    },
    {
      "channel": 0,
      "note": 88,
      "start": 56.8639,
      "duration": 0.2688,
      "velocity": 86,
      "chip": "ym2612"
    },
    {
      "channel": 1,
      "note": 93,
      "start": 56.8647,
      "duration": 0.2693,
      "velocity": 86,
      "chip": "ym2612"
    },
    {
      "channel": 4,
      "note": 57,
      "start": 56.8659,
      "duration": 0.1309,
      "velocity": 91,
      "chip": "ym2612"
    },
    {
      "channel": 2,
      "note": 72,
      "start": 56.8675,
      "duration": 0.2625,
      "velocity": 120,
      "chip": "ym2612"
    },
    {
      "channel": 5,
      "note": 88,
      "start": 56.9076,
      "duration": 0.2685,
      "velocity": 102,
      "chip": "ym2612"
    },
    {
      "channel": 3,
      "note": 59,
      "start": 56.9966,
      "duration": 0.1382,
      "velocity": 96,
      "chip": "ym2612"
    },
    {
      "channel": 4,
      "note": 59,
      "start": 56.9973,
      "duration": 0.269,
      "velocity": 91,
      "chip": "ym2612"
    },
    {
      "channel": 0,
      "note": 90,
      "start": 57.1339,
      "duration": 0.538,
      "velocity": 86,
      "chip": "ym2612"
    },
    {
      "channel": 1,
      "note": 90,
      "start": 57.1347,
      "duration": 0.5375,
      "velocity": 86,
      "chip": "ym2612"
    },
    {
      "channel": 2,
      "note": 36,
      "start": 57.1367,
      "duration": 0.1751,
      "velocity": 127,
      "chip": "ym2612"
    },
    {
      "channel": 5,
      "note": 90,
      "start": 57.1768,
      "duration": 0.5384,
      "velocity": 102,
      "chip": "ym2612"
    },
    {
      "channel": 3,
      "note": 59,
      "start": 57.2663,
      "duration": 0.2689,
      "velocity": 96,
      "chip": "ym2612"
    },
    {
      "channel": 4,
      "note": 59,
      "start": 57.2672,
      "duration": 0.1367,
      "velocity": 91,
      "chip": "ym2612"
    },
    {
      "channel": 4,
      "note": 54,
      "start": 57.4045,
      "duration": 0.269,
      "velocity": 91,
      "chip": "ym2612"
    },
    {
      "channel": 2,
      "note": 72,
      "start": 57.4057,
      "duration": 0.2633,
      "velocity": 120,
      "chip": "ym2612"
    },
    {
      "channel": 3,
      "note": 59,
      "start": 57.5356,
      "duration": 0.1373,
      "velocity": 96,
      "chip": "ym2612"
    },
    {
      "channel": 1,
      "note": 90,
      "start": 57.6727,
      "duration": 0.5394,
      "velocity": 86,
      "chip": "ym2612"
    },
    {
      "channel": 3,
      "note": 59,
      "start": 57.6734,
      "duration": 0.2656,
      "velocity": 96,
      "chip": "ym2612"
    },
    {
      "channel": 4,
      "note": 55,
      "start": 57.6741,
      "duration": 0.2656,
      "velocity": 91,
      "chip": "ym2612"
    },
    {
      "channel": 2,
      "note": 36,
      "start": 57.6754,
      "duration": 0.1284,
      "velocity": 127,
      "chip": "ym2612"
    },
    {
      "channel": 2,
      "note": 72,
      "start": 57.8085,
      "duration": 0.2648,
      "velocity": 120,
      "chip": "ym2612"
    },
    {
      "channel": 3,
      "note": 59,
      "start": 57.9395,
      "duration": 0.2735,
      "velocity": 96,
      "chip": "ym2612"
    },
    {
      "channel": 4,
      "note": 57,
      "start": 57.9402,
      "duration": 0.2737,
      "velocity": 91,
      "chip": "ym2612"
    },
    {
      "channel": 2,
      "note": 72,
      "start": 58.078,
      "duration": 0.1303,
      "velocity": 120,
      "chip": "ym2612"
    },
    {
      "channel": 0,
      "note": 91,
      "start": 58.2119,
      "duration": 1.0769,
      "velocity": 86,
      "chip": "ym2612"
    },
    {
      "channel": 1,
      "note": 88,
      "start": 58.2128,
      "duration": 1.0768,
      "velocity": 86,
      "chip": "ym2612"
    },
    {
      "channel": 3,
      "note": 59,
      "start": 58.2137,
      "duration": 0.2676,
      "velocity": 96,
      "chip": "ym2612"
    },
    {
      "channel": 4,
      "note": 52,
      "start": 58.2145,
      "duration": 0.2673,
      "velocity": 91,
      "chip": "ym2612"
    },
    {
      "channel": 2,
      "note": 36,
      "start": 58.2155,
      "duration": 0.1743,
      "velocity": 127,
      "chip": "ym2612"
    },
    {
      "channel": 5,
      "note": 91,
      "start": 58.2553,
      "duration": 1.0768,
      "velocity": 102,
      "chip": "ym2612"
    },
    {
      "channel": 3,
      "note": 59,
      "start": 58.4817,
      "duration": 0.2694,
      "velocity": 96,
      "chip": "ym2612"
    },
    {
      "channel": 4,
      "note": 52,
      "start": 58.4823,
      "duration": 0.2691,
      "velocity": 91,
      "chip": "ym2612"
    },
    {
      "channel": 2,
      "note": 72,
      "start": 58.4839,
      "duration": 0.2631,
      "velocity": 120,
      "chip": "ym2612"
    },
    {
      "channel": 4,
      "note": 52,
      "start": 58.7519,
      "duration": 0.132,
      "velocity": 91,
      "chip": "ym2612"
    },
    {
      "channel": 2,
      "note": 36,
      "start": 58.7532,
      "duration": 0.1757,
      "velocity": 127,
      "chip": "ym2612"
    },
    {
      "channel": 3,
      "note": 59,
      "start": 58.8833,
      "duration": 0.2689,
      "velocity": 96,
      "chip": "ym2612"
    },
    {
      "channel": 4,
      "note": 52,
      "start": 58.8843,
      "duration": 0.2685,
      "velocity": 91,
      "chip": "ym2612"
    },
    {
      "channel": 2,
      "note": 72,
      "start": 59.0224,
      "duration": 0.2635,
      "velocity": 120,
      "chip": "ym2612"
    },
    {
      "channel": 3,
      "note": 59,
      "start": 59.1526,
      "duration": 0.1378,
      "velocity": 96,
      "chip": "ym2612"
    },
    {
      "channel": 4,
      "note": 52,
      "start": 59.1532,
      "duration": 0.1375,
      "velocity": 91,
      "chip": "ym2612"
    },
    {
      "channel": 0,
      "note": 95,
      "start": 59.2894,
      "duration": 1.0781,
      "velocity": 86,
      "chip": "ym2612"
    },
    {
      "channel": 1,
      "note": 91,
      "start": 59.2902,
      "duration": 1.0782,
      "velocity": 86,
      "chip": "ym2612"
    },
    {
      "channel": 4,
      "note": 52,
      "start": 59.2912,
      "duration": 0.1312,
      "velocity": 91,
      "chip": "ym2612"
    },
    {
      "channel": 2,
      "note": 36,
      "start": 59.2924,
      "duration": 0.176,
      "velocity": 127,
      "chip": "ym2612"
    },
    {
      "channel": 5,
      "note": 95,
      "start": 59.3328,
      "duration": 1.0776,
      "velocity": 102,
      "chip": "ym2612"
    },
    {
      "channel": 3,
      "note": 59,
      "start": 59.4223,
      "duration": 0.2689,
      "velocity": 96,
      "chip": "ym2612"
    },
    {
      "channel": 4,
      "note": 52,
      "start": 59.4229,
      "duration": 0.269,
      "velocity": 91,
      "chip": "ym2612"
    },
    {
      "channel": 2,
      "note": 72,
      "start": 59.5611,
      "duration": 0.2639,
      "velocity": 120,
      "chip": "ym2612"
    },
    {
      "channel": 3,
      "note": 59,
      "start": 59.6916,
      "duration": 0.1371,
      "velocity": 96,
      "chip": "ym2612"
    },
    {
      "channel": 4,
      "note": 52,
      "start": 59.6923,
      "duration": 0.137,
      "velocity": 91,
      "chip": "ym2612"
    },
    {
      "channel": 3,
      "note": 59,
      "start": 59.8292,
      "duration": 0.2662,
      "velocity": 96,
      "chip": "ym2612"
    },
    {
      "channel": 4,
      "note": 52,
      "start": 59.8297,
      "duration": 0.2663,
      "velocity": 91,
      "chip": "ym2612"
    },
    {
      "channel": 2,
      "note": 36,
      "start": 59.8311,
      "duration": 0.1288,
      "velocity": 127,
      "chip": "ym2612"
    },
    {
      "channel": 2,
      "note": 72,
      "start": 59.9653,
      "duration": 0.264,
      "velocity": 120,
      "chip": "ym2612"
    },
    {
      "channel": 3,
      "note": 59,
      "start": 60.0958,
      "duration": 0.2735,
      "velocity": 96,
      "chip": "ym2612"
    },
    {
      "channel": 4,
      "note": 52,
      "start": 60.0965,
      "duration": 0.2736,
      "velocity": 91,
      "chip": "ym2612"
    },
    {
      "channel": 2,
      "note": 72,
      "start": 60.2352,
      "duration": 0.1291,
      "velocity": 120,
      "chip": "ym2612"
    },
    {
      "channel": 0,
      "note": 94,
      "start": 60.3682,
      "duration": 0.2685,
      "velocity": 86,
      "chip": "ym2612"
    },
    {
      "channel": 1,
      "note": 90,
      "start": 60.3691,
      "duration": 0.2684,
      "velocity": 86,
      "chip": "ym2612"
    },
    {
      "channel": 3,
      "note": 59,
      "start": 60.3699,
      "duration": 0.2684,
      "velocity": 96,
      "chip": "ym2612"
    },
    {
      "channel": 4,
      "note": 54,
      "start": 60.3706,
      "duration": 0.2683,
      "velocity": 91,
      "chip": "ym2612"
    },
    {
      "channel": 2,
      "note": 36,
      "start": 60.372,
      "duration": 0.1738,
      "velocity": 127,
      "chip": "ym2612"
    },
    {
      "channel": 5,
      "note": 94,
      "start": 60.4111,
      "duration": 0.2691,
      "velocity": 102,
      "chip": "ym2612"
    },
    {
      "channel": 0,
      "note": 78,
      "start": 60.6374,
      "duration": 0.2685,
      "velocity": 86,
      "chip": "ym2612"
    },
    {
      "channel": 1,
      "note": 66,
      "start": 60.6382,
      "duration": 0.2684,
      "velocity": 86,
      "chip": "ym2612"
    },
    {
      "channel": 3,
      "note": 59,
      "start": 60.6388,
      "duration": 0.2687,
      "velocity": 96,
      "chip": "ym2612"
    },
    {
      "channel": 4,
      "note": 54,
      "start": 60.6393,
      "duration": 0.2685,
      "velocity": 91,
      "chip": "ym2612"
    },
    {
      "channel": 2,
      "note": 72,
      "start": 60.6405,
      "duration": 0.2625,
      "velocity": 120,
      "chip": "ym2612"
    },
    {
      "channel": 5,
      "note": 78,
      "start": 60.6809,
      "duration": 0.2683,
      "velocity": 102,
      "chip": "ym2612"
    },
    {
      "channel": 0,
      "note": 78,
      "start": 60.9065,
      "duration": 0.2688,
      "velocity": 86,
      "chip": "ym2612"
    },
    {
      "channel": 1,
      "note": 66,
      "start": 60.9073,
      "duration": 0.2689,
      "velocity": 86,
      "chip": "ym2612"
    },
    {
      "channel": 4,
      "note": 54,
      "start": 60.9082,
      "duration": 0.1313,
      "velocity": 91,
      "chip": "ym2612"
    },
    {
      "channel": 2,
      "note": 36,
      "start": 60.9095,
      "duration": 0.1758,
      "velocity": 127,
      "chip": "ym2612"
    },
    {
      "channel": 5,
      "note": 78,
      "start": 60.9498,
      "duration": 0.2693,
      "velocity": 102,
      "chip": "ym2612"
    },
    {
      "channel": 3,
      "note": 59,
      "start": 61.0394,
      "duration": 0.2688,
      "velocity": 96,
      "chip": "ym2612"
    },
    {
      "channel": 4,
      "note": 54,
      "start": 61.04,
      "duration": 0.2688,
      "velocity": 91,
      "chip": "ym2612"
    },
    {
      "channel": 0,
      "note": 78,
      "start": 61.176,
      "duration": 0.2688,
      "velocity": 86,
      "chip": "ym2612"
    },
    {
      "channel": 1,
      "note": 66,
      "start": 61.1768,
      "duration": 0.2688,
      "velocity": 86,
      "chip": "ym2612"
    },
    {
      "channel": 2,
      "note": 72,
      "start": 61.1787,
      "duration": 0.2633,
      "velocity": 120,
      "chip": "ym2612"
    },
    {
      "channel": 5,
      "note": 78,
      "start": 61.2198,
      "duration": 0.2684,
      "velocity": 102,
      "chip": "ym2612"
    },
    {
      "channel": 3,
      "note": 59,
      "start": 61.3087,
      "duration": 0.1377,
      "velocity": 96,
      "chip": "ym2612"
    },
    {
      "channel": 4,
      "note": 54,
      "start": 61.3093,
      "duration": 0.1375,
      "velocity": 91,
      "chip": "ym2612"
    },
    {
      "channel": 0,
      "note": 78,
      "start": 61.4454,
      "duration": 0.2689,
      "velocity": 86,
      "chip": "ym2612"
    },
    {
      "channel": 1,
      "note": 66,
      "start": 61.4463,
      "duration": 0.2689,
      "velocity": 86,
      "chip": "ym2612"
    },
    {
      "channel": 4,
      "note": 54,
      "start": 61.4472,
      "duration": 0.1313,
      "velocity": 91,
      "chip": "ym2612"
    },
    {
      "channel": 2,
      "note": 36,
      "start": 61.4484,
      "duration": 0.1754,
      "velocity": 127,
      "chip": "ym2612"
    },
    {
      "channel": 5,
      "note": 78,
      "start": 61.4888,
      "duration": 0.2691,
      "velocity": 102,
      "chip": "ym2612"
    },
    {
      "channel": 3,
      "note": 59,
      "start": 61.5783,
      "duration": 0.2689,
      "velocity": 96,
      "chip": "ym2612"
    },
    {
      "channel": 4,
      "note": 54,
      "start": 61.5789,
      "duration": 0.269,
      "velocity": 91,
      "chip": "ym2612"
    },
    {
      "channel": 0,
      "note": 78,
      "start": 61.715,
      "duration": 0.2692,
      "velocity": 86,
      "chip": "ym2612"
    },
    {
      "channel": 1,
      "note": 66,
      "start": 61.7159,
      "duration": 0.2692,
      "velocity": 86,
      "chip": "ym2612"
    },
    {
      "channel": 2,
      "note": 72,
      "start": 61.7182,
      "duration": 0.2629,
      "velocity": 120,
      "chip": "ym2612"
    },
    {
      "channel": 5,
      "note": 78,
      "start": 61.7586,
      "duration": 0.2688,
      "velocity": 102,
      "chip": "ym2612"
    },
    {
      "channel": 3,
      "note": 59,
      "start": 61.8477,
      "duration": 0.1382,
      "velocity": 96,
      "chip": "ym2612"
    },
    {
      "channel": 4,
      "note": 54,
      "start": 61.8483,
      "duration": 0.1382,
      "velocity": 91,
      "chip": "ym2612"
    },
    {
      "channel": 0,
      "note": 78,
      "start": 61.9849,
      "duration": 0.266,
      "velocity": 86,
      "chip": "ym2612"
    },
    {
      "channel": 1,
      "note": 66,
      "start": 61.9857,
      "duration": 0.266,
      "velocity": 86,
      "chip": "ym2612"
    },
    {
      "channel": 3,
      "note": 59,
      "start": 61.9863,
      "duration": 0.2662,
      "velocity": 96,
      "chip": "ym2612"
    },
    {
      "channel": 4,
      "note": 54,
      "start": 61.9869,
      "duration": 0.2662,
      "velocity": 91,
      "chip": "ym2612"
    },
    {
      "channel": 2,
      "note": 36,
      "start": 61.9882,
      "duration": 0.1277,
      "velocity": 127,
      "chip": "ym2612"
    },
    {
      "channel": 5,
      "note": 78,
      "start": 62.0281,
      "duration": 0.2689,
      "velocity": 102,
      "chip": "ym2612"
    },
    {
      "channel": 2,
      "note": 72,
      "start": 62.1217,
      "duration": 0.2637,
      "velocity": 120,
      "chip": "ym2612"
    },
    {
      "channel": 0,
      "note": 78,
      "start": 62.2516,
      "duration": 0.2716,
      "velocity": 86,
      "chip": "ym2612"
    },
    {
      "channel": 1,
      "note": 66,
      "start": 62.2524,
      "duration": 0.2717,
      "velocity": 86,
      "chip": "ym2612"
    },
    {
      "channel": 3,
      "note": 59,
      "start": 62.2529,
      "duration": 0.272,
      "velocity": 96,
      "chip": "ym2612"
    },
    {
      "channel": 4,
      "note": 54,
      "start": 62.2536,
      "duration": 0.2723,
      "velocity": 91,
      "chip": "ym2612"
    },
    {
      "channel": 5,
      "note": 78,
      "start": 62.2976,
      "duration": 0.2688,
      "velocity": 102,
      "chip": "ym2612"
    },
    {
      "channel": 2,
      "note": 72,
      "start": 62.3907,
      "duration": 0.1296,
      "velocity": 120,
      "chip": "ym2612"
    },
    {
      "channel": 0,
      "note": 91,
      "start": 62.5238,
      "duration": 1.0775,
      "velocity": 86,
      "chip": "ym2612"
    },
    {
      "channel": 1,
      "note": 88,
      "start": 62.5248,
      "duration": 1.0773,
      "velocity": 86,
      "chip": "ym2612"
    },
    {
      "channel": 3,
      "note": 59,
      "start": 62.5256,
      "duration": 0.2678,
      "velocity": 96,
      "chip": "ym2612"
    },
    {
      "channel": 4,
      "note": 52,
      "start": 62.5264,
      "duration": 0.2675,
      "velocity": 91,
      "chip": "ym2612"
    },
    {
      "channel": 2,
      "note": 36,
      "start": 62.5277,
      "duration": 0.1746,
      "velocity": 127,
      "chip": "ym2612"
    },
    {
      "channel": 5,
      "note": 91,
      "start": 62.5676,
      "duration": 1.0766,
      "velocity": 102,
      "chip": "ym2612"
    },
    {
      "channel": 3,
      "note": 59,
      "start": 62.7938,
      "duration": 0.269,
      "velocity": 96,
      "chip": "ym2612"
    },
    {
      "channel": 4,
      "note": 52,
      "start": 62.7944,
      "duration": 0.2687,
      "velocity": 91,
      "chip": "ym2612"
    },
    {
      "channel": 2,
      "note": 72,
      "start": 62.7956,
      "duration": 0.2635,
      "velocity": 120,
      "chip": "ym2612"
    },
    {
      "channel": 4,
      "note": 52,
      "start": 63.0635,
      "duration": 0.1321,
      "velocity": 91,
      "chip": "ym2612"
    },
    {
      "channel": 2,
      "note": 36,
      "start": 63.0648,
      "duration": 0.1761,
      "velocity": 127,
      "chip": "ym2612"
    },
    {
      "channel": 3,
      "note": 59,
      "start": 63.1954,
      "duration": 0.2688,
      "velocity": 96,
      "chip": "ym2612"
    },
    {
      "channel": 4,
      "note": 52,
      "start": 63.196,
      "duration": 0.2688,
      "velocity": 91,
      "chip": "ym2612"
    },
    {
      "channel": 2,
      "note": 72,
      "start": 63.3344,
      "duration": 0.2637,
      "velocity": 120,
      "chip": "ym2612"
    },
    {
      "channel": 3,
      "note": 59,
      "start": 63.4647,
      "duration": 0.1382,
      "velocity": 96,
      "chip": "ym2612"
    },
    {
      "channel": 4,
      "note": 52,
      "start": 63.4653,
      "duration": 0.138,
      "velocity": 91,
      "chip": "ym2612"
    },
    {
      "channel": 0,
      "note": 95,
      "start": 63.602,
      "duration": 1.0772,
      "velocity": 86,
      "chip": "ym2612"
    },
    {
      "channel": 1,
      "note": 91,
      "start": 63.6028,
      "duration": 1.0773,
      "velocity": 86,
      "chip": "ym2612"
    },
    {
      "channel": 4,
      "note": 52,
      "start": 63.6037,
      "duration": 0.1313,
      "velocity": 91,
      "chip": "ym2612"
    },
    {
      "channel": 2,
      "note": 36,
      "start": 63.605,
      "duration": 0.1749,
      "velocity": 127,
      "chip": "ym2612"
    },
    {
      "channel": 5,
      "note": 95,
      "start": 63.6449,
      "duration": 1.0775,
      "velocity": 102,
      "chip": "ym2612"
    },
    {
      "channel": 3,
      "note": 59,
      "start": 63.7348,
      "duration": 0.2684,
      "velocity": 96,
      "chip": "ym2612"
    },
    {
      "channel": 4,
      "note": 52,
      "start": 63.7355,
      "duration": 0.2684,
      "velocity": 91,
      "chip": "ym2612"
    },
    {
      "channel": 2,
      "note": 72,
      "start": 63.8731,
      "duration": 0.2641,
      "velocity": 120,
      "chip": "ym2612"
    },
    {
      "channel": 3,
      "note": 59,
      "start": 64.0037,
      "duration": 0.1372,
      "velocity": 96,
      "chip": "ym2612"
    },
    {
      "channel": 4,
      "note": 52,
      "start": 64.0043,
      "duration": 0.1373,
      "velocity": 91,
      "chip": "ym2612"
    },
    {
      "channel": 3,
      "note": 59,
      "start": 64.1414,
      "duration": 0.2661,
      "velocity": 96,
      "chip": "ym2612"
    },
    {
      "channel": 4,
      "note": 52,
      "start": 64.142,
      "duration": 0.2661,
      "velocity": 91,
      "chip": "ym2612"
    },
    {
      "channel": 2,
      "note": 36,
      "start": 64.1433,
      "duration": 0.1286,
      "velocity": 127,
      "chip": "ym2612"
    },
    {
      "channel": 2,
      "note": 72,
      "start": 64.2774,
      "duration": 0.264,
      "velocity": 120,
      "chip": "ym2612"
    },
    {
      "channel": 3,
      "note": 59,
      "start": 64.408,
      "duration": 0.273,
      "velocity": 96,
      "chip": "ym2612"
    },
    {
      "channel": 4,
      "note": 52,
      "start": 64.4085,
      "duration": 0.2732,
      "velocity": 91,
      "chip": "ym2612"
    },
    {
      "channel": 2,
      "note": 72,
      "start": 64.5469,
      "duration": 0.1295,
      "velocity": 120,
      "chip": "ym2612"
    },
    {
      "channel": 0,
      "note": 94,
      "start": 64.6799,
      "duration": 0.2685,
      "velocity": 86,
      "chip": "ym2612"
    },
    {
      "channel": 1,
      "note": 90,
      "start": 64.6808,
      "duration": 0.2684,
      "velocity": 86,
      "chip": "ym2612"
    },
    {
      "channel": 3,
      "note": 59,
      "start": 64.6817,
      "duration": 0.2684,
      "velocity": 96,
      "chip": "ym2612"
    },
    {
      "channel": 4,
      "note": 54,
      "start": 64.6823,
      "duration": 0.2687,
      "velocity": 91,
      "chip": "ym2612"
    },
    {
      "channel": 2,
      "note": 36,
      "start": 64.6841,
      "duration": 0.1739,
      "velocity": 127,
      "chip": "ym2612"
    },
    {
      "channel": 5,
      "note": 94,
      "start": 64.7231,
      "duration": 0.2689,
      "velocity": 102,
      "chip": "ym2612"
    },
    {
      "channel": 0,
      "note": 78,
      "start": 64.9491,
      "duration": 0.2693,
      "velocity": 86,
      "chip": "ym2612"
    },
    {
      "channel": 1,
      "note": 66,
      "start": 64.9499,
      "duration": 0.2692,
      "velocity": 86,
      "chip": "ym2612"
    },
    {
      "channel": 3,
      "note": 59,
      "start": 64.9509,
      "duration": 0.269,
      "velocity": 96,
      "chip": "ym2612"
    },
    {
      "channel": 4,
      "note": 54,
      "start": 64.9515,
      "duration": 0.2688,
      "velocity": 91,
      "chip": "ym2612"
    },
    {
      "channel": 2,
      "note": 72,
      "start": 64.9527,
      "duration": 0.2624,
      "velocity": 120,
      "chip": "ym2612"
    },
    {
      "channel": 5,
      "note": 78,
      "start": 64.9927,
      "duration": 0.2684,
      "velocity": 102,
      "chip": "ym2612"
    },
    {
      "channel": 0,
      "note": 78,
      "start": 65.219,
      "duration": 0.2685,
      "velocity": 86,
      "chip": "ym2612"
    },
    {
      "channel": 1,
      "note": 66,
      "start": 65.2198,
      "duration": 0.2684,
      "velocity": 86,
      "chip": "ym2612"
    },
    {
      "channel": 4,
      "note": 54,
      "start": 65.2207,
      "duration": 0.1315,
      "velocity": 91,
      "chip": "ym2612"
    },
    {
      "channel": 2,
      "note": 36,
      "start": 65.222,
      "duration": 0.175,
      "velocity": 127,
      "chip": "ym2612"
    },
    {
      "channel": 5,
      "note": 78,
      "start": 65.2619,
      "duration": 0.2692,
      "velocity": 102,
      "chip": "ym2612"
    },
    {
      "channel": 3,
      "note": 59,
      "start": 65.3521,
      "duration": 0.2683,
      "velocity": 96,
      "chip": "ym2612"
    },
    {
      "channel": 4,
      "note": 54,
      "start": 65.3527,
      "duration": 0.2683,
      "velocity": 91,
      "chip": "ym2612"
    },
    {
      "channel": 0,
      "note": 78,
      "start": 65.4881,
      "duration": 0.2689,
      "velocity": 86,
      "chip": "ym2612"
    },
    {
      "channel": 1,
      "note": 66,
      "start": 65.4889,
      "duration": 0.2688,
      "velocity": 86,
      "chip": "ym2612"
    },
    {
      "channel": 2,
      "note": 72,
      "start": 65.4908,
      "duration": 0.2634,
      "velocity": 120,
      "chip": "ym2612"
    },
    {
      "channel": 5,
      "note": 78,
      "start": 65.5317,
      "duration": 0.269,
      "velocity": 102,
      "chip": "ym2612"
    },
    {
      "channel": 3,
      "note": 59,
      "start": 65.6208,
      "duration": 0.1378,
      "velocity": 96,
      "chip": "ym2612"
    },
    {
      "channel": 4,
      "note": 54,
      "start": 65.6214,
      "duration": 0.1375,
      "velocity": 91,
      "chip": "ym2612"
    },
    {
      "channel": 0,
      "note": 78,
      "start": 65.7576,
      "duration": 0.2688,
      "velocity": 86,
      "chip": "ym2612"
    },
    {
      "channel": 1,
      "note": 66,
      "start": 65.7584,
      "duration": 0.2688,
      "velocity": 86,
      "chip": "ym2612"
    },
    {
      "channel": 4,
      "note": 54,
      "start": 65.7593,
      "duration": 0.1313,
      "velocity": 91,
      "chip": "ym2612"
    },
    {
      "channel": 2,
      "note": 36,
      "start": 65.7606,
      "duration": 0.1758,
      "velocity": 127,
      "chip": "ym2612"
    },
    {
      "channel": 5,
      "note": 78,
      "start": 65.8014,
      "duration": 0.2686,
      "velocity": 102,
      "chip": "ym2612"
    },
    {
      "channel": 3,
      "note": 59,
      "start": 65.8905,
      "duration": 0.2688,
      "velocity": 96,
      "chip": "ym2612"
    },
    {
      "channel": 4,
      "note": 54,
      "start": 65.8911,
      "duration": 0.2688,
      "velocity": 91,
      "chip": "ym2612"
    },
    {
      "channel": 0,
      "note": 78,
      "start": 66.0271,
      "duration": 0.2689,
      "velocity": 86,
      "chip": "ym2612"
    },
    {
      "channel": 1,
      "note": 66,
      "start": 66.0279,
      "duration": 0.2689,
      "velocity": 86,
      "chip": "ym2612"
    },
    {
      "channel": 2,
      "note": 72,
      "start": 66.0298,
      "duration": 0.2634,
      "velocity": 120,
      "chip": "ym2612"
    },
    {
      "channel": 5,
      "note": 78,
      "start": 66.0707,
      "duration": 0.2689,
      "velocity": 102,
      "chip": "ym2612"
    },
    {
      "channel": 3,
      "note": 59,
      "start": 66.1598,
      "duration": 0.1378,
      "velocity": 96,
      "chip": "ym2612"
    },
    {
      "channel": 4,
      "note": 54,
      "start": 66.1603,
      "duration": 0.1378,
      "velocity": 91,
      "chip": "ym2612"
    },
    {
      "channel": 0,
      "note": 78,
      "start": 66.2967,
      "duration": 0.2664,
      "velocity": 86,
      "chip": "ym2612"
    },
    {
      "channel": 1,
      "note": 66,
      "start": 66.2974,
      "duration": 0.2664,
      "velocity": 86,
      "chip": "ym2612"
    },
    {
      "channel": 3,
      "note": 59,
      "start": 66.298,
      "duration": 0.2666,
      "velocity": 96,
      "chip": "ym2612"
    },
    {
      "channel": 4,
      "note": 54,
      "start": 66.2986,
      "duration": 0.2666,
      "velocity": 91,
      "chip": "ym2612"
    },
    {
      "channel": 2,
      "note": 36,
      "start": 66.2999,
      "duration": 0.128,
      "velocity": 127,
      "chip": "ym2612"
    },
    {
      "channel": 5,
      "note": 78,
      "start": 66.3402,
      "duration": 0.2688,
      "velocity": 102,
      "chip": "ym2612"
    },
    {
      "channel": 2,
      "note": 72,
      "start": 66.4332,
      "duration": 0.2642,
      "velocity": 120,
      "chip": "ym2612"
    },
    {
      "channel": 0,
      "note": 78,
      "start": 66.5637,
      "duration": 0.272,
      "velocity": 86,
      "chip": "ym2612"
    },
    {
      "channel": 1,
      "note": 66,
      "start": 66.5645,
      "duration": 0.2721,
      "velocity": 86,
      "chip": "ym2612"
    },
    {
      "channel": 3,
      "note": 59,
      "start": 66.5651,
      "duration": 0.2724,
      "velocity": 96,
      "chip": "ym2612"
    },
    {
      "channel": 4,
      "note": 54,
      "start": 66.5657,
      "duration": 0.2727,
      "velocity": 91,
      "chip": "ym2612"
    },
    {
      "channel": 5,
      "note": 78,
      "start": 66.6096,
      "duration": 0.2688,
      "velocity": 102,
      "chip": "ym2612"
    },
    {
      "channel": 2,
      "note": 72,
      "start": 66.7032,
      "duration": 0.1293,
      "velocity": 120,
      "chip": "ym2612"
    },
    {
      "channel": 0,
      "note": 78,
      "start": 66.8364,
      "duration": 0.268,
      "velocity": 86,
      "chip": "ym2612"
    },
    {
      "channel": 1,
      "note": 66,
      "start": 66.8373,
      "duration": 0.2679,
      "velocity": 86,
      "chip": "ym2612"
    },
    {
      "channel": 3,
      "note": 59,
      "start": 66.8381,
      "duration": 0.2679,
      "velocity": 96,
      "chip": "ym2612"
    },
    {
      "channel": 4,
      "note": 54,
      "start": 66.839,
      "duration": 0.2677,
      "velocity": 91,
      "chip": "ym2612"
    },
    {
      "channel": 2,
      "note": 36,
      "start": 66.8403,
      "duration": 0.1737,
      "velocity": 127,
      "chip": "ym2612"
    },
    {
      "channel": 5,
      "note": 78,
      "start": 66.8792,
      "duration": 0.2688,
      "velocity": 102,
      "chip": "ym2612"
    },
    {
      "channel": 0,
      "note": 78,
      "start": 67.1051,
      "duration": 0.2689,
      "velocity": 86,
      "chip": "ym2612"
    },
    {
      "channel": 1,
      "note": 66,
      "start": 67.1059,
      "duration": 0.2689,
      "velocity": 86,
      "chip": "ym2612"
    },
    {
      "channel": 3,
      "note": 59,
      "start": 67.1065,
      "duration": 0.2691,
      "velocity": 96,
      "chip": "ym2612"
    },
    {
      "channel": 4,
      "note": 54,
      "start": 67.1071,
      "duration": 0.2688,
      "velocity": 91,
      "chip": "ym2612"
    },
    {
      "channel": 2,
      "note": 72,
      "start": 67.1083,
      "duration": 0.2629,
      "velocity": 120,
      "chip": "ym2612"
    },
    {
      "channel": 5,
      "note": 78,
      "start": 67.1487,
      "duration": 0.269,
      "velocity": 102,
      "chip": "ym2612"
    },
    {
      "channel": 0,
      "note": 78,
      "start": 67.3746,
      "duration": 0.2688,
      "velocity": 86,
      "chip": "ym2612"
    },
    {
      "channel": 1,
      "note": 66,
      "start": 67.3754,
      "duration": 0.2689,
      "velocity": 86,
      "chip": "ym2612"
    },
    {
      "channel": 4,
      "note": 54,
      "start": 67.3764,
      "duration": 0.1313,
      "velocity": 91,
      "chip": "ym2612"
    },
    {
      "channel": 2,
      "note": 36,
      "start": 67.3776,
      "duration": 0.1754,
      "velocity": 127,
      "chip": "ym2612"
    },
    {
      "channel": 5,
      "note": 78,
      "start": 67.4184,
      "duration": 0.2686,
      "velocity": 102,
      "chip": "ym2612"
    },
    {
      "channel": 3,
      "note": 59,
      "start": 67.5075,
      "duration": 0.2688,
      "velocity": 96,
      "chip": "ym2612"
    },
    {
      "channel": 4,
      "note": 54,
      "start": 67.5081,
      "duration": 0.2688,
      "velocity": 91,
      "chip": "ym2612"
    },
    {
      "channel": 0,
      "note": 78,
      "start": 67.6441,
      "duration": 0.2688,
      "velocity": 86,
      "chip": "ym2612"
    },
    {
      "channel": 1,
      "note": 66,
      "start": 67.6449,
      "duration": 0.2688,
      "velocity": 86,
      "chip": "ym2612"
    },
    {
      "channel": 2,
      "note": 72,
      "start": 67.6468,
      "duration": 0.2633,
      "velocity": 120,
      "chip": "ym2612"
    },
    {
      "channel": 5,
      "note": 78,
      "start": 67.6878,
      "duration": 0.2686,
      "velocity": 102,
      "chip": "ym2612"
    },
    {
      "channel": 3,
      "note": 59,
      "start": 67.7768,
      "duration": 0.1378,
      "velocity": 96,
      "chip": "ym2612"
    },
    {
      "channel": 4,
      "note": 54,
      "start": 67.7773,
      "duration": 0.1375,
      "velocity": 91,
      "chip": "ym2612"
    },
    {
      "channel": 0,
      "note": 78,
      "start": 67.9136,
      "duration": 0.2688,
      "velocity": 86,
      "chip": "ym2612"
    },
    {
      "channel": 1,
      "note": 66,
      "start": 67.9144,
      "duration": 0.2688,
      "velocity": 86,
      "chip": "ym2612"
    },
    {
      "channel": 4,
      "note": 54,
      "start": 67.9153,
      "duration": 0.2695,
      "velocity": 91,
      "chip": "ym2612"
    },
    {
      "channel": 2,
      "note": 36,
      "start": 67.9166,
      "duration": 0.1754,
      "velocity": 127,
      "chip": "ym2612"
    },
    {
      "channel": 5,
      "note": 78,
      "start": 67.957,
      "duration": 0.2691,
      "velocity": 102,
      "chip": "ym2612"
    },
    {
      "channel": 3,
      "note": 59,
      "start": 68.0465,
      "duration": 0.2689,
      "velocity": 96,
      "chip": "ym2612"
    },
    {
      "channel": 0,
      "note": 76,
      "start": 68.183,
      "duration": 0.2694,
      "velocity": 86,
      "chip": "ym2612"
    },
    {
      "channel": 1,
      "note": 64,
      "start": 68.1843,
      "duration": 0.269,
      "velocity": 86,
      "chip": "ym2612"
    },
    {
      "channel": 4,
      "note": 52,
      "start": 68.1854,
      "duration": 0.2693,
      "velocity": 91,
      "chip": "ym2612"
    },
    {
      "channel": 2,
      "note": 72,
      "start": 68.1866,
      "duration": 0.2626,
      "velocity": 120,
      "chip": "ym2612"
    },
    {
      "channel": 5,
      "note": 76,
      "start": 68.2268,
      "duration": 0.2688,
      "velocity": 102,
      "chip": "ym2612"
    },
    {
      "channel": 3,
      "note": 59,
      "start": 68.3158,
      "duration": 0.1382,
      "velocity": 96,
      "chip": "ym2612"
    },
    {
      "channel": 0,
      "note": 74,
      "start": 68.4531,
      "duration": 0.2657,
      "velocity": 86,
      "chip": "ym2612"
    },
    {
      "channel": 1,
      "note": 62,
      "start": 68.4539,
      "duration": 0.2658,
      "velocity": 86,
      "chip": "ym2612"
    },
    {
      "channel": 3,
      "note": 59,
      "start": 68.4545,
      "duration": 0.266,
      "velocity": 96,
      "chip": "ym2612"
    },
    {
      "channel": 4,
      "note": 50,
      "start": 68.4552,
      "duration": 0.2659,
      "velocity": 91,
      "chip": "ym2612"
    },
    {
      "channel": 2,
      "note": 36,
      "start": 68.4565,
      "duration": 0.1278,
      "velocity": 127,
      "chip": "ym2612"
    },
    {
      "channel": 5,
      "note": 74,
      "start": 68.4963,
      "duration": 0.2688,
      "velocity": 102,
      "chip": "ym2612"
    },
    {
      "channel": 2,
      "note": 72,
      "start": 68.5897,
      "duration": 0.2638,
      "velocity": 120,
      "chip": "ym2612"
    },
    {
      "channel": 0,
      "note": 73,
      "start": 68.7195,
      "duration": 0.2717,
      "velocity": 86,
      "chip": "ym2612"
    },
    {
      "channel": 1,
      "note": 61,
      "start": 68.7203,
      "duration": 0.2747,
      "velocity": 103,
      "chip": "ym2612"
    },
    {
      "channel": 3,
      "note": 59,
      "start": 68.7209,
      "duration": 0.2751,
      "velocity": 96,
      "chip": "ym2612"
    },
    {
      "channel": 4,
      "note": 49,
      "start": 68.7217,
      "duration": 0.2751,
      "velocity": 91,
      "chip": "ym2612"
    },
    {
      "channel": 5,
      "note": 73,
      "start": 68.7658,
      "duration": 0.2691,
      "velocity": 102,
      "chip": "ym2612"
    },
    {
      "channel": 2,
      "note": 72,
      "start": 68.8588,
      "duration": 0.1296,
      "velocity": 120,
      "chip": "ym2612"
    },
    {
      "channel": 0,
      "note": 71,
      "start": 68.9919,
      "duration": 1.0804,
      "velocity": 103,
      "chip": "ym2612"
    },
    {
      "channel": 1,
      "note": 83,
      "start": 68.9957,
      "duration": 0.3525,
      "velocity": 103,
      "chip": "ym2612"
    },
    {
      "channel": 3,
      "note": 59,
      "start": 68.9965,
      "duration": 0.2649,
      "velocity": 96,
      "chip": "ym2612"
    },
    {
      "channel": 4,
      "note": 59,
      "start": 68.9973,
      "duration": 0.2647,
      "velocity": 91,
      "chip": "ym2612"
    },
    {
      "channel": 2,
      "note": 36,
      "start": 68.9987,
      "duration": 0.1713,
      "velocity": 127,
      "chip": "ym2612"
    },
    {
      "channel": 5,
      "note": 71,
      "start": 69.0356,
      "duration": 1.0801,
      "velocity": 103,
      "chip": "ym2612"
    },
    {
      "channel": 3,
      "note": 59,
      "start": 69.2619,
      "duration": 0.269,
      "velocity": 96,
      "chip": "ym2612"
    },
    {
      "channel": 4,
      "note": 59,
      "start": 69.2625,
      "duration": 0.2687,
      "velocity": 91,
      "chip": "ym2612"
    },
    {
      "channel": 2,
      "note": 69,
      "start": 69.264,
      "duration": 0.1285,
      "velocity": 127,
      "chip": "ym2612"
    },
    {
      "channel": 1,
      "note": 83,
      "start": 69.3488,
      "duration": 0.3586,
      "velocity": 103,
      "chip": "ym2612"
    },
    {
      "channel": 2,
      "note": 69,
      "start": 69.3981,
      "duration": 0.1291,
      "velocity": 127,
      "chip": "ym2612"
    },
    {
      "channel": 4,
      "note": 59,
      "start": 69.5317,
      "duration": 0.2694,
      "velocity": 91,
      "chip": "ym2612"
    },
    {
      "channel": 2,
      "note": 36,
      "start": 69.533,
      "duration": 0.1765,
      "velocity": 127,
      "chip": "ym2612"
    },
    {
      "channel": 3,
      "note": 59,
      "start": 69.6635,
      "duration": 0.2721,
      "velocity": 96,
      "chip": "ym2612"
    },
    {
      "channel": 1,
      "note": 83,
      "start": 69.7081,
      "duration": 0.3646,
      "velocity": 103,
      "chip": "ym2612"
    },
    {
      "channel": 4,
      "note": 59,
      "start": 69.8015,
      "duration": 0.2724,
      "velocity": 91,
      "chip": "ym2612"
    },
    {
      "channel": 2,
      "note": 69,
      "start": 69.8029,
      "duration": 0.1285,
      "velocity": 127,
      "chip": "ym2612"
    },
    {
      "channel": 3,
      "note": 59,
      "start": 69.936,
      "duration": 0.1375,
      "velocity": 96,
      "chip": "ym2612"
    },
    {
      "channel": 2,
      "note": 69,
      "start": 69.9379,
      "duration": 0.1283,
      "velocity": 127,
      "chip": "ym2612"
    },
    {
      "channel": 1,
      "note": 83,
      "start": 70.0734,
      "duration": 0.3527,
      "velocity": 103,
      "chip": "ym2612"
    },
    {
      "channel": 4,
      "note": 59,
      "start": 70.0743,
      "duration": 0.2655,
      "velocity": 91,
      "chip": "ym2612"
    },
    {
      "channel": 2,
      "note": 36,
      "start": 70.0756,
      "duration": 0.1723,
      "velocity": 127,
      "chip": "ym2612"
    },
    {
      "channel": 0,
      "note": 83,
      "start": 70.1118,
      "duration": 0.3615,
      "velocity": 103,
      "chip": "ym2612"
    },
    {
      "channel": 5,
      "note": 83,
      "start": 70.1579,
      "duration": 0.3594,
      "velocity": 103,
      "chip": "ym2612"
    },
    {
      "channel": 3,
      "note": 59,
      "start": 70.2024,
      "duration": 0.2721,
      "velocity": 96,
      "chip": "ym2612"
    },
    {
      "channel": 4,
      "note": 59,
      "start": 70.3402,
      "duration": 0.2692,
      "velocity": 91,
      "chip": "ym2612"
    },
    {
      "channel": 2,
      "note": 69,
      "start": 70.3417,
      "duration": 0.1288,
      "velocity": 127,
      "chip": "ym2612"
    },
    {
      "channel": 1,
      "note": 83,
      "start": 70.4268,
      "duration": 0.3587,
      "velocity": 103,
      "chip": "ym2612"
    },
    {
      "channel": 0,
      "note": 83,
      "start": 70.474,
      "duration": 0.3559,
      "velocity": 103,
      "chip": "ym2612"
    },
    {
      "channel": 3,
      "note": 59,
      "start": 70.475,
      "duration": 0.1339,
      "velocity": 96,
      "chip": "ym2612"
    },
    {
      "channel": 2,
      "note": 69,
      "start": 70.4768,
      "duration": 0.1284,
      "velocity": 127,
      "chip": "ym2612"
    },
    {
      "channel": 5,
      "note": 83,
      "start": 70.518,
      "duration": 0.3615,
      "velocity": 103,
      "chip": "ym2612"
    },
    {
      "channel": 3,
      "note": 59,
      "start": 70.6093,
      "duration": 0.2689,
      "velocity": 96,
      "chip": "ym2612"
    },
    {
      "channel": 4,
      "note": 59,
      "start": 70.6099,
      "duration": 0.2689,
      "velocity": 91,
      "chip": "ym2612"
    },
    {
      "channel": 2,
      "note": 69,
      "start": 70.6112,
      "duration": 0.1288,
      "velocity": 127,
      "chip": "ym2612"
    },
    {
      "channel": 2,
      "note": 69,
      "start": 70.7456,
      "duration": 0.1291,
      "velocity": 127,
      "chip": "ym2612"
    },
    {
      "channel": 1,
      "note": 83,
      "start": 70.7862,
      "duration": 0.3615,
      "velocity": 103,
      "chip": "ym2612"
    },
    {
      "channel": 0,
      "note": 83,
      "start": 70.8306,
      "duration": 0.3586,
      "velocity": 103,
      "chip": "ym2612"
    },
    {
      "channel": 3,
      "note": 59,
      "start": 70.8787,
      "duration": 0.27,
      "velocity": 96,
      "chip": "ym2612"
    },
    {
      "channel": 4,
      "note": 59,
      "start": 70.8792,
      "duration": 0.2702,
      "velocity": 91,
      "chip": "ym2612"
    },
    {
      "channel": 5,
      "note": 83,
      "start": 70.8802,
      "duration": 0.356,
      "velocity": 103,
      "chip": "ym2612"
    },
    {
      "channel": 2,
      "note": 69,
      "start": 70.8812,
      "duration": 0.1283,
      "velocity": 127,
      "chip": "ym2612"
    },
    {
      "channel": 2,
      "note": 69,
      "start": 71.0152,
      "duration": 0.1291,
      "velocity": 127,
      "chip": "ym2612"
    },
    {
      "channel": 1,
      "note": 83,
      "start": 71.1484,
      "duration": 0.3557,
      "velocity": 103,
      "chip": "ym2612"
    },
    {
      "channel": 3,
      "note": 59,
      "start": 71.1493,
      "duration": 0.2686,
      "velocity": 96,
      "chip": "ym2612"
    },
    {
      "channel": 4,
      "note": 59,
      "start": 71.1505,
      "duration": 0.2679,
      "velocity": 91,
      "chip": "ym2612"
    },
    {
      "channel": 2,
      "note": 36,
      "start": 71.1518,
      "duration": 0.1742,
      "velocity": 127,
      "chip": "ym2612"
    },
    {
      "channel": 0,
      "note": 83,
      "start": 71.1899,
      "duration": 0.3619,
      "velocity": 103,
      "chip": "ym2612"
    },
    {
      "channel": 5,
      "note": 83,
      "start": 71.2369,
      "duration": 0.3581,
      "velocity": 103,
      "chip": "ym2612"
    },
    {
      "channel": 3,
      "note": 59,
      "start": 71.4183,
      "duration": 0.2691,
      "velocity": 96,
      "chip": "ym2612"
    },
    {
      "channel": 4,
      "note": 59,
      "start": 71.4189,
      "duration": 0.2688,
      "velocity": 91,
      "chip": "ym2612"
    },
    {
      "channel": 2,
      "note": 69,
      "start": 71.4203,
      "duration": 0.1281,
      "velocity": 127,
      "chip": "ym2612"
    },
    {
      "channel": 1,
      "note": 83,
      "start": 71.5048,
      "duration": 0.3587,
      "velocity": 103,
      "chip": "ym2612"
    },
    {
      "channel": 0,
      "note": 83,
      "start": 71.5525,
      "duration": 0.3554,
      "velocity": 103,
      "chip": "ym2612"
    },
    {
      "channel": 2,
      "note": 69,
      "start": 71.555,
      "duration": 0.1283,
      "velocity": 127,
      "chip": "ym2612"
    },
    {
      "channel": 5,
      "note": 83,
      "start": 71.5956,
      "duration": 0.3616,
      "velocity": 103,
      "chip": "ym2612"
    },
    {
      "channel": 4,
      "note": 59,
      "start": 71.6881,
      "duration": 0.2684,
      "velocity": 91,
      "chip": "ym2612"
    },
    {
      "channel": 2,
      "note": 36,
      "start": 71.6893,
      "duration": 0.1762,
      "velocity": 127,
      "chip": "ym2612"
    },
    {
      "channel": 3,
      "note": 59,
      "start": 71.8196,
      "duration": 0.2716,
      "velocity": 96,
      "chip": "ym2612"
    },
    {
      "channel": 1,
      "note": 83,
      "start": 71.8641,
      "duration": 0.3615,
      "velocity": 103,
      "chip": "ym2612"
    },
    {
      "channel": 0,
      "note": 83,
      "start": 71.9086,
      "duration": 0.3592,
      "velocity": 103,
      "chip": "ym2612"
    },
    {
      "channel": 4,
      "note": 59,
      "start": 71.957,
      "duration": 0.2697,
      "velocity": 91,
      "chip": "ym2612"
    },
    {
      "channel": 5,
      "note": 83,
      "start": 71.958,
      "duration": 0.3554,
      "velocity": 103,
      "chip": "ym2612"
    },
    {
      "channel": 2,
      "note": 69,
      "start": 71.959,
      "duration": 0.1285,
      "velocity": 127,
      "chip": "ym2612"
    },
    {
      "channel": 3,
      "note": 59,
      "start": 72.0916,
      "duration": 0.1348,
      "velocity": 96,
      "chip": "ym2612"
    },
    {
      "channel": 2,
      "note": 69,
      "start": 72.0934,
      "duration": 0.1288,
      "velocity": 127,
      "chip": "ym2612"
    },
    {
      "channel": 1,
      "note": 83,
      "start": 72.2262,
      "duration": 0.3559,
      "velocity": 103,
      "chip": "ym2612"
    },
    {
      "channel": 4,
      "note": 59,
      "start": 72.2272,
      "duration": 0.2686,
      "velocity": 91,
      "chip": "ym2612"
    },
    {
      "channel": 2,
      "note": 36,
      "start": 72.2285,
      "duration": 0.1755,
      "velocity": 127,
      "chip": "ym2612"
    },
    {
      "channel": 0,
      "note": 83,
      "start": 72.2685,
      "duration": 0.3609,
      "velocity": 103,
      "chip": "ym2612"
    },
    {
      "channel": 5,
      "note": 83,
      "start": 72.3141,
      "duration": 0.3589,
      "velocity": 103,
      "chip": "ym2612"
    },
    {
      "channel": 3,
      "note": 59,
      "start": 72.3584,
      "duration": 0.2722,
      "velocity": 96,
      "chip": "ym2612"
    },
    {
      "channel": 4,
      "note": 59,
      "start": 72.4963,
      "duration": 0.2693,
      "velocity": 91,
      "chip": "ym2612"
    },
    {
      "channel": 2,
      "note": 69,
      "start": 72.4977,
      "duration": 0.1288,
      "velocity": 127,
      "chip": "ym2612"
    },
    {
      "channel": 1,
      "note": 83,
      "start": 72.5828,
      "duration": 0.3587,
      "velocity": 103,
      "chip": "ym2612"
    },
    {
      "channel": 0,
      "note": 83,
      "start": 72.6301,
      "duration": 0.3558,
      "velocity": 103,
      "chip": "ym2612"
    },
    {
      "channel": 3,
      "note": 59,
      "start": 72.6311,
      "duration": 0.1339,
      "velocity": 96,
      "chip": "ym2612"
    },
    {
      "channel": 2,
      "note": 69,
      "start": 72.6329,
      "duration": 0.1284,
      "velocity": 127,
      "chip": "ym2612"
    },
    {
      "channel": 5,
      "note": 83,
      "start": 72.6737,
      "duration": 0.3623,
      "velocity": 103,
      "chip": "ym2612"
    },
    {
      "channel": 3,
      "note": 59,
      "start": 72.7654,
      "duration": 0.2693,
      "velocity": 96,
      "chip": "ym2612"
    },
    {
      "channel": 4,
      "note": 59,
      "start": 72.766,
      "duration": 0.2693,
      "velocity": 91,
      "chip": "ym2612"
    },
    {
      "channel": 2,
      "note": 69,
      "start": 72.7676,
      "duration": 0.1283,
      "velocity": 127,
      "chip": "ym2612"
    },
    {
      "channel": 2,
      "note": 69,
      "start": 72.902,
      "duration": 0.1288,
      "velocity": 127,
      "chip": "ym2612"
    },
    {
      "channel": 1,
      "note": 83,
      "start": 72.9422,
      "duration": 0.3618,
      "velocity": 103,
      "chip": "ym2612"
    },
    {
      "channel": 0,
      "note": 83,
      "start": 72.9866,
      "duration": 0.3587,
      "velocity": 103,
      "chip": "ym2612"
    },
    {
      "channel": 3,
      "note": 59,
      "start": 73.0351,
      "duration": 0.2698,
      "velocity": 96,
      "chip": "ym2612"
    },
    {
      "channel": 4,
      "note": 59,
      "start": 73.0358,
      "duration": 0.27,
      "velocity": 91,
      "chip": "ym2612"
    },
    {
      "channel": 5,
      "note": 83,
      "start": 73.0367,
      "duration": 0.355,
      "velocity": 103,
      "chip": "ym2612"
    },
    {
      "channel": 2,
      "note": 69,
      "start": 73.0377,
      "duration": 0.1277,
      "velocity": 127,
      "chip": "ym2612"
    },
    {
      "channel": 2,
      "note": 69,
      "start": 73.1716,
      "duration": 0.1291,
      "velocity": 127,
      "chip": "ym2612"
    },
    {
      "channel": 1,
      "note": 83,
      "start": 73.3047,
      "duration": 0.3554,
      "velocity": 103,
      "chip": "ym2612"
    },
    {
      "channel": 3,
      "note": 59,
      "start": 73.3056,
      "duration": 0.2679,
      "velocity": 96,
      "chip": "ym2612"
    },
    {
      "channel": 4,
      "note": 59,
      "start": 73.3065,
      "duration": 0.2676,
      "velocity": 91,
      "chip": "ym2612"
    },
    {
      "channel": 2,
      "note": 36,
      "start": 73.3078,
      "duration": 0.1744,
      "velocity": 127,
      "chip": "ym2612"
    },
    {
      "channel": 0,
      "note": 83,
      "start": 73.346,
      "duration": 0.3615,
      "velocity": 103,
      "chip": "ym2612"
    },
    {
      "channel": 5,
      "note": 83,
      "start": 73.3923,
      "duration": 0.3591,
      "velocity": 103,
      "chip": "ym2612"
    },
    {
      "channel": 3,
      "note": 59,
      "start": 73.5739,
      "duration": 0.2691,
      "velocity": 96,
      "chip": "ym2612"
    },
    {
      "channel": 4,
      "note": 59,
      "start": 73.5745,
      "duration": 0.2688,
      "velocity": 91,
      "chip": "ym2612"
    },
    {
      "channel": 2,
      "note": 69,
      "start": 73.576,
      "duration": 0.1285,
      "velocity": 127,
      "chip": "ym2612"
    },
    {
      "channel": 1,
      "note": 83,
      "start": 73.6608,
      "duration": 0.3587,
      "velocity": 103,
      "chip": "ym2612"
    },
    {
      "channel": 0,
      "note": 83,
      "start": 73.7081,
      "duration": 0.3559,
      "velocity": 103,
      "chip": "ym2612"
    },
    {
      "channel": 2,
      "note": 69,
      "start": 73.7106,
      "duration": 0.1287,
      "velocity": 127,
      "chip": "ym2612"
    },
    {
      "channel": 5,
      "note": 83,
      "start": 73.7521,
      "duration": 0.3612,
      "velocity": 103,
      "chip": "ym2612"
    },
    {
      "channel": 4,
      "note": 59,
      "start": 73.8438,
      "duration": 0.2688,
      "velocity": 91,
      "chip": "ym2612"
    },
    {
      "channel": 2,
      "note": 36,
      "start": 73.845,
      "duration": 0.1765,
      "velocity": 127,
      "chip": "ym2612"
    },
    {
      "channel": 3,
      "note": 59,
      "start": 73.9755,
      "duration": 0.2717,
      "velocity": 96,
      "chip": "ym2612"
    },
    {
      "channel": 1,
      "note": 83,
      "start": 74.0202,
      "duration": 0.3615,
      "velocity": 103,
      "chip": "ym2612"
    },
    {
      "channel": 0,
      "note": 83,
      "start": 74.0647,
      "duration": 0.3586,
      "velocity": 103,
      "chip": "ym2612"
    },
    {
      "channel": 4,
      "note": 59,
      "start": 74.1131,
      "duration": 0.2697,
      "velocity": 91,
      "chip": "ym2612"
    },
    {
      "channel": 5,
      "note": 83,
      "start": 74.114,
      "duration": 0.3554,
      "velocity": 103,
      "chip": "ym2612"
    },
    {
      "channel": 2,
      "note": 69,
      "start": 74.115,
      "duration": 0.1285,
      "velocity": 127,
      "chip": "ym2612"
    },
    {
      "channel": 3,
      "note": 59,
      "start": 74.2477,
      "duration": 0.1348,
      "velocity": 96,
      "chip": "ym2612"
    },
    {
      "channel": 2,
      "note": 69,
      "start": 74.2495,
      "duration": 0.1288,
      "velocity": 127,
      "chip": "ym2612"
    },
    {
      "channel": 1,
      "note": 83,
      "start": 74.3823,
      "duration": 0.3559,
      "velocity": 103,
      "chip": "ym2612"
    },
    {
      "channel": 4,
      "note": 59,
      "start": 74.3832,
      "duration": 0.2691,
      "velocity": 91,
      "chip": "ym2612"
    },
    {
      "channel": 2,
      "note": 36,
      "start": 74.3849,
      "duration": 0.1751,
      "velocity": 127,
      "chip": "ym2612"
    },
    {
      "channel": 0,
      "note": 83,
      "start": 74.424,
      "duration": 0.3619,
      "velocity": 103,
      "chip": "ym2612"
    },
    {
      "channel": 5,
      "note": 83,
      "start": 74.4701,
      "duration": 0.3588,
      "velocity": 103,
      "chip": "ym2612"
    },
    {
      "channel": 3,
      "note": 59,
      "start": 74.5145,
      "duration": 0.2727,
      "velocity": 96,
      "chip": "ym2612"
    },
    {
      "channel": 4,
      "note": 59,
      "start": 74.6528,
      "duration": 0.2691,
      "velocity": 91,
      "chip": "ym2612"
    },
    {
      "channel": 2,
      "note": 69,
      "start": 74.6542,
      "duration": 0.1283,
      "velocity": 127,
      "chip": "ym2612"
    },
    {
      "channel": 1,
      "note": 83,
      "start": 74.7389,
      "duration": 0.3587,
      "velocity": 103,
      "chip": "ym2612"
    },
    {
      "channel": 0,
      "note": 83,
      "start": 74.7866,
      "duration": 0.3554,
      "velocity": 103,
      "chip": "ym2612"
    },
    {
      "channel": 3,
      "note": 59,
      "start": 74.7876,
      "duration": 0.1337,
      "velocity": 96,
      "chip": "ym2612"
    },
    {
      "channel": 2,
      "note": 69,
      "start": 74.7893,
      "duration": 0.1283,
      "velocity": 127,
      "chip": "ym2612"
    },
    {
      "channel": 5,
      "note": 83,
      "start": 74.8297,
      "duration": 0.3619,
      "velocity": 103,
      "chip": "ym2612"
    },
    {
      "channel": 3,
      "note": 59,
      "start": 74.9217,
      "duration": 0.2686,
      "velocity": 96,
      "chip": "ym2612"
    },
    {
      "channel": 4,
      "note": 59,
      "start": 74.9223,
      "duration": 0.2686,
      "velocity": 91,
      "chip": "ym2612"
    },
    {
      "channel": 2,
      "note": 69,
      "start": 74.9236,
      "duration": 0.1285,
      "velocity": 127,
      "chip": "ym2612"
    },
    {
      "channel": 2,
      "note": 69,
      "start": 75.0577,
      "duration": 0.1291,
      "velocity": 127,
      "chip": "ym2612"
    },
    {
      "channel": 1,
      "note": 83,
      "start": 75.0983,
      "duration": 0.3615,
      "velocity": 103,
      "chip": "ym2612"
    },
    {
      "channel": 0,
      "note": 83,
      "start": 75.1427,
      "duration": 0.3586,
      "velocity": 103,
      "chip": "ym2612"
    },
    {
      "channel": 3,
      "note": 59,
      "start": 75.1907,
      "duration": 0.2699,
      "velocity": 96,
      "chip": "ym2612"
    },
    {
      "channel": 4,
      "note": 59,
      "start": 75.1913,
      "duration": 0.2702,
      "velocity": 91,
      "chip": "ym2612"
    },
    {
      "channel": 5,
      "note": 83,
      "start": 75.1923,
      "duration": 0.3555,
      "velocity": 103,
      "chip": "ym2612"
    },
    {
      "channel": 2,
      "note": 69,
      "start": 75.1933,
      "duration": 0.1283,
      "velocity": 127,
      "chip": "ym2612"
    },
    {
      "channel": 2,
      "note": 69,
      "start": 75.3273,
      "duration": 0.1291,
      "velocity": 127,
      "chip": "ym2612"
    },
    {
      "channel": 1,
      "note": 83,
      "start": 75.4604,
      "duration": 0.3558,
      "velocity": 103,
      "chip": "ym2612"
    },
    {
      "channel": 3,
      "note": 59,
      "start": 75.4613,
      "duration": 0.2683,
      "velocity": 96,
      "chip": "ym2612"
    },
    {
      "channel": 4,
      "note": 59,
      "start": 75.4621,
      "duration": 0.2681,
      "velocity": 91,
      "chip": "ym2612"
    },
    {
      "channel": 2,
      "note": 36,
      "start": 75.4634,
      "duration": 0.1746,
      "velocity": 127,
      "chip": "ym2612"
    },
    {
      "channel": 0,
      "note": 83,
      "start": 75.5021,
      "duration": 0.3613,
      "velocity": 103,
      "chip": "ym2612"
    },
    {
      "channel": 5,
      "note": 83,
      "start": 75.5484,
      "duration": 0.3589,
      "velocity": 103,
      "chip": "ym2612"
    },
    {
      "channel": 3,
      "note": 59,
      "start": 75.73,
      "duration": 0.269,
      "velocity": 96,
      "chip": "ym2612"
    },
    {
      "channel": 4,
      "note": 59,
      "start": 75.7306,
      "duration": 0.2687,
      "velocity": 91,
      "chip": "ym2612"
    },
    {
      "channel": 2,
      "note": 69,
      "start": 75.7321,
      "duration": 0.1284,
      "velocity": 127,
      "chip": "ym2612"
    },
    {
      "channel": 1,
      "note": 83,
      "start": 75.8173,
      "duration": 0.3583,
      "velocity": 103,
      "chip": "ym2612"
    },
    {
      "channel": 0,
      "note": 83,
      "start": 75.8641,
      "duration": 0.356,
      "velocity": 103,
      "chip": "ym2612"
    },
    {
      "channel": 2,
      "note": 69,
      "start": 75.8666,
      "duration": 0.1287,
      "velocity": 127,
      "chip": "ym2612"
    },
    {
      "channel": 5,
      "note": 83,
      "start": 75.908,
      "duration": 0.3618,
      "velocity": 103,
      "chip": "ym2612"
    },
    {
      "channel": 4,
      "note": 59,
      "start": 75.9998,
      "duration": 0.2694,
      "velocity": 91,
      "chip": "ym2612"
    },
    {
      "channel": 2,
      "note": 36,
      "start": 76.0014,
      "duration": 0.1762,
      "velocity": 127,
      "chip": "ym2612"
    },
    {
      "channel": 3,
      "note": 59,
      "start": 76.1317,
      "duration": 0.272,
      "velocity": 96,
      "chip": "ym2612"
    },
    {
      "channel": 1,
      "note": 83,
      "start": 76.1762,
      "duration": 0.3614,
      "velocity": 103,
      "chip": "ym2612"
    },
    {
      "channel": 0,
      "note": 83,
      "start": 76.2207,
      "duration": 0.3586,
      "velocity": 103,
      "chip": "ym2612"
    },
    {
      "channel": 4,
      "note": 59,
      "start": 76.2696,
      "duration": 0.2692,
      "velocity": 91,
      "chip": "ym2612"
    },
    {
      "channel": 5,
      "note": 83,
      "start": 76.2706,
      "duration": 0.3549,
      "velocity": 103,
      "chip": "ym2612"
    },
    {
      "channel": 2,
      "note": 69,
      "start": 76.2715,
      "duration": 0.128,
      "velocity": 127,
      "chip": "ym2612"
    },
    {
      "channel": 3,
      "note": 59,
      "start": 76.4041,
      "duration": 0.1344,
      "velocity": 96,
      "chip": "ym2612"
    },
    {
      "channel": 2,
      "note": 69,
      "start": 76.4059,
      "duration": 0.1284,
      "velocity": 127,
      "chip": "ym2612"
    },
    {
      "channel": 1,
      "note": 83,
      "start": 76.5383,
      "duration": 0.3559,
      "velocity": 103,
      "chip": "ym2612"
    },
    {
      "channel": 4,
      "note": 59,
      "start": 76.5393,
      "duration": 0.2687,
      "velocity": 91,
      "chip": "ym2612"
    },
    {
      "channel": 2,
      "note": 36,
      "start": 76.5405,
      "duration": 0.1755,
      "velocity": 127,
      "chip": "ym2612"
    },
    {
      "channel": 0,
      "note": 83,
      "start": 76.58,
      "duration": 0.3616,
      "velocity": 103,
      "chip": "ym2612"
    },
    {
      "channel": 5,
      "note": 83,
      "start": 76.6261,
      "duration": 0.3593,
      "velocity": 103,
      "chip": "ym2612"
    },
    {
      "channel": 3,
      "note": 59,
      "start": 76.6705,
      "duration": 0.2722,
      "velocity": 96,
      "chip": "ym2612"
    },
    {
      "channel": 4,
      "note": 59,
      "start": 76.8084,
      "duration": 0.2692,
      "velocity": 91,
      "chip": "ym2612"
    },
    {
      "channel": 2,
      "note": 69,
      "start": 76.8099,
      "duration": 0.1288,
      "velocity": 127,
      "chip": "ym2612"
    },
    {
      "channel": 1,
      "note": 83,
      "start": 76.8949,
      "duration": 0.3586,
      "velocity": 103,
      "chip": "ym2612"
    },
    {
      "channel": 0,
      "note": 83,
      "start": 76.9423,
      "duration": 0.3557,
      "velocity": 103,
      "chip": "ym2612"
    },
    {
      "channel": 3,
      "note": 59,
      "start": 76.9432,
      "duration": 0.1338,
      "velocity": 96,
      "chip": "ym2612"
    },
    {
      "channel": 2,
      "note": 69,
      "start": 76.945,
      "duration": 0.1283,
      "velocity": 127,
      "chip": "ym2612"
    },
    {
      "channel": 5,
      "note": 83,
      "start": 76.9861,
      "duration": 0.3615,
      "velocity": 103,
      "chip": "ym2612"
    },
    {
      "channel": 3,
      "note": 59,
      "start": 77.0774,
      "duration": 0.2688,
      "velocity": 96,
      "chip": "ym2612"
    },
    {
      "channel": 4,
      "note": 59,
      "start": 77.0781,
      "duration": 0.2688,
      "velocity": 91,
      "chip": "ym2612"
    },
    {
      "channel": 2,
      "note": 69,
      "start": 77.0793,
      "duration": 0.1288,
      "velocity": 127,
      "chip": "ym2612"
    },
    {
      "channel": 2,
      "note": 69,
      "start": 77.2137,
      "duration": 0.1291,
      "velocity": 127,
      "chip": "ym2612"
    },
    {
      "channel": 1,
      "note": 83,
      "start": 77.2543,
      "duration": 0.368,
      "velocity": 86,
      "chip": "ym2612"
    },
    {
      "channel": 0,
      "note": 83,
      "start": 77.2987,
      "duration": 0.3199,
      "velocity": 86,
      "chip": "ym2612"
    },
    {
      "channel": 3,
      "note": 59,
      "start": 77.3467,
      "duration": 0.2765,
      "velocity": 96,
      "chip": "ym2612"
    },
    {
      "channel": 4,
      "note": 59,
      "start": 77.3473,
      "duration": 0.2767,
      "velocity": 91,
      "chip": "ym2612"
    },
    {
      "channel": 5,
      "note": 83,
      "start": 77.3483,
      "duration": 0.3134,
      "velocity": 86,
      "chip": "ym2612"
    },
    {
      "channel": 2,
      "note": 69,
      "start": 77.3493,
      "duration": 0.1283,
      "velocity": 127,
      "chip": "ym2612"
    },
    {
      "channel": 2,
      "note": 69,
      "start": 77.4833,
      "duration": 0.1291,
      "velocity": 127,
      "chip": "ym2612"
    },
    {
      "channel": 0,
      "note": 71,
      "start": 77.6193,
      "duration": 0.2658,
      "velocity": 86,
      "chip": "ym2612"
    },
    {
      "channel": 1,
      "note": 66,
      "start": 77.623,
      "duration": 0.2629,
      "velocity": 86,
      "chip": "ym2612"
    },
    {
      "channel": 3,
      "note": 59,
      "start": 77.6238,
      "duration": 0.2628,
      "velocity": 96,
      "chip": "ym2612"
    },
    {
      "channel": 4,
      "note": 59,
      "start": 77.6246,
      "duration": 0.2626,
      "velocity": 91,
      "chip": "ym2612"
    },
    {
      "channel": 2,
      "note": 36,
      "start": 77.626,
      "duration": 0.1682,
      "velocity": 127,
      "chip": "ym2612"
    },
    {
      "channel": 5,
      "note": 71,
      "start": 77.6624,
      "duration": 0.2658,
      "velocity": 86,
      "chip": "ym2612"
    },
    {
      "channel": 0,
      "note": 80,
      "start": 77.8856,
      "duration": 0.2687,
      "velocity": 86,
      "chip": "ym2612"
    },
    {
      "channel": 1,
      "note": 75,
      "start": 77.8865,
      "duration": 0.2687,
      "velocity": 86,
      "chip": "ym2612"
    },
    {
      "channel": 3,
      "note": 59,
      "start": 77.8871,
      "duration": 0.2688,
      "velocity": 96,
      "chip": "ym2612"
    },
    {
      "channel": 4,
      "note": 59,
      "start": 77.8877,
      "duration": 0.2686,
      "velocity": 91,
      "chip": "ym2612"
    },
    {
      "channel": 2,
      "note": 69,
      "start": 77.8892,
      "duration": 0.1273,
      "velocity": 127,
      "chip": "ym2612"
    },
    {
      "channel": 5,
      "note": 80,
      "start": 77.9289,
      "duration": 0.2685,
      "velocity": 86,
      "chip": "ym2612"
    },
    {
      "channel": 2,
      "note": 69,
      "start": 78.0226,
      "duration": 0.129,
      "velocity": 127,
      "chip": "ym2612"
    },
    {
      "channel": 0,
      "note": 78,
      "start": 78.155,
      "duration": 0.2686,
      "velocity": 86,
      "chip": "ym2612"
    },
    {
      "channel": 1,
      "note": 73,
      "start": 78.1558,
      "duration": 0.2686,
      "velocity": 86,
      "chip": "ym2612"
    },
    {
      "channel": 4,
      "note": 59,
      "start": 78.1568,
      "duration": 0.2688,
      "velocity": 91,
      "chip": "ym2612"
    },
    {
      "channel": 2,
      "note": 36,
      "start": 78.158,
      "duration": 0.1751,
      "velocity": 127,
      "chip": "ym2612"
    },
    {
      "channel": 5,
      "note": 78,
      "start": 78.1981,
      "duration": 0.2695,
      "velocity": 86,
      "chip": "ym2612"
    },
    {
      "channel": 3,
      "note": 59,
      "start": 78.2877,
      "duration": 0.2716,
      "velocity": 96,
      "chip": "ym2612"
    },
    {
      "channel": 0,
      "note": 77,
      "start": 78.4243,
      "duration": 0.2688,
      "velocity": 86,
      "chip": "ym2612"
    },
    {
      "channel": 1,
      "note": 72,
      "start": 78.4251,
      "duration": 0.2688,
      "velocity": 86,
      "chip": "ym2612"
    },
    {
      "channel": 4,
      "note": 59,
      "start": 78.4261,
      "duration": 0.2691,
      "velocity": 91,
      "chip": "ym2612"
    },
    {
      "channel": 2,
      "note": 69,
      "start": 78.4275,
      "duration": 0.128,
      "velocity": 127,
      "chip": "ym2612"
    },
    {
      "channel": 5,
      "note": 77,
      "start": 78.4683,
      "duration": 0.2681,
      "velocity": 86,
      "chip": "ym2612"
    },
    {
      "channel": 3,
      "note": 59,
      "start": 78.5597,
      "duration": 0.1351,
      "velocity": 96,
      "chip": "ym2612"
    },
    {
      "channel": 2,
      "note": 69,
      "start": 78.5614,
      "duration": 0.129,
      "velocity": 127,
      "chip": "ym2612"
    },
    {
      "channel": 0,
      "note": 78,
      "start": 78.6939,
      "duration": 0.2688,
      "velocity": 86,
      "chip": "ym2612"
    },
    {
      "channel": 1,
      "note": 73,
      "start": 78.6947,
      "duration": 0.2688,
      "velocity": 86,
      "chip": "ym2612"
    },
    {
      "channel": 4,
      "note": 59,
      "start": 78.6956,
      "duration": 0.269,
      "velocity": 91,
      "chip": "ym2612"
    },
    {
      "channel": 2,
      "note": 36,
      "start": 78.6968,
      "duration": 0.1754,
      "velocity": 127,
      "chip": "ym2612"
    },
    {
      "channel": 5,
      "note": 78,
      "start": 78.7371,
      "duration": 0.2691,
      "velocity": 86,
      "chip": "ym2612"
    },
    {
      "channel": 3,
      "note": 59,
      "start": 78.8266,
      "duration": 0.2717,
      "velocity": 96,
      "chip": "ym2612"
    },
    {
      "channel": 0,
      "note": 80,
      "start": 78.9633,
      "duration": 0.2688,
      "velocity": 86,
      "chip": "ym2612"
    },
    {
      "channel": 1,
      "note": 75,
      "start": 78.9641,
      "duration": 0.2688,
      "velocity": 86,
      "chip": "ym2612"
    },
    {
      "channel": 4,
      "note": 59,
      "start": 78.965,
      "duration": 0.2697,
      "velocity": 91,
      "chip": "ym2612"
    },
    {
      "channel": 2,
      "note": 69,
      "start": 78.9665,
      "duration": 0.1281,
      "velocity": 127,
      "chip": "ym2612"
    },
    {
      "channel": 5,
      "note": 80,
      "start": 79.007,
      "duration": 0.2688,
      "velocity": 86,
      "chip": "ym2612"
    },
    {
      "channel": 3,
      "note": 59,
      "start": 79.0988,
      "duration": 0.1354,
      "velocity": 96,
      "chip": "ym2612"
    },
    {
      "channel": 2,
      "note": 69,
      "start": 79.1009,
      "duration": 0.1284,
      "velocity": 127,
      "chip": "ym2612"
    },
    {
      "channel": 0,
      "note": 81,
      "start": 79.2328,
      "duration": 0.2693,
      "velocity": 86,
      "chip": "ym2612"
    },
    {
      "channel": 1,
      "note": 76,
      "start": 79.2341,
      "duration": 0.2688,
      "velocity": 86,
      "chip": "ym2612"
    },
    {
      "channel": 3,
      "note": 59,
      "start": 79.2346,
      "duration": 0.2691,
      "velocity": 96,
      "chip": "ym2612"
    },
    {
      "channel": 4,
      "note": 59,
      "start": 79.2352,
      "duration": 0.2691,
      "velocity": 91,
      "chip": "ym2612"
    },
    {
      "channel": 2,
      "note": 69,
      "start": 79.2366,
      "duration": 0.1278,
      "velocity": 127,
      "chip": "ym2612"
    },
    {
      "channel": 5,
      "note": 81,
      "start": 79.2764,
      "duration": 0.2688,
      "velocity": 86,
      "chip": "ym2612"
    },
    {
      "channel": 2,
      "note": 69,
      "start": 79.3703,
      "duration": 0.1285,
      "velocity": 127,
      "chip": "ym2612"
    },
    {
      "channel": 0,
      "note": 80,
      "start": 79.5028,
      "duration": 0.2685,
      "velocity": 86,
      "chip": "ym2612"
    },
    {
      "channel": 1,
      "note": 75,
      "start": 79.5036,
      "duration": 0.2685,
      "velocity": 86,
      "chip": "ym2612"
    },
    {
      "channel": 3,
      "note": 59,
      "start": 79.5042,
      "duration": 0.2688,
      "velocity": 96,
      "chip": "ym2612"
    },
    {
      "channel": 4,
      "note": 59,
      "start": 79.5047,
      "duration": 0.2691,
      "velocity": 91,
      "chip": "ym2612"
    },
    {
      "channel": 2,
      "note": 69,
      "start": 79.5062,
      "duration": 0.1279,
      "velocity": 127,
      "chip": "ym2612"
    },
    {
      "channel": 5,
      "note": 80,
      "start": 79.5459,
      "duration": 0.2689,
      "velocity": 86,
      "chip": "ym2612"
    },
    {
      "channel": 2,
      "note": 69,
      "start": 79.6397,
      "duration": 0.1288,
      "velocity": 127,
      "chip": "ym2612"
    },
    {
      "channel": 0,
      "note": 78,
      "start": 79.772,
      "duration": 0.2687,
      "velocity": 86,
      "chip": "ym2612"
    },
    {
      "channel": 1,
      "note": 73,
      "start": 79.7728,
      "duration": 0.2687,
      "velocity": 86,
      "chip": "ym2612"
    },
    {
      "channel": 3,
      "note": 59,
      "start": 79.7736,
      "duration": 0.2687,
      "velocity": 96,
      "chip": "ym2612"
    },
    {
      "channel": 4,
      "note": 59,
      "start": 79.7745,
      "duration": 0.2684,
      "velocity": 91,
      "chip": "ym2612"
    },
    {
      "channel": 2,
      "note": 36,
      "start": 79.7757,
      "duration": 0.1749,
      "velocity": 127,
      "chip": "ym2612"
    },
    {
      "channel": 5,
      "note": 78,
      "start": 79.8154,
      "duration": 0.2692,
      "velocity": 86,
      "chip": "ym2612"
    },
    {
      "channel": 0,
      "note": 77,
      "start": 80.0414,
      "duration": 0.2688,
      "velocity": 86,
      "chip": "ym2612"
    },
    {
      "channel": 1,
      "note": 72,
      "start": 80.0422,
      "duration": 0.2688,
      "velocity": 86,
      "chip": "ym2612"
    },
    {
      "channel": 3,
      "note": 59,
      "start": 80.0428,
      "duration": 0.269,
      "velocity": 96,
      "chip": "ym2612"
    },
    {
      "channel": 4,
      "note": 59,
      "start": 80.0434,
      "duration": 0.2688,
      "velocity": 91,
      "chip": "ym2612"
    },
    {
      "channel": 2,
      "note": 69,
      "start": 80.0448,
      "duration": 0.1279,
      "velocity": 127,
      "chip": "ym2612"
    },
    {
      "channel": 5,
      "note": 77,
      "start": 80.0853,
      "duration": 0.2682,
      "velocity": 86,
      "chip": "ym2612"
    },
    {
      "channel": 2,
      "note": 69,
      "start": 80.1783,
      "duration": 0.1291,
      "velocity": 127,
      "chip": "ym2612"
    },
    {
      "channel": 0,
      "note": 78,
      "start": 80.3108,
      "duration": 0.2692,
      "velocity": 86,
      "chip": "ym2612"
    },
    {
      "channel": 1,
      "note": 73,
      "start": 80.3117,
      "duration": 0.2691,
      "velocity": 86,
      "chip": "ym2612"
    },
    {
      "channel": 4,
      "note": 59,
      "start": 80.3126,
      "duration": 0.2694,
      "velocity": 91,
      "chip": "ym2612"
    },
    {
      "channel": 2,
      "note": 36,
      "start": 80.3138,
      "duration": 0.1753,
      "velocity": 127,
      "chip": "ym2612"
    },
    {
      "channel": 5,
      "note": 78,
      "start": 80.3542,
      "duration": 0.2691,
      "velocity": 86,
      "chip": "ym2612"
    },
    {
      "channel": 3,
      "note": 59,
      "start": 80.4437,
      "duration": 0.2717,
      "velocity": 96,
      "chip": "ym2612"
    },
    {
      "channel": 0,
      "note": 80,
      "start": 80.5807,
      "duration": 0.2686,
      "velocity": 86,
      "chip": "ym2612"
    },
    {
      "channel": 1,
      "note": 75,
      "start": 80.5815,
      "duration": 0.2688,
      "velocity": 86,
      "chip": "ym2612"
    },
    {
      "channel": 4,
      "note": 59,
      "start": 80.5824,
      "duration": 0.2692,
      "velocity": 91,
      "chip": "ym2612"
    },
    {
      "channel": 2,
      "note": 69,
      "start": 80.5843,
      "duration": 0.1274,
      "velocity": 127,
      "chip": "ym2612"
    },
    {
      "channel": 5,
      "note": 80,
      "start": 80.6239,
      "duration": 0.2686,
      "velocity": 86,
      "chip": "ym2612"
    },
    {
      "channel": 3,
      "note": 59,
      "start": 80.7158,
      "duration": 0.1355,
      "velocity": 96,
      "chip": "ym2612"
    },
    {
      "channel": 2,
      "note": 69,
      "start": 80.7179,
      "duration": 0.1285,
      "velocity": 127,
      "chip": "ym2612"
    },
    {
      "channel": 0,
      "note": 81,
      "start": 80.8499,
      "duration": 0.5383,
      "velocity": 86,
      "chip": "ym2612"
    },
    {
      "channel": 1,
      "note": 76,
      "start": 80.8512,
      "duration": 0.5378,
      "velocity": 86,
      "chip": "ym2612"
    },
    {
      "channel": 4,
      "note": 59,
      "start": 80.8521,
      "duration": 0.2683,
      "velocity": 91,
      "chip": "ym2612"
    },
    {
      "channel": 2,
      "note": 36,
      "start": 80.8534,
      "duration": 0.1747,
      "velocity": 127,
      "chip": "ym2612"
    },
    {
      "channel": 5,
      "note": 81,
      "start": 80.8932,
      "duration": 0.5387,
      "velocity": 86,
      "chip": "ym2612"
    },
    {
      "channel": 3,
      "note": 59,
      "start": 80.9827,
      "duration": 0.272,
      "velocity": 96,
      "chip": "ym2612"
    },
    {
      "channel": 4,
      "note": 59,
      "start": 81.1208,
      "duration": 0.2697,
      "velocity": 91,
      "chip": "ym2612"
    },
    {
      "channel": 2,
      "note": 69,
      "start": 81.1223,
      "duration": 0.1286,
      "velocity": 127,
      "chip": "ym2612"
    },
    {
      "channel": 3,
      "note": 59,
      "start": 81.2551,
      "duration": 0.1348,
      "velocity": 96,
      "chip": "ym2612"
    },
    {
      "channel": 2,
      "note": 69,
      "start": 81.2568,
      "duration": 0.1286,
      "velocity": 127,
      "chip": "ym2612"
    },
    {
      "channel": 0,
      "note": 76,
      "start": 81.3889,
      "duration": 0.2688,
      "velocity": 86,
      "chip": "ym2612"
    },
    {
      "channel": 1,
      "note": 71,
      "start": 81.3897,
      "duration": 0.2688,
      "velocity": 86,
      "chip": "ym2612"
    },
    {
      "channel": 3,
      "note": 59,
      "start": 81.3903,
      "duration": 0.269,
      "velocity": 96,
      "chip": "ym2612"
    },
    {
      "channel": 4,
      "note": 59,
      "start": 81.3909,
      "duration": 0.269,
      "velocity": 91,
      "chip": "ym2612"
    },
    {
      "channel": 2,
      "note": 69,
      "start": 81.3922,
      "duration": 0.1279,
      "velocity": 127,
      "chip": "ym2612"
    },
    {
      "channel": 5,
      "note": 76,
      "start": 81.4325,
      "duration": 0.2692,
      "velocity": 86,
      "chip": "ym2612"
    },
    {
      "channel": 2,
      "note": 69,
      "start": 81.5257,
      "duration": 0.1292,
      "velocity": 127,
      "chip": "ym2612"
    },
    {
      "channel": 0,
      "note": 74,
      "start": 81.6584,
      "duration": 0.269,
      "velocity": 86,
      "chip": "ym2612"
    },
    {
      "channel": 1,
      "note": 69,
      "start": 81.6592,
      "duration": 0.2689,
      "velocity": 86,
      "chip": "ym2612"
    },
    {
      "channel": 3,
      "note": 59,
      "start": 81.6598,
      "duration": 0.2692,
      "velocity": 96,
      "chip": "ym2612"
    },
    {
      "channel": 4,
      "note": 59,
      "start": 81.6603,
      "duration": 0.2695,
      "velocity": 91,
      "chip": "ym2612"
    },
    {
      "channel": 2,
      "note": 69,
      "start": 81.6618,
      "duration": 0.1279,
      "velocity": 127,
      "chip": "ym2612"
    },
    {
      "channel": 5,
      "note": 74,
      "start": 81.7023,
      "duration": 0.2685,
      "velocity": 86,
      "chip": "ym2612"
    },
    {
      "channel": 2,
      "note": 69,
      "start": 81.7953,
      "duration": 0.1292,
      "velocity": 127,
      "chip": "ym2612"
    },
    {
      "channel": 0,
      "note": 73,
      "start": 81.928,
      "duration": 0.2688,
      "velocity": 86,
      "chip": "ym2612"
    },
    {
      "channel": 1,
      "note": 68,
      "start": 81.9288,
      "duration": 0.2688,
      "velocity": 86,
      "chip": "ym2612"
    },
    {
      "channel": 3,
      "note": 59,
      "start": 81.9296,
      "duration": 0.2688,
      "velocity": 96,
      "chip": "ym2612"
    },
    {
      "channel": 4,
      "note": 59,
      "start": 81.9304,
      "duration": 0.2685,
      "velocity": 91,
      "chip": "ym2612"
    },
    {
      "channel": 2,
      "note": 36,
      "start": 81.9318,
      "duration": 0.1745,
      "velocity": 127,
      "chip": "ym2612"
    },
    {
      "channel": 5,
      "note": 73,
      "start": 81.9715,
      "duration": 0.2688,
      "velocity": 86,
      "chip": "ym2612"
    },
    {
      "channel": 0,
      "note": 74,
      "start": 82.1974,
      "duration": 0.2688,
      "velocity": 86,
      "chip": "ym2612"
    },
    {
      "channel": 1,
      "note": 69,
      "start": 82.1983,
      "duration": 0.2693,
      "velocity": 86,
      "chip": "ym2612"
    },
    {
      "channel": 3,
      "note": 59,
      "start": 82.1988,
      "duration": 0.2695,
      "velocity": 96,
      "chip": "ym2612"
    },
    {
      "channel": 4,
      "note": 59,
      "start": 82.1994,
      "duration": 0.2693,
      "velocity": 91,
      "chip": "ym2612"
    },
    {
      "channel": 2,
      "note": 69,
      "start": 82.2013,
      "duration": 0.1274,
      "velocity": 127,
      "chip": "ym2612"
    },
    {
      "channel": 5,
      "note": 74,
      "start": 82.241,
      "duration": 0.2686,
      "velocity": 86,
      "chip": "ym2612"
    },
    {
      "channel": 2,
      "note": 69,
      "start": 82.3347,
      "duration": 0.1288,
      "velocity": 127,
      "chip": "ym2612"
    },
    {
      "channel": 0,
      "note": 71,
      "start": 82.4673,
      "duration": 0.2688,
      "velocity": 86,
      "chip": "ym2612"
    },
    {
      "channel": 1,
      "note": 66,
      "start": 82.4682,
      "duration": 0.2688,
      "velocity": 86,
      "chip": "ym2612"
    },
    {
      "channel": 4,
      "note": 59,
      "start": 82.4691,
      "duration": 0.269,
      "velocity": 91,
      "chip": "ym2612"
    },
    {
      "channel": 2,
      "note": 36,
      "start": 82.4704,
      "duration": 0.1748,
      "velocity": 127,
      "chip": "ym2612"
    },
    {
      "channel": 5,
      "note": 71,
      "start": 82.5103,
      "duration": 0.269,
      "velocity": 86,
      "chip": "ym2612"
    },
    {
      "channel": 3,
      "note": 59,
      "start": 82.5998,
      "duration": 0.2716,
      "velocity": 96,
      "chip": "ym2612"
    },
    {
      "channel": 0,
      "note": 70,
      "start": 82.7368,
      "duration": 0.2684,
      "velocity": 86,
      "chip": "ym2612"
    },
    {
      "channel": 1,
      "note": 65,
      "start": 82.7376,
      "duration": 0.2684,
      "velocity": 86,
      "chip": "ym2612"
    },
    {
      "channel": 4,
      "note": 59,
      "start": 82.7385,
      "duration": 0.2686,
      "velocity": 91,
      "chip": "ym2612"
    },
    {
      "channel": 2,
      "note": 69,
      "start": 82.74,
      "duration": 0.1277,
      "velocity": 127,
      "chip": "ym2612"
    },
    {
      "channel": 5,
      "note": 70,
      "start": 82.7799,
      "duration": 0.2686,
      "velocity": 86,
      "chip": "ym2612"
    },
    {
      "channel": 3,
      "note": 59,
      "start": 82.8719,
      "duration": 0.135,
      "velocity": 96,
      "chip": "ym2612"
    },
    {
      "channel": 2,
      "note": 69,
      "start": 82.8736,
      "duration": 0.1288,
      "velocity": 127,
      "chip": "ym2612"
    },
    {
      "channel": 0,
      "note": 71,
      "start": 83.0059,
      "duration": 0.2689,
      "velocity": 86,
      "chip": "ym2612"
    },
    {
      "channel": 1,
      "note": 66,
      "start": 83.0067,
      "duration": 0.2689,
      "velocity": 86,
      "chip": "ym2612"
    },
    {
      "channel": 4,
      "note": 59,
      "start": 83.0076,
      "duration": 0.2692,
      "velocity": 91,
      "chip": "ym2612"
    },
    {
      "channel": 2,
      "note": 36,
      "start": 83.0089,
      "duration": 0.1758,
      "velocity": 127,
      "chip": "ym2612"
    },
    {
      "channel": 5,
      "note": 71,
      "start": 83.0492,
      "duration": 0.2696,
      "velocity": 86,
      "chip": "ym2612"
    },
    {
      "channel": 3,
      "note": 59,
      "start": 83.1388,
      "duration": 0.2716,
      "velocity": 96,
      "chip": "ym2612"
    },
    {
      "channel": 0,
      "note": 73,
      "start": 83.2755,
      "duration": 0.2688,
      "velocity": 86,
      "chip": "ym2612"
    },
    {
      "channel": 1,
      "note": 68,
      "start": 83.2762,
      "duration": 0.2688,
      "velocity": 86,
      "chip": "ym2612"
    },
    {
      "channel": 4,
      "note": 59,
      "start": 83.2772,
      "duration": 0.2693,
      "velocity": 91,
      "chip": "ym2612"
    },
    {
      "channel": 2,
      "note": 69,
      "start": 83.2787,
      "duration": 0.128,
      "velocity": 127,
      "chip": "ym2612"
    },
    {
      "channel": 5,
      "note": 73,
      "start": 83.3195,
      "duration": 0.2684,
      "velocity": 86,
      "chip": "ym2612"
    },
    {
      "channel": 3,
      "note": 59,
      "start": 83.4108,
      "duration": 0.1351,
      "velocity": 96,
      "chip": "ym2612"
    },
    {
      "channel": 2,
      "note": 69,
      "start": 83.4126,
      "duration": 0.1289,
      "velocity": 127,
      "chip": "ym2612"
    },
    {
      "channel": 0,
      "note": 71,
      "start": 83.5449,
      "duration": 0.2688,
      "velocity": 86,
      "chip": "ym2612"
    },
    {
      "channel": 1,
      "note": 66,
      "start": 83.5457,
      "duration": 0.2688,
      "velocity": 86,
      "chip": "ym2612"
    },
    {
      "channel": 3,
      "note": 59,
      "start": 83.5463,
      "duration": 0.269,
      "velocity": 96,
      "chip": "ym2612"
    },
    {
      "channel": 4,
      "note": 59,
      "start": 83.5469,
      "duration": 0.269,
      "velocity": 91,
      "chip": "ym2612"
    },
    {
      "channel": 2,
      "note": 69,
      "start": 83.5483,
      "duration": 0.1279,
      "velocity": 127,
      "chip": "ym2612"
    },
    {
      "channel": 5,
      "note": 71,
      "start": 83.5885,
      "duration": 0.2688,
      "velocity": 86,
      "chip": "ym2612"
    },
    {
      "channel": 2,
      "note": 69,
      "start": 83.6817,
      "duration": 0.1293,
      "velocity": 127,
      "chip": "ym2612"
    },
    {
      "channel": 0,
      "note": 70,
      "start": 83.8144,
      "duration": 0.2689,
      "velocity": 86,
      "chip": "ym2612"
    },
    {
      "channel": 1,
      "note": 65,
      "start": 83.8152,
      "duration": 0.2694,
      "velocity": 86,
      "chip": "ym2612"
    },
    {
      "channel": 3,
      "note": 59,
      "start": 83.8158,
      "duration": 0.2697,
      "velocity": 96,
      "chip": "ym2612"
    },
    {
      "channel": 4,
      "note": 59,
      "start": 83.8164,
      "duration": 0.2699,
      "velocity": 91,
      "chip": "ym2612"
    },
    {
      "channel": 2,
      "note": 69,
      "start": 83.8182,
      "duration": 0.1275,
      "velocity": 127,
      "chip": "ym2612"
    },
    {
      "channel": 5,
      "note": 70,
      "start": 83.858,
      "duration": 0.2688,
      "velocity": 86,
      "chip": "ym2612"
    },
    {
      "channel": 2,
      "note": 69,
      "start": 83.9518,
      "duration": 0.1287,
      "velocity": 127,
      "chip": "ym2612"
    },
    {
      "channel": 0,
      "note": 71,
      "start": 84.0844,
      "duration": 1.0769,
      "velocity": 86,
      "chip": "ym2612"
    },
    {
      "channel": 1,
      "note": 66,
      "start": 84.0852,
      "duration": 1.0764,
      "velocity": 86,
      "chip": "ym2612"
    },
    {
      "channel": 3,
      "note": 59,
      "start": 84.0861,
      "duration": 0.268,
      "velocity": 96,
      "chip": "ym2612"
    },
    {
      "channel": 4,
      "note": 59,
      "start": 84.0869,
      "duration": 0.2678,
      "velocity": 91,
      "chip": "ym2612"
    },
    {
      "channel": 2,
      "note": 36,
      "start": 84.0882,
      "duration": 0.1741,
      "velocity": 127,
      "chip": "ym2612"
    },
    {
      "channel": 5,
      "note": 71,
      "start": 84.1275,
      "duration": 1.0765,
      "velocity": 86,
      "chip": "ym2612"
    },
    {
      "channel": 3,
      "note": 59,
      "start": 84.3545,
      "duration": 0.2686,
      "velocity": 96,
      "chip": "ym2612"
    },
    {
      "channel": 4,
      "note": 59,
      "start": 84.3552,
      "duration": 0.2683,
      "velocity": 91,
      "chip": "ym2612"
    },
    {
      "channel": 2,
      "note": 69,
      "start": 84.3566,
      "duration": 0.128,
      "velocity": 127,
      "chip": "ym2612"
    },
    {
      "channel": 2,
      "note": 69,
      "start": 84.4904,
      "duration": 0.1291,
      "velocity": 127,
      "chip": "ym2612"
    },
    {
      "channel": 4,
      "note": 59,
      "start": 84.6239,
      "duration": 0.2691,
      "velocity": 91,
      "chip": "ym2612"
    },
    {
      "channel": 2,
      "note": 36,
      "start": 84.6252,
      "duration": 0.1765,
      "velocity": 127,
      "chip": "ym2612"
    },
    {
      "channel": 3,
      "note": 59,
      "start": 84.7557,
      "duration": 0.2717,
      "velocity": 96,
      "chip": "ym2612"
    },
    {
      "channel": 4,
      "note": 59,
      "start": 84.8935,
      "duration": 0.2688,
      "velocity": 91,
      "chip": "ym2612"
    },
    {
      "channel": 2,
      "note": 69,
      "start": 84.8949,
      "duration": 0.1288,
      "velocity": 127,
      "chip": "ym2612"
    },
    {
      "channel": 3,
      "note": 59,
      "start": 85.0279,
      "duration": 0.134,
      "velocity": 96,
      "chip": "ym2612"
    },
    {
      "channel": 2,
      "note": 69,
      "start": 85.0297,
      "duration": 0.1287,
      "velocity": 127,
      "chip": "ym2612"
    },
    {
      "channel": 4,
      "note": 59,
      "start": 85.1627,
      "duration": 0.2686,
      "velocity": 91,
      "chip": "ym2612"
    },
    {
      "channel": 2,
      "note": 36,
      "start": 85.164,
      "duration": 0.1752,
      "velocity": 127,
      "chip": "ym2612"
    },
    {
      "channel": 3,
      "note": 59,
      "start": 85.2941,
      "duration": 0.2716,
      "velocity": 96,
      "chip": "ym2612"
    },
    {
      "channel": 4,
      "note": 59,
      "start": 85.4318,
      "duration": 0.2697,
      "velocity": 91,
      "chip": "ym2612"
    },
    {
      "channel": 2,
      "note": 69,
      "start": 85.4329,
      "duration": 0.1298,
      "velocity": 127,
      "chip": "ym2612"
    },
    {
      "channel": 3,
      "note": 59,
      "start": 85.5661,
      "duration": 0.1347,
      "velocity": 96,
      "chip": "ym2612"
    },
    {
      "channel": 2,
      "note": 69,
      "start": 85.568,
      "duration": 0.1295,
      "velocity": 127,
      "chip": "ym2612"
    },
    {
      "channel": 3,
      "note": 59,
      "start": 85.7013,
      "duration": 0.2692,
      "velocity": 96,
      "chip": "ym2612"
    },
    {
      "channel": 4,
      "note": 59,
      "start": 85.7019,
      "duration": 0.2692,
      "velocity": 91,
      "chip": "ym2612"
    },
    {
      "channel": 2,
      "note": 69,
      "start": 85.7028,
      "duration": 0.1293,
      "velocity": 127,
      "chip": "ym2612"
    },
    {
      "channel": 2,
      "note": 69,
      "start": 85.8371,
      "duration": 0.1305,
      "velocity": 127,
      "chip": "ym2612"
    },
    {
      "channel": 3,
      "note": 59,
      "start": 85.9709,
      "duration": 0.2704,
      "velocity": 96,
      "chip": "ym2612"
    },
    {
      "channel": 4,
      "note": 59,
      "start": 85.9715,
      "duration": 0.2707,
      "velocity": 91,
      "chip": "ym2612"
    },
    {
      "channel": 2,
      "note": 69,
      "start": 85.9726,
      "duration": 0.1291,
      "velocity": 127,
      "chip": "ym2612"
    },
    {
      "channel": 2,
      "note": 69,
      "start": 86.1063,
      "duration": 0.1303,
      "velocity": 127,
      "chip": "ym2612"
    },
    {
      "channel": 0,
      "note": 71,
      "start": 86.2402,
      "duration": 0.2687,
      "velocity": 86,
      "chip": "ym2612"
    },
    {
      "channel": 1,
      "note": 66,
      "start": 86.2411,
      "duration": 0.2685,
      "velocity": 86,
      "chip": "ym2612"
    },
    {
      "channel": 3,
      "note": 59,
      "start": 86.242,
      "duration": 0.2685,
      "velocity": 96,
      "chip": "ym2612"
    },
    {
      "channel": 4,
      "note": 59,
      "start": 86.2428,
      "duration": 0.2683,
      "velocity": 91,
      "chip": "ym2612"
    },
    {
      "channel": 2,
      "note": 36,
      "start": 86.2437,
      "duration": 0.1751,
      "velocity": 127,
      "chip": "ym2612"
    },
    {
      "channel": 5,
      "note": 71,
      "start": 86.2842,
      "duration": 0.2682,
      "velocity": 86,
      "chip": "ym2612"
    },
    {
      "channel": 0,
      "note": 80,
      "start": 86.5095,
      "duration": 0.2688,
      "velocity": 86,
      "chip": "ym2612"
    },
    {
      "channel": 1,
      "note": 75,
      "start": 86.5103,
      "duration": 0.2688,
      "velocity": 86,
      "chip": "ym2612"
    },
    {
      "channel": 3,
      "note": 59,
      "start": 86.5109,
      "duration": 0.269,
      "velocity": 96,
      "chip": "ym2612"
    },
    {
      "channel": 4,
      "note": 59,
      "start": 86.5115,
      "duration": 0.2687,
      "velocity": 91,
      "chip": "ym2612"
    },
    {
      "channel": 2,
      "note": 69,
      "start": 86.513,
      "duration": 0.1277,
      "velocity": 127,
      "chip": "ym2612"
    },
    {
      "channel": 5,
      "note": 80,
      "start": 86.553,
      "duration": 0.2686,
      "velocity": 86,
      "chip": "ym2612"
    },
    {
      "channel": 2,
      "note": 69,
      "start": 86.6464,
      "duration": 0.1291,
      "velocity": 127,
      "chip": "ym2612"
    },
    {
      "channel": 0,
      "note": 78,
      "start": 86.779,
      "duration": 0.2688,
      "velocity": 86,
      "chip": "ym2612"
    },
    {
      "channel": 1,
      "note": 73,
      "start": 86.7798,
      "duration": 0.2688,
      "velocity": 86,
      "chip": "ym2612"
    },
    {
      "channel": 4,
      "note": 59,
      "start": 86.7807,
      "duration": 0.2691,
      "velocity": 91,
      "chip": "ym2612"
    },
    {
      "channel": 2,
      "note": 36,
      "start": 86.782,
      "duration": 0.1753,
      "velocity": 127,
      "chip": "ym2612"
    },
    {
      "channel": 5,
      "note": 78,
      "start": 86.8223,
      "duration": 0.2691,
      "velocity": 86,
      "chip": "ym2612"
    },
    {
      "channel": 3,
      "note": 59,
      "start": 86.9119,
      "duration": 0.2718,
      "velocity": 96,
      "chip": "ym2612"
    },
    {
      "channel": 0,
      "note": 77,
      "start": 87.0484,
      "duration": 0.2693,
      "velocity": 86,
      "chip": "ym2612"
    },
    {
      "channel": 1,
      "note": 72,
      "start": 87.0493,
      "duration": 0.2693,
      "velocity": 86,
      "chip": "ym2612"
    },
    {
      "channel": 4,
      "note": 59,
      "start": 87.0506,
      "duration": 0.2691,
      "velocity": 91,
      "chip": "ym2612"
    },
    {
      "channel": 2,
      "note": 69,
      "start": 87.0521,
      "duration": 0.1276,
      "velocity": 127,
      "chip": "ym2612"
    },
    {
      "channel": 5,
      "note": 77,
      "start": 87.0921,
      "duration": 0.2685,
      "velocity": 86,
      "chip": "ym2612"
    },
    {
      "channel": 3,
      "note": 59,
      "start": 87.1843,
      "duration": 0.1351,
      "velocity": 96,
      "chip": "ym2612"
    },
    {
      "channel": 2,
      "note": 69,
      "start": 87.186,
      "duration": 0.1286,
      "velocity": 127,
      "chip": "ym2612"
    },
    {
      "channel": 0,
      "note": 78,
      "start": 87.3184,
      "duration": 0.2687,
      "velocity": 86,
      "chip": "ym2612"
    },
    {
      "channel": 1,
      "note": 73,
      "start": 87.3193,
      "duration": 0.2686,
      "velocity": 86,
      "chip": "ym2612"
    },
    {
      "channel": 4,
      "note": 59,
      "start": 87.3201,
      "duration": 0.269,
      "velocity": 91,
      "chip": "ym2612"
    },
    {
      "channel": 2,
      "note": 36,
      "start": 87.3214,
      "duration": 0.1751,
      "velocity": 127,
      "chip": "ym2612"
    },
    {
      "channel": 5,
      "note": 78,
      "start": 87.3612,
      "duration": 0.2691,
      "velocity": 86,
      "chip": "ym2612"
    },
    {
      "channel": 3,
      "note": 59,
      "start": 87.4512,
      "duration": 0.2713,
      "velocity": 96,
      "chip": "ym2612"
    },
    {
      "channel": 0,
      "note": 80,
      "start": 87.5878,
      "duration": 0.2686,
      "velocity": 86,
      "chip": "ym2612"
    },
    {
      "channel": 1,
      "note": 75,
      "start": 87.5886,
      "duration": 0.2686,
      "velocity": 86,
      "chip": "ym2612"
    },
    {
      "channel": 4,
      "note": 59,
      "start": 87.5895,
      "duration": 0.269,
      "velocity": 91,
      "chip": "ym2612"
    },
    {
      "channel": 2,
      "note": 69,
      "start": 87.591,
      "duration": 0.1278,
      "velocity": 127,
      "chip": "ym2612"
    },
    {
      "channel": 5,
      "note": 80,
      "start": 87.631,
      "duration": 0.2689,
      "velocity": 86,
      "chip": "ym2612"
    },
    {
      "channel": 3,
      "note": 59,
      "start": 87.723,
      "duration": 0.135,
      "velocity": 96,
      "chip": "ym2612"
    },
    {
      "channel": 2,
      "note": 69,
      "start": 87.7247,
      "duration": 0.1288,
      "velocity": 127,
      "chip": "ym2612"
    },
    {
      "channel": 0,
      "note": 81,
      "start": 87.857,
      "duration": 0.2688,
      "velocity": 86,
      "chip": "ym2612"
    },
    {
      "channel": 1,
      "note": 76,
      "start": 87.8578,
      "duration": 0.2688,
      "velocity": 86,
      "chip": "ym2612"
    },
    {
      "channel": 3,
      "note": 59,
      "start": 87.8584,
      "duration": 0.269,
      "velocity": 96,
      "chip": "ym2612"
    },
    {
      "channel": 4,
      "note": 59,
      "start": 87.859,
      "duration": 0.269,
      "velocity": 91,
      "chip": "ym2612"
    },
    {
      "channel": 2,
      "note": 69,
      "start": 87.8603,
      "duration": 0.1279,
      "velocity": 127,
      "chip": "ym2612"
    },
    {
      "channel": 5,
      "note": 81,
      "start": 87.901,
      "duration": 0.2684,
      "velocity": 86,
      "chip": "ym2612"
    },
    {
      "channel": 2,
      "note": 69,
      "start": 87.9937,
      "duration": 0.1293,
      "velocity": 127,
      "chip": "ym2612"
    },
    {
      "channel": 0,
      "note": 80,
      "start": 88.1265,
      "duration": 0.2689,
      "velocity": 86,
      "chip": "ym2612"
    },
    {
      "channel": 1,
      "note": 75,
      "start": 88.1273,
      "duration": 0.2689,
      "velocity": 86,
      "chip": "ym2612"
    },
    {
      "channel": 3,
      "note": 59,
      "start": 88.1279,
      "duration": 0.2692,
      "velocity": 96,
      "chip": "ym2612"
    },
    {
      "channel": 4,
      "note": 59,
      "start": 88.1285,
      "duration": 0.2695,
      "velocity": 91,
      "chip": "ym2612"
    },
    {
      "channel": 2,
      "note": 69,
      "start": 88.1299,
      "duration": 0.1279,
      "velocity": 127,
      "chip": "ym2612"
    },
    {
      "channel": 5,
      "note": 80,
      "start": 88.1701,
      "duration": 0.2688,
      "velocity": 86,
      "chip": "ym2612"
    },
    {
      "channel": 2,
      "note": 69,
      "start": 88.2634,
      "duration": 0.1292,
      "velocity": 127,
      "chip": "ym2612"
    },
    {
      "channel": 0,
      "note": 78,
      "start": 88.3961,
      "duration": 0.2687,
      "velocity": 86,
      "chip": "ym2612"
    },
    {
      "channel": 1,
      "note": 73,
      "start": 88.3969,
      "duration": 0.2687,
      "velocity": 86,
      "chip": "ym2612"
    },
    {
      "channel": 3,
      "note": 59,
      "start": 88.3977,
      "duration": 0.2687,
      "velocity": 96,
      "chip": "ym2612"
    },
    {
      "channel": 4,
      "note": 59,
      "start": 88.3986,
      "duration": 0.2689,
      "velocity": 91,
      "chip": "ym2612"
    },
    {
      "channel": 2,
      "note": 36,
      "start": 88.3998,
      "duration": 0.1745,
      "velocity": 127,
      "chip": "ym2612"
    },
    {
      "channel": 5,
      "note": 78,
      "start": 88.4395,
      "duration": 0.2692,
      "velocity": 86,
      "chip": "ym2612"
    },
    {
      "channel": 0,
      "note": 77,
      "start": 88.6655,
      "duration": 0.2693,
      "velocity": 86,
      "chip": "ym2612"
    },
    {
      "channel": 1,
      "note": 72,
      "start": 88.6663,
      "duration": 0.2692,
      "velocity": 86,
      "chip": "ym2612"
    },
    {
      "channel": 3,
      "note": 59,
      "start": 88.6673,
      "duration": 0.269,
      "velocity": 96,
      "chip": "ym2612"
    },
    {
      "channel": 4,
      "note": 59,
      "start": 88.6679,
      "duration": 0.2688,
      "velocity": 91,
      "chip": "ym2612"
    },
    {
      "channel": 2,
      "note": 69,
      "start": 88.6694,
      "duration": 0.1274,
      "velocity": 127,
      "chip": "ym2612"
    },
    {
      "channel": 5,
      "note": 77,
      "start": 88.7094,
      "duration": 0.2681,
      "velocity": 86,
      "chip": "ym2612"
    },
    {
      "channel": 2,
      "note": 69,
      "start": 88.8028,
      "duration": 0.1287,
      "velocity": 127,
      "chip": "ym2612"
    },
    {
      "channel": 0,
      "note": 78,
      "start": 88.9354,
      "duration": 0.2685,
      "velocity": 86,
      "chip": "ym2612"
    },
    {
      "channel": 1,
      "note": 73,
      "start": 88.9362,
      "duration": 0.2685,
      "velocity": 86,
      "chip": "ym2612"
    },
    {
      "channel": 4,
      "note": 59,
      "start": 88.9371,
      "duration": 0.2688,
      "velocity": 91,
      "chip": "ym2612"
    },
    {
      "channel": 2,
      "note": 36,
      "start": 88.9385,
      "duration": 0.1749,
      "velocity": 127,
      "chip": "ym2612"
    },
    {
      "channel": 5,
      "note": 78,
      "start": 88.9783,
      "duration": 0.2692,
      "velocity": 86,
      "chip": "ym2612"
    },
    {
      "channel": 3,
      "note": 59,
      "start": 89.0683,
      "duration": 0.2712,
      "velocity": 96,
      "chip": "ym2612"
    },
    {
      "channel": 0,
      "note": 80,
      "start": 89.2045,
      "duration": 0.2689,
      "velocity": 86,
      "chip": "ym2612"
    },
    {
      "channel": 1,
      "note": 75,
      "start": 89.2054,
      "duration": 0.2689,
      "velocity": 86,
      "chip": "ym2612"
    },
    {
      "channel": 4,
      "note": 59,
      "start": 89.2063,
      "duration": 0.2691,
      "velocity": 91,
      "chip": "ym2612"
    },
    {
      "channel": 2,
      "note": 69,
      "start": 89.2078,
      "duration": 0.128,
      "velocity": 127,
      "chip": "ym2612"
    },
    {
      "channel": 5,
      "note": 80,
      "start": 89.2481,
      "duration": 0.2686,
      "velocity": 86,
      "chip": "ym2612"
    },
    {
      "channel": 3,
      "note": 59,
      "start": 89.3399,
      "duration": 0.1352,
      "velocity": 96,
      "chip": "ym2612"
    },
    {
      "channel": 2,
      "note": 69,
      "start": 89.3416,
      "duration": 0.1289,
      "velocity": 127,
      "chip": "ym2612"
    },
    {
      "channel": 0,
      "note": 81,
      "start": 89.4741,
      "duration": 0.5383,
      "velocity": 86,
      "chip": "ym2612"
    },
    {
      "channel": 1,
      "note": 76,
      "start": 89.4749,
      "duration": 0.5383,
      "velocity": 86,
      "chip": "ym2612"
    },
    {
      "channel": 4,
      "note": 59,
      "start": 89.4759,
      "duration": 0.2684,
      "velocity": 91,
      "chip": "ym2612"
    },
    {
      "channel": 2,
      "note": 36,
      "start": 89.4771,
      "duration": 0.1756,
      "velocity": 127,
      "chip": "ym2612"
    },
    {
      "channel": 5,
      "note": 81,
      "start": 89.5178,
      "duration": 0.5382,
      "velocity": 86,
      "chip": "ym2612"
    },
    {
      "channel": 3,
      "note": 59,
      "start": 89.6068,
      "duration": 0.2716,
      "velocity": 96,
      "chip": "ym2612"
    },
    {
      "channel": 4,
      "note": 59,
      "start": 89.7447,
      "duration": 0.2699,
      "velocity": 91,
      "chip": "ym2612"
    },
    {
      "channel": 2,
      "note": 69,
      "start": 89.7461,
      "duration": 0.1286,
      "velocity": 127,
      "chip": "ym2612"
    },
    {
      "channel": 3,
      "note": 59,
      "start": 89.8789,
      "duration": 0.1351,
      "velocity": 96,
      "chip": "ym2612"
    },
    {
      "channel": 2,
      "note": 69,
      "start": 89.8807,
      "duration": 0.1288,
      "velocity": 127,
      "chip": "ym2612"
    },
    {
      "channel": 0,
      "note": 76,
      "start": 90.0131,
      "duration": 0.2688,
      "velocity": 86,
      "chip": "ym2612"
    },
    {
      "channel": 1,
      "note": 71,
      "start": 90.0139,
      "duration": 0.2688,
      "velocity": 86,
      "chip": "ym2612"
    },
    {
      "channel": 3,
      "note": 59,
      "start": 90.0145,
      "duration": 0.2695,
      "velocity": 96,
      "chip": "ym2612"
    },
    {
      "channel": 4,
      "note": 59,
      "start": 90.015,
      "duration": 0.2695,
      "velocity": 91,
      "chip": "ym2612"
    },
    {
      "channel": 2,
      "note": 69,
      "start": 90.0164,
      "duration": 0.1279,
      "velocity": 127,
      "chip": "ym2612"
    },
    {
      "channel": 5,
      "note": 76,
      "start": 90.0566,
      "duration": 0.2688,
      "velocity": 86,
      "chip": "ym2612"
    },
    {
      "channel": 2,
      "note": 69,
      "start": 90.1498,
      "duration": 0.1293,
      "velocity": 127,
      "chip": "ym2612"
    },
    {
      "channel": 0,
      "note": 74,
      "start": 90.2826,
      "duration": 0.2693,
      "velocity": 86,
      "chip": "ym2612"
    },
    {
      "channel": 1,
      "note": 69,
      "start": 90.2836,
      "duration": 0.2691,
      "velocity": 86,
      "chip": "ym2612"
    },
    {
      "channel": 3,
      "note": 59,
      "start": 90.2844,
      "duration": 0.2692,
      "velocity": 96,
      "chip": "ym2612"
    },
    {
      "channel": 4,
      "note": 59,
      "start": 90.285,
      "duration": 0.2695,
      "velocity": 91,
      "chip": "ym2612"
    },
    {
      "channel": 2,
      "note": 69,
      "start": 90.2865,
      "duration": 0.1273,
      "velocity": 127,
      "chip": "ym2612"
    },
    {
      "channel": 5,
      "note": 74,
      "start": 90.3261,
      "duration": 0.2688,
      "velocity": 86,
      "chip": "ym2612"
    },
    {
      "channel": 2,
      "note": 69,
      "start": 90.4198,
      "duration": 0.1289,
      "velocity": 127,
      "chip": "ym2612"
    },
    {
      "channel": 0,
      "note": 73,
      "start": 90.5526,
      "duration": 0.2683,
      "velocity": 86,
      "chip": "ym2612"
    },
    {
      "channel": 1,
      "note": 68,
      "start": 90.5534,
      "duration": 0.2683,
      "velocity": 86,
      "chip": "ym2612"
    },
    {
      "channel": 3,
      "note": 59,
      "start": 90.5542,
      "duration": 0.2683,
      "velocity": 96,
      "chip": "ym2612"
    },
    {
      "channel": 4,
      "note": 59,
      "start": 90.5551,
      "duration": 0.268,
      "velocity": 91,
      "chip": "ym2612"
    },
    {
      "channel": 2,
      "note": 36,
      "start": 90.5564,
      "duration": 0.174,
      "velocity": 127,
      "chip": "ym2612"
    },
    {
      "channel": 5,
      "note": 73,
      "start": 90.5956,
      "duration": 0.2688,
      "velocity": 86,
      "chip": "ym2612"
    },
    {
      "channel": 0,
      "note": 74,
      "start": 90.8215,
      "duration": 0.2689,
      "velocity": 86,
      "chip": "ym2612"
    },
    {
      "channel": 1,
      "note": 69,
      "start": 90.8224,
      "duration": 0.2688,
      "velocity": 86,
      "chip": "ym2612"
    },
    {
      "channel": 3,
      "note": 59,
      "start": 90.8229,
      "duration": 0.2691,
      "velocity": 96,
      "chip": "ym2612"
    },
    {
      "channel": 4,
      "note": 59,
      "start": 90.8235,
      "duration": 0.2688,
      "velocity": 91,
      "chip": "ym2612"
    },
    {
      "channel": 2,
      "note": 69,
      "start": 90.825,
      "duration": 0.128,
      "velocity": 127,
      "chip": "ym2612"
    },
    {
      "channel": 5,
      "note": 74,
      "start": 90.8651,
      "duration": 0.269,
      "velocity": 86,
      "chip": "ym2612"
    },
    {
      "channel": 2,
      "note": 69,
      "start": 90.9586,
      "duration": 0.1289,
      "velocity": 127,
      "chip": "ym2612"
    },
    {
      "channel": 0,
      "note": 71,
      "start": 91.0911,
      "duration": 0.2689,
      "velocity": 86,
      "chip": "ym2612"
    },
    {
      "channel": 1,
      "note": 66,
      "start": 91.0919,
      "duration": 0.2688,
      "velocity": 86,
      "chip": "ym2612"
    },
    {
      "channel": 4,
      "note": 59,
      "start": 91.0928,
      "duration": 0.2691,
      "velocity": 91,
      "chip": "ym2612"
    },
    {
      "channel": 2,
      "note": 36,
      "start": 91.0941,
      "duration": 0.1757,
      "velocity": 127,
      "chip": "ym2612"
    },
    {
      "channel": 5,
      "note": 71,
      "start": 91.1348,
      "duration": 0.2687,
      "velocity": 86,
      "chip": "ym2612"
    },
    {
      "channel": 3,
      "note": 59,
      "start": 91.2239,
      "duration": 0.2716,
      "velocity": 96,
      "chip": "ym2612"
    },
    {
      "channel": 0,
      "note": 70,
      "start": 91.3606,
      "duration": 0.2688,
      "velocity": 86,
      "chip": "ym2612"
    },
    {
      "channel": 1,
      "note": 65,
      "start": 91.3614,
      "duration": 0.2688,
      "velocity": 86,
      "chip": "ym2612"
    },
    {
      "channel": 4,
      "note": 59,
      "start": 91.3623,
      "duration": 0.269,
      "velocity": 91,
      "chip": "ym2612"
    },
    {
      "channel": 2,
      "note": 69,
      "start": 91.3638,
      "duration": 0.128,
      "velocity": 127,
      "chip": "ym2612"
    },
    {
      "channel": 5,
      "note": 70,
      "start": 91.4042,
      "duration": 0.2686,
      "velocity": 86,
      "chip": "ym2612"
    },
    {
      "channel": 3,
      "note": 59,
      "start": 91.496,
      "duration": 0.1351,
      "velocity": 96,
      "chip": "ym2612"
    },
    {
      "channel": 2,
      "note": 69,
      "start": 91.4977,
      "duration": 0.1289,
      "velocity": 127,
      "chip": "ym2612"
    },
    {
      "channel": 0,
      "note": 71,
      "start": 91.63,
      "duration": 0.2688,
      "velocity": 86,
      "chip": "ym2612"
    },
    {
      "channel": 1,
      "note": 66,
      "start": 91.6308,
      "duration": 0.2689,
      "velocity": 86,
      "chip": "ym2612"
    },
    {
      "channel": 4,
      "note": 59,
      "start": 91.6318,
      "duration": 0.2695,
      "velocity": 91,
      "chip": "ym2612"
    },
    {
      "channel": 2,
      "note": 36,
      "start": 91.633,
      "duration": 0.1754,
      "velocity": 127,
      "chip": "ym2612"
    },
    {
      "channel": 5,
      "note": 71,
      "start": 91.6734,
      "duration": 0.2691,
      "velocity": 86,
      "chip": "ym2612"
    },
    {
      "channel": 3,
      "note": 59,
      "start": 91.7629,
      "duration": 0.2721,
      "velocity": 96,
      "chip": "ym2612"
    },
    {
      "channel": 0,
      "note": 73,
      "start": 91.8996,
      "duration": 0.2695,
      "velocity": 86,
      "chip": "ym2612"
    },
    {
      "channel": 1,
      "note": 68,
      "start": 91.9008,
      "duration": 0.2691,
      "velocity": 86,
      "chip": "ym2612"
    },
    {
      "channel": 4,
      "note": 59,
      "start": 91.9017,
      "duration": 0.2695,
      "velocity": 91,
      "chip": "ym2612"
    },
    {
      "channel": 2,
      "note": 69,
      "start": 91.9032,
      "duration": 0.1276,
      "velocity": 127,
      "chip": "ym2612"
    },
    {
      "channel": 5,
      "note": 73,
      "start": 91.9431,
      "duration": 0.2689,
      "velocity": 86,
      "chip": "ym2612"
    },
    {
      "channel": 3,
      "note": 59,
      "start": 92.0354,
      "duration": 0.1353,
      "velocity": 96,
      "chip": "ym2612"
    },
    {
      "channel": 2,
      "note": 69,
      "start": 92.0371,
      "duration": 0.1288,
      "velocity": 127,
      "chip": "ym2612"
    },
    {
      "channel": 0,
      "note": 71,
      "start": 92.1698,
      "duration": 0.2682,
      "velocity": 86,
      "chip": "ym2612"
    },
    {
      "channel": 1,
      "note": 66,
      "start": 92.1706,
      "duration": 0.2682,
      "velocity": 86,
      "chip": "ym2612"
    },
    {
      "channel": 3,
      "note": 59,
      "start": 92.1712,
      "duration": 0.2684,
      "velocity": 96,
      "chip": "ym2612"
    },
    {
      "channel": 4,
      "note": 59,
      "start": 92.1717,
      "duration": 0.2684,
      "velocity": 91,
      "chip": "ym2612"
    },
    {
      "channel": 2,
      "note": 69,
      "start": 92.1731,
      "duration": 0.1278,
      "velocity": 127,
      "chip": "ym2612"
    },
    {
      "channel": 5,
      "note": 71,
      "start": 92.2127,
      "duration": 0.2688,
      "velocity": 86,
      "chip": "ym2612"
    },
    {
      "channel": 2,
      "note": 69,
      "start": 92.3063,
      "duration": 0.1288,
      "velocity": 127,
      "chip": "ym2612"
    },
    {
      "channel": 0,
      "note": 70,
      "start": 92.4386,
      "duration": 0.269,
      "velocity": 86,
      "chip": "ym2612"
    },
    {
      "channel": 1,
      "note": 65,
      "start": 92.4394,
      "duration": 0.269,
      "velocity": 86,
      "chip": "ym2612"
    },
    {
      "channel": 3,
      "note": 59,
      "start": 92.44,
      "duration": 0.2693,
      "velocity": 96,
      "chip": "ym2612"
    },
    {
      "channel": 4,
      "note": 59,
      "start": 92.4406,
      "duration": 0.2695,
      "velocity": 91,
      "chip": "ym2612"
    },
    {
      "channel": 2,
      "note": 69,
      "start": 92.4421,
      "duration": 0.1277,
      "velocity": 127,
      "chip": "ym2612"
    },
    {
      "channel": 5,
      "note": 70,
      "start": 92.4822,
      "duration": 0.2691,
      "velocity": 86,
      "chip": "ym2612"
    },
    {
      "channel": 2,
      "note": 69,
      "start": 92.5755,
      "duration": 0.1293,
      "velocity": 127,
      "chip": "ym2612"
    },
    {
      "channel": 0,
      "note": 71,
      "start": 92.7082,
      "duration": 1.0777,
      "velocity": 86,
      "chip": "ym2612"
    },
    {
      "channel": 1,
      "note": 66,
      "start": 92.709,
      "duration": 1.0772,
      "velocity": 86,
      "chip": "ym2612"
    },
    {
      "channel": 3,
      "note": 59,
      "start": 92.7099,
      "duration": 0.268,
      "velocity": 96,
      "chip": "ym2612"
    },
    {
      "channel": 4,
      "note": 59,
      "start": 92.7107,
      "duration": 0.2677,
      "velocity": 91,
      "chip": "ym2612"
    },
    {
      "channel": 2,
      "note": 36,
      "start": 92.712,
      "duration": 0.1744,
      "velocity": 127,
      "chip": "ym2612"
    },
    {
      "channel": 5,
      "note": 71,
      "start": 92.7521,
      "duration": 1.0761,
      "velocity": 86,
      "chip": "ym2612"
    },
    {
      "channel": 3,
      "note": 59,
      "start": 92.9783,
      "duration": 0.269,
      "velocity": 96,
      "chip": "ym2612"
    },
    {
      "channel": 4,
      "note": 59,
      "start": 92.9789,
      "duration": 0.2687,
      "velocity": 91,
      "chip": "ym2612"
    },
    {
      "channel": 2,
      "note": 69,
      "start": 92.9804,
      "duration": 0.1284,
      "velocity": 127,
      "chip": "ym2612"
    },
    {
      "channel": 2,
      "note": 69,
      "start": 93.1145,
      "duration": 0.1291,
      "velocity": 127,
      "chip": "ym2612"
    },
    {
      "channel": 4,
      "note": 59,
      "start": 93.248,
      "duration": 0.2695,
      "velocity": 91,
      "chip": "ym2612"
    },
    {
      "channel": 2,
      "note": 36,
      "start": 93.2493,
      "duration": 0.1761,
      "velocity": 127,
      "chip": "ym2612"
    },
    {
      "channel": 3,
      "note": 59,
      "start": 93.3802,
      "duration": 0.2717,
      "velocity": 96,
      "chip": "ym2612"
    },
    {
      "channel": 4,
      "note": 59,
      "start": 93.518,
      "duration": 0.2688,
      "velocity": 91,
      "chip": "ym2612"
    },
    {
      "channel": 2,
      "note": 69,
      "start": 93.5195,
      "duration": 0.1283,
      "velocity": 127,
      "chip": "ym2612"
    },
    {
      "channel": 3,
      "note": 59,
      "start": 93.6524,
      "duration": 0.1341,
      "velocity": 96,
      "chip": "ym2612"
    },
    {
      "channel": 2,
      "note": 69,
      "start": 93.6542,
      "duration": 0.1284,
      "velocity": 127,
      "chip": "ym2612"
    },
    {
      "channel": 4,
      "note": 59,
      "start": 93.7872,
      "duration": 0.2682,
      "velocity": 91,
      "chip": "ym2612"
    },
    {
      "channel": 2,
      "note": 36,
      "start": 93.7885,
      "duration": 0.1748,
      "velocity": 127,
      "chip": "ym2612"
    },
    {
      "channel": 3,
      "note": 59,
      "start": 93.9184,
      "duration": 0.2714,
      "velocity": 96,
      "chip": "ym2612"
    },
    {
      "channel": 4,
      "note": 59,
      "start": 94.0559,
      "duration": 0.2693,
      "velocity": 91,
      "chip": "ym2612"
    },
    {
      "channel": 2,
      "note": 69,
      "start": 94.057,
      "duration": 0.1299,
      "velocity": 127,
      "chip": "ym2612"
    },
    {
      "channel": 3,
      "note": 59,
      "start": 94.1903,
      "duration": 0.1344,
      "velocity": 96,
      "chip": "ym2612"
    },
    {
      "channel": 2,
      "note": 69,
      "start": 94.1917,
      "duration": 0.13,
      "velocity": 127,
      "chip": "ym2612"
    },
    {
      "channel": 3,
      "note": 59,
      "start": 94.3251,
      "duration": 0.2693,
      "velocity": 96,
      "chip": "ym2612"
    },
    {
      "channel": 4,
      "note": 59,
      "start": 94.3257,
      "duration": 0.2694,
      "velocity": 91,
      "chip": "ym2612"
    },
    {
      "channel": 2,
      "note": 69,
      "start": 94.3266,
      "duration": 0.1298,
      "velocity": 127,
      "chip": "ym2612"
    },
    {
      "channel": 2,
      "note": 69,
      "start": 94.4609,
      "duration": 0.1306,
      "velocity": 127,
      "chip": "ym2612"
    },
    {
      "channel": 3,
      "note": 59,
      "start": 94.5949,
      "duration": 0.2695,
      "velocity": 96,
      "chip": "ym2612"
    },
    {
      "channel": 4,
      "note": 59,
      "start": 94.5955,
      "duration": 0.2698,
      "velocity": 91,
      "chip": "ym2612"
    },
    {
      "channel": 2,
      "note": 69,
      "start": 94.5966,
      "duration": 0.1293,
      "velocity": 127,
      "chip": "ym2612"
    },
    {
      "channel": 2,
      "note": 69,
      "start": 94.7305,
      "duration": 0.1302,
      "velocity": 127,
      "chip": "ym2612"
    },
    {
      "channel": 3,
      "note": 59,
      "start": 94.865,
      "duration": 0.2681,
      "velocity": 96,
      "chip": "ym2612"
    },
    {
      "channel": 4,
      "note": 59,
      "start": 94.8659,
      "duration": 0.2683,
      "velocity": 91,
      "chip": "ym2612"
    },
    {
      "channel": 2,
      "note": 72,
      "start": 94.8668,
      "duration": 0.2634,
      "velocity": 120,
      "chip": "ym2612"
    },
    {
      "channel": 3,
      "note": 59,
      "start": 95.134,
      "duration": 0.269,
      "velocity": 96,
      "chip": "ym2612"
    },
    {
      "channel": 4,
      "note": 59,
      "start": 95.1346,
      "duration": 0.2688,
      "velocity": 91,
      "chip": "ym2612"
    },
    {
      "channel": 2,
      "note": 72,
      "start": 95.1354,
      "duration": 0.2642,
      "velocity": 120,
      "chip": "ym2612"
    },
    {
      "channel": 4,
      "note": 59,
      "start": 95.4038,
      "duration": 0.2687,
      "velocity": 91,
      "chip": "ym2612"
    },
    {
      "channel": 2,
      "note": 72,
      "start": 95.4046,
      "duration": 0.2646,
      "velocity": 120,
      "chip": "ym2612"
    },
    {
      "channel": 3,
      "note": 59,
      "start": 95.5352,
      "duration": 0.2689,
      "velocity": 96,
      "chip": "ym2612"
    },
    {
      "channel": 4,
      "note": 59,
      "start": 95.6729,
      "duration": 0.2693,
      "velocity": 91,
      "chip": "ym2612"
    },
    {
      "channel": 2,
      "note": 72,
      "start": 95.6738,
      "duration": 0.2649,
      "velocity": 120,
      "chip": "ym2612"
    },
    {
      "channel": 3,
      "note": 59,
      "start": 95.8045,
      "duration": 0.1371,
      "velocity": 96,
      "chip": "ym2612"
    },
    {
      "channel": 3,
      "note": 59,
      "start": 95.9421,
      "duration": 0.2664,
      "velocity": 96,
      "chip": "ym2612"
    },
    {
      "channel": 4,
      "note": 59,
      "start": 95.9427,
      "duration": 0.2661,
      "velocity": 91,
      "chip": "ym2612"
    },
    {
      "channel": 2,
      "note": 72,
      "start": 95.9435,
      "duration": 0.355,
      "velocity": 120,
      "chip": "ym2612"
    },
    {
      "channel": 0,
      "note": 78,
      "start": 96.4812,
      "duration": 0.539,
      "velocity": 86,
      "chip": "ym2612"
    },
    {
      "channel": 3,
      "note": 59,
      "start": 96.482,
      "duration": 0.5395,
      "velocity": 96,
      "chip": "ym2612"
    },
    {
      "channel": 4,
      "note": 58,
      "start": 96.4828,
      "duration": 0.5396,
      "velocity": 91,
      "chip": "ym2612"
    },
    {
      "channel": 2,
      "note": 72,
      "start": 96.484,
      "duration": 0.355,
      "velocity": 120,
      "chip": "ym2612"
    },
    {
      "channel": 5,
      "note": 78,
      "start": 96.5246,
      "duration": 0.5383,
      "velocity": 86,
      "chip": "ym2612"
    },
    {
      "channel": 0,
      "note": 83,
      "start": 97.0209,
      "duration": 0.2644,
      "velocity": 86,
      "chip": "ym2612"
    },
    {
      "channel": 3,
      "note": 59,
      "start": 97.0221,
      "duration": 0.2632,
      "velocity": 96,
      "chip": "ym2612"
    },
    {
      "channel": 4,
      "note": 59,
      "start": 97.023,
      "duration": 0.2623,
      "velocity": 91,
      "chip": "ym2612"
    },
    {
      "channel": 2,
      "note": 36,
      "start": 97.0243,
      "duration": 0.1738,
      "velocity": 127,
      "chip": "ym2612"
    },
    {
      "channel": 5,
      "note": 83,
      "start": 97.0636,
      "duration": 0.2217,
      "velocity": 86,
      "chip": "ym2612"
    }
  ]
}