{
  "track_name": "11 - Active Angel",
  "duration_sec": 66.796,
  "sample_rate": 44100,
  "note_count": 1693,
  "unique_pitches": 37,
  "pitch_range": 63,
  "avg_note_duration": 0.2095,
  "reconstruction_stats": {
    "notes_reconstructed": 1693,
    "keyon_events": 1693,
    "keyoff_events": 1688,
    "orphan_keyons": 5,
    "unique_pitches": 37,
    "pitch_range": 63,
    "avg_duration_sec": 0.2095
  },
  "metadata": {
    "source": "V\\Viper-V12\\11 - Active Angel.vgz"
  },
  "notes": [
    {
      "channel": 0,
      "note": 41,
      "start": 0.0022,
      "duration": 0.2229,
      "velocity": 127,
      "chip": "ym2612"
    },
    {
      "channel": 1,
      "note": 53,
      "start": 0.0043,
      "duration": 0.3366,
      "velocity": 91,
      "chip": "ym2612"
    },
    {
      "channel": 2,
      "note": 77,
      "start": 0.0065,
      "duration": 0.0679,
      "velocity": 97,
      "chip": "ym2612"
    },
    {
      "channel": 3,
      "note": 60,
      "start": 0.0086,
      "duration": 0.6604,
      "velocity": 99,
      "chip": "ym2612"
    },
    {
      "channel": 4,
      "note": 65,
      "start": 0.0111,
      "duration": 0.137,
      "velocity": 106,
      "chip": "ym2612"
    },
    {
      "channel": 2,
      "note": 77,
      "start": 0.0747,
      "duration": 0.0383,
      "velocity": 97,
      "chip": "ym2612"
    },
    {
      "channel": 2,
      "note": 84,
      "start": 0.1133,
      "duration": 0.0733,
      "velocity": 97,
      "chip": "ym2612"
    },
    {
      "channel": 4,
      "note": 65,
      "start": 0.1483,
      "duration": 0.1544,
      "velocity": 106,
      "chip": "ym2612"
    },
    {
      "channel": 2,
      "note": 84,
      "start": 0.187,
      "duration": 0.0401,
      "velocity": 97,
      "chip": "ym2612"
    },
    {
      "channel": 0,
      "note": 66,
      "start": 0.227,
      "duration": 0.2296,
      "velocity": 127,
      "chip": "ym2612"
    },
    {
      "channel": 2,
      "note": 91,
      "start": 0.2274,
      "duration": 0.0749,
      "velocity": 97,
      "chip": "ym2612"
    },
    {
      "channel": 2,
      "note": 91,
      "start": 0.3026,
      "duration": 0.0385,
      "velocity": 97,
      "chip": "ym2612"
    },
    {
      "channel": 4,
      "note": 65,
      "start": 0.303,
      "duration": 0.1561,
      "velocity": 106,
      "chip": "ym2612"
    },
    {
      "channel": 1,
      "note": 53,
      "start": 0.3411,
      "duration": 0.3493,
      "velocity": 91,
      "chip": "ym2612"
    },
    {
      "channel": 2,
      "note": 92,
      "start": 0.3415,
      "duration": 0.0766,
      "velocity": 97,
      "chip": "ym2612"
    },
    {
      "channel": 2,
      "note": 92,
      "start": 0.4184,
      "duration": 0.0403,
      "velocity": 97,
      "chip": "ym2612"
    },
    {
      "channel": 0,
      "note": 41,
      "start": 0.4586,
      "duration": 0.2296,
      "velocity": 127,
      "chip": "ym2612"
    },
    {
      "channel": 2,
      "note": 99,
      "start": 0.459,
      "duration": 0.075,
      "velocity": 97,
      "chip": "ym2612"
    },
    {
      "channel": 4,
      "note": 65,
      "start": 0.4596,
      "duration": 0.1515,
      "velocity": 106,
      "chip": "ym2612"
    },
    {
      "channel": 5,
      "note": 48,
      "start": 0.46,
      "duration": 0.4626,
      "velocity": 127,
      "chip": "ym2612"
    },
    {
      "channel": 2,
      "note": 99,
      "start": 0.5343,
      "duration": 0.0383,
      "velocity": 97,
      "chip": "ym2612"
    },
    {
      "channel": 2,
      "note": 91,
      "start": 0.5729,
      "duration": 0.0769,
      "velocity": 97,
      "chip": "ym2612"
    },
    {
      "channel": 4,
      "note": 65,
      "start": 0.6114,
      "duration": 0.1544,
      "velocity": 106,
      "chip": "ym2612"
    },
    {
      "channel": 2,
      "note": 91,
      "start": 0.65,
      "duration": 0.0407,
      "velocity": 97,
      "chip": "ym2612"
    },
    {
      "channel": 3,
      "note": 60,
      "start": 0.6695,
      "duration": 0.6752,
      "velocity": 99,
      "chip": "ym2612"
    },
    {
      "channel": 0,
      "note": 66,
      "start": 0.6904,
      "duration": 0.2294,
      "velocity": 127,
      "chip": "ym2612"
    },
    {
      "channel": 1,
      "note": 53,
      "start": 0.6907,
      "duration": 0.4626,
      "velocity": 91,
      "chip": "ym2612"
    },
    {
      "channel": 2,
      "note": 92,
      "start": 0.6911,
      "duration": 0.0743,
      "velocity": 97,
      "chip": "ym2612"
    },
    {
      "channel": 2,
      "note": 92,
      "start": 0.7657,
      "duration": 0.0383,
      "velocity": 97,
      "chip": "ym2612"
    },
    {
      "channel": 4,
      "note": 65,
      "start": 0.7661,
      "duration": 0.1561,
      "velocity": 106,
      "chip": "ym2612"
    },
    {
      "channel": 2,
      "note": 99,
      "start": 0.8043,
      "duration": 0.0769,
      "velocity": 97,
      "chip": "ym2612"
    },
    {
      "channel": 2,
      "note": 99,
      "start": 0.8815,
      "duration": 0.0403,
      "velocity": 97,
      "chip": "ym2612"
    },
    {
      "channel": 0,
      "note": 41,
      "start": 0.9217,
      "duration": 0.2296,
      "velocity": 127,
      "chip": "ym2612"
    },
    {
      "channel": 2,
      "note": 77,
      "start": 0.9221,
      "duration": 0.075,
      "velocity": 97,
      "chip": "ym2612"
    },
    {
      "channel": 4,
      "note": 65,
      "start": 0.9225,
      "duration": 0.1518,
      "velocity": 106,
      "chip": "ym2612"
    },
    {
      "channel": 2,
      "note": 77,
      "start": 0.9974,
      "duration": 0.0383,
      "velocity": 97,
      "chip": "ym2612"
    },
    {
      "channel": 2,
      "note": 84,
      "start": 1.036,
      "duration": 0.0769,
      "velocity": 97,
      "chip": "ym2612"
    },
    {
      "channel": 4,
      "note": 65,
      "start": 1.0745,
      "duration": 0.1544,
      "velocity": 106,
      "chip": "ym2612"
    },
    {
      "channel": 2,
      "note": 84,
      "start": 1.1132,
      "duration": 0.0404,
      "velocity": 97,
      "chip": "ym2612"
    },
    {
      "channel": 0,
      "note": 66,
      "start": 1.1532,
      "duration": 0.2296,
      "velocity": 127,
      "chip": "ym2612"
    },
    {
      "channel": 1,
      "note": 55,
      "start": 1.1535,
      "duration": 0.2313,
      "velocity": 91,
      "chip": "ym2612"
    },
    {
      "channel": 2,
      "note": 91,
      "start": 1.1539,
      "duration": 0.0746,
      "velocity": 97,
      "chip": "ym2612"
    },
    {
      "channel": 2,
      "note": 91,
      "start": 1.2288,
      "duration": 0.0383,
      "velocity": 97,
      "chip": "ym2612"
    },
    {
      "channel": 4,
      "note": 65,
      "start": 1.2294,
      "duration": 0.1561,
      "velocity": 106,
      "chip": "ym2612"
    },
    {
      "channel": 2,
      "note": 92,
      "start": 1.2674,
      "duration": 0.0768,
      "velocity": 97,
      "chip": "ym2612"
    },
    {
      "channel": 2,
      "note": 92,
      "start": 1.3446,
      "duration": 0.0405,
      "velocity": 97,
      "chip": "ym2612"
    },
    {
      "channel": 3,
      "note": 60,
      "start": 1.3449,
      "duration": 0.5037,
      "velocity": 99,
      "chip": "ym2612"
    },
    {
      "channel": 0,
      "note": 41,
      "start": 1.3848,
      "duration": 0.2296,
      "velocity": 127,
      "chip": "ym2612"
    },
    {
      "channel": 1,
      "note": 56,
      "start": 1.3851,
      "duration": 0.4629,
      "velocity": 91,
      "chip": "ym2612"
    },
    {
      "channel": 2,
      "note": 99,
      "start": 1.3855,
      "duration": 0.0747,
      "velocity": 97,
      "chip": "ym2612"
    },
    {
      "channel": 4,
      "note": 65,
      "start": 1.3859,
      "duration": 0.1515,
      "velocity": 106,
      "chip": "ym2612"
    },
    {
      "channel": 5,
      "note": 48,
      "start": 1.3861,
      "duration": 0.4634,
      "velocity": 127,
      "chip": "ym2612"
    },
    {
      "channel": 2,
      "note": 99,
      "start": 1.4605,
      "duration": 0.0383,
      "velocity": 97,
      "chip": "ym2612"
    },
    {
      "channel": 2,
      "note": 91,
      "start": 1.4991,
      "duration": 0.0769,
      "velocity": 97,
      "chip": "ym2612"
    },
    {
      "channel": 4,
      "note": 65,
      "start": 1.5376,
      "duration": 0.1544,
      "velocity": 106,
      "chip": "ym2612"
    },
    {
      "channel": 2,
      "note": 91,
      "start": 1.5763,
      "duration": 0.0402,
      "velocity": 97,
      "chip": "ym2612"
    },
    {
      "channel": 0,
      "note": 66,
      "start": 1.6163,
      "duration": 0.2296,
      "velocity": 127,
      "chip": "ym2612"
    },
    {
      "channel": 2,
      "note": 92,
      "start": 1.6167,
      "duration": 0.0749,
      "velocity": 97,
      "chip": "ym2612"
    },
    {
      "channel": 2,
      "note": 92,
      "start": 1.6919,
      "duration": 0.0383,
      "velocity": 97,
      "chip": "ym2612"
    },
    {
      "channel": 4,
      "note": 65,
      "start": 1.6923,
      "duration": 0.1567,
      "velocity": 106,
      "chip": "ym2612"
    },
    {
      "channel": 2,
      "note": 99,
      "start": 1.7305,
      "duration": 0.0768,
      "velocity": 97,
      "chip": "ym2612"
    },
    {
      "channel": 2,
      "note": 99,
      "start": 1.8077,
      "duration": 0.0405,
      "velocity": 97,
      "chip": "ym2612"
    },
    {
      "channel": 0,
      "note": 41,
      "start": 1.8479,
      "duration": 0.2296,
      "velocity": 127,
      "chip": "ym2612"
    },
    {
      "channel": 1,
      "note": 53,
      "start": 1.8482,
      "duration": 0.3451,
      "velocity": 91,
      "chip": "ym2612"
    },
    {
      "channel": 2,
      "note": 77,
      "start": 1.8486,
      "duration": 0.0747,
      "velocity": 97,
      "chip": "ym2612"
    },
    {
      "channel": 3,
      "note": 62,
      "start": 1.8489,
      "duration": 0.6726,
      "velocity": 99,
      "chip": "ym2612"
    },
    {
      "channel": 4,
      "note": 65,
      "start": 1.8495,
      "duration": 0.151,
      "velocity": 106,
      "chip": "ym2612"
    },
    {
      "channel": 2,
      "note": 77,
      "start": 1.9236,
      "duration": 0.0383,
      "velocity": 97,
      "chip": "ym2612"
    },
    {
      "channel": 2,
      "note": 83,
      "start": 1.9622,
      "duration": 0.0769,
      "velocity": 97,
      "chip": "ym2612"
    },
    {
      "channel": 4,
      "note": 65,
      "start": 2.0007,
      "duration": 0.1544,
      "velocity": 106,
      "chip": "ym2612"
    },
    {
      "channel": 2,
      "note": 83,
      "start": 2.0396,
      "duration": 0.0402,
      "velocity": 97,
      "chip": "ym2612"
    },
    {
      "channel": 0,
      "note": 66,
      "start": 2.0797,
      "duration": 0.2294,
      "velocity": 127,
      "chip": "ym2612"
    },
    {
      "channel": 2,
      "note": 92,
      "start": 2.0801,
      "duration": 0.0746,
      "velocity": 97,
      "chip": "ym2612"
    },
    {
      "channel": 2,
      "note": 92,
      "start": 2.155,
      "duration": 0.0385,
      "velocity": 97,
      "chip": "ym2612"
    },
    {
      "channel": 4,
      "note": 65,
      "start": 2.1554,
      "duration": 0.1564,
      "velocity": 106,
      "chip": "ym2612"
    },
    {
      "channel": 1,
      "note": 53,
      "start": 2.1935,
      "duration": 0.3491,
      "velocity": 91,
      "chip": "ym2612"
    },
    {
      "channel": 2,
      "note": 95,
      "start": 2.1939,
      "duration": 0.0766,
      "velocity": 97,
      "chip": "ym2612"
    },
    {
      "channel": 2,
      "note": 95,
      "start": 2.2708,
      "duration": 0.0405,
      "velocity": 97,
      "chip": "ym2612"
    },
    {
      "channel": 0,
      "note": 41,
      "start": 2.3113,
      "duration": 0.2293,
      "velocity": 127,
      "chip": "ym2612"
    },
    {
      "channel": 2,
      "note": 98,
      "start": 2.3117,
      "duration": 0.0747,
      "velocity": 97,
      "chip": "ym2612"
    },
    {
      "channel": 4,
      "note": 65,
      "start": 2.3121,
      "duration": 0.1515,
      "velocity": 106,
      "chip": "ym2612"
    },
    {
      "channel": 5,
      "note": 48,
      "start": 2.3124,
      "duration": 0.4626,
      "velocity": 127,
      "chip": "ym2612"
    },
    {
      "channel": 2,
      "note": 98,
      "start": 2.3867,
      "duration": 0.0383,
      "velocity": 97,
      "chip": "ym2612"
    },
    {
      "channel": 2,
      "note": 89,
      "start": 2.4253,
      "duration": 0.0768,
      "velocity": 97,
      "chip": "ym2612"
    },
    {
      "channel": 4,
      "note": 65,
      "start": 2.4639,
      "duration": 0.1544,
      "velocity": 106,
      "chip": "ym2612"
    },
    {
      "channel": 2,
      "note": 89,
      "start": 2.5025,
      "duration": 0.0404,
      "velocity": 97,
      "chip": "ym2612"
    },
    {
      "channel": 3,
      "note": 62,
      "start": 2.5217,
      "duration": 0.6754,
      "velocity": 99,
      "chip": "ym2612"
    },
    {
      "channel": 0,
      "note": 66,
      "start": 2.5426,
      "duration": 0.2296,
      "velocity": 127,
      "chip": "ym2612"
    },
    {
      "channel": 1,
      "note": 53,
      "start": 2.5428,
      "duration": 0.4629,
      "velocity": 91,
      "chip": "ym2612"
    },
    {
      "channel": 2,
      "note": 92,
      "start": 2.5432,
      "duration": 0.0746,
      "velocity": 97,
      "chip": "ym2612"
    },
    {
      "channel": 2,
      "note": 92,
      "start": 2.6181,
      "duration": 0.0383,
      "velocity": 97,
      "chip": "ym2612"
    },
    {
      "channel": 4,
      "note": 65,
      "start": 2.6185,
      "duration": 0.1561,
      "velocity": 106,
      "chip": "ym2612"
    },
    {
      "channel": 2,
      "note": 98,
      "start": 2.6567,
      "duration": 0.0768,
      "velocity": 97,
      "chip": "ym2612"
    },
    {
      "channel": 2,
      "note": 98,
      "start": 2.7339,
      "duration": 0.0402,
      "velocity": 97,
      "chip": "ym2612"
    },
    {
      "channel": 0,
      "note": 41,
      "start": 2.7741,
      "duration": 0.2296,
      "velocity": 127,
      "chip": "ym2612"
    },
    {
      "channel": 2,
      "note": 77,
      "start": 2.7745,
      "duration": 0.0751,
      "velocity": 97,
      "chip": "ym2612"
    },
    {
      "channel": 4,
      "note": 65,
      "start": 2.7749,
      "duration": 0.1518,
      "velocity": 106,
      "chip": "ym2612"
    },
    {
      "channel": 2,
      "note": 77,
      "start": 2.85,
      "duration": 0.0381,
      "velocity": 97,
      "chip": "ym2612"
    },
    {
      "channel": 2,
      "note": 83,
      "start": 2.8884,
      "duration": 0.0768,
      "velocity": 97,
      "chip": "ym2612"
    },
    {
      "channel": 4,
      "note": 65,
      "start": 2.927,
      "duration": 0.1544,
      "velocity": 106,
      "chip": "ym2612"
    },
    {
      "channel": 2,
      "note": 83,
      "start": 2.9656,
      "duration": 0.0404,
      "velocity": 97,
      "chip": "ym2612"
    },
    {
      "channel": 0,
      "note": 66,
      "start": 3.0057,
      "duration": 0.2296,
      "velocity": 127,
      "chip": "ym2612"
    },
    {
      "channel": 1,
      "note": 55,
      "start": 3.0059,
      "duration": 0.2313,
      "velocity": 91,
      "chip": "ym2612"
    },
    {
      "channel": 2,
      "note": 92,
      "start": 3.0063,
      "duration": 0.0746,
      "velocity": 97,
      "chip": "ym2612"
    },
    {
      "channel": 2,
      "note": 92,
      "start": 3.0812,
      "duration": 0.0383,
      "velocity": 97,
      "chip": "ym2612"
    },
    {
      "channel": 4,
      "note": 65,
      "start": 3.0816,
      "duration": 0.1563,
      "velocity": 106,
      "chip": "ym2612"
    },
    {
      "channel": 2,
      "note": 95,
      "start": 3.1198,
      "duration": 0.0768,
      "velocity": 97,
      "chip": "ym2612"
    },
    {
      "channel": 2,
      "note": 95,
      "start": 3.197,
      "duration": 0.0405,
      "velocity": 97,
      "chip": "ym2612"
    },
    {
      "channel": 3,
      "note": 62,
      "start": 3.1973,
      "duration": 0.504,
      "velocity": 99,
      "chip": "ym2612"
    },
    {
      "channel": 0,
      "note": 41,
      "start": 3.2372,
      "duration": 0.2296,
      "velocity": 127,
      "chip": "ym2612"
    },
    {
      "channel": 1,
      "note": 56,
      "start": 3.2375,
      "duration": 0.2313,
      "velocity": 91,
      "chip": "ym2612"
    },
    {
      "channel": 2,
      "note": 98,
      "start": 3.2379,
      "duration": 0.0747,
      "velocity": 97,
      "chip": "ym2612"
    },
    {
      "channel": 4,
      "note": 65,
      "start": 3.2383,
      "duration": 0.1515,
      "velocity": 106,
      "chip": "ym2612"
    },
    {
      "channel": 5,
      "note": 48,
      "start": 3.2385,
      "duration": 0.4634,
      "velocity": 127,
      "chip": "ym2612"
    },
    {
      "channel": 2,
      "note": 98,
      "start": 3.3129,
      "duration": 0.0383,
      "velocity": 97,
      "chip": "ym2612"
    },
    {
      "channel": 2,
      "note": 89,
      "start": 3.3515,
      "duration": 0.0768,
      "velocity": 97,
      "chip": "ym2612"
    },
    {
      "channel": 4,
      "note": 65,
      "start": 3.39,
      "duration": 0.1544,
      "velocity": 106,
      "chip": "ym2612"
    },
    {
      "channel": 2,
      "note": 89,
      "start": 3.4287,
      "duration": 0.0404,
      "velocity": 97,
      "chip": "ym2612"
    },
    {
      "channel": 0,
      "note": 66,
      "start": 3.4688,
      "duration": 0.2296,
      "velocity": 127,
      "chip": "ym2612"
    },
    {
      "channel": 1,
      "note": 48,
      "start": 3.469,
      "duration": 0.2316,
      "velocity": 91,
      "chip": "ym2612"
    },
    {
      "channel": 2,
      "note": 92,
      "start": 3.4697,
      "duration": 0.0743,
      "velocity": 97,
      "chip": "ym2612"
    },
    {
      "channel": 2,
      "note": 92,
      "start": 3.5444,
      "duration": 0.0383,
      "velocity": 97,
      "chip": "ym2612"
    },
    {
      "channel": 4,
      "note": 65,
      "start": 3.5447,
      "duration": 0.1569,
      "velocity": 106,
      "chip": "ym2612"
    },
    {
      "channel": 2,
      "note": 98,
      "start": 3.5829,
      "duration": 0.0769,
      "velocity": 97,
      "chip": "ym2612"
    },
    {
      "channel": 2,
      "note": 98,
      "start": 3.6601,
      "duration": 0.0408,
      "velocity": 97,
      "chip": "ym2612"
    },
    {
      "channel": 0,
      "note": 41,
      "start": 3.7006,
      "duration": 0.2293,
      "velocity": 127,
      "chip": "ym2612"
    },
    {
      "channel": 1,
      "note": 53,
      "start": 3.7009,
      "duration": 0.3449,
      "velocity": 91,
      "chip": "ym2612"
    },
    {
      "channel": 2,
      "note": 77,
      "start": 3.7013,
      "duration": 0.0744,
      "velocity": 97,
      "chip": "ym2612"
    },
    {
      "channel": 3,
      "note": 60,
      "start": 3.7015,
      "duration": 0.6723,
      "velocity": 99,
      "chip": "ym2612"
    },
    {
      "channel": 4,
      "note": 65,
      "start": 3.702,
      "duration": 0.1509,
      "velocity": 106,
      "chip": "ym2612"
    },
    {
      "channel": 2,
      "note": 77,
      "start": 3.776,
      "duration": 0.0383,
      "velocity": 97,
      "chip": "ym2612"
    },
    {
      "channel": 2,
      "note": 84,
      "start": 3.8146,
      "duration": 0.0768,
      "velocity": 97,
      "chip": "ym2612"
    },
    {
      "channel": 4,
      "note": 65,
      "start": 3.8532,
      "duration": 0.1544,
      "velocity": 106,
      "chip": "ym2612"
    },
    {
      "channel": 2,
      "note": 84,
      "start": 3.8918,
      "duration": 0.0401,
      "velocity": 97,
      "chip": "ym2612"
    },
    {
      "channel": 0,
      "note": 66,
      "start": 3.9319,
      "duration": 0.2296,
      "velocity": 127,
      "chip": "ym2612"
    },
    {
      "channel": 2,
      "note": 91,
      "start": 3.9323,
      "duration": 0.0749,
      "velocity": 97,
      "chip": "ym2612"
    },
    {
      "channel": 2,
      "note": 91,
      "start": 4.0075,
      "duration": 0.0385,
      "velocity": 97,
      "chip": "ym2612"
    },
    {
      "channel": 4,
      "note": 65,
      "start": 4.0078,
      "duration": 0.1561,
      "velocity": 106,
      "chip": "ym2612"
    },
    {
      "channel": 1,
      "note": 53,
      "start": 4.0459,
      "duration": 0.3491,
      "velocity": 91,
      "chip": "ym2612"
    },
    {
      "channel": 2,
      "note": 92,
      "start": 4.0463,
      "duration": 0.0766,
      "velocity": 97,
      "chip": "ym2612"
    },
    {
      "channel": 2,
      "note": 92,
      "start": 4.1232,
      "duration": 0.0403,
      "velocity": 97,
      "chip": "ym2612"
    },
    {
      "channel": 0,
      "note": 41,
      "start": 4.1634,
      "duration": 0.2296,
      "velocity": 127,
      "chip": "ym2612"
    },
    {
      "channel": 2,
      "note": 99,
      "start": 4.1638,
      "duration": 0.075,
      "velocity": 97,
      "chip": "ym2612"
    },
    {
      "channel": 4,
      "note": 65,
      "start": 4.1642,
      "duration": 0.1518,
      "velocity": 106,
      "chip": "ym2612"
    },
    {
      "channel": 5,
      "note": 48,
      "start": 4.1645,
      "duration": 0.4629,
      "velocity": 127,
      "chip": "ym2612"
    },
    {
      "channel": 2,
      "note": 99,
      "start": 4.2391,
      "duration": 0.0383,
      "velocity": 97,
      "chip": "ym2612"
    },
    {
      "channel": 2,
      "note": 91,
      "start": 4.2777,
      "duration": 0.0768,
      "velocity": 97,
      "chip": "ym2612"
    },
    {
      "channel": 4,
      "note": 65,
      "start": 4.3163,
      "duration": 0.1544,
      "velocity": 106,
      "chip": "ym2612"
    },
    {
      "channel": 2,
      "note": 91,
      "start": 4.3549,
      "duration": 0.0405,
      "velocity": 97,
      "chip": "ym2612"
    },
    {
      "channel": 3,
      "note": 60,
      "start": 4.3741,
      "duration": 0.6757,
      "velocity": 99,
      "chip": "ym2612"
    },
    {
      "channel": 0,
      "note": 66,
      "start": 4.395,
      "duration": 0.2296,
      "velocity": 127,
      "chip": "ym2612"
    },
    {
      "channel": 1,
      "note": 53,
      "start": 4.3953,
      "duration": 0.4628,
      "velocity": 91,
      "chip": "ym2612"
    },
    {
      "channel": 2,
      "note": 92,
      "start": 4.3957,
      "duration": 0.0746,
      "velocity": 97,
      "chip": "ym2612"
    },
    {
      "channel": 2,
      "note": 92,
      "start": 4.4706,
      "duration": 0.0383,
      "velocity": 97,
      "chip": "ym2612"
    },
    {
      "channel": 4,
      "note": 65,
      "start": 4.4709,
      "duration": 0.1561,
      "velocity": 106,
      "chip": "ym2612"
    },
    {
      "channel": 2,
      "note": 99,
      "start": 4.5091,
      "duration": 0.0769,
      "velocity": 97,
      "chip": "ym2612"
    },
    {
      "channel": 2,
      "note": 99,
      "start": 4.5863,
      "duration": 0.0403,
      "velocity": 97,
      "chip": "ym2612"
    },
    {
      "channel": 0,
      "note": 41,
      "start": 4.6266,
      "duration": 0.2295,
      "velocity": 127,
      "chip": "ym2612"
    },
    {
      "channel": 2,
      "note": 77,
      "start": 4.627,
      "duration": 0.0749,
      "velocity": 97,
      "chip": "ym2612"
    },
    {
      "channel": 4,
      "note": 65,
      "start": 4.6273,
      "duration": 0.1517,
      "velocity": 106,
      "chip": "ym2612"
    },
    {
      "channel": 2,
      "note": 77,
      "start": 4.7022,
      "duration": 0.0383,
      "velocity": 97,
      "chip": "ym2612"
    },
    {
      "channel": 2,
      "note": 84,
      "start": 4.7408,
      "duration": 0.0769,
      "velocity": 97,
      "chip": "ym2612"
    },
    {
      "channel": 4,
      "note": 65,
      "start": 4.7796,
      "duration": 0.1541,
      "velocity": 106,
      "chip": "ym2612"
    },
    {
      "channel": 2,
      "note": 84,
      "start": 4.818,
      "duration": 0.0404,
      "velocity": 97,
      "chip": "ym2612"
    },
    {
      "channel": 0,
      "note": 66,
      "start": 4.8581,
      "duration": 0.2296,
      "velocity": 127,
      "chip": "ym2612"
    },
    {
      "channel": 1,
      "note": 55,
      "start": 4.8584,
      "duration": 0.2316,
      "velocity": 91,
      "chip": "ym2612"
    },
    {
      "channel": 2,
      "note": 91,
      "start": 4.8588,
      "duration": 0.0746,
      "velocity": 97,
      "chip": "ym2612"
    },
    {
      "channel": 2,
      "note": 91,
      "start": 4.9337,
      "duration": 0.0383,
      "velocity": 97,
      "chip": "ym2612"
    },
    {
      "channel": 4,
      "note": 65,
      "start": 4.934,
      "duration": 0.1566,
      "velocity": 106,
      "chip": "ym2612"
    },
    {
      "channel": 2,
      "note": 92,
      "start": 4.9722,
      "duration": 0.0769,
      "velocity": 97,
      "chip": "ym2612"
    },
    {
      "channel": 2,
      "note": 92,
      "start": 5.0497,
      "duration": 0.0405,
      "velocity": 97,
      "chip": "ym2612"
    },
    {
      "channel": 3,
      "note": 60,
      "start": 5.05,
      "duration": 0.5035,
      "velocity": 99,
      "chip": "ym2612"
    },
    {
      "channel": 0,
      "note": 41,
      "start": 5.0899,
      "duration": 0.2296,
      "velocity": 127,
      "chip": "ym2612"
    },
    {
      "channel": 1,
      "note": 56,
      "start": 5.0902,
      "duration": 0.4627,
      "velocity": 91,
      "chip": "ym2612"
    },
    {
      "channel": 2,
      "note": 99,
      "start": 5.0905,
      "duration": 0.0744,
      "velocity": 97,
      "chip": "ym2612"
    },
    {
      "channel": 4,
      "note": 65,
      "start": 5.0909,
      "duration": 0.1513,
      "velocity": 106,
      "chip": "ym2612"
    },
    {
      "channel": 5,
      "note": 48,
      "start": 5.0912,
      "duration": 0.4629,
      "velocity": 127,
      "chip": "ym2612"
    },
    {
      "channel": 2,
      "note": 99,
      "start": 5.1653,
      "duration": 0.0383,
      "velocity": 97,
      "chip": "ym2612"
    },
    {
      "channel": 2,
      "note": 91,
      "start": 5.2039,
      "duration": 0.0769,
      "velocity": 97,
      "chip": "ym2612"
    },
    {
      "channel": 4,
      "note": 65,
      "start": 5.2425,
      "duration": 0.1544,
      "velocity": 106,
      "chip": "ym2612"
    },
    {
      "channel": 2,
      "note": 91,
      "start": 5.2811,
      "duration": 0.0404,
      "velocity": 97,
      "chip": "ym2612"
    },
    {
      "channel": 0,
      "note": 66,
      "start": 5.3214,
      "duration": 0.2294,
      "velocity": 127,
      "chip": "ym2612"
    },
    {
      "channel": 2,
      "note": 92,
      "start": 5.3218,
      "duration": 0.0746,
      "velocity": 97,
      "chip": "ym2612"
    },
    {
      "channel": 2,
      "note": 92,
      "start": 5.3968,
      "duration": 0.0383,
      "velocity": 97,
      "chip": "ym2612"
    },
    {
      "channel": 4,
      "note": 65,
      "start": 5.3971,
      "duration": 0.1567,
      "velocity": 106,
      "chip": "ym2612"
    },
    {
      "channel": 2,
      "note": 99,
      "start": 5.4354,
      "duration": 0.0768,
      "velocity": 97,
      "chip": "ym2612"
    },
    {
      "channel": 2,
      "note": 99,
      "start": 5.5125,
      "duration": 0.0405,
      "velocity": 97,
      "chip": "ym2612"
    },
    {
      "channel": 0,
      "note": 41,
      "start": 5.5527,
      "duration": 0.2296,
      "velocity": 127,
      "chip": "ym2612"
    },
    {
      "channel": 1,
      "note": 53,
      "start": 5.553,
      "duration": 0.3451,
      "velocity": 91,
      "chip": "ym2612"
    },
    {
      "channel": 2,
      "note": 77,
      "start": 5.5534,
      "duration": 0.0747,
      "velocity": 97,
      "chip": "ym2612"
    },
    {
      "channel": 3,
      "note": 62,
      "start": 5.5537,
      "duration": 0.6726,
      "velocity": 99,
      "chip": "ym2612"
    },
    {
      "channel": 4,
      "note": 65,
      "start": 5.5541,
      "duration": 0.1512,
      "velocity": 106,
      "chip": "ym2612"
    },
    {
      "channel": 2,
      "note": 77,
      "start": 5.6284,
      "duration": 0.0383,
      "velocity": 97,
      "chip": "ym2612"
    },
    {
      "channel": 2,
      "note": 83,
      "start": 5.667,
      "duration": 0.0769,
      "velocity": 97,
      "chip": "ym2612"
    },
    {
      "channel": 4,
      "note": 65,
      "start": 5.7056,
      "duration": 0.1544,
      "velocity": 106,
      "chip": "ym2612"
    },
    {
      "channel": 2,
      "note": 83,
      "start": 5.7442,
      "duration": 0.0402,
      "velocity": 97,
      "chip": "ym2612"
    },
    {
      "channel": 0,
      "note": 66,
      "start": 5.7843,
      "duration": 0.2296,
      "velocity": 127,
      "chip": "ym2612"
    },
    {
      "channel": 2,
      "note": 92,
      "start": 5.7847,
      "duration": 0.0749,
      "velocity": 97,
      "chip": "ym2612"
    },
    {
      "channel": 2,
      "note": 92,
      "start": 5.8599,
      "duration": 0.0385,
      "velocity": 97,
      "chip": "ym2612"
    },
    {
      "channel": 4,
      "note": 65,
      "start": 5.8602,
      "duration": 0.1561,
      "velocity": 106,
      "chip": "ym2612"
    },
    {
      "channel": 1,
      "note": 53,
      "start": 5.8983,
      "duration": 0.3491,
      "velocity": 91,
      "chip": "ym2612"
    },
    {
      "channel": 2,
      "note": 95,
      "start": 5.8987,
      "duration": 0.0766,
      "velocity": 97,
      "chip": "ym2612"
    },
    {
      "channel": 2,
      "note": 95,
      "start": 5.9756,
      "duration": 0.0402,
      "velocity": 97,
      "chip": "ym2612"
    },
    {
      "channel": 0,
      "note": 41,
      "start": 6.0159,
      "duration": 0.2296,
      "velocity": 127,
      "chip": "ym2612"
    },
    {
      "channel": 2,
      "note": 98,
      "start": 6.0162,
      "duration": 0.075,
      "velocity": 97,
      "chip": "ym2612"
    },
    {
      "channel": 4,
      "note": 65,
      "start": 6.0166,
      "duration": 0.1518,
      "velocity": 106,
      "chip": "ym2612"
    },
    {
      "channel": 5,
      "note": 48,
      "start": 6.0169,
      "duration": 0.4631,
      "velocity": 127,
      "chip": "ym2612"
    },
    {
      "channel": 2,
      "note": 98,
      "start": 6.0915,
      "duration": 0.0383,
      "velocity": 97,
      "chip": "ym2612"
    },
    {
      "channel": 2,
      "note": 89,
      "start": 6.1301,
      "duration": 0.0769,
      "velocity": 97,
      "chip": "ym2612"
    },
    {
      "channel": 4,
      "note": 65,
      "start": 6.1687,
      "duration": 0.1544,
      "velocity": 106,
      "chip": "ym2612"
    },
    {
      "channel": 2,
      "note": 89,
      "start": 6.2073,
      "duration": 0.0404,
      "velocity": 97,
      "chip": "ym2612"
    },
    {
      "channel": 3,
      "note": 62,
      "start": 6.2266,
      "duration": 0.6754,
      "velocity": 99,
      "chip": "ym2612"
    },
    {
      "channel": 0,
      "note": 66,
      "start": 6.2474,
      "duration": 0.2296,
      "velocity": 127,
      "chip": "ym2612"
    },
    {
      "channel": 1,
      "note": 53,
      "start": 6.2477,
      "duration": 0.4632,
      "velocity": 91,
      "chip": "ym2612"
    },
    {
      "channel": 2,
      "note": 92,
      "start": 6.248,
      "duration": 0.0746,
      "velocity": 97,
      "chip": "ym2612"
    },
    {
      "channel": 2,
      "note": 92,
      "start": 6.323,
      "duration": 0.0383,
      "velocity": 97,
      "chip": "ym2612"
    },
    {
      "channel": 4,
      "note": 65,
      "start": 6.3233,
      "duration": 0.1563,
      "velocity": 106,
      "chip": "ym2612"
    },
    {
      "channel": 2,
      "note": 98,
      "start": 6.3616,
      "duration": 0.0768,
      "velocity": 97,
      "chip": "ym2612"
    },
    {
      "channel": 2,
      "note": 98,
      "start": 6.4388,
      "duration": 0.0402,
      "velocity": 97,
      "chip": "ym2612"
    },
    {
      "channel": 0,
      "note": 41,
      "start": 6.479,
      "duration": 0.2296,
      "velocity": 127,
      "chip": "ym2612"
    },
    {
      "channel": 2,
      "note": 77,
      "start": 6.4796,
      "duration": 0.0747,
      "velocity": 97,
      "chip": "ym2612"
    },
    {
      "channel": 4,
      "note": 65,
      "start": 6.48,
      "duration": 0.1515,
      "velocity": 106,
      "chip": "ym2612"
    },
    {
      "channel": 2,
      "note": 77,
      "start": 6.5546,
      "duration": 0.0383,
      "velocity": 97,
      "chip": "ym2612"
    },
    {
      "channel": 2,
      "note": 83,
      "start": 6.5932,
      "duration": 0.0768,
      "velocity": 97,
      "chip": "ym2612"
    },
    {
      "channel": 4,
      "note": 65,
      "start": 6.6318,
      "duration": 0.1544,
      "velocity": 106,
      "chip": "ym2612"
    },
    {
      "channel": 2,
      "note": 83,
      "start": 6.6704,
      "duration": 0.0407,
      "velocity": 97,
      "chip": "ym2612"
    },
    {
      "channel": 0,
      "note": 66,
      "start": 6.7108,
      "duration": 0.2293,
      "velocity": 127,
      "chip": "ym2612"
    },
    {
      "channel": 1,
      "note": 55,
      "start": 6.7111,
      "duration": 0.231,
      "velocity": 91,
      "chip": "ym2612"
    },
    {
      "channel": 2,
      "note": 92,
      "start": 6.7115,
      "duration": 0.0743,
      "velocity": 97,
      "chip": "ym2612"
    },
    {
      "channel": 2,
      "note": 92,
      "start": 6.7861,
      "duration": 0.0383,
      "velocity": 97,
      "chip": "ym2612"
    },
    {
      "channel": 4,
      "note": 65,
      "start": 6.7864,
      "duration": 0.1563,
      "velocity": 106,
      "chip": "ym2612"
    },
    {
      "channel": 2,
      "note": 95,
      "start": 6.8247,
      "duration": 0.0768,
      "velocity": 97,
      "chip": "ym2612"
    },
    {
      "channel": 2,
      "note": 95,
      "start": 6.9019,
      "duration": 0.0405,
      "velocity": 97,
      "chip": "ym2612"
    },
    {
      "channel": 3,
      "note": 62,
      "start": 6.9021,
      "duration": 0.5074,
      "velocity": 99,
      "chip": "ym2612"
    },
    {
      "channel": 0,
      "note": 41,
      "start": 6.942,
      "duration": 0.2296,
      "velocity": 127,
      "chip": "ym2612"
    },
    {
      "channel": 1,
      "note": 56,
      "start": 6.9423,
      "duration": 0.2313,
      "velocity": 91,
      "chip": "ym2612"
    },
    {
      "channel": 2,
      "note": 98,
      "start": 6.9427,
      "duration": 0.0747,
      "velocity": 97,
      "chip": "ym2612"
    },
    {
      "channel": 4,
      "note": 65,
      "start": 6.9432,
      "duration": 0.1515,
      "velocity": 106,
      "chip": "ym2612"
    },
    {
      "channel": 5,
      "note": 48,
      "start": 6.9434,
      "duration": 0.4702,
      "velocity": 127,
      "chip": "ym2612"
    },
    {
      "channel": 2,
      "note": 98,
      "start": 7.0177,
      "duration": 0.0383,
      "velocity": 97,
      "chip": "ym2612"
    },
    {
      "channel": 2,
      "note": 89,
      "start": 7.0563,
      "duration": 0.0768,
      "velocity": 97,
      "chip": "ym2612"
    },
    {
      "channel": 4,
      "note": 65,
      "start": 7.0949,
      "duration": 0.1546,
      "velocity": 106,
      "chip": "ym2612"
    },
    {
      "channel": 2,
      "note": 89,
      "start": 7.1335,
      "duration": 0.0404,
      "velocity": 97,
      "chip": "ym2612"
    },
    {
      "channel": 0,
      "note": 66,
      "start": 7.1736,
      "duration": 0.2296,
      "velocity": 127,
      "chip": "ym2612"
    },
    {
      "channel": 1,
      "note": 48,
      "start": 7.1739,
      "duration": 0.2313,
      "velocity": 91,
      "chip": "ym2612"
    },
    {
      "channel": 2,
      "note": 92,
      "start": 7.1743,
      "duration": 0.0746,
      "velocity": 97,
      "chip": "ym2612"
    },
    {
      "channel": 2,
      "note": 92,
      "start": 7.2494,
      "duration": 0.038,
      "velocity": 97,
      "chip": "ym2612"
    },
    {
      "channel": 4,
      "note": 65,
      "start": 7.2498,
      "duration": 0.1618,
      "velocity": 106,
      "chip": "ym2612"
    },
    {
      "channel": 2,
      "note": 98,
      "start": 7.2878,
      "duration": 0.0768,
      "velocity": 97,
      "chip": "ym2612"
    },
    {
      "channel": 2,
      "note": 98,
      "start": 7.365,
      "duration": 0.0423,
      "velocity": 97,
      "chip": "ym2612"
    },
    {
      "channel": 0,
      "note": 41,
      "start": 7.4052,
      "duration": 0.2296,
      "velocity": 127,
      "chip": "ym2612"
    },
    {
      "channel": 1,
      "note": 53,
      "start": 7.4072,
      "duration": 0.3434,
      "velocity": 91,
      "chip": "ym2612"
    },
    {
      "channel": 2,
      "note": 77,
      "start": 7.4095,
      "duration": 0.0711,
      "velocity": 97,
      "chip": "ym2612"
    },
    {
      "channel": 3,
      "note": 60,
      "start": 7.4115,
      "duration": 0.6671,
      "velocity": 99,
      "chip": "ym2612"
    },
    {
      "channel": 4,
      "note": 65,
      "start": 7.4136,
      "duration": 0.1441,
      "velocity": 106,
      "chip": "ym2612"
    },
    {
      "channel": 2,
      "note": 77,
      "start": 7.4808,
      "duration": 0.0383,
      "velocity": 97,
      "chip": "ym2612"
    },
    {
      "channel": 2,
      "note": 84,
      "start": 7.5197,
      "duration": 0.0766,
      "velocity": 97,
      "chip": "ym2612"
    },
    {
      "channel": 4,
      "note": 65,
      "start": 7.558,
      "duration": 0.1544,
      "velocity": 106,
      "chip": "ym2612"
    },
    {
      "channel": 2,
      "note": 84,
      "start": 7.5966,
      "duration": 0.0401,
      "velocity": 97,
      "chip": "ym2612"
    },
    {
      "channel": 0,
      "note": 66,
      "start": 7.6367,
      "duration": 0.2296,
      "velocity": 127,
      "chip": "ym2612"
    },
    {
      "channel": 2,
      "note": 91,
      "start": 7.6371,
      "duration": 0.0749,
      "velocity": 97,
      "chip": "ym2612"
    },
    {
      "channel": 2,
      "note": 91,
      "start": 7.7123,
      "duration": 0.0385,
      "velocity": 97,
      "chip": "ym2612"
    },
    {
      "channel": 4,
      "note": 65,
      "start": 7.7126,
      "duration": 0.1561,
      "velocity": 106,
      "chip": "ym2612"
    },
    {
      "channel": 1,
      "note": 53,
      "start": 7.7508,
      "duration": 0.3493,
      "velocity": 91,
      "chip": "ym2612"
    },
    {
      "channel": 2,
      "note": 92,
      "start": 7.7512,
      "duration": 0.0766,
      "velocity": 97,
      "chip": "ym2612"
    },
    {
      "channel": 2,
      "note": 92,
      "start": 7.828,
      "duration": 0.0403,
      "velocity": 97,
      "chip": "ym2612"
    },
    {
      "channel": 0,
      "note": 41,
      "start": 7.8683,
      "duration": 0.2296,
      "velocity": 127,
      "chip": "ym2612"
    },
    {
      "channel": 2,
      "note": 99,
      "start": 7.8686,
      "duration": 0.075,
      "velocity": 97,
      "chip": "ym2612"
    },
    {
      "channel": 4,
      "note": 65,
      "start": 7.869,
      "duration": 0.1518,
      "velocity": 106,
      "chip": "ym2612"
    },
    {
      "channel": 5,
      "note": 48,
      "start": 7.8696,
      "duration": 0.4627,
      "velocity": 127,
      "chip": "ym2612"
    },
    {
      "channel": 2,
      "note": 99,
      "start": 7.9439,
      "duration": 0.0383,
      "velocity": 97,
      "chip": "ym2612"
    },
    {
      "channel": 2,
      "note": 91,
      "start": 7.9825,
      "duration": 0.0771,
      "velocity": 97,
      "chip": "ym2612"
    },
    {
      "channel": 4,
      "note": 65,
      "start": 8.0211,
      "duration": 0.1544,
      "velocity": 106,
      "chip": "ym2612"
    },
    {
      "channel": 2,
      "note": 91,
      "start": 8.06,
      "duration": 0.0404,
      "velocity": 97,
      "chip": "ym2612"
    },
    {
      "channel": 3,
      "note": 60,
      "start": 8.0789,
      "duration": 0.6754,
      "velocity": 99,
      "chip": "ym2612"
    },
    {
      "channel": 0,
      "note": 66,
      "start": 8.1001,
      "duration": 0.2294,
      "velocity": 127,
      "chip": "ym2612"
    },
    {
      "channel": 1,
      "note": 53,
      "start": 8.1003,
      "duration": 0.4626,
      "velocity": 91,
      "chip": "ym2612"
    },
    {
      "channel": 2,
      "note": 92,
      "start": 8.1007,
      "duration": 0.0743,
      "velocity": 97,
      "chip": "ym2612"
    },
    {
      "channel": 2,
      "note": 92,
      "start": 8.1754,
      "duration": 0.0383,
      "velocity": 97,
      "chip": "ym2612"
    },
    {
      "channel": 4,
      "note": 65,
      "start": 8.1757,
      "duration": 0.1562,
      "velocity": 106,
      "chip": "ym2612"
    },
    {
      "channel": 2,
      "note": 99,
      "start": 8.214,
      "duration": 0.0769,
      "velocity": 97,
      "chip": "ym2612"
    },
    {
      "channel": 2,
      "note": 99,
      "start": 8.2912,
      "duration": 0.0404,
      "velocity": 97,
      "chip": "ym2612"
    },
    {
      "channel": 0,
      "note": 41,
      "start": 8.3315,
      "duration": 0.2295,
      "velocity": 127,
      "chip": "ym2612"
    },
    {
      "channel": 2,
      "note": 77,
      "start": 8.3318,
      "duration": 0.0749,
      "velocity": 97,
      "chip": "ym2612"
    },
    {
      "channel": 4,
      "note": 65,
      "start": 8.3322,
      "duration": 0.1517,
      "velocity": 106,
      "chip": "ym2612"
    },
    {
      "channel": 2,
      "note": 77,
      "start": 8.4071,
      "duration": 0.0383,
      "velocity": 97,
      "chip": "ym2612"
    },
    {
      "channel": 2,
      "note": 84,
      "start": 8.4456,
      "duration": 0.0768,
      "velocity": 97,
      "chip": "ym2612"
    },
    {
      "channel": 4,
      "note": 65,
      "start": 8.4842,
      "duration": 0.1544,
      "velocity": 106,
      "chip": "ym2612"
    },
    {
      "channel": 2,
      "note": 84,
      "start": 8.5228,
      "duration": 0.0404,
      "velocity": 97,
      "chip": "ym2612"
    },
    {
      "channel": 0,
      "note": 66,
      "start": 8.5629,
      "duration": 0.2296,
      "velocity": 127,
      "chip": "ym2612"
    },
    {
      "channel": 1,
      "note": 55,
      "start": 8.5632,
      "duration": 0.2313,
      "velocity": 91,
      "chip": "ym2612"
    },
    {
      "channel": 2,
      "note": 91,
      "start": 8.5636,
      "duration": 0.0746,
      "velocity": 97,
      "chip": "ym2612"
    },
    {
      "channel": 2,
      "note": 91,
      "start": 8.6385,
      "duration": 0.0383,
      "velocity": 97,
      "chip": "ym2612"
    },
    {
      "channel": 4,
      "note": 65,
      "start": 8.6388,
      "duration": 0.1563,
      "velocity": 106,
      "chip": "ym2612"
    },
    {
      "channel": 2,
      "note": 92,
      "start": 8.6771,
      "duration": 0.0769,
      "velocity": 97,
      "chip": "ym2612"
    },
    {
      "channel": 2,
      "note": 92,
      "start": 8.7543,
      "duration": 0.0405,
      "velocity": 97,
      "chip": "ym2612"
    },
    {
      "channel": 3,
      "note": 60,
      "start": 8.7546,
      "duration": 0.5037,
      "velocity": 99,
      "chip": "ym2612"
    },
    {
      "channel": 0,
      "note": 41,
      "start": 8.7945,
      "duration": 0.2296,
      "velocity": 127,
      "chip": "ym2612"
    },
    {
      "channel": 1,
      "note": 56,
      "start": 8.7947,
      "duration": 0.4629,
      "velocity": 91,
      "chip": "ym2612"
    },
    {
      "channel": 2,
      "note": 99,
      "start": 8.7951,
      "duration": 0.0747,
      "velocity": 97,
      "chip": "ym2612"
    },
    {
      "channel": 4,
      "note": 65,
      "start": 8.7955,
      "duration": 0.1515,
      "velocity": 106,
      "chip": "ym2612"
    },
    {
      "channel": 5,
      "note": 48,
      "start": 8.7958,
      "duration": 0.4632,
      "velocity": 127,
      "chip": "ym2612"
    },
    {
      "channel": 2,
      "note": 99,
      "start": 8.8702,
      "duration": 0.0383,
      "velocity": 97,
      "chip": "ym2612"
    },
    {
      "channel": 2,
      "note": 91,
      "start": 8.9087,
      "duration": 0.0769,
      "velocity": 97,
      "chip": "ym2612"
    },
    {
      "channel": 4,
      "note": 65,
      "start": 8.9473,
      "duration": 0.1544,
      "velocity": 106,
      "chip": "ym2612"
    },
    {
      "channel": 2,
      "note": 91,
      "start": 8.9859,
      "duration": 0.0402,
      "velocity": 97,
      "chip": "ym2612"
    },
    {
      "channel": 0,
      "note": 66,
      "start": 9.026,
      "duration": 0.2296,
      "velocity": 127,
      "chip": "ym2612"
    },
    {
      "channel": 2,
      "note": 92,
      "start": 9.0264,
      "duration": 0.0749,
      "velocity": 97,
      "chip": "ym2612"
    },
    {
      "channel": 2,
      "note": 92,
      "start": 9.1016,
      "duration": 0.0383,
      "velocity": 97,
      "chip": "ym2612"
    },
    {
      "channel": 4,
      "note": 65,
      "start": 9.102,
      "duration": 0.1566,
      "velocity": 106,
      "chip": "ym2612"
    },
    {
      "channel": 2,
      "note": 99,
      "start": 9.1402,
      "duration": 0.0769,
      "velocity": 97,
      "chip": "ym2612"
    },
    {
      "channel": 2,
      "note": 99,
      "start": 9.2174,
      "duration": 0.0405,
      "velocity": 97,
      "chip": "ym2612"
    },
    {
      "channel": 0,
      "note": 41,
      "start": 9.2576,
      "duration": 0.2296,
      "velocity": 127,
      "chip": "ym2612"
    },
    {
      "channel": 1,
      "note": 53,
      "start": 9.2579,
      "duration": 0.3451,
      "velocity": 91,
      "chip": "ym2612"
    },
    {
      "channel": 2,
      "note": 77,
      "start": 9.2583,
      "duration": 0.0747,
      "velocity": 97,
      "chip": "ym2612"
    },
    {
      "channel": 3,
      "note": 62,
      "start": 9.2585,
      "duration": 0.6726,
      "velocity": 99,
      "chip": "ym2612"
    },
    {
      "channel": 4,
      "note": 65,
      "start": 9.2589,
      "duration": 0.1512,
      "velocity": 106,
      "chip": "ym2612"
    },
    {
      "channel": 2,
      "note": 77,
      "start": 9.3333,
      "duration": 0.0383,
      "velocity": 97,
      "chip": "ym2612"
    },
    {
      "channel": 2,
      "note": 83,
      "start": 9.3718,
      "duration": 0.0769,
      "velocity": 97,
      "chip": "ym2612"
    },
    {
      "channel": 4,
      "note": 65,
      "start": 9.4104,
      "duration": 0.1544,
      "velocity": 106,
      "chip": "ym2612"
    },
    {
      "channel": 2,
      "note": 83,
      "start": 9.449,
      "duration": 0.0404,
      "velocity": 97,
      "chip": "ym2612"
    },
    {
      "channel": 0,
      "note": 66,
      "start": 9.4891,
      "duration": 0.2296,
      "velocity": 127,
      "chip": "ym2612"
    },
    {
      "channel": 2,
      "note": 92,
      "start": 9.4898,
      "duration": 0.0746,
      "velocity": 97,
      "chip": "ym2612"
    },
    {
      "channel": 2,
      "note": 92,
      "start": 9.5647,
      "duration": 0.0385,
      "velocity": 97,
      "chip": "ym2612"
    },
    {
      "channel": 4,
      "note": 65,
      "start": 9.565,
      "duration": 0.1563,
      "velocity": 106,
      "chip": "ym2612"
    },
    {
      "channel": 1,
      "note": 53,
      "start": 9.6032,
      "duration": 0.3491,
      "velocity": 91,
      "chip": "ym2612"
    },
    {
      "channel": 2,
      "note": 95,
      "start": 9.6036,
      "duration": 0.0766,
      "velocity": 97,
      "chip": "ym2612"
    },
    {
      "channel": 2,
      "note": 95,
      "start": 9.6805,
      "duration": 0.0405,
      "velocity": 97,
      "chip": "ym2612"
    },
    {
      "channel": 0,
      "note": 41,
      "start": 9.7209,
      "duration": 0.2293,
      "velocity": 127,
      "chip": "ym2612"
    },
    {
      "channel": 2,
      "note": 98,
      "start": 9.7213,
      "duration": 0.0747,
      "velocity": 97,
      "chip": "ym2612"
    },
    {
      "channel": 4,
      "note": 65,
      "start": 9.7217,
      "duration": 0.1515,
      "velocity": 106,
      "chip": "ym2612"
    },
    {
      "channel": 5,
      "note": 48,
      "start": 9.722,
      "duration": 0.4626,
      "velocity": 127,
      "chip": "ym2612"
    },
    {
      "channel": 2,
      "note": 98,
      "start": 9.7964,
      "duration": 0.0383,
      "velocity": 97,
      "chip": "ym2612"
    },
    {
      "channel": 2,
      "note": 89,
      "start": 9.8349,
      "duration": 0.0769,
      "velocity": 97,
      "chip": "ym2612"
    },
    {
      "channel": 4,
      "note": 65,
      "start": 9.8735,
      "duration": 0.1544,
      "velocity": 106,
      "chip": "ym2612"
    },
    {
      "channel": 2,
      "note": 89,
      "start": 9.9121,
      "duration": 0.0404,
      "velocity": 97,
      "chip": "ym2612"
    },
    {
      "channel": 3,
      "note": 62,
      "start": 9.9313,
      "duration": 0.6754,
      "velocity": 99,
      "chip": "ym2612"
    },
    {
      "channel": 0,
      "note": 66,
      "start": 9.9522,
      "duration": 0.2296,
      "velocity": 127,
      "chip": "ym2612"
    },
    {
      "channel": 1,
      "note": 53,
      "start": 9.9525,
      "duration": 0.4629,
      "velocity": 91,
      "chip": "ym2612"
    },
    {
      "channel": 2,
      "note": 92,
      "start": 9.9529,
      "duration": 0.0746,
      "velocity": 97,
      "chip": "ym2612"
    },
    {
      "channel": 2,
      "note": 92,
      "start": 10.0278,
      "duration": 0.0383,
      "velocity": 97,
      "chip": "ym2612"
    },
    {
      "channel": 4,
      "note": 65,
      "start": 10.0281,
      "duration": 0.1561,
      "velocity": 106,
      "chip": "ym2612"
    },
    {
      "channel": 2,
      "note": 98,
      "start": 10.0664,
      "duration": 0.0768,
      "velocity": 97,
      "chip": "ym2612"
    },
    {
      "channel": 2,
      "note": 98,
      "start": 10.1436,
      "duration": 0.0402,
      "velocity": 97,
      "chip": "ym2612"
    },
    {
      "channel": 0,
      "note": 41,
      "start": 10.1838,
      "duration": 0.2296,
      "velocity": 127,
      "chip": "ym2612"
    },
    {
      "channel": 2,
      "note": 77,
      "start": 10.1842,
      "duration": 0.075,
      "velocity": 97,
      "chip": "ym2612"
    },
    {
      "channel": 4,
      "note": 65,
      "start": 10.1846,
      "duration": 0.1518,
      "velocity": 106,
      "chip": "ym2612"
    },
    {
      "channel": 2,
      "note": 77,
      "start": 10.2597,
      "duration": 0.038,
      "velocity": 97,
      "chip": "ym2612"
    },
    {
      "channel": 2,
      "note": 83,
      "start": 10.298,
      "duration": 0.0769,
      "velocity": 97,
      "chip": "ym2612"
    },
    {
      "channel": 4,
      "note": 65,
      "start": 10.3366,
      "duration": 0.1544,
      "velocity": 106,
      "chip": "ym2612"
    },
    {
      "channel": 2,
      "note": 83,
      "start": 10.3752,
      "duration": 0.0404,
      "velocity": 97,
      "chip": "ym2612"
    },
    {
      "channel": 0,
      "note": 66,
      "start": 10.4153,
      "duration": 0.2296,
      "velocity": 127,
      "chip": "ym2612"
    },
    {
      "channel": 1,
      "note": 55,
      "start": 10.4156,
      "duration": 0.2313,
      "velocity": 91,
      "chip": "ym2612"
    },
    {
      "channel": 2,
      "note": 92,
      "start": 10.416,
      "duration": 0.0746,
      "velocity": 97,
      "chip": "ym2612"
    },
    {
      "channel": 2,
      "note": 92,
      "start": 10.4909,
      "duration": 0.0385,
      "velocity": 97,
      "chip": "ym2612"
    },
    {
      "channel": 4,
      "note": 65,
      "start": 10.4912,
      "duration": 0.1564,
      "velocity": 106,
      "chip": "ym2612"
    },
    {
      "channel": 2,
      "note": 95,
      "start": 10.5298,
      "duration": 0.0766,
      "velocity": 97,
      "chip": "ym2612"
    },
    {
      "channel": 2,
      "note": 95,
      "start": 10.6067,
      "duration": 0.0405,
      "velocity": 97,
      "chip": "ym2612"
    },
    {
      "channel": 3,
      "note": 62,
      "start": 10.607,
      "duration": 0.5041,
      "velocity": 99,
      "chip": "ym2612"
    },
    {
      "channel": 0,
      "note": 41,
      "start": 10.6469,
      "duration": 0.2296,
      "velocity": 127,
      "chip": "ym2612"
    },
    {
      "channel": 1,
      "note": 56,
      "start": 10.6472,
      "duration": 0.2314,
      "velocity": 91,
      "chip": "ym2612"
    },
    {
      "channel": 2,
      "note": 98,
      "start": 10.6476,
      "duration": 0.0747,
      "velocity": 97,
      "chip": "ym2612"
    },
    {
      "channel": 4,
      "note": 65,
      "start": 10.6479,
      "duration": 0.1517,
      "velocity": 106,
      "chip": "ym2612"
    },
    {
      "channel": 5,
      "note": 48,
      "start": 10.6482,
      "duration": 0.4635,
      "velocity": 127,
      "chip": "ym2612"
    },
    {
      "channel": 2,
      "note": 98,
      "start": 10.7226,
      "duration": 0.0383,
      "velocity": 97,
      "chip": "ym2612"
    },
    {
      "channel": 2,
      "note": 89,
      "start": 10.7612,
      "duration": 0.0768,
      "velocity": 97,
      "chip": "ym2612"
    },
    {
      "channel": 4,
      "note": 65,
      "start": 10.7999,
      "duration": 0.1542,
      "velocity": 106,
      "chip": "ym2612"
    },
    {
      "channel": 2,
      "note": 89,
      "start": 10.8383,
      "duration": 0.0405,
      "velocity": 97,
      "chip": "ym2612"
    },
    {
      "channel": 0,
      "note": 66,
      "start": 10.8785,
      "duration": 0.2295,
      "velocity": 127,
      "chip": "ym2612"
    },
    {
      "channel": 1,
      "note": 48,
      "start": 10.8788,
      "duration": 0.2316,
      "velocity": 91,
      "chip": "ym2612"
    },
    {
      "channel": 2,
      "note": 92,
      "start": 10.8791,
      "duration": 0.0745,
      "velocity": 97,
      "chip": "ym2612"
    },
    {
      "channel": 2,
      "note": 92,
      "start": 10.954,
      "duration": 0.0383,
      "velocity": 97,
      "chip": "ym2612"
    },
    {
      "channel": 4,
      "note": 65,
      "start": 10.9544,
      "duration": 0.157,
      "velocity": 106,
      "chip": "ym2612"
    },
    {
      "channel": 2,
      "note": 98,
      "start": 10.9926,
      "duration": 0.0769,
      "velocity": 97,
      "chip": "ym2612"
    },
    {
      "channel": 2,
      "note": 98,
      "start": 11.0698,
      "duration": 0.0408,
      "velocity": 97,
      "chip": "ym2612"
    },
    {
      "channel": 0,
      "note": 41,
      "start": 11.1103,
      "duration": 0.2293,
      "velocity": 127,
      "chip": "ym2612"
    },
    {
      "channel": 1,
      "note": 53,
      "start": 11.1106,
      "duration": 0.3448,
      "velocity": 91,
      "chip": "ym2612"
    },
    {
      "channel": 2,
      "note": 77,
      "start": 11.111,
      "duration": 0.0744,
      "velocity": 97,
      "chip": "ym2612"
    },
    {
      "channel": 3,
      "note": 60,
      "start": 11.1112,
      "duration": 0.6723,
      "velocity": 99,
      "chip": "ym2612"
    },
    {
      "channel": 4,
      "note": 65,
      "start": 11.1116,
      "duration": 0.1509,
      "velocity": 106,
      "chip": "ym2612"
    },
    {
      "channel": 2,
      "note": 77,
      "start": 11.1857,
      "duration": 0.0383,
      "velocity": 97,
      "chip": "ym2612"
    },
    {
      "channel": 2,
      "note": 84,
      "start": 11.2243,
      "duration": 0.0768,
      "velocity": 97,
      "chip": "ym2612"
    },
    {
      "channel": 4,
      "note": 65,
      "start": 11.2628,
      "duration": 0.1544,
      "velocity": 106,
      "chip": "ym2612"
    },
    {
      "channel": 2,
      "note": 84,
      "start": 11.3015,
      "duration": 0.0401,
      "velocity": 97,
      "chip": "ym2612"
    },
    {
      "channel": 0,
      "note": 66,
      "start": 11.3415,
      "duration": 0.2296,
      "velocity": 127,
      "chip": "ym2612"
    },
    {
      "channel": 2,
      "note": 91,
      "start": 11.3419,
      "duration": 0.0749,
      "velocity": 97,
      "chip": "ym2612"
    },
    {
      "channel": 2,
      "note": 91,
      "start": 11.4171,
      "duration": 0.0385,
      "velocity": 97,
      "chip": "ym2612"
    },
    {
      "channel": 4,
      "note": 65,
      "start": 11.4175,
      "duration": 0.1561,
      "velocity": 106,
      "chip": "ym2612"
    },
    {
      "channel": 1,
      "note": 53,
      "start": 11.4556,
      "duration": 0.3491,
      "velocity": 91,
      "chip": "ym2612"
    },
    {
      "channel": 2,
      "note": 92,
      "start": 11.456,
      "duration": 0.0766,
      "velocity": 97,
      "chip": "ym2612"
    },
    {
      "channel": 2,
      "note": 92,
      "start": 11.5329,
      "duration": 0.0402,
      "velocity": 97,
      "chip": "ym2612"
    },
    {
      "channel": 0,
      "note": 41,
      "start": 11.5731,
      "duration": 0.2296,
      "velocity": 127,
      "chip": "ym2612"
    },
    {
      "channel": 2,
      "note": 99,
      "start": 11.5735,
      "duration": 0.075,
      "velocity": 97,
      "chip": "ym2612"
    },
    {
      "channel": 4,
      "note": 65,
      "start": 11.5739,
      "duration": 0.1518,
      "velocity": 106,
      "chip": "ym2612"
    },
    {
      "channel": 5,
      "note": 48,
      "start": 11.5741,
      "duration": 0.4629,
      "velocity": 127,
      "chip": "ym2612"
    },
    {
      "channel": 2,
      "note": 99,
      "start": 11.6488,
      "duration": 0.0383,
      "velocity": 97,
      "chip": "ym2612"
    },
    {
      "channel": 2,
      "note": 91,
      "start": 11.6874,
      "duration": 0.0768,
      "velocity": 97,
      "chip": "ym2612"
    },
    {
      "channel": 4,
      "note": 65,
      "start": 11.7259,
      "duration": 0.1544,
      "velocity": 106,
      "chip": "ym2612"
    },
    {
      "channel": 2,
      "note": 91,
      "start": 11.7646,
      "duration": 0.0404,
      "velocity": 97,
      "chip": "ym2612"
    },
    {
      "channel": 3,
      "note": 60,
      "start": 11.7838,
      "duration": 0.6756,
      "velocity": 99,
      "chip": "ym2612"
    },
    {
      "channel": 0,
      "note": 66,
      "start": 11.8046,
      "duration": 0.2296,
      "velocity": 127,
      "chip": "ym2612"
    },
    {
      "channel": 1,
      "note": 53,
      "start": 11.8049,
      "duration": 0.4629,
      "velocity": 91,
      "chip": "ym2612"
    },
    {
      "channel": 2,
      "note": 92,
      "start": 11.8053,
      "duration": 0.0746,
      "velocity": 97,
      "chip": "ym2612"
    },
    {
      "channel": 2,
      "note": 92,
      "start": 11.8802,
      "duration": 0.0383,
      "velocity": 97,
      "chip": "ym2612"
    },
    {
      "channel": 4,
      "note": 65,
      "start": 11.8806,
      "duration": 0.1561,
      "velocity": 106,
      "chip": "ym2612"
    },
    {
      "channel": 2,
      "note": 99,
      "start": 11.9188,
      "duration": 0.0769,
      "velocity": 97,
      "chip": "ym2612"
    },
    {
      "channel": 2,
      "note": 99,
      "start": 11.996,
      "duration": 0.0403,
      "velocity": 97,
      "chip": "ym2612"
    },
    {
      "channel": 0,
      "note": 41,
      "start": 12.0362,
      "duration": 0.2296,
      "velocity": 127,
      "chip": "ym2612"
    },
    {
      "channel": 2,
      "note": 77,
      "start": 12.0366,
      "duration": 0.0749,
      "velocity": 97,
      "chip": "ym2612"
    },
    {
      "channel": 4,
      "note": 65,
      "start": 12.037,
      "duration": 0.1518,
      "velocity": 106,
      "chip": "ym2612"
    },
    {
      "channel": 2,
      "note": 77,
      "start": 12.1119,
      "duration": 0.0383,
      "velocity": 97,
      "chip": "ym2612"
    },
    {
      "channel": 2,
      "note": 84,
      "start": 12.1505,
      "duration": 0.0768,
      "velocity": 97,
      "chip": "ym2612"
    },
    {
      "channel": 4,
      "note": 65,
      "start": 12.189,
      "duration": 0.1544,
      "velocity": 106,
      "chip": "ym2612"
    },
    {
      "channel": 2,
      "note": 84,
      "start": 12.2277,
      "duration": 0.0404,
      "velocity": 97,
      "chip": "ym2612"
    },
    {
      "channel": 0,
      "note": 66,
      "start": 12.2677,
      "duration": 0.2296,
      "velocity": 127,
      "chip": "ym2612"
    },
    {
      "channel": 1,
      "note": 55,
      "start": 12.268,
      "duration": 0.2316,
      "velocity": 91,
      "chip": "ym2612"
    },
    {
      "channel": 2,
      "note": 91,
      "start": 12.2684,
      "duration": 0.0746,
      "velocity": 97,
      "chip": "ym2612"
    },
    {
      "channel": 2,
      "note": 91,
      "start": 12.3433,
      "duration": 0.0383,
      "velocity": 97,
      "chip": "ym2612"
    },
    {
      "channel": 4,
      "note": 65,
      "start": 12.3437,
      "duration": 0.1566,
      "velocity": 106,
      "chip": "ym2612"
    },
    {
      "channel": 2,
      "note": 92,
      "start": 12.3819,
      "duration": 0.0769,
      "velocity": 97,
      "chip": "ym2612"
    },
    {
      "channel": 2,
      "note": 92,
      "start": 12.4591,
      "duration": 0.0408,
      "velocity": 97,
      "chip": "ym2612"
    },
    {
      "channel": 3,
      "note": 60,
      "start": 12.4596,
      "duration": 0.5035,
      "velocity": 99,
      "chip": "ym2612"
    },
    {
      "channel": 0,
      "note": 41,
      "start": 12.4995,
      "duration": 0.2294,
      "velocity": 127,
      "chip": "ym2612"
    },
    {
      "channel": 1,
      "note": 56,
      "start": 12.4998,
      "duration": 0.4626,
      "velocity": 91,
      "chip": "ym2612"
    },
    {
      "channel": 2,
      "note": 99,
      "start": 12.5002,
      "duration": 0.0744,
      "velocity": 97,
      "chip": "ym2612"
    },
    {
      "channel": 4,
      "note": 65,
      "start": 12.5006,
      "duration": 0.1512,
      "velocity": 106,
      "chip": "ym2612"
    },
    {
      "channel": 5,
      "note": 48,
      "start": 12.5009,
      "duration": 0.4629,
      "velocity": 127,
      "chip": "ym2612"
    },
    {
      "channel": 2,
      "note": 99,
      "start": 12.575,
      "duration": 0.0383,
      "velocity": 97,
      "chip": "ym2612"
    },
    {
      "channel": 2,
      "note": 91,
      "start": 12.6136,
      "duration": 0.0768,
      "velocity": 97,
      "chip": "ym2612"
    },
    {
      "channel": 4,
      "note": 65,
      "start": 12.6521,
      "duration": 0.1544,
      "velocity": 106,
      "chip": "ym2612"
    },
    {
      "channel": 2,
      "note": 91,
      "start": 12.6907,
      "duration": 0.0404,
      "velocity": 97,
      "chip": "ym2612"
    },
    {
      "channel": 0,
      "note": 66,
      "start": 12.7311,
      "duration": 0.2294,
      "velocity": 127,
      "chip": "ym2612"
    },
    {
      "channel": 2,
      "note": 92,
      "start": 12.7315,
      "duration": 0.0746,
      "velocity": 97,
      "chip": "ym2612"
    },
    {
      "channel": 2,
      "note": 92,
      "start": 12.8064,
      "duration": 0.0383,
      "velocity": 97,
      "chip": "ym2612"
    },
    {
      "channel": 4,
      "note": 65,
      "start": 12.8068,
      "duration": 0.1566,
      "velocity": 106,
      "chip": "ym2612"
    },
    {
      "channel": 2,
      "note": 99,
      "start": 12.845,
      "duration": 0.0769,
      "velocity": 97,
      "chip": "ym2612"
    },
    {
      "channel": 2,
      "note": 99,
      "start": 12.9222,
      "duration": 0.0405,
      "velocity": 97,
      "chip": "ym2612"
    },
    {
      "channel": 0,
      "note": 41,
      "start": 12.9624,
      "duration": 0.2296,
      "velocity": 127,
      "chip": "ym2612"
    },
    {
      "channel": 1,
      "note": 53,
      "start": 12.9627,
      "duration": 0.3451,
      "velocity": 91,
      "chip": "ym2612"
    },
    {
      "channel": 2,
      "note": 77,
      "start": 12.9631,
      "duration": 0.0747,
      "velocity": 97,
      "chip": "ym2612"
    },
    {
      "channel": 3,
      "note": 62,
      "start": 12.9634,
      "duration": 0.6726,
      "velocity": 99,
      "chip": "ym2612"
    },
    {
      "channel": 4,
      "note": 65,
      "start": 12.9637,
      "duration": 0.1512,
      "velocity": 106,
      "chip": "ym2612"
    },
    {
      "channel": 2,
      "note": 77,
      "start": 13.0381,
      "duration": 0.0383,
      "velocity": 97,
      "chip": "ym2612"
    },
    {
      "channel": 2,
      "note": 83,
      "start": 13.0767,
      "duration": 0.0768,
      "velocity": 97,
      "chip": "ym2612"
    },
    {
      "channel": 4,
      "note": 65,
      "start": 13.1152,
      "duration": 0.1546,
      "velocity": 106,
      "chip": "ym2612"
    },
    {
      "channel": 2,
      "note": 83,
      "start": 13.1539,
      "duration": 0.0402,
      "velocity": 97,
      "chip": "ym2612"
    },
    {
      "channel": 0,
      "note": 66,
      "start": 13.1939,
      "duration": 0.2296,
      "velocity": 127,
      "chip": "ym2612"
    },
    {
      "channel": 2,
      "note": 92,
      "start": 13.1943,
      "duration": 0.0751,
      "velocity": 97,
      "chip": "ym2612"
    },
    {
      "channel": 2,
      "note": 92,
      "start": 13.2698,
      "duration": 0.0383,
      "velocity": 97,
      "chip": "ym2612"
    },
    {
      "channel": 4,
      "note": 65,
      "start": 13.2701,
      "duration": 0.1558,
      "velocity": 106,
      "chip": "ym2612"
    },
    {
      "channel": 1,
      "note": 53,
      "start": 13.308,
      "duration": 0.3491,
      "velocity": 91,
      "chip": "ym2612"
    },
    {
      "channel": 2,
      "note": 95,
      "start": 13.3084,
      "duration": 0.0766,
      "velocity": 97,
      "chip": "ym2612"
    },
    {
      "channel": 2,
      "note": 95,
      "start": 13.3853,
      "duration": 0.0403,
      "velocity": 97,
      "chip": "ym2612"
    },
    {
      "channel": 0,
      "note": 41,
      "start": 13.4255,
      "duration": 0.2296,
      "velocity": 127,
      "chip": "ym2612"
    },
    {
      "channel": 2,
      "note": 98,
      "start": 13.4259,
      "duration": 0.075,
      "velocity": 97,
      "chip": "ym2612"
    },
    {
      "channel": 4,
      "note": 65,
      "start": 13.4263,
      "duration": 0.1518,
      "velocity": 106,
      "chip": "ym2612"
    },
    {
      "channel": 5,
      "note": 48,
      "start": 13.4266,
      "duration": 0.4631,
      "velocity": 127,
      "chip": "ym2612"
    },
    {
      "channel": 2,
      "note": 98,
      "start": 13.5012,
      "duration": 0.0384,
      "velocity": 97,
      "chip": "ym2612"
    },
    {
      "channel": 2,
      "note": 89,
      "start": 13.54,
      "duration": 0.0767,
      "velocity": 97,
      "chip": "ym2612"
    },
    {
      "channel": 4,
      "note": 65,
      "start": 13.5783,
      "duration": 0.1544,
      "velocity": 106,
      "chip": "ym2612"
    },
    {
      "channel": 2,
      "note": 89,
      "start": 13.617,
      "duration": 0.0404,
      "velocity": 97,
      "chip": "ym2612"
    },
    {
      "channel": 3,
      "note": 62,
      "start": 13.6362,
      "duration": 0.6754,
      "velocity": 99,
      "chip": "ym2612"
    },
    {
      "channel": 0,
      "note": 66,
      "start": 13.6571,
      "duration": 0.2296,
      "velocity": 127,
      "chip": "ym2612"
    },
    {
      "channel": 1,
      "note": 53,
      "start": 13.6573,
      "duration": 0.4631,
      "velocity": 91,
      "chip": "ym2612"
    },
    {
      "channel": 2,
      "note": 92,
      "start": 13.6577,
      "duration": 0.0746,
      "velocity": 97,
      "chip": "ym2612"
    },
    {
      "channel": 2,
      "note": 92,
      "start": 13.7326,
      "duration": 0.0383,
      "velocity": 97,
      "chip": "ym2612"
    },
    {
      "channel": 4,
      "note": 65,
      "start": 13.733,
      "duration": 0.1561,
      "velocity": 106,
      "chip": "ym2612"
    },
    {
      "channel": 2,
      "note": 98,
      "start": 13.7712,
      "duration": 0.0768,
      "velocity": 97,
      "chip": "ym2612"
    },
    {
      "channel": 2,
      "note": 98,
      "start": 13.8484,
      "duration": 0.0403,
      "velocity": 97,
      "chip": "ym2612"
    },
    {
      "channel": 0,
      "note": 41,
      "start": 13.8886,
      "duration": 0.2296,
      "velocity": 127,
      "chip": "ym2612"
    },
    {
      "channel": 2,
      "note": 77,
      "start": 13.889,
      "duration": 0.075,
      "velocity": 97,
      "chip": "ym2612"
    },
    {
      "channel": 4,
      "note": 65,
      "start": 13.8896,
      "duration": 0.1515,
      "velocity": 106,
      "chip": "ym2612"
    },
    {
      "channel": 2,
      "note": 77,
      "start": 13.9643,
      "duration": 0.0383,
      "velocity": 97,
      "chip": "ym2612"
    },
    {
      "channel": 2,
      "note": 83,
      "start": 14.0029,
      "duration": 0.0769,
      "velocity": 97,
      "chip": "ym2612"
    },
    {
      "channel": 4,
      "note": 65,
      "start": 14.0415,
      "duration": 0.1544,
      "velocity": 106,
      "chip": "ym2612"
    },
    {
      "channel": 2,
      "note": 83,
      "start": 14.0801,
      "duration": 0.0407,
      "velocity": 97,
      "chip": "ym2612"
    },
    {
      "channel": 0,
      "note": 66,
      "start": 14.1204,
      "duration": 0.2294,
      "velocity": 127,
      "chip": "ym2612"
    },
    {
      "channel": 1,
      "note": 55,
      "start": 14.1207,
      "duration": 0.2311,
      "velocity": 91,
      "chip": "ym2612"
    },
    {
      "channel": 2,
      "note": 92,
      "start": 14.1211,
      "duration": 0.0744,
      "velocity": 97,
      "chip": "ym2612"
    },
    {
      "channel": 2,
      "note": 92,
      "start": 14.1957,
      "duration": 0.0383,
      "velocity": 97,
      "chip": "ym2612"
    },
    {
      "channel": 4,
      "note": 65,
      "start": 14.1961,
      "duration": 0.1564,
      "velocity": 106,
      "chip": "ym2612"
    },
    {
      "channel": 2,
      "note": 95,
      "start": 14.2344,
      "duration": 0.0768,
      "velocity": 97,
      "chip": "ym2612"
    },
    {
      "channel": 2,
      "note": 95,
      "start": 14.3115,
      "duration": 0.0405,
      "velocity": 97,
      "chip": "ym2612"
    },
    {
      "channel": 3,
      "note": 62,
      "start": 14.3118,
      "duration": 0.5071,
      "velocity": 99,
      "chip": "ym2612"
    },
    {
      "channel": 0,
      "note": 41,
      "start": 14.3517,
      "duration": 0.2296,
      "velocity": 127,
      "chip": "ym2612"
    },
    {
      "channel": 1,
      "note": 56,
      "start": 14.352,
      "duration": 0.2313,
      "velocity": 91,
      "chip": "ym2612"
    },
    {
      "channel": 2,
      "note": 98,
      "start": 14.3524,
      "duration": 0.0747,
      "velocity": 97,
      "chip": "ym2612"
    },
    {
      "channel": 4,
      "note": 65,
      "start": 14.3528,
      "duration": 0.1515,
      "velocity": 106,
      "chip": "ym2612"
    },
    {
      "channel": 5,
      "note": 48,
      "start": 14.3531,
      "duration": 0.4703,
      "velocity": 127,
      "chip": "ym2612"
    },
    {
      "channel": 2,
      "note": 98,
      "start": 14.4274,
      "duration": 0.0383,
      "velocity": 97,
      "chip": "ym2612"
    },
    {
      "channel": 2,
      "note": 89,
      "start": 14.466,
      "duration": 0.0768,
      "velocity": 97,
      "chip": "ym2612"
    },
    {
      "channel": 4,
      "note": 65,
      "start": 14.5046,
      "duration": 0.1544,
      "velocity": 106,
      "chip": "ym2612"
    },
    {
      "channel": 2,
      "note": 89,
      "start": 14.5432,
      "duration": 0.0404,
      "velocity": 97,
      "chip": "ym2612"
    },
    {
      "channel": 0,
      "note": 66,
      "start": 14.5833,
      "duration": 0.2296,
      "velocity": 127,
      "chip": "ym2612"
    },
    {
      "channel": 1,
      "note": 48,
      "start": 14.5835,
      "duration": 0.2314,
      "velocity": 91,
      "chip": "ym2612"
    },
    {
      "channel": 2,
      "note": 92,
      "start": 14.5839,
      "duration": 0.0746,
      "velocity": 97,
      "chip": "ym2612"
    },
    {
      "channel": 2,
      "note": 92,
      "start": 14.6588,
      "duration": 0.0383,
      "velocity": 97,
      "chip": "ym2612"
    },
    {
      "channel": 4,
      "note": 65,
      "start": 14.6594,
      "duration": 0.1618,
      "velocity": 106,
      "chip": "ym2612"
    },
    {
      "channel": 2,
      "note": 98,
      "start": 14.6974,
      "duration": 0.0768,
      "velocity": 97,
      "chip": "ym2612"
    },
    {
      "channel": 2,
      "note": 98,
      "start": 14.7746,
      "duration": 0.0423,
      "velocity": 97,
      "chip": "ym2612"
    },
    {
      "channel": 0,
      "note": 41,
      "start": 14.8148,
      "duration": 0.2296,
      "velocity": 127,
      "chip": "ym2612"
    },
    {
      "channel": 1,
      "note": 53,
      "start": 14.8168,
      "duration": 0.3434,
      "velocity": 91,
      "chip": "ym2612"
    },
    {
      "channel": 2,
      "note": 56,
      "start": 14.8189,
      "duration": 0.2275,
      "velocity": 89,
      "chip": "ym2612"
    },
    {
      "channel": 3,
      "note": 53,
      "start": 14.8212,
      "duration": 0.2255,
      "velocity": 89,
      "chip": "ym2612"
    },
    {
      "channel": 4,
      "note": 65,
      "start": 14.8233,
      "duration": 0.1441,
      "velocity": 106,
      "chip": "ym2612"
    },
    {
      "channel": 4,
      "note": 65,
      "start": 14.9677,
      "duration": 0.154,
      "velocity": 106,
      "chip": "ym2612"
    },
    {
      "channel": 0,
      "note": 66,
      "start": 15.0464,
      "duration": 0.2296,
      "velocity": 127,
      "chip": "ym2612"
    },
    {
      "channel": 2,
      "note": 56,
      "start": 15.0467,
      "duration": 0.1138,
      "velocity": 89,
      "chip": "ym2612"
    },
    {
      "channel": 3,
      "note": 53,
      "start": 15.0471,
      "duration": 0.1138,
      "velocity": 89,
      "chip": "ym2612"
    },
    {
      "channel": 4,
      "note": 65,
      "start": 15.1219,
      "duration": 0.1561,
      "velocity": 106,
      "chip": "ym2612"
    },
    {
      "channel": 1,
      "note": 53,
      "start": 15.1604,
      "duration": 0.3493,
      "velocity": 91,
      "chip": "ym2612"
    },
    {
      "channel": 2,
      "note": 56,
      "start": 15.1608,
      "duration": 0.2311,
      "velocity": 89,
      "chip": "ym2612"
    },
    {
      "channel": 3,
      "note": 53,
      "start": 15.1611,
      "duration": 0.2311,
      "velocity": 89,
      "chip": "ym2612"
    },
    {
      "channel": 0,
      "note": 41,
      "start": 15.278,
      "duration": 0.2296,
      "velocity": 127,
      "chip": "ym2612"
    },
    {
      "channel": 4,
      "note": 65,
      "start": 15.2784,
      "duration": 0.1521,
      "velocity": 106,
      "chip": "ym2612"
    },
    {
      "channel": 5,
      "note": 48,
      "start": 15.2786,
      "duration": 0.4637,
      "velocity": 127,
      "chip": "ym2612"
    },
    {
      "channel": 2,
      "note": 56,
      "start": 15.3922,
      "duration": 0.1179,
      "velocity": 89,
      "chip": "ym2612"
    },
    {
      "channel": 3,
      "note": 53,
      "start": 15.3925,
      "duration": 0.1179,
      "velocity": 89,
      "chip": "ym2612"
    },
    {
      "channel": 4,
      "note": 65,
      "start": 15.4307,
      "duration": 0.154,
      "velocity": 106,
      "chip": "ym2612"
    },
    {
      "channel": 0,
      "note": 66,
      "start": 15.5097,
      "duration": 0.2293,
      "velocity": 127,
      "chip": "ym2612"
    },
    {
      "channel": 1,
      "note": 53,
      "start": 15.51,
      "duration": 0.4626,
      "velocity": 91,
      "chip": "ym2612"
    },
    {
      "channel": 2,
      "note": 58,
      "start": 15.5103,
      "duration": 0.231,
      "velocity": 89,
      "chip": "ym2612"
    },
    {
      "channel": 3,
      "note": 53,
      "start": 15.5107,
      "duration": 0.231,
      "velocity": 89,
      "chip": "ym2612"
    },
    {
      "channel": 4,
      "note": 65,
      "start": 15.585,
      "duration": 0.157,
      "velocity": 106,
      "chip": "ym2612"
    },
    {
      "channel": 0,
      "note": 41,
      "start": 15.7413,
      "duration": 0.2294,
      "velocity": 127,
      "chip": "ym2612"
    },
    {
      "channel": 2,
      "note": 56,
      "start": 15.7416,
      "duration": 0.2313,
      "velocity": 89,
      "chip": "ym2612"
    },
    {
      "channel": 3,
      "note": 53,
      "start": 15.742,
      "duration": 0.2313,
      "velocity": 89,
      "chip": "ym2612"
    },
    {
      "channel": 4,
      "note": 65,
      "start": 15.7423,
      "duration": 0.1512,
      "velocity": 106,
      "chip": "ym2612"
    },
    {
      "channel": 4,
      "note": 65,
      "start": 15.8939,
      "duration": 0.154,
      "velocity": 106,
      "chip": "ym2612"
    },
    {
      "channel": 0,
      "note": 66,
      "start": 15.9726,
      "duration": 0.2296,
      "velocity": 127,
      "chip": "ym2612"
    },
    {
      "channel": 1,
      "note": 55,
      "start": 15.9729,
      "duration": 0.2313,
      "velocity": 91,
      "chip": "ym2612"
    },
    {
      "channel": 2,
      "note": 56,
      "start": 15.9732,
      "duration": 0.1132,
      "velocity": 89,
      "chip": "ym2612"
    },
    {
      "channel": 3,
      "note": 53,
      "start": 15.9735,
      "duration": 0.1132,
      "velocity": 89,
      "chip": "ym2612"
    },
    {
      "channel": 4,
      "note": 65,
      "start": 16.0481,
      "duration": 0.1564,
      "velocity": 106,
      "chip": "ym2612"
    },
    {
      "channel": 2,
      "note": 56,
      "start": 16.0867,
      "duration": 0.2314,
      "velocity": 89,
      "chip": "ym2612"
    },
    {
      "channel": 3,
      "note": 53,
      "start": 16.087,
      "duration": 0.2314,
      "velocity": 89,
      "chip": "ym2612"
    },
    {
      "channel": 0,
      "note": 41,
      "start": 16.2041,
      "duration": 0.2296,
      "velocity": 127,
      "chip": "ym2612"
    },
    {
      "channel": 1,
      "note": 56,
      "start": 16.2044,
      "duration": 0.4629,
      "velocity": 91,
      "chip": "ym2612"
    },
    {
      "channel": 4,
      "note": 65,
      "start": 16.2048,
      "duration": 0.1519,
      "velocity": 106,
      "chip": "ym2612"
    },
    {
      "channel": 5,
      "note": 48,
      "start": 16.2051,
      "duration": 0.4635,
      "velocity": 127,
      "chip": "ym2612"
    },
    {
      "channel": 2,
      "note": 56,
      "start": 16.3184,
      "duration": 0.1174,
      "velocity": 89,
      "chip": "ym2612"
    },
    {
      "channel": 3,
      "note": 53,
      "start": 16.3187,
      "duration": 0.1174,
      "velocity": 89,
      "chip": "ym2612"
    },
    {
      "channel": 4,
      "note": 65,
      "start": 16.357,
      "duration": 0.154,
      "velocity": 106,
      "chip": "ym2612"
    },
    {
      "channel": 0,
      "note": 66,
      "start": 16.4357,
      "duration": 0.2296,
      "velocity": 127,
      "chip": "ym2612"
    },
    {
      "channel": 2,
      "note": 58,
      "start": 16.436,
      "duration": 0.2316,
      "velocity": 89,
      "chip": "ym2612"
    },
    {
      "channel": 3,
      "note": 53,
      "start": 16.4363,
      "duration": 0.2316,
      "velocity": 89,
      "chip": "ym2612"
    },
    {
      "channel": 4,
      "note": 65,
      "start": 16.5112,
      "duration": 0.157,
      "velocity": 106,
      "chip": "ym2612"
    },
    {
      "channel": 0,
      "note": 41,
      "start": 16.6672,
      "duration": 0.2296,
      "velocity": 127,
      "chip": "ym2612"
    },
    {
      "channel": 1,
      "note": 53,
      "start": 16.6675,
      "duration": 0.3451,
      "velocity": 91,
      "chip": "ym2612"
    },
    {
      "channel": 2,
      "note": 59,
      "start": 16.6678,
      "duration": 0.231,
      "velocity": 89,
      "chip": "ym2612"
    },
    {
      "channel": 3,
      "note": 53,
      "start": 16.6682,
      "duration": 0.2312,
      "velocity": 89,
      "chip": "ym2612"
    },
    {
      "channel": 4,
      "note": 65,
      "start": 16.6686,
      "duration": 0.1512,
      "velocity": 106,
      "chip": "ym2612"
    },
    {
      "channel": 4,
      "note": 65,
      "start": 16.8201,
      "duration": 0.154,
      "velocity": 106,
      "chip": "ym2612"
    },
    {
      "channel": 0,
      "note": 66,
      "start": 16.8988,
      "duration": 0.2296,
      "velocity": 127,
      "chip": "ym2612"
    },
    {
      "channel": 2,
      "note": 59,
      "start": 16.8991,
      "duration": 0.1138,
      "velocity": 89,
      "chip": "ym2612"
    },
    {
      "channel": 3,
      "note": 53,
      "start": 16.8997,
      "duration": 0.1135,
      "velocity": 89,
      "chip": "ym2612"
    },
    {
      "channel": 4,
      "note": 65,
      "start": 16.9743,
      "duration": 0.1563,
      "velocity": 106,
      "chip": "ym2612"
    },
    {
      "channel": 1,
      "note": 53,
      "start": 17.0128,
      "duration": 0.3491,
      "velocity": 91,
      "chip": "ym2612"
    },
    {
      "channel": 2,
      "note": 59,
      "start": 17.0132,
      "duration": 0.2311,
      "velocity": 89,
      "chip": "ym2612"
    },
    {
      "channel": 3,
      "note": 53,
      "start": 17.0135,
      "duration": 0.2311,
      "velocity": 89,
      "chip": "ym2612"
    },
    {
      "channel": 0,
      "note": 41,
      "start": 17.1306,
      "duration": 0.2293,
      "velocity": 127,
      "chip": "ym2612"
    },
    {
      "channel": 4,
      "note": 65,
      "start": 17.131,
      "duration": 0.1519,
      "velocity": 106,
      "chip": "ym2612"
    },
    {
      "channel": 5,
      "note": 48,
      "start": 17.1313,
      "duration": 0.4633,
      "velocity": 127,
      "chip": "ym2612"
    },
    {
      "channel": 2,
      "note": 59,
      "start": 17.2446,
      "duration": 0.1177,
      "velocity": 89,
      "chip": "ym2612"
    },
    {
      "channel": 3,
      "note": 53,
      "start": 17.2449,
      "duration": 0.1177,
      "velocity": 89,
      "chip": "ym2612"
    },
    {
      "channel": 4,
      "note": 65,
      "start": 17.2832,
      "duration": 0.154,
      "velocity": 106,
      "chip": "ym2612"
    },
    {
      "channel": 0,
      "note": 66,
      "start": 17.3619,
      "duration": 0.2296,
      "velocity": 127,
      "chip": "ym2612"
    },
    {
      "channel": 1,
      "note": 53,
      "start": 17.3622,
      "duration": 0.4629,
      "velocity": 91,
      "chip": "ym2612"
    },
    {
      "channel": 2,
      "note": 58,
      "start": 17.3625,
      "duration": 0.231,
      "velocity": 89,
      "chip": "ym2612"
    },
    {
      "channel": 3,
      "note": 53,
      "start": 17.3628,
      "duration": 0.231,
      "velocity": 89,
      "chip": "ym2612"
    },
    {
      "channel": 4,
      "note": 65,
      "start": 17.4374,
      "duration": 0.1568,
      "velocity": 106,
      "chip": "ym2612"
    },
    {
      "channel": 0,
      "note": 41,
      "start": 17.5935,
      "duration": 0.2295,
      "velocity": 127,
      "chip": "ym2612"
    },
    {
      "channel": 2,
      "note": 56,
      "start": 17.5938,
      "duration": 0.2315,
      "velocity": 89,
      "chip": "ym2612"
    },
    {
      "channel": 3,
      "note": 53,
      "start": 17.5941,
      "duration": 0.2315,
      "velocity": 89,
      "chip": "ym2612"
    },
    {
      "channel": 4,
      "note": 65,
      "start": 17.5945,
      "duration": 0.1515,
      "velocity": 106,
      "chip": "ym2612"
    },
    {
      "channel": 4,
      "note": 65,
      "start": 17.7463,
      "duration": 0.154,
      "velocity": 106,
      "chip": "ym2612"
    },
    {
      "channel": 0,
      "note": 66,
      "start": 17.825,
      "duration": 0.2296,
      "velocity": 127,
      "chip": "ym2612"
    },
    {
      "channel": 1,
      "note": 55,
      "start": 17.8253,
      "duration": 0.2313,
      "velocity": 91,
      "chip": "ym2612"
    },
    {
      "channel": 2,
      "note": 56,
      "start": 17.8256,
      "duration": 0.1133,
      "velocity": 89,
      "chip": "ym2612"
    },
    {
      "channel": 3,
      "note": 53,
      "start": 17.8259,
      "duration": 0.1135,
      "velocity": 89,
      "chip": "ym2612"
    },
    {
      "channel": 4,
      "note": 65,
      "start": 17.9005,
      "duration": 0.1563,
      "velocity": 106,
      "chip": "ym2612"
    },
    {
      "channel": 2,
      "note": 56,
      "start": 17.9391,
      "duration": 0.2314,
      "velocity": 89,
      "chip": "ym2612"
    },
    {
      "channel": 3,
      "note": 53,
      "start": 17.9397,
      "duration": 0.2311,
      "velocity": 89,
      "chip": "ym2612"
    },
    {
      "channel": 0,
      "note": 41,
      "start": 18.0566,
      "duration": 0.2296,
      "velocity": 127,
      "chip": "ym2612"
    },
    {
      "channel": 1,
      "note": 56,
      "start": 18.0568,
      "duration": 0.2313,
      "velocity": 91,
      "chip": "ym2612"
    },
    {
      "channel": 4,
      "note": 65,
      "start": 18.0572,
      "duration": 0.1519,
      "velocity": 106,
      "chip": "ym2612"
    },
    {
      "channel": 5,
      "note": 48,
      "start": 18.0575,
      "duration": 0.4638,
      "velocity": 127,
      "chip": "ym2612"
    },
    {
      "channel": 2,
      "note": 56,
      "start": 18.1708,
      "duration": 0.1177,
      "velocity": 89,
      "chip": "ym2612"
    },
    {
      "channel": 3,
      "note": 53,
      "start": 18.1711,
      "duration": 0.1177,
      "velocity": 89,
      "chip": "ym2612"
    },
    {
      "channel": 4,
      "note": 65,
      "start": 18.2096,
      "duration": 0.1537,
      "velocity": 106,
      "chip": "ym2612"
    },
    {
      "channel": 0,
      "note": 66,
      "start": 18.2881,
      "duration": 0.2296,
      "velocity": 127,
      "chip": "ym2612"
    },
    {
      "channel": 1,
      "note": 48,
      "start": 18.2884,
      "duration": 0.2316,
      "velocity": 91,
      "chip": "ym2612"
    },
    {
      "channel": 2,
      "note": 55,
      "start": 18.2887,
      "duration": 0.2315,
      "velocity": 89,
      "chip": "ym2612"
    },
    {
      "channel": 3,
      "note": 53,
      "start": 18.289,
      "duration": 0.2315,
      "velocity": 89,
      "chip": "ym2612"
    },
    {
      "channel": 4,
      "note": 65,
      "start": 18.3637,
      "duration": 0.1573,
      "velocity": 106,
      "chip": "ym2612"
    },
    {
      "channel": 0,
      "note": 41,
      "start": 18.5199,
      "duration": 0.2296,
      "velocity": 127,
      "chip": "ym2612"
    },
    {
      "channel": 1,
      "note": 53,
      "start": 18.5202,
      "duration": 0.3448,
      "velocity": 91,
      "chip": "ym2612"
    },
    {
      "channel": 2,
      "note": 56,
      "start": 18.5205,
      "duration": 0.231,
      "velocity": 89,
      "chip": "ym2612"
    },
    {
      "channel": 3,
      "note": 53,
      "start": 18.5209,
      "duration": 0.231,
      "velocity": 89,
      "chip": "ym2612"
    },
    {
      "channel": 4,
      "note": 65,
      "start": 18.5213,
      "duration": 0.1509,
      "velocity": 106,
      "chip": "ym2612"
    },
    {
      "channel": 4,
      "note": 65,
      "start": 18.6725,
      "duration": 0.154,
      "velocity": 106,
      "chip": "ym2612"
    },
    {
      "channel": 0,
      "note": 66,
      "start": 18.7515,
      "duration": 0.2293,
      "velocity": 127,
      "chip": "ym2612"
    },
    {
      "channel": 2,
      "note": 56,
      "start": 18.7518,
      "duration": 0.1135,
      "velocity": 89,
      "chip": "ym2612"
    },
    {
      "channel": 3,
      "note": 53,
      "start": 18.7521,
      "duration": 0.1135,
      "velocity": 89,
      "chip": "ym2612"
    },
    {
      "channel": 4,
      "note": 65,
      "start": 18.8268,
      "duration": 0.1561,
      "velocity": 106,
      "chip": "ym2612"
    },
    {
      "channel": 1,
      "note": 53,
      "start": 18.8653,
      "duration": 0.3491,
      "velocity": 91,
      "chip": "ym2612"
    },
    {
      "channel": 2,
      "note": 56,
      "start": 18.8656,
      "duration": 0.2311,
      "velocity": 89,
      "chip": "ym2612"
    },
    {
      "channel": 3,
      "note": 53,
      "start": 18.8659,
      "duration": 0.2311,
      "velocity": 89,
      "chip": "ym2612"
    },
    {
      "channel": 0,
      "note": 41,
      "start": 18.9828,
      "duration": 0.2296,
      "velocity": 127,
      "chip": "ym2612"
    },
    {
      "channel": 4,
      "note": 65,
      "start": 18.9832,
      "duration": 0.1522,
      "velocity": 106,
      "chip": "ym2612"
    },
    {
      "channel": 5,
      "note": 48,
      "start": 18.9834,
      "duration": 0.4635,
      "velocity": 127,
      "chip": "ym2612"
    },
    {
      "channel": 2,
      "note": 56,
      "start": 19.097,
      "duration": 0.1177,
      "velocity": 89,
      "chip": "ym2612"
    },
    {
      "channel": 3,
      "note": 53,
      "start": 19.0973,
      "duration": 0.1176,
      "velocity": 89,
      "chip": "ym2612"
    },
    {
      "channel": 4,
      "note": 65,
      "start": 19.1356,
      "duration": 0.154,
      "velocity": 106,
      "chip": "ym2612"
    },
    {
      "channel": 0,
      "note": 66,
      "start": 19.2143,
      "duration": 0.2296,
      "velocity": 127,
      "chip": "ym2612"
    },
    {
      "channel": 1,
      "note": 53,
      "start": 19.2146,
      "duration": 0.4629,
      "velocity": 91,
      "chip": "ym2612"
    },
    {
      "channel": 2,
      "note": 58,
      "start": 19.2149,
      "duration": 0.231,
      "velocity": 89,
      "chip": "ym2612"
    },
    {
      "channel": 3,
      "note": 53,
      "start": 19.2153,
      "duration": 0.231,
      "velocity": 89,
      "chip": "ym2612"
    },
    {
      "channel": 4,
      "note": 65,
      "start": 19.2898,
      "duration": 0.1567,
      "velocity": 106,
      "chip": "ym2612"
    },
    {
      "channel": 0,
      "note": 41,
      "start": 19.4459,
      "duration": 0.2296,
      "velocity": 127,
      "chip": "ym2612"
    },
    {
      "channel": 2,
      "note": 56,
      "start": 19.4462,
      "duration": 0.2316,
      "velocity": 89,
      "chip": "ym2612"
    },
    {
      "channel": 3,
      "note": 53,
      "start": 19.4465,
      "duration": 0.2316,
      "velocity": 89,
      "chip": "ym2612"
    },
    {
      "channel": 4,
      "note": 65,
      "start": 19.4469,
      "duration": 0.1515,
      "velocity": 106,
      "chip": "ym2612"
    },
    {
      "channel": 4,
      "note": 65,
      "start": 19.5987,
      "duration": 0.154,
      "velocity": 106,
      "chip": "ym2612"
    },
    {
      "channel": 0,
      "note": 66,
      "start": 19.6774,
      "duration": 0.2296,
      "velocity": 127,
      "chip": "ym2612"
    },
    {
      "channel": 1,
      "note": 55,
      "start": 19.6777,
      "duration": 0.2313,
      "velocity": 91,
      "chip": "ym2612"
    },
    {
      "channel": 2,
      "note": 56,
      "start": 19.6781,
      "duration": 0.1132,
      "velocity": 89,
      "chip": "ym2612"
    },
    {
      "channel": 3,
      "note": 53,
      "start": 19.6784,
      "duration": 0.1132,
      "velocity": 89,
      "chip": "ym2612"
    },
    {
      "channel": 4,
      "note": 65,
      "start": 19.7529,
      "duration": 0.1566,
      "velocity": 106,
      "chip": "ym2612"
    },
    {
      "channel": 2,
      "note": 56,
      "start": 19.7915,
      "duration": 0.2314,
      "velocity": 89,
      "chip": "ym2612"
    },
    {
      "channel": 3,
      "note": 53,
      "start": 19.7919,
      "duration": 0.2314,
      "velocity": 89,
      "chip": "ym2612"
    },
    {
      "channel": 0,
      "note": 41,
      "start": 19.909,
      "duration": 0.2296,
      "velocity": 127,
      "chip": "ym2612"
    },
    {
      "channel": 1,
      "note": 56,
      "start": 19.9095,
      "duration": 0.4626,
      "velocity": 91,
      "chip": "ym2612"
    },
    {
      "channel": 4,
      "note": 65,
      "start": 19.9099,
      "duration": 0.1516,
      "velocity": 106,
      "chip": "ym2612"
    },
    {
      "channel": 5,
      "note": 48,
      "start": 19.9102,
      "duration": 0.4633,
      "velocity": 127,
      "chip": "ym2612"
    },
    {
      "channel": 2,
      "note": 56,
      "start": 20.0232,
      "duration": 0.1176,
      "velocity": 89,
      "chip": "ym2612"
    },
    {
      "channel": 3,
      "note": 53,
      "start": 20.0235,
      "duration": 0.1176,
      "velocity": 89,
      "chip": "ym2612"
    },
    {
      "channel": 4,
      "note": 65,
      "start": 20.0618,
      "duration": 0.154,
      "velocity": 106,
      "chip": "ym2612"
    },
    {
      "channel": 0,
      "note": 66,
      "start": 20.1408,
      "duration": 0.2293,
      "velocity": 127,
      "chip": "ym2612"
    },
    {
      "channel": 2,
      "note": 58,
      "start": 20.1411,
      "duration": 0.2313,
      "velocity": 89,
      "chip": "ym2612"
    },
    {
      "channel": 3,
      "note": 53,
      "start": 20.1414,
      "duration": 0.2313,
      "velocity": 89,
      "chip": "ym2612"
    },
    {
      "channel": 4,
      "note": 65,
      "start": 20.2161,
      "duration": 0.157,
      "velocity": 106,
      "chip": "ym2612"
    },
    {
      "channel": 0,
      "note": 41,
      "start": 20.3721,
      "duration": 0.2296,
      "velocity": 127,
      "chip": "ym2612"
    },
    {
      "channel": 1,
      "note": 53,
      "start": 20.3724,
      "duration": 0.3451,
      "velocity": 91,
      "chip": "ym2612"
    },
    {
      "channel": 2,
      "note": 59,
      "start": 20.3727,
      "duration": 0.231,
      "velocity": 89,
      "chip": "ym2612"
    },
    {
      "channel": 3,
      "note": 53,
      "start": 20.373,
      "duration": 0.231,
      "velocity": 89,
      "chip": "ym2612"
    },
    {
      "channel": 4,
      "note": 65,
      "start": 20.3734,
      "duration": 0.1512,
      "velocity": 106,
      "chip": "ym2612"
    },
    {
      "channel": 4,
      "note": 65,
      "start": 20.5249,
      "duration": 0.154,
      "velocity": 106,
      "chip": "ym2612"
    },
    {
      "channel": 0,
      "note": 66,
      "start": 20.6036,
      "duration": 0.2296,
      "velocity": 127,
      "chip": "ym2612"
    },
    {
      "channel": 2,
      "note": 59,
      "start": 20.604,
      "duration": 0.1138,
      "velocity": 89,
      "chip": "ym2612"
    },
    {
      "channel": 3,
      "note": 53,
      "start": 20.6043,
      "duration": 0.1138,
      "velocity": 89,
      "chip": "ym2612"
    },
    {
      "channel": 4,
      "note": 65,
      "start": 20.6794,
      "duration": 0.1558,
      "velocity": 106,
      "chip": "ym2612"
    },
    {
      "channel": 1,
      "note": 53,
      "start": 20.7177,
      "duration": 0.3491,
      "velocity": 91,
      "chip": "ym2612"
    },
    {
      "channel": 2,
      "note": 59,
      "start": 20.718,
      "duration": 0.2311,
      "velocity": 89,
      "chip": "ym2612"
    },
    {
      "channel": 3,
      "note": 53,
      "start": 20.7183,
      "duration": 0.2314,
      "velocity": 89,
      "chip": "ym2612"
    },
    {
      "channel": 0,
      "note": 41,
      "start": 20.8352,
      "duration": 0.2296,
      "velocity": 127,
      "chip": "ym2612"
    },
    {
      "channel": 4,
      "note": 65,
      "start": 20.8356,
      "duration": 0.1522,
      "velocity": 106,
      "chip": "ym2612"
    },
    {
      "channel": 5,
      "note": 48,
      "start": 20.8359,
      "duration": 0.4638,
      "velocity": 127,
      "chip": "ym2612"
    },
    {
      "channel": 2,
      "note": 59,
      "start": 20.9497,
      "duration": 0.1174,
      "velocity": 89,
      "chip": "ym2612"
    },
    {
      "channel": 3,
      "note": 53,
      "start": 20.95,
      "duration": 0.1174,
      "velocity": 89,
      "chip": "ym2612"
    },
    {
      "channel": 4,
      "note": 65,
      "start": 20.988,
      "duration": 0.154,
      "velocity": 106,
      "chip": "ym2612"
    },
    {
      "channel": 0,
      "note": 66,
      "start": 21.0667,
      "duration": 0.2296,
      "velocity": 127,
      "chip": "ym2612"
    },
    {
      "channel": 1,
      "note": 53,
      "start": 21.067,
      "duration": 0.4631,
      "velocity": 91,
      "chip": "ym2612"
    },
    {
      "channel": 2,
      "note": 58,
      "start": 21.0673,
      "duration": 0.231,
      "velocity": 89,
      "chip": "ym2612"
    },
    {
      "channel": 3,
      "note": 53,
      "start": 21.0677,
      "duration": 0.231,
      "velocity": 89,
      "chip": "ym2612"
    },
    {
      "channel": 4,
      "note": 65,
      "start": 21.1423,
      "duration": 0.1567,
      "velocity": 106,
      "chip": "ym2612"
    },
    {
      "channel": 0,
      "note": 41,
      "start": 21.2983,
      "duration": 0.2296,
      "velocity": 127,
      "chip": "ym2612"
    },
    {
      "channel": 2,
      "note": 56,
      "start": 21.2986,
      "duration": 0.2318,
      "velocity": 89,
      "chip": "ym2612"
    },
    {
      "channel": 3,
      "note": 53,
      "start": 21.2989,
      "duration": 0.2318,
      "velocity": 89,
      "chip": "ym2612"
    },
    {
      "channel": 4,
      "note": 65,
      "start": 21.2996,
      "duration": 0.1512,
      "velocity": 106,
      "chip": "ym2612"
    },
    {
      "channel": 4,
      "note": 65,
      "start": 21.4511,
      "duration": 0.154,
      "velocity": 106,
      "chip": "ym2612"
    },
    {
      "channel": 0,
      "note": 66,
      "start": 21.5301,
      "duration": 0.2294,
      "velocity": 127,
      "chip": "ym2612"
    },
    {
      "channel": 1,
      "note": 55,
      "start": 21.5304,
      "duration": 0.2312,
      "velocity": 91,
      "chip": "ym2612"
    },
    {
      "channel": 2,
      "note": 56,
      "start": 21.5307,
      "duration": 0.113,
      "velocity": 89,
      "chip": "ym2612"
    },
    {
      "channel": 3,
      "note": 53,
      "start": 21.531,
      "duration": 0.113,
      "velocity": 89,
      "chip": "ym2612"
    },
    {
      "channel": 4,
      "note": 65,
      "start": 21.6054,
      "duration": 0.1565,
      "velocity": 106,
      "chip": "ym2612"
    },
    {
      "channel": 2,
      "note": 56,
      "start": 21.6439,
      "duration": 0.2314,
      "velocity": 89,
      "chip": "ym2612"
    },
    {
      "channel": 3,
      "note": 53,
      "start": 21.6443,
      "duration": 0.2314,
      "velocity": 89,
      "chip": "ym2612"
    },
    {
      "channel": 0,
      "note": 41,
      "start": 21.7615,
      "duration": 0.2295,
      "velocity": 127,
      "chip": "ym2612"
    },
    {
      "channel": 1,
      "note": 56,
      "start": 21.7618,
      "duration": 0.2312,
      "velocity": 91,
      "chip": "ym2612"
    },
    {
      "channel": 4,
      "note": 65,
      "start": 21.7622,
      "duration": 0.1517,
      "velocity": 106,
      "chip": "ym2612"
    },
    {
      "channel": 5,
      "note": 48,
      "start": 21.7624,
      "duration": 0.4706,
      "velocity": 127,
      "chip": "ym2612"
    },
    {
      "channel": 2,
      "note": 56,
      "start": 21.8756,
      "duration": 0.1177,
      "velocity": 89,
      "chip": "ym2612"
    },
    {
      "channel": 3,
      "note": 53,
      "start": 21.8759,
      "duration": 0.1177,
      "velocity": 89,
      "chip": "ym2612"
    },
    {
      "channel": 4,
      "note": 65,
      "start": 21.9142,
      "duration": 0.154,
      "velocity": 106,
      "chip": "ym2612"
    },
    {
      "channel": 0,
      "note": 66,
      "start": 21.9929,
      "duration": 0.2296,
      "velocity": 127,
      "chip": "ym2612"
    },
    {
      "channel": 1,
      "note": 48,
      "start": 21.9932,
      "duration": 0.2313,
      "velocity": 91,
      "chip": "ym2612"
    },
    {
      "channel": 2,
      "note": 55,
      "start": 21.9936,
      "duration": 0.233,
      "velocity": 89,
      "chip": "ym2612"
    },
    {
      "channel": 3,
      "note": 53,
      "start": 21.9939,
      "duration": 0.2347,
      "velocity": 89,
      "chip": "ym2612"
    },
    {
      "channel": 4,
      "note": 65,
      "start": 22.0685,
      "duration": 0.1625,
      "velocity": 106,
      "chip": "ym2612"
    },
    {
      "channel": 0,
      "note": 41,
      "start": 22.2245,
      "duration": 0.2296,
      "velocity": 127,
      "chip": "ym2612"
    },
    {
      "channel": 1,
      "note": 53,
      "start": 22.2265,
      "duration": 0.3433,
      "velocity": 91,
      "chip": "ym2612"
    },
    {
      "channel": 2,
      "note": 56,
      "start": 22.2286,
      "duration": 0.2275,
      "velocity": 89,
      "chip": "ym2612"
    },
    {
      "channel": 3,
      "note": 53,
      "start": 22.2309,
      "duration": 0.2255,
      "velocity": 89,
      "chip": "ym2612"
    },
    {
      "channel": 4,
      "note": 65,
      "start": 22.233,
      "duration": 0.1441,
      "velocity": 106,
      "chip": "ym2612"
    },
    {
      "channel": 4,
      "note": 65,
      "start": 22.3773,
      "duration": 0.154,
      "velocity": 106,
      "chip": "ym2612"
    },
    {
      "channel": 0,
      "note": 66,
      "start": 22.456,
      "duration": 0.2296,
      "velocity": 127,
      "chip": "ym2612"
    },
    {
      "channel": 2,
      "note": 56,
      "start": 22.4564,
      "duration": 0.1138,
      "velocity": 89,
      "chip": "ym2612"
    },
    {
      "channel": 3,
      "note": 53,
      "start": 22.4567,
      "duration": 0.1138,
      "velocity": 89,
      "chip": "ym2612"
    },
    {
      "channel": 4,
      "note": 65,
      "start": 22.5316,
      "duration": 0.1561,
      "velocity": 106,
      "chip": "ym2612"
    },
    {
      "channel": 1,
      "note": 53,
      "start": 22.5701,
      "duration": 0.3493,
      "velocity": 91,
      "chip": "ym2612"
    },
    {
      "channel": 2,
      "note": 56,
      "start": 22.5704,
      "duration": 0.2311,
      "velocity": 89,
      "chip": "ym2612"
    },
    {
      "channel": 3,
      "note": 53,
      "start": 22.5707,
      "duration": 0.2311,
      "velocity": 89,
      "chip": "ym2612"
    },
    {
      "channel": 0,
      "note": 41,
      "start": 22.6876,
      "duration": 0.2296,
      "velocity": 127,
      "chip": "ym2612"
    },
    {
      "channel": 4,
      "note": 65,
      "start": 22.688,
      "duration": 0.1522,
      "velocity": 106,
      "chip": "ym2612"
    },
    {
      "channel": 5,
      "note": 48,
      "start": 22.6883,
      "duration": 0.4638,
      "velocity": 127,
      "chip": "ym2612"
    },
    {
      "channel": 2,
      "note": 56,
      "start": 22.8018,
      "duration": 0.1179,
      "velocity": 89,
      "chip": "ym2612"
    },
    {
      "channel": 3,
      "note": 53,
      "start": 22.8022,
      "duration": 0.1179,
      "velocity": 89,
      "chip": "ym2612"
    },
    {
      "channel": 4,
      "note": 65,
      "start": 22.8404,
      "duration": 0.154,
      "velocity": 106,
      "chip": "ym2612"
    },
    {
      "channel": 0,
      "note": 66,
      "start": 22.9191,
      "duration": 0.2296,
      "velocity": 127,
      "chip": "ym2612"
    },
    {
      "channel": 1,
      "note": 53,
      "start": 22.9197,
      "duration": 0.4626,
      "velocity": 91,
      "chip": "ym2612"
    },
    {
      "channel": 2,
      "note": 58,
      "start": 22.92,
      "duration": 0.231,
      "velocity": 89,
      "chip": "ym2612"
    },
    {
      "channel": 3,
      "note": 53,
      "start": 22.9203,
      "duration": 0.231,
      "velocity": 89,
      "chip": "ym2612"
    },
    {
      "channel": 4,
      "note": 65,
      "start": 22.9947,
      "duration": 0.157,
      "velocity": 106,
      "chip": "ym2612"
    },
    {
      "channel": 0,
      "note": 41,
      "start": 23.151,
      "duration": 0.2293,
      "velocity": 127,
      "chip": "ym2612"
    },
    {
      "channel": 2,
      "note": 56,
      "start": 23.1513,
      "duration": 0.2313,
      "velocity": 89,
      "chip": "ym2612"
    },
    {
      "channel": 3,
      "note": 53,
      "start": 23.1516,
      "duration": 0.2313,
      "velocity": 89,
      "chip": "ym2612"
    },
    {
      "channel": 4,
      "note": 65,
      "start": 23.152,
      "duration": 0.1512,
      "velocity": 106,
      "chip": "ym2612"
    },
    {
      "channel": 4,
      "note": 65,
      "start": 23.3035,
      "duration": 0.154,
      "velocity": 106,
      "chip": "ym2612"
    },
    {
      "channel": 0,
      "note": 66,
      "start": 23.3822,
      "duration": 0.2296,
      "velocity": 127,
      "chip": "ym2612"
    },
    {
      "channel": 1,
      "note": 55,
      "start": 23.3825,
      "duration": 0.2313,
      "velocity": 91,
      "chip": "ym2612"
    },
    {
      "channel": 2,
      "note": 56,
      "start": 23.3829,
      "duration": 0.1132,
      "velocity": 89,
      "chip": "ym2612"
    },
    {
      "channel": 3,
      "note": 53,
      "start": 23.3832,
      "duration": 0.1132,
      "velocity": 89,
      "chip": "ym2612"
    },
    {
      "channel": 4,
      "note": 65,
      "start": 23.4578,
      "duration": 0.1564,
      "velocity": 106,
      "chip": "ym2612"
    },
    {
      "channel": 2,
      "note": 56,
      "start": 23.4963,
      "duration": 0.2314,
      "velocity": 89,
      "chip": "ym2612"
    },
    {
      "channel": 3,
      "note": 53,
      "start": 23.4967,
      "duration": 0.2314,
      "velocity": 89,
      "chip": "ym2612"
    },
    {
      "channel": 0,
      "note": 41,
      "start": 23.6138,
      "duration": 0.2296,
      "velocity": 127,
      "chip": "ym2612"
    },
    {
      "channel": 1,
      "note": 56,
      "start": 23.6141,
      "duration": 0.4629,
      "velocity": 91,
      "chip": "ym2612"
    },
    {
      "channel": 4,
      "note": 65,
      "start": 23.6145,
      "duration": 0.1519,
      "velocity": 106,
      "chip": "ym2612"
    },
    {
      "channel": 5,
      "note": 48,
      "start": 23.6148,
      "duration": 0.4636,
      "velocity": 127,
      "chip": "ym2612"
    },
    {
      "channel": 2,
      "note": 56,
      "start": 23.728,
      "duration": 0.1174,
      "velocity": 89,
      "chip": "ym2612"
    },
    {
      "channel": 3,
      "note": 53,
      "start": 23.7284,
      "duration": 0.1174,
      "velocity": 89,
      "chip": "ym2612"
    },
    {
      "channel": 4,
      "note": 65,
      "start": 23.7666,
      "duration": 0.154,
      "velocity": 106,
      "chip": "ym2612"
    },
    {
      "channel": 0,
      "note": 66,
      "start": 23.8454,
      "duration": 0.2296,
      "velocity": 127,
      "chip": "ym2612"
    },
    {
      "channel": 2,
      "note": 58,
      "start": 23.8457,
      "duration": 0.2316,
      "velocity": 89,
      "chip": "ym2612"
    },
    {
      "channel": 3,
      "note": 53,
      "start": 23.846,
      "duration": 0.2316,
      "velocity": 89,
      "chip": "ym2612"
    },
    {
      "channel": 4,
      "note": 65,
      "start": 23.9209,
      "duration": 0.157,
      "velocity": 106,
      "chip": "ym2612"
    },
    {
      "channel": 0,
      "note": 41,
      "start": 24.0769,
      "duration": 0.2296,
      "velocity": 127,
      "chip": "ym2612"
    },
    {
      "channel": 1,
      "note": 53,
      "start": 24.0772,
      "duration": 0.3451,
      "velocity": 91,
      "chip": "ym2612"
    },
    {
      "channel": 2,
      "note": 59,
      "start": 24.0776,
      "duration": 0.231,
      "velocity": 89,
      "chip": "ym2612"
    },
    {
      "channel": 3,
      "note": 53,
      "start": 24.0779,
      "duration": 0.231,
      "velocity": 89,
      "chip": "ym2612"
    },
    {
      "channel": 4,
      "note": 65,
      "start": 24.0783,
      "duration": 0.1514,
      "velocity": 106,
      "chip": "ym2612"
    },
    {
      "channel": 4,
      "note": 65,
      "start": 24.2299,
      "duration": 0.1538,
      "velocity": 106,
      "chip": "ym2612"
    },
    {
      "channel": 0,
      "note": 66,
      "start": 24.3085,
      "duration": 0.2296,
      "velocity": 127,
      "chip": "ym2612"
    },
    {
      "channel": 2,
      "note": 59,
      "start": 24.3088,
      "duration": 0.1138,
      "velocity": 89,
      "chip": "ym2612"
    },
    {
      "channel": 3,
      "note": 53,
      "start": 24.3091,
      "duration": 0.1138,
      "velocity": 89,
      "chip": "ym2612"
    },
    {
      "channel": 4,
      "note": 65,
      "start": 24.384,
      "duration": 0.1563,
      "velocity": 106,
      "chip": "ym2612"
    },
    {
      "channel": 1,
      "note": 53,
      "start": 24.4225,
      "duration": 0.3491,
      "velocity": 91,
      "chip": "ym2612"
    },
    {
      "channel": 2,
      "note": 59,
      "start": 24.4228,
      "duration": 0.2311,
      "velocity": 89,
      "chip": "ym2612"
    },
    {
      "channel": 3,
      "note": 53,
      "start": 24.4232,
      "duration": 0.2311,
      "velocity": 89,
      "chip": "ym2612"
    },
    {
      "channel": 0,
      "note": 41,
      "start": 24.5402,
      "duration": 0.2294,
      "velocity": 127,
      "chip": "ym2612"
    },
    {
      "channel": 4,
      "note": 65,
      "start": 24.5407,
      "duration": 0.1519,
      "velocity": 106,
      "chip": "ym2612"
    },
    {
      "channel": 5,
      "note": 48,
      "start": 24.541,
      "duration": 0.4633,
      "velocity": 127,
      "chip": "ym2612"
    },
    {
      "channel": 2,
      "note": 59,
      "start": 24.6542,
      "duration": 0.1176,
      "velocity": 89,
      "chip": "ym2612"
    },
    {
      "channel": 3,
      "note": 53,
      "start": 24.6546,
      "duration": 0.1177,
      "velocity": 89,
      "chip": "ym2612"
    },
    {
      "channel": 4,
      "note": 65,
      "start": 24.6928,
      "duration": 0.154,
      "velocity": 106,
      "chip": "ym2612"
    },
    {
      "channel": 0,
      "note": 66,
      "start": 24.7715,
      "duration": 0.2296,
      "velocity": 127,
      "chip": "ym2612"
    },
    {
      "channel": 1,
      "note": 53,
      "start": 24.7718,
      "duration": 0.4629,
      "velocity": 91,
      "chip": "ym2612"
    },
    {
      "channel": 2,
      "note": 58,
      "start": 24.7722,
      "duration": 0.231,
      "velocity": 89,
      "chip": "ym2612"
    },
    {
      "channel": 3,
      "note": 53,
      "start": 24.7725,
      "duration": 0.231,
      "velocity": 89,
      "chip": "ym2612"
    },
    {
      "channel": 4,
      "note": 65,
      "start": 24.8471,
      "duration": 0.1567,
      "velocity": 106,
      "chip": "ym2612"
    },
    {
      "channel": 0,
      "note": 41,
      "start": 25.0031,
      "duration": 0.2296,
      "velocity": 127,
      "chip": "ym2612"
    },
    {
      "channel": 2,
      "note": 56,
      "start": 25.0034,
      "duration": 0.2315,
      "velocity": 89,
      "chip": "ym2612"
    },
    {
      "channel": 3,
      "note": 53,
      "start": 25.0038,
      "duration": 0.2315,
      "velocity": 89,
      "chip": "ym2612"
    },
    {
      "channel": 4,
      "note": 65,
      "start": 25.0042,
      "duration": 0.1515,
      "velocity": 106,
      "chip": "ym2612"
    },
    {
      "channel": 4,
      "note": 65,
      "start": 25.1559,
      "duration": 0.154,
      "velocity": 106,
      "chip": "ym2612"
    },
    {
      "channel": 0,
      "note": 66,
      "start": 25.2346,
      "duration": 0.2296,
      "velocity": 127,
      "chip": "ym2612"
    },
    {
      "channel": 1,
      "note": 55,
      "start": 25.2349,
      "duration": 0.2313,
      "velocity": 91,
      "chip": "ym2612"
    },
    {
      "channel": 2,
      "note": 56,
      "start": 25.2353,
      "duration": 0.1132,
      "velocity": 89,
      "chip": "ym2612"
    },
    {
      "channel": 3,
      "note": 53,
      "start": 25.2356,
      "duration": 0.1132,
      "velocity": 89,
      "chip": "ym2612"
    },
    {
      "channel": 4,
      "note": 65,
      "start": 25.3102,
      "duration": 0.1564,
      "velocity": 106,
      "chip": "ym2612"
    },
    {
      "channel": 2,
      "note": 56,
      "start": 25.3488,
      "duration": 0.2314,
      "velocity": 89,
      "chip": "ym2612"
    },
    {
      "channel": 3,
      "note": 53,
      "start": 25.3491,
      "duration": 0.2314,
      "velocity": 89,
      "chip": "ym2612"
    },
    {
      "channel": 0,
      "note": 41,
      "start": 25.4662,
      "duration": 0.2296,
      "velocity": 127,
      "chip": "ym2612"
    },
    {
      "channel": 1,
      "note": 56,
      "start": 25.4665,
      "duration": 0.2313,
      "velocity": 91,
      "chip": "ym2612"
    },
    {
      "channel": 4,
      "note": 65,
      "start": 25.4669,
      "duration": 0.1519,
      "velocity": 106,
      "chip": "ym2612"
    },
    {
      "channel": 5,
      "note": 48,
      "start": 25.4672,
      "duration": 0.4638,
      "velocity": 127,
      "chip": "ym2612"
    },
    {
      "channel": 2,
      "note": 56,
      "start": 25.5804,
      "duration": 0.1177,
      "velocity": 89,
      "chip": "ym2612"
    },
    {
      "channel": 3,
      "note": 53,
      "start": 25.5808,
      "duration": 0.1177,
      "velocity": 89,
      "chip": "ym2612"
    },
    {
      "channel": 4,
      "note": 65,
      "start": 25.619,
      "duration": 0.154,
      "velocity": 106,
      "chip": "ym2612"
    },
    {
      "channel": 0,
      "note": 66,
      "start": 25.6978,
      "duration": 0.2296,
      "velocity": 127,
      "chip": "ym2612"
    },
    {
      "channel": 1,
      "note": 48,
      "start": 25.698,
      "duration": 0.2316,
      "velocity": 91,
      "chip": "ym2612"
    },
    {
      "channel": 2,
      "note": 55,
      "start": 25.6984,
      "duration": 0.2315,
      "velocity": 89,
      "chip": "ym2612"
    },
    {
      "channel": 3,
      "note": 53,
      "start": 25.6987,
      "duration": 0.2315,
      "velocity": 89,
      "chip": "ym2612"
    },
    {
      "channel": 4,
      "note": 65,
      "start": 25.7733,
      "duration": 0.1573,
      "velocity": 106,
      "chip": "ym2612"
    },
    {
      "channel": 0,
      "note": 41,
      "start": 25.9296,
      "duration": 0.2293,
      "velocity": 127,
      "chip": "ym2612"
    },
    {
      "channel": 1,
      "note": 53,
      "start": 25.9299,
      "duration": 0.3448,
      "velocity": 91,
      "chip": "ym2612"
    },
    {
      "channel": 2,
      "note": 56,
      "start": 25.9302,
      "duration": 0.231,
      "velocity": 89,
      "chip": "ym2612"
    },
    {
      "channel": 3,
      "note": 53,
      "start": 25.9305,
      "duration": 0.231,
      "velocity": 89,
      "chip": "ym2612"
    },
    {
      "channel": 4,
      "note": 65,
      "start": 25.9309,
      "duration": 0.1509,
      "velocity": 106,
      "chip": "ym2612"
    },
    {
      "channel": 4,
      "note": 65,
      "start": 26.0822,
      "duration": 0.154,
      "velocity": 106,
      "chip": "ym2612"
    },
    {
      "channel": 0,
      "note": 66,
      "start": 26.1612,
      "duration": 0.2293,
      "velocity": 127,
      "chip": "ym2612"
    },
    {
      "channel": 2,
      "note": 56,
      "start": 26.1615,
      "duration": 0.1135,
      "velocity": 89,
      "chip": "ym2612"
    },
    {
      "channel": 3,
      "note": 53,
      "start": 26.1618,
      "duration": 0.1135,
      "velocity": 89,
      "chip": "ym2612"
    },
    {
      "channel": 4,
      "note": 65,
      "start": 26.2364,
      "duration": 0.1561,
      "velocity": 106,
      "chip": "ym2612"
    },
    {
      "channel": 1,
      "note": 53,
      "start": 26.2749,
      "duration": 0.3491,
      "velocity": 91,
      "chip": "ym2612"
    },
    {
      "channel": 2,
      "note": 56,
      "start": 26.2753,
      "duration": 0.2311,
      "velocity": 89,
      "chip": "ym2612"
    },
    {
      "channel": 3,
      "note": 53,
      "start": 26.2756,
      "duration": 0.2311,
      "velocity": 89,
      "chip": "ym2612"
    },
    {
      "channel": 0,
      "note": 41,
      "start": 26.3924,
      "duration": 0.2296,
      "velocity": 127,
      "chip": "ym2612"
    },
    {
      "channel": 4,
      "note": 65,
      "start": 26.3928,
      "duration": 0.1521,
      "velocity": 106,
      "chip": "ym2612"
    },
    {
      "channel": 5,
      "note": 48,
      "start": 26.3931,
      "duration": 0.4635,
      "velocity": 127,
      "chip": "ym2612"
    },
    {
      "channel": 2,
      "note": 56,
      "start": 26.5066,
      "duration": 0.1177,
      "velocity": 89,
      "chip": "ym2612"
    },
    {
      "channel": 3,
      "note": 53,
      "start": 26.507,
      "duration": 0.1176,
      "velocity": 89,
      "chip": "ym2612"
    },
    {
      "channel": 4,
      "note": 65,
      "start": 26.5453,
      "duration": 0.1542,
      "velocity": 106,
      "chip": "ym2612"
    },
    {
      "channel": 0,
      "note": 66,
      "start": 26.624,
      "duration": 0.2296,
      "velocity": 127,
      "chip": "ym2612"
    },
    {
      "channel": 1,
      "note": 53,
      "start": 26.6242,
      "duration": 0.4629,
      "velocity": 91,
      "chip": "ym2612"
    },
    {
      "channel": 2,
      "note": 58,
      "start": 26.6246,
      "duration": 0.231,
      "velocity": 89,
      "chip": "ym2612"
    },
    {
      "channel": 3,
      "note": 53,
      "start": 26.6249,
      "duration": 0.231,
      "velocity": 89,
      "chip": "ym2612"
    },
    {
      "channel": 4,
      "note": 65,
      "start": 26.6998,
      "duration": 0.1565,
      "velocity": 106,
      "chip": "ym2612"
    },
    {
      "channel": 0,
      "note": 41,
      "start": 26.8555,
      "duration": 0.2296,
      "velocity": 127,
      "chip": "ym2612"
    },
    {
      "channel": 2,
      "note": 56,
      "start": 26.8559,
      "duration": 0.2316,
      "velocity": 89,
      "chip": "ym2612"
    },
    {
      "channel": 3,
      "note": 53,
      "start": 26.8562,
      "duration": 0.2316,
      "velocity": 89,
      "chip": "ym2612"
    },
    {
      "channel": 4,
      "note": 65,
      "start": 26.8566,
      "duration": 0.1515,
      "velocity": 106,
      "chip": "ym2612"
    },
    {
      "channel": 4,
      "note": 65,
      "start": 27.0084,
      "duration": 0.154,
      "velocity": 106,
      "chip": "ym2612"
    },
    {
      "channel": 0,
      "note": 66,
      "start": 27.0871,
      "duration": 0.2296,
      "velocity": 127,
      "chip": "ym2612"
    },
    {
      "channel": 1,
      "note": 55,
      "start": 27.0873,
      "duration": 0.2313,
      "velocity": 91,
      "chip": "ym2612"
    },
    {
      "channel": 2,
      "note": 56,
      "start": 27.0877,
      "duration": 0.1132,
      "velocity": 89,
      "chip": "ym2612"
    },
    {
      "channel": 3,
      "note": 53,
      "start": 27.088,
      "duration": 0.1132,
      "velocity": 89,
      "chip": "ym2612"
    },
    {
      "channel": 4,
      "note": 65,
      "start": 27.1626,
      "duration": 0.1564,
      "velocity": 106,
      "chip": "ym2612"
    },
    {
      "channel": 2,
      "note": 56,
      "start": 27.2012,
      "duration": 0.2314,
      "velocity": 89,
      "chip": "ym2612"
    },
    {
      "channel": 3,
      "note": 53,
      "start": 27.2015,
      "duration": 0.2314,
      "velocity": 89,
      "chip": "ym2612"
    },
    {
      "channel": 0,
      "note": 41,
      "start": 27.3186,
      "duration": 0.2296,
      "velocity": 127,
      "chip": "ym2612"
    },
    {
      "channel": 1,
      "note": 56,
      "start": 27.3189,
      "duration": 0.4629,
      "velocity": 91,
      "chip": "ym2612"
    },
    {
      "channel": 4,
      "note": 65,
      "start": 27.3196,
      "duration": 0.1516,
      "velocity": 106,
      "chip": "ym2612"
    },
    {
      "channel": 5,
      "note": 48,
      "start": 27.3198,
      "duration": 0.4633,
      "velocity": 127,
      "chip": "ym2612"
    },
    {
      "channel": 2,
      "note": 56,
      "start": 27.4329,
      "duration": 0.1176,
      "velocity": 89,
      "chip": "ym2612"
    },
    {
      "channel": 3,
      "note": 53,
      "start": 27.4332,
      "duration": 0.1176,
      "velocity": 89,
      "chip": "ym2612"
    },
    {
      "channel": 4,
      "note": 65,
      "start": 27.4715,
      "duration": 0.154,
      "velocity": 106,
      "chip": "ym2612"
    },
    {
      "channel": 0,
      "note": 66,
      "start": 27.5504,
      "duration": 0.2293,
      "velocity": 127,
      "chip": "ym2612"
    },
    {
      "channel": 2,
      "note": 58,
      "start": 27.5508,
      "duration": 0.2313,
      "velocity": 89,
      "chip": "ym2612"
    },
    {
      "channel": 3,
      "note": 53,
      "start": 27.5511,
      "duration": 0.2313,
      "velocity": 89,
      "chip": "ym2612"
    },
    {
      "channel": 4,
      "note": 65,
      "start": 27.6258,
      "duration": 0.157,
      "velocity": 106,
      "chip": "ym2612"
    },
    {
      "channel": 0,
      "note": 41,
      "start": 27.7817,
      "duration": 0.2296,
      "velocity": 127,
      "chip": "ym2612"
    },
    {
      "channel": 1,
      "note": 53,
      "start": 27.782,
      "duration": 0.3451,
      "velocity": 91,
      "chip": "ym2612"
    },
    {
      "channel": 2,
      "note": 59,
      "start": 27.7824,
      "duration": 0.231,
      "velocity": 89,
      "chip": "ym2612"
    },
    {
      "channel": 3,
      "note": 53,
      "start": 27.7827,
      "duration": 0.231,
      "velocity": 89,
      "chip": "ym2612"
    },
    {
      "channel": 4,
      "note": 65,
      "start": 27.7831,
      "duration": 0.1512,
      "velocity": 106,
      "chip": "ym2612"
    },
    {
      "channel": 4,
      "note": 65,
      "start": 27.9346,
      "duration": 0.154,
      "velocity": 106,
      "chip": "ym2612"
    },
    {
      "channel": 0,
      "note": 66,
      "start": 28.0133,
      "duration": 0.2296,
      "velocity": 127,
      "chip": "ym2612"
    },
    {
      "channel": 2,
      "note": 59,
      "start": 28.0136,
      "duration": 0.1138,
      "velocity": 89,
      "chip": "ym2612"
    },
    {
      "channel": 3,
      "note": 53,
      "start": 28.014,
      "duration": 0.1138,
      "velocity": 89,
      "chip": "ym2612"
    },
    {
      "channel": 4,
      "note": 65,
      "start": 28.0888,
      "duration": 0.1561,
      "velocity": 106,
      "chip": "ym2612"
    },
    {
      "channel": 1,
      "note": 53,
      "start": 28.1273,
      "duration": 0.3491,
      "velocity": 91,
      "chip": "ym2612"
    },
    {
      "channel": 2,
      "note": 59,
      "start": 28.1277,
      "duration": 0.2311,
      "velocity": 89,
      "chip": "ym2612"
    },
    {
      "channel": 3,
      "note": 53,
      "start": 28.128,
      "duration": 0.2311,
      "velocity": 89,
      "chip": "ym2612"
    },
    {
      "channel": 0,
      "note": 41,
      "start": 28.2449,
      "duration": 0.2296,
      "velocity": 127,
      "chip": "ym2612"
    },
    {
      "channel": 4,
      "note": 65,
      "start": 28.2453,
      "duration": 0.1521,
      "velocity": 106,
      "chip": "ym2612"
    },
    {
      "channel": 5,
      "note": 48,
      "start": 28.2456,
      "duration": 0.4635,
      "velocity": 127,
      "chip": "ym2612"
    },
    {
      "channel": 2,
      "note": 59,
      "start": 28.3591,
      "duration": 0.1177,
      "velocity": 89,
      "chip": "ym2612"
    },
    {
      "channel": 3,
      "note": 53,
      "start": 28.3597,
      "duration": 0.1174,
      "velocity": 89,
      "chip": "ym2612"
    },
    {
      "channel": 4,
      "note": 65,
      "start": 28.3977,
      "duration": 0.154,
      "velocity": 106,
      "chip": "ym2612"
    },
    {
      "channel": 0,
      "note": 66,
      "start": 28.4764,
      "duration": 0.2296,
      "velocity": 127,
      "chip": "ym2612"
    },
    {
      "channel": 1,
      "note": 53,
      "start": 28.4767,
      "duration": 0.4631,
      "velocity": 91,
      "chip": "ym2612"
    },
    {
      "channel": 2,
      "note": 58,
      "start": 28.477,
      "duration": 0.231,
      "velocity": 89,
      "chip": "ym2612"
    },
    {
      "channel": 3,
      "note": 53,
      "start": 28.4774,
      "duration": 0.231,
      "velocity": 89,
      "chip": "ym2612"
    },
    {
      "channel": 4,
      "note": 65,
      "start": 28.5519,
      "duration": 0.1567,
      "velocity": 106,
      "chip": "ym2612"
    },
    {
      "channel": 0,
      "note": 41,
      "start": 28.7079,
      "duration": 0.2296,
      "velocity": 127,
      "chip": "ym2612"
    },
    {
      "channel": 2,
      "note": 56,
      "start": 28.7083,
      "duration": 0.2318,
      "velocity": 89,
      "chip": "ym2612"
    },
    {
      "channel": 3,
      "note": 53,
      "start": 28.7086,
      "duration": 0.2318,
      "velocity": 89,
      "chip": "ym2612"
    },
    {
      "channel": 4,
      "note": 65,
      "start": 28.709,
      "duration": 0.1515,
      "velocity": 106,
      "chip": "ym2612"
    },
    {
      "channel": 4,
      "note": 65,
      "start": 28.8608,
      "duration": 0.154,
      "velocity": 106,
      "chip": "ym2612"
    },
    {
      "channel": 0,
      "note": 66,
      "start": 28.9397,
      "duration": 0.2294,
      "velocity": 127,
      "chip": "ym2612"
    },
    {
      "channel": 1,
      "note": 55,
      "start": 28.94,
      "duration": 0.2313,
      "velocity": 91,
      "chip": "ym2612"
    },
    {
      "channel": 2,
      "note": 56,
      "start": 28.9404,
      "duration": 0.113,
      "velocity": 89,
      "chip": "ym2612"
    },
    {
      "channel": 3,
      "note": 53,
      "start": 28.9407,
      "duration": 0.1129,
      "velocity": 89,
      "chip": "ym2612"
    },
    {
      "channel": 4,
      "note": 65,
      "start": 29.015,
      "duration": 0.1566,
      "velocity": 106,
      "chip": "ym2612"
    },
    {
      "channel": 2,
      "note": 56,
      "start": 29.0536,
      "duration": 0.2314,
      "velocity": 89,
      "chip": "ym2612"
    },
    {
      "channel": 3,
      "note": 53,
      "start": 29.0539,
      "duration": 0.2314,
      "velocity": 89,
      "chip": "ym2612"
    },
    {
      "channel": 0,
      "note": 43,
      "start": 29.1713,
      "duration": 0.1908,
      "velocity": 127,
      "chip": "ym2612"
    },
    {
      "channel": 1,
      "note": 56,
      "start": 29.1716,
      "duration": 0.2294,
      "velocity": 91,
      "chip": "ym2612"
    },
    {
      "channel": 4,
      "note": 65,
      "start": 29.172,
      "duration": 0.1516,
      "velocity": 106,
      "chip": "ym2612"
    },
    {
      "channel": 5,
      "note": 48,
      "start": 29.1723,
      "duration": 0.4685,
      "velocity": 127,
      "chip": "ym2612"
    },
    {
      "channel": 2,
      "note": 56,
      "start": 29.2853,
      "duration": 0.116,
      "velocity": 89,
      "chip": "ym2612"
    },
    {
      "channel": 3,
      "note": 53,
      "start": 29.2856,
      "duration": 0.116,
      "velocity": 89,
      "chip": "ym2612"
    },
    {
      "channel": 4,
      "note": 65,
      "start": 29.3239,
      "duration": 0.1541,
      "velocity": 106,
      "chip": "ym2612"
    },
    {
      "channel": 0,
      "note": 43,
      "start": 29.4009,
      "duration": 0.0769,
      "velocity": 127,
      "chip": "ym2612"
    },
    {
      "channel": 1,
      "note": 48,
      "start": 29.4012,
      "duration": 0.233,
      "velocity": 91,
      "chip": "ym2612"
    },
    {
      "channel": 2,
      "note": 55,
      "start": 29.4015,
      "duration": 0.2329,
      "velocity": 89,
      "chip": "ym2612"
    },
    {
      "channel": 3,
      "note": 53,
      "start": 29.4019,
      "duration": 0.2346,
      "velocity": 89,
      "chip": "ym2612"
    },
    {
      "channel": 4,
      "note": 65,
      "start": 29.4783,
      "duration": 0.1602,
      "velocity": 106,
      "chip": "ym2612"
    },
    {
      "channel": 0,
      "note": 43,
      "start": 29.5167,
      "duration": 0.0769,
      "velocity": 127,
      "chip": "ym2612"
    },
    {
      "channel": 0,
      "note": 41,
      "start": 29.6341,
      "duration": 0.191,
      "velocity": 127,
      "chip": "ym2612"
    },
    {
      "channel": 1,
      "note": 54,
      "start": 29.6344,
      "duration": 0.3451,
      "velocity": 91,
      "chip": "ym2612"
    },
    {
      "channel": 2,
      "note": 65,
      "start": 29.6364,
      "duration": 1.8505,
      "velocity": 92,
      "chip": "ym2612"
    },
    {
      "channel": 3,
      "note": 77,
      "start": 29.6385,
      "duration": 1.8487,
      "velocity": 92,
      "chip": "ym2612"
    },
    {
      "channel": 4,
      "note": 53,
      "start": 29.6407,
      "duration": 0.225,
      "velocity": 99,
      "chip": "ym2612"
    },
    {
      "channel": 5,
      "note": 49,
      "start": 29.6428,
      "duration": 0.2232,
      "velocity": 99,
      "chip": "ym2612"
    },
    {
      "channel": 0,
      "note": 66,
      "start": 29.8657,
      "duration": 0.2296,
      "velocity": 127,
      "chip": "ym2612"
    },
    {
      "channel": 4,
      "note": 53,
      "start": 29.866,
      "duration": 0.1138,
      "velocity": 99,
      "chip": "ym2612"
    },
    {
      "channel": 5,
      "note": 49,
      "start": 29.8663,
      "duration": 0.1138,
      "velocity": 99,
      "chip": "ym2612"
    },
    {
      "channel": 1,
      "note": 54,
      "start": 29.9798,
      "duration": 0.3491,
      "velocity": 91,
      "chip": "ym2612"
    },
    {
      "channel": 4,
      "note": 53,
      "start": 29.98,
      "duration": 0.2312,
      "velocity": 99,
      "chip": "ym2612"
    },
    {
      "channel": 5,
      "note": 49,
      "start": 29.9803,
      "duration": 0.2312,
      "velocity": 99,
      "chip": "ym2612"
    },
    {
      "channel": 0,
      "note": 43,
      "start": 30.0973,
      "duration": 0.191,
      "velocity": 127,
      "chip": "ym2612"
    },
    {
      "channel": 4,
      "note": 53,
      "start": 30.2115,
      "duration": 0.118,
      "velocity": 99,
      "chip": "ym2612"
    },
    {
      "channel": 5,
      "note": 49,
      "start": 30.2117,
      "duration": 0.118,
      "velocity": 99,
      "chip": "ym2612"
    },
    {
      "channel": 0,
      "note": 53,
      "start": 30.3288,
      "duration": 0.1138,
      "velocity": 121,
      "chip": "ym2612"
    },
    {
      "channel": 1,
      "note": 54,
      "start": 30.3291,
      "duration": 0.4629,
      "velocity": 91,
      "chip": "ym2612"
    },
    {
      "channel": 4,
      "note": 53,
      "start": 30.3296,
      "duration": 0.2289,
      "velocity": 99,
      "chip": "ym2612"
    },
    {
      "channel": 5,
      "note": 49,
      "start": 30.3299,
      "duration": 0.2289,
      "velocity": 99,
      "chip": "ym2612"
    },
    {
      "channel": 0,
      "note": 43,
      "start": 30.4446,
      "duration": 0.191,
      "velocity": 127,
      "chip": "ym2612"
    },
    {
      "channel": 4,
      "note": 53,
      "start": 30.5588,
      "duration": 0.2335,
      "velocity": 99,
      "chip": "ym2612"
    },
    {
      "channel": 5,
      "note": 49,
      "start": 30.559,
      "duration": 0.2335,
      "velocity": 99,
      "chip": "ym2612"
    },
    {
      "channel": 0,
      "note": 53,
      "start": 30.6761,
      "duration": 0.1138,
      "velocity": 121,
      "chip": "ym2612"
    },
    {
      "channel": 0,
      "note": 41,
      "start": 30.7919,
      "duration": 0.1138,
      "velocity": 127,
      "chip": "ym2612"
    },
    {
      "channel": 1,
      "note": 54,
      "start": 30.7922,
      "duration": 0.2313,
      "velocity": 91,
      "chip": "ym2612"
    },
    {
      "channel": 4,
      "note": 53,
      "start": 30.7925,
      "duration": 0.1153,
      "velocity": 99,
      "chip": "ym2612"
    },
    {
      "channel": 5,
      "note": 49,
      "start": 30.7928,
      "duration": 0.1153,
      "velocity": 99,
      "chip": "ym2612"
    },
    {
      "channel": 0,
      "note": 53,
      "start": 30.9077,
      "duration": 0.1138,
      "velocity": 121,
      "chip": "ym2612"
    },
    {
      "channel": 4,
      "note": 53,
      "start": 30.908,
      "duration": 0.2294,
      "velocity": 99,
      "chip": "ym2612"
    },
    {
      "channel": 5,
      "note": 49,
      "start": 30.9083,
      "duration": 0.2294,
      "velocity": 99,
      "chip": "ym2612"
    },
    {
      "channel": 0,
      "note": 43,
      "start": 31.0235,
      "duration": 0.191,
      "velocity": 127,
      "chip": "ym2612"
    },
    {
      "channel": 1,
      "note": 54,
      "start": 31.0237,
      "duration": 0.4629,
      "velocity": 91,
      "chip": "ym2612"
    },
    {
      "channel": 4,
      "note": 53,
      "start": 31.1376,
      "duration": 0.1174,
      "velocity": 99,
      "chip": "ym2612"
    },
    {
      "channel": 5,
      "note": 49,
      "start": 31.1379,
      "duration": 0.1174,
      "velocity": 99,
      "chip": "ym2612"
    },
    {
      "channel": 0,
      "note": 66,
      "start": 31.255,
      "duration": 0.2296,
      "velocity": 127,
      "chip": "ym2612"
    },
    {
      "channel": 4,
      "note": 53,
      "start": 31.2553,
      "duration": 0.2322,
      "velocity": 99,
      "chip": "ym2612"
    },
    {
      "channel": 5,
      "note": 49,
      "start": 31.2556,
      "duration": 0.2322,
      "velocity": 99,
      "chip": "ym2612"
    },
    {
      "channel": 0,
      "note": 41,
      "start": 31.4866,
      "duration": 0.2296,
      "velocity": 127,
      "chip": "ym2612"
    },
    {
      "channel": 1,
      "note": 55,
      "start": 31.4868,
      "duration": 0.3451,
      "velocity": 91,
      "chip": "ym2612"
    },
    {
      "channel": 2,
      "note": 72,
      "start": 31.4871,
      "duration": 0.3451,
      "velocity": 92,
      "chip": "ym2612"
    },
    {
      "channel": 3,
      "note": 84,
      "start": 31.4874,
      "duration": 0.3451,
      "velocity": 92,
      "chip": "ym2612"
    },
    {
      "channel": 4,
      "note": 53,
      "start": 31.4877,
      "duration": 0.2305,
      "velocity": 99,
      "chip": "ym2612"
    },
    {
      "channel": 5,
      "note": 49,
      "start": 31.488,
      "duration": 0.2305,
      "velocity": 99,
      "chip": "ym2612"
    },
    {
      "channel": 0,
      "note": 66,
      "start": 31.7181,
      "duration": 0.2296,
      "velocity": 127,
      "chip": "ym2612"
    },
    {
      "channel": 4,
      "note": 53,
      "start": 31.7184,
      "duration": 0.1144,
      "velocity": 99,
      "chip": "ym2612"
    },
    {
      "channel": 5,
      "note": 49,
      "start": 31.7187,
      "duration": 0.1144,
      "velocity": 99,
      "chip": "ym2612"
    },
    {
      "channel": 1,
      "note": 55,
      "start": 31.8322,
      "duration": 0.3494,
      "velocity": 91,
      "chip": "ym2612"
    },
    {
      "channel": 2,
      "note": 70,
      "start": 31.8324,
      "duration": 0.3494,
      "velocity": 92,
      "chip": "ym2612"
    },
    {
      "channel": 3,
      "note": 82,
      "start": 31.8327,
      "duration": 0.3494,
      "velocity": 92,
      "chip": "ym2612"
    },
    {
      "channel": 4,
      "note": 53,
      "start": 31.833,
      "duration": 0.2306,
      "velocity": 99,
      "chip": "ym2612"
    },
    {
      "channel": 5,
      "note": 49,
      "start": 31.8333,
      "duration": 0.2306,
      "velocity": 99,
      "chip": "ym2612"
    },
    {
      "channel": 0,
      "note": 43,
      "start": 31.9499,
      "duration": 0.1908,
      "velocity": 127,
      "chip": "ym2612"
    },
    {
      "channel": 4,
      "note": 53,
      "start": 32.0639,
      "duration": 0.1185,
      "velocity": 99,
      "chip": "ym2612"
    },
    {
      "channel": 5,
      "note": 49,
      "start": 32.0641,
      "duration": 0.1185,
      "velocity": 99,
      "chip": "ym2612"
    },
    {
      "channel": 0,
      "note": 53,
      "start": 32.1815,
      "duration": 0.1135,
      "velocity": 121,
      "chip": "ym2612"
    },
    {
      "channel": 1,
      "note": 55,
      "start": 32.1818,
      "duration": 0.4627,
      "velocity": 91,
      "chip": "ym2612"
    },
    {
      "channel": 2,
      "note": 65,
      "start": 32.1821,
      "duration": 0.9254,
      "velocity": 92,
      "chip": "ym2612"
    },
    {
      "channel": 3,
      "note": 77,
      "start": 32.1823,
      "duration": 0.9254,
      "velocity": 92,
      "chip": "ym2612"
    },
    {
      "channel": 4,
      "note": 53,
      "start": 32.1826,
      "duration": 0.2283,
      "velocity": 99,
      "chip": "ym2612"
    },
    {
      "channel": 5,
      "note": 49,
      "start": 32.1829,
      "duration": 0.2283,
      "velocity": 99,
      "chip": "ym2612"
    },
    {
      "channel": 0,
      "note": 43,
      "start": 32.297,
      "duration": 0.191,
      "velocity": 127,
      "chip": "ym2612"
    },
    {
      "channel": 4,
      "note": 53,
      "start": 32.4112,
      "duration": 0.2335,
      "velocity": 99,
      "chip": "ym2612"
    },
    {
      "channel": 5,
      "note": 49,
      "start": 32.4115,
      "duration": 0.2335,
      "velocity": 99,
      "chip": "ym2612"
    },
    {
      "channel": 0,
      "note": 53,
      "start": 32.5285,
      "duration": 0.1138,
      "velocity": 121,
      "chip": "ym2612"
    },
    {
      "channel": 0,
      "note": 41,
      "start": 32.6444,
      "duration": 0.1138,
      "velocity": 127,
      "chip": "ym2612"
    },
    {
      "channel": 1,
      "note": 55,
      "start": 32.6446,
      "duration": 0.2313,
      "velocity": 91,
      "chip": "ym2612"
    },
    {
      "channel": 4,
      "note": 53,
      "start": 32.6449,
      "duration": 0.1155,
      "velocity": 99,
      "chip": "ym2612"
    },
    {
      "channel": 5,
      "note": 49,
      "start": 32.6452,
      "duration": 0.1155,
      "velocity": 99,
      "chip": "ym2612"
    },
    {
      "channel": 0,
      "note": 53,
      "start": 32.7604,
      "duration": 0.1135,
      "velocity": 121,
      "chip": "ym2612"
    },
    {
      "channel": 4,
      "note": 53,
      "start": 32.7607,
      "duration": 0.2292,
      "velocity": 99,
      "chip": "ym2612"
    },
    {
      "channel": 5,
      "note": 49,
      "start": 32.761,
      "duration": 0.2292,
      "velocity": 99,
      "chip": "ym2612"
    },
    {
      "channel": 0,
      "note": 43,
      "start": 32.8759,
      "duration": 0.191,
      "velocity": 127,
      "chip": "ym2612"
    },
    {
      "channel": 1,
      "note": 55,
      "start": 32.8762,
      "duration": 0.4629,
      "velocity": 91,
      "chip": "ym2612"
    },
    {
      "channel": 4,
      "note": 53,
      "start": 32.9901,
      "duration": 0.118,
      "velocity": 99,
      "chip": "ym2612"
    },
    {
      "channel": 5,
      "note": 49,
      "start": 32.9904,
      "duration": 0.118,
      "velocity": 99,
      "chip": "ym2612"
    },
    {
      "channel": 0,
      "note": 66,
      "start": 33.1074,
      "duration": 0.2296,
      "velocity": 127,
      "chip": "ym2612"
    },
    {
      "channel": 2,
      "note": 65,
      "start": 33.1077,
      "duration": 0.1136,
      "velocity": 92,
      "chip": "ym2612"
    },
    {
      "channel": 3,
      "note": 77,
      "start": 33.108,
      "duration": 0.1135,
      "velocity": 92,
      "chip": "ym2612"
    },
    {
      "channel": 4,
      "note": 53,
      "start": 33.1083,
      "duration": 0.2319,
      "velocity": 99,
      "chip": "ym2612"
    },
    {
      "channel": 5,
      "note": 49,
      "start": 33.1086,
      "duration": 0.2319,
      "velocity": 99,
      "chip": "ym2612"
    },
    {
      "channel": 2,
      "note": 67,
      "start": 33.2215,
      "duration": 0.1181,
      "velocity": 92,
      "chip": "ym2612"
    },
    {
      "channel": 3,
      "note": 79,
      "start": 33.2218,
      "duration": 0.1181,
      "velocity": 92,
      "chip": "ym2612"
    },
    {
      "channel": 0,
      "note": 41,
      "start": 33.339,
      "duration": 0.2296,
      "velocity": 127,
      "chip": "ym2612"
    },
    {
      "channel": 1,
      "note": 56,
      "start": 33.3395,
      "duration": 0.3448,
      "velocity": 91,
      "chip": "ym2612"
    },
    {
      "channel": 2,
      "note": 68,
      "start": 33.3398,
      "duration": 0.3449,
      "velocity": 92,
      "chip": "ym2612"
    },
    {
      "channel": 3,
      "note": 80,
      "start": 33.3401,
      "duration": 0.3448,
      "velocity": 92,
      "chip": "ym2612"
    },
    {
      "channel": 4,
      "note": 53,
      "start": 33.3404,
      "duration": 0.2305,
      "velocity": 99,
      "chip": "ym2612"
    },
    {
      "channel": 5,
      "note": 48,
      "start": 33.3407,
      "duration": 0.2305,
      "velocity": 99,
      "chip": "ym2612"
    },
    {
      "channel": 0,
      "note": 66,
      "start": 33.5708,
      "duration": 0.2294,
      "velocity": 127,
      "chip": "ym2612"
    },
    {
      "channel": 4,
      "note": 53,
      "start": 33.5711,
      "duration": 0.1141,
      "velocity": 99,
      "chip": "ym2612"
    },
    {
      "channel": 5,
      "note": 48,
      "start": 33.5714,
      "duration": 0.1141,
      "velocity": 99,
      "chip": "ym2612"
    },
    {
      "channel": 1,
      "note": 56,
      "start": 33.6846,
      "duration": 0.3491,
      "velocity": 91,
      "chip": "ym2612"
    },
    {
      "channel": 2,
      "note": 70,
      "start": 33.6849,
      "duration": 0.3491,
      "velocity": 92,
      "chip": "ym2612"
    },
    {
      "channel": 3,
      "note": 82,
      "start": 33.6851,
      "duration": 0.3491,
      "velocity": 92,
      "chip": "ym2612"
    },
    {
      "channel": 4,
      "note": 53,
      "start": 33.6854,
      "duration": 0.2306,
      "velocity": 99,
      "chip": "ym2612"
    },
    {
      "channel": 5,
      "note": 48,
      "start": 33.6857,
      "duration": 0.2306,
      "velocity": 99,
      "chip": "ym2612"
    },
    {
      "channel": 0,
      "note": 43,
      "start": 33.8021,
      "duration": 0.191,
      "velocity": 127,
      "chip": "ym2612"
    },
    {
      "channel": 4,
      "note": 53,
      "start": 33.9163,
      "duration": 0.1183,
      "velocity": 99,
      "chip": "ym2612"
    },
    {
      "channel": 5,
      "note": 48,
      "start": 33.9166,
      "duration": 0.1183,
      "velocity": 99,
      "chip": "ym2612"
    },
    {
      "channel": 0,
      "note": 53,
      "start": 34.0336,
      "duration": 0.1138,
      "velocity": 121,
      "chip": "ym2612"
    },
    {
      "channel": 1,
      "note": 56,
      "start": 34.0339,
      "duration": 0.4629,
      "velocity": 91,
      "chip": "ym2612"
    },
    {
      "channel": 2,
      "note": 72,
      "start": 34.0342,
      "duration": 0.2292,
      "velocity": 92,
      "chip": "ym2612"
    },
    {
      "channel": 3,
      "note": 84,
      "start": 34.0345,
      "duration": 0.2292,
      "velocity": 92,
      "chip": "ym2612"
    },
    {
      "channel": 4,
      "note": 53,
      "start": 34.0348,
      "duration": 0.2292,
      "velocity": 99,
      "chip": "ym2612"
    },
    {
      "channel": 5,
      "note": 48,
      "start": 34.0351,
      "duration": 0.2292,
      "velocity": 99,
      "chip": "ym2612"
    },
    {
      "channel": 0,
      "note": 43,
      "start": 34.1497,
      "duration": 0.1908,
      "velocity": 127,
      "chip": "ym2612"
    },
    {
      "channel": 2,
      "note": 68,
      "start": 34.2636,
      "duration": 0.349,
      "velocity": 92,
      "chip": "ym2612"
    },
    {
      "channel": 3,
      "note": 80,
      "start": 34.2639,
      "duration": 0.349,
      "velocity": 92,
      "chip": "ym2612"
    },
    {
      "channel": 4,
      "note": 53,
      "start": 34.2641,
      "duration": 0.2329,
      "velocity": 99,
      "chip": "ym2612"
    },
    {
      "channel": 5,
      "note": 48,
      "start": 34.2644,
      "duration": 0.2329,
      "velocity": 99,
      "chip": "ym2612"
    },
    {
      "channel": 0,
      "note": 53,
      "start": 34.3812,
      "duration": 0.1136,
      "velocity": 121,
      "chip": "ym2612"
    },
    {
      "channel": 0,
      "note": 41,
      "start": 34.4967,
      "duration": 0.1138,
      "velocity": 127,
      "chip": "ym2612"
    },
    {
      "channel": 1,
      "note": 56,
      "start": 34.497,
      "duration": 0.2314,
      "velocity": 91,
      "chip": "ym2612"
    },
    {
      "channel": 4,
      "note": 53,
      "start": 34.4973,
      "duration": 0.1158,
      "velocity": 99,
      "chip": "ym2612"
    },
    {
      "channel": 5,
      "note": 48,
      "start": 34.4976,
      "duration": 0.1158,
      "velocity": 99,
      "chip": "ym2612"
    },
    {
      "channel": 0,
      "note": 53,
      "start": 34.6125,
      "duration": 0.1138,
      "velocity": 121,
      "chip": "ym2612"
    },
    {
      "channel": 2,
      "note": 70,
      "start": 34.6128,
      "duration": 0.3474,
      "velocity": 92,
      "chip": "ym2612"
    },
    {
      "channel": 3,
      "note": 82,
      "start": 34.6131,
      "duration": 0.3474,
      "velocity": 92,
      "chip": "ym2612"
    },
    {
      "channel": 4,
      "note": 53,
      "start": 34.6134,
      "duration": 0.2289,
      "velocity": 99,
      "chip": "ym2612"
    },
    {
      "channel": 5,
      "note": 48,
      "start": 34.6137,
      "duration": 0.2289,
      "velocity": 99,
      "chip": "ym2612"
    },
    {
      "channel": 0,
      "note": 43,
      "start": 34.7283,
      "duration": 0.1912,
      "velocity": 127,
      "chip": "ym2612"
    },
    {
      "channel": 1,
      "note": 56,
      "start": 34.7286,
      "duration": 0.4629,
      "velocity": 91,
      "chip": "ym2612"
    },
    {
      "channel": 4,
      "note": 53,
      "start": 34.8425,
      "duration": 0.1183,
      "velocity": 99,
      "chip": "ym2612"
    },
    {
      "channel": 5,
      "note": 48,
      "start": 34.8428,
      "duration": 0.1183,
      "velocity": 99,
      "chip": "ym2612"
    },
    {
      "channel": 0,
      "note": 66,
      "start": 34.9601,
      "duration": 0.2294,
      "velocity": 127,
      "chip": "ym2612"
    },
    {
      "channel": 2,
      "note": 72,
      "start": 34.9604,
      "duration": 0.2314,
      "velocity": 92,
      "chip": "ym2612"
    },
    {
      "channel": 3,
      "note": 84,
      "start": 34.9607,
      "duration": 0.2314,
      "velocity": 92,
      "chip": "ym2612"
    },
    {
      "channel": 4,
      "note": 53,
      "start": 34.961,
      "duration": 0.2314,
      "velocity": 99,
      "chip": "ym2612"
    },
    {
      "channel": 5,
      "note": 48,
      "start": 34.9613,
      "duration": 0.2314,
      "velocity": 99,
      "chip": "ym2612"
    },
    {
      "channel": 0,
      "note": 41,
      "start": 35.1915,
      "duration": 0.2295,
      "velocity": 127,
      "chip": "ym2612"
    },
    {
      "channel": 1,
      "note": 58,
      "start": 35.1917,
      "duration": 0.345,
      "velocity": 91,
      "chip": "ym2612"
    },
    {
      "channel": 2,
      "note": 73,
      "start": 35.192,
      "duration": 0.345,
      "velocity": 92,
      "chip": "ym2612"
    },
    {
      "channel": 3,
      "note": 85,
      "start": 35.1923,
      "duration": 0.345,
      "velocity": 92,
      "chip": "ym2612"
    },
    {
      "channel": 4,
      "note": 53,
      "start": 35.1926,
      "duration": 0.2304,
      "velocity": 99,
      "chip": "ym2612"
    },
    {
      "channel": 5,
      "note": 49,
      "start": 35.1929,
      "duration": 0.2304,
      "velocity": 99,
      "chip": "ym2612"
    },
    {
      "channel": 0,
      "note": 66,
      "start": 35.4229,
      "duration": 0.2296,
      "velocity": 127,
      "chip": "ym2612"
    },
    {
      "channel": 4,
      "note": 53,
      "start": 35.4232,
      "duration": 0.1144,
      "velocity": 99,
      "chip": "ym2612"
    },
    {
      "channel": 5,
      "note": 49,
      "start": 35.4235,
      "duration": 0.1144,
      "velocity": 99,
      "chip": "ym2612"
    },
    {
      "channel": 1,
      "note": 58,
      "start": 35.537,
      "duration": 0.3491,
      "velocity": 91,
      "chip": "ym2612"
    },
    {
      "channel": 2,
      "note": 72,
      "start": 35.5373,
      "duration": 0.3491,
      "velocity": 92,
      "chip": "ym2612"
    },
    {
      "channel": 3,
      "note": 84,
      "start": 35.5376,
      "duration": 0.3491,
      "velocity": 92,
      "chip": "ym2612"
    },
    {
      "channel": 4,
      "note": 53,
      "start": 35.5378,
      "duration": 0.2306,
      "velocity": 99,
      "chip": "ym2612"
    },
    {
      "channel": 5,
      "note": 49,
      "start": 35.5381,
      "duration": 0.2306,
      "velocity": 99,
      "chip": "ym2612"
    },
    {
      "channel": 0,
      "note": 43,
      "start": 35.6545,
      "duration": 0.191,
      "velocity": 127,
      "chip": "ym2612"
    },
    {
      "channel": 4,
      "note": 53,
      "start": 35.7687,
      "duration": 0.1183,
      "velocity": 99,
      "chip": "ym2612"
    },
    {
      "channel": 5,
      "note": 49,
      "start": 35.769,
      "duration": 0.1183,
      "velocity": 99,
      "chip": "ym2612"
    },
    {
      "channel": 0,
      "note": 53,
      "start": 35.8861,
      "duration": 0.1138,
      "velocity": 121,
      "chip": "ym2612"
    },
    {
      "channel": 1,
      "note": 58,
      "start": 35.8863,
      "duration": 0.4631,
      "velocity": 91,
      "chip": "ym2612"
    },
    {
      "channel": 2,
      "note": 70,
      "start": 35.8866,
      "duration": 0.2292,
      "velocity": 92,
      "chip": "ym2612"
    },
    {
      "channel": 3,
      "note": 82,
      "start": 35.8869,
      "duration": 0.2292,
      "velocity": 92,
      "chip": "ym2612"
    },
    {
      "channel": 4,
      "note": 53,
      "start": 35.8872,
      "duration": 0.2292,
      "velocity": 99,
      "chip": "ym2612"
    },
    {
      "channel": 5,
      "note": 49,
      "start": 35.8875,
      "duration": 0.2292,
      "velocity": 99,
      "chip": "ym2612"
    },
    {
      "channel": 0,
      "note": 43,
      "start": 36.0018,
      "duration": 0.191,
      "velocity": 127,
      "chip": "ym2612"
    },
    {
      "channel": 2,
      "note": 65,
      "start": 36.116,
      "duration": 0.6963,
      "velocity": 92,
      "chip": "ym2612"
    },
    {
      "channel": 3,
      "note": 77,
      "start": 36.1163,
      "duration": 0.6963,
      "velocity": 92,
      "chip": "ym2612"
    },
    {
      "channel": 4,
      "note": 53,
      "start": 36.1166,
      "duration": 0.2332,
      "velocity": 99,
      "chip": "ym2612"
    },
    {
      "channel": 5,
      "note": 49,
      "start": 36.1168,
      "duration": 0.2332,
      "velocity": 99,
      "chip": "ym2612"
    },
    {
      "channel": 0,
      "note": 53,
      "start": 36.2334,
      "duration": 0.1138,
      "velocity": 121,
      "chip": "ym2612"
    },
    {
      "channel": 0,
      "note": 41,
      "start": 36.3494,
      "duration": 0.1136,
      "velocity": 127,
      "chip": "ym2612"
    },
    {
      "channel": 1,
      "note": 58,
      "start": 36.3497,
      "duration": 0.2313,
      "velocity": 91,
      "chip": "ym2612"
    },
    {
      "channel": 4,
      "note": 53,
      "start": 36.35,
      "duration": 0.115,
      "velocity": 99,
      "chip": "ym2612"
    },
    {
      "channel": 5,
      "note": 49,
      "start": 36.3503,
      "duration": 0.115,
      "velocity": 99,
      "chip": "ym2612"
    },
    {
      "channel": 0,
      "note": 53,
      "start": 36.4649,
      "duration": 0.1138,
      "velocity": 121,
      "chip": "ym2612"
    },
    {
      "channel": 4,
      "note": 53,
      "start": 36.4652,
      "duration": 0.2296,
      "velocity": 99,
      "chip": "ym2612"
    },
    {
      "channel": 5,
      "note": 49,
      "start": 36.4655,
      "duration": 0.2297,
      "velocity": 99,
      "chip": "ym2612"
    },
    {
      "channel": 0,
      "note": 43,
      "start": 36.581,
      "duration": 0.075,
      "velocity": 127,
      "chip": "ym2612"
    },
    {
      "channel": 1,
      "note": 58,
      "start": 36.5812,
      "duration": 0.4627,
      "velocity": 91,
      "chip": "ym2612"
    },
    {
      "channel": 0,
      "note": 43,
      "start": 36.6948,
      "duration": 0.0769,
      "velocity": 127,
      "chip": "ym2612"
    },
    {
      "channel": 4,
      "note": 53,
      "start": 36.6951,
      "duration": 0.1178,
      "velocity": 99,
      "chip": "ym2612"
    },
    {
      "channel": 5,
      "note": 49,
      "start": 36.6954,
      "duration": 0.1178,
      "velocity": 99,
      "chip": "ym2612"
    },
    {
      "channel": 0,
      "note": 36,
      "start": 36.8123,
      "duration": 0.2103,
      "velocity": 91,
      "chip": "ym2612"
    },
    {
      "channel": 2,
      "note": 65,
      "start": 36.8125,
      "duration": 0.1137,
      "velocity": 92,
      "chip": "ym2612"
    },
    {
      "channel": 3,
      "note": 77,
      "start": 36.8128,
      "duration": 0.1137,
      "velocity": 92,
      "chip": "ym2612"
    },
    {
      "channel": 4,
      "note": 53,
      "start": 36.8131,
      "duration": 0.2317,
      "velocity": 99,
      "chip": "ym2612"
    },
    {
      "channel": 5,
      "note": 49,
      "start": 36.8134,
      "duration": 0.2316,
      "velocity": 99,
      "chip": "ym2612"
    },
    {
      "channel": 2,
      "note": 67,
      "start": 36.9265,
      "duration": 0.1177,
      "velocity": 92,
      "chip": "ym2612"
    },
    {
      "channel": 3,
      "note": 79,
      "start": 36.9268,
      "duration": 0.1177,
      "velocity": 92,
      "chip": "ym2612"
    },
    {
      "channel": 0,
      "note": 41,
      "start": 37.0439,
      "duration": 0.2103,
      "velocity": 127,
      "chip": "ym2612"
    },
    {
      "channel": 1,
      "note": 60,
      "start": 37.0441,
      "duration": 0.3453,
      "velocity": 91,
      "chip": "ym2612"
    },
    {
      "channel": 2,
      "note": 68,
      "start": 37.0444,
      "duration": 1.8522,
      "velocity": 92,
      "chip": "ym2612"
    },
    {
      "channel": 3,
      "note": 80,
      "start": 37.0447,
      "duration": 1.8519,
      "velocity": 92,
      "chip": "ym2612"
    },
    {
      "channel": 4,
      "note": 53,
      "start": 37.045,
      "duration": 0.2305,
      "velocity": 99,
      "chip": "ym2612"
    },
    {
      "channel": 5,
      "note": 48,
      "start": 37.0453,
      "duration": 0.2305,
      "velocity": 99,
      "chip": "ym2612"
    },
    {
      "channel": 0,
      "note": 66,
      "start": 37.2754,
      "duration": 0.2296,
      "velocity": 127,
      "chip": "ym2612"
    },
    {
      "channel": 4,
      "note": 53,
      "start": 37.2757,
      "duration": 0.1141,
      "velocity": 99,
      "chip": "ym2612"
    },
    {
      "channel": 5,
      "note": 48,
      "start": 37.276,
      "duration": 0.1141,
      "velocity": 99,
      "chip": "ym2612"
    },
    {
      "channel": 1,
      "note": 60,
      "start": 37.3897,
      "duration": 0.3488,
      "velocity": 91,
      "chip": "ym2612"
    },
    {
      "channel": 4,
      "note": 53,
      "start": 37.39,
      "duration": 0.2309,
      "velocity": 99,
      "chip": "ym2612"
    },
    {
      "channel": 5,
      "note": 48,
      "start": 37.3902,
      "duration": 0.2309,
      "velocity": 99,
      "chip": "ym2612"
    },
    {
      "channel": 0,
      "note": 43,
      "start": 37.5069,
      "duration": 0.191,
      "velocity": 127,
      "chip": "ym2612"
    },
    {
      "channel": 4,
      "note": 53,
      "start": 37.6211,
      "duration": 0.1177,
      "velocity": 99,
      "chip": "ym2612"
    },
    {
      "channel": 5,
      "note": 48,
      "start": 37.6214,
      "duration": 0.1177,
      "velocity": 99,
      "chip": "ym2612"
    },
    {
      "channel": 0,
      "note": 53,
      "start": 37.7385,
      "duration": 0.1138,
      "velocity": 121,
      "chip": "ym2612"
    },
    {
      "channel": 1,
      "note": 60,
      "start": 37.7388,
      "duration": 0.4629,
      "velocity": 91,
      "chip": "ym2612"
    },
    {
      "channel": 4,
      "note": 53,
      "start": 37.739,
      "duration": 0.2292,
      "velocity": 99,
      "chip": "ym2612"
    },
    {
      "channel": 5,
      "note": 48,
      "start": 37.7396,
      "duration": 0.2289,
      "velocity": 99,
      "chip": "ym2612"
    },
    {
      "channel": 0,
      "note": 43,
      "start": 37.8542,
      "duration": 0.191,
      "velocity": 127,
      "chip": "ym2612"
    },
    {
      "channel": 4,
      "note": 53,
      "start": 37.9684,
      "duration": 0.2335,
      "velocity": 99,
      "chip": "ym2612"
    },
    {
      "channel": 5,
      "note": 48,
      "start": 37.9687,
      "duration": 0.2335,
      "velocity": 99,
      "chip": "ym2612"
    },
    {
      "channel": 0,
      "note": 53,
      "start": 38.0858,
      "duration": 0.1138,
      "velocity": 121,
      "chip": "ym2612"
    },
    {
      "channel": 0,
      "note": 41,
      "start": 38.2016,
      "duration": 0.1138,
      "velocity": 127,
      "chip": "ym2612"
    },
    {
      "channel": 1,
      "note": 60,
      "start": 38.2019,
      "duration": 0.2313,
      "velocity": 91,
      "chip": "ym2612"
    },
    {
      "channel": 4,
      "note": 53,
      "start": 38.2022,
      "duration": 0.1153,
      "velocity": 99,
      "chip": "ym2612"
    },
    {
      "channel": 5,
      "note": 48,
      "start": 38.2024,
      "duration": 0.1153,
      "velocity": 99,
      "chip": "ym2612"
    },
    {
      "channel": 0,
      "note": 53,
      "start": 38.3173,
      "duration": 0.1138,
      "velocity": 121,
      "chip": "ym2612"
    },
    {
      "channel": 4,
      "note": 53,
      "start": 38.3176,
      "duration": 0.2294,
      "velocity": 99,
      "chip": "ym2612"
    },
    {
      "channel": 5,
      "note": 48,
      "start": 38.3179,
      "duration": 0.2294,
      "velocity": 99,
      "chip": "ym2612"
    },
    {
      "channel": 0,
      "note": 43,
      "start": 38.4331,
      "duration": 0.191,
      "velocity": 127,
      "chip": "ym2612"
    },
    {
      "channel": 1,
      "note": 60,
      "start": 38.4334,
      "duration": 0.4629,
      "velocity": 91,
      "chip": "ym2612"
    },
    {
      "channel": 4,
      "note": 53,
      "start": 38.5473,
      "duration": 0.1174,
      "velocity": 99,
      "chip": "ym2612"
    },
    {
      "channel": 5,
      "note": 48,
      "start": 38.5476,
      "duration": 0.1174,
      "velocity": 99,
      "chip": "ym2612"
    },
    {
      "channel": 0,
      "note": 66,
      "start": 38.6647,
      "duration": 0.2296,
      "velocity": 127,
      "chip": "ym2612"
    },
    {
      "channel": 4,
      "note": 53,
      "start": 38.665,
      "duration": 0.2317,
      "velocity": 99,
      "chip": "ym2612"
    },
    {
      "channel": 5,
      "note": 48,
      "start": 38.6653,
      "duration": 0.2317,
      "velocity": 99,
      "chip": "ym2612"
    },
    {
      "channel": 0,
      "note": 41,
      "start": 38.8962,
      "duration": 0.2296,
      "velocity": 127,
      "chip": "ym2612"
    },
    {
      "channel": 1,
      "note": 60,
      "start": 38.8965,
      "duration": 0.3451,
      "velocity": 91,
      "chip": "ym2612"
    },
    {
      "channel": 4,
      "note": 53,
      "start": 38.8969,
      "duration": 0.231,
      "velocity": 99,
      "chip": "ym2612"
    },
    {
      "channel": 5,
      "note": 48,
      "start": 38.8972,
      "duration": 0.231,
      "velocity": 99,
      "chip": "ym2612"
    },
    {
      "channel": 0,
      "note": 66,
      "start": 39.1278,
      "duration": 0.2295,
      "velocity": 127,
      "chip": "ym2612"
    },
    {
      "channel": 4,
      "note": 53,
      "start": 39.1281,
      "duration": 0.1138,
      "velocity": 99,
      "chip": "ym2612"
    },
    {
      "channel": 5,
      "note": 48,
      "start": 39.1284,
      "duration": 0.1138,
      "velocity": 99,
      "chip": "ym2612"
    },
    {
      "channel": 1,
      "note": 60,
      "start": 39.2418,
      "duration": 0.3493,
      "velocity": 91,
      "chip": "ym2612"
    },
    {
      "channel": 4,
      "note": 53,
      "start": 39.2421,
      "duration": 0.2312,
      "velocity": 99,
      "chip": "ym2612"
    },
    {
      "channel": 5,
      "note": 48,
      "start": 39.2424,
      "duration": 0.2312,
      "velocity": 99,
      "chip": "ym2612"
    },
    {
      "channel": 0,
      "note": 43,
      "start": 39.3596,
      "duration": 0.1907,
      "velocity": 127,
      "chip": "ym2612"
    },
    {
      "channel": 4,
      "note": 53,
      "start": 39.4735,
      "duration": 0.118,
      "velocity": 99,
      "chip": "ym2612"
    },
    {
      "channel": 5,
      "note": 48,
      "start": 39.4738,
      "duration": 0.118,
      "velocity": 99,
      "chip": "ym2612"
    },
    {
      "channel": 0,
      "note": 53,
      "start": 39.5911,
      "duration": 0.1136,
      "velocity": 121,
      "chip": "ym2612"
    },
    {
      "channel": 1,
      "note": 60,
      "start": 39.5914,
      "duration": 0.4626,
      "velocity": 91,
      "chip": "ym2612"
    },
    {
      "channel": 4,
      "note": 53,
      "start": 39.5917,
      "duration": 0.2289,
      "velocity": 99,
      "chip": "ym2612"
    },
    {
      "channel": 5,
      "note": 48,
      "start": 39.592,
      "duration": 0.2289,
      "velocity": 99,
      "chip": "ym2612"
    },
    {
      "channel": 0,
      "note": 43,
      "start": 39.7067,
      "duration": 0.191,
      "velocity": 127,
      "chip": "ym2612"
    },
    {
      "channel": 4,
      "note": 53,
      "start": 39.8208,
      "duration": 0.2335,
      "velocity": 99,
      "chip": "ym2612"
    },
    {
      "channel": 5,
      "note": 48,
      "start": 39.8211,
      "duration": 0.2335,
      "velocity": 99,
      "chip": "ym2612"
    },
    {
      "channel": 0,
      "note": 53,
      "start": 39.9382,
      "duration": 0.1138,
      "velocity": 121,
      "chip": "ym2612"
    },
    {
      "channel": 0,
      "note": 41,
      "start": 40.054,
      "duration": 0.1138,
      "velocity": 127,
      "chip": "ym2612"
    },
    {
      "channel": 1,
      "note": 60,
      "start": 40.0543,
      "duration": 0.2313,
      "velocity": 91,
      "chip": "ym2612"
    },
    {
      "channel": 4,
      "note": 53,
      "start": 40.0546,
      "duration": 0.1155,
      "velocity": 99,
      "chip": "ym2612"
    },
    {
      "channel": 5,
      "note": 48,
      "start": 40.0549,
      "duration": 0.1155,
      "velocity": 99,
      "chip": "ym2612"
    },
    {
      "channel": 0,
      "note": 53,
      "start": 40.17,
      "duration": 0.1136,
      "velocity": 121,
      "chip": "ym2612"
    },
    {
      "channel": 4,
      "note": 53,
      "start": 40.1703,
      "duration": 0.2293,
      "velocity": 99,
      "chip": "ym2612"
    },
    {
      "channel": 5,
      "note": 48,
      "start": 40.1706,
      "duration": 0.2293,
      "velocity": 99,
      "chip": "ym2612"
    },
    {
      "channel": 0,
      "note": 43,
      "start": 40.2856,
      "duration": 0.191,
      "velocity": 127,
      "chip": "ym2612"
    },
    {
      "channel": 1,
      "note": 60,
      "start": 40.2858,
      "duration": 0.4629,
      "velocity": 91,
      "chip": "ym2612"
    },
    {
      "channel": 4,
      "note": 53,
      "start": 40.3999,
      "duration": 0.1173,
      "velocity": 99,
      "chip": "ym2612"
    },
    {
      "channel": 5,
      "note": 48,
      "start": 40.4002,
      "duration": 0.1173,
      "velocity": 99,
      "chip": "ym2612"
    },
    {
      "channel": 0,
      "note": 66,
      "start": 40.5171,
      "duration": 0.2296,
      "velocity": 127,
      "chip": "ym2612"
    },
    {
      "channel": 4,
      "note": 53,
      "start": 40.5174,
      "duration": 0.2323,
      "velocity": 99,
      "chip": "ym2612"
    },
    {
      "channel": 5,
      "note": 48,
      "start": 40.5177,
      "duration": 0.2323,
      "velocity": 99,
      "chip": "ym2612"
    },
    {
      "channel": 0,
      "note": 41,
      "start": 40.7486,
      "duration": 0.2296,
      "velocity": 127,
      "chip": "ym2612"
    },
    {
      "channel": 1,
      "note": 48,
      "start": 40.7489,
      "duration": 0.3451,
      "velocity": 91,
      "chip": "ym2612"
    },
    {
      "channel": 2,
      "note": 67,
      "start": 40.7494,
      "duration": 1.8522,
      "velocity": 92,
      "chip": "ym2612"
    },
    {
      "channel": 3,
      "note": 79,
      "start": 40.7497,
      "duration": 1.8521,
      "velocity": 92,
      "chip": "ym2612"
    },
    {
      "channel": 4,
      "note": 52,
      "start": 40.7499,
      "duration": 0.2306,
      "velocity": 99,
      "chip": "ym2612"
    },
    {
      "channel": 5,
      "note": 48,
      "start": 40.7502,
      "duration": 0.2306,
      "velocity": 99,
      "chip": "ym2612"
    },
    {
      "channel": 0,
      "note": 66,
      "start": 40.9805,
      "duration": 0.2294,
      "velocity": 127,
      "chip": "ym2612"
    },
    {
      "channel": 4,
      "note": 52,
      "start": 40.9807,
      "duration": 0.1136,
      "velocity": 99,
      "chip": "ym2612"
    },
    {
      "channel": 5,
      "note": 48,
      "start": 40.981,
      "duration": 0.1136,
      "velocity": 99,
      "chip": "ym2612"
    },
    {
      "channel": 1,
      "note": 48,
      "start": 41.0943,
      "duration": 0.3491,
      "velocity": 91,
      "chip": "ym2612"
    },
    {
      "channel": 4,
      "note": 52,
      "start": 41.0946,
      "duration": 0.2312,
      "velocity": 99,
      "chip": "ym2612"
    },
    {
      "channel": 5,
      "note": 48,
      "start": 41.0948,
      "duration": 0.2312,
      "velocity": 99,
      "chip": "ym2612"
    },
    {
      "channel": 0,
      "note": 43,
      "start": 41.2118,
      "duration": 0.191,
      "velocity": 127,
      "chip": "ym2612"
    },
    {
      "channel": 4,
      "note": 52,
      "start": 41.3259,
      "duration": 0.1178,
      "velocity": 99,
      "chip": "ym2612"
    },
    {
      "channel": 5,
      "note": 48,
      "start": 41.3262,
      "duration": 0.1177,
      "velocity": 99,
      "chip": "ym2612"
    },
    {
      "channel": 0,
      "note": 53,
      "start": 41.4433,
      "duration": 0.1138,
      "velocity": 121,
      "chip": "ym2612"
    },
    {
      "channel": 1,
      "note": 48,
      "start": 41.4436,
      "duration": 0.4628,
      "velocity": 91,
      "chip": "ym2612"
    },
    {
      "channel": 4,
      "note": 52,
      "start": 41.4439,
      "duration": 0.2291,
      "velocity": 99,
      "chip": "ym2612"
    },
    {
      "channel": 5,
      "note": 48,
      "start": 41.4442,
      "duration": 0.2291,
      "velocity": 99,
      "chip": "ym2612"
    },
    {
      "channel": 0,
      "note": 43,
      "start": 41.5591,
      "duration": 0.191,
      "velocity": 127,
      "chip": "ym2612"
    },
    {
      "channel": 4,
      "note": 52,
      "start": 41.6733,
      "duration": 0.2335,
      "velocity": 99,
      "chip": "ym2612"
    },
    {
      "channel": 5,
      "note": 48,
      "start": 41.6735,
      "duration": 0.2335,
      "velocity": 99,
      "chip": "ym2612"
    },
    {
      "channel": 0,
      "note": 53,
      "start": 41.7909,
      "duration": 0.1136,
      "velocity": 121,
      "chip": "ym2612"
    },
    {
      "channel": 0,
      "note": 41,
      "start": 41.9064,
      "duration": 0.1138,
      "velocity": 127,
      "chip": "ym2612"
    },
    {
      "channel": 1,
      "note": 48,
      "start": 41.9067,
      "duration": 0.2313,
      "velocity": 91,
      "chip": "ym2612"
    },
    {
      "channel": 4,
      "note": 52,
      "start": 41.907,
      "duration": 0.1153,
      "velocity": 99,
      "chip": "ym2612"
    },
    {
      "channel": 5,
      "note": 48,
      "start": 41.9073,
      "duration": 0.1153,
      "velocity": 99,
      "chip": "ym2612"
    },
    {
      "channel": 0,
      "note": 53,
      "start": 42.0222,
      "duration": 0.1138,
      "velocity": 121,
      "chip": "ym2612"
    },
    {
      "channel": 4,
      "note": 52,
      "start": 42.0225,
      "duration": 0.2295,
      "velocity": 99,
      "chip": "ym2612"
    },
    {
      "channel": 5,
      "note": 48,
      "start": 42.0228,
      "duration": 0.2294,
      "velocity": 99,
      "chip": "ym2612"
    },
    {
      "channel": 0,
      "note": 43,
      "start": 42.138,
      "duration": 0.191,
      "velocity": 127,
      "chip": "ym2612"
    },
    {
      "channel": 1,
      "note": 48,
      "start": 42.1383,
      "duration": 0.4631,
      "velocity": 91,
      "chip": "ym2612"
    },
    {
      "channel": 4,
      "note": 52,
      "start": 42.2522,
      "duration": 0.1177,
      "velocity": 99,
      "chip": "ym2612"
    },
    {
      "channel": 5,
      "note": 48,
      "start": 42.2524,
      "duration": 0.1177,
      "velocity": 99,
      "chip": "ym2612"
    },
    {
      "channel": 0,
      "note": 66,
      "start": 42.3698,
      "duration": 0.2294,
      "velocity": 127,
      "chip": "ym2612"
    },
    {
      "channel": 4,
      "note": 52,
      "start": 42.3701,
      "duration": 0.2317,
      "velocity": 99,
      "chip": "ym2612"
    },
    {
      "channel": 5,
      "note": 48,
      "start": 42.3703,
      "duration": 0.2317,
      "velocity": 99,
      "chip": "ym2612"
    },
    {
      "channel": 0,
      "note": 41,
      "start": 42.6013,
      "duration": 0.2293,
      "velocity": 127,
      "chip": "ym2612"
    },
    {
      "channel": 1,
      "note": 48,
      "start": 42.6016,
      "duration": 0.3449,
      "velocity": 91,
      "chip": "ym2612"
    },
    {
      "channel": 4,
      "note": 52,
      "start": 42.602,
      "duration": 0.2307,
      "velocity": 99,
      "chip": "ym2612"
    },
    {
      "channel": 5,
      "note": 48,
      "start": 42.6023,
      "duration": 0.2307,
      "velocity": 99,
      "chip": "ym2612"
    },
    {
      "channel": 0,
      "note": 66,
      "start": 42.8326,
      "duration": 0.2296,
      "velocity": 127,
      "chip": "ym2612"
    },
    {
      "channel": 4,
      "note": 52,
      "start": 42.8329,
      "duration": 0.1138,
      "velocity": 99,
      "chip": "ym2612"
    },
    {
      "channel": 5,
      "note": 48,
      "start": 42.8332,
      "duration": 0.1138,
      "velocity": 99,
      "chip": "ym2612"
    },
    {
      "channel": 1,
      "note": 48,
      "start": 42.9467,
      "duration": 0.3491,
      "velocity": 91,
      "chip": "ym2612"
    },
    {
      "channel": 4,
      "note": 52,
      "start": 42.947,
      "duration": 0.2312,
      "velocity": 99,
      "chip": "ym2612"
    },
    {
      "channel": 5,
      "note": 48,
      "start": 42.9473,
      "duration": 0.2312,
      "velocity": 99,
      "chip": "ym2612"
    },
    {
      "channel": 0,
      "note": 43,
      "start": 43.0642,
      "duration": 0.191,
      "velocity": 127,
      "chip": "ym2612"
    },
    {
      "channel": 4,
      "note": 52,
      "start": 43.1784,
      "duration": 0.1177,
      "velocity": 99,
      "chip": "ym2612"
    },
    {
      "channel": 5,
      "note": 48,
      "start": 43.1786,
      "duration": 0.1178,
      "velocity": 99,
      "chip": "ym2612"
    },
    {
      "channel": 0,
      "note": 53,
      "start": 43.2958,
      "duration": 0.1138,
      "velocity": 121,
      "chip": "ym2612"
    },
    {
      "channel": 1,
      "note": 48,
      "start": 43.296,
      "duration": 0.4628,
      "velocity": 91,
      "chip": "ym2612"
    },
    {
      "channel": 4,
      "note": 52,
      "start": 43.2963,
      "duration": 0.2291,
      "velocity": 99,
      "chip": "ym2612"
    },
    {
      "channel": 5,
      "note": 48,
      "start": 43.2966,
      "duration": 0.2291,
      "velocity": 99,
      "chip": "ym2612"
    },
    {
      "channel": 0,
      "note": 43,
      "start": 43.4115,
      "duration": 0.191,
      "velocity": 127,
      "chip": "ym2612"
    },
    {
      "channel": 4,
      "note": 52,
      "start": 43.5257,
      "duration": 0.2337,
      "velocity": 99,
      "chip": "ym2612"
    },
    {
      "channel": 5,
      "note": 48,
      "start": 43.526,
      "duration": 0.2337,
      "velocity": 99,
      "chip": "ym2612"
    },
    {
      "channel": 0,
      "note": 53,
      "start": 43.643,
      "duration": 0.1138,
      "velocity": 121,
      "chip": "ym2612"
    },
    {
      "channel": 0,
      "note": 41,
      "start": 43.7588,
      "duration": 0.1138,
      "velocity": 127,
      "chip": "ym2612"
    },
    {
      "channel": 1,
      "note": 48,
      "start": 43.7591,
      "duration": 0.2316,
      "velocity": 91,
      "chip": "ym2612"
    },
    {
      "channel": 4,
      "note": 52,
      "start": 43.7597,
      "duration": 0.115,
      "velocity": 99,
      "chip": "ym2612"
    },
    {
      "channel": 5,
      "note": 48,
      "start": 43.76,
      "duration": 0.115,
      "velocity": 99,
      "chip": "ym2612"
    },
    {
      "channel": 0,
      "note": 53,
      "start": 43.8746,
      "duration": 0.1138,
      "velocity": 121,
      "chip": "ym2612"
    },
    {
      "channel": 4,
      "note": 52,
      "start": 43.8749,
      "duration": 0.2297,
      "velocity": 99,
      "chip": "ym2612"
    },
    {
      "channel": 5,
      "note": 48,
      "start": 43.8752,
      "duration": 0.2297,
      "velocity": 99,
      "chip": "ym2612"
    },
    {
      "channel": 0,
      "note": 43,
      "start": 43.9906,
      "duration": 0.075,
      "velocity": 127,
      "chip": "ym2612"
    },
    {
      "channel": 1,
      "note": 48,
      "start": 43.9909,
      "duration": 0.4626,
      "velocity": 91,
      "chip": "ym2612"
    },
    {
      "channel": 0,
      "note": 43,
      "start": 44.1045,
      "duration": 0.0769,
      "velocity": 127,
      "chip": "ym2612"
    },
    {
      "channel": 4,
      "note": 52,
      "start": 44.1048,
      "duration": 0.1172,
      "velocity": 99,
      "chip": "ym2612"
    },
    {
      "channel": 5,
      "note": 48,
      "start": 44.1051,
      "duration": 0.1172,
      "velocity": 99,
      "chip": "ym2612"
    },
    {
      "channel": 0,
      "note": 36,
      "start": 44.2219,
      "duration": 0.2103,
      "velocity": 91,
      "chip": "ym2612"
    },
    {
      "channel": 4,
      "note": 52,
      "start": 44.2222,
      "duration": 0.235,
      "velocity": 99,
      "chip": "ym2612"
    },
    {
      "channel": 5,
      "note": 48,
      "start": 44.2225,
      "duration": 0.2371,
      "velocity": 99,
      "chip": "ym2612"
    },
    {
      "channel": 0,
      "note": 41,
      "start": 44.4535,
      "duration": 0.3261,
      "velocity": 127,
      "chip": "ym2612"
    },
    {
      "channel": 1,
      "note": 53,
      "start": 44.4538,
      "duration": 0.3457,
      "velocity": 91,
      "chip": "ym2612"
    },
    {
      "channel": 4,
      "note": 53,
      "start": 44.4595,
      "duration": 0.1079,
      "velocity": 92,
      "chip": "ym2612"
    },
    {
      "channel": 4,
      "note": 60,
      "start": 44.5677,
      "duration": 0.1156,
      "velocity": 92,
      "chip": "ym2612"
    },
    {
      "channel": 5,
      "note": 53,
      "start": 44.6255,
      "duration": 0.1156,
      "velocity": 92,
      "chip": "ym2612"
    },
    {
      "channel": 4,
      "note": 67,
      "start": 44.6834,
      "duration": 0.1163,
      "velocity": 92,
      "chip": "ym2612"
    },
    {
      "channel": 5,
      "note": 60,
      "start": 44.7413,
      "duration": 0.1156,
      "velocity": 92,
      "chip": "ym2612"
    },
    {
      "channel": 0,
      "note": 41,
      "start": 44.7994,
      "duration": 0.3275,
      "velocity": 127,
      "chip": "ym2612"
    },
    {
      "channel": 1,
      "note": 53,
      "start": 44.7997,
      "duration": 0.3482,
      "velocity": 91,
      "chip": "ym2612"
    },
    {
      "channel": 4,
      "note": 68,
      "start": 44.8,
      "duration": 0.1148,
      "velocity": 92,
      "chip": "ym2612"
    },
    {
      "channel": 5,
      "note": 67,
      "start": 44.8571,
      "duration": 0.1155,
      "velocity": 92,
      "chip": "ym2612"
    },
    {
      "channel": 4,
      "note": 75,
      "start": 44.915,
      "duration": 0.1156,
      "velocity": 92,
      "chip": "ym2612"
    },
    {
      "channel": 5,
      "note": 68,
      "start": 44.9729,
      "duration": 0.1156,
      "velocity": 92,
      "chip": "ym2612"
    },
    {
      "channel": 4,
      "note": 67,
      "start": 45.0308,
      "duration": 0.1172,
      "velocity": 92,
      "chip": "ym2612"
    },
    {
      "channel": 5,
      "note": 75,
      "start": 45.0887,
      "duration": 0.1154,
      "velocity": 92,
      "chip": "ym2612"
    },
    {
      "channel": 4,
      "note": 68,
      "start": 45.1482,
      "duration": 0.1138,
      "velocity": 92,
      "chip": "ym2612"
    },
    {
      "channel": 5,
      "note": 67,
      "start": 45.2043,
      "duration": 0.1156,
      "velocity": 92,
      "chip": "ym2612"
    },
    {
      "channel": 4,
      "note": 75,
      "start": 45.2622,
      "duration": 0.1158,
      "velocity": 92,
      "chip": "ym2612"
    },
    {
      "channel": 5,
      "note": 68,
      "start": 45.3201,
      "duration": 0.1155,
      "velocity": 92,
      "chip": "ym2612"
    },
    {
      "channel": 0,
      "note": 53,
      "start": 45.378,
      "duration": 0.1156,
      "velocity": 121,
      "chip": "ym2612"
    },
    {
      "channel": 4,
      "note": 53,
      "start": 45.3783,
      "duration": 0.1156,
      "velocity": 92,
      "chip": "ym2612"
    },
    {
      "channel": 5,
      "note": 75,
      "start": 45.4359,
      "duration": 0.1156,
      "velocity": 92,
      "chip": "ym2612"
    },
    {
      "channel": 0,
      "note": 53,
      "start": 45.4938,
      "duration": 0.1157,
      "velocity": 121,
      "chip": "ym2612"
    },
    {
      "channel": 4,
      "note": 60,
      "start": 45.4941,
      "duration": 0.1158,
      "velocity": 92,
      "chip": "ym2612"
    },
    {
      "channel": 5,
      "note": 53,
      "start": 45.5517,
      "duration": 0.1156,
      "velocity": 92,
      "chip": "ym2612"
    },
    {
      "channel": 0,
      "note": 53,
      "start": 45.6098,
      "duration": 0.1152,
      "velocity": 121,
      "chip": "ym2612"
    },
    {
      "channel": 4,
      "note": 67,
      "start": 45.6101,
      "duration": 0.1153,
      "velocity": 92,
      "chip": "ym2612"
    },
    {
      "channel": 5,
      "note": 60,
      "start": 45.6674,
      "duration": 0.1156,
      "velocity": 92,
      "chip": "ym2612"
    },
    {
      "channel": 0,
      "note": 53,
      "start": 45.7253,
      "duration": 0.1155,
      "velocity": 121,
      "chip": "ym2612"
    },
    {
      "channel": 4,
      "note": 68,
      "start": 45.7256,
      "duration": 0.1172,
      "velocity": 92,
      "chip": "ym2612"
    },
    {
      "channel": 5,
      "note": 67,
      "start": 45.7832,
      "duration": 0.1156,
      "velocity": 92,
      "chip": "ym2612"
    },
    {
      "channel": 0,
      "note": 43,
      "start": 45.8428,
      "duration": 0.4226,
      "velocity": 127,
      "chip": "ym2612"
    },
    {
      "channel": 4,
      "note": 75,
      "start": 45.8431,
      "duration": 0.1136,
      "velocity": 92,
      "chip": "ym2612"
    },
    {
      "channel": 5,
      "note": 68,
      "start": 45.8991,
      "duration": 0.1156,
      "velocity": 92,
      "chip": "ym2612"
    },
    {
      "channel": 4,
      "note": 67,
      "start": 45.957,
      "duration": 0.1155,
      "velocity": 92,
      "chip": "ym2612"
    },
    {
      "channel": 5,
      "note": 75,
      "start": 46.0149,
      "duration": 0.1155,
      "velocity": 92,
      "chip": "ym2612"
    },
    {
      "channel": 4,
      "note": 68,
      "start": 46.0727,
      "duration": 0.1156,
      "velocity": 92,
      "chip": "ym2612"
    },
    {
      "channel": 5,
      "note": 67,
      "start": 46.1306,
      "duration": 0.1156,
      "velocity": 92,
      "chip": "ym2612"
    },
    {
      "channel": 4,
      "note": 75,
      "start": 46.1885,
      "duration": 0.1177,
      "velocity": 92,
      "chip": "ym2612"
    },
    {
      "channel": 5,
      "note": 68,
      "start": 46.2464,
      "duration": 0.1156,
      "velocity": 92,
      "chip": "ym2612"
    },
    {
      "channel": 0,
      "note": 41,
      "start": 46.3059,
      "duration": 0.3068,
      "velocity": 127,
      "chip": "ym2612"
    },
    {
      "channel": 1,
      "note": 53,
      "start": 46.3061,
      "duration": 0.3455,
      "velocity": 91,
      "chip": "ym2612"
    },
    {
      "channel": 4,
      "note": 53,
      "start": 46.3064,
      "duration": 0.1134,
      "velocity": 92,
      "chip": "ym2612"
    },
    {
      "channel": 5,
      "note": 75,
      "start": 46.3622,
      "duration": 0.1156,
      "velocity": 92,
      "chip": "ym2612"
    },
    {
      "channel": 4,
      "note": 59,
      "start": 46.4201,
      "duration": 0.1155,
      "velocity": 92,
      "chip": "ym2612"
    },
    {
      "channel": 5,
      "note": 53,
      "start": 46.478,
      "duration": 0.1155,
      "velocity": 92,
      "chip": "ym2612"
    },
    {
      "channel": 4,
      "note": 68,
      "start": 46.5359,
      "duration": 0.1161,
      "velocity": 92,
      "chip": "ym2612"
    },
    {
      "channel": 5,
      "note": 59,
      "start": 46.5937,
      "duration": 0.1158,
      "velocity": 92,
      "chip": "ym2612"
    },
    {
      "channel": 0,
      "note": 41,
      "start": 46.6516,
      "duration": 0.3084,
      "velocity": 127,
      "chip": "ym2612"
    },
    {
      "channel": 1,
      "note": 53,
      "start": 46.6519,
      "duration": 0.3487,
      "velocity": 91,
      "chip": "ym2612"
    },
    {
      "channel": 4,
      "note": 71,
      "start": 46.6522,
      "duration": 0.115,
      "velocity": 92,
      "chip": "ym2612"
    },
    {
      "channel": 5,
      "note": 68,
      "start": 46.7098,
      "duration": 0.1153,
      "velocity": 92,
      "chip": "ym2612"
    },
    {
      "channel": 4,
      "note": 74,
      "start": 46.7674,
      "duration": 0.1155,
      "velocity": 92,
      "chip": "ym2612"
    },
    {
      "channel": 5,
      "note": 71,
      "start": 46.8253,
      "duration": 0.1155,
      "velocity": 92,
      "chip": "ym2612"
    },
    {
      "channel": 4,
      "note": 65,
      "start": 46.8832,
      "duration": 0.1175,
      "velocity": 92,
      "chip": "ym2612"
    },
    {
      "channel": 5,
      "note": 74,
      "start": 46.9411,
      "duration": 0.1154,
      "velocity": 92,
      "chip": "ym2612"
    },
    {
      "channel": 4,
      "note": 68,
      "start": 47.0009,
      "duration": 0.1135,
      "velocity": 92,
      "chip": "ym2612"
    },
    {
      "channel": 5,
      "note": 65,
      "start": 47.0567,
      "duration": 0.1156,
      "velocity": 92,
      "chip": "ym2612"
    },
    {
      "channel": 4,
      "note": 74,
      "start": 47.1146,
      "duration": 0.1158,
      "velocity": 92,
      "chip": "ym2612"
    },
    {
      "channel": 5,
      "note": 68,
      "start": 47.1725,
      "duration": 0.1156,
      "velocity": 92,
      "chip": "ym2612"
    },
    {
      "channel": 0,
      "note": 53,
      "start": 47.2304,
      "duration": 0.1155,
      "velocity": 121,
      "chip": "ym2612"
    },
    {
      "channel": 4,
      "note": 53,
      "start": 47.2307,
      "duration": 0.1156,
      "velocity": 92,
      "chip": "ym2612"
    },
    {
      "channel": 5,
      "note": 74,
      "start": 47.2883,
      "duration": 0.1156,
      "velocity": 92,
      "chip": "ym2612"
    },
    {
      "channel": 0,
      "note": 53,
      "start": 47.3462,
      "duration": 0.1155,
      "velocity": 121,
      "chip": "ym2612"
    },
    {
      "channel": 4,
      "note": 59,
      "start": 47.3465,
      "duration": 0.1156,
      "velocity": 92,
      "chip": "ym2612"
    },
    {
      "channel": 5,
      "note": 53,
      "start": 47.4041,
      "duration": 0.1155,
      "velocity": 92,
      "chip": "ym2612"
    },
    {
      "channel": 0,
      "note": 53,
      "start": 47.462,
      "duration": 0.1155,
      "velocity": 121,
      "chip": "ym2612"
    },
    {
      "channel": 4,
      "note": 68,
      "start": 47.4623,
      "duration": 0.1155,
      "velocity": 92,
      "chip": "ym2612"
    },
    {
      "channel": 5,
      "note": 59,
      "start": 47.5198,
      "duration": 0.1156,
      "velocity": 92,
      "chip": "ym2612"
    },
    {
      "channel": 0,
      "note": 53,
      "start": 47.5778,
      "duration": 0.1155,
      "velocity": 121,
      "chip": "ym2612"
    },
    {
      "channel": 4,
      "note": 71,
      "start": 47.578,
      "duration": 0.1172,
      "velocity": 92,
      "chip": "ym2612"
    },
    {
      "channel": 5,
      "note": 68,
      "start": 47.6356,
      "duration": 0.1157,
      "velocity": 92,
      "chip": "ym2612"
    },
    {
      "channel": 0,
      "note": 43,
      "start": 47.6952,
      "duration": 0.4225,
      "velocity": 127,
      "chip": "ym2612"
    },
    {
      "channel": 4,
      "note": 74,
      "start": 47.6955,
      "duration": 0.1139,
      "velocity": 92,
      "chip": "ym2612"
    },
    {
      "channel": 5,
      "note": 71,
      "start": 47.7515,
      "duration": 0.1155,
      "velocity": 92,
      "chip": "ym2612"
    },
    {
      "channel": 4,
      "note": 65,
      "start": 47.8096,
      "duration": 0.1153,
      "velocity": 92,
      "chip": "ym2612"
    },
    {
      "channel": 5,
      "note": 74,
      "start": 47.8673,
      "duration": 0.1156,
      "velocity": 92,
      "chip": "ym2612"
    },
    {
      "channel": 4,
      "note": 68,
      "start": 47.9252,
      "duration": 0.1156,
      "velocity": 92,
      "chip": "ym2612"
    },
    {
      "channel": 5,
      "note": 65,
      "start": 47.9831,
      "duration": 0.1156,
      "velocity": 92,
      "chip": "ym2612"
    },
    {
      "channel": 4,
      "note": 74,
      "start": 48.041,
      "duration": 0.1177,
      "velocity": 92,
      "chip": "ym2612"
    },
    {
      "channel": 5,
      "note": 68,
      "start": 48.0988,
      "duration": 0.0601,
      "velocity": 92,
      "chip": "ym2612"
    },
    {
      "channel": 0,
      "note": 41,
      "start": 48.1583,
      "duration": 0.3068,
      "velocity": 127,
      "chip": "ym2612"
    },
    {
      "channel": 1,
      "note": 53,
      "start": 48.1585,
      "duration": 0.3455,
      "velocity": 91,
      "chip": "ym2612"
    },
    {
      "channel": 4,
      "note": 53,
      "start": 48.1589,
      "duration": 0.1134,
      "velocity": 92,
      "chip": "ym2612"
    },
    {
      "channel": 4,
      "note": 60,
      "start": 48.2725,
      "duration": 0.1156,
      "velocity": 92,
      "chip": "ym2612"
    },
    {
      "channel": 5,
      "note": 53,
      "start": 48.3303,
      "duration": 0.1156,
      "velocity": 92,
      "chip": "ym2612"
    },
    {
      "channel": 4,
      "note": 67,
      "start": 48.3883,
      "duration": 0.1161,
      "velocity": 92,
      "chip": "ym2612"
    },
    {
      "channel": 5,
      "note": 60,
      "start": 48.4462,
      "duration": 0.1156,
      "velocity": 92,
      "chip": "ym2612"
    },
    {
      "channel": 0,
      "note": 41,
      "start": 48.504,
      "duration": 0.3084,
      "velocity": 127,
      "chip": "ym2612"
    },
    {
      "channel": 1,
      "note": 53,
      "start": 48.5043,
      "duration": 0.3485,
      "velocity": 91,
      "chip": "ym2612"
    },
    {
      "channel": 4,
      "note": 68,
      "start": 48.5046,
      "duration": 0.1151,
      "velocity": 92,
      "chip": "ym2612"
    },
    {
      "channel": 5,
      "note": 67,
      "start": 48.562,
      "duration": 0.1155,
      "velocity": 92,
      "chip": "ym2612"
    },
    {
      "channel": 4,
      "note": 75,
      "start": 48.6199,
      "duration": 0.1155,
      "velocity": 92,
      "chip": "ym2612"
    },
    {
      "channel": 5,
      "note": 68,
      "start": 48.6777,
      "duration": 0.1156,
      "velocity": 92,
      "chip": "ym2612"
    },
    {
      "channel": 4,
      "note": 67,
      "start": 48.7356,
      "duration": 0.1172,
      "velocity": 92,
      "chip": "ym2612"
    },
    {
      "channel": 5,
      "note": 75,
      "start": 48.7935,
      "duration": 0.1154,
      "velocity": 92,
      "chip": "ym2612"
    },
    {
      "channel": 4,
      "note": 68,
      "start": 48.853,
      "duration": 0.1138,
      "velocity": 92,
      "chip": "ym2612"
    },
    {
      "channel": 5,
      "note": 67,
      "start": 48.9094,
      "duration": 0.1153,
      "velocity": 92,
      "chip": "ym2612"
    },
    {
      "channel": 4,
      "note": 75,
      "start": 48.9671,
      "duration": 0.1158,
      "velocity": 92,
      "chip": "ym2612"
    },
    {
      "channel": 5,
      "note": 68,
      "start": 49.0249,
      "duration": 0.1155,
      "velocity": 92,
      "chip": "ym2612"
    },
    {
      "channel": 0,
      "note": 53,
      "start": 49.0828,
      "duration": 0.1156,
      "velocity": 121,
      "chip": "ym2612"
    },
    {
      "channel": 4,
      "note": 53,
      "start": 49.0831,
      "duration": 0.1156,
      "velocity": 92,
      "chip": "ym2612"
    },
    {
      "channel": 5,
      "note": 75,
      "start": 49.1407,
      "duration": 0.1156,
      "velocity": 92,
      "chip": "ym2612"
    },
    {
      "channel": 0,
      "note": 53,
      "start": 49.1986,
      "duration": 0.1155,
      "velocity": 121,
      "chip": "ym2612"
    },
    {
      "channel": 4,
      "note": 60,
      "start": 49.1989,
      "duration": 0.1156,
      "velocity": 92,
      "chip": "ym2612"
    },
    {
      "channel": 5,
      "note": 53,
      "start": 49.2565,
      "duration": 0.1156,
      "velocity": 92,
      "chip": "ym2612"
    },
    {
      "channel": 0,
      "note": 53,
      "start": 49.3144,
      "duration": 0.1155,
      "velocity": 121,
      "chip": "ym2612"
    },
    {
      "channel": 4,
      "note": 67,
      "start": 49.3147,
      "duration": 0.1156,
      "velocity": 92,
      "chip": "ym2612"
    },
    {
      "channel": 5,
      "note": 60,
      "start": 49.3723,
      "duration": 0.1156,
      "velocity": 92,
      "chip": "ym2612"
    },
    {
      "channel": 0,
      "note": 53,
      "start": 49.4302,
      "duration": 0.1155,
      "velocity": 121,
      "chip": "ym2612"
    },
    {
      "channel": 4,
      "note": 68,
      "start": 49.4305,
      "duration": 0.1172,
      "velocity": 92,
      "chip": "ym2612"
    },
    {
      "channel": 5,
      "note": 67,
      "start": 49.488,
      "duration": 0.1156,
      "velocity": 92,
      "chip": "ym2612"
    },
    {
      "channel": 0,
      "note": 43,
      "start": 49.5476,
      "duration": 0.4226,
      "velocity": 127,
      "chip": "ym2612"
    },
    {
      "channel": 4,
      "note": 75,
      "start": 49.5479,
      "duration": 0.1137,
      "velocity": 92,
      "chip": "ym2612"
    },
    {
      "channel": 5,
      "note": 68,
      "start": 49.6039,
      "duration": 0.1157,
      "velocity": 92,
      "chip": "ym2612"
    },
    {
      "channel": 4,
      "note": 67,
      "start": 49.6618,
      "duration": 0.1155,
      "velocity": 92,
      "chip": "ym2612"
    },
    {
      "channel": 5,
      "note": 75,
      "start": 49.7199,
      "duration": 0.1154,
      "velocity": 92,
      "chip": "ym2612"
    },
    {
      "channel": 4,
      "note": 68,
      "start": 49.7776,
      "duration": 0.1156,
      "velocity": 92,
      "chip": "ym2612"
    },
    {
      "channel": 5,
      "note": 67,
      "start": 49.8355,
      "duration": 0.1155,
      "velocity": 92,
      "chip": "ym2612"
    },
    {
      "channel": 4,
      "note": 75,
      "start": 49.8934,
      "duration": 0.1179,
      "velocity": 92,
      "chip": "ym2612"
    },
    {
      "channel": 5,
      "note": 68,
      "start": 49.9512,
      "duration": 0.1156,
      "velocity": 92,
      "chip": "ym2612"
    },
    {
      "channel": 0,
      "note": 41,
      "start": 50.011,
      "duration": 0.3065,
      "velocity": 127,
      "chip": "ym2612"
    },
    {
      "channel": 1,
      "note": 53,
      "start": 50.0112,
      "duration": 0.3452,
      "velocity": 91,
      "chip": "ym2612"
    },
    {
      "channel": 4,
      "note": 53,
      "start": 50.0116,
      "duration": 0.1131,
      "velocity": 92,
      "chip": "ym2612"
    },
    {
      "channel": 5,
      "note": 75,
      "start": 50.067,
      "duration": 0.1156,
      "velocity": 92,
      "chip": "ym2612"
    },
    {
      "channel": 4,
      "note": 59,
      "start": 50.1249,
      "duration": 0.1155,
      "velocity": 92,
      "chip": "ym2612"
    },
    {
      "channel": 5,
      "note": 53,
      "start": 50.1828,
      "duration": 0.1155,
      "velocity": 92,
      "chip": "ym2612"
    },
    {
      "channel": 4,
      "note": 68,
      "start": 50.2407,
      "duration": 0.1161,
      "velocity": 92,
      "chip": "ym2612"
    },
    {
      "channel": 5,
      "note": 59,
      "start": 50.2986,
      "duration": 0.1156,
      "velocity": 92,
      "chip": "ym2612"
    },
    {
      "channel": 0,
      "note": 41,
      "start": 50.3564,
      "duration": 0.3084,
      "velocity": 127,
      "chip": "ym2612"
    },
    {
      "channel": 1,
      "note": 53,
      "start": 50.3567,
      "duration": 0.3485,
      "velocity": 91,
      "chip": "ym2612"
    },
    {
      "channel": 4,
      "note": 71,
      "start": 50.357,
      "duration": 0.115,
      "velocity": 92,
      "chip": "ym2612"
    },
    {
      "channel": 5,
      "note": 68,
      "start": 50.4144,
      "duration": 0.1156,
      "velocity": 92,
      "chip": "ym2612"
    },
    {
      "channel": 4,
      "note": 74,
      "start": 50.4722,
      "duration": 0.1155,
      "velocity": 92,
      "chip": "ym2612"
    },
    {
      "channel": 5,
      "note": 71,
      "start": 50.5301,
      "duration": 0.1156,
      "velocity": 92,
      "chip": "ym2612"
    },
    {
      "channel": 4,
      "note": 65,
      "start": 50.588,
      "duration": 0.1172,
      "velocity": 92,
      "chip": "ym2612"
    },
    {
      "channel": 5,
      "note": 74,
      "start": 50.6459,
      "duration": 0.1154,
      "velocity": 92,
      "chip": "ym2612"
    },
    {
      "channel": 4,
      "note": 68,
      "start": 50.7055,
      "duration": 0.114,
      "velocity": 92,
      "chip": "ym2612"
    },
    {
      "channel": 5,
      "note": 65,
      "start": 50.7616,
      "duration": 0.1155,
      "velocity": 92,
      "chip": "ym2612"
    },
    {
      "channel": 4,
      "note": 74,
      "start": 50.8197,
      "duration": 0.1156,
      "velocity": 92,
      "chip": "ym2612"
    },
    {
      "channel": 5,
      "note": 68,
      "start": 50.8773,
      "duration": 0.1156,
      "velocity": 92,
      "chip": "ym2612"
    },
    {
      "channel": 0,
      "note": 53,
      "start": 50.9352,
      "duration": 0.1155,
      "velocity": 121,
      "chip": "ym2612"
    },
    {
      "channel": 4,
      "note": 53,
      "start": 50.9355,
      "duration": 0.1156,
      "velocity": 92,
      "chip": "ym2612"
    },
    {
      "channel": 5,
      "note": 74,
      "start": 50.9932,
      "duration": 0.1155,
      "velocity": 92,
      "chip": "ym2612"
    },
    {
      "channel": 0,
      "note": 53,
      "start": 51.051,
      "duration": 0.1155,
      "velocity": 121,
      "chip": "ym2612"
    },
    {
      "channel": 4,
      "note": 59,
      "start": 51.0513,
      "duration": 0.1156,
      "velocity": 92,
      "chip": "ym2612"
    },
    {
      "channel": 5,
      "note": 53,
      "start": 51.1089,
      "duration": 0.1155,
      "velocity": 92,
      "chip": "ym2612"
    },
    {
      "channel": 0,
      "note": 53,
      "start": 51.1668,
      "duration": 0.1155,
      "velocity": 121,
      "chip": "ym2612"
    },
    {
      "channel": 4,
      "note": 68,
      "start": 51.1671,
      "duration": 0.1155,
      "velocity": 92,
      "chip": "ym2612"
    },
    {
      "channel": 5,
      "note": 59,
      "start": 51.2247,
      "duration": 0.1156,
      "velocity": 92,
      "chip": "ym2612"
    },
    {
      "channel": 0,
      "note": 53,
      "start": 51.2826,
      "duration": 0.1155,
      "velocity": 121,
      "chip": "ym2612"
    },
    {
      "channel": 4,
      "note": 71,
      "start": 51.2829,
      "duration": 0.1177,
      "velocity": 92,
      "chip": "ym2612"
    },
    {
      "channel": 5,
      "note": 68,
      "start": 51.3405,
      "duration": 0.1158,
      "velocity": 92,
      "chip": "ym2612"
    },
    {
      "channel": 0,
      "note": 43,
      "start": 51.4003,
      "duration": 0.1907,
      "velocity": 127,
      "chip": "ym2612"
    },
    {
      "channel": 2,
      "note": 53,
      "start": 51.4005,
      "duration": 0.4633,
      "velocity": 1,
      "chip": "ym2612"
    },
    {
      "channel": 4,
      "note": 74,
      "start": 51.4008,
      "duration": 0.1134,
      "velocity": 92,
      "chip": "ym2612"
    },
    {
      "channel": 5,
      "note": 71,
      "start": 51.4564,
      "duration": 0.1156,
      "velocity": 92,
      "chip": "ym2612"
    },
    {
      "channel": 4,
      "note": 65,
      "start": 51.5145,
      "duration": 0.1159,
      "velocity": 92,
      "chip": "ym2612"
    },
    {
      "channel": 5,
      "note": 74,
      "start": 51.5722,
      "duration": 0.1157,
      "velocity": 92,
      "chip": "ym2612"
    },
    {
      "channel": 0,
      "note": 43,
      "start": 51.6299,
      "duration": 0.0769,
      "velocity": 127,
      "chip": "ym2612"
    },
    {
      "channel": 3,
      "note": 53,
      "start": 51.6303,
      "duration": 0.465,
      "velocity": 1,
      "chip": "ym2612"
    },
    {
      "channel": 4,
      "note": 68,
      "start": 51.6306,
      "duration": 0.1155,
      "velocity": 92,
      "chip": "ym2612"
    },
    {
      "channel": 5,
      "note": 65,
      "start": 51.6881,
      "duration": 0.1155,
      "velocity": 92,
      "chip": "ym2612"
    },
    {
      "channel": 0,
      "note": 43,
      "start": 51.7457,
      "duration": 0.0769,
      "velocity": 127,
      "chip": "ym2612"
    },
    {
      "channel": 4,
      "note": 74,
      "start": 51.7463,
      "duration": 0.1192,
      "velocity": 92,
      "chip": "ym2612"
    },
    {
      "channel": 5,
      "note": 68,
      "start": 51.8039,
      "duration": 0.0637,
      "velocity": 92,
      "chip": "ym2612"
    },
    {
      "channel": 0,
      "note": 41,
      "start": 51.8632,
      "duration": 0.191,
      "velocity": 127,
      "chip": "ym2612"
    },
    {
      "channel": 1,
      "note": 54,
      "start": 51.8634,
      "duration": 0.3451,
      "velocity": 91,
      "chip": "ym2612"
    },
    {
      "channel": 2,
      "note": 65,
      "start": 51.8653,
      "duration": 1.8506,
      "velocity": 109,
      "chip": "ym2612"
    },
    {
      "channel": 4,
      "note": 53,
      "start": 51.8675,
      "duration": 0.2293,
      "velocity": 99,
      "chip": "ym2612"
    },
    {
      "channel": 5,
      "note": 49,
      "start": 51.8698,
      "duration": 0.2273,
      "velocity": 99,
      "chip": "ym2612"
    },
    {
      "channel": 0,
      "note": 66,
      "start": 52.0947,
      "duration": 0.2296,
      "velocity": 127,
      "chip": "ym2612"
    },
    {
      "channel": 3,
      "note": 65,
      "start": 52.0968,
      "duration": 1.8505,
      "velocity": 109,
      "chip": "ym2612"
    },
    {
      "channel": 4,
      "note": 53,
      "start": 52.0971,
      "duration": 0.1119,
      "velocity": 99,
      "chip": "ym2612"
    },
    {
      "channel": 5,
      "note": 49,
      "start": 52.0974,
      "duration": 0.1122,
      "velocity": 99,
      "chip": "ym2612"
    },
    {
      "channel": 1,
      "note": 54,
      "start": 52.2088,
      "duration": 0.3491,
      "velocity": 91,
      "chip": "ym2612"
    },
    {
      "channel": 4,
      "note": 53,
      "start": 52.2095,
      "duration": 0.2309,
      "velocity": 99,
      "chip": "ym2612"
    },
    {
      "channel": 5,
      "note": 49,
      "start": 52.2098,
      "duration": 0.2309,
      "velocity": 99,
      "chip": "ym2612"
    },
    {
      "channel": 0,
      "note": 43,
      "start": 52.3262,
      "duration": 0.191,
      "velocity": 127,
      "chip": "ym2612"
    },
    {
      "channel": 4,
      "note": 53,
      "start": 52.4407,
      "duration": 0.1177,
      "velocity": 99,
      "chip": "ym2612"
    },
    {
      "channel": 5,
      "note": 49,
      "start": 52.441,
      "duration": 0.1177,
      "velocity": 99,
      "chip": "ym2612"
    },
    {
      "channel": 0,
      "note": 53,
      "start": 52.5578,
      "duration": 0.1138,
      "velocity": 121,
      "chip": "ym2612"
    },
    {
      "channel": 1,
      "note": 54,
      "start": 52.5581,
      "duration": 0.4632,
      "velocity": 91,
      "chip": "ym2612"
    },
    {
      "channel": 4,
      "note": 53,
      "start": 52.5586,
      "duration": 0.2292,
      "velocity": 99,
      "chip": "ym2612"
    },
    {
      "channel": 5,
      "note": 49,
      "start": 52.5589,
      "duration": 0.2292,
      "velocity": 99,
      "chip": "ym2612"
    },
    {
      "channel": 0,
      "note": 43,
      "start": 52.6736,
      "duration": 0.191,
      "velocity": 127,
      "chip": "ym2612"
    },
    {
      "channel": 4,
      "note": 53,
      "start": 52.788,
      "duration": 0.2338,
      "velocity": 99,
      "chip": "ym2612"
    },
    {
      "channel": 5,
      "note": 49,
      "start": 52.7883,
      "duration": 0.2338,
      "velocity": 99,
      "chip": "ym2612"
    },
    {
      "channel": 0,
      "note": 53,
      "start": 52.9051,
      "duration": 0.1138,
      "velocity": 121,
      "chip": "ym2612"
    },
    {
      "channel": 0,
      "note": 41,
      "start": 53.0212,
      "duration": 0.1135,
      "velocity": 127,
      "chip": "ym2612"
    },
    {
      "channel": 1,
      "note": 54,
      "start": 53.0215,
      "duration": 0.231,
      "velocity": 91,
      "chip": "ym2612"
    },
    {
      "channel": 4,
      "note": 53,
      "start": 53.022,
      "duration": 0.1149,
      "velocity": 99,
      "chip": "ym2612"
    },
    {
      "channel": 5,
      "note": 49,
      "start": 53.0223,
      "duration": 0.1149,
      "velocity": 99,
      "chip": "ym2612"
    },
    {
      "channel": 0,
      "note": 53,
      "start": 53.1367,
      "duration": 0.1138,
      "velocity": 121,
      "chip": "ym2612"
    },
    {
      "channel": 4,
      "note": 53,
      "start": 53.1372,
      "duration": 0.2295,
      "velocity": 99,
      "chip": "ym2612"
    },
    {
      "channel": 5,
      "note": 49,
      "start": 53.1375,
      "duration": 0.2294,
      "velocity": 99,
      "chip": "ym2612"
    },
    {
      "channel": 0,
      "note": 43,
      "start": 53.2524,
      "duration": 0.191,
      "velocity": 127,
      "chip": "ym2612"
    },
    {
      "channel": 1,
      "note": 54,
      "start": 53.2527,
      "duration": 0.4629,
      "velocity": 91,
      "chip": "ym2612"
    },
    {
      "channel": 4,
      "note": 53,
      "start": 53.3669,
      "duration": 0.1174,
      "velocity": 99,
      "chip": "ym2612"
    },
    {
      "channel": 5,
      "note": 49,
      "start": 53.3671,
      "duration": 0.1174,
      "velocity": 99,
      "chip": "ym2612"
    },
    {
      "channel": 0,
      "note": 66,
      "start": 53.484,
      "duration": 0.2296,
      "velocity": 127,
      "chip": "ym2612"
    },
    {
      "channel": 4,
      "note": 53,
      "start": 53.4845,
      "duration": 0.2318,
      "velocity": 99,
      "chip": "ym2612"
    },
    {
      "channel": 5,
      "note": 49,
      "start": 53.4848,
      "duration": 0.2318,
      "velocity": 99,
      "chip": "ym2612"
    },
    {
      "channel": 0,
      "note": 41,
      "start": 53.7156,
      "duration": 0.2296,
      "velocity": 127,
      "chip": "ym2612"
    },
    {
      "channel": 1,
      "note": 55,
      "start": 53.7159,
      "duration": 0.3451,
      "velocity": 91,
      "chip": "ym2612"
    },
    {
      "channel": 2,
      "note": 70,
      "start": 53.7161,
      "duration": 0.6947,
      "velocity": 109,
      "chip": "ym2612"
    },
    {
      "channel": 4,
      "note": 53,
      "start": 53.7165,
      "duration": 0.231,
      "velocity": 99,
      "chip": "ym2612"
    },
    {
      "channel": 5,
      "note": 49,
      "start": 53.7168,
      "duration": 0.231,
      "velocity": 99,
      "chip": "ym2612"
    },
    {
      "channel": 0,
      "note": 66,
      "start": 53.9471,
      "duration": 0.2296,
      "velocity": 127,
      "chip": "ym2612"
    },
    {
      "channel": 3,
      "note": 70,
      "start": 53.9475,
      "duration": 0.6925,
      "velocity": 109,
      "chip": "ym2612"
    },
    {
      "channel": 4,
      "note": 53,
      "start": 53.9478,
      "duration": 0.1139,
      "velocity": 99,
      "chip": "ym2612"
    },
    {
      "channel": 5,
      "note": 49,
      "start": 53.9481,
      "duration": 0.1139,
      "velocity": 99,
      "chip": "ym2612"
    },
    {
      "channel": 1,
      "note": 55,
      "start": 54.0612,
      "duration": 0.3494,
      "velocity": 91,
      "chip": "ym2612"
    },
    {
      "channel": 4,
      "note": 53,
      "start": 54.0619,
      "duration": 0.231,
      "velocity": 99,
      "chip": "ym2612"
    },
    {
      "channel": 5,
      "note": 49,
      "start": 54.0622,
      "duration": 0.2311,
      "velocity": 99,
      "chip": "ym2612"
    },
    {
      "channel": 0,
      "note": 43,
      "start": 54.1787,
      "duration": 0.191,
      "velocity": 127,
      "chip": "ym2612"
    },
    {
      "channel": 4,
      "note": 53,
      "start": 54.2932,
      "duration": 0.118,
      "velocity": 99,
      "chip": "ym2612"
    },
    {
      "channel": 5,
      "note": 49,
      "start": 54.2935,
      "duration": 0.118,
      "velocity": 99,
      "chip": "ym2612"
    },
    {
      "channel": 0,
      "note": 53,
      "start": 54.4105,
      "duration": 0.1135,
      "velocity": 121,
      "chip": "ym2612"
    },
    {
      "channel": 1,
      "note": 55,
      "start": 54.4108,
      "duration": 0.4626,
      "velocity": 91,
      "chip": "ym2612"
    },
    {
      "channel": 2,
      "note": 65,
      "start": 54.4111,
      "duration": 0.9254,
      "velocity": 109,
      "chip": "ym2612"
    },
    {
      "channel": 4,
      "note": 53,
      "start": 54.4115,
      "duration": 0.2289,
      "velocity": 99,
      "chip": "ym2612"
    },
    {
      "channel": 5,
      "note": 49,
      "start": 54.4117,
      "duration": 0.2289,
      "velocity": 99,
      "chip": "ym2612"
    },
    {
      "channel": 0,
      "note": 43,
      "start": 54.526,
      "duration": 0.191,
      "velocity": 127,
      "chip": "ym2612"
    },
    {
      "channel": 3,
      "note": 65,
      "start": 54.6403,
      "duration": 0.9283,
      "velocity": 109,
      "chip": "ym2612"
    },
    {
      "channel": 4,
      "note": 53,
      "start": 54.6406,
      "duration": 0.2333,
      "velocity": 99,
      "chip": "ym2612"
    },
    {
      "channel": 5,
      "note": 49,
      "start": 54.6408,
      "duration": 0.2333,
      "velocity": 99,
      "chip": "ym2612"
    },
    {
      "channel": 0,
      "note": 53,
      "start": 54.7575,
      "duration": 0.1138,
      "velocity": 121,
      "chip": "ym2612"
    },
    {
      "channel": 0,
      "note": 41,
      "start": 54.8733,
      "duration": 0.1138,
      "velocity": 127,
      "chip": "ym2612"
    },
    {
      "channel": 1,
      "note": 55,
      "start": 54.8736,
      "duration": 0.2313,
      "velocity": 91,
      "chip": "ym2612"
    },
    {
      "channel": 4,
      "note": 53,
      "start": 54.8741,
      "duration": 0.1155,
      "velocity": 99,
      "chip": "ym2612"
    },
    {
      "channel": 5,
      "note": 49,
      "start": 54.8744,
      "duration": 0.1155,
      "velocity": 99,
      "chip": "ym2612"
    },
    {
      "channel": 0,
      "note": 53,
      "start": 54.9891,
      "duration": 0.1138,
      "velocity": 121,
      "chip": "ym2612"
    },
    {
      "channel": 4,
      "note": 53,
      "start": 54.9899,
      "duration": 0.2292,
      "velocity": 99,
      "chip": "ym2612"
    },
    {
      "channel": 5,
      "note": 49,
      "start": 54.9901,
      "duration": 0.2295,
      "velocity": 99,
      "chip": "ym2612"
    },
    {
      "channel": 0,
      "note": 43,
      "start": 55.1049,
      "duration": 0.191,
      "velocity": 127,
      "chip": "ym2612"
    },
    {
      "channel": 1,
      "note": 55,
      "start": 55.1051,
      "duration": 0.4629,
      "velocity": 91,
      "chip": "ym2612"
    },
    {
      "channel": 4,
      "note": 53,
      "start": 55.2195,
      "duration": 0.1175,
      "velocity": 99,
      "chip": "ym2612"
    },
    {
      "channel": 5,
      "note": 49,
      "start": 55.2198,
      "duration": 0.1175,
      "velocity": 99,
      "chip": "ym2612"
    },
    {
      "channel": 0,
      "note": 66,
      "start": 55.3364,
      "duration": 0.2296,
      "velocity": 127,
      "chip": "ym2612"
    },
    {
      "channel": 2,
      "note": 65,
      "start": 55.3367,
      "duration": 0.1135,
      "velocity": 109,
      "chip": "ym2612"
    },
    {
      "channel": 4,
      "note": 53,
      "start": 55.3372,
      "duration": 0.2317,
      "velocity": 99,
      "chip": "ym2612"
    },
    {
      "channel": 5,
      "note": 49,
      "start": 55.3375,
      "duration": 0.2319,
      "velocity": 99,
      "chip": "ym2612"
    },
    {
      "channel": 2,
      "note": 67,
      "start": 55.4505,
      "duration": 0.1178,
      "velocity": 109,
      "chip": "ym2612"
    },
    {
      "channel": 0,
      "note": 41,
      "start": 55.568,
      "duration": 0.2296,
      "velocity": 127,
      "chip": "ym2612"
    },
    {
      "channel": 1,
      "note": 56,
      "start": 55.5683,
      "duration": 0.3451,
      "velocity": 91,
      "chip": "ym2612"
    },
    {
      "channel": 2,
      "note": 68,
      "start": 55.5685,
      "duration": 0.3451,
      "velocity": 109,
      "chip": "ym2612"
    },
    {
      "channel": 3,
      "note": 65,
      "start": 55.5688,
      "duration": 0.1132,
      "velocity": 109,
      "chip": "ym2612"
    },
    {
      "channel": 4,
      "note": 53,
      "start": 55.5691,
      "duration": 0.2311,
      "velocity": 99,
      "chip": "ym2612"
    },
    {
      "channel": 5,
      "note": 48,
      "start": 55.5696,
      "duration": 0.2309,
      "velocity": 99,
      "chip": "ym2612"
    },
    {
      "channel": 3,
      "note": 67,
      "start": 55.6823,
      "duration": 0.1177,
      "velocity": 109,
      "chip": "ym2612"
    },
    {
      "channel": 0,
      "note": 66,
      "start": 55.7998,
      "duration": 0.2293,
      "velocity": 127,
      "chip": "ym2612"
    },
    {
      "channel": 3,
      "note": 68,
      "start": 55.8002,
      "duration": 0.345,
      "velocity": 109,
      "chip": "ym2612"
    },
    {
      "channel": 4,
      "note": 53,
      "start": 55.8005,
      "duration": 0.1136,
      "velocity": 99,
      "chip": "ym2612"
    },
    {
      "channel": 5,
      "note": 48,
      "start": 55.8007,
      "duration": 0.1136,
      "velocity": 99,
      "chip": "ym2612"
    },
    {
      "channel": 1,
      "note": 56,
      "start": 55.9136,
      "duration": 0.3491,
      "velocity": 91,
      "chip": "ym2612"
    },
    {
      "channel": 2,
      "note": 70,
      "start": 55.9139,
      "duration": 0.3491,
      "velocity": 109,
      "chip": "ym2612"
    },
    {
      "channel": 4,
      "note": 53,
      "start": 55.9143,
      "duration": 0.2312,
      "velocity": 99,
      "chip": "ym2612"
    },
    {
      "channel": 5,
      "note": 48,
      "start": 55.9145,
      "duration": 0.2312,
      "velocity": 99,
      "chip": "ym2612"
    },
    {
      "channel": 0,
      "note": 43,
      "start": 56.0313,
      "duration": 0.1907,
      "velocity": 127,
      "chip": "ym2612"
    },
    {
      "channel": 3,
      "note": 70,
      "start": 56.1454,
      "duration": 0.3473,
      "velocity": 109,
      "chip": "ym2612"
    },
    {
      "channel": 4,
      "note": 53,
      "start": 56.1456,
      "duration": 0.1177,
      "velocity": 99,
      "chip": "ym2612"
    },
    {
      "channel": 5,
      "note": 48,
      "start": 56.1459,
      "duration": 0.1177,
      "velocity": 99,
      "chip": "ym2612"
    },
    {
      "channel": 0,
      "note": 53,
      "start": 56.2626,
      "duration": 0.1139,
      "velocity": 121,
      "chip": "ym2612"
    },
    {
      "channel": 1,
      "note": 56,
      "start": 56.2629,
      "duration": 0.4629,
      "velocity": 91,
      "chip": "ym2612"
    },
    {
      "channel": 2,
      "note": 72,
      "start": 56.2632,
      "duration": 0.2292,
      "velocity": 109,
      "chip": "ym2612"
    },
    {
      "channel": 4,
      "note": 53,
      "start": 56.2636,
      "duration": 0.2293,
      "velocity": 99,
      "chip": "ym2612"
    },
    {
      "channel": 5,
      "note": 48,
      "start": 56.2639,
      "duration": 0.2294,
      "velocity": 99,
      "chip": "ym2612"
    },
    {
      "channel": 0,
      "note": 43,
      "start": 56.3784,
      "duration": 0.1911,
      "velocity": 127,
      "chip": "ym2612"
    },
    {
      "channel": 2,
      "note": 67,
      "start": 56.4926,
      "duration": 0.349,
      "velocity": 109,
      "chip": "ym2612"
    },
    {
      "channel": 3,
      "note": 72,
      "start": 56.4929,
      "duration": 0.2333,
      "velocity": 109,
      "chip": "ym2612"
    },
    {
      "channel": 4,
      "note": 53,
      "start": 56.4932,
      "duration": 0.2333,
      "velocity": 99,
      "chip": "ym2612"
    },
    {
      "channel": 5,
      "note": 48,
      "start": 56.4935,
      "duration": 0.2333,
      "velocity": 99,
      "chip": "ym2612"
    },
    {
      "channel": 0,
      "note": 53,
      "start": 56.6102,
      "duration": 0.1135,
      "velocity": 121,
      "chip": "ym2612"
    },
    {
      "channel": 0,
      "note": 41,
      "start": 56.7257,
      "duration": 0.1138,
      "velocity": 127,
      "chip": "ym2612"
    },
    {
      "channel": 1,
      "note": 56,
      "start": 56.726,
      "duration": 0.2313,
      "velocity": 91,
      "chip": "ym2612"
    },
    {
      "channel": 3,
      "note": 67,
      "start": 56.7265,
      "duration": 0.3449,
      "velocity": 109,
      "chip": "ym2612"
    },
    {
      "channel": 4,
      "note": 53,
      "start": 56.7267,
      "duration": 0.1154,
      "velocity": 99,
      "chip": "ym2612"
    },
    {
      "channel": 5,
      "note": 48,
      "start": 56.727,
      "duration": 0.1153,
      "velocity": 99,
      "chip": "ym2612"
    },
    {
      "channel": 0,
      "note": 53,
      "start": 56.8415,
      "duration": 0.1138,
      "velocity": 121,
      "chip": "ym2612"
    },
    {
      "channel": 2,
      "note": 70,
      "start": 56.8418,
      "duration": 0.3471,
      "velocity": 109,
      "chip": "ym2612"
    },
    {
      "channel": 4,
      "note": 53,
      "start": 56.8423,
      "duration": 0.2293,
      "velocity": 99,
      "chip": "ym2612"
    },
    {
      "channel": 5,
      "note": 48,
      "start": 56.8426,
      "duration": 0.2293,
      "velocity": 99,
      "chip": "ym2612"
    },
    {
      "channel": 0,
      "note": 43,
      "start": 56.9573,
      "duration": 0.191,
      "velocity": 127,
      "chip": "ym2612"
    },
    {
      "channel": 1,
      "note": 56,
      "start": 56.9576,
      "duration": 0.4631,
      "velocity": 91,
      "chip": "ym2612"
    },
    {
      "channel": 3,
      "note": 70,
      "start": 57.0716,
      "duration": 0.3497,
      "velocity": 109,
      "chip": "ym2612"
    },
    {
      "channel": 4,
      "note": 53,
      "start": 57.0719,
      "duration": 0.1177,
      "velocity": 99,
      "chip": "ym2612"
    },
    {
      "channel": 5,
      "note": 48,
      "start": 57.0722,
      "duration": 0.1177,
      "velocity": 99,
      "chip": "ym2612"
    },
    {
      "channel": 0,
      "note": 66,
      "start": 57.1888,
      "duration": 0.2296,
      "velocity": 127,
      "chip": "ym2612"
    },
    {
      "channel": 2,
      "note": 72,
      "start": 57.1891,
      "duration": 0.2319,
      "velocity": 109,
      "chip": "ym2612"
    },
    {
      "channel": 4,
      "note": 53,
      "start": 57.1898,
      "duration": 0.2318,
      "velocity": 99,
      "chip": "ym2612"
    },
    {
      "channel": 5,
      "note": 48,
      "start": 57.19,
      "duration": 0.2318,
      "velocity": 99,
      "chip": "ym2612"
    },
    {
      "channel": 0,
      "note": 41,
      "start": 57.4206,
      "duration": 0.2294,
      "velocity": 127,
      "chip": "ym2612"
    },
    {
      "channel": 1,
      "note": 58,
      "start": 57.4209,
      "duration": 0.3449,
      "velocity": 91,
      "chip": "ym2612"
    },
    {
      "channel": 2,
      "note": 73,
      "start": 57.4212,
      "duration": 0.3449,
      "velocity": 109,
      "chip": "ym2612"
    },
    {
      "channel": 3,
      "note": 72,
      "start": 57.4215,
      "duration": 0.2306,
      "velocity": 109,
      "chip": "ym2612"
    },
    {
      "channel": 4,
      "note": 53,
      "start": 57.4218,
      "duration": 0.2306,
      "velocity": 99,
      "chip": "ym2612"
    },
    {
      "channel": 5,
      "note": 49,
      "start": 57.4221,
      "duration": 0.2306,
      "velocity": 99,
      "chip": "ym2612"
    },
    {
      "channel": 0,
      "note": 66,
      "start": 57.6519,
      "duration": 0.2296,
      "velocity": 127,
      "chip": "ym2612"
    },
    {
      "channel": 3,
      "note": 73,
      "start": 57.6523,
      "duration": 0.3452,
      "velocity": 109,
      "chip": "ym2612"
    },
    {
      "channel": 4,
      "note": 53,
      "start": 57.6526,
      "duration": 0.1138,
      "velocity": 99,
      "chip": "ym2612"
    },
    {
      "channel": 5,
      "note": 49,
      "start": 57.6529,
      "duration": 0.1138,
      "velocity": 99,
      "chip": "ym2612"
    },
    {
      "channel": 1,
      "note": 58,
      "start": 57.766,
      "duration": 0.3491,
      "velocity": 91,
      "chip": "ym2612"
    },
    {
      "channel": 2,
      "note": 72,
      "start": 57.7663,
      "duration": 0.3491,
      "velocity": 109,
      "chip": "ym2612"
    },
    {
      "channel": 4,
      "note": 53,
      "start": 57.7667,
      "duration": 0.2312,
      "velocity": 99,
      "chip": "ym2612"
    },
    {
      "channel": 5,
      "note": 49,
      "start": 57.767,
      "duration": 0.2312,
      "velocity": 99,
      "chip": "ym2612"
    },
    {
      "channel": 0,
      "note": 43,
      "start": 57.8835,
      "duration": 0.191,
      "velocity": 127,
      "chip": "ym2612"
    },
    {
      "channel": 3,
      "note": 72,
      "start": 57.9978,
      "duration": 0.3473,
      "velocity": 109,
      "chip": "ym2612"
    },
    {
      "channel": 4,
      "note": 53,
      "start": 57.9981,
      "duration": 0.1177,
      "velocity": 99,
      "chip": "ym2612"
    },
    {
      "channel": 5,
      "note": 49,
      "start": 57.9984,
      "duration": 0.1177,
      "velocity": 99,
      "chip": "ym2612"
    },
    {
      "channel": 0,
      "note": 53,
      "start": 58.115,
      "duration": 0.1138,
      "velocity": 121,
      "chip": "ym2612"
    },
    {
      "channel": 1,
      "note": 58,
      "start": 58.1153,
      "duration": 0.4629,
      "velocity": 91,
      "chip": "ym2612"
    },
    {
      "channel": 2,
      "note": 70,
      "start": 58.1156,
      "duration": 0.2292,
      "velocity": 109,
      "chip": "ym2612"
    },
    {
      "channel": 4,
      "note": 53,
      "start": 58.116,
      "duration": 0.2293,
      "velocity": 99,
      "chip": "ym2612"
    },
    {
      "channel": 5,
      "note": 49,
      "start": 58.1163,
      "duration": 0.2293,
      "velocity": 99,
      "chip": "ym2612"
    },
    {
      "channel": 0,
      "note": 43,
      "start": 58.2311,
      "duration": 0.1908,
      "velocity": 127,
      "chip": "ym2612"
    },
    {
      "channel": 2,
      "note": 65,
      "start": 58.345,
      "duration": 0.6965,
      "velocity": 109,
      "chip": "ym2612"
    },
    {
      "channel": 3,
      "note": 70,
      "start": 58.3453,
      "duration": 0.2333,
      "velocity": 109,
      "chip": "ym2612"
    },
    {
      "channel": 4,
      "note": 53,
      "start": 58.3456,
      "duration": 0.2333,
      "velocity": 99,
      "chip": "ym2612"
    },
    {
      "channel": 5,
      "note": 49,
      "start": 58.3459,
      "duration": 0.2336,
      "velocity": 99,
      "chip": "ym2612"
    },
    {
      "channel": 0,
      "note": 53,
      "start": 58.4624,
      "duration": 0.1138,
      "velocity": 121,
      "chip": "ym2612"
    },
    {
      "channel": 0,
      "note": 41,
      "start": 58.5781,
      "duration": 0.1138,
      "velocity": 127,
      "chip": "ym2612"
    },
    {
      "channel": 1,
      "note": 58,
      "start": 58.5784,
      "duration": 0.2316,
      "velocity": 91,
      "chip": "ym2612"
    },
    {
      "channel": 3,
      "note": 65,
      "start": 58.5788,
      "duration": 0.6946,
      "velocity": 109,
      "chip": "ym2612"
    },
    {
      "channel": 4,
      "note": 53,
      "start": 58.5791,
      "duration": 0.1151,
      "velocity": 99,
      "chip": "ym2612"
    },
    {
      "channel": 5,
      "note": 49,
      "start": 58.5797,
      "duration": 0.1149,
      "velocity": 99,
      "chip": "ym2612"
    },
    {
      "channel": 0,
      "note": 53,
      "start": 58.694,
      "duration": 0.1138,
      "velocity": 121,
      "chip": "ym2612"
    },
    {
      "channel": 4,
      "note": 53,
      "start": 58.6945,
      "duration": 0.2296,
      "velocity": 99,
      "chip": "ym2612"
    },
    {
      "channel": 5,
      "note": 49,
      "start": 58.6948,
      "duration": 0.2296,
      "velocity": 99,
      "chip": "ym2612"
    },
    {
      "channel": 0,
      "note": 43,
      "start": 58.81,
      "duration": 0.0749,
      "velocity": 127,
      "chip": "ym2612"
    },
    {
      "channel": 1,
      "note": 58,
      "start": 58.8103,
      "duration": 0.4626,
      "velocity": 91,
      "chip": "ym2612"
    },
    {
      "channel": 0,
      "note": 43,
      "start": 58.9238,
      "duration": 0.0769,
      "velocity": 127,
      "chip": "ym2612"
    },
    {
      "channel": 4,
      "note": 53,
      "start": 58.9243,
      "duration": 0.1176,
      "velocity": 99,
      "chip": "ym2612"
    },
    {
      "channel": 5,
      "note": 49,
      "start": 58.9246,
      "duration": 0.1176,
      "velocity": 99,
      "chip": "ym2612"
    },
    {
      "channel": 0,
      "note": 36,
      "start": 59.0415,
      "duration": 0.2101,
      "velocity": 91,
      "chip": "ym2612"
    },
    {
      "channel": 2,
      "note": 65,
      "start": 59.0417,
      "duration": 0.2314,
      "velocity": 109,
      "chip": "ym2612"
    },
    {
      "channel": 4,
      "note": 53,
      "start": 59.0421,
      "duration": 0.2316,
      "velocity": 99,
      "chip": "ym2612"
    },
    {
      "channel": 5,
      "note": 49,
      "start": 59.0424,
      "duration": 0.2316,
      "velocity": 99,
      "chip": "ym2612"
    },
    {
      "channel": 0,
      "note": 41,
      "start": 59.2728,
      "duration": 0.2103,
      "velocity": 127,
      "chip": "ym2612"
    },
    {
      "channel": 1,
      "note": 60,
      "start": 59.2731,
      "duration": 0.3451,
      "velocity": 91,
      "chip": "ym2612"
    },
    {
      "channel": 2,
      "note": 67,
      "start": 59.2734,
      "duration": 3.7046,
      "velocity": 109,
      "chip": "ym2612"
    },
    {
      "channel": 3,
      "note": 65,
      "start": 59.2737,
      "duration": 0.231,
      "velocity": 109,
      "chip": "ym2612"
    },
    {
      "channel": 4,
      "note": 53,
      "start": 59.2739,
      "duration": 0.231,
      "velocity": 99,
      "chip": "ym2612"
    },
    {
      "channel": 5,
      "note": 48,
      "start": 59.2742,
      "duration": 0.231,
      "velocity": 99,
      "chip": "ym2612"
    },
    {
      "channel": 0,
      "note": 66,
      "start": 59.5044,
      "duration": 0.2296,
      "velocity": 127,
      "chip": "ym2612"
    },
    {
      "channel": 3,
      "note": 67,
      "start": 59.5049,
      "duration": 3.7047,
      "velocity": 109,
      "chip": "ym2612"
    },
    {
      "channel": 4,
      "note": 53,
      "start": 59.5052,
      "duration": 0.1135,
      "velocity": 99,
      "chip": "ym2612"
    },
    {
      "channel": 5,
      "note": 48,
      "start": 59.5055,
      "duration": 0.1135,
      "velocity": 99,
      "chip": "ym2612"
    },
    {
      "channel": 1,
      "note": 60,
      "start": 59.6184,
      "duration": 0.3491,
      "velocity": 91,
      "chip": "ym2612"
    },
    {
      "channel": 4,
      "note": 53,
      "start": 59.6189,
      "duration": 0.2312,
      "velocity": 99,
      "chip": "ym2612"
    },
    {
      "channel": 5,
      "note": 48,
      "start": 59.6195,
      "duration": 0.2309,
      "velocity": 99,
      "chip": "ym2612"
    },
    {
      "channel": 0,
      "note": 43,
      "start": 59.7359,
      "duration": 0.191,
      "velocity": 127,
      "chip": "ym2612"
    },
    {
      "channel": 4,
      "note": 53,
      "start": 59.8503,
      "duration": 0.1177,
      "velocity": 99,
      "chip": "ym2612"
    },
    {
      "channel": 5,
      "note": 48,
      "start": 59.8506,
      "duration": 0.1177,
      "velocity": 99,
      "chip": "ym2612"
    },
    {
      "channel": 0,
      "note": 53,
      "start": 59.9675,
      "duration": 0.1138,
      "velocity": 121,
      "chip": "ym2612"
    },
    {
      "channel": 1,
      "note": 60,
      "start": 59.9677,
      "duration": 0.4631,
      "velocity": 91,
      "chip": "ym2612"
    },
    {
      "channel": 4,
      "note": 53,
      "start": 59.9683,
      "duration": 0.2292,
      "velocity": 99,
      "chip": "ym2612"
    },
    {
      "channel": 5,
      "note": 48,
      "start": 59.9685,
      "duration": 0.2292,
      "velocity": 99,
      "chip": "ym2612"
    },
    {
      "channel": 0,
      "note": 43,
      "start": 60.0832,
      "duration": 0.191,
      "velocity": 127,
      "chip": "ym2612"
    },
    {
      "channel": 4,
      "note": 53,
      "start": 60.1976,
      "duration": 0.2337,
      "velocity": 99,
      "chip": "ym2612"
    },
    {
      "channel": 5,
      "note": 48,
      "start": 60.1979,
      "duration": 0.2338,
      "velocity": 99,
      "chip": "ym2612"
    },
    {
      "channel": 0,
      "note": 53,
      "start": 60.3148,
      "duration": 0.1138,
      "velocity": 121,
      "chip": "ym2612"
    },
    {
      "channel": 0,
      "note": 41,
      "start": 60.4308,
      "duration": 0.1136,
      "velocity": 127,
      "chip": "ym2612"
    },
    {
      "channel": 1,
      "note": 60,
      "start": 60.4311,
      "duration": 0.2311,
      "velocity": 91,
      "chip": "ym2612"
    },
    {
      "channel": 4,
      "note": 53,
      "start": 60.4316,
      "duration": 0.115,
      "velocity": 99,
      "chip": "ym2612"
    },
    {
      "channel": 5,
      "note": 48,
      "start": 60.4319,
      "duration": 0.115,
      "velocity": 99,
      "chip": "ym2612"
    },
    {
      "channel": 0,
      "note": 53,
      "start": 60.5463,
      "duration": 0.1138,
      "velocity": 121,
      "chip": "ym2612"
    },
    {
      "channel": 4,
      "note": 53,
      "start": 60.5468,
      "duration": 0.2294,
      "velocity": 99,
      "chip": "ym2612"
    },
    {
      "channel": 5,
      "note": 48,
      "start": 60.5471,
      "duration": 0.2295,
      "velocity": 99,
      "chip": "ym2612"
    },
    {
      "channel": 0,
      "note": 43,
      "start": 60.6621,
      "duration": 0.191,
      "velocity": 127,
      "chip": "ym2612"
    },
    {
      "channel": 1,
      "note": 60,
      "start": 60.6624,
      "duration": 0.4629,
      "velocity": 91,
      "chip": "ym2612"
    },
    {
      "channel": 4,
      "note": 53,
      "start": 60.7766,
      "duration": 0.1174,
      "velocity": 99,
      "chip": "ym2612"
    },
    {
      "channel": 5,
      "note": 48,
      "start": 60.7768,
      "duration": 0.1174,
      "velocity": 99,
      "chip": "ym2612"
    },
    {
      "channel": 0,
      "note": 66,
      "start": 60.8937,
      "duration": 0.2296,
      "velocity": 127,
      "chip": "ym2612"
    },
    {
      "channel": 4,
      "note": 53,
      "start": 60.8942,
      "duration": 0.2316,
      "velocity": 99,
      "chip": "ym2612"
    },
    {
      "channel": 5,
      "note": 48,
      "start": 60.8945,
      "duration": 0.2316,
      "velocity": 99,
      "chip": "ym2612"
    },
    {
      "channel": 0,
      "note": 41,
      "start": 61.1252,
      "duration": 0.2296,
      "velocity": 127,
      "chip": "ym2612"
    },
    {
      "channel": 1,
      "note": 60,
      "start": 61.1255,
      "duration": 0.3451,
      "velocity": 91,
      "chip": "ym2612"
    },
    {
      "channel": 4,
      "note": 53,
      "start": 61.126,
      "duration": 0.231,
      "velocity": 99,
      "chip": "ym2612"
    },
    {
      "channel": 5,
      "note": 48,
      "start": 61.1263,
      "duration": 0.231,
      "velocity": 99,
      "chip": "ym2612"
    },
    {
      "channel": 0,
      "note": 66,
      "start": 61.3568,
      "duration": 0.2296,
      "velocity": 127,
      "chip": "ym2612"
    },
    {
      "channel": 4,
      "note": 53,
      "start": 61.3573,
      "duration": 0.1138,
      "velocity": 99,
      "chip": "ym2612"
    },
    {
      "channel": 5,
      "note": 48,
      "start": 61.3576,
      "duration": 0.1138,
      "velocity": 99,
      "chip": "ym2612"
    },
    {
      "channel": 1,
      "note": 60,
      "start": 61.4708,
      "duration": 0.3493,
      "velocity": 91,
      "chip": "ym2612"
    },
    {
      "channel": 4,
      "note": 53,
      "start": 61.4713,
      "duration": 0.2312,
      "velocity": 99,
      "chip": "ym2612"
    },
    {
      "channel": 5,
      "note": 48,
      "start": 61.4716,
      "duration": 0.2312,
      "velocity": 99,
      "chip": "ym2612"
    },
    {
      "channel": 0,
      "note": 43,
      "start": 61.5883,
      "duration": 0.1912,
      "velocity": 127,
      "chip": "ym2612"
    },
    {
      "channel": 4,
      "note": 53,
      "start": 61.7027,
      "duration": 0.118,
      "velocity": 99,
      "chip": "ym2612"
    },
    {
      "channel": 5,
      "note": 48,
      "start": 61.703,
      "duration": 0.118,
      "velocity": 99,
      "chip": "ym2612"
    },
    {
      "channel": 0,
      "note": 53,
      "start": 61.8201,
      "duration": 0.1136,
      "velocity": 121,
      "chip": "ym2612"
    },
    {
      "channel": 1,
      "note": 60,
      "start": 61.8204,
      "duration": 0.4626,
      "velocity": 91,
      "chip": "ym2612"
    },
    {
      "channel": 4,
      "note": 53,
      "start": 61.8209,
      "duration": 0.2289,
      "velocity": 99,
      "chip": "ym2612"
    },
    {
      "channel": 5,
      "note": 48,
      "start": 61.8212,
      "duration": 0.2289,
      "velocity": 99,
      "chip": "ym2612"
    },
    {
      "channel": 0,
      "note": 43,
      "start": 61.9356,
      "duration": 0.191,
      "velocity": 127,
      "chip": "ym2612"
    },
    {
      "channel": 4,
      "note": 53,
      "start": 62.0501,
      "duration": 0.2335,
      "velocity": 99,
      "chip": "ym2612"
    },
    {
      "channel": 5,
      "note": 48,
      "start": 62.0504,
      "duration": 0.2335,
      "velocity": 99,
      "chip": "ym2612"
    },
    {
      "channel": 0,
      "note": 53,
      "start": 62.1672,
      "duration": 0.1138,
      "velocity": 121,
      "chip": "ym2612"
    },
    {
      "channel": 0,
      "note": 41,
      "start": 62.283,
      "duration": 0.1138,
      "velocity": 127,
      "chip": "ym2612"
    },
    {
      "channel": 1,
      "note": 60,
      "start": 62.2833,
      "duration": 0.2313,
      "velocity": 91,
      "chip": "ym2612"
    },
    {
      "channel": 4,
      "note": 53,
      "start": 62.2838,
      "duration": 0.1153,
      "velocity": 99,
      "chip": "ym2612"
    },
    {
      "channel": 5,
      "note": 48,
      "start": 62.2841,
      "duration": 0.1155,
      "velocity": 99,
      "chip": "ym2612"
    },
    {
      "channel": 0,
      "note": 53,
      "start": 62.3988,
      "duration": 0.1138,
      "velocity": 121,
      "chip": "ym2612"
    },
    {
      "channel": 4,
      "note": 53,
      "start": 62.3995,
      "duration": 0.2292,
      "velocity": 99,
      "chip": "ym2612"
    },
    {
      "channel": 5,
      "note": 48,
      "start": 62.3998,
      "duration": 0.2292,
      "velocity": 99,
      "chip": "ym2612"
    },
    {
      "channel": 0,
      "note": 43,
      "start": 62.5145,
      "duration": 0.191,
      "velocity": 127,
      "chip": "ym2612"
    },
    {
      "channel": 1,
      "note": 60,
      "start": 62.5148,
      "duration": 0.4629,
      "velocity": 91,
      "chip": "ym2612"
    },
    {
      "channel": 4,
      "note": 53,
      "start": 62.6289,
      "duration": 0.1174,
      "velocity": 99,
      "chip": "ym2612"
    },
    {
      "channel": 5,
      "note": 48,
      "start": 62.6295,
      "duration": 0.1172,
      "velocity": 99,
      "chip": "ym2612"
    },
    {
      "channel": 0,
      "note": 66,
      "start": 62.7461,
      "duration": 0.2296,
      "velocity": 127,
      "chip": "ym2612"
    },
    {
      "channel": 4,
      "note": 53,
      "start": 62.7466,
      "duration": 0.2318,
      "velocity": 99,
      "chip": "ym2612"
    },
    {
      "channel": 5,
      "note": 48,
      "start": 62.7469,
      "duration": 0.2318,
      "velocity": 99,
      "chip": "ym2612"
    },
    {
      "channel": 0,
      "note": 41,
      "start": 62.9777,
      "duration": 0.2295,
      "velocity": 127,
      "chip": "ym2612"
    },
    {
      "channel": 1,
      "note": 48,
      "start": 62.978,
      "duration": 0.3451,
      "velocity": 91,
      "chip": "ym2612"
    },
    {
      "channel": 2,
      "note": 67,
      "start": 62.9783,
      "duration": 3.7064,
      "velocity": 109,
      "chip": "ym2612"
    },
    {
      "channel": 4,
      "note": 52,
      "start": 62.9786,
      "duration": 0.2312,
      "velocity": 99,
      "chip": "ym2612"
    },
    {
      "channel": 5,
      "note": 48,
      "start": 62.9789,
      "duration": 0.2312,
      "velocity": 99,
      "chip": "ym2612"
    },
    {
      "channel": 0,
      "note": 66,
      "start": 63.2094,
      "duration": 0.2294,
      "velocity": 127,
      "chip": "ym2612"
    },
    {
      "channel": 3,
      "note": 67,
      "start": 63.2098,
      "duration": 3.4769,
      "velocity": 109,
      "chip": "ym2612"
    },
    {
      "channel": 4,
      "note": 52,
      "start": 63.2101,
      "duration": 0.1134,
      "velocity": 99,
      "chip": "ym2612"
    },
    {
      "channel": 5,
      "note": 48,
      "start": 63.2104,
      "duration": 0.1134,
      "velocity": 99,
      "chip": "ym2612"
    },
    {
      "channel": 1,
      "note": 48,
      "start": 63.3232,
      "duration": 0.3491,
      "velocity": 91,
      "chip": "ym2612"
    },
    {
      "channel": 4,
      "note": 52,
      "start": 63.3238,
      "duration": 0.2312,
      "velocity": 99,
      "chip": "ym2612"
    },
    {
      "channel": 5,
      "note": 48,
      "start": 63.324,
      "duration": 0.2312,
      "velocity": 99,
      "chip": "ym2612"
    },
    {
      "channel": 0,
      "note": 43,
      "start": 63.441,
      "duration": 0.1907,
      "velocity": 127,
      "chip": "ym2612"
    },
    {
      "channel": 4,
      "note": 52,
      "start": 63.5551,
      "duration": 0.1177,
      "velocity": 99,
      "chip": "ym2612"
    },
    {
      "channel": 5,
      "note": 48,
      "start": 63.5554,
      "duration": 0.1177,
      "velocity": 99,
      "chip": "ym2612"
    },
    {
      "channel": 0,
      "note": 53,
      "start": 63.6723,
      "duration": 0.1138,
      "velocity": 121,
      "chip": "ym2612"
    },
    {
      "channel": 1,
      "note": 48,
      "start": 63.6726,
      "duration": 0.4629,
      "velocity": 91,
      "chip": "ym2612"
    },
    {
      "channel": 4,
      "note": 52,
      "start": 63.6731,
      "duration": 0.2292,
      "velocity": 99,
      "chip": "ym2612"
    },
    {
      "channel": 5,
      "note": 48,
      "start": 63.6734,
      "duration": 0.2292,
      "velocity": 99,
      "chip": "ym2612"
    },
    {
      "channel": 0,
      "note": 43,
      "start": 63.7881,
      "duration": 0.191,
      "velocity": 127,
      "chip": "ym2612"
    },
    {
      "channel": 4,
      "note": 52,
      "start": 63.9025,
      "duration": 0.2335,
      "velocity": 99,
      "chip": "ym2612"
    },
    {
      "channel": 5,
      "note": 48,
      "start": 63.9028,
      "duration": 0.2335,
      "velocity": 99,
      "chip": "ym2612"
    },
    {
      "channel": 0,
      "note": 53,
      "start": 64.02,
      "duration": 0.1134,
      "velocity": 121,
      "chip": "ym2612"
    },
    {
      "channel": 0,
      "note": 41,
      "start": 64.1354,
      "duration": 0.1141,
      "velocity": 127,
      "chip": "ym2612"
    },
    {
      "channel": 1,
      "note": 48,
      "start": 64.1357,
      "duration": 0.2313,
      "velocity": 91,
      "chip": "ym2612"
    },
    {
      "channel": 4,
      "note": 52,
      "start": 64.1362,
      "duration": 0.1155,
      "velocity": 99,
      "chip": "ym2612"
    },
    {
      "channel": 5,
      "note": 48,
      "start": 64.1365,
      "duration": 0.1155,
      "velocity": 99,
      "chip": "ym2612"
    },
    {
      "channel": 0,
      "note": 53,
      "start": 64.2514,
      "duration": 0.1136,
      "velocity": 121,
      "chip": "ym2612"
    },
    {
      "channel": 4,
      "note": 52,
      "start": 64.252,
      "duration": 0.2292,
      "velocity": 99,
      "chip": "ym2612"
    },
    {
      "channel": 5,
      "note": 48,
      "start": 64.2522,
      "duration": 0.2292,
      "velocity": 99,
      "chip": "ym2612"
    },
    {
      "channel": 0,
      "note": 43,
      "start": 64.367,
      "duration": 0.191,
      "velocity": 127,
      "chip": "ym2612"
    },
    {
      "channel": 1,
      "note": 48,
      "start": 64.3672,
      "duration": 0.4631,
      "velocity": 91,
      "chip": "ym2612"
    },
    {
      "channel": 4,
      "note": 52,
      "start": 64.4814,
      "duration": 0.1174,
      "velocity": 99,
      "chip": "ym2612"
    },
    {
      "channel": 5,
      "note": 48,
      "start": 64.4817,
      "duration": 0.1174,
      "velocity": 99,
      "chip": "ym2612"
    },
    {
      "channel": 0,
      "note": 66,
      "start": 64.5985,
      "duration": 0.2296,
      "velocity": 127,
      "chip": "ym2612"
    },
    {
      "channel": 4,
      "note": 52,
      "start": 64.599,
      "duration": 0.2319,
      "velocity": 99,
      "chip": "ym2612"
    },
    {
      "channel": 5,
      "note": 48,
      "start": 64.5995,
      "duration": 0.2316,
      "velocity": 99,
      "chip": "ym2612"
    },
    {
      "channel": 0,
      "note": 41,
      "start": 64.8303,
      "duration": 0.2293,
      "velocity": 127,
      "chip": "ym2612"
    },
    {
      "channel": 1,
      "note": 48,
      "start": 64.8306,
      "duration": 0.3449,
      "velocity": 91,
      "chip": "ym2612"
    },
    {
      "channel": 4,
      "note": 52,
      "start": 64.8311,
      "duration": 0.2308,
      "velocity": 99,
      "chip": "ym2612"
    },
    {
      "channel": 5,
      "note": 48,
      "start": 64.8314,
      "duration": 0.2308,
      "velocity": 99,
      "chip": "ym2612"
    },
    {
      "channel": 0,
      "note": 66,
      "start": 65.0616,
      "duration": 0.2296,
      "velocity": 127,
      "chip": "ym2612"
    },
    {
      "channel": 4,
      "note": 52,
      "start": 65.0622,
      "duration": 0.1138,
      "velocity": 99,
      "chip": "ym2612"
    },
    {
      "channel": 5,
      "note": 48,
      "start": 65.0624,
      "duration": 0.1138,
      "velocity": 99,
      "chip": "ym2612"
    },
    {
      "channel": 1,
      "note": 48,
      "start": 65.1757,
      "duration": 0.3491,
      "velocity": 91,
      "chip": "ym2612"
    },
    {
      "channel": 4,
      "note": 52,
      "start": 65.1762,
      "duration": 0.2312,
      "velocity": 99,
      "chip": "ym2612"
    },
    {
      "channel": 5,
      "note": 48,
      "start": 65.1765,
      "duration": 0.2311,
      "velocity": 99,
      "chip": "ym2612"
    },
    {
      "channel": 0,
      "note": 43,
      "start": 65.2932,
      "duration": 0.191,
      "velocity": 127,
      "chip": "ym2612"
    },
    {
      "channel": 4,
      "note": 52,
      "start": 65.4076,
      "duration": 0.1177,
      "velocity": 99,
      "chip": "ym2612"
    },
    {
      "channel": 5,
      "note": 48,
      "start": 65.4079,
      "duration": 0.1177,
      "velocity": 99,
      "chip": "ym2612"
    },
    {
      "channel": 0,
      "note": 53,
      "start": 65.5247,
      "duration": 0.1138,
      "velocity": 121,
      "chip": "ym2612"
    },
    {
      "channel": 1,
      "note": 48,
      "start": 65.525,
      "duration": 0.4629,
      "velocity": 91,
      "chip": "ym2612"
    },
    {
      "channel": 4,
      "note": 52,
      "start": 65.5255,
      "duration": 0.2292,
      "velocity": 99,
      "chip": "ym2612"
    },
    {
      "channel": 5,
      "note": 48,
      "start": 65.5258,
      "duration": 0.2292,
      "velocity": 99,
      "chip": "ym2612"
    },
    {
      "channel": 0,
      "note": 43,
      "start": 65.6407,
      "duration": 0.1908,
      "velocity": 127,
      "chip": "ym2612"
    },
    {
      "channel": 4,
      "note": 52,
      "start": 65.7549,
      "duration": 0.2335,
      "velocity": 99,
      "chip": "ym2612"
    },
    {
      "channel": 5,
      "note": 48,
      "start": 65.7552,
      "duration": 0.2335,
      "velocity": 99,
      "chip": "ym2612"
    },
    {
      "channel": 0,
      "note": 53,
      "start": 65.872,
      "duration": 0.1138,
      "velocity": 121,
      "chip": "ym2612"
    },
    {
      "channel": 0,
      "note": 41,
      "start": 65.9878,
      "duration": 0.1138,
      "velocity": 127,
      "chip": "ym2612"
    },
    {
      "channel": 1,
      "note": 48,
      "start": 65.9881,
      "duration": 0.2316,
      "velocity": 91,
      "chip": "ym2612"
    },
    {
      "channel": 4,
      "note": 52,
      "start": 65.9886,
      "duration": 0.1153,
      "velocity": 99,
      "chip": "ym2612"
    },
    {
      "channel": 5,
      "note": 48,
      "start": 65.9889,
      "duration": 0.1153,
      "velocity": 99,
      "chip": "ym2612"
    },
    {
      "channel": 0,
      "note": 53,
      "start": 66.1036,
      "duration": 0.1138,
      "velocity": 121,
      "chip": "ym2612"
    },
    {
      "channel": 4,
      "note": 52,
      "start": 66.1041,
      "duration": 0.2297,
      "velocity": 99,
      "chip": "ym2612"
    },
    {
      "channel": 5,
      "note": 48,
      "start": 66.1044,
      "duration": 0.2297,
      "velocity": 99,
      "chip": "ym2612"
    },
    {
      "channel": 0,
      "note": 43,
      "start": 66.2196,
      "duration": 0.075,
      "velocity": 127,
      "chip": "ym2612"
    },
    {
      "channel": 1,
      "note": 48,
      "start": 66.2199,
      "duration": 0.4627,
      "velocity": 91,
      "chip": "ym2612"
    },
    {
      "channel": 0,
      "note": 43,
      "start": 66.3335,
      "duration": 0.0769,
      "velocity": 127,
      "chip": "ym2612"
    },
    {
      "channel": 4,
      "note": 52,
      "start": 66.334,
      "duration": 0.1175,
      "velocity": 99,
      "chip": "ym2612"
    },
    {
      "channel": 5,
      "note": 48,
      "start": 66.3343,
      "duration": 0.1175,
      "velocity": 99,
      "chip": "ym2612"
    },
    {
      "channel": 0,
      "note": 36,
      "start": 66.4512,
      "duration": 0.21,
      "velocity": 91,
      "chip": "ym2612"
    },
    {
      "channel": 4,
      "note": 52,
      "start": 66.4517,
      "duration": 0.2372,
      "velocity": 99,
      "chip": "ym2612"
    },
    {
      "channel": 5,
      "note": 48,
      "start": 66.452,
      "duration": 0.2393,
      "velocity": 99,
      "chip": "ym2612"
    },
    {
      "channel": 0,
      "note": 41,
      "start": 66.6825,
      "duration": 0.1138,
      "velocity": 127,
      "chip": "ym2612"
    },
    {
      "channel": 1,
      "note": 53,
      "start": 66.6846,
      "duration": 0.1117,
      "velocity": 91,
      "chip": "ym2612"
    },
    {
      "channel": 2,
      "note": 77,
      "start": 66.6867,
      "duration": 0.0711,
      "velocity": 97,
      "chip": "ym2612"
    },
    {
      "channel": 3,
      "note": 60,
      "start": 66.6888,
      "duration": 0.1075,
      "velocity": 99,
      "chip": "ym2612"
    },
    {
      "channel": 4,
      "note": 65,
      "start": 66.6912,
      "duration": 0.1051,
      "velocity": 106,
      "chip": "ym2612"
    },
    {
      "channel": 2,
      "note": 77,
      "start": 66.7582,
      "duration": 0.0381,
      "velocity": 97,
      "chip": "ym2612"
    }
  ]
}