{
  "track_name": "11 - Future Stage Theme 3",
  "duration_sec": 60.6,
  "sample_rate": 44100,
  "note_count": 769,
  "unique_pitches": 36,
  "pitch_range": 74,
  "avg_note_duration": 0.371,
  "reconstruction_stats": {
    "notes_reconstructed": 769,
    "keyon_events": 769,
    "keyoff_events": 755,
    "orphan_keyons": 4,
    "unique_pitches": 36,
    "pitch_range": 74,
    "avg_duration_sec": 0.371
  },
  "metadata": {
    "source": "T\\The Second Samurai\\11 - Future Stage Theme 3.vgz"
  },
  "notes": [
    {
      "channel": 1,
      "note": 57,
      "start": 0.0,
      "duration": 0.2388,
      "velocity": 127,
      "chip": "ym2612"
    },
    {
      "channel": 4,
      "note": 96,
      "start": 0.0023,
      "duration": 0.2393,
      "velocity": 107,
      "chip": "ym2612"
    },
    {
      "channel": 3,
      "note": -1,
      "start": 0.0781,
      "duration": 0.0773,
      "velocity": 106,
      "chip": "ym2612"
    },
    {
      "channel": 3,
      "note": 45,
      "start": 0.1556,
      "duration": 0.0838,
      "velocity": 106,
      "chip": "ym2612"
    },
    {
      "channel": 1,
      "note": 57,
      "start": 0.239,
      "duration": 0.4219,
      "velocity": 127,
      "chip": "ym2612"
    },
    {
      "channel": 3,
      "note": 57,
      "start": 0.2396,
      "duration": 0.4235,
      "velocity": 106,
      "chip": "ym2612"
    },
    {
      "channel": 4,
      "note": 96,
      "start": 0.2418,
      "duration": 0.2398,
      "velocity": 107,
      "chip": "ym2612"
    },
    {
      "channel": 4,
      "note": 96,
      "start": 0.4817,
      "duration": 0.2826,
      "velocity": 107,
      "chip": "ym2612"
    },
    {
      "channel": 1,
      "note": 55,
      "start": 0.6611,
      "duration": 0.2999,
      "velocity": 127,
      "chip": "ym2612"
    },
    {
      "channel": 3,
      "note": 57,
      "start": 0.6633,
      "duration": 0.2999,
      "velocity": 106,
      "chip": "ym2612"
    },
    {
      "channel": 4,
      "note": 96,
      "start": 0.7646,
      "duration": 0.2781,
      "velocity": 107,
      "chip": "ym2612"
    },
    {
      "channel": 1,
      "note": 52,
      "start": 0.9611,
      "duration": 0.0777,
      "velocity": 127,
      "chip": "ym2612"
    },
    {
      "channel": 3,
      "note": 45,
      "start": 0.9633,
      "duration": 0.2401,
      "velocity": 106,
      "chip": "ym2612"
    },
    {
      "channel": 1,
      "note": 55,
      "start": 1.0389,
      "duration": 0.2402,
      "velocity": 127,
      "chip": "ym2612"
    },
    {
      "channel": 4,
      "note": 96,
      "start": 1.0428,
      "duration": 0.2391,
      "velocity": 107,
      "chip": "ym2612"
    },
    {
      "channel": 3,
      "note": 57,
      "start": 1.2037,
      "duration": 0.076,
      "velocity": 106,
      "chip": "ym2612"
    },
    {
      "channel": 1,
      "note": 55,
      "start": 1.2792,
      "duration": 0.2403,
      "velocity": 127,
      "chip": "ym2612"
    },
    {
      "channel": 3,
      "note": 45,
      "start": 1.2799,
      "duration": 0.4222,
      "velocity": 106,
      "chip": "ym2612"
    },
    {
      "channel": 4,
      "note": 96,
      "start": 1.282,
      "duration": 0.2397,
      "velocity": 107,
      "chip": "ym2612"
    },
    {
      "channel": 1,
      "note": 56,
      "start": 1.5197,
      "duration": 0.2808,
      "velocity": 127,
      "chip": "ym2612"
    },
    {
      "channel": 4,
      "note": 96,
      "start": 1.5219,
      "duration": 0.2813,
      "velocity": 107,
      "chip": "ym2612"
    },
    {
      "channel": 3,
      "note": 57,
      "start": 1.7023,
      "duration": 0.0988,
      "velocity": 106,
      "chip": "ym2612"
    },
    {
      "channel": 1,
      "note": 56,
      "start": 1.8006,
      "duration": 0.2999,
      "velocity": 127,
      "chip": "ym2612"
    },
    {
      "channel": 3,
      "note": 55,
      "start": 1.8012,
      "duration": 0.2008,
      "velocity": 106,
      "chip": "ym2612"
    },
    {
      "channel": 4,
      "note": 96,
      "start": 1.8034,
      "duration": 0.301,
      "velocity": 107,
      "chip": "ym2612"
    },
    {
      "channel": 3,
      "note": 57,
      "start": 2.0023,
      "duration": 0.2545,
      "velocity": 106,
      "chip": "ym2612"
    },
    {
      "channel": 1,
      "note": 57,
      "start": 2.1007,
      "duration": 0.2406,
      "velocity": 127,
      "chip": "ym2612"
    },
    {
      "channel": 4,
      "note": 96,
      "start": 2.1046,
      "duration": 0.2394,
      "velocity": 107,
      "chip": "ym2612"
    },
    {
      "channel": 3,
      "note": 45,
      "start": 2.257,
      "duration": 0.0849,
      "velocity": 106,
      "chip": "ym2612"
    },
    {
      "channel": 1,
      "note": 57,
      "start": 2.3414,
      "duration": 0.4228,
      "velocity": 127,
      "chip": "ym2612"
    },
    {
      "channel": 3,
      "note": 57,
      "start": 2.3421,
      "duration": 0.4243,
      "velocity": 106,
      "chip": "ym2612"
    },
    {
      "channel": 4,
      "note": 96,
      "start": 2.3442,
      "duration": 0.2403,
      "velocity": 107,
      "chip": "ym2612"
    },
    {
      "channel": 4,
      "note": 96,
      "start": 2.5846,
      "duration": 0.283,
      "velocity": 107,
      "chip": "ym2612"
    },
    {
      "channel": 1,
      "note": 55,
      "start": 2.7644,
      "duration": 0.2999,
      "velocity": 127,
      "chip": "ym2612"
    },
    {
      "channel": 3,
      "note": 57,
      "start": 2.7666,
      "duration": 0.2999,
      "velocity": 106,
      "chip": "ym2612"
    },
    {
      "channel": 4,
      "note": 96,
      "start": 2.8678,
      "duration": 0.2781,
      "velocity": 107,
      "chip": "ym2612"
    },
    {
      "channel": 1,
      "note": 52,
      "start": 3.0644,
      "duration": 0.0776,
      "velocity": 127,
      "chip": "ym2612"
    },
    {
      "channel": 3,
      "note": 45,
      "start": 3.0666,
      "duration": 0.2398,
      "velocity": 106,
      "chip": "ym2612"
    },
    {
      "channel": 1,
      "note": 55,
      "start": 3.1422,
      "duration": 0.2399,
      "velocity": 127,
      "chip": "ym2612"
    },
    {
      "channel": 4,
      "note": 96,
      "start": 3.1461,
      "duration": 0.2388,
      "velocity": 107,
      "chip": "ym2612"
    },
    {
      "channel": 3,
      "note": 57,
      "start": 3.3066,
      "duration": 0.0761,
      "velocity": 106,
      "chip": "ym2612"
    },
    {
      "channel": 1,
      "note": 55,
      "start": 3.3823,
      "duration": 0.2405,
      "velocity": 127,
      "chip": "ym2612"
    },
    {
      "channel": 3,
      "note": 45,
      "start": 3.3829,
      "duration": 0.4225,
      "velocity": 106,
      "chip": "ym2612"
    },
    {
      "channel": 4,
      "note": 96,
      "start": 3.385,
      "duration": 0.24,
      "velocity": 107,
      "chip": "ym2612"
    },
    {
      "channel": 1,
      "note": 56,
      "start": 3.623,
      "duration": 0.2809,
      "velocity": 127,
      "chip": "ym2612"
    },
    {
      "channel": 4,
      "note": 96,
      "start": 3.6252,
      "duration": 0.2814,
      "velocity": 107,
      "chip": "ym2612"
    },
    {
      "channel": 3,
      "note": 57,
      "start": 3.8056,
      "duration": 0.0988,
      "velocity": 106,
      "chip": "ym2612"
    },
    {
      "channel": 1,
      "note": 56,
      "start": 3.904,
      "duration": 0.3001,
      "velocity": 127,
      "chip": "ym2612"
    },
    {
      "channel": 3,
      "note": 55,
      "start": 3.9046,
      "duration": 0.201,
      "velocity": 106,
      "chip": "ym2612"
    },
    {
      "channel": 4,
      "note": 96,
      "start": 3.9068,
      "duration": 0.2996,
      "velocity": 107,
      "chip": "ym2612"
    },
    {
      "channel": 3,
      "note": 57,
      "start": 4.1057,
      "duration": 0.2552,
      "velocity": 106,
      "chip": "ym2612"
    },
    {
      "channel": 1,
      "note": 57,
      "start": 4.2042,
      "duration": 0.2408,
      "velocity": 127,
      "chip": "ym2612"
    },
    {
      "channel": 4,
      "note": 96,
      "start": 4.2065,
      "duration": 0.2413,
      "velocity": 107,
      "chip": "ym2612"
    },
    {
      "channel": 3,
      "note": 45,
      "start": 4.3611,
      "duration": 0.0846,
      "velocity": 106,
      "chip": "ym2612"
    },
    {
      "channel": 1,
      "note": 57,
      "start": 4.4452,
      "duration": 0.4248,
      "velocity": 127,
      "chip": "ym2612"
    },
    {
      "channel": 3,
      "note": 57,
      "start": 4.4459,
      "duration": 0.4263,
      "velocity": 106,
      "chip": "ym2612"
    },
    {
      "channel": 4,
      "note": 96,
      "start": 4.448,
      "duration": 0.2403,
      "velocity": 107,
      "chip": "ym2612"
    },
    {
      "channel": 4,
      "note": 96,
      "start": 4.6884,
      "duration": 0.2835,
      "velocity": 107,
      "chip": "ym2612"
    },
    {
      "channel": 0,
      "note": 64,
      "start": 4.8696,
      "duration": 0.0983,
      "velocity": 102,
      "chip": "ym2612"
    },
    {
      "channel": 1,
      "note": 55,
      "start": 4.8702,
      "duration": 0.2983,
      "velocity": 127,
      "chip": "ym2612"
    },
    {
      "channel": 3,
      "note": 57,
      "start": 4.8724,
      "duration": 0.2988,
      "velocity": 106,
      "chip": "ym2612"
    },
    {
      "channel": 0,
      "note": 57,
      "start": 4.9681,
      "duration": 0.1999,
      "velocity": 102,
      "chip": "ym2612"
    },
    {
      "channel": 4,
      "note": 96,
      "start": 4.972,
      "duration": 0.2775,
      "velocity": 107,
      "chip": "ym2612"
    },
    {
      "channel": 2,
      "note": 64,
      "start": 5.0698,
      "duration": 0.0993,
      "velocity": 102,
      "chip": "ym2612"
    },
    {
      "channel": 0,
      "note": 63,
      "start": 5.1681,
      "duration": 0.3177,
      "velocity": 102,
      "chip": "ym2612"
    },
    {
      "channel": 1,
      "note": 52,
      "start": 5.1687,
      "duration": 0.0769,
      "velocity": 127,
      "chip": "ym2612"
    },
    {
      "channel": 2,
      "note": 57,
      "start": 5.1692,
      "duration": 0.1544,
      "velocity": 102,
      "chip": "ym2612"
    },
    {
      "channel": 3,
      "note": 45,
      "start": 5.1713,
      "duration": 0.2386,
      "velocity": 106,
      "chip": "ym2612"
    },
    {
      "channel": 1,
      "note": 55,
      "start": 5.2457,
      "duration": 0.2406,
      "velocity": 127,
      "chip": "ym2612"
    },
    {
      "channel": 4,
      "note": 96,
      "start": 5.2496,
      "duration": 0.2394,
      "velocity": 107,
      "chip": "ym2612"
    },
    {
      "channel": 2,
      "note": 63,
      "start": 5.3238,
      "duration": 0.3249,
      "velocity": 102,
      "chip": "ym2612"
    },
    {
      "channel": 3,
      "note": 57,
      "start": 5.4102,
      "duration": 0.0767,
      "velocity": 106,
      "chip": "ym2612"
    },
    {
      "channel": 0,
      "note": 62,
      "start": 5.4859,
      "duration": 0.2399,
      "velocity": 102,
      "chip": "ym2612"
    },
    {
      "channel": 1,
      "note": 55,
      "start": 5.4864,
      "duration": 0.2399,
      "velocity": 127,
      "chip": "ym2612"
    },
    {
      "channel": 3,
      "note": 45,
      "start": 5.4871,
      "duration": 0.4227,
      "velocity": 106,
      "chip": "ym2612"
    },
    {
      "channel": 4,
      "note": 96,
      "start": 5.4893,
      "duration": 0.2393,
      "velocity": 107,
      "chip": "ym2612"
    },
    {
      "channel": 2,
      "note": 62,
      "start": 5.6488,
      "duration": 0.2588,
      "velocity": 102,
      "chip": "ym2612"
    },
    {
      "channel": 0,
      "note": 62,
      "start": 5.726,
      "duration": 0.0811,
      "velocity": 102,
      "chip": "ym2612"
    },
    {
      "channel": 1,
      "note": 56,
      "start": 5.7266,
      "duration": 0.2811,
      "velocity": 127,
      "chip": "ym2612"
    },
    {
      "channel": 4,
      "note": 96,
      "start": 5.7288,
      "duration": 0.2821,
      "velocity": 107,
      "chip": "ym2612"
    },
    {
      "channel": 0,
      "note": 60,
      "start": 5.8072,
      "duration": 0.0998,
      "velocity": 102,
      "chip": "ym2612"
    },
    {
      "channel": 0,
      "note": 57,
      "start": 5.9072,
      "duration": 0.0999,
      "velocity": 102,
      "chip": "ym2612"
    },
    {
      "channel": 2,
      "note": 62,
      "start": 5.9078,
      "duration": 0.1004,
      "velocity": 102,
      "chip": "ym2612"
    },
    {
      "channel": 3,
      "note": 57,
      "start": 5.9099,
      "duration": 0.0988,
      "velocity": 106,
      "chip": "ym2612"
    },
    {
      "channel": 0,
      "note": 55,
      "start": 6.0072,
      "duration": 0.1998,
      "velocity": 102,
      "chip": "ym2612"
    },
    {
      "channel": 1,
      "note": 56,
      "start": 6.0078,
      "duration": 0.2994,
      "velocity": 127,
      "chip": "ym2612"
    },
    {
      "channel": 2,
      "note": 60,
      "start": 6.0083,
      "duration": 0.0989,
      "velocity": 102,
      "chip": "ym2612"
    },
    {
      "channel": 3,
      "note": 55,
      "start": 6.0089,
      "duration": 0.2009,
      "velocity": 106,
      "chip": "ym2612"
    },
    {
      "channel": 4,
      "note": 96,
      "start": 6.0111,
      "duration": 0.3,
      "velocity": 107,
      "chip": "ym2612"
    },
    {
      "channel": 2,
      "note": 57,
      "start": 6.1074,
      "duration": 0.1002,
      "velocity": 102,
      "chip": "ym2612"
    },
    {
      "channel": 0,
      "note": 57,
      "start": 6.2072,
      "duration": 7.0763,
      "velocity": 102,
      "chip": "ym2612"
    },
    {
      "channel": 2,
      "note": 55,
      "start": 6.2078,
      "duration": 0.178,
      "velocity": 102,
      "chip": "ym2612"
    },
    {
      "channel": 3,
      "note": 57,
      "start": 6.21,
      "duration": 0.2544,
      "velocity": 106,
      "chip": "ym2612"
    },
    {
      "channel": 1,
      "note": 57,
      "start": 6.3074,
      "duration": 0.2414,
      "velocity": 127,
      "chip": "ym2612"
    },
    {
      "channel": 4,
      "note": 96,
      "start": 6.3113,
      "duration": 0.2402,
      "velocity": 107,
      "chip": "ym2612"
    },
    {
      "channel": 2,
      "note": 57,
      "start": 6.3861,
      "duration": 7.0975,
      "velocity": 102,
      "chip": "ym2612"
    },
    {
      "channel": 3,
      "note": 45,
      "start": 6.4646,
      "duration": 0.0847,
      "velocity": 106,
      "chip": "ym2612"
    },
    {
      "channel": 1,
      "note": 57,
      "start": 6.5489,
      "duration": 0.422,
      "velocity": 127,
      "chip": "ym2612"
    },
    {
      "channel": 3,
      "note": 57,
      "start": 6.5495,
      "duration": 0.4236,
      "velocity": 106,
      "chip": "ym2612"
    },
    {
      "channel": 4,
      "note": 96,
      "start": 6.5517,
      "duration": 0.24,
      "velocity": 107,
      "chip": "ym2612"
    },
    {
      "channel": 4,
      "note": 96,
      "start": 6.7918,
      "duration": 0.2826,
      "velocity": 107,
      "chip": "ym2612"
    },
    {
      "channel": 1,
      "note": 55,
      "start": 6.9711,
      "duration": 0.2999,
      "velocity": 127,
      "chip": "ym2612"
    },
    {
      "channel": 3,
      "note": 57,
      "start": 6.9733,
      "duration": 0.2999,
      "velocity": 106,
      "chip": "ym2612"
    },
    {
      "channel": 4,
      "note": 96,
      "start": 7.0746,
      "duration": 0.2781,
      "velocity": 107,
      "chip": "ym2612"
    },
    {
      "channel": 1,
      "note": 52,
      "start": 7.2711,
      "duration": 0.0777,
      "velocity": 127,
      "chip": "ym2612"
    },
    {
      "channel": 3,
      "note": 45,
      "start": 7.2734,
      "duration": 0.2402,
      "velocity": 106,
      "chip": "ym2612"
    },
    {
      "channel": 1,
      "note": 55,
      "start": 7.3489,
      "duration": 0.2407,
      "velocity": 127,
      "chip": "ym2612"
    },
    {
      "channel": 4,
      "note": 96,
      "start": 7.3528,
      "duration": 0.2396,
      "velocity": 107,
      "chip": "ym2612"
    },
    {
      "channel": 3,
      "note": 57,
      "start": 7.5137,
      "duration": 0.0765,
      "velocity": 106,
      "chip": "ym2612"
    },
    {
      "channel": 1,
      "note": 55,
      "start": 7.5898,
      "duration": 0.2406,
      "velocity": 127,
      "chip": "ym2612"
    },
    {
      "channel": 3,
      "note": 45,
      "start": 7.5904,
      "duration": 0.4228,
      "velocity": 106,
      "chip": "ym2612"
    },
    {
      "channel": 4,
      "note": 96,
      "start": 7.5926,
      "duration": 0.24,
      "velocity": 107,
      "chip": "ym2612"
    },
    {
      "channel": 1,
      "note": 56,
      "start": 7.8305,
      "duration": 0.2811,
      "velocity": 127,
      "chip": "ym2612"
    },
    {
      "channel": 4,
      "note": 96,
      "start": 7.8328,
      "duration": 0.2816,
      "velocity": 107,
      "chip": "ym2612"
    },
    {
      "channel": 3,
      "note": 57,
      "start": 8.0134,
      "duration": 0.0988,
      "velocity": 106,
      "chip": "ym2612"
    },
    {
      "channel": 1,
      "note": 56,
      "start": 8.1118,
      "duration": 0.3001,
      "velocity": 127,
      "chip": "ym2612"
    },
    {
      "channel": 3,
      "note": 55,
      "start": 8.1124,
      "duration": 0.2009,
      "velocity": 106,
      "chip": "ym2612"
    },
    {
      "channel": 4,
      "note": 96,
      "start": 8.1146,
      "duration": 0.2996,
      "velocity": 107,
      "chip": "ym2612"
    },
    {
      "channel": 3,
      "note": 57,
      "start": 8.3135,
      "duration": 0.2549,
      "velocity": 106,
      "chip": "ym2612"
    },
    {
      "channel": 1,
      "note": 57,
      "start": 8.412,
      "duration": 0.2406,
      "velocity": 127,
      "chip": "ym2612"
    },
    {
      "channel": 4,
      "note": 96,
      "start": 8.4143,
      "duration": 0.2411,
      "velocity": 107,
      "chip": "ym2612"
    },
    {
      "channel": 3,
      "note": 45,
      "start": 8.5686,
      "duration": 0.0847,
      "velocity": 106,
      "chip": "ym2612"
    },
    {
      "channel": 1,
      "note": 57,
      "start": 8.6528,
      "duration": 0.4228,
      "velocity": 127,
      "chip": "ym2612"
    },
    {
      "channel": 3,
      "note": 57,
      "start": 8.6535,
      "duration": 0.4243,
      "velocity": 106,
      "chip": "ym2612"
    },
    {
      "channel": 4,
      "note": 96,
      "start": 8.6556,
      "duration": 0.2403,
      "velocity": 107,
      "chip": "ym2612"
    },
    {
      "channel": 4,
      "note": 96,
      "start": 8.896,
      "duration": 0.283,
      "velocity": 107,
      "chip": "ym2612"
    },
    {
      "channel": 1,
      "note": 55,
      "start": 9.0758,
      "duration": 0.2999,
      "velocity": 127,
      "chip": "ym2612"
    },
    {
      "channel": 3,
      "note": 57,
      "start": 9.078,
      "duration": 0.2999,
      "velocity": 106,
      "chip": "ym2612"
    },
    {
      "channel": 4,
      "note": 96,
      "start": 9.1793,
      "duration": 0.2781,
      "velocity": 107,
      "chip": "ym2612"
    },
    {
      "channel": 1,
      "note": 52,
      "start": 9.3758,
      "duration": 0.0776,
      "velocity": 127,
      "chip": "ym2612"
    },
    {
      "channel": 3,
      "note": 45,
      "start": 9.378,
      "duration": 0.2398,
      "velocity": 106,
      "chip": "ym2612"
    },
    {
      "channel": 1,
      "note": 55,
      "start": 9.4536,
      "duration": 0.2399,
      "velocity": 127,
      "chip": "ym2612"
    },
    {
      "channel": 4,
      "note": 96,
      "start": 9.4575,
      "duration": 0.2388,
      "velocity": 107,
      "chip": "ym2612"
    },
    {
      "channel": 3,
      "note": 57,
      "start": 9.618,
      "duration": 0.0761,
      "velocity": 106,
      "chip": "ym2612"
    },
    {
      "channel": 1,
      "note": 55,
      "start": 9.6937,
      "duration": 0.2405,
      "velocity": 127,
      "chip": "ym2612"
    },
    {
      "channel": 3,
      "note": 45,
      "start": 9.6943,
      "duration": 0.4225,
      "velocity": 106,
      "chip": "ym2612"
    },
    {
      "channel": 4,
      "note": 96,
      "start": 9.6964,
      "duration": 0.24,
      "velocity": 107,
      "chip": "ym2612"
    },
    {
      "channel": 1,
      "note": 56,
      "start": 9.9344,
      "duration": 0.2809,
      "velocity": 127,
      "chip": "ym2612"
    },
    {
      "channel": 4,
      "note": 96,
      "start": 9.9366,
      "duration": 0.2814,
      "velocity": 107,
      "chip": "ym2612"
    },
    {
      "channel": 3,
      "note": 57,
      "start": 10.1171,
      "duration": 0.0988,
      "velocity": 106,
      "chip": "ym2612"
    },
    {
      "channel": 1,
      "note": 56,
      "start": 10.2154,
      "duration": 0.2999,
      "velocity": 127,
      "chip": "ym2612"
    },
    {
      "channel": 3,
      "note": 55,
      "start": 10.216,
      "duration": 0.2008,
      "velocity": 106,
      "chip": "ym2612"
    },
    {
      "channel": 4,
      "note": 96,
      "start": 10.2182,
      "duration": 0.301,
      "velocity": 107,
      "chip": "ym2612"
    },
    {
      "channel": 3,
      "note": 57,
      "start": 10.4171,
      "duration": 0.2549,
      "velocity": 106,
      "chip": "ym2612"
    },
    {
      "channel": 1,
      "note": 57,
      "start": 10.5154,
      "duration": 0.241,
      "velocity": 127,
      "chip": "ym2612"
    },
    {
      "channel": 4,
      "note": 96,
      "start": 10.5193,
      "duration": 0.2398,
      "velocity": 107,
      "chip": "ym2612"
    },
    {
      "channel": 3,
      "note": 45,
      "start": 10.6722,
      "duration": 0.0849,
      "velocity": 106,
      "chip": "ym2612"
    },
    {
      "channel": 1,
      "note": 57,
      "start": 10.7566,
      "duration": 0.4226,
      "velocity": 127,
      "chip": "ym2612"
    },
    {
      "channel": 3,
      "note": 57,
      "start": 10.7572,
      "duration": 0.4242,
      "velocity": 106,
      "chip": "ym2612"
    },
    {
      "channel": 4,
      "note": 96,
      "start": 10.7593,
      "duration": 0.2401,
      "velocity": 107,
      "chip": "ym2612"
    },
    {
      "channel": 4,
      "note": 96,
      "start": 10.9996,
      "duration": 0.283,
      "velocity": 107,
      "chip": "ym2612"
    },
    {
      "channel": 1,
      "note": 55,
      "start": 11.1793,
      "duration": 0.2999,
      "velocity": 127,
      "chip": "ym2612"
    },
    {
      "channel": 3,
      "note": 57,
      "start": 11.1815,
      "duration": 0.2999,
      "velocity": 106,
      "chip": "ym2612"
    },
    {
      "channel": 4,
      "note": 96,
      "start": 11.2828,
      "duration": 0.2783,
      "velocity": 107,
      "chip": "ym2612"
    },
    {
      "channel": 1,
      "note": 52,
      "start": 11.4793,
      "duration": 0.0779,
      "velocity": 127,
      "chip": "ym2612"
    },
    {
      "channel": 3,
      "note": 45,
      "start": 11.4816,
      "duration": 0.2402,
      "velocity": 106,
      "chip": "ym2612"
    },
    {
      "channel": 1,
      "note": 55,
      "start": 11.5573,
      "duration": 0.2405,
      "velocity": 127,
      "chip": "ym2612"
    },
    {
      "channel": 4,
      "note": 96,
      "start": 11.5612,
      "duration": 0.2394,
      "velocity": 107,
      "chip": "ym2612"
    },
    {
      "channel": 3,
      "note": 57,
      "start": 11.722,
      "duration": 0.0765,
      "velocity": 106,
      "chip": "ym2612"
    },
    {
      "channel": 1,
      "note": 55,
      "start": 11.798,
      "duration": 0.2408,
      "velocity": 127,
      "chip": "ym2612"
    },
    {
      "channel": 3,
      "note": 45,
      "start": 11.7986,
      "duration": 0.4227,
      "velocity": 106,
      "chip": "ym2612"
    },
    {
      "channel": 4,
      "note": 96,
      "start": 11.8007,
      "duration": 0.2402,
      "velocity": 107,
      "chip": "ym2612"
    },
    {
      "channel": 1,
      "note": 56,
      "start": 12.0389,
      "duration": 0.2807,
      "velocity": 127,
      "chip": "ym2612"
    },
    {
      "channel": 4,
      "note": 96,
      "start": 12.0412,
      "duration": 0.2813,
      "velocity": 107,
      "chip": "ym2612"
    },
    {
      "channel": 3,
      "note": 57,
      "start": 12.2215,
      "duration": 0.0988,
      "velocity": 106,
      "chip": "ym2612"
    },
    {
      "channel": 1,
      "note": 56,
      "start": 12.3198,
      "duration": 0.3001,
      "velocity": 127,
      "chip": "ym2612"
    },
    {
      "channel": 3,
      "note": 55,
      "start": 12.3205,
      "duration": 0.2009,
      "velocity": 106,
      "chip": "ym2612"
    },
    {
      "channel": 4,
      "note": 96,
      "start": 12.3226,
      "duration": 0.2997,
      "velocity": 107,
      "chip": "ym2612"
    },
    {
      "channel": 3,
      "note": 57,
      "start": 12.5216,
      "duration": 0.255,
      "velocity": 106,
      "chip": "ym2612"
    },
    {
      "channel": 1,
      "note": 57,
      "start": 12.6201,
      "duration": 0.2406,
      "velocity": 127,
      "chip": "ym2612"
    },
    {
      "channel": 4,
      "note": 96,
      "start": 12.6224,
      "duration": 0.2411,
      "velocity": 107,
      "chip": "ym2612"
    },
    {
      "channel": 3,
      "note": 45,
      "start": 12.7768,
      "duration": 0.0846,
      "velocity": 106,
      "chip": "ym2612"
    },
    {
      "channel": 1,
      "note": 57,
      "start": 12.8609,
      "duration": 0.4231,
      "velocity": 127,
      "chip": "ym2612"
    },
    {
      "channel": 3,
      "note": 57,
      "start": 12.8615,
      "duration": 0.4247,
      "velocity": 106,
      "chip": "ym2612"
    },
    {
      "channel": 4,
      "note": 96,
      "start": 12.8637,
      "duration": 0.24,
      "velocity": 107,
      "chip": "ym2612"
    },
    {
      "channel": 4,
      "note": 96,
      "start": 13.1038,
      "duration": 0.2836,
      "velocity": 107,
      "chip": "ym2612"
    },
    {
      "channel": 0,
      "note": 64,
      "start": 13.2836,
      "duration": 0.0998,
      "velocity": 102,
      "chip": "ym2612"
    },
    {
      "channel": 1,
      "note": 55,
      "start": 13.2842,
      "duration": 0.2998,
      "velocity": 127,
      "chip": "ym2612"
    },
    {
      "channel": 3,
      "note": 57,
      "start": 13.2864,
      "duration": 0.3003,
      "velocity": 106,
      "chip": "ym2612"
    },
    {
      "channel": 0,
      "note": 57,
      "start": 13.3836,
      "duration": 0.1998,
      "velocity": 102,
      "chip": "ym2612"
    },
    {
      "channel": 4,
      "note": 96,
      "start": 13.3876,
      "duration": 0.2777,
      "velocity": 107,
      "chip": "ym2612"
    },
    {
      "channel": 2,
      "note": 64,
      "start": 13.4838,
      "duration": 0.1008,
      "velocity": 102,
      "chip": "ym2612"
    },
    {
      "channel": 0,
      "note": 63,
      "start": 13.5836,
      "duration": 0.3176,
      "velocity": 102,
      "chip": "ym2612"
    },
    {
      "channel": 1,
      "note": 52,
      "start": 13.5842,
      "duration": 0.0772,
      "velocity": 127,
      "chip": "ym2612"
    },
    {
      "channel": 2,
      "note": 57,
      "start": 13.5847,
      "duration": 0.1544,
      "velocity": 102,
      "chip": "ym2612"
    },
    {
      "channel": 3,
      "note": 45,
      "start": 13.5868,
      "duration": 0.2389,
      "velocity": 106,
      "chip": "ym2612"
    },
    {
      "channel": 1,
      "note": 55,
      "start": 13.6615,
      "duration": 0.2403,
      "velocity": 127,
      "chip": "ym2612"
    },
    {
      "channel": 4,
      "note": 96,
      "start": 13.6654,
      "duration": 0.2391,
      "velocity": 107,
      "chip": "ym2612"
    },
    {
      "channel": 2,
      "note": 63,
      "start": 13.7393,
      "duration": 0.3257,
      "velocity": 102,
      "chip": "ym2612"
    },
    {
      "channel": 3,
      "note": 57,
      "start": 13.8259,
      "duration": 0.0765,
      "velocity": 106,
      "chip": "ym2612"
    },
    {
      "channel": 0,
      "note": 62,
      "start": 13.9014,
      "duration": 0.2409,
      "velocity": 102,
      "chip": "ym2612"
    },
    {
      "channel": 1,
      "note": 55,
      "start": 13.902,
      "duration": 0.2409,
      "velocity": 127,
      "chip": "ym2612"
    },
    {
      "channel": 3,
      "note": 45,
      "start": 13.9026,
      "duration": 0.4237,
      "velocity": 106,
      "chip": "ym2612"
    },
    {
      "channel": 4,
      "note": 96,
      "start": 13.9047,
      "duration": 0.2404,
      "velocity": 107,
      "chip": "ym2612"
    },
    {
      "channel": 2,
      "note": 62,
      "start": 14.0651,
      "duration": 0.259,
      "velocity": 102,
      "chip": "ym2612"
    },
    {
      "channel": 0,
      "note": 62,
      "start": 14.1425,
      "duration": 0.081,
      "velocity": 102,
      "chip": "ym2612"
    },
    {
      "channel": 1,
      "note": 56,
      "start": 14.143,
      "duration": 0.2811,
      "velocity": 127,
      "chip": "ym2612"
    },
    {
      "channel": 4,
      "note": 96,
      "start": 14.1453,
      "duration": 0.2821,
      "velocity": 107,
      "chip": "ym2612"
    },
    {
      "channel": 0,
      "note": 60,
      "start": 14.2237,
      "duration": 0.0998,
      "velocity": 102,
      "chip": "ym2612"
    },
    {
      "channel": 0,
      "note": 57,
      "start": 14.3237,
      "duration": 0.0999,
      "velocity": 102,
      "chip": "ym2612"
    },
    {
      "channel": 2,
      "note": 62,
      "start": 14.3243,
      "duration": 0.1004,
      "velocity": 102,
      "chip": "ym2612"
    },
    {
      "channel": 3,
      "note": 57,
      "start": 14.3265,
      "duration": 0.0988,
      "velocity": 106,
      "chip": "ym2612"
    },
    {
      "channel": 0,
      "note": 55,
      "start": 14.4237,
      "duration": 0.1998,
      "velocity": 102,
      "chip": "ym2612"
    },
    {
      "channel": 1,
      "note": 56,
      "start": 14.4243,
      "duration": 0.2994,
      "velocity": 127,
      "chip": "ym2612"
    },
    {
      "channel": 2,
      "note": 60,
      "start": 14.4248,
      "duration": 0.0989,
      "velocity": 102,
      "chip": "ym2612"
    },
    {
      "channel": 3,
      "note": 55,
      "start": 14.4254,
      "duration": 0.2009,
      "velocity": 106,
      "chip": "ym2612"
    },
    {
      "channel": 4,
      "note": 96,
      "start": 14.4276,
      "duration": 0.3,
      "velocity": 107,
      "chip": "ym2612"
    },
    {
      "channel": 2,
      "note": 57,
      "start": 14.5238,
      "duration": 0.1002,
      "velocity": 102,
      "chip": "ym2612"
    },
    {
      "channel": 0,
      "note": 57,
      "start": 14.6237,
      "duration": 2.2053,
      "velocity": 114,
      "chip": "ym2612"
    },
    {
      "channel": 2,
      "note": 55,
      "start": 14.6243,
      "duration": 0.1778,
      "velocity": 102,
      "chip": "ym2612"
    },
    {
      "channel": 3,
      "note": 57,
      "start": 14.6265,
      "duration": 0.2546,
      "velocity": 106,
      "chip": "ym2612"
    },
    {
      "channel": 1,
      "note": 57,
      "start": 14.7238,
      "duration": 0.2415,
      "velocity": 127,
      "chip": "ym2612"
    },
    {
      "channel": 4,
      "note": 96,
      "start": 14.7277,
      "duration": 0.2404,
      "velocity": 107,
      "chip": "ym2612"
    },
    {
      "channel": 2,
      "note": 57,
      "start": 14.8023,
      "duration": 2.0294,
      "velocity": 114,
      "chip": "ym2612"
    },
    {
      "channel": 3,
      "note": 45,
      "start": 14.8813,
      "duration": 0.0847,
      "velocity": 106,
      "chip": "ym2612"
    },
    {
      "channel": 1,
      "note": 57,
      "start": 14.9656,
      "duration": 0.4218,
      "velocity": 127,
      "chip": "ym2612"
    },
    {
      "channel": 3,
      "note": 57,
      "start": 14.9662,
      "duration": 0.4234,
      "velocity": 106,
      "chip": "ym2612"
    },
    {
      "channel": 4,
      "note": 96,
      "start": 14.9683,
      "duration": 0.2397,
      "velocity": 107,
      "chip": "ym2612"
    },
    {
      "channel": 4,
      "note": 96,
      "start": 15.2081,
      "duration": 0.2827,
      "velocity": 107,
      "chip": "ym2612"
    },
    {
      "channel": 1,
      "note": 55,
      "start": 15.3876,
      "duration": 0.2999,
      "velocity": 127,
      "chip": "ym2612"
    },
    {
      "channel": 3,
      "note": 57,
      "start": 15.3897,
      "duration": 0.2999,
      "velocity": 106,
      "chip": "ym2612"
    },
    {
      "channel": 4,
      "note": 96,
      "start": 15.491,
      "duration": 0.2781,
      "velocity": 107,
      "chip": "ym2612"
    },
    {
      "channel": 1,
      "note": 52,
      "start": 15.6876,
      "duration": 0.0777,
      "velocity": 127,
      "chip": "ym2612"
    },
    {
      "channel": 3,
      "note": 45,
      "start": 15.6898,
      "duration": 0.2396,
      "velocity": 106,
      "chip": "ym2612"
    },
    {
      "channel": 1,
      "note": 55,
      "start": 15.7653,
      "duration": 0.2398,
      "velocity": 127,
      "chip": "ym2612"
    },
    {
      "channel": 4,
      "note": 96,
      "start": 15.7692,
      "duration": 0.2387,
      "velocity": 107,
      "chip": "ym2612"
    },
    {
      "channel": 3,
      "note": 57,
      "start": 15.9296,
      "duration": 0.0761,
      "velocity": 106,
      "chip": "ym2612"
    },
    {
      "channel": 1,
      "note": 55,
      "start": 16.0053,
      "duration": 0.2411,
      "velocity": 127,
      "chip": "ym2612"
    },
    {
      "channel": 3,
      "note": 45,
      "start": 16.0059,
      "duration": 0.423,
      "velocity": 106,
      "chip": "ym2612"
    },
    {
      "channel": 4,
      "note": 96,
      "start": 16.008,
      "duration": 0.2405,
      "velocity": 107,
      "chip": "ym2612"
    },
    {
      "channel": 1,
      "note": 56,
      "start": 16.2465,
      "duration": 0.2808,
      "velocity": 127,
      "chip": "ym2612"
    },
    {
      "channel": 4,
      "note": 96,
      "start": 16.2488,
      "duration": 0.2813,
      "velocity": 107,
      "chip": "ym2612"
    },
    {
      "channel": 3,
      "note": 57,
      "start": 16.4291,
      "duration": 0.0988,
      "velocity": 106,
      "chip": "ym2612"
    },
    {
      "channel": 1,
      "note": 56,
      "start": 16.5274,
      "duration": 0.3021,
      "velocity": 127,
      "chip": "ym2612"
    },
    {
      "channel": 3,
      "note": 55,
      "start": 16.5281,
      "duration": 0.201,
      "velocity": 106,
      "chip": "ym2612"
    },
    {
      "channel": 4,
      "note": 96,
      "start": 16.5302,
      "duration": 0.3057,
      "velocity": 107,
      "chip": "ym2612"
    },
    {
      "channel": 3,
      "note": 57,
      "start": 16.7292,
      "duration": 0.1046,
      "velocity": 114,
      "chip": "ym2612"
    },
    {
      "channel": 0,
      "note": 72,
      "start": 16.8291,
      "duration": 0.2396,
      "velocity": 114,
      "chip": "ym2612"
    },
    {
      "channel": 1,
      "note": 50,
      "start": 16.8297,
      "duration": 0.2396,
      "velocity": 127,
      "chip": "ym2612"
    },
    {
      "channel": 2,
      "note": 76,
      "start": 16.8319,
      "duration": 0.238,
      "velocity": 114,
      "chip": "ym2612"
    },
    {
      "channel": 3,
      "note": 79,
      "start": 16.834,
      "duration": 0.2364,
      "velocity": 114,
      "chip": "ym2612"
    },
    {
      "channel": 4,
      "note": 96,
      "start": 16.8361,
      "duration": 0.2364,
      "velocity": 107,
      "chip": "ym2612"
    },
    {
      "channel": 0,
      "note": 72,
      "start": 17.0689,
      "duration": 0.8004,
      "velocity": 114,
      "chip": "ym2612"
    },
    {
      "channel": 1,
      "note": 50,
      "start": 17.0695,
      "duration": 0.2398,
      "velocity": 127,
      "chip": "ym2612"
    },
    {
      "channel": 2,
      "note": 76,
      "start": 17.07,
      "duration": 0.802,
      "velocity": 114,
      "chip": "ym2612"
    },
    {
      "channel": 3,
      "note": 79,
      "start": 17.0706,
      "duration": 0.8035,
      "velocity": 114,
      "chip": "ym2612"
    },
    {
      "channel": 4,
      "note": 96,
      "start": 17.0727,
      "duration": 0.2388,
      "velocity": 107,
      "chip": "ym2612"
    },
    {
      "channel": 1,
      "note": 52,
      "start": 17.3094,
      "duration": 0.2813,
      "velocity": 127,
      "chip": "ym2612"
    },
    {
      "channel": 4,
      "note": 96,
      "start": 17.3117,
      "duration": 0.2813,
      "velocity": 107,
      "chip": "ym2612"
    },
    {
      "channel": 1,
      "note": 52,
      "start": 17.591,
      "duration": 0.2789,
      "velocity": 127,
      "chip": "ym2612"
    },
    {
      "channel": 4,
      "note": 96,
      "start": 17.5932,
      "duration": 0.2831,
      "velocity": 107,
      "chip": "ym2612"
    },
    {
      "channel": 0,
      "note": 75,
      "start": 17.8694,
      "duration": 0.2389,
      "velocity": 114,
      "chip": "ym2612"
    },
    {
      "channel": 1,
      "note": 53,
      "start": 17.87,
      "duration": 0.2388,
      "velocity": 127,
      "chip": "ym2612"
    },
    {
      "channel": 2,
      "note": 79,
      "start": 17.8721,
      "duration": 0.2373,
      "velocity": 114,
      "chip": "ym2612"
    },
    {
      "channel": 3,
      "note": 70,
      "start": 17.8743,
      "duration": 0.2357,
      "velocity": 114,
      "chip": "ym2612"
    },
    {
      "channel": 4,
      "note": 96,
      "start": 17.8765,
      "duration": 0.2357,
      "velocity": 107,
      "chip": "ym2612"
    },
    {
      "channel": 0,
      "note": 75,
      "start": 18.1084,
      "duration": 0.4238,
      "velocity": 114,
      "chip": "ym2612"
    },
    {
      "channel": 1,
      "note": 53,
      "start": 18.109,
      "duration": 0.2407,
      "velocity": 127,
      "chip": "ym2612"
    },
    {
      "channel": 2,
      "note": 79,
      "start": 18.1096,
      "duration": 0.4249,
      "velocity": 114,
      "chip": "ym2612"
    },
    {
      "channel": 3,
      "note": 70,
      "start": 18.1102,
      "duration": 0.4264,
      "velocity": 114,
      "chip": "ym2612"
    },
    {
      "channel": 4,
      "note": 96,
      "start": 18.1123,
      "duration": 0.2396,
      "velocity": 107,
      "chip": "ym2612"
    },
    {
      "channel": 1,
      "note": 55,
      "start": 18.3499,
      "duration": 0.2814,
      "velocity": 127,
      "chip": "ym2612"
    },
    {
      "channel": 4,
      "note": 96,
      "start": 18.3521,
      "duration": 0.2824,
      "velocity": 107,
      "chip": "ym2612"
    },
    {
      "channel": 0,
      "note": 84,
      "start": 18.5324,
      "duration": 0.0983,
      "velocity": 114,
      "chip": "ym2612"
    },
    {
      "channel": 2,
      "note": 79,
      "start": 18.5346,
      "duration": 0.0972,
      "velocity": 114,
      "chip": "ym2612"
    },
    {
      "channel": 3,
      "note": 81,
      "start": 18.5368,
      "duration": 0.0956,
      "velocity": 114,
      "chip": "ym2612"
    },
    {
      "channel": 0,
      "note": 79,
      "start": 18.6309,
      "duration": 0.1998,
      "velocity": 114,
      "chip": "ym2612"
    },
    {
      "channel": 1,
      "note": 55,
      "start": 18.6315,
      "duration": 0.1998,
      "velocity": 127,
      "chip": "ym2612"
    },
    {
      "channel": 2,
      "note": 74,
      "start": 18.632,
      "duration": 0.1998,
      "velocity": 114,
      "chip": "ym2612"
    },
    {
      "channel": 3,
      "note": 79,
      "start": 18.6325,
      "duration": 0.1998,
      "velocity": 114,
      "chip": "ym2612"
    },
    {
      "channel": 4,
      "note": 96,
      "start": 18.6347,
      "duration": 0.2979,
      "velocity": 107,
      "chip": "ym2612"
    },
    {
      "channel": 0,
      "note": 81,
      "start": 18.8309,
      "duration": 2.2065,
      "velocity": 103,
      "chip": "ym2612"
    },
    {
      "channel": 1,
      "note": 57,
      "start": 18.8314,
      "duration": 1.1422,
      "velocity": 127,
      "chip": "ym2612"
    },
    {
      "channel": 2,
      "note": 76,
      "start": 18.832,
      "duration": 2.2096,
      "velocity": 103,
      "chip": "ym2612"
    },
    {
      "channel": 3,
      "note": 86,
      "start": 18.8325,
      "duration": 2.3613,
      "velocity": 106,
      "chip": "ym2612"
    },
    {
      "channel": 4,
      "note": 96,
      "start": 18.9328,
      "duration": 0.2408,
      "velocity": 107,
      "chip": "ym2612"
    },
    {
      "channel": 4,
      "note": 96,
      "start": 19.1738,
      "duration": 0.2417,
      "velocity": 107,
      "chip": "ym2612"
    },
    {
      "channel": 4,
      "note": 96,
      "start": 19.4156,
      "duration": 0.281,
      "velocity": 107,
      "chip": "ym2612"
    },
    {
      "channel": 4,
      "note": 96,
      "start": 19.6968,
      "duration": 0.2791,
      "velocity": 107,
      "chip": "ym2612"
    },
    {
      "channel": 1,
      "note": 42,
      "start": 19.9738,
      "duration": 0.0764,
      "velocity": 127,
      "chip": "ym2612"
    },
    {
      "channel": 4,
      "note": 96,
      "start": 19.976,
      "duration": 0.2393,
      "velocity": 107,
      "chip": "ym2612"
    },
    {
      "channel": 1,
      "note": 42,
      "start": 20.0504,
      "duration": 0.0858,
      "velocity": 127,
      "chip": "ym2612"
    },
    {
      "channel": 1,
      "note": 42,
      "start": 20.1364,
      "duration": 0.0766,
      "velocity": 127,
      "chip": "ym2612"
    },
    {
      "channel": 1,
      "note": 42,
      "start": 20.2132,
      "duration": 0.1637,
      "velocity": 127,
      "chip": "ym2612"
    },
    {
      "channel": 4,
      "note": 96,
      "start": 20.2155,
      "duration": 0.241,
      "velocity": 107,
      "chip": "ym2612"
    },
    {
      "channel": 1,
      "note": 42,
      "start": 20.3771,
      "duration": 0.0772,
      "velocity": 127,
      "chip": "ym2612"
    },
    {
      "channel": 1,
      "note": 42,
      "start": 20.4544,
      "duration": 0.1812,
      "velocity": 127,
      "chip": "ym2612"
    },
    {
      "channel": 4,
      "note": 96,
      "start": 20.4568,
      "duration": 0.2811,
      "velocity": 107,
      "chip": "ym2612"
    },
    {
      "channel": 1,
      "note": 42,
      "start": 20.6357,
      "duration": 0.0999,
      "velocity": 127,
      "chip": "ym2612"
    },
    {
      "channel": 1,
      "note": 42,
      "start": 20.7358,
      "duration": 0.1999,
      "velocity": 127,
      "chip": "ym2612"
    },
    {
      "channel": 4,
      "note": 96,
      "start": 20.738,
      "duration": 0.3058,
      "velocity": 107,
      "chip": "ym2612"
    },
    {
      "channel": 1,
      "note": 42,
      "start": 20.9358,
      "duration": 0.1037,
      "velocity": 127,
      "chip": "ym2612"
    },
    {
      "channel": 0,
      "note": 64,
      "start": 21.0375,
      "duration": 0.4804,
      "velocity": 103,
      "chip": "ym2612"
    },
    {
      "channel": 1,
      "note": 57,
      "start": 21.0396,
      "duration": 0.2371,
      "velocity": 127,
      "chip": "ym2612"
    },
    {
      "channel": 2,
      "note": 81,
      "start": 21.0417,
      "duration": 0.4767,
      "velocity": 103,
      "chip": "ym2612"
    },
    {
      "channel": 4,
      "note": 96,
      "start": 21.044,
      "duration": 0.2356,
      "velocity": 107,
      "chip": "ym2612"
    },
    {
      "channel": 3,
      "note": 45,
      "start": 21.194,
      "duration": 0.0834,
      "velocity": 106,
      "chip": "ym2612"
    },
    {
      "channel": 1,
      "note": 57,
      "start": 21.277,
      "duration": 0.422,
      "velocity": 127,
      "chip": "ym2612"
    },
    {
      "channel": 3,
      "note": 57,
      "start": 21.2776,
      "duration": 0.4236,
      "velocity": 106,
      "chip": "ym2612"
    },
    {
      "channel": 4,
      "note": 96,
      "start": 21.2797,
      "duration": 0.241,
      "velocity": 107,
      "chip": "ym2612"
    },
    {
      "channel": 0,
      "note": 67,
      "start": 21.518,
      "duration": 0.281,
      "velocity": 103,
      "chip": "ym2612"
    },
    {
      "channel": 2,
      "note": 83,
      "start": 21.5186,
      "duration": 0.281,
      "velocity": 103,
      "chip": "ym2612"
    },
    {
      "channel": 4,
      "note": 96,
      "start": 21.5208,
      "duration": 0.2827,
      "velocity": 107,
      "chip": "ym2612"
    },
    {
      "channel": 1,
      "note": 55,
      "start": 21.6992,
      "duration": 0.2999,
      "velocity": 127,
      "chip": "ym2612"
    },
    {
      "channel": 3,
      "note": 57,
      "start": 21.7013,
      "duration": 0.2999,
      "velocity": 106,
      "chip": "ym2612"
    },
    {
      "channel": 0,
      "note": 64,
      "start": 21.7992,
      "duration": 0.2776,
      "velocity": 103,
      "chip": "ym2612"
    },
    {
      "channel": 2,
      "note": 81,
      "start": 21.7998,
      "duration": 0.278,
      "velocity": 103,
      "chip": "ym2612"
    },
    {
      "channel": 4,
      "note": 96,
      "start": 21.8037,
      "duration": 0.278,
      "velocity": 107,
      "chip": "ym2612"
    },
    {
      "channel": 1,
      "note": 52,
      "start": 21.9992,
      "duration": 0.0781,
      "velocity": 127,
      "chip": "ym2612"
    },
    {
      "channel": 3,
      "note": 45,
      "start": 22.0014,
      "duration": 0.2405,
      "velocity": 106,
      "chip": "ym2612"
    },
    {
      "channel": 0,
      "note": 69,
      "start": 22.0768,
      "duration": 0.2411,
      "velocity": 103,
      "chip": "ym2612"
    },
    {
      "channel": 1,
      "note": 55,
      "start": 22.0774,
      "duration": 0.2411,
      "velocity": 127,
      "chip": "ym2612"
    },
    {
      "channel": 2,
      "note": 84,
      "start": 22.078,
      "duration": 0.241,
      "velocity": 103,
      "chip": "ym2612"
    },
    {
      "channel": 4,
      "note": 96,
      "start": 22.0818,
      "duration": 0.24,
      "velocity": 107,
      "chip": "ym2612"
    },
    {
      "channel": 3,
      "note": 57,
      "start": 22.2421,
      "duration": 0.0775,
      "velocity": 106,
      "chip": "ym2612"
    },
    {
      "channel": 0,
      "note": 64,
      "start": 22.3181,
      "duration": 0.2407,
      "velocity": 103,
      "chip": "ym2612"
    },
    {
      "channel": 1,
      "note": 55,
      "start": 22.3187,
      "duration": 0.2407,
      "velocity": 127,
      "chip": "ym2612"
    },
    {
      "channel": 2,
      "note": 81,
      "start": 22.3192,
      "duration": 0.2407,
      "velocity": 103,
      "chip": "ym2612"
    },
    {
      "channel": 3,
      "note": 45,
      "start": 22.3198,
      "duration": 0.4218,
      "velocity": 106,
      "chip": "ym2612"
    },
    {
      "channel": 4,
      "note": 96,
      "start": 22.322,
      "duration": 0.2402,
      "velocity": 107,
      "chip": "ym2612"
    },
    {
      "channel": 0,
      "note": 72,
      "start": 22.559,
      "duration": 0.2809,
      "velocity": 103,
      "chip": "ym2612"
    },
    {
      "channel": 1,
      "note": 56,
      "start": 22.5595,
      "duration": 0.281,
      "velocity": 127,
      "chip": "ym2612"
    },
    {
      "channel": 2,
      "note": 88,
      "start": 22.5601,
      "duration": 0.281,
      "velocity": 103,
      "chip": "ym2612"
    },
    {
      "channel": 4,
      "note": 96,
      "start": 22.5623,
      "duration": 0.2814,
      "velocity": 107,
      "chip": "ym2612"
    },
    {
      "channel": 3,
      "note": 57,
      "start": 22.7418,
      "duration": 0.0999,
      "velocity": 106,
      "chip": "ym2612"
    },
    {
      "channel": 0,
      "note": 76,
      "start": 22.8401,
      "duration": 0.1998,
      "velocity": 103,
      "chip": "ym2612"
    },
    {
      "channel": 1,
      "note": 56,
      "start": 22.8407,
      "duration": 0.2994,
      "velocity": 127,
      "chip": "ym2612"
    },
    {
      "channel": 2,
      "note": 91,
      "start": 22.8412,
      "duration": 0.1993,
      "velocity": 103,
      "chip": "ym2612"
    },
    {
      "channel": 3,
      "note": 55,
      "start": 22.8418,
      "duration": 0.2008,
      "velocity": 106,
      "chip": "ym2612"
    },
    {
      "channel": 4,
      "note": 96,
      "start": 22.844,
      "duration": 0.3,
      "velocity": 107,
      "chip": "ym2612"
    },
    {
      "channel": 0,
      "note": 71,
      "start": 23.0401,
      "duration": 3.7276,
      "velocity": 102,
      "chip": "ym2612"
    },
    {
      "channel": 2,
      "note": 87,
      "start": 23.0407,
      "duration": 3.7297,
      "velocity": 102,
      "chip": "ym2612"
    },
    {
      "channel": 3,
      "note": 57,
      "start": 23.0428,
      "duration": 0.2539,
      "velocity": 106,
      "chip": "ym2612"
    },
    {
      "channel": 1,
      "note": 57,
      "start": 23.1402,
      "duration": 0.2407,
      "velocity": 127,
      "chip": "ym2612"
    },
    {
      "channel": 4,
      "note": 96,
      "start": 23.1441,
      "duration": 0.2395,
      "velocity": 107,
      "chip": "ym2612"
    },
    {
      "channel": 3,
      "note": 45,
      "start": 23.2969,
      "duration": 0.0847,
      "velocity": 106,
      "chip": "ym2612"
    },
    {
      "channel": 1,
      "note": 57,
      "start": 23.3811,
      "duration": 0.4217,
      "velocity": 127,
      "chip": "ym2612"
    },
    {
      "channel": 3,
      "note": 57,
      "start": 23.3817,
      "duration": 0.4233,
      "velocity": 106,
      "chip": "ym2612"
    },
    {
      "channel": 4,
      "note": 96,
      "start": 23.3839,
      "duration": 0.2427,
      "velocity": 107,
      "chip": "ym2612"
    },
    {
      "channel": 4,
      "note": 96,
      "start": 23.6268,
      "duration": 0.2795,
      "velocity": 107,
      "chip": "ym2612"
    },
    {
      "channel": 1,
      "note": 55,
      "start": 23.803,
      "duration": 0.2999,
      "velocity": 127,
      "chip": "ym2612"
    },
    {
      "channel": 3,
      "note": 57,
      "start": 23.8052,
      "duration": 0.2999,
      "velocity": 106,
      "chip": "ym2612"
    },
    {
      "channel": 4,
      "note": 96,
      "start": 23.9065,
      "duration": 0.2781,
      "velocity": 107,
      "chip": "ym2612"
    },
    {
      "channel": 1,
      "note": 52,
      "start": 24.103,
      "duration": 0.0777,
      "velocity": 127,
      "chip": "ym2612"
    },
    {
      "channel": 3,
      "note": 45,
      "start": 24.1053,
      "duration": 0.2402,
      "velocity": 106,
      "chip": "ym2612"
    },
    {
      "channel": 1,
      "note": 55,
      "start": 24.1808,
      "duration": 0.2407,
      "velocity": 127,
      "chip": "ym2612"
    },
    {
      "channel": 4,
      "note": 96,
      "start": 24.1847,
      "duration": 0.2396,
      "velocity": 107,
      "chip": "ym2612"
    },
    {
      "channel": 3,
      "note": 57,
      "start": 24.3456,
      "duration": 0.0765,
      "velocity": 106,
      "chip": "ym2612"
    },
    {
      "channel": 1,
      "note": 55,
      "start": 24.4217,
      "duration": 0.2406,
      "velocity": 127,
      "chip": "ym2612"
    },
    {
      "channel": 3,
      "note": 45,
      "start": 24.4223,
      "duration": 0.4228,
      "velocity": 106,
      "chip": "ym2612"
    },
    {
      "channel": 4,
      "note": 96,
      "start": 24.4245,
      "duration": 0.24,
      "velocity": 107,
      "chip": "ym2612"
    },
    {
      "channel": 1,
      "note": 56,
      "start": 24.6624,
      "duration": 0.2811,
      "velocity": 127,
      "chip": "ym2612"
    },
    {
      "channel": 4,
      "note": 96,
      "start": 24.6647,
      "duration": 0.2816,
      "velocity": 107,
      "chip": "ym2612"
    },
    {
      "channel": 3,
      "note": 57,
      "start": 24.8454,
      "duration": 0.0988,
      "velocity": 106,
      "chip": "ym2612"
    },
    {
      "channel": 1,
      "note": 56,
      "start": 24.9437,
      "duration": 0.3001,
      "velocity": 127,
      "chip": "ym2612"
    },
    {
      "channel": 3,
      "note": 55,
      "start": 24.9443,
      "duration": 0.2009,
      "velocity": 106,
      "chip": "ym2612"
    },
    {
      "channel": 4,
      "note": 96,
      "start": 24.9465,
      "duration": 0.2996,
      "velocity": 107,
      "chip": "ym2612"
    },
    {
      "channel": 3,
      "note": 57,
      "start": 25.1454,
      "duration": 0.2549,
      "velocity": 106,
      "chip": "ym2612"
    },
    {
      "channel": 1,
      "note": 57,
      "start": 25.2439,
      "duration": 0.2406,
      "velocity": 127,
      "chip": "ym2612"
    },
    {
      "channel": 4,
      "note": 96,
      "start": 25.2462,
      "duration": 0.2411,
      "velocity": 107,
      "chip": "ym2612"
    },
    {
      "channel": 3,
      "note": 45,
      "start": 25.4005,
      "duration": 0.0847,
      "velocity": 106,
      "chip": "ym2612"
    },
    {
      "channel": 1,
      "note": 57,
      "start": 25.4847,
      "duration": 0.4228,
      "velocity": 127,
      "chip": "ym2612"
    },
    {
      "channel": 3,
      "note": 57,
      "start": 25.4854,
      "duration": 0.4243,
      "velocity": 106,
      "chip": "ym2612"
    },
    {
      "channel": 4,
      "note": 96,
      "start": 25.4875,
      "duration": 0.2403,
      "velocity": 107,
      "chip": "ym2612"
    },
    {
      "channel": 4,
      "note": 96,
      "start": 25.7279,
      "duration": 0.283,
      "velocity": 107,
      "chip": "ym2612"
    },
    {
      "channel": 1,
      "note": 55,
      "start": 25.9077,
      "duration": 0.2999,
      "velocity": 127,
      "chip": "ym2612"
    },
    {
      "channel": 3,
      "note": 57,
      "start": 25.9099,
      "duration": 0.2999,
      "velocity": 106,
      "chip": "ym2612"
    },
    {
      "channel": 4,
      "note": 96,
      "start": 26.0112,
      "duration": 0.2781,
      "velocity": 107,
      "chip": "ym2612"
    },
    {
      "channel": 1,
      "note": 52,
      "start": 26.2077,
      "duration": 0.0776,
      "velocity": 127,
      "chip": "ym2612"
    },
    {
      "channel": 3,
      "note": 45,
      "start": 26.2099,
      "duration": 0.2398,
      "velocity": 106,
      "chip": "ym2612"
    },
    {
      "channel": 1,
      "note": 55,
      "start": 26.2855,
      "duration": 0.2399,
      "velocity": 127,
      "chip": "ym2612"
    },
    {
      "channel": 4,
      "note": 96,
      "start": 26.2894,
      "duration": 0.2388,
      "velocity": 107,
      "chip": "ym2612"
    },
    {
      "channel": 3,
      "note": 57,
      "start": 26.4499,
      "duration": 0.0761,
      "velocity": 106,
      "chip": "ym2612"
    },
    {
      "channel": 1,
      "note": 55,
      "start": 26.5256,
      "duration": 0.2426,
      "velocity": 127,
      "chip": "ym2612"
    },
    {
      "channel": 3,
      "note": 45,
      "start": 26.5262,
      "duration": 0.4237,
      "velocity": 106,
      "chip": "ym2612"
    },
    {
      "channel": 4,
      "note": 96,
      "start": 26.5283,
      "duration": 0.2442,
      "velocity": 107,
      "chip": "ym2612"
    },
    {
      "channel": 0,
      "note": 50,
      "start": 26.7678,
      "duration": 0.0794,
      "velocity": 102,
      "chip": "ym2612"
    },
    {
      "channel": 1,
      "note": 56,
      "start": 26.7684,
      "duration": 0.2793,
      "velocity": 127,
      "chip": "ym2612"
    },
    {
      "channel": 2,
      "note": 74,
      "start": 26.7705,
      "duration": 0.0773,
      "velocity": 102,
      "chip": "ym2612"
    },
    {
      "channel": 4,
      "note": 96,
      "start": 26.7727,
      "duration": 0.2783,
      "velocity": 107,
      "chip": "ym2612"
    },
    {
      "channel": 0,
      "note": 48,
      "start": 26.8473,
      "duration": 0.0998,
      "velocity": 102,
      "chip": "ym2612"
    },
    {
      "channel": 2,
      "note": 72,
      "start": 26.848,
      "duration": 0.0997,
      "velocity": 102,
      "chip": "ym2612"
    },
    {
      "channel": 0,
      "note": 45,
      "start": 26.9473,
      "duration": 0.0999,
      "velocity": 102,
      "chip": "ym2612"
    },
    {
      "channel": 2,
      "note": 69,
      "start": 26.9479,
      "duration": 0.1004,
      "velocity": 102,
      "chip": "ym2612"
    },
    {
      "channel": 3,
      "note": 57,
      "start": 26.9501,
      "duration": 0.0988,
      "velocity": 106,
      "chip": "ym2612"
    },
    {
      "channel": 0,
      "note": 43,
      "start": 27.0473,
      "duration": 0.102,
      "velocity": 102,
      "chip": "ym2612"
    },
    {
      "channel": 1,
      "note": 56,
      "start": 27.0479,
      "duration": 0.2994,
      "velocity": 127,
      "chip": "ym2612"
    },
    {
      "channel": 2,
      "note": 67,
      "start": 27.0484,
      "duration": 0.1012,
      "velocity": 102,
      "chip": "ym2612"
    },
    {
      "channel": 3,
      "note": 55,
      "start": 27.049,
      "duration": 0.2008,
      "velocity": 106,
      "chip": "ym2612"
    },
    {
      "channel": 4,
      "note": 96,
      "start": 27.0512,
      "duration": 0.3,
      "velocity": 107,
      "chip": "ym2612"
    },
    {
      "channel": 0,
      "note": 43,
      "start": 27.1493,
      "duration": 0.0174,
      "velocity": 102,
      "chip": "ym2612"
    },
    {
      "channel": 2,
      "note": 67,
      "start": 27.1497,
      "duration": 0.0174,
      "velocity": 102,
      "chip": "ym2612"
    },
    {
      "channel": 0,
      "note": 43,
      "start": 27.1667,
      "duration": 0.02,
      "velocity": 102,
      "chip": "ym2612"
    },
    {
      "channel": 2,
      "note": 67,
      "start": 27.167,
      "duration": 0.02,
      "velocity": 102,
      "chip": "ym2612"
    },
    {
      "channel": 0,
      "note": 43,
      "start": 27.1867,
      "duration": 0.02,
      "velocity": 102,
      "chip": "ym2612"
    },
    {
      "channel": 2,
      "note": 67,
      "start": 27.187,
      "duration": 0.02,
      "velocity": 102,
      "chip": "ym2612"
    },
    {
      "channel": 0,
      "note": 43,
      "start": 27.2067,
      "duration": 0.02,
      "velocity": 102,
      "chip": "ym2612"
    },
    {
      "channel": 2,
      "note": 67,
      "start": 27.207,
      "duration": 0.02,
      "velocity": 102,
      "chip": "ym2612"
    },
    {
      "channel": 0,
      "note": 44,
      "start": 27.2267,
      "duration": 0.0205,
      "velocity": 102,
      "chip": "ym2612"
    },
    {
      "channel": 2,
      "note": 68,
      "start": 27.227,
      "duration": 0.0207,
      "velocity": 102,
      "chip": "ym2612"
    },
    {
      "channel": 0,
      "note": 45,
      "start": 27.2473,
      "duration": 2.204,
      "velocity": 103,
      "chip": "ym2612"
    },
    {
      "channel": 2,
      "note": 69,
      "start": 27.2479,
      "duration": 2.2061,
      "velocity": 103,
      "chip": "ym2612"
    },
    {
      "channel": 3,
      "note": 57,
      "start": 27.25,
      "duration": 0.2544,
      "velocity": 106,
      "chip": "ym2612"
    },
    {
      "channel": 1,
      "note": 57,
      "start": 27.3475,
      "duration": 0.2404,
      "velocity": 127,
      "chip": "ym2612"
    },
    {
      "channel": 4,
      "note": 96,
      "start": 27.3514,
      "duration": 0.2393,
      "velocity": 107,
      "chip": "ym2612"
    },
    {
      "channel": 3,
      "note": 45,
      "start": 27.5047,
      "duration": 0.0839,
      "velocity": 106,
      "chip": "ym2612"
    },
    {
      "channel": 1,
      "note": 57,
      "start": 27.5881,
      "duration": 0.422,
      "velocity": 127,
      "chip": "ym2612"
    },
    {
      "channel": 3,
      "note": 57,
      "start": 27.5887,
      "duration": 0.4236,
      "velocity": 106,
      "chip": "ym2612"
    },
    {
      "channel": 4,
      "note": 96,
      "start": 27.5908,
      "duration": 0.24,
      "velocity": 107,
      "chip": "ym2612"
    },
    {
      "channel": 4,
      "note": 96,
      "start": 27.8309,
      "duration": 0.2826,
      "velocity": 107,
      "chip": "ym2612"
    },
    {
      "channel": 1,
      "note": 55,
      "start": 28.0103,
      "duration": 0.2999,
      "velocity": 127,
      "chip": "ym2612"
    },
    {
      "channel": 3,
      "note": 57,
      "start": 28.0124,
      "duration": 0.2999,
      "velocity": 106,
      "chip": "ym2612"
    },
    {
      "channel": 4,
      "note": 96,
      "start": 28.1137,
      "duration": 0.2781,
      "velocity": 107,
      "chip": "ym2612"
    },
    {
      "channel": 1,
      "note": 52,
      "start": 28.3103,
      "duration": 0.0777,
      "velocity": 127,
      "chip": "ym2612"
    },
    {
      "channel": 3,
      "note": 45,
      "start": 28.3125,
      "duration": 0.2401,
      "velocity": 106,
      "chip": "ym2612"
    },
    {
      "channel": 1,
      "note": 55,
      "start": 28.3881,
      "duration": 0.2402,
      "velocity": 127,
      "chip": "ym2612"
    },
    {
      "channel": 4,
      "note": 96,
      "start": 28.392,
      "duration": 0.2391,
      "velocity": 107,
      "chip": "ym2612"
    },
    {
      "channel": 3,
      "note": 57,
      "start": 28.5529,
      "duration": 0.076,
      "velocity": 106,
      "chip": "ym2612"
    },
    {
      "channel": 1,
      "note": 55,
      "start": 28.6284,
      "duration": 0.2403,
      "velocity": 127,
      "chip": "ym2612"
    },
    {
      "channel": 3,
      "note": 45,
      "start": 28.629,
      "duration": 0.4222,
      "velocity": 106,
      "chip": "ym2612"
    },
    {
      "channel": 4,
      "note": 96,
      "start": 28.6312,
      "duration": 0.2397,
      "velocity": 107,
      "chip": "ym2612"
    },
    {
      "channel": 1,
      "note": 56,
      "start": 28.8689,
      "duration": 0.2808,
      "velocity": 127,
      "chip": "ym2612"
    },
    {
      "channel": 4,
      "note": 96,
      "start": 28.8711,
      "duration": 0.2813,
      "velocity": 107,
      "chip": "ym2612"
    },
    {
      "channel": 3,
      "note": 57,
      "start": 29.0515,
      "duration": 0.0988,
      "velocity": 106,
      "chip": "ym2612"
    },
    {
      "channel": 1,
      "note": 56,
      "start": 29.1498,
      "duration": 0.3021,
      "velocity": 127,
      "chip": "ym2612"
    },
    {
      "channel": 3,
      "note": 55,
      "start": 29.1504,
      "duration": 0.201,
      "velocity": 106,
      "chip": "ym2612"
    },
    {
      "channel": 4,
      "note": 96,
      "start": 29.1526,
      "duration": 0.3037,
      "velocity": 107,
      "chip": "ym2612"
    },
    {
      "channel": 3,
      "note": 57,
      "start": 29.3515,
      "duration": 0.2561,
      "velocity": 106,
      "chip": "ym2612"
    },
    {
      "channel": 0,
      "note": 64,
      "start": 29.4515,
      "duration": 0.4802,
      "velocity": 103,
      "chip": "ym2612"
    },
    {
      "channel": 1,
      "note": 57,
      "start": 29.4521,
      "duration": 0.2386,
      "velocity": 127,
      "chip": "ym2612"
    },
    {
      "channel": 2,
      "note": 81,
      "start": 29.4542,
      "duration": 0.4781,
      "velocity": 103,
      "chip": "ym2612"
    },
    {
      "channel": 4,
      "note": 96,
      "start": 29.4564,
      "duration": 0.237,
      "velocity": 107,
      "chip": "ym2612"
    },
    {
      "channel": 3,
      "note": 45,
      "start": 29.6078,
      "duration": 0.0836,
      "velocity": 106,
      "chip": "ym2612"
    },
    {
      "channel": 1,
      "note": 57,
      "start": 29.6909,
      "duration": 0.4219,
      "velocity": 127,
      "chip": "ym2612"
    },
    {
      "channel": 3,
      "note": 57,
      "start": 29.6915,
      "duration": 0.4235,
      "velocity": 106,
      "chip": "ym2612"
    },
    {
      "channel": 4,
      "note": 96,
      "start": 29.6937,
      "duration": 0.2408,
      "velocity": 107,
      "chip": "ym2612"
    },
    {
      "channel": 0,
      "note": 67,
      "start": 29.9319,
      "duration": 0.281,
      "velocity": 103,
      "chip": "ym2612"
    },
    {
      "channel": 2,
      "note": 83,
      "start": 29.9324,
      "duration": 0.281,
      "velocity": 103,
      "chip": "ym2612"
    },
    {
      "channel": 4,
      "note": 96,
      "start": 29.9347,
      "duration": 0.2827,
      "velocity": 107,
      "chip": "ym2612"
    },
    {
      "channel": 1,
      "note": 55,
      "start": 30.113,
      "duration": 0.2999,
      "velocity": 127,
      "chip": "ym2612"
    },
    {
      "channel": 3,
      "note": 57,
      "start": 30.1152,
      "duration": 0.2999,
      "velocity": 106,
      "chip": "ym2612"
    },
    {
      "channel": 0,
      "note": 64,
      "start": 30.213,
      "duration": 0.2775,
      "velocity": 103,
      "chip": "ym2612"
    },
    {
      "channel": 2,
      "note": 81,
      "start": 30.2137,
      "duration": 0.2779,
      "velocity": 103,
      "chip": "ym2612"
    },
    {
      "channel": 4,
      "note": 96,
      "start": 30.2175,
      "duration": 0.2779,
      "velocity": 107,
      "chip": "ym2612"
    },
    {
      "channel": 1,
      "note": 52,
      "start": 30.413,
      "duration": 0.078,
      "velocity": 127,
      "chip": "ym2612"
    },
    {
      "channel": 3,
      "note": 45,
      "start": 30.4152,
      "duration": 0.2404,
      "velocity": 106,
      "chip": "ym2612"
    },
    {
      "channel": 0,
      "note": 69,
      "start": 30.4906,
      "duration": 0.241,
      "velocity": 103,
      "chip": "ym2612"
    },
    {
      "channel": 1,
      "note": 55,
      "start": 30.4912,
      "duration": 0.2409,
      "velocity": 127,
      "chip": "ym2612"
    },
    {
      "channel": 2,
      "note": 84,
      "start": 30.4917,
      "duration": 0.241,
      "velocity": 103,
      "chip": "ym2612"
    },
    {
      "channel": 4,
      "note": 96,
      "start": 30.4956,
      "duration": 0.2398,
      "velocity": 107,
      "chip": "ym2612"
    },
    {
      "channel": 3,
      "note": 57,
      "start": 30.6558,
      "duration": 0.0773,
      "velocity": 106,
      "chip": "ym2612"
    },
    {
      "channel": 0,
      "note": 64,
      "start": 30.7317,
      "duration": 0.2408,
      "velocity": 103,
      "chip": "ym2612"
    },
    {
      "channel": 1,
      "note": 55,
      "start": 30.7323,
      "duration": 0.2408,
      "velocity": 127,
      "chip": "ym2612"
    },
    {
      "channel": 2,
      "note": 81,
      "start": 30.7328,
      "duration": 0.2408,
      "velocity": 103,
      "chip": "ym2612"
    },
    {
      "channel": 3,
      "note": 45,
      "start": 30.7334,
      "duration": 0.4222,
      "velocity": 106,
      "chip": "ym2612"
    },
    {
      "channel": 4,
      "note": 96,
      "start": 30.7355,
      "duration": 0.2403,
      "velocity": 107,
      "chip": "ym2612"
    },
    {
      "channel": 0,
      "note": 72,
      "start": 30.9727,
      "duration": 0.2812,
      "velocity": 103,
      "chip": "ym2612"
    },
    {
      "channel": 1,
      "note": 56,
      "start": 30.9732,
      "duration": 0.2812,
      "velocity": 127,
      "chip": "ym2612"
    },
    {
      "channel": 2,
      "note": 88,
      "start": 30.9738,
      "duration": 0.2813,
      "velocity": 103,
      "chip": "ym2612"
    },
    {
      "channel": 4,
      "note": 96,
      "start": 30.9761,
      "duration": 0.2817,
      "velocity": 107,
      "chip": "ym2612"
    },
    {
      "channel": 3,
      "note": 57,
      "start": 31.1558,
      "duration": 0.0999,
      "velocity": 106,
      "chip": "ym2612"
    },
    {
      "channel": 0,
      "note": 76,
      "start": 31.2541,
      "duration": 0.1998,
      "velocity": 103,
      "chip": "ym2612"
    },
    {
      "channel": 1,
      "note": 56,
      "start": 31.2547,
      "duration": 0.2994,
      "velocity": 127,
      "chip": "ym2612"
    },
    {
      "channel": 2,
      "note": 91,
      "start": 31.2552,
      "duration": 0.1993,
      "velocity": 103,
      "chip": "ym2612"
    },
    {
      "channel": 3,
      "note": 55,
      "start": 31.2558,
      "duration": 0.2009,
      "velocity": 106,
      "chip": "ym2612"
    },
    {
      "channel": 4,
      "note": 96,
      "start": 31.258,
      "duration": 0.3,
      "velocity": 107,
      "chip": "ym2612"
    },
    {
      "channel": 0,
      "note": 71,
      "start": 31.4541,
      "duration": 2.2048,
      "velocity": 102,
      "chip": "ym2612"
    },
    {
      "channel": 2,
      "note": 87,
      "start": 31.4547,
      "duration": 2.2069,
      "velocity": 102,
      "chip": "ym2612"
    },
    {
      "channel": 3,
      "note": 57,
      "start": 31.4569,
      "duration": 0.2542,
      "velocity": 106,
      "chip": "ym2612"
    },
    {
      "channel": 1,
      "note": 57,
      "start": 31.5542,
      "duration": 0.2411,
      "velocity": 127,
      "chip": "ym2612"
    },
    {
      "channel": 4,
      "note": 96,
      "start": 31.5581,
      "duration": 0.2399,
      "velocity": 107,
      "chip": "ym2612"
    },
    {
      "channel": 3,
      "note": 45,
      "start": 31.7113,
      "duration": 0.0846,
      "velocity": 106,
      "chip": "ym2612"
    },
    {
      "channel": 1,
      "note": 57,
      "start": 31.7955,
      "duration": 0.4214,
      "velocity": 127,
      "chip": "ym2612"
    },
    {
      "channel": 3,
      "note": 57,
      "start": 31.7961,
      "duration": 0.4229,
      "velocity": 106,
      "chip": "ym2612"
    },
    {
      "channel": 4,
      "note": 96,
      "start": 31.7982,
      "duration": 0.2423,
      "velocity": 107,
      "chip": "ym2612"
    },
    {
      "channel": 4,
      "note": 96,
      "start": 32.0407,
      "duration": 0.2795,
      "velocity": 107,
      "chip": "ym2612"
    },
    {
      "channel": 1,
      "note": 55,
      "start": 32.217,
      "duration": 0.2999,
      "velocity": 127,
      "chip": "ym2612"
    },
    {
      "channel": 3,
      "note": 57,
      "start": 32.2192,
      "duration": 0.2999,
      "velocity": 106,
      "chip": "ym2612"
    },
    {
      "channel": 4,
      "note": 96,
      "start": 32.3205,
      "duration": 0.2781,
      "velocity": 107,
      "chip": "ym2612"
    },
    {
      "channel": 1,
      "note": 52,
      "start": 32.517,
      "duration": 0.0777,
      "velocity": 127,
      "chip": "ym2612"
    },
    {
      "channel": 3,
      "note": 45,
      "start": 32.5193,
      "duration": 0.24,
      "velocity": 106,
      "chip": "ym2612"
    },
    {
      "channel": 1,
      "note": 55,
      "start": 32.5948,
      "duration": 0.2401,
      "velocity": 127,
      "chip": "ym2612"
    },
    {
      "channel": 4,
      "note": 96,
      "start": 32.5987,
      "duration": 0.239,
      "velocity": 107,
      "chip": "ym2612"
    },
    {
      "channel": 3,
      "note": 57,
      "start": 32.7595,
      "duration": 0.0761,
      "velocity": 106,
      "chip": "ym2612"
    },
    {
      "channel": 1,
      "note": 55,
      "start": 32.8351,
      "duration": 0.2411,
      "velocity": 127,
      "chip": "ym2612"
    },
    {
      "channel": 3,
      "note": 45,
      "start": 32.8357,
      "duration": 0.4231,
      "velocity": 106,
      "chip": "ym2612"
    },
    {
      "channel": 4,
      "note": 96,
      "start": 32.8379,
      "duration": 0.2405,
      "velocity": 107,
      "chip": "ym2612"
    },
    {
      "channel": 1,
      "note": 56,
      "start": 33.0763,
      "duration": 0.2809,
      "velocity": 127,
      "chip": "ym2612"
    },
    {
      "channel": 4,
      "note": 96,
      "start": 33.0786,
      "duration": 0.2814,
      "velocity": 107,
      "chip": "ym2612"
    },
    {
      "channel": 3,
      "note": 57,
      "start": 33.259,
      "duration": 0.0988,
      "velocity": 106,
      "chip": "ym2612"
    },
    {
      "channel": 1,
      "note": 56,
      "start": 33.3573,
      "duration": 0.3021,
      "velocity": 127,
      "chip": "ym2612"
    },
    {
      "channel": 3,
      "note": 55,
      "start": 33.358,
      "duration": 0.201,
      "velocity": 106,
      "chip": "ym2612"
    },
    {
      "channel": 4,
      "note": 96,
      "start": 33.3602,
      "duration": 0.3037,
      "velocity": 107,
      "chip": "ym2612"
    },
    {
      "channel": 3,
      "note": 57,
      "start": 33.5591,
      "duration": 0.2576,
      "velocity": 106,
      "chip": "ym2612"
    },
    {
      "channel": 0,
      "note": 57,
      "start": 33.659,
      "duration": 0.1549,
      "velocity": 102,
      "chip": "ym2612"
    },
    {
      "channel": 1,
      "note": 57,
      "start": 33.6597,
      "duration": 0.2398,
      "velocity": 127,
      "chip": "ym2612"
    },
    {
      "channel": 2,
      "note": 64,
      "start": 33.6618,
      "duration": 0.1528,
      "velocity": 102,
      "chip": "ym2612"
    },
    {
      "channel": 4,
      "note": 96,
      "start": 33.664,
      "duration": 0.2387,
      "velocity": 107,
      "chip": "ym2612"
    },
    {
      "channel": 0,
      "note": 57,
      "start": 33.8141,
      "duration": 0.0847,
      "velocity": 102,
      "chip": "ym2612"
    },
    {
      "channel": 2,
      "note": 64,
      "start": 33.8147,
      "duration": 0.0853,
      "velocity": 102,
      "chip": "ym2612"
    },
    {
      "channel": 3,
      "note": 45,
      "start": 33.8169,
      "duration": 0.0836,
      "velocity": 106,
      "chip": "ym2612"
    },
    {
      "channel": 0,
      "note": 55,
      "start": 33.899,
      "duration": 0.1546,
      "velocity": 102,
      "chip": "ym2612"
    },
    {
      "channel": 1,
      "note": 57,
      "start": 33.8996,
      "duration": 0.4213,
      "velocity": 127,
      "chip": "ym2612"
    },
    {
      "channel": 2,
      "note": 62,
      "start": 33.9001,
      "duration": 0.1542,
      "velocity": 102,
      "chip": "ym2612"
    },
    {
      "channel": 3,
      "note": 57,
      "start": 33.9007,
      "duration": 0.4224,
      "velocity": 106,
      "chip": "ym2612"
    },
    {
      "channel": 4,
      "note": 96,
      "start": 33.9029,
      "duration": 0.2382,
      "velocity": 107,
      "chip": "ym2612"
    },
    {
      "channel": 0,
      "note": 57,
      "start": 34.0538,
      "duration": 0.3672,
      "velocity": 102,
      "chip": "ym2612"
    },
    {
      "channel": 2,
      "note": 64,
      "start": 34.0544,
      "duration": 0.3671,
      "velocity": 102,
      "chip": "ym2612"
    },
    {
      "channel": 4,
      "note": 96,
      "start": 34.1413,
      "duration": 0.2842,
      "velocity": 107,
      "chip": "ym2612"
    },
    {
      "channel": 1,
      "note": 55,
      "start": 34.3211,
      "duration": 0.3004,
      "velocity": 127,
      "chip": "ym2612"
    },
    {
      "channel": 3,
      "note": 57,
      "start": 34.3233,
      "duration": 0.301,
      "velocity": 106,
      "chip": "ym2612"
    },
    {
      "channel": 0,
      "note": 45,
      "start": 34.4211,
      "duration": 0.1999,
      "velocity": 102,
      "chip": "ym2612"
    },
    {
      "channel": 2,
      "note": 52,
      "start": 34.4218,
      "duration": 0.2003,
      "velocity": 102,
      "chip": "ym2612"
    },
    {
      "channel": 4,
      "note": 96,
      "start": 34.4256,
      "duration": 0.2781,
      "velocity": 107,
      "chip": "ym2612"
    },
    {
      "channel": 0,
      "note": 45,
      "start": 34.6211,
      "duration": 0.0776,
      "velocity": 102,
      "chip": "ym2612"
    },
    {
      "channel": 1,
      "note": 52,
      "start": 34.6217,
      "duration": 0.0776,
      "velocity": 127,
      "chip": "ym2612"
    },
    {
      "channel": 2,
      "note": 52,
      "start": 34.6223,
      "duration": 0.0776,
      "velocity": 102,
      "chip": "ym2612"
    },
    {
      "channel": 3,
      "note": 45,
      "start": 34.6244,
      "duration": 0.2403,
      "velocity": 106,
      "chip": "ym2612"
    },
    {
      "channel": 0,
      "note": 43,
      "start": 34.6989,
      "duration": 0.1631,
      "velocity": 102,
      "chip": "ym2612"
    },
    {
      "channel": 1,
      "note": 55,
      "start": 34.6995,
      "duration": 0.2402,
      "velocity": 127,
      "chip": "ym2612"
    },
    {
      "channel": 2,
      "note": 50,
      "start": 34.7,
      "duration": 0.1626,
      "velocity": 102,
      "chip": "ym2612"
    },
    {
      "channel": 4,
      "note": 96,
      "start": 34.7039,
      "duration": 0.2386,
      "velocity": 107,
      "chip": "ym2612"
    },
    {
      "channel": 0,
      "note": 45,
      "start": 34.8621,
      "duration": 0.3184,
      "velocity": 102,
      "chip": "ym2612"
    },
    {
      "channel": 2,
      "note": 52,
      "start": 34.8627,
      "duration": 0.3189,
      "velocity": 102,
      "chip": "ym2612"
    },
    {
      "channel": 3,
      "note": 57,
      "start": 34.8649,
      "duration": 0.0754,
      "velocity": 106,
      "chip": "ym2612"
    },
    {
      "channel": 1,
      "note": 55,
      "start": 34.9399,
      "duration": 0.2413,
      "velocity": 127,
      "chip": "ym2612"
    },
    {
      "channel": 3,
      "note": 45,
      "start": 34.9404,
      "duration": 0.4243,
      "velocity": 106,
      "chip": "ym2612"
    },
    {
      "channel": 4,
      "note": 96,
      "start": 34.9426,
      "duration": 0.2413,
      "velocity": 107,
      "chip": "ym2612"
    },
    {
      "channel": 0,
      "note": 57,
      "start": 35.1807,
      "duration": 0.1812,
      "velocity": 102,
      "chip": "ym2612"
    },
    {
      "channel": 1,
      "note": 56,
      "start": 35.1813,
      "duration": 0.2812,
      "velocity": 127,
      "chip": "ym2612"
    },
    {
      "channel": 2,
      "note": 64,
      "start": 35.1818,
      "duration": 0.1807,
      "velocity": 102,
      "chip": "ym2612"
    },
    {
      "channel": 4,
      "note": 96,
      "start": 35.1841,
      "duration": 0.2817,
      "velocity": 107,
      "chip": "ym2612"
    },
    {
      "channel": 0,
      "note": 57,
      "start": 35.3621,
      "duration": 0.0999,
      "velocity": 102,
      "chip": "ym2612"
    },
    {
      "channel": 2,
      "note": 64,
      "start": 35.3627,
      "duration": 0.1004,
      "velocity": 102,
      "chip": "ym2612"
    },
    {
      "channel": 3,
      "note": 57,
      "start": 35.3649,
      "duration": 0.0988,
      "velocity": 106,
      "chip": "ym2612"
    },
    {
      "channel": 0,
      "note": 55,
      "start": 35.4621,
      "duration": 0.1998,
      "velocity": 102,
      "chip": "ym2612"
    },
    {
      "channel": 1,
      "note": 56,
      "start": 35.4627,
      "duration": 0.2994,
      "velocity": 127,
      "chip": "ym2612"
    },
    {
      "channel": 2,
      "note": 62,
      "start": 35.4632,
      "duration": 0.1993,
      "velocity": 102,
      "chip": "ym2612"
    },
    {
      "channel": 3,
      "note": 55,
      "start": 35.4638,
      "duration": 0.2009,
      "velocity": 106,
      "chip": "ym2612"
    },
    {
      "channel": 4,
      "note": 96,
      "start": 35.466,
      "duration": 0.3,
      "velocity": 107,
      "chip": "ym2612"
    },
    {
      "channel": 0,
      "note": 57,
      "start": 35.6621,
      "duration": 2.2052,
      "velocity": 122,
      "chip": "ym2612"
    },
    {
      "channel": 2,
      "note": 64,
      "start": 35.6627,
      "duration": 2.2088,
      "velocity": 127,
      "chip": "ym2612"
    },
    {
      "channel": 3,
      "note": 57,
      "start": 35.6649,
      "duration": 0.2544,
      "velocity": 106,
      "chip": "ym2612"
    },
    {
      "channel": 1,
      "note": 57,
      "start": 35.7623,
      "duration": 0.2405,
      "velocity": 127,
      "chip": "ym2612"
    },
    {
      "channel": 4,
      "note": 96,
      "start": 35.7662,
      "duration": 0.2393,
      "velocity": 107,
      "chip": "ym2612"
    },
    {
      "channel": 3,
      "note": 45,
      "start": 35.9195,
      "duration": 0.0839,
      "velocity": 106,
      "chip": "ym2612"
    },
    {
      "channel": 1,
      "note": 57,
      "start": 36.0029,
      "duration": 0.4216,
      "velocity": 127,
      "chip": "ym2612"
    },
    {
      "channel": 3,
      "note": 57,
      "start": 36.0035,
      "duration": 0.4232,
      "velocity": 106,
      "chip": "ym2612"
    },
    {
      "channel": 4,
      "note": 96,
      "start": 36.0057,
      "duration": 0.2391,
      "velocity": 107,
      "chip": "ym2612"
    },
    {
      "channel": 4,
      "note": 96,
      "start": 36.245,
      "duration": 0.283,
      "velocity": 107,
      "chip": "ym2612"
    },
    {
      "channel": 1,
      "note": 55,
      "start": 36.4248,
      "duration": 0.2999,
      "velocity": 127,
      "chip": "ym2612"
    },
    {
      "channel": 3,
      "note": 57,
      "start": 36.4269,
      "duration": 0.2999,
      "velocity": 106,
      "chip": "ym2612"
    },
    {
      "channel": 4,
      "note": 96,
      "start": 36.5282,
      "duration": 0.2782,
      "velocity": 107,
      "chip": "ym2612"
    },
    {
      "channel": 1,
      "note": 52,
      "start": 36.7248,
      "duration": 0.0778,
      "velocity": 127,
      "chip": "ym2612"
    },
    {
      "channel": 3,
      "note": 45,
      "start": 36.727,
      "duration": 0.2406,
      "velocity": 106,
      "chip": "ym2612"
    },
    {
      "channel": 1,
      "note": 55,
      "start": 36.8027,
      "duration": 0.241,
      "velocity": 127,
      "chip": "ym2612"
    },
    {
      "channel": 4,
      "note": 96,
      "start": 36.8066,
      "duration": 0.2399,
      "velocity": 107,
      "chip": "ym2612"
    },
    {
      "channel": 3,
      "note": 57,
      "start": 36.9678,
      "duration": 0.0765,
      "velocity": 106,
      "chip": "ym2612"
    },
    {
      "channel": 1,
      "note": 55,
      "start": 37.0438,
      "duration": 0.2408,
      "velocity": 127,
      "chip": "ym2612"
    },
    {
      "channel": 3,
      "note": 45,
      "start": 37.0445,
      "duration": 0.4227,
      "velocity": 106,
      "chip": "ym2612"
    },
    {
      "channel": 4,
      "note": 96,
      "start": 37.0466,
      "duration": 0.2402,
      "velocity": 107,
      "chip": "ym2612"
    },
    {
      "channel": 1,
      "note": 56,
      "start": 37.2848,
      "duration": 0.2808,
      "velocity": 127,
      "chip": "ym2612"
    },
    {
      "channel": 4,
      "note": 96,
      "start": 37.287,
      "duration": 0.2813,
      "velocity": 107,
      "chip": "ym2612"
    },
    {
      "channel": 3,
      "note": 57,
      "start": 37.4674,
      "duration": 0.0988,
      "velocity": 106,
      "chip": "ym2612"
    },
    {
      "channel": 1,
      "note": 56,
      "start": 37.5657,
      "duration": 0.3037,
      "velocity": 107,
      "chip": "ym2612"
    },
    {
      "channel": 3,
      "note": 55,
      "start": 37.5664,
      "duration": 0.201,
      "velocity": 106,
      "chip": "ym2612"
    },
    {
      "channel": 4,
      "note": 96,
      "start": 37.5685,
      "duration": 0.3052,
      "velocity": 107,
      "chip": "ym2612"
    },
    {
      "channel": 3,
      "note": 57,
      "start": 37.7675,
      "duration": 0.2561,
      "velocity": 106,
      "chip": "ym2612"
    },
    {
      "channel": 0,
      "note": 45,
      "start": 37.8674,
      "duration": 0.4805,
      "velocity": 122,
      "chip": "ym2612"
    },
    {
      "channel": 1,
      "note": 40,
      "start": 37.8696,
      "duration": 1.0375,
      "velocity": 107,
      "chip": "ym2612"
    },
    {
      "channel": 2,
      "note": 57,
      "start": 37.8717,
      "duration": 0.2349,
      "velocity": 127,
      "chip": "ym2612"
    },
    {
      "channel": 4,
      "note": 96,
      "start": 37.8739,
      "duration": 0.2354,
      "velocity": 107,
      "chip": "ym2612"
    },
    {
      "channel": 3,
      "note": 45,
      "start": 38.0238,
      "duration": 0.0834,
      "velocity": 106,
      "chip": "ym2612"
    },
    {
      "channel": 2,
      "note": 57,
      "start": 38.1068,
      "duration": 1.7632,
      "velocity": 127,
      "chip": "ym2612"
    },
    {
      "channel": 3,
      "note": 57,
      "start": 38.1073,
      "duration": 0.4244,
      "velocity": 106,
      "chip": "ym2612"
    },
    {
      "channel": 4,
      "note": 96,
      "start": 38.1094,
      "duration": 0.2408,
      "velocity": 107,
      "chip": "ym2612"
    },
    {
      "channel": 0,
      "note": 43,
      "start": 38.3481,
      "duration": 0.1813,
      "velocity": 122,
      "chip": "ym2612"
    },
    {
      "channel": 4,
      "note": 96,
      "start": 38.3504,
      "duration": 0.2825,
      "velocity": 107,
      "chip": "ym2612"
    },
    {
      "channel": 0,
      "note": 45,
      "start": 38.5296,
      "duration": 0.6182,
      "velocity": 122,
      "chip": "ym2612"
    },
    {
      "channel": 3,
      "note": 57,
      "start": 38.5318,
      "duration": 0.2994,
      "velocity": 106,
      "chip": "ym2612"
    },
    {
      "channel": 4,
      "note": 96,
      "start": 38.6331,
      "duration": 0.2779,
      "velocity": 107,
      "chip": "ym2612"
    },
    {
      "channel": 3,
      "note": 45,
      "start": 38.8313,
      "duration": 0.2409,
      "velocity": 106,
      "chip": "ym2612"
    },
    {
      "channel": 1,
      "note": 40,
      "start": 38.9073,
      "duration": 1.0633,
      "velocity": 107,
      "chip": "ym2612"
    },
    {
      "channel": 4,
      "note": 96,
      "start": 38.9112,
      "duration": 0.2395,
      "velocity": 107,
      "chip": "ym2612"
    },
    {
      "channel": 3,
      "note": 57,
      "start": 39.0724,
      "duration": 0.0761,
      "velocity": 106,
      "chip": "ym2612"
    },
    {
      "channel": 0,
      "note": 45,
      "start": 39.148,
      "duration": 0.2409,
      "velocity": 122,
      "chip": "ym2612"
    },
    {
      "channel": 3,
      "note": 45,
      "start": 39.1487,
      "duration": 0.4235,
      "velocity": 106,
      "chip": "ym2612"
    },
    {
      "channel": 4,
      "note": 96,
      "start": 39.1508,
      "duration": 0.2404,
      "velocity": 107,
      "chip": "ym2612"
    },
    {
      "channel": 0,
      "note": 43,
      "start": 39.3891,
      "duration": 0.1807,
      "velocity": 122,
      "chip": "ym2612"
    },
    {
      "channel": 4,
      "note": 96,
      "start": 39.3914,
      "duration": 0.2808,
      "velocity": 107,
      "chip": "ym2612"
    },
    {
      "channel": 0,
      "note": 45,
      "start": 39.57,
      "duration": 0.3999,
      "velocity": 122,
      "chip": "ym2612"
    },
    {
      "channel": 3,
      "note": 57,
      "start": 39.5723,
      "duration": 0.0978,
      "velocity": 106,
      "chip": "ym2612"
    },
    {
      "channel": 3,
      "note": 55,
      "start": 39.6702,
      "duration": 0.2019,
      "velocity": 106,
      "chip": "ym2612"
    },
    {
      "channel": 4,
      "note": 96,
      "start": 39.6724,
      "duration": 0.3026,
      "velocity": 107,
      "chip": "ym2612"
    },
    {
      "channel": 2,
      "note": 55,
      "start": 39.8702,
      "duration": 0.101,
      "velocity": 127,
      "chip": "ym2612"
    },
    {
      "channel": 3,
      "note": 57,
      "start": 39.8723,
      "duration": 0.255,
      "velocity": 106,
      "chip": "ym2612"
    },
    {
      "channel": 0,
      "note": 45,
      "start": 39.9702,
      "duration": 0.4817,
      "velocity": 122,
      "chip": "ym2612"
    },
    {
      "channel": 1,
      "note": 40,
      "start": 39.9707,
      "duration": 1.0403,
      "velocity": 107,
      "chip": "ym2612"
    },
    {
      "channel": 2,
      "note": 57,
      "start": 39.9712,
      "duration": 0.2399,
      "velocity": 127,
      "chip": "ym2612"
    },
    {
      "channel": 4,
      "note": 96,
      "start": 39.9751,
      "duration": 0.2386,
      "velocity": 107,
      "chip": "ym2612"
    },
    {
      "channel": 3,
      "note": 45,
      "start": 40.1275,
      "duration": 0.0842,
      "velocity": 106,
      "chip": "ym2612"
    },
    {
      "channel": 2,
      "note": 57,
      "start": 40.2113,
      "duration": 1.8639,
      "velocity": 127,
      "chip": "ym2612"
    },
    {
      "channel": 3,
      "note": 57,
      "start": 40.2119,
      "duration": 0.4236,
      "velocity": 106,
      "chip": "ym2612"
    },
    {
      "channel": 4,
      "note": 96,
      "start": 40.214,
      "duration": 0.2402,
      "velocity": 107,
      "chip": "ym2612"
    },
    {
      "channel": 0,
      "note": 43,
      "start": 40.452,
      "duration": 0.1812,
      "velocity": 122,
      "chip": "ym2612"
    },
    {
      "channel": 4,
      "note": 96,
      "start": 40.4544,
      "duration": 0.2824,
      "velocity": 107,
      "chip": "ym2612"
    },
    {
      "channel": 0,
      "note": 45,
      "start": 40.6334,
      "duration": 0.6184,
      "velocity": 122,
      "chip": "ym2612"
    },
    {
      "channel": 3,
      "note": 57,
      "start": 40.6357,
      "duration": 0.2994,
      "velocity": 106,
      "chip": "ym2612"
    },
    {
      "channel": 4,
      "note": 96,
      "start": 40.737,
      "duration": 0.2781,
      "velocity": 107,
      "chip": "ym2612"
    },
    {
      "channel": 3,
      "note": 45,
      "start": 40.9352,
      "duration": 0.2411,
      "velocity": 106,
      "chip": "ym2612"
    },
    {
      "channel": 1,
      "note": 40,
      "start": 41.0112,
      "duration": 1.0634,
      "velocity": 107,
      "chip": "ym2612"
    },
    {
      "channel": 4,
      "note": 96,
      "start": 41.0151,
      "duration": 0.2396,
      "velocity": 107,
      "chip": "ym2612"
    },
    {
      "channel": 3,
      "note": 57,
      "start": 41.1764,
      "duration": 0.0762,
      "velocity": 106,
      "chip": "ym2612"
    },
    {
      "channel": 0,
      "note": 45,
      "start": 41.2521,
      "duration": 0.2408,
      "velocity": 122,
      "chip": "ym2612"
    },
    {
      "channel": 3,
      "note": 45,
      "start": 41.2528,
      "duration": 0.4232,
      "velocity": 106,
      "chip": "ym2612"
    },
    {
      "channel": 4,
      "note": 96,
      "start": 41.2549,
      "duration": 0.2402,
      "velocity": 107,
      "chip": "ym2612"
    },
    {
      "channel": 0,
      "note": 43,
      "start": 41.493,
      "duration": 0.1807,
      "velocity": 122,
      "chip": "ym2612"
    },
    {
      "channel": 4,
      "note": 96,
      "start": 41.4953,
      "duration": 0.2808,
      "velocity": 107,
      "chip": "ym2612"
    },
    {
      "channel": 0,
      "note": 45,
      "start": 41.674,
      "duration": 0.4,
      "velocity": 122,
      "chip": "ym2612"
    },
    {
      "channel": 3,
      "note": 57,
      "start": 41.6762,
      "duration": 0.0978,
      "velocity": 106,
      "chip": "ym2612"
    },
    {
      "channel": 3,
      "note": 55,
      "start": 41.7741,
      "duration": 0.2015,
      "velocity": 106,
      "chip": "ym2612"
    },
    {
      "channel": 4,
      "note": 96,
      "start": 41.7763,
      "duration": 0.3012,
      "velocity": 107,
      "chip": "ym2612"
    },
    {
      "channel": 3,
      "note": 57,
      "start": 41.9758,
      "duration": 0.2553,
      "velocity": 106,
      "chip": "ym2612"
    },
    {
      "channel": 0,
      "note": 50,
      "start": 42.0742,
      "duration": 0.4821,
      "velocity": 122,
      "chip": "ym2612"
    },
    {
      "channel": 1,
      "note": 40,
      "start": 42.0748,
      "duration": 1.0403,
      "velocity": 107,
      "chip": "ym2612"
    },
    {
      "channel": 2,
      "note": 62,
      "start": 42.0754,
      "duration": 0.2397,
      "velocity": 127,
      "chip": "ym2612"
    },
    {
      "channel": 4,
      "note": 96,
      "start": 42.0777,
      "duration": 0.2402,
      "velocity": 107,
      "chip": "ym2612"
    },
    {
      "channel": 3,
      "note": 45,
      "start": 42.2312,
      "duration": 0.0845,
      "velocity": 106,
      "chip": "ym2612"
    },
    {
      "channel": 2,
      "note": 62,
      "start": 42.3153,
      "duration": 1.7624,
      "velocity": 127,
      "chip": "ym2612"
    },
    {
      "channel": 3,
      "note": 57,
      "start": 42.3159,
      "duration": 0.4241,
      "velocity": 106,
      "chip": "ym2612"
    },
    {
      "channel": 4,
      "note": 96,
      "start": 42.318,
      "duration": 0.2406,
      "velocity": 107,
      "chip": "ym2612"
    },
    {
      "channel": 0,
      "note": 48,
      "start": 42.5565,
      "duration": 0.1812,
      "velocity": 122,
      "chip": "ym2612"
    },
    {
      "channel": 4,
      "note": 96,
      "start": 42.5588,
      "duration": 0.2824,
      "velocity": 107,
      "chip": "ym2612"
    },
    {
      "channel": 0,
      "note": 50,
      "start": 42.7379,
      "duration": 0.6178,
      "velocity": 122,
      "chip": "ym2612"
    },
    {
      "channel": 3,
      "note": 57,
      "start": 42.7401,
      "duration": 0.2994,
      "velocity": 106,
      "chip": "ym2612"
    },
    {
      "channel": 4,
      "note": 96,
      "start": 42.8414,
      "duration": 0.2777,
      "velocity": 107,
      "chip": "ym2612"
    },
    {
      "channel": 3,
      "note": 45,
      "start": 43.0397,
      "duration": 0.2404,
      "velocity": 106,
      "chip": "ym2612"
    },
    {
      "channel": 1,
      "note": 40,
      "start": 43.1153,
      "duration": 1.0629,
      "velocity": 107,
      "chip": "ym2612"
    },
    {
      "channel": 4,
      "note": 96,
      "start": 43.1192,
      "duration": 0.2394,
      "velocity": 107,
      "chip": "ym2612"
    },
    {
      "channel": 3,
      "note": 57,
      "start": 43.2802,
      "duration": 0.0762,
      "velocity": 106,
      "chip": "ym2612"
    },
    {
      "channel": 0,
      "note": 50,
      "start": 43.3559,
      "duration": 0.2408,
      "velocity": 122,
      "chip": "ym2612"
    },
    {
      "channel": 3,
      "note": 45,
      "start": 43.3566,
      "duration": 0.4232,
      "velocity": 106,
      "chip": "ym2612"
    },
    {
      "channel": 4,
      "note": 96,
      "start": 43.3587,
      "duration": 0.2402,
      "velocity": 107,
      "chip": "ym2612"
    },
    {
      "channel": 0,
      "note": 48,
      "start": 43.5968,
      "duration": 0.1807,
      "velocity": 122,
      "chip": "ym2612"
    },
    {
      "channel": 4,
      "note": 96,
      "start": 43.5991,
      "duration": 0.2808,
      "velocity": 107,
      "chip": "ym2612"
    },
    {
      "channel": 0,
      "note": 50,
      "start": 43.7778,
      "duration": 0.3999,
      "velocity": 122,
      "chip": "ym2612"
    },
    {
      "channel": 3,
      "note": 57,
      "start": 43.78,
      "duration": 0.0978,
      "velocity": 106,
      "chip": "ym2612"
    },
    {
      "channel": 3,
      "note": 55,
      "start": 43.8779,
      "duration": 0.2019,
      "velocity": 106,
      "chip": "ym2612"
    },
    {
      "channel": 4,
      "note": 96,
      "start": 43.8801,
      "duration": 0.3026,
      "velocity": 107,
      "chip": "ym2612"
    },
    {
      "channel": 2,
      "note": 60,
      "start": 44.0779,
      "duration": 0.1009,
      "velocity": 127,
      "chip": "ym2612"
    },
    {
      "channel": 3,
      "note": 57,
      "start": 44.08,
      "duration": 0.2542,
      "velocity": 106,
      "chip": "ym2612"
    },
    {
      "channel": 0,
      "note": 50,
      "start": 44.1779,
      "duration": 0.4807,
      "velocity": 122,
      "chip": "ym2612"
    },
    {
      "channel": 1,
      "note": 40,
      "start": 44.1784,
      "duration": 1.0393,
      "velocity": 107,
      "chip": "ym2612"
    },
    {
      "channel": 2,
      "note": 62,
      "start": 44.179,
      "duration": 0.2391,
      "velocity": 127,
      "chip": "ym2612"
    },
    {
      "channel": 4,
      "note": 96,
      "start": 44.1829,
      "duration": 0.2379,
      "velocity": 107,
      "chip": "ym2612"
    },
    {
      "channel": 3,
      "note": 45,
      "start": 44.3344,
      "duration": 0.0842,
      "velocity": 106,
      "chip": "ym2612"
    },
    {
      "channel": 2,
      "note": 62,
      "start": 44.4182,
      "duration": 0.2409,
      "velocity": 127,
      "chip": "ym2612"
    },
    {
      "channel": 3,
      "note": 57,
      "start": 44.4188,
      "duration": 0.4233,
      "velocity": 106,
      "chip": "ym2612"
    },
    {
      "channel": 4,
      "note": 96,
      "start": 44.4209,
      "duration": 0.2404,
      "velocity": 107,
      "chip": "ym2612"
    },
    {
      "channel": 0,
      "note": 48,
      "start": 44.6587,
      "duration": 0.1811,
      "velocity": 122,
      "chip": "ym2612"
    },
    {
      "channel": 2,
      "note": 64,
      "start": 44.6593,
      "duration": 0.2807,
      "velocity": 127,
      "chip": "ym2612"
    },
    {
      "channel": 4,
      "note": 96,
      "start": 44.6615,
      "duration": 0.2823,
      "velocity": 107,
      "chip": "ym2612"
    },
    {
      "channel": 0,
      "note": 50,
      "start": 44.84,
      "duration": 0.6184,
      "velocity": 122,
      "chip": "ym2612"
    },
    {
      "channel": 3,
      "note": 57,
      "start": 44.8422,
      "duration": 0.2994,
      "velocity": 106,
      "chip": "ym2612"
    },
    {
      "channel": 2,
      "note": 64,
      "start": 44.9402,
      "duration": 0.278,
      "velocity": 127,
      "chip": "ym2612"
    },
    {
      "channel": 4,
      "note": 96,
      "start": 44.944,
      "duration": 0.278,
      "velocity": 107,
      "chip": "ym2612"
    },
    {
      "channel": 3,
      "note": 45,
      "start": 45.1418,
      "duration": 0.2408,
      "velocity": 106,
      "chip": "ym2612"
    },
    {
      "channel": 1,
      "note": 40,
      "start": 45.2178,
      "duration": 1.0643,
      "velocity": 107,
      "chip": "ym2612"
    },
    {
      "channel": 2,
      "note": 65,
      "start": 45.2184,
      "duration": 0.2407,
      "velocity": 127,
      "chip": "ym2612"
    },
    {
      "channel": 4,
      "note": 96,
      "start": 45.2222,
      "duration": 0.2395,
      "velocity": 107,
      "chip": "ym2612"
    },
    {
      "channel": 3,
      "note": 57,
      "start": 45.3827,
      "duration": 0.0768,
      "velocity": 106,
      "chip": "ym2612"
    },
    {
      "channel": 0,
      "note": 50,
      "start": 45.4586,
      "duration": 0.2415,
      "velocity": 122,
      "chip": "ym2612"
    },
    {
      "channel": 2,
      "note": 65,
      "start": 45.4592,
      "duration": 0.2415,
      "velocity": 127,
      "chip": "ym2612"
    },
    {
      "channel": 3,
      "note": 45,
      "start": 45.4598,
      "duration": 0.4237,
      "velocity": 106,
      "chip": "ym2612"
    },
    {
      "channel": 4,
      "note": 96,
      "start": 45.462,
      "duration": 0.2409,
      "velocity": 107,
      "chip": "ym2612"
    },
    {
      "channel": 0,
      "note": 48,
      "start": 45.7002,
      "duration": 0.181,
      "velocity": 122,
      "chip": "ym2612"
    },
    {
      "channel": 2,
      "note": 67,
      "start": 45.7008,
      "duration": 0.2806,
      "velocity": 127,
      "chip": "ym2612"
    },
    {
      "channel": 4,
      "note": 96,
      "start": 45.7031,
      "duration": 0.281,
      "velocity": 107,
      "chip": "ym2612"
    },
    {
      "channel": 0,
      "note": 50,
      "start": 45.8814,
      "duration": 0.4,
      "velocity": 122,
      "chip": "ym2612"
    },
    {
      "channel": 3,
      "note": 57,
      "start": 45.8837,
      "duration": 0.0983,
      "velocity": 106,
      "chip": "ym2612"
    },
    {
      "channel": 2,
      "note": 67,
      "start": 45.9816,
      "duration": 0.301,
      "velocity": 127,
      "chip": "ym2612"
    },
    {
      "channel": 3,
      "note": 55,
      "start": 45.9821,
      "duration": 0.201,
      "velocity": 106,
      "chip": "ym2612"
    },
    {
      "channel": 4,
      "note": 96,
      "start": 45.9843,
      "duration": 0.3026,
      "velocity": 107,
      "chip": "ym2612"
    },
    {
      "channel": 3,
      "note": 57,
      "start": 46.1832,
      "duration": 0.1016,
      "velocity": 112,
      "chip": "ym2612"
    },
    {
      "channel": 0,
      "note": 45,
      "start": 46.2816,
      "duration": 0.4822,
      "velocity": 122,
      "chip": "ym2612"
    },
    {
      "channel": 1,
      "note": 40,
      "start": 46.2822,
      "duration": 1.0397,
      "velocity": 107,
      "chip": "ym2612"
    },
    {
      "channel": 2,
      "note": 57,
      "start": 46.2828,
      "duration": 0.24,
      "velocity": 127,
      "chip": "ym2612"
    },
    {
      "channel": 3,
      "note": 22,
      "start": 46.285,
      "duration": 0.1522,
      "velocity": 112,
      "chip": "ym2612"
    },
    {
      "channel": 4,
      "note": 96,
      "start": 46.2871,
      "duration": 0.2384,
      "velocity": 107,
      "chip": "ym2612"
    },
    {
      "channel": 3,
      "note": 22,
      "start": 46.4373,
      "duration": 0.0861,
      "velocity": 112,
      "chip": "ym2612"
    },
    {
      "channel": 2,
      "note": 57,
      "start": 46.523,
      "duration": 1.7624,
      "velocity": 127,
      "chip": "ym2612"
    },
    {
      "channel": 3,
      "note": 22,
      "start": 46.5236,
      "duration": 0.1545,
      "velocity": 112,
      "chip": "ym2612"
    },
    {
      "channel": 4,
      "note": 96,
      "start": 46.5257,
      "duration": 0.2404,
      "velocity": 107,
      "chip": "ym2612"
    },
    {
      "channel": 3,
      "note": 22,
      "start": 46.6783,
      "duration": 0.2671,
      "velocity": 112,
      "chip": "ym2612"
    },
    {
      "channel": 0,
      "note": 43,
      "start": 46.764,
      "duration": 0.1807,
      "velocity": 122,
      "chip": "ym2612"
    },
    {
      "channel": 4,
      "note": 96,
      "start": 46.7663,
      "duration": 0.2803,
      "velocity": 107,
      "chip": "ym2612"
    },
    {
      "channel": 0,
      "note": 45,
      "start": 46.9449,
      "duration": 0.618,
      "velocity": 122,
      "chip": "ym2612"
    },
    {
      "channel": 3,
      "note": 22,
      "start": 46.9456,
      "duration": 0.2994,
      "velocity": 112,
      "chip": "ym2612"
    },
    {
      "channel": 4,
      "note": 96,
      "start": 47.0468,
      "duration": 0.2773,
      "velocity": 107,
      "chip": "ym2612"
    },
    {
      "channel": 3,
      "note": 22,
      "start": 47.2451,
      "duration": 0.241,
      "velocity": 112,
      "chip": "ym2612"
    },
    {
      "channel": 1,
      "note": 40,
      "start": 47.3221,
      "duration": 1.0639,
      "velocity": 107,
      "chip": "ym2612"
    },
    {
      "channel": 4,
      "note": 96,
      "start": 47.3243,
      "duration": 0.2414,
      "velocity": 107,
      "chip": "ym2612"
    },
    {
      "channel": 3,
      "note": 22,
      "start": 47.4863,
      "duration": 0.0773,
      "velocity": 112,
      "chip": "ym2612"
    },
    {
      "channel": 0,
      "note": 45,
      "start": 47.5631,
      "duration": 0.2408,
      "velocity": 122,
      "chip": "ym2612"
    },
    {
      "channel": 3,
      "note": 22,
      "start": 47.5637,
      "duration": 0.1631,
      "velocity": 112,
      "chip": "ym2612"
    },
    {
      "channel": 4,
      "note": 96,
      "start": 47.5659,
      "duration": 0.2403,
      "velocity": 107,
      "chip": "ym2612"
    },
    {
      "channel": 3,
      "note": 22,
      "start": 47.7271,
      "duration": 0.2589,
      "velocity": 112,
      "chip": "ym2612"
    },
    {
      "channel": 0,
      "note": 43,
      "start": 47.8041,
      "duration": 0.1811,
      "velocity": 122,
      "chip": "ym2612"
    },
    {
      "channel": 4,
      "note": 96,
      "start": 47.8064,
      "duration": 0.2807,
      "velocity": 107,
      "chip": "ym2612"
    },
    {
      "channel": 0,
      "note": 45,
      "start": 47.9854,
      "duration": 0.3999,
      "velocity": 122,
      "chip": "ym2612"
    },
    {
      "channel": 3,
      "note": 22,
      "start": 47.9861,
      "duration": 0.2999,
      "velocity": 112,
      "chip": "ym2612"
    },
    {
      "channel": 4,
      "note": 96,
      "start": 48.0873,
      "duration": 0.3019,
      "velocity": 107,
      "chip": "ym2612"
    },
    {
      "channel": 2,
      "note": 55,
      "start": 48.2855,
      "duration": 0.101,
      "velocity": 127,
      "chip": "ym2612"
    },
    {
      "channel": 3,
      "note": 22,
      "start": 48.2861,
      "duration": 0.101,
      "velocity": 112,
      "chip": "ym2612"
    },
    {
      "channel": 0,
      "note": 45,
      "start": 48.3855,
      "duration": 0.4816,
      "velocity": 122,
      "chip": "ym2612"
    },
    {
      "channel": 1,
      "note": 40,
      "start": 48.3861,
      "duration": 1.0389,
      "velocity": 107,
      "chip": "ym2612"
    },
    {
      "channel": 2,
      "note": 57,
      "start": 48.3866,
      "duration": 0.2398,
      "velocity": 127,
      "chip": "ym2612"
    },
    {
      "channel": 3,
      "note": 22,
      "start": 48.3872,
      "duration": 0.1531,
      "velocity": 112,
      "chip": "ym2612"
    },
    {
      "channel": 4,
      "note": 96,
      "start": 48.3894,
      "duration": 0.2398,
      "velocity": 107,
      "chip": "ym2612"
    },
    {
      "channel": 3,
      "note": 22,
      "start": 48.5405,
      "duration": 0.0866,
      "velocity": 112,
      "chip": "ym2612"
    },
    {
      "channel": 2,
      "note": 57,
      "start": 48.6266,
      "duration": 11.9733,
      "velocity": 127,
      "chip": "ym2612"
    },
    {
      "channel": 3,
      "note": 22,
      "start": 48.6271,
      "duration": 0.1537,
      "velocity": 112,
      "chip": "ym2612"
    },
    {
      "channel": 4,
      "note": 96,
      "start": 48.6293,
      "duration": 0.2401,
      "velocity": 107,
      "chip": "ym2612"
    },
    {
      "channel": 3,
      "note": 22,
      "start": 48.781,
      "duration": 0.2678,
      "velocity": 112,
      "chip": "ym2612"
    },
    {
      "channel": 0,
      "note": 43,
      "start": 48.8673,
      "duration": 0.1809,
      "velocity": 122,
      "chip": "ym2612"
    },
    {
      "channel": 4,
      "note": 96,
      "start": 48.8696,
      "duration": 0.2804,
      "velocity": 107,
      "chip": "ym2612"
    },
    {
      "channel": 0,
      "note": 45,
      "start": 49.0484,
      "duration": 0.6174,
      "velocity": 122,
      "chip": "ym2612"
    },
    {
      "channel": 3,
      "note": 22,
      "start": 49.049,
      "duration": 0.2994,
      "velocity": 112,
      "chip": "ym2612"
    },
    {
      "channel": 4,
      "note": 96,
      "start": 49.1502,
      "duration": 0.2771,
      "velocity": 107,
      "chip": "ym2612"
    },
    {
      "channel": 3,
      "note": 22,
      "start": 49.3486,
      "duration": 0.2405,
      "velocity": 112,
      "chip": "ym2612"
    },
    {
      "channel": 1,
      "note": 40,
      "start": 49.4252,
      "duration": 3.1204,
      "velocity": 127,
      "chip": "ym2612"
    },
    {
      "channel": 4,
      "note": 96,
      "start": 49.4275,
      "duration": 0.2411,
      "velocity": 107,
      "chip": "ym2612"
    },
    {
      "channel": 3,
      "note": 22,
      "start": 49.5892,
      "duration": 0.0772,
      "velocity": 112,
      "chip": "ym2612"
    },
    {
      "channel": 0,
      "note": 45,
      "start": 49.6659,
      "duration": 0.2404,
      "velocity": 122,
      "chip": "ym2612"
    },
    {
      "channel": 3,
      "note": 22,
      "start": 49.6666,
      "duration": 0.0772,
      "velocity": 112,
      "chip": "ym2612"
    },
    {
      "channel": 4,
      "note": 96,
      "start": 49.6688,
      "duration": 0.2398,
      "velocity": 107,
      "chip": "ym2612"
    },
    {
      "channel": 3,
      "note": 22,
      "start": 49.744,
      "duration": 0.0854,
      "velocity": 112,
      "chip": "ym2612"
    },
    {
      "channel": 3,
      "note": 22,
      "start": 49.8295,
      "duration": 0.2585,
      "velocity": 112,
      "chip": "ym2612"
    },
    {
      "channel": 0,
      "note": 43,
      "start": 49.9063,
      "duration": 0.181,
      "velocity": 122,
      "chip": "ym2612"
    },
    {
      "channel": 4,
      "note": 96,
      "start": 49.9087,
      "duration": 0.2805,
      "velocity": 107,
      "chip": "ym2612"
    },
    {
      "channel": 0,
      "note": 45,
      "start": 50.0875,
      "duration": 10.5124,
      "velocity": 122,
      "chip": "ym2612"
    },
    {
      "channel": 3,
      "note": 22,
      "start": 50.0882,
      "duration": 0.2994,
      "velocity": 112,
      "chip": "ym2612"
    },
    {
      "channel": 4,
      "note": 96,
      "start": 50.1894,
      "duration": 0.3005,
      "velocity": 107,
      "chip": "ym2612"
    },
    {
      "channel": 3,
      "note": 22,
      "start": 50.3878,
      "duration": 0.0999,
      "velocity": 112,
      "chip": "ym2612"
    },
    {
      "channel": 3,
      "note": 22,
      "start": 50.4879,
      "duration": 0.1544,
      "velocity": 112,
      "chip": "ym2612"
    },
    {
      "channel": 4,
      "note": 96,
      "start": 50.49,
      "duration": 0.2408,
      "velocity": 107,
      "chip": "ym2612"
    },
    {
      "channel": 3,
      "note": 22,
      "start": 50.6425,
      "duration": 0.0861,
      "velocity": 112,
      "chip": "ym2612"
    },
    {
      "channel": 3,
      "note": 22,
      "start": 50.7288,
      "duration": 0.1998,
      "velocity": 112,
      "chip": "ym2612"
    },
    {
      "channel": 4,
      "note": 96,
      "start": 50.7309,
      "duration": 0.2766,
      "velocity": 107,
      "chip": "ym2612"
    },
    {
      "channel": 3,
      "note": 22,
      "start": 50.9288,
      "duration": 0.258,
      "velocity": 112,
      "chip": "ym2612"
    },
    {
      "channel": 4,
      "note": 96,
      "start": 51.0077,
      "duration": 0.2581,
      "velocity": 107,
      "chip": "ym2612"
    },
    {
      "channel": 3,
      "note": 22,
      "start": 51.1871,
      "duration": 0.2408,
      "velocity": 112,
      "chip": "ym2612"
    },
    {
      "channel": 4,
      "note": 96,
      "start": 51.266,
      "duration": 0.2408,
      "velocity": 107,
      "chip": "ym2612"
    },
    {
      "channel": 3,
      "note": 22,
      "start": 51.428,
      "duration": 0.258,
      "velocity": 112,
      "chip": "ym2612"
    },
    {
      "channel": 4,
      "note": 96,
      "start": 51.5069,
      "duration": 0.2586,
      "velocity": 107,
      "chip": "ym2612"
    },
    {
      "channel": 3,
      "note": 22,
      "start": 51.6863,
      "duration": 0.0771,
      "velocity": 112,
      "chip": "ym2612"
    },
    {
      "channel": 3,
      "note": 22,
      "start": 51.7635,
      "duration": 0.1635,
      "velocity": 112,
      "chip": "ym2612"
    },
    {
      "channel": 4,
      "note": 96,
      "start": 51.7657,
      "duration": 0.2404,
      "velocity": 107,
      "chip": "ym2612"
    },
    {
      "channel": 3,
      "note": 22,
      "start": 51.9272,
      "duration": 0.2585,
      "velocity": 112,
      "chip": "ym2612"
    },
    {
      "channel": 4,
      "note": 96,
      "start": 52.0062,
      "duration": 0.2583,
      "velocity": 107,
      "chip": "ym2612"
    },
    {
      "channel": 3,
      "note": 22,
      "start": 52.1859,
      "duration": 0.2581,
      "velocity": 112,
      "chip": "ym2612"
    },
    {
      "channel": 4,
      "note": 96,
      "start": 52.2647,
      "duration": 0.2831,
      "velocity": 107,
      "chip": "ym2612"
    },
    {
      "channel": 3,
      "note": 22,
      "start": 52.4441,
      "duration": 0.257,
      "velocity": 106,
      "chip": "ym2612"
    },
    {
      "channel": 1,
      "note": 57,
      "start": 52.5457,
      "duration": 0.2393,
      "velocity": 127,
      "chip": "ym2612"
    },
    {
      "channel": 4,
      "note": 96,
      "start": 52.548,
      "duration": 0.2397,
      "velocity": 107,
      "chip": "ym2612"
    },
    {
      "channel": 3,
      "note": 45,
      "start": 52.7013,
      "duration": 0.0844,
      "velocity": 106,
      "chip": "ym2612"
    },
    {
      "channel": 1,
      "note": 57,
      "start": 52.7852,
      "duration": 7.8147,
      "velocity": 127,
      "chip": "ym2612"
    },
    {
      "channel": 3,
      "note": 57,
      "start": 52.7858,
      "duration": 7.8141,
      "velocity": 1,
      "chip": "ym2612"
    },
    {
      "channel": 4,
      "note": 96,
      "start": 52.7879,
      "duration": 0.2398,
      "velocity": 107,
      "chip": "ym2612"
    }
  ]
}