{
  "track_name": "11 - Information, Day 8- Death Alley",
  "duration_sec": 75.308,
  "sample_rate": 44100,
  "note_count": 947,
  "unique_pitches": 22,
  "pitch_range": 48,
  "avg_note_duration": 0.144,
  "reconstruction_stats": {
    "notes_reconstructed": 947,
    "keyon_events": 947,
    "keyoff_events": 947,
    "orphan_keyons": 0,
    "unique_pitches": 22,
    "pitch_range": 48,
    "avg_duration_sec": 0.144
  },
  "metadata": {
    "source": "V\\Vectorman\\11 - Information, Day 8- Death Alley.vgz"
  },
  "notes": [
    {
      "channel": 0,
      "note": 88,
      "start": 0.0,
      "duration": 0.0,
      "velocity": 111,
      "chip": "ym2612"
    },
    {
      "channel": 1,
      "note": 52,
      "start": 0.0,
      "duration": 0.0,
      "velocity": 111,
      "chip": "ym2612"
    },
    {
      "channel": 1,
      "note": 52,
      "start": 0.0,
      "duration": 0.0,
      "velocity": 111,
      "chip": "ym2612"
    },
    {
      "channel": 2,
      "note": 77,
      "start": 0.0,
      "duration": 0.0,
      "velocity": 1,
      "chip": "ym2612"
    },
    {
      "channel": 5,
      "note": 52,
      "start": 0.0,
      "duration": 0.0,
      "velocity": 1,
      "chip": "ym2612"
    },
    {
      "channel": 5,
      "note": 52,
      "start": 0.0,
      "duration": 0.4863,
      "velocity": 127,
      "chip": "ym2612"
    },
    {
      "channel": 2,
      "note": 77,
      "start": 0.0059,
      "duration": 0.4139,
      "velocity": 121,
      "chip": "ym2612"
    },
    {
      "channel": 0,
      "note": 64,
      "start": 0.1245,
      "duration": 0.0782,
      "velocity": 111,
      "chip": "ym2612"
    },
    {
      "channel": 1,
      "note": 64,
      "start": 0.2414,
      "duration": 0.0949,
      "velocity": 111,
      "chip": "ym2612"
    },
    {
      "channel": 0,
      "note": 64,
      "start": 0.3727,
      "duration": 0.08,
      "velocity": 111,
      "chip": "ym2612"
    },
    {
      "channel": 1,
      "note": 64,
      "start": 0.5059,
      "duration": 0.0802,
      "velocity": 111,
      "chip": "ym2612"
    },
    {
      "channel": 0,
      "note": 76,
      "start": 0.6394,
      "duration": 0.08,
      "velocity": 111,
      "chip": "ym2612"
    },
    {
      "channel": 1,
      "note": 52,
      "start": 0.7726,
      "duration": 0.0802,
      "velocity": 111,
      "chip": "ym2612"
    },
    {
      "channel": 0,
      "note": 76,
      "start": 0.8894,
      "duration": 0.0967,
      "velocity": 111,
      "chip": "ym2612"
    },
    {
      "channel": 1,
      "note": 52,
      "start": 1.0227,
      "duration": 0.0801,
      "velocity": 111,
      "chip": "ym2612"
    },
    {
      "channel": 5,
      "note": 52,
      "start": 1.0258,
      "duration": 0.6105,
      "velocity": 127,
      "chip": "ym2612"
    },
    {
      "channel": 0,
      "note": 64,
      "start": 1.1563,
      "duration": 0.0797,
      "velocity": 111,
      "chip": "ym2612"
    },
    {
      "channel": 1,
      "note": 64,
      "start": 1.2897,
      "duration": 0.0797,
      "velocity": 111,
      "chip": "ym2612"
    },
    {
      "channel": 0,
      "note": 64,
      "start": 1.4227,
      "duration": 0.0802,
      "velocity": 111,
      "chip": "ym2612"
    },
    {
      "channel": 1,
      "note": 76,
      "start": 1.5393,
      "duration": 0.0968,
      "velocity": 111,
      "chip": "ym2612"
    },
    {
      "channel": 0,
      "note": 76,
      "start": 1.6727,
      "duration": 0.0802,
      "velocity": 111,
      "chip": "ym2612"
    },
    {
      "channel": 1,
      "note": 52,
      "start": 1.8059,
      "duration": 0.0802,
      "velocity": 111,
      "chip": "ym2612"
    },
    {
      "channel": 0,
      "note": 88,
      "start": 1.9393,
      "duration": 0.08,
      "velocity": 111,
      "chip": "ym2612"
    },
    {
      "channel": 1,
      "note": 52,
      "start": 2.0726,
      "duration": 0.0803,
      "velocity": 111,
      "chip": "ym2612"
    },
    {
      "channel": 5,
      "note": 52,
      "start": 2.0764,
      "duration": 0.5765,
      "velocity": 127,
      "chip": "ym2612"
    },
    {
      "channel": 0,
      "note": 64,
      "start": 2.1893,
      "duration": 0.0968,
      "velocity": 111,
      "chip": "ym2612"
    },
    {
      "channel": 1,
      "note": 64,
      "start": 2.3227,
      "duration": 0.0802,
      "velocity": 111,
      "chip": "ym2612"
    },
    {
      "channel": 0,
      "note": 64,
      "start": 2.4561,
      "duration": 0.0802,
      "velocity": 111,
      "chip": "ym2612"
    },
    {
      "channel": 1,
      "note": 64,
      "start": 2.5892,
      "duration": 0.0802,
      "velocity": 111,
      "chip": "ym2612"
    },
    {
      "channel": 0,
      "note": 76,
      "start": 2.7227,
      "duration": 0.08,
      "velocity": 111,
      "chip": "ym2612"
    },
    {
      "channel": 1,
      "note": 52,
      "start": 2.8393,
      "duration": 0.0968,
      "velocity": 111,
      "chip": "ym2612"
    },
    {
      "channel": 0,
      "note": 76,
      "start": 2.9726,
      "duration": 0.0802,
      "velocity": 111,
      "chip": "ym2612"
    },
    {
      "channel": 1,
      "note": 52,
      "start": 3.106,
      "duration": 0.0802,
      "velocity": 111,
      "chip": "ym2612"
    },
    {
      "channel": 0,
      "note": 64,
      "start": 3.2393,
      "duration": 0.0802,
      "velocity": 111,
      "chip": "ym2612"
    },
    {
      "channel": 1,
      "note": 64,
      "start": 3.3727,
      "duration": 0.0802,
      "velocity": 111,
      "chip": "ym2612"
    },
    {
      "channel": 0,
      "note": 64,
      "start": 3.4893,
      "duration": 0.0968,
      "velocity": 111,
      "chip": "ym2612"
    },
    {
      "channel": 1,
      "note": 76,
      "start": 3.6225,
      "duration": 0.0804,
      "velocity": 111,
      "chip": "ym2612"
    },
    {
      "channel": 0,
      "note": 76,
      "start": 3.7561,
      "duration": 0.0801,
      "velocity": 111,
      "chip": "ym2612"
    },
    {
      "channel": 1,
      "note": 52,
      "start": 3.8893,
      "duration": 0.0802,
      "velocity": 111,
      "chip": "ym2612"
    },
    {
      "channel": 0,
      "note": 88,
      "start": 4.0227,
      "duration": 0.08,
      "velocity": 111,
      "chip": "ym2612"
    },
    {
      "channel": 1,
      "note": 52,
      "start": 4.1393,
      "duration": 0.0969,
      "velocity": 111,
      "chip": "ym2612"
    },
    {
      "channel": 5,
      "note": 52,
      "start": 4.1426,
      "duration": 0.5604,
      "velocity": 127,
      "chip": "ym2612"
    },
    {
      "channel": 2,
      "note": 77,
      "start": 4.1458,
      "duration": 0.4741,
      "velocity": 121,
      "chip": "ym2612"
    },
    {
      "channel": 0,
      "note": 64,
      "start": 4.2727,
      "duration": 0.08,
      "velocity": 111,
      "chip": "ym2612"
    },
    {
      "channel": 1,
      "note": 64,
      "start": 4.4061,
      "duration": 0.08,
      "velocity": 111,
      "chip": "ym2612"
    },
    {
      "channel": 0,
      "note": 64,
      "start": 4.5393,
      "duration": 0.0801,
      "velocity": 111,
      "chip": "ym2612"
    },
    {
      "channel": 1,
      "note": 64,
      "start": 4.6727,
      "duration": 0.0801,
      "velocity": 111,
      "chip": "ym2612"
    },
    {
      "channel": 0,
      "note": 76,
      "start": 4.7894,
      "duration": 0.0966,
      "velocity": 111,
      "chip": "ym2612"
    },
    {
      "channel": 1,
      "note": 52,
      "start": 4.9226,
      "duration": 0.0803,
      "velocity": 111,
      "chip": "ym2612"
    },
    {
      "channel": 0,
      "note": 76,
      "start": 5.0561,
      "duration": 0.08,
      "velocity": 111,
      "chip": "ym2612"
    },
    {
      "channel": 1,
      "note": 52,
      "start": 5.1893,
      "duration": 0.0802,
      "velocity": 111,
      "chip": "ym2612"
    },
    {
      "channel": 5,
      "note": 52,
      "start": 5.1922,
      "duration": 0.5607,
      "velocity": 127,
      "chip": "ym2612"
    },
    {
      "channel": 0,
      "note": 64,
      "start": 5.3231,
      "duration": 0.0796,
      "velocity": 111,
      "chip": "ym2612"
    },
    {
      "channel": 1,
      "note": 64,
      "start": 5.4396,
      "duration": 0.0965,
      "velocity": 111,
      "chip": "ym2612"
    },
    {
      "channel": 0,
      "note": 64,
      "start": 5.5727,
      "duration": 0.08,
      "velocity": 111,
      "chip": "ym2612"
    },
    {
      "channel": 1,
      "note": 76,
      "start": 5.7061,
      "duration": 0.08,
      "velocity": 111,
      "chip": "ym2612"
    },
    {
      "channel": 0,
      "note": 76,
      "start": 5.8394,
      "duration": 0.08,
      "velocity": 111,
      "chip": "ym2612"
    },
    {
      "channel": 1,
      "note": 52,
      "start": 5.9727,
      "duration": 0.0802,
      "velocity": 111,
      "chip": "ym2612"
    },
    {
      "channel": 0,
      "note": 88,
      "start": 6.0895,
      "duration": 0.0966,
      "velocity": 111,
      "chip": "ym2612"
    },
    {
      "channel": 1,
      "note": 52,
      "start": 6.2226,
      "duration": 0.0802,
      "velocity": 111,
      "chip": "ym2612"
    },
    {
      "channel": 5,
      "note": 52,
      "start": 6.2259,
      "duration": 0.5605,
      "velocity": 127,
      "chip": "ym2612"
    },
    {
      "channel": 0,
      "note": 64,
      "start": 6.3561,
      "duration": 0.08,
      "velocity": 111,
      "chip": "ym2612"
    },
    {
      "channel": 1,
      "note": 64,
      "start": 6.4894,
      "duration": 0.08,
      "velocity": 111,
      "chip": "ym2612"
    },
    {
      "channel": 0,
      "note": 64,
      "start": 6.6227,
      "duration": 0.08,
      "velocity": 111,
      "chip": "ym2612"
    },
    {
      "channel": 1,
      "note": 64,
      "start": 6.7393,
      "duration": 0.0968,
      "velocity": 111,
      "chip": "ym2612"
    },
    {
      "channel": 0,
      "note": 76,
      "start": 6.8727,
      "duration": 0.08,
      "velocity": 111,
      "chip": "ym2612"
    },
    {
      "channel": 1,
      "note": 52,
      "start": 7.0059,
      "duration": 0.0802,
      "velocity": 111,
      "chip": "ym2612"
    },
    {
      "channel": 0,
      "note": 76,
      "start": 7.1393,
      "duration": 0.0802,
      "velocity": 111,
      "chip": "ym2612"
    },
    {
      "channel": 1,
      "note": 52,
      "start": 7.2727,
      "duration": 0.0802,
      "velocity": 111,
      "chip": "ym2612"
    },
    {
      "channel": 0,
      "note": 64,
      "start": 7.3894,
      "duration": 0.0966,
      "velocity": 111,
      "chip": "ym2612"
    },
    {
      "channel": 1,
      "note": 64,
      "start": 7.5225,
      "duration": 0.0803,
      "velocity": 111,
      "chip": "ym2612"
    },
    {
      "channel": 0,
      "note": 64,
      "start": 7.656,
      "duration": 0.08,
      "velocity": 111,
      "chip": "ym2612"
    },
    {
      "channel": 1,
      "note": 76,
      "start": 7.7893,
      "duration": 0.0803,
      "velocity": 111,
      "chip": "ym2612"
    },
    {
      "channel": 0,
      "note": 76,
      "start": 7.9227,
      "duration": 0.08,
      "velocity": 111,
      "chip": "ym2612"
    },
    {
      "channel": 1,
      "note": 52,
      "start": 8.0393,
      "duration": 0.0968,
      "velocity": 111,
      "chip": "ym2612"
    },
    {
      "channel": 0,
      "note": 88,
      "start": 8.1727,
      "duration": 0.08,
      "velocity": 111,
      "chip": "ym2612"
    },
    {
      "channel": 3,
      "note": 64,
      "start": 8.3083,
      "duration": 2.0111,
      "velocity": 119,
      "chip": "ym2612"
    },
    {
      "channel": 4,
      "note": 52,
      "start": 8.3132,
      "duration": 0.0565,
      "velocity": 118,
      "chip": "ym2612"
    },
    {
      "channel": 1,
      "note": 52,
      "start": 8.3156,
      "duration": 0.0704,
      "velocity": 111,
      "chip": "ym2612"
    },
    {
      "channel": 5,
      "note": 52,
      "start": 8.319,
      "duration": 0.5008,
      "velocity": 127,
      "chip": "ym2612"
    },
    {
      "channel": 0,
      "note": 64,
      "start": 8.4394,
      "duration": 0.0802,
      "velocity": 111,
      "chip": "ym2612"
    },
    {
      "channel": 1,
      "note": 64,
      "start": 8.556,
      "duration": 0.0968,
      "velocity": 111,
      "chip": "ym2612"
    },
    {
      "channel": 0,
      "note": 64,
      "start": 8.6894,
      "duration": 0.08,
      "velocity": 111,
      "chip": "ym2612"
    },
    {
      "channel": 1,
      "note": 64,
      "start": 8.8228,
      "duration": 0.0801,
      "velocity": 111,
      "chip": "ym2612"
    },
    {
      "channel": 0,
      "note": 76,
      "start": 8.956,
      "duration": 0.08,
      "velocity": 111,
      "chip": "ym2612"
    },
    {
      "channel": 4,
      "note": 52,
      "start": 9.0896,
      "duration": 0.0633,
      "velocity": 118,
      "chip": "ym2612"
    },
    {
      "channel": 1,
      "note": 52,
      "start": 9.0921,
      "duration": 0.0773,
      "velocity": 111,
      "chip": "ym2612"
    },
    {
      "channel": 0,
      "note": 76,
      "start": 9.2061,
      "duration": 0.0966,
      "velocity": 111,
      "chip": "ym2612"
    },
    {
      "channel": 4,
      "note": 52,
      "start": 9.34,
      "duration": 0.0629,
      "velocity": 118,
      "chip": "ym2612"
    },
    {
      "channel": 1,
      "note": 52,
      "start": 9.3424,
      "duration": 0.0771,
      "velocity": 111,
      "chip": "ym2612"
    },
    {
      "channel": 5,
      "note": 52,
      "start": 9.3456,
      "duration": 0.5573,
      "velocity": 127,
      "chip": "ym2612"
    },
    {
      "channel": 0,
      "note": 64,
      "start": 9.473,
      "duration": 0.0797,
      "velocity": 111,
      "chip": "ym2612"
    },
    {
      "channel": 1,
      "note": 64,
      "start": 9.6064,
      "duration": 0.0796,
      "velocity": 111,
      "chip": "ym2612"
    },
    {
      "channel": 0,
      "note": 64,
      "start": 9.7394,
      "duration": 0.08,
      "velocity": 111,
      "chip": "ym2612"
    },
    {
      "channel": 1,
      "note": 76,
      "start": 9.8561,
      "duration": 0.0968,
      "velocity": 111,
      "chip": "ym2612"
    },
    {
      "channel": 0,
      "note": 76,
      "start": 9.9893,
      "duration": 0.0802,
      "velocity": 111,
      "chip": "ym2612"
    },
    {
      "channel": 1,
      "note": 52,
      "start": 10.1227,
      "duration": 0.0802,
      "velocity": 111,
      "chip": "ym2612"
    },
    {
      "channel": 0,
      "note": 88,
      "start": 10.2561,
      "duration": 0.08,
      "velocity": 111,
      "chip": "ym2612"
    },
    {
      "channel": 3,
      "note": 52,
      "start": 10.3899,
      "duration": 0.763,
      "velocity": 119,
      "chip": "ym2612"
    },
    {
      "channel": 4,
      "note": 52,
      "start": 10.3928,
      "duration": 0.0601,
      "velocity": 118,
      "chip": "ym2612"
    },
    {
      "channel": 1,
      "note": 52,
      "start": 10.3953,
      "duration": 0.0742,
      "velocity": 111,
      "chip": "ym2612"
    },
    {
      "channel": 5,
      "note": 52,
      "start": 10.399,
      "duration": 0.5206,
      "velocity": 127,
      "chip": "ym2612"
    },
    {
      "channel": 0,
      "note": 64,
      "start": 10.5061,
      "duration": 0.0966,
      "velocity": 111,
      "chip": "ym2612"
    },
    {
      "channel": 1,
      "note": 64,
      "start": 10.6394,
      "duration": 0.0802,
      "velocity": 111,
      "chip": "ym2612"
    },
    {
      "channel": 0,
      "note": 64,
      "start": 10.7728,
      "duration": 0.0799,
      "velocity": 111,
      "chip": "ym2612"
    },
    {
      "channel": 1,
      "note": 64,
      "start": 10.906,
      "duration": 0.0802,
      "velocity": 111,
      "chip": "ym2612"
    },
    {
      "channel": 0,
      "note": 76,
      "start": 11.0395,
      "duration": 0.0799,
      "velocity": 111,
      "chip": "ym2612"
    },
    {
      "channel": 3,
      "note": 53,
      "start": 11.1564,
      "duration": 1.0464,
      "velocity": 119,
      "chip": "ym2612"
    },
    {
      "channel": 4,
      "note": 52,
      "start": 11.1594,
      "duration": 0.0602,
      "velocity": 118,
      "chip": "ym2612"
    },
    {
      "channel": 1,
      "note": 52,
      "start": 11.1618,
      "duration": 0.091,
      "velocity": 111,
      "chip": "ym2612"
    },
    {
      "channel": 0,
      "note": 76,
      "start": 11.2894,
      "duration": 0.0801,
      "velocity": 111,
      "chip": "ym2612"
    },
    {
      "channel": 4,
      "note": 52,
      "start": 11.423,
      "duration": 0.0633,
      "velocity": 118,
      "chip": "ym2612"
    },
    {
      "channel": 1,
      "note": 52,
      "start": 11.4254,
      "duration": 0.0773,
      "velocity": 111,
      "chip": "ym2612"
    },
    {
      "channel": 0,
      "note": 64,
      "start": 11.5561,
      "duration": 0.0799,
      "velocity": 111,
      "chip": "ym2612"
    },
    {
      "channel": 1,
      "note": 64,
      "start": 11.6893,
      "duration": 0.0801,
      "velocity": 111,
      "chip": "ym2612"
    },
    {
      "channel": 0,
      "note": 64,
      "start": 11.8061,
      "duration": 0.0968,
      "velocity": 111,
      "chip": "ym2612"
    },
    {
      "channel": 1,
      "note": 76,
      "start": 11.9393,
      "duration": 0.08,
      "velocity": 111,
      "chip": "ym2612"
    },
    {
      "channel": 0,
      "note": 76,
      "start": 12.0727,
      "duration": 0.08,
      "velocity": 111,
      "chip": "ym2612"
    },
    {
      "channel": 3,
      "note": 63,
      "start": 12.2064,
      "duration": 0.2465,
      "velocity": 119,
      "chip": "ym2612"
    },
    {
      "channel": 1,
      "note": 52,
      "start": 12.2089,
      "duration": 0.0773,
      "velocity": 111,
      "chip": "ym2612"
    },
    {
      "channel": 0,
      "note": 88,
      "start": 12.3393,
      "duration": 0.08,
      "velocity": 111,
      "chip": "ym2612"
    },
    {
      "channel": 3,
      "note": 64,
      "start": 12.4566,
      "duration": 2.0795,
      "velocity": 119,
      "chip": "ym2612"
    },
    {
      "channel": 4,
      "note": 52,
      "start": 12.4595,
      "duration": 0.06,
      "velocity": 118,
      "chip": "ym2612"
    },
    {
      "channel": 1,
      "note": 52,
      "start": 12.462,
      "duration": 0.0908,
      "velocity": 111,
      "chip": "ym2612"
    },
    {
      "channel": 5,
      "note": 52,
      "start": 12.4653,
      "duration": 0.5543,
      "velocity": 127,
      "chip": "ym2612"
    },
    {
      "channel": 0,
      "note": 64,
      "start": 12.5893,
      "duration": 0.08,
      "velocity": 111,
      "chip": "ym2612"
    },
    {
      "channel": 1,
      "note": 64,
      "start": 12.7227,
      "duration": 0.0801,
      "velocity": 111,
      "chip": "ym2612"
    },
    {
      "channel": 0,
      "note": 64,
      "start": 12.8561,
      "duration": 0.0801,
      "velocity": 111,
      "chip": "ym2612"
    },
    {
      "channel": 1,
      "note": 64,
      "start": 12.9893,
      "duration": 0.0801,
      "velocity": 111,
      "chip": "ym2612"
    },
    {
      "channel": 0,
      "note": 76,
      "start": 13.1061,
      "duration": 0.0967,
      "velocity": 111,
      "chip": "ym2612"
    },
    {
      "channel": 4,
      "note": 52,
      "start": 13.2395,
      "duration": 0.0634,
      "velocity": 118,
      "chip": "ym2612"
    },
    {
      "channel": 1,
      "note": 52,
      "start": 13.242,
      "duration": 0.0775,
      "velocity": 111,
      "chip": "ym2612"
    },
    {
      "channel": 0,
      "note": 76,
      "start": 13.3727,
      "duration": 0.0801,
      "velocity": 111,
      "chip": "ym2612"
    },
    {
      "channel": 4,
      "note": 52,
      "start": 13.5064,
      "duration": 0.0632,
      "velocity": 118,
      "chip": "ym2612"
    },
    {
      "channel": 1,
      "note": 52,
      "start": 13.5088,
      "duration": 0.0774,
      "velocity": 111,
      "chip": "ym2612"
    },
    {
      "channel": 5,
      "note": 52,
      "start": 13.512,
      "duration": 0.5744,
      "velocity": 127,
      "chip": "ym2612"
    },
    {
      "channel": 0,
      "note": 64,
      "start": 13.6397,
      "duration": 0.0798,
      "velocity": 111,
      "chip": "ym2612"
    },
    {
      "channel": 1,
      "note": 64,
      "start": 13.7564,
      "duration": 0.0965,
      "velocity": 111,
      "chip": "ym2612"
    },
    {
      "channel": 0,
      "note": 64,
      "start": 13.8893,
      "duration": 0.0801,
      "velocity": 111,
      "chip": "ym2612"
    },
    {
      "channel": 1,
      "note": 76,
      "start": 14.0227,
      "duration": 0.0802,
      "velocity": 111,
      "chip": "ym2612"
    },
    {
      "channel": 0,
      "note": 76,
      "start": 14.156,
      "duration": 0.08,
      "velocity": 111,
      "chip": "ym2612"
    },
    {
      "channel": 1,
      "note": 52,
      "start": 14.2893,
      "duration": 0.0802,
      "velocity": 111,
      "chip": "ym2612"
    },
    {
      "channel": 0,
      "note": 88,
      "start": 14.4061,
      "duration": 0.0968,
      "velocity": 111,
      "chip": "ym2612"
    },
    {
      "channel": 3,
      "note": 52,
      "start": 14.54,
      "duration": 0.7629,
      "velocity": 119,
      "chip": "ym2612"
    },
    {
      "channel": 4,
      "note": 52,
      "start": 14.543,
      "duration": 0.0598,
      "velocity": 118,
      "chip": "ym2612"
    },
    {
      "channel": 1,
      "note": 52,
      "start": 14.5455,
      "duration": 0.0739,
      "velocity": 111,
      "chip": "ym2612"
    },
    {
      "channel": 5,
      "note": 52,
      "start": 14.5489,
      "duration": 0.5375,
      "velocity": 127,
      "chip": "ym2612"
    },
    {
      "channel": 0,
      "note": 64,
      "start": 14.6727,
      "duration": 0.0801,
      "velocity": 111,
      "chip": "ym2612"
    },
    {
      "channel": 4,
      "note": 52,
      "start": 14.8068,
      "duration": 0.0628,
      "velocity": 118,
      "chip": "ym2612"
    },
    {
      "channel": 1,
      "note": 64,
      "start": 14.8092,
      "duration": 0.0771,
      "velocity": 111,
      "chip": "ym2612"
    },
    {
      "channel": 0,
      "note": 64,
      "start": 14.9393,
      "duration": 0.0801,
      "velocity": 111,
      "chip": "ym2612"
    },
    {
      "channel": 1,
      "note": 64,
      "start": 15.0559,
      "duration": 0.0969,
      "velocity": 111,
      "chip": "ym2612"
    },
    {
      "channel": 0,
      "note": 76,
      "start": 15.1893,
      "duration": 0.08,
      "velocity": 111,
      "chip": "ym2612"
    },
    {
      "channel": 3,
      "note": 53,
      "start": 15.323,
      "duration": 1.0302,
      "velocity": 119,
      "chip": "ym2612"
    },
    {
      "channel": 4,
      "note": 52,
      "start": 15.326,
      "duration": 0.0604,
      "velocity": 118,
      "chip": "ym2612"
    },
    {
      "channel": 1,
      "note": 52,
      "start": 15.3284,
      "duration": 0.0744,
      "velocity": 111,
      "chip": "ym2612"
    },
    {
      "channel": 0,
      "note": 76,
      "start": 15.456,
      "duration": 0.08,
      "velocity": 111,
      "chip": "ym2612"
    },
    {
      "channel": 4,
      "note": 52,
      "start": 15.5897,
      "duration": 0.0466,
      "velocity": 118,
      "chip": "ym2612"
    },
    {
      "channel": 1,
      "note": 52,
      "start": 15.5921,
      "duration": 0.0773,
      "velocity": 111,
      "chip": "ym2612"
    },
    {
      "channel": 0,
      "note": 64,
      "start": 15.7061,
      "duration": 0.0968,
      "velocity": 111,
      "chip": "ym2612"
    },
    {
      "channel": 1,
      "note": 64,
      "start": 15.844,
      "duration": 0.0052,
      "velocity": 111,
      "chip": "ym2612"
    },
    {
      "channel": 0,
      "note": 64,
      "start": 15.8566,
      "duration": 0.0633,
      "velocity": 111,
      "chip": "ym2612"
    },
    {
      "channel": 1,
      "note": 76,
      "start": 15.9731,
      "duration": 0.0802,
      "velocity": 111,
      "chip": "ym2612"
    },
    {
      "channel": 0,
      "note": 76,
      "start": 16.1065,
      "duration": 0.0801,
      "velocity": 111,
      "chip": "ym2612"
    },
    {
      "channel": 1,
      "note": 52,
      "start": 16.2246,
      "duration": 0.0085,
      "velocity": 111,
      "chip": "ym2612"
    },
    {
      "channel": 0,
      "note": 88,
      "start": 16.2379,
      "duration": 0.0651,
      "velocity": 111,
      "chip": "ym2612"
    },
    {
      "channel": 4,
      "note": 52,
      "start": 16.3567,
      "duration": 0.0632,
      "velocity": 118,
      "chip": "ym2612"
    },
    {
      "channel": 1,
      "note": 52,
      "start": 16.3592,
      "duration": 0.0774,
      "velocity": 111,
      "chip": "ym2612"
    },
    {
      "channel": 2,
      "note": 52,
      "start": 16.3626,
      "duration": 0.001,
      "velocity": 127,
      "chip": "ym2612"
    },
    {
      "channel": 2,
      "note": 77,
      "start": 16.3654,
      "duration": 0.4212,
      "velocity": 121,
      "chip": "ym2612"
    },
    {
      "channel": 0,
      "note": 64,
      "start": 16.4898,
      "duration": 0.0801,
      "velocity": 111,
      "chip": "ym2612"
    },
    {
      "channel": 1,
      "note": 64,
      "start": 16.6063,
      "duration": 0.0969,
      "velocity": 111,
      "chip": "ym2612"
    },
    {
      "channel": 0,
      "note": 64,
      "start": 16.7397,
      "duration": 0.0802,
      "velocity": 111,
      "chip": "ym2612"
    },
    {
      "channel": 1,
      "note": 64,
      "start": 16.8769,
      "duration": 0.0056,
      "velocity": 111,
      "chip": "ym2612"
    },
    {
      "channel": 0,
      "note": 76,
      "start": 16.8883,
      "duration": 0.0639,
      "velocity": 111,
      "chip": "ym2612"
    },
    {
      "channel": 4,
      "note": 52,
      "start": 17.0059,
      "duration": 0.0632,
      "velocity": 118,
      "chip": "ym2612"
    },
    {
      "channel": 1,
      "note": 52,
      "start": 17.0083,
      "duration": 0.0773,
      "velocity": 111,
      "chip": "ym2612"
    },
    {
      "channel": 0,
      "note": 76,
      "start": 17.1221,
      "duration": 0.0968,
      "velocity": 111,
      "chip": "ym2612"
    },
    {
      "channel": 4,
      "note": 52,
      "start": 17.2559,
      "duration": 0.0632,
      "velocity": 118,
      "chip": "ym2612"
    },
    {
      "channel": 1,
      "note": 52,
      "start": 17.2583,
      "duration": 0.0775,
      "velocity": 111,
      "chip": "ym2612"
    },
    {
      "channel": 3,
      "note": 52,
      "start": 17.2616,
      "duration": 0.518,
      "velocity": 127,
      "chip": "ym2612"
    },
    {
      "channel": 0,
      "note": 64,
      "start": 17.3893,
      "duration": 0.0796,
      "velocity": 111,
      "chip": "ym2612"
    },
    {
      "channel": 1,
      "note": 64,
      "start": 17.5226,
      "duration": 0.0798,
      "velocity": 111,
      "chip": "ym2612"
    },
    {
      "channel": 0,
      "note": 64,
      "start": 17.6556,
      "duration": 0.08,
      "velocity": 111,
      "chip": "ym2612"
    },
    {
      "channel": 1,
      "note": 76,
      "start": 17.7755,
      "duration": 0.0087,
      "velocity": 111,
      "chip": "ym2612"
    },
    {
      "channel": 0,
      "note": 76,
      "start": 17.7884,
      "duration": 0.0428,
      "velocity": 111,
      "chip": "ym2612"
    },
    {
      "channel": 1,
      "note": 52,
      "start": 17.8845,
      "duration": 0.08,
      "velocity": 111,
      "chip": "ym2612"
    },
    {
      "channel": 0,
      "note": 88,
      "start": 18.0178,
      "duration": 0.08,
      "velocity": 111,
      "chip": "ym2612"
    },
    {
      "channel": 2,
      "note": 52,
      "start": 18.1516,
      "duration": 0.5978,
      "velocity": 119,
      "chip": "ym2612"
    },
    {
      "channel": 4,
      "note": 52,
      "start": 18.1546,
      "duration": 0.0602,
      "velocity": 118,
      "chip": "ym2612"
    },
    {
      "channel": 1,
      "note": 52,
      "start": 18.157,
      "duration": 0.0743,
      "velocity": 111,
      "chip": "ym2612"
    },
    {
      "channel": 3,
      "note": 52,
      "start": 18.1607,
      "duration": 0.4872,
      "velocity": 127,
      "chip": "ym2612"
    },
    {
      "channel": 0,
      "note": 64,
      "start": 18.2678,
      "duration": 0.0967,
      "velocity": 111,
      "chip": "ym2612"
    },
    {
      "channel": 1,
      "note": 64,
      "start": 18.401,
      "duration": 0.0803,
      "velocity": 111,
      "chip": "ym2612"
    },
    {
      "channel": 0,
      "note": 64,
      "start": 18.5345,
      "duration": 0.08,
      "velocity": 111,
      "chip": "ym2612"
    },
    {
      "channel": 1,
      "note": 64,
      "start": 18.6712,
      "duration": 0.0065,
      "velocity": 111,
      "chip": "ym2612"
    },
    {
      "channel": 0,
      "note": 76,
      "start": 18.684,
      "duration": 0.0651,
      "velocity": 111,
      "chip": "ym2612"
    },
    {
      "channel": 2,
      "note": 53,
      "start": 18.7861,
      "duration": 0.9157,
      "velocity": 119,
      "chip": "ym2612"
    },
    {
      "channel": 4,
      "note": 52,
      "start": 18.7891,
      "duration": 0.0601,
      "velocity": 118,
      "chip": "ym2612"
    },
    {
      "channel": 1,
      "note": 52,
      "start": 18.7915,
      "duration": 0.091,
      "velocity": 111,
      "chip": "ym2612"
    },
    {
      "channel": 0,
      "note": 76,
      "start": 18.919,
      "duration": 0.08,
      "velocity": 111,
      "chip": "ym2612"
    },
    {
      "channel": 4,
      "note": 52,
      "start": 19.0531,
      "duration": 0.0628,
      "velocity": 118,
      "chip": "ym2612"
    },
    {
      "channel": 1,
      "note": 52,
      "start": 19.0556,
      "duration": 0.077,
      "velocity": 111,
      "chip": "ym2612"
    },
    {
      "channel": 0,
      "note": 64,
      "start": 19.1858,
      "duration": 0.0801,
      "velocity": 111,
      "chip": "ym2612"
    },
    {
      "channel": 1,
      "note": 64,
      "start": 19.3189,
      "duration": 0.0803,
      "velocity": 111,
      "chip": "ym2612"
    },
    {
      "channel": 0,
      "note": 64,
      "start": 19.4356,
      "duration": 0.0967,
      "velocity": 111,
      "chip": "ym2612"
    },
    {
      "channel": 1,
      "note": 76,
      "start": 19.5726,
      "duration": 0.0077,
      "velocity": 111,
      "chip": "ym2612"
    },
    {
      "channel": 0,
      "note": 76,
      "start": 19.5862,
      "duration": 0.0654,
      "velocity": 111,
      "chip": "ym2612"
    },
    {
      "channel": 2,
      "note": 63,
      "start": 19.7054,
      "duration": 0.2464,
      "velocity": 119,
      "chip": "ym2612"
    },
    {
      "channel": 1,
      "note": 52,
      "start": 19.708,
      "duration": 0.077,
      "velocity": 111,
      "chip": "ym2612"
    },
    {
      "channel": 0,
      "note": 88,
      "start": 19.8381,
      "duration": 0.0801,
      "velocity": 111,
      "chip": "ym2612"
    },
    {
      "channel": 4,
      "note": 52,
      "start": 19.9553,
      "duration": 0.0632,
      "velocity": 118,
      "chip": "ym2612"
    },
    {
      "channel": 1,
      "note": 52,
      "start": 19.9577,
      "duration": 0.0939,
      "velocity": 111,
      "chip": "ym2612"
    },
    {
      "channel": 3,
      "note": 52,
      "start": 19.9609,
      "duration": 0.5327,
      "velocity": 127,
      "chip": "ym2612"
    },
    {
      "channel": 2,
      "note": 77,
      "start": 19.9637,
      "duration": 0.5215,
      "velocity": 121,
      "chip": "ym2612"
    },
    {
      "channel": 0,
      "note": 64,
      "start": 20.0882,
      "duration": 0.08,
      "velocity": 111,
      "chip": "ym2612"
    },
    {
      "channel": 1,
      "note": 64,
      "start": 20.2214,
      "duration": 0.0803,
      "velocity": 111,
      "chip": "ym2612"
    },
    {
      "channel": 0,
      "note": 64,
      "start": 20.3549,
      "duration": 0.0802,
      "velocity": 111,
      "chip": "ym2612"
    },
    {
      "channel": 1,
      "note": 64,
      "start": 20.4915,
      "duration": 0.0066,
      "velocity": 111,
      "chip": "ym2612"
    },
    {
      "channel": 0,
      "note": 76,
      "start": 20.5033,
      "duration": 0.0664,
      "velocity": 111,
      "chip": "ym2612"
    },
    {
      "channel": 4,
      "note": 52,
      "start": 20.6065,
      "duration": 0.0633,
      "velocity": 118,
      "chip": "ym2612"
    },
    {
      "channel": 1,
      "note": 52,
      "start": 20.609,
      "duration": 0.0775,
      "velocity": 111,
      "chip": "ym2612"
    },
    {
      "channel": 0,
      "note": 76,
      "start": 20.7395,
      "duration": 0.08,
      "velocity": 111,
      "chip": "ym2612"
    },
    {
      "channel": 4,
      "note": 52,
      "start": 20.8732,
      "duration": 0.0632,
      "velocity": 118,
      "chip": "ym2612"
    },
    {
      "channel": 1,
      "note": 52,
      "start": 20.8757,
      "duration": 0.0773,
      "velocity": 111,
      "chip": "ym2612"
    },
    {
      "channel": 3,
      "note": 52,
      "start": 20.8787,
      "duration": 0.5194,
      "velocity": 127,
      "chip": "ym2612"
    },
    {
      "channel": 0,
      "note": 64,
      "start": 21.0066,
      "duration": 0.0796,
      "velocity": 111,
      "chip": "ym2612"
    },
    {
      "channel": 1,
      "note": 64,
      "start": 21.1233,
      "duration": 0.0965,
      "velocity": 111,
      "chip": "ym2612"
    },
    {
      "channel": 0,
      "note": 64,
      "start": 21.2563,
      "duration": 0.08,
      "velocity": 111,
      "chip": "ym2612"
    },
    {
      "channel": 1,
      "note": 76,
      "start": 21.3928,
      "duration": 0.0068,
      "velocity": 111,
      "chip": "ym2612"
    },
    {
      "channel": 0,
      "note": 76,
      "start": 21.4043,
      "duration": 0.0654,
      "velocity": 111,
      "chip": "ym2612"
    },
    {
      "channel": 1,
      "note": 52,
      "start": 21.5229,
      "duration": 0.0803,
      "velocity": 111,
      "chip": "ym2612"
    },
    {
      "channel": 0,
      "note": 88,
      "start": 21.6398,
      "duration": 0.0966,
      "velocity": 111,
      "chip": "ym2612"
    },
    {
      "channel": 2,
      "note": 52,
      "start": 21.7738,
      "duration": 0.6316,
      "velocity": 119,
      "chip": "ym2612"
    },
    {
      "channel": 4,
      "note": 64,
      "start": 21.7768,
      "duration": 0.011,
      "velocity": 119,
      "chip": "ym2612"
    },
    {
      "channel": 3,
      "note": 52,
      "start": 21.78,
      "duration": 0.0566,
      "velocity": 118,
      "chip": "ym2612"
    },
    {
      "channel": 1,
      "note": 52,
      "start": 21.7824,
      "duration": 0.0707,
      "velocity": 111,
      "chip": "ym2612"
    },
    {
      "channel": 5,
      "note": 52,
      "start": 21.7859,
      "duration": 0.5013,
      "velocity": 127,
      "chip": "ym2612"
    },
    {
      "channel": 0,
      "note": 64,
      "start": 21.9063,
      "duration": 0.0801,
      "velocity": 111,
      "chip": "ym2612"
    },
    {
      "channel": 3,
      "note": 52,
      "start": 22.0399,
      "duration": 0.0634,
      "velocity": 118,
      "chip": "ym2612"
    },
    {
      "channel": 1,
      "note": 64,
      "start": 22.0424,
      "duration": 0.0774,
      "velocity": 111,
      "chip": "ym2612"
    },
    {
      "channel": 0,
      "note": 64,
      "start": 22.173,
      "duration": 0.0801,
      "velocity": 111,
      "chip": "ym2612"
    },
    {
      "channel": 1,
      "note": 64,
      "start": 22.2929,
      "duration": 0.008,
      "velocity": 111,
      "chip": "ym2612"
    },
    {
      "channel": 0,
      "note": 76,
      "start": 22.3063,
      "duration": 0.0654,
      "velocity": 111,
      "chip": "ym2612"
    },
    {
      "channel": 4,
      "note": 53,
      "start": 22.4253,
      "duration": 1.1475,
      "velocity": 119,
      "chip": "ym2612"
    },
    {
      "channel": 3,
      "note": 52,
      "start": 22.4282,
      "duration": 0.0602,
      "velocity": 118,
      "chip": "ym2612"
    },
    {
      "channel": 1,
      "note": 52,
      "start": 22.4307,
      "duration": 0.0744,
      "velocity": 111,
      "chip": "ym2612"
    },
    {
      "channel": 0,
      "note": 76,
      "start": 22.5584,
      "duration": 0.08,
      "velocity": 111,
      "chip": "ym2612"
    },
    {
      "channel": 3,
      "note": 52,
      "start": 22.692,
      "duration": 0.0466,
      "velocity": 118,
      "chip": "ym2612"
    },
    {
      "channel": 1,
      "note": 52,
      "start": 22.6944,
      "duration": 0.0773,
      "velocity": 111,
      "chip": "ym2612"
    },
    {
      "channel": 0,
      "note": 64,
      "start": 22.8084,
      "duration": 0.0966,
      "velocity": 111,
      "chip": "ym2612"
    },
    {
      "channel": 1,
      "note": 64,
      "start": 22.9417,
      "duration": 0.0801,
      "velocity": 111,
      "chip": "ym2612"
    },
    {
      "channel": 0,
      "note": 64,
      "start": 23.0751,
      "duration": 0.08,
      "velocity": 111,
      "chip": "ym2612"
    },
    {
      "channel": 1,
      "note": 76,
      "start": 23.2116,
      "duration": 0.0062,
      "velocity": 111,
      "chip": "ym2612"
    },
    {
      "channel": 0,
      "note": 76,
      "start": 23.2241,
      "duration": 0.0651,
      "velocity": 111,
      "chip": "ym2612"
    },
    {
      "channel": 1,
      "note": 52,
      "start": 23.3258,
      "duration": 0.0968,
      "velocity": 111,
      "chip": "ym2612"
    },
    {
      "channel": 0,
      "note": 88,
      "start": 23.4592,
      "duration": 0.0802,
      "velocity": 111,
      "chip": "ym2612"
    },
    {
      "channel": 4,
      "note": 69,
      "start": 23.5931,
      "duration": 1.7561,
      "velocity": 119,
      "chip": "ym2612"
    },
    {
      "channel": 3,
      "note": 52,
      "start": 23.5964,
      "duration": 0.0596,
      "velocity": 118,
      "chip": "ym2612"
    },
    {
      "channel": 1,
      "note": 57,
      "start": 23.5989,
      "duration": 0.0739,
      "velocity": 111,
      "chip": "ym2612"
    },
    {
      "channel": 2,
      "note": 100,
      "start": 23.6039,
      "duration": 0.2024,
      "velocity": 102,
      "chip": "ym2612"
    },
    {
      "channel": 5,
      "note": 57,
      "start": 23.6072,
      "duration": 0.4997,
      "velocity": 127,
      "chip": "ym2612"
    },
    {
      "channel": 0,
      "note": 69,
      "start": 23.7259,
      "duration": 0.08,
      "velocity": 111,
      "chip": "ym2612"
    },
    {
      "channel": 1,
      "note": 69,
      "start": 23.8592,
      "duration": 0.0802,
      "velocity": 111,
      "chip": "ym2612"
    },
    {
      "channel": 0,
      "note": 69,
      "start": 23.9759,
      "duration": 0.08,
      "velocity": 111,
      "chip": "ym2612"
    },
    {
      "channel": 3,
      "note": 100,
      "start": 23.9811,
      "duration": 0.1391,
      "velocity": 102,
      "chip": "ym2612"
    },
    {
      "channel": 1,
      "note": 69,
      "start": 24.1126,
      "duration": 0.0076,
      "velocity": 111,
      "chip": "ym2612"
    },
    {
      "channel": 0,
      "note": 81,
      "start": 24.1259,
      "duration": 0.0651,
      "velocity": 111,
      "chip": "ym2612"
    },
    {
      "channel": 2,
      "note": 52,
      "start": 24.2448,
      "duration": 0.0632,
      "velocity": 118,
      "chip": "ym2612"
    },
    {
      "channel": 1,
      "note": 57,
      "start": 24.2472,
      "duration": 0.0772,
      "velocity": 111,
      "chip": "ym2612"
    },
    {
      "channel": 3,
      "note": 88,
      "start": 24.251,
      "duration": 0.1735,
      "velocity": 102,
      "chip": "ym2612"
    },
    {
      "channel": 0,
      "note": 81,
      "start": 24.361,
      "duration": 0.0966,
      "velocity": 111,
      "chip": "ym2612"
    },
    {
      "channel": 2,
      "note": 52,
      "start": 24.4948,
      "duration": 0.0632,
      "velocity": 118,
      "chip": "ym2612"
    },
    {
      "channel": 1,
      "note": 57,
      "start": 24.4972,
      "duration": 0.0772,
      "velocity": 111,
      "chip": "ym2612"
    },
    {
      "channel": 3,
      "note": 91,
      "start": 24.5003,
      "duration": 0.1743,
      "velocity": 102,
      "chip": "ym2612"
    },
    {
      "channel": 5,
      "note": 57,
      "start": 24.5037,
      "duration": 0.4907,
      "velocity": 127,
      "chip": "ym2612"
    },
    {
      "channel": 0,
      "note": 69,
      "start": 24.628,
      "duration": 0.0798,
      "velocity": 111,
      "chip": "ym2612"
    },
    {
      "channel": 2,
      "note": 88,
      "start": 24.632,
      "duration": 0.1784,
      "velocity": 102,
      "chip": "ym2612"
    },
    {
      "channel": 1,
      "note": 69,
      "start": 24.7613,
      "duration": 0.0655,
      "velocity": 111,
      "chip": "ym2612"
    },
    {
      "channel": 3,
      "note": 93,
      "start": 24.7644,
      "duration": 0.1457,
      "velocity": 102,
      "chip": "ym2612"
    },
    {
      "channel": 0,
      "note": 69,
      "start": 24.8799,
      "duration": 0.0801,
      "velocity": 111,
      "chip": "ym2612"
    },
    {
      "channel": 2,
      "note": 91,
      "start": 24.8834,
      "duration": 0.1202,
      "velocity": 102,
      "chip": "ym2612"
    },
    {
      "channel": 1,
      "note": 81,
      "start": 25.0,
      "duration": 0.0092,
      "velocity": 111,
      "chip": "ym2612"
    },
    {
      "channel": 0,
      "note": 81,
      "start": 25.0143,
      "duration": 0.0515,
      "velocity": 111,
      "chip": "ym2612"
    },
    {
      "channel": 2,
      "note": 93,
      "start": 25.0165,
      "duration": 0.1495,
      "velocity": 102,
      "chip": "ym2612"
    },
    {
      "channel": 1,
      "note": 57,
      "start": 25.1188,
      "duration": 0.0802,
      "velocity": 111,
      "chip": "ym2612"
    },
    {
      "channel": 0,
      "note": 93,
      "start": 25.2524,
      "duration": 0.08,
      "velocity": 111,
      "chip": "ym2612"
    },
    {
      "channel": 4,
      "note": 57,
      "start": 25.3859,
      "duration": 0.6279,
      "velocity": 119,
      "chip": "ym2612"
    },
    {
      "channel": 3,
      "note": 52,
      "start": 25.389,
      "duration": 0.0601,
      "velocity": 118,
      "chip": "ym2612"
    },
    {
      "channel": 1,
      "note": 57,
      "start": 25.3914,
      "duration": 0.0742,
      "velocity": 111,
      "chip": "ym2612"
    },
    {
      "channel": 5,
      "note": 57,
      "start": 25.395,
      "duration": 0.505,
      "velocity": 127,
      "chip": "ym2612"
    },
    {
      "channel": 0,
      "note": 69,
      "start": 25.5022,
      "duration": 0.0967,
      "velocity": 111,
      "chip": "ym2612"
    },
    {
      "channel": 1,
      "note": 69,
      "start": 25.6356,
      "duration": 0.08,
      "velocity": 111,
      "chip": "ym2612"
    },
    {
      "channel": 2,
      "note": 88,
      "start": 25.6391,
      "duration": 0.1937,
      "velocity": 102,
      "chip": "ym2612"
    },
    {
      "channel": 0,
      "note": 69,
      "start": 25.769,
      "duration": 0.0799,
      "velocity": 111,
      "chip": "ym2612"
    },
    {
      "channel": 1,
      "note": 69,
      "start": 25.9037,
      "duration": 0.0075,
      "velocity": 111,
      "chip": "ym2612"
    },
    {
      "channel": 2,
      "note": 89,
      "start": 25.9058,
      "duration": 0.0248,
      "velocity": 102,
      "chip": "ym2612"
    },
    {
      "channel": 0,
      "note": 81,
      "start": 25.9173,
      "duration": 0.063,
      "velocity": 111,
      "chip": "ym2612"
    },
    {
      "channel": 3,
      "note": 88,
      "start": 25.9193,
      "duration": 0.1611,
      "velocity": 102,
      "chip": "ym2612"
    },
    {
      "channel": 4,
      "note": 58,
      "start": 26.0176,
      "duration": 0.9143,
      "velocity": 119,
      "chip": "ym2612"
    },
    {
      "channel": 1,
      "note": 52,
      "start": 26.0206,
      "duration": 0.0596,
      "velocity": 118,
      "chip": "ym2612"
    },
    {
      "channel": 5,
      "note": 57,
      "start": 26.0234,
      "duration": 0.0905,
      "velocity": 111,
      "chip": "ym2612"
    },
    {
      "channel": 0,
      "note": 81,
      "start": 26.1502,
      "duration": 0.08,
      "velocity": 111,
      "chip": "ym2612"
    },
    {
      "channel": 3,
      "note": 89,
      "start": 26.1537,
      "duration": 0.1766,
      "velocity": 102,
      "chip": "ym2612"
    },
    {
      "channel": 1,
      "note": 52,
      "start": 26.2838,
      "duration": 0.0632,
      "velocity": 118,
      "chip": "ym2612"
    },
    {
      "channel": 5,
      "note": 57,
      "start": 26.2863,
      "duration": 0.0776,
      "velocity": 111,
      "chip": "ym2612"
    },
    {
      "channel": 2,
      "note": 86,
      "start": 26.2897,
      "duration": 0.1908,
      "velocity": 102,
      "chip": "ym2612"
    },
    {
      "channel": 0,
      "note": 69,
      "start": 26.4169,
      "duration": 0.0801,
      "velocity": 111,
      "chip": "ym2612"
    },
    {
      "channel": 5,
      "note": 69,
      "start": 26.5503,
      "duration": 0.0801,
      "velocity": 111,
      "chip": "ym2612"
    },
    {
      "channel": 2,
      "note": 88,
      "start": 26.5535,
      "duration": 0.1771,
      "velocity": 102,
      "chip": "ym2612"
    },
    {
      "channel": 0,
      "note": 69,
      "start": 26.6668,
      "duration": 0.0968,
      "velocity": 111,
      "chip": "ym2612"
    },
    {
      "channel": 3,
      "note": 86,
      "start": 26.6703,
      "duration": 0.139,
      "velocity": 102,
      "chip": "ym2612"
    },
    {
      "channel": 1,
      "note": 81,
      "start": 26.8037,
      "duration": 0.0072,
      "velocity": 111,
      "chip": "ym2612"
    },
    {
      "channel": 0,
      "note": 81,
      "start": 26.8173,
      "duration": 0.0644,
      "velocity": 111,
      "chip": "ym2612"
    },
    {
      "channel": 3,
      "note": 88,
      "start": 26.8193,
      "duration": 0.1792,
      "velocity": 102,
      "chip": "ym2612"
    },
    {
      "channel": 4,
      "note": 68,
      "start": 26.9353,
      "duration": 0.2466,
      "velocity": 119,
      "chip": "ym2612"
    },
    {
      "channel": 1,
      "note": 57,
      "start": 26.9379,
      "duration": 0.0772,
      "velocity": 111,
      "chip": "ym2612"
    },
    {
      "channel": 0,
      "note": 93,
      "start": 27.0682,
      "duration": 0.0801,
      "velocity": 111,
      "chip": "ym2612"
    },
    {
      "channel": 4,
      "note": 69,
      "start": 27.1856,
      "duration": 1.7966,
      "velocity": 119,
      "chip": "ym2612"
    },
    {
      "channel": 2,
      "note": 52,
      "start": 27.1888,
      "duration": 0.0599,
      "velocity": 118,
      "chip": "ym2612"
    },
    {
      "channel": 1,
      "note": 57,
      "start": 27.1912,
      "duration": 0.0906,
      "velocity": 111,
      "chip": "ym2612"
    },
    {
      "channel": 5,
      "note": 100,
      "start": 27.1947,
      "duration": 0.1873,
      "velocity": 102,
      "chip": "ym2612"
    },
    {
      "channel": 3,
      "note": 57,
      "start": 27.1978,
      "duration": 0.5245,
      "velocity": 127,
      "chip": "ym2612"
    },
    {
      "channel": 0,
      "note": 69,
      "start": 27.3183,
      "duration": 0.08,
      "velocity": 111,
      "chip": "ym2612"
    },
    {
      "channel": 1,
      "note": 69,
      "start": 27.4515,
      "duration": 0.08,
      "velocity": 111,
      "chip": "ym2612"
    },
    {
      "channel": 0,
      "note": 69,
      "start": 27.585,
      "duration": 0.08,
      "velocity": 111,
      "chip": "ym2612"
    },
    {
      "channel": 2,
      "note": 100,
      "start": 27.5887,
      "duration": 0.1355,
      "velocity": 102,
      "chip": "ym2612"
    },
    {
      "channel": 1,
      "note": 69,
      "start": 27.7196,
      "duration": 0.0078,
      "velocity": 111,
      "chip": "ym2612"
    },
    {
      "channel": 0,
      "note": 81,
      "start": 27.7317,
      "duration": 0.0653,
      "velocity": 111,
      "chip": "ym2612"
    },
    {
      "channel": 3,
      "note": 52,
      "start": 27.8339,
      "duration": 0.0632,
      "velocity": 118,
      "chip": "ym2612"
    },
    {
      "channel": 1,
      "note": 57,
      "start": 27.8364,
      "duration": 0.0772,
      "velocity": 111,
      "chip": "ym2612"
    },
    {
      "channel": 2,
      "note": 88,
      "start": 27.8398,
      "duration": 0.1741,
      "velocity": 102,
      "chip": "ym2612"
    },
    {
      "channel": 0,
      "note": 81,
      "start": 27.9669,
      "duration": 0.08,
      "velocity": 111,
      "chip": "ym2612"
    },
    {
      "channel": 3,
      "note": 52,
      "start": 28.1009,
      "duration": 0.0629,
      "velocity": 118,
      "chip": "ym2612"
    },
    {
      "channel": 1,
      "note": 57,
      "start": 28.1033,
      "duration": 0.0769,
      "velocity": 111,
      "chip": "ym2612"
    },
    {
      "channel": 2,
      "note": 91,
      "start": 28.1065,
      "duration": 0.1741,
      "velocity": 102,
      "chip": "ym2612"
    },
    {
      "channel": 5,
      "note": 57,
      "start": 28.1095,
      "duration": 0.505,
      "velocity": 127,
      "chip": "ym2612"
    },
    {
      "channel": 0,
      "note": 69,
      "start": 28.234,
      "duration": 0.0797,
      "velocity": 111,
      "chip": "ym2612"
    },
    {
      "channel": 3,
      "note": 88,
      "start": 28.2376,
      "duration": 0.1595,
      "velocity": 102,
      "chip": "ym2612"
    },
    {
      "channel": 1,
      "note": 69,
      "start": 28.3506,
      "duration": 0.0964,
      "velocity": 111,
      "chip": "ym2612"
    },
    {
      "channel": 2,
      "note": 93,
      "start": 28.3538,
      "duration": 0.1934,
      "velocity": 102,
      "chip": "ym2612"
    },
    {
      "channel": 0,
      "note": 69,
      "start": 28.4836,
      "duration": 0.08,
      "velocity": 111,
      "chip": "ym2612"
    },
    {
      "channel": 3,
      "note": 91,
      "start": 28.4869,
      "duration": 0.139,
      "velocity": 102,
      "chip": "ym2612"
    },
    {
      "channel": 1,
      "note": 81,
      "start": 28.6204,
      "duration": 0.0067,
      "velocity": 111,
      "chip": "ym2612"
    },
    {
      "channel": 0,
      "note": 81,
      "start": 28.6341,
      "duration": 0.0646,
      "velocity": 111,
      "chip": "ym2612"
    },
    {
      "channel": 3,
      "note": 93,
      "start": 28.6361,
      "duration": 0.1628,
      "velocity": 102,
      "chip": "ym2612"
    },
    {
      "channel": 1,
      "note": 57,
      "start": 28.7519,
      "duration": 0.0802,
      "velocity": 111,
      "chip": "ym2612"
    },
    {
      "channel": 0,
      "note": 93,
      "start": 28.8687,
      "duration": 0.0966,
      "velocity": 111,
      "chip": "ym2612"
    },
    {
      "channel": 4,
      "note": 57,
      "start": 29.0024,
      "duration": 0.6461,
      "velocity": 119,
      "chip": "ym2612"
    },
    {
      "channel": 2,
      "note": 52,
      "start": 29.0055,
      "duration": 0.0602,
      "velocity": 118,
      "chip": "ym2612"
    },
    {
      "channel": 1,
      "note": 57,
      "start": 29.008,
      "duration": 0.0741,
      "velocity": 111,
      "chip": "ym2612"
    },
    {
      "channel": 5,
      "note": 57,
      "start": 29.0113,
      "duration": 0.505,
      "velocity": 127,
      "chip": "ym2612"
    },
    {
      "channel": 0,
      "note": 69,
      "start": 29.1354,
      "duration": 0.08,
      "velocity": 111,
      "chip": "ym2612"
    },
    {
      "channel": 2,
      "note": 52,
      "start": 29.2691,
      "duration": 0.0632,
      "velocity": 118,
      "chip": "ym2612"
    },
    {
      "channel": 1,
      "note": 69,
      "start": 29.2716,
      "duration": 0.0772,
      "velocity": 111,
      "chip": "ym2612"
    },
    {
      "channel": 3,
      "note": 93,
      "start": 29.275,
      "duration": 0.2073,
      "velocity": 102,
      "chip": "ym2612"
    },
    {
      "channel": 0,
      "note": 69,
      "start": 29.4021,
      "duration": 0.08,
      "velocity": 111,
      "chip": "ym2612"
    },
    {
      "channel": 1,
      "note": 69,
      "start": 29.522,
      "duration": 0.0092,
      "velocity": 111,
      "chip": "ym2612"
    },
    {
      "channel": 3,
      "note": 94,
      "start": 29.5239,
      "duration": 0.0747,
      "velocity": 102,
      "chip": "ym2612"
    },
    {
      "channel": 0,
      "note": 81,
      "start": 29.5354,
      "duration": 0.0629,
      "velocity": 111,
      "chip": "ym2612"
    },
    {
      "channel": 2,
      "note": 93,
      "start": 29.5374,
      "duration": 0.1948,
      "velocity": 102,
      "chip": "ym2612"
    },
    {
      "channel": 4,
      "note": 58,
      "start": 29.6525,
      "duration": 1.0477,
      "velocity": 119,
      "chip": "ym2612"
    },
    {
      "channel": 1,
      "note": 52,
      "start": 29.6557,
      "duration": 0.0594,
      "velocity": 118,
      "chip": "ym2612"
    },
    {
      "channel": 5,
      "note": 57,
      "start": 29.6583,
      "duration": 0.0737,
      "velocity": 111,
      "chip": "ym2612"
    },
    {
      "channel": 0,
      "note": 81,
      "start": 29.785,
      "duration": 0.0802,
      "velocity": 111,
      "chip": "ym2612"
    },
    {
      "channel": 2,
      "note": 94,
      "start": 29.7885,
      "duration": 0.2103,
      "velocity": 102,
      "chip": "ym2612"
    },
    {
      "channel": 1,
      "note": 52,
      "start": 29.9185,
      "duration": 0.0467,
      "velocity": 118,
      "chip": "ym2612"
    },
    {
      "channel": 5,
      "note": 57,
      "start": 29.9211,
      "duration": 0.0776,
      "velocity": 111,
      "chip": "ym2612"
    },
    {
      "channel": 3,
      "note": 94,
      "start": 29.9242,
      "duration": 0.2077,
      "velocity": 102,
      "chip": "ym2612"
    },
    {
      "channel": 0,
      "note": 69,
      "start": 30.0349,
      "duration": 0.0967,
      "velocity": 111,
      "chip": "ym2612"
    },
    {
      "channel": 5,
      "note": 69,
      "start": 30.1684,
      "duration": 0.0801,
      "velocity": 111,
      "chip": "ym2612"
    },
    {
      "channel": 3,
      "note": 96,
      "start": 30.172,
      "duration": 0.1764,
      "velocity": 102,
      "chip": "ym2612"
    },
    {
      "channel": 0,
      "note": 69,
      "start": 30.3016,
      "duration": 0.08,
      "velocity": 111,
      "chip": "ym2612"
    },
    {
      "channel": 2,
      "note": 94,
      "start": 30.305,
      "duration": 0.1407,
      "velocity": 102,
      "chip": "ym2612"
    },
    {
      "channel": 1,
      "note": 81,
      "start": 30.4389,
      "duration": 0.0068,
      "velocity": 111,
      "chip": "ym2612"
    },
    {
      "channel": 0,
      "note": 81,
      "start": 30.4524,
      "duration": 0.0644,
      "velocity": 111,
      "chip": "ym2612"
    },
    {
      "channel": 2,
      "note": 96,
      "start": 30.4546,
      "duration": 0.1458,
      "velocity": 102,
      "chip": "ym2612"
    },
    {
      "channel": 1,
      "note": 57,
      "start": 30.5535,
      "duration": 0.0967,
      "velocity": 111,
      "chip": "ym2612"
    },
    {
      "channel": 3,
      "note": 96,
      "start": 30.5567,
      "duration": 0.1384,
      "velocity": 102,
      "chip": "ym2612"
    },
    {
      "channel": 0,
      "note": 93,
      "start": 30.6902,
      "duration": 0.0059,
      "velocity": 111,
      "chip": "ym2612"
    },
    {
      "channel": 2,
      "note": 52,
      "start": 30.7023,
      "duration": 0.0056,
      "velocity": 118,
      "chip": "ym2612"
    },
    {
      "channel": 1,
      "note": 52,
      "start": 30.7039,
      "duration": 0.0611,
      "velocity": 111,
      "chip": "ym2612"
    },
    {
      "channel": 3,
      "note": 95,
      "start": 30.7058,
      "duration": 0.1757,
      "velocity": 102,
      "chip": "ym2612"
    },
    {
      "channel": 0,
      "note": 52,
      "start": 30.7077,
      "duration": 0.5005,
      "velocity": 127,
      "chip": "ym2612"
    },
    {
      "channel": 2,
      "note": 77,
      "start": 30.7097,
      "duration": 0.4222,
      "velocity": 121,
      "chip": "ym2612"
    },
    {
      "channel": 4,
      "note": 64,
      "start": 30.8184,
      "duration": 0.08,
      "velocity": 111,
      "chip": "ym2612"
    },
    {
      "channel": 5,
      "note": 91,
      "start": 30.822,
      "duration": 0.1765,
      "velocity": 102,
      "chip": "ym2612"
    },
    {
      "channel": 1,
      "note": 64,
      "start": 30.9513,
      "duration": 0.0803,
      "velocity": 111,
      "chip": "ym2612"
    },
    {
      "channel": 4,
      "note": 64,
      "start": 31.0683,
      "duration": 0.0968,
      "velocity": 111,
      "chip": "ym2612"
    },
    {
      "channel": 5,
      "note": 95,
      "start": 31.0716,
      "duration": 0.1277,
      "velocity": 102,
      "chip": "ym2612"
    },
    {
      "channel": 1,
      "note": 64,
      "start": 31.2032,
      "duration": 0.0066,
      "velocity": 111,
      "chip": "ym2612"
    },
    {
      "channel": 4,
      "note": 76,
      "start": 31.2154,
      "duration": 0.0653,
      "velocity": 111,
      "chip": "ym2612"
    },
    {
      "channel": 3,
      "note": 52,
      "start": 31.3343,
      "duration": 0.0631,
      "velocity": 118,
      "chip": "ym2612"
    },
    {
      "channel": 1,
      "note": 52,
      "start": 31.3367,
      "duration": 0.0772,
      "velocity": 111,
      "chip": "ym2612"
    },
    {
      "channel": 2,
      "note": 83,
      "start": 31.3402,
      "duration": 0.1573,
      "velocity": 102,
      "chip": "ym2612"
    },
    {
      "channel": 4,
      "note": 76,
      "start": 31.4507,
      "duration": 0.0967,
      "velocity": 111,
      "chip": "ym2612"
    },
    {
      "channel": 3,
      "note": 52,
      "start": 31.5842,
      "duration": 0.0633,
      "velocity": 118,
      "chip": "ym2612"
    },
    {
      "channel": 1,
      "note": 52,
      "start": 31.5866,
      "duration": 0.0773,
      "velocity": 111,
      "chip": "ym2612"
    },
    {
      "channel": 2,
      "note": 86,
      "start": 31.5897,
      "duration": 0.1744,
      "velocity": 102,
      "chip": "ym2612"
    },
    {
      "channel": 0,
      "note": 52,
      "start": 31.5928,
      "duration": 0.515,
      "velocity": 127,
      "chip": "ym2612"
    },
    {
      "channel": 4,
      "note": 64,
      "start": 31.7176,
      "duration": 0.0798,
      "velocity": 111,
      "chip": "ym2612"
    },
    {
      "channel": 5,
      "note": 83,
      "start": 31.7213,
      "duration": 0.1595,
      "velocity": 102,
      "chip": "ym2612"
    },
    {
      "channel": 1,
      "note": 64,
      "start": 31.8509,
      "duration": 0.0799,
      "velocity": 111,
      "chip": "ym2612"
    },
    {
      "channel": 2,
      "note": 88,
      "start": 31.8542,
      "duration": 0.1933,
      "velocity": 102,
      "chip": "ym2612"
    },
    {
      "channel": 4,
      "note": 64,
      "start": 31.984,
      "duration": 0.0802,
      "velocity": 111,
      "chip": "ym2612"
    },
    {
      "channel": 5,
      "note": 86,
      "start": 31.9873,
      "duration": 0.1109,
      "velocity": 102,
      "chip": "ym2612"
    },
    {
      "channel": 1,
      "note": 76,
      "start": 32.1038,
      "duration": 0.0084,
      "velocity": 111,
      "chip": "ym2612"
    },
    {
      "channel": 4,
      "note": 76,
      "start": 32.1167,
      "duration": 0.0514,
      "velocity": 111,
      "chip": "ym2612"
    },
    {
      "channel": 3,
      "note": 88,
      "start": 32.1188,
      "duration": 0.166,
      "velocity": 102,
      "chip": "ym2612"
    },
    {
      "channel": 1,
      "note": 52,
      "start": 32.2211,
      "duration": 0.0802,
      "velocity": 111,
      "chip": "ym2612"
    },
    {
      "channel": 4,
      "note": 88,
      "start": 32.3548,
      "duration": 0.08,
      "velocity": 111,
      "chip": "ym2612"
    },
    {
      "channel": 2,
      "note": 52,
      "start": 32.4888,
      "duration": 0.0628,
      "velocity": 118,
      "chip": "ym2612"
    },
    {
      "channel": 1,
      "note": 52,
      "start": 32.4913,
      "duration": 0.0767,
      "velocity": 111,
      "chip": "ym2612"
    },
    {
      "channel": 0,
      "note": 52,
      "start": 32.4943,
      "duration": 0.5157,
      "velocity": 127,
      "chip": "ym2612"
    },
    {
      "channel": 4,
      "note": 64,
      "start": 32.6048,
      "duration": 0.0967,
      "velocity": 111,
      "chip": "ym2612"
    },
    {
      "channel": 2,
      "note": 52,
      "start": 32.7384,
      "duration": 0.0632,
      "velocity": 118,
      "chip": "ym2612"
    },
    {
      "channel": 1,
      "note": 64,
      "start": 32.7408,
      "duration": 0.0772,
      "velocity": 111,
      "chip": "ym2612"
    },
    {
      "channel": 5,
      "note": 83,
      "start": 32.7441,
      "duration": 0.1908,
      "velocity": 102,
      "chip": "ym2612"
    },
    {
      "channel": 4,
      "note": 64,
      "start": 32.8714,
      "duration": 0.08,
      "velocity": 111,
      "chip": "ym2612"
    },
    {
      "channel": 1,
      "note": 64,
      "start": 33.0059,
      "duration": 0.0084,
      "velocity": 111,
      "chip": "ym2612"
    },
    {
      "channel": 3,
      "note": 84,
      "start": 33.0079,
      "duration": 0.0597,
      "velocity": 102,
      "chip": "ym2612"
    },
    {
      "channel": 4,
      "note": 76,
      "start": 33.0212,
      "duration": 0.0632,
      "velocity": 111,
      "chip": "ym2612"
    },
    {
      "channel": 2,
      "note": 83,
      "start": 33.0231,
      "duration": 0.1613,
      "velocity": 102,
      "chip": "ym2612"
    },
    {
      "channel": 0,
      "note": 52,
      "start": 33.1212,
      "duration": 0.0629,
      "velocity": 118,
      "chip": "ym2612"
    },
    {
      "channel": 1,
      "note": 52,
      "start": 33.1236,
      "duration": 0.094,
      "velocity": 111,
      "chip": "ym2612"
    },
    {
      "channel": 4,
      "note": 76,
      "start": 33.2543,
      "duration": 0.0801,
      "velocity": 111,
      "chip": "ym2612"
    },
    {
      "channel": 2,
      "note": 84,
      "start": 33.2582,
      "duration": 0.193,
      "velocity": 102,
      "chip": "ym2612"
    },
    {
      "channel": 0,
      "note": 52,
      "start": 33.3876,
      "duration": 0.0632,
      "velocity": 118,
      "chip": "ym2612"
    },
    {
      "channel": 1,
      "note": 52,
      "start": 33.39,
      "duration": 0.0775,
      "velocity": 111,
      "chip": "ym2612"
    },
    {
      "channel": 3,
      "note": 81,
      "start": 33.393,
      "duration": 0.1912,
      "velocity": 102,
      "chip": "ym2612"
    },
    {
      "channel": 4,
      "note": 64,
      "start": 33.5209,
      "duration": 0.08,
      "velocity": 111,
      "chip": "ym2612"
    },
    {
      "channel": 1,
      "note": 64,
      "start": 33.654,
      "duration": 0.0802,
      "velocity": 111,
      "chip": "ym2612"
    },
    {
      "channel": 3,
      "note": 83,
      "start": 33.6573,
      "duration": 0.2102,
      "velocity": 102,
      "chip": "ym2612"
    },
    {
      "channel": 4,
      "note": 64,
      "start": 33.7709,
      "duration": 0.0968,
      "velocity": 111,
      "chip": "ym2612"
    },
    {
      "channel": 2,
      "note": 81,
      "start": 33.7744,
      "duration": 0.1377,
      "velocity": 102,
      "chip": "ym2612"
    },
    {
      "channel": 1,
      "note": 76,
      "start": 33.9074,
      "duration": 0.0064,
      "velocity": 111,
      "chip": "ym2612"
    },
    {
      "channel": 4,
      "note": 76,
      "start": 33.92,
      "duration": 0.0651,
      "velocity": 111,
      "chip": "ym2612"
    },
    {
      "channel": 2,
      "note": 83,
      "start": 33.9223,
      "duration": 0.1963,
      "velocity": 102,
      "chip": "ym2612"
    },
    {
      "channel": 1,
      "note": 52,
      "start": 34.0381,
      "duration": 0.0802,
      "velocity": 111,
      "chip": "ym2612"
    },
    {
      "channel": 3,
      "note": 83,
      "start": 34.0413,
      "duration": 0.1604,
      "velocity": 102,
      "chip": "ym2612"
    },
    {
      "channel": 4,
      "note": 88,
      "start": 34.1716,
      "duration": 0.0801,
      "velocity": 111,
      "chip": "ym2612"
    },
    {
      "channel": 0,
      "note": 64,
      "start": 34.2888,
      "duration": 1.7952,
      "velocity": 119,
      "chip": "ym2612"
    },
    {
      "channel": 5,
      "note": 63,
      "start": 34.292,
      "duration": 0.0265,
      "velocity": 119,
      "chip": "ym2612"
    },
    {
      "channel": 1,
      "note": 52,
      "start": 34.295,
      "duration": 0.0567,
      "velocity": 118,
      "chip": "ym2612"
    },
    {
      "channel": 2,
      "note": 52,
      "start": 34.2978,
      "duration": 0.0875,
      "velocity": 111,
      "chip": "ym2612"
    },
    {
      "channel": 3,
      "note": 95,
      "start": 34.3009,
      "duration": 0.2342,
      "velocity": 102,
      "chip": "ym2612"
    },
    {
      "channel": 4,
      "note": 52,
      "start": 34.304,
      "duration": 0.5228,
      "velocity": 127,
      "chip": "ym2612"
    },
    {
      "channel": 5,
      "note": 64,
      "start": 34.4218,
      "duration": 0.0801,
      "velocity": 111,
      "chip": "ym2612"
    },
    {
      "channel": 1,
      "note": 83,
      "start": 34.4254,
      "duration": 0.1762,
      "velocity": 102,
      "chip": "ym2612"
    },
    {
      "channel": 2,
      "note": 64,
      "start": 34.555,
      "duration": 0.0803,
      "velocity": 111,
      "chip": "ym2612"
    },
    {
      "channel": 5,
      "note": 64,
      "start": 34.6884,
      "duration": 0.0802,
      "velocity": 111,
      "chip": "ym2612"
    },
    {
      "channel": 1,
      "note": 95,
      "start": 34.6918,
      "duration": 0.141,
      "velocity": 102,
      "chip": "ym2612"
    },
    {
      "channel": 2,
      "note": 64,
      "start": 34.8249,
      "duration": 0.0066,
      "velocity": 111,
      "chip": "ym2612"
    },
    {
      "channel": 3,
      "note": 76,
      "start": 34.8358,
      "duration": 0.0662,
      "velocity": 111,
      "chip": "ym2612"
    },
    {
      "channel": 4,
      "note": 52,
      "start": 34.9388,
      "duration": 0.0632,
      "velocity": 118,
      "chip": "ym2612"
    },
    {
      "channel": 2,
      "note": 52,
      "start": 34.9415,
      "duration": 0.0773,
      "velocity": 111,
      "chip": "ym2612"
    },
    {
      "channel": 1,
      "note": 83,
      "start": 34.9449,
      "duration": 0.1736,
      "velocity": 102,
      "chip": "ym2612"
    },
    {
      "channel": 3,
      "note": 76,
      "start": 35.0719,
      "duration": 0.0801,
      "velocity": 111,
      "chip": "ym2612"
    },
    {
      "channel": 4,
      "note": 52,
      "start": 35.2054,
      "duration": 0.0632,
      "velocity": 118,
      "chip": "ym2612"
    },
    {
      "channel": 2,
      "note": 52,
      "start": 35.2081,
      "duration": 0.0774,
      "velocity": 111,
      "chip": "ym2612"
    },
    {
      "channel": 1,
      "note": 86,
      "start": 35.2115,
      "duration": 0.207,
      "velocity": 102,
      "chip": "ym2612"
    },
    {
      "channel": 5,
      "note": 52,
      "start": 35.2145,
      "duration": 0.505,
      "velocity": 127,
      "chip": "ym2612"
    },
    {
      "channel": 3,
      "note": 64,
      "start": 35.3389,
      "duration": 0.0797,
      "velocity": 111,
      "chip": "ym2612"
    },
    {
      "channel": 4,
      "note": 83,
      "start": 35.3425,
      "duration": 0.1594,
      "velocity": 102,
      "chip": "ym2612"
    },
    {
      "channel": 2,
      "note": 64,
      "start": 35.4556,
      "duration": 0.0965,
      "velocity": 111,
      "chip": "ym2612"
    },
    {
      "channel": 1,
      "note": 88,
      "start": 35.4588,
      "duration": 0.1932,
      "velocity": 102,
      "chip": "ym2612"
    },
    {
      "channel": 3,
      "note": 64,
      "start": 35.5885,
      "duration": 0.08,
      "velocity": 111,
      "chip": "ym2612"
    },
    {
      "channel": 4,
      "note": 86,
      "start": 35.5922,
      "duration": 0.1395,
      "velocity": 102,
      "chip": "ym2612"
    },
    {
      "channel": 2,
      "note": 76,
      "start": 35.7252,
      "duration": 0.0066,
      "velocity": 111,
      "chip": "ym2612"
    },
    {
      "channel": 3,
      "note": 76,
      "start": 35.7362,
      "duration": 0.0646,
      "velocity": 111,
      "chip": "ym2612"
    },
    {
      "channel": 4,
      "note": 88,
      "start": 35.7383,
      "duration": 0.1626,
      "velocity": 102,
      "chip": "ym2612"
    },
    {
      "channel": 2,
      "note": 52,
      "start": 35.8542,
      "duration": 0.0802,
      "velocity": 111,
      "chip": "ym2612"
    },
    {
      "channel": 3,
      "note": 88,
      "start": 35.9708,
      "duration": 0.0968,
      "velocity": 111,
      "chip": "ym2612"
    },
    {
      "channel": 0,
      "note": 52,
      "start": 36.1041,
      "duration": 0.664,
      "velocity": 119,
      "chip": "ym2612"
    },
    {
      "channel": 1,
      "note": 52,
      "start": 36.1072,
      "duration": 0.0604,
      "velocity": 118,
      "chip": "ym2612"
    },
    {
      "channel": 2,
      "note": 52,
      "start": 36.1098,
      "duration": 0.0745,
      "velocity": 111,
      "chip": "ym2612"
    },
    {
      "channel": 5,
      "note": 52,
      "start": 36.1134,
      "duration": 0.5049,
      "velocity": 127,
      "chip": "ym2612"
    },
    {
      "channel": 3,
      "note": 64,
      "start": 36.2375,
      "duration": 0.0802,
      "velocity": 111,
      "chip": "ym2612"
    },
    {
      "channel": 1,
      "note": 52,
      "start": 36.3713,
      "duration": 0.0628,
      "velocity": 118,
      "chip": "ym2612"
    },
    {
      "channel": 2,
      "note": 64,
      "start": 36.374,
      "duration": 0.0771,
      "velocity": 111,
      "chip": "ym2612"
    },
    {
      "channel": 4,
      "note": 88,
      "start": 36.3771,
      "duration": 0.1738,
      "velocity": 102,
      "chip": "ym2612"
    },
    {
      "channel": 3,
      "note": 64,
      "start": 36.5042,
      "duration": 0.08,
      "velocity": 111,
      "chip": "ym2612"
    },
    {
      "channel": 2,
      "note": 64,
      "start": 36.6243,
      "duration": 0.0094,
      "velocity": 111,
      "chip": "ym2612"
    },
    {
      "channel": 4,
      "note": 89,
      "start": 36.6261,
      "duration": 0.0589,
      "velocity": 102,
      "chip": "ym2612"
    },
    {
      "channel": 3,
      "note": 76,
      "start": 36.6382,
      "duration": 0.0634,
      "velocity": 111,
      "chip": "ym2612"
    },
    {
      "channel": 1,
      "note": 88,
      "start": 36.6402,
      "duration": 0.1779,
      "velocity": 102,
      "chip": "ym2612"
    },
    {
      "channel": 2,
      "note": 53,
      "start": 36.7557,
      "duration": 1.0973,
      "velocity": 119,
      "chip": "ym2612"
    },
    {
      "channel": 5,
      "note": 52,
      "start": 36.7588,
      "duration": 0.0595,
      "velocity": 118,
      "chip": "ym2612"
    },
    {
      "channel": 4,
      "note": 52,
      "start": 36.7614,
      "duration": 0.0735,
      "velocity": 111,
      "chip": "ym2612"
    },
    {
      "channel": 3,
      "note": 76,
      "start": 36.8881,
      "duration": 0.08,
      "velocity": 111,
      "chip": "ym2612"
    },
    {
      "channel": 1,
      "note": 89,
      "start": 36.8913,
      "duration": 0.1768,
      "velocity": 102,
      "chip": "ym2612"
    },
    {
      "channel": 5,
      "note": 52,
      "start": 37.0217,
      "duration": 0.0466,
      "velocity": 118,
      "chip": "ym2612"
    },
    {
      "channel": 4,
      "note": 52,
      "start": 37.0243,
      "duration": 0.0773,
      "velocity": 111,
      "chip": "ym2612"
    },
    {
      "channel": 0,
      "note": 89,
      "start": 37.0275,
      "duration": 0.1741,
      "velocity": 102,
      "chip": "ym2612"
    },
    {
      "channel": 3,
      "note": 64,
      "start": 37.1381,
      "duration": 0.0968,
      "velocity": 111,
      "chip": "ym2612"
    },
    {
      "channel": 4,
      "note": 64,
      "start": 37.2714,
      "duration": 0.0803,
      "velocity": 111,
      "chip": "ym2612"
    },
    {
      "channel": 0,
      "note": 91,
      "start": 37.2745,
      "duration": 0.1769,
      "velocity": 102,
      "chip": "ym2612"
    },
    {
      "channel": 3,
      "note": 64,
      "start": 37.4048,
      "duration": 0.0801,
      "velocity": 111,
      "chip": "ym2612"
    },
    {
      "channel": 1,
      "note": 89,
      "start": 37.408,
      "duration": 0.138,
      "velocity": 102,
      "chip": "ym2612"
    },
    {
      "channel": 4,
      "note": 76,
      "start": 37.5396,
      "duration": 0.0081,
      "velocity": 111,
      "chip": "ym2612"
    },
    {
      "channel": 3,
      "note": 76,
      "start": 37.5548,
      "duration": 0.0648,
      "velocity": 111,
      "chip": "ym2612"
    },
    {
      "channel": 1,
      "note": 91,
      "start": 37.5567,
      "duration": 0.1461,
      "velocity": 102,
      "chip": "ym2612"
    },
    {
      "channel": 4,
      "note": 52,
      "start": 37.6563,
      "duration": 0.0967,
      "velocity": 111,
      "chip": "ym2612"
    },
    {
      "channel": 0,
      "note": 91,
      "start": 37.6598,
      "duration": 0.1429,
      "velocity": 102,
      "chip": "ym2612"
    },
    {
      "channel": 3,
      "note": 88,
      "start": 37.7898,
      "duration": 0.0797,
      "velocity": 111,
      "chip": "ym2612"
    },
    {
      "channel": 5,
      "note": 52,
      "start": 37.9233,
      "duration": 0.0631,
      "velocity": 118,
      "chip": "ym2612"
    },
    {
      "channel": 0,
      "note": 95,
      "start": 37.9265,
      "duration": 0.2096,
      "velocity": 102,
      "chip": "ym2612"
    },
    {
      "channel": 1,
      "note": 52,
      "start": 37.9295,
      "duration": 0.5566,
      "velocity": 127,
      "chip": "ym2612"
    },
    {
      "channel": 2,
      "note": 77,
      "start": 37.9326,
      "duration": 0.4703,
      "velocity": 121,
      "chip": "ym2612"
    },
    {
      "channel": 4,
      "note": 95,
      "start": 38.3072,
      "duration": 0.2125,
      "velocity": 102,
      "chip": "ym2612"
    },
    {
      "channel": 0,
      "note": 83,
      "start": 38.7067,
      "duration": 0.1794,
      "velocity": 102,
      "chip": "ym2612"
    },
    {
      "channel": 0,
      "note": 86,
      "start": 38.9565,
      "duration": 0.1796,
      "velocity": 102,
      "chip": "ym2612"
    },
    {
      "channel": 1,
      "note": 52,
      "start": 38.9591,
      "duration": 0.5604,
      "velocity": 127,
      "chip": "ym2612"
    },
    {
      "channel": 4,
      "note": 83,
      "start": 39.0909,
      "duration": 0.1954,
      "velocity": 102,
      "chip": "ym2612"
    },
    {
      "channel": 0,
      "note": 88,
      "start": 39.2233,
      "duration": 0.1628,
      "velocity": 102,
      "chip": "ym2612"
    },
    {
      "channel": 4,
      "note": 86,
      "start": 39.357,
      "duration": 0.1627,
      "velocity": 102,
      "chip": "ym2612"
    },
    {
      "channel": 4,
      "note": 88,
      "start": 39.6071,
      "duration": 0.1793,
      "velocity": 102,
      "chip": "ym2612"
    },
    {
      "channel": 1,
      "note": 52,
      "start": 40.0073,
      "duration": 0.529,
      "velocity": 127,
      "chip": "ym2612"
    },
    {
      "channel": 0,
      "note": 83,
      "start": 40.2567,
      "duration": 0.1961,
      "velocity": 102,
      "chip": "ym2612"
    },
    {
      "channel": 0,
      "note": 84,
      "start": 40.5237,
      "duration": 0.1623,
      "velocity": 102,
      "chip": "ym2612"
    },
    {
      "channel": 4,
      "note": 83,
      "start": 40.6572,
      "duration": 0.1791,
      "velocity": 102,
      "chip": "ym2612"
    },
    {
      "channel": 4,
      "note": 84,
      "start": 40.9073,
      "duration": 0.179,
      "velocity": 102,
      "chip": "ym2612"
    },
    {
      "channel": 0,
      "note": 81,
      "start": 41.0401,
      "duration": 0.1961,
      "velocity": 102,
      "chip": "ym2612"
    },
    {
      "channel": 0,
      "note": 83,
      "start": 41.3065,
      "duration": 0.1796,
      "velocity": 102,
      "chip": "ym2612"
    },
    {
      "channel": 4,
      "note": 81,
      "start": 41.4239,
      "duration": 0.1814,
      "velocity": 102,
      "chip": "ym2612"
    },
    {
      "channel": 4,
      "note": 83,
      "start": 41.6764,
      "duration": 0.1955,
      "velocity": 102,
      "chip": "ym2612"
    },
    {
      "channel": 5,
      "note": 52,
      "start": 42.0588,
      "duration": 0.0633,
      "velocity": 118,
      "chip": "ym2612"
    },
    {
      "channel": 3,
      "note": 52,
      "start": 42.0617,
      "duration": 0.0935,
      "velocity": 111,
      "chip": "ym2612"
    },
    {
      "channel": 0,
      "note": 95,
      "start": 42.0644,
      "duration": 0.1907,
      "velocity": 102,
      "chip": "ym2612"
    },
    {
      "channel": 1,
      "note": 52,
      "start": 42.0673,
      "duration": 0.5879,
      "velocity": 127,
      "chip": "ym2612"
    },
    {
      "channel": 2,
      "note": 77,
      "start": 42.0701,
      "duration": 0.4019,
      "velocity": 121,
      "chip": "ym2612"
    },
    {
      "channel": 4,
      "note": 64,
      "start": 42.1922,
      "duration": 0.0798,
      "velocity": 111,
      "chip": "ym2612"
    },
    {
      "channel": 3,
      "note": 64,
      "start": 42.325,
      "duration": 0.0802,
      "velocity": 111,
      "chip": "ym2612"
    },
    {
      "channel": 4,
      "note": 64,
      "start": 42.459,
      "duration": 0.0796,
      "velocity": 111,
      "chip": "ym2612"
    },
    {
      "channel": 5,
      "note": 95,
      "start": 42.4623,
      "duration": 0.1932,
      "velocity": 102,
      "chip": "ym2612"
    },
    {
      "channel": 3,
      "note": 64,
      "start": 42.5921,
      "duration": 0.0798,
      "velocity": 111,
      "chip": "ym2612"
    },
    {
      "channel": 4,
      "note": 76,
      "start": 42.7086,
      "duration": 0.0968,
      "velocity": 111,
      "chip": "ym2612"
    },
    {
      "channel": 0,
      "note": 52,
      "start": 42.8421,
      "duration": 0.063,
      "velocity": 118,
      "chip": "ym2612"
    },
    {
      "channel": 3,
      "note": 52,
      "start": 42.8447,
      "duration": 0.0772,
      "velocity": 111,
      "chip": "ym2612"
    },
    {
      "channel": 2,
      "note": 83,
      "start": 42.8481,
      "duration": 0.174,
      "velocity": 102,
      "chip": "ym2612"
    },
    {
      "channel": 4,
      "note": 76,
      "start": 42.9753,
      "duration": 0.08,
      "velocity": 111,
      "chip": "ym2612"
    },
    {
      "channel": 0,
      "note": 52,
      "start": 43.1087,
      "duration": 0.0631,
      "velocity": 118,
      "chip": "ym2612"
    },
    {
      "channel": 3,
      "note": 52,
      "start": 43.1111,
      "duration": 0.0775,
      "velocity": 111,
      "chip": "ym2612"
    },
    {
      "channel": 2,
      "note": 86,
      "start": 43.1144,
      "duration": 0.1743,
      "velocity": 102,
      "chip": "ym2612"
    },
    {
      "channel": 1,
      "note": 52,
      "start": 43.1171,
      "duration": 0.5546,
      "velocity": 127,
      "chip": "ym2612"
    },
    {
      "channel": 4,
      "note": 64,
      "start": 43.2419,
      "duration": 0.08,
      "velocity": 111,
      "chip": "ym2612"
    },
    {
      "channel": 5,
      "note": 83,
      "start": 43.2454,
      "duration": 0.1599,
      "velocity": 102,
      "chip": "ym2612"
    },
    {
      "channel": 3,
      "note": 64,
      "start": 43.3585,
      "duration": 0.0968,
      "velocity": 111,
      "chip": "ym2612"
    },
    {
      "channel": 2,
      "note": 88,
      "start": 43.3617,
      "duration": 0.1938,
      "velocity": 102,
      "chip": "ym2612"
    },
    {
      "channel": 4,
      "note": 64,
      "start": 43.4919,
      "duration": 0.08,
      "velocity": 111,
      "chip": "ym2612"
    },
    {
      "channel": 5,
      "note": 86,
      "start": 43.4953,
      "duration": 0.1934,
      "velocity": 102,
      "chip": "ym2612"
    },
    {
      "channel": 3,
      "note": 76,
      "start": 43.625,
      "duration": 0.0803,
      "velocity": 111,
      "chip": "ym2612"
    },
    {
      "channel": 4,
      "note": 76,
      "start": 43.7585,
      "duration": 0.0802,
      "velocity": 111,
      "chip": "ym2612"
    },
    {
      "channel": 5,
      "note": 88,
      "start": 43.7618,
      "duration": 0.1769,
      "velocity": 102,
      "chip": "ym2612"
    },
    {
      "channel": 3,
      "note": 52,
      "start": 43.8917,
      "duration": 0.0802,
      "velocity": 111,
      "chip": "ym2612"
    },
    {
      "channel": 4,
      "note": 88,
      "start": 44.0086,
      "duration": 0.0966,
      "velocity": 111,
      "chip": "ym2612"
    },
    {
      "channel": 3,
      "note": 52,
      "start": 44.1417,
      "duration": 0.0802,
      "velocity": 111,
      "chip": "ym2612"
    },
    {
      "channel": 1,
      "note": 52,
      "start": 44.145,
      "duration": 0.5103,
      "velocity": 127,
      "chip": "ym2612"
    },
    {
      "channel": 4,
      "note": 64,
      "start": 44.2752,
      "duration": 0.0802,
      "velocity": 111,
      "chip": "ym2612"
    },
    {
      "channel": 3,
      "note": 64,
      "start": 44.4083,
      "duration": 0.0803,
      "velocity": 111,
      "chip": "ym2612"
    },
    {
      "channel": 2,
      "note": 88,
      "start": 44.4121,
      "duration": 0.2101,
      "velocity": 102,
      "chip": "ym2612"
    },
    {
      "channel": 4,
      "note": 64,
      "start": 44.5419,
      "duration": 0.0802,
      "velocity": 111,
      "chip": "ym2612"
    },
    {
      "channel": 3,
      "note": 64,
      "start": 44.6585,
      "duration": 0.0968,
      "velocity": 111,
      "chip": "ym2612"
    },
    {
      "channel": 2,
      "note": 89,
      "start": 44.6617,
      "duration": 0.2104,
      "velocity": 102,
      "chip": "ym2612"
    },
    {
      "channel": 4,
      "note": 76,
      "start": 44.7919,
      "duration": 0.08,
      "velocity": 111,
      "chip": "ym2612"
    },
    {
      "channel": 5,
      "note": 88,
      "start": 44.7954,
      "duration": 0.2099,
      "velocity": 102,
      "chip": "ym2612"
    },
    {
      "channel": 3,
      "note": 52,
      "start": 44.925,
      "duration": 0.0801,
      "velocity": 111,
      "chip": "ym2612"
    },
    {
      "channel": 4,
      "note": 76,
      "start": 45.0585,
      "duration": 0.0801,
      "velocity": 111,
      "chip": "ym2612"
    },
    {
      "channel": 5,
      "note": 89,
      "start": 45.0618,
      "duration": 0.2103,
      "velocity": 102,
      "chip": "ym2612"
    },
    {
      "channel": 3,
      "note": 52,
      "start": 45.1916,
      "duration": 0.0803,
      "velocity": 111,
      "chip": "ym2612"
    },
    {
      "channel": 2,
      "note": 89,
      "start": 45.1949,
      "duration": 0.2106,
      "velocity": 102,
      "chip": "ym2612"
    },
    {
      "channel": 4,
      "note": 64,
      "start": 45.3085,
      "duration": 0.0968,
      "velocity": 111,
      "chip": "ym2612"
    },
    {
      "channel": 3,
      "note": 64,
      "start": 45.4417,
      "duration": 0.0803,
      "velocity": 111,
      "chip": "ym2612"
    },
    {
      "channel": 2,
      "note": 91,
      "start": 45.4451,
      "duration": 0.177,
      "velocity": 102,
      "chip": "ym2612"
    },
    {
      "channel": 4,
      "note": 64,
      "start": 45.5752,
      "duration": 0.0801,
      "velocity": 111,
      "chip": "ym2612"
    },
    {
      "channel": 5,
      "note": 89,
      "start": 45.579,
      "duration": 0.1276,
      "velocity": 102,
      "chip": "ym2612"
    },
    {
      "channel": 3,
      "note": 76,
      "start": 45.7105,
      "duration": 0.006,
      "velocity": 111,
      "chip": "ym2612"
    },
    {
      "channel": 4,
      "note": 76,
      "start": 45.7243,
      "duration": 0.0649,
      "velocity": 111,
      "chip": "ym2612"
    },
    {
      "channel": 0,
      "note": 91,
      "start": 45.7264,
      "duration": 0.1461,
      "velocity": 102,
      "chip": "ym2612"
    },
    {
      "channel": 3,
      "note": 52,
      "start": 45.8256,
      "duration": 0.0968,
      "velocity": 111,
      "chip": "ym2612"
    },
    {
      "channel": 2,
      "note": 91,
      "start": 45.8291,
      "duration": 0.1386,
      "velocity": 102,
      "chip": "ym2612"
    },
    {
      "channel": 4,
      "note": 88,
      "start": 45.9627,
      "duration": 0.0061,
      "velocity": 111,
      "chip": "ym2612"
    },
    {
      "channel": 1,
      "note": 52,
      "start": 45.9747,
      "duration": 0.0467,
      "velocity": 118,
      "chip": "ym2612"
    },
    {
      "channel": 3,
      "note": 52,
      "start": 45.9767,
      "duration": 0.0613,
      "velocity": 111,
      "chip": "ym2612"
    },
    {
      "channel": 2,
      "note": 95,
      "start": 45.9787,
      "duration": 0.1762,
      "velocity": 102,
      "chip": "ym2612"
    },
    {
      "channel": 0,
      "note": 52,
      "start": 45.9805,
      "duration": 0.4909,
      "velocity": 127,
      "chip": "ym2612"
    },
    {
      "channel": 4,
      "note": 64,
      "start": 46.0914,
      "duration": 0.08,
      "velocity": 111,
      "chip": "ym2612"
    },
    {
      "channel": 5,
      "note": 91,
      "start": 46.095,
      "duration": 0.1765,
      "velocity": 102,
      "chip": "ym2612"
    },
    {
      "channel": 3,
      "note": 64,
      "start": 46.2246,
      "duration": 0.0802,
      "velocity": 111,
      "chip": "ym2612"
    },
    {
      "channel": 4,
      "note": 64,
      "start": 46.3418,
      "duration": 0.0964,
      "velocity": 111,
      "chip": "ym2612"
    },
    {
      "channel": 5,
      "note": 95,
      "start": 46.3452,
      "duration": 0.1273,
      "velocity": 102,
      "chip": "ym2612"
    },
    {
      "channel": 3,
      "note": 64,
      "start": 46.4764,
      "duration": 0.0074,
      "velocity": 111,
      "chip": "ym2612"
    },
    {
      "channel": 4,
      "note": 76,
      "start": 46.4901,
      "duration": 0.0654,
      "velocity": 111,
      "chip": "ym2612"
    },
    {
      "channel": 1,
      "note": 52,
      "start": 46.6087,
      "duration": 0.0634,
      "velocity": 118,
      "chip": "ym2612"
    },
    {
      "channel": 3,
      "note": 52,
      "start": 46.6112,
      "duration": 0.0776,
      "velocity": 111,
      "chip": "ym2612"
    },
    {
      "channel": 2,
      "note": 83,
      "start": 46.6146,
      "duration": 0.1577,
      "velocity": 102,
      "chip": "ym2612"
    },
    {
      "channel": 4,
      "note": 76,
      "start": 46.7421,
      "duration": 0.0801,
      "velocity": 111,
      "chip": "ym2612"
    },
    {
      "channel": 1,
      "note": 52,
      "start": 46.8589,
      "duration": 0.0633,
      "velocity": 118,
      "chip": "ym2612"
    },
    {
      "channel": 3,
      "note": 52,
      "start": 46.8613,
      "duration": 0.0774,
      "velocity": 111,
      "chip": "ym2612"
    },
    {
      "channel": 2,
      "note": 86,
      "start": 46.8648,
      "duration": 0.1742,
      "velocity": 102,
      "chip": "ym2612"
    },
    {
      "channel": 0,
      "note": 52,
      "start": 46.8678,
      "duration": 0.5159,
      "velocity": 127,
      "chip": "ym2612"
    },
    {
      "channel": 4,
      "note": 64,
      "start": 46.9921,
      "duration": 0.0801,
      "velocity": 111,
      "chip": "ym2612"
    },
    {
      "channel": 5,
      "note": 83,
      "start": 46.9958,
      "duration": 0.1597,
      "velocity": 102,
      "chip": "ym2612"
    },
    {
      "channel": 3,
      "note": 64,
      "start": 47.1252,
      "duration": 0.0803,
      "velocity": 111,
      "chip": "ym2612"
    },
    {
      "channel": 2,
      "note": 88,
      "start": 47.1286,
      "duration": 0.1937,
      "velocity": 102,
      "chip": "ym2612"
    },
    {
      "channel": 4,
      "note": 64,
      "start": 47.2587,
      "duration": 0.0802,
      "velocity": 111,
      "chip": "ym2612"
    },
    {
      "channel": 5,
      "note": 86,
      "start": 47.262,
      "duration": 0.1109,
      "velocity": 102,
      "chip": "ym2612"
    },
    {
      "channel": 3,
      "note": 76,
      "start": 47.3787,
      "duration": 0.007,
      "velocity": 111,
      "chip": "ym2612"
    },
    {
      "channel": 4,
      "note": 76,
      "start": 47.3916,
      "duration": 0.0513,
      "velocity": 111,
      "chip": "ym2612"
    },
    {
      "channel": 1,
      "note": 88,
      "start": 47.3937,
      "duration": 0.1659,
      "velocity": 102,
      "chip": "ym2612"
    },
    {
      "channel": 3,
      "note": 52,
      "start": 47.496,
      "duration": 0.0803,
      "velocity": 111,
      "chip": "ym2612"
    },
    {
      "channel": 4,
      "note": 88,
      "start": 47.6295,
      "duration": 0.0802,
      "velocity": 111,
      "chip": "ym2612"
    },
    {
      "channel": 2,
      "note": 52,
      "start": 47.7632,
      "duration": 0.0632,
      "velocity": 118,
      "chip": "ym2612"
    },
    {
      "channel": 3,
      "note": 52,
      "start": 47.7658,
      "duration": 0.0771,
      "velocity": 111,
      "chip": "ym2612"
    },
    {
      "channel": 0,
      "note": 52,
      "start": 47.769,
      "duration": 0.5152,
      "velocity": 127,
      "chip": "ym2612"
    },
    {
      "channel": 4,
      "note": 64,
      "start": 47.8795,
      "duration": 0.0969,
      "velocity": 111,
      "chip": "ym2612"
    },
    {
      "channel": 3,
      "note": 64,
      "start": 48.0127,
      "duration": 0.0803,
      "velocity": 111,
      "chip": "ym2612"
    },
    {
      "channel": 5,
      "note": 83,
      "start": 48.0159,
      "duration": 0.1938,
      "velocity": 102,
      "chip": "ym2612"
    },
    {
      "channel": 4,
      "note": 64,
      "start": 48.1462,
      "duration": 0.0802,
      "velocity": 111,
      "chip": "ym2612"
    },
    {
      "channel": 3,
      "note": 64,
      "start": 48.2808,
      "duration": 0.007,
      "velocity": 111,
      "chip": "ym2612"
    },
    {
      "channel": 1,
      "note": 84,
      "start": 48.2827,
      "duration": 0.0584,
      "velocity": 102,
      "chip": "ym2612"
    },
    {
      "channel": 4,
      "note": 76,
      "start": 48.2945,
      "duration": 0.0634,
      "velocity": 111,
      "chip": "ym2612"
    },
    {
      "channel": 2,
      "note": 83,
      "start": 48.2966,
      "duration": 0.1614,
      "velocity": 102,
      "chip": "ym2612"
    },
    {
      "channel": 0,
      "note": 52,
      "start": 48.3947,
      "duration": 0.063,
      "velocity": 118,
      "chip": "ym2612"
    },
    {
      "channel": 3,
      "note": 52,
      "start": 48.3972,
      "duration": 0.0939,
      "velocity": 111,
      "chip": "ym2612"
    },
    {
      "channel": 4,
      "note": 76,
      "start": 48.5277,
      "duration": 0.0802,
      "velocity": 111,
      "chip": "ym2612"
    },
    {
      "channel": 2,
      "note": 84,
      "start": 48.5312,
      "duration": 0.1935,
      "velocity": 102,
      "chip": "ym2612"
    },
    {
      "channel": 0,
      "note": 52,
      "start": 48.661,
      "duration": 0.0633,
      "velocity": 118,
      "chip": "ym2612"
    },
    {
      "channel": 3,
      "note": 52,
      "start": 48.6635,
      "duration": 0.0776,
      "velocity": 111,
      "chip": "ym2612"
    },
    {
      "channel": 1,
      "note": 81,
      "start": 48.6665,
      "duration": 0.1912,
      "velocity": 102,
      "chip": "ym2612"
    },
    {
      "channel": 4,
      "note": 64,
      "start": 48.7945,
      "duration": 0.08,
      "velocity": 111,
      "chip": "ym2612"
    },
    {
      "channel": 3,
      "note": 64,
      "start": 48.9276,
      "duration": 0.0802,
      "velocity": 111,
      "chip": "ym2612"
    },
    {
      "channel": 1,
      "note": 83,
      "start": 48.9308,
      "duration": 0.2102,
      "velocity": 102,
      "chip": "ym2612"
    },
    {
      "channel": 4,
      "note": 64,
      "start": 49.0445,
      "duration": 0.0968,
      "velocity": 111,
      "chip": "ym2612"
    },
    {
      "channel": 2,
      "note": 81,
      "start": 49.048,
      "duration": 0.1368,
      "velocity": 102,
      "chip": "ym2612"
    },
    {
      "channel": 3,
      "note": 76,
      "start": 49.179,
      "duration": 0.0073,
      "velocity": 111,
      "chip": "ym2612"
    },
    {
      "channel": 4,
      "note": 76,
      "start": 49.1925,
      "duration": 0.0652,
      "velocity": 111,
      "chip": "ym2612"
    },
    {
      "channel": 2,
      "note": 83,
      "start": 49.1946,
      "duration": 0.1966,
      "velocity": 102,
      "chip": "ym2612"
    },
    {
      "channel": 3,
      "note": 52,
      "start": 49.3107,
      "duration": 0.0802,
      "velocity": 111,
      "chip": "ym2612"
    },
    {
      "channel": 1,
      "note": 83,
      "start": 49.3139,
      "duration": 0.1603,
      "velocity": 102,
      "chip": "ym2612"
    },
    {
      "channel": 4,
      "note": 88,
      "start": 49.4442,
      "duration": 0.0801,
      "velocity": 111,
      "chip": "ym2612"
    },
    {
      "channel": 0,
      "note": 52,
      "start": 49.561,
      "duration": 0.0631,
      "velocity": 118,
      "chip": "ym2612"
    },
    {
      "channel": 3,
      "note": 52,
      "start": 49.5635,
      "duration": 0.0941,
      "velocity": 111,
      "chip": "ym2612"
    },
    {
      "channel": 1,
      "note": 95,
      "start": 49.567,
      "duration": 0.2406,
      "velocity": 102,
      "chip": "ym2612"
    },
    {
      "channel": 5,
      "note": 52,
      "start": 49.5701,
      "duration": 0.5216,
      "velocity": 127,
      "chip": "ym2612"
    },
    {
      "channel": 4,
      "note": 64,
      "start": 49.6943,
      "duration": 0.0801,
      "velocity": 111,
      "chip": "ym2612"
    },
    {
      "channel": 2,
      "note": 83,
      "start": 49.6979,
      "duration": 0.1765,
      "velocity": 102,
      "chip": "ym2612"
    },
    {
      "channel": 3,
      "note": 64,
      "start": 49.8275,
      "duration": 0.0802,
      "velocity": 111,
      "chip": "ym2612"
    },
    {
      "channel": 4,
      "note": 64,
      "start": 49.9613,
      "duration": 0.0798,
      "velocity": 111,
      "chip": "ym2612"
    },
    {
      "channel": 2,
      "note": 95,
      "start": 49.9649,
      "duration": 0.1425,
      "velocity": 102,
      "chip": "ym2612"
    },
    {
      "channel": 3,
      "note": 64,
      "start": 50.0976,
      "duration": 0.0072,
      "velocity": 111,
      "chip": "ym2612"
    },
    {
      "channel": 4,
      "note": 76,
      "start": 50.1109,
      "duration": 0.066,
      "velocity": 111,
      "chip": "ym2612"
    },
    {
      "channel": 0,
      "note": 52,
      "start": 50.2135,
      "duration": 0.0632,
      "velocity": 118,
      "chip": "ym2612"
    },
    {
      "channel": 3,
      "note": 52,
      "start": 50.216,
      "duration": 0.0775,
      "velocity": 111,
      "chip": "ym2612"
    },
    {
      "channel": 1,
      "note": 83,
      "start": 50.2192,
      "duration": 0.1742,
      "velocity": 102,
      "chip": "ym2612"
    },
    {
      "channel": 4,
      "note": 76,
      "start": 50.3468,
      "duration": 0.08,
      "velocity": 111,
      "chip": "ym2612"
    },
    {
      "channel": 0,
      "note": 52,
      "start": 50.4805,
      "duration": 0.0629,
      "velocity": 118,
      "chip": "ym2612"
    },
    {
      "channel": 3,
      "note": 52,
      "start": 50.483,
      "duration": 0.0772,
      "velocity": 111,
      "chip": "ym2612"
    },
    {
      "channel": 1,
      "note": 86,
      "start": 50.486,
      "duration": 0.2074,
      "velocity": 102,
      "chip": "ym2612"
    },
    {
      "channel": 2,
      "note": 52,
      "start": 50.4888,
      "duration": 0.5156,
      "velocity": 127,
      "chip": "ym2612"
    },
    {
      "channel": 4,
      "note": 64,
      "start": 50.6135,
      "duration": 0.0802,
      "velocity": 111,
      "chip": "ym2612"
    },
    {
      "channel": 5,
      "note": 83,
      "start": 50.6175,
      "duration": 0.1595,
      "velocity": 102,
      "chip": "ym2612"
    },
    {
      "channel": 3,
      "note": 64,
      "start": 50.7299,
      "duration": 0.0969,
      "velocity": 111,
      "chip": "ym2612"
    },
    {
      "channel": 1,
      "note": 88,
      "start": 50.7331,
      "duration": 0.1936,
      "velocity": 102,
      "chip": "ym2612"
    },
    {
      "channel": 4,
      "note": 64,
      "start": 50.8634,
      "duration": 0.0801,
      "velocity": 111,
      "chip": "ym2612"
    },
    {
      "channel": 5,
      "note": 86,
      "start": 50.8668,
      "duration": 0.1274,
      "velocity": 102,
      "chip": "ym2612"
    },
    {
      "channel": 3,
      "note": 76,
      "start": 50.9999,
      "duration": 0.0056,
      "velocity": 111,
      "chip": "ym2612"
    },
    {
      "channel": 4,
      "note": 76,
      "start": 51.0104,
      "duration": 0.0646,
      "velocity": 111,
      "chip": "ym2612"
    },
    {
      "channel": 0,
      "note": 88,
      "start": 51.0126,
      "duration": 0.1622,
      "velocity": 102,
      "chip": "ym2612"
    },
    {
      "channel": 3,
      "note": 52,
      "start": 51.1279,
      "duration": 0.0803,
      "velocity": 111,
      "chip": "ym2612"
    },
    {
      "channel": 4,
      "note": 88,
      "start": 51.2449,
      "duration": 0.0968,
      "velocity": 111,
      "chip": "ym2612"
    },
    {
      "channel": 1,
      "note": 52,
      "start": 51.3785,
      "duration": 0.063,
      "velocity": 118,
      "chip": "ym2612"
    },
    {
      "channel": 3,
      "note": 52,
      "start": 51.3809,
      "duration": 0.0773,
      "velocity": 111,
      "chip": "ym2612"
    },
    {
      "channel": 2,
      "note": 52,
      "start": 51.3845,
      "duration": 0.5073,
      "velocity": 127,
      "chip": "ym2612"
    },
    {
      "channel": 4,
      "note": 64,
      "start": 51.5115,
      "duration": 0.0802,
      "velocity": 111,
      "chip": "ym2612"
    },
    {
      "channel": 1,
      "note": 52,
      "start": 51.6448,
      "duration": 0.0633,
      "velocity": 118,
      "chip": "ym2612"
    },
    {
      "channel": 3,
      "note": 64,
      "start": 51.6473,
      "duration": 0.0776,
      "velocity": 111,
      "chip": "ym2612"
    },
    {
      "channel": 5,
      "note": 88,
      "start": 51.6505,
      "duration": 0.1744,
      "velocity": 102,
      "chip": "ym2612"
    },
    {
      "channel": 4,
      "note": 64,
      "start": 51.7783,
      "duration": 0.08,
      "velocity": 111,
      "chip": "ym2612"
    },
    {
      "channel": 3,
      "note": 64,
      "start": 51.898,
      "duration": 0.0096,
      "velocity": 111,
      "chip": "ym2612"
    },
    {
      "channel": 0,
      "note": 89,
      "start": 51.8998,
      "duration": 0.0581,
      "velocity": 102,
      "chip": "ym2612"
    },
    {
      "channel": 4,
      "note": 76,
      "start": 51.9118,
      "duration": 0.0628,
      "velocity": 111,
      "chip": "ym2612"
    },
    {
      "channel": 1,
      "note": 88,
      "start": 51.9138,
      "duration": 0.1773,
      "velocity": 102,
      "chip": "ym2612"
    },
    {
      "channel": 2,
      "note": 52,
      "start": 52.0282,
      "duration": 0.0632,
      "velocity": 118,
      "chip": "ym2612"
    },
    {
      "channel": 3,
      "note": 52,
      "start": 52.0307,
      "duration": 0.0772,
      "velocity": 111,
      "chip": "ym2612"
    },
    {
      "channel": 4,
      "note": 76,
      "start": 52.1612,
      "duration": 0.08,
      "velocity": 111,
      "chip": "ym2612"
    },
    {
      "channel": 1,
      "note": 89,
      "start": 52.1645,
      "duration": 0.1767,
      "velocity": 102,
      "chip": "ym2612"
    },
    {
      "channel": 2,
      "note": 52,
      "start": 52.2948,
      "duration": 0.0467,
      "velocity": 118,
      "chip": "ym2612"
    },
    {
      "channel": 3,
      "note": 52,
      "start": 52.2974,
      "duration": 0.0772,
      "velocity": 111,
      "chip": "ym2612"
    },
    {
      "channel": 0,
      "note": 89,
      "start": 52.3007,
      "duration": 0.1737,
      "velocity": 102,
      "chip": "ym2612"
    },
    {
      "channel": 4,
      "note": 64,
      "start": 52.4112,
      "duration": 0.0967,
      "velocity": 111,
      "chip": "ym2612"
    },
    {
      "channel": 3,
      "note": 64,
      "start": 52.5444,
      "duration": 0.0802,
      "velocity": 111,
      "chip": "ym2612"
    },
    {
      "channel": 0,
      "note": 91,
      "start": 52.5475,
      "duration": 0.1769,
      "velocity": 102,
      "chip": "ym2612"
    },
    {
      "channel": 4,
      "note": 64,
      "start": 52.6779,
      "duration": 0.08,
      "velocity": 111,
      "chip": "ym2612"
    },
    {
      "channel": 1,
      "note": 89,
      "start": 52.6811,
      "duration": 0.1365,
      "velocity": 102,
      "chip": "ym2612"
    },
    {
      "channel": 3,
      "note": 76,
      "start": 52.8125,
      "duration": 0.0066,
      "velocity": 111,
      "chip": "ym2612"
    },
    {
      "channel": 4,
      "note": 76,
      "start": 52.8268,
      "duration": 0.0649,
      "velocity": 111,
      "chip": "ym2612"
    },
    {
      "channel": 1,
      "note": 91,
      "start": 52.829,
      "duration": 0.146,
      "velocity": 102,
      "chip": "ym2612"
    },
    {
      "channel": 3,
      "note": 52,
      "start": 52.928,
      "duration": 0.0971,
      "velocity": 111,
      "chip": "ym2612"
    },
    {
      "channel": 0,
      "note": 91,
      "start": 52.9312,
      "duration": 0.1436,
      "velocity": 102,
      "chip": "ym2612"
    },
    {
      "channel": 4,
      "note": 88,
      "start": 53.0617,
      "duration": 0.08,
      "velocity": 111,
      "chip": "ym2612"
    },
    {
      "channel": 2,
      "note": 52,
      "start": 53.1953,
      "duration": 0.0095,
      "velocity": 118,
      "chip": "ym2612"
    },
    {
      "channel": 3,
      "note": 57,
      "start": 53.1978,
      "duration": 0.0773,
      "velocity": 111,
      "chip": "ym2612"
    },
    {
      "channel": 0,
      "note": 100,
      "start": 53.2009,
      "duration": 0.1908,
      "velocity": 102,
      "chip": "ym2612"
    },
    {
      "channel": 5,
      "note": 57,
      "start": 53.2039,
      "duration": 0.5046,
      "velocity": 127,
      "chip": "ym2612"
    },
    {
      "channel": 2,
      "note": 77,
      "start": 53.2067,
      "duration": 0.4352,
      "velocity": 121,
      "chip": "ym2612"
    },
    {
      "channel": 4,
      "note": 69,
      "start": 53.3283,
      "duration": 0.0801,
      "velocity": 111,
      "chip": "ym2612"
    },
    {
      "channel": 1,
      "note": 96,
      "start": 53.332,
      "duration": 0.1763,
      "velocity": 102,
      "chip": "ym2612"
    },
    {
      "channel": 3,
      "note": 69,
      "start": 53.4614,
      "duration": 0.0803,
      "velocity": 111,
      "chip": "ym2612"
    },
    {
      "channel": 4,
      "note": 69,
      "start": 53.5787,
      "duration": 0.0964,
      "velocity": 111,
      "chip": "ym2612"
    },
    {
      "channel": 1,
      "note": 100,
      "start": 53.5819,
      "duration": 0.1386,
      "velocity": 102,
      "chip": "ym2612"
    },
    {
      "channel": 3,
      "note": 69,
      "start": 53.7149,
      "duration": 0.0069,
      "velocity": 111,
      "chip": "ym2612"
    },
    {
      "channel": 4,
      "note": 81,
      "start": 53.7275,
      "duration": 0.0652,
      "velocity": 111,
      "chip": "ym2612"
    },
    {
      "channel": 0,
      "note": 52,
      "start": 53.8461,
      "duration": 0.063,
      "velocity": 118,
      "chip": "ym2612"
    },
    {
      "channel": 3,
      "note": 57,
      "start": 53.8486,
      "duration": 0.0772,
      "velocity": 111,
      "chip": "ym2612"
    },
    {
      "channel": 2,
      "note": 88,
      "start": 53.8521,
      "duration": 0.1573,
      "velocity": 102,
      "chip": "ym2612"
    },
    {
      "channel": 4,
      "note": 81,
      "start": 53.9793,
      "duration": 0.08,
      "velocity": 111,
      "chip": "ym2612"
    },
    {
      "channel": 0,
      "note": 52,
      "start": 54.0958,
      "duration": 0.0633,
      "velocity": 118,
      "chip": "ym2612"
    },
    {
      "channel": 3,
      "note": 57,
      "start": 54.0983,
      "duration": 0.0942,
      "velocity": 111,
      "chip": "ym2612"
    },
    {
      "channel": 2,
      "note": 91,
      "start": 54.1014,
      "duration": 0.1746,
      "velocity": 102,
      "chip": "ym2612"
    },
    {
      "channel": 1,
      "note": 57,
      "start": 54.1047,
      "duration": 0.5173,
      "velocity": 127,
      "chip": "ym2612"
    },
    {
      "channel": 4,
      "note": 69,
      "start": 54.2292,
      "duration": 0.0802,
      "velocity": 111,
      "chip": "ym2612"
    },
    {
      "channel": 5,
      "note": 88,
      "start": 54.2328,
      "duration": 0.1599,
      "velocity": 102,
      "chip": "ym2612"
    },
    {
      "channel": 3,
      "note": 69,
      "start": 54.3623,
      "duration": 0.0803,
      "velocity": 111,
      "chip": "ym2612"
    },
    {
      "channel": 2,
      "note": 93,
      "start": 54.3661,
      "duration": 0.1933,
      "velocity": 102,
      "chip": "ym2612"
    },
    {
      "channel": 4,
      "note": 69,
      "start": 54.4959,
      "duration": 0.08,
      "velocity": 111,
      "chip": "ym2612"
    },
    {
      "channel": 5,
      "note": 91,
      "start": 54.4991,
      "duration": 0.1109,
      "velocity": 102,
      "chip": "ym2612"
    },
    {
      "channel": 3,
      "note": 81,
      "start": 54.6159,
      "duration": 0.0096,
      "velocity": 111,
      "chip": "ym2612"
    },
    {
      "channel": 4,
      "note": 81,
      "start": 54.6305,
      "duration": 0.052,
      "velocity": 111,
      "chip": "ym2612"
    },
    {
      "channel": 0,
      "note": 93,
      "start": 54.6326,
      "duration": 0.1663,
      "velocity": 102,
      "chip": "ym2612"
    },
    {
      "channel": 3,
      "note": 57,
      "start": 54.7354,
      "duration": 0.0802,
      "velocity": 111,
      "chip": "ym2612"
    },
    {
      "channel": 4,
      "note": 93,
      "start": 54.869,
      "duration": 0.0801,
      "velocity": 111,
      "chip": "ym2612"
    },
    {
      "channel": 2,
      "note": 52,
      "start": 55.0031,
      "duration": 0.0628,
      "velocity": 118,
      "chip": "ym2612"
    },
    {
      "channel": 3,
      "note": 57,
      "start": 55.0056,
      "duration": 0.0768,
      "velocity": 111,
      "chip": "ym2612"
    },
    {
      "channel": 1,
      "note": 57,
      "start": 55.0088,
      "duration": 0.5133,
      "velocity": 127,
      "chip": "ym2612"
    },
    {
      "channel": 4,
      "note": 69,
      "start": 55.1189,
      "duration": 0.0967,
      "velocity": 111,
      "chip": "ym2612"
    },
    {
      "channel": 3,
      "note": 69,
      "start": 55.2522,
      "duration": 0.0802,
      "velocity": 111,
      "chip": "ym2612"
    },
    {
      "channel": 5,
      "note": 88,
      "start": 55.2554,
      "duration": 0.1938,
      "velocity": 102,
      "chip": "ym2612"
    },
    {
      "channel": 4,
      "note": 69,
      "start": 55.3856,
      "duration": 0.0801,
      "velocity": 111,
      "chip": "ym2612"
    },
    {
      "channel": 3,
      "note": 69,
      "start": 55.5201,
      "duration": 0.0089,
      "velocity": 111,
      "chip": "ym2612"
    },
    {
      "channel": 0,
      "note": 89,
      "start": 55.522,
      "duration": 0.0593,
      "velocity": 102,
      "chip": "ym2612"
    },
    {
      "channel": 4,
      "note": 81,
      "start": 55.5346,
      "duration": 0.0636,
      "velocity": 111,
      "chip": "ym2612"
    },
    {
      "channel": 2,
      "note": 88,
      "start": 55.5365,
      "duration": 0.1619,
      "velocity": 102,
      "chip": "ym2612"
    },
    {
      "channel": 1,
      "note": 52,
      "start": 55.6351,
      "duration": 0.0631,
      "velocity": 118,
      "chip": "ym2612"
    },
    {
      "channel": 3,
      "note": 57,
      "start": 55.6376,
      "duration": 0.0939,
      "velocity": 111,
      "chip": "ym2612"
    },
    {
      "channel": 4,
      "note": 81,
      "start": 55.768,
      "duration": 0.0802,
      "velocity": 111,
      "chip": "ym2612"
    },
    {
      "channel": 2,
      "note": 89,
      "start": 55.7715,
      "duration": 0.1936,
      "velocity": 102,
      "chip": "ym2612"
    },
    {
      "channel": 1,
      "note": 52,
      "start": 55.9014,
      "duration": 0.0634,
      "velocity": 118,
      "chip": "ym2612"
    },
    {
      "channel": 3,
      "note": 57,
      "start": 55.904,
      "duration": 0.0775,
      "velocity": 111,
      "chip": "ym2612"
    },
    {
      "channel": 0,
      "note": 86,
      "start": 55.9069,
      "duration": 0.1912,
      "velocity": 102,
      "chip": "ym2612"
    },
    {
      "channel": 4,
      "note": 69,
      "start": 56.0347,
      "duration": 0.08,
      "velocity": 111,
      "chip": "ym2612"
    },
    {
      "channel": 3,
      "note": 69,
      "start": 56.1679,
      "duration": 0.0802,
      "velocity": 111,
      "chip": "ym2612"
    },
    {
      "channel": 0,
      "note": 88,
      "start": 56.171,
      "duration": 0.2103,
      "velocity": 102,
      "chip": "ym2612"
    },
    {
      "channel": 4,
      "note": 69,
      "start": 56.2848,
      "duration": 0.0968,
      "velocity": 111,
      "chip": "ym2612"
    },
    {
      "channel": 2,
      "note": 86,
      "start": 56.2886,
      "duration": 0.1388,
      "velocity": 102,
      "chip": "ym2612"
    },
    {
      "channel": 3,
      "note": 81,
      "start": 56.4212,
      "duration": 0.0072,
      "velocity": 111,
      "chip": "ym2612"
    },
    {
      "channel": 4,
      "note": 81,
      "start": 56.4341,
      "duration": 0.0643,
      "velocity": 111,
      "chip": "ym2612"
    },
    {
      "channel": 2,
      "note": 88,
      "start": 56.4362,
      "duration": 0.1194,
      "velocity": 102,
      "chip": "ym2612"
    },
    {
      "channel": 3,
      "note": 57,
      "start": 56.5515,
      "duration": 0.0803,
      "velocity": 111,
      "chip": "ym2612"
    },
    {
      "channel": 0,
      "note": 88,
      "start": 56.5547,
      "duration": 0.1603,
      "velocity": 102,
      "chip": "ym2612"
    },
    {
      "channel": 2,
      "note": 77,
      "start": 56.5575,
      "duration": 0.2245,
      "velocity": 121,
      "chip": "ym2612"
    },
    {
      "channel": 4,
      "note": 93,
      "start": 56.6851,
      "duration": 0.08,
      "velocity": 111,
      "chip": "ym2612"
    },
    {
      "channel": 1,
      "note": 52,
      "start": 56.8018,
      "duration": 0.0632,
      "velocity": 118,
      "chip": "ym2612"
    },
    {
      "channel": 3,
      "note": 57,
      "start": 56.8043,
      "duration": 0.0941,
      "velocity": 111,
      "chip": "ym2612"
    },
    {
      "channel": 0,
      "note": 100,
      "start": 56.8074,
      "duration": 0.2408,
      "velocity": 102,
      "chip": "ym2612"
    },
    {
      "channel": 5,
      "note": 57,
      "start": 56.8104,
      "duration": 0.5225,
      "velocity": 127,
      "chip": "ym2612"
    },
    {
      "channel": 2,
      "note": 77,
      "start": 56.8132,
      "duration": 0.5261,
      "velocity": 121,
      "chip": "ym2612"
    },
    {
      "channel": 4,
      "note": 69,
      "start": 56.9351,
      "duration": 0.0801,
      "velocity": 111,
      "chip": "ym2612"
    },
    {
      "channel": 1,
      "note": 88,
      "start": 56.9387,
      "duration": 0.1763,
      "velocity": 102,
      "chip": "ym2612"
    },
    {
      "channel": 3,
      "note": 69,
      "start": 57.0683,
      "duration": 0.0802,
      "velocity": 111,
      "chip": "ym2612"
    },
    {
      "channel": 4,
      "note": 69,
      "start": 57.202,
      "duration": 0.0798,
      "velocity": 111,
      "chip": "ym2612"
    },
    {
      "channel": 1,
      "note": 100,
      "start": 57.2054,
      "duration": 0.1427,
      "velocity": 102,
      "chip": "ym2612"
    },
    {
      "channel": 3,
      "note": 69,
      "start": 57.3387,
      "duration": 0.0073,
      "velocity": 111,
      "chip": "ym2612"
    },
    {
      "channel": 4,
      "note": 81,
      "start": 57.3521,
      "duration": 0.0655,
      "velocity": 111,
      "chip": "ym2612"
    },
    {
      "channel": 0,
      "note": 52,
      "start": 57.4544,
      "duration": 0.0632,
      "velocity": 118,
      "chip": "ym2612"
    },
    {
      "channel": 3,
      "note": 57,
      "start": 57.4569,
      "duration": 0.0773,
      "velocity": 111,
      "chip": "ym2612"
    },
    {
      "channel": 2,
      "note": 88,
      "start": 57.4607,
      "duration": 0.1737,
      "velocity": 102,
      "chip": "ym2612"
    },
    {
      "channel": 4,
      "note": 81,
      "start": 57.5875,
      "duration": 0.0801,
      "velocity": 111,
      "chip": "ym2612"
    },
    {
      "channel": 0,
      "note": 52,
      "start": 57.7208,
      "duration": 0.0632,
      "velocity": 118,
      "chip": "ym2612"
    },
    {
      "channel": 3,
      "note": 57,
      "start": 57.7233,
      "duration": 0.0776,
      "velocity": 111,
      "chip": "ym2612"
    },
    {
      "channel": 2,
      "note": 91,
      "start": 57.7266,
      "duration": 0.208,
      "velocity": 102,
      "chip": "ym2612"
    },
    {
      "channel": 1,
      "note": 57,
      "start": 57.7295,
      "duration": 0.5143,
      "velocity": 127,
      "chip": "ym2612"
    },
    {
      "channel": 4,
      "note": 69,
      "start": 57.8541,
      "duration": 0.0802,
      "velocity": 111,
      "chip": "ym2612"
    },
    {
      "channel": 5,
      "note": 88,
      "start": 57.8578,
      "duration": 0.1599,
      "velocity": 102,
      "chip": "ym2612"
    },
    {
      "channel": 3,
      "note": 69,
      "start": 57.9707,
      "duration": 0.0969,
      "velocity": 111,
      "chip": "ym2612"
    },
    {
      "channel": 2,
      "note": 93,
      "start": 57.974,
      "duration": 0.1937,
      "velocity": 102,
      "chip": "ym2612"
    },
    {
      "channel": 4,
      "note": 69,
      "start": 58.1042,
      "duration": 0.08,
      "velocity": 111,
      "chip": "ym2612"
    },
    {
      "channel": 5,
      "note": 91,
      "start": 58.1076,
      "duration": 0.1273,
      "velocity": 102,
      "chip": "ym2612"
    },
    {
      "channel": 3,
      "note": 81,
      "start": 58.2408,
      "duration": 0.0056,
      "velocity": 111,
      "chip": "ym2612"
    },
    {
      "channel": 4,
      "note": 81,
      "start": 58.2524,
      "duration": 0.0651,
      "velocity": 111,
      "chip": "ym2612"
    },
    {
      "channel": 0,
      "note": 93,
      "start": 58.2544,
      "duration": 0.1629,
      "velocity": 102,
      "chip": "ym2612"
    },
    {
      "channel": 3,
      "note": 57,
      "start": 58.3703,
      "duration": 0.0804,
      "velocity": 111,
      "chip": "ym2612"
    },
    {
      "channel": 4,
      "note": 93,
      "start": 58.4874,
      "duration": 0.0966,
      "velocity": 111,
      "chip": "ym2612"
    },
    {
      "channel": 2,
      "note": 52,
      "start": 58.621,
      "duration": 0.0632,
      "velocity": 118,
      "chip": "ym2612"
    },
    {
      "channel": 3,
      "note": 57,
      "start": 58.6236,
      "duration": 0.0771,
      "velocity": 111,
      "chip": "ym2612"
    },
    {
      "channel": 1,
      "note": 57,
      "start": 58.6267,
      "duration": 0.5189,
      "velocity": 127,
      "chip": "ym2612"
    },
    {
      "channel": 4,
      "note": 69,
      "start": 58.754,
      "duration": 0.0801,
      "velocity": 111,
      "chip": "ym2612"
    },
    {
      "channel": 2,
      "note": 52,
      "start": 58.8876,
      "duration": 0.0633,
      "velocity": 118,
      "chip": "ym2612"
    },
    {
      "channel": 3,
      "note": 69,
      "start": 58.8902,
      "duration": 0.0773,
      "velocity": 111,
      "chip": "ym2612"
    },
    {
      "channel": 5,
      "note": 93,
      "start": 58.8934,
      "duration": 0.1742,
      "velocity": 102,
      "chip": "ym2612"
    },
    {
      "channel": 4,
      "note": 69,
      "start": 59.0207,
      "duration": 0.0801,
      "velocity": 111,
      "chip": "ym2612"
    },
    {
      "channel": 3,
      "note": 69,
      "start": 59.1406,
      "duration": 0.0099,
      "velocity": 111,
      "chip": "ym2612"
    },
    {
      "channel": 0,
      "note": 94,
      "start": 59.1424,
      "duration": 0.0588,
      "velocity": 102,
      "chip": "ym2612"
    },
    {
      "channel": 4,
      "note": 81,
      "start": 59.155,
      "duration": 0.0631,
      "velocity": 111,
      "chip": "ym2612"
    },
    {
      "channel": 2,
      "note": 93,
      "start": 59.1569,
      "duration": 0.1781,
      "velocity": 102,
      "chip": "ym2612"
    },
    {
      "channel": 1,
      "note": 52,
      "start": 59.2721,
      "duration": 0.0627,
      "velocity": 118,
      "chip": "ym2612"
    },
    {
      "channel": 3,
      "note": 57,
      "start": 59.2746,
      "duration": 0.0768,
      "velocity": 111,
      "chip": "ym2612"
    },
    {
      "channel": 4,
      "note": 81,
      "start": 59.4046,
      "duration": 0.0801,
      "velocity": 111,
      "chip": "ym2612"
    },
    {
      "channel": 2,
      "note": 94,
      "start": 59.4081,
      "duration": 0.1769,
      "velocity": 102,
      "chip": "ym2612"
    },
    {
      "channel": 1,
      "note": 52,
      "start": 59.5381,
      "duration": 0.0466,
      "velocity": 118,
      "chip": "ym2612"
    },
    {
      "channel": 3,
      "note": 57,
      "start": 59.5406,
      "duration": 0.0774,
      "velocity": 111,
      "chip": "ym2612"
    },
    {
      "channel": 0,
      "note": 94,
      "start": 59.5436,
      "duration": 0.1745,
      "velocity": 102,
      "chip": "ym2612"
    },
    {
      "channel": 4,
      "note": 69,
      "start": 59.6548,
      "duration": 0.0968,
      "velocity": 111,
      "chip": "ym2612"
    },
    {
      "channel": 3,
      "note": 69,
      "start": 59.7878,
      "duration": 0.0802,
      "velocity": 111,
      "chip": "ym2612"
    },
    {
      "channel": 0,
      "note": 96,
      "start": 59.7913,
      "duration": 0.1767,
      "velocity": 102,
      "chip": "ym2612"
    },
    {
      "channel": 4,
      "note": 69,
      "start": 59.9214,
      "duration": 0.0801,
      "velocity": 111,
      "chip": "ym2612"
    },
    {
      "channel": 2,
      "note": 94,
      "start": 59.9249,
      "duration": 0.1361,
      "velocity": 102,
      "chip": "ym2612"
    },
    {
      "channel": 3,
      "note": 81,
      "start": 60.0563,
      "duration": 0.0056,
      "velocity": 111,
      "chip": "ym2612"
    },
    {
      "channel": 4,
      "note": 81,
      "start": 60.0692,
      "duration": 0.008,
      "velocity": 111,
      "chip": "ym2612"
    },
    {
      "channel": 2,
      "note": 96,
      "start": 60.0713,
      "duration": 0.0239,
      "velocity": 102,
      "chip": "ym2612"
    },
    {
      "channel": 3,
      "note": 57,
      "start": 60.0827,
      "duration": 0.0624,
      "velocity": 111,
      "chip": "ym2612"
    },
    {
      "channel": 0,
      "note": 96,
      "start": 60.0845,
      "duration": 0.1103,
      "velocity": 102,
      "chip": "ym2612"
    },
    {
      "channel": 4,
      "note": 93,
      "start": 60.1817,
      "duration": 0.0802,
      "velocity": 111,
      "chip": "ym2612"
    },
    {
      "channel": 1,
      "note": 52,
      "start": 60.315,
      "duration": 0.0634,
      "velocity": 118,
      "chip": "ym2612"
    },
    {
      "channel": 3,
      "note": 52,
      "start": 60.3176,
      "duration": 0.0775,
      "velocity": 111,
      "chip": "ym2612"
    },
    {
      "channel": 0,
      "note": 95,
      "start": 60.3206,
      "duration": 0.191,
      "velocity": 102,
      "chip": "ym2612"
    },
    {
      "channel": 5,
      "note": 52,
      "start": 60.3238,
      "duration": 0.5055,
      "velocity": 127,
      "chip": "ym2612"
    },
    {
      "channel": 2,
      "note": 77,
      "start": 60.3269,
      "duration": 0.4684,
      "velocity": 121,
      "chip": "ym2612"
    },
    {
      "channel": 4,
      "note": 64,
      "start": 60.4482,
      "duration": 0.0803,
      "velocity": 111,
      "chip": "ym2612"
    },
    {
      "channel": 1,
      "note": 91,
      "start": 60.4518,
      "duration": 0.1765,
      "velocity": 102,
      "chip": "ym2612"
    },
    {
      "channel": 3,
      "note": 64,
      "start": 60.5816,
      "duration": 0.08,
      "velocity": 111,
      "chip": "ym2612"
    },
    {
      "channel": 4,
      "note": 64,
      "start": 60.6988,
      "duration": 0.0963,
      "velocity": 111,
      "chip": "ym2612"
    },
    {
      "channel": 1,
      "note": 95,
      "start": 60.7023,
      "duration": 0.1378,
      "velocity": 102,
      "chip": "ym2612"
    },
    {
      "channel": 3,
      "note": 64,
      "start": 60.8352,
      "duration": 0.0066,
      "velocity": 111,
      "chip": "ym2612"
    },
    {
      "channel": 4,
      "note": 76,
      "start": 60.848,
      "duration": 0.0654,
      "velocity": 111,
      "chip": "ym2612"
    },
    {
      "channel": 0,
      "note": 52,
      "start": 60.9669,
      "duration": 0.0631,
      "velocity": 118,
      "chip": "ym2612"
    },
    {
      "channel": 3,
      "note": 52,
      "start": 60.9695,
      "duration": 0.0773,
      "velocity": 111,
      "chip": "ym2612"
    },
    {
      "channel": 2,
      "note": 83,
      "start": 60.9729,
      "duration": 0.1573,
      "velocity": 102,
      "chip": "ym2612"
    },
    {
      "channel": 4,
      "note": 76,
      "start": 61.1,
      "duration": 0.0801,
      "velocity": 111,
      "chip": "ym2612"
    },
    {
      "channel": 0,
      "note": 52,
      "start": 61.2166,
      "duration": 0.0633,
      "velocity": 118,
      "chip": "ym2612"
    },
    {
      "channel": 3,
      "note": 52,
      "start": 61.2191,
      "duration": 0.0943,
      "velocity": 111,
      "chip": "ym2612"
    },
    {
      "channel": 2,
      "note": 86,
      "start": 61.2222,
      "duration": 0.1747,
      "velocity": 102,
      "chip": "ym2612"
    },
    {
      "channel": 1,
      "note": 52,
      "start": 61.2249,
      "duration": 0.5163,
      "velocity": 127,
      "chip": "ym2612"
    },
    {
      "channel": 4,
      "note": 64,
      "start": 61.35,
      "duration": 0.0801,
      "velocity": 111,
      "chip": "ym2612"
    },
    {
      "channel": 5,
      "note": 83,
      "start": 61.3536,
      "duration": 0.1766,
      "velocity": 102,
      "chip": "ym2612"
    },
    {
      "channel": 3,
      "note": 64,
      "start": 61.4832,
      "duration": 0.0803,
      "velocity": 111,
      "chip": "ym2612"
    },
    {
      "channel": 2,
      "note": 88,
      "start": 61.4865,
      "duration": 0.1937,
      "velocity": 102,
      "chip": "ym2612"
    },
    {
      "channel": 4,
      "note": 64,
      "start": 61.6167,
      "duration": 0.0802,
      "velocity": 111,
      "chip": "ym2612"
    },
    {
      "channel": 5,
      "note": 86,
      "start": 61.6199,
      "duration": 0.1109,
      "velocity": 102,
      "chip": "ym2612"
    },
    {
      "channel": 3,
      "note": 76,
      "start": 61.7366,
      "duration": 0.0074,
      "velocity": 111,
      "chip": "ym2612"
    },
    {
      "channel": 4,
      "note": 76,
      "start": 61.7483,
      "duration": 0.0516,
      "velocity": 111,
      "chip": "ym2612"
    },
    {
      "channel": 0,
      "note": 88,
      "start": 61.7504,
      "duration": 0.1661,
      "velocity": 102,
      "chip": "ym2612"
    },
    {
      "channel": 3,
      "note": 52,
      "start": 61.853,
      "duration": 0.0803,
      "velocity": 111,
      "chip": "ym2612"
    },
    {
      "channel": 4,
      "note": 88,
      "start": 61.9866,
      "duration": 0.0799,
      "velocity": 111,
      "chip": "ym2612"
    },
    {
      "channel": 2,
      "note": 52,
      "start": 62.1203,
      "duration": 0.0632,
      "velocity": 118,
      "chip": "ym2612"
    },
    {
      "channel": 3,
      "note": 52,
      "start": 62.1229,
      "duration": 0.0771,
      "velocity": 111,
      "chip": "ym2612"
    },
    {
      "channel": 1,
      "note": 52,
      "start": 62.1265,
      "duration": 0.5068,
      "velocity": 127,
      "chip": "ym2612"
    },
    {
      "channel": 4,
      "note": 64,
      "start": 62.2366,
      "duration": 0.0967,
      "velocity": 111,
      "chip": "ym2612"
    },
    {
      "channel": 3,
      "note": 64,
      "start": 62.3698,
      "duration": 0.0802,
      "velocity": 111,
      "chip": "ym2612"
    },
    {
      "channel": 5,
      "note": 83,
      "start": 62.373,
      "duration": 0.1936,
      "velocity": 102,
      "chip": "ym2612"
    },
    {
      "channel": 4,
      "note": 64,
      "start": 62.5032,
      "duration": 0.0801,
      "velocity": 111,
      "chip": "ym2612"
    },
    {
      "channel": 3,
      "note": 64,
      "start": 62.64,
      "duration": 0.0062,
      "velocity": 111,
      "chip": "ym2612"
    },
    {
      "channel": 0,
      "note": 84,
      "start": 62.6418,
      "duration": 0.0555,
      "velocity": 102,
      "chip": "ym2612"
    },
    {
      "channel": 4,
      "note": 76,
      "start": 62.651,
      "duration": 0.0632,
      "velocity": 111,
      "chip": "ym2612"
    },
    {
      "channel": 2,
      "note": 83,
      "start": 62.6529,
      "duration": 0.1614,
      "velocity": 102,
      "chip": "ym2612"
    },
    {
      "channel": 1,
      "note": 52,
      "start": 62.751,
      "duration": 0.063,
      "velocity": 118,
      "chip": "ym2612"
    },
    {
      "channel": 3,
      "note": 52,
      "start": 62.7535,
      "duration": 0.0939,
      "velocity": 111,
      "chip": "ym2612"
    },
    {
      "channel": 4,
      "note": 76,
      "start": 62.884,
      "duration": 0.0802,
      "velocity": 111,
      "chip": "ym2612"
    },
    {
      "channel": 2,
      "note": 84,
      "start": 62.8875,
      "duration": 0.1935,
      "velocity": 102,
      "chip": "ym2612"
    },
    {
      "channel": 1,
      "note": 52,
      "start": 63.0174,
      "duration": 0.0632,
      "velocity": 118,
      "chip": "ym2612"
    },
    {
      "channel": 3,
      "note": 52,
      "start": 63.02,
      "duration": 0.0776,
      "velocity": 111,
      "chip": "ym2612"
    },
    {
      "channel": 0,
      "note": 81,
      "start": 63.0229,
      "duration": 0.191,
      "velocity": 102,
      "chip": "ym2612"
    },
    {
      "channel": 4,
      "note": 64,
      "start": 63.1507,
      "duration": 0.0801,
      "velocity": 111,
      "chip": "ym2612"
    },
    {
      "channel": 3,
      "note": 64,
      "start": 63.2838,
      "duration": 0.0804,
      "velocity": 111,
      "chip": "ym2612"
    },
    {
      "channel": 0,
      "note": 83,
      "start": 63.2869,
      "duration": 0.2104,
      "velocity": 102,
      "chip": "ym2612"
    },
    {
      "channel": 4,
      "note": 64,
      "start": 63.4007,
      "duration": 0.0968,
      "velocity": 111,
      "chip": "ym2612"
    },
    {
      "channel": 2,
      "note": 81,
      "start": 63.4042,
      "duration": 0.1365,
      "velocity": 102,
      "chip": "ym2612"
    },
    {
      "channel": 3,
      "note": 76,
      "start": 63.5355,
      "duration": 0.0062,
      "velocity": 111,
      "chip": "ym2612"
    },
    {
      "channel": 4,
      "note": 76,
      "start": 63.5478,
      "duration": 0.065,
      "velocity": 111,
      "chip": "ym2612"
    },
    {
      "channel": 2,
      "note": 83,
      "start": 63.5501,
      "duration": 0.1961,
      "velocity": 102,
      "chip": "ym2612"
    },
    {
      "channel": 3,
      "note": 52,
      "start": 63.6659,
      "duration": 0.0801,
      "velocity": 111,
      "chip": "ym2612"
    },
    {
      "channel": 0,
      "note": 83,
      "start": 63.669,
      "duration": 0.1603,
      "velocity": 102,
      "chip": "ym2612"
    },
    {
      "channel": 4,
      "note": 88,
      "start": 63.7993,
      "duration": 0.08,
      "velocity": 111,
      "chip": "ym2612"
    },
    {
      "channel": 1,
      "note": 52,
      "start": 63.9164,
      "duration": 0.063,
      "velocity": 118,
      "chip": "ym2612"
    },
    {
      "channel": 3,
      "note": 52,
      "start": 63.9189,
      "duration": 0.0939,
      "velocity": 111,
      "chip": "ym2612"
    },
    {
      "channel": 0,
      "note": 95,
      "start": 63.922,
      "duration": 0.2405,
      "velocity": 102,
      "chip": "ym2612"
    },
    {
      "channel": 5,
      "note": 52,
      "start": 63.9251,
      "duration": 0.5216,
      "velocity": 127,
      "chip": "ym2612"
    },
    {
      "channel": 4,
      "note": 64,
      "start": 64.0494,
      "duration": 0.08,
      "velocity": 111,
      "chip": "ym2612"
    },
    {
      "channel": 2,
      "note": 83,
      "start": 64.053,
      "duration": 0.1765,
      "velocity": 102,
      "chip": "ym2612"
    },
    {
      "channel": 3,
      "note": 64,
      "start": 64.1825,
      "duration": 0.08,
      "velocity": 111,
      "chip": "ym2612"
    },
    {
      "channel": 4,
      "note": 64,
      "start": 64.3163,
      "duration": 0.0798,
      "velocity": 111,
      "chip": "ym2612"
    },
    {
      "channel": 2,
      "note": 95,
      "start": 64.32,
      "duration": 0.1396,
      "velocity": 102,
      "chip": "ym2612"
    },
    {
      "channel": 3,
      "note": 64,
      "start": 64.4507,
      "duration": 0.0069,
      "velocity": 111,
      "chip": "ym2612"
    },
    {
      "channel": 4,
      "note": 76,
      "start": 64.4622,
      "duration": 0.0673,
      "velocity": 111,
      "chip": "ym2612"
    },
    {
      "channel": 1,
      "note": 52,
      "start": 64.5661,
      "duration": 0.0634,
      "velocity": 118,
      "chip": "ym2612"
    },
    {
      "channel": 3,
      "note": 52,
      "start": 64.5687,
      "duration": 0.0775,
      "velocity": 111,
      "chip": "ym2612"
    },
    {
      "channel": 0,
      "note": 83,
      "start": 64.5718,
      "duration": 0.1742,
      "velocity": 102,
      "chip": "ym2612"
    },
    {
      "channel": 4,
      "note": 76,
      "start": 64.6995,
      "duration": 0.0801,
      "velocity": 111,
      "chip": "ym2612"
    },
    {
      "channel": 1,
      "note": 52,
      "start": 64.8327,
      "duration": 0.0634,
      "velocity": 118,
      "chip": "ym2612"
    },
    {
      "channel": 3,
      "note": 52,
      "start": 64.8352,
      "duration": 0.0777,
      "velocity": 111,
      "chip": "ym2612"
    },
    {
      "channel": 0,
      "note": 86,
      "start": 64.8385,
      "duration": 0.2075,
      "velocity": 102,
      "chip": "ym2612"
    },
    {
      "channel": 2,
      "note": 52,
      "start": 64.8417,
      "duration": 0.5147,
      "velocity": 127,
      "chip": "ym2612"
    },
    {
      "channel": 4,
      "note": 64,
      "start": 64.9661,
      "duration": 0.0802,
      "velocity": 111,
      "chip": "ym2612"
    },
    {
      "channel": 5,
      "note": 83,
      "start": 64.9697,
      "duration": 0.1599,
      "velocity": 102,
      "chip": "ym2612"
    },
    {
      "channel": 3,
      "note": 64,
      "start": 65.0827,
      "duration": 0.0969,
      "velocity": 111,
      "chip": "ym2612"
    },
    {
      "channel": 0,
      "note": 88,
      "start": 65.0858,
      "duration": 0.1937,
      "velocity": 102,
      "chip": "ym2612"
    },
    {
      "channel": 4,
      "note": 64,
      "start": 65.2161,
      "duration": 0.0801,
      "velocity": 111,
      "chip": "ym2612"
    },
    {
      "channel": 5,
      "note": 86,
      "start": 65.2195,
      "duration": 0.1274,
      "velocity": 102,
      "chip": "ym2612"
    },
    {
      "channel": 3,
      "note": 76,
      "start": 65.3526,
      "duration": 0.006,
      "velocity": 111,
      "chip": "ym2612"
    },
    {
      "channel": 4,
      "note": 76,
      "start": 65.3668,
      "duration": 0.0654,
      "velocity": 111,
      "chip": "ym2612"
    },
    {
      "channel": 1,
      "note": 88,
      "start": 65.3691,
      "duration": 0.1631,
      "velocity": 102,
      "chip": "ym2612"
    },
    {
      "channel": 3,
      "note": 52,
      "start": 65.4854,
      "duration": 0.08,
      "velocity": 111,
      "chip": "ym2612"
    },
    {
      "channel": 4,
      "note": 88,
      "start": 65.6022,
      "duration": 0.0968,
      "velocity": 111,
      "chip": "ym2612"
    },
    {
      "channel": 0,
      "note": 52,
      "start": 65.7357,
      "duration": 0.063,
      "velocity": 118,
      "chip": "ym2612"
    },
    {
      "channel": 3,
      "note": 52,
      "start": 65.7382,
      "duration": 0.0774,
      "velocity": 111,
      "chip": "ym2612"
    },
    {
      "channel": 4,
      "note": 64,
      "start": 65.869,
      "duration": 0.08,
      "velocity": 111,
      "chip": "ym2612"
    },
    {
      "channel": 0,
      "note": 52,
      "start": 66.0022,
      "duration": 0.0633,
      "velocity": 118,
      "chip": "ym2612"
    },
    {
      "channel": 3,
      "note": 64,
      "start": 66.0047,
      "duration": 0.0776,
      "velocity": 111,
      "chip": "ym2612"
    },
    {
      "channel": 2,
      "note": 88,
      "start": 66.0081,
      "duration": 0.2078,
      "velocity": 102,
      "chip": "ym2612"
    },
    {
      "channel": 4,
      "note": 64,
      "start": 66.1354,
      "duration": 0.0803,
      "velocity": 111,
      "chip": "ym2612"
    },
    {
      "channel": 3,
      "note": 64,
      "start": 66.2535,
      "duration": 0.0092,
      "velocity": 111,
      "chip": "ym2612"
    },
    {
      "channel": 2,
      "note": 89,
      "start": 66.2554,
      "duration": 0.0756,
      "velocity": 102,
      "chip": "ym2612"
    },
    {
      "channel": 4,
      "note": 76,
      "start": 66.2679,
      "duration": 0.0629,
      "velocity": 111,
      "chip": "ym2612"
    },
    {
      "channel": 1,
      "note": 88,
      "start": 66.2698,
      "duration": 0.1942,
      "velocity": 102,
      "chip": "ym2612"
    },
    {
      "channel": 0,
      "note": 52,
      "start": 66.3841,
      "duration": 0.0632,
      "velocity": 118,
      "chip": "ym2612"
    },
    {
      "channel": 3,
      "note": 52,
      "start": 66.3866,
      "duration": 0.0776,
      "velocity": 111,
      "chip": "ym2612"
    },
    {
      "channel": 4,
      "note": 76,
      "start": 66.5173,
      "duration": 0.0802,
      "velocity": 111,
      "chip": "ym2612"
    },
    {
      "channel": 1,
      "note": 89,
      "start": 66.5206,
      "duration": 0.21,
      "velocity": 102,
      "chip": "ym2612"
    },
    {
      "channel": 0,
      "note": 52,
      "start": 66.6507,
      "duration": 0.0466,
      "velocity": 118,
      "chip": "ym2612"
    },
    {
      "channel": 3,
      "note": 52,
      "start": 66.6532,
      "duration": 0.0776,
      "velocity": 111,
      "chip": "ym2612"
    },
    {
      "channel": 2,
      "note": 89,
      "start": 66.6564,
      "duration": 0.2079,
      "velocity": 102,
      "chip": "ym2612"
    },
    {
      "channel": 4,
      "note": 64,
      "start": 66.7674,
      "duration": 0.0966,
      "velocity": 111,
      "chip": "ym2612"
    },
    {
      "channel": 3,
      "note": 64,
      "start": 66.9006,
      "duration": 0.0803,
      "velocity": 111,
      "chip": "ym2612"
    },
    {
      "channel": 2,
      "note": 91,
      "start": 66.9039,
      "duration": 0.177,
      "velocity": 102,
      "chip": "ym2612"
    },
    {
      "channel": 4,
      "note": 64,
      "start": 67.0339,
      "duration": 0.0802,
      "velocity": 111,
      "chip": "ym2612"
    },
    {
      "channel": 1,
      "note": 89,
      "start": 67.0371,
      "duration": 0.1361,
      "velocity": 102,
      "chip": "ym2612"
    },
    {
      "channel": 3,
      "note": 76,
      "start": 67.169,
      "duration": 0.0043,
      "velocity": 111,
      "chip": "ym2612"
    },
    {
      "channel": 4,
      "note": 76,
      "start": 67.1787,
      "duration": 0.0637,
      "velocity": 111,
      "chip": "ym2612"
    },
    {
      "channel": 1,
      "note": 91,
      "start": 67.1805,
      "duration": 0.1449,
      "velocity": 102,
      "chip": "ym2612"
    },
    {
      "channel": 3,
      "note": 52,
      "start": 67.2786,
      "duration": 0.097,
      "velocity": 111,
      "chip": "ym2612"
    },
    {
      "channel": 2,
      "note": 91,
      "start": 67.2824,
      "duration": 0.1398,
      "velocity": 102,
      "chip": "ym2612"
    },
    {
      "channel": 4,
      "note": 88,
      "start": 67.4157,
      "duration": 0.008,
      "velocity": 111,
      "chip": "ym2612"
    },
    {
      "channel": 0,
      "note": 52,
      "start": 67.4324,
      "duration": 0.4555,
      "velocity": 127,
      "chip": "ym2612"
    },
    {
      "channel": 2,
      "note": 77,
      "start": 67.4345,
      "duration": 0.3872,
      "velocity": 121,
      "chip": "ym2612"
    },
    {
      "channel": 4,
      "note": 64,
      "start": 67.5267,
      "duration": 0.0781,
      "velocity": 111,
      "chip": "ym2612"
    },
    {
      "channel": 3,
      "note": 64,
      "start": 67.6599,
      "duration": 0.0783,
      "velocity": 111,
      "chip": "ym2612"
    },
    {
      "channel": 4,
      "note": 64,
      "start": 67.7748,
      "duration": 0.0966,
      "velocity": 111,
      "chip": "ym2612"
    }
  ]
}