{
  "track_name": "11 - Strange Feel",
  "duration_sec": 24.499,
  "sample_rate": 44100,
  "note_count": 525,
  "unique_pitches": 15,
  "pitch_range": 52,
  "avg_note_duration": 0.2312,
  "reconstruction_stats": {
    "notes_reconstructed": 525,
    "keyon_events": 525,
    "keyoff_events": 521,
    "orphan_keyons": 4,
    "unique_pitches": 15,
    "pitch_range": 52,
    "avg_duration_sec": 0.2312
  },
  "metadata": {
    "source": "S\\Sorcerer's Kingdom\\11 - Strange Feel.vgm"
  },
  "notes": [
    {
      "channel": 0,
      "note": 86,
      "start": 0.0067,
      "duration": 0.2485,
      "velocity": 102,
      "chip": "ym2612"
    },
    {
      "channel": 1,
      "note": 88,
      "start": 0.0068,
      "duration": 0.4993,
      "velocity": 92,
      "chip": "ym2612"
    },
    {
      "channel": 2,
      "note": 88,
      "start": 0.0069,
      "duration": 6.0016,
      "velocity": 97,
      "chip": "ym2612"
    },
    {
      "channel": 3,
      "note": 88,
      "start": 0.007,
      "duration": 0.2484,
      "velocity": 74,
      "chip": "ym2612"
    },
    {
      "channel": 4,
      "note": 85,
      "start": 0.007,
      "duration": 0.0427,
      "velocity": 114,
      "chip": "ym2612"
    },
    {
      "channel": 5,
      "note": 53,
      "start": 0.0071,
      "duration": 0.1099,
      "velocity": 127,
      "chip": "ym2612"
    },
    {
      "channel": 4,
      "note": 85,
      "start": 0.1168,
      "duration": 0.0662,
      "velocity": 114,
      "chip": "ym2612"
    },
    {
      "channel": 0,
      "note": 88,
      "start": 0.2554,
      "duration": 0.2507,
      "velocity": 102,
      "chip": "ym2612"
    },
    {
      "channel": 3,
      "note": 83,
      "start": 0.2555,
      "duration": 0.2508,
      "velocity": 74,
      "chip": "ym2612"
    },
    {
      "channel": 4,
      "note": 85,
      "start": 0.2555,
      "duration": 0.0441,
      "velocity": 114,
      "chip": "ym2612"
    },
    {
      "channel": 5,
      "note": 48,
      "start": 0.2556,
      "duration": 0.1441,
      "velocity": 101,
      "chip": "ym2612"
    },
    {
      "channel": 4,
      "note": 85,
      "start": 0.3668,
      "duration": 0.0662,
      "velocity": 114,
      "chip": "ym2612"
    },
    {
      "channel": 0,
      "note": 83,
      "start": 0.5061,
      "duration": 0.2484,
      "velocity": 102,
      "chip": "ym2612"
    },
    {
      "channel": 1,
      "note": 83,
      "start": 0.5062,
      "duration": 0.5013,
      "velocity": 92,
      "chip": "ym2612"
    },
    {
      "channel": 3,
      "note": 86,
      "start": 0.5063,
      "duration": 0.2483,
      "velocity": 74,
      "chip": "ym2612"
    },
    {
      "channel": 4,
      "note": 85,
      "start": 0.5063,
      "duration": 0.0433,
      "velocity": 114,
      "chip": "ym2612"
    },
    {
      "channel": 5,
      "note": 53,
      "start": 0.5064,
      "duration": 0.1105,
      "velocity": 127,
      "chip": "ym2612"
    },
    {
      "channel": 4,
      "note": 85,
      "start": 0.6168,
      "duration": 0.0662,
      "velocity": 114,
      "chip": "ym2612"
    },
    {
      "channel": 0,
      "note": 88,
      "start": 0.7546,
      "duration": 0.2528,
      "velocity": 102,
      "chip": "ym2612"
    },
    {
      "channel": 3,
      "note": 88,
      "start": 0.7547,
      "duration": 0.5007,
      "velocity": 74,
      "chip": "ym2612"
    },
    {
      "channel": 4,
      "note": 85,
      "start": 0.7548,
      "duration": 0.0449,
      "velocity": 114,
      "chip": "ym2612"
    },
    {
      "channel": 5,
      "note": 48,
      "start": 0.7548,
      "duration": 0.1449,
      "velocity": 101,
      "chip": "ym2612"
    },
    {
      "channel": 4,
      "note": 85,
      "start": 0.8668,
      "duration": 0.0662,
      "velocity": 114,
      "chip": "ym2612"
    },
    {
      "channel": 0,
      "note": 86,
      "start": 1.0074,
      "duration": 0.2478,
      "velocity": 102,
      "chip": "ym2612"
    },
    {
      "channel": 1,
      "note": 88,
      "start": 1.0076,
      "duration": 0.4984,
      "velocity": 92,
      "chip": "ym2612"
    },
    {
      "channel": 4,
      "note": 85,
      "start": 1.0076,
      "duration": 0.042,
      "velocity": 114,
      "chip": "ym2612"
    },
    {
      "channel": 5,
      "note": 53,
      "start": 1.0077,
      "duration": 0.1092,
      "velocity": 127,
      "chip": "ym2612"
    },
    {
      "channel": 4,
      "note": 85,
      "start": 1.1168,
      "duration": 0.0662,
      "velocity": 114,
      "chip": "ym2612"
    },
    {
      "channel": 0,
      "note": 88,
      "start": 1.2554,
      "duration": 0.2505,
      "velocity": 102,
      "chip": "ym2612"
    },
    {
      "channel": 3,
      "note": 83,
      "start": 1.2555,
      "duration": 0.2506,
      "velocity": 74,
      "chip": "ym2612"
    },
    {
      "channel": 4,
      "note": 85,
      "start": 1.2555,
      "duration": 0.0441,
      "velocity": 114,
      "chip": "ym2612"
    },
    {
      "channel": 5,
      "note": 48,
      "start": 1.2556,
      "duration": 0.1441,
      "velocity": 101,
      "chip": "ym2612"
    },
    {
      "channel": 4,
      "note": 85,
      "start": 1.3668,
      "duration": 0.0662,
      "velocity": 114,
      "chip": "ym2612"
    },
    {
      "channel": 0,
      "note": 83,
      "start": 1.5059,
      "duration": 0.2486,
      "velocity": 102,
      "chip": "ym2612"
    },
    {
      "channel": 1,
      "note": 83,
      "start": 1.506,
      "duration": 0.5022,
      "velocity": 92,
      "chip": "ym2612"
    },
    {
      "channel": 3,
      "note": 86,
      "start": 1.5062,
      "duration": 0.2485,
      "velocity": 74,
      "chip": "ym2612"
    },
    {
      "channel": 4,
      "note": 85,
      "start": 1.5062,
      "duration": 0.0435,
      "velocity": 114,
      "chip": "ym2612"
    },
    {
      "channel": 5,
      "note": 53,
      "start": 1.5062,
      "duration": 0.0436,
      "velocity": 127,
      "chip": "ym2612"
    },
    {
      "channel": 4,
      "note": 85,
      "start": 1.6173,
      "duration": 0.0658,
      "velocity": 114,
      "chip": "ym2612"
    },
    {
      "channel": 5,
      "note": 53,
      "start": 1.6174,
      "duration": 0.0658,
      "velocity": 127,
      "chip": "ym2612"
    },
    {
      "channel": 0,
      "note": 88,
      "start": 1.7546,
      "duration": 0.2536,
      "velocity": 102,
      "chip": "ym2612"
    },
    {
      "channel": 3,
      "note": 88,
      "start": 1.7547,
      "duration": 0.2536,
      "velocity": 74,
      "chip": "ym2612"
    },
    {
      "channel": 4,
      "note": 85,
      "start": 1.7548,
      "duration": 0.0449,
      "velocity": 114,
      "chip": "ym2612"
    },
    {
      "channel": 5,
      "note": 48,
      "start": 1.7548,
      "duration": 0.1449,
      "velocity": 101,
      "chip": "ym2612"
    },
    {
      "channel": 4,
      "note": 85,
      "start": 1.8668,
      "duration": 0.0662,
      "velocity": 114,
      "chip": "ym2612"
    },
    {
      "channel": 0,
      "note": 86,
      "start": 2.0082,
      "duration": 0.2471,
      "velocity": 102,
      "chip": "ym2612"
    },
    {
      "channel": 1,
      "note": 88,
      "start": 2.0083,
      "duration": 0.4978,
      "velocity": 92,
      "chip": "ym2612"
    },
    {
      "channel": 3,
      "note": 88,
      "start": 2.0084,
      "duration": 0.247,
      "velocity": 74,
      "chip": "ym2612"
    },
    {
      "channel": 4,
      "note": 85,
      "start": 2.0085,
      "duration": 0.0412,
      "velocity": 114,
      "chip": "ym2612"
    },
    {
      "channel": 5,
      "note": 53,
      "start": 2.0085,
      "duration": 0.1084,
      "velocity": 127,
      "chip": "ym2612"
    },
    {
      "channel": 4,
      "note": 85,
      "start": 2.1168,
      "duration": 0.0662,
      "velocity": 114,
      "chip": "ym2612"
    },
    {
      "channel": 0,
      "note": 88,
      "start": 2.2554,
      "duration": 0.2507,
      "velocity": 102,
      "chip": "ym2612"
    },
    {
      "channel": 3,
      "note": 83,
      "start": 2.2555,
      "duration": 0.2508,
      "velocity": 74,
      "chip": "ym2612"
    },
    {
      "channel": 4,
      "note": 85,
      "start": 2.2555,
      "duration": 0.0441,
      "velocity": 114,
      "chip": "ym2612"
    },
    {
      "channel": 5,
      "note": 48,
      "start": 2.2556,
      "duration": 0.1441,
      "velocity": 101,
      "chip": "ym2612"
    },
    {
      "channel": 4,
      "note": 85,
      "start": 2.3668,
      "duration": 0.0662,
      "velocity": 114,
      "chip": "ym2612"
    },
    {
      "channel": 0,
      "note": 83,
      "start": 2.5061,
      "duration": 0.2484,
      "velocity": 102,
      "chip": "ym2612"
    },
    {
      "channel": 1,
      "note": 83,
      "start": 2.5062,
      "duration": 0.5013,
      "velocity": 92,
      "chip": "ym2612"
    },
    {
      "channel": 3,
      "note": 86,
      "start": 2.5063,
      "duration": 0.2483,
      "velocity": 74,
      "chip": "ym2612"
    },
    {
      "channel": 4,
      "note": 85,
      "start": 2.5063,
      "duration": 0.0433,
      "velocity": 114,
      "chip": "ym2612"
    },
    {
      "channel": 5,
      "note": 53,
      "start": 2.5064,
      "duration": 0.1105,
      "velocity": 127,
      "chip": "ym2612"
    },
    {
      "channel": 4,
      "note": 85,
      "start": 2.6168,
      "duration": 0.0662,
      "velocity": 114,
      "chip": "ym2612"
    },
    {
      "channel": 0,
      "note": 88,
      "start": 2.7546,
      "duration": 0.2528,
      "velocity": 102,
      "chip": "ym2612"
    },
    {
      "channel": 3,
      "note": 88,
      "start": 2.7547,
      "duration": 0.5007,
      "velocity": 74,
      "chip": "ym2612"
    },
    {
      "channel": 4,
      "note": 85,
      "start": 2.7548,
      "duration": 0.0449,
      "velocity": 114,
      "chip": "ym2612"
    },
    {
      "channel": 5,
      "note": 48,
      "start": 2.7548,
      "duration": 0.1449,
      "velocity": 101,
      "chip": "ym2612"
    },
    {
      "channel": 4,
      "note": 85,
      "start": 2.8668,
      "duration": 0.0662,
      "velocity": 114,
      "chip": "ym2612"
    },
    {
      "channel": 0,
      "note": 86,
      "start": 3.0074,
      "duration": 0.2478,
      "velocity": 102,
      "chip": "ym2612"
    },
    {
      "channel": 1,
      "note": 88,
      "start": 3.0076,
      "duration": 0.4984,
      "velocity": 92,
      "chip": "ym2612"
    },
    {
      "channel": 4,
      "note": 85,
      "start": 3.0076,
      "duration": 0.042,
      "velocity": 114,
      "chip": "ym2612"
    },
    {
      "channel": 5,
      "note": 53,
      "start": 3.0077,
      "duration": 0.1092,
      "velocity": 127,
      "chip": "ym2612"
    },
    {
      "channel": 4,
      "note": 85,
      "start": 3.1168,
      "duration": 0.0662,
      "velocity": 114,
      "chip": "ym2612"
    },
    {
      "channel": 0,
      "note": 88,
      "start": 3.2554,
      "duration": 0.2505,
      "velocity": 102,
      "chip": "ym2612"
    },
    {
      "channel": 3,
      "note": 83,
      "start": 3.2555,
      "duration": 0.2506,
      "velocity": 74,
      "chip": "ym2612"
    },
    {
      "channel": 4,
      "note": 85,
      "start": 3.2555,
      "duration": 0.0441,
      "velocity": 114,
      "chip": "ym2612"
    },
    {
      "channel": 5,
      "note": 48,
      "start": 3.2556,
      "duration": 0.1441,
      "velocity": 101,
      "chip": "ym2612"
    },
    {
      "channel": 4,
      "note": 85,
      "start": 3.3668,
      "duration": 0.0662,
      "velocity": 114,
      "chip": "ym2612"
    },
    {
      "channel": 0,
      "note": 83,
      "start": 3.5059,
      "duration": 0.2486,
      "velocity": 102,
      "chip": "ym2612"
    },
    {
      "channel": 1,
      "note": 83,
      "start": 3.506,
      "duration": 0.5027,
      "velocity": 92,
      "chip": "ym2612"
    },
    {
      "channel": 3,
      "note": 86,
      "start": 3.5062,
      "duration": 0.2485,
      "velocity": 74,
      "chip": "ym2612"
    },
    {
      "channel": 4,
      "note": 85,
      "start": 3.5062,
      "duration": 0.0435,
      "velocity": 114,
      "chip": "ym2612"
    },
    {
      "channel": 5,
      "note": 53,
      "start": 3.5062,
      "duration": 0.0436,
      "velocity": 127,
      "chip": "ym2612"
    },
    {
      "channel": 4,
      "note": 85,
      "start": 3.6173,
      "duration": 0.0658,
      "velocity": 114,
      "chip": "ym2612"
    },
    {
      "channel": 5,
      "note": 53,
      "start": 3.6174,
      "duration": 0.0658,
      "velocity": 127,
      "chip": "ym2612"
    },
    {
      "channel": 0,
      "note": 88,
      "start": 3.7546,
      "duration": 0.254,
      "velocity": 102,
      "chip": "ym2612"
    },
    {
      "channel": 3,
      "note": 88,
      "start": 3.7547,
      "duration": 0.2541,
      "velocity": 74,
      "chip": "ym2612"
    },
    {
      "channel": 4,
      "note": 85,
      "start": 3.7548,
      "duration": 0.0449,
      "velocity": 114,
      "chip": "ym2612"
    },
    {
      "channel": 5,
      "note": 48,
      "start": 3.7548,
      "duration": 0.1449,
      "velocity": 101,
      "chip": "ym2612"
    },
    {
      "channel": 4,
      "note": 85,
      "start": 3.8668,
      "duration": 0.0662,
      "velocity": 114,
      "chip": "ym2612"
    },
    {
      "channel": 0,
      "note": 86,
      "start": 4.0086,
      "duration": 0.2466,
      "velocity": 102,
      "chip": "ym2612"
    },
    {
      "channel": 1,
      "note": 88,
      "start": 4.0088,
      "duration": 0.4973,
      "velocity": 92,
      "chip": "ym2612"
    },
    {
      "channel": 3,
      "note": 88,
      "start": 4.0089,
      "duration": 0.2465,
      "velocity": 74,
      "chip": "ym2612"
    },
    {
      "channel": 4,
      "note": 85,
      "start": 4.009,
      "duration": 0.0407,
      "velocity": 114,
      "chip": "ym2612"
    },
    {
      "channel": 5,
      "note": 53,
      "start": 4.009,
      "duration": 0.108,
      "velocity": 127,
      "chip": "ym2612"
    },
    {
      "channel": 4,
      "note": 85,
      "start": 4.1168,
      "duration": 0.0662,
      "velocity": 114,
      "chip": "ym2612"
    },
    {
      "channel": 0,
      "note": 88,
      "start": 4.2554,
      "duration": 0.2507,
      "velocity": 102,
      "chip": "ym2612"
    },
    {
      "channel": 3,
      "note": 83,
      "start": 4.2555,
      "duration": 0.2508,
      "velocity": 74,
      "chip": "ym2612"
    },
    {
      "channel": 4,
      "note": 85,
      "start": 4.2555,
      "duration": 0.0441,
      "velocity": 114,
      "chip": "ym2612"
    },
    {
      "channel": 5,
      "note": 48,
      "start": 4.2556,
      "duration": 0.1441,
      "velocity": 101,
      "chip": "ym2612"
    },
    {
      "channel": 4,
      "note": 85,
      "start": 4.3668,
      "duration": 0.0662,
      "velocity": 114,
      "chip": "ym2612"
    },
    {
      "channel": 0,
      "note": 83,
      "start": 4.5061,
      "duration": 0.2484,
      "velocity": 102,
      "chip": "ym2612"
    },
    {
      "channel": 1,
      "note": 83,
      "start": 4.5062,
      "duration": 0.5013,
      "velocity": 92,
      "chip": "ym2612"
    },
    {
      "channel": 3,
      "note": 86,
      "start": 4.5063,
      "duration": 0.2483,
      "velocity": 74,
      "chip": "ym2612"
    },
    {
      "channel": 4,
      "note": 85,
      "start": 4.5063,
      "duration": 0.0433,
      "velocity": 114,
      "chip": "ym2612"
    },
    {
      "channel": 5,
      "note": 53,
      "start": 4.5064,
      "duration": 0.1105,
      "velocity": 127,
      "chip": "ym2612"
    },
    {
      "channel": 4,
      "note": 85,
      "start": 4.6168,
      "duration": 0.0662,
      "velocity": 114,
      "chip": "ym2612"
    },
    {
      "channel": 0,
      "note": 88,
      "start": 4.7546,
      "duration": 0.2528,
      "velocity": 102,
      "chip": "ym2612"
    },
    {
      "channel": 3,
      "note": 88,
      "start": 4.7547,
      "duration": 0.5007,
      "velocity": 74,
      "chip": "ym2612"
    },
    {
      "channel": 4,
      "note": 85,
      "start": 4.7548,
      "duration": 0.0449,
      "velocity": 114,
      "chip": "ym2612"
    },
    {
      "channel": 5,
      "note": 48,
      "start": 4.7548,
      "duration": 0.1449,
      "velocity": 101,
      "chip": "ym2612"
    },
    {
      "channel": 4,
      "note": 85,
      "start": 4.8668,
      "duration": 0.0662,
      "velocity": 114,
      "chip": "ym2612"
    },
    {
      "channel": 0,
      "note": 86,
      "start": 5.0074,
      "duration": 0.2478,
      "velocity": 102,
      "chip": "ym2612"
    },
    {
      "channel": 1,
      "note": 88,
      "start": 5.0076,
      "duration": 0.4984,
      "velocity": 92,
      "chip": "ym2612"
    },
    {
      "channel": 4,
      "note": 85,
      "start": 5.0076,
      "duration": 0.042,
      "velocity": 114,
      "chip": "ym2612"
    },
    {
      "channel": 5,
      "note": 53,
      "start": 5.0077,
      "duration": 0.1092,
      "velocity": 127,
      "chip": "ym2612"
    },
    {
      "channel": 4,
      "note": 85,
      "start": 5.1168,
      "duration": 0.0662,
      "velocity": 114,
      "chip": "ym2612"
    },
    {
      "channel": 0,
      "note": 88,
      "start": 5.2554,
      "duration": 0.2505,
      "velocity": 102,
      "chip": "ym2612"
    },
    {
      "channel": 3,
      "note": 83,
      "start": 5.2555,
      "duration": 0.2506,
      "velocity": 74,
      "chip": "ym2612"
    },
    {
      "channel": 4,
      "note": 85,
      "start": 5.2555,
      "duration": 0.0441,
      "velocity": 114,
      "chip": "ym2612"
    },
    {
      "channel": 5,
      "note": 48,
      "start": 5.2556,
      "duration": 0.1441,
      "velocity": 101,
      "chip": "ym2612"
    },
    {
      "channel": 4,
      "note": 85,
      "start": 5.3668,
      "duration": 0.0662,
      "velocity": 114,
      "chip": "ym2612"
    },
    {
      "channel": 0,
      "note": 83,
      "start": 5.5059,
      "duration": 0.2486,
      "velocity": 102,
      "chip": "ym2612"
    },
    {
      "channel": 1,
      "note": 83,
      "start": 5.506,
      "duration": 0.5023,
      "velocity": 92,
      "chip": "ym2612"
    },
    {
      "channel": 3,
      "note": 86,
      "start": 5.5062,
      "duration": 0.2485,
      "velocity": 74,
      "chip": "ym2612"
    },
    {
      "channel": 4,
      "note": 85,
      "start": 5.5062,
      "duration": 0.0435,
      "velocity": 114,
      "chip": "ym2612"
    },
    {
      "channel": 5,
      "note": 53,
      "start": 5.5062,
      "duration": 0.0436,
      "velocity": 127,
      "chip": "ym2612"
    },
    {
      "channel": 4,
      "note": 85,
      "start": 5.6173,
      "duration": 0.0658,
      "velocity": 114,
      "chip": "ym2612"
    },
    {
      "channel": 5,
      "note": 53,
      "start": 5.6174,
      "duration": 0.0658,
      "velocity": 127,
      "chip": "ym2612"
    },
    {
      "channel": 0,
      "note": 88,
      "start": 5.7546,
      "duration": 0.2537,
      "velocity": 102,
      "chip": "ym2612"
    },
    {
      "channel": 3,
      "note": 88,
      "start": 5.7547,
      "duration": 0.2539,
      "velocity": 74,
      "chip": "ym2612"
    },
    {
      "channel": 4,
      "note": 85,
      "start": 5.7548,
      "duration": 0.0449,
      "velocity": 114,
      "chip": "ym2612"
    },
    {
      "channel": 5,
      "note": 48,
      "start": 5.7548,
      "duration": 0.1449,
      "velocity": 101,
      "chip": "ym2612"
    },
    {
      "channel": 4,
      "note": 85,
      "start": 5.8668,
      "duration": 0.0662,
      "velocity": 114,
      "chip": "ym2612"
    },
    {
      "channel": 0,
      "note": 86,
      "start": 6.0083,
      "duration": 0.2482,
      "velocity": 102,
      "chip": "ym2612"
    },
    {
      "channel": 1,
      "note": 86,
      "start": 6.0084,
      "duration": 0.2483,
      "velocity": 92,
      "chip": "ym2612"
    },
    {
      "channel": 2,
      "note": 86,
      "start": 6.0085,
      "duration": 0.2482,
      "velocity": 97,
      "chip": "ym2612"
    },
    {
      "channel": 3,
      "note": 91,
      "start": 6.0086,
      "duration": 0.2482,
      "velocity": 74,
      "chip": "ym2612"
    },
    {
      "channel": 4,
      "note": 85,
      "start": 6.0086,
      "duration": 0.041,
      "velocity": 114,
      "chip": "ym2612"
    },
    {
      "channel": 5,
      "note": 53,
      "start": 6.0087,
      "duration": 0.1082,
      "velocity": 127,
      "chip": "ym2612"
    },
    {
      "channel": 4,
      "note": 85,
      "start": 6.1168,
      "duration": 0.0662,
      "velocity": 114,
      "chip": "ym2612"
    },
    {
      "channel": 0,
      "note": 85,
      "start": 6.2566,
      "duration": 0.2508,
      "velocity": 102,
      "chip": "ym2612"
    },
    {
      "channel": 1,
      "note": 86,
      "start": 6.2567,
      "duration": 0.2508,
      "velocity": 92,
      "chip": "ym2612"
    },
    {
      "channel": 2,
      "note": 85,
      "start": 6.2568,
      "duration": 0.2508,
      "velocity": 97,
      "chip": "ym2612"
    },
    {
      "channel": 3,
      "note": 90,
      "start": 6.2569,
      "duration": 0.2508,
      "velocity": 74,
      "chip": "ym2612"
    },
    {
      "channel": 4,
      "note": 85,
      "start": 6.257,
      "duration": 0.0427,
      "velocity": 114,
      "chip": "ym2612"
    },
    {
      "channel": 5,
      "note": 48,
      "start": 6.2571,
      "duration": 0.1426,
      "velocity": 101,
      "chip": "ym2612"
    },
    {
      "channel": 4,
      "note": 85,
      "start": 6.3668,
      "duration": 0.0662,
      "velocity": 114,
      "chip": "ym2612"
    },
    {
      "channel": 0,
      "note": 86,
      "start": 6.5075,
      "duration": 0.2491,
      "velocity": 102,
      "chip": "ym2612"
    },
    {
      "channel": 1,
      "note": 86,
      "start": 6.5076,
      "duration": 0.2492,
      "velocity": 92,
      "chip": "ym2612"
    },
    {
      "channel": 2,
      "note": 86,
      "start": 6.5077,
      "duration": 0.2491,
      "velocity": 97,
      "chip": "ym2612"
    },
    {
      "channel": 3,
      "note": 88,
      "start": 6.5078,
      "duration": 0.2491,
      "velocity": 74,
      "chip": "ym2612"
    },
    {
      "channel": 4,
      "note": 85,
      "start": 6.5078,
      "duration": 0.0419,
      "velocity": 114,
      "chip": "ym2612"
    },
    {
      "channel": 5,
      "note": 53,
      "start": 6.5079,
      "duration": 0.109,
      "velocity": 127,
      "chip": "ym2612"
    },
    {
      "channel": 4,
      "note": 85,
      "start": 6.6168,
      "duration": 0.0662,
      "velocity": 114,
      "chip": "ym2612"
    },
    {
      "channel": 0,
      "note": 88,
      "start": 6.7567,
      "duration": 0.2505,
      "velocity": 102,
      "chip": "ym2612"
    },
    {
      "channel": 1,
      "note": 86,
      "start": 6.7568,
      "duration": 0.2505,
      "velocity": 92,
      "chip": "ym2612"
    },
    {
      "channel": 2,
      "note": 88,
      "start": 6.7569,
      "duration": 0.2504,
      "velocity": 97,
      "chip": "ym2612"
    },
    {
      "channel": 3,
      "note": 93,
      "start": 6.757,
      "duration": 0.2505,
      "velocity": 74,
      "chip": "ym2612"
    },
    {
      "channel": 4,
      "note": 85,
      "start": 6.7571,
      "duration": 0.0426,
      "velocity": 114,
      "chip": "ym2612"
    },
    {
      "channel": 5,
      "note": 48,
      "start": 6.7571,
      "duration": 0.1426,
      "velocity": 101,
      "chip": "ym2612"
    },
    {
      "channel": 4,
      "note": 85,
      "start": 6.8668,
      "duration": 0.0662,
      "velocity": 114,
      "chip": "ym2612"
    },
    {
      "channel": 0,
      "note": 90,
      "start": 7.0072,
      "duration": 0.2449,
      "velocity": 102,
      "chip": "ym2612"
    },
    {
      "channel": 1,
      "note": 88,
      "start": 7.0073,
      "duration": 0.2449,
      "velocity": 92,
      "chip": "ym2612"
    },
    {
      "channel": 2,
      "note": 90,
      "start": 7.0074,
      "duration": 0.2449,
      "velocity": 97,
      "chip": "ym2612"
    },
    {
      "channel": 3,
      "note": 86,
      "start": 7.0075,
      "duration": 0.4959,
      "velocity": 74,
      "chip": "ym2612"
    },
    {
      "channel": 4,
      "note": 85,
      "start": 7.0076,
      "duration": 0.2448,
      "velocity": 114,
      "chip": "ym2612"
    },
    {
      "channel": 5,
      "note": 53,
      "start": 7.0076,
      "duration": 0.1088,
      "velocity": 127,
      "chip": "ym2612"
    },
    {
      "channel": 0,
      "note": 88,
      "start": 7.2522,
      "duration": 0.251,
      "velocity": 102,
      "chip": "ym2612"
    },
    {
      "channel": 1,
      "note": 88,
      "start": 7.2522,
      "duration": 0.251,
      "velocity": 92,
      "chip": "ym2612"
    },
    {
      "channel": 2,
      "note": 90,
      "start": 7.2524,
      "duration": 0.251,
      "velocity": 97,
      "chip": "ym2612"
    },
    {
      "channel": 5,
      "note": 53,
      "start": 7.2525,
      "duration": 0.0472,
      "velocity": 127,
      "chip": "ym2612"
    },
    {
      "channel": 5,
      "note": 53,
      "start": 7.3668,
      "duration": 0.0662,
      "velocity": 127,
      "chip": "ym2612"
    },
    {
      "channel": 0,
      "note": 83,
      "start": 7.5032,
      "duration": 0.5057,
      "velocity": 102,
      "chip": "ym2612"
    },
    {
      "channel": 1,
      "note": 88,
      "start": 7.5032,
      "duration": 0.5058,
      "velocity": 92,
      "chip": "ym2612"
    },
    {
      "channel": 2,
      "note": 90,
      "start": 7.5034,
      "duration": 0.5058,
      "velocity": 97,
      "chip": "ym2612"
    },
    {
      "channel": 3,
      "note": 88,
      "start": 7.5035,
      "duration": 0.5057,
      "velocity": 74,
      "chip": "ym2612"
    },
    {
      "channel": 4,
      "note": 85,
      "start": 7.5035,
      "duration": 0.2463,
      "velocity": 114,
      "chip": "ym2612"
    },
    {
      "channel": 5,
      "note": 53,
      "start": 7.5036,
      "duration": 0.2462,
      "velocity": 127,
      "chip": "ym2612"
    },
    {
      "channel": 0,
      "note": 86,
      "start": 8.009,
      "duration": 0.2463,
      "velocity": 102,
      "chip": "ym2612"
    },
    {
      "channel": 1,
      "note": 88,
      "start": 8.0091,
      "duration": 0.497,
      "velocity": 92,
      "chip": "ym2612"
    },
    {
      "channel": 2,
      "note": 88,
      "start": 8.0092,
      "duration": 5.9993,
      "velocity": 97,
      "chip": "ym2612"
    },
    {
      "channel": 3,
      "note": 88,
      "start": 8.0093,
      "duration": 0.2461,
      "velocity": 74,
      "chip": "ym2612"
    },
    {
      "channel": 4,
      "note": 85,
      "start": 8.0093,
      "duration": 0.0403,
      "velocity": 114,
      "chip": "ym2612"
    },
    {
      "channel": 5,
      "note": 53,
      "start": 8.0094,
      "duration": 0.1075,
      "velocity": 127,
      "chip": "ym2612"
    },
    {
      "channel": 4,
      "note": 85,
      "start": 8.1168,
      "duration": 0.0662,
      "velocity": 114,
      "chip": "ym2612"
    },
    {
      "channel": 0,
      "note": 88,
      "start": 8.2554,
      "duration": 0.2507,
      "velocity": 102,
      "chip": "ym2612"
    },
    {
      "channel": 3,
      "note": 83,
      "start": 8.2555,
      "duration": 0.2508,
      "velocity": 74,
      "chip": "ym2612"
    },
    {
      "channel": 4,
      "note": 85,
      "start": 8.2555,
      "duration": 0.0441,
      "velocity": 114,
      "chip": "ym2612"
    },
    {
      "channel": 5,
      "note": 48,
      "start": 8.2556,
      "duration": 0.1441,
      "velocity": 101,
      "chip": "ym2612"
    },
    {
      "channel": 4,
      "note": 85,
      "start": 8.3668,
      "duration": 0.0662,
      "velocity": 114,
      "chip": "ym2612"
    },
    {
      "channel": 0,
      "note": 83,
      "start": 8.5061,
      "duration": 0.2484,
      "velocity": 102,
      "chip": "ym2612"
    },
    {
      "channel": 1,
      "note": 83,
      "start": 8.5062,
      "duration": 0.5013,
      "velocity": 92,
      "chip": "ym2612"
    },
    {
      "channel": 3,
      "note": 86,
      "start": 8.5063,
      "duration": 0.2483,
      "velocity": 74,
      "chip": "ym2612"
    },
    {
      "channel": 4,
      "note": 85,
      "start": 8.5063,
      "duration": 0.0433,
      "velocity": 114,
      "chip": "ym2612"
    },
    {
      "channel": 5,
      "note": 53,
      "start": 8.5064,
      "duration": 0.1105,
      "velocity": 127,
      "chip": "ym2612"
    },
    {
      "channel": 4,
      "note": 85,
      "start": 8.6168,
      "duration": 0.0662,
      "velocity": 114,
      "chip": "ym2612"
    },
    {
      "channel": 0,
      "note": 88,
      "start": 8.7546,
      "duration": 0.2528,
      "velocity": 102,
      "chip": "ym2612"
    },
    {
      "channel": 3,
      "note": 88,
      "start": 8.7547,
      "duration": 0.5007,
      "velocity": 74,
      "chip": "ym2612"
    },
    {
      "channel": 4,
      "note": 85,
      "start": 8.7548,
      "duration": 0.0449,
      "velocity": 114,
      "chip": "ym2612"
    },
    {
      "channel": 5,
      "note": 48,
      "start": 8.7548,
      "duration": 0.1449,
      "velocity": 101,
      "chip": "ym2612"
    },
    {
      "channel": 4,
      "note": 85,
      "start": 8.8668,
      "duration": 0.0662,
      "velocity": 114,
      "chip": "ym2612"
    },
    {
      "channel": 0,
      "note": 86,
      "start": 9.0074,
      "duration": 0.2478,
      "velocity": 102,
      "chip": "ym2612"
    },
    {
      "channel": 1,
      "note": 88,
      "start": 9.0076,
      "duration": 0.4984,
      "velocity": 92,
      "chip": "ym2612"
    },
    {
      "channel": 4,
      "note": 85,
      "start": 9.0076,
      "duration": 0.042,
      "velocity": 114,
      "chip": "ym2612"
    },
    {
      "channel": 5,
      "note": 53,
      "start": 9.0077,
      "duration": 0.1092,
      "velocity": 127,
      "chip": "ym2612"
    },
    {
      "channel": 4,
      "note": 85,
      "start": 9.1168,
      "duration": 0.0662,
      "velocity": 114,
      "chip": "ym2612"
    },
    {
      "channel": 0,
      "note": 88,
      "start": 9.2554,
      "duration": 0.2505,
      "velocity": 102,
      "chip": "ym2612"
    },
    {
      "channel": 3,
      "note": 83,
      "start": 9.2555,
      "duration": 0.2506,
      "velocity": 74,
      "chip": "ym2612"
    },
    {
      "channel": 4,
      "note": 85,
      "start": 9.2555,
      "duration": 0.0441,
      "velocity": 114,
      "chip": "ym2612"
    },
    {
      "channel": 5,
      "note": 48,
      "start": 9.2556,
      "duration": 0.1441,
      "velocity": 101,
      "chip": "ym2612"
    },
    {
      "channel": 4,
      "note": 85,
      "start": 9.3668,
      "duration": 0.0662,
      "velocity": 114,
      "chip": "ym2612"
    },
    {
      "channel": 0,
      "note": 83,
      "start": 9.5059,
      "duration": 0.2486,
      "velocity": 102,
      "chip": "ym2612"
    },
    {
      "channel": 1,
      "note": 83,
      "start": 9.506,
      "duration": 0.5022,
      "velocity": 92,
      "chip": "ym2612"
    },
    {
      "channel": 3,
      "note": 86,
      "start": 9.5062,
      "duration": 0.2485,
      "velocity": 74,
      "chip": "ym2612"
    },
    {
      "channel": 4,
      "note": 85,
      "start": 9.5062,
      "duration": 0.0435,
      "velocity": 114,
      "chip": "ym2612"
    },
    {
      "channel": 5,
      "note": 53,
      "start": 9.5062,
      "duration": 0.0436,
      "velocity": 127,
      "chip": "ym2612"
    },
    {
      "channel": 4,
      "note": 85,
      "start": 9.6173,
      "duration": 0.0658,
      "velocity": 114,
      "chip": "ym2612"
    },
    {
      "channel": 5,
      "note": 53,
      "start": 9.6174,
      "duration": 0.0658,
      "velocity": 127,
      "chip": "ym2612"
    },
    {
      "channel": 0,
      "note": 88,
      "start": 9.7546,
      "duration": 0.2536,
      "velocity": 102,
      "chip": "ym2612"
    },
    {
      "channel": 3,
      "note": 88,
      "start": 9.7547,
      "duration": 0.2536,
      "velocity": 74,
      "chip": "ym2612"
    },
    {
      "channel": 4,
      "note": 85,
      "start": 9.7548,
      "duration": 0.0449,
      "velocity": 114,
      "chip": "ym2612"
    },
    {
      "channel": 5,
      "note": 48,
      "start": 9.7548,
      "duration": 0.1449,
      "velocity": 101,
      "chip": "ym2612"
    },
    {
      "channel": 4,
      "note": 85,
      "start": 9.8668,
      "duration": 0.0662,
      "velocity": 114,
      "chip": "ym2612"
    },
    {
      "channel": 0,
      "note": 86,
      "start": 10.0082,
      "duration": 0.2471,
      "velocity": 102,
      "chip": "ym2612"
    },
    {
      "channel": 1,
      "note": 88,
      "start": 10.0083,
      "duration": 0.4978,
      "velocity": 92,
      "chip": "ym2612"
    },
    {
      "channel": 3,
      "note": 88,
      "start": 10.0084,
      "duration": 0.247,
      "velocity": 74,
      "chip": "ym2612"
    },
    {
      "channel": 4,
      "note": 85,
      "start": 10.0085,
      "duration": 0.0412,
      "velocity": 114,
      "chip": "ym2612"
    },
    {
      "channel": 5,
      "note": 53,
      "start": 10.0085,
      "duration": 0.1084,
      "velocity": 127,
      "chip": "ym2612"
    },
    {
      "channel": 4,
      "note": 85,
      "start": 10.1168,
      "duration": 0.0662,
      "velocity": 114,
      "chip": "ym2612"
    },
    {
      "channel": 0,
      "note": 88,
      "start": 10.2554,
      "duration": 0.2507,
      "velocity": 102,
      "chip": "ym2612"
    },
    {
      "channel": 3,
      "note": 83,
      "start": 10.2555,
      "duration": 0.2508,
      "velocity": 74,
      "chip": "ym2612"
    },
    {
      "channel": 4,
      "note": 85,
      "start": 10.2555,
      "duration": 0.0441,
      "velocity": 114,
      "chip": "ym2612"
    },
    {
      "channel": 5,
      "note": 48,
      "start": 10.2556,
      "duration": 0.1441,
      "velocity": 101,
      "chip": "ym2612"
    },
    {
      "channel": 4,
      "note": 85,
      "start": 10.3668,
      "duration": 0.0662,
      "velocity": 114,
      "chip": "ym2612"
    },
    {
      "channel": 0,
      "note": 83,
      "start": 10.5061,
      "duration": 0.2484,
      "velocity": 102,
      "chip": "ym2612"
    },
    {
      "channel": 1,
      "note": 83,
      "start": 10.5062,
      "duration": 0.5013,
      "velocity": 92,
      "chip": "ym2612"
    },
    {
      "channel": 3,
      "note": 86,
      "start": 10.5063,
      "duration": 0.2483,
      "velocity": 74,
      "chip": "ym2612"
    },
    {
      "channel": 4,
      "note": 85,
      "start": 10.5063,
      "duration": 0.0433,
      "velocity": 114,
      "chip": "ym2612"
    },
    {
      "channel": 5,
      "note": 53,
      "start": 10.5064,
      "duration": 0.1105,
      "velocity": 127,
      "chip": "ym2612"
    },
    {
      "channel": 4,
      "note": 85,
      "start": 10.6168,
      "duration": 0.0662,
      "velocity": 114,
      "chip": "ym2612"
    },
    {
      "channel": 0,
      "note": 88,
      "start": 10.7546,
      "duration": 0.2528,
      "velocity": 102,
      "chip": "ym2612"
    },
    {
      "channel": 3,
      "note": 88,
      "start": 10.7547,
      "duration": 0.5007,
      "velocity": 74,
      "chip": "ym2612"
    },
    {
      "channel": 4,
      "note": 85,
      "start": 10.7548,
      "duration": 0.0449,
      "velocity": 114,
      "chip": "ym2612"
    },
    {
      "channel": 5,
      "note": 48,
      "start": 10.7548,
      "duration": 0.1449,
      "velocity": 101,
      "chip": "ym2612"
    },
    {
      "channel": 4,
      "note": 85,
      "start": 10.8668,
      "duration": 0.0662,
      "velocity": 114,
      "chip": "ym2612"
    },
    {
      "channel": 0,
      "note": 86,
      "start": 11.0074,
      "duration": 0.2478,
      "velocity": 102,
      "chip": "ym2612"
    },
    {
      "channel": 1,
      "note": 88,
      "start": 11.0076,
      "duration": 0.4984,
      "velocity": 92,
      "chip": "ym2612"
    },
    {
      "channel": 4,
      "note": 85,
      "start": 11.0076,
      "duration": 0.042,
      "velocity": 114,
      "chip": "ym2612"
    },
    {
      "channel": 5,
      "note": 53,
      "start": 11.0077,
      "duration": 0.1092,
      "velocity": 127,
      "chip": "ym2612"
    },
    {
      "channel": 4,
      "note": 85,
      "start": 11.1168,
      "duration": 0.0662,
      "velocity": 114,
      "chip": "ym2612"
    },
    {
      "channel": 0,
      "note": 88,
      "start": 11.2554,
      "duration": 0.2505,
      "velocity": 102,
      "chip": "ym2612"
    },
    {
      "channel": 3,
      "note": 83,
      "start": 11.2555,
      "duration": 0.2506,
      "velocity": 74,
      "chip": "ym2612"
    },
    {
      "channel": 4,
      "note": 85,
      "start": 11.2555,
      "duration": 0.0441,
      "velocity": 114,
      "chip": "ym2612"
    },
    {
      "channel": 5,
      "note": 48,
      "start": 11.2556,
      "duration": 0.1441,
      "velocity": 101,
      "chip": "ym2612"
    },
    {
      "channel": 4,
      "note": 85,
      "start": 11.3668,
      "duration": 0.0662,
      "velocity": 114,
      "chip": "ym2612"
    },
    {
      "channel": 0,
      "note": 83,
      "start": 11.5059,
      "duration": 0.2486,
      "velocity": 102,
      "chip": "ym2612"
    },
    {
      "channel": 1,
      "note": 83,
      "start": 11.506,
      "duration": 0.5027,
      "velocity": 92,
      "chip": "ym2612"
    },
    {
      "channel": 3,
      "note": 86,
      "start": 11.5062,
      "duration": 0.2485,
      "velocity": 74,
      "chip": "ym2612"
    },
    {
      "channel": 4,
      "note": 85,
      "start": 11.5062,
      "duration": 0.0435,
      "velocity": 114,
      "chip": "ym2612"
    },
    {
      "channel": 5,
      "note": 53,
      "start": 11.5062,
      "duration": 0.0436,
      "velocity": 127,
      "chip": "ym2612"
    },
    {
      "channel": 4,
      "note": 85,
      "start": 11.6173,
      "duration": 0.0658,
      "velocity": 114,
      "chip": "ym2612"
    },
    {
      "channel": 5,
      "note": 53,
      "start": 11.6174,
      "duration": 0.0658,
      "velocity": 127,
      "chip": "ym2612"
    },
    {
      "channel": 0,
      "note": 88,
      "start": 11.7546,
      "duration": 0.254,
      "velocity": 102,
      "chip": "ym2612"
    },
    {
      "channel": 3,
      "note": 88,
      "start": 11.7547,
      "duration": 0.2541,
      "velocity": 74,
      "chip": "ym2612"
    },
    {
      "channel": 4,
      "note": 85,
      "start": 11.7548,
      "duration": 0.0449,
      "velocity": 114,
      "chip": "ym2612"
    },
    {
      "channel": 5,
      "note": 48,
      "start": 11.7548,
      "duration": 0.1449,
      "velocity": 101,
      "chip": "ym2612"
    },
    {
      "channel": 4,
      "note": 85,
      "start": 11.8668,
      "duration": 0.0662,
      "velocity": 114,
      "chip": "ym2612"
    },
    {
      "channel": 0,
      "note": 86,
      "start": 12.0086,
      "duration": 0.2466,
      "velocity": 102,
      "chip": "ym2612"
    },
    {
      "channel": 1,
      "note": 88,
      "start": 12.0088,
      "duration": 0.4973,
      "velocity": 92,
      "chip": "ym2612"
    },
    {
      "channel": 3,
      "note": 88,
      "start": 12.0089,
      "duration": 0.2465,
      "velocity": 74,
      "chip": "ym2612"
    },
    {
      "channel": 4,
      "note": 85,
      "start": 12.009,
      "duration": 0.0407,
      "velocity": 114,
      "chip": "ym2612"
    },
    {
      "channel": 5,
      "note": 53,
      "start": 12.009,
      "duration": 0.108,
      "velocity": 127,
      "chip": "ym2612"
    },
    {
      "channel": 4,
      "note": 85,
      "start": 12.1168,
      "duration": 0.0662,
      "velocity": 114,
      "chip": "ym2612"
    },
    {
      "channel": 0,
      "note": 88,
      "start": 12.2554,
      "duration": 0.2507,
      "velocity": 102,
      "chip": "ym2612"
    },
    {
      "channel": 3,
      "note": 83,
      "start": 12.2555,
      "duration": 0.2508,
      "velocity": 74,
      "chip": "ym2612"
    },
    {
      "channel": 4,
      "note": 85,
      "start": 12.2555,
      "duration": 0.0441,
      "velocity": 114,
      "chip": "ym2612"
    },
    {
      "channel": 5,
      "note": 48,
      "start": 12.2556,
      "duration": 0.1441,
      "velocity": 101,
      "chip": "ym2612"
    },
    {
      "channel": 4,
      "note": 85,
      "start": 12.3668,
      "duration": 0.0662,
      "velocity": 114,
      "chip": "ym2612"
    },
    {
      "channel": 0,
      "note": 83,
      "start": 12.5061,
      "duration": 0.2484,
      "velocity": 102,
      "chip": "ym2612"
    },
    {
      "channel": 1,
      "note": 83,
      "start": 12.5062,
      "duration": 0.5013,
      "velocity": 92,
      "chip": "ym2612"
    },
    {
      "channel": 3,
      "note": 86,
      "start": 12.5063,
      "duration": 0.2483,
      "velocity": 74,
      "chip": "ym2612"
    },
    {
      "channel": 4,
      "note": 85,
      "start": 12.5063,
      "duration": 0.0433,
      "velocity": 114,
      "chip": "ym2612"
    },
    {
      "channel": 5,
      "note": 53,
      "start": 12.5064,
      "duration": 0.1105,
      "velocity": 127,
      "chip": "ym2612"
    },
    {
      "channel": 4,
      "note": 85,
      "start": 12.6168,
      "duration": 0.0662,
      "velocity": 114,
      "chip": "ym2612"
    },
    {
      "channel": 0,
      "note": 88,
      "start": 12.7546,
      "duration": 0.2528,
      "velocity": 102,
      "chip": "ym2612"
    },
    {
      "channel": 3,
      "note": 88,
      "start": 12.7547,
      "duration": 0.5007,
      "velocity": 74,
      "chip": "ym2612"
    },
    {
      "channel": 4,
      "note": 85,
      "start": 12.7548,
      "duration": 0.0449,
      "velocity": 114,
      "chip": "ym2612"
    },
    {
      "channel": 5,
      "note": 48,
      "start": 12.7548,
      "duration": 0.1449,
      "velocity": 101,
      "chip": "ym2612"
    },
    {
      "channel": 4,
      "note": 85,
      "start": 12.8668,
      "duration": 0.0662,
      "velocity": 114,
      "chip": "ym2612"
    },
    {
      "channel": 0,
      "note": 86,
      "start": 13.0074,
      "duration": 0.2478,
      "velocity": 102,
      "chip": "ym2612"
    },
    {
      "channel": 1,
      "note": 88,
      "start": 13.0076,
      "duration": 0.4984,
      "velocity": 92,
      "chip": "ym2612"
    },
    {
      "channel": 4,
      "note": 85,
      "start": 13.0076,
      "duration": 0.042,
      "velocity": 114,
      "chip": "ym2612"
    },
    {
      "channel": 5,
      "note": 53,
      "start": 13.0077,
      "duration": 0.1092,
      "velocity": 127,
      "chip": "ym2612"
    },
    {
      "channel": 4,
      "note": 85,
      "start": 13.1168,
      "duration": 0.0662,
      "velocity": 114,
      "chip": "ym2612"
    },
    {
      "channel": 0,
      "note": 88,
      "start": 13.2554,
      "duration": 0.2505,
      "velocity": 102,
      "chip": "ym2612"
    },
    {
      "channel": 3,
      "note": 83,
      "start": 13.2555,
      "duration": 0.2506,
      "velocity": 74,
      "chip": "ym2612"
    },
    {
      "channel": 4,
      "note": 85,
      "start": 13.2555,
      "duration": 0.0441,
      "velocity": 114,
      "chip": "ym2612"
    },
    {
      "channel": 5,
      "note": 48,
      "start": 13.2556,
      "duration": 0.1441,
      "velocity": 101,
      "chip": "ym2612"
    },
    {
      "channel": 4,
      "note": 85,
      "start": 13.3668,
      "duration": 0.0662,
      "velocity": 114,
      "chip": "ym2612"
    },
    {
      "channel": 0,
      "note": 83,
      "start": 13.5059,
      "duration": 0.2486,
      "velocity": 102,
      "chip": "ym2612"
    },
    {
      "channel": 1,
      "note": 83,
      "start": 13.506,
      "duration": 0.5023,
      "velocity": 92,
      "chip": "ym2612"
    },
    {
      "channel": 3,
      "note": 86,
      "start": 13.5062,
      "duration": 0.2485,
      "velocity": 74,
      "chip": "ym2612"
    },
    {
      "channel": 4,
      "note": 85,
      "start": 13.5062,
      "duration": 0.0435,
      "velocity": 114,
      "chip": "ym2612"
    },
    {
      "channel": 5,
      "note": 53,
      "start": 13.5062,
      "duration": 0.0436,
      "velocity": 127,
      "chip": "ym2612"
    },
    {
      "channel": 4,
      "note": 85,
      "start": 13.6173,
      "duration": 0.0658,
      "velocity": 114,
      "chip": "ym2612"
    },
    {
      "channel": 5,
      "note": 53,
      "start": 13.6174,
      "duration": 0.0658,
      "velocity": 127,
      "chip": "ym2612"
    },
    {
      "channel": 0,
      "note": 88,
      "start": 13.7546,
      "duration": 0.2537,
      "velocity": 102,
      "chip": "ym2612"
    },
    {
      "channel": 3,
      "note": 88,
      "start": 13.7547,
      "duration": 0.2539,
      "velocity": 74,
      "chip": "ym2612"
    },
    {
      "channel": 4,
      "note": 85,
      "start": 13.7548,
      "duration": 0.0449,
      "velocity": 114,
      "chip": "ym2612"
    },
    {
      "channel": 5,
      "note": 48,
      "start": 13.7548,
      "duration": 0.1449,
      "velocity": 101,
      "chip": "ym2612"
    },
    {
      "channel": 4,
      "note": 85,
      "start": 13.8668,
      "duration": 0.0662,
      "velocity": 114,
      "chip": "ym2612"
    },
    {
      "channel": 0,
      "note": 86,
      "start": 14.0083,
      "duration": 0.2482,
      "velocity": 102,
      "chip": "ym2612"
    },
    {
      "channel": 1,
      "note": 86,
      "start": 14.0084,
      "duration": 0.2483,
      "velocity": 92,
      "chip": "ym2612"
    },
    {
      "channel": 2,
      "note": 86,
      "start": 14.0085,
      "duration": 0.2482,
      "velocity": 97,
      "chip": "ym2612"
    },
    {
      "channel": 3,
      "note": 91,
      "start": 14.0086,
      "duration": 0.2482,
      "velocity": 74,
      "chip": "ym2612"
    },
    {
      "channel": 4,
      "note": 85,
      "start": 14.0086,
      "duration": 0.041,
      "velocity": 114,
      "chip": "ym2612"
    },
    {
      "channel": 5,
      "note": 53,
      "start": 14.0087,
      "duration": 0.1082,
      "velocity": 127,
      "chip": "ym2612"
    },
    {
      "channel": 4,
      "note": 85,
      "start": 14.1168,
      "duration": 0.0662,
      "velocity": 114,
      "chip": "ym2612"
    },
    {
      "channel": 0,
      "note": 85,
      "start": 14.2566,
      "duration": 0.2508,
      "velocity": 102,
      "chip": "ym2612"
    },
    {
      "channel": 1,
      "note": 86,
      "start": 14.2567,
      "duration": 0.2508,
      "velocity": 92,
      "chip": "ym2612"
    },
    {
      "channel": 2,
      "note": 85,
      "start": 14.2568,
      "duration": 0.2508,
      "velocity": 97,
      "chip": "ym2612"
    },
    {
      "channel": 3,
      "note": 91,
      "start": 14.2569,
      "duration": 0.2508,
      "velocity": 74,
      "chip": "ym2612"
    },
    {
      "channel": 4,
      "note": 85,
      "start": 14.257,
      "duration": 0.0427,
      "velocity": 114,
      "chip": "ym2612"
    },
    {
      "channel": 5,
      "note": 48,
      "start": 14.2571,
      "duration": 0.1426,
      "velocity": 101,
      "chip": "ym2612"
    },
    {
      "channel": 4,
      "note": 85,
      "start": 14.3668,
      "duration": 0.0662,
      "velocity": 114,
      "chip": "ym2612"
    },
    {
      "channel": 0,
      "note": 86,
      "start": 14.5075,
      "duration": 0.249,
      "velocity": 102,
      "chip": "ym2612"
    },
    {
      "channel": 1,
      "note": 86,
      "start": 14.5076,
      "duration": 0.2491,
      "velocity": 92,
      "chip": "ym2612"
    },
    {
      "channel": 2,
      "note": 86,
      "start": 14.5077,
      "duration": 0.249,
      "velocity": 97,
      "chip": "ym2612"
    },
    {
      "channel": 3,
      "note": 91,
      "start": 14.5078,
      "duration": 0.249,
      "velocity": 74,
      "chip": "ym2612"
    },
    {
      "channel": 4,
      "note": 85,
      "start": 14.5078,
      "duration": 0.0419,
      "velocity": 114,
      "chip": "ym2612"
    },
    {
      "channel": 5,
      "note": 53,
      "start": 14.5079,
      "duration": 0.109,
      "velocity": 127,
      "chip": "ym2612"
    },
    {
      "channel": 4,
      "note": 85,
      "start": 14.6168,
      "duration": 0.0662,
      "velocity": 114,
      "chip": "ym2612"
    },
    {
      "channel": 0,
      "note": 88,
      "start": 14.7566,
      "duration": 0.2506,
      "velocity": 102,
      "chip": "ym2612"
    },
    {
      "channel": 1,
      "note": 86,
      "start": 14.7567,
      "duration": 0.2506,
      "velocity": 92,
      "chip": "ym2612"
    },
    {
      "channel": 2,
      "note": 88,
      "start": 14.7568,
      "duration": 0.2506,
      "velocity": 97,
      "chip": "ym2612"
    },
    {
      "channel": 3,
      "note": 91,
      "start": 14.7569,
      "duration": 0.2506,
      "velocity": 74,
      "chip": "ym2612"
    },
    {
      "channel": 4,
      "note": 85,
      "start": 14.757,
      "duration": 0.0427,
      "velocity": 114,
      "chip": "ym2612"
    },
    {
      "channel": 5,
      "note": 48,
      "start": 14.7571,
      "duration": 0.1427,
      "velocity": 101,
      "chip": "ym2612"
    },
    {
      "channel": 4,
      "note": 85,
      "start": 14.8668,
      "duration": 0.0662,
      "velocity": 114,
      "chip": "ym2612"
    },
    {
      "channel": 0,
      "note": 90,
      "start": 15.0073,
      "duration": 0.2449,
      "velocity": 102,
      "chip": "ym2612"
    },
    {
      "channel": 1,
      "note": 81,
      "start": 15.0074,
      "duration": 0.2449,
      "velocity": 92,
      "chip": "ym2612"
    },
    {
      "channel": 2,
      "note": 93,
      "start": 15.0074,
      "duration": 0.2449,
      "velocity": 97,
      "chip": "ym2612"
    },
    {
      "channel": 3,
      "note": 93,
      "start": 15.0076,
      "duration": 0.4959,
      "velocity": 74,
      "chip": "ym2612"
    },
    {
      "channel": 4,
      "note": 85,
      "start": 15.0076,
      "duration": 0.2448,
      "velocity": 114,
      "chip": "ym2612"
    },
    {
      "channel": 5,
      "note": 53,
      "start": 15.0077,
      "duration": 0.1087,
      "velocity": 127,
      "chip": "ym2612"
    },
    {
      "channel": 0,
      "note": 91,
      "start": 15.2522,
      "duration": 0.251,
      "velocity": 102,
      "chip": "ym2612"
    },
    {
      "channel": 1,
      "note": 81,
      "start": 15.2523,
      "duration": 0.251,
      "velocity": 92,
      "chip": "ym2612"
    },
    {
      "channel": 2,
      "note": 93,
      "start": 15.2524,
      "duration": 0.251,
      "velocity": 97,
      "chip": "ym2612"
    },
    {
      "channel": 5,
      "note": 53,
      "start": 15.2525,
      "duration": 0.0472,
      "velocity": 127,
      "chip": "ym2612"
    },
    {
      "channel": 5,
      "note": 53,
      "start": 15.3668,
      "duration": 0.0662,
      "velocity": 127,
      "chip": "ym2612"
    },
    {
      "channel": 0,
      "note": 93,
      "start": 15.5032,
      "duration": 0.5048,
      "velocity": 102,
      "chip": "ym2612"
    },
    {
      "channel": 1,
      "note": 81,
      "start": 15.5033,
      "duration": 0.5048,
      "velocity": 92,
      "chip": "ym2612"
    },
    {
      "channel": 2,
      "note": 93,
      "start": 15.5034,
      "duration": 0.5048,
      "velocity": 97,
      "chip": "ym2612"
    },
    {
      "channel": 3,
      "note": 93,
      "start": 15.5036,
      "duration": 0.5048,
      "velocity": 74,
      "chip": "ym2612"
    },
    {
      "channel": 4,
      "note": 85,
      "start": 15.5036,
      "duration": 0.2462,
      "velocity": 114,
      "chip": "ym2612"
    },
    {
      "channel": 5,
      "note": 53,
      "start": 15.5036,
      "duration": 0.2462,
      "velocity": 127,
      "chip": "ym2612"
    },
    {
      "channel": 0,
      "note": 95,
      "start": 16.0081,
      "duration": 0.244,
      "velocity": 102,
      "chip": "ym2612"
    },
    {
      "channel": 1,
      "note": 88,
      "start": 16.0081,
      "duration": 0.4984,
      "velocity": 92,
      "chip": "ym2612"
    },
    {
      "channel": 2,
      "note": 95,
      "start": 16.0083,
      "duration": 0.9983,
      "velocity": 97,
      "chip": "ym2612"
    },
    {
      "channel": 3,
      "note": 88,
      "start": 16.0083,
      "duration": 0.2439,
      "velocity": 74,
      "chip": "ym2612"
    },
    {
      "channel": 4,
      "note": 85,
      "start": 16.0084,
      "duration": 0.0413,
      "velocity": 114,
      "chip": "ym2612"
    },
    {
      "channel": 5,
      "note": 48,
      "start": 16.0085,
      "duration": 0.2914,
      "velocity": 101,
      "chip": "ym2612"
    },
    {
      "channel": 4,
      "note": 85,
      "start": 16.1168,
      "duration": 0.0663,
      "velocity": 114,
      "chip": "ym2612"
    },
    {
      "channel": 0,
      "note": 93,
      "start": 16.2522,
      "duration": 0.2543,
      "velocity": 102,
      "chip": "ym2612"
    },
    {
      "channel": 3,
      "note": 86,
      "start": 16.2523,
      "duration": 0.2544,
      "velocity": 74,
      "chip": "ym2612"
    },
    {
      "channel": 4,
      "note": 85,
      "start": 16.2524,
      "duration": 0.0474,
      "velocity": 114,
      "chip": "ym2612"
    },
    {
      "channel": 4,
      "note": 85,
      "start": 16.3668,
      "duration": 0.0662,
      "velocity": 114,
      "chip": "ym2612"
    },
    {
      "channel": 0,
      "note": 91,
      "start": 16.5066,
      "duration": 0.2457,
      "velocity": 102,
      "chip": "ym2612"
    },
    {
      "channel": 1,
      "note": 88,
      "start": 16.5066,
      "duration": 0.4999,
      "velocity": 92,
      "chip": "ym2612"
    },
    {
      "channel": 3,
      "note": 88,
      "start": 16.5067,
      "duration": 0.2456,
      "velocity": 74,
      "chip": "ym2612"
    },
    {
      "channel": 4,
      "note": 85,
      "start": 16.5068,
      "duration": 0.0429,
      "velocity": 114,
      "chip": "ym2612"
    },
    {
      "channel": 5,
      "note": 53,
      "start": 16.5069,
      "duration": 0.2456,
      "velocity": 127,
      "chip": "ym2612"
    },
    {
      "channel": 4,
      "note": 85,
      "start": 16.6168,
      "duration": 0.0662,
      "velocity": 114,
      "chip": "ym2612"
    },
    {
      "channel": 0,
      "note": 93,
      "start": 16.7523,
      "duration": 0.2541,
      "velocity": 102,
      "chip": "ym2612"
    },
    {
      "channel": 3,
      "note": 88,
      "start": 16.7524,
      "duration": 0.2543,
      "velocity": 74,
      "chip": "ym2612"
    },
    {
      "channel": 4,
      "note": 85,
      "start": 16.7525,
      "duration": 0.0472,
      "velocity": 114,
      "chip": "ym2612"
    },
    {
      "channel": 4,
      "note": 85,
      "start": 16.8668,
      "duration": 0.0662,
      "velocity": 114,
      "chip": "ym2612"
    },
    {
      "channel": 0,
      "note": 91,
      "start": 17.0064,
      "duration": 0.2482,
      "velocity": 102,
      "chip": "ym2612"
    },
    {
      "channel": 1,
      "note": 93,
      "start": 17.0066,
      "duration": 0.4999,
      "velocity": 92,
      "chip": "ym2612"
    },
    {
      "channel": 2,
      "note": 95,
      "start": 17.0066,
      "duration": 1.0015,
      "velocity": 97,
      "chip": "ym2612"
    },
    {
      "channel": 3,
      "note": 93,
      "start": 17.0067,
      "duration": 0.248,
      "velocity": 74,
      "chip": "ym2612"
    },
    {
      "channel": 4,
      "note": 85,
      "start": 17.0068,
      "duration": 0.0429,
      "velocity": 114,
      "chip": "ym2612"
    },
    {
      "channel": 5,
      "note": 48,
      "start": 17.0069,
      "duration": 0.1429,
      "velocity": 101,
      "chip": "ym2612"
    },
    {
      "channel": 4,
      "note": 85,
      "start": 17.1168,
      "duration": 0.0662,
      "velocity": 114,
      "chip": "ym2612"
    },
    {
      "channel": 0,
      "note": 90,
      "start": 17.2547,
      "duration": 0.2516,
      "velocity": 102,
      "chip": "ym2612"
    },
    {
      "channel": 3,
      "note": 93,
      "start": 17.2548,
      "duration": 0.2517,
      "velocity": 74,
      "chip": "ym2612"
    },
    {
      "channel": 4,
      "note": 85,
      "start": 17.2549,
      "duration": 0.0449,
      "velocity": 114,
      "chip": "ym2612"
    },
    {
      "channel": 5,
      "note": 53,
      "start": 17.255,
      "duration": 0.0449,
      "velocity": 127,
      "chip": "ym2612"
    },
    {
      "channel": 4,
      "note": 85,
      "start": 17.3674,
      "duration": 0.0658,
      "velocity": 114,
      "chip": "ym2612"
    },
    {
      "channel": 5,
      "note": 53,
      "start": 17.3674,
      "duration": 0.0658,
      "velocity": 127,
      "chip": "ym2612"
    },
    {
      "channel": 0,
      "note": 91,
      "start": 17.5063,
      "duration": 0.2478,
      "velocity": 102,
      "chip": "ym2612"
    },
    {
      "channel": 1,
      "note": 93,
      "start": 17.5065,
      "duration": 0.5016,
      "velocity": 92,
      "chip": "ym2612"
    },
    {
      "channel": 3,
      "note": 93,
      "start": 17.5066,
      "duration": 0.2477,
      "velocity": 74,
      "chip": "ym2612"
    },
    {
      "channel": 4,
      "note": 85,
      "start": 17.5067,
      "duration": 0.2477,
      "velocity": 114,
      "chip": "ym2612"
    },
    {
      "channel": 5,
      "note": 53,
      "start": 17.5067,
      "duration": 0.1098,
      "velocity": 127,
      "chip": "ym2612"
    },
    {
      "channel": 0,
      "note": 93,
      "start": 17.7543,
      "duration": 0.2537,
      "velocity": 102,
      "chip": "ym2612"
    },
    {
      "channel": 3,
      "note": 93,
      "start": 17.7544,
      "duration": 0.2539,
      "velocity": 74,
      "chip": "ym2612"
    },
    {
      "channel": 5,
      "note": 48,
      "start": 17.7545,
      "duration": 0.1452,
      "velocity": 101,
      "chip": "ym2612"
    },
    {
      "channel": 0,
      "note": 95,
      "start": 18.008,
      "duration": 0.2441,
      "velocity": 102,
      "chip": "ym2612"
    },
    {
      "channel": 1,
      "note": 83,
      "start": 18.0081,
      "duration": 0.4985,
      "velocity": 92,
      "chip": "ym2612"
    },
    {
      "channel": 2,
      "note": 96,
      "start": 18.0082,
      "duration": 0.9988,
      "velocity": 97,
      "chip": "ym2612"
    },
    {
      "channel": 3,
      "note": 95,
      "start": 18.0083,
      "duration": 0.2439,
      "velocity": 74,
      "chip": "ym2612"
    },
    {
      "channel": 4,
      "note": 85,
      "start": 18.0084,
      "duration": 0.0414,
      "velocity": 114,
      "chip": "ym2612"
    },
    {
      "channel": 5,
      "note": 48,
      "start": 18.0085,
      "duration": 0.2914,
      "velocity": 101,
      "chip": "ym2612"
    },
    {
      "channel": 4,
      "note": 85,
      "start": 18.1168,
      "duration": 0.0662,
      "velocity": 114,
      "chip": "ym2612"
    },
    {
      "channel": 0,
      "note": 93,
      "start": 18.2522,
      "duration": 0.2543,
      "velocity": 102,
      "chip": "ym2612"
    },
    {
      "channel": 3,
      "note": 93,
      "start": 18.2523,
      "duration": 0.2544,
      "velocity": 74,
      "chip": "ym2612"
    },
    {
      "channel": 4,
      "note": 85,
      "start": 18.2524,
      "duration": 0.0474,
      "velocity": 114,
      "chip": "ym2612"
    },
    {
      "channel": 4,
      "note": 85,
      "start": 18.3668,
      "duration": 0.0662,
      "velocity": 114,
      "chip": "ym2612"
    },
    {
      "channel": 0,
      "note": 91,
      "start": 18.5066,
      "duration": 0.2449,
      "velocity": 102,
      "chip": "ym2612"
    },
    {
      "channel": 1,
      "note": 83,
      "start": 18.5067,
      "duration": 0.5003,
      "velocity": 92,
      "chip": "ym2612"
    },
    {
      "channel": 3,
      "note": 91,
      "start": 18.5068,
      "duration": 0.2447,
      "velocity": 74,
      "chip": "ym2612"
    },
    {
      "channel": 4,
      "note": 85,
      "start": 18.5069,
      "duration": 0.0428,
      "velocity": 114,
      "chip": "ym2612"
    },
    {
      "channel": 5,
      "note": 53,
      "start": 18.5069,
      "duration": 0.2448,
      "velocity": 127,
      "chip": "ym2612"
    },
    {
      "channel": 4,
      "note": 85,
      "start": 18.6168,
      "duration": 0.0662,
      "velocity": 114,
      "chip": "ym2612"
    },
    {
      "channel": 0,
      "note": 90,
      "start": 18.7515,
      "duration": 0.2554,
      "velocity": 102,
      "chip": "ym2612"
    },
    {
      "channel": 3,
      "note": 90,
      "start": 18.7516,
      "duration": 0.5032,
      "velocity": 74,
      "chip": "ym2612"
    },
    {
      "channel": 4,
      "note": 85,
      "start": 18.7517,
      "duration": 0.048,
      "velocity": 114,
      "chip": "ym2612"
    },
    {
      "channel": 4,
      "note": 85,
      "start": 18.8668,
      "duration": 0.0662,
      "velocity": 114,
      "chip": "ym2612"
    },
    {
      "channel": 0,
      "note": 91,
      "start": 19.0069,
      "duration": 0.2478,
      "velocity": 102,
      "chip": "ym2612"
    },
    {
      "channel": 1,
      "note": 88,
      "start": 19.007,
      "duration": 0.4994,
      "velocity": 92,
      "chip": "ym2612"
    },
    {
      "channel": 2,
      "note": 93,
      "start": 19.0071,
      "duration": 1.0011,
      "velocity": 97,
      "chip": "ym2612"
    },
    {
      "channel": 4,
      "note": 85,
      "start": 19.0072,
      "duration": 0.0425,
      "velocity": 114,
      "chip": "ym2612"
    },
    {
      "channel": 5,
      "note": 48,
      "start": 19.0073,
      "duration": 0.1424,
      "velocity": 101,
      "chip": "ym2612"
    },
    {
      "channel": 4,
      "note": 85,
      "start": 19.1168,
      "duration": 0.0662,
      "velocity": 114,
      "chip": "ym2612"
    },
    {
      "channel": 0,
      "note": 90,
      "start": 19.2547,
      "duration": 0.2515,
      "velocity": 102,
      "chip": "ym2612"
    },
    {
      "channel": 3,
      "note": 91,
      "start": 19.2548,
      "duration": 0.2517,
      "velocity": 74,
      "chip": "ym2612"
    },
    {
      "channel": 4,
      "note": 85,
      "start": 19.2549,
      "duration": 0.0449,
      "velocity": 114,
      "chip": "ym2612"
    },
    {
      "channel": 5,
      "note": 53,
      "start": 19.255,
      "duration": 0.0448,
      "velocity": 127,
      "chip": "ym2612"
    },
    {
      "channel": 4,
      "note": 85,
      "start": 19.3673,
      "duration": 0.0658,
      "velocity": 114,
      "chip": "ym2612"
    },
    {
      "channel": 5,
      "note": 53,
      "start": 19.3674,
      "duration": 0.0658,
      "velocity": 127,
      "chip": "ym2612"
    },
    {
      "channel": 0,
      "note": 88,
      "start": 19.5063,
      "duration": 0.2478,
      "velocity": 102,
      "chip": "ym2612"
    },
    {
      "channel": 1,
      "note": 88,
      "start": 19.5064,
      "duration": 0.5016,
      "velocity": 92,
      "chip": "ym2612"
    },
    {
      "channel": 3,
      "note": 90,
      "start": 19.5066,
      "duration": 0.2477,
      "velocity": 74,
      "chip": "ym2612"
    },
    {
      "channel": 4,
      "note": 85,
      "start": 19.5066,
      "duration": 0.2477,
      "velocity": 114,
      "chip": "ym2612"
    },
    {
      "channel": 5,
      "note": 53,
      "start": 19.5066,
      "duration": 0.1098,
      "velocity": 127,
      "chip": "ym2612"
    },
    {
      "channel": 0,
      "note": 90,
      "start": 19.7542,
      "duration": 0.2538,
      "velocity": 102,
      "chip": "ym2612"
    },
    {
      "channel": 3,
      "note": 88,
      "start": 19.7543,
      "duration": 0.2539,
      "velocity": 74,
      "chip": "ym2612"
    },
    {
      "channel": 5,
      "note": 48,
      "start": 19.7544,
      "duration": 0.1453,
      "velocity": 101,
      "chip": "ym2612"
    },
    {
      "channel": 0,
      "note": 91,
      "start": 20.008,
      "duration": 0.2433,
      "velocity": 102,
      "chip": "ym2612"
    },
    {
      "channel": 1,
      "note": 86,
      "start": 20.0081,
      "duration": 0.4976,
      "velocity": 92,
      "chip": "ym2612"
    },
    {
      "channel": 2,
      "note": 95,
      "start": 20.0082,
      "duration": 0.9981,
      "velocity": 97,
      "chip": "ym2612"
    },
    {
      "channel": 3,
      "note": 91,
      "start": 20.0083,
      "duration": 0.2432,
      "velocity": 74,
      "chip": "ym2612"
    },
    {
      "channel": 4,
      "note": 85,
      "start": 20.0083,
      "duration": 0.0414,
      "velocity": 114,
      "chip": "ym2612"
    },
    {
      "channel": 5,
      "note": 48,
      "start": 20.0084,
      "duration": 0.2914,
      "velocity": 101,
      "chip": "ym2612"
    },
    {
      "channel": 4,
      "note": 85,
      "start": 20.1168,
      "duration": 0.0662,
      "velocity": 114,
      "chip": "ym2612"
    },
    {
      "channel": 0,
      "note": 90,
      "start": 20.2514,
      "duration": 0.2543,
      "velocity": 102,
      "chip": "ym2612"
    },
    {
      "channel": 3,
      "note": 90,
      "start": 20.2515,
      "duration": 0.2543,
      "velocity": 74,
      "chip": "ym2612"
    },
    {
      "channel": 4,
      "note": 85,
      "start": 20.2516,
      "duration": 0.0482,
      "velocity": 114,
      "chip": "ym2612"
    },
    {
      "channel": 4,
      "note": 85,
      "start": 20.3668,
      "duration": 0.0662,
      "velocity": 114,
      "chip": "ym2612"
    },
    {
      "channel": 0,
      "note": 88,
      "start": 20.5057,
      "duration": 0.2464,
      "velocity": 102,
      "chip": "ym2612"
    },
    {
      "channel": 1,
      "note": 86,
      "start": 20.5058,
      "duration": 0.5004,
      "velocity": 92,
      "chip": "ym2612"
    },
    {
      "channel": 3,
      "note": 91,
      "start": 20.5059,
      "duration": 0.2464,
      "velocity": 74,
      "chip": "ym2612"
    },
    {
      "channel": 4,
      "note": 85,
      "start": 20.506,
      "duration": 0.0437,
      "velocity": 114,
      "chip": "ym2612"
    },
    {
      "channel": 5,
      "note": 53,
      "start": 20.506,
      "duration": 0.2464,
      "velocity": 127,
      "chip": "ym2612"
    },
    {
      "channel": 4,
      "note": 85,
      "start": 20.6168,
      "duration": 0.0662,
      "velocity": 114,
      "chip": "ym2612"
    },
    {
      "channel": 0,
      "note": 90,
      "start": 20.7522,
      "duration": 0.2539,
      "velocity": 102,
      "chip": "ym2612"
    },
    {
      "channel": 3,
      "note": 93,
      "start": 20.7524,
      "duration": 0.5025,
      "velocity": 74,
      "chip": "ym2612"
    },
    {
      "channel": 4,
      "note": 85,
      "start": 20.7524,
      "duration": 0.0473,
      "velocity": 114,
      "chip": "ym2612"
    },
    {
      "channel": 4,
      "note": 85,
      "start": 20.8668,
      "duration": 0.0662,
      "velocity": 114,
      "chip": "ym2612"
    },
    {
      "channel": 0,
      "note": 91,
      "start": 21.0062,
      "duration": 0.2485,
      "velocity": 102,
      "chip": "ym2612"
    },
    {
      "channel": 1,
      "note": 93,
      "start": 21.0062,
      "duration": 0.5009,
      "velocity": 92,
      "chip": "ym2612"
    },
    {
      "channel": 2,
      "note": 96,
      "start": 21.0063,
      "duration": 1.0022,
      "velocity": 97,
      "chip": "ym2612"
    },
    {
      "channel": 4,
      "note": 85,
      "start": 21.0064,
      "duration": 0.0433,
      "velocity": 114,
      "chip": "ym2612"
    },
    {
      "channel": 5,
      "note": 48,
      "start": 21.0065,
      "duration": 0.1433,
      "velocity": 101,
      "chip": "ym2612"
    },
    {
      "channel": 4,
      "note": 85,
      "start": 21.1168,
      "duration": 0.0662,
      "velocity": 114,
      "chip": "ym2612"
    },
    {
      "channel": 0,
      "note": 93,
      "start": 21.2548,
      "duration": 0.2523,
      "velocity": 102,
      "chip": "ym2612"
    },
    {
      "channel": 3,
      "note": 93,
      "start": 21.2549,
      "duration": 0.2524,
      "velocity": 74,
      "chip": "ym2612"
    },
    {
      "channel": 4,
      "note": 85,
      "start": 21.255,
      "duration": 0.0448,
      "velocity": 114,
      "chip": "ym2612"
    },
    {
      "channel": 5,
      "note": 53,
      "start": 21.255,
      "duration": 0.0449,
      "velocity": 127,
      "chip": "ym2612"
    },
    {
      "channel": 4,
      "note": 85,
      "start": 21.3674,
      "duration": 0.0658,
      "velocity": 114,
      "chip": "ym2612"
    },
    {
      "channel": 5,
      "note": 53,
      "start": 21.3674,
      "duration": 0.0658,
      "velocity": 127,
      "chip": "ym2612"
    },
    {
      "channel": 0,
      "note": 95,
      "start": 21.5071,
      "duration": 0.2478,
      "velocity": 102,
      "chip": "ym2612"
    },
    {
      "channel": 1,
      "note": 93,
      "start": 21.5072,
      "duration": 0.5012,
      "velocity": 92,
      "chip": "ym2612"
    },
    {
      "channel": 3,
      "note": 91,
      "start": 21.5073,
      "duration": 0.2477,
      "velocity": 74,
      "chip": "ym2612"
    },
    {
      "channel": 4,
      "note": 85,
      "start": 21.5074,
      "duration": 0.2478,
      "velocity": 114,
      "chip": "ym2612"
    },
    {
      "channel": 5,
      "note": 53,
      "start": 21.5074,
      "duration": 0.109,
      "velocity": 127,
      "chip": "ym2612"
    },
    {
      "channel": 0,
      "note": 96,
      "start": 21.755,
      "duration": 0.2533,
      "velocity": 102,
      "chip": "ym2612"
    },
    {
      "channel": 3,
      "note": 90,
      "start": 21.7551,
      "duration": 0.2535,
      "velocity": 74,
      "chip": "ym2612"
    },
    {
      "channel": 5,
      "note": 48,
      "start": 21.7552,
      "duration": 0.1445,
      "velocity": 101,
      "chip": "ym2612"
    },
    {
      "channel": 0,
      "note": 96,
      "start": 22.0083,
      "duration": 0.2462,
      "velocity": 102,
      "chip": "ym2612"
    },
    {
      "channel": 1,
      "note": 83,
      "start": 22.0085,
      "duration": 0.4985,
      "velocity": 92,
      "chip": "ym2612"
    },
    {
      "channel": 2,
      "note": 93,
      "start": 22.0085,
      "duration": 0.9988,
      "velocity": 97,
      "chip": "ym2612"
    },
    {
      "channel": 3,
      "note": 91,
      "start": 22.0086,
      "duration": 0.246,
      "velocity": 74,
      "chip": "ym2612"
    },
    {
      "channel": 4,
      "note": 85,
      "start": 22.0087,
      "duration": 0.041,
      "velocity": 114,
      "chip": "ym2612"
    },
    {
      "channel": 5,
      "note": 53,
      "start": 22.0088,
      "duration": 0.1081,
      "velocity": 127,
      "chip": "ym2612"
    },
    {
      "channel": 4,
      "note": 85,
      "start": 22.1169,
      "duration": 0.0661,
      "velocity": 114,
      "chip": "ym2612"
    },
    {
      "channel": 0,
      "note": 95,
      "start": 22.2546,
      "duration": 0.2522,
      "velocity": 102,
      "chip": "ym2612"
    },
    {
      "channel": 3,
      "note": 90,
      "start": 22.2547,
      "duration": 0.2524,
      "velocity": 74,
      "chip": "ym2612"
    },
    {
      "channel": 4,
      "note": 85,
      "start": 22.2548,
      "duration": 0.0449,
      "velocity": 114,
      "chip": "ym2612"
    },
    {
      "channel": 5,
      "note": 48,
      "start": 22.2548,
      "duration": 0.1449,
      "velocity": 101,
      "chip": "ym2612"
    },
    {
      "channel": 4,
      "note": 85,
      "start": 22.3668,
      "duration": 0.0663,
      "velocity": 114,
      "chip": "ym2612"
    },
    {
      "channel": 0,
      "note": 96,
      "start": 22.5069,
      "duration": 0.2476,
      "velocity": 102,
      "chip": "ym2612"
    },
    {
      "channel": 1,
      "note": 83,
      "start": 22.507,
      "duration": 0.5003,
      "velocity": 92,
      "chip": "ym2612"
    },
    {
      "channel": 3,
      "note": 88,
      "start": 22.5071,
      "duration": 0.2475,
      "velocity": 74,
      "chip": "ym2612"
    },
    {
      "channel": 4,
      "note": 85,
      "start": 22.5072,
      "duration": 0.0425,
      "velocity": 114,
      "chip": "ym2612"
    },
    {
      "channel": 5,
      "note": 53,
      "start": 22.5073,
      "duration": 0.1097,
      "velocity": 127,
      "chip": "ym2612"
    },
    {
      "channel": 4,
      "note": 85,
      "start": 22.6169,
      "duration": 0.0661,
      "velocity": 114,
      "chip": "ym2612"
    },
    {
      "channel": 0,
      "note": 98,
      "start": 22.7546,
      "duration": 0.2525,
      "velocity": 102,
      "chip": "ym2612"
    },
    {
      "channel": 3,
      "note": 83,
      "start": 22.7547,
      "duration": 0.2527,
      "velocity": 74,
      "chip": "ym2612"
    },
    {
      "channel": 4,
      "note": 85,
      "start": 22.7548,
      "duration": 0.0449,
      "velocity": 114,
      "chip": "ym2612"
    },
    {
      "channel": 5,
      "note": 48,
      "start": 22.7548,
      "duration": 0.1449,
      "velocity": 101,
      "chip": "ym2612"
    },
    {
      "channel": 4,
      "note": 85,
      "start": 22.8668,
      "duration": 0.0663,
      "velocity": 114,
      "chip": "ym2612"
    },
    {
      "channel": 0,
      "note": 100,
      "start": 23.0072,
      "duration": 1.0023,
      "velocity": 102,
      "chip": "ym2612"
    },
    {
      "channel": 1,
      "note": 83,
      "start": 23.0073,
      "duration": 1.0023,
      "velocity": 92,
      "chip": "ym2612"
    },
    {
      "channel": 2,
      "note": 95,
      "start": 23.0074,
      "duration": 1.0024,
      "velocity": 97,
      "chip": "ym2612"
    },
    {
      "channel": 3,
      "note": 83,
      "start": 23.0075,
      "duration": 1.0023,
      "velocity": 74,
      "chip": "ym2612"
    },
    {
      "channel": 4,
      "note": 85,
      "start": 23.0076,
      "duration": 0.2422,
      "velocity": 114,
      "chip": "ym2612"
    },
    {
      "channel": 5,
      "note": 53,
      "start": 23.0076,
      "duration": 0.2422,
      "velocity": 127,
      "chip": "ym2612"
    },
    {
      "channel": 4,
      "note": 97,
      "start": 23.5007,
      "duration": 0.2522,
      "velocity": 114,
      "chip": "ym2612"
    },
    {
      "channel": 5,
      "note": 53,
      "start": 23.5008,
      "duration": 0.049,
      "velocity": 127,
      "chip": "ym2612"
    },
    {
      "channel": 5,
      "note": 53,
      "start": 23.6168,
      "duration": 0.0662,
      "velocity": 127,
      "chip": "ym2612"
    },
    {
      "channel": 5,
      "note": 48,
      "start": 23.7531,
      "duration": 0.1467,
      "velocity": 101,
      "chip": "ym2612"
    },
    {
      "channel": 0,
      "note": 86,
      "start": 24.0095,
      "duration": 0.2457,
      "velocity": 102,
      "chip": "ym2612"
    },
    {
      "channel": 1,
      "note": 88,
      "start": 24.0097,
      "duration": 0.4896,
      "velocity": 92,
      "chip": "ym2612"
    },
    {
      "channel": 2,
      "note": 88,
      "start": 24.0097,
      "duration": 0.4895,
      "velocity": 97,
      "chip": "ym2612"
    },
    {
      "channel": 3,
      "note": 88,
      "start": 24.0099,
      "duration": 0.2455,
      "velocity": 74,
      "chip": "ym2612"
    },
    {
      "channel": 4,
      "note": 85,
      "start": 24.0099,
      "duration": 0.0398,
      "velocity": 114,
      "chip": "ym2612"
    },
    {
      "channel": 5,
      "note": 53,
      "start": 24.01,
      "duration": 0.1069,
      "velocity": 127,
      "chip": "ym2612"
    },
    {
      "channel": 4,
      "note": 85,
      "start": 24.1168,
      "duration": 0.0662,
      "velocity": 114,
      "chip": "ym2612"
    },
    {
      "channel": 0,
      "note": 88,
      "start": 24.2554,
      "duration": 0.2439,
      "velocity": 102,
      "chip": "ym2612"
    },
    {
      "channel": 3,
      "note": 83,
      "start": 24.2555,
      "duration": 0.2438,
      "velocity": 74,
      "chip": "ym2612"
    },
    {
      "channel": 4,
      "note": 85,
      "start": 24.2555,
      "duration": 0.0441,
      "velocity": 114,
      "chip": "ym2612"
    },
    {
      "channel": 5,
      "note": 48,
      "start": 24.2556,
      "duration": 0.1441,
      "velocity": 101,
      "chip": "ym2612"
    },
    {
      "channel": 4,
      "note": 85,
      "start": 24.3668,
      "duration": 0.0662,
      "velocity": 114,
      "chip": "ym2612"
    }
  ]
}