{
  "track_name": "11 - Hoo Hah Remix",
  "duration_sec": 107.512,
  "sample_rate": 44100,
  "note_count": 1872,
  "unique_pitches": 93,
  "pitch_range": 95,
  "avg_note_duration": 0.3214,
  "reconstruction_stats": {
    "notes_reconstructed": 1872,
    "keyon_events": 1872,
    "keyoff_events": 1424,
    "orphan_keyons": 6,
    "unique_pitches": 93,
    "pitch_range": 95,
    "avg_duration_sec": 0.3214
  },
  "metadata": {
    "source": "T\\The Lion King\\11 - Hoo Hah Remix.vgm"
  },
  "notes": [
    {
      "channel": 1,
      "note": 43,
      "start": 0.0,
      "duration": 0.0,
      "velocity": 127,
      "chip": "ym2612"
    },
    {
      "channel": 1,
      "note": 24,
      "start": 0.0,
      "duration": 0.0371,
      "velocity": 127,
      "chip": "ym2612"
    },
    {
      "channel": 2,
      "note": 43,
      "start": 0.0,
      "duration": 0.0088,
      "velocity": 127,
      "chip": "ym2612"
    },
    {
      "channel": 3,
      "note": 55,
      "start": 0.0038,
      "duration": 0.0054,
      "velocity": 127,
      "chip": "ym2612"
    },
    {
      "channel": 2,
      "note": 24,
      "start": 0.009,
      "duration": 0.1782,
      "velocity": 127,
      "chip": "ym2612"
    },
    {
      "channel": 3,
      "note": 62,
      "start": 0.0094,
      "duration": 0.0285,
      "velocity": 127,
      "chip": "ym2612"
    },
    {
      "channel": 1,
      "note": 24,
      "start": 0.0373,
      "duration": 0.16,
      "velocity": 127,
      "chip": "ym2612"
    },
    {
      "channel": 3,
      "note": 67,
      "start": 0.0381,
      "duration": 0.1542,
      "velocity": 127,
      "chip": "ym2612"
    },
    {
      "channel": 2,
      "note": 24,
      "start": 0.1875,
      "duration": 0.2931,
      "velocity": 127,
      "chip": "ym2612"
    },
    {
      "channel": 3,
      "note": 67,
      "start": 0.1926,
      "duration": 0.0054,
      "velocity": 127,
      "chip": "ym2612"
    },
    {
      "channel": 1,
      "note": 24,
      "start": 0.1974,
      "duration": 0.5664,
      "velocity": 127,
      "chip": "ym2612"
    },
    {
      "channel": 3,
      "note": 62,
      "start": 0.1982,
      "duration": 0.2831,
      "velocity": 127,
      "chip": "ym2612"
    },
    {
      "channel": 2,
      "note": 24,
      "start": 0.4808,
      "duration": 0.2882,
      "velocity": 127,
      "chip": "ym2612"
    },
    {
      "channel": 3,
      "note": 67,
      "start": 0.4815,
      "duration": 0.2832,
      "velocity": 127,
      "chip": "ym2612"
    },
    {
      "channel": 1,
      "note": 24,
      "start": 0.7641,
      "duration": 0.1599,
      "velocity": 127,
      "chip": "ym2612"
    },
    {
      "channel": 3,
      "note": 62,
      "start": 0.7649,
      "duration": 0.0049,
      "velocity": 127,
      "chip": "ym2612"
    },
    {
      "channel": 2,
      "note": 24,
      "start": 0.7693,
      "duration": 0.4382,
      "velocity": 127,
      "chip": "ym2612"
    },
    {
      "channel": 3,
      "note": 62,
      "start": 0.77,
      "duration": 0.0209,
      "velocity": 127,
      "chip": "ym2612"
    },
    {
      "channel": 3,
      "note": 62,
      "start": 0.7912,
      "duration": 0.2831,
      "velocity": 127,
      "chip": "ym2612"
    },
    {
      "channel": 1,
      "note": 24,
      "start": 0.9242,
      "duration": 0.4383,
      "velocity": 127,
      "chip": "ym2612"
    },
    {
      "channel": 3,
      "note": 62,
      "start": 1.0744,
      "duration": 0.1337,
      "velocity": 127,
      "chip": "ym2612"
    },
    {
      "channel": 2,
      "note": 24,
      "start": 1.2077,
      "duration": 0.31,
      "velocity": 127,
      "chip": "ym2612"
    },
    {
      "channel": 3,
      "note": 67,
      "start": 1.2084,
      "duration": 0.155,
      "velocity": 127,
      "chip": "ym2612"
    },
    {
      "channel": 1,
      "note": 24,
      "start": 1.3628,
      "duration": 0.2881,
      "velocity": 127,
      "chip": "ym2612"
    },
    {
      "channel": 3,
      "note": 67,
      "start": 1.3635,
      "duration": 0.0042,
      "velocity": 127,
      "chip": "ym2612"
    },
    {
      "channel": 3,
      "note": 62,
      "start": 1.368,
      "duration": 0.2837,
      "velocity": 127,
      "chip": "ym2612"
    },
    {
      "channel": 2,
      "note": 24,
      "start": 1.5178,
      "duration": 0.4165,
      "velocity": 127,
      "chip": "ym2612"
    },
    {
      "channel": 1,
      "note": 24,
      "start": 1.6512,
      "duration": 0.3099,
      "velocity": 127,
      "chip": "ym2612"
    },
    {
      "channel": 3,
      "note": 67,
      "start": 1.6519,
      "duration": 0.2832,
      "velocity": 127,
      "chip": "ym2612"
    },
    {
      "channel": 2,
      "note": 24,
      "start": 1.9346,
      "duration": 0.0284,
      "velocity": 127,
      "chip": "ym2612"
    },
    {
      "channel": 3,
      "note": 62,
      "start": 1.9353,
      "duration": 0.0043,
      "velocity": 127,
      "chip": "ym2612"
    },
    {
      "channel": 3,
      "note": 62,
      "start": 1.9398,
      "duration": 0.0221,
      "velocity": 127,
      "chip": "ym2612"
    },
    {
      "channel": 1,
      "note": 24,
      "start": 1.9613,
      "duration": 0.0024,
      "velocity": 127,
      "chip": "ym2612"
    },
    {
      "channel": 3,
      "note": 62,
      "start": 1.9621,
      "duration": 0.0013,
      "velocity": 127,
      "chip": "ym2612"
    },
    {
      "channel": 2,
      "note": 24,
      "start": 1.9631,
      "duration": 0.1275,
      "velocity": 127,
      "chip": "ym2612"
    },
    {
      "channel": 3,
      "note": 62,
      "start": 1.9636,
      "duration": 0.0006,
      "velocity": 127,
      "chip": "ym2612"
    },
    {
      "channel": 1,
      "note": 24,
      "start": 1.9639,
      "duration": 0.1559,
      "velocity": 127,
      "chip": "ym2612"
    },
    {
      "channel": 3,
      "note": 67,
      "start": 1.9645,
      "duration": 0.148,
      "velocity": 127,
      "chip": "ym2612"
    },
    {
      "channel": 2,
      "note": 24,
      "start": 2.0908,
      "duration": 0.3098,
      "velocity": 127,
      "chip": "ym2612"
    },
    {
      "channel": 3,
      "note": 67,
      "start": 2.1127,
      "duration": 0.008,
      "velocity": 127,
      "chip": "ym2612"
    },
    {
      "channel": 0,
      "note": 79,
      "start": 2.1194,
      "duration": 3.8639,
      "velocity": 113,
      "chip": "ym2612"
    },
    {
      "channel": 1,
      "note": 24,
      "start": 2.1201,
      "duration": 0.5639,
      "velocity": 127,
      "chip": "ym2612"
    },
    {
      "channel": 3,
      "note": 62,
      "start": 2.1209,
      "duration": 0.2805,
      "velocity": 127,
      "chip": "ym2612"
    },
    {
      "channel": 2,
      "note": 24,
      "start": 2.4009,
      "duration": 0.2933,
      "velocity": 127,
      "chip": "ym2612"
    },
    {
      "channel": 3,
      "note": 67,
      "start": 2.4016,
      "duration": 0.2832,
      "velocity": 127,
      "chip": "ym2612"
    },
    {
      "channel": 1,
      "note": 24,
      "start": 2.6842,
      "duration": 0.1599,
      "velocity": 127,
      "chip": "ym2612"
    },
    {
      "channel": 3,
      "note": 62,
      "start": 2.685,
      "duration": 0.0043,
      "velocity": 127,
      "chip": "ym2612"
    },
    {
      "channel": 3,
      "note": 62,
      "start": 2.6895,
      "duration": 0.0054,
      "velocity": 127,
      "chip": "ym2612"
    },
    {
      "channel": 2,
      "note": 24,
      "start": 2.6944,
      "duration": 0.4331,
      "velocity": 127,
      "chip": "ym2612"
    },
    {
      "channel": 3,
      "note": 62,
      "start": 2.6951,
      "duration": 0.2825,
      "velocity": 127,
      "chip": "ym2612"
    },
    {
      "channel": 1,
      "note": 24,
      "start": 2.8444,
      "duration": 0.4215,
      "velocity": 127,
      "chip": "ym2612"
    },
    {
      "channel": 3,
      "note": 62,
      "start": 2.9778,
      "duration": 0.1504,
      "velocity": 127,
      "chip": "ym2612"
    },
    {
      "channel": 2,
      "note": 24,
      "start": 3.1277,
      "duration": 0.2934,
      "velocity": 127,
      "chip": "ym2612"
    },
    {
      "channel": 3,
      "note": 67,
      "start": 3.1284,
      "duration": 0.1382,
      "velocity": 127,
      "chip": "ym2612"
    },
    {
      "channel": 1,
      "note": 24,
      "start": 3.2661,
      "duration": 0.4382,
      "velocity": 127,
      "chip": "ym2612"
    },
    {
      "channel": 3,
      "note": 67,
      "start": 3.2668,
      "duration": 0.021,
      "velocity": 127,
      "chip": "ym2612"
    },
    {
      "channel": 3,
      "note": 62,
      "start": 3.2881,
      "duration": 0.2831,
      "velocity": 127,
      "chip": "ym2612"
    },
    {
      "channel": 2,
      "note": 24,
      "start": 3.4213,
      "duration": 0.4165,
      "velocity": 127,
      "chip": "ym2612"
    },
    {
      "channel": 3,
      "note": 67,
      "start": 3.5714,
      "duration": 0.2671,
      "velocity": 127,
      "chip": "ym2612"
    },
    {
      "channel": 1,
      "note": 24,
      "start": 3.7045,
      "duration": 0.1603,
      "velocity": 127,
      "chip": "ym2612"
    },
    {
      "channel": 2,
      "note": 24,
      "start": 3.838,
      "duration": 0.0321,
      "velocity": 127,
      "chip": "ym2612"
    },
    {
      "channel": 3,
      "note": 62,
      "start": 3.8387,
      "duration": 0.021,
      "velocity": 127,
      "chip": "ym2612"
    },
    {
      "channel": 3,
      "note": 62,
      "start": 3.86,
      "duration": 0.0076,
      "velocity": 127,
      "chip": "ym2612"
    },
    {
      "channel": 1,
      "note": 24,
      "start": 3.865,
      "duration": 0.0379,
      "velocity": 127,
      "chip": "ym2612"
    },
    {
      "channel": 3,
      "note": 55,
      "start": 3.8678,
      "duration": 0.0027,
      "velocity": 127,
      "chip": "ym2612"
    },
    {
      "channel": 2,
      "note": 24,
      "start": 3.8704,
      "duration": 0.1826,
      "velocity": 127,
      "chip": "ym2612"
    },
    {
      "channel": 3,
      "note": 62,
      "start": 3.8707,
      "duration": 0.0329,
      "velocity": 127,
      "chip": "ym2612"
    },
    {
      "channel": 1,
      "note": 24,
      "start": 3.9031,
      "duration": 0.1766,
      "velocity": 127,
      "chip": "ym2612"
    },
    {
      "channel": 3,
      "note": 67,
      "start": 3.9039,
      "duration": 0.1543,
      "velocity": 127,
      "chip": "ym2612"
    },
    {
      "channel": 2,
      "note": 24,
      "start": 4.0532,
      "duration": 0.2932,
      "velocity": 127,
      "chip": "ym2612"
    },
    {
      "channel": 3,
      "note": 67,
      "start": 4.0584,
      "duration": 0.0221,
      "velocity": 127,
      "chip": "ym2612"
    },
    {
      "channel": 1,
      "note": 24,
      "start": 4.08,
      "duration": 0.5497,
      "velocity": 127,
      "chip": "ym2612"
    },
    {
      "channel": 3,
      "note": 62,
      "start": 4.0807,
      "duration": 0.2664,
      "velocity": 127,
      "chip": "ym2612"
    },
    {
      "channel": 2,
      "note": 24,
      "start": 4.3467,
      "duration": 0.3049,
      "velocity": 127,
      "chip": "ym2612"
    },
    {
      "channel": 3,
      "note": 67,
      "start": 4.3474,
      "duration": 0.2832,
      "velocity": 127,
      "chip": "ym2612"
    },
    {
      "channel": 1,
      "note": 24,
      "start": 4.63,
      "duration": 0.1599,
      "velocity": 127,
      "chip": "ym2612"
    },
    {
      "channel": 3,
      "note": 62,
      "start": 4.6307,
      "duration": 0.0216,
      "velocity": 127,
      "chip": "ym2612"
    },
    {
      "channel": 2,
      "note": 24,
      "start": 4.6518,
      "duration": 0.4214,
      "velocity": 127,
      "chip": "ym2612"
    },
    {
      "channel": 3,
      "note": 62,
      "start": 4.6525,
      "duration": 0.0042,
      "velocity": 127,
      "chip": "ym2612"
    },
    {
      "channel": 3,
      "note": 62,
      "start": 4.6569,
      "duration": 0.2831,
      "velocity": 127,
      "chip": "ym2612"
    },
    {
      "channel": 1,
      "note": 24,
      "start": 4.79,
      "duration": 0.4383,
      "velocity": 127,
      "chip": "ym2612"
    },
    {
      "channel": 3,
      "note": 62,
      "start": 4.9402,
      "duration": 0.1337,
      "velocity": 127,
      "chip": "ym2612"
    },
    {
      "channel": 2,
      "note": 24,
      "start": 5.0735,
      "duration": 0.3099,
      "velocity": 127,
      "chip": "ym2612"
    },
    {
      "channel": 3,
      "note": 67,
      "start": 5.0742,
      "duration": 0.1549,
      "velocity": 127,
      "chip": "ym2612"
    },
    {
      "channel": 1,
      "note": 24,
      "start": 5.2285,
      "duration": 0.2881,
      "velocity": 127,
      "chip": "ym2612"
    },
    {
      "channel": 3,
      "note": 67,
      "start": 5.2293,
      "duration": 0.0043,
      "velocity": 127,
      "chip": "ym2612"
    },
    {
      "channel": 3,
      "note": 62,
      "start": 5.2338,
      "duration": 0.2837,
      "velocity": 127,
      "chip": "ym2612"
    },
    {
      "channel": 2,
      "note": 24,
      "start": 5.3836,
      "duration": 0.4165,
      "velocity": 127,
      "chip": "ym2612"
    },
    {
      "channel": 1,
      "note": 24,
      "start": 5.5169,
      "duration": 0.31,
      "velocity": 127,
      "chip": "ym2612"
    },
    {
      "channel": 3,
      "note": 67,
      "start": 5.5177,
      "duration": 0.2832,
      "velocity": 127,
      "chip": "ym2612"
    },
    {
      "channel": 2,
      "note": 24,
      "start": 5.8003,
      "duration": 0.0284,
      "velocity": 127,
      "chip": "ym2612"
    },
    {
      "channel": 3,
      "note": 62,
      "start": 5.801,
      "duration": 0.0043,
      "velocity": 127,
      "chip": "ym2612"
    },
    {
      "channel": 3,
      "note": 62,
      "start": 5.8055,
      "duration": 0.0222,
      "velocity": 127,
      "chip": "ym2612"
    },
    {
      "channel": 1,
      "note": 24,
      "start": 5.8271,
      "duration": 0.0025,
      "velocity": 127,
      "chip": "ym2612"
    },
    {
      "channel": 3,
      "note": 62,
      "start": 5.8279,
      "duration": 0.0013,
      "velocity": 127,
      "chip": "ym2612"
    },
    {
      "channel": 2,
      "note": 24,
      "start": 5.8289,
      "duration": 0.1275,
      "velocity": 127,
      "chip": "ym2612"
    },
    {
      "channel": 3,
      "note": 62,
      "start": 5.8294,
      "duration": 0.0007,
      "velocity": 127,
      "chip": "ym2612"
    },
    {
      "channel": 1,
      "note": 24,
      "start": 5.8298,
      "duration": 0.1542,
      "velocity": 127,
      "chip": "ym2612"
    },
    {
      "channel": 3,
      "note": 67,
      "start": 5.8303,
      "duration": 0.148,
      "velocity": 127,
      "chip": "ym2612"
    },
    {
      "channel": 2,
      "note": 24,
      "start": 5.9567,
      "duration": 0.3099,
      "velocity": 127,
      "chip": "ym2612"
    },
    {
      "channel": 3,
      "note": 67,
      "start": 5.9786,
      "duration": 0.0061,
      "velocity": 127,
      "chip": "ym2612"
    },
    {
      "channel": 0,
      "note": 79,
      "start": 5.9835,
      "duration": 2.7503,
      "velocity": 113,
      "chip": "ym2612"
    },
    {
      "channel": 1,
      "note": 24,
      "start": 5.9842,
      "duration": 0.5657,
      "velocity": 127,
      "chip": "ym2612"
    },
    {
      "channel": 3,
      "note": 62,
      "start": 5.9849,
      "duration": 0.2824,
      "velocity": 127,
      "chip": "ym2612"
    },
    {
      "channel": 2,
      "note": 24,
      "start": 6.2669,
      "duration": 0.3099,
      "velocity": 127,
      "chip": "ym2612"
    },
    {
      "channel": 3,
      "note": 67,
      "start": 6.2676,
      "duration": 0.2832,
      "velocity": 127,
      "chip": "ym2612"
    },
    {
      "channel": 1,
      "note": 24,
      "start": 6.5502,
      "duration": 0.1598,
      "velocity": 127,
      "chip": "ym2612"
    },
    {
      "channel": 3,
      "note": 62,
      "start": 6.5509,
      "duration": 0.0042,
      "velocity": 127,
      "chip": "ym2612"
    },
    {
      "channel": 3,
      "note": 62,
      "start": 6.5554,
      "duration": 0.0221,
      "velocity": 127,
      "chip": "ym2612"
    },
    {
      "channel": 2,
      "note": 24,
      "start": 6.577,
      "duration": 0.4164,
      "velocity": 127,
      "chip": "ym2612"
    },
    {
      "channel": 3,
      "note": 62,
      "start": 6.5777,
      "duration": 0.2659,
      "velocity": 127,
      "chip": "ym2612"
    },
    {
      "channel": 1,
      "note": 24,
      "start": 6.7103,
      "duration": 0.4381,
      "velocity": 127,
      "chip": "ym2612"
    },
    {
      "channel": 3,
      "note": 62,
      "start": 6.8437,
      "duration": 0.1504,
      "velocity": 127,
      "chip": "ym2612"
    },
    {
      "channel": 2,
      "note": 24,
      "start": 6.9937,
      "duration": 0.2932,
      "velocity": 127,
      "chip": "ym2612"
    },
    {
      "channel": 3,
      "note": 67,
      "start": 6.9944,
      "duration": 0.1549,
      "velocity": 127,
      "chip": "ym2612"
    },
    {
      "channel": 1,
      "note": 24,
      "start": 7.1487,
      "duration": 0.4215,
      "velocity": 127,
      "chip": "ym2612"
    },
    {
      "channel": 3,
      "note": 67,
      "start": 7.1494,
      "duration": 0.0042,
      "velocity": 127,
      "chip": "ym2612"
    },
    {
      "channel": 3,
      "note": 62,
      "start": 7.1539,
      "duration": 0.2831,
      "velocity": 127,
      "chip": "ym2612"
    },
    {
      "channel": 2,
      "note": 24,
      "start": 7.2871,
      "duration": 0.4332,
      "velocity": 127,
      "chip": "ym2612"
    },
    {
      "channel": 3,
      "note": 67,
      "start": 7.4372,
      "duration": 0.2838,
      "velocity": 127,
      "chip": "ym2612"
    },
    {
      "channel": 1,
      "note": 24,
      "start": 7.5703,
      "duration": 0.1602,
      "velocity": 127,
      "chip": "ym2612"
    },
    {
      "channel": 2,
      "note": 24,
      "start": 7.7205,
      "duration": 0.0161,
      "velocity": 127,
      "chip": "ym2612"
    },
    {
      "channel": 3,
      "note": 62,
      "start": 7.7212,
      "duration": 0.0043,
      "velocity": 127,
      "chip": "ym2612"
    },
    {
      "channel": 3,
      "note": 62,
      "start": 7.7257,
      "duration": 0.0076,
      "velocity": 127,
      "chip": "ym2612"
    },
    {
      "channel": 1,
      "note": 24,
      "start": 7.7307,
      "duration": 0.0553,
      "velocity": 127,
      "chip": "ym2612"
    },
    {
      "channel": 3,
      "note": 55,
      "start": 7.7336,
      "duration": 0.0034,
      "velocity": 127,
      "chip": "ym2612"
    },
    {
      "channel": 2,
      "note": 24,
      "start": 7.7368,
      "duration": 0.1827,
      "velocity": 127,
      "chip": "ym2612"
    },
    {
      "channel": 3,
      "note": 62,
      "start": 7.7372,
      "duration": 0.0496,
      "velocity": 127,
      "chip": "ym2612"
    },
    {
      "channel": 1,
      "note": 24,
      "start": 7.7862,
      "duration": 0.16,
      "velocity": 127,
      "chip": "ym2612"
    },
    {
      "channel": 3,
      "note": 67,
      "start": 7.787,
      "duration": 0.1376,
      "velocity": 127,
      "chip": "ym2612"
    },
    {
      "channel": 2,
      "note": 24,
      "start": 7.9197,
      "duration": 0.0283,
      "velocity": 127,
      "chip": "ym2612"
    },
    {
      "channel": 3,
      "note": 67,
      "start": 7.9249,
      "duration": 0.0222,
      "velocity": 127,
      "chip": "ym2612"
    },
    {
      "channel": 1,
      "note": 24,
      "start": 7.9465,
      "duration": 0.0026,
      "velocity": 127,
      "chip": "ym2612"
    },
    {
      "channel": 3,
      "note": 62,
      "start": 7.9473,
      "duration": 0.0013,
      "velocity": 127,
      "chip": "ym2612"
    },
    {
      "channel": 2,
      "note": 24,
      "start": 7.9483,
      "duration": 0.0224,
      "velocity": 127,
      "chip": "ym2612"
    },
    {
      "channel": 3,
      "note": 67,
      "start": 7.9488,
      "duration": 0.0014,
      "velocity": 127,
      "chip": "ym2612"
    },
    {
      "channel": 1,
      "note": 24,
      "start": 7.9494,
      "duration": 0.1763,
      "velocity": 127,
      "chip": "ym2612"
    },
    {
      "channel": 3,
      "note": 62,
      "start": 7.9505,
      "duration": 0.0209,
      "velocity": 127,
      "chip": "ym2612"
    },
    {
      "channel": 2,
      "note": 24,
      "start": 7.971,
      "duration": 0.4214,
      "velocity": 127,
      "chip": "ym2612"
    },
    {
      "channel": 3,
      "note": 62,
      "start": 7.9717,
      "duration": 0.0042,
      "velocity": 127,
      "chip": "ym2612"
    },
    {
      "channel": 3,
      "note": 62,
      "start": 7.9761,
      "duration": 0.2831,
      "velocity": 127,
      "chip": "ym2612"
    },
    {
      "channel": 1,
      "note": 24,
      "start": 8.1259,
      "duration": 0.4216,
      "velocity": 127,
      "chip": "ym2612"
    },
    {
      "channel": 3,
      "note": 62,
      "start": 8.2594,
      "duration": 0.1337,
      "velocity": 127,
      "chip": "ym2612"
    },
    {
      "channel": 2,
      "note": 24,
      "start": 8.3926,
      "duration": 0.1569,
      "velocity": 127,
      "chip": "ym2612"
    },
    {
      "channel": 3,
      "note": 67,
      "start": 8.3933,
      "duration": 0.1549,
      "velocity": 127,
      "chip": "ym2612"
    },
    {
      "channel": 1,
      "note": 24,
      "start": 8.5477,
      "duration": 0.0023,
      "velocity": 127,
      "chip": "ym2612"
    },
    {
      "channel": 3,
      "note": 67,
      "start": 8.5484,
      "duration": 0.0008,
      "velocity": 127,
      "chip": "ym2612"
    },
    {
      "channel": 3,
      "note": 62,
      "start": 8.5494,
      "duration": 0.0017,
      "velocity": 127,
      "chip": "ym2612"
    },
    {
      "channel": 2,
      "note": 24,
      "start": 8.5497,
      "duration": 0.0026,
      "velocity": 127,
      "chip": "ym2612"
    },
    {
      "channel": 1,
      "note": 24,
      "start": 8.5502,
      "duration": 0.0276,
      "velocity": 127,
      "chip": "ym2612"
    },
    {
      "channel": 3,
      "note": 67,
      "start": 8.5514,
      "duration": 0.0014,
      "velocity": 127,
      "chip": "ym2612"
    },
    {
      "channel": 2,
      "note": 24,
      "start": 8.5525,
      "duration": 0.0271,
      "velocity": 127,
      "chip": "ym2612"
    },
    {
      "channel": 3,
      "note": 62,
      "start": 8.553,
      "duration": 0.0199,
      "velocity": 127,
      "chip": "ym2612"
    },
    {
      "channel": 3,
      "note": 62,
      "start": 8.5732,
      "duration": 0.0054,
      "velocity": 127,
      "chip": "ym2612"
    },
    {
      "channel": 1,
      "note": 24,
      "start": 8.578,
      "duration": 0.0023,
      "velocity": 127,
      "chip": "ym2612"
    },
    {
      "channel": 3,
      "note": 62,
      "start": 8.5788,
      "duration": 0.0013,
      "velocity": 127,
      "chip": "ym2612"
    },
    {
      "channel": 2,
      "note": 24,
      "start": 8.5798,
      "duration": 0.144,
      "velocity": 127,
      "chip": "ym2612"
    },
    {
      "channel": 3,
      "note": 62,
      "start": 8.5802,
      "duration": 0.0005,
      "velocity": 127,
      "chip": "ym2612"
    },
    {
      "channel": 1,
      "note": 24,
      "start": 8.5805,
      "duration": 0.1539,
      "velocity": 127,
      "chip": "ym2612"
    },
    {
      "channel": 3,
      "note": 67,
      "start": 8.581,
      "duration": 0.1478,
      "velocity": 127,
      "chip": "ym2612"
    },
    {
      "channel": 2,
      "note": 24,
      "start": 8.724,
      "duration": 0.0121,
      "velocity": 127,
      "chip": "ym2612"
    },
    {
      "channel": 3,
      "note": 67,
      "start": 8.7291,
      "duration": 0.0061,
      "velocity": 127,
      "chip": "ym2612"
    },
    {
      "channel": 0,
      "note": 79,
      "start": 8.734,
      "duration": 1.6183,
      "velocity": 113,
      "chip": "ym2612"
    },
    {
      "channel": 1,
      "note": 24,
      "start": 8.7347,
      "duration": 0.0024,
      "velocity": 127,
      "chip": "ym2612"
    },
    {
      "channel": 3,
      "note": 62,
      "start": 8.7354,
      "duration": 0.0011,
      "velocity": 127,
      "chip": "ym2612"
    },
    {
      "channel": 2,
      "note": 24,
      "start": 8.7364,
      "duration": 0.027,
      "velocity": 127,
      "chip": "ym2612"
    },
    {
      "channel": 3,
      "note": 67,
      "start": 8.7368,
      "duration": 0.001,
      "velocity": 127,
      "chip": "ym2612"
    },
    {
      "channel": 1,
      "note": 24,
      "start": 8.7373,
      "duration": 0.1593,
      "velocity": 127,
      "chip": "ym2612"
    },
    {
      "channel": 3,
      "note": 62,
      "start": 8.7381,
      "duration": 0.0035,
      "velocity": 127,
      "chip": "ym2612"
    },
    {
      "channel": 3,
      "note": 62,
      "start": 8.7419,
      "duration": 0.0222,
      "velocity": 127,
      "chip": "ym2612"
    },
    {
      "channel": 2,
      "note": 24,
      "start": 8.7636,
      "duration": 0.4164,
      "velocity": 127,
      "chip": "ym2612"
    },
    {
      "channel": 3,
      "note": 62,
      "start": 8.7643,
      "duration": 0.2825,
      "velocity": 127,
      "chip": "ym2612"
    },
    {
      "channel": 1,
      "note": 24,
      "start": 8.8969,
      "duration": 0.4382,
      "velocity": 127,
      "chip": "ym2612"
    },
    {
      "channel": 3,
      "note": 62,
      "start": 9.047,
      "duration": 0.1337,
      "velocity": 127,
      "chip": "ym2612"
    },
    {
      "channel": 2,
      "note": 24,
      "start": 9.1802,
      "duration": 0.1571,
      "velocity": 127,
      "chip": "ym2612"
    },
    {
      "channel": 3,
      "note": 67,
      "start": 9.181,
      "duration": 0.155,
      "velocity": 127,
      "chip": "ym2612"
    },
    {
      "channel": 1,
      "note": 24,
      "start": 9.3354,
      "duration": 0.0037,
      "velocity": 127,
      "chip": "ym2612"
    },
    {
      "channel": 3,
      "note": 67,
      "start": 9.3361,
      "duration": 0.0008,
      "velocity": 127,
      "chip": "ym2612"
    },
    {
      "channel": 3,
      "note": 62,
      "start": 9.3371,
      "duration": 0.0007,
      "velocity": 127,
      "chip": "ym2612"
    },
    {
      "channel": 2,
      "note": 24,
      "start": 9.3375,
      "duration": 0.002,
      "velocity": 127,
      "chip": "ym2612"
    },
    {
      "channel": 3,
      "note": 67,
      "start": 9.3382,
      "duration": 0.0019,
      "velocity": 127,
      "chip": "ym2612"
    },
    {
      "channel": 1,
      "note": 24,
      "start": 9.3393,
      "duration": 0.0264,
      "velocity": 127,
      "chip": "ym2612"
    },
    {
      "channel": 2,
      "note": 24,
      "start": 9.3397,
      "duration": 0.032,
      "velocity": 127,
      "chip": "ym2612"
    },
    {
      "channel": 3,
      "note": 62,
      "start": 9.3404,
      "duration": 0.0036,
      "velocity": 127,
      "chip": "ym2612"
    },
    {
      "channel": 3,
      "note": 62,
      "start": 9.3442,
      "duration": 0.0243,
      "velocity": 127,
      "chip": "ym2612"
    },
    {
      "channel": 1,
      "note": 24,
      "start": 9.3659,
      "duration": 0.0387,
      "velocity": 127,
      "chip": "ym2612"
    },
    {
      "channel": 3,
      "note": 55,
      "start": 9.3687,
      "duration": 0.0034,
      "velocity": 127,
      "chip": "ym2612"
    },
    {
      "channel": 2,
      "note": 24,
      "start": 9.372,
      "duration": 0.166,
      "velocity": 127,
      "chip": "ym2612"
    },
    {
      "channel": 3,
      "note": 62,
      "start": 9.3724,
      "duration": 0.0329,
      "velocity": 127,
      "chip": "ym2612"
    },
    {
      "channel": 1,
      "note": 24,
      "start": 9.4047,
      "duration": 0.16,
      "velocity": 127,
      "chip": "ym2612"
    },
    {
      "channel": 3,
      "note": 67,
      "start": 9.4056,
      "duration": 0.1543,
      "velocity": 127,
      "chip": "ym2612"
    },
    {
      "channel": 2,
      "note": 24,
      "start": 9.5383,
      "duration": 0.0282,
      "velocity": 127,
      "chip": "ym2612"
    },
    {
      "channel": 3,
      "note": 67,
      "start": 9.5601,
      "duration": 0.0054,
      "velocity": 127,
      "chip": "ym2612"
    },
    {
      "channel": 1,
      "note": 24,
      "start": 9.565,
      "duration": 0.0026,
      "velocity": 127,
      "chip": "ym2612"
    },
    {
      "channel": 3,
      "note": 62,
      "start": 9.5657,
      "duration": 0.0013,
      "velocity": 127,
      "chip": "ym2612"
    },
    {
      "channel": 2,
      "note": 24,
      "start": 9.5668,
      "duration": 0.0057,
      "velocity": 127,
      "chip": "ym2612"
    },
    {
      "channel": 3,
      "note": 67,
      "start": 9.5673,
      "duration": 0.0015,
      "velocity": 127,
      "chip": "ym2612"
    },
    {
      "channel": 1,
      "note": 24,
      "start": 9.5679,
      "duration": 0.1595,
      "velocity": 127,
      "chip": "ym2612"
    },
    {
      "channel": 3,
      "note": 62,
      "start": 9.5691,
      "duration": 0.0041,
      "velocity": 127,
      "chip": "ym2612"
    },
    {
      "channel": 2,
      "note": 24,
      "start": 9.5728,
      "duration": 0.4381,
      "velocity": 127,
      "chip": "ym2612"
    },
    {
      "channel": 3,
      "note": 62,
      "start": 9.5735,
      "duration": 0.0042,
      "velocity": 127,
      "chip": "ym2612"
    },
    {
      "channel": 3,
      "note": 62,
      "start": 9.5779,
      "duration": 0.2831,
      "velocity": 127,
      "chip": "ym2612"
    },
    {
      "channel": 1,
      "note": 24,
      "start": 9.7277,
      "duration": 0.4216,
      "velocity": 127,
      "chip": "ym2612"
    },
    {
      "channel": 3,
      "note": 62,
      "start": 9.8612,
      "duration": 0.1504,
      "velocity": 127,
      "chip": "ym2612"
    },
    {
      "channel": 2,
      "note": 24,
      "start": 10.0111,
      "duration": 0.1403,
      "velocity": 127,
      "chip": "ym2612"
    },
    {
      "channel": 3,
      "note": 67,
      "start": 10.0118,
      "duration": 0.1382,
      "velocity": 127,
      "chip": "ym2612"
    },
    {
      "channel": 1,
      "note": 24,
      "start": 10.1495,
      "duration": 0.0023,
      "velocity": 127,
      "chip": "ym2612"
    },
    {
      "channel": 3,
      "note": 67,
      "start": 10.1502,
      "duration": 0.0008,
      "velocity": 127,
      "chip": "ym2612"
    },
    {
      "channel": 3,
      "note": 62,
      "start": 10.1512,
      "duration": 0.0016,
      "velocity": 127,
      "chip": "ym2612"
    },
    {
      "channel": 2,
      "note": 24,
      "start": 10.1515,
      "duration": 0.0025,
      "velocity": 127,
      "chip": "ym2612"
    },
    {
      "channel": 1,
      "note": 24,
      "start": 10.152,
      "duration": 0.0276,
      "velocity": 127,
      "chip": "ym2612"
    },
    {
      "channel": 3,
      "note": 67,
      "start": 10.1532,
      "duration": 0.0014,
      "velocity": 127,
      "chip": "ym2612"
    },
    {
      "channel": 2,
      "note": 24,
      "start": 10.1543,
      "duration": 0.027,
      "velocity": 127,
      "chip": "ym2612"
    },
    {
      "channel": 3,
      "note": 62,
      "start": 10.1548,
      "duration": 0.0199,
      "velocity": 127,
      "chip": "ym2612"
    },
    {
      "channel": 3,
      "note": 62,
      "start": 10.1749,
      "duration": 0.0054,
      "velocity": 127,
      "chip": "ym2612"
    },
    {
      "channel": 1,
      "note": 24,
      "start": 10.1798,
      "duration": 0.0023,
      "velocity": 127,
      "chip": "ym2612"
    },
    {
      "channel": 3,
      "note": 62,
      "start": 10.1805,
      "duration": 0.0012,
      "velocity": 127,
      "chip": "ym2612"
    },
    {
      "channel": 2,
      "note": 24,
      "start": 10.1815,
      "duration": 0.144,
      "velocity": 127,
      "chip": "ym2612"
    },
    {
      "channel": 3,
      "note": 62,
      "start": 10.182,
      "duration": 0.0005,
      "velocity": 127,
      "chip": "ym2612"
    },
    {
      "channel": 1,
      "note": 24,
      "start": 10.1823,
      "duration": 0.1707,
      "velocity": 127,
      "chip": "ym2612"
    },
    {
      "channel": 3,
      "note": 67,
      "start": 10.1827,
      "duration": 0.1479,
      "velocity": 127,
      "chip": "ym2612"
    },
    {
      "channel": 2,
      "note": 24,
      "start": 10.3257,
      "duration": 0.0289,
      "velocity": 127,
      "chip": "ym2612"
    },
    {
      "channel": 3,
      "note": 67,
      "start": 10.3309,
      "duration": 0.0228,
      "velocity": 127,
      "chip": "ym2612"
    },
    {
      "channel": 0,
      "note": 79,
      "start": 10.3524,
      "duration": 0.6334,
      "velocity": 119,
      "chip": "ym2612"
    },
    {
      "channel": 1,
      "note": 24,
      "start": 10.3531,
      "duration": 0.0026,
      "velocity": 127,
      "chip": "ym2612"
    },
    {
      "channel": 3,
      "note": 62,
      "start": 10.354,
      "duration": 0.0012,
      "velocity": 127,
      "chip": "ym2612"
    },
    {
      "channel": 2,
      "note": 24,
      "start": 10.3549,
      "duration": 0.0271,
      "velocity": 127,
      "chip": "ym2612"
    },
    {
      "channel": 3,
      "note": 67,
      "start": 10.3554,
      "duration": 0.0011,
      "velocity": 127,
      "chip": "ym2612"
    },
    {
      "channel": 1,
      "note": 24,
      "start": 10.3559,
      "duration": 0.1593,
      "velocity": 127,
      "chip": "ym2612"
    },
    {
      "channel": 3,
      "note": 62,
      "start": 10.3568,
      "duration": 0.0202,
      "velocity": 127,
      "chip": "ym2612"
    },
    {
      "channel": 3,
      "note": 62,
      "start": 10.3772,
      "duration": 0.0054,
      "velocity": 127,
      "chip": "ym2612"
    },
    {
      "channel": 2,
      "note": 24,
      "start": 10.3822,
      "duration": 0.4164,
      "velocity": 127,
      "chip": "ym2612"
    },
    {
      "channel": 3,
      "note": 62,
      "start": 10.3829,
      "duration": 0.2825,
      "velocity": 127,
      "chip": "ym2612"
    },
    {
      "channel": 1,
      "note": 24,
      "start": 10.5154,
      "duration": 0.4382,
      "velocity": 127,
      "chip": "ym2612"
    },
    {
      "channel": 3,
      "note": 62,
      "start": 10.6656,
      "duration": 0.1337,
      "velocity": 127,
      "chip": "ym2612"
    },
    {
      "channel": 2,
      "note": 24,
      "start": 10.7988,
      "duration": 0.1569,
      "velocity": 127,
      "chip": "ym2612"
    },
    {
      "channel": 3,
      "note": 67,
      "start": 10.7995,
      "duration": 0.1549,
      "velocity": 127,
      "chip": "ym2612"
    },
    {
      "channel": 1,
      "note": 24,
      "start": 10.9539,
      "duration": 0.0037,
      "velocity": 127,
      "chip": "ym2612"
    },
    {
      "channel": 3,
      "note": 67,
      "start": 10.9546,
      "duration": 0.0008,
      "velocity": 127,
      "chip": "ym2612"
    },
    {
      "channel": 3,
      "note": 62,
      "start": 10.9556,
      "duration": 0.0007,
      "velocity": 127,
      "chip": "ym2612"
    },
    {
      "channel": 2,
      "note": 24,
      "start": 10.9559,
      "duration": 0.002,
      "velocity": 127,
      "chip": "ym2612"
    },
    {
      "channel": 3,
      "note": 67,
      "start": 10.9566,
      "duration": 0.0018,
      "velocity": 127,
      "chip": "ym2612"
    },
    {
      "channel": 1,
      "note": 24,
      "start": 10.9578,
      "duration": 0.0288,
      "velocity": 127,
      "chip": "ym2612"
    },
    {
      "channel": 2,
      "note": 24,
      "start": 10.9582,
      "duration": 0.0348,
      "velocity": 127,
      "chip": "ym2612"
    },
    {
      "channel": 3,
      "note": 62,
      "start": 10.9588,
      "duration": 0.0035,
      "velocity": 127,
      "chip": "ym2612"
    },
    {
      "channel": 3,
      "note": 62,
      "start": 10.9625,
      "duration": 0.0269,
      "velocity": 127,
      "chip": "ym2612"
    },
    {
      "channel": 0,
      "note": 45,
      "start": 10.986,
      "duration": 0.0043,
      "velocity": 119,
      "chip": "ym2612"
    },
    {
      "channel": 1,
      "note": 24,
      "start": 10.9868,
      "duration": 0.0366,
      "velocity": 127,
      "chip": "ym2612"
    },
    {
      "channel": 3,
      "note": 55,
      "start": 10.9896,
      "duration": 0.0037,
      "velocity": 127,
      "chip": "ym2612"
    },
    {
      "channel": 0,
      "note": 45,
      "start": 10.9905,
      "duration": 0.0322,
      "velocity": 119,
      "chip": "ym2612"
    },
    {
      "channel": 2,
      "note": 24,
      "start": 10.9931,
      "duration": 0.1632,
      "velocity": 127,
      "chip": "ym2612"
    },
    {
      "channel": 3,
      "note": 62,
      "start": 10.9935,
      "duration": 0.0307,
      "velocity": 127,
      "chip": "ym2612"
    },
    {
      "channel": 0,
      "note": 45,
      "start": 11.023,
      "duration": 0.1343,
      "velocity": 119,
      "chip": "ym2612"
    },
    {
      "channel": 1,
      "note": 24,
      "start": 11.0237,
      "duration": 0.1346,
      "velocity": 127,
      "chip": "ym2612"
    },
    {
      "channel": 3,
      "note": 67,
      "start": 11.0244,
      "duration": 0.1333,
      "velocity": 127,
      "chip": "ym2612"
    },
    {
      "channel": 2,
      "note": 24,
      "start": 11.1565,
      "duration": 0.1897,
      "velocity": 127,
      "chip": "ym2612"
    },
    {
      "channel": 0,
      "note": 45,
      "start": 11.1575,
      "duration": 0.0553,
      "velocity": 119,
      "chip": "ym2612"
    },
    {
      "channel": 3,
      "note": 67,
      "start": 11.1578,
      "duration": 0.0007,
      "velocity": 127,
      "chip": "ym2612"
    },
    {
      "channel": 1,
      "note": 24,
      "start": 11.1585,
      "duration": 0.3778,
      "velocity": 127,
      "chip": "ym2612"
    },
    {
      "channel": 3,
      "note": 62,
      "start": 11.1589,
      "duration": 0.188,
      "velocity": 127,
      "chip": "ym2612"
    },
    {
      "channel": 0,
      "note": 45,
      "start": 11.2129,
      "duration": 0.1726,
      "velocity": 119,
      "chip": "ym2612"
    },
    {
      "channel": 2,
      "note": 24,
      "start": 11.3465,
      "duration": 0.1918,
      "velocity": 127,
      "chip": "ym2612"
    },
    {
      "channel": 3,
      "note": 67,
      "start": 11.3472,
      "duration": 0.1898,
      "velocity": 127,
      "chip": "ym2612"
    },
    {
      "channel": 0,
      "note": 45,
      "start": 11.3857,
      "duration": 0.1498,
      "velocity": 119,
      "chip": "ym2612"
    },
    {
      "channel": 0,
      "note": 43,
      "start": 11.5357,
      "duration": 0.0022,
      "velocity": 119,
      "chip": "ym2612"
    },
    {
      "channel": 1,
      "note": 24,
      "start": 11.5364,
      "duration": 0.0423,
      "velocity": 127,
      "chip": "ym2612"
    },
    {
      "channel": 3,
      "note": 62,
      "start": 11.5372,
      "duration": 0.0015,
      "velocity": 127,
      "chip": "ym2612"
    },
    {
      "channel": 0,
      "note": 43,
      "start": 11.5381,
      "duration": 0.0019,
      "velocity": 119,
      "chip": "ym2612"
    },
    {
      "channel": 2,
      "note": 24,
      "start": 11.5384,
      "duration": 0.3237,
      "velocity": 127,
      "chip": "ym2612"
    },
    {
      "channel": 3,
      "note": 62,
      "start": 11.539,
      "duration": 0.0015,
      "velocity": 127,
      "chip": "ym2612"
    },
    {
      "channel": 0,
      "note": 45,
      "start": 11.5402,
      "duration": 0.0379,
      "velocity": 119,
      "chip": "ym2612"
    },
    {
      "channel": 3,
      "note": 62,
      "start": 11.5408,
      "duration": 0.1708,
      "velocity": 127,
      "chip": "ym2612"
    },
    {
      "channel": 0,
      "note": 45,
      "start": 11.5783,
      "duration": 0.2831,
      "velocity": 119,
      "chip": "ym2612"
    },
    {
      "channel": 1,
      "note": 24,
      "start": 11.579,
      "duration": 0.4168,
      "velocity": 127,
      "chip": "ym2612"
    },
    {
      "channel": 3,
      "note": 62,
      "start": 11.7118,
      "duration": 0.151,
      "velocity": 127,
      "chip": "ym2612"
    },
    {
      "channel": 0,
      "note": 45,
      "start": 11.8615,
      "duration": 0.1338,
      "velocity": 119,
      "chip": "ym2612"
    },
    {
      "channel": 2,
      "note": 24,
      "start": 11.8623,
      "duration": 0.173,
      "velocity": 127,
      "chip": "ym2612"
    },
    {
      "channel": 3,
      "note": 67,
      "start": 11.863,
      "duration": 0.1329,
      "velocity": 127,
      "chip": "ym2612"
    },
    {
      "channel": 0,
      "note": 45,
      "start": 11.9955,
      "duration": 0.039,
      "velocity": 119,
      "chip": "ym2612"
    },
    {
      "channel": 1,
      "note": 24,
      "start": 11.9959,
      "duration": 0.1888,
      "velocity": 127,
      "chip": "ym2612"
    },
    {
      "channel": 3,
      "note": 67,
      "start": 11.9961,
      "duration": 0.0004,
      "velocity": 127,
      "chip": "ym2612"
    },
    {
      "channel": 3,
      "note": 62,
      "start": 11.9967,
      "duration": 0.1887,
      "velocity": 127,
      "chip": "ym2612"
    },
    {
      "channel": 0,
      "note": 45,
      "start": 12.0347,
      "duration": 0.1893,
      "velocity": 119,
      "chip": "ym2612"
    },
    {
      "channel": 2,
      "note": 24,
      "start": 12.0355,
      "duration": 0.3393,
      "velocity": 127,
      "chip": "ym2612"
    },
    {
      "channel": 1,
      "note": 24,
      "start": 12.1849,
      "duration": 0.1941,
      "velocity": 127,
      "chip": "ym2612"
    },
    {
      "channel": 3,
      "note": 67,
      "start": 12.1856,
      "duration": 0.1899,
      "velocity": 127,
      "chip": "ym2612"
    },
    {
      "channel": 0,
      "note": 45,
      "start": 12.2242,
      "duration": 0.1498,
      "velocity": 119,
      "chip": "ym2612"
    },
    {
      "channel": 0,
      "note": 43,
      "start": 12.3742,
      "duration": 0.0022,
      "velocity": 119,
      "chip": "ym2612"
    },
    {
      "channel": 2,
      "note": 24,
      "start": 12.375,
      "duration": 0.0055,
      "velocity": 127,
      "chip": "ym2612"
    },
    {
      "channel": 3,
      "note": 62,
      "start": 12.3757,
      "duration": 0.0017,
      "velocity": 127,
      "chip": "ym2612"
    },
    {
      "channel": 0,
      "note": 43,
      "start": 12.3766,
      "duration": 0.002,
      "velocity": 119,
      "chip": "ym2612"
    },
    {
      "channel": 3,
      "note": 62,
      "start": 12.3777,
      "duration": 0.0016,
      "velocity": 127,
      "chip": "ym2612"
    },
    {
      "channel": 0,
      "note": 45,
      "start": 12.3788,
      "duration": 0.0012,
      "velocity": 119,
      "chip": "ym2612"
    },
    {
      "channel": 1,
      "note": 24,
      "start": 12.3791,
      "duration": 0.0098,
      "velocity": 127,
      "chip": "ym2612"
    },
    {
      "channel": 3,
      "note": 62,
      "start": 12.3795,
      "duration": 0.0015,
      "velocity": 127,
      "chip": "ym2612"
    },
    {
      "channel": 0,
      "note": 45,
      "start": 12.3802,
      "duration": 0.008,
      "velocity": 119,
      "chip": "ym2612"
    },
    {
      "channel": 2,
      "note": 24,
      "start": 12.3807,
      "duration": 0.1411,
      "velocity": 127,
      "chip": "ym2612"
    },
    {
      "channel": 3,
      "note": 62,
      "start": 12.3811,
      "duration": 0.0087,
      "velocity": 127,
      "chip": "ym2612"
    },
    {
      "channel": 0,
      "note": 45,
      "start": 12.3885,
      "duration": 0.1344,
      "velocity": 119,
      "chip": "ym2612"
    },
    {
      "channel": 1,
      "note": 24,
      "start": 12.3892,
      "duration": 0.1356,
      "velocity": 127,
      "chip": "ym2612"
    },
    {
      "channel": 3,
      "note": 67,
      "start": 12.39,
      "duration": 0.1336,
      "velocity": 127,
      "chip": "ym2612"
    },
    {
      "channel": 2,
      "note": 24,
      "start": 12.522,
      "duration": 0.1905,
      "velocity": 127,
      "chip": "ym2612"
    },
    {
      "channel": 0,
      "note": 45,
      "start": 12.523,
      "duration": 0.0394,
      "velocity": 119,
      "chip": "ym2612"
    },
    {
      "channel": 3,
      "note": 67,
      "start": 12.5239,
      "duration": 0.0012,
      "velocity": 127,
      "chip": "ym2612"
    },
    {
      "channel": 1,
      "note": 24,
      "start": 12.5249,
      "duration": 0.361,
      "velocity": 127,
      "chip": "ym2612"
    },
    {
      "channel": 3,
      "note": 62,
      "start": 12.5252,
      "duration": 0.188,
      "velocity": 127,
      "chip": "ym2612"
    },
    {
      "channel": 0,
      "note": 45,
      "start": 12.5626,
      "duration": 0.1893,
      "velocity": 119,
      "chip": "ym2612"
    },
    {
      "channel": 2,
      "note": 24,
      "start": 12.7127,
      "duration": 0.1773,
      "velocity": 127,
      "chip": "ym2612"
    },
    {
      "channel": 3,
      "note": 67,
      "start": 12.7135,
      "duration": 0.1732,
      "velocity": 127,
      "chip": "ym2612"
    },
    {
      "channel": 0,
      "note": 45,
      "start": 12.7521,
      "duration": 0.1331,
      "velocity": 119,
      "chip": "ym2612"
    },
    {
      "channel": 0,
      "note": 43,
      "start": 12.8854,
      "duration": 0.0022,
      "velocity": 119,
      "chip": "ym2612"
    },
    {
      "channel": 1,
      "note": 24,
      "start": 12.8861,
      "duration": 0.0575,
      "velocity": 127,
      "chip": "ym2612"
    },
    {
      "channel": 3,
      "note": 62,
      "start": 12.8869,
      "duration": 0.0015,
      "velocity": 127,
      "chip": "ym2612"
    },
    {
      "channel": 0,
      "note": 43,
      "start": 12.8878,
      "duration": 0.0018,
      "velocity": 119,
      "chip": "ym2612"
    },
    {
      "channel": 3,
      "note": 62,
      "start": 12.8888,
      "duration": 0.0016,
      "velocity": 127,
      "chip": "ym2612"
    },
    {
      "channel": 0,
      "note": 45,
      "start": 12.8898,
      "duration": 0.0531,
      "velocity": 119,
      "chip": "ym2612"
    },
    {
      "channel": 2,
      "note": 24,
      "start": 12.8902,
      "duration": 0.3202,
      "velocity": 127,
      "chip": "ym2612"
    },
    {
      "channel": 3,
      "note": 62,
      "start": 12.8905,
      "duration": 0.1859,
      "velocity": 127,
      "chip": "ym2612"
    },
    {
      "channel": 0,
      "note": 45,
      "start": 12.9432,
      "duration": 0.2663,
      "velocity": 119,
      "chip": "ym2612"
    },
    {
      "channel": 1,
      "note": 24,
      "start": 12.9439,
      "duration": 0.4166,
      "velocity": 127,
      "chip": "ym2612"
    },
    {
      "channel": 3,
      "note": 62,
      "start": 13.0767,
      "duration": 0.1344,
      "velocity": 127,
      "chip": "ym2612"
    },
    {
      "channel": 0,
      "note": 45,
      "start": 13.2097,
      "duration": 0.1504,
      "velocity": 119,
      "chip": "ym2612"
    },
    {
      "channel": 2,
      "note": 24,
      "start": 13.2105,
      "duration": 0.1903,
      "velocity": 127,
      "chip": "ym2612"
    },
    {
      "channel": 3,
      "note": 67,
      "start": 13.2112,
      "duration": 0.1495,
      "velocity": 127,
      "chip": "ym2612"
    },
    {
      "channel": 0,
      "note": 45,
      "start": 13.3603,
      "duration": 0.0398,
      "velocity": 119,
      "chip": "ym2612"
    },
    {
      "channel": 1,
      "note": 24,
      "start": 13.3605,
      "duration": 0.2297,
      "velocity": 127,
      "chip": "ym2612"
    },
    {
      "channel": 3,
      "note": 67,
      "start": 13.3611,
      "duration": 0.001,
      "velocity": 127,
      "chip": "ym2612"
    },
    {
      "channel": 3,
      "note": 62,
      "start": 13.3623,
      "duration": 0.1714,
      "velocity": 127,
      "chip": "ym2612"
    },
    {
      "channel": 0,
      "note": 45,
      "start": 13.4003,
      "duration": 0.1893,
      "velocity": 119,
      "chip": "ym2612"
    },
    {
      "channel": 2,
      "note": 24,
      "start": 13.401,
      "duration": 0.3227,
      "velocity": 127,
      "chip": "ym2612"
    },
    {
      "channel": 3,
      "note": 67,
      "start": 13.5339,
      "duration": 0.1905,
      "velocity": 127,
      "chip": "ym2612"
    },
    {
      "channel": 0,
      "note": 45,
      "start": 13.5898,
      "duration": 0.1331,
      "velocity": 119,
      "chip": "ym2612"
    },
    {
      "channel": 1,
      "note": 24,
      "start": 13.5905,
      "duration": 0.1373,
      "velocity": 127,
      "chip": "ym2612"
    },
    {
      "channel": 0,
      "note": 43,
      "start": 13.7231,
      "duration": 0.0022,
      "velocity": 119,
      "chip": "ym2612"
    },
    {
      "channel": 2,
      "note": 24,
      "start": 13.7239,
      "duration": 0.0098,
      "velocity": 127,
      "chip": "ym2612"
    },
    {
      "channel": 3,
      "note": 62,
      "start": 13.7246,
      "duration": 0.0015,
      "velocity": 127,
      "chip": "ym2612"
    },
    {
      "channel": 0,
      "note": 43,
      "start": 13.7254,
      "duration": 0.002,
      "velocity": 119,
      "chip": "ym2612"
    },
    {
      "channel": 3,
      "note": 62,
      "start": 13.7265,
      "duration": 0.0032,
      "velocity": 127,
      "chip": "ym2612"
    },
    {
      "channel": 0,
      "note": 45,
      "start": 13.7276,
      "duration": 0.0034,
      "velocity": 119,
      "chip": "ym2612"
    },
    {
      "channel": 1,
      "note": 24,
      "start": 13.7279,
      "duration": 0.0351,
      "velocity": 127,
      "chip": "ym2612"
    },
    {
      "channel": 3,
      "note": 55,
      "start": 13.73,
      "duration": 0.0041,
      "velocity": 127,
      "chip": "ym2612"
    },
    {
      "channel": 0,
      "note": 45,
      "start": 13.7312,
      "duration": 0.0311,
      "velocity": 119,
      "chip": "ym2612"
    },
    {
      "channel": 2,
      "note": 24,
      "start": 13.7339,
      "duration": 0.1786,
      "velocity": 127,
      "chip": "ym2612"
    },
    {
      "channel": 3,
      "note": 62,
      "start": 13.7343,
      "duration": 0.0295,
      "velocity": 127,
      "chip": "ym2612"
    },
    {
      "channel": 0,
      "note": 45,
      "start": 13.7624,
      "duration": 0.1511,
      "velocity": 119,
      "chip": "ym2612"
    },
    {
      "channel": 1,
      "note": 24,
      "start": 13.7632,
      "duration": 0.1525,
      "velocity": 127,
      "chip": "ym2612"
    },
    {
      "channel": 3,
      "note": 67,
      "start": 13.764,
      "duration": 0.1503,
      "velocity": 127,
      "chip": "ym2612"
    },
    {
      "channel": 2,
      "note": 24,
      "start": 13.9127,
      "duration": 0.1908,
      "velocity": 127,
      "chip": "ym2612"
    },
    {
      "channel": 0,
      "note": 45,
      "start": 13.9137,
      "duration": 0.0564,
      "velocity": 119,
      "chip": "ym2612"
    },
    {
      "channel": 3,
      "note": 67,
      "start": 13.9147,
      "duration": 0.0012,
      "velocity": 127,
      "chip": "ym2612"
    },
    {
      "channel": 1,
      "note": 24,
      "start": 13.9158,
      "duration": 0.3778,
      "velocity": 127,
      "chip": "ym2612"
    },
    {
      "channel": 3,
      "note": 62,
      "start": 13.9162,
      "duration": 0.188,
      "velocity": 127,
      "chip": "ym2612"
    },
    {
      "channel": 0,
      "note": 45,
      "start": 13.9703,
      "duration": 0.1892,
      "velocity": 119,
      "chip": "ym2612"
    },
    {
      "channel": 2,
      "note": 24,
      "start": 14.1038,
      "duration": 0.1918,
      "velocity": 127,
      "chip": "ym2612"
    },
    {
      "channel": 3,
      "note": 67,
      "start": 14.1045,
      "duration": 0.1898,
      "velocity": 127,
      "chip": "ym2612"
    },
    {
      "channel": 0,
      "note": 45,
      "start": 14.1597,
      "duration": 0.1331,
      "velocity": 119,
      "chip": "ym2612"
    },
    {
      "channel": 0,
      "note": 43,
      "start": 14.293,
      "duration": 0.0022,
      "velocity": 119,
      "chip": "ym2612"
    },
    {
      "channel": 1,
      "note": 24,
      "start": 14.2937,
      "duration": 0.0423,
      "velocity": 127,
      "chip": "ym2612"
    },
    {
      "channel": 3,
      "note": 62,
      "start": 14.2945,
      "duration": 0.0015,
      "velocity": 127,
      "chip": "ym2612"
    },
    {
      "channel": 0,
      "note": 43,
      "start": 14.2954,
      "duration": 0.0019,
      "velocity": 119,
      "chip": "ym2612"
    },
    {
      "channel": 2,
      "note": 24,
      "start": 14.2958,
      "duration": 0.3237,
      "velocity": 127,
      "chip": "ym2612"
    },
    {
      "channel": 3,
      "note": 62,
      "start": 14.2964,
      "duration": 0.0015,
      "velocity": 127,
      "chip": "ym2612"
    },
    {
      "channel": 0,
      "note": 45,
      "start": 14.2975,
      "duration": 0.0379,
      "velocity": 119,
      "chip": "ym2612"
    },
    {
      "channel": 3,
      "note": 62,
      "start": 14.2981,
      "duration": 0.1874,
      "velocity": 127,
      "chip": "ym2612"
    },
    {
      "channel": 0,
      "note": 45,
      "start": 14.3356,
      "duration": 0.2831,
      "velocity": 119,
      "chip": "ym2612"
    },
    {
      "channel": 1,
      "note": 24,
      "start": 14.3363,
      "duration": 0.4167,
      "velocity": 127,
      "chip": "ym2612"
    },
    {
      "channel": 3,
      "note": 62,
      "start": 14.4858,
      "duration": 0.1344,
      "velocity": 127,
      "chip": "ym2612"
    },
    {
      "channel": 0,
      "note": 45,
      "start": 14.6188,
      "duration": 0.1337,
      "velocity": 119,
      "chip": "ym2612"
    },
    {
      "channel": 2,
      "note": 24,
      "start": 14.6197,
      "duration": 0.1896,
      "velocity": 127,
      "chip": "ym2612"
    },
    {
      "channel": 3,
      "note": 67,
      "start": 14.6204,
      "duration": 0.1329,
      "velocity": 127,
      "chip": "ym2612"
    },
    {
      "channel": 0,
      "note": 45,
      "start": 14.7527,
      "duration": 0.0558,
      "velocity": 119,
      "chip": "ym2612"
    },
    {
      "channel": 1,
      "note": 24,
      "start": 14.7532,
      "duration": 0.1888,
      "velocity": 127,
      "chip": "ym2612"
    },
    {
      "channel": 3,
      "note": 67,
      "start": 14.7535,
      "duration": 0.0005,
      "velocity": 127,
      "chip": "ym2612"
    },
    {
      "channel": 3,
      "note": 62,
      "start": 14.7541,
      "duration": 0.1886,
      "velocity": 127,
      "chip": "ym2612"
    },
    {
      "channel": 0,
      "note": 45,
      "start": 14.8087,
      "duration": 0.1726,
      "velocity": 119,
      "chip": "ym2612"
    },
    {
      "channel": 2,
      "note": 24,
      "start": 14.8095,
      "duration": 0.3226,
      "velocity": 127,
      "chip": "ym2612"
    },
    {
      "channel": 1,
      "note": 24,
      "start": 14.9422,
      "duration": 0.1942,
      "velocity": 127,
      "chip": "ym2612"
    },
    {
      "channel": 3,
      "note": 67,
      "start": 14.9429,
      "duration": 0.1899,
      "velocity": 127,
      "chip": "ym2612"
    },
    {
      "channel": 0,
      "note": 45,
      "start": 14.9815,
      "duration": 0.1498,
      "velocity": 119,
      "chip": "ym2612"
    },
    {
      "channel": 0,
      "note": 43,
      "start": 15.1315,
      "duration": 0.0022,
      "velocity": 119,
      "chip": "ym2612"
    },
    {
      "channel": 2,
      "note": 24,
      "start": 15.1323,
      "duration": 0.0065,
      "velocity": 127,
      "chip": "ym2612"
    },
    {
      "channel": 3,
      "note": 62,
      "start": 15.133,
      "duration": 0.0017,
      "velocity": 127,
      "chip": "ym2612"
    },
    {
      "channel": 0,
      "note": 43,
      "start": 15.1339,
      "duration": 0.0021,
      "velocity": 119,
      "chip": "ym2612"
    },
    {
      "channel": 3,
      "note": 62,
      "start": 15.1351,
      "duration": 0.002,
      "velocity": 127,
      "chip": "ym2612"
    },
    {
      "channel": 0,
      "note": 45,
      "start": 15.1362,
      "duration": 0.0022,
      "velocity": 119,
      "chip": "ym2612"
    },
    {
      "channel": 1,
      "note": 24,
      "start": 15.1365,
      "duration": 0.0038,
      "velocity": 127,
      "chip": "ym2612"
    },
    {
      "channel": 3,
      "note": 62,
      "start": 15.1375,
      "duration": 0.0019,
      "velocity": 127,
      "chip": "ym2612"
    },
    {
      "channel": 0,
      "note": 45,
      "start": 15.1386,
      "duration": 0.0012,
      "velocity": 119,
      "chip": "ym2612"
    },
    {
      "channel": 2,
      "note": 24,
      "start": 15.139,
      "duration": 0.1252,
      "velocity": 127,
      "chip": "ym2612"
    },
    {
      "channel": 3,
      "note": 62,
      "start": 15.1396,
      "duration": 0.0011,
      "velocity": 127,
      "chip": "ym2612"
    },
    {
      "channel": 0,
      "note": 45,
      "start": 15.1401,
      "duration": 0.1251,
      "velocity": 119,
      "chip": "ym2612"
    },
    {
      "channel": 1,
      "note": 24,
      "start": 15.1405,
      "duration": 0.1257,
      "velocity": 127,
      "chip": "ym2612"
    },
    {
      "channel": 3,
      "note": 67,
      "start": 15.141,
      "duration": 0.1246,
      "velocity": 127,
      "chip": "ym2612"
    },
    {
      "channel": 2,
      "note": 24,
      "start": 15.2644,
      "duration": 0.1897,
      "velocity": 127,
      "chip": "ym2612"
    },
    {
      "channel": 0,
      "note": 45,
      "start": 15.2654,
      "duration": 0.0385,
      "velocity": 119,
      "chip": "ym2612"
    },
    {
      "channel": 3,
      "note": 67,
      "start": 15.2657,
      "duration": 0.0008,
      "velocity": 127,
      "chip": "ym2612"
    },
    {
      "channel": 1,
      "note": 24,
      "start": 15.2664,
      "duration": 0.3776,
      "velocity": 127,
      "chip": "ym2612"
    },
    {
      "channel": 3,
      "note": 62,
      "start": 15.2668,
      "duration": 0.188,
      "velocity": 127,
      "chip": "ym2612"
    },
    {
      "channel": 0,
      "note": 45,
      "start": 15.3041,
      "duration": 0.1892,
      "velocity": 119,
      "chip": "ym2612"
    },
    {
      "channel": 2,
      "note": 24,
      "start": 15.4543,
      "duration": 0.194,
      "velocity": 127,
      "chip": "ym2612"
    },
    {
      "channel": 3,
      "note": 67,
      "start": 15.455,
      "duration": 0.1898,
      "velocity": 127,
      "chip": "ym2612"
    },
    {
      "channel": 0,
      "note": 45,
      "start": 15.4936,
      "duration": 0.1498,
      "velocity": 119,
      "chip": "ym2612"
    },
    {
      "channel": 0,
      "note": 43,
      "start": 15.6436,
      "duration": 0.0022,
      "velocity": 119,
      "chip": "ym2612"
    },
    {
      "channel": 1,
      "note": 24,
      "start": 15.6443,
      "duration": 0.0577,
      "velocity": 127,
      "chip": "ym2612"
    },
    {
      "channel": 3,
      "note": 62,
      "start": 15.645,
      "duration": 0.0017,
      "velocity": 127,
      "chip": "ym2612"
    },
    {
      "channel": 0,
      "note": 43,
      "start": 15.646,
      "duration": 0.002,
      "velocity": 119,
      "chip": "ym2612"
    },
    {
      "channel": 3,
      "note": 62,
      "start": 15.6471,
      "duration": 0.0016,
      "velocity": 127,
      "chip": "ym2612"
    },
    {
      "channel": 0,
      "note": 45,
      "start": 15.6482,
      "duration": 0.0531,
      "velocity": 119,
      "chip": "ym2612"
    },
    {
      "channel": 2,
      "note": 24,
      "start": 15.6485,
      "duration": 0.3368,
      "velocity": 127,
      "chip": "ym2612"
    },
    {
      "channel": 3,
      "note": 62,
      "start": 15.6489,
      "duration": 0.1859,
      "velocity": 127,
      "chip": "ym2612"
    },
    {
      "channel": 0,
      "note": 45,
      "start": 15.7015,
      "duration": 0.283,
      "velocity": 119,
      "chip": "ym2612"
    },
    {
      "channel": 1,
      "note": 24,
      "start": 15.7022,
      "duration": 0.4166,
      "velocity": 127,
      "chip": "ym2612"
    },
    {
      "channel": 3,
      "note": 62,
      "start": 15.835,
      "duration": 0.151,
      "velocity": 127,
      "chip": "ym2612"
    },
    {
      "channel": 0,
      "note": 45,
      "start": 15.9847,
      "duration": 0.1337,
      "velocity": 119,
      "chip": "ym2612"
    },
    {
      "channel": 2,
      "note": 24,
      "start": 15.9855,
      "duration": 0.1736,
      "velocity": 127,
      "chip": "ym2612"
    },
    {
      "channel": 3,
      "note": 67,
      "start": 15.9862,
      "duration": 0.1329,
      "velocity": 127,
      "chip": "ym2612"
    },
    {
      "channel": 0,
      "note": 45,
      "start": 16.1186,
      "duration": 0.0397,
      "velocity": 119,
      "chip": "ym2612"
    },
    {
      "channel": 1,
      "note": 24,
      "start": 16.1189,
      "duration": 0.2297,
      "velocity": 127,
      "chip": "ym2612"
    },
    {
      "channel": 3,
      "note": 67,
      "start": 16.1194,
      "duration": 0.001,
      "velocity": 127,
      "chip": "ym2612"
    },
    {
      "channel": 3,
      "note": 62,
      "start": 16.1206,
      "duration": 0.188,
      "velocity": 127,
      "chip": "ym2612"
    },
    {
      "channel": 0,
      "note": 45,
      "start": 16.1586,
      "duration": 0.1893,
      "velocity": 119,
      "chip": "ym2612"
    },
    {
      "channel": 2,
      "note": 24,
      "start": 16.1593,
      "duration": 0.3227,
      "velocity": 127,
      "chip": "ym2612"
    },
    {
      "channel": 3,
      "note": 67,
      "start": 16.3088,
      "duration": 0.1739,
      "velocity": 127,
      "chip": "ym2612"
    },
    {
      "channel": 0,
      "note": 45,
      "start": 16.348,
      "duration": 0.1331,
      "velocity": 119,
      "chip": "ym2612"
    },
    {
      "channel": 1,
      "note": 24,
      "start": 16.3488,
      "duration": 0.1373,
      "velocity": 127,
      "chip": "ym2612"
    },
    {
      "channel": 0,
      "note": 43,
      "start": 16.4814,
      "duration": 0.0022,
      "velocity": 119,
      "chip": "ym2612"
    },
    {
      "channel": 2,
      "note": 24,
      "start": 16.4822,
      "duration": 0.0094,
      "velocity": 127,
      "chip": "ym2612"
    },
    {
      "channel": 3,
      "note": 62,
      "start": 16.4829,
      "duration": 0.0015,
      "velocity": 127,
      "chip": "ym2612"
    },
    {
      "channel": 0,
      "note": 43,
      "start": 16.4837,
      "duration": 0.002,
      "velocity": 119,
      "chip": "ym2612"
    },
    {
      "channel": 3,
      "note": 62,
      "start": 16.4848,
      "duration": 0.0032,
      "velocity": 127,
      "chip": "ym2612"
    },
    {
      "channel": 0,
      "note": 45,
      "start": 16.4859,
      "duration": 0.0035,
      "velocity": 119,
      "chip": "ym2612"
    },
    {
      "channel": 1,
      "note": 24,
      "start": 16.4862,
      "duration": 0.0219,
      "velocity": 127,
      "chip": "ym2612"
    },
    {
      "channel": 3,
      "note": 55,
      "start": 16.4883,
      "duration": 0.0036,
      "velocity": 127,
      "chip": "ym2612"
    },
    {
      "channel": 0,
      "note": 45,
      "start": 16.4895,
      "duration": 0.0179,
      "velocity": 119,
      "chip": "ym2612"
    },
    {
      "channel": 2,
      "note": 24,
      "start": 16.4918,
      "duration": 0.1659,
      "velocity": 127,
      "chip": "ym2612"
    },
    {
      "channel": 3,
      "note": 62,
      "start": 16.4921,
      "duration": 0.0169,
      "velocity": 127,
      "chip": "ym2612"
    },
    {
      "channel": 0,
      "note": 45,
      "start": 16.5076,
      "duration": 0.151,
      "velocity": 119,
      "chip": "ym2612"
    },
    {
      "channel": 1,
      "note": 24,
      "start": 16.5083,
      "duration": 0.1524,
      "velocity": 127,
      "chip": "ym2612"
    },
    {
      "channel": 3,
      "note": 67,
      "start": 16.5091,
      "duration": 0.1503,
      "velocity": 127,
      "chip": "ym2612"
    },
    {
      "channel": 2,
      "note": 24,
      "start": 16.6579,
      "duration": 0.0046,
      "velocity": 127,
      "chip": "ym2612"
    },
    {
      "channel": 0,
      "note": 45,
      "start": 16.6588,
      "duration": 0.0032,
      "velocity": 119,
      "chip": "ym2612"
    },
    {
      "channel": 3,
      "note": 67,
      "start": 16.6599,
      "duration": 0.0011,
      "velocity": 127,
      "chip": "ym2612"
    },
    {
      "channel": 1,
      "note": 24,
      "start": 16.6609,
      "duration": 0.0032,
      "velocity": 127,
      "chip": "ym2612"
    },
    {
      "channel": 3,
      "note": 62,
      "start": 16.6612,
      "duration": 0.0016,
      "velocity": 127,
      "chip": "ym2612"
    },
    {
      "channel": 0,
      "note": 45,
      "start": 16.6623,
      "duration": 0.001,
      "velocity": 119,
      "chip": "ym2612"
    },
    {
      "channel": 2,
      "note": 24,
      "start": 16.6626,
      "duration": 0.0029,
      "velocity": 127,
      "chip": "ym2612"
    },
    {
      "channel": 3,
      "note": 67,
      "start": 16.6631,
      "duration": 0.0014,
      "velocity": 127,
      "chip": "ym2612"
    },
    {
      "channel": 0,
      "note": 45,
      "start": 16.6635,
      "duration": 0.0002,
      "velocity": 119,
      "chip": "ym2612"
    },
    {
      "channel": 0,
      "note": 43,
      "start": 16.6639,
      "duration": 0.0012,
      "velocity": 119,
      "chip": "ym2612"
    },
    {
      "channel": 1,
      "note": 24,
      "start": 16.6642,
      "duration": 0.0051,
      "velocity": 127,
      "chip": "ym2612"
    },
    {
      "channel": 3,
      "note": 62,
      "start": 16.6646,
      "duration": 0.0013,
      "velocity": 127,
      "chip": "ym2612"
    },
    {
      "channel": 0,
      "note": 43,
      "start": 16.6653,
      "duration": 0.0019,
      "velocity": 119,
      "chip": "ym2612"
    },
    {
      "channel": 2,
      "note": 24,
      "start": 16.6657,
      "duration": 0.0263,
      "velocity": 127,
      "chip": "ym2612"
    },
    {
      "channel": 3,
      "note": 62,
      "start": 16.6663,
      "duration": 0.0013,
      "velocity": 127,
      "chip": "ym2612"
    },
    {
      "channel": 0,
      "note": 45,
      "start": 16.6674,
      "duration": 0.0016,
      "velocity": 119,
      "chip": "ym2612"
    },
    {
      "channel": 3,
      "note": 62,
      "start": 16.668,
      "duration": 0.0018,
      "velocity": 127,
      "chip": "ym2612"
    },
    {
      "channel": 0,
      "note": 45,
      "start": 16.6692,
      "duration": 0.0219,
      "velocity": 119,
      "chip": "ym2612"
    },
    {
      "channel": 1,
      "note": 24,
      "start": 16.6695,
      "duration": 0.1725,
      "velocity": 127,
      "chip": "ym2612"
    },
    {
      "channel": 3,
      "note": 62,
      "start": 16.6701,
      "duration": 0.0226,
      "velocity": 127,
      "chip": "ym2612"
    },
    {
      "channel": 0,
      "note": 45,
      "start": 16.6914,
      "duration": 0.1503,
      "velocity": 119,
      "chip": "ym2612"
    },
    {
      "channel": 2,
      "note": 24,
      "start": 16.6921,
      "duration": 0.1524,
      "velocity": 127,
      "chip": "ym2612"
    },
    {
      "channel": 3,
      "note": 67,
      "start": 16.6928,
      "duration": 0.1495,
      "velocity": 127,
      "chip": "ym2612"
    },
    {
      "channel": 0,
      "note": 45,
      "start": 16.8419,
      "duration": 0.0022,
      "velocity": 119,
      "chip": "ym2612"
    },
    {
      "channel": 1,
      "note": 24,
      "start": 16.8421,
      "duration": 0.0028,
      "velocity": 127,
      "chip": "ym2612"
    },
    {
      "channel": 3,
      "note": 67,
      "start": 16.8427,
      "duration": 0.001,
      "velocity": 127,
      "chip": "ym2612"
    },
    {
      "channel": 3,
      "note": 62,
      "start": 16.8439,
      "duration": 0.0023,
      "velocity": 127,
      "chip": "ym2612"
    },
    {
      "channel": 0,
      "note": 45,
      "start": 16.8444,
      "duration": 0.0029,
      "velocity": 119,
      "chip": "ym2612"
    },
    {
      "channel": 2,
      "note": 24,
      "start": 16.8447,
      "duration": 0.0035,
      "velocity": 127,
      "chip": "ym2612"
    },
    {
      "channel": 1,
      "note": 24,
      "start": 16.8453,
      "duration": 0.006,
      "velocity": 127,
      "chip": "ym2612"
    },
    {
      "channel": 3,
      "note": 67,
      "start": 16.8464,
      "duration": 0.0022,
      "velocity": 127,
      "chip": "ym2612"
    },
    {
      "channel": 0,
      "note": 45,
      "start": 16.8475,
      "duration": 0.0002,
      "velocity": 119,
      "chip": "ym2612"
    },
    {
      "channel": 0,
      "note": 43,
      "start": 16.848,
      "duration": 0.0018,
      "velocity": 119,
      "chip": "ym2612"
    },
    {
      "channel": 2,
      "note": 24,
      "start": 16.8484,
      "duration": 0.0054,
      "velocity": 127,
      "chip": "ym2612"
    },
    {
      "channel": 3,
      "note": 62,
      "start": 16.8489,
      "duration": 0.0012,
      "velocity": 127,
      "chip": "ym2612"
    },
    {
      "channel": 0,
      "note": 43,
      "start": 16.8499,
      "duration": 0.001,
      "velocity": 119,
      "chip": "ym2612"
    },
    {
      "channel": 3,
      "note": 62,
      "start": 16.8503,
      "duration": 0.0017,
      "velocity": 127,
      "chip": "ym2612"
    },
    {
      "channel": 0,
      "note": 45,
      "start": 16.851,
      "duration": 0.0023,
      "velocity": 119,
      "chip": "ym2612"
    },
    {
      "channel": 1,
      "note": 24,
      "start": 16.8514,
      "duration": 0.0237,
      "velocity": 127,
      "chip": "ym2612"
    },
    {
      "channel": 3,
      "note": 62,
      "start": 16.8524,
      "duration": 0.0019,
      "velocity": 127,
      "chip": "ym2612"
    },
    {
      "channel": 0,
      "note": 45,
      "start": 16.8535,
      "duration": 0.0209,
      "velocity": 119,
      "chip": "ym2612"
    },
    {
      "channel": 2,
      "note": 24,
      "start": 16.8541,
      "duration": 0.1539,
      "velocity": 127,
      "chip": "ym2612"
    },
    {
      "channel": 3,
      "note": 62,
      "start": 16.8545,
      "duration": 0.0215,
      "velocity": 127,
      "chip": "ym2612"
    },
    {
      "channel": 0,
      "note": 45,
      "start": 16.8746,
      "duration": 0.1343,
      "velocity": 119,
      "chip": "ym2612"
    },
    {
      "channel": 1,
      "note": 24,
      "start": 16.8753,
      "duration": 0.1346,
      "velocity": 127,
      "chip": "ym2612"
    },
    {
      "channel": 3,
      "note": 67,
      "start": 16.8761,
      "duration": 0.1331,
      "velocity": 127,
      "chip": "ym2612"
    },
    {
      "channel": 2,
      "note": 24,
      "start": 17.0082,
      "duration": 0.0036,
      "velocity": 127,
      "chip": "ym2612"
    },
    {
      "channel": 0,
      "note": 45,
      "start": 17.0091,
      "duration": 0.0022,
      "velocity": 119,
      "chip": "ym2612"
    },
    {
      "channel": 3,
      "note": 67,
      "start": 17.0094,
      "duration": 0.0008,
      "velocity": 127,
      "chip": "ym2612"
    },
    {
      "channel": 1,
      "note": 24,
      "start": 17.0101,
      "duration": 0.0036,
      "velocity": 127,
      "chip": "ym2612"
    },
    {
      "channel": 3,
      "note": 62,
      "start": 17.0104,
      "duration": 0.0019,
      "velocity": 127,
      "chip": "ym2612"
    },
    {
      "channel": 0,
      "note": 45,
      "start": 17.0116,
      "duration": 0.0012,
      "velocity": 119,
      "chip": "ym2612"
    },
    {
      "channel": 2,
      "note": 24,
      "start": 17.012,
      "duration": 0.0042,
      "velocity": 127,
      "chip": "ym2612"
    },
    {
      "channel": 3,
      "note": 67,
      "start": 17.0125,
      "duration": 0.0016,
      "velocity": 127,
      "chip": "ym2612"
    },
    {
      "channel": 0,
      "note": 45,
      "start": 17.0131,
      "duration": 0.0002,
      "velocity": 119,
      "chip": "ym2612"
    },
    {
      "channel": 0,
      "note": 43,
      "start": 17.0135,
      "duration": 0.0012,
      "velocity": 119,
      "chip": "ym2612"
    },
    {
      "channel": 1,
      "note": 24,
      "start": 17.0139,
      "duration": 0.0048,
      "velocity": 127,
      "chip": "ym2612"
    },
    {
      "channel": 3,
      "note": 62,
      "start": 17.0143,
      "duration": 0.0008,
      "velocity": 127,
      "chip": "ym2612"
    },
    {
      "channel": 0,
      "note": 43,
      "start": 17.0149,
      "duration": 0.001,
      "velocity": 119,
      "chip": "ym2612"
    },
    {
      "channel": 3,
      "note": 62,
      "start": 17.0153,
      "duration": 0.0017,
      "velocity": 127,
      "chip": "ym2612"
    },
    {
      "channel": 0,
      "note": 45,
      "start": 17.016,
      "duration": 0.0023,
      "velocity": 119,
      "chip": "ym2612"
    },
    {
      "channel": 2,
      "note": 24,
      "start": 17.0163,
      "duration": 0.0239,
      "velocity": 127,
      "chip": "ym2612"
    },
    {
      "channel": 3,
      "note": 62,
      "start": 17.0174,
      "duration": 0.0019,
      "velocity": 127,
      "chip": "ym2612"
    },
    {
      "channel": 0,
      "note": 45,
      "start": 17.0185,
      "duration": 0.0209,
      "velocity": 119,
      "chip": "ym2612"
    },
    {
      "channel": 1,
      "note": 24,
      "start": 17.019,
      "duration": 0.1548,
      "velocity": 127,
      "chip": "ym2612"
    },
    {
      "channel": 3,
      "note": 62,
      "start": 17.0194,
      "duration": 0.0215,
      "velocity": 127,
      "chip": "ym2612"
    },
    {
      "channel": 0,
      "note": 45,
      "start": 17.0396,
      "duration": 0.1338,
      "velocity": 119,
      "chip": "ym2612"
    },
    {
      "channel": 2,
      "note": 24,
      "start": 17.0404,
      "duration": 0.1351,
      "velocity": 127,
      "chip": "ym2612"
    },
    {
      "channel": 3,
      "note": 67,
      "start": 17.0411,
      "duration": 0.1329,
      "velocity": 127,
      "chip": "ym2612"
    },
    {
      "channel": 0,
      "note": 45,
      "start": 17.1735,
      "duration": 0.0015,
      "velocity": 119,
      "chip": "ym2612"
    },
    {
      "channel": 1,
      "note": 24,
      "start": 17.1739,
      "duration": 0.0039,
      "velocity": 127,
      "chip": "ym2612"
    },
    {
      "channel": 3,
      "note": 67,
      "start": 17.1741,
      "duration": 0.0005,
      "velocity": 127,
      "chip": "ym2612"
    },
    {
      "channel": 3,
      "note": 62,
      "start": 17.1748,
      "duration": 0.0013,
      "velocity": 127,
      "chip": "ym2612"
    },
    {
      "channel": 0,
      "note": 45,
      "start": 17.1752,
      "duration": 0.0021,
      "velocity": 119,
      "chip": "ym2612"
    },
    {
      "channel": 2,
      "note": 24,
      "start": 17.1756,
      "duration": 0.003,
      "velocity": 127,
      "chip": "ym2612"
    },
    {
      "channel": 3,
      "note": 67,
      "start": 17.1765,
      "duration": 0.003,
      "velocity": 127,
      "chip": "ym2612"
    },
    {
      "channel": 0,
      "note": 45,
      "start": 17.1776,
      "duration": 0.0007,
      "velocity": 119,
      "chip": "ym2612"
    },
    {
      "channel": 1,
      "note": 24,
      "start": 17.178,
      "duration": 0.0043,
      "velocity": 127,
      "chip": "ym2612"
    },
    {
      "channel": 0,
      "note": 43,
      "start": 17.1784,
      "duration": 0.0022,
      "velocity": 119,
      "chip": "ym2612"
    },
    {
      "channel": 2,
      "note": 24,
      "start": 17.1788,
      "duration": 0.009,
      "velocity": 127,
      "chip": "ym2612"
    },
    {
      "channel": 3,
      "note": 62,
      "start": 17.1798,
      "duration": 0.0012,
      "velocity": 127,
      "chip": "ym2612"
    },
    {
      "channel": 0,
      "note": 43,
      "start": 17.1808,
      "duration": 0.0011,
      "velocity": 119,
      "chip": "ym2612"
    },
    {
      "channel": 3,
      "note": 62,
      "start": 17.1811,
      "duration": 0.003,
      "velocity": 127,
      "chip": "ym2612"
    },
    {
      "channel": 0,
      "note": 45,
      "start": 17.1821,
      "duration": 0.0035,
      "velocity": 119,
      "chip": "ym2612"
    },
    {
      "channel": 1,
      "note": 24,
      "start": 17.1824,
      "duration": 0.0386,
      "velocity": 127,
      "chip": "ym2612"
    },
    {
      "channel": 3,
      "note": 55,
      "start": 17.1845,
      "duration": 0.0036,
      "velocity": 127,
      "chip": "ym2612"
    },
    {
      "channel": 0,
      "note": 45,
      "start": 17.1857,
      "duration": 0.0346,
      "velocity": 119,
      "chip": "ym2612"
    },
    {
      "channel": 2,
      "note": 24,
      "start": 17.188,
      "duration": 0.1659,
      "velocity": 127,
      "chip": "ym2612"
    },
    {
      "channel": 3,
      "note": 62,
      "start": 17.1883,
      "duration": 0.0335,
      "velocity": 127,
      "chip": "ym2612"
    },
    {
      "channel": 0,
      "note": 45,
      "start": 17.2205,
      "duration": 0.1344,
      "velocity": 119,
      "chip": "ym2612"
    },
    {
      "channel": 1,
      "note": 24,
      "start": 17.2212,
      "duration": 0.1356,
      "velocity": 127,
      "chip": "ym2612"
    },
    {
      "channel": 3,
      "note": 67,
      "start": 17.222,
      "duration": 0.1336,
      "velocity": 127,
      "chip": "ym2612"
    },
    {
      "channel": 2,
      "note": 24,
      "start": 17.3541,
      "duration": 0.0045,
      "velocity": 127,
      "chip": "ym2612"
    },
    {
      "channel": 0,
      "note": 45,
      "start": 17.355,
      "duration": 0.0032,
      "velocity": 119,
      "chip": "ym2612"
    },
    {
      "channel": 3,
      "note": 67,
      "start": 17.3559,
      "duration": 0.0012,
      "velocity": 127,
      "chip": "ym2612"
    },
    {
      "channel": 1,
      "note": 24,
      "start": 17.3569,
      "duration": 0.0036,
      "velocity": 127,
      "chip": "ym2612"
    },
    {
      "channel": 3,
      "note": 62,
      "start": 17.3573,
      "duration": 0.0018,
      "velocity": 127,
      "chip": "ym2612"
    },
    {
      "channel": 0,
      "note": 45,
      "start": 17.3584,
      "duration": 0.0012,
      "velocity": 119,
      "chip": "ym2612"
    },
    {
      "channel": 2,
      "note": 24,
      "start": 17.3588,
      "duration": 0.0032,
      "velocity": 127,
      "chip": "ym2612"
    },
    {
      "channel": 3,
      "note": 67,
      "start": 17.3593,
      "duration": 0.0018,
      "velocity": 127,
      "chip": "ym2612"
    },
    {
      "channel": 0,
      "note": 45,
      "start": 17.3598,
      "duration": 0.0002,
      "velocity": 119,
      "chip": "ym2612"
    },
    {
      "channel": 0,
      "note": 43,
      "start": 17.3603,
      "duration": 0.0014,
      "velocity": 119,
      "chip": "ym2612"
    },
    {
      "channel": 1,
      "note": 24,
      "start": 17.3607,
      "duration": 0.005,
      "velocity": 127,
      "chip": "ym2612"
    },
    {
      "channel": 3,
      "note": 62,
      "start": 17.3612,
      "duration": 0.0012,
      "velocity": 127,
      "chip": "ym2612"
    },
    {
      "channel": 0,
      "note": 43,
      "start": 17.3618,
      "duration": 0.0018,
      "velocity": 119,
      "chip": "ym2612"
    },
    {
      "channel": 2,
      "note": 24,
      "start": 17.3621,
      "duration": 0.026,
      "velocity": 127,
      "chip": "ym2612"
    },
    {
      "channel": 3,
      "note": 62,
      "start": 17.3628,
      "duration": 0.0013,
      "velocity": 127,
      "chip": "ym2612"
    },
    {
      "channel": 0,
      "note": 45,
      "start": 17.3638,
      "duration": 0.0015,
      "velocity": 119,
      "chip": "ym2612"
    },
    {
      "channel": 3,
      "note": 62,
      "start": 17.3644,
      "duration": 0.0017,
      "velocity": 127,
      "chip": "ym2612"
    },
    {
      "channel": 0,
      "note": 45,
      "start": 17.3656,
      "duration": 0.0217,
      "velocity": 119,
      "chip": "ym2612"
    },
    {
      "channel": 1,
      "note": 24,
      "start": 17.3659,
      "duration": 0.1723,
      "velocity": 127,
      "chip": "ym2612"
    },
    {
      "channel": 3,
      "note": 62,
      "start": 17.3663,
      "duration": 0.0225,
      "velocity": 127,
      "chip": "ym2612"
    },
    {
      "channel": 0,
      "note": 45,
      "start": 17.3875,
      "duration": 0.1504,
      "velocity": 119,
      "chip": "ym2612"
    },
    {
      "channel": 2,
      "note": 24,
      "start": 17.3883,
      "duration": 0.1524,
      "velocity": 127,
      "chip": "ym2612"
    },
    {
      "channel": 3,
      "note": 67,
      "start": 17.389,
      "duration": 0.1495,
      "velocity": 127,
      "chip": "ym2612"
    },
    {
      "channel": 0,
      "note": 45,
      "start": 17.5381,
      "duration": 0.0022,
      "velocity": 119,
      "chip": "ym2612"
    },
    {
      "channel": 1,
      "note": 24,
      "start": 17.5383,
      "duration": 0.0028,
      "velocity": 127,
      "chip": "ym2612"
    },
    {
      "channel": 3,
      "note": 67,
      "start": 17.5389,
      "duration": 0.001,
      "velocity": 127,
      "chip": "ym2612"
    },
    {
      "channel": 3,
      "note": 62,
      "start": 17.54,
      "duration": 0.0022,
      "velocity": 127,
      "chip": "ym2612"
    },
    {
      "channel": 0,
      "note": 45,
      "start": 17.5405,
      "duration": 0.0029,
      "velocity": 119,
      "chip": "ym2612"
    },
    {
      "channel": 2,
      "note": 24,
      "start": 17.5409,
      "duration": 0.0035,
      "velocity": 127,
      "chip": "ym2612"
    },
    {
      "channel": 1,
      "note": 24,
      "start": 17.5415,
      "duration": 0.0056,
      "velocity": 127,
      "chip": "ym2612"
    },
    {
      "channel": 3,
      "note": 67,
      "start": 17.5426,
      "duration": 0.0022,
      "velocity": 127,
      "chip": "ym2612"
    },
    {
      "channel": 0,
      "note": 45,
      "start": 17.5437,
      "duration": 0.0002,
      "velocity": 119,
      "chip": "ym2612"
    },
    {
      "channel": 0,
      "note": 43,
      "start": 17.5441,
      "duration": 0.0017,
      "velocity": 119,
      "chip": "ym2612"
    },
    {
      "channel": 2,
      "note": 24,
      "start": 17.5446,
      "duration": 0.0048,
      "velocity": 127,
      "chip": "ym2612"
    },
    {
      "channel": 3,
      "note": 62,
      "start": 17.5451,
      "duration": 0.001,
      "velocity": 127,
      "chip": "ym2612"
    },
    {
      "channel": 0,
      "note": 43,
      "start": 17.546,
      "duration": 0.0007,
      "velocity": 119,
      "chip": "ym2612"
    },
    {
      "channel": 3,
      "note": 62,
      "start": 17.5463,
      "duration": 0.0016,
      "velocity": 127,
      "chip": "ym2612"
    },
    {
      "channel": 0,
      "note": 45,
      "start": 17.5469,
      "duration": 0.0022,
      "velocity": 119,
      "chip": "ym2612"
    },
    {
      "channel": 1,
      "note": 24,
      "start": 17.5471,
      "duration": 0.0235,
      "velocity": 127,
      "chip": "ym2612"
    },
    {
      "channel": 3,
      "note": 62,
      "start": 17.5482,
      "duration": 0.0016,
      "velocity": 127,
      "chip": "ym2612"
    },
    {
      "channel": 0,
      "note": 45,
      "start": 17.5493,
      "duration": 0.0207,
      "velocity": 119,
      "chip": "ym2612"
    },
    {
      "channel": 2,
      "note": 24,
      "start": 17.5496,
      "duration": 0.1706,
      "velocity": 127,
      "chip": "ym2612"
    },
    {
      "channel": 3,
      "note": 62,
      "start": 17.55,
      "duration": 0.0215,
      "velocity": 127,
      "chip": "ym2612"
    },
    {
      "channel": 0,
      "note": 45,
      "start": 17.5702,
      "duration": 0.1511,
      "velocity": 119,
      "chip": "ym2612"
    },
    {
      "channel": 1,
      "note": 24,
      "start": 17.5709,
      "duration": 0.1525,
      "velocity": 127,
      "chip": "ym2612"
    },
    {
      "channel": 3,
      "note": 67,
      "start": 17.5717,
      "duration": 0.1503,
      "velocity": 127,
      "chip": "ym2612"
    },
    {
      "channel": 2,
      "note": 24,
      "start": 17.7204,
      "duration": 0.0048,
      "velocity": 127,
      "chip": "ym2612"
    },
    {
      "channel": 0,
      "note": 45,
      "start": 17.7214,
      "duration": 0.0034,
      "velocity": 119,
      "chip": "ym2612"
    },
    {
      "channel": 3,
      "note": 67,
      "start": 17.7224,
      "duration": 0.0012,
      "velocity": 127,
      "chip": "ym2612"
    },
    {
      "channel": 1,
      "note": 24,
      "start": 17.7235,
      "duration": 0.0035,
      "velocity": 127,
      "chip": "ym2612"
    },
    {
      "channel": 3,
      "note": 62,
      "start": 17.7239,
      "duration": 0.0018,
      "velocity": 127,
      "chip": "ym2612"
    },
    {
      "channel": 0,
      "note": 45,
      "start": 17.725,
      "duration": 0.0011,
      "velocity": 119,
      "chip": "ym2612"
    },
    {
      "channel": 2,
      "note": 24,
      "start": 17.7254,
      "duration": 0.0042,
      "velocity": 127,
      "chip": "ym2612"
    },
    {
      "channel": 3,
      "note": 67,
      "start": 17.7259,
      "duration": 0.0016,
      "velocity": 127,
      "chip": "ym2612"
    },
    {
      "channel": 0,
      "note": 45,
      "start": 17.7263,
      "duration": 0.0002,
      "velocity": 119,
      "chip": "ym2612"
    },
    {
      "channel": 0,
      "note": 43,
      "start": 17.7268,
      "duration": 0.0014,
      "velocity": 119,
      "chip": "ym2612"
    },
    {
      "channel": 1,
      "note": 24,
      "start": 17.7273,
      "duration": 0.0049,
      "velocity": 127,
      "chip": "ym2612"
    },
    {
      "channel": 3,
      "note": 62,
      "start": 17.7277,
      "duration": 0.0008,
      "velocity": 127,
      "chip": "ym2612"
    },
    {
      "channel": 0,
      "note": 43,
      "start": 17.7283,
      "duration": 0.001,
      "velocity": 119,
      "chip": "ym2612"
    },
    {
      "channel": 3,
      "note": 62,
      "start": 17.7287,
      "duration": 0.0017,
      "velocity": 127,
      "chip": "ym2612"
    },
    {
      "channel": 0,
      "note": 45,
      "start": 17.7295,
      "duration": 0.0023,
      "velocity": 119,
      "chip": "ym2612"
    },
    {
      "channel": 2,
      "note": 24,
      "start": 17.7298,
      "duration": 0.0238,
      "velocity": 127,
      "chip": "ym2612"
    },
    {
      "channel": 3,
      "note": 62,
      "start": 17.7308,
      "duration": 0.0018,
      "velocity": 127,
      "chip": "ym2612"
    },
    {
      "channel": 0,
      "note": 45,
      "start": 17.7319,
      "duration": 0.0208,
      "velocity": 119,
      "chip": "ym2612"
    },
    {
      "channel": 1,
      "note": 24,
      "start": 17.7324,
      "duration": 0.1547,
      "velocity": 127,
      "chip": "ym2612"
    },
    {
      "channel": 3,
      "note": 62,
      "start": 17.7328,
      "duration": 0.0215,
      "velocity": 127,
      "chip": "ym2612"
    },
    {
      "channel": 0,
      "note": 45,
      "start": 17.7529,
      "duration": 0.1337,
      "velocity": 119,
      "chip": "ym2612"
    },
    {
      "channel": 2,
      "note": 24,
      "start": 17.7538,
      "duration": 0.1352,
      "velocity": 127,
      "chip": "ym2612"
    },
    {
      "channel": 3,
      "note": 67,
      "start": 17.7545,
      "duration": 0.1329,
      "velocity": 127,
      "chip": "ym2612"
    },
    {
      "channel": 0,
      "note": 45,
      "start": 17.8868,
      "duration": 0.0017,
      "velocity": 119,
      "chip": "ym2612"
    },
    {
      "channel": 1,
      "note": 24,
      "start": 17.8873,
      "duration": 0.0038,
      "velocity": 127,
      "chip": "ym2612"
    },
    {
      "channel": 3,
      "note": 67,
      "start": 17.8876,
      "duration": 0.0005,
      "velocity": 127,
      "chip": "ym2612"
    },
    {
      "channel": 3,
      "note": 62,
      "start": 17.8883,
      "duration": 0.0013,
      "velocity": 127,
      "chip": "ym2612"
    },
    {
      "channel": 0,
      "note": 45,
      "start": 17.8888,
      "duration": 0.002,
      "velocity": 119,
      "chip": "ym2612"
    },
    {
      "channel": 2,
      "note": 24,
      "start": 17.8891,
      "duration": 0.0029,
      "velocity": 127,
      "chip": "ym2612"
    },
    {
      "channel": 3,
      "note": 67,
      "start": 17.8899,
      "duration": 0.0031,
      "velocity": 127,
      "chip": "ym2612"
    },
    {
      "channel": 0,
      "note": 45,
      "start": 17.8909,
      "duration": 0.0006,
      "velocity": 119,
      "chip": "ym2612"
    },
    {
      "channel": 1,
      "note": 24,
      "start": 17.8914,
      "duration": 0.0043,
      "velocity": 127,
      "chip": "ym2612"
    },
    {
      "channel": 0,
      "note": 43,
      "start": 17.8918,
      "duration": 0.0022,
      "velocity": 119,
      "chip": "ym2612"
    },
    {
      "channel": 2,
      "note": 24,
      "start": 17.8923,
      "duration": 0.0106,
      "velocity": 127,
      "chip": "ym2612"
    },
    {
      "channel": 3,
      "note": 62,
      "start": 17.8933,
      "duration": 0.001,
      "velocity": 127,
      "chip": "ym2612"
    },
    {
      "channel": 0,
      "note": 43,
      "start": 17.8942,
      "duration": 0.0011,
      "velocity": 119,
      "chip": "ym2612"
    },
    {
      "channel": 3,
      "note": 62,
      "start": 17.8945,
      "duration": 0.0033,
      "velocity": 127,
      "chip": "ym2612"
    },
    {
      "channel": 0,
      "note": 57,
      "start": 17.8955,
      "duration": 0.0048,
      "velocity": 119,
      "chip": "ym2612"
    },
    {
      "channel": 1,
      "note": 24,
      "start": 17.8959,
      "duration": 0.0327,
      "velocity": 127,
      "chip": "ym2612"
    },
    {
      "channel": 3,
      "note": 55,
      "start": 17.8979,
      "duration": 0.0064,
      "velocity": 127,
      "chip": "ym2612"
    },
    {
      "channel": 4,
      "note": 45,
      "start": 17.8998,
      "duration": 0.0036,
      "velocity": 119,
      "chip": "ym2612"
    },
    {
      "channel": 0,
      "note": 60,
      "start": 17.9004,
      "duration": 0.0034,
      "velocity": 119,
      "chip": "ym2612"
    },
    {
      "channel": 2,
      "note": 24,
      "start": 17.9032,
      "duration": 0.1582,
      "velocity": 127,
      "chip": "ym2612"
    },
    {
      "channel": 4,
      "note": 45,
      "start": 17.9036,
      "duration": 0.0265,
      "velocity": 119,
      "chip": "ym2612"
    },
    {
      "channel": 0,
      "note": 64,
      "start": 17.9041,
      "duration": 0.0238,
      "velocity": 119,
      "chip": "ym2612"
    },
    {
      "channel": 3,
      "note": 62,
      "start": 17.9046,
      "duration": 0.0248,
      "velocity": 127,
      "chip": "ym2612"
    },
    {
      "channel": 0,
      "note": 62,
      "start": 17.9281,
      "duration": 0.2831,
      "velocity": 119,
      "chip": "ym2612"
    },
    {
      "channel": 1,
      "note": 24,
      "start": 17.9288,
      "duration": 0.4158,
      "velocity": 127,
      "chip": "ym2612"
    },
    {
      "channel": 3,
      "note": 67,
      "start": 17.9296,
      "duration": 0.2824,
      "velocity": 127,
      "chip": "ym2612"
    },
    {
      "channel": 4,
      "note": 45,
      "start": 17.9303,
      "duration": 0.2824,
      "velocity": 119,
      "chip": "ym2612"
    },
    {
      "channel": 2,
      "note": 24,
      "start": 18.0616,
      "duration": 0.5664,
      "velocity": 127,
      "chip": "ym2612"
    },
    {
      "channel": 0,
      "note": 67,
      "start": 18.2114,
      "duration": 0.2665,
      "velocity": 119,
      "chip": "ym2612"
    },
    {
      "channel": 3,
      "note": 67,
      "start": 18.2123,
      "duration": 0.1332,
      "velocity": 127,
      "chip": "ym2612"
    },
    {
      "channel": 4,
      "note": 45,
      "start": 18.213,
      "duration": 0.2658,
      "velocity": 119,
      "chip": "ym2612"
    },
    {
      "channel": 1,
      "note": 24,
      "start": 18.3448,
      "duration": 0.5671,
      "velocity": 127,
      "chip": "ym2612"
    },
    {
      "channel": 3,
      "note": 62,
      "start": 18.3456,
      "duration": 0.2831,
      "velocity": 127,
      "chip": "ym2612"
    },
    {
      "channel": 0,
      "note": 57,
      "start": 18.4781,
      "duration": 0.2831,
      "velocity": 119,
      "chip": "ym2612"
    },
    {
      "channel": 4,
      "note": 45,
      "start": 18.479,
      "duration": 0.2831,
      "velocity": 119,
      "chip": "ym2612"
    },
    {
      "channel": 2,
      "note": 24,
      "start": 18.6283,
      "duration": 0.4171,
      "velocity": 127,
      "chip": "ym2612"
    },
    {
      "channel": 3,
      "note": 67,
      "start": 18.629,
      "duration": 0.2837,
      "velocity": 127,
      "chip": "ym2612"
    },
    {
      "channel": 0,
      "note": 57,
      "start": 18.7614,
      "duration": 0.1498,
      "velocity": 119,
      "chip": "ym2612"
    },
    {
      "channel": 4,
      "note": 45,
      "start": 18.7624,
      "duration": 0.151,
      "velocity": 119,
      "chip": "ym2612"
    },
    {
      "channel": 0,
      "note": 60,
      "start": 18.9114,
      "duration": 0.1331,
      "velocity": 119,
      "chip": "ym2612"
    },
    {
      "channel": 1,
      "note": 24,
      "start": 18.9121,
      "duration": 0.4165,
      "velocity": 127,
      "chip": "ym2612"
    },
    {
      "channel": 3,
      "note": 62,
      "start": 18.9129,
      "duration": 0.1332,
      "velocity": 127,
      "chip": "ym2612"
    },
    {
      "channel": 4,
      "note": 43,
      "start": 18.9136,
      "duration": 0.1332,
      "velocity": 119,
      "chip": "ym2612"
    },
    {
      "channel": 0,
      "note": 64,
      "start": 19.0448,
      "duration": 0.1331,
      "velocity": 119,
      "chip": "ym2612"
    },
    {
      "channel": 2,
      "note": 24,
      "start": 19.0456,
      "duration": 0.5664,
      "velocity": 127,
      "chip": "ym2612"
    },
    {
      "channel": 3,
      "note": 62,
      "start": 19.0463,
      "duration": 0.1324,
      "velocity": 127,
      "chip": "ym2612"
    },
    {
      "channel": 4,
      "note": 43,
      "start": 19.047,
      "duration": 0.1324,
      "velocity": 119,
      "chip": "ym2612"
    },
    {
      "channel": 0,
      "note": 57,
      "start": 19.1781,
      "duration": 0.1498,
      "velocity": 119,
      "chip": "ym2612"
    },
    {
      "channel": 3,
      "note": 62,
      "start": 19.179,
      "duration": 0.2831,
      "velocity": 127,
      "chip": "ym2612"
    },
    {
      "channel": 4,
      "note": 45,
      "start": 19.1797,
      "duration": 0.1498,
      "velocity": 119,
      "chip": "ym2612"
    },
    {
      "channel": 0,
      "note": 57,
      "start": 19.3281,
      "duration": 0.1331,
      "velocity": 119,
      "chip": "ym2612"
    },
    {
      "channel": 1,
      "note": 24,
      "start": 19.3288,
      "duration": 0.5498,
      "velocity": 127,
      "chip": "ym2612"
    },
    {
      "channel": 4,
      "note": 45,
      "start": 19.3297,
      "duration": 0.2837,
      "velocity": 119,
      "chip": "ym2612"
    },
    {
      "channel": 0,
      "note": 60,
      "start": 19.4614,
      "duration": 0.1498,
      "velocity": 119,
      "chip": "ym2612"
    },
    {
      "channel": 3,
      "note": 62,
      "start": 19.4623,
      "duration": 0.1504,
      "velocity": 127,
      "chip": "ym2612"
    },
    {
      "channel": 0,
      "note": 64,
      "start": 19.6114,
      "duration": 0.1331,
      "velocity": 119,
      "chip": "ym2612"
    },
    {
      "channel": 2,
      "note": 24,
      "start": 19.6122,
      "duration": 0.5498,
      "velocity": 127,
      "chip": "ym2612"
    },
    {
      "channel": 3,
      "note": 67,
      "start": 19.6129,
      "duration": 0.2665,
      "velocity": 127,
      "chip": "ym2612"
    },
    {
      "channel": 4,
      "note": 45,
      "start": 19.6136,
      "duration": 0.2665,
      "velocity": 119,
      "chip": "ym2612"
    },
    {
      "channel": 0,
      "note": 57,
      "start": 19.7448,
      "duration": 0.1331,
      "velocity": 119,
      "chip": "ym2612"
    },
    {
      "channel": 0,
      "note": 60,
      "start": 19.8781,
      "duration": 0.1498,
      "velocity": 119,
      "chip": "ym2612"
    },
    {
      "channel": 1,
      "note": 24,
      "start": 19.8788,
      "duration": 0.4326,
      "velocity": 127,
      "chip": "ym2612"
    },
    {
      "channel": 3,
      "note": 67,
      "start": 19.8795,
      "duration": 0.1492,
      "velocity": 127,
      "chip": "ym2612"
    },
    {
      "channel": 4,
      "note": 45,
      "start": 19.8802,
      "duration": 0.2825,
      "velocity": 119,
      "chip": "ym2612"
    },
    {
      "channel": 0,
      "note": 64,
      "start": 20.0281,
      "duration": 0.1331,
      "velocity": 119,
      "chip": "ym2612"
    },
    {
      "channel": 3,
      "note": 62,
      "start": 20.029,
      "duration": 0.2832,
      "velocity": 127,
      "chip": "ym2612"
    },
    {
      "channel": 0,
      "note": 62,
      "start": 20.1614,
      "duration": 0.2831,
      "velocity": 119,
      "chip": "ym2612"
    },
    {
      "channel": 2,
      "note": 24,
      "start": 20.1622,
      "duration": 0.4165,
      "velocity": 127,
      "chip": "ym2612"
    },
    {
      "channel": 4,
      "note": 45,
      "start": 20.163,
      "duration": 0.2825,
      "velocity": 119,
      "chip": "ym2612"
    },
    {
      "channel": 1,
      "note": 24,
      "start": 20.3115,
      "duration": 0.4192,
      "velocity": 127,
      "chip": "ym2612"
    },
    {
      "channel": 3,
      "note": 67,
      "start": 20.3123,
      "duration": 0.2671,
      "velocity": 127,
      "chip": "ym2612"
    },
    {
      "channel": 0,
      "note": 67,
      "start": 20.4448,
      "duration": 0.1331,
      "velocity": 119,
      "chip": "ym2612"
    },
    {
      "channel": 4,
      "note": 45,
      "start": 20.4457,
      "duration": 0.1344,
      "velocity": 119,
      "chip": "ym2612"
    },
    {
      "channel": 0,
      "note": 55,
      "start": 20.5781,
      "duration": 0.1498,
      "velocity": 119,
      "chip": "ym2612"
    },
    {
      "channel": 2,
      "note": 24,
      "start": 20.5788,
      "duration": 0.1537,
      "velocity": 127,
      "chip": "ym2612"
    },
    {
      "channel": 3,
      "note": 62,
      "start": 20.5795,
      "duration": 0.1493,
      "velocity": 127,
      "chip": "ym2612"
    },
    {
      "channel": 4,
      "note": 43,
      "start": 20.5802,
      "duration": 0.1493,
      "velocity": 119,
      "chip": "ym2612"
    },
    {
      "channel": 0,
      "note": 55,
      "start": 20.7281,
      "duration": 0.0022,
      "velocity": 119,
      "chip": "ym2612"
    },
    {
      "channel": 3,
      "note": 62,
      "start": 20.729,
      "duration": 0.0023,
      "velocity": 127,
      "chip": "ym2612"
    },
    {
      "channel": 4,
      "note": 43,
      "start": 20.7297,
      "duration": 0.0019,
      "velocity": 119,
      "chip": "ym2612"
    },
    {
      "channel": 0,
      "note": 57,
      "start": 20.7305,
      "duration": 0.0018,
      "velocity": 119,
      "chip": "ym2612"
    },
    {
      "channel": 1,
      "note": 24,
      "start": 20.731,
      "duration": 0.0352,
      "velocity": 127,
      "chip": "ym2612"
    },
    {
      "channel": 3,
      "note": 62,
      "start": 20.7315,
      "duration": 0.0022,
      "velocity": 127,
      "chip": "ym2612"
    },
    {
      "channel": 4,
      "note": 45,
      "start": 20.7318,
      "duration": 0.0011,
      "velocity": 119,
      "chip": "ym2612"
    },
    {
      "channel": 0,
      "note": 60,
      "start": 20.7324,
      "duration": 0.0009,
      "velocity": 119,
      "chip": "ym2612"
    },
    {
      "channel": 2,
      "note": 24,
      "start": 20.7328,
      "duration": 0.1829,
      "velocity": 127,
      "chip": "ym2612"
    },
    {
      "channel": 4,
      "note": 45,
      "start": 20.7331,
      "duration": 0.0346,
      "velocity": 119,
      "chip": "ym2612"
    },
    {
      "channel": 0,
      "note": 64,
      "start": 20.7335,
      "duration": 0.032,
      "velocity": 119,
      "chip": "ym2612"
    },
    {
      "channel": 3,
      "note": 62,
      "start": 20.7339,
      "duration": 0.0331,
      "velocity": 127,
      "chip": "ym2612"
    },
    {
      "channel": 0,
      "note": 62,
      "start": 20.7657,
      "duration": 0.2831,
      "velocity": 119,
      "chip": "ym2612"
    },
    {
      "channel": 1,
      "note": 24,
      "start": 20.7664,
      "duration": 0.4325,
      "velocity": 127,
      "chip": "ym2612"
    },
    {
      "channel": 3,
      "note": 67,
      "start": 20.7671,
      "duration": 0.2825,
      "velocity": 127,
      "chip": "ym2612"
    },
    {
      "channel": 4,
      "note": 45,
      "start": 20.7678,
      "duration": 0.2825,
      "velocity": 119,
      "chip": "ym2612"
    },
    {
      "channel": 2,
      "note": 24,
      "start": 20.9159,
      "duration": 0.5498,
      "velocity": 127,
      "chip": "ym2612"
    },
    {
      "channel": 0,
      "note": 67,
      "start": 21.049,
      "duration": 0.2831,
      "velocity": 119,
      "chip": "ym2612"
    },
    {
      "channel": 3,
      "note": 67,
      "start": 21.0499,
      "duration": 0.1498,
      "velocity": 127,
      "chip": "ym2612"
    },
    {
      "channel": 4,
      "note": 45,
      "start": 21.0506,
      "duration": 0.2825,
      "velocity": 119,
      "chip": "ym2612"
    },
    {
      "channel": 1,
      "note": 24,
      "start": 21.1991,
      "duration": 0.5504,
      "velocity": 127,
      "chip": "ym2612"
    },
    {
      "channel": 3,
      "note": 62,
      "start": 21.1999,
      "duration": 0.2665,
      "velocity": 127,
      "chip": "ym2612"
    },
    {
      "channel": 0,
      "note": 57,
      "start": 21.3324,
      "duration": 0.2831,
      "velocity": 119,
      "chip": "ym2612"
    },
    {
      "channel": 4,
      "note": 45,
      "start": 21.3333,
      "duration": 0.2831,
      "velocity": 119,
      "chip": "ym2612"
    },
    {
      "channel": 2,
      "note": 24,
      "start": 21.4659,
      "duration": 0.5671,
      "velocity": 127,
      "chip": "ym2612"
    },
    {
      "channel": 3,
      "note": 67,
      "start": 21.4666,
      "duration": 0.2837,
      "velocity": 127,
      "chip": "ym2612"
    },
    {
      "channel": 0,
      "note": 57,
      "start": 21.6157,
      "duration": 0.1331,
      "velocity": 119,
      "chip": "ym2612"
    },
    {
      "channel": 4,
      "note": 45,
      "start": 21.6166,
      "duration": 0.1344,
      "velocity": 119,
      "chip": "ym2612"
    },
    {
      "channel": 0,
      "note": 60,
      "start": 21.749,
      "duration": 0.1498,
      "velocity": 119,
      "chip": "ym2612"
    },
    {
      "channel": 1,
      "note": 24,
      "start": 21.7497,
      "duration": 0.4165,
      "velocity": 127,
      "chip": "ym2612"
    },
    {
      "channel": 3,
      "note": 62,
      "start": 21.7505,
      "duration": 0.1493,
      "velocity": 127,
      "chip": "ym2612"
    },
    {
      "channel": 4,
      "note": 43,
      "start": 21.7512,
      "duration": 0.1493,
      "velocity": 119,
      "chip": "ym2612"
    },
    {
      "channel": 0,
      "note": 64,
      "start": 21.899,
      "duration": 0.1331,
      "velocity": 119,
      "chip": "ym2612"
    },
    {
      "channel": 3,
      "note": 62,
      "start": 21.8999,
      "duration": 0.1337,
      "velocity": 127,
      "chip": "ym2612"
    },
    {
      "channel": 4,
      "note": 43,
      "start": 21.9006,
      "duration": 0.1337,
      "velocity": 119,
      "chip": "ym2612"
    },
    {
      "channel": 0,
      "note": 57,
      "start": 22.0324,
      "duration": 0.1331,
      "velocity": 119,
      "chip": "ym2612"
    },
    {
      "channel": 2,
      "note": 24,
      "start": 22.0331,
      "duration": 0.4165,
      "velocity": 127,
      "chip": "ym2612"
    },
    {
      "channel": 3,
      "note": 62,
      "start": 22.0339,
      "duration": 0.2824,
      "velocity": 127,
      "chip": "ym2612"
    },
    {
      "channel": 4,
      "note": 45,
      "start": 22.0346,
      "duration": 0.1325,
      "velocity": 119,
      "chip": "ym2612"
    },
    {
      "channel": 0,
      "note": 57,
      "start": 22.1657,
      "duration": 0.1498,
      "velocity": 119,
      "chip": "ym2612"
    },
    {
      "channel": 1,
      "note": 24,
      "start": 22.1664,
      "duration": 0.5665,
      "velocity": 127,
      "chip": "ym2612"
    },
    {
      "channel": 4,
      "note": 45,
      "start": 22.1673,
      "duration": 0.2837,
      "velocity": 119,
      "chip": "ym2612"
    },
    {
      "channel": 0,
      "note": 60,
      "start": 22.3157,
      "duration": 0.1331,
      "velocity": 119,
      "chip": "ym2612"
    },
    {
      "channel": 3,
      "note": 62,
      "start": 22.3166,
      "duration": 0.1337,
      "velocity": 127,
      "chip": "ym2612"
    },
    {
      "channel": 0,
      "note": 64,
      "start": 22.449,
      "duration": 0.1498,
      "velocity": 119,
      "chip": "ym2612"
    },
    {
      "channel": 2,
      "note": 24,
      "start": 22.4498,
      "duration": 0.5665,
      "velocity": 127,
      "chip": "ym2612"
    },
    {
      "channel": 3,
      "note": 67,
      "start": 22.4505,
      "duration": 0.2832,
      "velocity": 127,
      "chip": "ym2612"
    },
    {
      "channel": 4,
      "note": 45,
      "start": 22.4512,
      "duration": 0.2832,
      "velocity": 119,
      "chip": "ym2612"
    },
    {
      "channel": 0,
      "note": 55,
      "start": 22.599,
      "duration": 0.1331,
      "velocity": 119,
      "chip": "ym2612"
    },
    {
      "channel": 0,
      "note": 57,
      "start": 22.7324,
      "duration": 0.1331,
      "velocity": 119,
      "chip": "ym2612"
    },
    {
      "channel": 1,
      "note": 24,
      "start": 22.7331,
      "duration": 0.4175,
      "velocity": 127,
      "chip": "ym2612"
    },
    {
      "channel": 3,
      "note": 67,
      "start": 22.7339,
      "duration": 0.1324,
      "velocity": 127,
      "chip": "ym2612"
    },
    {
      "channel": 4,
      "note": 45,
      "start": 22.7346,
      "duration": 0.2824,
      "velocity": 119,
      "chip": "ym2612"
    },
    {
      "channel": 0,
      "note": 60,
      "start": 22.8657,
      "duration": 0.1498,
      "velocity": 119,
      "chip": "ym2612"
    },
    {
      "channel": 3,
      "note": 62,
      "start": 22.8666,
      "duration": 0.2832,
      "velocity": 127,
      "chip": "ym2612"
    },
    {
      "channel": 0,
      "note": 64,
      "start": 23.0157,
      "duration": 0.1331,
      "velocity": 119,
      "chip": "ym2612"
    },
    {
      "channel": 2,
      "note": 24,
      "start": 23.0164,
      "duration": 0.1351,
      "velocity": 127,
      "chip": "ym2612"
    },
    {
      "channel": 4,
      "note": 45,
      "start": 23.0173,
      "duration": 0.1336,
      "velocity": 119,
      "chip": "ym2612"
    },
    {
      "channel": 0,
      "note": 62,
      "start": 23.149,
      "duration": 0.0021,
      "velocity": 119,
      "chip": "ym2612"
    },
    {
      "channel": 3,
      "note": 67,
      "start": 23.1499,
      "duration": 0.002,
      "velocity": 127,
      "chip": "ym2612"
    },
    {
      "channel": 1,
      "note": 24,
      "start": 23.1507,
      "duration": 0.187,
      "velocity": 127,
      "chip": "ym2612"
    },
    {
      "channel": 4,
      "note": 45,
      "start": 23.151,
      "duration": 0.0013,
      "velocity": 119,
      "chip": "ym2612"
    },
    {
      "channel": 0,
      "note": 67,
      "start": 23.1513,
      "duration": 0.0355,
      "velocity": 119,
      "chip": "ym2612"
    },
    {
      "channel": 2,
      "note": 24,
      "start": 23.1517,
      "duration": 0.1926,
      "velocity": 127,
      "chip": "ym2612"
    },
    {
      "channel": 3,
      "note": 62,
      "start": 23.1522,
      "duration": 0.0356,
      "velocity": 127,
      "chip": "ym2612"
    },
    {
      "channel": 4,
      "note": 43,
      "start": 23.1525,
      "duration": 0.0359,
      "velocity": 119,
      "chip": "ym2612"
    },
    {
      "channel": 0,
      "note": 55,
      "start": 23.1871,
      "duration": 0.1499,
      "velocity": 119,
      "chip": "ym2612"
    },
    {
      "channel": 3,
      "note": 62,
      "start": 23.1879,
      "duration": 0.1525,
      "velocity": 127,
      "chip": "ym2612"
    },
    {
      "channel": 4,
      "note": 43,
      "start": 23.1886,
      "duration": 0.1527,
      "velocity": 119,
      "chip": "ym2612"
    },
    {
      "channel": 0,
      "note": 57,
      "start": 23.3371,
      "duration": 0.0051,
      "velocity": 119,
      "chip": "ym2612"
    },
    {
      "channel": 1,
      "note": 24,
      "start": 23.3379,
      "duration": 0.1384,
      "velocity": 127,
      "chip": "ym2612"
    },
    {
      "channel": 3,
      "note": 55,
      "start": 23.3407,
      "duration": 0.0047,
      "velocity": 127,
      "chip": "ym2612"
    },
    {
      "channel": 4,
      "note": 45,
      "start": 23.3415,
      "duration": 0.0031,
      "velocity": 119,
      "chip": "ym2612"
    },
    {
      "channel": 0,
      "note": 60,
      "start": 23.3424,
      "duration": 0.0026,
      "velocity": 119,
      "chip": "ym2612"
    },
    {
      "channel": 2,
      "note": 24,
      "start": 23.3445,
      "duration": 0.2646,
      "velocity": 127,
      "chip": "ym2612"
    },
    {
      "channel": 4,
      "note": 45,
      "start": 23.3448,
      "duration": 0.133,
      "velocity": 119,
      "chip": "ym2612"
    },
    {
      "channel": 0,
      "note": 64,
      "start": 23.3452,
      "duration": 0.1304,
      "velocity": 119,
      "chip": "ym2612"
    },
    {
      "channel": 3,
      "note": 62,
      "start": 23.3457,
      "duration": 0.1315,
      "velocity": 127,
      "chip": "ym2612"
    },
    {
      "channel": 5,
      "note": 100,
      "start": 23.3483,
      "duration": 0.5457,
      "velocity": 103,
      "chip": "ym2612"
    },
    {
      "channel": 0,
      "note": 62,
      "start": 23.4758,
      "duration": 0.2831,
      "velocity": 119,
      "chip": "ym2612"
    },
    {
      "channel": 1,
      "note": 24,
      "start": 23.4765,
      "duration": 0.4159,
      "velocity": 127,
      "chip": "ym2612"
    },
    {
      "channel": 3,
      "note": 67,
      "start": 23.4773,
      "duration": 0.2824,
      "velocity": 127,
      "chip": "ym2612"
    },
    {
      "channel": 4,
      "note": 45,
      "start": 23.478,
      "duration": 0.2824,
      "velocity": 119,
      "chip": "ym2612"
    },
    {
      "channel": 2,
      "note": 24,
      "start": 23.6093,
      "duration": 0.5664,
      "velocity": 127,
      "chip": "ym2612"
    },
    {
      "channel": 0,
      "note": 67,
      "start": 23.7591,
      "duration": 0.2831,
      "velocity": 119,
      "chip": "ym2612"
    },
    {
      "channel": 3,
      "note": 67,
      "start": 23.76,
      "duration": 0.1332,
      "velocity": 127,
      "chip": "ym2612"
    },
    {
      "channel": 4,
      "note": 45,
      "start": 23.7607,
      "duration": 0.2825,
      "velocity": 119,
      "chip": "ym2612"
    },
    {
      "channel": 1,
      "note": 24,
      "start": 23.8926,
      "duration": 0.5671,
      "velocity": 127,
      "chip": "ym2612"
    },
    {
      "channel": 3,
      "note": 62,
      "start": 23.8934,
      "duration": 0.2831,
      "velocity": 127,
      "chip": "ym2612"
    },
    {
      "channel": 5,
      "note": 100,
      "start": 23.8942,
      "duration": 0.5677,
      "velocity": 103,
      "chip": "ym2612"
    },
    {
      "channel": 0,
      "note": 57,
      "start": 24.0425,
      "duration": 0.2664,
      "velocity": 119,
      "chip": "ym2612"
    },
    {
      "channel": 4,
      "note": 45,
      "start": 24.0435,
      "duration": 0.2664,
      "velocity": 119,
      "chip": "ym2612"
    },
    {
      "channel": 2,
      "note": 24,
      "start": 24.176,
      "duration": 0.4171,
      "velocity": 127,
      "chip": "ym2612"
    },
    {
      "channel": 3,
      "note": 67,
      "start": 24.1767,
      "duration": 0.2838,
      "velocity": 127,
      "chip": "ym2612"
    },
    {
      "channel": 0,
      "note": 57,
      "start": 24.3091,
      "duration": 0.1498,
      "velocity": 119,
      "chip": "ym2612"
    },
    {
      "channel": 4,
      "note": 45,
      "start": 24.3101,
      "duration": 0.1511,
      "velocity": 119,
      "chip": "ym2612"
    },
    {
      "channel": 0,
      "note": 60,
      "start": 24.4591,
      "duration": 0.1332,
      "velocity": 119,
      "chip": "ym2612"
    },
    {
      "channel": 1,
      "note": 24,
      "start": 24.4598,
      "duration": 0.4165,
      "velocity": 127,
      "chip": "ym2612"
    },
    {
      "channel": 3,
      "note": 62,
      "start": 24.4607,
      "duration": 0.1332,
      "velocity": 127,
      "chip": "ym2612"
    },
    {
      "channel": 4,
      "note": 43,
      "start": 24.4614,
      "duration": 0.1332,
      "velocity": 119,
      "chip": "ym2612"
    },
    {
      "channel": 5,
      "note": 100,
      "start": 24.4621,
      "duration": 0.5485,
      "velocity": 103,
      "chip": "ym2612"
    },
    {
      "channel": 0,
      "note": 64,
      "start": 24.5925,
      "duration": 0.1497,
      "velocity": 119,
      "chip": "ym2612"
    },
    {
      "channel": 2,
      "note": 24,
      "start": 24.5933,
      "duration": 0.5665,
      "velocity": 127,
      "chip": "ym2612"
    },
    {
      "channel": 3,
      "note": 62,
      "start": 24.5941,
      "duration": 0.149,
      "velocity": 127,
      "chip": "ym2612"
    },
    {
      "channel": 4,
      "note": 43,
      "start": 24.5948,
      "duration": 0.149,
      "velocity": 119,
      "chip": "ym2612"
    },
    {
      "channel": 0,
      "note": 57,
      "start": 24.7425,
      "duration": 0.1331,
      "velocity": 119,
      "chip": "ym2612"
    },
    {
      "channel": 3,
      "note": 62,
      "start": 24.7434,
      "duration": 0.2665,
      "velocity": 127,
      "chip": "ym2612"
    },
    {
      "channel": 4,
      "note": 45,
      "start": 24.7441,
      "duration": 0.1332,
      "velocity": 119,
      "chip": "ym2612"
    },
    {
      "channel": 0,
      "note": 57,
      "start": 24.8758,
      "duration": 0.1331,
      "velocity": 119,
      "chip": "ym2612"
    },
    {
      "channel": 1,
      "note": 24,
      "start": 24.8765,
      "duration": 0.5665,
      "velocity": 127,
      "chip": "ym2612"
    },
    {
      "channel": 4,
      "note": 45,
      "start": 24.8774,
      "duration": 0.2838,
      "velocity": 119,
      "chip": "ym2612"
    },
    {
      "channel": 0,
      "note": 60,
      "start": 25.0091,
      "duration": 0.1498,
      "velocity": 119,
      "chip": "ym2612"
    },
    {
      "channel": 3,
      "note": 62,
      "start": 25.01,
      "duration": 0.1505,
      "velocity": 127,
      "chip": "ym2612"
    },
    {
      "channel": 5,
      "note": 100,
      "start": 25.0109,
      "duration": 0.5664,
      "velocity": 103,
      "chip": "ym2612"
    },
    {
      "channel": 0,
      "note": 64,
      "start": 25.1591,
      "duration": 0.1331,
      "velocity": 119,
      "chip": "ym2612"
    },
    {
      "channel": 2,
      "note": 24,
      "start": 25.16,
      "duration": 0.5498,
      "velocity": 127,
      "chip": "ym2612"
    },
    {
      "channel": 3,
      "note": 67,
      "start": 25.1607,
      "duration": 0.2831,
      "velocity": 127,
      "chip": "ym2612"
    },
    {
      "channel": 4,
      "note": 45,
      "start": 25.1614,
      "duration": 0.2831,
      "velocity": 119,
      "chip": "ym2612"
    },
    {
      "channel": 0,
      "note": 57,
      "start": 25.2925,
      "duration": 0.1498,
      "velocity": 119,
      "chip": "ym2612"
    },
    {
      "channel": 0,
      "note": 60,
      "start": 25.4425,
      "duration": 0.1331,
      "velocity": 119,
      "chip": "ym2612"
    },
    {
      "channel": 1,
      "note": 24,
      "start": 25.4432,
      "duration": 0.4159,
      "velocity": 127,
      "chip": "ym2612"
    },
    {
      "channel": 3,
      "note": 67,
      "start": 25.4439,
      "duration": 0.1326,
      "velocity": 127,
      "chip": "ym2612"
    },
    {
      "channel": 4,
      "note": 45,
      "start": 25.4446,
      "duration": 0.2659,
      "velocity": 119,
      "chip": "ym2612"
    },
    {
      "channel": 0,
      "note": 64,
      "start": 25.5758,
      "duration": 0.1331,
      "velocity": 119,
      "chip": "ym2612"
    },
    {
      "channel": 3,
      "note": 62,
      "start": 25.5767,
      "duration": 0.2832,
      "velocity": 127,
      "chip": "ym2612"
    },
    {
      "channel": 5,
      "note": 100,
      "start": 25.5775,
      "duration": 0.5677,
      "velocity": 103,
      "chip": "ym2612"
    },
    {
      "channel": 0,
      "note": 62,
      "start": 25.7091,
      "duration": 0.2831,
      "velocity": 119,
      "chip": "ym2612"
    },
    {
      "channel": 2,
      "note": 24,
      "start": 25.71,
      "duration": 0.4332,
      "velocity": 127,
      "chip": "ym2612"
    },
    {
      "channel": 4,
      "note": 45,
      "start": 25.7107,
      "duration": 0.2825,
      "velocity": 119,
      "chip": "ym2612"
    },
    {
      "channel": 1,
      "note": 24,
      "start": 25.8593,
      "duration": 0.4193,
      "velocity": 127,
      "chip": "ym2612"
    },
    {
      "channel": 3,
      "note": 67,
      "start": 25.86,
      "duration": 0.2838,
      "velocity": 127,
      "chip": "ym2612"
    },
    {
      "channel": 0,
      "note": 67,
      "start": 25.9925,
      "duration": 0.1498,
      "velocity": 119,
      "chip": "ym2612"
    },
    {
      "channel": 4,
      "note": 45,
      "start": 25.9934,
      "duration": 0.1511,
      "velocity": 119,
      "chip": "ym2612"
    },
    {
      "channel": 0,
      "note": 55,
      "start": 26.1425,
      "duration": 0.1331,
      "velocity": 119,
      "chip": "ym2612"
    },
    {
      "channel": 2,
      "note": 24,
      "start": 26.1433,
      "duration": 0.1371,
      "velocity": 127,
      "chip": "ym2612"
    },
    {
      "channel": 3,
      "note": 62,
      "start": 26.144,
      "duration": 0.1325,
      "velocity": 127,
      "chip": "ym2612"
    },
    {
      "channel": 4,
      "note": 43,
      "start": 26.1447,
      "duration": 0.1325,
      "velocity": 119,
      "chip": "ym2612"
    },
    {
      "channel": 5,
      "note": 100,
      "start": 26.1454,
      "duration": 0.1364,
      "velocity": 103,
      "chip": "ym2612"
    },
    {
      "channel": 0,
      "note": 55,
      "start": 26.2758,
      "duration": 0.0023,
      "velocity": 119,
      "chip": "ym2612"
    },
    {
      "channel": 3,
      "note": 62,
      "start": 26.2767,
      "duration": 0.0023,
      "velocity": 127,
      "chip": "ym2612"
    },
    {
      "channel": 4,
      "note": 43,
      "start": 26.2774,
      "duration": 0.0019,
      "velocity": 119,
      "chip": "ym2612"
    },
    {
      "channel": 0,
      "note": 57,
      "start": 26.2783,
      "duration": 0.0016,
      "velocity": 119,
      "chip": "ym2612"
    },
    {
      "channel": 1,
      "note": 24,
      "start": 26.2788,
      "duration": 0.1508,
      "velocity": 127,
      "chip": "ym2612"
    },
    {
      "channel": 3,
      "note": 62,
      "start": 26.2792,
      "duration": 0.0022,
      "velocity": 127,
      "chip": "ym2612"
    },
    {
      "channel": 4,
      "note": 45,
      "start": 26.2795,
      "duration": 0.0012,
      "velocity": 119,
      "chip": "ym2612"
    },
    {
      "channel": 0,
      "note": 60,
      "start": 26.2802,
      "duration": 0.0009,
      "velocity": 119,
      "chip": "ym2612"
    },
    {
      "channel": 2,
      "note": 24,
      "start": 26.2806,
      "duration": 0.2818,
      "velocity": 127,
      "chip": "ym2612"
    },
    {
      "channel": 4,
      "note": 45,
      "start": 26.281,
      "duration": 0.1502,
      "velocity": 119,
      "chip": "ym2612"
    },
    {
      "channel": 0,
      "note": 64,
      "start": 26.2812,
      "duration": 0.1476,
      "velocity": 119,
      "chip": "ym2612"
    },
    {
      "channel": 3,
      "note": 62,
      "start": 26.2815,
      "duration": 0.1489,
      "velocity": 127,
      "chip": "ym2612"
    },
    {
      "channel": 5,
      "note": 100,
      "start": 26.282,
      "duration": 0.5653,
      "velocity": 103,
      "chip": "ym2612"
    },
    {
      "channel": 0,
      "note": 62,
      "start": 26.4292,
      "duration": 0.2664,
      "velocity": 119,
      "chip": "ym2612"
    },
    {
      "channel": 1,
      "note": 24,
      "start": 26.4298,
      "duration": 0.4159,
      "velocity": 127,
      "chip": "ym2612"
    },
    {
      "channel": 3,
      "note": 67,
      "start": 26.4306,
      "duration": 0.2658,
      "velocity": 127,
      "chip": "ym2612"
    },
    {
      "channel": 4,
      "note": 45,
      "start": 26.4313,
      "duration": 0.2658,
      "velocity": 119,
      "chip": "ym2612"
    },
    {
      "channel": 2,
      "note": 24,
      "start": 26.5626,
      "duration": 0.5664,
      "velocity": 127,
      "chip": "ym2612"
    },
    {
      "channel": 0,
      "note": 67,
      "start": 26.6958,
      "duration": 0.2831,
      "velocity": 119,
      "chip": "ym2612"
    },
    {
      "channel": 3,
      "note": 67,
      "start": 26.6966,
      "duration": 0.1498,
      "velocity": 127,
      "chip": "ym2612"
    },
    {
      "channel": 4,
      "note": 45,
      "start": 26.6973,
      "duration": 0.2825,
      "velocity": 119,
      "chip": "ym2612"
    },
    {
      "channel": 1,
      "note": 24,
      "start": 26.8459,
      "duration": 0.5504,
      "velocity": 127,
      "chip": "ym2612"
    },
    {
      "channel": 3,
      "note": 62,
      "start": 26.8466,
      "duration": 0.2831,
      "velocity": 127,
      "chip": "ym2612"
    },
    {
      "channel": 5,
      "note": 100,
      "start": 26.8475,
      "duration": 0.551,
      "velocity": 103,
      "chip": "ym2612"
    },
    {
      "channel": 0,
      "note": 57,
      "start": 26.9792,
      "duration": 0.2831,
      "velocity": 119,
      "chip": "ym2612"
    },
    {
      "channel": 4,
      "note": 45,
      "start": 26.9801,
      "duration": 0.2831,
      "velocity": 119,
      "chip": "ym2612"
    },
    {
      "channel": 2,
      "note": 24,
      "start": 27.1292,
      "duration": 0.5505,
      "velocity": 127,
      "chip": "ym2612"
    },
    {
      "channel": 3,
      "note": 67,
      "start": 27.13,
      "duration": 0.2671,
      "velocity": 127,
      "chip": "ym2612"
    },
    {
      "channel": 0,
      "note": 57,
      "start": 27.2624,
      "duration": 0.1331,
      "velocity": 119,
      "chip": "ym2612"
    },
    {
      "channel": 4,
      "note": 45,
      "start": 27.2634,
      "duration": 0.1344,
      "velocity": 119,
      "chip": "ym2612"
    },
    {
      "channel": 0,
      "note": 60,
      "start": 27.3958,
      "duration": 0.1498,
      "velocity": 119,
      "chip": "ym2612"
    },
    {
      "channel": 1,
      "note": 24,
      "start": 27.3965,
      "duration": 0.4331,
      "velocity": 127,
      "chip": "ym2612"
    },
    {
      "channel": 3,
      "note": 62,
      "start": 27.3973,
      "duration": 0.1492,
      "velocity": 127,
      "chip": "ym2612"
    },
    {
      "channel": 4,
      "note": 43,
      "start": 27.398,
      "duration": 0.1492,
      "velocity": 119,
      "chip": "ym2612"
    },
    {
      "channel": 5,
      "note": 100,
      "start": 27.3987,
      "duration": 0.5652,
      "velocity": 103,
      "chip": "ym2612"
    },
    {
      "channel": 0,
      "note": 64,
      "start": 27.5458,
      "duration": 0.1331,
      "velocity": 119,
      "chip": "ym2612"
    },
    {
      "channel": 3,
      "note": 62,
      "start": 27.5467,
      "duration": 0.1337,
      "velocity": 127,
      "chip": "ym2612"
    },
    {
      "channel": 4,
      "note": 43,
      "start": 27.5474,
      "duration": 0.1337,
      "velocity": 119,
      "chip": "ym2612"
    },
    {
      "channel": 0,
      "note": 57,
      "start": 27.6791,
      "duration": 0.1498,
      "velocity": 119,
      "chip": "ym2612"
    },
    {
      "channel": 2,
      "note": 24,
      "start": 27.6798,
      "duration": 0.4166,
      "velocity": 127,
      "chip": "ym2612"
    },
    {
      "channel": 3,
      "note": 62,
      "start": 27.6805,
      "duration": 0.2826,
      "velocity": 127,
      "chip": "ym2612"
    },
    {
      "channel": 4,
      "note": 45,
      "start": 27.6812,
      "duration": 0.1493,
      "velocity": 119,
      "chip": "ym2612"
    },
    {
      "channel": 0,
      "note": 57,
      "start": 27.8292,
      "duration": 0.1331,
      "velocity": 119,
      "chip": "ym2612"
    },
    {
      "channel": 1,
      "note": 24,
      "start": 27.8298,
      "duration": 0.5498,
      "velocity": 127,
      "chip": "ym2612"
    },
    {
      "channel": 4,
      "note": 45,
      "start": 27.8307,
      "duration": 0.2671,
      "velocity": 119,
      "chip": "ym2612"
    },
    {
      "channel": 0,
      "note": 60,
      "start": 27.9624,
      "duration": 0.1331,
      "velocity": 119,
      "chip": "ym2612"
    },
    {
      "channel": 3,
      "note": 62,
      "start": 27.9633,
      "duration": 0.1338,
      "velocity": 127,
      "chip": "ym2612"
    },
    {
      "channel": 5,
      "note": 100,
      "start": 27.9641,
      "duration": 0.5665,
      "velocity": 103,
      "chip": "ym2612"
    },
    {
      "channel": 0,
      "note": 64,
      "start": 28.0958,
      "duration": 0.1498,
      "velocity": 119,
      "chip": "ym2612"
    },
    {
      "channel": 2,
      "note": 24,
      "start": 28.0966,
      "duration": 0.5665,
      "velocity": 127,
      "chip": "ym2612"
    },
    {
      "channel": 3,
      "note": 67,
      "start": 28.0973,
      "duration": 0.2831,
      "velocity": 127,
      "chip": "ym2612"
    },
    {
      "channel": 4,
      "note": 45,
      "start": 28.098,
      "duration": 0.2831,
      "velocity": 119,
      "chip": "ym2612"
    },
    {
      "channel": 0,
      "note": 55,
      "start": 28.2458,
      "duration": 0.1331,
      "velocity": 119,
      "chip": "ym2612"
    },
    {
      "channel": 0,
      "note": 57,
      "start": 28.3791,
      "duration": 0.1498,
      "velocity": 119,
      "chip": "ym2612"
    },
    {
      "channel": 1,
      "note": 24,
      "start": 28.3798,
      "duration": 0.4175,
      "velocity": 127,
      "chip": "ym2612"
    },
    {
      "channel": 3,
      "note": 67,
      "start": 28.3806,
      "duration": 0.1492,
      "velocity": 127,
      "chip": "ym2612"
    },
    {
      "channel": 4,
      "note": 45,
      "start": 28.3813,
      "duration": 0.2825,
      "velocity": 119,
      "chip": "ym2612"
    },
    {
      "channel": 0,
      "note": 60,
      "start": 28.5292,
      "duration": 0.1331,
      "velocity": 119,
      "chip": "ym2612"
    },
    {
      "channel": 3,
      "note": 62,
      "start": 28.53,
      "duration": 0.2665,
      "velocity": 127,
      "chip": "ym2612"
    },
    {
      "channel": 5,
      "note": 100,
      "start": 28.5308,
      "duration": 0.2689,
      "velocity": 103,
      "chip": "ym2612"
    },
    {
      "channel": 0,
      "note": 64,
      "start": 28.6624,
      "duration": 0.1331,
      "velocity": 119,
      "chip": "ym2612"
    },
    {
      "channel": 2,
      "note": 24,
      "start": 28.6632,
      "duration": 0.135,
      "velocity": 127,
      "chip": "ym2612"
    },
    {
      "channel": 4,
      "note": 45,
      "start": 28.664,
      "duration": 0.1336,
      "velocity": 119,
      "chip": "ym2612"
    },
    {
      "channel": 0,
      "note": 62,
      "start": 28.7958,
      "duration": 0.0022,
      "velocity": 119,
      "chip": "ym2612"
    },
    {
      "channel": 3,
      "note": 67,
      "start": 28.7966,
      "duration": 0.002,
      "velocity": 127,
      "chip": "ym2612"
    },
    {
      "channel": 1,
      "note": 24,
      "start": 28.7974,
      "duration": 0.2817,
      "velocity": 127,
      "chip": "ym2612"
    },
    {
      "channel": 4,
      "note": 45,
      "start": 28.7977,
      "duration": 0.0014,
      "velocity": 119,
      "chip": "ym2612"
    },
    {
      "channel": 0,
      "note": 67,
      "start": 28.7981,
      "duration": 0.1469,
      "velocity": 119,
      "chip": "ym2612"
    },
    {
      "channel": 2,
      "note": 24,
      "start": 28.7985,
      "duration": 0.2873,
      "velocity": 127,
      "chip": "ym2612"
    },
    {
      "channel": 3,
      "note": 62,
      "start": 28.7989,
      "duration": 0.1471,
      "velocity": 127,
      "chip": "ym2612"
    },
    {
      "channel": 4,
      "note": 43,
      "start": 28.7993,
      "duration": 0.1473,
      "velocity": 119,
      "chip": "ym2612"
    },
    {
      "channel": 5,
      "note": 100,
      "start": 28.7999,
      "duration": 78.712,
      "velocity": 103,
      "chip": "ym2612"
    },
    {
      "channel": 0,
      "note": 55,
      "start": 28.9452,
      "duration": 0.1332,
      "velocity": 119,
      "chip": "ym2612"
    },
    {
      "channel": 3,
      "note": 62,
      "start": 28.9461,
      "duration": 0.1358,
      "velocity": 127,
      "chip": "ym2612"
    },
    {
      "channel": 4,
      "note": 43,
      "start": 28.9468,
      "duration": 0.1359,
      "velocity": 119,
      "chip": "ym2612"
    },
    {
      "channel": 0,
      "note": 57,
      "start": 29.0785,
      "duration": 0.005,
      "velocity": 119,
      "chip": "ym2612"
    },
    {
      "channel": 1,
      "note": 24,
      "start": 29.0793,
      "duration": 0.0261,
      "velocity": 127,
      "chip": "ym2612"
    },
    {
      "channel": 3,
      "note": 55,
      "start": 29.0822,
      "duration": 0.0048,
      "velocity": 127,
      "chip": "ym2612"
    },
    {
      "channel": 4,
      "note": 45,
      "start": 29.0829,
      "duration": 0.0032,
      "velocity": 119,
      "chip": "ym2612"
    },
    {
      "channel": 0,
      "note": 60,
      "start": 29.0838,
      "duration": 0.0029,
      "velocity": 119,
      "chip": "ym2612"
    },
    {
      "channel": 2,
      "note": 24,
      "start": 29.086,
      "duration": 0.169,
      "velocity": 127,
      "chip": "ym2612"
    },
    {
      "channel": 4,
      "note": 45,
      "start": 29.0864,
      "duration": 0.0205,
      "velocity": 119,
      "chip": "ym2612"
    },
    {
      "channel": 0,
      "note": 64,
      "start": 29.0868,
      "duration": 0.0179,
      "velocity": 119,
      "chip": "ym2612"
    },
    {
      "channel": 3,
      "note": 62,
      "start": 29.0872,
      "duration": 0.019,
      "velocity": 127,
      "chip": "ym2612"
    },
    {
      "channel": 0,
      "note": 62,
      "start": 29.1049,
      "duration": 0.151,
      "velocity": 119,
      "chip": "ym2612"
    },
    {
      "channel": 1,
      "note": 24,
      "start": 29.1056,
      "duration": 0.1515,
      "velocity": 127,
      "chip": "ym2612"
    },
    {
      "channel": 3,
      "note": 67,
      "start": 29.1064,
      "duration": 0.1499,
      "velocity": 127,
      "chip": "ym2612"
    },
    {
      "channel": 4,
      "note": 45,
      "start": 29.1071,
      "duration": 0.1495,
      "velocity": 119,
      "chip": "ym2612"
    },
    {
      "channel": 2,
      "note": 24,
      "start": 29.2552,
      "duration": 0.0045,
      "velocity": 127,
      "chip": "ym2612"
    },
    {
      "channel": 0,
      "note": 67,
      "start": 29.2561,
      "duration": 0.0027,
      "velocity": 119,
      "chip": "ym2612"
    },
    {
      "channel": 3,
      "note": 67,
      "start": 29.2565,
      "duration": 0.0011,
      "velocity": 127,
      "chip": "ym2612"
    },
    {
      "channel": 4,
      "note": 45,
      "start": 29.2568,
      "duration": 0.0026,
      "velocity": 119,
      "chip": "ym2612"
    },
    {
      "channel": 1,
      "note": 24,
      "start": 29.2573,
      "duration": 0.0046,
      "velocity": 127,
      "chip": "ym2612"
    },
    {
      "channel": 3,
      "note": 62,
      "start": 29.2579,
      "duration": 0.0023,
      "velocity": 127,
      "chip": "ym2612"
    },
    {
      "channel": 0,
      "note": 57,
      "start": 29.2591,
      "duration": 0.0016,
      "velocity": 119,
      "chip": "ym2612"
    },
    {
      "channel": 4,
      "note": 45,
      "start": 29.2595,
      "duration": 0.0016,
      "velocity": 119,
      "chip": "ym2612"
    },
    {
      "channel": 2,
      "note": 24,
      "start": 29.26,
      "duration": 0.0038,
      "velocity": 127,
      "chip": "ym2612"
    },
    {
      "channel": 3,
      "note": 67,
      "start": 29.2605,
      "duration": 0.0018,
      "velocity": 127,
      "chip": "ym2612"
    },
    {
      "channel": 0,
      "note": 57,
      "start": 29.261,
      "duration": 0.0005,
      "velocity": 119,
      "chip": "ym2612"
    },
    {
      "channel": 4,
      "note": 45,
      "start": 29.2613,
      "duration": 0.0013,
      "velocity": 119,
      "chip": "ym2612"
    },
    {
      "channel": 0,
      "note": 60,
      "start": 29.2617,
      "duration": 0.0017,
      "velocity": 119,
      "chip": "ym2612"
    },
    {
      "channel": 1,
      "note": 24,
      "start": 29.2621,
      "duration": 0.0062,
      "velocity": 127,
      "chip": "ym2612"
    },
    {
      "channel": 3,
      "note": 62,
      "start": 29.2625,
      "duration": 0.0015,
      "velocity": 127,
      "chip": "ym2612"
    },
    {
      "channel": 4,
      "note": 43,
      "start": 29.2628,
      "duration": 0.002,
      "velocity": 119,
      "chip": "ym2612"
    },
    {
      "channel": 0,
      "note": 64,
      "start": 29.2636,
      "duration": 0.0022,
      "velocity": 119,
      "chip": "ym2612"
    },
    {
      "channel": 2,
      "note": 24,
      "start": 29.2639,
      "duration": 0.0259,
      "velocity": 127,
      "chip": "ym2612"
    },
    {
      "channel": 3,
      "note": 62,
      "start": 29.2642,
      "duration": 0.002,
      "velocity": 127,
      "chip": "ym2612"
    },
    {
      "channel": 4,
      "note": 43,
      "start": 29.2651,
      "duration": 0.0015,
      "velocity": 119,
      "chip": "ym2612"
    },
    {
      "channel": 0,
      "note": 57,
      "start": 29.266,
      "duration": 0.0018,
      "velocity": 119,
      "chip": "ym2612"
    },
    {
      "channel": 3,
      "note": 62,
      "start": 29.2663,
      "duration": 0.0031,
      "velocity": 127,
      "chip": "ym2612"
    },
    {
      "channel": 4,
      "note": 45,
      "start": 29.267,
      "duration": 0.0017,
      "velocity": 119,
      "chip": "ym2612"
    },
    {
      "channel": 0,
      "note": 57,
      "start": 29.268,
      "duration": 0.0011,
      "velocity": 119,
      "chip": "ym2612"
    },
    {
      "channel": 1,
      "note": 24,
      "start": 29.2685,
      "duration": 0.1554,
      "velocity": 127,
      "chip": "ym2612"
    },
    {
      "channel": 4,
      "note": 45,
      "start": 29.2689,
      "duration": 0.0223,
      "velocity": 119,
      "chip": "ym2612"
    },
    {
      "channel": 0,
      "note": 60,
      "start": 29.2693,
      "duration": 0.0198,
      "velocity": 119,
      "chip": "ym2612"
    },
    {
      "channel": 3,
      "note": 62,
      "start": 29.2696,
      "duration": 0.0209,
      "velocity": 127,
      "chip": "ym2612"
    },
    {
      "channel": 0,
      "note": 64,
      "start": 29.2893,
      "duration": 0.1331,
      "velocity": 119,
      "chip": "ym2612"
    },
    {
      "channel": 2,
      "note": 24,
      "start": 29.29,
      "duration": 0.1369,
      "velocity": 127,
      "chip": "ym2612"
    },
    {
      "channel": 3,
      "note": 67,
      "start": 29.2907,
      "duration": 0.1335,
      "velocity": 127,
      "chip": "ym2612"
    },
    {
      "channel": 4,
      "note": 45,
      "start": 29.2914,
      "duration": 0.1332,
      "velocity": 119,
      "chip": "ym2612"
    },
    {
      "channel": 0,
      "note": 57,
      "start": 29.4226,
      "duration": 0.001,
      "velocity": 119,
      "chip": "ym2612"
    },
    {
      "channel": 0,
      "note": 60,
      "start": 29.4238,
      "duration": 0.0017,
      "velocity": 119,
      "chip": "ym2612"
    },
    {
      "channel": 1,
      "note": 24,
      "start": 29.4241,
      "duration": 0.0037,
      "velocity": 127,
      "chip": "ym2612"
    },
    {
      "channel": 3,
      "note": 67,
      "start": 29.4244,
      "duration": 0.0016,
      "velocity": 127,
      "chip": "ym2612"
    },
    {
      "channel": 4,
      "note": 45,
      "start": 29.4248,
      "duration": 0.0025,
      "velocity": 119,
      "chip": "ym2612"
    },
    {
      "channel": 0,
      "note": 64,
      "start": 29.4257,
      "duration": 0.0007,
      "velocity": 119,
      "chip": "ym2612"
    },
    {
      "channel": 3,
      "note": 62,
      "start": 29.4261,
      "duration": 0.0021,
      "velocity": 127,
      "chip": "ym2612"
    },
    {
      "channel": 0,
      "note": 62,
      "start": 29.4266,
      "duration": 0.0025,
      "velocity": 119,
      "chip": "ym2612"
    },
    {
      "channel": 2,
      "note": 24,
      "start": 29.4272,
      "duration": 0.0033,
      "velocity": 127,
      "chip": "ym2612"
    },
    {
      "channel": 4,
      "note": 45,
      "start": 29.4276,
      "duration": 0.0019,
      "velocity": 119,
      "chip": "ym2612"
    },
    {
      "channel": 1,
      "note": 24,
      "start": 29.428,
      "duration": 0.0059,
      "velocity": 127,
      "chip": "ym2612"
    },
    {
      "channel": 3,
      "note": 67,
      "start": 29.4285,
      "duration": 0.0024,
      "velocity": 127,
      "chip": "ym2612"
    },
    {
      "channel": 0,
      "note": 67,
      "start": 29.4293,
      "duration": 0.0008,
      "velocity": 119,
      "chip": "ym2612"
    },
    {
      "channel": 4,
      "note": 45,
      "start": 29.4298,
      "duration": 0.0018,
      "velocity": 119,
      "chip": "ym2612"
    },
    {
      "channel": 0,
      "note": 55,
      "start": 29.4302,
      "duration": 0.0023,
      "velocity": 119,
      "chip": "ym2612"
    },
    {
      "channel": 2,
      "note": 24,
      "start": 29.4306,
      "duration": 0.0057,
      "velocity": 127,
      "chip": "ym2612"
    },
    {
      "channel": 3,
      "note": 62,
      "start": 29.4311,
      "duration": 0.0017,
      "velocity": 127,
      "chip": "ym2612"
    },
    {
      "channel": 4,
      "note": 43,
      "start": 29.4319,
      "duration": 0.0012,
      "velocity": 119,
      "chip": "ym2612"
    },
    {
      "channel": 0,
      "note": 55,
      "start": 29.4327,
      "duration": 0.001,
      "velocity": 119,
      "chip": "ym2612"
    },
    {
      "channel": 3,
      "note": 62,
      "start": 29.4329,
      "duration": 0.0013,
      "velocity": 127,
      "chip": "ym2612"
    },
    {
      "channel": 4,
      "note": 43,
      "start": 29.4332,
      "duration": 0.0017,
      "velocity": 119,
      "chip": "ym2612"
    },
    {
      "channel": 0,
      "note": 57,
      "start": 29.4338,
      "duration": 0.0023,
      "velocity": 119,
      "chip": "ym2612"
    },
    {
      "channel": 1,
      "note": 24,
      "start": 29.4341,
      "duration": 0.0228,
      "velocity": 127,
      "chip": "ym2612"
    },
    {
      "channel": 3,
      "note": 62,
      "start": 29.4344,
      "duration": 0.0031,
      "velocity": 127,
      "chip": "ym2612"
    },
    {
      "channel": 4,
      "note": 45,
      "start": 29.4353,
      "duration": 0.0015,
      "velocity": 119,
      "chip": "ym2612"
    },
    {
      "channel": 0,
      "note": 60,
      "start": 29.4363,
      "duration": 0.0008,
      "velocity": 119,
      "chip": "ym2612"
    },
    {
      "channel": 2,
      "note": 24,
      "start": 29.4366,
      "duration": 0.1532,
      "velocity": 127,
      "chip": "ym2612"
    },
    {
      "channel": 4,
      "note": 45,
      "start": 29.4369,
      "duration": 0.0214,
      "velocity": 119,
      "chip": "ym2612"
    },
    {
      "channel": 0,
      "note": 64,
      "start": 29.4373,
      "duration": 0.0188,
      "velocity": 119,
      "chip": "ym2612"
    },
    {
      "channel": 3,
      "note": 62,
      "start": 29.4376,
      "duration": 0.02,
      "velocity": 127,
      "chip": "ym2612"
    },
    {
      "channel": 0,
      "note": 62,
      "start": 29.4563,
      "duration": 0.1343,
      "velocity": 119,
      "chip": "ym2612"
    },
    {
      "channel": 1,
      "note": 24,
      "start": 29.457,
      "duration": 0.1356,
      "velocity": 127,
      "chip": "ym2612"
    },
    {
      "channel": 3,
      "note": 67,
      "start": 29.4578,
      "duration": 0.1331,
      "velocity": 127,
      "chip": "ym2612"
    },
    {
      "channel": 4,
      "note": 45,
      "start": 29.4585,
      "duration": 0.133,
      "velocity": 119,
      "chip": "ym2612"
    },
    {
      "channel": 2,
      "note": 24,
      "start": 29.5899,
      "duration": 0.0054,
      "velocity": 127,
      "chip": "ym2612"
    },
    {
      "channel": 0,
      "note": 67,
      "start": 29.5908,
      "duration": 0.0035,
      "velocity": 119,
      "chip": "ym2612"
    },
    {
      "channel": 3,
      "note": 67,
      "start": 29.5911,
      "duration": 0.0019,
      "velocity": 127,
      "chip": "ym2612"
    },
    {
      "channel": 4,
      "note": 45,
      "start": 29.5919,
      "duration": 0.0029,
      "velocity": 119,
      "chip": "ym2612"
    },
    {
      "channel": 1,
      "note": 24,
      "start": 29.5928,
      "duration": 0.0047,
      "velocity": 127,
      "chip": "ym2612"
    },
    {
      "channel": 3,
      "note": 62,
      "start": 29.5934,
      "duration": 0.0023,
      "velocity": 127,
      "chip": "ym2612"
    },
    {
      "channel": 0,
      "note": 57,
      "start": 29.5946,
      "duration": 0.0016,
      "velocity": 119,
      "chip": "ym2612"
    },
    {
      "channel": 4,
      "note": 45,
      "start": 29.595,
      "duration": 0.0016,
      "velocity": 119,
      "chip": "ym2612"
    },
    {
      "channel": 2,
      "note": 24,
      "start": 29.5955,
      "duration": 0.0051,
      "velocity": 127,
      "chip": "ym2612"
    },
    {
      "channel": 3,
      "note": 67,
      "start": 29.5959,
      "duration": 0.0019,
      "velocity": 127,
      "chip": "ym2612"
    },
    {
      "channel": 0,
      "note": 57,
      "start": 29.5963,
      "duration": 0.0007,
      "velocity": 119,
      "chip": "ym2612"
    },
    {
      "channel": 4,
      "note": 45,
      "start": 29.5968,
      "duration": 0.0014,
      "velocity": 119,
      "chip": "ym2612"
    },
    {
      "channel": 0,
      "note": 60,
      "start": 29.5972,
      "duration": 0.0018,
      "velocity": 119,
      "chip": "ym2612"
    },
    {
      "channel": 1,
      "note": 24,
      "start": 29.5976,
      "duration": 0.0057,
      "velocity": 127,
      "chip": "ym2612"
    },
    {
      "channel": 3,
      "note": 62,
      "start": 29.598,
      "duration": 0.0013,
      "velocity": 127,
      "chip": "ym2612"
    },
    {
      "channel": 4,
      "note": 43,
      "start": 29.5984,
      "duration": 0.0013,
      "velocity": 119,
      "chip": "ym2612"
    },
    {
      "channel": 0,
      "note": 64,
      "start": 29.5992,
      "duration": 0.0011,
      "velocity": 119,
      "chip": "ym2612"
    },
    {
      "channel": 3,
      "note": 62,
      "start": 29.5994,
      "duration": 0.0015,
      "velocity": 127,
      "chip": "ym2612"
    },
    {
      "channel": 4,
      "note": 43,
      "start": 29.5998,
      "duration": 0.0021,
      "velocity": 119,
      "chip": "ym2612"
    },
    {
      "channel": 0,
      "note": 57,
      "start": 29.6004,
      "duration": 0.0025,
      "velocity": 119,
      "chip": "ym2612"
    },
    {
      "channel": 2,
      "note": 24,
      "start": 29.6007,
      "duration": 0.0398,
      "velocity": 127,
      "chip": "ym2612"
    },
    {
      "channel": 3,
      "note": 62,
      "start": 29.6011,
      "duration": 0.0032,
      "velocity": 127,
      "chip": "ym2612"
    },
    {
      "channel": 4,
      "note": 45,
      "start": 29.6022,
      "duration": 0.0014,
      "velocity": 119,
      "chip": "ym2612"
    },
    {
      "channel": 0,
      "note": 57,
      "start": 29.6031,
      "duration": 0.0008,
      "velocity": 119,
      "chip": "ym2612"
    },
    {
      "channel": 1,
      "note": 24,
      "start": 29.6034,
      "duration": 0.171,
      "velocity": 127,
      "chip": "ym2612"
    },
    {
      "channel": 4,
      "note": 45,
      "start": 29.6038,
      "duration": 0.0381,
      "velocity": 119,
      "chip": "ym2612"
    },
    {
      "channel": 0,
      "note": 60,
      "start": 29.6041,
      "duration": 0.0356,
      "velocity": 119,
      "chip": "ym2612"
    },
    {
      "channel": 3,
      "note": 62,
      "start": 29.6045,
      "duration": 0.0366,
      "velocity": 127,
      "chip": "ym2612"
    },
    {
      "channel": 0,
      "note": 64,
      "start": 29.6399,
      "duration": 0.1331,
      "velocity": 119,
      "chip": "ym2612"
    },
    {
      "channel": 2,
      "note": 24,
      "start": 29.6406,
      "duration": 0.1372,
      "velocity": 127,
      "chip": "ym2612"
    },
    {
      "channel": 3,
      "note": 67,
      "start": 29.6413,
      "duration": 0.1334,
      "velocity": 127,
      "chip": "ym2612"
    },
    {
      "channel": 4,
      "note": 45,
      "start": 29.642,
      "duration": 0.1333,
      "velocity": 119,
      "chip": "ym2612"
    },
    {
      "channel": 0,
      "note": 55,
      "start": 29.7732,
      "duration": 0.0009,
      "velocity": 119,
      "chip": "ym2612"
    },
    {
      "channel": 0,
      "note": 57,
      "start": 29.7743,
      "duration": 0.0022,
      "velocity": 119,
      "chip": "ym2612"
    },
    {
      "channel": 1,
      "note": 24,
      "start": 29.7746,
      "duration": 0.0053,
      "velocity": 127,
      "chip": "ym2612"
    },
    {
      "channel": 3,
      "note": 67,
      "start": 29.7749,
      "duration": 0.0021,
      "velocity": 127,
      "chip": "ym2612"
    },
    {
      "channel": 4,
      "note": 45,
      "start": 29.7757,
      "duration": 0.0025,
      "velocity": 119,
      "chip": "ym2612"
    },
    {
      "channel": 0,
      "note": 60,
      "start": 29.7768,
      "duration": 0.0006,
      "velocity": 119,
      "chip": "ym2612"
    },
    {
      "channel": 3,
      "note": 62,
      "start": 29.7772,
      "duration": 0.002,
      "velocity": 127,
      "chip": "ym2612"
    },
    {
      "channel": 0,
      "note": 64,
      "start": 29.7776,
      "duration": 0.0011,
      "velocity": 119,
      "chip": "ym2612"
    },
    {
      "channel": 2,
      "note": 24,
      "start": 29.778,
      "duration": 0.0031,
      "velocity": 127,
      "chip": "ym2612"
    },
    {
      "channel": 4,
      "note": 45,
      "start": 29.7784,
      "duration": 0.0018,
      "velocity": 119,
      "chip": "ym2612"
    },
    {
      "channel": 0,
      "note": 62,
      "start": 29.7789,
      "duration": 0.0017,
      "velocity": 119,
      "chip": "ym2612"
    },
    {
      "channel": 3,
      "note": 67,
      "start": 29.7793,
      "duration": 0.0022,
      "velocity": 127,
      "chip": "ym2612"
    },
    {
      "channel": 1,
      "note": 24,
      "start": 29.7801,
      "duration": 0.0046,
      "velocity": 127,
      "chip": "ym2612"
    },
    {
      "channel": 4,
      "note": 45,
      "start": 29.7805,
      "duration": 0.0016,
      "velocity": 119,
      "chip": "ym2612"
    },
    {
      "channel": 0,
      "note": 67,
      "start": 29.7809,
      "duration": 0.0022,
      "velocity": 119,
      "chip": "ym2612"
    },
    {
      "channel": 2,
      "note": 24,
      "start": 29.7813,
      "duration": 0.0089,
      "velocity": 127,
      "chip": "ym2612"
    },
    {
      "channel": 3,
      "note": 62,
      "start": 29.7817,
      "duration": 0.0018,
      "velocity": 127,
      "chip": "ym2612"
    },
    {
      "channel": 4,
      "note": 43,
      "start": 29.7824,
      "duration": 0.0015,
      "velocity": 119,
      "chip": "ym2612"
    },
    {
      "channel": 0,
      "note": 55,
      "start": 29.7833,
      "duration": 0.0011,
      "velocity": 119,
      "chip": "ym2612"
    },
    {
      "channel": 3,
      "note": 62,
      "start": 29.7837,
      "duration": 0.0028,
      "velocity": 127,
      "chip": "ym2612"
    },
    {
      "channel": 4,
      "note": 43,
      "start": 29.784,
      "duration": 0.0029,
      "velocity": 119,
      "chip": "ym2612"
    },
    {
      "channel": 0,
      "note": 57,
      "start": 29.7846,
      "duration": 0.0034,
      "velocity": 119,
      "chip": "ym2612"
    },
    {
      "channel": 1,
      "note": 24,
      "start": 29.7849,
      "duration": 0.021,
      "velocity": 127,
      "chip": "ym2612"
    },
    {
      "channel": 3,
      "note": 55,
      "start": 29.7867,
      "duration": 0.0045,
      "velocity": 127,
      "chip": "ym2612"
    },
    {
      "channel": 4,
      "note": 45,
      "start": 29.7872,
      "duration": 0.0033,
      "velocity": 119,
      "chip": "ym2612"
    },
    {
      "channel": 0,
      "note": 60,
      "start": 29.7882,
      "duration": 0.0027,
      "velocity": 119,
      "chip": "ym2612"
    },
    {
      "channel": 2,
      "note": 24,
      "start": 29.7903,
      "duration": 0.1652,
      "velocity": 127,
      "chip": "ym2612"
    },
    {
      "channel": 4,
      "note": 45,
      "start": 29.7906,
      "duration": 0.0168,
      "velocity": 119,
      "chip": "ym2612"
    },
    {
      "channel": 0,
      "note": 64,
      "start": 29.791,
      "duration": 0.0142,
      "velocity": 119,
      "chip": "ym2612"
    },
    {
      "channel": 3,
      "note": 62,
      "start": 29.7914,
      "duration": 0.0153,
      "velocity": 127,
      "chip": "ym2612"
    },
    {
      "channel": 0,
      "note": 62,
      "start": 29.8055,
      "duration": 0.151,
      "velocity": 119,
      "chip": "ym2612"
    },
    {
      "channel": 1,
      "note": 24,
      "start": 29.8062,
      "duration": 0.1518,
      "velocity": 127,
      "chip": "ym2612"
    },
    {
      "channel": 3,
      "note": 67,
      "start": 29.8069,
      "duration": 0.1499,
      "velocity": 127,
      "chip": "ym2612"
    },
    {
      "channel": 4,
      "note": 45,
      "start": 29.8076,
      "duration": 0.1496,
      "velocity": 119,
      "chip": "ym2612"
    },
    {
      "channel": 2,
      "note": 24,
      "start": 29.9557,
      "duration": 0.0049,
      "velocity": 127,
      "chip": "ym2612"
    },
    {
      "channel": 0,
      "note": 67,
      "start": 29.9566,
      "duration": 0.0032,
      "velocity": 119,
      "chip": "ym2612"
    },
    {
      "channel": 3,
      "note": 67,
      "start": 29.957,
      "duration": 0.0014,
      "velocity": 127,
      "chip": "ym2612"
    },
    {
      "channel": 4,
      "note": 45,
      "start": 29.9574,
      "duration": 0.0028,
      "velocity": 119,
      "chip": "ym2612"
    },
    {
      "channel": 1,
      "note": 24,
      "start": 29.9581,
      "duration": 0.0046,
      "velocity": 127,
      "chip": "ym2612"
    },
    {
      "channel": 3,
      "note": 62,
      "start": 29.9588,
      "duration": 0.0024,
      "velocity": 127,
      "chip": "ym2612"
    },
    {
      "channel": 0,
      "note": 57,
      "start": 29.96,
      "duration": 0.0016,
      "velocity": 119,
      "chip": "ym2612"
    },
    {
      "channel": 4,
      "note": 45,
      "start": 29.9604,
      "duration": 0.0015,
      "velocity": 119,
      "chip": "ym2612"
    },
    {
      "channel": 2,
      "note": 24,
      "start": 29.9609,
      "duration": 0.004,
      "velocity": 127,
      "chip": "ym2612"
    },
    {
      "channel": 3,
      "note": 67,
      "start": 29.9614,
      "duration": 0.0017,
      "velocity": 127,
      "chip": "ym2612"
    },
    {
      "channel": 0,
      "note": 57,
      "start": 29.9618,
      "duration": 0.0005,
      "velocity": 119,
      "chip": "ym2612"
    },
    {
      "channel": 4,
      "note": 45,
      "start": 29.9621,
      "duration": 0.0015,
      "velocity": 119,
      "chip": "ym2612"
    },
    {
      "channel": 0,
      "note": 60,
      "start": 29.9625,
      "duration": 0.002,
      "velocity": 119,
      "chip": "ym2612"
    },
    {
      "channel": 1,
      "note": 24,
      "start": 29.9629,
      "duration": 0.0061,
      "velocity": 127,
      "chip": "ym2612"
    },
    {
      "channel": 3,
      "note": 62,
      "start": 29.9633,
      "duration": 0.0018,
      "velocity": 127,
      "chip": "ym2612"
    },
    {
      "channel": 4,
      "note": 43,
      "start": 29.9638,
      "duration": 0.0018,
      "velocity": 119,
      "chip": "ym2612"
    },
    {
      "channel": 0,
      "note": 64,
      "start": 29.9647,
      "duration": 0.002,
      "velocity": 119,
      "chip": "ym2612"
    },
    {
      "channel": 2,
      "note": 24,
      "start": 29.965,
      "duration": 0.0257,
      "velocity": 127,
      "chip": "ym2612"
    },
    {
      "channel": 3,
      "note": 62,
      "start": 29.9653,
      "duration": 0.0018,
      "velocity": 127,
      "chip": "ym2612"
    },
    {
      "channel": 4,
      "note": 43,
      "start": 29.9659,
      "duration": 0.0015,
      "velocity": 119,
      "chip": "ym2612"
    },
    {
      "channel": 0,
      "note": 57,
      "start": 29.9669,
      "duration": 0.0017,
      "velocity": 119,
      "chip": "ym2612"
    },
    {
      "channel": 3,
      "note": 62,
      "start": 29.9673,
      "duration": 0.0029,
      "velocity": 127,
      "chip": "ym2612"
    },
    {
      "channel": 4,
      "note": 45,
      "start": 29.9678,
      "duration": 0.0017,
      "velocity": 119,
      "chip": "ym2612"
    },
    {
      "channel": 0,
      "note": 57,
      "start": 29.9688,
      "duration": 0.0011,
      "velocity": 119,
      "chip": "ym2612"
    },
    {
      "channel": 1,
      "note": 24,
      "start": 29.9693,
      "duration": 0.1723,
      "velocity": 127,
      "chip": "ym2612"
    },
    {
      "channel": 4,
      "note": 45,
      "start": 29.9696,
      "duration": 0.0225,
      "velocity": 119,
      "chip": "ym2612"
    },
    {
      "channel": 0,
      "note": 60,
      "start": 29.97,
      "duration": 0.0199,
      "velocity": 119,
      "chip": "ym2612"
    },
    {
      "channel": 3,
      "note": 62,
      "start": 29.9704,
      "duration": 0.021,
      "velocity": 127,
      "chip": "ym2612"
    },
    {
      "channel": 0,
      "note": 64,
      "start": 29.9901,
      "duration": 0.1498,
      "velocity": 119,
      "chip": "ym2612"
    },
    {
      "channel": 2,
      "note": 24,
      "start": 29.9909,
      "duration": 0.1541,
      "velocity": 127,
      "chip": "ym2612"
    },
    {
      "channel": 3,
      "note": 67,
      "start": 29.9916,
      "duration": 0.1503,
      "velocity": 127,
      "chip": "ym2612"
    },
    {
      "channel": 4,
      "note": 45,
      "start": 29.9923,
      "duration": 0.1502,
      "velocity": 119,
      "chip": "ym2612"
    },
    {
      "channel": 0,
      "note": 57,
      "start": 30.1402,
      "duration": 0.001,
      "velocity": 119,
      "chip": "ym2612"
    },
    {
      "channel": 0,
      "note": 60,
      "start": 30.1414,
      "duration": 0.0023,
      "velocity": 119,
      "chip": "ym2612"
    },
    {
      "channel": 1,
      "note": 24,
      "start": 30.1417,
      "duration": 0.004,
      "velocity": 127,
      "chip": "ym2612"
    },
    {
      "channel": 3,
      "note": 67,
      "start": 30.142,
      "duration": 0.0021,
      "velocity": 127,
      "chip": "ym2612"
    },
    {
      "channel": 4,
      "note": 45,
      "start": 30.1429,
      "duration": 0.0025,
      "velocity": 119,
      "chip": "ym2612"
    },
    {
      "channel": 0,
      "note": 64,
      "start": 30.1439,
      "duration": 0.0007,
      "velocity": 119,
      "chip": "ym2612"
    },
    {
      "channel": 3,
      "note": 62,
      "start": 30.1443,
      "duration": 0.0019,
      "velocity": 127,
      "chip": "ym2612"
    },
    {
      "channel": 0,
      "note": 62,
      "start": 30.1448,
      "duration": 0.0023,
      "velocity": 119,
      "chip": "ym2612"
    },
    {
      "channel": 2,
      "note": 24,
      "start": 30.1451,
      "duration": 0.0032,
      "velocity": 127,
      "chip": "ym2612"
    },
    {
      "channel": 4,
      "note": 45,
      "start": 30.1456,
      "duration": 0.0019,
      "velocity": 119,
      "chip": "ym2612"
    },
    {
      "channel": 1,
      "note": 24,
      "start": 30.146,
      "duration": 0.0062,
      "velocity": 127,
      "chip": "ym2612"
    },
    {
      "channel": 3,
      "note": 67,
      "start": 30.1464,
      "duration": 0.0024,
      "velocity": 127,
      "chip": "ym2612"
    },
    {
      "channel": 0,
      "note": 67,
      "start": 30.1473,
      "duration": 0.0007,
      "velocity": 119,
      "chip": "ym2612"
    },
    {
      "channel": 4,
      "note": 45,
      "start": 30.1477,
      "duration": 0.0018,
      "velocity": 119,
      "chip": "ym2612"
    },
    {
      "channel": 0,
      "note": 55,
      "start": 30.1482,
      "duration": 0.0023,
      "velocity": 119,
      "chip": "ym2612"
    },
    {
      "channel": 2,
      "note": 24,
      "start": 30.1485,
      "duration": 0.006,
      "velocity": 127,
      "chip": "ym2612"
    },
    {
      "channel": 3,
      "note": 62,
      "start": 30.149,
      "duration": 0.0018,
      "velocity": 127,
      "chip": "ym2612"
    },
    {
      "channel": 4,
      "note": 43,
      "start": 30.1498,
      "duration": 0.0014,
      "velocity": 119,
      "chip": "ym2612"
    },
    {
      "channel": 0,
      "note": 55,
      "start": 30.1507,
      "duration": 0.0012,
      "velocity": 119,
      "chip": "ym2612"
    },
    {
      "channel": 3,
      "note": 62,
      "start": 30.151,
      "duration": 0.0015,
      "velocity": 127,
      "chip": "ym2612"
    },
    {
      "channel": 4,
      "note": 43,
      "start": 30.1513,
      "duration": 0.0017,
      "velocity": 119,
      "chip": "ym2612"
    },
    {
      "channel": 0,
      "note": 57,
      "start": 30.152,
      "duration": 0.0022,
      "velocity": 119,
      "chip": "ym2612"
    },
    {
      "channel": 1,
      "note": 24,
      "start": 30.1523,
      "duration": 0.0227,
      "velocity": 127,
      "chip": "ym2612"
    },
    {
      "channel": 3,
      "note": 62,
      "start": 30.1526,
      "duration": 0.003,
      "velocity": 127,
      "chip": "ym2612"
    },
    {
      "channel": 4,
      "note": 45,
      "start": 30.1534,
      "duration": 0.0015,
      "velocity": 119,
      "chip": "ym2612"
    },
    {
      "channel": 0,
      "note": 60,
      "start": 30.1544,
      "duration": 0.0009,
      "velocity": 119,
      "chip": "ym2612"
    },
    {
      "channel": 2,
      "note": 24,
      "start": 30.1547,
      "duration": 0.1532,
      "velocity": 127,
      "chip": "ym2612"
    },
    {
      "channel": 4,
      "note": 45,
      "start": 30.1551,
      "duration": 0.0214,
      "velocity": 119,
      "chip": "ym2612"
    },
    {
      "channel": 0,
      "note": 64,
      "start": 30.1554,
      "duration": 0.0189,
      "velocity": 119,
      "chip": "ym2612"
    },
    {
      "channel": 3,
      "note": 62,
      "start": 30.1558,
      "duration": 0.02,
      "velocity": 127,
      "chip": "ym2612"
    },
    {
      "channel": 0,
      "note": 62,
      "start": 30.1745,
      "duration": 0.1343,
      "velocity": 119,
      "chip": "ym2612"
    },
    {
      "channel": 1,
      "note": 24,
      "start": 30.1752,
      "duration": 0.1357,
      "velocity": 127,
      "chip": "ym2612"
    },
    {
      "channel": 3,
      "note": 67,
      "start": 30.1759,
      "duration": 0.1332,
      "velocity": 127,
      "chip": "ym2612"
    },
    {
      "channel": 4,
      "note": 45,
      "start": 30.1766,
      "duration": 0.133,
      "velocity": 119,
      "chip": "ym2612"
    },
    {
      "channel": 2,
      "note": 24,
      "start": 30.3081,
      "duration": 0.0054,
      "velocity": 127,
      "chip": "ym2612"
    },
    {
      "channel": 0,
      "note": 67,
      "start": 30.309,
      "duration": 0.0037,
      "velocity": 119,
      "chip": "ym2612"
    },
    {
      "channel": 3,
      "note": 67,
      "start": 30.3093,
      "duration": 0.0021,
      "velocity": 127,
      "chip": "ym2612"
    },
    {
      "channel": 4,
      "note": 45,
      "start": 30.3101,
      "duration": 0.003,
      "velocity": 119,
      "chip": "ym2612"
    },
    {
      "channel": 1,
      "note": 24,
      "start": 30.3111,
      "duration": 0.0047,
      "velocity": 127,
      "chip": "ym2612"
    },
    {
      "channel": 3,
      "note": 62,
      "start": 30.3117,
      "duration": 0.0023,
      "velocity": 127,
      "chip": "ym2612"
    },
    {
      "channel": 0,
      "note": 57,
      "start": 30.3129,
      "duration": 0.0017,
      "velocity": 119,
      "chip": "ym2612"
    },
    {
      "channel": 4,
      "note": 45,
      "start": 30.3133,
      "duration": 0.0017,
      "velocity": 119,
      "chip": "ym2612"
    },
    {
      "channel": 2,
      "note": 24,
      "start": 30.3137,
      "duration": 0.0051,
      "velocity": 127,
      "chip": "ym2612"
    },
    {
      "channel": 3,
      "note": 67,
      "start": 30.3143,
      "duration": 0.0019,
      "velocity": 127,
      "chip": "ym2612"
    },
    {
      "channel": 0,
      "note": 57,
      "start": 30.3148,
      "duration": 0.0006,
      "velocity": 119,
      "chip": "ym2612"
    },
    {
      "channel": 4,
      "note": 45,
      "start": 30.3152,
      "duration": 0.0013,
      "velocity": 119,
      "chip": "ym2612"
    },
    {
      "channel": 0,
      "note": 60,
      "start": 30.3156,
      "duration": 0.0017,
      "velocity": 119,
      "chip": "ym2612"
    },
    {
      "channel": 1,
      "note": 24,
      "start": 30.316,
      "duration": 0.0054,
      "velocity": 127,
      "chip": "ym2612"
    },
    {
      "channel": 3,
      "note": 62,
      "start": 30.3164,
      "duration": 0.0012,
      "velocity": 127,
      "chip": "ym2612"
    },
    {
      "channel": 4,
      "note": 43,
      "start": 30.3167,
      "duration": 0.0012,
      "velocity": 119,
      "chip": "ym2612"
    },
    {
      "channel": 0,
      "note": 64,
      "start": 30.3175,
      "duration": 0.001,
      "velocity": 119,
      "chip": "ym2612"
    },
    {
      "channel": 3,
      "note": 62,
      "start": 30.3178,
      "duration": 0.0015,
      "velocity": 127,
      "chip": "ym2612"
    },
    {
      "channel": 4,
      "note": 43,
      "start": 30.318,
      "duration": 0.0018,
      "velocity": 119,
      "chip": "ym2612"
    },
    {
      "channel": 0,
      "note": 57,
      "start": 30.3187,
      "duration": 0.0023,
      "velocity": 119,
      "chip": "ym2612"
    },
    {
      "channel": 2,
      "note": 24,
      "start": 30.319,
      "duration": 0.0229,
      "velocity": 127,
      "chip": "ym2612"
    },
    {
      "channel": 3,
      "note": 62,
      "start": 30.3194,
      "duration": 0.0031,
      "velocity": 127,
      "chip": "ym2612"
    },
    {
      "channel": 4,
      "note": 45,
      "start": 30.3202,
      "duration": 0.0016,
      "velocity": 119,
      "chip": "ym2612"
    },
    {
      "channel": 0,
      "note": 57,
      "start": 30.3211,
      "duration": 0.001,
      "velocity": 119,
      "chip": "ym2612"
    },
    {
      "channel": 1,
      "note": 24,
      "start": 30.3216,
      "duration": 0.1544,
      "velocity": 127,
      "chip": "ym2612"
    },
    {
      "channel": 4,
      "note": 45,
      "start": 30.322,
      "duration": 0.0214,
      "velocity": 119,
      "chip": "ym2612"
    },
    {
      "channel": 0,
      "note": 60,
      "start": 30.3223,
      "duration": 0.0189,
      "velocity": 119,
      "chip": "ym2612"
    },
    {
      "channel": 3,
      "note": 62,
      "start": 30.3227,
      "duration": 0.02,
      "velocity": 127,
      "chip": "ym2612"
    },
    {
      "channel": 0,
      "note": 64,
      "start": 30.3414,
      "duration": 0.1331,
      "velocity": 119,
      "chip": "ym2612"
    },
    {
      "channel": 2,
      "note": 24,
      "start": 30.3422,
      "duration": 0.1367,
      "velocity": 127,
      "chip": "ym2612"
    },
    {
      "channel": 3,
      "note": 67,
      "start": 30.3429,
      "duration": 0.1333,
      "velocity": 127,
      "chip": "ym2612"
    },
    {
      "channel": 4,
      "note": 45,
      "start": 30.3436,
      "duration": 0.133,
      "velocity": 119,
      "chip": "ym2612"
    },
    {
      "channel": 0,
      "note": 55,
      "start": 30.4747,
      "duration": 0.0009,
      "velocity": 119,
      "chip": "ym2612"
    },
    {
      "channel": 0,
      "note": 57,
      "start": 30.4758,
      "duration": 0.0018,
      "velocity": 119,
      "chip": "ym2612"
    },
    {
      "channel": 1,
      "note": 24,
      "start": 30.4761,
      "duration": 0.0048,
      "velocity": 127,
      "chip": "ym2612"
    },
    {
      "channel": 3,
      "note": 67,
      "start": 30.4764,
      "duration": 0.0017,
      "velocity": 127,
      "chip": "ym2612"
    },
    {
      "channel": 4,
      "note": 45,
      "start": 30.4769,
      "duration": 0.0024,
      "velocity": 119,
      "chip": "ym2612"
    },
    {
      "channel": 0,
      "note": 60,
      "start": 30.4778,
      "duration": 0.0007,
      "velocity": 119,
      "chip": "ym2612"
    },
    {
      "channel": 3,
      "note": 62,
      "start": 30.4783,
      "duration": 0.0019,
      "velocity": 127,
      "chip": "ym2612"
    },
    {
      "channel": 0,
      "note": 64,
      "start": 30.4787,
      "duration": 0.001,
      "velocity": 119,
      "chip": "ym2612"
    },
    {
      "channel": 2,
      "note": 24,
      "start": 30.4791,
      "duration": 0.003,
      "velocity": 127,
      "chip": "ym2612"
    },
    {
      "channel": 4,
      "note": 45,
      "start": 30.4795,
      "duration": 0.0018,
      "velocity": 119,
      "chip": "ym2612"
    },
    {
      "channel": 0,
      "note": 62,
      "start": 30.48,
      "duration": 0.0017,
      "velocity": 119,
      "chip": "ym2612"
    },
    {
      "channel": 3,
      "note": 67,
      "start": 30.4804,
      "duration": 0.0022,
      "velocity": 127,
      "chip": "ym2612"
    },
    {
      "channel": 1,
      "note": 24,
      "start": 30.4811,
      "duration": 0.0049,
      "velocity": 127,
      "chip": "ym2612"
    },
    {
      "channel": 4,
      "note": 45,
      "start": 30.4815,
      "duration": 0.0018,
      "velocity": 119,
      "chip": "ym2612"
    },
    {
      "channel": 0,
      "note": 67,
      "start": 30.4819,
      "duration": 0.0024,
      "velocity": 119,
      "chip": "ym2612"
    },
    {
      "channel": 2,
      "note": 24,
      "start": 30.4823,
      "duration": 0.0093,
      "velocity": 127,
      "chip": "ym2612"
    },
    {
      "channel": 3,
      "note": 62,
      "start": 30.4828,
      "duration": 0.0019,
      "velocity": 127,
      "chip": "ym2612"
    },
    {
      "channel": 4,
      "note": 43,
      "start": 30.4836,
      "duration": 0.0015,
      "velocity": 119,
      "chip": "ym2612"
    },
    {
      "channel": 0,
      "note": 55,
      "start": 30.4845,
      "duration": 1.0631,
      "velocity": 1,
      "chip": "ym2612"
    },
    {
      "channel": 3,
      "note": 62,
      "start": 30.4849,
      "duration": 0.0034,
      "velocity": 127,
      "chip": "ym2612"
    },
    {
      "channel": 4,
      "note": 43,
      "start": 30.4854,
      "duration": 77.0266,
      "velocity": 119,
      "chip": "ym2612"
    },
    {
      "channel": 1,
      "note": 24,
      "start": 30.4862,
      "duration": 0.0064,
      "velocity": 127,
      "chip": "ym2612"
    },
    {
      "channel": 3,
      "note": 55,
      "start": 30.4886,
      "duration": 0.0035,
      "velocity": 127,
      "chip": "ym2612"
    },
    {
      "channel": 2,
      "note": 24,
      "start": 30.4919,
      "duration": 0.002,
      "velocity": 127,
      "chip": "ym2612"
    },
    {
      "channel": 3,
      "note": 62,
      "start": 30.4924,
      "duration": 0.0008,
      "velocity": 127,
      "chip": "ym2612"
    },
    {
      "channel": 1,
      "note": 24,
      "start": 30.4929,
      "duration": 0.0021,
      "velocity": 127,
      "chip": "ym2612"
    },
    {
      "channel": 3,
      "note": 67,
      "start": 30.4934,
      "duration": 0.001,
      "velocity": 127,
      "chip": "ym2612"
    },
    {
      "channel": 2,
      "note": 24,
      "start": 30.4941,
      "duration": 0.0023,
      "velocity": 127,
      "chip": "ym2612"
    },
    {
      "channel": 3,
      "note": 67,
      "start": 30.4946,
      "duration": 0.0007,
      "velocity": 127,
      "chip": "ym2612"
    },
    {
      "channel": 1,
      "note": 24,
      "start": 30.4951,
      "duration": 0.0022,
      "velocity": 127,
      "chip": "ym2612"
    },
    {
      "channel": 3,
      "note": 62,
      "start": 30.4956,
      "duration": 0.0013,
      "velocity": 127,
      "chip": "ym2612"
    },
    {
      "channel": 2,
      "note": 24,
      "start": 30.4966,
      "duration": 0.1105,
      "velocity": 127,
      "chip": "ym2612"
    },
    {
      "channel": 3,
      "note": 67,
      "start": 30.4971,
      "duration": 0.0007,
      "velocity": 127,
      "chip": "ym2612"
    },
    {
      "channel": 1,
      "note": 24,
      "start": 30.4976,
      "duration": 0.244,
      "velocity": 127,
      "chip": "ym2612"
    },
    {
      "channel": 3,
      "note": 62,
      "start": 30.498,
      "duration": 0.1098,
      "velocity": 127,
      "chip": "ym2612"
    },
    {
      "channel": 2,
      "note": 24,
      "start": 30.6073,
      "duration": 0.1352,
      "velocity": 127,
      "chip": "ym2612"
    },
    {
      "channel": 3,
      "note": 62,
      "start": 30.608,
      "duration": 0.1325,
      "velocity": 127,
      "chip": "ym2612"
    },
    {
      "channel": 3,
      "note": 62,
      "start": 30.7408,
      "duration": 0.0012,
      "velocity": 127,
      "chip": "ym2612"
    },
    {
      "channel": 1,
      "note": 24,
      "start": 30.7418,
      "duration": 0.0029,
      "velocity": 127,
      "chip": "ym2612"
    },
    {
      "channel": 3,
      "note": 62,
      "start": 30.7422,
      "duration": 0.0013,
      "velocity": 127,
      "chip": "ym2612"
    },
    {
      "channel": 2,
      "note": 24,
      "start": 30.7428,
      "duration": 0.0036,
      "velocity": 127,
      "chip": "ym2612"
    },
    {
      "channel": 3,
      "note": 67,
      "start": 30.7438,
      "duration": 0.0013,
      "velocity": 127,
      "chip": "ym2612"
    },
    {
      "channel": 1,
      "note": 24,
      "start": 30.7449,
      "duration": 0.0018,
      "velocity": 127,
      "chip": "ym2612"
    },
    {
      "channel": 3,
      "note": 67,
      "start": 30.7453,
      "duration": 0.0003,
      "velocity": 127,
      "chip": "ym2612"
    },
    {
      "channel": 3,
      "note": 62,
      "start": 30.7458,
      "duration": 0.0013,
      "velocity": 127,
      "chip": "ym2612"
    },
    {
      "channel": 2,
      "note": 24,
      "start": 30.7466,
      "duration": 0.0017,
      "velocity": 127,
      "chip": "ym2612"
    },
    {
      "channel": 1,
      "note": 24,
      "start": 30.7469,
      "duration": 0.0028,
      "velocity": 127,
      "chip": "ym2612"
    },
    {
      "channel": 3,
      "note": 67,
      "start": 30.7474,
      "duration": 0.0014,
      "velocity": 127,
      "chip": "ym2612"
    },
    {
      "channel": 2,
      "note": 24,
      "start": 30.7485,
      "duration": 0.0024,
      "velocity": 127,
      "chip": "ym2612"
    },
    {
      "channel": 3,
      "note": 62,
      "start": 30.749,
      "duration": 0.0003,
      "velocity": 127,
      "chip": "ym2612"
    },
    {
      "channel": 3,
      "note": 62,
      "start": 30.7495,
      "duration": 0.0007,
      "velocity": 127,
      "chip": "ym2612"
    },
    {
      "channel": 1,
      "note": 24,
      "start": 30.75,
      "duration": 0.0017,
      "velocity": 127,
      "chip": "ym2612"
    },
    {
      "channel": 3,
      "note": 62,
      "start": 30.7504,
      "duration": 0.0009,
      "velocity": 127,
      "chip": "ym2612"
    },
    {
      "channel": 2,
      "note": 24,
      "start": 30.7511,
      "duration": 0.0018,
      "velocity": 127,
      "chip": "ym2612"
    },
    {
      "channel": 3,
      "note": 62,
      "start": 30.7515,
      "duration": 0.0007,
      "velocity": 127,
      "chip": "ym2612"
    },
    {
      "channel": 1,
      "note": 24,
      "start": 30.752,
      "duration": 0.0019,
      "velocity": 127,
      "chip": "ym2612"
    },
    {
      "channel": 3,
      "note": 67,
      "start": 30.7524,
      "duration": 0.001,
      "velocity": 127,
      "chip": "ym2612"
    },
    {
      "channel": 2,
      "note": 24,
      "start": 30.7532,
      "duration": 0.0023,
      "velocity": 127,
      "chip": "ym2612"
    },
    {
      "channel": 3,
      "note": 67,
      "start": 30.7536,
      "duration": 0.0007,
      "velocity": 127,
      "chip": "ym2612"
    },
    {
      "channel": 1,
      "note": 24,
      "start": 30.7541,
      "duration": 0.0022,
      "velocity": 127,
      "chip": "ym2612"
    },
    {
      "channel": 3,
      "note": 62,
      "start": 30.7546,
      "duration": 0.0013,
      "velocity": 127,
      "chip": "ym2612"
    },
    {
      "channel": 2,
      "note": 24,
      "start": 30.7557,
      "duration": 0.2604,
      "velocity": 127,
      "chip": "ym2612"
    },
    {
      "channel": 3,
      "note": 67,
      "start": 30.7562,
      "duration": 0.0005,
      "velocity": 127,
      "chip": "ym2612"
    },
    {
      "channel": 1,
      "note": 24,
      "start": 30.7565,
      "duration": 0.2612,
      "velocity": 127,
      "chip": "ym2612"
    },
    {
      "channel": 3,
      "note": 62,
      "start": 30.7569,
      "duration": 0.1092,
      "velocity": 127,
      "chip": "ym2612"
    },
    {
      "channel": 3,
      "note": 62,
      "start": 30.8663,
      "duration": 0.1505,
      "velocity": 127,
      "chip": "ym2612"
    },
    {
      "channel": 2,
      "note": 24,
      "start": 31.0163,
      "duration": 0.0024,
      "velocity": 127,
      "chip": "ym2612"
    },
    {
      "channel": 3,
      "note": 62,
      "start": 31.017,
      "duration": 0.0012,
      "velocity": 127,
      "chip": "ym2612"
    },
    {
      "channel": 1,
      "note": 24,
      "start": 31.018,
      "duration": 0.0025,
      "velocity": 127,
      "chip": "ym2612"
    },
    {
      "channel": 3,
      "note": 62,
      "start": 31.0184,
      "duration": 0.0009,
      "velocity": 127,
      "chip": "ym2612"
    },
    {
      "channel": 2,
      "note": 24,
      "start": 31.0189,
      "duration": 0.0032,
      "velocity": 127,
      "chip": "ym2612"
    },
    {
      "channel": 3,
      "note": 67,
      "start": 31.0196,
      "duration": 0.0012,
      "velocity": 127,
      "chip": "ym2612"
    },
    {
      "channel": 1,
      "note": 24,
      "start": 31.0206,
      "duration": 0.0028,
      "velocity": 127,
      "chip": "ym2612"
    },
    {
      "channel": 3,
      "note": 67,
      "start": 31.021,
      "duration": 0.0003,
      "velocity": 127,
      "chip": "ym2612"
    },
    {
      "channel": 3,
      "note": 62,
      "start": 31.0215,
      "duration": 0.0011,
      "velocity": 127,
      "chip": "ym2612"
    },
    {
      "channel": 2,
      "note": 24,
      "start": 31.0224,
      "duration": 0.0014,
      "velocity": 127,
      "chip": "ym2612"
    },
    {
      "channel": 3,
      "note": 67,
      "start": 31.0229,
      "duration": 0.0013,
      "velocity": 127,
      "chip": "ym2612"
    },
    {
      "channel": 1,
      "note": 24,
      "start": 31.0236,
      "duration": 0.0014,
      "velocity": 127,
      "chip": "ym2612"
    },
    {
      "channel": 2,
      "note": 24,
      "start": 31.0239,
      "duration": 0.0062,
      "velocity": 127,
      "chip": "ym2612"
    },
    {
      "channel": 3,
      "note": 62,
      "start": 31.0244,
      "duration": 0.0002,
      "velocity": 127,
      "chip": "ym2612"
    },
    {
      "channel": 3,
      "note": 62,
      "start": 31.0248,
      "duration": 0.0025,
      "velocity": 127,
      "chip": "ym2612"
    },
    {
      "channel": 1,
      "note": 24,
      "start": 31.0251,
      "duration": 0.006,
      "velocity": 127,
      "chip": "ym2612"
    },
    {
      "channel": 3,
      "note": 55,
      "start": 31.0276,
      "duration": 0.003,
      "velocity": 127,
      "chip": "ym2612"
    },
    {
      "channel": 2,
      "note": 24,
      "start": 31.0303,
      "duration": 0.002,
      "velocity": 127,
      "chip": "ym2612"
    },
    {
      "channel": 3,
      "note": 62,
      "start": 31.0309,
      "duration": 0.0008,
      "velocity": 127,
      "chip": "ym2612"
    },
    {
      "channel": 1,
      "note": 24,
      "start": 31.0313,
      "duration": 0.0021,
      "velocity": 127,
      "chip": "ym2612"
    },
    {
      "channel": 3,
      "note": 67,
      "start": 31.0318,
      "duration": 0.0011,
      "velocity": 127,
      "chip": "ym2612"
    },
    {
      "channel": 2,
      "note": 24,
      "start": 31.0326,
      "duration": 0.0024,
      "velocity": 127,
      "chip": "ym2612"
    },
    {
      "channel": 3,
      "note": 67,
      "start": 31.0332,
      "duration": 0.0007,
      "velocity": 127,
      "chip": "ym2612"
    },
    {
      "channel": 1,
      "note": 24,
      "start": 31.0336,
      "duration": 0.0022,
      "velocity": 127,
      "chip": "ym2612"
    },
    {
      "channel": 3,
      "note": 62,
      "start": 31.0341,
      "duration": 0.0013,
      "velocity": 127,
      "chip": "ym2612"
    },
    {
      "channel": 2,
      "note": 24,
      "start": 31.0352,
      "duration": 0.1104,
      "velocity": 127,
      "chip": "ym2612"
    },
    {
      "channel": 3,
      "note": 67,
      "start": 31.0357,
      "duration": 0.0005,
      "velocity": 127,
      "chip": "ym2612"
    },
    {
      "channel": 1,
      "note": 24,
      "start": 31.036,
      "duration": 0.244,
      "velocity": 127,
      "chip": "ym2612"
    },
    {
      "channel": 3,
      "note": 62,
      "start": 31.0364,
      "duration": 0.1099,
      "velocity": 127,
      "chip": "ym2612"
    },
    {
      "channel": 2,
      "note": 24,
      "start": 31.1458,
      "duration": 0.1351,
      "velocity": 127,
      "chip": "ym2612"
    },
    {
      "channel": 3,
      "note": 62,
      "start": 31.1465,
      "duration": 0.1325,
      "velocity": 127,
      "chip": "ym2612"
    },
    {
      "channel": 3,
      "note": 62,
      "start": 31.2793,
      "duration": 0.0012,
      "velocity": 127,
      "chip": "ym2612"
    },
    {
      "channel": 1,
      "note": 24,
      "start": 31.2803,
      "duration": 0.0017,
      "velocity": 127,
      "chip": "ym2612"
    },
    {
      "channel": 3,
      "note": 62,
      "start": 31.2807,
      "duration": 0.0007,
      "velocity": 127,
      "chip": "ym2612"
    },
    {
      "channel": 2,
      "note": 24,
      "start": 31.2811,
      "duration": 0.0028,
      "velocity": 127,
      "chip": "ym2612"
    },
    {
      "channel": 3,
      "note": 67,
      "start": 31.2815,
      "duration": 0.0009,
      "velocity": 127,
      "chip": "ym2612"
    },
    {
      "channel": 1,
      "note": 24,
      "start": 31.2823,
      "duration": 0.002,
      "velocity": 127,
      "chip": "ym2612"
    },
    {
      "channel": 3,
      "note": 67,
      "start": 31.2827,
      "duration": 0.0003,
      "velocity": 127,
      "chip": "ym2612"
    },
    {
      "channel": 3,
      "note": 62,
      "start": 31.2832,
      "duration": 0.0015,
      "velocity": 127,
      "chip": "ym2612"
    },
    {
      "channel": 2,
      "note": 24,
      "start": 31.2841,
      "duration": 0.0018,
      "velocity": 127,
      "chip": "ym2612"
    },
    {
      "channel": 1,
      "note": 24,
      "start": 31.2845,
      "duration": 0.0027,
      "velocity": 127,
      "chip": "ym2612"
    },
    {
      "channel": 3,
      "note": 67,
      "start": 31.2851,
      "duration": 0.0013,
      "velocity": 127,
      "chip": "ym2612"
    },
    {
      "channel": 2,
      "note": 24,
      "start": 31.2861,
      "duration": 0.0022,
      "velocity": 127,
      "chip": "ym2612"
    },
    {
      "channel": 3,
      "note": 62,
      "start": 31.2866,
      "duration": 0.0002,
      "velocity": 127,
      "chip": "ym2612"
    },
    {
      "channel": 3,
      "note": 62,
      "start": 31.287,
      "duration": 0.0006,
      "velocity": 127,
      "chip": "ym2612"
    },
    {
      "channel": 1,
      "note": 24,
      "start": 31.2874,
      "duration": 0.002,
      "velocity": 127,
      "chip": "ym2612"
    },
    {
      "channel": 3,
      "note": 62,
      "start": 31.2878,
      "duration": 0.0011,
      "velocity": 127,
      "chip": "ym2612"
    },
    {
      "channel": 2,
      "note": 24,
      "start": 31.2886,
      "duration": 0.0019,
      "velocity": 127,
      "chip": "ym2612"
    },
    {
      "channel": 3,
      "note": 62,
      "start": 31.289,
      "duration": 0.0007,
      "velocity": 127,
      "chip": "ym2612"
    },
    {
      "channel": 1,
      "note": 24,
      "start": 31.2895,
      "duration": 0.0017,
      "velocity": 127,
      "chip": "ym2612"
    },
    {
      "channel": 3,
      "note": 67,
      "start": 31.2899,
      "duration": 0.0009,
      "velocity": 127,
      "chip": "ym2612"
    },
    {
      "channel": 2,
      "note": 24,
      "start": 31.2906,
      "duration": 0.002,
      "velocity": 127,
      "chip": "ym2612"
    },
    {
      "channel": 3,
      "note": 67,
      "start": 31.291,
      "duration": 0.0006,
      "velocity": 127,
      "chip": "ym2612"
    },
    {
      "channel": 1,
      "note": 24,
      "start": 31.2914,
      "duration": 0.0021,
      "velocity": 127,
      "chip": "ym2612"
    },
    {
      "channel": 3,
      "note": 62,
      "start": 31.2918,
      "duration": 0.0013,
      "velocity": 127,
      "chip": "ym2612"
    },
    {
      "channel": 2,
      "note": 24,
      "start": 31.2929,
      "duration": 0.2439,
      "velocity": 127,
      "chip": "ym2612"
    },
    {
      "channel": 3,
      "note": 67,
      "start": 31.2933,
      "duration": 0.0007,
      "velocity": 127,
      "chip": "ym2612"
    },
    {
      "channel": 1,
      "note": 24,
      "start": 31.2939,
      "duration": 0.2445,
      "velocity": 127,
      "chip": "ym2612"
    },
    {
      "channel": 3,
      "note": 62,
      "start": 31.2943,
      "duration": 0.1092,
      "velocity": 127,
      "chip": "ym2612"
    },
    {
      "channel": 3,
      "note": 62,
      "start": 31.4037,
      "duration": 0.1338,
      "velocity": 127,
      "chip": "ym2612"
    },
    {
      "channel": 2,
      "note": 24,
      "start": 31.537,
      "duration": 0.0022,
      "velocity": 127,
      "chip": "ym2612"
    },
    {
      "channel": 3,
      "note": 62,
      "start": 31.5377,
      "duration": 0.0011,
      "velocity": 127,
      "chip": "ym2612"
    },
    {
      "channel": 1,
      "note": 24,
      "start": 31.5386,
      "duration": 0.0024,
      "velocity": 127,
      "chip": "ym2612"
    },
    {
      "channel": 3,
      "note": 62,
      "start": 31.539,
      "duration": 0.0009,
      "velocity": 127,
      "chip": "ym2612"
    },
    {
      "channel": 2,
      "note": 24,
      "start": 31.5394,
      "duration": 0.0032,
      "velocity": 127,
      "chip": "ym2612"
    },
    {
      "channel": 3,
      "note": 67,
      "start": 31.5402,
      "duration": 0.0013,
      "velocity": 127,
      "chip": "ym2612"
    },
    {
      "channel": 1,
      "note": 24,
      "start": 31.5412,
      "duration": 0.0027,
      "velocity": 127,
      "chip": "ym2612"
    },
    {
      "channel": 3,
      "note": 67,
      "start": 31.5417,
      "duration": 0.0002,
      "velocity": 127,
      "chip": "ym2612"
    },
    {
      "channel": 3,
      "note": 62,
      "start": 31.5421,
      "duration": 0.001,
      "velocity": 127,
      "chip": "ym2612"
    },
    {
      "channel": 2,
      "note": 24,
      "start": 31.5429,
      "duration": 0.0015,
      "velocity": 127,
      "chip": "ym2612"
    },
    {
      "channel": 3,
      "note": 67,
      "start": 31.5434,
      "duration": 0.0015,
      "velocity": 127,
      "chip": "ym2612"
    },
    {
      "channel": 1,
      "note": 24,
      "start": 31.5441,
      "duration": 0.0038,
      "velocity": 127,
      "chip": "ym2612"
    },
    {
      "channel": 2,
      "note": 24,
      "start": 31.5446,
      "duration": 0.0107,
      "velocity": 127,
      "chip": "ym2612"
    },
    {
      "channel": 3,
      "note": 62,
      "start": 31.5451,
      "duration": 0.0001,
      "velocity": 127,
      "chip": "ym2612"
    },
    {
      "channel": 3,
      "note": 62,
      "start": 31.5454,
      "duration": 0.005,
      "velocity": 127,
      "chip": "ym2612"
    },
    {
      "channel": 0,
      "note": 67,
      "start": 31.5477,
      "duration": 0.0056,
      "velocity": 127,
      "chip": "ym2612"
    },
    {
      "channel": 1,
      "note": 24,
      "start": 31.5481,
      "duration": 0.0336,
      "velocity": 127,
      "chip": "ym2612"
    },
    {
      "channel": 3,
      "note": 55,
      "start": 31.5506,
      "duration": 0.0052,
      "velocity": 127,
      "chip": "ym2612"
    },
    {
      "channel": 0,
      "note": 69,
      "start": 31.5535,
      "duration": 0.4468,
      "velocity": 107,
      "chip": "ym2612"
    },
    {
      "channel": 2,
      "note": 24,
      "start": 31.5556,
      "duration": 0.1596,
      "velocity": 127,
      "chip": "ym2612"
    },
    {
      "channel": 3,
      "note": 62,
      "start": 31.556,
      "duration": 0.0266,
      "velocity": 127,
      "chip": "ym2612"
    },
    {
      "channel": 1,
      "note": 24,
      "start": 31.582,
      "duration": 0.4191,
      "velocity": 127,
      "chip": "ym2612"
    },
    {
      "channel": 3,
      "note": 67,
      "start": 31.5828,
      "duration": 0.2825,
      "velocity": 127,
      "chip": "ym2612"
    },
    {
      "channel": 2,
      "note": 24,
      "start": 31.7154,
      "duration": 0.5665,
      "velocity": 127,
      "chip": "ym2612"
    },
    {
      "channel": 3,
      "note": 67,
      "start": 31.8655,
      "duration": 0.1364,
      "velocity": 127,
      "chip": "ym2612"
    },
    {
      "channel": 0,
      "note": 74,
      "start": 32.0006,
      "duration": 0.002,
      "velocity": 107,
      "chip": "ym2612"
    },
    {
      "channel": 1,
      "note": 24,
      "start": 32.0012,
      "duration": 0.5639,
      "velocity": 127,
      "chip": "ym2612"
    },
    {
      "channel": 3,
      "note": 62,
      "start": 32.002,
      "duration": 0.2805,
      "velocity": 127,
      "chip": "ym2612"
    },
    {
      "channel": 0,
      "note": 73,
      "start": 32.0026,
      "duration": 0.012,
      "velocity": 107,
      "chip": "ym2612"
    },
    {
      "channel": 0,
      "note": 72,
      "start": 32.0146,
      "duration": 0.0333,
      "velocity": 107,
      "chip": "ym2612"
    },
    {
      "channel": 0,
      "note": 70,
      "start": 32.0479,
      "duration": 0.0167,
      "velocity": 107,
      "chip": "ym2612"
    },
    {
      "channel": 0,
      "note": 69,
      "start": 32.0646,
      "duration": 0.0167,
      "velocity": 107,
      "chip": "ym2612"
    },
    {
      "channel": 0,
      "note": 68,
      "start": 32.0812,
      "duration": 0.0167,
      "velocity": 107,
      "chip": "ym2612"
    },
    {
      "channel": 0,
      "note": 67,
      "start": 32.0979,
      "duration": 0.0167,
      "velocity": 107,
      "chip": "ym2612"
    },
    {
      "channel": 0,
      "note": 66,
      "start": 32.1146,
      "duration": 0.0338,
      "velocity": 107,
      "chip": "ym2612"
    },
    {
      "channel": 0,
      "note": 74,
      "start": 32.1486,
      "duration": 0.0008,
      "velocity": 107,
      "chip": "ym2612"
    },
    {
      "channel": 0,
      "note": 73,
      "start": 32.1494,
      "duration": 0.0151,
      "velocity": 107,
      "chip": "ym2612"
    },
    {
      "channel": 0,
      "note": 72,
      "start": 32.1646,
      "duration": 0.0167,
      "velocity": 107,
      "chip": "ym2612"
    },
    {
      "channel": 0,
      "note": 70,
      "start": 32.1812,
      "duration": 0.0167,
      "velocity": 107,
      "chip": "ym2612"
    },
    {
      "channel": 0,
      "note": 69,
      "start": 32.1979,
      "duration": 0.0167,
      "velocity": 107,
      "chip": "ym2612"
    },
    {
      "channel": 0,
      "note": 68,
      "start": 32.2146,
      "duration": 0.0333,
      "velocity": 107,
      "chip": "ym2612"
    },
    {
      "channel": 0,
      "note": 67,
      "start": 32.2479,
      "duration": 0.0167,
      "velocity": 107,
      "chip": "ym2612"
    },
    {
      "channel": 0,
      "note": 66,
      "start": 32.2646,
      "duration": 0.0188,
      "velocity": 107,
      "chip": "ym2612"
    },
    {
      "channel": 2,
      "note": 24,
      "start": 32.2821,
      "duration": 0.4172,
      "velocity": 127,
      "chip": "ym2612"
    },
    {
      "channel": 3,
      "note": 67,
      "start": 32.2828,
      "duration": 0.2832,
      "velocity": 127,
      "chip": "ym2612"
    },
    {
      "channel": 0,
      "note": 65,
      "start": 32.2834,
      "duration": 0.0146,
      "velocity": 107,
      "chip": "ym2612"
    },
    {
      "channel": 0,
      "note": 64,
      "start": 32.2979,
      "duration": 0.0167,
      "velocity": 107,
      "chip": "ym2612"
    },
    {
      "channel": 0,
      "note": 63,
      "start": 32.3146,
      "duration": 0.0333,
      "velocity": 107,
      "chip": "ym2612"
    },
    {
      "channel": 0,
      "note": 62,
      "start": 32.3479,
      "duration": 0.0167,
      "velocity": 107,
      "chip": "ym2612"
    },
    {
      "channel": 0,
      "note": 61,
      "start": 32.3646,
      "duration": 0.0167,
      "velocity": 107,
      "chip": "ym2612"
    },
    {
      "channel": 0,
      "note": 60,
      "start": 32.3812,
      "duration": 0.0167,
      "velocity": 107,
      "chip": "ym2612"
    },
    {
      "channel": 0,
      "note": 58,
      "start": 32.3979,
      "duration": 0.0172,
      "velocity": 107,
      "chip": "ym2612"
    },
    {
      "channel": 0,
      "note": 71,
      "start": 32.4153,
      "duration": 0.0008,
      "velocity": 107,
      "chip": "ym2612"
    },
    {
      "channel": 0,
      "note": 70,
      "start": 32.4161,
      "duration": 0.0318,
      "velocity": 107,
      "chip": "ym2612"
    },
    {
      "channel": 0,
      "note": 68,
      "start": 32.4479,
      "duration": 0.0167,
      "velocity": 107,
      "chip": "ym2612"
    },
    {
      "channel": 0,
      "note": 67,
      "start": 32.4646,
      "duration": 0.0167,
      "velocity": 107,
      "chip": "ym2612"
    },
    {
      "channel": 0,
      "note": 66,
      "start": 32.4812,
      "duration": 0.0167,
      "velocity": 107,
      "chip": "ym2612"
    },
    {
      "channel": 0,
      "note": 66,
      "start": 32.4979,
      "duration": 0.0167,
      "velocity": 107,
      "chip": "ym2612"
    },
    {
      "channel": 0,
      "note": 65,
      "start": 32.5146,
      "duration": 0.0333,
      "velocity": 107,
      "chip": "ym2612"
    },
    {
      "channel": 0,
      "note": 64,
      "start": 32.5479,
      "duration": 0.0188,
      "velocity": 107,
      "chip": "ym2612"
    },
    {
      "channel": 1,
      "note": 24,
      "start": 32.5654,
      "duration": 0.4165,
      "velocity": 127,
      "chip": "ym2612"
    },
    {
      "channel": 3,
      "note": 62,
      "start": 32.5661,
      "duration": 0.1339,
      "velocity": 127,
      "chip": "ym2612"
    },
    {
      "channel": 0,
      "note": 63,
      "start": 32.5667,
      "duration": 0.0146,
      "velocity": 107,
      "chip": "ym2612"
    },
    {
      "channel": 0,
      "note": 61,
      "start": 32.5812,
      "duration": 0.0167,
      "velocity": 107,
      "chip": "ym2612"
    },
    {
      "channel": 0,
      "note": 60,
      "start": 32.5979,
      "duration": 0.0167,
      "velocity": 107,
      "chip": "ym2612"
    },
    {
      "channel": 0,
      "note": 59,
      "start": 32.6146,
      "duration": 0.0333,
      "velocity": 107,
      "chip": "ym2612"
    },
    {
      "channel": 0,
      "note": 58,
      "start": 32.6479,
      "duration": 0.0167,
      "velocity": 107,
      "chip": "ym2612"
    },
    {
      "channel": 0,
      "note": 56,
      "start": 32.6646,
      "duration": 0.0167,
      "velocity": 107,
      "chip": "ym2612"
    },
    {
      "channel": 0,
      "note": 55,
      "start": 32.6812,
      "duration": 0.0172,
      "velocity": 107,
      "chip": "ym2612"
    },
    {
      "channel": 0,
      "note": 71,
      "start": 32.6987,
      "duration": 0.002,
      "velocity": 107,
      "chip": "ym2612"
    },
    {
      "channel": 2,
      "note": 24,
      "start": 32.6994,
      "duration": 0.5657,
      "velocity": 127,
      "chip": "ym2612"
    },
    {
      "channel": 3,
      "note": 62,
      "start": 32.7001,
      "duration": 0.1492,
      "velocity": 127,
      "chip": "ym2612"
    },
    {
      "channel": 0,
      "note": 70,
      "start": 32.7007,
      "duration": 0.0139,
      "velocity": 107,
      "chip": "ym2612"
    },
    {
      "channel": 0,
      "note": 68,
      "start": 32.7146,
      "duration": 0.0333,
      "velocity": 107,
      "chip": "ym2612"
    },
    {
      "channel": 0,
      "note": 67,
      "start": 32.7479,
      "duration": 0.0167,
      "velocity": 107,
      "chip": "ym2612"
    },
    {
      "channel": 0,
      "note": 66,
      "start": 32.7646,
      "duration": 0.0167,
      "velocity": 107,
      "chip": "ym2612"
    },
    {
      "channel": 0,
      "note": 66,
      "start": 32.7812,
      "duration": 0.0167,
      "velocity": 107,
      "chip": "ym2612"
    },
    {
      "channel": 0,
      "note": 65,
      "start": 32.7979,
      "duration": 0.0167,
      "velocity": 107,
      "chip": "ym2612"
    },
    {
      "channel": 0,
      "note": 64,
      "start": 32.8146,
      "duration": 0.0338,
      "velocity": 107,
      "chip": "ym2612"
    },
    {
      "channel": 0,
      "note": 67,
      "start": 32.8486,
      "duration": 0.0015,
      "velocity": 107,
      "chip": "ym2612"
    },
    {
      "channel": 3,
      "note": 62,
      "start": 32.8495,
      "duration": 0.2658,
      "velocity": 127,
      "chip": "ym2612"
    },
    {
      "channel": 0,
      "note": 66,
      "start": 32.8501,
      "duration": 0.0145,
      "velocity": 107,
      "chip": "ym2612"
    },
    {
      "channel": 0,
      "note": 65,
      "start": 32.8646,
      "duration": 0.0167,
      "velocity": 107,
      "chip": "ym2612"
    },
    {
      "channel": 0,
      "note": 64,
      "start": 32.8812,
      "duration": 0.0167,
      "velocity": 107,
      "chip": "ym2612"
    },
    {
      "channel": 0,
      "note": 63,
      "start": 32.8979,
      "duration": 0.0167,
      "velocity": 107,
      "chip": "ym2612"
    },
    {
      "channel": 0,
      "note": 62,
      "start": 32.9146,
      "duration": 0.0333,
      "velocity": 107,
      "chip": "ym2612"
    },
    {
      "channel": 0,
      "note": 61,
      "start": 32.9479,
      "duration": 0.0167,
      "velocity": 107,
      "chip": "ym2612"
    },
    {
      "channel": 0,
      "note": 60,
      "start": 32.9646,
      "duration": 0.0181,
      "velocity": 107,
      "chip": "ym2612"
    },
    {
      "channel": 1,
      "note": 24,
      "start": 32.982,
      "duration": 0.5664,
      "velocity": 127,
      "chip": "ym2612"
    },
    {
      "channel": 0,
      "note": 59,
      "start": 32.9827,
      "duration": 0.0152,
      "velocity": 107,
      "chip": "ym2612"
    },
    {
      "channel": 0,
      "note": 57,
      "start": 32.9979,
      "duration": 0.0167,
      "velocity": 107,
      "chip": "ym2612"
    },
    {
      "channel": 0,
      "note": 56,
      "start": 33.0146,
      "duration": 0.0333,
      "velocity": 107,
      "chip": "ym2612"
    },
    {
      "channel": 0,
      "note": 55,
      "start": 33.0479,
      "duration": 0.0167,
      "velocity": 107,
      "chip": "ym2612"
    },
    {
      "channel": 0,
      "note": 54,
      "start": 33.0646,
      "duration": 0.0167,
      "velocity": 107,
      "chip": "ym2612"
    },
    {
      "channel": 0,
      "note": 53,
      "start": 33.0812,
      "duration": 0.0167,
      "velocity": 107,
      "chip": "ym2612"
    },
    {
      "channel": 0,
      "note": 52,
      "start": 33.0979,
      "duration": 0.0181,
      "velocity": 107,
      "chip": "ym2612"
    },
    {
      "channel": 3,
      "note": 62,
      "start": 33.1155,
      "duration": 0.1504,
      "velocity": 127,
      "chip": "ym2612"
    },
    {
      "channel": 0,
      "note": 51,
      "start": 33.116,
      "duration": 0.0319,
      "velocity": 107,
      "chip": "ym2612"
    },
    {
      "channel": 0,
      "note": 50,
      "start": 33.1479,
      "duration": 0.0167,
      "velocity": 107,
      "chip": "ym2612"
    },
    {
      "channel": 0,
      "note": 49,
      "start": 33.1646,
      "duration": 0.0167,
      "velocity": 107,
      "chip": "ym2612"
    },
    {
      "channel": 0,
      "note": 48,
      "start": 33.1812,
      "duration": 0.0167,
      "velocity": 107,
      "chip": "ym2612"
    },
    {
      "channel": 0,
      "note": 47,
      "start": 33.1979,
      "duration": 0.0167,
      "velocity": 107,
      "chip": "ym2612"
    },
    {
      "channel": 0,
      "note": 45,
      "start": 33.2146,
      "duration": 0.0333,
      "velocity": 107,
      "chip": "ym2612"
    },
    {
      "channel": 0,
      "note": 44,
      "start": 33.2479,
      "duration": 0.0187,
      "velocity": 107,
      "chip": "ym2612"
    },
    {
      "channel": 2,
      "note": 24,
      "start": 33.2654,
      "duration": 0.5498,
      "velocity": 127,
      "chip": "ym2612"
    },
    {
      "channel": 3,
      "note": 67,
      "start": 33.2661,
      "duration": 0.2831,
      "velocity": 127,
      "chip": "ym2612"
    },
    {
      "channel": 0,
      "note": 43,
      "start": 33.2666,
      "duration": 0.0146,
      "velocity": 107,
      "chip": "ym2612"
    },
    {
      "channel": 0,
      "note": 42,
      "start": 33.2812,
      "duration": 0.0167,
      "velocity": 107,
      "chip": "ym2612"
    },
    {
      "channel": 0,
      "note": 41,
      "start": 33.2979,
      "duration": 0.0167,
      "velocity": 107,
      "chip": "ym2612"
    },
    {
      "channel": 0,
      "note": 40,
      "start": 33.3146,
      "duration": 0.0333,
      "velocity": 107,
      "chip": "ym2612"
    },
    {
      "channel": 0,
      "note": 39,
      "start": 33.3479,
      "duration": 0.0167,
      "velocity": 107,
      "chip": "ym2612"
    },
    {
      "channel": 0,
      "note": 38,
      "start": 33.3646,
      "duration": 0.0167,
      "velocity": 107,
      "chip": "ym2612"
    },
    {
      "channel": 0,
      "note": 37,
      "start": 33.3812,
      "duration": 0.0333,
      "velocity": 107,
      "chip": "ym2612"
    },
    {
      "channel": 0,
      "note": 36,
      "start": 33.4146,
      "duration": 0.0333,
      "velocity": 107,
      "chip": "ym2612"
    },
    {
      "channel": 0,
      "note": 35,
      "start": 33.4479,
      "duration": 0.0167,
      "velocity": 107,
      "chip": "ym2612"
    },
    {
      "channel": 0,
      "note": 33,
      "start": 33.4646,
      "duration": 0.0167,
      "velocity": 107,
      "chip": "ym2612"
    },
    {
      "channel": 0,
      "note": 32,
      "start": 33.4812,
      "duration": 0.0167,
      "velocity": 107,
      "chip": "ym2612"
    },
    {
      "channel": 0,
      "note": 31,
      "start": 33.4979,
      "duration": 0.0167,
      "velocity": 107,
      "chip": "ym2612"
    },
    {
      "channel": 0,
      "note": 30,
      "start": 33.5146,
      "duration": 0.0354,
      "velocity": 107,
      "chip": "ym2612"
    },
    {
      "channel": 1,
      "note": 24,
      "start": 33.5486,
      "duration": 0.4165,
      "velocity": 127,
      "chip": "ym2612"
    },
    {
      "channel": 3,
      "note": 67,
      "start": 33.5494,
      "duration": 0.1325,
      "velocity": 127,
      "chip": "ym2612"
    },
    {
      "channel": 0,
      "note": 29,
      "start": 33.55,
      "duration": 0.0146,
      "velocity": 107,
      "chip": "ym2612"
    },
    {
      "channel": 0,
      "note": 28,
      "start": 33.5646,
      "duration": 0.0167,
      "velocity": 107,
      "chip": "ym2612"
    },
    {
      "channel": 0,
      "note": 27,
      "start": 33.5812,
      "duration": 0.0167,
      "velocity": 107,
      "chip": "ym2612"
    },
    {
      "channel": 0,
      "note": 26,
      "start": 33.5979,
      "duration": 0.0167,
      "velocity": 107,
      "chip": "ym2612"
    },
    {
      "channel": 0,
      "note": 25,
      "start": 33.6146,
      "duration": 0.0333,
      "velocity": 107,
      "chip": "ym2612"
    },
    {
      "channel": 0,
      "note": 24,
      "start": 33.6479,
      "duration": 0.0167,
      "velocity": 107,
      "chip": "ym2612"
    },
    {
      "channel": 0,
      "note": 23,
      "start": 33.6646,
      "duration": 0.0181,
      "velocity": 107,
      "chip": "ym2612"
    },
    {
      "channel": 3,
      "note": 62,
      "start": 33.6821,
      "duration": 0.2838,
      "velocity": 127,
      "chip": "ym2612"
    },
    {
      "channel": 0,
      "note": 21,
      "start": 33.6827,
      "duration": 0.0152,
      "velocity": 107,
      "chip": "ym2612"
    },
    {
      "channel": 0,
      "note": 116,
      "start": 33.6979,
      "duration": 0.0167,
      "velocity": 107,
      "chip": "ym2612"
    },
    {
      "channel": 0,
      "note": 115,
      "start": 33.7146,
      "duration": 0.0333,
      "velocity": 107,
      "chip": "ym2612"
    },
    {
      "channel": 0,
      "note": 114,
      "start": 33.7479,
      "duration": 0.0167,
      "velocity": 107,
      "chip": "ym2612"
    },
    {
      "channel": 0,
      "note": 113,
      "start": 33.7646,
      "duration": 0.0167,
      "velocity": 107,
      "chip": "ym2612"
    },
    {
      "channel": 0,
      "note": 112,
      "start": 33.7812,
      "duration": 0.0167,
      "velocity": 107,
      "chip": "ym2612"
    },
    {
      "channel": 0,
      "note": 111,
      "start": 33.7979,
      "duration": 0.0181,
      "velocity": 107,
      "chip": "ym2612"
    },
    {
      "channel": 2,
      "note": 24,
      "start": 33.8154,
      "duration": 0.4331,
      "velocity": 127,
      "chip": "ym2612"
    },
    {
      "channel": 0,
      "note": 110,
      "start": 33.816,
      "duration": 0.0319,
      "velocity": 107,
      "chip": "ym2612"
    },
    {
      "channel": 0,
      "note": 109,
      "start": 33.8479,
      "duration": 0.0167,
      "velocity": 107,
      "chip": "ym2612"
    },
    {
      "channel": 0,
      "note": 108,
      "start": 33.8646,
      "duration": 0.0167,
      "velocity": 107,
      "chip": "ym2612"
    },
    {
      "channel": 0,
      "note": 107,
      "start": 33.8812,
      "duration": 0.0167,
      "velocity": 107,
      "chip": "ym2612"
    },
    {
      "channel": 0,
      "note": 105,
      "start": 33.8979,
      "duration": 0.0167,
      "velocity": 107,
      "chip": "ym2612"
    },
    {
      "channel": 0,
      "note": 104,
      "start": 33.9146,
      "duration": 0.0333,
      "velocity": 107,
      "chip": "ym2612"
    },
    {
      "channel": 0,
      "note": 103,
      "start": 33.9479,
      "duration": 0.0188,
      "velocity": 107,
      "chip": "ym2612"
    },
    {
      "channel": 1,
      "note": 24,
      "start": 33.9654,
      "duration": 0.421,
      "velocity": 127,
      "chip": "ym2612"
    },
    {
      "channel": 3,
      "note": 67,
      "start": 33.9661,
      "duration": 0.2831,
      "velocity": 127,
      "chip": "ym2612"
    },
    {
      "channel": 0,
      "note": 102,
      "start": 33.9667,
      "duration": 0.0146,
      "velocity": 107,
      "chip": "ym2612"
    },
    {
      "channel": 0,
      "note": 101,
      "start": 33.9812,
      "duration": 0.0167,
      "velocity": 107,
      "chip": "ym2612"
    },
    {
      "channel": 0,
      "note": 100,
      "start": 33.9979,
      "duration": 0.0167,
      "velocity": 107,
      "chip": "ym2612"
    },
    {
      "channel": 0,
      "note": 99,
      "start": 34.0146,
      "duration": 0.0333,
      "velocity": 107,
      "chip": "ym2612"
    },
    {
      "channel": 0,
      "note": 98,
      "start": 34.0479,
      "duration": 0.0167,
      "velocity": 107,
      "chip": "ym2612"
    },
    {
      "channel": 0,
      "note": 97,
      "start": 34.0646,
      "duration": 0.0167,
      "velocity": 107,
      "chip": "ym2612"
    },
    {
      "channel": 0,
      "note": 96,
      "start": 34.0812,
      "duration": 0.0333,
      "velocity": 107,
      "chip": "ym2612"
    },
    {
      "channel": 0,
      "note": 95,
      "start": 34.1146,
      "duration": 0.0333,
      "velocity": 107,
      "chip": "ym2612"
    },
    {
      "channel": 0,
      "note": 93,
      "start": 34.1479,
      "duration": 0.0167,
      "velocity": 107,
      "chip": "ym2612"
    },
    {
      "channel": 0,
      "note": 92,
      "start": 34.1646,
      "duration": 0.0167,
      "velocity": 107,
      "chip": "ym2612"
    },
    {
      "channel": 0,
      "note": 91,
      "start": 34.1812,
      "duration": 0.0167,
      "velocity": 107,
      "chip": "ym2612"
    },
    {
      "channel": 0,
      "note": 90,
      "start": 34.1979,
      "duration": 0.0167,
      "velocity": 107,
      "chip": "ym2612"
    },
    {
      "channel": 0,
      "note": 89,
      "start": 34.2146,
      "duration": 0.0354,
      "velocity": 107,
      "chip": "ym2612"
    },
    {
      "channel": 2,
      "note": 24,
      "start": 34.2487,
      "duration": 0.142,
      "velocity": 127,
      "chip": "ym2612"
    },
    {
      "channel": 3,
      "note": 62,
      "start": 34.2494,
      "duration": 0.1325,
      "velocity": 127,
      "chip": "ym2612"
    },
    {
      "channel": 0,
      "note": 88,
      "start": 34.25,
      "duration": 0.0146,
      "velocity": 107,
      "chip": "ym2612"
    },
    {
      "channel": 0,
      "note": 87,
      "start": 34.2646,
      "duration": 0.0167,
      "velocity": 107,
      "chip": "ym2612"
    },
    {
      "channel": 0,
      "note": 86,
      "start": 34.2812,
      "duration": 0.0167,
      "velocity": 107,
      "chip": "ym2612"
    },
    {
      "channel": 0,
      "note": 85,
      "start": 34.2979,
      "duration": 0.0167,
      "velocity": 107,
      "chip": "ym2612"
    },
    {
      "channel": 0,
      "note": 84,
      "start": 34.3146,
      "duration": 0.0333,
      "velocity": 107,
      "chip": "ym2612"
    },
    {
      "channel": 0,
      "note": 83,
      "start": 34.3479,
      "duration": 0.0167,
      "velocity": 107,
      "chip": "ym2612"
    },
    {
      "channel": 0,
      "note": 81,
      "start": 34.3646,
      "duration": 0.0184,
      "velocity": 107,
      "chip": "ym2612"
    },
    {
      "channel": 3,
      "note": 62,
      "start": 34.3822,
      "duration": 0.0054,
      "velocity": 127,
      "chip": "ym2612"
    },
    {
      "channel": 0,
      "note": 80,
      "start": 34.3829,
      "duration": 0.0002,
      "velocity": 107,
      "chip": "ym2612"
    },
    {
      "channel": 0,
      "note": 79,
      "start": 34.3832,
      "duration": 0.0002,
      "velocity": 107,
      "chip": "ym2612"
    },
    {
      "channel": 0,
      "note": 78,
      "start": 34.3833,
      "duration": 0.0002,
      "velocity": 107,
      "chip": "ym2612"
    },
    {
      "channel": 0,
      "note": 77,
      "start": 34.3835,
      "duration": 0.0002,
      "velocity": 107,
      "chip": "ym2612"
    },
    {
      "channel": 0,
      "note": 76,
      "start": 34.3837,
      "duration": 0.0002,
      "velocity": 107,
      "chip": "ym2612"
    },
    {
      "channel": 0,
      "note": 75,
      "start": 34.3839,
      "duration": 0.0002,
      "velocity": 107,
      "chip": "ym2612"
    },
    {
      "channel": 0,
      "note": 74,
      "start": 34.3841,
      "duration": 0.0018,
      "velocity": 1,
      "chip": "ym2612"
    },
    {
      "channel": 0,
      "note": 67,
      "start": 34.3861,
      "duration": 0.0043,
      "velocity": 127,
      "chip": "ym2612"
    },
    {
      "channel": 1,
      "note": 24,
      "start": 34.3867,
      "duration": 0.0511,
      "velocity": 127,
      "chip": "ym2612"
    },
    {
      "channel": 3,
      "note": 62,
      "start": 34.3879,
      "duration": 0.0035,
      "velocity": 127,
      "chip": "ym2612"
    },
    {
      "channel": 0,
      "note": 69,
      "start": 34.3905,
      "duration": 0.4659,
      "velocity": 127,
      "chip": "ym2612"
    },
    {
      "channel": 2,
      "note": 24,
      "start": 34.391,
      "duration": 0.1802,
      "velocity": 127,
      "chip": "ym2612"
    },
    {
      "channel": 3,
      "note": 62,
      "start": 34.3916,
      "duration": 0.0469,
      "velocity": 127,
      "chip": "ym2612"
    },
    {
      "channel": 1,
      "note": 24,
      "start": 34.438,
      "duration": 0.4191,
      "velocity": 127,
      "chip": "ym2612"
    },
    {
      "channel": 3,
      "note": 67,
      "start": 34.4388,
      "duration": 0.2659,
      "velocity": 127,
      "chip": "ym2612"
    },
    {
      "channel": 2,
      "note": 24,
      "start": 34.5714,
      "duration": 0.5671,
      "velocity": 127,
      "chip": "ym2612"
    },
    {
      "channel": 3,
      "note": 67,
      "start": 34.7048,
      "duration": 0.1531,
      "velocity": 127,
      "chip": "ym2612"
    },
    {
      "channel": 0,
      "note": 52,
      "start": 34.8566,
      "duration": 0.002,
      "velocity": 127,
      "chip": "ym2612"
    },
    {
      "channel": 1,
      "note": 24,
      "start": 34.8573,
      "duration": 0.5473,
      "velocity": 127,
      "chip": "ym2612"
    },
    {
      "channel": 3,
      "note": 62,
      "start": 34.8581,
      "duration": 0.2812,
      "velocity": 127,
      "chip": "ym2612"
    },
    {
      "channel": 0,
      "note": 51,
      "start": 34.8587,
      "duration": 0.012,
      "velocity": 127,
      "chip": "ym2612"
    },
    {
      "channel": 0,
      "note": 50,
      "start": 34.8706,
      "duration": 0.0167,
      "velocity": 127,
      "chip": "ym2612"
    },
    {
      "channel": 0,
      "note": 49,
      "start": 34.8873,
      "duration": 0.0167,
      "velocity": 127,
      "chip": "ym2612"
    },
    {
      "channel": 0,
      "note": 48,
      "start": 34.9039,
      "duration": 0.0333,
      "velocity": 127,
      "chip": "ym2612"
    },
    {
      "channel": 0,
      "note": 46,
      "start": 34.9373,
      "duration": 0.0167,
      "velocity": 127,
      "chip": "ym2612"
    },
    {
      "channel": 0,
      "note": 45,
      "start": 34.9539,
      "duration": 0.0167,
      "velocity": 127,
      "chip": "ym2612"
    },
    {
      "channel": 0,
      "note": 44,
      "start": 34.9706,
      "duration": 0.0333,
      "velocity": 127,
      "chip": "ym2612"
    },
    {
      "channel": 0,
      "note": 43,
      "start": 35.0039,
      "duration": 0.0333,
      "velocity": 127,
      "chip": "ym2612"
    },
    {
      "channel": 0,
      "note": 42,
      "start": 35.0373,
      "duration": 0.0167,
      "velocity": 127,
      "chip": "ym2612"
    },
    {
      "channel": 0,
      "note": 41,
      "start": 35.0539,
      "duration": 0.0167,
      "velocity": 127,
      "chip": "ym2612"
    },
    {
      "channel": 0,
      "note": 40,
      "start": 35.0706,
      "duration": 0.0167,
      "velocity": 127,
      "chip": "ym2612"
    },
    {
      "channel": 0,
      "note": 39,
      "start": 35.0873,
      "duration": 0.0167,
      "velocity": 127,
      "chip": "ym2612"
    },
    {
      "channel": 0,
      "note": 38,
      "start": 35.1039,
      "duration": 0.0338,
      "velocity": 127,
      "chip": "ym2612"
    },
    {
      "channel": 0,
      "note": 52,
      "start": 35.138,
      "duration": 0.002,
      "velocity": 127,
      "chip": "ym2612"
    },
    {
      "channel": 2,
      "note": 24,
      "start": 35.1387,
      "duration": 0.5492,
      "velocity": 127,
      "chip": "ym2612"
    },
    {
      "channel": 3,
      "note": 67,
      "start": 35.1394,
      "duration": 0.2659,
      "velocity": 127,
      "chip": "ym2612"
    },
    {
      "channel": 0,
      "note": 51,
      "start": 35.14,
      "duration": 0.0139,
      "velocity": 127,
      "chip": "ym2612"
    },
    {
      "channel": 0,
      "note": 50,
      "start": 35.1539,
      "duration": 0.0167,
      "velocity": 127,
      "chip": "ym2612"
    },
    {
      "channel": 0,
      "note": 49,
      "start": 35.1706,
      "duration": 0.0167,
      "velocity": 127,
      "chip": "ym2612"
    },
    {
      "channel": 0,
      "note": 48,
      "start": 35.1873,
      "duration": 0.0167,
      "velocity": 127,
      "chip": "ym2612"
    },
    {
      "channel": 0,
      "note": 46,
      "start": 35.2039,
      "duration": 0.0333,
      "velocity": 127,
      "chip": "ym2612"
    },
    {
      "channel": 0,
      "note": 45,
      "start": 35.2373,
      "duration": 0.0167,
      "velocity": 127,
      "chip": "ym2612"
    },
    {
      "channel": 0,
      "note": 44,
      "start": 35.2539,
      "duration": 0.0172,
      "velocity": 127,
      "chip": "ym2612"
    },
    {
      "channel": 0,
      "note": 48,
      "start": 35.2713,
      "duration": 0.0008,
      "velocity": 127,
      "chip": "ym2612"
    },
    {
      "channel": 0,
      "note": 47,
      "start": 35.2721,
      "duration": 0.0151,
      "velocity": 127,
      "chip": "ym2612"
    },
    {
      "channel": 0,
      "note": 45,
      "start": 35.2873,
      "duration": 0.0167,
      "velocity": 127,
      "chip": "ym2612"
    },
    {
      "channel": 0,
      "note": 44,
      "start": 35.3039,
      "duration": 0.0333,
      "velocity": 127,
      "chip": "ym2612"
    },
    {
      "channel": 0,
      "note": 43,
      "start": 35.3373,
      "duration": 0.0167,
      "velocity": 127,
      "chip": "ym2612"
    },
    {
      "channel": 0,
      "note": 42,
      "start": 35.3539,
      "duration": 0.0167,
      "velocity": 127,
      "chip": "ym2612"
    },
    {
      "channel": 0,
      "note": 41,
      "start": 35.3706,
      "duration": 0.0167,
      "velocity": 127,
      "chip": "ym2612"
    },
    {
      "channel": 0,
      "note": 40,
      "start": 35.3873,
      "duration": 0.0188,
      "velocity": 127,
      "chip": "ym2612"
    },
    {
      "channel": 1,
      "note": 24,
      "start": 35.4047,
      "duration": 0.4338,
      "velocity": 127,
      "chip": "ym2612"
    },
    {
      "channel": 3,
      "note": 62,
      "start": 35.4055,
      "duration": 0.1499,
      "velocity": 127,
      "chip": "ym2612"
    },
    {
      "channel": 0,
      "note": 39,
      "start": 35.4061,
      "duration": 0.0312,
      "velocity": 127,
      "chip": "ym2612"
    },
    {
      "channel": 0,
      "note": 38,
      "start": 35.4373,
      "duration": 0.0167,
      "velocity": 127,
      "chip": "ym2612"
    },
    {
      "channel": 0,
      "note": 37,
      "start": 35.4539,
      "duration": 0.0167,
      "velocity": 127,
      "chip": "ym2612"
    },
    {
      "channel": 0,
      "note": 36,
      "start": 35.4706,
      "duration": 0.0167,
      "velocity": 127,
      "chip": "ym2612"
    },
    {
      "channel": 0,
      "note": 35,
      "start": 35.4873,
      "duration": 0.0167,
      "velocity": 127,
      "chip": "ym2612"
    },
    {
      "channel": 0,
      "note": 33,
      "start": 35.5039,
      "duration": 0.0333,
      "velocity": 127,
      "chip": "ym2612"
    },
    {
      "channel": 0,
      "note": 32,
      "start": 35.5373,
      "duration": 0.0172,
      "velocity": 127,
      "chip": "ym2612"
    },
    {
      "channel": 0,
      "note": 48,
      "start": 35.5546,
      "duration": 0.0015,
      "velocity": 127,
      "chip": "ym2612"
    },
    {
      "channel": 3,
      "note": 62,
      "start": 35.5555,
      "duration": 0.1331,
      "velocity": 127,
      "chip": "ym2612"
    },
    {
      "channel": 0,
      "note": 47,
      "start": 35.5561,
      "duration": 0.0145,
      "velocity": 127,
      "chip": "ym2612"
    },
    {
      "channel": 0,
      "note": 45,
      "start": 35.5706,
      "duration": 0.0167,
      "velocity": 127,
      "chip": "ym2612"
    },
    {
      "channel": 0,
      "note": 44,
      "start": 35.5873,
      "duration": 0.0167,
      "velocity": 127,
      "chip": "ym2612"
    },
    {
      "channel": 0,
      "note": 43,
      "start": 35.6039,
      "duration": 0.0333,
      "velocity": 127,
      "chip": "ym2612"
    },
    {
      "channel": 0,
      "note": 42,
      "start": 35.6373,
      "duration": 0.0167,
      "velocity": 127,
      "chip": "ym2612"
    },
    {
      "channel": 0,
      "note": 41,
      "start": 35.6539,
      "duration": 0.0167,
      "velocity": 127,
      "chip": "ym2612"
    },
    {
      "channel": 0,
      "note": 40,
      "start": 35.6706,
      "duration": 0.0188,
      "velocity": 127,
      "chip": "ym2612"
    },
    {
      "channel": 2,
      "note": 24,
      "start": 35.6881,
      "duration": 0.4171,
      "velocity": 127,
      "chip": "ym2612"
    },
    {
      "channel": 3,
      "note": 62,
      "start": 35.6888,
      "duration": 0.2825,
      "velocity": 127,
      "chip": "ym2612"
    },
    {
      "channel": 0,
      "note": 39,
      "start": 35.6894,
      "duration": 0.0146,
      "velocity": 127,
      "chip": "ym2612"
    },
    {
      "channel": 0,
      "note": 38,
      "start": 35.7039,
      "duration": 0.0333,
      "velocity": 127,
      "chip": "ym2612"
    },
    {
      "channel": 0,
      "note": 37,
      "start": 35.7373,
      "duration": 0.0167,
      "velocity": 127,
      "chip": "ym2612"
    },
    {
      "channel": 0,
      "note": 36,
      "start": 35.7539,
      "duration": 0.0167,
      "velocity": 127,
      "chip": "ym2612"
    },
    {
      "channel": 0,
      "note": 35,
      "start": 35.7706,
      "duration": 0.0167,
      "velocity": 127,
      "chip": "ym2612"
    },
    {
      "channel": 0,
      "note": 33,
      "start": 35.7873,
      "duration": 0.0167,
      "velocity": 127,
      "chip": "ym2612"
    },
    {
      "channel": 0,
      "note": 32,
      "start": 35.8039,
      "duration": 0.0338,
      "velocity": 127,
      "chip": "ym2612"
    },
    {
      "channel": 0,
      "note": 48,
      "start": 35.838,
      "duration": 0.0014,
      "velocity": 127,
      "chip": "ym2612"
    },
    {
      "channel": 1,
      "note": 24,
      "start": 35.8387,
      "duration": 0.5498,
      "velocity": 127,
      "chip": "ym2612"
    },
    {
      "channel": 0,
      "note": 47,
      "start": 35.8394,
      "duration": 0.0145,
      "velocity": 127,
      "chip": "ym2612"
    },
    {
      "channel": 0,
      "note": 45,
      "start": 35.8539,
      "duration": 0.0167,
      "velocity": 127,
      "chip": "ym2612"
    },
    {
      "channel": 0,
      "note": 44,
      "start": 35.8706,
      "duration": 0.0167,
      "velocity": 127,
      "chip": "ym2612"
    },
    {
      "channel": 0,
      "note": 43,
      "start": 35.8873,
      "duration": 0.0167,
      "velocity": 127,
      "chip": "ym2612"
    },
    {
      "channel": 0,
      "note": 42,
      "start": 35.9039,
      "duration": 0.0333,
      "velocity": 127,
      "chip": "ym2612"
    },
    {
      "channel": 0,
      "note": 41,
      "start": 35.9373,
      "duration": 0.0167,
      "velocity": 127,
      "chip": "ym2612"
    },
    {
      "channel": 0,
      "note": 40,
      "start": 35.9539,
      "duration": 0.0181,
      "velocity": 127,
      "chip": "ym2612"
    },
    {
      "channel": 3,
      "note": 62,
      "start": 35.9716,
      "duration": 0.1344,
      "velocity": 127,
      "chip": "ym2612"
    },
    {
      "channel": 0,
      "note": 39,
      "start": 35.9721,
      "duration": 0.0152,
      "velocity": 127,
      "chip": "ym2612"
    },
    {
      "channel": 0,
      "note": 38,
      "start": 35.9873,
      "duration": 0.0167,
      "velocity": 127,
      "chip": "ym2612"
    },
    {
      "channel": 0,
      "note": 37,
      "start": 36.0039,
      "duration": 0.0333,
      "velocity": 127,
      "chip": "ym2612"
    },
    {
      "channel": 0,
      "note": 36,
      "start": 36.0373,
      "duration": 0.0167,
      "velocity": 127,
      "chip": "ym2612"
    },
    {
      "channel": 0,
      "note": 35,
      "start": 36.0539,
      "duration": 0.0167,
      "velocity": 127,
      "chip": "ym2612"
    },
    {
      "channel": 0,
      "note": 33,
      "start": 36.0706,
      "duration": 0.0167,
      "velocity": 127,
      "chip": "ym2612"
    },
    {
      "channel": 0,
      "note": 32,
      "start": 36.0873,
      "duration": 0.0172,
      "velocity": 127,
      "chip": "ym2612"
    },
    {
      "channel": 0,
      "note": 52,
      "start": 36.1046,
      "duration": 0.002,
      "velocity": 127,
      "chip": "ym2612"
    },
    {
      "channel": 2,
      "note": 24,
      "start": 36.1054,
      "duration": 0.5658,
      "velocity": 127,
      "chip": "ym2612"
    },
    {
      "channel": 3,
      "note": 67,
      "start": 36.1061,
      "duration": 0.2832,
      "velocity": 127,
      "chip": "ym2612"
    },
    {
      "channel": 0,
      "note": 51,
      "start": 36.1067,
      "duration": 0.0306,
      "velocity": 127,
      "chip": "ym2612"
    },
    {
      "channel": 0,
      "note": 50,
      "start": 36.1373,
      "duration": 0.0167,
      "velocity": 127,
      "chip": "ym2612"
    },
    {
      "channel": 0,
      "note": 49,
      "start": 36.1539,
      "duration": 0.0167,
      "velocity": 127,
      "chip": "ym2612"
    },
    {
      "channel": 0,
      "note": 48,
      "start": 36.1706,
      "duration": 0.0167,
      "velocity": 127,
      "chip": "ym2612"
    },
    {
      "channel": 0,
      "note": 46,
      "start": 36.1873,
      "duration": 0.0167,
      "velocity": 127,
      "chip": "ym2612"
    },
    {
      "channel": 0,
      "note": 45,
      "start": 36.2039,
      "duration": 0.0333,
      "velocity": 127,
      "chip": "ym2612"
    },
    {
      "channel": 0,
      "note": 44,
      "start": 36.2373,
      "duration": 0.0172,
      "velocity": 127,
      "chip": "ym2612"
    },
    {
      "channel": 0,
      "note": 48,
      "start": 36.2546,
      "duration": 0.0008,
      "velocity": 127,
      "chip": "ym2612"
    },
    {
      "channel": 0,
      "note": 47,
      "start": 36.2555,
      "duration": 0.0151,
      "velocity": 127,
      "chip": "ym2612"
    },
    {
      "channel": 0,
      "note": 45,
      "start": 36.2706,
      "duration": 0.0167,
      "velocity": 127,
      "chip": "ym2612"
    },
    {
      "channel": 0,
      "note": 44,
      "start": 36.2873,
      "duration": 0.0167,
      "velocity": 127,
      "chip": "ym2612"
    },
    {
      "channel": 0,
      "note": 43,
      "start": 36.3039,
      "duration": 0.0333,
      "velocity": 127,
      "chip": "ym2612"
    },
    {
      "channel": 0,
      "note": 42,
      "start": 36.3373,
      "duration": 0.0167,
      "velocity": 127,
      "chip": "ym2612"
    },
    {
      "channel": 0,
      "note": 41,
      "start": 36.3539,
      "duration": 0.0167,
      "velocity": 127,
      "chip": "ym2612"
    },
    {
      "channel": 0,
      "note": 40,
      "start": 36.3706,
      "duration": 0.0172,
      "velocity": 127,
      "chip": "ym2612"
    },
    {
      "channel": 0,
      "note": 45,
      "start": 36.388,
      "duration": 0.002,
      "velocity": 127,
      "chip": "ym2612"
    },
    {
      "channel": 1,
      "note": 24,
      "start": 36.3887,
      "duration": 0.4195,
      "velocity": 127,
      "chip": "ym2612"
    },
    {
      "channel": 3,
      "note": 67,
      "start": 36.3894,
      "duration": 0.1485,
      "velocity": 127,
      "chip": "ym2612"
    },
    {
      "channel": 0,
      "note": 44,
      "start": 36.39,
      "duration": 0.0139,
      "velocity": 127,
      "chip": "ym2612"
    },
    {
      "channel": 0,
      "note": 43,
      "start": 36.4039,
      "duration": 0.0333,
      "velocity": 127,
      "chip": "ym2612"
    },
    {
      "channel": 0,
      "note": 42,
      "start": 36.4373,
      "duration": 0.0167,
      "velocity": 127,
      "chip": "ym2612"
    },
    {
      "channel": 0,
      "note": 41,
      "start": 36.4539,
      "duration": 0.0167,
      "velocity": 127,
      "chip": "ym2612"
    },
    {
      "channel": 0,
      "note": 40,
      "start": 36.4706,
      "duration": 0.0167,
      "velocity": 127,
      "chip": "ym2612"
    },
    {
      "channel": 0,
      "note": 39,
      "start": 36.4873,
      "duration": 0.0167,
      "velocity": 127,
      "chip": "ym2612"
    },
    {
      "channel": 0,
      "note": 38,
      "start": 36.5039,
      "duration": 0.0348,
      "velocity": 127,
      "chip": "ym2612"
    },
    {
      "channel": 3,
      "note": 62,
      "start": 36.5382,
      "duration": 0.269,
      "velocity": 127,
      "chip": "ym2612"
    },
    {
      "channel": 0,
      "note": 37,
      "start": 36.5387,
      "duration": 0.0152,
      "velocity": 127,
      "chip": "ym2612"
    },
    {
      "channel": 0,
      "note": 36,
      "start": 36.5539,
      "duration": 0.0167,
      "velocity": 127,
      "chip": "ym2612"
    },
    {
      "channel": 0,
      "note": 34,
      "start": 36.5706,
      "duration": 0.0167,
      "velocity": 127,
      "chip": "ym2612"
    },
    {
      "channel": 0,
      "note": 33,
      "start": 36.5873,
      "duration": 0.0167,
      "velocity": 127,
      "chip": "ym2612"
    },
    {
      "channel": 0,
      "note": 32,
      "start": 36.6039,
      "duration": 0.0333,
      "velocity": 127,
      "chip": "ym2612"
    },
    {
      "channel": 0,
      "note": 31,
      "start": 36.6373,
      "duration": 0.0167,
      "velocity": 127,
      "chip": "ym2612"
    },
    {
      "channel": 0,
      "note": 30,
      "start": 36.6539,
      "duration": 0.0181,
      "velocity": 127,
      "chip": "ym2612"
    },
    {
      "channel": 2,
      "note": 24,
      "start": 36.6714,
      "duration": 0.1371,
      "velocity": 127,
      "chip": "ym2612"
    },
    {
      "channel": 0,
      "note": 29,
      "start": 36.6721,
      "duration": 0.0152,
      "velocity": 127,
      "chip": "ym2612"
    },
    {
      "channel": 0,
      "note": 28,
      "start": 36.6873,
      "duration": 0.0167,
      "velocity": 127,
      "chip": "ym2612"
    },
    {
      "channel": 0,
      "note": 27,
      "start": 36.7039,
      "duration": 0.0333,
      "velocity": 127,
      "chip": "ym2612"
    },
    {
      "channel": 0,
      "note": 26,
      "start": 36.7373,
      "duration": 0.0167,
      "velocity": 127,
      "chip": "ym2612"
    },
    {
      "channel": 0,
      "note": 25,
      "start": 36.7539,
      "duration": 0.0167,
      "velocity": 127,
      "chip": "ym2612"
    },
    {
      "channel": 0,
      "note": 24,
      "start": 36.7706,
      "duration": 0.0167,
      "velocity": 127,
      "chip": "ym2612"
    },
    {
      "channel": 0,
      "note": 22,
      "start": 36.7873,
      "duration": 0.0191,
      "velocity": 1,
      "chip": "ym2612"
    },
    {
      "channel": 0,
      "note": 55,
      "start": 36.8066,
      "duration": 0.1857,
      "velocity": 1,
      "chip": "ym2612"
    },
    {
      "channel": 3,
      "note": 67,
      "start": 36.8075,
      "duration": 0.0014,
      "velocity": 127,
      "chip": "ym2612"
    },
    {
      "channel": 1,
      "note": 24,
      "start": 36.8083,
      "duration": 0.1848,
      "velocity": 127,
      "chip": "ym2612"
    },
    {
      "channel": 2,
      "note": 24,
      "start": 36.8087,
      "duration": 0.1923,
      "velocity": 127,
      "chip": "ym2612"
    },
    {
      "channel": 3,
      "note": 62,
      "start": 36.8091,
      "duration": 0.05,
      "velocity": 127,
      "chip": "ym2612"
    },
    {
      "channel": 3,
      "note": 62,
      "start": 36.8594,
      "duration": 0.1365,
      "velocity": 127,
      "chip": "ym2612"
    },
    {
      "channel": 0,
      "note": 67,
      "start": 36.9925,
      "duration": 0.0059,
      "velocity": 127,
      "chip": "ym2612"
    },
    {
      "channel": 1,
      "note": 24,
      "start": 36.9933,
      "duration": 0.0389,
      "velocity": 127,
      "chip": "ym2612"
    },
    {
      "channel": 3,
      "note": 55,
      "start": 36.9961,
      "duration": 0.0053,
      "velocity": 127,
      "chip": "ym2612"
    },
    {
      "channel": 0,
      "note": 69,
      "start": 36.9985,
      "duration": 0.4522,
      "velocity": 107,
      "chip": "ym2612"
    },
    {
      "channel": 2,
      "note": 24,
      "start": 37.0012,
      "duration": 0.181,
      "velocity": 127,
      "chip": "ym2612"
    },
    {
      "channel": 3,
      "note": 62,
      "start": 37.0016,
      "duration": 0.0313,
      "velocity": 127,
      "chip": "ym2612"
    },
    {
      "channel": 1,
      "note": 24,
      "start": 37.0324,
      "duration": 0.4191,
      "velocity": 127,
      "chip": "ym2612"
    },
    {
      "channel": 3,
      "note": 67,
      "start": 37.0332,
      "duration": 0.2825,
      "velocity": 127,
      "chip": "ym2612"
    },
    {
      "channel": 2,
      "note": 24,
      "start": 37.1825,
      "duration": 0.5498,
      "velocity": 127,
      "chip": "ym2612"
    },
    {
      "channel": 3,
      "note": 67,
      "start": 37.3159,
      "duration": 0.1364,
      "velocity": 127,
      "chip": "ym2612"
    },
    {
      "channel": 0,
      "note": 74,
      "start": 37.451,
      "duration": 0.002,
      "velocity": 107,
      "chip": "ym2612"
    },
    {
      "channel": 1,
      "note": 24,
      "start": 37.4516,
      "duration": 0.5639,
      "velocity": 127,
      "chip": "ym2612"
    },
    {
      "channel": 3,
      "note": 62,
      "start": 37.4524,
      "duration": 0.2805,
      "velocity": 127,
      "chip": "ym2612"
    },
    {
      "channel": 0,
      "note": 73,
      "start": 37.453,
      "duration": 0.0286,
      "velocity": 107,
      "chip": "ym2612"
    },
    {
      "channel": 0,
      "note": 72,
      "start": 37.4817,
      "duration": 0.0167,
      "velocity": 107,
      "chip": "ym2612"
    },
    {
      "channel": 0,
      "note": 70,
      "start": 37.4983,
      "duration": 0.0167,
      "velocity": 107,
      "chip": "ym2612"
    },
    {
      "channel": 0,
      "note": 69,
      "start": 37.515,
      "duration": 0.0167,
      "velocity": 107,
      "chip": "ym2612"
    },
    {
      "channel": 0,
      "note": 68,
      "start": 37.5317,
      "duration": 0.0167,
      "velocity": 107,
      "chip": "ym2612"
    },
    {
      "channel": 0,
      "note": 67,
      "start": 37.5483,
      "duration": 0.0333,
      "velocity": 107,
      "chip": "ym2612"
    },
    {
      "channel": 0,
      "note": 66,
      "start": 37.5817,
      "duration": 0.0172,
      "velocity": 107,
      "chip": "ym2612"
    },
    {
      "channel": 0,
      "note": 74,
      "start": 37.599,
      "duration": 0.0008,
      "velocity": 107,
      "chip": "ym2612"
    },
    {
      "channel": 0,
      "note": 73,
      "start": 37.5998,
      "duration": 0.0151,
      "velocity": 107,
      "chip": "ym2612"
    },
    {
      "channel": 0,
      "note": 72,
      "start": 37.615,
      "duration": 0.0167,
      "velocity": 107,
      "chip": "ym2612"
    },
    {
      "channel": 0,
      "note": 70,
      "start": 37.6317,
      "duration": 0.0167,
      "velocity": 107,
      "chip": "ym2612"
    },
    {
      "channel": 0,
      "note": 69,
      "start": 37.6483,
      "duration": 0.0333,
      "velocity": 107,
      "chip": "ym2612"
    },
    {
      "channel": 0,
      "note": 68,
      "start": 37.6817,
      "duration": 0.0167,
      "velocity": 107,
      "chip": "ym2612"
    },
    {
      "channel": 0,
      "note": 67,
      "start": 37.6983,
      "duration": 0.0167,
      "velocity": 107,
      "chip": "ym2612"
    },
    {
      "channel": 0,
      "note": 66,
      "start": 37.715,
      "duration": 0.0188,
      "velocity": 107,
      "chip": "ym2612"
    },
    {
      "channel": 2,
      "note": 24,
      "start": 37.7325,
      "duration": 0.4172,
      "velocity": 127,
      "chip": "ym2612"
    },
    {
      "channel": 3,
      "note": 67,
      "start": 37.7332,
      "duration": 0.2832,
      "velocity": 127,
      "chip": "ym2612"
    },
    {
      "channel": 0,
      "note": 65,
      "start": 37.7338,
      "duration": 0.0146,
      "velocity": 107,
      "chip": "ym2612"
    },
    {
      "channel": 0,
      "note": 64,
      "start": 37.7483,
      "duration": 0.0333,
      "velocity": 107,
      "chip": "ym2612"
    },
    {
      "channel": 0,
      "note": 63,
      "start": 37.7817,
      "duration": 0.0167,
      "velocity": 107,
      "chip": "ym2612"
    },
    {
      "channel": 0,
      "note": 62,
      "start": 37.7983,
      "duration": 0.0167,
      "velocity": 107,
      "chip": "ym2612"
    },
    {
      "channel": 0,
      "note": 61,
      "start": 37.815,
      "duration": 0.0167,
      "velocity": 107,
      "chip": "ym2612"
    },
    {
      "channel": 0,
      "note": 60,
      "start": 37.8317,
      "duration": 0.0167,
      "velocity": 107,
      "chip": "ym2612"
    },
    {
      "channel": 0,
      "note": 58,
      "start": 37.8483,
      "duration": 0.0338,
      "velocity": 107,
      "chip": "ym2612"
    },
    {
      "channel": 0,
      "note": 71,
      "start": 37.8824,
      "duration": 0.0008,
      "velocity": 107,
      "chip": "ym2612"
    },
    {
      "channel": 0,
      "note": 70,
      "start": 37.8832,
      "duration": 0.0151,
      "velocity": 107,
      "chip": "ym2612"
    },
    {
      "channel": 0,
      "note": 68,
      "start": 37.8983,
      "duration": 0.0167,
      "velocity": 107,
      "chip": "ym2612"
    },
    {
      "channel": 0,
      "note": 67,
      "start": 37.915,
      "duration": 0.0167,
      "velocity": 107,
      "chip": "ym2612"
    },
    {
      "channel": 0,
      "note": 66,
      "start": 37.9317,
      "duration": 0.0167,
      "velocity": 107,
      "chip": "ym2612"
    },
    {
      "channel": 0,
      "note": 66,
      "start": 37.9483,
      "duration": 0.0333,
      "velocity": 107,
      "chip": "ym2612"
    },
    {
      "channel": 0,
      "note": 65,
      "start": 37.9817,
      "duration": 0.0167,
      "velocity": 107,
      "chip": "ym2612"
    },
    {
      "channel": 0,
      "note": 64,
      "start": 37.9983,
      "duration": 0.0188,
      "velocity": 107,
      "chip": "ym2612"
    },
    {
      "channel": 1,
      "note": 24,
      "start": 38.0158,
      "duration": 0.4165,
      "velocity": 127,
      "chip": "ym2612"
    },
    {
      "channel": 3,
      "note": 62,
      "start": 38.0165,
      "duration": 0.1339,
      "velocity": 127,
      "chip": "ym2612"
    },
    {
      "channel": 0,
      "note": 63,
      "start": 38.0171,
      "duration": 0.0146,
      "velocity": 107,
      "chip": "ym2612"
    },
    {
      "channel": 0,
      "note": 61,
      "start": 38.0317,
      "duration": 0.0167,
      "velocity": 107,
      "chip": "ym2612"
    },
    {
      "channel": 0,
      "note": 60,
      "start": 38.0483,
      "duration": 0.0333,
      "velocity": 107,
      "chip": "ym2612"
    },
    {
      "channel": 0,
      "note": 59,
      "start": 38.0817,
      "duration": 0.0167,
      "velocity": 107,
      "chip": "ym2612"
    },
    {
      "channel": 0,
      "note": 58,
      "start": 38.0983,
      "duration": 0.0167,
      "velocity": 107,
      "chip": "ym2612"
    },
    {
      "channel": 0,
      "note": 56,
      "start": 38.115,
      "duration": 0.0167,
      "velocity": 107,
      "chip": "ym2612"
    },
    {
      "channel": 0,
      "note": 55,
      "start": 38.1317,
      "duration": 0.0172,
      "velocity": 107,
      "chip": "ym2612"
    },
    {
      "channel": 0,
      "note": 71,
      "start": 38.1491,
      "duration": 0.002,
      "velocity": 107,
      "chip": "ym2612"
    },
    {
      "channel": 2,
      "note": 24,
      "start": 38.1498,
      "duration": 0.5657,
      "velocity": 127,
      "chip": "ym2612"
    },
    {
      "channel": 3,
      "note": 62,
      "start": 38.1505,
      "duration": 0.1491,
      "velocity": 127,
      "chip": "ym2612"
    },
    {
      "channel": 0,
      "note": 70,
      "start": 38.1511,
      "duration": 0.0305,
      "velocity": 107,
      "chip": "ym2612"
    },
    {
      "channel": 0,
      "note": 68,
      "start": 38.1817,
      "duration": 0.0167,
      "velocity": 107,
      "chip": "ym2612"
    },
    {
      "channel": 0,
      "note": 67,
      "start": 38.1983,
      "duration": 0.0167,
      "velocity": 107,
      "chip": "ym2612"
    },
    {
      "channel": 0,
      "note": 66,
      "start": 38.215,
      "duration": 0.0167,
      "velocity": 107,
      "chip": "ym2612"
    },
    {
      "channel": 0,
      "note": 66,
      "start": 38.2317,
      "duration": 0.0167,
      "velocity": 107,
      "chip": "ym2612"
    },
    {
      "channel": 0,
      "note": 65,
      "start": 38.2483,
      "duration": 0.0333,
      "velocity": 107,
      "chip": "ym2612"
    },
    {
      "channel": 0,
      "note": 64,
      "start": 38.2817,
      "duration": 0.0172,
      "velocity": 107,
      "chip": "ym2612"
    },
    {
      "channel": 0,
      "note": 67,
      "start": 38.299,
      "duration": 0.0014,
      "velocity": 107,
      "chip": "ym2612"
    },
    {
      "channel": 3,
      "note": 62,
      "start": 38.2999,
      "duration": 0.2824,
      "velocity": 127,
      "chip": "ym2612"
    },
    {
      "channel": 0,
      "note": 66,
      "start": 38.3004,
      "duration": 0.0146,
      "velocity": 107,
      "chip": "ym2612"
    },
    {
      "channel": 0,
      "note": 65,
      "start": 38.315,
      "duration": 0.0167,
      "velocity": 107,
      "chip": "ym2612"
    },
    {
      "channel": 0,
      "note": 64,
      "start": 38.3317,
      "duration": 0.0167,
      "velocity": 107,
      "chip": "ym2612"
    },
    {
      "channel": 0,
      "note": 63,
      "start": 38.3483,
      "duration": 0.0333,
      "velocity": 107,
      "chip": "ym2612"
    },
    {
      "channel": 0,
      "note": 62,
      "start": 38.3817,
      "duration": 0.0167,
      "velocity": 107,
      "chip": "ym2612"
    },
    {
      "channel": 0,
      "note": 61,
      "start": 38.3983,
      "duration": 0.0167,
      "velocity": 107,
      "chip": "ym2612"
    },
    {
      "channel": 0,
      "note": 60,
      "start": 38.415,
      "duration": 0.0181,
      "velocity": 107,
      "chip": "ym2612"
    },
    {
      "channel": 1,
      "note": 24,
      "start": 38.4324,
      "duration": 0.5664,
      "velocity": 127,
      "chip": "ym2612"
    },
    {
      "channel": 0,
      "note": 59,
      "start": 38.4331,
      "duration": 0.0152,
      "velocity": 107,
      "chip": "ym2612"
    },
    {
      "channel": 0,
      "note": 57,
      "start": 38.4483,
      "duration": 0.0333,
      "velocity": 107,
      "chip": "ym2612"
    },
    {
      "channel": 0,
      "note": 56,
      "start": 38.4817,
      "duration": 0.0167,
      "velocity": 107,
      "chip": "ym2612"
    },
    {
      "channel": 0,
      "note": 55,
      "start": 38.4983,
      "duration": 0.0167,
      "velocity": 107,
      "chip": "ym2612"
    },
    {
      "channel": 0,
      "note": 54,
      "start": 38.515,
      "duration": 0.0167,
      "velocity": 107,
      "chip": "ym2612"
    },
    {
      "channel": 0,
      "note": 53,
      "start": 38.5317,
      "duration": 0.0167,
      "velocity": 107,
      "chip": "ym2612"
    },
    {
      "channel": 0,
      "note": 52,
      "start": 38.5483,
      "duration": 0.0348,
      "velocity": 107,
      "chip": "ym2612"
    },
    {
      "channel": 3,
      "note": 62,
      "start": 38.5825,
      "duration": 0.1337,
      "velocity": 127,
      "chip": "ym2612"
    },
    {
      "channel": 0,
      "note": 51,
      "start": 38.5831,
      "duration": 0.0152,
      "velocity": 107,
      "chip": "ym2612"
    },
    {
      "channel": 0,
      "note": 50,
      "start": 38.5983,
      "duration": 0.0167,
      "velocity": 107,
      "chip": "ym2612"
    },
    {
      "channel": 0,
      "note": 49,
      "start": 38.615,
      "duration": 0.0167,
      "velocity": 107,
      "chip": "ym2612"
    },
    {
      "channel": 0,
      "note": 48,
      "start": 38.6317,
      "duration": 0.0167,
      "velocity": 107,
      "chip": "ym2612"
    },
    {
      "channel": 0,
      "note": 47,
      "start": 38.6483,
      "duration": 0.0333,
      "velocity": 107,
      "chip": "ym2612"
    },
    {
      "channel": 0,
      "note": 45,
      "start": 38.6817,
      "duration": 0.0167,
      "velocity": 107,
      "chip": "ym2612"
    },
    {
      "channel": 0,
      "note": 44,
      "start": 38.6983,
      "duration": 0.0188,
      "velocity": 107,
      "chip": "ym2612"
    },
    {
      "channel": 2,
      "note": 24,
      "start": 38.7158,
      "duration": 0.5664,
      "velocity": 127,
      "chip": "ym2612"
    },
    {
      "channel": 3,
      "note": 67,
      "start": 38.7165,
      "duration": 0.2831,
      "velocity": 127,
      "chip": "ym2612"
    },
    {
      "channel": 0,
      "note": 43,
      "start": 38.7171,
      "duration": 0.0146,
      "velocity": 107,
      "chip": "ym2612"
    },
    {
      "channel": 0,
      "note": 42,
      "start": 38.7317,
      "duration": 0.0167,
      "velocity": 107,
      "chip": "ym2612"
    },
    {
      "channel": 0,
      "note": 41,
      "start": 38.7483,
      "duration": 0.0333,
      "velocity": 107,
      "chip": "ym2612"
    },
    {
      "channel": 0,
      "note": 40,
      "start": 38.7817,
      "duration": 0.0167,
      "velocity": 107,
      "chip": "ym2612"
    },
    {
      "channel": 0,
      "note": 39,
      "start": 38.7983,
      "duration": 0.0167,
      "velocity": 107,
      "chip": "ym2612"
    },
    {
      "channel": 0,
      "note": 38,
      "start": 38.815,
      "duration": 0.0167,
      "velocity": 107,
      "chip": "ym2612"
    },
    {
      "channel": 0,
      "note": 37,
      "start": 38.8317,
      "duration": 0.05,
      "velocity": 107,
      "chip": "ym2612"
    },
    {
      "channel": 0,
      "note": 36,
      "start": 38.8817,
      "duration": 0.0167,
      "velocity": 107,
      "chip": "ym2612"
    },
    {
      "channel": 0,
      "note": 35,
      "start": 38.8983,
      "duration": 0.0167,
      "velocity": 107,
      "chip": "ym2612"
    },
    {
      "channel": 0,
      "note": 33,
      "start": 38.915,
      "duration": 0.0167,
      "velocity": 107,
      "chip": "ym2612"
    },
    {
      "channel": 0,
      "note": 32,
      "start": 38.9317,
      "duration": 0.0167,
      "velocity": 107,
      "chip": "ym2612"
    },
    {
      "channel": 0,
      "note": 31,
      "start": 38.9483,
      "duration": 0.0333,
      "velocity": 107,
      "chip": "ym2612"
    },
    {
      "channel": 0,
      "note": 30,
      "start": 38.9817,
      "duration": 0.0187,
      "velocity": 107,
      "chip": "ym2612"
    },
    {
      "channel": 1,
      "note": 24,
      "start": 38.999,
      "duration": 0.4165,
      "velocity": 127,
      "chip": "ym2612"
    },
    {
      "channel": 3,
      "note": 67,
      "start": 38.9998,
      "duration": 0.1325,
      "velocity": 127,
      "chip": "ym2612"
    },
    {
      "channel": 0,
      "note": 29,
      "start": 39.0004,
      "duration": 0.0146,
      "velocity": 107,
      "chip": "ym2612"
    },
    {
      "channel": 0,
      "note": 28,
      "start": 39.015,
      "duration": 0.0167,
      "velocity": 107,
      "chip": "ym2612"
    },
    {
      "channel": 0,
      "note": 27,
      "start": 39.0317,
      "duration": 0.0167,
      "velocity": 107,
      "chip": "ym2612"
    },
    {
      "channel": 0,
      "note": 26,
      "start": 39.0483,
      "duration": 0.0333,
      "velocity": 107,
      "chip": "ym2612"
    },
    {
      "channel": 0,
      "note": 25,
      "start": 39.0817,
      "duration": 0.0167,
      "velocity": 107,
      "chip": "ym2612"
    },
    {
      "channel": 0,
      "note": 24,
      "start": 39.0983,
      "duration": 0.0167,
      "velocity": 107,
      "chip": "ym2612"
    },
    {
      "channel": 0,
      "note": 23,
      "start": 39.115,
      "duration": 0.0181,
      "velocity": 107,
      "chip": "ym2612"
    },
    {
      "channel": 3,
      "note": 62,
      "start": 39.1325,
      "duration": 0.2838,
      "velocity": 127,
      "chip": "ym2612"
    },
    {
      "channel": 0,
      "note": 21,
      "start": 39.1331,
      "duration": 0.0152,
      "velocity": 107,
      "chip": "ym2612"
    },
    {
      "channel": 0,
      "note": 116,
      "start": 39.1483,
      "duration": 0.0333,
      "velocity": 107,
      "chip": "ym2612"
    },
    {
      "channel": 0,
      "note": 115,
      "start": 39.1817,
      "duration": 0.0167,
      "velocity": 107,
      "chip": "ym2612"
    },
    {
      "channel": 0,
      "note": 114,
      "start": 39.1983,
      "duration": 0.0167,
      "velocity": 107,
      "chip": "ym2612"
    },
    {
      "channel": 0,
      "note": 113,
      "start": 39.215,
      "duration": 0.0167,
      "velocity": 107,
      "chip": "ym2612"
    },
    {
      "channel": 0,
      "note": 112,
      "start": 39.2317,
      "duration": 0.0167,
      "velocity": 107,
      "chip": "ym2612"
    },
    {
      "channel": 0,
      "note": 111,
      "start": 39.2483,
      "duration": 0.0348,
      "velocity": 107,
      "chip": "ym2612"
    },
    {
      "channel": 2,
      "note": 24,
      "start": 39.2824,
      "duration": 0.4165,
      "velocity": 127,
      "chip": "ym2612"
    },
    {
      "channel": 0,
      "note": 110,
      "start": 39.2831,
      "duration": 0.0152,
      "velocity": 107,
      "chip": "ym2612"
    },
    {
      "channel": 0,
      "note": 109,
      "start": 39.2983,
      "duration": 0.0167,
      "velocity": 107,
      "chip": "ym2612"
    },
    {
      "channel": 0,
      "note": 108,
      "start": 39.315,
      "duration": 0.0167,
      "velocity": 107,
      "chip": "ym2612"
    },
    {
      "channel": 0,
      "note": 107,
      "start": 39.3317,
      "duration": 0.0167,
      "velocity": 107,
      "chip": "ym2612"
    },
    {
      "channel": 0,
      "note": 105,
      "start": 39.3483,
      "duration": 0.0333,
      "velocity": 107,
      "chip": "ym2612"
    },
    {
      "channel": 0,
      "note": 104,
      "start": 39.3817,
      "duration": 0.0167,
      "velocity": 107,
      "chip": "ym2612"
    },
    {
      "channel": 0,
      "note": 103,
      "start": 39.3983,
      "duration": 0.0188,
      "velocity": 107,
      "chip": "ym2612"
    },
    {
      "channel": 1,
      "note": 24,
      "start": 39.4158,
      "duration": 0.4215,
      "velocity": 127,
      "chip": "ym2612"
    },
    {
      "channel": 3,
      "note": 67,
      "start": 39.4165,
      "duration": 0.2831,
      "velocity": 127,
      "chip": "ym2612"
    },
    {
      "channel": 0,
      "note": 102,
      "start": 39.4171,
      "duration": 0.0146,
      "velocity": 107,
      "chip": "ym2612"
    },
    {
      "channel": 0,
      "note": 101,
      "start": 39.4317,
      "duration": 0.0167,
      "velocity": 107,
      "chip": "ym2612"
    },
    {
      "channel": 0,
      "note": 100,
      "start": 39.4483,
      "duration": 0.0333,
      "velocity": 107,
      "chip": "ym2612"
    },
    {
      "channel": 0,
      "note": 99,
      "start": 39.4817,
      "duration": 0.0167,
      "velocity": 107,
      "chip": "ym2612"
    },
    {
      "channel": 0,
      "note": 98,
      "start": 39.4983,
      "duration": 0.0167,
      "velocity": 107,
      "chip": "ym2612"
    },
    {
      "channel": 0,
      "note": 97,
      "start": 39.515,
      "duration": 0.0167,
      "velocity": 107,
      "chip": "ym2612"
    },
    {
      "channel": 0,
      "note": 96,
      "start": 39.5317,
      "duration": 0.05,
      "velocity": 107,
      "chip": "ym2612"
    },
    {
      "channel": 0,
      "note": 95,
      "start": 39.5817,
      "duration": 0.0167,
      "velocity": 107,
      "chip": "ym2612"
    },
    {
      "channel": 0,
      "note": 93,
      "start": 39.5983,
      "duration": 0.0167,
      "velocity": 107,
      "chip": "ym2612"
    },
    {
      "channel": 0,
      "note": 92,
      "start": 39.615,
      "duration": 0.0167,
      "velocity": 107,
      "chip": "ym2612"
    },
    {
      "channel": 0,
      "note": 91,
      "start": 39.6317,
      "duration": 0.0167,
      "velocity": 107,
      "chip": "ym2612"
    },
    {
      "channel": 0,
      "note": 90,
      "start": 39.6483,
      "duration": 0.0333,
      "velocity": 107,
      "chip": "ym2612"
    },
    {
      "channel": 0,
      "note": 89,
      "start": 39.6817,
      "duration": 0.0187,
      "velocity": 107,
      "chip": "ym2612"
    },
    {
      "channel": 2,
      "note": 24,
      "start": 39.6991,
      "duration": 0.1411,
      "velocity": 127,
      "chip": "ym2612"
    },
    {
      "channel": 3,
      "note": 62,
      "start": 39.6998,
      "duration": 0.1325,
      "velocity": 127,
      "chip": "ym2612"
    },
    {
      "channel": 0,
      "note": 88,
      "start": 39.7004,
      "duration": 0.0146,
      "velocity": 107,
      "chip": "ym2612"
    },
    {
      "channel": 0,
      "note": 87,
      "start": 39.715,
      "duration": 0.0167,
      "velocity": 107,
      "chip": "ym2612"
    },
    {
      "channel": 0,
      "note": 86,
      "start": 39.7317,
      "duration": 0.0167,
      "velocity": 107,
      "chip": "ym2612"
    },
    {
      "channel": 0,
      "note": 85,
      "start": 39.7483,
      "duration": 0.0333,
      "velocity": 107,
      "chip": "ym2612"
    },
    {
      "channel": 0,
      "note": 84,
      "start": 39.7817,
      "duration": 0.0167,
      "velocity": 107,
      "chip": "ym2612"
    },
    {
      "channel": 0,
      "note": 83,
      "start": 39.7983,
      "duration": 0.0167,
      "velocity": 107,
      "chip": "ym2612"
    },
    {
      "channel": 0,
      "note": 81,
      "start": 39.815,
      "duration": 0.0183,
      "velocity": 107,
      "chip": "ym2612"
    },
    {
      "channel": 3,
      "note": 62,
      "start": 39.8326,
      "duration": 0.0049,
      "velocity": 127,
      "chip": "ym2612"
    },
    {
      "channel": 0,
      "note": 80,
      "start": 39.8333,
      "duration": 0.0002,
      "velocity": 107,
      "chip": "ym2612"
    },
    {
      "channel": 0,
      "note": 79,
      "start": 39.8335,
      "duration": 0.0002,
      "velocity": 107,
      "chip": "ym2612"
    },
    {
      "channel": 0,
      "note": 78,
      "start": 39.8337,
      "duration": 0.0002,
      "velocity": 107,
      "chip": "ym2612"
    },
    {
      "channel": 0,
      "note": 77,
      "start": 39.8338,
      "duration": 0.0002,
      "velocity": 107,
      "chip": "ym2612"
    },
    {
      "channel": 0,
      "note": 76,
      "start": 39.834,
      "duration": 0.0002,
      "velocity": 107,
      "chip": "ym2612"
    },
    {
      "channel": 0,
      "note": 75,
      "start": 39.8342,
      "duration": 0.0002,
      "velocity": 107,
      "chip": "ym2612"
    },
    {
      "channel": 0,
      "note": 74,
      "start": 39.8344,
      "duration": 0.0024,
      "velocity": 1,
      "chip": "ym2612"
    },
    {
      "channel": 0,
      "note": 67,
      "start": 39.837,
      "duration": 0.0028,
      "velocity": 127,
      "chip": "ym2612"
    },
    {
      "channel": 1,
      "note": 24,
      "start": 39.8374,
      "duration": 0.0331,
      "velocity": 127,
      "chip": "ym2612"
    },
    {
      "channel": 3,
      "note": 62,
      "start": 39.8377,
      "duration": 0.003,
      "velocity": 127,
      "chip": "ym2612"
    },
    {
      "channel": 0,
      "note": 69,
      "start": 39.84,
      "duration": 0.4491,
      "velocity": 127,
      "chip": "ym2612"
    },
    {
      "channel": 2,
      "note": 24,
      "start": 39.8405,
      "duration": 0.1634,
      "velocity": 127,
      "chip": "ym2612"
    },
    {
      "channel": 3,
      "note": 62,
      "start": 39.841,
      "duration": 0.0303,
      "velocity": 127,
      "chip": "ym2612"
    },
    {
      "channel": 1,
      "note": 24,
      "start": 39.8707,
      "duration": 0.4191,
      "velocity": 127,
      "chip": "ym2612"
    },
    {
      "channel": 3,
      "note": 67,
      "start": 39.8715,
      "duration": 0.2825,
      "velocity": 127,
      "chip": "ym2612"
    },
    {
      "channel": 2,
      "note": 24,
      "start": 40.0041,
      "duration": 0.5671,
      "velocity": 127,
      "chip": "ym2612"
    },
    {
      "channel": 3,
      "note": 67,
      "start": 40.1542,
      "duration": 0.1364,
      "velocity": 127,
      "chip": "ym2612"
    },
    {
      "channel": 0,
      "note": 52,
      "start": 40.2893,
      "duration": 0.002,
      "velocity": 127,
      "chip": "ym2612"
    },
    {
      "channel": 1,
      "note": 24,
      "start": 40.2899,
      "duration": 0.5639,
      "velocity": 127,
      "chip": "ym2612"
    },
    {
      "channel": 3,
      "note": 62,
      "start": 40.2907,
      "duration": 0.2812,
      "velocity": 127,
      "chip": "ym2612"
    },
    {
      "channel": 0,
      "note": 51,
      "start": 40.2913,
      "duration": 0.012,
      "velocity": 127,
      "chip": "ym2612"
    },
    {
      "channel": 0,
      "note": 50,
      "start": 40.3033,
      "duration": 0.0167,
      "velocity": 127,
      "chip": "ym2612"
    },
    {
      "channel": 0,
      "note": 49,
      "start": 40.32,
      "duration": 0.0333,
      "velocity": 127,
      "chip": "ym2612"
    },
    {
      "channel": 0,
      "note": 48,
      "start": 40.3533,
      "duration": 0.0167,
      "velocity": 127,
      "chip": "ym2612"
    },
    {
      "channel": 0,
      "note": 46,
      "start": 40.37,
      "duration": 0.0167,
      "velocity": 127,
      "chip": "ym2612"
    },
    {
      "channel": 0,
      "note": 45,
      "start": 40.3866,
      "duration": 0.0167,
      "velocity": 127,
      "chip": "ym2612"
    },
    {
      "channel": 0,
      "note": 44,
      "start": 40.4033,
      "duration": 0.05,
      "velocity": 127,
      "chip": "ym2612"
    },
    {
      "channel": 0,
      "note": 43,
      "start": 40.4533,
      "duration": 0.0167,
      "velocity": 127,
      "chip": "ym2612"
    },
    {
      "channel": 0,
      "note": 42,
      "start": 40.47,
      "duration": 0.0167,
      "velocity": 127,
      "chip": "ym2612"
    },
    {
      "channel": 0,
      "note": 41,
      "start": 40.4866,
      "duration": 0.0167,
      "velocity": 127,
      "chip": "ym2612"
    },
    {
      "channel": 0,
      "note": 40,
      "start": 40.5033,
      "duration": 0.0167,
      "velocity": 127,
      "chip": "ym2612"
    },
    {
      "channel": 0,
      "note": 39,
      "start": 40.52,
      "duration": 0.0333,
      "velocity": 127,
      "chip": "ym2612"
    },
    {
      "channel": 0,
      "note": 38,
      "start": 40.5533,
      "duration": 0.0172,
      "velocity": 127,
      "chip": "ym2612"
    },
    {
      "channel": 0,
      "note": 52,
      "start": 40.5707,
      "duration": 0.002,
      "velocity": 127,
      "chip": "ym2612"
    },
    {
      "channel": 2,
      "note": 24,
      "start": 40.5714,
      "duration": 0.5492,
      "velocity": 127,
      "chip": "ym2612"
    },
    {
      "channel": 3,
      "note": 67,
      "start": 40.5721,
      "duration": 0.2825,
      "velocity": 127,
      "chip": "ym2612"
    },
    {
      "channel": 0,
      "note": 51,
      "start": 40.5727,
      "duration": 0.0139,
      "velocity": 127,
      "chip": "ym2612"
    },
    {
      "channel": 0,
      "note": 50,
      "start": 40.5866,
      "duration": 0.0167,
      "velocity": 127,
      "chip": "ym2612"
    },
    {
      "channel": 0,
      "note": 49,
      "start": 40.6033,
      "duration": 0.0167,
      "velocity": 127,
      "chip": "ym2612"
    },
    {
      "channel": 0,
      "note": 48,
      "start": 40.62,
      "duration": 0.0333,
      "velocity": 127,
      "chip": "ym2612"
    },
    {
      "channel": 0,
      "note": 46,
      "start": 40.6533,
      "duration": 0.0167,
      "velocity": 127,
      "chip": "ym2612"
    },
    {
      "channel": 0,
      "note": 45,
      "start": 40.67,
      "duration": 0.0167,
      "velocity": 127,
      "chip": "ym2612"
    },
    {
      "channel": 0,
      "note": 44,
      "start": 40.6866,
      "duration": 0.0172,
      "velocity": 127,
      "chip": "ym2612"
    },
    {
      "channel": 0,
      "note": 48,
      "start": 40.704,
      "duration": 0.0008,
      "velocity": 127,
      "chip": "ym2612"
    },
    {
      "channel": 0,
      "note": 47,
      "start": 40.7048,
      "duration": 0.0151,
      "velocity": 127,
      "chip": "ym2612"
    },
    {
      "channel": 0,
      "note": 45,
      "start": 40.72,
      "duration": 0.0333,
      "velocity": 127,
      "chip": "ym2612"
    },
    {
      "channel": 0,
      "note": 44,
      "start": 40.7533,
      "duration": 0.0167,
      "velocity": 127,
      "chip": "ym2612"
    },
    {
      "channel": 0,
      "note": 43,
      "start": 40.77,
      "duration": 0.0167,
      "velocity": 127,
      "chip": "ym2612"
    },
    {
      "channel": 0,
      "note": 42,
      "start": 40.7866,
      "duration": 0.0167,
      "velocity": 127,
      "chip": "ym2612"
    },
    {
      "channel": 0,
      "note": 41,
      "start": 40.8033,
      "duration": 0.0167,
      "velocity": 127,
      "chip": "ym2612"
    },
    {
      "channel": 0,
      "note": 40,
      "start": 40.82,
      "duration": 0.0354,
      "velocity": 127,
      "chip": "ym2612"
    },
    {
      "channel": 1,
      "note": 24,
      "start": 40.8541,
      "duration": 0.4171,
      "velocity": 127,
      "chip": "ym2612"
    },
    {
      "channel": 3,
      "note": 62,
      "start": 40.8548,
      "duration": 0.1332,
      "velocity": 127,
      "chip": "ym2612"
    },
    {
      "channel": 0,
      "note": 39,
      "start": 40.8554,
      "duration": 0.0146,
      "velocity": 127,
      "chip": "ym2612"
    },
    {
      "channel": 0,
      "note": 38,
      "start": 40.87,
      "duration": 0.0167,
      "velocity": 127,
      "chip": "ym2612"
    },
    {
      "channel": 0,
      "note": 37,
      "start": 40.8866,
      "duration": 0.0167,
      "velocity": 127,
      "chip": "ym2612"
    },
    {
      "channel": 0,
      "note": 36,
      "start": 40.9033,
      "duration": 0.0167,
      "velocity": 127,
      "chip": "ym2612"
    },
    {
      "channel": 0,
      "note": 35,
      "start": 40.92,
      "duration": 0.0333,
      "velocity": 127,
      "chip": "ym2612"
    },
    {
      "channel": 0,
      "note": 33,
      "start": 40.9533,
      "duration": 0.0167,
      "velocity": 127,
      "chip": "ym2612"
    },
    {
      "channel": 0,
      "note": 32,
      "start": 40.97,
      "duration": 0.0172,
      "velocity": 127,
      "chip": "ym2612"
    },
    {
      "channel": 0,
      "note": 48,
      "start": 40.9873,
      "duration": 0.0014,
      "velocity": 127,
      "chip": "ym2612"
    },
    {
      "channel": 3,
      "note": 62,
      "start": 40.9882,
      "duration": 0.1331,
      "velocity": 127,
      "chip": "ym2612"
    },
    {
      "channel": 0,
      "note": 47,
      "start": 40.9887,
      "duration": 0.0146,
      "velocity": 127,
      "chip": "ym2612"
    },
    {
      "channel": 0,
      "note": 45,
      "start": 41.0033,
      "duration": 0.0167,
      "velocity": 127,
      "chip": "ym2612"
    },
    {
      "channel": 0,
      "note": 44,
      "start": 41.02,
      "duration": 0.0333,
      "velocity": 127,
      "chip": "ym2612"
    },
    {
      "channel": 0,
      "note": 43,
      "start": 41.0533,
      "duration": 0.0167,
      "velocity": 127,
      "chip": "ym2612"
    },
    {
      "channel": 0,
      "note": 42,
      "start": 41.07,
      "duration": 0.0167,
      "velocity": 127,
      "chip": "ym2612"
    },
    {
      "channel": 0,
      "note": 41,
      "start": 41.0866,
      "duration": 0.0167,
      "velocity": 127,
      "chip": "ym2612"
    },
    {
      "channel": 0,
      "note": 40,
      "start": 41.1033,
      "duration": 0.0188,
      "velocity": 127,
      "chip": "ym2612"
    },
    {
      "channel": 2,
      "note": 24,
      "start": 41.1208,
      "duration": 0.4338,
      "velocity": 127,
      "chip": "ym2612"
    },
    {
      "channel": 3,
      "note": 62,
      "start": 41.1215,
      "duration": 0.2825,
      "velocity": 127,
      "chip": "ym2612"
    },
    {
      "channel": 0,
      "note": 39,
      "start": 41.1221,
      "duration": 0.0312,
      "velocity": 127,
      "chip": "ym2612"
    },
    {
      "channel": 0,
      "note": 38,
      "start": 41.1533,
      "duration": 0.0167,
      "velocity": 127,
      "chip": "ym2612"
    },
    {
      "channel": 0,
      "note": 37,
      "start": 41.17,
      "duration": 0.0167,
      "velocity": 127,
      "chip": "ym2612"
    },
    {
      "channel": 0,
      "note": 36,
      "start": 41.1866,
      "duration": 0.0167,
      "velocity": 127,
      "chip": "ym2612"
    },
    {
      "channel": 0,
      "note": 35,
      "start": 41.2033,
      "duration": 0.0167,
      "velocity": 127,
      "chip": "ym2612"
    },
    {
      "channel": 0,
      "note": 33,
      "start": 41.22,
      "duration": 0.0333,
      "velocity": 127,
      "chip": "ym2612"
    },
    {
      "channel": 0,
      "note": 32,
      "start": 41.2533,
      "duration": 0.0172,
      "velocity": 127,
      "chip": "ym2612"
    },
    {
      "channel": 0,
      "note": 48,
      "start": 41.2707,
      "duration": 0.0014,
      "velocity": 127,
      "chip": "ym2612"
    },
    {
      "channel": 1,
      "note": 24,
      "start": 41.2714,
      "duration": 0.5498,
      "velocity": 127,
      "chip": "ym2612"
    },
    {
      "channel": 0,
      "note": 47,
      "start": 41.2721,
      "duration": 0.0145,
      "velocity": 127,
      "chip": "ym2612"
    },
    {
      "channel": 0,
      "note": 45,
      "start": 41.2866,
      "duration": 0.0167,
      "velocity": 127,
      "chip": "ym2612"
    },
    {
      "channel": 0,
      "note": 44,
      "start": 41.3033,
      "duration": 0.0167,
      "velocity": 127,
      "chip": "ym2612"
    },
    {
      "channel": 0,
      "note": 43,
      "start": 41.32,
      "duration": 0.0333,
      "velocity": 127,
      "chip": "ym2612"
    },
    {
      "channel": 0,
      "note": 42,
      "start": 41.3533,
      "duration": 0.0167,
      "velocity": 127,
      "chip": "ym2612"
    },
    {
      "channel": 0,
      "note": 41,
      "start": 41.37,
      "duration": 0.0167,
      "velocity": 127,
      "chip": "ym2612"
    },
    {
      "channel": 0,
      "note": 40,
      "start": 41.3866,
      "duration": 0.0182,
      "velocity": 127,
      "chip": "ym2612"
    },
    {
      "channel": 3,
      "note": 62,
      "start": 41.4042,
      "duration": 0.151,
      "velocity": 127,
      "chip": "ym2612"
    },
    {
      "channel": 0,
      "note": 39,
      "start": 41.4048,
      "duration": 0.0151,
      "velocity": 127,
      "chip": "ym2612"
    },
    {
      "channel": 0,
      "note": 38,
      "start": 41.42,
      "duration": 0.0333,
      "velocity": 127,
      "chip": "ym2612"
    },
    {
      "channel": 0,
      "note": 37,
      "start": 41.4533,
      "duration": 0.0167,
      "velocity": 127,
      "chip": "ym2612"
    },
    {
      "channel": 0,
      "note": 36,
      "start": 41.47,
      "duration": 0.0167,
      "velocity": 127,
      "chip": "ym2612"
    },
    {
      "channel": 0,
      "note": 35,
      "start": 41.4866,
      "duration": 0.0167,
      "velocity": 127,
      "chip": "ym2612"
    },
    {
      "channel": 0,
      "note": 33,
      "start": 41.5033,
      "duration": 0.0167,
      "velocity": 127,
      "chip": "ym2612"
    },
    {
      "channel": 0,
      "note": 32,
      "start": 41.52,
      "duration": 0.0338,
      "velocity": 127,
      "chip": "ym2612"
    },
    {
      "channel": 0,
      "note": 52,
      "start": 41.554,
      "duration": 0.002,
      "velocity": 127,
      "chip": "ym2612"
    },
    {
      "channel": 2,
      "note": 24,
      "start": 41.5547,
      "duration": 0.5491,
      "velocity": 127,
      "chip": "ym2612"
    },
    {
      "channel": 3,
      "note": 67,
      "start": 41.5554,
      "duration": 0.2665,
      "velocity": 127,
      "chip": "ym2612"
    },
    {
      "channel": 0,
      "note": 51,
      "start": 41.556,
      "duration": 0.0139,
      "velocity": 127,
      "chip": "ym2612"
    },
    {
      "channel": 0,
      "note": 50,
      "start": 41.57,
      "duration": 0.0167,
      "velocity": 127,
      "chip": "ym2612"
    },
    {
      "channel": 0,
      "note": 49,
      "start": 41.5866,
      "duration": 0.0167,
      "velocity": 127,
      "chip": "ym2612"
    },
    {
      "channel": 0,
      "note": 48,
      "start": 41.6033,
      "duration": 0.0167,
      "velocity": 127,
      "chip": "ym2612"
    },
    {
      "channel": 0,
      "note": 46,
      "start": 41.62,
      "duration": 0.0333,
      "velocity": 127,
      "chip": "ym2612"
    },
    {
      "channel": 0,
      "note": 45,
      "start": 41.6533,
      "duration": 0.0167,
      "velocity": 127,
      "chip": "ym2612"
    },
    {
      "channel": 0,
      "note": 44,
      "start": 41.67,
      "duration": 0.0172,
      "velocity": 127,
      "chip": "ym2612"
    },
    {
      "channel": 0,
      "note": 48,
      "start": 41.6873,
      "duration": 0.0008,
      "velocity": 127,
      "chip": "ym2612"
    },
    {
      "channel": 0,
      "note": 47,
      "start": 41.6881,
      "duration": 0.0151,
      "velocity": 127,
      "chip": "ym2612"
    },
    {
      "channel": 0,
      "note": 45,
      "start": 41.7033,
      "duration": 0.0167,
      "velocity": 127,
      "chip": "ym2612"
    },
    {
      "channel": 0,
      "note": 44,
      "start": 41.72,
      "duration": 0.0333,
      "velocity": 127,
      "chip": "ym2612"
    },
    {
      "channel": 0,
      "note": 43,
      "start": 41.7533,
      "duration": 0.0167,
      "velocity": 127,
      "chip": "ym2612"
    },
    {
      "channel": 0,
      "note": 42,
      "start": 41.77,
      "duration": 0.0167,
      "velocity": 127,
      "chip": "ym2612"
    },
    {
      "channel": 0,
      "note": 41,
      "start": 41.7866,
      "duration": 0.0167,
      "velocity": 127,
      "chip": "ym2612"
    },
    {
      "channel": 0,
      "note": 40,
      "start": 41.8033,
      "duration": 0.0172,
      "velocity": 127,
      "chip": "ym2612"
    },
    {
      "channel": 0,
      "note": 45,
      "start": 41.8207,
      "duration": 0.002,
      "velocity": 127,
      "chip": "ym2612"
    },
    {
      "channel": 1,
      "note": 24,
      "start": 41.8214,
      "duration": 0.4362,
      "velocity": 127,
      "chip": "ym2612"
    },
    {
      "channel": 3,
      "note": 67,
      "start": 41.8221,
      "duration": 0.1485,
      "velocity": 127,
      "chip": "ym2612"
    },
    {
      "channel": 0,
      "note": 44,
      "start": 41.8227,
      "duration": 0.0306,
      "velocity": 127,
      "chip": "ym2612"
    },
    {
      "channel": 0,
      "note": 43,
      "start": 41.8533,
      "duration": 0.0167,
      "velocity": 127,
      "chip": "ym2612"
    },
    {
      "channel": 0,
      "note": 42,
      "start": 41.87,
      "duration": 0.0167,
      "velocity": 127,
      "chip": "ym2612"
    },
    {
      "channel": 0,
      "note": 41,
      "start": 41.8866,
      "duration": 0.0167,
      "velocity": 127,
      "chip": "ym2612"
    },
    {
      "channel": 0,
      "note": 40,
      "start": 41.9033,
      "duration": 0.0167,
      "velocity": 127,
      "chip": "ym2612"
    },
    {
      "channel": 0,
      "note": 39,
      "start": 41.92,
      "duration": 0.0333,
      "velocity": 127,
      "chip": "ym2612"
    },
    {
      "channel": 0,
      "note": 38,
      "start": 41.9533,
      "duration": 0.0181,
      "velocity": 127,
      "chip": "ym2612"
    },
    {
      "channel": 3,
      "note": 62,
      "start": 41.9709,
      "duration": 0.2857,
      "velocity": 127,
      "chip": "ym2612"
    },
    {
      "channel": 0,
      "note": 37,
      "start": 41.9714,
      "duration": 0.0152,
      "velocity": 127,
      "chip": "ym2612"
    },
    {
      "channel": 0,
      "note": 36,
      "start": 41.9866,
      "duration": 0.0167,
      "velocity": 127,
      "chip": "ym2612"
    },
    {
      "channel": 0,
      "note": 34,
      "start": 42.0033,
      "duration": 0.0167,
      "velocity": 127,
      "chip": "ym2612"
    },
    {
      "channel": 0,
      "note": 33,
      "start": 42.02,
      "duration": 0.0333,
      "velocity": 127,
      "chip": "ym2612"
    },
    {
      "channel": 0,
      "note": 32,
      "start": 42.0533,
      "duration": 0.0167,
      "velocity": 127,
      "chip": "ym2612"
    },
    {
      "channel": 0,
      "note": 31,
      "start": 42.07,
      "duration": 0.0167,
      "velocity": 127,
      "chip": "ym2612"
    },
    {
      "channel": 0,
      "note": 30,
      "start": 42.0866,
      "duration": 0.0181,
      "velocity": 127,
      "chip": "ym2612"
    },
    {
      "channel": 2,
      "note": 24,
      "start": 42.1041,
      "duration": 0.1541,
      "velocity": 127,
      "chip": "ym2612"
    },
    {
      "channel": 0,
      "note": 29,
      "start": 42.1047,
      "duration": 0.0152,
      "velocity": 127,
      "chip": "ym2612"
    },
    {
      "channel": 0,
      "note": 28,
      "start": 42.12,
      "duration": 0.0333,
      "velocity": 127,
      "chip": "ym2612"
    },
    {
      "channel": 0,
      "note": 27,
      "start": 42.1533,
      "duration": 0.0167,
      "velocity": 127,
      "chip": "ym2612"
    },
    {
      "channel": 0,
      "note": 26,
      "start": 42.17,
      "duration": 0.0167,
      "velocity": 127,
      "chip": "ym2612"
    },
    {
      "channel": 0,
      "note": 25,
      "start": 42.1866,
      "duration": 0.0167,
      "velocity": 127,
      "chip": "ym2612"
    },
    {
      "channel": 0,
      "note": 24,
      "start": 42.2033,
      "duration": 0.0167,
      "velocity": 127,
      "chip": "ym2612"
    },
    {
      "channel": 0,
      "note": 22,
      "start": 42.22,
      "duration": 0.0358,
      "velocity": 1,
      "chip": "ym2612"
    },
    {
      "channel": 0,
      "note": 55,
      "start": 42.256,
      "duration": 65.2559,
      "velocity": 1,
      "chip": "ym2612"
    },
    {
      "channel": 3,
      "note": 67,
      "start": 42.2568,
      "duration": 0.0019,
      "velocity": 127,
      "chip": "ym2612"
    },
    {
      "channel": 1,
      "note": 24,
      "start": 42.2578,
      "duration": 65.2541,
      "velocity": 127,
      "chip": "ym2612"
    },
    {
      "channel": 2,
      "note": 24,
      "start": 42.2584,
      "duration": 65.2535,
      "velocity": 127,
      "chip": "ym2612"
    },
    {
      "channel": 3,
      "note": 62,
      "start": 42.2589,
      "duration": 0.0334,
      "velocity": 127,
      "chip": "ym2612"
    },
    {
      "channel": 3,
      "note": 62,
      "start": 42.2925,
      "duration": 65.2194,
      "velocity": 127,
      "chip": "ym2612"
    }
  ]
}