{
  "track_name": "11 - Orc Village",
  "duration_sec": 72.534,
  "sample_rate": 44100,
  "note_count": 962,
  "unique_pitches": 47,
  "pitch_range": 52,
  "avg_note_duration": 0.3473,
  "reconstruction_stats": {
    "notes_reconstructed": 962,
    "keyon_events": 962,
    "keyoff_events": 921,
    "orphan_keyons": 2,
    "unique_pitches": 47,
    "pitch_range": 52,
    "avg_duration_sec": 0.3473
  },
  "metadata": {
    "source": "L\\Light Crusader\\11 - Orc Village.vgz"
  },
  "notes": [
    {
      "channel": 0,
      "note": 96,
      "start": 0.0,
      "duration": 0.1789,
      "velocity": 97,
      "chip": "ym2612"
    },
    {
      "channel": 2,
      "note": 74,
      "start": 0.0,
      "duration": 0.1291,
      "velocity": 88,
      "chip": "ym2612"
    },
    {
      "channel": 5,
      "note": 96,
      "start": 0.0019,
      "duration": 0.1777,
      "velocity": 95,
      "chip": "ym2612"
    },
    {
      "channel": 2,
      "note": 77,
      "start": 0.1794,
      "duration": 0.133,
      "velocity": 88,
      "chip": "ym2612"
    },
    {
      "channel": 3,
      "note": 96,
      "start": 0.2641,
      "duration": 0.1817,
      "velocity": 97,
      "chip": "ym2612"
    },
    {
      "channel": 4,
      "note": 74,
      "start": 0.2656,
      "duration": 0.1303,
      "velocity": 88,
      "chip": "ym2612"
    },
    {
      "channel": 2,
      "note": 79,
      "start": 0.346,
      "duration": 0.133,
      "velocity": 88,
      "chip": "ym2612"
    },
    {
      "channel": 4,
      "note": 77,
      "start": 0.4463,
      "duration": 0.1331,
      "velocity": 88,
      "chip": "ym2612"
    },
    {
      "channel": 0,
      "note": 96,
      "start": 0.5292,
      "duration": 0.1831,
      "velocity": 97,
      "chip": "ym2612"
    },
    {
      "channel": 2,
      "note": 74,
      "start": 0.5298,
      "duration": 0.1326,
      "velocity": 88,
      "chip": "ym2612"
    },
    {
      "channel": 5,
      "note": 96,
      "start": 0.5303,
      "duration": 0.1827,
      "velocity": 95,
      "chip": "ym2612"
    },
    {
      "channel": 4,
      "note": 79,
      "start": 0.613,
      "duration": 0.1329,
      "velocity": 88,
      "chip": "ym2612"
    },
    {
      "channel": 2,
      "note": 77,
      "start": 0.7127,
      "duration": 0.1329,
      "velocity": 88,
      "chip": "ym2612"
    },
    {
      "channel": 3,
      "note": 96,
      "start": 0.7961,
      "duration": 0.1831,
      "velocity": 97,
      "chip": "ym2612"
    },
    {
      "channel": 4,
      "note": 74,
      "start": 0.7967,
      "duration": 0.1326,
      "velocity": 88,
      "chip": "ym2612"
    },
    {
      "channel": 2,
      "note": 79,
      "start": 0.8794,
      "duration": 0.133,
      "velocity": 88,
      "chip": "ym2612"
    },
    {
      "channel": 4,
      "note": 77,
      "start": 0.9796,
      "duration": 0.1331,
      "velocity": 88,
      "chip": "ym2612"
    },
    {
      "channel": 0,
      "note": 99,
      "start": 1.0625,
      "duration": 0.1831,
      "velocity": 97,
      "chip": "ym2612"
    },
    {
      "channel": 2,
      "note": 74,
      "start": 1.0631,
      "duration": 0.1326,
      "velocity": 88,
      "chip": "ym2612"
    },
    {
      "channel": 5,
      "note": 99,
      "start": 1.0637,
      "duration": 0.1827,
      "velocity": 95,
      "chip": "ym2612"
    },
    {
      "channel": 4,
      "note": 79,
      "start": 1.1463,
      "duration": 0.1329,
      "velocity": 88,
      "chip": "ym2612"
    },
    {
      "channel": 2,
      "note": 77,
      "start": 1.2461,
      "duration": 0.1329,
      "velocity": 88,
      "chip": "ym2612"
    },
    {
      "channel": 3,
      "note": 99,
      "start": 1.3294,
      "duration": 0.1831,
      "velocity": 97,
      "chip": "ym2612"
    },
    {
      "channel": 4,
      "note": 74,
      "start": 1.33,
      "duration": 0.1326,
      "velocity": 88,
      "chip": "ym2612"
    },
    {
      "channel": 2,
      "note": 79,
      "start": 1.4127,
      "duration": 0.133,
      "velocity": 88,
      "chip": "ym2612"
    },
    {
      "channel": 4,
      "note": 77,
      "start": 1.5129,
      "duration": 0.1331,
      "velocity": 88,
      "chip": "ym2612"
    },
    {
      "channel": 0,
      "note": 96,
      "start": 1.5958,
      "duration": 0.1831,
      "velocity": 97,
      "chip": "ym2612"
    },
    {
      "channel": 2,
      "note": 74,
      "start": 1.5965,
      "duration": 0.1326,
      "velocity": 88,
      "chip": "ym2612"
    },
    {
      "channel": 5,
      "note": 96,
      "start": 1.597,
      "duration": 0.1827,
      "velocity": 95,
      "chip": "ym2612"
    },
    {
      "channel": 4,
      "note": 79,
      "start": 1.6797,
      "duration": 0.1329,
      "velocity": 88,
      "chip": "ym2612"
    },
    {
      "channel": 2,
      "note": 77,
      "start": 1.7794,
      "duration": 0.1329,
      "velocity": 88,
      "chip": "ym2612"
    },
    {
      "channel": 3,
      "note": 96,
      "start": 1.8627,
      "duration": 0.1831,
      "velocity": 97,
      "chip": "ym2612"
    },
    {
      "channel": 4,
      "note": 74,
      "start": 1.8633,
      "duration": 0.1326,
      "velocity": 88,
      "chip": "ym2612"
    },
    {
      "channel": 2,
      "note": 79,
      "start": 1.946,
      "duration": 0.133,
      "velocity": 88,
      "chip": "ym2612"
    },
    {
      "channel": 4,
      "note": 77,
      "start": 2.0463,
      "duration": 0.133,
      "velocity": 88,
      "chip": "ym2612"
    },
    {
      "channel": 0,
      "note": 94,
      "start": 2.1292,
      "duration": 0.1831,
      "velocity": 97,
      "chip": "ym2612"
    },
    {
      "channel": 2,
      "note": 74,
      "start": 2.1299,
      "duration": 0.1325,
      "velocity": 88,
      "chip": "ym2612"
    },
    {
      "channel": 5,
      "note": 94,
      "start": 2.1304,
      "duration": 0.1826,
      "velocity": 95,
      "chip": "ym2612"
    },
    {
      "channel": 4,
      "note": 79,
      "start": 2.213,
      "duration": 0.1329,
      "velocity": 88,
      "chip": "ym2612"
    },
    {
      "channel": 2,
      "note": 77,
      "start": 2.3127,
      "duration": 0.133,
      "velocity": 88,
      "chip": "ym2612"
    },
    {
      "channel": 3,
      "note": 94,
      "start": 2.3961,
      "duration": 0.1831,
      "velocity": 97,
      "chip": "ym2612"
    },
    {
      "channel": 4,
      "note": 74,
      "start": 2.3967,
      "duration": 0.1326,
      "velocity": 88,
      "chip": "ym2612"
    },
    {
      "channel": 2,
      "note": 79,
      "start": 2.4794,
      "duration": 0.133,
      "velocity": 88,
      "chip": "ym2612"
    },
    {
      "channel": 4,
      "note": 77,
      "start": 2.5796,
      "duration": 0.1331,
      "velocity": 88,
      "chip": "ym2612"
    },
    {
      "channel": 0,
      "note": 92,
      "start": 2.6625,
      "duration": 0.1831,
      "velocity": 97,
      "chip": "ym2612"
    },
    {
      "channel": 2,
      "note": 74,
      "start": 2.6631,
      "duration": 0.1326,
      "velocity": 88,
      "chip": "ym2612"
    },
    {
      "channel": 5,
      "note": 92,
      "start": 2.6637,
      "duration": 0.1827,
      "velocity": 95,
      "chip": "ym2612"
    },
    {
      "channel": 4,
      "note": 79,
      "start": 2.7463,
      "duration": 0.1329,
      "velocity": 88,
      "chip": "ym2612"
    },
    {
      "channel": 2,
      "note": 77,
      "start": 2.8461,
      "duration": 0.1329,
      "velocity": 88,
      "chip": "ym2612"
    },
    {
      "channel": 3,
      "note": 92,
      "start": 2.9294,
      "duration": 0.1831,
      "velocity": 97,
      "chip": "ym2612"
    },
    {
      "channel": 4,
      "note": 74,
      "start": 2.93,
      "duration": 0.1326,
      "velocity": 88,
      "chip": "ym2612"
    },
    {
      "channel": 2,
      "note": 79,
      "start": 3.0127,
      "duration": 0.133,
      "velocity": 88,
      "chip": "ym2612"
    },
    {
      "channel": 4,
      "note": 77,
      "start": 3.1129,
      "duration": 0.1331,
      "velocity": 88,
      "chip": "ym2612"
    },
    {
      "channel": 0,
      "note": 94,
      "start": 3.1958,
      "duration": 0.5331,
      "velocity": 97,
      "chip": "ym2612"
    },
    {
      "channel": 2,
      "note": 74,
      "start": 3.1965,
      "duration": 0.1326,
      "velocity": 88,
      "chip": "ym2612"
    },
    {
      "channel": 5,
      "note": 94,
      "start": 3.197,
      "duration": 0.533,
      "velocity": 95,
      "chip": "ym2612"
    },
    {
      "channel": 4,
      "note": 79,
      "start": 3.2797,
      "duration": 0.133,
      "velocity": 88,
      "chip": "ym2612"
    },
    {
      "channel": 2,
      "note": 77,
      "start": 3.3794,
      "duration": 0.1331,
      "velocity": 88,
      "chip": "ym2612"
    },
    {
      "channel": 3,
      "note": 94,
      "start": 3.4628,
      "duration": 0.533,
      "velocity": 97,
      "chip": "ym2612"
    },
    {
      "channel": 4,
      "note": 74,
      "start": 3.4634,
      "duration": 0.1327,
      "velocity": 88,
      "chip": "ym2612"
    },
    {
      "channel": 2,
      "note": 79,
      "start": 3.5461,
      "duration": 0.133,
      "velocity": 88,
      "chip": "ym2612"
    },
    {
      "channel": 4,
      "note": 77,
      "start": 3.6463,
      "duration": 0.133,
      "velocity": 88,
      "chip": "ym2612"
    },
    {
      "channel": 2,
      "note": 74,
      "start": 3.7297,
      "duration": 0.1327,
      "velocity": 88,
      "chip": "ym2612"
    },
    {
      "channel": 4,
      "note": 79,
      "start": 3.813,
      "duration": 0.133,
      "velocity": 88,
      "chip": "ym2612"
    },
    {
      "channel": 2,
      "note": 77,
      "start": 3.9126,
      "duration": 0.1331,
      "velocity": 88,
      "chip": "ym2612"
    },
    {
      "channel": 4,
      "note": 74,
      "start": 3.9965,
      "duration": 0.1327,
      "velocity": 88,
      "chip": "ym2612"
    },
    {
      "channel": 2,
      "note": 79,
      "start": 4.0794,
      "duration": 0.133,
      "velocity": 88,
      "chip": "ym2612"
    },
    {
      "channel": 4,
      "note": 77,
      "start": 4.1795,
      "duration": 0.1332,
      "velocity": 88,
      "chip": "ym2612"
    },
    {
      "channel": 0,
      "note": 96,
      "start": 4.2626,
      "duration": 0.1829,
      "velocity": 97,
      "chip": "ym2612"
    },
    {
      "channel": 2,
      "note": 74,
      "start": 4.2634,
      "duration": 0.1324,
      "velocity": 88,
      "chip": "ym2612"
    },
    {
      "channel": 5,
      "note": 96,
      "start": 4.2639,
      "duration": 0.1824,
      "velocity": 95,
      "chip": "ym2612"
    },
    {
      "channel": 4,
      "note": 79,
      "start": 4.3463,
      "duration": 0.1329,
      "velocity": 88,
      "chip": "ym2612"
    },
    {
      "channel": 2,
      "note": 77,
      "start": 4.446,
      "duration": 0.133,
      "velocity": 88,
      "chip": "ym2612"
    },
    {
      "channel": 3,
      "note": 96,
      "start": 4.5295,
      "duration": 0.183,
      "velocity": 97,
      "chip": "ym2612"
    },
    {
      "channel": 4,
      "note": 74,
      "start": 4.53,
      "duration": 0.1326,
      "velocity": 88,
      "chip": "ym2612"
    },
    {
      "channel": 2,
      "note": 79,
      "start": 4.6127,
      "duration": 0.133,
      "velocity": 88,
      "chip": "ym2612"
    },
    {
      "channel": 4,
      "note": 77,
      "start": 4.7129,
      "duration": 0.1331,
      "velocity": 88,
      "chip": "ym2612"
    },
    {
      "channel": 0,
      "note": 96,
      "start": 4.7958,
      "duration": 0.1831,
      "velocity": 97,
      "chip": "ym2612"
    },
    {
      "channel": 2,
      "note": 74,
      "start": 4.7965,
      "duration": 0.1326,
      "velocity": 88,
      "chip": "ym2612"
    },
    {
      "channel": 5,
      "note": 96,
      "start": 4.797,
      "duration": 0.1827,
      "velocity": 95,
      "chip": "ym2612"
    },
    {
      "channel": 4,
      "note": 79,
      "start": 4.8797,
      "duration": 0.1329,
      "velocity": 88,
      "chip": "ym2612"
    },
    {
      "channel": 2,
      "note": 77,
      "start": 4.9794,
      "duration": 0.1329,
      "velocity": 88,
      "chip": "ym2612"
    },
    {
      "channel": 3,
      "note": 96,
      "start": 5.0627,
      "duration": 0.1831,
      "velocity": 97,
      "chip": "ym2612"
    },
    {
      "channel": 4,
      "note": 74,
      "start": 5.0633,
      "duration": 0.1326,
      "velocity": 88,
      "chip": "ym2612"
    },
    {
      "channel": 2,
      "note": 79,
      "start": 5.146,
      "duration": 0.133,
      "velocity": 88,
      "chip": "ym2612"
    },
    {
      "channel": 4,
      "note": 77,
      "start": 5.2463,
      "duration": 0.1331,
      "velocity": 88,
      "chip": "ym2612"
    },
    {
      "channel": 0,
      "note": 99,
      "start": 5.3292,
      "duration": 0.1831,
      "velocity": 97,
      "chip": "ym2612"
    },
    {
      "channel": 2,
      "note": 74,
      "start": 5.3298,
      "duration": 0.1326,
      "velocity": 88,
      "chip": "ym2612"
    },
    {
      "channel": 5,
      "note": 99,
      "start": 5.3303,
      "duration": 0.1827,
      "velocity": 95,
      "chip": "ym2612"
    },
    {
      "channel": 4,
      "note": 79,
      "start": 5.413,
      "duration": 0.1329,
      "velocity": 88,
      "chip": "ym2612"
    },
    {
      "channel": 2,
      "note": 77,
      "start": 5.5127,
      "duration": 0.1329,
      "velocity": 88,
      "chip": "ym2612"
    },
    {
      "channel": 3,
      "note": 99,
      "start": 5.5961,
      "duration": 0.1831,
      "velocity": 97,
      "chip": "ym2612"
    },
    {
      "channel": 4,
      "note": 74,
      "start": 5.5967,
      "duration": 0.1326,
      "velocity": 88,
      "chip": "ym2612"
    },
    {
      "channel": 2,
      "note": 79,
      "start": 5.6794,
      "duration": 0.133,
      "velocity": 88,
      "chip": "ym2612"
    },
    {
      "channel": 4,
      "note": 77,
      "start": 5.7796,
      "duration": 0.1331,
      "velocity": 88,
      "chip": "ym2612"
    },
    {
      "channel": 0,
      "note": 96,
      "start": 5.8625,
      "duration": 0.1831,
      "velocity": 97,
      "chip": "ym2612"
    },
    {
      "channel": 2,
      "note": 74,
      "start": 5.8631,
      "duration": 0.1326,
      "velocity": 88,
      "chip": "ym2612"
    },
    {
      "channel": 5,
      "note": 96,
      "start": 5.8637,
      "duration": 0.1827,
      "velocity": 95,
      "chip": "ym2612"
    },
    {
      "channel": 4,
      "note": 79,
      "start": 5.9463,
      "duration": 0.1329,
      "velocity": 88,
      "chip": "ym2612"
    },
    {
      "channel": 2,
      "note": 77,
      "start": 6.0461,
      "duration": 0.1329,
      "velocity": 88,
      "chip": "ym2612"
    },
    {
      "channel": 3,
      "note": 96,
      "start": 6.1294,
      "duration": 0.1831,
      "velocity": 97,
      "chip": "ym2612"
    },
    {
      "channel": 4,
      "note": 74,
      "start": 6.13,
      "duration": 0.1326,
      "velocity": 88,
      "chip": "ym2612"
    },
    {
      "channel": 2,
      "note": 79,
      "start": 6.2127,
      "duration": 0.133,
      "velocity": 88,
      "chip": "ym2612"
    },
    {
      "channel": 4,
      "note": 77,
      "start": 6.3129,
      "duration": 0.133,
      "velocity": 88,
      "chip": "ym2612"
    },
    {
      "channel": 0,
      "note": 94,
      "start": 6.3958,
      "duration": 0.1831,
      "velocity": 97,
      "chip": "ym2612"
    },
    {
      "channel": 2,
      "note": 74,
      "start": 6.3966,
      "duration": 0.1325,
      "velocity": 88,
      "chip": "ym2612"
    },
    {
      "channel": 5,
      "note": 94,
      "start": 6.3971,
      "duration": 0.1826,
      "velocity": 95,
      "chip": "ym2612"
    },
    {
      "channel": 4,
      "note": 79,
      "start": 6.4797,
      "duration": 0.1329,
      "velocity": 88,
      "chip": "ym2612"
    },
    {
      "channel": 2,
      "note": 77,
      "start": 6.5794,
      "duration": 0.133,
      "velocity": 88,
      "chip": "ym2612"
    },
    {
      "channel": 3,
      "note": 94,
      "start": 6.6627,
      "duration": 0.1831,
      "velocity": 97,
      "chip": "ym2612"
    },
    {
      "channel": 4,
      "note": 74,
      "start": 6.6633,
      "duration": 0.1326,
      "velocity": 88,
      "chip": "ym2612"
    },
    {
      "channel": 2,
      "note": 79,
      "start": 6.746,
      "duration": 0.133,
      "velocity": 88,
      "chip": "ym2612"
    },
    {
      "channel": 4,
      "note": 77,
      "start": 6.8463,
      "duration": 0.1331,
      "velocity": 88,
      "chip": "ym2612"
    },
    {
      "channel": 0,
      "note": 92,
      "start": 6.9292,
      "duration": 0.1831,
      "velocity": 97,
      "chip": "ym2612"
    },
    {
      "channel": 2,
      "note": 74,
      "start": 6.9298,
      "duration": 0.1326,
      "velocity": 88,
      "chip": "ym2612"
    },
    {
      "channel": 5,
      "note": 92,
      "start": 6.9303,
      "duration": 0.1827,
      "velocity": 95,
      "chip": "ym2612"
    },
    {
      "channel": 4,
      "note": 79,
      "start": 7.013,
      "duration": 0.1329,
      "velocity": 88,
      "chip": "ym2612"
    },
    {
      "channel": 2,
      "note": 77,
      "start": 7.1127,
      "duration": 0.1329,
      "velocity": 88,
      "chip": "ym2612"
    },
    {
      "channel": 3,
      "note": 92,
      "start": 7.1961,
      "duration": 0.1831,
      "velocity": 97,
      "chip": "ym2612"
    },
    {
      "channel": 4,
      "note": 74,
      "start": 7.1967,
      "duration": 0.1326,
      "velocity": 88,
      "chip": "ym2612"
    },
    {
      "channel": 2,
      "note": 79,
      "start": 7.2794,
      "duration": 0.133,
      "velocity": 88,
      "chip": "ym2612"
    },
    {
      "channel": 4,
      "note": 77,
      "start": 7.3796,
      "duration": 0.1331,
      "velocity": 88,
      "chip": "ym2612"
    },
    {
      "channel": 0,
      "note": 94,
      "start": 7.4625,
      "duration": 0.5331,
      "velocity": 97,
      "chip": "ym2612"
    },
    {
      "channel": 2,
      "note": 74,
      "start": 7.4631,
      "duration": 0.1326,
      "velocity": 88,
      "chip": "ym2612"
    },
    {
      "channel": 5,
      "note": 94,
      "start": 7.4637,
      "duration": 0.533,
      "velocity": 95,
      "chip": "ym2612"
    },
    {
      "channel": 4,
      "note": 79,
      "start": 7.5463,
      "duration": 0.133,
      "velocity": 88,
      "chip": "ym2612"
    },
    {
      "channel": 2,
      "note": 77,
      "start": 7.646,
      "duration": 0.1331,
      "velocity": 88,
      "chip": "ym2612"
    },
    {
      "channel": 3,
      "note": 94,
      "start": 7.7295,
      "duration": 0.5329,
      "velocity": 97,
      "chip": "ym2612"
    },
    {
      "channel": 4,
      "note": 74,
      "start": 7.73,
      "duration": 0.1327,
      "velocity": 88,
      "chip": "ym2612"
    },
    {
      "channel": 2,
      "note": 79,
      "start": 7.8128,
      "duration": 0.133,
      "velocity": 88,
      "chip": "ym2612"
    },
    {
      "channel": 4,
      "note": 77,
      "start": 7.913,
      "duration": 0.133,
      "velocity": 88,
      "chip": "ym2612"
    },
    {
      "channel": 2,
      "note": 74,
      "start": 7.9963,
      "duration": 0.1327,
      "velocity": 88,
      "chip": "ym2612"
    },
    {
      "channel": 4,
      "note": 79,
      "start": 8.0797,
      "duration": 0.133,
      "velocity": 88,
      "chip": "ym2612"
    },
    {
      "channel": 2,
      "note": 77,
      "start": 8.1792,
      "duration": 0.1331,
      "velocity": 88,
      "chip": "ym2612"
    },
    {
      "channel": 4,
      "note": 74,
      "start": 8.2632,
      "duration": 0.1327,
      "velocity": 88,
      "chip": "ym2612"
    },
    {
      "channel": 2,
      "note": 79,
      "start": 8.346,
      "duration": 0.133,
      "velocity": 88,
      "chip": "ym2612"
    },
    {
      "channel": 4,
      "note": 77,
      "start": 8.4461,
      "duration": 0.1332,
      "velocity": 88,
      "chip": "ym2612"
    },
    {
      "channel": 0,
      "note": 96,
      "start": 8.5293,
      "duration": 0.1829,
      "velocity": 97,
      "chip": "ym2612"
    },
    {
      "channel": 2,
      "note": 72,
      "start": 8.53,
      "duration": 0.1324,
      "velocity": 88,
      "chip": "ym2612"
    },
    {
      "channel": 5,
      "note": 96,
      "start": 8.5305,
      "duration": 0.1825,
      "velocity": 95,
      "chip": "ym2612"
    },
    {
      "channel": 4,
      "note": 79,
      "start": 8.613,
      "duration": 0.1329,
      "velocity": 88,
      "chip": "ym2612"
    },
    {
      "channel": 2,
      "note": 76,
      "start": 8.7127,
      "duration": 0.133,
      "velocity": 88,
      "chip": "ym2612"
    },
    {
      "channel": 3,
      "note": 96,
      "start": 8.7961,
      "duration": 0.183,
      "velocity": 97,
      "chip": "ym2612"
    },
    {
      "channel": 4,
      "note": 72,
      "start": 8.7967,
      "duration": 0.1326,
      "velocity": 88,
      "chip": "ym2612"
    },
    {
      "channel": 2,
      "note": 78,
      "start": 8.8794,
      "duration": 0.133,
      "velocity": 88,
      "chip": "ym2612"
    },
    {
      "channel": 4,
      "note": 76,
      "start": 8.9796,
      "duration": 0.1331,
      "velocity": 88,
      "chip": "ym2612"
    },
    {
      "channel": 0,
      "note": 96,
      "start": 9.0625,
      "duration": 0.1831,
      "velocity": 97,
      "chip": "ym2612"
    },
    {
      "channel": 2,
      "note": 72,
      "start": 9.0631,
      "duration": 0.1327,
      "velocity": 88,
      "chip": "ym2612"
    },
    {
      "channel": 5,
      "note": 96,
      "start": 9.0636,
      "duration": 0.1828,
      "velocity": 95,
      "chip": "ym2612"
    },
    {
      "channel": 4,
      "note": 78,
      "start": 9.1463,
      "duration": 0.1329,
      "velocity": 88,
      "chip": "ym2612"
    },
    {
      "channel": 2,
      "note": 76,
      "start": 9.2461,
      "duration": 0.1329,
      "velocity": 88,
      "chip": "ym2612"
    },
    {
      "channel": 3,
      "note": 96,
      "start": 9.3294,
      "duration": 0.1831,
      "velocity": 97,
      "chip": "ym2612"
    },
    {
      "channel": 4,
      "note": 72,
      "start": 9.3299,
      "duration": 0.1327,
      "velocity": 88,
      "chip": "ym2612"
    },
    {
      "channel": 2,
      "note": 78,
      "start": 9.4127,
      "duration": 0.133,
      "velocity": 88,
      "chip": "ym2612"
    },
    {
      "channel": 4,
      "note": 76,
      "start": 9.5129,
      "duration": 0.1331,
      "velocity": 88,
      "chip": "ym2612"
    },
    {
      "channel": 0,
      "note": 99,
      "start": 9.5958,
      "duration": 0.1831,
      "velocity": 97,
      "chip": "ym2612"
    },
    {
      "channel": 2,
      "note": 72,
      "start": 9.5964,
      "duration": 0.1327,
      "velocity": 88,
      "chip": "ym2612"
    },
    {
      "channel": 5,
      "note": 99,
      "start": 9.5969,
      "duration": 0.1828,
      "velocity": 95,
      "chip": "ym2612"
    },
    {
      "channel": 4,
      "note": 78,
      "start": 9.6797,
      "duration": 0.1329,
      "velocity": 88,
      "chip": "ym2612"
    },
    {
      "channel": 2,
      "note": 76,
      "start": 9.7794,
      "duration": 0.1329,
      "velocity": 88,
      "chip": "ym2612"
    },
    {
      "channel": 3,
      "note": 99,
      "start": 9.8627,
      "duration": 0.1831,
      "velocity": 97,
      "chip": "ym2612"
    },
    {
      "channel": 4,
      "note": 72,
      "start": 9.8633,
      "duration": 0.1327,
      "velocity": 88,
      "chip": "ym2612"
    },
    {
      "channel": 2,
      "note": 78,
      "start": 9.946,
      "duration": 0.133,
      "velocity": 88,
      "chip": "ym2612"
    },
    {
      "channel": 4,
      "note": 76,
      "start": 10.0463,
      "duration": 0.1331,
      "velocity": 88,
      "chip": "ym2612"
    },
    {
      "channel": 0,
      "note": 96,
      "start": 10.1292,
      "duration": 0.1831,
      "velocity": 97,
      "chip": "ym2612"
    },
    {
      "channel": 2,
      "note": 72,
      "start": 10.1297,
      "duration": 0.1327,
      "velocity": 88,
      "chip": "ym2612"
    },
    {
      "channel": 5,
      "note": 96,
      "start": 10.1302,
      "duration": 0.1828,
      "velocity": 95,
      "chip": "ym2612"
    },
    {
      "channel": 4,
      "note": 78,
      "start": 10.213,
      "duration": 0.1329,
      "velocity": 88,
      "chip": "ym2612"
    },
    {
      "channel": 2,
      "note": 76,
      "start": 10.3127,
      "duration": 0.1329,
      "velocity": 88,
      "chip": "ym2612"
    },
    {
      "channel": 3,
      "note": 96,
      "start": 10.3961,
      "duration": 0.1831,
      "velocity": 97,
      "chip": "ym2612"
    },
    {
      "channel": 4,
      "note": 72,
      "start": 10.3966,
      "duration": 0.1327,
      "velocity": 88,
      "chip": "ym2612"
    },
    {
      "channel": 2,
      "note": 78,
      "start": 10.4794,
      "duration": 0.133,
      "velocity": 88,
      "chip": "ym2612"
    },
    {
      "channel": 4,
      "note": 76,
      "start": 10.5796,
      "duration": 0.133,
      "velocity": 88,
      "chip": "ym2612"
    },
    {
      "channel": 0,
      "note": 94,
      "start": 10.6625,
      "duration": 0.1831,
      "velocity": 97,
      "chip": "ym2612"
    },
    {
      "channel": 2,
      "note": 72,
      "start": 10.6632,
      "duration": 0.1326,
      "velocity": 88,
      "chip": "ym2612"
    },
    {
      "channel": 5,
      "note": 94,
      "start": 10.6637,
      "duration": 0.1827,
      "velocity": 95,
      "chip": "ym2612"
    },
    {
      "channel": 4,
      "note": 78,
      "start": 10.7463,
      "duration": 0.1329,
      "velocity": 88,
      "chip": "ym2612"
    },
    {
      "channel": 2,
      "note": 76,
      "start": 10.846,
      "duration": 0.133,
      "velocity": 88,
      "chip": "ym2612"
    },
    {
      "channel": 3,
      "note": 94,
      "start": 10.9294,
      "duration": 0.1831,
      "velocity": 97,
      "chip": "ym2612"
    },
    {
      "channel": 4,
      "note": 72,
      "start": 10.9299,
      "duration": 0.1327,
      "velocity": 88,
      "chip": "ym2612"
    },
    {
      "channel": 2,
      "note": 78,
      "start": 11.0127,
      "duration": 0.133,
      "velocity": 88,
      "chip": "ym2612"
    },
    {
      "channel": 4,
      "note": 76,
      "start": 11.1129,
      "duration": 0.1331,
      "velocity": 88,
      "chip": "ym2612"
    },
    {
      "channel": 0,
      "note": 92,
      "start": 11.1958,
      "duration": 0.1831,
      "velocity": 97,
      "chip": "ym2612"
    },
    {
      "channel": 2,
      "note": 72,
      "start": 11.1964,
      "duration": 0.1327,
      "velocity": 88,
      "chip": "ym2612"
    },
    {
      "channel": 5,
      "note": 92,
      "start": 11.1969,
      "duration": 0.1828,
      "velocity": 95,
      "chip": "ym2612"
    },
    {
      "channel": 4,
      "note": 78,
      "start": 11.2797,
      "duration": 0.1329,
      "velocity": 88,
      "chip": "ym2612"
    },
    {
      "channel": 2,
      "note": 76,
      "start": 11.3794,
      "duration": 0.1329,
      "velocity": 88,
      "chip": "ym2612"
    },
    {
      "channel": 3,
      "note": 92,
      "start": 11.4627,
      "duration": 0.1831,
      "velocity": 97,
      "chip": "ym2612"
    },
    {
      "channel": 4,
      "note": 72,
      "start": 11.4633,
      "duration": 0.1327,
      "velocity": 88,
      "chip": "ym2612"
    },
    {
      "channel": 2,
      "note": 78,
      "start": 11.546,
      "duration": 0.133,
      "velocity": 88,
      "chip": "ym2612"
    },
    {
      "channel": 4,
      "note": 76,
      "start": 11.6463,
      "duration": 0.1331,
      "velocity": 88,
      "chip": "ym2612"
    },
    {
      "channel": 0,
      "note": 94,
      "start": 11.7292,
      "duration": 0.5331,
      "velocity": 97,
      "chip": "ym2612"
    },
    {
      "channel": 2,
      "note": 72,
      "start": 11.7297,
      "duration": 0.1327,
      "velocity": 88,
      "chip": "ym2612"
    },
    {
      "channel": 5,
      "note": 94,
      "start": 11.7302,
      "duration": 0.533,
      "velocity": 95,
      "chip": "ym2612"
    },
    {
      "channel": 4,
      "note": 78,
      "start": 11.813,
      "duration": 0.133,
      "velocity": 88,
      "chip": "ym2612"
    },
    {
      "channel": 2,
      "note": 76,
      "start": 11.9127,
      "duration": 0.1331,
      "velocity": 88,
      "chip": "ym2612"
    },
    {
      "channel": 3,
      "note": 94,
      "start": 11.9962,
      "duration": 0.5329,
      "velocity": 97,
      "chip": "ym2612"
    },
    {
      "channel": 4,
      "note": 72,
      "start": 11.9967,
      "duration": 0.1327,
      "velocity": 88,
      "chip": "ym2612"
    },
    {
      "channel": 2,
      "note": 78,
      "start": 12.0795,
      "duration": 0.133,
      "velocity": 88,
      "chip": "ym2612"
    },
    {
      "channel": 4,
      "note": 76,
      "start": 12.1797,
      "duration": 0.133,
      "velocity": 88,
      "chip": "ym2612"
    },
    {
      "channel": 2,
      "note": 72,
      "start": 12.2629,
      "duration": 0.1327,
      "velocity": 88,
      "chip": "ym2612"
    },
    {
      "channel": 4,
      "note": 78,
      "start": 12.3463,
      "duration": 0.133,
      "velocity": 88,
      "chip": "ym2612"
    },
    {
      "channel": 2,
      "note": 76,
      "start": 12.4459,
      "duration": 0.1331,
      "velocity": 88,
      "chip": "ym2612"
    },
    {
      "channel": 4,
      "note": 72,
      "start": 12.5298,
      "duration": 0.1328,
      "velocity": 88,
      "chip": "ym2612"
    },
    {
      "channel": 2,
      "note": 78,
      "start": 12.6127,
      "duration": 0.133,
      "velocity": 88,
      "chip": "ym2612"
    },
    {
      "channel": 4,
      "note": 76,
      "start": 12.7128,
      "duration": 0.1332,
      "velocity": 88,
      "chip": "ym2612"
    },
    {
      "channel": 0,
      "note": 96,
      "start": 12.796,
      "duration": 0.1829,
      "velocity": 97,
      "chip": "ym2612"
    },
    {
      "channel": 2,
      "note": 72,
      "start": 12.7967,
      "duration": 0.1324,
      "velocity": 88,
      "chip": "ym2612"
    },
    {
      "channel": 5,
      "note": 96,
      "start": 12.7972,
      "duration": 0.1825,
      "velocity": 95,
      "chip": "ym2612"
    },
    {
      "channel": 4,
      "note": 78,
      "start": 12.8797,
      "duration": 0.1329,
      "velocity": 88,
      "chip": "ym2612"
    },
    {
      "channel": 2,
      "note": 76,
      "start": 12.9794,
      "duration": 0.133,
      "velocity": 88,
      "chip": "ym2612"
    },
    {
      "channel": 3,
      "note": 96,
      "start": 13.0628,
      "duration": 0.183,
      "velocity": 97,
      "chip": "ym2612"
    },
    {
      "channel": 4,
      "note": 72,
      "start": 13.0633,
      "duration": 0.1326,
      "velocity": 88,
      "chip": "ym2612"
    },
    {
      "channel": 2,
      "note": 78,
      "start": 13.146,
      "duration": 0.133,
      "velocity": 88,
      "chip": "ym2612"
    },
    {
      "channel": 4,
      "note": 76,
      "start": 13.2463,
      "duration": 0.1331,
      "velocity": 88,
      "chip": "ym2612"
    },
    {
      "channel": 0,
      "note": 96,
      "start": 13.3292,
      "duration": 0.1831,
      "velocity": 97,
      "chip": "ym2612"
    },
    {
      "channel": 2,
      "note": 72,
      "start": 13.3297,
      "duration": 0.1327,
      "velocity": 88,
      "chip": "ym2612"
    },
    {
      "channel": 5,
      "note": 96,
      "start": 13.3302,
      "duration": 0.1828,
      "velocity": 95,
      "chip": "ym2612"
    },
    {
      "channel": 4,
      "note": 78,
      "start": 13.413,
      "duration": 0.1329,
      "velocity": 88,
      "chip": "ym2612"
    },
    {
      "channel": 2,
      "note": 76,
      "start": 13.5127,
      "duration": 0.1329,
      "velocity": 88,
      "chip": "ym2612"
    },
    {
      "channel": 3,
      "note": 96,
      "start": 13.5961,
      "duration": 0.1831,
      "velocity": 97,
      "chip": "ym2612"
    },
    {
      "channel": 4,
      "note": 72,
      "start": 13.5966,
      "duration": 0.1327,
      "velocity": 88,
      "chip": "ym2612"
    },
    {
      "channel": 2,
      "note": 78,
      "start": 13.6794,
      "duration": 0.133,
      "velocity": 88,
      "chip": "ym2612"
    },
    {
      "channel": 4,
      "note": 76,
      "start": 13.7796,
      "duration": 0.1331,
      "velocity": 88,
      "chip": "ym2612"
    },
    {
      "channel": 0,
      "note": 99,
      "start": 13.8625,
      "duration": 0.1831,
      "velocity": 97,
      "chip": "ym2612"
    },
    {
      "channel": 2,
      "note": 72,
      "start": 13.8631,
      "duration": 0.1327,
      "velocity": 88,
      "chip": "ym2612"
    },
    {
      "channel": 5,
      "note": 99,
      "start": 13.8636,
      "duration": 0.1828,
      "velocity": 95,
      "chip": "ym2612"
    },
    {
      "channel": 4,
      "note": 78,
      "start": 13.9463,
      "duration": 0.1329,
      "velocity": 88,
      "chip": "ym2612"
    },
    {
      "channel": 2,
      "note": 76,
      "start": 14.0461,
      "duration": 0.1329,
      "velocity": 88,
      "chip": "ym2612"
    },
    {
      "channel": 3,
      "note": 99,
      "start": 14.1294,
      "duration": 0.1831,
      "velocity": 97,
      "chip": "ym2612"
    },
    {
      "channel": 4,
      "note": 72,
      "start": 14.1299,
      "duration": 0.1327,
      "velocity": 88,
      "chip": "ym2612"
    },
    {
      "channel": 2,
      "note": 78,
      "start": 14.2127,
      "duration": 0.133,
      "velocity": 88,
      "chip": "ym2612"
    },
    {
      "channel": 4,
      "note": 76,
      "start": 14.3129,
      "duration": 0.1331,
      "velocity": 88,
      "chip": "ym2612"
    },
    {
      "channel": 0,
      "note": 96,
      "start": 14.3958,
      "duration": 0.1831,
      "velocity": 97,
      "chip": "ym2612"
    },
    {
      "channel": 2,
      "note": 72,
      "start": 14.3964,
      "duration": 0.1327,
      "velocity": 88,
      "chip": "ym2612"
    },
    {
      "channel": 5,
      "note": 96,
      "start": 14.3969,
      "duration": 0.1828,
      "velocity": 95,
      "chip": "ym2612"
    },
    {
      "channel": 4,
      "note": 78,
      "start": 14.4797,
      "duration": 0.1329,
      "velocity": 88,
      "chip": "ym2612"
    },
    {
      "channel": 2,
      "note": 76,
      "start": 14.5794,
      "duration": 0.1329,
      "velocity": 88,
      "chip": "ym2612"
    },
    {
      "channel": 3,
      "note": 96,
      "start": 14.6627,
      "duration": 0.1831,
      "velocity": 97,
      "chip": "ym2612"
    },
    {
      "channel": 4,
      "note": 72,
      "start": 14.6633,
      "duration": 0.1327,
      "velocity": 88,
      "chip": "ym2612"
    },
    {
      "channel": 2,
      "note": 78,
      "start": 14.746,
      "duration": 0.133,
      "velocity": 88,
      "chip": "ym2612"
    },
    {
      "channel": 4,
      "note": 76,
      "start": 14.8463,
      "duration": 0.133,
      "velocity": 88,
      "chip": "ym2612"
    },
    {
      "channel": 0,
      "note": 94,
      "start": 14.9292,
      "duration": 0.1831,
      "velocity": 97,
      "chip": "ym2612"
    },
    {
      "channel": 2,
      "note": 72,
      "start": 14.9299,
      "duration": 0.1326,
      "velocity": 88,
      "chip": "ym2612"
    },
    {
      "channel": 5,
      "note": 94,
      "start": 14.9304,
      "duration": 0.1827,
      "velocity": 95,
      "chip": "ym2612"
    },
    {
      "channel": 4,
      "note": 78,
      "start": 15.013,
      "duration": 0.1329,
      "velocity": 88,
      "chip": "ym2612"
    },
    {
      "channel": 2,
      "note": 76,
      "start": 15.1127,
      "duration": 0.133,
      "velocity": 88,
      "chip": "ym2612"
    },
    {
      "channel": 3,
      "note": 94,
      "start": 15.1961,
      "duration": 0.1831,
      "velocity": 97,
      "chip": "ym2612"
    },
    {
      "channel": 4,
      "note": 72,
      "start": 15.1966,
      "duration": 0.1327,
      "velocity": 88,
      "chip": "ym2612"
    },
    {
      "channel": 2,
      "note": 78,
      "start": 15.2794,
      "duration": 0.133,
      "velocity": 88,
      "chip": "ym2612"
    },
    {
      "channel": 4,
      "note": 76,
      "start": 15.3796,
      "duration": 0.1331,
      "velocity": 88,
      "chip": "ym2612"
    },
    {
      "channel": 0,
      "note": 92,
      "start": 15.4625,
      "duration": 0.1831,
      "velocity": 97,
      "chip": "ym2612"
    },
    {
      "channel": 2,
      "note": 72,
      "start": 15.4631,
      "duration": 0.1327,
      "velocity": 88,
      "chip": "ym2612"
    },
    {
      "channel": 5,
      "note": 92,
      "start": 15.4636,
      "duration": 0.1828,
      "velocity": 95,
      "chip": "ym2612"
    },
    {
      "channel": 4,
      "note": 78,
      "start": 15.5463,
      "duration": 0.1329,
      "velocity": 88,
      "chip": "ym2612"
    },
    {
      "channel": 2,
      "note": 76,
      "start": 15.6461,
      "duration": 0.1329,
      "velocity": 88,
      "chip": "ym2612"
    },
    {
      "channel": 3,
      "note": 92,
      "start": 15.7294,
      "duration": 0.1831,
      "velocity": 97,
      "chip": "ym2612"
    },
    {
      "channel": 4,
      "note": 72,
      "start": 15.7299,
      "duration": 0.1327,
      "velocity": 88,
      "chip": "ym2612"
    },
    {
      "channel": 2,
      "note": 78,
      "start": 15.8127,
      "duration": 0.133,
      "velocity": 88,
      "chip": "ym2612"
    },
    {
      "channel": 4,
      "note": 76,
      "start": 15.9129,
      "duration": 0.1331,
      "velocity": 88,
      "chip": "ym2612"
    },
    {
      "channel": 0,
      "note": 94,
      "start": 15.9958,
      "duration": 0.5331,
      "velocity": 97,
      "chip": "ym2612"
    },
    {
      "channel": 2,
      "note": 72,
      "start": 15.9964,
      "duration": 0.1327,
      "velocity": 88,
      "chip": "ym2612"
    },
    {
      "channel": 5,
      "note": 94,
      "start": 15.9969,
      "duration": 0.533,
      "velocity": 95,
      "chip": "ym2612"
    },
    {
      "channel": 4,
      "note": 78,
      "start": 16.0797,
      "duration": 0.133,
      "velocity": 88,
      "chip": "ym2612"
    },
    {
      "channel": 2,
      "note": 76,
      "start": 16.1794,
      "duration": 0.1331,
      "velocity": 88,
      "chip": "ym2612"
    },
    {
      "channel": 3,
      "note": 94,
      "start": 16.2628,
      "duration": 0.533,
      "velocity": 97,
      "chip": "ym2612"
    },
    {
      "channel": 4,
      "note": 72,
      "start": 16.2633,
      "duration": 0.1327,
      "velocity": 88,
      "chip": "ym2612"
    },
    {
      "channel": 2,
      "note": 78,
      "start": 16.3461,
      "duration": 0.133,
      "velocity": 88,
      "chip": "ym2612"
    },
    {
      "channel": 4,
      "note": 76,
      "start": 16.4463,
      "duration": 0.133,
      "velocity": 88,
      "chip": "ym2612"
    },
    {
      "channel": 2,
      "note": 72,
      "start": 16.5296,
      "duration": 0.1327,
      "velocity": 88,
      "chip": "ym2612"
    },
    {
      "channel": 4,
      "note": 78,
      "start": 16.613,
      "duration": 0.133,
      "velocity": 88,
      "chip": "ym2612"
    },
    {
      "channel": 2,
      "note": 76,
      "start": 16.7126,
      "duration": 0.1331,
      "velocity": 88,
      "chip": "ym2612"
    },
    {
      "channel": 4,
      "note": 72,
      "start": 16.7965,
      "duration": 0.1328,
      "velocity": 88,
      "chip": "ym2612"
    },
    {
      "channel": 2,
      "note": 78,
      "start": 16.8794,
      "duration": 0.133,
      "velocity": 88,
      "chip": "ym2612"
    },
    {
      "channel": 4,
      "note": 76,
      "start": 16.9795,
      "duration": 0.1332,
      "velocity": 88,
      "chip": "ym2612"
    },
    {
      "channel": 1,
      "note": 58,
      "start": 17.0641,
      "duration": 0.5319,
      "velocity": 101,
      "chip": "ym2612"
    },
    {
      "channel": 2,
      "note": 74,
      "start": 17.0646,
      "duration": 0.1311,
      "velocity": 88,
      "chip": "ym2612"
    },
    {
      "channel": 5,
      "note": 58,
      "start": 17.0663,
      "duration": 0.5307,
      "velocity": 101,
      "chip": "ym2612"
    },
    {
      "channel": 4,
      "note": 78,
      "start": 17.1463,
      "duration": 0.133,
      "velocity": 88,
      "chip": "ym2612"
    },
    {
      "channel": 2,
      "note": 77,
      "start": 17.246,
      "duration": 0.1331,
      "velocity": 88,
      "chip": "ym2612"
    },
    {
      "channel": 4,
      "note": 74,
      "start": 17.3313,
      "duration": 0.1313,
      "velocity": 88,
      "chip": "ym2612"
    },
    {
      "channel": 2,
      "note": 79,
      "start": 17.4128,
      "duration": 0.133,
      "velocity": 88,
      "chip": "ym2612"
    },
    {
      "channel": 4,
      "note": 77,
      "start": 17.5129,
      "duration": 0.1332,
      "velocity": 88,
      "chip": "ym2612"
    },
    {
      "channel": 0,
      "note": 58,
      "start": 17.5958,
      "duration": 0.5333,
      "velocity": 101,
      "chip": "ym2612"
    },
    {
      "channel": 1,
      "note": 57,
      "start": 17.5961,
      "duration": 2.133,
      "velocity": 101,
      "chip": "ym2612"
    },
    {
      "channel": 2,
      "note": 74,
      "start": 17.5966,
      "duration": 0.1326,
      "velocity": 88,
      "chip": "ym2612"
    },
    {
      "channel": 5,
      "note": 56,
      "start": 17.597,
      "duration": 2.1332,
      "velocity": 101,
      "chip": "ym2612"
    },
    {
      "channel": 4,
      "note": 79,
      "start": 17.6797,
      "duration": 0.133,
      "velocity": 88,
      "chip": "ym2612"
    },
    {
      "channel": 2,
      "note": 77,
      "start": 17.7794,
      "duration": 0.1332,
      "velocity": 88,
      "chip": "ym2612"
    },
    {
      "channel": 3,
      "note": 58,
      "start": 17.8629,
      "duration": 0.5333,
      "velocity": 101,
      "chip": "ym2612"
    },
    {
      "channel": 4,
      "note": 74,
      "start": 17.8634,
      "duration": 0.1328,
      "velocity": 88,
      "chip": "ym2612"
    },
    {
      "channel": 2,
      "note": 79,
      "start": 17.9462,
      "duration": 0.133,
      "velocity": 88,
      "chip": "ym2612"
    },
    {
      "channel": 4,
      "note": 77,
      "start": 18.0464,
      "duration": 0.1332,
      "velocity": 88,
      "chip": "ym2612"
    },
    {
      "channel": 0,
      "note": 57,
      "start": 18.1291,
      "duration": 2.1332,
      "velocity": 101,
      "chip": "ym2612"
    },
    {
      "channel": 2,
      "note": 74,
      "start": 18.1298,
      "duration": 0.1328,
      "velocity": 88,
      "chip": "ym2612"
    },
    {
      "channel": 4,
      "note": 79,
      "start": 18.2132,
      "duration": 0.133,
      "velocity": 88,
      "chip": "ym2612"
    },
    {
      "channel": 2,
      "note": 77,
      "start": 18.3128,
      "duration": 0.1331,
      "velocity": 88,
      "chip": "ym2612"
    },
    {
      "channel": 3,
      "note": 57,
      "start": 18.3963,
      "duration": 2.1331,
      "velocity": 101,
      "chip": "ym2612"
    },
    {
      "channel": 4,
      "note": 74,
      "start": 18.3968,
      "duration": 0.1328,
      "velocity": 88,
      "chip": "ym2612"
    },
    {
      "channel": 2,
      "note": 79,
      "start": 18.4795,
      "duration": 0.133,
      "velocity": 88,
      "chip": "ym2612"
    },
    {
      "channel": 4,
      "note": 77,
      "start": 18.5797,
      "duration": 0.1332,
      "velocity": 88,
      "chip": "ym2612"
    },
    {
      "channel": 2,
      "note": 74,
      "start": 18.663,
      "duration": 0.1329,
      "velocity": 88,
      "chip": "ym2612"
    },
    {
      "channel": 4,
      "note": 79,
      "start": 18.7465,
      "duration": 0.133,
      "velocity": 88,
      "chip": "ym2612"
    },
    {
      "channel": 2,
      "note": 77,
      "start": 18.8461,
      "duration": 0.1331,
      "velocity": 88,
      "chip": "ym2612"
    },
    {
      "channel": 4,
      "note": 74,
      "start": 18.93,
      "duration": 0.1329,
      "velocity": 88,
      "chip": "ym2612"
    },
    {
      "channel": 2,
      "note": 79,
      "start": 19.0129,
      "duration": 0.133,
      "velocity": 88,
      "chip": "ym2612"
    },
    {
      "channel": 4,
      "note": 77,
      "start": 19.1131,
      "duration": 0.1332,
      "velocity": 88,
      "chip": "ym2612"
    },
    {
      "channel": 2,
      "note": 74,
      "start": 19.1963,
      "duration": 0.1329,
      "velocity": 88,
      "chip": "ym2612"
    },
    {
      "channel": 4,
      "note": 79,
      "start": 19.2799,
      "duration": 0.133,
      "velocity": 88,
      "chip": "ym2612"
    },
    {
      "channel": 2,
      "note": 77,
      "start": 19.3794,
      "duration": 0.1332,
      "velocity": 88,
      "chip": "ym2612"
    },
    {
      "channel": 4,
      "note": 74,
      "start": 19.4633,
      "duration": 0.1329,
      "velocity": 88,
      "chip": "ym2612"
    },
    {
      "channel": 2,
      "note": 79,
      "start": 19.5462,
      "duration": 0.133,
      "velocity": 88,
      "chip": "ym2612"
    },
    {
      "channel": 4,
      "note": 77,
      "start": 19.6464,
      "duration": 0.1332,
      "velocity": 88,
      "chip": "ym2612"
    },
    {
      "channel": 1,
      "note": 70,
      "start": 19.7294,
      "duration": 0.5334,
      "velocity": 101,
      "chip": "ym2612"
    },
    {
      "channel": 2,
      "note": 74,
      "start": 19.7299,
      "duration": 0.1327,
      "velocity": 88,
      "chip": "ym2612"
    },
    {
      "channel": 5,
      "note": 70,
      "start": 19.7304,
      "duration": 0.5334,
      "velocity": 101,
      "chip": "ym2612"
    },
    {
      "channel": 4,
      "note": 79,
      "start": 19.8132,
      "duration": 0.133,
      "velocity": 88,
      "chip": "ym2612"
    },
    {
      "channel": 2,
      "note": 77,
      "start": 19.9127,
      "duration": 0.1332,
      "velocity": 88,
      "chip": "ym2612"
    },
    {
      "channel": 4,
      "note": 74,
      "start": 19.9967,
      "duration": 0.1329,
      "velocity": 88,
      "chip": "ym2612"
    },
    {
      "channel": 2,
      "note": 79,
      "start": 20.0795,
      "duration": 0.133,
      "velocity": 88,
      "chip": "ym2612"
    },
    {
      "channel": 4,
      "note": 77,
      "start": 20.1797,
      "duration": 0.1332,
      "velocity": 88,
      "chip": "ym2612"
    },
    {
      "channel": 0,
      "note": 70,
      "start": 20.2625,
      "duration": 0.5333,
      "velocity": 101,
      "chip": "ym2612"
    },
    {
      "channel": 1,
      "note": 71,
      "start": 20.2627,
      "duration": 0.5331,
      "velocity": 101,
      "chip": "ym2612"
    },
    {
      "channel": 2,
      "note": 74,
      "start": 20.2633,
      "duration": 0.1326,
      "velocity": 88,
      "chip": "ym2612"
    },
    {
      "channel": 5,
      "note": 70,
      "start": 20.2638,
      "duration": 0.5332,
      "velocity": 101,
      "chip": "ym2612"
    },
    {
      "channel": 4,
      "note": 79,
      "start": 20.3465,
      "duration": 0.133,
      "velocity": 88,
      "chip": "ym2612"
    },
    {
      "channel": 2,
      "note": 77,
      "start": 20.4461,
      "duration": 0.1332,
      "velocity": 88,
      "chip": "ym2612"
    },
    {
      "channel": 3,
      "note": 70,
      "start": 20.5296,
      "duration": 0.5333,
      "velocity": 101,
      "chip": "ym2612"
    },
    {
      "channel": 4,
      "note": 74,
      "start": 20.5301,
      "duration": 0.1328,
      "velocity": 88,
      "chip": "ym2612"
    },
    {
      "channel": 2,
      "note": 79,
      "start": 20.6129,
      "duration": 0.133,
      "velocity": 88,
      "chip": "ym2612"
    },
    {
      "channel": 4,
      "note": 77,
      "start": 20.7131,
      "duration": 0.1332,
      "velocity": 88,
      "chip": "ym2612"
    },
    {
      "channel": 0,
      "note": 71,
      "start": 20.7958,
      "duration": 0.5333,
      "velocity": 101,
      "chip": "ym2612"
    },
    {
      "channel": 1,
      "note": 70,
      "start": 20.7961,
      "duration": 2.133,
      "velocity": 101,
      "chip": "ym2612"
    },
    {
      "channel": 2,
      "note": 74,
      "start": 20.7966,
      "duration": 0.1326,
      "velocity": 88,
      "chip": "ym2612"
    },
    {
      "channel": 5,
      "note": 70,
      "start": 20.7972,
      "duration": 2.1329,
      "velocity": 101,
      "chip": "ym2612"
    },
    {
      "channel": 4,
      "note": 79,
      "start": 20.8799,
      "duration": 0.133,
      "velocity": 88,
      "chip": "ym2612"
    },
    {
      "channel": 2,
      "note": 77,
      "start": 20.9794,
      "duration": 0.1332,
      "velocity": 88,
      "chip": "ym2612"
    },
    {
      "channel": 3,
      "note": 71,
      "start": 21.0629,
      "duration": 0.5333,
      "velocity": 101,
      "chip": "ym2612"
    },
    {
      "channel": 4,
      "note": 74,
      "start": 21.0634,
      "duration": 0.1328,
      "velocity": 88,
      "chip": "ym2612"
    },
    {
      "channel": 2,
      "note": 79,
      "start": 21.1462,
      "duration": 0.133,
      "velocity": 88,
      "chip": "ym2612"
    },
    {
      "channel": 4,
      "note": 77,
      "start": 21.2464,
      "duration": 0.1332,
      "velocity": 88,
      "chip": "ym2612"
    },
    {
      "channel": 0,
      "note": 70,
      "start": 21.3291,
      "duration": 2.1332,
      "velocity": 101,
      "chip": "ym2612"
    },
    {
      "channel": 2,
      "note": 74,
      "start": 21.3298,
      "duration": 0.1328,
      "velocity": 88,
      "chip": "ym2612"
    },
    {
      "channel": 4,
      "note": 79,
      "start": 21.4132,
      "duration": 0.133,
      "velocity": 88,
      "chip": "ym2612"
    },
    {
      "channel": 2,
      "note": 77,
      "start": 21.5128,
      "duration": 0.1331,
      "velocity": 88,
      "chip": "ym2612"
    },
    {
      "channel": 3,
      "note": 70,
      "start": 21.5962,
      "duration": 2.1332,
      "velocity": 101,
      "chip": "ym2612"
    },
    {
      "channel": 4,
      "note": 74,
      "start": 21.5967,
      "duration": 0.1328,
      "velocity": 88,
      "chip": "ym2612"
    },
    {
      "channel": 2,
      "note": 79,
      "start": 21.6796,
      "duration": 0.1329,
      "velocity": 88,
      "chip": "ym2612"
    },
    {
      "channel": 4,
      "note": 77,
      "start": 21.7798,
      "duration": 0.1331,
      "velocity": 88,
      "chip": "ym2612"
    },
    {
      "channel": 2,
      "note": 74,
      "start": 21.863,
      "duration": 0.1329,
      "velocity": 88,
      "chip": "ym2612"
    },
    {
      "channel": 4,
      "note": 79,
      "start": 21.9466,
      "duration": 0.1329,
      "velocity": 88,
      "chip": "ym2612"
    },
    {
      "channel": 2,
      "note": 77,
      "start": 22.0461,
      "duration": 0.1331,
      "velocity": 88,
      "chip": "ym2612"
    },
    {
      "channel": 4,
      "note": 74,
      "start": 22.13,
      "duration": 0.1329,
      "velocity": 88,
      "chip": "ym2612"
    },
    {
      "channel": 2,
      "note": 79,
      "start": 22.2129,
      "duration": 0.1329,
      "velocity": 88,
      "chip": "ym2612"
    },
    {
      "channel": 4,
      "note": 77,
      "start": 22.3131,
      "duration": 0.1331,
      "velocity": 88,
      "chip": "ym2612"
    },
    {
      "channel": 2,
      "note": 74,
      "start": 22.3963,
      "duration": 0.1329,
      "velocity": 88,
      "chip": "ym2612"
    },
    {
      "channel": 4,
      "note": 79,
      "start": 22.4799,
      "duration": 0.1329,
      "velocity": 88,
      "chip": "ym2612"
    },
    {
      "channel": 2,
      "note": 77,
      "start": 22.5795,
      "duration": 0.1331,
      "velocity": 88,
      "chip": "ym2612"
    },
    {
      "channel": 4,
      "note": 74,
      "start": 22.6633,
      "duration": 0.1329,
      "velocity": 88,
      "chip": "ym2612"
    },
    {
      "channel": 2,
      "note": 79,
      "start": 22.7463,
      "duration": 0.1329,
      "velocity": 88,
      "chip": "ym2612"
    },
    {
      "channel": 4,
      "note": 77,
      "start": 22.8465,
      "duration": 0.1331,
      "velocity": 88,
      "chip": "ym2612"
    },
    {
      "channel": 1,
      "note": 64,
      "start": 22.9293,
      "duration": 0.5334,
      "velocity": 101,
      "chip": "ym2612"
    },
    {
      "channel": 2,
      "note": 74,
      "start": 22.9298,
      "duration": 0.1328,
      "velocity": 88,
      "chip": "ym2612"
    },
    {
      "channel": 5,
      "note": 64,
      "start": 22.9304,
      "duration": 0.5334,
      "velocity": 101,
      "chip": "ym2612"
    },
    {
      "channel": 4,
      "note": 79,
      "start": 23.0132,
      "duration": 0.133,
      "velocity": 88,
      "chip": "ym2612"
    },
    {
      "channel": 2,
      "note": 77,
      "start": 23.1128,
      "duration": 0.1331,
      "velocity": 88,
      "chip": "ym2612"
    },
    {
      "channel": 4,
      "note": 74,
      "start": 23.1967,
      "duration": 0.1329,
      "velocity": 88,
      "chip": "ym2612"
    },
    {
      "channel": 2,
      "note": 79,
      "start": 23.2795,
      "duration": 0.133,
      "velocity": 88,
      "chip": "ym2612"
    },
    {
      "channel": 4,
      "note": 77,
      "start": 23.3798,
      "duration": 0.1331,
      "velocity": 88,
      "chip": "ym2612"
    },
    {
      "channel": 0,
      "note": 64,
      "start": 23.4625,
      "duration": 0.5333,
      "velocity": 101,
      "chip": "ym2612"
    },
    {
      "channel": 1,
      "note": 65,
      "start": 23.4627,
      "duration": 2.133,
      "velocity": 101,
      "chip": "ym2612"
    },
    {
      "channel": 2,
      "note": 74,
      "start": 23.4633,
      "duration": 0.1326,
      "velocity": 88,
      "chip": "ym2612"
    },
    {
      "channel": 5,
      "note": 65,
      "start": 23.4638,
      "duration": 2.133,
      "velocity": 101,
      "chip": "ym2612"
    },
    {
      "channel": 4,
      "note": 79,
      "start": 23.5465,
      "duration": 0.133,
      "velocity": 88,
      "chip": "ym2612"
    },
    {
      "channel": 2,
      "note": 77,
      "start": 23.6461,
      "duration": 0.1332,
      "velocity": 88,
      "chip": "ym2612"
    },
    {
      "channel": 3,
      "note": 64,
      "start": 23.7296,
      "duration": 0.5333,
      "velocity": 101,
      "chip": "ym2612"
    },
    {
      "channel": 4,
      "note": 74,
      "start": 23.7301,
      "duration": 0.1328,
      "velocity": 88,
      "chip": "ym2612"
    },
    {
      "channel": 2,
      "note": 79,
      "start": 23.8129,
      "duration": 0.133,
      "velocity": 88,
      "chip": "ym2612"
    },
    {
      "channel": 4,
      "note": 77,
      "start": 23.9131,
      "duration": 0.1332,
      "velocity": 88,
      "chip": "ym2612"
    },
    {
      "channel": 0,
      "note": 65,
      "start": 23.9958,
      "duration": 2.1332,
      "velocity": 101,
      "chip": "ym2612"
    },
    {
      "channel": 2,
      "note": 74,
      "start": 23.9965,
      "duration": 0.1328,
      "velocity": 88,
      "chip": "ym2612"
    },
    {
      "channel": 4,
      "note": 79,
      "start": 24.0799,
      "duration": 0.133,
      "velocity": 88,
      "chip": "ym2612"
    },
    {
      "channel": 2,
      "note": 77,
      "start": 24.1795,
      "duration": 0.1331,
      "velocity": 88,
      "chip": "ym2612"
    },
    {
      "channel": 3,
      "note": 65,
      "start": 24.2629,
      "duration": 2.1331,
      "velocity": 101,
      "chip": "ym2612"
    },
    {
      "channel": 4,
      "note": 74,
      "start": 24.2634,
      "duration": 0.1328,
      "velocity": 88,
      "chip": "ym2612"
    },
    {
      "channel": 2,
      "note": 79,
      "start": 24.3462,
      "duration": 0.133,
      "velocity": 88,
      "chip": "ym2612"
    },
    {
      "channel": 4,
      "note": 77,
      "start": 24.4464,
      "duration": 0.1332,
      "velocity": 88,
      "chip": "ym2612"
    },
    {
      "channel": 2,
      "note": 74,
      "start": 24.5297,
      "duration": 0.1329,
      "velocity": 88,
      "chip": "ym2612"
    },
    {
      "channel": 4,
      "note": 79,
      "start": 24.6132,
      "duration": 0.133,
      "velocity": 88,
      "chip": "ym2612"
    },
    {
      "channel": 2,
      "note": 77,
      "start": 24.7128,
      "duration": 0.1331,
      "velocity": 88,
      "chip": "ym2612"
    },
    {
      "channel": 4,
      "note": 74,
      "start": 24.7967,
      "duration": 0.1329,
      "velocity": 88,
      "chip": "ym2612"
    },
    {
      "channel": 2,
      "note": 79,
      "start": 24.8795,
      "duration": 0.133,
      "velocity": 88,
      "chip": "ym2612"
    },
    {
      "channel": 4,
      "note": 77,
      "start": 24.9797,
      "duration": 0.1332,
      "velocity": 88,
      "chip": "ym2612"
    },
    {
      "channel": 2,
      "note": 74,
      "start": 25.063,
      "duration": 0.1329,
      "velocity": 88,
      "chip": "ym2612"
    },
    {
      "channel": 4,
      "note": 79,
      "start": 25.1465,
      "duration": 0.133,
      "velocity": 88,
      "chip": "ym2612"
    },
    {
      "channel": 2,
      "note": 77,
      "start": 25.2461,
      "duration": 0.1332,
      "velocity": 88,
      "chip": "ym2612"
    },
    {
      "channel": 4,
      "note": 74,
      "start": 25.33,
      "duration": 0.1329,
      "velocity": 88,
      "chip": "ym2612"
    },
    {
      "channel": 2,
      "note": 79,
      "start": 25.4129,
      "duration": 0.133,
      "velocity": 88,
      "chip": "ym2612"
    },
    {
      "channel": 4,
      "note": 77,
      "start": 25.5131,
      "duration": 0.1332,
      "velocity": 88,
      "chip": "ym2612"
    },
    {
      "channel": 1,
      "note": 69,
      "start": 25.596,
      "duration": 1.5999,
      "velocity": 101,
      "chip": "ym2612"
    },
    {
      "channel": 2,
      "note": 72,
      "start": 25.5965,
      "duration": 0.1328,
      "velocity": 88,
      "chip": "ym2612"
    },
    {
      "channel": 5,
      "note": 69,
      "start": 25.5971,
      "duration": 1.5999,
      "velocity": 101,
      "chip": "ym2612"
    },
    {
      "channel": 4,
      "note": 79,
      "start": 25.6799,
      "duration": 0.133,
      "velocity": 88,
      "chip": "ym2612"
    },
    {
      "channel": 2,
      "note": 76,
      "start": 25.7794,
      "duration": 0.1332,
      "velocity": 88,
      "chip": "ym2612"
    },
    {
      "channel": 4,
      "note": 72,
      "start": 25.8633,
      "duration": 0.1329,
      "velocity": 88,
      "chip": "ym2612"
    },
    {
      "channel": 2,
      "note": 78,
      "start": 25.9462,
      "duration": 0.133,
      "velocity": 88,
      "chip": "ym2612"
    },
    {
      "channel": 4,
      "note": 76,
      "start": 26.0464,
      "duration": 0.1332,
      "velocity": 88,
      "chip": "ym2612"
    },
    {
      "channel": 0,
      "note": 69,
      "start": 26.1292,
      "duration": 1.5999,
      "velocity": 101,
      "chip": "ym2612"
    },
    {
      "channel": 2,
      "note": 72,
      "start": 26.1298,
      "duration": 0.1328,
      "velocity": 88,
      "chip": "ym2612"
    },
    {
      "channel": 4,
      "note": 78,
      "start": 26.2132,
      "duration": 0.133,
      "velocity": 88,
      "chip": "ym2612"
    },
    {
      "channel": 2,
      "note": 76,
      "start": 26.3128,
      "duration": 0.1331,
      "velocity": 88,
      "chip": "ym2612"
    },
    {
      "channel": 3,
      "note": 69,
      "start": 26.3963,
      "duration": 1.6,
      "velocity": 101,
      "chip": "ym2612"
    },
    {
      "channel": 4,
      "note": 72,
      "start": 26.3968,
      "duration": 0.1328,
      "velocity": 88,
      "chip": "ym2612"
    },
    {
      "channel": 2,
      "note": 78,
      "start": 26.4796,
      "duration": 0.1329,
      "velocity": 88,
      "chip": "ym2612"
    },
    {
      "channel": 4,
      "note": 76,
      "start": 26.5798,
      "duration": 0.1331,
      "velocity": 88,
      "chip": "ym2612"
    },
    {
      "channel": 2,
      "note": 72,
      "start": 26.663,
      "duration": 0.1329,
      "velocity": 88,
      "chip": "ym2612"
    },
    {
      "channel": 4,
      "note": 78,
      "start": 26.7466,
      "duration": 0.1329,
      "velocity": 88,
      "chip": "ym2612"
    },
    {
      "channel": 2,
      "note": 76,
      "start": 26.8461,
      "duration": 0.1331,
      "velocity": 88,
      "chip": "ym2612"
    },
    {
      "channel": 4,
      "note": 72,
      "start": 26.93,
      "duration": 0.1329,
      "velocity": 88,
      "chip": "ym2612"
    },
    {
      "channel": 2,
      "note": 78,
      "start": 27.0129,
      "duration": 0.1329,
      "velocity": 88,
      "chip": "ym2612"
    },
    {
      "channel": 4,
      "note": 76,
      "start": 27.1131,
      "duration": 0.1331,
      "velocity": 88,
      "chip": "ym2612"
    },
    {
      "channel": 1,
      "note": 68,
      "start": 27.196,
      "duration": 1.0665,
      "velocity": 101,
      "chip": "ym2612"
    },
    {
      "channel": 2,
      "note": 72,
      "start": 27.1965,
      "duration": 0.1328,
      "velocity": 88,
      "chip": "ym2612"
    },
    {
      "channel": 5,
      "note": 68,
      "start": 27.197,
      "duration": 1.0666,
      "velocity": 101,
      "chip": "ym2612"
    },
    {
      "channel": 4,
      "note": 78,
      "start": 27.2799,
      "duration": 0.1329,
      "velocity": 88,
      "chip": "ym2612"
    },
    {
      "channel": 2,
      "note": 76,
      "start": 27.3795,
      "duration": 0.1331,
      "velocity": 88,
      "chip": "ym2612"
    },
    {
      "channel": 4,
      "note": 72,
      "start": 27.4633,
      "duration": 0.1329,
      "velocity": 88,
      "chip": "ym2612"
    },
    {
      "channel": 2,
      "note": 78,
      "start": 27.5462,
      "duration": 0.133,
      "velocity": 88,
      "chip": "ym2612"
    },
    {
      "channel": 4,
      "note": 76,
      "start": 27.6465,
      "duration": 0.1331,
      "velocity": 88,
      "chip": "ym2612"
    },
    {
      "channel": 0,
      "note": 68,
      "start": 27.7291,
      "duration": 1.0665,
      "velocity": 101,
      "chip": "ym2612"
    },
    {
      "channel": 2,
      "note": 72,
      "start": 27.7298,
      "duration": 0.1328,
      "velocity": 88,
      "chip": "ym2612"
    },
    {
      "channel": 4,
      "note": 78,
      "start": 27.8132,
      "duration": 0.133,
      "velocity": 88,
      "chip": "ym2612"
    },
    {
      "channel": 2,
      "note": 76,
      "start": 27.9127,
      "duration": 0.1332,
      "velocity": 88,
      "chip": "ym2612"
    },
    {
      "channel": 3,
      "note": 68,
      "start": 27.9963,
      "duration": 1.0664,
      "velocity": 101,
      "chip": "ym2612"
    },
    {
      "channel": 4,
      "note": 72,
      "start": 27.9968,
      "duration": 0.1328,
      "velocity": 88,
      "chip": "ym2612"
    },
    {
      "channel": 2,
      "note": 78,
      "start": 28.0795,
      "duration": 0.133,
      "velocity": 88,
      "chip": "ym2612"
    },
    {
      "channel": 4,
      "note": 76,
      "start": 28.1797,
      "duration": 0.1332,
      "velocity": 88,
      "chip": "ym2612"
    },
    {
      "channel": 1,
      "note": 62,
      "start": 28.2627,
      "duration": 1.5999,
      "velocity": 101,
      "chip": "ym2612"
    },
    {
      "channel": 2,
      "note": 72,
      "start": 28.2632,
      "duration": 0.1327,
      "velocity": 88,
      "chip": "ym2612"
    },
    {
      "channel": 5,
      "note": 62,
      "start": 28.2638,
      "duration": 1.5999,
      "velocity": 101,
      "chip": "ym2612"
    },
    {
      "channel": 4,
      "note": 78,
      "start": 28.3465,
      "duration": 0.133,
      "velocity": 88,
      "chip": "ym2612"
    },
    {
      "channel": 2,
      "note": 76,
      "start": 28.4461,
      "duration": 0.1332,
      "velocity": 88,
      "chip": "ym2612"
    },
    {
      "channel": 4,
      "note": 72,
      "start": 28.53,
      "duration": 0.1329,
      "velocity": 88,
      "chip": "ym2612"
    },
    {
      "channel": 2,
      "note": 78,
      "start": 28.6129,
      "duration": 0.133,
      "velocity": 88,
      "chip": "ym2612"
    },
    {
      "channel": 4,
      "note": 76,
      "start": 28.7131,
      "duration": 0.1332,
      "velocity": 88,
      "chip": "ym2612"
    },
    {
      "channel": 0,
      "note": 62,
      "start": 28.7958,
      "duration": 1.5998,
      "velocity": 101,
      "chip": "ym2612"
    },
    {
      "channel": 2,
      "note": 72,
      "start": 28.7965,
      "duration": 0.1328,
      "velocity": 88,
      "chip": "ym2612"
    },
    {
      "channel": 4,
      "note": 78,
      "start": 28.8799,
      "duration": 0.133,
      "velocity": 88,
      "chip": "ym2612"
    },
    {
      "channel": 2,
      "note": 76,
      "start": 28.9795,
      "duration": 0.1331,
      "velocity": 88,
      "chip": "ym2612"
    },
    {
      "channel": 3,
      "note": 62,
      "start": 29.0629,
      "duration": 1.5998,
      "velocity": 101,
      "chip": "ym2612"
    },
    {
      "channel": 4,
      "note": 72,
      "start": 29.0634,
      "duration": 0.1328,
      "velocity": 88,
      "chip": "ym2612"
    },
    {
      "channel": 2,
      "note": 78,
      "start": 29.1462,
      "duration": 0.133,
      "velocity": 88,
      "chip": "ym2612"
    },
    {
      "channel": 4,
      "note": 76,
      "start": 29.2465,
      "duration": 0.1331,
      "velocity": 88,
      "chip": "ym2612"
    },
    {
      "channel": 2,
      "note": 72,
      "start": 29.3297,
      "duration": 0.1329,
      "velocity": 88,
      "chip": "ym2612"
    },
    {
      "channel": 4,
      "note": 78,
      "start": 29.4133,
      "duration": 0.1329,
      "velocity": 88,
      "chip": "ym2612"
    },
    {
      "channel": 2,
      "note": 76,
      "start": 29.5128,
      "duration": 0.1331,
      "velocity": 88,
      "chip": "ym2612"
    },
    {
      "channel": 4,
      "note": 72,
      "start": 29.5967,
      "duration": 0.1329,
      "velocity": 88,
      "chip": "ym2612"
    },
    {
      "channel": 2,
      "note": 78,
      "start": 29.6796,
      "duration": 0.1329,
      "velocity": 88,
      "chip": "ym2612"
    },
    {
      "channel": 4,
      "note": 76,
      "start": 29.7798,
      "duration": 0.1331,
      "velocity": 88,
      "chip": "ym2612"
    },
    {
      "channel": 1,
      "note": 66,
      "start": 29.8626,
      "duration": 0.0831,
      "velocity": 101,
      "chip": "ym2612"
    },
    {
      "channel": 2,
      "note": 72,
      "start": 29.8631,
      "duration": 0.1328,
      "velocity": 88,
      "chip": "ym2612"
    },
    {
      "channel": 5,
      "note": 66,
      "start": 29.8637,
      "duration": 0.0831,
      "velocity": 101,
      "chip": "ym2612"
    },
    {
      "channel": 1,
      "note": 57,
      "start": 29.946,
      "duration": 0.0999,
      "velocity": 101,
      "chip": "ym2612"
    },
    {
      "channel": 4,
      "note": 78,
      "start": 29.9467,
      "duration": 0.1328,
      "velocity": 88,
      "chip": "ym2612"
    },
    {
      "channel": 5,
      "note": 57,
      "start": 29.947,
      "duration": 0.0998,
      "velocity": 101,
      "chip": "ym2612"
    },
    {
      "channel": 1,
      "note": 56,
      "start": 30.046,
      "duration": 0.3501,
      "velocity": 101,
      "chip": "ym2612"
    },
    {
      "channel": 2,
      "note": 76,
      "start": 30.0463,
      "duration": 0.1329,
      "velocity": 88,
      "chip": "ym2612"
    },
    {
      "channel": 5,
      "note": 56,
      "start": 30.0468,
      "duration": 0.3501,
      "velocity": 101,
      "chip": "ym2612"
    },
    {
      "channel": 4,
      "note": 72,
      "start": 30.13,
      "duration": 0.1329,
      "velocity": 88,
      "chip": "ym2612"
    },
    {
      "channel": 2,
      "note": 78,
      "start": 30.2129,
      "duration": 0.133,
      "velocity": 88,
      "chip": "ym2612"
    },
    {
      "channel": 4,
      "note": 76,
      "start": 30.3131,
      "duration": 0.1331,
      "velocity": 88,
      "chip": "ym2612"
    },
    {
      "channel": 0,
      "note": 66,
      "start": 30.3958,
      "duration": 0.0833,
      "velocity": 101,
      "chip": "ym2612"
    },
    {
      "channel": 1,
      "note": 55,
      "start": 30.3961,
      "duration": 2.6663,
      "velocity": 101,
      "chip": "ym2612"
    },
    {
      "channel": 2,
      "note": 72,
      "start": 30.3966,
      "duration": 0.1326,
      "velocity": 88,
      "chip": "ym2612"
    },
    {
      "channel": 5,
      "note": 55,
      "start": 30.3972,
      "duration": 2.6663,
      "velocity": 101,
      "chip": "ym2612"
    },
    {
      "channel": 0,
      "note": 68,
      "start": 30.4791,
      "duration": 0.1,
      "velocity": 101,
      "chip": "ym2612"
    },
    {
      "channel": 4,
      "note": 78,
      "start": 30.48,
      "duration": 0.1329,
      "velocity": 88,
      "chip": "ym2612"
    },
    {
      "channel": 0,
      "note": 56,
      "start": 30.5791,
      "duration": 0.3498,
      "velocity": 101,
      "chip": "ym2612"
    },
    {
      "channel": 2,
      "note": 76,
      "start": 30.5795,
      "duration": 0.133,
      "velocity": 88,
      "chip": "ym2612"
    },
    {
      "channel": 3,
      "note": 66,
      "start": 30.6629,
      "duration": 0.0835,
      "velocity": 101,
      "chip": "ym2612"
    },
    {
      "channel": 4,
      "note": 72,
      "start": 30.6634,
      "duration": 0.1328,
      "velocity": 88,
      "chip": "ym2612"
    },
    {
      "channel": 2,
      "note": 78,
      "start": 30.7462,
      "duration": 0.133,
      "velocity": 88,
      "chip": "ym2612"
    },
    {
      "channel": 3,
      "note": 68,
      "start": 30.7465,
      "duration": 0.0998,
      "velocity": 101,
      "chip": "ym2612"
    },
    {
      "channel": 3,
      "note": 56,
      "start": 30.8463,
      "duration": 0.3498,
      "velocity": 101,
      "chip": "ym2612"
    },
    {
      "channel": 4,
      "note": 76,
      "start": 30.8465,
      "duration": 0.133,
      "velocity": 88,
      "chip": "ym2612"
    },
    {
      "channel": 0,
      "note": 47,
      "start": 30.9292,
      "duration": 2.6664,
      "velocity": 101,
      "chip": "ym2612"
    },
    {
      "channel": 2,
      "note": 72,
      "start": 30.9299,
      "duration": 0.1327,
      "velocity": 88,
      "chip": "ym2612"
    },
    {
      "channel": 4,
      "note": 78,
      "start": 31.0132,
      "duration": 0.133,
      "velocity": 88,
      "chip": "ym2612"
    },
    {
      "channel": 2,
      "note": 76,
      "start": 31.1127,
      "duration": 0.1332,
      "velocity": 88,
      "chip": "ym2612"
    },
    {
      "channel": 3,
      "note": 47,
      "start": 31.1963,
      "duration": 2.6664,
      "velocity": 101,
      "chip": "ym2612"
    },
    {
      "channel": 4,
      "note": 72,
      "start": 31.1968,
      "duration": 0.1328,
      "velocity": 88,
      "chip": "ym2612"
    },
    {
      "channel": 2,
      "note": 78,
      "start": 31.2795,
      "duration": 0.133,
      "velocity": 88,
      "chip": "ym2612"
    },
    {
      "channel": 4,
      "note": 76,
      "start": 31.3797,
      "duration": 0.1332,
      "velocity": 88,
      "chip": "ym2612"
    },
    {
      "channel": 2,
      "note": 72,
      "start": 31.463,
      "duration": 0.1329,
      "velocity": 88,
      "chip": "ym2612"
    },
    {
      "channel": 4,
      "note": 78,
      "start": 31.5465,
      "duration": 0.133,
      "velocity": 88,
      "chip": "ym2612"
    },
    {
      "channel": 2,
      "note": 76,
      "start": 31.6461,
      "duration": 0.1331,
      "velocity": 88,
      "chip": "ym2612"
    },
    {
      "channel": 4,
      "note": 72,
      "start": 31.73,
      "duration": 0.1329,
      "velocity": 88,
      "chip": "ym2612"
    },
    {
      "channel": 2,
      "note": 78,
      "start": 31.8129,
      "duration": 0.1329,
      "velocity": 88,
      "chip": "ym2612"
    },
    {
      "channel": 4,
      "note": 76,
      "start": 31.9131,
      "duration": 0.1331,
      "velocity": 88,
      "chip": "ym2612"
    },
    {
      "channel": 2,
      "note": 72,
      "start": 31.9963,
      "duration": 0.1329,
      "velocity": 88,
      "chip": "ym2612"
    },
    {
      "channel": 4,
      "note": 78,
      "start": 32.0799,
      "duration": 0.1329,
      "velocity": 88,
      "chip": "ym2612"
    },
    {
      "channel": 2,
      "note": 76,
      "start": 32.1795,
      "duration": 0.1331,
      "velocity": 88,
      "chip": "ym2612"
    },
    {
      "channel": 4,
      "note": 72,
      "start": 32.2633,
      "duration": 0.1329,
      "velocity": 88,
      "chip": "ym2612"
    },
    {
      "channel": 2,
      "note": 78,
      "start": 32.3463,
      "duration": 0.1329,
      "velocity": 88,
      "chip": "ym2612"
    },
    {
      "channel": 4,
      "note": 76,
      "start": 32.4465,
      "duration": 0.1331,
      "velocity": 88,
      "chip": "ym2612"
    },
    {
      "channel": 2,
      "note": 72,
      "start": 32.5297,
      "duration": 0.1329,
      "velocity": 88,
      "chip": "ym2612"
    },
    {
      "channel": 4,
      "note": 78,
      "start": 32.6133,
      "duration": 0.1329,
      "velocity": 88,
      "chip": "ym2612"
    },
    {
      "channel": 2,
      "note": 76,
      "start": 32.7128,
      "duration": 0.1331,
      "velocity": 88,
      "chip": "ym2612"
    },
    {
      "channel": 4,
      "note": 72,
      "start": 32.7967,
      "duration": 0.1329,
      "velocity": 88,
      "chip": "ym2612"
    },
    {
      "channel": 2,
      "note": 78,
      "start": 32.8795,
      "duration": 0.133,
      "velocity": 88,
      "chip": "ym2612"
    },
    {
      "channel": 4,
      "note": 76,
      "start": 32.9798,
      "duration": 0.1331,
      "velocity": 88,
      "chip": "ym2612"
    },
    {
      "channel": 1,
      "note": 54,
      "start": 33.0626,
      "duration": 0.1831,
      "velocity": 101,
      "chip": "ym2612"
    },
    {
      "channel": 2,
      "note": 72,
      "start": 33.0631,
      "duration": 0.1328,
      "velocity": 88,
      "chip": "ym2612"
    },
    {
      "channel": 5,
      "note": 54,
      "start": 33.0638,
      "duration": 0.1829,
      "velocity": 101,
      "chip": "ym2612"
    },
    {
      "channel": 4,
      "note": 78,
      "start": 33.1466,
      "duration": 0.1329,
      "velocity": 88,
      "chip": "ym2612"
    },
    {
      "channel": 1,
      "note": 60,
      "start": 33.246,
      "duration": 0.1667,
      "velocity": 101,
      "chip": "ym2612"
    },
    {
      "channel": 2,
      "note": 76,
      "start": 33.2463,
      "duration": 0.1329,
      "velocity": 88,
      "chip": "ym2612"
    },
    {
      "channel": 5,
      "note": 60,
      "start": 33.2469,
      "duration": 0.1667,
      "velocity": 101,
      "chip": "ym2612"
    },
    {
      "channel": 4,
      "note": 72,
      "start": 33.33,
      "duration": 0.1329,
      "velocity": 88,
      "chip": "ym2612"
    },
    {
      "channel": 1,
      "note": 63,
      "start": 33.4126,
      "duration": 0.7179,
      "velocity": 101,
      "chip": "ym2612"
    },
    {
      "channel": 2,
      "note": 78,
      "start": 33.413,
      "duration": 0.1329,
      "velocity": 88,
      "chip": "ym2612"
    },
    {
      "channel": 5,
      "note": 63,
      "start": 33.4137,
      "duration": 0.7191,
      "velocity": 123,
      "chip": "ym2612"
    },
    {
      "channel": 4,
      "note": 76,
      "start": 33.5131,
      "duration": 0.1331,
      "velocity": 88,
      "chip": "ym2612"
    },
    {
      "channel": 0,
      "note": 54,
      "start": 33.5958,
      "duration": 0.1831,
      "velocity": 101,
      "chip": "ym2612"
    },
    {
      "channel": 2,
      "note": 72,
      "start": 33.5965,
      "duration": 0.1328,
      "velocity": 88,
      "chip": "ym2612"
    },
    {
      "channel": 4,
      "note": 78,
      "start": 33.6799,
      "duration": 0.1329,
      "velocity": 88,
      "chip": "ym2612"
    },
    {
      "channel": 0,
      "note": 60,
      "start": 33.7792,
      "duration": 0.1666,
      "velocity": 101,
      "chip": "ym2612"
    },
    {
      "channel": 2,
      "note": 76,
      "start": 33.7796,
      "duration": 0.1329,
      "velocity": 88,
      "chip": "ym2612"
    },
    {
      "channel": 3,
      "note": 54,
      "start": 33.8629,
      "duration": 0.1831,
      "velocity": 101,
      "chip": "ym2612"
    },
    {
      "channel": 4,
      "note": 72,
      "start": 33.8634,
      "duration": 0.1328,
      "velocity": 88,
      "chip": "ym2612"
    },
    {
      "channel": 0,
      "note": 63,
      "start": 33.9458,
      "duration": 0.1845,
      "velocity": 97,
      "chip": "ym2612"
    },
    {
      "channel": 2,
      "note": 78,
      "start": 33.9463,
      "duration": 0.1329,
      "velocity": 88,
      "chip": "ym2612"
    },
    {
      "channel": 3,
      "note": 60,
      "start": 34.0463,
      "duration": 0.1666,
      "velocity": 101,
      "chip": "ym2612"
    },
    {
      "channel": 4,
      "note": 76,
      "start": 34.0466,
      "duration": 0.1329,
      "velocity": 88,
      "chip": "ym2612"
    },
    {
      "channel": 0,
      "note": 92,
      "start": 34.1305,
      "duration": 0.5317,
      "velocity": 97,
      "chip": "ym2612"
    },
    {
      "channel": 1,
      "note": 64,
      "start": 34.1308,
      "duration": 1.0651,
      "velocity": 101,
      "chip": "ym2612"
    },
    {
      "channel": 2,
      "note": 76,
      "start": 34.1313,
      "duration": 0.1313,
      "velocity": 88,
      "chip": "ym2612"
    },
    {
      "channel": 5,
      "note": 80,
      "start": 34.133,
      "duration": 0.5304,
      "velocity": 123,
      "chip": "ym2612"
    },
    {
      "channel": 3,
      "note": 63,
      "start": 34.2129,
      "duration": 0.1845,
      "velocity": 97,
      "chip": "ym2612"
    },
    {
      "channel": 4,
      "note": 78,
      "start": 34.2133,
      "duration": 0.1329,
      "velocity": 88,
      "chip": "ym2612"
    },
    {
      "channel": 2,
      "note": 83,
      "start": 34.3127,
      "duration": 0.1332,
      "velocity": 88,
      "chip": "ym2612"
    },
    {
      "channel": 3,
      "note": 92,
      "start": 34.3976,
      "duration": 0.5317,
      "velocity": 97,
      "chip": "ym2612"
    },
    {
      "channel": 4,
      "note": 76,
      "start": 34.398,
      "duration": 0.1315,
      "velocity": 88,
      "chip": "ym2612"
    },
    {
      "channel": 2,
      "note": 86,
      "start": 34.4794,
      "duration": 0.1332,
      "velocity": 88,
      "chip": "ym2612"
    },
    {
      "channel": 4,
      "note": 83,
      "start": 34.5798,
      "duration": 0.1331,
      "velocity": 88,
      "chip": "ym2612"
    },
    {
      "channel": 0,
      "note": 91,
      "start": 34.6625,
      "duration": 0.1831,
      "velocity": 97,
      "chip": "ym2612"
    },
    {
      "channel": 2,
      "note": 76,
      "start": 34.6629,
      "duration": 0.1329,
      "velocity": 88,
      "chip": "ym2612"
    },
    {
      "channel": 5,
      "note": 79,
      "start": 34.6636,
      "duration": 0.1829,
      "velocity": 123,
      "chip": "ym2612"
    },
    {
      "channel": 4,
      "note": 86,
      "start": 34.7465,
      "duration": 0.133,
      "velocity": 88,
      "chip": "ym2612"
    },
    {
      "channel": 2,
      "note": 83,
      "start": 34.8461,
      "duration": 0.1329,
      "velocity": 88,
      "chip": "ym2612"
    },
    {
      "channel": 3,
      "note": 91,
      "start": 34.9295,
      "duration": 0.1831,
      "velocity": 97,
      "chip": "ym2612"
    },
    {
      "channel": 4,
      "note": 76,
      "start": 34.9298,
      "duration": 0.1329,
      "velocity": 88,
      "chip": "ym2612"
    },
    {
      "channel": 2,
      "note": 86,
      "start": 35.0127,
      "duration": 0.1331,
      "velocity": 88,
      "chip": "ym2612"
    },
    {
      "channel": 4,
      "note": 83,
      "start": 35.113,
      "duration": 0.1331,
      "velocity": 88,
      "chip": "ym2612"
    },
    {
      "channel": 0,
      "note": 90,
      "start": 35.1958,
      "duration": 0.5331,
      "velocity": 97,
      "chip": "ym2612"
    },
    {
      "channel": 1,
      "note": 63,
      "start": 35.1961,
      "duration": 1.0664,
      "velocity": 101,
      "chip": "ym2612"
    },
    {
      "channel": 2,
      "note": 75,
      "start": 35.1964,
      "duration": 0.1328,
      "velocity": 88,
      "chip": "ym2612"
    },
    {
      "channel": 5,
      "note": 78,
      "start": 35.1969,
      "duration": 0.5331,
      "velocity": 123,
      "chip": "ym2612"
    },
    {
      "channel": 4,
      "note": 86,
      "start": 35.2797,
      "duration": 0.1331,
      "velocity": 88,
      "chip": "ym2612"
    },
    {
      "channel": 2,
      "note": 82,
      "start": 35.3794,
      "duration": 0.1332,
      "velocity": 88,
      "chip": "ym2612"
    },
    {
      "channel": 3,
      "note": 90,
      "start": 35.4629,
      "duration": 0.533,
      "velocity": 97,
      "chip": "ym2612"
    },
    {
      "channel": 4,
      "note": 75,
      "start": 35.4633,
      "duration": 0.1329,
      "velocity": 88,
      "chip": "ym2612"
    },
    {
      "channel": 2,
      "note": 85,
      "start": 35.5461,
      "duration": 0.1332,
      "velocity": 88,
      "chip": "ym2612"
    },
    {
      "channel": 4,
      "note": 82,
      "start": 35.6465,
      "duration": 0.1331,
      "velocity": 88,
      "chip": "ym2612"
    },
    {
      "channel": 0,
      "note": 89,
      "start": 35.7292,
      "duration": 0.1831,
      "velocity": 97,
      "chip": "ym2612"
    },
    {
      "channel": 2,
      "note": 75,
      "start": 35.7296,
      "duration": 0.1329,
      "velocity": 88,
      "chip": "ym2612"
    },
    {
      "channel": 5,
      "note": 77,
      "start": 35.7302,
      "duration": 0.1829,
      "velocity": 123,
      "chip": "ym2612"
    },
    {
      "channel": 4,
      "note": 85,
      "start": 35.8131,
      "duration": 0.133,
      "velocity": 88,
      "chip": "ym2612"
    },
    {
      "channel": 2,
      "note": 82,
      "start": 35.9128,
      "duration": 0.1329,
      "velocity": 88,
      "chip": "ym2612"
    },
    {
      "channel": 3,
      "note": 89,
      "start": 35.9962,
      "duration": 0.1831,
      "velocity": 97,
      "chip": "ym2612"
    },
    {
      "channel": 4,
      "note": 75,
      "start": 35.9965,
      "duration": 0.1329,
      "velocity": 88,
      "chip": "ym2612"
    },
    {
      "channel": 2,
      "note": 85,
      "start": 36.0794,
      "duration": 0.1331,
      "velocity": 88,
      "chip": "ym2612"
    },
    {
      "channel": 4,
      "note": 82,
      "start": 36.1797,
      "duration": 0.1331,
      "velocity": 88,
      "chip": "ym2612"
    },
    {
      "channel": 0,
      "note": 88,
      "start": 36.2625,
      "duration": 0.5331,
      "velocity": 97,
      "chip": "ym2612"
    },
    {
      "channel": 1,
      "note": 62,
      "start": 36.2628,
      "duration": 1.0664,
      "velocity": 101,
      "chip": "ym2612"
    },
    {
      "channel": 2,
      "note": 74,
      "start": 36.2631,
      "duration": 0.1328,
      "velocity": 88,
      "chip": "ym2612"
    },
    {
      "channel": 5,
      "note": 76,
      "start": 36.2636,
      "duration": 0.5331,
      "velocity": 123,
      "chip": "ym2612"
    },
    {
      "channel": 4,
      "note": 85,
      "start": 36.3463,
      "duration": 0.1331,
      "velocity": 88,
      "chip": "ym2612"
    },
    {
      "channel": 2,
      "note": 81,
      "start": 36.4461,
      "duration": 0.1332,
      "velocity": 88,
      "chip": "ym2612"
    },
    {
      "channel": 3,
      "note": 88,
      "start": 36.5296,
      "duration": 0.533,
      "velocity": 97,
      "chip": "ym2612"
    },
    {
      "channel": 4,
      "note": 74,
      "start": 36.5299,
      "duration": 0.1329,
      "velocity": 88,
      "chip": "ym2612"
    },
    {
      "channel": 2,
      "note": 85,
      "start": 36.6127,
      "duration": 0.1332,
      "velocity": 88,
      "chip": "ym2612"
    },
    {
      "channel": 4,
      "note": 81,
      "start": 36.7131,
      "duration": 0.1331,
      "velocity": 88,
      "chip": "ym2612"
    },
    {
      "channel": 0,
      "note": 87,
      "start": 36.7958,
      "duration": 0.1831,
      "velocity": 97,
      "chip": "ym2612"
    },
    {
      "channel": 2,
      "note": 74,
      "start": 36.7963,
      "duration": 0.1329,
      "velocity": 88,
      "chip": "ym2612"
    },
    {
      "channel": 5,
      "note": 75,
      "start": 36.7969,
      "duration": 0.1829,
      "velocity": 123,
      "chip": "ym2612"
    },
    {
      "channel": 4,
      "note": 85,
      "start": 36.8798,
      "duration": 0.133,
      "velocity": 88,
      "chip": "ym2612"
    },
    {
      "channel": 2,
      "note": 81,
      "start": 36.9795,
      "duration": 0.1329,
      "velocity": 88,
      "chip": "ym2612"
    },
    {
      "channel": 3,
      "note": 87,
      "start": 37.0629,
      "duration": 0.1831,
      "velocity": 97,
      "chip": "ym2612"
    },
    {
      "channel": 4,
      "note": 74,
      "start": 37.0631,
      "duration": 0.1329,
      "velocity": 88,
      "chip": "ym2612"
    },
    {
      "channel": 2,
      "note": 85,
      "start": 37.146,
      "duration": 0.1331,
      "velocity": 88,
      "chip": "ym2612"
    },
    {
      "channel": 4,
      "note": 81,
      "start": 37.2463,
      "duration": 0.1331,
      "velocity": 88,
      "chip": "ym2612"
    },
    {
      "channel": 0,
      "note": 86,
      "start": 37.3292,
      "duration": 0.5331,
      "velocity": 97,
      "chip": "ym2612"
    },
    {
      "channel": 1,
      "note": 57,
      "start": 37.3295,
      "duration": 1.0664,
      "velocity": 101,
      "chip": "ym2612"
    },
    {
      "channel": 2,
      "note": 69,
      "start": 37.3297,
      "duration": 0.1328,
      "velocity": 88,
      "chip": "ym2612"
    },
    {
      "channel": 5,
      "note": 74,
      "start": 37.3302,
      "duration": 0.5331,
      "velocity": 123,
      "chip": "ym2612"
    },
    {
      "channel": 4,
      "note": 85,
      "start": 37.413,
      "duration": 0.1331,
      "velocity": 88,
      "chip": "ym2612"
    },
    {
      "channel": 2,
      "note": 76,
      "start": 37.5127,
      "duration": 0.1332,
      "velocity": 88,
      "chip": "ym2612"
    },
    {
      "channel": 3,
      "note": 86,
      "start": 37.5963,
      "duration": 0.533,
      "velocity": 97,
      "chip": "ym2612"
    },
    {
      "channel": 4,
      "note": 69,
      "start": 37.5966,
      "duration": 0.1329,
      "velocity": 88,
      "chip": "ym2612"
    },
    {
      "channel": 2,
      "note": 80,
      "start": 37.6794,
      "duration": 0.1332,
      "velocity": 88,
      "chip": "ym2612"
    },
    {
      "channel": 4,
      "note": 76,
      "start": 37.7798,
      "duration": 0.1331,
      "velocity": 88,
      "chip": "ym2612"
    },
    {
      "channel": 0,
      "note": 85,
      "start": 37.8625,
      "duration": 0.1831,
      "velocity": 97,
      "chip": "ym2612"
    },
    {
      "channel": 2,
      "note": 69,
      "start": 37.8629,
      "duration": 0.1329,
      "velocity": 88,
      "chip": "ym2612"
    },
    {
      "channel": 5,
      "note": 73,
      "start": 37.8636,
      "duration": 0.1829,
      "velocity": 123,
      "chip": "ym2612"
    },
    {
      "channel": 4,
      "note": 80,
      "start": 37.9465,
      "duration": 0.133,
      "velocity": 88,
      "chip": "ym2612"
    },
    {
      "channel": 2,
      "note": 76,
      "start": 38.0461,
      "duration": 0.1329,
      "velocity": 88,
      "chip": "ym2612"
    },
    {
      "channel": 3,
      "note": 85,
      "start": 38.1295,
      "duration": 0.1831,
      "velocity": 97,
      "chip": "ym2612"
    },
    {
      "channel": 4,
      "note": 69,
      "start": 38.1298,
      "duration": 0.1329,
      "velocity": 88,
      "chip": "ym2612"
    },
    {
      "channel": 2,
      "note": 80,
      "start": 38.2127,
      "duration": 0.1331,
      "velocity": 88,
      "chip": "ym2612"
    },
    {
      "channel": 4,
      "note": 76,
      "start": 38.313,
      "duration": 0.1331,
      "velocity": 88,
      "chip": "ym2612"
    },
    {
      "channel": 0,
      "note": 84,
      "start": 38.3958,
      "duration": 0.5331,
      "velocity": 97,
      "chip": "ym2612"
    },
    {
      "channel": 1,
      "note": 55,
      "start": 38.3961,
      "duration": 1.0664,
      "velocity": 101,
      "chip": "ym2612"
    },
    {
      "channel": 2,
      "note": 67,
      "start": 38.3964,
      "duration": 0.1328,
      "velocity": 88,
      "chip": "ym2612"
    },
    {
      "channel": 5,
      "note": 72,
      "start": 38.3969,
      "duration": 0.5331,
      "velocity": 123,
      "chip": "ym2612"
    },
    {
      "channel": 4,
      "note": 80,
      "start": 38.4797,
      "duration": 0.1331,
      "velocity": 88,
      "chip": "ym2612"
    },
    {
      "channel": 2,
      "note": 74,
      "start": 38.5794,
      "duration": 0.1332,
      "velocity": 88,
      "chip": "ym2612"
    },
    {
      "channel": 3,
      "note": 84,
      "start": 38.6629,
      "duration": 0.533,
      "velocity": 97,
      "chip": "ym2612"
    },
    {
      "channel": 4,
      "note": 67,
      "start": 38.6633,
      "duration": 0.1329,
      "velocity": 88,
      "chip": "ym2612"
    },
    {
      "channel": 2,
      "note": 79,
      "start": 38.7461,
      "duration": 0.1332,
      "velocity": 88,
      "chip": "ym2612"
    },
    {
      "channel": 4,
      "note": 74,
      "start": 38.8465,
      "duration": 0.1331,
      "velocity": 88,
      "chip": "ym2612"
    },
    {
      "channel": 0,
      "note": 83,
      "start": 38.9292,
      "duration": 0.1831,
      "velocity": 97,
      "chip": "ym2612"
    },
    {
      "channel": 2,
      "note": 67,
      "start": 38.9296,
      "duration": 0.1329,
      "velocity": 88,
      "chip": "ym2612"
    },
    {
      "channel": 5,
      "note": 71,
      "start": 38.9302,
      "duration": 0.1829,
      "velocity": 123,
      "chip": "ym2612"
    },
    {
      "channel": 4,
      "note": 79,
      "start": 39.0131,
      "duration": 0.133,
      "velocity": 88,
      "chip": "ym2612"
    },
    {
      "channel": 2,
      "note": 74,
      "start": 39.1128,
      "duration": 0.1329,
      "velocity": 88,
      "chip": "ym2612"
    },
    {
      "channel": 3,
      "note": 83,
      "start": 39.1962,
      "duration": 0.1831,
      "velocity": 97,
      "chip": "ym2612"
    },
    {
      "channel": 4,
      "note": 67,
      "start": 39.1965,
      "duration": 0.1329,
      "velocity": 88,
      "chip": "ym2612"
    },
    {
      "channel": 2,
      "note": 79,
      "start": 39.2794,
      "duration": 0.1331,
      "velocity": 88,
      "chip": "ym2612"
    },
    {
      "channel": 4,
      "note": 74,
      "start": 39.3797,
      "duration": 0.1331,
      "velocity": 88,
      "chip": "ym2612"
    },
    {
      "channel": 0,
      "note": 84,
      "start": 39.4625,
      "duration": 0.5331,
      "velocity": 97,
      "chip": "ym2612"
    },
    {
      "channel": 1,
      "note": 54,
      "start": 39.4628,
      "duration": 1.0664,
      "velocity": 101,
      "chip": "ym2612"
    },
    {
      "channel": 2,
      "note": 66,
      "start": 39.4631,
      "duration": 0.1328,
      "velocity": 88,
      "chip": "ym2612"
    },
    {
      "channel": 5,
      "note": 72,
      "start": 39.4636,
      "duration": 0.5331,
      "velocity": 123,
      "chip": "ym2612"
    },
    {
      "channel": 4,
      "note": 79,
      "start": 39.5463,
      "duration": 0.1331,
      "velocity": 88,
      "chip": "ym2612"
    },
    {
      "channel": 2,
      "note": 73,
      "start": 39.6461,
      "duration": 0.1332,
      "velocity": 88,
      "chip": "ym2612"
    },
    {
      "channel": 3,
      "note": 84,
      "start": 39.7296,
      "duration": 0.533,
      "velocity": 97,
      "chip": "ym2612"
    },
    {
      "channel": 4,
      "note": 66,
      "start": 39.7299,
      "duration": 0.1329,
      "velocity": 88,
      "chip": "ym2612"
    },
    {
      "channel": 2,
      "note": 78,
      "start": 39.8127,
      "duration": 0.1332,
      "velocity": 88,
      "chip": "ym2612"
    },
    {
      "channel": 4,
      "note": 73,
      "start": 39.9131,
      "duration": 0.1331,
      "velocity": 88,
      "chip": "ym2612"
    },
    {
      "channel": 0,
      "note": 83,
      "start": 39.9958,
      "duration": 0.1831,
      "velocity": 97,
      "chip": "ym2612"
    },
    {
      "channel": 2,
      "note": 66,
      "start": 39.9963,
      "duration": 0.1329,
      "velocity": 88,
      "chip": "ym2612"
    },
    {
      "channel": 5,
      "note": 71,
      "start": 39.9969,
      "duration": 0.1829,
      "velocity": 123,
      "chip": "ym2612"
    },
    {
      "channel": 4,
      "note": 78,
      "start": 40.0798,
      "duration": 0.133,
      "velocity": 88,
      "chip": "ym2612"
    },
    {
      "channel": 2,
      "note": 73,
      "start": 40.1795,
      "duration": 0.1329,
      "velocity": 88,
      "chip": "ym2612"
    },
    {
      "channel": 3,
      "note": 83,
      "start": 40.2629,
      "duration": 0.1831,
      "velocity": 97,
      "chip": "ym2612"
    },
    {
      "channel": 4,
      "note": 66,
      "start": 40.2631,
      "duration": 0.1329,
      "velocity": 88,
      "chip": "ym2612"
    },
    {
      "channel": 2,
      "note": 78,
      "start": 40.346,
      "duration": 0.1331,
      "velocity": 88,
      "chip": "ym2612"
    },
    {
      "channel": 4,
      "note": 73,
      "start": 40.4463,
      "duration": 0.1331,
      "velocity": 88,
      "chip": "ym2612"
    },
    {
      "channel": 0,
      "note": 84,
      "start": 40.5292,
      "duration": 0.5331,
      "velocity": 97,
      "chip": "ym2612"
    },
    {
      "channel": 1,
      "note": 55,
      "start": 40.5295,
      "duration": 0.5333,
      "velocity": 101,
      "chip": "ym2612"
    },
    {
      "channel": 2,
      "note": 67,
      "start": 40.5297,
      "duration": 0.1328,
      "velocity": 88,
      "chip": "ym2612"
    },
    {
      "channel": 5,
      "note": 72,
      "start": 40.5302,
      "duration": 0.5331,
      "velocity": 123,
      "chip": "ym2612"
    },
    {
      "channel": 4,
      "note": 78,
      "start": 40.613,
      "duration": 0.1331,
      "velocity": 88,
      "chip": "ym2612"
    },
    {
      "channel": 2,
      "note": 74,
      "start": 40.7127,
      "duration": 0.1332,
      "velocity": 88,
      "chip": "ym2612"
    },
    {
      "channel": 3,
      "note": 84,
      "start": 40.7963,
      "duration": 0.533,
      "velocity": 97,
      "chip": "ym2612"
    },
    {
      "channel": 4,
      "note": 67,
      "start": 40.7966,
      "duration": 0.1329,
      "velocity": 88,
      "chip": "ym2612"
    },
    {
      "channel": 2,
      "note": 79,
      "start": 40.8794,
      "duration": 0.1332,
      "velocity": 88,
      "chip": "ym2612"
    },
    {
      "channel": 4,
      "note": 74,
      "start": 40.9798,
      "duration": 0.1331,
      "velocity": 88,
      "chip": "ym2612"
    },
    {
      "channel": 0,
      "note": 83,
      "start": 41.0625,
      "duration": 0.1831,
      "velocity": 97,
      "chip": "ym2612"
    },
    {
      "channel": 1,
      "note": 54,
      "start": 41.0627,
      "duration": 0.5332,
      "velocity": 101,
      "chip": "ym2612"
    },
    {
      "channel": 2,
      "note": 66,
      "start": 41.0631,
      "duration": 0.1328,
      "velocity": 88,
      "chip": "ym2612"
    },
    {
      "channel": 5,
      "note": 71,
      "start": 41.0637,
      "duration": 0.1829,
      "velocity": 123,
      "chip": "ym2612"
    },
    {
      "channel": 4,
      "note": 79,
      "start": 41.1464,
      "duration": 0.133,
      "velocity": 88,
      "chip": "ym2612"
    },
    {
      "channel": 2,
      "note": 73,
      "start": 41.2461,
      "duration": 0.1329,
      "velocity": 88,
      "chip": "ym2612"
    },
    {
      "channel": 3,
      "note": 83,
      "start": 41.3295,
      "duration": 0.1831,
      "velocity": 97,
      "chip": "ym2612"
    },
    {
      "channel": 4,
      "note": 66,
      "start": 41.3298,
      "duration": 0.1329,
      "velocity": 88,
      "chip": "ym2612"
    },
    {
      "channel": 2,
      "note": 78,
      "start": 41.4127,
      "duration": 0.1331,
      "velocity": 88,
      "chip": "ym2612"
    },
    {
      "channel": 4,
      "note": 73,
      "start": 41.513,
      "duration": 0.1331,
      "velocity": 88,
      "chip": "ym2612"
    },
    {
      "channel": 0,
      "note": 84,
      "start": 41.5958,
      "duration": 0.3498,
      "velocity": 97,
      "chip": "ym2612"
    },
    {
      "channel": 1,
      "note": 55,
      "start": 41.5961,
      "duration": 0.3499,
      "velocity": 101,
      "chip": "ym2612"
    },
    {
      "channel": 2,
      "note": 67,
      "start": 41.5964,
      "duration": 0.1328,
      "velocity": 88,
      "chip": "ym2612"
    },
    {
      "channel": 5,
      "note": 72,
      "start": 41.5969,
      "duration": 0.3499,
      "velocity": 123,
      "chip": "ym2612"
    },
    {
      "channel": 4,
      "note": 78,
      "start": 41.6797,
      "duration": 0.1331,
      "velocity": 88,
      "chip": "ym2612"
    },
    {
      "channel": 2,
      "note": 74,
      "start": 41.7794,
      "duration": 0.1332,
      "velocity": 88,
      "chip": "ym2612"
    },
    {
      "channel": 3,
      "note": 84,
      "start": 41.8629,
      "duration": 0.3498,
      "velocity": 97,
      "chip": "ym2612"
    },
    {
      "channel": 4,
      "note": 67,
      "start": 41.8633,
      "duration": 0.1329,
      "velocity": 88,
      "chip": "ym2612"
    },
    {
      "channel": 0,
      "note": 83,
      "start": 41.9458,
      "duration": 0.1831,
      "velocity": 97,
      "chip": "ym2612"
    },
    {
      "channel": 1,
      "note": 54,
      "start": 41.9461,
      "duration": 0.1832,
      "velocity": 101,
      "chip": "ym2612"
    },
    {
      "channel": 2,
      "note": 79,
      "start": 41.9464,
      "duration": 0.1328,
      "velocity": 88,
      "chip": "ym2612"
    },
    {
      "channel": 5,
      "note": 71,
      "start": 41.947,
      "duration": 0.1831,
      "velocity": 123,
      "chip": "ym2612"
    },
    {
      "channel": 4,
      "note": 74,
      "start": 42.0464,
      "duration": 0.1332,
      "velocity": 88,
      "chip": "ym2612"
    },
    {
      "channel": 0,
      "note": 84,
      "start": 42.1292,
      "duration": 0.3498,
      "velocity": 97,
      "chip": "ym2612"
    },
    {
      "channel": 1,
      "note": 55,
      "start": 42.1295,
      "duration": 0.3499,
      "velocity": 101,
      "chip": "ym2612"
    },
    {
      "channel": 2,
      "note": 66,
      "start": 42.1297,
      "duration": 0.1328,
      "velocity": 88,
      "chip": "ym2612"
    },
    {
      "channel": 5,
      "note": 72,
      "start": 42.1304,
      "duration": 0.3498,
      "velocity": 123,
      "chip": "ym2612"
    },
    {
      "channel": 3,
      "note": 83,
      "start": 42.2129,
      "duration": 0.1831,
      "velocity": 97,
      "chip": "ym2612"
    },
    {
      "channel": 4,
      "note": 79,
      "start": 42.2133,
      "duration": 0.1329,
      "velocity": 88,
      "chip": "ym2612"
    },
    {
      "channel": 2,
      "note": 73,
      "start": 42.3127,
      "duration": 0.1332,
      "velocity": 88,
      "chip": "ym2612"
    },
    {
      "channel": 3,
      "note": 84,
      "start": 42.3963,
      "duration": 0.3497,
      "velocity": 97,
      "chip": "ym2612"
    },
    {
      "channel": 4,
      "note": 66,
      "start": 42.3966,
      "duration": 0.1329,
      "velocity": 88,
      "chip": "ym2612"
    },
    {
      "channel": 0,
      "note": 83,
      "start": 42.4792,
      "duration": 0.1844,
      "velocity": 101,
      "chip": "ym2612"
    },
    {
      "channel": 1,
      "note": 54,
      "start": 42.4794,
      "duration": 0.1844,
      "velocity": 101,
      "chip": "ym2612"
    },
    {
      "channel": 2,
      "note": 78,
      "start": 42.4797,
      "duration": 0.1328,
      "velocity": 88,
      "chip": "ym2612"
    },
    {
      "channel": 5,
      "note": 71,
      "start": 42.4803,
      "duration": 0.1844,
      "velocity": 123,
      "chip": "ym2612"
    },
    {
      "channel": 4,
      "note": 73,
      "start": 42.5797,
      "duration": 0.133,
      "velocity": 88,
      "chip": "ym2612"
    },
    {
      "channel": 1,
      "note": 59,
      "start": 42.664,
      "duration": 1.5985,
      "velocity": 101,
      "chip": "ym2612"
    },
    {
      "channel": 2,
      "note": 95,
      "start": 42.6643,
      "duration": 0.1314,
      "velocity": 88,
      "chip": "ym2612"
    },
    {
      "channel": 3,
      "note": 83,
      "start": 42.7462,
      "duration": 0.1844,
      "velocity": 101,
      "chip": "ym2612"
    },
    {
      "channel": 4,
      "note": 78,
      "start": 42.7465,
      "duration": 0.1329,
      "velocity": 88,
      "chip": "ym2612"
    },
    {
      "channel": 2,
      "note": 85,
      "start": 42.846,
      "duration": 0.1331,
      "velocity": 88,
      "chip": "ym2612"
    },
    {
      "channel": 4,
      "note": 95,
      "start": 42.931,
      "duration": 0.1316,
      "velocity": 88,
      "chip": "ym2612"
    },
    {
      "channel": 2,
      "note": 90,
      "start": 43.0127,
      "duration": 0.1331,
      "velocity": 88,
      "chip": "ym2612"
    },
    {
      "channel": 4,
      "note": 85,
      "start": 43.1129,
      "duration": 0.1332,
      "velocity": 88,
      "chip": "ym2612"
    },
    {
      "channel": 0,
      "note": 90,
      "start": 43.1958,
      "duration": 0.5331,
      "velocity": 101,
      "chip": "ym2612"
    },
    {
      "channel": 2,
      "note": 95,
      "start": 43.1963,
      "duration": 0.1329,
      "velocity": 88,
      "chip": "ym2612"
    },
    {
      "channel": 5,
      "note": 90,
      "start": 43.1968,
      "duration": 0.5332,
      "velocity": 123,
      "chip": "ym2612"
    },
    {
      "channel": 4,
      "note": 90,
      "start": 43.2797,
      "duration": 0.1331,
      "velocity": 88,
      "chip": "ym2612"
    },
    {
      "channel": 2,
      "note": 85,
      "start": 43.3795,
      "duration": 0.1331,
      "velocity": 88,
      "chip": "ym2612"
    },
    {
      "channel": 3,
      "note": 90,
      "start": 43.4629,
      "duration": 0.533,
      "velocity": 101,
      "chip": "ym2612"
    },
    {
      "channel": 4,
      "note": 95,
      "start": 43.4633,
      "duration": 0.1329,
      "velocity": 88,
      "chip": "ym2612"
    },
    {
      "channel": 2,
      "note": 90,
      "start": 43.5461,
      "duration": 0.1331,
      "velocity": 88,
      "chip": "ym2612"
    },
    {
      "channel": 4,
      "note": 85,
      "start": 43.6465,
      "duration": 0.1331,
      "velocity": 88,
      "chip": "ym2612"
    },
    {
      "channel": 0,
      "note": 88,
      "start": 43.7292,
      "duration": 0.1831,
      "velocity": 101,
      "chip": "ym2612"
    },
    {
      "channel": 2,
      "note": 94,
      "start": 43.7296,
      "duration": 0.1329,
      "velocity": 88,
      "chip": "ym2612"
    },
    {
      "channel": 5,
      "note": 88,
      "start": 43.7302,
      "duration": 0.1829,
      "velocity": 123,
      "chip": "ym2612"
    },
    {
      "channel": 4,
      "note": 90,
      "start": 43.8131,
      "duration": 0.133,
      "velocity": 88,
      "chip": "ym2612"
    },
    {
      "channel": 2,
      "note": 85,
      "start": 43.9128,
      "duration": 0.1329,
      "velocity": 88,
      "chip": "ym2612"
    },
    {
      "channel": 3,
      "note": 88,
      "start": 43.9962,
      "duration": 0.1831,
      "velocity": 101,
      "chip": "ym2612"
    },
    {
      "channel": 4,
      "note": 94,
      "start": 43.9965,
      "duration": 0.1329,
      "velocity": 88,
      "chip": "ym2612"
    },
    {
      "channel": 2,
      "note": 90,
      "start": 44.0794,
      "duration": 0.1331,
      "velocity": 88,
      "chip": "ym2612"
    },
    {
      "channel": 4,
      "note": 85,
      "start": 44.1797,
      "duration": 0.1331,
      "velocity": 88,
      "chip": "ym2612"
    },
    {
      "channel": 0,
      "note": 90,
      "start": 44.2625,
      "duration": 0.5331,
      "velocity": 101,
      "chip": "ym2612"
    },
    {
      "channel": 1,
      "note": 54,
      "start": 44.2628,
      "duration": 1.0664,
      "velocity": 101,
      "chip": "ym2612"
    },
    {
      "channel": 2,
      "note": 94,
      "start": 44.2631,
      "duration": 0.1328,
      "velocity": 88,
      "chip": "ym2612"
    },
    {
      "channel": 5,
      "note": 90,
      "start": 44.2636,
      "duration": 0.5331,
      "velocity": 123,
      "chip": "ym2612"
    },
    {
      "channel": 4,
      "note": 90,
      "start": 44.3463,
      "duration": 0.1331,
      "velocity": 88,
      "chip": "ym2612"
    },
    {
      "channel": 2,
      "note": 85,
      "start": 44.4461,
      "duration": 0.1332,
      "velocity": 88,
      "chip": "ym2612"
    },
    {
      "channel": 3,
      "note": 90,
      "start": 44.5296,
      "duration": 0.533,
      "velocity": 101,
      "chip": "ym2612"
    },
    {
      "channel": 4,
      "note": 94,
      "start": 44.5299,
      "duration": 0.1329,
      "velocity": 88,
      "chip": "ym2612"
    },
    {
      "channel": 2,
      "note": 90,
      "start": 44.6127,
      "duration": 0.1332,
      "velocity": 88,
      "chip": "ym2612"
    },
    {
      "channel": 4,
      "note": 85,
      "start": 44.7131,
      "duration": 0.1331,
      "velocity": 88,
      "chip": "ym2612"
    },
    {
      "channel": 0,
      "note": 88,
      "start": 44.7958,
      "duration": 0.1831,
      "velocity": 101,
      "chip": "ym2612"
    },
    {
      "channel": 2,
      "note": 92,
      "start": 44.7963,
      "duration": 0.1329,
      "velocity": 88,
      "chip": "ym2612"
    },
    {
      "channel": 5,
      "note": 88,
      "start": 44.7969,
      "duration": 0.1829,
      "velocity": 123,
      "chip": "ym2612"
    },
    {
      "channel": 4,
      "note": 90,
      "start": 44.8798,
      "duration": 0.133,
      "velocity": 88,
      "chip": "ym2612"
    },
    {
      "channel": 2,
      "note": 85,
      "start": 44.9795,
      "duration": 0.1329,
      "velocity": 88,
      "chip": "ym2612"
    },
    {
      "channel": 3,
      "note": 88,
      "start": 45.0629,
      "duration": 0.1831,
      "velocity": 101,
      "chip": "ym2612"
    },
    {
      "channel": 4,
      "note": 92,
      "start": 45.0631,
      "duration": 0.1329,
      "velocity": 88,
      "chip": "ym2612"
    },
    {
      "channel": 2,
      "note": 90,
      "start": 45.146,
      "duration": 0.1331,
      "velocity": 88,
      "chip": "ym2612"
    },
    {
      "channel": 4,
      "note": 85,
      "start": 45.2463,
      "duration": 0.1331,
      "velocity": 88,
      "chip": "ym2612"
    },
    {
      "channel": 0,
      "note": 95,
      "start": 45.3292,
      "duration": 0.5331,
      "velocity": 101,
      "chip": "ym2612"
    },
    {
      "channel": 1,
      "note": 52,
      "start": 45.3295,
      "duration": 1.0664,
      "velocity": 101,
      "chip": "ym2612"
    },
    {
      "channel": 2,
      "note": 92,
      "start": 45.3297,
      "duration": 0.1328,
      "velocity": 88,
      "chip": "ym2612"
    },
    {
      "channel": 5,
      "note": 95,
      "start": 45.3302,
      "duration": 0.5331,
      "velocity": 123,
      "chip": "ym2612"
    },
    {
      "channel": 4,
      "note": 90,
      "start": 45.413,
      "duration": 0.1331,
      "velocity": 88,
      "chip": "ym2612"
    },
    {
      "channel": 2,
      "note": 85,
      "start": 45.5127,
      "duration": 0.1332,
      "velocity": 88,
      "chip": "ym2612"
    },
    {
      "channel": 3,
      "note": 95,
      "start": 45.5963,
      "duration": 0.533,
      "velocity": 101,
      "chip": "ym2612"
    },
    {
      "channel": 4,
      "note": 92,
      "start": 45.5966,
      "duration": 0.1329,
      "velocity": 88,
      "chip": "ym2612"
    },
    {
      "channel": 2,
      "note": 90,
      "start": 45.6794,
      "duration": 0.1332,
      "velocity": 88,
      "chip": "ym2612"
    },
    {
      "channel": 4,
      "note": 85,
      "start": 45.7798,
      "duration": 0.1331,
      "velocity": 88,
      "chip": "ym2612"
    },
    {
      "channel": 0,
      "note": 90,
      "start": 45.8625,
      "duration": 0.1831,
      "velocity": 101,
      "chip": "ym2612"
    },
    {
      "channel": 2,
      "note": 94,
      "start": 45.8629,
      "duration": 0.1329,
      "velocity": 88,
      "chip": "ym2612"
    },
    {
      "channel": 5,
      "note": 90,
      "start": 45.8636,
      "duration": 0.1829,
      "velocity": 123,
      "chip": "ym2612"
    },
    {
      "channel": 4,
      "note": 90,
      "start": 45.9465,
      "duration": 0.133,
      "velocity": 88,
      "chip": "ym2612"
    },
    {
      "channel": 2,
      "note": 85,
      "start": 46.0461,
      "duration": 0.1329,
      "velocity": 88,
      "chip": "ym2612"
    },
    {
      "channel": 3,
      "note": 90,
      "start": 46.1295,
      "duration": 0.1832,
      "velocity": 101,
      "chip": "ym2612"
    },
    {
      "channel": 4,
      "note": 94,
      "start": 46.1298,
      "duration": 0.1329,
      "velocity": 88,
      "chip": "ym2612"
    },
    {
      "channel": 2,
      "note": 90,
      "start": 46.2127,
      "duration": 0.1331,
      "velocity": 88,
      "chip": "ym2612"
    },
    {
      "channel": 4,
      "note": 85,
      "start": 46.313,
      "duration": 0.1331,
      "velocity": 88,
      "chip": "ym2612"
    },
    {
      "channel": 0,
      "note": 90,
      "start": 46.3958,
      "duration": 0.5331,
      "velocity": 101,
      "chip": "ym2612"
    },
    {
      "channel": 1,
      "note": 54,
      "start": 46.3961,
      "duration": 1.0664,
      "velocity": 101,
      "chip": "ym2612"
    },
    {
      "channel": 2,
      "note": 94,
      "start": 46.3964,
      "duration": 0.1328,
      "velocity": 88,
      "chip": "ym2612"
    },
    {
      "channel": 5,
      "note": 90,
      "start": 46.3969,
      "duration": 0.5331,
      "velocity": 123,
      "chip": "ym2612"
    },
    {
      "channel": 4,
      "note": 90,
      "start": 46.4797,
      "duration": 0.1331,
      "velocity": 88,
      "chip": "ym2612"
    },
    {
      "channel": 2,
      "note": 85,
      "start": 46.5794,
      "duration": 0.1332,
      "velocity": 88,
      "chip": "ym2612"
    },
    {
      "channel": 3,
      "note": 90,
      "start": 46.6629,
      "duration": 0.533,
      "velocity": 101,
      "chip": "ym2612"
    },
    {
      "channel": 4,
      "note": 94,
      "start": 46.6633,
      "duration": 0.1329,
      "velocity": 88,
      "chip": "ym2612"
    },
    {
      "channel": 2,
      "note": 90,
      "start": 46.7461,
      "duration": 0.1332,
      "velocity": 88,
      "chip": "ym2612"
    },
    {
      "channel": 4,
      "note": 85,
      "start": 46.8465,
      "duration": 0.1331,
      "velocity": 88,
      "chip": "ym2612"
    },
    {
      "channel": 0,
      "note": 88,
      "start": 46.9292,
      "duration": 0.1831,
      "velocity": 101,
      "chip": "ym2612"
    },
    {
      "channel": 2,
      "note": 95,
      "start": 46.9296,
      "duration": 0.1329,
      "velocity": 88,
      "chip": "ym2612"
    },
    {
      "channel": 5,
      "note": 88,
      "start": 46.9302,
      "duration": 0.1829,
      "velocity": 123,
      "chip": "ym2612"
    },
    {
      "channel": 4,
      "note": 90,
      "start": 47.0131,
      "duration": 0.133,
      "velocity": 88,
      "chip": "ym2612"
    },
    {
      "channel": 2,
      "note": 85,
      "start": 47.1128,
      "duration": 0.1329,
      "velocity": 88,
      "chip": "ym2612"
    },
    {
      "channel": 3,
      "note": 88,
      "start": 47.1961,
      "duration": 0.1832,
      "velocity": 101,
      "chip": "ym2612"
    },
    {
      "channel": 4,
      "note": 95,
      "start": 47.1965,
      "duration": 0.1329,
      "velocity": 88,
      "chip": "ym2612"
    },
    {
      "channel": 2,
      "note": 90,
      "start": 47.2794,
      "duration": 0.1331,
      "velocity": 88,
      "chip": "ym2612"
    },
    {
      "channel": 4,
      "note": 85,
      "start": 47.3797,
      "duration": 0.1331,
      "velocity": 88,
      "chip": "ym2612"
    },
    {
      "channel": 0,
      "note": 90,
      "start": 47.4625,
      "duration": 0.5331,
      "velocity": 101,
      "chip": "ym2612"
    },
    {
      "channel": 1,
      "note": 51,
      "start": 47.4628,
      "duration": 2.1331,
      "velocity": 101,
      "chip": "ym2612"
    },
    {
      "channel": 2,
      "note": 95,
      "start": 47.4631,
      "duration": 0.1328,
      "velocity": 88,
      "chip": "ym2612"
    },
    {
      "channel": 5,
      "note": 90,
      "start": 47.4636,
      "duration": 0.5331,
      "velocity": 123,
      "chip": "ym2612"
    },
    {
      "channel": 4,
      "note": 90,
      "start": 47.5463,
      "duration": 0.1331,
      "velocity": 88,
      "chip": "ym2612"
    },
    {
      "channel": 2,
      "note": 85,
      "start": 47.6461,
      "duration": 0.1332,
      "velocity": 88,
      "chip": "ym2612"
    },
    {
      "channel": 3,
      "note": 90,
      "start": 47.7296,
      "duration": 0.533,
      "velocity": 101,
      "chip": "ym2612"
    },
    {
      "channel": 4,
      "note": 95,
      "start": 47.7299,
      "duration": 0.1329,
      "velocity": 88,
      "chip": "ym2612"
    },
    {
      "channel": 2,
      "note": 90,
      "start": 47.8127,
      "duration": 0.1332,
      "velocity": 88,
      "chip": "ym2612"
    },
    {
      "channel": 4,
      "note": 85,
      "start": 47.9131,
      "duration": 0.1331,
      "velocity": 88,
      "chip": "ym2612"
    },
    {
      "channel": 0,
      "note": 88,
      "start": 47.9958,
      "duration": 0.1831,
      "velocity": 101,
      "chip": "ym2612"
    },
    {
      "channel": 2,
      "note": 94,
      "start": 47.9963,
      "duration": 0.1329,
      "velocity": 88,
      "chip": "ym2612"
    },
    {
      "channel": 5,
      "note": 88,
      "start": 47.9969,
      "duration": 0.1829,
      "velocity": 123,
      "chip": "ym2612"
    },
    {
      "channel": 4,
      "note": 90,
      "start": 48.0798,
      "duration": 0.133,
      "velocity": 88,
      "chip": "ym2612"
    },
    {
      "channel": 2,
      "note": 85,
      "start": 48.1795,
      "duration": 0.1329,
      "velocity": 88,
      "chip": "ym2612"
    },
    {
      "channel": 3,
      "note": 88,
      "start": 48.2628,
      "duration": 0.1832,
      "velocity": 101,
      "chip": "ym2612"
    },
    {
      "channel": 4,
      "note": 94,
      "start": 48.2631,
      "duration": 0.1329,
      "velocity": 88,
      "chip": "ym2612"
    },
    {
      "channel": 2,
      "note": 90,
      "start": 48.346,
      "duration": 0.1331,
      "velocity": 88,
      "chip": "ym2612"
    },
    {
      "channel": 4,
      "note": 85,
      "start": 48.4463,
      "duration": 0.1331,
      "velocity": 88,
      "chip": "ym2612"
    },
    {
      "channel": 0,
      "note": 88,
      "start": 48.5292,
      "duration": 0.5331,
      "velocity": 101,
      "chip": "ym2612"
    },
    {
      "channel": 2,
      "note": 94,
      "start": 48.5296,
      "duration": 0.1329,
      "velocity": 88,
      "chip": "ym2612"
    },
    {
      "channel": 5,
      "note": 88,
      "start": 48.5301,
      "duration": 0.5332,
      "velocity": 123,
      "chip": "ym2612"
    },
    {
      "channel": 4,
      "note": 90,
      "start": 48.613,
      "duration": 0.1331,
      "velocity": 88,
      "chip": "ym2612"
    },
    {
      "channel": 2,
      "note": 85,
      "start": 48.7128,
      "duration": 0.1331,
      "velocity": 88,
      "chip": "ym2612"
    },
    {
      "channel": 3,
      "note": 88,
      "start": 48.7963,
      "duration": 0.533,
      "velocity": 101,
      "chip": "ym2612"
    },
    {
      "channel": 4,
      "note": 94,
      "start": 48.7966,
      "duration": 0.1329,
      "velocity": 88,
      "chip": "ym2612"
    },
    {
      "channel": 2,
      "note": 90,
      "start": 48.8795,
      "duration": 0.1331,
      "velocity": 88,
      "chip": "ym2612"
    },
    {
      "channel": 4,
      "note": 85,
      "start": 48.9798,
      "duration": 0.1331,
      "velocity": 88,
      "chip": "ym2612"
    },
    {
      "channel": 0,
      "note": 85,
      "start": 49.0625,
      "duration": 0.1831,
      "velocity": 101,
      "chip": "ym2612"
    },
    {
      "channel": 2,
      "note": 92,
      "start": 49.0629,
      "duration": 0.1329,
      "velocity": 88,
      "chip": "ym2612"
    },
    {
      "channel": 5,
      "note": 85,
      "start": 49.0636,
      "duration": 0.1829,
      "velocity": 123,
      "chip": "ym2612"
    },
    {
      "channel": 4,
      "note": 90,
      "start": 49.1465,
      "duration": 0.133,
      "velocity": 88,
      "chip": "ym2612"
    },
    {
      "channel": 2,
      "note": 85,
      "start": 49.2461,
      "duration": 0.1329,
      "velocity": 88,
      "chip": "ym2612"
    },
    {
      "channel": 3,
      "note": 85,
      "start": 49.3295,
      "duration": 0.1832,
      "velocity": 101,
      "chip": "ym2612"
    },
    {
      "channel": 4,
      "note": 92,
      "start": 49.3298,
      "duration": 0.1329,
      "velocity": 88,
      "chip": "ym2612"
    },
    {
      "channel": 2,
      "note": 90,
      "start": 49.4127,
      "duration": 0.1331,
      "velocity": 88,
      "chip": "ym2612"
    },
    {
      "channel": 4,
      "note": 85,
      "start": 49.513,
      "duration": 0.1331,
      "velocity": 88,
      "chip": "ym2612"
    },
    {
      "channel": 0,
      "note": 90,
      "start": 49.5958,
      "duration": 0.5331,
      "velocity": 101,
      "chip": "ym2612"
    },
    {
      "channel": 1,
      "note": 52,
      "start": 49.5961,
      "duration": 0.5333,
      "velocity": 101,
      "chip": "ym2612"
    },
    {
      "channel": 2,
      "note": 92,
      "start": 49.5964,
      "duration": 0.1328,
      "velocity": 88,
      "chip": "ym2612"
    },
    {
      "channel": 5,
      "note": 90,
      "start": 49.5969,
      "duration": 0.5332,
      "velocity": 123,
      "chip": "ym2612"
    },
    {
      "channel": 4,
      "note": 90,
      "start": 49.6797,
      "duration": 0.1331,
      "velocity": 88,
      "chip": "ym2612"
    },
    {
      "channel": 2,
      "note": 85,
      "start": 49.7794,
      "duration": 0.1332,
      "velocity": 88,
      "chip": "ym2612"
    },
    {
      "channel": 3,
      "note": 90,
      "start": 49.8629,
      "duration": 0.5329,
      "velocity": 101,
      "chip": "ym2612"
    },
    {
      "channel": 4,
      "note": 92,
      "start": 49.8633,
      "duration": 0.1329,
      "velocity": 88,
      "chip": "ym2612"
    },
    {
      "channel": 2,
      "note": 90,
      "start": 49.9461,
      "duration": 0.1332,
      "velocity": 88,
      "chip": "ym2612"
    },
    {
      "channel": 4,
      "note": 85,
      "start": 50.0465,
      "duration": 0.1332,
      "velocity": 88,
      "chip": "ym2612"
    },
    {
      "channel": 0,
      "note": 85,
      "start": 50.1292,
      "duration": 0.1831,
      "velocity": 101,
      "chip": "ym2612"
    },
    {
      "channel": 1,
      "note": 54,
      "start": 50.1294,
      "duration": 1.0679,
      "velocity": 101,
      "chip": "ym2612"
    },
    {
      "channel": 2,
      "note": 85,
      "start": 50.1297,
      "duration": 0.0495,
      "velocity": 88,
      "chip": "ym2612"
    },
    {
      "channel": 5,
      "note": 85,
      "start": 50.1304,
      "duration": 0.1827,
      "velocity": 123,
      "chip": "ym2612"
    },
    {
      "channel": 2,
      "note": 90,
      "start": 50.1794,
      "duration": 0.0332,
      "velocity": 88,
      "chip": "ym2612"
    },
    {
      "channel": 2,
      "note": 92,
      "start": 50.2127,
      "duration": 0.0498,
      "velocity": 88,
      "chip": "ym2612"
    },
    {
      "channel": 4,
      "note": 90,
      "start": 50.2132,
      "duration": 0.1329,
      "velocity": 88,
      "chip": "ym2612"
    },
    {
      "channel": 2,
      "note": 94,
      "start": 50.2628,
      "duration": 0.133,
      "velocity": 88,
      "chip": "ym2612"
    },
    {
      "channel": 3,
      "note": 85,
      "start": 50.3961,
      "duration": 0.1831,
      "velocity": 101,
      "chip": "ym2612"
    },
    {
      "channel": 4,
      "note": 85,
      "start": 50.3964,
      "duration": 0.0496,
      "velocity": 88,
      "chip": "ym2612"
    },
    {
      "channel": 4,
      "note": 90,
      "start": 50.4462,
      "duration": 0.0331,
      "velocity": 88,
      "chip": "ym2612"
    },
    {
      "channel": 4,
      "note": 92,
      "start": 50.4795,
      "duration": 0.0498,
      "velocity": 88,
      "chip": "ym2612"
    },
    {
      "channel": 4,
      "note": 94,
      "start": 50.5295,
      "duration": 0.133,
      "velocity": 88,
      "chip": "ym2612"
    },
    {
      "channel": 0,
      "note": 81,
      "start": 51.1973,
      "duration": 1.0649,
      "velocity": 123,
      "chip": "ym2612"
    },
    {
      "channel": 1,
      "note": 61,
      "start": 51.1976,
      "duration": 0.5317,
      "velocity": 101,
      "chip": "ym2612"
    },
    {
      "channel": 2,
      "note": 78,
      "start": 51.1991,
      "duration": 1.0636,
      "velocity": 123,
      "chip": "ym2612"
    },
    {
      "channel": 5,
      "note": 69,
      "start": 51.2008,
      "duration": 1.0626,
      "velocity": 123,
      "chip": "ym2612"
    },
    {
      "channel": 3,
      "note": 81,
      "start": 51.4644,
      "duration": 1.065,
      "velocity": 123,
      "chip": "ym2612"
    },
    {
      "channel": 4,
      "note": 78,
      "start": 51.466,
      "duration": 1.0637,
      "velocity": 123,
      "chip": "ym2612"
    },
    {
      "channel": 1,
      "note": 54,
      "start": 51.7293,
      "duration": 1.0666,
      "velocity": 101,
      "chip": "ym2612"
    },
    {
      "channel": 0,
      "note": 83,
      "start": 52.2625,
      "duration": 0.5331,
      "velocity": 123,
      "chip": "ym2612"
    },
    {
      "channel": 2,
      "note": 80,
      "start": 52.263,
      "duration": 0.5332,
      "velocity": 123,
      "chip": "ym2612"
    },
    {
      "channel": 5,
      "note": 71,
      "start": 52.2636,
      "duration": 0.5332,
      "velocity": 123,
      "chip": "ym2612"
    },
    {
      "channel": 3,
      "note": 83,
      "start": 52.5296,
      "duration": 0.5331,
      "velocity": 123,
      "chip": "ym2612"
    },
    {
      "channel": 4,
      "note": 80,
      "start": 52.5299,
      "duration": 0.5331,
      "velocity": 123,
      "chip": "ym2612"
    },
    {
      "channel": 0,
      "note": 85,
      "start": 52.7958,
      "duration": 0.5331,
      "velocity": 123,
      "chip": "ym2612"
    },
    {
      "channel": 1,
      "note": 61,
      "start": 52.7961,
      "duration": 0.5331,
      "velocity": 101,
      "chip": "ym2612"
    },
    {
      "channel": 2,
      "note": 81,
      "start": 52.7964,
      "duration": 0.5332,
      "velocity": 123,
      "chip": "ym2612"
    },
    {
      "channel": 5,
      "note": 73,
      "start": 52.797,
      "duration": 0.5331,
      "velocity": 123,
      "chip": "ym2612"
    },
    {
      "channel": 3,
      "note": 85,
      "start": 53.0629,
      "duration": 0.5331,
      "velocity": 123,
      "chip": "ym2612"
    },
    {
      "channel": 4,
      "note": 81,
      "start": 53.0632,
      "duration": 0.5332,
      "velocity": 123,
      "chip": "ym2612"
    },
    {
      "channel": 0,
      "note": 81,
      "start": 53.3292,
      "duration": 1.0664,
      "velocity": 123,
      "chip": "ym2612"
    },
    {
      "channel": 1,
      "note": 62,
      "start": 53.3295,
      "duration": 0.5332,
      "velocity": 101,
      "chip": "ym2612"
    },
    {
      "channel": 2,
      "note": 78,
      "start": 53.3297,
      "duration": 1.0663,
      "velocity": 123,
      "chip": "ym2612"
    },
    {
      "channel": 5,
      "note": 69,
      "start": 53.3304,
      "duration": 1.0663,
      "velocity": 123,
      "chip": "ym2612"
    },
    {
      "channel": 3,
      "note": 81,
      "start": 53.5963,
      "duration": 1.0664,
      "velocity": 123,
      "chip": "ym2612"
    },
    {
      "channel": 4,
      "note": 78,
      "start": 53.5966,
      "duration": 1.0664,
      "velocity": 123,
      "chip": "ym2612"
    },
    {
      "channel": 1,
      "note": 64,
      "start": 53.8626,
      "duration": 1.0665,
      "velocity": 101,
      "chip": "ym2612"
    },
    {
      "channel": 0,
      "note": 80,
      "start": 54.3958,
      "duration": 1.0664,
      "velocity": 123,
      "chip": "ym2612"
    },
    {
      "channel": 2,
      "note": 76,
      "start": 54.3963,
      "duration": 1.0666,
      "velocity": 123,
      "chip": "ym2612"
    },
    {
      "channel": 5,
      "note": 68,
      "start": 54.3969,
      "duration": 1.0665,
      "velocity": 123,
      "chip": "ym2612"
    },
    {
      "channel": 3,
      "note": 80,
      "start": 54.6629,
      "duration": 1.0664,
      "velocity": 123,
      "chip": "ym2612"
    },
    {
      "channel": 4,
      "note": 76,
      "start": 54.6633,
      "duration": 1.0664,
      "velocity": 123,
      "chip": "ym2612"
    },
    {
      "channel": 1,
      "note": 52,
      "start": 54.9293,
      "duration": 0.5333,
      "velocity": 101,
      "chip": "ym2612"
    },
    {
      "channel": 0,
      "note": 85,
      "start": 55.4625,
      "duration": 1.0664,
      "velocity": 123,
      "chip": "ym2612"
    },
    {
      "channel": 1,
      "note": 51,
      "start": 55.4628,
      "duration": 2.1331,
      "velocity": 101,
      "chip": "ym2612"
    },
    {
      "channel": 2,
      "note": 81,
      "start": 55.4631,
      "duration": 1.0663,
      "velocity": 123,
      "chip": "ym2612"
    },
    {
      "channel": 5,
      "note": 73,
      "start": 55.4637,
      "duration": 1.0663,
      "velocity": 123,
      "chip": "ym2612"
    },
    {
      "channel": 3,
      "note": 85,
      "start": 55.7296,
      "duration": 1.0664,
      "velocity": 123,
      "chip": "ym2612"
    },
    {
      "channel": 4,
      "note": 81,
      "start": 55.7299,
      "duration": 1.0665,
      "velocity": 123,
      "chip": "ym2612"
    },
    {
      "channel": 0,
      "note": 88,
      "start": 56.5292,
      "duration": 0.5331,
      "velocity": 123,
      "chip": "ym2612"
    },
    {
      "channel": 2,
      "note": 85,
      "start": 56.5296,
      "duration": 0.5331,
      "velocity": 123,
      "chip": "ym2612"
    },
    {
      "channel": 5,
      "note": 76,
      "start": 56.5302,
      "duration": 0.533,
      "velocity": 123,
      "chip": "ym2612"
    },
    {
      "channel": 3,
      "note": 88,
      "start": 56.7963,
      "duration": 0.5331,
      "velocity": 123,
      "chip": "ym2612"
    },
    {
      "channel": 4,
      "note": 85,
      "start": 56.7966,
      "duration": 0.5331,
      "velocity": 123,
      "chip": "ym2612"
    },
    {
      "channel": 0,
      "note": 90,
      "start": 57.0625,
      "duration": 0.5331,
      "velocity": 123,
      "chip": "ym2612"
    },
    {
      "channel": 2,
      "note": 83,
      "start": 57.0629,
      "duration": 0.5333,
      "velocity": 123,
      "chip": "ym2612"
    },
    {
      "channel": 5,
      "note": 78,
      "start": 57.0635,
      "duration": 0.5333,
      "velocity": 123,
      "chip": "ym2612"
    },
    {
      "channel": 3,
      "note": 90,
      "start": 57.3296,
      "duration": 0.5331,
      "velocity": 123,
      "chip": "ym2612"
    },
    {
      "channel": 4,
      "note": 83,
      "start": 57.3299,
      "duration": 0.5332,
      "velocity": 123,
      "chip": "ym2612"
    },
    {
      "channel": 0,
      "note": 85,
      "start": 57.5958,
      "duration": 1.0664,
      "velocity": 123,
      "chip": "ym2612"
    },
    {
      "channel": 1,
      "note": 50,
      "start": 57.5961,
      "duration": 1.0664,
      "velocity": 101,
      "chip": "ym2612"
    },
    {
      "channel": 2,
      "note": 81,
      "start": 57.5965,
      "duration": 1.0663,
      "velocity": 123,
      "chip": "ym2612"
    },
    {
      "channel": 5,
      "note": 73,
      "start": 57.597,
      "duration": 1.0664,
      "velocity": 123,
      "chip": "ym2612"
    },
    {
      "channel": 3,
      "note": 85,
      "start": 57.8629,
      "duration": 1.0664,
      "velocity": 123,
      "chip": "ym2612"
    },
    {
      "channel": 4,
      "note": 81,
      "start": 57.8633,
      "duration": 1.0664,
      "velocity": 123,
      "chip": "ym2612"
    },
    {
      "channel": 0,
      "note": 83,
      "start": 58.6625,
      "duration": 1.0664,
      "velocity": 123,
      "chip": "ym2612"
    },
    {
      "channel": 1,
      "note": 52,
      "start": 58.6627,
      "duration": 1.0665,
      "velocity": 101,
      "chip": "ym2612"
    },
    {
      "channel": 2,
      "note": 80,
      "start": 58.6631,
      "duration": 1.0665,
      "velocity": 123,
      "chip": "ym2612"
    },
    {
      "channel": 5,
      "note": 71,
      "start": 58.6637,
      "duration": 1.0664,
      "velocity": 123,
      "chip": "ym2612"
    },
    {
      "channel": 3,
      "note": 83,
      "start": 58.9296,
      "duration": 1.0664,
      "velocity": 123,
      "chip": "ym2612"
    },
    {
      "channel": 4,
      "note": 80,
      "start": 58.9299,
      "duration": 1.0665,
      "velocity": 123,
      "chip": "ym2612"
    },
    {
      "channel": 0,
      "note": 81,
      "start": 59.7292,
      "duration": 1.0664,
      "velocity": 123,
      "chip": "ym2612"
    },
    {
      "channel": 1,
      "note": 54,
      "start": 59.7295,
      "duration": 0.5329,
      "velocity": 101,
      "chip": "ym2612"
    },
    {
      "channel": 2,
      "note": 78,
      "start": 59.7297,
      "duration": 1.0665,
      "velocity": 123,
      "chip": "ym2612"
    },
    {
      "channel": 5,
      "note": 69,
      "start": 59.7304,
      "duration": 1.0665,
      "velocity": 123,
      "chip": "ym2612"
    },
    {
      "channel": 3,
      "note": 81,
      "start": 59.9963,
      "duration": 1.0664,
      "velocity": 123,
      "chip": "ym2612"
    },
    {
      "channel": 4,
      "note": 78,
      "start": 59.9965,
      "duration": 1.0665,
      "velocity": 123,
      "chip": "ym2612"
    },
    {
      "channel": 1,
      "note": 56,
      "start": 60.2626,
      "duration": 0.5333,
      "velocity": 101,
      "chip": "ym2612"
    },
    {
      "channel": 0,
      "note": 83,
      "start": 60.7958,
      "duration": 0.5331,
      "velocity": 123,
      "chip": "ym2612"
    },
    {
      "channel": 1,
      "note": 57,
      "start": 60.7961,
      "duration": 0.5331,
      "velocity": 101,
      "chip": "ym2612"
    },
    {
      "channel": 2,
      "note": 80,
      "start": 60.7964,
      "duration": 0.5331,
      "velocity": 123,
      "chip": "ym2612"
    },
    {
      "channel": 5,
      "note": 71,
      "start": 60.797,
      "duration": 0.5331,
      "velocity": 123,
      "chip": "ym2612"
    },
    {
      "channel": 3,
      "note": 83,
      "start": 61.0629,
      "duration": 0.5331,
      "velocity": 123,
      "chip": "ym2612"
    },
    {
      "channel": 4,
      "note": 80,
      "start": 61.0633,
      "duration": 0.5331,
      "velocity": 123,
      "chip": "ym2612"
    },
    {
      "channel": 0,
      "note": 85,
      "start": 61.3292,
      "duration": 0.5331,
      "velocity": 123,
      "chip": "ym2612"
    },
    {
      "channel": 1,
      "note": 61,
      "start": 61.3294,
      "duration": 0.5332,
      "velocity": 101,
      "chip": "ym2612"
    },
    {
      "channel": 2,
      "note": 81,
      "start": 61.3297,
      "duration": 0.5332,
      "velocity": 123,
      "chip": "ym2612"
    },
    {
      "channel": 5,
      "note": 73,
      "start": 61.3303,
      "duration": 0.5331,
      "velocity": 123,
      "chip": "ym2612"
    },
    {
      "channel": 3,
      "note": 85,
      "start": 61.5963,
      "duration": 0.5331,
      "velocity": 123,
      "chip": "ym2612"
    },
    {
      "channel": 4,
      "note": 81,
      "start": 61.5965,
      "duration": 0.5332,
      "velocity": 123,
      "chip": "ym2612"
    },
    {
      "channel": 0,
      "note": 81,
      "start": 61.8625,
      "duration": 1.0664,
      "velocity": 123,
      "chip": "ym2612"
    },
    {
      "channel": 1,
      "note": 62,
      "start": 61.8628,
      "duration": 0.5332,
      "velocity": 101,
      "chip": "ym2612"
    },
    {
      "channel": 2,
      "note": 78,
      "start": 61.8631,
      "duration": 1.0663,
      "velocity": 123,
      "chip": "ym2612"
    },
    {
      "channel": 5,
      "note": 69,
      "start": 61.8637,
      "duration": 1.0663,
      "velocity": 123,
      "chip": "ym2612"
    },
    {
      "channel": 3,
      "note": 81,
      "start": 62.1296,
      "duration": 1.0664,
      "velocity": 123,
      "chip": "ym2612"
    },
    {
      "channel": 4,
      "note": 78,
      "start": 62.1299,
      "duration": 1.0664,
      "velocity": 123,
      "chip": "ym2612"
    },
    {
      "channel": 1,
      "note": 61,
      "start": 62.396,
      "duration": 1.0665,
      "velocity": 101,
      "chip": "ym2612"
    },
    {
      "channel": 0,
      "note": 80,
      "start": 62.9292,
      "duration": 1.0664,
      "velocity": 123,
      "chip": "ym2612"
    },
    {
      "channel": 2,
      "note": 76,
      "start": 62.9296,
      "duration": 1.0664,
      "velocity": 123,
      "chip": "ym2612"
    },
    {
      "channel": 5,
      "note": 68,
      "start": 62.9302,
      "duration": 1.0664,
      "velocity": 123,
      "chip": "ym2612"
    },
    {
      "channel": 3,
      "note": 80,
      "start": 63.1963,
      "duration": 1.0664,
      "velocity": 123,
      "chip": "ym2612"
    },
    {
      "channel": 4,
      "note": 76,
      "start": 63.1966,
      "duration": 1.0664,
      "velocity": 123,
      "chip": "ym2612"
    },
    {
      "channel": 1,
      "note": 56,
      "start": 63.4626,
      "duration": 1.2498,
      "velocity": 101,
      "chip": "ym2612"
    },
    {
      "channel": 0,
      "note": 78,
      "start": 63.9958,
      "duration": 1.0664,
      "velocity": 123,
      "chip": "ym2612"
    },
    {
      "channel": 2,
      "note": 73,
      "start": 63.9963,
      "duration": 1.0664,
      "velocity": 123,
      "chip": "ym2612"
    },
    {
      "channel": 5,
      "note": 66,
      "start": 63.9968,
      "duration": 1.0665,
      "velocity": 123,
      "chip": "ym2612"
    },
    {
      "channel": 3,
      "note": 78,
      "start": 64.2629,
      "duration": 1.0664,
      "velocity": 123,
      "chip": "ym2612"
    },
    {
      "channel": 4,
      "note": 73,
      "start": 64.2633,
      "duration": 1.0664,
      "velocity": 123,
      "chip": "ym2612"
    },
    {
      "channel": 1,
      "note": 54,
      "start": 64.7127,
      "duration": 1.0664,
      "velocity": 101,
      "chip": "ym2612"
    },
    {
      "channel": 0,
      "note": 76,
      "start": 65.0625,
      "duration": 1.0664,
      "velocity": 123,
      "chip": "ym2612"
    },
    {
      "channel": 2,
      "note": 71,
      "start": 65.0629,
      "duration": 1.0664,
      "velocity": 123,
      "chip": "ym2612"
    },
    {
      "channel": 5,
      "note": 64,
      "start": 65.0635,
      "duration": 1.0665,
      "velocity": 123,
      "chip": "ym2612"
    },
    {
      "channel": 3,
      "note": 76,
      "start": 65.3296,
      "duration": 1.0664,
      "velocity": 123,
      "chip": "ym2612"
    },
    {
      "channel": 4,
      "note": 71,
      "start": 65.3299,
      "duration": 1.0664,
      "velocity": 123,
      "chip": "ym2612"
    },
    {
      "channel": 1,
      "note": 52,
      "start": 65.7793,
      "duration": 1.0665,
      "velocity": 101,
      "chip": "ym2612"
    },
    {
      "channel": 0,
      "note": 71,
      "start": 66.1292,
      "duration": 1.0664,
      "velocity": 123,
      "chip": "ym2612"
    },
    {
      "channel": 2,
      "note": 66,
      "start": 66.1296,
      "duration": 1.0664,
      "velocity": 123,
      "chip": "ym2612"
    },
    {
      "channel": 5,
      "note": 59,
      "start": 66.1302,
      "duration": 1.0665,
      "velocity": 123,
      "chip": "ym2612"
    },
    {
      "channel": 3,
      "note": 71,
      "start": 66.3963,
      "duration": 1.0664,
      "velocity": 123,
      "chip": "ym2612"
    },
    {
      "channel": 4,
      "note": 66,
      "start": 66.3966,
      "duration": 1.0664,
      "velocity": 123,
      "chip": "ym2612"
    },
    {
      "channel": 1,
      "note": 51,
      "start": 66.846,
      "duration": 1.0665,
      "velocity": 101,
      "chip": "ym2612"
    },
    {
      "channel": 0,
      "note": 73,
      "start": 67.1958,
      "duration": 1.0664,
      "velocity": 123,
      "chip": "ym2612"
    },
    {
      "channel": 2,
      "note": 69,
      "start": 67.1963,
      "duration": 1.0664,
      "velocity": 123,
      "chip": "ym2612"
    },
    {
      "channel": 5,
      "note": 61,
      "start": 67.1969,
      "duration": 1.0664,
      "velocity": 123,
      "chip": "ym2612"
    },
    {
      "channel": 3,
      "note": 73,
      "start": 67.4629,
      "duration": 1.0664,
      "velocity": 123,
      "chip": "ym2612"
    },
    {
      "channel": 4,
      "note": 69,
      "start": 67.4633,
      "duration": 1.0664,
      "velocity": 123,
      "chip": "ym2612"
    },
    {
      "channel": 1,
      "note": 50,
      "start": 67.9127,
      "duration": 2.4833,
      "velocity": 101,
      "chip": "ym2612"
    },
    {
      "channel": 0,
      "note": 75,
      "start": 68.2625,
      "duration": 3.1998,
      "velocity": 123,
      "chip": "ym2612"
    },
    {
      "channel": 2,
      "note": 71,
      "start": 68.2629,
      "duration": 3.1997,
      "velocity": 123,
      "chip": "ym2612"
    },
    {
      "channel": 5,
      "note": 63,
      "start": 68.2636,
      "duration": 3.1995,
      "velocity": 123,
      "chip": "ym2612"
    },
    {
      "channel": 3,
      "note": 75,
      "start": 68.5296,
      "duration": 3.1994,
      "velocity": 123,
      "chip": "ym2612"
    },
    {
      "channel": 4,
      "note": 71,
      "start": 68.5299,
      "duration": 3.1993,
      "velocity": 123,
      "chip": "ym2612"
    },
    {
      "channel": 1,
      "note": 50,
      "start": 70.396,
      "duration": 1.0665,
      "velocity": 101,
      "chip": "ym2612"
    },
    {
      "channel": 0,
      "note": 96,
      "start": 72.5306,
      "duration": 0.0031,
      "velocity": 97,
      "chip": "ym2612"
    },
    {
      "channel": 2,
      "note": 74,
      "start": 72.5336,
      "duration": 0.0001,
      "velocity": 88,
      "chip": "ym2612"
    }
  ]
}