{
  "track_name": "11 - The Neighborhood",
  "duration_sec": 52.303,
  "sample_rate": 44100,
  "note_count": 772,
  "unique_pitches": 25,
  "pitch_range": 45,
  "avg_note_duration": 0.1731,
  "reconstruction_stats": {
    "notes_reconstructed": 772,
    "keyon_events": 772,
    "keyoff_events": 772,
    "orphan_keyons": 0,
    "unique_pitches": 25,
    "pitch_range": 45,
    "avg_duration_sec": 0.1731
  },
  "metadata": {
    "source": "R\\Ren & Stimpy - Stimpy's Invention\\11 - The Neighborhood.vgz"
  },
  "notes": [
    {
      "channel": 3,
      "note": 76,
      "start": 0.0036,
      "duration": 0.1105,
      "velocity": 92,
      "chip": "ym2612"
    },
    {
      "channel": 0,
      "note": 73,
      "start": 0.0087,
      "duration": 0.1052,
      "velocity": 92,
      "chip": "ym2612"
    },
    {
      "channel": 1,
      "note": 69,
      "start": 0.0139,
      "duration": 0.1001,
      "velocity": 92,
      "chip": "ym2612"
    },
    {
      "channel": 4,
      "note": 57,
      "start": 0.0198,
      "duration": 0.0945,
      "velocity": 92,
      "chip": "ym2612"
    },
    {
      "channel": 3,
      "note": 76,
      "start": 0.2167,
      "duration": 0.1141,
      "velocity": 92,
      "chip": "ym2612"
    },
    {
      "channel": 0,
      "note": 73,
      "start": 0.2191,
      "duration": 0.1115,
      "velocity": 92,
      "chip": "ym2612"
    },
    {
      "channel": 1,
      "note": 69,
      "start": 0.2215,
      "duration": 0.1092,
      "velocity": 92,
      "chip": "ym2612"
    },
    {
      "channel": 3,
      "note": 76,
      "start": 0.4335,
      "duration": 0.1139,
      "velocity": 92,
      "chip": "ym2612"
    },
    {
      "channel": 0,
      "note": 73,
      "start": 0.4359,
      "duration": 0.1113,
      "velocity": 92,
      "chip": "ym2612"
    },
    {
      "channel": 1,
      "note": 69,
      "start": 0.4383,
      "duration": 0.109,
      "velocity": 92,
      "chip": "ym2612"
    },
    {
      "channel": 3,
      "note": 76,
      "start": 0.6505,
      "duration": 0.1137,
      "velocity": 92,
      "chip": "ym2612"
    },
    {
      "channel": 0,
      "note": 73,
      "start": 0.6529,
      "duration": 0.1111,
      "velocity": 92,
      "chip": "ym2612"
    },
    {
      "channel": 1,
      "note": 69,
      "start": 0.6553,
      "duration": 0.1088,
      "velocity": 92,
      "chip": "ym2612"
    },
    {
      "channel": 3,
      "note": 76,
      "start": 0.8834,
      "duration": 0.0975,
      "velocity": 92,
      "chip": "ym2612"
    },
    {
      "channel": 0,
      "note": 73,
      "start": 0.8858,
      "duration": 0.0948,
      "velocity": 92,
      "chip": "ym2612"
    },
    {
      "channel": 1,
      "note": 69,
      "start": 0.8882,
      "duration": 0.0925,
      "velocity": 92,
      "chip": "ym2612"
    },
    {
      "channel": 3,
      "note": 76,
      "start": 1.1001,
      "duration": 0.0974,
      "velocity": 92,
      "chip": "ym2612"
    },
    {
      "channel": 0,
      "note": 73,
      "start": 1.1028,
      "duration": 0.0944,
      "velocity": 92,
      "chip": "ym2612"
    },
    {
      "channel": 1,
      "note": 69,
      "start": 1.1056,
      "duration": 0.0917,
      "velocity": 92,
      "chip": "ym2612"
    },
    {
      "channel": 3,
      "note": 76,
      "start": 1.3167,
      "duration": 0.0975,
      "velocity": 92,
      "chip": "ym2612"
    },
    {
      "channel": 0,
      "note": 73,
      "start": 1.3191,
      "duration": 0.0948,
      "velocity": 92,
      "chip": "ym2612"
    },
    {
      "channel": 1,
      "note": 69,
      "start": 1.3215,
      "duration": 0.0926,
      "velocity": 92,
      "chip": "ym2612"
    },
    {
      "channel": 3,
      "note": 76,
      "start": 1.5334,
      "duration": 0.0974,
      "velocity": 92,
      "chip": "ym2612"
    },
    {
      "channel": 0,
      "note": 73,
      "start": 1.5358,
      "duration": 0.0947,
      "velocity": 92,
      "chip": "ym2612"
    },
    {
      "channel": 1,
      "note": 69,
      "start": 1.5382,
      "duration": 0.0924,
      "velocity": 92,
      "chip": "ym2612"
    },
    {
      "channel": 4,
      "note": 52,
      "start": 1.5408,
      "duration": 0.0901,
      "velocity": 92,
      "chip": "ym2612"
    },
    {
      "channel": 3,
      "note": 76,
      "start": 1.7501,
      "duration": 0.0974,
      "velocity": 92,
      "chip": "ym2612"
    },
    {
      "channel": 0,
      "note": 73,
      "start": 1.7525,
      "duration": 0.0947,
      "velocity": 92,
      "chip": "ym2612"
    },
    {
      "channel": 1,
      "note": 69,
      "start": 1.7549,
      "duration": 0.0924,
      "velocity": 92,
      "chip": "ym2612"
    },
    {
      "channel": 4,
      "note": 57,
      "start": 1.758,
      "duration": 0.0896,
      "velocity": 92,
      "chip": "ym2612"
    },
    {
      "channel": 3,
      "note": 76,
      "start": 1.9668,
      "duration": 0.0974,
      "velocity": 92,
      "chip": "ym2612"
    },
    {
      "channel": 0,
      "note": 73,
      "start": 1.9691,
      "duration": 0.0948,
      "velocity": 92,
      "chip": "ym2612"
    },
    {
      "channel": 1,
      "note": 69,
      "start": 1.9716,
      "duration": 0.0925,
      "velocity": 92,
      "chip": "ym2612"
    },
    {
      "channel": 3,
      "note": 76,
      "start": 2.1834,
      "duration": 0.0975,
      "velocity": 92,
      "chip": "ym2612"
    },
    {
      "channel": 0,
      "note": 73,
      "start": 2.1858,
      "duration": 0.0948,
      "velocity": 92,
      "chip": "ym2612"
    },
    {
      "channel": 1,
      "note": 69,
      "start": 2.1882,
      "duration": 0.0926,
      "velocity": 92,
      "chip": "ym2612"
    },
    {
      "channel": 3,
      "note": 76,
      "start": 2.4001,
      "duration": 0.1141,
      "velocity": 92,
      "chip": "ym2612"
    },
    {
      "channel": 0,
      "note": 73,
      "start": 2.4024,
      "duration": 0.1115,
      "velocity": 92,
      "chip": "ym2612"
    },
    {
      "channel": 1,
      "note": 69,
      "start": 2.4048,
      "duration": 0.1092,
      "velocity": 92,
      "chip": "ym2612"
    },
    {
      "channel": 3,
      "note": 76,
      "start": 2.6167,
      "duration": 0.1141,
      "velocity": 92,
      "chip": "ym2612"
    },
    {
      "channel": 0,
      "note": 73,
      "start": 2.6191,
      "duration": 0.1115,
      "velocity": 92,
      "chip": "ym2612"
    },
    {
      "channel": 1,
      "note": 69,
      "start": 2.6215,
      "duration": 0.1092,
      "velocity": 92,
      "chip": "ym2612"
    },
    {
      "channel": 3,
      "note": 76,
      "start": 2.8333,
      "duration": 0.1141,
      "velocity": 92,
      "chip": "ym2612"
    },
    {
      "channel": 0,
      "note": 73,
      "start": 2.8358,
      "duration": 0.1115,
      "velocity": 92,
      "chip": "ym2612"
    },
    {
      "channel": 1,
      "note": 69,
      "start": 2.8382,
      "duration": 0.1092,
      "velocity": 92,
      "chip": "ym2612"
    },
    {
      "channel": 2,
      "note": 90,
      "start": 2.8419,
      "duration": 0.1058,
      "velocity": 109,
      "chip": "ym2612"
    },
    {
      "channel": 3,
      "note": 76,
      "start": 3.0501,
      "duration": 0.1141,
      "velocity": 92,
      "chip": "ym2612"
    },
    {
      "channel": 0,
      "note": 73,
      "start": 3.0525,
      "duration": 0.1114,
      "velocity": 92,
      "chip": "ym2612"
    },
    {
      "channel": 1,
      "note": 69,
      "start": 3.0549,
      "duration": 0.1091,
      "velocity": 92,
      "chip": "ym2612"
    },
    {
      "channel": 2,
      "note": 88,
      "start": 3.0578,
      "duration": 0.1066,
      "velocity": 109,
      "chip": "ym2612"
    },
    {
      "channel": 3,
      "note": 76,
      "start": 3.2667,
      "duration": 0.1141,
      "velocity": 92,
      "chip": "ym2612"
    },
    {
      "channel": 0,
      "note": 73,
      "start": 3.2691,
      "duration": 0.1115,
      "velocity": 92,
      "chip": "ym2612"
    },
    {
      "channel": 1,
      "note": 69,
      "start": 3.2715,
      "duration": 0.1092,
      "velocity": 92,
      "chip": "ym2612"
    },
    {
      "channel": 4,
      "note": 52,
      "start": 3.2742,
      "duration": 0.1069,
      "velocity": 92,
      "chip": "ym2612"
    },
    {
      "channel": 2,
      "note": 90,
      "start": 3.2773,
      "duration": 0.1039,
      "velocity": 109,
      "chip": "ym2612"
    },
    {
      "channel": 3,
      "note": 76,
      "start": 3.4834,
      "duration": 0.1141,
      "velocity": 92,
      "chip": "ym2612"
    },
    {
      "channel": 0,
      "note": 73,
      "start": 3.4858,
      "duration": 0.1115,
      "velocity": 92,
      "chip": "ym2612"
    },
    {
      "channel": 1,
      "note": 69,
      "start": 3.4882,
      "duration": 0.1092,
      "velocity": 92,
      "chip": "ym2612"
    },
    {
      "channel": 4,
      "note": 57,
      "start": 3.491,
      "duration": 0.1067,
      "velocity": 92,
      "chip": "ym2612"
    },
    {
      "channel": 2,
      "note": 69,
      "start": 3.494,
      "duration": 0.4367,
      "velocity": 109,
      "chip": "ym2612"
    },
    {
      "channel": 3,
      "note": 76,
      "start": 3.7001,
      "duration": 0.1141,
      "velocity": 92,
      "chip": "ym2612"
    },
    {
      "channel": 0,
      "note": 73,
      "start": 3.7024,
      "duration": 0.1115,
      "velocity": 92,
      "chip": "ym2612"
    },
    {
      "channel": 1,
      "note": 69,
      "start": 3.7048,
      "duration": 0.1092,
      "velocity": 92,
      "chip": "ym2612"
    },
    {
      "channel": 3,
      "note": 76,
      "start": 3.9335,
      "duration": 0.0973,
      "velocity": 92,
      "chip": "ym2612"
    },
    {
      "channel": 0,
      "note": 73,
      "start": 3.9358,
      "duration": 0.0947,
      "velocity": 92,
      "chip": "ym2612"
    },
    {
      "channel": 1,
      "note": 69,
      "start": 3.9382,
      "duration": 0.0924,
      "velocity": 92,
      "chip": "ym2612"
    },
    {
      "channel": 2,
      "note": 71,
      "start": 3.9414,
      "duration": 0.206,
      "velocity": 109,
      "chip": "ym2612"
    },
    {
      "channel": 3,
      "note": 76,
      "start": 4.1505,
      "duration": 0.097,
      "velocity": 92,
      "chip": "ym2612"
    },
    {
      "channel": 0,
      "note": 73,
      "start": 4.1529,
      "duration": 0.0943,
      "velocity": 92,
      "chip": "ym2612"
    },
    {
      "channel": 1,
      "note": 69,
      "start": 4.1554,
      "duration": 0.092,
      "velocity": 92,
      "chip": "ym2612"
    },
    {
      "channel": 2,
      "note": 73,
      "start": 4.1585,
      "duration": 0.4223,
      "velocity": 109,
      "chip": "ym2612"
    },
    {
      "channel": 3,
      "note": 76,
      "start": 4.3668,
      "duration": 0.0973,
      "velocity": 92,
      "chip": "ym2612"
    },
    {
      "channel": 0,
      "note": 73,
      "start": 4.3692,
      "duration": 0.0947,
      "velocity": 92,
      "chip": "ym2612"
    },
    {
      "channel": 1,
      "note": 69,
      "start": 4.3716,
      "duration": 0.0924,
      "velocity": 92,
      "chip": "ym2612"
    },
    {
      "channel": 3,
      "note": 76,
      "start": 4.5835,
      "duration": 0.0973,
      "velocity": 92,
      "chip": "ym2612"
    },
    {
      "channel": 0,
      "note": 73,
      "start": 4.5863,
      "duration": 0.0942,
      "velocity": 92,
      "chip": "ym2612"
    },
    {
      "channel": 1,
      "note": 69,
      "start": 4.589,
      "duration": 0.0915,
      "velocity": 92,
      "chip": "ym2612"
    },
    {
      "channel": 2,
      "note": 90,
      "start": 4.5922,
      "duration": 0.0888,
      "velocity": 109,
      "chip": "ym2612"
    },
    {
      "channel": 3,
      "note": 76,
      "start": 4.8001,
      "duration": 0.0974,
      "velocity": 92,
      "chip": "ym2612"
    },
    {
      "channel": 0,
      "note": 73,
      "start": 4.8024,
      "duration": 0.0948,
      "velocity": 92,
      "chip": "ym2612"
    },
    {
      "channel": 1,
      "note": 69,
      "start": 4.8048,
      "duration": 0.0925,
      "velocity": 92,
      "chip": "ym2612"
    },
    {
      "channel": 2,
      "note": 88,
      "start": 4.8078,
      "duration": 0.09,
      "velocity": 109,
      "chip": "ym2612"
    },
    {
      "channel": 3,
      "note": 76,
      "start": 5.0167,
      "duration": 0.0974,
      "velocity": 92,
      "chip": "ym2612"
    },
    {
      "channel": 0,
      "note": 73,
      "start": 5.0191,
      "duration": 0.0947,
      "velocity": 92,
      "chip": "ym2612"
    },
    {
      "channel": 1,
      "note": 69,
      "start": 5.0216,
      "duration": 0.0924,
      "velocity": 92,
      "chip": "ym2612"
    },
    {
      "channel": 4,
      "note": 52,
      "start": 5.0242,
      "duration": 0.0901,
      "velocity": 92,
      "chip": "ym2612"
    },
    {
      "channel": 2,
      "note": 90,
      "start": 5.027,
      "duration": 0.0875,
      "velocity": 109,
      "chip": "ym2612"
    },
    {
      "channel": 3,
      "note": 76,
      "start": 5.2334,
      "duration": 0.0975,
      "velocity": 92,
      "chip": "ym2612"
    },
    {
      "channel": 0,
      "note": 73,
      "start": 5.2358,
      "duration": 0.0948,
      "velocity": 92,
      "chip": "ym2612"
    },
    {
      "channel": 1,
      "note": 69,
      "start": 5.2382,
      "duration": 0.0926,
      "velocity": 92,
      "chip": "ym2612"
    },
    {
      "channel": 4,
      "note": 57,
      "start": 5.241,
      "duration": 0.09,
      "velocity": 92,
      "chip": "ym2612"
    },
    {
      "channel": 2,
      "note": 69,
      "start": 5.2444,
      "duration": 0.4197,
      "velocity": 109,
      "chip": "ym2612"
    },
    {
      "channel": 3,
      "note": 76,
      "start": 5.4501,
      "duration": 0.1141,
      "velocity": 92,
      "chip": "ym2612"
    },
    {
      "channel": 0,
      "note": 73,
      "start": 5.4525,
      "duration": 0.1113,
      "velocity": 92,
      "chip": "ym2612"
    },
    {
      "channel": 1,
      "note": 69,
      "start": 5.455,
      "duration": 0.1091,
      "velocity": 92,
      "chip": "ym2612"
    },
    {
      "channel": 3,
      "note": 76,
      "start": 5.6668,
      "duration": 0.114,
      "velocity": 92,
      "chip": "ym2612"
    },
    {
      "channel": 0,
      "note": 73,
      "start": 5.6693,
      "duration": 0.1113,
      "velocity": 92,
      "chip": "ym2612"
    },
    {
      "channel": 1,
      "note": 69,
      "start": 5.6717,
      "duration": 0.109,
      "velocity": 92,
      "chip": "ym2612"
    },
    {
      "channel": 2,
      "note": 71,
      "start": 5.6749,
      "duration": 0.206,
      "velocity": 109,
      "chip": "ym2612"
    },
    {
      "channel": 3,
      "note": 76,
      "start": 5.8836,
      "duration": 0.1139,
      "velocity": 92,
      "chip": "ym2612"
    },
    {
      "channel": 0,
      "note": 73,
      "start": 5.8859,
      "duration": 0.1112,
      "velocity": 92,
      "chip": "ym2612"
    },
    {
      "channel": 1,
      "note": 69,
      "start": 5.8884,
      "duration": 0.1089,
      "velocity": 92,
      "chip": "ym2612"
    },
    {
      "channel": 2,
      "note": 73,
      "start": 5.8915,
      "duration": 0.4226,
      "velocity": 109,
      "chip": "ym2612"
    },
    {
      "channel": 3,
      "note": 76,
      "start": 6.1002,
      "duration": 0.1139,
      "velocity": 92,
      "chip": "ym2612"
    },
    {
      "channel": 0,
      "note": 73,
      "start": 6.1025,
      "duration": 0.1113,
      "velocity": 92,
      "chip": "ym2612"
    },
    {
      "channel": 1,
      "note": 69,
      "start": 6.105,
      "duration": 0.109,
      "velocity": 92,
      "chip": "ym2612"
    },
    {
      "channel": 3,
      "note": 76,
      "start": 6.3168,
      "duration": 0.1139,
      "velocity": 92,
      "chip": "ym2612"
    },
    {
      "channel": 0,
      "note": 73,
      "start": 6.3192,
      "duration": 0.1113,
      "velocity": 92,
      "chip": "ym2612"
    },
    {
      "channel": 1,
      "note": 69,
      "start": 6.3216,
      "duration": 0.109,
      "velocity": 92,
      "chip": "ym2612"
    },
    {
      "channel": 2,
      "note": 90,
      "start": 6.3248,
      "duration": 0.1062,
      "velocity": 109,
      "chip": "ym2612"
    },
    {
      "channel": 3,
      "note": 76,
      "start": 6.5335,
      "duration": 0.114,
      "velocity": 92,
      "chip": "ym2612"
    },
    {
      "channel": 0,
      "note": 73,
      "start": 6.5358,
      "duration": 0.1113,
      "velocity": 92,
      "chip": "ym2612"
    },
    {
      "channel": 1,
      "note": 69,
      "start": 6.5382,
      "duration": 0.109,
      "velocity": 92,
      "chip": "ym2612"
    },
    {
      "channel": 2,
      "note": 88,
      "start": 6.5412,
      "duration": 0.1065,
      "velocity": 109,
      "chip": "ym2612"
    },
    {
      "channel": 3,
      "note": 76,
      "start": 6.7501,
      "duration": 0.1141,
      "velocity": 92,
      "chip": "ym2612"
    },
    {
      "channel": 0,
      "note": 73,
      "start": 6.7525,
      "duration": 0.1114,
      "velocity": 92,
      "chip": "ym2612"
    },
    {
      "channel": 1,
      "note": 69,
      "start": 6.755,
      "duration": 0.1091,
      "velocity": 92,
      "chip": "ym2612"
    },
    {
      "channel": 4,
      "note": 52,
      "start": 6.7576,
      "duration": 0.1068,
      "velocity": 92,
      "chip": "ym2612"
    },
    {
      "channel": 2,
      "note": 90,
      "start": 6.7606,
      "duration": 0.1039,
      "velocity": 109,
      "chip": "ym2612"
    },
    {
      "channel": 3,
      "note": 78,
      "start": 6.9833,
      "duration": 0.0975,
      "velocity": 92,
      "chip": "ym2612"
    },
    {
      "channel": 0,
      "note": 74,
      "start": 6.9858,
      "duration": 0.0948,
      "velocity": 92,
      "chip": "ym2612"
    },
    {
      "channel": 1,
      "note": 69,
      "start": 6.9882,
      "duration": 0.0925,
      "velocity": 92,
      "chip": "ym2612"
    },
    {
      "channel": 4,
      "note": 45,
      "start": 6.9913,
      "duration": 0.0897,
      "velocity": 92,
      "chip": "ym2612"
    },
    {
      "channel": 5,
      "note": 62,
      "start": 6.9954,
      "duration": 0.0858,
      "velocity": 79,
      "chip": "ym2612"
    },
    {
      "channel": 3,
      "note": 78,
      "start": 7.2001,
      "duration": 0.0973,
      "velocity": 92,
      "chip": "ym2612"
    },
    {
      "channel": 0,
      "note": 74,
      "start": 7.2025,
      "duration": 0.0946,
      "velocity": 92,
      "chip": "ym2612"
    },
    {
      "channel": 1,
      "note": 69,
      "start": 7.205,
      "duration": 0.0923,
      "velocity": 92,
      "chip": "ym2612"
    },
    {
      "channel": 5,
      "note": 62,
      "start": 7.2081,
      "duration": 0.0895,
      "velocity": 79,
      "chip": "ym2612"
    },
    {
      "channel": 3,
      "note": 78,
      "start": 7.4168,
      "duration": 0.0973,
      "velocity": 92,
      "chip": "ym2612"
    },
    {
      "channel": 0,
      "note": 74,
      "start": 7.4192,
      "duration": 0.0947,
      "velocity": 92,
      "chip": "ym2612"
    },
    {
      "channel": 1,
      "note": 69,
      "start": 7.4216,
      "duration": 0.0924,
      "velocity": 92,
      "chip": "ym2612"
    },
    {
      "channel": 5,
      "note": 66,
      "start": 7.4251,
      "duration": 0.0893,
      "velocity": 79,
      "chip": "ym2612"
    },
    {
      "channel": 3,
      "note": 78,
      "start": 7.6338,
      "duration": 0.097,
      "velocity": 92,
      "chip": "ym2612"
    },
    {
      "channel": 0,
      "note": 74,
      "start": 7.6362,
      "duration": 0.0944,
      "velocity": 92,
      "chip": "ym2612"
    },
    {
      "channel": 1,
      "note": 69,
      "start": 7.6386,
      "duration": 0.092,
      "velocity": 92,
      "chip": "ym2612"
    },
    {
      "channel": 5,
      "note": 62,
      "start": 7.6418,
      "duration": 0.0892,
      "velocity": 79,
      "chip": "ym2612"
    },
    {
      "channel": 3,
      "note": 78,
      "start": 7.8501,
      "duration": 0.0973,
      "velocity": 92,
      "chip": "ym2612"
    },
    {
      "channel": 0,
      "note": 74,
      "start": 7.8525,
      "duration": 0.0946,
      "velocity": 92,
      "chip": "ym2612"
    },
    {
      "channel": 1,
      "note": 69,
      "start": 7.855,
      "duration": 0.0923,
      "velocity": 92,
      "chip": "ym2612"
    },
    {
      "channel": 5,
      "note": 71,
      "start": 7.8581,
      "duration": 0.0896,
      "velocity": 79,
      "chip": "ym2612"
    },
    {
      "channel": 3,
      "note": 78,
      "start": 8.0668,
      "duration": 0.0974,
      "velocity": 92,
      "chip": "ym2612"
    },
    {
      "channel": 0,
      "note": 74,
      "start": 8.0695,
      "duration": 0.0944,
      "velocity": 92,
      "chip": "ym2612"
    },
    {
      "channel": 1,
      "note": 69,
      "start": 8.0723,
      "duration": 0.0917,
      "velocity": 92,
      "chip": "ym2612"
    },
    {
      "channel": 5,
      "note": 68,
      "start": 8.0755,
      "duration": 0.0889,
      "velocity": 79,
      "chip": "ym2612"
    },
    {
      "channel": 3,
      "note": 78,
      "start": 8.2834,
      "duration": 0.1141,
      "velocity": 92,
      "chip": "ym2612"
    },
    {
      "channel": 0,
      "note": 74,
      "start": 8.2858,
      "duration": 0.1115,
      "velocity": 92,
      "chip": "ym2612"
    },
    {
      "channel": 1,
      "note": 69,
      "start": 8.2882,
      "duration": 0.1092,
      "velocity": 92,
      "chip": "ym2612"
    },
    {
      "channel": 5,
      "note": 69,
      "start": 8.2915,
      "duration": 0.1062,
      "velocity": 79,
      "chip": "ym2612"
    },
    {
      "channel": 3,
      "note": 78,
      "start": 8.5001,
      "duration": 0.1141,
      "velocity": 92,
      "chip": "ym2612"
    },
    {
      "channel": 0,
      "note": 74,
      "start": 8.5025,
      "duration": 0.1113,
      "velocity": 92,
      "chip": "ym2612"
    },
    {
      "channel": 1,
      "note": 69,
      "start": 8.505,
      "duration": 0.1091,
      "velocity": 92,
      "chip": "ym2612"
    },
    {
      "channel": 4,
      "note": 50,
      "start": 8.5076,
      "duration": 0.1067,
      "velocity": 92,
      "chip": "ym2612"
    },
    {
      "channel": 3,
      "note": 78,
      "start": 8.7167,
      "duration": 0.1141,
      "velocity": 92,
      "chip": "ym2612"
    },
    {
      "channel": 0,
      "note": 74,
      "start": 8.7191,
      "duration": 0.1115,
      "velocity": 92,
      "chip": "ym2612"
    },
    {
      "channel": 1,
      "note": 69,
      "start": 8.7215,
      "duration": 0.1092,
      "velocity": 92,
      "chip": "ym2612"
    },
    {
      "channel": 4,
      "note": 45,
      "start": 8.7243,
      "duration": 0.1067,
      "velocity": 92,
      "chip": "ym2612"
    },
    {
      "channel": 5,
      "note": 62,
      "start": 8.7275,
      "duration": 0.1037,
      "velocity": 79,
      "chip": "ym2612"
    },
    {
      "channel": 3,
      "note": 78,
      "start": 8.9335,
      "duration": 0.114,
      "velocity": 92,
      "chip": "ym2612"
    },
    {
      "channel": 0,
      "note": 74,
      "start": 8.9359,
      "duration": 0.1113,
      "velocity": 92,
      "chip": "ym2612"
    },
    {
      "channel": 1,
      "note": 69,
      "start": 8.9383,
      "duration": 0.109,
      "velocity": 92,
      "chip": "ym2612"
    },
    {
      "channel": 5,
      "note": 62,
      "start": 8.9415,
      "duration": 0.1062,
      "velocity": 79,
      "chip": "ym2612"
    },
    {
      "channel": 3,
      "note": 78,
      "start": 9.1501,
      "duration": 0.114,
      "velocity": 92,
      "chip": "ym2612"
    },
    {
      "channel": 0,
      "note": 74,
      "start": 9.1525,
      "duration": 0.1113,
      "velocity": 92,
      "chip": "ym2612"
    },
    {
      "channel": 1,
      "note": 69,
      "start": 9.155,
      "duration": 0.109,
      "velocity": 92,
      "chip": "ym2612"
    },
    {
      "channel": 5,
      "note": 66,
      "start": 9.1581,
      "duration": 0.1062,
      "velocity": 79,
      "chip": "ym2612"
    },
    {
      "channel": 3,
      "note": 78,
      "start": 9.3668,
      "duration": 0.1141,
      "velocity": 92,
      "chip": "ym2612"
    },
    {
      "channel": 0,
      "note": 74,
      "start": 9.3691,
      "duration": 0.1115,
      "velocity": 92,
      "chip": "ym2612"
    },
    {
      "channel": 1,
      "note": 69,
      "start": 9.3716,
      "duration": 0.1092,
      "velocity": 92,
      "chip": "ym2612"
    },
    {
      "channel": 5,
      "note": 62,
      "start": 9.3747,
      "duration": 0.1064,
      "velocity": 79,
      "chip": "ym2612"
    },
    {
      "channel": 3,
      "note": 78,
      "start": 9.5834,
      "duration": 0.1141,
      "velocity": 92,
      "chip": "ym2612"
    },
    {
      "channel": 0,
      "note": 74,
      "start": 9.5858,
      "duration": 0.1115,
      "velocity": 92,
      "chip": "ym2612"
    },
    {
      "channel": 1,
      "note": 69,
      "start": 9.5882,
      "duration": 0.1092,
      "velocity": 92,
      "chip": "ym2612"
    },
    {
      "channel": 5,
      "note": 69,
      "start": 9.5913,
      "duration": 0.1064,
      "velocity": 79,
      "chip": "ym2612"
    },
    {
      "channel": 3,
      "note": 78,
      "start": 9.8001,
      "duration": 0.114,
      "velocity": 92,
      "chip": "ym2612"
    },
    {
      "channel": 0,
      "note": 74,
      "start": 9.8025,
      "duration": 0.1113,
      "velocity": 92,
      "chip": "ym2612"
    },
    {
      "channel": 1,
      "note": 69,
      "start": 9.805,
      "duration": 0.109,
      "velocity": 92,
      "chip": "ym2612"
    },
    {
      "channel": 2,
      "note": 90,
      "start": 9.8083,
      "duration": 0.1062,
      "velocity": 109,
      "chip": "ym2612"
    },
    {
      "channel": 5,
      "note": 62,
      "start": 9.8113,
      "duration": 0.1031,
      "velocity": 79,
      "chip": "ym2612"
    },
    {
      "channel": 3,
      "note": 78,
      "start": 10.0335,
      "duration": 0.0974,
      "velocity": 92,
      "chip": "ym2612"
    },
    {
      "channel": 0,
      "note": 74,
      "start": 10.0359,
      "duration": 0.0947,
      "velocity": 92,
      "chip": "ym2612"
    },
    {
      "channel": 1,
      "note": 69,
      "start": 10.0383,
      "duration": 0.0924,
      "velocity": 92,
      "chip": "ym2612"
    },
    {
      "channel": 2,
      "note": 88,
      "start": 10.0412,
      "duration": 0.09,
      "velocity": 109,
      "chip": "ym2612"
    },
    {
      "channel": 5,
      "note": 69,
      "start": 10.0444,
      "duration": 0.0866,
      "velocity": 79,
      "chip": "ym2612"
    },
    {
      "channel": 3,
      "note": 78,
      "start": 10.2501,
      "duration": 0.0973,
      "velocity": 92,
      "chip": "ym2612"
    },
    {
      "channel": 0,
      "note": 74,
      "start": 10.2525,
      "duration": 0.0947,
      "velocity": 92,
      "chip": "ym2612"
    },
    {
      "channel": 1,
      "note": 69,
      "start": 10.255,
      "duration": 0.0924,
      "velocity": 92,
      "chip": "ym2612"
    },
    {
      "channel": 2,
      "note": 90,
      "start": 10.2578,
      "duration": 0.0899,
      "velocity": 109,
      "chip": "ym2612"
    },
    {
      "channel": 3,
      "note": 76,
      "start": 10.4668,
      "duration": 0.0974,
      "velocity": 92,
      "chip": "ym2612"
    },
    {
      "channel": 0,
      "note": 73,
      "start": 10.4692,
      "duration": 0.0947,
      "velocity": 92,
      "chip": "ym2612"
    },
    {
      "channel": 1,
      "note": 69,
      "start": 10.4716,
      "duration": 0.0924,
      "velocity": 92,
      "chip": "ym2612"
    },
    {
      "channel": 4,
      "note": 57,
      "start": 10.4744,
      "duration": 0.09,
      "velocity": 92,
      "chip": "ym2612"
    },
    {
      "channel": 2,
      "note": 69,
      "start": 10.4774,
      "duration": 0.42,
      "velocity": 109,
      "chip": "ym2612"
    },
    {
      "channel": 3,
      "note": 76,
      "start": 10.6835,
      "duration": 0.0973,
      "velocity": 92,
      "chip": "ym2612"
    },
    {
      "channel": 0,
      "note": 73,
      "start": 10.6859,
      "duration": 0.0947,
      "velocity": 92,
      "chip": "ym2612"
    },
    {
      "channel": 1,
      "note": 69,
      "start": 10.6883,
      "duration": 0.0924,
      "velocity": 92,
      "chip": "ym2612"
    },
    {
      "channel": 3,
      "note": 76,
      "start": 10.9002,
      "duration": 0.0973,
      "velocity": 92,
      "chip": "ym2612"
    },
    {
      "channel": 0,
      "note": 73,
      "start": 10.9026,
      "duration": 0.0946,
      "velocity": 92,
      "chip": "ym2612"
    },
    {
      "channel": 1,
      "note": 69,
      "start": 10.905,
      "duration": 0.0923,
      "velocity": 92,
      "chip": "ym2612"
    },
    {
      "channel": 2,
      "note": 71,
      "start": 10.9082,
      "duration": 0.2059,
      "velocity": 109,
      "chip": "ym2612"
    },
    {
      "channel": 3,
      "note": 76,
      "start": 11.1172,
      "duration": 0.0969,
      "velocity": 92,
      "chip": "ym2612"
    },
    {
      "channel": 0,
      "note": 73,
      "start": 11.1196,
      "duration": 0.0943,
      "velocity": 92,
      "chip": "ym2612"
    },
    {
      "channel": 1,
      "note": 69,
      "start": 11.122,
      "duration": 0.092,
      "velocity": 92,
      "chip": "ym2612"
    },
    {
      "channel": 2,
      "note": 73,
      "start": 11.1252,
      "duration": 0.4223,
      "velocity": 109,
      "chip": "ym2612"
    },
    {
      "channel": 3,
      "note": 76,
      "start": 11.3335,
      "duration": 0.1141,
      "velocity": 92,
      "chip": "ym2612"
    },
    {
      "channel": 0,
      "note": 73,
      "start": 11.3359,
      "duration": 0.1113,
      "velocity": 92,
      "chip": "ym2612"
    },
    {
      "channel": 1,
      "note": 69,
      "start": 11.3383,
      "duration": 0.1091,
      "velocity": 92,
      "chip": "ym2612"
    },
    {
      "channel": 3,
      "note": 76,
      "start": 11.5502,
      "duration": 0.114,
      "velocity": 92,
      "chip": "ym2612"
    },
    {
      "channel": 0,
      "note": 73,
      "start": 11.5529,
      "duration": 0.111,
      "velocity": 92,
      "chip": "ym2612"
    },
    {
      "channel": 1,
      "note": 69,
      "start": 11.5557,
      "duration": 0.1083,
      "velocity": 92,
      "chip": "ym2612"
    },
    {
      "channel": 2,
      "note": 90,
      "start": 11.5589,
      "duration": 0.1055,
      "velocity": 109,
      "chip": "ym2612"
    },
    {
      "channel": 3,
      "note": 76,
      "start": 11.7667,
      "duration": 0.1141,
      "velocity": 92,
      "chip": "ym2612"
    },
    {
      "channel": 0,
      "note": 73,
      "start": 11.7691,
      "duration": 0.1115,
      "velocity": 92,
      "chip": "ym2612"
    },
    {
      "channel": 1,
      "note": 69,
      "start": 11.7715,
      "duration": 0.1092,
      "velocity": 92,
      "chip": "ym2612"
    },
    {
      "channel": 2,
      "note": 88,
      "start": 11.7744,
      "duration": 0.1067,
      "velocity": 109,
      "chip": "ym2612"
    },
    {
      "channel": 3,
      "note": 76,
      "start": 11.9834,
      "duration": 0.1141,
      "velocity": 92,
      "chip": "ym2612"
    },
    {
      "channel": 0,
      "note": 73,
      "start": 11.9858,
      "duration": 0.1115,
      "velocity": 92,
      "chip": "ym2612"
    },
    {
      "channel": 1,
      "note": 69,
      "start": 11.9882,
      "duration": 0.1092,
      "velocity": 92,
      "chip": "ym2612"
    },
    {
      "channel": 4,
      "note": 52,
      "start": 11.9908,
      "duration": 0.1068,
      "velocity": 92,
      "chip": "ym2612"
    },
    {
      "channel": 2,
      "note": 90,
      "start": 11.994,
      "duration": 0.1039,
      "velocity": 109,
      "chip": "ym2612"
    },
    {
      "channel": 3,
      "note": 76,
      "start": 12.2001,
      "duration": 0.1141,
      "velocity": 92,
      "chip": "ym2612"
    },
    {
      "channel": 0,
      "note": 73,
      "start": 12.2025,
      "duration": 0.1115,
      "velocity": 92,
      "chip": "ym2612"
    },
    {
      "channel": 1,
      "note": 69,
      "start": 12.2049,
      "duration": 0.1092,
      "velocity": 92,
      "chip": "ym2612"
    },
    {
      "channel": 4,
      "note": 57,
      "start": 12.2077,
      "duration": 0.1067,
      "velocity": 92,
      "chip": "ym2612"
    },
    {
      "channel": 2,
      "note": 69,
      "start": 12.2107,
      "duration": 0.42,
      "velocity": 109,
      "chip": "ym2612"
    },
    {
      "channel": 3,
      "note": 76,
      "start": 12.4168,
      "duration": 0.114,
      "velocity": 92,
      "chip": "ym2612"
    },
    {
      "channel": 0,
      "note": 73,
      "start": 12.4191,
      "duration": 0.1114,
      "velocity": 92,
      "chip": "ym2612"
    },
    {
      "channel": 1,
      "note": 69,
      "start": 12.4216,
      "duration": 0.1091,
      "velocity": 92,
      "chip": "ym2612"
    },
    {
      "channel": 3,
      "note": 76,
      "start": 12.6335,
      "duration": 0.1139,
      "velocity": 92,
      "chip": "ym2612"
    },
    {
      "channel": 0,
      "note": 73,
      "start": 12.6359,
      "duration": 0.1113,
      "velocity": 92,
      "chip": "ym2612"
    },
    {
      "channel": 1,
      "note": 69,
      "start": 12.6383,
      "duration": 0.109,
      "velocity": 92,
      "chip": "ym2612"
    },
    {
      "channel": 2,
      "note": 71,
      "start": 12.6415,
      "duration": 0.206,
      "velocity": 109,
      "chip": "ym2612"
    },
    {
      "channel": 3,
      "note": 76,
      "start": 12.8502,
      "duration": 0.1139,
      "velocity": 92,
      "chip": "ym2612"
    },
    {
      "channel": 0,
      "note": 73,
      "start": 12.8526,
      "duration": 0.1113,
      "velocity": 92,
      "chip": "ym2612"
    },
    {
      "channel": 1,
      "note": 69,
      "start": 12.855,
      "duration": 0.109,
      "velocity": 92,
      "chip": "ym2612"
    },
    {
      "channel": 2,
      "note": 73,
      "start": 12.8582,
      "duration": 0.4393,
      "velocity": 109,
      "chip": "ym2612"
    },
    {
      "channel": 3,
      "note": 76,
      "start": 13.0835,
      "duration": 0.0974,
      "velocity": 92,
      "chip": "ym2612"
    },
    {
      "channel": 0,
      "note": 73,
      "start": 13.0859,
      "duration": 0.0947,
      "velocity": 92,
      "chip": "ym2612"
    },
    {
      "channel": 1,
      "note": 69,
      "start": 13.0883,
      "duration": 0.0924,
      "velocity": 92,
      "chip": "ym2612"
    },
    {
      "channel": 3,
      "note": 76,
      "start": 13.3002,
      "duration": 0.0973,
      "velocity": 92,
      "chip": "ym2612"
    },
    {
      "channel": 0,
      "note": 73,
      "start": 13.3026,
      "duration": 0.0946,
      "velocity": 92,
      "chip": "ym2612"
    },
    {
      "channel": 1,
      "note": 69,
      "start": 13.305,
      "duration": 0.0924,
      "velocity": 92,
      "chip": "ym2612"
    },
    {
      "channel": 2,
      "note": 90,
      "start": 13.3082,
      "duration": 0.0896,
      "velocity": 109,
      "chip": "ym2612"
    },
    {
      "channel": 3,
      "note": 76,
      "start": 13.5168,
      "duration": 0.0973,
      "velocity": 92,
      "chip": "ym2612"
    },
    {
      "channel": 0,
      "note": 73,
      "start": 13.5191,
      "duration": 0.0947,
      "velocity": 92,
      "chip": "ym2612"
    },
    {
      "channel": 1,
      "note": 69,
      "start": 13.5216,
      "duration": 0.0924,
      "velocity": 92,
      "chip": "ym2612"
    },
    {
      "channel": 2,
      "note": 88,
      "start": 13.5245,
      "duration": 0.0899,
      "velocity": 109,
      "chip": "ym2612"
    },
    {
      "channel": 3,
      "note": 76,
      "start": 13.7335,
      "duration": 0.0973,
      "velocity": 92,
      "chip": "ym2612"
    },
    {
      "channel": 0,
      "note": 73,
      "start": 13.7359,
      "duration": 0.0946,
      "velocity": 92,
      "chip": "ym2612"
    },
    {
      "channel": 1,
      "note": 69,
      "start": 13.7383,
      "duration": 0.0923,
      "velocity": 92,
      "chip": "ym2612"
    },
    {
      "channel": 4,
      "note": 52,
      "start": 13.7409,
      "duration": 0.09,
      "velocity": 92,
      "chip": "ym2612"
    },
    {
      "channel": 2,
      "note": 90,
      "start": 13.7443,
      "duration": 0.0868,
      "velocity": 109,
      "chip": "ym2612"
    },
    {
      "channel": 3,
      "note": 78,
      "start": 13.9501,
      "duration": 0.0973,
      "velocity": 92,
      "chip": "ym2612"
    },
    {
      "channel": 0,
      "note": 74,
      "start": 13.9525,
      "duration": 0.0947,
      "velocity": 92,
      "chip": "ym2612"
    },
    {
      "channel": 1,
      "note": 69,
      "start": 13.9549,
      "duration": 0.0924,
      "velocity": 92,
      "chip": "ym2612"
    },
    {
      "channel": 4,
      "note": 45,
      "start": 13.9581,
      "duration": 0.0896,
      "velocity": 92,
      "chip": "ym2612"
    },
    {
      "channel": 5,
      "note": 62,
      "start": 13.9616,
      "duration": 0.0861,
      "velocity": 79,
      "chip": "ym2612"
    },
    {
      "channel": 3,
      "note": 78,
      "start": 14.1668,
      "duration": 0.0973,
      "velocity": 92,
      "chip": "ym2612"
    },
    {
      "channel": 0,
      "note": 74,
      "start": 14.1692,
      "duration": 0.0946,
      "velocity": 92,
      "chip": "ym2612"
    },
    {
      "channel": 1,
      "note": 69,
      "start": 14.1716,
      "duration": 0.0923,
      "velocity": 92,
      "chip": "ym2612"
    },
    {
      "channel": 5,
      "note": 62,
      "start": 14.1748,
      "duration": 0.0895,
      "velocity": 79,
      "chip": "ym2612"
    },
    {
      "channel": 3,
      "note": 78,
      "start": 14.3835,
      "duration": 0.114,
      "velocity": 92,
      "chip": "ym2612"
    },
    {
      "channel": 0,
      "note": 74,
      "start": 14.3859,
      "duration": 0.1113,
      "velocity": 92,
      "chip": "ym2612"
    },
    {
      "channel": 1,
      "note": 69,
      "start": 14.3883,
      "duration": 0.109,
      "velocity": 92,
      "chip": "ym2612"
    },
    {
      "channel": 5,
      "note": 66,
      "start": 14.3915,
      "duration": 0.1062,
      "velocity": 79,
      "chip": "ym2612"
    },
    {
      "channel": 3,
      "note": 78,
      "start": 14.6005,
      "duration": 0.1137,
      "velocity": 92,
      "chip": "ym2612"
    },
    {
      "channel": 0,
      "note": 74,
      "start": 14.6029,
      "duration": 0.111,
      "velocity": 92,
      "chip": "ym2612"
    },
    {
      "channel": 1,
      "note": 69,
      "start": 14.6053,
      "duration": 0.1088,
      "velocity": 92,
      "chip": "ym2612"
    },
    {
      "channel": 5,
      "note": 62,
      "start": 14.6085,
      "duration": 0.1059,
      "velocity": 79,
      "chip": "ym2612"
    },
    {
      "channel": 3,
      "note": 78,
      "start": 14.8168,
      "duration": 0.114,
      "velocity": 92,
      "chip": "ym2612"
    },
    {
      "channel": 0,
      "note": 74,
      "start": 14.8192,
      "duration": 0.1113,
      "velocity": 92,
      "chip": "ym2612"
    },
    {
      "channel": 1,
      "note": 69,
      "start": 14.8216,
      "duration": 0.109,
      "velocity": 92,
      "chip": "ym2612"
    },
    {
      "channel": 5,
      "note": 71,
      "start": 14.8247,
      "duration": 0.1062,
      "velocity": 79,
      "chip": "ym2612"
    },
    {
      "channel": 3,
      "note": 78,
      "start": 15.0335,
      "duration": 0.1141,
      "velocity": 92,
      "chip": "ym2612"
    },
    {
      "channel": 0,
      "note": 74,
      "start": 15.0362,
      "duration": 0.1111,
      "velocity": 92,
      "chip": "ym2612"
    },
    {
      "channel": 1,
      "note": 69,
      "start": 15.039,
      "duration": 0.1084,
      "velocity": 92,
      "chip": "ym2612"
    },
    {
      "channel": 5,
      "note": 68,
      "start": 15.0422,
      "duration": 0.1056,
      "velocity": 79,
      "chip": "ym2612"
    },
    {
      "channel": 3,
      "note": 78,
      "start": 15.2501,
      "duration": 0.1141,
      "velocity": 92,
      "chip": "ym2612"
    },
    {
      "channel": 0,
      "note": 74,
      "start": 15.2524,
      "duration": 0.1115,
      "velocity": 92,
      "chip": "ym2612"
    },
    {
      "channel": 1,
      "note": 69,
      "start": 15.2548,
      "duration": 0.1092,
      "velocity": 92,
      "chip": "ym2612"
    },
    {
      "channel": 5,
      "note": 69,
      "start": 15.2582,
      "duration": 0.1062,
      "velocity": 79,
      "chip": "ym2612"
    },
    {
      "channel": 3,
      "note": 78,
      "start": 15.4667,
      "duration": 0.1141,
      "velocity": 92,
      "chip": "ym2612"
    },
    {
      "channel": 0,
      "note": 74,
      "start": 15.4691,
      "duration": 0.1115,
      "velocity": 92,
      "chip": "ym2612"
    },
    {
      "channel": 1,
      "note": 69,
      "start": 15.4715,
      "duration": 0.1092,
      "velocity": 92,
      "chip": "ym2612"
    },
    {
      "channel": 4,
      "note": 50,
      "start": 15.4742,
      "duration": 0.1068,
      "velocity": 92,
      "chip": "ym2612"
    },
    {
      "channel": 3,
      "note": 78,
      "start": 15.6835,
      "duration": 0.114,
      "velocity": 92,
      "chip": "ym2612"
    },
    {
      "channel": 0,
      "note": 74,
      "start": 15.6859,
      "duration": 0.1113,
      "velocity": 92,
      "chip": "ym2612"
    },
    {
      "channel": 1,
      "note": 69,
      "start": 15.6883,
      "duration": 0.109,
      "velocity": 92,
      "chip": "ym2612"
    },
    {
      "channel": 4,
      "note": 45,
      "start": 15.691,
      "duration": 0.1066,
      "velocity": 92,
      "chip": "ym2612"
    },
    {
      "channel": 5,
      "note": 62,
      "start": 15.6943,
      "duration": 0.1035,
      "velocity": 79,
      "chip": "ym2612"
    },
    {
      "channel": 3,
      "note": 78,
      "start": 15.9168,
      "duration": 0.0973,
      "velocity": 92,
      "chip": "ym2612"
    },
    {
      "channel": 0,
      "note": 74,
      "start": 15.9192,
      "duration": 0.0946,
      "velocity": 92,
      "chip": "ym2612"
    },
    {
      "channel": 1,
      "note": 69,
      "start": 15.9216,
      "duration": 0.0923,
      "velocity": 92,
      "chip": "ym2612"
    },
    {
      "channel": 5,
      "note": 62,
      "start": 15.9248,
      "duration": 0.0895,
      "velocity": 79,
      "chip": "ym2612"
    },
    {
      "channel": 3,
      "note": 78,
      "start": 16.1335,
      "duration": 0.0974,
      "velocity": 92,
      "chip": "ym2612"
    },
    {
      "channel": 0,
      "note": 74,
      "start": 16.1359,
      "duration": 0.0947,
      "velocity": 92,
      "chip": "ym2612"
    },
    {
      "channel": 1,
      "note": 69,
      "start": 16.1383,
      "duration": 0.0924,
      "velocity": 92,
      "chip": "ym2612"
    },
    {
      "channel": 5,
      "note": 66,
      "start": 16.1415,
      "duration": 0.0896,
      "velocity": 79,
      "chip": "ym2612"
    },
    {
      "channel": 3,
      "note": 78,
      "start": 16.3501,
      "duration": 0.0974,
      "velocity": 92,
      "chip": "ym2612"
    },
    {
      "channel": 0,
      "note": 74,
      "start": 16.3524,
      "duration": 0.0947,
      "velocity": 92,
      "chip": "ym2612"
    },
    {
      "channel": 1,
      "note": 69,
      "start": 16.3548,
      "duration": 0.0925,
      "velocity": 92,
      "chip": "ym2612"
    },
    {
      "channel": 5,
      "note": 62,
      "start": 16.358,
      "duration": 0.0896,
      "velocity": 79,
      "chip": "ym2612"
    },
    {
      "channel": 3,
      "note": 78,
      "start": 16.5667,
      "duration": 0.0975,
      "velocity": 92,
      "chip": "ym2612"
    },
    {
      "channel": 0,
      "note": 74,
      "start": 16.5691,
      "duration": 0.0948,
      "velocity": 92,
      "chip": "ym2612"
    },
    {
      "channel": 1,
      "note": 69,
      "start": 16.5715,
      "duration": 0.0926,
      "velocity": 92,
      "chip": "ym2612"
    },
    {
      "channel": 5,
      "note": 69,
      "start": 16.5747,
      "duration": 0.0897,
      "velocity": 79,
      "chip": "ym2612"
    },
    {
      "channel": 3,
      "note": 78,
      "start": 16.7834,
      "duration": 0.0974,
      "velocity": 92,
      "chip": "ym2612"
    },
    {
      "channel": 0,
      "note": 74,
      "start": 16.7858,
      "duration": 0.0948,
      "velocity": 92,
      "chip": "ym2612"
    },
    {
      "channel": 1,
      "note": 69,
      "start": 16.7882,
      "duration": 0.0925,
      "velocity": 92,
      "chip": "ym2612"
    },
    {
      "channel": 5,
      "note": 62,
      "start": 16.7913,
      "duration": 0.0896,
      "velocity": 79,
      "chip": "ym2612"
    },
    {
      "channel": 3,
      "note": 78,
      "start": 17.0001,
      "duration": 0.0974,
      "velocity": 92,
      "chip": "ym2612"
    },
    {
      "channel": 0,
      "note": 74,
      "start": 17.0025,
      "duration": 0.0947,
      "velocity": 92,
      "chip": "ym2612"
    },
    {
      "channel": 1,
      "note": 69,
      "start": 17.005,
      "duration": 0.0924,
      "velocity": 92,
      "chip": "ym2612"
    },
    {
      "channel": 5,
      "note": 69,
      "start": 17.0087,
      "duration": 0.089,
      "velocity": 79,
      "chip": "ym2612"
    },
    {
      "channel": 3,
      "note": 78,
      "start": 17.2171,
      "duration": 0.0971,
      "velocity": 92,
      "chip": "ym2612"
    },
    {
      "channel": 0,
      "note": 74,
      "start": 17.2197,
      "duration": 0.0942,
      "velocity": 92,
      "chip": "ym2612"
    },
    {
      "channel": 1,
      "note": 69,
      "start": 17.2224,
      "duration": 0.0917,
      "velocity": 92,
      "chip": "ym2612"
    },
    {
      "channel": 2,
      "note": 59,
      "start": 17.4355,
      "duration": 0.2121,
      "velocity": 115,
      "chip": "ym2612"
    },
    {
      "channel": 5,
      "note": 59,
      "start": 17.4384,
      "duration": 0.109,
      "velocity": 79,
      "chip": "ym2612"
    },
    {
      "channel": 5,
      "note": 86,
      "start": 17.5513,
      "duration": 0.0962,
      "velocity": 79,
      "chip": "ym2612"
    },
    {
      "channel": 2,
      "note": 57,
      "start": 17.6514,
      "duration": 0.2127,
      "velocity": 115,
      "chip": "ym2612"
    },
    {
      "channel": 5,
      "note": 57,
      "start": 17.6543,
      "duration": 0.1097,
      "velocity": 79,
      "chip": "ym2612"
    },
    {
      "channel": 2,
      "note": 56,
      "start": 17.8683,
      "duration": 0.2125,
      "velocity": 115,
      "chip": "ym2612"
    },
    {
      "channel": 5,
      "note": 56,
      "start": 17.8711,
      "duration": 0.1097,
      "velocity": 79,
      "chip": "ym2612"
    },
    {
      "channel": 2,
      "note": 54,
      "start": 18.0846,
      "duration": 0.2129,
      "velocity": 115,
      "chip": "ym2612"
    },
    {
      "channel": 5,
      "note": 54,
      "start": 18.0873,
      "duration": 0.1101,
      "velocity": 79,
      "chip": "ym2612"
    },
    {
      "channel": 2,
      "note": 52,
      "start": 18.3013,
      "duration": 0.2129,
      "velocity": 115,
      "chip": "ym2612"
    },
    {
      "channel": 5,
      "note": 52,
      "start": 18.3042,
      "duration": 0.1098,
      "velocity": 79,
      "chip": "ym2612"
    },
    {
      "channel": 5,
      "note": 80,
      "start": 18.4179,
      "duration": 0.0961,
      "velocity": 79,
      "chip": "ym2612"
    },
    {
      "channel": 2,
      "note": 54,
      "start": 18.518,
      "duration": 0.2127,
      "velocity": 115,
      "chip": "ym2612"
    },
    {
      "channel": 5,
      "note": 54,
      "start": 18.5209,
      "duration": 0.1098,
      "velocity": 79,
      "chip": "ym2612"
    },
    {
      "channel": 2,
      "note": 52,
      "start": 18.7345,
      "duration": 0.2296,
      "velocity": 115,
      "chip": "ym2612"
    },
    {
      "channel": 5,
      "note": 52,
      "start": 18.7373,
      "duration": 0.1101,
      "velocity": 79,
      "chip": "ym2612"
    },
    {
      "channel": 2,
      "note": 50,
      "start": 18.9679,
      "duration": 0.2129,
      "velocity": 115,
      "chip": "ym2612"
    },
    {
      "channel": 5,
      "note": 50,
      "start": 18.9707,
      "duration": 0.0934,
      "velocity": 79,
      "chip": "ym2612"
    },
    {
      "channel": 2,
      "note": 49,
      "start": 19.1846,
      "duration": 0.213,
      "velocity": 115,
      "chip": "ym2612"
    },
    {
      "channel": 5,
      "note": 49,
      "start": 19.1878,
      "duration": 0.0928,
      "velocity": 79,
      "chip": "ym2612"
    },
    {
      "channel": 5,
      "note": 88,
      "start": 19.2845,
      "duration": 0.1129,
      "velocity": 79,
      "chip": "ym2612"
    },
    {
      "channel": 2,
      "note": 52,
      "start": 19.4014,
      "duration": 0.2127,
      "velocity": 115,
      "chip": "ym2612"
    },
    {
      "channel": 5,
      "note": 52,
      "start": 19.4043,
      "duration": 0.0931,
      "velocity": 79,
      "chip": "ym2612"
    },
    {
      "channel": 2,
      "note": 57,
      "start": 19.6179,
      "duration": 0.2129,
      "velocity": 115,
      "chip": "ym2612"
    },
    {
      "channel": 5,
      "note": 57,
      "start": 19.6207,
      "duration": 0.0932,
      "velocity": 79,
      "chip": "ym2612"
    },
    {
      "channel": 2,
      "note": 52,
      "start": 19.8346,
      "duration": 0.2128,
      "velocity": 115,
      "chip": "ym2612"
    },
    {
      "channel": 5,
      "note": 52,
      "start": 19.8373,
      "duration": 0.0934,
      "velocity": 79,
      "chip": "ym2612"
    },
    {
      "channel": 2,
      "note": 45,
      "start": 20.0513,
      "duration": 0.2129,
      "velocity": 115,
      "chip": "ym2612"
    },
    {
      "channel": 5,
      "note": 45,
      "start": 20.0542,
      "duration": 0.0933,
      "velocity": 79,
      "chip": "ym2612"
    },
    {
      "channel": 5,
      "note": 85,
      "start": 20.1513,
      "duration": 0.1127,
      "velocity": 79,
      "chip": "ym2612"
    },
    {
      "channel": 2,
      "note": 49,
      "start": 20.268,
      "duration": 0.2127,
      "velocity": 115,
      "chip": "ym2612"
    },
    {
      "channel": 5,
      "note": 49,
      "start": 20.2709,
      "duration": 0.0931,
      "velocity": 79,
      "chip": "ym2612"
    },
    {
      "channel": 2,
      "note": 52,
      "start": 20.4845,
      "duration": 0.2129,
      "velocity": 115,
      "chip": "ym2612"
    },
    {
      "channel": 5,
      "note": 52,
      "start": 20.4873,
      "duration": 0.11,
      "velocity": 79,
      "chip": "ym2612"
    },
    {
      "channel": 2,
      "note": 57,
      "start": 20.7012,
      "duration": 0.213,
      "velocity": 115,
      "chip": "ym2612"
    },
    {
      "channel": 5,
      "note": 57,
      "start": 20.7043,
      "duration": 0.1097,
      "velocity": 79,
      "chip": "ym2612"
    },
    {
      "channel": 2,
      "note": 59,
      "start": 20.918,
      "duration": 0.2127,
      "velocity": 115,
      "chip": "ym2612"
    },
    {
      "channel": 2,
      "note": 57,
      "start": 21.1345,
      "duration": 0.2129,
      "velocity": 115,
      "chip": "ym2612"
    },
    {
      "channel": 4,
      "note": 86,
      "start": 21.1519,
      "duration": 0.1122,
      "velocity": 119,
      "chip": "ym2612"
    },
    {
      "channel": 0,
      "note": 83,
      "start": 21.1546,
      "duration": 0.1092,
      "velocity": 119,
      "chip": "ym2612"
    },
    {
      "channel": 2,
      "note": 56,
      "start": 21.3516,
      "duration": 0.2125,
      "velocity": 115,
      "chip": "ym2612"
    },
    {
      "channel": 0,
      "note": 83,
      "start": 21.3546,
      "duration": 0.1092,
      "velocity": 119,
      "chip": "ym2612"
    },
    {
      "channel": 4,
      "note": 86,
      "start": 21.3572,
      "duration": 0.1069,
      "velocity": 119,
      "chip": "ym2612"
    },
    {
      "channel": 2,
      "note": 54,
      "start": 21.5679,
      "duration": 0.2129,
      "velocity": 115,
      "chip": "ym2612"
    },
    {
      "channel": 2,
      "note": 52,
      "start": 21.7846,
      "duration": 0.2295,
      "velocity": 115,
      "chip": "ym2612"
    },
    {
      "channel": 2,
      "note": 54,
      "start": 22.0179,
      "duration": 0.213,
      "velocity": 115,
      "chip": "ym2612"
    },
    {
      "channel": 0,
      "note": 83,
      "start": 22.0205,
      "duration": 0.0933,
      "velocity": 119,
      "chip": "ym2612"
    },
    {
      "channel": 4,
      "note": 86,
      "start": 22.0231,
      "duration": 0.091,
      "velocity": 119,
      "chip": "ym2612"
    },
    {
      "channel": 2,
      "note": 52,
      "start": 22.2347,
      "duration": 0.2128,
      "velocity": 115,
      "chip": "ym2612"
    },
    {
      "channel": 0,
      "note": 83,
      "start": 22.2373,
      "duration": 0.0932,
      "velocity": 119,
      "chip": "ym2612"
    },
    {
      "channel": 4,
      "note": 86,
      "start": 22.2398,
      "duration": 0.0909,
      "velocity": 119,
      "chip": "ym2612"
    },
    {
      "channel": 2,
      "note": 50,
      "start": 22.4513,
      "duration": 0.2129,
      "velocity": 115,
      "chip": "ym2612"
    },
    {
      "channel": 2,
      "note": 49,
      "start": 22.6679,
      "duration": 0.2129,
      "velocity": 115,
      "chip": "ym2612"
    },
    {
      "channel": 2,
      "note": 52,
      "start": 22.8846,
      "duration": 0.2128,
      "velocity": 115,
      "chip": "ym2612"
    },
    {
      "channel": 0,
      "note": 81,
      "start": 22.8873,
      "duration": 0.0933,
      "velocity": 119,
      "chip": "ym2612"
    },
    {
      "channel": 4,
      "note": 85,
      "start": 22.8898,
      "duration": 0.091,
      "velocity": 119,
      "chip": "ym2612"
    },
    {
      "channel": 2,
      "note": 57,
      "start": 23.1012,
      "duration": 0.2129,
      "velocity": 115,
      "chip": "ym2612"
    },
    {
      "channel": 0,
      "note": 81,
      "start": 23.1043,
      "duration": 0.0929,
      "velocity": 119,
      "chip": "ym2612"
    },
    {
      "channel": 4,
      "note": 85,
      "start": 23.1068,
      "duration": 0.0906,
      "velocity": 119,
      "chip": "ym2612"
    },
    {
      "channel": 2,
      "note": 52,
      "start": 23.3179,
      "duration": 0.2129,
      "velocity": 115,
      "chip": "ym2612"
    },
    {
      "channel": 2,
      "note": 45,
      "start": 23.5347,
      "duration": 0.2129,
      "velocity": 115,
      "chip": "ym2612"
    },
    {
      "channel": 2,
      "note": 49,
      "start": 23.7513,
      "duration": 0.2128,
      "velocity": 115,
      "chip": "ym2612"
    },
    {
      "channel": 0,
      "note": 81,
      "start": 23.7539,
      "duration": 0.1099,
      "velocity": 119,
      "chip": "ym2612"
    },
    {
      "channel": 4,
      "note": 85,
      "start": 23.7565,
      "duration": 0.1076,
      "velocity": 119,
      "chip": "ym2612"
    },
    {
      "channel": 2,
      "note": 52,
      "start": 23.9679,
      "duration": 0.2127,
      "velocity": 115,
      "chip": "ym2612"
    },
    {
      "channel": 0,
      "note": 81,
      "start": 23.9706,
      "duration": 0.1099,
      "velocity": 119,
      "chip": "ym2612"
    },
    {
      "channel": 4,
      "note": 85,
      "start": 23.9732,
      "duration": 0.1076,
      "velocity": 119,
      "chip": "ym2612"
    },
    {
      "channel": 2,
      "note": 57,
      "start": 24.1845,
      "duration": 0.2129,
      "velocity": 115,
      "chip": "ym2612"
    },
    {
      "channel": 2,
      "note": 59,
      "start": 24.4013,
      "duration": 0.2129,
      "velocity": 115,
      "chip": "ym2612"
    },
    {
      "channel": 1,
      "note": 76,
      "start": 24.4057,
      "duration": 1.4749,
      "velocity": 88,
      "chip": "ym2612"
    },
    {
      "channel": 2,
      "note": 57,
      "start": 24.618,
      "duration": 0.2129,
      "velocity": 115,
      "chip": "ym2612"
    },
    {
      "channel": 0,
      "note": 86,
      "start": 24.6344,
      "duration": 0.1127,
      "velocity": 119,
      "chip": "ym2612"
    },
    {
      "channel": 4,
      "note": 83,
      "start": 24.637,
      "duration": 0.1104,
      "velocity": 119,
      "chip": "ym2612"
    },
    {
      "channel": 2,
      "note": 56,
      "start": 24.8351,
      "duration": 0.229,
      "velocity": 115,
      "chip": "ym2612"
    },
    {
      "channel": 0,
      "note": 83,
      "start": 24.838,
      "duration": 0.1092,
      "velocity": 119,
      "chip": "ym2612"
    },
    {
      "channel": 4,
      "note": 86,
      "start": 24.8406,
      "duration": 0.1069,
      "velocity": 119,
      "chip": "ym2612"
    },
    {
      "channel": 2,
      "note": 54,
      "start": 25.0679,
      "duration": 0.2129,
      "velocity": 115,
      "chip": "ym2612"
    },
    {
      "channel": 2,
      "note": 52,
      "start": 25.2845,
      "duration": 0.2129,
      "velocity": 115,
      "chip": "ym2612"
    },
    {
      "channel": 2,
      "note": 54,
      "start": 25.5013,
      "duration": 0.2129,
      "velocity": 115,
      "chip": "ym2612"
    },
    {
      "channel": 0,
      "note": 83,
      "start": 25.5039,
      "duration": 0.0932,
      "velocity": 119,
      "chip": "ym2612"
    },
    {
      "channel": 4,
      "note": 86,
      "start": 25.5065,
      "duration": 0.0909,
      "velocity": 119,
      "chip": "ym2612"
    },
    {
      "channel": 2,
      "note": 52,
      "start": 25.718,
      "duration": 0.2127,
      "velocity": 115,
      "chip": "ym2612"
    },
    {
      "channel": 0,
      "note": 83,
      "start": 25.7206,
      "duration": 0.0932,
      "velocity": 119,
      "chip": "ym2612"
    },
    {
      "channel": 4,
      "note": 86,
      "start": 25.7232,
      "duration": 0.0909,
      "velocity": 119,
      "chip": "ym2612"
    },
    {
      "channel": 2,
      "note": 50,
      "start": 25.9345,
      "duration": 0.213,
      "velocity": 115,
      "chip": "ym2612"
    },
    {
      "channel": 1,
      "note": 80,
      "start": 25.9375,
      "duration": 0.2097,
      "velocity": 88,
      "chip": "ym2612"
    },
    {
      "channel": 2,
      "note": 49,
      "start": 26.1514,
      "duration": 0.2127,
      "velocity": 115,
      "chip": "ym2612"
    },
    {
      "channel": 1,
      "note": 76,
      "start": 26.1543,
      "duration": 0.8595,
      "velocity": 88,
      "chip": "ym2612"
    },
    {
      "channel": 2,
      "note": 52,
      "start": 26.3679,
      "duration": 0.2129,
      "velocity": 115,
      "chip": "ym2612"
    },
    {
      "channel": 0,
      "note": 81,
      "start": 26.3706,
      "duration": 0.1099,
      "velocity": 119,
      "chip": "ym2612"
    },
    {
      "channel": 4,
      "note": 85,
      "start": 26.3732,
      "duration": 0.1076,
      "velocity": 119,
      "chip": "ym2612"
    },
    {
      "channel": 2,
      "note": 57,
      "start": 26.5846,
      "duration": 0.2129,
      "velocity": 115,
      "chip": "ym2612"
    },
    {
      "channel": 0,
      "note": 81,
      "start": 26.5877,
      "duration": 0.1095,
      "velocity": 119,
      "chip": "ym2612"
    },
    {
      "channel": 4,
      "note": 85,
      "start": 26.5902,
      "duration": 0.1073,
      "velocity": 119,
      "chip": "ym2612"
    },
    {
      "channel": 2,
      "note": 52,
      "start": 26.8013,
      "duration": 0.2129,
      "velocity": 115,
      "chip": "ym2612"
    },
    {
      "channel": 2,
      "note": 45,
      "start": 27.018,
      "duration": 0.2127,
      "velocity": 115,
      "chip": "ym2612"
    },
    {
      "channel": 1,
      "note": 73,
      "start": 27.0207,
      "duration": 0.8599,
      "velocity": 88,
      "chip": "ym2612"
    },
    {
      "channel": 2,
      "note": 49,
      "start": 27.2345,
      "duration": 0.2129,
      "velocity": 115,
      "chip": "ym2612"
    },
    {
      "channel": 0,
      "note": 81,
      "start": 27.2372,
      "duration": 0.1099,
      "velocity": 119,
      "chip": "ym2612"
    },
    {
      "channel": 4,
      "note": 85,
      "start": 27.2398,
      "duration": 0.1076,
      "velocity": 119,
      "chip": "ym2612"
    },
    {
      "channel": 2,
      "note": 52,
      "start": 27.4512,
      "duration": 0.2129,
      "velocity": 115,
      "chip": "ym2612"
    },
    {
      "channel": 0,
      "note": 81,
      "start": 27.4539,
      "duration": 0.11,
      "velocity": 119,
      "chip": "ym2612"
    },
    {
      "channel": 4,
      "note": 85,
      "start": 27.4564,
      "duration": 0.1078,
      "velocity": 119,
      "chip": "ym2612"
    },
    {
      "channel": 2,
      "note": 57,
      "start": 27.6679,
      "duration": 0.213,
      "velocity": 115,
      "chip": "ym2612"
    },
    {
      "channel": 2,
      "note": 59,
      "start": 27.8847,
      "duration": 0.2294,
      "velocity": 115,
      "chip": "ym2612"
    },
    {
      "channel": 1,
      "note": 74,
      "start": 27.888,
      "duration": 1.4926,
      "velocity": 88,
      "chip": "ym2612"
    },
    {
      "channel": 2,
      "note": 57,
      "start": 28.1179,
      "duration": 0.213,
      "velocity": 115,
      "chip": "ym2612"
    },
    {
      "channel": 0,
      "note": 86,
      "start": 28.1343,
      "duration": 0.0962,
      "velocity": 119,
      "chip": "ym2612"
    },
    {
      "channel": 4,
      "note": 83,
      "start": 28.1368,
      "duration": 0.0939,
      "velocity": 119,
      "chip": "ym2612"
    },
    {
      "channel": 2,
      "note": 56,
      "start": 28.3351,
      "duration": 0.2125,
      "velocity": 115,
      "chip": "ym2612"
    },
    {
      "channel": 0,
      "note": 83,
      "start": 28.338,
      "duration": 0.0924,
      "velocity": 119,
      "chip": "ym2612"
    },
    {
      "channel": 4,
      "note": 86,
      "start": 28.3406,
      "duration": 0.0901,
      "velocity": 119,
      "chip": "ym2612"
    },
    {
      "channel": 2,
      "note": 54,
      "start": 28.5513,
      "duration": 0.2128,
      "velocity": 115,
      "chip": "ym2612"
    },
    {
      "channel": 2,
      "note": 52,
      "start": 28.7679,
      "duration": 0.2128,
      "velocity": 115,
      "chip": "ym2612"
    },
    {
      "channel": 2,
      "note": 54,
      "start": 28.9845,
      "duration": 0.2129,
      "velocity": 115,
      "chip": "ym2612"
    },
    {
      "channel": 0,
      "note": 83,
      "start": 28.9872,
      "duration": 0.0934,
      "velocity": 119,
      "chip": "ym2612"
    },
    {
      "channel": 4,
      "note": 86,
      "start": 28.9898,
      "duration": 0.0911,
      "velocity": 119,
      "chip": "ym2612"
    },
    {
      "channel": 2,
      "note": 52,
      "start": 29.2012,
      "duration": 0.2129,
      "velocity": 115,
      "chip": "ym2612"
    },
    {
      "channel": 0,
      "note": 83,
      "start": 29.2039,
      "duration": 0.0933,
      "velocity": 119,
      "chip": "ym2612"
    },
    {
      "channel": 4,
      "note": 86,
      "start": 29.2064,
      "duration": 0.091,
      "velocity": 119,
      "chip": "ym2612"
    },
    {
      "channel": 2,
      "note": 50,
      "start": 29.4179,
      "duration": 0.213,
      "velocity": 115,
      "chip": "ym2612"
    },
    {
      "channel": 1,
      "note": 76,
      "start": 29.4209,
      "duration": 0.2097,
      "velocity": 88,
      "chip": "ym2612"
    },
    {
      "channel": 2,
      "note": 49,
      "start": 29.6347,
      "duration": 0.2127,
      "velocity": 115,
      "chip": "ym2612"
    },
    {
      "channel": 1,
      "note": 73,
      "start": 29.638,
      "duration": 0.8592,
      "velocity": 88,
      "chip": "ym2612"
    },
    {
      "channel": 2,
      "note": 52,
      "start": 29.8512,
      "duration": 0.2129,
      "velocity": 115,
      "chip": "ym2612"
    },
    {
      "channel": 0,
      "note": 81,
      "start": 29.8539,
      "duration": 0.11,
      "velocity": 119,
      "chip": "ym2612"
    },
    {
      "channel": 4,
      "note": 85,
      "start": 29.8564,
      "duration": 0.1077,
      "velocity": 119,
      "chip": "ym2612"
    },
    {
      "channel": 2,
      "note": 57,
      "start": 30.0679,
      "duration": 0.2129,
      "velocity": 115,
      "chip": "ym2612"
    },
    {
      "channel": 0,
      "note": 81,
      "start": 30.0709,
      "duration": 0.1096,
      "velocity": 119,
      "chip": "ym2612"
    },
    {
      "channel": 4,
      "note": 85,
      "start": 30.0735,
      "duration": 0.1073,
      "velocity": 119,
      "chip": "ym2612"
    },
    {
      "channel": 2,
      "note": 52,
      "start": 30.2845,
      "duration": 0.213,
      "velocity": 115,
      "chip": "ym2612"
    },
    {
      "channel": 2,
      "note": 45,
      "start": 30.5013,
      "duration": 0.2127,
      "velocity": 115,
      "chip": "ym2612"
    },
    {
      "channel": 1,
      "note": 76,
      "start": 30.504,
      "duration": 0.8765,
      "velocity": 88,
      "chip": "ym2612"
    },
    {
      "channel": 2,
      "note": 49,
      "start": 30.7179,
      "duration": 0.2129,
      "velocity": 115,
      "chip": "ym2612"
    },
    {
      "channel": 0,
      "note": 81,
      "start": 30.7205,
      "duration": 0.1099,
      "velocity": 119,
      "chip": "ym2612"
    },
    {
      "channel": 4,
      "note": 85,
      "start": 30.7231,
      "duration": 0.1076,
      "velocity": 119,
      "chip": "ym2612"
    },
    {
      "channel": 2,
      "note": 52,
      "start": 30.9345,
      "duration": 0.2295,
      "velocity": 115,
      "chip": "ym2612"
    },
    {
      "channel": 0,
      "note": 81,
      "start": 30.9372,
      "duration": 0.1099,
      "velocity": 119,
      "chip": "ym2612"
    },
    {
      "channel": 4,
      "note": 85,
      "start": 30.9398,
      "duration": 0.1076,
      "velocity": 119,
      "chip": "ym2612"
    },
    {
      "channel": 2,
      "note": 57,
      "start": 31.1679,
      "duration": 0.213,
      "velocity": 115,
      "chip": "ym2612"
    },
    {
      "channel": 2,
      "note": 59,
      "start": 31.3847,
      "duration": 0.2128,
      "velocity": 115,
      "chip": "ym2612"
    },
    {
      "channel": 1,
      "note": 76,
      "start": 31.3879,
      "duration": 1.4593,
      "velocity": 88,
      "chip": "ym2612"
    },
    {
      "channel": 2,
      "note": 57,
      "start": 31.6012,
      "duration": 0.2129,
      "velocity": 115,
      "chip": "ym2612"
    },
    {
      "channel": 0,
      "note": 86,
      "start": 31.6177,
      "duration": 0.0961,
      "velocity": 119,
      "chip": "ym2612"
    },
    {
      "channel": 4,
      "note": 83,
      "start": 31.6202,
      "duration": 0.0938,
      "velocity": 119,
      "chip": "ym2612"
    },
    {
      "channel": 2,
      "note": 56,
      "start": 31.8183,
      "duration": 0.2125,
      "velocity": 115,
      "chip": "ym2612"
    },
    {
      "channel": 0,
      "note": 83,
      "start": 31.8214,
      "duration": 0.0924,
      "velocity": 119,
      "chip": "ym2612"
    },
    {
      "channel": 4,
      "note": 86,
      "start": 31.8239,
      "duration": 0.0901,
      "velocity": 119,
      "chip": "ym2612"
    },
    {
      "channel": 2,
      "note": 54,
      "start": 32.0346,
      "duration": 0.2128,
      "velocity": 115,
      "chip": "ym2612"
    },
    {
      "channel": 2,
      "note": 52,
      "start": 32.2512,
      "duration": 0.2129,
      "velocity": 115,
      "chip": "ym2612"
    },
    {
      "channel": 2,
      "note": 54,
      "start": 32.4679,
      "duration": 0.2129,
      "velocity": 115,
      "chip": "ym2612"
    },
    {
      "channel": 0,
      "note": 83,
      "start": 32.4705,
      "duration": 0.1099,
      "velocity": 119,
      "chip": "ym2612"
    },
    {
      "channel": 4,
      "note": 86,
      "start": 32.4731,
      "duration": 0.1077,
      "velocity": 119,
      "chip": "ym2612"
    },
    {
      "channel": 2,
      "note": 52,
      "start": 32.6846,
      "duration": 0.2128,
      "velocity": 115,
      "chip": "ym2612"
    },
    {
      "channel": 0,
      "note": 83,
      "start": 32.6873,
      "duration": 0.1099,
      "velocity": 119,
      "chip": "ym2612"
    },
    {
      "channel": 4,
      "note": 86,
      "start": 32.6898,
      "duration": 0.1076,
      "velocity": 119,
      "chip": "ym2612"
    },
    {
      "channel": 2,
      "note": 50,
      "start": 32.9012,
      "duration": 0.213,
      "velocity": 115,
      "chip": "ym2612"
    },
    {
      "channel": 1,
      "note": 80,
      "start": 32.9042,
      "duration": 0.2097,
      "velocity": 88,
      "chip": "ym2612"
    },
    {
      "channel": 2,
      "note": 49,
      "start": 33.118,
      "duration": 0.2128,
      "velocity": 115,
      "chip": "ym2612"
    },
    {
      "channel": 1,
      "note": 76,
      "start": 33.1209,
      "duration": 0.8763,
      "velocity": 88,
      "chip": "ym2612"
    },
    {
      "channel": 2,
      "note": 52,
      "start": 33.3345,
      "duration": 0.213,
      "velocity": 115,
      "chip": "ym2612"
    },
    {
      "channel": 0,
      "note": 81,
      "start": 33.3372,
      "duration": 0.1099,
      "velocity": 119,
      "chip": "ym2612"
    },
    {
      "channel": 4,
      "note": 85,
      "start": 33.3398,
      "duration": 0.1076,
      "velocity": 119,
      "chip": "ym2612"
    },
    {
      "channel": 2,
      "note": 57,
      "start": 33.5513,
      "duration": 0.2127,
      "velocity": 115,
      "chip": "ym2612"
    },
    {
      "channel": 0,
      "note": 81,
      "start": 33.5543,
      "duration": 0.1095,
      "velocity": 119,
      "chip": "ym2612"
    },
    {
      "channel": 4,
      "note": 85,
      "start": 33.5569,
      "duration": 0.1072,
      "velocity": 119,
      "chip": "ym2612"
    },
    {
      "channel": 2,
      "note": 52,
      "start": 33.7679,
      "duration": 0.2297,
      "velocity": 115,
      "chip": "ym2612"
    },
    {
      "channel": 2,
      "note": 45,
      "start": 34.0014,
      "duration": 0.2127,
      "velocity": 115,
      "chip": "ym2612"
    },
    {
      "channel": 1,
      "note": 73,
      "start": 34.004,
      "duration": 0.8599,
      "velocity": 88,
      "chip": "ym2612"
    },
    {
      "channel": 2,
      "note": 49,
      "start": 34.2179,
      "duration": 0.2129,
      "velocity": 115,
      "chip": "ym2612"
    },
    {
      "channel": 0,
      "note": 81,
      "start": 34.2205,
      "duration": 0.0933,
      "velocity": 119,
      "chip": "ym2612"
    },
    {
      "channel": 4,
      "note": 85,
      "start": 34.2231,
      "duration": 0.091,
      "velocity": 119,
      "chip": "ym2612"
    },
    {
      "channel": 2,
      "note": 52,
      "start": 34.4345,
      "duration": 0.2129,
      "velocity": 115,
      "chip": "ym2612"
    },
    {
      "channel": 0,
      "note": 81,
      "start": 34.4372,
      "duration": 0.0933,
      "velocity": 119,
      "chip": "ym2612"
    },
    {
      "channel": 4,
      "note": 85,
      "start": 34.4398,
      "duration": 0.091,
      "velocity": 119,
      "chip": "ym2612"
    },
    {
      "channel": 2,
      "note": 57,
      "start": 34.6512,
      "duration": 0.213,
      "velocity": 115,
      "chip": "ym2612"
    },
    {
      "channel": 2,
      "note": 59,
      "start": 34.868,
      "duration": 0.2129,
      "velocity": 115,
      "chip": "ym2612"
    },
    {
      "channel": 1,
      "note": 71,
      "start": 34.8714,
      "duration": 0.6425,
      "velocity": 88,
      "chip": "ym2612"
    },
    {
      "channel": 2,
      "note": 57,
      "start": 35.0847,
      "duration": 0.2128,
      "velocity": 115,
      "chip": "ym2612"
    },
    {
      "channel": 0,
      "note": 86,
      "start": 35.101,
      "duration": 0.0963,
      "velocity": 119,
      "chip": "ym2612"
    },
    {
      "channel": 4,
      "note": 83,
      "start": 35.1035,
      "duration": 0.094,
      "velocity": 119,
      "chip": "ym2612"
    },
    {
      "channel": 2,
      "note": 56,
      "start": 35.3016,
      "duration": 0.2127,
      "velocity": 115,
      "chip": "ym2612"
    },
    {
      "channel": 0,
      "note": 83,
      "start": 35.3046,
      "duration": 0.0925,
      "velocity": 119,
      "chip": "ym2612"
    },
    {
      "channel": 4,
      "note": 86,
      "start": 35.3072,
      "duration": 0.0902,
      "velocity": 119,
      "chip": "ym2612"
    },
    {
      "channel": 2,
      "note": 54,
      "start": 35.5181,
      "duration": 0.2128,
      "velocity": 115,
      "chip": "ym2612"
    },
    {
      "channel": 1,
      "note": 71,
      "start": 35.521,
      "duration": 0.2096,
      "velocity": 88,
      "chip": "ym2612"
    },
    {
      "channel": 2,
      "note": 52,
      "start": 35.7347,
      "duration": 0.2127,
      "velocity": 115,
      "chip": "ym2612"
    },
    {
      "channel": 1,
      "note": 59,
      "start": 35.7377,
      "duration": 0.4262,
      "velocity": 88,
      "chip": "ym2612"
    },
    {
      "channel": 2,
      "note": 54,
      "start": 35.9513,
      "duration": 0.2129,
      "velocity": 115,
      "chip": "ym2612"
    },
    {
      "channel": 0,
      "note": 83,
      "start": 35.9539,
      "duration": 0.1099,
      "velocity": 119,
      "chip": "ym2612"
    },
    {
      "channel": 4,
      "note": 86,
      "start": 35.9565,
      "duration": 0.1076,
      "velocity": 119,
      "chip": "ym2612"
    },
    {
      "channel": 2,
      "note": 52,
      "start": 36.168,
      "duration": 0.2128,
      "velocity": 115,
      "chip": "ym2612"
    },
    {
      "channel": 0,
      "note": 83,
      "start": 36.1707,
      "duration": 0.1099,
      "velocity": 119,
      "chip": "ym2612"
    },
    {
      "channel": 4,
      "note": 86,
      "start": 36.1732,
      "duration": 0.1076,
      "velocity": 119,
      "chip": "ym2612"
    },
    {
      "channel": 1,
      "note": 64,
      "start": 36.176,
      "duration": 0.2045,
      "velocity": 88,
      "chip": "ym2612"
    },
    {
      "channel": 2,
      "note": 50,
      "start": 36.3846,
      "duration": 0.2129,
      "velocity": 115,
      "chip": "ym2612"
    },
    {
      "channel": 1,
      "note": 68,
      "start": 36.3873,
      "duration": 0.2099,
      "velocity": 88,
      "chip": "ym2612"
    },
    {
      "channel": 2,
      "note": 49,
      "start": 36.6013,
      "duration": 0.2128,
      "velocity": 115,
      "chip": "ym2612"
    },
    {
      "channel": 1,
      "note": 69,
      "start": 36.6049,
      "duration": 1.7424,
      "velocity": 88,
      "chip": "ym2612"
    },
    {
      "channel": 2,
      "note": 52,
      "start": 36.8179,
      "duration": 0.2295,
      "velocity": 115,
      "chip": "ym2612"
    },
    {
      "channel": 0,
      "note": 81,
      "start": 36.8205,
      "duration": 0.1099,
      "velocity": 119,
      "chip": "ym2612"
    },
    {
      "channel": 4,
      "note": 85,
      "start": 36.8231,
      "duration": 0.1076,
      "velocity": 119,
      "chip": "ym2612"
    },
    {
      "channel": 2,
      "note": 57,
      "start": 37.0512,
      "duration": 0.2129,
      "velocity": 115,
      "chip": "ym2612"
    },
    {
      "channel": 0,
      "note": 81,
      "start": 37.0543,
      "duration": 0.0929,
      "velocity": 119,
      "chip": "ym2612"
    },
    {
      "channel": 4,
      "note": 85,
      "start": 37.0568,
      "duration": 0.0906,
      "velocity": 119,
      "chip": "ym2612"
    },
    {
      "channel": 2,
      "note": 52,
      "start": 37.2679,
      "duration": 0.2128,
      "velocity": 115,
      "chip": "ym2612"
    },
    {
      "channel": 2,
      "note": 45,
      "start": 37.4845,
      "duration": 0.2129,
      "velocity": 115,
      "chip": "ym2612"
    },
    {
      "channel": 2,
      "note": 49,
      "start": 37.7012,
      "duration": 0.2129,
      "velocity": 115,
      "chip": "ym2612"
    },
    {
      "channel": 0,
      "note": 81,
      "start": 37.7039,
      "duration": 0.0933,
      "velocity": 119,
      "chip": "ym2612"
    },
    {
      "channel": 4,
      "note": 85,
      "start": 37.7064,
      "duration": 0.091,
      "velocity": 119,
      "chip": "ym2612"
    },
    {
      "channel": 2,
      "note": 52,
      "start": 37.9179,
      "duration": 0.2129,
      "velocity": 115,
      "chip": "ym2612"
    },
    {
      "channel": 0,
      "note": 81,
      "start": 37.9205,
      "duration": 0.0933,
      "velocity": 119,
      "chip": "ym2612"
    },
    {
      "channel": 4,
      "note": 85,
      "start": 37.9232,
      "duration": 0.0908,
      "velocity": 119,
      "chip": "ym2612"
    },
    {
      "channel": 2,
      "note": 57,
      "start": 38.1346,
      "duration": 0.213,
      "velocity": 115,
      "chip": "ym2612"
    },
    {
      "channel": 3,
      "note": 59,
      "start": 38.351,
      "duration": 0.2131,
      "velocity": 92,
      "chip": "ym2612"
    },
    {
      "channel": 5,
      "note": 76,
      "start": 38.3544,
      "duration": 1.4595,
      "velocity": 92,
      "chip": "ym2612"
    },
    {
      "channel": 0,
      "note": 74,
      "start": 38.3582,
      "duration": 0.2057,
      "velocity": 126,
      "chip": "ym2612"
    },
    {
      "channel": 2,
      "note": 59,
      "start": 38.3611,
      "duration": 0.2032,
      "velocity": 115,
      "chip": "ym2612"
    },
    {
      "channel": 3,
      "note": 57,
      "start": 38.5671,
      "duration": 0.2137,
      "velocity": 92,
      "chip": "ym2612"
    },
    {
      "channel": 0,
      "note": 74,
      "start": 38.5707,
      "duration": 0.1098,
      "velocity": 126,
      "chip": "ym2612"
    },
    {
      "channel": 2,
      "note": 57,
      "start": 38.5735,
      "duration": 0.2075,
      "velocity": 115,
      "chip": "ym2612"
    },
    {
      "channel": 0,
      "note": 74,
      "start": 38.684,
      "duration": 0.0965,
      "velocity": 126,
      "chip": "ym2612"
    },
    {
      "channel": 3,
      "note": 56,
      "start": 38.7838,
      "duration": 0.2135,
      "velocity": 92,
      "chip": "ym2612"
    },
    {
      "channel": 0,
      "note": 74,
      "start": 38.787,
      "duration": 0.2102,
      "velocity": 126,
      "chip": "ym2612"
    },
    {
      "channel": 2,
      "note": 56,
      "start": 38.7902,
      "duration": 0.2074,
      "velocity": 115,
      "chip": "ym2612"
    },
    {
      "channel": 3,
      "note": 54,
      "start": 39.0003,
      "duration": 0.2138,
      "velocity": 92,
      "chip": "ym2612"
    },
    {
      "channel": 0,
      "note": 74,
      "start": 39.0036,
      "duration": 0.1103,
      "velocity": 126,
      "chip": "ym2612"
    },
    {
      "channel": 2,
      "note": 54,
      "start": 39.0064,
      "duration": 0.208,
      "velocity": 115,
      "chip": "ym2612"
    },
    {
      "channel": 0,
      "note": 74,
      "start": 39.1174,
      "duration": 0.0964,
      "velocity": 126,
      "chip": "ym2612"
    },
    {
      "channel": 3,
      "note": 52,
      "start": 39.2171,
      "duration": 0.2136,
      "velocity": 92,
      "chip": "ym2612"
    },
    {
      "channel": 0,
      "note": 74,
      "start": 39.2203,
      "duration": 0.2102,
      "velocity": 126,
      "chip": "ym2612"
    },
    {
      "channel": 2,
      "note": 52,
      "start": 39.2232,
      "duration": 0.2078,
      "velocity": 115,
      "chip": "ym2612"
    },
    {
      "channel": 3,
      "note": 54,
      "start": 39.4337,
      "duration": 0.2136,
      "velocity": 92,
      "chip": "ym2612"
    },
    {
      "channel": 0,
      "note": 74,
      "start": 39.437,
      "duration": 0.1102,
      "velocity": 126,
      "chip": "ym2612"
    },
    {
      "channel": 2,
      "note": 54,
      "start": 39.4398,
      "duration": 0.2078,
      "velocity": 115,
      "chip": "ym2612"
    },
    {
      "channel": 0,
      "note": 74,
      "start": 39.5512,
      "duration": 0.096,
      "velocity": 126,
      "chip": "ym2612"
    },
    {
      "channel": 3,
      "note": 52,
      "start": 39.6503,
      "duration": 0.2137,
      "velocity": 92,
      "chip": "ym2612"
    },
    {
      "channel": 0,
      "note": 74,
      "start": 39.6536,
      "duration": 0.2102,
      "velocity": 126,
      "chip": "ym2612"
    },
    {
      "channel": 2,
      "note": 52,
      "start": 39.6564,
      "duration": 0.2078,
      "velocity": 115,
      "chip": "ym2612"
    },
    {
      "channel": 3,
      "note": 50,
      "start": 39.867,
      "duration": 0.2304,
      "velocity": 92,
      "chip": "ym2612"
    },
    {
      "channel": 5,
      "note": 80,
      "start": 39.8701,
      "duration": 0.2275,
      "velocity": 92,
      "chip": "ym2612"
    },
    {
      "channel": 0,
      "note": 74,
      "start": 39.873,
      "duration": 0.1076,
      "velocity": 126,
      "chip": "ym2612"
    },
    {
      "channel": 2,
      "note": 50,
      "start": 39.8758,
      "duration": 0.2219,
      "velocity": 115,
      "chip": "ym2612"
    },
    {
      "channel": 0,
      "note": 74,
      "start": 39.984,
      "duration": 0.1132,
      "velocity": 126,
      "chip": "ym2612"
    },
    {
      "channel": 3,
      "note": 49,
      "start": 40.1005,
      "duration": 0.2136,
      "velocity": 92,
      "chip": "ym2612"
    },
    {
      "channel": 5,
      "note": 76,
      "start": 40.1039,
      "duration": 0.8603,
      "velocity": 92,
      "chip": "ym2612"
    },
    {
      "channel": 0,
      "note": 74,
      "start": 40.1068,
      "duration": 0.2071,
      "velocity": 126,
      "chip": "ym2612"
    },
    {
      "channel": 2,
      "note": 49,
      "start": 40.1097,
      "duration": 0.2046,
      "velocity": 115,
      "chip": "ym2612"
    },
    {
      "channel": 3,
      "note": 52,
      "start": 40.3171,
      "duration": 0.2136,
      "velocity": 92,
      "chip": "ym2612"
    },
    {
      "channel": 0,
      "note": 74,
      "start": 40.3203,
      "duration": 0.0936,
      "velocity": 126,
      "chip": "ym2612"
    },
    {
      "channel": 2,
      "note": 52,
      "start": 40.3232,
      "duration": 0.2078,
      "velocity": 115,
      "chip": "ym2612"
    },
    {
      "channel": 0,
      "note": 74,
      "start": 40.4174,
      "duration": 0.1131,
      "velocity": 126,
      "chip": "ym2612"
    },
    {
      "channel": 3,
      "note": 57,
      "start": 40.5337,
      "duration": 0.2137,
      "velocity": 92,
      "chip": "ym2612"
    },
    {
      "channel": 0,
      "note": 74,
      "start": 40.5373,
      "duration": 0.2099,
      "velocity": 126,
      "chip": "ym2612"
    },
    {
      "channel": 2,
      "note": 57,
      "start": 40.5401,
      "duration": 0.2074,
      "velocity": 115,
      "chip": "ym2612"
    },
    {
      "channel": 3,
      "note": 52,
      "start": 40.7503,
      "duration": 0.2137,
      "velocity": 92,
      "chip": "ym2612"
    },
    {
      "channel": 0,
      "note": 74,
      "start": 40.7536,
      "duration": 0.0937,
      "velocity": 126,
      "chip": "ym2612"
    },
    {
      "channel": 2,
      "note": 52,
      "start": 40.7564,
      "duration": 0.208,
      "velocity": 115,
      "chip": "ym2612"
    },
    {
      "channel": 0,
      "note": 74,
      "start": 40.8507,
      "duration": 0.1132,
      "velocity": 126,
      "chip": "ym2612"
    },
    {
      "channel": 3,
      "note": 45,
      "start": 40.9671,
      "duration": 0.2135,
      "velocity": 92,
      "chip": "ym2612"
    },
    {
      "channel": 5,
      "note": 73,
      "start": 40.9699,
      "duration": 0.8611,
      "velocity": 92,
      "chip": "ym2612"
    },
    {
      "channel": 0,
      "note": 74,
      "start": 40.9728,
      "duration": 0.2077,
      "velocity": 126,
      "chip": "ym2612"
    },
    {
      "channel": 2,
      "note": 45,
      "start": 40.9756,
      "duration": 0.2053,
      "velocity": 115,
      "chip": "ym2612"
    },
    {
      "channel": 3,
      "note": 49,
      "start": 41.1837,
      "duration": 0.2137,
      "velocity": 92,
      "chip": "ym2612"
    },
    {
      "channel": 0,
      "note": 74,
      "start": 41.1869,
      "duration": 0.0937,
      "velocity": 126,
      "chip": "ym2612"
    },
    {
      "channel": 2,
      "note": 49,
      "start": 41.1898,
      "duration": 0.2079,
      "velocity": 115,
      "chip": "ym2612"
    },
    {
      "channel": 0,
      "note": 74,
      "start": 41.2841,
      "duration": 0.1131,
      "velocity": 126,
      "chip": "ym2612"
    },
    {
      "channel": 3,
      "note": 52,
      "start": 41.4004,
      "duration": 0.2137,
      "velocity": 92,
      "chip": "ym2612"
    },
    {
      "channel": 0,
      "note": 74,
      "start": 41.4036,
      "duration": 0.2102,
      "velocity": 126,
      "chip": "ym2612"
    },
    {
      "channel": 2,
      "note": 52,
      "start": 41.4065,
      "duration": 0.2078,
      "velocity": 115,
      "chip": "ym2612"
    },
    {
      "channel": 3,
      "note": 57,
      "start": 41.6174,
      "duration": 0.2134,
      "velocity": 92,
      "chip": "ym2612"
    },
    {
      "channel": 0,
      "note": 74,
      "start": 41.621,
      "duration": 0.1095,
      "velocity": 126,
      "chip": "ym2612"
    },
    {
      "channel": 2,
      "note": 57,
      "start": 41.6239,
      "duration": 0.2073,
      "velocity": 115,
      "chip": "ym2612"
    },
    {
      "channel": 0,
      "note": 74,
      "start": 41.734,
      "duration": 0.0966,
      "velocity": 126,
      "chip": "ym2612"
    },
    {
      "channel": 3,
      "note": 59,
      "start": 41.8338,
      "duration": 0.2136,
      "velocity": 92,
      "chip": "ym2612"
    },
    {
      "channel": 5,
      "note": 74,
      "start": 41.8372,
      "duration": 1.4768,
      "velocity": 92,
      "chip": "ym2612"
    },
    {
      "channel": 0,
      "note": 74,
      "start": 41.8401,
      "duration": 0.2071,
      "velocity": 126,
      "chip": "ym2612"
    },
    {
      "channel": 2,
      "note": 59,
      "start": 41.843,
      "duration": 0.2047,
      "velocity": 115,
      "chip": "ym2612"
    },
    {
      "channel": 3,
      "note": 57,
      "start": 42.0505,
      "duration": 0.2137,
      "velocity": 92,
      "chip": "ym2612"
    },
    {
      "channel": 0,
      "note": 74,
      "start": 42.0536,
      "duration": 0.1102,
      "velocity": 126,
      "chip": "ym2612"
    },
    {
      "channel": 2,
      "note": 57,
      "start": 42.0565,
      "duration": 0.2079,
      "velocity": 115,
      "chip": "ym2612"
    },
    {
      "channel": 0,
      "note": 74,
      "start": 42.1674,
      "duration": 0.0964,
      "velocity": 126,
      "chip": "ym2612"
    },
    {
      "channel": 3,
      "note": 56,
      "start": 42.2671,
      "duration": 0.2135,
      "velocity": 92,
      "chip": "ym2612"
    },
    {
      "channel": 0,
      "note": 74,
      "start": 42.2703,
      "duration": 0.2102,
      "velocity": 126,
      "chip": "ym2612"
    },
    {
      "channel": 2,
      "note": 56,
      "start": 42.2735,
      "duration": 0.2074,
      "velocity": 115,
      "chip": "ym2612"
    },
    {
      "channel": 3,
      "note": 54,
      "start": 42.4837,
      "duration": 0.2137,
      "velocity": 92,
      "chip": "ym2612"
    },
    {
      "channel": 0,
      "note": 74,
      "start": 42.4872,
      "duration": 0.1099,
      "velocity": 126,
      "chip": "ym2612"
    },
    {
      "channel": 2,
      "note": 54,
      "start": 42.4901,
      "duration": 0.2074,
      "velocity": 115,
      "chip": "ym2612"
    },
    {
      "channel": 0,
      "note": 74,
      "start": 42.6007,
      "duration": 0.0964,
      "velocity": 126,
      "chip": "ym2612"
    },
    {
      "channel": 3,
      "note": 52,
      "start": 42.7003,
      "duration": 0.2137,
      "velocity": 92,
      "chip": "ym2612"
    },
    {
      "channel": 0,
      "note": 74,
      "start": 42.7036,
      "duration": 0.2103,
      "velocity": 126,
      "chip": "ym2612"
    },
    {
      "channel": 2,
      "note": 52,
      "start": 42.7064,
      "duration": 0.2079,
      "velocity": 115,
      "chip": "ym2612"
    },
    {
      "channel": 3,
      "note": 54,
      "start": 42.9171,
      "duration": 0.2303,
      "velocity": 92,
      "chip": "ym2612"
    },
    {
      "channel": 0,
      "note": 74,
      "start": 42.9202,
      "duration": 0.1102,
      "velocity": 126,
      "chip": "ym2612"
    },
    {
      "channel": 2,
      "note": 54,
      "start": 42.9231,
      "duration": 0.2246,
      "velocity": 115,
      "chip": "ym2612"
    },
    {
      "channel": 0,
      "note": 74,
      "start": 43.034,
      "duration": 0.1132,
      "velocity": 126,
      "chip": "ym2612"
    },
    {
      "channel": 3,
      "note": 52,
      "start": 43.1504,
      "duration": 0.2137,
      "velocity": 92,
      "chip": "ym2612"
    },
    {
      "channel": 0,
      "note": 74,
      "start": 43.1536,
      "duration": 0.2102,
      "velocity": 126,
      "chip": "ym2612"
    },
    {
      "channel": 2,
      "note": 52,
      "start": 43.1565,
      "duration": 0.2078,
      "velocity": 115,
      "chip": "ym2612"
    },
    {
      "channel": 3,
      "note": 50,
      "start": 43.3671,
      "duration": 0.2136,
      "velocity": 92,
      "chip": "ym2612"
    },
    {
      "channel": 5,
      "note": 76,
      "start": 43.3701,
      "duration": 0.2107,
      "velocity": 92,
      "chip": "ym2612"
    },
    {
      "channel": 0,
      "note": 74,
      "start": 43.373,
      "duration": 0.0908,
      "velocity": 126,
      "chip": "ym2612"
    },
    {
      "channel": 2,
      "note": 50,
      "start": 43.3759,
      "duration": 0.2051,
      "velocity": 115,
      "chip": "ym2612"
    },
    {
      "channel": 0,
      "note": 74,
      "start": 43.4674,
      "duration": 0.1131,
      "velocity": 126,
      "chip": "ym2612"
    },
    {
      "channel": 3,
      "note": 49,
      "start": 43.5837,
      "duration": 0.2136,
      "velocity": 92,
      "chip": "ym2612"
    },
    {
      "channel": 5,
      "note": 73,
      "start": 43.5868,
      "duration": 0.8607,
      "velocity": 92,
      "chip": "ym2612"
    },
    {
      "channel": 0,
      "note": 74,
      "start": 43.5901,
      "duration": 0.2071,
      "velocity": 126,
      "chip": "ym2612"
    },
    {
      "channel": 2,
      "note": 49,
      "start": 43.5929,
      "duration": 0.2046,
      "velocity": 115,
      "chip": "ym2612"
    },
    {
      "channel": 3,
      "note": 52,
      "start": 43.8003,
      "duration": 0.2137,
      "velocity": 92,
      "chip": "ym2612"
    },
    {
      "channel": 0,
      "note": 74,
      "start": 43.8036,
      "duration": 0.0937,
      "velocity": 126,
      "chip": "ym2612"
    },
    {
      "channel": 2,
      "note": 52,
      "start": 43.8064,
      "duration": 0.2078,
      "velocity": 115,
      "chip": "ym2612"
    },
    {
      "channel": 0,
      "note": 74,
      "start": 43.9007,
      "duration": 0.1131,
      "velocity": 126,
      "chip": "ym2612"
    },
    {
      "channel": 3,
      "note": 57,
      "start": 44.017,
      "duration": 0.2137,
      "velocity": 92,
      "chip": "ym2612"
    },
    {
      "channel": 0,
      "note": 74,
      "start": 44.0202,
      "duration": 0.2103,
      "velocity": 126,
      "chip": "ym2612"
    },
    {
      "channel": 2,
      "note": 57,
      "start": 44.0231,
      "duration": 0.2079,
      "velocity": 115,
      "chip": "ym2612"
    },
    {
      "channel": 3,
      "note": 52,
      "start": 44.2337,
      "duration": 0.2137,
      "velocity": 92,
      "chip": "ym2612"
    },
    {
      "channel": 0,
      "note": 74,
      "start": 44.2369,
      "duration": 0.0937,
      "velocity": 126,
      "chip": "ym2612"
    },
    {
      "channel": 2,
      "note": 52,
      "start": 44.2398,
      "duration": 0.208,
      "velocity": 115,
      "chip": "ym2612"
    },
    {
      "channel": 0,
      "note": 74,
      "start": 44.3341,
      "duration": 0.1131,
      "velocity": 126,
      "chip": "ym2612"
    },
    {
      "channel": 3,
      "note": 45,
      "start": 44.4505,
      "duration": 0.2136,
      "velocity": 92,
      "chip": "ym2612"
    },
    {
      "channel": 5,
      "note": 76,
      "start": 44.4532,
      "duration": 0.861,
      "velocity": 92,
      "chip": "ym2612"
    },
    {
      "channel": 0,
      "note": 74,
      "start": 44.4565,
      "duration": 0.2074,
      "velocity": 126,
      "chip": "ym2612"
    },
    {
      "channel": 2,
      "note": 45,
      "start": 44.4593,
      "duration": 0.205,
      "velocity": 115,
      "chip": "ym2612"
    },
    {
      "channel": 3,
      "note": 49,
      "start": 44.6671,
      "duration": 0.2137,
      "velocity": 92,
      "chip": "ym2612"
    },
    {
      "channel": 0,
      "note": 74,
      "start": 44.6702,
      "duration": 0.1104,
      "velocity": 126,
      "chip": "ym2612"
    },
    {
      "channel": 2,
      "note": 49,
      "start": 44.6731,
      "duration": 0.2079,
      "velocity": 115,
      "chip": "ym2612"
    },
    {
      "channel": 0,
      "note": 74,
      "start": 44.7841,
      "duration": 0.0964,
      "velocity": 126,
      "chip": "ym2612"
    },
    {
      "channel": 3,
      "note": 52,
      "start": 44.8837,
      "duration": 0.2137,
      "velocity": 92,
      "chip": "ym2612"
    },
    {
      "channel": 0,
      "note": 74,
      "start": 44.8869,
      "duration": 0.2103,
      "velocity": 126,
      "chip": "ym2612"
    },
    {
      "channel": 2,
      "note": 52,
      "start": 44.8898,
      "duration": 0.2079,
      "velocity": 115,
      "chip": "ym2612"
    },
    {
      "channel": 3,
      "note": 57,
      "start": 45.1008,
      "duration": 0.2133,
      "velocity": 92,
      "chip": "ym2612"
    },
    {
      "channel": 0,
      "note": 74,
      "start": 45.1039,
      "duration": 0.1099,
      "velocity": 126,
      "chip": "ym2612"
    },
    {
      "channel": 2,
      "note": 57,
      "start": 45.1068,
      "duration": 0.2076,
      "velocity": 115,
      "chip": "ym2612"
    },
    {
      "channel": 0,
      "note": 74,
      "start": 45.2174,
      "duration": 0.0965,
      "velocity": 126,
      "chip": "ym2612"
    },
    {
      "channel": 3,
      "note": 59,
      "start": 45.3171,
      "duration": 0.2136,
      "velocity": 92,
      "chip": "ym2612"
    },
    {
      "channel": 5,
      "note": 76,
      "start": 45.3209,
      "duration": 1.4766,
      "velocity": 92,
      "chip": "ym2612"
    },
    {
      "channel": 0,
      "note": 74,
      "start": 45.3237,
      "duration": 0.2068,
      "velocity": 126,
      "chip": "ym2612"
    },
    {
      "channel": 2,
      "note": 59,
      "start": 45.3266,
      "duration": 0.2043,
      "velocity": 115,
      "chip": "ym2612"
    },
    {
      "channel": 3,
      "note": 57,
      "start": 45.5337,
      "duration": 0.2137,
      "velocity": 92,
      "chip": "ym2612"
    },
    {
      "channel": 0,
      "note": 74,
      "start": 45.5373,
      "duration": 0.1099,
      "velocity": 126,
      "chip": "ym2612"
    },
    {
      "channel": 2,
      "note": 57,
      "start": 45.5401,
      "duration": 0.2075,
      "velocity": 115,
      "chip": "ym2612"
    },
    {
      "channel": 0,
      "note": 74,
      "start": 45.6508,
      "duration": 0.0964,
      "velocity": 126,
      "chip": "ym2612"
    },
    {
      "channel": 3,
      "note": 56,
      "start": 45.7504,
      "duration": 0.2137,
      "velocity": 92,
      "chip": "ym2612"
    },
    {
      "channel": 0,
      "note": 74,
      "start": 45.7536,
      "duration": 0.2103,
      "velocity": 126,
      "chip": "ym2612"
    },
    {
      "channel": 2,
      "note": 56,
      "start": 45.7568,
      "duration": 0.2075,
      "velocity": 115,
      "chip": "ym2612"
    },
    {
      "channel": 3,
      "note": 54,
      "start": 45.9671,
      "duration": 0.2303,
      "velocity": 92,
      "chip": "ym2612"
    },
    {
      "channel": 0,
      "note": 74,
      "start": 45.9702,
      "duration": 0.1103,
      "velocity": 126,
      "chip": "ym2612"
    },
    {
      "channel": 2,
      "note": 54,
      "start": 45.9731,
      "duration": 0.2245,
      "velocity": 115,
      "chip": "ym2612"
    },
    {
      "channel": 0,
      "note": 74,
      "start": 46.084,
      "duration": 0.1131,
      "velocity": 126,
      "chip": "ym2612"
    },
    {
      "channel": 3,
      "note": 52,
      "start": 46.2003,
      "duration": 0.2137,
      "velocity": 92,
      "chip": "ym2612"
    },
    {
      "channel": 0,
      "note": 74,
      "start": 46.2035,
      "duration": 0.2104,
      "velocity": 126,
      "chip": "ym2612"
    },
    {
      "channel": 2,
      "note": 52,
      "start": 46.2064,
      "duration": 0.2079,
      "velocity": 115,
      "chip": "ym2612"
    },
    {
      "channel": 3,
      "note": 54,
      "start": 46.4171,
      "duration": 0.2136,
      "velocity": 92,
      "chip": "ym2612"
    },
    {
      "channel": 0,
      "note": 74,
      "start": 46.4202,
      "duration": 0.0937,
      "velocity": 126,
      "chip": "ym2612"
    },
    {
      "channel": 2,
      "note": 54,
      "start": 46.4231,
      "duration": 0.2078,
      "velocity": 115,
      "chip": "ym2612"
    },
    {
      "channel": 0,
      "note": 74,
      "start": 46.5178,
      "duration": 0.1127,
      "velocity": 126,
      "chip": "ym2612"
    },
    {
      "channel": 3,
      "note": 52,
      "start": 46.6337,
      "duration": 0.2137,
      "velocity": 92,
      "chip": "ym2612"
    },
    {
      "channel": 0,
      "note": 74,
      "start": 46.6369,
      "duration": 0.2103,
      "velocity": 126,
      "chip": "ym2612"
    },
    {
      "channel": 2,
      "note": 52,
      "start": 46.6398,
      "duration": 0.2079,
      "velocity": 115,
      "chip": "ym2612"
    },
    {
      "channel": 3,
      "note": 50,
      "start": 46.8504,
      "duration": 0.2136,
      "velocity": 92,
      "chip": "ym2612"
    },
    {
      "channel": 5,
      "note": 80,
      "start": 46.8535,
      "duration": 0.2107,
      "velocity": 92,
      "chip": "ym2612"
    },
    {
      "channel": 0,
      "note": 74,
      "start": 46.8564,
      "duration": 0.0908,
      "velocity": 126,
      "chip": "ym2612"
    },
    {
      "channel": 2,
      "note": 50,
      "start": 46.8593,
      "duration": 0.2051,
      "velocity": 115,
      "chip": "ym2612"
    },
    {
      "channel": 0,
      "note": 74,
      "start": 46.9507,
      "duration": 0.1131,
      "velocity": 126,
      "chip": "ym2612"
    },
    {
      "channel": 3,
      "note": 49,
      "start": 47.0671,
      "duration": 0.2135,
      "velocity": 92,
      "chip": "ym2612"
    },
    {
      "channel": 5,
      "note": 76,
      "start": 47.0702,
      "duration": 0.8607,
      "velocity": 92,
      "chip": "ym2612"
    },
    {
      "channel": 0,
      "note": 74,
      "start": 47.073,
      "duration": 0.2074,
      "velocity": 126,
      "chip": "ym2612"
    },
    {
      "channel": 2,
      "note": 49,
      "start": 47.076,
      "duration": 0.2049,
      "velocity": 115,
      "chip": "ym2612"
    },
    {
      "channel": 3,
      "note": 52,
      "start": 47.2837,
      "duration": 0.2137,
      "velocity": 92,
      "chip": "ym2612"
    },
    {
      "channel": 0,
      "note": 74,
      "start": 47.2869,
      "duration": 0.0937,
      "velocity": 126,
      "chip": "ym2612"
    },
    {
      "channel": 2,
      "note": 52,
      "start": 47.2898,
      "duration": 0.2078,
      "velocity": 115,
      "chip": "ym2612"
    },
    {
      "channel": 0,
      "note": 74,
      "start": 47.384,
      "duration": 0.1132,
      "velocity": 126,
      "chip": "ym2612"
    },
    {
      "channel": 3,
      "note": 57,
      "start": 47.5004,
      "duration": 0.2137,
      "velocity": 92,
      "chip": "ym2612"
    },
    {
      "channel": 0,
      "note": 74,
      "start": 47.5039,
      "duration": 0.2099,
      "velocity": 126,
      "chip": "ym2612"
    },
    {
      "channel": 2,
      "note": 57,
      "start": 47.5068,
      "duration": 0.2075,
      "velocity": 115,
      "chip": "ym2612"
    },
    {
      "channel": 3,
      "note": 52,
      "start": 47.7171,
      "duration": 0.2137,
      "velocity": 92,
      "chip": "ym2612"
    },
    {
      "channel": 0,
      "note": 74,
      "start": 47.7202,
      "duration": 0.1104,
      "velocity": 126,
      "chip": "ym2612"
    },
    {
      "channel": 2,
      "note": 52,
      "start": 47.7231,
      "duration": 0.208,
      "velocity": 115,
      "chip": "ym2612"
    },
    {
      "channel": 0,
      "note": 74,
      "start": 47.8341,
      "duration": 0.0964,
      "velocity": 126,
      "chip": "ym2612"
    },
    {
      "channel": 3,
      "note": 45,
      "start": 47.9338,
      "duration": 0.2136,
      "velocity": 92,
      "chip": "ym2612"
    },
    {
      "channel": 5,
      "note": 73,
      "start": 47.9366,
      "duration": 0.861,
      "velocity": 92,
      "chip": "ym2612"
    },
    {
      "channel": 0,
      "note": 74,
      "start": 47.9394,
      "duration": 0.2078,
      "velocity": 126,
      "chip": "ym2612"
    },
    {
      "channel": 2,
      "note": 45,
      "start": 47.9423,
      "duration": 0.2053,
      "velocity": 115,
      "chip": "ym2612"
    },
    {
      "channel": 3,
      "note": 49,
      "start": 48.1504,
      "duration": 0.2137,
      "velocity": 92,
      "chip": "ym2612"
    },
    {
      "channel": 0,
      "note": 74,
      "start": 48.1536,
      "duration": 0.1103,
      "velocity": 126,
      "chip": "ym2612"
    },
    {
      "channel": 2,
      "note": 49,
      "start": 48.1564,
      "duration": 0.2079,
      "velocity": 115,
      "chip": "ym2612"
    },
    {
      "channel": 0,
      "note": 74,
      "start": 48.2674,
      "duration": 0.0965,
      "velocity": 126,
      "chip": "ym2612"
    },
    {
      "channel": 3,
      "note": 52,
      "start": 48.3671,
      "duration": 0.2137,
      "velocity": 92,
      "chip": "ym2612"
    },
    {
      "channel": 0,
      "note": 74,
      "start": 48.3702,
      "duration": 0.2104,
      "velocity": 126,
      "chip": "ym2612"
    },
    {
      "channel": 2,
      "note": 52,
      "start": 48.3731,
      "duration": 0.208,
      "velocity": 115,
      "chip": "ym2612"
    },
    {
      "channel": 3,
      "note": 57,
      "start": 48.5841,
      "duration": 0.2133,
      "velocity": 92,
      "chip": "ym2612"
    },
    {
      "channel": 0,
      "note": 74,
      "start": 48.5877,
      "duration": 0.1095,
      "velocity": 126,
      "chip": "ym2612"
    },
    {
      "channel": 2,
      "note": 57,
      "start": 48.5906,
      "duration": 0.2071,
      "velocity": 115,
      "chip": "ym2612"
    },
    {
      "channel": 0,
      "note": 74,
      "start": 48.7007,
      "duration": 0.0965,
      "velocity": 126,
      "chip": "ym2612"
    },
    {
      "channel": 3,
      "note": 59,
      "start": 48.8005,
      "duration": 0.2303,
      "velocity": 92,
      "chip": "ym2612"
    },
    {
      "channel": 5,
      "note": 71,
      "start": 48.8036,
      "duration": 0.6607,
      "velocity": 92,
      "chip": "ym2612"
    },
    {
      "channel": 0,
      "note": 74,
      "start": 48.8064,
      "duration": 0.2242,
      "velocity": 126,
      "chip": "ym2612"
    },
    {
      "channel": 2,
      "note": 59,
      "start": 48.8093,
      "duration": 0.2217,
      "velocity": 115,
      "chip": "ym2612"
    },
    {
      "channel": 3,
      "note": 57,
      "start": 49.0337,
      "duration": 0.2137,
      "velocity": 92,
      "chip": "ym2612"
    },
    {
      "channel": 0,
      "note": 74,
      "start": 49.037,
      "duration": 0.0936,
      "velocity": 126,
      "chip": "ym2612"
    },
    {
      "channel": 2,
      "note": 57,
      "start": 49.0398,
      "duration": 0.2079,
      "velocity": 115,
      "chip": "ym2612"
    },
    {
      "channel": 0,
      "note": 74,
      "start": 49.1341,
      "duration": 0.1131,
      "velocity": 126,
      "chip": "ym2612"
    },
    {
      "channel": 3,
      "note": 56,
      "start": 49.2504,
      "duration": 0.2137,
      "velocity": 92,
      "chip": "ym2612"
    },
    {
      "channel": 0,
      "note": 74,
      "start": 49.2536,
      "duration": 0.2103,
      "velocity": 126,
      "chip": "ym2612"
    },
    {
      "channel": 2,
      "note": 56,
      "start": 49.2569,
      "duration": 0.2076,
      "velocity": 115,
      "chip": "ym2612"
    },
    {
      "channel": 3,
      "note": 54,
      "start": 49.4672,
      "duration": 0.2136,
      "velocity": 92,
      "chip": "ym2612"
    },
    {
      "channel": 5,
      "note": 71,
      "start": 49.4706,
      "duration": 0.2103,
      "velocity": 92,
      "chip": "ym2612"
    },
    {
      "channel": 0,
      "note": 74,
      "start": 49.4739,
      "duration": 0.09,
      "velocity": 126,
      "chip": "ym2612"
    },
    {
      "channel": 2,
      "note": 54,
      "start": 49.4767,
      "duration": 0.2043,
      "velocity": 115,
      "chip": "ym2612"
    },
    {
      "channel": 0,
      "note": 74,
      "start": 49.5674,
      "duration": 0.1131,
      "velocity": 126,
      "chip": "ym2612"
    },
    {
      "channel": 3,
      "note": 52,
      "start": 49.6838,
      "duration": 0.2135,
      "velocity": 92,
      "chip": "ym2612"
    },
    {
      "channel": 5,
      "note": 59,
      "start": 49.6869,
      "duration": 0.4273,
      "velocity": 92,
      "chip": "ym2612"
    },
    {
      "channel": 0,
      "note": 74,
      "start": 49.6898,
      "duration": 0.2074,
      "velocity": 126,
      "chip": "ym2612"
    },
    {
      "channel": 2,
      "note": 52,
      "start": 49.6926,
      "duration": 0.2049,
      "velocity": 115,
      "chip": "ym2612"
    },
    {
      "channel": 3,
      "note": 54,
      "start": 49.9003,
      "duration": 0.2137,
      "velocity": 92,
      "chip": "ym2612"
    },
    {
      "channel": 0,
      "note": 74,
      "start": 49.9036,
      "duration": 0.0937,
      "velocity": 126,
      "chip": "ym2612"
    },
    {
      "channel": 2,
      "note": 54,
      "start": 49.9064,
      "duration": 0.208,
      "velocity": 115,
      "chip": "ym2612"
    },
    {
      "channel": 0,
      "note": 74,
      "start": 50.0007,
      "duration": 0.1132,
      "velocity": 126,
      "chip": "ym2612"
    },
    {
      "channel": 3,
      "note": 52,
      "start": 50.1171,
      "duration": 0.2136,
      "velocity": 92,
      "chip": "ym2612"
    },
    {
      "channel": 5,
      "note": 64,
      "start": 50.1202,
      "duration": 0.2107,
      "velocity": 92,
      "chip": "ym2612"
    },
    {
      "channel": 0,
      "note": 74,
      "start": 50.1231,
      "duration": 0.2075,
      "velocity": 126,
      "chip": "ym2612"
    },
    {
      "channel": 2,
      "note": 52,
      "start": 50.126,
      "duration": 0.2051,
      "velocity": 115,
      "chip": "ym2612"
    },
    {
      "channel": 3,
      "note": 50,
      "start": 50.3338,
      "duration": 0.2136,
      "velocity": 92,
      "chip": "ym2612"
    },
    {
      "channel": 5,
      "note": 68,
      "start": 50.3366,
      "duration": 0.211,
      "velocity": 92,
      "chip": "ym2612"
    },
    {
      "channel": 0,
      "note": 74,
      "start": 50.3394,
      "duration": 0.0911,
      "velocity": 126,
      "chip": "ym2612"
    },
    {
      "channel": 2,
      "note": 50,
      "start": 50.3423,
      "duration": 0.2054,
      "velocity": 115,
      "chip": "ym2612"
    },
    {
      "channel": 0,
      "note": 74,
      "start": 50.434,
      "duration": 0.1132,
      "velocity": 126,
      "chip": "ym2612"
    },
    {
      "channel": 3,
      "note": 49,
      "start": 50.5505,
      "duration": 0.2137,
      "velocity": 92,
      "chip": "ym2612"
    },
    {
      "channel": 5,
      "note": 69,
      "start": 50.5538,
      "duration": 1.7104,
      "velocity": 92,
      "chip": "ym2612"
    },
    {
      "channel": 0,
      "note": 74,
      "start": 50.5571,
      "duration": 0.2069,
      "velocity": 126,
      "chip": "ym2612"
    },
    {
      "channel": 2,
      "note": 49,
      "start": 50.5599,
      "duration": 0.2044,
      "velocity": 115,
      "chip": "ym2612"
    },
    {
      "channel": 3,
      "note": 52,
      "start": 50.7671,
      "duration": 0.2137,
      "velocity": 92,
      "chip": "ym2612"
    },
    {
      "channel": 0,
      "note": 74,
      "start": 50.7703,
      "duration": 0.1103,
      "velocity": 126,
      "chip": "ym2612"
    },
    {
      "channel": 2,
      "note": 52,
      "start": 50.7732,
      "duration": 0.2079,
      "velocity": 115,
      "chip": "ym2612"
    },
    {
      "channel": 0,
      "note": 74,
      "start": 50.8841,
      "duration": 0.0964,
      "velocity": 126,
      "chip": "ym2612"
    },
    {
      "channel": 3,
      "note": 57,
      "start": 50.9837,
      "duration": 0.2137,
      "velocity": 92,
      "chip": "ym2612"
    },
    {
      "channel": 0,
      "note": 74,
      "start": 50.987,
      "duration": 0.2102,
      "velocity": 126,
      "chip": "ym2612"
    },
    {
      "channel": 2,
      "note": 57,
      "start": 50.9898,
      "duration": 0.2078,
      "velocity": 115,
      "chip": "ym2612"
    },
    {
      "channel": 3,
      "note": 52,
      "start": 51.2004,
      "duration": 0.2137,
      "velocity": 92,
      "chip": "ym2612"
    },
    {
      "channel": 0,
      "note": 74,
      "start": 51.2036,
      "duration": 0.1103,
      "velocity": 126,
      "chip": "ym2612"
    },
    {
      "channel": 2,
      "note": 52,
      "start": 51.2064,
      "duration": 0.2079,
      "velocity": 115,
      "chip": "ym2612"
    },
    {
      "channel": 0,
      "note": 74,
      "start": 51.3174,
      "duration": 0.0965,
      "velocity": 126,
      "chip": "ym2612"
    },
    {
      "channel": 3,
      "note": 45,
      "start": 51.4171,
      "duration": 0.2137,
      "velocity": 92,
      "chip": "ym2612"
    },
    {
      "channel": 0,
      "note": 74,
      "start": 51.4206,
      "duration": 0.2099,
      "velocity": 126,
      "chip": "ym2612"
    },
    {
      "channel": 2,
      "note": 45,
      "start": 51.4235,
      "duration": 0.2075,
      "velocity": 115,
      "chip": "ym2612"
    },
    {
      "channel": 3,
      "note": 49,
      "start": 51.6337,
      "duration": 0.2137,
      "velocity": 92,
      "chip": "ym2612"
    },
    {
      "channel": 0,
      "note": 74,
      "start": 51.6369,
      "duration": 0.1103,
      "velocity": 126,
      "chip": "ym2612"
    },
    {
      "channel": 2,
      "note": 49,
      "start": 51.6398,
      "duration": 0.2079,
      "velocity": 115,
      "chip": "ym2612"
    },
    {
      "channel": 0,
      "note": 74,
      "start": 51.7507,
      "duration": 0.0965,
      "velocity": 126,
      "chip": "ym2612"
    },
    {
      "channel": 3,
      "note": 52,
      "start": 51.8504,
      "duration": 0.2303,
      "velocity": 92,
      "chip": "ym2612"
    },
    {
      "channel": 0,
      "note": 74,
      "start": 51.8536,
      "duration": 0.227,
      "velocity": 126,
      "chip": "ym2612"
    },
    {
      "channel": 2,
      "note": 52,
      "start": 51.8564,
      "duration": 0.2246,
      "velocity": 115,
      "chip": "ym2612"
    },
    {
      "channel": 3,
      "note": 57,
      "start": 52.0843,
      "duration": 0.1798,
      "velocity": 92,
      "chip": "ym2612"
    },
    {
      "channel": 0,
      "note": 74,
      "start": 52.0875,
      "duration": 0.0931,
      "velocity": 126,
      "chip": "ym2612"
    },
    {
      "channel": 2,
      "note": 57,
      "start": 52.0905,
      "duration": 0.1739,
      "velocity": 115,
      "chip": "ym2612"
    },
    {
      "channel": 0,
      "note": 74,
      "start": 52.1842,
      "duration": 0.0797,
      "velocity": 126,
      "chip": "ym2612"
    }
  ]
}