{
  "track_name": "11 - Jungle Wander",
  "duration_sec": 80.452,
  "sample_rate": 44100,
  "note_count": 769,
  "unique_pitches": 35,
  "pitch_range": 82,
  "avg_note_duration": 0.1383,
  "reconstruction_stats": {
    "notes_reconstructed": 769,
    "keyon_events": 769,
    "keyoff_events": 768,
    "orphan_keyons": 1,
    "unique_pitches": 35,
    "pitch_range": 82,
    "avg_duration_sec": 0.1383
  },
  "metadata": {
    "source": "D\\Dungeons & Dragons - Warriors of the Eternal Sun\\11 - Jungle Wander.vgz"
  },
  "notes": [
    {
      "channel": 0,
      "note": 60,
      "start": 0.0419,
      "duration": 0.0495,
      "velocity": 122,
      "chip": "ym2612"
    },
    {
      "channel": 0,
      "note": 60,
      "start": 0.1386,
      "duration": 0.0358,
      "velocity": 115,
      "chip": "ym2612"
    },
    {
      "channel": 0,
      "note": 60,
      "start": 0.2706,
      "duration": 0.0452,
      "velocity": 115,
      "chip": "ym2612"
    },
    {
      "channel": 0,
      "note": 60,
      "start": 0.3617,
      "duration": 0.0427,
      "velocity": 122,
      "chip": "ym2612"
    },
    {
      "channel": 0,
      "note": 60,
      "start": 0.4437,
      "duration": 0.0419,
      "velocity": 115,
      "chip": "ym2612"
    },
    {
      "channel": 0,
      "note": 60,
      "start": 0.5881,
      "duration": 0.0452,
      "velocity": 115,
      "chip": "ym2612"
    },
    {
      "channel": 0,
      "note": 60,
      "start": 0.678,
      "duration": 0.0376,
      "velocity": 115,
      "chip": "ym2612"
    },
    {
      "channel": 0,
      "note": 60,
      "start": 0.761,
      "duration": 0.0415,
      "velocity": 115,
      "chip": "ym2612"
    },
    {
      "channel": 0,
      "note": 60,
      "start": 0.8805,
      "duration": 0.0976,
      "velocity": 115,
      "chip": "ym2612"
    },
    {
      "channel": 0,
      "note": 60,
      "start": 1.0639,
      "duration": 0.0467,
      "velocity": 115,
      "chip": "ym2612"
    },
    {
      "channel": 3,
      "note": 72,
      "start": 1.0675,
      "duration": 0.0432,
      "velocity": 122,
      "chip": "ym2612"
    },
    {
      "channel": 0,
      "note": 60,
      "start": 1.1568,
      "duration": 0.0439,
      "velocity": 115,
      "chip": "ym2612"
    },
    {
      "channel": 3,
      "note": 72,
      "start": 1.16,
      "duration": 0.0409,
      "velocity": 122,
      "chip": "ym2612"
    },
    {
      "channel": 0,
      "note": 60,
      "start": 1.2453,
      "duration": 0.0355,
      "velocity": 115,
      "chip": "ym2612"
    },
    {
      "channel": 0,
      "note": 60,
      "start": 1.3534,
      "duration": 0.0453,
      "velocity": 115,
      "chip": "ym2612"
    },
    {
      "channel": 0,
      "note": 60,
      "start": 1.4435,
      "duration": 0.0445,
      "velocity": 115,
      "chip": "ym2612"
    },
    {
      "channel": 3,
      "note": 67,
      "start": 1.4466,
      "duration": 0.0415,
      "velocity": 122,
      "chip": "ym2612"
    },
    {
      "channel": 0,
      "note": 60,
      "start": 1.527,
      "duration": 0.0433,
      "velocity": 115,
      "chip": "ym2612"
    },
    {
      "channel": 3,
      "note": 67,
      "start": 1.5303,
      "duration": 0.0402,
      "velocity": 122,
      "chip": "ym2612"
    },
    {
      "channel": 0,
      "note": 60,
      "start": 1.6152,
      "duration": 0.0436,
      "velocity": 115,
      "chip": "ym2612"
    },
    {
      "channel": 0,
      "note": 60,
      "start": 1.7058,
      "duration": 0.0335,
      "velocity": 122,
      "chip": "ym2612"
    },
    {
      "channel": 0,
      "note": 60,
      "start": 1.7867,
      "duration": 0.0407,
      "velocity": 115,
      "chip": "ym2612"
    },
    {
      "channel": 0,
      "note": 60,
      "start": 1.9298,
      "duration": 0.0462,
      "velocity": 115,
      "chip": "ym2612"
    },
    {
      "channel": 0,
      "note": 60,
      "start": 2.0157,
      "duration": 0.0422,
      "velocity": 122,
      "chip": "ym2612"
    },
    {
      "channel": 0,
      "note": 60,
      "start": 2.1052,
      "duration": 0.0496,
      "velocity": 115,
      "chip": "ym2612"
    },
    {
      "channel": 0,
      "note": 60,
      "start": 2.2573,
      "duration": 0.0378,
      "velocity": 115,
      "chip": "ym2612"
    },
    {
      "channel": 0,
      "note": 60,
      "start": 2.3412,
      "duration": 0.0427,
      "velocity": 115,
      "chip": "ym2612"
    },
    {
      "channel": 0,
      "note": 60,
      "start": 2.4289,
      "duration": 0.0417,
      "velocity": 115,
      "chip": "ym2612"
    },
    {
      "channel": 0,
      "note": 60,
      "start": 2.5405,
      "duration": 0.0977,
      "velocity": 115,
      "chip": "ym2612"
    },
    {
      "channel": 0,
      "note": 60,
      "start": 2.7405,
      "duration": 0.0468,
      "velocity": 115,
      "chip": "ym2612"
    },
    {
      "channel": 3,
      "note": 67,
      "start": 2.7444,
      "duration": 0.0429,
      "velocity": 122,
      "chip": "ym2612"
    },
    {
      "channel": 0,
      "note": 60,
      "start": 2.8279,
      "duration": 0.0418,
      "velocity": 115,
      "chip": "ym2612"
    },
    {
      "channel": 3,
      "note": 67,
      "start": 2.831,
      "duration": 0.0388,
      "velocity": 122,
      "chip": "ym2612"
    },
    {
      "channel": 0,
      "note": 60,
      "start": 2.9153,
      "duration": 0.0399,
      "velocity": 115,
      "chip": "ym2612"
    },
    {
      "channel": 0,
      "note": 60,
      "start": 3.0374,
      "duration": 0.039,
      "velocity": 115,
      "chip": "ym2612"
    },
    {
      "channel": 0,
      "note": 60,
      "start": 3.1214,
      "duration": 0.043,
      "velocity": 115,
      "chip": "ym2612"
    },
    {
      "channel": 3,
      "note": 63,
      "start": 3.1244,
      "duration": 0.04,
      "velocity": 122,
      "chip": "ym2612"
    },
    {
      "channel": 0,
      "note": 60,
      "start": 3.2097,
      "duration": 0.0451,
      "velocity": 115,
      "chip": "ym2612"
    },
    {
      "channel": 3,
      "note": 63,
      "start": 3.213,
      "duration": 0.0419,
      "velocity": 122,
      "chip": "ym2612"
    },
    {
      "channel": 0,
      "note": 60,
      "start": 3.2935,
      "duration": 0.0422,
      "velocity": 115,
      "chip": "ym2612"
    },
    {
      "channel": 0,
      "note": 58,
      "start": 3.3834,
      "duration": 0.0422,
      "velocity": 122,
      "chip": "ym2612"
    },
    {
      "channel": 0,
      "note": 58,
      "start": 3.4713,
      "duration": 0.034,
      "velocity": 115,
      "chip": "ym2612"
    },
    {
      "channel": 0,
      "note": 58,
      "start": 3.6078,
      "duration": 0.0457,
      "velocity": 115,
      "chip": "ym2612"
    },
    {
      "channel": 0,
      "note": 58,
      "start": 3.6995,
      "duration": 0.0429,
      "velocity": 122,
      "chip": "ym2612"
    },
    {
      "channel": 0,
      "note": 58,
      "start": 3.7817,
      "duration": 0.042,
      "velocity": 115,
      "chip": "ym2612"
    },
    {
      "channel": 0,
      "note": 58,
      "start": 3.9262,
      "duration": 0.0451,
      "velocity": 115,
      "chip": "ym2612"
    },
    {
      "channel": 0,
      "note": 58,
      "start": 4.0173,
      "duration": 0.0363,
      "velocity": 115,
      "chip": "ym2612"
    },
    {
      "channel": 0,
      "note": 58,
      "start": 4.0985,
      "duration": 0.0412,
      "velocity": 115,
      "chip": "ym2612"
    },
    {
      "channel": 0,
      "note": 58,
      "start": 4.2176,
      "duration": 0.0976,
      "velocity": 115,
      "chip": "ym2612"
    },
    {
      "channel": 0,
      "note": 58,
      "start": 4.401,
      "duration": 0.0466,
      "velocity": 115,
      "chip": "ym2612"
    },
    {
      "channel": 3,
      "note": 65,
      "start": 4.4045,
      "duration": 0.0433,
      "velocity": 122,
      "chip": "ym2612"
    },
    {
      "channel": 3,
      "note": 65,
      "start": 4.4501,
      "duration": 0.041,
      "velocity": 122,
      "chip": "ym2612"
    },
    {
      "channel": 0,
      "note": 58,
      "start": 4.4942,
      "duration": 0.0428,
      "velocity": 115,
      "chip": "ym2612"
    },
    {
      "channel": 3,
      "note": 65,
      "start": 4.4974,
      "duration": 0.0398,
      "velocity": 115,
      "chip": "ym2612"
    },
    {
      "channel": 3,
      "note": 65,
      "start": 4.5404,
      "duration": 0.0412,
      "velocity": 115,
      "chip": "ym2612"
    },
    {
      "channel": 0,
      "note": 58,
      "start": 4.5837,
      "duration": 0.0342,
      "velocity": 115,
      "chip": "ym2612"
    },
    {
      "channel": 3,
      "note": 65,
      "start": 4.5872,
      "duration": 0.0308,
      "velocity": 122,
      "chip": "ym2612"
    },
    {
      "channel": 3,
      "note": 65,
      "start": 4.6211,
      "duration": 0.0649,
      "velocity": 122,
      "chip": "ym2612"
    },
    {
      "channel": 0,
      "note": 58,
      "start": 4.6884,
      "duration": 0.0469,
      "velocity": 115,
      "chip": "ym2612"
    },
    {
      "channel": 3,
      "note": 65,
      "start": 4.6922,
      "duration": 0.3432,
      "velocity": 122,
      "chip": "ym2612"
    },
    {
      "channel": 0,
      "note": 58,
      "start": 4.7815,
      "duration": 0.0421,
      "velocity": 115,
      "chip": "ym2612"
    },
    {
      "channel": 0,
      "note": 58,
      "start": 4.8616,
      "duration": 0.0429,
      "velocity": 115,
      "chip": "ym2612"
    },
    {
      "channel": 0,
      "note": 58,
      "start": 4.9505,
      "duration": 0.0423,
      "velocity": 115,
      "chip": "ym2612"
    },
    {
      "channel": 0,
      "note": 60,
      "start": 5.04,
      "duration": 0.0344,
      "velocity": 122,
      "chip": "ym2612"
    },
    {
      "channel": 0,
      "note": 60,
      "start": 5.1217,
      "duration": 0.0407,
      "velocity": 115,
      "chip": "ym2612"
    },
    {
      "channel": 0,
      "note": 60,
      "start": 5.2649,
      "duration": 0.0456,
      "velocity": 115,
      "chip": "ym2612"
    },
    {
      "channel": 0,
      "note": 60,
      "start": 5.3508,
      "duration": 0.0424,
      "velocity": 122,
      "chip": "ym2612"
    },
    {
      "channel": 0,
      "note": 60,
      "start": 5.4402,
      "duration": 0.0494,
      "velocity": 115,
      "chip": "ym2612"
    },
    {
      "channel": 0,
      "note": 60,
      "start": 5.5773,
      "duration": 0.0437,
      "velocity": 115,
      "chip": "ym2612"
    },
    {
      "channel": 0,
      "note": 60,
      "start": 5.6669,
      "duration": 0.0428,
      "velocity": 115,
      "chip": "ym2612"
    },
    {
      "channel": 0,
      "note": 60,
      "start": 5.7547,
      "duration": 0.0358,
      "velocity": 115,
      "chip": "ym2612"
    },
    {
      "channel": 0,
      "note": 60,
      "start": 5.8661,
      "duration": 0.0975,
      "velocity": 115,
      "chip": "ym2612"
    },
    {
      "channel": 0,
      "note": 60,
      "start": 6.0661,
      "duration": 0.0467,
      "velocity": 115,
      "chip": "ym2612"
    },
    {
      "channel": 3,
      "note": 63,
      "start": 6.0697,
      "duration": 0.0432,
      "velocity": 122,
      "chip": "ym2612"
    },
    {
      "channel": 3,
      "note": 63,
      "start": 6.1173,
      "duration": 0.0324,
      "velocity": 122,
      "chip": "ym2612"
    },
    {
      "channel": 0,
      "note": 60,
      "start": 6.152,
      "duration": 0.0436,
      "velocity": 115,
      "chip": "ym2612"
    },
    {
      "channel": 3,
      "note": 63,
      "start": 6.1549,
      "duration": 0.0408,
      "velocity": 122,
      "chip": "ym2612"
    },
    {
      "channel": 0,
      "note": 60,
      "start": 6.2402,
      "duration": 0.0416,
      "velocity": 115,
      "chip": "ym2612"
    },
    {
      "channel": 0,
      "note": 60,
      "start": 6.3653,
      "duration": 0.0374,
      "velocity": 115,
      "chip": "ym2612"
    },
    {
      "channel": 0,
      "note": 60,
      "start": 6.4496,
      "duration": 0.0442,
      "velocity": 115,
      "chip": "ym2612"
    },
    {
      "channel": 3,
      "note": 60,
      "start": 6.4532,
      "duration": 0.0408,
      "velocity": 122,
      "chip": "ym2612"
    },
    {
      "channel": 3,
      "note": 60,
      "start": 6.4983,
      "duration": 0.04,
      "velocity": 122,
      "chip": "ym2612"
    },
    {
      "channel": 0,
      "note": 60,
      "start": 6.5404,
      "duration": 0.0441,
      "velocity": 115,
      "chip": "ym2612"
    },
    {
      "channel": 3,
      "note": 60,
      "start": 6.5436,
      "duration": 0.041,
      "velocity": 122,
      "chip": "ym2612"
    },
    {
      "channel": 0,
      "note": 60,
      "start": 6.6234,
      "duration": 0.0419,
      "velocity": 115,
      "chip": "ym2612"
    },
    {
      "channel": 0,
      "note": 60,
      "start": 6.7138,
      "duration": 0.0423,
      "velocity": 122,
      "chip": "ym2612"
    },
    {
      "channel": 0,
      "note": 60,
      "start": 6.8017,
      "duration": 0.0343,
      "velocity": 115,
      "chip": "ym2612"
    },
    {
      "channel": 0,
      "note": 60,
      "start": 6.9384,
      "duration": 0.0451,
      "velocity": 115,
      "chip": "ym2612"
    },
    {
      "channel": 0,
      "note": 60,
      "start": 7.0292,
      "duration": 0.0426,
      "velocity": 122,
      "chip": "ym2612"
    },
    {
      "channel": 0,
      "note": 60,
      "start": 7.1114,
      "duration": 0.042,
      "velocity": 115,
      "chip": "ym2612"
    },
    {
      "channel": 0,
      "note": 60,
      "start": 7.2558,
      "duration": 0.0453,
      "velocity": 115,
      "chip": "ym2612"
    },
    {
      "channel": 0,
      "note": 60,
      "start": 7.346,
      "duration": 0.0376,
      "velocity": 115,
      "chip": "ym2612"
    },
    {
      "channel": 3,
      "note": 48,
      "start": 7.3491,
      "duration": 0.0346,
      "velocity": 122,
      "chip": "ym2612"
    },
    {
      "channel": 3,
      "note": 48,
      "start": 7.387,
      "duration": 0.0401,
      "velocity": 122,
      "chip": "ym2612"
    },
    {
      "channel": 0,
      "note": 60,
      "start": 7.4291,
      "duration": 0.0419,
      "velocity": 115,
      "chip": "ym2612"
    },
    {
      "channel": 3,
      "note": 48,
      "start": 7.4333,
      "duration": 0.0379,
      "velocity": 115,
      "chip": "ym2612"
    },
    {
      "channel": 3,
      "note": 48,
      "start": 7.4763,
      "duration": 0.0631,
      "velocity": 122,
      "chip": "ym2612"
    },
    {
      "channel": 0,
      "note": 60,
      "start": 7.5418,
      "duration": 0.0974,
      "velocity": 115,
      "chip": "ym2612"
    },
    {
      "channel": 3,
      "note": 48,
      "start": 7.5452,
      "duration": 0.0941,
      "velocity": 122,
      "chip": "ym2612"
    },
    {
      "channel": 0,
      "note": 60,
      "start": 7.725,
      "duration": 0.0462,
      "velocity": 115,
      "chip": "ym2612"
    },
    {
      "channel": 3,
      "note": 48,
      "start": 7.7273,
      "duration": 0.0439,
      "velocity": 122,
      "chip": "ym2612"
    },
    {
      "channel": 0,
      "note": 60,
      "start": 7.8174,
      "duration": 0.0428,
      "velocity": 115,
      "chip": "ym2612"
    },
    {
      "channel": 3,
      "note": 48,
      "start": 7.8627,
      "duration": 0.0412,
      "velocity": 122,
      "chip": "ym2612"
    },
    {
      "channel": 0,
      "note": 60,
      "start": 7.906,
      "duration": 0.034,
      "velocity": 115,
      "chip": "ym2612"
    },
    {
      "channel": 0,
      "note": 60,
      "start": 8.0165,
      "duration": 0.0463,
      "velocity": 115,
      "chip": "ym2612"
    },
    {
      "channel": 3,
      "note": 48,
      "start": 8.019,
      "duration": 0.0439,
      "velocity": 122,
      "chip": "ym2612"
    },
    {
      "channel": 0,
      "note": 60,
      "start": 8.1083,
      "duration": 0.0431,
      "velocity": 115,
      "chip": "ym2612"
    },
    {
      "channel": 0,
      "note": 60,
      "start": 8.1895,
      "duration": 0.0429,
      "velocity": 115,
      "chip": "ym2612"
    },
    {
      "channel": 0,
      "note": 60,
      "start": 8.2783,
      "duration": 0.0422,
      "velocity": 115,
      "chip": "ym2612"
    },
    {
      "channel": 0,
      "note": 60,
      "start": 8.3618,
      "duration": 0.0409,
      "velocity": 122,
      "chip": "ym2612"
    },
    {
      "channel": 0,
      "note": 60,
      "start": 8.4493,
      "duration": 0.0492,
      "velocity": 115,
      "chip": "ym2612"
    },
    {
      "channel": 0,
      "note": 60,
      "start": 8.6009,
      "duration": 0.0395,
      "velocity": 115,
      "chip": "ym2612"
    },
    {
      "channel": 0,
      "note": 60,
      "start": 8.6867,
      "duration": 0.0421,
      "velocity": 122,
      "chip": "ym2612"
    },
    {
      "channel": 0,
      "note": 60,
      "start": 8.7759,
      "duration": 0.0497,
      "velocity": 115,
      "chip": "ym2612"
    },
    {
      "channel": 0,
      "note": 60,
      "start": 8.9113,
      "duration": 0.0452,
      "velocity": 115,
      "chip": "ym2612"
    },
    {
      "channel": 0,
      "note": 60,
      "start": 9.0014,
      "duration": 0.0442,
      "velocity": 115,
      "chip": "ym2612"
    },
    {
      "channel": 3,
      "note": 51,
      "start": 9.0035,
      "duration": 0.0423,
      "velocity": 122,
      "chip": "ym2612"
    },
    {
      "channel": 3,
      "note": 51,
      "start": 9.0492,
      "duration": 0.0403,
      "velocity": 122,
      "chip": "ym2612"
    },
    {
      "channel": 0,
      "note": 60,
      "start": 9.0916,
      "duration": 0.0357,
      "velocity": 115,
      "chip": "ym2612"
    },
    {
      "channel": 3,
      "note": 51,
      "start": 9.0959,
      "duration": 0.0315,
      "velocity": 122,
      "chip": "ym2612"
    },
    {
      "channel": 3,
      "note": 51,
      "start": 9.1307,
      "duration": 0.0684,
      "velocity": 122,
      "chip": "ym2612"
    },
    {
      "channel": 0,
      "note": 60,
      "start": 9.2016,
      "duration": 0.0974,
      "velocity": 115,
      "chip": "ym2612"
    },
    {
      "channel": 3,
      "note": 51,
      "start": 9.2056,
      "duration": 0.0936,
      "velocity": 122,
      "chip": "ym2612"
    },
    {
      "channel": 3,
      "note": 51,
      "start": 9.3018,
      "duration": 0.0974,
      "velocity": 122,
      "chip": "ym2612"
    },
    {
      "channel": 0,
      "note": 60,
      "start": 9.4016,
      "duration": 0.0465,
      "velocity": 115,
      "chip": "ym2612"
    },
    {
      "channel": 3,
      "note": 51,
      "start": 9.4051,
      "duration": 0.0432,
      "velocity": 115,
      "chip": "ym2612"
    },
    {
      "channel": 3,
      "note": 51,
      "start": 9.4526,
      "duration": 0.0331,
      "velocity": 122,
      "chip": "ym2612"
    },
    {
      "channel": 0,
      "note": 60,
      "start": 9.4879,
      "duration": 0.0435,
      "velocity": 115,
      "chip": "ym2612"
    },
    {
      "channel": 3,
      "note": 51,
      "start": 9.4909,
      "duration": 0.0407,
      "velocity": 122,
      "chip": "ym2612"
    },
    {
      "channel": 3,
      "note": 51,
      "start": 9.5359,
      "duration": 0.0401,
      "velocity": 122,
      "chip": "ym2612"
    },
    {
      "channel": 0,
      "note": 60,
      "start": 9.578,
      "duration": 0.0415,
      "velocity": 115,
      "chip": "ym2612"
    },
    {
      "channel": 3,
      "note": 51,
      "start": 9.5812,
      "duration": 0.0386,
      "velocity": 115,
      "chip": "ym2612"
    },
    {
      "channel": 3,
      "note": 51,
      "start": 9.6219,
      "duration": 0.0755,
      "velocity": 115,
      "chip": "ym2612"
    },
    {
      "channel": 0,
      "note": 60,
      "start": 9.6998,
      "duration": 0.04,
      "velocity": 115,
      "chip": "ym2612"
    },
    {
      "channel": 3,
      "note": 51,
      "start": 9.704,
      "duration": 0.0361,
      "velocity": 122,
      "chip": "ym2612"
    },
    {
      "channel": 0,
      "note": 60,
      "start": 9.7845,
      "duration": 0.0435,
      "velocity": 115,
      "chip": "ym2612"
    },
    {
      "channel": 0,
      "note": 60,
      "start": 9.8739,
      "duration": 0.0422,
      "velocity": 115,
      "chip": "ym2612"
    },
    {
      "channel": 0,
      "note": 60,
      "start": 9.9544,
      "duration": 0.0438,
      "velocity": 115,
      "chip": "ym2612"
    },
    {
      "channel": 0,
      "note": 58,
      "start": 10.0449,
      "duration": 0.0412,
      "velocity": 122,
      "chip": "ym2612"
    },
    {
      "channel": 0,
      "note": 58,
      "start": 10.1314,
      "duration": 0.0344,
      "velocity": 115,
      "chip": "ym2612"
    },
    {
      "channel": 0,
      "note": 58,
      "start": 10.2682,
      "duration": 0.0454,
      "velocity": 115,
      "chip": "ym2612"
    },
    {
      "channel": 0,
      "note": 58,
      "start": 10.3598,
      "duration": 0.0424,
      "velocity": 122,
      "chip": "ym2612"
    },
    {
      "channel": 0,
      "note": 58,
      "start": 10.4417,
      "duration": 0.0419,
      "velocity": 115,
      "chip": "ym2612"
    },
    {
      "channel": 0,
      "note": 58,
      "start": 10.586,
      "duration": 0.0448,
      "velocity": 115,
      "chip": "ym2612"
    },
    {
      "channel": 0,
      "note": 58,
      "start": 10.6756,
      "duration": 0.0362,
      "velocity": 115,
      "chip": "ym2612"
    },
    {
      "channel": 0,
      "note": 58,
      "start": 10.7569,
      "duration": 0.041,
      "velocity": 115,
      "chip": "ym2612"
    },
    {
      "channel": 0,
      "note": 58,
      "start": 10.8762,
      "duration": 0.0975,
      "velocity": 115,
      "chip": "ym2612"
    },
    {
      "channel": 3,
      "note": 62,
      "start": 10.8785,
      "duration": 0.0953,
      "velocity": 122,
      "chip": "ym2612"
    },
    {
      "channel": 0,
      "note": 58,
      "start": 11.0594,
      "duration": 0.0462,
      "velocity": 115,
      "chip": "ym2612"
    },
    {
      "channel": 3,
      "note": 62,
      "start": 11.0616,
      "duration": 0.0442,
      "velocity": 122,
      "chip": "ym2612"
    },
    {
      "channel": 0,
      "note": 58,
      "start": 11.1519,
      "duration": 0.0442,
      "velocity": 115,
      "chip": "ym2612"
    },
    {
      "channel": 3,
      "note": 62,
      "start": 11.155,
      "duration": 0.0413,
      "velocity": 122,
      "chip": "ym2612"
    },
    {
      "channel": 0,
      "note": 58,
      "start": 11.2367,
      "duration": 0.0397,
      "velocity": 115,
      "chip": "ym2612"
    },
    {
      "channel": 3,
      "note": 62,
      "start": 11.2388,
      "duration": 0.0378,
      "velocity": 122,
      "chip": "ym2612"
    },
    {
      "channel": 0,
      "note": 58,
      "start": 11.347,
      "duration": 0.0465,
      "velocity": 115,
      "chip": "ym2612"
    },
    {
      "channel": 3,
      "note": 62,
      "start": 11.3505,
      "duration": 0.043,
      "velocity": 122,
      "chip": "ym2612"
    },
    {
      "channel": 0,
      "note": 58,
      "start": 11.439,
      "duration": 0.038,
      "velocity": 115,
      "chip": "ym2612"
    },
    {
      "channel": 3,
      "note": 62,
      "start": 11.4413,
      "duration": 0.0359,
      "velocity": 122,
      "chip": "ym2612"
    },
    {
      "channel": 0,
      "note": 58,
      "start": 11.5205,
      "duration": 0.0424,
      "velocity": 115,
      "chip": "ym2612"
    },
    {
      "channel": 0,
      "note": 58,
      "start": 11.6077,
      "duration": 0.0432,
      "velocity": 115,
      "chip": "ym2612"
    },
    {
      "channel": 0,
      "note": 60,
      "start": 11.6898,
      "duration": 0.042,
      "velocity": 122,
      "chip": "ym2612"
    },
    {
      "channel": 0,
      "note": 60,
      "start": 11.7775,
      "duration": 0.0513,
      "velocity": 115,
      "chip": "ym2612"
    },
    {
      "channel": 0,
      "note": 60,
      "start": 11.9311,
      "duration": 0.0378,
      "velocity": 115,
      "chip": "ym2612"
    },
    {
      "channel": 0,
      "note": 60,
      "start": 12.0171,
      "duration": 0.0421,
      "velocity": 122,
      "chip": "ym2612"
    },
    {
      "channel": 0,
      "note": 60,
      "start": 12.1065,
      "duration": 0.0496,
      "velocity": 115,
      "chip": "ym2612"
    },
    {
      "channel": 0,
      "note": 60,
      "start": 12.2418,
      "duration": 0.0452,
      "velocity": 115,
      "chip": "ym2612"
    },
    {
      "channel": 0,
      "note": 60,
      "start": 12.3319,
      "duration": 0.0441,
      "velocity": 115,
      "chip": "ym2612"
    },
    {
      "channel": 3,
      "note": 63,
      "start": 12.334,
      "duration": 0.0421,
      "velocity": 122,
      "chip": "ym2612"
    },
    {
      "channel": 3,
      "note": 63,
      "start": 12.3783,
      "duration": 0.0411,
      "velocity": 122,
      "chip": "ym2612"
    },
    {
      "channel": 0,
      "note": 60,
      "start": 12.4216,
      "duration": 0.0355,
      "velocity": 115,
      "chip": "ym2612"
    },
    {
      "channel": 3,
      "note": 63,
      "start": 12.4237,
      "duration": 0.0336,
      "velocity": 122,
      "chip": "ym2612"
    },
    {
      "channel": 3,
      "note": 63,
      "start": 12.4595,
      "duration": 0.0698,
      "velocity": 122,
      "chip": "ym2612"
    },
    {
      "channel": 0,
      "note": 60,
      "start": 12.5317,
      "duration": 0.0975,
      "velocity": 115,
      "chip": "ym2612"
    },
    {
      "channel": 3,
      "note": 63,
      "start": 12.534,
      "duration": 0.0953,
      "velocity": 122,
      "chip": "ym2612"
    },
    {
      "channel": 0,
      "note": 60,
      "start": 12.7316,
      "duration": 0.0463,
      "velocity": 115,
      "chip": "ym2612"
    },
    {
      "channel": 3,
      "note": 60,
      "start": 12.7339,
      "duration": 0.044,
      "velocity": 122,
      "chip": "ym2612"
    },
    {
      "channel": 3,
      "note": 60,
      "start": 12.7802,
      "duration": 0.0338,
      "velocity": 122,
      "chip": "ym2612"
    },
    {
      "channel": 0,
      "note": 60,
      "start": 12.8162,
      "duration": 0.045,
      "velocity": 115,
      "chip": "ym2612"
    },
    {
      "channel": 3,
      "note": 60,
      "start": 12.8181,
      "duration": 0.0432,
      "velocity": 122,
      "chip": "ym2612"
    },
    {
      "channel": 3,
      "note": 60,
      "start": 12.8636,
      "duration": 0.0408,
      "velocity": 122,
      "chip": "ym2612"
    },
    {
      "channel": 0,
      "note": 60,
      "start": 12.9065,
      "duration": 0.0416,
      "velocity": 115,
      "chip": "ym2612"
    },
    {
      "channel": 3,
      "note": 60,
      "start": 12.909,
      "duration": 0.0393,
      "velocity": 122,
      "chip": "ym2612"
    },
    {
      "channel": 0,
      "note": 60,
      "start": 13.0312,
      "duration": 0.0388,
      "velocity": 115,
      "chip": "ym2612"
    },
    {
      "channel": 3,
      "note": 55,
      "start": 13.0335,
      "duration": 0.0366,
      "velocity": 122,
      "chip": "ym2612"
    },
    {
      "channel": 3,
      "note": 55,
      "start": 13.0725,
      "duration": 0.0415,
      "velocity": 122,
      "chip": "ym2612"
    },
    {
      "channel": 0,
      "note": 60,
      "start": 13.1163,
      "duration": 0.0453,
      "velocity": 115,
      "chip": "ym2612"
    },
    {
      "channel": 3,
      "note": 55,
      "start": 13.1182,
      "duration": 0.0434,
      "velocity": 122,
      "chip": "ym2612"
    },
    {
      "channel": 3,
      "note": 55,
      "start": 13.164,
      "duration": 0.0405,
      "velocity": 122,
      "chip": "ym2612"
    },
    {
      "channel": 0,
      "note": 60,
      "start": 13.2068,
      "duration": 0.0449,
      "velocity": 115,
      "chip": "ym2612"
    },
    {
      "channel": 3,
      "note": 60,
      "start": 13.2088,
      "duration": 0.0431,
      "velocity": 122,
      "chip": "ym2612"
    },
    {
      "channel": 3,
      "note": 60,
      "start": 13.2541,
      "duration": 0.0346,
      "velocity": 122,
      "chip": "ym2612"
    },
    {
      "channel": 0,
      "note": 60,
      "start": 13.2907,
      "duration": 0.0445,
      "velocity": 115,
      "chip": "ym2612"
    },
    {
      "channel": 3,
      "note": 60,
      "start": 13.2931,
      "duration": 0.0422,
      "velocity": 122,
      "chip": "ym2612"
    },
    {
      "channel": 3,
      "note": 60,
      "start": 13.3379,
      "duration": 0.0412,
      "velocity": 122,
      "chip": "ym2612"
    },
    {
      "channel": 0,
      "note": 55,
      "start": 13.3836,
      "duration": 0.0413,
      "velocity": 122,
      "chip": "ym2612"
    },
    {
      "channel": 0,
      "note": 55,
      "start": 13.4705,
      "duration": 0.0341,
      "velocity": 115,
      "chip": "ym2612"
    },
    {
      "channel": 0,
      "note": 55,
      "start": 13.6069,
      "duration": 0.0452,
      "velocity": 115,
      "chip": "ym2612"
    },
    {
      "channel": 0,
      "note": 55,
      "start": 13.6978,
      "duration": 0.0426,
      "velocity": 122,
      "chip": "ym2612"
    },
    {
      "channel": 0,
      "note": 55,
      "start": 13.7803,
      "duration": 0.042,
      "velocity": 115,
      "chip": "ym2612"
    },
    {
      "channel": 0,
      "note": 55,
      "start": 13.9248,
      "duration": 0.0454,
      "velocity": 115,
      "chip": "ym2612"
    },
    {
      "channel": 0,
      "note": 55,
      "start": 14.0104,
      "duration": 0.042,
      "velocity": 115,
      "chip": "ym2612"
    },
    {
      "channel": 3,
      "note": 62,
      "start": 14.0126,
      "duration": 0.0399,
      "velocity": 122,
      "chip": "ym2612"
    },
    {
      "channel": 0,
      "note": 55,
      "start": 14.0974,
      "duration": 0.0426,
      "velocity": 115,
      "chip": "ym2612"
    },
    {
      "channel": 3,
      "note": 62,
      "start": 14.0996,
      "duration": 0.0406,
      "velocity": 122,
      "chip": "ym2612"
    },
    {
      "channel": 0,
      "note": 55,
      "start": 14.2222,
      "duration": 0.0809,
      "velocity": 115,
      "chip": "ym2612"
    },
    {
      "channel": 0,
      "note": 56,
      "start": 14.4067,
      "duration": 0.0444,
      "velocity": 122,
      "chip": "ym2612"
    },
    {
      "channel": 0,
      "note": 56,
      "start": 14.4975,
      "duration": 0.041,
      "velocity": 115,
      "chip": "ym2612"
    },
    {
      "channel": 0,
      "note": 56,
      "start": 14.5771,
      "duration": 0.0408,
      "velocity": 115,
      "chip": "ym2612"
    },
    {
      "channel": 0,
      "note": 56,
      "start": 14.6934,
      "duration": 0.0457,
      "velocity": 115,
      "chip": "ym2612"
    },
    {
      "channel": 3,
      "note": 63,
      "start": 14.6958,
      "duration": 0.0435,
      "velocity": 122,
      "chip": "ym2612"
    },
    {
      "channel": 0,
      "note": 56,
      "start": 14.7852,
      "duration": 0.0351,
      "velocity": 115,
      "chip": "ym2612"
    },
    {
      "channel": 3,
      "note": 63,
      "start": 14.7874,
      "duration": 0.033,
      "velocity": 122,
      "chip": "ym2612"
    },
    {
      "channel": 0,
      "note": 56,
      "start": 14.8665,
      "duration": 0.0425,
      "velocity": 115,
      "chip": "ym2612"
    },
    {
      "channel": 0,
      "note": 56,
      "start": 14.9539,
      "duration": 0.0431,
      "velocity": 115,
      "chip": "ym2612"
    },
    {
      "channel": 0,
      "note": 53,
      "start": 15.0366,
      "duration": 0.042,
      "velocity": 122,
      "chip": "ym2612"
    },
    {
      "channel": 0,
      "note": 53,
      "start": 15.1244,
      "duration": 0.0513,
      "velocity": 115,
      "chip": "ym2612"
    },
    {
      "channel": 0,
      "note": 53,
      "start": 15.278,
      "duration": 0.038,
      "velocity": 115,
      "chip": "ym2612"
    },
    {
      "channel": 0,
      "note": 53,
      "start": 15.3643,
      "duration": 0.0406,
      "velocity": 122,
      "chip": "ym2612"
    },
    {
      "channel": 0,
      "note": 53,
      "start": 15.4499,
      "duration": 0.0504,
      "velocity": 115,
      "chip": "ym2612"
    },
    {
      "channel": 0,
      "note": 53,
      "start": 15.586,
      "duration": 0.0449,
      "velocity": 115,
      "chip": "ym2612"
    },
    {
      "channel": 0,
      "note": 53,
      "start": 15.6757,
      "duration": 0.0447,
      "velocity": 115,
      "chip": "ym2612"
    },
    {
      "channel": 3,
      "note": 65,
      "start": 15.678,
      "duration": 0.0426,
      "velocity": 122,
      "chip": "ym2612"
    },
    {
      "channel": 0,
      "note": 53,
      "start": 15.7653,
      "duration": 0.0355,
      "velocity": 115,
      "chip": "ym2612"
    },
    {
      "channel": 3,
      "note": 65,
      "start": 15.7684,
      "duration": 0.0325,
      "velocity": 122,
      "chip": "ym2612"
    },
    {
      "channel": 0,
      "note": 53,
      "start": 15.8761,
      "duration": 0.0976,
      "velocity": 115,
      "chip": "ym2612"
    },
    {
      "channel": 0,
      "note": 51,
      "start": 16.0775,
      "duration": 0.0441,
      "velocity": 122,
      "chip": "ym2612"
    },
    {
      "channel": 0,
      "note": 51,
      "start": 16.1619,
      "duration": 0.0417,
      "velocity": 115,
      "chip": "ym2612"
    },
    {
      "channel": 0,
      "note": 51,
      "start": 16.2481,
      "duration": 0.0415,
      "velocity": 115,
      "chip": "ym2612"
    },
    {
      "channel": 0,
      "note": 51,
      "start": 16.3744,
      "duration": 0.0382,
      "velocity": 115,
      "chip": "ym2612"
    },
    {
      "channel": 3,
      "note": 75,
      "start": 16.3767,
      "duration": 0.036,
      "velocity": 122,
      "chip": "ym2612"
    },
    {
      "channel": 0,
      "note": 53,
      "start": 16.46,
      "duration": 0.041,
      "velocity": 122,
      "chip": "ym2612"
    },
    {
      "channel": 0,
      "note": 53,
      "start": 16.548,
      "duration": 0.0364,
      "velocity": 115,
      "chip": "ym2612"
    },
    {
      "channel": 3,
      "note": 65,
      "start": 16.5502,
      "duration": 0.0344,
      "velocity": 122,
      "chip": "ym2612"
    },
    {
      "channel": 0,
      "note": 53,
      "start": 16.6293,
      "duration": 0.0423,
      "velocity": 115,
      "chip": "ym2612"
    },
    {
      "channel": 0,
      "note": 55,
      "start": 16.7192,
      "duration": 0.0422,
      "velocity": 122,
      "chip": "ym2612"
    },
    {
      "channel": 0,
      "note": 55,
      "start": 16.8034,
      "duration": 0.0381,
      "velocity": 115,
      "chip": "ym2612"
    },
    {
      "channel": 0,
      "note": 55,
      "start": 16.944,
      "duration": 0.0469,
      "velocity": 115,
      "chip": "ym2612"
    },
    {
      "channel": 3,
      "note": 67,
      "start": 16.947,
      "duration": 0.044,
      "velocity": 122,
      "chip": "ym2612"
    },
    {
      "channel": 0,
      "note": 55,
      "start": 17.0378,
      "duration": 0.0335,
      "velocity": 122,
      "chip": "ym2612"
    },
    {
      "channel": 0,
      "note": 55,
      "start": 17.1188,
      "duration": 0.0407,
      "velocity": 115,
      "chip": "ym2612"
    },
    {
      "channel": 0,
      "note": 55,
      "start": 17.262,
      "duration": 0.0452,
      "velocity": 115,
      "chip": "ym2612"
    },
    {
      "channel": 0,
      "note": 55,
      "start": 17.3459,
      "duration": 0.0429,
      "velocity": 115,
      "chip": "ym2612"
    },
    {
      "channel": 0,
      "note": 55,
      "start": 17.4338,
      "duration": 0.0416,
      "velocity": 115,
      "chip": "ym2612"
    },
    {
      "channel": 0,
      "note": 55,
      "start": 17.5619,
      "duration": 0.0809,
      "velocity": 115,
      "chip": "ym2612"
    },
    {
      "channel": 0,
      "note": 56,
      "start": 17.7469,
      "duration": 0.0448,
      "velocity": 122,
      "chip": "ym2612"
    },
    {
      "channel": 3,
      "note": 68,
      "start": 17.7493,
      "duration": 0.0425,
      "velocity": 122,
      "chip": "ym2612"
    },
    {
      "channel": 0,
      "note": 56,
      "start": 17.8392,
      "duration": 0.043,
      "velocity": 115,
      "chip": "ym2612"
    },
    {
      "channel": 3,
      "note": 56,
      "start": 17.8413,
      "duration": 0.0411,
      "velocity": 122,
      "chip": "ym2612"
    },
    {
      "channel": 0,
      "note": 56,
      "start": 17.9215,
      "duration": 0.0414,
      "velocity": 115,
      "chip": "ym2612"
    },
    {
      "channel": 3,
      "note": 56,
      "start": 17.9237,
      "duration": 0.0393,
      "velocity": 122,
      "chip": "ym2612"
    },
    {
      "channel": 0,
      "note": 56,
      "start": 18.0357,
      "duration": 0.0447,
      "velocity": 115,
      "chip": "ym2612"
    },
    {
      "channel": 0,
      "note": 56,
      "start": 18.1251,
      "duration": 0.0356,
      "velocity": 115,
      "chip": "ym2612"
    },
    {
      "channel": 0,
      "note": 56,
      "start": 18.2053,
      "duration": 0.0432,
      "velocity": 115,
      "chip": "ym2612"
    },
    {
      "channel": 0,
      "note": 56,
      "start": 18.2948,
      "duration": 0.043,
      "velocity": 115,
      "chip": "ym2612"
    },
    {
      "channel": 0,
      "note": 53,
      "start": 18.3773,
      "duration": 0.0422,
      "velocity": 122,
      "chip": "ym2612"
    },
    {
      "channel": 0,
      "note": 53,
      "start": 18.465,
      "duration": 0.0513,
      "velocity": 115,
      "chip": "ym2612"
    },
    {
      "channel": 0,
      "note": 53,
      "start": 18.6187,
      "duration": 0.0393,
      "velocity": 115,
      "chip": "ym2612"
    },
    {
      "channel": 3,
      "note": 65,
      "start": 18.6209,
      "duration": 0.0372,
      "velocity": 122,
      "chip": "ym2612"
    },
    {
      "channel": 0,
      "note": 53,
      "start": 18.7057,
      "duration": 0.0421,
      "velocity": 122,
      "chip": "ym2612"
    },
    {
      "channel": 0,
      "note": 53,
      "start": 18.7937,
      "duration": 0.0502,
      "velocity": 115,
      "chip": "ym2612"
    },
    {
      "channel": 0,
      "note": 53,
      "start": 18.9297,
      "duration": 0.0453,
      "velocity": 115,
      "chip": "ym2612"
    },
    {
      "channel": 0,
      "note": 53,
      "start": 19.0197,
      "duration": 0.0443,
      "velocity": 115,
      "chip": "ym2612"
    },
    {
      "channel": 0,
      "note": 53,
      "start": 19.1098,
      "duration": 0.033,
      "velocity": 115,
      "chip": "ym2612"
    },
    {
      "channel": 0,
      "note": 53,
      "start": 19.2207,
      "duration": 0.0976,
      "velocity": 115,
      "chip": "ym2612"
    },
    {
      "channel": 0,
      "note": 51,
      "start": 19.422,
      "duration": 0.0399,
      "velocity": 122,
      "chip": "ym2612"
    },
    {
      "channel": 3,
      "note": 63,
      "start": 19.4244,
      "duration": 0.0377,
      "velocity": 122,
      "chip": "ym2612"
    },
    {
      "channel": 0,
      "note": 51,
      "start": 19.5064,
      "duration": 0.0421,
      "velocity": 115,
      "chip": "ym2612"
    },
    {
      "channel": 0,
      "note": 51,
      "start": 19.593,
      "duration": 0.0426,
      "velocity": 115,
      "chip": "ym2612"
    },
    {
      "channel": 3,
      "note": 63,
      "start": 19.5949,
      "duration": 0.0409,
      "velocity": 122,
      "chip": "ym2612"
    },
    {
      "channel": 0,
      "note": 51,
      "start": 19.7047,
      "duration": 0.0438,
      "velocity": 115,
      "chip": "ym2612"
    },
    {
      "channel": 0,
      "note": 53,
      "start": 19.7955,
      "duration": 0.043,
      "velocity": 122,
      "chip": "ym2612"
    },
    {
      "channel": 3,
      "note": 65,
      "start": 19.7976,
      "duration": 0.0411,
      "velocity": 122,
      "chip": "ym2612"
    },
    {
      "channel": 0,
      "note": 53,
      "start": 19.8853,
      "duration": 0.0363,
      "velocity": 115,
      "chip": "ym2612"
    },
    {
      "channel": 3,
      "note": 72,
      "start": 19.8873,
      "duration": 0.0344,
      "velocity": 122,
      "chip": "ym2612"
    },
    {
      "channel": 0,
      "note": 53,
      "start": 19.9674,
      "duration": 0.0431,
      "velocity": 115,
      "chip": "ym2612"
    },
    {
      "channel": 3,
      "note": 65,
      "start": 19.9697,
      "duration": 0.041,
      "velocity": 122,
      "chip": "ym2612"
    },
    {
      "channel": 0,
      "note": 60,
      "start": 20.0569,
      "duration": 0.0441,
      "velocity": 122,
      "chip": "ym2612"
    },
    {
      "channel": 1,
      "note": 67,
      "start": 20.0606,
      "duration": 1.4825,
      "velocity": 107,
      "chip": "ym2612"
    },
    {
      "channel": 4,
      "note": 63,
      "start": 20.0633,
      "duration": 1.4799,
      "velocity": 107,
      "chip": "ym2612"
    },
    {
      "channel": 0,
      "note": 60,
      "start": 20.1401,
      "duration": 0.0398,
      "velocity": 115,
      "chip": "ym2612"
    },
    {
      "channel": 0,
      "note": 60,
      "start": 20.2785,
      "duration": 0.0458,
      "velocity": 115,
      "chip": "ym2612"
    },
    {
      "channel": 0,
      "note": 60,
      "start": 20.3706,
      "duration": 0.0358,
      "velocity": 122,
      "chip": "ym2612"
    },
    {
      "channel": 0,
      "note": 60,
      "start": 20.4528,
      "duration": 0.0423,
      "velocity": 115,
      "chip": "ym2612"
    },
    {
      "channel": 0,
      "note": 60,
      "start": 20.5974,
      "duration": 0.0448,
      "velocity": 115,
      "chip": "ym2612"
    },
    {
      "channel": 0,
      "note": 60,
      "start": 20.6817,
      "duration": 0.0436,
      "velocity": 115,
      "chip": "ym2612"
    },
    {
      "channel": 0,
      "note": 60,
      "start": 20.7701,
      "duration": 0.0418,
      "velocity": 115,
      "chip": "ym2612"
    },
    {
      "channel": 0,
      "note": 60,
      "start": 20.8985,
      "duration": 0.0809,
      "velocity": 115,
      "chip": "ym2612"
    },
    {
      "channel": 0,
      "note": 60,
      "start": 21.0818,
      "duration": 0.0469,
      "velocity": 115,
      "chip": "ym2612"
    },
    {
      "channel": 3,
      "note": 72,
      "start": 21.0853,
      "duration": 0.0436,
      "velocity": 122,
      "chip": "ym2612"
    },
    {
      "channel": 0,
      "note": 60,
      "start": 21.1746,
      "duration": 0.0441,
      "velocity": 115,
      "chip": "ym2612"
    },
    {
      "channel": 3,
      "note": 72,
      "start": 21.1779,
      "duration": 0.041,
      "velocity": 122,
      "chip": "ym2612"
    },
    {
      "channel": 0,
      "note": 60,
      "start": 21.2581,
      "duration": 0.0413,
      "velocity": 115,
      "chip": "ym2612"
    },
    {
      "channel": 0,
      "note": 60,
      "start": 21.3725,
      "duration": 0.0455,
      "velocity": 115,
      "chip": "ym2612"
    },
    {
      "channel": 0,
      "note": 60,
      "start": 21.463,
      "duration": 0.0369,
      "velocity": 115,
      "chip": "ym2612"
    },
    {
      "channel": 3,
      "note": 67,
      "start": 21.4661,
      "duration": 0.0339,
      "velocity": 122,
      "chip": "ym2612"
    },
    {
      "channel": 0,
      "note": 60,
      "start": 21.5464,
      "duration": 0.0461,
      "velocity": 115,
      "chip": "ym2612"
    },
    {
      "channel": 3,
      "note": 67,
      "start": 21.5501,
      "duration": 0.0426,
      "velocity": 122,
      "chip": "ym2612"
    },
    {
      "channel": 1,
      "note": 65,
      "start": 21.5524,
      "duration": 0.0833,
      "velocity": 107,
      "chip": "ym2612"
    },
    {
      "channel": 4,
      "note": 62,
      "start": 21.5558,
      "duration": 0.08,
      "velocity": 107,
      "chip": "ym2612"
    },
    {
      "channel": 0,
      "note": 60,
      "start": 21.6378,
      "duration": 0.0453,
      "velocity": 115,
      "chip": "ym2612"
    },
    {
      "channel": 1,
      "note": 67,
      "start": 21.64,
      "duration": 0.0792,
      "velocity": 107,
      "chip": "ym2612"
    },
    {
      "channel": 4,
      "note": 63,
      "start": 21.6422,
      "duration": 0.0771,
      "velocity": 107,
      "chip": "ym2612"
    },
    {
      "channel": 0,
      "note": 60,
      "start": 21.7237,
      "duration": 0.0421,
      "velocity": 122,
      "chip": "ym2612"
    },
    {
      "channel": 1,
      "note": 68,
      "start": 21.7262,
      "duration": 0.6321,
      "velocity": 107,
      "chip": "ym2612"
    },
    {
      "channel": 4,
      "note": 65,
      "start": 21.7298,
      "duration": 0.6286,
      "velocity": 107,
      "chip": "ym2612"
    },
    {
      "channel": 0,
      "note": 60,
      "start": 21.8131,
      "duration": 0.0438,
      "velocity": 115,
      "chip": "ym2612"
    },
    {
      "channel": 0,
      "note": 60,
      "start": 21.9593,
      "duration": 0.0383,
      "velocity": 115,
      "chip": "ym2612"
    },
    {
      "channel": 0,
      "note": 60,
      "start": 22.0457,
      "duration": 0.0423,
      "velocity": 122,
      "chip": "ym2612"
    },
    {
      "channel": 0,
      "note": 60,
      "start": 22.1338,
      "duration": 0.0366,
      "velocity": 115,
      "chip": "ym2612"
    },
    {
      "channel": 0,
      "note": 60,
      "start": 22.2708,
      "duration": 0.0448,
      "velocity": 115,
      "chip": "ym2612"
    },
    {
      "channel": 0,
      "note": 60,
      "start": 22.3607,
      "duration": 0.0454,
      "velocity": 115,
      "chip": "ym2612"
    },
    {
      "channel": 1,
      "note": 70,
      "start": 22.3629,
      "duration": 0.1942,
      "velocity": 107,
      "chip": "ym2612"
    },
    {
      "channel": 4,
      "note": 65,
      "start": 22.3651,
      "duration": 0.1922,
      "velocity": 107,
      "chip": "ym2612"
    },
    {
      "channel": 0,
      "note": 60,
      "start": 22.4472,
      "duration": 0.0397,
      "velocity": 115,
      "chip": "ym2612"
    },
    {
      "channel": 0,
      "note": 60,
      "start": 22.5596,
      "duration": 0.0973,
      "velocity": 115,
      "chip": "ym2612"
    },
    {
      "channel": 1,
      "note": 72,
      "start": 22.563,
      "duration": 0.8284,
      "velocity": 107,
      "chip": "ym2612"
    },
    {
      "channel": 4,
      "note": 67,
      "start": 22.5663,
      "duration": 0.8252,
      "velocity": 107,
      "chip": "ym2612"
    },
    {
      "channel": 0,
      "note": 60,
      "start": 22.7594,
      "duration": 0.0395,
      "velocity": 115,
      "chip": "ym2612"
    },
    {
      "channel": 3,
      "note": 67,
      "start": 22.7629,
      "duration": 0.0362,
      "velocity": 122,
      "chip": "ym2612"
    },
    {
      "channel": 0,
      "note": 60,
      "start": 22.8445,
      "duration": 0.0445,
      "velocity": 115,
      "chip": "ym2612"
    },
    {
      "channel": 3,
      "note": 67,
      "start": 22.8484,
      "duration": 0.0408,
      "velocity": 122,
      "chip": "ym2612"
    },
    {
      "channel": 0,
      "note": 60,
      "start": 22.9339,
      "duration": 0.0417,
      "velocity": 115,
      "chip": "ym2612"
    },
    {
      "channel": 0,
      "note": 60,
      "start": 23.0425,
      "duration": 0.045,
      "velocity": 115,
      "chip": "ym2612"
    },
    {
      "channel": 0,
      "note": 60,
      "start": 23.1335,
      "duration": 0.0441,
      "velocity": 115,
      "chip": "ym2612"
    },
    {
      "channel": 3,
      "note": 63,
      "start": 23.1365,
      "duration": 0.0413,
      "velocity": 122,
      "chip": "ym2612"
    },
    {
      "channel": 0,
      "note": 60,
      "start": 23.2224,
      "duration": 0.0372,
      "velocity": 115,
      "chip": "ym2612"
    },
    {
      "channel": 3,
      "note": 63,
      "start": 23.2256,
      "duration": 0.0342,
      "velocity": 122,
      "chip": "ym2612"
    },
    {
      "channel": 0,
      "note": 60,
      "start": 23.3061,
      "duration": 0.0424,
      "velocity": 115,
      "chip": "ym2612"
    },
    {
      "channel": 0,
      "note": 58,
      "start": 23.3961,
      "duration": 0.0424,
      "velocity": 122,
      "chip": "ym2612"
    },
    {
      "channel": 1,
      "note": 70,
      "start": 23.3985,
      "duration": 0.2156,
      "velocity": 107,
      "chip": "ym2612"
    },
    {
      "channel": 4,
      "note": 74,
      "start": 23.4007,
      "duration": 0.2135,
      "velocity": 107,
      "chip": "ym2612"
    },
    {
      "channel": 0,
      "note": 58,
      "start": 23.4779,
      "duration": 0.0407,
      "velocity": 115,
      "chip": "ym2612"
    },
    {
      "channel": 0,
      "note": 58,
      "start": 23.6166,
      "duration": 0.0477,
      "velocity": 115,
      "chip": "ym2612"
    },
    {
      "channel": 1,
      "note": 72,
      "start": 23.6192,
      "duration": 0.0885,
      "velocity": 107,
      "chip": "ym2612"
    },
    {
      "channel": 4,
      "note": 75,
      "start": 23.6217,
      "duration": 0.0861,
      "velocity": 107,
      "chip": "ym2612"
    },
    {
      "channel": 0,
      "note": 58,
      "start": 23.7121,
      "duration": 0.036,
      "velocity": 122,
      "chip": "ym2612"
    },
    {
      "channel": 1,
      "note": 70,
      "start": 23.7145,
      "duration": 0.5161,
      "velocity": 107,
      "chip": "ym2612"
    },
    {
      "channel": 4,
      "note": 77,
      "start": 23.7167,
      "duration": 0.5141,
      "velocity": 107,
      "chip": "ym2612"
    },
    {
      "channel": 0,
      "note": 58,
      "start": 23.795,
      "duration": 0.039,
      "velocity": 115,
      "chip": "ym2612"
    },
    {
      "channel": 0,
      "note": 58,
      "start": 23.9326,
      "duration": 0.0452,
      "velocity": 115,
      "chip": "ym2612"
    },
    {
      "channel": 0,
      "note": 58,
      "start": 24.0171,
      "duration": 0.0429,
      "velocity": 115,
      "chip": "ym2612"
    },
    {
      "channel": 0,
      "note": 58,
      "start": 24.1048,
      "duration": 0.0417,
      "velocity": 115,
      "chip": "ym2612"
    },
    {
      "channel": 0,
      "note": 58,
      "start": 24.2332,
      "duration": 0.0807,
      "velocity": 115,
      "chip": "ym2612"
    },
    {
      "channel": 1,
      "note": 70,
      "start": 24.2357,
      "duration": 0.0783,
      "velocity": 107,
      "chip": "ym2612"
    },
    {
      "channel": 4,
      "note": 77,
      "start": 24.2382,
      "duration": 0.076,
      "velocity": 107,
      "chip": "ym2612"
    },
    {
      "channel": 1,
      "note": 68,
      "start": 24.3168,
      "duration": 0.0971,
      "velocity": 107,
      "chip": "ym2612"
    },
    {
      "channel": 4,
      "note": 74,
      "start": 24.3191,
      "duration": 0.095,
      "velocity": 107,
      "chip": "ym2612"
    },
    {
      "channel": 0,
      "note": 58,
      "start": 24.4164,
      "duration": 0.05,
      "velocity": 115,
      "chip": "ym2612"
    },
    {
      "channel": 3,
      "note": 65,
      "start": 24.4199,
      "duration": 0.0466,
      "velocity": 122,
      "chip": "ym2612"
    },
    {
      "channel": 1,
      "note": 67,
      "start": 24.4221,
      "duration": 0.0444,
      "velocity": 107,
      "chip": "ym2612"
    },
    {
      "channel": 4,
      "note": 70,
      "start": 24.4243,
      "duration": 0.0422,
      "velocity": 107,
      "chip": "ym2612"
    },
    {
      "channel": 3,
      "note": 65,
      "start": 24.4692,
      "duration": 0.042,
      "velocity": 122,
      "chip": "ym2612"
    },
    {
      "channel": 1,
      "note": 65,
      "start": 24.4711,
      "duration": 0.04,
      "velocity": 107,
      "chip": "ym2612"
    },
    {
      "channel": 4,
      "note": 68,
      "start": 24.473,
      "duration": 0.0382,
      "velocity": 107,
      "chip": "ym2612"
    },
    {
      "channel": 0,
      "note": 58,
      "start": 24.5136,
      "duration": 0.046,
      "velocity": 115,
      "chip": "ym2612"
    },
    {
      "channel": 3,
      "note": 65,
      "start": 24.5166,
      "duration": 0.0432,
      "velocity": 115,
      "chip": "ym2612"
    },
    {
      "channel": 1,
      "note": 67,
      "start": 24.5195,
      "duration": 0.0402,
      "velocity": 107,
      "chip": "ym2612"
    },
    {
      "channel": 4,
      "note": 70,
      "start": 24.5218,
      "duration": 0.0381,
      "velocity": 107,
      "chip": "ym2612"
    },
    {
      "channel": 3,
      "note": 65,
      "start": 24.5623,
      "duration": 0.0364,
      "velocity": 115,
      "chip": "ym2612"
    },
    {
      "channel": 1,
      "note": 68,
      "start": 24.5642,
      "duration": 0.0343,
      "velocity": 107,
      "chip": "ym2612"
    },
    {
      "channel": 4,
      "note": 72,
      "start": 24.5663,
      "duration": 0.0324,
      "velocity": 107,
      "chip": "ym2612"
    },
    {
      "channel": 0,
      "note": 58,
      "start": 24.6019,
      "duration": 0.0428,
      "velocity": 115,
      "chip": "ym2612"
    },
    {
      "channel": 3,
      "note": 65,
      "start": 24.6051,
      "duration": 0.0397,
      "velocity": 122,
      "chip": "ym2612"
    },
    {
      "channel": 1,
      "note": 70,
      "start": 24.6071,
      "duration": 0.0376,
      "velocity": 107,
      "chip": "ym2612"
    },
    {
      "channel": 4,
      "note": 74,
      "start": 24.6103,
      "duration": 0.0346,
      "velocity": 107,
      "chip": "ym2612"
    },
    {
      "channel": 3,
      "note": 65,
      "start": 24.6481,
      "duration": 0.0598,
      "velocity": 122,
      "chip": "ym2612"
    },
    {
      "channel": 1,
      "note": 72,
      "start": 24.65,
      "duration": 0.0578,
      "velocity": 107,
      "chip": "ym2612"
    },
    {
      "channel": 4,
      "note": 75,
      "start": 24.6521,
      "duration": 0.056,
      "velocity": 107,
      "chip": "ym2612"
    },
    {
      "channel": 0,
      "note": 58,
      "start": 24.7104,
      "duration": 0.0498,
      "velocity": 115,
      "chip": "ym2612"
    },
    {
      "channel": 3,
      "note": 65,
      "start": 24.7142,
      "duration": 0.3392,
      "velocity": 122,
      "chip": "ym2612"
    },
    {
      "channel": 1,
      "note": 74,
      "start": 24.7167,
      "duration": 0.3367,
      "velocity": 107,
      "chip": "ym2612"
    },
    {
      "channel": 4,
      "note": 77,
      "start": 24.7192,
      "duration": 0.3343,
      "velocity": 107,
      "chip": "ym2612"
    },
    {
      "channel": 0,
      "note": 58,
      "start": 24.8045,
      "duration": 0.0359,
      "velocity": 115,
      "chip": "ym2612"
    },
    {
      "channel": 0,
      "note": 58,
      "start": 24.8852,
      "duration": 0.0434,
      "velocity": 115,
      "chip": "ym2612"
    },
    {
      "channel": 0,
      "note": 58,
      "start": 24.9747,
      "duration": 0.0382,
      "velocity": 115,
      "chip": "ym2612"
    },
    {
      "channel": 0,
      "note": 60,
      "start": 25.0571,
      "duration": 0.0438,
      "velocity": 122,
      "chip": "ym2612"
    },
    {
      "channel": 1,
      "note": 75,
      "start": 25.0603,
      "duration": 0.3095,
      "velocity": 107,
      "chip": "ym2612"
    },
    {
      "channel": 4,
      "note": 72,
      "start": 25.0627,
      "duration": 0.3073,
      "velocity": 107,
      "chip": "ym2612"
    },
    {
      "channel": 0,
      "note": 60,
      "start": 25.1492,
      "duration": 0.0453,
      "velocity": 115,
      "chip": "ym2612"
    },
    {
      "channel": 0,
      "note": 60,
      "start": 25.2822,
      "duration": 0.0438,
      "velocity": 115,
      "chip": "ym2612"
    },
    {
      "channel": 0,
      "note": 60,
      "start": 25.3732,
      "duration": 0.0429,
      "velocity": 122,
      "chip": "ym2612"
    },
    {
      "channel": 1,
      "note": 72,
      "start": 25.3757,
      "duration": 1.3449,
      "velocity": 107,
      "chip": "ym2612"
    },
    {
      "channel": 4,
      "note": 67,
      "start": 25.3796,
      "duration": 1.3411,
      "velocity": 107,
      "chip": "ym2612"
    },
    {
      "channel": 0,
      "note": 60,
      "start": 25.4634,
      "duration": 0.0322,
      "velocity": 115,
      "chip": "ym2612"
    },
    {
      "channel": 0,
      "note": 60,
      "start": 25.5933,
      "duration": 0.0452,
      "velocity": 115,
      "chip": "ym2612"
    },
    {
      "channel": 0,
      "note": 60,
      "start": 25.6846,
      "duration": 0.0435,
      "velocity": 115,
      "chip": "ym2612"
    },
    {
      "channel": 0,
      "note": 60,
      "start": 25.7658,
      "duration": 0.0414,
      "velocity": 115,
      "chip": "ym2612"
    },
    {
      "channel": 0,
      "note": 60,
      "start": 25.8853,
      "duration": 0.0975,
      "velocity": 115,
      "chip": "ym2612"
    },
    {
      "channel": 0,
      "note": 60,
      "start": 26.0853,
      "duration": 0.0395,
      "velocity": 115,
      "chip": "ym2612"
    },
    {
      "channel": 3,
      "note": 63,
      "start": 26.0889,
      "duration": 0.036,
      "velocity": 122,
      "chip": "ym2612"
    },
    {
      "channel": 3,
      "note": 63,
      "start": 26.1283,
      "duration": 0.04,
      "velocity": 122,
      "chip": "ym2612"
    },
    {
      "channel": 0,
      "note": 60,
      "start": 26.1705,
      "duration": 0.0451,
      "velocity": 115,
      "chip": "ym2612"
    },
    {
      "channel": 3,
      "note": 63,
      "start": 26.1749,
      "duration": 0.0409,
      "velocity": 122,
      "chip": "ym2612"
    },
    {
      "channel": 0,
      "note": 60,
      "start": 26.2605,
      "duration": 0.0417,
      "velocity": 115,
      "chip": "ym2612"
    },
    {
      "channel": 0,
      "note": 60,
      "start": 26.3691,
      "duration": 0.0452,
      "velocity": 115,
      "chip": "ym2612"
    },
    {
      "channel": 0,
      "note": 60,
      "start": 26.4603,
      "duration": 0.0442,
      "velocity": 115,
      "chip": "ym2612"
    },
    {
      "channel": 3,
      "note": 60,
      "start": 26.4632,
      "duration": 0.0415,
      "velocity": 122,
      "chip": "ym2612"
    },
    {
      "channel": 3,
      "note": 60,
      "start": 26.5092,
      "duration": 0.0401,
      "velocity": 115,
      "chip": "ym2612"
    },
    {
      "channel": 0,
      "note": 60,
      "start": 26.5513,
      "duration": 0.038,
      "velocity": 115,
      "chip": "ym2612"
    },
    {
      "channel": 3,
      "note": 60,
      "start": 26.5546,
      "duration": 0.0348,
      "velocity": 122,
      "chip": "ym2612"
    },
    {
      "channel": 0,
      "note": 60,
      "start": 26.6359,
      "duration": 0.0422,
      "velocity": 115,
      "chip": "ym2612"
    },
    {
      "channel": 0,
      "note": 60,
      "start": 26.7254,
      "duration": 0.0425,
      "velocity": 122,
      "chip": "ym2612"
    },
    {
      "channel": 1,
      "note": 84,
      "start": 26.7279,
      "duration": 0.2135,
      "velocity": 107,
      "chip": "ym2612"
    },
    {
      "channel": 4,
      "note": 79,
      "start": 26.7317,
      "duration": 0.2099,
      "velocity": 107,
      "chip": "ym2612"
    },
    {
      "channel": 0,
      "note": 60,
      "start": 26.808,
      "duration": 0.0392,
      "velocity": 115,
      "chip": "ym2612"
    },
    {
      "channel": 0,
      "note": 60,
      "start": 26.9441,
      "duration": 0.0475,
      "velocity": 115,
      "chip": "ym2612"
    },
    {
      "channel": 1,
      "note": 91,
      "start": 26.9468,
      "duration": 1.1673,
      "velocity": 107,
      "chip": "ym2612"
    },
    {
      "channel": 4,
      "note": 84,
      "start": 26.9494,
      "duration": 0.3933,
      "velocity": 107,
      "chip": "ym2612"
    },
    {
      "channel": 0,
      "note": 60,
      "start": 27.0386,
      "duration": 0.0339,
      "velocity": 122,
      "chip": "ym2612"
    },
    {
      "channel": 0,
      "note": 60,
      "start": 27.1194,
      "duration": 0.0398,
      "velocity": 115,
      "chip": "ym2612"
    },
    {
      "channel": 0,
      "note": 60,
      "start": 27.2617,
      "duration": 0.045,
      "velocity": 115,
      "chip": "ym2612"
    },
    {
      "channel": 0,
      "note": 60,
      "start": 27.3458,
      "duration": 0.0441,
      "velocity": 115,
      "chip": "ym2612"
    },
    {
      "channel": 3,
      "note": 48,
      "start": 27.349,
      "duration": 0.0411,
      "velocity": 122,
      "chip": "ym2612"
    },
    {
      "channel": 4,
      "note": 86,
      "start": 27.3515,
      "duration": 0.2035,
      "velocity": 107,
      "chip": "ym2612"
    },
    {
      "channel": 3,
      "note": 48,
      "start": 27.3936,
      "duration": 0.0399,
      "velocity": 122,
      "chip": "ym2612"
    },
    {
      "channel": 0,
      "note": 60,
      "start": 27.4357,
      "duration": 0.0422,
      "velocity": 115,
      "chip": "ym2612"
    },
    {
      "channel": 3,
      "note": 48,
      "start": 27.4401,
      "duration": 0.0379,
      "velocity": 115,
      "chip": "ym2612"
    },
    {
      "channel": 3,
      "note": 48,
      "start": 27.4823,
      "duration": 0.0726,
      "velocity": 122,
      "chip": "ym2612"
    },
    {
      "channel": 0,
      "note": 60,
      "start": 27.5573,
      "duration": 0.0807,
      "velocity": 115,
      "chip": "ym2612"
    },
    {
      "channel": 3,
      "note": 48,
      "start": 27.5608,
      "duration": 0.0774,
      "velocity": 122,
      "chip": "ym2612"
    },
    {
      "channel": 4,
      "note": 87,
      "start": 27.5634,
      "duration": 0.5509,
      "velocity": 107,
      "chip": "ym2612"
    },
    {
      "channel": 0,
      "note": 60,
      "start": 27.7406,
      "duration": 0.0458,
      "velocity": 115,
      "chip": "ym2612"
    },
    {
      "channel": 3,
      "note": 48,
      "start": 27.7429,
      "duration": 0.0437,
      "velocity": 122,
      "chip": "ym2612"
    },
    {
      "channel": 0,
      "note": 60,
      "start": 27.8325,
      "duration": 0.0383,
      "velocity": 115,
      "chip": "ym2612"
    },
    {
      "channel": 3,
      "note": 48,
      "start": 27.8732,
      "duration": 0.0389,
      "velocity": 122,
      "chip": "ym2612"
    },
    {
      "channel": 0,
      "note": 60,
      "start": 27.9144,
      "duration": 0.0416,
      "velocity": 115,
      "chip": "ym2612"
    },
    {
      "channel": 0,
      "note": 60,
      "start": 28.0329,
      "duration": 0.0459,
      "velocity": 115,
      "chip": "ym2612"
    },
    {
      "channel": 3,
      "note": 48,
      "start": 28.0354,
      "duration": 0.0436,
      "velocity": 122,
      "chip": "ym2612"
    },
    {
      "channel": 0,
      "note": 60,
      "start": 28.1166,
      "duration": 0.0451,
      "velocity": 115,
      "chip": "ym2612"
    },
    {
      "channel": 1,
      "note": 89,
      "start": 28.1197,
      "duration": 0.1309,
      "velocity": 107,
      "chip": "ym2612"
    },
    {
      "channel": 4,
      "note": 86,
      "start": 28.122,
      "duration": 0.1288,
      "velocity": 107,
      "chip": "ym2612"
    },
    {
      "channel": 0,
      "note": 60,
      "start": 28.2065,
      "duration": 0.044,
      "velocity": 115,
      "chip": "ym2612"
    },
    {
      "channel": 1,
      "note": 87,
      "start": 28.2532,
      "duration": 0.1239,
      "velocity": 107,
      "chip": "ym2612"
    },
    {
      "channel": 4,
      "note": 84,
      "start": 28.2562,
      "duration": 0.121,
      "velocity": 107,
      "chip": "ym2612"
    },
    {
      "channel": 0,
      "note": 60,
      "start": 28.2988,
      "duration": 0.0359,
      "velocity": 115,
      "chip": "ym2612"
    },
    {
      "channel": 0,
      "note": 60,
      "start": 28.3807,
      "duration": 0.0433,
      "velocity": 122,
      "chip": "ym2612"
    },
    {
      "channel": 1,
      "note": 86,
      "start": 28.3841,
      "duration": 0.2168,
      "velocity": 107,
      "chip": "ym2612"
    },
    {
      "channel": 4,
      "note": 82,
      "start": 28.3864,
      "duration": 0.2146,
      "velocity": 107,
      "chip": "ym2612"
    },
    {
      "channel": 0,
      "note": 60,
      "start": 28.4722,
      "duration": 0.0453,
      "velocity": 115,
      "chip": "ym2612"
    },
    {
      "channel": 0,
      "note": 60,
      "start": 28.6034,
      "duration": 0.0473,
      "velocity": 115,
      "chip": "ym2612"
    },
    {
      "channel": 1,
      "note": 87,
      "start": 28.6059,
      "duration": 0.0875,
      "velocity": 107,
      "chip": "ym2612"
    },
    {
      "channel": 4,
      "note": 84,
      "start": 28.6085,
      "duration": 0.0851,
      "velocity": 107,
      "chip": "ym2612"
    },
    {
      "channel": 0,
      "note": 60,
      "start": 28.6978,
      "duration": 0.0423,
      "velocity": 122,
      "chip": "ym2612"
    },
    {
      "channel": 1,
      "note": 89,
      "start": 28.7004,
      "duration": 0.9861,
      "velocity": 107,
      "chip": "ym2612"
    },
    {
      "channel": 4,
      "note": 86,
      "start": 28.7029,
      "duration": 0.984,
      "velocity": 107,
      "chip": "ym2612"
    },
    {
      "channel": 0,
      "note": 60,
      "start": 28.7871,
      "duration": 0.0323,
      "velocity": 115,
      "chip": "ym2612"
    },
    {
      "channel": 0,
      "note": 60,
      "start": 28.9173,
      "duration": 0.0449,
      "velocity": 115,
      "chip": "ym2612"
    },
    {
      "channel": 0,
      "note": 60,
      "start": 29.0071,
      "duration": 0.0446,
      "velocity": 115,
      "chip": "ym2612"
    },
    {
      "channel": 3,
      "note": 51,
      "start": 29.0093,
      "duration": 0.0425,
      "velocity": 122,
      "chip": "ym2612"
    },
    {
      "channel": 3,
      "note": 51,
      "start": 29.0549,
      "duration": 0.0338,
      "velocity": 122,
      "chip": "ym2612"
    },
    {
      "channel": 0,
      "note": 60,
      "start": 29.091,
      "duration": 0.0415,
      "velocity": 115,
      "chip": "ym2612"
    },
    {
      "channel": 3,
      "note": 51,
      "start": 29.0943,
      "duration": 0.0385,
      "velocity": 122,
      "chip": "ym2612"
    },
    {
      "channel": 3,
      "note": 51,
      "start": 29.1367,
      "duration": 0.0688,
      "velocity": 122,
      "chip": "ym2612"
    },
    {
      "channel": 0,
      "note": 60,
      "start": 29.208,
      "duration": 0.0975,
      "velocity": 115,
      "chip": "ym2612"
    },
    {
      "channel": 3,
      "note": 51,
      "start": 29.2114,
      "duration": 0.0943,
      "velocity": 122,
      "chip": "ym2612"
    },
    {
      "channel": 3,
      "note": 51,
      "start": 29.3083,
      "duration": 0.0972,
      "velocity": 122,
      "chip": "ym2612"
    },
    {
      "channel": 0,
      "note": 60,
      "start": 29.408,
      "duration": 0.0395,
      "velocity": 115,
      "chip": "ym2612"
    },
    {
      "channel": 3,
      "note": 51,
      "start": 29.4114,
      "duration": 0.0361,
      "velocity": 115,
      "chip": "ym2612"
    },
    {
      "channel": 3,
      "note": 51,
      "start": 29.451,
      "duration": 0.04,
      "velocity": 122,
      "chip": "ym2612"
    },
    {
      "channel": 0,
      "note": 60,
      "start": 29.4934,
      "duration": 0.0442,
      "velocity": 115,
      "chip": "ym2612"
    },
    {
      "channel": 3,
      "note": 51,
      "start": 29.4973,
      "duration": 0.0404,
      "velocity": 122,
      "chip": "ym2612"
    },
    {
      "channel": 3,
      "note": 51,
      "start": 29.5423,
      "duration": 0.0401,
      "velocity": 122,
      "chip": "ym2612"
    },
    {
      "channel": 0,
      "note": 60,
      "start": 29.5844,
      "duration": 0.0414,
      "velocity": 115,
      "chip": "ym2612"
    },
    {
      "channel": 3,
      "note": 51,
      "start": 29.5879,
      "duration": 0.038,
      "velocity": 115,
      "chip": "ym2612"
    },
    {
      "channel": 3,
      "note": 51,
      "start": 29.6282,
      "duration": 0.0584,
      "velocity": 115,
      "chip": "ym2612"
    },
    {
      "channel": 0,
      "note": 60,
      "start": 29.6892,
      "duration": 0.0493,
      "velocity": 115,
      "chip": "ym2612"
    },
    {
      "channel": 3,
      "note": 51,
      "start": 29.6928,
      "duration": 0.0459,
      "velocity": 122,
      "chip": "ym2612"
    },
    {
      "channel": 1,
      "note": 91,
      "start": 29.6952,
      "duration": 0.0433,
      "velocity": 107,
      "chip": "ym2612"
    },
    {
      "channel": 4,
      "note": 87,
      "start": 29.6978,
      "duration": 0.0409,
      "velocity": 107,
      "chip": "ym2612"
    },
    {
      "channel": 1,
      "note": 92,
      "start": 29.7409,
      "duration": 0.0418,
      "velocity": 107,
      "chip": "ym2612"
    },
    {
      "channel": 4,
      "note": 89,
      "start": 29.743,
      "duration": 0.0399,
      "velocity": 107,
      "chip": "ym2612"
    },
    {
      "channel": 0,
      "note": 60,
      "start": 29.7851,
      "duration": 0.0458,
      "velocity": 115,
      "chip": "ym2612"
    },
    {
      "channel": 1,
      "note": 91,
      "start": 29.7872,
      "duration": 0.0439,
      "velocity": 107,
      "chip": "ym2612"
    },
    {
      "channel": 4,
      "note": 87,
      "start": 29.79,
      "duration": 0.0411,
      "velocity": 107,
      "chip": "ym2612"
    },
    {
      "channel": 1,
      "note": 92,
      "start": 29.8334,
      "duration": 0.0418,
      "velocity": 107,
      "chip": "ym2612"
    },
    {
      "channel": 4,
      "note": 89,
      "start": 29.8359,
      "duration": 0.0395,
      "velocity": 107,
      "chip": "ym2612"
    },
    {
      "channel": 0,
      "note": 60,
      "start": 29.8775,
      "duration": 0.0365,
      "velocity": 115,
      "chip": "ym2612"
    },
    {
      "channel": 1,
      "note": 91,
      "start": 29.8795,
      "duration": 0.0345,
      "velocity": 107,
      "chip": "ym2612"
    },
    {
      "channel": 4,
      "note": 87,
      "start": 29.8816,
      "duration": 0.0325,
      "velocity": 107,
      "chip": "ym2612"
    },
    {
      "channel": 1,
      "note": 92,
      "start": 29.9165,
      "duration": 0.0417,
      "velocity": 107,
      "chip": "ym2612"
    },
    {
      "channel": 4,
      "note": 89,
      "start": 29.9195,
      "duration": 0.0388,
      "velocity": 107,
      "chip": "ym2612"
    },
    {
      "channel": 0,
      "note": 60,
      "start": 29.9606,
      "duration": 0.0459,
      "velocity": 115,
      "chip": "ym2612"
    },
    {
      "channel": 1,
      "note": 91,
      "start": 29.9636,
      "duration": 0.0431,
      "velocity": 107,
      "chip": "ym2612"
    },
    {
      "channel": 4,
      "note": 87,
      "start": 29.9657,
      "duration": 0.0411,
      "velocity": 107,
      "chip": "ym2612"
    },
    {
      "channel": 1,
      "note": 87,
      "start": 30.0104,
      "duration": 0.042,
      "velocity": 107,
      "chip": "ym2612"
    },
    {
      "channel": 4,
      "note": 84,
      "start": 30.0126,
      "duration": 0.04,
      "velocity": 107,
      "chip": "ym2612"
    },
    {
      "channel": 0,
      "note": 58,
      "start": 30.0561,
      "duration": 0.0433,
      "velocity": 122,
      "chip": "ym2612"
    },
    {
      "channel": 1,
      "note": 91,
      "start": 30.0584,
      "duration": 0.3018,
      "velocity": 107,
      "chip": "ym2612"
    },
    {
      "channel": 4,
      "note": 87,
      "start": 30.0623,
      "duration": 0.298,
      "velocity": 107,
      "chip": "ym2612"
    },
    {
      "channel": 0,
      "note": 58,
      "start": 30.1386,
      "duration": 0.0403,
      "velocity": 115,
      "chip": "ym2612"
    },
    {
      "channel": 0,
      "note": 58,
      "start": 30.2765,
      "duration": 0.0454,
      "velocity": 115,
      "chip": "ym2612"
    },
    {
      "channel": 0,
      "note": 58,
      "start": 30.3635,
      "duration": 0.042,
      "velocity": 122,
      "chip": "ym2612"
    },
    {
      "channel": 1,
      "note": 96,
      "start": 30.3674,
      "duration": 0.9948,
      "velocity": 107,
      "chip": "ym2612"
    },
    {
      "channel": 4,
      "note": 86,
      "start": 30.3696,
      "duration": 0.3086,
      "velocity": 107,
      "chip": "ym2612"
    },
    {
      "channel": 0,
      "note": 58,
      "start": 30.4508,
      "duration": 0.0439,
      "velocity": 115,
      "chip": "ym2612"
    },
    {
      "channel": 0,
      "note": 58,
      "start": 30.597,
      "duration": 0.0391,
      "velocity": 115,
      "chip": "ym2612"
    },
    {
      "channel": 0,
      "note": 58,
      "start": 30.6815,
      "duration": 0.0437,
      "velocity": 115,
      "chip": "ym2612"
    },
    {
      "channel": 4,
      "note": 89,
      "start": 30.6842,
      "duration": 0.6781,
      "velocity": 107,
      "chip": "ym2612"
    },
    {
      "channel": 0,
      "note": 58,
      "start": 30.7692,
      "duration": 0.0423,
      "velocity": 115,
      "chip": "ym2612"
    },
    {
      "channel": 0,
      "note": 58,
      "start": 30.8786,
      "duration": 0.0975,
      "velocity": 115,
      "chip": "ym2612"
    },
    {
      "channel": 3,
      "note": 62,
      "start": 30.8809,
      "duration": 0.0954,
      "velocity": 122,
      "chip": "ym2612"
    },
    {
      "channel": 0,
      "note": 58,
      "start": 31.0785,
      "duration": 0.0453,
      "velocity": 115,
      "chip": "ym2612"
    },
    {
      "channel": 3,
      "note": 62,
      "start": 31.0808,
      "duration": 0.0432,
      "velocity": 122,
      "chip": "ym2612"
    },
    {
      "channel": 0,
      "note": 58,
      "start": 31.1698,
      "duration": 0.0371,
      "velocity": 115,
      "chip": "ym2612"
    },
    {
      "channel": 3,
      "note": 62,
      "start": 31.173,
      "duration": 0.034,
      "velocity": 122,
      "chip": "ym2612"
    },
    {
      "channel": 0,
      "note": 58,
      "start": 31.2514,
      "duration": 0.0423,
      "velocity": 115,
      "chip": "ym2612"
    },
    {
      "channel": 3,
      "note": 62,
      "start": 31.2545,
      "duration": 0.0394,
      "velocity": 122,
      "chip": "ym2612"
    },
    {
      "channel": 0,
      "note": 58,
      "start": 31.3647,
      "duration": 0.049,
      "velocity": 115,
      "chip": "ym2612"
    },
    {
      "channel": 3,
      "note": 62,
      "start": 31.3682,
      "duration": 0.0456,
      "velocity": 122,
      "chip": "ym2612"
    },
    {
      "channel": 1,
      "note": 98,
      "start": 31.3706,
      "duration": 0.0794,
      "velocity": 107,
      "chip": "ym2612"
    },
    {
      "channel": 4,
      "note": 94,
      "start": 31.3732,
      "duration": 0.077,
      "velocity": 107,
      "chip": "ym2612"
    },
    {
      "channel": 0,
      "note": 58,
      "start": 31.4523,
      "duration": 0.0454,
      "velocity": 115,
      "chip": "ym2612"
    },
    {
      "channel": 3,
      "note": 62,
      "start": 31.4545,
      "duration": 0.0433,
      "velocity": 122,
      "chip": "ym2612"
    },
    {
      "channel": 1,
      "note": 99,
      "start": 31.4566,
      "duration": 0.0841,
      "velocity": 107,
      "chip": "ym2612"
    },
    {
      "channel": 4,
      "note": 96,
      "start": 31.4588,
      "duration": 0.0821,
      "velocity": 107,
      "chip": "ym2612"
    },
    {
      "channel": 0,
      "note": 58,
      "start": 31.5441,
      "duration": 0.0439,
      "velocity": 115,
      "chip": "ym2612"
    },
    {
      "channel": 1,
      "note": 98,
      "start": 31.5463,
      "duration": 0.085,
      "velocity": 107,
      "chip": "ym2612"
    },
    {
      "channel": 4,
      "note": 94,
      "start": 31.5481,
      "duration": 0.0833,
      "velocity": 107,
      "chip": "ym2612"
    },
    {
      "channel": 0,
      "note": 58,
      "start": 31.6335,
      "duration": 0.0378,
      "velocity": 115,
      "chip": "ym2612"
    },
    {
      "channel": 1,
      "note": 99,
      "start": 31.6355,
      "duration": 0.0802,
      "velocity": 107,
      "chip": "ym2612"
    },
    {
      "channel": 4,
      "note": 96,
      "start": 31.6382,
      "duration": 0.0775,
      "velocity": 107,
      "chip": "ym2612"
    },
    {
      "channel": 0,
      "note": 60,
      "start": 31.7194,
      "duration": 0.0419,
      "velocity": 122,
      "chip": "ym2612"
    },
    {
      "channel": 1,
      "note": 98,
      "start": 31.7216,
      "duration": 0.2144,
      "velocity": 107,
      "chip": "ym2612"
    },
    {
      "channel": 4,
      "note": 94,
      "start": 31.7253,
      "duration": 0.2108,
      "velocity": 107,
      "chip": "ym2612"
    },
    {
      "channel": 0,
      "note": 60,
      "start": 31.8085,
      "duration": 0.044,
      "velocity": 115,
      "chip": "ym2612"
    },
    {
      "channel": 0,
      "note": 60,
      "start": 31.9385,
      "duration": 0.0483,
      "velocity": 115,
      "chip": "ym2612"
    },
    {
      "channel": 1,
      "note": 94,
      "start": 31.9413,
      "duration": 0.98,
      "velocity": 107,
      "chip": "ym2612"
    },
    {
      "channel": 4,
      "note": 91,
      "start": 31.9441,
      "duration": 0.9773,
      "velocity": 107,
      "chip": "ym2612"
    },
    {
      "channel": 0,
      "note": 60,
      "start": 32.0344,
      "duration": 0.0422,
      "velocity": 122,
      "chip": "ym2612"
    },
    {
      "channel": 0,
      "note": 60,
      "start": 32.122,
      "duration": 0.0342,
      "velocity": 115,
      "chip": "ym2612"
    },
    {
      "channel": 0,
      "note": 60,
      "start": 32.2585,
      "duration": 0.0449,
      "velocity": 115,
      "chip": "ym2612"
    },
    {
      "channel": 0,
      "note": 60,
      "start": 32.3483,
      "duration": 0.0446,
      "velocity": 115,
      "chip": "ym2612"
    },
    {
      "channel": 3,
      "note": 63,
      "start": 32.3505,
      "duration": 0.0425,
      "velocity": 122,
      "chip": "ym2612"
    },
    {
      "channel": 3,
      "note": 63,
      "start": 32.3953,
      "duration": 0.0354,
      "velocity": 122,
      "chip": "ym2612"
    },
    {
      "channel": 0,
      "note": 60,
      "start": 32.4329,
      "duration": 0.0411,
      "velocity": 115,
      "chip": "ym2612"
    },
    {
      "channel": 3,
      "note": 63,
      "start": 32.435,
      "duration": 0.0392,
      "velocity": 122,
      "chip": "ym2612"
    },
    {
      "channel": 3,
      "note": 63,
      "start": 32.4766,
      "duration": 0.071,
      "velocity": 122,
      "chip": "ym2612"
    },
    {
      "channel": 0,
      "note": 60,
      "start": 32.55,
      "duration": 0.0975,
      "velocity": 115,
      "chip": "ym2612"
    },
    {
      "channel": 3,
      "note": 63,
      "start": 32.5529,
      "duration": 0.0948,
      "velocity": 122,
      "chip": "ym2612"
    },
    {
      "channel": 0,
      "note": 60,
      "start": 32.75,
      "duration": 0.0386,
      "velocity": 115,
      "chip": "ym2612"
    },
    {
      "channel": 3,
      "note": 60,
      "start": 32.7523,
      "duration": 0.0365,
      "velocity": 122,
      "chip": "ym2612"
    },
    {
      "channel": 3,
      "note": 60,
      "start": 32.7912,
      "duration": 0.0406,
      "velocity": 122,
      "chip": "ym2612"
    },
    {
      "channel": 0,
      "note": 60,
      "start": 32.8339,
      "duration": 0.0439,
      "velocity": 115,
      "chip": "ym2612"
    },
    {
      "channel": 3,
      "note": 60,
      "start": 32.836,
      "duration": 0.042,
      "velocity": 122,
      "chip": "ym2612"
    },
    {
      "channel": 3,
      "note": 60,
      "start": 32.8803,
      "duration": 0.0411,
      "velocity": 122,
      "chip": "ym2612"
    },
    {
      "channel": 0,
      "note": 60,
      "start": 32.9237,
      "duration": 0.0437,
      "velocity": 115,
      "chip": "ym2612"
    },
    {
      "channel": 3,
      "note": 60,
      "start": 32.926,
      "duration": 0.0416,
      "velocity": 122,
      "chip": "ym2612"
    },
    {
      "channel": 1,
      "note": 91,
      "start": 32.9282,
      "duration": 0.457,
      "velocity": 107,
      "chip": "ym2612"
    },
    {
      "channel": 4,
      "note": 87,
      "start": 32.9315,
      "duration": 0.4538,
      "velocity": 107,
      "chip": "ym2612"
    },
    {
      "channel": 0,
      "note": 60,
      "start": 33.0303,
      "duration": 0.0458,
      "velocity": 115,
      "chip": "ym2612"
    },
    {
      "channel": 3,
      "note": 55,
      "start": 33.0326,
      "duration": 0.0437,
      "velocity": 122,
      "chip": "ym2612"
    },
    {
      "channel": 3,
      "note": 55,
      "start": 33.0786,
      "duration": 0.0413,
      "velocity": 122,
      "chip": "ym2612"
    },
    {
      "channel": 0,
      "note": 60,
      "start": 33.1231,
      "duration": 0.0433,
      "velocity": 115,
      "chip": "ym2612"
    },
    {
      "channel": 3,
      "note": 55,
      "start": 33.1251,
      "duration": 0.0414,
      "velocity": 122,
      "chip": "ym2612"
    },
    {
      "channel": 3,
      "note": 55,
      "start": 33.1688,
      "duration": 0.0371,
      "velocity": 122,
      "chip": "ym2612"
    },
    {
      "channel": 0,
      "note": 60,
      "start": 33.2081,
      "duration": 0.0422,
      "velocity": 115,
      "chip": "ym2612"
    },
    {
      "channel": 3,
      "note": 60,
      "start": 33.2103,
      "duration": 0.0401,
      "velocity": 122,
      "chip": "ym2612"
    },
    {
      "channel": 3,
      "note": 60,
      "start": 33.2527,
      "duration": 0.0416,
      "velocity": 122,
      "chip": "ym2612"
    },
    {
      "channel": 0,
      "note": 60,
      "start": 33.2975,
      "duration": 0.0437,
      "velocity": 115,
      "chip": "ym2612"
    },
    {
      "channel": 3,
      "note": 60,
      "start": 33.2999,
      "duration": 0.0414,
      "velocity": 122,
      "chip": "ym2612"
    },
    {
      "channel": 3,
      "note": 60,
      "start": 33.3439,
      "duration": 0.0413,
      "velocity": 122,
      "chip": "ym2612"
    },
    {
      "channel": 0,
      "note": 55,
      "start": 33.3888,
      "duration": 0.0387,
      "velocity": 122,
      "chip": "ym2612"
    },
    {
      "channel": 1,
      "note": 86,
      "start": 33.3922,
      "duration": 0.2989,
      "velocity": 107,
      "chip": "ym2612"
    },
    {
      "channel": 4,
      "note": 94,
      "start": 33.3954,
      "duration": 1.0188,
      "velocity": 107,
      "chip": "ym2612"
    },
    {
      "channel": 0,
      "note": 55,
      "start": 33.4713,
      "duration": 0.0404,
      "velocity": 115,
      "chip": "ym2612"
    },
    {
      "channel": 0,
      "note": 55,
      "start": 33.61,
      "duration": 0.0455,
      "velocity": 115,
      "chip": "ym2612"
    },
    {
      "channel": 0,
      "note": 55,
      "start": 33.6954,
      "duration": 0.042,
      "velocity": 122,
      "chip": "ym2612"
    },
    {
      "channel": 1,
      "note": 86,
      "start": 33.6976,
      "duration": 0.3184,
      "velocity": 107,
      "chip": "ym2612"
    },
    {
      "channel": 0,
      "note": 55,
      "start": 33.7838,
      "duration": 0.0491,
      "velocity": 115,
      "chip": "ym2612"
    },
    {
      "channel": 0,
      "note": 55,
      "start": 33.9353,
      "duration": 0.0378,
      "velocity": 115,
      "chip": "ym2612"
    },
    {
      "channel": 0,
      "note": 55,
      "start": 34.0192,
      "duration": 0.0441,
      "velocity": 115,
      "chip": "ym2612"
    },
    {
      "channel": 3,
      "note": 62,
      "start": 34.0214,
      "duration": 0.0421,
      "velocity": 122,
      "chip": "ym2612"
    },
    {
      "channel": 1,
      "note": 86,
      "start": 34.0234,
      "duration": 0.3906,
      "velocity": 107,
      "chip": "ym2612"
    },
    {
      "channel": 0,
      "note": 55,
      "start": 34.1082,
      "duration": 0.0425,
      "velocity": 115,
      "chip": "ym2612"
    },
    {
      "channel": 3,
      "note": 62,
      "start": 34.1103,
      "duration": 0.0404,
      "velocity": 122,
      "chip": "ym2612"
    },
    {
      "channel": 0,
      "note": 55,
      "start": 34.2164,
      "duration": 0.0975,
      "velocity": 115,
      "chip": "ym2612"
    },
    {
      "channel": 0,
      "note": 56,
      "start": 34.4178,
      "duration": 0.0468,
      "velocity": 122,
      "chip": "ym2612"
    },
    {
      "channel": 1,
      "note": 87,
      "start": 34.4212,
      "duration": 0.6274,
      "velocity": 107,
      "chip": "ym2612"
    },
    {
      "channel": 4,
      "note": 96,
      "start": 34.424,
      "duration": 0.6248,
      "velocity": 107,
      "chip": "ym2612"
    },
    {
      "channel": 0,
      "note": 56,
      "start": 34.512,
      "duration": 0.0337,
      "velocity": 115,
      "chip": "ym2612"
    },
    {
      "channel": 0,
      "note": 56,
      "start": 34.5915,
      "duration": 0.0406,
      "velocity": 115,
      "chip": "ym2612"
    },
    {
      "channel": 0,
      "note": 56,
      "start": 34.7082,
      "duration": 0.0456,
      "velocity": 115,
      "chip": "ym2612"
    },
    {
      "channel": 3,
      "note": 63,
      "start": 34.7105,
      "duration": 0.0433,
      "velocity": 122,
      "chip": "ym2612"
    },
    {
      "channel": 0,
      "note": 56,
      "start": 34.7909,
      "duration": 0.0457,
      "velocity": 115,
      "chip": "ym2612"
    },
    {
      "channel": 3,
      "note": 63,
      "start": 34.7947,
      "duration": 0.042,
      "velocity": 122,
      "chip": "ym2612"
    },
    {
      "channel": 0,
      "note": 56,
      "start": 34.8813,
      "duration": 0.0439,
      "velocity": 115,
      "chip": "ym2612"
    },
    {
      "channel": 0,
      "note": 56,
      "start": 34.9712,
      "duration": 0.0357,
      "velocity": 115,
      "chip": "ym2612"
    },
    {
      "channel": 0,
      "note": 53,
      "start": 35.0522,
      "duration": 0.0441,
      "velocity": 122,
      "chip": "ym2612"
    },
    {
      "channel": 1,
      "note": 89,
      "start": 35.0558,
      "duration": 0.6269,
      "velocity": 107,
      "chip": "ym2612"
    },
    {
      "channel": 4,
      "note": 98,
      "start": 35.0585,
      "duration": 0.6244,
      "velocity": 107,
      "chip": "ym2612"
    },
    {
      "channel": 0,
      "note": 53,
      "start": 35.144,
      "duration": 0.0457,
      "velocity": 115,
      "chip": "ym2612"
    },
    {
      "channel": 0,
      "note": 53,
      "start": 35.2754,
      "duration": 0.0459,
      "velocity": 115,
      "chip": "ym2612"
    },
    {
      "channel": 0,
      "note": 53,
      "start": 35.3675,
      "duration": 0.0429,
      "velocity": 122,
      "chip": "ym2612"
    },
    {
      "channel": 0,
      "note": 53,
      "start": 35.4578,
      "duration": 0.0343,
      "velocity": 115,
      "chip": "ym2612"
    },
    {
      "channel": 0,
      "note": 53,
      "start": 35.5945,
      "duration": 0.045,
      "velocity": 115,
      "chip": "ym2612"
    },
    {
      "channel": 0,
      "note": 53,
      "start": 35.685,
      "duration": 0.0468,
      "velocity": 115,
      "chip": "ym2612"
    },
    {
      "channel": 3,
      "note": 65,
      "start": 35.6872,
      "duration": 0.0447,
      "velocity": 122,
      "chip": "ym2612"
    },
    {
      "channel": 1,
      "note": 91,
      "start": 35.6896,
      "duration": 0.0778,
      "velocity": 107,
      "chip": "ym2612"
    },
    {
      "channel": 4,
      "note": 99,
      "start": 35.6933,
      "duration": 0.0741,
      "velocity": 107,
      "chip": "ym2612"
    },
    {
      "channel": 0,
      "note": 53,
      "start": 35.7697,
      "duration": 0.0439,
      "velocity": 115,
      "chip": "ym2612"
    },
    {
      "channel": 3,
      "note": 65,
      "start": 35.7722,
      "duration": 0.0414,
      "velocity": 122,
      "chip": "ym2612"
    },
    {
      "channel": 1,
      "note": 92,
      "start": 35.7752,
      "duration": 0.1046,
      "velocity": 107,
      "chip": "ym2612"
    },
    {
      "channel": 4,
      "note": 101,
      "start": 35.7775,
      "duration": 0.1025,
      "velocity": 107,
      "chip": "ym2612"
    },
    {
      "channel": 0,
      "note": 53,
      "start": 35.8824,
      "duration": 0.0974,
      "velocity": 115,
      "chip": "ym2612"
    },
    {
      "channel": 1,
      "note": 91,
      "start": 35.8849,
      "duration": 0.468,
      "velocity": 107,
      "chip": "ym2612"
    },
    {
      "channel": 4,
      "note": 99,
      "start": 35.8875,
      "duration": 0.4656,
      "velocity": 107,
      "chip": "ym2612"
    },
    {
      "channel": 0,
      "note": 51,
      "start": 36.0693,
      "duration": 0.0429,
      "velocity": 122,
      "chip": "ym2612"
    },
    {
      "channel": 0,
      "note": 51,
      "start": 36.1595,
      "duration": 0.0414,
      "velocity": 115,
      "chip": "ym2612"
    },
    {
      "channel": 0,
      "note": 51,
      "start": 36.2455,
      "duration": 0.0356,
      "velocity": 115,
      "chip": "ym2612"
    },
    {
      "channel": 0,
      "note": 51,
      "start": 36.3554,
      "duration": 0.048,
      "velocity": 115,
      "chip": "ym2612"
    },
    {
      "channel": 3,
      "note": 75,
      "start": 36.3578,
      "duration": 0.0457,
      "velocity": 122,
      "chip": "ym2612"
    },
    {
      "channel": 1,
      "note": 89,
      "start": 36.3603,
      "duration": 0.0858,
      "velocity": 107,
      "chip": "ym2612"
    },
    {
      "channel": 4,
      "note": 98,
      "start": 36.3627,
      "duration": 0.0834,
      "velocity": 107,
      "chip": "ym2612"
    },
    {
      "channel": 0,
      "note": 53,
      "start": 36.4502,
      "duration": 0.0432,
      "velocity": 122,
      "chip": "ym2612"
    },
    {
      "channel": 1,
      "note": 87,
      "start": 36.4523,
      "duration": 0.0774,
      "velocity": 107,
      "chip": "ym2612"
    },
    {
      "channel": 4,
      "note": 96,
      "start": 36.4544,
      "duration": 0.0754,
      "velocity": 107,
      "chip": "ym2612"
    },
    {
      "channel": 0,
      "note": 53,
      "start": 36.534,
      "duration": 0.0433,
      "velocity": 115,
      "chip": "ym2612"
    },
    {
      "channel": 3,
      "note": 65,
      "start": 36.5361,
      "duration": 0.0413,
      "velocity": 122,
      "chip": "ym2612"
    },
    {
      "channel": 1,
      "note": 86,
      "start": 36.538,
      "duration": 0.083,
      "velocity": 107,
      "chip": "ym2612"
    },
    {
      "channel": 4,
      "note": 94,
      "start": 36.5401,
      "duration": 0.0809,
      "velocity": 107,
      "chip": "ym2612"
    },
    {
      "channel": 0,
      "note": 53,
      "start": 36.6231,
      "duration": 0.0449,
      "velocity": 115,
      "chip": "ym2612"
    },
    {
      "channel": 1,
      "note": 82,
      "start": 36.6262,
      "duration": 0.0851,
      "velocity": 107,
      "chip": "ym2612"
    },
    {
      "channel": 4,
      "note": 89,
      "start": 36.6281,
      "duration": 0.0834,
      "velocity": 107,
      "chip": "ym2612"
    },
    {
      "channel": 0,
      "note": 55,
      "start": 36.7146,
      "duration": 0.0371,
      "velocity": 122,
      "chip": "ym2612"
    },
    {
      "channel": 1,
      "note": 91,
      "start": 36.7169,
      "duration": 0.3018,
      "velocity": 107,
      "chip": "ym2612"
    },
    {
      "channel": 4,
      "note": 86,
      "start": 36.7204,
      "duration": 0.2984,
      "velocity": 107,
      "chip": "ym2612"
    },
    {
      "channel": 0,
      "note": 55,
      "start": 36.7987,
      "duration": 0.0389,
      "velocity": 115,
      "chip": "ym2612"
    },
    {
      "channel": 0,
      "note": 55,
      "start": 36.9361,
      "duration": 0.0466,
      "velocity": 115,
      "chip": "ym2612"
    },
    {
      "channel": 3,
      "note": 67,
      "start": 36.9387,
      "duration": 0.0442,
      "velocity": 122,
      "chip": "ym2612"
    },
    {
      "channel": 0,
      "note": 55,
      "start": 37.0232,
      "duration": 0.043,
      "velocity": 122,
      "chip": "ym2612"
    },
    {
      "channel": 1,
      "note": 98,
      "start": 37.0252,
      "duration": 0.3168,
      "velocity": 107,
      "chip": "ym2612"
    },
    {
      "channel": 4,
      "note": 91,
      "start": 37.0275,
      "duration": 0.3146,
      "velocity": 107,
      "chip": "ym2612"
    },
    {
      "channel": 0,
      "note": 55,
      "start": 37.1135,
      "duration": 0.0452,
      "velocity": 115,
      "chip": "ym2612"
    },
    {
      "channel": 0,
      "note": 55,
      "start": 37.2612,
      "duration": 0.0378,
      "velocity": 115,
      "chip": "ym2612"
    },
    {
      "channel": 0,
      "note": 55,
      "start": 37.3454,
      "duration": 0.0439,
      "velocity": 115,
      "chip": "ym2612"
    },
    {
      "channel": 1,
      "note": 79,
      "start": 37.3477,
      "duration": 0.0417,
      "velocity": 107,
      "chip": "ym2612"
    },
    {
      "channel": 4,
      "note": 82,
      "start": 37.3503,
      "duration": 0.0392,
      "velocity": 107,
      "chip": "ym2612"
    },
    {
      "channel": 1,
      "note": 80,
      "start": 37.3928,
      "duration": 0.0409,
      "velocity": 107,
      "chip": "ym2612"
    },
    {
      "channel": 4,
      "note": 84,
      "start": 37.395,
      "duration": 0.0389,
      "velocity": 107,
      "chip": "ym2612"
    },
    {
      "channel": 0,
      "note": 55,
      "start": 37.4371,
      "duration": 0.0412,
      "velocity": 115,
      "chip": "ym2612"
    },
    {
      "channel": 1,
      "note": 82,
      "start": 37.4392,
      "duration": 0.0392,
      "velocity": 107,
      "chip": "ym2612"
    },
    {
      "channel": 4,
      "note": 86,
      "start": 37.4413,
      "duration": 0.0372,
      "velocity": 107,
      "chip": "ym2612"
    },
    {
      "channel": 1,
      "note": 84,
      "start": 37.4816,
      "duration": 0.0573,
      "velocity": 107,
      "chip": "ym2612"
    },
    {
      "channel": 4,
      "note": 87,
      "start": 37.4836,
      "duration": 0.0554,
      "velocity": 107,
      "chip": "ym2612"
    },
    {
      "channel": 0,
      "note": 55,
      "start": 37.5414,
      "duration": 0.0975,
      "velocity": 115,
      "chip": "ym2612"
    },
    {
      "channel": 1,
      "note": 86,
      "start": 37.5442,
      "duration": 0.0949,
      "velocity": 107,
      "chip": "ym2612"
    },
    {
      "channel": 4,
      "note": 89,
      "start": 37.5464,
      "duration": 0.0927,
      "velocity": 107,
      "chip": "ym2612"
    },
    {
      "channel": 1,
      "note": 87,
      "start": 37.6419,
      "duration": 0.0971,
      "velocity": 107,
      "chip": "ym2612"
    },
    {
      "channel": 4,
      "note": 91,
      "start": 37.6441,
      "duration": 0.095,
      "velocity": 107,
      "chip": "ym2612"
    },
    {
      "channel": 0,
      "note": 56,
      "start": 37.7427,
      "duration": 0.0476,
      "velocity": 122,
      "chip": "ym2612"
    },
    {
      "channel": 3,
      "note": 68,
      "start": 37.745,
      "duration": 0.0454,
      "velocity": 122,
      "chip": "ym2612"
    },
    {
      "channel": 1,
      "note": 89,
      "start": 37.7472,
      "duration": 0.0431,
      "velocity": 107,
      "chip": "ym2612"
    },
    {
      "channel": 4,
      "note": 92,
      "start": 37.7494,
      "duration": 0.0411,
      "velocity": 107,
      "chip": "ym2612"
    },
    {
      "channel": 1,
      "note": 91,
      "start": 37.7929,
      "duration": 0.0411,
      "velocity": 107,
      "chip": "ym2612"
    },
    {
      "channel": 4,
      "note": 94,
      "start": 37.795,
      "duration": 0.039,
      "velocity": 107,
      "chip": "ym2612"
    },
    {
      "channel": 0,
      "note": 56,
      "start": 37.8373,
      "duration": 0.0383,
      "velocity": 115,
      "chip": "ym2612"
    },
    {
      "channel": 3,
      "note": 56,
      "start": 37.8393,
      "duration": 0.0366,
      "velocity": 122,
      "chip": "ym2612"
    },
    {
      "channel": 1,
      "note": 92,
      "start": 37.8423,
      "duration": 0.0335,
      "velocity": 107,
      "chip": "ym2612"
    },
    {
      "channel": 4,
      "note": 96,
      "start": 37.8446,
      "duration": 0.0313,
      "velocity": 107,
      "chip": "ym2612"
    },
    {
      "channel": 1,
      "note": 94,
      "start": 37.8784,
      "duration": 0.0413,
      "velocity": 107,
      "chip": "ym2612"
    },
    {
      "channel": 4,
      "note": 98,
      "start": 37.8805,
      "duration": 0.0393,
      "velocity": 107,
      "chip": "ym2612"
    },
    {
      "channel": 0,
      "note": 56,
      "start": 37.922,
      "duration": 0.0441,
      "velocity": 115,
      "chip": "ym2612"
    },
    {
      "channel": 3,
      "note": 56,
      "start": 37.9243,
      "duration": 0.042,
      "velocity": 122,
      "chip": "ym2612"
    },
    {
      "channel": 1,
      "note": 96,
      "start": 37.9262,
      "duration": 0.04,
      "velocity": 107,
      "chip": "ym2612"
    },
    {
      "channel": 4,
      "note": 99,
      "start": 37.9283,
      "duration": 0.038,
      "velocity": 107,
      "chip": "ym2612"
    },
    {
      "channel": 1,
      "note": 98,
      "start": 37.9686,
      "duration": 0.0614,
      "velocity": 107,
      "chip": "ym2612"
    },
    {
      "channel": 4,
      "note": 101,
      "start": 37.9707,
      "duration": 0.0595,
      "velocity": 107,
      "chip": "ym2612"
    },
    {
      "channel": 0,
      "note": 56,
      "start": 38.0326,
      "duration": 0.0471,
      "velocity": 115,
      "chip": "ym2612"
    },
    {
      "channel": 1,
      "note": 99,
      "start": 38.0351,
      "duration": 0.3398,
      "velocity": 107,
      "chip": "ym2612"
    },
    {
      "channel": 4,
      "note": 103,
      "start": 38.0376,
      "duration": 0.3373,
      "velocity": 107,
      "chip": "ym2612"
    },
    {
      "channel": 0,
      "note": 56,
      "start": 38.1183,
      "duration": 0.044,
      "velocity": 115,
      "chip": "ym2612"
    },
    {
      "channel": 0,
      "note": 56,
      "start": 38.2078,
      "duration": 0.0423,
      "velocity": 115,
      "chip": "ym2612"
    },
    {
      "channel": 0,
      "note": 56,
      "start": 38.2966,
      "duration": 0.0361,
      "velocity": 115,
      "chip": "ym2612"
    },
    {
      "channel": 0,
      "note": 53,
      "start": 38.3785,
      "duration": 0.0449,
      "velocity": 122,
      "chip": "ym2612"
    },
    {
      "channel": 1,
      "note": 96,
      "start": 38.382,
      "duration": 0.0415,
      "velocity": 107,
      "chip": "ym2612"
    },
    {
      "channel": 4,
      "note": 101,
      "start": 38.3844,
      "duration": 0.0392,
      "velocity": 107,
      "chip": "ym2612"
    },
    {
      "channel": 1,
      "note": 97,
      "start": 38.4259,
      "duration": 0.0418,
      "velocity": 107,
      "chip": "ym2612"
    },
    {
      "channel": 4,
      "note": 102,
      "start": 38.428,
      "duration": 0.0399,
      "velocity": 107,
      "chip": "ym2612"
    },
    {
      "channel": 0,
      "note": 53,
      "start": 38.4722,
      "duration": 0.0438,
      "velocity": 115,
      "chip": "ym2612"
    },
    {
      "channel": 1,
      "note": 96,
      "start": 38.4743,
      "duration": 0.042,
      "velocity": 107,
      "chip": "ym2612"
    },
    {
      "channel": 4,
      "note": 101,
      "start": 38.4765,
      "duration": 0.0399,
      "velocity": 107,
      "chip": "ym2612"
    },
    {
      "channel": 1,
      "note": 97,
      "start": 38.519,
      "duration": 0.0803,
      "velocity": 107,
      "chip": "ym2612"
    },
    {
      "channel": 4,
      "note": 102,
      "start": 38.5212,
      "duration": 0.0783,
      "velocity": 107,
      "chip": "ym2612"
    },
    {
      "channel": 0,
      "note": 53,
      "start": 38.6019,
      "duration": 0.0484,
      "velocity": 115,
      "chip": "ym2612"
    },
    {
      "channel": 3,
      "note": 65,
      "start": 38.6041,
      "duration": 0.0462,
      "velocity": 122,
      "chip": "ym2612"
    },
    {
      "channel": 1,
      "note": 96,
      "start": 38.6066,
      "duration": 0.1705,
      "velocity": 107,
      "chip": "ym2612"
    },
    {
      "channel": 4,
      "note": 101,
      "start": 38.6091,
      "duration": 0.1681,
      "velocity": 107,
      "chip": "ym2612"
    },
    {
      "channel": 0,
      "note": 53,
      "start": 38.6976,
      "duration": 0.0417,
      "velocity": 122,
      "chip": "ym2612"
    },
    {
      "channel": 0,
      "note": 53,
      "start": 38.7813,
      "duration": 0.0398,
      "velocity": 115,
      "chip": "ym2612"
    },
    {
      "channel": 1,
      "note": 96,
      "start": 38.7837,
      "duration": 0.0376,
      "velocity": 107,
      "chip": "ym2612"
    },
    {
      "channel": 4,
      "note": 101,
      "start": 38.7861,
      "duration": 0.0354,
      "velocity": 107,
      "chip": "ym2612"
    },
    {
      "channel": 1,
      "note": 94,
      "start": 38.8241,
      "duration": 0.0957,
      "velocity": 107,
      "chip": "ym2612"
    },
    {
      "channel": 4,
      "note": 98,
      "start": 38.8263,
      "duration": 0.0936,
      "velocity": 107,
      "chip": "ym2612"
    },
    {
      "channel": 0,
      "note": 53,
      "start": 38.9223,
      "duration": 0.0467,
      "velocity": 115,
      "chip": "ym2612"
    },
    {
      "channel": 1,
      "note": 92,
      "start": 38.9245,
      "duration": 0.0446,
      "velocity": 107,
      "chip": "ym2612"
    },
    {
      "channel": 4,
      "note": 96,
      "start": 38.9267,
      "duration": 0.0425,
      "velocity": 107,
      "chip": "ym2612"
    },
    {
      "channel": 1,
      "note": 91,
      "start": 38.9715,
      "duration": 0.0426,
      "velocity": 107,
      "chip": "ym2612"
    },
    {
      "channel": 4,
      "note": 94,
      "start": 38.9736,
      "duration": 0.0407,
      "velocity": 107,
      "chip": "ym2612"
    },
    {
      "channel": 0,
      "note": 53,
      "start": 39.0165,
      "duration": 0.0405,
      "velocity": 115,
      "chip": "ym2612"
    },
    {
      "channel": 1,
      "note": 89,
      "start": 39.0199,
      "duration": 0.1928,
      "velocity": 107,
      "chip": "ym2612"
    },
    {
      "channel": 4,
      "note": 92,
      "start": 39.0226,
      "duration": 0.1903,
      "velocity": 107,
      "chip": "ym2612"
    },
    {
      "channel": 0,
      "note": 53,
      "start": 39.1016,
      "duration": 0.04,
      "velocity": 115,
      "chip": "ym2612"
    },
    {
      "channel": 0,
      "note": 53,
      "start": 39.2153,
      "duration": 0.0975,
      "velocity": 115,
      "chip": "ym2612"
    },
    {
      "channel": 1,
      "note": 87,
      "start": 39.2178,
      "duration": 0.095,
      "velocity": 107,
      "chip": "ym2612"
    },
    {
      "channel": 4,
      "note": 80,
      "start": 39.2203,
      "duration": 0.3605,
      "velocity": 107,
      "chip": "ym2612"
    },
    {
      "channel": 1,
      "note": 89,
      "start": 39.3161,
      "duration": 0.08,
      "velocity": 107,
      "chip": "ym2612"
    },
    {
      "channel": 0,
      "note": 51,
      "start": 39.3998,
      "duration": 0.0462,
      "velocity": 122,
      "chip": "ym2612"
    },
    {
      "channel": 3,
      "note": 63,
      "start": 39.4022,
      "duration": 0.044,
      "velocity": 122,
      "chip": "ym2612"
    },
    {
      "channel": 1,
      "note": 91,
      "start": 39.4043,
      "duration": 0.0418,
      "velocity": 107,
      "chip": "ym2612"
    },
    {
      "channel": 1,
      "note": 92,
      "start": 39.4485,
      "duration": 0.0416,
      "velocity": 107,
      "chip": "ym2612"
    },
    {
      "channel": 0,
      "note": 51,
      "start": 39.4944,
      "duration": 0.0419,
      "velocity": 115,
      "chip": "ym2612"
    },
    {
      "channel": 1,
      "note": 91,
      "start": 39.4964,
      "duration": 0.0401,
      "velocity": 107,
      "chip": "ym2612"
    },
    {
      "channel": 1,
      "note": 92,
      "start": 39.5399,
      "duration": 0.0408,
      "velocity": 107,
      "chip": "ym2612"
    },
    {
      "channel": 0,
      "note": 51,
      "start": 39.5829,
      "duration": 0.0358,
      "velocity": 115,
      "chip": "ym2612"
    },
    {
      "channel": 3,
      "note": 63,
      "start": 39.5851,
      "duration": 0.0339,
      "velocity": 122,
      "chip": "ym2612"
    },
    {
      "channel": 1,
      "note": 94,
      "start": 39.5869,
      "duration": 0.0319,
      "velocity": 107,
      "chip": "ym2612"
    },
    {
      "channel": 4,
      "note": 82,
      "start": 39.5892,
      "duration": 0.4582,
      "velocity": 107,
      "chip": "ym2612"
    },
    {
      "channel": 1,
      "note": 91,
      "start": 39.6213,
      "duration": 0.0663,
      "velocity": 107,
      "chip": "ym2612"
    },
    {
      "channel": 0,
      "note": 51,
      "start": 39.6905,
      "duration": 0.0451,
      "velocity": 115,
      "chip": "ym2612"
    },
    {
      "channel": 1,
      "note": 94,
      "start": 39.6927,
      "duration": 0.0429,
      "velocity": 107,
      "chip": "ym2612"
    },
    {
      "channel": 1,
      "note": 96,
      "start": 39.738,
      "duration": 0.041,
      "velocity": 107,
      "chip": "ym2612"
    },
    {
      "channel": 0,
      "note": 53,
      "start": 39.7836,
      "duration": 0.0437,
      "velocity": 122,
      "chip": "ym2612"
    },
    {
      "channel": 3,
      "note": 65,
      "start": 39.7857,
      "duration": 0.0417,
      "velocity": 122,
      "chip": "ym2612"
    },
    {
      "channel": 1,
      "note": 98,
      "start": 39.7883,
      "duration": 0.0391,
      "velocity": 107,
      "chip": "ym2612"
    },
    {
      "channel": 1,
      "note": 99,
      "start": 39.8308,
      "duration": 0.033,
      "velocity": 107,
      "chip": "ym2612"
    },
    {
      "channel": 0,
      "note": 53,
      "start": 39.8679,
      "duration": 0.0437,
      "velocity": 115,
      "chip": "ym2612"
    },
    {
      "channel": 3,
      "note": 72,
      "start": 39.87,
      "duration": 0.0418,
      "velocity": 122,
      "chip": "ym2612"
    },
    {
      "channel": 1,
      "note": 98,
      "start": 39.8721,
      "duration": 0.0397,
      "velocity": 107,
      "chip": "ym2612"
    },
    {
      "channel": 1,
      "note": 94,
      "start": 39.9152,
      "duration": 0.0412,
      "velocity": 107,
      "chip": "ym2612"
    },
    {
      "channel": 0,
      "note": 53,
      "start": 39.9588,
      "duration": 0.0442,
      "velocity": 115,
      "chip": "ym2612"
    },
    {
      "channel": 3,
      "note": 65,
      "start": 39.9611,
      "duration": 0.042,
      "velocity": 122,
      "chip": "ym2612"
    },
    {
      "channel": 1,
      "note": 91,
      "start": 39.9632,
      "duration": 0.0398,
      "velocity": 107,
      "chip": "ym2612"
    },
    {
      "channel": 1,
      "note": 94,
      "start": 40.0065,
      "duration": 0.0407,
      "velocity": 107,
      "chip": "ym2612"
    },
    {
      "channel": 0,
      "note": 60,
      "start": 40.0505,
      "duration": 0.0372,
      "velocity": 122,
      "chip": "ym2612"
    },
    {
      "channel": 1,
      "note": 96,
      "start": 40.0531,
      "duration": 1.6576,
      "velocity": 107,
      "chip": "ym2612"
    },
    {
      "channel": 4,
      "note": 87,
      "start": 40.0571,
      "duration": 1.6537,
      "velocity": 107,
      "chip": "ym2612"
    },
    {
      "channel": 0,
      "note": 21,
      "start": 40.091,
      "duration": 0.0392,
      "velocity": 115,
      "chip": "ym2612"
    },
    {
      "channel": 0,
      "note": 60,
      "start": 40.1324,
      "duration": 0.0412,
      "velocity": 115,
      "chip": "ym2612"
    },
    {
      "channel": 0,
      "note": 60,
      "start": 40.271,
      "duration": 0.0454,
      "velocity": 115,
      "chip": "ym2612"
    },
    {
      "channel": 0,
      "note": 60,
      "start": 40.3571,
      "duration": 0.0423,
      "velocity": 122,
      "chip": "ym2612"
    },
    {
      "channel": 0,
      "note": 60,
      "start": 40.4466,
      "duration": 0.0496,
      "velocity": 115,
      "chip": "ym2612"
    },
    {
      "channel": 0,
      "note": 60,
      "start": 40.5986,
      "duration": 0.038,
      "velocity": 115,
      "chip": "ym2612"
    },
    {
      "channel": 0,
      "note": 60,
      "start": 40.6829,
      "duration": 0.0428,
      "velocity": 115,
      "chip": "ym2612"
    },
    {
      "channel": 0,
      "note": 60,
      "start": 40.7706,
      "duration": 0.0416,
      "velocity": 115,
      "chip": "ym2612"
    },
    {
      "channel": 0,
      "note": 60,
      "start": 40.8822,
      "duration": 0.0975,
      "velocity": 115,
      "chip": "ym2612"
    },
    {
      "channel": 0,
      "note": 60,
      "start": 41.0821,
      "duration": 0.0453,
      "velocity": 115,
      "chip": "ym2612"
    },
    {
      "channel": 0,
      "note": 60,
      "start": 41.1724,
      "duration": 0.037,
      "velocity": 115,
      "chip": "ym2612"
    },
    {
      "channel": 0,
      "note": 60,
      "start": 41.2538,
      "duration": 0.0412,
      "velocity": 115,
      "chip": "ym2612"
    },
    {
      "channel": 0,
      "note": 60,
      "start": 41.3724,
      "duration": 0.0454,
      "velocity": 115,
      "chip": "ym2612"
    },
    {
      "channel": 0,
      "note": 60,
      "start": 41.4566,
      "duration": 0.0425,
      "velocity": 115,
      "chip": "ym2612"
    },
    {
      "channel": 0,
      "note": 60,
      "start": 41.5439,
      "duration": 0.0431,
      "velocity": 115,
      "chip": "ym2612"
    },
    {
      "channel": 0,
      "note": 60,
      "start": 41.6261,
      "duration": 0.0424,
      "velocity": 115,
      "chip": "ym2612"
    },
    {
      "channel": 0,
      "note": 60,
      "start": 41.714,
      "duration": 0.0422,
      "velocity": 122,
      "chip": "ym2612"
    },
    {
      "channel": 0,
      "note": 60,
      "start": 41.8024,
      "duration": 0.0339,
      "velocity": 115,
      "chip": "ym2612"
    },
    {
      "channel": 0,
      "note": 60,
      "start": 41.9388,
      "duration": 0.0457,
      "velocity": 115,
      "chip": "ym2612"
    },
    {
      "channel": 0,
      "note": 60,
      "start": 42.0305,
      "duration": 0.0429,
      "velocity": 122,
      "chip": "ym2612"
    },
    {
      "channel": 0,
      "note": 60,
      "start": 42.1129,
      "duration": 0.0419,
      "velocity": 115,
      "chip": "ym2612"
    },
    {
      "channel": 0,
      "note": 60,
      "start": 42.2572,
      "duration": 0.0451,
      "velocity": 115,
      "chip": "ym2612"
    },
    {
      "channel": 0,
      "note": 60,
      "start": 42.3469,
      "duration": 0.0365,
      "velocity": 115,
      "chip": "ym2612"
    },
    {
      "channel": 0,
      "note": 60,
      "start": 42.4284,
      "duration": 0.041,
      "velocity": 115,
      "chip": "ym2612"
    },
    {
      "channel": 0,
      "note": 60,
      "start": 42.5477,
      "duration": 0.0976,
      "velocity": 115,
      "chip": "ym2612"
    },
    {
      "channel": 0,
      "note": 56,
      "start": 42.7322,
      "duration": 0.0446,
      "velocity": 122,
      "chip": "ym2612"
    },
    {
      "channel": 0,
      "note": 56,
      "start": 42.8231,
      "duration": 0.0409,
      "velocity": 115,
      "chip": "ym2612"
    },
    {
      "channel": 0,
      "note": 56,
      "start": 42.9086,
      "duration": 0.0347,
      "velocity": 115,
      "chip": "ym2612"
    },
    {
      "channel": 0,
      "note": 56,
      "start": 43.019,
      "duration": 0.0449,
      "velocity": 115,
      "chip": "ym2612"
    },
    {
      "channel": 0,
      "note": 58,
      "start": 43.1095,
      "duration": 0.0426,
      "velocity": 122,
      "chip": "ym2612"
    },
    {
      "channel": 0,
      "note": 58,
      "start": 43.19,
      "duration": 0.0442,
      "velocity": 122,
      "chip": "ym2612"
    },
    {
      "channel": 0,
      "note": 58,
      "start": 43.2798,
      "duration": 0.0422,
      "velocity": 122,
      "chip": "ym2612"
    },
    {
      "channel": 0,
      "note": 60,
      "start": 43.3709,
      "duration": 37.0812,
      "velocity": 122,
      "chip": "ym2612"
    }
  ]
}