{
  "track_name": "11 - The Marquis' Invitation",
  "duration_sec": 94.349,
  "sample_rate": 44100,
  "note_count": 792,
  "unique_pitches": 41,
  "pitch_range": 46,
  "avg_note_duration": 0.405,
  "reconstruction_stats": {
    "notes_reconstructed": 792,
    "keyon_events": 792,
    "keyoff_events": 791,
    "orphan_keyons": 1,
    "unique_pitches": 41,
    "pitch_range": 46,
    "avg_duration_sec": 0.405
  },
  "metadata": {
    "source": "L\\LandStalker\\11 - The Marquis' Invitation.vgz"
  },
  "notes": [
    {
      "channel": 0,
      "note": 76,
      "start": 0.0468,
      "duration": 0.7181,
      "velocity": 99,
      "chip": "ym2612"
    },
    {
      "channel": 1,
      "note": 73,
      "start": 0.0501,
      "duration": 0.3466,
      "velocity": 99,
      "chip": "ym2612"
    },
    {
      "channel": 3,
      "note": 53,
      "start": 0.0543,
      "duration": 1.4482,
      "velocity": 82,
      "chip": "ym2612"
    },
    {
      "channel": 4,
      "note": 85,
      "start": 0.1398,
      "duration": 0.7185,
      "velocity": 99,
      "chip": "ym2612"
    },
    {
      "channel": 1,
      "note": 69,
      "start": 0.4123,
      "duration": 0.3529,
      "velocity": 99,
      "chip": "ym2612"
    },
    {
      "channel": 0,
      "note": 81,
      "start": 0.7804,
      "duration": 1.0896,
      "velocity": 99,
      "chip": "ym2612"
    },
    {
      "channel": 1,
      "note": 73,
      "start": 0.781,
      "duration": 0.3525,
      "velocity": 99,
      "chip": "ym2612"
    },
    {
      "channel": 4,
      "note": 76,
      "start": 0.8737,
      "duration": 1.0896,
      "velocity": 99,
      "chip": "ym2612"
    },
    {
      "channel": 1,
      "note": 69,
      "start": 1.149,
      "duration": 0.3529,
      "velocity": 99,
      "chip": "ym2612"
    },
    {
      "channel": 1,
      "note": 71,
      "start": 1.5174,
      "duration": 1.0896,
      "velocity": 99,
      "chip": "ym2612"
    },
    {
      "channel": 3,
      "note": 57,
      "start": 1.5183,
      "duration": 1.826,
      "velocity": 82,
      "chip": "ym2612"
    },
    {
      "channel": 0,
      "note": 80,
      "start": 1.8856,
      "duration": 0.1686,
      "velocity": 99,
      "chip": "ym2612"
    },
    {
      "channel": 4,
      "note": 81,
      "start": 1.9788,
      "duration": 0.1686,
      "velocity": 99,
      "chip": "ym2612"
    },
    {
      "channel": 0,
      "note": 78,
      "start": 2.0697,
      "duration": 0.1686,
      "velocity": 99,
      "chip": "ym2612"
    },
    {
      "channel": 4,
      "note": 80,
      "start": 2.163,
      "duration": 0.1687,
      "velocity": 99,
      "chip": "ym2612"
    },
    {
      "channel": 0,
      "note": 80,
      "start": 2.2539,
      "duration": 0.1686,
      "velocity": 99,
      "chip": "ym2612"
    },
    {
      "channel": 4,
      "note": 78,
      "start": 2.3472,
      "duration": 0.1686,
      "velocity": 99,
      "chip": "ym2612"
    },
    {
      "channel": 0,
      "note": 81,
      "start": 2.4381,
      "duration": 0.1686,
      "velocity": 99,
      "chip": "ym2612"
    },
    {
      "channel": 4,
      "note": 80,
      "start": 2.5314,
      "duration": 0.1686,
      "velocity": 99,
      "chip": "ym2612"
    },
    {
      "channel": 0,
      "note": 83,
      "start": 2.6223,
      "duration": 0.1686,
      "velocity": 99,
      "chip": "ym2612"
    },
    {
      "channel": 1,
      "note": 69,
      "start": 2.6228,
      "duration": 0.1684,
      "velocity": 99,
      "chip": "ym2612"
    },
    {
      "channel": 4,
      "note": 81,
      "start": 2.7155,
      "duration": 0.1686,
      "velocity": 99,
      "chip": "ym2612"
    },
    {
      "channel": 1,
      "note": 68,
      "start": 2.8068,
      "duration": 0.1685,
      "velocity": 99,
      "chip": "ym2612"
    },
    {
      "channel": 0,
      "note": 76,
      "start": 2.9906,
      "duration": 2.1947,
      "velocity": 99,
      "chip": "ym2612"
    },
    {
      "channel": 1,
      "note": 69,
      "start": 2.9912,
      "duration": 0.3525,
      "velocity": 99,
      "chip": "ym2612"
    },
    {
      "channel": 4,
      "note": 83,
      "start": 3.0839,
      "duration": 2.1946,
      "velocity": 99,
      "chip": "ym2612"
    },
    {
      "channel": 1,
      "note": 64,
      "start": 3.3593,
      "duration": 0.3528,
      "velocity": 99,
      "chip": "ym2612"
    },
    {
      "channel": 3,
      "note": 62,
      "start": 3.3602,
      "duration": 0.1683,
      "velocity": 82,
      "chip": "ym2612"
    },
    {
      "channel": 3,
      "note": 61,
      "start": 3.5443,
      "duration": 0.1685,
      "velocity": 82,
      "chip": "ym2612"
    },
    {
      "channel": 1,
      "note": 69,
      "start": 3.7277,
      "duration": 0.3528,
      "velocity": 99,
      "chip": "ym2612"
    },
    {
      "channel": 3,
      "note": 59,
      "start": 3.7285,
      "duration": 0.1683,
      "velocity": 82,
      "chip": "ym2612"
    },
    {
      "channel": 3,
      "note": 61,
      "start": 3.9125,
      "duration": 0.1686,
      "velocity": 82,
      "chip": "ym2612"
    },
    {
      "channel": 1,
      "note": 73,
      "start": 4.0961,
      "duration": 0.721,
      "velocity": 99,
      "chip": "ym2612"
    },
    {
      "channel": 3,
      "note": 62,
      "start": 4.097,
      "duration": 0.1683,
      "velocity": 82,
      "chip": "ym2612"
    },
    {
      "channel": 3,
      "note": 64,
      "start": 4.465,
      "duration": 0.7213,
      "velocity": 82,
      "chip": "ym2612"
    },
    {
      "channel": 1,
      "note": 71,
      "start": 4.8327,
      "duration": 0.7212,
      "velocity": 99,
      "chip": "ym2612"
    },
    {
      "channel": 3,
      "note": 55,
      "start": 5.2018,
      "duration": 0.7212,
      "velocity": 82,
      "chip": "ym2612"
    },
    {
      "channel": 0,
      "note": 85,
      "start": 5.5693,
      "duration": 0.3528,
      "velocity": 99,
      "chip": "ym2612"
    },
    {
      "channel": 1,
      "note": 70,
      "start": 5.5698,
      "duration": 0.3526,
      "velocity": 99,
      "chip": "ym2612"
    },
    {
      "channel": 4,
      "note": 76,
      "start": 5.6625,
      "duration": 0.3526,
      "velocity": 99,
      "chip": "ym2612"
    },
    {
      "channel": 0,
      "note": 86,
      "start": 5.9376,
      "duration": 0.1686,
      "velocity": 99,
      "chip": "ym2612"
    },
    {
      "channel": 1,
      "note": 71,
      "start": 5.9381,
      "duration": 0.3526,
      "velocity": 99,
      "chip": "ym2612"
    },
    {
      "channel": 3,
      "note": 54,
      "start": 5.9393,
      "duration": 1.4572,
      "velocity": 82,
      "chip": "ym2612"
    },
    {
      "channel": 4,
      "note": 85,
      "start": 6.0308,
      "duration": 0.1686,
      "velocity": 99,
      "chip": "ym2612"
    },
    {
      "channel": 0,
      "note": 85,
      "start": 6.1218,
      "duration": 0.1686,
      "velocity": 99,
      "chip": "ym2612"
    },
    {
      "channel": 4,
      "note": 86,
      "start": 6.2149,
      "duration": 0.1686,
      "velocity": 99,
      "chip": "ym2612"
    },
    {
      "channel": 0,
      "note": 86,
      "start": 6.306,
      "duration": 0.1686,
      "velocity": 99,
      "chip": "ym2612"
    },
    {
      "channel": 1,
      "note": 66,
      "start": 6.3065,
      "duration": 0.3525,
      "velocity": 99,
      "chip": "ym2612"
    },
    {
      "channel": 4,
      "note": 85,
      "start": 6.3992,
      "duration": 0.1685,
      "velocity": 99,
      "chip": "ym2612"
    },
    {
      "channel": 0,
      "note": 90,
      "start": 6.4901,
      "duration": 0.1686,
      "velocity": 99,
      "chip": "ym2612"
    },
    {
      "channel": 4,
      "note": 86,
      "start": 6.5834,
      "duration": 0.1687,
      "velocity": 99,
      "chip": "ym2612"
    },
    {
      "channel": 0,
      "note": 79,
      "start": 6.6743,
      "duration": 1.0896,
      "velocity": 99,
      "chip": "ym2612"
    },
    {
      "channel": 1,
      "note": 74,
      "start": 6.6749,
      "duration": 0.3525,
      "velocity": 99,
      "chip": "ym2612"
    },
    {
      "channel": 4,
      "note": 90,
      "start": 6.7676,
      "duration": 1.0895,
      "velocity": 99,
      "chip": "ym2612"
    },
    {
      "channel": 1,
      "note": 71,
      "start": 7.0429,
      "duration": 0.3529,
      "velocity": 99,
      "chip": "ym2612"
    },
    {
      "channel": 1,
      "note": 70,
      "start": 7.4113,
      "duration": 0.3529,
      "velocity": 99,
      "chip": "ym2612"
    },
    {
      "channel": 3,
      "note": 59,
      "start": 7.4123,
      "duration": 1.4576,
      "velocity": 82,
      "chip": "ym2612"
    },
    {
      "channel": 0,
      "note": 80,
      "start": 7.7795,
      "duration": 0.3527,
      "velocity": 99,
      "chip": "ym2612"
    },
    {
      "channel": 1,
      "note": 71,
      "start": 7.78,
      "duration": 0.7209,
      "velocity": 99,
      "chip": "ym2612"
    },
    {
      "channel": 4,
      "note": 79,
      "start": 7.8726,
      "duration": 0.3529,
      "velocity": 99,
      "chip": "ym2612"
    },
    {
      "channel": 0,
      "note": 88,
      "start": 8.1478,
      "duration": 0.3528,
      "velocity": 99,
      "chip": "ym2612"
    },
    {
      "channel": 4,
      "note": 80,
      "start": 8.2411,
      "duration": 0.3528,
      "velocity": 99,
      "chip": "ym2612"
    },
    {
      "channel": 0,
      "note": 86,
      "start": 8.5161,
      "duration": 0.3529,
      "velocity": 99,
      "chip": "ym2612"
    },
    {
      "channel": 1,
      "note": 68,
      "start": 8.5167,
      "duration": 0.7209,
      "velocity": 99,
      "chip": "ym2612"
    },
    {
      "channel": 4,
      "note": 88,
      "start": 8.6096,
      "duration": 0.3526,
      "velocity": 99,
      "chip": "ym2612"
    },
    {
      "channel": 0,
      "note": 84,
      "start": 8.8845,
      "duration": 0.7212,
      "velocity": 99,
      "chip": "ym2612"
    },
    {
      "channel": 3,
      "note": 52,
      "start": 8.8859,
      "duration": 1.4576,
      "velocity": 82,
      "chip": "ym2612"
    },
    {
      "channel": 4,
      "note": 86,
      "start": 8.9777,
      "duration": 0.7213,
      "velocity": 99,
      "chip": "ym2612"
    },
    {
      "channel": 1,
      "note": 64,
      "start": 9.2531,
      "duration": 0.3529,
      "velocity": 99,
      "chip": "ym2612"
    },
    {
      "channel": 0,
      "note": 85,
      "start": 9.6213,
      "duration": 0.7211,
      "velocity": 99,
      "chip": "ym2612"
    },
    {
      "channel": 1,
      "note": 69,
      "start": 9.6218,
      "duration": 0.3525,
      "velocity": 99,
      "chip": "ym2612"
    },
    {
      "channel": 4,
      "note": 84,
      "start": 9.7145,
      "duration": 0.7211,
      "velocity": 99,
      "chip": "ym2612"
    },
    {
      "channel": 1,
      "note": 64,
      "start": 9.9899,
      "duration": 0.353,
      "velocity": 99,
      "chip": "ym2612"
    },
    {
      "channel": 1,
      "note": 69,
      "start": 10.3584,
      "duration": 0.3527,
      "velocity": 99,
      "chip": "ym2612"
    },
    {
      "channel": 3,
      "note": 57,
      "start": 10.3593,
      "duration": 1.4576,
      "velocity": 82,
      "chip": "ym2612"
    },
    {
      "channel": 0,
      "note": 92,
      "start": 10.7264,
      "duration": 0.3529,
      "velocity": 99,
      "chip": "ym2612"
    },
    {
      "channel": 1,
      "note": 73,
      "start": 10.7269,
      "duration": 0.3526,
      "velocity": 99,
      "chip": "ym2612"
    },
    {
      "channel": 4,
      "note": 85,
      "start": 10.8196,
      "duration": 0.3529,
      "velocity": 99,
      "chip": "ym2612"
    },
    {
      "channel": 0,
      "note": 93,
      "start": 11.0948,
      "duration": 0.3527,
      "velocity": 99,
      "chip": "ym2612"
    },
    {
      "channel": 1,
      "note": 76,
      "start": 11.0953,
      "duration": 0.3525,
      "velocity": 99,
      "chip": "ym2612"
    },
    {
      "channel": 4,
      "note": 92,
      "start": 11.188,
      "duration": 0.3529,
      "velocity": 99,
      "chip": "ym2612"
    },
    {
      "channel": 0,
      "note": 85,
      "start": 11.4631,
      "duration": 0.3529,
      "velocity": 99,
      "chip": "ym2612"
    },
    {
      "channel": 1,
      "note": 69,
      "start": 11.4637,
      "duration": 0.7209,
      "velocity": 99,
      "chip": "ym2612"
    },
    {
      "channel": 4,
      "note": 93,
      "start": 11.5563,
      "duration": 0.3527,
      "velocity": 99,
      "chip": "ym2612"
    },
    {
      "channel": 0,
      "note": 88,
      "start": 11.8315,
      "duration": 0.537,
      "velocity": 99,
      "chip": "ym2612"
    },
    {
      "channel": 3,
      "note": 55,
      "start": 11.8329,
      "duration": 1.4574,
      "velocity": 82,
      "chip": "ym2612"
    },
    {
      "channel": 4,
      "note": 85,
      "start": 11.9247,
      "duration": 0.537,
      "velocity": 99,
      "chip": "ym2612"
    },
    {
      "channel": 1,
      "note": 74,
      "start": 12.2001,
      "duration": 0.3529,
      "velocity": 99,
      "chip": "ym2612"
    },
    {
      "channel": 0,
      "note": 86,
      "start": 12.384,
      "duration": 0.1686,
      "velocity": 99,
      "chip": "ym2612"
    },
    {
      "channel": 4,
      "note": 88,
      "start": 12.4775,
      "duration": 0.1686,
      "velocity": 99,
      "chip": "ym2612"
    },
    {
      "channel": 0,
      "note": 86,
      "start": 12.5682,
      "duration": 0.7212,
      "velocity": 99,
      "chip": "ym2612"
    },
    {
      "channel": 1,
      "note": 69,
      "start": 12.5688,
      "duration": 0.3525,
      "velocity": 99,
      "chip": "ym2612"
    },
    {
      "channel": 4,
      "note": 86,
      "start": 12.6615,
      "duration": 0.7211,
      "velocity": 99,
      "chip": "ym2612"
    },
    {
      "channel": 1,
      "note": 74,
      "start": 12.9368,
      "duration": 0.3529,
      "velocity": 99,
      "chip": "ym2612"
    },
    {
      "channel": 1,
      "note": 69,
      "start": 13.3053,
      "duration": 0.3528,
      "velocity": 99,
      "chip": "ym2612"
    },
    {
      "channel": 3,
      "note": 54,
      "start": 13.3062,
      "duration": 1.4577,
      "velocity": 82,
      "chip": "ym2612"
    },
    {
      "channel": 0,
      "note": 92,
      "start": 13.6733,
      "duration": 0.3528,
      "velocity": 99,
      "chip": "ym2612"
    },
    {
      "channel": 1,
      "note": 74,
      "start": 13.6739,
      "duration": 0.3526,
      "velocity": 99,
      "chip": "ym2612"
    },
    {
      "channel": 4,
      "note": 86,
      "start": 13.7665,
      "duration": 0.3529,
      "velocity": 99,
      "chip": "ym2612"
    },
    {
      "channel": 0,
      "note": 93,
      "start": 14.0417,
      "duration": 0.3528,
      "velocity": 99,
      "chip": "ym2612"
    },
    {
      "channel": 1,
      "note": 69,
      "start": 14.0422,
      "duration": 0.3526,
      "velocity": 99,
      "chip": "ym2612"
    },
    {
      "channel": 4,
      "note": 92,
      "start": 14.1349,
      "duration": 0.3529,
      "velocity": 99,
      "chip": "ym2612"
    },
    {
      "channel": 0,
      "note": 84,
      "start": 14.4101,
      "duration": 0.3527,
      "velocity": 99,
      "chip": "ym2612"
    },
    {
      "channel": 1,
      "note": 74,
      "start": 14.4106,
      "duration": 0.3525,
      "velocity": 99,
      "chip": "ym2612"
    },
    {
      "channel": 4,
      "note": 93,
      "start": 14.5033,
      "duration": 0.3527,
      "velocity": 99,
      "chip": "ym2612"
    },
    {
      "channel": 0,
      "note": 86,
      "start": 14.7784,
      "duration": 0.537,
      "velocity": 99,
      "chip": "ym2612"
    },
    {
      "channel": 1,
      "note": 69,
      "start": 14.779,
      "duration": 0.3525,
      "velocity": 99,
      "chip": "ym2612"
    },
    {
      "channel": 3,
      "note": 53,
      "start": 14.7801,
      "duration": 1.4571,
      "velocity": 82,
      "chip": "ym2612"
    },
    {
      "channel": 4,
      "note": 84,
      "start": 14.8716,
      "duration": 0.5371,
      "velocity": 99,
      "chip": "ym2612"
    },
    {
      "channel": 1,
      "note": 76,
      "start": 15.1471,
      "duration": 0.3528,
      "velocity": 99,
      "chip": "ym2612"
    },
    {
      "channel": 0,
      "note": 85,
      "start": 15.331,
      "duration": 0.1686,
      "velocity": 99,
      "chip": "ym2612"
    },
    {
      "channel": 4,
      "note": 86,
      "start": 15.4242,
      "duration": 0.1687,
      "velocity": 99,
      "chip": "ym2612"
    },
    {
      "channel": 0,
      "note": 85,
      "start": 15.5152,
      "duration": 1.4579,
      "velocity": 99,
      "chip": "ym2612"
    },
    {
      "channel": 1,
      "note": 69,
      "start": 15.5157,
      "duration": 0.3525,
      "velocity": 99,
      "chip": "ym2612"
    },
    {
      "channel": 4,
      "note": 85,
      "start": 15.6084,
      "duration": 1.458,
      "velocity": 99,
      "chip": "ym2612"
    },
    {
      "channel": 1,
      "note": 76,
      "start": 15.8838,
      "duration": 0.3528,
      "velocity": 99,
      "chip": "ym2612"
    },
    {
      "channel": 1,
      "note": 69,
      "start": 16.2522,
      "duration": 0.3529,
      "velocity": 99,
      "chip": "ym2612"
    },
    {
      "channel": 3,
      "note": 52,
      "start": 16.253,
      "duration": 1.4578,
      "velocity": 82,
      "chip": "ym2612"
    },
    {
      "channel": 1,
      "note": 78,
      "start": 16.6205,
      "duration": 0.3529,
      "velocity": 99,
      "chip": "ym2612"
    },
    {
      "channel": 0,
      "note": 90,
      "start": 16.9886,
      "duration": 0.7212,
      "velocity": 99,
      "chip": "ym2612"
    },
    {
      "channel": 1,
      "note": 73,
      "start": 16.9892,
      "duration": 0.3525,
      "velocity": 99,
      "chip": "ym2612"
    },
    {
      "channel": 4,
      "note": 85,
      "start": 17.0819,
      "duration": 0.7211,
      "velocity": 99,
      "chip": "ym2612"
    },
    {
      "channel": 1,
      "note": 69,
      "start": 17.3573,
      "duration": 0.3529,
      "velocity": 99,
      "chip": "ym2612"
    },
    {
      "channel": 0,
      "note": 81,
      "start": 17.7254,
      "duration": 0.1686,
      "velocity": 99,
      "chip": "ym2612"
    },
    {
      "channel": 3,
      "note": 51,
      "start": 17.7271,
      "duration": 0.1983,
      "velocity": 82,
      "chip": "ym2612"
    },
    {
      "channel": 4,
      "note": 90,
      "start": 17.8186,
      "duration": 0.1686,
      "velocity": 99,
      "chip": "ym2612"
    },
    {
      "channel": 0,
      "note": 80,
      "start": 17.9096,
      "duration": 0.1686,
      "velocity": 99,
      "chip": "ym2612"
    },
    {
      "channel": 4,
      "note": 81,
      "start": 18.0027,
      "duration": 0.1686,
      "velocity": 99,
      "chip": "ym2612"
    },
    {
      "channel": 0,
      "note": 81,
      "start": 18.0938,
      "duration": 0.1687,
      "velocity": 99,
      "chip": "ym2612"
    },
    {
      "channel": 1,
      "note": 66,
      "start": 18.0961,
      "duration": 0.1667,
      "velocity": 104,
      "chip": "ym2612"
    },
    {
      "channel": 3,
      "note": 52,
      "start": 18.0969,
      "duration": 0.1969,
      "velocity": 82,
      "chip": "ym2612"
    },
    {
      "channel": 4,
      "note": 80,
      "start": 18.187,
      "duration": 0.1686,
      "velocity": 99,
      "chip": "ym2612"
    },
    {
      "channel": 0,
      "note": 86,
      "start": 18.2779,
      "duration": 0.1686,
      "velocity": 99,
      "chip": "ym2612"
    },
    {
      "channel": 4,
      "note": 81,
      "start": 18.3711,
      "duration": 0.1687,
      "velocity": 99,
      "chip": "ym2612"
    },
    {
      "channel": 0,
      "note": 78,
      "start": 18.4621,
      "duration": 1.0896,
      "velocity": 99,
      "chip": "ym2612"
    },
    {
      "channel": 1,
      "note": 71,
      "start": 18.4627,
      "duration": 0.5366,
      "velocity": 104,
      "chip": "ym2612"
    },
    {
      "channel": 4,
      "note": 86,
      "start": 18.5553,
      "duration": 1.0896,
      "velocity": 99,
      "chip": "ym2612"
    },
    {
      "channel": 3,
      "note": 52,
      "start": 18.8314,
      "duration": 0.1993,
      "velocity": 82,
      "chip": "ym2612"
    },
    {
      "channel": 1,
      "note": 69,
      "start": 19.0149,
      "duration": 0.1687,
      "velocity": 104,
      "chip": "ym2612"
    },
    {
      "channel": 1,
      "note": 74,
      "start": 19.1991,
      "duration": 1.458,
      "velocity": 104,
      "chip": "ym2612"
    },
    {
      "channel": 3,
      "note": 52,
      "start": 19.2002,
      "duration": 0.1989,
      "velocity": 82,
      "chip": "ym2612"
    },
    {
      "channel": 0,
      "note": 80,
      "start": 19.5672,
      "duration": 0.1686,
      "velocity": 99,
      "chip": "ym2612"
    },
    {
      "channel": 3,
      "note": 52,
      "start": 19.5684,
      "duration": 0.199,
      "velocity": 82,
      "chip": "ym2612"
    },
    {
      "channel": 4,
      "note": 78,
      "start": 19.6605,
      "duration": 0.1686,
      "velocity": 99,
      "chip": "ym2612"
    },
    {
      "channel": 0,
      "note": 81,
      "start": 19.7514,
      "duration": 0.1686,
      "velocity": 99,
      "chip": "ym2612"
    },
    {
      "channel": 4,
      "note": 80,
      "start": 19.8446,
      "duration": 0.1687,
      "velocity": 99,
      "chip": "ym2612"
    },
    {
      "channel": 0,
      "note": 85,
      "start": 19.9356,
      "duration": 0.537,
      "velocity": 99,
      "chip": "ym2612"
    },
    {
      "channel": 4,
      "note": 81,
      "start": 20.0288,
      "duration": 0.537,
      "velocity": 99,
      "chip": "ym2612"
    },
    {
      "channel": 3,
      "note": 52,
      "start": 20.3049,
      "duration": 0.1992,
      "velocity": 82,
      "chip": "ym2612"
    },
    {
      "channel": 0,
      "note": 83,
      "start": 20.4881,
      "duration": 0.1687,
      "velocity": 99,
      "chip": "ym2612"
    },
    {
      "channel": 4,
      "note": 85,
      "start": 20.5814,
      "duration": 0.1684,
      "velocity": 99,
      "chip": "ym2612"
    },
    {
      "channel": 0,
      "note": 88,
      "start": 20.6723,
      "duration": 1.4579,
      "velocity": 99,
      "chip": "ym2612"
    },
    {
      "channel": 3,
      "note": 52,
      "start": 20.674,
      "duration": 0.1984,
      "velocity": 82,
      "chip": "ym2612"
    },
    {
      "channel": 4,
      "note": 83,
      "start": 20.7655,
      "duration": 1.4579,
      "velocity": 99,
      "chip": "ym2612"
    },
    {
      "channel": 1,
      "note": 68,
      "start": 21.041,
      "duration": 0.1686,
      "velocity": 104,
      "chip": "ym2612"
    },
    {
      "channel": 3,
      "note": 52,
      "start": 21.0419,
      "duration": 0.199,
      "velocity": 82,
      "chip": "ym2612"
    },
    {
      "channel": 1,
      "note": 73,
      "start": 21.4093,
      "duration": 0.5371,
      "velocity": 104,
      "chip": "ym2612"
    },
    {
      "channel": 3,
      "note": 52,
      "start": 21.7784,
      "duration": 0.1992,
      "velocity": 82,
      "chip": "ym2612"
    },
    {
      "channel": 1,
      "note": 71,
      "start": 21.9619,
      "duration": 0.1686,
      "velocity": 104,
      "chip": "ym2612"
    },
    {
      "channel": 1,
      "note": 76,
      "start": 22.1462,
      "duration": 1.4579,
      "velocity": 104,
      "chip": "ym2612"
    },
    {
      "channel": 3,
      "note": 52,
      "start": 22.1473,
      "duration": 0.7205,
      "velocity": 82,
      "chip": "ym2612"
    },
    {
      "channel": 2,
      "note": 71,
      "start": 22.5163,
      "duration": 0.3511,
      "velocity": 99,
      "chip": "ym2612"
    },
    {
      "channel": 2,
      "note": 69,
      "start": 22.8831,
      "duration": 0.3529,
      "velocity": 99,
      "chip": "ym2612"
    },
    {
      "channel": 3,
      "note": 64,
      "start": 22.8837,
      "duration": 0.721,
      "velocity": 82,
      "chip": "ym2612"
    },
    {
      "channel": 2,
      "note": 68,
      "start": 23.2515,
      "duration": 0.3529,
      "velocity": 99,
      "chip": "ym2612"
    },
    {
      "channel": 0,
      "note": 76,
      "start": 23.621,
      "duration": 0.7195,
      "velocity": 98,
      "chip": "ym2612"
    },
    {
      "channel": 3,
      "note": 52,
      "start": 23.6224,
      "duration": 0.197,
      "velocity": 82,
      "chip": "ym2612"
    },
    {
      "channel": 4,
      "note": 88,
      "start": 23.7151,
      "duration": 0.7185,
      "velocity": 98,
      "chip": "ym2612"
    },
    {
      "channel": 3,
      "note": 57,
      "start": 23.9885,
      "duration": 0.1992,
      "velocity": 82,
      "chip": "ym2612"
    },
    {
      "channel": 0,
      "note": 81,
      "start": 24.356,
      "duration": 1.0895,
      "velocity": 98,
      "chip": "ym2612"
    },
    {
      "channel": 1,
      "note": 73,
      "start": 24.3566,
      "duration": 0.7209,
      "velocity": 104,
      "chip": "ym2612"
    },
    {
      "channel": 4,
      "note": 76,
      "start": 24.4492,
      "duration": 1.0895,
      "velocity": 98,
      "chip": "ym2612"
    },
    {
      "channel": 3,
      "note": 57,
      "start": 24.7253,
      "duration": 0.1993,
      "velocity": 82,
      "chip": "ym2612"
    },
    {
      "channel": 1,
      "note": 74,
      "start": 25.093,
      "duration": 0.537,
      "velocity": 104,
      "chip": "ym2612"
    },
    {
      "channel": 3,
      "note": 52,
      "start": 25.0939,
      "duration": 0.199,
      "velocity": 82,
      "chip": "ym2612"
    },
    {
      "channel": 0,
      "note": 80,
      "start": 25.4611,
      "duration": 0.1686,
      "velocity": 98,
      "chip": "ym2612"
    },
    {
      "channel": 3,
      "note": 59,
      "start": 25.4623,
      "duration": 0.1989,
      "velocity": 82,
      "chip": "ym2612"
    },
    {
      "channel": 4,
      "note": 81,
      "start": 25.5544,
      "duration": 0.1685,
      "velocity": 98,
      "chip": "ym2612"
    },
    {
      "channel": 0,
      "note": 78,
      "start": 25.6453,
      "duration": 0.1686,
      "velocity": 98,
      "chip": "ym2612"
    },
    {
      "channel": 1,
      "note": 73,
      "start": 25.6459,
      "duration": 0.1683,
      "velocity": 104,
      "chip": "ym2612"
    },
    {
      "channel": 4,
      "note": 80,
      "start": 25.7385,
      "duration": 0.1686,
      "velocity": 98,
      "chip": "ym2612"
    },
    {
      "channel": 0,
      "note": 80,
      "start": 25.8295,
      "duration": 0.1686,
      "velocity": 98,
      "chip": "ym2612"
    },
    {
      "channel": 1,
      "note": 71,
      "start": 25.83,
      "duration": 0.1684,
      "velocity": 104,
      "chip": "ym2612"
    },
    {
      "channel": 4,
      "note": 78,
      "start": 25.9227,
      "duration": 0.1686,
      "velocity": 98,
      "chip": "ym2612"
    },
    {
      "channel": 0,
      "note": 81,
      "start": 26.0137,
      "duration": 0.1686,
      "velocity": 98,
      "chip": "ym2612"
    },
    {
      "channel": 4,
      "note": 80,
      "start": 26.1069,
      "duration": 0.1686,
      "velocity": 98,
      "chip": "ym2612"
    },
    {
      "channel": 0,
      "note": 83,
      "start": 26.1978,
      "duration": 0.1686,
      "velocity": 98,
      "chip": "ym2612"
    },
    {
      "channel": 1,
      "note": 68,
      "start": 26.1984,
      "duration": 0.1683,
      "velocity": 104,
      "chip": "ym2612"
    },
    {
      "channel": 3,
      "note": 59,
      "start": 26.1993,
      "duration": 0.1987,
      "velocity": 82,
      "chip": "ym2612"
    },
    {
      "channel": 4,
      "note": 81,
      "start": 26.2911,
      "duration": 0.1686,
      "velocity": 98,
      "chip": "ym2612"
    },
    {
      "channel": 0,
      "note": 76,
      "start": 26.5662,
      "duration": 0.7212,
      "velocity": 98,
      "chip": "ym2612"
    },
    {
      "channel": 3,
      "note": 52,
      "start": 26.5676,
      "duration": 0.1987,
      "velocity": 82,
      "chip": "ym2612"
    },
    {
      "channel": 4,
      "note": 83,
      "start": 26.6594,
      "duration": 0.7212,
      "velocity": 98,
      "chip": "ym2612"
    },
    {
      "channel": 3,
      "note": 61,
      "start": 26.9355,
      "duration": 0.1992,
      "velocity": 82,
      "chip": "ym2612"
    },
    {
      "channel": 0,
      "note": 85,
      "start": 27.3029,
      "duration": 1.0896,
      "velocity": 98,
      "chip": "ym2612"
    },
    {
      "channel": 1,
      "note": 76,
      "start": 27.3035,
      "duration": 0.7209,
      "velocity": 104,
      "chip": "ym2612"
    },
    {
      "channel": 4,
      "note": 76,
      "start": 27.3962,
      "duration": 1.0895,
      "velocity": 98,
      "chip": "ym2612"
    },
    {
      "channel": 3,
      "note": 61,
      "start": 27.6723,
      "duration": 0.1992,
      "velocity": 82,
      "chip": "ym2612"
    },
    {
      "channel": 1,
      "note": 78,
      "start": 28.0399,
      "duration": 0.537,
      "velocity": 104,
      "chip": "ym2612"
    },
    {
      "channel": 3,
      "note": 52,
      "start": 28.0408,
      "duration": 0.199,
      "velocity": 82,
      "chip": "ym2612"
    },
    {
      "channel": 0,
      "note": 83,
      "start": 28.4081,
      "duration": 0.1686,
      "velocity": 98,
      "chip": "ym2612"
    },
    {
      "channel": 3,
      "note": 62,
      "start": 28.4092,
      "duration": 0.199,
      "velocity": 82,
      "chip": "ym2612"
    },
    {
      "channel": 4,
      "note": 85,
      "start": 28.5013,
      "duration": 0.1686,
      "velocity": 98,
      "chip": "ym2612"
    },
    {
      "channel": 0,
      "note": 82,
      "start": 28.5922,
      "duration": 0.1686,
      "velocity": 98,
      "chip": "ym2612"
    },
    {
      "channel": 1,
      "note": 76,
      "start": 28.5928,
      "duration": 0.1684,
      "velocity": 104,
      "chip": "ym2612"
    },
    {
      "channel": 4,
      "note": 83,
      "start": 28.6854,
      "duration": 0.1686,
      "velocity": 98,
      "chip": "ym2612"
    },
    {
      "channel": 0,
      "note": 83,
      "start": 28.7765,
      "duration": 0.1686,
      "velocity": 98,
      "chip": "ym2612"
    },
    {
      "channel": 1,
      "note": 74,
      "start": 28.777,
      "duration": 0.1684,
      "velocity": 104,
      "chip": "ym2612"
    },
    {
      "channel": 4,
      "note": 82,
      "start": 28.8697,
      "duration": 0.1686,
      "velocity": 98,
      "chip": "ym2612"
    },
    {
      "channel": 0,
      "note": 85,
      "start": 28.9606,
      "duration": 0.1686,
      "velocity": 98,
      "chip": "ym2612"
    },
    {
      "channel": 4,
      "note": 83,
      "start": 29.0538,
      "duration": 0.1686,
      "velocity": 98,
      "chip": "ym2612"
    },
    {
      "channel": 0,
      "note": 86,
      "start": 29.1448,
      "duration": 0.1686,
      "velocity": 98,
      "chip": "ym2612"
    },
    {
      "channel": 1,
      "note": 78,
      "start": 29.1454,
      "duration": 0.1683,
      "velocity": 104,
      "chip": "ym2612"
    },
    {
      "channel": 3,
      "note": 62,
      "start": 29.1463,
      "duration": 0.1986,
      "velocity": 82,
      "chip": "ym2612"
    },
    {
      "channel": 4,
      "note": 85,
      "start": 29.238,
      "duration": 0.1686,
      "velocity": 98,
      "chip": "ym2612"
    },
    {
      "channel": 0,
      "note": 76,
      "start": 29.5151,
      "duration": 0.1053,
      "velocity": 83,
      "chip": "ym2612"
    },
    {
      "channel": 1,
      "note": 68,
      "start": 29.5175,
      "duration": 0.1032,
      "velocity": 83,
      "chip": "ym2612"
    },
    {
      "channel": 2,
      "note": 73,
      "start": 29.518,
      "duration": 0.1642,
      "velocity": 99,
      "chip": "ym2612"
    },
    {
      "channel": 3,
      "note": 59,
      "start": 29.5188,
      "duration": 0.1798,
      "velocity": 82,
      "chip": "ym2612"
    },
    {
      "channel": 4,
      "note": 86,
      "start": 29.6091,
      "duration": 0.1044,
      "velocity": 83,
      "chip": "ym2612"
    },
    {
      "channel": 0,
      "note": 76,
      "start": 29.6973,
      "duration": 0.1073,
      "velocity": 83,
      "chip": "ym2612"
    },
    {
      "channel": 1,
      "note": 68,
      "start": 29.6979,
      "duration": 0.1069,
      "velocity": 83,
      "chip": "ym2612"
    },
    {
      "channel": 4,
      "note": 76,
      "start": 29.7905,
      "duration": 0.1073,
      "velocity": 83,
      "chip": "ym2612"
    },
    {
      "channel": 0,
      "note": 73,
      "start": 29.8815,
      "duration": 0.1073,
      "velocity": 83,
      "chip": "ym2612"
    },
    {
      "channel": 1,
      "note": 64,
      "start": 29.8821,
      "duration": 0.107,
      "velocity": 83,
      "chip": "ym2612"
    },
    {
      "channel": 4,
      "note": 76,
      "start": 29.9747,
      "duration": 0.1073,
      "velocity": 83,
      "chip": "ym2612"
    },
    {
      "channel": 0,
      "note": 73,
      "start": 30.0657,
      "duration": 0.1072,
      "velocity": 83,
      "chip": "ym2612"
    },
    {
      "channel": 1,
      "note": 64,
      "start": 30.0663,
      "duration": 0.1069,
      "velocity": 83,
      "chip": "ym2612"
    },
    {
      "channel": 4,
      "note": 73,
      "start": 30.159,
      "duration": 0.1071,
      "velocity": 83,
      "chip": "ym2612"
    },
    {
      "channel": 0,
      "note": 78,
      "start": 30.2499,
      "duration": 0.1072,
      "velocity": 83,
      "chip": "ym2612"
    },
    {
      "channel": 1,
      "note": 73,
      "start": 30.2504,
      "duration": 0.107,
      "velocity": 83,
      "chip": "ym2612"
    },
    {
      "channel": 2,
      "note": 73,
      "start": 30.251,
      "duration": 0.168,
      "velocity": 99,
      "chip": "ym2612"
    },
    {
      "channel": 3,
      "note": 61,
      "start": 30.2517,
      "duration": 0.1837,
      "velocity": 82,
      "chip": "ym2612"
    },
    {
      "channel": 4,
      "note": 73,
      "start": 30.3433,
      "duration": 0.1069,
      "velocity": 83,
      "chip": "ym2612"
    },
    {
      "channel": 0,
      "note": 78,
      "start": 30.4341,
      "duration": 0.1073,
      "velocity": 83,
      "chip": "ym2612"
    },
    {
      "channel": 1,
      "note": 73,
      "start": 30.4346,
      "duration": 0.107,
      "velocity": 83,
      "chip": "ym2612"
    },
    {
      "channel": 4,
      "note": 78,
      "start": 30.5273,
      "duration": 0.1072,
      "velocity": 83,
      "chip": "ym2612"
    },
    {
      "channel": 0,
      "note": 73,
      "start": 30.6183,
      "duration": 0.1072,
      "velocity": 83,
      "chip": "ym2612"
    },
    {
      "channel": 1,
      "note": 66,
      "start": 30.6188,
      "duration": 0.1069,
      "velocity": 83,
      "chip": "ym2612"
    },
    {
      "channel": 4,
      "note": 78,
      "start": 30.7115,
      "duration": 0.1072,
      "velocity": 83,
      "chip": "ym2612"
    },
    {
      "channel": 0,
      "note": 73,
      "start": 30.8025,
      "duration": 0.1073,
      "velocity": 83,
      "chip": "ym2612"
    },
    {
      "channel": 1,
      "note": 66,
      "start": 30.803,
      "duration": 0.107,
      "velocity": 83,
      "chip": "ym2612"
    },
    {
      "channel": 4,
      "note": 73,
      "start": 30.8958,
      "duration": 0.107,
      "velocity": 83,
      "chip": "ym2612"
    },
    {
      "channel": 0,
      "note": 74,
      "start": 30.9866,
      "duration": 0.1072,
      "velocity": 83,
      "chip": "ym2612"
    },
    {
      "channel": 1,
      "note": 66,
      "start": 30.9871,
      "duration": 0.107,
      "velocity": 83,
      "chip": "ym2612"
    },
    {
      "channel": 2,
      "note": 71,
      "start": 30.9877,
      "duration": 0.168,
      "velocity": 99,
      "chip": "ym2612"
    },
    {
      "channel": 3,
      "note": 58,
      "start": 30.9883,
      "duration": 0.1838,
      "velocity": 82,
      "chip": "ym2612"
    },
    {
      "channel": 4,
      "note": 73,
      "start": 31.0799,
      "duration": 0.1071,
      "velocity": 83,
      "chip": "ym2612"
    },
    {
      "channel": 0,
      "note": 74,
      "start": 31.1709,
      "duration": 0.1072,
      "velocity": 83,
      "chip": "ym2612"
    },
    {
      "channel": 1,
      "note": 66,
      "start": 31.1714,
      "duration": 0.1069,
      "velocity": 83,
      "chip": "ym2612"
    },
    {
      "channel": 4,
      "note": 74,
      "start": 31.264,
      "duration": 0.1073,
      "velocity": 83,
      "chip": "ym2612"
    },
    {
      "channel": 0,
      "note": 71,
      "start": 31.355,
      "duration": 0.1073,
      "velocity": 83,
      "chip": "ym2612"
    },
    {
      "channel": 1,
      "note": 62,
      "start": 31.3555,
      "duration": 0.1071,
      "velocity": 83,
      "chip": "ym2612"
    },
    {
      "channel": 4,
      "note": 74,
      "start": 31.4482,
      "duration": 0.1073,
      "velocity": 83,
      "chip": "ym2612"
    },
    {
      "channel": 0,
      "note": 71,
      "start": 31.5392,
      "duration": 0.1073,
      "velocity": 83,
      "chip": "ym2612"
    },
    {
      "channel": 1,
      "note": 62,
      "start": 31.5397,
      "duration": 0.107,
      "velocity": 83,
      "chip": "ym2612"
    },
    {
      "channel": 4,
      "note": 71,
      "start": 31.6324,
      "duration": 0.1071,
      "velocity": 83,
      "chip": "ym2612"
    },
    {
      "channel": 0,
      "note": 69,
      "start": 31.7233,
      "duration": 0.1073,
      "velocity": 83,
      "chip": "ym2612"
    },
    {
      "channel": 1,
      "note": 64,
      "start": 31.7239,
      "duration": 0.107,
      "velocity": 83,
      "chip": "ym2612"
    },
    {
      "channel": 2,
      "note": 71,
      "start": 31.7244,
      "duration": 0.1681,
      "velocity": 99,
      "chip": "ym2612"
    },
    {
      "channel": 3,
      "note": 59,
      "start": 31.7251,
      "duration": 0.1838,
      "velocity": 82,
      "chip": "ym2612"
    },
    {
      "channel": 4,
      "note": 71,
      "start": 31.8165,
      "duration": 0.1072,
      "velocity": 83,
      "chip": "ym2612"
    },
    {
      "channel": 0,
      "note": 69,
      "start": 31.9076,
      "duration": 0.1072,
      "velocity": 83,
      "chip": "ym2612"
    },
    {
      "channel": 1,
      "note": 64,
      "start": 31.9081,
      "duration": 0.107,
      "velocity": 83,
      "chip": "ym2612"
    },
    {
      "channel": 4,
      "note": 69,
      "start": 32.0007,
      "duration": 0.1072,
      "velocity": 83,
      "chip": "ym2612"
    },
    {
      "channel": 0,
      "note": 68,
      "start": 32.0918,
      "duration": 0.1072,
      "velocity": 83,
      "chip": "ym2612"
    },
    {
      "channel": 1,
      "note": 64,
      "start": 32.0923,
      "duration": 0.1069,
      "velocity": 83,
      "chip": "ym2612"
    },
    {
      "channel": 4,
      "note": 69,
      "start": 32.185,
      "duration": 0.1072,
      "velocity": 83,
      "chip": "ym2612"
    },
    {
      "channel": 0,
      "note": 68,
      "start": 32.2759,
      "duration": 0.1072,
      "velocity": 83,
      "chip": "ym2612"
    },
    {
      "channel": 1,
      "note": 64,
      "start": 32.2765,
      "duration": 0.107,
      "velocity": 83,
      "chip": "ym2612"
    },
    {
      "channel": 4,
      "note": 68,
      "start": 32.3691,
      "duration": 0.1074,
      "velocity": 83,
      "chip": "ym2612"
    },
    {
      "channel": 0,
      "note": 76,
      "start": 32.4601,
      "duration": 0.1073,
      "velocity": 83,
      "chip": "ym2612"
    },
    {
      "channel": 1,
      "note": 67,
      "start": 32.4607,
      "duration": 0.1069,
      "velocity": 83,
      "chip": "ym2612"
    },
    {
      "channel": 2,
      "note": 73,
      "start": 32.4612,
      "duration": 0.1681,
      "velocity": 99,
      "chip": "ym2612"
    },
    {
      "channel": 3,
      "note": 64,
      "start": 32.4618,
      "duration": 0.1838,
      "velocity": 82,
      "chip": "ym2612"
    },
    {
      "channel": 4,
      "note": 68,
      "start": 32.5533,
      "duration": 0.1072,
      "velocity": 83,
      "chip": "ym2612"
    },
    {
      "channel": 0,
      "note": 76,
      "start": 32.6443,
      "duration": 0.1073,
      "velocity": 83,
      "chip": "ym2612"
    },
    {
      "channel": 1,
      "note": 67,
      "start": 32.6448,
      "duration": 0.107,
      "velocity": 83,
      "chip": "ym2612"
    },
    {
      "channel": 4,
      "note": 76,
      "start": 32.7375,
      "duration": 0.1073,
      "velocity": 83,
      "chip": "ym2612"
    },
    {
      "channel": 0,
      "note": 79,
      "start": 32.8285,
      "duration": 0.1072,
      "velocity": 83,
      "chip": "ym2612"
    },
    {
      "channel": 1,
      "note": 73,
      "start": 32.8291,
      "duration": 0.1069,
      "velocity": 83,
      "chip": "ym2612"
    },
    {
      "channel": 4,
      "note": 76,
      "start": 32.9217,
      "duration": 0.1073,
      "velocity": 83,
      "chip": "ym2612"
    },
    {
      "channel": 0,
      "note": 79,
      "start": 33.0127,
      "duration": 0.1072,
      "velocity": 83,
      "chip": "ym2612"
    },
    {
      "channel": 1,
      "note": 73,
      "start": 33.0132,
      "duration": 0.1069,
      "velocity": 83,
      "chip": "ym2612"
    },
    {
      "channel": 4,
      "note": 79,
      "start": 33.1059,
      "duration": 0.1072,
      "velocity": 83,
      "chip": "ym2612"
    },
    {
      "channel": 0,
      "note": 78,
      "start": 33.1969,
      "duration": 0.1073,
      "velocity": 83,
      "chip": "ym2612"
    },
    {
      "channel": 1,
      "note": 73,
      "start": 33.1974,
      "duration": 0.107,
      "velocity": 83,
      "chip": "ym2612"
    },
    {
      "channel": 2,
      "note": 73,
      "start": 33.198,
      "duration": 0.168,
      "velocity": 99,
      "chip": "ym2612"
    },
    {
      "channel": 3,
      "note": 61,
      "start": 33.1986,
      "duration": 0.1837,
      "velocity": 82,
      "chip": "ym2612"
    },
    {
      "channel": 4,
      "note": 79,
      "start": 33.29,
      "duration": 0.1072,
      "velocity": 83,
      "chip": "ym2612"
    },
    {
      "channel": 0,
      "note": 78,
      "start": 33.381,
      "duration": 0.1072,
      "velocity": 83,
      "chip": "ym2612"
    },
    {
      "channel": 1,
      "note": 73,
      "start": 33.3815,
      "duration": 0.107,
      "velocity": 83,
      "chip": "ym2612"
    },
    {
      "channel": 4,
      "note": 78,
      "start": 33.4742,
      "duration": 0.1072,
      "velocity": 83,
      "chip": "ym2612"
    },
    {
      "channel": 0,
      "note": 73,
      "start": 33.5653,
      "duration": 0.1072,
      "velocity": 83,
      "chip": "ym2612"
    },
    {
      "channel": 1,
      "note": 66,
      "start": 33.5658,
      "duration": 0.1069,
      "velocity": 83,
      "chip": "ym2612"
    },
    {
      "channel": 4,
      "note": 78,
      "start": 33.6585,
      "duration": 0.1072,
      "velocity": 83,
      "chip": "ym2612"
    },
    {
      "channel": 0,
      "note": 73,
      "start": 33.7494,
      "duration": 0.1073,
      "velocity": 83,
      "chip": "ym2612"
    },
    {
      "channel": 1,
      "note": 66,
      "start": 33.7499,
      "duration": 0.107,
      "velocity": 83,
      "chip": "ym2612"
    },
    {
      "channel": 4,
      "note": 73,
      "start": 33.8426,
      "duration": 0.1072,
      "velocity": 83,
      "chip": "ym2612"
    },
    {
      "channel": 0,
      "note": 74,
      "start": 33.9336,
      "duration": 0.1073,
      "velocity": 83,
      "chip": "ym2612"
    },
    {
      "channel": 1,
      "note": 66,
      "start": 33.9341,
      "duration": 0.107,
      "velocity": 83,
      "chip": "ym2612"
    },
    {
      "channel": 2,
      "note": 71,
      "start": 33.9347,
      "duration": 0.168,
      "velocity": 99,
      "chip": "ym2612"
    },
    {
      "channel": 3,
      "note": 58,
      "start": 33.9353,
      "duration": 0.1838,
      "velocity": 82,
      "chip": "ym2612"
    },
    {
      "channel": 4,
      "note": 73,
      "start": 34.0268,
      "duration": 0.1071,
      "velocity": 83,
      "chip": "ym2612"
    },
    {
      "channel": 0,
      "note": 74,
      "start": 34.1178,
      "duration": 0.1072,
      "velocity": 83,
      "chip": "ym2612"
    },
    {
      "channel": 1,
      "note": 66,
      "start": 34.1183,
      "duration": 0.107,
      "velocity": 83,
      "chip": "ym2612"
    },
    {
      "channel": 4,
      "note": 74,
      "start": 34.2111,
      "duration": 0.1071,
      "velocity": 83,
      "chip": "ym2612"
    },
    {
      "channel": 0,
      "note": 78,
      "start": 34.302,
      "duration": 0.1072,
      "velocity": 83,
      "chip": "ym2612"
    },
    {
      "channel": 1,
      "note": 71,
      "start": 34.3025,
      "duration": 0.107,
      "velocity": 83,
      "chip": "ym2612"
    },
    {
      "channel": 4,
      "note": 74,
      "start": 34.3952,
      "duration": 0.1072,
      "velocity": 83,
      "chip": "ym2612"
    },
    {
      "channel": 0,
      "note": 78,
      "start": 34.4861,
      "duration": 0.1073,
      "velocity": 83,
      "chip": "ym2612"
    },
    {
      "channel": 1,
      "note": 71,
      "start": 34.4867,
      "duration": 0.1069,
      "velocity": 83,
      "chip": "ym2612"
    },
    {
      "channel": 4,
      "note": 78,
      "start": 34.5795,
      "duration": 0.1071,
      "velocity": 83,
      "chip": "ym2612"
    },
    {
      "channel": 0,
      "note": 76,
      "start": 34.6703,
      "duration": 0.1073,
      "velocity": 83,
      "chip": "ym2612"
    },
    {
      "channel": 1,
      "note": 68,
      "start": 34.6709,
      "duration": 0.107,
      "velocity": 83,
      "chip": "ym2612"
    },
    {
      "channel": 2,
      "note": 71,
      "start": 34.6714,
      "duration": 0.7205,
      "velocity": 99,
      "chip": "ym2612"
    },
    {
      "channel": 3,
      "note": 59,
      "start": 34.6721,
      "duration": 0.7202,
      "velocity": 82,
      "chip": "ym2612"
    },
    {
      "channel": 4,
      "note": 78,
      "start": 34.7635,
      "duration": 0.1071,
      "velocity": 83,
      "chip": "ym2612"
    },
    {
      "channel": 0,
      "note": 76,
      "start": 34.8545,
      "duration": 0.1073,
      "velocity": 83,
      "chip": "ym2612"
    },
    {
      "channel": 1,
      "note": 68,
      "start": 34.855,
      "duration": 0.107,
      "velocity": 83,
      "chip": "ym2612"
    },
    {
      "channel": 4,
      "note": 76,
      "start": 34.9477,
      "duration": 0.1073,
      "velocity": 83,
      "chip": "ym2612"
    },
    {
      "channel": 0,
      "note": 71,
      "start": 35.0387,
      "duration": 0.1073,
      "velocity": 83,
      "chip": "ym2612"
    },
    {
      "channel": 1,
      "note": 68,
      "start": 35.0393,
      "duration": 0.1069,
      "velocity": 83,
      "chip": "ym2612"
    },
    {
      "channel": 4,
      "note": 76,
      "start": 35.1319,
      "duration": 0.1072,
      "velocity": 83,
      "chip": "ym2612"
    },
    {
      "channel": 0,
      "note": 71,
      "start": 35.2229,
      "duration": 0.1072,
      "velocity": 83,
      "chip": "ym2612"
    },
    {
      "channel": 1,
      "note": 68,
      "start": 35.2234,
      "duration": 0.107,
      "velocity": 83,
      "chip": "ym2612"
    },
    {
      "channel": 4,
      "note": 71,
      "start": 35.3161,
      "duration": 0.1072,
      "velocity": 83,
      "chip": "ym2612"
    },
    {
      "channel": 1,
      "note": 69,
      "start": 35.4096,
      "duration": 1.0873,
      "velocity": 104,
      "chip": "ym2612"
    },
    {
      "channel": 2,
      "note": 66,
      "start": 35.4118,
      "duration": 1.0854,
      "velocity": 104,
      "chip": "ym2612"
    },
    {
      "channel": 3,
      "note": 49,
      "start": 35.4128,
      "duration": 0.1943,
      "velocity": 82,
      "chip": "ym2612"
    },
    {
      "channel": 3,
      "note": 50,
      "start": 35.7765,
      "duration": 0.1992,
      "velocity": 82,
      "chip": "ym2612"
    },
    {
      "channel": 3,
      "note": 50,
      "start": 36.1448,
      "duration": 0.1992,
      "velocity": 82,
      "chip": "ym2612"
    },
    {
      "channel": 1,
      "note": 68,
      "start": 36.5125,
      "duration": 0.1686,
      "velocity": 104,
      "chip": "ym2612"
    },
    {
      "channel": 2,
      "note": 64,
      "start": 36.513,
      "duration": 0.1683,
      "velocity": 104,
      "chip": "ym2612"
    },
    {
      "channel": 3,
      "note": 50,
      "start": 36.5139,
      "duration": 0.1984,
      "velocity": 82,
      "chip": "ym2612"
    },
    {
      "channel": 1,
      "note": 69,
      "start": 36.6966,
      "duration": 0.1686,
      "velocity": 104,
      "chip": "ym2612"
    },
    {
      "channel": 2,
      "note": 66,
      "start": 36.6971,
      "duration": 0.1684,
      "velocity": 104,
      "chip": "ym2612"
    },
    {
      "channel": 1,
      "note": 71,
      "start": 36.8808,
      "duration": 0.9054,
      "velocity": 104,
      "chip": "ym2612"
    },
    {
      "channel": 2,
      "note": 68,
      "start": 36.8814,
      "duration": 0.9051,
      "velocity": 104,
      "chip": "ym2612"
    },
    {
      "channel": 3,
      "note": 50,
      "start": 36.8821,
      "duration": 0.1985,
      "velocity": 82,
      "chip": "ym2612"
    },
    {
      "channel": 0,
      "note": 80,
      "start": 37.2507,
      "duration": 0.1668,
      "velocity": 99,
      "chip": "ym2612"
    },
    {
      "channel": 3,
      "note": 50,
      "start": 37.252,
      "duration": 0.197,
      "velocity": 82,
      "chip": "ym2612"
    },
    {
      "channel": 4,
      "note": 71,
      "start": 37.3448,
      "duration": 0.1659,
      "velocity": 99,
      "chip": "ym2612"
    },
    {
      "channel": 0,
      "note": 81,
      "start": 37.4331,
      "duration": 0.1686,
      "velocity": 99,
      "chip": "ym2612"
    },
    {
      "channel": 4,
      "note": 80,
      "start": 37.5263,
      "duration": 0.1687,
      "velocity": 99,
      "chip": "ym2612"
    },
    {
      "channel": 0,
      "note": 83,
      "start": 37.6173,
      "duration": 0.4449,
      "velocity": 99,
      "chip": "ym2612"
    },
    {
      "channel": 3,
      "note": 50,
      "start": 37.6186,
      "duration": 0.1987,
      "velocity": 82,
      "chip": "ym2612"
    },
    {
      "channel": 4,
      "note": 81,
      "start": 37.7105,
      "duration": 0.4449,
      "velocity": 99,
      "chip": "ym2612"
    },
    {
      "channel": 1,
      "note": 64,
      "start": 37.9859,
      "duration": 0.1686,
      "velocity": 104,
      "chip": "ym2612"
    },
    {
      "channel": 2,
      "note": 59,
      "start": 37.9864,
      "duration": 0.1683,
      "velocity": 104,
      "chip": "ym2612"
    },
    {
      "channel": 3,
      "note": 50,
      "start": 37.9873,
      "duration": 0.352,
      "velocity": 82,
      "chip": "ym2612"
    },
    {
      "channel": 1,
      "note": 71,
      "start": 38.3542,
      "duration": 1.0896,
      "velocity": 104,
      "chip": "ym2612"
    },
    {
      "channel": 2,
      "note": 68,
      "start": 38.3548,
      "duration": 1.0894,
      "velocity": 104,
      "chip": "ym2612"
    },
    {
      "channel": 3,
      "note": 50,
      "start": 38.3556,
      "duration": 0.1985,
      "velocity": 82,
      "chip": "ym2612"
    },
    {
      "channel": 3,
      "note": 49,
      "start": 38.7234,
      "duration": 0.1991,
      "velocity": 82,
      "chip": "ym2612"
    },
    {
      "channel": 3,
      "note": 49,
      "start": 39.0918,
      "duration": 0.1991,
      "velocity": 82,
      "chip": "ym2612"
    },
    {
      "channel": 1,
      "note": 69,
      "start": 39.4593,
      "duration": 0.1686,
      "velocity": 104,
      "chip": "ym2612"
    },
    {
      "channel": 2,
      "note": 66,
      "start": 39.4599,
      "duration": 0.1683,
      "velocity": 104,
      "chip": "ym2612"
    },
    {
      "channel": 3,
      "note": 49,
      "start": 39.4607,
      "duration": 0.1986,
      "velocity": 82,
      "chip": "ym2612"
    },
    {
      "channel": 1,
      "note": 71,
      "start": 39.6436,
      "duration": 0.1687,
      "velocity": 104,
      "chip": "ym2612"
    },
    {
      "channel": 2,
      "note": 68,
      "start": 39.6441,
      "duration": 0.1685,
      "velocity": 104,
      "chip": "ym2612"
    },
    {
      "channel": 1,
      "note": 73,
      "start": 39.8277,
      "duration": 1.458,
      "velocity": 104,
      "chip": "ym2612"
    },
    {
      "channel": 2,
      "note": 70,
      "start": 39.8283,
      "duration": 1.4578,
      "velocity": 104,
      "chip": "ym2612"
    },
    {
      "channel": 3,
      "note": 49,
      "start": 39.8293,
      "duration": 0.1983,
      "velocity": 82,
      "chip": "ym2612"
    },
    {
      "channel": 0,
      "note": 82,
      "start": 40.1959,
      "duration": 0.1685,
      "velocity": 99,
      "chip": "ym2612"
    },
    {
      "channel": 3,
      "note": 54,
      "start": 40.1972,
      "duration": 0.1989,
      "velocity": 82,
      "chip": "ym2612"
    },
    {
      "channel": 4,
      "note": 83,
      "start": 40.2891,
      "duration": 0.1686,
      "velocity": 99,
      "chip": "ym2612"
    },
    {
      "channel": 0,
      "note": 83,
      "start": 40.38,
      "duration": 0.1686,
      "velocity": 99,
      "chip": "ym2612"
    },
    {
      "channel": 4,
      "note": 82,
      "start": 40.4733,
      "duration": 0.1687,
      "velocity": 99,
      "chip": "ym2612"
    },
    {
      "channel": 0,
      "note": 85,
      "start": 40.5642,
      "duration": 0.3528,
      "velocity": 99,
      "chip": "ym2612"
    },
    {
      "channel": 3,
      "note": 54,
      "start": 40.5655,
      "duration": 0.1989,
      "velocity": 82,
      "chip": "ym2612"
    },
    {
      "channel": 4,
      "note": 83,
      "start": 40.6575,
      "duration": 0.3529,
      "velocity": 99,
      "chip": "ym2612"
    },
    {
      "channel": 0,
      "note": 89,
      "start": 40.9342,
      "duration": 0.3512,
      "velocity": 99,
      "chip": "ym2612"
    },
    {
      "channel": 3,
      "note": 54,
      "start": 40.9356,
      "duration": 0.1972,
      "velocity": 82,
      "chip": "ym2612"
    },
    {
      "channel": 4,
      "note": 85,
      "start": 41.0282,
      "duration": 0.3503,
      "velocity": 99,
      "chip": "ym2612"
    },
    {
      "channel": 0,
      "note": 90,
      "start": 41.301,
      "duration": 0.3529,
      "velocity": 99,
      "chip": "ym2612"
    },
    {
      "channel": 1,
      "note": 71,
      "start": 41.3032,
      "duration": 1.4559,
      "velocity": 99,
      "chip": "ym2612"
    },
    {
      "channel": 3,
      "note": 54,
      "start": 41.3044,
      "duration": 0.1659,
      "velocity": 82,
      "chip": "ym2612"
    },
    {
      "channel": 4,
      "note": 89,
      "start": 41.3941,
      "duration": 0.3529,
      "velocity": 99,
      "chip": "ym2612"
    },
    {
      "channel": 0,
      "note": 85,
      "start": 41.6693,
      "duration": 0.3528,
      "velocity": 99,
      "chip": "ym2612"
    },
    {
      "channel": 3,
      "note": 47,
      "start": 41.6705,
      "duration": 0.1683,
      "velocity": 82,
      "chip": "ym2612"
    },
    {
      "channel": 4,
      "note": 90,
      "start": 41.7627,
      "duration": 0.3528,
      "velocity": 99,
      "chip": "ym2612"
    },
    {
      "channel": 0,
      "note": 88,
      "start": 42.0377,
      "duration": 0.537,
      "velocity": 99,
      "chip": "ym2612"
    },
    {
      "channel": 4,
      "note": 85,
      "start": 42.131,
      "duration": 0.537,
      "velocity": 99,
      "chip": "ym2612"
    },
    {
      "channel": 3,
      "note": 47,
      "start": 42.407,
      "duration": 0.1687,
      "velocity": 82,
      "chip": "ym2612"
    },
    {
      "channel": 0,
      "note": 86,
      "start": 42.5902,
      "duration": 0.1686,
      "velocity": 99,
      "chip": "ym2612"
    },
    {
      "channel": 3,
      "note": 49,
      "start": 42.5914,
      "duration": 0.1683,
      "velocity": 82,
      "chip": "ym2612"
    },
    {
      "channel": 4,
      "note": 88,
      "start": 42.6835,
      "duration": 0.1685,
      "velocity": 99,
      "chip": "ym2612"
    },
    {
      "channel": 0,
      "note": 86,
      "start": 42.7744,
      "duration": 0.9054,
      "velocity": 99,
      "chip": "ym2612"
    },
    {
      "channel": 3,
      "note": 50,
      "start": 42.7757,
      "duration": 0.1681,
      "velocity": 82,
      "chip": "ym2612"
    },
    {
      "channel": 4,
      "note": 86,
      "start": 42.8677,
      "duration": 0.9053,
      "velocity": 99,
      "chip": "ym2612"
    },
    {
      "channel": 1,
      "note": 70,
      "start": 43.1432,
      "duration": 0.3527,
      "velocity": 99,
      "chip": "ym2612"
    },
    {
      "channel": 3,
      "note": 52,
      "start": 43.1441,
      "duration": 0.168,
      "velocity": 82,
      "chip": "ym2612"
    },
    {
      "channel": 1,
      "note": 73,
      "start": 43.5115,
      "duration": 0.537,
      "velocity": 99,
      "chip": "ym2612"
    },
    {
      "channel": 0,
      "note": 92,
      "start": 43.8795,
      "duration": 0.3528,
      "velocity": 99,
      "chip": "ym2612"
    },
    {
      "channel": 3,
      "note": 52,
      "start": 43.8807,
      "duration": 0.1684,
      "velocity": 82,
      "chip": "ym2612"
    },
    {
      "channel": 4,
      "note": 86,
      "start": 43.9728,
      "duration": 0.3527,
      "velocity": 99,
      "chip": "ym2612"
    },
    {
      "channel": 1,
      "note": 71,
      "start": 44.0639,
      "duration": 0.1687,
      "velocity": 99,
      "chip": "ym2612"
    },
    {
      "channel": 3,
      "note": 52,
      "start": 44.0648,
      "duration": 0.1685,
      "velocity": 82,
      "chip": "ym2612"
    },
    {
      "channel": 0,
      "note": 93,
      "start": 44.2479,
      "duration": 0.3528,
      "velocity": 99,
      "chip": "ym2612"
    },
    {
      "channel": 1,
      "note": 69,
      "start": 44.2485,
      "duration": 1.4576,
      "velocity": 99,
      "chip": "ym2612"
    },
    {
      "channel": 3,
      "note": 50,
      "start": 44.2494,
      "duration": 0.1678,
      "velocity": 82,
      "chip": "ym2612"
    },
    {
      "channel": 4,
      "note": 92,
      "start": 44.3411,
      "duration": 0.3528,
      "velocity": 99,
      "chip": "ym2612"
    },
    {
      "channel": 0,
      "note": 88,
      "start": 44.6163,
      "duration": 0.3528,
      "velocity": 99,
      "chip": "ym2612"
    },
    {
      "channel": 3,
      "note": 49,
      "start": 44.6174,
      "duration": 0.1683,
      "velocity": 82,
      "chip": "ym2612"
    },
    {
      "channel": 4,
      "note": 93,
      "start": 44.7095,
      "duration": 0.3529,
      "velocity": 99,
      "chip": "ym2612"
    },
    {
      "channel": 0,
      "note": 91,
      "start": 44.9847,
      "duration": 0.537,
      "velocity": 99,
      "chip": "ym2612"
    },
    {
      "channel": 4,
      "note": 88,
      "start": 45.0779,
      "duration": 0.537,
      "velocity": 99,
      "chip": "ym2612"
    },
    {
      "channel": 3,
      "note": 49,
      "start": 45.3539,
      "duration": 0.1688,
      "velocity": 82,
      "chip": "ym2612"
    },
    {
      "channel": 0,
      "note": 90,
      "start": 45.5372,
      "duration": 0.1686,
      "velocity": 99,
      "chip": "ym2612"
    },
    {
      "channel": 3,
      "note": 50,
      "start": 45.5383,
      "duration": 0.1684,
      "velocity": 82,
      "chip": "ym2612"
    },
    {
      "channel": 4,
      "note": 91,
      "start": 45.6305,
      "duration": 0.1685,
      "velocity": 99,
      "chip": "ym2612"
    },
    {
      "channel": 0,
      "note": 90,
      "start": 45.7214,
      "duration": 0.9054,
      "velocity": 99,
      "chip": "ym2612"
    },
    {
      "channel": 3,
      "note": 52,
      "start": 45.7226,
      "duration": 0.1682,
      "velocity": 82,
      "chip": "ym2612"
    },
    {
      "channel": 4,
      "note": 90,
      "start": 45.8146,
      "duration": 0.9053,
      "velocity": 99,
      "chip": "ym2612"
    },
    {
      "channel": 1,
      "note": 73,
      "start": 46.09,
      "duration": 0.3529,
      "velocity": 99,
      "chip": "ym2612"
    },
    {
      "channel": 3,
      "note": 54,
      "start": 46.0909,
      "duration": 0.1683,
      "velocity": 82,
      "chip": "ym2612"
    },
    {
      "channel": 1,
      "note": 74,
      "start": 46.4583,
      "duration": 0.537,
      "velocity": 99,
      "chip": "ym2612"
    },
    {
      "channel": 0,
      "note": 82,
      "start": 46.8265,
      "duration": 0.3528,
      "velocity": 99,
      "chip": "ym2612"
    },
    {
      "channel": 3,
      "note": 54,
      "start": 46.8276,
      "duration": 0.1684,
      "velocity": 82,
      "chip": "ym2612"
    },
    {
      "channel": 4,
      "note": 90,
      "start": 46.9198,
      "duration": 0.3527,
      "velocity": 99,
      "chip": "ym2612"
    },
    {
      "channel": 1,
      "note": 76,
      "start": 47.0109,
      "duration": 0.1686,
      "velocity": 99,
      "chip": "ym2612"
    },
    {
      "channel": 0,
      "note": 83,
      "start": 47.1948,
      "duration": 0.3528,
      "velocity": 99,
      "chip": "ym2612"
    },
    {
      "channel": 1,
      "note": 74,
      "start": 47.1954,
      "duration": 0.9051,
      "velocity": 99,
      "chip": "ym2612"
    },
    {
      "channel": 2,
      "note": 71,
      "start": 47.1977,
      "duration": 1.4556,
      "velocity": 99,
      "chip": "ym2612"
    },
    {
      "channel": 3,
      "note": 54,
      "start": 47.1983,
      "duration": 0.7186,
      "velocity": 82,
      "chip": "ym2612"
    },
    {
      "channel": 4,
      "note": 82,
      "start": 47.288,
      "duration": 0.3529,
      "velocity": 99,
      "chip": "ym2612"
    },
    {
      "channel": 0,
      "note": 78,
      "start": 47.5632,
      "duration": 0.3528,
      "velocity": 99,
      "chip": "ym2612"
    },
    {
      "channel": 4,
      "note": 83,
      "start": 47.6565,
      "duration": 0.3529,
      "velocity": 99,
      "chip": "ym2612"
    },
    {
      "channel": 0,
      "note": 85,
      "start": 47.9315,
      "duration": 0.5371,
      "velocity": 99,
      "chip": "ym2612"
    },
    {
      "channel": 4,
      "note": 78,
      "start": 48.0249,
      "duration": 0.5369,
      "velocity": 99,
      "chip": "ym2612"
    },
    {
      "channel": 1,
      "note": 74,
      "start": 48.3002,
      "duration": 0.1688,
      "velocity": 99,
      "chip": "ym2612"
    },
    {
      "channel": 3,
      "note": 59,
      "start": 48.3011,
      "duration": 0.1685,
      "velocity": 82,
      "chip": "ym2612"
    },
    {
      "channel": 0,
      "note": 83,
      "start": 48.4841,
      "duration": 0.1686,
      "velocity": 99,
      "chip": "ym2612"
    },
    {
      "channel": 1,
      "note": 76,
      "start": 48.4847,
      "duration": 0.1684,
      "velocity": 99,
      "chip": "ym2612"
    },
    {
      "channel": 4,
      "note": 85,
      "start": 48.5773,
      "duration": 0.1686,
      "velocity": 99,
      "chip": "ym2612"
    },
    {
      "channel": 0,
      "note": 86,
      "start": 48.6683,
      "duration": 0.2607,
      "velocity": 99,
      "chip": "ym2612"
    },
    {
      "channel": 1,
      "note": 78,
      "start": 48.6689,
      "duration": 1.0893,
      "velocity": 99,
      "chip": "ym2612"
    },
    {
      "channel": 2,
      "note": 71,
      "start": 48.6694,
      "duration": 1.4574,
      "velocity": 99,
      "chip": "ym2612"
    },
    {
      "channel": 3,
      "note": 59,
      "start": 48.67,
      "duration": 0.7204,
      "velocity": 82,
      "chip": "ym2612"
    },
    {
      "channel": 4,
      "note": 83,
      "start": 48.7615,
      "duration": 0.2608,
      "velocity": 99,
      "chip": "ym2612"
    },
    {
      "channel": 0,
      "note": 85,
      "start": 49.0367,
      "duration": 0.3528,
      "velocity": 99,
      "chip": "ym2612"
    },
    {
      "channel": 4,
      "note": 86,
      "start": 49.13,
      "duration": 0.3528,
      "velocity": 99,
      "chip": "ym2612"
    },
    {
      "channel": 0,
      "note": 88,
      "start": 49.405,
      "duration": 0.5371,
      "velocity": 99,
      "chip": "ym2612"
    },
    {
      "channel": 4,
      "note": 85,
      "start": 49.4983,
      "duration": 0.5369,
      "velocity": 99,
      "chip": "ym2612"
    },
    {
      "channel": 1,
      "note": 80,
      "start": 49.7737,
      "duration": 0.1688,
      "velocity": 99,
      "chip": "ym2612"
    },
    {
      "channel": 3,
      "note": 57,
      "start": 49.7746,
      "duration": 0.1686,
      "velocity": 82,
      "chip": "ym2612"
    },
    {
      "channel": 0,
      "note": 86,
      "start": 49.9576,
      "duration": 0.1686,
      "velocity": 99,
      "chip": "ym2612"
    },
    {
      "channel": 1,
      "note": 81,
      "start": 49.9581,
      "duration": 0.1684,
      "velocity": 99,
      "chip": "ym2612"
    },
    {
      "channel": 4,
      "note": 88,
      "start": 50.0508,
      "duration": 0.1685,
      "velocity": 99,
      "chip": "ym2612"
    },
    {
      "channel": 0,
      "note": 90,
      "start": 50.1418,
      "duration": 0.2607,
      "velocity": 99,
      "chip": "ym2612"
    },
    {
      "channel": 1,
      "note": 83,
      "start": 50.1424,
      "duration": 0.9051,
      "velocity": 99,
      "chip": "ym2612"
    },
    {
      "channel": 2,
      "note": 74,
      "start": 50.1429,
      "duration": 0.9049,
      "velocity": 99,
      "chip": "ym2612"
    },
    {
      "channel": 3,
      "note": 57,
      "start": 50.1435,
      "duration": 0.7203,
      "velocity": 82,
      "chip": "ym2612"
    },
    {
      "channel": 4,
      "note": 86,
      "start": 50.235,
      "duration": 0.2609,
      "velocity": 99,
      "chip": "ym2612"
    },
    {
      "channel": 0,
      "note": 89,
      "start": 50.5102,
      "duration": 0.3528,
      "velocity": 99,
      "chip": "ym2612"
    },
    {
      "channel": 4,
      "note": 90,
      "start": 50.6034,
      "duration": 0.3529,
      "velocity": 99,
      "chip": "ym2612"
    },
    {
      "channel": 0,
      "note": 92,
      "start": 50.8785,
      "duration": 0.537,
      "velocity": 99,
      "chip": "ym2612"
    },
    {
      "channel": 4,
      "note": 89,
      "start": 50.9718,
      "duration": 0.5368,
      "velocity": 99,
      "chip": "ym2612"
    },
    {
      "channel": 1,
      "note": 83,
      "start": 51.2471,
      "duration": 0.1687,
      "velocity": 99,
      "chip": "ym2612"
    },
    {
      "channel": 2,
      "note": 74,
      "start": 51.2477,
      "duration": 0.1684,
      "velocity": 99,
      "chip": "ym2612"
    },
    {
      "channel": 3,
      "note": 56,
      "start": 51.2483,
      "duration": 0.1681,
      "velocity": 82,
      "chip": "ym2612"
    },
    {
      "channel": 0,
      "note": 90,
      "start": 51.4311,
      "duration": 0.1686,
      "velocity": 99,
      "chip": "ym2612"
    },
    {
      "channel": 1,
      "note": 85,
      "start": 51.4316,
      "duration": 0.1684,
      "velocity": 99,
      "chip": "ym2612"
    },
    {
      "channel": 2,
      "note": 76,
      "start": 51.4322,
      "duration": 0.1681,
      "velocity": 99,
      "chip": "ym2612"
    },
    {
      "channel": 4,
      "note": 92,
      "start": 51.5242,
      "duration": 0.1686,
      "velocity": 99,
      "chip": "ym2612"
    },
    {
      "channel": 0,
      "note": 93,
      "start": 51.6153,
      "duration": 0.537,
      "velocity": 99,
      "chip": "ym2612"
    },
    {
      "channel": 1,
      "note": 86,
      "start": 51.6158,
      "duration": 0.5368,
      "velocity": 99,
      "chip": "ym2612"
    },
    {
      "channel": 2,
      "note": 77,
      "start": 51.6163,
      "duration": 0.5366,
      "velocity": 99,
      "chip": "ym2612"
    },
    {
      "channel": 3,
      "note": 56,
      "start": 51.617,
      "duration": 0.7203,
      "velocity": 82,
      "chip": "ym2612"
    },
    {
      "channel": 4,
      "note": 90,
      "start": 51.7085,
      "duration": 0.537,
      "velocity": 99,
      "chip": "ym2612"
    },
    {
      "channel": 0,
      "note": 81,
      "start": 52.352,
      "duration": 0.537,
      "velocity": 99,
      "chip": "ym2612"
    },
    {
      "channel": 1,
      "note": 77,
      "start": 52.3525,
      "duration": 0.3525,
      "velocity": 99,
      "chip": "ym2612"
    },
    {
      "channel": 2,
      "note": 74,
      "start": 52.3531,
      "duration": 0.3523,
      "velocity": 99,
      "chip": "ym2612"
    },
    {
      "channel": 4,
      "note": 93,
      "start": 52.4452,
      "duration": 0.537,
      "velocity": 99,
      "chip": "ym2612"
    },
    {
      "channel": 0,
      "note": 83,
      "start": 52.9046,
      "duration": 0.1686,
      "velocity": 99,
      "chip": "ym2612"
    },
    {
      "channel": 1,
      "note": 77,
      "start": 52.9051,
      "duration": 0.1684,
      "velocity": 99,
      "chip": "ym2612"
    },
    {
      "channel": 2,
      "note": 74,
      "start": 52.9056,
      "duration": 0.1681,
      "velocity": 99,
      "chip": "ym2612"
    },
    {
      "channel": 4,
      "note": 81,
      "start": 52.9978,
      "duration": 0.1686,
      "velocity": 99,
      "chip": "ym2612"
    },
    {
      "channel": 0,
      "note": 85,
      "start": 53.0887,
      "duration": 0.9054,
      "velocity": 99,
      "chip": "ym2612"
    },
    {
      "channel": 1,
      "note": 76,
      "start": 53.0893,
      "duration": 0.9052,
      "velocity": 99,
      "chip": "ym2612"
    },
    {
      "channel": 2,
      "note": 69,
      "start": 53.0898,
      "duration": 0.905,
      "velocity": 99,
      "chip": "ym2612"
    },
    {
      "channel": 4,
      "note": 83,
      "start": 53.182,
      "duration": 0.9053,
      "velocity": 99,
      "chip": "ym2612"
    },
    {
      "channel": 3,
      "note": 55,
      "start": 53.458,
      "duration": 0.1686,
      "velocity": 82,
      "chip": "ym2612"
    },
    {
      "channel": 3,
      "note": 52,
      "start": 53.8264,
      "duration": 1.0895,
      "velocity": 82,
      "chip": "ym2612"
    },
    {
      "channel": 0,
      "note": 85,
      "start": 54.1939,
      "duration": 0.1687,
      "velocity": 99,
      "chip": "ym2612"
    },
    {
      "channel": 1,
      "note": 76,
      "start": 54.1944,
      "duration": 0.1684,
      "velocity": 99,
      "chip": "ym2612"
    },
    {
      "channel": 2,
      "note": 69,
      "start": 54.195,
      "duration": 0.1681,
      "velocity": 99,
      "chip": "ym2612"
    },
    {
      "channel": 4,
      "note": 85,
      "start": 54.2871,
      "duration": 0.1686,
      "velocity": 99,
      "chip": "ym2612"
    },
    {
      "channel": 0,
      "note": 86,
      "start": 54.378,
      "duration": 0.1686,
      "velocity": 99,
      "chip": "ym2612"
    },
    {
      "channel": 4,
      "note": 85,
      "start": 54.4712,
      "duration": 0.1686,
      "velocity": 99,
      "chip": "ym2612"
    },
    {
      "channel": 0,
      "note": 83,
      "start": 54.5623,
      "duration": 0.9054,
      "velocity": 99,
      "chip": "ym2612"
    },
    {
      "channel": 1,
      "note": 76,
      "start": 54.5628,
      "duration": 0.9051,
      "velocity": 99,
      "chip": "ym2612"
    },
    {
      "channel": 2,
      "note": 71,
      "start": 54.5634,
      "duration": 0.9048,
      "velocity": 99,
      "chip": "ym2612"
    },
    {
      "channel": 4,
      "note": 86,
      "start": 54.6555,
      "duration": 0.9052,
      "velocity": 99,
      "chip": "ym2612"
    },
    {
      "channel": 3,
      "note": 57,
      "start": 54.9315,
      "duration": 0.1686,
      "velocity": 82,
      "chip": "ym2612"
    },
    {
      "channel": 3,
      "note": 56,
      "start": 55.1157,
      "duration": 0.1685,
      "velocity": 82,
      "chip": "ym2612"
    },
    {
      "channel": 3,
      "note": 54,
      "start": 55.2999,
      "duration": 0.1687,
      "velocity": 82,
      "chip": "ym2612"
    },
    {
      "channel": 3,
      "note": 56,
      "start": 55.4843,
      "duration": 0.1683,
      "velocity": 82,
      "chip": "ym2612"
    },
    {
      "channel": 0,
      "note": 76,
      "start": 55.6673,
      "duration": 0.1686,
      "velocity": 99,
      "chip": "ym2612"
    },
    {
      "channel": 2,
      "note": 68,
      "start": 55.668,
      "duration": 0.1685,
      "velocity": 99,
      "chip": "ym2612"
    },
    {
      "channel": 3,
      "note": 57,
      "start": 55.6687,
      "duration": 0.1681,
      "velocity": 82,
      "chip": "ym2612"
    },
    {
      "channel": 4,
      "note": 83,
      "start": 55.7605,
      "duration": 0.1687,
      "velocity": 99,
      "chip": "ym2612"
    },
    {
      "channel": 0,
      "note": 86,
      "start": 56.0357,
      "duration": 0.9054,
      "velocity": 99,
      "chip": "ym2612"
    },
    {
      "channel": 1,
      "note": 76,
      "start": 56.0363,
      "duration": 0.9051,
      "velocity": 99,
      "chip": "ym2612"
    },
    {
      "channel": 2,
      "note": 68,
      "start": 56.0368,
      "duration": 0.9049,
      "velocity": 99,
      "chip": "ym2612"
    },
    {
      "channel": 4,
      "note": 76,
      "start": 56.1289,
      "duration": 0.9053,
      "velocity": 99,
      "chip": "ym2612"
    },
    {
      "channel": 3,
      "note": 59,
      "start": 56.405,
      "duration": 0.1686,
      "velocity": 82,
      "chip": "ym2612"
    },
    {
      "channel": 3,
      "note": 52,
      "start": 56.7733,
      "duration": 1.0896,
      "velocity": 82,
      "chip": "ym2612"
    },
    {
      "channel": 0,
      "note": 86,
      "start": 57.1408,
      "duration": 0.1686,
      "velocity": 99,
      "chip": "ym2612"
    },
    {
      "channel": 1,
      "note": 76,
      "start": 57.1413,
      "duration": 0.1683,
      "velocity": 99,
      "chip": "ym2612"
    },
    {
      "channel": 2,
      "note": 68,
      "start": 57.1419,
      "duration": 0.168,
      "velocity": 99,
      "chip": "ym2612"
    },
    {
      "channel": 4,
      "note": 86,
      "start": 57.234,
      "duration": 0.1686,
      "velocity": 99,
      "chip": "ym2612"
    },
    {
      "channel": 0,
      "note": 88,
      "start": 57.325,
      "duration": 0.1686,
      "velocity": 99,
      "chip": "ym2612"
    },
    {
      "channel": 4,
      "note": 86,
      "start": 57.4182,
      "duration": 0.1686,
      "velocity": 99,
      "chip": "ym2612"
    },
    {
      "channel": 0,
      "note": 85,
      "start": 57.5092,
      "duration": 0.9053,
      "velocity": 99,
      "chip": "ym2612"
    },
    {
      "channel": 1,
      "note": 76,
      "start": 57.5097,
      "duration": 0.9051,
      "velocity": 99,
      "chip": "ym2612"
    },
    {
      "channel": 2,
      "note": 69,
      "start": 57.5102,
      "duration": 0.9049,
      "velocity": 99,
      "chip": "ym2612"
    },
    {
      "channel": 4,
      "note": 88,
      "start": 57.6024,
      "duration": 0.9053,
      "velocity": 99,
      "chip": "ym2612"
    },
    {
      "channel": 3,
      "note": 59,
      "start": 57.8784,
      "duration": 0.1686,
      "velocity": 82,
      "chip": "ym2612"
    },
    {
      "channel": 3,
      "note": 57,
      "start": 58.0627,
      "duration": 0.1685,
      "velocity": 82,
      "chip": "ym2612"
    },
    {
      "channel": 3,
      "note": 56,
      "start": 58.2469,
      "duration": 0.1686,
      "velocity": 82,
      "chip": "ym2612"
    },
    {
      "channel": 3,
      "note": 57,
      "start": 58.4312,
      "duration": 0.1683,
      "velocity": 82,
      "chip": "ym2612"
    },
    {
      "channel": 0,
      "note": 81,
      "start": 58.6143,
      "duration": 0.1686,
      "velocity": 99,
      "chip": "ym2612"
    },
    {
      "channel": 1,
      "note": 76,
      "start": 58.6148,
      "duration": 0.1683,
      "velocity": 99,
      "chip": "ym2612"
    },
    {
      "channel": 2,
      "note": 69,
      "start": 58.6154,
      "duration": 0.168,
      "velocity": 99,
      "chip": "ym2612"
    },
    {
      "channel": 3,
      "note": 59,
      "start": 58.616,
      "duration": 0.1677,
      "velocity": 82,
      "chip": "ym2612"
    },
    {
      "channel": 4,
      "note": 85,
      "start": 58.7074,
      "duration": 0.1686,
      "velocity": 99,
      "chip": "ym2612"
    },
    {
      "channel": 0,
      "note": 88,
      "start": 58.9827,
      "duration": 0.9053,
      "velocity": 99,
      "chip": "ym2612"
    },
    {
      "channel": 1,
      "note": 81,
      "start": 58.9832,
      "duration": 0.9051,
      "velocity": 99,
      "chip": "ym2612"
    },
    {
      "channel": 2,
      "note": 73,
      "start": 58.9838,
      "duration": 0.9049,
      "velocity": 99,
      "chip": "ym2612"
    },
    {
      "channel": 4,
      "note": 81,
      "start": 59.0758,
      "duration": 0.9053,
      "velocity": 99,
      "chip": "ym2612"
    },
    {
      "channel": 3,
      "note": 61,
      "start": 59.3519,
      "duration": 0.1686,
      "velocity": 82,
      "chip": "ym2612"
    },
    {
      "channel": 3,
      "note": 57,
      "start": 59.7202,
      "duration": 0.7212,
      "velocity": 82,
      "chip": "ym2612"
    },
    {
      "channel": 0,
      "note": 88,
      "start": 60.0877,
      "duration": 0.1686,
      "velocity": 99,
      "chip": "ym2612"
    },
    {
      "channel": 1,
      "note": 81,
      "start": 60.0883,
      "duration": 0.1684,
      "velocity": 99,
      "chip": "ym2612"
    },
    {
      "channel": 2,
      "note": 73,
      "start": 60.0888,
      "duration": 0.1681,
      "velocity": 99,
      "chip": "ym2612"
    },
    {
      "channel": 4,
      "note": 88,
      "start": 60.181,
      "duration": 0.1686,
      "velocity": 99,
      "chip": "ym2612"
    },
    {
      "channel": 0,
      "note": 90,
      "start": 60.272,
      "duration": 0.1686,
      "velocity": 99,
      "chip": "ym2612"
    },
    {
      "channel": 4,
      "note": 88,
      "start": 60.3651,
      "duration": 0.1685,
      "velocity": 99,
      "chip": "ym2612"
    },
    {
      "channel": 0,
      "note": 86,
      "start": 60.4561,
      "duration": 0.3528,
      "velocity": 99,
      "chip": "ym2612"
    },
    {
      "channel": 1,
      "note": 81,
      "start": 60.4567,
      "duration": 0.5981,
      "velocity": 99,
      "chip": "ym2612"
    },
    {
      "channel": 2,
      "note": 74,
      "start": 60.4572,
      "duration": 0.5978,
      "velocity": 99,
      "chip": "ym2612"
    },
    {
      "channel": 3,
      "note": 67,
      "start": 60.4578,
      "duration": 0.7203,
      "velocity": 82,
      "chip": "ym2612"
    },
    {
      "channel": 4,
      "note": 90,
      "start": 60.5493,
      "duration": 0.3529,
      "velocity": 99,
      "chip": "ym2612"
    },
    {
      "channel": 0,
      "note": 93,
      "start": 61.0086,
      "duration": 0.1686,
      "velocity": 99,
      "chip": "ym2612"
    },
    {
      "channel": 4,
      "note": 86,
      "start": 61.1019,
      "duration": 0.1685,
      "velocity": 99,
      "chip": "ym2612"
    },
    {
      "channel": 0,
      "note": 93,
      "start": 61.1929,
      "duration": 0.5369,
      "velocity": 99,
      "chip": "ym2612"
    },
    {
      "channel": 1,
      "note": 81,
      "start": 61.1934,
      "duration": 0.5981,
      "velocity": 99,
      "chip": "ym2612"
    },
    {
      "channel": 2,
      "note": 74,
      "start": 61.1939,
      "duration": 0.5978,
      "velocity": 99,
      "chip": "ym2612"
    },
    {
      "channel": 3,
      "note": 66,
      "start": 61.1946,
      "duration": 0.7203,
      "velocity": 82,
      "chip": "ym2612"
    },
    {
      "channel": 4,
      "note": 93,
      "start": 61.286,
      "duration": 0.537,
      "velocity": 99,
      "chip": "ym2612"
    },
    {
      "channel": 0,
      "note": 86,
      "start": 61.7454,
      "duration": 0.1686,
      "velocity": 99,
      "chip": "ym2612"
    },
    {
      "channel": 4,
      "note": 93,
      "start": 61.8386,
      "duration": 0.1686,
      "velocity": 99,
      "chip": "ym2612"
    },
    {
      "channel": 0,
      "note": 85,
      "start": 61.9296,
      "duration": 0.9054,
      "velocity": 99,
      "chip": "ym2612"
    },
    {
      "channel": 1,
      "note": 81,
      "start": 61.9301,
      "duration": 0.1683,
      "velocity": 99,
      "chip": "ym2612"
    },
    {
      "channel": 3,
      "note": 65,
      "start": 61.9312,
      "duration": 1.4572,
      "velocity": 82,
      "chip": "ym2612"
    },
    {
      "channel": 4,
      "note": 86,
      "start": 62.0228,
      "duration": 0.9054,
      "velocity": 99,
      "chip": "ym2612"
    },
    {
      "channel": 1,
      "note": 80,
      "start": 62.114,
      "duration": 0.1687,
      "velocity": 99,
      "chip": "ym2612"
    },
    {
      "channel": 1,
      "note": 81,
      "start": 62.2982,
      "duration": 0.1686,
      "velocity": 99,
      "chip": "ym2612"
    },
    {
      "channel": 1,
      "note": 83,
      "start": 62.4824,
      "duration": 0.1686,
      "velocity": 99,
      "chip": "ym2612"
    },
    {
      "channel": 1,
      "note": 81,
      "start": 62.6666,
      "duration": 1.458,
      "velocity": 99,
      "chip": "ym2612"
    },
    {
      "channel": 0,
      "note": 85,
      "start": 63.0347,
      "duration": 0.1686,
      "velocity": 99,
      "chip": "ym2612"
    },
    {
      "channel": 2,
      "note": 76,
      "start": 63.0355,
      "duration": 0.1684,
      "velocity": 99,
      "chip": "ym2612"
    },
    {
      "channel": 4,
      "note": 85,
      "start": 63.128,
      "duration": 0.1686,
      "velocity": 99,
      "chip": "ym2612"
    },
    {
      "channel": 0,
      "note": 85,
      "start": 63.2189,
      "duration": 0.1686,
      "velocity": 99,
      "chip": "ym2612"
    },
    {
      "channel": 4,
      "note": 85,
      "start": 63.3122,
      "duration": 0.1686,
      "velocity": 99,
      "chip": "ym2612"
    },
    {
      "channel": 0,
      "note": 86,
      "start": 63.403,
      "duration": 0.3529,
      "velocity": 99,
      "chip": "ym2612"
    },
    {
      "channel": 2,
      "note": 76,
      "start": 63.4039,
      "duration": 1.4577,
      "velocity": 99,
      "chip": "ym2612"
    },
    {
      "channel": 3,
      "note": 64,
      "start": 63.4045,
      "duration": 1.4574,
      "velocity": 82,
      "chip": "ym2612"
    },
    {
      "channel": 4,
      "note": 85,
      "start": 63.4964,
      "duration": 0.3527,
      "velocity": 99,
      "chip": "ym2612"
    },
    {
      "channel": 0,
      "note": 85,
      "start": 63.7714,
      "duration": 0.7212,
      "velocity": 99,
      "chip": "ym2612"
    },
    {
      "channel": 4,
      "note": 86,
      "start": 63.8647,
      "duration": 0.7212,
      "velocity": 99,
      "chip": "ym2612"
    },
    {
      "channel": 1,
      "note": 80,
      "start": 64.1401,
      "duration": 0.7212,
      "velocity": 99,
      "chip": "ym2612"
    },
    {
      "channel": 0,
      "note": 83,
      "start": 64.5082,
      "duration": 0.3528,
      "velocity": 99,
      "chip": "ym2612"
    },
    {
      "channel": 4,
      "note": 85,
      "start": 64.6015,
      "duration": 0.3527,
      "velocity": 99,
      "chip": "ym2612"
    },
    {
      "channel": 0,
      "note": 76,
      "start": 64.8785,
      "duration": 0.7192,
      "velocity": 99,
      "chip": "ym2612"
    },
    {
      "channel": 1,
      "note": 73,
      "start": 64.8812,
      "duration": 0.3485,
      "velocity": 99,
      "chip": "ym2612"
    },
    {
      "channel": 3,
      "note": 52,
      "start": 64.8826,
      "duration": 1.4527,
      "velocity": 82,
      "chip": "ym2612"
    },
    {
      "channel": 4,
      "note": 83,
      "start": 64.9724,
      "duration": 0.7186,
      "velocity": 99,
      "chip": "ym2612"
    },
    {
      "channel": 1,
      "note": 69,
      "start": 65.2452,
      "duration": 0.3529,
      "velocity": 99,
      "chip": "ym2612"
    },
    {
      "channel": 0,
      "note": 81,
      "start": 65.6133,
      "duration": 1.0896,
      "velocity": 99,
      "chip": "ym2612"
    },
    {
      "channel": 1,
      "note": 73,
      "start": 65.6138,
      "duration": 0.3526,
      "velocity": 99,
      "chip": "ym2612"
    },
    {
      "channel": 4,
      "note": 76,
      "start": 65.7066,
      "duration": 1.0896,
      "velocity": 99,
      "chip": "ym2612"
    },
    {
      "channel": 1,
      "note": 69,
      "start": 65.9819,
      "duration": 0.3529,
      "velocity": 99,
      "chip": "ym2612"
    },
    {
      "channel": 1,
      "note": 71,
      "start": 66.3503,
      "duration": 1.0895,
      "velocity": 99,
      "chip": "ym2612"
    },
    {
      "channel": 3,
      "note": 57,
      "start": 66.3512,
      "duration": 1.826,
      "velocity": 82,
      "chip": "ym2612"
    },
    {
      "channel": 0,
      "note": 80,
      "start": 66.7184,
      "duration": 0.1686,
      "velocity": 99,
      "chip": "ym2612"
    },
    {
      "channel": 4,
      "note": 81,
      "start": 66.8116,
      "duration": 0.1686,
      "velocity": 99,
      "chip": "ym2612"
    },
    {
      "channel": 0,
      "note": 78,
      "start": 66.9026,
      "duration": 0.1686,
      "velocity": 99,
      "chip": "ym2612"
    },
    {
      "channel": 4,
      "note": 80,
      "start": 66.9959,
      "duration": 0.1686,
      "velocity": 99,
      "chip": "ym2612"
    },
    {
      "channel": 0,
      "note": 80,
      "start": 67.0868,
      "duration": 0.1686,
      "velocity": 99,
      "chip": "ym2612"
    },
    {
      "channel": 4,
      "note": 78,
      "start": 67.1801,
      "duration": 0.1685,
      "velocity": 99,
      "chip": "ym2612"
    },
    {
      "channel": 0,
      "note": 81,
      "start": 67.2709,
      "duration": 0.1686,
      "velocity": 99,
      "chip": "ym2612"
    },
    {
      "channel": 4,
      "note": 80,
      "start": 67.3642,
      "duration": 0.1686,
      "velocity": 99,
      "chip": "ym2612"
    },
    {
      "channel": 0,
      "note": 83,
      "start": 67.4551,
      "duration": 0.1686,
      "velocity": 99,
      "chip": "ym2612"
    },
    {
      "channel": 1,
      "note": 69,
      "start": 67.4556,
      "duration": 0.1683,
      "velocity": 99,
      "chip": "ym2612"
    },
    {
      "channel": 4,
      "note": 81,
      "start": 67.5484,
      "duration": 0.1685,
      "velocity": 99,
      "chip": "ym2612"
    },
    {
      "channel": 1,
      "note": 68,
      "start": 67.6396,
      "duration": 0.1686,
      "velocity": 99,
      "chip": "ym2612"
    },
    {
      "channel": 0,
      "note": 76,
      "start": 67.8235,
      "duration": 2.1946,
      "velocity": 99,
      "chip": "ym2612"
    },
    {
      "channel": 1,
      "note": 69,
      "start": 67.824,
      "duration": 0.3526,
      "velocity": 99,
      "chip": "ym2612"
    },
    {
      "channel": 4,
      "note": 83,
      "start": 67.9167,
      "duration": 2.1946,
      "velocity": 99,
      "chip": "ym2612"
    },
    {
      "channel": 1,
      "note": 64,
      "start": 68.1921,
      "duration": 0.3528,
      "velocity": 99,
      "chip": "ym2612"
    },
    {
      "channel": 3,
      "note": 62,
      "start": 68.193,
      "duration": 0.1683,
      "velocity": 82,
      "chip": "ym2612"
    },
    {
      "channel": 3,
      "note": 61,
      "start": 68.3769,
      "duration": 0.1686,
      "velocity": 82,
      "chip": "ym2612"
    },
    {
      "channel": 1,
      "note": 69,
      "start": 68.5605,
      "duration": 0.3528,
      "velocity": 99,
      "chip": "ym2612"
    },
    {
      "channel": 3,
      "note": 59,
      "start": 68.5614,
      "duration": 0.1683,
      "velocity": 82,
      "chip": "ym2612"
    },
    {
      "channel": 3,
      "note": 61,
      "start": 68.7453,
      "duration": 0.1686,
      "velocity": 82,
      "chip": "ym2612"
    },
    {
      "channel": 1,
      "note": 73,
      "start": 68.9289,
      "duration": 0.7211,
      "velocity": 99,
      "chip": "ym2612"
    },
    {
      "channel": 3,
      "note": 62,
      "start": 68.9298,
      "duration": 0.1683,
      "velocity": 82,
      "chip": "ym2612"
    },
    {
      "channel": 3,
      "note": 64,
      "start": 69.2979,
      "duration": 0.7212,
      "velocity": 82,
      "chip": "ym2612"
    },
    {
      "channel": 1,
      "note": 71,
      "start": 69.6656,
      "duration": 0.7212,
      "velocity": 99,
      "chip": "ym2612"
    },
    {
      "channel": 3,
      "note": 55,
      "start": 70.0347,
      "duration": 0.7212,
      "velocity": 82,
      "chip": "ym2612"
    },
    {
      "channel": 0,
      "note": 85,
      "start": 70.4021,
      "duration": 0.3528,
      "velocity": 99,
      "chip": "ym2612"
    },
    {
      "channel": 1,
      "note": 70,
      "start": 70.4026,
      "duration": 0.3525,
      "velocity": 99,
      "chip": "ym2612"
    },
    {
      "channel": 4,
      "note": 76,
      "start": 70.4954,
      "duration": 0.3526,
      "velocity": 99,
      "chip": "ym2612"
    },
    {
      "channel": 0,
      "note": 86,
      "start": 70.7704,
      "duration": 0.1686,
      "velocity": 99,
      "chip": "ym2612"
    },
    {
      "channel": 1,
      "note": 71,
      "start": 70.771,
      "duration": 0.3526,
      "velocity": 99,
      "chip": "ym2612"
    },
    {
      "channel": 3,
      "note": 54,
      "start": 70.7721,
      "duration": 1.4572,
      "velocity": 82,
      "chip": "ym2612"
    },
    {
      "channel": 4,
      "note": 85,
      "start": 70.8637,
      "duration": 0.1685,
      "velocity": 99,
      "chip": "ym2612"
    },
    {
      "channel": 0,
      "note": 85,
      "start": 70.9546,
      "duration": 0.1686,
      "velocity": 99,
      "chip": "ym2612"
    },
    {
      "channel": 4,
      "note": 86,
      "start": 71.0478,
      "duration": 0.1687,
      "velocity": 99,
      "chip": "ym2612"
    },
    {
      "channel": 0,
      "note": 86,
      "start": 71.1388,
      "duration": 0.1686,
      "velocity": 99,
      "chip": "ym2612"
    },
    {
      "channel": 1,
      "note": 66,
      "start": 71.1394,
      "duration": 0.3525,
      "velocity": 99,
      "chip": "ym2612"
    },
    {
      "channel": 4,
      "note": 85,
      "start": 71.232,
      "duration": 0.1686,
      "velocity": 99,
      "chip": "ym2612"
    },
    {
      "channel": 0,
      "note": 90,
      "start": 71.3229,
      "duration": 0.1686,
      "velocity": 99,
      "chip": "ym2612"
    },
    {
      "channel": 4,
      "note": 86,
      "start": 71.4162,
      "duration": 0.1687,
      "velocity": 99,
      "chip": "ym2612"
    },
    {
      "channel": 0,
      "note": 79,
      "start": 71.5072,
      "duration": 1.0896,
      "velocity": 99,
      "chip": "ym2612"
    },
    {
      "channel": 1,
      "note": 74,
      "start": 71.5077,
      "duration": 0.3526,
      "velocity": 99,
      "chip": "ym2612"
    },
    {
      "channel": 4,
      "note": 90,
      "start": 71.6004,
      "duration": 1.0895,
      "velocity": 99,
      "chip": "ym2612"
    },
    {
      "channel": 1,
      "note": 71,
      "start": 71.8758,
      "duration": 0.3528,
      "velocity": 99,
      "chip": "ym2612"
    },
    {
      "channel": 1,
      "note": 70,
      "start": 72.2441,
      "duration": 0.3529,
      "velocity": 99,
      "chip": "ym2612"
    },
    {
      "channel": 3,
      "note": 59,
      "start": 72.245,
      "duration": 1.4577,
      "velocity": 82,
      "chip": "ym2612"
    },
    {
      "channel": 0,
      "note": 80,
      "start": 72.6123,
      "duration": 0.3528,
      "velocity": 99,
      "chip": "ym2612"
    },
    {
      "channel": 1,
      "note": 71,
      "start": 72.6128,
      "duration": 0.7209,
      "velocity": 99,
      "chip": "ym2612"
    },
    {
      "channel": 4,
      "note": 79,
      "start": 72.7055,
      "duration": 0.3529,
      "velocity": 99,
      "chip": "ym2612"
    },
    {
      "channel": 0,
      "note": 88,
      "start": 72.9807,
      "duration": 0.3528,
      "velocity": 99,
      "chip": "ym2612"
    },
    {
      "channel": 4,
      "note": 80,
      "start": 73.0739,
      "duration": 0.3528,
      "velocity": 99,
      "chip": "ym2612"
    },
    {
      "channel": 0,
      "note": 86,
      "start": 73.349,
      "duration": 0.3528,
      "velocity": 99,
      "chip": "ym2612"
    },
    {
      "channel": 1,
      "note": 68,
      "start": 73.3495,
      "duration": 0.7209,
      "velocity": 99,
      "chip": "ym2612"
    },
    {
      "channel": 4,
      "note": 88,
      "start": 73.4422,
      "duration": 0.3527,
      "velocity": 99,
      "chip": "ym2612"
    },
    {
      "channel": 0,
      "note": 84,
      "start": 73.7174,
      "duration": 0.7212,
      "velocity": 99,
      "chip": "ym2612"
    },
    {
      "channel": 3,
      "note": 52,
      "start": 73.7188,
      "duration": 1.4575,
      "velocity": 82,
      "chip": "ym2612"
    },
    {
      "channel": 4,
      "note": 86,
      "start": 73.8107,
      "duration": 0.7211,
      "velocity": 99,
      "chip": "ym2612"
    },
    {
      "channel": 1,
      "note": 64,
      "start": 74.086,
      "duration": 0.3529,
      "velocity": 99,
      "chip": "ym2612"
    },
    {
      "channel": 0,
      "note": 85,
      "start": 74.4541,
      "duration": 0.7212,
      "velocity": 99,
      "chip": "ym2612"
    },
    {
      "channel": 1,
      "note": 69,
      "start": 74.4546,
      "duration": 0.3526,
      "velocity": 99,
      "chip": "ym2612"
    },
    {
      "channel": 4,
      "note": 84,
      "start": 74.5474,
      "duration": 0.721,
      "velocity": 99,
      "chip": "ym2612"
    },
    {
      "channel": 1,
      "note": 64,
      "start": 74.8228,
      "duration": 0.3529,
      "velocity": 99,
      "chip": "ym2612"
    },
    {
      "channel": 1,
      "note": 69,
      "start": 75.1912,
      "duration": 0.3528,
      "velocity": 99,
      "chip": "ym2612"
    },
    {
      "channel": 3,
      "note": 57,
      "start": 75.1921,
      "duration": 1.4576,
      "velocity": 82,
      "chip": "ym2612"
    },
    {
      "channel": 0,
      "note": 92,
      "start": 75.5592,
      "duration": 0.3528,
      "velocity": 99,
      "chip": "ym2612"
    },
    {
      "channel": 1,
      "note": 73,
      "start": 75.5597,
      "duration": 0.3527,
      "velocity": 99,
      "chip": "ym2612"
    },
    {
      "channel": 4,
      "note": 85,
      "start": 75.6524,
      "duration": 0.3529,
      "velocity": 99,
      "chip": "ym2612"
    },
    {
      "channel": 0,
      "note": 93,
      "start": 75.9276,
      "duration": 0.3528,
      "velocity": 99,
      "chip": "ym2612"
    },
    {
      "channel": 1,
      "note": 76,
      "start": 75.9281,
      "duration": 0.3526,
      "velocity": 99,
      "chip": "ym2612"
    },
    {
      "channel": 4,
      "note": 92,
      "start": 76.0209,
      "duration": 0.3528,
      "velocity": 99,
      "chip": "ym2612"
    },
    {
      "channel": 0,
      "note": 85,
      "start": 76.296,
      "duration": 0.3528,
      "velocity": 99,
      "chip": "ym2612"
    },
    {
      "channel": 1,
      "note": 69,
      "start": 76.2966,
      "duration": 0.7209,
      "velocity": 99,
      "chip": "ym2612"
    },
    {
      "channel": 4,
      "note": 93,
      "start": 76.3892,
      "duration": 0.3528,
      "velocity": 99,
      "chip": "ym2612"
    },
    {
      "channel": 0,
      "note": 88,
      "start": 76.6643,
      "duration": 0.537,
      "velocity": 99,
      "chip": "ym2612"
    },
    {
      "channel": 3,
      "note": 55,
      "start": 76.6657,
      "duration": 1.4574,
      "velocity": 82,
      "chip": "ym2612"
    },
    {
      "channel": 4,
      "note": 85,
      "start": 76.7575,
      "duration": 0.537,
      "velocity": 99,
      "chip": "ym2612"
    },
    {
      "channel": 1,
      "note": 74,
      "start": 77.0329,
      "duration": 0.3529,
      "velocity": 99,
      "chip": "ym2612"
    },
    {
      "channel": 0,
      "note": 86,
      "start": 77.2169,
      "duration": 0.1686,
      "velocity": 99,
      "chip": "ym2612"
    },
    {
      "channel": 4,
      "note": 88,
      "start": 77.3101,
      "duration": 0.1687,
      "velocity": 99,
      "chip": "ym2612"
    },
    {
      "channel": 0,
      "note": 86,
      "start": 77.4011,
      "duration": 0.7211,
      "velocity": 99,
      "chip": "ym2612"
    },
    {
      "channel": 1,
      "note": 69,
      "start": 77.4016,
      "duration": 0.3525,
      "velocity": 99,
      "chip": "ym2612"
    },
    {
      "channel": 4,
      "note": 86,
      "start": 77.4943,
      "duration": 0.7211,
      "velocity": 99,
      "chip": "ym2612"
    },
    {
      "channel": 1,
      "note": 74,
      "start": 77.7697,
      "duration": 0.3528,
      "velocity": 99,
      "chip": "ym2612"
    },
    {
      "channel": 1,
      "note": 69,
      "start": 78.1382,
      "duration": 0.3527,
      "velocity": 99,
      "chip": "ym2612"
    },
    {
      "channel": 3,
      "note": 54,
      "start": 78.139,
      "duration": 1.4577,
      "velocity": 82,
      "chip": "ym2612"
    },
    {
      "channel": 0,
      "note": 92,
      "start": 78.5062,
      "duration": 0.3528,
      "velocity": 99,
      "chip": "ym2612"
    },
    {
      "channel": 1,
      "note": 74,
      "start": 78.5067,
      "duration": 0.3525,
      "velocity": 99,
      "chip": "ym2612"
    },
    {
      "channel": 4,
      "note": 86,
      "start": 78.5994,
      "duration": 0.3528,
      "velocity": 99,
      "chip": "ym2612"
    },
    {
      "channel": 0,
      "note": 93,
      "start": 78.8746,
      "duration": 0.3528,
      "velocity": 99,
      "chip": "ym2612"
    },
    {
      "channel": 1,
      "note": 69,
      "start": 78.8751,
      "duration": 0.3526,
      "velocity": 99,
      "chip": "ym2612"
    },
    {
      "channel": 4,
      "note": 92,
      "start": 78.9678,
      "duration": 0.3528,
      "velocity": 99,
      "chip": "ym2612"
    },
    {
      "channel": 0,
      "note": 84,
      "start": 79.2429,
      "duration": 0.3529,
      "velocity": 99,
      "chip": "ym2612"
    },
    {
      "channel": 1,
      "note": 74,
      "start": 79.2434,
      "duration": 0.3527,
      "velocity": 99,
      "chip": "ym2612"
    },
    {
      "channel": 4,
      "note": 93,
      "start": 79.3361,
      "duration": 0.3527,
      "velocity": 99,
      "chip": "ym2612"
    },
    {
      "channel": 0,
      "note": 86,
      "start": 79.6112,
      "duration": 0.537,
      "velocity": 99,
      "chip": "ym2612"
    },
    {
      "channel": 1,
      "note": 69,
      "start": 79.6118,
      "duration": 0.3525,
      "velocity": 99,
      "chip": "ym2612"
    },
    {
      "channel": 3,
      "note": 53,
      "start": 79.613,
      "duration": 1.4571,
      "velocity": 82,
      "chip": "ym2612"
    },
    {
      "channel": 4,
      "note": 84,
      "start": 79.7044,
      "duration": 0.537,
      "velocity": 99,
      "chip": "ym2612"
    },
    {
      "channel": 1,
      "note": 76,
      "start": 79.9799,
      "duration": 0.3529,
      "velocity": 99,
      "chip": "ym2612"
    },
    {
      "channel": 0,
      "note": 85,
      "start": 80.1638,
      "duration": 0.1687,
      "velocity": 99,
      "chip": "ym2612"
    },
    {
      "channel": 4,
      "note": 86,
      "start": 80.2571,
      "duration": 0.1687,
      "velocity": 99,
      "chip": "ym2612"
    },
    {
      "channel": 0,
      "note": 85,
      "start": 80.348,
      "duration": 1.4579,
      "velocity": 99,
      "chip": "ym2612"
    },
    {
      "channel": 1,
      "note": 69,
      "start": 80.3485,
      "duration": 0.3525,
      "velocity": 99,
      "chip": "ym2612"
    },
    {
      "channel": 4,
      "note": 85,
      "start": 80.4413,
      "duration": 1.4579,
      "velocity": 99,
      "chip": "ym2612"
    },
    {
      "channel": 1,
      "note": 76,
      "start": 80.7166,
      "duration": 0.3529,
      "velocity": 99,
      "chip": "ym2612"
    },
    {
      "channel": 1,
      "note": 69,
      "start": 81.085,
      "duration": 0.3529,
      "velocity": 99,
      "chip": "ym2612"
    },
    {
      "channel": 3,
      "note": 52,
      "start": 81.0859,
      "duration": 1.4577,
      "velocity": 82,
      "chip": "ym2612"
    },
    {
      "channel": 1,
      "note": 78,
      "start": 81.4534,
      "duration": 0.3529,
      "velocity": 99,
      "chip": "ym2612"
    },
    {
      "channel": 0,
      "note": 90,
      "start": 81.8214,
      "duration": 0.7212,
      "velocity": 99,
      "chip": "ym2612"
    },
    {
      "channel": 1,
      "note": 73,
      "start": 81.822,
      "duration": 0.3526,
      "velocity": 99,
      "chip": "ym2612"
    },
    {
      "channel": 4,
      "note": 85,
      "start": 81.9148,
      "duration": 0.721,
      "velocity": 99,
      "chip": "ym2612"
    },
    {
      "channel": 1,
      "note": 69,
      "start": 82.1901,
      "duration": 0.3529,
      "velocity": 99,
      "chip": "ym2612"
    },
    {
      "channel": 0,
      "note": 81,
      "start": 82.5582,
      "duration": 0.1686,
      "velocity": 99,
      "chip": "ym2612"
    },
    {
      "channel": 3,
      "note": 51,
      "start": 82.5599,
      "duration": 0.1983,
      "velocity": 82,
      "chip": "ym2612"
    },
    {
      "channel": 4,
      "note": 90,
      "start": 82.6514,
      "duration": 0.1686,
      "velocity": 99,
      "chip": "ym2612"
    },
    {
      "channel": 0,
      "note": 80,
      "start": 82.7424,
      "duration": 0.1686,
      "velocity": 99,
      "chip": "ym2612"
    },
    {
      "channel": 4,
      "note": 81,
      "start": 82.8356,
      "duration": 0.1686,
      "velocity": 99,
      "chip": "ym2612"
    },
    {
      "channel": 0,
      "note": 81,
      "start": 82.9266,
      "duration": 0.1686,
      "velocity": 99,
      "chip": "ym2612"
    },
    {
      "channel": 1,
      "note": 66,
      "start": 82.9289,
      "duration": 0.1666,
      "velocity": 104,
      "chip": "ym2612"
    },
    {
      "channel": 3,
      "note": 52,
      "start": 82.9298,
      "duration": 0.1968,
      "velocity": 82,
      "chip": "ym2612"
    },
    {
      "channel": 4,
      "note": 80,
      "start": 83.0198,
      "duration": 0.1686,
      "velocity": 99,
      "chip": "ym2612"
    },
    {
      "channel": 0,
      "note": 86,
      "start": 83.1107,
      "duration": 0.1686,
      "velocity": 99,
      "chip": "ym2612"
    },
    {
      "channel": 4,
      "note": 81,
      "start": 83.204,
      "duration": 0.1686,
      "velocity": 99,
      "chip": "ym2612"
    },
    {
      "channel": 0,
      "note": 78,
      "start": 83.295,
      "duration": 1.0896,
      "velocity": 99,
      "chip": "ym2612"
    },
    {
      "channel": 1,
      "note": 71,
      "start": 83.2955,
      "duration": 0.5367,
      "velocity": 104,
      "chip": "ym2612"
    },
    {
      "channel": 4,
      "note": 86,
      "start": 83.3882,
      "duration": 1.0895,
      "velocity": 99,
      "chip": "ym2612"
    },
    {
      "channel": 3,
      "note": 52,
      "start": 83.6642,
      "duration": 0.1992,
      "velocity": 82,
      "chip": "ym2612"
    },
    {
      "channel": 1,
      "note": 69,
      "start": 83.8478,
      "duration": 0.1686,
      "velocity": 104,
      "chip": "ym2612"
    },
    {
      "channel": 1,
      "note": 74,
      "start": 84.032,
      "duration": 1.4579,
      "velocity": 104,
      "chip": "ym2612"
    },
    {
      "channel": 3,
      "note": 52,
      "start": 84.033,
      "duration": 0.1988,
      "velocity": 82,
      "chip": "ym2612"
    },
    {
      "channel": 0,
      "note": 80,
      "start": 84.4001,
      "duration": 0.1686,
      "velocity": 99,
      "chip": "ym2612"
    },
    {
      "channel": 3,
      "note": 52,
      "start": 84.4013,
      "duration": 0.199,
      "velocity": 82,
      "chip": "ym2612"
    },
    {
      "channel": 4,
      "note": 78,
      "start": 84.4933,
      "duration": 0.1686,
      "velocity": 99,
      "chip": "ym2612"
    },
    {
      "channel": 0,
      "note": 81,
      "start": 84.5842,
      "duration": 0.1686,
      "velocity": 99,
      "chip": "ym2612"
    },
    {
      "channel": 4,
      "note": 80,
      "start": 84.6775,
      "duration": 0.1686,
      "velocity": 99,
      "chip": "ym2612"
    },
    {
      "channel": 0,
      "note": 85,
      "start": 84.7684,
      "duration": 0.537,
      "velocity": 99,
      "chip": "ym2612"
    },
    {
      "channel": 4,
      "note": 81,
      "start": 84.8617,
      "duration": 0.537,
      "velocity": 99,
      "chip": "ym2612"
    },
    {
      "channel": 3,
      "note": 52,
      "start": 85.1377,
      "duration": 0.1993,
      "velocity": 82,
      "chip": "ym2612"
    },
    {
      "channel": 0,
      "note": 83,
      "start": 85.321,
      "duration": 0.1686,
      "velocity": 99,
      "chip": "ym2612"
    },
    {
      "channel": 4,
      "note": 85,
      "start": 85.4142,
      "duration": 0.1685,
      "velocity": 99,
      "chip": "ym2612"
    },
    {
      "channel": 0,
      "note": 88,
      "start": 85.5051,
      "duration": 1.458,
      "velocity": 99,
      "chip": "ym2612"
    },
    {
      "channel": 3,
      "note": 52,
      "start": 85.5068,
      "duration": 0.1984,
      "velocity": 82,
      "chip": "ym2612"
    },
    {
      "channel": 4,
      "note": 83,
      "start": 85.5983,
      "duration": 1.4579,
      "velocity": 99,
      "chip": "ym2612"
    },
    {
      "channel": 1,
      "note": 68,
      "start": 85.8738,
      "duration": 0.1686,
      "velocity": 104,
      "chip": "ym2612"
    },
    {
      "channel": 3,
      "note": 52,
      "start": 85.8747,
      "duration": 0.199,
      "velocity": 82,
      "chip": "ym2612"
    },
    {
      "channel": 1,
      "note": 73,
      "start": 86.2422,
      "duration": 0.5371,
      "velocity": 104,
      "chip": "ym2612"
    },
    {
      "channel": 3,
      "note": 52,
      "start": 86.6112,
      "duration": 0.1993,
      "velocity": 82,
      "chip": "ym2612"
    },
    {
      "channel": 1,
      "note": 71,
      "start": 86.7947,
      "duration": 0.1687,
      "velocity": 104,
      "chip": "ym2612"
    },
    {
      "channel": 1,
      "note": 76,
      "start": 86.9791,
      "duration": 1.4578,
      "velocity": 104,
      "chip": "ym2612"
    },
    {
      "channel": 3,
      "note": 52,
      "start": 86.9801,
      "duration": 0.7206,
      "velocity": 82,
      "chip": "ym2612"
    },
    {
      "channel": 2,
      "note": 71,
      "start": 87.3492,
      "duration": 0.3512,
      "velocity": 99,
      "chip": "ym2612"
    },
    {
      "channel": 2,
      "note": 69,
      "start": 87.7159,
      "duration": 0.3529,
      "velocity": 99,
      "chip": "ym2612"
    },
    {
      "channel": 3,
      "note": 64,
      "start": 87.7165,
      "duration": 0.721,
      "velocity": 82,
      "chip": "ym2612"
    },
    {
      "channel": 2,
      "note": 68,
      "start": 88.0843,
      "duration": 0.3529,
      "velocity": 99,
      "chip": "ym2612"
    },
    {
      "channel": 0,
      "note": 76,
      "start": 88.4538,
      "duration": 0.7195,
      "velocity": 98,
      "chip": "ym2612"
    },
    {
      "channel": 3,
      "note": 52,
      "start": 88.4553,
      "duration": 0.1969,
      "velocity": 82,
      "chip": "ym2612"
    },
    {
      "channel": 4,
      "note": 88,
      "start": 88.548,
      "duration": 0.7186,
      "velocity": 98,
      "chip": "ym2612"
    },
    {
      "channel": 3,
      "note": 57,
      "start": 88.8214,
      "duration": 0.1993,
      "velocity": 82,
      "chip": "ym2612"
    },
    {
      "channel": 0,
      "note": 81,
      "start": 89.1889,
      "duration": 1.0896,
      "velocity": 98,
      "chip": "ym2612"
    },
    {
      "channel": 1,
      "note": 73,
      "start": 89.1894,
      "duration": 0.7209,
      "velocity": 104,
      "chip": "ym2612"
    },
    {
      "channel": 4,
      "note": 76,
      "start": 89.2821,
      "duration": 1.0896,
      "velocity": 98,
      "chip": "ym2612"
    },
    {
      "channel": 3,
      "note": 57,
      "start": 89.5581,
      "duration": 0.1992,
      "velocity": 82,
      "chip": "ym2612"
    },
    {
      "channel": 1,
      "note": 74,
      "start": 89.9258,
      "duration": 0.537,
      "velocity": 104,
      "chip": "ym2612"
    },
    {
      "channel": 3,
      "note": 52,
      "start": 89.9267,
      "duration": 0.199,
      "velocity": 82,
      "chip": "ym2612"
    },
    {
      "channel": 0,
      "note": 80,
      "start": 90.2939,
      "duration": 0.1686,
      "velocity": 98,
      "chip": "ym2612"
    },
    {
      "channel": 3,
      "note": 59,
      "start": 90.2951,
      "duration": 0.199,
      "velocity": 82,
      "chip": "ym2612"
    },
    {
      "channel": 4,
      "note": 81,
      "start": 90.3872,
      "duration": 0.1686,
      "velocity": 98,
      "chip": "ym2612"
    },
    {
      "channel": 0,
      "note": 78,
      "start": 90.4782,
      "duration": 0.1686,
      "velocity": 98,
      "chip": "ym2612"
    },
    {
      "channel": 1,
      "note": 73,
      "start": 90.4787,
      "duration": 0.1683,
      "velocity": 104,
      "chip": "ym2612"
    },
    {
      "channel": 4,
      "note": 80,
      "start": 90.5714,
      "duration": 0.1686,
      "velocity": 98,
      "chip": "ym2612"
    },
    {
      "channel": 0,
      "note": 80,
      "start": 90.6624,
      "duration": 0.1686,
      "velocity": 98,
      "chip": "ym2612"
    },
    {
      "channel": 1,
      "note": 71,
      "start": 90.663,
      "duration": 0.1683,
      "velocity": 104,
      "chip": "ym2612"
    },
    {
      "channel": 4,
      "note": 78,
      "start": 90.7555,
      "duration": 0.1686,
      "velocity": 98,
      "chip": "ym2612"
    },
    {
      "channel": 0,
      "note": 81,
      "start": 90.8465,
      "duration": 0.1686,
      "velocity": 98,
      "chip": "ym2612"
    },
    {
      "channel": 4,
      "note": 80,
      "start": 90.9397,
      "duration": 0.1687,
      "velocity": 98,
      "chip": "ym2612"
    },
    {
      "channel": 0,
      "note": 83,
      "start": 91.0307,
      "duration": 0.1686,
      "velocity": 98,
      "chip": "ym2612"
    },
    {
      "channel": 1,
      "note": 68,
      "start": 91.0312,
      "duration": 0.1684,
      "velocity": 104,
      "chip": "ym2612"
    },
    {
      "channel": 3,
      "note": 59,
      "start": 91.0321,
      "duration": 0.1987,
      "velocity": 82,
      "chip": "ym2612"
    },
    {
      "channel": 4,
      "note": 81,
      "start": 91.1239,
      "duration": 0.1686,
      "velocity": 98,
      "chip": "ym2612"
    },
    {
      "channel": 0,
      "note": 76,
      "start": 91.399,
      "duration": 0.7212,
      "velocity": 98,
      "chip": "ym2612"
    },
    {
      "channel": 3,
      "note": 52,
      "start": 91.4004,
      "duration": 0.1987,
      "velocity": 82,
      "chip": "ym2612"
    },
    {
      "channel": 4,
      "note": 83,
      "start": 91.4922,
      "duration": 0.7213,
      "velocity": 98,
      "chip": "ym2612"
    },
    {
      "channel": 3,
      "note": 61,
      "start": 91.7683,
      "duration": 0.1993,
      "velocity": 82,
      "chip": "ym2612"
    },
    {
      "channel": 0,
      "note": 85,
      "start": 92.1358,
      "duration": 1.0896,
      "velocity": 98,
      "chip": "ym2612"
    },
    {
      "channel": 1,
      "note": 76,
      "start": 92.1363,
      "duration": 0.7209,
      "velocity": 104,
      "chip": "ym2612"
    },
    {
      "channel": 4,
      "note": 76,
      "start": 92.2291,
      "duration": 1.0895,
      "velocity": 98,
      "chip": "ym2612"
    },
    {
      "channel": 3,
      "note": 61,
      "start": 92.505,
      "duration": 0.1993,
      "velocity": 82,
      "chip": "ym2612"
    },
    {
      "channel": 1,
      "note": 78,
      "start": 92.8728,
      "duration": 0.5372,
      "velocity": 104,
      "chip": "ym2612"
    },
    {
      "channel": 3,
      "note": 52,
      "start": 92.8737,
      "duration": 0.199,
      "velocity": 82,
      "chip": "ym2612"
    },
    {
      "channel": 0,
      "note": 83,
      "start": 93.2409,
      "duration": 0.1688,
      "velocity": 98,
      "chip": "ym2612"
    },
    {
      "channel": 3,
      "note": 62,
      "start": 93.242,
      "duration": 0.199,
      "velocity": 82,
      "chip": "ym2612"
    },
    {
      "channel": 4,
      "note": 85,
      "start": 93.3341,
      "duration": 0.1686,
      "velocity": 98,
      "chip": "ym2612"
    },
    {
      "channel": 0,
      "note": 82,
      "start": 93.4251,
      "duration": 0.1686,
      "velocity": 98,
      "chip": "ym2612"
    },
    {
      "channel": 1,
      "note": 76,
      "start": 93.4256,
      "duration": 0.1683,
      "velocity": 104,
      "chip": "ym2612"
    },
    {
      "channel": 4,
      "note": 83,
      "start": 93.5183,
      "duration": 0.1686,
      "velocity": 98,
      "chip": "ym2612"
    },
    {
      "channel": 0,
      "note": 83,
      "start": 93.6093,
      "duration": 0.1686,
      "velocity": 98,
      "chip": "ym2612"
    },
    {
      "channel": 1,
      "note": 74,
      "start": 93.6098,
      "duration": 0.1684,
      "velocity": 104,
      "chip": "ym2612"
    },
    {
      "channel": 4,
      "note": 82,
      "start": 93.7025,
      "duration": 0.1686,
      "velocity": 98,
      "chip": "ym2612"
    },
    {
      "channel": 0,
      "note": 85,
      "start": 93.7934,
      "duration": 0.1686,
      "velocity": 98,
      "chip": "ym2612"
    },
    {
      "channel": 4,
      "note": 83,
      "start": 93.8866,
      "duration": 0.1687,
      "velocity": 98,
      "chip": "ym2612"
    },
    {
      "channel": 0,
      "note": 86,
      "start": 93.9777,
      "duration": 0.1686,
      "velocity": 98,
      "chip": "ym2612"
    },
    {
      "channel": 1,
      "note": 78,
      "start": 93.9782,
      "duration": 0.1684,
      "velocity": 104,
      "chip": "ym2612"
    },
    {
      "channel": 3,
      "note": 62,
      "start": 93.9792,
      "duration": 0.1985,
      "velocity": 82,
      "chip": "ym2612"
    },
    {
      "channel": 4,
      "note": 85,
      "start": 94.0709,
      "duration": 0.1686,
      "velocity": 98,
      "chip": "ym2612"
    },
    {
      "channel": 0,
      "note": 76,
      "start": 94.348,
      "duration": 0.0015,
      "velocity": 83,
      "chip": "ym2612"
    }
  ]
}