{
  "track_name": "11 - Stage 7",
  "duration_sec": 84.514,
  "sample_rate": 44100,
  "note_count": 1727,
  "unique_pitches": 30,
  "pitch_range": 57,
  "avg_note_duration": 0.1754,
  "reconstruction_stats": {
    "notes_reconstructed": 1727,
    "keyon_events": 1727,
    "keyoff_events": 1413,
    "orphan_keyons": 3,
    "unique_pitches": 30,
    "pitch_range": 57,
    "avg_duration_sec": 0.1754
  },
  "metadata": {
    "source": "F\\Fire Mustang\\11 - Stage 7.vgz"
  },
  "notes": [
    {
      "channel": 4,
      "note": 65,
      "start": 0.0506,
      "duration": 0.0487,
      "velocity": 120,
      "chip": "ym2612"
    },
    {
      "channel": 2,
      "note": 62,
      "start": 0.0673,
      "duration": 0.2746,
      "velocity": 100,
      "chip": "ym2612"
    },
    {
      "channel": 4,
      "note": 53,
      "start": 0.0993,
      "duration": 0.0099,
      "velocity": 120,
      "chip": "ym2612"
    },
    {
      "channel": 5,
      "note": 77,
      "start": 0.2169,
      "duration": 0.276,
      "velocity": 118,
      "chip": "ym2612"
    },
    {
      "channel": 4,
      "note": 65,
      "start": 0.3498,
      "duration": 0.0495,
      "velocity": 120,
      "chip": "ym2612"
    },
    {
      "channel": 2,
      "note": 74,
      "start": 0.3661,
      "duration": 0.2757,
      "velocity": 100,
      "chip": "ym2612"
    },
    {
      "channel": 4,
      "note": 53,
      "start": 0.3993,
      "duration": 0.0099,
      "velocity": 120,
      "chip": "ym2612"
    },
    {
      "channel": 5,
      "note": 77,
      "start": 0.516,
      "duration": 0.2936,
      "velocity": 118,
      "chip": "ym2612"
    },
    {
      "channel": 4,
      "note": 65,
      "start": 0.6498,
      "duration": 0.0494,
      "velocity": 120,
      "chip": "ym2612"
    },
    {
      "channel": 2,
      "note": 62,
      "start": 0.6661,
      "duration": 0.2758,
      "velocity": 100,
      "chip": "ym2612"
    },
    {
      "channel": 4,
      "note": 53,
      "start": 0.6992,
      "duration": 0.01,
      "velocity": 120,
      "chip": "ym2612"
    },
    {
      "channel": 5,
      "note": 77,
      "start": 0.816,
      "duration": 0.2936,
      "velocity": 118,
      "chip": "ym2612"
    },
    {
      "channel": 4,
      "note": 65,
      "start": 0.9498,
      "duration": 0.0494,
      "velocity": 120,
      "chip": "ym2612"
    },
    {
      "channel": 2,
      "note": 74,
      "start": 0.9661,
      "duration": 0.2758,
      "velocity": 100,
      "chip": "ym2612"
    },
    {
      "channel": 4,
      "note": 53,
      "start": 0.9992,
      "duration": 0.01,
      "velocity": 120,
      "chip": "ym2612"
    },
    {
      "channel": 5,
      "note": 77,
      "start": 1.116,
      "duration": 0.2936,
      "velocity": 118,
      "chip": "ym2612"
    },
    {
      "channel": 4,
      "note": 65,
      "start": 1.2498,
      "duration": 0.0494,
      "velocity": 120,
      "chip": "ym2612"
    },
    {
      "channel": 2,
      "note": 62,
      "start": 1.2661,
      "duration": 0.2758,
      "velocity": 100,
      "chip": "ym2612"
    },
    {
      "channel": 4,
      "note": 53,
      "start": 1.2992,
      "duration": 0.01,
      "velocity": 120,
      "chip": "ym2612"
    },
    {
      "channel": 5,
      "note": 77,
      "start": 1.416,
      "duration": 0.277,
      "velocity": 118,
      "chip": "ym2612"
    },
    {
      "channel": 4,
      "note": 82,
      "start": 1.5498,
      "duration": 0.0494,
      "velocity": 126,
      "chip": "ym2612"
    },
    {
      "channel": 2,
      "note": 74,
      "start": 1.5663,
      "duration": 0.2759,
      "velocity": 100,
      "chip": "ym2612"
    },
    {
      "channel": 4,
      "note": 74,
      "start": 1.5992,
      "duration": 0.01,
      "velocity": 126,
      "chip": "ym2612"
    },
    {
      "channel": 5,
      "note": 77,
      "start": 1.7163,
      "duration": 0.2932,
      "velocity": 118,
      "chip": "ym2612"
    },
    {
      "channel": 4,
      "note": 65,
      "start": 1.8502,
      "duration": 0.049,
      "velocity": 120,
      "chip": "ym2612"
    },
    {
      "channel": 2,
      "note": 62,
      "start": 1.8663,
      "duration": 0.276,
      "velocity": 100,
      "chip": "ym2612"
    },
    {
      "channel": 4,
      "note": 53,
      "start": 1.8992,
      "duration": 0.01,
      "velocity": 120,
      "chip": "ym2612"
    },
    {
      "channel": 5,
      "note": 77,
      "start": 2.016,
      "duration": 0.1286,
      "velocity": 118,
      "chip": "ym2612"
    },
    {
      "channel": 4,
      "note": 65,
      "start": 2.1507,
      "duration": 0.0485,
      "velocity": 120,
      "chip": "ym2612"
    },
    {
      "channel": 2,
      "note": 74,
      "start": 2.1671,
      "duration": 0.2747,
      "velocity": 100,
      "chip": "ym2612"
    },
    {
      "channel": 4,
      "note": 53,
      "start": 2.1992,
      "duration": 0.01,
      "velocity": 120,
      "chip": "ym2612"
    },
    {
      "channel": 5,
      "note": 77,
      "start": 2.3169,
      "duration": 0.276,
      "velocity": 118,
      "chip": "ym2612"
    },
    {
      "channel": 4,
      "note": 65,
      "start": 2.4498,
      "duration": 0.0494,
      "velocity": 120,
      "chip": "ym2612"
    },
    {
      "channel": 2,
      "note": 62,
      "start": 2.4661,
      "duration": 0.2751,
      "velocity": 100,
      "chip": "ym2612"
    },
    {
      "channel": 4,
      "note": 53,
      "start": 2.4992,
      "duration": 0.01,
      "velocity": 120,
      "chip": "ym2612"
    },
    {
      "channel": 5,
      "note": 77,
      "start": 2.6153,
      "duration": 0.2936,
      "velocity": 118,
      "chip": "ym2612"
    },
    {
      "channel": 4,
      "note": 65,
      "start": 2.7491,
      "duration": 0.0494,
      "velocity": 120,
      "chip": "ym2612"
    },
    {
      "channel": 2,
      "note": 74,
      "start": 2.7654,
      "duration": 0.2758,
      "velocity": 100,
      "chip": "ym2612"
    },
    {
      "channel": 4,
      "note": 53,
      "start": 2.7985,
      "duration": 0.01,
      "velocity": 120,
      "chip": "ym2612"
    },
    {
      "channel": 5,
      "note": 77,
      "start": 2.9153,
      "duration": 0.2936,
      "velocity": 118,
      "chip": "ym2612"
    },
    {
      "channel": 4,
      "note": 65,
      "start": 3.0491,
      "duration": 0.0494,
      "velocity": 120,
      "chip": "ym2612"
    },
    {
      "channel": 2,
      "note": 62,
      "start": 3.0654,
      "duration": 0.2758,
      "velocity": 100,
      "chip": "ym2612"
    },
    {
      "channel": 4,
      "note": 53,
      "start": 3.0985,
      "duration": 0.01,
      "velocity": 120,
      "chip": "ym2612"
    },
    {
      "channel": 5,
      "note": 77,
      "start": 3.2153,
      "duration": 0.2936,
      "velocity": 118,
      "chip": "ym2612"
    },
    {
      "channel": 4,
      "note": 65,
      "start": 3.3491,
      "duration": 0.0494,
      "velocity": 120,
      "chip": "ym2612"
    },
    {
      "channel": 2,
      "note": 74,
      "start": 3.3654,
      "duration": 0.2758,
      "velocity": 100,
      "chip": "ym2612"
    },
    {
      "channel": 4,
      "note": 53,
      "start": 3.3985,
      "duration": 0.01,
      "velocity": 120,
      "chip": "ym2612"
    },
    {
      "channel": 5,
      "note": 77,
      "start": 3.5153,
      "duration": 0.277,
      "velocity": 118,
      "chip": "ym2612"
    },
    {
      "channel": 4,
      "note": 82,
      "start": 3.6491,
      "duration": 0.0494,
      "velocity": 126,
      "chip": "ym2612"
    },
    {
      "channel": 2,
      "note": 60,
      "start": 3.6656,
      "duration": 0.2759,
      "velocity": 100,
      "chip": "ym2612"
    },
    {
      "channel": 4,
      "note": 74,
      "start": 3.6985,
      "duration": 0.01,
      "velocity": 126,
      "chip": "ym2612"
    },
    {
      "channel": 5,
      "note": 77,
      "start": 3.8156,
      "duration": 0.2932,
      "velocity": 118,
      "chip": "ym2612"
    },
    {
      "channel": 4,
      "note": 65,
      "start": 3.9496,
      "duration": 0.0489,
      "velocity": 120,
      "chip": "ym2612"
    },
    {
      "channel": 2,
      "note": 72,
      "start": 3.9656,
      "duration": 0.276,
      "velocity": 100,
      "chip": "ym2612"
    },
    {
      "channel": 4,
      "note": 53,
      "start": 3.9985,
      "duration": 0.01,
      "velocity": 120,
      "chip": "ym2612"
    },
    {
      "channel": 5,
      "note": 77,
      "start": 4.1153,
      "duration": 0.1285,
      "velocity": 118,
      "chip": "ym2612"
    },
    {
      "channel": 4,
      "note": 65,
      "start": 4.25,
      "duration": 0.0485,
      "velocity": 120,
      "chip": "ym2612"
    },
    {
      "channel": 2,
      "note": 62,
      "start": 4.2665,
      "duration": 0.2746,
      "velocity": 100,
      "chip": "ym2612"
    },
    {
      "channel": 4,
      "note": 53,
      "start": 4.2985,
      "duration": 0.01,
      "velocity": 120,
      "chip": "ym2612"
    },
    {
      "channel": 5,
      "note": 77,
      "start": 4.4162,
      "duration": 0.276,
      "velocity": 118,
      "chip": "ym2612"
    },
    {
      "channel": 4,
      "note": 65,
      "start": 4.5491,
      "duration": 0.0494,
      "velocity": 120,
      "chip": "ym2612"
    },
    {
      "channel": 2,
      "note": 74,
      "start": 4.5654,
      "duration": 0.2758,
      "velocity": 100,
      "chip": "ym2612"
    },
    {
      "channel": 4,
      "note": 53,
      "start": 4.5985,
      "duration": 0.01,
      "velocity": 120,
      "chip": "ym2612"
    },
    {
      "channel": 5,
      "note": 77,
      "start": 4.7153,
      "duration": 0.2936,
      "velocity": 118,
      "chip": "ym2612"
    },
    {
      "channel": 4,
      "note": 65,
      "start": 4.8491,
      "duration": 0.0494,
      "velocity": 120,
      "chip": "ym2612"
    },
    {
      "channel": 2,
      "note": 62,
      "start": 4.8654,
      "duration": 0.2758,
      "velocity": 100,
      "chip": "ym2612"
    },
    {
      "channel": 4,
      "note": 53,
      "start": 4.8985,
      "duration": 0.01,
      "velocity": 120,
      "chip": "ym2612"
    },
    {
      "channel": 5,
      "note": 77,
      "start": 5.0153,
      "duration": 0.2936,
      "velocity": 118,
      "chip": "ym2612"
    },
    {
      "channel": 4,
      "note": 65,
      "start": 5.1491,
      "duration": 0.0494,
      "velocity": 120,
      "chip": "ym2612"
    },
    {
      "channel": 2,
      "note": 74,
      "start": 5.1654,
      "duration": 0.2758,
      "velocity": 100,
      "chip": "ym2612"
    },
    {
      "channel": 4,
      "note": 53,
      "start": 5.1985,
      "duration": 0.01,
      "velocity": 120,
      "chip": "ym2612"
    },
    {
      "channel": 5,
      "note": 77,
      "start": 5.3153,
      "duration": 0.2936,
      "velocity": 118,
      "chip": "ym2612"
    },
    {
      "channel": 4,
      "note": 65,
      "start": 5.4491,
      "duration": 0.0494,
      "velocity": 120,
      "chip": "ym2612"
    },
    {
      "channel": 2,
      "note": 62,
      "start": 5.4654,
      "duration": 0.2758,
      "velocity": 100,
      "chip": "ym2612"
    },
    {
      "channel": 4,
      "note": 53,
      "start": 5.4985,
      "duration": 0.01,
      "velocity": 120,
      "chip": "ym2612"
    },
    {
      "channel": 5,
      "note": 77,
      "start": 5.6153,
      "duration": 0.277,
      "velocity": 118,
      "chip": "ym2612"
    },
    {
      "channel": 4,
      "note": 82,
      "start": 5.7491,
      "duration": 0.0494,
      "velocity": 126,
      "chip": "ym2612"
    },
    {
      "channel": 2,
      "note": 74,
      "start": 5.7656,
      "duration": 0.2759,
      "velocity": 100,
      "chip": "ym2612"
    },
    {
      "channel": 4,
      "note": 74,
      "start": 5.7985,
      "duration": 0.01,
      "velocity": 126,
      "chip": "ym2612"
    },
    {
      "channel": 5,
      "note": 77,
      "start": 5.9156,
      "duration": 0.2932,
      "velocity": 118,
      "chip": "ym2612"
    },
    {
      "channel": 4,
      "note": 65,
      "start": 6.0496,
      "duration": 0.0489,
      "velocity": 120,
      "chip": "ym2612"
    },
    {
      "channel": 2,
      "note": 62,
      "start": 6.0656,
      "duration": 0.276,
      "velocity": 100,
      "chip": "ym2612"
    },
    {
      "channel": 4,
      "note": 53,
      "start": 6.0985,
      "duration": 0.01,
      "velocity": 120,
      "chip": "ym2612"
    },
    {
      "channel": 5,
      "note": 77,
      "start": 6.2153,
      "duration": 0.1285,
      "velocity": 118,
      "chip": "ym2612"
    },
    {
      "channel": 4,
      "note": 65,
      "start": 6.35,
      "duration": 0.0485,
      "velocity": 120,
      "chip": "ym2612"
    },
    {
      "channel": 2,
      "note": 74,
      "start": 6.3664,
      "duration": 0.2747,
      "velocity": 100,
      "chip": "ym2612"
    },
    {
      "channel": 4,
      "note": 53,
      "start": 6.3985,
      "duration": 0.01,
      "velocity": 120,
      "chip": "ym2612"
    },
    {
      "channel": 5,
      "note": 77,
      "start": 6.5162,
      "duration": 0.276,
      "velocity": 118,
      "chip": "ym2612"
    },
    {
      "channel": 4,
      "note": 65,
      "start": 6.6491,
      "duration": 0.0494,
      "velocity": 120,
      "chip": "ym2612"
    },
    {
      "channel": 2,
      "note": 62,
      "start": 6.6654,
      "duration": 0.2758,
      "velocity": 100,
      "chip": "ym2612"
    },
    {
      "channel": 4,
      "note": 53,
      "start": 6.6985,
      "duration": 0.01,
      "velocity": 120,
      "chip": "ym2612"
    },
    {
      "channel": 5,
      "note": 77,
      "start": 6.8153,
      "duration": 0.2936,
      "velocity": 118,
      "chip": "ym2612"
    },
    {
      "channel": 4,
      "note": 65,
      "start": 6.9491,
      "duration": 0.0494,
      "velocity": 120,
      "chip": "ym2612"
    },
    {
      "channel": 2,
      "note": 74,
      "start": 6.9654,
      "duration": 0.2758,
      "velocity": 100,
      "chip": "ym2612"
    },
    {
      "channel": 4,
      "note": 53,
      "start": 6.9985,
      "duration": 0.01,
      "velocity": 120,
      "chip": "ym2612"
    },
    {
      "channel": 5,
      "note": 77,
      "start": 7.1153,
      "duration": 0.2936,
      "velocity": 118,
      "chip": "ym2612"
    },
    {
      "channel": 4,
      "note": 65,
      "start": 7.2491,
      "duration": 0.0494,
      "velocity": 120,
      "chip": "ym2612"
    },
    {
      "channel": 2,
      "note": 62,
      "start": 7.2654,
      "duration": 0.2758,
      "velocity": 100,
      "chip": "ym2612"
    },
    {
      "channel": 4,
      "note": 53,
      "start": 7.2985,
      "duration": 0.01,
      "velocity": 120,
      "chip": "ym2612"
    },
    {
      "channel": 5,
      "note": 77,
      "start": 7.4153,
      "duration": 0.2936,
      "velocity": 118,
      "chip": "ym2612"
    },
    {
      "channel": 4,
      "note": 65,
      "start": 7.5491,
      "duration": 0.0494,
      "velocity": 120,
      "chip": "ym2612"
    },
    {
      "channel": 2,
      "note": 74,
      "start": 7.5654,
      "duration": 0.2758,
      "velocity": 100,
      "chip": "ym2612"
    },
    {
      "channel": 4,
      "note": 53,
      "start": 7.5985,
      "duration": 0.01,
      "velocity": 120,
      "chip": "ym2612"
    },
    {
      "channel": 5,
      "note": 77,
      "start": 7.7153,
      "duration": 0.277,
      "velocity": 118,
      "chip": "ym2612"
    },
    {
      "channel": 4,
      "note": 82,
      "start": 7.8491,
      "duration": 0.0494,
      "velocity": 126,
      "chip": "ym2612"
    },
    {
      "channel": 2,
      "note": 60,
      "start": 7.8656,
      "duration": 0.2759,
      "velocity": 100,
      "chip": "ym2612"
    },
    {
      "channel": 4,
      "note": 74,
      "start": 7.8985,
      "duration": 0.01,
      "velocity": 126,
      "chip": "ym2612"
    },
    {
      "channel": 5,
      "note": 77,
      "start": 8.0156,
      "duration": 0.2932,
      "velocity": 118,
      "chip": "ym2612"
    },
    {
      "channel": 4,
      "note": 65,
      "start": 8.1496,
      "duration": 0.0489,
      "velocity": 120,
      "chip": "ym2612"
    },
    {
      "channel": 2,
      "note": 72,
      "start": 8.1656,
      "duration": 0.2763,
      "velocity": 100,
      "chip": "ym2612"
    },
    {
      "channel": 4,
      "note": 53,
      "start": 8.1985,
      "duration": 0.01,
      "velocity": 120,
      "chip": "ym2612"
    },
    {
      "channel": 5,
      "note": 77,
      "start": 8.3153,
      "duration": 0.1289,
      "velocity": 118,
      "chip": "ym2612"
    },
    {
      "channel": 0,
      "note": 81,
      "start": 8.4527,
      "duration": 2.3992,
      "velocity": 120,
      "chip": "ym2612"
    },
    {
      "channel": 4,
      "note": 65,
      "start": 8.4529,
      "duration": 0.0457,
      "velocity": 120,
      "chip": "ym2612"
    },
    {
      "channel": 2,
      "note": 62,
      "start": 8.4665,
      "duration": 0.2746,
      "velocity": 100,
      "chip": "ym2612"
    },
    {
      "channel": 1,
      "note": 74,
      "start": 8.4856,
      "duration": 2.3969,
      "velocity": 120,
      "chip": "ym2612"
    },
    {
      "channel": 3,
      "note": 74,
      "start": 8.4858,
      "duration": 2.2223,
      "velocity": 110,
      "chip": "ym2612"
    },
    {
      "channel": 4,
      "note": 53,
      "start": 8.4985,
      "duration": 0.01,
      "velocity": 120,
      "chip": "ym2612"
    },
    {
      "channel": 5,
      "note": 77,
      "start": 8.6162,
      "duration": 0.276,
      "velocity": 118,
      "chip": "ym2612"
    },
    {
      "channel": 4,
      "note": 65,
      "start": 8.7491,
      "duration": 0.0494,
      "velocity": 120,
      "chip": "ym2612"
    },
    {
      "channel": 2,
      "note": 74,
      "start": 8.7654,
      "duration": 0.2758,
      "velocity": 100,
      "chip": "ym2612"
    },
    {
      "channel": 4,
      "note": 53,
      "start": 8.7985,
      "duration": 0.01,
      "velocity": 120,
      "chip": "ym2612"
    },
    {
      "channel": 5,
      "note": 77,
      "start": 8.9153,
      "duration": 0.2936,
      "velocity": 118,
      "chip": "ym2612"
    },
    {
      "channel": 4,
      "note": 65,
      "start": 9.0491,
      "duration": 0.0494,
      "velocity": 120,
      "chip": "ym2612"
    },
    {
      "channel": 2,
      "note": 62,
      "start": 9.0654,
      "duration": 0.2758,
      "velocity": 100,
      "chip": "ym2612"
    },
    {
      "channel": 4,
      "note": 53,
      "start": 9.0985,
      "duration": 0.01,
      "velocity": 120,
      "chip": "ym2612"
    },
    {
      "channel": 5,
      "note": 77,
      "start": 9.2153,
      "duration": 0.2936,
      "velocity": 118,
      "chip": "ym2612"
    },
    {
      "channel": 4,
      "note": 65,
      "start": 9.3491,
      "duration": 0.0494,
      "velocity": 120,
      "chip": "ym2612"
    },
    {
      "channel": 2,
      "note": 74,
      "start": 9.3654,
      "duration": 0.2758,
      "velocity": 100,
      "chip": "ym2612"
    },
    {
      "channel": 4,
      "note": 53,
      "start": 9.3985,
      "duration": 0.01,
      "velocity": 120,
      "chip": "ym2612"
    },
    {
      "channel": 5,
      "note": 77,
      "start": 9.5153,
      "duration": 0.2936,
      "velocity": 118,
      "chip": "ym2612"
    },
    {
      "channel": 4,
      "note": 65,
      "start": 9.6491,
      "duration": 0.0494,
      "velocity": 120,
      "chip": "ym2612"
    },
    {
      "channel": 2,
      "note": 62,
      "start": 9.6654,
      "duration": 0.2758,
      "velocity": 100,
      "chip": "ym2612"
    },
    {
      "channel": 4,
      "note": 53,
      "start": 9.6985,
      "duration": 0.01,
      "velocity": 120,
      "chip": "ym2612"
    },
    {
      "channel": 5,
      "note": 77,
      "start": 9.8153,
      "duration": 0.2769,
      "velocity": 118,
      "chip": "ym2612"
    },
    {
      "channel": 4,
      "note": 82,
      "start": 9.9491,
      "duration": 0.0494,
      "velocity": 126,
      "chip": "ym2612"
    },
    {
      "channel": 2,
      "note": 74,
      "start": 9.9656,
      "duration": 0.2756,
      "velocity": 100,
      "chip": "ym2612"
    },
    {
      "channel": 4,
      "note": 74,
      "start": 9.9985,
      "duration": 0.01,
      "velocity": 126,
      "chip": "ym2612"
    },
    {
      "channel": 5,
      "note": 77,
      "start": 10.1153,
      "duration": 0.2936,
      "velocity": 118,
      "chip": "ym2612"
    },
    {
      "channel": 4,
      "note": 65,
      "start": 10.2491,
      "duration": 0.0494,
      "velocity": 120,
      "chip": "ym2612"
    },
    {
      "channel": 2,
      "note": 62,
      "start": 10.2654,
      "duration": 0.2758,
      "velocity": 100,
      "chip": "ym2612"
    },
    {
      "channel": 4,
      "note": 53,
      "start": 10.2985,
      "duration": 0.01,
      "velocity": 120,
      "chip": "ym2612"
    },
    {
      "channel": 5,
      "note": 77,
      "start": 10.4153,
      "duration": 0.1281,
      "velocity": 118,
      "chip": "ym2612"
    },
    {
      "channel": 4,
      "note": 65,
      "start": 10.5495,
      "duration": 0.049,
      "velocity": 120,
      "chip": "ym2612"
    },
    {
      "channel": 2,
      "note": 74,
      "start": 10.5662,
      "duration": 0.2753,
      "velocity": 100,
      "chip": "ym2612"
    },
    {
      "channel": 4,
      "note": 53,
      "start": 10.5985,
      "duration": 0.01,
      "velocity": 120,
      "chip": "ym2612"
    },
    {
      "channel": 5,
      "note": 77,
      "start": 10.7163,
      "duration": 0.2759,
      "velocity": 118,
      "chip": "ym2612"
    },
    {
      "channel": 0,
      "note": 81,
      "start": 10.8518,
      "duration": 1.622,
      "velocity": 120,
      "chip": "ym2612"
    },
    {
      "channel": 4,
      "note": 65,
      "start": 10.8521,
      "duration": 0.0464,
      "velocity": 120,
      "chip": "ym2612"
    },
    {
      "channel": 2,
      "note": 62,
      "start": 10.8654,
      "duration": 0.2757,
      "velocity": 100,
      "chip": "ym2612"
    },
    {
      "channel": 1,
      "note": 74,
      "start": 10.8825,
      "duration": 1.6251,
      "velocity": 120,
      "chip": "ym2612"
    },
    {
      "channel": 4,
      "note": 53,
      "start": 10.8985,
      "duration": 0.01,
      "velocity": 120,
      "chip": "ym2612"
    },
    {
      "channel": 5,
      "note": 77,
      "start": 11.0153,
      "duration": 0.2936,
      "velocity": 118,
      "chip": "ym2612"
    },
    {
      "channel": 4,
      "note": 65,
      "start": 11.1491,
      "duration": 0.0494,
      "velocity": 120,
      "chip": "ym2612"
    },
    {
      "channel": 2,
      "note": 74,
      "start": 11.1654,
      "duration": 0.2758,
      "velocity": 100,
      "chip": "ym2612"
    },
    {
      "channel": 4,
      "note": 53,
      "start": 11.1985,
      "duration": 0.01,
      "velocity": 120,
      "chip": "ym2612"
    },
    {
      "channel": 5,
      "note": 77,
      "start": 11.3153,
      "duration": 0.2936,
      "velocity": 118,
      "chip": "ym2612"
    },
    {
      "channel": 4,
      "note": 65,
      "start": 11.4491,
      "duration": 0.0494,
      "velocity": 120,
      "chip": "ym2612"
    },
    {
      "channel": 2,
      "note": 62,
      "start": 11.4654,
      "duration": 0.2758,
      "velocity": 100,
      "chip": "ym2612"
    },
    {
      "channel": 4,
      "note": 53,
      "start": 11.4985,
      "duration": 0.01,
      "velocity": 120,
      "chip": "ym2612"
    },
    {
      "channel": 5,
      "note": 77,
      "start": 11.6153,
      "duration": 0.2936,
      "velocity": 118,
      "chip": "ym2612"
    },
    {
      "channel": 4,
      "note": 65,
      "start": 11.7491,
      "duration": 0.0494,
      "velocity": 120,
      "chip": "ym2612"
    },
    {
      "channel": 2,
      "note": 74,
      "start": 11.7654,
      "duration": 0.2758,
      "velocity": 100,
      "chip": "ym2612"
    },
    {
      "channel": 4,
      "note": 53,
      "start": 11.7985,
      "duration": 0.01,
      "velocity": 120,
      "chip": "ym2612"
    },
    {
      "channel": 5,
      "note": 77,
      "start": 11.9153,
      "duration": 0.2769,
      "velocity": 118,
      "chip": "ym2612"
    },
    {
      "channel": 4,
      "note": 82,
      "start": 12.0492,
      "duration": 0.0494,
      "velocity": 126,
      "chip": "ym2612"
    },
    {
      "channel": 2,
      "note": 60,
      "start": 12.0656,
      "duration": 0.2755,
      "velocity": 100,
      "chip": "ym2612"
    },
    {
      "channel": 3,
      "note": 72,
      "start": 12.0822,
      "duration": 0.5428,
      "velocity": 110,
      "chip": "ym2612"
    },
    {
      "channel": 4,
      "note": 74,
      "start": 12.0985,
      "duration": 0.01,
      "velocity": 126,
      "chip": "ym2612"
    },
    {
      "channel": 5,
      "note": 77,
      "start": 12.2153,
      "duration": 0.2938,
      "velocity": 118,
      "chip": "ym2612"
    },
    {
      "channel": 4,
      "note": 65,
      "start": 12.3491,
      "duration": 0.0494,
      "velocity": 120,
      "chip": "ym2612"
    },
    {
      "channel": 2,
      "note": 72,
      "start": 12.3654,
      "duration": 0.2765,
      "velocity": 100,
      "chip": "ym2612"
    },
    {
      "channel": 4,
      "note": 53,
      "start": 12.3985,
      "duration": 0.01,
      "velocity": 120,
      "chip": "ym2612"
    },
    {
      "channel": 5,
      "note": 77,
      "start": 12.5155,
      "duration": 0.1288,
      "velocity": 118,
      "chip": "ym2612"
    },
    {
      "channel": 0,
      "note": 81,
      "start": 12.6527,
      "duration": 2.3991,
      "velocity": 120,
      "chip": "ym2612"
    },
    {
      "channel": 4,
      "note": 65,
      "start": 12.6529,
      "duration": 0.0456,
      "velocity": 120,
      "chip": "ym2612"
    },
    {
      "channel": 2,
      "note": 62,
      "start": 12.6665,
      "duration": 0.2746,
      "velocity": 100,
      "chip": "ym2612"
    },
    {
      "channel": 1,
      "note": 74,
      "start": 12.6854,
      "duration": 2.3971,
      "velocity": 120,
      "chip": "ym2612"
    },
    {
      "channel": 3,
      "note": 74,
      "start": 12.6856,
      "duration": 2.2226,
      "velocity": 110,
      "chip": "ym2612"
    },
    {
      "channel": 4,
      "note": 53,
      "start": 12.6985,
      "duration": 0.01,
      "velocity": 120,
      "chip": "ym2612"
    },
    {
      "channel": 5,
      "note": 77,
      "start": 12.8162,
      "duration": 0.276,
      "velocity": 118,
      "chip": "ym2612"
    },
    {
      "channel": 4,
      "note": 65,
      "start": 12.9491,
      "duration": 0.0494,
      "velocity": 120,
      "chip": "ym2612"
    },
    {
      "channel": 2,
      "note": 74,
      "start": 12.9654,
      "duration": 0.2758,
      "velocity": 100,
      "chip": "ym2612"
    },
    {
      "channel": 4,
      "note": 53,
      "start": 12.9985,
      "duration": 0.01,
      "velocity": 120,
      "chip": "ym2612"
    },
    {
      "channel": 5,
      "note": 77,
      "start": 13.1153,
      "duration": 0.2936,
      "velocity": 118,
      "chip": "ym2612"
    },
    {
      "channel": 4,
      "note": 65,
      "start": 13.2491,
      "duration": 0.0494,
      "velocity": 120,
      "chip": "ym2612"
    },
    {
      "channel": 2,
      "note": 62,
      "start": 13.2654,
      "duration": 0.2758,
      "velocity": 100,
      "chip": "ym2612"
    },
    {
      "channel": 4,
      "note": 53,
      "start": 13.2985,
      "duration": 0.01,
      "velocity": 120,
      "chip": "ym2612"
    },
    {
      "channel": 5,
      "note": 77,
      "start": 13.4153,
      "duration": 0.2936,
      "velocity": 118,
      "chip": "ym2612"
    },
    {
      "channel": 4,
      "note": 65,
      "start": 13.5491,
      "duration": 0.0494,
      "velocity": 120,
      "chip": "ym2612"
    },
    {
      "channel": 2,
      "note": 74,
      "start": 13.5654,
      "duration": 0.2758,
      "velocity": 100,
      "chip": "ym2612"
    },
    {
      "channel": 4,
      "note": 53,
      "start": 13.5985,
      "duration": 0.01,
      "velocity": 120,
      "chip": "ym2612"
    },
    {
      "channel": 5,
      "note": 77,
      "start": 13.7153,
      "duration": 0.2936,
      "velocity": 118,
      "chip": "ym2612"
    },
    {
      "channel": 4,
      "note": 65,
      "start": 13.8491,
      "duration": 0.0494,
      "velocity": 120,
      "chip": "ym2612"
    },
    {
      "channel": 2,
      "note": 62,
      "start": 13.8654,
      "duration": 0.2758,
      "velocity": 100,
      "chip": "ym2612"
    },
    {
      "channel": 4,
      "note": 53,
      "start": 13.8985,
      "duration": 0.01,
      "velocity": 120,
      "chip": "ym2612"
    },
    {
      "channel": 5,
      "note": 77,
      "start": 14.0153,
      "duration": 0.2769,
      "velocity": 118,
      "chip": "ym2612"
    },
    {
      "channel": 4,
      "note": 82,
      "start": 14.1491,
      "duration": 0.0494,
      "velocity": 126,
      "chip": "ym2612"
    },
    {
      "channel": 2,
      "note": 74,
      "start": 14.1656,
      "duration": 0.2756,
      "velocity": 100,
      "chip": "ym2612"
    },
    {
      "channel": 4,
      "note": 74,
      "start": 14.1985,
      "duration": 0.01,
      "velocity": 126,
      "chip": "ym2612"
    },
    {
      "channel": 5,
      "note": 77,
      "start": 14.3153,
      "duration": 0.2936,
      "velocity": 118,
      "chip": "ym2612"
    },
    {
      "channel": 4,
      "note": 65,
      "start": 14.4491,
      "duration": 0.0494,
      "velocity": 120,
      "chip": "ym2612"
    },
    {
      "channel": 2,
      "note": 62,
      "start": 14.4654,
      "duration": 0.2758,
      "velocity": 100,
      "chip": "ym2612"
    },
    {
      "channel": 4,
      "note": 53,
      "start": 14.4985,
      "duration": 0.01,
      "velocity": 120,
      "chip": "ym2612"
    },
    {
      "channel": 5,
      "note": 77,
      "start": 14.6153,
      "duration": 0.1281,
      "velocity": 118,
      "chip": "ym2612"
    },
    {
      "channel": 4,
      "note": 65,
      "start": 14.7495,
      "duration": 0.049,
      "velocity": 120,
      "chip": "ym2612"
    },
    {
      "channel": 2,
      "note": 74,
      "start": 14.7662,
      "duration": 0.2753,
      "velocity": 100,
      "chip": "ym2612"
    },
    {
      "channel": 4,
      "note": 53,
      "start": 14.7985,
      "duration": 0.01,
      "velocity": 120,
      "chip": "ym2612"
    },
    {
      "channel": 5,
      "note": 77,
      "start": 14.9163,
      "duration": 0.2759,
      "velocity": 118,
      "chip": "ym2612"
    },
    {
      "channel": 0,
      "note": 81,
      "start": 15.0518,
      "duration": 1.622,
      "velocity": 120,
      "chip": "ym2612"
    },
    {
      "channel": 4,
      "note": 65,
      "start": 15.0521,
      "duration": 0.0464,
      "velocity": 120,
      "chip": "ym2612"
    },
    {
      "channel": 2,
      "note": 62,
      "start": 15.0654,
      "duration": 0.2757,
      "velocity": 100,
      "chip": "ym2612"
    },
    {
      "channel": 1,
      "note": 74,
      "start": 15.0825,
      "duration": 1.6251,
      "velocity": 120,
      "chip": "ym2612"
    },
    {
      "channel": 4,
      "note": 53,
      "start": 15.0985,
      "duration": 0.01,
      "velocity": 120,
      "chip": "ym2612"
    },
    {
      "channel": 5,
      "note": 77,
      "start": 15.2153,
      "duration": 0.2936,
      "velocity": 118,
      "chip": "ym2612"
    },
    {
      "channel": 4,
      "note": 65,
      "start": 15.3491,
      "duration": 0.0494,
      "velocity": 120,
      "chip": "ym2612"
    },
    {
      "channel": 2,
      "note": 74,
      "start": 15.3654,
      "duration": 0.2758,
      "velocity": 100,
      "chip": "ym2612"
    },
    {
      "channel": 4,
      "note": 53,
      "start": 15.3985,
      "duration": 0.01,
      "velocity": 120,
      "chip": "ym2612"
    },
    {
      "channel": 5,
      "note": 77,
      "start": 15.5153,
      "duration": 0.2936,
      "velocity": 118,
      "chip": "ym2612"
    },
    {
      "channel": 4,
      "note": 65,
      "start": 15.6491,
      "duration": 0.0494,
      "velocity": 120,
      "chip": "ym2612"
    },
    {
      "channel": 2,
      "note": 62,
      "start": 15.6654,
      "duration": 0.2758,
      "velocity": 100,
      "chip": "ym2612"
    },
    {
      "channel": 4,
      "note": 53,
      "start": 15.6985,
      "duration": 0.01,
      "velocity": 120,
      "chip": "ym2612"
    },
    {
      "channel": 5,
      "note": 77,
      "start": 15.8153,
      "duration": 0.2936,
      "velocity": 118,
      "chip": "ym2612"
    },
    {
      "channel": 4,
      "note": 65,
      "start": 15.9491,
      "duration": 0.0494,
      "velocity": 120,
      "chip": "ym2612"
    },
    {
      "channel": 2,
      "note": 74,
      "start": 15.9654,
      "duration": 0.2758,
      "velocity": 100,
      "chip": "ym2612"
    },
    {
      "channel": 4,
      "note": 53,
      "start": 15.9985,
      "duration": 0.01,
      "velocity": 120,
      "chip": "ym2612"
    },
    {
      "channel": 5,
      "note": 77,
      "start": 16.1153,
      "duration": 0.277,
      "velocity": 118,
      "chip": "ym2612"
    },
    {
      "channel": 4,
      "note": 82,
      "start": 16.2492,
      "duration": 0.0494,
      "velocity": 126,
      "chip": "ym2612"
    },
    {
      "channel": 2,
      "note": 62,
      "start": 16.2656,
      "duration": 0.1255,
      "velocity": 100,
      "chip": "ym2612"
    },
    {
      "channel": 3,
      "note": 72,
      "start": 16.2822,
      "duration": 0.5428,
      "velocity": 110,
      "chip": "ym2612"
    },
    {
      "channel": 4,
      "note": 74,
      "start": 16.2985,
      "duration": 0.01,
      "velocity": 126,
      "chip": "ym2612"
    },
    {
      "channel": 2,
      "note": 74,
      "start": 16.418,
      "duration": 0.1231,
      "velocity": 100,
      "chip": "ym2612"
    },
    {
      "channel": 5,
      "note": 77,
      "start": 16.4182,
      "duration": 0.2915,
      "velocity": 118,
      "chip": "ym2612"
    },
    {
      "channel": 4,
      "note": 65,
      "start": 16.5491,
      "duration": 0.0494,
      "velocity": 120,
      "chip": "ym2612"
    },
    {
      "channel": 2,
      "note": 60,
      "start": 16.5654,
      "duration": 0.1258,
      "velocity": 100,
      "chip": "ym2612"
    },
    {
      "channel": 4,
      "note": 53,
      "start": 16.5985,
      "duration": 0.01,
      "velocity": 120,
      "chip": "ym2612"
    },
    {
      "channel": 4,
      "note": 82,
      "start": 16.6992,
      "duration": 0.0495,
      "velocity": 126,
      "chip": "ym2612"
    },
    {
      "channel": 2,
      "note": 72,
      "start": 16.7186,
      "duration": 0.1232,
      "velocity": 100,
      "chip": "ym2612"
    },
    {
      "channel": 5,
      "note": 77,
      "start": 16.7187,
      "duration": 0.1248,
      "velocity": 118,
      "chip": "ym2612"
    },
    {
      "channel": 4,
      "note": 74,
      "start": 16.7487,
      "duration": 0.01,
      "velocity": 126,
      "chip": "ym2612"
    },
    {
      "channel": 4,
      "note": 65,
      "start": 18.0166,
      "duration": 0.0486,
      "velocity": 120,
      "chip": "ym2612"
    },
    {
      "channel": 2,
      "note": 62,
      "start": 18.0363,
      "duration": 0.1382,
      "velocity": 100,
      "chip": "ym2612"
    },
    {
      "channel": 4,
      "note": 53,
      "start": 18.0652,
      "duration": 0.01,
      "velocity": 120,
      "chip": "ym2612"
    },
    {
      "channel": 5,
      "note": 77,
      "start": 18.1153,
      "duration": 0.1436,
      "velocity": 118,
      "chip": "ym2612"
    },
    {
      "channel": 2,
      "note": 74,
      "start": 18.1987,
      "duration": 0.1424,
      "velocity": 100,
      "chip": "ym2612"
    },
    {
      "channel": 5,
      "note": 77,
      "start": 18.2819,
      "duration": 0.1602,
      "velocity": 118,
      "chip": "ym2612"
    },
    {
      "channel": 4,
      "note": 65,
      "start": 18.3491,
      "duration": 0.0494,
      "velocity": 120,
      "chip": "ym2612"
    },
    {
      "channel": 2,
      "note": 62,
      "start": 18.3654,
      "duration": 0.1424,
      "velocity": 100,
      "chip": "ym2612"
    },
    {
      "channel": 4,
      "note": 53,
      "start": 18.3985,
      "duration": 0.01,
      "velocity": 120,
      "chip": "ym2612"
    },
    {
      "channel": 5,
      "note": 77,
      "start": 18.4486,
      "duration": 0.1602,
      "velocity": 118,
      "chip": "ym2612"
    },
    {
      "channel": 2,
      "note": 74,
      "start": 18.532,
      "duration": 0.1424,
      "velocity": 100,
      "chip": "ym2612"
    },
    {
      "channel": 5,
      "note": 77,
      "start": 18.6153,
      "duration": 0.1602,
      "velocity": 118,
      "chip": "ym2612"
    },
    {
      "channel": 4,
      "note": 82,
      "start": 18.6824,
      "duration": 0.0494,
      "velocity": 126,
      "chip": "ym2612"
    },
    {
      "channel": 2,
      "note": 62,
      "start": 18.6989,
      "duration": 0.1422,
      "velocity": 100,
      "chip": "ym2612"
    },
    {
      "channel": 4,
      "note": 74,
      "start": 18.7319,
      "duration": 0.01,
      "velocity": 126,
      "chip": "ym2612"
    },
    {
      "channel": 5,
      "note": 77,
      "start": 18.7819,
      "duration": 0.1604,
      "velocity": 118,
      "chip": "ym2612"
    },
    {
      "channel": 2,
      "note": 74,
      "start": 18.8654,
      "duration": 0.1428,
      "velocity": 100,
      "chip": "ym2612"
    },
    {
      "channel": 5,
      "note": 77,
      "start": 18.9487,
      "duration": 0.1606,
      "velocity": 118,
      "chip": "ym2612"
    },
    {
      "channel": 4,
      "note": 65,
      "start": 19.0163,
      "duration": 0.0489,
      "velocity": 120,
      "chip": "ym2612"
    },
    {
      "channel": 2,
      "note": 60,
      "start": 19.0322,
      "duration": 0.0589,
      "velocity": 100,
      "chip": "ym2612"
    },
    {
      "channel": 4,
      "note": 53,
      "start": 19.0652,
      "duration": 0.01,
      "velocity": 120,
      "chip": "ym2612"
    },
    {
      "channel": 2,
      "note": 72,
      "start": 19.1181,
      "duration": 0.0568,
      "velocity": 100,
      "chip": "ym2612"
    },
    {
      "channel": 5,
      "note": 77,
      "start": 19.1183,
      "duration": 0.0578,
      "velocity": 118,
      "chip": "ym2612"
    },
    {
      "channel": 2,
      "note": 62,
      "start": 19.2032,
      "duration": 0.1379,
      "velocity": 100,
      "chip": "ym2612"
    },
    {
      "channel": 5,
      "note": 77,
      "start": 19.282,
      "duration": 0.1439,
      "velocity": 118,
      "chip": "ym2612"
    },
    {
      "channel": 4,
      "note": 65,
      "start": 19.3491,
      "duration": 0.0494,
      "velocity": 120,
      "chip": "ym2612"
    },
    {
      "channel": 2,
      "note": 74,
      "start": 19.3654,
      "duration": 0.1424,
      "velocity": 100,
      "chip": "ym2612"
    },
    {
      "channel": 4,
      "note": 53,
      "start": 19.3985,
      "duration": 0.01,
      "velocity": 120,
      "chip": "ym2612"
    },
    {
      "channel": 5,
      "note": 77,
      "start": 19.4486,
      "duration": 0.1602,
      "velocity": 118,
      "chip": "ym2612"
    },
    {
      "channel": 2,
      "note": 62,
      "start": 19.532,
      "duration": 0.1424,
      "velocity": 100,
      "chip": "ym2612"
    },
    {
      "channel": 5,
      "note": 77,
      "start": 19.6153,
      "duration": 0.1602,
      "velocity": 118,
      "chip": "ym2612"
    },
    {
      "channel": 4,
      "note": 82,
      "start": 19.6824,
      "duration": 0.0494,
      "velocity": 126,
      "chip": "ym2612"
    },
    {
      "channel": 2,
      "note": 74,
      "start": 19.6989,
      "duration": 0.1422,
      "velocity": 100,
      "chip": "ym2612"
    },
    {
      "channel": 4,
      "note": 74,
      "start": 19.7319,
      "duration": 0.01,
      "velocity": 126,
      "chip": "ym2612"
    },
    {
      "channel": 5,
      "note": 77,
      "start": 19.7819,
      "duration": 0.1602,
      "velocity": 118,
      "chip": "ym2612"
    },
    {
      "channel": 2,
      "note": 62,
      "start": 19.8654,
      "duration": 0.1424,
      "velocity": 100,
      "chip": "ym2612"
    },
    {
      "channel": 5,
      "note": 77,
      "start": 19.9486,
      "duration": 0.1604,
      "velocity": 118,
      "chip": "ym2612"
    },
    {
      "channel": 4,
      "note": 65,
      "start": 20.0158,
      "duration": 0.0494,
      "velocity": 120,
      "chip": "ym2612"
    },
    {
      "channel": 2,
      "note": 74,
      "start": 20.032,
      "duration": 0.1428,
      "velocity": 100,
      "chip": "ym2612"
    },
    {
      "channel": 4,
      "note": 53,
      "start": 20.0652,
      "duration": 0.01,
      "velocity": 120,
      "chip": "ym2612"
    },
    {
      "channel": 5,
      "note": 77,
      "start": 20.1154,
      "duration": 0.1606,
      "velocity": 118,
      "chip": "ym2612"
    },
    {
      "channel": 4,
      "note": 82,
      "start": 20.1829,
      "duration": 0.0489,
      "velocity": 126,
      "chip": "ym2612"
    },
    {
      "channel": 2,
      "note": 60,
      "start": 20.1991,
      "duration": 0.0587,
      "velocity": 100,
      "chip": "ym2612"
    },
    {
      "channel": 4,
      "note": 74,
      "start": 20.2319,
      "duration": 0.01,
      "velocity": 126,
      "chip": "ym2612"
    },
    {
      "channel": 2,
      "note": 72,
      "start": 20.2848,
      "duration": 0.0568,
      "velocity": 100,
      "chip": "ym2612"
    },
    {
      "channel": 5,
      "note": 77,
      "start": 20.285,
      "duration": 0.0589,
      "velocity": 118,
      "chip": "ym2612"
    },
    {
      "channel": 4,
      "note": 65,
      "start": 20.35,
      "duration": 0.0485,
      "velocity": 120,
      "chip": "ym2612"
    },
    {
      "channel": 2,
      "note": 62,
      "start": 20.3699,
      "duration": 0.1379,
      "velocity": 100,
      "chip": "ym2612"
    },
    {
      "channel": 4,
      "note": 53,
      "start": 20.3985,
      "duration": 0.01,
      "velocity": 120,
      "chip": "ym2612"
    },
    {
      "channel": 5,
      "note": 77,
      "start": 20.4487,
      "duration": 0.1436,
      "velocity": 118,
      "chip": "ym2612"
    },
    {
      "channel": 2,
      "note": 74,
      "start": 20.532,
      "duration": 0.1424,
      "velocity": 100,
      "chip": "ym2612"
    },
    {
      "channel": 5,
      "note": 77,
      "start": 20.6153,
      "duration": 0.1602,
      "velocity": 118,
      "chip": "ym2612"
    },
    {
      "channel": 4,
      "note": 65,
      "start": 20.6824,
      "duration": 0.0494,
      "velocity": 120,
      "chip": "ym2612"
    },
    {
      "channel": 2,
      "note": 62,
      "start": 20.6987,
      "duration": 0.1424,
      "velocity": 100,
      "chip": "ym2612"
    },
    {
      "channel": 4,
      "note": 53,
      "start": 20.7319,
      "duration": 0.01,
      "velocity": 120,
      "chip": "ym2612"
    },
    {
      "channel": 5,
      "note": 77,
      "start": 20.7819,
      "duration": 0.1602,
      "velocity": 118,
      "chip": "ym2612"
    },
    {
      "channel": 2,
      "note": 74,
      "start": 20.8654,
      "duration": 0.1424,
      "velocity": 100,
      "chip": "ym2612"
    },
    {
      "channel": 5,
      "note": 77,
      "start": 20.9486,
      "duration": 0.1602,
      "velocity": 118,
      "chip": "ym2612"
    },
    {
      "channel": 4,
      "note": 82,
      "start": 21.0158,
      "duration": 0.0494,
      "velocity": 126,
      "chip": "ym2612"
    },
    {
      "channel": 2,
      "note": 62,
      "start": 21.0322,
      "duration": 0.1422,
      "velocity": 100,
      "chip": "ym2612"
    },
    {
      "channel": 4,
      "note": 74,
      "start": 21.0652,
      "duration": 0.01,
      "velocity": 126,
      "chip": "ym2612"
    },
    {
      "channel": 5,
      "note": 77,
      "start": 21.1153,
      "duration": 0.1604,
      "velocity": 118,
      "chip": "ym2612"
    },
    {
      "channel": 2,
      "note": 74,
      "start": 21.1987,
      "duration": 0.1428,
      "velocity": 100,
      "chip": "ym2612"
    },
    {
      "channel": 5,
      "note": 77,
      "start": 21.282,
      "duration": 0.1606,
      "velocity": 118,
      "chip": "ym2612"
    },
    {
      "channel": 4,
      "note": 65,
      "start": 21.3496,
      "duration": 0.0489,
      "velocity": 120,
      "chip": "ym2612"
    },
    {
      "channel": 2,
      "note": 60,
      "start": 21.3656,
      "duration": 0.0589,
      "velocity": 100,
      "chip": "ym2612"
    },
    {
      "channel": 4,
      "note": 53,
      "start": 21.3985,
      "duration": 0.01,
      "velocity": 120,
      "chip": "ym2612"
    },
    {
      "channel": 2,
      "note": 72,
      "start": 21.4515,
      "duration": 0.0568,
      "velocity": 100,
      "chip": "ym2612"
    },
    {
      "channel": 5,
      "note": 77,
      "start": 21.4516,
      "duration": 0.0578,
      "velocity": 118,
      "chip": "ym2612"
    },
    {
      "channel": 2,
      "note": 62,
      "start": 21.5366,
      "duration": 0.1379,
      "velocity": 100,
      "chip": "ym2612"
    },
    {
      "channel": 5,
      "note": 77,
      "start": 21.6153,
      "duration": 0.1439,
      "velocity": 118,
      "chip": "ym2612"
    },
    {
      "channel": 4,
      "note": 65,
      "start": 21.6824,
      "duration": 0.0494,
      "velocity": 120,
      "chip": "ym2612"
    },
    {
      "channel": 2,
      "note": 74,
      "start": 21.6987,
      "duration": 0.1424,
      "velocity": 100,
      "chip": "ym2612"
    },
    {
      "channel": 4,
      "note": 53,
      "start": 21.7319,
      "duration": 0.01,
      "velocity": 120,
      "chip": "ym2612"
    },
    {
      "channel": 5,
      "note": 77,
      "start": 21.7819,
      "duration": 0.1602,
      "velocity": 118,
      "chip": "ym2612"
    },
    {
      "channel": 2,
      "note": 62,
      "start": 21.8654,
      "duration": 0.1424,
      "velocity": 100,
      "chip": "ym2612"
    },
    {
      "channel": 5,
      "note": 77,
      "start": 21.9486,
      "duration": 0.1602,
      "velocity": 118,
      "chip": "ym2612"
    },
    {
      "channel": 4,
      "note": 82,
      "start": 22.0158,
      "duration": 0.0494,
      "velocity": 126,
      "chip": "ym2612"
    },
    {
      "channel": 2,
      "note": 74,
      "start": 22.0322,
      "duration": 0.1422,
      "velocity": 100,
      "chip": "ym2612"
    },
    {
      "channel": 4,
      "note": 74,
      "start": 22.0652,
      "duration": 0.01,
      "velocity": 126,
      "chip": "ym2612"
    },
    {
      "channel": 5,
      "note": 77,
      "start": 22.1153,
      "duration": 0.1602,
      "velocity": 118,
      "chip": "ym2612"
    },
    {
      "channel": 2,
      "note": 62,
      "start": 22.1987,
      "duration": 0.1424,
      "velocity": 100,
      "chip": "ym2612"
    },
    {
      "channel": 5,
      "note": 77,
      "start": 22.2819,
      "duration": 0.1604,
      "velocity": 118,
      "chip": "ym2612"
    },
    {
      "channel": 4,
      "note": 65,
      "start": 22.3491,
      "duration": 0.0494,
      "velocity": 120,
      "chip": "ym2612"
    },
    {
      "channel": 2,
      "note": 74,
      "start": 22.3654,
      "duration": 0.1428,
      "velocity": 100,
      "chip": "ym2612"
    },
    {
      "channel": 4,
      "note": 53,
      "start": 22.3985,
      "duration": 0.01,
      "velocity": 120,
      "chip": "ym2612"
    },
    {
      "channel": 5,
      "note": 77,
      "start": 22.4487,
      "duration": 0.1606,
      "velocity": 118,
      "chip": "ym2612"
    },
    {
      "channel": 4,
      "note": 82,
      "start": 22.5163,
      "duration": 0.0489,
      "velocity": 126,
      "chip": "ym2612"
    },
    {
      "channel": 2,
      "note": 60,
      "start": 22.5324,
      "duration": 0.0587,
      "velocity": 100,
      "chip": "ym2612"
    },
    {
      "channel": 4,
      "note": 74,
      "start": 22.5652,
      "duration": 0.01,
      "velocity": 126,
      "chip": "ym2612"
    },
    {
      "channel": 2,
      "note": 72,
      "start": 22.6181,
      "duration": 0.0583,
      "velocity": 100,
      "chip": "ym2612"
    },
    {
      "channel": 5,
      "note": 77,
      "start": 22.6183,
      "duration": 0.0607,
      "velocity": 118,
      "chip": "ym2612"
    },
    {
      "channel": 0,
      "note": 98,
      "start": 22.6874,
      "duration": 2.6645,
      "velocity": 110,
      "chip": "ym2612"
    },
    {
      "channel": 4,
      "note": 65,
      "start": 22.6876,
      "duration": 0.0456,
      "velocity": 120,
      "chip": "ym2612"
    },
    {
      "channel": 2,
      "note": 62,
      "start": 22.7036,
      "duration": 0.1375,
      "velocity": 100,
      "chip": "ym2612"
    },
    {
      "channel": 1,
      "note": 105,
      "start": 22.7202,
      "duration": 2.6648,
      "velocity": 110,
      "chip": "ym2612"
    },
    {
      "channel": 3,
      "note": 74,
      "start": 22.7204,
      "duration": 2.4878,
      "velocity": 110,
      "chip": "ym2612"
    },
    {
      "channel": 4,
      "note": 53,
      "start": 22.7333,
      "duration": 0.0086,
      "velocity": 120,
      "chip": "ym2612"
    },
    {
      "channel": 5,
      "note": 77,
      "start": 22.782,
      "duration": 0.1436,
      "velocity": 118,
      "chip": "ym2612"
    },
    {
      "channel": 2,
      "note": 74,
      "start": 22.8654,
      "duration": 0.1424,
      "velocity": 100,
      "chip": "ym2612"
    },
    {
      "channel": 5,
      "note": 77,
      "start": 22.9486,
      "duration": 0.1602,
      "velocity": 118,
      "chip": "ym2612"
    },
    {
      "channel": 4,
      "note": 65,
      "start": 23.0158,
      "duration": 0.0494,
      "velocity": 120,
      "chip": "ym2612"
    },
    {
      "channel": 2,
      "note": 62,
      "start": 23.032,
      "duration": 0.1424,
      "velocity": 100,
      "chip": "ym2612"
    },
    {
      "channel": 4,
      "note": 53,
      "start": 23.0652,
      "duration": 0.01,
      "velocity": 120,
      "chip": "ym2612"
    },
    {
      "channel": 5,
      "note": 77,
      "start": 23.1153,
      "duration": 0.1602,
      "velocity": 118,
      "chip": "ym2612"
    },
    {
      "channel": 2,
      "note": 74,
      "start": 23.1987,
      "duration": 0.1424,
      "velocity": 100,
      "chip": "ym2612"
    },
    {
      "channel": 5,
      "note": 77,
      "start": 23.2819,
      "duration": 0.1602,
      "velocity": 118,
      "chip": "ym2612"
    },
    {
      "channel": 4,
      "note": 82,
      "start": 23.3491,
      "duration": 0.0494,
      "velocity": 126,
      "chip": "ym2612"
    },
    {
      "channel": 2,
      "note": 62,
      "start": 23.3656,
      "duration": 0.1422,
      "velocity": 100,
      "chip": "ym2612"
    },
    {
      "channel": 4,
      "note": 74,
      "start": 23.3985,
      "duration": 0.01,
      "velocity": 126,
      "chip": "ym2612"
    },
    {
      "channel": 5,
      "note": 77,
      "start": 23.4486,
      "duration": 0.1602,
      "velocity": 118,
      "chip": "ym2612"
    },
    {
      "channel": 2,
      "note": 74,
      "start": 23.532,
      "duration": 0.1424,
      "velocity": 100,
      "chip": "ym2612"
    },
    {
      "channel": 5,
      "note": 77,
      "start": 23.6153,
      "duration": 0.1607,
      "velocity": 118,
      "chip": "ym2612"
    },
    {
      "channel": 4,
      "note": 65,
      "start": 23.6824,
      "duration": 0.0494,
      "velocity": 120,
      "chip": "ym2612"
    },
    {
      "channel": 2,
      "note": 60,
      "start": 23.6987,
      "duration": 0.0591,
      "velocity": 100,
      "chip": "ym2612"
    },
    {
      "channel": 4,
      "note": 53,
      "start": 23.7319,
      "duration": 0.01,
      "velocity": 120,
      "chip": "ym2612"
    },
    {
      "channel": 2,
      "note": 72,
      "start": 23.7848,
      "duration": 0.0563,
      "velocity": 100,
      "chip": "ym2612"
    },
    {
      "channel": 5,
      "note": 77,
      "start": 23.785,
      "duration": 0.0573,
      "velocity": 118,
      "chip": "ym2612"
    },
    {
      "channel": 2,
      "note": 62,
      "start": 23.8694,
      "duration": 0.1384,
      "velocity": 100,
      "chip": "ym2612"
    },
    {
      "channel": 5,
      "note": 77,
      "start": 23.9487,
      "duration": 0.1439,
      "velocity": 118,
      "chip": "ym2612"
    },
    {
      "channel": 4,
      "note": 65,
      "start": 24.0158,
      "duration": 0.0494,
      "velocity": 120,
      "chip": "ym2612"
    },
    {
      "channel": 2,
      "note": 74,
      "start": 24.032,
      "duration": 0.1424,
      "velocity": 100,
      "chip": "ym2612"
    },
    {
      "channel": 4,
      "note": 53,
      "start": 24.0652,
      "duration": 0.01,
      "velocity": 120,
      "chip": "ym2612"
    },
    {
      "channel": 5,
      "note": 77,
      "start": 24.1153,
      "duration": 0.1602,
      "velocity": 118,
      "chip": "ym2612"
    },
    {
      "channel": 2,
      "note": 62,
      "start": 24.1987,
      "duration": 0.1424,
      "velocity": 100,
      "chip": "ym2612"
    },
    {
      "channel": 5,
      "note": 77,
      "start": 24.2819,
      "duration": 0.1602,
      "velocity": 118,
      "chip": "ym2612"
    },
    {
      "channel": 4,
      "note": 82,
      "start": 24.3491,
      "duration": 0.0494,
      "velocity": 126,
      "chip": "ym2612"
    },
    {
      "channel": 2,
      "note": 74,
      "start": 24.3656,
      "duration": 0.1422,
      "velocity": 100,
      "chip": "ym2612"
    },
    {
      "channel": 4,
      "note": 74,
      "start": 24.3985,
      "duration": 0.01,
      "velocity": 126,
      "chip": "ym2612"
    },
    {
      "channel": 5,
      "note": 77,
      "start": 24.4486,
      "duration": 0.1602,
      "velocity": 118,
      "chip": "ym2612"
    },
    {
      "channel": 2,
      "note": 62,
      "start": 24.532,
      "duration": 0.1424,
      "velocity": 100,
      "chip": "ym2612"
    },
    {
      "channel": 5,
      "note": 77,
      "start": 24.6153,
      "duration": 0.1602,
      "velocity": 118,
      "chip": "ym2612"
    },
    {
      "channel": 4,
      "note": 65,
      "start": 24.6824,
      "duration": 0.0494,
      "velocity": 120,
      "chip": "ym2612"
    },
    {
      "channel": 2,
      "note": 74,
      "start": 24.6987,
      "duration": 0.1424,
      "velocity": 100,
      "chip": "ym2612"
    },
    {
      "channel": 4,
      "note": 53,
      "start": 24.7319,
      "duration": 0.01,
      "velocity": 120,
      "chip": "ym2612"
    },
    {
      "channel": 5,
      "note": 77,
      "start": 24.7819,
      "duration": 0.1607,
      "velocity": 118,
      "chip": "ym2612"
    },
    {
      "channel": 4,
      "note": 82,
      "start": 24.8491,
      "duration": 0.0494,
      "velocity": 126,
      "chip": "ym2612"
    },
    {
      "channel": 2,
      "note": 60,
      "start": 24.8656,
      "duration": 0.0589,
      "velocity": 100,
      "chip": "ym2612"
    },
    {
      "channel": 4,
      "note": 74,
      "start": 24.8985,
      "duration": 0.01,
      "velocity": 126,
      "chip": "ym2612"
    },
    {
      "channel": 2,
      "note": 72,
      "start": 24.9515,
      "duration": 0.0563,
      "velocity": 100,
      "chip": "ym2612"
    },
    {
      "channel": 5,
      "note": 77,
      "start": 24.9516,
      "duration": 0.0583,
      "velocity": 118,
      "chip": "ym2612"
    },
    {
      "channel": 4,
      "note": 65,
      "start": 25.0161,
      "duration": 0.0491,
      "velocity": 120,
      "chip": "ym2612"
    },
    {
      "channel": 2,
      "note": 62,
      "start": 25.0361,
      "duration": 0.1384,
      "velocity": 100,
      "chip": "ym2612"
    },
    {
      "channel": 4,
      "note": 53,
      "start": 25.0652,
      "duration": 0.01,
      "velocity": 120,
      "chip": "ym2612"
    },
    {
      "channel": 5,
      "note": 77,
      "start": 25.1153,
      "duration": 0.1436,
      "velocity": 118,
      "chip": "ym2612"
    },
    {
      "channel": 2,
      "note": 74,
      "start": 25.1987,
      "duration": 0.1428,
      "velocity": 100,
      "chip": "ym2612"
    },
    {
      "channel": 5,
      "note": 77,
      "start": 25.282,
      "duration": 0.1601,
      "velocity": 118,
      "chip": "ym2612"
    },
    {
      "channel": 0,
      "note": 98,
      "start": 25.3519,
      "duration": 1.8218,
      "velocity": 110,
      "chip": "ym2612"
    },
    {
      "channel": 4,
      "note": 65,
      "start": 25.3522,
      "duration": 0.0464,
      "velocity": 120,
      "chip": "ym2612"
    },
    {
      "channel": 2,
      "note": 62,
      "start": 25.3654,
      "duration": 0.1424,
      "velocity": 100,
      "chip": "ym2612"
    },
    {
      "channel": 1,
      "note": 105,
      "start": 25.385,
      "duration": 1.8225,
      "velocity": 110,
      "chip": "ym2612"
    },
    {
      "channel": 3,
      "note": 74,
      "start": 25.3852,
      "duration": 1.8232,
      "velocity": 110,
      "chip": "ym2612"
    },
    {
      "channel": 4,
      "note": 53,
      "start": 25.3985,
      "duration": 0.01,
      "velocity": 120,
      "chip": "ym2612"
    },
    {
      "channel": 5,
      "note": 77,
      "start": 25.4486,
      "duration": 0.1602,
      "velocity": 118,
      "chip": "ym2612"
    },
    {
      "channel": 2,
      "note": 74,
      "start": 25.532,
      "duration": 0.1424,
      "velocity": 100,
      "chip": "ym2612"
    },
    {
      "channel": 5,
      "note": 77,
      "start": 25.6153,
      "duration": 0.1602,
      "velocity": 118,
      "chip": "ym2612"
    },
    {
      "channel": 4,
      "note": 82,
      "start": 25.6824,
      "duration": 0.0494,
      "velocity": 126,
      "chip": "ym2612"
    },
    {
      "channel": 2,
      "note": 62,
      "start": 25.6989,
      "duration": 0.1422,
      "velocity": 100,
      "chip": "ym2612"
    },
    {
      "channel": 4,
      "note": 74,
      "start": 25.7319,
      "duration": 0.01,
      "velocity": 126,
      "chip": "ym2612"
    },
    {
      "channel": 5,
      "note": 77,
      "start": 25.7819,
      "duration": 0.1602,
      "velocity": 118,
      "chip": "ym2612"
    },
    {
      "channel": 2,
      "note": 74,
      "start": 25.8654,
      "duration": 0.1424,
      "velocity": 100,
      "chip": "ym2612"
    },
    {
      "channel": 5,
      "note": 77,
      "start": 25.9486,
      "duration": 0.1607,
      "velocity": 118,
      "chip": "ym2612"
    },
    {
      "channel": 4,
      "note": 65,
      "start": 26.0158,
      "duration": 0.0494,
      "velocity": 120,
      "chip": "ym2612"
    },
    {
      "channel": 2,
      "note": 60,
      "start": 26.032,
      "duration": 0.0591,
      "velocity": 100,
      "chip": "ym2612"
    },
    {
      "channel": 4,
      "note": 53,
      "start": 26.0652,
      "duration": 0.01,
      "velocity": 120,
      "chip": "ym2612"
    },
    {
      "channel": 2,
      "note": 72,
      "start": 26.1181,
      "duration": 0.0563,
      "velocity": 100,
      "chip": "ym2612"
    },
    {
      "channel": 5,
      "note": 77,
      "start": 26.1183,
      "duration": 0.0573,
      "velocity": 118,
      "chip": "ym2612"
    },
    {
      "channel": 2,
      "note": 62,
      "start": 26.2027,
      "duration": 0.1384,
      "velocity": 100,
      "chip": "ym2612"
    },
    {
      "channel": 5,
      "note": 77,
      "start": 26.282,
      "duration": 0.1439,
      "velocity": 118,
      "chip": "ym2612"
    },
    {
      "channel": 4,
      "note": 65,
      "start": 26.3491,
      "duration": 0.0494,
      "velocity": 120,
      "chip": "ym2612"
    },
    {
      "channel": 2,
      "note": 74,
      "start": 26.3654,
      "duration": 0.1424,
      "velocity": 100,
      "chip": "ym2612"
    },
    {
      "channel": 4,
      "note": 53,
      "start": 26.3985,
      "duration": 0.01,
      "velocity": 120,
      "chip": "ym2612"
    },
    {
      "channel": 5,
      "note": 77,
      "start": 26.4486,
      "duration": 0.1602,
      "velocity": 118,
      "chip": "ym2612"
    },
    {
      "channel": 2,
      "note": 62,
      "start": 26.532,
      "duration": 0.1424,
      "velocity": 100,
      "chip": "ym2612"
    },
    {
      "channel": 5,
      "note": 77,
      "start": 26.6153,
      "duration": 0.1602,
      "velocity": 118,
      "chip": "ym2612"
    },
    {
      "channel": 4,
      "note": 82,
      "start": 26.6824,
      "duration": 0.0494,
      "velocity": 126,
      "chip": "ym2612"
    },
    {
      "channel": 2,
      "note": 74,
      "start": 26.6989,
      "duration": 0.1422,
      "velocity": 100,
      "chip": "ym2612"
    },
    {
      "channel": 4,
      "note": 74,
      "start": 26.7319,
      "duration": 0.01,
      "velocity": 126,
      "chip": "ym2612"
    },
    {
      "channel": 5,
      "note": 77,
      "start": 26.7819,
      "duration": 0.1602,
      "velocity": 118,
      "chip": "ym2612"
    },
    {
      "channel": 2,
      "note": 62,
      "start": 26.8654,
      "duration": 0.1424,
      "velocity": 100,
      "chip": "ym2612"
    },
    {
      "channel": 5,
      "note": 77,
      "start": 26.9486,
      "duration": 0.1602,
      "velocity": 118,
      "chip": "ym2612"
    },
    {
      "channel": 4,
      "note": 65,
      "start": 27.0158,
      "duration": 0.0494,
      "velocity": 120,
      "chip": "ym2612"
    },
    {
      "channel": 2,
      "note": 74,
      "start": 27.032,
      "duration": 0.1425,
      "velocity": 100,
      "chip": "ym2612"
    },
    {
      "channel": 4,
      "note": 53,
      "start": 27.0652,
      "duration": 0.01,
      "velocity": 120,
      "chip": "ym2612"
    },
    {
      "channel": 5,
      "note": 77,
      "start": 27.1153,
      "duration": 0.161,
      "velocity": 118,
      "chip": "ym2612"
    },
    {
      "channel": 4,
      "note": 82,
      "start": 27.1825,
      "duration": 0.0497,
      "velocity": 126,
      "chip": "ym2612"
    },
    {
      "channel": 2,
      "note": 60,
      "start": 27.199,
      "duration": 0.059,
      "velocity": 100,
      "chip": "ym2612"
    },
    {
      "channel": 4,
      "note": 74,
      "start": 27.2322,
      "duration": 0.0099,
      "velocity": 126,
      "chip": "ym2612"
    },
    {
      "channel": 2,
      "note": 72,
      "start": 27.285,
      "duration": 0.0566,
      "velocity": 100,
      "chip": "ym2612"
    },
    {
      "channel": 5,
      "note": 77,
      "start": 27.2852,
      "duration": 0.0587,
      "velocity": 118,
      "chip": "ym2612"
    },
    {
      "channel": 0,
      "note": 96,
      "start": 27.3524,
      "duration": 0.0547,
      "velocity": 110,
      "chip": "ym2612"
    },
    {
      "channel": 4,
      "note": 65,
      "start": 27.3526,
      "duration": 0.0459,
      "velocity": 120,
      "chip": "ym2612"
    },
    {
      "channel": 2,
      "note": 62,
      "start": 27.3696,
      "duration": 0.1387,
      "velocity": 100,
      "chip": "ym2612"
    },
    {
      "channel": 1,
      "note": 103,
      "start": 27.385,
      "duration": 0.0557,
      "velocity": 110,
      "chip": "ym2612"
    },
    {
      "channel": 3,
      "note": 72,
      "start": 27.3852,
      "duration": 0.223,
      "velocity": 110,
      "chip": "ym2612"
    },
    {
      "channel": 4,
      "note": 53,
      "start": 27.3985,
      "duration": 0.01,
      "velocity": 120,
      "chip": "ym2612"
    },
    {
      "channel": 0,
      "note": 103,
      "start": 27.4325,
      "duration": 0.058,
      "velocity": 110,
      "chip": "ym2612"
    },
    {
      "channel": 5,
      "note": 77,
      "start": 27.4488,
      "duration": 0.144,
      "velocity": 118,
      "chip": "ym2612"
    },
    {
      "channel": 1,
      "note": 110,
      "start": 27.4653,
      "duration": 0.0588,
      "velocity": 110,
      "chip": "ym2612"
    },
    {
      "channel": 0,
      "note": 98,
      "start": 27.5154,
      "duration": 0.0584,
      "velocity": 110,
      "chip": "ym2612"
    },
    {
      "channel": 2,
      "note": 74,
      "start": 27.5321,
      "duration": 0.1427,
      "velocity": 100,
      "chip": "ym2612"
    },
    {
      "channel": 1,
      "note": 103,
      "start": 27.5487,
      "duration": 0.0588,
      "velocity": 110,
      "chip": "ym2612"
    },
    {
      "channel": 0,
      "note": 103,
      "start": 27.5988,
      "duration": 0.7531,
      "velocity": 110,
      "chip": "ym2612"
    },
    {
      "channel": 5,
      "note": 77,
      "start": 27.6155,
      "duration": 0.16,
      "velocity": 118,
      "chip": "ym2612"
    },
    {
      "channel": 1,
      "note": 110,
      "start": 27.6349,
      "duration": 0.7475,
      "velocity": 110,
      "chip": "ym2612"
    },
    {
      "channel": 3,
      "note": 79,
      "start": 27.635,
      "duration": 0.2237,
      "velocity": 110,
      "chip": "ym2612"
    },
    {
      "channel": 4,
      "note": 65,
      "start": 27.6827,
      "duration": 0.0491,
      "velocity": 120,
      "chip": "ym2612"
    },
    {
      "channel": 2,
      "note": 62,
      "start": 27.6987,
      "duration": 0.1424,
      "velocity": 100,
      "chip": "ym2612"
    },
    {
      "channel": 4,
      "note": 53,
      "start": 27.7319,
      "duration": 0.01,
      "velocity": 120,
      "chip": "ym2612"
    },
    {
      "channel": 5,
      "note": 77,
      "start": 27.7819,
      "duration": 0.1602,
      "velocity": 118,
      "chip": "ym2612"
    },
    {
      "channel": 2,
      "note": 74,
      "start": 27.8654,
      "duration": 0.1424,
      "velocity": 100,
      "chip": "ym2612"
    },
    {
      "channel": 5,
      "note": 77,
      "start": 27.9486,
      "duration": 0.1602,
      "velocity": 118,
      "chip": "ym2612"
    },
    {
      "channel": 4,
      "note": 82,
      "start": 28.0158,
      "duration": 0.0494,
      "velocity": 126,
      "chip": "ym2612"
    },
    {
      "channel": 2,
      "note": 62,
      "start": 28.0322,
      "duration": 0.1422,
      "velocity": 100,
      "chip": "ym2612"
    },
    {
      "channel": 4,
      "note": 74,
      "start": 28.0652,
      "duration": 0.01,
      "velocity": 126,
      "chip": "ym2612"
    },
    {
      "channel": 5,
      "note": 77,
      "start": 28.1153,
      "duration": 0.1602,
      "velocity": 118,
      "chip": "ym2612"
    },
    {
      "channel": 2,
      "note": 74,
      "start": 28.1987,
      "duration": 0.1429,
      "velocity": 100,
      "chip": "ym2612"
    },
    {
      "channel": 5,
      "note": 77,
      "start": 28.2819,
      "duration": 0.1607,
      "velocity": 118,
      "chip": "ym2612"
    },
    {
      "channel": 0,
      "note": 103,
      "start": 28.3519,
      "duration": 0.1385,
      "velocity": 110,
      "chip": "ym2612"
    },
    {
      "channel": 4,
      "note": 65,
      "start": 28.3522,
      "duration": 0.0464,
      "velocity": 120,
      "chip": "ym2612"
    },
    {
      "channel": 2,
      "note": 60,
      "start": 28.3654,
      "duration": 0.0591,
      "velocity": 100,
      "chip": "ym2612"
    },
    {
      "channel": 1,
      "note": 110,
      "start": 28.3824,
      "duration": 0.1417,
      "velocity": 110,
      "chip": "ym2612"
    },
    {
      "channel": 4,
      "note": 53,
      "start": 28.3985,
      "duration": 0.01,
      "velocity": 120,
      "chip": "ym2612"
    },
    {
      "channel": 2,
      "note": 72,
      "start": 28.4515,
      "duration": 0.0567,
      "velocity": 100,
      "chip": "ym2612"
    },
    {
      "channel": 5,
      "note": 77,
      "start": 28.4516,
      "duration": 0.0578,
      "velocity": 118,
      "chip": "ym2612"
    },
    {
      "channel": 2,
      "note": 62,
      "start": 28.5362,
      "duration": 0.1382,
      "velocity": 100,
      "chip": "ym2612"
    },
    {
      "channel": 5,
      "note": 77,
      "start": 28.6153,
      "duration": 0.1439,
      "velocity": 118,
      "chip": "ym2612"
    },
    {
      "channel": 4,
      "note": 65,
      "start": 28.6824,
      "duration": 0.0494,
      "velocity": 120,
      "chip": "ym2612"
    },
    {
      "channel": 2,
      "note": 74,
      "start": 28.6987,
      "duration": 0.1424,
      "velocity": 100,
      "chip": "ym2612"
    },
    {
      "channel": 4,
      "note": 53,
      "start": 28.7319,
      "duration": 0.01,
      "velocity": 120,
      "chip": "ym2612"
    },
    {
      "channel": 5,
      "note": 77,
      "start": 28.7819,
      "duration": 0.1602,
      "velocity": 118,
      "chip": "ym2612"
    },
    {
      "channel": 2,
      "note": 62,
      "start": 28.8654,
      "duration": 0.1424,
      "velocity": 100,
      "chip": "ym2612"
    },
    {
      "channel": 5,
      "note": 77,
      "start": 28.9486,
      "duration": 0.1602,
      "velocity": 118,
      "chip": "ym2612"
    },
    {
      "channel": 4,
      "note": 82,
      "start": 29.0158,
      "duration": 0.0494,
      "velocity": 126,
      "chip": "ym2612"
    },
    {
      "channel": 2,
      "note": 74,
      "start": 29.0322,
      "duration": 0.1422,
      "velocity": 100,
      "chip": "ym2612"
    },
    {
      "channel": 4,
      "note": 74,
      "start": 29.0652,
      "duration": 0.01,
      "velocity": 126,
      "chip": "ym2612"
    },
    {
      "channel": 5,
      "note": 77,
      "start": 29.1153,
      "duration": 0.1602,
      "velocity": 118,
      "chip": "ym2612"
    },
    {
      "channel": 2,
      "note": 62,
      "start": 29.1987,
      "duration": 0.1424,
      "velocity": 100,
      "chip": "ym2612"
    },
    {
      "channel": 5,
      "note": 77,
      "start": 29.2819,
      "duration": 0.1604,
      "velocity": 118,
      "chip": "ym2612"
    },
    {
      "channel": 4,
      "note": 65,
      "start": 29.3491,
      "duration": 0.0494,
      "velocity": 120,
      "chip": "ym2612"
    },
    {
      "channel": 2,
      "note": 74,
      "start": 29.3654,
      "duration": 0.1428,
      "velocity": 100,
      "chip": "ym2612"
    },
    {
      "channel": 4,
      "note": 53,
      "start": 29.3985,
      "duration": 0.01,
      "velocity": 120,
      "chip": "ym2612"
    },
    {
      "channel": 5,
      "note": 77,
      "start": 29.4487,
      "duration": 0.1606,
      "velocity": 118,
      "chip": "ym2612"
    },
    {
      "channel": 4,
      "note": 82,
      "start": 29.5163,
      "duration": 0.0489,
      "velocity": 126,
      "chip": "ym2612"
    },
    {
      "channel": 2,
      "note": 60,
      "start": 29.5324,
      "duration": 0.0587,
      "velocity": 100,
      "chip": "ym2612"
    },
    {
      "channel": 4,
      "note": 74,
      "start": 29.5652,
      "duration": 0.01,
      "velocity": 126,
      "chip": "ym2612"
    },
    {
      "channel": 2,
      "note": 72,
      "start": 29.6181,
      "duration": 0.0567,
      "velocity": 100,
      "chip": "ym2612"
    },
    {
      "channel": 5,
      "note": 77,
      "start": 29.6183,
      "duration": 0.0587,
      "velocity": 118,
      "chip": "ym2612"
    },
    {
      "channel": 4,
      "note": 65,
      "start": 29.6831,
      "duration": 0.0488,
      "velocity": 120,
      "chip": "ym2612"
    },
    {
      "channel": 2,
      "note": 62,
      "start": 29.7029,
      "duration": 0.1382,
      "velocity": 100,
      "chip": "ym2612"
    },
    {
      "channel": 4,
      "note": 53,
      "start": 29.7319,
      "duration": 0.01,
      "velocity": 120,
      "chip": "ym2612"
    },
    {
      "channel": 5,
      "note": 77,
      "start": 29.782,
      "duration": 0.1436,
      "velocity": 118,
      "chip": "ym2612"
    },
    {
      "channel": 2,
      "note": 74,
      "start": 29.8654,
      "duration": 0.1424,
      "velocity": 100,
      "chip": "ym2612"
    },
    {
      "channel": 5,
      "note": 77,
      "start": 29.9486,
      "duration": 0.1602,
      "velocity": 118,
      "chip": "ym2612"
    },
    {
      "channel": 4,
      "note": 65,
      "start": 30.0158,
      "duration": 0.0494,
      "velocity": 120,
      "chip": "ym2612"
    },
    {
      "channel": 2,
      "note": 62,
      "start": 30.032,
      "duration": 0.1424,
      "velocity": 100,
      "chip": "ym2612"
    },
    {
      "channel": 4,
      "note": 53,
      "start": 30.0652,
      "duration": 0.01,
      "velocity": 120,
      "chip": "ym2612"
    },
    {
      "channel": 5,
      "note": 77,
      "start": 30.1153,
      "duration": 0.1602,
      "velocity": 118,
      "chip": "ym2612"
    },
    {
      "channel": 2,
      "note": 74,
      "start": 30.1987,
      "duration": 0.1424,
      "velocity": 100,
      "chip": "ym2612"
    },
    {
      "channel": 5,
      "note": 77,
      "start": 30.2819,
      "duration": 0.1602,
      "velocity": 118,
      "chip": "ym2612"
    },
    {
      "channel": 4,
      "note": 82,
      "start": 30.3491,
      "duration": 0.0494,
      "velocity": 126,
      "chip": "ym2612"
    },
    {
      "channel": 2,
      "note": 62,
      "start": 30.3656,
      "duration": 0.1422,
      "velocity": 100,
      "chip": "ym2612"
    },
    {
      "channel": 4,
      "note": 74,
      "start": 30.3985,
      "duration": 0.01,
      "velocity": 126,
      "chip": "ym2612"
    },
    {
      "channel": 5,
      "note": 77,
      "start": 30.4486,
      "duration": 0.1604,
      "velocity": 118,
      "chip": "ym2612"
    },
    {
      "channel": 2,
      "note": 74,
      "start": 30.532,
      "duration": 0.1428,
      "velocity": 100,
      "chip": "ym2612"
    },
    {
      "channel": 5,
      "note": 77,
      "start": 30.6154,
      "duration": 0.1606,
      "velocity": 118,
      "chip": "ym2612"
    },
    {
      "channel": 4,
      "note": 65,
      "start": 30.6829,
      "duration": 0.0489,
      "velocity": 120,
      "chip": "ym2612"
    },
    {
      "channel": 2,
      "note": 60,
      "start": 30.6989,
      "duration": 0.0589,
      "velocity": 100,
      "chip": "ym2612"
    },
    {
      "channel": 4,
      "note": 53,
      "start": 30.7319,
      "duration": 0.01,
      "velocity": 120,
      "chip": "ym2612"
    },
    {
      "channel": 2,
      "note": 72,
      "start": 30.7848,
      "duration": 0.0567,
      "velocity": 100,
      "chip": "ym2612"
    },
    {
      "channel": 5,
      "note": 77,
      "start": 30.785,
      "duration": 0.0576,
      "velocity": 118,
      "chip": "ym2612"
    },
    {
      "channel": 2,
      "note": 62,
      "start": 30.8696,
      "duration": 0.1382,
      "velocity": 100,
      "chip": "ym2612"
    },
    {
      "channel": 5,
      "note": 77,
      "start": 30.9487,
      "duration": 0.1439,
      "velocity": 118,
      "chip": "ym2612"
    },
    {
      "channel": 4,
      "note": 65,
      "start": 31.0158,
      "duration": 0.0494,
      "velocity": 120,
      "chip": "ym2612"
    },
    {
      "channel": 2,
      "note": 74,
      "start": 31.032,
      "duration": 0.1424,
      "velocity": 100,
      "chip": "ym2612"
    },
    {
      "channel": 4,
      "note": 53,
      "start": 31.0652,
      "duration": 0.01,
      "velocity": 120,
      "chip": "ym2612"
    },
    {
      "channel": 5,
      "note": 77,
      "start": 31.1153,
      "duration": 0.1602,
      "velocity": 118,
      "chip": "ym2612"
    },
    {
      "channel": 2,
      "note": 62,
      "start": 31.1987,
      "duration": 0.1424,
      "velocity": 100,
      "chip": "ym2612"
    },
    {
      "channel": 5,
      "note": 77,
      "start": 31.2819,
      "duration": 0.1602,
      "velocity": 118,
      "chip": "ym2612"
    },
    {
      "channel": 4,
      "note": 82,
      "start": 31.3491,
      "duration": 0.0494,
      "velocity": 126,
      "chip": "ym2612"
    },
    {
      "channel": 2,
      "note": 74,
      "start": 31.3656,
      "duration": 0.1422,
      "velocity": 100,
      "chip": "ym2612"
    },
    {
      "channel": 4,
      "note": 74,
      "start": 31.3985,
      "duration": 0.01,
      "velocity": 126,
      "chip": "ym2612"
    },
    {
      "channel": 5,
      "note": 77,
      "start": 31.4486,
      "duration": 0.1602,
      "velocity": 118,
      "chip": "ym2612"
    },
    {
      "channel": 2,
      "note": 62,
      "start": 31.532,
      "duration": 0.1424,
      "velocity": 100,
      "chip": "ym2612"
    },
    {
      "channel": 5,
      "note": 77,
      "start": 31.6153,
      "duration": 0.1604,
      "velocity": 118,
      "chip": "ym2612"
    },
    {
      "channel": 4,
      "note": 65,
      "start": 31.6824,
      "duration": 0.0494,
      "velocity": 120,
      "chip": "ym2612"
    },
    {
      "channel": 2,
      "note": 74,
      "start": 31.6987,
      "duration": 0.1428,
      "velocity": 100,
      "chip": "ym2612"
    },
    {
      "channel": 4,
      "note": 53,
      "start": 31.7319,
      "duration": 0.01,
      "velocity": 120,
      "chip": "ym2612"
    },
    {
      "channel": 5,
      "note": 77,
      "start": 31.782,
      "duration": 0.1606,
      "velocity": 118,
      "chip": "ym2612"
    },
    {
      "channel": 4,
      "note": 82,
      "start": 31.8496,
      "duration": 0.0489,
      "velocity": 126,
      "chip": "ym2612"
    },
    {
      "channel": 2,
      "note": 60,
      "start": 31.8658,
      "duration": 0.0587,
      "velocity": 100,
      "chip": "ym2612"
    },
    {
      "channel": 4,
      "note": 74,
      "start": 31.8985,
      "duration": 0.01,
      "velocity": 126,
      "chip": "ym2612"
    },
    {
      "channel": 2,
      "note": 72,
      "start": 31.9515,
      "duration": 0.057,
      "velocity": 100,
      "chip": "ym2612"
    },
    {
      "channel": 5,
      "note": 77,
      "start": 31.9516,
      "duration": 0.0592,
      "velocity": 118,
      "chip": "ym2612"
    },
    {
      "channel": 0,
      "note": 98,
      "start": 32.0192,
      "duration": 2.666,
      "velocity": 110,
      "chip": "ym2612"
    },
    {
      "channel": 4,
      "note": 65,
      "start": 32.0195,
      "duration": 0.0457,
      "velocity": 120,
      "chip": "ym2612"
    },
    {
      "channel": 2,
      "note": 62,
      "start": 32.0365,
      "duration": 0.138,
      "velocity": 100,
      "chip": "ym2612"
    },
    {
      "channel": 5,
      "note": 77,
      "start": 32.0366,
      "duration": 0.3064,
      "velocity": 127,
      "chip": "ym2612"
    },
    {
      "channel": 1,
      "note": 105,
      "start": 32.0521,
      "duration": 2.6663,
      "velocity": 110,
      "chip": "ym2612"
    },
    {
      "channel": 3,
      "note": 74,
      "start": 32.0522,
      "duration": 2.4893,
      "velocity": 110,
      "chip": "ym2612"
    },
    {
      "channel": 4,
      "note": 53,
      "start": 32.0652,
      "duration": 0.01,
      "velocity": 120,
      "chip": "ym2612"
    },
    {
      "channel": 2,
      "note": 74,
      "start": 32.1987,
      "duration": 0.1424,
      "velocity": 100,
      "chip": "ym2612"
    },
    {
      "channel": 4,
      "note": 65,
      "start": 32.3492,
      "duration": 0.0494,
      "velocity": 120,
      "chip": "ym2612"
    },
    {
      "channel": 2,
      "note": 62,
      "start": 32.3689,
      "duration": 0.1389,
      "velocity": 100,
      "chip": "ym2612"
    },
    {
      "channel": 5,
      "note": 77,
      "start": 32.3691,
      "duration": 0.1398,
      "velocity": 118,
      "chip": "ym2612"
    },
    {
      "channel": 4,
      "note": 53,
      "start": 32.3985,
      "duration": 0.01,
      "velocity": 120,
      "chip": "ym2612"
    },
    {
      "channel": 2,
      "note": 74,
      "start": 32.5347,
      "duration": 0.1398,
      "velocity": 100,
      "chip": "ym2612"
    },
    {
      "channel": 5,
      "note": 77,
      "start": 32.5349,
      "duration": 0.158,
      "velocity": 118,
      "chip": "ym2612"
    },
    {
      "channel": 4,
      "note": 82,
      "start": 32.6824,
      "duration": 0.0494,
      "velocity": 126,
      "chip": "ym2612"
    },
    {
      "channel": 2,
      "note": 62,
      "start": 32.7016,
      "duration": 0.1395,
      "velocity": 100,
      "chip": "ym2612"
    },
    {
      "channel": 5,
      "note": 77,
      "start": 32.7018,
      "duration": 0.1576,
      "velocity": 118,
      "chip": "ym2612"
    },
    {
      "channel": 4,
      "note": 74,
      "start": 32.7319,
      "duration": 0.01,
      "velocity": 126,
      "chip": "ym2612"
    },
    {
      "channel": 2,
      "note": 74,
      "start": 32.868,
      "duration": 0.1398,
      "velocity": 100,
      "chip": "ym2612"
    },
    {
      "channel": 5,
      "note": 77,
      "start": 32.8683,
      "duration": 0.1578,
      "velocity": 118,
      "chip": "ym2612"
    },
    {
      "channel": 4,
      "note": 65,
      "start": 33.0158,
      "duration": 0.0494,
      "velocity": 120,
      "chip": "ym2612"
    },
    {
      "channel": 2,
      "note": 60,
      "start": 33.0348,
      "duration": 0.0563,
      "velocity": 100,
      "chip": "ym2612"
    },
    {
      "channel": 5,
      "note": 77,
      "start": 33.035,
      "duration": 0.0578,
      "velocity": 118,
      "chip": "ym2612"
    },
    {
      "channel": 4,
      "note": 53,
      "start": 33.0652,
      "duration": 0.01,
      "velocity": 120,
      "chip": "ym2612"
    },
    {
      "channel": 2,
      "note": 72,
      "start": 33.118,
      "duration": 0.0564,
      "velocity": 100,
      "chip": "ym2612"
    },
    {
      "channel": 5,
      "note": 77,
      "start": 33.1182,
      "duration": 0.0747,
      "velocity": 118,
      "chip": "ym2612"
    },
    {
      "channel": 2,
      "note": 62,
      "start": 33.2029,
      "duration": 0.1383,
      "velocity": 100,
      "chip": "ym2612"
    },
    {
      "channel": 5,
      "note": 77,
      "start": 33.282,
      "duration": 0.1439,
      "velocity": 118,
      "chip": "ym2612"
    },
    {
      "channel": 4,
      "note": 65,
      "start": 33.3491,
      "duration": 0.0494,
      "velocity": 120,
      "chip": "ym2612"
    },
    {
      "channel": 2,
      "note": 74,
      "start": 33.3654,
      "duration": 0.1424,
      "velocity": 100,
      "chip": "ym2612"
    },
    {
      "channel": 4,
      "note": 53,
      "start": 33.3985,
      "duration": 0.01,
      "velocity": 120,
      "chip": "ym2612"
    },
    {
      "channel": 5,
      "note": 77,
      "start": 33.4486,
      "duration": 0.1602,
      "velocity": 118,
      "chip": "ym2612"
    },
    {
      "channel": 2,
      "note": 62,
      "start": 33.532,
      "duration": 0.1424,
      "velocity": 100,
      "chip": "ym2612"
    },
    {
      "channel": 5,
      "note": 77,
      "start": 33.6153,
      "duration": 0.1602,
      "velocity": 118,
      "chip": "ym2612"
    },
    {
      "channel": 4,
      "note": 82,
      "start": 33.6824,
      "duration": 0.0494,
      "velocity": 126,
      "chip": "ym2612"
    },
    {
      "channel": 2,
      "note": 74,
      "start": 33.6989,
      "duration": 0.1422,
      "velocity": 100,
      "chip": "ym2612"
    },
    {
      "channel": 4,
      "note": 74,
      "start": 33.7319,
      "duration": 0.01,
      "velocity": 126,
      "chip": "ym2612"
    },
    {
      "channel": 5,
      "note": 77,
      "start": 33.7819,
      "duration": 0.1602,
      "velocity": 118,
      "chip": "ym2612"
    },
    {
      "channel": 2,
      "note": 62,
      "start": 33.8654,
      "duration": 0.1424,
      "velocity": 100,
      "chip": "ym2612"
    },
    {
      "channel": 5,
      "note": 77,
      "start": 33.9486,
      "duration": 0.1602,
      "velocity": 118,
      "chip": "ym2612"
    },
    {
      "channel": 4,
      "note": 65,
      "start": 34.0158,
      "duration": 0.0494,
      "velocity": 120,
      "chip": "ym2612"
    },
    {
      "channel": 2,
      "note": 74,
      "start": 34.032,
      "duration": 0.1424,
      "velocity": 100,
      "chip": "ym2612"
    },
    {
      "channel": 4,
      "note": 53,
      "start": 34.0652,
      "duration": 0.01,
      "velocity": 120,
      "chip": "ym2612"
    },
    {
      "channel": 5,
      "note": 77,
      "start": 34.1153,
      "duration": 0.1607,
      "velocity": 118,
      "chip": "ym2612"
    },
    {
      "channel": 4,
      "note": 82,
      "start": 34.1824,
      "duration": 0.0494,
      "velocity": 126,
      "chip": "ym2612"
    },
    {
      "channel": 2,
      "note": 60,
      "start": 34.1989,
      "duration": 0.0589,
      "velocity": 100,
      "chip": "ym2612"
    },
    {
      "channel": 4,
      "note": 74,
      "start": 34.2319,
      "duration": 0.01,
      "velocity": 126,
      "chip": "ym2612"
    },
    {
      "channel": 2,
      "note": 72,
      "start": 34.2848,
      "duration": 0.0563,
      "velocity": 100,
      "chip": "ym2612"
    },
    {
      "channel": 5,
      "note": 77,
      "start": 34.285,
      "duration": 0.0583,
      "velocity": 118,
      "chip": "ym2612"
    },
    {
      "channel": 4,
      "note": 65,
      "start": 34.3494,
      "duration": 0.0491,
      "velocity": 120,
      "chip": "ym2612"
    },
    {
      "channel": 2,
      "note": 62,
      "start": 34.3694,
      "duration": 0.1384,
      "velocity": 100,
      "chip": "ym2612"
    },
    {
      "channel": 4,
      "note": 53,
      "start": 34.3985,
      "duration": 0.01,
      "velocity": 120,
      "chip": "ym2612"
    },
    {
      "channel": 5,
      "note": 77,
      "start": 34.4487,
      "duration": 0.1436,
      "velocity": 118,
      "chip": "ym2612"
    },
    {
      "channel": 2,
      "note": 74,
      "start": 34.532,
      "duration": 0.1428,
      "velocity": 100,
      "chip": "ym2612"
    },
    {
      "channel": 5,
      "note": 77,
      "start": 34.6154,
      "duration": 0.1601,
      "velocity": 118,
      "chip": "ym2612"
    },
    {
      "channel": 0,
      "note": 98,
      "start": 34.6852,
      "duration": 1.8218,
      "velocity": 110,
      "chip": "ym2612"
    },
    {
      "channel": 4,
      "note": 65,
      "start": 34.6855,
      "duration": 0.0464,
      "velocity": 120,
      "chip": "ym2612"
    },
    {
      "channel": 2,
      "note": 62,
      "start": 34.6988,
      "duration": 0.1424,
      "velocity": 100,
      "chip": "ym2612"
    },
    {
      "channel": 1,
      "note": 105,
      "start": 34.7184,
      "duration": 1.8225,
      "velocity": 110,
      "chip": "ym2612"
    },
    {
      "channel": 3,
      "note": 74,
      "start": 34.7185,
      "duration": 1.8232,
      "velocity": 110,
      "chip": "ym2612"
    },
    {
      "channel": 4,
      "note": 53,
      "start": 34.7319,
      "duration": 0.01,
      "velocity": 120,
      "chip": "ym2612"
    },
    {
      "channel": 5,
      "note": 77,
      "start": 34.7819,
      "duration": 0.1602,
      "velocity": 118,
      "chip": "ym2612"
    },
    {
      "channel": 2,
      "note": 74,
      "start": 34.8654,
      "duration": 0.1424,
      "velocity": 100,
      "chip": "ym2612"
    },
    {
      "channel": 5,
      "note": 77,
      "start": 34.9486,
      "duration": 0.1602,
      "velocity": 118,
      "chip": "ym2612"
    },
    {
      "channel": 4,
      "note": 82,
      "start": 35.0158,
      "duration": 0.0494,
      "velocity": 126,
      "chip": "ym2612"
    },
    {
      "channel": 2,
      "note": 62,
      "start": 35.0322,
      "duration": 0.1422,
      "velocity": 100,
      "chip": "ym2612"
    },
    {
      "channel": 4,
      "note": 74,
      "start": 35.0652,
      "duration": 0.01,
      "velocity": 126,
      "chip": "ym2612"
    },
    {
      "channel": 5,
      "note": 77,
      "start": 35.1153,
      "duration": 0.1602,
      "velocity": 118,
      "chip": "ym2612"
    },
    {
      "channel": 2,
      "note": 74,
      "start": 35.1987,
      "duration": 0.1424,
      "velocity": 100,
      "chip": "ym2612"
    },
    {
      "channel": 5,
      "note": 77,
      "start": 35.2819,
      "duration": 0.1607,
      "velocity": 118,
      "chip": "ym2612"
    },
    {
      "channel": 4,
      "note": 65,
      "start": 35.3491,
      "duration": 0.0494,
      "velocity": 120,
      "chip": "ym2612"
    },
    {
      "channel": 2,
      "note": 60,
      "start": 35.3654,
      "duration": 0.0591,
      "velocity": 100,
      "chip": "ym2612"
    },
    {
      "channel": 4,
      "note": 53,
      "start": 35.3985,
      "duration": 0.01,
      "velocity": 120,
      "chip": "ym2612"
    },
    {
      "channel": 2,
      "note": 72,
      "start": 35.4515,
      "duration": 0.0563,
      "velocity": 100,
      "chip": "ym2612"
    },
    {
      "channel": 5,
      "note": 77,
      "start": 35.4516,
      "duration": 0.0573,
      "velocity": 118,
      "chip": "ym2612"
    },
    {
      "channel": 2,
      "note": 62,
      "start": 35.5361,
      "duration": 0.1384,
      "velocity": 100,
      "chip": "ym2612"
    },
    {
      "channel": 5,
      "note": 77,
      "start": 35.6153,
      "duration": 0.1439,
      "velocity": 118,
      "chip": "ym2612"
    },
    {
      "channel": 4,
      "note": 65,
      "start": 35.6824,
      "duration": 0.0494,
      "velocity": 120,
      "chip": "ym2612"
    },
    {
      "channel": 2,
      "note": 74,
      "start": 35.6987,
      "duration": 0.1424,
      "velocity": 100,
      "chip": "ym2612"
    },
    {
      "channel": 4,
      "note": 53,
      "start": 35.7319,
      "duration": 0.01,
      "velocity": 120,
      "chip": "ym2612"
    },
    {
      "channel": 5,
      "note": 77,
      "start": 35.7819,
      "duration": 0.1602,
      "velocity": 118,
      "chip": "ym2612"
    },
    {
      "channel": 2,
      "note": 62,
      "start": 35.8654,
      "duration": 0.1424,
      "velocity": 100,
      "chip": "ym2612"
    },
    {
      "channel": 5,
      "note": 77,
      "start": 35.9486,
      "duration": 0.1602,
      "velocity": 118,
      "chip": "ym2612"
    },
    {
      "channel": 4,
      "note": 82,
      "start": 36.0158,
      "duration": 0.0494,
      "velocity": 126,
      "chip": "ym2612"
    },
    {
      "channel": 2,
      "note": 74,
      "start": 36.0322,
      "duration": 0.1422,
      "velocity": 100,
      "chip": "ym2612"
    },
    {
      "channel": 4,
      "note": 74,
      "start": 36.0652,
      "duration": 0.01,
      "velocity": 126,
      "chip": "ym2612"
    },
    {
      "channel": 5,
      "note": 77,
      "start": 36.1153,
      "duration": 0.1602,
      "velocity": 118,
      "chip": "ym2612"
    },
    {
      "channel": 2,
      "note": 62,
      "start": 36.1987,
      "duration": 0.1424,
      "velocity": 100,
      "chip": "ym2612"
    },
    {
      "channel": 5,
      "note": 77,
      "start": 36.2819,
      "duration": 0.1602,
      "velocity": 118,
      "chip": "ym2612"
    },
    {
      "channel": 4,
      "note": 65,
      "start": 36.3491,
      "duration": 0.0494,
      "velocity": 120,
      "chip": "ym2612"
    },
    {
      "channel": 2,
      "note": 74,
      "start": 36.3654,
      "duration": 0.1425,
      "velocity": 100,
      "chip": "ym2612"
    },
    {
      "channel": 4,
      "note": 53,
      "start": 36.3985,
      "duration": 0.01,
      "velocity": 120,
      "chip": "ym2612"
    },
    {
      "channel": 5,
      "note": 77,
      "start": 36.4486,
      "duration": 0.161,
      "velocity": 118,
      "chip": "ym2612"
    },
    {
      "channel": 4,
      "note": 82,
      "start": 36.5158,
      "duration": 0.0497,
      "velocity": 126,
      "chip": "ym2612"
    },
    {
      "channel": 2,
      "note": 60,
      "start": 36.5324,
      "duration": 0.059,
      "velocity": 100,
      "chip": "ym2612"
    },
    {
      "channel": 4,
      "note": 74,
      "start": 36.5655,
      "duration": 0.0099,
      "velocity": 126,
      "chip": "ym2612"
    },
    {
      "channel": 2,
      "note": 72,
      "start": 36.6184,
      "duration": 0.0566,
      "velocity": 100,
      "chip": "ym2612"
    },
    {
      "channel": 5,
      "note": 77,
      "start": 36.6186,
      "duration": 0.0587,
      "velocity": 118,
      "chip": "ym2612"
    },
    {
      "channel": 0,
      "note": 96,
      "start": 36.6857,
      "duration": 0.0547,
      "velocity": 110,
      "chip": "ym2612"
    },
    {
      "channel": 4,
      "note": 65,
      "start": 36.6859,
      "duration": 0.0459,
      "velocity": 120,
      "chip": "ym2612"
    },
    {
      "channel": 2,
      "note": 62,
      "start": 36.7029,
      "duration": 0.1387,
      "velocity": 100,
      "chip": "ym2612"
    },
    {
      "channel": 1,
      "note": 103,
      "start": 36.7184,
      "duration": 0.0557,
      "velocity": 110,
      "chip": "ym2612"
    },
    {
      "channel": 3,
      "note": 72,
      "start": 36.7186,
      "duration": 0.223,
      "velocity": 110,
      "chip": "ym2612"
    },
    {
      "channel": 4,
      "note": 53,
      "start": 36.7319,
      "duration": 0.01,
      "velocity": 120,
      "chip": "ym2612"
    },
    {
      "channel": 0,
      "note": 103,
      "start": 36.7658,
      "duration": 0.058,
      "velocity": 110,
      "chip": "ym2612"
    },
    {
      "channel": 5,
      "note": 77,
      "start": 36.7821,
      "duration": 0.144,
      "velocity": 118,
      "chip": "ym2612"
    },
    {
      "channel": 1,
      "note": 110,
      "start": 36.7987,
      "duration": 0.0588,
      "velocity": 110,
      "chip": "ym2612"
    },
    {
      "channel": 0,
      "note": 98,
      "start": 36.8487,
      "duration": 0.0584,
      "velocity": 110,
      "chip": "ym2612"
    },
    {
      "channel": 2,
      "note": 74,
      "start": 36.8654,
      "duration": 0.1427,
      "velocity": 100,
      "chip": "ym2612"
    },
    {
      "channel": 1,
      "note": 103,
      "start": 36.882,
      "duration": 0.0588,
      "velocity": 110,
      "chip": "ym2612"
    },
    {
      "channel": 0,
      "note": 103,
      "start": 36.9321,
      "duration": 2.753,
      "velocity": 110,
      "chip": "ym2612"
    },
    {
      "channel": 5,
      "note": 77,
      "start": 36.9488,
      "duration": 0.16,
      "velocity": 118,
      "chip": "ym2612"
    },
    {
      "channel": 1,
      "note": 110,
      "start": 36.9682,
      "duration": 2.7473,
      "velocity": 110,
      "chip": "ym2612"
    },
    {
      "channel": 3,
      "note": 79,
      "start": 36.9683,
      "duration": 0.2237,
      "velocity": 110,
      "chip": "ym2612"
    },
    {
      "channel": 4,
      "note": 65,
      "start": 37.0161,
      "duration": 0.0491,
      "velocity": 120,
      "chip": "ym2612"
    },
    {
      "channel": 2,
      "note": 62,
      "start": 37.032,
      "duration": 0.1424,
      "velocity": 100,
      "chip": "ym2612"
    },
    {
      "channel": 4,
      "note": 53,
      "start": 37.0652,
      "duration": 0.01,
      "velocity": 120,
      "chip": "ym2612"
    },
    {
      "channel": 5,
      "note": 77,
      "start": 37.1153,
      "duration": 0.1602,
      "velocity": 118,
      "chip": "ym2612"
    },
    {
      "channel": 2,
      "note": 74,
      "start": 37.1988,
      "duration": 0.1424,
      "velocity": 100,
      "chip": "ym2612"
    },
    {
      "channel": 5,
      "note": 77,
      "start": 37.2819,
      "duration": 0.1602,
      "velocity": 118,
      "chip": "ym2612"
    },
    {
      "channel": 4,
      "note": 82,
      "start": 37.3491,
      "duration": 0.0494,
      "velocity": 126,
      "chip": "ym2612"
    },
    {
      "channel": 2,
      "note": 62,
      "start": 37.3656,
      "duration": 0.1422,
      "velocity": 100,
      "chip": "ym2612"
    },
    {
      "channel": 4,
      "note": 74,
      "start": 37.3985,
      "duration": 0.01,
      "velocity": 126,
      "chip": "ym2612"
    },
    {
      "channel": 5,
      "note": 77,
      "start": 37.4486,
      "duration": 0.1602,
      "velocity": 118,
      "chip": "ym2612"
    },
    {
      "channel": 2,
      "note": 74,
      "start": 37.532,
      "duration": 0.1428,
      "velocity": 100,
      "chip": "ym2612"
    },
    {
      "channel": 5,
      "note": 77,
      "start": 37.6153,
      "duration": 0.1607,
      "velocity": 118,
      "chip": "ym2612"
    },
    {
      "channel": 4,
      "note": 65,
      "start": 37.6829,
      "duration": 0.049,
      "velocity": 120,
      "chip": "ym2612"
    },
    {
      "channel": 2,
      "note": 60,
      "start": 37.6987,
      "duration": 0.0591,
      "velocity": 100,
      "chip": "ym2612"
    },
    {
      "channel": 4,
      "note": 53,
      "start": 37.7319,
      "duration": 0.01,
      "velocity": 120,
      "chip": "ym2612"
    },
    {
      "channel": 2,
      "note": 72,
      "start": 37.7848,
      "duration": 0.0563,
      "velocity": 100,
      "chip": "ym2612"
    },
    {
      "channel": 5,
      "note": 77,
      "start": 37.785,
      "duration": 0.0575,
      "velocity": 118,
      "chip": "ym2612"
    },
    {
      "channel": 2,
      "note": 62,
      "start": 37.8697,
      "duration": 0.1381,
      "velocity": 100,
      "chip": "ym2612"
    },
    {
      "channel": 3,
      "note": 79,
      "start": 37.8821,
      "duration": 1.2094,
      "velocity": 110,
      "chip": "ym2612"
    },
    {
      "channel": 5,
      "note": 77,
      "start": 37.9487,
      "duration": 0.1439,
      "velocity": 118,
      "chip": "ym2612"
    },
    {
      "channel": 4,
      "note": 65,
      "start": 38.0158,
      "duration": 0.0494,
      "velocity": 120,
      "chip": "ym2612"
    },
    {
      "channel": 2,
      "note": 74,
      "start": 38.032,
      "duration": 0.1424,
      "velocity": 100,
      "chip": "ym2612"
    },
    {
      "channel": 4,
      "note": 53,
      "start": 38.0652,
      "duration": 0.01,
      "velocity": 120,
      "chip": "ym2612"
    },
    {
      "channel": 5,
      "note": 77,
      "start": 38.1153,
      "duration": 0.1602,
      "velocity": 118,
      "chip": "ym2612"
    },
    {
      "channel": 2,
      "note": 62,
      "start": 38.1987,
      "duration": 0.1424,
      "velocity": 100,
      "chip": "ym2612"
    },
    {
      "channel": 5,
      "note": 77,
      "start": 38.2819,
      "duration": 0.1602,
      "velocity": 118,
      "chip": "ym2612"
    },
    {
      "channel": 4,
      "note": 82,
      "start": 38.3491,
      "duration": 0.0494,
      "velocity": 126,
      "chip": "ym2612"
    },
    {
      "channel": 2,
      "note": 74,
      "start": 38.3656,
      "duration": 0.1422,
      "velocity": 100,
      "chip": "ym2612"
    },
    {
      "channel": 4,
      "note": 74,
      "start": 38.3985,
      "duration": 0.01,
      "velocity": 126,
      "chip": "ym2612"
    },
    {
      "channel": 5,
      "note": 77,
      "start": 38.4486,
      "duration": 0.1602,
      "velocity": 118,
      "chip": "ym2612"
    },
    {
      "channel": 2,
      "note": 62,
      "start": 38.532,
      "duration": 0.1424,
      "velocity": 100,
      "chip": "ym2612"
    },
    {
      "channel": 5,
      "note": 77,
      "start": 38.6153,
      "duration": 0.1602,
      "velocity": 118,
      "chip": "ym2612"
    },
    {
      "channel": 4,
      "note": 65,
      "start": 38.6824,
      "duration": 0.0494,
      "velocity": 120,
      "chip": "ym2612"
    },
    {
      "channel": 2,
      "note": 74,
      "start": 38.6987,
      "duration": 0.1424,
      "velocity": 100,
      "chip": "ym2612"
    },
    {
      "channel": 4,
      "note": 53,
      "start": 38.7319,
      "duration": 0.01,
      "velocity": 120,
      "chip": "ym2612"
    },
    {
      "channel": 5,
      "note": 77,
      "start": 38.7819,
      "duration": 0.1607,
      "velocity": 118,
      "chip": "ym2612"
    },
    {
      "channel": 4,
      "note": 82,
      "start": 38.8491,
      "duration": 0.0494,
      "velocity": 126,
      "chip": "ym2612"
    },
    {
      "channel": 2,
      "note": 60,
      "start": 38.8656,
      "duration": 0.0589,
      "velocity": 100,
      "chip": "ym2612"
    },
    {
      "channel": 4,
      "note": 74,
      "start": 38.8985,
      "duration": 0.01,
      "velocity": 126,
      "chip": "ym2612"
    },
    {
      "channel": 2,
      "note": 72,
      "start": 38.9515,
      "duration": 0.0563,
      "velocity": 100,
      "chip": "ym2612"
    },
    {
      "channel": 5,
      "note": 77,
      "start": 38.9516,
      "duration": 0.0583,
      "velocity": 118,
      "chip": "ym2612"
    },
    {
      "channel": 4,
      "note": 65,
      "start": 39.0161,
      "duration": 0.0491,
      "velocity": 120,
      "chip": "ym2612"
    },
    {
      "channel": 2,
      "note": 62,
      "start": 39.0361,
      "duration": 0.1384,
      "velocity": 100,
      "chip": "ym2612"
    },
    {
      "channel": 4,
      "note": 53,
      "start": 39.0652,
      "duration": 0.01,
      "velocity": 120,
      "chip": "ym2612"
    },
    {
      "channel": 5,
      "note": 77,
      "start": 39.1154,
      "duration": 0.1434,
      "velocity": 118,
      "chip": "ym2612"
    },
    {
      "channel": 2,
      "note": 74,
      "start": 39.1988,
      "duration": 0.1424,
      "velocity": 100,
      "chip": "ym2612"
    },
    {
      "channel": 5,
      "note": 77,
      "start": 39.2819,
      "duration": 0.1602,
      "velocity": 118,
      "chip": "ym2612"
    },
    {
      "channel": 4,
      "note": 65,
      "start": 39.3491,
      "duration": 0.0494,
      "velocity": 120,
      "chip": "ym2612"
    },
    {
      "channel": 2,
      "note": 62,
      "start": 39.3654,
      "duration": 0.1424,
      "velocity": 100,
      "chip": "ym2612"
    },
    {
      "channel": 4,
      "note": 53,
      "start": 39.3985,
      "duration": 0.01,
      "velocity": 120,
      "chip": "ym2612"
    },
    {
      "channel": 5,
      "note": 77,
      "start": 39.4486,
      "duration": 0.1602,
      "velocity": 118,
      "chip": "ym2612"
    },
    {
      "channel": 2,
      "note": 74,
      "start": 39.532,
      "duration": 0.1428,
      "velocity": 100,
      "chip": "ym2612"
    },
    {
      "channel": 5,
      "note": 77,
      "start": 39.6153,
      "duration": 0.1602,
      "velocity": 118,
      "chip": "ym2612"
    },
    {
      "channel": 0,
      "note": 103,
      "start": 39.6851,
      "duration": 0.4553,
      "velocity": 110,
      "chip": "ym2612"
    },
    {
      "channel": 4,
      "note": 82,
      "start": 39.6854,
      "duration": 0.0465,
      "velocity": 126,
      "chip": "ym2612"
    },
    {
      "channel": 2,
      "note": 62,
      "start": 39.6989,
      "duration": 0.1422,
      "velocity": 100,
      "chip": "ym2612"
    },
    {
      "channel": 1,
      "note": 110,
      "start": 39.7155,
      "duration": 0.4591,
      "velocity": 110,
      "chip": "ym2612"
    },
    {
      "channel": 4,
      "note": 74,
      "start": 39.7319,
      "duration": 0.01,
      "velocity": 126,
      "chip": "ym2612"
    },
    {
      "channel": 5,
      "note": 77,
      "start": 39.7819,
      "duration": 0.1602,
      "velocity": 118,
      "chip": "ym2612"
    },
    {
      "channel": 2,
      "note": 74,
      "start": 39.8654,
      "duration": 0.1424,
      "velocity": 100,
      "chip": "ym2612"
    },
    {
      "channel": 5,
      "note": 77,
      "start": 39.9486,
      "duration": 0.1607,
      "velocity": 118,
      "chip": "ym2612"
    },
    {
      "channel": 4,
      "note": 65,
      "start": 40.0158,
      "duration": 0.0494,
      "velocity": 120,
      "chip": "ym2612"
    },
    {
      "channel": 2,
      "note": 60,
      "start": 40.032,
      "duration": 0.0591,
      "velocity": 100,
      "chip": "ym2612"
    },
    {
      "channel": 4,
      "note": 53,
      "start": 40.0652,
      "duration": 0.01,
      "velocity": 120,
      "chip": "ym2612"
    },
    {
      "channel": 2,
      "note": 72,
      "start": 40.1181,
      "duration": 0.0569,
      "velocity": 100,
      "chip": "ym2612"
    },
    {
      "channel": 5,
      "note": 77,
      "start": 40.1183,
      "duration": 0.058,
      "velocity": 118,
      "chip": "ym2612"
    },
    {
      "channel": 0,
      "note": 101,
      "start": 40.1824,
      "duration": 1.333,
      "velocity": 110,
      "chip": "ym2612"
    },
    {
      "channel": 2,
      "note": 62,
      "start": 40.2029,
      "duration": 0.1382,
      "velocity": 100,
      "chip": "ym2612"
    },
    {
      "channel": 1,
      "note": 108,
      "start": 40.2182,
      "duration": 1.3307,
      "velocity": 110,
      "chip": "ym2612"
    },
    {
      "channel": 3,
      "note": 77,
      "start": 40.2183,
      "duration": 1.2066,
      "velocity": 110,
      "chip": "ym2612"
    },
    {
      "channel": 5,
      "note": 77,
      "start": 40.282,
      "duration": 0.1439,
      "velocity": 118,
      "chip": "ym2612"
    },
    {
      "channel": 4,
      "note": 65,
      "start": 40.3491,
      "duration": 0.0494,
      "velocity": 120,
      "chip": "ym2612"
    },
    {
      "channel": 2,
      "note": 74,
      "start": 40.3654,
      "duration": 0.1424,
      "velocity": 100,
      "chip": "ym2612"
    },
    {
      "channel": 4,
      "note": 53,
      "start": 40.3985,
      "duration": 0.01,
      "velocity": 120,
      "chip": "ym2612"
    },
    {
      "channel": 5,
      "note": 77,
      "start": 40.4486,
      "duration": 0.1602,
      "velocity": 118,
      "chip": "ym2612"
    },
    {
      "channel": 2,
      "note": 62,
      "start": 40.532,
      "duration": 0.1424,
      "velocity": 100,
      "chip": "ym2612"
    },
    {
      "channel": 5,
      "note": 77,
      "start": 40.6153,
      "duration": 0.1602,
      "velocity": 118,
      "chip": "ym2612"
    },
    {
      "channel": 4,
      "note": 82,
      "start": 40.6824,
      "duration": 0.0494,
      "velocity": 126,
      "chip": "ym2612"
    },
    {
      "channel": 2,
      "note": 74,
      "start": 40.6989,
      "duration": 0.1422,
      "velocity": 100,
      "chip": "ym2612"
    },
    {
      "channel": 4,
      "note": 74,
      "start": 40.7319,
      "duration": 0.01,
      "velocity": 126,
      "chip": "ym2612"
    },
    {
      "channel": 5,
      "note": 77,
      "start": 40.7819,
      "duration": 0.1602,
      "velocity": 118,
      "chip": "ym2612"
    },
    {
      "channel": 2,
      "note": 62,
      "start": 40.8654,
      "duration": 0.1424,
      "velocity": 100,
      "chip": "ym2612"
    },
    {
      "channel": 5,
      "note": 77,
      "start": 40.9486,
      "duration": 0.1602,
      "velocity": 118,
      "chip": "ym2612"
    },
    {
      "channel": 4,
      "note": 65,
      "start": 41.0158,
      "duration": 0.0494,
      "velocity": 120,
      "chip": "ym2612"
    },
    {
      "channel": 2,
      "note": 74,
      "start": 41.032,
      "duration": 0.1424,
      "velocity": 100,
      "chip": "ym2612"
    },
    {
      "channel": 4,
      "note": 53,
      "start": 41.0652,
      "duration": 0.01,
      "velocity": 120,
      "chip": "ym2612"
    },
    {
      "channel": 5,
      "note": 77,
      "start": 41.1153,
      "duration": 0.1607,
      "velocity": 118,
      "chip": "ym2612"
    },
    {
      "channel": 4,
      "note": 82,
      "start": 41.1824,
      "duration": 0.0494,
      "velocity": 126,
      "chip": "ym2612"
    },
    {
      "channel": 2,
      "note": 60,
      "start": 41.1989,
      "duration": 0.0589,
      "velocity": 100,
      "chip": "ym2612"
    },
    {
      "channel": 4,
      "note": 74,
      "start": 41.2319,
      "duration": 0.01,
      "velocity": 126,
      "chip": "ym2612"
    },
    {
      "channel": 2,
      "note": 72,
      "start": 41.2848,
      "duration": 0.0563,
      "velocity": 100,
      "chip": "ym2612"
    },
    {
      "channel": 5,
      "note": 77,
      "start": 41.285,
      "duration": 0.0585,
      "velocity": 118,
      "chip": "ym2612"
    },
    {
      "channel": 4,
      "note": 65,
      "start": 41.3495,
      "duration": 0.049,
      "velocity": 120,
      "chip": "ym2612"
    },
    {
      "channel": 2,
      "note": 62,
      "start": 41.3695,
      "duration": 0.1387,
      "velocity": 100,
      "chip": "ym2612"
    },
    {
      "channel": 4,
      "note": 53,
      "start": 41.3986,
      "duration": 0.0099,
      "velocity": 120,
      "chip": "ym2612"
    },
    {
      "channel": 5,
      "note": 77,
      "start": 41.4488,
      "duration": 0.1434,
      "velocity": 118,
      "chip": "ym2612"
    },
    {
      "channel": 0,
      "note": 101,
      "start": 41.5154,
      "duration": 0.9083,
      "velocity": 110,
      "chip": "ym2612"
    },
    {
      "channel": 2,
      "note": 74,
      "start": 41.5321,
      "duration": 0.1424,
      "velocity": 100,
      "chip": "ym2612"
    },
    {
      "channel": 1,
      "note": 108,
      "start": 41.5489,
      "duration": 0.9086,
      "velocity": 110,
      "chip": "ym2612"
    },
    {
      "channel": 5,
      "note": 77,
      "start": 41.6153,
      "duration": 0.1602,
      "velocity": 118,
      "chip": "ym2612"
    },
    {
      "channel": 4,
      "note": 65,
      "start": 41.6824,
      "duration": 0.0494,
      "velocity": 120,
      "chip": "ym2612"
    },
    {
      "channel": 2,
      "note": 62,
      "start": 41.6987,
      "duration": 0.1424,
      "velocity": 100,
      "chip": "ym2612"
    },
    {
      "channel": 4,
      "note": 53,
      "start": 41.7319,
      "duration": 0.01,
      "velocity": 120,
      "chip": "ym2612"
    },
    {
      "channel": 5,
      "note": 77,
      "start": 41.7819,
      "duration": 0.1602,
      "velocity": 118,
      "chip": "ym2612"
    },
    {
      "channel": 2,
      "note": 74,
      "start": 41.8654,
      "duration": 0.1424,
      "velocity": 100,
      "chip": "ym2612"
    },
    {
      "channel": 5,
      "note": 77,
      "start": 41.9486,
      "duration": 0.1602,
      "velocity": 118,
      "chip": "ym2612"
    },
    {
      "channel": 4,
      "note": 82,
      "start": 42.0158,
      "duration": 0.0494,
      "velocity": 126,
      "chip": "ym2612"
    },
    {
      "channel": 2,
      "note": 62,
      "start": 42.0322,
      "duration": 0.1422,
      "velocity": 100,
      "chip": "ym2612"
    },
    {
      "channel": 4,
      "note": 74,
      "start": 42.0652,
      "duration": 0.01,
      "velocity": 126,
      "chip": "ym2612"
    },
    {
      "channel": 5,
      "note": 77,
      "start": 42.1153,
      "duration": 0.1602,
      "velocity": 118,
      "chip": "ym2612"
    },
    {
      "channel": 2,
      "note": 74,
      "start": 42.1987,
      "duration": 0.1424,
      "velocity": 100,
      "chip": "ym2612"
    },
    {
      "channel": 5,
      "note": 77,
      "start": 42.2819,
      "duration": 0.1608,
      "velocity": 118,
      "chip": "ym2612"
    },
    {
      "channel": 4,
      "note": 65,
      "start": 42.3491,
      "duration": 0.0494,
      "velocity": 120,
      "chip": "ym2612"
    },
    {
      "channel": 2,
      "note": 60,
      "start": 42.3654,
      "duration": 0.0592,
      "velocity": 100,
      "chip": "ym2612"
    },
    {
      "channel": 4,
      "note": 53,
      "start": 42.3985,
      "duration": 0.01,
      "velocity": 120,
      "chip": "ym2612"
    },
    {
      "channel": 2,
      "note": 72,
      "start": 42.4516,
      "duration": 0.0567,
      "velocity": 100,
      "chip": "ym2612"
    },
    {
      "channel": 5,
      "note": 77,
      "start": 42.4517,
      "duration": 0.0579,
      "velocity": 118,
      "chip": "ym2612"
    },
    {
      "channel": 0,
      "note": 98,
      "start": 42.5157,
      "duration": 0.0581,
      "velocity": 110,
      "chip": "ym2612"
    },
    {
      "channel": 2,
      "note": 62,
      "start": 42.5365,
      "duration": 0.1384,
      "velocity": 100,
      "chip": "ym2612"
    },
    {
      "channel": 1,
      "note": 105,
      "start": 42.5515,
      "duration": 0.056,
      "velocity": 110,
      "chip": "ym2612"
    },
    {
      "channel": 3,
      "note": 74,
      "start": 42.5516,
      "duration": 0.3071,
      "velocity": 110,
      "chip": "ym2612"
    },
    {
      "channel": 0,
      "note": 96,
      "start": 42.5987,
      "duration": 0.0584,
      "velocity": 110,
      "chip": "ym2612"
    },
    {
      "channel": 5,
      "note": 77,
      "start": 42.6154,
      "duration": 0.1443,
      "velocity": 118,
      "chip": "ym2612"
    },
    {
      "channel": 1,
      "note": 103,
      "start": 42.632,
      "duration": 0.0588,
      "velocity": 110,
      "chip": "ym2612"
    },
    {
      "channel": 0,
      "note": 98,
      "start": 42.6852,
      "duration": 0.0553,
      "velocity": 110,
      "chip": "ym2612"
    },
    {
      "channel": 4,
      "note": 65,
      "start": 42.6854,
      "duration": 0.0464,
      "velocity": 120,
      "chip": "ym2612"
    },
    {
      "channel": 2,
      "note": 74,
      "start": 42.6988,
      "duration": 0.1429,
      "velocity": 100,
      "chip": "ym2612"
    },
    {
      "channel": 1,
      "note": 105,
      "start": 42.7156,
      "duration": 0.0585,
      "velocity": 110,
      "chip": "ym2612"
    },
    {
      "channel": 4,
      "note": 53,
      "start": 42.7319,
      "duration": 0.01,
      "velocity": 120,
      "chip": "ym2612"
    },
    {
      "channel": 0,
      "note": 96,
      "start": 42.7658,
      "duration": 0.058,
      "velocity": 110,
      "chip": "ym2612"
    },
    {
      "channel": 5,
      "note": 77,
      "start": 42.782,
      "duration": 0.1601,
      "velocity": 118,
      "chip": "ym2612"
    },
    {
      "channel": 1,
      "note": 103,
      "start": 42.7987,
      "duration": 0.0588,
      "velocity": 110,
      "chip": "ym2612"
    },
    {
      "channel": 0,
      "note": 98,
      "start": 42.8488,
      "duration": 1.8364,
      "velocity": 110,
      "chip": "ym2612"
    },
    {
      "channel": 2,
      "note": 62,
      "start": 42.8656,
      "duration": 0.1422,
      "velocity": 100,
      "chip": "ym2612"
    },
    {
      "channel": 1,
      "note": 105,
      "start": 42.8849,
      "duration": 1.8307,
      "velocity": 110,
      "chip": "ym2612"
    },
    {
      "channel": 3,
      "note": 74,
      "start": 42.885,
      "duration": 1.2066,
      "velocity": 110,
      "chip": "ym2612"
    },
    {
      "channel": 5,
      "note": 77,
      "start": 42.9486,
      "duration": 0.1602,
      "velocity": 118,
      "chip": "ym2612"
    },
    {
      "channel": 4,
      "note": 82,
      "start": 43.0158,
      "duration": 0.0494,
      "velocity": 126,
      "chip": "ym2612"
    },
    {
      "channel": 2,
      "note": 74,
      "start": 43.0322,
      "duration": 0.1422,
      "velocity": 100,
      "chip": "ym2612"
    },
    {
      "channel": 4,
      "note": 74,
      "start": 43.0652,
      "duration": 0.01,
      "velocity": 126,
      "chip": "ym2612"
    },
    {
      "channel": 5,
      "note": 77,
      "start": 43.1153,
      "duration": 0.1602,
      "velocity": 118,
      "chip": "ym2612"
    },
    {
      "channel": 2,
      "note": 62,
      "start": 43.1987,
      "duration": 0.1424,
      "velocity": 100,
      "chip": "ym2612"
    },
    {
      "channel": 5,
      "note": 77,
      "start": 43.2819,
      "duration": 0.1602,
      "velocity": 118,
      "chip": "ym2612"
    },
    {
      "channel": 4,
      "note": 65,
      "start": 43.3491,
      "duration": 0.0494,
      "velocity": 120,
      "chip": "ym2612"
    },
    {
      "channel": 2,
      "note": 74,
      "start": 43.3654,
      "duration": 0.1424,
      "velocity": 100,
      "chip": "ym2612"
    },
    {
      "channel": 4,
      "note": 53,
      "start": 43.3985,
      "duration": 0.01,
      "velocity": 120,
      "chip": "ym2612"
    },
    {
      "channel": 5,
      "note": 77,
      "start": 43.4486,
      "duration": 0.1607,
      "velocity": 118,
      "chip": "ym2612"
    },
    {
      "channel": 4,
      "note": 82,
      "start": 43.5158,
      "duration": 0.0494,
      "velocity": 126,
      "chip": "ym2612"
    },
    {
      "channel": 2,
      "note": 60,
      "start": 43.5322,
      "duration": 0.0589,
      "velocity": 100,
      "chip": "ym2612"
    },
    {
      "channel": 4,
      "note": 74,
      "start": 43.5652,
      "duration": 0.01,
      "velocity": 126,
      "chip": "ym2612"
    },
    {
      "channel": 2,
      "note": 72,
      "start": 43.6181,
      "duration": 0.0563,
      "velocity": 100,
      "chip": "ym2612"
    },
    {
      "channel": 5,
      "note": 77,
      "start": 43.6183,
      "duration": 0.0583,
      "velocity": 118,
      "chip": "ym2612"
    },
    {
      "channel": 4,
      "note": 65,
      "start": 43.6827,
      "duration": 0.0491,
      "velocity": 120,
      "chip": "ym2612"
    },
    {
      "channel": 2,
      "note": 62,
      "start": 43.7027,
      "duration": 0.1384,
      "velocity": 100,
      "chip": "ym2612"
    },
    {
      "channel": 4,
      "note": 53,
      "start": 43.7319,
      "duration": 0.01,
      "velocity": 120,
      "chip": "ym2612"
    },
    {
      "channel": 5,
      "note": 77,
      "start": 43.782,
      "duration": 0.1436,
      "velocity": 118,
      "chip": "ym2612"
    },
    {
      "channel": 2,
      "note": 74,
      "start": 43.8654,
      "duration": 0.1424,
      "velocity": 100,
      "chip": "ym2612"
    },
    {
      "channel": 5,
      "note": 77,
      "start": 43.9486,
      "duration": 0.1604,
      "velocity": 118,
      "chip": "ym2612"
    },
    {
      "channel": 4,
      "note": 65,
      "start": 44.0158,
      "duration": 0.0495,
      "velocity": 120,
      "chip": "ym2612"
    },
    {
      "channel": 2,
      "note": 62,
      "start": 44.032,
      "duration": 0.1428,
      "velocity": 100,
      "chip": "ym2612"
    },
    {
      "channel": 4,
      "note": 53,
      "start": 44.0653,
      "duration": 0.0099,
      "velocity": 120,
      "chip": "ym2612"
    },
    {
      "channel": 5,
      "note": 77,
      "start": 44.1154,
      "duration": 0.1601,
      "velocity": 118,
      "chip": "ym2612"
    },
    {
      "channel": 2,
      "note": 74,
      "start": 44.1988,
      "duration": 0.1424,
      "velocity": 100,
      "chip": "ym2612"
    },
    {
      "channel": 5,
      "note": 77,
      "start": 44.2819,
      "duration": 0.1602,
      "velocity": 118,
      "chip": "ym2612"
    },
    {
      "channel": 4,
      "note": 82,
      "start": 44.3491,
      "duration": 0.0494,
      "velocity": 126,
      "chip": "ym2612"
    },
    {
      "channel": 2,
      "note": 62,
      "start": 44.3656,
      "duration": 0.1422,
      "velocity": 100,
      "chip": "ym2612"
    },
    {
      "channel": 4,
      "note": 74,
      "start": 44.3985,
      "duration": 0.01,
      "velocity": 126,
      "chip": "ym2612"
    },
    {
      "channel": 5,
      "note": 77,
      "start": 44.4486,
      "duration": 0.1602,
      "velocity": 118,
      "chip": "ym2612"
    },
    {
      "channel": 2,
      "note": 74,
      "start": 44.5321,
      "duration": 0.1427,
      "velocity": 100,
      "chip": "ym2612"
    },
    {
      "channel": 3,
      "note": 74,
      "start": 44.5487,
      "duration": 0.3103,
      "velocity": 110,
      "chip": "ym2612"
    },
    {
      "channel": 5,
      "note": 77,
      "start": 44.6153,
      "duration": 0.1607,
      "velocity": 118,
      "chip": "ym2612"
    },
    {
      "channel": 0,
      "note": 98,
      "start": 44.6852,
      "duration": 0.1386,
      "velocity": 110,
      "chip": "ym2612"
    },
    {
      "channel": 4,
      "note": 65,
      "start": 44.6854,
      "duration": 0.0464,
      "velocity": 120,
      "chip": "ym2612"
    },
    {
      "channel": 2,
      "note": 60,
      "start": 44.6987,
      "duration": 0.0591,
      "velocity": 100,
      "chip": "ym2612"
    },
    {
      "channel": 1,
      "note": 105,
      "start": 44.7156,
      "duration": 0.1419,
      "velocity": 110,
      "chip": "ym2612"
    },
    {
      "channel": 4,
      "note": 53,
      "start": 44.7319,
      "duration": 0.01,
      "velocity": 120,
      "chip": "ym2612"
    },
    {
      "channel": 2,
      "note": 72,
      "start": 44.7848,
      "duration": 0.0567,
      "velocity": 100,
      "chip": "ym2612"
    },
    {
      "channel": 5,
      "note": 77,
      "start": 44.785,
      "duration": 0.0576,
      "velocity": 118,
      "chip": "ym2612"
    },
    {
      "channel": 2,
      "note": 62,
      "start": 44.8696,
      "duration": 0.1382,
      "velocity": 100,
      "chip": "ym2612"
    },
    {
      "channel": 5,
      "note": 77,
      "start": 44.9487,
      "duration": 0.1439,
      "velocity": 118,
      "chip": "ym2612"
    },
    {
      "channel": 4,
      "note": 65,
      "start": 45.0158,
      "duration": 0.0494,
      "velocity": 120,
      "chip": "ym2612"
    },
    {
      "channel": 2,
      "note": 74,
      "start": 45.032,
      "duration": 0.1424,
      "velocity": 100,
      "chip": "ym2612"
    },
    {
      "channel": 4,
      "note": 53,
      "start": 45.0652,
      "duration": 0.01,
      "velocity": 120,
      "chip": "ym2612"
    },
    {
      "channel": 5,
      "note": 77,
      "start": 45.1153,
      "duration": 0.1602,
      "velocity": 118,
      "chip": "ym2612"
    },
    {
      "channel": 2,
      "note": 62,
      "start": 45.1987,
      "duration": 0.1424,
      "velocity": 100,
      "chip": "ym2612"
    },
    {
      "channel": 5,
      "note": 77,
      "start": 45.2819,
      "duration": 0.1602,
      "velocity": 118,
      "chip": "ym2612"
    },
    {
      "channel": 4,
      "note": 82,
      "start": 45.3491,
      "duration": 0.0494,
      "velocity": 126,
      "chip": "ym2612"
    },
    {
      "channel": 2,
      "note": 74,
      "start": 45.3656,
      "duration": 0.1422,
      "velocity": 100,
      "chip": "ym2612"
    },
    {
      "channel": 4,
      "note": 74,
      "start": 45.3985,
      "duration": 0.01,
      "velocity": 126,
      "chip": "ym2612"
    },
    {
      "channel": 5,
      "note": 77,
      "start": 45.4486,
      "duration": 0.1602,
      "velocity": 118,
      "chip": "ym2612"
    },
    {
      "channel": 2,
      "note": 62,
      "start": 45.532,
      "duration": 0.1424,
      "velocity": 100,
      "chip": "ym2612"
    },
    {
      "channel": 5,
      "note": 77,
      "start": 45.6153,
      "duration": 0.1604,
      "velocity": 118,
      "chip": "ym2612"
    },
    {
      "channel": 4,
      "note": 65,
      "start": 45.6824,
      "duration": 0.0494,
      "velocity": 120,
      "chip": "ym2612"
    },
    {
      "channel": 2,
      "note": 74,
      "start": 45.6987,
      "duration": 0.1428,
      "velocity": 100,
      "chip": "ym2612"
    },
    {
      "channel": 4,
      "note": 53,
      "start": 45.7319,
      "duration": 0.01,
      "velocity": 120,
      "chip": "ym2612"
    },
    {
      "channel": 5,
      "note": 77,
      "start": 45.782,
      "duration": 0.1606,
      "velocity": 118,
      "chip": "ym2612"
    },
    {
      "channel": 4,
      "note": 82,
      "start": 45.8496,
      "duration": 0.0489,
      "velocity": 126,
      "chip": "ym2612"
    },
    {
      "channel": 2,
      "note": 60,
      "start": 45.8658,
      "duration": 0.0587,
      "velocity": 100,
      "chip": "ym2612"
    },
    {
      "channel": 4,
      "note": 74,
      "start": 45.8985,
      "duration": 0.01,
      "velocity": 126,
      "chip": "ym2612"
    },
    {
      "channel": 2,
      "note": 72,
      "start": 45.9515,
      "duration": 0.0567,
      "velocity": 100,
      "chip": "ym2612"
    },
    {
      "channel": 5,
      "note": 77,
      "start": 45.9516,
      "duration": 0.0587,
      "velocity": 118,
      "chip": "ym2612"
    },
    {
      "channel": 4,
      "note": 65,
      "start": 46.0164,
      "duration": 0.0488,
      "velocity": 120,
      "chip": "ym2612"
    },
    {
      "channel": 2,
      "note": 62,
      "start": 46.0362,
      "duration": 0.1382,
      "velocity": 100,
      "chip": "ym2612"
    },
    {
      "channel": 4,
      "note": 53,
      "start": 46.0652,
      "duration": 0.01,
      "velocity": 120,
      "chip": "ym2612"
    },
    {
      "channel": 5,
      "note": 77,
      "start": 46.1153,
      "duration": 0.1436,
      "velocity": 118,
      "chip": "ym2612"
    },
    {
      "channel": 2,
      "note": 74,
      "start": 46.1987,
      "duration": 0.1424,
      "velocity": 100,
      "chip": "ym2612"
    },
    {
      "channel": 5,
      "note": 77,
      "start": 46.2819,
      "duration": 0.1602,
      "velocity": 118,
      "chip": "ym2612"
    },
    {
      "channel": 4,
      "note": 65,
      "start": 46.3491,
      "duration": 0.0494,
      "velocity": 120,
      "chip": "ym2612"
    },
    {
      "channel": 2,
      "note": 62,
      "start": 46.3654,
      "duration": 0.1424,
      "velocity": 100,
      "chip": "ym2612"
    },
    {
      "channel": 4,
      "note": 53,
      "start": 46.3985,
      "duration": 0.01,
      "velocity": 120,
      "chip": "ym2612"
    },
    {
      "channel": 5,
      "note": 77,
      "start": 46.4486,
      "duration": 0.1602,
      "velocity": 118,
      "chip": "ym2612"
    },
    {
      "channel": 2,
      "note": 74,
      "start": 46.532,
      "duration": 0.1424,
      "velocity": 100,
      "chip": "ym2612"
    },
    {
      "channel": 5,
      "note": 77,
      "start": 46.6153,
      "duration": 0.1602,
      "velocity": 118,
      "chip": "ym2612"
    },
    {
      "channel": 4,
      "note": 82,
      "start": 46.6824,
      "duration": 0.0494,
      "velocity": 126,
      "chip": "ym2612"
    },
    {
      "channel": 2,
      "note": 62,
      "start": 46.6989,
      "duration": 0.1422,
      "velocity": 100,
      "chip": "ym2612"
    },
    {
      "channel": 4,
      "note": 74,
      "start": 46.7319,
      "duration": 0.01,
      "velocity": 126,
      "chip": "ym2612"
    },
    {
      "channel": 5,
      "note": 77,
      "start": 46.7819,
      "duration": 0.1604,
      "velocity": 118,
      "chip": "ym2612"
    },
    {
      "channel": 2,
      "note": 74,
      "start": 46.8654,
      "duration": 0.1428,
      "velocity": 100,
      "chip": "ym2612"
    },
    {
      "channel": 5,
      "note": 77,
      "start": 46.9487,
      "duration": 0.1606,
      "velocity": 118,
      "chip": "ym2612"
    },
    {
      "channel": 4,
      "note": 65,
      "start": 47.0163,
      "duration": 0.0489,
      "velocity": 120,
      "chip": "ym2612"
    },
    {
      "channel": 2,
      "note": 60,
      "start": 47.0322,
      "duration": 0.0589,
      "velocity": 100,
      "chip": "ym2612"
    },
    {
      "channel": 4,
      "note": 53,
      "start": 47.0652,
      "duration": 0.01,
      "velocity": 120,
      "chip": "ym2612"
    },
    {
      "channel": 2,
      "note": 72,
      "start": 47.1181,
      "duration": 0.0567,
      "velocity": 100,
      "chip": "ym2612"
    },
    {
      "channel": 5,
      "note": 77,
      "start": 47.1183,
      "duration": 0.0576,
      "velocity": 118,
      "chip": "ym2612"
    },
    {
      "channel": 2,
      "note": 62,
      "start": 47.2032,
      "duration": 0.138,
      "velocity": 100,
      "chip": "ym2612"
    },
    {
      "channel": 5,
      "note": 77,
      "start": 47.282,
      "duration": 0.1439,
      "velocity": 118,
      "chip": "ym2612"
    },
    {
      "channel": 4,
      "note": 65,
      "start": 47.3491,
      "duration": 0.0494,
      "velocity": 120,
      "chip": "ym2612"
    },
    {
      "channel": 2,
      "note": 74,
      "start": 47.3654,
      "duration": 0.1424,
      "velocity": 100,
      "chip": "ym2612"
    },
    {
      "channel": 4,
      "note": 53,
      "start": 47.3985,
      "duration": 0.01,
      "velocity": 120,
      "chip": "ym2612"
    },
    {
      "channel": 5,
      "note": 77,
      "start": 47.4486,
      "duration": 0.1602,
      "velocity": 118,
      "chip": "ym2612"
    },
    {
      "channel": 2,
      "note": 62,
      "start": 47.532,
      "duration": 0.1424,
      "velocity": 100,
      "chip": "ym2612"
    },
    {
      "channel": 5,
      "note": 77,
      "start": 47.6153,
      "duration": 0.1602,
      "velocity": 118,
      "chip": "ym2612"
    },
    {
      "channel": 4,
      "note": 82,
      "start": 47.6824,
      "duration": 0.0494,
      "velocity": 126,
      "chip": "ym2612"
    },
    {
      "channel": 2,
      "note": 74,
      "start": 47.6989,
      "duration": 0.1422,
      "velocity": 100,
      "chip": "ym2612"
    },
    {
      "channel": 4,
      "note": 74,
      "start": 47.7319,
      "duration": 0.01,
      "velocity": 126,
      "chip": "ym2612"
    },
    {
      "channel": 5,
      "note": 77,
      "start": 47.7819,
      "duration": 0.1602,
      "velocity": 118,
      "chip": "ym2612"
    },
    {
      "channel": 2,
      "note": 62,
      "start": 47.8654,
      "duration": 0.1424,
      "velocity": 100,
      "chip": "ym2612"
    },
    {
      "channel": 5,
      "note": 77,
      "start": 47.9486,
      "duration": 0.1604,
      "velocity": 118,
      "chip": "ym2612"
    },
    {
      "channel": 4,
      "note": 65,
      "start": 48.0158,
      "duration": 0.0494,
      "velocity": 120,
      "chip": "ym2612"
    },
    {
      "channel": 2,
      "note": 74,
      "start": 48.032,
      "duration": 0.1428,
      "velocity": 100,
      "chip": "ym2612"
    },
    {
      "channel": 4,
      "note": 53,
      "start": 48.0652,
      "duration": 0.01,
      "velocity": 120,
      "chip": "ym2612"
    },
    {
      "channel": 5,
      "note": 77,
      "start": 48.1154,
      "duration": 0.1606,
      "velocity": 118,
      "chip": "ym2612"
    },
    {
      "channel": 4,
      "note": 82,
      "start": 48.1829,
      "duration": 0.0489,
      "velocity": 126,
      "chip": "ym2612"
    },
    {
      "channel": 2,
      "note": 60,
      "start": 48.1991,
      "duration": 0.0587,
      "velocity": 100,
      "chip": "ym2612"
    },
    {
      "channel": 4,
      "note": 74,
      "start": 48.2319,
      "duration": 0.01,
      "velocity": 126,
      "chip": "ym2612"
    },
    {
      "channel": 2,
      "note": 72,
      "start": 48.2848,
      "duration": 0.0568,
      "velocity": 100,
      "chip": "ym2612"
    },
    {
      "channel": 5,
      "note": 77,
      "start": 48.285,
      "duration": 0.0588,
      "velocity": 118,
      "chip": "ym2612"
    },
    {
      "channel": 0,
      "note": 93,
      "start": 48.3522,
      "duration": 0.1382,
      "velocity": 110,
      "chip": "ym2612"
    },
    {
      "channel": 4,
      "note": 65,
      "start": 48.3524,
      "duration": 0.0461,
      "velocity": 120,
      "chip": "ym2612"
    },
    {
      "channel": 2,
      "note": 62,
      "start": 48.3696,
      "duration": 0.1387,
      "velocity": 100,
      "chip": "ym2612"
    },
    {
      "channel": 1,
      "note": 105,
      "start": 48.385,
      "duration": 0.1391,
      "velocity": 110,
      "chip": "ym2612"
    },
    {
      "channel": 3,
      "note": 81,
      "start": 48.3852,
      "duration": 0.9062,
      "velocity": 110,
      "chip": "ym2612"
    },
    {
      "channel": 4,
      "note": 53,
      "start": 48.3985,
      "duration": 0.01,
      "velocity": 120,
      "chip": "ym2612"
    },
    {
      "channel": 5,
      "note": 77,
      "start": 48.4487,
      "duration": 0.1436,
      "velocity": 118,
      "chip": "ym2612"
    },
    {
      "channel": 0,
      "note": 91,
      "start": 48.5154,
      "duration": 0.1417,
      "velocity": 110,
      "chip": "ym2612"
    },
    {
      "channel": 2,
      "note": 74,
      "start": 48.5321,
      "duration": 0.1428,
      "velocity": 100,
      "chip": "ym2612"
    },
    {
      "channel": 1,
      "note": 103,
      "start": 48.5487,
      "duration": 0.1421,
      "velocity": 110,
      "chip": "ym2612"
    },
    {
      "channel": 5,
      "note": 77,
      "start": 48.6153,
      "duration": 0.1602,
      "velocity": 118,
      "chip": "ym2612"
    },
    {
      "channel": 0,
      "note": 93,
      "start": 48.6852,
      "duration": 0.1386,
      "velocity": 110,
      "chip": "ym2612"
    },
    {
      "channel": 4,
      "note": 65,
      "start": 48.6854,
      "duration": 0.0464,
      "velocity": 120,
      "chip": "ym2612"
    },
    {
      "channel": 2,
      "note": 62,
      "start": 48.6988,
      "duration": 0.1428,
      "velocity": 100,
      "chip": "ym2612"
    },
    {
      "channel": 1,
      "note": 105,
      "start": 48.7156,
      "duration": 0.1419,
      "velocity": 110,
      "chip": "ym2612"
    },
    {
      "channel": 4,
      "note": 53,
      "start": 48.7319,
      "duration": 0.01,
      "velocity": 120,
      "chip": "ym2612"
    },
    {
      "channel": 5,
      "note": 77,
      "start": 48.7819,
      "duration": 0.1602,
      "velocity": 118,
      "chip": "ym2612"
    },
    {
      "channel": 0,
      "note": 91,
      "start": 48.8487,
      "duration": 0.1417,
      "velocity": 110,
      "chip": "ym2612"
    },
    {
      "channel": 2,
      "note": 74,
      "start": 48.8654,
      "duration": 0.1428,
      "velocity": 100,
      "chip": "ym2612"
    },
    {
      "channel": 1,
      "note": 103,
      "start": 48.882,
      "duration": 0.1421,
      "velocity": 110,
      "chip": "ym2612"
    },
    {
      "channel": 5,
      "note": 77,
      "start": 48.9486,
      "duration": 0.1602,
      "velocity": 118,
      "chip": "ym2612"
    },
    {
      "channel": 0,
      "note": 93,
      "start": 49.0185,
      "duration": 0.1386,
      "velocity": 110,
      "chip": "ym2612"
    },
    {
      "channel": 4,
      "note": 82,
      "start": 49.0188,
      "duration": 0.0464,
      "velocity": 126,
      "chip": "ym2612"
    },
    {
      "channel": 2,
      "note": 62,
      "start": 49.0324,
      "duration": 0.1426,
      "velocity": 100,
      "chip": "ym2612"
    },
    {
      "channel": 1,
      "note": 105,
      "start": 49.0489,
      "duration": 0.1419,
      "velocity": 110,
      "chip": "ym2612"
    },
    {
      "channel": 4,
      "note": 74,
      "start": 49.0652,
      "duration": 0.01,
      "velocity": 126,
      "chip": "ym2612"
    },
    {
      "channel": 5,
      "note": 77,
      "start": 49.1153,
      "duration": 0.1602,
      "velocity": 118,
      "chip": "ym2612"
    },
    {
      "channel": 0,
      "note": 94,
      "start": 49.182,
      "duration": 0.1417,
      "velocity": 110,
      "chip": "ym2612"
    },
    {
      "channel": 2,
      "note": 74,
      "start": 49.1988,
      "duration": 0.1427,
      "velocity": 100,
      "chip": "ym2612"
    },
    {
      "channel": 1,
      "note": 106,
      "start": 49.2153,
      "duration": 0.1421,
      "velocity": 110,
      "chip": "ym2612"
    },
    {
      "channel": 5,
      "note": 77,
      "start": 49.2819,
      "duration": 0.1607,
      "velocity": 118,
      "chip": "ym2612"
    },
    {
      "channel": 0,
      "note": 93,
      "start": 49.3519,
      "duration": 0.1385,
      "velocity": 110,
      "chip": "ym2612"
    },
    {
      "channel": 4,
      "note": 65,
      "start": 49.3522,
      "duration": 0.0464,
      "velocity": 120,
      "chip": "ym2612"
    },
    {
      "channel": 2,
      "note": 60,
      "start": 49.3656,
      "duration": 0.0589,
      "velocity": 100,
      "chip": "ym2612"
    },
    {
      "channel": 1,
      "note": 105,
      "start": 49.385,
      "duration": 0.1391,
      "velocity": 110,
      "chip": "ym2612"
    },
    {
      "channel": 3,
      "note": 81,
      "start": 49.3852,
      "duration": 0.1404,
      "velocity": 110,
      "chip": "ym2612"
    },
    {
      "channel": 4,
      "note": 53,
      "start": 49.3985,
      "duration": 0.01,
      "velocity": 120,
      "chip": "ym2612"
    },
    {
      "channel": 2,
      "note": 72,
      "start": 49.4515,
      "duration": 0.0568,
      "velocity": 100,
      "chip": "ym2612"
    },
    {
      "channel": 5,
      "note": 77,
      "start": 49.4516,
      "duration": 0.0578,
      "velocity": 118,
      "chip": "ym2612"
    },
    {
      "channel": 0,
      "note": 91,
      "start": 49.5155,
      "duration": 0.1416,
      "velocity": 110,
      "chip": "ym2612"
    },
    {
      "channel": 2,
      "note": 62,
      "start": 49.5362,
      "duration": 0.1387,
      "velocity": 100,
      "chip": "ym2612"
    },
    {
      "channel": 1,
      "note": 103,
      "start": 49.5515,
      "duration": 0.1393,
      "velocity": 110,
      "chip": "ym2612"
    },
    {
      "channel": 3,
      "note": 79,
      "start": 49.5516,
      "duration": 0.6067,
      "velocity": 110,
      "chip": "ym2612"
    },
    {
      "channel": 5,
      "note": 77,
      "start": 49.6153,
      "duration": 0.1439,
      "velocity": 118,
      "chip": "ym2612"
    },
    {
      "channel": 0,
      "note": 93,
      "start": 49.6852,
      "duration": 0.1386,
      "velocity": 110,
      "chip": "ym2612"
    },
    {
      "channel": 4,
      "note": 65,
      "start": 49.6854,
      "duration": 0.0464,
      "velocity": 120,
      "chip": "ym2612"
    },
    {
      "channel": 2,
      "note": 74,
      "start": 49.6988,
      "duration": 0.1428,
      "velocity": 100,
      "chip": "ym2612"
    },
    {
      "channel": 1,
      "note": 105,
      "start": 49.7156,
      "duration": 0.1419,
      "velocity": 110,
      "chip": "ym2612"
    },
    {
      "channel": 4,
      "note": 53,
      "start": 49.7319,
      "duration": 0.01,
      "velocity": 120,
      "chip": "ym2612"
    },
    {
      "channel": 5,
      "note": 77,
      "start": 49.7819,
      "duration": 0.1602,
      "velocity": 118,
      "chip": "ym2612"
    },
    {
      "channel": 0,
      "note": 91,
      "start": 49.8487,
      "duration": 0.1417,
      "velocity": 110,
      "chip": "ym2612"
    },
    {
      "channel": 2,
      "note": 62,
      "start": 49.8654,
      "duration": 0.1428,
      "velocity": 100,
      "chip": "ym2612"
    },
    {
      "channel": 1,
      "note": 103,
      "start": 49.882,
      "duration": 0.1421,
      "velocity": 110,
      "chip": "ym2612"
    },
    {
      "channel": 5,
      "note": 77,
      "start": 49.9486,
      "duration": 0.1602,
      "velocity": 118,
      "chip": "ym2612"
    },
    {
      "channel": 0,
      "note": 93,
      "start": 50.0185,
      "duration": 0.1386,
      "velocity": 110,
      "chip": "ym2612"
    },
    {
      "channel": 4,
      "note": 82,
      "start": 50.0188,
      "duration": 0.0464,
      "velocity": 126,
      "chip": "ym2612"
    },
    {
      "channel": 2,
      "note": 74,
      "start": 50.0324,
      "duration": 0.1426,
      "velocity": 100,
      "chip": "ym2612"
    },
    {
      "channel": 1,
      "note": 105,
      "start": 50.0489,
      "duration": 0.1419,
      "velocity": 110,
      "chip": "ym2612"
    },
    {
      "channel": 4,
      "note": 74,
      "start": 50.0652,
      "duration": 0.01,
      "velocity": 126,
      "chip": "ym2612"
    },
    {
      "channel": 5,
      "note": 77,
      "start": 50.1153,
      "duration": 0.1602,
      "velocity": 118,
      "chip": "ym2612"
    },
    {
      "channel": 0,
      "note": 91,
      "start": 50.1822,
      "duration": 0.1416,
      "velocity": 110,
      "chip": "ym2612"
    },
    {
      "channel": 2,
      "note": 62,
      "start": 50.1989,
      "duration": 0.1427,
      "velocity": 100,
      "chip": "ym2612"
    },
    {
      "channel": 1,
      "note": 103,
      "start": 50.2181,
      "duration": 0.1393,
      "velocity": 110,
      "chip": "ym2612"
    },
    {
      "channel": 3,
      "note": 79,
      "start": 50.2183,
      "duration": 0.6066,
      "velocity": 110,
      "chip": "ym2612"
    },
    {
      "channel": 5,
      "note": 77,
      "start": 50.2819,
      "duration": 0.1602,
      "velocity": 118,
      "chip": "ym2612"
    },
    {
      "channel": 0,
      "note": 93,
      "start": 50.3518,
      "duration": 0.1386,
      "velocity": 110,
      "chip": "ym2612"
    },
    {
      "channel": 4,
      "note": 65,
      "start": 50.3521,
      "duration": 0.0464,
      "velocity": 120,
      "chip": "ym2612"
    },
    {
      "channel": 2,
      "note": 74,
      "start": 50.3654,
      "duration": 0.1428,
      "velocity": 100,
      "chip": "ym2612"
    },
    {
      "channel": 1,
      "note": 105,
      "start": 50.3822,
      "duration": 0.1419,
      "velocity": 110,
      "chip": "ym2612"
    },
    {
      "channel": 4,
      "note": 53,
      "start": 50.3985,
      "duration": 0.01,
      "velocity": 120,
      "chip": "ym2612"
    },
    {
      "channel": 5,
      "note": 77,
      "start": 50.4486,
      "duration": 0.1607,
      "velocity": 118,
      "chip": "ym2612"
    },
    {
      "channel": 0,
      "note": 94,
      "start": 50.5185,
      "duration": 1.2053,
      "velocity": 110,
      "chip": "ym2612"
    },
    {
      "channel": 4,
      "note": 82,
      "start": 50.5188,
      "duration": 0.0464,
      "velocity": 126,
      "chip": "ym2612"
    },
    {
      "channel": 2,
      "note": 60,
      "start": 50.5324,
      "duration": 0.0588,
      "velocity": 100,
      "chip": "ym2612"
    },
    {
      "channel": 1,
      "note": 106,
      "start": 50.5489,
      "duration": 1.2086,
      "velocity": 110,
      "chip": "ym2612"
    },
    {
      "channel": 4,
      "note": 74,
      "start": 50.5652,
      "duration": 0.01,
      "velocity": 126,
      "chip": "ym2612"
    },
    {
      "channel": 2,
      "note": 72,
      "start": 50.6181,
      "duration": 0.0563,
      "velocity": 100,
      "chip": "ym2612"
    },
    {
      "channel": 5,
      "note": 77,
      "start": 50.6183,
      "duration": 0.058,
      "velocity": 118,
      "chip": "ym2612"
    },
    {
      "channel": 2,
      "note": 60,
      "start": 50.7027,
      "duration": 0.0551,
      "velocity": 100,
      "chip": "ym2612"
    },
    {
      "channel": 2,
      "note": 61,
      "start": 50.7848,
      "duration": 0.0563,
      "velocity": 100,
      "chip": "ym2612"
    },
    {
      "channel": 5,
      "note": 77,
      "start": 50.7849,
      "duration": 0.1412,
      "velocity": 118,
      "chip": "ym2612"
    },
    {
      "channel": 4,
      "note": 82,
      "start": 50.8492,
      "duration": 0.0494,
      "velocity": 126,
      "chip": "ym2612"
    },
    {
      "channel": 2,
      "note": 62,
      "start": 50.8656,
      "duration": 0.0588,
      "velocity": 100,
      "chip": "ym2612"
    },
    {
      "channel": 3,
      "note": 79,
      "start": 50.8822,
      "duration": 0.9095,
      "velocity": 110,
      "chip": "ym2612"
    },
    {
      "channel": 4,
      "note": 74,
      "start": 50.8985,
      "duration": 0.01,
      "velocity": 126,
      "chip": "ym2612"
    },
    {
      "channel": 2,
      "note": 63,
      "start": 50.9514,
      "duration": 0.0564,
      "velocity": 100,
      "chip": "ym2612"
    },
    {
      "channel": 5,
      "note": 77,
      "start": 50.9515,
      "duration": 0.1578,
      "velocity": 118,
      "chip": "ym2612"
    },
    {
      "channel": 2,
      "note": 64,
      "start": 51.032,
      "duration": 0.0591,
      "velocity": 100,
      "chip": "ym2612"
    },
    {
      "channel": 2,
      "note": 65,
      "start": 51.118,
      "duration": 0.0564,
      "velocity": 100,
      "chip": "ym2612"
    },
    {
      "channel": 5,
      "note": 77,
      "start": 51.1183,
      "duration": 0.1578,
      "velocity": 118,
      "chip": "ym2612"
    },
    {
      "channel": 4,
      "note": 82,
      "start": 51.1824,
      "duration": 0.0494,
      "velocity": 126,
      "chip": "ym2612"
    },
    {
      "channel": 2,
      "note": 66,
      "start": 51.1989,
      "duration": 0.0589,
      "velocity": 100,
      "chip": "ym2612"
    },
    {
      "channel": 4,
      "note": 74,
      "start": 51.2319,
      "duration": 0.01,
      "velocity": 126,
      "chip": "ym2612"
    },
    {
      "channel": 2,
      "note": 67,
      "start": 51.2847,
      "duration": 0.0564,
      "velocity": 100,
      "chip": "ym2612"
    },
    {
      "channel": 5,
      "note": 77,
      "start": 51.2849,
      "duration": 0.1578,
      "velocity": 118,
      "chip": "ym2612"
    },
    {
      "channel": 4,
      "note": 82,
      "start": 51.3491,
      "duration": 0.0494,
      "velocity": 126,
      "chip": "ym2612"
    },
    {
      "channel": 2,
      "note": 68,
      "start": 51.3656,
      "duration": 0.0589,
      "velocity": 100,
      "chip": "ym2612"
    },
    {
      "channel": 4,
      "note": 74,
      "start": 51.3985,
      "duration": 0.01,
      "velocity": 126,
      "chip": "ym2612"
    },
    {
      "channel": 2,
      "note": 69,
      "start": 51.4514,
      "duration": 0.0564,
      "velocity": 100,
      "chip": "ym2612"
    },
    {
      "channel": 5,
      "note": 77,
      "start": 51.4516,
      "duration": 0.1578,
      "velocity": 118,
      "chip": "ym2612"
    },
    {
      "channel": 4,
      "note": 82,
      "start": 51.5158,
      "duration": 0.0494,
      "velocity": 126,
      "chip": "ym2612"
    },
    {
      "channel": 2,
      "note": 70,
      "start": 51.5322,
      "duration": 0.0589,
      "velocity": 100,
      "chip": "ym2612"
    },
    {
      "channel": 4,
      "note": 74,
      "start": 51.5652,
      "duration": 0.01,
      "velocity": 126,
      "chip": "ym2612"
    },
    {
      "channel": 2,
      "note": 71,
      "start": 51.618,
      "duration": 0.0564,
      "velocity": 100,
      "chip": "ym2612"
    },
    {
      "channel": 5,
      "note": 77,
      "start": 51.6183,
      "duration": 0.1579,
      "velocity": 118,
      "chip": "ym2612"
    },
    {
      "channel": 4,
      "note": 82,
      "start": 51.6824,
      "duration": 0.0496,
      "velocity": 126,
      "chip": "ym2612"
    },
    {
      "channel": 2,
      "note": 72,
      "start": 51.6989,
      "duration": 0.0591,
      "velocity": 100,
      "chip": "ym2612"
    },
    {
      "channel": 4,
      "note": 74,
      "start": 51.732,
      "duration": 0.0099,
      "velocity": 126,
      "chip": "ym2612"
    },
    {
      "channel": 2,
      "note": 74,
      "start": 51.785,
      "duration": 0.0571,
      "velocity": 100,
      "chip": "ym2612"
    },
    {
      "channel": 5,
      "note": 77,
      "start": 51.7851,
      "duration": 0.0595,
      "velocity": 118,
      "chip": "ym2612"
    },
    {
      "channel": 0,
      "note": 98,
      "start": 51.853,
      "duration": 2.6655,
      "velocity": 110,
      "chip": "ym2612"
    },
    {
      "channel": 4,
      "note": 65,
      "start": 51.8532,
      "duration": 0.0453,
      "velocity": 120,
      "chip": "ym2612"
    },
    {
      "channel": 2,
      "note": 62,
      "start": 51.87,
      "duration": 0.1378,
      "velocity": 100,
      "chip": "ym2612"
    },
    {
      "channel": 1,
      "note": 105,
      "start": 51.8857,
      "duration": 2.666,
      "velocity": 110,
      "chip": "ym2612"
    },
    {
      "channel": 3,
      "note": 74,
      "start": 51.8859,
      "duration": 2.489,
      "velocity": 110,
      "chip": "ym2612"
    },
    {
      "channel": 4,
      "note": 53,
      "start": 51.8985,
      "duration": 0.01,
      "velocity": 120,
      "chip": "ym2612"
    },
    {
      "channel": 5,
      "note": 77,
      "start": 51.9487,
      "duration": 0.1436,
      "velocity": 118,
      "chip": "ym2612"
    },
    {
      "channel": 2,
      "note": 74,
      "start": 52.032,
      "duration": 0.1424,
      "velocity": 100,
      "chip": "ym2612"
    },
    {
      "channel": 5,
      "note": 77,
      "start": 52.1153,
      "duration": 0.1602,
      "velocity": 118,
      "chip": "ym2612"
    },
    {
      "channel": 4,
      "note": 65,
      "start": 52.1824,
      "duration": 0.0494,
      "velocity": 120,
      "chip": "ym2612"
    },
    {
      "channel": 2,
      "note": 62,
      "start": 52.1987,
      "duration": 0.1424,
      "velocity": 100,
      "chip": "ym2612"
    },
    {
      "channel": 4,
      "note": 53,
      "start": 52.2319,
      "duration": 0.01,
      "velocity": 120,
      "chip": "ym2612"
    },
    {
      "channel": 5,
      "note": 77,
      "start": 52.2819,
      "duration": 0.1602,
      "velocity": 118,
      "chip": "ym2612"
    },
    {
      "channel": 2,
      "note": 74,
      "start": 52.3654,
      "duration": 0.1424,
      "velocity": 100,
      "chip": "ym2612"
    },
    {
      "channel": 5,
      "note": 77,
      "start": 52.4486,
      "duration": 0.1602,
      "velocity": 118,
      "chip": "ym2612"
    },
    {
      "channel": 4,
      "note": 82,
      "start": 52.5158,
      "duration": 0.0494,
      "velocity": 126,
      "chip": "ym2612"
    },
    {
      "channel": 2,
      "note": 62,
      "start": 52.5322,
      "duration": 0.1422,
      "velocity": 100,
      "chip": "ym2612"
    },
    {
      "channel": 4,
      "note": 74,
      "start": 52.5652,
      "duration": 0.01,
      "velocity": 126,
      "chip": "ym2612"
    },
    {
      "channel": 5,
      "note": 77,
      "start": 52.6153,
      "duration": 0.1602,
      "velocity": 118,
      "chip": "ym2612"
    },
    {
      "channel": 2,
      "note": 74,
      "start": 52.6987,
      "duration": 0.1424,
      "velocity": 100,
      "chip": "ym2612"
    },
    {
      "channel": 5,
      "note": 77,
      "start": 52.7819,
      "duration": 0.1607,
      "velocity": 118,
      "chip": "ym2612"
    },
    {
      "channel": 4,
      "note": 65,
      "start": 52.8491,
      "duration": 0.0494,
      "velocity": 120,
      "chip": "ym2612"
    },
    {
      "channel": 2,
      "note": 60,
      "start": 52.8654,
      "duration": 0.0591,
      "velocity": 100,
      "chip": "ym2612"
    },
    {
      "channel": 4,
      "note": 53,
      "start": 52.8985,
      "duration": 0.01,
      "velocity": 120,
      "chip": "ym2612"
    },
    {
      "channel": 2,
      "note": 72,
      "start": 52.9515,
      "duration": 0.0563,
      "velocity": 100,
      "chip": "ym2612"
    },
    {
      "channel": 5,
      "note": 77,
      "start": 52.9516,
      "duration": 0.0573,
      "velocity": 118,
      "chip": "ym2612"
    },
    {
      "channel": 2,
      "note": 62,
      "start": 53.0361,
      "duration": 0.1384,
      "velocity": 100,
      "chip": "ym2612"
    },
    {
      "channel": 5,
      "note": 77,
      "start": 53.1153,
      "duration": 0.1439,
      "velocity": 118,
      "chip": "ym2612"
    },
    {
      "channel": 4,
      "note": 65,
      "start": 53.1824,
      "duration": 0.0494,
      "velocity": 120,
      "chip": "ym2612"
    },
    {
      "channel": 2,
      "note": 74,
      "start": 53.1987,
      "duration": 0.1424,
      "velocity": 100,
      "chip": "ym2612"
    },
    {
      "channel": 4,
      "note": 53,
      "start": 53.2319,
      "duration": 0.01,
      "velocity": 120,
      "chip": "ym2612"
    },
    {
      "channel": 5,
      "note": 77,
      "start": 53.2819,
      "duration": 0.1602,
      "velocity": 118,
      "chip": "ym2612"
    },
    {
      "channel": 2,
      "note": 62,
      "start": 53.3654,
      "duration": 0.1424,
      "velocity": 100,
      "chip": "ym2612"
    },
    {
      "channel": 5,
      "note": 77,
      "start": 53.4486,
      "duration": 0.1602,
      "velocity": 118,
      "chip": "ym2612"
    },
    {
      "channel": 4,
      "note": 82,
      "start": 53.5158,
      "duration": 0.0494,
      "velocity": 126,
      "chip": "ym2612"
    },
    {
      "channel": 2,
      "note": 74,
      "start": 53.5322,
      "duration": 0.1422,
      "velocity": 100,
      "chip": "ym2612"
    },
    {
      "channel": 4,
      "note": 74,
      "start": 53.5652,
      "duration": 0.01,
      "velocity": 126,
      "chip": "ym2612"
    },
    {
      "channel": 5,
      "note": 77,
      "start": 53.6153,
      "duration": 0.1602,
      "velocity": 118,
      "chip": "ym2612"
    },
    {
      "channel": 2,
      "note": 62,
      "start": 53.6987,
      "duration": 0.1424,
      "velocity": 100,
      "chip": "ym2612"
    },
    {
      "channel": 5,
      "note": 77,
      "start": 53.7819,
      "duration": 0.1602,
      "velocity": 118,
      "chip": "ym2612"
    },
    {
      "channel": 4,
      "note": 65,
      "start": 53.8491,
      "duration": 0.0494,
      "velocity": 120,
      "chip": "ym2612"
    },
    {
      "channel": 2,
      "note": 74,
      "start": 53.8654,
      "duration": 0.1424,
      "velocity": 100,
      "chip": "ym2612"
    },
    {
      "channel": 4,
      "note": 53,
      "start": 53.8985,
      "duration": 0.01,
      "velocity": 120,
      "chip": "ym2612"
    },
    {
      "channel": 5,
      "note": 77,
      "start": 53.9486,
      "duration": 0.1607,
      "velocity": 118,
      "chip": "ym2612"
    },
    {
      "channel": 4,
      "note": 82,
      "start": 54.0158,
      "duration": 0.0494,
      "velocity": 126,
      "chip": "ym2612"
    },
    {
      "channel": 2,
      "note": 60,
      "start": 54.0322,
      "duration": 0.0589,
      "velocity": 100,
      "chip": "ym2612"
    },
    {
      "channel": 4,
      "note": 74,
      "start": 54.0652,
      "duration": 0.01,
      "velocity": 126,
      "chip": "ym2612"
    },
    {
      "channel": 2,
      "note": 72,
      "start": 54.1181,
      "duration": 0.0563,
      "velocity": 100,
      "chip": "ym2612"
    },
    {
      "channel": 5,
      "note": 77,
      "start": 54.1183,
      "duration": 0.0583,
      "velocity": 118,
      "chip": "ym2612"
    },
    {
      "channel": 4,
      "note": 65,
      "start": 54.1827,
      "duration": 0.0491,
      "velocity": 120,
      "chip": "ym2612"
    },
    {
      "channel": 2,
      "note": 62,
      "start": 54.2027,
      "duration": 0.1384,
      "velocity": 100,
      "chip": "ym2612"
    },
    {
      "channel": 4,
      "note": 53,
      "start": 54.2319,
      "duration": 0.01,
      "velocity": 120,
      "chip": "ym2612"
    },
    {
      "channel": 5,
      "note": 77,
      "start": 54.282,
      "duration": 0.1436,
      "velocity": 118,
      "chip": "ym2612"
    },
    {
      "channel": 2,
      "note": 74,
      "start": 54.3654,
      "duration": 0.1428,
      "velocity": 100,
      "chip": "ym2612"
    },
    {
      "channel": 5,
      "note": 77,
      "start": 54.4487,
      "duration": 0.1601,
      "velocity": 118,
      "chip": "ym2612"
    },
    {
      "channel": 0,
      "note": 98,
      "start": 54.5186,
      "duration": 1.8218,
      "velocity": 110,
      "chip": "ym2612"
    },
    {
      "channel": 4,
      "note": 65,
      "start": 54.5188,
      "duration": 0.0464,
      "velocity": 120,
      "chip": "ym2612"
    },
    {
      "channel": 2,
      "note": 62,
      "start": 54.5321,
      "duration": 0.1424,
      "velocity": 100,
      "chip": "ym2612"
    },
    {
      "channel": 1,
      "note": 105,
      "start": 54.5517,
      "duration": 1.8225,
      "velocity": 110,
      "chip": "ym2612"
    },
    {
      "channel": 3,
      "note": 74,
      "start": 54.5518,
      "duration": 1.8232,
      "velocity": 110,
      "chip": "ym2612"
    },
    {
      "channel": 4,
      "note": 53,
      "start": 54.5652,
      "duration": 0.01,
      "velocity": 120,
      "chip": "ym2612"
    },
    {
      "channel": 5,
      "note": 77,
      "start": 54.6153,
      "duration": 0.1602,
      "velocity": 118,
      "chip": "ym2612"
    },
    {
      "channel": 2,
      "note": 74,
      "start": 54.6987,
      "duration": 0.1424,
      "velocity": 100,
      "chip": "ym2612"
    },
    {
      "channel": 5,
      "note": 77,
      "start": 54.7819,
      "duration": 0.1602,
      "velocity": 118,
      "chip": "ym2612"
    },
    {
      "channel": 4,
      "note": 82,
      "start": 54.8491,
      "duration": 0.0494,
      "velocity": 126,
      "chip": "ym2612"
    },
    {
      "channel": 2,
      "note": 62,
      "start": 54.8656,
      "duration": 0.1422,
      "velocity": 100,
      "chip": "ym2612"
    },
    {
      "channel": 4,
      "note": 74,
      "start": 54.8985,
      "duration": 0.01,
      "velocity": 126,
      "chip": "ym2612"
    },
    {
      "channel": 5,
      "note": 77,
      "start": 54.9486,
      "duration": 0.1602,
      "velocity": 118,
      "chip": "ym2612"
    },
    {
      "channel": 2,
      "note": 74,
      "start": 55.032,
      "duration": 0.1424,
      "velocity": 100,
      "chip": "ym2612"
    },
    {
      "channel": 5,
      "note": 77,
      "start": 55.1153,
      "duration": 0.1607,
      "velocity": 118,
      "chip": "ym2612"
    },
    {
      "channel": 4,
      "note": 65,
      "start": 55.1824,
      "duration": 0.0494,
      "velocity": 120,
      "chip": "ym2612"
    },
    {
      "channel": 2,
      "note": 60,
      "start": 55.1987,
      "duration": 0.0591,
      "velocity": 100,
      "chip": "ym2612"
    },
    {
      "channel": 4,
      "note": 53,
      "start": 55.2319,
      "duration": 0.01,
      "velocity": 120,
      "chip": "ym2612"
    },
    {
      "channel": 2,
      "note": 72,
      "start": 55.2848,
      "duration": 0.0563,
      "velocity": 100,
      "chip": "ym2612"
    },
    {
      "channel": 5,
      "note": 77,
      "start": 55.285,
      "duration": 0.0573,
      "velocity": 118,
      "chip": "ym2612"
    },
    {
      "channel": 2,
      "note": 62,
      "start": 55.3694,
      "duration": 0.1384,
      "velocity": 100,
      "chip": "ym2612"
    },
    {
      "channel": 5,
      "note": 77,
      "start": 55.4487,
      "duration": 0.1439,
      "velocity": 118,
      "chip": "ym2612"
    },
    {
      "channel": 4,
      "note": 65,
      "start": 55.5158,
      "duration": 0.0494,
      "velocity": 120,
      "chip": "ym2612"
    },
    {
      "channel": 2,
      "note": 74,
      "start": 55.532,
      "duration": 0.1424,
      "velocity": 100,
      "chip": "ym2612"
    },
    {
      "channel": 4,
      "note": 53,
      "start": 55.5652,
      "duration": 0.01,
      "velocity": 120,
      "chip": "ym2612"
    },
    {
      "channel": 5,
      "note": 77,
      "start": 55.6153,
      "duration": 0.1602,
      "velocity": 118,
      "chip": "ym2612"
    },
    {
      "channel": 2,
      "note": 62,
      "start": 55.6987,
      "duration": 0.1424,
      "velocity": 100,
      "chip": "ym2612"
    },
    {
      "channel": 5,
      "note": 77,
      "start": 55.7819,
      "duration": 0.1602,
      "velocity": 118,
      "chip": "ym2612"
    },
    {
      "channel": 4,
      "note": 82,
      "start": 55.8491,
      "duration": 0.0494,
      "velocity": 126,
      "chip": "ym2612"
    },
    {
      "channel": 2,
      "note": 74,
      "start": 55.8656,
      "duration": 0.1422,
      "velocity": 100,
      "chip": "ym2612"
    },
    {
      "channel": 4,
      "note": 74,
      "start": 55.8985,
      "duration": 0.01,
      "velocity": 126,
      "chip": "ym2612"
    },
    {
      "channel": 5,
      "note": 77,
      "start": 55.9486,
      "duration": 0.1602,
      "velocity": 118,
      "chip": "ym2612"
    },
    {
      "channel": 2,
      "note": 62,
      "start": 56.032,
      "duration": 0.1424,
      "velocity": 100,
      "chip": "ym2612"
    },
    {
      "channel": 5,
      "note": 77,
      "start": 56.1153,
      "duration": 0.1602,
      "velocity": 118,
      "chip": "ym2612"
    },
    {
      "channel": 4,
      "note": 65,
      "start": 56.1824,
      "duration": 0.0494,
      "velocity": 120,
      "chip": "ym2612"
    },
    {
      "channel": 2,
      "note": 74,
      "start": 56.1987,
      "duration": 0.1425,
      "velocity": 100,
      "chip": "ym2612"
    },
    {
      "channel": 4,
      "note": 53,
      "start": 56.2319,
      "duration": 0.01,
      "velocity": 120,
      "chip": "ym2612"
    },
    {
      "channel": 5,
      "note": 77,
      "start": 56.2819,
      "duration": 0.161,
      "velocity": 118,
      "chip": "ym2612"
    },
    {
      "channel": 4,
      "note": 82,
      "start": 56.3492,
      "duration": 0.0497,
      "velocity": 126,
      "chip": "ym2612"
    },
    {
      "channel": 2,
      "note": 60,
      "start": 56.3657,
      "duration": 0.059,
      "velocity": 100,
      "chip": "ym2612"
    },
    {
      "channel": 4,
      "note": 74,
      "start": 56.3988,
      "duration": 0.0099,
      "velocity": 126,
      "chip": "ym2612"
    },
    {
      "channel": 2,
      "note": 72,
      "start": 56.4517,
      "duration": 0.0566,
      "velocity": 100,
      "chip": "ym2612"
    },
    {
      "channel": 5,
      "note": 77,
      "start": 56.4519,
      "duration": 0.0587,
      "velocity": 118,
      "chip": "ym2612"
    },
    {
      "channel": 0,
      "note": 96,
      "start": 56.5191,
      "duration": 0.0547,
      "velocity": 110,
      "chip": "ym2612"
    },
    {
      "channel": 4,
      "note": 65,
      "start": 56.5193,
      "duration": 0.0459,
      "velocity": 120,
      "chip": "ym2612"
    },
    {
      "channel": 2,
      "note": 62,
      "start": 56.5362,
      "duration": 0.1387,
      "velocity": 100,
      "chip": "ym2612"
    },
    {
      "channel": 1,
      "note": 103,
      "start": 56.5517,
      "duration": 0.0557,
      "velocity": 110,
      "chip": "ym2612"
    },
    {
      "channel": 3,
      "note": 72,
      "start": 56.5519,
      "duration": 0.223,
      "velocity": 110,
      "chip": "ym2612"
    },
    {
      "channel": 4,
      "note": 53,
      "start": 56.5652,
      "duration": 0.01,
      "velocity": 120,
      "chip": "ym2612"
    },
    {
      "channel": 0,
      "note": 103,
      "start": 56.5992,
      "duration": 0.058,
      "velocity": 110,
      "chip": "ym2612"
    },
    {
      "channel": 5,
      "note": 77,
      "start": 56.6154,
      "duration": 0.144,
      "velocity": 118,
      "chip": "ym2612"
    },
    {
      "channel": 1,
      "note": 110,
      "start": 56.632,
      "duration": 0.0588,
      "velocity": 110,
      "chip": "ym2612"
    },
    {
      "channel": 0,
      "note": 98,
      "start": 56.682,
      "duration": 0.0584,
      "velocity": 110,
      "chip": "ym2612"
    },
    {
      "channel": 2,
      "note": 74,
      "start": 56.6988,
      "duration": 0.1427,
      "velocity": 100,
      "chip": "ym2612"
    },
    {
      "channel": 1,
      "note": 103,
      "start": 56.7153,
      "duration": 0.0588,
      "velocity": 110,
      "chip": "ym2612"
    },
    {
      "channel": 0,
      "note": 103,
      "start": 56.7654,
      "duration": 0.7531,
      "velocity": 110,
      "chip": "ym2612"
    },
    {
      "channel": 5,
      "note": 77,
      "start": 56.7822,
      "duration": 0.16,
      "velocity": 118,
      "chip": "ym2612"
    },
    {
      "channel": 1,
      "note": 110,
      "start": 56.8015,
      "duration": 0.7475,
      "velocity": 110,
      "chip": "ym2612"
    },
    {
      "channel": 3,
      "note": 79,
      "start": 56.8016,
      "duration": 0.2237,
      "velocity": 110,
      "chip": "ym2612"
    },
    {
      "channel": 4,
      "note": 65,
      "start": 56.8494,
      "duration": 0.0491,
      "velocity": 120,
      "chip": "ym2612"
    },
    {
      "channel": 2,
      "note": 62,
      "start": 56.8654,
      "duration": 0.1424,
      "velocity": 100,
      "chip": "ym2612"
    },
    {
      "channel": 4,
      "note": 53,
      "start": 56.8985,
      "duration": 0.01,
      "velocity": 120,
      "chip": "ym2612"
    },
    {
      "channel": 5,
      "note": 77,
      "start": 56.9486,
      "duration": 0.1602,
      "velocity": 118,
      "chip": "ym2612"
    },
    {
      "channel": 2,
      "note": 74,
      "start": 57.0321,
      "duration": 0.1424,
      "velocity": 100,
      "chip": "ym2612"
    },
    {
      "channel": 5,
      "note": 77,
      "start": 57.1153,
      "duration": 0.1602,
      "velocity": 118,
      "chip": "ym2612"
    },
    {
      "channel": 4,
      "note": 82,
      "start": 57.1824,
      "duration": 0.0494,
      "velocity": 126,
      "chip": "ym2612"
    },
    {
      "channel": 2,
      "note": 62,
      "start": 57.1989,
      "duration": 0.1422,
      "velocity": 100,
      "chip": "ym2612"
    },
    {
      "channel": 4,
      "note": 74,
      "start": 57.2319,
      "duration": 0.01,
      "velocity": 126,
      "chip": "ym2612"
    },
    {
      "channel": 5,
      "note": 77,
      "start": 57.2819,
      "duration": 0.1602,
      "velocity": 118,
      "chip": "ym2612"
    },
    {
      "channel": 2,
      "note": 74,
      "start": 57.3654,
      "duration": 0.1429,
      "velocity": 100,
      "chip": "ym2612"
    },
    {
      "channel": 5,
      "note": 77,
      "start": 57.4486,
      "duration": 0.1607,
      "velocity": 118,
      "chip": "ym2612"
    },
    {
      "channel": 0,
      "note": 103,
      "start": 57.5186,
      "duration": 0.1385,
      "velocity": 110,
      "chip": "ym2612"
    },
    {
      "channel": 4,
      "note": 65,
      "start": 57.5188,
      "duration": 0.0464,
      "velocity": 120,
      "chip": "ym2612"
    },
    {
      "channel": 2,
      "note": 60,
      "start": 57.532,
      "duration": 0.0591,
      "velocity": 100,
      "chip": "ym2612"
    },
    {
      "channel": 1,
      "note": 110,
      "start": 57.549,
      "duration": 0.1417,
      "velocity": 110,
      "chip": "ym2612"
    },
    {
      "channel": 4,
      "note": 53,
      "start": 57.5652,
      "duration": 0.01,
      "velocity": 120,
      "chip": "ym2612"
    },
    {
      "channel": 2,
      "note": 72,
      "start": 57.6181,
      "duration": 0.0567,
      "velocity": 100,
      "chip": "ym2612"
    },
    {
      "channel": 5,
      "note": 77,
      "start": 57.6183,
      "duration": 0.0578,
      "velocity": 118,
      "chip": "ym2612"
    },
    {
      "channel": 2,
      "note": 62,
      "start": 57.7029,
      "duration": 0.1382,
      "velocity": 100,
      "chip": "ym2612"
    },
    {
      "channel": 5,
      "note": 77,
      "start": 57.782,
      "duration": 0.1439,
      "velocity": 118,
      "chip": "ym2612"
    },
    {
      "channel": 4,
      "note": 65,
      "start": 57.8491,
      "duration": 0.0494,
      "velocity": 120,
      "chip": "ym2612"
    },
    {
      "channel": 2,
      "note": 74,
      "start": 57.8654,
      "duration": 0.1424,
      "velocity": 100,
      "chip": "ym2612"
    },
    {
      "channel": 4,
      "note": 53,
      "start": 57.8985,
      "duration": 0.01,
      "velocity": 120,
      "chip": "ym2612"
    },
    {
      "channel": 5,
      "note": 77,
      "start": 57.9486,
      "duration": 0.1602,
      "velocity": 118,
      "chip": "ym2612"
    },
    {
      "channel": 2,
      "note": 62,
      "start": 58.032,
      "duration": 0.1424,
      "velocity": 100,
      "chip": "ym2612"
    },
    {
      "channel": 5,
      "note": 77,
      "start": 58.1153,
      "duration": 0.1602,
      "velocity": 118,
      "chip": "ym2612"
    },
    {
      "channel": 4,
      "note": 82,
      "start": 58.1824,
      "duration": 0.0494,
      "velocity": 126,
      "chip": "ym2612"
    },
    {
      "channel": 2,
      "note": 74,
      "start": 58.1989,
      "duration": 0.1422,
      "velocity": 100,
      "chip": "ym2612"
    },
    {
      "channel": 4,
      "note": 74,
      "start": 58.2319,
      "duration": 0.01,
      "velocity": 126,
      "chip": "ym2612"
    },
    {
      "channel": 5,
      "note": 77,
      "start": 58.2819,
      "duration": 0.1602,
      "velocity": 118,
      "chip": "ym2612"
    },
    {
      "channel": 2,
      "note": 62,
      "start": 58.3654,
      "duration": 0.1424,
      "velocity": 100,
      "chip": "ym2612"
    },
    {
      "channel": 5,
      "note": 77,
      "start": 58.4486,
      "duration": 0.1604,
      "velocity": 118,
      "chip": "ym2612"
    },
    {
      "channel": 4,
      "note": 65,
      "start": 58.5158,
      "duration": 0.0494,
      "velocity": 120,
      "chip": "ym2612"
    },
    {
      "channel": 2,
      "note": 74,
      "start": 58.532,
      "duration": 0.1428,
      "velocity": 100,
      "chip": "ym2612"
    },
    {
      "channel": 4,
      "note": 53,
      "start": 58.5652,
      "duration": 0.01,
      "velocity": 120,
      "chip": "ym2612"
    },
    {
      "channel": 5,
      "note": 77,
      "start": 58.6154,
      "duration": 0.1606,
      "velocity": 118,
      "chip": "ym2612"
    },
    {
      "channel": 4,
      "note": 82,
      "start": 58.6829,
      "duration": 0.0489,
      "velocity": 126,
      "chip": "ym2612"
    },
    {
      "channel": 2,
      "note": 60,
      "start": 58.6991,
      "duration": 0.0587,
      "velocity": 100,
      "chip": "ym2612"
    },
    {
      "channel": 4,
      "note": 74,
      "start": 58.7319,
      "duration": 0.01,
      "velocity": 126,
      "chip": "ym2612"
    },
    {
      "channel": 2,
      "note": 72,
      "start": 58.7848,
      "duration": 0.0567,
      "velocity": 100,
      "chip": "ym2612"
    },
    {
      "channel": 5,
      "note": 77,
      "start": 58.785,
      "duration": 0.0587,
      "velocity": 118,
      "chip": "ym2612"
    },
    {
      "channel": 4,
      "note": 65,
      "start": 58.8497,
      "duration": 0.0488,
      "velocity": 120,
      "chip": "ym2612"
    },
    {
      "channel": 2,
      "note": 62,
      "start": 58.8696,
      "duration": 0.1382,
      "velocity": 100,
      "chip": "ym2612"
    },
    {
      "channel": 4,
      "note": 53,
      "start": 58.8985,
      "duration": 0.01,
      "velocity": 120,
      "chip": "ym2612"
    },
    {
      "channel": 5,
      "note": 77,
      "start": 58.9487,
      "duration": 0.1436,
      "velocity": 118,
      "chip": "ym2612"
    },
    {
      "channel": 2,
      "note": 74,
      "start": 59.032,
      "duration": 0.1424,
      "velocity": 100,
      "chip": "ym2612"
    },
    {
      "channel": 5,
      "note": 77,
      "start": 59.1153,
      "duration": 0.1602,
      "velocity": 118,
      "chip": "ym2612"
    },
    {
      "channel": 4,
      "note": 65,
      "start": 59.1824,
      "duration": 0.0494,
      "velocity": 120,
      "chip": "ym2612"
    },
    {
      "channel": 2,
      "note": 62,
      "start": 59.1987,
      "duration": 0.1424,
      "velocity": 100,
      "chip": "ym2612"
    },
    {
      "channel": 4,
      "note": 53,
      "start": 59.2319,
      "duration": 0.01,
      "velocity": 120,
      "chip": "ym2612"
    },
    {
      "channel": 5,
      "note": 77,
      "start": 59.2819,
      "duration": 0.1602,
      "velocity": 118,
      "chip": "ym2612"
    },
    {
      "channel": 2,
      "note": 74,
      "start": 59.3654,
      "duration": 0.1424,
      "velocity": 100,
      "chip": "ym2612"
    },
    {
      "channel": 5,
      "note": 77,
      "start": 59.4486,
      "duration": 0.1602,
      "velocity": 118,
      "chip": "ym2612"
    },
    {
      "channel": 4,
      "note": 82,
      "start": 59.5158,
      "duration": 0.0494,
      "velocity": 126,
      "chip": "ym2612"
    },
    {
      "channel": 2,
      "note": 62,
      "start": 59.5322,
      "duration": 0.1422,
      "velocity": 100,
      "chip": "ym2612"
    },
    {
      "channel": 4,
      "note": 74,
      "start": 59.5652,
      "duration": 0.01,
      "velocity": 126,
      "chip": "ym2612"
    },
    {
      "channel": 5,
      "note": 77,
      "start": 59.6153,
      "duration": 0.1604,
      "velocity": 118,
      "chip": "ym2612"
    },
    {
      "channel": 2,
      "note": 74,
      "start": 59.6987,
      "duration": 0.1428,
      "velocity": 100,
      "chip": "ym2612"
    },
    {
      "channel": 5,
      "note": 77,
      "start": 59.782,
      "duration": 0.1606,
      "velocity": 118,
      "chip": "ym2612"
    },
    {
      "channel": 4,
      "note": 65,
      "start": 59.8496,
      "duration": 0.0489,
      "velocity": 120,
      "chip": "ym2612"
    },
    {
      "channel": 2,
      "note": 60,
      "start": 59.8656,
      "duration": 0.0589,
      "velocity": 100,
      "chip": "ym2612"
    },
    {
      "channel": 4,
      "note": 53,
      "start": 59.8985,
      "duration": 0.01,
      "velocity": 120,
      "chip": "ym2612"
    },
    {
      "channel": 2,
      "note": 72,
      "start": 59.9515,
      "duration": 0.0567,
      "velocity": 100,
      "chip": "ym2612"
    },
    {
      "channel": 5,
      "note": 77,
      "start": 59.9516,
      "duration": 0.0576,
      "velocity": 118,
      "chip": "ym2612"
    },
    {
      "channel": 2,
      "note": 62,
      "start": 60.0362,
      "duration": 0.1382,
      "velocity": 100,
      "chip": "ym2612"
    },
    {
      "channel": 5,
      "note": 77,
      "start": 60.1153,
      "duration": 0.1439,
      "velocity": 118,
      "chip": "ym2612"
    },
    {
      "channel": 4,
      "note": 65,
      "start": 60.1824,
      "duration": 0.0494,
      "velocity": 120,
      "chip": "ym2612"
    },
    {
      "channel": 2,
      "note": 74,
      "start": 60.1987,
      "duration": 0.1424,
      "velocity": 100,
      "chip": "ym2612"
    },
    {
      "channel": 4,
      "note": 53,
      "start": 60.2319,
      "duration": 0.01,
      "velocity": 120,
      "chip": "ym2612"
    },
    {
      "channel": 5,
      "note": 77,
      "start": 60.2819,
      "duration": 0.1602,
      "velocity": 118,
      "chip": "ym2612"
    },
    {
      "channel": 2,
      "note": 62,
      "start": 60.3654,
      "duration": 0.1424,
      "velocity": 100,
      "chip": "ym2612"
    },
    {
      "channel": 5,
      "note": 77,
      "start": 60.4486,
      "duration": 0.1602,
      "velocity": 118,
      "chip": "ym2612"
    },
    {
      "channel": 4,
      "note": 82,
      "start": 60.5158,
      "duration": 0.0494,
      "velocity": 126,
      "chip": "ym2612"
    },
    {
      "channel": 2,
      "note": 74,
      "start": 60.5322,
      "duration": 0.1422,
      "velocity": 100,
      "chip": "ym2612"
    },
    {
      "channel": 4,
      "note": 74,
      "start": 60.5652,
      "duration": 0.01,
      "velocity": 126,
      "chip": "ym2612"
    },
    {
      "channel": 5,
      "note": 77,
      "start": 60.6153,
      "duration": 0.1602,
      "velocity": 118,
      "chip": "ym2612"
    },
    {
      "channel": 2,
      "note": 62,
      "start": 60.6987,
      "duration": 0.1424,
      "velocity": 100,
      "chip": "ym2612"
    },
    {
      "channel": 5,
      "note": 77,
      "start": 60.7819,
      "duration": 0.1604,
      "velocity": 118,
      "chip": "ym2612"
    },
    {
      "channel": 4,
      "note": 65,
      "start": 60.8491,
      "duration": 0.0494,
      "velocity": 120,
      "chip": "ym2612"
    },
    {
      "channel": 2,
      "note": 74,
      "start": 60.8654,
      "duration": 0.1428,
      "velocity": 100,
      "chip": "ym2612"
    },
    {
      "channel": 4,
      "note": 53,
      "start": 60.8985,
      "duration": 0.01,
      "velocity": 120,
      "chip": "ym2612"
    },
    {
      "channel": 5,
      "note": 77,
      "start": 60.9487,
      "duration": 0.1606,
      "velocity": 118,
      "chip": "ym2612"
    },
    {
      "channel": 4,
      "note": 82,
      "start": 61.0163,
      "duration": 0.0489,
      "velocity": 126,
      "chip": "ym2612"
    },
    {
      "channel": 2,
      "note": 60,
      "start": 61.0324,
      "duration": 0.0587,
      "velocity": 100,
      "chip": "ym2612"
    },
    {
      "channel": 4,
      "note": 74,
      "start": 61.0652,
      "duration": 0.01,
      "velocity": 126,
      "chip": "ym2612"
    },
    {
      "channel": 2,
      "note": 72,
      "start": 61.1181,
      "duration": 0.057,
      "velocity": 100,
      "chip": "ym2612"
    },
    {
      "channel": 5,
      "note": 77,
      "start": 61.1183,
      "duration": 0.0592,
      "velocity": 118,
      "chip": "ym2612"
    },
    {
      "channel": 0,
      "note": 98,
      "start": 61.1859,
      "duration": 2.666,
      "velocity": 110,
      "chip": "ym2612"
    },
    {
      "channel": 4,
      "note": 65,
      "start": 61.1861,
      "duration": 0.0457,
      "velocity": 120,
      "chip": "ym2612"
    },
    {
      "channel": 2,
      "note": 62,
      "start": 61.2032,
      "duration": 0.138,
      "velocity": 100,
      "chip": "ym2612"
    },
    {
      "channel": 5,
      "note": 77,
      "start": 61.2033,
      "duration": 0.3064,
      "velocity": 127,
      "chip": "ym2612"
    },
    {
      "channel": 1,
      "note": 105,
      "start": 61.2188,
      "duration": 2.6663,
      "velocity": 110,
      "chip": "ym2612"
    },
    {
      "channel": 3,
      "note": 74,
      "start": 61.2189,
      "duration": 2.4893,
      "velocity": 110,
      "chip": "ym2612"
    },
    {
      "channel": 4,
      "note": 53,
      "start": 61.2319,
      "duration": 0.01,
      "velocity": 120,
      "chip": "ym2612"
    },
    {
      "channel": 2,
      "note": 74,
      "start": 61.3654,
      "duration": 0.1424,
      "velocity": 100,
      "chip": "ym2612"
    },
    {
      "channel": 4,
      "note": 65,
      "start": 61.5158,
      "duration": 0.0494,
      "velocity": 120,
      "chip": "ym2612"
    },
    {
      "channel": 2,
      "note": 62,
      "start": 61.5356,
      "duration": 0.1389,
      "velocity": 100,
      "chip": "ym2612"
    },
    {
      "channel": 5,
      "note": 77,
      "start": 61.5358,
      "duration": 0.1398,
      "velocity": 118,
      "chip": "ym2612"
    },
    {
      "channel": 4,
      "note": 53,
      "start": 61.5652,
      "duration": 0.01,
      "velocity": 120,
      "chip": "ym2612"
    },
    {
      "channel": 2,
      "note": 74,
      "start": 61.7014,
      "duration": 0.1398,
      "velocity": 100,
      "chip": "ym2612"
    },
    {
      "channel": 5,
      "note": 77,
      "start": 61.7015,
      "duration": 0.158,
      "velocity": 118,
      "chip": "ym2612"
    },
    {
      "channel": 4,
      "note": 82,
      "start": 61.8491,
      "duration": 0.0494,
      "velocity": 126,
      "chip": "ym2612"
    },
    {
      "channel": 2,
      "note": 62,
      "start": 61.8683,
      "duration": 0.1395,
      "velocity": 100,
      "chip": "ym2612"
    },
    {
      "channel": 5,
      "note": 77,
      "start": 61.8684,
      "duration": 0.1576,
      "velocity": 118,
      "chip": "ym2612"
    },
    {
      "channel": 4,
      "note": 74,
      "start": 61.8985,
      "duration": 0.01,
      "velocity": 126,
      "chip": "ym2612"
    },
    {
      "channel": 2,
      "note": 74,
      "start": 62.0347,
      "duration": 0.1398,
      "velocity": 100,
      "chip": "ym2612"
    },
    {
      "channel": 5,
      "note": 77,
      "start": 62.0349,
      "duration": 0.1578,
      "velocity": 118,
      "chip": "ym2612"
    },
    {
      "channel": 4,
      "note": 65,
      "start": 62.1824,
      "duration": 0.0494,
      "velocity": 120,
      "chip": "ym2612"
    },
    {
      "channel": 2,
      "note": 60,
      "start": 62.2015,
      "duration": 0.0563,
      "velocity": 100,
      "chip": "ym2612"
    },
    {
      "channel": 5,
      "note": 77,
      "start": 62.2016,
      "duration": 0.0578,
      "velocity": 118,
      "chip": "ym2612"
    },
    {
      "channel": 4,
      "note": 53,
      "start": 62.2319,
      "duration": 0.01,
      "velocity": 120,
      "chip": "ym2612"
    },
    {
      "channel": 2,
      "note": 72,
      "start": 62.2847,
      "duration": 0.0564,
      "velocity": 100,
      "chip": "ym2612"
    },
    {
      "channel": 5,
      "note": 77,
      "start": 62.2849,
      "duration": 0.0747,
      "velocity": 118,
      "chip": "ym2612"
    },
    {
      "channel": 2,
      "note": 62,
      "start": 62.3695,
      "duration": 0.1383,
      "velocity": 100,
      "chip": "ym2612"
    },
    {
      "channel": 5,
      "note": 77,
      "start": 62.4487,
      "duration": 0.1439,
      "velocity": 118,
      "chip": "ym2612"
    },
    {
      "channel": 4,
      "note": 65,
      "start": 62.5158,
      "duration": 0.0494,
      "velocity": 120,
      "chip": "ym2612"
    },
    {
      "channel": 2,
      "note": 74,
      "start": 62.532,
      "duration": 0.1424,
      "velocity": 100,
      "chip": "ym2612"
    },
    {
      "channel": 4,
      "note": 53,
      "start": 62.5652,
      "duration": 0.01,
      "velocity": 120,
      "chip": "ym2612"
    },
    {
      "channel": 5,
      "note": 77,
      "start": 62.6153,
      "duration": 0.1602,
      "velocity": 118,
      "chip": "ym2612"
    },
    {
      "channel": 2,
      "note": 62,
      "start": 62.6987,
      "duration": 0.1424,
      "velocity": 100,
      "chip": "ym2612"
    },
    {
      "channel": 5,
      "note": 77,
      "start": 62.7819,
      "duration": 0.1602,
      "velocity": 118,
      "chip": "ym2612"
    },
    {
      "channel": 4,
      "note": 82,
      "start": 62.8491,
      "duration": 0.0494,
      "velocity": 126,
      "chip": "ym2612"
    },
    {
      "channel": 2,
      "note": 74,
      "start": 62.8656,
      "duration": 0.1422,
      "velocity": 100,
      "chip": "ym2612"
    },
    {
      "channel": 4,
      "note": 74,
      "start": 62.8985,
      "duration": 0.01,
      "velocity": 126,
      "chip": "ym2612"
    },
    {
      "channel": 5,
      "note": 77,
      "start": 62.9486,
      "duration": 0.1602,
      "velocity": 118,
      "chip": "ym2612"
    },
    {
      "channel": 2,
      "note": 62,
      "start": 63.032,
      "duration": 0.1424,
      "velocity": 100,
      "chip": "ym2612"
    },
    {
      "channel": 5,
      "note": 77,
      "start": 63.1153,
      "duration": 0.1602,
      "velocity": 118,
      "chip": "ym2612"
    },
    {
      "channel": 4,
      "note": 65,
      "start": 63.1824,
      "duration": 0.0494,
      "velocity": 120,
      "chip": "ym2612"
    },
    {
      "channel": 2,
      "note": 74,
      "start": 63.1987,
      "duration": 0.1424,
      "velocity": 100,
      "chip": "ym2612"
    },
    {
      "channel": 4,
      "note": 53,
      "start": 63.2319,
      "duration": 0.01,
      "velocity": 120,
      "chip": "ym2612"
    },
    {
      "channel": 5,
      "note": 77,
      "start": 63.2819,
      "duration": 0.1607,
      "velocity": 118,
      "chip": "ym2612"
    },
    {
      "channel": 4,
      "note": 82,
      "start": 63.3491,
      "duration": 0.0494,
      "velocity": 126,
      "chip": "ym2612"
    },
    {
      "channel": 2,
      "note": 60,
      "start": 63.3656,
      "duration": 0.0589,
      "velocity": 100,
      "chip": "ym2612"
    },
    {
      "channel": 4,
      "note": 74,
      "start": 63.3985,
      "duration": 0.01,
      "velocity": 126,
      "chip": "ym2612"
    },
    {
      "channel": 2,
      "note": 72,
      "start": 63.4515,
      "duration": 0.0563,
      "velocity": 100,
      "chip": "ym2612"
    },
    {
      "channel": 5,
      "note": 77,
      "start": 63.4516,
      "duration": 0.0583,
      "velocity": 118,
      "chip": "ym2612"
    },
    {
      "channel": 4,
      "note": 65,
      "start": 63.5161,
      "duration": 0.0491,
      "velocity": 120,
      "chip": "ym2612"
    },
    {
      "channel": 2,
      "note": 62,
      "start": 63.5361,
      "duration": 0.1384,
      "velocity": 100,
      "chip": "ym2612"
    },
    {
      "channel": 4,
      "note": 53,
      "start": 63.5652,
      "duration": 0.01,
      "velocity": 120,
      "chip": "ym2612"
    },
    {
      "channel": 5,
      "note": 77,
      "start": 63.6153,
      "duration": 0.1436,
      "velocity": 118,
      "chip": "ym2612"
    },
    {
      "channel": 2,
      "note": 74,
      "start": 63.6987,
      "duration": 0.1428,
      "velocity": 100,
      "chip": "ym2612"
    },
    {
      "channel": 5,
      "note": 77,
      "start": 63.782,
      "duration": 0.1601,
      "velocity": 118,
      "chip": "ym2612"
    },
    {
      "channel": 0,
      "note": 98,
      "start": 63.8519,
      "duration": 1.8218,
      "velocity": 110,
      "chip": "ym2612"
    },
    {
      "channel": 4,
      "note": 65,
      "start": 63.8522,
      "duration": 0.0464,
      "velocity": 120,
      "chip": "ym2612"
    },
    {
      "channel": 2,
      "note": 62,
      "start": 63.8654,
      "duration": 0.1424,
      "velocity": 100,
      "chip": "ym2612"
    },
    {
      "channel": 1,
      "note": 105,
      "start": 63.885,
      "duration": 1.8225,
      "velocity": 110,
      "chip": "ym2612"
    },
    {
      "channel": 3,
      "note": 74,
      "start": 63.8852,
      "duration": 1.8232,
      "velocity": 110,
      "chip": "ym2612"
    },
    {
      "channel": 4,
      "note": 53,
      "start": 63.8985,
      "duration": 0.01,
      "velocity": 120,
      "chip": "ym2612"
    },
    {
      "channel": 5,
      "note": 77,
      "start": 63.9486,
      "duration": 0.1602,
      "velocity": 118,
      "chip": "ym2612"
    },
    {
      "channel": 2,
      "note": 74,
      "start": 64.032,
      "duration": 0.1424,
      "velocity": 100,
      "chip": "ym2612"
    },
    {
      "channel": 5,
      "note": 77,
      "start": 64.1153,
      "duration": 0.1602,
      "velocity": 118,
      "chip": "ym2612"
    },
    {
      "channel": 4,
      "note": 82,
      "start": 64.1824,
      "duration": 0.0494,
      "velocity": 126,
      "chip": "ym2612"
    },
    {
      "channel": 2,
      "note": 62,
      "start": 64.1989,
      "duration": 0.1422,
      "velocity": 100,
      "chip": "ym2612"
    },
    {
      "channel": 4,
      "note": 74,
      "start": 64.2319,
      "duration": 0.01,
      "velocity": 126,
      "chip": "ym2612"
    },
    {
      "channel": 5,
      "note": 77,
      "start": 64.2819,
      "duration": 0.1602,
      "velocity": 118,
      "chip": "ym2612"
    },
    {
      "channel": 2,
      "note": 74,
      "start": 64.3654,
      "duration": 0.1424,
      "velocity": 100,
      "chip": "ym2612"
    },
    {
      "channel": 5,
      "note": 77,
      "start": 64.4486,
      "duration": 0.1607,
      "velocity": 118,
      "chip": "ym2612"
    },
    {
      "channel": 4,
      "note": 65,
      "start": 64.5158,
      "duration": 0.0494,
      "velocity": 120,
      "chip": "ym2612"
    },
    {
      "channel": 2,
      "note": 60,
      "start": 64.532,
      "duration": 0.0591,
      "velocity": 100,
      "chip": "ym2612"
    },
    {
      "channel": 4,
      "note": 53,
      "start": 64.5652,
      "duration": 0.01,
      "velocity": 120,
      "chip": "ym2612"
    },
    {
      "channel": 2,
      "note": 72,
      "start": 64.6181,
      "duration": 0.0563,
      "velocity": 100,
      "chip": "ym2612"
    },
    {
      "channel": 5,
      "note": 77,
      "start": 64.6183,
      "duration": 0.0573,
      "velocity": 118,
      "chip": "ym2612"
    },
    {
      "channel": 2,
      "note": 62,
      "start": 64.7027,
      "duration": 0.1384,
      "velocity": 100,
      "chip": "ym2612"
    },
    {
      "channel": 5,
      "note": 77,
      "start": 64.782,
      "duration": 0.1439,
      "velocity": 118,
      "chip": "ym2612"
    },
    {
      "channel": 4,
      "note": 65,
      "start": 64.8491,
      "duration": 0.0494,
      "velocity": 120,
      "chip": "ym2612"
    },
    {
      "channel": 2,
      "note": 74,
      "start": 64.8654,
      "duration": 0.1424,
      "velocity": 100,
      "chip": "ym2612"
    },
    {
      "channel": 4,
      "note": 53,
      "start": 64.8985,
      "duration": 0.01,
      "velocity": 120,
      "chip": "ym2612"
    },
    {
      "channel": 5,
      "note": 77,
      "start": 64.9486,
      "duration": 0.1602,
      "velocity": 118,
      "chip": "ym2612"
    },
    {
      "channel": 2,
      "note": 62,
      "start": 65.032,
      "duration": 0.1424,
      "velocity": 100,
      "chip": "ym2612"
    },
    {
      "channel": 5,
      "note": 77,
      "start": 65.1153,
      "duration": 0.1602,
      "velocity": 118,
      "chip": "ym2612"
    },
    {
      "channel": 4,
      "note": 82,
      "start": 65.1824,
      "duration": 0.0494,
      "velocity": 126,
      "chip": "ym2612"
    },
    {
      "channel": 2,
      "note": 74,
      "start": 65.1989,
      "duration": 0.1422,
      "velocity": 100,
      "chip": "ym2612"
    },
    {
      "channel": 4,
      "note": 74,
      "start": 65.2319,
      "duration": 0.01,
      "velocity": 126,
      "chip": "ym2612"
    },
    {
      "channel": 5,
      "note": 77,
      "start": 65.2819,
      "duration": 0.1602,
      "velocity": 118,
      "chip": "ym2612"
    },
    {
      "channel": 2,
      "note": 62,
      "start": 65.3654,
      "duration": 0.1424,
      "velocity": 100,
      "chip": "ym2612"
    },
    {
      "channel": 5,
      "note": 77,
      "start": 65.4486,
      "duration": 0.1602,
      "velocity": 118,
      "chip": "ym2612"
    },
    {
      "channel": 4,
      "note": 65,
      "start": 65.5158,
      "duration": 0.0494,
      "velocity": 120,
      "chip": "ym2612"
    },
    {
      "channel": 2,
      "note": 74,
      "start": 65.532,
      "duration": 0.1425,
      "velocity": 100,
      "chip": "ym2612"
    },
    {
      "channel": 4,
      "note": 53,
      "start": 65.5652,
      "duration": 0.01,
      "velocity": 120,
      "chip": "ym2612"
    },
    {
      "channel": 5,
      "note": 77,
      "start": 65.6153,
      "duration": 0.161,
      "velocity": 118,
      "chip": "ym2612"
    },
    {
      "channel": 4,
      "note": 82,
      "start": 65.6825,
      "duration": 0.0497,
      "velocity": 126,
      "chip": "ym2612"
    },
    {
      "channel": 2,
      "note": 60,
      "start": 65.699,
      "duration": 0.059,
      "velocity": 100,
      "chip": "ym2612"
    },
    {
      "channel": 4,
      "note": 74,
      "start": 65.7322,
      "duration": 0.0099,
      "velocity": 126,
      "chip": "ym2612"
    },
    {
      "channel": 2,
      "note": 72,
      "start": 65.785,
      "duration": 0.0566,
      "velocity": 100,
      "chip": "ym2612"
    },
    {
      "channel": 5,
      "note": 77,
      "start": 65.7852,
      "duration": 0.0587,
      "velocity": 118,
      "chip": "ym2612"
    },
    {
      "channel": 0,
      "note": 96,
      "start": 65.8524,
      "duration": 0.0547,
      "velocity": 110,
      "chip": "ym2612"
    },
    {
      "channel": 4,
      "note": 65,
      "start": 65.8526,
      "duration": 0.0459,
      "velocity": 120,
      "chip": "ym2612"
    },
    {
      "channel": 2,
      "note": 62,
      "start": 65.8696,
      "duration": 0.1387,
      "velocity": 100,
      "chip": "ym2612"
    },
    {
      "channel": 1,
      "note": 103,
      "start": 65.885,
      "duration": 0.0557,
      "velocity": 110,
      "chip": "ym2612"
    },
    {
      "channel": 3,
      "note": 72,
      "start": 65.8852,
      "duration": 0.223,
      "velocity": 110,
      "chip": "ym2612"
    },
    {
      "channel": 4,
      "note": 53,
      "start": 65.8985,
      "duration": 0.01,
      "velocity": 120,
      "chip": "ym2612"
    },
    {
      "channel": 0,
      "note": 103,
      "start": 65.9325,
      "duration": 0.058,
      "velocity": 110,
      "chip": "ym2612"
    },
    {
      "channel": 5,
      "note": 77,
      "start": 65.9488,
      "duration": 0.144,
      "velocity": 118,
      "chip": "ym2612"
    },
    {
      "channel": 1,
      "note": 110,
      "start": 65.9653,
      "duration": 0.0588,
      "velocity": 110,
      "chip": "ym2612"
    },
    {
      "channel": 0,
      "note": 98,
      "start": 66.0154,
      "duration": 0.0584,
      "velocity": 110,
      "chip": "ym2612"
    },
    {
      "channel": 2,
      "note": 74,
      "start": 66.0321,
      "duration": 0.1427,
      "velocity": 100,
      "chip": "ym2612"
    },
    {
      "channel": 1,
      "note": 103,
      "start": 66.0487,
      "duration": 0.0588,
      "velocity": 110,
      "chip": "ym2612"
    },
    {
      "channel": 0,
      "note": 103,
      "start": 66.0988,
      "duration": 2.753,
      "velocity": 110,
      "chip": "ym2612"
    },
    {
      "channel": 5,
      "note": 77,
      "start": 66.1155,
      "duration": 0.16,
      "velocity": 118,
      "chip": "ym2612"
    },
    {
      "channel": 1,
      "note": 110,
      "start": 66.1349,
      "duration": 2.7473,
      "velocity": 110,
      "chip": "ym2612"
    },
    {
      "channel": 3,
      "note": 79,
      "start": 66.135,
      "duration": 0.2237,
      "velocity": 110,
      "chip": "ym2612"
    },
    {
      "channel": 4,
      "note": 65,
      "start": 66.1827,
      "duration": 0.0491,
      "velocity": 120,
      "chip": "ym2612"
    },
    {
      "channel": 2,
      "note": 62,
      "start": 66.1987,
      "duration": 0.1424,
      "velocity": 100,
      "chip": "ym2612"
    },
    {
      "channel": 4,
      "note": 53,
      "start": 66.2319,
      "duration": 0.01,
      "velocity": 120,
      "chip": "ym2612"
    },
    {
      "channel": 5,
      "note": 77,
      "start": 66.2819,
      "duration": 0.1602,
      "velocity": 118,
      "chip": "ym2612"
    },
    {
      "channel": 2,
      "note": 74,
      "start": 66.3654,
      "duration": 0.1424,
      "velocity": 100,
      "chip": "ym2612"
    },
    {
      "channel": 5,
      "note": 77,
      "start": 66.4486,
      "duration": 0.1602,
      "velocity": 118,
      "chip": "ym2612"
    },
    {
      "channel": 4,
      "note": 82,
      "start": 66.5158,
      "duration": 0.0494,
      "velocity": 126,
      "chip": "ym2612"
    },
    {
      "channel": 2,
      "note": 62,
      "start": 66.5322,
      "duration": 0.1422,
      "velocity": 100,
      "chip": "ym2612"
    },
    {
      "channel": 4,
      "note": 74,
      "start": 66.5652,
      "duration": 0.01,
      "velocity": 126,
      "chip": "ym2612"
    },
    {
      "channel": 5,
      "note": 77,
      "start": 66.6153,
      "duration": 0.1602,
      "velocity": 118,
      "chip": "ym2612"
    },
    {
      "channel": 2,
      "note": 74,
      "start": 66.6987,
      "duration": 0.1428,
      "velocity": 100,
      "chip": "ym2612"
    },
    {
      "channel": 5,
      "note": 77,
      "start": 66.7819,
      "duration": 0.1607,
      "velocity": 118,
      "chip": "ym2612"
    },
    {
      "channel": 4,
      "note": 65,
      "start": 66.8495,
      "duration": 0.049,
      "velocity": 120,
      "chip": "ym2612"
    },
    {
      "channel": 2,
      "note": 60,
      "start": 66.8654,
      "duration": 0.0591,
      "velocity": 100,
      "chip": "ym2612"
    },
    {
      "channel": 4,
      "note": 53,
      "start": 66.8985,
      "duration": 0.01,
      "velocity": 120,
      "chip": "ym2612"
    },
    {
      "channel": 2,
      "note": 72,
      "start": 66.9515,
      "duration": 0.0563,
      "velocity": 100,
      "chip": "ym2612"
    },
    {
      "channel": 5,
      "note": 77,
      "start": 66.9516,
      "duration": 0.0575,
      "velocity": 118,
      "chip": "ym2612"
    },
    {
      "channel": 2,
      "note": 62,
      "start": 67.0364,
      "duration": 0.1381,
      "velocity": 100,
      "chip": "ym2612"
    },
    {
      "channel": 3,
      "note": 79,
      "start": 67.0488,
      "duration": 1.2094,
      "velocity": 110,
      "chip": "ym2612"
    },
    {
      "channel": 5,
      "note": 77,
      "start": 67.1153,
      "duration": 0.1439,
      "velocity": 118,
      "chip": "ym2612"
    },
    {
      "channel": 4,
      "note": 65,
      "start": 67.1824,
      "duration": 0.0494,
      "velocity": 120,
      "chip": "ym2612"
    },
    {
      "channel": 2,
      "note": 74,
      "start": 67.1987,
      "duration": 0.1424,
      "velocity": 100,
      "chip": "ym2612"
    },
    {
      "channel": 4,
      "note": 53,
      "start": 67.2319,
      "duration": 0.01,
      "velocity": 120,
      "chip": "ym2612"
    },
    {
      "channel": 5,
      "note": 77,
      "start": 67.2819,
      "duration": 0.1602,
      "velocity": 118,
      "chip": "ym2612"
    },
    {
      "channel": 2,
      "note": 62,
      "start": 67.3654,
      "duration": 0.1424,
      "velocity": 100,
      "chip": "ym2612"
    },
    {
      "channel": 5,
      "note": 77,
      "start": 67.4486,
      "duration": 0.1602,
      "velocity": 118,
      "chip": "ym2612"
    },
    {
      "channel": 4,
      "note": 82,
      "start": 67.5158,
      "duration": 0.0494,
      "velocity": 126,
      "chip": "ym2612"
    },
    {
      "channel": 2,
      "note": 74,
      "start": 67.5322,
      "duration": 0.1422,
      "velocity": 100,
      "chip": "ym2612"
    },
    {
      "channel": 4,
      "note": 74,
      "start": 67.5652,
      "duration": 0.01,
      "velocity": 126,
      "chip": "ym2612"
    },
    {
      "channel": 5,
      "note": 77,
      "start": 67.6153,
      "duration": 0.1602,
      "velocity": 118,
      "chip": "ym2612"
    },
    {
      "channel": 2,
      "note": 62,
      "start": 67.6987,
      "duration": 0.1424,
      "velocity": 100,
      "chip": "ym2612"
    },
    {
      "channel": 5,
      "note": 77,
      "start": 67.7819,
      "duration": 0.1602,
      "velocity": 118,
      "chip": "ym2612"
    },
    {
      "channel": 4,
      "note": 65,
      "start": 67.8491,
      "duration": 0.0494,
      "velocity": 120,
      "chip": "ym2612"
    },
    {
      "channel": 2,
      "note": 74,
      "start": 67.8654,
      "duration": 0.1424,
      "velocity": 100,
      "chip": "ym2612"
    },
    {
      "channel": 4,
      "note": 53,
      "start": 67.8985,
      "duration": 0.01,
      "velocity": 120,
      "chip": "ym2612"
    },
    {
      "channel": 5,
      "note": 77,
      "start": 67.9486,
      "duration": 0.1607,
      "velocity": 118,
      "chip": "ym2612"
    },
    {
      "channel": 4,
      "note": 82,
      "start": 68.0158,
      "duration": 0.0494,
      "velocity": 126,
      "chip": "ym2612"
    },
    {
      "channel": 2,
      "note": 60,
      "start": 68.0322,
      "duration": 0.0589,
      "velocity": 100,
      "chip": "ym2612"
    },
    {
      "channel": 4,
      "note": 74,
      "start": 68.0652,
      "duration": 0.01,
      "velocity": 126,
      "chip": "ym2612"
    },
    {
      "channel": 2,
      "note": 72,
      "start": 68.1181,
      "duration": 0.0563,
      "velocity": 100,
      "chip": "ym2612"
    },
    {
      "channel": 5,
      "note": 77,
      "start": 68.1183,
      "duration": 0.0583,
      "velocity": 118,
      "chip": "ym2612"
    },
    {
      "channel": 4,
      "note": 65,
      "start": 68.1827,
      "duration": 0.0491,
      "velocity": 120,
      "chip": "ym2612"
    },
    {
      "channel": 2,
      "note": 62,
      "start": 68.2027,
      "duration": 0.1384,
      "velocity": 100,
      "chip": "ym2612"
    },
    {
      "channel": 4,
      "note": 53,
      "start": 68.2319,
      "duration": 0.01,
      "velocity": 120,
      "chip": "ym2612"
    },
    {
      "channel": 5,
      "note": 77,
      "start": 68.2821,
      "duration": 0.1434,
      "velocity": 118,
      "chip": "ym2612"
    },
    {
      "channel": 2,
      "note": 74,
      "start": 68.3654,
      "duration": 0.1424,
      "velocity": 100,
      "chip": "ym2612"
    },
    {
      "channel": 5,
      "note": 77,
      "start": 68.4486,
      "duration": 0.1602,
      "velocity": 118,
      "chip": "ym2612"
    },
    {
      "channel": 4,
      "note": 65,
      "start": 68.5158,
      "duration": 0.0494,
      "velocity": 120,
      "chip": "ym2612"
    },
    {
      "channel": 2,
      "note": 62,
      "start": 68.532,
      "duration": 0.1424,
      "velocity": 100,
      "chip": "ym2612"
    },
    {
      "channel": 4,
      "note": 53,
      "start": 68.5652,
      "duration": 0.01,
      "velocity": 120,
      "chip": "ym2612"
    },
    {
      "channel": 5,
      "note": 77,
      "start": 68.6153,
      "duration": 0.1602,
      "velocity": 118,
      "chip": "ym2612"
    },
    {
      "channel": 2,
      "note": 74,
      "start": 68.6987,
      "duration": 0.1428,
      "velocity": 100,
      "chip": "ym2612"
    },
    {
      "channel": 5,
      "note": 77,
      "start": 68.7819,
      "duration": 0.1602,
      "velocity": 118,
      "chip": "ym2612"
    },
    {
      "channel": 0,
      "note": 103,
      "start": 68.8518,
      "duration": 0.4553,
      "velocity": 110,
      "chip": "ym2612"
    },
    {
      "channel": 4,
      "note": 82,
      "start": 68.852,
      "duration": 0.0465,
      "velocity": 126,
      "chip": "ym2612"
    },
    {
      "channel": 2,
      "note": 62,
      "start": 68.8656,
      "duration": 0.1422,
      "velocity": 100,
      "chip": "ym2612"
    },
    {
      "channel": 1,
      "note": 110,
      "start": 68.8822,
      "duration": 0.4591,
      "velocity": 110,
      "chip": "ym2612"
    },
    {
      "channel": 4,
      "note": 74,
      "start": 68.8985,
      "duration": 0.01,
      "velocity": 126,
      "chip": "ym2612"
    },
    {
      "channel": 5,
      "note": 77,
      "start": 68.9486,
      "duration": 0.1602,
      "velocity": 118,
      "chip": "ym2612"
    },
    {
      "channel": 2,
      "note": 74,
      "start": 69.032,
      "duration": 0.1424,
      "velocity": 100,
      "chip": "ym2612"
    },
    {
      "channel": 5,
      "note": 77,
      "start": 69.1153,
      "duration": 0.1607,
      "velocity": 118,
      "chip": "ym2612"
    },
    {
      "channel": 4,
      "note": 65,
      "start": 69.1824,
      "duration": 0.0494,
      "velocity": 120,
      "chip": "ym2612"
    },
    {
      "channel": 2,
      "note": 60,
      "start": 69.1987,
      "duration": 0.0591,
      "velocity": 100,
      "chip": "ym2612"
    },
    {
      "channel": 4,
      "note": 53,
      "start": 69.2319,
      "duration": 0.01,
      "velocity": 120,
      "chip": "ym2612"
    },
    {
      "channel": 2,
      "note": 72,
      "start": 69.2848,
      "duration": 0.0569,
      "velocity": 100,
      "chip": "ym2612"
    },
    {
      "channel": 5,
      "note": 77,
      "start": 69.285,
      "duration": 0.058,
      "velocity": 118,
      "chip": "ym2612"
    },
    {
      "channel": 0,
      "note": 101,
      "start": 69.3491,
      "duration": 1.333,
      "velocity": 110,
      "chip": "ym2612"
    },
    {
      "channel": 2,
      "note": 62,
      "start": 69.3696,
      "duration": 0.1382,
      "velocity": 100,
      "chip": "ym2612"
    },
    {
      "channel": 1,
      "note": 108,
      "start": 69.3849,
      "duration": 1.3307,
      "velocity": 110,
      "chip": "ym2612"
    },
    {
      "channel": 3,
      "note": 77,
      "start": 69.385,
      "duration": 1.2066,
      "velocity": 110,
      "chip": "ym2612"
    },
    {
      "channel": 5,
      "note": 77,
      "start": 69.4487,
      "duration": 0.1439,
      "velocity": 118,
      "chip": "ym2612"
    },
    {
      "channel": 4,
      "note": 65,
      "start": 69.5158,
      "duration": 0.0494,
      "velocity": 120,
      "chip": "ym2612"
    },
    {
      "channel": 2,
      "note": 74,
      "start": 69.532,
      "duration": 0.1424,
      "velocity": 100,
      "chip": "ym2612"
    },
    {
      "channel": 4,
      "note": 53,
      "start": 69.5652,
      "duration": 0.01,
      "velocity": 120,
      "chip": "ym2612"
    },
    {
      "channel": 5,
      "note": 77,
      "start": 69.6153,
      "duration": 0.1602,
      "velocity": 118,
      "chip": "ym2612"
    },
    {
      "channel": 2,
      "note": 62,
      "start": 69.6987,
      "duration": 0.1424,
      "velocity": 100,
      "chip": "ym2612"
    },
    {
      "channel": 5,
      "note": 77,
      "start": 69.7819,
      "duration": 0.1602,
      "velocity": 118,
      "chip": "ym2612"
    },
    {
      "channel": 4,
      "note": 82,
      "start": 69.8491,
      "duration": 0.0494,
      "velocity": 126,
      "chip": "ym2612"
    },
    {
      "channel": 2,
      "note": 74,
      "start": 69.8656,
      "duration": 0.1422,
      "velocity": 100,
      "chip": "ym2612"
    },
    {
      "channel": 4,
      "note": 74,
      "start": 69.8985,
      "duration": 0.01,
      "velocity": 126,
      "chip": "ym2612"
    },
    {
      "channel": 5,
      "note": 77,
      "start": 69.9486,
      "duration": 0.1602,
      "velocity": 118,
      "chip": "ym2612"
    },
    {
      "channel": 2,
      "note": 62,
      "start": 70.032,
      "duration": 0.1424,
      "velocity": 100,
      "chip": "ym2612"
    },
    {
      "channel": 5,
      "note": 77,
      "start": 70.1153,
      "duration": 0.1602,
      "velocity": 118,
      "chip": "ym2612"
    },
    {
      "channel": 4,
      "note": 65,
      "start": 70.1824,
      "duration": 0.0494,
      "velocity": 120,
      "chip": "ym2612"
    },
    {
      "channel": 2,
      "note": 74,
      "start": 70.1987,
      "duration": 0.1424,
      "velocity": 100,
      "chip": "ym2612"
    },
    {
      "channel": 4,
      "note": 53,
      "start": 70.2319,
      "duration": 0.01,
      "velocity": 120,
      "chip": "ym2612"
    },
    {
      "channel": 5,
      "note": 77,
      "start": 70.2819,
      "duration": 0.1607,
      "velocity": 118,
      "chip": "ym2612"
    },
    {
      "channel": 4,
      "note": 82,
      "start": 70.3491,
      "duration": 0.0494,
      "velocity": 126,
      "chip": "ym2612"
    },
    {
      "channel": 2,
      "note": 60,
      "start": 70.3656,
      "duration": 0.0589,
      "velocity": 100,
      "chip": "ym2612"
    },
    {
      "channel": 4,
      "note": 74,
      "start": 70.3985,
      "duration": 0.01,
      "velocity": 126,
      "chip": "ym2612"
    },
    {
      "channel": 2,
      "note": 72,
      "start": 70.4515,
      "duration": 0.0563,
      "velocity": 100,
      "chip": "ym2612"
    },
    {
      "channel": 5,
      "note": 77,
      "start": 70.4516,
      "duration": 0.0585,
      "velocity": 118,
      "chip": "ym2612"
    },
    {
      "channel": 4,
      "note": 65,
      "start": 70.5162,
      "duration": 0.049,
      "velocity": 120,
      "chip": "ym2612"
    },
    {
      "channel": 2,
      "note": 62,
      "start": 70.5362,
      "duration": 0.1387,
      "velocity": 100,
      "chip": "ym2612"
    },
    {
      "channel": 4,
      "note": 53,
      "start": 70.5653,
      "duration": 0.0099,
      "velocity": 120,
      "chip": "ym2612"
    },
    {
      "channel": 5,
      "note": 77,
      "start": 70.6154,
      "duration": 0.1434,
      "velocity": 118,
      "chip": "ym2612"
    },
    {
      "channel": 0,
      "note": 101,
      "start": 70.6821,
      "duration": 0.9083,
      "velocity": 110,
      "chip": "ym2612"
    },
    {
      "channel": 2,
      "note": 74,
      "start": 70.6988,
      "duration": 0.1424,
      "velocity": 100,
      "chip": "ym2612"
    },
    {
      "channel": 1,
      "note": 108,
      "start": 70.7156,
      "duration": 0.9086,
      "velocity": 110,
      "chip": "ym2612"
    },
    {
      "channel": 5,
      "note": 77,
      "start": 70.7819,
      "duration": 0.1602,
      "velocity": 118,
      "chip": "ym2612"
    },
    {
      "channel": 4,
      "note": 65,
      "start": 70.8491,
      "duration": 0.0494,
      "velocity": 120,
      "chip": "ym2612"
    },
    {
      "channel": 2,
      "note": 62,
      "start": 70.8654,
      "duration": 0.1424,
      "velocity": 100,
      "chip": "ym2612"
    },
    {
      "channel": 4,
      "note": 53,
      "start": 70.8985,
      "duration": 0.01,
      "velocity": 120,
      "chip": "ym2612"
    },
    {
      "channel": 5,
      "note": 77,
      "start": 70.9486,
      "duration": 0.1602,
      "velocity": 118,
      "chip": "ym2612"
    },
    {
      "channel": 2,
      "note": 74,
      "start": 71.032,
      "duration": 0.1424,
      "velocity": 100,
      "chip": "ym2612"
    },
    {
      "channel": 5,
      "note": 77,
      "start": 71.1153,
      "duration": 0.1602,
      "velocity": 118,
      "chip": "ym2612"
    },
    {
      "channel": 4,
      "note": 82,
      "start": 71.1824,
      "duration": 0.0494,
      "velocity": 126,
      "chip": "ym2612"
    },
    {
      "channel": 2,
      "note": 62,
      "start": 71.1989,
      "duration": 0.1422,
      "velocity": 100,
      "chip": "ym2612"
    },
    {
      "channel": 4,
      "note": 74,
      "start": 71.2319,
      "duration": 0.01,
      "velocity": 126,
      "chip": "ym2612"
    },
    {
      "channel": 5,
      "note": 77,
      "start": 71.2819,
      "duration": 0.1602,
      "velocity": 118,
      "chip": "ym2612"
    },
    {
      "channel": 2,
      "note": 74,
      "start": 71.3654,
      "duration": 0.1424,
      "velocity": 100,
      "chip": "ym2612"
    },
    {
      "channel": 5,
      "note": 77,
      "start": 71.4486,
      "duration": 0.1608,
      "velocity": 118,
      "chip": "ym2612"
    },
    {
      "channel": 4,
      "note": 65,
      "start": 71.5158,
      "duration": 0.0494,
      "velocity": 120,
      "chip": "ym2612"
    },
    {
      "channel": 2,
      "note": 60,
      "start": 71.532,
      "duration": 0.0592,
      "velocity": 100,
      "chip": "ym2612"
    },
    {
      "channel": 4,
      "note": 53,
      "start": 71.5652,
      "duration": 0.01,
      "velocity": 120,
      "chip": "ym2612"
    },
    {
      "channel": 2,
      "note": 72,
      "start": 71.6183,
      "duration": 0.0567,
      "velocity": 100,
      "chip": "ym2612"
    },
    {
      "channel": 5,
      "note": 77,
      "start": 71.6184,
      "duration": 0.0579,
      "velocity": 118,
      "chip": "ym2612"
    },
    {
      "channel": 0,
      "note": 98,
      "start": 71.6824,
      "duration": 0.0581,
      "velocity": 110,
      "chip": "ym2612"
    },
    {
      "channel": 2,
      "note": 62,
      "start": 71.7032,
      "duration": 0.1384,
      "velocity": 100,
      "chip": "ym2612"
    },
    {
      "channel": 1,
      "note": 105,
      "start": 71.7181,
      "duration": 0.056,
      "velocity": 110,
      "chip": "ym2612"
    },
    {
      "channel": 3,
      "note": 74,
      "start": 71.7183,
      "duration": 0.3071,
      "velocity": 110,
      "chip": "ym2612"
    },
    {
      "channel": 0,
      "note": 96,
      "start": 71.7654,
      "duration": 0.0584,
      "velocity": 110,
      "chip": "ym2612"
    },
    {
      "channel": 5,
      "note": 77,
      "start": 71.7821,
      "duration": 0.1443,
      "velocity": 118,
      "chip": "ym2612"
    },
    {
      "channel": 1,
      "note": 103,
      "start": 71.7987,
      "duration": 0.0588,
      "velocity": 110,
      "chip": "ym2612"
    },
    {
      "channel": 0,
      "note": 98,
      "start": 71.8518,
      "duration": 0.0553,
      "velocity": 110,
      "chip": "ym2612"
    },
    {
      "channel": 4,
      "note": 65,
      "start": 71.8521,
      "duration": 0.0464,
      "velocity": 120,
      "chip": "ym2612"
    },
    {
      "channel": 2,
      "note": 74,
      "start": 71.8654,
      "duration": 0.1429,
      "velocity": 100,
      "chip": "ym2612"
    },
    {
      "channel": 1,
      "note": 105,
      "start": 71.8822,
      "duration": 0.0585,
      "velocity": 110,
      "chip": "ym2612"
    },
    {
      "channel": 4,
      "note": 53,
      "start": 71.8985,
      "duration": 0.01,
      "velocity": 120,
      "chip": "ym2612"
    },
    {
      "channel": 0,
      "note": 96,
      "start": 71.9325,
      "duration": 0.058,
      "velocity": 110,
      "chip": "ym2612"
    },
    {
      "channel": 5,
      "note": 77,
      "start": 71.9487,
      "duration": 0.1601,
      "velocity": 118,
      "chip": "ym2612"
    },
    {
      "channel": 1,
      "note": 103,
      "start": 71.9653,
      "duration": 0.0588,
      "velocity": 110,
      "chip": "ym2612"
    },
    {
      "channel": 0,
      "note": 98,
      "start": 72.0154,
      "duration": 1.8364,
      "velocity": 110,
      "chip": "ym2612"
    },
    {
      "channel": 2,
      "note": 62,
      "start": 72.0322,
      "duration": 0.1422,
      "velocity": 100,
      "chip": "ym2612"
    },
    {
      "channel": 1,
      "note": 105,
      "start": 72.0515,
      "duration": 1.8307,
      "velocity": 110,
      "chip": "ym2612"
    },
    {
      "channel": 3,
      "note": 74,
      "start": 72.0516,
      "duration": 1.2066,
      "velocity": 110,
      "chip": "ym2612"
    },
    {
      "channel": 5,
      "note": 77,
      "start": 72.1153,
      "duration": 0.1602,
      "velocity": 118,
      "chip": "ym2612"
    },
    {
      "channel": 4,
      "note": 82,
      "start": 72.1824,
      "duration": 0.0494,
      "velocity": 126,
      "chip": "ym2612"
    },
    {
      "channel": 2,
      "note": 74,
      "start": 72.1989,
      "duration": 0.1422,
      "velocity": 100,
      "chip": "ym2612"
    },
    {
      "channel": 4,
      "note": 74,
      "start": 72.2319,
      "duration": 0.01,
      "velocity": 126,
      "chip": "ym2612"
    },
    {
      "channel": 5,
      "note": 77,
      "start": 72.2819,
      "duration": 0.1602,
      "velocity": 118,
      "chip": "ym2612"
    },
    {
      "channel": 2,
      "note": 62,
      "start": 72.3654,
      "duration": 0.1424,
      "velocity": 100,
      "chip": "ym2612"
    },
    {
      "channel": 5,
      "note": 77,
      "start": 72.4486,
      "duration": 0.1602,
      "velocity": 118,
      "chip": "ym2612"
    },
    {
      "channel": 4,
      "note": 65,
      "start": 72.5158,
      "duration": 0.0494,
      "velocity": 120,
      "chip": "ym2612"
    },
    {
      "channel": 2,
      "note": 74,
      "start": 72.532,
      "duration": 0.1424,
      "velocity": 100,
      "chip": "ym2612"
    },
    {
      "channel": 4,
      "note": 53,
      "start": 72.5652,
      "duration": 0.01,
      "velocity": 120,
      "chip": "ym2612"
    },
    {
      "channel": 5,
      "note": 77,
      "start": 72.6153,
      "duration": 0.1607,
      "velocity": 118,
      "chip": "ym2612"
    },
    {
      "channel": 4,
      "note": 82,
      "start": 72.6824,
      "duration": 0.0494,
      "velocity": 126,
      "chip": "ym2612"
    },
    {
      "channel": 2,
      "note": 60,
      "start": 72.6989,
      "duration": 0.0589,
      "velocity": 100,
      "chip": "ym2612"
    },
    {
      "channel": 4,
      "note": 74,
      "start": 72.7319,
      "duration": 0.01,
      "velocity": 126,
      "chip": "ym2612"
    },
    {
      "channel": 2,
      "note": 72,
      "start": 72.7848,
      "duration": 0.0563,
      "velocity": 100,
      "chip": "ym2612"
    },
    {
      "channel": 5,
      "note": 77,
      "start": 72.785,
      "duration": 0.0583,
      "velocity": 118,
      "chip": "ym2612"
    },
    {
      "channel": 4,
      "note": 65,
      "start": 72.8494,
      "duration": 0.0491,
      "velocity": 120,
      "chip": "ym2612"
    },
    {
      "channel": 2,
      "note": 62,
      "start": 72.8694,
      "duration": 0.1384,
      "velocity": 100,
      "chip": "ym2612"
    },
    {
      "channel": 4,
      "note": 53,
      "start": 72.8985,
      "duration": 0.01,
      "velocity": 120,
      "chip": "ym2612"
    },
    {
      "channel": 5,
      "note": 77,
      "start": 72.9487,
      "duration": 0.1436,
      "velocity": 118,
      "chip": "ym2612"
    },
    {
      "channel": 2,
      "note": 74,
      "start": 73.032,
      "duration": 0.1424,
      "velocity": 100,
      "chip": "ym2612"
    },
    {
      "channel": 5,
      "note": 77,
      "start": 73.1153,
      "duration": 0.1604,
      "velocity": 118,
      "chip": "ym2612"
    },
    {
      "channel": 4,
      "note": 65,
      "start": 73.1824,
      "duration": 0.0495,
      "velocity": 120,
      "chip": "ym2612"
    },
    {
      "channel": 2,
      "note": 62,
      "start": 73.1987,
      "duration": 0.1428,
      "velocity": 100,
      "chip": "ym2612"
    },
    {
      "channel": 4,
      "note": 53,
      "start": 73.2319,
      "duration": 0.0099,
      "velocity": 120,
      "chip": "ym2612"
    },
    {
      "channel": 5,
      "note": 77,
      "start": 73.282,
      "duration": 0.1601,
      "velocity": 118,
      "chip": "ym2612"
    },
    {
      "channel": 2,
      "note": 74,
      "start": 73.3654,
      "duration": 0.1424,
      "velocity": 100,
      "chip": "ym2612"
    },
    {
      "channel": 5,
      "note": 77,
      "start": 73.4486,
      "duration": 0.1602,
      "velocity": 118,
      "chip": "ym2612"
    },
    {
      "channel": 4,
      "note": 82,
      "start": 73.5158,
      "duration": 0.0494,
      "velocity": 126,
      "chip": "ym2612"
    },
    {
      "channel": 2,
      "note": 62,
      "start": 73.5322,
      "duration": 0.1422,
      "velocity": 100,
      "chip": "ym2612"
    },
    {
      "channel": 4,
      "note": 74,
      "start": 73.5652,
      "duration": 0.01,
      "velocity": 126,
      "chip": "ym2612"
    },
    {
      "channel": 5,
      "note": 77,
      "start": 73.6153,
      "duration": 0.1602,
      "velocity": 118,
      "chip": "ym2612"
    },
    {
      "channel": 2,
      "note": 74,
      "start": 73.6988,
      "duration": 0.1427,
      "velocity": 100,
      "chip": "ym2612"
    },
    {
      "channel": 3,
      "note": 74,
      "start": 73.7153,
      "duration": 0.3103,
      "velocity": 110,
      "chip": "ym2612"
    },
    {
      "channel": 5,
      "note": 77,
      "start": 73.7819,
      "duration": 0.1607,
      "velocity": 118,
      "chip": "ym2612"
    },
    {
      "channel": 0,
      "note": 98,
      "start": 73.8518,
      "duration": 0.1386,
      "velocity": 110,
      "chip": "ym2612"
    },
    {
      "channel": 4,
      "note": 65,
      "start": 73.8521,
      "duration": 0.0464,
      "velocity": 120,
      "chip": "ym2612"
    },
    {
      "channel": 2,
      "note": 60,
      "start": 73.8654,
      "duration": 0.0591,
      "velocity": 100,
      "chip": "ym2612"
    },
    {
      "channel": 1,
      "note": 105,
      "start": 73.8822,
      "duration": 0.1419,
      "velocity": 110,
      "chip": "ym2612"
    },
    {
      "channel": 4,
      "note": 53,
      "start": 73.8985,
      "duration": 0.01,
      "velocity": 120,
      "chip": "ym2612"
    },
    {
      "channel": 2,
      "note": 72,
      "start": 73.9515,
      "duration": 0.0567,
      "velocity": 100,
      "chip": "ym2612"
    },
    {
      "channel": 5,
      "note": 77,
      "start": 73.9516,
      "duration": 0.0576,
      "velocity": 118,
      "chip": "ym2612"
    },
    {
      "channel": 2,
      "note": 62,
      "start": 74.0362,
      "duration": 0.1382,
      "velocity": 100,
      "chip": "ym2612"
    },
    {
      "channel": 5,
      "note": 77,
      "start": 74.1153,
      "duration": 0.1439,
      "velocity": 118,
      "chip": "ym2612"
    },
    {
      "channel": 4,
      "note": 65,
      "start": 74.1824,
      "duration": 0.0494,
      "velocity": 120,
      "chip": "ym2612"
    },
    {
      "channel": 2,
      "note": 74,
      "start": 74.1987,
      "duration": 0.1424,
      "velocity": 100,
      "chip": "ym2612"
    },
    {
      "channel": 4,
      "note": 53,
      "start": 74.2319,
      "duration": 0.01,
      "velocity": 120,
      "chip": "ym2612"
    },
    {
      "channel": 5,
      "note": 77,
      "start": 74.2819,
      "duration": 0.1602,
      "velocity": 118,
      "chip": "ym2612"
    },
    {
      "channel": 2,
      "note": 62,
      "start": 74.3654,
      "duration": 0.1424,
      "velocity": 100,
      "chip": "ym2612"
    },
    {
      "channel": 5,
      "note": 77,
      "start": 74.4486,
      "duration": 0.1602,
      "velocity": 118,
      "chip": "ym2612"
    },
    {
      "channel": 4,
      "note": 82,
      "start": 74.5158,
      "duration": 0.0494,
      "velocity": 126,
      "chip": "ym2612"
    },
    {
      "channel": 2,
      "note": 74,
      "start": 74.5322,
      "duration": 0.1422,
      "velocity": 100,
      "chip": "ym2612"
    },
    {
      "channel": 4,
      "note": 74,
      "start": 74.5652,
      "duration": 0.01,
      "velocity": 126,
      "chip": "ym2612"
    },
    {
      "channel": 5,
      "note": 77,
      "start": 74.6153,
      "duration": 0.1602,
      "velocity": 118,
      "chip": "ym2612"
    },
    {
      "channel": 2,
      "note": 62,
      "start": 74.6987,
      "duration": 0.1424,
      "velocity": 100,
      "chip": "ym2612"
    },
    {
      "channel": 5,
      "note": 77,
      "start": 74.7819,
      "duration": 0.1604,
      "velocity": 118,
      "chip": "ym2612"
    },
    {
      "channel": 4,
      "note": 65,
      "start": 74.8491,
      "duration": 0.0494,
      "velocity": 120,
      "chip": "ym2612"
    },
    {
      "channel": 2,
      "note": 74,
      "start": 74.8654,
      "duration": 0.1428,
      "velocity": 100,
      "chip": "ym2612"
    },
    {
      "channel": 4,
      "note": 53,
      "start": 74.8985,
      "duration": 0.01,
      "velocity": 120,
      "chip": "ym2612"
    },
    {
      "channel": 5,
      "note": 77,
      "start": 74.9487,
      "duration": 0.1606,
      "velocity": 118,
      "chip": "ym2612"
    },
    {
      "channel": 4,
      "note": 82,
      "start": 75.0163,
      "duration": 0.0489,
      "velocity": 126,
      "chip": "ym2612"
    },
    {
      "channel": 2,
      "note": 60,
      "start": 75.0324,
      "duration": 0.0587,
      "velocity": 100,
      "chip": "ym2612"
    },
    {
      "channel": 4,
      "note": 74,
      "start": 75.0652,
      "duration": 0.01,
      "velocity": 126,
      "chip": "ym2612"
    },
    {
      "channel": 2,
      "note": 72,
      "start": 75.1181,
      "duration": 0.0567,
      "velocity": 100,
      "chip": "ym2612"
    },
    {
      "channel": 5,
      "note": 77,
      "start": 75.1183,
      "duration": 0.0587,
      "velocity": 118,
      "chip": "ym2612"
    },
    {
      "channel": 4,
      "note": 65,
      "start": 75.1831,
      "duration": 0.0488,
      "velocity": 120,
      "chip": "ym2612"
    },
    {
      "channel": 2,
      "note": 62,
      "start": 75.2029,
      "duration": 0.1382,
      "velocity": 100,
      "chip": "ym2612"
    },
    {
      "channel": 4,
      "note": 53,
      "start": 75.2319,
      "duration": 0.01,
      "velocity": 120,
      "chip": "ym2612"
    },
    {
      "channel": 5,
      "note": 77,
      "start": 75.282,
      "duration": 0.1436,
      "velocity": 118,
      "chip": "ym2612"
    },
    {
      "channel": 2,
      "note": 74,
      "start": 75.3654,
      "duration": 0.1424,
      "velocity": 100,
      "chip": "ym2612"
    },
    {
      "channel": 5,
      "note": 77,
      "start": 75.4486,
      "duration": 0.1602,
      "velocity": 118,
      "chip": "ym2612"
    },
    {
      "channel": 4,
      "note": 65,
      "start": 75.5158,
      "duration": 0.0494,
      "velocity": 120,
      "chip": "ym2612"
    },
    {
      "channel": 2,
      "note": 62,
      "start": 75.532,
      "duration": 0.1424,
      "velocity": 100,
      "chip": "ym2612"
    },
    {
      "channel": 4,
      "note": 53,
      "start": 75.5652,
      "duration": 0.01,
      "velocity": 120,
      "chip": "ym2612"
    },
    {
      "channel": 5,
      "note": 77,
      "start": 75.6153,
      "duration": 0.1602,
      "velocity": 118,
      "chip": "ym2612"
    },
    {
      "channel": 2,
      "note": 74,
      "start": 75.6987,
      "duration": 0.1424,
      "velocity": 100,
      "chip": "ym2612"
    },
    {
      "channel": 5,
      "note": 77,
      "start": 75.7819,
      "duration": 0.1602,
      "velocity": 118,
      "chip": "ym2612"
    },
    {
      "channel": 4,
      "note": 82,
      "start": 75.8491,
      "duration": 0.0494,
      "velocity": 126,
      "chip": "ym2612"
    },
    {
      "channel": 2,
      "note": 62,
      "start": 75.8656,
      "duration": 0.1422,
      "velocity": 100,
      "chip": "ym2612"
    },
    {
      "channel": 4,
      "note": 74,
      "start": 75.8985,
      "duration": 0.01,
      "velocity": 126,
      "chip": "ym2612"
    },
    {
      "channel": 5,
      "note": 77,
      "start": 75.9486,
      "duration": 0.1604,
      "velocity": 118,
      "chip": "ym2612"
    },
    {
      "channel": 2,
      "note": 74,
      "start": 76.032,
      "duration": 0.1428,
      "velocity": 100,
      "chip": "ym2612"
    },
    {
      "channel": 5,
      "note": 77,
      "start": 76.1154,
      "duration": 0.1606,
      "velocity": 118,
      "chip": "ym2612"
    },
    {
      "channel": 4,
      "note": 65,
      "start": 76.1829,
      "duration": 0.0489,
      "velocity": 120,
      "chip": "ym2612"
    },
    {
      "channel": 2,
      "note": 60,
      "start": 76.1989,
      "duration": 0.0589,
      "velocity": 100,
      "chip": "ym2612"
    },
    {
      "channel": 4,
      "note": 53,
      "start": 76.2319,
      "duration": 0.01,
      "velocity": 120,
      "chip": "ym2612"
    },
    {
      "channel": 2,
      "note": 72,
      "start": 76.2848,
      "duration": 0.0567,
      "velocity": 100,
      "chip": "ym2612"
    },
    {
      "channel": 5,
      "note": 77,
      "start": 76.285,
      "duration": 0.0576,
      "velocity": 118,
      "chip": "ym2612"
    },
    {
      "channel": 2,
      "note": 62,
      "start": 76.3698,
      "duration": 0.138,
      "velocity": 100,
      "chip": "ym2612"
    },
    {
      "channel": 5,
      "note": 77,
      "start": 76.4487,
      "duration": 0.1439,
      "velocity": 118,
      "chip": "ym2612"
    },
    {
      "channel": 4,
      "note": 65,
      "start": 76.5158,
      "duration": 0.0494,
      "velocity": 120,
      "chip": "ym2612"
    },
    {
      "channel": 2,
      "note": 74,
      "start": 76.532,
      "duration": 0.1424,
      "velocity": 100,
      "chip": "ym2612"
    },
    {
      "channel": 4,
      "note": 53,
      "start": 76.5652,
      "duration": 0.01,
      "velocity": 120,
      "chip": "ym2612"
    },
    {
      "channel": 5,
      "note": 77,
      "start": 76.6153,
      "duration": 0.1602,
      "velocity": 118,
      "chip": "ym2612"
    },
    {
      "channel": 2,
      "note": 62,
      "start": 76.6987,
      "duration": 0.1424,
      "velocity": 100,
      "chip": "ym2612"
    },
    {
      "channel": 5,
      "note": 77,
      "start": 76.7819,
      "duration": 0.1602,
      "velocity": 118,
      "chip": "ym2612"
    },
    {
      "channel": 4,
      "note": 82,
      "start": 76.8491,
      "duration": 0.0494,
      "velocity": 126,
      "chip": "ym2612"
    },
    {
      "channel": 2,
      "note": 74,
      "start": 76.8656,
      "duration": 0.1422,
      "velocity": 100,
      "chip": "ym2612"
    },
    {
      "channel": 4,
      "note": 74,
      "start": 76.8985,
      "duration": 0.01,
      "velocity": 126,
      "chip": "ym2612"
    },
    {
      "channel": 5,
      "note": 77,
      "start": 76.9486,
      "duration": 0.1602,
      "velocity": 118,
      "chip": "ym2612"
    },
    {
      "channel": 2,
      "note": 62,
      "start": 77.032,
      "duration": 0.1424,
      "velocity": 100,
      "chip": "ym2612"
    },
    {
      "channel": 5,
      "note": 77,
      "start": 77.1153,
      "duration": 0.1604,
      "velocity": 118,
      "chip": "ym2612"
    },
    {
      "channel": 4,
      "note": 65,
      "start": 77.1824,
      "duration": 0.0494,
      "velocity": 120,
      "chip": "ym2612"
    },
    {
      "channel": 2,
      "note": 74,
      "start": 77.1987,
      "duration": 0.1428,
      "velocity": 100,
      "chip": "ym2612"
    },
    {
      "channel": 4,
      "note": 53,
      "start": 77.2319,
      "duration": 0.01,
      "velocity": 120,
      "chip": "ym2612"
    },
    {
      "channel": 5,
      "note": 77,
      "start": 77.282,
      "duration": 0.1606,
      "velocity": 118,
      "chip": "ym2612"
    },
    {
      "channel": 4,
      "note": 82,
      "start": 77.3496,
      "duration": 0.0489,
      "velocity": 126,
      "chip": "ym2612"
    },
    {
      "channel": 2,
      "note": 60,
      "start": 77.3658,
      "duration": 0.0587,
      "velocity": 100,
      "chip": "ym2612"
    },
    {
      "channel": 4,
      "note": 74,
      "start": 77.3985,
      "duration": 0.01,
      "velocity": 126,
      "chip": "ym2612"
    },
    {
      "channel": 2,
      "note": 72,
      "start": 77.4515,
      "duration": 0.0568,
      "velocity": 100,
      "chip": "ym2612"
    },
    {
      "channel": 5,
      "note": 77,
      "start": 77.4516,
      "duration": 0.0588,
      "velocity": 118,
      "chip": "ym2612"
    },
    {
      "channel": 0,
      "note": 93,
      "start": 77.5189,
      "duration": 0.1382,
      "velocity": 110,
      "chip": "ym2612"
    },
    {
      "channel": 4,
      "note": 65,
      "start": 77.5191,
      "duration": 0.0461,
      "velocity": 120,
      "chip": "ym2612"
    },
    {
      "channel": 2,
      "note": 62,
      "start": 77.5362,
      "duration": 0.1387,
      "velocity": 100,
      "chip": "ym2612"
    },
    {
      "channel": 1,
      "note": 105,
      "start": 77.5517,
      "duration": 0.1391,
      "velocity": 110,
      "chip": "ym2612"
    },
    {
      "channel": 3,
      "note": 81,
      "start": 77.5519,
      "duration": 0.9062,
      "velocity": 110,
      "chip": "ym2612"
    },
    {
      "channel": 4,
      "note": 53,
      "start": 77.5652,
      "duration": 0.01,
      "velocity": 120,
      "chip": "ym2612"
    },
    {
      "channel": 5,
      "note": 77,
      "start": 77.6153,
      "duration": 0.1436,
      "velocity": 118,
      "chip": "ym2612"
    },
    {
      "channel": 0,
      "note": 91,
      "start": 77.682,
      "duration": 0.1417,
      "velocity": 110,
      "chip": "ym2612"
    },
    {
      "channel": 2,
      "note": 74,
      "start": 77.6988,
      "duration": 0.1428,
      "velocity": 100,
      "chip": "ym2612"
    },
    {
      "channel": 1,
      "note": 103,
      "start": 77.7153,
      "duration": 0.1421,
      "velocity": 110,
      "chip": "ym2612"
    },
    {
      "channel": 5,
      "note": 77,
      "start": 77.7819,
      "duration": 0.1602,
      "velocity": 118,
      "chip": "ym2612"
    },
    {
      "channel": 0,
      "note": 93,
      "start": 77.8518,
      "duration": 0.1386,
      "velocity": 110,
      "chip": "ym2612"
    },
    {
      "channel": 4,
      "note": 65,
      "start": 77.8521,
      "duration": 0.0464,
      "velocity": 120,
      "chip": "ym2612"
    },
    {
      "channel": 2,
      "note": 62,
      "start": 77.8654,
      "duration": 0.1428,
      "velocity": 100,
      "chip": "ym2612"
    },
    {
      "channel": 1,
      "note": 105,
      "start": 77.8822,
      "duration": 0.1419,
      "velocity": 110,
      "chip": "ym2612"
    },
    {
      "channel": 4,
      "note": 53,
      "start": 77.8985,
      "duration": 0.01,
      "velocity": 120,
      "chip": "ym2612"
    },
    {
      "channel": 5,
      "note": 77,
      "start": 77.9486,
      "duration": 0.1602,
      "velocity": 118,
      "chip": "ym2612"
    },
    {
      "channel": 0,
      "note": 91,
      "start": 78.0154,
      "duration": 0.1417,
      "velocity": 110,
      "chip": "ym2612"
    },
    {
      "channel": 2,
      "note": 74,
      "start": 78.0321,
      "duration": 0.1428,
      "velocity": 100,
      "chip": "ym2612"
    },
    {
      "channel": 1,
      "note": 103,
      "start": 78.0487,
      "duration": 0.1421,
      "velocity": 110,
      "chip": "ym2612"
    },
    {
      "channel": 5,
      "note": 77,
      "start": 78.1153,
      "duration": 0.1602,
      "velocity": 118,
      "chip": "ym2612"
    },
    {
      "channel": 0,
      "note": 93,
      "start": 78.1852,
      "duration": 0.1386,
      "velocity": 110,
      "chip": "ym2612"
    },
    {
      "channel": 4,
      "note": 82,
      "start": 78.1854,
      "duration": 0.0464,
      "velocity": 126,
      "chip": "ym2612"
    },
    {
      "channel": 2,
      "note": 62,
      "start": 78.199,
      "duration": 0.1426,
      "velocity": 100,
      "chip": "ym2612"
    },
    {
      "channel": 1,
      "note": 105,
      "start": 78.2156,
      "duration": 0.1419,
      "velocity": 110,
      "chip": "ym2612"
    },
    {
      "channel": 4,
      "note": 74,
      "start": 78.2319,
      "duration": 0.01,
      "velocity": 126,
      "chip": "ym2612"
    },
    {
      "channel": 5,
      "note": 77,
      "start": 78.2819,
      "duration": 0.1602,
      "velocity": 118,
      "chip": "ym2612"
    },
    {
      "channel": 0,
      "note": 94,
      "start": 78.3487,
      "duration": 0.1417,
      "velocity": 110,
      "chip": "ym2612"
    },
    {
      "channel": 2,
      "note": 74,
      "start": 78.3654,
      "duration": 0.1427,
      "velocity": 100,
      "chip": "ym2612"
    },
    {
      "channel": 1,
      "note": 106,
      "start": 78.382,
      "duration": 0.1421,
      "velocity": 110,
      "chip": "ym2612"
    },
    {
      "channel": 5,
      "note": 77,
      "start": 78.4486,
      "duration": 0.1607,
      "velocity": 118,
      "chip": "ym2612"
    },
    {
      "channel": 0,
      "note": 93,
      "start": 78.5186,
      "duration": 0.1385,
      "velocity": 110,
      "chip": "ym2612"
    },
    {
      "channel": 4,
      "note": 65,
      "start": 78.5188,
      "duration": 0.0464,
      "velocity": 120,
      "chip": "ym2612"
    },
    {
      "channel": 2,
      "note": 60,
      "start": 78.5322,
      "duration": 0.0589,
      "velocity": 100,
      "chip": "ym2612"
    },
    {
      "channel": 1,
      "note": 105,
      "start": 78.5517,
      "duration": 0.1391,
      "velocity": 110,
      "chip": "ym2612"
    },
    {
      "channel": 3,
      "note": 81,
      "start": 78.5519,
      "duration": 0.1404,
      "velocity": 110,
      "chip": "ym2612"
    },
    {
      "channel": 4,
      "note": 53,
      "start": 78.5652,
      "duration": 0.01,
      "velocity": 120,
      "chip": "ym2612"
    },
    {
      "channel": 2,
      "note": 72,
      "start": 78.6181,
      "duration": 0.0568,
      "velocity": 100,
      "chip": "ym2612"
    },
    {
      "channel": 5,
      "note": 77,
      "start": 78.6183,
      "duration": 0.0578,
      "velocity": 118,
      "chip": "ym2612"
    },
    {
      "channel": 0,
      "note": 91,
      "start": 78.6822,
      "duration": 0.1416,
      "velocity": 110,
      "chip": "ym2612"
    },
    {
      "channel": 2,
      "note": 62,
      "start": 78.7029,
      "duration": 0.1387,
      "velocity": 100,
      "chip": "ym2612"
    },
    {
      "channel": 1,
      "note": 103,
      "start": 78.7181,
      "duration": 0.1393,
      "velocity": 110,
      "chip": "ym2612"
    },
    {
      "channel": 3,
      "note": 79,
      "start": 78.7183,
      "duration": 0.6067,
      "velocity": 110,
      "chip": "ym2612"
    },
    {
      "channel": 5,
      "note": 77,
      "start": 78.782,
      "duration": 0.1439,
      "velocity": 118,
      "chip": "ym2612"
    },
    {
      "channel": 0,
      "note": 93,
      "start": 78.8518,
      "duration": 0.1386,
      "velocity": 110,
      "chip": "ym2612"
    },
    {
      "channel": 4,
      "note": 65,
      "start": 78.8521,
      "duration": 0.0464,
      "velocity": 120,
      "chip": "ym2612"
    },
    {
      "channel": 2,
      "note": 74,
      "start": 78.8654,
      "duration": 0.1428,
      "velocity": 100,
      "chip": "ym2612"
    },
    {
      "channel": 1,
      "note": 105,
      "start": 78.8822,
      "duration": 0.1419,
      "velocity": 110,
      "chip": "ym2612"
    },
    {
      "channel": 4,
      "note": 53,
      "start": 78.8985,
      "duration": 0.01,
      "velocity": 120,
      "chip": "ym2612"
    },
    {
      "channel": 5,
      "note": 77,
      "start": 78.9486,
      "duration": 0.1602,
      "velocity": 118,
      "chip": "ym2612"
    },
    {
      "channel": 0,
      "note": 91,
      "start": 79.0154,
      "duration": 0.1417,
      "velocity": 110,
      "chip": "ym2612"
    },
    {
      "channel": 2,
      "note": 62,
      "start": 79.0321,
      "duration": 0.1428,
      "velocity": 100,
      "chip": "ym2612"
    },
    {
      "channel": 1,
      "note": 103,
      "start": 79.0487,
      "duration": 0.1421,
      "velocity": 110,
      "chip": "ym2612"
    },
    {
      "channel": 5,
      "note": 77,
      "start": 79.1153,
      "duration": 0.1602,
      "velocity": 118,
      "chip": "ym2612"
    },
    {
      "channel": 0,
      "note": 93,
      "start": 79.1852,
      "duration": 0.1386,
      "velocity": 110,
      "chip": "ym2612"
    },
    {
      "channel": 4,
      "note": 82,
      "start": 79.1854,
      "duration": 0.0464,
      "velocity": 126,
      "chip": "ym2612"
    },
    {
      "channel": 2,
      "note": 74,
      "start": 79.199,
      "duration": 0.1426,
      "velocity": 100,
      "chip": "ym2612"
    },
    {
      "channel": 1,
      "note": 105,
      "start": 79.2156,
      "duration": 0.1419,
      "velocity": 110,
      "chip": "ym2612"
    },
    {
      "channel": 4,
      "note": 74,
      "start": 79.2319,
      "duration": 0.01,
      "velocity": 126,
      "chip": "ym2612"
    },
    {
      "channel": 5,
      "note": 77,
      "start": 79.2819,
      "duration": 0.1602,
      "velocity": 118,
      "chip": "ym2612"
    },
    {
      "channel": 0,
      "note": 91,
      "start": 79.3488,
      "duration": 0.1416,
      "velocity": 110,
      "chip": "ym2612"
    },
    {
      "channel": 2,
      "note": 62,
      "start": 79.3656,
      "duration": 0.1427,
      "velocity": 100,
      "chip": "ym2612"
    },
    {
      "channel": 1,
      "note": 103,
      "start": 79.3848,
      "duration": 0.1393,
      "velocity": 110,
      "chip": "ym2612"
    },
    {
      "channel": 3,
      "note": 79,
      "start": 79.3849,
      "duration": 0.6066,
      "velocity": 110,
      "chip": "ym2612"
    },
    {
      "channel": 5,
      "note": 77,
      "start": 79.4486,
      "duration": 0.1602,
      "velocity": 118,
      "chip": "ym2612"
    },
    {
      "channel": 0,
      "note": 93,
      "start": 79.5185,
      "duration": 0.1386,
      "velocity": 110,
      "chip": "ym2612"
    },
    {
      "channel": 4,
      "note": 65,
      "start": 79.5188,
      "duration": 0.0464,
      "velocity": 120,
      "chip": "ym2612"
    },
    {
      "channel": 2,
      "note": 74,
      "start": 79.5321,
      "duration": 0.1428,
      "velocity": 100,
      "chip": "ym2612"
    },
    {
      "channel": 1,
      "note": 105,
      "start": 79.5489,
      "duration": 0.1419,
      "velocity": 110,
      "chip": "ym2612"
    },
    {
      "channel": 4,
      "note": 53,
      "start": 79.5652,
      "duration": 0.01,
      "velocity": 120,
      "chip": "ym2612"
    },
    {
      "channel": 5,
      "note": 77,
      "start": 79.6153,
      "duration": 0.1607,
      "velocity": 118,
      "chip": "ym2612"
    },
    {
      "channel": 0,
      "note": 94,
      "start": 79.6852,
      "duration": 1.2053,
      "velocity": 110,
      "chip": "ym2612"
    },
    {
      "channel": 4,
      "note": 82,
      "start": 79.6854,
      "duration": 0.0464,
      "velocity": 126,
      "chip": "ym2612"
    },
    {
      "channel": 2,
      "note": 60,
      "start": 79.699,
      "duration": 0.0588,
      "velocity": 100,
      "chip": "ym2612"
    },
    {
      "channel": 1,
      "note": 106,
      "start": 79.7156,
      "duration": 1.2086,
      "velocity": 110,
      "chip": "ym2612"
    },
    {
      "channel": 4,
      "note": 74,
      "start": 79.7319,
      "duration": 0.01,
      "velocity": 126,
      "chip": "ym2612"
    },
    {
      "channel": 2,
      "note": 72,
      "start": 79.7848,
      "duration": 0.0563,
      "velocity": 100,
      "chip": "ym2612"
    },
    {
      "channel": 5,
      "note": 77,
      "start": 79.785,
      "duration": 0.058,
      "velocity": 118,
      "chip": "ym2612"
    },
    {
      "channel": 2,
      "note": 60,
      "start": 79.8694,
      "duration": 0.0551,
      "velocity": 100,
      "chip": "ym2612"
    },
    {
      "channel": 2,
      "note": 61,
      "start": 79.9515,
      "duration": 0.0563,
      "velocity": 100,
      "chip": "ym2612"
    },
    {
      "channel": 5,
      "note": 77,
      "start": 79.9516,
      "duration": 0.1412,
      "velocity": 118,
      "chip": "ym2612"
    },
    {
      "channel": 4,
      "note": 82,
      "start": 80.0158,
      "duration": 0.0494,
      "velocity": 126,
      "chip": "ym2612"
    },
    {
      "channel": 2,
      "note": 62,
      "start": 80.0323,
      "duration": 0.0588,
      "velocity": 100,
      "chip": "ym2612"
    },
    {
      "channel": 3,
      "note": 79,
      "start": 80.0488,
      "duration": 0.9095,
      "velocity": 110,
      "chip": "ym2612"
    },
    {
      "channel": 4,
      "note": 74,
      "start": 80.0652,
      "duration": 0.01,
      "velocity": 126,
      "chip": "ym2612"
    },
    {
      "channel": 2,
      "note": 63,
      "start": 80.118,
      "duration": 0.0564,
      "velocity": 100,
      "chip": "ym2612"
    },
    {
      "channel": 5,
      "note": 77,
      "start": 80.1182,
      "duration": 0.1578,
      "velocity": 118,
      "chip": "ym2612"
    },
    {
      "channel": 2,
      "note": 64,
      "start": 80.1987,
      "duration": 0.0591,
      "velocity": 100,
      "chip": "ym2612"
    },
    {
      "channel": 2,
      "note": 65,
      "start": 80.2847,
      "duration": 0.0564,
      "velocity": 100,
      "chip": "ym2612"
    },
    {
      "channel": 5,
      "note": 77,
      "start": 80.2849,
      "duration": 0.1578,
      "velocity": 118,
      "chip": "ym2612"
    },
    {
      "channel": 4,
      "note": 82,
      "start": 80.3491,
      "duration": 0.0494,
      "velocity": 126,
      "chip": "ym2612"
    },
    {
      "channel": 2,
      "note": 66,
      "start": 80.3656,
      "duration": 0.0589,
      "velocity": 100,
      "chip": "ym2612"
    },
    {
      "channel": 4,
      "note": 74,
      "start": 80.3985,
      "duration": 0.01,
      "velocity": 126,
      "chip": "ym2612"
    },
    {
      "channel": 2,
      "note": 67,
      "start": 80.4514,
      "duration": 0.0564,
      "velocity": 100,
      "chip": "ym2612"
    },
    {
      "channel": 5,
      "note": 77,
      "start": 80.4516,
      "duration": 0.1578,
      "velocity": 118,
      "chip": "ym2612"
    },
    {
      "channel": 4,
      "note": 82,
      "start": 80.5158,
      "duration": 0.0494,
      "velocity": 126,
      "chip": "ym2612"
    },
    {
      "channel": 2,
      "note": 68,
      "start": 80.5322,
      "duration": 0.0589,
      "velocity": 100,
      "chip": "ym2612"
    },
    {
      "channel": 4,
      "note": 74,
      "start": 80.5652,
      "duration": 0.01,
      "velocity": 126,
      "chip": "ym2612"
    },
    {
      "channel": 2,
      "note": 69,
      "start": 80.618,
      "duration": 0.0564,
      "velocity": 100,
      "chip": "ym2612"
    },
    {
      "channel": 5,
      "note": 77,
      "start": 80.6183,
      "duration": 0.1578,
      "velocity": 118,
      "chip": "ym2612"
    },
    {
      "channel": 4,
      "note": 82,
      "start": 80.6824,
      "duration": 0.0494,
      "velocity": 126,
      "chip": "ym2612"
    },
    {
      "channel": 2,
      "note": 70,
      "start": 80.6989,
      "duration": 0.0589,
      "velocity": 100,
      "chip": "ym2612"
    },
    {
      "channel": 4,
      "note": 74,
      "start": 80.7319,
      "duration": 0.01,
      "velocity": 126,
      "chip": "ym2612"
    },
    {
      "channel": 2,
      "note": 71,
      "start": 80.7847,
      "duration": 0.0564,
      "velocity": 100,
      "chip": "ym2612"
    },
    {
      "channel": 5,
      "note": 77,
      "start": 80.7849,
      "duration": 0.1579,
      "velocity": 118,
      "chip": "ym2612"
    },
    {
      "channel": 4,
      "note": 82,
      "start": 80.8491,
      "duration": 0.0496,
      "velocity": 126,
      "chip": "ym2612"
    },
    {
      "channel": 2,
      "note": 72,
      "start": 80.8656,
      "duration": 0.0591,
      "velocity": 100,
      "chip": "ym2612"
    },
    {
      "channel": 4,
      "note": 74,
      "start": 80.8987,
      "duration": 0.0099,
      "velocity": 126,
      "chip": "ym2612"
    },
    {
      "channel": 2,
      "note": 74,
      "start": 80.9516,
      "duration": 0.0567,
      "velocity": 100,
      "chip": "ym2612"
    },
    {
      "channel": 5,
      "note": 77,
      "start": 80.9518,
      "duration": 0.0584,
      "velocity": 118,
      "chip": "ym2612"
    },
    {
      "channel": 0,
      "note": 98,
      "start": 82.1862,
      "duration": 2.3279,
      "velocity": 110,
      "chip": "ym2612"
    },
    {
      "channel": 4,
      "note": 65,
      "start": 82.1864,
      "duration": 0.0457,
      "velocity": 120,
      "chip": "ym2612"
    },
    {
      "channel": 2,
      "note": 62,
      "start": 82.2033,
      "duration": 0.1378,
      "velocity": 100,
      "chip": "ym2612"
    },
    {
      "channel": 1,
      "note": 105,
      "start": 82.2192,
      "duration": 2.2949,
      "velocity": 110,
      "chip": "ym2612"
    },
    {
      "channel": 3,
      "note": 74,
      "start": 82.2193,
      "duration": 2.2948,
      "velocity": 110,
      "chip": "ym2612"
    },
    {
      "channel": 4,
      "note": 53,
      "start": 82.2322,
      "duration": 0.0097,
      "velocity": 120,
      "chip": "ym2612"
    },
    {
      "channel": 5,
      "note": 77,
      "start": 82.282,
      "duration": 0.1436,
      "velocity": 118,
      "chip": "ym2612"
    },
    {
      "channel": 2,
      "note": 74,
      "start": 82.3654,
      "duration": 0.1424,
      "velocity": 100,
      "chip": "ym2612"
    },
    {
      "channel": 5,
      "note": 77,
      "start": 82.4486,
      "duration": 0.1602,
      "velocity": 118,
      "chip": "ym2612"
    },
    {
      "channel": 4,
      "note": 65,
      "start": 82.5158,
      "duration": 0.0494,
      "velocity": 120,
      "chip": "ym2612"
    },
    {
      "channel": 2,
      "note": 62,
      "start": 82.532,
      "duration": 0.1424,
      "velocity": 100,
      "chip": "ym2612"
    },
    {
      "channel": 4,
      "note": 53,
      "start": 82.5652,
      "duration": 0.01,
      "velocity": 120,
      "chip": "ym2612"
    },
    {
      "channel": 5,
      "note": 77,
      "start": 82.6153,
      "duration": 0.1602,
      "velocity": 118,
      "chip": "ym2612"
    },
    {
      "channel": 2,
      "note": 74,
      "start": 82.6987,
      "duration": 0.1424,
      "velocity": 100,
      "chip": "ym2612"
    },
    {
      "channel": 5,
      "note": 77,
      "start": 82.7819,
      "duration": 0.1602,
      "velocity": 118,
      "chip": "ym2612"
    },
    {
      "channel": 4,
      "note": 82,
      "start": 82.8491,
      "duration": 0.0494,
      "velocity": 126,
      "chip": "ym2612"
    },
    {
      "channel": 2,
      "note": 62,
      "start": 82.8656,
      "duration": 0.1422,
      "velocity": 100,
      "chip": "ym2612"
    },
    {
      "channel": 4,
      "note": 74,
      "start": 82.8985,
      "duration": 0.01,
      "velocity": 126,
      "chip": "ym2612"
    },
    {
      "channel": 5,
      "note": 77,
      "start": 82.9486,
      "duration": 0.1602,
      "velocity": 118,
      "chip": "ym2612"
    },
    {
      "channel": 2,
      "note": 74,
      "start": 83.032,
      "duration": 0.1424,
      "velocity": 100,
      "chip": "ym2612"
    },
    {
      "channel": 5,
      "note": 77,
      "start": 83.1153,
      "duration": 0.1607,
      "velocity": 118,
      "chip": "ym2612"
    },
    {
      "channel": 4,
      "note": 65,
      "start": 83.1824,
      "duration": 0.0494,
      "velocity": 120,
      "chip": "ym2612"
    },
    {
      "channel": 2,
      "note": 60,
      "start": 83.1987,
      "duration": 0.0591,
      "velocity": 100,
      "chip": "ym2612"
    },
    {
      "channel": 4,
      "note": 53,
      "start": 83.2319,
      "duration": 0.01,
      "velocity": 120,
      "chip": "ym2612"
    },
    {
      "channel": 2,
      "note": 72,
      "start": 83.2848,
      "duration": 0.0563,
      "velocity": 100,
      "chip": "ym2612"
    },
    {
      "channel": 5,
      "note": 77,
      "start": 83.285,
      "duration": 0.0573,
      "velocity": 118,
      "chip": "ym2612"
    },
    {
      "channel": 2,
      "note": 62,
      "start": 83.3694,
      "duration": 0.1384,
      "velocity": 100,
      "chip": "ym2612"
    },
    {
      "channel": 5,
      "note": 77,
      "start": 83.4487,
      "duration": 0.1439,
      "velocity": 118,
      "chip": "ym2612"
    },
    {
      "channel": 4,
      "note": 65,
      "start": 83.5158,
      "duration": 0.0494,
      "velocity": 120,
      "chip": "ym2612"
    },
    {
      "channel": 2,
      "note": 74,
      "start": 83.532,
      "duration": 0.1424,
      "velocity": 100,
      "chip": "ym2612"
    },
    {
      "channel": 4,
      "note": 53,
      "start": 83.5652,
      "duration": 0.01,
      "velocity": 120,
      "chip": "ym2612"
    },
    {
      "channel": 5,
      "note": 77,
      "start": 83.6153,
      "duration": 0.1602,
      "velocity": 118,
      "chip": "ym2612"
    },
    {
      "channel": 2,
      "note": 62,
      "start": 83.6987,
      "duration": 0.1424,
      "velocity": 100,
      "chip": "ym2612"
    },
    {
      "channel": 5,
      "note": 77,
      "start": 83.7819,
      "duration": 0.1602,
      "velocity": 118,
      "chip": "ym2612"
    },
    {
      "channel": 4,
      "note": 82,
      "start": 83.8491,
      "duration": 0.0494,
      "velocity": 126,
      "chip": "ym2612"
    },
    {
      "channel": 2,
      "note": 74,
      "start": 83.8656,
      "duration": 0.1422,
      "velocity": 100,
      "chip": "ym2612"
    },
    {
      "channel": 4,
      "note": 74,
      "start": 83.8985,
      "duration": 0.01,
      "velocity": 126,
      "chip": "ym2612"
    },
    {
      "channel": 5,
      "note": 77,
      "start": 83.9486,
      "duration": 0.1602,
      "velocity": 118,
      "chip": "ym2612"
    },
    {
      "channel": 2,
      "note": 62,
      "start": 84.032,
      "duration": 0.1424,
      "velocity": 100,
      "chip": "ym2612"
    },
    {
      "channel": 5,
      "note": 77,
      "start": 84.1153,
      "duration": 0.1602,
      "velocity": 118,
      "chip": "ym2612"
    },
    {
      "channel": 4,
      "note": 65,
      "start": 84.1824,
      "duration": 0.0494,
      "velocity": 120,
      "chip": "ym2612"
    },
    {
      "channel": 2,
      "note": 74,
      "start": 84.1987,
      "duration": 0.1424,
      "velocity": 100,
      "chip": "ym2612"
    },
    {
      "channel": 4,
      "note": 53,
      "start": 84.2319,
      "duration": 0.01,
      "velocity": 120,
      "chip": "ym2612"
    },
    {
      "channel": 5,
      "note": 77,
      "start": 84.2819,
      "duration": 0.1607,
      "velocity": 118,
      "chip": "ym2612"
    },
    {
      "channel": 4,
      "note": 82,
      "start": 84.3491,
      "duration": 0.0494,
      "velocity": 126,
      "chip": "ym2612"
    },
    {
      "channel": 2,
      "note": 60,
      "start": 84.3656,
      "duration": 0.0589,
      "velocity": 100,
      "chip": "ym2612"
    },
    {
      "channel": 4,
      "note": 74,
      "start": 84.3985,
      "duration": 0.01,
      "velocity": 126,
      "chip": "ym2612"
    },
    {
      "channel": 2,
      "note": 72,
      "start": 84.4515,
      "duration": 0.0563,
      "velocity": 100,
      "chip": "ym2612"
    },
    {
      "channel": 5,
      "note": 77,
      "start": 84.4516,
      "duration": 0.0583,
      "velocity": 118,
      "chip": "ym2612"
    }
  ]
}