{
  "track_name": "11 - Credits at End",
  "duration_sec": 68.008,
  "sample_rate": 44100,
  "note_count": 1888,
  "unique_pitches": 57,
  "pitch_range": 75,
  "avg_note_duration": 0.2159,
  "reconstruction_stats": {
    "notes_reconstructed": 1888,
    "keyon_events": 1888,
    "keyoff_events": 1262,
    "orphan_keyons": 6,
    "unique_pitches": 57,
    "pitch_range": 75,
    "avg_duration_sec": 0.2159
  },
  "metadata": {
    "source": "T\\The Terminator\\11 - Credits at End.vgz"
  },
  "notes": [
    {
      "channel": 0,
      "note": 72,
      "start": 0.0,
      "duration": 2.5204,
      "velocity": 47,
      "chip": "ym2612"
    },
    {
      "channel": 2,
      "note": 84,
      "start": 0.002,
      "duration": 2.519,
      "velocity": 47,
      "chip": "ym2612"
    },
    {
      "channel": 3,
      "note": 79,
      "start": 0.0039,
      "duration": 2.5177,
      "velocity": 47,
      "chip": "ym2612"
    },
    {
      "channel": 4,
      "note": 77,
      "start": 0.0058,
      "duration": 2.5163,
      "velocity": 47,
      "chip": "ym2612"
    },
    {
      "channel": 1,
      "note": 26,
      "start": 0.0749,
      "duration": 0.1541,
      "velocity": 91,
      "chip": "ym2612"
    },
    {
      "channel": 5,
      "note": 79,
      "start": 0.1476,
      "duration": 0.0821,
      "velocity": 108,
      "chip": "ym2612"
    },
    {
      "channel": 1,
      "note": 26,
      "start": 0.2292,
      "duration": 0.0831,
      "velocity": 91,
      "chip": "ym2612"
    },
    {
      "channel": 5,
      "note": 79,
      "start": 0.2299,
      "duration": 0.2333,
      "velocity": 127,
      "chip": "ym2612"
    },
    {
      "channel": 1,
      "note": 38,
      "start": 0.3126,
      "duration": 0.1485,
      "velocity": 91,
      "chip": "ym2612"
    },
    {
      "channel": 1,
      "note": 26,
      "start": 0.4613,
      "duration": 0.1665,
      "velocity": 91,
      "chip": "ym2612"
    },
    {
      "channel": 5,
      "note": 31,
      "start": 0.4634,
      "duration": 0.0826,
      "velocity": 108,
      "chip": "ym2612"
    },
    {
      "channel": 5,
      "note": 79,
      "start": 0.5462,
      "duration": 0.2327,
      "velocity": 108,
      "chip": "ym2612"
    },
    {
      "channel": 1,
      "note": 26,
      "start": 0.6279,
      "duration": 0.0763,
      "velocity": 91,
      "chip": "ym2612"
    },
    {
      "channel": 1,
      "note": 26,
      "start": 0.7044,
      "duration": 0.1575,
      "velocity": 91,
      "chip": "ym2612"
    },
    {
      "channel": 5,
      "note": 79,
      "start": 0.779,
      "duration": 0.0835,
      "velocity": 108,
      "chip": "ym2612"
    },
    {
      "channel": 1,
      "note": 26,
      "start": 0.862,
      "duration": 0.0831,
      "velocity": 91,
      "chip": "ym2612"
    },
    {
      "channel": 5,
      "note": 79,
      "start": 0.8627,
      "duration": 0.2313,
      "velocity": 127,
      "chip": "ym2612"
    },
    {
      "channel": 1,
      "note": 38,
      "start": 0.9454,
      "duration": 0.1466,
      "velocity": 91,
      "chip": "ym2612"
    },
    {
      "channel": 1,
      "note": 26,
      "start": 1.0922,
      "duration": 0.241,
      "velocity": 91,
      "chip": "ym2612"
    },
    {
      "channel": 5,
      "note": 31,
      "start": 1.0942,
      "duration": 0.0826,
      "velocity": 108,
      "chip": "ym2612"
    },
    {
      "channel": 5,
      "note": 79,
      "start": 1.1771,
      "duration": 0.2307,
      "velocity": 108,
      "chip": "ym2612"
    },
    {
      "channel": 1,
      "note": 26,
      "start": 1.3333,
      "duration": 0.1575,
      "velocity": 91,
      "chip": "ym2612"
    },
    {
      "channel": 5,
      "note": 79,
      "start": 1.4079,
      "duration": 0.0835,
      "velocity": 108,
      "chip": "ym2612"
    },
    {
      "channel": 1,
      "note": 26,
      "start": 1.491,
      "duration": 0.0831,
      "velocity": 91,
      "chip": "ym2612"
    },
    {
      "channel": 5,
      "note": 79,
      "start": 1.4917,
      "duration": 0.2335,
      "velocity": 127,
      "chip": "ym2612"
    },
    {
      "channel": 1,
      "note": 38,
      "start": 1.5743,
      "duration": 0.1488,
      "velocity": 91,
      "chip": "ym2612"
    },
    {
      "channel": 1,
      "note": 26,
      "start": 1.7232,
      "duration": 0.1665,
      "velocity": 91,
      "chip": "ym2612"
    },
    {
      "channel": 5,
      "note": 31,
      "start": 1.7253,
      "duration": 0.0826,
      "velocity": 108,
      "chip": "ym2612"
    },
    {
      "channel": 5,
      "note": 79,
      "start": 1.8082,
      "duration": 0.2306,
      "velocity": 108,
      "chip": "ym2612"
    },
    {
      "channel": 1,
      "note": 26,
      "start": 1.8898,
      "duration": 0.0744,
      "velocity": 91,
      "chip": "ym2612"
    },
    {
      "channel": 1,
      "note": 26,
      "start": 1.9643,
      "duration": 0.1574,
      "velocity": 91,
      "chip": "ym2612"
    },
    {
      "channel": 5,
      "note": 79,
      "start": 2.0389,
      "duration": 0.0849,
      "velocity": 127,
      "chip": "ym2612"
    },
    {
      "channel": 1,
      "note": 26,
      "start": 2.1219,
      "duration": 0.0831,
      "velocity": 91,
      "chip": "ym2612"
    },
    {
      "channel": 5,
      "note": 31,
      "start": 2.124,
      "duration": 0.2306,
      "velocity": 127,
      "chip": "ym2612"
    },
    {
      "channel": 1,
      "note": 38,
      "start": 2.2052,
      "duration": 0.1485,
      "velocity": 91,
      "chip": "ym2612"
    },
    {
      "channel": 1,
      "note": 26,
      "start": 2.354,
      "duration": 0.241,
      "velocity": 91,
      "chip": "ym2612"
    },
    {
      "channel": 5,
      "note": 31,
      "start": 2.3546,
      "duration": 0.084,
      "velocity": 108,
      "chip": "ym2612"
    },
    {
      "channel": 5,
      "note": 79,
      "start": 2.4389,
      "duration": 0.2306,
      "velocity": 108,
      "chip": "ym2612"
    },
    {
      "channel": 0,
      "note": 72,
      "start": 2.5206,
      "duration": 2.5128,
      "velocity": 47,
      "chip": "ym2612"
    },
    {
      "channel": 2,
      "note": 84,
      "start": 2.5212,
      "duration": 2.5128,
      "velocity": 47,
      "chip": "ym2612"
    },
    {
      "channel": 3,
      "note": 79,
      "start": 2.5217,
      "duration": 2.5128,
      "velocity": 47,
      "chip": "ym2612"
    },
    {
      "channel": 4,
      "note": 75,
      "start": 2.5222,
      "duration": 2.5129,
      "velocity": 47,
      "chip": "ym2612"
    },
    {
      "channel": 1,
      "note": 26,
      "start": 2.5951,
      "duration": 0.1574,
      "velocity": 91,
      "chip": "ym2612"
    },
    {
      "channel": 5,
      "note": 79,
      "start": 2.6697,
      "duration": 0.0835,
      "velocity": 108,
      "chip": "ym2612"
    },
    {
      "channel": 1,
      "note": 26,
      "start": 2.7527,
      "duration": 0.0832,
      "velocity": 91,
      "chip": "ym2612"
    },
    {
      "channel": 5,
      "note": 79,
      "start": 2.7534,
      "duration": 0.2335,
      "velocity": 127,
      "chip": "ym2612"
    },
    {
      "channel": 1,
      "note": 38,
      "start": 2.836,
      "duration": 0.1488,
      "velocity": 91,
      "chip": "ym2612"
    },
    {
      "channel": 1,
      "note": 26,
      "start": 2.985,
      "duration": 0.1664,
      "velocity": 91,
      "chip": "ym2612"
    },
    {
      "channel": 5,
      "note": 31,
      "start": 2.9871,
      "duration": 0.0826,
      "velocity": 108,
      "chip": "ym2612"
    },
    {
      "channel": 5,
      "note": 79,
      "start": 3.0699,
      "duration": 0.2284,
      "velocity": 108,
      "chip": "ym2612"
    },
    {
      "channel": 1,
      "note": 26,
      "start": 3.1516,
      "duration": 0.0741,
      "velocity": 91,
      "chip": "ym2612"
    },
    {
      "channel": 1,
      "note": 26,
      "start": 3.2259,
      "duration": 0.1555,
      "velocity": 91,
      "chip": "ym2612"
    },
    {
      "channel": 5,
      "note": 79,
      "start": 3.2985,
      "duration": 0.0835,
      "velocity": 108,
      "chip": "ym2612"
    },
    {
      "channel": 1,
      "note": 26,
      "start": 3.3816,
      "duration": 0.0832,
      "velocity": 91,
      "chip": "ym2612"
    },
    {
      "channel": 5,
      "note": 79,
      "start": 3.3823,
      "duration": 0.2332,
      "velocity": 127,
      "chip": "ym2612"
    },
    {
      "channel": 1,
      "note": 38,
      "start": 3.4649,
      "duration": 0.1485,
      "velocity": 91,
      "chip": "ym2612"
    },
    {
      "channel": 1,
      "note": 26,
      "start": 3.6135,
      "duration": 0.239,
      "velocity": 91,
      "chip": "ym2612"
    },
    {
      "channel": 5,
      "note": 31,
      "start": 3.6156,
      "duration": 0.0827,
      "velocity": 108,
      "chip": "ym2612"
    },
    {
      "channel": 5,
      "note": 79,
      "start": 3.6985,
      "duration": 0.2266,
      "velocity": 108,
      "chip": "ym2612"
    },
    {
      "channel": 1,
      "note": 26,
      "start": 3.8527,
      "duration": 0.1554,
      "velocity": 91,
      "chip": "ym2612"
    },
    {
      "channel": 5,
      "note": 79,
      "start": 3.9252,
      "duration": 0.0835,
      "velocity": 108,
      "chip": "ym2612"
    },
    {
      "channel": 1,
      "note": 26,
      "start": 4.0083,
      "duration": 0.0832,
      "velocity": 91,
      "chip": "ym2612"
    },
    {
      "channel": 5,
      "note": 79,
      "start": 4.009,
      "duration": 0.2332,
      "velocity": 127,
      "chip": "ym2612"
    },
    {
      "channel": 1,
      "note": 38,
      "start": 4.0916,
      "duration": 0.1485,
      "velocity": 91,
      "chip": "ym2612"
    },
    {
      "channel": 1,
      "note": 26,
      "start": 4.2402,
      "duration": 0.1665,
      "velocity": 91,
      "chip": "ym2612"
    },
    {
      "channel": 5,
      "note": 31,
      "start": 4.2423,
      "duration": 0.0827,
      "velocity": 108,
      "chip": "ym2612"
    },
    {
      "channel": 5,
      "note": 79,
      "start": 4.3252,
      "duration": 0.2284,
      "velocity": 108,
      "chip": "ym2612"
    },
    {
      "channel": 1,
      "note": 26,
      "start": 4.4069,
      "duration": 0.0741,
      "velocity": 91,
      "chip": "ym2612"
    },
    {
      "channel": 1,
      "note": 26,
      "start": 4.4812,
      "duration": 0.1555,
      "velocity": 91,
      "chip": "ym2612"
    },
    {
      "channel": 5,
      "note": 79,
      "start": 4.5538,
      "duration": 0.0849,
      "velocity": 127,
      "chip": "ym2612"
    },
    {
      "channel": 1,
      "note": 26,
      "start": 4.6368,
      "duration": 0.0831,
      "velocity": 91,
      "chip": "ym2612"
    },
    {
      "channel": 5,
      "note": 31,
      "start": 4.6389,
      "duration": 0.2285,
      "velocity": 127,
      "chip": "ym2612"
    },
    {
      "channel": 1,
      "note": 38,
      "start": 4.7202,
      "duration": 0.1465,
      "velocity": 91,
      "chip": "ym2612"
    },
    {
      "channel": 1,
      "note": 26,
      "start": 4.8668,
      "duration": 0.2393,
      "velocity": 91,
      "chip": "ym2612"
    },
    {
      "channel": 5,
      "note": 31,
      "start": 4.8676,
      "duration": 0.084,
      "velocity": 108,
      "chip": "ym2612"
    },
    {
      "channel": 5,
      "note": 79,
      "start": 4.9517,
      "duration": 0.2308,
      "velocity": 108,
      "chip": "ym2612"
    },
    {
      "channel": 0,
      "note": 74,
      "start": 5.0335,
      "duration": 2.5214,
      "velocity": 47,
      "chip": "ym2612"
    },
    {
      "channel": 2,
      "note": 86,
      "start": 5.0341,
      "duration": 2.5213,
      "velocity": 47,
      "chip": "ym2612"
    },
    {
      "channel": 3,
      "note": 82,
      "start": 5.0347,
      "duration": 2.5212,
      "velocity": 47,
      "chip": "ym2612"
    },
    {
      "channel": 4,
      "note": 77,
      "start": 5.0352,
      "duration": 2.5212,
      "velocity": 47,
      "chip": "ym2612"
    },
    {
      "channel": 1,
      "note": 26,
      "start": 5.1062,
      "duration": 0.1593,
      "velocity": 91,
      "chip": "ym2612"
    },
    {
      "channel": 5,
      "note": 79,
      "start": 5.1827,
      "duration": 0.0835,
      "velocity": 108,
      "chip": "ym2612"
    },
    {
      "channel": 1,
      "note": 26,
      "start": 5.2658,
      "duration": 0.0832,
      "velocity": 91,
      "chip": "ym2612"
    },
    {
      "channel": 5,
      "note": 79,
      "start": 5.2665,
      "duration": 0.2332,
      "velocity": 127,
      "chip": "ym2612"
    },
    {
      "channel": 1,
      "note": 38,
      "start": 5.3491,
      "duration": 0.1485,
      "velocity": 91,
      "chip": "ym2612"
    },
    {
      "channel": 1,
      "note": 26,
      "start": 5.4977,
      "duration": 0.1665,
      "velocity": 91,
      "chip": "ym2612"
    },
    {
      "channel": 5,
      "note": 31,
      "start": 5.4998,
      "duration": 0.0827,
      "velocity": 108,
      "chip": "ym2612"
    },
    {
      "channel": 5,
      "note": 79,
      "start": 5.5827,
      "duration": 0.2284,
      "velocity": 108,
      "chip": "ym2612"
    },
    {
      "channel": 1,
      "note": 26,
      "start": 5.6644,
      "duration": 0.0741,
      "velocity": 91,
      "chip": "ym2612"
    },
    {
      "channel": 1,
      "note": 26,
      "start": 5.7387,
      "duration": 0.1555,
      "velocity": 91,
      "chip": "ym2612"
    },
    {
      "channel": 5,
      "note": 79,
      "start": 5.8113,
      "duration": 0.0835,
      "velocity": 108,
      "chip": "ym2612"
    },
    {
      "channel": 1,
      "note": 26,
      "start": 5.8943,
      "duration": 0.0832,
      "velocity": 91,
      "chip": "ym2612"
    },
    {
      "channel": 5,
      "note": 79,
      "start": 5.895,
      "duration": 0.2336,
      "velocity": 127,
      "chip": "ym2612"
    },
    {
      "channel": 1,
      "note": 38,
      "start": 5.9777,
      "duration": 0.1489,
      "velocity": 91,
      "chip": "ym2612"
    },
    {
      "channel": 1,
      "note": 26,
      "start": 6.1267,
      "duration": 0.2409,
      "velocity": 91,
      "chip": "ym2612"
    },
    {
      "channel": 5,
      "note": 31,
      "start": 6.1288,
      "duration": 0.0826,
      "velocity": 108,
      "chip": "ym2612"
    },
    {
      "channel": 5,
      "note": 79,
      "start": 6.2117,
      "duration": 0.2305,
      "velocity": 108,
      "chip": "ym2612"
    },
    {
      "channel": 1,
      "note": 26,
      "start": 6.3677,
      "duration": 0.1574,
      "velocity": 91,
      "chip": "ym2612"
    },
    {
      "channel": 5,
      "note": 79,
      "start": 6.4423,
      "duration": 0.0835,
      "velocity": 108,
      "chip": "ym2612"
    },
    {
      "channel": 1,
      "note": 26,
      "start": 6.5254,
      "duration": 0.0832,
      "velocity": 91,
      "chip": "ym2612"
    },
    {
      "channel": 5,
      "note": 79,
      "start": 6.5261,
      "duration": 0.2334,
      "velocity": 127,
      "chip": "ym2612"
    },
    {
      "channel": 1,
      "note": 38,
      "start": 6.6087,
      "duration": 0.1488,
      "velocity": 91,
      "chip": "ym2612"
    },
    {
      "channel": 1,
      "note": 26,
      "start": 6.7576,
      "duration": 0.1665,
      "velocity": 91,
      "chip": "ym2612"
    },
    {
      "channel": 5,
      "note": 31,
      "start": 6.7597,
      "duration": 0.0826,
      "velocity": 108,
      "chip": "ym2612"
    },
    {
      "channel": 5,
      "note": 79,
      "start": 6.8425,
      "duration": 0.2327,
      "velocity": 108,
      "chip": "ym2612"
    },
    {
      "channel": 1,
      "note": 26,
      "start": 6.9242,
      "duration": 0.0763,
      "velocity": 91,
      "chip": "ym2612"
    },
    {
      "channel": 1,
      "note": 26,
      "start": 7.0006,
      "duration": 0.1575,
      "velocity": 91,
      "chip": "ym2612"
    },
    {
      "channel": 5,
      "note": 79,
      "start": 7.0753,
      "duration": 0.0849,
      "velocity": 127,
      "chip": "ym2612"
    },
    {
      "channel": 1,
      "note": 26,
      "start": 7.1583,
      "duration": 0.0831,
      "velocity": 91,
      "chip": "ym2612"
    },
    {
      "channel": 5,
      "note": 31,
      "start": 7.1604,
      "duration": 0.2286,
      "velocity": 127,
      "chip": "ym2612"
    },
    {
      "channel": 1,
      "note": 38,
      "start": 7.2416,
      "duration": 0.1466,
      "velocity": 91,
      "chip": "ym2612"
    },
    {
      "channel": 1,
      "note": 26,
      "start": 7.3884,
      "duration": 0.2412,
      "velocity": 91,
      "chip": "ym2612"
    },
    {
      "channel": 5,
      "note": 31,
      "start": 7.3892,
      "duration": 0.084,
      "velocity": 108,
      "chip": "ym2612"
    },
    {
      "channel": 5,
      "note": 79,
      "start": 7.4733,
      "duration": 0.229,
      "velocity": 108,
      "chip": "ym2612"
    },
    {
      "channel": 0,
      "note": 70,
      "start": 7.5551,
      "duration": 2.5167,
      "velocity": 127,
      "chip": "ym2612"
    },
    {
      "channel": 2,
      "note": 82,
      "start": 7.5556,
      "duration": 2.5182,
      "velocity": 95,
      "chip": "ym2612"
    },
    {
      "channel": 3,
      "note": 77,
      "start": 7.5561,
      "duration": 2.5196,
      "velocity": 107,
      "chip": "ym2612"
    },
    {
      "channel": 4,
      "note": 74,
      "start": 7.5567,
      "duration": 2.5209,
      "velocity": 127,
      "chip": "ym2612"
    },
    {
      "channel": 1,
      "note": 26,
      "start": 7.6298,
      "duration": 0.1556,
      "velocity": 91,
      "chip": "ym2612"
    },
    {
      "channel": 5,
      "note": 79,
      "start": 7.7024,
      "duration": 0.0835,
      "velocity": 108,
      "chip": "ym2612"
    },
    {
      "channel": 1,
      "note": 26,
      "start": 7.7855,
      "duration": 0.0832,
      "velocity": 91,
      "chip": "ym2612"
    },
    {
      "channel": 5,
      "note": 79,
      "start": 7.7862,
      "duration": 0.2312,
      "velocity": 127,
      "chip": "ym2612"
    },
    {
      "channel": 1,
      "note": 38,
      "start": 7.8688,
      "duration": 0.1466,
      "velocity": 91,
      "chip": "ym2612"
    },
    {
      "channel": 1,
      "note": 26,
      "start": 8.0155,
      "duration": 0.1665,
      "velocity": 91,
      "chip": "ym2612"
    },
    {
      "channel": 5,
      "note": 31,
      "start": 8.0176,
      "duration": 0.0827,
      "velocity": 108,
      "chip": "ym2612"
    },
    {
      "channel": 5,
      "note": 79,
      "start": 8.1005,
      "duration": 0.2282,
      "velocity": 108,
      "chip": "ym2612"
    },
    {
      "channel": 1,
      "note": 26,
      "start": 8.1822,
      "duration": 0.0739,
      "velocity": 91,
      "chip": "ym2612"
    },
    {
      "channel": 1,
      "note": 26,
      "start": 8.2563,
      "duration": 0.1554,
      "velocity": 91,
      "chip": "ym2612"
    },
    {
      "channel": 5,
      "note": 79,
      "start": 8.3289,
      "duration": 0.0835,
      "velocity": 108,
      "chip": "ym2612"
    },
    {
      "channel": 1,
      "note": 26,
      "start": 8.4119,
      "duration": 0.0832,
      "velocity": 91,
      "chip": "ym2612"
    },
    {
      "channel": 5,
      "note": 79,
      "start": 8.4126,
      "duration": 0.2335,
      "velocity": 127,
      "chip": "ym2612"
    },
    {
      "channel": 1,
      "note": 38,
      "start": 8.4952,
      "duration": 0.1488,
      "velocity": 91,
      "chip": "ym2612"
    },
    {
      "channel": 1,
      "note": 26,
      "start": 8.6442,
      "duration": 0.241,
      "velocity": 91,
      "chip": "ym2612"
    },
    {
      "channel": 5,
      "note": 31,
      "start": 8.6463,
      "duration": 0.0826,
      "velocity": 108,
      "chip": "ym2612"
    },
    {
      "channel": 5,
      "note": 79,
      "start": 8.7291,
      "duration": 0.2307,
      "velocity": 108,
      "chip": "ym2612"
    },
    {
      "channel": 1,
      "note": 26,
      "start": 8.8853,
      "duration": 0.1576,
      "velocity": 91,
      "chip": "ym2612"
    },
    {
      "channel": 5,
      "note": 79,
      "start": 8.96,
      "duration": 0.0835,
      "velocity": 108,
      "chip": "ym2612"
    },
    {
      "channel": 1,
      "note": 26,
      "start": 9.043,
      "duration": 0.0832,
      "velocity": 91,
      "chip": "ym2612"
    },
    {
      "channel": 5,
      "note": 79,
      "start": 9.0437,
      "duration": 0.2335,
      "velocity": 127,
      "chip": "ym2612"
    },
    {
      "channel": 1,
      "note": 38,
      "start": 9.1263,
      "duration": 0.1488,
      "velocity": 91,
      "chip": "ym2612"
    },
    {
      "channel": 1,
      "note": 26,
      "start": 9.2753,
      "duration": 0.1664,
      "velocity": 91,
      "chip": "ym2612"
    },
    {
      "channel": 5,
      "note": 31,
      "start": 9.2773,
      "duration": 0.0826,
      "velocity": 108,
      "chip": "ym2612"
    },
    {
      "channel": 5,
      "note": 79,
      "start": 9.3602,
      "duration": 0.2284,
      "velocity": 108,
      "chip": "ym2612"
    },
    {
      "channel": 1,
      "note": 26,
      "start": 9.4419,
      "duration": 0.0741,
      "velocity": 91,
      "chip": "ym2612"
    },
    {
      "channel": 1,
      "note": 26,
      "start": 9.5161,
      "duration": 0.1555,
      "velocity": 91,
      "chip": "ym2612"
    },
    {
      "channel": 5,
      "note": 79,
      "start": 9.5888,
      "duration": 0.0849,
      "velocity": 127,
      "chip": "ym2612"
    },
    {
      "channel": 1,
      "note": 26,
      "start": 9.6718,
      "duration": 0.0832,
      "velocity": 91,
      "chip": "ym2612"
    },
    {
      "channel": 5,
      "note": 31,
      "start": 9.6739,
      "duration": 0.2305,
      "velocity": 127,
      "chip": "ym2612"
    },
    {
      "channel": 1,
      "note": 38,
      "start": 9.7551,
      "duration": 0.1485,
      "velocity": 91,
      "chip": "ym2612"
    },
    {
      "channel": 1,
      "note": 26,
      "start": 9.9038,
      "duration": 0.2428,
      "velocity": 91,
      "chip": "ym2612"
    },
    {
      "channel": 5,
      "note": 31,
      "start": 9.9045,
      "duration": 0.0841,
      "velocity": 108,
      "chip": "ym2612"
    },
    {
      "channel": 5,
      "note": 79,
      "start": 9.9888,
      "duration": 0.2311,
      "velocity": 108,
      "chip": "ym2612"
    },
    {
      "channel": 0,
      "note": 75,
      "start": 10.072,
      "duration": 2.5098,
      "velocity": 127,
      "chip": "ym2612"
    },
    {
      "channel": 2,
      "note": 84,
      "start": 10.0739,
      "duration": 0.0731,
      "velocity": 95,
      "chip": "ym2612"
    },
    {
      "channel": 3,
      "note": 48,
      "start": 10.0759,
      "duration": 0.2273,
      "velocity": 107,
      "chip": "ym2612"
    },
    {
      "channel": 4,
      "note": 67,
      "start": 10.0778,
      "duration": 2.5056,
      "velocity": 127,
      "chip": "ym2612"
    },
    {
      "channel": 1,
      "note": 26,
      "start": 10.1467,
      "duration": 0.1559,
      "velocity": 91,
      "chip": "ym2612"
    },
    {
      "channel": 2,
      "note": 86,
      "start": 10.1472,
      "duration": 0.0721,
      "velocity": 95,
      "chip": "ym2612"
    },
    {
      "channel": 2,
      "note": 87,
      "start": 10.2195,
      "duration": 1.7341,
      "velocity": 95,
      "chip": "ym2612"
    },
    {
      "channel": 5,
      "note": 79,
      "start": 10.2202,
      "duration": 0.0837,
      "velocity": 108,
      "chip": "ym2612"
    },
    {
      "channel": 1,
      "note": 26,
      "start": 10.3028,
      "duration": 0.0831,
      "velocity": 91,
      "chip": "ym2612"
    },
    {
      "channel": 3,
      "note": 60,
      "start": 10.3034,
      "duration": 0.2298,
      "velocity": 107,
      "chip": "ym2612"
    },
    {
      "channel": 5,
      "note": 79,
      "start": 10.3039,
      "duration": 0.2312,
      "velocity": 127,
      "chip": "ym2612"
    },
    {
      "channel": 1,
      "note": 38,
      "start": 10.3861,
      "duration": 0.1465,
      "velocity": 91,
      "chip": "ym2612"
    },
    {
      "channel": 1,
      "note": 26,
      "start": 10.5329,
      "duration": 0.1665,
      "velocity": 91,
      "chip": "ym2612"
    },
    {
      "channel": 3,
      "note": 46,
      "start": 10.5334,
      "duration": 0.1665,
      "velocity": 107,
      "chip": "ym2612"
    },
    {
      "channel": 5,
      "note": 31,
      "start": 10.5354,
      "duration": 0.0822,
      "velocity": 108,
      "chip": "ym2612"
    },
    {
      "channel": 5,
      "note": 79,
      "start": 10.6178,
      "duration": 0.2289,
      "velocity": 108,
      "chip": "ym2612"
    },
    {
      "channel": 1,
      "note": 26,
      "start": 10.6995,
      "duration": 0.0741,
      "velocity": 91,
      "chip": "ym2612"
    },
    {
      "channel": 3,
      "note": 48,
      "start": 10.7001,
      "duration": 0.2302,
      "velocity": 107,
      "chip": "ym2612"
    },
    {
      "channel": 1,
      "note": 26,
      "start": 10.7738,
      "duration": 0.1559,
      "velocity": 91,
      "chip": "ym2612"
    },
    {
      "channel": 5,
      "note": 79,
      "start": 10.8468,
      "duration": 0.084,
      "velocity": 108,
      "chip": "ym2612"
    },
    {
      "channel": 1,
      "note": 26,
      "start": 10.9299,
      "duration": 0.0831,
      "velocity": 91,
      "chip": "ym2612"
    },
    {
      "channel": 3,
      "note": 60,
      "start": 10.9305,
      "duration": 0.232,
      "velocity": 107,
      "chip": "ym2612"
    },
    {
      "channel": 5,
      "note": 79,
      "start": 10.931,
      "duration": 0.2334,
      "velocity": 127,
      "chip": "ym2612"
    },
    {
      "channel": 1,
      "note": 38,
      "start": 11.0132,
      "duration": 0.1486,
      "velocity": 91,
      "chip": "ym2612"
    },
    {
      "channel": 1,
      "note": 26,
      "start": 11.162,
      "duration": 0.239,
      "velocity": 91,
      "chip": "ym2612"
    },
    {
      "channel": 3,
      "note": 46,
      "start": 11.1626,
      "duration": 0.1659,
      "velocity": 107,
      "chip": "ym2612"
    },
    {
      "channel": 5,
      "note": 31,
      "start": 11.1646,
      "duration": 0.0822,
      "velocity": 108,
      "chip": "ym2612"
    },
    {
      "channel": 5,
      "note": 79,
      "start": 11.2469,
      "duration": 0.2286,
      "velocity": 108,
      "chip": "ym2612"
    },
    {
      "channel": 3,
      "note": 48,
      "start": 11.3287,
      "duration": 0.2304,
      "velocity": 107,
      "chip": "ym2612"
    },
    {
      "channel": 1,
      "note": 26,
      "start": 11.4012,
      "duration": 0.1573,
      "velocity": 91,
      "chip": "ym2612"
    },
    {
      "channel": 5,
      "note": 79,
      "start": 11.4756,
      "duration": 0.084,
      "velocity": 108,
      "chip": "ym2612"
    },
    {
      "channel": 1,
      "note": 26,
      "start": 11.5587,
      "duration": 0.0831,
      "velocity": 91,
      "chip": "ym2612"
    },
    {
      "channel": 3,
      "note": 60,
      "start": 11.5593,
      "duration": 0.2278,
      "velocity": 107,
      "chip": "ym2612"
    },
    {
      "channel": 5,
      "note": 79,
      "start": 11.5598,
      "duration": 0.2292,
      "velocity": 127,
      "chip": "ym2612"
    },
    {
      "channel": 1,
      "note": 38,
      "start": 11.642,
      "duration": 0.1445,
      "velocity": 91,
      "chip": "ym2612"
    },
    {
      "channel": 1,
      "note": 26,
      "start": 11.7867,
      "duration": 0.1665,
      "velocity": 91,
      "chip": "ym2612"
    },
    {
      "channel": 3,
      "note": 46,
      "start": 11.7873,
      "duration": 0.167,
      "velocity": 107,
      "chip": "ym2612"
    },
    {
      "channel": 5,
      "note": 31,
      "start": 11.7892,
      "duration": 0.0822,
      "velocity": 108,
      "chip": "ym2612"
    },
    {
      "channel": 5,
      "note": 79,
      "start": 11.8716,
      "duration": 0.2306,
      "velocity": 108,
      "chip": "ym2612"
    },
    {
      "channel": 1,
      "note": 26,
      "start": 11.9534,
      "duration": 0.0742,
      "velocity": 91,
      "chip": "ym2612"
    },
    {
      "channel": 2,
      "note": 86,
      "start": 11.9539,
      "duration": 0.232,
      "velocity": 95,
      "chip": "ym2612"
    },
    {
      "channel": 3,
      "note": 48,
      "start": 11.9544,
      "duration": 0.232,
      "velocity": 107,
      "chip": "ym2612"
    },
    {
      "channel": 1,
      "note": 26,
      "start": 12.0278,
      "duration": 0.1576,
      "velocity": 91,
      "chip": "ym2612"
    },
    {
      "channel": 5,
      "note": 79,
      "start": 12.1024,
      "duration": 0.0859,
      "velocity": 127,
      "chip": "ym2612"
    },
    {
      "channel": 1,
      "note": 26,
      "start": 12.1855,
      "duration": 0.0832,
      "velocity": 91,
      "chip": "ym2612"
    },
    {
      "channel": 2,
      "note": 82,
      "start": 12.186,
      "duration": 0.2297,
      "velocity": 95,
      "chip": "ym2612"
    },
    {
      "channel": 3,
      "note": 60,
      "start": 12.1865,
      "duration": 0.2298,
      "velocity": 107,
      "chip": "ym2612"
    },
    {
      "channel": 5,
      "note": 31,
      "start": 12.1885,
      "duration": 0.2283,
      "velocity": 127,
      "chip": "ym2612"
    },
    {
      "channel": 1,
      "note": 38,
      "start": 12.2688,
      "duration": 0.1464,
      "velocity": 91,
      "chip": "ym2612"
    },
    {
      "channel": 1,
      "note": 26,
      "start": 12.4154,
      "duration": 0.243,
      "velocity": 91,
      "chip": "ym2612"
    },
    {
      "channel": 2,
      "note": 75,
      "start": 12.4159,
      "duration": 0.1665,
      "velocity": 95,
      "chip": "ym2612"
    },
    {
      "channel": 3,
      "note": 46,
      "start": 12.4163,
      "duration": 0.1666,
      "velocity": 107,
      "chip": "ym2612"
    },
    {
      "channel": 5,
      "note": 31,
      "start": 12.417,
      "duration": 0.0831,
      "velocity": 108,
      "chip": "ym2612"
    },
    {
      "channel": 5,
      "note": 79,
      "start": 12.5003,
      "duration": 0.2305,
      "velocity": 108,
      "chip": "ym2612"
    },
    {
      "channel": 0,
      "note": 60,
      "start": 12.582,
      "duration": 2.5178,
      "velocity": 127,
      "chip": "ym2612"
    },
    {
      "channel": 2,
      "note": 84,
      "start": 12.5826,
      "duration": 2.5178,
      "velocity": 95,
      "chip": "ym2612"
    },
    {
      "channel": 3,
      "note": 44,
      "start": 12.5831,
      "duration": 0.2314,
      "velocity": 107,
      "chip": "ym2612"
    },
    {
      "channel": 4,
      "note": 75,
      "start": 12.5836,
      "duration": 2.5179,
      "velocity": 127,
      "chip": "ym2612"
    },
    {
      "channel": 1,
      "note": 26,
      "start": 12.6585,
      "duration": 0.1554,
      "velocity": 91,
      "chip": "ym2612"
    },
    {
      "channel": 5,
      "note": 79,
      "start": 12.731,
      "duration": 0.084,
      "velocity": 108,
      "chip": "ym2612"
    },
    {
      "channel": 1,
      "note": 26,
      "start": 12.8141,
      "duration": 0.0831,
      "velocity": 91,
      "chip": "ym2612"
    },
    {
      "channel": 3,
      "note": 56,
      "start": 12.8147,
      "duration": 0.2322,
      "velocity": 107,
      "chip": "ym2612"
    },
    {
      "channel": 5,
      "note": 79,
      "start": 12.8153,
      "duration": 0.2336,
      "velocity": 127,
      "chip": "ym2612"
    },
    {
      "channel": 1,
      "note": 38,
      "start": 12.8975,
      "duration": 0.1488,
      "velocity": 91,
      "chip": "ym2612"
    },
    {
      "channel": 1,
      "note": 26,
      "start": 13.0465,
      "duration": 0.1664,
      "velocity": 91,
      "chip": "ym2612"
    },
    {
      "channel": 3,
      "note": 54,
      "start": 13.0471,
      "duration": 0.1664,
      "velocity": 107,
      "chip": "ym2612"
    },
    {
      "channel": 5,
      "note": 31,
      "start": 13.049,
      "duration": 0.0821,
      "velocity": 108,
      "chip": "ym2612"
    },
    {
      "channel": 5,
      "note": 79,
      "start": 13.1314,
      "duration": 0.2289,
      "velocity": 108,
      "chip": "ym2612"
    },
    {
      "channel": 1,
      "note": 26,
      "start": 13.2131,
      "duration": 0.0741,
      "velocity": 91,
      "chip": "ym2612"
    },
    {
      "channel": 3,
      "note": 44,
      "start": 13.2137,
      "duration": 0.2302,
      "velocity": 107,
      "chip": "ym2612"
    },
    {
      "channel": 1,
      "note": 26,
      "start": 13.2874,
      "duration": 0.1559,
      "velocity": 91,
      "chip": "ym2612"
    },
    {
      "channel": 5,
      "note": 79,
      "start": 13.3604,
      "duration": 0.084,
      "velocity": 108,
      "chip": "ym2612"
    },
    {
      "channel": 1,
      "note": 26,
      "start": 13.4435,
      "duration": 0.0831,
      "velocity": 91,
      "chip": "ym2612"
    },
    {
      "channel": 3,
      "note": 56,
      "start": 13.444,
      "duration": 0.232,
      "velocity": 107,
      "chip": "ym2612"
    },
    {
      "channel": 5,
      "note": 79,
      "start": 13.4446,
      "duration": 0.2334,
      "velocity": 127,
      "chip": "ym2612"
    },
    {
      "channel": 1,
      "note": 38,
      "start": 13.5268,
      "duration": 0.1486,
      "velocity": 91,
      "chip": "ym2612"
    },
    {
      "channel": 1,
      "note": 26,
      "start": 13.6756,
      "duration": 0.239,
      "velocity": 91,
      "chip": "ym2612"
    },
    {
      "channel": 3,
      "note": 54,
      "start": 13.6762,
      "duration": 0.1659,
      "velocity": 107,
      "chip": "ym2612"
    },
    {
      "channel": 5,
      "note": 31,
      "start": 13.6782,
      "duration": 0.0822,
      "velocity": 108,
      "chip": "ym2612"
    },
    {
      "channel": 5,
      "note": 79,
      "start": 13.7605,
      "duration": 0.2286,
      "velocity": 108,
      "chip": "ym2612"
    },
    {
      "channel": 3,
      "note": 44,
      "start": 13.8423,
      "duration": 0.2304,
      "velocity": 107,
      "chip": "ym2612"
    },
    {
      "channel": 1,
      "note": 26,
      "start": 13.9148,
      "duration": 0.1573,
      "velocity": 91,
      "chip": "ym2612"
    },
    {
      "channel": 5,
      "note": 79,
      "start": 13.9892,
      "duration": 0.084,
      "velocity": 108,
      "chip": "ym2612"
    },
    {
      "channel": 1,
      "note": 26,
      "start": 14.0723,
      "duration": 0.0831,
      "velocity": 91,
      "chip": "ym2612"
    },
    {
      "channel": 3,
      "note": 56,
      "start": 14.0729,
      "duration": 0.2278,
      "velocity": 107,
      "chip": "ym2612"
    },
    {
      "channel": 5,
      "note": 79,
      "start": 14.0734,
      "duration": 0.2292,
      "velocity": 127,
      "chip": "ym2612"
    },
    {
      "channel": 1,
      "note": 38,
      "start": 14.1556,
      "duration": 0.1445,
      "velocity": 91,
      "chip": "ym2612"
    },
    {
      "channel": 1,
      "note": 26,
      "start": 14.3003,
      "duration": 0.1665,
      "velocity": 91,
      "chip": "ym2612"
    },
    {
      "channel": 3,
      "note": 54,
      "start": 14.3008,
      "duration": 0.1665,
      "velocity": 107,
      "chip": "ym2612"
    },
    {
      "channel": 5,
      "note": 31,
      "start": 14.3028,
      "duration": 0.0822,
      "velocity": 108,
      "chip": "ym2612"
    },
    {
      "channel": 5,
      "note": 79,
      "start": 14.3852,
      "duration": 0.2327,
      "velocity": 108,
      "chip": "ym2612"
    },
    {
      "channel": 1,
      "note": 26,
      "start": 14.4669,
      "duration": 0.0742,
      "velocity": 91,
      "chip": "ym2612"
    },
    {
      "channel": 3,
      "note": 44,
      "start": 14.4675,
      "duration": 0.234,
      "velocity": 107,
      "chip": "ym2612"
    },
    {
      "channel": 1,
      "note": 26,
      "start": 14.5413,
      "duration": 0.1596,
      "velocity": 91,
      "chip": "ym2612"
    },
    {
      "channel": 5,
      "note": 79,
      "start": 14.618,
      "duration": 0.0854,
      "velocity": 127,
      "chip": "ym2612"
    },
    {
      "channel": 1,
      "note": 26,
      "start": 14.7011,
      "duration": 0.0831,
      "velocity": 91,
      "chip": "ym2612"
    },
    {
      "channel": 3,
      "note": 56,
      "start": 14.7017,
      "duration": 0.232,
      "velocity": 107,
      "chip": "ym2612"
    },
    {
      "channel": 5,
      "note": 31,
      "start": 14.7037,
      "duration": 0.2306,
      "velocity": 127,
      "chip": "ym2612"
    },
    {
      "channel": 1,
      "note": 38,
      "start": 14.7844,
      "duration": 0.1486,
      "velocity": 91,
      "chip": "ym2612"
    },
    {
      "channel": 1,
      "note": 26,
      "start": 14.9333,
      "duration": 0.2413,
      "velocity": 91,
      "chip": "ym2612"
    },
    {
      "channel": 3,
      "note": 54,
      "start": 14.9339,
      "duration": 0.1671,
      "velocity": 107,
      "chip": "ym2612"
    },
    {
      "channel": 5,
      "note": 31,
      "start": 14.9344,
      "duration": 0.0836,
      "velocity": 108,
      "chip": "ym2612"
    },
    {
      "channel": 5,
      "note": 79,
      "start": 15.0182,
      "duration": 0.2315,
      "velocity": 108,
      "chip": "ym2612"
    },
    {
      "channel": 0,
      "note": 75,
      "start": 15.0999,
      "duration": 2.5186,
      "velocity": 127,
      "chip": "ym2612"
    },
    {
      "channel": 2,
      "note": 84,
      "start": 15.1006,
      "duration": 0.0745,
      "velocity": 95,
      "chip": "ym2612"
    },
    {
      "channel": 3,
      "note": 48,
      "start": 15.1012,
      "duration": 0.2316,
      "velocity": 107,
      "chip": "ym2612"
    },
    {
      "channel": 4,
      "note": 67,
      "start": 15.1017,
      "duration": 2.5185,
      "velocity": 127,
      "chip": "ym2612"
    },
    {
      "channel": 1,
      "note": 26,
      "start": 15.1747,
      "duration": 0.1576,
      "velocity": 91,
      "chip": "ym2612"
    },
    {
      "channel": 2,
      "note": 86,
      "start": 15.1752,
      "duration": 0.0738,
      "velocity": 95,
      "chip": "ym2612"
    },
    {
      "channel": 2,
      "note": 87,
      "start": 15.2491,
      "duration": 1.741,
      "velocity": 95,
      "chip": "ym2612"
    },
    {
      "channel": 5,
      "note": 79,
      "start": 15.2498,
      "duration": 0.0835,
      "velocity": 108,
      "chip": "ym2612"
    },
    {
      "channel": 1,
      "note": 26,
      "start": 15.3324,
      "duration": 0.0831,
      "velocity": 91,
      "chip": "ym2612"
    },
    {
      "channel": 3,
      "note": 60,
      "start": 15.333,
      "duration": 0.2302,
      "velocity": 107,
      "chip": "ym2612"
    },
    {
      "channel": 5,
      "note": 79,
      "start": 15.3336,
      "duration": 0.2316,
      "velocity": 127,
      "chip": "ym2612"
    },
    {
      "channel": 1,
      "note": 38,
      "start": 15.4158,
      "duration": 0.1468,
      "velocity": 91,
      "chip": "ym2612"
    },
    {
      "channel": 1,
      "note": 26,
      "start": 15.5628,
      "duration": 0.1665,
      "velocity": 91,
      "chip": "ym2612"
    },
    {
      "channel": 3,
      "note": 46,
      "start": 15.5634,
      "duration": 0.1665,
      "velocity": 107,
      "chip": "ym2612"
    },
    {
      "channel": 5,
      "note": 31,
      "start": 15.5653,
      "duration": 0.0822,
      "velocity": 108,
      "chip": "ym2612"
    },
    {
      "channel": 5,
      "note": 79,
      "start": 15.6477,
      "duration": 0.2288,
      "velocity": 108,
      "chip": "ym2612"
    },
    {
      "channel": 1,
      "note": 26,
      "start": 15.7295,
      "duration": 0.0741,
      "velocity": 91,
      "chip": "ym2612"
    },
    {
      "channel": 3,
      "note": 48,
      "start": 15.73,
      "duration": 0.2301,
      "velocity": 107,
      "chip": "ym2612"
    },
    {
      "channel": 1,
      "note": 26,
      "start": 15.8037,
      "duration": 0.1558,
      "velocity": 91,
      "chip": "ym2612"
    },
    {
      "channel": 5,
      "note": 79,
      "start": 15.8767,
      "duration": 0.084,
      "velocity": 108,
      "chip": "ym2612"
    },
    {
      "channel": 1,
      "note": 26,
      "start": 15.9598,
      "duration": 0.0831,
      "velocity": 91,
      "chip": "ym2612"
    },
    {
      "channel": 3,
      "note": 60,
      "start": 15.9603,
      "duration": 0.2319,
      "velocity": 107,
      "chip": "ym2612"
    },
    {
      "channel": 5,
      "note": 79,
      "start": 15.9609,
      "duration": 0.2333,
      "velocity": 127,
      "chip": "ym2612"
    },
    {
      "channel": 1,
      "note": 38,
      "start": 16.0431,
      "duration": 0.1485,
      "velocity": 91,
      "chip": "ym2612"
    },
    {
      "channel": 1,
      "note": 26,
      "start": 16.1918,
      "duration": 0.2429,
      "velocity": 91,
      "chip": "ym2612"
    },
    {
      "channel": 3,
      "note": 46,
      "start": 16.1924,
      "duration": 0.1659,
      "velocity": 107,
      "chip": "ym2612"
    },
    {
      "channel": 5,
      "note": 31,
      "start": 16.1944,
      "duration": 0.0822,
      "velocity": 108,
      "chip": "ym2612"
    },
    {
      "channel": 5,
      "note": 79,
      "start": 16.2767,
      "duration": 0.2307,
      "velocity": 108,
      "chip": "ym2612"
    },
    {
      "channel": 3,
      "note": 48,
      "start": 16.3585,
      "duration": 0.2325,
      "velocity": 107,
      "chip": "ym2612"
    },
    {
      "channel": 1,
      "note": 26,
      "start": 16.4349,
      "duration": 0.1555,
      "velocity": 91,
      "chip": "ym2612"
    },
    {
      "channel": 5,
      "note": 79,
      "start": 16.5076,
      "duration": 0.084,
      "velocity": 108,
      "chip": "ym2612"
    },
    {
      "channel": 1,
      "note": 26,
      "start": 16.5906,
      "duration": 0.0831,
      "velocity": 91,
      "chip": "ym2612"
    },
    {
      "channel": 3,
      "note": 60,
      "start": 16.5912,
      "duration": 0.2324,
      "velocity": 107,
      "chip": "ym2612"
    },
    {
      "channel": 5,
      "note": 79,
      "start": 16.5918,
      "duration": 0.2338,
      "velocity": 127,
      "chip": "ym2612"
    },
    {
      "channel": 1,
      "note": 38,
      "start": 16.674,
      "duration": 0.149,
      "velocity": 91,
      "chip": "ym2612"
    },
    {
      "channel": 1,
      "note": 26,
      "start": 16.8232,
      "duration": 0.1664,
      "velocity": 91,
      "chip": "ym2612"
    },
    {
      "channel": 3,
      "note": 46,
      "start": 16.8238,
      "duration": 0.1668,
      "velocity": 107,
      "chip": "ym2612"
    },
    {
      "channel": 5,
      "note": 31,
      "start": 16.8257,
      "duration": 0.0822,
      "velocity": 108,
      "chip": "ym2612"
    },
    {
      "channel": 5,
      "note": 79,
      "start": 16.908,
      "duration": 0.2288,
      "velocity": 108,
      "chip": "ym2612"
    },
    {
      "channel": 1,
      "note": 26,
      "start": 16.9898,
      "duration": 0.0741,
      "velocity": 91,
      "chip": "ym2612"
    },
    {
      "channel": 2,
      "note": 89,
      "start": 16.9903,
      "duration": 0.2301,
      "velocity": 95,
      "chip": "ym2612"
    },
    {
      "channel": 3,
      "note": 48,
      "start": 16.9908,
      "duration": 0.2301,
      "velocity": 107,
      "chip": "ym2612"
    },
    {
      "channel": 1,
      "note": 26,
      "start": 17.0641,
      "duration": 0.1558,
      "velocity": 91,
      "chip": "ym2612"
    },
    {
      "channel": 5,
      "note": 79,
      "start": 17.137,
      "duration": 0.0859,
      "velocity": 127,
      "chip": "ym2612"
    },
    {
      "channel": 1,
      "note": 26,
      "start": 17.22,
      "duration": 0.0832,
      "velocity": 91,
      "chip": "ym2612"
    },
    {
      "channel": 2,
      "note": 86,
      "start": 17.2205,
      "duration": 0.2319,
      "velocity": 95,
      "chip": "ym2612"
    },
    {
      "channel": 3,
      "note": 60,
      "start": 17.221,
      "duration": 0.2319,
      "velocity": 107,
      "chip": "ym2612"
    },
    {
      "channel": 5,
      "note": 31,
      "start": 17.223,
      "duration": 0.2305,
      "velocity": 127,
      "chip": "ym2612"
    },
    {
      "channel": 1,
      "note": 38,
      "start": 17.3034,
      "duration": 0.1486,
      "velocity": 91,
      "chip": "ym2612"
    },
    {
      "channel": 1,
      "note": 26,
      "start": 17.4521,
      "duration": 0.241,
      "velocity": 91,
      "chip": "ym2612"
    },
    {
      "channel": 2,
      "note": 82,
      "start": 17.4526,
      "duration": 0.1665,
      "velocity": 95,
      "chip": "ym2612"
    },
    {
      "channel": 3,
      "note": 46,
      "start": 17.4531,
      "duration": 0.1666,
      "velocity": 107,
      "chip": "ym2612"
    },
    {
      "channel": 5,
      "note": 31,
      "start": 17.4537,
      "duration": 0.0831,
      "velocity": 108,
      "chip": "ym2612"
    },
    {
      "channel": 5,
      "note": 79,
      "start": 17.5371,
      "duration": 0.2303,
      "velocity": 108,
      "chip": "ym2612"
    },
    {
      "channel": 0,
      "note": 60,
      "start": 17.6188,
      "duration": 2.5239,
      "velocity": 127,
      "chip": "ym2612"
    },
    {
      "channel": 2,
      "note": 94,
      "start": 17.6193,
      "duration": 0.9428,
      "velocity": 95,
      "chip": "ym2612"
    },
    {
      "channel": 3,
      "note": 44,
      "start": 17.6198,
      "duration": 0.2312,
      "velocity": 107,
      "chip": "ym2612"
    },
    {
      "channel": 4,
      "note": 75,
      "start": 17.6203,
      "duration": 2.5253,
      "velocity": 127,
      "chip": "ym2612"
    },
    {
      "channel": 1,
      "note": 26,
      "start": 17.6932,
      "duration": 0.1573,
      "velocity": 91,
      "chip": "ym2612"
    },
    {
      "channel": 5,
      "note": 79,
      "start": 17.7676,
      "duration": 0.084,
      "velocity": 108,
      "chip": "ym2612"
    },
    {
      "channel": 1,
      "note": 26,
      "start": 17.8507,
      "duration": 0.0831,
      "velocity": 91,
      "chip": "ym2612"
    },
    {
      "channel": 3,
      "note": 56,
      "start": 17.8512,
      "duration": 0.2302,
      "velocity": 107,
      "chip": "ym2612"
    },
    {
      "channel": 5,
      "note": 79,
      "start": 17.8518,
      "duration": 0.2316,
      "velocity": 127,
      "chip": "ym2612"
    },
    {
      "channel": 1,
      "note": 38,
      "start": 17.934,
      "duration": 0.1468,
      "velocity": 91,
      "chip": "ym2612"
    },
    {
      "channel": 1,
      "note": 26,
      "start": 18.081,
      "duration": 0.1665,
      "velocity": 91,
      "chip": "ym2612"
    },
    {
      "channel": 3,
      "note": 54,
      "start": 18.0816,
      "duration": 0.1665,
      "velocity": 107,
      "chip": "ym2612"
    },
    {
      "channel": 5,
      "note": 31,
      "start": 18.0836,
      "duration": 0.0822,
      "velocity": 108,
      "chip": "ym2612"
    },
    {
      "channel": 5,
      "note": 79,
      "start": 18.166,
      "duration": 0.2288,
      "velocity": 108,
      "chip": "ym2612"
    },
    {
      "channel": 1,
      "note": 26,
      "start": 18.2477,
      "duration": 0.0741,
      "velocity": 91,
      "chip": "ym2612"
    },
    {
      "channel": 3,
      "note": 44,
      "start": 18.2483,
      "duration": 0.2301,
      "velocity": 107,
      "chip": "ym2612"
    },
    {
      "channel": 1,
      "note": 26,
      "start": 18.322,
      "duration": 0.1558,
      "velocity": 91,
      "chip": "ym2612"
    },
    {
      "channel": 5,
      "note": 79,
      "start": 18.3949,
      "duration": 0.084,
      "velocity": 108,
      "chip": "ym2612"
    },
    {
      "channel": 1,
      "note": 26,
      "start": 18.478,
      "duration": 0.0832,
      "velocity": 91,
      "chip": "ym2612"
    },
    {
      "channel": 3,
      "note": 56,
      "start": 18.4786,
      "duration": 0.2385,
      "velocity": 107,
      "chip": "ym2612"
    },
    {
      "channel": 5,
      "note": 79,
      "start": 18.4791,
      "duration": 0.2399,
      "velocity": 127,
      "chip": "ym2612"
    },
    {
      "channel": 1,
      "note": 38,
      "start": 18.5613,
      "duration": 0.1552,
      "velocity": 91,
      "chip": "ym2612"
    },
    {
      "channel": 2,
      "note": 94,
      "start": 18.5622,
      "duration": 0.0124,
      "velocity": 95,
      "chip": "ym2612"
    },
    {
      "channel": 2,
      "note": 94,
      "start": 18.5746,
      "duration": 0.0157,
      "velocity": 95,
      "chip": "ym2612"
    },
    {
      "channel": 2,
      "note": 94,
      "start": 18.5903,
      "duration": 0.0157,
      "velocity": 95,
      "chip": "ym2612"
    },
    {
      "channel": 2,
      "note": 94,
      "start": 18.606,
      "duration": 0.0157,
      "velocity": 95,
      "chip": "ym2612"
    },
    {
      "channel": 2,
      "note": 93,
      "start": 18.6217,
      "duration": 0.0163,
      "velocity": 95,
      "chip": "ym2612"
    },
    {
      "channel": 2,
      "note": 93,
      "start": 18.638,
      "duration": 0.0151,
      "velocity": 95,
      "chip": "ym2612"
    },
    {
      "channel": 2,
      "note": 93,
      "start": 18.6531,
      "duration": 0.0157,
      "velocity": 95,
      "chip": "ym2612"
    },
    {
      "channel": 2,
      "note": 93,
      "start": 18.6688,
      "duration": 0.0157,
      "velocity": 95,
      "chip": "ym2612"
    },
    {
      "channel": 2,
      "note": 93,
      "start": 18.6846,
      "duration": 0.0157,
      "velocity": 95,
      "chip": "ym2612"
    },
    {
      "channel": 2,
      "note": 93,
      "start": 18.7003,
      "duration": 0.0193,
      "velocity": 95,
      "chip": "ym2612"
    },
    {
      "channel": 1,
      "note": 26,
      "start": 18.7167,
      "duration": 0.2408,
      "velocity": 91,
      "chip": "ym2612"
    },
    {
      "channel": 3,
      "note": 54,
      "start": 18.7173,
      "duration": 0.1665,
      "velocity": 107,
      "chip": "ym2612"
    },
    {
      "channel": 5,
      "note": 31,
      "start": 18.7193,
      "duration": 0.0822,
      "velocity": 108,
      "chip": "ym2612"
    },
    {
      "channel": 2,
      "note": 93,
      "start": 18.7196,
      "duration": 0.0132,
      "velocity": 95,
      "chip": "ym2612"
    },
    {
      "channel": 2,
      "note": 93,
      "start": 18.7328,
      "duration": 0.0167,
      "velocity": 95,
      "chip": "ym2612"
    },
    {
      "channel": 2,
      "note": 93,
      "start": 18.7495,
      "duration": 0.0167,
      "velocity": 95,
      "chip": "ym2612"
    },
    {
      "channel": 2,
      "note": 93,
      "start": 18.7661,
      "duration": 0.0167,
      "velocity": 95,
      "chip": "ym2612"
    },
    {
      "channel": 2,
      "note": 92,
      "start": 18.7828,
      "duration": 0.0192,
      "velocity": 95,
      "chip": "ym2612"
    },
    {
      "channel": 5,
      "note": 79,
      "start": 18.8017,
      "duration": 0.2287,
      "velocity": 108,
      "chip": "ym2612"
    },
    {
      "channel": 2,
      "note": 92,
      "start": 18.802,
      "duration": 0.0141,
      "velocity": 95,
      "chip": "ym2612"
    },
    {
      "channel": 2,
      "note": 92,
      "start": 18.8161,
      "duration": 0.0167,
      "velocity": 95,
      "chip": "ym2612"
    },
    {
      "channel": 2,
      "note": 92,
      "start": 18.8328,
      "duration": 0.0167,
      "velocity": 95,
      "chip": "ym2612"
    },
    {
      "channel": 2,
      "note": 92,
      "start": 18.8495,
      "duration": 0.0167,
      "velocity": 95,
      "chip": "ym2612"
    },
    {
      "channel": 2,
      "note": 92,
      "start": 18.8661,
      "duration": 0.0171,
      "velocity": 95,
      "chip": "ym2612"
    },
    {
      "channel": 2,
      "note": 91,
      "start": 18.8834,
      "duration": 1.2598,
      "velocity": 95,
      "chip": "ym2612"
    },
    {
      "channel": 3,
      "note": 44,
      "start": 18.884,
      "duration": 0.23,
      "velocity": 107,
      "chip": "ym2612"
    },
    {
      "channel": 1,
      "note": 26,
      "start": 18.9576,
      "duration": 0.1558,
      "velocity": 91,
      "chip": "ym2612"
    },
    {
      "channel": 5,
      "note": 79,
      "start": 19.0306,
      "duration": 0.084,
      "velocity": 108,
      "chip": "ym2612"
    },
    {
      "channel": 1,
      "note": 26,
      "start": 19.1137,
      "duration": 0.0831,
      "velocity": 91,
      "chip": "ym2612"
    },
    {
      "channel": 3,
      "note": 56,
      "start": 19.1142,
      "duration": 0.2298,
      "velocity": 107,
      "chip": "ym2612"
    },
    {
      "channel": 5,
      "note": 79,
      "start": 19.1148,
      "duration": 0.2312,
      "velocity": 127,
      "chip": "ym2612"
    },
    {
      "channel": 1,
      "note": 38,
      "start": 19.197,
      "duration": 0.1464,
      "velocity": 91,
      "chip": "ym2612"
    },
    {
      "channel": 1,
      "note": 26,
      "start": 19.3436,
      "duration": 0.1665,
      "velocity": 91,
      "chip": "ym2612"
    },
    {
      "channel": 3,
      "note": 54,
      "start": 19.3442,
      "duration": 0.1665,
      "velocity": 107,
      "chip": "ym2612"
    },
    {
      "channel": 5,
      "note": 31,
      "start": 19.3462,
      "duration": 0.0822,
      "velocity": 108,
      "chip": "ym2612"
    },
    {
      "channel": 5,
      "note": 79,
      "start": 19.4285,
      "duration": 0.2288,
      "velocity": 108,
      "chip": "ym2612"
    },
    {
      "channel": 1,
      "note": 26,
      "start": 19.5103,
      "duration": 0.0741,
      "velocity": 91,
      "chip": "ym2612"
    },
    {
      "channel": 3,
      "note": 44,
      "start": 19.5109,
      "duration": 0.2301,
      "velocity": 107,
      "chip": "ym2612"
    },
    {
      "channel": 1,
      "note": 26,
      "start": 19.5846,
      "duration": 0.1558,
      "velocity": 91,
      "chip": "ym2612"
    },
    {
      "channel": 5,
      "note": 79,
      "start": 19.6575,
      "duration": 0.0854,
      "velocity": 127,
      "chip": "ym2612"
    },
    {
      "channel": 1,
      "note": 26,
      "start": 19.7406,
      "duration": 0.0831,
      "velocity": 91,
      "chip": "ym2612"
    },
    {
      "channel": 3,
      "note": 56,
      "start": 19.7411,
      "duration": 0.234,
      "velocity": 107,
      "chip": "ym2612"
    },
    {
      "channel": 5,
      "note": 31,
      "start": 19.7431,
      "duration": 0.2327,
      "velocity": 127,
      "chip": "ym2612"
    },
    {
      "channel": 1,
      "note": 38,
      "start": 19.8239,
      "duration": 0.1507,
      "velocity": 91,
      "chip": "ym2612"
    },
    {
      "channel": 1,
      "note": 26,
      "start": 19.9747,
      "duration": 0.2398,
      "velocity": 91,
      "chip": "ym2612"
    },
    {
      "channel": 3,
      "note": 54,
      "start": 19.9753,
      "duration": 0.1684,
      "velocity": 107,
      "chip": "ym2612"
    },
    {
      "channel": 5,
      "note": 31,
      "start": 19.9759,
      "duration": 0.0836,
      "velocity": 108,
      "chip": "ym2612"
    },
    {
      "channel": 5,
      "note": 79,
      "start": 20.0597,
      "duration": 0.2302,
      "velocity": 108,
      "chip": "ym2612"
    },
    {
      "channel": 0,
      "note": 77,
      "start": 20.1428,
      "duration": 2.5168,
      "velocity": 127,
      "chip": "ym2612"
    },
    {
      "channel": 2,
      "note": 89,
      "start": 20.1434,
      "duration": 0.0716,
      "velocity": 95,
      "chip": "ym2612"
    },
    {
      "channel": 3,
      "note": 46,
      "start": 20.144,
      "duration": 0.2291,
      "velocity": 107,
      "chip": "ym2612"
    },
    {
      "channel": 4,
      "note": 74,
      "start": 20.1459,
      "duration": 2.5153,
      "velocity": 127,
      "chip": "ym2612"
    },
    {
      "channel": 1,
      "note": 26,
      "start": 20.2147,
      "duration": 0.1578,
      "velocity": 91,
      "chip": "ym2612"
    },
    {
      "channel": 2,
      "note": 86,
      "start": 20.2152,
      "duration": 0.0741,
      "velocity": 95,
      "chip": "ym2612"
    },
    {
      "channel": 2,
      "note": 82,
      "start": 20.2895,
      "duration": 1.4285,
      "velocity": 95,
      "chip": "ym2612"
    },
    {
      "channel": 5,
      "note": 79,
      "start": 20.2901,
      "duration": 0.0836,
      "velocity": 108,
      "chip": "ym2612"
    },
    {
      "channel": 1,
      "note": 26,
      "start": 20.3727,
      "duration": 0.0831,
      "velocity": 91,
      "chip": "ym2612"
    },
    {
      "channel": 3,
      "note": 58,
      "start": 20.3732,
      "duration": 0.234,
      "velocity": 107,
      "chip": "ym2612"
    },
    {
      "channel": 5,
      "note": 79,
      "start": 20.3738,
      "duration": 0.2354,
      "velocity": 127,
      "chip": "ym2612"
    },
    {
      "channel": 1,
      "note": 38,
      "start": 20.456,
      "duration": 0.1507,
      "velocity": 91,
      "chip": "ym2612"
    },
    {
      "channel": 1,
      "note": 26,
      "start": 20.6068,
      "duration": 0.1664,
      "velocity": 91,
      "chip": "ym2612"
    },
    {
      "channel": 3,
      "note": 56,
      "start": 20.6074,
      "duration": 0.1664,
      "velocity": 107,
      "chip": "ym2612"
    },
    {
      "channel": 5,
      "note": 31,
      "start": 20.6094,
      "duration": 0.0822,
      "velocity": 108,
      "chip": "ym2612"
    },
    {
      "channel": 5,
      "note": 79,
      "start": 20.6917,
      "duration": 0.2328,
      "velocity": 108,
      "chip": "ym2612"
    },
    {
      "channel": 1,
      "note": 26,
      "start": 20.7735,
      "duration": 0.0742,
      "velocity": 91,
      "chip": "ym2612"
    },
    {
      "channel": 3,
      "note": 46,
      "start": 20.774,
      "duration": 0.234,
      "velocity": 107,
      "chip": "ym2612"
    },
    {
      "channel": 1,
      "note": 26,
      "start": 20.8478,
      "duration": 0.1597,
      "velocity": 91,
      "chip": "ym2612"
    },
    {
      "channel": 5,
      "note": 79,
      "start": 20.9246,
      "duration": 0.084,
      "velocity": 108,
      "chip": "ym2612"
    },
    {
      "channel": 1,
      "note": 26,
      "start": 21.0077,
      "duration": 0.0831,
      "velocity": 91,
      "chip": "ym2612"
    },
    {
      "channel": 3,
      "note": 58,
      "start": 21.0083,
      "duration": 0.2298,
      "velocity": 107,
      "chip": "ym2612"
    },
    {
      "channel": 5,
      "note": 79,
      "start": 21.0088,
      "duration": 0.2312,
      "velocity": 127,
      "chip": "ym2612"
    },
    {
      "channel": 1,
      "note": 38,
      "start": 21.091,
      "duration": 0.1464,
      "velocity": 91,
      "chip": "ym2612"
    },
    {
      "channel": 1,
      "note": 26,
      "start": 21.2377,
      "duration": 0.2409,
      "velocity": 91,
      "chip": "ym2612"
    },
    {
      "channel": 3,
      "note": 56,
      "start": 21.2383,
      "duration": 0.166,
      "velocity": 107,
      "chip": "ym2612"
    },
    {
      "channel": 5,
      "note": 31,
      "start": 21.2402,
      "duration": 0.0822,
      "velocity": 108,
      "chip": "ym2612"
    },
    {
      "channel": 5,
      "note": 79,
      "start": 21.3226,
      "duration": 0.2285,
      "velocity": 108,
      "chip": "ym2612"
    },
    {
      "channel": 3,
      "note": 46,
      "start": 21.4044,
      "duration": 0.2302,
      "velocity": 107,
      "chip": "ym2612"
    },
    {
      "channel": 1,
      "note": 26,
      "start": 21.4787,
      "duration": 0.1554,
      "velocity": 91,
      "chip": "ym2612"
    },
    {
      "channel": 5,
      "note": 79,
      "start": 21.5512,
      "duration": 0.084,
      "velocity": 108,
      "chip": "ym2612"
    },
    {
      "channel": 1,
      "note": 26,
      "start": 21.6343,
      "duration": 0.0832,
      "velocity": 91,
      "chip": "ym2612"
    },
    {
      "channel": 3,
      "note": 58,
      "start": 21.6349,
      "duration": 0.2297,
      "velocity": 107,
      "chip": "ym2612"
    },
    {
      "channel": 5,
      "note": 79,
      "start": 21.6354,
      "duration": 0.2312,
      "velocity": 127,
      "chip": "ym2612"
    },
    {
      "channel": 1,
      "note": 38,
      "start": 21.7176,
      "duration": 0.1465,
      "velocity": 91,
      "chip": "ym2612"
    },
    {
      "channel": 2,
      "note": 87,
      "start": 21.7181,
      "duration": 0.3131,
      "velocity": 95,
      "chip": "ym2612"
    },
    {
      "channel": 1,
      "note": 26,
      "start": 21.8642,
      "duration": 0.1665,
      "velocity": 91,
      "chip": "ym2612"
    },
    {
      "channel": 3,
      "note": 56,
      "start": 21.8648,
      "duration": 0.1669,
      "velocity": 107,
      "chip": "ym2612"
    },
    {
      "channel": 5,
      "note": 31,
      "start": 21.8668,
      "duration": 0.0822,
      "velocity": 108,
      "chip": "ym2612"
    },
    {
      "channel": 5,
      "note": 79,
      "start": 21.9491,
      "duration": 0.2288,
      "velocity": 108,
      "chip": "ym2612"
    },
    {
      "channel": 1,
      "note": 26,
      "start": 22.0309,
      "duration": 0.0741,
      "velocity": 91,
      "chip": "ym2612"
    },
    {
      "channel": 2,
      "note": 86,
      "start": 22.0314,
      "duration": 0.23,
      "velocity": 95,
      "chip": "ym2612"
    },
    {
      "channel": 3,
      "note": 46,
      "start": 22.0319,
      "duration": 0.23,
      "velocity": 107,
      "chip": "ym2612"
    },
    {
      "channel": 1,
      "note": 26,
      "start": 22.1051,
      "duration": 0.1558,
      "velocity": 91,
      "chip": "ym2612"
    },
    {
      "channel": 5,
      "note": 79,
      "start": 22.178,
      "duration": 0.0859,
      "velocity": 127,
      "chip": "ym2612"
    },
    {
      "channel": 1,
      "note": 26,
      "start": 22.2611,
      "duration": 0.0832,
      "velocity": 91,
      "chip": "ym2612"
    },
    {
      "channel": 2,
      "note": 84,
      "start": 22.2616,
      "duration": 0.2319,
      "velocity": 95,
      "chip": "ym2612"
    },
    {
      "channel": 3,
      "note": 58,
      "start": 22.2621,
      "duration": 0.2319,
      "velocity": 107,
      "chip": "ym2612"
    },
    {
      "channel": 5,
      "note": 31,
      "start": 22.2641,
      "duration": 0.2305,
      "velocity": 127,
      "chip": "ym2612"
    },
    {
      "channel": 1,
      "note": 38,
      "start": 22.3444,
      "duration": 0.1485,
      "velocity": 91,
      "chip": "ym2612"
    },
    {
      "channel": 1,
      "note": 26,
      "start": 22.4932,
      "duration": 0.243,
      "velocity": 91,
      "chip": "ym2612"
    },
    {
      "channel": 2,
      "note": 82,
      "start": 22.4937,
      "duration": 0.1665,
      "velocity": 95,
      "chip": "ym2612"
    },
    {
      "channel": 3,
      "note": 56,
      "start": 22.4941,
      "duration": 0.1666,
      "velocity": 107,
      "chip": "ym2612"
    },
    {
      "channel": 5,
      "note": 31,
      "start": 22.4948,
      "duration": 0.0831,
      "velocity": 108,
      "chip": "ym2612"
    },
    {
      "channel": 5,
      "note": 79,
      "start": 22.5781,
      "duration": 0.2308,
      "velocity": 108,
      "chip": "ym2612"
    },
    {
      "channel": 0,
      "note": 72,
      "start": 22.6598,
      "duration": 2.5136,
      "velocity": 127,
      "chip": "ym2612"
    },
    {
      "channel": 2,
      "note": 80,
      "start": 22.6604,
      "duration": 2.3455,
      "velocity": 95,
      "chip": "ym2612"
    },
    {
      "channel": 3,
      "note": 44,
      "start": 22.6609,
      "duration": 0.2317,
      "velocity": 107,
      "chip": "ym2612"
    },
    {
      "channel": 4,
      "note": 75,
      "start": 22.6614,
      "duration": 2.515,
      "velocity": 127,
      "chip": "ym2612"
    },
    {
      "channel": 1,
      "note": 26,
      "start": 22.7363,
      "duration": 0.1556,
      "velocity": 91,
      "chip": "ym2612"
    },
    {
      "channel": 5,
      "note": 79,
      "start": 22.8091,
      "duration": 0.084,
      "velocity": 108,
      "chip": "ym2612"
    },
    {
      "channel": 1,
      "note": 26,
      "start": 22.8922,
      "duration": 0.0831,
      "velocity": 91,
      "chip": "ym2612"
    },
    {
      "channel": 3,
      "note": 56,
      "start": 22.8927,
      "duration": 0.2298,
      "velocity": 107,
      "chip": "ym2612"
    },
    {
      "channel": 5,
      "note": 79,
      "start": 22.8933,
      "duration": 0.2312,
      "velocity": 127,
      "chip": "ym2612"
    },
    {
      "channel": 1,
      "note": 38,
      "start": 22.9755,
      "duration": 0.1464,
      "velocity": 91,
      "chip": "ym2612"
    },
    {
      "channel": 1,
      "note": 26,
      "start": 23.1222,
      "duration": 0.1665,
      "velocity": 91,
      "chip": "ym2612"
    },
    {
      "channel": 3,
      "note": 54,
      "start": 23.1227,
      "duration": 0.1665,
      "velocity": 107,
      "chip": "ym2612"
    },
    {
      "channel": 5,
      "note": 31,
      "start": 23.1247,
      "duration": 0.0822,
      "velocity": 108,
      "chip": "ym2612"
    },
    {
      "channel": 5,
      "note": 79,
      "start": 23.2071,
      "duration": 0.2288,
      "velocity": 108,
      "chip": "ym2612"
    },
    {
      "channel": 1,
      "note": 26,
      "start": 23.2888,
      "duration": 0.0741,
      "velocity": 91,
      "chip": "ym2612"
    },
    {
      "channel": 3,
      "note": 44,
      "start": 23.2894,
      "duration": 0.2301,
      "velocity": 107,
      "chip": "ym2612"
    },
    {
      "channel": 1,
      "note": 26,
      "start": 23.3631,
      "duration": 0.1558,
      "velocity": 91,
      "chip": "ym2612"
    },
    {
      "channel": 5,
      "note": 79,
      "start": 23.436,
      "duration": 0.084,
      "velocity": 108,
      "chip": "ym2612"
    },
    {
      "channel": 1,
      "note": 26,
      "start": 23.5191,
      "duration": 0.0831,
      "velocity": 91,
      "chip": "ym2612"
    },
    {
      "channel": 3,
      "note": 56,
      "start": 23.5197,
      "duration": 0.2302,
      "velocity": 107,
      "chip": "ym2612"
    },
    {
      "channel": 5,
      "note": 79,
      "start": 23.5202,
      "duration": 0.2316,
      "velocity": 127,
      "chip": "ym2612"
    },
    {
      "channel": 1,
      "note": 38,
      "start": 23.6024,
      "duration": 0.1468,
      "velocity": 91,
      "chip": "ym2612"
    },
    {
      "channel": 1,
      "note": 26,
      "start": 23.7495,
      "duration": 0.241,
      "velocity": 91,
      "chip": "ym2612"
    },
    {
      "channel": 3,
      "note": 54,
      "start": 23.75,
      "duration": 0.166,
      "velocity": 107,
      "chip": "ym2612"
    },
    {
      "channel": 5,
      "note": 31,
      "start": 23.752,
      "duration": 0.0822,
      "velocity": 108,
      "chip": "ym2612"
    },
    {
      "channel": 5,
      "note": 79,
      "start": 23.8344,
      "duration": 0.2308,
      "velocity": 108,
      "chip": "ym2612"
    },
    {
      "channel": 3,
      "note": 44,
      "start": 23.9162,
      "duration": 0.2326,
      "velocity": 107,
      "chip": "ym2612"
    },
    {
      "channel": 1,
      "note": 26,
      "start": 23.9906,
      "duration": 0.1576,
      "velocity": 91,
      "chip": "ym2612"
    },
    {
      "channel": 5,
      "note": 79,
      "start": 24.0653,
      "duration": 0.084,
      "velocity": 108,
      "chip": "ym2612"
    },
    {
      "channel": 1,
      "note": 26,
      "start": 24.1484,
      "duration": 0.0831,
      "velocity": 91,
      "chip": "ym2612"
    },
    {
      "channel": 3,
      "note": 56,
      "start": 24.1489,
      "duration": 0.23,
      "velocity": 107,
      "chip": "ym2612"
    },
    {
      "channel": 5,
      "note": 79,
      "start": 24.1495,
      "duration": 0.2313,
      "velocity": 127,
      "chip": "ym2612"
    },
    {
      "channel": 1,
      "note": 38,
      "start": 24.2317,
      "duration": 0.1466,
      "velocity": 91,
      "chip": "ym2612"
    },
    {
      "channel": 1,
      "note": 26,
      "start": 24.3785,
      "duration": 0.1665,
      "velocity": 91,
      "chip": "ym2612"
    },
    {
      "channel": 3,
      "note": 54,
      "start": 24.379,
      "duration": 0.1665,
      "velocity": 107,
      "chip": "ym2612"
    },
    {
      "channel": 5,
      "note": 31,
      "start": 24.381,
      "duration": 0.0822,
      "velocity": 108,
      "chip": "ym2612"
    },
    {
      "channel": 5,
      "note": 79,
      "start": 24.4634,
      "duration": 0.2288,
      "velocity": 108,
      "chip": "ym2612"
    },
    {
      "channel": 1,
      "note": 26,
      "start": 24.5451,
      "duration": 0.0741,
      "velocity": 91,
      "chip": "ym2612"
    },
    {
      "channel": 3,
      "note": 44,
      "start": 24.5457,
      "duration": 0.2301,
      "velocity": 107,
      "chip": "ym2612"
    },
    {
      "channel": 1,
      "note": 26,
      "start": 24.6194,
      "duration": 0.1558,
      "velocity": 91,
      "chip": "ym2612"
    },
    {
      "channel": 5,
      "note": 79,
      "start": 24.6923,
      "duration": 0.0854,
      "velocity": 127,
      "chip": "ym2612"
    },
    {
      "channel": 1,
      "note": 26,
      "start": 24.7754,
      "duration": 0.0831,
      "velocity": 91,
      "chip": "ym2612"
    },
    {
      "channel": 3,
      "note": 56,
      "start": 24.776,
      "duration": 0.2304,
      "velocity": 107,
      "chip": "ym2612"
    },
    {
      "channel": 5,
      "note": 31,
      "start": 24.778,
      "duration": 0.2291,
      "velocity": 127,
      "chip": "ym2612"
    },
    {
      "channel": 1,
      "note": 38,
      "start": 24.8588,
      "duration": 0.1466,
      "velocity": 91,
      "chip": "ym2612"
    },
    {
      "channel": 1,
      "note": 26,
      "start": 25.0055,
      "duration": 0.2421,
      "velocity": 91,
      "chip": "ym2612"
    },
    {
      "channel": 2,
      "note": 86,
      "start": 25.0061,
      "duration": 0.0826,
      "velocity": 95,
      "chip": "ym2612"
    },
    {
      "channel": 3,
      "note": 54,
      "start": 25.0066,
      "duration": 0.1679,
      "velocity": 107,
      "chip": "ym2612"
    },
    {
      "channel": 5,
      "note": 31,
      "start": 25.0071,
      "duration": 0.0836,
      "velocity": 108,
      "chip": "ym2612"
    },
    {
      "channel": 2,
      "note": 87,
      "start": 25.0888,
      "duration": 0.0852,
      "velocity": 95,
      "chip": "ym2612"
    },
    {
      "channel": 5,
      "note": 79,
      "start": 25.0909,
      "duration": 0.23,
      "velocity": 108,
      "chip": "ym2612"
    },
    {
      "channel": 0,
      "note": 65,
      "start": 25.1736,
      "duration": 2.513,
      "velocity": 127,
      "chip": "ym2612"
    },
    {
      "channel": 2,
      "note": 89,
      "start": 25.1741,
      "duration": 0.0739,
      "velocity": 95,
      "chip": "ym2612"
    },
    {
      "channel": 3,
      "note": 46,
      "start": 25.1747,
      "duration": 0.2293,
      "velocity": 107,
      "chip": "ym2612"
    },
    {
      "channel": 4,
      "note": 74,
      "start": 25.1766,
      "duration": 2.5116,
      "velocity": 127,
      "chip": "ym2612"
    },
    {
      "channel": 1,
      "note": 26,
      "start": 25.2477,
      "duration": 0.1558,
      "velocity": 91,
      "chip": "ym2612"
    },
    {
      "channel": 2,
      "note": 86,
      "start": 25.2482,
      "duration": 0.072,
      "velocity": 95,
      "chip": "ym2612"
    },
    {
      "channel": 2,
      "note": 82,
      "start": 25.3204,
      "duration": 1.4228,
      "velocity": 95,
      "chip": "ym2612"
    },
    {
      "channel": 5,
      "note": 79,
      "start": 25.321,
      "duration": 0.0837,
      "velocity": 108,
      "chip": "ym2612"
    },
    {
      "channel": 1,
      "note": 26,
      "start": 25.4037,
      "duration": 0.0831,
      "velocity": 91,
      "chip": "ym2612"
    },
    {
      "channel": 3,
      "note": 58,
      "start": 25.4043,
      "duration": 0.2298,
      "velocity": 107,
      "chip": "ym2612"
    },
    {
      "channel": 5,
      "note": 79,
      "start": 25.4048,
      "duration": 0.2312,
      "velocity": 127,
      "chip": "ym2612"
    },
    {
      "channel": 1,
      "note": 38,
      "start": 25.487,
      "duration": 0.1465,
      "velocity": 91,
      "chip": "ym2612"
    },
    {
      "channel": 1,
      "note": 26,
      "start": 25.6337,
      "duration": 0.1665,
      "velocity": 91,
      "chip": "ym2612"
    },
    {
      "channel": 3,
      "note": 56,
      "start": 25.6343,
      "duration": 0.1665,
      "velocity": 107,
      "chip": "ym2612"
    },
    {
      "channel": 5,
      "note": 31,
      "start": 25.6363,
      "duration": 0.0822,
      "velocity": 108,
      "chip": "ym2612"
    },
    {
      "channel": 5,
      "note": 79,
      "start": 25.7187,
      "duration": 0.2289,
      "velocity": 108,
      "chip": "ym2612"
    },
    {
      "channel": 1,
      "note": 26,
      "start": 25.8004,
      "duration": 0.0741,
      "velocity": 91,
      "chip": "ym2612"
    },
    {
      "channel": 3,
      "note": 46,
      "start": 25.801,
      "duration": 0.2302,
      "velocity": 107,
      "chip": "ym2612"
    },
    {
      "channel": 1,
      "note": 26,
      "start": 25.8747,
      "duration": 0.1559,
      "velocity": 91,
      "chip": "ym2612"
    },
    {
      "channel": 5,
      "note": 79,
      "start": 25.9477,
      "duration": 0.084,
      "velocity": 108,
      "chip": "ym2612"
    },
    {
      "channel": 1,
      "note": 26,
      "start": 26.0308,
      "duration": 0.0831,
      "velocity": 91,
      "chip": "ym2612"
    },
    {
      "channel": 3,
      "note": 58,
      "start": 26.0313,
      "duration": 0.232,
      "velocity": 107,
      "chip": "ym2612"
    },
    {
      "channel": 5,
      "note": 79,
      "start": 26.0319,
      "duration": 0.2334,
      "velocity": 127,
      "chip": "ym2612"
    },
    {
      "channel": 1,
      "note": 38,
      "start": 26.1141,
      "duration": 0.1486,
      "velocity": 91,
      "chip": "ym2612"
    },
    {
      "channel": 1,
      "note": 26,
      "start": 26.2629,
      "duration": 0.239,
      "velocity": 91,
      "chip": "ym2612"
    },
    {
      "channel": 3,
      "note": 56,
      "start": 26.2635,
      "duration": 0.1659,
      "velocity": 107,
      "chip": "ym2612"
    },
    {
      "channel": 5,
      "note": 31,
      "start": 26.2655,
      "duration": 0.0822,
      "velocity": 108,
      "chip": "ym2612"
    },
    {
      "channel": 5,
      "note": 79,
      "start": 26.3478,
      "duration": 0.2286,
      "velocity": 108,
      "chip": "ym2612"
    },
    {
      "channel": 3,
      "note": 46,
      "start": 26.4296,
      "duration": 0.2304,
      "velocity": 107,
      "chip": "ym2612"
    },
    {
      "channel": 1,
      "note": 26,
      "start": 26.5021,
      "duration": 0.1573,
      "velocity": 91,
      "chip": "ym2612"
    },
    {
      "channel": 5,
      "note": 79,
      "start": 26.5765,
      "duration": 0.084,
      "velocity": 108,
      "chip": "ym2612"
    },
    {
      "channel": 1,
      "note": 26,
      "start": 26.6596,
      "duration": 0.0832,
      "velocity": 91,
      "chip": "ym2612"
    },
    {
      "channel": 3,
      "note": 58,
      "start": 26.6602,
      "duration": 0.2296,
      "velocity": 107,
      "chip": "ym2612"
    },
    {
      "channel": 5,
      "note": 79,
      "start": 26.6607,
      "duration": 0.231,
      "velocity": 127,
      "chip": "ym2612"
    },
    {
      "channel": 1,
      "note": 38,
      "start": 26.7429,
      "duration": 0.1463,
      "velocity": 91,
      "chip": "ym2612"
    },
    {
      "channel": 2,
      "note": 87,
      "start": 26.7434,
      "duration": 0.313,
      "velocity": 95,
      "chip": "ym2612"
    },
    {
      "channel": 1,
      "note": 26,
      "start": 26.8894,
      "duration": 0.1664,
      "velocity": 91,
      "chip": "ym2612"
    },
    {
      "channel": 3,
      "note": 56,
      "start": 26.89,
      "duration": 0.167,
      "velocity": 107,
      "chip": "ym2612"
    },
    {
      "channel": 5,
      "note": 31,
      "start": 26.892,
      "duration": 0.0822,
      "velocity": 108,
      "chip": "ym2612"
    },
    {
      "channel": 5,
      "note": 79,
      "start": 26.9743,
      "duration": 0.2306,
      "velocity": 108,
      "chip": "ym2612"
    },
    {
      "channel": 1,
      "note": 26,
      "start": 27.0561,
      "duration": 0.0742,
      "velocity": 91,
      "chip": "ym2612"
    },
    {
      "channel": 2,
      "note": 89,
      "start": 27.0566,
      "duration": 0.232,
      "velocity": 95,
      "chip": "ym2612"
    },
    {
      "channel": 3,
      "note": 46,
      "start": 27.0571,
      "duration": 0.232,
      "velocity": 107,
      "chip": "ym2612"
    },
    {
      "channel": 1,
      "note": 26,
      "start": 27.1305,
      "duration": 0.1575,
      "velocity": 91,
      "chip": "ym2612"
    },
    {
      "channel": 5,
      "note": 79,
      "start": 27.2051,
      "duration": 0.0859,
      "velocity": 127,
      "chip": "ym2612"
    },
    {
      "channel": 1,
      "note": 26,
      "start": 27.2882,
      "duration": 0.0832,
      "velocity": 91,
      "chip": "ym2612"
    },
    {
      "channel": 2,
      "note": 94,
      "start": 27.2887,
      "duration": 0.2318,
      "velocity": 95,
      "chip": "ym2612"
    },
    {
      "channel": 3,
      "note": 58,
      "start": 27.2892,
      "duration": 0.2318,
      "velocity": 107,
      "chip": "ym2612"
    },
    {
      "channel": 5,
      "note": 31,
      "start": 27.2912,
      "duration": 0.2305,
      "velocity": 127,
      "chip": "ym2612"
    },
    {
      "channel": 1,
      "note": 38,
      "start": 27.3715,
      "duration": 0.1485,
      "velocity": 91,
      "chip": "ym2612"
    },
    {
      "channel": 1,
      "note": 26,
      "start": 27.5201,
      "duration": 0.2412,
      "velocity": 91,
      "chip": "ym2612"
    },
    {
      "channel": 2,
      "note": 82,
      "start": 27.5206,
      "duration": 0.1665,
      "velocity": 95,
      "chip": "ym2612"
    },
    {
      "channel": 3,
      "note": 56,
      "start": 27.5211,
      "duration": 0.1666,
      "velocity": 107,
      "chip": "ym2612"
    },
    {
      "channel": 5,
      "note": 31,
      "start": 27.5218,
      "duration": 0.0831,
      "velocity": 108,
      "chip": "ym2612"
    },
    {
      "channel": 5,
      "note": 79,
      "start": 27.6051,
      "duration": 0.2305,
      "velocity": 108,
      "chip": "ym2612"
    },
    {
      "channel": 0,
      "note": 67,
      "start": 27.6868,
      "duration": 0.1471,
      "velocity": 127,
      "chip": "ym2612"
    },
    {
      "channel": 2,
      "note": 84,
      "start": 27.6873,
      "duration": 1.2614,
      "velocity": 121,
      "chip": "ym2612"
    },
    {
      "channel": 3,
      "note": 48,
      "start": 27.6878,
      "duration": 0.1468,
      "velocity": 107,
      "chip": "ym2612"
    },
    {
      "channel": 4,
      "note": 75,
      "start": 27.6884,
      "duration": 0.1467,
      "velocity": 127,
      "chip": "ym2612"
    },
    {
      "channel": 1,
      "note": 26,
      "start": 27.7615,
      "duration": 0.1557,
      "velocity": 91,
      "chip": "ym2612"
    },
    {
      "channel": 0,
      "note": 67,
      "start": 27.8341,
      "duration": 0.1678,
      "velocity": 47,
      "chip": "ym2612"
    },
    {
      "channel": 3,
      "note": 48,
      "start": 27.8347,
      "duration": 0.3169,
      "velocity": 107,
      "chip": "ym2612"
    },
    {
      "channel": 4,
      "note": 75,
      "start": 27.8352,
      "duration": 0.1692,
      "velocity": 47,
      "chip": "ym2612"
    },
    {
      "channel": 5,
      "note": 79,
      "start": 27.8358,
      "duration": 0.0822,
      "velocity": 108,
      "chip": "ym2612"
    },
    {
      "channel": 1,
      "note": 26,
      "start": 27.9174,
      "duration": 0.085,
      "velocity": 91,
      "chip": "ym2612"
    },
    {
      "channel": 5,
      "note": 79,
      "start": 27.9181,
      "duration": 0.2373,
      "velocity": 127,
      "chip": "ym2612"
    },
    {
      "channel": 0,
      "note": 55,
      "start": 28.002,
      "duration": 0.1485,
      "velocity": 127,
      "chip": "ym2612"
    },
    {
      "channel": 1,
      "note": 38,
      "start": 28.0026,
      "duration": 0.1485,
      "velocity": 91,
      "chip": "ym2612"
    },
    {
      "channel": 4,
      "note": 63,
      "start": 28.0046,
      "duration": 0.1488,
      "velocity": 127,
      "chip": "ym2612"
    },
    {
      "channel": 0,
      "note": 65,
      "start": 28.1507,
      "duration": 0.1664,
      "velocity": 47,
      "chip": "ym2612"
    },
    {
      "channel": 1,
      "note": 26,
      "start": 28.1512,
      "duration": 0.1665,
      "velocity": 91,
      "chip": "ym2612"
    },
    {
      "channel": 3,
      "note": 46,
      "start": 28.1517,
      "duration": 0.315,
      "velocity": 107,
      "chip": "ym2612"
    },
    {
      "channel": 4,
      "note": 74,
      "start": 28.1536,
      "duration": 0.166,
      "velocity": 47,
      "chip": "ym2612"
    },
    {
      "channel": 5,
      "note": 31,
      "start": 28.1556,
      "duration": 0.0785,
      "velocity": 108,
      "chip": "ym2612"
    },
    {
      "channel": 5,
      "note": 79,
      "start": 28.2343,
      "duration": 0.2349,
      "velocity": 108,
      "chip": "ym2612"
    },
    {
      "channel": 0,
      "note": 53,
      "start": 28.3173,
      "duration": 0.1488,
      "velocity": 127,
      "chip": "ym2612"
    },
    {
      "channel": 1,
      "note": 26,
      "start": 28.3178,
      "duration": 0.0726,
      "velocity": 91,
      "chip": "ym2612"
    },
    {
      "channel": 4,
      "note": 62,
      "start": 28.3199,
      "duration": 0.1488,
      "velocity": 127,
      "chip": "ym2612"
    },
    {
      "channel": 1,
      "note": 26,
      "start": 28.3905,
      "duration": 0.1576,
      "velocity": 91,
      "chip": "ym2612"
    },
    {
      "channel": 0,
      "note": 65,
      "start": 28.4663,
      "duration": 0.1664,
      "velocity": 47,
      "chip": "ym2612"
    },
    {
      "channel": 3,
      "note": 46,
      "start": 28.4669,
      "duration": 0.3157,
      "velocity": 107,
      "chip": "ym2612"
    },
    {
      "channel": 4,
      "note": 74,
      "start": 28.4688,
      "duration": 0.1664,
      "velocity": 47,
      "chip": "ym2612"
    },
    {
      "channel": 5,
      "note": 79,
      "start": 28.4694,
      "duration": 0.0794,
      "velocity": 108,
      "chip": "ym2612"
    },
    {
      "channel": 1,
      "note": 26,
      "start": 28.5483,
      "duration": 0.0849,
      "velocity": 91,
      "chip": "ym2612"
    },
    {
      "channel": 5,
      "note": 79,
      "start": 28.5489,
      "duration": 0.2375,
      "velocity": 127,
      "chip": "ym2612"
    },
    {
      "channel": 0,
      "note": 53,
      "start": 28.6329,
      "duration": 0.1486,
      "velocity": 127,
      "chip": "ym2612"
    },
    {
      "channel": 1,
      "note": 38,
      "start": 28.6334,
      "duration": 0.1486,
      "velocity": 91,
      "chip": "ym2612"
    },
    {
      "channel": 4,
      "note": 62,
      "start": 28.6354,
      "duration": 0.149,
      "velocity": 127,
      "chip": "ym2612"
    },
    {
      "channel": 0,
      "note": 63,
      "start": 28.7817,
      "duration": 0.1651,
      "velocity": 127,
      "chip": "ym2612"
    },
    {
      "channel": 1,
      "note": 26,
      "start": 28.7821,
      "duration": 0.2412,
      "velocity": 91,
      "chip": "ym2612"
    },
    {
      "channel": 3,
      "note": 44,
      "start": 28.7827,
      "duration": 0.1666,
      "velocity": 107,
      "chip": "ym2612"
    },
    {
      "channel": 4,
      "note": 72,
      "start": 28.7846,
      "duration": 0.1651,
      "velocity": 127,
      "chip": "ym2612"
    },
    {
      "channel": 5,
      "note": 31,
      "start": 28.7865,
      "duration": 0.0786,
      "velocity": 108,
      "chip": "ym2612"
    },
    {
      "channel": 5,
      "note": 79,
      "start": 28.8653,
      "duration": 0.2356,
      "velocity": 108,
      "chip": "ym2612"
    },
    {
      "channel": 0,
      "note": 63,
      "start": 28.947,
      "duration": 1.263,
      "velocity": 127,
      "chip": "ym2612"
    },
    {
      "channel": 2,
      "note": 79,
      "start": 28.9489,
      "duration": 0.0015,
      "velocity": 121,
      "chip": "ym2612"
    },
    {
      "channel": 3,
      "note": 44,
      "start": 28.9494,
      "duration": 0.6353,
      "velocity": 121,
      "chip": "ym2612"
    },
    {
      "channel": 4,
      "note": 72,
      "start": 28.9499,
      "duration": 1.2644,
      "velocity": 127,
      "chip": "ym2612"
    },
    {
      "channel": 2,
      "note": 79,
      "start": 28.9505,
      "duration": 0.0118,
      "velocity": 121,
      "chip": "ym2612"
    },
    {
      "channel": 2,
      "note": 78,
      "start": 28.9623,
      "duration": 0.0156,
      "velocity": 121,
      "chip": "ym2612"
    },
    {
      "channel": 2,
      "note": 78,
      "start": 28.9779,
      "duration": 0.0156,
      "velocity": 121,
      "chip": "ym2612"
    },
    {
      "channel": 2,
      "note": 77,
      "start": 28.9935,
      "duration": 0.0136,
      "velocity": 121,
      "chip": "ym2612"
    },
    {
      "channel": 2,
      "note": 77,
      "start": 29.0071,
      "duration": 0.0168,
      "velocity": 121,
      "chip": "ym2612"
    },
    {
      "channel": 1,
      "note": 26,
      "start": 29.0235,
      "duration": 0.1599,
      "velocity": 91,
      "chip": "ym2612"
    },
    {
      "channel": 2,
      "note": 79,
      "start": 29.0241,
      "duration": 0.0004,
      "velocity": 121,
      "chip": "ym2612"
    },
    {
      "channel": 2,
      "note": 79,
      "start": 29.0245,
      "duration": 0.0143,
      "velocity": 121,
      "chip": "ym2612"
    },
    {
      "channel": 2,
      "note": 78,
      "start": 29.0388,
      "duration": 0.0158,
      "velocity": 121,
      "chip": "ym2612"
    },
    {
      "channel": 2,
      "note": 78,
      "start": 29.0546,
      "duration": 0.0158,
      "velocity": 121,
      "chip": "ym2612"
    },
    {
      "channel": 2,
      "note": 77,
      "start": 29.0703,
      "duration": 0.0158,
      "velocity": 121,
      "chip": "ym2612"
    },
    {
      "channel": 2,
      "note": 77,
      "start": 29.0861,
      "duration": 0.0141,
      "velocity": 121,
      "chip": "ym2612"
    },
    {
      "channel": 2,
      "note": 79,
      "start": 29.1004,
      "duration": 0.001,
      "velocity": 121,
      "chip": "ym2612"
    },
    {
      "channel": 5,
      "note": 79,
      "start": 29.1011,
      "duration": 0.0835,
      "velocity": 108,
      "chip": "ym2612"
    },
    {
      "channel": 2,
      "note": 79,
      "start": 29.1014,
      "duration": 0.0149,
      "velocity": 121,
      "chip": "ym2612"
    },
    {
      "channel": 2,
      "note": 78,
      "start": 29.1164,
      "duration": 0.0167,
      "velocity": 121,
      "chip": "ym2612"
    },
    {
      "channel": 2,
      "note": 78,
      "start": 29.133,
      "duration": 0.0167,
      "velocity": 121,
      "chip": "ym2612"
    },
    {
      "channel": 2,
      "note": 77,
      "start": 29.1497,
      "duration": 0.0167,
      "velocity": 121,
      "chip": "ym2612"
    },
    {
      "channel": 2,
      "note": 77,
      "start": 29.1664,
      "duration": 0.0176,
      "velocity": 121,
      "chip": "ym2612"
    },
    {
      "channel": 1,
      "note": 26,
      "start": 29.1836,
      "duration": 0.0831,
      "velocity": 91,
      "chip": "ym2612"
    },
    {
      "channel": 2,
      "note": 79,
      "start": 29.1841,
      "duration": 0.001,
      "velocity": 121,
      "chip": "ym2612"
    },
    {
      "channel": 5,
      "note": 79,
      "start": 29.1848,
      "duration": 0.2334,
      "velocity": 127,
      "chip": "ym2612"
    },
    {
      "channel": 2,
      "note": 79,
      "start": 29.1851,
      "duration": 0.0146,
      "velocity": 121,
      "chip": "ym2612"
    },
    {
      "channel": 2,
      "note": 78,
      "start": 29.1997,
      "duration": 0.0167,
      "velocity": 121,
      "chip": "ym2612"
    },
    {
      "channel": 2,
      "note": 78,
      "start": 29.2164,
      "duration": 0.0167,
      "velocity": 121,
      "chip": "ym2612"
    },
    {
      "channel": 2,
      "note": 77,
      "start": 29.233,
      "duration": 0.0167,
      "velocity": 121,
      "chip": "ym2612"
    },
    {
      "channel": 2,
      "note": 77,
      "start": 29.2497,
      "duration": 0.0176,
      "velocity": 121,
      "chip": "ym2612"
    },
    {
      "channel": 1,
      "note": 38,
      "start": 29.267,
      "duration": 0.1486,
      "velocity": 91,
      "chip": "ym2612"
    },
    {
      "channel": 2,
      "note": 76,
      "start": 29.2675,
      "duration": 0.0006,
      "velocity": 121,
      "chip": "ym2612"
    },
    {
      "channel": 2,
      "note": 76,
      "start": 29.2681,
      "duration": 0.0123,
      "velocity": 121,
      "chip": "ym2612"
    },
    {
      "channel": 2,
      "note": 75,
      "start": 29.2804,
      "duration": 0.0136,
      "velocity": 121,
      "chip": "ym2612"
    },
    {
      "channel": 2,
      "note": 74,
      "start": 29.2939,
      "duration": 0.0136,
      "velocity": 121,
      "chip": "ym2612"
    },
    {
      "channel": 2,
      "note": 74,
      "start": 29.3075,
      "duration": 0.0136,
      "velocity": 121,
      "chip": "ym2612"
    },
    {
      "channel": 2,
      "note": 73,
      "start": 29.321,
      "duration": 0.016,
      "velocity": 121,
      "chip": "ym2612"
    },
    {
      "channel": 2,
      "note": 76,
      "start": 29.3372,
      "duration": 0.0005,
      "velocity": 121,
      "chip": "ym2612"
    },
    {
      "channel": 2,
      "note": 76,
      "start": 29.3377,
      "duration": 0.0146,
      "velocity": 121,
      "chip": "ym2612"
    },
    {
      "channel": 2,
      "note": 75,
      "start": 29.3523,
      "duration": 0.0157,
      "velocity": 121,
      "chip": "ym2612"
    },
    {
      "channel": 2,
      "note": 74,
      "start": 29.368,
      "duration": 0.0157,
      "velocity": 121,
      "chip": "ym2612"
    },
    {
      "channel": 2,
      "note": 74,
      "start": 29.3837,
      "duration": 0.0157,
      "velocity": 121,
      "chip": "ym2612"
    },
    {
      "channel": 2,
      "note": 73,
      "start": 29.3994,
      "duration": 0.0168,
      "velocity": 121,
      "chip": "ym2612"
    },
    {
      "channel": 1,
      "note": 26,
      "start": 29.4158,
      "duration": 0.1665,
      "velocity": 91,
      "chip": "ym2612"
    },
    {
      "channel": 2,
      "note": 76,
      "start": 29.4163,
      "duration": 0.0024,
      "velocity": 121,
      "chip": "ym2612"
    },
    {
      "channel": 5,
      "note": 31,
      "start": 29.4183,
      "duration": 0.0827,
      "velocity": 108,
      "chip": "ym2612"
    },
    {
      "channel": 2,
      "note": 76,
      "start": 29.4187,
      "duration": 0.0132,
      "velocity": 121,
      "chip": "ym2612"
    },
    {
      "channel": 2,
      "note": 75,
      "start": 29.4319,
      "duration": 0.0167,
      "velocity": 121,
      "chip": "ym2612"
    },
    {
      "channel": 2,
      "note": 74,
      "start": 29.4485,
      "duration": 0.0167,
      "velocity": 121,
      "chip": "ym2612"
    },
    {
      "channel": 2,
      "note": 74,
      "start": 29.4652,
      "duration": 0.0167,
      "velocity": 121,
      "chip": "ym2612"
    },
    {
      "channel": 2,
      "note": 73,
      "start": 29.4819,
      "duration": 0.0172,
      "velocity": 121,
      "chip": "ym2612"
    },
    {
      "channel": 2,
      "note": 76,
      "start": 29.4992,
      "duration": 0.0024,
      "velocity": 121,
      "chip": "ym2612"
    },
    {
      "channel": 5,
      "note": 79,
      "start": 29.5012,
      "duration": 0.2306,
      "velocity": 108,
      "chip": "ym2612"
    },
    {
      "channel": 2,
      "note": 76,
      "start": 29.5015,
      "duration": 0.0137,
      "velocity": 121,
      "chip": "ym2612"
    },
    {
      "channel": 2,
      "note": 75,
      "start": 29.5152,
      "duration": 0.0167,
      "velocity": 121,
      "chip": "ym2612"
    },
    {
      "channel": 2,
      "note": 74,
      "start": 29.5319,
      "duration": 0.0167,
      "velocity": 121,
      "chip": "ym2612"
    },
    {
      "channel": 2,
      "note": 74,
      "start": 29.5485,
      "duration": 0.0167,
      "velocity": 121,
      "chip": "ym2612"
    },
    {
      "channel": 2,
      "note": 73,
      "start": 29.5652,
      "duration": 0.0176,
      "velocity": 121,
      "chip": "ym2612"
    },
    {
      "channel": 1,
      "note": 26,
      "start": 29.5825,
      "duration": 0.0732,
      "velocity": 91,
      "chip": "ym2612"
    },
    {
      "channel": 2,
      "note": 72,
      "start": 29.583,
      "duration": 0.0025,
      "velocity": 121,
      "chip": "ym2612"
    },
    {
      "channel": 3,
      "note": 74,
      "start": 29.5849,
      "duration": 0.0008,
      "velocity": 121,
      "chip": "ym2612"
    },
    {
      "channel": 2,
      "note": 71,
      "start": 29.5855,
      "duration": 0.0107,
      "velocity": 121,
      "chip": "ym2612"
    },
    {
      "channel": 3,
      "note": 73,
      "start": 29.5858,
      "duration": 0.0107,
      "velocity": 121,
      "chip": "ym2612"
    },
    {
      "channel": 2,
      "note": 71,
      "start": 29.5962,
      "duration": 0.0158,
      "velocity": 121,
      "chip": "ym2612"
    },
    {
      "channel": 3,
      "note": 73,
      "start": 29.5964,
      "duration": 0.0157,
      "velocity": 121,
      "chip": "ym2612"
    },
    {
      "channel": 2,
      "note": 70,
      "start": 29.6119,
      "duration": 0.0137,
      "velocity": 121,
      "chip": "ym2612"
    },
    {
      "channel": 3,
      "note": 72,
      "start": 29.6121,
      "duration": 0.0138,
      "velocity": 121,
      "chip": "ym2612"
    },
    {
      "channel": 2,
      "note": 69,
      "start": 29.6256,
      "duration": 0.0158,
      "velocity": 121,
      "chip": "ym2612"
    },
    {
      "channel": 3,
      "note": 72,
      "start": 29.6259,
      "duration": 0.0157,
      "velocity": 121,
      "chip": "ym2612"
    },
    {
      "channel": 2,
      "note": 69,
      "start": 29.6414,
      "duration": 0.0148,
      "velocity": 121,
      "chip": "ym2612"
    },
    {
      "channel": 3,
      "note": 71,
      "start": 29.6416,
      "duration": 0.0151,
      "velocity": 121,
      "chip": "ym2612"
    },
    {
      "channel": 1,
      "note": 26,
      "start": 29.6558,
      "duration": 0.1581,
      "velocity": 91,
      "chip": "ym2612"
    },
    {
      "channel": 2,
      "note": 72,
      "start": 29.6563,
      "duration": 0.001,
      "velocity": 121,
      "chip": "ym2612"
    },
    {
      "channel": 3,
      "note": 74,
      "start": 29.6569,
      "duration": 0.0006,
      "velocity": 121,
      "chip": "ym2612"
    },
    {
      "channel": 2,
      "note": 71,
      "start": 29.6573,
      "duration": 0.012,
      "velocity": 121,
      "chip": "ym2612"
    },
    {
      "channel": 3,
      "note": 73,
      "start": 29.6575,
      "duration": 0.012,
      "velocity": 121,
      "chip": "ym2612"
    },
    {
      "channel": 2,
      "note": 71,
      "start": 29.6693,
      "duration": 0.0158,
      "velocity": 121,
      "chip": "ym2612"
    },
    {
      "channel": 3,
      "note": 73,
      "start": 29.6695,
      "duration": 0.0159,
      "velocity": 121,
      "chip": "ym2612"
    },
    {
      "channel": 2,
      "note": 70,
      "start": 29.6851,
      "duration": 0.0136,
      "velocity": 121,
      "chip": "ym2612"
    },
    {
      "channel": 3,
      "note": 72,
      "start": 29.6854,
      "duration": 0.0135,
      "velocity": 121,
      "chip": "ym2612"
    },
    {
      "channel": 2,
      "note": 69,
      "start": 29.6987,
      "duration": 0.0158,
      "velocity": 121,
      "chip": "ym2612"
    },
    {
      "channel": 3,
      "note": 72,
      "start": 29.6989,
      "duration": 0.0159,
      "velocity": 121,
      "chip": "ym2612"
    },
    {
      "channel": 2,
      "note": 69,
      "start": 29.7145,
      "duration": 0.0162,
      "velocity": 121,
      "chip": "ym2612"
    },
    {
      "channel": 3,
      "note": 71,
      "start": 29.7147,
      "duration": 0.0164,
      "velocity": 121,
      "chip": "ym2612"
    },
    {
      "channel": 2,
      "note": 72,
      "start": 29.7308,
      "duration": 0.0015,
      "velocity": 121,
      "chip": "ym2612"
    },
    {
      "channel": 3,
      "note": 74,
      "start": 29.7314,
      "duration": 0.0011,
      "velocity": 121,
      "chip": "ym2612"
    },
    {
      "channel": 5,
      "note": 79,
      "start": 29.732,
      "duration": 0.0849,
      "velocity": 127,
      "chip": "ym2612"
    },
    {
      "channel": 2,
      "note": 71,
      "start": 29.7323,
      "duration": 0.0145,
      "velocity": 121,
      "chip": "ym2612"
    },
    {
      "channel": 3,
      "note": 73,
      "start": 29.7325,
      "duration": 0.0146,
      "velocity": 121,
      "chip": "ym2612"
    },
    {
      "channel": 2,
      "note": 71,
      "start": 29.7468,
      "duration": 0.0167,
      "velocity": 121,
      "chip": "ym2612"
    },
    {
      "channel": 3,
      "note": 73,
      "start": 29.7471,
      "duration": 0.0167,
      "velocity": 121,
      "chip": "ym2612"
    },
    {
      "channel": 2,
      "note": 70,
      "start": 29.7635,
      "duration": 0.0167,
      "velocity": 121,
      "chip": "ym2612"
    },
    {
      "channel": 3,
      "note": 72,
      "start": 29.7638,
      "duration": 0.0167,
      "velocity": 121,
      "chip": "ym2612"
    },
    {
      "channel": 2,
      "note": 69,
      "start": 29.7802,
      "duration": 0.0167,
      "velocity": 121,
      "chip": "ym2612"
    },
    {
      "channel": 3,
      "note": 72,
      "start": 29.7804,
      "duration": 0.0167,
      "velocity": 121,
      "chip": "ym2612"
    },
    {
      "channel": 2,
      "note": 69,
      "start": 29.7968,
      "duration": 0.0176,
      "velocity": 121,
      "chip": "ym2612"
    },
    {
      "channel": 3,
      "note": 71,
      "start": 29.7971,
      "duration": 0.0179,
      "velocity": 121,
      "chip": "ym2612"
    },
    {
      "channel": 1,
      "note": 26,
      "start": 29.8141,
      "duration": 0.0831,
      "velocity": 91,
      "chip": "ym2612"
    },
    {
      "channel": 2,
      "note": 72,
      "start": 29.8146,
      "duration": 0.0028,
      "velocity": 121,
      "chip": "ym2612"
    },
    {
      "channel": 3,
      "note": 74,
      "start": 29.8151,
      "duration": 0.0025,
      "velocity": 121,
      "chip": "ym2612"
    },
    {
      "channel": 5,
      "note": 31,
      "start": 29.8171,
      "duration": 0.2278,
      "velocity": 127,
      "chip": "ym2612"
    },
    {
      "channel": 2,
      "note": 71,
      "start": 29.8174,
      "duration": 0.0127,
      "velocity": 121,
      "chip": "ym2612"
    },
    {
      "channel": 3,
      "note": 73,
      "start": 29.8177,
      "duration": 0.0127,
      "velocity": 121,
      "chip": "ym2612"
    },
    {
      "channel": 2,
      "note": 71,
      "start": 29.8302,
      "duration": 0.0167,
      "velocity": 121,
      "chip": "ym2612"
    },
    {
      "channel": 3,
      "note": 73,
      "start": 29.8304,
      "duration": 0.0167,
      "velocity": 121,
      "chip": "ym2612"
    },
    {
      "channel": 2,
      "note": 70,
      "start": 29.8468,
      "duration": 0.0167,
      "velocity": 121,
      "chip": "ym2612"
    },
    {
      "channel": 3,
      "note": 72,
      "start": 29.8471,
      "duration": 0.0167,
      "velocity": 121,
      "chip": "ym2612"
    },
    {
      "channel": 2,
      "note": 69,
      "start": 29.8635,
      "duration": 0.0167,
      "velocity": 121,
      "chip": "ym2612"
    },
    {
      "channel": 3,
      "note": 72,
      "start": 29.8638,
      "duration": 0.0167,
      "velocity": 121,
      "chip": "ym2612"
    },
    {
      "channel": 2,
      "note": 69,
      "start": 29.8802,
      "duration": 0.0176,
      "velocity": 121,
      "chip": "ym2612"
    },
    {
      "channel": 3,
      "note": 71,
      "start": 29.8804,
      "duration": 0.0179,
      "velocity": 121,
      "chip": "ym2612"
    },
    {
      "channel": 1,
      "note": 38,
      "start": 29.8974,
      "duration": 0.1458,
      "velocity": 91,
      "chip": "ym2612"
    },
    {
      "channel": 2,
      "note": 69,
      "start": 29.898,
      "duration": 0.0011,
      "velocity": 121,
      "chip": "ym2612"
    },
    {
      "channel": 3,
      "note": 71,
      "start": 29.8985,
      "duration": 0.0008,
      "velocity": 121,
      "chip": "ym2612"
    },
    {
      "channel": 2,
      "note": 68,
      "start": 29.8991,
      "duration": 0.0119,
      "velocity": 121,
      "chip": "ym2612"
    },
    {
      "channel": 3,
      "note": 70,
      "start": 29.8993,
      "duration": 0.0119,
      "velocity": 121,
      "chip": "ym2612"
    },
    {
      "channel": 2,
      "note": 67,
      "start": 29.911,
      "duration": 0.0137,
      "velocity": 121,
      "chip": "ym2612"
    },
    {
      "channel": 3,
      "note": 70,
      "start": 29.9112,
      "duration": 0.0138,
      "velocity": 121,
      "chip": "ym2612"
    },
    {
      "channel": 2,
      "note": 67,
      "start": 29.9247,
      "duration": 0.0158,
      "velocity": 121,
      "chip": "ym2612"
    },
    {
      "channel": 3,
      "note": 69,
      "start": 29.925,
      "duration": 0.0157,
      "velocity": 121,
      "chip": "ym2612"
    },
    {
      "channel": 2,
      "note": 66,
      "start": 29.9405,
      "duration": 0.0137,
      "velocity": 121,
      "chip": "ym2612"
    },
    {
      "channel": 3,
      "note": 68,
      "start": 29.9407,
      "duration": 0.0138,
      "velocity": 121,
      "chip": "ym2612"
    },
    {
      "channel": 2,
      "note": 65,
      "start": 29.9542,
      "duration": 0.0161,
      "velocity": 121,
      "chip": "ym2612"
    },
    {
      "channel": 3,
      "note": 67,
      "start": 29.9544,
      "duration": 0.0163,
      "velocity": 121,
      "chip": "ym2612"
    },
    {
      "channel": 2,
      "note": 69,
      "start": 29.9705,
      "duration": 0.001,
      "velocity": 121,
      "chip": "ym2612"
    },
    {
      "channel": 3,
      "note": 71,
      "start": 29.971,
      "duration": 0.0006,
      "velocity": 121,
      "chip": "ym2612"
    },
    {
      "channel": 2,
      "note": 68,
      "start": 29.9714,
      "duration": 0.0124,
      "velocity": 121,
      "chip": "ym2612"
    },
    {
      "channel": 3,
      "note": 70,
      "start": 29.9716,
      "duration": 0.0124,
      "velocity": 121,
      "chip": "ym2612"
    },
    {
      "channel": 2,
      "note": 67,
      "start": 29.9838,
      "duration": 0.0158,
      "velocity": 121,
      "chip": "ym2612"
    },
    {
      "channel": 3,
      "note": 70,
      "start": 29.984,
      "duration": 0.0157,
      "velocity": 121,
      "chip": "ym2612"
    },
    {
      "channel": 2,
      "note": 67,
      "start": 29.9995,
      "duration": 0.0137,
      "velocity": 121,
      "chip": "ym2612"
    },
    {
      "channel": 3,
      "note": 69,
      "start": 29.9997,
      "duration": 0.0138,
      "velocity": 121,
      "chip": "ym2612"
    },
    {
      "channel": 2,
      "note": 66,
      "start": 30.0132,
      "duration": 0.0158,
      "velocity": 121,
      "chip": "ym2612"
    },
    {
      "channel": 3,
      "note": 68,
      "start": 30.0135,
      "duration": 0.0157,
      "velocity": 121,
      "chip": "ym2612"
    },
    {
      "channel": 2,
      "note": 65,
      "start": 30.029,
      "duration": 0.0148,
      "velocity": 121,
      "chip": "ym2612"
    },
    {
      "channel": 3,
      "note": 67,
      "start": 30.0292,
      "duration": 0.0151,
      "velocity": 121,
      "chip": "ym2612"
    },
    {
      "channel": 1,
      "note": 26,
      "start": 30.0434,
      "duration": 0.2393,
      "velocity": 91,
      "chip": "ym2612"
    },
    {
      "channel": 2,
      "note": 69,
      "start": 30.0439,
      "duration": 0.0015,
      "velocity": 121,
      "chip": "ym2612"
    },
    {
      "channel": 3,
      "note": 71,
      "start": 30.0445,
      "duration": 0.0012,
      "velocity": 121,
      "chip": "ym2612"
    },
    {
      "channel": 5,
      "note": 31,
      "start": 30.0451,
      "duration": 0.084,
      "velocity": 108,
      "chip": "ym2612"
    },
    {
      "channel": 2,
      "note": 68,
      "start": 30.0454,
      "duration": 0.014,
      "velocity": 121,
      "chip": "ym2612"
    },
    {
      "channel": 3,
      "note": 70,
      "start": 30.0456,
      "duration": 0.0141,
      "velocity": 121,
      "chip": "ym2612"
    },
    {
      "channel": 2,
      "note": 67,
      "start": 30.0594,
      "duration": 0.0167,
      "velocity": 121,
      "chip": "ym2612"
    },
    {
      "channel": 3,
      "note": 70,
      "start": 30.0597,
      "duration": 0.0167,
      "velocity": 121,
      "chip": "ym2612"
    },
    {
      "channel": 2,
      "note": 67,
      "start": 30.0761,
      "duration": 0.0167,
      "velocity": 121,
      "chip": "ym2612"
    },
    {
      "channel": 3,
      "note": 69,
      "start": 30.0764,
      "duration": 0.0167,
      "velocity": 121,
      "chip": "ym2612"
    },
    {
      "channel": 2,
      "note": 66,
      "start": 30.0928,
      "duration": 0.0167,
      "velocity": 121,
      "chip": "ym2612"
    },
    {
      "channel": 3,
      "note": 68,
      "start": 30.093,
      "duration": 0.0167,
      "velocity": 121,
      "chip": "ym2612"
    },
    {
      "channel": 2,
      "note": 65,
      "start": 30.1094,
      "duration": 0.0173,
      "velocity": 121,
      "chip": "ym2612"
    },
    {
      "channel": 3,
      "note": 67,
      "start": 30.1097,
      "duration": 0.0175,
      "velocity": 121,
      "chip": "ym2612"
    },
    {
      "channel": 2,
      "note": 69,
      "start": 30.1268,
      "duration": 0.0029,
      "velocity": 121,
      "chip": "ym2612"
    },
    {
      "channel": 3,
      "note": 71,
      "start": 30.1274,
      "duration": 0.0025,
      "velocity": 121,
      "chip": "ym2612"
    },
    {
      "channel": 5,
      "note": 79,
      "start": 30.1293,
      "duration": 0.2263,
      "velocity": 108,
      "chip": "ym2612"
    },
    {
      "channel": 2,
      "note": 68,
      "start": 30.1297,
      "duration": 0.0131,
      "velocity": 121,
      "chip": "ym2612"
    },
    {
      "channel": 3,
      "note": 70,
      "start": 30.1299,
      "duration": 0.0132,
      "velocity": 121,
      "chip": "ym2612"
    },
    {
      "channel": 2,
      "note": 67,
      "start": 30.1428,
      "duration": 0.0167,
      "velocity": 121,
      "chip": "ym2612"
    },
    {
      "channel": 3,
      "note": 70,
      "start": 30.143,
      "duration": 0.0167,
      "velocity": 121,
      "chip": "ym2612"
    },
    {
      "channel": 2,
      "note": 67,
      "start": 30.1594,
      "duration": 0.0167,
      "velocity": 121,
      "chip": "ym2612"
    },
    {
      "channel": 3,
      "note": 69,
      "start": 30.1597,
      "duration": 0.0167,
      "velocity": 121,
      "chip": "ym2612"
    },
    {
      "channel": 2,
      "note": 66,
      "start": 30.1761,
      "duration": 0.0167,
      "velocity": 121,
      "chip": "ym2612"
    },
    {
      "channel": 3,
      "note": 68,
      "start": 30.1764,
      "duration": 0.0167,
      "velocity": 121,
      "chip": "ym2612"
    },
    {
      "channel": 2,
      "note": 65,
      "start": 30.1928,
      "duration": 0.0192,
      "velocity": 95,
      "chip": "ym2612"
    },
    {
      "channel": 3,
      "note": 67,
      "start": 30.193,
      "duration": 0.0208,
      "velocity": 107,
      "chip": "ym2612"
    },
    {
      "channel": 0,
      "note": 75,
      "start": 30.2101,
      "duration": 2.5179,
      "velocity": 127,
      "chip": "ym2612"
    },
    {
      "channel": 2,
      "note": 84,
      "start": 30.2121,
      "duration": 0.0711,
      "velocity": 95,
      "chip": "ym2612"
    },
    {
      "channel": 3,
      "note": 48,
      "start": 30.214,
      "duration": 0.2248,
      "velocity": 107,
      "chip": "ym2612"
    },
    {
      "channel": 4,
      "note": 67,
      "start": 30.2145,
      "duration": 2.5151,
      "velocity": 127,
      "chip": "ym2612"
    },
    {
      "channel": 1,
      "note": 26,
      "start": 30.2829,
      "duration": 0.1554,
      "velocity": 91,
      "chip": "ym2612"
    },
    {
      "channel": 2,
      "note": 86,
      "start": 30.2834,
      "duration": 0.0716,
      "velocity": 95,
      "chip": "ym2612"
    },
    {
      "channel": 2,
      "note": 87,
      "start": 30.3551,
      "duration": 1.7467,
      "velocity": 95,
      "chip": "ym2612"
    },
    {
      "channel": 5,
      "note": 79,
      "start": 30.3557,
      "duration": 0.0836,
      "velocity": 108,
      "chip": "ym2612"
    },
    {
      "channel": 1,
      "note": 26,
      "start": 30.4384,
      "duration": 0.0831,
      "velocity": 91,
      "chip": "ym2612"
    },
    {
      "channel": 3,
      "note": 60,
      "start": 30.439,
      "duration": 0.2324,
      "velocity": 107,
      "chip": "ym2612"
    },
    {
      "channel": 5,
      "note": 79,
      "start": 30.4395,
      "duration": 0.2338,
      "velocity": 127,
      "chip": "ym2612"
    },
    {
      "channel": 1,
      "note": 38,
      "start": 30.5217,
      "duration": 0.149,
      "velocity": 91,
      "chip": "ym2612"
    },
    {
      "channel": 1,
      "note": 26,
      "start": 30.6709,
      "duration": 0.1664,
      "velocity": 91,
      "chip": "ym2612"
    },
    {
      "channel": 3,
      "note": 46,
      "start": 30.6715,
      "duration": 0.1664,
      "velocity": 107,
      "chip": "ym2612"
    },
    {
      "channel": 5,
      "note": 31,
      "start": 30.6735,
      "duration": 0.0822,
      "velocity": 108,
      "chip": "ym2612"
    },
    {
      "channel": 5,
      "note": 79,
      "start": 30.7558,
      "duration": 0.2308,
      "velocity": 108,
      "chip": "ym2612"
    },
    {
      "channel": 1,
      "note": 26,
      "start": 30.8376,
      "duration": 0.0741,
      "velocity": 91,
      "chip": "ym2612"
    },
    {
      "channel": 3,
      "note": 48,
      "start": 30.8381,
      "duration": 0.2321,
      "velocity": 107,
      "chip": "ym2612"
    },
    {
      "channel": 1,
      "note": 26,
      "start": 30.9118,
      "duration": 0.1578,
      "velocity": 91,
      "chip": "ym2612"
    },
    {
      "channel": 5,
      "note": 79,
      "start": 30.9868,
      "duration": 0.084,
      "velocity": 108,
      "chip": "ym2612"
    },
    {
      "channel": 1,
      "note": 26,
      "start": 31.0698,
      "duration": 0.0831,
      "velocity": 91,
      "chip": "ym2612"
    },
    {
      "channel": 3,
      "note": 60,
      "start": 31.0704,
      "duration": 0.234,
      "velocity": 107,
      "chip": "ym2612"
    },
    {
      "channel": 5,
      "note": 79,
      "start": 31.071,
      "duration": 0.2354,
      "velocity": 127,
      "chip": "ym2612"
    },
    {
      "channel": 1,
      "note": 38,
      "start": 31.1532,
      "duration": 0.1507,
      "velocity": 91,
      "chip": "ym2612"
    },
    {
      "channel": 1,
      "note": 26,
      "start": 31.304,
      "duration": 0.2409,
      "velocity": 91,
      "chip": "ym2612"
    },
    {
      "channel": 3,
      "note": 46,
      "start": 31.3046,
      "duration": 0.1659,
      "velocity": 107,
      "chip": "ym2612"
    },
    {
      "channel": 5,
      "note": 31,
      "start": 31.3066,
      "duration": 0.0822,
      "velocity": 108,
      "chip": "ym2612"
    },
    {
      "channel": 5,
      "note": 79,
      "start": 31.3889,
      "duration": 0.2306,
      "velocity": 108,
      "chip": "ym2612"
    },
    {
      "channel": 3,
      "note": 48,
      "start": 31.4707,
      "duration": 0.2324,
      "velocity": 107,
      "chip": "ym2612"
    },
    {
      "channel": 1,
      "note": 26,
      "start": 31.545,
      "duration": 0.1575,
      "velocity": 91,
      "chip": "ym2612"
    },
    {
      "channel": 5,
      "note": 79,
      "start": 31.6197,
      "duration": 0.084,
      "velocity": 108,
      "chip": "ym2612"
    },
    {
      "channel": 1,
      "note": 26,
      "start": 31.7027,
      "duration": 0.0831,
      "velocity": 91,
      "chip": "ym2612"
    },
    {
      "channel": 3,
      "note": 60,
      "start": 31.7033,
      "duration": 0.232,
      "velocity": 107,
      "chip": "ym2612"
    },
    {
      "channel": 5,
      "note": 79,
      "start": 31.7038,
      "duration": 0.2334,
      "velocity": 127,
      "chip": "ym2612"
    },
    {
      "channel": 1,
      "note": 38,
      "start": 31.786,
      "duration": 0.1486,
      "velocity": 91,
      "chip": "ym2612"
    },
    {
      "channel": 1,
      "note": 26,
      "start": 31.9349,
      "duration": 0.1664,
      "velocity": 91,
      "chip": "ym2612"
    },
    {
      "channel": 3,
      "note": 46,
      "start": 31.9354,
      "duration": 0.1668,
      "velocity": 107,
      "chip": "ym2612"
    },
    {
      "channel": 5,
      "note": 31,
      "start": 31.9374,
      "duration": 0.0822,
      "velocity": 108,
      "chip": "ym2612"
    },
    {
      "channel": 5,
      "note": 79,
      "start": 32.0197,
      "duration": 0.2288,
      "velocity": 108,
      "chip": "ym2612"
    },
    {
      "channel": 1,
      "note": 26,
      "start": 32.1015,
      "duration": 0.0741,
      "velocity": 91,
      "chip": "ym2612"
    },
    {
      "channel": 2,
      "note": 86,
      "start": 32.102,
      "duration": 0.23,
      "velocity": 95,
      "chip": "ym2612"
    },
    {
      "channel": 3,
      "note": 48,
      "start": 32.1025,
      "duration": 0.2301,
      "velocity": 107,
      "chip": "ym2612"
    },
    {
      "channel": 1,
      "note": 26,
      "start": 32.1757,
      "duration": 0.1558,
      "velocity": 91,
      "chip": "ym2612"
    },
    {
      "channel": 5,
      "note": 79,
      "start": 32.2486,
      "duration": 0.0859,
      "velocity": 127,
      "chip": "ym2612"
    },
    {
      "channel": 1,
      "note": 26,
      "start": 32.3317,
      "duration": 0.0832,
      "velocity": 91,
      "chip": "ym2612"
    },
    {
      "channel": 2,
      "note": 82,
      "start": 32.3322,
      "duration": 0.2298,
      "velocity": 95,
      "chip": "ym2612"
    },
    {
      "channel": 3,
      "note": 60,
      "start": 32.3327,
      "duration": 0.2298,
      "velocity": 107,
      "chip": "ym2612"
    },
    {
      "channel": 5,
      "note": 31,
      "start": 32.3347,
      "duration": 0.2284,
      "velocity": 127,
      "chip": "ym2612"
    },
    {
      "channel": 1,
      "note": 38,
      "start": 32.415,
      "duration": 0.1464,
      "velocity": 91,
      "chip": "ym2612"
    },
    {
      "channel": 1,
      "note": 26,
      "start": 32.5616,
      "duration": 0.2412,
      "velocity": 91,
      "chip": "ym2612"
    },
    {
      "channel": 2,
      "note": 75,
      "start": 32.5621,
      "duration": 0.1665,
      "velocity": 95,
      "chip": "ym2612"
    },
    {
      "channel": 3,
      "note": 46,
      "start": 32.5626,
      "duration": 0.1666,
      "velocity": 107,
      "chip": "ym2612"
    },
    {
      "channel": 5,
      "note": 31,
      "start": 32.5632,
      "duration": 0.0831,
      "velocity": 108,
      "chip": "ym2612"
    },
    {
      "channel": 5,
      "note": 79,
      "start": 32.6466,
      "duration": 0.231,
      "velocity": 108,
      "chip": "ym2612"
    },
    {
      "channel": 0,
      "note": 60,
      "start": 32.7283,
      "duration": 2.5266,
      "velocity": 127,
      "chip": "ym2612"
    },
    {
      "channel": 2,
      "note": 84,
      "start": 32.7288,
      "duration": 2.5267,
      "velocity": 95,
      "chip": "ym2612"
    },
    {
      "channel": 3,
      "note": 44,
      "start": 32.7293,
      "duration": 0.2319,
      "velocity": 107,
      "chip": "ym2612"
    },
    {
      "channel": 4,
      "note": 75,
      "start": 32.7298,
      "duration": 2.5267,
      "velocity": 127,
      "chip": "ym2612"
    },
    {
      "channel": 1,
      "note": 26,
      "start": 32.8029,
      "duration": 0.1577,
      "velocity": 91,
      "chip": "ym2612"
    },
    {
      "channel": 5,
      "note": 79,
      "start": 32.8777,
      "duration": 0.084,
      "velocity": 108,
      "chip": "ym2612"
    },
    {
      "channel": 1,
      "note": 26,
      "start": 32.9608,
      "duration": 0.0831,
      "velocity": 91,
      "chip": "ym2612"
    },
    {
      "channel": 3,
      "note": 56,
      "start": 32.9614,
      "duration": 0.2324,
      "velocity": 107,
      "chip": "ym2612"
    },
    {
      "channel": 5,
      "note": 79,
      "start": 32.9619,
      "duration": 0.2338,
      "velocity": 127,
      "chip": "ym2612"
    },
    {
      "channel": 1,
      "note": 38,
      "start": 33.0441,
      "duration": 0.149,
      "velocity": 91,
      "chip": "ym2612"
    },
    {
      "channel": 1,
      "note": 26,
      "start": 33.1933,
      "duration": 0.1664,
      "velocity": 91,
      "chip": "ym2612"
    },
    {
      "channel": 3,
      "note": 54,
      "start": 33.1939,
      "duration": 0.1664,
      "velocity": 107,
      "chip": "ym2612"
    },
    {
      "channel": 5,
      "note": 31,
      "start": 33.1959,
      "duration": 0.0822,
      "velocity": 108,
      "chip": "ym2612"
    },
    {
      "channel": 5,
      "note": 79,
      "start": 33.2782,
      "duration": 0.2308,
      "velocity": 108,
      "chip": "ym2612"
    },
    {
      "channel": 1,
      "note": 26,
      "start": 33.36,
      "duration": 0.0741,
      "velocity": 91,
      "chip": "ym2612"
    },
    {
      "channel": 3,
      "note": 44,
      "start": 33.3605,
      "duration": 0.2321,
      "velocity": 107,
      "chip": "ym2612"
    },
    {
      "channel": 1,
      "note": 26,
      "start": 33.4342,
      "duration": 0.1578,
      "velocity": 91,
      "chip": "ym2612"
    },
    {
      "channel": 5,
      "note": 79,
      "start": 33.5092,
      "duration": 0.084,
      "velocity": 108,
      "chip": "ym2612"
    },
    {
      "channel": 1,
      "note": 26,
      "start": 33.5922,
      "duration": 0.0831,
      "velocity": 91,
      "chip": "ym2612"
    },
    {
      "channel": 3,
      "note": 56,
      "start": 33.5928,
      "duration": 0.234,
      "velocity": 107,
      "chip": "ym2612"
    },
    {
      "channel": 5,
      "note": 79,
      "start": 33.5934,
      "duration": 0.2354,
      "velocity": 127,
      "chip": "ym2612"
    },
    {
      "channel": 1,
      "note": 38,
      "start": 33.6756,
      "duration": 0.1507,
      "velocity": 91,
      "chip": "ym2612"
    },
    {
      "channel": 1,
      "note": 26,
      "start": 33.8264,
      "duration": 0.2409,
      "velocity": 91,
      "chip": "ym2612"
    },
    {
      "channel": 3,
      "note": 54,
      "start": 33.827,
      "duration": 0.1659,
      "velocity": 107,
      "chip": "ym2612"
    },
    {
      "channel": 5,
      "note": 31,
      "start": 33.829,
      "duration": 0.0822,
      "velocity": 108,
      "chip": "ym2612"
    },
    {
      "channel": 5,
      "note": 79,
      "start": 33.9113,
      "duration": 0.2306,
      "velocity": 108,
      "chip": "ym2612"
    },
    {
      "channel": 3,
      "note": 44,
      "start": 33.9931,
      "duration": 0.2324,
      "velocity": 107,
      "chip": "ym2612"
    },
    {
      "channel": 1,
      "note": 26,
      "start": 34.0674,
      "duration": 0.1575,
      "velocity": 91,
      "chip": "ym2612"
    },
    {
      "channel": 5,
      "note": 79,
      "start": 34.1421,
      "duration": 0.084,
      "velocity": 108,
      "chip": "ym2612"
    },
    {
      "channel": 1,
      "note": 26,
      "start": 34.2251,
      "duration": 0.0831,
      "velocity": 91,
      "chip": "ym2612"
    },
    {
      "channel": 3,
      "note": 56,
      "start": 34.2257,
      "duration": 0.232,
      "velocity": 107,
      "chip": "ym2612"
    },
    {
      "channel": 5,
      "note": 79,
      "start": 34.2262,
      "duration": 0.2334,
      "velocity": 127,
      "chip": "ym2612"
    },
    {
      "channel": 1,
      "note": 38,
      "start": 34.3084,
      "duration": 0.1486,
      "velocity": 91,
      "chip": "ym2612"
    },
    {
      "channel": 1,
      "note": 26,
      "start": 34.4573,
      "duration": 0.1664,
      "velocity": 91,
      "chip": "ym2612"
    },
    {
      "channel": 3,
      "note": 54,
      "start": 34.4578,
      "duration": 0.1664,
      "velocity": 107,
      "chip": "ym2612"
    },
    {
      "channel": 5,
      "note": 31,
      "start": 34.4598,
      "duration": 0.0822,
      "velocity": 108,
      "chip": "ym2612"
    },
    {
      "channel": 5,
      "note": 79,
      "start": 34.5421,
      "duration": 0.2288,
      "velocity": 108,
      "chip": "ym2612"
    },
    {
      "channel": 1,
      "note": 26,
      "start": 34.6239,
      "duration": 0.0743,
      "velocity": 91,
      "chip": "ym2612"
    },
    {
      "channel": 3,
      "note": 44,
      "start": 34.6244,
      "duration": 0.23,
      "velocity": 107,
      "chip": "ym2612"
    },
    {
      "channel": 1,
      "note": 26,
      "start": 34.6983,
      "duration": 0.1556,
      "velocity": 91,
      "chip": "ym2612"
    },
    {
      "channel": 5,
      "note": 79,
      "start": 34.771,
      "duration": 0.0854,
      "velocity": 127,
      "chip": "ym2612"
    },
    {
      "channel": 1,
      "note": 26,
      "start": 34.8541,
      "duration": 0.0831,
      "velocity": 91,
      "chip": "ym2612"
    },
    {
      "channel": 3,
      "note": 56,
      "start": 34.8547,
      "duration": 0.234,
      "velocity": 107,
      "chip": "ym2612"
    },
    {
      "channel": 5,
      "note": 31,
      "start": 34.8567,
      "duration": 0.2327,
      "velocity": 127,
      "chip": "ym2612"
    },
    {
      "channel": 1,
      "note": 38,
      "start": 34.9375,
      "duration": 0.1507,
      "velocity": 91,
      "chip": "ym2612"
    },
    {
      "channel": 1,
      "note": 26,
      "start": 35.0883,
      "duration": 0.2411,
      "velocity": 91,
      "chip": "ym2612"
    },
    {
      "channel": 3,
      "note": 54,
      "start": 35.0889,
      "duration": 0.1671,
      "velocity": 107,
      "chip": "ym2612"
    },
    {
      "channel": 5,
      "note": 31,
      "start": 35.0895,
      "duration": 0.0836,
      "velocity": 108,
      "chip": "ym2612"
    },
    {
      "channel": 5,
      "note": 79,
      "start": 35.1732,
      "duration": 0.2294,
      "velocity": 108,
      "chip": "ym2612"
    },
    {
      "channel": 0,
      "note": 75,
      "start": 35.255,
      "duration": 2.5095,
      "velocity": 127,
      "chip": "ym2612"
    },
    {
      "channel": 2,
      "note": 84,
      "start": 35.2556,
      "duration": 0.0743,
      "velocity": 95,
      "chip": "ym2612"
    },
    {
      "channel": 3,
      "note": 48,
      "start": 35.2562,
      "duration": 0.2297,
      "velocity": 107,
      "chip": "ym2612"
    },
    {
      "channel": 4,
      "note": 67,
      "start": 35.2568,
      "duration": 2.5093,
      "velocity": 127,
      "chip": "ym2612"
    },
    {
      "channel": 1,
      "note": 26,
      "start": 35.3296,
      "duration": 0.1558,
      "velocity": 91,
      "chip": "ym2612"
    },
    {
      "channel": 2,
      "note": 86,
      "start": 35.3301,
      "duration": 0.0719,
      "velocity": 95,
      "chip": "ym2612"
    },
    {
      "channel": 2,
      "note": 87,
      "start": 35.4022,
      "duration": 1.7341,
      "velocity": 95,
      "chip": "ym2612"
    },
    {
      "channel": 5,
      "note": 79,
      "start": 35.4029,
      "duration": 0.0837,
      "velocity": 108,
      "chip": "ym2612"
    },
    {
      "channel": 1,
      "note": 26,
      "start": 35.4855,
      "duration": 0.0831,
      "velocity": 91,
      "chip": "ym2612"
    },
    {
      "channel": 3,
      "note": 60,
      "start": 35.4861,
      "duration": 0.2298,
      "velocity": 107,
      "chip": "ym2612"
    },
    {
      "channel": 5,
      "note": 79,
      "start": 35.4866,
      "duration": 0.2312,
      "velocity": 127,
      "chip": "ym2612"
    },
    {
      "channel": 1,
      "note": 38,
      "start": 35.5688,
      "duration": 0.1465,
      "velocity": 91,
      "chip": "ym2612"
    },
    {
      "channel": 1,
      "note": 26,
      "start": 35.7156,
      "duration": 0.1665,
      "velocity": 91,
      "chip": "ym2612"
    },
    {
      "channel": 3,
      "note": 46,
      "start": 35.7161,
      "duration": 0.1665,
      "velocity": 107,
      "chip": "ym2612"
    },
    {
      "channel": 5,
      "note": 31,
      "start": 35.7181,
      "duration": 0.0822,
      "velocity": 108,
      "chip": "ym2612"
    },
    {
      "channel": 5,
      "note": 79,
      "start": 35.8005,
      "duration": 0.2289,
      "velocity": 108,
      "chip": "ym2612"
    },
    {
      "channel": 1,
      "note": 26,
      "start": 35.8822,
      "duration": 0.0741,
      "velocity": 91,
      "chip": "ym2612"
    },
    {
      "channel": 3,
      "note": 48,
      "start": 35.8828,
      "duration": 0.2302,
      "velocity": 107,
      "chip": "ym2612"
    },
    {
      "channel": 1,
      "note": 26,
      "start": 35.9565,
      "duration": 0.1559,
      "velocity": 91,
      "chip": "ym2612"
    },
    {
      "channel": 5,
      "note": 79,
      "start": 36.0295,
      "duration": 0.084,
      "velocity": 108,
      "chip": "ym2612"
    },
    {
      "channel": 1,
      "note": 26,
      "start": 36.1126,
      "duration": 0.0831,
      "velocity": 91,
      "chip": "ym2612"
    },
    {
      "channel": 3,
      "note": 60,
      "start": 36.1132,
      "duration": 0.232,
      "velocity": 107,
      "chip": "ym2612"
    },
    {
      "channel": 5,
      "note": 79,
      "start": 36.1137,
      "duration": 0.2334,
      "velocity": 127,
      "chip": "ym2612"
    },
    {
      "channel": 1,
      "note": 38,
      "start": 36.1959,
      "duration": 0.1486,
      "velocity": 91,
      "chip": "ym2612"
    },
    {
      "channel": 1,
      "note": 26,
      "start": 36.3447,
      "duration": 0.239,
      "velocity": 91,
      "chip": "ym2612"
    },
    {
      "channel": 3,
      "note": 46,
      "start": 36.3453,
      "duration": 0.1659,
      "velocity": 107,
      "chip": "ym2612"
    },
    {
      "channel": 5,
      "note": 31,
      "start": 36.3473,
      "duration": 0.0822,
      "velocity": 108,
      "chip": "ym2612"
    },
    {
      "channel": 5,
      "note": 79,
      "start": 36.4296,
      "duration": 0.2286,
      "velocity": 108,
      "chip": "ym2612"
    },
    {
      "channel": 3,
      "note": 48,
      "start": 36.5114,
      "duration": 0.2304,
      "velocity": 107,
      "chip": "ym2612"
    },
    {
      "channel": 1,
      "note": 26,
      "start": 36.5839,
      "duration": 0.1573,
      "velocity": 91,
      "chip": "ym2612"
    },
    {
      "channel": 5,
      "note": 79,
      "start": 36.6583,
      "duration": 0.084,
      "velocity": 108,
      "chip": "ym2612"
    },
    {
      "channel": 1,
      "note": 26,
      "start": 36.7414,
      "duration": 0.0831,
      "velocity": 91,
      "chip": "ym2612"
    },
    {
      "channel": 3,
      "note": 60,
      "start": 36.742,
      "duration": 0.2278,
      "velocity": 107,
      "chip": "ym2612"
    },
    {
      "channel": 5,
      "note": 79,
      "start": 36.7425,
      "duration": 0.2292,
      "velocity": 127,
      "chip": "ym2612"
    },
    {
      "channel": 1,
      "note": 38,
      "start": 36.8247,
      "duration": 0.1445,
      "velocity": 91,
      "chip": "ym2612"
    },
    {
      "channel": 1,
      "note": 26,
      "start": 36.9694,
      "duration": 0.1665,
      "velocity": 91,
      "chip": "ym2612"
    },
    {
      "channel": 3,
      "note": 46,
      "start": 36.97,
      "duration": 0.167,
      "velocity": 107,
      "chip": "ym2612"
    },
    {
      "channel": 5,
      "note": 31,
      "start": 36.9719,
      "duration": 0.0822,
      "velocity": 108,
      "chip": "ym2612"
    },
    {
      "channel": 5,
      "note": 79,
      "start": 37.0543,
      "duration": 0.2306,
      "velocity": 108,
      "chip": "ym2612"
    },
    {
      "channel": 1,
      "note": 26,
      "start": 37.1361,
      "duration": 0.0742,
      "velocity": 91,
      "chip": "ym2612"
    },
    {
      "channel": 2,
      "note": 89,
      "start": 37.1366,
      "duration": 0.232,
      "velocity": 95,
      "chip": "ym2612"
    },
    {
      "channel": 3,
      "note": 48,
      "start": 37.1371,
      "duration": 0.232,
      "velocity": 107,
      "chip": "ym2612"
    },
    {
      "channel": 1,
      "note": 26,
      "start": 37.2105,
      "duration": 0.1576,
      "velocity": 91,
      "chip": "ym2612"
    },
    {
      "channel": 5,
      "note": 79,
      "start": 37.2851,
      "duration": 0.0859,
      "velocity": 127,
      "chip": "ym2612"
    },
    {
      "channel": 1,
      "note": 26,
      "start": 37.3682,
      "duration": 0.0832,
      "velocity": 91,
      "chip": "ym2612"
    },
    {
      "channel": 2,
      "note": 86,
      "start": 37.3687,
      "duration": 0.2297,
      "velocity": 95,
      "chip": "ym2612"
    },
    {
      "channel": 3,
      "note": 60,
      "start": 37.3692,
      "duration": 0.2298,
      "velocity": 107,
      "chip": "ym2612"
    },
    {
      "channel": 5,
      "note": 31,
      "start": 37.3712,
      "duration": 0.2283,
      "velocity": 127,
      "chip": "ym2612"
    },
    {
      "channel": 1,
      "note": 38,
      "start": 37.4515,
      "duration": 0.1464,
      "velocity": 91,
      "chip": "ym2612"
    },
    {
      "channel": 1,
      "note": 26,
      "start": 37.598,
      "duration": 0.243,
      "velocity": 91,
      "chip": "ym2612"
    },
    {
      "channel": 2,
      "note": 82,
      "start": 37.5985,
      "duration": 0.1665,
      "velocity": 95,
      "chip": "ym2612"
    },
    {
      "channel": 3,
      "note": 46,
      "start": 37.599,
      "duration": 0.1666,
      "velocity": 107,
      "chip": "ym2612"
    },
    {
      "channel": 5,
      "note": 31,
      "start": 37.5997,
      "duration": 0.0831,
      "velocity": 108,
      "chip": "ym2612"
    },
    {
      "channel": 5,
      "note": 79,
      "start": 37.683,
      "duration": 0.2305,
      "velocity": 108,
      "chip": "ym2612"
    },
    {
      "channel": 0,
      "note": 60,
      "start": 37.7647,
      "duration": 2.5169,
      "velocity": 127,
      "chip": "ym2612"
    },
    {
      "channel": 2,
      "note": 94,
      "start": 37.7653,
      "duration": 0.945,
      "velocity": 95,
      "chip": "ym2612"
    },
    {
      "channel": 3,
      "note": 44,
      "start": 37.7658,
      "duration": 0.2314,
      "velocity": 107,
      "chip": "ym2612"
    },
    {
      "channel": 4,
      "note": 75,
      "start": 37.7663,
      "duration": 2.5184,
      "velocity": 127,
      "chip": "ym2612"
    },
    {
      "channel": 1,
      "note": 26,
      "start": 37.8412,
      "duration": 0.1554,
      "velocity": 91,
      "chip": "ym2612"
    },
    {
      "channel": 5,
      "note": 79,
      "start": 37.9137,
      "duration": 0.084,
      "velocity": 108,
      "chip": "ym2612"
    },
    {
      "channel": 1,
      "note": 26,
      "start": 37.9968,
      "duration": 0.0831,
      "velocity": 91,
      "chip": "ym2612"
    },
    {
      "channel": 3,
      "note": 56,
      "start": 37.9974,
      "duration": 0.2322,
      "velocity": 107,
      "chip": "ym2612"
    },
    {
      "channel": 5,
      "note": 79,
      "start": 37.998,
      "duration": 0.2336,
      "velocity": 127,
      "chip": "ym2612"
    },
    {
      "channel": 1,
      "note": 38,
      "start": 38.0802,
      "duration": 0.1488,
      "velocity": 91,
      "chip": "ym2612"
    },
    {
      "channel": 1,
      "note": 26,
      "start": 38.2292,
      "duration": 0.1664,
      "velocity": 91,
      "chip": "ym2612"
    },
    {
      "channel": 3,
      "note": 54,
      "start": 38.2298,
      "duration": 0.1664,
      "velocity": 107,
      "chip": "ym2612"
    },
    {
      "channel": 5,
      "note": 31,
      "start": 38.2317,
      "duration": 0.0821,
      "velocity": 108,
      "chip": "ym2612"
    },
    {
      "channel": 5,
      "note": 79,
      "start": 38.3141,
      "duration": 0.2289,
      "velocity": 108,
      "chip": "ym2612"
    },
    {
      "channel": 1,
      "note": 26,
      "start": 38.3958,
      "duration": 0.0741,
      "velocity": 91,
      "chip": "ym2612"
    },
    {
      "channel": 3,
      "note": 44,
      "start": 38.3964,
      "duration": 0.2302,
      "velocity": 107,
      "chip": "ym2612"
    },
    {
      "channel": 1,
      "note": 26,
      "start": 38.4701,
      "duration": 0.1559,
      "velocity": 91,
      "chip": "ym2612"
    },
    {
      "channel": 5,
      "note": 79,
      "start": 38.5431,
      "duration": 0.084,
      "velocity": 108,
      "chip": "ym2612"
    },
    {
      "channel": 1,
      "note": 26,
      "start": 38.6262,
      "duration": 0.0831,
      "velocity": 91,
      "chip": "ym2612"
    },
    {
      "channel": 3,
      "note": 56,
      "start": 38.6267,
      "duration": 0.2307,
      "velocity": 107,
      "chip": "ym2612"
    },
    {
      "channel": 5,
      "note": 79,
      "start": 38.6273,
      "duration": 0.2322,
      "velocity": 127,
      "chip": "ym2612"
    },
    {
      "channel": 1,
      "note": 38,
      "start": 38.7095,
      "duration": 0.1474,
      "velocity": 91,
      "chip": "ym2612"
    },
    {
      "channel": 2,
      "note": 94,
      "start": 38.7103,
      "duration": 0.0143,
      "velocity": 95,
      "chip": "ym2612"
    },
    {
      "channel": 2,
      "note": 94,
      "start": 38.7246,
      "duration": 0.0157,
      "velocity": 95,
      "chip": "ym2612"
    },
    {
      "channel": 2,
      "note": 94,
      "start": 38.7404,
      "duration": 0.0157,
      "velocity": 95,
      "chip": "ym2612"
    },
    {
      "channel": 2,
      "note": 94,
      "start": 38.7561,
      "duration": 0.0157,
      "velocity": 95,
      "chip": "ym2612"
    },
    {
      "channel": 2,
      "note": 93,
      "start": 38.7718,
      "duration": 0.0163,
      "velocity": 95,
      "chip": "ym2612"
    },
    {
      "channel": 2,
      "note": 93,
      "start": 38.7881,
      "duration": 0.0132,
      "velocity": 95,
      "chip": "ym2612"
    },
    {
      "channel": 2,
      "note": 93,
      "start": 38.8013,
      "duration": 0.0137,
      "velocity": 95,
      "chip": "ym2612"
    },
    {
      "channel": 2,
      "note": 93,
      "start": 38.815,
      "duration": 0.0137,
      "velocity": 95,
      "chip": "ym2612"
    },
    {
      "channel": 2,
      "note": 93,
      "start": 38.8288,
      "duration": 0.0137,
      "velocity": 95,
      "chip": "ym2612"
    },
    {
      "channel": 2,
      "note": 93,
      "start": 38.8425,
      "duration": 0.0175,
      "velocity": 95,
      "chip": "ym2612"
    },
    {
      "channel": 1,
      "note": 26,
      "start": 38.8571,
      "duration": 0.239,
      "velocity": 91,
      "chip": "ym2612"
    },
    {
      "channel": 3,
      "note": 54,
      "start": 38.8577,
      "duration": 0.1665,
      "velocity": 107,
      "chip": "ym2612"
    },
    {
      "channel": 5,
      "note": 31,
      "start": 38.8597,
      "duration": 0.0822,
      "velocity": 108,
      "chip": "ym2612"
    },
    {
      "channel": 2,
      "note": 93,
      "start": 38.86,
      "duration": 0.0132,
      "velocity": 95,
      "chip": "ym2612"
    },
    {
      "channel": 2,
      "note": 93,
      "start": 38.8732,
      "duration": 0.0167,
      "velocity": 95,
      "chip": "ym2612"
    },
    {
      "channel": 2,
      "note": 93,
      "start": 38.8899,
      "duration": 0.0167,
      "velocity": 95,
      "chip": "ym2612"
    },
    {
      "channel": 2,
      "note": 93,
      "start": 38.9065,
      "duration": 0.0167,
      "velocity": 95,
      "chip": "ym2612"
    },
    {
      "channel": 2,
      "note": 92,
      "start": 38.9232,
      "duration": 0.0192,
      "velocity": 95,
      "chip": "ym2612"
    },
    {
      "channel": 5,
      "note": 79,
      "start": 38.942,
      "duration": 0.2308,
      "velocity": 108,
      "chip": "ym2612"
    },
    {
      "channel": 2,
      "note": 92,
      "start": 38.9424,
      "duration": 0.0142,
      "velocity": 95,
      "chip": "ym2612"
    },
    {
      "channel": 2,
      "note": 92,
      "start": 38.9565,
      "duration": 0.0167,
      "velocity": 95,
      "chip": "ym2612"
    },
    {
      "channel": 2,
      "note": 92,
      "start": 38.9732,
      "duration": 0.0167,
      "velocity": 95,
      "chip": "ym2612"
    },
    {
      "channel": 2,
      "note": 92,
      "start": 38.9899,
      "duration": 0.0167,
      "velocity": 95,
      "chip": "ym2612"
    },
    {
      "channel": 2,
      "note": 92,
      "start": 39.0065,
      "duration": 0.0171,
      "velocity": 95,
      "chip": "ym2612"
    },
    {
      "channel": 2,
      "note": 91,
      "start": 39.0238,
      "duration": 1.2585,
      "velocity": 95,
      "chip": "ym2612"
    },
    {
      "channel": 3,
      "note": 44,
      "start": 39.0243,
      "duration": 0.2321,
      "velocity": 107,
      "chip": "ym2612"
    },
    {
      "channel": 1,
      "note": 26,
      "start": 39.0962,
      "duration": 0.1596,
      "velocity": 91,
      "chip": "ym2612"
    },
    {
      "channel": 5,
      "note": 79,
      "start": 39.1729,
      "duration": 0.084,
      "velocity": 108,
      "chip": "ym2612"
    },
    {
      "channel": 1,
      "note": 26,
      "start": 39.256,
      "duration": 0.0831,
      "velocity": 91,
      "chip": "ym2612"
    },
    {
      "channel": 3,
      "note": 56,
      "start": 39.2565,
      "duration": 0.2303,
      "velocity": 107,
      "chip": "ym2612"
    },
    {
      "channel": 5,
      "note": 79,
      "start": 39.2572,
      "duration": 0.2317,
      "velocity": 127,
      "chip": "ym2612"
    },
    {
      "channel": 1,
      "note": 38,
      "start": 39.3394,
      "duration": 0.1469,
      "velocity": 91,
      "chip": "ym2612"
    },
    {
      "channel": 1,
      "note": 26,
      "start": 39.4865,
      "duration": 0.1665,
      "velocity": 91,
      "chip": "ym2612"
    },
    {
      "channel": 3,
      "note": 54,
      "start": 39.4871,
      "duration": 0.1665,
      "velocity": 107,
      "chip": "ym2612"
    },
    {
      "channel": 5,
      "note": 31,
      "start": 39.489,
      "duration": 0.0822,
      "velocity": 108,
      "chip": "ym2612"
    },
    {
      "channel": 5,
      "note": 79,
      "start": 39.5714,
      "duration": 0.2288,
      "velocity": 108,
      "chip": "ym2612"
    },
    {
      "channel": 1,
      "note": 26,
      "start": 39.6532,
      "duration": 0.0724,
      "velocity": 91,
      "chip": "ym2612"
    },
    {
      "channel": 3,
      "note": 44,
      "start": 39.6537,
      "duration": 0.2302,
      "velocity": 107,
      "chip": "ym2612"
    },
    {
      "channel": 1,
      "note": 26,
      "start": 39.7257,
      "duration": 0.1576,
      "velocity": 91,
      "chip": "ym2612"
    },
    {
      "channel": 5,
      "note": 79,
      "start": 39.8004,
      "duration": 0.0854,
      "velocity": 127,
      "chip": "ym2612"
    },
    {
      "channel": 1,
      "note": 26,
      "start": 39.8835,
      "duration": 0.0831,
      "velocity": 91,
      "chip": "ym2612"
    },
    {
      "channel": 3,
      "note": 56,
      "start": 39.884,
      "duration": 0.23,
      "velocity": 107,
      "chip": "ym2612"
    },
    {
      "channel": 5,
      "note": 31,
      "start": 39.886,
      "duration": 0.2287,
      "velocity": 127,
      "chip": "ym2612"
    },
    {
      "channel": 1,
      "note": 38,
      "start": 39.9668,
      "duration": 0.1467,
      "velocity": 91,
      "chip": "ym2612"
    },
    {
      "channel": 1,
      "note": 26,
      "start": 40.1137,
      "duration": 0.2421,
      "velocity": 91,
      "chip": "ym2612"
    },
    {
      "channel": 3,
      "note": 54,
      "start": 40.1143,
      "duration": 0.1685,
      "velocity": 107,
      "chip": "ym2612"
    },
    {
      "channel": 5,
      "note": 31,
      "start": 40.1149,
      "duration": 0.0836,
      "velocity": 108,
      "chip": "ym2612"
    },
    {
      "channel": 5,
      "note": 79,
      "start": 40.1987,
      "duration": 0.2324,
      "velocity": 108,
      "chip": "ym2612"
    },
    {
      "channel": 0,
      "note": 77,
      "start": 40.2818,
      "duration": 2.5155,
      "velocity": 127,
      "chip": "ym2612"
    },
    {
      "channel": 2,
      "note": 89,
      "start": 40.2824,
      "duration": 0.0739,
      "velocity": 95,
      "chip": "ym2612"
    },
    {
      "channel": 3,
      "note": 46,
      "start": 40.283,
      "duration": 0.2312,
      "velocity": 107,
      "chip": "ym2612"
    },
    {
      "channel": 4,
      "note": 74,
      "start": 40.2849,
      "duration": 2.514,
      "velocity": 127,
      "chip": "ym2612"
    },
    {
      "channel": 1,
      "note": 26,
      "start": 40.356,
      "duration": 0.1577,
      "velocity": 91,
      "chip": "ym2612"
    },
    {
      "channel": 2,
      "note": 86,
      "start": 40.3565,
      "duration": 0.074,
      "velocity": 95,
      "chip": "ym2612"
    },
    {
      "channel": 2,
      "note": 82,
      "start": 40.4307,
      "duration": 1.4271,
      "velocity": 95,
      "chip": "ym2612"
    },
    {
      "channel": 5,
      "note": 79,
      "start": 40.4313,
      "duration": 0.0836,
      "velocity": 108,
      "chip": "ym2612"
    },
    {
      "channel": 1,
      "note": 26,
      "start": 40.5139,
      "duration": 0.0831,
      "velocity": 91,
      "chip": "ym2612"
    },
    {
      "channel": 3,
      "note": 58,
      "start": 40.5144,
      "duration": 0.234,
      "velocity": 107,
      "chip": "ym2612"
    },
    {
      "channel": 5,
      "note": 79,
      "start": 40.515,
      "duration": 0.2354,
      "velocity": 127,
      "chip": "ym2612"
    },
    {
      "channel": 1,
      "note": 38,
      "start": 40.5972,
      "duration": 0.1507,
      "velocity": 91,
      "chip": "ym2612"
    },
    {
      "channel": 1,
      "note": 26,
      "start": 40.748,
      "duration": 0.1664,
      "velocity": 91,
      "chip": "ym2612"
    },
    {
      "channel": 3,
      "note": 56,
      "start": 40.7486,
      "duration": 0.1664,
      "velocity": 107,
      "chip": "ym2612"
    },
    {
      "channel": 5,
      "note": 31,
      "start": 40.7506,
      "duration": 0.0822,
      "velocity": 108,
      "chip": "ym2612"
    },
    {
      "channel": 5,
      "note": 79,
      "start": 40.8329,
      "duration": 0.2288,
      "velocity": 108,
      "chip": "ym2612"
    },
    {
      "channel": 1,
      "note": 26,
      "start": 40.9147,
      "duration": 0.0741,
      "velocity": 91,
      "chip": "ym2612"
    },
    {
      "channel": 3,
      "note": 46,
      "start": 40.9152,
      "duration": 0.2301,
      "velocity": 107,
      "chip": "ym2612"
    },
    {
      "channel": 1,
      "note": 26,
      "start": 40.9889,
      "duration": 0.1558,
      "velocity": 91,
      "chip": "ym2612"
    },
    {
      "channel": 5,
      "note": 79,
      "start": 41.0619,
      "duration": 0.084,
      "velocity": 108,
      "chip": "ym2612"
    },
    {
      "channel": 1,
      "note": 26,
      "start": 41.1449,
      "duration": 0.0831,
      "velocity": 91,
      "chip": "ym2612"
    },
    {
      "channel": 3,
      "note": 58,
      "start": 41.1455,
      "duration": 0.2303,
      "velocity": 107,
      "chip": "ym2612"
    },
    {
      "channel": 5,
      "note": 79,
      "start": 41.1461,
      "duration": 0.2317,
      "velocity": 127,
      "chip": "ym2612"
    },
    {
      "channel": 1,
      "note": 38,
      "start": 41.2283,
      "duration": 0.1469,
      "velocity": 91,
      "chip": "ym2612"
    },
    {
      "channel": 1,
      "note": 26,
      "start": 41.3754,
      "duration": 0.2428,
      "velocity": 91,
      "chip": "ym2612"
    },
    {
      "channel": 3,
      "note": 56,
      "start": 41.376,
      "duration": 0.166,
      "velocity": 107,
      "chip": "ym2612"
    },
    {
      "channel": 5,
      "note": 31,
      "start": 41.378,
      "duration": 0.0822,
      "velocity": 108,
      "chip": "ym2612"
    },
    {
      "channel": 5,
      "note": 79,
      "start": 41.4603,
      "duration": 0.2305,
      "velocity": 108,
      "chip": "ym2612"
    },
    {
      "channel": 3,
      "note": 46,
      "start": 41.5421,
      "duration": 0.2323,
      "velocity": 107,
      "chip": "ym2612"
    },
    {
      "channel": 1,
      "note": 26,
      "start": 41.6184,
      "duration": 0.1554,
      "velocity": 91,
      "chip": "ym2612"
    },
    {
      "channel": 5,
      "note": 79,
      "start": 41.691,
      "duration": 0.084,
      "velocity": 108,
      "chip": "ym2612"
    },
    {
      "channel": 1,
      "note": 26,
      "start": 41.7741,
      "duration": 0.0832,
      "velocity": 91,
      "chip": "ym2612"
    },
    {
      "channel": 3,
      "note": 58,
      "start": 41.7746,
      "duration": 0.2297,
      "velocity": 107,
      "chip": "ym2612"
    },
    {
      "channel": 5,
      "note": 79,
      "start": 41.7752,
      "duration": 0.2311,
      "velocity": 127,
      "chip": "ym2612"
    },
    {
      "channel": 1,
      "note": 38,
      "start": 41.8574,
      "duration": 0.1463,
      "velocity": 91,
      "chip": "ym2612"
    },
    {
      "channel": 2,
      "note": 87,
      "start": 41.8579,
      "duration": 0.313,
      "velocity": 95,
      "chip": "ym2612"
    },
    {
      "channel": 1,
      "note": 26,
      "start": 42.0039,
      "duration": 0.1665,
      "velocity": 91,
      "chip": "ym2612"
    },
    {
      "channel": 3,
      "note": 56,
      "start": 42.0044,
      "duration": 0.1669,
      "velocity": 107,
      "chip": "ym2612"
    },
    {
      "channel": 5,
      "note": 31,
      "start": 42.0064,
      "duration": 0.0822,
      "velocity": 108,
      "chip": "ym2612"
    },
    {
      "channel": 5,
      "note": 79,
      "start": 42.0888,
      "duration": 0.2288,
      "velocity": 108,
      "chip": "ym2612"
    },
    {
      "channel": 1,
      "note": 26,
      "start": 42.1705,
      "duration": 0.0741,
      "velocity": 91,
      "chip": "ym2612"
    },
    {
      "channel": 2,
      "note": 86,
      "start": 42.171,
      "duration": 0.23,
      "velocity": 95,
      "chip": "ym2612"
    },
    {
      "channel": 3,
      "note": 46,
      "start": 42.1715,
      "duration": 0.2301,
      "velocity": 107,
      "chip": "ym2612"
    },
    {
      "channel": 1,
      "note": 26,
      "start": 42.2448,
      "duration": 0.1558,
      "velocity": 91,
      "chip": "ym2612"
    },
    {
      "channel": 5,
      "note": 79,
      "start": 42.3177,
      "duration": 0.0859,
      "velocity": 127,
      "chip": "ym2612"
    },
    {
      "channel": 1,
      "note": 26,
      "start": 42.4008,
      "duration": 0.0832,
      "velocity": 91,
      "chip": "ym2612"
    },
    {
      "channel": 2,
      "note": 84,
      "start": 42.4013,
      "duration": 0.2299,
      "velocity": 95,
      "chip": "ym2612"
    },
    {
      "channel": 3,
      "note": 58,
      "start": 42.4018,
      "duration": 0.23,
      "velocity": 107,
      "chip": "ym2612"
    },
    {
      "channel": 5,
      "note": 31,
      "start": 42.4037,
      "duration": 0.2285,
      "velocity": 127,
      "chip": "ym2612"
    },
    {
      "channel": 1,
      "note": 38,
      "start": 42.4841,
      "duration": 0.1466,
      "velocity": 91,
      "chip": "ym2612"
    },
    {
      "channel": 1,
      "note": 26,
      "start": 42.6308,
      "duration": 0.2412,
      "velocity": 91,
      "chip": "ym2612"
    },
    {
      "channel": 2,
      "note": 82,
      "start": 42.6313,
      "duration": 0.1665,
      "velocity": 95,
      "chip": "ym2612"
    },
    {
      "channel": 3,
      "note": 56,
      "start": 42.6318,
      "duration": 0.1666,
      "velocity": 107,
      "chip": "ym2612"
    },
    {
      "channel": 5,
      "note": 31,
      "start": 42.6325,
      "duration": 0.0831,
      "velocity": 108,
      "chip": "ym2612"
    },
    {
      "channel": 5,
      "note": 79,
      "start": 42.7158,
      "duration": 0.229,
      "velocity": 108,
      "chip": "ym2612"
    },
    {
      "channel": 0,
      "note": 72,
      "start": 42.7975,
      "duration": 2.5205,
      "velocity": 127,
      "chip": "ym2612"
    },
    {
      "channel": 2,
      "note": 80,
      "start": 42.798,
      "duration": 2.3525,
      "velocity": 95,
      "chip": "ym2612"
    },
    {
      "channel": 3,
      "note": 44,
      "start": 42.7985,
      "duration": 0.2299,
      "velocity": 107,
      "chip": "ym2612"
    },
    {
      "channel": 4,
      "note": 75,
      "start": 42.7991,
      "duration": 2.522,
      "velocity": 127,
      "chip": "ym2612"
    },
    {
      "channel": 1,
      "note": 26,
      "start": 42.8722,
      "duration": 0.1556,
      "velocity": 91,
      "chip": "ym2612"
    },
    {
      "channel": 5,
      "note": 79,
      "start": 42.945,
      "duration": 0.084,
      "velocity": 108,
      "chip": "ym2612"
    },
    {
      "channel": 1,
      "note": 26,
      "start": 43.0281,
      "duration": 0.0831,
      "velocity": 91,
      "chip": "ym2612"
    },
    {
      "channel": 3,
      "note": 56,
      "start": 43.0286,
      "duration": 0.2303,
      "velocity": 107,
      "chip": "ym2612"
    },
    {
      "channel": 5,
      "note": 79,
      "start": 43.0292,
      "duration": 0.2317,
      "velocity": 127,
      "chip": "ym2612"
    },
    {
      "channel": 1,
      "note": 38,
      "start": 43.1114,
      "duration": 0.1469,
      "velocity": 91,
      "chip": "ym2612"
    },
    {
      "channel": 1,
      "note": 26,
      "start": 43.2585,
      "duration": 0.1665,
      "velocity": 91,
      "chip": "ym2612"
    },
    {
      "channel": 3,
      "note": 54,
      "start": 43.2591,
      "duration": 0.1665,
      "velocity": 107,
      "chip": "ym2612"
    },
    {
      "channel": 5,
      "note": 31,
      "start": 43.2611,
      "duration": 0.0822,
      "velocity": 108,
      "chip": "ym2612"
    },
    {
      "channel": 5,
      "note": 79,
      "start": 43.3435,
      "duration": 0.2288,
      "velocity": 108,
      "chip": "ym2612"
    },
    {
      "channel": 1,
      "note": 26,
      "start": 43.4252,
      "duration": 0.0724,
      "velocity": 91,
      "chip": "ym2612"
    },
    {
      "channel": 3,
      "note": 44,
      "start": 43.4257,
      "duration": 0.2302,
      "velocity": 107,
      "chip": "ym2612"
    },
    {
      "channel": 1,
      "note": 26,
      "start": 43.4977,
      "duration": 0.1576,
      "velocity": 91,
      "chip": "ym2612"
    },
    {
      "channel": 5,
      "note": 79,
      "start": 43.5724,
      "duration": 0.084,
      "velocity": 108,
      "chip": "ym2612"
    },
    {
      "channel": 1,
      "note": 26,
      "start": 43.6555,
      "duration": 0.0831,
      "velocity": 91,
      "chip": "ym2612"
    },
    {
      "channel": 3,
      "note": 56,
      "start": 43.6561,
      "duration": 0.2342,
      "velocity": 107,
      "chip": "ym2612"
    },
    {
      "channel": 5,
      "note": 79,
      "start": 43.6566,
      "duration": 0.2356,
      "velocity": 127,
      "chip": "ym2612"
    },
    {
      "channel": 1,
      "note": 38,
      "start": 43.7388,
      "duration": 0.1508,
      "velocity": 91,
      "chip": "ym2612"
    },
    {
      "channel": 1,
      "note": 26,
      "start": 43.8899,
      "duration": 0.2406,
      "velocity": 91,
      "chip": "ym2612"
    },
    {
      "channel": 3,
      "note": 54,
      "start": 43.8905,
      "duration": 0.1659,
      "velocity": 107,
      "chip": "ym2612"
    },
    {
      "channel": 5,
      "note": 31,
      "start": 43.8924,
      "duration": 0.0822,
      "velocity": 108,
      "chip": "ym2612"
    },
    {
      "channel": 5,
      "note": 79,
      "start": 43.9747,
      "duration": 0.2304,
      "velocity": 108,
      "chip": "ym2612"
    },
    {
      "channel": 3,
      "note": 44,
      "start": 44.0565,
      "duration": 0.2322,
      "velocity": 107,
      "chip": "ym2612"
    },
    {
      "channel": 1,
      "note": 26,
      "start": 44.1307,
      "duration": 0.1575,
      "velocity": 91,
      "chip": "ym2612"
    },
    {
      "channel": 5,
      "note": 79,
      "start": 44.2053,
      "duration": 0.084,
      "velocity": 108,
      "chip": "ym2612"
    },
    {
      "channel": 1,
      "note": 26,
      "start": 44.2884,
      "duration": 0.0831,
      "velocity": 91,
      "chip": "ym2612"
    },
    {
      "channel": 3,
      "note": 56,
      "start": 44.289,
      "duration": 0.2302,
      "velocity": 107,
      "chip": "ym2612"
    },
    {
      "channel": 5,
      "note": 79,
      "start": 44.2895,
      "duration": 0.2316,
      "velocity": 127,
      "chip": "ym2612"
    },
    {
      "channel": 1,
      "note": 38,
      "start": 44.3717,
      "duration": 0.1468,
      "velocity": 91,
      "chip": "ym2612"
    },
    {
      "channel": 1,
      "note": 26,
      "start": 44.5188,
      "duration": 0.1665,
      "velocity": 91,
      "chip": "ym2612"
    },
    {
      "channel": 3,
      "note": 54,
      "start": 44.5193,
      "duration": 0.1665,
      "velocity": 107,
      "chip": "ym2612"
    },
    {
      "channel": 5,
      "note": 31,
      "start": 44.5213,
      "duration": 0.0822,
      "velocity": 108,
      "chip": "ym2612"
    },
    {
      "channel": 5,
      "note": 79,
      "start": 44.6037,
      "duration": 0.2289,
      "velocity": 108,
      "chip": "ym2612"
    },
    {
      "channel": 1,
      "note": 26,
      "start": 44.6854,
      "duration": 0.0741,
      "velocity": 91,
      "chip": "ym2612"
    },
    {
      "channel": 3,
      "note": 44,
      "start": 44.686,
      "duration": 0.2301,
      "velocity": 107,
      "chip": "ym2612"
    },
    {
      "channel": 1,
      "note": 26,
      "start": 44.7597,
      "duration": 0.1559,
      "velocity": 91,
      "chip": "ym2612"
    },
    {
      "channel": 5,
      "note": 79,
      "start": 44.8327,
      "duration": 0.0854,
      "velocity": 127,
      "chip": "ym2612"
    },
    {
      "channel": 1,
      "note": 26,
      "start": 44.9158,
      "duration": 0.0831,
      "velocity": 91,
      "chip": "ym2612"
    },
    {
      "channel": 3,
      "note": 56,
      "start": 44.9163,
      "duration": 0.2347,
      "velocity": 107,
      "chip": "ym2612"
    },
    {
      "channel": 5,
      "note": 31,
      "start": 44.9183,
      "duration": 0.2333,
      "velocity": 127,
      "chip": "ym2612"
    },
    {
      "channel": 1,
      "note": 38,
      "start": 44.9991,
      "duration": 0.1508,
      "velocity": 91,
      "chip": "ym2612"
    },
    {
      "channel": 1,
      "note": 26,
      "start": 45.1501,
      "duration": 0.242,
      "velocity": 91,
      "chip": "ym2612"
    },
    {
      "channel": 2,
      "note": 86,
      "start": 45.1506,
      "duration": 0.0827,
      "velocity": 95,
      "chip": "ym2612"
    },
    {
      "channel": 3,
      "note": 54,
      "start": 45.1511,
      "duration": 0.168,
      "velocity": 107,
      "chip": "ym2612"
    },
    {
      "channel": 5,
      "note": 31,
      "start": 45.1518,
      "duration": 0.0836,
      "velocity": 108,
      "chip": "ym2612"
    },
    {
      "channel": 2,
      "note": 87,
      "start": 45.2335,
      "duration": 0.0851,
      "velocity": 95,
      "chip": "ym2612"
    },
    {
      "channel": 5,
      "note": 79,
      "start": 45.2356,
      "duration": 0.2319,
      "velocity": 108,
      "chip": "ym2612"
    },
    {
      "channel": 0,
      "note": 65,
      "start": 45.3182,
      "duration": 2.5218,
      "velocity": 127,
      "chip": "ym2612"
    },
    {
      "channel": 2,
      "note": 89,
      "start": 45.3188,
      "duration": 0.0738,
      "velocity": 95,
      "chip": "ym2612"
    },
    {
      "channel": 3,
      "note": 46,
      "start": 45.3193,
      "duration": 0.2312,
      "velocity": 107,
      "chip": "ym2612"
    },
    {
      "channel": 4,
      "note": 74,
      "start": 45.3212,
      "duration": 2.5203,
      "velocity": 127,
      "chip": "ym2612"
    },
    {
      "channel": 1,
      "note": 26,
      "start": 45.3922,
      "duration": 0.1578,
      "velocity": 91,
      "chip": "ym2612"
    },
    {
      "channel": 2,
      "note": 86,
      "start": 45.3927,
      "duration": 0.0741,
      "velocity": 95,
      "chip": "ym2612"
    },
    {
      "channel": 2,
      "note": 82,
      "start": 45.467,
      "duration": 1.4312,
      "velocity": 95,
      "chip": "ym2612"
    },
    {
      "channel": 5,
      "note": 79,
      "start": 45.4676,
      "duration": 0.0835,
      "velocity": 108,
      "chip": "ym2612"
    },
    {
      "channel": 1,
      "note": 26,
      "start": 45.5502,
      "duration": 0.0831,
      "velocity": 91,
      "chip": "ym2612"
    },
    {
      "channel": 3,
      "note": 58,
      "start": 45.5508,
      "duration": 0.2324,
      "velocity": 107,
      "chip": "ym2612"
    },
    {
      "channel": 5,
      "note": 79,
      "start": 45.5514,
      "duration": 0.2338,
      "velocity": 127,
      "chip": "ym2612"
    },
    {
      "channel": 1,
      "note": 38,
      "start": 45.6336,
      "duration": 0.149,
      "velocity": 91,
      "chip": "ym2612"
    },
    {
      "channel": 1,
      "note": 26,
      "start": 45.7828,
      "duration": 0.1664,
      "velocity": 91,
      "chip": "ym2612"
    },
    {
      "channel": 3,
      "note": 56,
      "start": 45.7834,
      "duration": 0.1664,
      "velocity": 107,
      "chip": "ym2612"
    },
    {
      "channel": 5,
      "note": 31,
      "start": 45.7853,
      "duration": 0.0822,
      "velocity": 108,
      "chip": "ym2612"
    },
    {
      "channel": 5,
      "note": 79,
      "start": 45.8676,
      "duration": 0.2308,
      "velocity": 108,
      "chip": "ym2612"
    },
    {
      "channel": 1,
      "note": 26,
      "start": 45.9494,
      "duration": 0.0741,
      "velocity": 91,
      "chip": "ym2612"
    },
    {
      "channel": 3,
      "note": 46,
      "start": 45.95,
      "duration": 0.2321,
      "velocity": 107,
      "chip": "ym2612"
    },
    {
      "channel": 1,
      "note": 26,
      "start": 46.0237,
      "duration": 0.1578,
      "velocity": 91,
      "chip": "ym2612"
    },
    {
      "channel": 5,
      "note": 79,
      "start": 46.0986,
      "duration": 0.084,
      "velocity": 108,
      "chip": "ym2612"
    },
    {
      "channel": 1,
      "note": 26,
      "start": 46.1817,
      "duration": 0.0831,
      "velocity": 91,
      "chip": "ym2612"
    },
    {
      "channel": 3,
      "note": 58,
      "start": 46.1822,
      "duration": 0.234,
      "velocity": 107,
      "chip": "ym2612"
    },
    {
      "channel": 5,
      "note": 79,
      "start": 46.1828,
      "duration": 0.2354,
      "velocity": 127,
      "chip": "ym2612"
    },
    {
      "channel": 1,
      "note": 38,
      "start": 46.265,
      "duration": 0.1507,
      "velocity": 91,
      "chip": "ym2612"
    },
    {
      "channel": 1,
      "note": 26,
      "start": 46.4159,
      "duration": 0.2409,
      "velocity": 91,
      "chip": "ym2612"
    },
    {
      "channel": 3,
      "note": 56,
      "start": 46.4164,
      "duration": 0.1659,
      "velocity": 107,
      "chip": "ym2612"
    },
    {
      "channel": 5,
      "note": 31,
      "start": 46.4184,
      "duration": 0.0822,
      "velocity": 108,
      "chip": "ym2612"
    },
    {
      "channel": 5,
      "note": 79,
      "start": 46.5007,
      "duration": 0.2306,
      "velocity": 108,
      "chip": "ym2612"
    },
    {
      "channel": 3,
      "note": 46,
      "start": 46.5825,
      "duration": 0.2324,
      "velocity": 107,
      "chip": "ym2612"
    },
    {
      "channel": 1,
      "note": 26,
      "start": 46.6568,
      "duration": 0.1575,
      "velocity": 91,
      "chip": "ym2612"
    },
    {
      "channel": 5,
      "note": 79,
      "start": 46.7315,
      "duration": 0.084,
      "velocity": 108,
      "chip": "ym2612"
    },
    {
      "channel": 1,
      "note": 26,
      "start": 46.8145,
      "duration": 0.0831,
      "velocity": 91,
      "chip": "ym2612"
    },
    {
      "channel": 3,
      "note": 58,
      "start": 46.8151,
      "duration": 0.2299,
      "velocity": 107,
      "chip": "ym2612"
    },
    {
      "channel": 5,
      "note": 79,
      "start": 46.8157,
      "duration": 0.2313,
      "velocity": 127,
      "chip": "ym2612"
    },
    {
      "channel": 1,
      "note": 38,
      "start": 46.8979,
      "duration": 0.1466,
      "velocity": 91,
      "chip": "ym2612"
    },
    {
      "channel": 2,
      "note": 87,
      "start": 46.8984,
      "duration": 0.3132,
      "velocity": 95,
      "chip": "ym2612"
    },
    {
      "channel": 1,
      "note": 26,
      "start": 47.0446,
      "duration": 0.1664,
      "velocity": 91,
      "chip": "ym2612"
    },
    {
      "channel": 3,
      "note": 56,
      "start": 47.0452,
      "duration": 0.167,
      "velocity": 107,
      "chip": "ym2612"
    },
    {
      "channel": 5,
      "note": 31,
      "start": 47.0472,
      "duration": 0.0822,
      "velocity": 108,
      "chip": "ym2612"
    },
    {
      "channel": 5,
      "note": 79,
      "start": 47.1295,
      "duration": 0.2308,
      "velocity": 108,
      "chip": "ym2612"
    },
    {
      "channel": 1,
      "note": 26,
      "start": 47.2113,
      "duration": 0.0762,
      "velocity": 91,
      "chip": "ym2612"
    },
    {
      "channel": 2,
      "note": 89,
      "start": 47.2118,
      "duration": 0.2321,
      "velocity": 95,
      "chip": "ym2612"
    },
    {
      "channel": 3,
      "note": 46,
      "start": 47.2123,
      "duration": 0.2321,
      "velocity": 107,
      "chip": "ym2612"
    },
    {
      "channel": 1,
      "note": 26,
      "start": 47.2876,
      "duration": 0.1558,
      "velocity": 91,
      "chip": "ym2612"
    },
    {
      "channel": 5,
      "note": 79,
      "start": 47.3605,
      "duration": 0.0859,
      "velocity": 127,
      "chip": "ym2612"
    },
    {
      "channel": 1,
      "note": 26,
      "start": 47.4436,
      "duration": 0.0832,
      "velocity": 91,
      "chip": "ym2612"
    },
    {
      "channel": 2,
      "note": 94,
      "start": 47.4441,
      "duration": 0.2297,
      "velocity": 95,
      "chip": "ym2612"
    },
    {
      "channel": 3,
      "note": 58,
      "start": 47.4446,
      "duration": 0.2298,
      "velocity": 107,
      "chip": "ym2612"
    },
    {
      "channel": 5,
      "note": 31,
      "start": 47.4466,
      "duration": 0.2284,
      "velocity": 127,
      "chip": "ym2612"
    },
    {
      "channel": 1,
      "note": 38,
      "start": 47.5269,
      "duration": 0.1464,
      "velocity": 91,
      "chip": "ym2612"
    },
    {
      "channel": 1,
      "note": 26,
      "start": 47.6735,
      "duration": 0.2412,
      "velocity": 91,
      "chip": "ym2612"
    },
    {
      "channel": 2,
      "note": 82,
      "start": 47.674,
      "duration": 0.1665,
      "velocity": 95,
      "chip": "ym2612"
    },
    {
      "channel": 3,
      "note": 56,
      "start": 47.6745,
      "duration": 0.1666,
      "velocity": 107,
      "chip": "ym2612"
    },
    {
      "channel": 5,
      "note": 31,
      "start": 47.6751,
      "duration": 0.0831,
      "velocity": 108,
      "chip": "ym2612"
    },
    {
      "channel": 5,
      "note": 79,
      "start": 47.7585,
      "duration": 0.2305,
      "velocity": 108,
      "chip": "ym2612"
    },
    {
      "channel": 0,
      "note": 67,
      "start": 47.8402,
      "duration": 0.1471,
      "velocity": 127,
      "chip": "ym2612"
    },
    {
      "channel": 2,
      "note": 84,
      "start": 47.8407,
      "duration": 1.2629,
      "velocity": 121,
      "chip": "ym2612"
    },
    {
      "channel": 3,
      "note": 48,
      "start": 47.8412,
      "duration": 0.1468,
      "velocity": 107,
      "chip": "ym2612"
    },
    {
      "channel": 4,
      "note": 75,
      "start": 47.8417,
      "duration": 0.1467,
      "velocity": 127,
      "chip": "ym2612"
    },
    {
      "channel": 1,
      "note": 26,
      "start": 47.9149,
      "duration": 0.1557,
      "velocity": 91,
      "chip": "ym2612"
    },
    {
      "channel": 0,
      "note": 67,
      "start": 47.9875,
      "duration": 0.1678,
      "velocity": 47,
      "chip": "ym2612"
    },
    {
      "channel": 3,
      "note": 48,
      "start": 47.988,
      "duration": 0.318,
      "velocity": 107,
      "chip": "ym2612"
    },
    {
      "channel": 4,
      "note": 75,
      "start": 47.9885,
      "duration": 0.1692,
      "velocity": 47,
      "chip": "ym2612"
    },
    {
      "channel": 5,
      "note": 79,
      "start": 47.9891,
      "duration": 0.0822,
      "velocity": 108,
      "chip": "ym2612"
    },
    {
      "channel": 1,
      "note": 26,
      "start": 48.0707,
      "duration": 0.085,
      "velocity": 91,
      "chip": "ym2612"
    },
    {
      "channel": 5,
      "note": 79,
      "start": 48.0714,
      "duration": 0.2385,
      "velocity": 127,
      "chip": "ym2612"
    },
    {
      "channel": 0,
      "note": 55,
      "start": 48.1554,
      "duration": 0.1496,
      "velocity": 127,
      "chip": "ym2612"
    },
    {
      "channel": 1,
      "note": 38,
      "start": 48.1559,
      "duration": 0.1496,
      "velocity": 91,
      "chip": "ym2612"
    },
    {
      "channel": 4,
      "note": 63,
      "start": 48.158,
      "duration": 0.15,
      "velocity": 127,
      "chip": "ym2612"
    },
    {
      "channel": 0,
      "note": 65,
      "start": 48.3052,
      "duration": 0.1665,
      "velocity": 47,
      "chip": "ym2612"
    },
    {
      "channel": 1,
      "note": 26,
      "start": 48.3057,
      "duration": 0.1665,
      "velocity": 91,
      "chip": "ym2612"
    },
    {
      "channel": 3,
      "note": 46,
      "start": 48.3063,
      "duration": 0.3152,
      "velocity": 107,
      "chip": "ym2612"
    },
    {
      "channel": 4,
      "note": 74,
      "start": 48.3082,
      "duration": 0.166,
      "velocity": 47,
      "chip": "ym2612"
    },
    {
      "channel": 5,
      "note": 31,
      "start": 48.3101,
      "duration": 0.0785,
      "velocity": 108,
      "chip": "ym2612"
    },
    {
      "channel": 5,
      "note": 79,
      "start": 48.3888,
      "duration": 0.2352,
      "velocity": 108,
      "chip": "ym2612"
    },
    {
      "channel": 0,
      "note": 53,
      "start": 48.4718,
      "duration": 0.1491,
      "velocity": 127,
      "chip": "ym2612"
    },
    {
      "channel": 1,
      "note": 26,
      "start": 48.4723,
      "duration": 0.0726,
      "velocity": 91,
      "chip": "ym2612"
    },
    {
      "channel": 4,
      "note": 62,
      "start": 48.4743,
      "duration": 0.149,
      "velocity": 127,
      "chip": "ym2612"
    },
    {
      "channel": 1,
      "note": 26,
      "start": 48.545,
      "duration": 0.1578,
      "velocity": 91,
      "chip": "ym2612"
    },
    {
      "channel": 0,
      "note": 65,
      "start": 48.6211,
      "duration": 0.1664,
      "velocity": 47,
      "chip": "ym2612"
    },
    {
      "channel": 3,
      "note": 46,
      "start": 48.6217,
      "duration": 0.3157,
      "velocity": 107,
      "chip": "ym2612"
    },
    {
      "channel": 4,
      "note": 74,
      "start": 48.6236,
      "duration": 0.1664,
      "velocity": 47,
      "chip": "ym2612"
    },
    {
      "channel": 5,
      "note": 79,
      "start": 48.6241,
      "duration": 0.0794,
      "velocity": 108,
      "chip": "ym2612"
    },
    {
      "channel": 1,
      "note": 26,
      "start": 48.703,
      "duration": 0.085,
      "velocity": 91,
      "chip": "ym2612"
    },
    {
      "channel": 5,
      "note": 79,
      "start": 48.7037,
      "duration": 0.2376,
      "velocity": 127,
      "chip": "ym2612"
    },
    {
      "channel": 0,
      "note": 53,
      "start": 48.7876,
      "duration": 0.1487,
      "velocity": 127,
      "chip": "ym2612"
    },
    {
      "channel": 1,
      "note": 38,
      "start": 48.7881,
      "duration": 0.1487,
      "velocity": 91,
      "chip": "ym2612"
    },
    {
      "channel": 4,
      "note": 62,
      "start": 48.7902,
      "duration": 0.149,
      "velocity": 127,
      "chip": "ym2612"
    },
    {
      "channel": 0,
      "note": 63,
      "start": 48.9365,
      "duration": 0.1651,
      "velocity": 127,
      "chip": "ym2612"
    },
    {
      "channel": 1,
      "note": 26,
      "start": 48.9369,
      "duration": 0.2396,
      "velocity": 91,
      "chip": "ym2612"
    },
    {
      "channel": 3,
      "note": 44,
      "start": 48.9375,
      "duration": 0.1666,
      "velocity": 107,
      "chip": "ym2612"
    },
    {
      "channel": 4,
      "note": 72,
      "start": 48.9394,
      "duration": 0.1651,
      "velocity": 127,
      "chip": "ym2612"
    },
    {
      "channel": 5,
      "note": 31,
      "start": 48.9413,
      "duration": 0.0785,
      "velocity": 108,
      "chip": "ym2612"
    },
    {
      "channel": 5,
      "note": 79,
      "start": 49.0201,
      "duration": 0.2335,
      "velocity": 108,
      "chip": "ym2612"
    },
    {
      "channel": 0,
      "note": 63,
      "start": 49.1018,
      "duration": 1.2642,
      "velocity": 104,
      "chip": "ym2612"
    },
    {
      "channel": 2,
      "note": 79,
      "start": 49.1037,
      "duration": 0.0015,
      "velocity": 121,
      "chip": "ym2612"
    },
    {
      "channel": 3,
      "note": 44,
      "start": 49.1042,
      "duration": 0.6373,
      "velocity": 121,
      "chip": "ym2612"
    },
    {
      "channel": 4,
      "note": 72,
      "start": 49.1047,
      "duration": 1.267,
      "velocity": 68,
      "chip": "ym2612"
    },
    {
      "channel": 2,
      "note": 79,
      "start": 49.1053,
      "duration": 0.0118,
      "velocity": 121,
      "chip": "ym2612"
    },
    {
      "channel": 2,
      "note": 78,
      "start": 49.1171,
      "duration": 0.0136,
      "velocity": 121,
      "chip": "ym2612"
    },
    {
      "channel": 2,
      "note": 78,
      "start": 49.1307,
      "duration": 0.0157,
      "velocity": 121,
      "chip": "ym2612"
    },
    {
      "channel": 2,
      "note": 77,
      "start": 49.1464,
      "duration": 0.0157,
      "velocity": 121,
      "chip": "ym2612"
    },
    {
      "channel": 2,
      "note": 77,
      "start": 49.1621,
      "duration": 0.0149,
      "velocity": 121,
      "chip": "ym2612"
    },
    {
      "channel": 1,
      "note": 26,
      "start": 49.1766,
      "duration": 0.1594,
      "velocity": 91,
      "chip": "ym2612"
    },
    {
      "channel": 2,
      "note": 79,
      "start": 49.1772,
      "duration": 0.0005,
      "velocity": 121,
      "chip": "ym2612"
    },
    {
      "channel": 2,
      "note": 79,
      "start": 49.1777,
      "duration": 0.0141,
      "velocity": 121,
      "chip": "ym2612"
    },
    {
      "channel": 2,
      "note": 78,
      "start": 49.1918,
      "duration": 0.0157,
      "velocity": 121,
      "chip": "ym2612"
    },
    {
      "channel": 2,
      "note": 78,
      "start": 49.2075,
      "duration": 0.0157,
      "velocity": 121,
      "chip": "ym2612"
    },
    {
      "channel": 2,
      "note": 77,
      "start": 49.2232,
      "duration": 0.0157,
      "velocity": 121,
      "chip": "ym2612"
    },
    {
      "channel": 2,
      "note": 77,
      "start": 49.2389,
      "duration": 0.014,
      "velocity": 121,
      "chip": "ym2612"
    },
    {
      "channel": 2,
      "note": 79,
      "start": 49.2531,
      "duration": 0.001,
      "velocity": 121,
      "chip": "ym2612"
    },
    {
      "channel": 5,
      "note": 79,
      "start": 49.2537,
      "duration": 0.0835,
      "velocity": 108,
      "chip": "ym2612"
    },
    {
      "channel": 2,
      "note": 79,
      "start": 49.254,
      "duration": 0.015,
      "velocity": 121,
      "chip": "ym2612"
    },
    {
      "channel": 2,
      "note": 78,
      "start": 49.269,
      "duration": 0.0167,
      "velocity": 121,
      "chip": "ym2612"
    },
    {
      "channel": 2,
      "note": 78,
      "start": 49.2857,
      "duration": 0.0167,
      "velocity": 121,
      "chip": "ym2612"
    },
    {
      "channel": 2,
      "note": 77,
      "start": 49.3024,
      "duration": 0.0167,
      "velocity": 121,
      "chip": "ym2612"
    },
    {
      "channel": 2,
      "note": 77,
      "start": 49.319,
      "duration": 0.0176,
      "velocity": 121,
      "chip": "ym2612"
    },
    {
      "channel": 1,
      "note": 26,
      "start": 49.3363,
      "duration": 0.0831,
      "velocity": 91,
      "chip": "ym2612"
    },
    {
      "channel": 2,
      "note": 79,
      "start": 49.3368,
      "duration": 0.001,
      "velocity": 121,
      "chip": "ym2612"
    },
    {
      "channel": 5,
      "note": 79,
      "start": 49.3374,
      "duration": 0.2375,
      "velocity": 127,
      "chip": "ym2612"
    },
    {
      "channel": 2,
      "note": 79,
      "start": 49.3377,
      "duration": 0.0146,
      "velocity": 121,
      "chip": "ym2612"
    },
    {
      "channel": 2,
      "note": 78,
      "start": 49.3524,
      "duration": 0.0167,
      "velocity": 121,
      "chip": "ym2612"
    },
    {
      "channel": 2,
      "note": 78,
      "start": 49.369,
      "duration": 0.0167,
      "velocity": 121,
      "chip": "ym2612"
    },
    {
      "channel": 2,
      "note": 77,
      "start": 49.3857,
      "duration": 0.0167,
      "velocity": 121,
      "chip": "ym2612"
    },
    {
      "channel": 2,
      "note": 77,
      "start": 49.4024,
      "duration": 0.0176,
      "velocity": 121,
      "chip": "ym2612"
    },
    {
      "channel": 1,
      "note": 38,
      "start": 49.4196,
      "duration": 0.1528,
      "velocity": 91,
      "chip": "ym2612"
    },
    {
      "channel": 2,
      "note": 76,
      "start": 49.4201,
      "duration": 0.0006,
      "velocity": 121,
      "chip": "ym2612"
    },
    {
      "channel": 2,
      "note": 76,
      "start": 49.4207,
      "duration": 0.0141,
      "velocity": 121,
      "chip": "ym2612"
    },
    {
      "channel": 2,
      "note": 75,
      "start": 49.4349,
      "duration": 0.0136,
      "velocity": 121,
      "chip": "ym2612"
    },
    {
      "channel": 2,
      "note": 74,
      "start": 49.4485,
      "duration": 0.0156,
      "velocity": 121,
      "chip": "ym2612"
    },
    {
      "channel": 2,
      "note": 74,
      "start": 49.464,
      "duration": 0.0136,
      "velocity": 121,
      "chip": "ym2612"
    },
    {
      "channel": 2,
      "note": 73,
      "start": 49.4776,
      "duration": 0.0162,
      "velocity": 121,
      "chip": "ym2612"
    },
    {
      "channel": 2,
      "note": 76,
      "start": 49.4939,
      "duration": 0.0005,
      "velocity": 121,
      "chip": "ym2612"
    },
    {
      "channel": 2,
      "note": 76,
      "start": 49.4945,
      "duration": 0.0146,
      "velocity": 121,
      "chip": "ym2612"
    },
    {
      "channel": 2,
      "note": 75,
      "start": 49.509,
      "duration": 0.0157,
      "velocity": 121,
      "chip": "ym2612"
    },
    {
      "channel": 2,
      "note": 74,
      "start": 49.5248,
      "duration": 0.0157,
      "velocity": 121,
      "chip": "ym2612"
    },
    {
      "channel": 2,
      "note": 74,
      "start": 49.5405,
      "duration": 0.0157,
      "velocity": 121,
      "chip": "ym2612"
    },
    {
      "channel": 2,
      "note": 73,
      "start": 49.5562,
      "duration": 0.0168,
      "velocity": 121,
      "chip": "ym2612"
    },
    {
      "channel": 1,
      "note": 26,
      "start": 49.5726,
      "duration": 0.1665,
      "velocity": 91,
      "chip": "ym2612"
    },
    {
      "channel": 2,
      "note": 76,
      "start": 49.5731,
      "duration": 0.0024,
      "velocity": 121,
      "chip": "ym2612"
    },
    {
      "channel": 5,
      "note": 31,
      "start": 49.5751,
      "duration": 0.0827,
      "velocity": 108,
      "chip": "ym2612"
    },
    {
      "channel": 2,
      "note": 76,
      "start": 49.5754,
      "duration": 0.0132,
      "velocity": 121,
      "chip": "ym2612"
    },
    {
      "channel": 2,
      "note": 75,
      "start": 49.5887,
      "duration": 0.0167,
      "velocity": 121,
      "chip": "ym2612"
    },
    {
      "channel": 2,
      "note": 74,
      "start": 49.6053,
      "duration": 0.0167,
      "velocity": 121,
      "chip": "ym2612"
    },
    {
      "channel": 2,
      "note": 74,
      "start": 49.622,
      "duration": 0.0167,
      "velocity": 121,
      "chip": "ym2612"
    },
    {
      "channel": 2,
      "note": 73,
      "start": 49.6387,
      "duration": 0.0171,
      "velocity": 121,
      "chip": "ym2612"
    },
    {
      "channel": 2,
      "note": 76,
      "start": 49.656,
      "duration": 0.0024,
      "velocity": 121,
      "chip": "ym2612"
    },
    {
      "channel": 5,
      "note": 79,
      "start": 49.658,
      "duration": 0.2285,
      "velocity": 108,
      "chip": "ym2612"
    },
    {
      "channel": 2,
      "note": 76,
      "start": 49.6583,
      "duration": 0.0137,
      "velocity": 121,
      "chip": "ym2612"
    },
    {
      "channel": 2,
      "note": 75,
      "start": 49.672,
      "duration": 0.0167,
      "velocity": 121,
      "chip": "ym2612"
    },
    {
      "channel": 2,
      "note": 74,
      "start": 49.6887,
      "duration": 0.0167,
      "velocity": 121,
      "chip": "ym2612"
    },
    {
      "channel": 2,
      "note": 74,
      "start": 49.7053,
      "duration": 0.0167,
      "velocity": 121,
      "chip": "ym2612"
    },
    {
      "channel": 2,
      "note": 73,
      "start": 49.722,
      "duration": 0.0176,
      "velocity": 121,
      "chip": "ym2612"
    },
    {
      "channel": 1,
      "note": 26,
      "start": 49.7393,
      "duration": 0.0711,
      "velocity": 91,
      "chip": "ym2612"
    },
    {
      "channel": 2,
      "note": 72,
      "start": 49.7398,
      "duration": 0.0025,
      "velocity": 121,
      "chip": "ym2612"
    },
    {
      "channel": 3,
      "note": 74,
      "start": 49.7417,
      "duration": 0.0008,
      "velocity": 121,
      "chip": "ym2612"
    },
    {
      "channel": 2,
      "note": 71,
      "start": 49.7423,
      "duration": 0.0107,
      "velocity": 121,
      "chip": "ym2612"
    },
    {
      "channel": 3,
      "note": 73,
      "start": 49.7425,
      "duration": 0.0107,
      "velocity": 121,
      "chip": "ym2612"
    },
    {
      "channel": 2,
      "note": 71,
      "start": 49.7529,
      "duration": 0.0137,
      "velocity": 121,
      "chip": "ym2612"
    },
    {
      "channel": 3,
      "note": 73,
      "start": 49.7532,
      "duration": 0.0136,
      "velocity": 121,
      "chip": "ym2612"
    },
    {
      "channel": 2,
      "note": 70,
      "start": 49.7666,
      "duration": 0.0137,
      "velocity": 121,
      "chip": "ym2612"
    },
    {
      "channel": 3,
      "note": 72,
      "start": 49.7668,
      "duration": 0.0138,
      "velocity": 121,
      "chip": "ym2612"
    },
    {
      "channel": 2,
      "note": 69,
      "start": 49.7803,
      "duration": 0.0158,
      "velocity": 121,
      "chip": "ym2612"
    },
    {
      "channel": 3,
      "note": 72,
      "start": 49.7806,
      "duration": 0.0157,
      "velocity": 121,
      "chip": "ym2612"
    },
    {
      "channel": 2,
      "note": 69,
      "start": 49.7961,
      "duration": 0.0148,
      "velocity": 121,
      "chip": "ym2612"
    },
    {
      "channel": 3,
      "note": 71,
      "start": 49.7963,
      "duration": 0.0151,
      "velocity": 121,
      "chip": "ym2612"
    },
    {
      "channel": 1,
      "note": 26,
      "start": 49.8105,
      "duration": 0.1581,
      "velocity": 91,
      "chip": "ym2612"
    },
    {
      "channel": 2,
      "note": 72,
      "start": 49.811,
      "duration": 0.001,
      "velocity": 121,
      "chip": "ym2612"
    },
    {
      "channel": 3,
      "note": 74,
      "start": 49.8116,
      "duration": 0.0006,
      "velocity": 121,
      "chip": "ym2612"
    },
    {
      "channel": 2,
      "note": 71,
      "start": 49.812,
      "duration": 0.012,
      "velocity": 121,
      "chip": "ym2612"
    },
    {
      "channel": 3,
      "note": 73,
      "start": 49.8122,
      "duration": 0.012,
      "velocity": 121,
      "chip": "ym2612"
    },
    {
      "channel": 2,
      "note": 71,
      "start": 49.824,
      "duration": 0.0158,
      "velocity": 121,
      "chip": "ym2612"
    },
    {
      "channel": 3,
      "note": 73,
      "start": 49.8242,
      "duration": 0.0159,
      "velocity": 121,
      "chip": "ym2612"
    },
    {
      "channel": 2,
      "note": 70,
      "start": 49.8398,
      "duration": 0.0156,
      "velocity": 121,
      "chip": "ym2612"
    },
    {
      "channel": 3,
      "note": 72,
      "start": 49.84,
      "duration": 0.0156,
      "velocity": 121,
      "chip": "ym2612"
    },
    {
      "channel": 2,
      "note": 69,
      "start": 49.8554,
      "duration": 0.0138,
      "velocity": 121,
      "chip": "ym2612"
    },
    {
      "channel": 3,
      "note": 72,
      "start": 49.8556,
      "duration": 0.0137,
      "velocity": 121,
      "chip": "ym2612"
    },
    {
      "channel": 2,
      "note": 69,
      "start": 49.8691,
      "duration": 0.0162,
      "velocity": 121,
      "chip": "ym2612"
    },
    {
      "channel": 3,
      "note": 71,
      "start": 49.8694,
      "duration": 0.0164,
      "velocity": 121,
      "chip": "ym2612"
    },
    {
      "channel": 2,
      "note": 72,
      "start": 49.8854,
      "duration": 0.0015,
      "velocity": 121,
      "chip": "ym2612"
    },
    {
      "channel": 3,
      "note": 74,
      "start": 49.886,
      "duration": 0.0011,
      "velocity": 121,
      "chip": "ym2612"
    },
    {
      "channel": 5,
      "note": 79,
      "start": 49.8867,
      "duration": 0.085,
      "velocity": 127,
      "chip": "ym2612"
    },
    {
      "channel": 2,
      "note": 71,
      "start": 49.887,
      "duration": 0.0145,
      "velocity": 121,
      "chip": "ym2612"
    },
    {
      "channel": 3,
      "note": 73,
      "start": 49.8872,
      "duration": 0.0146,
      "velocity": 121,
      "chip": "ym2612"
    },
    {
      "channel": 2,
      "note": 71,
      "start": 49.9015,
      "duration": 0.0167,
      "velocity": 121,
      "chip": "ym2612"
    },
    {
      "channel": 3,
      "note": 73,
      "start": 49.9017,
      "duration": 0.0167,
      "velocity": 121,
      "chip": "ym2612"
    },
    {
      "channel": 2,
      "note": 70,
      "start": 49.9181,
      "duration": 0.0167,
      "velocity": 121,
      "chip": "ym2612"
    },
    {
      "channel": 3,
      "note": 72,
      "start": 49.9184,
      "duration": 0.0167,
      "velocity": 121,
      "chip": "ym2612"
    },
    {
      "channel": 2,
      "note": 69,
      "start": 49.9348,
      "duration": 0.0167,
      "velocity": 121,
      "chip": "ym2612"
    },
    {
      "channel": 3,
      "note": 72,
      "start": 49.9351,
      "duration": 0.0167,
      "velocity": 121,
      "chip": "ym2612"
    },
    {
      "channel": 2,
      "note": 69,
      "start": 49.9515,
      "duration": 0.0176,
      "velocity": 121,
      "chip": "ym2612"
    },
    {
      "channel": 3,
      "note": 71,
      "start": 49.9517,
      "duration": 0.0179,
      "velocity": 121,
      "chip": "ym2612"
    },
    {
      "channel": 1,
      "note": 26,
      "start": 49.9687,
      "duration": 0.0831,
      "velocity": 91,
      "chip": "ym2612"
    },
    {
      "channel": 2,
      "note": 72,
      "start": 49.9693,
      "duration": 0.0028,
      "velocity": 121,
      "chip": "ym2612"
    },
    {
      "channel": 3,
      "note": 74,
      "start": 49.9698,
      "duration": 0.0025,
      "velocity": 121,
      "chip": "ym2612"
    },
    {
      "channel": 5,
      "note": 31,
      "start": 49.9718,
      "duration": 0.2278,
      "velocity": 127,
      "chip": "ym2612"
    },
    {
      "channel": 2,
      "note": 71,
      "start": 49.9721,
      "duration": 0.0127,
      "velocity": 121,
      "chip": "ym2612"
    },
    {
      "channel": 3,
      "note": 73,
      "start": 49.9723,
      "duration": 0.0127,
      "velocity": 121,
      "chip": "ym2612"
    },
    {
      "channel": 2,
      "note": 71,
      "start": 49.9848,
      "duration": 0.0167,
      "velocity": 121,
      "chip": "ym2612"
    },
    {
      "channel": 3,
      "note": 73,
      "start": 49.9851,
      "duration": 0.0167,
      "velocity": 121,
      "chip": "ym2612"
    },
    {
      "channel": 2,
      "note": 70,
      "start": 50.0015,
      "duration": 0.0167,
      "velocity": 121,
      "chip": "ym2612"
    },
    {
      "channel": 3,
      "note": 72,
      "start": 50.0017,
      "duration": 0.0167,
      "velocity": 121,
      "chip": "ym2612"
    },
    {
      "channel": 2,
      "note": 69,
      "start": 50.0181,
      "duration": 0.0167,
      "velocity": 121,
      "chip": "ym2612"
    },
    {
      "channel": 3,
      "note": 72,
      "start": 50.0184,
      "duration": 0.0167,
      "velocity": 121,
      "chip": "ym2612"
    },
    {
      "channel": 2,
      "note": 69,
      "start": 50.0348,
      "duration": 0.0176,
      "velocity": 121,
      "chip": "ym2612"
    },
    {
      "channel": 3,
      "note": 71,
      "start": 50.0351,
      "duration": 0.0179,
      "velocity": 121,
      "chip": "ym2612"
    },
    {
      "channel": 1,
      "note": 38,
      "start": 50.0521,
      "duration": 0.1458,
      "velocity": 91,
      "chip": "ym2612"
    },
    {
      "channel": 2,
      "note": 69,
      "start": 50.0526,
      "duration": 0.0011,
      "velocity": 121,
      "chip": "ym2612"
    },
    {
      "channel": 3,
      "note": 71,
      "start": 50.0531,
      "duration": 0.0008,
      "velocity": 121,
      "chip": "ym2612"
    },
    {
      "channel": 2,
      "note": 68,
      "start": 50.0537,
      "duration": 0.0119,
      "velocity": 121,
      "chip": "ym2612"
    },
    {
      "channel": 3,
      "note": 70,
      "start": 50.054,
      "duration": 0.0119,
      "velocity": 121,
      "chip": "ym2612"
    },
    {
      "channel": 2,
      "note": 67,
      "start": 50.0656,
      "duration": 0.0137,
      "velocity": 121,
      "chip": "ym2612"
    },
    {
      "channel": 3,
      "note": 70,
      "start": 50.0658,
      "duration": 0.0138,
      "velocity": 121,
      "chip": "ym2612"
    },
    {
      "channel": 2,
      "note": 67,
      "start": 50.0793,
      "duration": 0.0158,
      "velocity": 121,
      "chip": "ym2612"
    },
    {
      "channel": 3,
      "note": 69,
      "start": 50.0796,
      "duration": 0.0157,
      "velocity": 121,
      "chip": "ym2612"
    },
    {
      "channel": 2,
      "note": 66,
      "start": 50.0951,
      "duration": 0.0137,
      "velocity": 121,
      "chip": "ym2612"
    },
    {
      "channel": 3,
      "note": 68,
      "start": 50.0953,
      "duration": 0.0138,
      "velocity": 121,
      "chip": "ym2612"
    },
    {
      "channel": 2,
      "note": 65,
      "start": 50.1088,
      "duration": 0.0161,
      "velocity": 121,
      "chip": "ym2612"
    },
    {
      "channel": 3,
      "note": 67,
      "start": 50.1091,
      "duration": 0.0163,
      "velocity": 121,
      "chip": "ym2612"
    },
    {
      "channel": 2,
      "note": 69,
      "start": 50.1251,
      "duration": 0.001,
      "velocity": 121,
      "chip": "ym2612"
    },
    {
      "channel": 3,
      "note": 71,
      "start": 50.1256,
      "duration": 0.0006,
      "velocity": 121,
      "chip": "ym2612"
    },
    {
      "channel": 2,
      "note": 68,
      "start": 50.1261,
      "duration": 0.0124,
      "velocity": 121,
      "chip": "ym2612"
    },
    {
      "channel": 3,
      "note": 70,
      "start": 50.1263,
      "duration": 0.0124,
      "velocity": 121,
      "chip": "ym2612"
    },
    {
      "channel": 2,
      "note": 67,
      "start": 50.1384,
      "duration": 0.0158,
      "velocity": 121,
      "chip": "ym2612"
    },
    {
      "channel": 3,
      "note": 70,
      "start": 50.1387,
      "duration": 0.0157,
      "velocity": 121,
      "chip": "ym2612"
    },
    {
      "channel": 2,
      "note": 67,
      "start": 50.1542,
      "duration": 0.0137,
      "velocity": 121,
      "chip": "ym2612"
    },
    {
      "channel": 3,
      "note": 69,
      "start": 50.1544,
      "duration": 0.0138,
      "velocity": 121,
      "chip": "ym2612"
    },
    {
      "channel": 2,
      "note": 66,
      "start": 50.1679,
      "duration": 0.0158,
      "velocity": 121,
      "chip": "ym2612"
    },
    {
      "channel": 3,
      "note": 68,
      "start": 50.1682,
      "duration": 0.0157,
      "velocity": 121,
      "chip": "ym2612"
    },
    {
      "channel": 2,
      "note": 65,
      "start": 50.1837,
      "duration": 0.0148,
      "velocity": 121,
      "chip": "ym2612"
    },
    {
      "channel": 3,
      "note": 67,
      "start": 50.1839,
      "duration": 0.0151,
      "velocity": 121,
      "chip": "ym2612"
    },
    {
      "channel": 1,
      "note": 26,
      "start": 50.198,
      "duration": 0.2503,
      "velocity": 91,
      "chip": "ym2612"
    },
    {
      "channel": 2,
      "note": 69,
      "start": 50.1986,
      "duration": 0.0015,
      "velocity": 121,
      "chip": "ym2612"
    },
    {
      "channel": 3,
      "note": 71,
      "start": 50.1991,
      "duration": 0.0012,
      "velocity": 121,
      "chip": "ym2612"
    },
    {
      "channel": 5,
      "note": 31,
      "start": 50.1998,
      "duration": 0.084,
      "velocity": 108,
      "chip": "ym2612"
    },
    {
      "channel": 2,
      "note": 68,
      "start": 50.2001,
      "duration": 0.014,
      "velocity": 121,
      "chip": "ym2612"
    },
    {
      "channel": 3,
      "note": 70,
      "start": 50.2003,
      "duration": 0.0141,
      "velocity": 121,
      "chip": "ym2612"
    },
    {
      "channel": 2,
      "note": 67,
      "start": 50.2141,
      "duration": 0.0167,
      "velocity": 121,
      "chip": "ym2612"
    },
    {
      "channel": 3,
      "note": 70,
      "start": 50.2144,
      "duration": 0.0167,
      "velocity": 121,
      "chip": "ym2612"
    },
    {
      "channel": 2,
      "note": 67,
      "start": 50.2307,
      "duration": 0.0167,
      "velocity": 121,
      "chip": "ym2612"
    },
    {
      "channel": 3,
      "note": 69,
      "start": 50.231,
      "duration": 0.0167,
      "velocity": 121,
      "chip": "ym2612"
    },
    {
      "channel": 2,
      "note": 66,
      "start": 50.2474,
      "duration": 0.0167,
      "velocity": 121,
      "chip": "ym2612"
    },
    {
      "channel": 3,
      "note": 68,
      "start": 50.2477,
      "duration": 0.0167,
      "velocity": 121,
      "chip": "ym2612"
    },
    {
      "channel": 2,
      "note": 65,
      "start": 50.2641,
      "duration": 0.0172,
      "velocity": 121,
      "chip": "ym2612"
    },
    {
      "channel": 3,
      "note": 67,
      "start": 50.2644,
      "duration": 0.0175,
      "velocity": 121,
      "chip": "ym2612"
    },
    {
      "channel": 2,
      "note": 69,
      "start": 50.2815,
      "duration": 0.0029,
      "velocity": 121,
      "chip": "ym2612"
    },
    {
      "channel": 3,
      "note": 71,
      "start": 50.282,
      "duration": 0.0025,
      "velocity": 121,
      "chip": "ym2612"
    },
    {
      "channel": 5,
      "note": 79,
      "start": 50.284,
      "duration": 0.0896,
      "velocity": 68,
      "chip": "ym2612"
    },
    {
      "channel": 2,
      "note": 68,
      "start": 50.2843,
      "duration": 0.0131,
      "velocity": 121,
      "chip": "ym2612"
    },
    {
      "channel": 3,
      "note": 70,
      "start": 50.2845,
      "duration": 0.0132,
      "velocity": 121,
      "chip": "ym2612"
    },
    {
      "channel": 2,
      "note": 67,
      "start": 50.2974,
      "duration": 0.0167,
      "velocity": 121,
      "chip": "ym2612"
    },
    {
      "channel": 3,
      "note": 70,
      "start": 50.2977,
      "duration": 0.0167,
      "velocity": 121,
      "chip": "ym2612"
    },
    {
      "channel": 2,
      "note": 67,
      "start": 50.3141,
      "duration": 0.0167,
      "velocity": 121,
      "chip": "ym2612"
    },
    {
      "channel": 3,
      "note": 69,
      "start": 50.3144,
      "duration": 0.0167,
      "velocity": 121,
      "chip": "ym2612"
    },
    {
      "channel": 2,
      "note": 66,
      "start": 50.3307,
      "duration": 0.0167,
      "velocity": 121,
      "chip": "ym2612"
    },
    {
      "channel": 3,
      "note": 68,
      "start": 50.331,
      "duration": 0.0167,
      "velocity": 121,
      "chip": "ym2612"
    },
    {
      "channel": 2,
      "note": 65,
      "start": 50.3474,
      "duration": 0.0205,
      "velocity": 69,
      "chip": "ym2612"
    },
    {
      "channel": 3,
      "note": 67,
      "start": 50.3477,
      "duration": 0.0221,
      "velocity": 69,
      "chip": "ym2612"
    },
    {
      "channel": 0,
      "note": 84,
      "start": 50.3661,
      "duration": 0.0817,
      "velocity": 104,
      "chip": "ym2612"
    },
    {
      "channel": 2,
      "note": 84,
      "start": 50.3681,
      "duration": 1.998,
      "velocity": 69,
      "chip": "ym2612"
    },
    {
      "channel": 3,
      "note": 79,
      "start": 50.37,
      "duration": 1.9964,
      "velocity": 69,
      "chip": "ym2612"
    },
    {
      "channel": 4,
      "note": 77,
      "start": 50.3719,
      "duration": 1.9947,
      "velocity": 68,
      "chip": "ym2612"
    },
    {
      "channel": 5,
      "note": 72,
      "start": 50.3738,
      "duration": 1.993,
      "velocity": 68,
      "chip": "ym2612"
    },
    {
      "channel": 0,
      "note": 89,
      "start": 50.448,
      "duration": 0.083,
      "velocity": 104,
      "chip": "ym2612"
    },
    {
      "channel": 1,
      "note": 26,
      "start": 50.4486,
      "duration": 0.1663,
      "velocity": 91,
      "chip": "ym2612"
    },
    {
      "channel": 0,
      "note": 91,
      "start": 50.5312,
      "duration": 0.0832,
      "velocity": 104,
      "chip": "ym2612"
    },
    {
      "channel": 0,
      "note": 96,
      "start": 50.6145,
      "duration": 0.0832,
      "velocity": 104,
      "chip": "ym2612"
    },
    {
      "channel": 1,
      "note": 26,
      "start": 50.615,
      "duration": 0.0832,
      "velocity": 91,
      "chip": "ym2612"
    },
    {
      "channel": 0,
      "note": 84,
      "start": 50.6979,
      "duration": 0.0832,
      "velocity": 104,
      "chip": "ym2612"
    },
    {
      "channel": 1,
      "note": 38,
      "start": 50.6984,
      "duration": 0.1666,
      "velocity": 91,
      "chip": "ym2612"
    },
    {
      "channel": 0,
      "note": 89,
      "start": 50.7813,
      "duration": 0.0831,
      "velocity": 104,
      "chip": "ym2612"
    },
    {
      "channel": 0,
      "note": 91,
      "start": 50.8645,
      "duration": 0.0832,
      "velocity": 104,
      "chip": "ym2612"
    },
    {
      "channel": 1,
      "note": 26,
      "start": 50.865,
      "duration": 0.1665,
      "velocity": 91,
      "chip": "ym2612"
    },
    {
      "channel": 0,
      "note": 96,
      "start": 50.9479,
      "duration": 0.0832,
      "velocity": 104,
      "chip": "ym2612"
    },
    {
      "channel": 0,
      "note": 84,
      "start": 51.0312,
      "duration": 0.0832,
      "velocity": 104,
      "chip": "ym2612"
    },
    {
      "channel": 1,
      "note": 26,
      "start": 51.0317,
      "duration": 0.0832,
      "velocity": 91,
      "chip": "ym2612"
    },
    {
      "channel": 0,
      "note": 89,
      "start": 51.1145,
      "duration": 0.0832,
      "velocity": 104,
      "chip": "ym2612"
    },
    {
      "channel": 1,
      "note": 26,
      "start": 51.115,
      "duration": 0.1666,
      "velocity": 91,
      "chip": "ym2612"
    },
    {
      "channel": 0,
      "note": 91,
      "start": 51.1979,
      "duration": 0.0832,
      "velocity": 104,
      "chip": "ym2612"
    },
    {
      "channel": 0,
      "note": 96,
      "start": 51.2812,
      "duration": 0.0832,
      "velocity": 104,
      "chip": "ym2612"
    },
    {
      "channel": 1,
      "note": 26,
      "start": 51.2817,
      "duration": 0.0832,
      "velocity": 91,
      "chip": "ym2612"
    },
    {
      "channel": 0,
      "note": 84,
      "start": 51.3646,
      "duration": 0.0831,
      "velocity": 104,
      "chip": "ym2612"
    },
    {
      "channel": 1,
      "note": 38,
      "start": 51.365,
      "duration": 0.1666,
      "velocity": 91,
      "chip": "ym2612"
    },
    {
      "channel": 0,
      "note": 89,
      "start": 51.4479,
      "duration": 0.0832,
      "velocity": 104,
      "chip": "ym2612"
    },
    {
      "channel": 0,
      "note": 91,
      "start": 51.5313,
      "duration": 0.0831,
      "velocity": 104,
      "chip": "ym2612"
    },
    {
      "channel": 1,
      "note": 26,
      "start": 51.5317,
      "duration": 0.2499,
      "velocity": 91,
      "chip": "ym2612"
    },
    {
      "channel": 0,
      "note": 96,
      "start": 51.6146,
      "duration": 0.0831,
      "velocity": 104,
      "chip": "ym2612"
    },
    {
      "channel": 0,
      "note": 84,
      "start": 51.6979,
      "duration": 0.0832,
      "velocity": 104,
      "chip": "ym2612"
    },
    {
      "channel": 0,
      "note": 91,
      "start": 51.7812,
      "duration": 0.0832,
      "velocity": 104,
      "chip": "ym2612"
    },
    {
      "channel": 1,
      "note": 26,
      "start": 51.7817,
      "duration": 0.1665,
      "velocity": 91,
      "chip": "ym2612"
    },
    {
      "channel": 0,
      "note": 94,
      "start": 51.8645,
      "duration": 0.0832,
      "velocity": 104,
      "chip": "ym2612"
    },
    {
      "channel": 0,
      "note": 98,
      "start": 51.9479,
      "duration": 0.0832,
      "velocity": 104,
      "chip": "ym2612"
    },
    {
      "channel": 1,
      "note": 26,
      "start": 51.9484,
      "duration": 0.0832,
      "velocity": 91,
      "chip": "ym2612"
    },
    {
      "channel": 0,
      "note": 84,
      "start": 52.0312,
      "duration": 0.0832,
      "velocity": 104,
      "chip": "ym2612"
    },
    {
      "channel": 1,
      "note": 38,
      "start": 52.0317,
      "duration": 0.1666,
      "velocity": 91,
      "chip": "ym2612"
    },
    {
      "channel": 0,
      "note": 91,
      "start": 52.1145,
      "duration": 0.0832,
      "velocity": 104,
      "chip": "ym2612"
    },
    {
      "channel": 0,
      "note": 94,
      "start": 52.1979,
      "duration": 0.0831,
      "velocity": 104,
      "chip": "ym2612"
    },
    {
      "channel": 1,
      "note": 26,
      "start": 52.1984,
      "duration": 0.1666,
      "velocity": 91,
      "chip": "ym2612"
    },
    {
      "channel": 0,
      "note": 98,
      "start": 52.2812,
      "duration": 0.0833,
      "velocity": 104,
      "chip": "ym2612"
    },
    {
      "channel": 0,
      "note": 84,
      "start": 52.3647,
      "duration": 0.0832,
      "velocity": 104,
      "chip": "ym2612"
    },
    {
      "channel": 1,
      "note": 26,
      "start": 52.3652,
      "duration": 0.0832,
      "velocity": 91,
      "chip": "ym2612"
    },
    {
      "channel": 2,
      "note": 84,
      "start": 52.3661,
      "duration": 0.0146,
      "velocity": 69,
      "chip": "ym2612"
    },
    {
      "channel": 3,
      "note": 79,
      "start": 52.3664,
      "duration": 0.0146,
      "velocity": 69,
      "chip": "ym2612"
    },
    {
      "channel": 4,
      "note": 77,
      "start": 52.3666,
      "duration": 0.0146,
      "velocity": 68,
      "chip": "ym2612"
    },
    {
      "channel": 5,
      "note": 72,
      "start": 52.3668,
      "duration": 0.0146,
      "velocity": 68,
      "chip": "ym2612"
    },
    {
      "channel": 2,
      "note": 83,
      "start": 52.3807,
      "duration": 0.0167,
      "velocity": 69,
      "chip": "ym2612"
    },
    {
      "channel": 3,
      "note": 79,
      "start": 52.381,
      "duration": 0.0167,
      "velocity": 69,
      "chip": "ym2612"
    },
    {
      "channel": 4,
      "note": 76,
      "start": 52.3812,
      "duration": 0.0167,
      "velocity": 68,
      "chip": "ym2612"
    },
    {
      "channel": 5,
      "note": 71,
      "start": 52.3815,
      "duration": 0.0167,
      "velocity": 68,
      "chip": "ym2612"
    },
    {
      "channel": 2,
      "note": 83,
      "start": 52.3974,
      "duration": 0.0167,
      "velocity": 69,
      "chip": "ym2612"
    },
    {
      "channel": 3,
      "note": 78,
      "start": 52.3977,
      "duration": 0.0167,
      "velocity": 69,
      "chip": "ym2612"
    },
    {
      "channel": 4,
      "note": 76,
      "start": 52.3979,
      "duration": 0.0166,
      "velocity": 68,
      "chip": "ym2612"
    },
    {
      "channel": 5,
      "note": 71,
      "start": 52.3981,
      "duration": 0.0167,
      "velocity": 68,
      "chip": "ym2612"
    },
    {
      "channel": 2,
      "note": 83,
      "start": 52.4141,
      "duration": 0.0167,
      "velocity": 69,
      "chip": "ym2612"
    },
    {
      "channel": 3,
      "note": 78,
      "start": 52.4144,
      "duration": 0.0167,
      "velocity": 69,
      "chip": "ym2612"
    },
    {
      "channel": 4,
      "note": 76,
      "start": 52.4145,
      "duration": 0.0167,
      "velocity": 68,
      "chip": "ym2612"
    },
    {
      "channel": 5,
      "note": 71,
      "start": 52.4148,
      "duration": 0.0167,
      "velocity": 68,
      "chip": "ym2612"
    },
    {
      "channel": 2,
      "note": 82,
      "start": 52.4307,
      "duration": 0.0183,
      "velocity": 69,
      "chip": "ym2612"
    },
    {
      "channel": 3,
      "note": 78,
      "start": 52.431,
      "duration": 0.0183,
      "velocity": 69,
      "chip": "ym2612"
    },
    {
      "channel": 4,
      "note": 76,
      "start": 52.4313,
      "duration": 0.0183,
      "velocity": 68,
      "chip": "ym2612"
    },
    {
      "channel": 5,
      "note": 70,
      "start": 52.4315,
      "duration": 0.0183,
      "velocity": 68,
      "chip": "ym2612"
    },
    {
      "channel": 0,
      "note": 91,
      "start": 52.448,
      "duration": 0.083,
      "velocity": 104,
      "chip": "ym2612"
    },
    {
      "channel": 1,
      "note": 26,
      "start": 52.4485,
      "duration": 0.1664,
      "velocity": 91,
      "chip": "ym2612"
    },
    {
      "channel": 2,
      "note": 82,
      "start": 52.4491,
      "duration": 0.015,
      "velocity": 69,
      "chip": "ym2612"
    },
    {
      "channel": 3,
      "note": 78,
      "start": 52.4493,
      "duration": 0.0151,
      "velocity": 69,
      "chip": "ym2612"
    },
    {
      "channel": 4,
      "note": 75,
      "start": 52.4495,
      "duration": 0.0151,
      "velocity": 68,
      "chip": "ym2612"
    },
    {
      "channel": 5,
      "note": 70,
      "start": 52.4498,
      "duration": 0.015,
      "velocity": 68,
      "chip": "ym2612"
    },
    {
      "channel": 2,
      "note": 81,
      "start": 52.4641,
      "duration": 0.0167,
      "velocity": 69,
      "chip": "ym2612"
    },
    {
      "channel": 3,
      "note": 77,
      "start": 52.4644,
      "duration": 0.0167,
      "velocity": 69,
      "chip": "ym2612"
    },
    {
      "channel": 4,
      "note": 75,
      "start": 52.4646,
      "duration": 0.0166,
      "velocity": 68,
      "chip": "ym2612"
    },
    {
      "channel": 5,
      "note": 69,
      "start": 52.4648,
      "duration": 0.0167,
      "velocity": 68,
      "chip": "ym2612"
    },
    {
      "channel": 2,
      "note": 81,
      "start": 52.4807,
      "duration": 0.0167,
      "velocity": 69,
      "chip": "ym2612"
    },
    {
      "channel": 3,
      "note": 77,
      "start": 52.481,
      "duration": 0.0167,
      "velocity": 69,
      "chip": "ym2612"
    },
    {
      "channel": 4,
      "note": 75,
      "start": 52.4812,
      "duration": 0.0167,
      "velocity": 68,
      "chip": "ym2612"
    },
    {
      "channel": 5,
      "note": 69,
      "start": 52.4815,
      "duration": 0.0167,
      "velocity": 68,
      "chip": "ym2612"
    },
    {
      "channel": 2,
      "note": 80,
      "start": 52.4974,
      "duration": 0.0167,
      "velocity": 69,
      "chip": "ym2612"
    },
    {
      "channel": 3,
      "note": 77,
      "start": 52.4977,
      "duration": 0.0167,
      "velocity": 69,
      "chip": "ym2612"
    },
    {
      "channel": 4,
      "note": 74,
      "start": 52.4979,
      "duration": 0.0166,
      "velocity": 68,
      "chip": "ym2612"
    },
    {
      "channel": 5,
      "note": 68,
      "start": 52.4981,
      "duration": 0.0167,
      "velocity": 68,
      "chip": "ym2612"
    },
    {
      "channel": 2,
      "note": 80,
      "start": 52.5141,
      "duration": 0.0178,
      "velocity": 69,
      "chip": "ym2612"
    },
    {
      "channel": 3,
      "note": 76,
      "start": 52.5144,
      "duration": 0.0177,
      "velocity": 69,
      "chip": "ym2612"
    },
    {
      "channel": 4,
      "note": 74,
      "start": 52.5145,
      "duration": 0.0178,
      "velocity": 68,
      "chip": "ym2612"
    },
    {
      "channel": 5,
      "note": 68,
      "start": 52.5148,
      "duration": 0.0178,
      "velocity": 68,
      "chip": "ym2612"
    },
    {
      "channel": 0,
      "note": 94,
      "start": 52.5313,
      "duration": 0.0831,
      "velocity": 104,
      "chip": "ym2612"
    },
    {
      "channel": 2,
      "note": 80,
      "start": 52.5318,
      "duration": 0.0156,
      "velocity": 69,
      "chip": "ym2612"
    },
    {
      "channel": 3,
      "note": 76,
      "start": 52.532,
      "duration": 0.0157,
      "velocity": 69,
      "chip": "ym2612"
    },
    {
      "channel": 4,
      "note": 74,
      "start": 52.5323,
      "duration": 0.0156,
      "velocity": 68,
      "chip": "ym2612"
    },
    {
      "channel": 5,
      "note": 68,
      "start": 52.5325,
      "duration": 0.0156,
      "velocity": 68,
      "chip": "ym2612"
    },
    {
      "channel": 2,
      "note": 79,
      "start": 52.5474,
      "duration": 0.0167,
      "velocity": 69,
      "chip": "ym2612"
    },
    {
      "channel": 3,
      "note": 76,
      "start": 52.5477,
      "duration": 0.0167,
      "velocity": 69,
      "chip": "ym2612"
    },
    {
      "channel": 4,
      "note": 73,
      "start": 52.5479,
      "duration": 0.0167,
      "velocity": 68,
      "chip": "ym2612"
    },
    {
      "channel": 5,
      "note": 67,
      "start": 52.5481,
      "duration": 0.0167,
      "velocity": 68,
      "chip": "ym2612"
    },
    {
      "channel": 2,
      "note": 79,
      "start": 52.5641,
      "duration": 0.0167,
      "velocity": 69,
      "chip": "ym2612"
    },
    {
      "channel": 3,
      "note": 76,
      "start": 52.5644,
      "duration": 0.0167,
      "velocity": 69,
      "chip": "ym2612"
    },
    {
      "channel": 4,
      "note": 73,
      "start": 52.5646,
      "duration": 0.0166,
      "velocity": 68,
      "chip": "ym2612"
    },
    {
      "channel": 5,
      "note": 67,
      "start": 52.5648,
      "duration": 0.0167,
      "velocity": 68,
      "chip": "ym2612"
    },
    {
      "channel": 2,
      "note": 78,
      "start": 52.5807,
      "duration": 0.0167,
      "velocity": 69,
      "chip": "ym2612"
    },
    {
      "channel": 3,
      "note": 75,
      "start": 52.581,
      "duration": 0.0167,
      "velocity": 69,
      "chip": "ym2612"
    },
    {
      "channel": 4,
      "note": 73,
      "start": 52.5812,
      "duration": 0.0167,
      "velocity": 68,
      "chip": "ym2612"
    },
    {
      "channel": 5,
      "note": 66,
      "start": 52.5815,
      "duration": 0.0167,
      "velocity": 68,
      "chip": "ym2612"
    },
    {
      "channel": 2,
      "note": 78,
      "start": 52.5974,
      "duration": 0.0182,
      "velocity": 69,
      "chip": "ym2612"
    },
    {
      "channel": 3,
      "note": 75,
      "start": 52.5977,
      "duration": 0.0181,
      "velocity": 69,
      "chip": "ym2612"
    },
    {
      "channel": 4,
      "note": 72,
      "start": 52.5979,
      "duration": 0.0181,
      "velocity": 68,
      "chip": "ym2612"
    },
    {
      "channel": 5,
      "note": 66,
      "start": 52.5981,
      "duration": 0.0182,
      "velocity": 68,
      "chip": "ym2612"
    },
    {
      "channel": 0,
      "note": 98,
      "start": 52.6145,
      "duration": 0.0832,
      "velocity": 104,
      "chip": "ym2612"
    },
    {
      "channel": 1,
      "note": 26,
      "start": 52.615,
      "duration": 0.0832,
      "velocity": 91,
      "chip": "ym2612"
    },
    {
      "channel": 2,
      "note": 77,
      "start": 52.6156,
      "duration": 0.0151,
      "velocity": 69,
      "chip": "ym2612"
    },
    {
      "channel": 3,
      "note": 75,
      "start": 52.6158,
      "duration": 0.0152,
      "velocity": 69,
      "chip": "ym2612"
    },
    {
      "channel": 4,
      "note": 72,
      "start": 52.6161,
      "duration": 0.0152,
      "velocity": 68,
      "chip": "ym2612"
    },
    {
      "channel": 5,
      "note": 65,
      "start": 52.6163,
      "duration": 0.0151,
      "velocity": 68,
      "chip": "ym2612"
    },
    {
      "channel": 2,
      "note": 77,
      "start": 52.6307,
      "duration": 0.0167,
      "velocity": 69,
      "chip": "ym2612"
    },
    {
      "channel": 3,
      "note": 74,
      "start": 52.631,
      "duration": 0.0167,
      "velocity": 69,
      "chip": "ym2612"
    },
    {
      "channel": 4,
      "note": 72,
      "start": 52.6313,
      "duration": 0.0166,
      "velocity": 68,
      "chip": "ym2612"
    },
    {
      "channel": 5,
      "note": 65,
      "start": 52.6315,
      "duration": 0.0167,
      "velocity": 68,
      "chip": "ym2612"
    },
    {
      "channel": 2,
      "note": 76,
      "start": 52.6474,
      "duration": 0.0167,
      "velocity": 69,
      "chip": "ym2612"
    },
    {
      "channel": 3,
      "note": 74,
      "start": 52.6477,
      "duration": 0.0167,
      "velocity": 69,
      "chip": "ym2612"
    },
    {
      "channel": 4,
      "note": 71,
      "start": 52.6479,
      "duration": 0.0167,
      "velocity": 68,
      "chip": "ym2612"
    },
    {
      "channel": 5,
      "note": 64,
      "start": 52.6481,
      "duration": 0.0167,
      "velocity": 68,
      "chip": "ym2612"
    },
    {
      "channel": 2,
      "note": 75,
      "start": 52.6641,
      "duration": 0.0167,
      "velocity": 69,
      "chip": "ym2612"
    },
    {
      "channel": 3,
      "note": 74,
      "start": 52.6644,
      "duration": 0.0167,
      "velocity": 69,
      "chip": "ym2612"
    },
    {
      "channel": 4,
      "note": 71,
      "start": 52.6646,
      "duration": 0.0166,
      "velocity": 68,
      "chip": "ym2612"
    },
    {
      "channel": 5,
      "note": 63,
      "start": 52.6648,
      "duration": 0.0167,
      "velocity": 68,
      "chip": "ym2612"
    },
    {
      "channel": 2,
      "note": 75,
      "start": 52.6807,
      "duration": 0.0182,
      "velocity": 69,
      "chip": "ym2612"
    },
    {
      "channel": 3,
      "note": 73,
      "start": 52.681,
      "duration": 0.0181,
      "velocity": 69,
      "chip": "ym2612"
    },
    {
      "channel": 4,
      "note": 71,
      "start": 52.6812,
      "duration": 0.0182,
      "velocity": 68,
      "chip": "ym2612"
    },
    {
      "channel": 5,
      "note": 63,
      "start": 52.6815,
      "duration": 0.0182,
      "velocity": 68,
      "chip": "ym2612"
    },
    {
      "channel": 0,
      "note": 84,
      "start": 52.6979,
      "duration": 0.0832,
      "velocity": 104,
      "chip": "ym2612"
    },
    {
      "channel": 1,
      "note": 38,
      "start": 52.6984,
      "duration": 0.1666,
      "velocity": 91,
      "chip": "ym2612"
    },
    {
      "channel": 2,
      "note": 74,
      "start": 52.699,
      "duration": 0.0151,
      "velocity": 69,
      "chip": "ym2612"
    },
    {
      "channel": 3,
      "note": 73,
      "start": 52.6991,
      "duration": 0.0152,
      "velocity": 69,
      "chip": "ym2612"
    },
    {
      "channel": 4,
      "note": 70,
      "start": 52.6994,
      "duration": 0.0151,
      "velocity": 68,
      "chip": "ym2612"
    },
    {
      "channel": 5,
      "note": 62,
      "start": 52.6997,
      "duration": 0.0151,
      "velocity": 68,
      "chip": "ym2612"
    },
    {
      "channel": 2,
      "note": 74,
      "start": 52.7141,
      "duration": 0.0167,
      "velocity": 69,
      "chip": "ym2612"
    },
    {
      "channel": 3,
      "note": 73,
      "start": 52.7144,
      "duration": 0.0167,
      "velocity": 69,
      "chip": "ym2612"
    },
    {
      "channel": 4,
      "note": 70,
      "start": 52.7145,
      "duration": 0.0167,
      "velocity": 68,
      "chip": "ym2612"
    },
    {
      "channel": 5,
      "note": 62,
      "start": 52.7148,
      "duration": 0.0167,
      "velocity": 68,
      "chip": "ym2612"
    },
    {
      "channel": 2,
      "note": 73,
      "start": 52.7307,
      "duration": 0.0167,
      "velocity": 69,
      "chip": "ym2612"
    },
    {
      "channel": 3,
      "note": 72,
      "start": 52.731,
      "duration": 0.0167,
      "velocity": 69,
      "chip": "ym2612"
    },
    {
      "channel": 4,
      "note": 69,
      "start": 52.7313,
      "duration": 0.0166,
      "velocity": 68,
      "chip": "ym2612"
    },
    {
      "channel": 5,
      "note": 61,
      "start": 52.7315,
      "duration": 0.0167,
      "velocity": 68,
      "chip": "ym2612"
    },
    {
      "channel": 2,
      "note": 72,
      "start": 52.7474,
      "duration": 0.0167,
      "velocity": 69,
      "chip": "ym2612"
    },
    {
      "channel": 3,
      "note": 72,
      "start": 52.7477,
      "duration": 0.0167,
      "velocity": 69,
      "chip": "ym2612"
    },
    {
      "channel": 4,
      "note": 69,
      "start": 52.7479,
      "duration": 0.0167,
      "velocity": 68,
      "chip": "ym2612"
    },
    {
      "channel": 5,
      "note": 60,
      "start": 52.7481,
      "duration": 0.0167,
      "velocity": 68,
      "chip": "ym2612"
    },
    {
      "channel": 2,
      "note": 71,
      "start": 52.7641,
      "duration": 0.0177,
      "velocity": 69,
      "chip": "ym2612"
    },
    {
      "channel": 3,
      "note": 72,
      "start": 52.7644,
      "duration": 0.0177,
      "velocity": 69,
      "chip": "ym2612"
    },
    {
      "channel": 4,
      "note": 69,
      "start": 52.7646,
      "duration": 0.0177,
      "velocity": 68,
      "chip": "ym2612"
    },
    {
      "channel": 5,
      "note": 59,
      "start": 52.7648,
      "duration": 0.0177,
      "velocity": 68,
      "chip": "ym2612"
    },
    {
      "channel": 0,
      "note": 91,
      "start": 52.7812,
      "duration": 0.0832,
      "velocity": 104,
      "chip": "ym2612"
    },
    {
      "channel": 2,
      "note": 71,
      "start": 52.7818,
      "duration": 0.0156,
      "velocity": 69,
      "chip": "ym2612"
    },
    {
      "channel": 3,
      "note": 71,
      "start": 52.782,
      "duration": 0.0157,
      "velocity": 69,
      "chip": "ym2612"
    },
    {
      "channel": 4,
      "note": 68,
      "start": 52.7823,
      "duration": 0.0156,
      "velocity": 68,
      "chip": "ym2612"
    },
    {
      "channel": 5,
      "note": 59,
      "start": 52.7825,
      "duration": 0.0156,
      "velocity": 68,
      "chip": "ym2612"
    },
    {
      "channel": 2,
      "note": 70,
      "start": 52.7974,
      "duration": 0.0167,
      "velocity": 69,
      "chip": "ym2612"
    },
    {
      "channel": 3,
      "note": 71,
      "start": 52.7977,
      "duration": 0.0167,
      "velocity": 69,
      "chip": "ym2612"
    },
    {
      "channel": 4,
      "note": 68,
      "start": 52.7979,
      "duration": 0.0167,
      "velocity": 68,
      "chip": "ym2612"
    },
    {
      "channel": 5,
      "note": 58,
      "start": 52.7981,
      "duration": 0.0167,
      "velocity": 68,
      "chip": "ym2612"
    },
    {
      "channel": 2,
      "note": 69,
      "start": 52.8141,
      "duration": 0.0167,
      "velocity": 69,
      "chip": "ym2612"
    },
    {
      "channel": 3,
      "note": 71,
      "start": 52.8144,
      "duration": 0.0167,
      "velocity": 69,
      "chip": "ym2612"
    },
    {
      "channel": 4,
      "note": 67,
      "start": 52.8146,
      "duration": 0.0166,
      "velocity": 68,
      "chip": "ym2612"
    },
    {
      "channel": 5,
      "note": 57,
      "start": 52.8148,
      "duration": 0.0167,
      "velocity": 68,
      "chip": "ym2612"
    },
    {
      "channel": 2,
      "note": 68,
      "start": 52.8307,
      "duration": 0.0167,
      "velocity": 69,
      "chip": "ym2612"
    },
    {
      "channel": 3,
      "note": 70,
      "start": 52.831,
      "duration": 0.0167,
      "velocity": 69,
      "chip": "ym2612"
    },
    {
      "channel": 4,
      "note": 67,
      "start": 52.8312,
      "duration": 0.0167,
      "velocity": 68,
      "chip": "ym2612"
    },
    {
      "channel": 5,
      "note": 56,
      "start": 52.8315,
      "duration": 0.0167,
      "velocity": 68,
      "chip": "ym2612"
    },
    {
      "channel": 2,
      "note": 67,
      "start": 52.8474,
      "duration": 0.0182,
      "velocity": 69,
      "chip": "ym2612"
    },
    {
      "channel": 3,
      "note": 70,
      "start": 52.8477,
      "duration": 0.0181,
      "velocity": 69,
      "chip": "ym2612"
    },
    {
      "channel": 4,
      "note": 66,
      "start": 52.8479,
      "duration": 0.0182,
      "velocity": 68,
      "chip": "ym2612"
    },
    {
      "channel": 5,
      "note": 55,
      "start": 52.8481,
      "duration": 0.0182,
      "velocity": 68,
      "chip": "ym2612"
    },
    {
      "channel": 0,
      "note": 94,
      "start": 52.8646,
      "duration": 0.0831,
      "velocity": 104,
      "chip": "ym2612"
    },
    {
      "channel": 1,
      "note": 26,
      "start": 52.865,
      "duration": 0.25,
      "velocity": 91,
      "chip": "ym2612"
    },
    {
      "channel": 2,
      "note": 66,
      "start": 52.8656,
      "duration": 0.0151,
      "velocity": 69,
      "chip": "ym2612"
    },
    {
      "channel": 3,
      "note": 69,
      "start": 52.8658,
      "duration": 0.0152,
      "velocity": 69,
      "chip": "ym2612"
    },
    {
      "channel": 4,
      "note": 66,
      "start": 52.8661,
      "duration": 0.0151,
      "velocity": 68,
      "chip": "ym2612"
    },
    {
      "channel": 5,
      "note": 54,
      "start": 52.8663,
      "duration": 0.0151,
      "velocity": 68,
      "chip": "ym2612"
    },
    {
      "channel": 2,
      "note": 65,
      "start": 52.8807,
      "duration": 0.0167,
      "velocity": 69,
      "chip": "ym2612"
    },
    {
      "channel": 3,
      "note": 69,
      "start": 52.881,
      "duration": 0.0167,
      "velocity": 69,
      "chip": "ym2612"
    },
    {
      "channel": 4,
      "note": 65,
      "start": 52.8812,
      "duration": 0.0167,
      "velocity": 68,
      "chip": "ym2612"
    },
    {
      "channel": 5,
      "note": 53,
      "start": 52.8815,
      "duration": 0.0167,
      "velocity": 68,
      "chip": "ym2612"
    },
    {
      "channel": 2,
      "note": 64,
      "start": 52.8974,
      "duration": 0.0167,
      "velocity": 69,
      "chip": "ym2612"
    },
    {
      "channel": 3,
      "note": 69,
      "start": 52.8977,
      "duration": 0.0167,
      "velocity": 69,
      "chip": "ym2612"
    },
    {
      "channel": 4,
      "note": 65,
      "start": 52.8979,
      "duration": 0.0166,
      "velocity": 68,
      "chip": "ym2612"
    },
    {
      "channel": 5,
      "note": 52,
      "start": 52.8981,
      "duration": 0.0167,
      "velocity": 68,
      "chip": "ym2612"
    },
    {
      "channel": 2,
      "note": 63,
      "start": 52.9141,
      "duration": 0.0167,
      "velocity": 69,
      "chip": "ym2612"
    },
    {
      "channel": 3,
      "note": 68,
      "start": 52.9144,
      "duration": 0.0167,
      "velocity": 69,
      "chip": "ym2612"
    },
    {
      "channel": 4,
      "note": 64,
      "start": 52.9145,
      "duration": 0.0167,
      "velocity": 68,
      "chip": "ym2612"
    },
    {
      "channel": 5,
      "note": 51,
      "start": 52.9148,
      "duration": 0.0167,
      "velocity": 68,
      "chip": "ym2612"
    },
    {
      "channel": 2,
      "note": 62,
      "start": 52.9307,
      "duration": 0.0178,
      "velocity": 69,
      "chip": "ym2612"
    },
    {
      "channel": 3,
      "note": 68,
      "start": 52.931,
      "duration": 0.0177,
      "velocity": 69,
      "chip": "ym2612"
    },
    {
      "channel": 4,
      "note": 64,
      "start": 52.9312,
      "duration": 0.0178,
      "velocity": 68,
      "chip": "ym2612"
    },
    {
      "channel": 5,
      "note": 50,
      "start": 52.9315,
      "duration": 0.0178,
      "velocity": 68,
      "chip": "ym2612"
    },
    {
      "channel": 0,
      "note": 98,
      "start": 52.9479,
      "duration": 0.0832,
      "velocity": 104,
      "chip": "ym2612"
    },
    {
      "channel": 2,
      "note": 61,
      "start": 52.9485,
      "duration": 0.0156,
      "velocity": 69,
      "chip": "ym2612"
    },
    {
      "channel": 3,
      "note": 67,
      "start": 52.9487,
      "duration": 0.0157,
      "velocity": 69,
      "chip": "ym2612"
    },
    {
      "channel": 4,
      "note": 63,
      "start": 52.949,
      "duration": 0.0156,
      "velocity": 68,
      "chip": "ym2612"
    },
    {
      "channel": 5,
      "note": 49,
      "start": 52.9492,
      "duration": 0.0156,
      "velocity": 68,
      "chip": "ym2612"
    },
    {
      "channel": 2,
      "note": 59,
      "start": 52.9641,
      "duration": 0.0167,
      "velocity": 69,
      "chip": "ym2612"
    },
    {
      "channel": 3,
      "note": 67,
      "start": 52.9644,
      "duration": 0.0167,
      "velocity": 69,
      "chip": "ym2612"
    },
    {
      "channel": 4,
      "note": 62,
      "start": 52.9645,
      "duration": 0.0167,
      "velocity": 68,
      "chip": "ym2612"
    },
    {
      "channel": 5,
      "note": 47,
      "start": 52.9648,
      "duration": 0.0167,
      "velocity": 68,
      "chip": "ym2612"
    },
    {
      "channel": 2,
      "note": 58,
      "start": 52.9807,
      "duration": 0.0167,
      "velocity": 69,
      "chip": "ym2612"
    },
    {
      "channel": 3,
      "note": 66,
      "start": 52.981,
      "duration": 0.0167,
      "velocity": 69,
      "chip": "ym2612"
    },
    {
      "channel": 4,
      "note": 62,
      "start": 52.9813,
      "duration": 0.0166,
      "velocity": 68,
      "chip": "ym2612"
    },
    {
      "channel": 5,
      "note": 46,
      "start": 52.9815,
      "duration": 0.0167,
      "velocity": 68,
      "chip": "ym2612"
    },
    {
      "channel": 2,
      "note": 56,
      "start": 52.9974,
      "duration": 0.0167,
      "velocity": 69,
      "chip": "ym2612"
    },
    {
      "channel": 3,
      "note": 66,
      "start": 52.9977,
      "duration": 0.0167,
      "velocity": 69,
      "chip": "ym2612"
    },
    {
      "channel": 4,
      "note": 61,
      "start": 52.9979,
      "duration": 0.0167,
      "velocity": 68,
      "chip": "ym2612"
    },
    {
      "channel": 5,
      "note": 44,
      "start": 52.9981,
      "duration": 0.0167,
      "velocity": 68,
      "chip": "ym2612"
    },
    {
      "channel": 2,
      "note": 54,
      "start": 53.0141,
      "duration": 0.0176,
      "velocity": 69,
      "chip": "ym2612"
    },
    {
      "channel": 3,
      "note": 65,
      "start": 53.0144,
      "duration": 0.0179,
      "velocity": 69,
      "chip": "ym2612"
    },
    {
      "channel": 4,
      "note": 60,
      "start": 53.0145,
      "duration": 0.0182,
      "velocity": 68,
      "chip": "ym2612"
    },
    {
      "channel": 5,
      "note": 42,
      "start": 53.0148,
      "duration": 0.0185,
      "velocity": 68,
      "chip": "ym2612"
    },
    {
      "channel": 0,
      "note": 87,
      "start": 53.0313,
      "duration": 0.0832,
      "velocity": 104,
      "chip": "ym2612"
    },
    {
      "channel": 2,
      "note": 87,
      "start": 53.0319,
      "duration": 2.0009,
      "velocity": 69,
      "chip": "ym2612"
    },
    {
      "channel": 3,
      "note": 84,
      "start": 53.0324,
      "duration": 2.0006,
      "velocity": 69,
      "chip": "ym2612"
    },
    {
      "channel": 4,
      "note": 79,
      "start": 53.0329,
      "duration": 2.0003,
      "velocity": 68,
      "chip": "ym2612"
    },
    {
      "channel": 5,
      "note": 75,
      "start": 53.0334,
      "duration": 2.0001,
      "velocity": 68,
      "chip": "ym2612"
    },
    {
      "channel": 0,
      "note": 92,
      "start": 53.1147,
      "duration": 0.0831,
      "velocity": 104,
      "chip": "ym2612"
    },
    {
      "channel": 1,
      "note": 26,
      "start": 53.1152,
      "duration": 0.1664,
      "velocity": 91,
      "chip": "ym2612"
    },
    {
      "channel": 0,
      "note": 96,
      "start": 53.1979,
      "duration": 0.0832,
      "velocity": 104,
      "chip": "ym2612"
    },
    {
      "channel": 0,
      "note": 99,
      "start": 53.2812,
      "duration": 0.0832,
      "velocity": 104,
      "chip": "ym2612"
    },
    {
      "channel": 1,
      "note": 26,
      "start": 53.2817,
      "duration": 0.0832,
      "velocity": 91,
      "chip": "ym2612"
    },
    {
      "channel": 0,
      "note": 87,
      "start": 53.3645,
      "duration": 0.0832,
      "velocity": 104,
      "chip": "ym2612"
    },
    {
      "channel": 1,
      "note": 38,
      "start": 53.365,
      "duration": 0.1666,
      "velocity": 91,
      "chip": "ym2612"
    },
    {
      "channel": 0,
      "note": 92,
      "start": 53.4479,
      "duration": 0.0832,
      "velocity": 104,
      "chip": "ym2612"
    },
    {
      "channel": 0,
      "note": 96,
      "start": 53.5312,
      "duration": 0.0832,
      "velocity": 104,
      "chip": "ym2612"
    },
    {
      "channel": 1,
      "note": 26,
      "start": 53.5317,
      "duration": 0.1666,
      "velocity": 91,
      "chip": "ym2612"
    },
    {
      "channel": 0,
      "note": 99,
      "start": 53.6145,
      "duration": 0.0832,
      "velocity": 104,
      "chip": "ym2612"
    },
    {
      "channel": 0,
      "note": 87,
      "start": 53.6979,
      "duration": 0.0832,
      "velocity": 104,
      "chip": "ym2612"
    },
    {
      "channel": 1,
      "note": 26,
      "start": 53.6984,
      "duration": 0.0832,
      "velocity": 91,
      "chip": "ym2612"
    },
    {
      "channel": 0,
      "note": 92,
      "start": 53.7812,
      "duration": 0.0832,
      "velocity": 104,
      "chip": "ym2612"
    },
    {
      "channel": 1,
      "note": 26,
      "start": 53.7817,
      "duration": 0.1666,
      "velocity": 91,
      "chip": "ym2612"
    },
    {
      "channel": 0,
      "note": 96,
      "start": 53.8645,
      "duration": 0.0832,
      "velocity": 104,
      "chip": "ym2612"
    },
    {
      "channel": 0,
      "note": 99,
      "start": 53.9479,
      "duration": 0.0832,
      "velocity": 104,
      "chip": "ym2612"
    },
    {
      "channel": 1,
      "note": 26,
      "start": 53.9484,
      "duration": 0.0832,
      "velocity": 91,
      "chip": "ym2612"
    },
    {
      "channel": 0,
      "note": 87,
      "start": 54.0312,
      "duration": 0.0832,
      "velocity": 104,
      "chip": "ym2612"
    },
    {
      "channel": 1,
      "note": 38,
      "start": 54.0317,
      "duration": 0.1665,
      "velocity": 91,
      "chip": "ym2612"
    },
    {
      "channel": 0,
      "note": 92,
      "start": 54.1145,
      "duration": 0.0832,
      "velocity": 104,
      "chip": "ym2612"
    },
    {
      "channel": 0,
      "note": 96,
      "start": 54.1979,
      "duration": 0.0832,
      "velocity": 104,
      "chip": "ym2612"
    },
    {
      "channel": 1,
      "note": 26,
      "start": 54.1984,
      "duration": 0.2498,
      "velocity": 91,
      "chip": "ym2612"
    },
    {
      "channel": 0,
      "note": 99,
      "start": 54.2812,
      "duration": 0.0832,
      "velocity": 104,
      "chip": "ym2612"
    },
    {
      "channel": 0,
      "note": 89,
      "start": 54.3645,
      "duration": 0.0832,
      "velocity": 104,
      "chip": "ym2612"
    },
    {
      "channel": 0,
      "note": 94,
      "start": 54.4479,
      "duration": 0.0832,
      "velocity": 104,
      "chip": "ym2612"
    },
    {
      "channel": 1,
      "note": 26,
      "start": 54.4484,
      "duration": 0.1666,
      "velocity": 91,
      "chip": "ym2612"
    },
    {
      "channel": 0,
      "note": 98,
      "start": 54.5312,
      "duration": 0.0832,
      "velocity": 104,
      "chip": "ym2612"
    },
    {
      "channel": 0,
      "note": 101,
      "start": 54.6145,
      "duration": 0.0832,
      "velocity": 104,
      "chip": "ym2612"
    },
    {
      "channel": 1,
      "note": 26,
      "start": 54.615,
      "duration": 0.0832,
      "velocity": 91,
      "chip": "ym2612"
    },
    {
      "channel": 0,
      "note": 89,
      "start": 54.6979,
      "duration": 0.0832,
      "velocity": 104,
      "chip": "ym2612"
    },
    {
      "channel": 1,
      "note": 38,
      "start": 54.6984,
      "duration": 0.1666,
      "velocity": 91,
      "chip": "ym2612"
    },
    {
      "channel": 0,
      "note": 94,
      "start": 54.7813,
      "duration": 0.0831,
      "velocity": 104,
      "chip": "ym2612"
    },
    {
      "channel": 0,
      "note": 98,
      "start": 54.8645,
      "duration": 0.0832,
      "velocity": 104,
      "chip": "ym2612"
    },
    {
      "channel": 1,
      "note": 26,
      "start": 54.865,
      "duration": 0.1666,
      "velocity": 91,
      "chip": "ym2612"
    },
    {
      "channel": 0,
      "note": 101,
      "start": 54.9479,
      "duration": 0.0833,
      "velocity": 104,
      "chip": "ym2612"
    },
    {
      "channel": 0,
      "note": 89,
      "start": 55.0313,
      "duration": 0.0832,
      "velocity": 104,
      "chip": "ym2612"
    },
    {
      "channel": 1,
      "note": 26,
      "start": 55.0318,
      "duration": 0.0832,
      "velocity": 91,
      "chip": "ym2612"
    },
    {
      "channel": 2,
      "note": 87,
      "start": 55.0328,
      "duration": 0.0146,
      "velocity": 69,
      "chip": "ym2612"
    },
    {
      "channel": 3,
      "note": 84,
      "start": 55.033,
      "duration": 0.0147,
      "velocity": 69,
      "chip": "ym2612"
    },
    {
      "channel": 4,
      "note": 79,
      "start": 55.0332,
      "duration": 0.0146,
      "velocity": 68,
      "chip": "ym2612"
    },
    {
      "channel": 5,
      "note": 75,
      "start": 55.0335,
      "duration": 0.0146,
      "velocity": 68,
      "chip": "ym2612"
    },
    {
      "channel": 2,
      "note": 86,
      "start": 55.0474,
      "duration": 0.0167,
      "velocity": 69,
      "chip": "ym2612"
    },
    {
      "channel": 3,
      "note": 83,
      "start": 55.0477,
      "duration": 0.0167,
      "velocity": 69,
      "chip": "ym2612"
    },
    {
      "channel": 4,
      "note": 79,
      "start": 55.0479,
      "duration": 0.0167,
      "velocity": 68,
      "chip": "ym2612"
    },
    {
      "channel": 5,
      "note": 74,
      "start": 55.0481,
      "duration": 0.0167,
      "velocity": 68,
      "chip": "ym2612"
    },
    {
      "channel": 2,
      "note": 86,
      "start": 55.0641,
      "duration": 0.0167,
      "velocity": 69,
      "chip": "ym2612"
    },
    {
      "channel": 3,
      "note": 83,
      "start": 55.0644,
      "duration": 0.0167,
      "velocity": 69,
      "chip": "ym2612"
    },
    {
      "channel": 4,
      "note": 78,
      "start": 55.0646,
      "duration": 0.0166,
      "velocity": 68,
      "chip": "ym2612"
    },
    {
      "channel": 5,
      "note": 74,
      "start": 55.0648,
      "duration": 0.0167,
      "velocity": 68,
      "chip": "ym2612"
    },
    {
      "channel": 2,
      "note": 86,
      "start": 55.0807,
      "duration": 0.0167,
      "velocity": 69,
      "chip": "ym2612"
    },
    {
      "channel": 3,
      "note": 83,
      "start": 55.081,
      "duration": 0.0167,
      "velocity": 69,
      "chip": "ym2612"
    },
    {
      "channel": 4,
      "note": 78,
      "start": 55.0812,
      "duration": 0.0167,
      "velocity": 68,
      "chip": "ym2612"
    },
    {
      "channel": 5,
      "note": 74,
      "start": 55.0815,
      "duration": 0.0167,
      "velocity": 68,
      "chip": "ym2612"
    },
    {
      "channel": 2,
      "note": 85,
      "start": 55.0974,
      "duration": 0.0183,
      "velocity": 69,
      "chip": "ym2612"
    },
    {
      "channel": 3,
      "note": 82,
      "start": 55.0977,
      "duration": 0.0183,
      "velocity": 69,
      "chip": "ym2612"
    },
    {
      "channel": 4,
      "note": 78,
      "start": 55.0979,
      "duration": 0.0183,
      "velocity": 68,
      "chip": "ym2612"
    },
    {
      "channel": 5,
      "note": 73,
      "start": 55.0981,
      "duration": 0.0183,
      "velocity": 68,
      "chip": "ym2612"
    },
    {
      "channel": 0,
      "note": 94,
      "start": 55.1147,
      "duration": 0.083,
      "velocity": 104,
      "chip": "ym2612"
    },
    {
      "channel": 1,
      "note": 26,
      "start": 55.1152,
      "duration": 0.1664,
      "velocity": 91,
      "chip": "ym2612"
    },
    {
      "channel": 2,
      "note": 85,
      "start": 55.1157,
      "duration": 0.015,
      "velocity": 69,
      "chip": "ym2612"
    },
    {
      "channel": 3,
      "note": 82,
      "start": 55.1159,
      "duration": 0.0151,
      "velocity": 69,
      "chip": "ym2612"
    },
    {
      "channel": 4,
      "note": 78,
      "start": 55.1162,
      "duration": 0.0151,
      "velocity": 68,
      "chip": "ym2612"
    },
    {
      "channel": 5,
      "note": 73,
      "start": 55.1164,
      "duration": 0.015,
      "velocity": 68,
      "chip": "ym2612"
    },
    {
      "channel": 2,
      "note": 85,
      "start": 55.1307,
      "duration": 0.0167,
      "velocity": 69,
      "chip": "ym2612"
    },
    {
      "channel": 3,
      "note": 81,
      "start": 55.131,
      "duration": 0.0167,
      "velocity": 69,
      "chip": "ym2612"
    },
    {
      "channel": 4,
      "note": 77,
      "start": 55.1313,
      "duration": 0.0166,
      "velocity": 68,
      "chip": "ym2612"
    },
    {
      "channel": 5,
      "note": 73,
      "start": 55.1315,
      "duration": 0.0167,
      "velocity": 68,
      "chip": "ym2612"
    },
    {
      "channel": 2,
      "note": 84,
      "start": 55.1474,
      "duration": 0.0167,
      "velocity": 69,
      "chip": "ym2612"
    },
    {
      "channel": 3,
      "note": 81,
      "start": 55.1477,
      "duration": 0.0167,
      "velocity": 69,
      "chip": "ym2612"
    },
    {
      "channel": 4,
      "note": 77,
      "start": 55.1479,
      "duration": 0.0167,
      "velocity": 68,
      "chip": "ym2612"
    },
    {
      "channel": 5,
      "note": 72,
      "start": 55.1481,
      "duration": 0.0167,
      "velocity": 68,
      "chip": "ym2612"
    },
    {
      "channel": 2,
      "note": 84,
      "start": 55.1641,
      "duration": 0.0167,
      "velocity": 69,
      "chip": "ym2612"
    },
    {
      "channel": 3,
      "note": 80,
      "start": 55.1644,
      "duration": 0.0167,
      "velocity": 69,
      "chip": "ym2612"
    },
    {
      "channel": 4,
      "note": 77,
      "start": 55.1646,
      "duration": 0.0166,
      "velocity": 68,
      "chip": "ym2612"
    },
    {
      "channel": 5,
      "note": 72,
      "start": 55.1648,
      "duration": 0.0167,
      "velocity": 68,
      "chip": "ym2612"
    },
    {
      "channel": 2,
      "note": 84,
      "start": 55.1807,
      "duration": 0.0177,
      "velocity": 69,
      "chip": "ym2612"
    },
    {
      "channel": 3,
      "note": 80,
      "start": 55.181,
      "duration": 0.0177,
      "velocity": 69,
      "chip": "ym2612"
    },
    {
      "channel": 4,
      "note": 76,
      "start": 55.1812,
      "duration": 0.0178,
      "velocity": 68,
      "chip": "ym2612"
    },
    {
      "channel": 5,
      "note": 72,
      "start": 55.1815,
      "duration": 0.0177,
      "velocity": 68,
      "chip": "ym2612"
    },
    {
      "channel": 0,
      "note": 98,
      "start": 55.1979,
      "duration": 0.0832,
      "velocity": 104,
      "chip": "ym2612"
    },
    {
      "channel": 2,
      "note": 83,
      "start": 55.1984,
      "duration": 0.0156,
      "velocity": 69,
      "chip": "ym2612"
    },
    {
      "channel": 3,
      "note": 80,
      "start": 55.1987,
      "duration": 0.0157,
      "velocity": 69,
      "chip": "ym2612"
    },
    {
      "channel": 4,
      "note": 76,
      "start": 55.199,
      "duration": 0.0156,
      "velocity": 68,
      "chip": "ym2612"
    },
    {
      "channel": 5,
      "note": 71,
      "start": 55.1991,
      "duration": 0.0156,
      "velocity": 68,
      "chip": "ym2612"
    },
    {
      "channel": 2,
      "note": 83,
      "start": 55.2141,
      "duration": 0.0167,
      "velocity": 69,
      "chip": "ym2612"
    },
    {
      "channel": 3,
      "note": 79,
      "start": 55.2144,
      "duration": 0.0167,
      "velocity": 69,
      "chip": "ym2612"
    },
    {
      "channel": 4,
      "note": 76,
      "start": 55.2145,
      "duration": 0.0167,
      "velocity": 68,
      "chip": "ym2612"
    },
    {
      "channel": 5,
      "note": 71,
      "start": 55.2148,
      "duration": 0.0167,
      "velocity": 68,
      "chip": "ym2612"
    },
    {
      "channel": 2,
      "note": 83,
      "start": 55.2307,
      "duration": 0.0167,
      "velocity": 69,
      "chip": "ym2612"
    },
    {
      "channel": 3,
      "note": 79,
      "start": 55.231,
      "duration": 0.0167,
      "velocity": 69,
      "chip": "ym2612"
    },
    {
      "channel": 4,
      "note": 76,
      "start": 55.2313,
      "duration": 0.0166,
      "velocity": 68,
      "chip": "ym2612"
    },
    {
      "channel": 5,
      "note": 71,
      "start": 55.2315,
      "duration": 0.0167,
      "velocity": 68,
      "chip": "ym2612"
    },
    {
      "channel": 2,
      "note": 82,
      "start": 55.2474,
      "duration": 0.0167,
      "velocity": 69,
      "chip": "ym2612"
    },
    {
      "channel": 3,
      "note": 78,
      "start": 55.2477,
      "duration": 0.0167,
      "velocity": 69,
      "chip": "ym2612"
    },
    {
      "channel": 4,
      "note": 75,
      "start": 55.2479,
      "duration": 0.0167,
      "velocity": 68,
      "chip": "ym2612"
    },
    {
      "channel": 5,
      "note": 70,
      "start": 55.2481,
      "duration": 0.0167,
      "velocity": 68,
      "chip": "ym2612"
    },
    {
      "channel": 2,
      "note": 82,
      "start": 55.2641,
      "duration": 0.0182,
      "velocity": 69,
      "chip": "ym2612"
    },
    {
      "channel": 3,
      "note": 78,
      "start": 55.2644,
      "duration": 0.0181,
      "velocity": 69,
      "chip": "ym2612"
    },
    {
      "channel": 4,
      "note": 75,
      "start": 55.2646,
      "duration": 0.0181,
      "velocity": 68,
      "chip": "ym2612"
    },
    {
      "channel": 5,
      "note": 70,
      "start": 55.2648,
      "duration": 0.0182,
      "velocity": 68,
      "chip": "ym2612"
    },
    {
      "channel": 0,
      "note": 101,
      "start": 55.2812,
      "duration": 0.0832,
      "velocity": 104,
      "chip": "ym2612"
    },
    {
      "channel": 1,
      "note": 26,
      "start": 55.2817,
      "duration": 0.0832,
      "velocity": 91,
      "chip": "ym2612"
    },
    {
      "channel": 2,
      "note": 81,
      "start": 55.2823,
      "duration": 0.0151,
      "velocity": 69,
      "chip": "ym2612"
    },
    {
      "channel": 3,
      "note": 77,
      "start": 55.2825,
      "duration": 0.0152,
      "velocity": 69,
      "chip": "ym2612"
    },
    {
      "channel": 4,
      "note": 75,
      "start": 55.2827,
      "duration": 0.0152,
      "velocity": 68,
      "chip": "ym2612"
    },
    {
      "channel": 5,
      "note": 69,
      "start": 55.283,
      "duration": 0.0151,
      "velocity": 68,
      "chip": "ym2612"
    },
    {
      "channel": 2,
      "note": 81,
      "start": 55.2974,
      "duration": 0.0167,
      "velocity": 69,
      "chip": "ym2612"
    },
    {
      "channel": 3,
      "note": 77,
      "start": 55.2977,
      "duration": 0.0167,
      "velocity": 69,
      "chip": "ym2612"
    },
    {
      "channel": 4,
      "note": 74,
      "start": 55.2979,
      "duration": 0.0166,
      "velocity": 68,
      "chip": "ym2612"
    },
    {
      "channel": 5,
      "note": 69,
      "start": 55.2981,
      "duration": 0.0167,
      "velocity": 68,
      "chip": "ym2612"
    },
    {
      "channel": 2,
      "note": 81,
      "start": 55.3141,
      "duration": 0.0167,
      "velocity": 69,
      "chip": "ym2612"
    },
    {
      "channel": 3,
      "note": 76,
      "start": 55.3144,
      "duration": 0.0167,
      "velocity": 69,
      "chip": "ym2612"
    },
    {
      "channel": 4,
      "note": 74,
      "start": 55.3145,
      "duration": 0.0167,
      "velocity": 68,
      "chip": "ym2612"
    },
    {
      "channel": 5,
      "note": 69,
      "start": 55.3148,
      "duration": 0.0167,
      "velocity": 68,
      "chip": "ym2612"
    },
    {
      "channel": 2,
      "note": 80,
      "start": 55.3307,
      "duration": 0.0167,
      "velocity": 69,
      "chip": "ym2612"
    },
    {
      "channel": 3,
      "note": 75,
      "start": 55.331,
      "duration": 0.0167,
      "velocity": 69,
      "chip": "ym2612"
    },
    {
      "channel": 4,
      "note": 74,
      "start": 55.3312,
      "duration": 0.0167,
      "velocity": 68,
      "chip": "ym2612"
    },
    {
      "channel": 5,
      "note": 68,
      "start": 55.3315,
      "duration": 0.0167,
      "velocity": 68,
      "chip": "ym2612"
    },
    {
      "channel": 2,
      "note": 80,
      "start": 55.3474,
      "duration": 0.0182,
      "velocity": 69,
      "chip": "ym2612"
    },
    {
      "channel": 3,
      "note": 75,
      "start": 55.3477,
      "duration": 0.0181,
      "velocity": 69,
      "chip": "ym2612"
    },
    {
      "channel": 4,
      "note": 73,
      "start": 55.3479,
      "duration": 0.0181,
      "velocity": 68,
      "chip": "ym2612"
    },
    {
      "channel": 5,
      "note": 68,
      "start": 55.3481,
      "duration": 0.0182,
      "velocity": 68,
      "chip": "ym2612"
    },
    {
      "channel": 0,
      "note": 89,
      "start": 55.3645,
      "duration": 0.0832,
      "velocity": 104,
      "chip": "ym2612"
    },
    {
      "channel": 1,
      "note": 38,
      "start": 55.365,
      "duration": 0.1666,
      "velocity": 91,
      "chip": "ym2612"
    },
    {
      "channel": 2,
      "note": 79,
      "start": 55.3656,
      "duration": 0.0151,
      "velocity": 69,
      "chip": "ym2612"
    },
    {
      "channel": 3,
      "note": 74,
      "start": 55.3658,
      "duration": 0.0152,
      "velocity": 69,
      "chip": "ym2612"
    },
    {
      "channel": 4,
      "note": 73,
      "start": 55.3661,
      "duration": 0.0152,
      "velocity": 68,
      "chip": "ym2612"
    },
    {
      "channel": 5,
      "note": 67,
      "start": 55.3663,
      "duration": 0.0151,
      "velocity": 68,
      "chip": "ym2612"
    },
    {
      "channel": 2,
      "note": 79,
      "start": 55.3807,
      "duration": 0.0167,
      "velocity": 69,
      "chip": "ym2612"
    },
    {
      "channel": 3,
      "note": 74,
      "start": 55.381,
      "duration": 0.0167,
      "velocity": 69,
      "chip": "ym2612"
    },
    {
      "channel": 4,
      "note": 73,
      "start": 55.3813,
      "duration": 0.0166,
      "velocity": 68,
      "chip": "ym2612"
    },
    {
      "channel": 5,
      "note": 67,
      "start": 55.3815,
      "duration": 0.0167,
      "velocity": 68,
      "chip": "ym2612"
    },
    {
      "channel": 2,
      "note": 78,
      "start": 55.3974,
      "duration": 0.0167,
      "velocity": 69,
      "chip": "ym2612"
    },
    {
      "channel": 3,
      "note": 73,
      "start": 55.3977,
      "duration": 0.0167,
      "velocity": 69,
      "chip": "ym2612"
    },
    {
      "channel": 4,
      "note": 72,
      "start": 55.3979,
      "duration": 0.0167,
      "velocity": 68,
      "chip": "ym2612"
    },
    {
      "channel": 5,
      "note": 66,
      "start": 55.3981,
      "duration": 0.0167,
      "velocity": 68,
      "chip": "ym2612"
    },
    {
      "channel": 2,
      "note": 78,
      "start": 55.4141,
      "duration": 0.0167,
      "velocity": 69,
      "chip": "ym2612"
    },
    {
      "channel": 3,
      "note": 72,
      "start": 55.4144,
      "duration": 0.0167,
      "velocity": 69,
      "chip": "ym2612"
    },
    {
      "channel": 4,
      "note": 72,
      "start": 55.4145,
      "duration": 0.0167,
      "velocity": 68,
      "chip": "ym2612"
    },
    {
      "channel": 5,
      "note": 66,
      "start": 55.4148,
      "duration": 0.0167,
      "velocity": 68,
      "chip": "ym2612"
    },
    {
      "channel": 2,
      "note": 77,
      "start": 55.4307,
      "duration": 0.0177,
      "velocity": 69,
      "chip": "ym2612"
    },
    {
      "channel": 3,
      "note": 71,
      "start": 55.431,
      "duration": 0.0177,
      "velocity": 69,
      "chip": "ym2612"
    },
    {
      "channel": 4,
      "note": 72,
      "start": 55.4313,
      "duration": 0.0177,
      "velocity": 68,
      "chip": "ym2612"
    },
    {
      "channel": 5,
      "note": 65,
      "start": 55.4315,
      "duration": 0.0177,
      "velocity": 68,
      "chip": "ym2612"
    },
    {
      "channel": 0,
      "note": 94,
      "start": 55.4479,
      "duration": 0.0832,
      "velocity": 104,
      "chip": "ym2612"
    },
    {
      "channel": 2,
      "note": 77,
      "start": 55.4484,
      "duration": 0.0156,
      "velocity": 69,
      "chip": "ym2612"
    },
    {
      "channel": 3,
      "note": 71,
      "start": 55.4487,
      "duration": 0.0157,
      "velocity": 69,
      "chip": "ym2612"
    },
    {
      "channel": 4,
      "note": 71,
      "start": 55.449,
      "duration": 0.0156,
      "velocity": 68,
      "chip": "ym2612"
    },
    {
      "channel": 5,
      "note": 65,
      "start": 55.4491,
      "duration": 0.0156,
      "velocity": 68,
      "chip": "ym2612"
    },
    {
      "channel": 2,
      "note": 76,
      "start": 55.4641,
      "duration": 0.0167,
      "velocity": 69,
      "chip": "ym2612"
    },
    {
      "channel": 3,
      "note": 70,
      "start": 55.4644,
      "duration": 0.0167,
      "velocity": 69,
      "chip": "ym2612"
    },
    {
      "channel": 4,
      "note": 71,
      "start": 55.4645,
      "duration": 0.0167,
      "velocity": 68,
      "chip": "ym2612"
    },
    {
      "channel": 5,
      "note": 64,
      "start": 55.4648,
      "duration": 0.0167,
      "velocity": 68,
      "chip": "ym2612"
    },
    {
      "channel": 2,
      "note": 76,
      "start": 55.4807,
      "duration": 0.0167,
      "velocity": 69,
      "chip": "ym2612"
    },
    {
      "channel": 3,
      "note": 69,
      "start": 55.481,
      "duration": 0.0167,
      "velocity": 69,
      "chip": "ym2612"
    },
    {
      "channel": 4,
      "note": 71,
      "start": 55.4813,
      "duration": 0.0166,
      "velocity": 68,
      "chip": "ym2612"
    },
    {
      "channel": 5,
      "note": 64,
      "start": 55.4815,
      "duration": 0.0167,
      "velocity": 68,
      "chip": "ym2612"
    },
    {
      "channel": 2,
      "note": 75,
      "start": 55.4974,
      "duration": 0.0167,
      "velocity": 69,
      "chip": "ym2612"
    },
    {
      "channel": 3,
      "note": 68,
      "start": 55.4977,
      "duration": 0.0167,
      "velocity": 69,
      "chip": "ym2612"
    },
    {
      "channel": 4,
      "note": 70,
      "start": 55.4979,
      "duration": 0.0167,
      "velocity": 68,
      "chip": "ym2612"
    },
    {
      "channel": 5,
      "note": 63,
      "start": 55.4981,
      "duration": 0.0167,
      "velocity": 68,
      "chip": "ym2612"
    },
    {
      "channel": 2,
      "note": 74,
      "start": 55.5141,
      "duration": 0.0182,
      "velocity": 69,
      "chip": "ym2612"
    },
    {
      "channel": 3,
      "note": 67,
      "start": 55.5144,
      "duration": 0.0181,
      "velocity": 69,
      "chip": "ym2612"
    },
    {
      "channel": 4,
      "note": 70,
      "start": 55.5146,
      "duration": 0.0181,
      "velocity": 68,
      "chip": "ym2612"
    },
    {
      "channel": 5,
      "note": 62,
      "start": 55.5148,
      "duration": 0.0182,
      "velocity": 68,
      "chip": "ym2612"
    },
    {
      "channel": 0,
      "note": 98,
      "start": 55.5312,
      "duration": 0.0832,
      "velocity": 104,
      "chip": "ym2612"
    },
    {
      "channel": 1,
      "note": 26,
      "start": 55.5317,
      "duration": 0.2496,
      "velocity": 91,
      "chip": "ym2612"
    },
    {
      "channel": 2,
      "note": 74,
      "start": 55.5323,
      "duration": 0.0151,
      "velocity": 69,
      "chip": "ym2612"
    },
    {
      "channel": 3,
      "note": 66,
      "start": 55.5325,
      "duration": 0.0152,
      "velocity": 69,
      "chip": "ym2612"
    },
    {
      "channel": 4,
      "note": 69,
      "start": 55.5327,
      "duration": 0.0152,
      "velocity": 68,
      "chip": "ym2612"
    },
    {
      "channel": 5,
      "note": 62,
      "start": 55.533,
      "duration": 0.0151,
      "velocity": 68,
      "chip": "ym2612"
    },
    {
      "channel": 2,
      "note": 73,
      "start": 55.5474,
      "duration": 0.0167,
      "velocity": 69,
      "chip": "ym2612"
    },
    {
      "channel": 3,
      "note": 65,
      "start": 55.5477,
      "duration": 0.0167,
      "velocity": 69,
      "chip": "ym2612"
    },
    {
      "channel": 4,
      "note": 69,
      "start": 55.5479,
      "duration": 0.0166,
      "velocity": 68,
      "chip": "ym2612"
    },
    {
      "channel": 5,
      "note": 61,
      "start": 55.5481,
      "duration": 0.0167,
      "velocity": 68,
      "chip": "ym2612"
    },
    {
      "channel": 2,
      "note": 72,
      "start": 55.5641,
      "duration": 0.0167,
      "velocity": 69,
      "chip": "ym2612"
    },
    {
      "channel": 3,
      "note": 64,
      "start": 55.5644,
      "duration": 0.0167,
      "velocity": 69,
      "chip": "ym2612"
    },
    {
      "channel": 4,
      "note": 69,
      "start": 55.5645,
      "duration": 0.0167,
      "velocity": 68,
      "chip": "ym2612"
    },
    {
      "channel": 5,
      "note": 60,
      "start": 55.5648,
      "duration": 0.0167,
      "velocity": 68,
      "chip": "ym2612"
    },
    {
      "channel": 2,
      "note": 72,
      "start": 55.5807,
      "duration": 0.0167,
      "velocity": 69,
      "chip": "ym2612"
    },
    {
      "channel": 3,
      "note": 63,
      "start": 55.581,
      "duration": 0.0167,
      "velocity": 69,
      "chip": "ym2612"
    },
    {
      "channel": 4,
      "note": 68,
      "start": 55.5813,
      "duration": 0.0166,
      "velocity": 68,
      "chip": "ym2612"
    },
    {
      "channel": 5,
      "note": 60,
      "start": 55.5815,
      "duration": 0.0167,
      "velocity": 68,
      "chip": "ym2612"
    },
    {
      "channel": 2,
      "note": 71,
      "start": 55.5974,
      "duration": 0.0178,
      "velocity": 69,
      "chip": "ym2612"
    },
    {
      "channel": 3,
      "note": 62,
      "start": 55.5977,
      "duration": 0.0177,
      "velocity": 69,
      "chip": "ym2612"
    },
    {
      "channel": 4,
      "note": 68,
      "start": 55.5979,
      "duration": 0.0178,
      "velocity": 68,
      "chip": "ym2612"
    },
    {
      "channel": 5,
      "note": 59,
      "start": 55.5981,
      "duration": 0.0178,
      "velocity": 68,
      "chip": "ym2612"
    },
    {
      "channel": 0,
      "note": 101,
      "start": 55.6146,
      "duration": 0.0847,
      "velocity": 111,
      "chip": "ym2612"
    },
    {
      "channel": 2,
      "note": 70,
      "start": 55.6152,
      "duration": 0.0156,
      "velocity": 69,
      "chip": "ym2612"
    },
    {
      "channel": 3,
      "note": 61,
      "start": 55.6154,
      "duration": 0.0156,
      "velocity": 69,
      "chip": "ym2612"
    },
    {
      "channel": 4,
      "note": 67,
      "start": 55.6156,
      "duration": 0.0156,
      "velocity": 68,
      "chip": "ym2612"
    },
    {
      "channel": 5,
      "note": 58,
      "start": 55.6159,
      "duration": 0.0156,
      "velocity": 68,
      "chip": "ym2612"
    },
    {
      "channel": 2,
      "note": 69,
      "start": 55.6307,
      "duration": 0.0167,
      "velocity": 69,
      "chip": "ym2612"
    },
    {
      "channel": 3,
      "note": 59,
      "start": 55.631,
      "duration": 0.0167,
      "velocity": 69,
      "chip": "ym2612"
    },
    {
      "channel": 4,
      "note": 67,
      "start": 55.6312,
      "duration": 0.0167,
      "velocity": 68,
      "chip": "ym2612"
    },
    {
      "channel": 5,
      "note": 57,
      "start": 55.6315,
      "duration": 0.0167,
      "velocity": 68,
      "chip": "ym2612"
    },
    {
      "channel": 2,
      "note": 68,
      "start": 55.6474,
      "duration": 0.0167,
      "velocity": 69,
      "chip": "ym2612"
    },
    {
      "channel": 3,
      "note": 58,
      "start": 55.6477,
      "duration": 0.0167,
      "velocity": 69,
      "chip": "ym2612"
    },
    {
      "channel": 4,
      "note": 66,
      "start": 55.6479,
      "duration": 0.0166,
      "velocity": 68,
      "chip": "ym2612"
    },
    {
      "channel": 5,
      "note": 56,
      "start": 55.6481,
      "duration": 0.0167,
      "velocity": 68,
      "chip": "ym2612"
    },
    {
      "channel": 2,
      "note": 68,
      "start": 55.6641,
      "duration": 0.0167,
      "velocity": 69,
      "chip": "ym2612"
    },
    {
      "channel": 3,
      "note": 56,
      "start": 55.6644,
      "duration": 0.0167,
      "velocity": 69,
      "chip": "ym2612"
    },
    {
      "channel": 4,
      "note": 66,
      "start": 55.6645,
      "duration": 0.0167,
      "velocity": 68,
      "chip": "ym2612"
    },
    {
      "channel": 5,
      "note": 56,
      "start": 55.6648,
      "duration": 0.0167,
      "velocity": 68,
      "chip": "ym2612"
    },
    {
      "channel": 2,
      "note": 67,
      "start": 55.6807,
      "duration": 0.0205,
      "velocity": 68,
      "chip": "ym2612"
    },
    {
      "channel": 3,
      "note": 54,
      "start": 55.681,
      "duration": 0.0221,
      "velocity": 68,
      "chip": "ym2612"
    },
    {
      "channel": 4,
      "note": 65,
      "start": 55.6813,
      "duration": 0.0238,
      "velocity": 69,
      "chip": "ym2612"
    },
    {
      "channel": 5,
      "note": 55,
      "start": 55.6815,
      "duration": 0.0255,
      "velocity": 69,
      "chip": "ym2612"
    },
    {
      "channel": 0,
      "note": 48,
      "start": 55.6995,
      "duration": 0.1649,
      "velocity": 111,
      "chip": "ym2612"
    },
    {
      "channel": 2,
      "note": 79,
      "start": 55.7014,
      "duration": 2.665,
      "velocity": 127,
      "chip": "ym2612"
    },
    {
      "channel": 3,
      "note": 84,
      "start": 55.7033,
      "duration": 2.6649,
      "velocity": 47,
      "chip": "ym2612"
    },
    {
      "channel": 4,
      "note": 87,
      "start": 55.7052,
      "duration": 2.665,
      "velocity": 47,
      "chip": "ym2612"
    },
    {
      "channel": 5,
      "note": 91,
      "start": 55.7072,
      "duration": 2.665,
      "velocity": 47,
      "chip": "ym2612"
    },
    {
      "channel": 1,
      "note": 26,
      "start": 55.7815,
      "duration": 0.1668,
      "velocity": 91,
      "chip": "ym2612"
    },
    {
      "channel": 0,
      "note": 60,
      "start": 55.8645,
      "duration": 0.0832,
      "velocity": 111,
      "chip": "ym2612"
    },
    {
      "channel": 0,
      "note": 58,
      "start": 55.9479,
      "duration": 0.1665,
      "velocity": 111,
      "chip": "ym2612"
    },
    {
      "channel": 1,
      "note": 26,
      "start": 55.9484,
      "duration": 0.0827,
      "velocity": 91,
      "chip": "ym2612"
    },
    {
      "channel": 1,
      "note": 38,
      "start": 56.0313,
      "duration": 0.1669,
      "velocity": 91,
      "chip": "ym2612"
    },
    {
      "channel": 0,
      "note": 55,
      "start": 56.1145,
      "duration": 0.0832,
      "velocity": 111,
      "chip": "ym2612"
    },
    {
      "channel": 0,
      "note": 58,
      "start": 56.1979,
      "duration": 0.0832,
      "velocity": 111,
      "chip": "ym2612"
    },
    {
      "channel": 1,
      "note": 26,
      "start": 56.1984,
      "duration": 0.1666,
      "velocity": 91,
      "chip": "ym2612"
    },
    {
      "channel": 0,
      "note": 60,
      "start": 56.2812,
      "duration": 0.0832,
      "velocity": 111,
      "chip": "ym2612"
    },
    {
      "channel": 0,
      "note": 48,
      "start": 56.3645,
      "duration": 0.1665,
      "velocity": 111,
      "chip": "ym2612"
    },
    {
      "channel": 1,
      "note": 26,
      "start": 56.365,
      "duration": 0.0827,
      "velocity": 91,
      "chip": "ym2612"
    },
    {
      "channel": 1,
      "note": 26,
      "start": 56.4479,
      "duration": 0.167,
      "velocity": 91,
      "chip": "ym2612"
    },
    {
      "channel": 0,
      "note": 60,
      "start": 56.5313,
      "duration": 0.0831,
      "velocity": 111,
      "chip": "ym2612"
    },
    {
      "channel": 0,
      "note": 58,
      "start": 56.6145,
      "duration": 0.1665,
      "velocity": 111,
      "chip": "ym2612"
    },
    {
      "channel": 1,
      "note": 26,
      "start": 56.615,
      "duration": 0.0827,
      "velocity": 91,
      "chip": "ym2612"
    },
    {
      "channel": 1,
      "note": 38,
      "start": 56.6979,
      "duration": 0.167,
      "velocity": 91,
      "chip": "ym2612"
    },
    {
      "channel": 0,
      "note": 55,
      "start": 56.7812,
      "duration": 0.0832,
      "velocity": 111,
      "chip": "ym2612"
    },
    {
      "channel": 0,
      "note": 58,
      "start": 56.8645,
      "duration": 0.0832,
      "velocity": 111,
      "chip": "ym2612"
    },
    {
      "channel": 1,
      "note": 26,
      "start": 56.865,
      "duration": 0.2494,
      "velocity": 91,
      "chip": "ym2612"
    },
    {
      "channel": 0,
      "note": 60,
      "start": 56.9479,
      "duration": 0.0832,
      "velocity": 111,
      "chip": "ym2612"
    },
    {
      "channel": 0,
      "note": 48,
      "start": 57.0312,
      "duration": 0.1665,
      "velocity": 111,
      "chip": "ym2612"
    },
    {
      "channel": 1,
      "note": 26,
      "start": 57.1146,
      "duration": 0.167,
      "velocity": 91,
      "chip": "ym2612"
    },
    {
      "channel": 0,
      "note": 60,
      "start": 57.1979,
      "duration": 0.0832,
      "velocity": 111,
      "chip": "ym2612"
    },
    {
      "channel": 0,
      "note": 58,
      "start": 57.2812,
      "duration": 0.1665,
      "velocity": 111,
      "chip": "ym2612"
    },
    {
      "channel": 1,
      "note": 26,
      "start": 57.2817,
      "duration": 0.0828,
      "velocity": 91,
      "chip": "ym2612"
    },
    {
      "channel": 1,
      "note": 38,
      "start": 57.3646,
      "duration": 0.167,
      "velocity": 91,
      "chip": "ym2612"
    },
    {
      "channel": 0,
      "note": 55,
      "start": 57.4479,
      "duration": 0.0832,
      "velocity": 111,
      "chip": "ym2612"
    },
    {
      "channel": 0,
      "note": 58,
      "start": 57.5313,
      "duration": 0.0831,
      "velocity": 111,
      "chip": "ym2612"
    },
    {
      "channel": 1,
      "note": 26,
      "start": 57.5317,
      "duration": 0.1666,
      "velocity": 91,
      "chip": "ym2612"
    },
    {
      "channel": 0,
      "note": 60,
      "start": 57.6145,
      "duration": 0.0832,
      "velocity": 111,
      "chip": "ym2612"
    },
    {
      "channel": 0,
      "note": 48,
      "start": 57.6979,
      "duration": 0.1665,
      "velocity": 111,
      "chip": "ym2612"
    },
    {
      "channel": 1,
      "note": 26,
      "start": 57.6984,
      "duration": 0.0827,
      "velocity": 91,
      "chip": "ym2612"
    },
    {
      "channel": 1,
      "note": 26,
      "start": 57.7813,
      "duration": 0.167,
      "velocity": 91,
      "chip": "ym2612"
    },
    {
      "channel": 0,
      "note": 60,
      "start": 57.8645,
      "duration": 0.0832,
      "velocity": 111,
      "chip": "ym2612"
    },
    {
      "channel": 0,
      "note": 58,
      "start": 57.9479,
      "duration": 0.1665,
      "velocity": 111,
      "chip": "ym2612"
    },
    {
      "channel": 1,
      "note": 26,
      "start": 57.9484,
      "duration": 0.0828,
      "velocity": 91,
      "chip": "ym2612"
    },
    {
      "channel": 1,
      "note": 38,
      "start": 58.0313,
      "duration": 0.1669,
      "velocity": 91,
      "chip": "ym2612"
    },
    {
      "channel": 0,
      "note": 55,
      "start": 58.1145,
      "duration": 0.0832,
      "velocity": 111,
      "chip": "ym2612"
    },
    {
      "channel": 0,
      "note": 58,
      "start": 58.1979,
      "duration": 0.0832,
      "velocity": 111,
      "chip": "ym2612"
    },
    {
      "channel": 1,
      "note": 26,
      "start": 58.1984,
      "duration": 0.2496,
      "velocity": 91,
      "chip": "ym2612"
    },
    {
      "channel": 0,
      "note": 60,
      "start": 58.2812,
      "duration": 0.0833,
      "velocity": 111,
      "chip": "ym2612"
    },
    {
      "channel": 0,
      "note": 51,
      "start": 58.3647,
      "duration": 0.4998,
      "velocity": 111,
      "chip": "ym2612"
    },
    {
      "channel": 2,
      "note": 51,
      "start": 58.3666,
      "duration": 0.4989,
      "velocity": 127,
      "chip": "ym2612"
    },
    {
      "channel": 3,
      "note": 75,
      "start": 58.3685,
      "duration": 0.4975,
      "velocity": 47,
      "chip": "ym2612"
    },
    {
      "channel": 4,
      "note": 82,
      "start": 58.3704,
      "duration": 0.4961,
      "velocity": 47,
      "chip": "ym2612"
    },
    {
      "channel": 5,
      "note": 85,
      "start": 58.3723,
      "duration": 0.4962,
      "velocity": 47,
      "chip": "ym2612"
    },
    {
      "channel": 1,
      "note": 26,
      "start": 58.448,
      "duration": 0.1663,
      "velocity": 91,
      "chip": "ym2612"
    },
    {
      "channel": 1,
      "note": 26,
      "start": 58.6146,
      "duration": 0.0831,
      "velocity": 91,
      "chip": "ym2612"
    },
    {
      "channel": 1,
      "note": 38,
      "start": 58.6979,
      "duration": 0.1671,
      "velocity": 91,
      "chip": "ym2612"
    },
    {
      "channel": 0,
      "note": 52,
      "start": 58.8647,
      "duration": 0.4999,
      "velocity": 111,
      "chip": "ym2612"
    },
    {
      "channel": 1,
      "note": 26,
      "start": 58.8652,
      "duration": 0.1659,
      "velocity": 91,
      "chip": "ym2612"
    },
    {
      "channel": 2,
      "note": 52,
      "start": 58.8657,
      "duration": 0.4998,
      "velocity": 127,
      "chip": "ym2612"
    },
    {
      "channel": 3,
      "note": 76,
      "start": 58.8662,
      "duration": 0.4999,
      "velocity": 47,
      "chip": "ym2612"
    },
    {
      "channel": 4,
      "note": 83,
      "start": 58.8667,
      "duration": 0.5012,
      "velocity": 47,
      "chip": "ym2612"
    },
    {
      "channel": 5,
      "note": 86,
      "start": 58.8686,
      "duration": 0.4999,
      "velocity": 47,
      "chip": "ym2612"
    },
    {
      "channel": 1,
      "note": 26,
      "start": 59.0313,
      "duration": 0.0831,
      "velocity": 91,
      "chip": "ym2612"
    },
    {
      "channel": 1,
      "note": 26,
      "start": 59.1146,
      "duration": 0.1665,
      "velocity": 91,
      "chip": "ym2612"
    },
    {
      "channel": 1,
      "note": 26,
      "start": 59.2813,
      "duration": 0.0837,
      "velocity": 91,
      "chip": "ym2612"
    },
    {
      "channel": 0,
      "note": 53,
      "start": 59.3647,
      "duration": 0.4998,
      "velocity": 111,
      "chip": "ym2612"
    },
    {
      "channel": 1,
      "note": 38,
      "start": 59.3652,
      "duration": 0.1659,
      "velocity": 91,
      "chip": "ym2612"
    },
    {
      "channel": 2,
      "note": 53,
      "start": 59.3657,
      "duration": 0.4994,
      "velocity": 127,
      "chip": "ym2612"
    },
    {
      "channel": 3,
      "note": 77,
      "start": 59.3662,
      "duration": 0.5008,
      "velocity": 47,
      "chip": "ym2612"
    },
    {
      "channel": 4,
      "note": 84,
      "start": 59.3681,
      "duration": 0.4994,
      "velocity": 47,
      "chip": "ym2612"
    },
    {
      "channel": 5,
      "note": 87,
      "start": 59.3687,
      "duration": 0.4993,
      "velocity": 47,
      "chip": "ym2612"
    },
    {
      "channel": 1,
      "note": 26,
      "start": 59.5313,
      "duration": 0.2498,
      "velocity": 91,
      "chip": "ym2612"
    },
    {
      "channel": 1,
      "note": 26,
      "start": 59.7813,
      "duration": 0.1667,
      "velocity": 91,
      "chip": "ym2612"
    },
    {
      "channel": 0,
      "note": 54,
      "start": 59.8647,
      "duration": 0.4997,
      "velocity": 111,
      "chip": "ym2612"
    },
    {
      "channel": 2,
      "note": 54,
      "start": 59.8652,
      "duration": 0.5002,
      "velocity": 127,
      "chip": "ym2612"
    },
    {
      "channel": 3,
      "note": 78,
      "start": 59.8671,
      "duration": 0.8149,
      "velocity": 121,
      "chip": "ym2612"
    },
    {
      "channel": 4,
      "note": 85,
      "start": 59.8676,
      "duration": 1.0947,
      "velocity": 47,
      "chip": "ym2612"
    },
    {
      "channel": 5,
      "note": 88,
      "start": 59.8682,
      "duration": 8.14,
      "velocity": 1,
      "chip": "ym2612"
    },
    {
      "channel": 1,
      "note": 26,
      "start": 59.948,
      "duration": 0.083,
      "velocity": 91,
      "chip": "ym2612"
    },
    {
      "channel": 1,
      "note": 38,
      "start": 60.0313,
      "duration": 0.1665,
      "velocity": 91,
      "chip": "ym2612"
    },
    {
      "channel": 1,
      "note": 26,
      "start": 60.1979,
      "duration": 0.167,
      "velocity": 91,
      "chip": "ym2612"
    },
    {
      "channel": 0,
      "note": 55,
      "start": 60.3646,
      "duration": 0.5901,
      "velocity": 127,
      "chip": "ym2612"
    },
    {
      "channel": 1,
      "note": 26,
      "start": 60.3651,
      "duration": 0.0827,
      "velocity": 91,
      "chip": "ym2612"
    },
    {
      "channel": 2,
      "note": 55,
      "start": 60.3656,
      "duration": 0.5929,
      "velocity": 107,
      "chip": "ym2612"
    },
    {
      "channel": 1,
      "note": 26,
      "start": 60.448,
      "duration": 0.1576,
      "velocity": 91,
      "chip": "ym2612"
    },
    {
      "channel": 1,
      "note": 26,
      "start": 60.6057,
      "duration": 0.0744,
      "velocity": 91,
      "chip": "ym2612"
    },
    {
      "channel": 1,
      "note": 38,
      "start": 60.6802,
      "duration": 0.1367,
      "velocity": 91,
      "chip": "ym2612"
    },
    {
      "channel": 3,
      "note": 79,
      "start": 60.6822,
      "duration": 0.0006,
      "velocity": 121,
      "chip": "ym2612"
    },
    {
      "channel": 3,
      "note": 79,
      "start": 60.6828,
      "duration": 0.0111,
      "velocity": 121,
      "chip": "ym2612"
    },
    {
      "channel": 3,
      "note": 78,
      "start": 60.6939,
      "duration": 0.0136,
      "velocity": 121,
      "chip": "ym2612"
    },
    {
      "channel": 3,
      "note": 78,
      "start": 60.7076,
      "duration": 0.0136,
      "velocity": 121,
      "chip": "ym2612"
    },
    {
      "channel": 3,
      "note": 77,
      "start": 60.7212,
      "duration": 0.0136,
      "velocity": 121,
      "chip": "ym2612"
    },
    {
      "channel": 3,
      "note": 77,
      "start": 60.7348,
      "duration": 0.0141,
      "velocity": 121,
      "chip": "ym2612"
    },
    {
      "channel": 3,
      "note": 79,
      "start": 60.749,
      "duration": 0.0005,
      "velocity": 121,
      "chip": "ym2612"
    },
    {
      "channel": 3,
      "note": 79,
      "start": 60.7495,
      "duration": 0.0127,
      "velocity": 121,
      "chip": "ym2612"
    },
    {
      "channel": 3,
      "note": 78,
      "start": 60.7622,
      "duration": 0.0136,
      "velocity": 121,
      "chip": "ym2612"
    },
    {
      "channel": 3,
      "note": 78,
      "start": 60.7758,
      "duration": 0.0136,
      "velocity": 121,
      "chip": "ym2612"
    },
    {
      "channel": 3,
      "note": 77,
      "start": 60.7894,
      "duration": 0.0136,
      "velocity": 121,
      "chip": "ym2612"
    },
    {
      "channel": 3,
      "note": 77,
      "start": 60.803,
      "duration": 0.0145,
      "velocity": 121,
      "chip": "ym2612"
    },
    {
      "channel": 1,
      "note": 26,
      "start": 60.8171,
      "duration": 0.1395,
      "velocity": 127,
      "chip": "ym2612"
    },
    {
      "channel": 3,
      "note": 76,
      "start": 60.8177,
      "duration": 0.0006,
      "velocity": 121,
      "chip": "ym2612"
    },
    {
      "channel": 3,
      "note": 76,
      "start": 60.8183,
      "duration": 0.0122,
      "velocity": 121,
      "chip": "ym2612"
    },
    {
      "channel": 3,
      "note": 75,
      "start": 60.8304,
      "duration": 0.0136,
      "velocity": 121,
      "chip": "ym2612"
    },
    {
      "channel": 3,
      "note": 74,
      "start": 60.844,
      "duration": 0.0136,
      "velocity": 121,
      "chip": "ym2612"
    },
    {
      "channel": 3,
      "note": 74,
      "start": 60.8576,
      "duration": 0.0136,
      "velocity": 121,
      "chip": "ym2612"
    },
    {
      "channel": 3,
      "note": 73,
      "start": 60.8712,
      "duration": 0.0141,
      "velocity": 121,
      "chip": "ym2612"
    },
    {
      "channel": 3,
      "note": 76,
      "start": 60.8855,
      "duration": 0.0006,
      "velocity": 121,
      "chip": "ym2612"
    },
    {
      "channel": 3,
      "note": 76,
      "start": 60.8861,
      "duration": 0.0125,
      "velocity": 121,
      "chip": "ym2612"
    },
    {
      "channel": 3,
      "note": 75,
      "start": 60.8986,
      "duration": 0.0136,
      "velocity": 121,
      "chip": "ym2612"
    },
    {
      "channel": 3,
      "note": 74,
      "start": 60.9122,
      "duration": 0.0136,
      "velocity": 121,
      "chip": "ym2612"
    },
    {
      "channel": 3,
      "note": 74,
      "start": 60.9258,
      "duration": 0.0136,
      "velocity": 121,
      "chip": "ym2612"
    },
    {
      "channel": 3,
      "note": 73,
      "start": 60.9394,
      "duration": 0.021,
      "velocity": 47,
      "chip": "ym2612"
    },
    {
      "channel": 0,
      "note": 60,
      "start": 60.9549,
      "duration": 3.9804,
      "velocity": 1,
      "chip": "ym2612"
    },
    {
      "channel": 1,
      "note": 72,
      "start": 60.9568,
      "duration": 3.9804,
      "velocity": 1,
      "chip": "ym2612"
    },
    {
      "channel": 2,
      "note": 48,
      "start": 60.9587,
      "duration": 3.9804,
      "velocity": 1,
      "chip": "ym2612"
    },
    {
      "channel": 3,
      "note": 91,
      "start": 60.9606,
      "duration": 1.14,
      "velocity": 47,
      "chip": "ym2612"
    },
    {
      "channel": 4,
      "note": 89,
      "start": 60.9625,
      "duration": 1.1386,
      "velocity": 47,
      "chip": "ym2612"
    },
    {
      "channel": 3,
      "note": 79,
      "start": 62.1008,
      "duration": 0.0832,
      "velocity": 47,
      "chip": "ym2612"
    },
    {
      "channel": 4,
      "note": 88,
      "start": 62.1013,
      "duration": 0.0831,
      "velocity": 47,
      "chip": "ym2612"
    },
    {
      "channel": 3,
      "note": 77,
      "start": 62.1841,
      "duration": 0.0832,
      "velocity": 47,
      "chip": "ym2612"
    },
    {
      "channel": 4,
      "note": 86,
      "start": 62.1846,
      "duration": 0.0831,
      "velocity": 47,
      "chip": "ym2612"
    },
    {
      "channel": 3,
      "note": 79,
      "start": 62.2675,
      "duration": 2.6735,
      "velocity": 1,
      "chip": "ym2612"
    },
    {
      "channel": 4,
      "note": 88,
      "start": 62.268,
      "duration": 2.6749,
      "velocity": 1,
      "chip": "ym2612"
    },
    {
      "channel": 0,
      "note": 31,
      "start": 64.9355,
      "duration": 3.0727,
      "velocity": 1,
      "chip": "ym2612"
    },
    {
      "channel": 1,
      "note": 31,
      "start": 64.9374,
      "duration": 3.0707,
      "velocity": 1,
      "chip": "ym2612"
    },
    {
      "channel": 2,
      "note": 31,
      "start": 64.9393,
      "duration": 3.0688,
      "velocity": 1,
      "chip": "ym2612"
    },
    {
      "channel": 3,
      "note": 31,
      "start": 64.9412,
      "duration": 3.0669,
      "velocity": 1,
      "chip": "ym2612"
    },
    {
      "channel": 4,
      "note": 31,
      "start": 64.9431,
      "duration": 3.065,
      "velocity": 1,
      "chip": "ym2612"
    }
  ]
}