{
  "track_name": "11 - Rumble",
  "duration_sec": 45.597,
  "sample_rate": 44100,
  "note_count": 896,
  "unique_pitches": 28,
  "pitch_range": 33,
  "avg_note_duration": 0.3004,
  "reconstruction_stats": {
    "notes_reconstructed": 896,
    "keyon_events": 896,
    "keyoff_events": 855,
    "orphan_keyons": 6,
    "unique_pitches": 28,
    "pitch_range": 33,
    "avg_duration_sec": 0.3004
  },
  "metadata": {
    "source": "S\\Street Racer\\11 - Rumble.vgz"
  },
  "notes": [
    {
      "channel": 0,
      "note": -1,
      "start": 0.0,
      "duration": 45.5966,
      "velocity": 1,
      "chip": "ym2612"
    },
    {
      "channel": 2,
      "note": 31,
      "start": 0.0,
      "duration": 0.1018,
      "velocity": 127,
      "chip": "ym2612"
    },
    {
      "channel": 4,
      "note": 55,
      "start": 0.0023,
      "duration": 3.9194,
      "velocity": 1,
      "chip": "ym2612"
    },
    {
      "channel": 5,
      "note": 43,
      "start": 0.0048,
      "duration": 0.0995,
      "velocity": 78,
      "chip": "ym2612"
    },
    {
      "channel": 2,
      "note": 54,
      "start": 0.102,
      "duration": 0.0998,
      "velocity": 127,
      "chip": "ym2612"
    },
    {
      "channel": 5,
      "note": 43,
      "start": 0.1046,
      "duration": 0.0982,
      "velocity": 78,
      "chip": "ym2612"
    },
    {
      "channel": 2,
      "note": 54,
      "start": 0.202,
      "duration": 0.0998,
      "velocity": 127,
      "chip": "ym2612"
    },
    {
      "channel": 5,
      "note": 43,
      "start": 0.2029,
      "duration": 0.103,
      "velocity": 78,
      "chip": "ym2612"
    },
    {
      "channel": 2,
      "note": 31,
      "start": 0.302,
      "duration": 0.1029,
      "velocity": 127,
      "chip": "ym2612"
    },
    {
      "channel": 3,
      "note": 62,
      "start": 0.3044,
      "duration": 0.2013,
      "velocity": 127,
      "chip": "ym2612"
    },
    {
      "channel": 5,
      "note": 31,
      "start": 0.3062,
      "duration": 0.2003,
      "velocity": 78,
      "chip": "ym2612"
    },
    {
      "channel": 2,
      "note": 54,
      "start": 0.4052,
      "duration": 0.0998,
      "velocity": 127,
      "chip": "ym2612"
    },
    {
      "channel": 2,
      "note": 31,
      "start": 0.5053,
      "duration": 0.1002,
      "velocity": 127,
      "chip": "ym2612"
    },
    {
      "channel": 3,
      "note": 62,
      "start": 0.5059,
      "duration": 0.2992,
      "velocity": 127,
      "chip": "ym2612"
    },
    {
      "channel": 5,
      "note": 31,
      "start": 0.5067,
      "duration": 0.0996,
      "velocity": 78,
      "chip": "ym2612"
    },
    {
      "channel": 2,
      "note": 31,
      "start": 0.6056,
      "duration": 0.0002,
      "velocity": 127,
      "chip": "ym2612"
    },
    {
      "channel": 2,
      "note": 54,
      "start": 0.606,
      "duration": 0.0984,
      "velocity": 127,
      "chip": "ym2612"
    },
    {
      "channel": 5,
      "note": 43,
      "start": 0.6065,
      "duration": 0.2016,
      "velocity": 78,
      "chip": "ym2612"
    },
    {
      "channel": 2,
      "note": 54,
      "start": 0.7046,
      "duration": 0.0998,
      "velocity": 127,
      "chip": "ym2612"
    },
    {
      "channel": 2,
      "note": 31,
      "start": 0.8046,
      "duration": 0.0021,
      "velocity": 127,
      "chip": "ym2612"
    },
    {
      "channel": 3,
      "note": 62,
      "start": 0.8053,
      "duration": 0.5026,
      "velocity": 127,
      "chip": "ym2612"
    },
    {
      "channel": 2,
      "note": 31,
      "start": 0.807,
      "duration": 0.0992,
      "velocity": 127,
      "chip": "ym2612"
    },
    {
      "channel": 5,
      "note": 43,
      "start": 0.8083,
      "duration": 0.1988,
      "velocity": 78,
      "chip": "ym2612"
    },
    {
      "channel": 2,
      "note": 54,
      "start": 0.9064,
      "duration": 0.0998,
      "velocity": 127,
      "chip": "ym2612"
    },
    {
      "channel": 2,
      "note": 54,
      "start": 1.0064,
      "duration": 0.0998,
      "velocity": 127,
      "chip": "ym2612"
    },
    {
      "channel": 5,
      "note": 43,
      "start": 1.0073,
      "duration": 0.1018,
      "velocity": 78,
      "chip": "ym2612"
    },
    {
      "channel": 2,
      "note": 31,
      "start": 1.1064,
      "duration": 0.0013,
      "velocity": 127,
      "chip": "ym2612"
    },
    {
      "channel": 2,
      "note": 54,
      "start": 1.108,
      "duration": 0.0992,
      "velocity": 127,
      "chip": "ym2612"
    },
    {
      "channel": 5,
      "note": 43,
      "start": 1.1094,
      "duration": 0.0988,
      "velocity": 78,
      "chip": "ym2612"
    },
    {
      "channel": 2,
      "note": 54,
      "start": 1.2075,
      "duration": 0.0998,
      "velocity": 127,
      "chip": "ym2612"
    },
    {
      "channel": 5,
      "note": 43,
      "start": 1.2083,
      "duration": 0.1014,
      "velocity": 78,
      "chip": "ym2612"
    },
    {
      "channel": 2,
      "note": 31,
      "start": 1.3075,
      "duration": 0.1014,
      "velocity": 127,
      "chip": "ym2612"
    },
    {
      "channel": 3,
      "note": 62,
      "start": 1.3082,
      "duration": 0.2014,
      "velocity": 127,
      "chip": "ym2612"
    },
    {
      "channel": 5,
      "note": 31,
      "start": 1.31,
      "duration": 0.2004,
      "velocity": 78,
      "chip": "ym2612"
    },
    {
      "channel": 2,
      "note": 54,
      "start": 1.409,
      "duration": 0.0998,
      "velocity": 127,
      "chip": "ym2612"
    },
    {
      "channel": 2,
      "note": 31,
      "start": 1.5091,
      "duration": 0.1002,
      "velocity": 127,
      "chip": "ym2612"
    },
    {
      "channel": 3,
      "note": 62,
      "start": 1.5098,
      "duration": 0.2992,
      "velocity": 127,
      "chip": "ym2612"
    },
    {
      "channel": 5,
      "note": 31,
      "start": 1.5105,
      "duration": 0.0996,
      "velocity": 78,
      "chip": "ym2612"
    },
    {
      "channel": 2,
      "note": 31,
      "start": 1.6094,
      "duration": 0.0002,
      "velocity": 127,
      "chip": "ym2612"
    },
    {
      "channel": 2,
      "note": 54,
      "start": 1.6098,
      "duration": 0.0984,
      "velocity": 127,
      "chip": "ym2612"
    },
    {
      "channel": 5,
      "note": 43,
      "start": 1.6104,
      "duration": 0.2011,
      "velocity": 78,
      "chip": "ym2612"
    },
    {
      "channel": 2,
      "note": 54,
      "start": 1.7085,
      "duration": 0.0998,
      "velocity": 127,
      "chip": "ym2612"
    },
    {
      "channel": 2,
      "note": 31,
      "start": 1.8085,
      "duration": 0.0018,
      "velocity": 127,
      "chip": "ym2612"
    },
    {
      "channel": 3,
      "note": 62,
      "start": 1.8092,
      "duration": 0.4021,
      "velocity": 127,
      "chip": "ym2612"
    },
    {
      "channel": 2,
      "note": 31,
      "start": 1.8104,
      "duration": 0.0002,
      "velocity": 127,
      "chip": "ym2612"
    },
    {
      "channel": 2,
      "note": 54,
      "start": 1.8108,
      "duration": 0.0987,
      "velocity": 127,
      "chip": "ym2612"
    },
    {
      "channel": 5,
      "note": 43,
      "start": 1.8117,
      "duration": 0.0988,
      "velocity": 78,
      "chip": "ym2612"
    },
    {
      "channel": 2,
      "note": 54,
      "start": 1.9098,
      "duration": 0.0998,
      "velocity": 127,
      "chip": "ym2612"
    },
    {
      "channel": 5,
      "note": 43,
      "start": 1.9106,
      "duration": 0.1018,
      "velocity": 78,
      "chip": "ym2612"
    },
    {
      "channel": 2,
      "note": 31,
      "start": 2.0098,
      "duration": 0.0013,
      "velocity": 127,
      "chip": "ym2612"
    },
    {
      "channel": 2,
      "note": 54,
      "start": 2.0113,
      "duration": 0.0992,
      "velocity": 127,
      "chip": "ym2612"
    },
    {
      "channel": 5,
      "note": 43,
      "start": 2.0127,
      "duration": 0.0988,
      "velocity": 78,
      "chip": "ym2612"
    },
    {
      "channel": 2,
      "note": 54,
      "start": 2.1108,
      "duration": 0.0998,
      "velocity": 127,
      "chip": "ym2612"
    },
    {
      "channel": 5,
      "note": 43,
      "start": 2.1117,
      "duration": 0.1014,
      "velocity": 78,
      "chip": "ym2612"
    },
    {
      "channel": 2,
      "note": 31,
      "start": 2.2108,
      "duration": 0.1014,
      "velocity": 127,
      "chip": "ym2612"
    },
    {
      "channel": 3,
      "note": 62,
      "start": 2.2115,
      "duration": 0.2014,
      "velocity": 127,
      "chip": "ym2612"
    },
    {
      "channel": 5,
      "note": 31,
      "start": 2.2133,
      "duration": 0.2004,
      "velocity": 78,
      "chip": "ym2612"
    },
    {
      "channel": 2,
      "note": 54,
      "start": 2.3123,
      "duration": 0.0998,
      "velocity": 127,
      "chip": "ym2612"
    },
    {
      "channel": 2,
      "note": 31,
      "start": 2.4124,
      "duration": 0.1002,
      "velocity": 127,
      "chip": "ym2612"
    },
    {
      "channel": 3,
      "note": 62,
      "start": 2.4131,
      "duration": 0.2992,
      "velocity": 127,
      "chip": "ym2612"
    },
    {
      "channel": 5,
      "note": 31,
      "start": 2.4139,
      "duration": 0.0996,
      "velocity": 78,
      "chip": "ym2612"
    },
    {
      "channel": 2,
      "note": 31,
      "start": 2.5127,
      "duration": 0.0002,
      "velocity": 127,
      "chip": "ym2612"
    },
    {
      "channel": 2,
      "note": 54,
      "start": 2.5132,
      "duration": 0.0984,
      "velocity": 127,
      "chip": "ym2612"
    },
    {
      "channel": 5,
      "note": 43,
      "start": 2.5137,
      "duration": 0.2016,
      "velocity": 78,
      "chip": "ym2612"
    },
    {
      "channel": 2,
      "note": 54,
      "start": 2.6118,
      "duration": 0.0998,
      "velocity": 127,
      "chip": "ym2612"
    },
    {
      "channel": 2,
      "note": 31,
      "start": 2.7118,
      "duration": 0.0021,
      "velocity": 127,
      "chip": "ym2612"
    },
    {
      "channel": 3,
      "note": 62,
      "start": 2.7125,
      "duration": 0.5026,
      "velocity": 127,
      "chip": "ym2612"
    },
    {
      "channel": 2,
      "note": 31,
      "start": 2.7141,
      "duration": 0.0992,
      "velocity": 127,
      "chip": "ym2612"
    },
    {
      "channel": 5,
      "note": 43,
      "start": 2.7155,
      "duration": 0.1988,
      "velocity": 78,
      "chip": "ym2612"
    },
    {
      "channel": 2,
      "note": 54,
      "start": 2.8136,
      "duration": 0.0998,
      "velocity": 127,
      "chip": "ym2612"
    },
    {
      "channel": 2,
      "note": 54,
      "start": 2.9136,
      "duration": 0.0998,
      "velocity": 127,
      "chip": "ym2612"
    },
    {
      "channel": 5,
      "note": 43,
      "start": 2.9145,
      "duration": 0.1018,
      "velocity": 78,
      "chip": "ym2612"
    },
    {
      "channel": 2,
      "note": 31,
      "start": 3.0136,
      "duration": 0.0013,
      "velocity": 127,
      "chip": "ym2612"
    },
    {
      "channel": 2,
      "note": 54,
      "start": 3.0152,
      "duration": 0.0992,
      "velocity": 127,
      "chip": "ym2612"
    },
    {
      "channel": 5,
      "note": 43,
      "start": 3.0165,
      "duration": 0.0988,
      "velocity": 78,
      "chip": "ym2612"
    },
    {
      "channel": 2,
      "note": 54,
      "start": 3.1146,
      "duration": 0.0998,
      "velocity": 127,
      "chip": "ym2612"
    },
    {
      "channel": 5,
      "note": 43,
      "start": 3.1155,
      "duration": 0.1014,
      "velocity": 78,
      "chip": "ym2612"
    },
    {
      "channel": 2,
      "note": 31,
      "start": 3.2146,
      "duration": 0.1014,
      "velocity": 127,
      "chip": "ym2612"
    },
    {
      "channel": 3,
      "note": 62,
      "start": 3.2153,
      "duration": 0.2014,
      "velocity": 127,
      "chip": "ym2612"
    },
    {
      "channel": 5,
      "note": 31,
      "start": 3.2171,
      "duration": 0.2004,
      "velocity": 78,
      "chip": "ym2612"
    },
    {
      "channel": 2,
      "note": 54,
      "start": 3.3162,
      "duration": 0.0998,
      "velocity": 127,
      "chip": "ym2612"
    },
    {
      "channel": 2,
      "note": 31,
      "start": 3.4162,
      "duration": 0.1001,
      "velocity": 127,
      "chip": "ym2612"
    },
    {
      "channel": 3,
      "note": 62,
      "start": 3.4169,
      "duration": 0.0999,
      "velocity": 127,
      "chip": "ym2612"
    },
    {
      "channel": 5,
      "note": 31,
      "start": 3.4177,
      "duration": 0.1013,
      "velocity": 78,
      "chip": "ym2612"
    },
    {
      "channel": 2,
      "note": 31,
      "start": 3.5166,
      "duration": 0.001,
      "velocity": 127,
      "chip": "ym2612"
    },
    {
      "channel": 3,
      "note": 62,
      "start": 3.517,
      "duration": 0.2007,
      "velocity": 127,
      "chip": "ym2612"
    },
    {
      "channel": 2,
      "note": 54,
      "start": 3.5179,
      "duration": 0.0992,
      "velocity": 127,
      "chip": "ym2612"
    },
    {
      "channel": 5,
      "note": 43,
      "start": 3.5192,
      "duration": 0.201,
      "velocity": 78,
      "chip": "ym2612"
    },
    {
      "channel": 2,
      "note": 54,
      "start": 3.6172,
      "duration": 0.0998,
      "velocity": 127,
      "chip": "ym2612"
    },
    {
      "channel": 2,
      "note": 31,
      "start": 3.7172,
      "duration": 0.0018,
      "velocity": 127,
      "chip": "ym2612"
    },
    {
      "channel": 3,
      "note": 62,
      "start": 3.7179,
      "duration": 0.1012,
      "velocity": 127,
      "chip": "ym2612"
    },
    {
      "channel": 2,
      "note": 31,
      "start": 3.7192,
      "duration": 0.0002,
      "velocity": 127,
      "chip": "ym2612"
    },
    {
      "channel": 2,
      "note": 54,
      "start": 3.7196,
      "duration": 0.0988,
      "velocity": 127,
      "chip": "ym2612"
    },
    {
      "channel": 5,
      "note": 43,
      "start": 3.7204,
      "duration": 0.0994,
      "velocity": 78,
      "chip": "ym2612"
    },
    {
      "channel": 2,
      "note": 54,
      "start": 3.8186,
      "duration": 0.1022,
      "velocity": 127,
      "chip": "ym2612"
    },
    {
      "channel": 3,
      "note": 62,
      "start": 3.8193,
      "duration": 0.4029,
      "velocity": 127,
      "chip": "ym2612"
    },
    {
      "channel": 5,
      "note": 43,
      "start": 3.8201,
      "duration": 0.104,
      "velocity": 1,
      "chip": "ym2612"
    },
    {
      "channel": 1,
      "note": 36,
      "start": 3.9202,
      "duration": 0.1011,
      "velocity": 107,
      "chip": "ym2612"
    },
    {
      "channel": 2,
      "note": 31,
      "start": 3.921,
      "duration": 0.101,
      "velocity": 127,
      "chip": "ym2612"
    },
    {
      "channel": 4,
      "note": 55,
      "start": 3.9219,
      "duration": 3.9185,
      "velocity": 1,
      "chip": "ym2612"
    },
    {
      "channel": 5,
      "note": 43,
      "start": 3.9244,
      "duration": 0.1001,
      "velocity": 78,
      "chip": "ym2612"
    },
    {
      "channel": 1,
      "note": 48,
      "start": 4.0215,
      "duration": 0.3014,
      "velocity": 107,
      "chip": "ym2612"
    },
    {
      "channel": 2,
      "note": 54,
      "start": 4.0222,
      "duration": 0.0992,
      "velocity": 127,
      "chip": "ym2612"
    },
    {
      "channel": 5,
      "note": 43,
      "start": 4.0247,
      "duration": 0.0976,
      "velocity": 78,
      "chip": "ym2612"
    },
    {
      "channel": 2,
      "note": 54,
      "start": 4.1216,
      "duration": 0.0998,
      "velocity": 127,
      "chip": "ym2612"
    },
    {
      "channel": 5,
      "note": 43,
      "start": 4.1225,
      "duration": 0.1015,
      "velocity": 78,
      "chip": "ym2612"
    },
    {
      "channel": 2,
      "note": 31,
      "start": 4.2216,
      "duration": 0.102,
      "velocity": 127,
      "chip": "ym2612"
    },
    {
      "channel": 3,
      "note": 62,
      "start": 4.2224,
      "duration": 0.2014,
      "velocity": 127,
      "chip": "ym2612"
    },
    {
      "channel": 5,
      "note": 31,
      "start": 4.2241,
      "duration": 0.2004,
      "velocity": 78,
      "chip": "ym2612"
    },
    {
      "channel": 1,
      "note": 36,
      "start": 4.3231,
      "duration": 0.1999,
      "velocity": 107,
      "chip": "ym2612"
    },
    {
      "channel": 2,
      "note": 54,
      "start": 4.3238,
      "duration": 0.0992,
      "velocity": 127,
      "chip": "ym2612"
    },
    {
      "channel": 2,
      "note": 31,
      "start": 4.4233,
      "duration": 0.1008,
      "velocity": 127,
      "chip": "ym2612"
    },
    {
      "channel": 3,
      "note": 62,
      "start": 4.4239,
      "duration": 0.3002,
      "velocity": 127,
      "chip": "ym2612"
    },
    {
      "channel": 5,
      "note": 31,
      "start": 4.4248,
      "duration": 0.1009,
      "velocity": 78,
      "chip": "ym2612"
    },
    {
      "channel": 1,
      "note": 40,
      "start": 4.5232,
      "duration": 0.0014,
      "velocity": 107,
      "chip": "ym2612"
    },
    {
      "channel": 2,
      "note": 31,
      "start": 4.5243,
      "duration": 0.0007,
      "velocity": 127,
      "chip": "ym2612"
    },
    {
      "channel": 1,
      "note": 52,
      "start": 4.5247,
      "duration": 0.198,
      "velocity": 107,
      "chip": "ym2612"
    },
    {
      "channel": 2,
      "note": 54,
      "start": 4.5252,
      "duration": 0.0976,
      "velocity": 127,
      "chip": "ym2612"
    },
    {
      "channel": 5,
      "note": 43,
      "start": 4.5259,
      "duration": 0.2008,
      "velocity": 78,
      "chip": "ym2612"
    },
    {
      "channel": 2,
      "note": 54,
      "start": 4.623,
      "duration": 0.1005,
      "velocity": 127,
      "chip": "ym2612"
    },
    {
      "channel": 1,
      "note": 46,
      "start": 4.723,
      "duration": 0.1017,
      "velocity": 107,
      "chip": "ym2612"
    },
    {
      "channel": 2,
      "note": 31,
      "start": 4.7237,
      "duration": 0.0017,
      "velocity": 127,
      "chip": "ym2612"
    },
    {
      "channel": 3,
      "note": 62,
      "start": 4.7244,
      "duration": 0.5022,
      "velocity": 127,
      "chip": "ym2612"
    },
    {
      "channel": 2,
      "note": 31,
      "start": 4.7256,
      "duration": 0.0998,
      "velocity": 127,
      "chip": "ym2612"
    },
    {
      "channel": 5,
      "note": 43,
      "start": 4.7269,
      "duration": 0.1987,
      "velocity": 78,
      "chip": "ym2612"
    },
    {
      "channel": 1,
      "note": 47,
      "start": 4.8249,
      "duration": 0.1998,
      "velocity": 107,
      "chip": "ym2612"
    },
    {
      "channel": 2,
      "note": 54,
      "start": 4.8256,
      "duration": 0.0992,
      "velocity": 127,
      "chip": "ym2612"
    },
    {
      "channel": 2,
      "note": 54,
      "start": 4.9249,
      "duration": 0.1004,
      "velocity": 127,
      "chip": "ym2612"
    },
    {
      "channel": 5,
      "note": 43,
      "start": 4.9258,
      "duration": 0.103,
      "velocity": 78,
      "chip": "ym2612"
    },
    {
      "channel": 1,
      "note": 48,
      "start": 5.0249,
      "duration": 0.0019,
      "velocity": 107,
      "chip": "ym2612"
    },
    {
      "channel": 2,
      "note": 31,
      "start": 5.0256,
      "duration": 0.0017,
      "velocity": 127,
      "chip": "ym2612"
    },
    {
      "channel": 1,
      "note": 36,
      "start": 5.0269,
      "duration": 0.3005,
      "velocity": 107,
      "chip": "ym2612"
    },
    {
      "channel": 2,
      "note": 54,
      "start": 5.0276,
      "duration": 0.0983,
      "velocity": 127,
      "chip": "ym2612"
    },
    {
      "channel": 5,
      "note": 43,
      "start": 5.029,
      "duration": 0.0978,
      "velocity": 78,
      "chip": "ym2612"
    },
    {
      "channel": 2,
      "note": 54,
      "start": 5.1261,
      "duration": 0.0998,
      "velocity": 127,
      "chip": "ym2612"
    },
    {
      "channel": 5,
      "note": 43,
      "start": 5.127,
      "duration": 0.1014,
      "velocity": 78,
      "chip": "ym2612"
    },
    {
      "channel": 2,
      "note": 31,
      "start": 5.2261,
      "duration": 0.102,
      "velocity": 127,
      "chip": "ym2612"
    },
    {
      "channel": 3,
      "note": 62,
      "start": 5.2268,
      "duration": 0.2014,
      "velocity": 127,
      "chip": "ym2612"
    },
    {
      "channel": 5,
      "note": 31,
      "start": 5.2286,
      "duration": 0.2004,
      "velocity": 78,
      "chip": "ym2612"
    },
    {
      "channel": 1,
      "note": 48,
      "start": 5.3276,
      "duration": 0.1999,
      "velocity": 107,
      "chip": "ym2612"
    },
    {
      "channel": 2,
      "note": 54,
      "start": 5.3283,
      "duration": 0.0992,
      "velocity": 127,
      "chip": "ym2612"
    },
    {
      "channel": 2,
      "note": 31,
      "start": 5.4277,
      "duration": 0.1008,
      "velocity": 127,
      "chip": "ym2612"
    },
    {
      "channel": 3,
      "note": 62,
      "start": 5.4284,
      "duration": 0.3002,
      "velocity": 127,
      "chip": "ym2612"
    },
    {
      "channel": 5,
      "note": 31,
      "start": 5.4293,
      "duration": 0.1009,
      "velocity": 78,
      "chip": "ym2612"
    },
    {
      "channel": 1,
      "note": 52,
      "start": 5.5277,
      "duration": 0.0014,
      "velocity": 107,
      "chip": "ym2612"
    },
    {
      "channel": 2,
      "note": 31,
      "start": 5.5288,
      "duration": 0.0007,
      "velocity": 127,
      "chip": "ym2612"
    },
    {
      "channel": 1,
      "note": 40,
      "start": 5.5292,
      "duration": 0.198,
      "velocity": 107,
      "chip": "ym2612"
    },
    {
      "channel": 2,
      "note": 54,
      "start": 5.5297,
      "duration": 0.0976,
      "velocity": 127,
      "chip": "ym2612"
    },
    {
      "channel": 5,
      "note": 43,
      "start": 5.5303,
      "duration": 0.2013,
      "velocity": 78,
      "chip": "ym2612"
    },
    {
      "channel": 2,
      "note": 54,
      "start": 5.6275,
      "duration": 0.1005,
      "velocity": 127,
      "chip": "ym2612"
    },
    {
      "channel": 1,
      "note": 46,
      "start": 5.7275,
      "duration": 0.0029,
      "velocity": 107,
      "chip": "ym2612"
    },
    {
      "channel": 2,
      "note": 31,
      "start": 5.7282,
      "duration": 0.0017,
      "velocity": 127,
      "chip": "ym2612"
    },
    {
      "channel": 3,
      "note": 62,
      "start": 5.7289,
      "duration": 0.4017,
      "velocity": 127,
      "chip": "ym2612"
    },
    {
      "channel": 2,
      "note": 31,
      "start": 5.7301,
      "duration": 0.0007,
      "velocity": 127,
      "chip": "ym2612"
    },
    {
      "channel": 1,
      "note": 41,
      "start": 5.7306,
      "duration": 0.1981,
      "velocity": 107,
      "chip": "ym2612"
    },
    {
      "channel": 2,
      "note": 54,
      "start": 5.731,
      "duration": 0.0978,
      "velocity": 127,
      "chip": "ym2612"
    },
    {
      "channel": 5,
      "note": 43,
      "start": 5.7318,
      "duration": 0.0978,
      "velocity": 78,
      "chip": "ym2612"
    },
    {
      "channel": 2,
      "note": 54,
      "start": 5.8289,
      "duration": 0.1004,
      "velocity": 127,
      "chip": "ym2612"
    },
    {
      "channel": 5,
      "note": 43,
      "start": 5.8298,
      "duration": 0.103,
      "velocity": 78,
      "chip": "ym2612"
    },
    {
      "channel": 1,
      "note": 36,
      "start": 5.9288,
      "duration": 0.0019,
      "velocity": 107,
      "chip": "ym2612"
    },
    {
      "channel": 2,
      "note": 31,
      "start": 5.9295,
      "duration": 0.0017,
      "velocity": 127,
      "chip": "ym2612"
    },
    {
      "channel": 1,
      "note": 48,
      "start": 5.9309,
      "duration": 0.3005,
      "velocity": 107,
      "chip": "ym2612"
    },
    {
      "channel": 2,
      "note": 54,
      "start": 5.9316,
      "duration": 0.0983,
      "velocity": 127,
      "chip": "ym2612"
    },
    {
      "channel": 5,
      "note": 43,
      "start": 5.9329,
      "duration": 0.0978,
      "velocity": 78,
      "chip": "ym2612"
    },
    {
      "channel": 2,
      "note": 54,
      "start": 6.0301,
      "duration": 0.0998,
      "velocity": 127,
      "chip": "ym2612"
    },
    {
      "channel": 5,
      "note": 43,
      "start": 6.031,
      "duration": 0.1014,
      "velocity": 78,
      "chip": "ym2612"
    },
    {
      "channel": 2,
      "note": 31,
      "start": 6.1301,
      "duration": 0.102,
      "velocity": 127,
      "chip": "ym2612"
    },
    {
      "channel": 3,
      "note": 62,
      "start": 6.1308,
      "duration": 0.2014,
      "velocity": 127,
      "chip": "ym2612"
    },
    {
      "channel": 5,
      "note": 31,
      "start": 6.1326,
      "duration": 0.2004,
      "velocity": 78,
      "chip": "ym2612"
    },
    {
      "channel": 1,
      "note": 36,
      "start": 6.2316,
      "duration": 0.1999,
      "velocity": 107,
      "chip": "ym2612"
    },
    {
      "channel": 2,
      "note": 54,
      "start": 6.2323,
      "duration": 0.0992,
      "velocity": 127,
      "chip": "ym2612"
    },
    {
      "channel": 2,
      "note": 31,
      "start": 6.3317,
      "duration": 0.1008,
      "velocity": 127,
      "chip": "ym2612"
    },
    {
      "channel": 3,
      "note": 62,
      "start": 6.3324,
      "duration": 0.3002,
      "velocity": 127,
      "chip": "ym2612"
    },
    {
      "channel": 5,
      "note": 31,
      "start": 6.3332,
      "duration": 0.1009,
      "velocity": 78,
      "chip": "ym2612"
    },
    {
      "channel": 1,
      "note": 40,
      "start": 6.4317,
      "duration": 0.0014,
      "velocity": 107,
      "chip": "ym2612"
    },
    {
      "channel": 2,
      "note": 31,
      "start": 6.4327,
      "duration": 0.0007,
      "velocity": 127,
      "chip": "ym2612"
    },
    {
      "channel": 1,
      "note": 52,
      "start": 6.4332,
      "duration": 0.198,
      "velocity": 107,
      "chip": "ym2612"
    },
    {
      "channel": 2,
      "note": 54,
      "start": 6.4337,
      "duration": 0.0976,
      "velocity": 127,
      "chip": "ym2612"
    },
    {
      "channel": 5,
      "note": 43,
      "start": 6.4343,
      "duration": 0.2008,
      "velocity": 78,
      "chip": "ym2612"
    },
    {
      "channel": 2,
      "note": 54,
      "start": 6.5315,
      "duration": 0.1005,
      "velocity": 127,
      "chip": "ym2612"
    },
    {
      "channel": 1,
      "note": 46,
      "start": 6.6315,
      "duration": 0.1017,
      "velocity": 107,
      "chip": "ym2612"
    },
    {
      "channel": 2,
      "note": 31,
      "start": 6.6322,
      "duration": 0.0017,
      "velocity": 127,
      "chip": "ym2612"
    },
    {
      "channel": 3,
      "note": 62,
      "start": 6.6329,
      "duration": 0.5022,
      "velocity": 127,
      "chip": "ym2612"
    },
    {
      "channel": 2,
      "note": 31,
      "start": 6.6341,
      "duration": 0.0998,
      "velocity": 127,
      "chip": "ym2612"
    },
    {
      "channel": 5,
      "note": 43,
      "start": 6.6354,
      "duration": 0.1987,
      "velocity": 78,
      "chip": "ym2612"
    },
    {
      "channel": 1,
      "note": 47,
      "start": 6.7333,
      "duration": 0.1998,
      "velocity": 107,
      "chip": "ym2612"
    },
    {
      "channel": 2,
      "note": 54,
      "start": 6.734,
      "duration": 0.0992,
      "velocity": 127,
      "chip": "ym2612"
    },
    {
      "channel": 2,
      "note": 54,
      "start": 6.8334,
      "duration": 0.1004,
      "velocity": 127,
      "chip": "ym2612"
    },
    {
      "channel": 5,
      "note": 43,
      "start": 6.8343,
      "duration": 0.103,
      "velocity": 78,
      "chip": "ym2612"
    },
    {
      "channel": 1,
      "note": 48,
      "start": 6.9333,
      "duration": 0.0019,
      "velocity": 107,
      "chip": "ym2612"
    },
    {
      "channel": 2,
      "note": 31,
      "start": 6.934,
      "duration": 0.0017,
      "velocity": 127,
      "chip": "ym2612"
    },
    {
      "channel": 1,
      "note": 36,
      "start": 6.9354,
      "duration": 0.3005,
      "velocity": 107,
      "chip": "ym2612"
    },
    {
      "channel": 2,
      "note": 54,
      "start": 6.9361,
      "duration": 0.0983,
      "velocity": 127,
      "chip": "ym2612"
    },
    {
      "channel": 5,
      "note": 43,
      "start": 6.9374,
      "duration": 0.0978,
      "velocity": 78,
      "chip": "ym2612"
    },
    {
      "channel": 2,
      "note": 54,
      "start": 7.0346,
      "duration": 0.0998,
      "velocity": 127,
      "chip": "ym2612"
    },
    {
      "channel": 5,
      "note": 43,
      "start": 7.0354,
      "duration": 0.1014,
      "velocity": 78,
      "chip": "ym2612"
    },
    {
      "channel": 2,
      "note": 31,
      "start": 7.1346,
      "duration": 0.102,
      "velocity": 127,
      "chip": "ym2612"
    },
    {
      "channel": 3,
      "note": 62,
      "start": 7.1353,
      "duration": 0.2014,
      "velocity": 127,
      "chip": "ym2612"
    },
    {
      "channel": 5,
      "note": 31,
      "start": 7.1371,
      "duration": 0.2004,
      "velocity": 78,
      "chip": "ym2612"
    },
    {
      "channel": 1,
      "note": 48,
      "start": 7.2361,
      "duration": 0.1999,
      "velocity": 107,
      "chip": "ym2612"
    },
    {
      "channel": 2,
      "note": 54,
      "start": 7.2368,
      "duration": 0.0992,
      "velocity": 127,
      "chip": "ym2612"
    },
    {
      "channel": 2,
      "note": 31,
      "start": 7.3362,
      "duration": 0.1009,
      "velocity": 127,
      "chip": "ym2612"
    },
    {
      "channel": 3,
      "note": 62,
      "start": 7.3369,
      "duration": 0.1005,
      "velocity": 127,
      "chip": "ym2612"
    },
    {
      "channel": 5,
      "note": 31,
      "start": 7.3377,
      "duration": 0.1023,
      "velocity": 78,
      "chip": "ym2612"
    },
    {
      "channel": 1,
      "note": 52,
      "start": 7.4361,
      "duration": 0.0017,
      "velocity": 107,
      "chip": "ym2612"
    },
    {
      "channel": 2,
      "note": 31,
      "start": 7.4372,
      "duration": 0.0014,
      "velocity": 127,
      "chip": "ym2612"
    },
    {
      "channel": 3,
      "note": 62,
      "start": 7.4376,
      "duration": 0.2009,
      "velocity": 127,
      "chip": "ym2612"
    },
    {
      "channel": 1,
      "note": 40,
      "start": 7.438,
      "duration": 0.1991,
      "velocity": 107,
      "chip": "ym2612"
    },
    {
      "channel": 2,
      "note": 54,
      "start": 7.4389,
      "duration": 0.0982,
      "velocity": 127,
      "chip": "ym2612"
    },
    {
      "channel": 5,
      "note": 43,
      "start": 7.4402,
      "duration": 0.2012,
      "velocity": 78,
      "chip": "ym2612"
    },
    {
      "channel": 2,
      "note": 54,
      "start": 7.5373,
      "duration": 0.1005,
      "velocity": 127,
      "chip": "ym2612"
    },
    {
      "channel": 1,
      "note": 46,
      "start": 7.6373,
      "duration": 0.0029,
      "velocity": 107,
      "chip": "ym2612"
    },
    {
      "channel": 2,
      "note": 31,
      "start": 7.638,
      "duration": 0.0017,
      "velocity": 127,
      "chip": "ym2612"
    },
    {
      "channel": 3,
      "note": 62,
      "start": 7.6387,
      "duration": 0.1006,
      "velocity": 127,
      "chip": "ym2612"
    },
    {
      "channel": 2,
      "note": 31,
      "start": 7.6399,
      "duration": 0.0007,
      "velocity": 127,
      "chip": "ym2612"
    },
    {
      "channel": 1,
      "note": 41,
      "start": 7.6404,
      "duration": 0.1983,
      "velocity": 107,
      "chip": "ym2612"
    },
    {
      "channel": 2,
      "note": 54,
      "start": 7.6408,
      "duration": 0.0978,
      "velocity": 127,
      "chip": "ym2612"
    },
    {
      "channel": 5,
      "note": 43,
      "start": 7.6417,
      "duration": 0.0985,
      "velocity": 78,
      "chip": "ym2612"
    },
    {
      "channel": 2,
      "note": 54,
      "start": 7.7389,
      "duration": 0.1006,
      "velocity": 127,
      "chip": "ym2612"
    },
    {
      "channel": 3,
      "note": 62,
      "start": 7.7395,
      "duration": 0.4013,
      "velocity": 127,
      "chip": "ym2612"
    },
    {
      "channel": 5,
      "note": 43,
      "start": 7.7404,
      "duration": 0.1025,
      "velocity": 1,
      "chip": "ym2612"
    },
    {
      "channel": 1,
      "note": 36,
      "start": 7.8389,
      "duration": 0.1011,
      "velocity": 107,
      "chip": "ym2612"
    },
    {
      "channel": 2,
      "note": 31,
      "start": 7.8397,
      "duration": 0.101,
      "velocity": 127,
      "chip": "ym2612"
    },
    {
      "channel": 4,
      "note": 55,
      "start": 7.8405,
      "duration": 3.92,
      "velocity": 1,
      "chip": "ym2612"
    },
    {
      "channel": 5,
      "note": 43,
      "start": 7.843,
      "duration": 0.1001,
      "velocity": 78,
      "chip": "ym2612"
    },
    {
      "channel": 1,
      "note": 48,
      "start": 7.9402,
      "duration": 0.3014,
      "velocity": 107,
      "chip": "ym2612"
    },
    {
      "channel": 2,
      "note": 54,
      "start": 7.9409,
      "duration": 0.0992,
      "velocity": 127,
      "chip": "ym2612"
    },
    {
      "channel": 5,
      "note": 43,
      "start": 7.9434,
      "duration": 0.0976,
      "velocity": 78,
      "chip": "ym2612"
    },
    {
      "channel": 2,
      "note": 54,
      "start": 8.0402,
      "duration": 0.0998,
      "velocity": 127,
      "chip": "ym2612"
    },
    {
      "channel": 5,
      "note": 43,
      "start": 8.0411,
      "duration": 0.1015,
      "velocity": 78,
      "chip": "ym2612"
    },
    {
      "channel": 2,
      "note": 31,
      "start": 8.1402,
      "duration": 0.102,
      "velocity": 127,
      "chip": "ym2612"
    },
    {
      "channel": 3,
      "note": 62,
      "start": 8.141,
      "duration": 0.2014,
      "velocity": 127,
      "chip": "ym2612"
    },
    {
      "channel": 5,
      "note": 31,
      "start": 8.1428,
      "duration": 0.2004,
      "velocity": 78,
      "chip": "ym2612"
    },
    {
      "channel": 1,
      "note": 36,
      "start": 8.2418,
      "duration": 0.1999,
      "velocity": 107,
      "chip": "ym2612"
    },
    {
      "channel": 2,
      "note": 54,
      "start": 8.2425,
      "duration": 0.0992,
      "velocity": 127,
      "chip": "ym2612"
    },
    {
      "channel": 2,
      "note": 31,
      "start": 8.3419,
      "duration": 0.1008,
      "velocity": 127,
      "chip": "ym2612"
    },
    {
      "channel": 3,
      "note": 62,
      "start": 8.3426,
      "duration": 0.3002,
      "velocity": 127,
      "chip": "ym2612"
    },
    {
      "channel": 5,
      "note": 31,
      "start": 8.3434,
      "duration": 0.1009,
      "velocity": 78,
      "chip": "ym2612"
    },
    {
      "channel": 1,
      "note": 40,
      "start": 8.4418,
      "duration": 0.0014,
      "velocity": 107,
      "chip": "ym2612"
    },
    {
      "channel": 2,
      "note": 31,
      "start": 8.4429,
      "duration": 0.0007,
      "velocity": 127,
      "chip": "ym2612"
    },
    {
      "channel": 1,
      "note": 52,
      "start": 8.4434,
      "duration": 0.198,
      "velocity": 107,
      "chip": "ym2612"
    },
    {
      "channel": 2,
      "note": 54,
      "start": 8.4439,
      "duration": 0.0976,
      "velocity": 127,
      "chip": "ym2612"
    },
    {
      "channel": 5,
      "note": 43,
      "start": 8.4445,
      "duration": 0.2008,
      "velocity": 78,
      "chip": "ym2612"
    },
    {
      "channel": 2,
      "note": 54,
      "start": 8.5416,
      "duration": 0.1005,
      "velocity": 127,
      "chip": "ym2612"
    },
    {
      "channel": 1,
      "note": 46,
      "start": 8.6416,
      "duration": 0.1017,
      "velocity": 107,
      "chip": "ym2612"
    },
    {
      "channel": 2,
      "note": 31,
      "start": 8.6423,
      "duration": 0.0017,
      "velocity": 127,
      "chip": "ym2612"
    },
    {
      "channel": 3,
      "note": 62,
      "start": 8.643,
      "duration": 0.5022,
      "velocity": 127,
      "chip": "ym2612"
    },
    {
      "channel": 2,
      "note": 31,
      "start": 8.6442,
      "duration": 0.0998,
      "velocity": 127,
      "chip": "ym2612"
    },
    {
      "channel": 5,
      "note": 43,
      "start": 8.6455,
      "duration": 0.1987,
      "velocity": 78,
      "chip": "ym2612"
    },
    {
      "channel": 1,
      "note": 47,
      "start": 8.7435,
      "duration": 0.1998,
      "velocity": 107,
      "chip": "ym2612"
    },
    {
      "channel": 2,
      "note": 54,
      "start": 8.7442,
      "duration": 0.0992,
      "velocity": 127,
      "chip": "ym2612"
    },
    {
      "channel": 2,
      "note": 54,
      "start": 8.8436,
      "duration": 0.1004,
      "velocity": 127,
      "chip": "ym2612"
    },
    {
      "channel": 5,
      "note": 43,
      "start": 8.8444,
      "duration": 0.103,
      "velocity": 78,
      "chip": "ym2612"
    },
    {
      "channel": 1,
      "note": 48,
      "start": 8.9435,
      "duration": 0.0019,
      "velocity": 107,
      "chip": "ym2612"
    },
    {
      "channel": 2,
      "note": 31,
      "start": 8.9442,
      "duration": 0.0017,
      "velocity": 127,
      "chip": "ym2612"
    },
    {
      "channel": 1,
      "note": 36,
      "start": 8.9456,
      "duration": 0.3005,
      "velocity": 107,
      "chip": "ym2612"
    },
    {
      "channel": 2,
      "note": 54,
      "start": 8.9463,
      "duration": 0.0983,
      "velocity": 127,
      "chip": "ym2612"
    },
    {
      "channel": 5,
      "note": 43,
      "start": 8.9476,
      "duration": 0.0978,
      "velocity": 78,
      "chip": "ym2612"
    },
    {
      "channel": 2,
      "note": 54,
      "start": 9.0447,
      "duration": 0.0998,
      "velocity": 127,
      "chip": "ym2612"
    },
    {
      "channel": 5,
      "note": 43,
      "start": 9.0456,
      "duration": 0.1014,
      "velocity": 78,
      "chip": "ym2612"
    },
    {
      "channel": 2,
      "note": 31,
      "start": 9.1447,
      "duration": 0.102,
      "velocity": 127,
      "chip": "ym2612"
    },
    {
      "channel": 3,
      "note": 62,
      "start": 9.1454,
      "duration": 0.2014,
      "velocity": 127,
      "chip": "ym2612"
    },
    {
      "channel": 5,
      "note": 31,
      "start": 9.1473,
      "duration": 0.2004,
      "velocity": 78,
      "chip": "ym2612"
    },
    {
      "channel": 1,
      "note": 48,
      "start": 9.2462,
      "duration": 0.1999,
      "velocity": 107,
      "chip": "ym2612"
    },
    {
      "channel": 2,
      "note": 54,
      "start": 9.2469,
      "duration": 0.0992,
      "velocity": 127,
      "chip": "ym2612"
    },
    {
      "channel": 2,
      "note": 31,
      "start": 9.3464,
      "duration": 0.1008,
      "velocity": 127,
      "chip": "ym2612"
    },
    {
      "channel": 3,
      "note": 62,
      "start": 9.3471,
      "duration": 0.3002,
      "velocity": 127,
      "chip": "ym2612"
    },
    {
      "channel": 5,
      "note": 31,
      "start": 9.3479,
      "duration": 0.1009,
      "velocity": 78,
      "chip": "ym2612"
    },
    {
      "channel": 1,
      "note": 52,
      "start": 9.4463,
      "duration": 0.0014,
      "velocity": 107,
      "chip": "ym2612"
    },
    {
      "channel": 2,
      "note": 31,
      "start": 9.4474,
      "duration": 0.0007,
      "velocity": 127,
      "chip": "ym2612"
    },
    {
      "channel": 1,
      "note": 40,
      "start": 9.4478,
      "duration": 0.198,
      "velocity": 107,
      "chip": "ym2612"
    },
    {
      "channel": 2,
      "note": 54,
      "start": 9.4483,
      "duration": 0.0976,
      "velocity": 127,
      "chip": "ym2612"
    },
    {
      "channel": 5,
      "note": 43,
      "start": 9.449,
      "duration": 0.2013,
      "velocity": 78,
      "chip": "ym2612"
    },
    {
      "channel": 2,
      "note": 54,
      "start": 9.5461,
      "duration": 0.1005,
      "velocity": 127,
      "chip": "ym2612"
    },
    {
      "channel": 1,
      "note": 46,
      "start": 9.6461,
      "duration": 0.0029,
      "velocity": 107,
      "chip": "ym2612"
    },
    {
      "channel": 2,
      "note": 31,
      "start": 9.6468,
      "duration": 0.0017,
      "velocity": 127,
      "chip": "ym2612"
    },
    {
      "channel": 3,
      "note": 62,
      "start": 9.6475,
      "duration": 0.4017,
      "velocity": 127,
      "chip": "ym2612"
    },
    {
      "channel": 2,
      "note": 31,
      "start": 9.6487,
      "duration": 0.0007,
      "velocity": 127,
      "chip": "ym2612"
    },
    {
      "channel": 1,
      "note": 41,
      "start": 9.6492,
      "duration": 0.1981,
      "velocity": 107,
      "chip": "ym2612"
    },
    {
      "channel": 2,
      "note": 54,
      "start": 9.6496,
      "duration": 0.0978,
      "velocity": 127,
      "chip": "ym2612"
    },
    {
      "channel": 5,
      "note": 43,
      "start": 9.6505,
      "duration": 0.0978,
      "velocity": 78,
      "chip": "ym2612"
    },
    {
      "channel": 2,
      "note": 54,
      "start": 9.7476,
      "duration": 0.1004,
      "velocity": 127,
      "chip": "ym2612"
    },
    {
      "channel": 5,
      "note": 43,
      "start": 9.7484,
      "duration": 0.103,
      "velocity": 78,
      "chip": "ym2612"
    },
    {
      "channel": 1,
      "note": 36,
      "start": 9.8475,
      "duration": 0.0019,
      "velocity": 107,
      "chip": "ym2612"
    },
    {
      "channel": 2,
      "note": 31,
      "start": 9.8482,
      "duration": 0.0017,
      "velocity": 127,
      "chip": "ym2612"
    },
    {
      "channel": 1,
      "note": 48,
      "start": 9.8496,
      "duration": 0.3005,
      "velocity": 107,
      "chip": "ym2612"
    },
    {
      "channel": 2,
      "note": 54,
      "start": 9.8502,
      "duration": 0.0983,
      "velocity": 127,
      "chip": "ym2612"
    },
    {
      "channel": 5,
      "note": 43,
      "start": 9.8516,
      "duration": 0.0978,
      "velocity": 78,
      "chip": "ym2612"
    },
    {
      "channel": 2,
      "note": 54,
      "start": 9.9487,
      "duration": 0.0998,
      "velocity": 127,
      "chip": "ym2612"
    },
    {
      "channel": 5,
      "note": 43,
      "start": 9.9496,
      "duration": 0.1014,
      "velocity": 78,
      "chip": "ym2612"
    },
    {
      "channel": 2,
      "note": 31,
      "start": 10.0487,
      "duration": 0.102,
      "velocity": 127,
      "chip": "ym2612"
    },
    {
      "channel": 3,
      "note": 62,
      "start": 10.0494,
      "duration": 0.2014,
      "velocity": 127,
      "chip": "ym2612"
    },
    {
      "channel": 5,
      "note": 31,
      "start": 10.0512,
      "duration": 0.2004,
      "velocity": 78,
      "chip": "ym2612"
    },
    {
      "channel": 1,
      "note": 36,
      "start": 10.1502,
      "duration": 0.1999,
      "velocity": 107,
      "chip": "ym2612"
    },
    {
      "channel": 2,
      "note": 54,
      "start": 10.1509,
      "duration": 0.0992,
      "velocity": 127,
      "chip": "ym2612"
    },
    {
      "channel": 2,
      "note": 31,
      "start": 10.2504,
      "duration": 0.1008,
      "velocity": 127,
      "chip": "ym2612"
    },
    {
      "channel": 3,
      "note": 62,
      "start": 10.251,
      "duration": 0.3002,
      "velocity": 127,
      "chip": "ym2612"
    },
    {
      "channel": 5,
      "note": 31,
      "start": 10.2519,
      "duration": 0.1009,
      "velocity": 78,
      "chip": "ym2612"
    },
    {
      "channel": 1,
      "note": 40,
      "start": 10.3503,
      "duration": 0.0014,
      "velocity": 107,
      "chip": "ym2612"
    },
    {
      "channel": 2,
      "note": 31,
      "start": 10.3514,
      "duration": 0.0007,
      "velocity": 127,
      "chip": "ym2612"
    },
    {
      "channel": 1,
      "note": 52,
      "start": 10.3518,
      "duration": 0.198,
      "velocity": 107,
      "chip": "ym2612"
    },
    {
      "channel": 2,
      "note": 54,
      "start": 10.3523,
      "duration": 0.0976,
      "velocity": 127,
      "chip": "ym2612"
    },
    {
      "channel": 5,
      "note": 43,
      "start": 10.3529,
      "duration": 0.2008,
      "velocity": 78,
      "chip": "ym2612"
    },
    {
      "channel": 2,
      "note": 54,
      "start": 10.4501,
      "duration": 0.1005,
      "velocity": 127,
      "chip": "ym2612"
    },
    {
      "channel": 1,
      "note": 46,
      "start": 10.5501,
      "duration": 0.1017,
      "velocity": 107,
      "chip": "ym2612"
    },
    {
      "channel": 2,
      "note": 31,
      "start": 10.5508,
      "duration": 0.0017,
      "velocity": 127,
      "chip": "ym2612"
    },
    {
      "channel": 3,
      "note": 62,
      "start": 10.5515,
      "duration": 0.5022,
      "velocity": 127,
      "chip": "ym2612"
    },
    {
      "channel": 2,
      "note": 31,
      "start": 10.5527,
      "duration": 0.0998,
      "velocity": 127,
      "chip": "ym2612"
    },
    {
      "channel": 5,
      "note": 43,
      "start": 10.554,
      "duration": 0.1987,
      "velocity": 78,
      "chip": "ym2612"
    },
    {
      "channel": 1,
      "note": 47,
      "start": 10.652,
      "duration": 0.1998,
      "velocity": 107,
      "chip": "ym2612"
    },
    {
      "channel": 2,
      "note": 54,
      "start": 10.6527,
      "duration": 0.0992,
      "velocity": 127,
      "chip": "ym2612"
    },
    {
      "channel": 2,
      "note": 54,
      "start": 10.752,
      "duration": 0.1004,
      "velocity": 127,
      "chip": "ym2612"
    },
    {
      "channel": 5,
      "note": 43,
      "start": 10.7529,
      "duration": 0.103,
      "velocity": 78,
      "chip": "ym2612"
    },
    {
      "channel": 1,
      "note": 48,
      "start": 10.852,
      "duration": 0.0019,
      "velocity": 107,
      "chip": "ym2612"
    },
    {
      "channel": 2,
      "note": 31,
      "start": 10.8527,
      "duration": 0.0017,
      "velocity": 127,
      "chip": "ym2612"
    },
    {
      "channel": 1,
      "note": 36,
      "start": 10.854,
      "duration": 0.3005,
      "velocity": 107,
      "chip": "ym2612"
    },
    {
      "channel": 2,
      "note": 54,
      "start": 10.8547,
      "duration": 0.0983,
      "velocity": 127,
      "chip": "ym2612"
    },
    {
      "channel": 5,
      "note": 43,
      "start": 10.8561,
      "duration": 0.0978,
      "velocity": 78,
      "chip": "ym2612"
    },
    {
      "channel": 2,
      "note": 54,
      "start": 10.9532,
      "duration": 0.0998,
      "velocity": 127,
      "chip": "ym2612"
    },
    {
      "channel": 5,
      "note": 43,
      "start": 10.9541,
      "duration": 0.1014,
      "velocity": 78,
      "chip": "ym2612"
    },
    {
      "channel": 2,
      "note": 31,
      "start": 11.0532,
      "duration": 0.102,
      "velocity": 127,
      "chip": "ym2612"
    },
    {
      "channel": 3,
      "note": 62,
      "start": 11.0539,
      "duration": 0.2014,
      "velocity": 127,
      "chip": "ym2612"
    },
    {
      "channel": 5,
      "note": 31,
      "start": 11.0557,
      "duration": 0.2004,
      "velocity": 78,
      "chip": "ym2612"
    },
    {
      "channel": 1,
      "note": 48,
      "start": 11.1547,
      "duration": 0.1999,
      "velocity": 107,
      "chip": "ym2612"
    },
    {
      "channel": 2,
      "note": 54,
      "start": 11.1554,
      "duration": 0.0992,
      "velocity": 127,
      "chip": "ym2612"
    },
    {
      "channel": 2,
      "note": 31,
      "start": 11.2548,
      "duration": 0.1009,
      "velocity": 127,
      "chip": "ym2612"
    },
    {
      "channel": 3,
      "note": 62,
      "start": 11.2555,
      "duration": 0.1005,
      "velocity": 127,
      "chip": "ym2612"
    },
    {
      "channel": 5,
      "note": 31,
      "start": 11.2563,
      "duration": 0.1023,
      "velocity": 78,
      "chip": "ym2612"
    },
    {
      "channel": 1,
      "note": 52,
      "start": 11.3548,
      "duration": 0.0017,
      "velocity": 107,
      "chip": "ym2612"
    },
    {
      "channel": 2,
      "note": 31,
      "start": 11.3559,
      "duration": 0.0014,
      "velocity": 127,
      "chip": "ym2612"
    },
    {
      "channel": 3,
      "note": 62,
      "start": 11.3563,
      "duration": 0.2009,
      "velocity": 127,
      "chip": "ym2612"
    },
    {
      "channel": 1,
      "note": 40,
      "start": 11.3566,
      "duration": 0.1991,
      "velocity": 107,
      "chip": "ym2612"
    },
    {
      "channel": 2,
      "note": 54,
      "start": 11.3576,
      "duration": 0.0982,
      "velocity": 127,
      "chip": "ym2612"
    },
    {
      "channel": 5,
      "note": 43,
      "start": 11.3589,
      "duration": 0.2012,
      "velocity": 78,
      "chip": "ym2612"
    },
    {
      "channel": 2,
      "note": 54,
      "start": 11.456,
      "duration": 0.1005,
      "velocity": 127,
      "chip": "ym2612"
    },
    {
      "channel": 1,
      "note": 46,
      "start": 11.556,
      "duration": 0.0029,
      "velocity": 107,
      "chip": "ym2612"
    },
    {
      "channel": 2,
      "note": 31,
      "start": 11.5567,
      "duration": 0.0017,
      "velocity": 127,
      "chip": "ym2612"
    },
    {
      "channel": 3,
      "note": 62,
      "start": 11.5574,
      "duration": 0.1006,
      "velocity": 127,
      "chip": "ym2612"
    },
    {
      "channel": 2,
      "note": 31,
      "start": 11.5586,
      "duration": 0.0007,
      "velocity": 127,
      "chip": "ym2612"
    },
    {
      "channel": 1,
      "note": 41,
      "start": 11.5591,
      "duration": 0.1999,
      "velocity": 108,
      "chip": "ym2612"
    },
    {
      "channel": 2,
      "note": 54,
      "start": 11.5595,
      "duration": 0.0978,
      "velocity": 127,
      "chip": "ym2612"
    },
    {
      "channel": 5,
      "note": 43,
      "start": 11.5603,
      "duration": 0.0985,
      "velocity": 78,
      "chip": "ym2612"
    },
    {
      "channel": 2,
      "note": 54,
      "start": 11.6575,
      "duration": 0.1022,
      "velocity": 127,
      "chip": "ym2612"
    },
    {
      "channel": 3,
      "note": 62,
      "start": 11.6582,
      "duration": 0.4029,
      "velocity": 127,
      "chip": "ym2612"
    },
    {
      "channel": 5,
      "note": 43,
      "start": 11.659,
      "duration": 0.1041,
      "velocity": 1,
      "chip": "ym2612"
    },
    {
      "channel": 1,
      "note": 44,
      "start": 11.7591,
      "duration": 0.2011,
      "velocity": 108,
      "chip": "ym2612"
    },
    {
      "channel": 2,
      "note": 31,
      "start": 11.7599,
      "duration": 0.1004,
      "velocity": 127,
      "chip": "ym2612"
    },
    {
      "channel": 4,
      "note": 55,
      "start": 11.7608,
      "duration": 3.9154,
      "velocity": 1,
      "chip": "ym2612"
    },
    {
      "channel": 5,
      "note": 43,
      "start": 11.7633,
      "duration": 0.0994,
      "velocity": 78,
      "chip": "ym2612"
    },
    {
      "channel": 2,
      "note": 54,
      "start": 11.8605,
      "duration": 0.1004,
      "velocity": 127,
      "chip": "ym2612"
    },
    {
      "channel": 5,
      "note": 43,
      "start": 11.863,
      "duration": 0.0987,
      "velocity": 78,
      "chip": "ym2612"
    },
    {
      "channel": 1,
      "note": 56,
      "start": 11.9604,
      "duration": 0.2014,
      "velocity": 108,
      "chip": "ym2612"
    },
    {
      "channel": 2,
      "note": 54,
      "start": 11.9611,
      "duration": 0.0992,
      "velocity": 127,
      "chip": "ym2612"
    },
    {
      "channel": 5,
      "note": 43,
      "start": 11.962,
      "duration": 0.1008,
      "velocity": 78,
      "chip": "ym2612"
    },
    {
      "channel": 2,
      "note": 31,
      "start": 12.0605,
      "duration": 0.1019,
      "velocity": 127,
      "chip": "ym2612"
    },
    {
      "channel": 3,
      "note": 62,
      "start": 12.0613,
      "duration": 0.2013,
      "velocity": 127,
      "chip": "ym2612"
    },
    {
      "channel": 5,
      "note": 31,
      "start": 12.063,
      "duration": 0.2004,
      "velocity": 78,
      "chip": "ym2612"
    },
    {
      "channel": 1,
      "note": 49,
      "start": 12.162,
      "duration": 0.7025,
      "velocity": 108,
      "chip": "ym2612"
    },
    {
      "channel": 2,
      "note": 54,
      "start": 12.1627,
      "duration": 0.0992,
      "velocity": 127,
      "chip": "ym2612"
    },
    {
      "channel": 2,
      "note": 31,
      "start": 12.2621,
      "duration": 0.1002,
      "velocity": 127,
      "chip": "ym2612"
    },
    {
      "channel": 3,
      "note": 62,
      "start": 12.2628,
      "duration": 0.2992,
      "velocity": 127,
      "chip": "ym2612"
    },
    {
      "channel": 5,
      "note": 31,
      "start": 12.2636,
      "duration": 0.0996,
      "velocity": 78,
      "chip": "ym2612"
    },
    {
      "channel": 2,
      "note": 31,
      "start": 12.3624,
      "duration": 0.0002,
      "velocity": 127,
      "chip": "ym2612"
    },
    {
      "channel": 2,
      "note": 54,
      "start": 12.3629,
      "duration": 0.0984,
      "velocity": 127,
      "chip": "ym2612"
    },
    {
      "channel": 5,
      "note": 43,
      "start": 12.3634,
      "duration": 0.2016,
      "velocity": 78,
      "chip": "ym2612"
    },
    {
      "channel": 2,
      "note": 54,
      "start": 12.4615,
      "duration": 0.0998,
      "velocity": 127,
      "chip": "ym2612"
    },
    {
      "channel": 2,
      "note": 31,
      "start": 12.5615,
      "duration": 0.0021,
      "velocity": 127,
      "chip": "ym2612"
    },
    {
      "channel": 3,
      "note": 62,
      "start": 12.5622,
      "duration": 0.5021,
      "velocity": 127,
      "chip": "ym2612"
    },
    {
      "channel": 2,
      "note": 31,
      "start": 12.5639,
      "duration": 0.0992,
      "velocity": 127,
      "chip": "ym2612"
    },
    {
      "channel": 5,
      "note": 43,
      "start": 12.5652,
      "duration": 0.1988,
      "velocity": 78,
      "chip": "ym2612"
    },
    {
      "channel": 2,
      "note": 54,
      "start": 12.6633,
      "duration": 0.0998,
      "velocity": 127,
      "chip": "ym2612"
    },
    {
      "channel": 2,
      "note": 54,
      "start": 12.7633,
      "duration": 0.0998,
      "velocity": 127,
      "chip": "ym2612"
    },
    {
      "channel": 5,
      "note": 43,
      "start": 12.7642,
      "duration": 0.1016,
      "velocity": 78,
      "chip": "ym2612"
    },
    {
      "channel": 2,
      "note": 31,
      "start": 12.8633,
      "duration": 0.0016,
      "velocity": 127,
      "chip": "ym2612"
    },
    {
      "channel": 1,
      "note": 44,
      "start": 12.8648,
      "duration": 0.1981,
      "velocity": 108,
      "chip": "ym2612"
    },
    {
      "channel": 2,
      "note": 54,
      "start": 12.8651,
      "duration": 0.0978,
      "velocity": 127,
      "chip": "ym2612"
    },
    {
      "channel": 5,
      "note": 43,
      "start": 12.866,
      "duration": 0.0978,
      "velocity": 78,
      "chip": "ym2612"
    },
    {
      "channel": 2,
      "note": 54,
      "start": 12.9631,
      "duration": 0.1005,
      "velocity": 127,
      "chip": "ym2612"
    },
    {
      "channel": 5,
      "note": 43,
      "start": 12.964,
      "duration": 0.1013,
      "velocity": 78,
      "chip": "ym2612"
    },
    {
      "channel": 1,
      "note": 56,
      "start": 13.0631,
      "duration": 0.1012,
      "velocity": 108,
      "chip": "ym2612"
    },
    {
      "channel": 2,
      "note": 31,
      "start": 13.0638,
      "duration": 0.1012,
      "velocity": 127,
      "chip": "ym2612"
    },
    {
      "channel": 3,
      "note": 62,
      "start": 13.0645,
      "duration": 0.2006,
      "velocity": 127,
      "chip": "ym2612"
    },
    {
      "channel": 5,
      "note": 31,
      "start": 13.0656,
      "duration": 0.2003,
      "velocity": 78,
      "chip": "ym2612"
    },
    {
      "channel": 1,
      "note": 49,
      "start": 13.1645,
      "duration": 0.2007,
      "velocity": 108,
      "chip": "ym2612"
    },
    {
      "channel": 2,
      "note": 54,
      "start": 13.1652,
      "duration": 0.0992,
      "velocity": 127,
      "chip": "ym2612"
    },
    {
      "channel": 2,
      "note": 31,
      "start": 13.2646,
      "duration": 0.1002,
      "velocity": 127,
      "chip": "ym2612"
    },
    {
      "channel": 3,
      "note": 62,
      "start": 13.2653,
      "duration": 0.3002,
      "velocity": 127,
      "chip": "ym2612"
    },
    {
      "channel": 5,
      "note": 31,
      "start": 13.2661,
      "duration": 0.1008,
      "velocity": 78,
      "chip": "ym2612"
    },
    {
      "channel": 2,
      "note": 31,
      "start": 13.3649,
      "duration": 0.0006,
      "velocity": 127,
      "chip": "ym2612"
    },
    {
      "channel": 1,
      "note": 44,
      "start": 13.3654,
      "duration": 0.1987,
      "velocity": 108,
      "chip": "ym2612"
    },
    {
      "channel": 2,
      "note": 54,
      "start": 13.3658,
      "duration": 0.0983,
      "velocity": 127,
      "chip": "ym2612"
    },
    {
      "channel": 5,
      "note": 43,
      "start": 13.3671,
      "duration": 0.2013,
      "velocity": 78,
      "chip": "ym2612"
    },
    {
      "channel": 2,
      "note": 54,
      "start": 13.4643,
      "duration": 0.1005,
      "velocity": 127,
      "chip": "ym2612"
    },
    {
      "channel": 1,
      "note": 56,
      "start": 13.5643,
      "duration": 0.0029,
      "velocity": 108,
      "chip": "ym2612"
    },
    {
      "channel": 2,
      "note": 31,
      "start": 13.565,
      "duration": 0.0017,
      "velocity": 127,
      "chip": "ym2612"
    },
    {
      "channel": 3,
      "note": 62,
      "start": 13.5657,
      "duration": 0.4016,
      "velocity": 127,
      "chip": "ym2612"
    },
    {
      "channel": 2,
      "note": 31,
      "start": 13.5669,
      "duration": 0.0007,
      "velocity": 127,
      "chip": "ym2612"
    },
    {
      "channel": 1,
      "note": 49,
      "start": 13.5674,
      "duration": 1.2019,
      "velocity": 108,
      "chip": "ym2612"
    },
    {
      "channel": 2,
      "note": 54,
      "start": 13.5678,
      "duration": 0.0978,
      "velocity": 127,
      "chip": "ym2612"
    },
    {
      "channel": 5,
      "note": 43,
      "start": 13.5686,
      "duration": 0.0978,
      "velocity": 78,
      "chip": "ym2612"
    },
    {
      "channel": 2,
      "note": 54,
      "start": 13.6657,
      "duration": 0.0998,
      "velocity": 127,
      "chip": "ym2612"
    },
    {
      "channel": 5,
      "note": 43,
      "start": 13.6666,
      "duration": 0.1018,
      "velocity": 78,
      "chip": "ym2612"
    },
    {
      "channel": 2,
      "note": 31,
      "start": 13.7657,
      "duration": 0.0013,
      "velocity": 127,
      "chip": "ym2612"
    },
    {
      "channel": 2,
      "note": 54,
      "start": 13.7673,
      "duration": 0.0992,
      "velocity": 127,
      "chip": "ym2612"
    },
    {
      "channel": 5,
      "note": 43,
      "start": 13.7686,
      "duration": 0.0988,
      "velocity": 78,
      "chip": "ym2612"
    },
    {
      "channel": 2,
      "note": 54,
      "start": 13.8667,
      "duration": 0.0998,
      "velocity": 127,
      "chip": "ym2612"
    },
    {
      "channel": 5,
      "note": 43,
      "start": 13.8676,
      "duration": 0.1014,
      "velocity": 78,
      "chip": "ym2612"
    },
    {
      "channel": 2,
      "note": 31,
      "start": 13.9667,
      "duration": 0.1014,
      "velocity": 127,
      "chip": "ym2612"
    },
    {
      "channel": 3,
      "note": 62,
      "start": 13.9674,
      "duration": 0.2014,
      "velocity": 127,
      "chip": "ym2612"
    },
    {
      "channel": 5,
      "note": 31,
      "start": 13.9693,
      "duration": 0.2004,
      "velocity": 78,
      "chip": "ym2612"
    },
    {
      "channel": 2,
      "note": 54,
      "start": 14.0683,
      "duration": 0.0998,
      "velocity": 127,
      "chip": "ym2612"
    },
    {
      "channel": 2,
      "note": 31,
      "start": 14.1684,
      "duration": 0.1002,
      "velocity": 127,
      "chip": "ym2612"
    },
    {
      "channel": 3,
      "note": 62,
      "start": 14.169,
      "duration": 0.2992,
      "velocity": 127,
      "chip": "ym2612"
    },
    {
      "channel": 5,
      "note": 31,
      "start": 14.1698,
      "duration": 0.0996,
      "velocity": 78,
      "chip": "ym2612"
    },
    {
      "channel": 2,
      "note": 31,
      "start": 14.2687,
      "duration": 0.0002,
      "velocity": 127,
      "chip": "ym2612"
    },
    {
      "channel": 2,
      "note": 54,
      "start": 14.2691,
      "duration": 0.0984,
      "velocity": 127,
      "chip": "ym2612"
    },
    {
      "channel": 5,
      "note": 43,
      "start": 14.2696,
      "duration": 0.2016,
      "velocity": 78,
      "chip": "ym2612"
    },
    {
      "channel": 2,
      "note": 54,
      "start": 14.3677,
      "duration": 0.0998,
      "velocity": 127,
      "chip": "ym2612"
    },
    {
      "channel": 2,
      "note": 31,
      "start": 14.4677,
      "duration": 0.0021,
      "velocity": 127,
      "chip": "ym2612"
    },
    {
      "channel": 3,
      "note": 62,
      "start": 14.4684,
      "duration": 0.5028,
      "velocity": 127,
      "chip": "ym2612"
    },
    {
      "channel": 2,
      "note": 31,
      "start": 14.4701,
      "duration": 0.0992,
      "velocity": 127,
      "chip": "ym2612"
    },
    {
      "channel": 5,
      "note": 43,
      "start": 14.4715,
      "duration": 0.1988,
      "velocity": 78,
      "chip": "ym2612"
    },
    {
      "channel": 2,
      "note": 54,
      "start": 14.5695,
      "duration": 0.0998,
      "velocity": 127,
      "chip": "ym2612"
    },
    {
      "channel": 2,
      "note": 54,
      "start": 14.6695,
      "duration": 0.1004,
      "velocity": 127,
      "chip": "ym2612"
    },
    {
      "channel": 5,
      "note": 43,
      "start": 14.6704,
      "duration": 0.1019,
      "velocity": 78,
      "chip": "ym2612"
    },
    {
      "channel": 1,
      "note": 44,
      "start": 14.7695,
      "duration": 0.101,
      "velocity": 108,
      "chip": "ym2612"
    },
    {
      "channel": 2,
      "note": 31,
      "start": 14.7702,
      "duration": 0.0011,
      "velocity": 127,
      "chip": "ym2612"
    },
    {
      "channel": 2,
      "note": 54,
      "start": 14.7715,
      "duration": 0.0997,
      "velocity": 127,
      "chip": "ym2612"
    },
    {
      "channel": 5,
      "note": 43,
      "start": 14.7726,
      "duration": 0.0994,
      "velocity": 78,
      "chip": "ym2612"
    },
    {
      "channel": 1,
      "note": 56,
      "start": 14.8706,
      "duration": 0.2014,
      "velocity": 108,
      "chip": "ym2612"
    },
    {
      "channel": 2,
      "note": 54,
      "start": 14.8713,
      "duration": 0.0992,
      "velocity": 127,
      "chip": "ym2612"
    },
    {
      "channel": 5,
      "note": 43,
      "start": 14.8722,
      "duration": 0.1008,
      "velocity": 78,
      "chip": "ym2612"
    },
    {
      "channel": 2,
      "note": 31,
      "start": 14.9707,
      "duration": 0.1019,
      "velocity": 127,
      "chip": "ym2612"
    },
    {
      "channel": 3,
      "note": 62,
      "start": 14.9714,
      "duration": 0.2014,
      "velocity": 127,
      "chip": "ym2612"
    },
    {
      "channel": 5,
      "note": 31,
      "start": 14.9732,
      "duration": 0.2004,
      "velocity": 78,
      "chip": "ym2612"
    },
    {
      "channel": 1,
      "note": 49,
      "start": 15.0722,
      "duration": 0.6024,
      "velocity": 108,
      "chip": "ym2612"
    },
    {
      "channel": 2,
      "note": 54,
      "start": 15.0729,
      "duration": 0.0992,
      "velocity": 127,
      "chip": "ym2612"
    },
    {
      "channel": 2,
      "note": 31,
      "start": 15.1723,
      "duration": 0.1001,
      "velocity": 127,
      "chip": "ym2612"
    },
    {
      "channel": 3,
      "note": 62,
      "start": 15.173,
      "duration": 0.0999,
      "velocity": 127,
      "chip": "ym2612"
    },
    {
      "channel": 5,
      "note": 31,
      "start": 15.1738,
      "duration": 0.1012,
      "velocity": 78,
      "chip": "ym2612"
    },
    {
      "channel": 2,
      "note": 31,
      "start": 15.2726,
      "duration": 0.001,
      "velocity": 127,
      "chip": "ym2612"
    },
    {
      "channel": 3,
      "note": 62,
      "start": 15.2731,
      "duration": 0.2007,
      "velocity": 127,
      "chip": "ym2612"
    },
    {
      "channel": 2,
      "note": 54,
      "start": 15.2739,
      "duration": 0.0992,
      "velocity": 127,
      "chip": "ym2612"
    },
    {
      "channel": 5,
      "note": 43,
      "start": 15.2753,
      "duration": 0.201,
      "velocity": 78,
      "chip": "ym2612"
    },
    {
      "channel": 2,
      "note": 54,
      "start": 15.3733,
      "duration": 0.0998,
      "velocity": 127,
      "chip": "ym2612"
    },
    {
      "channel": 2,
      "note": 31,
      "start": 15.4733,
      "duration": 0.0018,
      "velocity": 127,
      "chip": "ym2612"
    },
    {
      "channel": 3,
      "note": 62,
      "start": 15.474,
      "duration": 0.1012,
      "velocity": 127,
      "chip": "ym2612"
    },
    {
      "channel": 2,
      "note": 31,
      "start": 15.4753,
      "duration": 0.0002,
      "velocity": 127,
      "chip": "ym2612"
    },
    {
      "channel": 2,
      "note": 54,
      "start": 15.4757,
      "duration": 0.0988,
      "velocity": 127,
      "chip": "ym2612"
    },
    {
      "channel": 5,
      "note": 43,
      "start": 15.4765,
      "duration": 0.0994,
      "velocity": 78,
      "chip": "ym2612"
    },
    {
      "channel": 2,
      "note": 54,
      "start": 15.5747,
      "duration": 0.1006,
      "velocity": 127,
      "chip": "ym2612"
    },
    {
      "channel": 3,
      "note": 62,
      "start": 15.5754,
      "duration": 0.4014,
      "velocity": 127,
      "chip": "ym2612"
    },
    {
      "channel": 5,
      "note": 43,
      "start": 15.5762,
      "duration": 0.1025,
      "velocity": 1,
      "chip": "ym2612"
    },
    {
      "channel": 1,
      "note": 44,
      "start": 15.6747,
      "duration": 0.2011,
      "velocity": 108,
      "chip": "ym2612"
    },
    {
      "channel": 2,
      "note": 31,
      "start": 15.6755,
      "duration": 0.1004,
      "velocity": 127,
      "chip": "ym2612"
    },
    {
      "channel": 4,
      "note": 55,
      "start": 15.6764,
      "duration": 3.917,
      "velocity": 1,
      "chip": "ym2612"
    },
    {
      "channel": 5,
      "note": 43,
      "start": 15.6789,
      "duration": 0.0995,
      "velocity": 78,
      "chip": "ym2612"
    },
    {
      "channel": 2,
      "note": 54,
      "start": 15.7761,
      "duration": 0.1004,
      "velocity": 127,
      "chip": "ym2612"
    },
    {
      "channel": 5,
      "note": 43,
      "start": 15.7786,
      "duration": 0.0987,
      "velocity": 78,
      "chip": "ym2612"
    },
    {
      "channel": 1,
      "note": 56,
      "start": 15.876,
      "duration": 0.2014,
      "velocity": 108,
      "chip": "ym2612"
    },
    {
      "channel": 2,
      "note": 54,
      "start": 15.8767,
      "duration": 0.0992,
      "velocity": 127,
      "chip": "ym2612"
    },
    {
      "channel": 5,
      "note": 43,
      "start": 15.8776,
      "duration": 0.1008,
      "velocity": 78,
      "chip": "ym2612"
    },
    {
      "channel": 2,
      "note": 31,
      "start": 15.9761,
      "duration": 0.1019,
      "velocity": 127,
      "chip": "ym2612"
    },
    {
      "channel": 3,
      "note": 62,
      "start": 15.9769,
      "duration": 0.2013,
      "velocity": 127,
      "chip": "ym2612"
    },
    {
      "channel": 5,
      "note": 31,
      "start": 15.9786,
      "duration": 0.2004,
      "velocity": 78,
      "chip": "ym2612"
    },
    {
      "channel": 1,
      "note": 49,
      "start": 16.0776,
      "duration": 0.7025,
      "velocity": 108,
      "chip": "ym2612"
    },
    {
      "channel": 2,
      "note": 54,
      "start": 16.0783,
      "duration": 0.0992,
      "velocity": 127,
      "chip": "ym2612"
    },
    {
      "channel": 2,
      "note": 31,
      "start": 16.1777,
      "duration": 0.1002,
      "velocity": 127,
      "chip": "ym2612"
    },
    {
      "channel": 3,
      "note": 62,
      "start": 16.1784,
      "duration": 0.2992,
      "velocity": 127,
      "chip": "ym2612"
    },
    {
      "channel": 5,
      "note": 31,
      "start": 16.1792,
      "duration": 0.0996,
      "velocity": 78,
      "chip": "ym2612"
    },
    {
      "channel": 2,
      "note": 31,
      "start": 16.278,
      "duration": 0.0002,
      "velocity": 127,
      "chip": "ym2612"
    },
    {
      "channel": 2,
      "note": 54,
      "start": 16.2785,
      "duration": 0.0984,
      "velocity": 127,
      "chip": "ym2612"
    },
    {
      "channel": 5,
      "note": 43,
      "start": 16.279,
      "duration": 0.2016,
      "velocity": 78,
      "chip": "ym2612"
    },
    {
      "channel": 2,
      "note": 54,
      "start": 16.3771,
      "duration": 0.0998,
      "velocity": 127,
      "chip": "ym2612"
    },
    {
      "channel": 2,
      "note": 31,
      "start": 16.4771,
      "duration": 0.0021,
      "velocity": 127,
      "chip": "ym2612"
    },
    {
      "channel": 3,
      "note": 62,
      "start": 16.4778,
      "duration": 0.5021,
      "velocity": 127,
      "chip": "ym2612"
    },
    {
      "channel": 2,
      "note": 31,
      "start": 16.4795,
      "duration": 0.0992,
      "velocity": 127,
      "chip": "ym2612"
    },
    {
      "channel": 5,
      "note": 43,
      "start": 16.4808,
      "duration": 0.1988,
      "velocity": 78,
      "chip": "ym2612"
    },
    {
      "channel": 2,
      "note": 54,
      "start": 16.5789,
      "duration": 0.0998,
      "velocity": 127,
      "chip": "ym2612"
    },
    {
      "channel": 2,
      "note": 54,
      "start": 16.6789,
      "duration": 0.0998,
      "velocity": 127,
      "chip": "ym2612"
    },
    {
      "channel": 5,
      "note": 43,
      "start": 16.6798,
      "duration": 0.1016,
      "velocity": 78,
      "chip": "ym2612"
    },
    {
      "channel": 2,
      "note": 31,
      "start": 16.7789,
      "duration": 0.0016,
      "velocity": 127,
      "chip": "ym2612"
    },
    {
      "channel": 1,
      "note": 44,
      "start": 16.7804,
      "duration": 0.1981,
      "velocity": 108,
      "chip": "ym2612"
    },
    {
      "channel": 2,
      "note": 54,
      "start": 16.7807,
      "duration": 0.0978,
      "velocity": 127,
      "chip": "ym2612"
    },
    {
      "channel": 5,
      "note": 43,
      "start": 16.7816,
      "duration": 0.0978,
      "velocity": 78,
      "chip": "ym2612"
    },
    {
      "channel": 2,
      "note": 54,
      "start": 16.8787,
      "duration": 0.1005,
      "velocity": 127,
      "chip": "ym2612"
    },
    {
      "channel": 5,
      "note": 43,
      "start": 16.8796,
      "duration": 0.1013,
      "velocity": 78,
      "chip": "ym2612"
    },
    {
      "channel": 1,
      "note": 56,
      "start": 16.9787,
      "duration": 0.1012,
      "velocity": 108,
      "chip": "ym2612"
    },
    {
      "channel": 2,
      "note": 31,
      "start": 16.9794,
      "duration": 0.1012,
      "velocity": 127,
      "chip": "ym2612"
    },
    {
      "channel": 3,
      "note": 62,
      "start": 16.9801,
      "duration": 0.2006,
      "velocity": 127,
      "chip": "ym2612"
    },
    {
      "channel": 5,
      "note": 31,
      "start": 16.9812,
      "duration": 0.2003,
      "velocity": 78,
      "chip": "ym2612"
    },
    {
      "channel": 1,
      "note": 49,
      "start": 17.0801,
      "duration": 0.2007,
      "velocity": 108,
      "chip": "ym2612"
    },
    {
      "channel": 2,
      "note": 54,
      "start": 17.0808,
      "duration": 0.0992,
      "velocity": 127,
      "chip": "ym2612"
    },
    {
      "channel": 2,
      "note": 31,
      "start": 17.1802,
      "duration": 0.1002,
      "velocity": 127,
      "chip": "ym2612"
    },
    {
      "channel": 3,
      "note": 62,
      "start": 17.1809,
      "duration": 0.3002,
      "velocity": 127,
      "chip": "ym2612"
    },
    {
      "channel": 5,
      "note": 31,
      "start": 17.1817,
      "duration": 0.1008,
      "velocity": 78,
      "chip": "ym2612"
    },
    {
      "channel": 2,
      "note": 31,
      "start": 17.2805,
      "duration": 0.0006,
      "velocity": 127,
      "chip": "ym2612"
    },
    {
      "channel": 1,
      "note": 44,
      "start": 17.281,
      "duration": 0.1987,
      "velocity": 108,
      "chip": "ym2612"
    },
    {
      "channel": 2,
      "note": 54,
      "start": 17.2814,
      "duration": 0.0983,
      "velocity": 127,
      "chip": "ym2612"
    },
    {
      "channel": 5,
      "note": 43,
      "start": 17.2827,
      "duration": 0.2013,
      "velocity": 78,
      "chip": "ym2612"
    },
    {
      "channel": 2,
      "note": 54,
      "start": 17.3799,
      "duration": 0.1005,
      "velocity": 127,
      "chip": "ym2612"
    },
    {
      "channel": 1,
      "note": 56,
      "start": 17.4799,
      "duration": 0.0029,
      "velocity": 108,
      "chip": "ym2612"
    },
    {
      "channel": 2,
      "note": 31,
      "start": 17.4806,
      "duration": 0.0017,
      "velocity": 127,
      "chip": "ym2612"
    },
    {
      "channel": 3,
      "note": 62,
      "start": 17.4813,
      "duration": 0.4016,
      "velocity": 127,
      "chip": "ym2612"
    },
    {
      "channel": 2,
      "note": 31,
      "start": 17.4825,
      "duration": 0.0007,
      "velocity": 127,
      "chip": "ym2612"
    },
    {
      "channel": 1,
      "note": 49,
      "start": 17.483,
      "duration": 1.2019,
      "velocity": 108,
      "chip": "ym2612"
    },
    {
      "channel": 2,
      "note": 54,
      "start": 17.4834,
      "duration": 0.0978,
      "velocity": 127,
      "chip": "ym2612"
    },
    {
      "channel": 5,
      "note": 43,
      "start": 17.4842,
      "duration": 0.0978,
      "velocity": 78,
      "chip": "ym2612"
    },
    {
      "channel": 2,
      "note": 54,
      "start": 17.5813,
      "duration": 0.0998,
      "velocity": 127,
      "chip": "ym2612"
    },
    {
      "channel": 5,
      "note": 43,
      "start": 17.5822,
      "duration": 0.1018,
      "velocity": 78,
      "chip": "ym2612"
    },
    {
      "channel": 2,
      "note": 31,
      "start": 17.6813,
      "duration": 0.0013,
      "velocity": 127,
      "chip": "ym2612"
    },
    {
      "channel": 2,
      "note": 54,
      "start": 17.6829,
      "duration": 0.0992,
      "velocity": 127,
      "chip": "ym2612"
    },
    {
      "channel": 5,
      "note": 43,
      "start": 17.6842,
      "duration": 0.0988,
      "velocity": 78,
      "chip": "ym2612"
    },
    {
      "channel": 2,
      "note": 54,
      "start": 17.7823,
      "duration": 0.0998,
      "velocity": 127,
      "chip": "ym2612"
    },
    {
      "channel": 5,
      "note": 43,
      "start": 17.7832,
      "duration": 0.1014,
      "velocity": 78,
      "chip": "ym2612"
    },
    {
      "channel": 2,
      "note": 31,
      "start": 17.8823,
      "duration": 0.1014,
      "velocity": 127,
      "chip": "ym2612"
    },
    {
      "channel": 3,
      "note": 62,
      "start": 17.883,
      "duration": 0.2014,
      "velocity": 127,
      "chip": "ym2612"
    },
    {
      "channel": 5,
      "note": 31,
      "start": 17.8849,
      "duration": 0.2004,
      "velocity": 78,
      "chip": "ym2612"
    },
    {
      "channel": 2,
      "note": 54,
      "start": 17.9839,
      "duration": 0.0998,
      "velocity": 127,
      "chip": "ym2612"
    },
    {
      "channel": 2,
      "note": 31,
      "start": 18.084,
      "duration": 0.1002,
      "velocity": 127,
      "chip": "ym2612"
    },
    {
      "channel": 3,
      "note": 62,
      "start": 18.0846,
      "duration": 0.2992,
      "velocity": 127,
      "chip": "ym2612"
    },
    {
      "channel": 5,
      "note": 31,
      "start": 18.0854,
      "duration": 0.0996,
      "velocity": 78,
      "chip": "ym2612"
    },
    {
      "channel": 2,
      "note": 31,
      "start": 18.1843,
      "duration": 0.0002,
      "velocity": 127,
      "chip": "ym2612"
    },
    {
      "channel": 2,
      "note": 54,
      "start": 18.1847,
      "duration": 0.0984,
      "velocity": 127,
      "chip": "ym2612"
    },
    {
      "channel": 5,
      "note": 43,
      "start": 18.1852,
      "duration": 0.2016,
      "velocity": 78,
      "chip": "ym2612"
    },
    {
      "channel": 2,
      "note": 54,
      "start": 18.2833,
      "duration": 0.0998,
      "velocity": 127,
      "chip": "ym2612"
    },
    {
      "channel": 2,
      "note": 31,
      "start": 18.3833,
      "duration": 0.0021,
      "velocity": 127,
      "chip": "ym2612"
    },
    {
      "channel": 3,
      "note": 62,
      "start": 18.384,
      "duration": 0.5028,
      "velocity": 127,
      "chip": "ym2612"
    },
    {
      "channel": 2,
      "note": 31,
      "start": 18.3857,
      "duration": 0.0992,
      "velocity": 127,
      "chip": "ym2612"
    },
    {
      "channel": 5,
      "note": 43,
      "start": 18.3871,
      "duration": 0.1988,
      "velocity": 78,
      "chip": "ym2612"
    },
    {
      "channel": 2,
      "note": 54,
      "start": 18.4851,
      "duration": 0.0998,
      "velocity": 127,
      "chip": "ym2612"
    },
    {
      "channel": 2,
      "note": 54,
      "start": 18.5851,
      "duration": 0.1004,
      "velocity": 127,
      "chip": "ym2612"
    },
    {
      "channel": 5,
      "note": 43,
      "start": 18.586,
      "duration": 0.1019,
      "velocity": 78,
      "chip": "ym2612"
    },
    {
      "channel": 1,
      "note": 44,
      "start": 18.6851,
      "duration": 0.101,
      "velocity": 108,
      "chip": "ym2612"
    },
    {
      "channel": 2,
      "note": 31,
      "start": 18.6858,
      "duration": 0.0011,
      "velocity": 127,
      "chip": "ym2612"
    },
    {
      "channel": 2,
      "note": 54,
      "start": 18.6871,
      "duration": 0.0997,
      "velocity": 127,
      "chip": "ym2612"
    },
    {
      "channel": 5,
      "note": 43,
      "start": 18.6882,
      "duration": 0.0994,
      "velocity": 78,
      "chip": "ym2612"
    },
    {
      "channel": 1,
      "note": 56,
      "start": 18.7862,
      "duration": 0.2014,
      "velocity": 108,
      "chip": "ym2612"
    },
    {
      "channel": 2,
      "note": 54,
      "start": 18.7869,
      "duration": 0.0992,
      "velocity": 127,
      "chip": "ym2612"
    },
    {
      "channel": 5,
      "note": 43,
      "start": 18.7878,
      "duration": 0.1008,
      "velocity": 78,
      "chip": "ym2612"
    },
    {
      "channel": 2,
      "note": 31,
      "start": 18.8863,
      "duration": 0.1019,
      "velocity": 127,
      "chip": "ym2612"
    },
    {
      "channel": 3,
      "note": 62,
      "start": 18.887,
      "duration": 0.2014,
      "velocity": 127,
      "chip": "ym2612"
    },
    {
      "channel": 5,
      "note": 31,
      "start": 18.8888,
      "duration": 0.2004,
      "velocity": 78,
      "chip": "ym2612"
    },
    {
      "channel": 1,
      "note": 49,
      "start": 18.9878,
      "duration": 0.6039,
      "velocity": 102,
      "chip": "ym2612"
    },
    {
      "channel": 2,
      "note": 54,
      "start": 18.9885,
      "duration": 0.0992,
      "velocity": 127,
      "chip": "ym2612"
    },
    {
      "channel": 2,
      "note": 31,
      "start": 19.0879,
      "duration": 0.1001,
      "velocity": 127,
      "chip": "ym2612"
    },
    {
      "channel": 3,
      "note": 62,
      "start": 19.0886,
      "duration": 0.0999,
      "velocity": 127,
      "chip": "ym2612"
    },
    {
      "channel": 5,
      "note": 31,
      "start": 19.0894,
      "duration": 0.1012,
      "velocity": 78,
      "chip": "ym2612"
    },
    {
      "channel": 2,
      "note": 31,
      "start": 19.1882,
      "duration": 0.001,
      "velocity": 127,
      "chip": "ym2612"
    },
    {
      "channel": 3,
      "note": 62,
      "start": 19.1887,
      "duration": 0.2007,
      "velocity": 127,
      "chip": "ym2612"
    },
    {
      "channel": 2,
      "note": 54,
      "start": 19.1895,
      "duration": 0.0992,
      "velocity": 127,
      "chip": "ym2612"
    },
    {
      "channel": 5,
      "note": 43,
      "start": 19.1909,
      "duration": 0.201,
      "velocity": 78,
      "chip": "ym2612"
    },
    {
      "channel": 2,
      "note": 54,
      "start": 19.2889,
      "duration": 0.0998,
      "velocity": 127,
      "chip": "ym2612"
    },
    {
      "channel": 2,
      "note": 31,
      "start": 19.3889,
      "duration": 0.0018,
      "velocity": 127,
      "chip": "ym2612"
    },
    {
      "channel": 3,
      "note": 62,
      "start": 19.3896,
      "duration": 0.1012,
      "velocity": 127,
      "chip": "ym2612"
    },
    {
      "channel": 2,
      "note": 31,
      "start": 19.3909,
      "duration": 0.0002,
      "velocity": 127,
      "chip": "ym2612"
    },
    {
      "channel": 2,
      "note": 54,
      "start": 19.3913,
      "duration": 0.0988,
      "velocity": 127,
      "chip": "ym2612"
    },
    {
      "channel": 5,
      "note": 43,
      "start": 19.3921,
      "duration": 0.0994,
      "velocity": 78,
      "chip": "ym2612"
    },
    {
      "channel": 2,
      "note": 54,
      "start": 19.4903,
      "duration": 0.1022,
      "velocity": 127,
      "chip": "ym2612"
    },
    {
      "channel": 3,
      "note": 62,
      "start": 19.491,
      "duration": 0.4037,
      "velocity": 127,
      "chip": "ym2612"
    },
    {
      "channel": 5,
      "note": 43,
      "start": 19.4918,
      "duration": 0.1051,
      "velocity": 1,
      "chip": "ym2612"
    },
    {
      "channel": 1,
      "note": 62,
      "start": 19.5919,
      "duration": 0.0023,
      "velocity": 102,
      "chip": "ym2612"
    },
    {
      "channel": 2,
      "note": 31,
      "start": 19.5927,
      "duration": 0.1012,
      "velocity": 127,
      "chip": "ym2612"
    },
    {
      "channel": 4,
      "note": 55,
      "start": 19.5936,
      "duration": 3.9256,
      "velocity": 1,
      "chip": "ym2612"
    },
    {
      "channel": 1,
      "note": 50,
      "start": 19.5944,
      "duration": 0.0988,
      "velocity": 102,
      "chip": "ym2612"
    },
    {
      "channel": 5,
      "note": 43,
      "start": 19.5972,
      "duration": 0.0992,
      "velocity": 78,
      "chip": "ym2612"
    },
    {
      "channel": 1,
      "note": 57,
      "start": 19.6934,
      "duration": 0.0998,
      "velocity": 102,
      "chip": "ym2612"
    },
    {
      "channel": 2,
      "note": 54,
      "start": 19.6941,
      "duration": 0.0998,
      "velocity": 127,
      "chip": "ym2612"
    },
    {
      "channel": 5,
      "note": 43,
      "start": 19.6965,
      "duration": 0.0982,
      "velocity": 78,
      "chip": "ym2612"
    },
    {
      "channel": 1,
      "note": 62,
      "start": 19.7934,
      "duration": 0.0999,
      "velocity": 102,
      "chip": "ym2612"
    },
    {
      "channel": 2,
      "note": 54,
      "start": 19.7941,
      "duration": 0.0999,
      "velocity": 127,
      "chip": "ym2612"
    },
    {
      "channel": 5,
      "note": 43,
      "start": 19.7949,
      "duration": 0.1022,
      "velocity": 78,
      "chip": "ym2612"
    },
    {
      "channel": 1,
      "note": 64,
      "start": 19.8934,
      "duration": 0.0026,
      "velocity": 102,
      "chip": "ym2612"
    },
    {
      "channel": 2,
      "note": 31,
      "start": 19.8941,
      "duration": 0.1017,
      "velocity": 127,
      "chip": "ym2612"
    },
    {
      "channel": 3,
      "note": 62,
      "start": 19.8949,
      "duration": 0.2018,
      "velocity": 127,
      "chip": "ym2612"
    },
    {
      "channel": 1,
      "note": 57,
      "start": 19.8961,
      "duration": 0.0991,
      "velocity": 102,
      "chip": "ym2612"
    },
    {
      "channel": 5,
      "note": 31,
      "start": 19.8974,
      "duration": 0.2,
      "velocity": 78,
      "chip": "ym2612"
    },
    {
      "channel": 1,
      "note": 62,
      "start": 19.9954,
      "duration": 0.0999,
      "velocity": 102,
      "chip": "ym2612"
    },
    {
      "channel": 2,
      "note": 54,
      "start": 19.9961,
      "duration": 0.0999,
      "velocity": 127,
      "chip": "ym2612"
    },
    {
      "channel": 1,
      "note": 64,
      "start": 20.0954,
      "duration": 0.0998,
      "velocity": 102,
      "chip": "ym2612"
    },
    {
      "channel": 2,
      "note": 31,
      "start": 20.0961,
      "duration": 0.1005,
      "velocity": 127,
      "chip": "ym2612"
    },
    {
      "channel": 3,
      "note": 62,
      "start": 20.0968,
      "duration": 0.301,
      "velocity": 127,
      "chip": "ym2612"
    },
    {
      "channel": 5,
      "note": 31,
      "start": 20.0977,
      "duration": 0.1017,
      "velocity": 78,
      "chip": "ym2612"
    },
    {
      "channel": 1,
      "note": 62,
      "start": 20.1954,
      "duration": 0.0009,
      "velocity": 102,
      "chip": "ym2612"
    },
    {
      "channel": 1,
      "note": 50,
      "start": 20.1965,
      "duration": 0.0007,
      "velocity": 102,
      "chip": "ym2612"
    },
    {
      "channel": 2,
      "note": 31,
      "start": 20.1969,
      "duration": 0.001,
      "velocity": 127,
      "chip": "ym2612"
    },
    {
      "channel": 1,
      "note": 57,
      "start": 20.1973,
      "duration": 0.0991,
      "velocity": 102,
      "chip": "ym2612"
    },
    {
      "channel": 2,
      "note": 54,
      "start": 20.1982,
      "duration": 0.0989,
      "velocity": 127,
      "chip": "ym2612"
    },
    {
      "channel": 5,
      "note": 43,
      "start": 20.1995,
      "duration": 0.2019,
      "velocity": 78,
      "chip": "ym2612"
    },
    {
      "channel": 1,
      "note": 62,
      "start": 20.2966,
      "duration": 0.0999,
      "velocity": 102,
      "chip": "ym2612"
    },
    {
      "channel": 2,
      "note": 54,
      "start": 20.2973,
      "duration": 0.0999,
      "velocity": 127,
      "chip": "ym2612"
    },
    {
      "channel": 1,
      "note": 64,
      "start": 20.3967,
      "duration": 0.0025,
      "velocity": 102,
      "chip": "ym2612"
    },
    {
      "channel": 2,
      "note": 31,
      "start": 20.3974,
      "duration": 0.0026,
      "velocity": 127,
      "chip": "ym2612"
    },
    {
      "channel": 3,
      "note": 62,
      "start": 20.3981,
      "duration": 0.5034,
      "velocity": 127,
      "chip": "ym2612"
    },
    {
      "channel": 1,
      "note": 57,
      "start": 20.3994,
      "duration": 0.0991,
      "velocity": 102,
      "chip": "ym2612"
    },
    {
      "channel": 2,
      "note": 31,
      "start": 20.4004,
      "duration": 0.0988,
      "velocity": 127,
      "chip": "ym2612"
    },
    {
      "channel": 5,
      "note": 43,
      "start": 20.4016,
      "duration": 0.1984,
      "velocity": 78,
      "chip": "ym2612"
    },
    {
      "channel": 1,
      "note": 62,
      "start": 20.4987,
      "duration": 0.0998,
      "velocity": 102,
      "chip": "ym2612"
    },
    {
      "channel": 2,
      "note": 54,
      "start": 20.4994,
      "duration": 0.0998,
      "velocity": 127,
      "chip": "ym2612"
    },
    {
      "channel": 1,
      "note": 64,
      "start": 20.5987,
      "duration": 0.0998,
      "velocity": 102,
      "chip": "ym2612"
    },
    {
      "channel": 2,
      "note": 54,
      "start": 20.5994,
      "duration": 0.0998,
      "velocity": 127,
      "chip": "ym2612"
    },
    {
      "channel": 5,
      "note": 43,
      "start": 20.6003,
      "duration": 0.1026,
      "velocity": 78,
      "chip": "ym2612"
    },
    {
      "channel": 1,
      "note": 62,
      "start": 20.6987,
      "duration": 0.0016,
      "velocity": 102,
      "chip": "ym2612"
    },
    {
      "channel": 2,
      "note": 31,
      "start": 20.6994,
      "duration": 0.002,
      "velocity": 127,
      "chip": "ym2612"
    },
    {
      "channel": 1,
      "note": 50,
      "start": 20.7005,
      "duration": 0.0006,
      "velocity": 102,
      "chip": "ym2612"
    },
    {
      "channel": 1,
      "note": 57,
      "start": 20.7013,
      "duration": 0.0987,
      "velocity": 102,
      "chip": "ym2612"
    },
    {
      "channel": 2,
      "note": 54,
      "start": 20.7017,
      "duration": 0.0989,
      "velocity": 127,
      "chip": "ym2612"
    },
    {
      "channel": 5,
      "note": 43,
      "start": 20.7031,
      "duration": 0.0984,
      "velocity": 78,
      "chip": "ym2612"
    },
    {
      "channel": 1,
      "note": 62,
      "start": 20.8002,
      "duration": 0.0999,
      "velocity": 102,
      "chip": "ym2612"
    },
    {
      "channel": 2,
      "note": 54,
      "start": 20.8009,
      "duration": 0.0999,
      "velocity": 127,
      "chip": "ym2612"
    },
    {
      "channel": 5,
      "note": 43,
      "start": 20.8017,
      "duration": 0.102,
      "velocity": 78,
      "chip": "ym2612"
    },
    {
      "channel": 1,
      "note": 64,
      "start": 20.9002,
      "duration": 0.0021,
      "velocity": 102,
      "chip": "ym2612"
    },
    {
      "channel": 2,
      "note": 31,
      "start": 20.9009,
      "duration": 0.1016,
      "velocity": 127,
      "chip": "ym2612"
    },
    {
      "channel": 3,
      "note": 62,
      "start": 20.9016,
      "duration": 0.2016,
      "velocity": 127,
      "chip": "ym2612"
    },
    {
      "channel": 1,
      "note": 57,
      "start": 20.9027,
      "duration": 0.0991,
      "velocity": 102,
      "chip": "ym2612"
    },
    {
      "channel": 5,
      "note": 31,
      "start": 20.904,
      "duration": 0.2,
      "velocity": 78,
      "chip": "ym2612"
    },
    {
      "channel": 1,
      "note": 62,
      "start": 21.002,
      "duration": 0.0999,
      "velocity": 102,
      "chip": "ym2612"
    },
    {
      "channel": 2,
      "note": 54,
      "start": 21.0027,
      "duration": 0.0999,
      "velocity": 127,
      "chip": "ym2612"
    },
    {
      "channel": 1,
      "note": 64,
      "start": 21.1021,
      "duration": 0.0998,
      "velocity": 102,
      "chip": "ym2612"
    },
    {
      "channel": 2,
      "note": 31,
      "start": 21.1028,
      "duration": 0.1005,
      "velocity": 127,
      "chip": "ym2612"
    },
    {
      "channel": 3,
      "note": 62,
      "start": 21.1035,
      "duration": 0.301,
      "velocity": 127,
      "chip": "ym2612"
    },
    {
      "channel": 5,
      "note": 31,
      "start": 21.1043,
      "duration": 0.1017,
      "velocity": 78,
      "chip": "ym2612"
    },
    {
      "channel": 1,
      "note": 62,
      "start": 21.2021,
      "duration": 0.0009,
      "velocity": 102,
      "chip": "ym2612"
    },
    {
      "channel": 1,
      "note": 50,
      "start": 21.2031,
      "duration": 0.0007,
      "velocity": 102,
      "chip": "ym2612"
    },
    {
      "channel": 2,
      "note": 31,
      "start": 21.2035,
      "duration": 0.001,
      "velocity": 127,
      "chip": "ym2612"
    },
    {
      "channel": 1,
      "note": 57,
      "start": 21.2039,
      "duration": 0.0991,
      "velocity": 102,
      "chip": "ym2612"
    },
    {
      "channel": 2,
      "note": 54,
      "start": 21.2048,
      "duration": 0.0989,
      "velocity": 127,
      "chip": "ym2612"
    },
    {
      "channel": 5,
      "note": 43,
      "start": 21.2061,
      "duration": 0.2013,
      "velocity": 78,
      "chip": "ym2612"
    },
    {
      "channel": 1,
      "note": 62,
      "start": 21.3032,
      "duration": 0.0999,
      "velocity": 102,
      "chip": "ym2612"
    },
    {
      "channel": 2,
      "note": 54,
      "start": 21.3039,
      "duration": 0.0999,
      "velocity": 127,
      "chip": "ym2612"
    },
    {
      "channel": 1,
      "note": 64,
      "start": 21.4033,
      "duration": 0.0025,
      "velocity": 102,
      "chip": "ym2612"
    },
    {
      "channel": 2,
      "note": 31,
      "start": 21.404,
      "duration": 0.0022,
      "velocity": 127,
      "chip": "ym2612"
    },
    {
      "channel": 3,
      "note": 62,
      "start": 21.4047,
      "duration": 0.4028,
      "velocity": 127,
      "chip": "ym2612"
    },
    {
      "channel": 1,
      "note": 57,
      "start": 21.406,
      "duration": 0.0006,
      "velocity": 102,
      "chip": "ym2612"
    },
    {
      "channel": 2,
      "note": 31,
      "start": 21.4064,
      "duration": 0.0006,
      "velocity": 127,
      "chip": "ym2612"
    },
    {
      "channel": 1,
      "note": 62,
      "start": 21.4068,
      "duration": 0.0979,
      "velocity": 102,
      "chip": "ym2612"
    },
    {
      "channel": 2,
      "note": 54,
      "start": 21.4072,
      "duration": 0.0981,
      "velocity": 127,
      "chip": "ym2612"
    },
    {
      "channel": 5,
      "note": 43,
      "start": 21.4077,
      "duration": 0.0984,
      "velocity": 78,
      "chip": "ym2612"
    },
    {
      "channel": 1,
      "note": 64,
      "start": 21.5048,
      "duration": 0.0998,
      "velocity": 102,
      "chip": "ym2612"
    },
    {
      "channel": 2,
      "note": 54,
      "start": 21.5055,
      "duration": 0.0998,
      "velocity": 127,
      "chip": "ym2612"
    },
    {
      "channel": 5,
      "note": 43,
      "start": 21.5064,
      "duration": 0.1026,
      "velocity": 78,
      "chip": "ym2612"
    },
    {
      "channel": 1,
      "note": 62,
      "start": 21.6048,
      "duration": 0.0016,
      "velocity": 102,
      "chip": "ym2612"
    },
    {
      "channel": 2,
      "note": 31,
      "start": 21.6055,
      "duration": 0.002,
      "velocity": 127,
      "chip": "ym2612"
    },
    {
      "channel": 1,
      "note": 50,
      "start": 21.6066,
      "duration": 0.0006,
      "velocity": 102,
      "chip": "ym2612"
    },
    {
      "channel": 1,
      "note": 57,
      "start": 21.6074,
      "duration": 0.0987,
      "velocity": 102,
      "chip": "ym2612"
    },
    {
      "channel": 2,
      "note": 54,
      "start": 21.6078,
      "duration": 0.0989,
      "velocity": 127,
      "chip": "ym2612"
    },
    {
      "channel": 5,
      "note": 43,
      "start": 21.6092,
      "duration": 0.0984,
      "velocity": 78,
      "chip": "ym2612"
    },
    {
      "channel": 1,
      "note": 62,
      "start": 21.7063,
      "duration": 0.0999,
      "velocity": 102,
      "chip": "ym2612"
    },
    {
      "channel": 2,
      "note": 54,
      "start": 21.707,
      "duration": 0.0999,
      "velocity": 127,
      "chip": "ym2612"
    },
    {
      "channel": 5,
      "note": 43,
      "start": 21.7078,
      "duration": 0.102,
      "velocity": 78,
      "chip": "ym2612"
    },
    {
      "channel": 1,
      "note": 64,
      "start": 21.8063,
      "duration": 0.0021,
      "velocity": 102,
      "chip": "ym2612"
    },
    {
      "channel": 2,
      "note": 31,
      "start": 21.807,
      "duration": 0.1016,
      "velocity": 127,
      "chip": "ym2612"
    },
    {
      "channel": 3,
      "note": 62,
      "start": 21.8077,
      "duration": 0.2016,
      "velocity": 127,
      "chip": "ym2612"
    },
    {
      "channel": 1,
      "note": 57,
      "start": 21.8088,
      "duration": 0.0991,
      "velocity": 102,
      "chip": "ym2612"
    },
    {
      "channel": 5,
      "note": 31,
      "start": 21.8101,
      "duration": 0.2,
      "velocity": 78,
      "chip": "ym2612"
    },
    {
      "channel": 1,
      "note": 62,
      "start": 21.9081,
      "duration": 0.0999,
      "velocity": 102,
      "chip": "ym2612"
    },
    {
      "channel": 2,
      "note": 54,
      "start": 21.9088,
      "duration": 0.0999,
      "velocity": 127,
      "chip": "ym2612"
    },
    {
      "channel": 1,
      "note": 64,
      "start": 22.0082,
      "duration": 0.0998,
      "velocity": 102,
      "chip": "ym2612"
    },
    {
      "channel": 2,
      "note": 31,
      "start": 22.0089,
      "duration": 0.1005,
      "velocity": 127,
      "chip": "ym2612"
    },
    {
      "channel": 3,
      "note": 62,
      "start": 22.0096,
      "duration": 0.301,
      "velocity": 127,
      "chip": "ym2612"
    },
    {
      "channel": 5,
      "note": 31,
      "start": 22.0104,
      "duration": 0.1017,
      "velocity": 78,
      "chip": "ym2612"
    },
    {
      "channel": 1,
      "note": 62,
      "start": 22.1082,
      "duration": 0.0009,
      "velocity": 102,
      "chip": "ym2612"
    },
    {
      "channel": 1,
      "note": 50,
      "start": 22.1092,
      "duration": 0.0007,
      "velocity": 102,
      "chip": "ym2612"
    },
    {
      "channel": 2,
      "note": 31,
      "start": 22.1096,
      "duration": 0.001,
      "velocity": 127,
      "chip": "ym2612"
    },
    {
      "channel": 1,
      "note": 57,
      "start": 22.11,
      "duration": 0.0991,
      "velocity": 102,
      "chip": "ym2612"
    },
    {
      "channel": 2,
      "note": 54,
      "start": 22.1109,
      "duration": 0.0989,
      "velocity": 127,
      "chip": "ym2612"
    },
    {
      "channel": 5,
      "note": 43,
      "start": 22.1122,
      "duration": 0.2019,
      "velocity": 78,
      "chip": "ym2612"
    },
    {
      "channel": 1,
      "note": 62,
      "start": 22.2093,
      "duration": 0.0999,
      "velocity": 102,
      "chip": "ym2612"
    },
    {
      "channel": 2,
      "note": 54,
      "start": 22.21,
      "duration": 0.0999,
      "velocity": 127,
      "chip": "ym2612"
    },
    {
      "channel": 1,
      "note": 64,
      "start": 22.3094,
      "duration": 0.0025,
      "velocity": 102,
      "chip": "ym2612"
    },
    {
      "channel": 2,
      "note": 31,
      "start": 22.3101,
      "duration": 0.0026,
      "velocity": 127,
      "chip": "ym2612"
    },
    {
      "channel": 3,
      "note": 62,
      "start": 22.3108,
      "duration": 0.5034,
      "velocity": 127,
      "chip": "ym2612"
    },
    {
      "channel": 1,
      "note": 57,
      "start": 22.3121,
      "duration": 0.0991,
      "velocity": 102,
      "chip": "ym2612"
    },
    {
      "channel": 2,
      "note": 31,
      "start": 22.3131,
      "duration": 0.0988,
      "velocity": 127,
      "chip": "ym2612"
    },
    {
      "channel": 5,
      "note": 43,
      "start": 22.3144,
      "duration": 0.1984,
      "velocity": 78,
      "chip": "ym2612"
    },
    {
      "channel": 1,
      "note": 62,
      "start": 22.4114,
      "duration": 0.0998,
      "velocity": 102,
      "chip": "ym2612"
    },
    {
      "channel": 2,
      "note": 54,
      "start": 22.4121,
      "duration": 0.0998,
      "velocity": 127,
      "chip": "ym2612"
    },
    {
      "channel": 1,
      "note": 64,
      "start": 22.5114,
      "duration": 0.0998,
      "velocity": 102,
      "chip": "ym2612"
    },
    {
      "channel": 2,
      "note": 54,
      "start": 22.5121,
      "duration": 0.0998,
      "velocity": 127,
      "chip": "ym2612"
    },
    {
      "channel": 5,
      "note": 43,
      "start": 22.513,
      "duration": 0.1026,
      "velocity": 78,
      "chip": "ym2612"
    },
    {
      "channel": 1,
      "note": 62,
      "start": 22.6114,
      "duration": 0.0016,
      "velocity": 102,
      "chip": "ym2612"
    },
    {
      "channel": 2,
      "note": 31,
      "start": 22.6121,
      "duration": 0.002,
      "velocity": 127,
      "chip": "ym2612"
    },
    {
      "channel": 1,
      "note": 50,
      "start": 22.6132,
      "duration": 0.0006,
      "velocity": 102,
      "chip": "ym2612"
    },
    {
      "channel": 1,
      "note": 57,
      "start": 22.614,
      "duration": 0.0987,
      "velocity": 102,
      "chip": "ym2612"
    },
    {
      "channel": 2,
      "note": 54,
      "start": 22.6145,
      "duration": 0.0989,
      "velocity": 127,
      "chip": "ym2612"
    },
    {
      "channel": 5,
      "note": 43,
      "start": 22.6158,
      "duration": 0.0984,
      "velocity": 78,
      "chip": "ym2612"
    },
    {
      "channel": 1,
      "note": 62,
      "start": 22.7129,
      "duration": 0.0999,
      "velocity": 102,
      "chip": "ym2612"
    },
    {
      "channel": 2,
      "note": 54,
      "start": 22.7136,
      "duration": 0.0999,
      "velocity": 127,
      "chip": "ym2612"
    },
    {
      "channel": 5,
      "note": 43,
      "start": 22.7145,
      "duration": 0.102,
      "velocity": 78,
      "chip": "ym2612"
    },
    {
      "channel": 1,
      "note": 64,
      "start": 22.8129,
      "duration": 0.0021,
      "velocity": 102,
      "chip": "ym2612"
    },
    {
      "channel": 2,
      "note": 31,
      "start": 22.8137,
      "duration": 0.1016,
      "velocity": 127,
      "chip": "ym2612"
    },
    {
      "channel": 3,
      "note": 62,
      "start": 22.8144,
      "duration": 0.2016,
      "velocity": 127,
      "chip": "ym2612"
    },
    {
      "channel": 1,
      "note": 57,
      "start": 22.8154,
      "duration": 0.0991,
      "velocity": 102,
      "chip": "ym2612"
    },
    {
      "channel": 5,
      "note": 31,
      "start": 22.8168,
      "duration": 0.2,
      "velocity": 78,
      "chip": "ym2612"
    },
    {
      "channel": 1,
      "note": 62,
      "start": 22.9147,
      "duration": 0.0999,
      "velocity": 102,
      "chip": "ym2612"
    },
    {
      "channel": 2,
      "note": 54,
      "start": 22.9154,
      "duration": 0.0999,
      "velocity": 127,
      "chip": "ym2612"
    },
    {
      "channel": 1,
      "note": 64,
      "start": 23.0148,
      "duration": 0.0998,
      "velocity": 102,
      "chip": "ym2612"
    },
    {
      "channel": 2,
      "note": 31,
      "start": 23.0155,
      "duration": 0.1006,
      "velocity": 127,
      "chip": "ym2612"
    },
    {
      "channel": 3,
      "note": 62,
      "start": 23.0162,
      "duration": 0.1002,
      "velocity": 127,
      "chip": "ym2612"
    },
    {
      "channel": 5,
      "note": 31,
      "start": 23.017,
      "duration": 0.1017,
      "velocity": 78,
      "chip": "ym2612"
    },
    {
      "channel": 1,
      "note": 62,
      "start": 23.1148,
      "duration": 0.0009,
      "velocity": 102,
      "chip": "ym2612"
    },
    {
      "channel": 1,
      "note": 50,
      "start": 23.1158,
      "duration": 0.001,
      "velocity": 102,
      "chip": "ym2612"
    },
    {
      "channel": 2,
      "note": 31,
      "start": 23.1162,
      "duration": 0.0011,
      "velocity": 127,
      "chip": "ym2612"
    },
    {
      "channel": 3,
      "note": 62,
      "start": 23.1166,
      "duration": 0.2006,
      "velocity": 127,
      "chip": "ym2612"
    },
    {
      "channel": 1,
      "note": 57,
      "start": 23.1169,
      "duration": 0.0989,
      "velocity": 102,
      "chip": "ym2612"
    },
    {
      "channel": 2,
      "note": 54,
      "start": 23.1176,
      "duration": 0.0988,
      "velocity": 127,
      "chip": "ym2612"
    },
    {
      "channel": 5,
      "note": 43,
      "start": 23.119,
      "duration": 0.2013,
      "velocity": 78,
      "chip": "ym2612"
    },
    {
      "channel": 1,
      "note": 62,
      "start": 23.216,
      "duration": 0.0999,
      "velocity": 102,
      "chip": "ym2612"
    },
    {
      "channel": 2,
      "note": 54,
      "start": 23.2167,
      "duration": 0.0999,
      "velocity": 127,
      "chip": "ym2612"
    },
    {
      "channel": 1,
      "note": 64,
      "start": 23.3161,
      "duration": 0.0025,
      "velocity": 102,
      "chip": "ym2612"
    },
    {
      "channel": 2,
      "note": 31,
      "start": 23.3168,
      "duration": 0.0022,
      "velocity": 127,
      "chip": "ym2612"
    },
    {
      "channel": 3,
      "note": 62,
      "start": 23.3175,
      "duration": 0.1014,
      "velocity": 127,
      "chip": "ym2612"
    },
    {
      "channel": 1,
      "note": 57,
      "start": 23.3188,
      "duration": 0.0006,
      "velocity": 102,
      "chip": "ym2612"
    },
    {
      "channel": 2,
      "note": 31,
      "start": 23.3192,
      "duration": 0.0006,
      "velocity": 127,
      "chip": "ym2612"
    },
    {
      "channel": 1,
      "note": 62,
      "start": 23.3195,
      "duration": 0.0979,
      "velocity": 102,
      "chip": "ym2612"
    },
    {
      "channel": 2,
      "note": 54,
      "start": 23.3199,
      "duration": 0.0982,
      "velocity": 127,
      "chip": "ym2612"
    },
    {
      "channel": 5,
      "note": 43,
      "start": 23.3205,
      "duration": 0.0991,
      "velocity": 78,
      "chip": "ym2612"
    },
    {
      "channel": 1,
      "note": 64,
      "start": 23.4176,
      "duration": 0.0999,
      "velocity": 102,
      "chip": "ym2612"
    },
    {
      "channel": 2,
      "note": 54,
      "start": 23.4183,
      "duration": 0.1,
      "velocity": 127,
      "chip": "ym2612"
    },
    {
      "channel": 3,
      "note": 62,
      "start": 23.419,
      "duration": 6.803,
      "velocity": 127,
      "chip": "ym2612"
    },
    {
      "channel": 5,
      "note": 43,
      "start": 23.4199,
      "duration": 0.1017,
      "velocity": 100,
      "chip": "ym2612"
    },
    {
      "channel": 1,
      "note": 62,
      "start": 23.5178,
      "duration": 0.0997,
      "velocity": 102,
      "chip": "ym2612"
    },
    {
      "channel": 2,
      "note": 31,
      "start": 23.5185,
      "duration": 0.1995,
      "velocity": 127,
      "chip": "ym2612"
    },
    {
      "channel": 4,
      "note": 55,
      "start": 23.5194,
      "duration": 6.3992,
      "velocity": 1,
      "chip": "ym2612"
    },
    {
      "channel": 5,
      "note": 38,
      "start": 23.5217,
      "duration": 0.1972,
      "velocity": 100,
      "chip": "ym2612"
    },
    {
      "channel": 1,
      "note": 50,
      "start": 23.6176,
      "duration": 0.0998,
      "velocity": 102,
      "chip": "ym2612"
    },
    {
      "channel": 1,
      "note": 57,
      "start": 23.7176,
      "duration": 0.0998,
      "velocity": 102,
      "chip": "ym2612"
    },
    {
      "channel": 2,
      "note": 54,
      "start": 23.7183,
      "duration": 0.0998,
      "velocity": 127,
      "chip": "ym2612"
    },
    {
      "channel": 5,
      "note": 50,
      "start": 23.7192,
      "duration": 0.3998,
      "velocity": 100,
      "chip": "ym2612"
    },
    {
      "channel": 1,
      "note": 62,
      "start": 23.8176,
      "duration": 0.0998,
      "velocity": 102,
      "chip": "ym2612"
    },
    {
      "channel": 2,
      "note": 54,
      "start": 23.8183,
      "duration": 0.0998,
      "velocity": 127,
      "chip": "ym2612"
    },
    {
      "channel": 1,
      "note": 64,
      "start": 23.9176,
      "duration": 0.0998,
      "velocity": 102,
      "chip": "ym2612"
    },
    {
      "channel": 2,
      "note": 31,
      "start": 23.9183,
      "duration": 0.1998,
      "velocity": 127,
      "chip": "ym2612"
    },
    {
      "channel": 1,
      "note": 57,
      "start": 24.0176,
      "duration": 0.0998,
      "velocity": 102,
      "chip": "ym2612"
    },
    {
      "channel": 1,
      "note": 62,
      "start": 24.1176,
      "duration": 0.0998,
      "velocity": 102,
      "chip": "ym2612"
    },
    {
      "channel": 2,
      "note": 54,
      "start": 24.1183,
      "duration": 0.0998,
      "velocity": 127,
      "chip": "ym2612"
    },
    {
      "channel": 5,
      "note": 50,
      "start": 24.1192,
      "duration": 1.9998,
      "velocity": 100,
      "chip": "ym2612"
    },
    {
      "channel": 1,
      "note": 64,
      "start": 24.2176,
      "duration": 0.0998,
      "velocity": 102,
      "chip": "ym2612"
    },
    {
      "channel": 2,
      "note": 31,
      "start": 24.2183,
      "duration": 0.1998,
      "velocity": 127,
      "chip": "ym2612"
    },
    {
      "channel": 1,
      "note": 62,
      "start": 24.3176,
      "duration": 0.0998,
      "velocity": 102,
      "chip": "ym2612"
    },
    {
      "channel": 1,
      "note": 50,
      "start": 24.4176,
      "duration": 0.0998,
      "velocity": 102,
      "chip": "ym2612"
    },
    {
      "channel": 2,
      "note": 31,
      "start": 24.4183,
      "duration": 0.0998,
      "velocity": 127,
      "chip": "ym2612"
    },
    {
      "channel": 1,
      "note": 57,
      "start": 24.5176,
      "duration": 0.0998,
      "velocity": 102,
      "chip": "ym2612"
    },
    {
      "channel": 2,
      "note": 54,
      "start": 24.5183,
      "duration": 0.0998,
      "velocity": 127,
      "chip": "ym2612"
    },
    {
      "channel": 1,
      "note": 62,
      "start": 24.6176,
      "duration": 0.0998,
      "velocity": 102,
      "chip": "ym2612"
    },
    {
      "channel": 2,
      "note": 54,
      "start": 24.6183,
      "duration": 0.0998,
      "velocity": 127,
      "chip": "ym2612"
    },
    {
      "channel": 1,
      "note": 64,
      "start": 24.7176,
      "duration": 0.0998,
      "velocity": 102,
      "chip": "ym2612"
    },
    {
      "channel": 2,
      "note": 31,
      "start": 24.7183,
      "duration": 0.0998,
      "velocity": 127,
      "chip": "ym2612"
    },
    {
      "channel": 1,
      "note": 57,
      "start": 24.8176,
      "duration": 0.0998,
      "velocity": 102,
      "chip": "ym2612"
    },
    {
      "channel": 2,
      "note": 31,
      "start": 24.8183,
      "duration": 0.0998,
      "velocity": 127,
      "chip": "ym2612"
    },
    {
      "channel": 1,
      "note": 62,
      "start": 24.9176,
      "duration": 0.0998,
      "velocity": 102,
      "chip": "ym2612"
    },
    {
      "channel": 2,
      "note": 54,
      "start": 24.9183,
      "duration": 0.0998,
      "velocity": 127,
      "chip": "ym2612"
    },
    {
      "channel": 1,
      "note": 64,
      "start": 25.0176,
      "duration": 0.0998,
      "velocity": 102,
      "chip": "ym2612"
    },
    {
      "channel": 2,
      "note": 54,
      "start": 25.0183,
      "duration": 0.0998,
      "velocity": 127,
      "chip": "ym2612"
    },
    {
      "channel": 1,
      "note": 62,
      "start": 25.1176,
      "duration": 0.0998,
      "velocity": 102,
      "chip": "ym2612"
    },
    {
      "channel": 2,
      "note": 31,
      "start": 25.1183,
      "duration": 0.1998,
      "velocity": 127,
      "chip": "ym2612"
    },
    {
      "channel": 1,
      "note": 50,
      "start": 25.2176,
      "duration": 0.0998,
      "velocity": 102,
      "chip": "ym2612"
    },
    {
      "channel": 1,
      "note": 57,
      "start": 25.3176,
      "duration": 0.0998,
      "velocity": 102,
      "chip": "ym2612"
    },
    {
      "channel": 2,
      "note": 54,
      "start": 25.3183,
      "duration": 0.0998,
      "velocity": 127,
      "chip": "ym2612"
    },
    {
      "channel": 1,
      "note": 62,
      "start": 25.4176,
      "duration": 0.0998,
      "velocity": 102,
      "chip": "ym2612"
    },
    {
      "channel": 2,
      "note": 54,
      "start": 25.4183,
      "duration": 0.0998,
      "velocity": 127,
      "chip": "ym2612"
    },
    {
      "channel": 1,
      "note": 64,
      "start": 25.5176,
      "duration": 0.0998,
      "velocity": 102,
      "chip": "ym2612"
    },
    {
      "channel": 2,
      "note": 31,
      "start": 25.5183,
      "duration": 0.1998,
      "velocity": 127,
      "chip": "ym2612"
    },
    {
      "channel": 1,
      "note": 57,
      "start": 25.6176,
      "duration": 0.0998,
      "velocity": 102,
      "chip": "ym2612"
    },
    {
      "channel": 1,
      "note": 62,
      "start": 25.7176,
      "duration": 0.0998,
      "velocity": 102,
      "chip": "ym2612"
    },
    {
      "channel": 2,
      "note": 54,
      "start": 25.7183,
      "duration": 0.0998,
      "velocity": 127,
      "chip": "ym2612"
    },
    {
      "channel": 1,
      "note": 64,
      "start": 25.8176,
      "duration": 0.0998,
      "velocity": 102,
      "chip": "ym2612"
    },
    {
      "channel": 2,
      "note": 31,
      "start": 25.8183,
      "duration": 0.1998,
      "velocity": 127,
      "chip": "ym2612"
    },
    {
      "channel": 1,
      "note": 62,
      "start": 25.9176,
      "duration": 0.0998,
      "velocity": 102,
      "chip": "ym2612"
    },
    {
      "channel": 1,
      "note": 50,
      "start": 26.0176,
      "duration": 0.0998,
      "velocity": 102,
      "chip": "ym2612"
    },
    {
      "channel": 2,
      "note": 31,
      "start": 26.0183,
      "duration": 0.0998,
      "velocity": 127,
      "chip": "ym2612"
    },
    {
      "channel": 1,
      "note": 57,
      "start": 26.1176,
      "duration": 0.0998,
      "velocity": 102,
      "chip": "ym2612"
    },
    {
      "channel": 2,
      "note": 54,
      "start": 26.1183,
      "duration": 0.0998,
      "velocity": 127,
      "chip": "ym2612"
    },
    {
      "channel": 5,
      "note": 38,
      "start": 26.1192,
      "duration": 0.3998,
      "velocity": 100,
      "chip": "ym2612"
    },
    {
      "channel": 1,
      "note": 62,
      "start": 26.2176,
      "duration": 0.0998,
      "velocity": 102,
      "chip": "ym2612"
    },
    {
      "channel": 2,
      "note": 54,
      "start": 26.2183,
      "duration": 0.0998,
      "velocity": 127,
      "chip": "ym2612"
    },
    {
      "channel": 1,
      "note": 64,
      "start": 26.3176,
      "duration": 0.0998,
      "velocity": 102,
      "chip": "ym2612"
    },
    {
      "channel": 2,
      "note": 31,
      "start": 26.3183,
      "duration": 0.0998,
      "velocity": 127,
      "chip": "ym2612"
    },
    {
      "channel": 1,
      "note": 57,
      "start": 26.4176,
      "duration": 0.0998,
      "velocity": 102,
      "chip": "ym2612"
    },
    {
      "channel": 2,
      "note": 31,
      "start": 26.4183,
      "duration": 0.0998,
      "velocity": 127,
      "chip": "ym2612"
    },
    {
      "channel": 1,
      "note": 62,
      "start": 26.5176,
      "duration": 0.0998,
      "velocity": 102,
      "chip": "ym2612"
    },
    {
      "channel": 2,
      "note": 54,
      "start": 26.5183,
      "duration": 0.0998,
      "velocity": 127,
      "chip": "ym2612"
    },
    {
      "channel": 5,
      "note": 38,
      "start": 26.5192,
      "duration": 0.1998,
      "velocity": 100,
      "chip": "ym2612"
    },
    {
      "channel": 1,
      "note": 64,
      "start": 26.6176,
      "duration": 0.0998,
      "velocity": 102,
      "chip": "ym2612"
    },
    {
      "channel": 2,
      "note": 54,
      "start": 26.6183,
      "duration": 0.0998,
      "velocity": 127,
      "chip": "ym2612"
    },
    {
      "channel": 1,
      "note": 62,
      "start": 26.7176,
      "duration": 0.0998,
      "velocity": 102,
      "chip": "ym2612"
    },
    {
      "channel": 2,
      "note": 31,
      "start": 26.7183,
      "duration": 0.1998,
      "velocity": 127,
      "chip": "ym2612"
    },
    {
      "channel": 5,
      "note": 38,
      "start": 26.7192,
      "duration": 0.1998,
      "velocity": 100,
      "chip": "ym2612"
    },
    {
      "channel": 1,
      "note": 50,
      "start": 26.8176,
      "duration": 0.0998,
      "velocity": 102,
      "chip": "ym2612"
    },
    {
      "channel": 1,
      "note": 57,
      "start": 26.9176,
      "duration": 0.0998,
      "velocity": 102,
      "chip": "ym2612"
    },
    {
      "channel": 2,
      "note": 54,
      "start": 26.9183,
      "duration": 0.0998,
      "velocity": 127,
      "chip": "ym2612"
    },
    {
      "channel": 5,
      "note": 50,
      "start": 26.9192,
      "duration": 0.3998,
      "velocity": 100,
      "chip": "ym2612"
    },
    {
      "channel": 1,
      "note": 62,
      "start": 27.0176,
      "duration": 0.0998,
      "velocity": 102,
      "chip": "ym2612"
    },
    {
      "channel": 2,
      "note": 54,
      "start": 27.0183,
      "duration": 0.0998,
      "velocity": 127,
      "chip": "ym2612"
    },
    {
      "channel": 1,
      "note": 64,
      "start": 27.1176,
      "duration": 0.0998,
      "velocity": 102,
      "chip": "ym2612"
    },
    {
      "channel": 2,
      "note": 31,
      "start": 27.1183,
      "duration": 0.1998,
      "velocity": 127,
      "chip": "ym2612"
    },
    {
      "channel": 1,
      "note": 57,
      "start": 27.2176,
      "duration": 0.0998,
      "velocity": 102,
      "chip": "ym2612"
    },
    {
      "channel": 1,
      "note": 62,
      "start": 27.3176,
      "duration": 0.0998,
      "velocity": 102,
      "chip": "ym2612"
    },
    {
      "channel": 2,
      "note": 54,
      "start": 27.3183,
      "duration": 0.0998,
      "velocity": 127,
      "chip": "ym2612"
    },
    {
      "channel": 5,
      "note": 50,
      "start": 27.3192,
      "duration": 2.0015,
      "velocity": 117,
      "chip": "ym2612"
    },
    {
      "channel": 1,
      "note": 64,
      "start": 27.4176,
      "duration": 0.0998,
      "velocity": 102,
      "chip": "ym2612"
    },
    {
      "channel": 2,
      "note": 31,
      "start": 27.4183,
      "duration": 0.1998,
      "velocity": 127,
      "chip": "ym2612"
    },
    {
      "channel": 1,
      "note": 62,
      "start": 27.5176,
      "duration": 0.0998,
      "velocity": 102,
      "chip": "ym2612"
    },
    {
      "channel": 1,
      "note": 50,
      "start": 27.6176,
      "duration": 0.0998,
      "velocity": 102,
      "chip": "ym2612"
    },
    {
      "channel": 2,
      "note": 31,
      "start": 27.6183,
      "duration": 0.0998,
      "velocity": 127,
      "chip": "ym2612"
    },
    {
      "channel": 1,
      "note": 57,
      "start": 27.7176,
      "duration": 0.0998,
      "velocity": 102,
      "chip": "ym2612"
    },
    {
      "channel": 2,
      "note": 54,
      "start": 27.7183,
      "duration": 0.0998,
      "velocity": 127,
      "chip": "ym2612"
    },
    {
      "channel": 1,
      "note": 62,
      "start": 27.8176,
      "duration": 0.0998,
      "velocity": 102,
      "chip": "ym2612"
    },
    {
      "channel": 2,
      "note": 54,
      "start": 27.8183,
      "duration": 0.0998,
      "velocity": 127,
      "chip": "ym2612"
    },
    {
      "channel": 1,
      "note": 64,
      "start": 27.9176,
      "duration": 0.0998,
      "velocity": 102,
      "chip": "ym2612"
    },
    {
      "channel": 2,
      "note": 31,
      "start": 27.9183,
      "duration": 0.0998,
      "velocity": 127,
      "chip": "ym2612"
    },
    {
      "channel": 1,
      "note": 57,
      "start": 28.0176,
      "duration": 0.0998,
      "velocity": 102,
      "chip": "ym2612"
    },
    {
      "channel": 2,
      "note": 31,
      "start": 28.0183,
      "duration": 0.0998,
      "velocity": 127,
      "chip": "ym2612"
    },
    {
      "channel": 1,
      "note": 62,
      "start": 28.1176,
      "duration": 0.0998,
      "velocity": 102,
      "chip": "ym2612"
    },
    {
      "channel": 2,
      "note": 54,
      "start": 28.1183,
      "duration": 0.0998,
      "velocity": 127,
      "chip": "ym2612"
    },
    {
      "channel": 1,
      "note": 64,
      "start": 28.2176,
      "duration": 0.0998,
      "velocity": 102,
      "chip": "ym2612"
    },
    {
      "channel": 2,
      "note": 54,
      "start": 28.2183,
      "duration": 0.0998,
      "velocity": 127,
      "chip": "ym2612"
    },
    {
      "channel": 1,
      "note": 62,
      "start": 28.3176,
      "duration": 0.0998,
      "velocity": 102,
      "chip": "ym2612"
    },
    {
      "channel": 2,
      "note": 31,
      "start": 28.3183,
      "duration": 0.1998,
      "velocity": 127,
      "chip": "ym2612"
    },
    {
      "channel": 1,
      "note": 50,
      "start": 28.4176,
      "duration": 0.0998,
      "velocity": 102,
      "chip": "ym2612"
    },
    {
      "channel": 1,
      "note": 57,
      "start": 28.5176,
      "duration": 0.0998,
      "velocity": 102,
      "chip": "ym2612"
    },
    {
      "channel": 2,
      "note": 54,
      "start": 28.5183,
      "duration": 0.0998,
      "velocity": 127,
      "chip": "ym2612"
    },
    {
      "channel": 1,
      "note": 62,
      "start": 28.6176,
      "duration": 0.0998,
      "velocity": 102,
      "chip": "ym2612"
    },
    {
      "channel": 2,
      "note": 54,
      "start": 28.6183,
      "duration": 0.0998,
      "velocity": 127,
      "chip": "ym2612"
    },
    {
      "channel": 1,
      "note": 64,
      "start": 28.7176,
      "duration": 0.0998,
      "velocity": 102,
      "chip": "ym2612"
    },
    {
      "channel": 2,
      "note": 31,
      "start": 28.7183,
      "duration": 0.1998,
      "velocity": 127,
      "chip": "ym2612"
    },
    {
      "channel": 1,
      "note": 57,
      "start": 28.8176,
      "duration": 0.0998,
      "velocity": 102,
      "chip": "ym2612"
    },
    {
      "channel": 1,
      "note": 62,
      "start": 28.9176,
      "duration": 0.0998,
      "velocity": 102,
      "chip": "ym2612"
    },
    {
      "channel": 2,
      "note": 54,
      "start": 28.9183,
      "duration": 0.0998,
      "velocity": 127,
      "chip": "ym2612"
    },
    {
      "channel": 1,
      "note": 64,
      "start": 29.0176,
      "duration": 0.0998,
      "velocity": 102,
      "chip": "ym2612"
    },
    {
      "channel": 2,
      "note": 31,
      "start": 29.0183,
      "duration": 0.1998,
      "velocity": 127,
      "chip": "ym2612"
    },
    {
      "channel": 1,
      "note": 62,
      "start": 29.1176,
      "duration": 0.0998,
      "velocity": 102,
      "chip": "ym2612"
    },
    {
      "channel": 1,
      "note": 50,
      "start": 29.2176,
      "duration": 0.0998,
      "velocity": 102,
      "chip": "ym2612"
    },
    {
      "channel": 2,
      "note": 31,
      "start": 29.2183,
      "duration": 0.0998,
      "velocity": 127,
      "chip": "ym2612"
    },
    {
      "channel": 1,
      "note": 57,
      "start": 29.3176,
      "duration": 0.0998,
      "velocity": 102,
      "chip": "ym2612"
    },
    {
      "channel": 2,
      "note": 54,
      "start": 29.3183,
      "duration": 0.0998,
      "velocity": 127,
      "chip": "ym2612"
    },
    {
      "channel": 5,
      "note": 64,
      "start": 29.3208,
      "duration": 0.0006,
      "velocity": 117,
      "chip": "ym2612"
    },
    {
      "channel": 5,
      "note": 63,
      "start": 29.3214,
      "duration": 0.029,
      "velocity": 117,
      "chip": "ym2612"
    },
    {
      "channel": 5,
      "note": 63,
      "start": 29.3504,
      "duration": 0.0167,
      "velocity": 117,
      "chip": "ym2612"
    },
    {
      "channel": 5,
      "note": 62,
      "start": 29.3671,
      "duration": 0.0167,
      "velocity": 117,
      "chip": "ym2612"
    },
    {
      "channel": 5,
      "note": 62,
      "start": 29.3837,
      "duration": 0.0167,
      "velocity": 117,
      "chip": "ym2612"
    },
    {
      "channel": 5,
      "note": 61,
      "start": 29.4004,
      "duration": 0.0187,
      "velocity": 117,
      "chip": "ym2612"
    },
    {
      "channel": 1,
      "note": 62,
      "start": 29.4176,
      "duration": 0.0998,
      "velocity": 102,
      "chip": "ym2612"
    },
    {
      "channel": 2,
      "note": 54,
      "start": 29.4183,
      "duration": 0.0998,
      "velocity": 127,
      "chip": "ym2612"
    },
    {
      "channel": 5,
      "note": 60,
      "start": 29.4191,
      "duration": 0.0313,
      "velocity": 117,
      "chip": "ym2612"
    },
    {
      "channel": 5,
      "note": 60,
      "start": 29.4504,
      "duration": 0.0167,
      "velocity": 117,
      "chip": "ym2612"
    },
    {
      "channel": 5,
      "note": 59,
      "start": 29.4671,
      "duration": 0.0167,
      "velocity": 117,
      "chip": "ym2612"
    },
    {
      "channel": 5,
      "note": 58,
      "start": 29.4837,
      "duration": 0.0167,
      "velocity": 117,
      "chip": "ym2612"
    },
    {
      "channel": 5,
      "note": 57,
      "start": 29.5004,
      "duration": 0.0187,
      "velocity": 117,
      "chip": "ym2612"
    },
    {
      "channel": 1,
      "note": 64,
      "start": 29.5176,
      "duration": 0.0998,
      "velocity": 102,
      "chip": "ym2612"
    },
    {
      "channel": 2,
      "note": 31,
      "start": 29.5183,
      "duration": 0.0998,
      "velocity": 127,
      "chip": "ym2612"
    },
    {
      "channel": 5,
      "note": 56,
      "start": 29.5191,
      "duration": 0.0313,
      "velocity": 117,
      "chip": "ym2612"
    },
    {
      "channel": 5,
      "note": 56,
      "start": 29.5504,
      "duration": 0.0167,
      "velocity": 117,
      "chip": "ym2612"
    },
    {
      "channel": 5,
      "note": 55,
      "start": 29.5671,
      "duration": 0.0167,
      "velocity": 117,
      "chip": "ym2612"
    },
    {
      "channel": 5,
      "note": 55,
      "start": 29.5837,
      "duration": 0.0167,
      "velocity": 117,
      "chip": "ym2612"
    },
    {
      "channel": 5,
      "note": 54,
      "start": 29.6004,
      "duration": 0.0187,
      "velocity": 117,
      "chip": "ym2612"
    },
    {
      "channel": 1,
      "note": 57,
      "start": 29.6176,
      "duration": 0.0998,
      "velocity": 102,
      "chip": "ym2612"
    },
    {
      "channel": 2,
      "note": 31,
      "start": 29.6183,
      "duration": 0.0998,
      "velocity": 127,
      "chip": "ym2612"
    },
    {
      "channel": 5,
      "note": 54,
      "start": 29.6191,
      "duration": 0.0313,
      "velocity": 117,
      "chip": "ym2612"
    },
    {
      "channel": 5,
      "note": 53,
      "start": 29.6504,
      "duration": 0.0167,
      "velocity": 117,
      "chip": "ym2612"
    },
    {
      "channel": 5,
      "note": 53,
      "start": 29.6671,
      "duration": 0.0167,
      "velocity": 117,
      "chip": "ym2612"
    },
    {
      "channel": 5,
      "note": 52,
      "start": 29.6837,
      "duration": 0.0167,
      "velocity": 117,
      "chip": "ym2612"
    },
    {
      "channel": 5,
      "note": 52,
      "start": 29.7004,
      "duration": 0.0187,
      "velocity": 117,
      "chip": "ym2612"
    },
    {
      "channel": 1,
      "note": 62,
      "start": 29.7176,
      "duration": 0.0999,
      "velocity": 102,
      "chip": "ym2612"
    },
    {
      "channel": 2,
      "note": 54,
      "start": 29.7183,
      "duration": 0.0999,
      "velocity": 127,
      "chip": "ym2612"
    },
    {
      "channel": 5,
      "note": 51,
      "start": 29.7191,
      "duration": 0.0313,
      "velocity": 117,
      "chip": "ym2612"
    },
    {
      "channel": 5,
      "note": 50,
      "start": 29.7504,
      "duration": 0.0167,
      "velocity": 117,
      "chip": "ym2612"
    },
    {
      "channel": 5,
      "note": 50,
      "start": 29.7671,
      "duration": 0.0167,
      "velocity": 117,
      "chip": "ym2612"
    },
    {
      "channel": 5,
      "note": 49,
      "start": 29.7837,
      "duration": 0.0167,
      "velocity": 117,
      "chip": "ym2612"
    },
    {
      "channel": 5,
      "note": 48,
      "start": 29.8004,
      "duration": 0.0188,
      "velocity": 117,
      "chip": "ym2612"
    },
    {
      "channel": 1,
      "note": 64,
      "start": 29.8176,
      "duration": 15.779,
      "velocity": 102,
      "chip": "ym2612"
    },
    {
      "channel": 2,
      "note": 54,
      "start": 29.8183,
      "duration": 0.0994,
      "velocity": 127,
      "chip": "ym2612"
    },
    {
      "channel": 5,
      "note": 48,
      "start": 29.8192,
      "duration": 0.0312,
      "velocity": 117,
      "chip": "ym2612"
    },
    {
      "channel": 5,
      "note": 47,
      "start": 29.8504,
      "duration": 0.0167,
      "velocity": 117,
      "chip": "ym2612"
    },
    {
      "channel": 5,
      "note": 46,
      "start": 29.8671,
      "duration": 0.0167,
      "velocity": 117,
      "chip": "ym2612"
    },
    {
      "channel": 5,
      "note": 45,
      "start": 29.8837,
      "duration": 0.0167,
      "velocity": 117,
      "chip": "ym2612"
    },
    {
      "channel": 5,
      "note": 45,
      "start": 29.9004,
      "duration": 0.019,
      "velocity": 117,
      "chip": "ym2612"
    },
    {
      "channel": 2,
      "note": 31,
      "start": 29.9179,
      "duration": 0.1034,
      "velocity": 127,
      "chip": "ym2612"
    },
    {
      "channel": 4,
      "note": 55,
      "start": 29.9188,
      "duration": 15.6779,
      "velocity": 1,
      "chip": "ym2612"
    },
    {
      "channel": 5,
      "note": 44,
      "start": 29.9194,
      "duration": 0.0002,
      "velocity": 117,
      "chip": "ym2612"
    },
    {
      "channel": 5,
      "note": 43,
      "start": 29.9196,
      "duration": 0.0002,
      "velocity": 117,
      "chip": "ym2612"
    },
    {
      "channel": 5,
      "note": 43,
      "start": 29.9198,
      "duration": 0.0003,
      "velocity": 117,
      "chip": "ym2612"
    },
    {
      "channel": 5,
      "note": 42,
      "start": 29.92,
      "duration": 0.0002,
      "velocity": 117,
      "chip": "ym2612"
    },
    {
      "channel": 5,
      "note": 42,
      "start": 29.9203,
      "duration": 0.0037,
      "velocity": 1,
      "chip": "ym2612"
    },
    {
      "channel": 5,
      "note": 43,
      "start": 29.9242,
      "duration": 0.0996,
      "velocity": 78,
      "chip": "ym2612"
    },
    {
      "channel": 2,
      "note": 54,
      "start": 30.0215,
      "duration": 0.0998,
      "velocity": 127,
      "chip": "ym2612"
    },
    {
      "channel": 5,
      "note": 43,
      "start": 30.024,
      "duration": 0.0982,
      "velocity": 78,
      "chip": "ym2612"
    },
    {
      "channel": 2,
      "note": 54,
      "start": 30.1215,
      "duration": 0.0998,
      "velocity": 127,
      "chip": "ym2612"
    },
    {
      "channel": 5,
      "note": 43,
      "start": 30.1224,
      "duration": 0.1015,
      "velocity": 78,
      "chip": "ym2612"
    },
    {
      "channel": 2,
      "note": 31,
      "start": 30.2215,
      "duration": 0.1014,
      "velocity": 127,
      "chip": "ym2612"
    },
    {
      "channel": 3,
      "note": 62,
      "start": 30.2222,
      "duration": 0.2013,
      "velocity": 127,
      "chip": "ym2612"
    },
    {
      "channel": 5,
      "note": 31,
      "start": 30.224,
      "duration": 0.2004,
      "velocity": 78,
      "chip": "ym2612"
    },
    {
      "channel": 2,
      "note": 54,
      "start": 30.3231,
      "duration": 0.0998,
      "velocity": 127,
      "chip": "ym2612"
    },
    {
      "channel": 2,
      "note": 31,
      "start": 30.4231,
      "duration": 15.1735,
      "velocity": 127,
      "chip": "ym2612"
    },
    {
      "channel": 3,
      "note": 62,
      "start": 30.4238,
      "duration": 15.1728,
      "velocity": 127,
      "chip": "ym2612"
    },
    {
      "channel": 5,
      "note": 31,
      "start": 30.4246,
      "duration": 15.1721,
      "velocity": 78,
      "chip": "ym2612"
    }
  ]
}