{
  "track_name": "11 - Unification",
  "duration_sec": 71.949,
  "sample_rate": 44100,
  "note_count": 206,
  "unique_pitches": 24,
  "pitch_range": 45,
  "avg_note_duration": 1.0098,
  "reconstruction_stats": {
    "notes_reconstructed": 206,
    "keyon_events": 206,
    "keyoff_events": 205,
    "orphan_keyons": 1,
    "unique_pitches": 24,
    "pitch_range": 45,
    "avg_duration_sec": 1.0098
  },
  "metadata": {
    "source": "R\\Romance of the Three Kingdoms II\\11 - Unification.vgz"
  },
  "notes": [
    {
      "channel": 1,
      "note": 57,
      "start": 0.0,
      "duration": 3.5463,
      "velocity": 102,
      "chip": "ym2612"
    },
    {
      "channel": 2,
      "note": 45,
      "start": 0.0,
      "duration": 2.3731,
      "velocity": 102,
      "chip": "ym2612"
    },
    {
      "channel": 0,
      "note": 64,
      "start": 0.2908,
      "duration": 0.2821,
      "velocity": 102,
      "chip": "ym2612"
    },
    {
      "channel": 0,
      "note": 69,
      "start": 0.5909,
      "duration": 0.282,
      "velocity": 102,
      "chip": "ym2612"
    },
    {
      "channel": 0,
      "note": 73,
      "start": 0.896,
      "duration": 0.2769,
      "velocity": 102,
      "chip": "ym2612"
    },
    {
      "channel": 0,
      "note": 74,
      "start": 1.196,
      "duration": 0.2768,
      "velocity": 102,
      "chip": "ym2612"
    },
    {
      "channel": 0,
      "note": 73,
      "start": 1.494,
      "duration": 0.2789,
      "velocity": 102,
      "chip": "ym2612"
    },
    {
      "channel": 0,
      "note": 69,
      "start": 1.794,
      "duration": 0.2789,
      "velocity": 102,
      "chip": "ym2612"
    },
    {
      "channel": 0,
      "note": 64,
      "start": 2.096,
      "duration": 0.2769,
      "velocity": 102,
      "chip": "ym2612"
    },
    {
      "channel": 0,
      "note": 66,
      "start": 2.396,
      "duration": 1.1502,
      "velocity": 102,
      "chip": "ym2612"
    },
    {
      "channel": 2,
      "note": 50,
      "start": 2.3968,
      "duration": 1.1497,
      "velocity": 102,
      "chip": "ym2612"
    },
    {
      "channel": 0,
      "note": 69,
      "start": 3.5985,
      "duration": 0.5577,
      "velocity": 102,
      "chip": "ym2612"
    },
    {
      "channel": 1,
      "note": 59,
      "start": 3.5991,
      "duration": 1.1446,
      "velocity": 102,
      "chip": "ym2612"
    },
    {
      "channel": 2,
      "note": 52,
      "start": 3.5997,
      "duration": 1.1441,
      "velocity": 102,
      "chip": "ym2612"
    },
    {
      "channel": 0,
      "note": 68,
      "start": 4.1909,
      "duration": 0.5654,
      "velocity": 102,
      "chip": "ym2612"
    },
    {
      "channel": 0,
      "note": 69,
      "start": 4.796,
      "duration": 4.7769,
      "velocity": 102,
      "chip": "ym2612"
    },
    {
      "channel": 1,
      "note": 62,
      "start": 4.7965,
      "duration": 1.1431,
      "velocity": 102,
      "chip": "ym2612"
    },
    {
      "channel": 2,
      "note": 57,
      "start": 4.7971,
      "duration": 2.3759,
      "velocity": 102,
      "chip": "ym2612"
    },
    {
      "channel": 1,
      "note": 59,
      "start": 5.9899,
      "duration": 0.5663,
      "velocity": 102,
      "chip": "ym2612"
    },
    {
      "channel": 1,
      "note": 62,
      "start": 6.5899,
      "duration": 0.5663,
      "velocity": 102,
      "chip": "ym2612"
    },
    {
      "channel": 1,
      "note": 61,
      "start": 7.1901,
      "duration": 0.1328,
      "velocity": 102,
      "chip": "ym2612"
    },
    {
      "channel": 2,
      "note": 45,
      "start": 7.1907,
      "duration": 2.3825,
      "velocity": 102,
      "chip": "ym2612"
    },
    {
      "channel": 1,
      "note": 59,
      "start": 7.3399,
      "duration": 0.133,
      "velocity": 102,
      "chip": "ym2612"
    },
    {
      "channel": 1,
      "note": 61,
      "start": 7.4899,
      "duration": 2.0831,
      "velocity": 102,
      "chip": "ym2612"
    },
    {
      "channel": 0,
      "note": 73,
      "start": 9.592,
      "duration": 1.1475,
      "velocity": 102,
      "chip": "ym2612"
    },
    {
      "channel": 1,
      "note": 64,
      "start": 9.5948,
      "duration": 2.3676,
      "velocity": 102,
      "chip": "ym2612"
    },
    {
      "channel": 2,
      "note": 57,
      "start": 9.5976,
      "duration": 1.1421,
      "velocity": 102,
      "chip": "ym2612"
    },
    {
      "channel": 0,
      "note": 71,
      "start": 10.7899,
      "duration": 0.5663,
      "velocity": 102,
      "chip": "ym2612"
    },
    {
      "channel": 2,
      "note": 56,
      "start": 10.7905,
      "duration": 1.1491,
      "velocity": 102,
      "chip": "ym2612"
    },
    {
      "channel": 0,
      "note": 76,
      "start": 11.3899,
      "duration": 0.5663,
      "velocity": 102,
      "chip": "ym2612"
    },
    {
      "channel": 0,
      "note": 69,
      "start": 11.9899,
      "duration": 1.1497,
      "velocity": 102,
      "chip": "ym2612"
    },
    {
      "channel": 1,
      "note": 62,
      "start": 11.9905,
      "duration": 1.1492,
      "velocity": 102,
      "chip": "ym2612"
    },
    {
      "channel": 2,
      "note": 54,
      "start": 11.9911,
      "duration": 1.1488,
      "velocity": 102,
      "chip": "ym2612"
    },
    {
      "channel": 0,
      "note": 68,
      "start": 13.1899,
      "duration": 0.5663,
      "velocity": 102,
      "chip": "ym2612"
    },
    {
      "channel": 1,
      "note": 61,
      "start": 13.1905,
      "duration": 2.3491,
      "velocity": 102,
      "chip": "ym2612"
    },
    {
      "channel": 2,
      "note": 52,
      "start": 13.1911,
      "duration": 1.1486,
      "velocity": 102,
      "chip": "ym2612"
    },
    {
      "channel": 0,
      "note": 73,
      "start": 13.7899,
      "duration": 0.5663,
      "velocity": 102,
      "chip": "ym2612"
    },
    {
      "channel": 0,
      "note": 66,
      "start": 14.3899,
      "duration": 2.3663,
      "velocity": 102,
      "chip": "ym2612"
    },
    {
      "channel": 2,
      "note": 50,
      "start": 14.3907,
      "duration": 2.3657,
      "velocity": 102,
      "chip": "ym2612"
    },
    {
      "channel": 1,
      "note": 59,
      "start": 15.5899,
      "duration": 3.5663,
      "velocity": 102,
      "chip": "ym2612"
    },
    {
      "channel": 0,
      "note": 69,
      "start": 16.7899,
      "duration": 0.5522,
      "velocity": 102,
      "chip": "ym2612"
    },
    {
      "channel": 2,
      "note": 52,
      "start": 16.7907,
      "duration": 1.1489,
      "velocity": 102,
      "chip": "ym2612"
    },
    {
      "channel": 0,
      "note": 68,
      "start": 17.3899,
      "duration": 0.5559,
      "velocity": 102,
      "chip": "ym2612"
    },
    {
      "channel": 0,
      "note": 69,
      "start": 17.9899,
      "duration": 0.5522,
      "velocity": 102,
      "chip": "ym2612"
    },
    {
      "channel": 2,
      "note": 54,
      "start": 17.9905,
      "duration": 0.5518,
      "velocity": 102,
      "chip": "ym2612"
    },
    {
      "channel": 0,
      "note": 71,
      "start": 18.5899,
      "duration": 0.5532,
      "velocity": 102,
      "chip": "ym2612"
    },
    {
      "channel": 2,
      "note": 56,
      "start": 18.5905,
      "duration": 0.5528,
      "velocity": 102,
      "chip": "ym2612"
    },
    {
      "channel": 0,
      "note": 73,
      "start": 19.1899,
      "duration": 1.1497,
      "velocity": 102,
      "chip": "ym2612"
    },
    {
      "channel": 1,
      "note": 64,
      "start": 19.1905,
      "duration": 2.3658,
      "velocity": 102,
      "chip": "ym2612"
    },
    {
      "channel": 2,
      "note": 57,
      "start": 19.1911,
      "duration": 1.1487,
      "velocity": 102,
      "chip": "ym2612"
    },
    {
      "channel": 0,
      "note": 71,
      "start": 20.3899,
      "duration": 0.5522,
      "velocity": 102,
      "chip": "ym2612"
    },
    {
      "channel": 2,
      "note": 56,
      "start": 20.3905,
      "duration": 1.1366,
      "velocity": 102,
      "chip": "ym2612"
    },
    {
      "channel": 0,
      "note": 76,
      "start": 20.9899,
      "duration": 0.5497,
      "velocity": 102,
      "chip": "ym2612"
    },
    {
      "channel": 0,
      "note": 69,
      "start": 21.5793,
      "duration": 1.1492,
      "velocity": 102,
      "chip": "ym2612"
    },
    {
      "channel": 1,
      "note": 62,
      "start": 21.5799,
      "duration": 1.1488,
      "velocity": 102,
      "chip": "ym2612"
    },
    {
      "channel": 2,
      "note": 54,
      "start": 21.5805,
      "duration": 1.1483,
      "velocity": 102,
      "chip": "ym2612"
    },
    {
      "channel": 0,
      "note": 68,
      "start": 22.7818,
      "duration": 0.5577,
      "velocity": 102,
      "chip": "ym2612"
    },
    {
      "channel": 1,
      "note": 61,
      "start": 22.7824,
      "duration": 2.3462,
      "velocity": 102,
      "chip": "ym2612"
    },
    {
      "channel": 2,
      "note": 52,
      "start": 22.783,
      "duration": 1.1441,
      "velocity": 102,
      "chip": "ym2612"
    },
    {
      "channel": 0,
      "note": 73,
      "start": 23.3742,
      "duration": 0.5654,
      "velocity": 102,
      "chip": "ym2612"
    },
    {
      "channel": 0,
      "note": 66,
      "start": 23.9793,
      "duration": 2.3769,
      "velocity": 102,
      "chip": "ym2612"
    },
    {
      "channel": 2,
      "note": 50,
      "start": 23.9801,
      "duration": 2.3763,
      "velocity": 102,
      "chip": "ym2612"
    },
    {
      "channel": 1,
      "note": 59,
      "start": 25.1819,
      "duration": 3.5744,
      "velocity": 102,
      "chip": "ym2612"
    },
    {
      "channel": 0,
      "note": 65,
      "start": 26.3818,
      "duration": 0.5577,
      "velocity": 102,
      "chip": "ym2612"
    },
    {
      "channel": 2,
      "note": 49,
      "start": 26.3829,
      "duration": 1.1401,
      "velocity": 102,
      "chip": "ym2612"
    },
    {
      "channel": 0,
      "note": 66,
      "start": 26.9732,
      "duration": 0.5663,
      "velocity": 102,
      "chip": "ym2612"
    },
    {
      "channel": 0,
      "note": 68,
      "start": 27.5732,
      "duration": 0.5663,
      "velocity": 102,
      "chip": "ym2612"
    },
    {
      "channel": 2,
      "note": 53,
      "start": 27.5738,
      "duration": 1.1492,
      "velocity": 102,
      "chip": "ym2612"
    },
    {
      "channel": 0,
      "note": 71,
      "start": 28.1732,
      "duration": 0.5663,
      "velocity": 102,
      "chip": "ym2612"
    },
    {
      "channel": 0,
      "note": 71,
      "start": 28.7732,
      "duration": 1.1497,
      "velocity": 102,
      "chip": "ym2612"
    },
    {
      "channel": 1,
      "note": 62,
      "start": 28.7738,
      "duration": 2.3824,
      "velocity": 102,
      "chip": "ym2612"
    },
    {
      "channel": 2,
      "note": 54,
      "start": 28.7744,
      "duration": 2.382,
      "velocity": 102,
      "chip": "ym2612"
    },
    {
      "channel": 0,
      "note": 69,
      "start": 29.9732,
      "duration": 1.7663,
      "velocity": 102,
      "chip": "ym2612"
    },
    {
      "channel": 1,
      "note": 61,
      "start": 31.1734,
      "duration": 2.3723,
      "velocity": 102,
      "chip": "ym2612"
    },
    {
      "channel": 2,
      "note": 52,
      "start": 31.174,
      "duration": 2.3719,
      "velocity": 102,
      "chip": "ym2612"
    },
    {
      "channel": 0,
      "note": 69,
      "start": 31.7732,
      "duration": 0.5663,
      "velocity": 102,
      "chip": "ym2612"
    },
    {
      "channel": 0,
      "note": 71,
      "start": 32.3732,
      "duration": 0.5663,
      "velocity": 102,
      "chip": "ym2612"
    },
    {
      "channel": 0,
      "note": 73,
      "start": 32.9732,
      "duration": 0.5663,
      "velocity": 102,
      "chip": "ym2612"
    },
    {
      "channel": 0,
      "note": 78,
      "start": 33.5732,
      "duration": 0.5663,
      "velocity": 102,
      "chip": "ym2612"
    },
    {
      "channel": 1,
      "note": 59,
      "start": 33.5738,
      "duration": 2.3719,
      "velocity": 102,
      "chip": "ym2612"
    },
    {
      "channel": 2,
      "note": 51,
      "start": 33.5744,
      "duration": 2.3715,
      "velocity": 102,
      "chip": "ym2612"
    },
    {
      "channel": 0,
      "note": 73,
      "start": 34.1732,
      "duration": 0.5663,
      "velocity": 102,
      "chip": "ym2612"
    },
    {
      "channel": 0,
      "note": 71,
      "start": 34.7732,
      "duration": 0.2724,
      "velocity": 102,
      "chip": "ym2612"
    },
    {
      "channel": 0,
      "note": 69,
      "start": 35.0732,
      "duration": 0.2704,
      "velocity": 102,
      "chip": "ym2612"
    },
    {
      "channel": 0,
      "note": 68,
      "start": 35.3732,
      "duration": 0.2704,
      "velocity": 102,
      "chip": "ym2612"
    },
    {
      "channel": 0,
      "note": 69,
      "start": 35.6732,
      "duration": 0.2724,
      "velocity": 102,
      "chip": "ym2612"
    },
    {
      "channel": 0,
      "note": 73,
      "start": 35.9732,
      "duration": 1.1497,
      "velocity": 102,
      "chip": "ym2612"
    },
    {
      "channel": 1,
      "note": 57,
      "start": 35.9738,
      "duration": 1.1492,
      "velocity": 102,
      "chip": "ym2612"
    },
    {
      "channel": 2,
      "note": 52,
      "start": 35.9744,
      "duration": 2.3653,
      "velocity": 102,
      "chip": "ym2612"
    },
    {
      "channel": 0,
      "note": 71,
      "start": 37.1732,
      "duration": 1.1497,
      "velocity": 102,
      "chip": "ym2612"
    },
    {
      "channel": 1,
      "note": 56,
      "start": 37.1738,
      "duration": 1.1492,
      "velocity": 102,
      "chip": "ym2612"
    },
    {
      "channel": 0,
      "note": 69,
      "start": 38.3753,
      "duration": 0.5562,
      "velocity": 107,
      "chip": "ym2612"
    },
    {
      "channel": 1,
      "note": 62,
      "start": 38.378,
      "duration": 0.5536,
      "velocity": 107,
      "chip": "ym2612"
    },
    {
      "channel": 2,
      "note": 45,
      "start": 38.3807,
      "duration": 0.5511,
      "velocity": 107,
      "chip": "ym2612"
    },
    {
      "channel": 0,
      "note": 69,
      "start": 38.9732,
      "duration": 0.2663,
      "velocity": 107,
      "chip": "ym2612"
    },
    {
      "channel": 1,
      "note": 62,
      "start": 38.9738,
      "duration": 0.2658,
      "velocity": 107,
      "chip": "ym2612"
    },
    {
      "channel": 2,
      "note": 45,
      "start": 38.9744,
      "duration": 0.2655,
      "velocity": 107,
      "chip": "ym2612"
    },
    {
      "channel": 0,
      "note": 69,
      "start": 39.2732,
      "duration": 0.2663,
      "velocity": 107,
      "chip": "ym2612"
    },
    {
      "channel": 1,
      "note": 59,
      "start": 39.2738,
      "duration": 0.2658,
      "velocity": 107,
      "chip": "ym2612"
    },
    {
      "channel": 2,
      "note": 45,
      "start": 39.2744,
      "duration": 0.2655,
      "velocity": 107,
      "chip": "ym2612"
    },
    {
      "channel": 0,
      "note": 69,
      "start": 39.5732,
      "duration": 1.1497,
      "velocity": 107,
      "chip": "ym2612"
    },
    {
      "channel": 1,
      "note": 61,
      "start": 39.5738,
      "duration": 1.1492,
      "velocity": 107,
      "chip": "ym2612"
    },
    {
      "channel": 2,
      "note": 45,
      "start": 39.5744,
      "duration": 1.1488,
      "velocity": 107,
      "chip": "ym2612"
    },
    {
      "channel": 0,
      "note": 69,
      "start": 40.7732,
      "duration": 0.2663,
      "velocity": 107,
      "chip": "ym2612"
    },
    {
      "channel": 1,
      "note": 62,
      "start": 40.7738,
      "duration": 0.2658,
      "velocity": 107,
      "chip": "ym2612"
    },
    {
      "channel": 2,
      "note": 45,
      "start": 40.7744,
      "duration": 0.2655,
      "velocity": 107,
      "chip": "ym2612"
    },
    {
      "channel": 0,
      "note": 69,
      "start": 41.0732,
      "duration": 0.2663,
      "velocity": 107,
      "chip": "ym2612"
    },
    {
      "channel": 1,
      "note": 62,
      "start": 41.0738,
      "duration": 0.2658,
      "velocity": 107,
      "chip": "ym2612"
    },
    {
      "channel": 2,
      "note": 45,
      "start": 41.0744,
      "duration": 0.2655,
      "velocity": 107,
      "chip": "ym2612"
    },
    {
      "channel": 0,
      "note": 69,
      "start": 41.3732,
      "duration": 0.2663,
      "velocity": 107,
      "chip": "ym2612"
    },
    {
      "channel": 1,
      "note": 62,
      "start": 41.3738,
      "duration": 0.2658,
      "velocity": 107,
      "chip": "ym2612"
    },
    {
      "channel": 2,
      "note": 45,
      "start": 41.3744,
      "duration": 0.2655,
      "velocity": 107,
      "chip": "ym2612"
    },
    {
      "channel": 0,
      "note": 69,
      "start": 41.6732,
      "duration": 0.2663,
      "velocity": 107,
      "chip": "ym2612"
    },
    {
      "channel": 1,
      "note": 59,
      "start": 41.6738,
      "duration": 0.2658,
      "velocity": 107,
      "chip": "ym2612"
    },
    {
      "channel": 2,
      "note": 45,
      "start": 41.6744,
      "duration": 0.2655,
      "velocity": 107,
      "chip": "ym2612"
    },
    {
      "channel": 0,
      "note": 69,
      "start": 41.9732,
      "duration": 0.2663,
      "velocity": 107,
      "chip": "ym2612"
    },
    {
      "channel": 1,
      "note": 61,
      "start": 41.9738,
      "duration": 0.2658,
      "velocity": 107,
      "chip": "ym2612"
    },
    {
      "channel": 2,
      "note": 45,
      "start": 41.9744,
      "duration": 0.2655,
      "velocity": 107,
      "chip": "ym2612"
    },
    {
      "channel": 0,
      "note": 69,
      "start": 42.2732,
      "duration": 0.2663,
      "velocity": 107,
      "chip": "ym2612"
    },
    {
      "channel": 1,
      "note": 61,
      "start": 42.2738,
      "duration": 0.2658,
      "velocity": 107,
      "chip": "ym2612"
    },
    {
      "channel": 2,
      "note": 45,
      "start": 42.2744,
      "duration": 0.2655,
      "velocity": 107,
      "chip": "ym2612"
    },
    {
      "channel": 0,
      "note": 69,
      "start": 42.5622,
      "duration": 0.5607,
      "velocity": 107,
      "chip": "ym2612"
    },
    {
      "channel": 1,
      "note": 61,
      "start": 42.5627,
      "duration": 0.5602,
      "velocity": 107,
      "chip": "ym2612"
    },
    {
      "channel": 2,
      "note": 45,
      "start": 42.5633,
      "duration": 0.5599,
      "velocity": 107,
      "chip": "ym2612"
    },
    {
      "channel": 0,
      "note": 69,
      "start": 43.1651,
      "duration": 0.5578,
      "velocity": 107,
      "chip": "ym2612"
    },
    {
      "channel": 1,
      "note": 62,
      "start": 43.1657,
      "duration": 0.5573,
      "velocity": 107,
      "chip": "ym2612"
    },
    {
      "channel": 2,
      "note": 45,
      "start": 43.1663,
      "duration": 0.5569,
      "velocity": 107,
      "chip": "ym2612"
    },
    {
      "channel": 0,
      "note": 69,
      "start": 43.7651,
      "duration": 0.2744,
      "velocity": 107,
      "chip": "ym2612"
    },
    {
      "channel": 1,
      "note": 62,
      "start": 43.7657,
      "duration": 0.2739,
      "velocity": 107,
      "chip": "ym2612"
    },
    {
      "channel": 2,
      "note": 45,
      "start": 43.7663,
      "duration": 0.2735,
      "velocity": 107,
      "chip": "ym2612"
    },
    {
      "channel": 0,
      "note": 69,
      "start": 44.0621,
      "duration": 0.2774,
      "velocity": 107,
      "chip": "ym2612"
    },
    {
      "channel": 1,
      "note": 59,
      "start": 44.0627,
      "duration": 0.2769,
      "velocity": 107,
      "chip": "ym2612"
    },
    {
      "channel": 2,
      "note": 45,
      "start": 44.0633,
      "duration": 0.2765,
      "velocity": 107,
      "chip": "ym2612"
    },
    {
      "channel": 0,
      "note": 69,
      "start": 44.3622,
      "duration": 1.1497,
      "velocity": 107,
      "chip": "ym2612"
    },
    {
      "channel": 1,
      "note": 61,
      "start": 44.3627,
      "duration": 1.1493,
      "velocity": 107,
      "chip": "ym2612"
    },
    {
      "channel": 2,
      "note": 45,
      "start": 44.3633,
      "duration": 1.1488,
      "velocity": 107,
      "chip": "ym2612"
    },
    {
      "channel": 0,
      "note": 69,
      "start": 45.5622,
      "duration": 0.2774,
      "velocity": 107,
      "chip": "ym2612"
    },
    {
      "channel": 1,
      "note": 62,
      "start": 45.5627,
      "duration": 0.2769,
      "velocity": 107,
      "chip": "ym2612"
    },
    {
      "channel": 2,
      "note": 45,
      "start": 45.5633,
      "duration": 0.2765,
      "velocity": 107,
      "chip": "ym2612"
    },
    {
      "channel": 0,
      "note": 69,
      "start": 45.8621,
      "duration": 0.2774,
      "velocity": 107,
      "chip": "ym2612"
    },
    {
      "channel": 1,
      "note": 62,
      "start": 45.8627,
      "duration": 0.2769,
      "velocity": 107,
      "chip": "ym2612"
    },
    {
      "channel": 2,
      "note": 45,
      "start": 45.8633,
      "duration": 0.2765,
      "velocity": 107,
      "chip": "ym2612"
    },
    {
      "channel": 0,
      "note": 69,
      "start": 46.1621,
      "duration": 0.2774,
      "velocity": 107,
      "chip": "ym2612"
    },
    {
      "channel": 1,
      "note": 62,
      "start": 46.1627,
      "duration": 0.2769,
      "velocity": 107,
      "chip": "ym2612"
    },
    {
      "channel": 2,
      "note": 45,
      "start": 46.1633,
      "duration": 0.2765,
      "velocity": 107,
      "chip": "ym2612"
    },
    {
      "channel": 0,
      "note": 69,
      "start": 46.4621,
      "duration": 0.2774,
      "velocity": 107,
      "chip": "ym2612"
    },
    {
      "channel": 1,
      "note": 59,
      "start": 46.4627,
      "duration": 0.2769,
      "velocity": 107,
      "chip": "ym2612"
    },
    {
      "channel": 2,
      "note": 45,
      "start": 46.4633,
      "duration": 0.2765,
      "velocity": 107,
      "chip": "ym2612"
    },
    {
      "channel": 0,
      "note": 69,
      "start": 46.7622,
      "duration": 0.5607,
      "velocity": 107,
      "chip": "ym2612"
    },
    {
      "channel": 1,
      "note": 61,
      "start": 46.7627,
      "duration": 0.5602,
      "velocity": 107,
      "chip": "ym2612"
    },
    {
      "channel": 2,
      "note": 40,
      "start": 46.7633,
      "duration": 0.5599,
      "velocity": 107,
      "chip": "ym2612"
    },
    {
      "channel": 0,
      "note": 68,
      "start": 47.3651,
      "duration": 0.5578,
      "velocity": 107,
      "chip": "ym2612"
    },
    {
      "channel": 1,
      "note": 59,
      "start": 47.3657,
      "duration": 0.5573,
      "velocity": 107,
      "chip": "ym2612"
    },
    {
      "channel": 2,
      "note": 52,
      "start": 47.3663,
      "duration": 0.5569,
      "velocity": 107,
      "chip": "ym2612"
    },
    {
      "channel": 0,
      "note": 73,
      "start": 47.9588,
      "duration": 1.1475,
      "velocity": 102,
      "chip": "ym2612"
    },
    {
      "channel": 1,
      "note": 64,
      "start": 47.9615,
      "duration": 2.378,
      "velocity": 102,
      "chip": "ym2612"
    },
    {
      "channel": 2,
      "note": 57,
      "start": 47.9644,
      "duration": 1.142,
      "velocity": 102,
      "chip": "ym2612"
    },
    {
      "channel": 0,
      "note": 71,
      "start": 49.1565,
      "duration": 0.5663,
      "velocity": 102,
      "chip": "ym2612"
    },
    {
      "channel": 2,
      "note": 56,
      "start": 49.1572,
      "duration": 1.1491,
      "velocity": 102,
      "chip": "ym2612"
    },
    {
      "channel": 0,
      "note": 76,
      "start": 49.7565,
      "duration": 0.5663,
      "velocity": 102,
      "chip": "ym2612"
    },
    {
      "channel": 0,
      "note": 69,
      "start": 50.3565,
      "duration": 1.1497,
      "velocity": 102,
      "chip": "ym2612"
    },
    {
      "channel": 1,
      "note": 62,
      "start": 50.3572,
      "duration": 1.1492,
      "velocity": 102,
      "chip": "ym2612"
    },
    {
      "channel": 2,
      "note": 54,
      "start": 50.3577,
      "duration": 1.1488,
      "velocity": 102,
      "chip": "ym2612"
    },
    {
      "channel": 0,
      "note": 68,
      "start": 51.5565,
      "duration": 0.5663,
      "velocity": 102,
      "chip": "ym2612"
    },
    {
      "channel": 1,
      "note": 61,
      "start": 51.5572,
      "duration": 2.3491,
      "velocity": 102,
      "chip": "ym2612"
    },
    {
      "channel": 2,
      "note": 52,
      "start": 51.5577,
      "duration": 1.1486,
      "velocity": 102,
      "chip": "ym2612"
    },
    {
      "channel": 0,
      "note": 73,
      "start": 52.1565,
      "duration": 0.5663,
      "velocity": 102,
      "chip": "ym2612"
    },
    {
      "channel": 0,
      "note": 66,
      "start": 52.7565,
      "duration": 2.3749,
      "velocity": 102,
      "chip": "ym2612"
    },
    {
      "channel": 2,
      "note": 50,
      "start": 52.7573,
      "duration": 2.3743,
      "velocity": 102,
      "chip": "ym2612"
    },
    {
      "channel": 1,
      "note": 59,
      "start": 53.9566,
      "duration": 3.57,
      "velocity": 102,
      "chip": "ym2612"
    },
    {
      "channel": 0,
      "note": 69,
      "start": 55.1565,
      "duration": 0.5663,
      "velocity": 102,
      "chip": "ym2612"
    },
    {
      "channel": 2,
      "note": 52,
      "start": 55.1573,
      "duration": 1.149,
      "velocity": 102,
      "chip": "ym2612"
    },
    {
      "channel": 0,
      "note": 68,
      "start": 55.7565,
      "duration": 0.5663,
      "velocity": 102,
      "chip": "ym2612"
    },
    {
      "channel": 0,
      "note": 69,
      "start": 56.3565,
      "duration": 0.5663,
      "velocity": 102,
      "chip": "ym2612"
    },
    {
      "channel": 2,
      "note": 54,
      "start": 56.3572,
      "duration": 0.5659,
      "velocity": 102,
      "chip": "ym2612"
    },
    {
      "channel": 0,
      "note": 71,
      "start": 56.9565,
      "duration": 0.5663,
      "velocity": 102,
      "chip": "ym2612"
    },
    {
      "channel": 2,
      "note": 56,
      "start": 56.9572,
      "duration": 0.5659,
      "velocity": 102,
      "chip": "ym2612"
    },
    {
      "channel": 0,
      "note": 73,
      "start": 57.5565,
      "duration": 1.1497,
      "velocity": 102,
      "chip": "ym2612"
    },
    {
      "channel": 1,
      "note": 64,
      "start": 57.5572,
      "duration": 2.3658,
      "velocity": 102,
      "chip": "ym2612"
    },
    {
      "channel": 2,
      "note": 57,
      "start": 57.5577,
      "duration": 1.1487,
      "velocity": 102,
      "chip": "ym2612"
    },
    {
      "channel": 0,
      "note": 71,
      "start": 58.7565,
      "duration": 0.5522,
      "velocity": 102,
      "chip": "ym2612"
    },
    {
      "channel": 2,
      "note": 56,
      "start": 58.7572,
      "duration": 1.1491,
      "velocity": 102,
      "chip": "ym2612"
    },
    {
      "channel": 0,
      "note": 76,
      "start": 59.3565,
      "duration": 0.5559,
      "velocity": 102,
      "chip": "ym2612"
    },
    {
      "channel": 0,
      "note": 69,
      "start": 59.9565,
      "duration": 1.1497,
      "velocity": 102,
      "chip": "ym2612"
    },
    {
      "channel": 1,
      "note": 62,
      "start": 59.9572,
      "duration": 1.1492,
      "velocity": 102,
      "chip": "ym2612"
    },
    {
      "channel": 2,
      "note": 54,
      "start": 59.9577,
      "duration": 1.1488,
      "velocity": 102,
      "chip": "ym2612"
    },
    {
      "channel": 0,
      "note": 68,
      "start": 61.1565,
      "duration": 0.5507,
      "velocity": 102,
      "chip": "ym2612"
    },
    {
      "channel": 1,
      "note": 61,
      "start": 61.1572,
      "duration": 2.3491,
      "velocity": 102,
      "chip": "ym2612"
    },
    {
      "channel": 2,
      "note": 52,
      "start": 61.1577,
      "duration": 1.1486,
      "velocity": 102,
      "chip": "ym2612"
    },
    {
      "channel": 0,
      "note": 73,
      "start": 61.7565,
      "duration": 0.5559,
      "velocity": 102,
      "chip": "ym2612"
    },
    {
      "channel": 0,
      "note": 66,
      "start": 62.3565,
      "duration": 2.3663,
      "velocity": 102,
      "chip": "ym2612"
    },
    {
      "channel": 2,
      "note": 50,
      "start": 62.3574,
      "duration": 2.3656,
      "velocity": 102,
      "chip": "ym2612"
    },
    {
      "channel": 1,
      "note": 59,
      "start": 63.5566,
      "duration": 1.1945,
      "velocity": 102,
      "chip": "ym2612"
    },
    {
      "channel": 0,
      "note": 69,
      "start": 64.7507,
      "duration": 0.5556,
      "velocity": 102,
      "chip": "ym2612"
    },
    {
      "channel": 1,
      "note": 59,
      "start": 64.7535,
      "duration": 2.3695,
      "velocity": 102,
      "chip": "ym2612"
    },
    {
      "channel": 2,
      "note": 52,
      "start": 64.7565,
      "duration": 2.3666,
      "velocity": 102,
      "chip": "ym2612"
    },
    {
      "channel": 0,
      "note": 68,
      "start": 65.3409,
      "duration": 0.5654,
      "velocity": 102,
      "chip": "ym2612"
    },
    {
      "channel": 0,
      "note": 66,
      "start": 65.946,
      "duration": 0.5602,
      "velocity": 102,
      "chip": "ym2612"
    },
    {
      "channel": 0,
      "note": 68,
      "start": 66.544,
      "duration": 0.5622,
      "velocity": 102,
      "chip": "ym2612"
    },
    {
      "channel": 0,
      "note": 69,
      "start": 67.146,
      "duration": 4.7769,
      "velocity": 102,
      "chip": "ym2612"
    },
    {
      "channel": 1,
      "note": 62,
      "start": 67.1465,
      "duration": 1.1487,
      "velocity": 102,
      "chip": "ym2612"
    },
    {
      "channel": 2,
      "note": 59,
      "start": 67.1472,
      "duration": 2.3758,
      "velocity": 102,
      "chip": "ym2612"
    },
    {
      "channel": 1,
      "note": 59,
      "start": 68.3486,
      "duration": 1.141,
      "velocity": 102,
      "chip": "ym2612"
    },
    {
      "channel": 1,
      "note": 61,
      "start": 69.5401,
      "duration": 2.3829,
      "velocity": 102,
      "chip": "ym2612"
    },
    {
      "channel": 2,
      "note": 33,
      "start": 69.5407,
      "duration": 2.3825,
      "velocity": 102,
      "chip": "ym2612"
    },
    {
      "channel": 1,
      "note": 57,
      "start": 71.9471,
      "duration": 0.0018,
      "velocity": 102,
      "chip": "ym2612"
    }
  ]
}