{
  "track_name": "11 - Dice-Dance-Days",
  "duration_sec": 62.168,
  "sample_rate": 44100,
  "note_count": 1411,
  "unique_pitches": 54,
  "pitch_range": 63,
  "avg_note_duration": 0.2045,
  "reconstruction_stats": {
    "notes_reconstructed": 1411,
    "keyon_events": 1411,
    "keyoff_events": 1406,
    "orphan_keyons": 5,
    "unique_pitches": 54,
    "pitch_range": 63,
    "avg_duration_sec": 0.2045
  },
  "metadata": {
    "source": "G\\Gunstar Heroes\\11 - Dice-Dance-Days.vgz"
  },
  "notes": [
    {
      "channel": 0,
      "note": 51,
      "start": 0.0004,
      "duration": 0.0283,
      "velocity": 112,
      "chip": "ym2612"
    },
    {
      "channel": 1,
      "note": 87,
      "start": 0.0015,
      "duration": 0.0276,
      "velocity": 108,
      "chip": "ym2612"
    },
    {
      "channel": 2,
      "note": 75,
      "start": 0.0025,
      "duration": 0.0269,
      "velocity": 127,
      "chip": "ym2612"
    },
    {
      "channel": 3,
      "note": 82,
      "start": 0.0036,
      "duration": 0.0261,
      "velocity": 108,
      "chip": "ym2612"
    },
    {
      "channel": 4,
      "note": 82,
      "start": 0.0068,
      "duration": 0.0725,
      "velocity": 125,
      "chip": "ym2612"
    },
    {
      "channel": 0,
      "note": 51,
      "start": 0.029,
      "duration": 0.1163,
      "velocity": 112,
      "chip": "ym2612"
    },
    {
      "channel": 1,
      "note": 87,
      "start": 0.0293,
      "duration": 0.1164,
      "velocity": 108,
      "chip": "ym2612"
    },
    {
      "channel": 2,
      "note": 75,
      "start": 0.0296,
      "duration": 0.1164,
      "velocity": 127,
      "chip": "ym2612"
    },
    {
      "channel": 3,
      "note": 82,
      "start": 0.03,
      "duration": 0.1164,
      "velocity": 108,
      "chip": "ym2612"
    },
    {
      "channel": 4,
      "note": 82,
      "start": 0.0796,
      "duration": 0.1164,
      "velocity": 125,
      "chip": "ym2612"
    },
    {
      "channel": 0,
      "note": 52,
      "start": 0.1457,
      "duration": 0.1164,
      "velocity": 112,
      "chip": "ym2612"
    },
    {
      "channel": 1,
      "note": 87,
      "start": 0.146,
      "duration": 0.1165,
      "velocity": 108,
      "chip": "ym2612"
    },
    {
      "channel": 2,
      "note": 63,
      "start": 0.1463,
      "duration": 0.1164,
      "velocity": 127,
      "chip": "ym2612"
    },
    {
      "channel": 3,
      "note": 82,
      "start": 0.1466,
      "duration": 0.1164,
      "velocity": 108,
      "chip": "ym2612"
    },
    {
      "channel": 4,
      "note": 82,
      "start": 0.1962,
      "duration": 0.0691,
      "velocity": 125,
      "chip": "ym2612"
    },
    {
      "channel": 0,
      "note": 51,
      "start": 0.2624,
      "duration": 0.0453,
      "velocity": 112,
      "chip": "ym2612"
    },
    {
      "channel": 1,
      "note": 87,
      "start": 0.2626,
      "duration": 0.0454,
      "velocity": 108,
      "chip": "ym2612"
    },
    {
      "channel": 2,
      "note": 75,
      "start": 0.2629,
      "duration": 0.0452,
      "velocity": 127,
      "chip": "ym2612"
    },
    {
      "channel": 3,
      "note": 82,
      "start": 0.2632,
      "duration": 0.0453,
      "velocity": 108,
      "chip": "ym2612"
    },
    {
      "channel": 4,
      "note": 82,
      "start": 0.2655,
      "duration": 0.0451,
      "velocity": 125,
      "chip": "ym2612"
    },
    {
      "channel": 0,
      "note": 53,
      "start": 0.308,
      "duration": 0.0065,
      "velocity": 112,
      "chip": "ym2612"
    },
    {
      "channel": 2,
      "note": 63,
      "start": 0.3084,
      "duration": 0.0064,
      "velocity": 127,
      "chip": "ym2612"
    },
    {
      "channel": 0,
      "note": 51,
      "start": 0.3147,
      "duration": 0.0051,
      "velocity": 112,
      "chip": "ym2612"
    },
    {
      "channel": 0,
      "note": 54,
      "start": 0.3201,
      "duration": 0.1063,
      "velocity": 112,
      "chip": "ym2612"
    },
    {
      "channel": 1,
      "note": 87,
      "start": 0.3202,
      "duration": 0.1065,
      "velocity": 108,
      "chip": "ym2612"
    },
    {
      "channel": 2,
      "note": 75,
      "start": 0.3206,
      "duration": 0.1065,
      "velocity": 127,
      "chip": "ym2612"
    },
    {
      "channel": 3,
      "note": 82,
      "start": 0.3208,
      "duration": 0.1066,
      "velocity": 108,
      "chip": "ym2612"
    },
    {
      "channel": 4,
      "note": 82,
      "start": 0.3439,
      "duration": 0.1164,
      "velocity": 125,
      "chip": "ym2612"
    },
    {
      "channel": 0,
      "note": 51,
      "start": 0.4267,
      "duration": 0.0998,
      "velocity": 112,
      "chip": "ym2612"
    },
    {
      "channel": 1,
      "note": 87,
      "start": 0.427,
      "duration": 0.0996,
      "velocity": 108,
      "chip": "ym2612"
    },
    {
      "channel": 2,
      "note": 75,
      "start": 0.4273,
      "duration": 0.0993,
      "velocity": 127,
      "chip": "ym2612"
    },
    {
      "channel": 3,
      "note": 82,
      "start": 0.4277,
      "duration": 0.0994,
      "velocity": 108,
      "chip": "ym2612"
    },
    {
      "channel": 4,
      "note": 82,
      "start": 0.4606,
      "duration": 0.0691,
      "velocity": 125,
      "chip": "ym2612"
    },
    {
      "channel": 2,
      "note": 63,
      "start": 0.527,
      "duration": 0.0427,
      "velocity": 127,
      "chip": "ym2612"
    },
    {
      "channel": 0,
      "note": 51,
      "start": 0.5694,
      "duration": 0.0455,
      "velocity": 112,
      "chip": "ym2612"
    },
    {
      "channel": 1,
      "note": 87,
      "start": 0.5697,
      "duration": 0.0454,
      "velocity": 108,
      "chip": "ym2612"
    },
    {
      "channel": 2,
      "note": 75,
      "start": 0.5699,
      "duration": 0.0453,
      "velocity": 127,
      "chip": "ym2612"
    },
    {
      "channel": 3,
      "note": 82,
      "start": 0.5701,
      "duration": 0.0455,
      "velocity": 108,
      "chip": "ym2612"
    },
    {
      "channel": 4,
      "note": 82,
      "start": 0.5736,
      "duration": 0.0749,
      "velocity": 125,
      "chip": "ym2612"
    },
    {
      "channel": 2,
      "note": 63,
      "start": 0.6155,
      "duration": 0.1166,
      "velocity": 127,
      "chip": "ym2612"
    },
    {
      "channel": 0,
      "note": 51,
      "start": 0.7318,
      "duration": 0.045,
      "velocity": 112,
      "chip": "ym2612"
    },
    {
      "channel": 1,
      "note": 87,
      "start": 0.732,
      "duration": 0.0989,
      "velocity": 108,
      "chip": "ym2612"
    },
    {
      "channel": 3,
      "note": 82,
      "start": 0.7323,
      "duration": 0.0994,
      "velocity": 108,
      "chip": "ym2612"
    },
    {
      "channel": 4,
      "note": 82,
      "start": 0.7344,
      "duration": 0.1301,
      "velocity": 125,
      "chip": "ym2612"
    },
    {
      "channel": 0,
      "note": 52,
      "start": 0.7771,
      "duration": 0.0084,
      "velocity": 112,
      "chip": "ym2612"
    },
    {
      "channel": 2,
      "note": 75,
      "start": 0.7775,
      "duration": 0.0085,
      "velocity": 127,
      "chip": "ym2612"
    },
    {
      "channel": 0,
      "note": 51,
      "start": 0.7858,
      "duration": 0.0448,
      "velocity": 112,
      "chip": "ym2612"
    },
    {
      "channel": 2,
      "note": 75,
      "start": 0.7862,
      "duration": 0.0451,
      "velocity": 127,
      "chip": "ym2612"
    },
    {
      "channel": 0,
      "note": 54,
      "start": 0.8309,
      "duration": 0.0997,
      "velocity": 112,
      "chip": "ym2612"
    },
    {
      "channel": 1,
      "note": 87,
      "start": 0.8312,
      "duration": 0.0998,
      "velocity": 108,
      "chip": "ym2612"
    },
    {
      "channel": 2,
      "note": 63,
      "start": 0.8315,
      "duration": 0.0998,
      "velocity": 127,
      "chip": "ym2612"
    },
    {
      "channel": 3,
      "note": 82,
      "start": 0.8318,
      "duration": 0.0998,
      "velocity": 108,
      "chip": "ym2612"
    },
    {
      "channel": 4,
      "note": 82,
      "start": 0.8648,
      "duration": 0.1164,
      "velocity": 125,
      "chip": "ym2612"
    },
    {
      "channel": 0,
      "note": 51,
      "start": 0.9309,
      "duration": 0.1165,
      "velocity": 112,
      "chip": "ym2612"
    },
    {
      "channel": 1,
      "note": 87,
      "start": 0.9312,
      "duration": 0.1166,
      "velocity": 108,
      "chip": "ym2612"
    },
    {
      "channel": 2,
      "note": 75,
      "start": 0.9315,
      "duration": 0.1163,
      "velocity": 127,
      "chip": "ym2612"
    },
    {
      "channel": 3,
      "note": 82,
      "start": 0.9318,
      "duration": 0.1163,
      "velocity": 108,
      "chip": "ym2612"
    },
    {
      "channel": 4,
      "note": 82,
      "start": 0.9815,
      "duration": 0.0696,
      "velocity": 125,
      "chip": "ym2612"
    },
    {
      "channel": 0,
      "note": 51,
      "start": 1.0477,
      "duration": 0.0448,
      "velocity": 112,
      "chip": "ym2612"
    },
    {
      "channel": 2,
      "note": 63,
      "start": 1.0481,
      "duration": 0.0451,
      "velocity": 127,
      "chip": "ym2612"
    },
    {
      "channel": 0,
      "note": 51,
      "start": 1.0928,
      "duration": 0.1163,
      "velocity": 112,
      "chip": "ym2612"
    },
    {
      "channel": 1,
      "note": 87,
      "start": 1.0931,
      "duration": 0.1164,
      "velocity": 108,
      "chip": "ym2612"
    },
    {
      "channel": 3,
      "note": 82,
      "start": 1.0936,
      "duration": 0.1165,
      "velocity": 108,
      "chip": "ym2612"
    },
    {
      "channel": 4,
      "note": 82,
      "start": 1.1266,
      "duration": 0.1163,
      "velocity": 125,
      "chip": "ym2612"
    },
    {
      "channel": 0,
      "note": 52,
      "start": 1.2095,
      "duration": 0.1164,
      "velocity": 112,
      "chip": "ym2612"
    },
    {
      "channel": 2,
      "note": 75,
      "start": 1.21,
      "duration": 0.1165,
      "velocity": 127,
      "chip": "ym2612"
    },
    {
      "channel": 0,
      "note": 51,
      "start": 1.3262,
      "duration": 0.045,
      "velocity": 112,
      "chip": "ym2612"
    },
    {
      "channel": 1,
      "note": 87,
      "start": 1.3263,
      "duration": 0.1939,
      "velocity": 108,
      "chip": "ym2612"
    },
    {
      "channel": 2,
      "note": 75,
      "start": 1.3267,
      "duration": 0.0449,
      "velocity": 127,
      "chip": "ym2612"
    },
    {
      "channel": 3,
      "note": 82,
      "start": 1.3269,
      "duration": 0.1943,
      "velocity": 108,
      "chip": "ym2612"
    },
    {
      "channel": 4,
      "note": 82,
      "start": 1.329,
      "duration": 0.2249,
      "velocity": 125,
      "chip": "ym2612"
    },
    {
      "channel": 0,
      "note": 53,
      "start": 1.3715,
      "duration": 0.008,
      "velocity": 112,
      "chip": "ym2612"
    },
    {
      "channel": 2,
      "note": 63,
      "start": 1.3719,
      "duration": 0.0079,
      "velocity": 127,
      "chip": "ym2612"
    },
    {
      "channel": 0,
      "note": 51,
      "start": 1.3796,
      "duration": 0.0065,
      "velocity": 112,
      "chip": "ym2612"
    },
    {
      "channel": 2,
      "note": 75,
      "start": 1.38,
      "duration": 0.0065,
      "velocity": 127,
      "chip": "ym2612"
    },
    {
      "channel": 0,
      "note": 54,
      "start": 1.3864,
      "duration": 0.0882,
      "velocity": 112,
      "chip": "ym2612"
    },
    {
      "channel": 2,
      "note": 63,
      "start": 1.3868,
      "duration": 0.0882,
      "velocity": 127,
      "chip": "ym2612"
    },
    {
      "channel": 0,
      "note": 51,
      "start": 1.4748,
      "duration": 0.0452,
      "velocity": 112,
      "chip": "ym2612"
    },
    {
      "channel": 1,
      "note": 75,
      "start": 1.5205,
      "duration": 0.0829,
      "velocity": 108,
      "chip": "ym2612"
    },
    {
      "channel": 2,
      "note": 75,
      "start": 1.5209,
      "duration": 0.1163,
      "velocity": 127,
      "chip": "ym2612"
    },
    {
      "channel": 3,
      "note": 63,
      "start": 1.5215,
      "duration": 0.0824,
      "velocity": 108,
      "chip": "ym2612"
    },
    {
      "channel": 4,
      "note": 68,
      "start": 1.554,
      "duration": 0.0835,
      "velocity": 125,
      "chip": "ym2612"
    },
    {
      "channel": 1,
      "note": 87,
      "start": 1.6037,
      "duration": 0.0356,
      "velocity": 108,
      "chip": "ym2612"
    },
    {
      "channel": 3,
      "note": 70,
      "start": 1.6041,
      "duration": 0.0355,
      "velocity": 108,
      "chip": "ym2612"
    },
    {
      "channel": 0,
      "note": 51,
      "start": 1.637,
      "duration": 0.0449,
      "velocity": 112,
      "chip": "ym2612"
    },
    {
      "channel": 2,
      "note": 75,
      "start": 1.6374,
      "duration": 0.045,
      "velocity": 127,
      "chip": "ym2612"
    },
    {
      "channel": 4,
      "note": 70,
      "start": 1.6377,
      "duration": 0.0115,
      "velocity": 125,
      "chip": "ym2612"
    },
    {
      "channel": 1,
      "note": 76,
      "start": 1.6394,
      "duration": 0.0427,
      "velocity": 108,
      "chip": "ym2612"
    },
    {
      "channel": 3,
      "note": 64,
      "start": 1.6398,
      "duration": 0.0429,
      "velocity": 108,
      "chip": "ym2612"
    },
    {
      "channel": 4,
      "note": 69,
      "start": 1.6494,
      "duration": 0.0354,
      "velocity": 125,
      "chip": "ym2612"
    },
    {
      "channel": 1,
      "note": 88,
      "start": 1.6823,
      "duration": 0.0044,
      "velocity": 108,
      "chip": "ym2612"
    },
    {
      "channel": 2,
      "note": 63,
      "start": 1.6826,
      "duration": 0.0457,
      "velocity": 127,
      "chip": "ym2612"
    },
    {
      "channel": 3,
      "note": 71,
      "start": 1.6828,
      "duration": 0.0042,
      "velocity": 108,
      "chip": "ym2612"
    },
    {
      "channel": 4,
      "note": 83,
      "start": 1.6849,
      "duration": 0.0437,
      "velocity": 125,
      "chip": "ym2612"
    },
    {
      "channel": 1,
      "note": 77,
      "start": 1.6868,
      "duration": 0.0442,
      "velocity": 108,
      "chip": "ym2612"
    },
    {
      "channel": 3,
      "note": 65,
      "start": 1.6872,
      "duration": 0.0444,
      "velocity": 108,
      "chip": "ym2612"
    },
    {
      "channel": 0,
      "note": 51,
      "start": 1.7281,
      "duration": 0.0193,
      "velocity": 112,
      "chip": "ym2612"
    },
    {
      "channel": 2,
      "note": 75,
      "start": 1.7285,
      "duration": 0.0196,
      "velocity": 127,
      "chip": "ym2612"
    },
    {
      "channel": 4,
      "note": 70,
      "start": 1.7289,
      "duration": 0.0056,
      "velocity": 125,
      "chip": "ym2612"
    },
    {
      "channel": 1,
      "note": 89,
      "start": 1.7313,
      "duration": 0.0164,
      "velocity": 108,
      "chip": "ym2612"
    },
    {
      "channel": 3,
      "note": 72,
      "start": 1.7317,
      "duration": 0.0165,
      "velocity": 108,
      "chip": "ym2612"
    },
    {
      "channel": 4,
      "note": 84,
      "start": 1.7346,
      "duration": 0.0163,
      "velocity": 125,
      "chip": "ym2612"
    },
    {
      "channel": 0,
      "note": 52,
      "start": 1.7477,
      "duration": 0.0077,
      "velocity": 112,
      "chip": "ym2612"
    },
    {
      "channel": 1,
      "note": 78,
      "start": 1.748,
      "duration": 0.005,
      "velocity": 108,
      "chip": "ym2612"
    },
    {
      "channel": 2,
      "note": 63,
      "start": 1.7482,
      "duration": 0.0077,
      "velocity": 127,
      "chip": "ym2612"
    },
    {
      "channel": 3,
      "note": 66,
      "start": 1.7484,
      "duration": 0.0049,
      "velocity": 108,
      "chip": "ym2612"
    },
    {
      "channel": 4,
      "note": 71,
      "start": 1.751,
      "duration": 0.005,
      "velocity": 125,
      "chip": "ym2612"
    },
    {
      "channel": 1,
      "note": 90,
      "start": 1.7532,
      "duration": 0.0056,
      "velocity": 108,
      "chip": "ym2612"
    },
    {
      "channel": 3,
      "note": 73,
      "start": 1.7535,
      "duration": 0.0055,
      "velocity": 108,
      "chip": "ym2612"
    },
    {
      "channel": 0,
      "note": 51,
      "start": 1.7557,
      "duration": 0.008,
      "velocity": 112,
      "chip": "ym2612"
    },
    {
      "channel": 4,
      "note": 85,
      "start": 1.7562,
      "duration": 0.0052,
      "velocity": 125,
      "chip": "ym2612"
    },
    {
      "channel": 1,
      "note": 79,
      "start": 1.7589,
      "duration": 0.0053,
      "velocity": 108,
      "chip": "ym2612"
    },
    {
      "channel": 3,
      "note": 67,
      "start": 1.7592,
      "duration": 0.0057,
      "velocity": 108,
      "chip": "ym2612"
    },
    {
      "channel": 4,
      "note": 72,
      "start": 1.7615,
      "duration": 0.008,
      "velocity": 125,
      "chip": "ym2612"
    },
    {
      "channel": 0,
      "note": 54,
      "start": 1.7641,
      "duration": 0.0115,
      "velocity": 112,
      "chip": "ym2612"
    },
    {
      "channel": 1,
      "note": 91,
      "start": 1.7645,
      "duration": 0.0079,
      "velocity": 108,
      "chip": "ym2612"
    },
    {
      "channel": 2,
      "note": 75,
      "start": 1.7649,
      "duration": 0.0113,
      "velocity": 127,
      "chip": "ym2612"
    },
    {
      "channel": 3,
      "note": 74,
      "start": 1.765,
      "duration": 0.0077,
      "velocity": 108,
      "chip": "ym2612"
    },
    {
      "channel": 4,
      "note": 86,
      "start": 1.7698,
      "duration": 0.0068,
      "velocity": 125,
      "chip": "ym2612"
    },
    {
      "channel": 1,
      "note": 80,
      "start": 1.7725,
      "duration": 0.0062,
      "velocity": 108,
      "chip": "ym2612"
    },
    {
      "channel": 3,
      "note": 68,
      "start": 1.7729,
      "duration": 0.0062,
      "velocity": 108,
      "chip": "ym2612"
    },
    {
      "channel": 0,
      "note": 51,
      "start": 1.776,
      "duration": 0.0451,
      "velocity": 112,
      "chip": "ym2612"
    },
    {
      "channel": 2,
      "note": 75,
      "start": 1.7765,
      "duration": 0.0452,
      "velocity": 127,
      "chip": "ym2612"
    },
    {
      "channel": 4,
      "note": 73,
      "start": 1.7768,
      "duration": 0.0114,
      "velocity": 125,
      "chip": "ym2612"
    },
    {
      "channel": 1,
      "note": 92,
      "start": 1.7789,
      "duration": 0.0427,
      "velocity": 108,
      "chip": "ym2612"
    },
    {
      "channel": 3,
      "note": 75,
      "start": 1.7793,
      "duration": 0.0427,
      "velocity": 108,
      "chip": "ym2612"
    },
    {
      "channel": 4,
      "note": 87,
      "start": 1.7885,
      "duration": 0.0353,
      "velocity": 125,
      "chip": "ym2612"
    },
    {
      "channel": 0,
      "note": 51,
      "start": 1.8214,
      "duration": 0.0449,
      "velocity": 112,
      "chip": "ym2612"
    },
    {
      "channel": 0,
      "note": 51,
      "start": 1.8666,
      "duration": 0.1163,
      "velocity": 112,
      "chip": "ym2612"
    },
    {
      "channel": 1,
      "note": 86,
      "start": 1.8669,
      "duration": 0.1164,
      "velocity": 108,
      "chip": "ym2612"
    },
    {
      "channel": 3,
      "note": 81,
      "start": 1.8673,
      "duration": 0.1166,
      "velocity": 108,
      "chip": "ym2612"
    },
    {
      "channel": 4,
      "note": 81,
      "start": 1.9003,
      "duration": 0.1165,
      "velocity": 125,
      "chip": "ym2612"
    },
    {
      "channel": 0,
      "note": 52,
      "start": 1.9832,
      "duration": 0.1164,
      "velocity": 112,
      "chip": "ym2612"
    },
    {
      "channel": 1,
      "note": 86,
      "start": 1.9835,
      "duration": 0.1165,
      "velocity": 108,
      "chip": "ym2612"
    },
    {
      "channel": 2,
      "note": 74,
      "start": 1.9839,
      "duration": 0.1162,
      "velocity": 127,
      "chip": "ym2612"
    },
    {
      "channel": 3,
      "note": 81,
      "start": 1.9842,
      "duration": 0.1163,
      "velocity": 108,
      "chip": "ym2612"
    },
    {
      "channel": 4,
      "note": 81,
      "start": 2.0171,
      "duration": 0.0853,
      "velocity": 125,
      "chip": "ym2612"
    },
    {
      "channel": 0,
      "note": 51,
      "start": 2.1,
      "duration": 0.0283,
      "velocity": 112,
      "chip": "ym2612"
    },
    {
      "channel": 2,
      "note": 74,
      "start": 2.1004,
      "duration": 0.0285,
      "velocity": 127,
      "chip": "ym2612"
    },
    {
      "channel": 0,
      "note": 53,
      "start": 2.1286,
      "duration": 0.0083,
      "velocity": 112,
      "chip": "ym2612"
    },
    {
      "channel": 1,
      "note": 86,
      "start": 2.1288,
      "duration": 0.0084,
      "velocity": 108,
      "chip": "ym2612"
    },
    {
      "channel": 2,
      "note": 62,
      "start": 2.1291,
      "duration": 0.0081,
      "velocity": 127,
      "chip": "ym2612"
    },
    {
      "channel": 3,
      "note": 81,
      "start": 2.1293,
      "duration": 0.0081,
      "velocity": 108,
      "chip": "ym2612"
    },
    {
      "channel": 4,
      "note": 81,
      "start": 2.1327,
      "duration": 0.0075,
      "velocity": 125,
      "chip": "ym2612"
    },
    {
      "channel": 0,
      "note": 51,
      "start": 2.1371,
      "duration": 0.0061,
      "velocity": 112,
      "chip": "ym2612"
    },
    {
      "channel": 2,
      "note": 62,
      "start": 2.1373,
      "duration": 0.0063,
      "velocity": 127,
      "chip": "ym2612"
    },
    {
      "channel": 0,
      "note": 54,
      "start": 2.1434,
      "duration": 0.1046,
      "velocity": 112,
      "chip": "ym2612"
    },
    {
      "channel": 2,
      "note": 74,
      "start": 2.1438,
      "duration": 0.1049,
      "velocity": 127,
      "chip": "ym2612"
    },
    {
      "channel": 0,
      "note": 51,
      "start": 2.2483,
      "duration": 0.1164,
      "velocity": 112,
      "chip": "ym2612"
    },
    {
      "channel": 1,
      "note": 86,
      "start": 2.2486,
      "duration": 0.2331,
      "velocity": 108,
      "chip": "ym2612"
    },
    {
      "channel": 3,
      "note": 81,
      "start": 2.2491,
      "duration": 0.2331,
      "velocity": 108,
      "chip": "ym2612"
    },
    {
      "channel": 4,
      "note": 81,
      "start": 2.2821,
      "duration": 0.2023,
      "velocity": 125,
      "chip": "ym2612"
    },
    {
      "channel": 2,
      "note": 74,
      "start": 2.3653,
      "duration": 0.1166,
      "velocity": 127,
      "chip": "ym2612"
    },
    {
      "channel": 0,
      "note": 51,
      "start": 2.4817,
      "duration": 0.0449,
      "velocity": 112,
      "chip": "ym2612"
    },
    {
      "channel": 1,
      "note": 86,
      "start": 2.4819,
      "duration": 0.1523,
      "velocity": 108,
      "chip": "ym2612"
    },
    {
      "channel": 2,
      "note": 74,
      "start": 2.4821,
      "duration": 0.0447,
      "velocity": 127,
      "chip": "ym2612"
    },
    {
      "channel": 3,
      "note": 81,
      "start": 2.4824,
      "duration": 0.1524,
      "velocity": 108,
      "chip": "ym2612"
    },
    {
      "channel": 4,
      "note": 81,
      "start": 2.4846,
      "duration": 0.1832,
      "velocity": 125,
      "chip": "ym2612"
    },
    {
      "channel": 2,
      "note": 62,
      "start": 2.5271,
      "duration": 0.0085,
      "velocity": 127,
      "chip": "ym2612"
    },
    {
      "channel": 0,
      "note": 51,
      "start": 2.5354,
      "duration": 0.0447,
      "velocity": 112,
      "chip": "ym2612"
    },
    {
      "channel": 2,
      "note": 74,
      "start": 2.5358,
      "duration": 0.0449,
      "velocity": 127,
      "chip": "ym2612"
    },
    {
      "channel": 0,
      "note": 52,
      "start": 2.5805,
      "duration": 0.0085,
      "velocity": 112,
      "chip": "ym2612"
    },
    {
      "channel": 2,
      "note": 62,
      "start": 2.5808,
      "duration": 0.0087,
      "velocity": 127,
      "chip": "ym2612"
    },
    {
      "channel": 0,
      "note": 51,
      "start": 2.5893,
      "duration": 0.0445,
      "velocity": 112,
      "chip": "ym2612"
    },
    {
      "channel": 0,
      "note": 54,
      "start": 2.6341,
      "duration": 0.1163,
      "velocity": 112,
      "chip": "ym2612"
    },
    {
      "channel": 1,
      "note": 86,
      "start": 2.6344,
      "duration": 0.1164,
      "velocity": 108,
      "chip": "ym2612"
    },
    {
      "channel": 2,
      "note": 74,
      "start": 2.6347,
      "duration": 0.1164,
      "velocity": 127,
      "chip": "ym2612"
    },
    {
      "channel": 3,
      "note": 81,
      "start": 2.635,
      "duration": 0.1164,
      "velocity": 108,
      "chip": "ym2612"
    },
    {
      "channel": 4,
      "note": 81,
      "start": 2.668,
      "duration": 0.1164,
      "velocity": 125,
      "chip": "ym2612"
    },
    {
      "channel": 0,
      "note": 51,
      "start": 2.7507,
      "duration": 0.1165,
      "velocity": 112,
      "chip": "ym2612"
    },
    {
      "channel": 1,
      "note": 86,
      "start": 2.751,
      "duration": 0.1166,
      "velocity": 108,
      "chip": "ym2612"
    },
    {
      "channel": 2,
      "note": 74,
      "start": 2.7514,
      "duration": 0.1163,
      "velocity": 127,
      "chip": "ym2612"
    },
    {
      "channel": 3,
      "note": 81,
      "start": 2.7517,
      "duration": 0.1162,
      "velocity": 108,
      "chip": "ym2612"
    },
    {
      "channel": 4,
      "note": 81,
      "start": 2.7846,
      "duration": 0.0854,
      "velocity": 125,
      "chip": "ym2612"
    },
    {
      "channel": 0,
      "note": 51,
      "start": 2.8676,
      "duration": 0.045,
      "velocity": 112,
      "chip": "ym2612"
    },
    {
      "channel": 2,
      "note": 62,
      "start": 2.8678,
      "duration": 0.0454,
      "velocity": 127,
      "chip": "ym2612"
    },
    {
      "channel": 0,
      "note": 51,
      "start": 2.9129,
      "duration": 0.0997,
      "velocity": 112,
      "chip": "ym2612"
    },
    {
      "channel": 1,
      "note": 86,
      "start": 2.9132,
      "duration": 0.0998,
      "velocity": 108,
      "chip": "ym2612"
    },
    {
      "channel": 2,
      "note": 74,
      "start": 2.9135,
      "duration": 0.0996,
      "velocity": 127,
      "chip": "ym2612"
    },
    {
      "channel": 3,
      "note": 81,
      "start": 2.9138,
      "duration": 0.0996,
      "velocity": 108,
      "chip": "ym2612"
    },
    {
      "channel": 4,
      "note": 81,
      "start": 2.9468,
      "duration": 0.1163,
      "velocity": 125,
      "chip": "ym2612"
    },
    {
      "channel": 0,
      "note": 52,
      "start": 3.0129,
      "duration": 0.1164,
      "velocity": 112,
      "chip": "ym2612"
    },
    {
      "channel": 2,
      "note": 62,
      "start": 3.0134,
      "duration": 0.1165,
      "velocity": 127,
      "chip": "ym2612"
    },
    {
      "channel": 0,
      "note": 51,
      "start": 3.1296,
      "duration": 0.0447,
      "velocity": 112,
      "chip": "ym2612"
    },
    {
      "channel": 1,
      "note": 86,
      "start": 3.1298,
      "duration": 0.2101,
      "velocity": 108,
      "chip": "ym2612"
    },
    {
      "channel": 3,
      "note": 81,
      "start": 3.1301,
      "duration": 0.2107,
      "velocity": 108,
      "chip": "ym2612"
    },
    {
      "channel": 4,
      "note": 81,
      "start": 3.133,
      "duration": 0.2402,
      "velocity": 125,
      "chip": "ym2612"
    },
    {
      "channel": 0,
      "note": 53,
      "start": 3.1746,
      "duration": 0.0079,
      "velocity": 112,
      "chip": "ym2612"
    },
    {
      "channel": 2,
      "note": 74,
      "start": 3.175,
      "duration": 0.0078,
      "velocity": 127,
      "chip": "ym2612"
    },
    {
      "channel": 0,
      "note": 51,
      "start": 3.1827,
      "duration": 0.0075,
      "velocity": 112,
      "chip": "ym2612"
    },
    {
      "channel": 2,
      "note": 74,
      "start": 3.183,
      "duration": 0.0076,
      "velocity": 127,
      "chip": "ym2612"
    },
    {
      "channel": 0,
      "note": 54,
      "start": 3.1904,
      "duration": 0.1037,
      "velocity": 112,
      "chip": "ym2612"
    },
    {
      "channel": 2,
      "note": 62,
      "start": 3.1909,
      "duration": 0.1037,
      "velocity": 127,
      "chip": "ym2612"
    },
    {
      "channel": 0,
      "note": 51,
      "start": 3.2944,
      "duration": 0.045,
      "velocity": 112,
      "chip": "ym2612"
    },
    {
      "channel": 2,
      "note": 74,
      "start": 3.2949,
      "duration": 0.0453,
      "velocity": 127,
      "chip": "ym2612"
    },
    {
      "channel": 1,
      "note": 98,
      "start": 3.3401,
      "duration": 0.066,
      "velocity": 108,
      "chip": "ym2612"
    },
    {
      "channel": 2,
      "note": 62,
      "start": 3.3405,
      "duration": 0.0995,
      "velocity": 127,
      "chip": "ym2612"
    },
    {
      "channel": 3,
      "note": 81,
      "start": 3.341,
      "duration": 0.0655,
      "velocity": 108,
      "chip": "ym2612"
    },
    {
      "channel": 4,
      "note": 81,
      "start": 3.3734,
      "duration": 0.0666,
      "velocity": 125,
      "chip": "ym2612"
    },
    {
      "channel": 1,
      "note": 88,
      "start": 3.4063,
      "duration": 0.0368,
      "velocity": 108,
      "chip": "ym2612"
    },
    {
      "channel": 3,
      "note": 76,
      "start": 3.4068,
      "duration": 0.0366,
      "velocity": 108,
      "chip": "ym2612"
    },
    {
      "channel": 0,
      "note": 51,
      "start": 3.4397,
      "duration": 0.0452,
      "velocity": 112,
      "chip": "ym2612"
    },
    {
      "channel": 4,
      "note": 81,
      "start": 3.4402,
      "duration": 0.0119,
      "velocity": 125,
      "chip": "ym2612"
    },
    {
      "channel": 1,
      "note": 97,
      "start": 3.4433,
      "duration": 0.0418,
      "velocity": 108,
      "chip": "ym2612"
    },
    {
      "channel": 3,
      "note": 80,
      "start": 3.4435,
      "duration": 0.0421,
      "velocity": 108,
      "chip": "ym2612"
    },
    {
      "channel": 4,
      "note": 80,
      "start": 3.4523,
      "duration": 0.0364,
      "velocity": 125,
      "chip": "ym2612"
    },
    {
      "channel": 1,
      "note": 87,
      "start": 3.4853,
      "duration": 0.0117,
      "velocity": 108,
      "chip": "ym2612"
    },
    {
      "channel": 2,
      "note": 74,
      "start": 3.4855,
      "duration": 0.0453,
      "velocity": 127,
      "chip": "ym2612"
    },
    {
      "channel": 3,
      "note": 75,
      "start": 3.4858,
      "duration": 0.0116,
      "velocity": 108,
      "chip": "ym2612"
    },
    {
      "channel": 4,
      "note": 80,
      "start": 3.489,
      "duration": 0.0423,
      "velocity": 125,
      "chip": "ym2612"
    },
    {
      "channel": 1,
      "note": 96,
      "start": 3.4972,
      "duration": 0.0363,
      "velocity": 108,
      "chip": "ym2612"
    },
    {
      "channel": 3,
      "note": 79,
      "start": 3.4976,
      "duration": 0.0362,
      "velocity": 108,
      "chip": "ym2612"
    },
    {
      "channel": 0,
      "note": 51,
      "start": 3.5306,
      "duration": 0.0435,
      "velocity": 112,
      "chip": "ym2612"
    },
    {
      "channel": 2,
      "note": 74,
      "start": 3.531,
      "duration": 0.0439,
      "velocity": 127,
      "chip": "ym2612"
    },
    {
      "channel": 4,
      "note": 79,
      "start": 3.5314,
      "duration": 0.01,
      "velocity": 125,
      "chip": "ym2612"
    },
    {
      "channel": 1,
      "note": 86,
      "start": 3.5337,
      "duration": 0.0409,
      "velocity": 108,
      "chip": "ym2612"
    },
    {
      "channel": 3,
      "note": 74,
      "start": 3.534,
      "duration": 0.0413,
      "velocity": 108,
      "chip": "ym2612"
    },
    {
      "channel": 4,
      "note": 79,
      "start": 3.5416,
      "duration": 0.0368,
      "velocity": 125,
      "chip": "ym2612"
    },
    {
      "channel": 0,
      "note": 52,
      "start": 3.5745,
      "duration": 0.0107,
      "velocity": 112,
      "chip": "ym2612"
    },
    {
      "channel": 1,
      "note": 95,
      "start": 3.5748,
      "duration": 0.0077,
      "velocity": 108,
      "chip": "ym2612"
    },
    {
      "channel": 2,
      "note": 62,
      "start": 3.5752,
      "duration": 0.0106,
      "velocity": 127,
      "chip": "ym2612"
    },
    {
      "channel": 3,
      "note": 78,
      "start": 3.5755,
      "duration": 0.0076,
      "velocity": 108,
      "chip": "ym2612"
    },
    {
      "channel": 4,
      "note": 78,
      "start": 3.5786,
      "duration": 0.0076,
      "velocity": 125,
      "chip": "ym2612"
    },
    {
      "channel": 1,
      "note": 85,
      "start": 3.5828,
      "duration": 0.0059,
      "velocity": 108,
      "chip": "ym2612"
    },
    {
      "channel": 3,
      "note": 73,
      "start": 3.5832,
      "duration": 0.006,
      "velocity": 108,
      "chip": "ym2612"
    },
    {
      "channel": 0,
      "note": 51,
      "start": 3.5856,
      "duration": 0.0103,
      "velocity": 112,
      "chip": "ym2612"
    },
    {
      "channel": 2,
      "note": 74,
      "start": 3.586,
      "duration": 0.0106,
      "velocity": 127,
      "chip": "ym2612"
    },
    {
      "channel": 4,
      "note": 78,
      "start": 3.5865,
      "duration": 0.0058,
      "velocity": 125,
      "chip": "ym2612"
    },
    {
      "channel": 1,
      "note": 94,
      "start": 3.589,
      "duration": 0.0073,
      "velocity": 108,
      "chip": "ym2612"
    },
    {
      "channel": 3,
      "note": 77,
      "start": 3.5894,
      "duration": 0.0075,
      "velocity": 108,
      "chip": "ym2612"
    },
    {
      "channel": 4,
      "note": 77,
      "start": 3.5925,
      "duration": 0.0073,
      "velocity": 125,
      "chip": "ym2612"
    },
    {
      "channel": 0,
      "note": 54,
      "start": 3.5961,
      "duration": 0.011,
      "velocity": 112,
      "chip": "ym2612"
    },
    {
      "channel": 1,
      "note": 84,
      "start": 3.5965,
      "duration": 0.0061,
      "velocity": 108,
      "chip": "ym2612"
    },
    {
      "channel": 2,
      "note": 62,
      "start": 3.5968,
      "duration": 0.0109,
      "velocity": 127,
      "chip": "ym2612"
    },
    {
      "channel": 3,
      "note": 72,
      "start": 3.5971,
      "duration": 0.0059,
      "velocity": 108,
      "chip": "ym2612"
    },
    {
      "channel": 4,
      "note": 77,
      "start": 3.6,
      "duration": 0.0079,
      "velocity": 125,
      "chip": "ym2612"
    },
    {
      "channel": 1,
      "note": 93,
      "start": 3.6027,
      "duration": 0.0102,
      "velocity": 108,
      "chip": "ym2612"
    },
    {
      "channel": 3,
      "note": 76,
      "start": 3.6031,
      "duration": 0.0101,
      "velocity": 108,
      "chip": "ym2612"
    },
    {
      "channel": 0,
      "note": 51,
      "start": 3.6075,
      "duration": 0.0113,
      "velocity": 112,
      "chip": "ym2612"
    },
    {
      "channel": 4,
      "note": 76,
      "start": 3.608,
      "duration": 0.008,
      "velocity": 125,
      "chip": "ym2612"
    },
    {
      "channel": 1,
      "note": 83,
      "start": 3.6131,
      "duration": 0.0071,
      "velocity": 108,
      "chip": "ym2612"
    },
    {
      "channel": 3,
      "note": 71,
      "start": 3.6134,
      "duration": 0.0083,
      "velocity": 108,
      "chip": "ym2612"
    },
    {
      "channel": 4,
      "note": 76,
      "start": 3.6163,
      "duration": 0.0097,
      "velocity": 125,
      "chip": "ym2612"
    },
    {
      "channel": 0,
      "note": 51,
      "start": 3.6191,
      "duration": 0.0453,
      "velocity": 112,
      "chip": "ym2612"
    },
    {
      "channel": 1,
      "note": 87,
      "start": 3.6203,
      "duration": 0.0445,
      "velocity": 108,
      "chip": "ym2612"
    },
    {
      "channel": 2,
      "note": 75,
      "start": 3.6206,
      "duration": 0.0445,
      "velocity": 127,
      "chip": "ym2612"
    },
    {
      "channel": 3,
      "note": 82,
      "start": 3.6218,
      "duration": 0.0436,
      "velocity": 108,
      "chip": "ym2612"
    },
    {
      "channel": 4,
      "note": 82,
      "start": 3.6261,
      "duration": 0.089,
      "velocity": 125,
      "chip": "ym2612"
    },
    {
      "channel": 0,
      "note": 51,
      "start": 3.6647,
      "duration": 0.1163,
      "velocity": 112,
      "chip": "ym2612"
    },
    {
      "channel": 1,
      "note": 87,
      "start": 3.665,
      "duration": 0.1164,
      "velocity": 108,
      "chip": "ym2612"
    },
    {
      "channel": 2,
      "note": 75,
      "start": 3.6654,
      "duration": 0.1164,
      "velocity": 127,
      "chip": "ym2612"
    },
    {
      "channel": 3,
      "note": 82,
      "start": 3.6657,
      "duration": 0.1164,
      "velocity": 108,
      "chip": "ym2612"
    },
    {
      "channel": 4,
      "note": 82,
      "start": 3.7153,
      "duration": 0.0998,
      "velocity": 125,
      "chip": "ym2612"
    },
    {
      "channel": 0,
      "note": 52,
      "start": 3.7814,
      "duration": 0.1164,
      "velocity": 112,
      "chip": "ym2612"
    },
    {
      "channel": 1,
      "note": 87,
      "start": 3.7817,
      "duration": 0.1165,
      "velocity": 108,
      "chip": "ym2612"
    },
    {
      "channel": 2,
      "note": 63,
      "start": 3.782,
      "duration": 0.1164,
      "velocity": 127,
      "chip": "ym2612"
    },
    {
      "channel": 3,
      "note": 82,
      "start": 3.7823,
      "duration": 0.1164,
      "velocity": 108,
      "chip": "ym2612"
    },
    {
      "channel": 4,
      "note": 82,
      "start": 3.8153,
      "duration": 0.0858,
      "velocity": 125,
      "chip": "ym2612"
    },
    {
      "channel": 0,
      "note": 51,
      "start": 3.8981,
      "duration": 0.0451,
      "velocity": 112,
      "chip": "ym2612"
    },
    {
      "channel": 1,
      "note": 87,
      "start": 3.8983,
      "duration": 0.0453,
      "velocity": 108,
      "chip": "ym2612"
    },
    {
      "channel": 2,
      "note": 75,
      "start": 3.8986,
      "duration": 0.0451,
      "velocity": 127,
      "chip": "ym2612"
    },
    {
      "channel": 3,
      "note": 82,
      "start": 3.8989,
      "duration": 0.0452,
      "velocity": 108,
      "chip": "ym2612"
    },
    {
      "channel": 4,
      "note": 82,
      "start": 3.9012,
      "duration": 0.0451,
      "velocity": 125,
      "chip": "ym2612"
    },
    {
      "channel": 0,
      "note": 53,
      "start": 3.9436,
      "duration": 0.0068,
      "velocity": 112,
      "chip": "ym2612"
    },
    {
      "channel": 2,
      "note": 63,
      "start": 3.944,
      "duration": 0.0068,
      "velocity": 127,
      "chip": "ym2612"
    },
    {
      "channel": 0,
      "note": 51,
      "start": 3.9506,
      "duration": 0.0052,
      "velocity": 112,
      "chip": "ym2612"
    },
    {
      "channel": 0,
      "note": 54,
      "start": 3.956,
      "duration": 0.0897,
      "velocity": 112,
      "chip": "ym2612"
    },
    {
      "channel": 1,
      "note": 87,
      "start": 3.9562,
      "duration": 0.0899,
      "velocity": 108,
      "chip": "ym2612"
    },
    {
      "channel": 2,
      "note": 75,
      "start": 3.9565,
      "duration": 0.0899,
      "velocity": 127,
      "chip": "ym2612"
    },
    {
      "channel": 3,
      "note": 82,
      "start": 3.9567,
      "duration": 0.09,
      "velocity": 108,
      "chip": "ym2612"
    },
    {
      "channel": 4,
      "note": 82,
      "start": 3.9799,
      "duration": 0.1164,
      "velocity": 125,
      "chip": "ym2612"
    },
    {
      "channel": 0,
      "note": 51,
      "start": 4.046,
      "duration": 0.1164,
      "velocity": 112,
      "chip": "ym2612"
    },
    {
      "channel": 1,
      "note": 87,
      "start": 4.0463,
      "duration": 0.1163,
      "velocity": 108,
      "chip": "ym2612"
    },
    {
      "channel": 2,
      "note": 75,
      "start": 4.0467,
      "duration": 0.116,
      "velocity": 127,
      "chip": "ym2612"
    },
    {
      "channel": 3,
      "note": 82,
      "start": 4.047,
      "duration": 0.1161,
      "velocity": 108,
      "chip": "ym2612"
    },
    {
      "channel": 4,
      "note": 82,
      "start": 4.0966,
      "duration": 0.069,
      "velocity": 125,
      "chip": "ym2612"
    },
    {
      "channel": 2,
      "note": 63,
      "start": 4.163,
      "duration": 0.0426,
      "velocity": 127,
      "chip": "ym2612"
    },
    {
      "channel": 0,
      "note": 51,
      "start": 4.2052,
      "duration": 0.0454,
      "velocity": 112,
      "chip": "ym2612"
    },
    {
      "channel": 1,
      "note": 87,
      "start": 4.2055,
      "duration": 0.0452,
      "velocity": 108,
      "chip": "ym2612"
    },
    {
      "channel": 2,
      "note": 75,
      "start": 4.2058,
      "duration": 0.0451,
      "velocity": 127,
      "chip": "ym2612"
    },
    {
      "channel": 3,
      "note": 82,
      "start": 4.206,
      "duration": 0.0453,
      "velocity": 108,
      "chip": "ym2612"
    },
    {
      "channel": 4,
      "note": 82,
      "start": 4.2083,
      "duration": 0.0759,
      "velocity": 125,
      "chip": "ym2612"
    },
    {
      "channel": 2,
      "note": 63,
      "start": 4.2512,
      "duration": 0.1166,
      "velocity": 127,
      "chip": "ym2612"
    },
    {
      "channel": 0,
      "note": 51,
      "start": 4.3676,
      "duration": 0.0449,
      "velocity": 112,
      "chip": "ym2612"
    },
    {
      "channel": 1,
      "note": 87,
      "start": 4.3677,
      "duration": 0.0821,
      "velocity": 108,
      "chip": "ym2612"
    },
    {
      "channel": 3,
      "note": 82,
      "start": 4.368,
      "duration": 0.0825,
      "velocity": 108,
      "chip": "ym2612"
    },
    {
      "channel": 4,
      "note": 82,
      "start": 4.3701,
      "duration": 0.1299,
      "velocity": 125,
      "chip": "ym2612"
    },
    {
      "channel": 0,
      "note": 52,
      "start": 4.4127,
      "duration": 0.0082,
      "velocity": 112,
      "chip": "ym2612"
    },
    {
      "channel": 2,
      "note": 75,
      "start": 4.4131,
      "duration": 0.0084,
      "velocity": 127,
      "chip": "ym2612"
    },
    {
      "channel": 0,
      "note": 51,
      "start": 4.4213,
      "duration": 0.0281,
      "velocity": 112,
      "chip": "ym2612"
    },
    {
      "channel": 2,
      "note": 75,
      "start": 4.4218,
      "duration": 0.0283,
      "velocity": 127,
      "chip": "ym2612"
    },
    {
      "channel": 0,
      "note": 54,
      "start": 4.4497,
      "duration": 0.1163,
      "velocity": 112,
      "chip": "ym2612"
    },
    {
      "channel": 1,
      "note": 87,
      "start": 4.45,
      "duration": 0.1164,
      "velocity": 108,
      "chip": "ym2612"
    },
    {
      "channel": 2,
      "note": 63,
      "start": 4.4504,
      "duration": 0.1163,
      "velocity": 127,
      "chip": "ym2612"
    },
    {
      "channel": 3,
      "note": 82,
      "start": 4.4507,
      "duration": 0.1164,
      "velocity": 108,
      "chip": "ym2612"
    },
    {
      "channel": 4,
      "note": 82,
      "start": 4.5003,
      "duration": 0.1164,
      "velocity": 125,
      "chip": "ym2612"
    },
    {
      "channel": 0,
      "note": 51,
      "start": 4.5664,
      "duration": 0.1165,
      "velocity": 112,
      "chip": "ym2612"
    },
    {
      "channel": 1,
      "note": 87,
      "start": 4.5667,
      "duration": 0.1166,
      "velocity": 108,
      "chip": "ym2612"
    },
    {
      "channel": 2,
      "note": 75,
      "start": 4.567,
      "duration": 0.1163,
      "velocity": 127,
      "chip": "ym2612"
    },
    {
      "channel": 3,
      "note": 82,
      "start": 4.5673,
      "duration": 0.1163,
      "velocity": 108,
      "chip": "ym2612"
    },
    {
      "channel": 4,
      "note": 82,
      "start": 4.617,
      "duration": 0.0687,
      "velocity": 125,
      "chip": "ym2612"
    },
    {
      "channel": 0,
      "note": 51,
      "start": 4.6832,
      "duration": 0.0448,
      "velocity": 112,
      "chip": "ym2612"
    },
    {
      "channel": 2,
      "note": 63,
      "start": 4.6836,
      "duration": 0.0451,
      "velocity": 127,
      "chip": "ym2612"
    },
    {
      "channel": 0,
      "note": 51,
      "start": 4.7283,
      "duration": 0.1163,
      "velocity": 112,
      "chip": "ym2612"
    },
    {
      "channel": 1,
      "note": 87,
      "start": 4.7287,
      "duration": 0.1164,
      "velocity": 108,
      "chip": "ym2612"
    },
    {
      "channel": 3,
      "note": 82,
      "start": 4.7291,
      "duration": 0.1165,
      "velocity": 108,
      "chip": "ym2612"
    },
    {
      "channel": 4,
      "note": 82,
      "start": 4.7621,
      "duration": 0.1163,
      "velocity": 125,
      "chip": "ym2612"
    },
    {
      "channel": 0,
      "note": 52,
      "start": 4.845,
      "duration": 0.1164,
      "velocity": 112,
      "chip": "ym2612"
    },
    {
      "channel": 2,
      "note": 75,
      "start": 4.8455,
      "duration": 0.1165,
      "velocity": 127,
      "chip": "ym2612"
    },
    {
      "channel": 0,
      "note": 51,
      "start": 4.9617,
      "duration": 0.0452,
      "velocity": 112,
      "chip": "ym2612"
    },
    {
      "channel": 1,
      "note": 87,
      "start": 4.962,
      "duration": 0.194,
      "velocity": 108,
      "chip": "ym2612"
    },
    {
      "channel": 2,
      "note": 75,
      "start": 4.9622,
      "duration": 0.0453,
      "velocity": 127,
      "chip": "ym2612"
    },
    {
      "channel": 3,
      "note": 82,
      "start": 4.9624,
      "duration": 0.1944,
      "velocity": 108,
      "chip": "ym2612"
    },
    {
      "channel": 4,
      "note": 82,
      "start": 4.9648,
      "duration": 0.2247,
      "velocity": 125,
      "chip": "ym2612"
    },
    {
      "channel": 0,
      "note": 53,
      "start": 5.0073,
      "duration": 0.007,
      "velocity": 112,
      "chip": "ym2612"
    },
    {
      "channel": 2,
      "note": 63,
      "start": 5.0077,
      "duration": 0.007,
      "velocity": 127,
      "chip": "ym2612"
    },
    {
      "channel": 0,
      "note": 51,
      "start": 5.0146,
      "duration": 0.0075,
      "velocity": 112,
      "chip": "ym2612"
    },
    {
      "channel": 2,
      "note": 75,
      "start": 5.015,
      "duration": 0.0075,
      "velocity": 127,
      "chip": "ym2612"
    },
    {
      "channel": 0,
      "note": 54,
      "start": 5.0223,
      "duration": 0.0881,
      "velocity": 112,
      "chip": "ym2612"
    },
    {
      "channel": 2,
      "note": 63,
      "start": 5.0227,
      "duration": 0.0882,
      "velocity": 127,
      "chip": "ym2612"
    },
    {
      "channel": 0,
      "note": 51,
      "start": 5.1106,
      "duration": 0.0451,
      "velocity": 112,
      "chip": "ym2612"
    },
    {
      "channel": 1,
      "note": 75,
      "start": 5.1562,
      "duration": 0.0829,
      "velocity": 108,
      "chip": "ym2612"
    },
    {
      "channel": 2,
      "note": 75,
      "start": 5.1566,
      "duration": 0.1163,
      "velocity": 127,
      "chip": "ym2612"
    },
    {
      "channel": 3,
      "note": 63,
      "start": 5.1571,
      "duration": 0.0824,
      "velocity": 108,
      "chip": "ym2612"
    },
    {
      "channel": 4,
      "note": 68,
      "start": 5.1897,
      "duration": 0.0835,
      "velocity": 125,
      "chip": "ym2612"
    },
    {
      "channel": 1,
      "note": 87,
      "start": 5.2393,
      "duration": 0.0356,
      "velocity": 108,
      "chip": "ym2612"
    },
    {
      "channel": 3,
      "note": 70,
      "start": 5.2398,
      "duration": 0.0355,
      "velocity": 108,
      "chip": "ym2612"
    },
    {
      "channel": 0,
      "note": 51,
      "start": 5.2727,
      "duration": 0.0451,
      "velocity": 112,
      "chip": "ym2612"
    },
    {
      "channel": 2,
      "note": 75,
      "start": 5.2731,
      "duration": 0.0451,
      "velocity": 127,
      "chip": "ym2612"
    },
    {
      "channel": 4,
      "note": 70,
      "start": 5.2733,
      "duration": 0.0044,
      "velocity": 125,
      "chip": "ym2612"
    },
    {
      "channel": 1,
      "note": 76,
      "start": 5.2751,
      "duration": 0.0428,
      "velocity": 108,
      "chip": "ym2612"
    },
    {
      "channel": 3,
      "note": 64,
      "start": 5.2754,
      "duration": 0.043,
      "velocity": 108,
      "chip": "ym2612"
    },
    {
      "channel": 4,
      "note": 69,
      "start": 5.2779,
      "duration": 0.0427,
      "velocity": 125,
      "chip": "ym2612"
    },
    {
      "channel": 1,
      "note": 88,
      "start": 5.3181,
      "duration": 0.0042,
      "velocity": 108,
      "chip": "ym2612"
    },
    {
      "channel": 2,
      "note": 63,
      "start": 5.3184,
      "duration": 0.0456,
      "velocity": 127,
      "chip": "ym2612"
    },
    {
      "channel": 3,
      "note": 71,
      "start": 5.3186,
      "duration": 0.004,
      "velocity": 108,
      "chip": "ym2612"
    },
    {
      "channel": 4,
      "note": 83,
      "start": 5.3207,
      "duration": 0.0436,
      "velocity": 125,
      "chip": "ym2612"
    },
    {
      "channel": 1,
      "note": 77,
      "start": 5.3225,
      "duration": 0.0441,
      "velocity": 108,
      "chip": "ym2612"
    },
    {
      "channel": 3,
      "note": 65,
      "start": 5.3228,
      "duration": 0.0443,
      "velocity": 108,
      "chip": "ym2612"
    },
    {
      "channel": 0,
      "note": 51,
      "start": 5.3637,
      "duration": 0.0084,
      "velocity": 112,
      "chip": "ym2612"
    },
    {
      "channel": 2,
      "note": 75,
      "start": 5.3641,
      "duration": 0.0086,
      "velocity": 127,
      "chip": "ym2612"
    },
    {
      "channel": 4,
      "note": 70,
      "start": 5.3645,
      "duration": 0.0055,
      "velocity": 125,
      "chip": "ym2612"
    },
    {
      "channel": 1,
      "note": 89,
      "start": 5.3668,
      "duration": 0.0056,
      "velocity": 108,
      "chip": "ym2612"
    },
    {
      "channel": 3,
      "note": 72,
      "start": 5.3673,
      "duration": 0.0057,
      "velocity": 108,
      "chip": "ym2612"
    },
    {
      "channel": 4,
      "note": 84,
      "start": 5.3702,
      "duration": 0.0064,
      "velocity": 125,
      "chip": "ym2612"
    },
    {
      "channel": 0,
      "note": 52,
      "start": 5.3724,
      "duration": 0.0087,
      "velocity": 112,
      "chip": "ym2612"
    },
    {
      "channel": 1,
      "note": 78,
      "start": 5.3726,
      "duration": 0.0062,
      "velocity": 108,
      "chip": "ym2612"
    },
    {
      "channel": 2,
      "note": 63,
      "start": 5.3729,
      "duration": 0.0086,
      "velocity": 127,
      "chip": "ym2612"
    },
    {
      "channel": 3,
      "note": 66,
      "start": 5.3732,
      "duration": 0.0059,
      "velocity": 108,
      "chip": "ym2612"
    },
    {
      "channel": 4,
      "note": 71,
      "start": 5.3768,
      "duration": 0.005,
      "velocity": 125,
      "chip": "ym2612"
    },
    {
      "channel": 1,
      "note": 90,
      "start": 5.379,
      "duration": 0.0056,
      "velocity": 108,
      "chip": "ym2612"
    },
    {
      "channel": 3,
      "note": 73,
      "start": 5.3793,
      "duration": 0.0056,
      "velocity": 108,
      "chip": "ym2612"
    },
    {
      "channel": 0,
      "note": 51,
      "start": 5.3814,
      "duration": 0.0081,
      "velocity": 112,
      "chip": "ym2612"
    },
    {
      "channel": 4,
      "note": 85,
      "start": 5.3819,
      "duration": 0.0052,
      "velocity": 125,
      "chip": "ym2612"
    },
    {
      "channel": 1,
      "note": 79,
      "start": 5.3848,
      "duration": 0.0051,
      "velocity": 108,
      "chip": "ym2612"
    },
    {
      "channel": 3,
      "note": 67,
      "start": 5.385,
      "duration": 0.0056,
      "velocity": 108,
      "chip": "ym2612"
    },
    {
      "channel": 4,
      "note": 72,
      "start": 5.3872,
      "duration": 0.0065,
      "velocity": 125,
      "chip": "ym2612"
    },
    {
      "channel": 0,
      "note": 54,
      "start": 5.3898,
      "duration": 0.0112,
      "velocity": 112,
      "chip": "ym2612"
    },
    {
      "channel": 1,
      "note": 91,
      "start": 5.3902,
      "duration": 0.0076,
      "velocity": 108,
      "chip": "ym2612"
    },
    {
      "channel": 2,
      "note": 75,
      "start": 5.3905,
      "duration": 0.0109,
      "velocity": 127,
      "chip": "ym2612"
    },
    {
      "channel": 3,
      "note": 74,
      "start": 5.3907,
      "duration": 0.0074,
      "velocity": 108,
      "chip": "ym2612"
    },
    {
      "channel": 4,
      "note": 86,
      "start": 5.3939,
      "duration": 0.008,
      "velocity": 125,
      "chip": "ym2612"
    },
    {
      "channel": 1,
      "note": 80,
      "start": 5.398,
      "duration": 0.0059,
      "velocity": 108,
      "chip": "ym2612"
    },
    {
      "channel": 3,
      "note": 68,
      "start": 5.3984,
      "duration": 0.0058,
      "velocity": 108,
      "chip": "ym2612"
    },
    {
      "channel": 0,
      "note": 51,
      "start": 5.4013,
      "duration": 0.0449,
      "velocity": 112,
      "chip": "ym2612"
    },
    {
      "channel": 2,
      "note": 75,
      "start": 5.4017,
      "duration": 0.0451,
      "velocity": 127,
      "chip": "ym2612"
    },
    {
      "channel": 4,
      "note": 73,
      "start": 5.402,
      "duration": 0.0113,
      "velocity": 125,
      "chip": "ym2612"
    },
    {
      "channel": 1,
      "note": 92,
      "start": 5.4041,
      "duration": 0.0426,
      "velocity": 108,
      "chip": "ym2612"
    },
    {
      "channel": 3,
      "note": 75,
      "start": 5.4044,
      "duration": 0.0427,
      "velocity": 108,
      "chip": "ym2612"
    },
    {
      "channel": 4,
      "note": 87,
      "start": 5.4136,
      "duration": 0.0353,
      "velocity": 125,
      "chip": "ym2612"
    },
    {
      "channel": 0,
      "note": 51,
      "start": 5.4465,
      "duration": 0.0449,
      "velocity": 112,
      "chip": "ym2612"
    },
    {
      "channel": 0,
      "note": 51,
      "start": 5.4917,
      "duration": 0.1163,
      "velocity": 112,
      "chip": "ym2612"
    },
    {
      "channel": 1,
      "note": 86,
      "start": 5.492,
      "duration": 0.1164,
      "velocity": 108,
      "chip": "ym2612"
    },
    {
      "channel": 3,
      "note": 81,
      "start": 5.4924,
      "duration": 0.1166,
      "velocity": 108,
      "chip": "ym2612"
    },
    {
      "channel": 4,
      "note": 81,
      "start": 5.5255,
      "duration": 0.1165,
      "velocity": 125,
      "chip": "ym2612"
    },
    {
      "channel": 0,
      "note": 52,
      "start": 5.6083,
      "duration": 0.0998,
      "velocity": 112,
      "chip": "ym2612"
    },
    {
      "channel": 1,
      "note": 86,
      "start": 5.6087,
      "duration": 0.0998,
      "velocity": 108,
      "chip": "ym2612"
    },
    {
      "channel": 2,
      "note": 74,
      "start": 5.609,
      "duration": 0.0996,
      "velocity": 127,
      "chip": "ym2612"
    },
    {
      "channel": 3,
      "note": 81,
      "start": 5.6093,
      "duration": 0.0996,
      "velocity": 108,
      "chip": "ym2612"
    },
    {
      "channel": 4,
      "note": 81,
      "start": 5.6422,
      "duration": 0.0693,
      "velocity": 125,
      "chip": "ym2612"
    },
    {
      "channel": 0,
      "note": 51,
      "start": 5.7084,
      "duration": 0.0447,
      "velocity": 112,
      "chip": "ym2612"
    },
    {
      "channel": 2,
      "note": 74,
      "start": 5.7088,
      "duration": 0.0449,
      "velocity": 127,
      "chip": "ym2612"
    },
    {
      "channel": 0,
      "note": 53,
      "start": 5.7534,
      "duration": 0.0082,
      "velocity": 112,
      "chip": "ym2612"
    },
    {
      "channel": 1,
      "note": 86,
      "start": 5.7536,
      "duration": 0.0083,
      "velocity": 108,
      "chip": "ym2612"
    },
    {
      "channel": 2,
      "note": 62,
      "start": 5.7539,
      "duration": 0.008,
      "velocity": 127,
      "chip": "ym2612"
    },
    {
      "channel": 3,
      "note": 81,
      "start": 5.7541,
      "duration": 0.0082,
      "velocity": 108,
      "chip": "ym2612"
    },
    {
      "channel": 4,
      "note": 81,
      "start": 5.7576,
      "duration": 0.0066,
      "velocity": 125,
      "chip": "ym2612"
    },
    {
      "channel": 0,
      "note": 51,
      "start": 5.7618,
      "duration": 0.0063,
      "velocity": 112,
      "chip": "ym2612"
    },
    {
      "channel": 2,
      "note": 62,
      "start": 5.7622,
      "duration": 0.0062,
      "velocity": 127,
      "chip": "ym2612"
    },
    {
      "channel": 0,
      "note": 54,
      "start": 5.7683,
      "duration": 0.1046,
      "velocity": 112,
      "chip": "ym2612"
    },
    {
      "channel": 2,
      "note": 74,
      "start": 5.7686,
      "duration": 0.105,
      "velocity": 127,
      "chip": "ym2612"
    },
    {
      "channel": 0,
      "note": 51,
      "start": 5.8732,
      "duration": 0.1164,
      "velocity": 112,
      "chip": "ym2612"
    },
    {
      "channel": 1,
      "note": 86,
      "start": 5.8736,
      "duration": 0.2331,
      "velocity": 108,
      "chip": "ym2612"
    },
    {
      "channel": 3,
      "note": 81,
      "start": 5.874,
      "duration": 0.2331,
      "velocity": 108,
      "chip": "ym2612"
    },
    {
      "channel": 4,
      "note": 81,
      "start": 5.907,
      "duration": 0.2024,
      "velocity": 125,
      "chip": "ym2612"
    },
    {
      "channel": 2,
      "note": 74,
      "start": 5.9902,
      "duration": 0.1166,
      "velocity": 127,
      "chip": "ym2612"
    },
    {
      "channel": 0,
      "note": 51,
      "start": 6.1066,
      "duration": 0.0283,
      "velocity": 112,
      "chip": "ym2612"
    },
    {
      "channel": 1,
      "note": 86,
      "start": 6.1068,
      "duration": 0.1372,
      "velocity": 108,
      "chip": "ym2612"
    },
    {
      "channel": 2,
      "note": 74,
      "start": 6.107,
      "duration": 0.0281,
      "velocity": 127,
      "chip": "ym2612"
    },
    {
      "channel": 3,
      "note": 81,
      "start": 6.1073,
      "duration": 0.1373,
      "velocity": 108,
      "chip": "ym2612"
    },
    {
      "channel": 4,
      "note": 81,
      "start": 6.1095,
      "duration": 0.168,
      "velocity": 125,
      "chip": "ym2612"
    },
    {
      "channel": 2,
      "note": 62,
      "start": 6.1354,
      "duration": 0.0102,
      "velocity": 127,
      "chip": "ym2612"
    },
    {
      "channel": 0,
      "note": 51,
      "start": 6.1454,
      "duration": 0.0449,
      "velocity": 112,
      "chip": "ym2612"
    },
    {
      "channel": 2,
      "note": 74,
      "start": 6.1458,
      "duration": 0.0449,
      "velocity": 127,
      "chip": "ym2612"
    },
    {
      "channel": 0,
      "note": 52,
      "start": 6.1905,
      "duration": 0.0081,
      "velocity": 112,
      "chip": "ym2612"
    },
    {
      "channel": 2,
      "note": 62,
      "start": 6.1909,
      "duration": 0.0083,
      "velocity": 127,
      "chip": "ym2612"
    },
    {
      "channel": 0,
      "note": 51,
      "start": 6.199,
      "duration": 0.0446,
      "velocity": 112,
      "chip": "ym2612"
    },
    {
      "channel": 0,
      "note": 54,
      "start": 6.2439,
      "duration": 0.1163,
      "velocity": 112,
      "chip": "ym2612"
    },
    {
      "channel": 1,
      "note": 86,
      "start": 6.2442,
      "duration": 0.1164,
      "velocity": 108,
      "chip": "ym2612"
    },
    {
      "channel": 2,
      "note": 74,
      "start": 6.2446,
      "duration": 0.1164,
      "velocity": 127,
      "chip": "ym2612"
    },
    {
      "channel": 3,
      "note": 81,
      "start": 6.2449,
      "duration": 0.1164,
      "velocity": 108,
      "chip": "ym2612"
    },
    {
      "channel": 4,
      "note": 81,
      "start": 6.2778,
      "duration": 0.1164,
      "velocity": 125,
      "chip": "ym2612"
    },
    {
      "channel": 0,
      "note": 51,
      "start": 6.3606,
      "duration": 0.1165,
      "velocity": 112,
      "chip": "ym2612"
    },
    {
      "channel": 1,
      "note": 86,
      "start": 6.3609,
      "duration": 0.1166,
      "velocity": 108,
      "chip": "ym2612"
    },
    {
      "channel": 2,
      "note": 74,
      "start": 6.3612,
      "duration": 0.1163,
      "velocity": 127,
      "chip": "ym2612"
    },
    {
      "channel": 3,
      "note": 81,
      "start": 6.3615,
      "duration": 0.1162,
      "velocity": 108,
      "chip": "ym2612"
    },
    {
      "channel": 4,
      "note": 81,
      "start": 6.3945,
      "duration": 0.0854,
      "velocity": 125,
      "chip": "ym2612"
    },
    {
      "channel": 0,
      "note": 51,
      "start": 6.4774,
      "duration": 0.0283,
      "velocity": 112,
      "chip": "ym2612"
    },
    {
      "channel": 2,
      "note": 62,
      "start": 6.4777,
      "duration": 0.0288,
      "velocity": 127,
      "chip": "ym2612"
    },
    {
      "channel": 0,
      "note": 51,
      "start": 6.5061,
      "duration": 0.1163,
      "velocity": 112,
      "chip": "ym2612"
    },
    {
      "channel": 1,
      "note": 86,
      "start": 6.5064,
      "duration": 0.1164,
      "velocity": 108,
      "chip": "ym2612"
    },
    {
      "channel": 2,
      "note": 74,
      "start": 6.5067,
      "duration": 0.1163,
      "velocity": 127,
      "chip": "ym2612"
    },
    {
      "channel": 3,
      "note": 81,
      "start": 6.507,
      "duration": 0.1163,
      "velocity": 108,
      "chip": "ym2612"
    },
    {
      "channel": 4,
      "note": 81,
      "start": 6.5566,
      "duration": 0.1163,
      "velocity": 125,
      "chip": "ym2612"
    },
    {
      "channel": 0,
      "note": 52,
      "start": 6.6227,
      "duration": 0.1164,
      "velocity": 112,
      "chip": "ym2612"
    },
    {
      "channel": 2,
      "note": 62,
      "start": 6.6233,
      "duration": 0.1165,
      "velocity": 127,
      "chip": "ym2612"
    },
    {
      "channel": 0,
      "note": 51,
      "start": 6.7395,
      "duration": 0.0449,
      "velocity": 112,
      "chip": "ym2612"
    },
    {
      "channel": 1,
      "note": 86,
      "start": 6.7397,
      "duration": 0.1936,
      "velocity": 108,
      "chip": "ym2612"
    },
    {
      "channel": 3,
      "note": 81,
      "start": 6.74,
      "duration": 0.1941,
      "velocity": 108,
      "chip": "ym2612"
    },
    {
      "channel": 4,
      "note": 81,
      "start": 6.7422,
      "duration": 0.2411,
      "velocity": 125,
      "chip": "ym2612"
    },
    {
      "channel": 0,
      "note": 53,
      "start": 6.7847,
      "duration": 0.008,
      "velocity": 112,
      "chip": "ym2612"
    },
    {
      "channel": 2,
      "note": 74,
      "start": 6.7851,
      "duration": 0.008,
      "velocity": 127,
      "chip": "ym2612"
    },
    {
      "channel": 0,
      "note": 51,
      "start": 6.7929,
      "duration": 0.0075,
      "velocity": 112,
      "chip": "ym2612"
    },
    {
      "channel": 2,
      "note": 74,
      "start": 6.7933,
      "duration": 0.0074,
      "velocity": 127,
      "chip": "ym2612"
    },
    {
      "channel": 0,
      "note": 54,
      "start": 6.8006,
      "duration": 0.1036,
      "velocity": 112,
      "chip": "ym2612"
    },
    {
      "channel": 2,
      "note": 62,
      "start": 6.8009,
      "duration": 0.1038,
      "velocity": 127,
      "chip": "ym2612"
    },
    {
      "channel": 0,
      "note": 51,
      "start": 6.9045,
      "duration": 0.0283,
      "velocity": 112,
      "chip": "ym2612"
    },
    {
      "channel": 2,
      "note": 74,
      "start": 6.9049,
      "duration": 0.0286,
      "velocity": 127,
      "chip": "ym2612"
    },
    {
      "channel": 1,
      "note": 98,
      "start": 6.9335,
      "duration": 0.0827,
      "velocity": 108,
      "chip": "ym2612"
    },
    {
      "channel": 2,
      "note": 62,
      "start": 6.9339,
      "duration": 0.1161,
      "velocity": 127,
      "chip": "ym2612"
    },
    {
      "channel": 3,
      "note": 81,
      "start": 6.9344,
      "duration": 0.0823,
      "velocity": 108,
      "chip": "ym2612"
    },
    {
      "channel": 4,
      "note": 81,
      "start": 6.9836,
      "duration": 0.0665,
      "velocity": 125,
      "chip": "ym2612"
    },
    {
      "channel": 1,
      "note": 88,
      "start": 7.0164,
      "duration": 0.0366,
      "velocity": 108,
      "chip": "ym2612"
    },
    {
      "channel": 3,
      "note": 76,
      "start": 7.0169,
      "duration": 0.0364,
      "velocity": 108,
      "chip": "ym2612"
    },
    {
      "channel": 0,
      "note": 51,
      "start": 7.0498,
      "duration": 0.0451,
      "velocity": 112,
      "chip": "ym2612"
    },
    {
      "channel": 4,
      "note": 81,
      "start": 7.0502,
      "duration": 0.0118,
      "velocity": 125,
      "chip": "ym2612"
    },
    {
      "channel": 1,
      "note": 97,
      "start": 7.0532,
      "duration": 0.0418,
      "velocity": 108,
      "chip": "ym2612"
    },
    {
      "channel": 3,
      "note": 80,
      "start": 7.0534,
      "duration": 0.0421,
      "velocity": 108,
      "chip": "ym2612"
    },
    {
      "channel": 4,
      "note": 80,
      "start": 7.0623,
      "duration": 0.0355,
      "velocity": 125,
      "chip": "ym2612"
    },
    {
      "channel": 1,
      "note": 87,
      "start": 7.0953,
      "duration": 0.0118,
      "velocity": 108,
      "chip": "ym2612"
    },
    {
      "channel": 2,
      "note": 74,
      "start": 7.0955,
      "duration": 0.0454,
      "velocity": 127,
      "chip": "ym2612"
    },
    {
      "channel": 3,
      "note": 75,
      "start": 7.0957,
      "duration": 0.0118,
      "velocity": 108,
      "chip": "ym2612"
    },
    {
      "channel": 4,
      "note": 80,
      "start": 7.098,
      "duration": 0.0434,
      "velocity": 125,
      "chip": "ym2612"
    },
    {
      "channel": 1,
      "note": 96,
      "start": 7.1073,
      "duration": 0.0362,
      "velocity": 108,
      "chip": "ym2612"
    },
    {
      "channel": 3,
      "note": 79,
      "start": 7.1078,
      "duration": 0.036,
      "velocity": 108,
      "chip": "ym2612"
    },
    {
      "channel": 0,
      "note": 51,
      "start": 7.1408,
      "duration": 0.043,
      "velocity": 112,
      "chip": "ym2612"
    },
    {
      "channel": 2,
      "note": 74,
      "start": 7.1412,
      "duration": 0.0434,
      "velocity": 127,
      "chip": "ym2612"
    },
    {
      "channel": 4,
      "note": 79,
      "start": 7.1415,
      "duration": 0.0095,
      "velocity": 125,
      "chip": "ym2612"
    },
    {
      "channel": 1,
      "note": 86,
      "start": 7.1437,
      "duration": 0.0405,
      "velocity": 108,
      "chip": "ym2612"
    },
    {
      "channel": 3,
      "note": 74,
      "start": 7.144,
      "duration": 0.0409,
      "velocity": 108,
      "chip": "ym2612"
    },
    {
      "channel": 4,
      "note": 79,
      "start": 7.1513,
      "duration": 0.0368,
      "velocity": 125,
      "chip": "ym2612"
    },
    {
      "channel": 0,
      "note": 52,
      "start": 7.1842,
      "duration": 0.0107,
      "velocity": 112,
      "chip": "ym2612"
    },
    {
      "channel": 1,
      "note": 95,
      "start": 7.1845,
      "duration": 0.0064,
      "velocity": 108,
      "chip": "ym2612"
    },
    {
      "channel": 2,
      "note": 62,
      "start": 7.1849,
      "duration": 0.0106,
      "velocity": 127,
      "chip": "ym2612"
    },
    {
      "channel": 3,
      "note": 78,
      "start": 7.1852,
      "duration": 0.0061,
      "velocity": 108,
      "chip": "ym2612"
    },
    {
      "channel": 4,
      "note": 78,
      "start": 7.1883,
      "duration": 0.0076,
      "velocity": 125,
      "chip": "ym2612"
    },
    {
      "channel": 1,
      "note": 85,
      "start": 7.1911,
      "duration": 0.0093,
      "velocity": 108,
      "chip": "ym2612"
    },
    {
      "channel": 3,
      "note": 73,
      "start": 7.1914,
      "duration": 0.0094,
      "velocity": 108,
      "chip": "ym2612"
    },
    {
      "channel": 0,
      "note": 51,
      "start": 7.1953,
      "duration": 0.0122,
      "velocity": 112,
      "chip": "ym2612"
    },
    {
      "channel": 2,
      "note": 74,
      "start": 7.1957,
      "duration": 0.0125,
      "velocity": 127,
      "chip": "ym2612"
    },
    {
      "channel": 4,
      "note": 78,
      "start": 7.1961,
      "duration": 0.0078,
      "velocity": 125,
      "chip": "ym2612"
    },
    {
      "channel": 1,
      "note": 94,
      "start": 7.2006,
      "duration": 0.0073,
      "velocity": 108,
      "chip": "ym2612"
    },
    {
      "channel": 3,
      "note": 77,
      "start": 7.201,
      "duration": 0.0075,
      "velocity": 108,
      "chip": "ym2612"
    },
    {
      "channel": 4,
      "note": 77,
      "start": 7.2041,
      "duration": 0.0072,
      "velocity": 125,
      "chip": "ym2612"
    },
    {
      "channel": 0,
      "note": 54,
      "start": 7.2078,
      "duration": 0.0095,
      "velocity": 112,
      "chip": "ym2612"
    },
    {
      "channel": 1,
      "note": 84,
      "start": 7.2081,
      "duration": 0.0059,
      "velocity": 108,
      "chip": "ym2612"
    },
    {
      "channel": 2,
      "note": 62,
      "start": 7.2084,
      "duration": 0.0093,
      "velocity": 127,
      "chip": "ym2612"
    },
    {
      "channel": 3,
      "note": 72,
      "start": 7.2087,
      "duration": 0.0058,
      "velocity": 108,
      "chip": "ym2612"
    },
    {
      "channel": 4,
      "note": 77,
      "start": 7.2115,
      "duration": 0.0063,
      "velocity": 125,
      "chip": "ym2612"
    },
    {
      "channel": 1,
      "note": 93,
      "start": 7.2142,
      "duration": 0.0101,
      "velocity": 108,
      "chip": "ym2612"
    },
    {
      "channel": 3,
      "note": 76,
      "start": 7.2147,
      "duration": 0.0099,
      "velocity": 108,
      "chip": "ym2612"
    },
    {
      "channel": 0,
      "note": 51,
      "start": 7.2176,
      "duration": 0.0126,
      "velocity": 112,
      "chip": "ym2612"
    },
    {
      "channel": 4,
      "note": 76,
      "start": 7.218,
      "duration": 0.0096,
      "velocity": 125,
      "chip": "ym2612"
    },
    {
      "channel": 1,
      "note": 83,
      "start": 7.2245,
      "duration": 0.007,
      "velocity": 114,
      "chip": "ym2612"
    },
    {
      "channel": 3,
      "note": 71,
      "start": 7.2248,
      "duration": 0.0091,
      "velocity": 113,
      "chip": "ym2612"
    },
    {
      "channel": 4,
      "note": 76,
      "start": 7.2279,
      "duration": 0.01,
      "velocity": 96,
      "chip": "ym2612"
    },
    {
      "channel": 0,
      "note": 51,
      "start": 7.2305,
      "duration": 0.2783,
      "velocity": 112,
      "chip": "ym2612"
    },
    {
      "channel": 1,
      "note": 63,
      "start": 7.2317,
      "duration": 0.3376,
      "velocity": 114,
      "chip": "ym2612"
    },
    {
      "channel": 2,
      "note": 75,
      "start": 7.2327,
      "duration": 0.043,
      "velocity": 113,
      "chip": "ym2612"
    },
    {
      "channel": 4,
      "note": 94,
      "start": 7.2381,
      "duration": 0.0711,
      "velocity": 96,
      "chip": "ym2612"
    },
    {
      "channel": 2,
      "note": 75,
      "start": 7.276,
      "duration": 0.1163,
      "velocity": 113,
      "chip": "ym2612"
    },
    {
      "channel": 4,
      "note": 94,
      "start": 7.3094,
      "duration": 0.1165,
      "velocity": 96,
      "chip": "ym2612"
    },
    {
      "channel": 3,
      "note": 75,
      "start": 7.3594,
      "duration": 0.1164,
      "velocity": 113,
      "chip": "ym2612"
    },
    {
      "channel": 2,
      "note": 78,
      "start": 7.3926,
      "duration": 0.1166,
      "velocity": 113,
      "chip": "ym2612"
    },
    {
      "channel": 4,
      "note": 94,
      "start": 7.4262,
      "duration": 0.0856,
      "velocity": 96,
      "chip": "ym2612"
    },
    {
      "channel": 3,
      "note": 75,
      "start": 7.476,
      "duration": 0.0377,
      "velocity": 113,
      "chip": "ym2612"
    },
    {
      "channel": 0,
      "note": 54,
      "start": 7.509,
      "duration": 0.06,
      "velocity": 112,
      "chip": "ym2612"
    },
    {
      "channel": 2,
      "note": 75,
      "start": 7.5095,
      "duration": 0.0449,
      "velocity": 113,
      "chip": "ym2612"
    },
    {
      "channel": 4,
      "note": 94,
      "start": 7.5119,
      "duration": 0.045,
      "velocity": 96,
      "chip": "ym2612"
    },
    {
      "channel": 3,
      "note": 78,
      "start": 7.514,
      "duration": 0.0453,
      "velocity": 113,
      "chip": "ym2612"
    },
    {
      "channel": 2,
      "note": 80,
      "start": 7.5545,
      "duration": 0.0078,
      "velocity": 113,
      "chip": "ym2612"
    },
    {
      "channel": 4,
      "note": 94,
      "start": 7.5571,
      "duration": 0.0078,
      "velocity": 96,
      "chip": "ym2612"
    },
    {
      "channel": 3,
      "note": 75,
      "start": 7.5594,
      "duration": 0.0076,
      "velocity": 113,
      "chip": "ym2612"
    },
    {
      "channel": 2,
      "note": 75,
      "start": 7.5626,
      "duration": 0.007,
      "velocity": 113,
      "chip": "ym2612"
    },
    {
      "channel": 4,
      "note": 94,
      "start": 7.5651,
      "duration": 0.0263,
      "velocity": 96,
      "chip": "ym2612"
    },
    {
      "channel": 3,
      "note": 80,
      "start": 7.5671,
      "duration": 0.0576,
      "velocity": 113,
      "chip": "ym2612"
    },
    {
      "channel": 0,
      "note": 58,
      "start": 7.5693,
      "duration": 0.3216,
      "velocity": 112,
      "chip": "ym2612"
    },
    {
      "channel": 1,
      "note": 70,
      "start": 7.5695,
      "duration": 1.2875,
      "velocity": 114,
      "chip": "ym2612"
    },
    {
      "channel": 3,
      "note": 75,
      "start": 7.6248,
      "duration": 0.1164,
      "velocity": 113,
      "chip": "ym2612"
    },
    {
      "channel": 0,
      "note": 63,
      "start": 7.8912,
      "duration": 0.2065,
      "velocity": 112,
      "chip": "ym2612"
    },
    {
      "channel": 2,
      "note": 75,
      "start": 7.8915,
      "duration": 0.0448,
      "velocity": 113,
      "chip": "ym2612"
    },
    {
      "channel": 4,
      "note": 94,
      "start": 7.8937,
      "duration": 0.076,
      "velocity": 96,
      "chip": "ym2612"
    },
    {
      "channel": 3,
      "note": 75,
      "start": 8.0031,
      "duration": 0.054,
      "velocity": 113,
      "chip": "ym2612"
    },
    {
      "channel": 2,
      "note": 75,
      "start": 8.0531,
      "duration": 0.045,
      "velocity": 113,
      "chip": "ym2612"
    },
    {
      "channel": 4,
      "note": 94,
      "start": 8.0552,
      "duration": 0.0453,
      "velocity": 96,
      "chip": "ym2612"
    },
    {
      "channel": 0,
      "note": 58,
      "start": 8.098,
      "duration": 0.0521,
      "velocity": 112,
      "chip": "ym2612"
    },
    {
      "channel": 2,
      "note": 78,
      "start": 8.0983,
      "duration": 0.0071,
      "velocity": 113,
      "chip": "ym2612"
    },
    {
      "channel": 4,
      "note": 94,
      "start": 8.1006,
      "duration": 0.0084,
      "velocity": 96,
      "chip": "ym2612"
    },
    {
      "channel": 3,
      "note": 75,
      "start": 8.1027,
      "duration": 0.0145,
      "velocity": 113,
      "chip": "ym2612"
    },
    {
      "channel": 2,
      "note": 75,
      "start": 8.1056,
      "duration": 0.045,
      "velocity": 113,
      "chip": "ym2612"
    },
    {
      "channel": 4,
      "note": 94,
      "start": 8.1092,
      "duration": 0.0916,
      "velocity": 96,
      "chip": "ym2612"
    },
    {
      "channel": 3,
      "note": 78,
      "start": 8.1174,
      "duration": 0.1165,
      "velocity": 113,
      "chip": "ym2612"
    },
    {
      "channel": 0,
      "note": 54,
      "start": 8.1504,
      "duration": 0.2331,
      "velocity": 112,
      "chip": "ym2612"
    },
    {
      "channel": 2,
      "note": 80,
      "start": 8.1509,
      "duration": 0.1162,
      "velocity": 113,
      "chip": "ym2612"
    },
    {
      "channel": 4,
      "note": 94,
      "start": 8.201,
      "duration": 0.0998,
      "velocity": 96,
      "chip": "ym2612"
    },
    {
      "channel": 3,
      "note": 75,
      "start": 8.2342,
      "duration": 0.1164,
      "velocity": 113,
      "chip": "ym2612"
    },
    {
      "channel": 2,
      "note": 75,
      "start": 8.2674,
      "duration": 0.1165,
      "velocity": 113,
      "chip": "ym2612"
    },
    {
      "channel": 4,
      "note": 94,
      "start": 8.3009,
      "duration": 0.0852,
      "velocity": 96,
      "chip": "ym2612"
    },
    {
      "channel": 3,
      "note": 80,
      "start": 8.3508,
      "duration": 0.0451,
      "velocity": 113,
      "chip": "ym2612"
    },
    {
      "channel": 0,
      "note": 51,
      "start": 8.3838,
      "duration": 0.2784,
      "velocity": 112,
      "chip": "ym2612"
    },
    {
      "channel": 3,
      "note": 75,
      "start": 8.3961,
      "duration": 0.0998,
      "velocity": 113,
      "chip": "ym2612"
    },
    {
      "channel": 2,
      "note": 75,
      "start": 8.4295,
      "duration": 0.1163,
      "velocity": 113,
      "chip": "ym2612"
    },
    {
      "channel": 4,
      "note": 94,
      "start": 8.4629,
      "duration": 0.1163,
      "velocity": 96,
      "chip": "ym2612"
    },
    {
      "channel": 3,
      "note": 75,
      "start": 8.6127,
      "duration": 0.0547,
      "velocity": 113,
      "chip": "ym2612"
    },
    {
      "channel": 0,
      "note": 54,
      "start": 8.6624,
      "duration": 0.0449,
      "velocity": 112,
      "chip": "ym2612"
    },
    {
      "channel": 2,
      "note": 75,
      "start": 8.6628,
      "duration": 0.0287,
      "velocity": 113,
      "chip": "ym2612"
    },
    {
      "channel": 4,
      "note": 94,
      "start": 8.6653,
      "duration": 0.0296,
      "velocity": 96,
      "chip": "ym2612"
    },
    {
      "channel": 2,
      "note": 78,
      "start": 8.6917,
      "duration": 0.0078,
      "velocity": 113,
      "chip": "ym2612"
    },
    {
      "channel": 4,
      "note": 94,
      "start": 8.6951,
      "duration": 0.0081,
      "velocity": 96,
      "chip": "ym2612"
    },
    {
      "channel": 3,
      "note": 75,
      "start": 8.6975,
      "duration": 0.0078,
      "velocity": 113,
      "chip": "ym2612"
    },
    {
      "channel": 2,
      "note": 75,
      "start": 8.6997,
      "duration": 0.008,
      "velocity": 113,
      "chip": "ym2612"
    },
    {
      "channel": 4,
      "note": 94,
      "start": 8.7033,
      "duration": 0.0255,
      "velocity": 96,
      "chip": "ym2612"
    },
    {
      "channel": 3,
      "note": 78,
      "start": 8.7053,
      "duration": 0.0734,
      "velocity": 113,
      "chip": "ym2612"
    },
    {
      "channel": 0,
      "note": 58,
      "start": 8.7075,
      "duration": 0.266,
      "velocity": 112,
      "chip": "ym2612"
    },
    {
      "channel": 2,
      "note": 80,
      "start": 8.7079,
      "duration": 0.104,
      "velocity": 113,
      "chip": "ym2612"
    },
    {
      "channel": 4,
      "note": 94,
      "start": 8.7291,
      "duration": 0.0852,
      "velocity": 96,
      "chip": "ym2612"
    },
    {
      "channel": 3,
      "note": 75,
      "start": 8.779,
      "duration": 0.0449,
      "velocity": 113,
      "chip": "ym2612"
    },
    {
      "channel": 2,
      "note": 75,
      "start": 8.8121,
      "duration": 0.0451,
      "velocity": 113,
      "chip": "ym2612"
    },
    {
      "channel": 4,
      "note": 94,
      "start": 8.8145,
      "duration": 0.0761,
      "velocity": 96,
      "chip": "ym2612"
    },
    {
      "channel": 3,
      "note": 80,
      "start": 8.8241,
      "duration": 0.0998,
      "velocity": 113,
      "chip": "ym2612"
    },
    {
      "channel": 1,
      "note": 70,
      "start": 8.8572,
      "duration": 0.3074,
      "velocity": 114,
      "chip": "ym2612"
    },
    {
      "channel": 2,
      "note": 81,
      "start": 8.8576,
      "duration": 0.1164,
      "velocity": 113,
      "chip": "ym2612"
    },
    {
      "channel": 4,
      "note": 94,
      "start": 8.8909,
      "duration": 0.0854,
      "velocity": 96,
      "chip": "ym2612"
    },
    {
      "channel": 3,
      "note": 75,
      "start": 8.9241,
      "duration": 0.0543,
      "velocity": 113,
      "chip": "ym2612"
    },
    {
      "channel": 0,
      "note": 63,
      "start": 8.9738,
      "duration": 0.1905,
      "velocity": 112,
      "chip": "ym2612"
    },
    {
      "channel": 2,
      "note": 75,
      "start": 8.9741,
      "duration": 0.0449,
      "velocity": 113,
      "chip": "ym2612"
    },
    {
      "channel": 4,
      "note": 94,
      "start": 8.9765,
      "duration": 0.045,
      "velocity": 96,
      "chip": "ym2612"
    },
    {
      "channel": 3,
      "note": 81,
      "start": 8.9787,
      "duration": 0.0451,
      "velocity": 113,
      "chip": "ym2612"
    },
    {
      "channel": 2,
      "note": 82,
      "start": 9.0193,
      "duration": 0.0285,
      "velocity": 113,
      "chip": "ym2612"
    },
    {
      "channel": 4,
      "note": 94,
      "start": 9.0217,
      "duration": 0.0764,
      "velocity": 96,
      "chip": "ym2612"
    },
    {
      "channel": 3,
      "note": 75,
      "start": 9.024,
      "duration": 0.1073,
      "velocity": 113,
      "chip": "ym2612"
    },
    {
      "channel": 2,
      "note": 75,
      "start": 9.0481,
      "duration": 0.1167,
      "velocity": 113,
      "chip": "ym2612"
    },
    {
      "channel": 4,
      "note": 94,
      "start": 9.0983,
      "duration": 0.0703,
      "velocity": 96,
      "chip": "ym2612"
    },
    {
      "channel": 3,
      "note": 82,
      "start": 9.1315,
      "duration": 0.0394,
      "velocity": 113,
      "chip": "ym2612"
    },
    {
      "channel": 0,
      "note": 58,
      "start": 9.1645,
      "duration": 0.0162,
      "velocity": 112,
      "chip": "ym2612"
    },
    {
      "channel": 1,
      "note": 71,
      "start": 9.1648,
      "duration": 0.0696,
      "velocity": 114,
      "chip": "ym2612"
    },
    {
      "channel": 2,
      "note": 81,
      "start": 9.165,
      "duration": 0.0084,
      "velocity": 113,
      "chip": "ym2612"
    },
    {
      "channel": 4,
      "note": 94,
      "start": 9.1688,
      "duration": 0.0072,
      "velocity": 96,
      "chip": "ym2612"
    },
    {
      "channel": 3,
      "note": 75,
      "start": 9.1711,
      "duration": 0.0078,
      "velocity": 113,
      "chip": "ym2612"
    },
    {
      "channel": 2,
      "note": 75,
      "start": 9.1737,
      "duration": 0.0074,
      "velocity": 113,
      "chip": "ym2612"
    },
    {
      "channel": 4,
      "note": 94,
      "start": 9.1761,
      "duration": 0.0076,
      "velocity": 96,
      "chip": "ym2612"
    },
    {
      "channel": 3,
      "note": 81,
      "start": 9.1791,
      "duration": 0.0079,
      "velocity": 113,
      "chip": "ym2612"
    },
    {
      "channel": 0,
      "note": 54,
      "start": 9.1809,
      "duration": 0.0531,
      "velocity": 112,
      "chip": "ym2612"
    },
    {
      "channel": 2,
      "note": 80,
      "start": 9.1814,
      "duration": 0.0079,
      "velocity": 113,
      "chip": "ym2612"
    },
    {
      "channel": 4,
      "note": 94,
      "start": 9.1839,
      "duration": 0.0078,
      "velocity": 96,
      "chip": "ym2612"
    },
    {
      "channel": 3,
      "note": 75,
      "start": 9.1871,
      "duration": 0.0065,
      "velocity": 113,
      "chip": "ym2612"
    },
    {
      "channel": 2,
      "note": 75,
      "start": 9.1895,
      "duration": 0.0452,
      "velocity": 113,
      "chip": "ym2612"
    },
    {
      "channel": 4,
      "note": 94,
      "start": 9.1918,
      "duration": 0.045,
      "velocity": 96,
      "chip": "ym2612"
    },
    {
      "channel": 3,
      "note": 80,
      "start": 9.1938,
      "duration": 0.045,
      "velocity": 113,
      "chip": "ym2612"
    },
    {
      "channel": 0,
      "note": 52,
      "start": 9.2344,
      "duration": 0.2617,
      "velocity": 112,
      "chip": "ym2612"
    },
    {
      "channel": 1,
      "note": 73,
      "start": 9.2345,
      "duration": 0.3225,
      "velocity": 114,
      "chip": "ym2612"
    },
    {
      "channel": 3,
      "note": 75,
      "start": 9.2389,
      "duration": 0.1075,
      "velocity": 113,
      "chip": "ym2612"
    },
    {
      "channel": 2,
      "note": 75,
      "start": 9.28,
      "duration": 0.0996,
      "velocity": 113,
      "chip": "ym2612"
    },
    {
      "channel": 4,
      "note": 95,
      "start": 9.3134,
      "duration": 0.1163,
      "velocity": 96,
      "chip": "ym2612"
    },
    {
      "channel": 2,
      "note": 75,
      "start": 9.3799,
      "duration": 0.1166,
      "velocity": 113,
      "chip": "ym2612"
    },
    {
      "channel": 4,
      "note": 95,
      "start": 9.43,
      "duration": 0.0702,
      "velocity": 96,
      "chip": "ym2612"
    },
    {
      "channel": 3,
      "note": 75,
      "start": 9.4633,
      "duration": 0.0452,
      "velocity": 113,
      "chip": "ym2612"
    },
    {
      "channel": 0,
      "note": 56,
      "start": 9.4963,
      "duration": 0.0605,
      "velocity": 112,
      "chip": "ym2612"
    },
    {
      "channel": 2,
      "note": 78,
      "start": 9.4968,
      "duration": 0.045,
      "velocity": 113,
      "chip": "ym2612"
    },
    {
      "channel": 4,
      "note": 95,
      "start": 9.5003,
      "duration": 0.044,
      "velocity": 96,
      "chip": "ym2612"
    },
    {
      "channel": 3,
      "note": 75,
      "start": 9.5088,
      "duration": 0.0383,
      "velocity": 113,
      "chip": "ym2612"
    },
    {
      "channel": 2,
      "note": 75,
      "start": 9.542,
      "duration": 0.0075,
      "velocity": 113,
      "chip": "ym2612"
    },
    {
      "channel": 4,
      "note": 95,
      "start": 9.5445,
      "duration": 0.0075,
      "velocity": 96,
      "chip": "ym2612"
    },
    {
      "channel": 3,
      "note": 78,
      "start": 9.5473,
      "duration": 0.0075,
      "velocity": 113,
      "chip": "ym2612"
    },
    {
      "channel": 2,
      "note": 80,
      "start": 9.5497,
      "duration": 0.0076,
      "velocity": 113,
      "chip": "ym2612"
    },
    {
      "channel": 4,
      "note": 95,
      "start": 9.5521,
      "duration": 0.0259,
      "velocity": 96,
      "chip": "ym2612"
    },
    {
      "channel": 3,
      "note": 75,
      "start": 9.555,
      "duration": 0.0563,
      "velocity": 113,
      "chip": "ym2612"
    },
    {
      "channel": 0,
      "note": 59,
      "start": 9.557,
      "duration": 0.3205,
      "velocity": 112,
      "chip": "ym2612"
    },
    {
      "channel": 1,
      "note": 68,
      "start": 9.5572,
      "duration": 1.2702,
      "velocity": 114,
      "chip": "ym2612"
    },
    {
      "channel": 2,
      "note": 75,
      "start": 9.5574,
      "duration": 0.1037,
      "velocity": 113,
      "chip": "ym2612"
    },
    {
      "channel": 4,
      "note": 95,
      "start": 9.5783,
      "duration": 0.1163,
      "velocity": 96,
      "chip": "ym2612"
    },
    {
      "channel": 3,
      "note": 80,
      "start": 9.6115,
      "duration": 0.1163,
      "velocity": 113,
      "chip": "ym2612"
    },
    {
      "channel": 3,
      "note": 75,
      "start": 9.7279,
      "duration": 0.1165,
      "velocity": 113,
      "chip": "ym2612"
    },
    {
      "channel": 0,
      "note": 64,
      "start": 9.8777,
      "duration": 0.206,
      "velocity": 112,
      "chip": "ym2612"
    },
    {
      "channel": 2,
      "note": 75,
      "start": 9.8781,
      "duration": 0.0445,
      "velocity": 113,
      "chip": "ym2612"
    },
    {
      "channel": 4,
      "note": 95,
      "start": 9.8808,
      "duration": 0.0918,
      "velocity": 96,
      "chip": "ym2612"
    },
    {
      "channel": 3,
      "note": 75,
      "start": 10.0061,
      "duration": 0.0447,
      "velocity": 113,
      "chip": "ym2612"
    },
    {
      "channel": 2,
      "note": 78,
      "start": 10.0394,
      "duration": 0.0448,
      "velocity": 113,
      "chip": "ym2612"
    },
    {
      "channel": 4,
      "note": 95,
      "start": 10.0415,
      "duration": 0.045,
      "velocity": 96,
      "chip": "ym2612"
    },
    {
      "channel": 0,
      "note": 59,
      "start": 10.0841,
      "duration": 0.0535,
      "velocity": 112,
      "chip": "ym2612"
    },
    {
      "channel": 2,
      "note": 75,
      "start": 10.0845,
      "duration": 0.0082,
      "velocity": 113,
      "chip": "ym2612"
    },
    {
      "channel": 4,
      "note": 95,
      "start": 10.0867,
      "duration": 0.0086,
      "velocity": 96,
      "chip": "ym2612"
    },
    {
      "channel": 3,
      "note": 78,
      "start": 10.0898,
      "duration": 0.0076,
      "velocity": 113,
      "chip": "ym2612"
    },
    {
      "channel": 2,
      "note": 80,
      "start": 10.0929,
      "duration": 0.0452,
      "velocity": 113,
      "chip": "ym2612"
    },
    {
      "channel": 4,
      "note": 95,
      "start": 10.0954,
      "duration": 0.0761,
      "velocity": 96,
      "chip": "ym2612"
    },
    {
      "channel": 3,
      "note": 75,
      "start": 10.0976,
      "duration": 0.1071,
      "velocity": 113,
      "chip": "ym2612"
    },
    {
      "channel": 0,
      "note": 56,
      "start": 10.1379,
      "duration": 0.2164,
      "velocity": 112,
      "chip": "ym2612"
    },
    {
      "channel": 2,
      "note": 75,
      "start": 10.1384,
      "duration": 0.1162,
      "velocity": 113,
      "chip": "ym2612"
    },
    {
      "channel": 4,
      "note": 95,
      "start": 10.1718,
      "duration": 0.1163,
      "velocity": 96,
      "chip": "ym2612"
    },
    {
      "channel": 3,
      "note": 80,
      "start": 10.205,
      "duration": 0.1163,
      "velocity": 113,
      "chip": "ym2612"
    },
    {
      "channel": 3,
      "note": 75,
      "start": 10.3215,
      "duration": 0.0454,
      "velocity": 113,
      "chip": "ym2612"
    },
    {
      "channel": 0,
      "note": 52,
      "start": 10.3546,
      "duration": 0.2786,
      "velocity": 112,
      "chip": "ym2612"
    },
    {
      "channel": 2,
      "note": 75,
      "start": 10.4005,
      "duration": 0.1163,
      "velocity": 113,
      "chip": "ym2612"
    },
    {
      "channel": 4,
      "note": 95,
      "start": 10.4506,
      "duration": 0.0997,
      "velocity": 96,
      "chip": "ym2612"
    },
    {
      "channel": 3,
      "note": 75,
      "start": 10.6004,
      "duration": 0.0455,
      "velocity": 113,
      "chip": "ym2612"
    },
    {
      "channel": 0,
      "note": 56,
      "start": 10.6335,
      "duration": 0.061,
      "velocity": 112,
      "chip": "ym2612"
    },
    {
      "channel": 2,
      "note": 75,
      "start": 10.6339,
      "duration": 0.0451,
      "velocity": 113,
      "chip": "ym2612"
    },
    {
      "channel": 4,
      "note": 95,
      "start": 10.6363,
      "duration": 0.0452,
      "velocity": 96,
      "chip": "ym2612"
    },
    {
      "channel": 2,
      "note": 78,
      "start": 10.6793,
      "duration": 0.0076,
      "velocity": 113,
      "chip": "ym2612"
    },
    {
      "channel": 4,
      "note": 95,
      "start": 10.6816,
      "duration": 0.0079,
      "velocity": 96,
      "chip": "ym2612"
    },
    {
      "channel": 3,
      "note": 75,
      "start": 10.6839,
      "duration": 0.0076,
      "velocity": 113,
      "chip": "ym2612"
    },
    {
      "channel": 2,
      "note": 75,
      "start": 10.6871,
      "duration": 0.0078,
      "velocity": 113,
      "chip": "ym2612"
    },
    {
      "channel": 4,
      "note": 95,
      "start": 10.6896,
      "duration": 0.0263,
      "velocity": 96,
      "chip": "ym2612"
    },
    {
      "channel": 3,
      "note": 78,
      "start": 10.6916,
      "duration": 0.0576,
      "velocity": 113,
      "chip": "ym2612"
    },
    {
      "channel": 0,
      "note": 59,
      "start": 10.6948,
      "duration": 0.2491,
      "velocity": 112,
      "chip": "ym2612"
    },
    {
      "channel": 2,
      "note": 80,
      "start": 10.6952,
      "duration": 0.0872,
      "velocity": 113,
      "chip": "ym2612"
    },
    {
      "channel": 4,
      "note": 95,
      "start": 10.7162,
      "duration": 0.0699,
      "velocity": 96,
      "chip": "ym2612"
    },
    {
      "channel": 3,
      "note": 75,
      "start": 10.7494,
      "duration": 0.0449,
      "velocity": 113,
      "chip": "ym2612"
    },
    {
      "channel": 2,
      "note": 81,
      "start": 10.7827,
      "duration": 0.045,
      "velocity": 113,
      "chip": "ym2612"
    },
    {
      "channel": 4,
      "note": 95,
      "start": 10.7863,
      "duration": 0.0914,
      "velocity": 96,
      "chip": "ym2612"
    },
    {
      "channel": 3,
      "note": 80,
      "start": 10.7945,
      "duration": 0.1163,
      "velocity": 113,
      "chip": "ym2612"
    },
    {
      "channel": 1,
      "note": 71,
      "start": 10.8276,
      "duration": 0.2072,
      "velocity": 114,
      "chip": "ym2612"
    },
    {
      "channel": 3,
      "note": 81,
      "start": 10.911,
      "duration": 0.0454,
      "velocity": 113,
      "chip": "ym2612"
    },
    {
      "channel": 0,
      "note": 64,
      "start": 10.9442,
      "duration": 0.2071,
      "velocity": 112,
      "chip": "ym2612"
    },
    {
      "channel": 2,
      "note": 82,
      "start": 10.9445,
      "duration": 0.0452,
      "velocity": 113,
      "chip": "ym2612"
    },
    {
      "channel": 4,
      "note": 95,
      "start": 10.947,
      "duration": 0.0451,
      "velocity": 96,
      "chip": "ym2612"
    },
    {
      "channel": 2,
      "note": 81,
      "start": 10.99,
      "duration": 0.0451,
      "velocity": 113,
      "chip": "ym2612"
    },
    {
      "channel": 4,
      "note": 95,
      "start": 10.9922,
      "duration": 0.0762,
      "velocity": 96,
      "chip": "ym2612"
    },
    {
      "channel": 3,
      "note": 82,
      "start": 11.002,
      "duration": 0.0998,
      "velocity": 113,
      "chip": "ym2612"
    },
    {
      "channel": 1,
      "note": 70,
      "start": 11.035,
      "duration": 0.1314,
      "velocity": 114,
      "chip": "ym2612"
    },
    {
      "channel": 2,
      "note": 80,
      "start": 11.0354,
      "duration": 0.1164,
      "velocity": 113,
      "chip": "ym2612"
    },
    {
      "channel": 4,
      "note": 95,
      "start": 11.0688,
      "duration": 0.0853,
      "velocity": 96,
      "chip": "ym2612"
    },
    {
      "channel": 3,
      "note": 81,
      "start": 11.102,
      "duration": 0.0542,
      "velocity": 113,
      "chip": "ym2612"
    },
    {
      "channel": 0,
      "note": 59,
      "start": 11.1516,
      "duration": 0.0146,
      "velocity": 112,
      "chip": "ym2612"
    },
    {
      "channel": 3,
      "note": 80,
      "start": 11.1562,
      "duration": 0.0083,
      "velocity": 113,
      "chip": "ym2612"
    },
    {
      "channel": 2,
      "note": 75,
      "start": 11.1606,
      "duration": 0.0061,
      "velocity": 113,
      "chip": "ym2612"
    },
    {
      "channel": 4,
      "note": 95,
      "start": 11.1627,
      "duration": 0.0074,
      "velocity": 96,
      "chip": "ym2612"
    },
    {
      "channel": 0,
      "note": 56,
      "start": 11.1664,
      "duration": 0.053,
      "velocity": 112,
      "chip": "ym2612"
    },
    {
      "channel": 1,
      "note": 71,
      "start": 11.1666,
      "duration": 0.3316,
      "velocity": 114,
      "chip": "ym2612"
    },
    {
      "channel": 2,
      "note": 80,
      "start": 11.1669,
      "duration": 0.0077,
      "velocity": 113,
      "chip": "ym2612"
    },
    {
      "channel": 4,
      "note": 95,
      "start": 11.1702,
      "duration": 0.0079,
      "velocity": 96,
      "chip": "ym2612"
    },
    {
      "channel": 3,
      "note": 75,
      "start": 11.1723,
      "duration": 0.0141,
      "velocity": 113,
      "chip": "ym2612"
    },
    {
      "channel": 2,
      "note": 75,
      "start": 11.1749,
      "duration": 0.0451,
      "velocity": 113,
      "chip": "ym2612"
    },
    {
      "channel": 4,
      "note": 95,
      "start": 11.1783,
      "duration": 0.0439,
      "velocity": 96,
      "chip": "ym2612"
    },
    {
      "channel": 3,
      "note": 80,
      "start": 11.1867,
      "duration": 0.0448,
      "velocity": 113,
      "chip": "ym2612"
    },
    {
      "channel": 0,
      "note": 51,
      "start": 11.2198,
      "duration": 0.278,
      "velocity": 112,
      "chip": "ym2612"
    },
    {
      "channel": 3,
      "note": 75,
      "start": 11.2317,
      "duration": 0.1164,
      "velocity": 113,
      "chip": "ym2612"
    },
    {
      "channel": 2,
      "note": 75,
      "start": 11.3817,
      "duration": 0.1167,
      "velocity": 113,
      "chip": "ym2612"
    },
    {
      "channel": 4,
      "note": 94,
      "start": 11.4151,
      "duration": 0.0856,
      "velocity": 96,
      "chip": "ym2612"
    },
    {
      "channel": 0,
      "note": 54,
      "start": 11.4981,
      "duration": 0.0596,
      "velocity": 112,
      "chip": "ym2612"
    },
    {
      "channel": 1,
      "note": 70,
      "start": 11.4983,
      "duration": 0.0597,
      "velocity": 114,
      "chip": "ym2612"
    },
    {
      "channel": 2,
      "note": 78,
      "start": 11.4986,
      "duration": 0.0449,
      "velocity": 113,
      "chip": "ym2612"
    },
    {
      "channel": 4,
      "note": 94,
      "start": 11.5008,
      "duration": 0.0453,
      "velocity": 96,
      "chip": "ym2612"
    },
    {
      "channel": 3,
      "note": 75,
      "start": 11.503,
      "duration": 0.0451,
      "velocity": 113,
      "chip": "ym2612"
    },
    {
      "channel": 2,
      "note": 80,
      "start": 11.5437,
      "duration": 0.0066,
      "velocity": 113,
      "chip": "ym2612"
    },
    {
      "channel": 4,
      "note": 94,
      "start": 11.5462,
      "duration": 0.0074,
      "velocity": 96,
      "chip": "ym2612"
    },
    {
      "channel": 3,
      "note": 78,
      "start": 11.5482,
      "duration": 0.0075,
      "velocity": 113,
      "chip": "ym2612"
    },
    {
      "channel": 2,
      "note": 75,
      "start": 11.5505,
      "duration": 0.0076,
      "velocity": 113,
      "chip": "ym2612"
    },
    {
      "channel": 4,
      "note": 94,
      "start": 11.5538,
      "duration": 0.0264,
      "velocity": 96,
      "chip": "ym2612"
    },
    {
      "channel": 3,
      "note": 80,
      "start": 11.5559,
      "duration": 0.0576,
      "velocity": 113,
      "chip": "ym2612"
    },
    {
      "channel": 0,
      "note": 58,
      "start": 11.5579,
      "duration": 0.3218,
      "velocity": 112,
      "chip": "ym2612"
    },
    {
      "channel": 1,
      "note": 66,
      "start": 11.5581,
      "duration": 0.367,
      "velocity": 114,
      "chip": "ym2612"
    },
    {
      "channel": 3,
      "note": 75,
      "start": 11.6136,
      "duration": 0.1164,
      "velocity": 113,
      "chip": "ym2612"
    },
    {
      "channel": 0,
      "note": 63,
      "start": 11.88,
      "duration": 0.19,
      "velocity": 112,
      "chip": "ym2612"
    },
    {
      "channel": 2,
      "note": 75,
      "start": 11.8803,
      "duration": 0.0451,
      "velocity": 113,
      "chip": "ym2612"
    },
    {
      "channel": 4,
      "note": 94,
      "start": 11.8825,
      "duration": 0.0761,
      "velocity": 96,
      "chip": "ym2612"
    },
    {
      "channel": 1,
      "note": 63,
      "start": 11.9254,
      "duration": 0.9045,
      "velocity": 114,
      "chip": "ym2612"
    },
    {
      "channel": 3,
      "note": 75,
      "start": 11.9921,
      "duration": 0.054,
      "velocity": 113,
      "chip": "ym2612"
    },
    {
      "channel": 2,
      "note": 75,
      "start": 12.042,
      "duration": 0.0284,
      "velocity": 113,
      "chip": "ym2612"
    },
    {
      "channel": 4,
      "note": 94,
      "start": 12.0442,
      "duration": 0.0293,
      "velocity": 96,
      "chip": "ym2612"
    },
    {
      "channel": 0,
      "note": 58,
      "start": 12.0702,
      "duration": 0.0533,
      "velocity": 112,
      "chip": "ym2612"
    },
    {
      "channel": 2,
      "note": 78,
      "start": 12.0706,
      "duration": 0.0083,
      "velocity": 113,
      "chip": "ym2612"
    },
    {
      "channel": 4,
      "note": 94,
      "start": 12.0737,
      "duration": 0.0087,
      "velocity": 96,
      "chip": "ym2612"
    },
    {
      "channel": 3,
      "note": 75,
      "start": 12.0758,
      "duration": 0.0149,
      "velocity": 113,
      "chip": "ym2612"
    },
    {
      "channel": 2,
      "note": 75,
      "start": 12.079,
      "duration": 0.045,
      "velocity": 113,
      "chip": "ym2612"
    },
    {
      "channel": 4,
      "note": 94,
      "start": 12.0826,
      "duration": 0.0748,
      "velocity": 96,
      "chip": "ym2612"
    },
    {
      "channel": 3,
      "note": 78,
      "start": 12.0909,
      "duration": 0.1164,
      "velocity": 113,
      "chip": "ym2612"
    },
    {
      "channel": 0,
      "note": 54,
      "start": 12.1238,
      "duration": 0.2331,
      "velocity": 112,
      "chip": "ym2612"
    },
    {
      "channel": 3,
      "note": 75,
      "start": 12.2075,
      "duration": 0.1165,
      "velocity": 113,
      "chip": "ym2612"
    },
    {
      "channel": 2,
      "note": 80,
      "start": 12.2408,
      "duration": 0.1166,
      "velocity": 113,
      "chip": "ym2612"
    },
    {
      "channel": 4,
      "note": 94,
      "start": 12.2744,
      "duration": 0.0849,
      "velocity": 96,
      "chip": "ym2612"
    },
    {
      "channel": 0,
      "note": 51,
      "start": 12.3572,
      "duration": 0.2614,
      "velocity": 112,
      "chip": "ym2612"
    },
    {
      "channel": 3,
      "note": 80,
      "start": 12.3611,
      "duration": 0.1078,
      "velocity": 113,
      "chip": "ym2612"
    },
    {
      "channel": 2,
      "note": 75,
      "start": 12.5192,
      "duration": 0.0999,
      "velocity": 113,
      "chip": "ym2612"
    },
    {
      "channel": 4,
      "note": 94,
      "start": 12.5527,
      "duration": 0.0698,
      "velocity": 96,
      "chip": "ym2612"
    },
    {
      "channel": 0,
      "note": 54,
      "start": 12.619,
      "duration": 0.0614,
      "velocity": 112,
      "chip": "ym2612"
    },
    {
      "channel": 2,
      "note": 75,
      "start": 12.6193,
      "duration": 0.0449,
      "velocity": 113,
      "chip": "ym2612"
    },
    {
      "channel": 4,
      "note": 94,
      "start": 12.6227,
      "duration": 0.0451,
      "velocity": 96,
      "chip": "ym2612"
    },
    {
      "channel": 3,
      "note": 75,
      "start": 12.6314,
      "duration": 0.0388,
      "velocity": 113,
      "chip": "ym2612"
    },
    {
      "channel": 2,
      "note": 78,
      "start": 12.6645,
      "duration": 0.008,
      "velocity": 113,
      "chip": "ym2612"
    },
    {
      "channel": 4,
      "note": 94,
      "start": 12.668,
      "duration": 0.007,
      "velocity": 96,
      "chip": "ym2612"
    },
    {
      "channel": 3,
      "note": 75,
      "start": 12.6702,
      "duration": 0.0082,
      "velocity": 113,
      "chip": "ym2612"
    },
    {
      "channel": 2,
      "note": 75,
      "start": 12.6726,
      "duration": 0.0081,
      "velocity": 113,
      "chip": "ym2612"
    },
    {
      "channel": 4,
      "note": 94,
      "start": 12.6751,
      "duration": 0.0268,
      "velocity": 96,
      "chip": "ym2612"
    },
    {
      "channel": 3,
      "note": 78,
      "start": 12.6786,
      "duration": 0.0732,
      "velocity": 113,
      "chip": "ym2612"
    },
    {
      "channel": 0,
      "note": 58,
      "start": 12.6806,
      "duration": 0.2659,
      "velocity": 112,
      "chip": "ym2612"
    },
    {
      "channel": 2,
      "note": 80,
      "start": 12.6809,
      "duration": 0.104,
      "velocity": 113,
      "chip": "ym2612"
    },
    {
      "channel": 4,
      "note": 104,
      "start": 12.7021,
      "duration": 0.0852,
      "velocity": 96,
      "chip": "ym2612"
    },
    {
      "channel": 3,
      "note": 75,
      "start": 12.752,
      "duration": 0.0374,
      "velocity": 113,
      "chip": "ym2612"
    },
    {
      "channel": 2,
      "note": 75,
      "start": 12.7851,
      "duration": 0.0451,
      "velocity": 113,
      "chip": "ym2612"
    },
    {
      "channel": 4,
      "note": 94,
      "start": 12.7875,
      "duration": 0.0761,
      "velocity": 96,
      "chip": "ym2612"
    },
    {
      "channel": 3,
      "note": 80,
      "start": 12.7895,
      "duration": 0.1073,
      "velocity": 113,
      "chip": "ym2612"
    },
    {
      "channel": 1,
      "note": 58,
      "start": 12.8301,
      "duration": 0.3071,
      "velocity": 114,
      "chip": "ym2612"
    },
    {
      "channel": 2,
      "note": 81,
      "start": 12.8305,
      "duration": 0.1164,
      "velocity": 113,
      "chip": "ym2612"
    },
    {
      "channel": 4,
      "note": 94,
      "start": 12.8639,
      "duration": 0.0854,
      "velocity": 96,
      "chip": "ym2612"
    },
    {
      "channel": 3,
      "note": 75,
      "start": 12.8971,
      "duration": 0.0543,
      "velocity": 113,
      "chip": "ym2612"
    },
    {
      "channel": 0,
      "note": 63,
      "start": 12.9467,
      "duration": 0.1902,
      "velocity": 112,
      "chip": "ym2612"
    },
    {
      "channel": 2,
      "note": 82,
      "start": 12.9471,
      "duration": 0.0282,
      "velocity": 113,
      "chip": "ym2612"
    },
    {
      "channel": 4,
      "note": 106,
      "start": 12.9495,
      "duration": 0.0294,
      "velocity": 96,
      "chip": "ym2612"
    },
    {
      "channel": 3,
      "note": 81,
      "start": 12.9516,
      "duration": 0.0357,
      "velocity": 113,
      "chip": "ym2612"
    },
    {
      "channel": 2,
      "note": 81,
      "start": 12.9755,
      "duration": 0.045,
      "velocity": 113,
      "chip": "ym2612"
    },
    {
      "channel": 4,
      "note": 94,
      "start": 12.979,
      "duration": 0.0917,
      "velocity": 96,
      "chip": "ym2612"
    },
    {
      "channel": 3,
      "note": 82,
      "start": 12.9875,
      "duration": 0.1164,
      "velocity": 113,
      "chip": "ym2612"
    },
    {
      "channel": 2,
      "note": 75,
      "start": 13.0208,
      "duration": 0.1167,
      "velocity": 113,
      "chip": "ym2612"
    },
    {
      "channel": 4,
      "note": 94,
      "start": 13.071,
      "duration": 0.0689,
      "velocity": 96,
      "chip": "ym2612"
    },
    {
      "channel": 3,
      "note": 81,
      "start": 13.1042,
      "duration": 0.0391,
      "velocity": 113,
      "chip": "ym2612"
    },
    {
      "channel": 0,
      "note": 58,
      "start": 13.1372,
      "duration": 0.016,
      "velocity": 112,
      "chip": "ym2612"
    },
    {
      "channel": 1,
      "note": 59,
      "start": 13.1374,
      "duration": 0.0694,
      "velocity": 114,
      "chip": "ym2612"
    },
    {
      "channel": 2,
      "note": 80,
      "start": 13.1376,
      "duration": 0.0082,
      "velocity": 113,
      "chip": "ym2612"
    },
    {
      "channel": 4,
      "note": 104,
      "start": 13.1401,
      "duration": 0.008,
      "velocity": 96,
      "chip": "ym2612"
    },
    {
      "channel": 3,
      "note": 75,
      "start": 13.1434,
      "duration": 0.008,
      "velocity": 113,
      "chip": "ym2612"
    },
    {
      "channel": 2,
      "note": 75,
      "start": 13.1461,
      "duration": 0.0075,
      "velocity": 113,
      "chip": "ym2612"
    },
    {
      "channel": 4,
      "note": 94,
      "start": 13.1483,
      "duration": 0.0078,
      "velocity": 96,
      "chip": "ym2612"
    },
    {
      "channel": 3,
      "note": 80,
      "start": 13.1516,
      "duration": 0.0066,
      "velocity": 113,
      "chip": "ym2612"
    },
    {
      "channel": 0,
      "note": 54,
      "start": 13.1534,
      "duration": 0.0531,
      "velocity": 112,
      "chip": "ym2612"
    },
    {
      "channel": 2,
      "note": 75,
      "start": 13.1537,
      "duration": 0.008,
      "velocity": 113,
      "chip": "ym2612"
    },
    {
      "channel": 4,
      "note": 94,
      "start": 13.1563,
      "duration": 0.0078,
      "velocity": 96,
      "chip": "ym2612"
    },
    {
      "channel": 3,
      "note": 75,
      "start": 13.1585,
      "duration": 0.0078,
      "velocity": 113,
      "chip": "ym2612"
    },
    {
      "channel": 2,
      "note": 78,
      "start": 13.162,
      "duration": 0.045,
      "velocity": 113,
      "chip": "ym2612"
    },
    {
      "channel": 4,
      "note": 94,
      "start": 13.1642,
      "duration": 0.0457,
      "velocity": 96,
      "chip": "ym2612"
    },
    {
      "channel": 3,
      "note": 75,
      "start": 13.1664,
      "duration": 0.0458,
      "velocity": 113,
      "chip": "ym2612"
    },
    {
      "channel": 0,
      "note": 52,
      "start": 13.2068,
      "duration": 0.2622,
      "velocity": 112,
      "chip": "ym2612"
    },
    {
      "channel": 1,
      "note": 61,
      "start": 13.2069,
      "duration": 0.3226,
      "velocity": 114,
      "chip": "ym2612"
    },
    {
      "channel": 2,
      "note": 75,
      "start": 13.2072,
      "duration": 0.0288,
      "velocity": 113,
      "chip": "ym2612"
    },
    {
      "channel": 4,
      "note": 95,
      "start": 13.21,
      "duration": 0.0761,
      "velocity": 96,
      "chip": "ym2612"
    },
    {
      "channel": 3,
      "note": 78,
      "start": 13.2124,
      "duration": 0.107,
      "velocity": 113,
      "chip": "ym2612"
    },
    {
      "channel": 3,
      "note": 75,
      "start": 13.3195,
      "duration": 0.1166,
      "velocity": 113,
      "chip": "ym2612"
    },
    {
      "channel": 2,
      "note": 75,
      "start": 13.3529,
      "duration": 0.1166,
      "velocity": 113,
      "chip": "ym2612"
    },
    {
      "channel": 4,
      "note": 95,
      "start": 13.4031,
      "duration": 0.0685,
      "velocity": 96,
      "chip": "ym2612"
    },
    {
      "channel": 0,
      "note": 56,
      "start": 13.4693,
      "duration": 0.0599,
      "velocity": 112,
      "chip": "ym2612"
    },
    {
      "channel": 2,
      "note": 75,
      "start": 13.4698,
      "duration": 0.0443,
      "velocity": 113,
      "chip": "ym2612"
    },
    {
      "channel": 4,
      "note": 95,
      "start": 13.4717,
      "duration": 0.0449,
      "velocity": 96,
      "chip": "ym2612"
    },
    {
      "channel": 3,
      "note": 75,
      "start": 13.481,
      "duration": 0.0386,
      "velocity": 113,
      "chip": "ym2612"
    },
    {
      "channel": 2,
      "note": 78,
      "start": 13.5142,
      "duration": 0.0076,
      "velocity": 113,
      "chip": "ym2612"
    },
    {
      "channel": 4,
      "note": 95,
      "start": 13.5167,
      "duration": 0.0074,
      "velocity": 96,
      "chip": "ym2612"
    },
    {
      "channel": 3,
      "note": 75,
      "start": 13.5198,
      "duration": 0.0064,
      "velocity": 113,
      "chip": "ym2612"
    },
    {
      "channel": 2,
      "note": 75,
      "start": 13.522,
      "duration": 0.0078,
      "velocity": 113,
      "chip": "ym2612"
    },
    {
      "channel": 4,
      "note": 95,
      "start": 13.5243,
      "duration": 0.0264,
      "velocity": 96,
      "chip": "ym2612"
    },
    {
      "channel": 3,
      "note": 78,
      "start": 13.5264,
      "duration": 0.0576,
      "velocity": 113,
      "chip": "ym2612"
    },
    {
      "channel": 0,
      "note": 59,
      "start": 13.5295,
      "duration": 0.3207,
      "velocity": 112,
      "chip": "ym2612"
    },
    {
      "channel": 1,
      "note": 68,
      "start": 13.5297,
      "duration": 1.2706,
      "velocity": 108,
      "chip": "ym2612"
    },
    {
      "channel": 2,
      "note": 80,
      "start": 13.5299,
      "duration": 0.1039,
      "velocity": 113,
      "chip": "ym2612"
    },
    {
      "channel": 4,
      "note": 95,
      "start": 13.551,
      "duration": 0.1163,
      "velocity": 96,
      "chip": "ym2612"
    },
    {
      "channel": 3,
      "note": 75,
      "start": 13.5842,
      "duration": 0.1163,
      "velocity": 113,
      "chip": "ym2612"
    },
    {
      "channel": 2,
      "note": 75,
      "start": 13.6341,
      "duration": 0.0998,
      "velocity": 113,
      "chip": "ym2612"
    },
    {
      "channel": 4,
      "note": 95,
      "start": 13.6676,
      "duration": 0.1163,
      "velocity": 96,
      "chip": "ym2612"
    },
    {
      "channel": 3,
      "note": 80,
      "start": 13.7008,
      "duration": 0.1163,
      "velocity": 113,
      "chip": "ym2612"
    },
    {
      "channel": 3,
      "note": 75,
      "start": 13.8173,
      "duration": 0.0453,
      "velocity": 113,
      "chip": "ym2612"
    },
    {
      "channel": 0,
      "note": 64,
      "start": 13.8505,
      "duration": 0.1325,
      "velocity": 112,
      "chip": "ym2612"
    },
    {
      "channel": 2,
      "note": 75,
      "start": 13.8508,
      "duration": 0.045,
      "velocity": 113,
      "chip": "ym2612"
    },
    {
      "channel": 4,
      "note": 95,
      "start": 13.8543,
      "duration": 0.0437,
      "velocity": 96,
      "chip": "ym2612"
    },
    {
      "channel": 3,
      "note": 75,
      "start": 13.9052,
      "duration": 0.0448,
      "velocity": 113,
      "chip": "ym2612"
    },
    {
      "channel": 2,
      "note": 75,
      "start": 13.9385,
      "duration": 0.0449,
      "velocity": 113,
      "chip": "ym2612"
    },
    {
      "channel": 4,
      "note": 95,
      "start": 13.9407,
      "duration": 0.045,
      "velocity": 96,
      "chip": "ym2612"
    },
    {
      "channel": 0,
      "note": 59,
      "start": 13.9832,
      "duration": 0.0538,
      "velocity": 112,
      "chip": "ym2612"
    },
    {
      "channel": 2,
      "note": 78,
      "start": 13.9837,
      "duration": 0.0085,
      "velocity": 113,
      "chip": "ym2612"
    },
    {
      "channel": 4,
      "note": 95,
      "start": 13.9859,
      "duration": 0.009,
      "velocity": 96,
      "chip": "ym2612"
    },
    {
      "channel": 3,
      "note": 75,
      "start": 13.9879,
      "duration": 0.009,
      "velocity": 113,
      "chip": "ym2612"
    },
    {
      "channel": 2,
      "note": 75,
      "start": 13.9924,
      "duration": 0.0452,
      "velocity": 113,
      "chip": "ym2612"
    },
    {
      "channel": 4,
      "note": 95,
      "start": 13.995,
      "duration": 0.076,
      "velocity": 96,
      "chip": "ym2612"
    },
    {
      "channel": 3,
      "note": 78,
      "start": 13.9971,
      "duration": 0.1072,
      "velocity": 113,
      "chip": "ym2612"
    },
    {
      "channel": 0,
      "note": 56,
      "start": 14.0374,
      "duration": 0.2164,
      "velocity": 112,
      "chip": "ym2612"
    },
    {
      "channel": 2,
      "note": 80,
      "start": 14.0379,
      "duration": 0.0995,
      "velocity": 113,
      "chip": "ym2612"
    },
    {
      "channel": 4,
      "note": 95,
      "start": 14.0713,
      "duration": 0.1164,
      "velocity": 96,
      "chip": "ym2612"
    },
    {
      "channel": 3,
      "note": 75,
      "start": 14.1045,
      "duration": 0.1164,
      "velocity": 113,
      "chip": "ym2612"
    },
    {
      "channel": 2,
      "note": 75,
      "start": 14.1378,
      "duration": 0.1165,
      "velocity": 113,
      "chip": "ym2612"
    },
    {
      "channel": 4,
      "note": 95,
      "start": 14.1879,
      "duration": 0.0696,
      "velocity": 96,
      "chip": "ym2612"
    },
    {
      "channel": 3,
      "note": 80,
      "start": 14.2211,
      "duration": 0.0451,
      "velocity": 113,
      "chip": "ym2612"
    },
    {
      "channel": 0,
      "note": 52,
      "start": 14.2541,
      "duration": 0.2783,
      "velocity": 112,
      "chip": "ym2612"
    },
    {
      "channel": 3,
      "note": 75,
      "start": 14.2664,
      "duration": 0.1164,
      "velocity": 113,
      "chip": "ym2612"
    },
    {
      "channel": 2,
      "note": 75,
      "start": 14.2998,
      "duration": 0.1163,
      "velocity": 113,
      "chip": "ym2612"
    },
    {
      "channel": 4,
      "note": 95,
      "start": 14.3332,
      "duration": 0.1163,
      "velocity": 96,
      "chip": "ym2612"
    },
    {
      "channel": 2,
      "note": 78,
      "start": 14.4163,
      "duration": 0.1166,
      "velocity": 113,
      "chip": "ym2612"
    },
    {
      "channel": 4,
      "note": 95,
      "start": 14.4498,
      "duration": 0.0859,
      "velocity": 96,
      "chip": "ym2612"
    },
    {
      "channel": 3,
      "note": 75,
      "start": 14.4998,
      "duration": 0.0382,
      "velocity": 113,
      "chip": "ym2612"
    },
    {
      "channel": 0,
      "note": 56,
      "start": 14.5328,
      "duration": 0.0604,
      "velocity": 112,
      "chip": "ym2612"
    },
    {
      "channel": 2,
      "note": 75,
      "start": 14.5331,
      "duration": 0.0453,
      "velocity": 113,
      "chip": "ym2612"
    },
    {
      "channel": 4,
      "note": 95,
      "start": 14.5359,
      "duration": 0.0451,
      "velocity": 96,
      "chip": "ym2612"
    },
    {
      "channel": 3,
      "note": 78,
      "start": 14.5381,
      "duration": 0.0451,
      "velocity": 113,
      "chip": "ym2612"
    },
    {
      "channel": 2,
      "note": 80,
      "start": 14.5787,
      "duration": 0.0076,
      "velocity": 113,
      "chip": "ym2612"
    },
    {
      "channel": 4,
      "note": 95,
      "start": 14.5812,
      "duration": 0.0077,
      "velocity": 96,
      "chip": "ym2612"
    },
    {
      "channel": 3,
      "note": 75,
      "start": 14.5834,
      "duration": 0.0076,
      "velocity": 113,
      "chip": "ym2612"
    },
    {
      "channel": 2,
      "note": 75,
      "start": 14.5865,
      "duration": 0.0071,
      "velocity": 113,
      "chip": "ym2612"
    },
    {
      "channel": 4,
      "note": 95,
      "start": 14.589,
      "duration": 0.0265,
      "velocity": 96,
      "chip": "ym2612"
    },
    {
      "channel": 3,
      "note": 80,
      "start": 14.5912,
      "duration": 0.0575,
      "velocity": 113,
      "chip": "ym2612"
    },
    {
      "channel": 0,
      "note": 59,
      "start": 14.5934,
      "duration": 0.1423,
      "velocity": 112,
      "chip": "ym2612"
    },
    {
      "channel": 2,
      "note": 81,
      "start": 14.5938,
      "duration": 0.088,
      "velocity": 113,
      "chip": "ym2612"
    },
    {
      "channel": 4,
      "note": 95,
      "start": 14.6157,
      "duration": 0.0698,
      "velocity": 96,
      "chip": "ym2612"
    },
    {
      "channel": 3,
      "note": 75,
      "start": 14.6489,
      "duration": 0.0451,
      "velocity": 113,
      "chip": "ym2612"
    },
    {
      "channel": 2,
      "note": 75,
      "start": 14.6821,
      "duration": 0.0451,
      "velocity": 113,
      "chip": "ym2612"
    },
    {
      "channel": 4,
      "note": 95,
      "start": 14.6856,
      "duration": 0.0444,
      "velocity": 96,
      "chip": "ym2612"
    },
    {
      "channel": 3,
      "note": 81,
      "start": 14.6942,
      "duration": 0.0388,
      "velocity": 113,
      "chip": "ym2612"
    },
    {
      "channel": 2,
      "note": 82,
      "start": 14.7275,
      "duration": 0.0087,
      "velocity": 113,
      "chip": "ym2612"
    },
    {
      "channel": 4,
      "note": 95,
      "start": 14.7302,
      "duration": 0.0087,
      "velocity": 96,
      "chip": "ym2612"
    },
    {
      "channel": 3,
      "note": 75,
      "start": 14.7332,
      "duration": 0.0088,
      "velocity": 113,
      "chip": "ym2612"
    },
    {
      "channel": 0,
      "note": 64,
      "start": 14.736,
      "duration": 0.0629,
      "velocity": 112,
      "chip": "ym2612"
    },
    {
      "channel": 2,
      "note": 75,
      "start": 14.7364,
      "duration": 0.0083,
      "velocity": 113,
      "chip": "ym2612"
    },
    {
      "channel": 4,
      "note": 95,
      "start": 14.739,
      "duration": 0.0083,
      "velocity": 96,
      "chip": "ym2612"
    },
    {
      "channel": 3,
      "note": 82,
      "start": 14.7421,
      "duration": 0.0077,
      "velocity": 113,
      "chip": "ym2612"
    },
    {
      "channel": 2,
      "note": 81,
      "start": 14.7449,
      "duration": 0.0454,
      "velocity": 113,
      "chip": "ym2612"
    },
    {
      "channel": 4,
      "note": 95,
      "start": 14.7476,
      "duration": 0.0455,
      "velocity": 96,
      "chip": "ym2612"
    },
    {
      "channel": 3,
      "note": 75,
      "start": 14.7499,
      "duration": 0.0452,
      "velocity": 113,
      "chip": "ym2612"
    },
    {
      "channel": 2,
      "note": 75,
      "start": 14.7906,
      "duration": 0.0098,
      "velocity": 113,
      "chip": "ym2612"
    },
    {
      "channel": 4,
      "note": 95,
      "start": 14.7932,
      "duration": 0.0109,
      "velocity": 96,
      "chip": "ym2612"
    },
    {
      "channel": 3,
      "note": 81,
      "start": 14.7953,
      "duration": 0.0063,
      "velocity": 125,
      "chip": "ym2612"
    },
    {
      "channel": 0,
      "note": 59,
      "start": 14.7993,
      "duration": 0.0306,
      "velocity": 112,
      "chip": "ym2612"
    },
    {
      "channel": 2,
      "note": 80,
      "start": 14.8005,
      "duration": 0.0111,
      "velocity": 113,
      "chip": "ym2612"
    },
    {
      "channel": 4,
      "note": 95,
      "start": 14.8043,
      "duration": 0.0111,
      "velocity": 96,
      "chip": "ym2612"
    },
    {
      "channel": 2,
      "note": 75,
      "start": 14.8119,
      "duration": 0.0187,
      "velocity": 113,
      "chip": "ym2612"
    },
    {
      "channel": 4,
      "note": 95,
      "start": 14.8155,
      "duration": 0.0201,
      "velocity": 96,
      "chip": "ym2612"
    },
    {
      "channel": 0,
      "note": 56,
      "start": 14.8302,
      "duration": 0.0188,
      "velocity": 112,
      "chip": "ym2612"
    },
    {
      "channel": 1,
      "note": 83,
      "start": 14.8305,
      "duration": 0.0105,
      "velocity": 108,
      "chip": "ym2612"
    },
    {
      "channel": 2,
      "note": 78,
      "start": 14.8309,
      "duration": 0.0104,
      "velocity": 113,
      "chip": "ym2612"
    },
    {
      "channel": 3,
      "note": 80,
      "start": 14.8312,
      "duration": 0.0103,
      "velocity": 125,
      "chip": "ym2612"
    },
    {
      "channel": 4,
      "note": 95,
      "start": 14.8358,
      "duration": 0.0081,
      "velocity": 96,
      "chip": "ym2612"
    },
    {
      "channel": 1,
      "note": 85,
      "start": 14.8412,
      "duration": 0.0081,
      "velocity": 108,
      "chip": "ym2612"
    },
    {
      "channel": 2,
      "note": 75,
      "start": 14.8414,
      "duration": 0.009,
      "velocity": 101,
      "chip": "ym2612"
    },
    {
      "channel": 3,
      "note": 82,
      "start": 14.8417,
      "duration": 0.0088,
      "velocity": 125,
      "chip": "ym2612"
    },
    {
      "channel": 4,
      "note": 95,
      "start": 14.844,
      "duration": 0.0097,
      "velocity": 101,
      "chip": "ym2612"
    },
    {
      "channel": 0,
      "note": 56,
      "start": 14.8492,
      "duration": 0.2787,
      "velocity": 112,
      "chip": "ym2612"
    },
    {
      "channel": 1,
      "note": 87,
      "start": 14.8494,
      "duration": 0.8506,
      "velocity": 108,
      "chip": "ym2612"
    },
    {
      "channel": 3,
      "note": 83,
      "start": 14.8506,
      "duration": 0.8497,
      "velocity": 125,
      "chip": "ym2612"
    },
    {
      "channel": 0,
      "note": 59,
      "start": 15.1282,
      "duration": 0.0414,
      "velocity": 112,
      "chip": "ym2612"
    },
    {
      "channel": 0,
      "note": 68,
      "start": 15.1698,
      "duration": 0.3391,
      "velocity": 112,
      "chip": "ym2612"
    },
    {
      "channel": 2,
      "note": 71,
      "start": 15.17,
      "duration": 0.8178,
      "velocity": 127,
      "chip": "ym2612"
    },
    {
      "channel": 4,
      "note": 59,
      "start": 15.193,
      "duration": 0.7978,
      "velocity": 114,
      "chip": "ym2612"
    },
    {
      "channel": 0,
      "note": 63,
      "start": 15.5091,
      "duration": 0.1905,
      "velocity": 112,
      "chip": "ym2612"
    },
    {
      "channel": 0,
      "note": 59,
      "start": 15.6999,
      "duration": 0.0531,
      "velocity": 112,
      "chip": "ym2612"
    },
    {
      "channel": 1,
      "note": 87,
      "start": 15.7002,
      "duration": 0.0532,
      "velocity": 108,
      "chip": "ym2612"
    },
    {
      "channel": 3,
      "note": 83,
      "start": 15.7005,
      "duration": 0.0534,
      "velocity": 125,
      "chip": "ym2612"
    },
    {
      "channel": 0,
      "note": 56,
      "start": 15.7533,
      "duration": 0.2331,
      "velocity": 112,
      "chip": "ym2612"
    },
    {
      "channel": 1,
      "note": 86,
      "start": 15.7537,
      "duration": 0.5531,
      "velocity": 108,
      "chip": "ym2612"
    },
    {
      "channel": 3,
      "note": 79,
      "start": 15.7541,
      "duration": 0.5531,
      "velocity": 125,
      "chip": "ym2612"
    },
    {
      "channel": 0,
      "note": 57,
      "start": 15.9867,
      "duration": 0.2613,
      "velocity": 112,
      "chip": "ym2612"
    },
    {
      "channel": 0,
      "note": 64,
      "start": 16.2483,
      "duration": 0.0581,
      "velocity": 112,
      "chip": "ym2612"
    },
    {
      "channel": 2,
      "note": 80,
      "start": 16.2999,
      "duration": 0.0071,
      "velocity": 127,
      "chip": "ym2612"
    },
    {
      "channel": 0,
      "note": 69,
      "start": 16.3067,
      "duration": 0.2506,
      "velocity": 112,
      "chip": "ym2612"
    },
    {
      "channel": 1,
      "note": 85,
      "start": 16.3069,
      "duration": 0.4579,
      "velocity": 108,
      "chip": "ym2612"
    },
    {
      "channel": 2,
      "note": 83,
      "start": 16.3071,
      "duration": 0.1054,
      "velocity": 127,
      "chip": "ym2612"
    },
    {
      "channel": 3,
      "note": 74,
      "start": 16.3073,
      "duration": 0.4576,
      "velocity": 125,
      "chip": "ym2612"
    },
    {
      "channel": 4,
      "note": 80,
      "start": 16.3296,
      "duration": 0.0852,
      "velocity": 114,
      "chip": "ym2612"
    },
    {
      "channel": 2,
      "note": 80,
      "start": 16.4127,
      "duration": 0.0448,
      "velocity": 127,
      "chip": "ym2612"
    },
    {
      "channel": 4,
      "note": 83,
      "start": 16.415,
      "duration": 0.0761,
      "velocity": 114,
      "chip": "ym2612"
    },
    {
      "channel": 2,
      "note": 85,
      "start": 16.4578,
      "duration": 0.0999,
      "velocity": 127,
      "chip": "ym2612"
    },
    {
      "channel": 4,
      "note": 80,
      "start": 16.4914,
      "duration": 0.0698,
      "velocity": 114,
      "chip": "ym2612"
    },
    {
      "channel": 0,
      "note": 64,
      "start": 16.5576,
      "duration": 0.2068,
      "velocity": 112,
      "chip": "ym2612"
    },
    {
      "channel": 2,
      "note": 80,
      "start": 16.5579,
      "duration": 0.0448,
      "velocity": 127,
      "chip": "ym2612"
    },
    {
      "channel": 4,
      "note": 85,
      "start": 16.5613,
      "duration": 0.045,
      "velocity": 114,
      "chip": "ym2612"
    },
    {
      "channel": 2,
      "note": 87,
      "start": 16.603,
      "duration": 0.0449,
      "velocity": 127,
      "chip": "ym2612"
    },
    {
      "channel": 4,
      "note": 80,
      "start": 16.6064,
      "duration": 0.0751,
      "velocity": 114,
      "chip": "ym2612"
    },
    {
      "channel": 2,
      "note": 80,
      "start": 16.6483,
      "duration": 0.1165,
      "velocity": 127,
      "chip": "ym2612"
    },
    {
      "channel": 4,
      "note": 87,
      "start": 16.6818,
      "duration": 0.0851,
      "velocity": 114,
      "chip": "ym2612"
    },
    {
      "channel": 0,
      "note": 57,
      "start": 16.7647,
      "duration": 0.0146,
      "velocity": 112,
      "chip": "ym2612"
    },
    {
      "channel": 3,
      "note": 83,
      "start": 16.765,
      "duration": 0.0519,
      "velocity": 125,
      "chip": "ym2612"
    },
    {
      "channel": 4,
      "note": 80,
      "start": 16.7671,
      "duration": 0.0079,
      "velocity": 114,
      "chip": "ym2612"
    },
    {
      "channel": 2,
      "note": 80,
      "start": 16.7732,
      "duration": 0.0066,
      "velocity": 127,
      "chip": "ym2612"
    },
    {
      "channel": 0,
      "note": 57,
      "start": 16.7795,
      "duration": 0.0357,
      "velocity": 112,
      "chip": "ym2612"
    },
    {
      "channel": 1,
      "note": 83,
      "start": 16.7798,
      "duration": 0.007,
      "velocity": 108,
      "chip": "ym2612"
    },
    {
      "channel": 4,
      "note": 80,
      "start": 16.7821,
      "duration": 0.0075,
      "velocity": 114,
      "chip": "ym2612"
    },
    {
      "channel": 1,
      "note": 85,
      "start": 16.787,
      "duration": 0.0286,
      "velocity": 108,
      "chip": "ym2612"
    },
    {
      "channel": 2,
      "note": 80,
      "start": 16.7872,
      "duration": 0.0296,
      "velocity": 101,
      "chip": "ym2612"
    },
    {
      "channel": 0,
      "note": 56,
      "start": 16.8156,
      "duration": 0.2786,
      "velocity": 112,
      "chip": "ym2612"
    },
    {
      "channel": 1,
      "note": 87,
      "start": 16.8158,
      "duration": 0.866,
      "velocity": 108,
      "chip": "ym2612"
    },
    {
      "channel": 3,
      "note": 83,
      "start": 16.817,
      "duration": 0.8652,
      "velocity": 125,
      "chip": "ym2612"
    },
    {
      "channel": 0,
      "note": 59,
      "start": 17.0946,
      "duration": 0.0569,
      "velocity": 112,
      "chip": "ym2612"
    },
    {
      "channel": 0,
      "note": 68,
      "start": 17.1517,
      "duration": 0.3226,
      "velocity": 112,
      "chip": "ym2612"
    },
    {
      "channel": 2,
      "note": 71,
      "start": 17.1521,
      "duration": 0.8013,
      "velocity": 127,
      "chip": "ym2612"
    },
    {
      "channel": 4,
      "note": 59,
      "start": 17.1752,
      "duration": 0.7814,
      "velocity": 114,
      "chip": "ym2612"
    },
    {
      "channel": 0,
      "note": 63,
      "start": 17.4747,
      "duration": 0.2068,
      "velocity": 112,
      "chip": "ym2612"
    },
    {
      "channel": 0,
      "note": 59,
      "start": 17.6818,
      "duration": 0.0367,
      "velocity": 112,
      "chip": "ym2612"
    },
    {
      "channel": 1,
      "note": 90,
      "start": 17.6821,
      "duration": 0.2702,
      "velocity": 108,
      "chip": "ym2612"
    },
    {
      "channel": 3,
      "note": 87,
      "start": 17.6823,
      "duration": 0.2712,
      "velocity": 125,
      "chip": "ym2612"
    },
    {
      "channel": 0,
      "note": 56,
      "start": 17.7188,
      "duration": 0.2331,
      "velocity": 112,
      "chip": "ym2612"
    },
    {
      "channel": 0,
      "note": 57,
      "start": 17.9522,
      "duration": 0.2782,
      "velocity": 112,
      "chip": "ym2612"
    },
    {
      "channel": 1,
      "note": 90,
      "start": 17.9524,
      "duration": 0.335,
      "velocity": 108,
      "chip": "ym2612"
    },
    {
      "channel": 3,
      "note": 87,
      "start": 17.9537,
      "duration": 0.3344,
      "velocity": 125,
      "chip": "ym2612"
    },
    {
      "channel": 0,
      "note": 64,
      "start": 18.2308,
      "duration": 0.0563,
      "velocity": 112,
      "chip": "ym2612"
    },
    {
      "channel": 0,
      "note": 69,
      "start": 18.2874,
      "duration": 0.252,
      "velocity": 112,
      "chip": "ym2612"
    },
    {
      "channel": 1,
      "note": 88,
      "start": 18.2876,
      "duration": 0.4424,
      "velocity": 108,
      "chip": "ym2612"
    },
    {
      "channel": 2,
      "note": 83,
      "start": 18.288,
      "duration": 0.09,
      "velocity": 127,
      "chip": "ym2612"
    },
    {
      "channel": 3,
      "note": 85,
      "start": 18.2882,
      "duration": 0.4421,
      "velocity": 125,
      "chip": "ym2612"
    },
    {
      "channel": 2,
      "note": 80,
      "start": 18.3782,
      "duration": 0.0448,
      "velocity": 127,
      "chip": "ym2612"
    },
    {
      "channel": 4,
      "note": 83,
      "start": 18.3804,
      "duration": 0.0761,
      "velocity": 114,
      "chip": "ym2612"
    },
    {
      "channel": 2,
      "note": 85,
      "start": 18.4233,
      "duration": 0.1166,
      "velocity": 127,
      "chip": "ym2612"
    },
    {
      "channel": 4,
      "note": 80,
      "start": 18.4568,
      "duration": 0.0855,
      "velocity": 114,
      "chip": "ym2612"
    },
    {
      "channel": 0,
      "note": 64,
      "start": 18.5397,
      "duration": 0.19,
      "velocity": 112,
      "chip": "ym2612"
    },
    {
      "channel": 2,
      "note": 80,
      "start": 18.5401,
      "duration": 0.0447,
      "velocity": 127,
      "chip": "ym2612"
    },
    {
      "channel": 4,
      "note": 85,
      "start": 18.5425,
      "duration": 0.0449,
      "velocity": 114,
      "chip": "ym2612"
    },
    {
      "channel": 2,
      "note": 87,
      "start": 18.585,
      "duration": 0.0449,
      "velocity": 127,
      "chip": "ym2612"
    },
    {
      "channel": 4,
      "note": 80,
      "start": 18.5875,
      "duration": 0.076,
      "velocity": 114,
      "chip": "ym2612"
    },
    {
      "channel": 2,
      "note": 80,
      "start": 18.6302,
      "duration": 0.1,
      "velocity": 127,
      "chip": "ym2612"
    },
    {
      "channel": 4,
      "note": 87,
      "start": 18.6638,
      "duration": 0.0698,
      "velocity": 114,
      "chip": "ym2612"
    },
    {
      "channel": 0,
      "note": 57,
      "start": 18.73,
      "duration": 0.0163,
      "velocity": 112,
      "chip": "ym2612"
    },
    {
      "channel": 1,
      "note": 87,
      "start": 18.7302,
      "duration": 0.0681,
      "velocity": 108,
      "chip": "ym2612"
    },
    {
      "channel": 3,
      "note": 83,
      "start": 18.7304,
      "duration": 0.0693,
      "velocity": 125,
      "chip": "ym2612"
    },
    {
      "channel": 4,
      "note": 80,
      "start": 18.7337,
      "duration": 0.0083,
      "velocity": 114,
      "chip": "ym2612"
    },
    {
      "channel": 2,
      "note": 80,
      "start": 18.7383,
      "duration": 0.0085,
      "velocity": 127,
      "chip": "ym2612"
    },
    {
      "channel": 0,
      "note": 57,
      "start": 18.7466,
      "duration": 0.0515,
      "velocity": 112,
      "chip": "ym2612"
    },
    {
      "channel": 4,
      "note": 80,
      "start": 18.7492,
      "duration": 0.0086,
      "velocity": 114,
      "chip": "ym2612"
    },
    {
      "channel": 2,
      "note": 80,
      "start": 18.7553,
      "duration": 0.0442,
      "velocity": 106,
      "chip": "ym2612"
    },
    {
      "channel": 0,
      "note": 55,
      "start": 18.7983,
      "duration": 0.2622,
      "velocity": 112,
      "chip": "ym2612"
    },
    {
      "channel": 1,
      "note": 86,
      "start": 18.7985,
      "duration": 0.3233,
      "velocity": 108,
      "chip": "ym2612"
    },
    {
      "channel": 2,
      "note": 67,
      "start": 18.7997,
      "duration": 1.2838,
      "velocity": 106,
      "chip": "ym2612"
    },
    {
      "channel": 3,
      "note": 83,
      "start": 18.7999,
      "duration": 0.3223,
      "velocity": 125,
      "chip": "ym2612"
    },
    {
      "channel": 4,
      "note": 74,
      "start": 18.8034,
      "duration": 0.34,
      "velocity": 122,
      "chip": "ym2612"
    },
    {
      "channel": 0,
      "note": 59,
      "start": 19.0609,
      "duration": 0.0607,
      "velocity": 112,
      "chip": "ym2612"
    },
    {
      "channel": 0,
      "note": 62,
      "start": 19.1218,
      "duration": 0.3377,
      "velocity": 112,
      "chip": "ym2612"
    },
    {
      "channel": 1,
      "note": 85,
      "start": 19.122,
      "duration": 0.5283,
      "velocity": 108,
      "chip": "ym2612"
    },
    {
      "channel": 3,
      "note": 74,
      "start": 19.1223,
      "duration": 0.5283,
      "velocity": 125,
      "chip": "ym2612"
    },
    {
      "channel": 4,
      "note": 73,
      "start": 19.1436,
      "duration": 0.5096,
      "velocity": 122,
      "chip": "ym2612"
    },
    {
      "channel": 0,
      "note": 67,
      "start": 19.4598,
      "duration": 0.1901,
      "velocity": 112,
      "chip": "ym2612"
    },
    {
      "channel": 0,
      "note": 62,
      "start": 19.6502,
      "duration": 0.0539,
      "velocity": 112,
      "chip": "ym2612"
    },
    {
      "channel": 1,
      "note": 83,
      "start": 19.6505,
      "duration": 0.4328,
      "velocity": 108,
      "chip": "ym2612"
    },
    {
      "channel": 3,
      "note": 83,
      "start": 19.6508,
      "duration": 0.4331,
      "velocity": 125,
      "chip": "ym2612"
    },
    {
      "channel": 4,
      "note": 71,
      "start": 19.6534,
      "duration": 0.4802,
      "velocity": 122,
      "chip": "ym2612"
    },
    {
      "channel": 0,
      "note": 59,
      "start": 19.7044,
      "duration": 0.2331,
      "velocity": 112,
      "chip": "ym2612"
    },
    {
      "channel": 0,
      "note": 55,
      "start": 19.9378,
      "duration": 0.2619,
      "velocity": 112,
      "chip": "ym2612"
    },
    {
      "channel": 1,
      "note": 79,
      "start": 20.0834,
      "duration": 0.31,
      "velocity": 108,
      "chip": "ym2612"
    },
    {
      "channel": 2,
      "note": 62,
      "start": 20.0838,
      "duration": 0.3099,
      "velocity": 106,
      "chip": "ym2612"
    },
    {
      "channel": 3,
      "note": 74,
      "start": 20.0841,
      "duration": 0.31,
      "velocity": 125,
      "chip": "ym2612"
    },
    {
      "channel": 4,
      "note": 67,
      "start": 20.1339,
      "duration": 0.3099,
      "velocity": 122,
      "chip": "ym2612"
    },
    {
      "channel": 0,
      "note": 59,
      "start": 20.2001,
      "duration": 0.0605,
      "velocity": 112,
      "chip": "ym2612"
    },
    {
      "channel": 0,
      "note": 62,
      "start": 20.2608,
      "duration": 0.2491,
      "velocity": 112,
      "chip": "ym2612"
    },
    {
      "channel": 1,
      "note": 83,
      "start": 20.3937,
      "duration": 0.3232,
      "velocity": 108,
      "chip": "ym2612"
    },
    {
      "channel": 2,
      "note": 67,
      "start": 20.394,
      "duration": 0.3231,
      "velocity": 106,
      "chip": "ym2612"
    },
    {
      "channel": 3,
      "note": 83,
      "start": 20.3944,
      "duration": 0.323,
      "velocity": 125,
      "chip": "ym2612"
    },
    {
      "channel": 4,
      "note": 71,
      "start": 20.444,
      "duration": 0.2759,
      "velocity": 122,
      "chip": "ym2612"
    },
    {
      "channel": 0,
      "note": 67,
      "start": 20.5102,
      "duration": 0.2063,
      "velocity": 112,
      "chip": "ym2612"
    },
    {
      "channel": 0,
      "note": 62,
      "start": 20.7168,
      "duration": 0.0162,
      "velocity": 112,
      "chip": "ym2612"
    },
    {
      "channel": 1,
      "note": 86,
      "start": 20.7171,
      "duration": 0.0678,
      "velocity": 108,
      "chip": "ym2612"
    },
    {
      "channel": 2,
      "note": 71,
      "start": 20.7173,
      "duration": 0.0678,
      "velocity": 106,
      "chip": "ym2612"
    },
    {
      "channel": 3,
      "note": 74,
      "start": 20.7175,
      "duration": 0.0678,
      "velocity": 125,
      "chip": "ym2612"
    },
    {
      "channel": 4,
      "note": 74,
      "start": 20.72,
      "duration": 0.0689,
      "velocity": 122,
      "chip": "ym2612"
    },
    {
      "channel": 0,
      "note": 59,
      "start": 20.7331,
      "duration": 0.0513,
      "velocity": 112,
      "chip": "ym2612"
    },
    {
      "channel": 0,
      "note": 57,
      "start": 20.7848,
      "duration": 0.2786,
      "velocity": 112,
      "chip": "ym2612"
    },
    {
      "channel": 1,
      "note": 90,
      "start": 20.785,
      "duration": 0.3383,
      "velocity": 108,
      "chip": "ym2612"
    },
    {
      "channel": 2,
      "note": 69,
      "start": 20.7853,
      "duration": 0.3383,
      "velocity": 106,
      "chip": "ym2612"
    },
    {
      "channel": 3,
      "note": 85,
      "start": 20.7855,
      "duration": 0.3383,
      "velocity": 125,
      "chip": "ym2612"
    },
    {
      "channel": 4,
      "note": 78,
      "start": 20.7891,
      "duration": 0.3566,
      "velocity": 122,
      "chip": "ym2612"
    },
    {
      "channel": 0,
      "note": 64,
      "start": 21.0637,
      "duration": 0.0593,
      "velocity": 112,
      "chip": "ym2612"
    },
    {
      "channel": 0,
      "note": 69,
      "start": 21.1233,
      "duration": 0.2482,
      "velocity": 112,
      "chip": "ym2612"
    },
    {
      "channel": 1,
      "note": 88,
      "start": 21.1235,
      "duration": 0.3478,
      "velocity": 108,
      "chip": "ym2612"
    },
    {
      "channel": 2,
      "note": 64,
      "start": 21.1237,
      "duration": 0.3478,
      "velocity": 106,
      "chip": "ym2612"
    },
    {
      "channel": 3,
      "note": 76,
      "start": 21.1239,
      "duration": 0.3479,
      "velocity": 125,
      "chip": "ym2612"
    },
    {
      "channel": 4,
      "note": 76,
      "start": 21.146,
      "duration": 0.3283,
      "velocity": 122,
      "chip": "ym2612"
    },
    {
      "channel": 0,
      "note": 64,
      "start": 21.3717,
      "duration": 0.0992,
      "velocity": 112,
      "chip": "ym2612"
    },
    {
      "channel": 0,
      "note": 61,
      "start": 21.4712,
      "duration": 0.0522,
      "velocity": 112,
      "chip": "ym2612"
    },
    {
      "channel": 1,
      "note": 85,
      "start": 21.4715,
      "duration": 0.2674,
      "velocity": 108,
      "chip": "ym2612"
    },
    {
      "channel": 2,
      "note": 61,
      "start": 21.4718,
      "duration": 0.2674,
      "velocity": 106,
      "chip": "ym2612"
    },
    {
      "channel": 3,
      "note": 85,
      "start": 21.472,
      "duration": 0.2675,
      "velocity": 125,
      "chip": "ym2612"
    },
    {
      "channel": 4,
      "note": 73,
      "start": 21.4745,
      "duration": 0.298,
      "velocity": 122,
      "chip": "ym2612"
    },
    {
      "channel": 0,
      "note": 64,
      "start": 21.5238,
      "duration": 0.0532,
      "velocity": 112,
      "chip": "ym2612"
    },
    {
      "channel": 0,
      "note": 57,
      "start": 21.5773,
      "duration": 0.2781,
      "velocity": 112,
      "chip": "ym2612"
    },
    {
      "channel": 1,
      "note": 88,
      "start": 21.7391,
      "duration": 0.3082,
      "velocity": 108,
      "chip": "ym2612"
    },
    {
      "channel": 2,
      "note": 69,
      "start": 21.7395,
      "duration": 0.308,
      "velocity": 106,
      "chip": "ym2612"
    },
    {
      "channel": 3,
      "note": 76,
      "start": 21.7398,
      "duration": 0.308,
      "velocity": 125,
      "chip": "ym2612"
    },
    {
      "channel": 4,
      "note": 76,
      "start": 21.7729,
      "duration": 0.2772,
      "velocity": 122,
      "chip": "ym2612"
    },
    {
      "channel": 0,
      "note": 64,
      "start": 21.8557,
      "duration": 0.0421,
      "velocity": 112,
      "chip": "ym2612"
    },
    {
      "channel": 0,
      "note": 69,
      "start": 21.8981,
      "duration": 0.1579,
      "velocity": 112,
      "chip": "ym2612"
    },
    {
      "channel": 1,
      "note": 85,
      "start": 22.0474,
      "duration": 0.0429,
      "velocity": 108,
      "chip": "ym2612"
    },
    {
      "channel": 2,
      "note": 64,
      "start": 22.0476,
      "duration": 0.0429,
      "velocity": 106,
      "chip": "ym2612"
    },
    {
      "channel": 3,
      "note": 85,
      "start": 22.0479,
      "duration": 0.0429,
      "velocity": 125,
      "chip": "ym2612"
    },
    {
      "channel": 4,
      "note": 73,
      "start": 22.0502,
      "duration": 0.0448,
      "velocity": 122,
      "chip": "ym2612"
    },
    {
      "channel": 0,
      "note": 64,
      "start": 22.0562,
      "duration": 0.0337,
      "velocity": 112,
      "chip": "ym2612"
    },
    {
      "channel": 0,
      "note": 57,
      "start": 22.0903,
      "duration": 0.0221,
      "velocity": 112,
      "chip": "ym2612"
    },
    {
      "channel": 1,
      "note": 93,
      "start": 22.0905,
      "duration": 0.0476,
      "velocity": 125,
      "chip": "ym2612"
    },
    {
      "channel": 2,
      "note": 73,
      "start": 22.0908,
      "duration": 0.0483,
      "velocity": 127,
      "chip": "ym2612"
    },
    {
      "channel": 3,
      "note": 88,
      "start": 22.091,
      "duration": 0.0492,
      "velocity": 125,
      "chip": "ym2612"
    },
    {
      "channel": 4,
      "note": 81,
      "start": 22.0951,
      "duration": 0.0483,
      "velocity": 122,
      "chip": "ym2612"
    },
    {
      "channel": 0,
      "note": 69,
      "start": 22.1127,
      "duration": 0.0243,
      "velocity": 112,
      "chip": "ym2612"
    },
    {
      "channel": 0,
      "note": 47,
      "start": 22.1372,
      "duration": 0.262,
      "velocity": 112,
      "chip": "ym2612"
    },
    {
      "channel": 2,
      "note": 71,
      "start": 22.1393,
      "duration": 0.0437,
      "velocity": 127,
      "chip": "ym2612"
    },
    {
      "channel": 4,
      "note": 71,
      "start": 22.1435,
      "duration": 0.6478,
      "velocity": 122,
      "chip": "ym2612"
    },
    {
      "channel": 1,
      "note": 93,
      "start": 22.1829,
      "duration": 0.0998,
      "velocity": 125,
      "chip": "ym2612"
    },
    {
      "channel": 2,
      "note": 71,
      "start": 22.1833,
      "duration": 0.0996,
      "velocity": 127,
      "chip": "ym2612"
    },
    {
      "channel": 3,
      "note": 88,
      "start": 22.1836,
      "duration": 0.0997,
      "velocity": 125,
      "chip": "ym2612"
    },
    {
      "channel": 1,
      "note": 93,
      "start": 22.2829,
      "duration": 0.1167,
      "velocity": 125,
      "chip": "ym2612"
    },
    {
      "channel": 2,
      "note": 71,
      "start": 22.2832,
      "duration": 0.1166,
      "velocity": 127,
      "chip": "ym2612"
    },
    {
      "channel": 3,
      "note": 88,
      "start": 22.2836,
      "duration": 0.1166,
      "velocity": 125,
      "chip": "ym2612"
    },
    {
      "channel": 0,
      "note": 59,
      "start": 22.3995,
      "duration": 0.0582,
      "velocity": 112,
      "chip": "ym2612"
    },
    {
      "channel": 1,
      "note": 93,
      "start": 22.3997,
      "duration": 0.045,
      "velocity": 125,
      "chip": "ym2612"
    },
    {
      "channel": 2,
      "note": 71,
      "start": 22.4,
      "duration": 0.0449,
      "velocity": 127,
      "chip": "ym2612"
    },
    {
      "channel": 3,
      "note": 88,
      "start": 22.4003,
      "duration": 0.0449,
      "velocity": 125,
      "chip": "ym2612"
    },
    {
      "channel": 1,
      "note": 95,
      "start": 22.4449,
      "duration": 0.0073,
      "velocity": 125,
      "chip": "ym2612"
    },
    {
      "channel": 2,
      "note": 71,
      "start": 22.4451,
      "duration": 0.0071,
      "velocity": 127,
      "chip": "ym2612"
    },
    {
      "channel": 3,
      "note": 90,
      "start": 22.4453,
      "duration": 0.007,
      "velocity": 125,
      "chip": "ym2612"
    },
    {
      "channel": 0,
      "note": 51,
      "start": 22.4579,
      "duration": 0.2297,
      "velocity": 112,
      "chip": "ym2612"
    },
    {
      "channel": 2,
      "note": 71,
      "start": 22.4584,
      "duration": 0.1053,
      "velocity": 127,
      "chip": "ym2612"
    },
    {
      "channel": 1,
      "note": 88,
      "start": 22.5636,
      "duration": 0.1165,
      "velocity": 125,
      "chip": "ym2612"
    },
    {
      "channel": 2,
      "note": 71,
      "start": 22.564,
      "duration": 0.1163,
      "velocity": 127,
      "chip": "ym2612"
    },
    {
      "channel": 3,
      "note": 83,
      "start": 22.5643,
      "duration": 0.1164,
      "velocity": 125,
      "chip": "ym2612"
    },
    {
      "channel": 2,
      "note": 71,
      "start": 22.6806,
      "duration": 0.0077,
      "velocity": 127,
      "chip": "ym2612"
    },
    {
      "channel": 0,
      "note": 52,
      "start": 22.6879,
      "duration": 0.0997,
      "velocity": 112,
      "chip": "ym2612"
    },
    {
      "channel": 1,
      "note": 88,
      "start": 22.6882,
      "duration": 0.0452,
      "velocity": 125,
      "chip": "ym2612"
    },
    {
      "channel": 2,
      "note": 71,
      "start": 22.6885,
      "duration": 0.0451,
      "velocity": 127,
      "chip": "ym2612"
    },
    {
      "channel": 3,
      "note": 83,
      "start": 22.6888,
      "duration": 0.045,
      "velocity": 125,
      "chip": "ym2612"
    },
    {
      "channel": 1,
      "note": 88,
      "start": 22.7336,
      "duration": 0.0086,
      "velocity": 125,
      "chip": "ym2612"
    },
    {
      "channel": 2,
      "note": 71,
      "start": 22.7338,
      "duration": 0.0087,
      "velocity": 127,
      "chip": "ym2612"
    },
    {
      "channel": 3,
      "note": 83,
      "start": 22.734,
      "duration": 0.0087,
      "velocity": 125,
      "chip": "ym2612"
    },
    {
      "channel": 1,
      "note": 88,
      "start": 22.7424,
      "duration": 0.0456,
      "velocity": 125,
      "chip": "ym2612"
    },
    {
      "channel": 2,
      "note": 71,
      "start": 22.7427,
      "duration": 0.0455,
      "velocity": 127,
      "chip": "ym2612"
    },
    {
      "channel": 3,
      "note": 83,
      "start": 22.7429,
      "duration": 0.0455,
      "velocity": 125,
      "chip": "ym2612"
    },
    {
      "channel": 0,
      "note": 53,
      "start": 22.7879,
      "duration": 0.0089,
      "velocity": 112,
      "chip": "ym2612"
    },
    {
      "channel": 1,
      "note": 90,
      "start": 22.7881,
      "duration": 0.0091,
      "velocity": 125,
      "chip": "ym2612"
    },
    {
      "channel": 2,
      "note": 71,
      "start": 22.7884,
      "duration": 0.0088,
      "velocity": 127,
      "chip": "ym2612"
    },
    {
      "channel": 3,
      "note": 85,
      "start": 22.7886,
      "duration": 0.0087,
      "velocity": 125,
      "chip": "ym2612"
    },
    {
      "channel": 4,
      "note": 78,
      "start": 22.7914,
      "duration": 0.0841,
      "velocity": 122,
      "chip": "ym2612"
    },
    {
      "channel": 0,
      "note": 54,
      "start": 22.7971,
      "duration": 0.0446,
      "velocity": 112,
      "chip": "ym2612"
    },
    {
      "channel": 0,
      "note": 57,
      "start": 22.842,
      "duration": 0.1163,
      "velocity": 112,
      "chip": "ym2612"
    },
    {
      "channel": 2,
      "note": 71,
      "start": 22.8425,
      "duration": 0.1163,
      "velocity": 127,
      "chip": "ym2612"
    },
    {
      "channel": 4,
      "note": 76,
      "start": 22.8757,
      "duration": 0.5429,
      "velocity": 122,
      "chip": "ym2612"
    },
    {
      "channel": 1,
      "note": 81,
      "start": 22.9588,
      "duration": 0.0998,
      "velocity": 125,
      "chip": "ym2612"
    },
    {
      "channel": 2,
      "note": 71,
      "start": 22.9591,
      "duration": 0.0996,
      "velocity": 127,
      "chip": "ym2612"
    },
    {
      "channel": 3,
      "note": 76,
      "start": 22.9595,
      "duration": 0.0995,
      "velocity": 125,
      "chip": "ym2612"
    },
    {
      "channel": 2,
      "note": 71,
      "start": 23.059,
      "duration": 0.0452,
      "velocity": 127,
      "chip": "ym2612"
    },
    {
      "channel": 0,
      "note": 59,
      "start": 23.1038,
      "duration": 0.1163,
      "velocity": 112,
      "chip": "ym2612"
    },
    {
      "channel": 1,
      "note": 81,
      "start": 23.1041,
      "duration": 0.1164,
      "velocity": 125,
      "chip": "ym2612"
    },
    {
      "channel": 2,
      "note": 71,
      "start": 23.1044,
      "duration": 0.1164,
      "velocity": 127,
      "chip": "ym2612"
    },
    {
      "channel": 3,
      "note": 76,
      "start": 23.1047,
      "duration": 0.1164,
      "velocity": 125,
      "chip": "ym2612"
    },
    {
      "channel": 0,
      "note": 47,
      "start": 23.2204,
      "duration": 0.1164,
      "velocity": 112,
      "chip": "ym2612"
    },
    {
      "channel": 1,
      "note": 81,
      "start": 23.2207,
      "duration": 0.1163,
      "velocity": 125,
      "chip": "ym2612"
    },
    {
      "channel": 2,
      "note": 71,
      "start": 23.2211,
      "duration": 0.1162,
      "velocity": 127,
      "chip": "ym2612"
    },
    {
      "channel": 3,
      "note": 76,
      "start": 23.2214,
      "duration": 0.1161,
      "velocity": 125,
      "chip": "ym2612"
    },
    {
      "channel": 1,
      "note": 81,
      "start": 23.3372,
      "duration": 0.0451,
      "velocity": 125,
      "chip": "ym2612"
    },
    {
      "channel": 2,
      "note": 71,
      "start": 23.3374,
      "duration": 0.0451,
      "velocity": 127,
      "chip": "ym2612"
    },
    {
      "channel": 3,
      "note": 76,
      "start": 23.3377,
      "duration": 0.0451,
      "velocity": 125,
      "chip": "ym2612"
    },
    {
      "channel": 0,
      "note": 59,
      "start": 23.3822,
      "duration": 0.0141,
      "velocity": 112,
      "chip": "ym2612"
    },
    {
      "channel": 1,
      "note": 83,
      "start": 23.3825,
      "duration": 0.0081,
      "velocity": 125,
      "chip": "ym2612"
    },
    {
      "channel": 2,
      "note": 71,
      "start": 23.3827,
      "duration": 0.008,
      "velocity": 127,
      "chip": "ym2612"
    },
    {
      "channel": 3,
      "note": 78,
      "start": 23.3829,
      "duration": 0.0078,
      "velocity": 125,
      "chip": "ym2612"
    },
    {
      "channel": 0,
      "note": 50,
      "start": 23.3966,
      "duration": 0.1338,
      "velocity": 112,
      "chip": "ym2612"
    },
    {
      "channel": 2,
      "note": 71,
      "start": 23.397,
      "duration": 0.0884,
      "velocity": 127,
      "chip": "ym2612"
    },
    {
      "channel": 4,
      "note": 73,
      "start": 23.4189,
      "duration": 0.4395,
      "velocity": 122,
      "chip": "ym2612"
    },
    {
      "channel": 1,
      "note": 88,
      "start": 23.4853,
      "duration": 0.2071,
      "velocity": 125,
      "chip": "ym2612"
    },
    {
      "channel": 2,
      "note": 71,
      "start": 23.4856,
      "duration": 0.0452,
      "velocity": 127,
      "chip": "ym2612"
    },
    {
      "channel": 3,
      "note": 71,
      "start": 23.4858,
      "duration": 0.2071,
      "velocity": 125,
      "chip": "ym2612"
    },
    {
      "channel": 0,
      "note": 51,
      "start": 23.5307,
      "duration": 0.2074,
      "velocity": 112,
      "chip": "ym2612"
    },
    {
      "channel": 2,
      "note": 71,
      "start": 23.5311,
      "duration": 0.1162,
      "velocity": 127,
      "chip": "ym2612"
    },
    {
      "channel": 2,
      "note": 71,
      "start": 23.6476,
      "duration": 0.0451,
      "velocity": 127,
      "chip": "ym2612"
    },
    {
      "channel": 1,
      "note": 89,
      "start": 23.6926,
      "duration": 0.1624,
      "velocity": 125,
      "chip": "ym2612"
    },
    {
      "channel": 2,
      "note": 71,
      "start": 23.6929,
      "duration": 0.0457,
      "velocity": 127,
      "chip": "ym2612"
    },
    {
      "channel": 3,
      "note": 72,
      "start": 23.6931,
      "duration": 0.1625,
      "velocity": 125,
      "chip": "ym2612"
    },
    {
      "channel": 0,
      "note": 52,
      "start": 23.7383,
      "duration": 0.1324,
      "velocity": 112,
      "chip": "ym2612"
    },
    {
      "channel": 2,
      "note": 71,
      "start": 23.7388,
      "duration": 0.1164,
      "velocity": 127,
      "chip": "ym2612"
    },
    {
      "channel": 1,
      "note": 90,
      "start": 23.8552,
      "duration": 0.0159,
      "velocity": 125,
      "chip": "ym2612"
    },
    {
      "channel": 2,
      "note": 71,
      "start": 23.8555,
      "duration": 0.0087,
      "velocity": 127,
      "chip": "ym2612"
    },
    {
      "channel": 3,
      "note": 73,
      "start": 23.8558,
      "duration": 0.0159,
      "velocity": 125,
      "chip": "ym2612"
    },
    {
      "channel": 4,
      "note": 81,
      "start": 23.8586,
      "duration": 0.0683,
      "velocity": 122,
      "chip": "ym2612"
    },
    {
      "channel": 0,
      "note": 53,
      "start": 23.871,
      "duration": 0.0091,
      "velocity": 112,
      "chip": "ym2612"
    },
    {
      "channel": 2,
      "note": 71,
      "start": 23.8715,
      "duration": 0.009,
      "velocity": 127,
      "chip": "ym2612"
    },
    {
      "channel": 0,
      "note": 54,
      "start": 23.8804,
      "duration": 0.0443,
      "velocity": 112,
      "chip": "ym2612"
    },
    {
      "channel": 2,
      "note": 71,
      "start": 23.8808,
      "duration": 0.0441,
      "velocity": 127,
      "chip": "ym2612"
    },
    {
      "channel": 2,
      "note": 71,
      "start": 23.9251,
      "duration": 0.0449,
      "velocity": 127,
      "chip": "ym2612"
    },
    {
      "channel": 4,
      "note": 79,
      "start": 23.927,
      "duration": 0.3567,
      "velocity": 122,
      "chip": "ym2612"
    },
    {
      "channel": 0,
      "note": 57,
      "start": 23.9365,
      "duration": 0.0663,
      "velocity": 112,
      "chip": "ym2612"
    },
    {
      "channel": 1,
      "note": 93,
      "start": 23.97,
      "duration": 0.1166,
      "velocity": 125,
      "chip": "ym2612"
    },
    {
      "channel": 3,
      "note": 88,
      "start": 23.9704,
      "duration": 0.1169,
      "velocity": 125,
      "chip": "ym2612"
    },
    {
      "channel": 0,
      "note": 62,
      "start": 24.0032,
      "duration": 0.083,
      "velocity": 112,
      "chip": "ym2612"
    },
    {
      "channel": 0,
      "note": 67,
      "start": 24.0865,
      "duration": 0.1613,
      "velocity": 112,
      "chip": "ym2612"
    },
    {
      "channel": 1,
      "note": 93,
      "start": 24.0868,
      "duration": 0.1163,
      "velocity": 125,
      "chip": "ym2612"
    },
    {
      "channel": 2,
      "note": 71,
      "start": 24.0872,
      "duration": 0.1161,
      "velocity": 127,
      "chip": "ym2612"
    },
    {
      "channel": 3,
      "note": 88,
      "start": 24.0874,
      "duration": 0.1161,
      "velocity": 125,
      "chip": "ym2612"
    },
    {
      "channel": 1,
      "note": 93,
      "start": 24.2032,
      "duration": 0.0449,
      "velocity": 125,
      "chip": "ym2612"
    },
    {
      "channel": 2,
      "note": 71,
      "start": 24.2035,
      "duration": 0.0449,
      "velocity": 127,
      "chip": "ym2612"
    },
    {
      "channel": 3,
      "note": 88,
      "start": 24.2037,
      "duration": 0.0447,
      "velocity": 125,
      "chip": "ym2612"
    },
    {
      "channel": 0,
      "note": 67,
      "start": 24.2481,
      "duration": 0.0125,
      "velocity": 112,
      "chip": "ym2612"
    },
    {
      "channel": 1,
      "note": 95,
      "start": 24.2483,
      "duration": 0.0063,
      "velocity": 125,
      "chip": "ym2612"
    },
    {
      "channel": 3,
      "note": 90,
      "start": 24.2486,
      "duration": 0.0064,
      "velocity": 125,
      "chip": "ym2612"
    },
    {
      "channel": 2,
      "note": 71,
      "start": 24.2549,
      "duration": 0.0061,
      "velocity": 127,
      "chip": "ym2612"
    },
    {
      "channel": 0,
      "note": 55,
      "start": 24.2608,
      "duration": 0.0892,
      "velocity": 112,
      "chip": "ym2612"
    },
    {
      "channel": 4,
      "note": 74,
      "start": 24.284,
      "duration": 0.2899,
      "velocity": 122,
      "chip": "ym2612"
    },
    {
      "channel": 0,
      "note": 66,
      "start": 24.3503,
      "duration": 0.1263,
      "velocity": 112,
      "chip": "ym2612"
    },
    {
      "channel": 1,
      "note": 88,
      "start": 24.3506,
      "duration": 0.1163,
      "velocity": 125,
      "chip": "ym2612"
    },
    {
      "channel": 2,
      "note": 71,
      "start": 24.351,
      "duration": 0.1161,
      "velocity": 127,
      "chip": "ym2612"
    },
    {
      "channel": 3,
      "note": 83,
      "start": 24.3513,
      "duration": 0.1162,
      "velocity": 125,
      "chip": "ym2612"
    },
    {
      "channel": 2,
      "note": 71,
      "start": 24.4674,
      "duration": 0.0097,
      "velocity": 127,
      "chip": "ym2612"
    },
    {
      "channel": 0,
      "note": 55,
      "start": 24.4768,
      "duration": 0.0447,
      "velocity": 112,
      "chip": "ym2612"
    },
    {
      "channel": 1,
      "note": 88,
      "start": 24.4771,
      "duration": 0.0449,
      "velocity": 125,
      "chip": "ym2612"
    },
    {
      "channel": 2,
      "note": 71,
      "start": 24.4773,
      "duration": 0.0449,
      "velocity": 127,
      "chip": "ym2612"
    },
    {
      "channel": 3,
      "note": 83,
      "start": 24.4776,
      "duration": 0.045,
      "velocity": 125,
      "chip": "ym2612"
    },
    {
      "channel": 0,
      "note": 64,
      "start": 24.5218,
      "duration": 0.0477,
      "velocity": 112,
      "chip": "ym2612"
    },
    {
      "channel": 1,
      "note": 88,
      "start": 24.5222,
      "duration": 0.0194,
      "velocity": 125,
      "chip": "ym2612"
    },
    {
      "channel": 2,
      "note": 71,
      "start": 24.5225,
      "duration": 0.0192,
      "velocity": 127,
      "chip": "ym2612"
    },
    {
      "channel": 3,
      "note": 83,
      "start": 24.5227,
      "duration": 0.0192,
      "velocity": 125,
      "chip": "ym2612"
    },
    {
      "channel": 1,
      "note": 88,
      "start": 24.5417,
      "duration": 0.0283,
      "velocity": 125,
      "chip": "ym2612"
    },
    {
      "channel": 2,
      "note": 71,
      "start": 24.5419,
      "duration": 0.0283,
      "velocity": 127,
      "chip": "ym2612"
    },
    {
      "channel": 3,
      "note": 83,
      "start": 24.5421,
      "duration": 0.0282,
      "velocity": 125,
      "chip": "ym2612"
    },
    {
      "channel": 0,
      "note": 62,
      "start": 24.5698,
      "duration": 0.053,
      "velocity": 112,
      "chip": "ym2612"
    },
    {
      "channel": 1,
      "note": 90,
      "start": 24.5701,
      "duration": 0.0084,
      "velocity": 125,
      "chip": "ym2612"
    },
    {
      "channel": 3,
      "note": 85,
      "start": 24.5704,
      "duration": 0.0082,
      "velocity": 125,
      "chip": "ym2612"
    },
    {
      "channel": 4,
      "note": 71,
      "start": 24.574,
      "duration": 0.478,
      "velocity": 122,
      "chip": "ym2612"
    },
    {
      "channel": 0,
      "note": 55,
      "start": 24.6231,
      "duration": 0.1163,
      "velocity": 112,
      "chip": "ym2612"
    },
    {
      "channel": 2,
      "note": 71,
      "start": 24.6237,
      "duration": 0.1162,
      "velocity": 127,
      "chip": "ym2612"
    },
    {
      "channel": 0,
      "note": 64,
      "start": 24.7398,
      "duration": 0.1617,
      "velocity": 112,
      "chip": "ym2612"
    },
    {
      "channel": 2,
      "note": 71,
      "start": 24.7402,
      "duration": 0.1163,
      "velocity": 127,
      "chip": "ym2612"
    },
    {
      "channel": 1,
      "note": 93,
      "start": 24.8565,
      "duration": 0.2619,
      "velocity": 125,
      "chip": "ym2612"
    },
    {
      "channel": 2,
      "note": 71,
      "start": 24.8568,
      "duration": 0.0452,
      "velocity": 127,
      "chip": "ym2612"
    },
    {
      "channel": 3,
      "note": 88,
      "start": 24.857,
      "duration": 0.2618,
      "velocity": 125,
      "chip": "ym2612"
    },
    {
      "channel": 0,
      "note": 57,
      "start": 24.9018,
      "duration": 0.2615,
      "velocity": 112,
      "chip": "ym2612"
    },
    {
      "channel": 2,
      "note": 71,
      "start": 24.9023,
      "duration": 0.1162,
      "velocity": 127,
      "chip": "ym2612"
    },
    {
      "channel": 2,
      "note": 71,
      "start": 25.0188,
      "duration": 0.0998,
      "velocity": 127,
      "chip": "ym2612"
    },
    {
      "channel": 4,
      "note": 76,
      "start": 25.0523,
      "duration": 0.3089,
      "velocity": 122,
      "chip": "ym2612"
    },
    {
      "channel": 1,
      "note": 90,
      "start": 25.1186,
      "duration": 0.0595,
      "velocity": 125,
      "chip": "ym2612"
    },
    {
      "channel": 2,
      "note": 71,
      "start": 25.1188,
      "duration": 0.045,
      "velocity": 127,
      "chip": "ym2612"
    },
    {
      "channel": 3,
      "note": 85,
      "start": 25.119,
      "duration": 0.0595,
      "velocity": 125,
      "chip": "ym2612"
    },
    {
      "channel": 0,
      "note": 69,
      "start": 25.1636,
      "duration": 0.0141,
      "velocity": 112,
      "chip": "ym2612"
    },
    {
      "channel": 2,
      "note": 71,
      "start": 25.164,
      "duration": 0.0075,
      "velocity": 127,
      "chip": "ym2612"
    },
    {
      "channel": 0,
      "note": 57,
      "start": 25.178,
      "duration": 0.1042,
      "velocity": 112,
      "chip": "ym2612"
    },
    {
      "channel": 1,
      "note": 93,
      "start": 25.1781,
      "duration": 0.2663,
      "velocity": 125,
      "chip": "ym2612"
    },
    {
      "channel": 2,
      "note": 71,
      "start": 25.1784,
      "duration": 0.1043,
      "velocity": 127,
      "chip": "ym2612"
    },
    {
      "channel": 3,
      "note": 88,
      "start": 25.1786,
      "duration": 0.2663,
      "velocity": 125,
      "chip": "ym2612"
    },
    {
      "channel": 0,
      "note": 67,
      "start": 25.2825,
      "duration": 0.1615,
      "velocity": 112,
      "chip": "ym2612"
    },
    {
      "channel": 2,
      "note": 71,
      "start": 25.2829,
      "duration": 0.0447,
      "velocity": 127,
      "chip": "ym2612"
    },
    {
      "channel": 2,
      "note": 71,
      "start": 25.328,
      "duration": 0.1166,
      "velocity": 127,
      "chip": "ym2612"
    },
    {
      "channel": 4,
      "note": 73,
      "start": 25.3615,
      "duration": 0.2032,
      "velocity": 122,
      "chip": "ym2612"
    },
    {
      "channel": 0,
      "note": 57,
      "start": 25.4443,
      "duration": 0.0283,
      "velocity": 112,
      "chip": "ym2612"
    },
    {
      "channel": 1,
      "note": 93,
      "start": 25.4446,
      "duration": 0.1165,
      "velocity": 125,
      "chip": "ym2612"
    },
    {
      "channel": 2,
      "note": 71,
      "start": 25.4448,
      "duration": 0.0283,
      "velocity": 127,
      "chip": "ym2612"
    },
    {
      "channel": 3,
      "note": 88,
      "start": 25.4451,
      "duration": 0.1166,
      "velocity": 125,
      "chip": "ym2612"
    },
    {
      "channel": 0,
      "note": 66,
      "start": 25.4729,
      "duration": 0.0877,
      "velocity": 112,
      "chip": "ym2612"
    },
    {
      "channel": 2,
      "note": 71,
      "start": 25.4734,
      "duration": 0.0449,
      "velocity": 127,
      "chip": "ym2612"
    },
    {
      "channel": 2,
      "note": 71,
      "start": 25.5185,
      "duration": 0.0429,
      "velocity": 127,
      "chip": "ym2612"
    },
    {
      "channel": 0,
      "note": 57,
      "start": 25.561,
      "duration": 0.01,
      "velocity": 112,
      "chip": "ym2612"
    },
    {
      "channel": 1,
      "note": 90,
      "start": 25.5613,
      "duration": 0.0198,
      "velocity": 125,
      "chip": "ym2612"
    },
    {
      "channel": 2,
      "note": 71,
      "start": 25.5616,
      "duration": 0.01,
      "velocity": 127,
      "chip": "ym2612"
    },
    {
      "channel": 3,
      "note": 85,
      "start": 25.5619,
      "duration": 0.0198,
      "velocity": 125,
      "chip": "ym2612"
    },
    {
      "channel": 4,
      "note": 81,
      "start": 25.5649,
      "duration": 0.0446,
      "velocity": 122,
      "chip": "ym2612"
    },
    {
      "channel": 0,
      "note": 64,
      "start": 25.5713,
      "duration": 0.0199,
      "velocity": 112,
      "chip": "ym2612"
    },
    {
      "channel": 2,
      "note": 71,
      "start": 25.5718,
      "duration": 0.0095,
      "velocity": 127,
      "chip": "ym2612"
    },
    {
      "channel": 1,
      "note": 93,
      "start": 25.5813,
      "duration": 0.0261,
      "velocity": 125,
      "chip": "ym2612"
    },
    {
      "channel": 2,
      "note": 71,
      "start": 25.5816,
      "duration": 0.01,
      "velocity": 127,
      "chip": "ym2612"
    },
    {
      "channel": 3,
      "note": 88,
      "start": 25.5819,
      "duration": 0.0261,
      "velocity": 125,
      "chip": "ym2612"
    },
    {
      "channel": 0,
      "note": 57,
      "start": 25.5914,
      "duration": 0.0157,
      "velocity": 112,
      "chip": "ym2612"
    },
    {
      "channel": 2,
      "note": 71,
      "start": 25.5918,
      "duration": 0.0156,
      "velocity": 127,
      "chip": "ym2612"
    },
    {
      "channel": 2,
      "note": 71,
      "start": 25.6077,
      "duration": 0.0285,
      "velocity": 127,
      "chip": "ym2612"
    },
    {
      "channel": 4,
      "note": 71,
      "start": 25.6097,
      "duration": 0.6369,
      "velocity": 122,
      "chip": "ym2612"
    },
    {
      "channel": 0,
      "note": 59,
      "start": 25.6358,
      "duration": 0.1163,
      "velocity": 112,
      "chip": "ym2612"
    },
    {
      "channel": 1,
      "note": 93,
      "start": 25.6361,
      "duration": 0.1164,
      "velocity": 125,
      "chip": "ym2612"
    },
    {
      "channel": 2,
      "note": 71,
      "start": 25.6364,
      "duration": 0.1164,
      "velocity": 127,
      "chip": "ym2612"
    },
    {
      "channel": 3,
      "note": 88,
      "start": 25.6367,
      "duration": 0.1164,
      "velocity": 125,
      "chip": "ym2612"
    },
    {
      "channel": 0,
      "note": 47,
      "start": 25.7524,
      "duration": 0.1164,
      "velocity": 112,
      "chip": "ym2612"
    },
    {
      "channel": 1,
      "note": 93,
      "start": 25.7527,
      "duration": 0.1165,
      "velocity": 125,
      "chip": "ym2612"
    },
    {
      "channel": 2,
      "note": 71,
      "start": 25.7531,
      "duration": 0.1164,
      "velocity": 127,
      "chip": "ym2612"
    },
    {
      "channel": 3,
      "note": 88,
      "start": 25.7534,
      "duration": 0.1164,
      "velocity": 125,
      "chip": "ym2612"
    },
    {
      "channel": 0,
      "note": 59,
      "start": 25.8692,
      "duration": 0.0448,
      "velocity": 112,
      "chip": "ym2612"
    },
    {
      "channel": 1,
      "note": 93,
      "start": 25.8694,
      "duration": 0.045,
      "velocity": 125,
      "chip": "ym2612"
    },
    {
      "channel": 2,
      "note": 71,
      "start": 25.8696,
      "duration": 0.0449,
      "velocity": 127,
      "chip": "ym2612"
    },
    {
      "channel": 3,
      "note": 88,
      "start": 25.8699,
      "duration": 0.0449,
      "velocity": 125,
      "chip": "ym2612"
    },
    {
      "channel": 0,
      "note": 57,
      "start": 25.9143,
      "duration": 0.0081,
      "velocity": 112,
      "chip": "ym2612"
    },
    {
      "channel": 1,
      "note": 95,
      "start": 25.9145,
      "duration": 0.0082,
      "velocity": 125,
      "chip": "ym2612"
    },
    {
      "channel": 2,
      "note": 71,
      "start": 25.9148,
      "duration": 0.0079,
      "velocity": 127,
      "chip": "ym2612"
    },
    {
      "channel": 3,
      "note": 90,
      "start": 25.915,
      "duration": 0.0081,
      "velocity": 125,
      "chip": "ym2612"
    },
    {
      "channel": 0,
      "note": 59,
      "start": 25.9226,
      "duration": 0.0064,
      "velocity": 112,
      "chip": "ym2612"
    },
    {
      "channel": 2,
      "note": 71,
      "start": 25.9231,
      "duration": 0.0063,
      "velocity": 127,
      "chip": "ym2612"
    },
    {
      "channel": 0,
      "note": 55,
      "start": 25.9292,
      "duration": 0.2136,
      "velocity": 112,
      "chip": "ym2612"
    },
    {
      "channel": 2,
      "note": 71,
      "start": 25.9296,
      "duration": 0.1044,
      "velocity": 127,
      "chip": "ym2612"
    },
    {
      "channel": 1,
      "note": 88,
      "start": 26.0339,
      "duration": 0.0998,
      "velocity": 125,
      "chip": "ym2612"
    },
    {
      "channel": 3,
      "note": 83,
      "start": 26.0344,
      "duration": 0.0998,
      "velocity": 125,
      "chip": "ym2612"
    },
    {
      "channel": 2,
      "note": 71,
      "start": 26.1341,
      "duration": 0.0094,
      "velocity": 127,
      "chip": "ym2612"
    },
    {
      "channel": 0,
      "note": 59,
      "start": 26.1432,
      "duration": 0.0452,
      "velocity": 112,
      "chip": "ym2612"
    },
    {
      "channel": 1,
      "note": 88,
      "start": 26.1434,
      "duration": 0.0454,
      "velocity": 125,
      "chip": "ym2612"
    },
    {
      "channel": 2,
      "note": 71,
      "start": 26.1437,
      "duration": 0.0453,
      "velocity": 127,
      "chip": "ym2612"
    },
    {
      "channel": 3,
      "note": 83,
      "start": 26.1439,
      "duration": 0.0452,
      "velocity": 125,
      "chip": "ym2612"
    },
    {
      "channel": 0,
      "note": 54,
      "start": 26.1888,
      "duration": 0.0542,
      "velocity": 112,
      "chip": "ym2612"
    },
    {
      "channel": 1,
      "note": 88,
      "start": 26.189,
      "duration": 0.0087,
      "velocity": 125,
      "chip": "ym2612"
    },
    {
      "channel": 3,
      "note": 83,
      "start": 26.1893,
      "duration": 0.0088,
      "velocity": 125,
      "chip": "ym2612"
    },
    {
      "channel": 1,
      "note": 88,
      "start": 26.1978,
      "duration": 0.0455,
      "velocity": 125,
      "chip": "ym2612"
    },
    {
      "channel": 2,
      "note": 71,
      "start": 26.198,
      "duration": 0.0455,
      "velocity": 127,
      "chip": "ym2612"
    },
    {
      "channel": 3,
      "note": 83,
      "start": 26.1983,
      "duration": 0.0456,
      "velocity": 125,
      "chip": "ym2612"
    },
    {
      "channel": 0,
      "note": 52,
      "start": 26.2432,
      "duration": 0.0536,
      "velocity": 112,
      "chip": "ym2612"
    },
    {
      "channel": 1,
      "note": 90,
      "start": 26.2434,
      "duration": 0.0091,
      "velocity": 125,
      "chip": "ym2612"
    },
    {
      "channel": 2,
      "note": 71,
      "start": 26.2438,
      "duration": 0.0089,
      "velocity": 127,
      "chip": "ym2612"
    },
    {
      "channel": 3,
      "note": 85,
      "start": 26.244,
      "duration": 0.0087,
      "velocity": 125,
      "chip": "ym2612"
    },
    {
      "channel": 4,
      "note": 78,
      "start": 26.2468,
      "duration": 0.0838,
      "velocity": 122,
      "chip": "ym2612"
    },
    {
      "channel": 0,
      "note": 59,
      "start": 26.2971,
      "duration": 0.0997,
      "velocity": 112,
      "chip": "ym2612"
    },
    {
      "channel": 2,
      "note": 71,
      "start": 26.2977,
      "duration": 0.0998,
      "velocity": 127,
      "chip": "ym2612"
    },
    {
      "channel": 4,
      "note": 76,
      "start": 26.3309,
      "duration": 0.5427,
      "velocity": 122,
      "chip": "ym2612"
    },
    {
      "channel": 0,
      "note": 47,
      "start": 26.3971,
      "duration": 0.1164,
      "velocity": 112,
      "chip": "ym2612"
    },
    {
      "channel": 1,
      "note": 81,
      "start": 26.3975,
      "duration": 0.1165,
      "velocity": 125,
      "chip": "ym2612"
    },
    {
      "channel": 2,
      "note": 71,
      "start": 26.3978,
      "duration": 0.1162,
      "velocity": 127,
      "chip": "ym2612"
    },
    {
      "channel": 3,
      "note": 76,
      "start": 26.3981,
      "duration": 0.1162,
      "velocity": 125,
      "chip": "ym2612"
    },
    {
      "channel": 0,
      "note": 47,
      "start": 26.5138,
      "duration": 0.0447,
      "velocity": 112,
      "chip": "ym2612"
    },
    {
      "channel": 2,
      "note": 71,
      "start": 26.5142,
      "duration": 0.045,
      "velocity": 127,
      "chip": "ym2612"
    },
    {
      "channel": 0,
      "note": 59,
      "start": 26.5589,
      "duration": 0.1163,
      "velocity": 112,
      "chip": "ym2612"
    },
    {
      "channel": 1,
      "note": 81,
      "start": 26.5592,
      "duration": 0.1164,
      "velocity": 125,
      "chip": "ym2612"
    },
    {
      "channel": 3,
      "note": 76,
      "start": 26.5596,
      "duration": 0.1166,
      "velocity": 125,
      "chip": "ym2612"
    },
    {
      "channel": 0,
      "note": 47,
      "start": 26.6755,
      "duration": 0.1164,
      "velocity": 112,
      "chip": "ym2612"
    },
    {
      "channel": 1,
      "note": 81,
      "start": 26.6759,
      "duration": 0.1163,
      "velocity": 125,
      "chip": "ym2612"
    },
    {
      "channel": 2,
      "note": 71,
      "start": 26.6762,
      "duration": 0.1162,
      "velocity": 127,
      "chip": "ym2612"
    },
    {
      "channel": 3,
      "note": 76,
      "start": 26.6765,
      "duration": 0.1161,
      "velocity": 125,
      "chip": "ym2612"
    },
    {
      "channel": 1,
      "note": 81,
      "start": 26.7923,
      "duration": 0.045,
      "velocity": 125,
      "chip": "ym2612"
    },
    {
      "channel": 2,
      "note": 71,
      "start": 26.7925,
      "duration": 0.045,
      "velocity": 127,
      "chip": "ym2612"
    },
    {
      "channel": 3,
      "note": 76,
      "start": 26.7928,
      "duration": 0.0451,
      "velocity": 125,
      "chip": "ym2612"
    },
    {
      "channel": 0,
      "note": 49,
      "start": 26.8373,
      "duration": 0.0082,
      "velocity": 112,
      "chip": "ym2612"
    },
    {
      "channel": 1,
      "note": 83,
      "start": 26.8375,
      "duration": 0.008,
      "velocity": 125,
      "chip": "ym2612"
    },
    {
      "channel": 2,
      "note": 71,
      "start": 26.8378,
      "duration": 0.0078,
      "velocity": 127,
      "chip": "ym2612"
    },
    {
      "channel": 3,
      "note": 78,
      "start": 26.838,
      "duration": 0.0077,
      "velocity": 125,
      "chip": "ym2612"
    },
    {
      "channel": 0,
      "note": 50,
      "start": 26.8504,
      "duration": 0.0895,
      "velocity": 112,
      "chip": "ym2612"
    },
    {
      "channel": 2,
      "note": 71,
      "start": 26.8508,
      "duration": 0.0897,
      "velocity": 127,
      "chip": "ym2612"
    },
    {
      "channel": 4,
      "note": 73,
      "start": 26.8738,
      "duration": 0.44,
      "velocity": 122,
      "chip": "ym2612"
    },
    {
      "channel": 0,
      "note": 52,
      "start": 26.9401,
      "duration": 0.0454,
      "velocity": 112,
      "chip": "ym2612"
    },
    {
      "channel": 1,
      "note": 88,
      "start": 26.9403,
      "duration": 0.2072,
      "velocity": 125,
      "chip": "ym2612"
    },
    {
      "channel": 2,
      "note": 71,
      "start": 26.9406,
      "duration": 0.0452,
      "velocity": 127,
      "chip": "ym2612"
    },
    {
      "channel": 3,
      "note": 71,
      "start": 26.9408,
      "duration": 0.207,
      "velocity": 125,
      "chip": "ym2612"
    },
    {
      "channel": 2,
      "note": 71,
      "start": 26.9861,
      "duration": 0.1166,
      "velocity": 127,
      "chip": "ym2612"
    },
    {
      "channel": 0,
      "note": 59,
      "start": 27.1024,
      "duration": 0.0448,
      "velocity": 112,
      "chip": "ym2612"
    },
    {
      "channel": 2,
      "note": 71,
      "start": 27.1028,
      "duration": 0.0449,
      "velocity": 127,
      "chip": "ym2612"
    },
    {
      "channel": 0,
      "note": 47,
      "start": 27.1475,
      "duration": 0.0453,
      "velocity": 112,
      "chip": "ym2612"
    },
    {
      "channel": 1,
      "note": 89,
      "start": 27.1477,
      "duration": 0.1622,
      "velocity": 125,
      "chip": "ym2612"
    },
    {
      "channel": 3,
      "note": 72,
      "start": 27.148,
      "duration": 0.1625,
      "velocity": 125,
      "chip": "ym2612"
    },
    {
      "channel": 2,
      "note": 71,
      "start": 27.1934,
      "duration": 0.1169,
      "velocity": 127,
      "chip": "ym2612"
    },
    {
      "channel": 0,
      "note": 59,
      "start": 27.3098,
      "duration": 0.0085,
      "velocity": 112,
      "chip": "ym2612"
    },
    {
      "channel": 1,
      "note": 90,
      "start": 27.3102,
      "duration": 0.0161,
      "velocity": 125,
      "chip": "ym2612"
    },
    {
      "channel": 2,
      "note": 71,
      "start": 27.3105,
      "duration": 0.008,
      "velocity": 127,
      "chip": "ym2612"
    },
    {
      "channel": 3,
      "note": 73,
      "start": 27.3107,
      "duration": 0.016,
      "velocity": 125,
      "chip": "ym2612"
    },
    {
      "channel": 4,
      "note": 81,
      "start": 27.314,
      "duration": 0.0687,
      "velocity": 122,
      "chip": "ym2612"
    },
    {
      "channel": 2,
      "note": 71,
      "start": 27.3187,
      "duration": 0.0077,
      "velocity": 127,
      "chip": "ym2612"
    },
    {
      "channel": 0,
      "note": 57,
      "start": 27.3262,
      "duration": 0.0099,
      "velocity": 112,
      "chip": "ym2612"
    },
    {
      "channel": 2,
      "note": 71,
      "start": 27.3266,
      "duration": 0.01,
      "velocity": 127,
      "chip": "ym2612"
    },
    {
      "channel": 0,
      "note": 59,
      "start": 27.3364,
      "duration": 0.0889,
      "velocity": 112,
      "chip": "ym2612"
    },
    {
      "channel": 2,
      "note": 71,
      "start": 27.3368,
      "duration": 0.0441,
      "velocity": 127,
      "chip": "ym2612"
    },
    {
      "channel": 4,
      "note": 79,
      "start": 27.3829,
      "duration": 0.2153,
      "velocity": 122,
      "chip": "ym2612"
    },
    {
      "channel": 0,
      "note": 55,
      "start": 27.4256,
      "duration": 0.1365,
      "velocity": 112,
      "chip": "ym2612"
    },
    {
      "channel": 1,
      "note": 93,
      "start": 27.426,
      "duration": 0.1163,
      "velocity": 125,
      "chip": "ym2612"
    },
    {
      "channel": 3,
      "note": 88,
      "start": 27.4264,
      "duration": 0.1163,
      "velocity": 125,
      "chip": "ym2612"
    },
    {
      "channel": 1,
      "note": 93,
      "start": 27.5424,
      "duration": 0.0073,
      "velocity": 125,
      "chip": "ym2612"
    },
    {
      "channel": 2,
      "note": 71,
      "start": 27.5426,
      "duration": 0.0073,
      "velocity": 127,
      "chip": "ym2612"
    },
    {
      "channel": 3,
      "note": 88,
      "start": 27.5428,
      "duration": 0.0073,
      "velocity": 125,
      "chip": "ym2612"
    },
    {
      "channel": 1,
      "note": 93,
      "start": 27.5499,
      "duration": 0.0127,
      "velocity": 125,
      "chip": "ym2612"
    },
    {
      "channel": 2,
      "note": 71,
      "start": 27.5501,
      "duration": 0.0126,
      "velocity": 127,
      "chip": "ym2612"
    },
    {
      "channel": 3,
      "note": 88,
      "start": 27.5503,
      "duration": 0.0127,
      "velocity": 125,
      "chip": "ym2612"
    },
    {
      "channel": 0,
      "note": 67,
      "start": 27.5625,
      "duration": 0.014,
      "velocity": 112,
      "chip": "ym2612"
    },
    {
      "channel": 1,
      "note": 95,
      "start": 27.5627,
      "duration": 0.0079,
      "velocity": 125,
      "chip": "ym2612"
    },
    {
      "channel": 2,
      "note": 71,
      "start": 27.563,
      "duration": 0.0078,
      "velocity": 127,
      "chip": "ym2612"
    },
    {
      "channel": 3,
      "note": 90,
      "start": 27.5632,
      "duration": 0.0078,
      "velocity": 125,
      "chip": "ym2612"
    },
    {
      "channel": 2,
      "note": 71,
      "start": 27.571,
      "duration": 0.0059,
      "velocity": 127,
      "chip": "ym2612"
    },
    {
      "channel": 0,
      "note": 55,
      "start": 27.5768,
      "duration": 0.1042,
      "velocity": 112,
      "chip": "ym2612"
    },
    {
      "channel": 2,
      "note": 71,
      "start": 27.5771,
      "duration": 0.1047,
      "velocity": 127,
      "chip": "ym2612"
    },
    {
      "channel": 4,
      "note": 74,
      "start": 27.5984,
      "duration": 0.3124,
      "velocity": 122,
      "chip": "ym2612"
    },
    {
      "channel": 0,
      "note": 66,
      "start": 27.6814,
      "duration": 0.1261,
      "velocity": 112,
      "chip": "ym2612"
    },
    {
      "channel": 1,
      "note": 88,
      "start": 27.6817,
      "duration": 0.1163,
      "velocity": 125,
      "chip": "ym2612"
    },
    {
      "channel": 3,
      "note": 83,
      "start": 27.6821,
      "duration": 0.1164,
      "velocity": 125,
      "chip": "ym2612"
    },
    {
      "channel": 2,
      "note": 71,
      "start": 27.7984,
      "duration": 0.0096,
      "velocity": 127,
      "chip": "ym2612"
    },
    {
      "channel": 0,
      "note": 55,
      "start": 27.8078,
      "duration": 0.045,
      "velocity": 112,
      "chip": "ym2612"
    },
    {
      "channel": 1,
      "note": 88,
      "start": 27.808,
      "duration": 0.0451,
      "velocity": 125,
      "chip": "ym2612"
    },
    {
      "channel": 2,
      "note": 71,
      "start": 27.8083,
      "duration": 0.0451,
      "velocity": 127,
      "chip": "ym2612"
    },
    {
      "channel": 3,
      "note": 83,
      "start": 27.8085,
      "duration": 0.0453,
      "velocity": 125,
      "chip": "ym2612"
    },
    {
      "channel": 0,
      "note": 64,
      "start": 27.8531,
      "duration": 0.0626,
      "velocity": 112,
      "chip": "ym2612"
    },
    {
      "channel": 1,
      "note": 88,
      "start": 27.8534,
      "duration": 0.0084,
      "velocity": 125,
      "chip": "ym2612"
    },
    {
      "channel": 2,
      "note": 71,
      "start": 27.8537,
      "duration": 0.0083,
      "velocity": 127,
      "chip": "ym2612"
    },
    {
      "channel": 3,
      "note": 83,
      "start": 27.8539,
      "duration": 0.0084,
      "velocity": 125,
      "chip": "ym2612"
    },
    {
      "channel": 1,
      "note": 88,
      "start": 27.862,
      "duration": 0.045,
      "velocity": 125,
      "chip": "ym2612"
    },
    {
      "channel": 2,
      "note": 71,
      "start": 27.8622,
      "duration": 0.0449,
      "velocity": 127,
      "chip": "ym2612"
    },
    {
      "channel": 3,
      "note": 83,
      "start": 27.8624,
      "duration": 0.0451,
      "velocity": 125,
      "chip": "ym2612"
    },
    {
      "channel": 1,
      "note": 90,
      "start": 27.9071,
      "duration": 0.009,
      "velocity": 125,
      "chip": "ym2612"
    },
    {
      "channel": 2,
      "note": 71,
      "start": 27.9074,
      "duration": 0.0088,
      "velocity": 127,
      "chip": "ym2612"
    },
    {
      "channel": 3,
      "note": 85,
      "start": 27.9077,
      "duration": 0.0086,
      "velocity": 125,
      "chip": "ym2612"
    },
    {
      "channel": 4,
      "note": 83,
      "start": 27.911,
      "duration": 0.2132,
      "velocity": 122,
      "chip": "ym2612"
    },
    {
      "channel": 0,
      "note": 62,
      "start": 27.916,
      "duration": 0.1612,
      "velocity": 112,
      "chip": "ym2612"
    },
    {
      "channel": 2,
      "note": 71,
      "start": 27.9612,
      "duration": 0.1163,
      "velocity": 127,
      "chip": "ym2612"
    },
    {
      "channel": 0,
      "note": 66,
      "start": 28.0775,
      "duration": 0.0142,
      "velocity": 112,
      "chip": "ym2612"
    },
    {
      "channel": 2,
      "note": 71,
      "start": 28.0778,
      "duration": 0.0063,
      "velocity": 127,
      "chip": "ym2612"
    },
    {
      "channel": 1,
      "note": 93,
      "start": 28.0841,
      "duration": 0.0817,
      "velocity": 125,
      "chip": "ym2612"
    },
    {
      "channel": 2,
      "note": 71,
      "start": 28.0844,
      "duration": 0.0078,
      "velocity": 127,
      "chip": "ym2612"
    },
    {
      "channel": 3,
      "note": 88,
      "start": 28.0846,
      "duration": 0.0816,
      "velocity": 125,
      "chip": "ym2612"
    },
    {
      "channel": 0,
      "note": 57,
      "start": 28.092,
      "duration": 0.0282,
      "velocity": 112,
      "chip": "ym2612"
    },
    {
      "channel": 2,
      "note": 71,
      "start": 28.0923,
      "duration": 0.0283,
      "velocity": 127,
      "chip": "ym2612"
    },
    {
      "channel": 0,
      "note": 69,
      "start": 28.1204,
      "duration": 0.0536,
      "velocity": 112,
      "chip": "ym2612"
    },
    {
      "channel": 2,
      "note": 71,
      "start": 28.1208,
      "duration": 0.0451,
      "velocity": 127,
      "chip": "ym2612"
    },
    {
      "channel": 4,
      "note": 81,
      "start": 28.1244,
      "duration": 0.1367,
      "velocity": 122,
      "chip": "ym2612"
    },
    {
      "channel": 1,
      "note": 90,
      "start": 28.1659,
      "duration": 0.0362,
      "velocity": 125,
      "chip": "ym2612"
    },
    {
      "channel": 2,
      "note": 71,
      "start": 28.1662,
      "duration": 0.0083,
      "velocity": 127,
      "chip": "ym2612"
    },
    {
      "channel": 3,
      "note": 85,
      "start": 28.1664,
      "duration": 0.0361,
      "velocity": 125,
      "chip": "ym2612"
    },
    {
      "channel": 0,
      "note": 57,
      "start": 28.1744,
      "duration": 0.0085,
      "velocity": 112,
      "chip": "ym2612"
    },
    {
      "channel": 2,
      "note": 71,
      "start": 28.1748,
      "duration": 0.0086,
      "velocity": 127,
      "chip": "ym2612"
    },
    {
      "channel": 0,
      "note": 69,
      "start": 28.1832,
      "duration": 0.0638,
      "velocity": 112,
      "chip": "ym2612"
    },
    {
      "channel": 1,
      "note": 93,
      "start": 28.2022,
      "duration": 0.0827,
      "velocity": 125,
      "chip": "ym2612"
    },
    {
      "channel": 2,
      "note": 71,
      "start": 28.2025,
      "duration": 0.045,
      "velocity": 127,
      "chip": "ym2612"
    },
    {
      "channel": 3,
      "note": 88,
      "start": 28.2027,
      "duration": 0.0827,
      "velocity": 125,
      "chip": "ym2612"
    },
    {
      "channel": 0,
      "note": 57,
      "start": 28.2473,
      "duration": 0.0098,
      "velocity": 112,
      "chip": "ym2612"
    },
    {
      "channel": 2,
      "note": 71,
      "start": 28.2477,
      "duration": 0.01,
      "velocity": 127,
      "chip": "ym2612"
    },
    {
      "channel": 0,
      "note": 66,
      "start": 28.2575,
      "duration": 0.0728,
      "velocity": 112,
      "chip": "ym2612"
    },
    {
      "channel": 2,
      "note": 71,
      "start": 28.2578,
      "duration": 0.0273,
      "velocity": 127,
      "chip": "ym2612"
    },
    {
      "channel": 4,
      "note": 76,
      "start": 28.2613,
      "duration": 0.2346,
      "velocity": 122,
      "chip": "ym2612"
    },
    {
      "channel": 1,
      "note": 93,
      "start": 28.285,
      "duration": 0.2072,
      "velocity": 125,
      "chip": "ym2612"
    },
    {
      "channel": 2,
      "note": 71,
      "start": 28.2854,
      "duration": 0.0455,
      "velocity": 127,
      "chip": "ym2612"
    },
    {
      "channel": 3,
      "note": 88,
      "start": 28.2856,
      "duration": 0.2073,
      "velocity": 125,
      "chip": "ym2612"
    },
    {
      "channel": 0,
      "note": 57,
      "start": 28.3306,
      "duration": 0.1163,
      "velocity": 112,
      "chip": "ym2612"
    },
    {
      "channel": 0,
      "note": 64,
      "start": 28.4473,
      "duration": 0.0551,
      "velocity": 112,
      "chip": "ym2612"
    },
    {
      "channel": 2,
      "note": 71,
      "start": 28.4477,
      "duration": 0.0448,
      "velocity": 127,
      "chip": "ym2612"
    },
    {
      "channel": 1,
      "note": 90,
      "start": 28.4924,
      "duration": 0.0202,
      "velocity": 125,
      "chip": "ym2612"
    },
    {
      "channel": 2,
      "note": 71,
      "start": 28.4928,
      "duration": 0.0099,
      "velocity": 127,
      "chip": "ym2612"
    },
    {
      "channel": 3,
      "note": 85,
      "start": 28.4931,
      "duration": 0.0198,
      "velocity": 125,
      "chip": "ym2612"
    },
    {
      "channel": 4,
      "note": 85,
      "start": 28.4961,
      "duration": 0.0393,
      "velocity": 122,
      "chip": "ym2612"
    },
    {
      "channel": 0,
      "note": 57,
      "start": 28.5026,
      "duration": 0.0096,
      "velocity": 112,
      "chip": "ym2612"
    },
    {
      "channel": 2,
      "note": 71,
      "start": 28.5031,
      "duration": 0.0097,
      "velocity": 127,
      "chip": "ym2612"
    },
    {
      "channel": 0,
      "note": 64,
      "start": 28.5125,
      "duration": 0.0164,
      "velocity": 109,
      "chip": "ym2612"
    },
    {
      "channel": 1,
      "note": 93,
      "start": 28.5128,
      "duration": 0.0175,
      "velocity": 127,
      "chip": "ym2612"
    },
    {
      "channel": 3,
      "note": 88,
      "start": 28.5132,
      "duration": 0.0187,
      "velocity": 125,
      "chip": "ym2612"
    },
    {
      "channel": 0,
      "note": 47,
      "start": 28.5292,
      "duration": 0.135,
      "velocity": 109,
      "chip": "ym2612"
    },
    {
      "channel": 1,
      "note": 83,
      "start": 28.5306,
      "duration": 0.134,
      "velocity": 127,
      "chip": "ym2612"
    },
    {
      "channel": 2,
      "note": 71,
      "start": 28.5316,
      "duration": 0.0429,
      "velocity": 127,
      "chip": "ym2612"
    },
    {
      "channel": 3,
      "note": 87,
      "start": 28.532,
      "duration": 0.1331,
      "velocity": 125,
      "chip": "ym2612"
    },
    {
      "channel": 4,
      "note": 83,
      "start": 28.5355,
      "duration": 0.132,
      "velocity": 122,
      "chip": "ym2612"
    },
    {
      "channel": 2,
      "note": 75,
      "start": 28.5747,
      "duration": 0.0446,
      "velocity": 127,
      "chip": "ym2612"
    },
    {
      "channel": 2,
      "note": 77,
      "start": 28.6195,
      "duration": 0.0453,
      "velocity": 127,
      "chip": "ym2612"
    },
    {
      "channel": 0,
      "note": 48,
      "start": 28.6645,
      "duration": 0.0628,
      "velocity": 109,
      "chip": "ym2612"
    },
    {
      "channel": 1,
      "note": 79,
      "start": 28.6648,
      "duration": 0.0629,
      "velocity": 127,
      "chip": "ym2612"
    },
    {
      "channel": 2,
      "note": 73,
      "start": 28.665,
      "duration": 0.0449,
      "velocity": 127,
      "chip": "ym2612"
    },
    {
      "channel": 3,
      "note": 83,
      "start": 28.6652,
      "duration": 0.0629,
      "velocity": 125,
      "chip": "ym2612"
    },
    {
      "channel": 4,
      "note": 79,
      "start": 28.6677,
      "duration": 0.0629,
      "velocity": 122,
      "chip": "ym2612"
    },
    {
      "channel": 2,
      "note": 79,
      "start": 28.7101,
      "duration": 0.0083,
      "velocity": 127,
      "chip": "ym2612"
    },
    {
      "channel": 2,
      "note": 75,
      "start": 28.7187,
      "duration": 0.0091,
      "velocity": 127,
      "chip": "ym2612"
    },
    {
      "channel": 0,
      "note": 50,
      "start": 28.7276,
      "duration": 0.044,
      "velocity": 109,
      "chip": "ym2612"
    },
    {
      "channel": 1,
      "note": 81,
      "start": 28.7278,
      "duration": 0.0441,
      "velocity": 127,
      "chip": "ym2612"
    },
    {
      "channel": 2,
      "note": 81,
      "start": 28.7281,
      "duration": 0.0284,
      "velocity": 127,
      "chip": "ym2612"
    },
    {
      "channel": 3,
      "note": 85,
      "start": 28.7283,
      "duration": 0.0441,
      "velocity": 125,
      "chip": "ym2612"
    },
    {
      "channel": 4,
      "note": 81,
      "start": 28.7308,
      "duration": 0.0441,
      "velocity": 122,
      "chip": "ym2612"
    },
    {
      "channel": 2,
      "note": 77,
      "start": 28.7567,
      "duration": 0.0071,
      "velocity": 127,
      "chip": "ym2612"
    },
    {
      "channel": 2,
      "note": 83,
      "start": 28.7639,
      "duration": 0.0082,
      "velocity": 127,
      "chip": "ym2612"
    },
    {
      "channel": 0,
      "note": 47,
      "start": 28.7718,
      "duration": 0.1702,
      "velocity": 109,
      "chip": "ym2612"
    },
    {
      "channel": 1,
      "note": 77,
      "start": 28.7721,
      "duration": 0.1703,
      "velocity": 127,
      "chip": "ym2612"
    },
    {
      "channel": 2,
      "note": 79,
      "start": 28.7723,
      "duration": 0.0081,
      "velocity": 127,
      "chip": "ym2612"
    },
    {
      "channel": 3,
      "note": 81,
      "start": 28.7726,
      "duration": 0.1703,
      "velocity": 125,
      "chip": "ym2612"
    },
    {
      "channel": 4,
      "note": 77,
      "start": 28.7751,
      "duration": 0.1704,
      "velocity": 122,
      "chip": "ym2612"
    },
    {
      "channel": 2,
      "note": 81,
      "start": 28.7807,
      "duration": 0.0449,
      "velocity": 127,
      "chip": "ym2612"
    },
    {
      "channel": 2,
      "note": 85,
      "start": 28.8259,
      "duration": 0.1167,
      "velocity": 127,
      "chip": "ym2612"
    },
    {
      "channel": 0,
      "note": 50,
      "start": 28.9423,
      "duration": 0.0351,
      "velocity": 109,
      "chip": "ym2612"
    },
    {
      "channel": 1,
      "note": 87,
      "start": 28.9426,
      "duration": 0.0352,
      "velocity": 127,
      "chip": "ym2612"
    },
    {
      "channel": 2,
      "note": 87,
      "start": 28.9428,
      "duration": 0.0086,
      "velocity": 127,
      "chip": "ym2612"
    },
    {
      "channel": 3,
      "note": 79,
      "start": 28.943,
      "duration": 0.0352,
      "velocity": 125,
      "chip": "ym2612"
    },
    {
      "channel": 4,
      "note": 87,
      "start": 28.9456,
      "duration": 0.0361,
      "velocity": 122,
      "chip": "ym2612"
    },
    {
      "channel": 2,
      "note": 83,
      "start": 28.9517,
      "duration": 0.0263,
      "velocity": 127,
      "chip": "ym2612"
    },
    {
      "channel": 0,
      "note": 51,
      "start": 28.9777,
      "duration": 0.0274,
      "velocity": 109,
      "chip": "ym2612"
    },
    {
      "channel": 1,
      "note": 95,
      "start": 28.9779,
      "duration": 0.0276,
      "velocity": 127,
      "chip": "ym2612"
    },
    {
      "channel": 2,
      "note": 85,
      "start": 28.9782,
      "duration": 0.0135,
      "velocity": 127,
      "chip": "ym2612"
    },
    {
      "channel": 3,
      "note": 87,
      "start": 28.9783,
      "duration": 0.0277,
      "velocity": 125,
      "chip": "ym2612"
    },
    {
      "channel": 4,
      "note": 95,
      "start": 28.9819,
      "duration": 0.0266,
      "velocity": 122,
      "chip": "ym2612"
    },
    {
      "channel": 2,
      "note": 81,
      "start": 28.9918,
      "duration": 0.0139,
      "velocity": 127,
      "chip": "ym2612"
    },
    {
      "channel": 0,
      "note": 47,
      "start": 29.0054,
      "duration": 0.1702,
      "velocity": 109,
      "chip": "ym2612"
    },
    {
      "channel": 1,
      "note": 93,
      "start": 29.0057,
      "duration": 0.1703,
      "velocity": 127,
      "chip": "ym2612"
    },
    {
      "channel": 2,
      "note": 79,
      "start": 29.006,
      "duration": 0.0081,
      "velocity": 127,
      "chip": "ym2612"
    },
    {
      "channel": 3,
      "note": 85,
      "start": 29.0062,
      "duration": 0.1703,
      "velocity": 125,
      "chip": "ym2612"
    },
    {
      "channel": 4,
      "note": 93,
      "start": 29.0086,
      "duration": 0.1704,
      "velocity": 122,
      "chip": "ym2612"
    },
    {
      "channel": 2,
      "note": 83,
      "start": 29.0143,
      "duration": 0.0449,
      "velocity": 127,
      "chip": "ym2612"
    },
    {
      "channel": 2,
      "note": 81,
      "start": 29.0595,
      "duration": 0.1167,
      "velocity": 127,
      "chip": "ym2612"
    },
    {
      "channel": 0,
      "note": 48,
      "start": 29.1759,
      "duration": 0.0605,
      "velocity": 109,
      "chip": "ym2612"
    },
    {
      "channel": 1,
      "note": 87,
      "start": 29.1762,
      "duration": 0.0607,
      "velocity": 127,
      "chip": "ym2612"
    },
    {
      "channel": 2,
      "note": 77,
      "start": 29.1764,
      "duration": 0.0081,
      "velocity": 127,
      "chip": "ym2612"
    },
    {
      "channel": 3,
      "note": 79,
      "start": 29.1766,
      "duration": 0.0608,
      "velocity": 125,
      "chip": "ym2612"
    },
    {
      "channel": 4,
      "note": 87,
      "start": 29.1791,
      "duration": 0.108,
      "velocity": 122,
      "chip": "ym2612"
    },
    {
      "channel": 2,
      "note": 79,
      "start": 29.1848,
      "duration": 0.0068,
      "velocity": 127,
      "chip": "ym2612"
    },
    {
      "channel": 2,
      "note": 75,
      "start": 29.1919,
      "duration": 0.0452,
      "velocity": 127,
      "chip": "ym2612"
    },
    {
      "channel": 0,
      "note": 50,
      "start": 29.2368,
      "duration": 0.2405,
      "velocity": 109,
      "chip": "ym2612"
    },
    {
      "channel": 1,
      "note": 91,
      "start": 29.2371,
      "duration": 0.2405,
      "velocity": 127,
      "chip": "ym2612"
    },
    {
      "channel": 2,
      "note": 77,
      "start": 29.2374,
      "duration": 0.1161,
      "velocity": 127,
      "chip": "ym2612"
    },
    {
      "channel": 3,
      "note": 83,
      "start": 29.2377,
      "duration": 0.2404,
      "velocity": 125,
      "chip": "ym2612"
    },
    {
      "channel": 4,
      "note": 91,
      "start": 29.2873,
      "duration": 0.1932,
      "velocity": 122,
      "chip": "ym2612"
    },
    {
      "channel": 2,
      "note": 73,
      "start": 29.3537,
      "duration": 0.1163,
      "velocity": 127,
      "chip": "ym2612"
    },
    {
      "channel": 2,
      "note": 71,
      "start": 29.4703,
      "duration": 0.0075,
      "velocity": 127,
      "chip": "ym2612"
    },
    {
      "channel": 0,
      "note": 51,
      "start": 29.4775,
      "duration": 0.0603,
      "velocity": 109,
      "chip": "ym2612"
    },
    {
      "channel": 1,
      "note": 83,
      "start": 29.4776,
      "duration": 0.0606,
      "velocity": 127,
      "chip": "ym2612"
    },
    {
      "channel": 2,
      "note": 75,
      "start": 29.478,
      "duration": 0.0075,
      "velocity": 127,
      "chip": "ym2612"
    },
    {
      "channel": 3,
      "note": 77,
      "start": 29.4782,
      "duration": 0.0605,
      "velocity": 125,
      "chip": "ym2612"
    },
    {
      "channel": 4,
      "note": 83,
      "start": 29.4807,
      "duration": 0.0615,
      "velocity": 122,
      "chip": "ym2612"
    },
    {
      "channel": 2,
      "note": 77,
      "start": 29.4857,
      "duration": 0.045,
      "velocity": 127,
      "chip": "ym2612"
    },
    {
      "channel": 2,
      "note": 73,
      "start": 29.5309,
      "duration": 0.0076,
      "velocity": 127,
      "chip": "ym2612"
    },
    {
      "channel": 0,
      "note": 47,
      "start": 29.5381,
      "duration": 0.0514,
      "velocity": 109,
      "chip": "ym2612"
    },
    {
      "channel": 1,
      "note": 77,
      "start": 29.5384,
      "duration": 0.0515,
      "velocity": 127,
      "chip": "ym2612"
    },
    {
      "channel": 2,
      "note": 79,
      "start": 29.5387,
      "duration": 0.0082,
      "velocity": 127,
      "chip": "ym2612"
    },
    {
      "channel": 3,
      "note": 83,
      "start": 29.5389,
      "duration": 0.0516,
      "velocity": 125,
      "chip": "ym2612"
    },
    {
      "channel": 4,
      "note": 77,
      "start": 29.5424,
      "duration": 0.0512,
      "velocity": 122,
      "chip": "ym2612"
    },
    {
      "channel": 2,
      "note": 75,
      "start": 29.5472,
      "duration": 0.043,
      "velocity": 127,
      "chip": "ym2612"
    },
    {
      "channel": 0,
      "note": 43,
      "start": 29.5898,
      "duration": 0.0307,
      "velocity": 112,
      "chip": "ym2612"
    },
    {
      "channel": 1,
      "note": 87,
      "start": 29.5902,
      "duration": 0.0316,
      "velocity": 108,
      "chip": "ym2612"
    },
    {
      "channel": 2,
      "note": 77,
      "start": 29.5904,
      "duration": 0.0196,
      "velocity": 127,
      "chip": "ym2612"
    },
    {
      "channel": 3,
      "note": 79,
      "start": 29.5906,
      "duration": 32.5778,
      "velocity": 125,
      "chip": "ym2612"
    },
    {
      "channel": 4,
      "note": 87,
      "start": 29.5939,
      "duration": 32.5745,
      "velocity": 122,
      "chip": "ym2612"
    },
    {
      "channel": 2,
      "note": 81,
      "start": 29.6102,
      "duration": 32.5582,
      "velocity": 127,
      "chip": "ym2612"
    },
    {
      "channel": 0,
      "note": 51,
      "start": 29.6209,
      "duration": 32.5476,
      "velocity": 112,
      "chip": "ym2612"
    },
    {
      "channel": 1,
      "note": 87,
      "start": 29.622,
      "duration": 32.5464,
      "velocity": 108,
      "chip": "ym2612"
    }
  ]
}