{
  "track_name": "11 - Surprise! Shock! Cave Expedition",
  "duration_sec": 28.341,
  "sample_rate": 44100,
  "note_count": 218,
  "unique_pitches": 31,
  "pitch_range": 35,
  "avg_note_duration": 0.0541,
  "reconstruction_stats": {
    "notes_reconstructed": 218,
    "keyon_events": 218,
    "keyoff_events": 218,
    "orphan_keyons": 0,
    "unique_pitches": 31,
    "pitch_range": 35,
    "avg_duration_sec": 0.0541
  },
  "metadata": {
    "source": "R\\Rent-a-Hero\\11 - Surprise! Shock! Cave Expedition.vgz"
  },
  "notes": [
    {
      "channel": 0,
      "note": 49,
      "start": 0.0,
      "duration": 0.0256,
      "velocity": 81,
      "chip": "ym2612"
    },
    {
      "channel": 0,
      "note": 52,
      "start": 0.0257,
      "duration": 0.1646,
      "velocity": 81,
      "chip": "ym2612"
    },
    {
      "channel": 1,
      "note": 78,
      "start": 0.0261,
      "duration": 0.0477,
      "velocity": 90,
      "chip": "ym2612"
    },
    {
      "channel": 2,
      "note": 70,
      "start": 0.0264,
      "duration": 0.0475,
      "velocity": 90,
      "chip": "ym2612"
    },
    {
      "channel": 0,
      "note": 51,
      "start": 0.1906,
      "duration": 0.0345,
      "velocity": 81,
      "chip": "ym2612"
    },
    {
      "channel": 0,
      "note": 54,
      "start": 0.2252,
      "duration": 0.0533,
      "velocity": 81,
      "chip": "ym2612"
    },
    {
      "channel": 3,
      "note": 75,
      "start": 0.2256,
      "duration": 0.2583,
      "velocity": 95,
      "chip": "ym2612"
    },
    {
      "channel": 4,
      "note": 80,
      "start": 0.2259,
      "duration": 0.3056,
      "velocity": 95,
      "chip": "ym2612"
    },
    {
      "channel": 0,
      "note": 50,
      "start": 0.2787,
      "duration": 0.0035,
      "velocity": 81,
      "chip": "ym2612"
    },
    {
      "channel": 0,
      "note": 53,
      "start": 0.2823,
      "duration": 0.1478,
      "velocity": 81,
      "chip": "ym2612"
    },
    {
      "channel": 0,
      "note": 49,
      "start": 0.4303,
      "duration": 0.0532,
      "velocity": 81,
      "chip": "ym2612"
    },
    {
      "channel": 0,
      "note": 52,
      "start": 0.4837,
      "duration": 0.1478,
      "velocity": 81,
      "chip": "ym2612"
    },
    {
      "channel": 3,
      "note": 78,
      "start": 0.6319,
      "duration": 0.0023,
      "velocity": 95,
      "chip": "ym2612"
    },
    {
      "channel": 4,
      "note": 73,
      "start": 0.6322,
      "duration": 0.0021,
      "velocity": 95,
      "chip": "ym2612"
    },
    {
      "channel": 0,
      "note": 51,
      "start": 0.6844,
      "duration": 0.0024,
      "velocity": 81,
      "chip": "ym2612"
    },
    {
      "channel": 1,
      "note": 78,
      "start": 0.6847,
      "duration": 0.0019,
      "velocity": 90,
      "chip": "ym2612"
    },
    {
      "channel": 2,
      "note": 68,
      "start": 0.685,
      "duration": 0.0017,
      "velocity": 90,
      "chip": "ym2612"
    },
    {
      "channel": 0,
      "note": 54,
      "start": 0.6869,
      "duration": 0.0002,
      "velocity": 81,
      "chip": "ym2612"
    },
    {
      "channel": 0,
      "note": 53,
      "start": 0.6873,
      "duration": 0.0052,
      "velocity": 81,
      "chip": "ym2612"
    },
    {
      "channel": 1,
      "note": 66,
      "start": 0.6875,
      "duration": 0.0041,
      "velocity": 90,
      "chip": "ym2612"
    },
    {
      "channel": 2,
      "note": 77,
      "start": 0.6878,
      "duration": 0.0039,
      "velocity": 90,
      "chip": "ym2612"
    },
    {
      "channel": 0,
      "note": 49,
      "start": 0.6927,
      "duration": 0.0345,
      "velocity": 81,
      "chip": "ym2612"
    },
    {
      "channel": 0,
      "note": 52,
      "start": 0.7274,
      "duration": 0.1646,
      "velocity": 81,
      "chip": "ym2612"
    },
    {
      "channel": 1,
      "note": 78,
      "start": 0.7277,
      "duration": 0.0643,
      "velocity": 90,
      "chip": "ym2612"
    },
    {
      "channel": 2,
      "note": 71,
      "start": 0.728,
      "duration": 0.0641,
      "velocity": 90,
      "chip": "ym2612"
    },
    {
      "channel": 0,
      "note": 51,
      "start": 0.8922,
      "duration": 0.0512,
      "velocity": 81,
      "chip": "ym2612"
    },
    {
      "channel": 0,
      "note": 54,
      "start": 0.9435,
      "duration": 0.0345,
      "velocity": 81,
      "chip": "ym2612"
    },
    {
      "channel": 0,
      "note": 50,
      "start": 0.9782,
      "duration": 0.0024,
      "velocity": 81,
      "chip": "ym2612"
    },
    {
      "channel": 3,
      "note": 76,
      "start": 0.9786,
      "duration": 0.0018,
      "velocity": 95,
      "chip": "ym2612"
    },
    {
      "channel": 4,
      "note": 71,
      "start": 0.9789,
      "duration": 0.0016,
      "velocity": 95,
      "chip": "ym2612"
    },
    {
      "channel": 0,
      "note": 53,
      "start": 0.9807,
      "duration": 0.148,
      "velocity": 81,
      "chip": "ym2612"
    },
    {
      "channel": 3,
      "note": 76,
      "start": 0.981,
      "duration": 0.0478,
      "velocity": 95,
      "chip": "ym2612"
    },
    {
      "channel": 4,
      "note": 71,
      "start": 0.9813,
      "duration": 0.0476,
      "velocity": 95,
      "chip": "ym2612"
    },
    {
      "channel": 0,
      "note": 56,
      "start": 1.1289,
      "duration": 0.0512,
      "velocity": 81,
      "chip": "ym2612"
    },
    {
      "channel": 0,
      "note": 55,
      "start": 1.1802,
      "duration": 0.1642,
      "velocity": 81,
      "chip": "ym2612"
    },
    {
      "channel": 0,
      "note": 54,
      "start": 1.3446,
      "duration": 0.0005,
      "velocity": 81,
      "chip": "ym2612"
    },
    {
      "channel": 0,
      "note": 58,
      "start": 1.3794,
      "duration": 0.0022,
      "velocity": 81,
      "chip": "ym2612"
    },
    {
      "channel": 3,
      "note": 75,
      "start": 1.3798,
      "duration": 0.002,
      "velocity": 95,
      "chip": "ym2612"
    },
    {
      "channel": 4,
      "note": 71,
      "start": 1.3801,
      "duration": 0.0017,
      "velocity": 95,
      "chip": "ym2612"
    },
    {
      "channel": 0,
      "note": 59,
      "start": 1.3821,
      "duration": 0.0022,
      "velocity": 81,
      "chip": "ym2612"
    },
    {
      "channel": 0,
      "note": 49,
      "start": 1.3846,
      "duration": 0.051,
      "velocity": 81,
      "chip": "ym2612"
    },
    {
      "channel": 0,
      "note": 52,
      "start": 1.4357,
      "duration": 0.1479,
      "velocity": 81,
      "chip": "ym2612"
    },
    {
      "channel": 1,
      "note": 69,
      "start": 1.436,
      "duration": 0.0477,
      "velocity": 90,
      "chip": "ym2612"
    },
    {
      "channel": 2,
      "note": 81,
      "start": 1.4363,
      "duration": 0.0475,
      "velocity": 90,
      "chip": "ym2612"
    },
    {
      "channel": 0,
      "note": 51,
      "start": 1.5838,
      "duration": 0.0521,
      "velocity": 81,
      "chip": "ym2612"
    },
    {
      "channel": 1,
      "note": 81,
      "start": 1.5841,
      "duration": 0.0019,
      "velocity": 90,
      "chip": "ym2612"
    },
    {
      "channel": 2,
      "note": 69,
      "start": 1.5844,
      "duration": 0.0016,
      "velocity": 90,
      "chip": "ym2612"
    },
    {
      "channel": 0,
      "note": 54,
      "start": 1.636,
      "duration": 0.0365,
      "velocity": 81,
      "chip": "ym2612"
    },
    {
      "channel": 3,
      "note": 75,
      "start": 1.6364,
      "duration": 0.2417,
      "velocity": 95,
      "chip": "ym2612"
    },
    {
      "channel": 4,
      "note": 80,
      "start": 1.6367,
      "duration": 0.2891,
      "velocity": 95,
      "chip": "ym2612"
    },
    {
      "channel": 0,
      "note": 50,
      "start": 1.6727,
      "duration": 0.0037,
      "velocity": 81,
      "chip": "ym2612"
    },
    {
      "channel": 0,
      "note": 53,
      "start": 1.6765,
      "duration": 0.1645,
      "velocity": 81,
      "chip": "ym2612"
    },
    {
      "channel": 0,
      "note": 49,
      "start": 1.8411,
      "duration": 0.0366,
      "velocity": 81,
      "chip": "ym2612"
    },
    {
      "channel": 0,
      "note": 52,
      "start": 1.878,
      "duration": 0.1644,
      "velocity": 81,
      "chip": "ym2612"
    },
    {
      "channel": 3,
      "note": 78,
      "start": 2.0428,
      "duration": 0.0021,
      "velocity": 95,
      "chip": "ym2612"
    },
    {
      "channel": 4,
      "note": 73,
      "start": 2.0431,
      "duration": 0.0019,
      "velocity": 95,
      "chip": "ym2612"
    },
    {
      "channel": 0,
      "note": 51,
      "start": 2.0786,
      "duration": 0.0026,
      "velocity": 81,
      "chip": "ym2612"
    },
    {
      "channel": 1,
      "note": 74,
      "start": 2.0789,
      "duration": 0.0021,
      "velocity": 90,
      "chip": "ym2612"
    },
    {
      "channel": 2,
      "note": 83,
      "start": 2.0792,
      "duration": 0.0019,
      "velocity": 90,
      "chip": "ym2612"
    },
    {
      "channel": 0,
      "note": 54,
      "start": 2.0814,
      "duration": 0.0001,
      "velocity": 81,
      "chip": "ym2612"
    },
    {
      "channel": 0,
      "note": 53,
      "start": 2.0817,
      "duration": 0.0022,
      "velocity": 81,
      "chip": "ym2612"
    },
    {
      "channel": 1,
      "note": 82,
      "start": 2.082,
      "duration": 0.0018,
      "velocity": 90,
      "chip": "ym2612"
    },
    {
      "channel": 2,
      "note": 71,
      "start": 2.0822,
      "duration": 0.0017,
      "velocity": 90,
      "chip": "ym2612"
    },
    {
      "channel": 0,
      "note": 49,
      "start": 2.0841,
      "duration": 0.0505,
      "velocity": 81,
      "chip": "ym2612"
    },
    {
      "channel": 0,
      "note": 52,
      "start": 2.1347,
      "duration": 0.1481,
      "velocity": 81,
      "chip": "ym2612"
    },
    {
      "channel": 1,
      "note": 70,
      "start": 2.135,
      "duration": 0.0478,
      "velocity": 90,
      "chip": "ym2612"
    },
    {
      "channel": 2,
      "note": 78,
      "start": 2.1354,
      "duration": 0.0476,
      "velocity": 90,
      "chip": "ym2612"
    },
    {
      "channel": 0,
      "note": 51,
      "start": 2.283,
      "duration": 0.0512,
      "velocity": 81,
      "chip": "ym2612"
    },
    {
      "channel": 0,
      "note": 54,
      "start": 2.3343,
      "duration": 0.0512,
      "velocity": 81,
      "chip": "ym2612"
    },
    {
      "channel": 0,
      "note": 50,
      "start": 2.3856,
      "duration": 0.0032,
      "velocity": 81,
      "chip": "ym2612"
    },
    {
      "channel": 3,
      "note": 76,
      "start": 2.386,
      "duration": 0.002,
      "velocity": 95,
      "chip": "ym2612"
    },
    {
      "channel": 4,
      "note": 71,
      "start": 2.3863,
      "duration": 0.0017,
      "velocity": 95,
      "chip": "ym2612"
    },
    {
      "channel": 0,
      "note": 53,
      "start": 2.389,
      "duration": 0.1647,
      "velocity": 81,
      "chip": "ym2612"
    },
    {
      "channel": 3,
      "note": 76,
      "start": 2.3895,
      "duration": 0.0477,
      "velocity": 95,
      "chip": "ym2612"
    },
    {
      "channel": 4,
      "note": 71,
      "start": 2.3898,
      "duration": 0.0475,
      "velocity": 95,
      "chip": "ym2612"
    },
    {
      "channel": 0,
      "note": 56,
      "start": 2.5539,
      "duration": 0.0345,
      "velocity": 81,
      "chip": "ym2612"
    },
    {
      "channel": 0,
      "note": 55,
      "start": 2.5886,
      "duration": 0.1648,
      "velocity": 81,
      "chip": "ym2612"
    },
    {
      "channel": 1,
      "note": 78,
      "start": 2.5889,
      "duration": 0.0645,
      "velocity": 90,
      "chip": "ym2612"
    },
    {
      "channel": 2,
      "note": 68,
      "start": 2.5893,
      "duration": 0.0643,
      "velocity": 90,
      "chip": "ym2612"
    },
    {
      "channel": 0,
      "note": 54,
      "start": 2.7536,
      "duration": 0.0005,
      "velocity": 81,
      "chip": "ym2612"
    },
    {
      "channel": 0,
      "note": 58,
      "start": 2.805,
      "duration": 0.0039,
      "velocity": 81,
      "chip": "ym2612"
    },
    {
      "channel": 1,
      "note": 66,
      "start": 2.8054,
      "duration": 0.0037,
      "velocity": 90,
      "chip": "ym2612"
    },
    {
      "channel": 2,
      "note": 77,
      "start": 2.8057,
      "duration": 0.0035,
      "velocity": 90,
      "chip": "ym2612"
    },
    {
      "channel": 3,
      "note": 75,
      "start": 2.806,
      "duration": 0.0032,
      "velocity": 95,
      "chip": "ym2612"
    },
    {
      "channel": 4,
      "note": 71,
      "start": 2.8063,
      "duration": 0.003,
      "velocity": 95,
      "chip": "ym2612"
    },
    {
      "channel": 0,
      "note": 59,
      "start": 2.8097,
      "duration": 0.0002,
      "velocity": 81,
      "chip": "ym2612"
    },
    {
      "channel": 0,
      "note": 49,
      "start": 2.8101,
      "duration": 0.0511,
      "velocity": 81,
      "chip": "ym2612"
    },
    {
      "channel": 0,
      "note": 52,
      "start": 2.8614,
      "duration": 0.1646,
      "velocity": 81,
      "chip": "ym2612"
    },
    {
      "channel": 1,
      "note": 78,
      "start": 2.8617,
      "duration": 0.0476,
      "velocity": 90,
      "chip": "ym2612"
    },
    {
      "channel": 2,
      "note": 70,
      "start": 2.862,
      "duration": 0.0474,
      "velocity": 90,
      "chip": "ym2612"
    },
    {
      "channel": 0,
      "note": 51,
      "start": 3.0261,
      "duration": 0.0345,
      "velocity": 81,
      "chip": "ym2612"
    },
    {
      "channel": 0,
      "note": 54,
      "start": 3.0608,
      "duration": 0.0532,
      "velocity": 81,
      "chip": "ym2612"
    },
    {
      "channel": 3,
      "note": 75,
      "start": 3.0612,
      "duration": 0.2757,
      "velocity": 95,
      "chip": "ym2612"
    },
    {
      "channel": 4,
      "note": 80,
      "start": 3.0615,
      "duration": 0.3231,
      "velocity": 95,
      "chip": "ym2612"
    },
    {
      "channel": 0,
      "note": 50,
      "start": 3.1142,
      "duration": 0.004,
      "velocity": 81,
      "chip": "ym2612"
    },
    {
      "channel": 0,
      "note": 53,
      "start": 3.1184,
      "duration": 0.1646,
      "velocity": 81,
      "chip": "ym2612"
    },
    {
      "channel": 0,
      "note": 49,
      "start": 3.2832,
      "duration": 0.0533,
      "velocity": 81,
      "chip": "ym2612"
    },
    {
      "channel": 0,
      "note": 52,
      "start": 3.3367,
      "duration": 0.1478,
      "velocity": 81,
      "chip": "ym2612"
    },
    {
      "channel": 3,
      "note": 78,
      "start": 3.4849,
      "duration": 0.0021,
      "velocity": 95,
      "chip": "ym2612"
    },
    {
      "channel": 4,
      "note": 73,
      "start": 3.4852,
      "duration": 0.0019,
      "velocity": 95,
      "chip": "ym2612"
    },
    {
      "channel": 0,
      "note": 51,
      "start": 3.5372,
      "duration": 0.0031,
      "velocity": 81,
      "chip": "ym2612"
    },
    {
      "channel": 1,
      "note": 78,
      "start": 3.5376,
      "duration": 0.0018,
      "velocity": 90,
      "chip": "ym2612"
    },
    {
      "channel": 2,
      "note": 68,
      "start": 3.5379,
      "duration": 0.0016,
      "velocity": 90,
      "chip": "ym2612"
    },
    {
      "channel": 0,
      "note": 54,
      "start": 3.5405,
      "duration": 0.0006,
      "velocity": 81,
      "chip": "ym2612"
    },
    {
      "channel": 0,
      "note": 53,
      "start": 3.5412,
      "duration": 0.0029,
      "velocity": 81,
      "chip": "ym2612"
    },
    {
      "channel": 1,
      "note": 66,
      "start": 3.5415,
      "duration": 0.0016,
      "velocity": 90,
      "chip": "ym2612"
    },
    {
      "channel": 2,
      "note": 77,
      "start": 3.5419,
      "duration": 0.0013,
      "velocity": 90,
      "chip": "ym2612"
    },
    {
      "channel": 0,
      "note": 49,
      "start": 3.5443,
      "duration": 0.0345,
      "velocity": 81,
      "chip": "ym2612"
    },
    {
      "channel": 0,
      "note": 52,
      "start": 3.579,
      "duration": 0.1646,
      "velocity": 81,
      "chip": "ym2612"
    },
    {
      "channel": 1,
      "note": 78,
      "start": 3.5793,
      "duration": 0.0476,
      "velocity": 90,
      "chip": "ym2612"
    },
    {
      "channel": 2,
      "note": 71,
      "start": 3.5796,
      "duration": 0.0474,
      "velocity": 90,
      "chip": "ym2612"
    },
    {
      "channel": 0,
      "note": 51,
      "start": 3.7437,
      "duration": 0.0345,
      "velocity": 81,
      "chip": "ym2612"
    },
    {
      "channel": 0,
      "note": 54,
      "start": 3.7784,
      "duration": 0.0512,
      "velocity": 81,
      "chip": "ym2612"
    },
    {
      "channel": 0,
      "note": 50,
      "start": 3.8297,
      "duration": 0.0024,
      "velocity": 81,
      "chip": "ym2612"
    },
    {
      "channel": 3,
      "note": 76,
      "start": 3.8301,
      "duration": 0.0019,
      "velocity": 95,
      "chip": "ym2612"
    },
    {
      "channel": 4,
      "note": 71,
      "start": 3.8304,
      "duration": 0.0017,
      "velocity": 95,
      "chip": "ym2612"
    },
    {
      "channel": 0,
      "note": 53,
      "start": 3.8323,
      "duration": 0.1479,
      "velocity": 81,
      "chip": "ym2612"
    },
    {
      "channel": 3,
      "note": 76,
      "start": 3.8325,
      "duration": 0.0478,
      "velocity": 95,
      "chip": "ym2612"
    },
    {
      "channel": 4,
      "note": 71,
      "start": 3.8329,
      "duration": 0.0476,
      "velocity": 95,
      "chip": "ym2612"
    },
    {
      "channel": 0,
      "note": 56,
      "start": 3.9804,
      "duration": 0.0512,
      "velocity": 81,
      "chip": "ym2612"
    },
    {
      "channel": 0,
      "note": 55,
      "start": 4.0317,
      "duration": 0.1475,
      "velocity": 81,
      "chip": "ym2612"
    },
    {
      "channel": 0,
      "note": 54,
      "start": 4.1794,
      "duration": 0.0005,
      "velocity": 81,
      "chip": "ym2612"
    },
    {
      "channel": 0,
      "note": 58,
      "start": 4.2308,
      "duration": 0.0023,
      "velocity": 81,
      "chip": "ym2612"
    },
    {
      "channel": 3,
      "note": 75,
      "start": 4.2312,
      "duration": 0.002,
      "velocity": 95,
      "chip": "ym2612"
    },
    {
      "channel": 4,
      "note": 71,
      "start": 4.2315,
      "duration": 0.0018,
      "velocity": 95,
      "chip": "ym2612"
    },
    {
      "channel": 0,
      "note": 59,
      "start": 4.2337,
      "duration": 0.0025,
      "velocity": 81,
      "chip": "ym2612"
    },
    {
      "channel": 0,
      "note": 49,
      "start": 4.2364,
      "duration": 0.0341,
      "velocity": 81,
      "chip": "ym2612"
    },
    {
      "channel": 0,
      "note": 52,
      "start": 4.2706,
      "duration": 0.1646,
      "velocity": 81,
      "chip": "ym2612"
    },
    {
      "channel": 1,
      "note": 69,
      "start": 4.271,
      "duration": 0.0643,
      "velocity": 90,
      "chip": "ym2612"
    },
    {
      "channel": 2,
      "note": 81,
      "start": 4.2713,
      "duration": 0.0641,
      "velocity": 90,
      "chip": "ym2612"
    },
    {
      "channel": 0,
      "note": 51,
      "start": 4.4354,
      "duration": 0.0521,
      "velocity": 81,
      "chip": "ym2612"
    },
    {
      "channel": 1,
      "note": 81,
      "start": 4.4357,
      "duration": 0.0019,
      "velocity": 90,
      "chip": "ym2612"
    },
    {
      "channel": 2,
      "note": 69,
      "start": 4.436,
      "duration": 0.0017,
      "velocity": 90,
      "chip": "ym2612"
    },
    {
      "channel": 0,
      "note": 54,
      "start": 4.4877,
      "duration": 0.0365,
      "velocity": 81,
      "chip": "ym2612"
    },
    {
      "channel": 3,
      "note": 75,
      "start": 4.4881,
      "duration": 0.2415,
      "velocity": 95,
      "chip": "ym2612"
    },
    {
      "channel": 4,
      "note": 80,
      "start": 4.4884,
      "duration": 0.2888,
      "velocity": 95,
      "chip": "ym2612"
    },
    {
      "channel": 0,
      "note": 50,
      "start": 4.5244,
      "duration": 0.0035,
      "velocity": 81,
      "chip": "ym2612"
    },
    {
      "channel": 0,
      "note": 53,
      "start": 4.528,
      "duration": 0.1478,
      "velocity": 81,
      "chip": "ym2612"
    },
    {
      "channel": 0,
      "note": 49,
      "start": 4.6759,
      "duration": 0.0533,
      "velocity": 81,
      "chip": "ym2612"
    },
    {
      "channel": 0,
      "note": 52,
      "start": 4.7294,
      "duration": 0.1644,
      "velocity": 81,
      "chip": "ym2612"
    },
    {
      "channel": 3,
      "note": 78,
      "start": 4.8942,
      "duration": 0.0022,
      "velocity": 95,
      "chip": "ym2612"
    },
    {
      "channel": 4,
      "note": 73,
      "start": 4.8945,
      "duration": 0.002,
      "velocity": 95,
      "chip": "ym2612"
    },
    {
      "channel": 0,
      "note": 51,
      "start": 4.9301,
      "duration": 0.0024,
      "velocity": 81,
      "chip": "ym2612"
    },
    {
      "channel": 1,
      "note": 74,
      "start": 4.9304,
      "duration": 0.002,
      "velocity": 90,
      "chip": "ym2612"
    },
    {
      "channel": 2,
      "note": 83,
      "start": 4.9307,
      "duration": 0.0017,
      "velocity": 90,
      "chip": "ym2612"
    },
    {
      "channel": 0,
      "note": 54,
      "start": 4.9326,
      "duration": 0.0005,
      "velocity": 81,
      "chip": "ym2612"
    },
    {
      "channel": 0,
      "note": 53,
      "start": 4.9333,
      "duration": 0.0055,
      "velocity": 81,
      "chip": "ym2612"
    },
    {
      "channel": 1,
      "note": 82,
      "start": 4.9335,
      "duration": 0.0043,
      "velocity": 90,
      "chip": "ym2612"
    },
    {
      "channel": 2,
      "note": 71,
      "start": 4.9337,
      "duration": 0.0042,
      "velocity": 90,
      "chip": "ym2612"
    },
    {
      "channel": 0,
      "note": 49,
      "start": 4.939,
      "duration": 0.0512,
      "velocity": 81,
      "chip": "ym2612"
    },
    {
      "channel": 0,
      "note": 52,
      "start": 4.9904,
      "duration": 0.148,
      "velocity": 81,
      "chip": "ym2612"
    },
    {
      "channel": 1,
      "note": 70,
      "start": 4.9907,
      "duration": 0.0477,
      "velocity": 90,
      "chip": "ym2612"
    },
    {
      "channel": 2,
      "note": 78,
      "start": 4.991,
      "duration": 0.0475,
      "velocity": 90,
      "chip": "ym2612"
    },
    {
      "channel": 0,
      "note": 51,
      "start": 5.1385,
      "duration": 0.0512,
      "velocity": 81,
      "chip": "ym2612"
    },
    {
      "channel": 0,
      "note": 54,
      "start": 5.1899,
      "duration": 0.0345,
      "velocity": 81,
      "chip": "ym2612"
    },
    {
      "channel": 0,
      "note": 50,
      "start": 5.2245,
      "duration": 0.0027,
      "velocity": 81,
      "chip": "ym2612"
    },
    {
      "channel": 3,
      "note": 76,
      "start": 5.2249,
      "duration": 0.0022,
      "velocity": 95,
      "chip": "ym2612"
    },
    {
      "channel": 4,
      "note": 71,
      "start": 5.2252,
      "duration": 0.002,
      "velocity": 95,
      "chip": "ym2612"
    },
    {
      "channel": 0,
      "note": 53,
      "start": 5.2274,
      "duration": 0.0038,
      "velocity": 81,
      "chip": "ym2612"
    },
    {
      "channel": 3,
      "note": 76,
      "start": 5.2277,
      "duration": 0.0018,
      "velocity": 95,
      "chip": "ym2612"
    },
    {
      "channel": 4,
      "note": 71,
      "start": 5.228,
      "duration": 0.0015,
      "velocity": 95,
      "chip": "ym2612"
    },
    {
      "channel": 0,
      "note": 56,
      "start": 5.2315,
      "duration": 0.0032,
      "velocity": 81,
      "chip": "ym2612"
    },
    {
      "channel": 0,
      "note": 55,
      "start": 5.2348,
      "duration": 0.0506,
      "velocity": 81,
      "chip": "ym2612"
    },
    {
      "channel": 1,
      "note": 78,
      "start": 5.2351,
      "duration": 0.0479,
      "velocity": 90,
      "chip": "ym2612"
    },
    {
      "channel": 2,
      "note": 68,
      "start": 5.2355,
      "duration": 0.0477,
      "velocity": 90,
      "chip": "ym2612"
    },
    {
      "channel": 0,
      "note": 54,
      "start": 5.2856,
      "duration": 0.0002,
      "velocity": 81,
      "chip": "ym2612"
    },
    {
      "channel": 0,
      "note": 58,
      "start": 5.2859,
      "duration": 0.0064,
      "velocity": 81,
      "chip": "ym2612"
    },
    {
      "channel": 1,
      "note": 66,
      "start": 5.2863,
      "duration": 0.0062,
      "velocity": 90,
      "chip": "ym2612"
    },
    {
      "channel": 2,
      "note": 77,
      "start": 5.2866,
      "duration": 0.0059,
      "velocity": 90,
      "chip": "ym2612"
    },
    {
      "channel": 3,
      "note": 75,
      "start": 5.2869,
      "duration": 0.0057,
      "velocity": 95,
      "chip": "ym2612"
    },
    {
      "channel": 4,
      "note": 71,
      "start": 5.2872,
      "duration": 0.0054,
      "velocity": 95,
      "chip": "ym2612"
    },
    {
      "channel": 0,
      "note": 59,
      "start": 5.2951,
      "duration": 0.0023,
      "velocity": 81,
      "chip": "ym2612"
    },
    {
      "channel": 0,
      "note": 53,
      "start": 5.3641,
      "duration": 0.0958,
      "velocity": 81,
      "chip": "ym2612"
    },
    {
      "channel": 0,
      "note": 54,
      "start": 5.4601,
      "duration": 0.1125,
      "velocity": 81,
      "chip": "ym2612"
    },
    {
      "channel": 0,
      "note": 66,
      "start": 5.5728,
      "duration": 0.1125,
      "velocity": 81,
      "chip": "ym2612"
    },
    {
      "channel": 0,
      "note": 67,
      "start": 5.7813,
      "duration": 0.0489,
      "velocity": 81,
      "chip": "ym2612"
    },
    {
      "channel": 0,
      "note": 56,
      "start": 5.8802,
      "duration": 0.1132,
      "velocity": 81,
      "chip": "ym2612"
    },
    {
      "channel": 1,
      "note": 83,
      "start": 5.8805,
      "duration": 0.113,
      "velocity": 90,
      "chip": "ym2612"
    },
    {
      "channel": 2,
      "note": 78,
      "start": 5.8808,
      "duration": 0.1129,
      "velocity": 90,
      "chip": "ym2612"
    },
    {
      "channel": 0,
      "note": 63,
      "start": 6.1062,
      "duration": 0.0973,
      "velocity": 81,
      "chip": "ym2612"
    },
    {
      "channel": 0,
      "note": 61,
      "start": 6.2683,
      "duration": 0.0479,
      "velocity": 81,
      "chip": "ym2612"
    },
    {
      "channel": 0,
      "note": 60,
      "start": 6.3644,
      "duration": 0.0494,
      "velocity": 81,
      "chip": "ym2612"
    },
    {
      "channel": 0,
      "note": 51,
      "start": 6.4139,
      "duration": 0.1132,
      "velocity": 81,
      "chip": "ym2612"
    },
    {
      "channel": 1,
      "note": 81,
      "start": 6.4142,
      "duration": 0.1132,
      "velocity": 90,
      "chip": "ym2612"
    },
    {
      "channel": 2,
      "note": 77,
      "start": 6.4146,
      "duration": 0.113,
      "velocity": 90,
      "chip": "ym2612"
    },
    {
      "channel": 0,
      "note": 52,
      "start": 6.5273,
      "duration": 0.0958,
      "velocity": 81,
      "chip": "ym2612"
    },
    {
      "channel": 0,
      "note": 66,
      "start": 6.6233,
      "duration": 0.1125,
      "velocity": 81,
      "chip": "ym2612"
    },
    {
      "channel": 0,
      "note": 63,
      "start": 6.8319,
      "duration": 0.0661,
      "velocity": 81,
      "chip": "ym2612"
    },
    {
      "channel": 0,
      "note": 49,
      "start": 6.9646,
      "duration": 0.0963,
      "velocity": 81,
      "chip": "ym2612"
    },
    {
      "channel": 1,
      "note": 80,
      "start": 6.9649,
      "duration": 0.0482,
      "velocity": 90,
      "chip": "ym2612"
    },
    {
      "channel": 2,
      "note": 76,
      "start": 6.9653,
      "duration": 0.048,
      "velocity": 90,
      "chip": "ym2612"
    },
    {
      "channel": 0,
      "note": 60,
      "start": 7.0612,
      "duration": 0.1125,
      "velocity": 81,
      "chip": "ym2612"
    },
    {
      "channel": 0,
      "note": 59,
      "start": 7.1738,
      "duration": 0.0503,
      "velocity": 81,
      "chip": "ym2612"
    },
    {
      "channel": 1,
      "note": 75,
      "start": 7.1741,
      "duration": 0.0026,
      "velocity": 90,
      "chip": "ym2612"
    },
    {
      "channel": 2,
      "note": 79,
      "start": 7.1744,
      "duration": 0.0024,
      "velocity": 90,
      "chip": "ym2612"
    },
    {
      "channel": 0,
      "note": 53,
      "start": 7.2243,
      "duration": 0.1125,
      "velocity": 81,
      "chip": "ym2612"
    },
    {
      "channel": 0,
      "note": 54,
      "start": 7.337,
      "duration": 0.1129,
      "velocity": 81,
      "chip": "ym2612"
    },
    {
      "channel": 1,
      "note": 74,
      "start": 7.3373,
      "duration": 0.0482,
      "velocity": 90,
      "chip": "ym2612"
    },
    {
      "channel": 2,
      "note": 78,
      "start": 7.3376,
      "duration": 0.048,
      "velocity": 90,
      "chip": "ym2612"
    },
    {
      "channel": 0,
      "note": 61,
      "start": 7.4501,
      "duration": 0.0498,
      "velocity": 81,
      "chip": "ym2612"
    },
    {
      "channel": 0,
      "note": 58,
      "start": 7.7086,
      "duration": 0.1124,
      "velocity": 81,
      "chip": "ym2612"
    },
    {
      "channel": 0,
      "note": 51,
      "start": 7.8212,
      "duration": 0.1125,
      "velocity": 81,
      "chip": "ym2612"
    },
    {
      "channel": 0,
      "note": 52,
      "start": 7.934,
      "duration": 0.0486,
      "velocity": 81,
      "chip": "ym2612"
    },
    {
      "channel": 0,
      "note": 54,
      "start": 7.9828,
      "duration": 0.04,
      "velocity": 81,
      "chip": "ym2612"
    },
    {
      "channel": 1,
      "note": 78,
      "start": 7.9831,
      "duration": 0.0044,
      "velocity": 90,
      "chip": "ym2612"
    },
    {
      "channel": 2,
      "note": 81,
      "start": 7.9834,
      "duration": 0.0041,
      "velocity": 90,
      "chip": "ym2612"
    },
    {
      "channel": 0,
      "note": 53,
      "start": 8.0229,
      "duration": 0.0035,
      "velocity": 81,
      "chip": "ym2612"
    },
    {
      "channel": 1,
      "note": 82,
      "start": 8.0233,
      "duration": 0.0542,
      "velocity": 90,
      "chip": "ym2612"
    },
    {
      "channel": 2,
      "note": 79,
      "start": 8.0236,
      "duration": 0.054,
      "velocity": 90,
      "chip": "ym2612"
    },
    {
      "channel": 0,
      "note": 51,
      "start": 8.0773,
      "duration": 0.0032,
      "velocity": 81,
      "chip": "ym2612"
    },
    {
      "channel": 1,
      "note": 83,
      "start": 8.0809,
      "duration": 0.0409,
      "velocity": 90,
      "chip": "ym2612"
    },
    {
      "channel": 2,
      "note": 80,
      "start": 8.0811,
      "duration": 0.0371,
      "velocity": 90,
      "chip": "ym2612"
    },
    {
      "channel": 0,
      "note": 48,
      "start": 8.1179,
      "duration": 0.0037,
      "velocity": 81,
      "chip": "ym2612"
    },
    {
      "channel": 0,
      "note": 49,
      "start": 8.1223,
      "duration": 0.0337,
      "velocity": 81,
      "chip": "ym2612"
    },
    {
      "channel": 0,
      "note": 52,
      "start": 8.1563,
      "duration": 0.1646,
      "velocity": 81,
      "chip": "ym2612"
    },
    {
      "channel": 1,
      "note": 78,
      "start": 8.1566,
      "duration": 0.0644,
      "velocity": 90,
      "chip": "ym2612"
    },
    {
      "channel": 2,
      "note": 70,
      "start": 8.1569,
      "duration": 0.0642,
      "velocity": 90,
      "chip": "ym2612"
    },
    {
      "channel": 0,
      "note": 51,
      "start": 8.3211,
      "duration": 0.0512,
      "velocity": 81,
      "chip": "ym2612"
    }
  ]
}