{
  "track_name": "11 - Theme of Shu",
  "duration_sec": 35.047,
  "sample_rate": 44100,
  "note_count": 316,
  "unique_pitches": 18,
  "pitch_range": 31,
  "avg_note_duration": 0.2368,
  "reconstruction_stats": {
    "notes_reconstructed": 316,
    "keyon_events": 316,
    "keyoff_events": 313,
    "orphan_keyons": 3,
    "unique_pitches": 18,
    "pitch_range": 31,
    "avg_duration_sec": 0.2368
  },
  "metadata": {
    "source": "R\\Romance of the Three Kingdoms III\\11 - Theme of Shu.vgz"
  },
  "notes": [
    {
      "channel": 0,
      "note": 68,
      "start": 0.0176,
      "duration": 0.279,
      "velocity": 97,
      "chip": "ym2612"
    },
    {
      "channel": 1,
      "note": 63,
      "start": 0.0216,
      "duration": 0.1918,
      "velocity": 97,
      "chip": "ym2612"
    },
    {
      "channel": 2,
      "note": 49,
      "start": 0.0256,
      "duration": 0.3211,
      "velocity": 83,
      "chip": "ym2612"
    },
    {
      "channel": 0,
      "note": 68,
      "start": 0.4304,
      "duration": 0.3395,
      "velocity": 97,
      "chip": "ym2612"
    },
    {
      "channel": 1,
      "note": 63,
      "start": 0.4311,
      "duration": 0.3156,
      "velocity": 97,
      "chip": "ym2612"
    },
    {
      "channel": 2,
      "note": 49,
      "start": 0.4317,
      "duration": 0.0817,
      "velocity": 83,
      "chip": "ym2612"
    },
    {
      "channel": 2,
      "note": 64,
      "start": 0.5651,
      "duration": 0.0982,
      "velocity": 83,
      "chip": "ym2612"
    },
    {
      "channel": 2,
      "note": 63,
      "start": 0.6985,
      "duration": 0.115,
      "velocity": 83,
      "chip": "ym2612"
    },
    {
      "channel": 0,
      "note": 68,
      "start": 0.8471,
      "duration": 0.1007,
      "velocity": 97,
      "chip": "ym2612"
    },
    {
      "channel": 1,
      "note": 63,
      "start": 0.8478,
      "duration": 0.1002,
      "velocity": 97,
      "chip": "ym2612"
    },
    {
      "channel": 2,
      "note": 61,
      "start": 0.8485,
      "duration": 0.0997,
      "velocity": 83,
      "chip": "ym2612"
    },
    {
      "channel": 2,
      "note": 56,
      "start": 0.9805,
      "duration": 0.1174,
      "velocity": 83,
      "chip": "ym2612"
    },
    {
      "channel": 0,
      "note": 71,
      "start": 1.1137,
      "duration": 0.1328,
      "velocity": 97,
      "chip": "ym2612"
    },
    {
      "channel": 1,
      "note": 66,
      "start": 1.1144,
      "duration": 0.1834,
      "velocity": 97,
      "chip": "ym2612"
    },
    {
      "channel": 2,
      "note": 52,
      "start": 1.1152,
      "duration": 0.3381,
      "velocity": 83,
      "chip": "ym2612"
    },
    {
      "channel": 0,
      "note": 71,
      "start": 1.5183,
      "duration": 0.295,
      "velocity": 97,
      "chip": "ym2612"
    },
    {
      "channel": 1,
      "note": 66,
      "start": 1.519,
      "duration": 0.3276,
      "velocity": 97,
      "chip": "ym2612"
    },
    {
      "channel": 2,
      "note": 52,
      "start": 1.5196,
      "duration": 0.0784,
      "velocity": 83,
      "chip": "ym2612"
    },
    {
      "channel": 2,
      "note": 64,
      "start": 1.6639,
      "duration": 0.2329,
      "velocity": 83,
      "chip": "ym2612"
    },
    {
      "channel": 0,
      "note": 71,
      "start": 1.9304,
      "duration": 0.0841,
      "velocity": 97,
      "chip": "ym2612"
    },
    {
      "channel": 1,
      "note": 66,
      "start": 1.9311,
      "duration": 0.0988,
      "velocity": 97,
      "chip": "ym2612"
    },
    {
      "channel": 2,
      "note": 52,
      "start": 1.9319,
      "duration": 0.2328,
      "velocity": 83,
      "chip": "ym2612"
    },
    {
      "channel": 0,
      "note": 73,
      "start": 2.1983,
      "duration": 0.1149,
      "velocity": 97,
      "chip": "ym2612"
    },
    {
      "channel": 1,
      "note": 68,
      "start": 2.199,
      "duration": 0.1322,
      "velocity": 97,
      "chip": "ym2612"
    },
    {
      "channel": 2,
      "note": 54,
      "start": 2.1998,
      "duration": 0.347,
      "velocity": 83,
      "chip": "ym2612"
    },
    {
      "channel": 0,
      "note": 73,
      "start": 2.6137,
      "duration": 0.306,
      "velocity": 97,
      "chip": "ym2612"
    },
    {
      "channel": 1,
      "note": 68,
      "start": 2.6144,
      "duration": 0.2822,
      "velocity": 97,
      "chip": "ym2612"
    },
    {
      "channel": 2,
      "note": 54,
      "start": 2.6151,
      "duration": 0.115,
      "velocity": 83,
      "chip": "ym2612"
    },
    {
      "channel": 2,
      "note": 69,
      "start": 2.7472,
      "duration": 0.0996,
      "velocity": 83,
      "chip": "ym2612"
    },
    {
      "channel": 2,
      "note": 68,
      "start": 2.8805,
      "duration": 0.0996,
      "velocity": 83,
      "chip": "ym2612"
    },
    {
      "channel": 1,
      "note": 68,
      "start": 3.0184,
      "duration": 0.095,
      "velocity": 97,
      "chip": "ym2612"
    },
    {
      "channel": 2,
      "note": 66,
      "start": 3.0191,
      "duration": 0.0958,
      "velocity": 83,
      "chip": "ym2612"
    },
    {
      "channel": 0,
      "note": 73,
      "start": 3.0304,
      "duration": 0.0842,
      "velocity": 97,
      "chip": "ym2612"
    },
    {
      "channel": 2,
      "note": 61,
      "start": 3.1639,
      "duration": 0.0829,
      "velocity": 83,
      "chip": "ym2612"
    },
    {
      "channel": 0,
      "note": 71,
      "start": 3.2971,
      "duration": 0.1841,
      "velocity": 97,
      "chip": "ym2612"
    },
    {
      "channel": 1,
      "note": 66,
      "start": 3.2978,
      "duration": 0.2167,
      "velocity": 97,
      "chip": "ym2612"
    },
    {
      "channel": 2,
      "note": 56,
      "start": 3.2985,
      "duration": 0.2816,
      "velocity": 83,
      "chip": "ym2612"
    },
    {
      "channel": 0,
      "note": 68,
      "start": 3.5637,
      "duration": 0.1828,
      "velocity": 97,
      "chip": "ym2612"
    },
    {
      "channel": 1,
      "note": 63,
      "start": 3.5644,
      "duration": 0.1823,
      "velocity": 97,
      "chip": "ym2612"
    },
    {
      "channel": 2,
      "note": 56,
      "start": 3.6983,
      "duration": 0.0997,
      "velocity": 83,
      "chip": "ym2612"
    },
    {
      "channel": 0,
      "note": 66,
      "start": 3.8316,
      "duration": 0.4027,
      "velocity": 97,
      "chip": "ym2612"
    },
    {
      "channel": 1,
      "note": 61,
      "start": 3.8324,
      "duration": 0.3542,
      "velocity": 97,
      "chip": "ym2612"
    },
    {
      "channel": 2,
      "note": 68,
      "start": 3.8331,
      "duration": 0.2482,
      "velocity": 83,
      "chip": "ym2612"
    },
    {
      "channel": 2,
      "note": 56,
      "start": 4.1139,
      "duration": 0.1829,
      "velocity": 83,
      "chip": "ym2612"
    },
    {
      "channel": 0,
      "note": 68,
      "start": 4.3804,
      "duration": 0.1828,
      "velocity": 97,
      "chip": "ym2612"
    },
    {
      "channel": 1,
      "note": 63,
      "start": 4.3811,
      "duration": 0.2334,
      "velocity": 97,
      "chip": "ym2612"
    },
    {
      "channel": 2,
      "note": 49,
      "start": 4.3819,
      "duration": 0.3148,
      "velocity": 83,
      "chip": "ym2612"
    },
    {
      "channel": 0,
      "note": 68,
      "start": 4.7971,
      "duration": 0.2995,
      "velocity": 97,
      "chip": "ym2612"
    },
    {
      "channel": 1,
      "note": 63,
      "start": 4.7978,
      "duration": 0.3322,
      "velocity": 97,
      "chip": "ym2612"
    },
    {
      "channel": 2,
      "note": 49,
      "start": 4.7984,
      "duration": 0.065,
      "velocity": 83,
      "chip": "ym2612"
    },
    {
      "channel": 2,
      "note": 64,
      "start": 4.9305,
      "duration": 0.0841,
      "velocity": 83,
      "chip": "ym2612"
    },
    {
      "channel": 2,
      "note": 63,
      "start": 5.0639,
      "duration": 0.0995,
      "velocity": 83,
      "chip": "ym2612"
    },
    {
      "channel": 0,
      "note": 68,
      "start": 5.1971,
      "duration": 0.1007,
      "velocity": 97,
      "chip": "ym2612"
    },
    {
      "channel": 1,
      "note": 63,
      "start": 5.1978,
      "duration": 0.0822,
      "velocity": 97,
      "chip": "ym2612"
    },
    {
      "channel": 2,
      "note": 61,
      "start": 5.1985,
      "duration": 0.1149,
      "velocity": 83,
      "chip": "ym2612"
    },
    {
      "channel": 2,
      "note": 56,
      "start": 5.3317,
      "duration": 0.1149,
      "velocity": 83,
      "chip": "ym2612"
    },
    {
      "channel": 0,
      "note": 71,
      "start": 5.4649,
      "duration": 0.115,
      "velocity": 97,
      "chip": "ym2612"
    },
    {
      "channel": 1,
      "note": 66,
      "start": 5.4657,
      "duration": 0.1494,
      "velocity": 97,
      "chip": "ym2612"
    },
    {
      "channel": 2,
      "note": 52,
      "start": 5.4664,
      "duration": 0.3137,
      "velocity": 83,
      "chip": "ym2612"
    },
    {
      "channel": 0,
      "note": 71,
      "start": 5.8804,
      "duration": 0.2828,
      "velocity": 97,
      "chip": "ym2612"
    },
    {
      "channel": 1,
      "note": 66,
      "start": 5.8811,
      "duration": 0.2989,
      "velocity": 97,
      "chip": "ym2612"
    },
    {
      "channel": 2,
      "note": 52,
      "start": 5.8817,
      "duration": 0.115,
      "velocity": 83,
      "chip": "ym2612"
    },
    {
      "channel": 2,
      "note": 64,
      "start": 6.0139,
      "duration": 0.2329,
      "velocity": 83,
      "chip": "ym2612"
    },
    {
      "channel": 0,
      "note": 71,
      "start": 6.2971,
      "duration": 0.0995,
      "velocity": 97,
      "chip": "ym2612"
    },
    {
      "channel": 1,
      "note": 66,
      "start": 6.2978,
      "duration": 0.0822,
      "velocity": 97,
      "chip": "ym2612"
    },
    {
      "channel": 2,
      "note": 52,
      "start": 6.3004,
      "duration": 0.1975,
      "velocity": 83,
      "chip": "ym2612"
    },
    {
      "channel": 0,
      "note": 73,
      "start": 6.5637,
      "duration": 0.1161,
      "velocity": 97,
      "chip": "ym2612"
    },
    {
      "channel": 1,
      "note": 68,
      "start": 6.5644,
      "duration": 0.1169,
      "velocity": 97,
      "chip": "ym2612"
    },
    {
      "channel": 2,
      "note": 54,
      "start": 6.5652,
      "duration": 0.3316,
      "velocity": 83,
      "chip": "ym2612"
    },
    {
      "channel": 0,
      "note": 73,
      "start": 6.9683,
      "duration": 0.345,
      "velocity": 97,
      "chip": "ym2612"
    },
    {
      "channel": 1,
      "note": 68,
      "start": 6.9691,
      "duration": 0.3276,
      "velocity": 97,
      "chip": "ym2612"
    },
    {
      "channel": 2,
      "note": 54,
      "start": 6.9697,
      "duration": 0.1104,
      "velocity": 83,
      "chip": "ym2612"
    },
    {
      "channel": 2,
      "note": 69,
      "start": 7.1139,
      "duration": 0.0829,
      "velocity": 83,
      "chip": "ym2612"
    },
    {
      "channel": 2,
      "note": 68,
      "start": 7.2472,
      "duration": 0.1162,
      "velocity": 83,
      "chip": "ym2612"
    },
    {
      "channel": 0,
      "note": 76,
      "start": 7.3804,
      "duration": 0.1328,
      "velocity": 97,
      "chip": "ym2612"
    },
    {
      "channel": 1,
      "note": 71,
      "start": 7.3811,
      "duration": 0.1489,
      "velocity": 97,
      "chip": "ym2612"
    },
    {
      "channel": 2,
      "note": 66,
      "start": 7.3819,
      "duration": 0.0982,
      "velocity": 83,
      "chip": "ym2612"
    },
    {
      "channel": 2,
      "note": 61,
      "start": 7.514,
      "duration": 0.1006,
      "velocity": 83,
      "chip": "ym2612"
    },
    {
      "channel": 0,
      "note": 78,
      "start": 7.6483,
      "duration": 0.1329,
      "velocity": 97,
      "chip": "ym2612"
    },
    {
      "channel": 1,
      "note": 73,
      "start": 7.649,
      "duration": 0.1809,
      "velocity": 97,
      "chip": "ym2612"
    },
    {
      "channel": 2,
      "note": 57,
      "start": 7.6498,
      "duration": 0.2482,
      "velocity": 83,
      "chip": "ym2612"
    },
    {
      "channel": 0,
      "note": 76,
      "start": 7.9304,
      "duration": 0.1328,
      "velocity": 97,
      "chip": "ym2612"
    },
    {
      "channel": 2,
      "note": 69,
      "start": 7.9312,
      "duration": 0.1488,
      "velocity": 83,
      "chip": "ym2612"
    },
    {
      "channel": 1,
      "note": 71,
      "start": 7.9337,
      "duration": 0.1316,
      "velocity": 97,
      "chip": "ym2612"
    },
    {
      "channel": 0,
      "note": 73,
      "start": 8.1971,
      "duration": 0.3495,
      "velocity": 97,
      "chip": "ym2612"
    },
    {
      "channel": 1,
      "note": 68,
      "start": 8.1978,
      "duration": 0.3822,
      "velocity": 97,
      "chip": "ym2612"
    },
    {
      "channel": 2,
      "note": 56,
      "start": 8.1985,
      "duration": 0.2316,
      "velocity": 83,
      "chip": "ym2612"
    },
    {
      "channel": 2,
      "note": 68,
      "start": 8.4651,
      "duration": 0.1649,
      "velocity": 83,
      "chip": "ym2612"
    },
    {
      "channel": 0,
      "note": 68,
      "start": 8.7471,
      "duration": 0.1495,
      "velocity": 97,
      "chip": "ym2612"
    },
    {
      "channel": 1,
      "note": 63,
      "start": 8.7478,
      "duration": 0.2322,
      "velocity": 97,
      "chip": "ym2612"
    },
    {
      "channel": 2,
      "note": 49,
      "start": 8.7485,
      "duration": 0.3315,
      "velocity": 83,
      "chip": "ym2612"
    },
    {
      "channel": 0,
      "note": 68,
      "start": 9.1471,
      "duration": 0.3161,
      "velocity": 97,
      "chip": "ym2612"
    },
    {
      "channel": 1,
      "note": 63,
      "start": 9.1478,
      "duration": 0.3156,
      "velocity": 97,
      "chip": "ym2612"
    },
    {
      "channel": 2,
      "note": 49,
      "start": 9.1484,
      "duration": 0.0983,
      "velocity": 83,
      "chip": "ym2612"
    },
    {
      "channel": 2,
      "note": 64,
      "start": 9.2818,
      "duration": 0.0996,
      "velocity": 83,
      "chip": "ym2612"
    },
    {
      "channel": 2,
      "note": 63,
      "start": 9.4305,
      "duration": 0.0828,
      "velocity": 83,
      "chip": "ym2612"
    },
    {
      "channel": 0,
      "note": 68,
      "start": 9.5637,
      "duration": 0.0995,
      "velocity": 97,
      "chip": "ym2612"
    },
    {
      "channel": 1,
      "note": 63,
      "start": 9.5644,
      "duration": 0.1155,
      "velocity": 97,
      "chip": "ym2612"
    },
    {
      "channel": 2,
      "note": 61,
      "start": 9.5652,
      "duration": 0.0996,
      "velocity": 83,
      "chip": "ym2612"
    },
    {
      "channel": 2,
      "note": 56,
      "start": 9.6971,
      "duration": 0.1163,
      "velocity": 83,
      "chip": "ym2612"
    },
    {
      "channel": 0,
      "note": 71,
      "start": 9.8304,
      "duration": 0.1328,
      "velocity": 97,
      "chip": "ym2612"
    },
    {
      "channel": 1,
      "note": 66,
      "start": 9.8311,
      "duration": 0.1668,
      "velocity": 97,
      "chip": "ym2612"
    },
    {
      "channel": 2,
      "note": 52,
      "start": 9.8319,
      "duration": 0.3316,
      "velocity": 83,
      "chip": "ym2612"
    },
    {
      "channel": 0,
      "note": 71,
      "start": 10.2471,
      "duration": 0.3162,
      "velocity": 97,
      "chip": "ym2612"
    },
    {
      "channel": 1,
      "note": 66,
      "start": 10.2478,
      "duration": 0.2988,
      "velocity": 97,
      "chip": "ym2612"
    },
    {
      "channel": 2,
      "note": 52,
      "start": 10.2484,
      "duration": 0.0817,
      "velocity": 83,
      "chip": "ym2612"
    },
    {
      "channel": 2,
      "note": 64,
      "start": 10.3805,
      "duration": 0.2538,
      "velocity": 83,
      "chip": "ym2612"
    },
    {
      "channel": 0,
      "note": 71,
      "start": 10.6471,
      "duration": 0.1007,
      "velocity": 97,
      "chip": "ym2612"
    },
    {
      "channel": 1,
      "note": 66,
      "start": 10.6478,
      "duration": 0.1155,
      "velocity": 97,
      "chip": "ym2612"
    },
    {
      "channel": 2,
      "note": 52,
      "start": 10.6485,
      "duration": 0.2316,
      "velocity": 83,
      "chip": "ym2612"
    },
    {
      "channel": 0,
      "note": 73,
      "start": 10.9149,
      "duration": 0.1316,
      "velocity": 97,
      "chip": "ym2612"
    },
    {
      "channel": 1,
      "note": 68,
      "start": 10.9157,
      "duration": 0.1494,
      "velocity": 97,
      "chip": "ym2612"
    },
    {
      "channel": 2,
      "note": 54,
      "start": 10.9164,
      "duration": 0.3303,
      "velocity": 83,
      "chip": "ym2612"
    },
    {
      "channel": 0,
      "note": 73,
      "start": 11.3304,
      "duration": 0.2674,
      "velocity": 97,
      "chip": "ym2612"
    },
    {
      "channel": 1,
      "note": 68,
      "start": 11.3311,
      "duration": 0.2669,
      "velocity": 97,
      "chip": "ym2612"
    },
    {
      "channel": 2,
      "note": 54,
      "start": 11.3317,
      "duration": 0.0829,
      "velocity": 83,
      "chip": "ym2612"
    },
    {
      "channel": 2,
      "note": 69,
      "start": 11.4639,
      "duration": 0.0996,
      "velocity": 83,
      "chip": "ym2612"
    },
    {
      "channel": 2,
      "note": 68,
      "start": 11.5987,
      "duration": 0.1027,
      "velocity": 83,
      "chip": "ym2612"
    },
    {
      "channel": 0,
      "note": 73,
      "start": 11.735,
      "duration": 0.113,
      "velocity": 97,
      "chip": "ym2612"
    },
    {
      "channel": 1,
      "note": 68,
      "start": 11.7357,
      "duration": 0.1124,
      "velocity": 97,
      "chip": "ym2612"
    },
    {
      "channel": 2,
      "note": 66,
      "start": 11.7364,
      "duration": 0.1103,
      "velocity": 83,
      "chip": "ym2612"
    },
    {
      "channel": 2,
      "note": 61,
      "start": 11.8805,
      "duration": 0.0828,
      "velocity": 83,
      "chip": "ym2612"
    },
    {
      "channel": 0,
      "note": 71,
      "start": 12.0137,
      "duration": 0.1841,
      "velocity": 97,
      "chip": "ym2612"
    },
    {
      "channel": 1,
      "note": 66,
      "start": 12.0144,
      "duration": 0.2168,
      "velocity": 97,
      "chip": "ym2612"
    },
    {
      "channel": 2,
      "note": 56,
      "start": 12.0152,
      "duration": 0.2982,
      "velocity": 83,
      "chip": "ym2612"
    },
    {
      "channel": 0,
      "note": 68,
      "start": 12.2804,
      "duration": 0.2328,
      "velocity": 97,
      "chip": "ym2612"
    },
    {
      "channel": 1,
      "note": 63,
      "start": 12.2811,
      "duration": 0.2155,
      "velocity": 97,
      "chip": "ym2612"
    },
    {
      "channel": 2,
      "note": 56,
      "start": 12.4149,
      "duration": 0.0819,
      "velocity": 83,
      "chip": "ym2612"
    },
    {
      "channel": 0,
      "note": 66,
      "start": 12.5637,
      "duration": 0.2328,
      "velocity": 97,
      "chip": "ym2612"
    },
    {
      "channel": 1,
      "note": 61,
      "start": 12.5644,
      "duration": 0.2663,
      "velocity": 97,
      "chip": "ym2612"
    },
    {
      "channel": 2,
      "note": 68,
      "start": 12.5652,
      "duration": 0.2663,
      "velocity": 83,
      "chip": "ym2612"
    },
    {
      "channel": 0,
      "note": 68,
      "start": 12.8304,
      "duration": 1.3041,
      "velocity": 97,
      "chip": "ym2612"
    },
    {
      "channel": 1,
      "note": 63,
      "start": 12.8311,
      "duration": 1.2221,
      "velocity": 97,
      "chip": "ym2612"
    },
    {
      "channel": 2,
      "note": 56,
      "start": 12.8319,
      "duration": 0.1829,
      "velocity": 83,
      "chip": "ym2612"
    },
    {
      "channel": 2,
      "note": 49,
      "start": 13.0988,
      "duration": 0.3146,
      "velocity": 83,
      "chip": "ym2612"
    },
    {
      "channel": 2,
      "note": 49,
      "start": 13.5137,
      "duration": 0.0876,
      "velocity": 83,
      "chip": "ym2612"
    },
    {
      "channel": 2,
      "note": 64,
      "start": 13.6472,
      "duration": 0.0996,
      "velocity": 83,
      "chip": "ym2612"
    },
    {
      "channel": 2,
      "note": 63,
      "start": 13.7805,
      "duration": 0.1039,
      "velocity": 83,
      "chip": "ym2612"
    },
    {
      "channel": 2,
      "note": 61,
      "start": 13.9205,
      "duration": 0.1096,
      "velocity": 83,
      "chip": "ym2612"
    },
    {
      "channel": 2,
      "note": 56,
      "start": 14.0539,
      "duration": 0.1095,
      "velocity": 83,
      "chip": "ym2612"
    },
    {
      "channel": 0,
      "note": 78,
      "start": 14.1971,
      "duration": 0.2328,
      "velocity": 97,
      "chip": "ym2612"
    },
    {
      "channel": 1,
      "note": 73,
      "start": 14.1978,
      "duration": 0.4989,
      "velocity": 97,
      "chip": "ym2612"
    },
    {
      "channel": 2,
      "note": 52,
      "start": 14.1985,
      "duration": 0.3188,
      "velocity": 83,
      "chip": "ym2612"
    },
    {
      "channel": 0,
      "note": 76,
      "start": 14.4637,
      "duration": 0.2328,
      "velocity": 97,
      "chip": "ym2612"
    },
    {
      "channel": 2,
      "note": 52,
      "start": 14.5971,
      "duration": 0.0999,
      "velocity": 83,
      "chip": "ym2612"
    },
    {
      "channel": 0,
      "note": 73,
      "start": 14.7333,
      "duration": 0.2801,
      "velocity": 97,
      "chip": "ym2612"
    },
    {
      "channel": 1,
      "note": 68,
      "start": 14.734,
      "duration": 0.2801,
      "velocity": 97,
      "chip": "ym2612"
    },
    {
      "channel": 2,
      "note": 64,
      "start": 14.7348,
      "duration": 0.2286,
      "velocity": 83,
      "chip": "ym2612"
    },
    {
      "channel": 0,
      "note": 71,
      "start": 15.0137,
      "duration": 0.2495,
      "velocity": 97,
      "chip": "ym2612"
    },
    {
      "channel": 1,
      "note": 66,
      "start": 15.0144,
      "duration": 0.2502,
      "velocity": 97,
      "chip": "ym2612"
    },
    {
      "channel": 2,
      "note": 52,
      "start": 15.0152,
      "duration": 0.2149,
      "velocity": 83,
      "chip": "ym2612"
    },
    {
      "channel": 0,
      "note": 73,
      "start": 15.2804,
      "duration": 0.1329,
      "velocity": 97,
      "chip": "ym2612"
    },
    {
      "channel": 1,
      "note": 68,
      "start": 15.2811,
      "duration": 0.1168,
      "velocity": 97,
      "chip": "ym2612"
    },
    {
      "channel": 2,
      "note": 54,
      "start": 15.2819,
      "duration": 0.2995,
      "velocity": 83,
      "chip": "ym2612"
    },
    {
      "channel": 0,
      "note": 76,
      "start": 15.4137,
      "duration": 0.1328,
      "velocity": 97,
      "chip": "ym2612"
    },
    {
      "channel": 1,
      "note": 71,
      "start": 15.4144,
      "duration": 0.1323,
      "velocity": 97,
      "chip": "ym2612"
    },
    {
      "channel": 0,
      "note": 73,
      "start": 15.5485,
      "duration": 1.2194,
      "velocity": 97,
      "chip": "ym2612"
    },
    {
      "channel": 1,
      "note": 68,
      "start": 15.5492,
      "duration": 1.1808,
      "velocity": 97,
      "chip": "ym2612"
    },
    {
      "channel": 2,
      "note": 54,
      "start": 15.6971,
      "duration": 0.083,
      "velocity": 83,
      "chip": "ym2612"
    },
    {
      "channel": 2,
      "note": 69,
      "start": 15.8305,
      "duration": 0.0996,
      "velocity": 83,
      "chip": "ym2612"
    },
    {
      "channel": 2,
      "note": 68,
      "start": 15.9639,
      "duration": 0.0996,
      "velocity": 83,
      "chip": "ym2612"
    },
    {
      "channel": 2,
      "note": 66,
      "start": 16.0972,
      "duration": 0.1162,
      "velocity": 83,
      "chip": "ym2612"
    },
    {
      "channel": 2,
      "note": 61,
      "start": 16.2351,
      "duration": 0.0996,
      "velocity": 83,
      "chip": "ym2612"
    },
    {
      "channel": 2,
      "note": 57,
      "start": 16.3684,
      "duration": 0.245,
      "velocity": 83,
      "chip": "ym2612"
    },
    {
      "channel": 2,
      "note": 69,
      "start": 16.6472,
      "duration": 0.1162,
      "velocity": 83,
      "chip": "ym2612"
    },
    {
      "channel": 0,
      "note": 71,
      "start": 16.9137,
      "duration": 0.1007,
      "velocity": 97,
      "chip": "ym2612"
    },
    {
      "channel": 1,
      "note": 66,
      "start": 16.9144,
      "duration": 0.1155,
      "velocity": 97,
      "chip": "ym2612"
    },
    {
      "channel": 2,
      "note": 56,
      "start": 16.9152,
      "duration": 0.3983,
      "velocity": 83,
      "chip": "ym2612"
    },
    {
      "channel": 0,
      "note": 73,
      "start": 17.0483,
      "duration": 0.0995,
      "velocity": 97,
      "chip": "ym2612"
    },
    {
      "channel": 1,
      "note": 68,
      "start": 17.049,
      "duration": 0.1329,
      "velocity": 97,
      "chip": "ym2612"
    },
    {
      "channel": 0,
      "note": 76,
      "start": 17.1816,
      "duration": 0.2649,
      "velocity": 97,
      "chip": "ym2612"
    },
    {
      "channel": 1,
      "note": 71,
      "start": 17.1971,
      "duration": 0.1161,
      "velocity": 97,
      "chip": "ym2612"
    },
    {
      "channel": 1,
      "note": 73,
      "start": 17.3309,
      "duration": 0.1003,
      "velocity": 97,
      "chip": "ym2612"
    },
    {
      "channel": 0,
      "note": 80,
      "start": 17.4637,
      "duration": 0.9828,
      "velocity": 97,
      "chip": "ym2612"
    },
    {
      "channel": 1,
      "note": 76,
      "start": 17.4645,
      "duration": 0.972,
      "velocity": 97,
      "chip": "ym2612"
    },
    {
      "channel": 2,
      "note": 54,
      "start": 17.4652,
      "duration": 0.2816,
      "velocity": 83,
      "chip": "ym2612"
    },
    {
      "channel": 2,
      "note": 54,
      "start": 17.8683,
      "duration": 0.0784,
      "velocity": 83,
      "chip": "ym2612"
    },
    {
      "channel": 2,
      "note": 66,
      "start": 18.0018,
      "duration": 0.1117,
      "velocity": 83,
      "chip": "ym2612"
    },
    {
      "channel": 2,
      "note": 54,
      "start": 18.1472,
      "duration": 0.1996,
      "velocity": 83,
      "chip": "ym2612"
    },
    {
      "channel": 2,
      "note": 54,
      "start": 18.4137,
      "duration": 0.0663,
      "velocity": 83,
      "chip": "ym2612"
    },
    {
      "channel": 0,
      "note": 78,
      "start": 18.5471,
      "duration": 0.2328,
      "velocity": 97,
      "chip": "ym2612"
    },
    {
      "channel": 1,
      "note": 73,
      "start": 18.5478,
      "duration": 0.2323,
      "velocity": 97,
      "chip": "ym2612"
    },
    {
      "channel": 2,
      "note": 56,
      "start": 18.5485,
      "duration": 0.1816,
      "velocity": 83,
      "chip": "ym2612"
    },
    {
      "channel": 0,
      "note": 76,
      "start": 18.8304,
      "duration": 0.2495,
      "velocity": 97,
      "chip": "ym2612"
    },
    {
      "channel": 1,
      "note": 71,
      "start": 18.8312,
      "duration": 0.2001,
      "velocity": 97,
      "chip": "ym2612"
    },
    {
      "channel": 2,
      "note": 56,
      "start": 18.8317,
      "duration": 0.0329,
      "velocity": 83,
      "chip": "ym2612"
    },
    {
      "channel": 2,
      "note": 56,
      "start": 18.9637,
      "duration": 0.083,
      "velocity": 83,
      "chip": "ym2612"
    },
    {
      "channel": 0,
      "note": 71,
      "start": 19.0971,
      "duration": 0.2174,
      "velocity": 97,
      "chip": "ym2612"
    },
    {
      "channel": 1,
      "note": 66,
      "start": 19.0978,
      "duration": 0.2322,
      "velocity": 97,
      "chip": "ym2612"
    },
    {
      "channel": 2,
      "note": 68,
      "start": 19.0985,
      "duration": 0.1161,
      "velocity": 83,
      "chip": "ym2612"
    },
    {
      "channel": 2,
      "note": 56,
      "start": 19.2305,
      "duration": 0.2162,
      "velocity": 83,
      "chip": "ym2612"
    },
    {
      "channel": 0,
      "note": 73,
      "start": 19.3649,
      "duration": 1.8649,
      "velocity": 97,
      "chip": "ym2612"
    },
    {
      "channel": 1,
      "note": 68,
      "start": 19.3657,
      "duration": 1.8522,
      "velocity": 97,
      "chip": "ym2612"
    },
    {
      "channel": 2,
      "note": 56,
      "start": 19.4983,
      "duration": 0.1151,
      "velocity": 83,
      "chip": "ym2612"
    },
    {
      "channel": 2,
      "note": 49,
      "start": 19.6476,
      "duration": 0.2891,
      "velocity": 83,
      "chip": "ym2612"
    },
    {
      "channel": 2,
      "note": 49,
      "start": 20.0471,
      "duration": 0.083,
      "velocity": 83,
      "chip": "ym2612"
    },
    {
      "channel": 2,
      "note": 61,
      "start": 20.1851,
      "duration": 0.1283,
      "velocity": 83,
      "chip": "ym2612"
    },
    {
      "channel": 2,
      "note": 49,
      "start": 20.3186,
      "duration": 0.1845,
      "velocity": 83,
      "chip": "ym2612"
    },
    {
      "channel": 2,
      "note": 49,
      "start": 20.5971,
      "duration": 0.0663,
      "velocity": 83,
      "chip": "ym2612"
    },
    {
      "channel": 2,
      "note": 52,
      "start": 20.7305,
      "duration": 0.1725,
      "velocity": 83,
      "chip": "ym2612"
    },
    {
      "channel": 2,
      "note": 52,
      "start": 21.0037,
      "duration": 0.0597,
      "velocity": 83,
      "chip": "ym2612"
    },
    {
      "channel": 2,
      "note": 52,
      "start": 21.137,
      "duration": 0.1097,
      "velocity": 83,
      "chip": "ym2612"
    },
    {
      "channel": 2,
      "note": 64,
      "start": 21.2805,
      "duration": 0.1041,
      "velocity": 83,
      "chip": "ym2612"
    },
    {
      "channel": 0,
      "note": 73,
      "start": 21.4137,
      "duration": 0.0841,
      "velocity": 97,
      "chip": "ym2612"
    },
    {
      "channel": 1,
      "note": 68,
      "start": 21.4144,
      "duration": 0.0988,
      "velocity": 97,
      "chip": "ym2612"
    },
    {
      "channel": 2,
      "note": 52,
      "start": 21.4152,
      "duration": 0.1982,
      "velocity": 83,
      "chip": "ym2612"
    },
    {
      "channel": 0,
      "note": 76,
      "start": 21.5471,
      "duration": 0.1161,
      "velocity": 97,
      "chip": "ym2612"
    },
    {
      "channel": 1,
      "note": 71,
      "start": 21.5478,
      "duration": 0.1156,
      "velocity": 97,
      "chip": "ym2612"
    },
    {
      "channel": 0,
      "note": 78,
      "start": 21.6816,
      "duration": 0.1149,
      "velocity": 97,
      "chip": "ym2612"
    },
    {
      "channel": 1,
      "note": 73,
      "start": 21.6824,
      "duration": 0.0988,
      "velocity": 97,
      "chip": "ym2612"
    },
    {
      "channel": 2,
      "note": 52,
      "start": 21.6829,
      "duration": 0.0985,
      "velocity": 83,
      "chip": "ym2612"
    },
    {
      "channel": 0,
      "note": 80,
      "start": 21.8149,
      "duration": 0.1816,
      "velocity": 97,
      "chip": "ym2612"
    },
    {
      "channel": 1,
      "note": 76,
      "start": 21.8157,
      "duration": 0.2155,
      "velocity": 97,
      "chip": "ym2612"
    },
    {
      "channel": 2,
      "note": 54,
      "start": 21.8164,
      "duration": 0.282,
      "velocity": 83,
      "chip": "ym2612"
    },
    {
      "channel": 0,
      "note": 80,
      "start": 22.2304,
      "duration": 0.3161,
      "velocity": 97,
      "chip": "ym2612"
    },
    {
      "channel": 1,
      "note": 76,
      "start": 22.2311,
      "duration": 0.3156,
      "velocity": 97,
      "chip": "ym2612"
    },
    {
      "channel": 2,
      "note": 54,
      "start": 22.2317,
      "duration": 0.0829,
      "velocity": 83,
      "chip": "ym2612"
    },
    {
      "channel": 2,
      "note": 66,
      "start": 22.3639,
      "duration": 0.1162,
      "velocity": 83,
      "chip": "ym2612"
    },
    {
      "channel": 2,
      "note": 54,
      "start": 22.4985,
      "duration": 0.1983,
      "velocity": 83,
      "chip": "ym2612"
    },
    {
      "channel": 0,
      "note": 80,
      "start": 22.635,
      "duration": 0.1616,
      "velocity": 97,
      "chip": "ym2612"
    },
    {
      "channel": 1,
      "note": 76,
      "start": 22.6357,
      "duration": 0.1788,
      "velocity": 97,
      "chip": "ym2612"
    },
    {
      "channel": 2,
      "note": 54,
      "start": 22.7804,
      "duration": 0.0829,
      "velocity": 83,
      "chip": "ym2612"
    },
    {
      "channel": 0,
      "note": 78,
      "start": 22.9137,
      "duration": 0.1995,
      "velocity": 97,
      "chip": "ym2612"
    },
    {
      "channel": 1,
      "note": 73,
      "start": 22.9145,
      "duration": 0.2155,
      "velocity": 97,
      "chip": "ym2612"
    },
    {
      "channel": 2,
      "note": 56,
      "start": 22.9152,
      "duration": 0.1828,
      "velocity": 83,
      "chip": "ym2612"
    },
    {
      "channel": 0,
      "note": 76,
      "start": 23.1804,
      "duration": 0.2661,
      "velocity": 97,
      "chip": "ym2612"
    },
    {
      "channel": 1,
      "note": 71,
      "start": 23.1811,
      "duration": 0.2155,
      "velocity": 97,
      "chip": "ym2612"
    },
    {
      "channel": 2,
      "note": 56,
      "start": 23.1817,
      "duration": 0.065,
      "velocity": 83,
      "chip": "ym2612"
    },
    {
      "channel": 2,
      "note": 56,
      "start": 23.3149,
      "duration": 0.0819,
      "velocity": 83,
      "chip": "ym2612"
    },
    {
      "channel": 0,
      "note": 71,
      "start": 23.4484,
      "duration": 0.2315,
      "velocity": 97,
      "chip": "ym2612"
    },
    {
      "channel": 1,
      "note": 66,
      "start": 23.4491,
      "duration": 0.231,
      "velocity": 97,
      "chip": "ym2612"
    },
    {
      "channel": 2,
      "note": 68,
      "start": 23.4499,
      "duration": 0.1148,
      "velocity": 83,
      "chip": "ym2612"
    },
    {
      "channel": 2,
      "note": 56,
      "start": 23.5972,
      "duration": 0.1842,
      "velocity": 83,
      "chip": "ym2612"
    },
    {
      "channel": 0,
      "note": 73,
      "start": 23.7304,
      "duration": 1.6328,
      "velocity": 97,
      "chip": "ym2612"
    },
    {
      "channel": 1,
      "note": 68,
      "start": 23.7311,
      "duration": 1.7199,
      "velocity": 97,
      "chip": "ym2612"
    },
    {
      "channel": 2,
      "note": 56,
      "start": 23.8637,
      "duration": 0.083,
      "velocity": 83,
      "chip": "ym2612"
    },
    {
      "channel": 2,
      "note": 49,
      "start": 23.9976,
      "duration": 0.2704,
      "velocity": 83,
      "chip": "ym2612"
    },
    {
      "channel": 2,
      "note": 49,
      "start": 24.4137,
      "duration": 0.083,
      "velocity": 83,
      "chip": "ym2612"
    },
    {
      "channel": 2,
      "note": 61,
      "start": 24.5472,
      "duration": 0.1208,
      "velocity": 83,
      "chip": "ym2612"
    },
    {
      "channel": 2,
      "note": 49,
      "start": 24.6805,
      "duration": 0.1395,
      "velocity": 83,
      "chip": "ym2612"
    },
    {
      "channel": 2,
      "note": 49,
      "start": 24.9537,
      "duration": 0.0597,
      "velocity": 83,
      "chip": "ym2612"
    },
    {
      "channel": 2,
      "note": 57,
      "start": 25.0972,
      "duration": 0.2892,
      "velocity": 83,
      "chip": "ym2612"
    },
    {
      "channel": 2,
      "note": 57,
      "start": 25.4972,
      "duration": 0.0828,
      "velocity": 83,
      "chip": "ym2612"
    },
    {
      "channel": 0,
      "note": 71,
      "start": 25.6369,
      "duration": 0.1097,
      "velocity": 97,
      "chip": "ym2612"
    },
    {
      "channel": 1,
      "note": 66,
      "start": 25.6377,
      "duration": 0.1091,
      "velocity": 97,
      "chip": "ym2612"
    },
    {
      "channel": 2,
      "note": 56,
      "start": 25.6383,
      "duration": 0.1278,
      "velocity": 83,
      "chip": "ym2612"
    },
    {
      "channel": 0,
      "note": 73,
      "start": 25.7649,
      "duration": 0.1149,
      "velocity": 97,
      "chip": "ym2612"
    },
    {
      "channel": 1,
      "note": 68,
      "start": 25.7657,
      "duration": 0.1309,
      "velocity": 97,
      "chip": "ym2612"
    },
    {
      "channel": 2,
      "note": 68,
      "start": 25.7665,
      "duration": 0.1816,
      "velocity": 83,
      "chip": "ym2612"
    },
    {
      "channel": 0,
      "note": 76,
      "start": 25.9137,
      "duration": 0.1329,
      "velocity": 97,
      "chip": "ym2612"
    },
    {
      "channel": 1,
      "note": 71,
      "start": 25.9144,
      "duration": 0.1156,
      "velocity": 97,
      "chip": "ym2612"
    },
    {
      "channel": 0,
      "note": 78,
      "start": 26.0471,
      "duration": 0.1174,
      "velocity": 97,
      "chip": "ym2612"
    },
    {
      "channel": 1,
      "note": 73,
      "start": 26.0478,
      "duration": 0.1169,
      "velocity": 97,
      "chip": "ym2612"
    },
    {
      "channel": 2,
      "note": 56,
      "start": 26.0485,
      "duration": 0.0649,
      "velocity": 83,
      "chip": "ym2612"
    },
    {
      "channel": 0,
      "note": 80,
      "start": 26.1804,
      "duration": 1.0209,
      "velocity": 97,
      "chip": "ym2612"
    },
    {
      "channel": 1,
      "note": 76,
      "start": 26.1811,
      "duration": 0.9368,
      "velocity": 97,
      "chip": "ym2612"
    },
    {
      "channel": 2,
      "note": 54,
      "start": 26.1819,
      "duration": 0.3048,
      "velocity": 83,
      "chip": "ym2612"
    },
    {
      "channel": 2,
      "note": 54,
      "start": 26.585,
      "duration": 0.1118,
      "velocity": 83,
      "chip": "ym2612"
    },
    {
      "channel": 2,
      "note": 66,
      "start": 26.7305,
      "duration": 0.1162,
      "velocity": 83,
      "chip": "ym2612"
    },
    {
      "channel": 2,
      "note": 54,
      "start": 26.8639,
      "duration": 0.1895,
      "velocity": 83,
      "chip": "ym2612"
    },
    {
      "channel": 2,
      "note": 54,
      "start": 27.1304,
      "duration": 0.0829,
      "velocity": 83,
      "chip": "ym2612"
    },
    {
      "channel": 0,
      "note": 78,
      "start": 27.2703,
      "duration": 0.2263,
      "velocity": 97,
      "chip": "ym2612"
    },
    {
      "channel": 1,
      "note": 73,
      "start": 27.271,
      "duration": 0.2423,
      "velocity": 97,
      "chip": "ym2612"
    },
    {
      "channel": 2,
      "note": 56,
      "start": 27.2717,
      "duration": 0.1917,
      "velocity": 83,
      "chip": "ym2612"
    },
    {
      "channel": 0,
      "note": 76,
      "start": 27.5471,
      "duration": 0.2495,
      "velocity": 97,
      "chip": "ym2612"
    },
    {
      "channel": 1,
      "note": 71,
      "start": 27.5478,
      "duration": 0.2155,
      "velocity": 97,
      "chip": "ym2612"
    },
    {
      "channel": 2,
      "note": 56,
      "start": 27.5484,
      "duration": 0.0483,
      "velocity": 83,
      "chip": "ym2612"
    },
    {
      "channel": 2,
      "note": 56,
      "start": 27.6804,
      "duration": 0.0997,
      "velocity": 83,
      "chip": "ym2612"
    },
    {
      "channel": 0,
      "note": 71,
      "start": 27.8137,
      "duration": 0.2495,
      "velocity": 97,
      "chip": "ym2612"
    },
    {
      "channel": 1,
      "note": 66,
      "start": 27.8144,
      "duration": 0.249,
      "velocity": 97,
      "chip": "ym2612"
    },
    {
      "channel": 2,
      "note": 68,
      "start": 27.8152,
      "duration": 0.1316,
      "velocity": 83,
      "chip": "ym2612"
    },
    {
      "channel": 2,
      "note": 56,
      "start": 27.9485,
      "duration": 0.1649,
      "velocity": 83,
      "chip": "ym2612"
    },
    {
      "channel": 0,
      "note": 73,
      "start": 28.0816,
      "duration": 1.1816,
      "velocity": 97,
      "chip": "ym2612"
    },
    {
      "channel": 1,
      "note": 68,
      "start": 28.0824,
      "duration": 1.1373,
      "velocity": 97,
      "chip": "ym2612"
    },
    {
      "channel": 2,
      "note": 56,
      "start": 28.2304,
      "duration": 0.083,
      "velocity": 83,
      "chip": "ym2612"
    },
    {
      "channel": 2,
      "note": 49,
      "start": 28.3642,
      "duration": 0.2535,
      "velocity": 83,
      "chip": "ym2612"
    },
    {
      "channel": 2,
      "note": 49,
      "start": 28.7683,
      "duration": 0.0784,
      "velocity": 83,
      "chip": "ym2612"
    },
    {
      "channel": 2,
      "note": 61,
      "start": 28.9018,
      "duration": 0.116,
      "velocity": 83,
      "chip": "ym2612"
    },
    {
      "channel": 2,
      "note": 49,
      "start": 29.0472,
      "duration": 0.1329,
      "velocity": 83,
      "chip": "ym2612"
    },
    {
      "channel": 2,
      "note": 49,
      "start": 29.3137,
      "duration": 0.0831,
      "velocity": 83,
      "chip": "ym2612"
    },
    {
      "channel": 0,
      "note": 76,
      "start": 29.4471,
      "duration": 0.2661,
      "velocity": 97,
      "chip": "ym2612"
    },
    {
      "channel": 1,
      "note": 71,
      "start": 29.4478,
      "duration": 0.2656,
      "velocity": 97,
      "chip": "ym2612"
    },
    {
      "channel": 2,
      "note": 52,
      "start": 29.4485,
      "duration": 0.1328,
      "velocity": 83,
      "chip": "ym2612"
    },
    {
      "channel": 0,
      "note": 78,
      "start": 29.7151,
      "duration": 0.2648,
      "velocity": 97,
      "chip": "ym2612"
    },
    {
      "channel": 1,
      "note": 73,
      "start": 29.7159,
      "duration": 0.2307,
      "velocity": 97,
      "chip": "ym2612"
    },
    {
      "channel": 2,
      "note": 52,
      "start": 29.7165,
      "duration": 0.0482,
      "velocity": 83,
      "chip": "ym2612"
    },
    {
      "channel": 2,
      "note": 52,
      "start": 29.8637,
      "duration": 0.0663,
      "velocity": 83,
      "chip": "ym2612"
    },
    {
      "channel": 0,
      "note": 76,
      "start": 29.9971,
      "duration": 0.2495,
      "velocity": 97,
      "chip": "ym2612"
    },
    {
      "channel": 1,
      "note": 71,
      "start": 29.9978,
      "duration": 0.2167,
      "velocity": 97,
      "chip": "ym2612"
    },
    {
      "channel": 2,
      "note": 64,
      "start": 29.9985,
      "duration": 0.1982,
      "velocity": 83,
      "chip": "ym2612"
    },
    {
      "channel": 0,
      "note": 73,
      "start": 30.2637,
      "duration": 1.9995,
      "velocity": 97,
      "chip": "ym2612"
    },
    {
      "channel": 1,
      "note": 69,
      "start": 30.2644,
      "duration": 2.1155,
      "velocity": 97,
      "chip": "ym2612"
    },
    {
      "channel": 2,
      "note": 54,
      "start": 30.2652,
      "duration": 0.4149,
      "velocity": 83,
      "chip": "ym2612"
    },
    {
      "channel": 2,
      "note": 54,
      "start": 30.8137,
      "duration": 0.083,
      "velocity": 83,
      "chip": "ym2612"
    },
    {
      "channel": 2,
      "note": 54,
      "start": 31.087,
      "duration": 0.0975,
      "velocity": 83,
      "chip": "ym2612"
    },
    {
      "channel": 2,
      "note": 54,
      "start": 31.3637,
      "duration": 0.083,
      "velocity": 83,
      "chip": "ym2612"
    },
    {
      "channel": 2,
      "note": 54,
      "start": 31.6304,
      "duration": 0.0997,
      "velocity": 83,
      "chip": "ym2612"
    },
    {
      "channel": 2,
      "note": 54,
      "start": 31.9036,
      "duration": 0.0765,
      "velocity": 83,
      "chip": "ym2612"
    },
    {
      "channel": 2,
      "note": 54,
      "start": 32.1804,
      "duration": 0.0663,
      "velocity": 83,
      "chip": "ym2612"
    },
    {
      "channel": 0,
      "note": 73,
      "start": 32.4471,
      "duration": 0.4495,
      "velocity": 97,
      "chip": "ym2612"
    },
    {
      "channel": 1,
      "note": 70,
      "start": 32.4478,
      "duration": 0.449,
      "velocity": 97,
      "chip": "ym2612"
    },
    {
      "channel": 2,
      "note": 56,
      "start": 32.4485,
      "duration": 0.3695,
      "velocity": 83,
      "chip": "ym2612"
    },
    {
      "channel": 0,
      "note": 73,
      "start": 32.9971,
      "duration": 0.0995,
      "velocity": 97,
      "chip": "ym2612"
    },
    {
      "channel": 1,
      "note": 70,
      "start": 32.9978,
      "duration": 0.1334,
      "velocity": 97,
      "chip": "ym2612"
    },
    {
      "channel": 2,
      "note": 56,
      "start": 32.9984,
      "duration": 0.0663,
      "velocity": 83,
      "chip": "ym2612"
    },
    {
      "channel": 0,
      "note": 73,
      "start": 33.2635,
      "duration": 0.2163,
      "velocity": 97,
      "chip": "ym2612"
    },
    {
      "channel": 1,
      "note": 70,
      "start": 33.2642,
      "duration": 0.2159,
      "velocity": 97,
      "chip": "ym2612"
    },
    {
      "channel": 2,
      "note": 56,
      "start": 33.2648,
      "duration": 0.1153,
      "velocity": 83,
      "chip": "ym2612"
    },
    {
      "channel": 2,
      "note": 68,
      "start": 33.8139,
      "duration": 0.333,
      "velocity": 83,
      "chip": "ym2612"
    },
    {
      "channel": 2,
      "note": 64,
      "start": 34.1472,
      "duration": 0.0495,
      "velocity": 83,
      "chip": "ym2612"
    },
    {
      "channel": 2,
      "note": 61,
      "start": 34.2221,
      "duration": 0.0413,
      "velocity": 83,
      "chip": "ym2612"
    },
    {
      "channel": 2,
      "note": 59,
      "start": 34.2878,
      "duration": 0.059,
      "velocity": 83,
      "chip": "ym2612"
    },
    {
      "channel": 2,
      "note": 56,
      "start": 34.3555,
      "duration": 0.2151,
      "velocity": 83,
      "chip": "ym2612"
    },
    {
      "channel": 0,
      "note": 68,
      "start": 34.9013,
      "duration": 0.1457,
      "velocity": 97,
      "chip": "ym2612"
    },
    {
      "channel": 1,
      "note": 63,
      "start": 34.9056,
      "duration": 0.1413,
      "velocity": 97,
      "chip": "ym2612"
    },
    {
      "channel": 2,
      "note": 49,
      "start": 34.9101,
      "duration": 0.1368,
      "velocity": 83,
      "chip": "ym2612"
    }
  ]
}