{
  "track_name": "11 - Moonlight",
  "duration_sec": 16.294,
  "sample_rate": 44100,
  "note_count": 65,
  "unique_pitches": 10,
  "pitch_range": 36,
  "avg_note_duration": 1.5019,
  "reconstruction_stats": {
    "notes_reconstructed": 65,
    "keyon_events": 65,
    "keyoff_events": 59,
    "orphan_keyons": 6,
    "unique_pitches": 10,
    "pitch_range": 36,
    "avg_duration_sec": 1.5019
  },
  "metadata": {
    "source": "N\\Ninja Burai Densetsu\\11 - Moonlight.vgz"
  },
  "notes": [
    {
      "channel": 0,
      "note": 49,
      "start": 0.0,
      "duration": 0.9486,
      "velocity": 96,
      "chip": "ym2612"
    },
    {
      "channel": 1,
      "note": 83,
      "start": 0.0015,
      "duration": 3.3471,
      "velocity": 101,
      "chip": "ym2612"
    },
    {
      "channel": 2,
      "note": 76,
      "start": 0.0031,
      "duration": 7.6628,
      "velocity": 99,
      "chip": "ym2612"
    },
    {
      "channel": 3,
      "note": 80,
      "start": 0.0046,
      "duration": 7.6616,
      "velocity": 99,
      "chip": "ym2612"
    },
    {
      "channel": 4,
      "note": 83,
      "start": 0.0061,
      "duration": 3.8266,
      "velocity": 99,
      "chip": "ym2612"
    },
    {
      "channel": 5,
      "note": 83,
      "start": 0.117,
      "duration": 3.3485,
      "velocity": 101,
      "chip": "ym2612"
    },
    {
      "channel": 0,
      "note": 49,
      "start": 0.9488,
      "duration": 0.9665,
      "velocity": 96,
      "chip": "ym2612"
    },
    {
      "channel": 0,
      "note": 49,
      "start": 1.9155,
      "duration": 0.9498,
      "velocity": 96,
      "chip": "ym2612"
    },
    {
      "channel": 0,
      "note": 49,
      "start": 2.8654,
      "duration": 0.9665,
      "velocity": 96,
      "chip": "ym2612"
    },
    {
      "channel": 1,
      "note": 85,
      "start": 3.3488,
      "duration": 0.4834,
      "velocity": 101,
      "chip": "ym2612"
    },
    {
      "channel": 5,
      "note": 85,
      "start": 3.4658,
      "duration": 0.4831,
      "velocity": 101,
      "chip": "ym2612"
    },
    {
      "channel": 0,
      "note": 49,
      "start": 3.8322,
      "duration": 0.9664,
      "velocity": 96,
      "chip": "ym2612"
    },
    {
      "channel": 1,
      "note": 83,
      "start": 3.8325,
      "duration": 1.4328,
      "velocity": 101,
      "chip": "ym2612"
    },
    {
      "channel": 4,
      "note": 85,
      "start": 3.8329,
      "duration": 1.9165,
      "velocity": 99,
      "chip": "ym2612"
    },
    {
      "channel": 5,
      "note": 83,
      "start": 3.9491,
      "duration": 1.4498,
      "velocity": 101,
      "chip": "ym2612"
    },
    {
      "channel": 0,
      "note": 49,
      "start": 4.7988,
      "duration": 0.9499,
      "velocity": 96,
      "chip": "ym2612"
    },
    {
      "channel": 1,
      "note": 83,
      "start": 5.2655,
      "duration": 0.4834,
      "velocity": 101,
      "chip": "ym2612"
    },
    {
      "channel": 5,
      "note": 83,
      "start": 5.3991,
      "duration": 0.4665,
      "velocity": 101,
      "chip": "ym2612"
    },
    {
      "channel": 0,
      "note": 49,
      "start": 5.7488,
      "duration": 0.9664,
      "velocity": 96,
      "chip": "ym2612"
    },
    {
      "channel": 1,
      "note": 83,
      "start": 5.7491,
      "duration": 0.7162,
      "velocity": 101,
      "chip": "ym2612"
    },
    {
      "channel": 4,
      "note": 83,
      "start": 5.7496,
      "duration": 1.9168,
      "velocity": 99,
      "chip": "ym2612"
    },
    {
      "channel": 5,
      "note": 83,
      "start": 5.8658,
      "duration": 0.7331,
      "velocity": 101,
      "chip": "ym2612"
    },
    {
      "channel": 1,
      "note": 81,
      "start": 6.4655,
      "duration": 0.7332,
      "velocity": 101,
      "chip": "ym2612"
    },
    {
      "channel": 5,
      "note": 81,
      "start": 6.5991,
      "duration": 0.7165,
      "velocity": 101,
      "chip": "ym2612"
    },
    {
      "channel": 0,
      "note": 49,
      "start": 6.7154,
      "duration": 0.9499,
      "velocity": 96,
      "chip": "ym2612"
    },
    {
      "channel": 1,
      "note": 80,
      "start": 7.1988,
      "duration": 0.4667,
      "velocity": 101,
      "chip": "ym2612"
    },
    {
      "channel": 5,
      "note": 80,
      "start": 7.3158,
      "duration": 0.4831,
      "velocity": 101,
      "chip": "ym2612"
    },
    {
      "channel": 0,
      "note": 50,
      "start": 7.6655,
      "duration": 0.9664,
      "velocity": 96,
      "chip": "ym2612"
    },
    {
      "channel": 1,
      "note": 81,
      "start": 7.6658,
      "duration": 3.4828,
      "velocity": 101,
      "chip": "ym2612"
    },
    {
      "channel": 2,
      "note": 74,
      "start": 7.6661,
      "duration": 5.7663,
      "velocity": 99,
      "chip": "ym2612"
    },
    {
      "channel": 3,
      "note": 78,
      "start": 7.6664,
      "duration": 5.7662,
      "velocity": 99,
      "chip": "ym2612"
    },
    {
      "channel": 4,
      "note": 81,
      "start": 7.6666,
      "duration": 3.3656,
      "velocity": 99,
      "chip": "ym2612"
    },
    {
      "channel": 5,
      "note": 81,
      "start": 7.7991,
      "duration": 3.4666,
      "velocity": 101,
      "chip": "ym2612"
    },
    {
      "channel": 0,
      "note": 50,
      "start": 8.6321,
      "duration": 0.9665,
      "velocity": 96,
      "chip": "ym2612"
    },
    {
      "channel": 0,
      "note": 50,
      "start": 9.5988,
      "duration": 0.9498,
      "velocity": 96,
      "chip": "ym2612"
    },
    {
      "channel": 0,
      "note": 50,
      "start": 10.5488,
      "duration": 0.9665,
      "velocity": 96,
      "chip": "ym2612"
    },
    {
      "channel": 4,
      "note": 85,
      "start": 11.0325,
      "duration": 2.4005,
      "velocity": 99,
      "chip": "ym2612"
    },
    {
      "channel": 1,
      "note": 81,
      "start": 11.1488,
      "duration": 0.1165,
      "velocity": 101,
      "chip": "ym2612"
    },
    {
      "channel": 1,
      "note": 80,
      "start": 11.2655,
      "duration": 0.1332,
      "velocity": 101,
      "chip": "ym2612"
    },
    {
      "channel": 5,
      "note": 81,
      "start": 11.2659,
      "duration": 0.1331,
      "velocity": 101,
      "chip": "ym2612"
    },
    {
      "channel": 1,
      "note": 79,
      "start": 11.3988,
      "duration": 0.1167,
      "velocity": 101,
      "chip": "ym2612"
    },
    {
      "channel": 5,
      "note": 80,
      "start": 11.3993,
      "duration": 0.1169,
      "velocity": 101,
      "chip": "ym2612"
    },
    {
      "channel": 0,
      "note": 50,
      "start": 11.5155,
      "duration": 0.9498,
      "velocity": 96,
      "chip": "ym2612"
    },
    {
      "channel": 1,
      "note": 78,
      "start": 11.5158,
      "duration": 2.8831,
      "velocity": 101,
      "chip": "ym2612"
    },
    {
      "channel": 5,
      "note": 79,
      "start": 11.5164,
      "duration": 0.1158,
      "velocity": 101,
      "chip": "ym2612"
    },
    {
      "channel": 5,
      "note": 78,
      "start": 11.6324,
      "duration": 2.8831,
      "velocity": 101,
      "chip": "ym2612"
    },
    {
      "channel": 0,
      "note": 50,
      "start": 12.4654,
      "duration": 0.9665,
      "velocity": 96,
      "chip": "ym2612"
    },
    {
      "channel": 0,
      "note": 50,
      "start": 13.4322,
      "duration": 0.9664,
      "velocity": 96,
      "chip": "ym2612"
    },
    {
      "channel": 2,
      "note": 74,
      "start": 13.4325,
      "duration": 0.9667,
      "velocity": 99,
      "chip": "ym2612"
    },
    {
      "channel": 3,
      "note": 78,
      "start": 13.4328,
      "duration": 0.9667,
      "velocity": 99,
      "chip": "ym2612"
    },
    {
      "channel": 4,
      "note": 83,
      "start": 13.4331,
      "duration": 0.9667,
      "velocity": 99,
      "chip": "ym2612"
    },
    {
      "channel": 0,
      "note": 50,
      "start": 14.3988,
      "duration": 0.9499,
      "velocity": 96,
      "chip": "ym2612"
    },
    {
      "channel": 1,
      "note": 80,
      "start": 14.3991,
      "duration": 0.4662,
      "velocity": 101,
      "chip": "ym2612"
    },
    {
      "channel": 2,
      "note": 74,
      "start": 14.3994,
      "duration": 0.9499,
      "velocity": 99,
      "chip": "ym2612"
    },
    {
      "channel": 3,
      "note": 81,
      "start": 14.3997,
      "duration": 0.95,
      "velocity": 99,
      "chip": "ym2612"
    },
    {
      "channel": 4,
      "note": 78,
      "start": 14.4,
      "duration": 0.95,
      "velocity": 99,
      "chip": "ym2612"
    },
    {
      "channel": 5,
      "note": 80,
      "start": 14.5158,
      "duration": 0.4831,
      "velocity": 101,
      "chip": "ym2612"
    },
    {
      "channel": 1,
      "note": 78,
      "start": 14.8655,
      "duration": 0.4835,
      "velocity": 101,
      "chip": "ym2612"
    },
    {
      "channel": 5,
      "note": 78,
      "start": 14.9991,
      "duration": 0.4665,
      "velocity": 101,
      "chip": "ym2612"
    },
    {
      "channel": 0,
      "note": 49,
      "start": 15.3488,
      "duration": 0.9456,
      "velocity": 96,
      "chip": "ym2612"
    },
    {
      "channel": 1,
      "note": 83,
      "start": 15.3492,
      "duration": 0.9452,
      "velocity": 101,
      "chip": "ym2612"
    },
    {
      "channel": 2,
      "note": 76,
      "start": 15.3495,
      "duration": 0.9449,
      "velocity": 99,
      "chip": "ym2612"
    },
    {
      "channel": 3,
      "note": 80,
      "start": 15.3498,
      "duration": 0.9445,
      "velocity": 99,
      "chip": "ym2612"
    },
    {
      "channel": 4,
      "note": 83,
      "start": 15.3502,
      "duration": 0.9442,
      "velocity": 99,
      "chip": "ym2612"
    },
    {
      "channel": 5,
      "note": 83,
      "start": 15.4658,
      "duration": 0.8286,
      "velocity": 101,
      "chip": "ym2612"
    }
  ]
}