{
  "track_name": "11 - Campaign #3 Ending",
  "duration_sec": 102.238,
  "sample_rate": 44100,
  "note_count": 2827,
  "unique_pitches": 29,
  "pitch_range": 46,
  "avg_note_duration": 0.2067,
  "reconstruction_stats": {
    "notes_reconstructed": 2827,
    "keyon_events": 2827,
    "keyoff_events": 2821,
    "orphan_keyons": 6,
    "unique_pitches": 29,
    "pitch_range": 46,
    "avg_duration_sec": 0.2067
  },
  "metadata": {
    "source": "J\\Jungle Strike\\11 - Campaign #3 Ending.vgz"
  },
  "notes": [
    {
      "channel": 5,
      "note": 66,
      "start": 0.052,
      "duration": 0.0657,
      "velocity": 127,
      "chip": "ym2612"
    },
    {
      "channel": 4,
      "note": 45,
      "start": 0.0609,
      "duration": 0.3077,
      "velocity": 102,
      "chip": "ym2612"
    },
    {
      "channel": 3,
      "note": 33,
      "start": 0.0632,
      "duration": 0.1389,
      "velocity": 113,
      "chip": "ym2612"
    },
    {
      "channel": 5,
      "note": 66,
      "start": 0.1183,
      "duration": 0.081,
      "velocity": 127,
      "chip": "ym2612"
    },
    {
      "channel": 5,
      "note": 66,
      "start": 0.1999,
      "duration": 0.0851,
      "velocity": 127,
      "chip": "ym2612"
    },
    {
      "channel": 3,
      "note": 33,
      "start": 0.2026,
      "duration": 0.1683,
      "velocity": 113,
      "chip": "ym2612"
    },
    {
      "channel": 5,
      "note": 66,
      "start": 0.2857,
      "duration": 0.0891,
      "velocity": 127,
      "chip": "ym2612"
    },
    {
      "channel": 4,
      "note": 45,
      "start": 0.3692,
      "duration": 0.3374,
      "velocity": 102,
      "chip": "ym2612"
    },
    {
      "channel": 3,
      "note": 33,
      "start": 0.3715,
      "duration": 0.1637,
      "velocity": 113,
      "chip": "ym2612"
    },
    {
      "channel": 5,
      "note": 66,
      "start": 0.3754,
      "duration": 0.0771,
      "velocity": 127,
      "chip": "ym2612"
    },
    {
      "channel": 5,
      "note": 66,
      "start": 0.4532,
      "duration": 0.0859,
      "velocity": 127,
      "chip": "ym2612"
    },
    {
      "channel": 3,
      "note": 33,
      "start": 0.5359,
      "duration": 0.1731,
      "velocity": 113,
      "chip": "ym2612"
    },
    {
      "channel": 5,
      "note": 66,
      "start": 0.5398,
      "duration": 0.0772,
      "velocity": 127,
      "chip": "ym2612"
    },
    {
      "channel": 5,
      "note": 66,
      "start": 0.6176,
      "duration": 0.0953,
      "velocity": 127,
      "chip": "ym2612"
    },
    {
      "channel": 4,
      "note": 45,
      "start": 0.7072,
      "duration": 0.3375,
      "velocity": 102,
      "chip": "ym2612"
    },
    {
      "channel": 3,
      "note": 33,
      "start": 0.7096,
      "duration": 0.1655,
      "velocity": 113,
      "chip": "ym2612"
    },
    {
      "channel": 5,
      "note": 66,
      "start": 0.7135,
      "duration": 0.074,
      "velocity": 127,
      "chip": "ym2612"
    },
    {
      "channel": 5,
      "note": 66,
      "start": 0.7882,
      "duration": 0.0842,
      "velocity": 127,
      "chip": "ym2612"
    },
    {
      "channel": 5,
      "note": 66,
      "start": 0.873,
      "duration": 0.082,
      "velocity": 127,
      "chip": "ym2612"
    },
    {
      "channel": 3,
      "note": 33,
      "start": 0.8758,
      "duration": 0.1712,
      "velocity": 113,
      "chip": "ym2612"
    },
    {
      "channel": 5,
      "note": 66,
      "start": 0.9556,
      "duration": 0.0954,
      "velocity": 127,
      "chip": "ym2612"
    },
    {
      "channel": 4,
      "note": 45,
      "start": 1.0454,
      "duration": 0.3344,
      "velocity": 102,
      "chip": "ym2612"
    },
    {
      "channel": 3,
      "note": 33,
      "start": 1.0476,
      "duration": 0.1655,
      "velocity": 113,
      "chip": "ym2612"
    },
    {
      "channel": 5,
      "note": 66,
      "start": 1.0516,
      "duration": 0.0709,
      "velocity": 127,
      "chip": "ym2612"
    },
    {
      "channel": 5,
      "note": 66,
      "start": 1.1232,
      "duration": 0.0872,
      "velocity": 127,
      "chip": "ym2612"
    },
    {
      "channel": 5,
      "note": 66,
      "start": 1.2111,
      "duration": 0.082,
      "velocity": 127,
      "chip": "ym2612"
    },
    {
      "channel": 3,
      "note": 33,
      "start": 1.2137,
      "duration": 0.1682,
      "velocity": 113,
      "chip": "ym2612"
    },
    {
      "channel": 5,
      "note": 66,
      "start": 1.2937,
      "duration": 0.0922,
      "velocity": 127,
      "chip": "ym2612"
    },
    {
      "channel": 4,
      "note": 45,
      "start": 1.3803,
      "duration": 0.3305,
      "velocity": 102,
      "chip": "ym2612"
    },
    {
      "channel": 3,
      "note": 33,
      "start": 1.3826,
      "duration": 0.1624,
      "velocity": 113,
      "chip": "ym2612"
    },
    {
      "channel": 5,
      "note": 66,
      "start": 1.3866,
      "duration": 0.074,
      "velocity": 127,
      "chip": "ym2612"
    },
    {
      "channel": 5,
      "note": 66,
      "start": 1.4612,
      "duration": 0.081,
      "velocity": 127,
      "chip": "ym2612"
    },
    {
      "channel": 5,
      "note": 66,
      "start": 1.5429,
      "duration": 0.0852,
      "velocity": 127,
      "chip": "ym2612"
    },
    {
      "channel": 3,
      "note": 33,
      "start": 1.5456,
      "duration": 0.1676,
      "velocity": 113,
      "chip": "ym2612"
    },
    {
      "channel": 5,
      "note": 66,
      "start": 1.6287,
      "duration": 0.0922,
      "velocity": 127,
      "chip": "ym2612"
    },
    {
      "channel": 4,
      "note": 45,
      "start": 1.7115,
      "duration": 0.338,
      "velocity": 102,
      "chip": "ym2612"
    },
    {
      "channel": 3,
      "note": 33,
      "start": 1.7138,
      "duration": 0.1693,
      "velocity": 113,
      "chip": "ym2612"
    },
    {
      "channel": 5,
      "note": 66,
      "start": 1.7215,
      "duration": 0.0772,
      "velocity": 127,
      "chip": "ym2612"
    },
    {
      "channel": 5,
      "note": 66,
      "start": 1.7993,
      "duration": 0.081,
      "velocity": 127,
      "chip": "ym2612"
    },
    {
      "channel": 5,
      "note": 66,
      "start": 1.8809,
      "duration": 0.0852,
      "velocity": 127,
      "chip": "ym2612"
    },
    {
      "channel": 3,
      "note": 33,
      "start": 1.8837,
      "duration": 0.1681,
      "velocity": 113,
      "chip": "ym2612"
    },
    {
      "channel": 5,
      "note": 66,
      "start": 1.9667,
      "duration": 0.0891,
      "velocity": 127,
      "chip": "ym2612"
    },
    {
      "channel": 4,
      "note": 45,
      "start": 2.0502,
      "duration": 0.3374,
      "velocity": 102,
      "chip": "ym2612"
    },
    {
      "channel": 3,
      "note": 33,
      "start": 2.0525,
      "duration": 0.1637,
      "velocity": 113,
      "chip": "ym2612"
    },
    {
      "channel": 5,
      "note": 66,
      "start": 2.0564,
      "duration": 0.0772,
      "velocity": 127,
      "chip": "ym2612"
    },
    {
      "channel": 5,
      "note": 66,
      "start": 2.1343,
      "duration": 0.0859,
      "velocity": 127,
      "chip": "ym2612"
    },
    {
      "channel": 3,
      "note": 33,
      "start": 2.2168,
      "duration": 0.1731,
      "velocity": 113,
      "chip": "ym2612"
    },
    {
      "channel": 5,
      "note": 66,
      "start": 2.2208,
      "duration": 0.0833,
      "velocity": 127,
      "chip": "ym2612"
    },
    {
      "channel": 5,
      "note": 66,
      "start": 2.3048,
      "duration": 0.0891,
      "velocity": 127,
      "chip": "ym2612"
    },
    {
      "channel": 4,
      "note": 45,
      "start": 2.3882,
      "duration": 0.342,
      "velocity": 102,
      "chip": "ym2612"
    },
    {
      "channel": 3,
      "note": 33,
      "start": 2.3906,
      "duration": 0.1655,
      "velocity": 113,
      "chip": "ym2612"
    },
    {
      "channel": 5,
      "note": 66,
      "start": 2.3945,
      "duration": 0.0709,
      "velocity": 127,
      "chip": "ym2612"
    },
    {
      "channel": 5,
      "note": 66,
      "start": 2.4661,
      "duration": 0.0872,
      "velocity": 127,
      "chip": "ym2612"
    },
    {
      "channel": 5,
      "note": 66,
      "start": 2.5539,
      "duration": 0.0821,
      "velocity": 127,
      "chip": "ym2612"
    },
    {
      "channel": 3,
      "note": 33,
      "start": 2.5567,
      "duration": 0.1685,
      "velocity": 113,
      "chip": "ym2612"
    },
    {
      "channel": 5,
      "note": 66,
      "start": 2.6366,
      "duration": 0.098,
      "velocity": 127,
      "chip": "ym2612"
    },
    {
      "channel": 1,
      "note": 45,
      "start": 2.7186,
      "duration": 10.7571,
      "velocity": 94,
      "chip": "ym2612"
    },
    {
      "channel": 3,
      "note": 33,
      "start": 2.7258,
      "duration": 0.168,
      "velocity": 113,
      "chip": "ym2612"
    },
    {
      "channel": 4,
      "note": 45,
      "start": 2.7308,
      "duration": 0.3296,
      "velocity": 102,
      "chip": "ym2612"
    },
    {
      "channel": 5,
      "note": 66,
      "start": 2.7353,
      "duration": 0.068,
      "velocity": 127,
      "chip": "ym2612"
    },
    {
      "channel": 5,
      "note": 66,
      "start": 2.8038,
      "duration": 0.0873,
      "velocity": 127,
      "chip": "ym2612"
    },
    {
      "channel": 5,
      "note": 66,
      "start": 2.8917,
      "duration": 0.0821,
      "velocity": 127,
      "chip": "ym2612"
    },
    {
      "channel": 3,
      "note": 33,
      "start": 2.8944,
      "duration": 0.1683,
      "velocity": 113,
      "chip": "ym2612"
    },
    {
      "channel": 5,
      "note": 66,
      "start": 2.9744,
      "duration": 0.0922,
      "velocity": 127,
      "chip": "ym2612"
    },
    {
      "channel": 4,
      "note": 45,
      "start": 3.0611,
      "duration": 0.3305,
      "velocity": 102,
      "chip": "ym2612"
    },
    {
      "channel": 3,
      "note": 33,
      "start": 3.0634,
      "duration": 0.1637,
      "velocity": 113,
      "chip": "ym2612"
    },
    {
      "channel": 5,
      "note": 66,
      "start": 3.0673,
      "duration": 0.074,
      "velocity": 127,
      "chip": "ym2612"
    },
    {
      "channel": 5,
      "note": 66,
      "start": 3.142,
      "duration": 0.0889,
      "velocity": 127,
      "chip": "ym2612"
    },
    {
      "channel": 3,
      "note": 33,
      "start": 3.2277,
      "duration": 0.1662,
      "velocity": 113,
      "chip": "ym2612"
    },
    {
      "channel": 5,
      "note": 66,
      "start": 3.2315,
      "duration": 0.0772,
      "velocity": 127,
      "chip": "ym2612"
    },
    {
      "channel": 5,
      "note": 66,
      "start": 3.3094,
      "duration": 0.0922,
      "velocity": 127,
      "chip": "ym2612"
    },
    {
      "channel": 4,
      "note": 45,
      "start": 3.3922,
      "duration": 0.338,
      "velocity": 102,
      "chip": "ym2612"
    },
    {
      "channel": 3,
      "note": 33,
      "start": 3.3945,
      "duration": 0.1693,
      "velocity": 113,
      "chip": "ym2612"
    },
    {
      "channel": 5,
      "note": 66,
      "start": 3.4022,
      "duration": 0.0772,
      "velocity": 127,
      "chip": "ym2612"
    },
    {
      "channel": 5,
      "note": 66,
      "start": 3.48,
      "duration": 0.081,
      "velocity": 127,
      "chip": "ym2612"
    },
    {
      "channel": 5,
      "note": 66,
      "start": 3.5617,
      "duration": 0.0851,
      "velocity": 127,
      "chip": "ym2612"
    },
    {
      "channel": 3,
      "note": 33,
      "start": 3.5644,
      "duration": 0.1681,
      "velocity": 113,
      "chip": "ym2612"
    },
    {
      "channel": 5,
      "note": 66,
      "start": 3.6474,
      "duration": 0.0891,
      "velocity": 127,
      "chip": "ym2612"
    },
    {
      "channel": 4,
      "note": 45,
      "start": 3.7309,
      "duration": 0.3374,
      "velocity": 102,
      "chip": "ym2612"
    },
    {
      "channel": 3,
      "note": 33,
      "start": 3.7332,
      "duration": 0.1637,
      "velocity": 113,
      "chip": "ym2612"
    },
    {
      "channel": 5,
      "note": 66,
      "start": 3.7371,
      "duration": 0.0772,
      "velocity": 127,
      "chip": "ym2612"
    },
    {
      "channel": 5,
      "note": 66,
      "start": 3.8149,
      "duration": 0.0859,
      "velocity": 127,
      "chip": "ym2612"
    },
    {
      "channel": 3,
      "note": 33,
      "start": 3.8976,
      "duration": 0.173,
      "velocity": 113,
      "chip": "ym2612"
    },
    {
      "channel": 5,
      "note": 66,
      "start": 3.9015,
      "duration": 0.0833,
      "velocity": 127,
      "chip": "ym2612"
    },
    {
      "channel": 5,
      "note": 66,
      "start": 3.9855,
      "duration": 0.0891,
      "velocity": 127,
      "chip": "ym2612"
    },
    {
      "channel": 4,
      "note": 45,
      "start": 4.0689,
      "duration": 0.3337,
      "velocity": 102,
      "chip": "ym2612"
    },
    {
      "channel": 3,
      "note": 33,
      "start": 4.0712,
      "duration": 0.1655,
      "velocity": 113,
      "chip": "ym2612"
    },
    {
      "channel": 5,
      "note": 66,
      "start": 4.0752,
      "duration": 0.0771,
      "velocity": 127,
      "chip": "ym2612"
    },
    {
      "channel": 5,
      "note": 66,
      "start": 4.153,
      "duration": 0.081,
      "velocity": 127,
      "chip": "ym2612"
    },
    {
      "channel": 5,
      "note": 66,
      "start": 4.2346,
      "duration": 0.082,
      "velocity": 127,
      "chip": "ym2612"
    },
    {
      "channel": 3,
      "note": 33,
      "start": 4.2373,
      "duration": 0.1676,
      "velocity": 113,
      "chip": "ym2612"
    },
    {
      "channel": 5,
      "note": 66,
      "start": 4.3173,
      "duration": 0.0953,
      "velocity": 127,
      "chip": "ym2612"
    },
    {
      "channel": 4,
      "note": 45,
      "start": 4.4032,
      "duration": 0.3381,
      "velocity": 102,
      "chip": "ym2612"
    },
    {
      "channel": 3,
      "note": 33,
      "start": 4.4055,
      "duration": 0.1693,
      "velocity": 113,
      "chip": "ym2612"
    },
    {
      "channel": 5,
      "note": 66,
      "start": 4.4132,
      "duration": 0.071,
      "velocity": 127,
      "chip": "ym2612"
    },
    {
      "channel": 5,
      "note": 66,
      "start": 4.4849,
      "duration": 0.0872,
      "velocity": 127,
      "chip": "ym2612"
    },
    {
      "channel": 5,
      "note": 66,
      "start": 4.5727,
      "duration": 0.0789,
      "velocity": 127,
      "chip": "ym2612"
    },
    {
      "channel": 3,
      "note": 33,
      "start": 4.5754,
      "duration": 0.1682,
      "velocity": 113,
      "chip": "ym2612"
    },
    {
      "channel": 5,
      "note": 66,
      "start": 4.6523,
      "duration": 0.0953,
      "velocity": 127,
      "chip": "ym2612"
    },
    {
      "channel": 4,
      "note": 45,
      "start": 4.742,
      "duration": 0.3375,
      "velocity": 102,
      "chip": "ym2612"
    },
    {
      "channel": 3,
      "note": 33,
      "start": 4.7443,
      "duration": 0.1637,
      "velocity": 113,
      "chip": "ym2612"
    },
    {
      "channel": 5,
      "note": 66,
      "start": 4.7482,
      "duration": 0.074,
      "velocity": 127,
      "chip": "ym2612"
    },
    {
      "channel": 5,
      "note": 66,
      "start": 4.8229,
      "duration": 0.0891,
      "velocity": 127,
      "chip": "ym2612"
    },
    {
      "channel": 3,
      "note": 33,
      "start": 4.9086,
      "duration": 0.1732,
      "velocity": 113,
      "chip": "ym2612"
    },
    {
      "channel": 5,
      "note": 66,
      "start": 4.9126,
      "duration": 0.0772,
      "velocity": 127,
      "chip": "ym2612"
    },
    {
      "channel": 5,
      "note": 66,
      "start": 4.9904,
      "duration": 0.0954,
      "velocity": 127,
      "chip": "ym2612"
    },
    {
      "channel": 4,
      "note": 45,
      "start": 5.0801,
      "duration": 0.34,
      "velocity": 102,
      "chip": "ym2612"
    },
    {
      "channel": 3,
      "note": 33,
      "start": 5.0824,
      "duration": 0.1575,
      "velocity": 113,
      "chip": "ym2612"
    },
    {
      "channel": 5,
      "note": 66,
      "start": 5.0864,
      "duration": 0.0709,
      "velocity": 127,
      "chip": "ym2612"
    },
    {
      "channel": 5,
      "note": 66,
      "start": 5.1579,
      "duration": 0.0859,
      "velocity": 127,
      "chip": "ym2612"
    },
    {
      "channel": 3,
      "note": 33,
      "start": 5.2405,
      "duration": 0.1819,
      "velocity": 113,
      "chip": "ym2612"
    },
    {
      "channel": 5,
      "note": 66,
      "start": 5.2444,
      "duration": 0.0833,
      "velocity": 127,
      "chip": "ym2612"
    },
    {
      "channel": 5,
      "note": 66,
      "start": 5.3284,
      "duration": 0.0894,
      "velocity": 127,
      "chip": "ym2612"
    },
    {
      "channel": 5,
      "note": 66,
      "start": 5.4184,
      "duration": 0.0765,
      "velocity": 127,
      "chip": "ym2612"
    },
    {
      "channel": 4,
      "note": 45,
      "start": 5.4207,
      "duration": 0.3275,
      "velocity": 102,
      "chip": "ym2612"
    },
    {
      "channel": 3,
      "note": 33,
      "start": 5.423,
      "duration": 0.1491,
      "velocity": 113,
      "chip": "ym2612"
    },
    {
      "channel": 2,
      "note": 57,
      "start": 5.4253,
      "duration": 0.6574,
      "velocity": 94,
      "chip": "ym2612"
    },
    {
      "channel": 5,
      "note": 66,
      "start": 5.4955,
      "duration": 0.0852,
      "velocity": 127,
      "chip": "ym2612"
    },
    {
      "channel": 3,
      "note": 33,
      "start": 5.5728,
      "duration": 0.1777,
      "velocity": 113,
      "chip": "ym2612"
    },
    {
      "channel": 5,
      "note": 66,
      "start": 5.5813,
      "duration": 0.0834,
      "velocity": 127,
      "chip": "ym2612"
    },
    {
      "channel": 5,
      "note": 66,
      "start": 5.6653,
      "duration": 0.0892,
      "velocity": 127,
      "chip": "ym2612"
    },
    {
      "channel": 4,
      "note": 45,
      "start": 5.7488,
      "duration": 0.3385,
      "velocity": 102,
      "chip": "ym2612"
    },
    {
      "channel": 3,
      "note": 33,
      "start": 5.7511,
      "duration": 0.1599,
      "velocity": 113,
      "chip": "ym2612"
    },
    {
      "channel": 5,
      "note": 66,
      "start": 5.7551,
      "duration": 0.0771,
      "velocity": 127,
      "chip": "ym2612"
    },
    {
      "channel": 5,
      "note": 66,
      "start": 5.8329,
      "duration": 0.0821,
      "velocity": 127,
      "chip": "ym2612"
    },
    {
      "channel": 3,
      "note": 33,
      "start": 5.9116,
      "duration": 0.1779,
      "velocity": 113,
      "chip": "ym2612"
    },
    {
      "channel": 5,
      "note": 66,
      "start": 5.9156,
      "duration": 0.0864,
      "velocity": 127,
      "chip": "ym2612"
    },
    {
      "channel": 5,
      "note": 66,
      "start": 6.0027,
      "duration": 0.0909,
      "velocity": 127,
      "chip": "ym2612"
    },
    {
      "channel": 2,
      "note": 59,
      "start": 6.0833,
      "duration": 2.016,
      "velocity": 94,
      "chip": "ym2612"
    },
    {
      "channel": 4,
      "note": 45,
      "start": 6.088,
      "duration": 0.3336,
      "velocity": 102,
      "chip": "ym2612"
    },
    {
      "channel": 3,
      "note": 33,
      "start": 6.0902,
      "duration": 0.1599,
      "velocity": 113,
      "chip": "ym2612"
    },
    {
      "channel": 5,
      "note": 66,
      "start": 6.0942,
      "duration": 0.0709,
      "velocity": 127,
      "chip": "ym2612"
    },
    {
      "channel": 5,
      "note": 66,
      "start": 6.1658,
      "duration": 0.0882,
      "velocity": 127,
      "chip": "ym2612"
    },
    {
      "channel": 3,
      "note": 33,
      "start": 6.2507,
      "duration": 0.1732,
      "velocity": 113,
      "chip": "ym2612"
    },
    {
      "channel": 5,
      "note": 66,
      "start": 6.2546,
      "duration": 0.0803,
      "velocity": 127,
      "chip": "ym2612"
    },
    {
      "channel": 5,
      "note": 66,
      "start": 6.3356,
      "duration": 0.0922,
      "velocity": 127,
      "chip": "ym2612"
    },
    {
      "channel": 4,
      "note": 45,
      "start": 6.4222,
      "duration": 0.3367,
      "velocity": 102,
      "chip": "ym2612"
    },
    {
      "channel": 3,
      "note": 33,
      "start": 6.4245,
      "duration": 0.1583,
      "velocity": 113,
      "chip": "ym2612"
    },
    {
      "channel": 5,
      "note": 66,
      "start": 6.4284,
      "duration": 0.0741,
      "velocity": 127,
      "chip": "ym2612"
    },
    {
      "channel": 5,
      "note": 66,
      "start": 6.5031,
      "duration": 0.0882,
      "velocity": 127,
      "chip": "ym2612"
    },
    {
      "channel": 3,
      "note": 33,
      "start": 6.5834,
      "duration": 0.1777,
      "velocity": 113,
      "chip": "ym2612"
    },
    {
      "channel": 5,
      "note": 66,
      "start": 6.592,
      "duration": 0.0772,
      "velocity": 127,
      "chip": "ym2612"
    },
    {
      "channel": 5,
      "note": 66,
      "start": 6.6698,
      "duration": 0.0954,
      "velocity": 127,
      "chip": "ym2612"
    },
    {
      "channel": 4,
      "note": 45,
      "start": 6.7595,
      "duration": 0.3354,
      "velocity": 102,
      "chip": "ym2612"
    },
    {
      "channel": 3,
      "note": 33,
      "start": 6.7618,
      "duration": 0.1583,
      "velocity": 113,
      "chip": "ym2612"
    },
    {
      "channel": 5,
      "note": 66,
      "start": 6.7658,
      "duration": 0.0741,
      "velocity": 127,
      "chip": "ym2612"
    },
    {
      "channel": 5,
      "note": 66,
      "start": 6.8405,
      "duration": 0.0882,
      "velocity": 127,
      "chip": "ym2612"
    },
    {
      "channel": 3,
      "note": 33,
      "start": 6.9208,
      "duration": 0.1691,
      "velocity": 113,
      "chip": "ym2612"
    },
    {
      "channel": 5,
      "note": 66,
      "start": 6.9293,
      "duration": 0.0772,
      "velocity": 127,
      "chip": "ym2612"
    },
    {
      "channel": 5,
      "note": 66,
      "start": 7.0072,
      "duration": 0.0922,
      "velocity": 127,
      "chip": "ym2612"
    },
    {
      "channel": 3,
      "note": 33,
      "start": 7.0905,
      "duration": 0.1654,
      "velocity": 113,
      "chip": "ym2612"
    },
    {
      "channel": 4,
      "note": 45,
      "start": 7.0956,
      "duration": 0.3312,
      "velocity": 102,
      "chip": "ym2612"
    },
    {
      "channel": 5,
      "note": 66,
      "start": 7.1,
      "duration": 0.0772,
      "velocity": 127,
      "chip": "ym2612"
    },
    {
      "channel": 5,
      "note": 66,
      "start": 7.1778,
      "duration": 0.0821,
      "velocity": 127,
      "chip": "ym2612"
    },
    {
      "channel": 3,
      "note": 33,
      "start": 7.2565,
      "duration": 0.1725,
      "velocity": 113,
      "chip": "ym2612"
    },
    {
      "channel": 5,
      "note": 66,
      "start": 7.2605,
      "duration": 0.0834,
      "velocity": 127,
      "chip": "ym2612"
    },
    {
      "channel": 5,
      "note": 66,
      "start": 7.3445,
      "duration": 0.0922,
      "velocity": 127,
      "chip": "ym2612"
    },
    {
      "channel": 4,
      "note": 45,
      "start": 7.4274,
      "duration": 0.3373,
      "velocity": 102,
      "chip": "ym2612"
    },
    {
      "channel": 3,
      "note": 33,
      "start": 7.4297,
      "duration": 0.1635,
      "velocity": 113,
      "chip": "ym2612"
    },
    {
      "channel": 5,
      "note": 66,
      "start": 7.4374,
      "duration": 0.0771,
      "velocity": 127,
      "chip": "ym2612"
    },
    {
      "channel": 5,
      "note": 66,
      "start": 7.5151,
      "duration": 0.0821,
      "velocity": 127,
      "chip": "ym2612"
    },
    {
      "channel": 3,
      "note": 33,
      "start": 7.5939,
      "duration": 0.1731,
      "velocity": 113,
      "chip": "ym2612"
    },
    {
      "channel": 5,
      "note": 66,
      "start": 7.5978,
      "duration": 0.0834,
      "velocity": 127,
      "chip": "ym2612"
    },
    {
      "channel": 5,
      "note": 66,
      "start": 7.6819,
      "duration": 0.0891,
      "velocity": 127,
      "chip": "ym2612"
    },
    {
      "channel": 4,
      "note": 45,
      "start": 7.7654,
      "duration": 0.3385,
      "velocity": 102,
      "chip": "ym2612"
    },
    {
      "channel": 3,
      "note": 33,
      "start": 7.7676,
      "duration": 0.1585,
      "velocity": 113,
      "chip": "ym2612"
    },
    {
      "channel": 5,
      "note": 66,
      "start": 7.7716,
      "duration": 0.0772,
      "velocity": 127,
      "chip": "ym2612"
    },
    {
      "channel": 5,
      "note": 66,
      "start": 7.8494,
      "duration": 0.0852,
      "velocity": 127,
      "chip": "ym2612"
    },
    {
      "channel": 3,
      "note": 33,
      "start": 7.9266,
      "duration": 0.1796,
      "velocity": 113,
      "chip": "ym2612"
    },
    {
      "channel": 5,
      "note": 66,
      "start": 7.9352,
      "duration": 0.0803,
      "velocity": 127,
      "chip": "ym2612"
    },
    {
      "channel": 5,
      "note": 66,
      "start": 8.0161,
      "duration": 0.0941,
      "velocity": 127,
      "chip": "ym2612"
    },
    {
      "channel": 2,
      "note": 60,
      "start": 8.1,
      "duration": 1.007,
      "velocity": 94,
      "chip": "ym2612"
    },
    {
      "channel": 4,
      "note": 45,
      "start": 8.1046,
      "duration": 0.3385,
      "velocity": 102,
      "chip": "ym2612"
    },
    {
      "channel": 3,
      "note": 33,
      "start": 8.1068,
      "duration": 0.1598,
      "velocity": 113,
      "chip": "ym2612"
    },
    {
      "channel": 5,
      "note": 66,
      "start": 8.1109,
      "duration": 0.0709,
      "velocity": 127,
      "chip": "ym2612"
    },
    {
      "channel": 5,
      "note": 66,
      "start": 8.1824,
      "duration": 0.0882,
      "velocity": 127,
      "chip": "ym2612"
    },
    {
      "channel": 3,
      "note": 33,
      "start": 8.2673,
      "duration": 0.1707,
      "velocity": 113,
      "chip": "ym2612"
    },
    {
      "channel": 5,
      "note": 66,
      "start": 8.2713,
      "duration": 0.0803,
      "velocity": 127,
      "chip": "ym2612"
    },
    {
      "channel": 5,
      "note": 66,
      "start": 8.3522,
      "duration": 0.0954,
      "velocity": 127,
      "chip": "ym2612"
    },
    {
      "channel": 3,
      "note": 33,
      "start": 8.4387,
      "duration": 0.1654,
      "velocity": 113,
      "chip": "ym2612"
    },
    {
      "channel": 4,
      "note": 45,
      "start": 8.4438,
      "duration": 0.3312,
      "velocity": 102,
      "chip": "ym2612"
    },
    {
      "channel": 5,
      "note": 66,
      "start": 8.4482,
      "duration": 0.0709,
      "velocity": 127,
      "chip": "ym2612"
    },
    {
      "channel": 5,
      "note": 66,
      "start": 8.5198,
      "duration": 0.0882,
      "velocity": 127,
      "chip": "ym2612"
    },
    {
      "channel": 3,
      "note": 33,
      "start": 8.6047,
      "duration": 0.1724,
      "velocity": 113,
      "chip": "ym2612"
    },
    {
      "channel": 5,
      "note": 66,
      "start": 8.6086,
      "duration": 0.0803,
      "velocity": 127,
      "chip": "ym2612"
    },
    {
      "channel": 5,
      "note": 66,
      "start": 8.6895,
      "duration": 0.0954,
      "velocity": 127,
      "chip": "ym2612"
    },
    {
      "channel": 4,
      "note": 45,
      "start": 8.7755,
      "duration": 0.3361,
      "velocity": 102,
      "chip": "ym2612"
    },
    {
      "channel": 3,
      "note": 33,
      "start": 8.7778,
      "duration": 0.1575,
      "velocity": 113,
      "chip": "ym2612"
    },
    {
      "channel": 5,
      "note": 66,
      "start": 8.7856,
      "duration": 0.071,
      "velocity": 127,
      "chip": "ym2612"
    },
    {
      "channel": 5,
      "note": 66,
      "start": 8.8572,
      "duration": 0.0821,
      "velocity": 127,
      "chip": "ym2612"
    },
    {
      "channel": 3,
      "note": 33,
      "start": 8.9359,
      "duration": 0.178,
      "velocity": 113,
      "chip": "ym2612"
    },
    {
      "channel": 5,
      "note": 66,
      "start": 8.9399,
      "duration": 0.0865,
      "velocity": 127,
      "chip": "ym2612"
    },
    {
      "channel": 5,
      "note": 66,
      "start": 9.027,
      "duration": 0.0909,
      "velocity": 127,
      "chip": "ym2612"
    },
    {
      "channel": 2,
      "note": 62,
      "start": 9.1076,
      "duration": 1.6784,
      "velocity": 94,
      "chip": "ym2612"
    },
    {
      "channel": 4,
      "note": 45,
      "start": 9.1123,
      "duration": 0.3335,
      "velocity": 102,
      "chip": "ym2612"
    },
    {
      "channel": 3,
      "note": 33,
      "start": 9.1145,
      "duration": 0.1553,
      "velocity": 113,
      "chip": "ym2612"
    },
    {
      "channel": 5,
      "note": 66,
      "start": 9.1185,
      "duration": 0.0741,
      "velocity": 127,
      "chip": "ym2612"
    },
    {
      "channel": 5,
      "note": 66,
      "start": 9.1932,
      "duration": 0.0851,
      "velocity": 127,
      "chip": "ym2612"
    },
    {
      "channel": 3,
      "note": 33,
      "start": 9.2704,
      "duration": 0.1777,
      "velocity": 113,
      "chip": "ym2612"
    },
    {
      "channel": 5,
      "note": 66,
      "start": 9.2789,
      "duration": 0.0834,
      "velocity": 127,
      "chip": "ym2612"
    },
    {
      "channel": 5,
      "note": 66,
      "start": 9.363,
      "duration": 0.089,
      "velocity": 127,
      "chip": "ym2612"
    },
    {
      "channel": 4,
      "note": 45,
      "start": 9.4464,
      "duration": 0.3366,
      "velocity": 102,
      "chip": "ym2612"
    },
    {
      "channel": 3,
      "note": 33,
      "start": 9.4487,
      "duration": 0.1584,
      "velocity": 113,
      "chip": "ym2612"
    },
    {
      "channel": 5,
      "note": 66,
      "start": 9.4527,
      "duration": 0.0772,
      "velocity": 127,
      "chip": "ym2612"
    },
    {
      "channel": 5,
      "note": 66,
      "start": 9.5305,
      "duration": 0.0851,
      "velocity": 127,
      "chip": "ym2612"
    },
    {
      "channel": 3,
      "note": 33,
      "start": 9.6078,
      "duration": 0.1777,
      "velocity": 113,
      "chip": "ym2612"
    },
    {
      "channel": 5,
      "note": 66,
      "start": 9.6163,
      "duration": 0.0833,
      "velocity": 127,
      "chip": "ym2612"
    },
    {
      "channel": 5,
      "note": 66,
      "start": 9.7002,
      "duration": 0.089,
      "velocity": 127,
      "chip": "ym2612"
    },
    {
      "channel": 4,
      "note": 45,
      "start": 9.7837,
      "duration": 0.3367,
      "velocity": 102,
      "chip": "ym2612"
    },
    {
      "channel": 3,
      "note": 33,
      "start": 9.7861,
      "duration": 0.1583,
      "velocity": 113,
      "chip": "ym2612"
    },
    {
      "channel": 5,
      "note": 66,
      "start": 9.7899,
      "duration": 0.0741,
      "velocity": 127,
      "chip": "ym2612"
    },
    {
      "channel": 5,
      "note": 66,
      "start": 9.8646,
      "duration": 0.0882,
      "velocity": 127,
      "chip": "ym2612"
    },
    {
      "channel": 3,
      "note": 33,
      "start": 9.945,
      "duration": 0.1777,
      "velocity": 113,
      "chip": "ym2612"
    },
    {
      "channel": 5,
      "note": 66,
      "start": 9.9535,
      "duration": 0.0772,
      "velocity": 127,
      "chip": "ym2612"
    },
    {
      "channel": 5,
      "note": 66,
      "start": 10.0314,
      "duration": 0.0954,
      "velocity": 127,
      "chip": "ym2612"
    },
    {
      "channel": 4,
      "note": 45,
      "start": 10.121,
      "duration": 0.3367,
      "velocity": 102,
      "chip": "ym2612"
    },
    {
      "channel": 3,
      "note": 33,
      "start": 10.1233,
      "duration": 0.1598,
      "velocity": 113,
      "chip": "ym2612"
    },
    {
      "channel": 5,
      "note": 66,
      "start": 10.1273,
      "duration": 0.074,
      "velocity": 127,
      "chip": "ym2612"
    },
    {
      "channel": 5,
      "note": 66,
      "start": 10.202,
      "duration": 0.0852,
      "velocity": 127,
      "chip": "ym2612"
    },
    {
      "channel": 3,
      "note": 33,
      "start": 10.2838,
      "duration": 0.1763,
      "velocity": 113,
      "chip": "ym2612"
    },
    {
      "channel": 5,
      "note": 66,
      "start": 10.2878,
      "duration": 0.0803,
      "velocity": 127,
      "chip": "ym2612"
    },
    {
      "channel": 5,
      "note": 66,
      "start": 10.3686,
      "duration": 0.0954,
      "velocity": 127,
      "chip": "ym2612"
    },
    {
      "channel": 4,
      "note": 45,
      "start": 10.4584,
      "duration": 0.3322,
      "velocity": 102,
      "chip": "ym2612"
    },
    {
      "channel": 3,
      "note": 33,
      "start": 10.4607,
      "duration": 0.1599,
      "velocity": 113,
      "chip": "ym2612"
    },
    {
      "channel": 5,
      "note": 66,
      "start": 10.4647,
      "duration": 0.074,
      "velocity": 127,
      "chip": "ym2612"
    },
    {
      "channel": 5,
      "note": 66,
      "start": 10.5393,
      "duration": 0.0852,
      "velocity": 127,
      "chip": "ym2612"
    },
    {
      "channel": 3,
      "note": 33,
      "start": 10.6212,
      "duration": 0.1718,
      "velocity": 113,
      "chip": "ym2612"
    },
    {
      "channel": 5,
      "note": 66,
      "start": 10.6251,
      "duration": 0.0803,
      "velocity": 127,
      "chip": "ym2612"
    },
    {
      "channel": 5,
      "note": 66,
      "start": 10.706,
      "duration": 0.0909,
      "velocity": 127,
      "chip": "ym2612"
    },
    {
      "channel": 2,
      "note": 64,
      "start": 10.7867,
      "duration": 0.6705,
      "velocity": 94,
      "chip": "ym2612"
    },
    {
      "channel": 4,
      "note": 45,
      "start": 10.7913,
      "duration": 0.3386,
      "velocity": 102,
      "chip": "ym2612"
    },
    {
      "channel": 3,
      "note": 33,
      "start": 10.7936,
      "duration": 0.1599,
      "velocity": 113,
      "chip": "ym2612"
    },
    {
      "channel": 5,
      "note": 66,
      "start": 10.7976,
      "duration": 0.0772,
      "velocity": 127,
      "chip": "ym2612"
    },
    {
      "channel": 5,
      "note": 66,
      "start": 10.8754,
      "duration": 0.0821,
      "velocity": 127,
      "chip": "ym2612"
    },
    {
      "channel": 3,
      "note": 33,
      "start": 10.9541,
      "duration": 0.1707,
      "velocity": 113,
      "chip": "ym2612"
    },
    {
      "channel": 5,
      "note": 66,
      "start": 10.9581,
      "duration": 0.0833,
      "velocity": 127,
      "chip": "ym2612"
    },
    {
      "channel": 5,
      "note": 66,
      "start": 11.042,
      "duration": 0.0923,
      "velocity": 127,
      "chip": "ym2612"
    },
    {
      "channel": 3,
      "note": 33,
      "start": 11.1254,
      "duration": 0.1654,
      "velocity": 113,
      "chip": "ym2612"
    },
    {
      "channel": 4,
      "note": 45,
      "start": 11.1305,
      "duration": 0.3385,
      "velocity": 102,
      "chip": "ym2612"
    },
    {
      "channel": 5,
      "note": 66,
      "start": 11.135,
      "duration": 0.0771,
      "velocity": 127,
      "chip": "ym2612"
    },
    {
      "channel": 5,
      "note": 66,
      "start": 11.2127,
      "duration": 0.082,
      "velocity": 127,
      "chip": "ym2612"
    },
    {
      "channel": 3,
      "note": 33,
      "start": 11.2915,
      "duration": 0.1724,
      "velocity": 113,
      "chip": "ym2612"
    },
    {
      "channel": 5,
      "note": 66,
      "start": 11.2954,
      "duration": 0.0834,
      "velocity": 127,
      "chip": "ym2612"
    },
    {
      "channel": 5,
      "note": 66,
      "start": 11.3794,
      "duration": 0.094,
      "velocity": 127,
      "chip": "ym2612"
    },
    {
      "channel": 2,
      "note": 65,
      "start": 11.4579,
      "duration": 0.672,
      "velocity": 94,
      "chip": "ym2612"
    },
    {
      "channel": 3,
      "note": 33,
      "start": 11.4646,
      "duration": 0.1623,
      "velocity": 113,
      "chip": "ym2612"
    },
    {
      "channel": 4,
      "note": 45,
      "start": 11.4696,
      "duration": 0.3318,
      "velocity": 102,
      "chip": "ym2612"
    },
    {
      "channel": 5,
      "note": 66,
      "start": 11.474,
      "duration": 0.0741,
      "velocity": 127,
      "chip": "ym2612"
    },
    {
      "channel": 5,
      "note": 66,
      "start": 11.5488,
      "duration": 0.0821,
      "velocity": 127,
      "chip": "ym2612"
    },
    {
      "channel": 3,
      "note": 33,
      "start": 11.6275,
      "duration": 0.1762,
      "velocity": 113,
      "chip": "ym2612"
    },
    {
      "channel": 5,
      "note": 66,
      "start": 11.6315,
      "duration": 0.0803,
      "velocity": 127,
      "chip": "ym2612"
    },
    {
      "channel": 5,
      "note": 66,
      "start": 11.7124,
      "duration": 0.0954,
      "velocity": 127,
      "chip": "ym2612"
    },
    {
      "channel": 4,
      "note": 45,
      "start": 11.8021,
      "duration": 0.3385,
      "velocity": 102,
      "chip": "ym2612"
    },
    {
      "channel": 3,
      "note": 33,
      "start": 11.8044,
      "duration": 0.1598,
      "velocity": 113,
      "chip": "ym2612"
    },
    {
      "channel": 5,
      "note": 66,
      "start": 11.8084,
      "duration": 0.0709,
      "velocity": 127,
      "chip": "ym2612"
    },
    {
      "channel": 5,
      "note": 66,
      "start": 11.8799,
      "duration": 0.0883,
      "velocity": 127,
      "chip": "ym2612"
    },
    {
      "channel": 3,
      "note": 33,
      "start": 11.9648,
      "duration": 0.178,
      "velocity": 113,
      "chip": "ym2612"
    },
    {
      "channel": 5,
      "note": 66,
      "start": 11.9688,
      "duration": 0.0803,
      "velocity": 127,
      "chip": "ym2612"
    },
    {
      "channel": 5,
      "note": 66,
      "start": 12.0497,
      "duration": 0.0971,
      "velocity": 127,
      "chip": "ym2612"
    },
    {
      "channel": 2,
      "note": 64,
      "start": 12.1305,
      "duration": 0.6711,
      "velocity": 94,
      "chip": "ym2612"
    },
    {
      "channel": 4,
      "note": 45,
      "start": 12.1413,
      "duration": 0.3335,
      "velocity": 102,
      "chip": "ym2612"
    },
    {
      "channel": 3,
      "note": 33,
      "start": 12.1435,
      "duration": 0.1553,
      "velocity": 113,
      "chip": "ym2612"
    },
    {
      "channel": 5,
      "note": 66,
      "start": 12.1475,
      "duration": 0.0709,
      "velocity": 127,
      "chip": "ym2612"
    },
    {
      "channel": 5,
      "note": 66,
      "start": 12.2191,
      "duration": 0.0882,
      "velocity": 127,
      "chip": "ym2612"
    },
    {
      "channel": 3,
      "note": 33,
      "start": 12.2994,
      "duration": 0.1777,
      "velocity": 113,
      "chip": "ym2612"
    },
    {
      "channel": 5,
      "note": 66,
      "start": 12.3079,
      "duration": 0.0772,
      "velocity": 127,
      "chip": "ym2612"
    },
    {
      "channel": 5,
      "note": 66,
      "start": 12.3858,
      "duration": 0.0952,
      "velocity": 127,
      "chip": "ym2612"
    },
    {
      "channel": 4,
      "note": 45,
      "start": 12.4754,
      "duration": 0.3316,
      "velocity": 102,
      "chip": "ym2612"
    },
    {
      "channel": 3,
      "note": 33,
      "start": 12.4778,
      "duration": 0.1566,
      "velocity": 113,
      "chip": "ym2612"
    },
    {
      "channel": 5,
      "note": 66,
      "start": 12.4817,
      "duration": 0.074,
      "velocity": 127,
      "chip": "ym2612"
    },
    {
      "channel": 5,
      "note": 66,
      "start": 12.5563,
      "duration": 0.0821,
      "velocity": 127,
      "chip": "ym2612"
    },
    {
      "channel": 3,
      "note": 33,
      "start": 12.635,
      "duration": 0.1743,
      "velocity": 113,
      "chip": "ym2612"
    },
    {
      "channel": 5,
      "note": 66,
      "start": 12.639,
      "duration": 0.0834,
      "velocity": 127,
      "chip": "ym2612"
    },
    {
      "channel": 5,
      "note": 66,
      "start": 12.7231,
      "duration": 0.0939,
      "velocity": 127,
      "chip": "ym2612"
    },
    {
      "channel": 2,
      "note": 62,
      "start": 12.8022,
      "duration": 0.6712,
      "velocity": 94,
      "chip": "ym2612"
    },
    {
      "channel": 4,
      "note": 45,
      "start": 12.8077,
      "duration": 0.3373,
      "velocity": 102,
      "chip": "ym2612"
    },
    {
      "channel": 3,
      "note": 33,
      "start": 12.81,
      "duration": 0.1605,
      "velocity": 113,
      "chip": "ym2612"
    },
    {
      "channel": 5,
      "note": 66,
      "start": 12.8177,
      "duration": 0.0741,
      "velocity": 127,
      "chip": "ym2612"
    },
    {
      "channel": 5,
      "note": 66,
      "start": 12.8924,
      "duration": 0.0821,
      "velocity": 127,
      "chip": "ym2612"
    },
    {
      "channel": 3,
      "note": 33,
      "start": 12.9711,
      "duration": 0.1762,
      "velocity": 113,
      "chip": "ym2612"
    },
    {
      "channel": 5,
      "note": 66,
      "start": 12.9751,
      "duration": 0.0864,
      "velocity": 127,
      "chip": "ym2612"
    },
    {
      "channel": 5,
      "note": 66,
      "start": 13.0622,
      "duration": 0.0891,
      "velocity": 127,
      "chip": "ym2612"
    },
    {
      "channel": 4,
      "note": 45,
      "start": 13.1457,
      "duration": 0.3402,
      "velocity": 102,
      "chip": "ym2612"
    },
    {
      "channel": 3,
      "note": 33,
      "start": 13.148,
      "duration": 0.1598,
      "velocity": 113,
      "chip": "ym2612"
    },
    {
      "channel": 5,
      "note": 66,
      "start": 13.152,
      "duration": 0.0771,
      "velocity": 127,
      "chip": "ym2612"
    },
    {
      "channel": 5,
      "note": 66,
      "start": 13.2297,
      "duration": 0.082,
      "velocity": 127,
      "chip": "ym2612"
    },
    {
      "channel": 3,
      "note": 33,
      "start": 13.3084,
      "duration": 0.1798,
      "velocity": 113,
      "chip": "ym2612"
    },
    {
      "channel": 5,
      "note": 66,
      "start": 13.3124,
      "duration": 0.0864,
      "velocity": 127,
      "chip": "ym2612"
    },
    {
      "channel": 5,
      "note": 66,
      "start": 13.3995,
      "duration": 0.0927,
      "velocity": 127,
      "chip": "ym2612"
    },
    {
      "channel": 2,
      "note": 64,
      "start": 13.4741,
      "duration": 0.676,
      "velocity": 94,
      "chip": "ym2612"
    },
    {
      "channel": 1,
      "note": 45,
      "start": 13.4763,
      "duration": 5.3768,
      "velocity": 94,
      "chip": "ym2612"
    },
    {
      "channel": 4,
      "note": 45,
      "start": 13.4866,
      "duration": 0.3299,
      "velocity": 102,
      "chip": "ym2612"
    },
    {
      "channel": 3,
      "note": 33,
      "start": 13.4889,
      "duration": 0.1567,
      "velocity": 113,
      "chip": "ym2612"
    },
    {
      "channel": 5,
      "note": 66,
      "start": 13.4928,
      "duration": 0.0679,
      "velocity": 127,
      "chip": "ym2612"
    },
    {
      "channel": 5,
      "note": 66,
      "start": 13.5613,
      "duration": 0.0882,
      "velocity": 127,
      "chip": "ym2612"
    },
    {
      "channel": 3,
      "note": 33,
      "start": 13.6462,
      "duration": 0.1724,
      "velocity": 113,
      "chip": "ym2612"
    },
    {
      "channel": 5,
      "note": 66,
      "start": 13.6502,
      "duration": 0.0803,
      "velocity": 127,
      "chip": "ym2612"
    },
    {
      "channel": 5,
      "note": 66,
      "start": 13.7311,
      "duration": 0.0954,
      "velocity": 127,
      "chip": "ym2612"
    },
    {
      "channel": 4,
      "note": 45,
      "start": 13.817,
      "duration": 0.3385,
      "velocity": 102,
      "chip": "ym2612"
    },
    {
      "channel": 3,
      "note": 33,
      "start": 13.8193,
      "duration": 0.1636,
      "velocity": 113,
      "chip": "ym2612"
    },
    {
      "channel": 5,
      "note": 66,
      "start": 13.8271,
      "duration": 0.0709,
      "velocity": 127,
      "chip": "ym2612"
    },
    {
      "channel": 5,
      "note": 66,
      "start": 13.8987,
      "duration": 0.0882,
      "velocity": 127,
      "chip": "ym2612"
    },
    {
      "channel": 3,
      "note": 33,
      "start": 13.9836,
      "duration": 0.1743,
      "velocity": 113,
      "chip": "ym2612"
    },
    {
      "channel": 5,
      "note": 66,
      "start": 13.9875,
      "duration": 0.0803,
      "velocity": 127,
      "chip": "ym2612"
    },
    {
      "channel": 5,
      "note": 66,
      "start": 14.0684,
      "duration": 0.0971,
      "velocity": 127,
      "chip": "ym2612"
    },
    {
      "channel": 2,
      "note": 65,
      "start": 14.1507,
      "duration": 1.0087,
      "velocity": 94,
      "chip": "ym2612"
    },
    {
      "channel": 4,
      "note": 45,
      "start": 14.1562,
      "duration": 0.3312,
      "velocity": 102,
      "chip": "ym2612"
    },
    {
      "channel": 3,
      "note": 33,
      "start": 14.1585,
      "duration": 0.1605,
      "velocity": 113,
      "chip": "ym2612"
    },
    {
      "channel": 5,
      "note": 66,
      "start": 14.1662,
      "duration": 0.0679,
      "velocity": 127,
      "chip": "ym2612"
    },
    {
      "channel": 5,
      "note": 66,
      "start": 14.2347,
      "duration": 0.0883,
      "velocity": 127,
      "chip": "ym2612"
    },
    {
      "channel": 3,
      "note": 33,
      "start": 14.3196,
      "duration": 0.17,
      "velocity": 113,
      "chip": "ym2612"
    },
    {
      "channel": 5,
      "note": 66,
      "start": 14.3237,
      "duration": 0.0803,
      "velocity": 127,
      "chip": "ym2612"
    },
    {
      "channel": 5,
      "note": 66,
      "start": 14.4046,
      "duration": 0.0891,
      "velocity": 127,
      "chip": "ym2612"
    },
    {
      "channel": 4,
      "note": 45,
      "start": 14.488,
      "duration": 0.3368,
      "velocity": 102,
      "chip": "ym2612"
    },
    {
      "channel": 3,
      "note": 33,
      "start": 14.4903,
      "duration": 0.1584,
      "velocity": 113,
      "chip": "ym2612"
    },
    {
      "channel": 5,
      "note": 66,
      "start": 14.4943,
      "duration": 0.0772,
      "velocity": 127,
      "chip": "ym2612"
    },
    {
      "channel": 5,
      "note": 66,
      "start": 14.5721,
      "duration": 0.0851,
      "velocity": 127,
      "chip": "ym2612"
    },
    {
      "channel": 3,
      "note": 33,
      "start": 14.6493,
      "duration": 0.1778,
      "velocity": 113,
      "chip": "ym2612"
    },
    {
      "channel": 5,
      "note": 66,
      "start": 14.6579,
      "duration": 0.0834,
      "velocity": 127,
      "chip": "ym2612"
    },
    {
      "channel": 5,
      "note": 66,
      "start": 14.7419,
      "duration": 0.0891,
      "velocity": 127,
      "chip": "ym2612"
    },
    {
      "channel": 4,
      "note": 45,
      "start": 14.8254,
      "duration": 0.3385,
      "velocity": 102,
      "chip": "ym2612"
    },
    {
      "channel": 3,
      "note": 33,
      "start": 14.8277,
      "duration": 0.1584,
      "velocity": 113,
      "chip": "ym2612"
    },
    {
      "channel": 5,
      "note": 66,
      "start": 14.8317,
      "duration": 0.0772,
      "velocity": 127,
      "chip": "ym2612"
    },
    {
      "channel": 5,
      "note": 66,
      "start": 14.9095,
      "duration": 0.0852,
      "velocity": 127,
      "chip": "ym2612"
    },
    {
      "channel": 3,
      "note": 33,
      "start": 14.9868,
      "duration": 0.1795,
      "velocity": 113,
      "chip": "ym2612"
    },
    {
      "channel": 5,
      "note": 66,
      "start": 14.9953,
      "duration": 0.0833,
      "velocity": 127,
      "chip": "ym2612"
    },
    {
      "channel": 5,
      "note": 66,
      "start": 15.0793,
      "duration": 0.091,
      "velocity": 127,
      "chip": "ym2612"
    },
    {
      "channel": 2,
      "note": 64,
      "start": 15.16,
      "duration": 0.3354,
      "velocity": 94,
      "chip": "ym2612"
    },
    {
      "channel": 4,
      "note": 45,
      "start": 15.1646,
      "duration": 0.3354,
      "velocity": 102,
      "chip": "ym2612"
    },
    {
      "channel": 3,
      "note": 33,
      "start": 15.1668,
      "duration": 0.1599,
      "velocity": 113,
      "chip": "ym2612"
    },
    {
      "channel": 5,
      "note": 66,
      "start": 15.1709,
      "duration": 0.0772,
      "velocity": 127,
      "chip": "ym2612"
    },
    {
      "channel": 5,
      "note": 66,
      "start": 15.2487,
      "duration": 0.082,
      "velocity": 127,
      "chip": "ym2612"
    },
    {
      "channel": 3,
      "note": 33,
      "start": 15.3274,
      "duration": 0.1749,
      "velocity": 113,
      "chip": "ym2612"
    },
    {
      "channel": 5,
      "note": 66,
      "start": 15.3314,
      "duration": 0.0803,
      "velocity": 127,
      "chip": "ym2612"
    },
    {
      "channel": 5,
      "note": 66,
      "start": 15.4123,
      "duration": 0.0941,
      "velocity": 127,
      "chip": "ym2612"
    },
    {
      "channel": 2,
      "note": 62,
      "start": 15.4961,
      "duration": 0.3333,
      "velocity": 94,
      "chip": "ym2612"
    },
    {
      "channel": 4,
      "note": 45,
      "start": 15.5007,
      "duration": 0.3404,
      "velocity": 102,
      "chip": "ym2612"
    },
    {
      "channel": 3,
      "note": 33,
      "start": 15.503,
      "duration": 0.1599,
      "velocity": 113,
      "chip": "ym2612"
    },
    {
      "channel": 5,
      "note": 66,
      "start": 15.507,
      "duration": 0.0709,
      "velocity": 127,
      "chip": "ym2612"
    },
    {
      "channel": 5,
      "note": 66,
      "start": 15.5785,
      "duration": 0.0882,
      "velocity": 127,
      "chip": "ym2612"
    },
    {
      "channel": 3,
      "note": 33,
      "start": 15.6635,
      "duration": 0.1725,
      "velocity": 113,
      "chip": "ym2612"
    },
    {
      "channel": 5,
      "note": 66,
      "start": 15.6674,
      "duration": 0.0803,
      "velocity": 127,
      "chip": "ym2612"
    },
    {
      "channel": 5,
      "note": 66,
      "start": 15.7483,
      "duration": 0.0972,
      "velocity": 127,
      "chip": "ym2612"
    },
    {
      "channel": 2,
      "note": 57,
      "start": 15.8299,
      "duration": 0.3408,
      "velocity": 94,
      "chip": "ym2612"
    },
    {
      "channel": 3,
      "note": 33,
      "start": 15.8366,
      "duration": 0.1623,
      "velocity": 113,
      "chip": "ym2612"
    },
    {
      "channel": 4,
      "note": 45,
      "start": 15.8417,
      "duration": 0.3337,
      "velocity": 102,
      "chip": "ym2612"
    },
    {
      "channel": 5,
      "note": 66,
      "start": 15.8462,
      "duration": 0.0709,
      "velocity": 127,
      "chip": "ym2612"
    },
    {
      "channel": 5,
      "note": 66,
      "start": 15.9177,
      "duration": 0.0852,
      "velocity": 127,
      "chip": "ym2612"
    },
    {
      "channel": 3,
      "note": 33,
      "start": 15.9995,
      "duration": 0.178,
      "velocity": 113,
      "chip": "ym2612"
    },
    {
      "channel": 5,
      "note": 66,
      "start": 16.0036,
      "duration": 0.0803,
      "velocity": 127,
      "chip": "ym2612"
    },
    {
      "channel": 5,
      "note": 66,
      "start": 16.0845,
      "duration": 0.0971,
      "velocity": 127,
      "chip": "ym2612"
    },
    {
      "channel": 2,
      "note": 67,
      "start": 16.1714,
      "duration": 0.6643,
      "velocity": 94,
      "chip": "ym2612"
    },
    {
      "channel": 4,
      "note": 45,
      "start": 16.176,
      "duration": 0.3305,
      "velocity": 102,
      "chip": "ym2612"
    },
    {
      "channel": 3,
      "note": 33,
      "start": 16.1782,
      "duration": 0.1536,
      "velocity": 113,
      "chip": "ym2612"
    },
    {
      "channel": 5,
      "note": 66,
      "start": 16.1822,
      "duration": 0.0709,
      "velocity": 127,
      "chip": "ym2612"
    },
    {
      "channel": 5,
      "note": 66,
      "start": 16.2538,
      "duration": 0.0821,
      "velocity": 127,
      "chip": "ym2612"
    },
    {
      "channel": 3,
      "note": 33,
      "start": 16.3325,
      "duration": 0.1763,
      "velocity": 113,
      "chip": "ym2612"
    },
    {
      "channel": 5,
      "note": 66,
      "start": 16.3365,
      "duration": 0.0864,
      "velocity": 127,
      "chip": "ym2612"
    },
    {
      "channel": 5,
      "note": 66,
      "start": 16.4236,
      "duration": 0.0892,
      "velocity": 127,
      "chip": "ym2612"
    },
    {
      "channel": 4,
      "note": 45,
      "start": 16.5071,
      "duration": 0.3402,
      "velocity": 102,
      "chip": "ym2612"
    },
    {
      "channel": 3,
      "note": 33,
      "start": 16.5094,
      "duration": 0.1598,
      "velocity": 113,
      "chip": "ym2612"
    },
    {
      "channel": 5,
      "note": 66,
      "start": 16.5134,
      "duration": 0.0771,
      "velocity": 127,
      "chip": "ym2612"
    },
    {
      "channel": 5,
      "note": 66,
      "start": 16.5912,
      "duration": 0.082,
      "velocity": 127,
      "chip": "ym2612"
    },
    {
      "channel": 3,
      "note": 33,
      "start": 16.6699,
      "duration": 0.1724,
      "velocity": 113,
      "chip": "ym2612"
    },
    {
      "channel": 5,
      "note": 66,
      "start": 16.6738,
      "duration": 0.0833,
      "velocity": 127,
      "chip": "ym2612"
    },
    {
      "channel": 5,
      "note": 66,
      "start": 16.7578,
      "duration": 0.094,
      "velocity": 127,
      "chip": "ym2612"
    },
    {
      "channel": 2,
      "note": 65,
      "start": 16.8363,
      "duration": 0.6782,
      "velocity": 94,
      "chip": "ym2612"
    },
    {
      "channel": 3,
      "note": 33,
      "start": 16.843,
      "duration": 0.1623,
      "velocity": 113,
      "chip": "ym2612"
    },
    {
      "channel": 4,
      "note": 45,
      "start": 16.848,
      "duration": 0.3318,
      "velocity": 102,
      "chip": "ym2612"
    },
    {
      "channel": 5,
      "note": 66,
      "start": 16.8525,
      "duration": 0.0741,
      "velocity": 127,
      "chip": "ym2612"
    },
    {
      "channel": 5,
      "note": 66,
      "start": 16.9272,
      "duration": 0.0821,
      "velocity": 127,
      "chip": "ym2612"
    },
    {
      "channel": 3,
      "note": 33,
      "start": 17.0059,
      "duration": 0.1762,
      "velocity": 113,
      "chip": "ym2612"
    },
    {
      "channel": 5,
      "note": 66,
      "start": 17.0099,
      "duration": 0.0864,
      "velocity": 127,
      "chip": "ym2612"
    },
    {
      "channel": 5,
      "note": 66,
      "start": 17.0969,
      "duration": 0.0892,
      "velocity": 127,
      "chip": "ym2612"
    },
    {
      "channel": 4,
      "note": 45,
      "start": 17.1805,
      "duration": 0.3386,
      "velocity": 102,
      "chip": "ym2612"
    },
    {
      "channel": 3,
      "note": 33,
      "start": 17.1827,
      "duration": 0.1599,
      "velocity": 113,
      "chip": "ym2612"
    },
    {
      "channel": 5,
      "note": 66,
      "start": 17.1868,
      "duration": 0.074,
      "velocity": 127,
      "chip": "ym2612"
    },
    {
      "channel": 5,
      "note": 66,
      "start": 17.2614,
      "duration": 0.0852,
      "velocity": 127,
      "chip": "ym2612"
    },
    {
      "channel": 3,
      "note": 33,
      "start": 17.3433,
      "duration": 0.178,
      "velocity": 113,
      "chip": "ym2612"
    },
    {
      "channel": 5,
      "note": 66,
      "start": 17.3473,
      "duration": 0.0803,
      "velocity": 127,
      "chip": "ym2612"
    },
    {
      "channel": 5,
      "note": 66,
      "start": 17.4282,
      "duration": 0.0971,
      "velocity": 127,
      "chip": "ym2612"
    },
    {
      "channel": 2,
      "note": 64,
      "start": 17.5151,
      "duration": 0.6643,
      "velocity": 94,
      "chip": "ym2612"
    },
    {
      "channel": 4,
      "note": 45,
      "start": 17.5197,
      "duration": 0.3336,
      "velocity": 102,
      "chip": "ym2612"
    },
    {
      "channel": 3,
      "note": 33,
      "start": 17.5219,
      "duration": 0.1553,
      "velocity": 113,
      "chip": "ym2612"
    },
    {
      "channel": 5,
      "note": 66,
      "start": 17.5259,
      "duration": 0.0709,
      "velocity": 127,
      "chip": "ym2612"
    },
    {
      "channel": 5,
      "note": 66,
      "start": 17.5975,
      "duration": 0.0882,
      "velocity": 127,
      "chip": "ym2612"
    },
    {
      "channel": 3,
      "note": 33,
      "start": 17.6778,
      "duration": 0.1777,
      "velocity": 113,
      "chip": "ym2612"
    },
    {
      "channel": 5,
      "note": 66,
      "start": 17.6864,
      "duration": 0.0772,
      "velocity": 127,
      "chip": "ym2612"
    },
    {
      "channel": 5,
      "note": 66,
      "start": 17.7642,
      "duration": 0.0954,
      "velocity": 127,
      "chip": "ym2612"
    },
    {
      "channel": 4,
      "note": 45,
      "start": 17.8539,
      "duration": 0.3372,
      "velocity": 102,
      "chip": "ym2612"
    },
    {
      "channel": 3,
      "note": 33,
      "start": 17.8562,
      "duration": 0.1583,
      "velocity": 113,
      "chip": "ym2612"
    },
    {
      "channel": 5,
      "note": 66,
      "start": 17.8602,
      "duration": 0.0741,
      "velocity": 127,
      "chip": "ym2612"
    },
    {
      "channel": 5,
      "note": 66,
      "start": 17.9349,
      "duration": 0.0882,
      "velocity": 127,
      "chip": "ym2612"
    },
    {
      "channel": 3,
      "note": 33,
      "start": 18.0152,
      "duration": 0.1709,
      "velocity": 113,
      "chip": "ym2612"
    },
    {
      "channel": 5,
      "note": 66,
      "start": 18.0237,
      "duration": 0.0772,
      "velocity": 127,
      "chip": "ym2612"
    },
    {
      "channel": 5,
      "note": 66,
      "start": 18.1016,
      "duration": 0.094,
      "velocity": 127,
      "chip": "ym2612"
    },
    {
      "channel": 2,
      "note": 62,
      "start": 18.18,
      "duration": 0.6822,
      "velocity": 94,
      "chip": "ym2612"
    },
    {
      "channel": 3,
      "note": 33,
      "start": 18.1867,
      "duration": 0.1623,
      "velocity": 113,
      "chip": "ym2612"
    },
    {
      "channel": 4,
      "note": 45,
      "start": 18.1918,
      "duration": 0.3317,
      "velocity": 102,
      "chip": "ym2612"
    },
    {
      "channel": 5,
      "note": 66,
      "start": 18.1962,
      "duration": 0.074,
      "velocity": 127,
      "chip": "ym2612"
    },
    {
      "channel": 5,
      "note": 66,
      "start": 18.2709,
      "duration": 0.0821,
      "velocity": 127,
      "chip": "ym2612"
    },
    {
      "channel": 3,
      "note": 33,
      "start": 18.3497,
      "duration": 0.1761,
      "velocity": 113,
      "chip": "ym2612"
    },
    {
      "channel": 5,
      "note": 66,
      "start": 18.3536,
      "duration": 0.0865,
      "velocity": 127,
      "chip": "ym2612"
    },
    {
      "channel": 5,
      "note": 66,
      "start": 18.4407,
      "duration": 0.0891,
      "velocity": 127,
      "chip": "ym2612"
    },
    {
      "channel": 4,
      "note": 45,
      "start": 18.5242,
      "duration": 0.3441,
      "velocity": 102,
      "chip": "ym2612"
    },
    {
      "channel": 3,
      "note": 33,
      "start": 18.5264,
      "duration": 0.1599,
      "velocity": 113,
      "chip": "ym2612"
    },
    {
      "channel": 5,
      "note": 66,
      "start": 18.5305,
      "duration": 0.0772,
      "velocity": 127,
      "chip": "ym2612"
    },
    {
      "channel": 5,
      "note": 66,
      "start": 18.6083,
      "duration": 0.082,
      "velocity": 127,
      "chip": "ym2612"
    },
    {
      "channel": 3,
      "note": 33,
      "start": 18.6869,
      "duration": 0.1837,
      "velocity": 113,
      "chip": "ym2612"
    },
    {
      "channel": 5,
      "note": 66,
      "start": 18.6909,
      "duration": 0.0865,
      "velocity": 127,
      "chip": "ym2612"
    },
    {
      "channel": 5,
      "note": 66,
      "start": 18.778,
      "duration": 0.0974,
      "velocity": 127,
      "chip": "ym2612"
    },
    {
      "channel": 1,
      "note": 57,
      "start": 18.8537,
      "duration": 5.3869,
      "velocity": 94,
      "chip": "ym2612"
    },
    {
      "channel": 2,
      "note": 57,
      "start": 18.8629,
      "duration": 0.6644,
      "velocity": 94,
      "chip": "ym2612"
    },
    {
      "channel": 4,
      "note": 45,
      "start": 18.8689,
      "duration": 0.3305,
      "velocity": 102,
      "chip": "ym2612"
    },
    {
      "channel": 3,
      "note": 33,
      "start": 18.8712,
      "duration": 0.1549,
      "velocity": 113,
      "chip": "ym2612"
    },
    {
      "channel": 5,
      "note": 66,
      "start": 18.876,
      "duration": 0.0696,
      "velocity": 127,
      "chip": "ym2612"
    },
    {
      "channel": 0,
      "note": 69,
      "start": 18.8801,
      "duration": 0.141,
      "velocity": 95,
      "chip": "ym2612"
    },
    {
      "channel": 5,
      "note": 66,
      "start": 18.9462,
      "duration": 0.0839,
      "velocity": 127,
      "chip": "ym2612"
    },
    {
      "channel": 0,
      "note": 57,
      "start": 19.0217,
      "duration": 0.1679,
      "velocity": 95,
      "chip": "ym2612"
    },
    {
      "channel": 3,
      "note": 33,
      "start": 19.0268,
      "duration": 0.1749,
      "velocity": 113,
      "chip": "ym2612"
    },
    {
      "channel": 5,
      "note": 66,
      "start": 19.0308,
      "duration": 0.0771,
      "velocity": 127,
      "chip": "ym2612"
    },
    {
      "channel": 5,
      "note": 66,
      "start": 19.1085,
      "duration": 0.0971,
      "velocity": 127,
      "chip": "ym2612"
    },
    {
      "channel": 0,
      "note": 69,
      "start": 19.1902,
      "duration": 0.1705,
      "velocity": 95,
      "chip": "ym2612"
    },
    {
      "channel": 4,
      "note": 45,
      "start": 19.2,
      "duration": 0.3409,
      "velocity": 102,
      "chip": "ym2612"
    },
    {
      "channel": 3,
      "note": 33,
      "start": 19.2023,
      "duration": 0.1554,
      "velocity": 113,
      "chip": "ym2612"
    },
    {
      "channel": 5,
      "note": 66,
      "start": 19.2063,
      "duration": 0.0709,
      "velocity": 127,
      "chip": "ym2612"
    },
    {
      "channel": 5,
      "note": 66,
      "start": 19.2778,
      "duration": 0.0901,
      "velocity": 127,
      "chip": "ym2612"
    },
    {
      "channel": 3,
      "note": 33,
      "start": 19.3582,
      "duration": 0.1777,
      "velocity": 113,
      "chip": "ym2612"
    },
    {
      "channel": 0,
      "note": 71,
      "start": 19.3614,
      "duration": 0.1686,
      "velocity": 95,
      "chip": "ym2612"
    },
    {
      "channel": 5,
      "note": 66,
      "start": 19.3686,
      "duration": 0.0772,
      "velocity": 127,
      "chip": "ym2612"
    },
    {
      "channel": 5,
      "note": 66,
      "start": 19.4464,
      "duration": 0.099,
      "velocity": 127,
      "chip": "ym2612"
    },
    {
      "channel": 2,
      "note": 59,
      "start": 19.528,
      "duration": 2.023,
      "velocity": 94,
      "chip": "ym2612"
    },
    {
      "channel": 0,
      "note": 59,
      "start": 19.5307,
      "duration": 0.1649,
      "velocity": 95,
      "chip": "ym2612"
    },
    {
      "channel": 3,
      "note": 33,
      "start": 19.5365,
      "duration": 0.1641,
      "velocity": 113,
      "chip": "ym2612"
    },
    {
      "channel": 4,
      "note": 45,
      "start": 19.5416,
      "duration": 0.3322,
      "velocity": 102,
      "chip": "ym2612"
    },
    {
      "channel": 5,
      "note": 66,
      "start": 19.5461,
      "duration": 0.0679,
      "velocity": 127,
      "chip": "ym2612"
    },
    {
      "channel": 5,
      "note": 66,
      "start": 19.6146,
      "duration": 0.09,
      "velocity": 127,
      "chip": "ym2612"
    },
    {
      "channel": 0,
      "note": 71,
      "start": 19.6962,
      "duration": 0.1678,
      "velocity": 95,
      "chip": "ym2612"
    },
    {
      "channel": 3,
      "note": 33,
      "start": 19.7013,
      "duration": 0.1749,
      "velocity": 113,
      "chip": "ym2612"
    },
    {
      "channel": 5,
      "note": 66,
      "start": 19.7052,
      "duration": 0.0771,
      "velocity": 127,
      "chip": "ym2612"
    },
    {
      "channel": 5,
      "note": 66,
      "start": 19.783,
      "duration": 0.0971,
      "velocity": 127,
      "chip": "ym2612"
    },
    {
      "channel": 0,
      "note": 72,
      "start": 19.8647,
      "duration": 0.1625,
      "velocity": 95,
      "chip": "ym2612"
    },
    {
      "channel": 4,
      "note": 45,
      "start": 19.8745,
      "duration": 0.331,
      "velocity": 102,
      "chip": "ym2612"
    },
    {
      "channel": 3,
      "note": 33,
      "start": 19.8768,
      "duration": 0.1554,
      "velocity": 113,
      "chip": "ym2612"
    },
    {
      "channel": 5,
      "note": 66,
      "start": 19.8807,
      "duration": 0.0709,
      "velocity": 127,
      "chip": "ym2612"
    },
    {
      "channel": 5,
      "note": 66,
      "start": 19.9523,
      "duration": 0.0839,
      "velocity": 127,
      "chip": "ym2612"
    },
    {
      "channel": 0,
      "note": 60,
      "start": 20.0278,
      "duration": 0.1679,
      "velocity": 95,
      "chip": "ym2612"
    },
    {
      "channel": 3,
      "note": 33,
      "start": 20.0328,
      "duration": 0.1749,
      "velocity": 113,
      "chip": "ym2612"
    },
    {
      "channel": 5,
      "note": 66,
      "start": 20.0368,
      "duration": 0.0834,
      "velocity": 127,
      "chip": "ym2612"
    },
    {
      "channel": 5,
      "note": 66,
      "start": 20.1208,
      "duration": 0.091,
      "velocity": 127,
      "chip": "ym2612"
    },
    {
      "channel": 0,
      "note": 72,
      "start": 20.1964,
      "duration": 0.1688,
      "velocity": 95,
      "chip": "ym2612"
    },
    {
      "channel": 4,
      "note": 45,
      "start": 20.2062,
      "duration": 0.3372,
      "velocity": 102,
      "chip": "ym2612"
    },
    {
      "channel": 3,
      "note": 33,
      "start": 20.2084,
      "duration": 0.1618,
      "velocity": 113,
      "chip": "ym2612"
    },
    {
      "channel": 5,
      "note": 66,
      "start": 20.2124,
      "duration": 0.0771,
      "velocity": 127,
      "chip": "ym2612"
    },
    {
      "channel": 5,
      "note": 66,
      "start": 20.2902,
      "duration": 0.0839,
      "velocity": 127,
      "chip": "ym2612"
    },
    {
      "channel": 0,
      "note": 74,
      "start": 20.3658,
      "duration": 0.1679,
      "velocity": 95,
      "chip": "ym2612"
    },
    {
      "channel": 3,
      "note": 33,
      "start": 20.3707,
      "duration": 0.1749,
      "velocity": 113,
      "chip": "ym2612"
    },
    {
      "channel": 5,
      "note": 66,
      "start": 20.3747,
      "duration": 0.0833,
      "velocity": 127,
      "chip": "ym2612"
    },
    {
      "channel": 5,
      "note": 66,
      "start": 20.4587,
      "duration": 0.0909,
      "velocity": 127,
      "chip": "ym2612"
    },
    {
      "channel": 0,
      "note": 62,
      "start": 20.5343,
      "duration": 0.1705,
      "velocity": 95,
      "chip": "ym2612"
    },
    {
      "channel": 4,
      "note": 45,
      "start": 20.544,
      "duration": 0.3334,
      "velocity": 102,
      "chip": "ym2612"
    },
    {
      "channel": 3,
      "note": 33,
      "start": 20.5463,
      "duration": 0.1553,
      "velocity": 113,
      "chip": "ym2612"
    },
    {
      "channel": 5,
      "note": 66,
      "start": 20.5502,
      "duration": 0.0741,
      "velocity": 127,
      "chip": "ym2612"
    },
    {
      "channel": 5,
      "note": 66,
      "start": 20.625,
      "duration": 0.087,
      "velocity": 127,
      "chip": "ym2612"
    },
    {
      "channel": 3,
      "note": 33,
      "start": 20.7022,
      "duration": 0.1776,
      "velocity": 113,
      "chip": "ym2612"
    },
    {
      "channel": 0,
      "note": 74,
      "start": 20.7054,
      "duration": 0.1676,
      "velocity": 95,
      "chip": "ym2612"
    },
    {
      "channel": 5,
      "note": 66,
      "start": 20.7126,
      "duration": 0.0803,
      "velocity": 127,
      "chip": "ym2612"
    },
    {
      "channel": 5,
      "note": 66,
      "start": 20.7935,
      "duration": 0.094,
      "velocity": 127,
      "chip": "ym2612"
    },
    {
      "channel": 0,
      "note": 77,
      "start": 20.8736,
      "duration": 0.1705,
      "velocity": 95,
      "chip": "ym2612"
    },
    {
      "channel": 4,
      "note": 45,
      "start": 20.8781,
      "duration": 0.3379,
      "velocity": 102,
      "chip": "ym2612"
    },
    {
      "channel": 3,
      "note": 33,
      "start": 20.8805,
      "duration": 0.1604,
      "velocity": 113,
      "chip": "ym2612"
    },
    {
      "channel": 5,
      "note": 66,
      "start": 20.8881,
      "duration": 0.0679,
      "velocity": 127,
      "chip": "ym2612"
    },
    {
      "channel": 5,
      "note": 66,
      "start": 20.9566,
      "duration": 0.0901,
      "velocity": 127,
      "chip": "ym2612"
    },
    {
      "channel": 3,
      "note": 33,
      "start": 21.0415,
      "duration": 0.1767,
      "velocity": 113,
      "chip": "ym2612"
    },
    {
      "channel": 0,
      "note": 65,
      "start": 21.0448,
      "duration": 0.1676,
      "velocity": 95,
      "chip": "ym2612"
    },
    {
      "channel": 5,
      "note": 66,
      "start": 21.0473,
      "duration": 0.0803,
      "velocity": 127,
      "chip": "ym2612"
    },
    {
      "channel": 5,
      "note": 66,
      "start": 21.1282,
      "duration": 0.0941,
      "velocity": 127,
      "chip": "ym2612"
    },
    {
      "channel": 0,
      "note": 77,
      "start": 21.2129,
      "duration": 0.1627,
      "velocity": 95,
      "chip": "ym2612"
    },
    {
      "channel": 4,
      "note": 45,
      "start": 21.2166,
      "duration": 0.339,
      "velocity": 102,
      "chip": "ym2612"
    },
    {
      "channel": 3,
      "note": 33,
      "start": 21.2189,
      "duration": 0.1617,
      "velocity": 113,
      "chip": "ym2612"
    },
    {
      "channel": 5,
      "note": 66,
      "start": 21.2229,
      "duration": 0.0709,
      "velocity": 127,
      "chip": "ym2612"
    },
    {
      "channel": 5,
      "note": 66,
      "start": 21.2944,
      "duration": 0.09,
      "velocity": 127,
      "chip": "ym2612"
    },
    {
      "channel": 0,
      "note": 65,
      "start": 21.3762,
      "duration": 0.1679,
      "velocity": 95,
      "chip": "ym2612"
    },
    {
      "channel": 3,
      "note": 33,
      "start": 21.3812,
      "duration": 0.1767,
      "velocity": 113,
      "chip": "ym2612"
    },
    {
      "channel": 5,
      "note": 66,
      "start": 21.3851,
      "duration": 0.0772,
      "velocity": 127,
      "chip": "ym2612"
    },
    {
      "channel": 5,
      "note": 66,
      "start": 21.463,
      "duration": 0.0989,
      "velocity": 127,
      "chip": "ym2612"
    },
    {
      "channel": 0,
      "note": 76,
      "start": 21.5447,
      "duration": 0.1674,
      "velocity": 95,
      "chip": "ym2612"
    },
    {
      "channel": 2,
      "note": 60,
      "start": 21.5516,
      "duration": 1.0055,
      "velocity": 94,
      "chip": "ym2612"
    },
    {
      "channel": 4,
      "note": 45,
      "start": 21.5563,
      "duration": 0.3328,
      "velocity": 102,
      "chip": "ym2612"
    },
    {
      "channel": 3,
      "note": 33,
      "start": 21.5585,
      "duration": 0.1587,
      "velocity": 113,
      "chip": "ym2612"
    },
    {
      "channel": 5,
      "note": 66,
      "start": 21.5625,
      "duration": 0.0679,
      "velocity": 127,
      "chip": "ym2612"
    },
    {
      "channel": 5,
      "note": 66,
      "start": 21.631,
      "duration": 0.09,
      "velocity": 127,
      "chip": "ym2612"
    },
    {
      "channel": 0,
      "note": 64,
      "start": 21.7128,
      "duration": 0.1655,
      "velocity": 95,
      "chip": "ym2612"
    },
    {
      "channel": 3,
      "note": 33,
      "start": 21.7178,
      "duration": 0.1662,
      "velocity": 113,
      "chip": "ym2612"
    },
    {
      "channel": 5,
      "note": 66,
      "start": 21.7217,
      "duration": 0.0772,
      "velocity": 127,
      "chip": "ym2612"
    },
    {
      "channel": 5,
      "note": 66,
      "start": 21.7995,
      "duration": 0.094,
      "velocity": 127,
      "chip": "ym2612"
    },
    {
      "channel": 0,
      "note": 76,
      "start": 21.8789,
      "duration": 0.1713,
      "velocity": 95,
      "chip": "ym2612"
    },
    {
      "channel": 3,
      "note": 33,
      "start": 21.8846,
      "duration": 0.1624,
      "velocity": 113,
      "chip": "ym2612"
    },
    {
      "channel": 4,
      "note": 45,
      "start": 21.8898,
      "duration": 0.3323,
      "velocity": 102,
      "chip": "ym2612"
    },
    {
      "channel": 5,
      "note": 66,
      "start": 21.8942,
      "duration": 0.0741,
      "velocity": 127,
      "chip": "ym2612"
    },
    {
      "channel": 5,
      "note": 66,
      "start": 21.9689,
      "duration": 0.0839,
      "velocity": 127,
      "chip": "ym2612"
    },
    {
      "channel": 3,
      "note": 33,
      "start": 22.0476,
      "duration": 0.1767,
      "velocity": 113,
      "chip": "ym2612"
    },
    {
      "channel": 0,
      "note": 74,
      "start": 22.0509,
      "duration": 0.1676,
      "velocity": 95,
      "chip": "ym2612"
    },
    {
      "channel": 5,
      "note": 66,
      "start": 22.0534,
      "duration": 0.0833,
      "velocity": 127,
      "chip": "ym2612"
    },
    {
      "channel": 5,
      "note": 66,
      "start": 22.1374,
      "duration": 0.091,
      "velocity": 127,
      "chip": "ym2612"
    },
    {
      "channel": 0,
      "note": 62,
      "start": 22.2191,
      "duration": 0.1626,
      "velocity": 95,
      "chip": "ym2612"
    },
    {
      "channel": 4,
      "note": 45,
      "start": 22.2227,
      "duration": 0.339,
      "velocity": 102,
      "chip": "ym2612"
    },
    {
      "channel": 3,
      "note": 33,
      "start": 22.225,
      "duration": 0.1617,
      "velocity": 113,
      "chip": "ym2612"
    },
    {
      "channel": 5,
      "note": 66,
      "start": 22.229,
      "duration": 0.0771,
      "velocity": 127,
      "chip": "ym2612"
    },
    {
      "channel": 5,
      "note": 66,
      "start": 22.3067,
      "duration": 0.0838,
      "velocity": 127,
      "chip": "ym2612"
    },
    {
      "channel": 0,
      "note": 74,
      "start": 22.3823,
      "duration": 0.1679,
      "velocity": 95,
      "chip": "ym2612"
    },
    {
      "channel": 3,
      "note": 33,
      "start": 22.3873,
      "duration": 0.1767,
      "velocity": 113,
      "chip": "ym2612"
    },
    {
      "channel": 5,
      "note": 66,
      "start": 22.3912,
      "duration": 0.0834,
      "velocity": 127,
      "chip": "ym2612"
    },
    {
      "channel": 5,
      "note": 66,
      "start": 22.4752,
      "duration": 0.0927,
      "velocity": 127,
      "chip": "ym2612"
    },
    {
      "channel": 0,
      "note": 76,
      "start": 22.5508,
      "duration": 0.1738,
      "velocity": 95,
      "chip": "ym2612"
    },
    {
      "channel": 2,
      "note": 62,
      "start": 22.5578,
      "duration": 1.6732,
      "velocity": 94,
      "chip": "ym2612"
    },
    {
      "channel": 4,
      "note": 45,
      "start": 22.5623,
      "duration": 0.3341,
      "velocity": 102,
      "chip": "ym2612"
    },
    {
      "channel": 3,
      "note": 33,
      "start": 22.5646,
      "duration": 0.1567,
      "velocity": 113,
      "chip": "ym2612"
    },
    {
      "channel": 5,
      "note": 66,
      "start": 22.5686,
      "duration": 0.0741,
      "velocity": 127,
      "chip": "ym2612"
    },
    {
      "channel": 5,
      "note": 66,
      "start": 22.6433,
      "duration": 0.0838,
      "velocity": 127,
      "chip": "ym2612"
    },
    {
      "channel": 3,
      "note": 33,
      "start": 22.722,
      "duration": 0.1767,
      "velocity": 113,
      "chip": "ym2612"
    },
    {
      "channel": 0,
      "note": 64,
      "start": 22.7252,
      "duration": 0.1676,
      "velocity": 95,
      "chip": "ym2612"
    },
    {
      "channel": 5,
      "note": 66,
      "start": 22.7278,
      "duration": 0.0802,
      "velocity": 127,
      "chip": "ym2612"
    },
    {
      "channel": 5,
      "note": 66,
      "start": 22.8086,
      "duration": 0.0941,
      "velocity": 127,
      "chip": "ym2612"
    },
    {
      "channel": 0,
      "note": 76,
      "start": 22.8934,
      "duration": 0.1626,
      "velocity": 95,
      "chip": "ym2612"
    },
    {
      "channel": 4,
      "note": 45,
      "start": 22.8971,
      "duration": 0.3373,
      "velocity": 102,
      "chip": "ym2612"
    },
    {
      "channel": 3,
      "note": 33,
      "start": 22.8993,
      "duration": 0.1617,
      "velocity": 113,
      "chip": "ym2612"
    },
    {
      "channel": 5,
      "note": 66,
      "start": 22.9034,
      "duration": 0.0709,
      "velocity": 127,
      "chip": "ym2612"
    },
    {
      "channel": 5,
      "note": 66,
      "start": 22.9749,
      "duration": 0.09,
      "velocity": 127,
      "chip": "ym2612"
    },
    {
      "channel": 0,
      "note": 74,
      "start": 23.0567,
      "duration": 0.1679,
      "velocity": 95,
      "chip": "ym2612"
    },
    {
      "channel": 3,
      "note": 33,
      "start": 23.0616,
      "duration": 0.1749,
      "velocity": 113,
      "chip": "ym2612"
    },
    {
      "channel": 5,
      "note": 66,
      "start": 23.0656,
      "duration": 0.0772,
      "velocity": 127,
      "chip": "ym2612"
    },
    {
      "channel": 5,
      "note": 66,
      "start": 23.1434,
      "duration": 0.0971,
      "velocity": 127,
      "chip": "ym2612"
    },
    {
      "channel": 0,
      "note": 62,
      "start": 23.2252,
      "duration": 0.1687,
      "velocity": 95,
      "chip": "ym2612"
    },
    {
      "channel": 4,
      "note": 45,
      "start": 23.235,
      "duration": 0.3372,
      "velocity": 102,
      "chip": "ym2612"
    },
    {
      "channel": 3,
      "note": 33,
      "start": 23.2372,
      "duration": 0.1617,
      "velocity": 113,
      "chip": "ym2612"
    },
    {
      "channel": 5,
      "note": 66,
      "start": 23.2412,
      "duration": 0.071,
      "velocity": 127,
      "chip": "ym2612"
    },
    {
      "channel": 5,
      "note": 66,
      "start": 23.3128,
      "duration": 0.09,
      "velocity": 127,
      "chip": "ym2612"
    },
    {
      "channel": 0,
      "note": 74,
      "start": 23.3945,
      "duration": 0.1678,
      "velocity": 95,
      "chip": "ym2612"
    },
    {
      "channel": 3,
      "note": 33,
      "start": 23.3995,
      "duration": 0.1749,
      "velocity": 113,
      "chip": "ym2612"
    },
    {
      "channel": 5,
      "note": 66,
      "start": 23.4035,
      "duration": 0.0772,
      "velocity": 127,
      "chip": "ym2612"
    },
    {
      "channel": 5,
      "note": 66,
      "start": 23.4813,
      "duration": 0.0971,
      "velocity": 127,
      "chip": "ym2612"
    },
    {
      "channel": 0,
      "note": 72,
      "start": 23.563,
      "duration": 0.1625,
      "velocity": 95,
      "chip": "ym2612"
    },
    {
      "channel": 4,
      "note": 45,
      "start": 23.5728,
      "duration": 0.331,
      "velocity": 102,
      "chip": "ym2612"
    },
    {
      "channel": 3,
      "note": 33,
      "start": 23.5751,
      "duration": 0.1554,
      "velocity": 113,
      "chip": "ym2612"
    },
    {
      "channel": 5,
      "note": 66,
      "start": 23.579,
      "duration": 0.0709,
      "velocity": 127,
      "chip": "ym2612"
    },
    {
      "channel": 5,
      "note": 66,
      "start": 23.6506,
      "duration": 0.0838,
      "velocity": 127,
      "chip": "ym2612"
    },
    {
      "channel": 0,
      "note": 60,
      "start": 23.7261,
      "duration": 0.1678,
      "velocity": 95,
      "chip": "ym2612"
    },
    {
      "channel": 3,
      "note": 33,
      "start": 23.7311,
      "duration": 0.1749,
      "velocity": 113,
      "chip": "ym2612"
    },
    {
      "channel": 5,
      "note": 66,
      "start": 23.735,
      "duration": 0.0833,
      "velocity": 127,
      "chip": "ym2612"
    },
    {
      "channel": 5,
      "note": 66,
      "start": 23.819,
      "duration": 0.091,
      "velocity": 127,
      "chip": "ym2612"
    },
    {
      "channel": 0,
      "note": 67,
      "start": 23.8946,
      "duration": 0.1688,
      "velocity": 95,
      "chip": "ym2612"
    },
    {
      "channel": 4,
      "note": 45,
      "start": 23.9044,
      "duration": 0.3422,
      "velocity": 102,
      "chip": "ym2612"
    },
    {
      "channel": 3,
      "note": 33,
      "start": 23.9066,
      "duration": 0.1618,
      "velocity": 113,
      "chip": "ym2612"
    },
    {
      "channel": 5,
      "note": 66,
      "start": 23.9106,
      "duration": 0.0772,
      "velocity": 127,
      "chip": "ym2612"
    },
    {
      "channel": 5,
      "note": 66,
      "start": 23.9884,
      "duration": 0.0839,
      "velocity": 127,
      "chip": "ym2612"
    },
    {
      "channel": 0,
      "note": 55,
      "start": 24.064,
      "duration": 0.1789,
      "velocity": 95,
      "chip": "ym2612"
    },
    {
      "channel": 3,
      "note": 33,
      "start": 24.0689,
      "duration": 0.1799,
      "velocity": 113,
      "chip": "ym2612"
    },
    {
      "channel": 5,
      "note": 66,
      "start": 24.0729,
      "duration": 0.0833,
      "velocity": 127,
      "chip": "ym2612"
    },
    {
      "channel": 5,
      "note": 66,
      "start": 24.1569,
      "duration": 0.0959,
      "velocity": 127,
      "chip": "ym2612"
    },
    {
      "channel": 2,
      "note": 64,
      "start": 24.2315,
      "duration": 0.6746,
      "velocity": 94,
      "chip": "ym2612"
    },
    {
      "channel": 1,
      "note": 45,
      "start": 24.2413,
      "duration": 10.7501,
      "velocity": 94,
      "chip": "ym2612"
    },
    {
      "channel": 0,
      "note": 69,
      "start": 24.2435,
      "duration": 0.1564,
      "velocity": 95,
      "chip": "ym2612"
    },
    {
      "channel": 4,
      "note": 45,
      "start": 24.2472,
      "duration": 0.3309,
      "velocity": 102,
      "chip": "ym2612"
    },
    {
      "channel": 3,
      "note": 33,
      "start": 24.2495,
      "duration": 0.1554,
      "velocity": 113,
      "chip": "ym2612"
    },
    {
      "channel": 5,
      "note": 66,
      "start": 24.2534,
      "duration": 0.0709,
      "velocity": 127,
      "chip": "ym2612"
    },
    {
      "channel": 5,
      "note": 66,
      "start": 24.325,
      "duration": 0.0839,
      "velocity": 127,
      "chip": "ym2612"
    },
    {
      "channel": 0,
      "note": 57,
      "start": 24.4005,
      "duration": 0.1679,
      "velocity": 95,
      "chip": "ym2612"
    },
    {
      "channel": 3,
      "note": 33,
      "start": 24.4055,
      "duration": 0.1749,
      "velocity": 113,
      "chip": "ym2612"
    },
    {
      "channel": 5,
      "note": 66,
      "start": 24.4095,
      "duration": 0.0833,
      "velocity": 127,
      "chip": "ym2612"
    },
    {
      "channel": 5,
      "note": 66,
      "start": 24.4934,
      "duration": 0.0909,
      "velocity": 127,
      "chip": "ym2612"
    },
    {
      "channel": 0,
      "note": 69,
      "start": 24.5689,
      "duration": 0.1706,
      "velocity": 95,
      "chip": "ym2612"
    },
    {
      "channel": 4,
      "note": 45,
      "start": 24.5787,
      "duration": 0.3409,
      "velocity": 102,
      "chip": "ym2612"
    },
    {
      "channel": 3,
      "note": 33,
      "start": 24.581,
      "duration": 0.1553,
      "velocity": 113,
      "chip": "ym2612"
    },
    {
      "channel": 5,
      "note": 66,
      "start": 24.585,
      "duration": 0.0709,
      "velocity": 127,
      "chip": "ym2612"
    },
    {
      "channel": 5,
      "note": 66,
      "start": 24.6565,
      "duration": 0.0902,
      "velocity": 127,
      "chip": "ym2612"
    },
    {
      "channel": 3,
      "note": 33,
      "start": 24.7369,
      "duration": 0.1777,
      "velocity": 113,
      "chip": "ym2612"
    },
    {
      "channel": 0,
      "note": 71,
      "start": 24.7401,
      "duration": 0.1686,
      "velocity": 95,
      "chip": "ym2612"
    },
    {
      "channel": 5,
      "note": 66,
      "start": 24.7473,
      "duration": 0.0772,
      "velocity": 127,
      "chip": "ym2612"
    },
    {
      "channel": 5,
      "note": 66,
      "start": 24.8251,
      "duration": 0.099,
      "velocity": 127,
      "chip": "ym2612"
    },
    {
      "channel": 2,
      "note": 65,
      "start": 24.9067,
      "duration": 0.6746,
      "velocity": 94,
      "chip": "ym2612"
    },
    {
      "channel": 0,
      "note": 59,
      "start": 24.9094,
      "duration": 0.1649,
      "velocity": 95,
      "chip": "ym2612"
    },
    {
      "channel": 3,
      "note": 33,
      "start": 24.9152,
      "duration": 0.1641,
      "velocity": 113,
      "chip": "ym2612"
    },
    {
      "channel": 4,
      "note": 45,
      "start": 24.9203,
      "duration": 0.3323,
      "velocity": 102,
      "chip": "ym2612"
    },
    {
      "channel": 5,
      "note": 66,
      "start": 24.9247,
      "duration": 0.0679,
      "velocity": 127,
      "chip": "ym2612"
    },
    {
      "channel": 5,
      "note": 66,
      "start": 24.9932,
      "duration": 0.09,
      "velocity": 127,
      "chip": "ym2612"
    },
    {
      "channel": 0,
      "note": 71,
      "start": 25.0749,
      "duration": 0.1678,
      "velocity": 95,
      "chip": "ym2612"
    },
    {
      "channel": 3,
      "note": 33,
      "start": 25.08,
      "duration": 0.1749,
      "velocity": 113,
      "chip": "ym2612"
    },
    {
      "channel": 5,
      "note": 66,
      "start": 25.0839,
      "duration": 0.0772,
      "velocity": 127,
      "chip": "ym2612"
    },
    {
      "channel": 5,
      "note": 66,
      "start": 25.1617,
      "duration": 0.0971,
      "velocity": 127,
      "chip": "ym2612"
    },
    {
      "channel": 0,
      "note": 72,
      "start": 25.2434,
      "duration": 0.1705,
      "velocity": 95,
      "chip": "ym2612"
    },
    {
      "channel": 4,
      "note": 45,
      "start": 25.2532,
      "duration": 0.3327,
      "velocity": 102,
      "chip": "ym2612"
    },
    {
      "channel": 3,
      "note": 33,
      "start": 25.2555,
      "duration": 0.1552,
      "velocity": 113,
      "chip": "ym2612"
    },
    {
      "channel": 5,
      "note": 66,
      "start": 25.2594,
      "duration": 0.0709,
      "velocity": 127,
      "chip": "ym2612"
    },
    {
      "channel": 5,
      "note": 66,
      "start": 25.331,
      "duration": 0.0901,
      "velocity": 127,
      "chip": "ym2612"
    },
    {
      "channel": 3,
      "note": 33,
      "start": 25.4113,
      "duration": 0.1768,
      "velocity": 113,
      "chip": "ym2612"
    },
    {
      "channel": 0,
      "note": 60,
      "start": 25.4145,
      "duration": 0.1599,
      "velocity": 95,
      "chip": "ym2612"
    },
    {
      "channel": 5,
      "note": 66,
      "start": 25.4217,
      "duration": 0.0771,
      "velocity": 127,
      "chip": "ym2612"
    },
    {
      "channel": 5,
      "note": 66,
      "start": 25.4994,
      "duration": 0.0927,
      "velocity": 127,
      "chip": "ym2612"
    },
    {
      "channel": 0,
      "note": 72,
      "start": 25.575,
      "duration": 0.1739,
      "velocity": 95,
      "chip": "ym2612"
    },
    {
      "channel": 2,
      "note": 64,
      "start": 25.5819,
      "duration": 0.6737,
      "velocity": 94,
      "chip": "ym2612"
    },
    {
      "channel": 4,
      "note": 45,
      "start": 25.5866,
      "duration": 0.3341,
      "velocity": 102,
      "chip": "ym2612"
    },
    {
      "channel": 3,
      "note": 33,
      "start": 25.5888,
      "duration": 0.1568,
      "velocity": 113,
      "chip": "ym2612"
    },
    {
      "channel": 5,
      "note": 66,
      "start": 25.5928,
      "duration": 0.0741,
      "velocity": 127,
      "chip": "ym2612"
    },
    {
      "channel": 5,
      "note": 66,
      "start": 25.6676,
      "duration": 0.0838,
      "velocity": 127,
      "chip": "ym2612"
    },
    {
      "channel": 3,
      "note": 33,
      "start": 25.7462,
      "duration": 0.1767,
      "velocity": 113,
      "chip": "ym2612"
    },
    {
      "channel": 0,
      "note": 74,
      "start": 25.7494,
      "duration": 0.1676,
      "velocity": 95,
      "chip": "ym2612"
    },
    {
      "channel": 5,
      "note": 66,
      "start": 25.752,
      "duration": 0.0834,
      "velocity": 127,
      "chip": "ym2612"
    },
    {
      "channel": 5,
      "note": 66,
      "start": 25.836,
      "duration": 0.0909,
      "velocity": 127,
      "chip": "ym2612"
    },
    {
      "channel": 0,
      "note": 62,
      "start": 25.9176,
      "duration": 0.1626,
      "velocity": 95,
      "chip": "ym2612"
    },
    {
      "channel": 4,
      "note": 45,
      "start": 25.9213,
      "duration": 0.3389,
      "velocity": 102,
      "chip": "ym2612"
    },
    {
      "channel": 3,
      "note": 33,
      "start": 25.9236,
      "duration": 0.1617,
      "velocity": 113,
      "chip": "ym2612"
    },
    {
      "channel": 5,
      "note": 66,
      "start": 25.9275,
      "duration": 0.0771,
      "velocity": 127,
      "chip": "ym2612"
    },
    {
      "channel": 5,
      "note": 66,
      "start": 26.0053,
      "duration": 0.0839,
      "velocity": 127,
      "chip": "ym2612"
    },
    {
      "channel": 0,
      "note": 74,
      "start": 26.0808,
      "duration": 0.1678,
      "velocity": 95,
      "chip": "ym2612"
    },
    {
      "channel": 3,
      "note": 33,
      "start": 26.0858,
      "duration": 0.1766,
      "velocity": 113,
      "chip": "ym2612"
    },
    {
      "channel": 5,
      "note": 66,
      "start": 26.0898,
      "duration": 0.0833,
      "velocity": 127,
      "chip": "ym2612"
    },
    {
      "channel": 5,
      "note": 66,
      "start": 26.1737,
      "duration": 0.0927,
      "velocity": 127,
      "chip": "ym2612"
    },
    {
      "channel": 0,
      "note": 77,
      "start": 26.2493,
      "duration": 0.1674,
      "velocity": 95,
      "chip": "ym2612"
    },
    {
      "channel": 2,
      "note": 62,
      "start": 26.2562,
      "duration": 0.6738,
      "velocity": 94,
      "chip": "ym2612"
    },
    {
      "channel": 4,
      "note": 45,
      "start": 26.2609,
      "duration": 0.3341,
      "velocity": 102,
      "chip": "ym2612"
    },
    {
      "channel": 3,
      "note": 33,
      "start": 26.2631,
      "duration": 0.1586,
      "velocity": 113,
      "chip": "ym2612"
    },
    {
      "channel": 5,
      "note": 66,
      "start": 26.2671,
      "duration": 0.0741,
      "velocity": 127,
      "chip": "ym2612"
    },
    {
      "channel": 5,
      "note": 66,
      "start": 26.3418,
      "duration": 0.0838,
      "velocity": 127,
      "chip": "ym2612"
    },
    {
      "channel": 0,
      "note": 65,
      "start": 26.4173,
      "duration": 0.174,
      "velocity": 95,
      "chip": "ym2612"
    },
    {
      "channel": 3,
      "note": 33,
      "start": 26.4223,
      "duration": 0.1749,
      "velocity": 113,
      "chip": "ym2612"
    },
    {
      "channel": 5,
      "note": 66,
      "start": 26.4263,
      "duration": 0.0772,
      "velocity": 127,
      "chip": "ym2612"
    },
    {
      "channel": 5,
      "note": 66,
      "start": 26.5041,
      "duration": 0.0971,
      "velocity": 127,
      "chip": "ym2612"
    },
    {
      "channel": 0,
      "note": 77,
      "start": 26.5919,
      "duration": 0.1626,
      "velocity": 95,
      "chip": "ym2612"
    },
    {
      "channel": 4,
      "note": 45,
      "start": 26.5956,
      "duration": 0.339,
      "velocity": 102,
      "chip": "ym2612"
    },
    {
      "channel": 3,
      "note": 33,
      "start": 26.5978,
      "duration": 0.1617,
      "velocity": 113,
      "chip": "ym2612"
    },
    {
      "channel": 5,
      "note": 66,
      "start": 26.6018,
      "duration": 0.0709,
      "velocity": 127,
      "chip": "ym2612"
    },
    {
      "channel": 5,
      "note": 66,
      "start": 26.6734,
      "duration": 0.0901,
      "velocity": 127,
      "chip": "ym2612"
    },
    {
      "channel": 0,
      "note": 65,
      "start": 26.7551,
      "duration": 0.1679,
      "velocity": 95,
      "chip": "ym2612"
    },
    {
      "channel": 3,
      "note": 33,
      "start": 26.7601,
      "duration": 0.1768,
      "velocity": 113,
      "chip": "ym2612"
    },
    {
      "channel": 5,
      "note": 66,
      "start": 26.7641,
      "duration": 0.0772,
      "velocity": 127,
      "chip": "ym2612"
    },
    {
      "channel": 5,
      "note": 66,
      "start": 26.8419,
      "duration": 0.0989,
      "velocity": 127,
      "chip": "ym2612"
    },
    {
      "channel": 0,
      "note": 76,
      "start": 26.9237,
      "duration": 0.1675,
      "velocity": 95,
      "chip": "ym2612"
    },
    {
      "channel": 2,
      "note": 64,
      "start": 26.9307,
      "duration": 0.6658,
      "velocity": 94,
      "chip": "ym2612"
    },
    {
      "channel": 4,
      "note": 45,
      "start": 26.9352,
      "duration": 0.3342,
      "velocity": 102,
      "chip": "ym2612"
    },
    {
      "channel": 3,
      "note": 33,
      "start": 26.9376,
      "duration": 0.1586,
      "velocity": 113,
      "chip": "ym2612"
    },
    {
      "channel": 5,
      "note": 66,
      "start": 26.9415,
      "duration": 0.0679,
      "velocity": 127,
      "chip": "ym2612"
    },
    {
      "channel": 5,
      "note": 66,
      "start": 27.01,
      "duration": 0.09,
      "velocity": 127,
      "chip": "ym2612"
    },
    {
      "channel": 0,
      "note": 64,
      "start": 27.0918,
      "duration": 0.1679,
      "velocity": 95,
      "chip": "ym2612"
    },
    {
      "channel": 3,
      "note": 33,
      "start": 27.0967,
      "duration": 0.1749,
      "velocity": 113,
      "chip": "ym2612"
    },
    {
      "channel": 5,
      "note": 66,
      "start": 27.1007,
      "duration": 0.0772,
      "velocity": 127,
      "chip": "ym2612"
    },
    {
      "channel": 5,
      "note": 66,
      "start": 27.1785,
      "duration": 0.0971,
      "velocity": 127,
      "chip": "ym2612"
    },
    {
      "channel": 0,
      "note": 76,
      "start": 27.2603,
      "duration": 0.169,
      "velocity": 95,
      "chip": "ym2612"
    },
    {
      "channel": 4,
      "note": 45,
      "start": 27.2701,
      "duration": 0.3328,
      "velocity": 102,
      "chip": "ym2612"
    },
    {
      "channel": 3,
      "note": 33,
      "start": 27.2723,
      "duration": 0.1537,
      "velocity": 113,
      "chip": "ym2612"
    },
    {
      "channel": 5,
      "note": 66,
      "start": 27.2763,
      "duration": 0.071,
      "velocity": 127,
      "chip": "ym2612"
    },
    {
      "channel": 5,
      "note": 66,
      "start": 27.348,
      "duration": 0.0838,
      "velocity": 127,
      "chip": "ym2612"
    },
    {
      "channel": 3,
      "note": 33,
      "start": 27.4266,
      "duration": 0.1785,
      "velocity": 113,
      "chip": "ym2612"
    },
    {
      "channel": 0,
      "note": 74,
      "start": 27.4298,
      "duration": 0.1693,
      "velocity": 95,
      "chip": "ym2612"
    },
    {
      "channel": 5,
      "note": 66,
      "start": 27.4324,
      "duration": 0.0834,
      "velocity": 127,
      "chip": "ym2612"
    },
    {
      "channel": 5,
      "note": 66,
      "start": 27.5164,
      "duration": 0.0927,
      "velocity": 127,
      "chip": "ym2612"
    },
    {
      "channel": 2,
      "note": 65,
      "start": 27.5971,
      "duration": 1.0132,
      "velocity": 94,
      "chip": "ym2612"
    },
    {
      "channel": 0,
      "note": 62,
      "start": 27.5998,
      "duration": 0.1644,
      "velocity": 95,
      "chip": "ym2612"
    },
    {
      "channel": 4,
      "note": 45,
      "start": 27.6035,
      "duration": 0.3334,
      "velocity": 102,
      "chip": "ym2612"
    },
    {
      "channel": 3,
      "note": 33,
      "start": 27.6058,
      "duration": 0.1553,
      "velocity": 113,
      "chip": "ym2612"
    },
    {
      "channel": 5,
      "note": 66,
      "start": 27.6097,
      "duration": 0.0741,
      "velocity": 127,
      "chip": "ym2612"
    },
    {
      "channel": 5,
      "note": 66,
      "start": 27.6845,
      "duration": 0.087,
      "velocity": 127,
      "chip": "ym2612"
    },
    {
      "channel": 3,
      "note": 33,
      "start": 27.7616,
      "duration": 0.1776,
      "velocity": 113,
      "chip": "ym2612"
    },
    {
      "channel": 0,
      "note": 74,
      "start": 27.7649,
      "duration": 0.1676,
      "velocity": 95,
      "chip": "ym2612"
    },
    {
      "channel": 5,
      "note": 66,
      "start": 27.7721,
      "duration": 0.0803,
      "velocity": 127,
      "chip": "ym2612"
    },
    {
      "channel": 5,
      "note": 66,
      "start": 27.853,
      "duration": 0.094,
      "velocity": 127,
      "chip": "ym2612"
    },
    {
      "channel": 0,
      "note": 76,
      "start": 27.9331,
      "duration": 0.1705,
      "velocity": 95,
      "chip": "ym2612"
    },
    {
      "channel": 4,
      "note": 45,
      "start": 27.9376,
      "duration": 0.3379,
      "velocity": 102,
      "chip": "ym2612"
    },
    {
      "channel": 3,
      "note": 33,
      "start": 27.9399,
      "duration": 0.1604,
      "velocity": 113,
      "chip": "ym2612"
    },
    {
      "channel": 5,
      "note": 66,
      "start": 27.9476,
      "duration": 0.074,
      "velocity": 127,
      "chip": "ym2612"
    },
    {
      "channel": 5,
      "note": 66,
      "start": 28.0222,
      "duration": 0.0839,
      "velocity": 127,
      "chip": "ym2612"
    },
    {
      "channel": 3,
      "note": 33,
      "start": 28.101,
      "duration": 0.1767,
      "velocity": 113,
      "chip": "ym2612"
    },
    {
      "channel": 0,
      "note": 64,
      "start": 28.1042,
      "duration": 0.1676,
      "velocity": 95,
      "chip": "ym2612"
    },
    {
      "channel": 5,
      "note": 66,
      "start": 28.1067,
      "duration": 0.0833,
      "velocity": 127,
      "chip": "ym2612"
    },
    {
      "channel": 5,
      "note": 66,
      "start": 28.1907,
      "duration": 0.091,
      "velocity": 127,
      "chip": "ym2612"
    },
    {
      "channel": 0,
      "note": 76,
      "start": 28.2723,
      "duration": 0.1627,
      "velocity": 95,
      "chip": "ym2612"
    },
    {
      "channel": 4,
      "note": 45,
      "start": 28.276,
      "duration": 0.339,
      "velocity": 102,
      "chip": "ym2612"
    },
    {
      "channel": 3,
      "note": 33,
      "start": 28.2783,
      "duration": 0.1616,
      "velocity": 113,
      "chip": "ym2612"
    },
    {
      "channel": 5,
      "note": 66,
      "start": 28.2823,
      "duration": 0.0709,
      "velocity": 127,
      "chip": "ym2612"
    },
    {
      "channel": 5,
      "note": 66,
      "start": 28.3539,
      "duration": 0.0901,
      "velocity": 127,
      "chip": "ym2612"
    },
    {
      "channel": 0,
      "note": 74,
      "start": 28.4356,
      "duration": 0.1679,
      "velocity": 95,
      "chip": "ym2612"
    },
    {
      "channel": 3,
      "note": 33,
      "start": 28.4406,
      "duration": 0.1767,
      "velocity": 113,
      "chip": "ym2612"
    },
    {
      "channel": 5,
      "note": 66,
      "start": 28.4446,
      "duration": 0.0771,
      "velocity": 127,
      "chip": "ym2612"
    },
    {
      "channel": 5,
      "note": 66,
      "start": 28.5223,
      "duration": 0.0989,
      "velocity": 127,
      "chip": "ym2612"
    },
    {
      "channel": 0,
      "note": 62,
      "start": 28.6041,
      "duration": 0.1674,
      "velocity": 95,
      "chip": "ym2612"
    },
    {
      "channel": 2,
      "note": 64,
      "start": 28.611,
      "duration": 0.3359,
      "velocity": 94,
      "chip": "ym2612"
    },
    {
      "channel": 4,
      "note": 45,
      "start": 28.6156,
      "duration": 0.3359,
      "velocity": 102,
      "chip": "ym2612"
    },
    {
      "channel": 3,
      "note": 33,
      "start": 28.6179,
      "duration": 0.1586,
      "velocity": 113,
      "chip": "ym2612"
    },
    {
      "channel": 5,
      "note": 66,
      "start": 28.6219,
      "duration": 0.0679,
      "velocity": 127,
      "chip": "ym2612"
    },
    {
      "channel": 5,
      "note": 66,
      "start": 28.6904,
      "duration": 0.09,
      "velocity": 127,
      "chip": "ym2612"
    },
    {
      "channel": 0,
      "note": 74,
      "start": 28.7721,
      "duration": 0.1679,
      "velocity": 95,
      "chip": "ym2612"
    },
    {
      "channel": 3,
      "note": 33,
      "start": 28.7771,
      "duration": 0.1767,
      "velocity": 113,
      "chip": "ym2612"
    },
    {
      "channel": 5,
      "note": 66,
      "start": 28.781,
      "duration": 0.0772,
      "velocity": 127,
      "chip": "ym2612"
    },
    {
      "channel": 5,
      "note": 66,
      "start": 28.8589,
      "duration": 0.0989,
      "velocity": 127,
      "chip": "ym2612"
    },
    {
      "channel": 0,
      "note": 72,
      "start": 28.9406,
      "duration": 0.1739,
      "velocity": 95,
      "chip": "ym2612"
    },
    {
      "channel": 2,
      "note": 62,
      "start": 28.9476,
      "duration": 0.3249,
      "velocity": 94,
      "chip": "ym2612"
    },
    {
      "channel": 4,
      "note": 45,
      "start": 28.9522,
      "duration": 0.3327,
      "velocity": 102,
      "chip": "ym2612"
    },
    {
      "channel": 3,
      "note": 33,
      "start": 28.9544,
      "duration": 0.1568,
      "velocity": 113,
      "chip": "ym2612"
    },
    {
      "channel": 5,
      "note": 66,
      "start": 28.9585,
      "duration": 0.0709,
      "velocity": 127,
      "chip": "ym2612"
    },
    {
      "channel": 5,
      "note": 66,
      "start": 29.03,
      "duration": 0.087,
      "velocity": 127,
      "chip": "ym2612"
    },
    {
      "channel": 3,
      "note": 33,
      "start": 29.1119,
      "duration": 0.1754,
      "velocity": 113,
      "chip": "ym2612"
    },
    {
      "channel": 0,
      "note": 60,
      "start": 29.1151,
      "duration": 0.1601,
      "velocity": 95,
      "chip": "ym2612"
    },
    {
      "channel": 5,
      "note": 66,
      "start": 29.1176,
      "duration": 0.0803,
      "velocity": 127,
      "chip": "ym2612"
    },
    {
      "channel": 5,
      "note": 66,
      "start": 29.1985,
      "duration": 0.0927,
      "velocity": 127,
      "chip": "ym2612"
    },
    {
      "channel": 2,
      "note": 57,
      "start": 29.2732,
      "duration": 0.3427,
      "velocity": 94,
      "chip": "ym2612"
    },
    {
      "channel": 0,
      "note": 67,
      "start": 29.2759,
      "duration": 0.1656,
      "velocity": 95,
      "chip": "ym2612"
    },
    {
      "channel": 4,
      "note": 45,
      "start": 29.2856,
      "duration": 0.3366,
      "velocity": 102,
      "chip": "ym2612"
    },
    {
      "channel": 3,
      "note": 33,
      "start": 29.288,
      "duration": 0.1585,
      "velocity": 113,
      "chip": "ym2612"
    },
    {
      "channel": 5,
      "note": 66,
      "start": 29.2918,
      "duration": 0.0741,
      "velocity": 127,
      "chip": "ym2612"
    },
    {
      "channel": 5,
      "note": 66,
      "start": 29.3666,
      "duration": 0.0839,
      "velocity": 127,
      "chip": "ym2612"
    },
    {
      "channel": 0,
      "note": 55,
      "start": 29.4421,
      "duration": 0.1765,
      "velocity": 95,
      "chip": "ym2612"
    },
    {
      "channel": 3,
      "note": 33,
      "start": 29.4471,
      "duration": 0.1774,
      "velocity": 113,
      "chip": "ym2612"
    },
    {
      "channel": 5,
      "note": 66,
      "start": 29.4511,
      "duration": 0.0833,
      "velocity": 127,
      "chip": "ym2612"
    },
    {
      "channel": 5,
      "note": 66,
      "start": 29.535,
      "duration": 0.0935,
      "velocity": 127,
      "chip": "ym2612"
    },
    {
      "channel": 2,
      "note": 67,
      "start": 29.6165,
      "duration": 0.6683,
      "velocity": 94,
      "chip": "ym2612"
    },
    {
      "channel": 0,
      "note": 69,
      "start": 29.6192,
      "duration": 0.1595,
      "velocity": 95,
      "chip": "ym2612"
    },
    {
      "channel": 4,
      "note": 45,
      "start": 29.6229,
      "duration": 0.334,
      "velocity": 102,
      "chip": "ym2612"
    },
    {
      "channel": 3,
      "note": 33,
      "start": 29.6252,
      "duration": 0.1585,
      "velocity": 113,
      "chip": "ym2612"
    },
    {
      "channel": 5,
      "note": 66,
      "start": 29.6292,
      "duration": 0.074,
      "velocity": 127,
      "chip": "ym2612"
    },
    {
      "channel": 5,
      "note": 66,
      "start": 29.7038,
      "duration": 0.0838,
      "velocity": 127,
      "chip": "ym2612"
    },
    {
      "channel": 0,
      "note": 57,
      "start": 29.7793,
      "duration": 0.1679,
      "velocity": 95,
      "chip": "ym2612"
    },
    {
      "channel": 3,
      "note": 33,
      "start": 29.7843,
      "duration": 0.1749,
      "velocity": 113,
      "chip": "ym2612"
    },
    {
      "channel": 5,
      "note": 66,
      "start": 29.7883,
      "duration": 0.0833,
      "velocity": 127,
      "chip": "ym2612"
    },
    {
      "channel": 5,
      "note": 66,
      "start": 29.8722,
      "duration": 0.0909,
      "velocity": 127,
      "chip": "ym2612"
    },
    {
      "channel": 0,
      "note": 69,
      "start": 29.9478,
      "duration": 0.1705,
      "velocity": 95,
      "chip": "ym2612"
    },
    {
      "channel": 4,
      "note": 45,
      "start": 29.9576,
      "duration": 0.3408,
      "velocity": 102,
      "chip": "ym2612"
    },
    {
      "channel": 3,
      "note": 33,
      "start": 29.9598,
      "duration": 0.1552,
      "velocity": 113,
      "chip": "ym2612"
    },
    {
      "channel": 5,
      "note": 66,
      "start": 29.9638,
      "duration": 0.0741,
      "velocity": 127,
      "chip": "ym2612"
    },
    {
      "channel": 5,
      "note": 66,
      "start": 30.0385,
      "duration": 0.0869,
      "velocity": 127,
      "chip": "ym2612"
    },
    {
      "channel": 3,
      "note": 33,
      "start": 30.1157,
      "duration": 0.1776,
      "velocity": 113,
      "chip": "ym2612"
    },
    {
      "channel": 0,
      "note": 71,
      "start": 30.1189,
      "duration": 0.1686,
      "velocity": 95,
      "chip": "ym2612"
    },
    {
      "channel": 5,
      "note": 66,
      "start": 30.1261,
      "duration": 0.0772,
      "velocity": 127,
      "chip": "ym2612"
    },
    {
      "channel": 5,
      "note": 66,
      "start": 30.2039,
      "duration": 0.099,
      "velocity": 127,
      "chip": "ym2612"
    },
    {
      "channel": 2,
      "note": 65,
      "start": 30.2854,
      "duration": 0.6737,
      "velocity": 94,
      "chip": "ym2612"
    },
    {
      "channel": 0,
      "note": 59,
      "start": 30.2882,
      "duration": 0.1649,
      "velocity": 95,
      "chip": "ym2612"
    },
    {
      "channel": 3,
      "note": 33,
      "start": 30.2939,
      "duration": 0.1641,
      "velocity": 113,
      "chip": "ym2612"
    },
    {
      "channel": 4,
      "note": 45,
      "start": 30.299,
      "duration": 0.3323,
      "velocity": 102,
      "chip": "ym2612"
    },
    {
      "channel": 5,
      "note": 66,
      "start": 30.3035,
      "duration": 0.0679,
      "velocity": 127,
      "chip": "ym2612"
    },
    {
      "channel": 5,
      "note": 66,
      "start": 30.372,
      "duration": 0.09,
      "velocity": 127,
      "chip": "ym2612"
    },
    {
      "channel": 0,
      "note": 71,
      "start": 30.4537,
      "duration": 0.1678,
      "velocity": 95,
      "chip": "ym2612"
    },
    {
      "channel": 3,
      "note": 33,
      "start": 30.4587,
      "duration": 0.1749,
      "velocity": 113,
      "chip": "ym2612"
    },
    {
      "channel": 5,
      "note": 66,
      "start": 30.4627,
      "duration": 0.0772,
      "velocity": 127,
      "chip": "ym2612"
    },
    {
      "channel": 5,
      "note": 66,
      "start": 30.5405,
      "duration": 0.0971,
      "velocity": 127,
      "chip": "ym2612"
    },
    {
      "channel": 0,
      "note": 72,
      "start": 30.6221,
      "duration": 0.1705,
      "velocity": 95,
      "chip": "ym2612"
    },
    {
      "channel": 4,
      "note": 45,
      "start": 30.6319,
      "duration": 0.3408,
      "velocity": 102,
      "chip": "ym2612"
    },
    {
      "channel": 3,
      "note": 33,
      "start": 30.6342,
      "duration": 0.1552,
      "velocity": 113,
      "chip": "ym2612"
    },
    {
      "channel": 5,
      "note": 66,
      "start": 30.6382,
      "duration": 0.0709,
      "velocity": 127,
      "chip": "ym2612"
    },
    {
      "channel": 5,
      "note": 66,
      "start": 30.7097,
      "duration": 0.0901,
      "velocity": 127,
      "chip": "ym2612"
    },
    {
      "channel": 3,
      "note": 33,
      "start": 30.7901,
      "duration": 0.1776,
      "velocity": 113,
      "chip": "ym2612"
    },
    {
      "channel": 0,
      "note": 60,
      "start": 30.7932,
      "duration": 0.1686,
      "velocity": 95,
      "chip": "ym2612"
    },
    {
      "channel": 5,
      "note": 66,
      "start": 30.8004,
      "duration": 0.0771,
      "velocity": 127,
      "chip": "ym2612"
    },
    {
      "channel": 5,
      "note": 66,
      "start": 30.8782,
      "duration": 0.099,
      "velocity": 127,
      "chip": "ym2612"
    },
    {
      "channel": 2,
      "note": 64,
      "start": 30.9597,
      "duration": 0.6746,
      "velocity": 94,
      "chip": "ym2612"
    },
    {
      "channel": 0,
      "note": 72,
      "start": 30.9624,
      "duration": 0.1651,
      "velocity": 95,
      "chip": "ym2612"
    },
    {
      "channel": 3,
      "note": 33,
      "start": 30.9683,
      "duration": 0.156,
      "velocity": 113,
      "chip": "ym2612"
    },
    {
      "channel": 4,
      "note": 45,
      "start": 30.9733,
      "duration": 0.3261,
      "velocity": 102,
      "chip": "ym2612"
    },
    {
      "channel": 5,
      "note": 66,
      "start": 30.9778,
      "duration": 0.0678,
      "velocity": 127,
      "chip": "ym2612"
    },
    {
      "channel": 5,
      "note": 66,
      "start": 31.0462,
      "duration": 0.0838,
      "velocity": 127,
      "chip": "ym2612"
    },
    {
      "channel": 3,
      "note": 33,
      "start": 31.1249,
      "duration": 0.1767,
      "velocity": 113,
      "chip": "ym2612"
    },
    {
      "channel": 0,
      "note": 74,
      "start": 31.1282,
      "duration": 0.1676,
      "velocity": 95,
      "chip": "ym2612"
    },
    {
      "channel": 5,
      "note": 66,
      "start": 31.1307,
      "duration": 0.0834,
      "velocity": 127,
      "chip": "ym2612"
    },
    {
      "channel": 5,
      "note": 66,
      "start": 31.2147,
      "duration": 0.0909,
      "velocity": 127,
      "chip": "ym2612"
    },
    {
      "channel": 0,
      "note": 62,
      "start": 31.2964,
      "duration": 0.1626,
      "velocity": 95,
      "chip": "ym2612"
    },
    {
      "channel": 4,
      "note": 45,
      "start": 31.3,
      "duration": 0.3389,
      "velocity": 102,
      "chip": "ym2612"
    },
    {
      "channel": 3,
      "note": 33,
      "start": 31.3023,
      "duration": 0.1617,
      "velocity": 113,
      "chip": "ym2612"
    },
    {
      "channel": 5,
      "note": 66,
      "start": 31.3063,
      "duration": 0.0771,
      "velocity": 127,
      "chip": "ym2612"
    },
    {
      "channel": 5,
      "note": 66,
      "start": 31.384,
      "duration": 0.0839,
      "velocity": 127,
      "chip": "ym2612"
    },
    {
      "channel": 0,
      "note": 74,
      "start": 31.4595,
      "duration": 0.1679,
      "velocity": 95,
      "chip": "ym2612"
    },
    {
      "channel": 3,
      "note": 33,
      "start": 31.4646,
      "duration": 0.1767,
      "velocity": 113,
      "chip": "ym2612"
    },
    {
      "channel": 5,
      "note": 66,
      "start": 31.4686,
      "duration": 0.0833,
      "velocity": 127,
      "chip": "ym2612"
    },
    {
      "channel": 5,
      "note": 66,
      "start": 31.5525,
      "duration": 0.0927,
      "velocity": 127,
      "chip": "ym2612"
    },
    {
      "channel": 0,
      "note": 77,
      "start": 31.628,
      "duration": 0.1674,
      "velocity": 95,
      "chip": "ym2612"
    },
    {
      "channel": 2,
      "note": 62,
      "start": 31.635,
      "duration": 0.6867,
      "velocity": 94,
      "chip": "ym2612"
    },
    {
      "channel": 4,
      "note": 45,
      "start": 31.6395,
      "duration": 0.3342,
      "velocity": 102,
      "chip": "ym2612"
    },
    {
      "channel": 3,
      "note": 33,
      "start": 31.6419,
      "duration": 0.1586,
      "velocity": 113,
      "chip": "ym2612"
    },
    {
      "channel": 5,
      "note": 66,
      "start": 31.6458,
      "duration": 0.0741,
      "velocity": 127,
      "chip": "ym2612"
    },
    {
      "channel": 5,
      "note": 66,
      "start": 31.7205,
      "duration": 0.0838,
      "velocity": 127,
      "chip": "ym2612"
    },
    {
      "channel": 0,
      "note": 65,
      "start": 31.7961,
      "duration": 0.1679,
      "velocity": 95,
      "chip": "ym2612"
    },
    {
      "channel": 3,
      "note": 33,
      "start": 31.8011,
      "duration": 0.1749,
      "velocity": 113,
      "chip": "ym2612"
    },
    {
      "channel": 5,
      "note": 66,
      "start": 31.805,
      "duration": 0.0834,
      "velocity": 127,
      "chip": "ym2612"
    },
    {
      "channel": 5,
      "note": 66,
      "start": 31.889,
      "duration": 0.091,
      "velocity": 127,
      "chip": "ym2612"
    },
    {
      "channel": 0,
      "note": 77,
      "start": 31.9646,
      "duration": 0.1687,
      "velocity": 95,
      "chip": "ym2612"
    },
    {
      "channel": 4,
      "note": 45,
      "start": 31.9744,
      "duration": 0.3512,
      "velocity": 102,
      "chip": "ym2612"
    },
    {
      "channel": 3,
      "note": 33,
      "start": 31.9766,
      "duration": 0.1617,
      "velocity": 113,
      "chip": "ym2612"
    },
    {
      "channel": 5,
      "note": 66,
      "start": 31.9807,
      "duration": 0.0709,
      "velocity": 127,
      "chip": "ym2612"
    },
    {
      "channel": 5,
      "note": 66,
      "start": 32.0522,
      "duration": 0.0901,
      "velocity": 127,
      "chip": "ym2612"
    },
    {
      "channel": 0,
      "note": 65,
      "start": 32.134,
      "duration": 0.1679,
      "velocity": 95,
      "chip": "ym2612"
    },
    {
      "channel": 3,
      "note": 33,
      "start": 32.1389,
      "duration": 0.1929,
      "velocity": 113,
      "chip": "ym2612"
    },
    {
      "channel": 5,
      "note": 66,
      "start": 32.1429,
      "duration": 0.0772,
      "velocity": 127,
      "chip": "ym2612"
    },
    {
      "channel": 5,
      "note": 66,
      "start": 32.2207,
      "duration": 0.0961,
      "velocity": 127,
      "chip": "ym2612"
    },
    {
      "channel": 0,
      "note": 76,
      "start": 32.3025,
      "duration": 0.17,
      "velocity": 95,
      "chip": "ym2612"
    },
    {
      "channel": 5,
      "note": 66,
      "start": 32.3175,
      "duration": 0.0725,
      "velocity": 127,
      "chip": "ym2612"
    },
    {
      "channel": 2,
      "note": 69,
      "start": 32.3223,
      "duration": 0.6529,
      "velocity": 94,
      "chip": "ym2612"
    },
    {
      "channel": 4,
      "note": 45,
      "start": 32.3263,
      "duration": 0.3214,
      "velocity": 102,
      "chip": "ym2612"
    },
    {
      "channel": 3,
      "note": 33,
      "start": 32.3324,
      "duration": 0.145,
      "velocity": 113,
      "chip": "ym2612"
    },
    {
      "channel": 5,
      "note": 66,
      "start": 32.3906,
      "duration": 0.0908,
      "velocity": 127,
      "chip": "ym2612"
    },
    {
      "channel": 0,
      "note": 64,
      "start": 32.4731,
      "duration": 0.1709,
      "velocity": 95,
      "chip": "ym2612"
    },
    {
      "channel": 3,
      "note": 33,
      "start": 32.4781,
      "duration": 0.1718,
      "velocity": 113,
      "chip": "ym2612"
    },
    {
      "channel": 5,
      "note": 66,
      "start": 32.482,
      "duration": 0.0741,
      "velocity": 127,
      "chip": "ym2612"
    },
    {
      "channel": 5,
      "note": 66,
      "start": 32.5567,
      "duration": 0.0972,
      "velocity": 127,
      "chip": "ym2612"
    },
    {
      "channel": 0,
      "note": 76,
      "start": 32.6446,
      "duration": 0.1627,
      "velocity": 95,
      "chip": "ym2612"
    },
    {
      "channel": 4,
      "note": 45,
      "start": 32.6483,
      "duration": 0.3399,
      "velocity": 102,
      "chip": "ym2612"
    },
    {
      "channel": 3,
      "note": 33,
      "start": 32.6506,
      "duration": 0.1673,
      "velocity": 113,
      "chip": "ym2612"
    },
    {
      "channel": 5,
      "note": 66,
      "start": 32.6546,
      "duration": 0.0709,
      "velocity": 127,
      "chip": "ym2612"
    },
    {
      "channel": 5,
      "note": 66,
      "start": 32.7261,
      "duration": 0.0889,
      "velocity": 127,
      "chip": "ym2612"
    },
    {
      "channel": 0,
      "note": 74,
      "start": 32.8078,
      "duration": 0.1702,
      "velocity": 95,
      "chip": "ym2612"
    },
    {
      "channel": 5,
      "note": 66,
      "start": 32.8157,
      "duration": 0.079,
      "velocity": 127,
      "chip": "ym2612"
    },
    {
      "channel": 3,
      "note": 33,
      "start": 32.8185,
      "duration": 0.172,
      "velocity": 113,
      "chip": "ym2612"
    },
    {
      "channel": 5,
      "note": 66,
      "start": 32.8954,
      "duration": 0.0905,
      "velocity": 127,
      "chip": "ym2612"
    },
    {
      "channel": 2,
      "note": 71,
      "start": 32.9759,
      "duration": 2.0133,
      "velocity": 94,
      "chip": "ym2612"
    },
    {
      "channel": 0,
      "note": 62,
      "start": 32.9786,
      "duration": 0.1611,
      "velocity": 95,
      "chip": "ym2612"
    },
    {
      "channel": 5,
      "note": 66,
      "start": 32.9865,
      "duration": 0.0777,
      "velocity": 127,
      "chip": "ym2612"
    },
    {
      "channel": 4,
      "note": 47,
      "start": 32.9888,
      "duration": 0.3317,
      "velocity": 102,
      "chip": "ym2612"
    },
    {
      "channel": 3,
      "note": 35,
      "start": 32.9911,
      "duration": 0.1593,
      "velocity": 113,
      "chip": "ym2612"
    },
    {
      "channel": 5,
      "note": 66,
      "start": 33.0648,
      "duration": 0.0828,
      "velocity": 127,
      "chip": "ym2612"
    },
    {
      "channel": 0,
      "note": 74,
      "start": 33.1403,
      "duration": 0.1694,
      "velocity": 95,
      "chip": "ym2612"
    },
    {
      "channel": 5,
      "note": 66,
      "start": 33.1482,
      "duration": 0.0821,
      "velocity": 127,
      "chip": "ym2612"
    },
    {
      "channel": 3,
      "note": 35,
      "start": 33.151,
      "duration": 0.1644,
      "velocity": 113,
      "chip": "ym2612"
    },
    {
      "channel": 5,
      "note": 66,
      "start": 33.231,
      "duration": 0.094,
      "velocity": 127,
      "chip": "ym2612"
    },
    {
      "channel": 0,
      "note": 76,
      "start": 33.3104,
      "duration": 0.1702,
      "velocity": 95,
      "chip": "ym2612"
    },
    {
      "channel": 3,
      "note": 35,
      "start": 33.3161,
      "duration": 0.1698,
      "velocity": 113,
      "chip": "ym2612"
    },
    {
      "channel": 4,
      "note": 47,
      "start": 33.3212,
      "duration": 0.333,
      "velocity": 102,
      "chip": "ym2612"
    },
    {
      "channel": 5,
      "note": 66,
      "start": 33.3256,
      "duration": 0.074,
      "velocity": 127,
      "chip": "ym2612"
    },
    {
      "channel": 5,
      "note": 66,
      "start": 33.4003,
      "duration": 0.0828,
      "velocity": 127,
      "chip": "ym2612"
    },
    {
      "channel": 0,
      "note": 64,
      "start": 33.4812,
      "duration": 0.1633,
      "velocity": 95,
      "chip": "ym2612"
    },
    {
      "channel": 5,
      "note": 66,
      "start": 33.4838,
      "duration": 0.0851,
      "velocity": 127,
      "chip": "ym2612"
    },
    {
      "channel": 3,
      "note": 35,
      "start": 33.4865,
      "duration": 0.17,
      "velocity": 113,
      "chip": "ym2612"
    },
    {
      "channel": 5,
      "note": 66,
      "start": 33.5695,
      "duration": 0.0909,
      "velocity": 127,
      "chip": "ym2612"
    },
    {
      "channel": 0,
      "note": 76,
      "start": 33.645,
      "duration": 0.1688,
      "velocity": 95,
      "chip": "ym2612"
    },
    {
      "channel": 4,
      "note": 47,
      "start": 33.6548,
      "duration": 0.3398,
      "velocity": 102,
      "chip": "ym2612"
    },
    {
      "channel": 3,
      "note": 35,
      "start": 33.6571,
      "duration": 0.1673,
      "velocity": 113,
      "chip": "ym2612"
    },
    {
      "channel": 5,
      "note": 66,
      "start": 33.6611,
      "duration": 0.0771,
      "velocity": 127,
      "chip": "ym2612"
    },
    {
      "channel": 5,
      "note": 66,
      "start": 33.7389,
      "duration": 0.0827,
      "velocity": 127,
      "chip": "ym2612"
    },
    {
      "channel": 0,
      "note": 74,
      "start": 33.8144,
      "duration": 0.1694,
      "velocity": 95,
      "chip": "ym2612"
    },
    {
      "channel": 5,
      "note": 66,
      "start": 33.8222,
      "duration": 0.079,
      "velocity": 127,
      "chip": "ym2612"
    },
    {
      "channel": 3,
      "note": 35,
      "start": 33.8251,
      "duration": 0.1644,
      "velocity": 113,
      "chip": "ym2612"
    },
    {
      "channel": 5,
      "note": 66,
      "start": 33.9019,
      "duration": 0.0971,
      "velocity": 127,
      "chip": "ym2612"
    },
    {
      "channel": 0,
      "note": 62,
      "start": 33.9844,
      "duration": 0.1702,
      "velocity": 95,
      "chip": "ym2612"
    },
    {
      "channel": 3,
      "note": 35,
      "start": 33.9901,
      "duration": 0.1698,
      "velocity": 113,
      "chip": "ym2612"
    },
    {
      "channel": 4,
      "note": 47,
      "start": 33.9952,
      "duration": 0.3331,
      "velocity": 102,
      "chip": "ym2612"
    },
    {
      "channel": 5,
      "note": 66,
      "start": 33.9997,
      "duration": 0.0709,
      "velocity": 127,
      "chip": "ym2612"
    },
    {
      "channel": 5,
      "note": 66,
      "start": 34.0712,
      "duration": 0.0859,
      "velocity": 127,
      "chip": "ym2612"
    },
    {
      "channel": 0,
      "note": 74,
      "start": 34.1552,
      "duration": 0.1694,
      "velocity": 95,
      "chip": "ym2612"
    },
    {
      "channel": 5,
      "note": 66,
      "start": 34.1578,
      "duration": 0.079,
      "velocity": 127,
      "chip": "ym2612"
    },
    {
      "channel": 3,
      "note": 35,
      "start": 34.1605,
      "duration": 0.17,
      "velocity": 113,
      "chip": "ym2612"
    },
    {
      "channel": 5,
      "note": 66,
      "start": 34.2374,
      "duration": 0.0971,
      "velocity": 127,
      "chip": "ym2612"
    },
    {
      "channel": 0,
      "note": 72,
      "start": 34.3252,
      "duration": 0.1626,
      "velocity": 95,
      "chip": "ym2612"
    },
    {
      "channel": 4,
      "note": 47,
      "start": 34.3289,
      "duration": 0.3397,
      "velocity": 102,
      "chip": "ym2612"
    },
    {
      "channel": 3,
      "note": 35,
      "start": 34.3312,
      "duration": 0.1674,
      "velocity": 113,
      "chip": "ym2612"
    },
    {
      "channel": 5,
      "note": 66,
      "start": 34.3352,
      "duration": 0.0709,
      "velocity": 127,
      "chip": "ym2612"
    },
    {
      "channel": 5,
      "note": 66,
      "start": 34.4067,
      "duration": 0.089,
      "velocity": 127,
      "chip": "ym2612"
    },
    {
      "channel": 0,
      "note": 60,
      "start": 34.4885,
      "duration": 0.1693,
      "velocity": 95,
      "chip": "ym2612"
    },
    {
      "channel": 5,
      "note": 66,
      "start": 34.4964,
      "duration": 0.079,
      "velocity": 127,
      "chip": "ym2612"
    },
    {
      "channel": 3,
      "note": 35,
      "start": 34.4992,
      "duration": 0.1644,
      "velocity": 113,
      "chip": "ym2612"
    },
    {
      "channel": 5,
      "note": 66,
      "start": 34.576,
      "duration": 0.0971,
      "velocity": 127,
      "chip": "ym2612"
    },
    {
      "channel": 0,
      "note": 67,
      "start": 34.6585,
      "duration": 0.1618,
      "velocity": 95,
      "chip": "ym2612"
    },
    {
      "channel": 3,
      "note": 35,
      "start": 34.6642,
      "duration": 0.1667,
      "velocity": 113,
      "chip": "ym2612"
    },
    {
      "channel": 4,
      "note": 47,
      "start": 34.6693,
      "duration": 0.3436,
      "velocity": 102,
      "chip": "ym2612"
    },
    {
      "channel": 5,
      "note": 66,
      "start": 34.6737,
      "duration": 0.0709,
      "velocity": 127,
      "chip": "ym2612"
    },
    {
      "channel": 5,
      "note": 66,
      "start": 34.7453,
      "duration": 0.0828,
      "velocity": 127,
      "chip": "ym2612"
    },
    {
      "channel": 0,
      "note": 55,
      "start": 34.8208,
      "duration": 0.1793,
      "velocity": 95,
      "chip": "ym2612"
    },
    {
      "channel": 5,
      "note": 66,
      "start": 34.8287,
      "duration": 0.0821,
      "velocity": 127,
      "chip": "ym2612"
    },
    {
      "channel": 3,
      "note": 35,
      "start": 34.8315,
      "duration": 0.1738,
      "velocity": 113,
      "chip": "ym2612"
    },
    {
      "channel": 5,
      "note": 66,
      "start": 34.9114,
      "duration": 0.0991,
      "velocity": 127,
      "chip": "ym2612"
    },
    {
      "channel": 2,
      "note": 72,
      "start": 34.9898,
      "duration": 1.0167,
      "velocity": 94,
      "chip": "ym2612"
    },
    {
      "channel": 1,
      "note": 45,
      "start": 34.992,
      "duration": 5.3795,
      "velocity": 94,
      "chip": "ym2612"
    },
    {
      "channel": 3,
      "note": 36,
      "start": 35.0059,
      "duration": 0.1624,
      "velocity": 113,
      "chip": "ym2612"
    },
    {
      "channel": 5,
      "note": 66,
      "start": 35.0112,
      "duration": 0.0709,
      "velocity": 127,
      "chip": "ym2612"
    },
    {
      "channel": 4,
      "note": 48,
      "start": 35.0135,
      "duration": 0.3194,
      "velocity": 102,
      "chip": "ym2612"
    },
    {
      "channel": 0,
      "note": 69,
      "start": 35.021,
      "duration": 0.0539,
      "velocity": 94,
      "chip": "ym2612"
    },
    {
      "channel": 0,
      "note": 69,
      "start": 35.0756,
      "duration": 0.0821,
      "velocity": 94,
      "chip": "ym2612"
    },
    {
      "channel": 5,
      "note": 66,
      "start": 35.0827,
      "duration": 0.0828,
      "velocity": 127,
      "chip": "ym2612"
    },
    {
      "channel": 0,
      "note": 57,
      "start": 35.1583,
      "duration": 0.17,
      "velocity": 94,
      "chip": "ym2612"
    },
    {
      "channel": 5,
      "note": 66,
      "start": 35.1662,
      "duration": 0.0821,
      "velocity": 127,
      "chip": "ym2612"
    },
    {
      "channel": 3,
      "note": 36,
      "start": 35.1689,
      "duration": 0.1662,
      "velocity": 113,
      "chip": "ym2612"
    },
    {
      "channel": 5,
      "note": 66,
      "start": 35.2489,
      "duration": 0.0939,
      "velocity": 127,
      "chip": "ym2612"
    },
    {
      "channel": 0,
      "note": 69,
      "start": 35.329,
      "duration": 0.1695,
      "velocity": 94,
      "chip": "ym2612"
    },
    {
      "channel": 4,
      "note": 48,
      "start": 35.3335,
      "duration": 0.3366,
      "velocity": 102,
      "chip": "ym2612"
    },
    {
      "channel": 3,
      "note": 36,
      "start": 35.3358,
      "duration": 0.168,
      "velocity": 113,
      "chip": "ym2612"
    },
    {
      "channel": 5,
      "note": 66,
      "start": 35.3435,
      "duration": 0.0741,
      "velocity": 127,
      "chip": "ym2612"
    },
    {
      "channel": 5,
      "note": 66,
      "start": 35.4183,
      "duration": 0.0828,
      "velocity": 127,
      "chip": "ym2612"
    },
    {
      "channel": 0,
      "note": 59,
      "start": 35.4992,
      "duration": 0.0823,
      "velocity": 94,
      "chip": "ym2612"
    },
    {
      "channel": 5,
      "note": 66,
      "start": 35.5016,
      "duration": 0.087,
      "velocity": 127,
      "chip": "ym2612"
    },
    {
      "channel": 3,
      "note": 36,
      "start": 35.5044,
      "duration": 0.1681,
      "velocity": 113,
      "chip": "ym2612"
    },
    {
      "channel": 0,
      "note": 59,
      "start": 35.5821,
      "duration": 0.0835,
      "velocity": 94,
      "chip": "ym2612"
    },
    {
      "channel": 5,
      "note": 66,
      "start": 35.5892,
      "duration": 0.0909,
      "velocity": 127,
      "chip": "ym2612"
    },
    {
      "channel": 0,
      "note": 71,
      "start": 35.6663,
      "duration": 0.1695,
      "velocity": 94,
      "chip": "ym2612"
    },
    {
      "channel": 4,
      "note": 48,
      "start": 35.6708,
      "duration": 0.3468,
      "velocity": 102,
      "chip": "ym2612"
    },
    {
      "channel": 3,
      "note": 36,
      "start": 35.6732,
      "duration": 0.1679,
      "velocity": 113,
      "chip": "ym2612"
    },
    {
      "channel": 5,
      "note": 66,
      "start": 35.6808,
      "duration": 0.0679,
      "velocity": 127,
      "chip": "ym2612"
    },
    {
      "channel": 5,
      "note": 66,
      "start": 35.7493,
      "duration": 0.089,
      "velocity": 127,
      "chip": "ym2612"
    },
    {
      "channel": 0,
      "note": 59,
      "start": 35.8364,
      "duration": 0.1632,
      "velocity": 94,
      "chip": "ym2612"
    },
    {
      "channel": 5,
      "note": 66,
      "start": 35.8389,
      "duration": 0.079,
      "velocity": 127,
      "chip": "ym2612"
    },
    {
      "channel": 3,
      "note": 36,
      "start": 35.8417,
      "duration": 0.1782,
      "velocity": 113,
      "chip": "ym2612"
    },
    {
      "channel": 5,
      "note": 66,
      "start": 35.9186,
      "duration": 0.0968,
      "velocity": 127,
      "chip": "ym2612"
    },
    {
      "channel": 0,
      "note": 72,
      "start": 36.0003,
      "duration": 0.0818,
      "velocity": 94,
      "chip": "ym2612"
    },
    {
      "channel": 2,
      "note": 74,
      "start": 36.0071,
      "duration": 1.6776,
      "velocity": 94,
      "chip": "ym2612"
    },
    {
      "channel": 5,
      "note": 66,
      "start": 36.016,
      "duration": 0.0733,
      "velocity": 127,
      "chip": "ym2612"
    },
    {
      "channel": 4,
      "note": 50,
      "start": 36.0183,
      "duration": 0.3287,
      "velocity": 102,
      "chip": "ym2612"
    },
    {
      "channel": 3,
      "note": 38,
      "start": 36.0205,
      "duration": 0.158,
      "velocity": 113,
      "chip": "ym2612"
    },
    {
      "channel": 0,
      "note": 72,
      "start": 36.0827,
      "duration": 0.0852,
      "velocity": 94,
      "chip": "ym2612"
    },
    {
      "channel": 5,
      "note": 66,
      "start": 36.0899,
      "duration": 0.0859,
      "velocity": 127,
      "chip": "ym2612"
    },
    {
      "channel": 0,
      "note": 60,
      "start": 36.1686,
      "duration": 0.1686,
      "velocity": 94,
      "chip": "ym2612"
    },
    {
      "channel": 5,
      "note": 66,
      "start": 36.1764,
      "duration": 0.079,
      "velocity": 127,
      "chip": "ym2612"
    },
    {
      "channel": 3,
      "note": 38,
      "start": 36.1792,
      "duration": 0.17,
      "velocity": 113,
      "chip": "ym2612"
    },
    {
      "channel": 5,
      "note": 66,
      "start": 36.256,
      "duration": 0.0971,
      "velocity": 127,
      "chip": "ym2612"
    },
    {
      "channel": 0,
      "note": 72,
      "start": 36.3378,
      "duration": 0.1695,
      "velocity": 94,
      "chip": "ym2612"
    },
    {
      "channel": 4,
      "note": 50,
      "start": 36.3476,
      "duration": 0.3305,
      "velocity": 102,
      "chip": "ym2612"
    },
    {
      "channel": 3,
      "note": 38,
      "start": 36.3499,
      "duration": 0.1624,
      "velocity": 113,
      "chip": "ym2612"
    },
    {
      "channel": 5,
      "note": 66,
      "start": 36.3538,
      "duration": 0.0709,
      "velocity": 127,
      "chip": "ym2612"
    },
    {
      "channel": 5,
      "note": 66,
      "start": 36.4254,
      "duration": 0.0908,
      "velocity": 127,
      "chip": "ym2612"
    },
    {
      "channel": 0,
      "note": 62,
      "start": 36.5079,
      "duration": 0.0808,
      "velocity": 94,
      "chip": "ym2612"
    },
    {
      "channel": 3,
      "note": 38,
      "start": 36.5129,
      "duration": 0.1674,
      "velocity": 113,
      "chip": "ym2612"
    },
    {
      "channel": 5,
      "note": 66,
      "start": 36.5168,
      "duration": 0.0789,
      "velocity": 127,
      "chip": "ym2612"
    },
    {
      "channel": 0,
      "note": 62,
      "start": 36.5893,
      "duration": 0.0851,
      "velocity": 94,
      "chip": "ym2612"
    },
    {
      "channel": 5,
      "note": 66,
      "start": 36.5964,
      "duration": 0.0879,
      "velocity": 127,
      "chip": "ym2612"
    },
    {
      "channel": 0,
      "note": 74,
      "start": 36.675,
      "duration": 0.1626,
      "velocity": 94,
      "chip": "ym2612"
    },
    {
      "channel": 4,
      "note": 50,
      "start": 36.6787,
      "duration": 0.3378,
      "velocity": 102,
      "chip": "ym2612"
    },
    {
      "channel": 3,
      "note": 38,
      "start": 36.6809,
      "duration": 0.1673,
      "velocity": 113,
      "chip": "ym2612"
    },
    {
      "channel": 5,
      "note": 66,
      "start": 36.6849,
      "duration": 0.0771,
      "velocity": 127,
      "chip": "ym2612"
    },
    {
      "channel": 5,
      "note": 66,
      "start": 36.7627,
      "duration": 0.0827,
      "velocity": 127,
      "chip": "ym2612"
    },
    {
      "channel": 0,
      "note": 62,
      "start": 36.8382,
      "duration": 0.1686,
      "velocity": 94,
      "chip": "ym2612"
    },
    {
      "channel": 5,
      "note": 66,
      "start": 36.8461,
      "duration": 0.0852,
      "velocity": 127,
      "chip": "ym2612"
    },
    {
      "channel": 3,
      "note": 38,
      "start": 36.8488,
      "duration": 0.17,
      "velocity": 113,
      "chip": "ym2612"
    },
    {
      "channel": 5,
      "note": 66,
      "start": 36.9319,
      "duration": 0.0909,
      "velocity": 127,
      "chip": "ym2612"
    },
    {
      "channel": 0,
      "note": 77,
      "start": 37.0074,
      "duration": 0.0847,
      "velocity": 94,
      "chip": "ym2612"
    },
    {
      "channel": 4,
      "note": 50,
      "start": 37.0172,
      "duration": 0.3384,
      "velocity": 102,
      "chip": "ym2612"
    },
    {
      "channel": 3,
      "note": 38,
      "start": 37.0195,
      "duration": 0.166,
      "velocity": 113,
      "chip": "ym2612"
    },
    {
      "channel": 5,
      "note": 66,
      "start": 37.0234,
      "duration": 0.0759,
      "velocity": 127,
      "chip": "ym2612"
    },
    {
      "channel": 0,
      "note": 77,
      "start": 37.0927,
      "duration": 0.0821,
      "velocity": 94,
      "chip": "ym2612"
    },
    {
      "channel": 5,
      "note": 66,
      "start": 37.0999,
      "duration": 0.0827,
      "velocity": 127,
      "chip": "ym2612"
    },
    {
      "channel": 0,
      "note": 65,
      "start": 37.1754,
      "duration": 0.1693,
      "velocity": 94,
      "chip": "ym2612"
    },
    {
      "channel": 5,
      "note": 66,
      "start": 37.1833,
      "duration": 0.0821,
      "velocity": 127,
      "chip": "ym2612"
    },
    {
      "channel": 3,
      "note": 38,
      "start": 37.1861,
      "duration": 0.1644,
      "velocity": 113,
      "chip": "ym2612"
    },
    {
      "channel": 5,
      "note": 66,
      "start": 37.266,
      "duration": 0.094,
      "velocity": 127,
      "chip": "ym2612"
    },
    {
      "channel": 0,
      "note": 77,
      "start": 37.3454,
      "duration": 0.1687,
      "velocity": 94,
      "chip": "ym2612"
    },
    {
      "channel": 3,
      "note": 38,
      "start": 37.3511,
      "duration": 0.168,
      "velocity": 113,
      "chip": "ym2612"
    },
    {
      "channel": 4,
      "note": 50,
      "start": 37.3562,
      "duration": 0.3413,
      "velocity": 102,
      "chip": "ym2612"
    },
    {
      "channel": 5,
      "note": 66,
      "start": 37.3607,
      "duration": 0.0741,
      "velocity": 127,
      "chip": "ym2612"
    },
    {
      "channel": 5,
      "note": 66,
      "start": 37.4354,
      "duration": 0.0877,
      "velocity": 127,
      "chip": "ym2612"
    },
    {
      "channel": 0,
      "note": 65,
      "start": 37.5147,
      "duration": 0.1725,
      "velocity": 94,
      "chip": "ym2612"
    },
    {
      "channel": 3,
      "note": 38,
      "start": 37.5198,
      "duration": 0.18,
      "velocity": 113,
      "chip": "ym2612"
    },
    {
      "channel": 5,
      "note": 66,
      "start": 37.5237,
      "duration": 0.074,
      "velocity": 127,
      "chip": "ym2612"
    },
    {
      "channel": 5,
      "note": 66,
      "start": 37.5984,
      "duration": 0.0968,
      "velocity": 127,
      "chip": "ym2612"
    },
    {
      "channel": 2,
      "note": 76,
      "start": 37.6852,
      "duration": 0.6759,
      "velocity": 94,
      "chip": "ym2612"
    },
    {
      "channel": 0,
      "note": 76,
      "start": 37.6879,
      "duration": 0.0741,
      "velocity": 94,
      "chip": "ym2612"
    },
    {
      "channel": 5,
      "note": 66,
      "start": 37.6959,
      "duration": 0.0733,
      "velocity": 127,
      "chip": "ym2612"
    },
    {
      "channel": 4,
      "note": 52,
      "start": 37.6981,
      "duration": 0.3287,
      "velocity": 102,
      "chip": "ym2612"
    },
    {
      "channel": 3,
      "note": 40,
      "start": 37.7004,
      "duration": 0.158,
      "velocity": 113,
      "chip": "ym2612"
    },
    {
      "channel": 0,
      "note": 76,
      "start": 37.7627,
      "duration": 0.0905,
      "velocity": 94,
      "chip": "ym2612"
    },
    {
      "channel": 5,
      "note": 66,
      "start": 37.7698,
      "duration": 0.0859,
      "velocity": 127,
      "chip": "ym2612"
    },
    {
      "channel": 0,
      "note": 64,
      "start": 37.8538,
      "duration": 0.1632,
      "velocity": 94,
      "chip": "ym2612"
    },
    {
      "channel": 5,
      "note": 66,
      "start": 37.8563,
      "duration": 0.079,
      "velocity": 127,
      "chip": "ym2612"
    },
    {
      "channel": 3,
      "note": 40,
      "start": 37.8591,
      "duration": 0.17,
      "velocity": 113,
      "chip": "ym2612"
    },
    {
      "channel": 5,
      "note": 66,
      "start": 37.9359,
      "duration": 0.0971,
      "velocity": 127,
      "chip": "ym2612"
    },
    {
      "channel": 0,
      "note": 76,
      "start": 38.0177,
      "duration": 0.1687,
      "velocity": 94,
      "chip": "ym2612"
    },
    {
      "channel": 4,
      "note": 52,
      "start": 38.0275,
      "duration": 0.3448,
      "velocity": 102,
      "chip": "ym2612"
    },
    {
      "channel": 3,
      "note": 40,
      "start": 38.0297,
      "duration": 0.1673,
      "velocity": 113,
      "chip": "ym2612"
    },
    {
      "channel": 5,
      "note": 66,
      "start": 38.0337,
      "duration": 0.071,
      "velocity": 127,
      "chip": "ym2612"
    },
    {
      "channel": 5,
      "note": 66,
      "start": 38.1053,
      "duration": 0.0889,
      "velocity": 127,
      "chip": "ym2612"
    },
    {
      "channel": 0,
      "note": 62,
      "start": 38.187,
      "duration": 0.0815,
      "velocity": 94,
      "chip": "ym2612"
    },
    {
      "channel": 5,
      "note": 66,
      "start": 38.1949,
      "duration": 0.0807,
      "velocity": 127,
      "chip": "ym2612"
    },
    {
      "channel": 3,
      "note": 40,
      "start": 38.1977,
      "duration": 0.1768,
      "velocity": 113,
      "chip": "ym2612"
    },
    {
      "channel": 0,
      "note": 62,
      "start": 38.2691,
      "duration": 0.0852,
      "velocity": 94,
      "chip": "ym2612"
    },
    {
      "channel": 5,
      "note": 66,
      "start": 38.2763,
      "duration": 0.0937,
      "velocity": 127,
      "chip": "ym2612"
    },
    {
      "channel": 0,
      "note": 74,
      "start": 38.3549,
      "duration": 0.1627,
      "velocity": 94,
      "chip": "ym2612"
    },
    {
      "channel": 2,
      "note": 77,
      "start": 38.3617,
      "duration": 0.6615,
      "velocity": 94,
      "chip": "ym2612"
    },
    {
      "channel": 5,
      "note": 66,
      "start": 38.3706,
      "duration": 0.0715,
      "velocity": 127,
      "chip": "ym2612"
    },
    {
      "channel": 4,
      "note": 53,
      "start": 38.3729,
      "duration": 0.3237,
      "velocity": 102,
      "chip": "ym2612"
    },
    {
      "channel": 3,
      "note": 41,
      "start": 38.3752,
      "duration": 0.1531,
      "velocity": 113,
      "chip": "ym2612"
    },
    {
      "channel": 5,
      "note": 66,
      "start": 38.4427,
      "duration": 0.0827,
      "velocity": 127,
      "chip": "ym2612"
    },
    {
      "channel": 0,
      "note": 62,
      "start": 38.5183,
      "duration": 0.1686,
      "velocity": 94,
      "chip": "ym2612"
    },
    {
      "channel": 5,
      "note": 66,
      "start": 38.5261,
      "duration": 0.0852,
      "velocity": 127,
      "chip": "ym2612"
    },
    {
      "channel": 3,
      "note": 41,
      "start": 38.5289,
      "duration": 0.17,
      "velocity": 113,
      "chip": "ym2612"
    },
    {
      "channel": 5,
      "note": 66,
      "start": 38.612,
      "duration": 0.0909,
      "velocity": 127,
      "chip": "ym2612"
    },
    {
      "channel": 0,
      "note": 76,
      "start": 38.6875,
      "duration": 0.0893,
      "velocity": 94,
      "chip": "ym2612"
    },
    {
      "channel": 4,
      "note": 53,
      "start": 38.6973,
      "duration": 0.3449,
      "velocity": 102,
      "chip": "ym2612"
    },
    {
      "channel": 3,
      "note": 41,
      "start": 38.6995,
      "duration": 0.166,
      "velocity": 113,
      "chip": "ym2612"
    },
    {
      "channel": 5,
      "note": 66,
      "start": 38.7035,
      "duration": 0.0759,
      "velocity": 127,
      "chip": "ym2612"
    },
    {
      "channel": 0,
      "note": 76,
      "start": 38.7774,
      "duration": 0.0775,
      "velocity": 94,
      "chip": "ym2612"
    },
    {
      "channel": 5,
      "note": 66,
      "start": 38.78,
      "duration": 0.0828,
      "velocity": 127,
      "chip": "ym2612"
    },
    {
      "channel": 0,
      "note": 64,
      "start": 38.8555,
      "duration": 0.1704,
      "velocity": 94,
      "chip": "ym2612"
    },
    {
      "channel": 5,
      "note": 66,
      "start": 38.8634,
      "duration": 0.0852,
      "velocity": 127,
      "chip": "ym2612"
    },
    {
      "channel": 3,
      "note": 41,
      "start": 38.8662,
      "duration": 0.1782,
      "velocity": 113,
      "chip": "ym2612"
    },
    {
      "channel": 5,
      "note": 66,
      "start": 38.9492,
      "duration": 0.0906,
      "velocity": 127,
      "chip": "ym2612"
    },
    {
      "channel": 2,
      "note": 76,
      "start": 39.0238,
      "duration": 0.6783,
      "velocity": 94,
      "chip": "ym2612"
    },
    {
      "channel": 0,
      "note": 76,
      "start": 39.0266,
      "duration": 0.1678,
      "velocity": 94,
      "chip": "ym2612"
    },
    {
      "channel": 5,
      "note": 66,
      "start": 39.0405,
      "duration": 0.0746,
      "velocity": 127,
      "chip": "ym2612"
    },
    {
      "channel": 4,
      "note": 52,
      "start": 39.0427,
      "duration": 0.3304,
      "velocity": 102,
      "chip": "ym2612"
    },
    {
      "channel": 3,
      "note": 40,
      "start": 39.045,
      "duration": 0.1544,
      "velocity": 113,
      "chip": "ym2612"
    },
    {
      "channel": 5,
      "note": 66,
      "start": 39.1157,
      "duration": 0.0877,
      "velocity": 127,
      "chip": "ym2612"
    },
    {
      "channel": 0,
      "note": 62,
      "start": 39.195,
      "duration": 0.0839,
      "velocity": 94,
      "chip": "ym2612"
    },
    {
      "channel": 3,
      "note": 40,
      "start": 39.2,
      "duration": 0.168,
      "velocity": 113,
      "chip": "ym2612"
    },
    {
      "channel": 5,
      "note": 66,
      "start": 39.204,
      "duration": 0.0821,
      "velocity": 127,
      "chip": "ym2612"
    },
    {
      "channel": 0,
      "note": 62,
      "start": 39.2795,
      "duration": 0.0828,
      "velocity": 94,
      "chip": "ym2612"
    },
    {
      "channel": 5,
      "note": 66,
      "start": 39.2867,
      "duration": 0.0909,
      "velocity": 127,
      "chip": "ym2612"
    },
    {
      "channel": 0,
      "note": 74,
      "start": 39.363,
      "duration": 0.1686,
      "velocity": 94,
      "chip": "ym2612"
    },
    {
      "channel": 3,
      "note": 40,
      "start": 39.3687,
      "duration": 0.1679,
      "velocity": 113,
      "chip": "ym2612"
    },
    {
      "channel": 4,
      "note": 52,
      "start": 39.3738,
      "duration": 0.3412,
      "velocity": 102,
      "chip": "ym2612"
    },
    {
      "channel": 5,
      "note": 66,
      "start": 39.3782,
      "duration": 0.0709,
      "velocity": 127,
      "chip": "ym2612"
    },
    {
      "channel": 5,
      "note": 66,
      "start": 39.4498,
      "duration": 0.0908,
      "velocity": 127,
      "chip": "ym2612"
    },
    {
      "channel": 0,
      "note": 62,
      "start": 39.5322,
      "duration": 0.1725,
      "velocity": 94,
      "chip": "ym2612"
    },
    {
      "channel": 3,
      "note": 40,
      "start": 39.5373,
      "duration": 0.18,
      "velocity": 113,
      "chip": "ym2612"
    },
    {
      "channel": 5,
      "note": 66,
      "start": 39.5412,
      "duration": 0.0741,
      "velocity": 127,
      "chip": "ym2612"
    },
    {
      "channel": 5,
      "note": 66,
      "start": 39.6159,
      "duration": 0.0968,
      "velocity": 127,
      "chip": "ym2612"
    },
    {
      "channel": 2,
      "note": 74,
      "start": 39.7027,
      "duration": 0.6665,
      "velocity": 94,
      "chip": "ym2612"
    },
    {
      "channel": 0,
      "note": 72,
      "start": 39.7054,
      "duration": 0.0741,
      "velocity": 94,
      "chip": "ym2612"
    },
    {
      "channel": 5,
      "note": 66,
      "start": 39.7134,
      "duration": 0.0733,
      "velocity": 127,
      "chip": "ym2612"
    },
    {
      "channel": 4,
      "note": 50,
      "start": 39.7156,
      "duration": 0.3287,
      "velocity": 102,
      "chip": "ym2612"
    },
    {
      "channel": 3,
      "note": 38,
      "start": 39.7179,
      "duration": 0.158,
      "velocity": 113,
      "chip": "ym2612"
    },
    {
      "channel": 0,
      "note": 72,
      "start": 39.7801,
      "duration": 0.0905,
      "velocity": 94,
      "chip": "ym2612"
    },
    {
      "channel": 5,
      "note": 66,
      "start": 39.7873,
      "duration": 0.0859,
      "velocity": 127,
      "chip": "ym2612"
    },
    {
      "channel": 0,
      "note": 60,
      "start": 39.8713,
      "duration": 0.1632,
      "velocity": 94,
      "chip": "ym2612"
    },
    {
      "channel": 5,
      "note": 66,
      "start": 39.8738,
      "duration": 0.079,
      "velocity": 127,
      "chip": "ym2612"
    },
    {
      "channel": 3,
      "note": 38,
      "start": 39.8766,
      "duration": 0.17,
      "velocity": 113,
      "chip": "ym2612"
    },
    {
      "channel": 5,
      "note": 66,
      "start": 39.9534,
      "duration": 0.0971,
      "velocity": 127,
      "chip": "ym2612"
    },
    {
      "channel": 0,
      "note": 67,
      "start": 40.0352,
      "duration": 0.0817,
      "velocity": 94,
      "chip": "ym2612"
    },
    {
      "channel": 4,
      "note": 50,
      "start": 40.045,
      "duration": 0.3394,
      "velocity": 102,
      "chip": "ym2612"
    },
    {
      "channel": 3,
      "note": 38,
      "start": 40.0472,
      "duration": 0.1661,
      "velocity": 113,
      "chip": "ym2612"
    },
    {
      "channel": 5,
      "note": 66,
      "start": 40.0512,
      "duration": 0.0728,
      "velocity": 127,
      "chip": "ym2612"
    },
    {
      "channel": 0,
      "note": 67,
      "start": 40.1174,
      "duration": 0.0906,
      "velocity": 94,
      "chip": "ym2612"
    },
    {
      "channel": 5,
      "note": 66,
      "start": 40.1246,
      "duration": 0.0859,
      "velocity": 127,
      "chip": "ym2612"
    },
    {
      "channel": 0,
      "note": 55,
      "start": 40.2086,
      "duration": 0.172,
      "velocity": 94,
      "chip": "ym2612"
    },
    {
      "channel": 5,
      "note": 66,
      "start": 40.2111,
      "duration": 0.0791,
      "velocity": 127,
      "chip": "ym2612"
    },
    {
      "channel": 3,
      "note": 38,
      "start": 40.2139,
      "duration": 0.1727,
      "velocity": 113,
      "chip": "ym2612"
    },
    {
      "channel": 5,
      "note": 66,
      "start": 40.2908,
      "duration": 0.0999,
      "velocity": 127,
      "chip": "ym2612"
    },
    {
      "channel": 2,
      "note": 76,
      "start": 40.3698,
      "duration": 0.6733,
      "velocity": 94,
      "chip": "ym2612"
    },
    {
      "channel": 1,
      "note": 57,
      "start": 40.3721,
      "duration": 5.3896,
      "velocity": 94,
      "chip": "ym2612"
    },
    {
      "channel": 0,
      "note": 69,
      "start": 40.3813,
      "duration": 0.0724,
      "velocity": 94,
      "chip": "ym2612"
    },
    {
      "channel": 4,
      "note": 52,
      "start": 40.385,
      "duration": 0.3266,
      "velocity": 102,
      "chip": "ym2612"
    },
    {
      "channel": 3,
      "note": 40,
      "start": 40.3873,
      "duration": 0.1598,
      "velocity": 113,
      "chip": "ym2612"
    },
    {
      "channel": 5,
      "note": 66,
      "start": 40.3913,
      "duration": 0.0696,
      "velocity": 127,
      "chip": "ym2612"
    },
    {
      "channel": 0,
      "note": 69,
      "start": 40.4543,
      "duration": 0.0821,
      "velocity": 94,
      "chip": "ym2612"
    },
    {
      "channel": 5,
      "note": 66,
      "start": 40.4615,
      "duration": 0.0828,
      "velocity": 127,
      "chip": "ym2612"
    },
    {
      "channel": 0,
      "note": 57,
      "start": 40.537,
      "duration": 0.17,
      "velocity": 94,
      "chip": "ym2612"
    },
    {
      "channel": 5,
      "note": 66,
      "start": 40.5449,
      "duration": 0.0821,
      "velocity": 127,
      "chip": "ym2612"
    },
    {
      "channel": 3,
      "note": 40,
      "start": 40.5476,
      "duration": 0.1662,
      "velocity": 113,
      "chip": "ym2612"
    },
    {
      "channel": 5,
      "note": 66,
      "start": 40.6276,
      "duration": 0.0939,
      "velocity": 127,
      "chip": "ym2612"
    },
    {
      "channel": 0,
      "note": 69,
      "start": 40.7077,
      "duration": 0.1695,
      "velocity": 94,
      "chip": "ym2612"
    },
    {
      "channel": 4,
      "note": 52,
      "start": 40.7122,
      "duration": 0.3437,
      "velocity": 102,
      "chip": "ym2612"
    },
    {
      "channel": 3,
      "note": 40,
      "start": 40.7145,
      "duration": 0.1679,
      "velocity": 113,
      "chip": "ym2612"
    },
    {
      "channel": 5,
      "note": 66,
      "start": 40.7222,
      "duration": 0.0741,
      "velocity": 127,
      "chip": "ym2612"
    },
    {
      "channel": 5,
      "note": 66,
      "start": 40.7969,
      "duration": 0.0828,
      "velocity": 127,
      "chip": "ym2612"
    },
    {
      "channel": 0,
      "note": 59,
      "start": 40.8778,
      "duration": 0.0823,
      "velocity": 94,
      "chip": "ym2612"
    },
    {
      "channel": 5,
      "note": 66,
      "start": 40.8803,
      "duration": 0.0869,
      "velocity": 127,
      "chip": "ym2612"
    },
    {
      "channel": 3,
      "note": 40,
      "start": 40.8831,
      "duration": 0.1751,
      "velocity": 113,
      "chip": "ym2612"
    },
    {
      "channel": 0,
      "note": 59,
      "start": 40.9607,
      "duration": 0.0852,
      "velocity": 94,
      "chip": "ym2612"
    },
    {
      "channel": 5,
      "note": 66,
      "start": 40.9679,
      "duration": 0.0942,
      "velocity": 127,
      "chip": "ym2612"
    },
    {
      "channel": 2,
      "note": 77,
      "start": 41.0438,
      "duration": 1.0083,
      "velocity": 94,
      "chip": "ym2612"
    },
    {
      "channel": 0,
      "note": 71,
      "start": 41.0466,
      "duration": 0.1679,
      "velocity": 94,
      "chip": "ym2612"
    },
    {
      "channel": 4,
      "note": 53,
      "start": 41.0565,
      "duration": 0.3317,
      "velocity": 102,
      "chip": "ym2612"
    },
    {
      "channel": 3,
      "note": 41,
      "start": 41.0588,
      "duration": 0.1611,
      "velocity": 113,
      "chip": "ym2612"
    },
    {
      "channel": 5,
      "note": 66,
      "start": 41.0627,
      "duration": 0.0709,
      "velocity": 127,
      "chip": "ym2612"
    },
    {
      "channel": 5,
      "note": 66,
      "start": 41.1343,
      "duration": 0.0828,
      "velocity": 127,
      "chip": "ym2612"
    },
    {
      "channel": 0,
      "note": 59,
      "start": 41.2152,
      "duration": 0.1632,
      "velocity": 94,
      "chip": "ym2612"
    },
    {
      "channel": 5,
      "note": 66,
      "start": 41.2177,
      "duration": 0.079,
      "velocity": 127,
      "chip": "ym2612"
    },
    {
      "channel": 3,
      "note": 41,
      "start": 41.2205,
      "duration": 0.17,
      "velocity": 113,
      "chip": "ym2612"
    },
    {
      "channel": 5,
      "note": 66,
      "start": 41.2973,
      "duration": 0.0971,
      "velocity": 127,
      "chip": "ym2612"
    },
    {
      "channel": 0,
      "note": 72,
      "start": 41.3791,
      "duration": 0.0816,
      "velocity": 94,
      "chip": "ym2612"
    },
    {
      "channel": 4,
      "note": 53,
      "start": 41.3889,
      "duration": 0.3366,
      "velocity": 102,
      "chip": "ym2612"
    },
    {
      "channel": 3,
      "note": 41,
      "start": 41.3911,
      "duration": 0.1661,
      "velocity": 113,
      "chip": "ym2612"
    },
    {
      "channel": 5,
      "note": 66,
      "start": 41.3951,
      "duration": 0.0727,
      "velocity": 127,
      "chip": "ym2612"
    },
    {
      "channel": 0,
      "note": 72,
      "start": 41.4613,
      "duration": 0.0852,
      "velocity": 94,
      "chip": "ym2612"
    },
    {
      "channel": 5,
      "note": 66,
      "start": 41.4684,
      "duration": 0.0859,
      "velocity": 127,
      "chip": "ym2612"
    },
    {
      "channel": 0,
      "note": 60,
      "start": 41.5471,
      "duration": 0.1686,
      "velocity": 94,
      "chip": "ym2612"
    },
    {
      "channel": 5,
      "note": 66,
      "start": 41.555,
      "duration": 0.079,
      "velocity": 127,
      "chip": "ym2612"
    },
    {
      "channel": 3,
      "note": 41,
      "start": 41.5578,
      "duration": 0.1699,
      "velocity": 113,
      "chip": "ym2612"
    },
    {
      "channel": 5,
      "note": 66,
      "start": 41.6346,
      "duration": 0.0971,
      "velocity": 127,
      "chip": "ym2612"
    },
    {
      "channel": 0,
      "note": 72,
      "start": 41.7163,
      "duration": 0.1695,
      "velocity": 94,
      "chip": "ym2612"
    },
    {
      "channel": 4,
      "note": 53,
      "start": 41.7261,
      "duration": 0.3382,
      "velocity": 102,
      "chip": "ym2612"
    },
    {
      "channel": 3,
      "note": 41,
      "start": 41.7284,
      "duration": 0.1625,
      "velocity": 113,
      "chip": "ym2612"
    },
    {
      "channel": 5,
      "note": 66,
      "start": 41.7324,
      "duration": 0.0709,
      "velocity": 127,
      "chip": "ym2612"
    },
    {
      "channel": 5,
      "note": 66,
      "start": 41.8039,
      "duration": 0.0908,
      "velocity": 127,
      "chip": "ym2612"
    },
    {
      "channel": 0,
      "note": 62,
      "start": 41.8864,
      "duration": 0.0808,
      "velocity": 94,
      "chip": "ym2612"
    },
    {
      "channel": 3,
      "note": 41,
      "start": 41.8915,
      "duration": 0.1752,
      "velocity": 113,
      "chip": "ym2612"
    },
    {
      "channel": 5,
      "note": 66,
      "start": 41.8954,
      "duration": 0.079,
      "velocity": 127,
      "chip": "ym2612"
    },
    {
      "channel": 0,
      "note": 62,
      "start": 41.9679,
      "duration": 0.0869,
      "velocity": 94,
      "chip": "ym2612"
    },
    {
      "channel": 5,
      "note": 66,
      "start": 41.975,
      "duration": 0.0956,
      "velocity": 127,
      "chip": "ym2612"
    },
    {
      "channel": 2,
      "note": 76,
      "start": 42.0527,
      "duration": 0.3363,
      "velocity": 94,
      "chip": "ym2612"
    },
    {
      "channel": 0,
      "note": 74,
      "start": 42.0554,
      "duration": 0.1642,
      "velocity": 94,
      "chip": "ym2612"
    },
    {
      "channel": 4,
      "note": 52,
      "start": 42.065,
      "duration": 0.3195,
      "velocity": 102,
      "chip": "ym2612"
    },
    {
      "channel": 3,
      "note": 40,
      "start": 42.0673,
      "duration": 0.149,
      "velocity": 113,
      "chip": "ym2612"
    },
    {
      "channel": 5,
      "note": 66,
      "start": 42.0712,
      "duration": 0.068,
      "velocity": 127,
      "chip": "ym2612"
    },
    {
      "channel": 5,
      "note": 66,
      "start": 42.1398,
      "duration": 0.087,
      "velocity": 127,
      "chip": "ym2612"
    },
    {
      "channel": 3,
      "note": 40,
      "start": 42.217,
      "duration": 0.1697,
      "velocity": 113,
      "chip": "ym2612"
    },
    {
      "channel": 0,
      "note": 62,
      "start": 42.2202,
      "duration": 0.1715,
      "velocity": 94,
      "chip": "ym2612"
    },
    {
      "channel": 5,
      "note": 66,
      "start": 42.2274,
      "duration": 0.0803,
      "velocity": 127,
      "chip": "ym2612"
    },
    {
      "channel": 5,
      "note": 66,
      "start": 42.3083,
      "duration": 0.0943,
      "velocity": 127,
      "chip": "ym2612"
    },
    {
      "channel": 4,
      "note": 50,
      "start": 42.385,
      "duration": 0.3363,
      "velocity": 102,
      "chip": "ym2612"
    },
    {
      "channel": 3,
      "note": 38,
      "start": 42.3873,
      "duration": 0.166,
      "velocity": 113,
      "chip": "ym2612"
    },
    {
      "channel": 2,
      "note": 74,
      "start": 42.3896,
      "duration": 0.3363,
      "velocity": 94,
      "chip": "ym2612"
    },
    {
      "channel": 0,
      "note": 77,
      "start": 42.3924,
      "duration": 0.0796,
      "velocity": 94,
      "chip": "ym2612"
    },
    {
      "channel": 5,
      "note": 66,
      "start": 42.4032,
      "duration": 0.0759,
      "velocity": 127,
      "chip": "ym2612"
    },
    {
      "channel": 0,
      "note": 77,
      "start": 42.4726,
      "duration": 0.0839,
      "velocity": 94,
      "chip": "ym2612"
    },
    {
      "channel": 5,
      "note": 66,
      "start": 42.4798,
      "duration": 0.0839,
      "velocity": 127,
      "chip": "ym2612"
    },
    {
      "channel": 3,
      "note": 38,
      "start": 42.5539,
      "duration": 0.1697,
      "velocity": 113,
      "chip": "ym2612"
    },
    {
      "channel": 0,
      "note": 65,
      "start": 42.5571,
      "duration": 0.1715,
      "velocity": 94,
      "chip": "ym2612"
    },
    {
      "channel": 5,
      "note": 66,
      "start": 42.5643,
      "duration": 0.0803,
      "velocity": 127,
      "chip": "ym2612"
    },
    {
      "channel": 5,
      "note": 66,
      "start": 42.6452,
      "duration": 0.0943,
      "velocity": 127,
      "chip": "ym2612"
    },
    {
      "channel": 4,
      "note": 45,
      "start": 42.7219,
      "duration": 0.348,
      "velocity": 102,
      "chip": "ym2612"
    },
    {
      "channel": 3,
      "note": 33,
      "start": 42.7242,
      "duration": 0.1705,
      "velocity": 113,
      "chip": "ym2612"
    },
    {
      "channel": 2,
      "note": 69,
      "start": 42.7265,
      "duration": 0.337,
      "velocity": 94,
      "chip": "ym2612"
    },
    {
      "channel": 0,
      "note": 77,
      "start": 42.7293,
      "duration": 0.1606,
      "velocity": 94,
      "chip": "ym2612"
    },
    {
      "channel": 5,
      "note": 66,
      "start": 42.7402,
      "duration": 0.0741,
      "velocity": 127,
      "chip": "ym2612"
    },
    {
      "channel": 5,
      "note": 66,
      "start": 42.8149,
      "duration": 0.0838,
      "velocity": 127,
      "chip": "ym2612"
    },
    {
      "channel": 0,
      "note": 65,
      "start": 42.8904,
      "duration": 0.1758,
      "velocity": 94,
      "chip": "ym2612"
    },
    {
      "channel": 3,
      "note": 33,
      "start": 42.8954,
      "duration": 0.1768,
      "velocity": 113,
      "chip": "ym2612"
    },
    {
      "channel": 5,
      "note": 66,
      "start": 42.8993,
      "duration": 0.0833,
      "velocity": 127,
      "chip": "ym2612"
    },
    {
      "channel": 5,
      "note": 66,
      "start": 42.9833,
      "duration": 0.0928,
      "velocity": 127,
      "chip": "ym2612"
    },
    {
      "channel": 2,
      "note": 79,
      "start": 43.0642,
      "duration": 0.6709,
      "velocity": 94,
      "chip": "ym2612"
    },
    {
      "channel": 0,
      "note": 76,
      "start": 43.0668,
      "duration": 0.0756,
      "velocity": 94,
      "chip": "ym2612"
    },
    {
      "channel": 4,
      "note": 55,
      "start": 43.0705,
      "duration": 0.3328,
      "velocity": 102,
      "chip": "ym2612"
    },
    {
      "channel": 3,
      "note": 43,
      "start": 43.0728,
      "duration": 0.1611,
      "velocity": 113,
      "chip": "ym2612"
    },
    {
      "channel": 5,
      "note": 66,
      "start": 43.0768,
      "duration": 0.0728,
      "velocity": 127,
      "chip": "ym2612"
    },
    {
      "channel": 0,
      "note": 76,
      "start": 43.1431,
      "duration": 0.0859,
      "velocity": 94,
      "chip": "ym2612"
    },
    {
      "channel": 5,
      "note": 66,
      "start": 43.1502,
      "duration": 0.0877,
      "velocity": 127,
      "chip": "ym2612"
    },
    {
      "channel": 0,
      "note": 64,
      "start": 43.2296,
      "duration": 0.1693,
      "velocity": 94,
      "chip": "ym2612"
    },
    {
      "channel": 3,
      "note": 43,
      "start": 43.2346,
      "duration": 0.1711,
      "velocity": 113,
      "chip": "ym2612"
    },
    {
      "channel": 5,
      "note": 66,
      "start": 43.2385,
      "duration": 0.0771,
      "velocity": 127,
      "chip": "ym2612"
    },
    {
      "channel": 5,
      "note": 66,
      "start": 43.3163,
      "duration": 0.0971,
      "velocity": 127,
      "chip": "ym2612"
    },
    {
      "channel": 0,
      "note": 76,
      "start": 43.3995,
      "duration": 0.1695,
      "velocity": 94,
      "chip": "ym2612"
    },
    {
      "channel": 4,
      "note": 55,
      "start": 43.404,
      "duration": 0.3438,
      "velocity": 102,
      "chip": "ym2612"
    },
    {
      "channel": 3,
      "note": 43,
      "start": 43.4063,
      "duration": 0.1679,
      "velocity": 113,
      "chip": "ym2612"
    },
    {
      "channel": 5,
      "note": 66,
      "start": 43.414,
      "duration": 0.0678,
      "velocity": 127,
      "chip": "ym2612"
    },
    {
      "channel": 5,
      "note": 66,
      "start": 43.4825,
      "duration": 0.089,
      "velocity": 127,
      "chip": "ym2612"
    },
    {
      "channel": 0,
      "note": 62,
      "start": 43.5696,
      "duration": 0.0761,
      "velocity": 94,
      "chip": "ym2612"
    },
    {
      "channel": 5,
      "note": 66,
      "start": 43.5722,
      "duration": 0.0807,
      "velocity": 127,
      "chip": "ym2612"
    },
    {
      "channel": 3,
      "note": 43,
      "start": 43.5749,
      "duration": 0.1751,
      "velocity": 113,
      "chip": "ym2612"
    },
    {
      "channel": 0,
      "note": 62,
      "start": 43.6464,
      "duration": 0.0914,
      "velocity": 94,
      "chip": "ym2612"
    },
    {
      "channel": 5,
      "note": 66,
      "start": 43.6536,
      "duration": 0.1004,
      "velocity": 127,
      "chip": "ym2612"
    },
    {
      "channel": 2,
      "note": 77,
      "start": 43.7357,
      "duration": 0.6707,
      "velocity": 94,
      "chip": "ym2612"
    },
    {
      "channel": 0,
      "note": 74,
      "start": 43.7385,
      "duration": 0.1627,
      "velocity": 94,
      "chip": "ym2612"
    },
    {
      "channel": 4,
      "note": 53,
      "start": 43.7484,
      "duration": 0.3256,
      "velocity": 102,
      "chip": "ym2612"
    },
    {
      "channel": 3,
      "note": 41,
      "start": 43.7506,
      "duration": 0.1612,
      "velocity": 113,
      "chip": "ym2612"
    },
    {
      "channel": 5,
      "note": 66,
      "start": 43.7546,
      "duration": 0.0648,
      "velocity": 127,
      "chip": "ym2612"
    },
    {
      "channel": 5,
      "note": 66,
      "start": 43.82,
      "duration": 0.089,
      "velocity": 127,
      "chip": "ym2612"
    },
    {
      "channel": 0,
      "note": 62,
      "start": 43.9018,
      "duration": 0.1686,
      "velocity": 94,
      "chip": "ym2612"
    },
    {
      "channel": 5,
      "note": 66,
      "start": 43.9097,
      "duration": 0.079,
      "velocity": 127,
      "chip": "ym2612"
    },
    {
      "channel": 3,
      "note": 41,
      "start": 43.9124,
      "duration": 0.1638,
      "velocity": 113,
      "chip": "ym2612"
    },
    {
      "channel": 5,
      "note": 66,
      "start": 43.9893,
      "duration": 0.091,
      "velocity": 127,
      "chip": "ym2612"
    },
    {
      "channel": 0,
      "note": 76,
      "start": 44.071,
      "duration": 0.0817,
      "velocity": 94,
      "chip": "ym2612"
    },
    {
      "channel": 4,
      "note": 53,
      "start": 44.0746,
      "duration": 0.3448,
      "velocity": 102,
      "chip": "ym2612"
    },
    {
      "channel": 3,
      "note": 41,
      "start": 44.0769,
      "duration": 0.1642,
      "velocity": 113,
      "chip": "ym2612"
    },
    {
      "channel": 5,
      "note": 66,
      "start": 44.0809,
      "duration": 0.0789,
      "velocity": 127,
      "chip": "ym2612"
    },
    {
      "channel": 0,
      "note": 76,
      "start": 44.1533,
      "duration": 0.0828,
      "velocity": 94,
      "chip": "ym2612"
    },
    {
      "channel": 5,
      "note": 66,
      "start": 44.1604,
      "duration": 0.0846,
      "velocity": 127,
      "chip": "ym2612"
    },
    {
      "channel": 0,
      "note": 64,
      "start": 44.2367,
      "duration": 0.1725,
      "velocity": 94,
      "chip": "ym2612"
    },
    {
      "channel": 3,
      "note": 41,
      "start": 44.2417,
      "duration": 0.18,
      "velocity": 113,
      "chip": "ym2612"
    },
    {
      "channel": 5,
      "note": 66,
      "start": 44.2457,
      "duration": 0.0803,
      "velocity": 127,
      "chip": "ym2612"
    },
    {
      "channel": 5,
      "note": 66,
      "start": 44.3266,
      "duration": 0.0905,
      "velocity": 127,
      "chip": "ym2612"
    },
    {
      "channel": 2,
      "note": 76,
      "start": 44.4071,
      "duration": 0.6701,
      "velocity": 94,
      "chip": "ym2612"
    },
    {
      "channel": 0,
      "note": 76,
      "start": 44.4098,
      "duration": 0.1612,
      "velocity": 94,
      "chip": "ym2612"
    },
    {
      "channel": 5,
      "note": 66,
      "start": 44.4177,
      "duration": 0.0777,
      "velocity": 127,
      "chip": "ym2612"
    },
    {
      "channel": 4,
      "note": 52,
      "start": 44.42,
      "duration": 0.3286,
      "velocity": 102,
      "chip": "ym2612"
    },
    {
      "channel": 3,
      "note": 40,
      "start": 44.4223,
      "duration": 0.1593,
      "velocity": 113,
      "chip": "ym2612"
    },
    {
      "channel": 5,
      "note": 66,
      "start": 44.4961,
      "duration": 0.0827,
      "velocity": 127,
      "chip": "ym2612"
    },
    {
      "channel": 0,
      "note": 62,
      "start": 44.5715,
      "duration": 0.0892,
      "velocity": 94,
      "chip": "ym2612"
    },
    {
      "channel": 5,
      "note": 66,
      "start": 44.5794,
      "duration": 0.0839,
      "velocity": 127,
      "chip": "ym2612"
    },
    {
      "channel": 3,
      "note": 40,
      "start": 44.5822,
      "duration": 0.1686,
      "velocity": 113,
      "chip": "ym2612"
    },
    {
      "channel": 0,
      "note": 62,
      "start": 44.6614,
      "duration": 0.0775,
      "velocity": 94,
      "chip": "ym2612"
    },
    {
      "channel": 5,
      "note": 66,
      "start": 44.664,
      "duration": 0.0909,
      "velocity": 127,
      "chip": "ym2612"
    },
    {
      "channel": 0,
      "note": 74,
      "start": 44.7395,
      "duration": 0.1687,
      "velocity": 94,
      "chip": "ym2612"
    },
    {
      "channel": 4,
      "note": 52,
      "start": 44.7493,
      "duration": 0.3479,
      "velocity": 102,
      "chip": "ym2612"
    },
    {
      "channel": 3,
      "note": 40,
      "start": 44.7515,
      "duration": 0.1673,
      "velocity": 113,
      "chip": "ym2612"
    },
    {
      "channel": 5,
      "note": 66,
      "start": 44.7555,
      "duration": 0.0771,
      "velocity": 127,
      "chip": "ym2612"
    },
    {
      "channel": 5,
      "note": 66,
      "start": 44.8333,
      "duration": 0.0827,
      "velocity": 127,
      "chip": "ym2612"
    },
    {
      "channel": 0,
      "note": 62,
      "start": 44.9088,
      "duration": 0.1711,
      "velocity": 94,
      "chip": "ym2612"
    },
    {
      "channel": 5,
      "note": 66,
      "start": 44.9166,
      "duration": 0.079,
      "velocity": 127,
      "chip": "ym2612"
    },
    {
      "channel": 3,
      "note": 40,
      "start": 44.9195,
      "duration": 0.1715,
      "velocity": 113,
      "chip": "ym2612"
    },
    {
      "channel": 5,
      "note": 66,
      "start": 44.9963,
      "duration": 0.0986,
      "velocity": 127,
      "chip": "ym2612"
    },
    {
      "channel": 2,
      "note": 74,
      "start": 45.0778,
      "duration": 0.7023,
      "velocity": 94,
      "chip": "ym2612"
    },
    {
      "channel": 0,
      "note": 72,
      "start": 45.0805,
      "duration": 0.0793,
      "velocity": 94,
      "chip": "ym2612"
    },
    {
      "channel": 3,
      "note": 38,
      "start": 45.0916,
      "duration": 0.1647,
      "velocity": 113,
      "chip": "ym2612"
    },
    {
      "channel": 5,
      "note": 66,
      "start": 45.0955,
      "duration": 0.0714,
      "velocity": 127,
      "chip": "ym2612"
    },
    {
      "channel": 4,
      "note": 50,
      "start": 45.0978,
      "duration": 0.323,
      "velocity": 102,
      "chip": "ym2612"
    },
    {
      "channel": 0,
      "note": 72,
      "start": 45.1605,
      "duration": 0.0852,
      "velocity": 94,
      "chip": "ym2612"
    },
    {
      "channel": 5,
      "note": 66,
      "start": 45.1676,
      "duration": 0.0859,
      "velocity": 127,
      "chip": "ym2612"
    },
    {
      "channel": 0,
      "note": 60,
      "start": 45.2463,
      "duration": 0.17,
      "velocity": 94,
      "chip": "ym2612"
    },
    {
      "channel": 5,
      "note": 66,
      "start": 45.2542,
      "duration": 0.0789,
      "velocity": 127,
      "chip": "ym2612"
    },
    {
      "channel": 3,
      "note": 38,
      "start": 45.2569,
      "duration": 0.1663,
      "velocity": 113,
      "chip": "ym2612"
    },
    {
      "channel": 5,
      "note": 66,
      "start": 45.3338,
      "duration": 0.0971,
      "velocity": 127,
      "chip": "ym2612"
    },
    {
      "channel": 0,
      "note": 67,
      "start": 45.417,
      "duration": 0.0816,
      "velocity": 94,
      "chip": "ym2612"
    },
    {
      "channel": 4,
      "note": 50,
      "start": 45.4215,
      "duration": 0.354,
      "velocity": 102,
      "chip": "ym2612"
    },
    {
      "channel": 3,
      "note": 38,
      "start": 45.4238,
      "duration": 0.1648,
      "velocity": 113,
      "chip": "ym2612"
    },
    {
      "channel": 5,
      "note": 66,
      "start": 45.4315,
      "duration": 0.0697,
      "velocity": 127,
      "chip": "ym2612"
    },
    {
      "channel": 0,
      "note": 67,
      "start": 45.4992,
      "duration": 0.0844,
      "velocity": 94,
      "chip": "ym2612"
    },
    {
      "channel": 5,
      "note": 66,
      "start": 45.5018,
      "duration": 0.0908,
      "velocity": 127,
      "chip": "ym2612"
    },
    {
      "channel": 0,
      "note": 55,
      "start": 45.5843,
      "duration": 0.1862,
      "velocity": 94,
      "chip": "ym2612"
    },
    {
      "channel": 3,
      "note": 38,
      "start": 45.5893,
      "duration": 0.1885,
      "velocity": 113,
      "chip": "ym2612"
    },
    {
      "channel": 5,
      "note": 66,
      "start": 45.5932,
      "duration": 0.0771,
      "velocity": 127,
      "chip": "ym2612"
    },
    {
      "channel": 5,
      "note": 66,
      "start": 45.671,
      "duration": 0.1022,
      "velocity": 127,
      "chip": "ym2612"
    },
    {
      "channel": 1,
      "note": 45,
      "start": 45.7623,
      "duration": 10.7522,
      "velocity": 94,
      "chip": "ym2612"
    },
    {
      "channel": 5,
      "note": 66,
      "start": 45.7738,
      "duration": 0.065,
      "velocity": 127,
      "chip": "ym2612"
    },
    {
      "channel": 4,
      "note": 45,
      "start": 45.7761,
      "duration": 0.3172,
      "velocity": 102,
      "chip": "ym2612"
    },
    {
      "channel": 3,
      "note": 33,
      "start": 45.7784,
      "duration": 0.1466,
      "velocity": 113,
      "chip": "ym2612"
    },
    {
      "channel": 2,
      "note": 57,
      "start": 45.7807,
      "duration": 0.6433,
      "velocity": 94,
      "chip": "ym2612"
    },
    {
      "channel": 0,
      "note": 69,
      "start": 45.7919,
      "duration": 0.1224,
      "velocity": 95,
      "chip": "ym2612"
    },
    {
      "channel": 5,
      "note": 66,
      "start": 45.8394,
      "duration": 0.0828,
      "velocity": 127,
      "chip": "ym2612"
    },
    {
      "channel": 0,
      "note": 57,
      "start": 45.9149,
      "duration": 0.1686,
      "velocity": 95,
      "chip": "ym2612"
    },
    {
      "channel": 5,
      "note": 66,
      "start": 45.9228,
      "duration": 0.0852,
      "velocity": 127,
      "chip": "ym2612"
    },
    {
      "channel": 3,
      "note": 33,
      "start": 45.9256,
      "duration": 0.17,
      "velocity": 113,
      "chip": "ym2612"
    },
    {
      "channel": 5,
      "note": 66,
      "start": 46.0086,
      "duration": 0.0909,
      "velocity": 127,
      "chip": "ym2612"
    },
    {
      "channel": 0,
      "note": 69,
      "start": 46.0842,
      "duration": 0.1694,
      "velocity": 95,
      "chip": "ym2612"
    },
    {
      "channel": 4,
      "note": 45,
      "start": 46.0939,
      "duration": 0.3429,
      "velocity": 102,
      "chip": "ym2612"
    },
    {
      "channel": 3,
      "note": 33,
      "start": 46.0962,
      "duration": 0.1624,
      "velocity": 113,
      "chip": "ym2612"
    },
    {
      "channel": 5,
      "note": 66,
      "start": 46.1002,
      "duration": 0.0741,
      "velocity": 127,
      "chip": "ym2612"
    },
    {
      "channel": 5,
      "note": 66,
      "start": 46.1749,
      "duration": 0.0877,
      "velocity": 127,
      "chip": "ym2612"
    },
    {
      "channel": 0,
      "note": 71,
      "start": 46.2542,
      "duration": 0.1725,
      "velocity": 95,
      "chip": "ym2612"
    },
    {
      "channel": 3,
      "note": 33,
      "start": 46.2593,
      "duration": 0.1799,
      "velocity": 113,
      "chip": "ym2612"
    },
    {
      "channel": 5,
      "note": 66,
      "start": 46.2632,
      "duration": 0.0803,
      "velocity": 127,
      "chip": "ym2612"
    },
    {
      "channel": 5,
      "note": 66,
      "start": 46.3441,
      "duration": 0.0905,
      "velocity": 127,
      "chip": "ym2612"
    },
    {
      "channel": 2,
      "note": 59,
      "start": 46.4245,
      "duration": 2.0127,
      "velocity": 94,
      "chip": "ym2612"
    },
    {
      "channel": 0,
      "note": 59,
      "start": 46.4273,
      "duration": 0.1611,
      "velocity": 95,
      "chip": "ym2612"
    },
    {
      "channel": 5,
      "note": 66,
      "start": 46.4352,
      "duration": 0.0777,
      "velocity": 127,
      "chip": "ym2612"
    },
    {
      "channel": 4,
      "note": 47,
      "start": 46.4375,
      "duration": 0.33,
      "velocity": 102,
      "chip": "ym2612"
    },
    {
      "channel": 3,
      "note": 35,
      "start": 46.4398,
      "duration": 0.1593,
      "velocity": 113,
      "chip": "ym2612"
    },
    {
      "channel": 5,
      "note": 66,
      "start": 46.5135,
      "duration": 0.0828,
      "velocity": 127,
      "chip": "ym2612"
    },
    {
      "channel": 0,
      "note": 71,
      "start": 46.589,
      "duration": 0.1686,
      "velocity": 95,
      "chip": "ym2612"
    },
    {
      "channel": 5,
      "note": 66,
      "start": 46.5969,
      "duration": 0.0852,
      "velocity": 127,
      "chip": "ym2612"
    },
    {
      "channel": 3,
      "note": 35,
      "start": 46.5997,
      "duration": 0.17,
      "velocity": 113,
      "chip": "ym2612"
    },
    {
      "channel": 5,
      "note": 66,
      "start": 46.6828,
      "duration": 0.0909,
      "velocity": 127,
      "chip": "ym2612"
    },
    {
      "channel": 0,
      "note": 72,
      "start": 46.7583,
      "duration": 0.1694,
      "velocity": 95,
      "chip": "ym2612"
    },
    {
      "channel": 4,
      "note": 47,
      "start": 46.7681,
      "duration": 0.3347,
      "velocity": 102,
      "chip": "ym2612"
    },
    {
      "channel": 3,
      "note": 35,
      "start": 46.7703,
      "duration": 0.1624,
      "velocity": 113,
      "chip": "ym2612"
    },
    {
      "channel": 5,
      "note": 66,
      "start": 46.7744,
      "duration": 0.0709,
      "velocity": 127,
      "chip": "ym2612"
    },
    {
      "channel": 5,
      "note": 66,
      "start": 46.8459,
      "duration": 0.0908,
      "velocity": 127,
      "chip": "ym2612"
    },
    {
      "channel": 0,
      "note": 60,
      "start": 46.9284,
      "duration": 0.1709,
      "velocity": 95,
      "chip": "ym2612"
    },
    {
      "channel": 3,
      "note": 35,
      "start": 46.9334,
      "duration": 0.1718,
      "velocity": 113,
      "chip": "ym2612"
    },
    {
      "channel": 5,
      "note": 66,
      "start": 46.9373,
      "duration": 0.0741,
      "velocity": 127,
      "chip": "ym2612"
    },
    {
      "channel": 5,
      "note": 66,
      "start": 47.012,
      "duration": 0.0971,
      "velocity": 127,
      "chip": "ym2612"
    },
    {
      "channel": 0,
      "note": 72,
      "start": 47.0999,
      "duration": 0.1626,
      "velocity": 95,
      "chip": "ym2612"
    },
    {
      "channel": 4,
      "note": 47,
      "start": 47.1035,
      "duration": 0.338,
      "velocity": 102,
      "chip": "ym2612"
    },
    {
      "channel": 3,
      "note": 35,
      "start": 47.1058,
      "duration": 0.1673,
      "velocity": 113,
      "chip": "ym2612"
    },
    {
      "channel": 5,
      "note": 66,
      "start": 47.1098,
      "duration": 0.0709,
      "velocity": 127,
      "chip": "ym2612"
    },
    {
      "channel": 5,
      "note": 66,
      "start": 47.1814,
      "duration": 0.089,
      "velocity": 127,
      "chip": "ym2612"
    },
    {
      "channel": 0,
      "note": 74,
      "start": 47.2631,
      "duration": 0.1686,
      "velocity": 95,
      "chip": "ym2612"
    },
    {
      "channel": 5,
      "note": 66,
      "start": 47.271,
      "duration": 0.079,
      "velocity": 127,
      "chip": "ym2612"
    },
    {
      "channel": 3,
      "note": 35,
      "start": 47.2737,
      "duration": 0.17,
      "velocity": 113,
      "chip": "ym2612"
    },
    {
      "channel": 5,
      "note": 66,
      "start": 47.3506,
      "duration": 0.0971,
      "velocity": 127,
      "chip": "ym2612"
    },
    {
      "channel": 0,
      "note": 62,
      "start": 47.4323,
      "duration": 0.1695,
      "velocity": 95,
      "chip": "ym2612"
    },
    {
      "channel": 4,
      "note": 47,
      "start": 47.4421,
      "duration": 0.3317,
      "velocity": 102,
      "chip": "ym2612"
    },
    {
      "channel": 3,
      "note": 35,
      "start": 47.4444,
      "duration": 0.1624,
      "velocity": 113,
      "chip": "ym2612"
    },
    {
      "channel": 5,
      "note": 66,
      "start": 47.4483,
      "duration": 0.0709,
      "velocity": 127,
      "chip": "ym2612"
    },
    {
      "channel": 5,
      "note": 66,
      "start": 47.5199,
      "duration": 0.0908,
      "velocity": 127,
      "chip": "ym2612"
    },
    {
      "channel": 0,
      "note": 74,
      "start": 47.6024,
      "duration": 0.1617,
      "velocity": 95,
      "chip": "ym2612"
    },
    {
      "channel": 3,
      "note": 35,
      "start": 47.6074,
      "duration": 0.1687,
      "velocity": 113,
      "chip": "ym2612"
    },
    {
      "channel": 5,
      "note": 66,
      "start": 47.6114,
      "duration": 0.0772,
      "velocity": 127,
      "chip": "ym2612"
    },
    {
      "channel": 5,
      "note": 66,
      "start": 47.6892,
      "duration": 0.0909,
      "velocity": 127,
      "chip": "ym2612"
    },
    {
      "channel": 0,
      "note": 77,
      "start": 47.7647,
      "duration": 0.1694,
      "velocity": 95,
      "chip": "ym2612"
    },
    {
      "channel": 4,
      "note": 47,
      "start": 47.7745,
      "duration": 0.3348,
      "velocity": 102,
      "chip": "ym2612"
    },
    {
      "channel": 3,
      "note": 35,
      "start": 47.7768,
      "duration": 0.1624,
      "velocity": 113,
      "chip": "ym2612"
    },
    {
      "channel": 5,
      "note": 66,
      "start": 47.7807,
      "duration": 0.0741,
      "velocity": 127,
      "chip": "ym2612"
    },
    {
      "channel": 5,
      "note": 66,
      "start": 47.8555,
      "duration": 0.0876,
      "velocity": 127,
      "chip": "ym2612"
    },
    {
      "channel": 0,
      "note": 65,
      "start": 47.9348,
      "duration": 0.1709,
      "velocity": 95,
      "chip": "ym2612"
    },
    {
      "channel": 3,
      "note": 35,
      "start": 47.9398,
      "duration": 0.1717,
      "velocity": 113,
      "chip": "ym2612"
    },
    {
      "channel": 5,
      "note": 66,
      "start": 47.9438,
      "duration": 0.0803,
      "velocity": 127,
      "chip": "ym2612"
    },
    {
      "channel": 5,
      "note": 66,
      "start": 48.0247,
      "duration": 0.0909,
      "velocity": 127,
      "chip": "ym2612"
    },
    {
      "channel": 0,
      "note": 77,
      "start": 48.1063,
      "duration": 0.1626,
      "velocity": 95,
      "chip": "ym2612"
    },
    {
      "channel": 4,
      "note": 47,
      "start": 48.1099,
      "duration": 0.3462,
      "velocity": 102,
      "chip": "ym2612"
    },
    {
      "channel": 3,
      "note": 35,
      "start": 48.1122,
      "duration": 0.1673,
      "velocity": 113,
      "chip": "ym2612"
    },
    {
      "channel": 5,
      "note": 66,
      "start": 48.1162,
      "duration": 0.0771,
      "velocity": 127,
      "chip": "ym2612"
    },
    {
      "channel": 5,
      "note": 66,
      "start": 48.1939,
      "duration": 0.0828,
      "velocity": 127,
      "chip": "ym2612"
    },
    {
      "channel": 0,
      "note": 65,
      "start": 48.2695,
      "duration": 0.1704,
      "velocity": 95,
      "chip": "ym2612"
    },
    {
      "channel": 5,
      "note": 66,
      "start": 48.2774,
      "duration": 0.0852,
      "velocity": 127,
      "chip": "ym2612"
    },
    {
      "channel": 3,
      "note": 35,
      "start": 48.2801,
      "duration": 0.1783,
      "velocity": 113,
      "chip": "ym2612"
    },
    {
      "channel": 5,
      "note": 66,
      "start": 48.3632,
      "duration": 0.0906,
      "velocity": 127,
      "chip": "ym2612"
    },
    {
      "channel": 2,
      "note": 60,
      "start": 48.4378,
      "duration": 1.015,
      "velocity": 94,
      "chip": "ym2612"
    },
    {
      "channel": 0,
      "note": 76,
      "start": 48.4406,
      "duration": 0.1678,
      "velocity": 95,
      "chip": "ym2612"
    },
    {
      "channel": 5,
      "note": 66,
      "start": 48.4544,
      "duration": 0.0746,
      "velocity": 127,
      "chip": "ym2612"
    },
    {
      "channel": 4,
      "note": 48,
      "start": 48.4567,
      "duration": 0.3268,
      "velocity": 102,
      "chip": "ym2612"
    },
    {
      "channel": 3,
      "note": 36,
      "start": 48.459,
      "duration": 0.1544,
      "velocity": 113,
      "chip": "ym2612"
    },
    {
      "channel": 5,
      "note": 66,
      "start": 48.5297,
      "duration": 0.0876,
      "velocity": 127,
      "chip": "ym2612"
    },
    {
      "channel": 0,
      "note": 64,
      "start": 48.609,
      "duration": 0.1709,
      "velocity": 95,
      "chip": "ym2612"
    },
    {
      "channel": 3,
      "note": 36,
      "start": 48.614,
      "duration": 0.1718,
      "velocity": 113,
      "chip": "ym2612"
    },
    {
      "channel": 5,
      "note": 66,
      "start": 48.618,
      "duration": 0.0741,
      "velocity": 127,
      "chip": "ym2612"
    },
    {
      "channel": 5,
      "note": 66,
      "start": 48.6927,
      "duration": 0.0972,
      "velocity": 127,
      "chip": "ym2612"
    },
    {
      "channel": 0,
      "note": 76,
      "start": 48.7805,
      "duration": 0.1627,
      "velocity": 95,
      "chip": "ym2612"
    },
    {
      "channel": 4,
      "note": 48,
      "start": 48.7842,
      "duration": 0.338,
      "velocity": 102,
      "chip": "ym2612"
    },
    {
      "channel": 3,
      "note": 36,
      "start": 48.7865,
      "duration": 0.1673,
      "velocity": 113,
      "chip": "ym2612"
    },
    {
      "channel": 5,
      "note": 66,
      "start": 48.7905,
      "duration": 0.0709,
      "velocity": 127,
      "chip": "ym2612"
    },
    {
      "channel": 5,
      "note": 66,
      "start": 48.8621,
      "duration": 0.0889,
      "velocity": 127,
      "chip": "ym2612"
    },
    {
      "channel": 0,
      "note": 74,
      "start": 48.9438,
      "duration": 0.1686,
      "velocity": 95,
      "chip": "ym2612"
    },
    {
      "channel": 5,
      "note": 66,
      "start": 48.9516,
      "duration": 0.079,
      "velocity": 127,
      "chip": "ym2612"
    },
    {
      "channel": 3,
      "note": 36,
      "start": 48.9544,
      "duration": 0.17,
      "velocity": 113,
      "chip": "ym2612"
    },
    {
      "channel": 5,
      "note": 66,
      "start": 49.0313,
      "duration": 0.0971,
      "velocity": 127,
      "chip": "ym2612"
    },
    {
      "channel": 0,
      "note": 62,
      "start": 49.113,
      "duration": 0.1694,
      "velocity": 95,
      "chip": "ym2612"
    },
    {
      "channel": 4,
      "note": 48,
      "start": 49.1228,
      "duration": 0.3429,
      "velocity": 102,
      "chip": "ym2612"
    },
    {
      "channel": 3,
      "note": 36,
      "start": 49.1251,
      "duration": 0.1624,
      "velocity": 113,
      "chip": "ym2612"
    },
    {
      "channel": 5,
      "note": 66,
      "start": 49.1291,
      "duration": 0.0709,
      "velocity": 127,
      "chip": "ym2612"
    },
    {
      "channel": 5,
      "note": 66,
      "start": 49.2006,
      "duration": 0.0908,
      "velocity": 127,
      "chip": "ym2612"
    },
    {
      "channel": 0,
      "note": 74,
      "start": 49.2831,
      "duration": 0.1725,
      "velocity": 95,
      "chip": "ym2612"
    },
    {
      "channel": 3,
      "note": 36,
      "start": 49.2881,
      "duration": 0.18,
      "velocity": 113,
      "chip": "ym2612"
    },
    {
      "channel": 5,
      "note": 66,
      "start": 49.292,
      "duration": 0.074,
      "velocity": 127,
      "chip": "ym2612"
    },
    {
      "channel": 5,
      "note": 66,
      "start": 49.3667,
      "duration": 0.0968,
      "velocity": 127,
      "chip": "ym2612"
    },
    {
      "channel": 2,
      "note": 62,
      "start": 49.4534,
      "duration": 1.6798,
      "velocity": 94,
      "chip": "ym2612"
    },
    {
      "channel": 0,
      "note": 76,
      "start": 49.4562,
      "duration": 0.1602,
      "velocity": 95,
      "chip": "ym2612"
    },
    {
      "channel": 5,
      "note": 66,
      "start": 49.4642,
      "duration": 0.0714,
      "velocity": 127,
      "chip": "ym2612"
    },
    {
      "channel": 4,
      "note": 50,
      "start": 49.4664,
      "duration": 0.3237,
      "velocity": 102,
      "chip": "ym2612"
    },
    {
      "channel": 3,
      "note": 38,
      "start": 49.4688,
      "duration": 0.1531,
      "velocity": 113,
      "chip": "ym2612"
    },
    {
      "channel": 5,
      "note": 66,
      "start": 49.5363,
      "duration": 0.0827,
      "velocity": 127,
      "chip": "ym2612"
    },
    {
      "channel": 0,
      "note": 64,
      "start": 49.6171,
      "duration": 0.1693,
      "velocity": 95,
      "chip": "ym2612"
    },
    {
      "channel": 5,
      "note": 66,
      "start": 49.6196,
      "duration": 0.0852,
      "velocity": 127,
      "chip": "ym2612"
    },
    {
      "channel": 3,
      "note": 38,
      "start": 49.6224,
      "duration": 0.1699,
      "velocity": 113,
      "chip": "ym2612"
    },
    {
      "channel": 5,
      "note": 66,
      "start": 49.7055,
      "duration": 0.0909,
      "velocity": 127,
      "chip": "ym2612"
    },
    {
      "channel": 0,
      "note": 76,
      "start": 49.7871,
      "duration": 0.1626,
      "velocity": 95,
      "chip": "ym2612"
    },
    {
      "channel": 4,
      "note": 50,
      "start": 49.7908,
      "duration": 0.3396,
      "velocity": 102,
      "chip": "ym2612"
    },
    {
      "channel": 3,
      "note": 38,
      "start": 49.793,
      "duration": 0.1673,
      "velocity": 113,
      "chip": "ym2612"
    },
    {
      "channel": 5,
      "note": 66,
      "start": 49.797,
      "duration": 0.0771,
      "velocity": 127,
      "chip": "ym2612"
    },
    {
      "channel": 5,
      "note": 66,
      "start": 49.8747,
      "duration": 0.0828,
      "velocity": 127,
      "chip": "ym2612"
    },
    {
      "channel": 0,
      "note": 74,
      "start": 49.9502,
      "duration": 0.1693,
      "velocity": 95,
      "chip": "ym2612"
    },
    {
      "channel": 5,
      "note": 66,
      "start": 49.9581,
      "duration": 0.082,
      "velocity": 127,
      "chip": "ym2612"
    },
    {
      "channel": 3,
      "note": 38,
      "start": 49.9609,
      "duration": 0.1644,
      "velocity": 113,
      "chip": "ym2612"
    },
    {
      "channel": 5,
      "note": 66,
      "start": 50.0408,
      "duration": 0.094,
      "velocity": 127,
      "chip": "ym2612"
    },
    {
      "channel": 0,
      "note": 62,
      "start": 50.1202,
      "duration": 0.1687,
      "velocity": 95,
      "chip": "ym2612"
    },
    {
      "channel": 3,
      "note": 38,
      "start": 50.1259,
      "duration": 0.168,
      "velocity": 113,
      "chip": "ym2612"
    },
    {
      "channel": 4,
      "note": 50,
      "start": 50.131,
      "duration": 0.333,
      "velocity": 102,
      "chip": "ym2612"
    },
    {
      "channel": 5,
      "note": 66,
      "start": 50.1355,
      "duration": 0.0741,
      "velocity": 127,
      "chip": "ym2612"
    },
    {
      "channel": 5,
      "note": 66,
      "start": 50.2102,
      "duration": 0.0877,
      "velocity": 127,
      "chip": "ym2612"
    },
    {
      "channel": 0,
      "note": 74,
      "start": 50.2895,
      "duration": 0.1709,
      "velocity": 95,
      "chip": "ym2612"
    },
    {
      "channel": 3,
      "note": 38,
      "start": 50.2946,
      "duration": 0.1717,
      "velocity": 113,
      "chip": "ym2612"
    },
    {
      "channel": 5,
      "note": 66,
      "start": 50.2985,
      "duration": 0.0803,
      "velocity": 127,
      "chip": "ym2612"
    },
    {
      "channel": 5,
      "note": 66,
      "start": 50.3794,
      "duration": 0.0909,
      "velocity": 127,
      "chip": "ym2612"
    },
    {
      "channel": 0,
      "note": 72,
      "start": 50.4611,
      "duration": 0.1626,
      "velocity": 95,
      "chip": "ym2612"
    },
    {
      "channel": 4,
      "note": 50,
      "start": 50.4647,
      "duration": 0.338,
      "velocity": 102,
      "chip": "ym2612"
    },
    {
      "channel": 3,
      "note": 38,
      "start": 50.467,
      "duration": 0.1673,
      "velocity": 113,
      "chip": "ym2612"
    },
    {
      "channel": 5,
      "note": 66,
      "start": 50.471,
      "duration": 0.0709,
      "velocity": 127,
      "chip": "ym2612"
    },
    {
      "channel": 5,
      "note": 66,
      "start": 50.5425,
      "duration": 0.0889,
      "velocity": 127,
      "chip": "ym2612"
    },
    {
      "channel": 0,
      "note": 60,
      "start": 50.6242,
      "duration": 0.1686,
      "velocity": 95,
      "chip": "ym2612"
    },
    {
      "channel": 5,
      "note": 66,
      "start": 50.6321,
      "duration": 0.0791,
      "velocity": 127,
      "chip": "ym2612"
    },
    {
      "channel": 3,
      "note": 38,
      "start": 50.6349,
      "duration": 0.17,
      "velocity": 113,
      "chip": "ym2612"
    },
    {
      "channel": 5,
      "note": 66,
      "start": 50.7118,
      "duration": 0.0971,
      "velocity": 127,
      "chip": "ym2612"
    },
    {
      "channel": 0,
      "note": 67,
      "start": 50.7935,
      "duration": 0.1694,
      "velocity": 95,
      "chip": "ym2612"
    },
    {
      "channel": 4,
      "note": 50,
      "start": 50.8033,
      "duration": 0.3437,
      "velocity": 102,
      "chip": "ym2612"
    },
    {
      "channel": 3,
      "note": 38,
      "start": 50.8055,
      "duration": 0.1624,
      "velocity": 113,
      "chip": "ym2612"
    },
    {
      "channel": 5,
      "note": 66,
      "start": 50.8095,
      "duration": 0.0709,
      "velocity": 127,
      "chip": "ym2612"
    },
    {
      "channel": 5,
      "note": 66,
      "start": 50.8811,
      "duration": 0.0908,
      "velocity": 127,
      "chip": "ym2612"
    },
    {
      "channel": 0,
      "note": 55,
      "start": 50.9635,
      "duration": 0.1786,
      "velocity": 95,
      "chip": "ym2612"
    },
    {
      "channel": 3,
      "note": 38,
      "start": 50.9686,
      "duration": 0.1807,
      "velocity": 113,
      "chip": "ym2612"
    },
    {
      "channel": 5,
      "note": 66,
      "start": 50.9725,
      "duration": 0.0771,
      "velocity": 127,
      "chip": "ym2612"
    },
    {
      "channel": 5,
      "note": 66,
      "start": 51.0502,
      "duration": 0.0945,
      "velocity": 127,
      "chip": "ym2612"
    },
    {
      "channel": 2,
      "note": 64,
      "start": 51.1339,
      "duration": 0.6665,
      "velocity": 94,
      "chip": "ym2612"
    },
    {
      "channel": 0,
      "note": 69,
      "start": 51.1428,
      "duration": 0.1557,
      "velocity": 95,
      "chip": "ym2612"
    },
    {
      "channel": 5,
      "note": 66,
      "start": 51.1454,
      "duration": 0.0714,
      "velocity": 127,
      "chip": "ym2612"
    },
    {
      "channel": 4,
      "note": 52,
      "start": 51.1476,
      "duration": 0.3237,
      "velocity": 102,
      "chip": "ym2612"
    },
    {
      "channel": 3,
      "note": 40,
      "start": 51.1499,
      "duration": 0.1592,
      "velocity": 113,
      "chip": "ym2612"
    },
    {
      "channel": 5,
      "note": 66,
      "start": 51.2174,
      "duration": 0.089,
      "velocity": 127,
      "chip": "ym2612"
    },
    {
      "channel": 0,
      "note": 57,
      "start": 51.2992,
      "duration": 0.1624,
      "velocity": 95,
      "chip": "ym2612"
    },
    {
      "channel": 5,
      "note": 66,
      "start": 51.3071,
      "duration": 0.0789,
      "velocity": 127,
      "chip": "ym2612"
    },
    {
      "channel": 3,
      "note": 40,
      "start": 51.3098,
      "duration": 0.1638,
      "velocity": 113,
      "chip": "ym2612"
    },
    {
      "channel": 5,
      "note": 66,
      "start": 51.3866,
      "duration": 0.0909,
      "velocity": 127,
      "chip": "ym2612"
    },
    {
      "channel": 0,
      "note": 69,
      "start": 51.4621,
      "duration": 0.1695,
      "velocity": 95,
      "chip": "ym2612"
    },
    {
      "channel": 4,
      "note": 52,
      "start": 51.4719,
      "duration": 0.3412,
      "velocity": 102,
      "chip": "ym2612"
    },
    {
      "channel": 3,
      "note": 40,
      "start": 51.4742,
      "duration": 0.1624,
      "velocity": 113,
      "chip": "ym2612"
    },
    {
      "channel": 5,
      "note": 66,
      "start": 51.4782,
      "duration": 0.0741,
      "velocity": 127,
      "chip": "ym2612"
    },
    {
      "channel": 5,
      "note": 66,
      "start": 51.5529,
      "duration": 0.0877,
      "velocity": 127,
      "chip": "ym2612"
    },
    {
      "channel": 0,
      "note": 71,
      "start": 51.6322,
      "duration": 0.171,
      "velocity": 95,
      "chip": "ym2612"
    },
    {
      "channel": 3,
      "note": 40,
      "start": 51.6372,
      "duration": 0.1782,
      "velocity": 113,
      "chip": "ym2612"
    },
    {
      "channel": 5,
      "note": 66,
      "start": 51.6412,
      "duration": 0.0802,
      "velocity": 127,
      "chip": "ym2612"
    },
    {
      "channel": 5,
      "note": 66,
      "start": 51.7221,
      "duration": 0.0973,
      "velocity": 127,
      "chip": "ym2612"
    },
    {
      "channel": 2,
      "note": 65,
      "start": 51.8011,
      "duration": 0.6735,
      "velocity": 94,
      "chip": "ym2612"
    },
    {
      "channel": 0,
      "note": 59,
      "start": 51.8039,
      "duration": 0.168,
      "velocity": 95,
      "chip": "ym2612"
    },
    {
      "channel": 4,
      "note": 53,
      "start": 51.8138,
      "duration": 0.3317,
      "velocity": 102,
      "chip": "ym2612"
    },
    {
      "channel": 3,
      "note": 41,
      "start": 51.816,
      "duration": 0.1611,
      "velocity": 113,
      "chip": "ym2612"
    },
    {
      "channel": 5,
      "note": 66,
      "start": 51.82,
      "duration": 0.0709,
      "velocity": 127,
      "chip": "ym2612"
    },
    {
      "channel": 5,
      "note": 66,
      "start": 51.8916,
      "duration": 0.0828,
      "velocity": 127,
      "chip": "ym2612"
    },
    {
      "channel": 0,
      "note": 71,
      "start": 51.9725,
      "duration": 0.1632,
      "velocity": 95,
      "chip": "ym2612"
    },
    {
      "channel": 5,
      "note": 66,
      "start": 51.9751,
      "duration": 0.0851,
      "velocity": 127,
      "chip": "ym2612"
    },
    {
      "channel": 3,
      "note": 41,
      "start": 51.9778,
      "duration": 0.17,
      "velocity": 113,
      "chip": "ym2612"
    },
    {
      "channel": 5,
      "note": 66,
      "start": 52.0608,
      "duration": 0.0909,
      "velocity": 127,
      "chip": "ym2612"
    },
    {
      "channel": 0,
      "note": 72,
      "start": 52.1363,
      "duration": 0.1695,
      "velocity": 95,
      "chip": "ym2612"
    },
    {
      "channel": 4,
      "note": 53,
      "start": 52.1461,
      "duration": 0.3412,
      "velocity": 102,
      "chip": "ym2612"
    },
    {
      "channel": 3,
      "note": 41,
      "start": 52.1484,
      "duration": 0.1624,
      "velocity": 113,
      "chip": "ym2612"
    },
    {
      "channel": 5,
      "note": 66,
      "start": 52.1523,
      "duration": 0.0741,
      "velocity": 127,
      "chip": "ym2612"
    },
    {
      "channel": 5,
      "note": 66,
      "start": 52.227,
      "duration": 0.0877,
      "velocity": 127,
      "chip": "ym2612"
    },
    {
      "channel": 0,
      "note": 60,
      "start": 52.3064,
      "duration": 0.171,
      "velocity": 95,
      "chip": "ym2612"
    },
    {
      "channel": 3,
      "note": 41,
      "start": 52.3114,
      "duration": 0.1781,
      "velocity": 113,
      "chip": "ym2612"
    },
    {
      "channel": 5,
      "note": 66,
      "start": 52.3154,
      "duration": 0.0771,
      "velocity": 127,
      "chip": "ym2612"
    },
    {
      "channel": 5,
      "note": 66,
      "start": 52.3931,
      "duration": 0.1005,
      "velocity": 127,
      "chip": "ym2612"
    },
    {
      "channel": 2,
      "note": 64,
      "start": 52.4752,
      "duration": 0.6737,
      "velocity": 94,
      "chip": "ym2612"
    },
    {
      "channel": 0,
      "note": 72,
      "start": 52.478,
      "duration": 0.1627,
      "velocity": 95,
      "chip": "ym2612"
    },
    {
      "channel": 4,
      "note": 52,
      "start": 52.488,
      "duration": 0.3317,
      "velocity": 102,
      "chip": "ym2612"
    },
    {
      "channel": 3,
      "note": 40,
      "start": 52.4902,
      "duration": 0.1612,
      "velocity": 113,
      "chip": "ym2612"
    },
    {
      "channel": 5,
      "note": 66,
      "start": 52.4942,
      "duration": 0.0648,
      "velocity": 127,
      "chip": "ym2612"
    },
    {
      "channel": 5,
      "note": 66,
      "start": 52.5596,
      "duration": 0.089,
      "velocity": 127,
      "chip": "ym2612"
    },
    {
      "channel": 0,
      "note": 74,
      "start": 52.6413,
      "duration": 0.1686,
      "velocity": 95,
      "chip": "ym2612"
    },
    {
      "channel": 5,
      "note": 66,
      "start": 52.6492,
      "duration": 0.0789,
      "velocity": 127,
      "chip": "ym2612"
    },
    {
      "channel": 3,
      "note": 40,
      "start": 52.652,
      "duration": 0.17,
      "velocity": 113,
      "chip": "ym2612"
    },
    {
      "channel": 5,
      "note": 66,
      "start": 52.7288,
      "duration": 0.0971,
      "velocity": 127,
      "chip": "ym2612"
    },
    {
      "channel": 0,
      "note": 62,
      "start": 52.8105,
      "duration": 0.1695,
      "velocity": 95,
      "chip": "ym2612"
    },
    {
      "channel": 4,
      "note": 52,
      "start": 52.8203,
      "duration": 0.3413,
      "velocity": 102,
      "chip": "ym2612"
    },
    {
      "channel": 3,
      "note": 40,
      "start": 52.8226,
      "duration": 0.1624,
      "velocity": 113,
      "chip": "ym2612"
    },
    {
      "channel": 5,
      "note": 66,
      "start": 52.8266,
      "duration": 0.0709,
      "velocity": 127,
      "chip": "ym2612"
    },
    {
      "channel": 5,
      "note": 66,
      "start": 52.8981,
      "duration": 0.0908,
      "velocity": 127,
      "chip": "ym2612"
    },
    {
      "channel": 0,
      "note": 74,
      "start": 52.9807,
      "duration": 0.171,
      "velocity": 95,
      "chip": "ym2612"
    },
    {
      "channel": 3,
      "note": 40,
      "start": 52.9857,
      "duration": 0.1782,
      "velocity": 113,
      "chip": "ym2612"
    },
    {
      "channel": 5,
      "note": 66,
      "start": 52.9896,
      "duration": 0.0772,
      "velocity": 127,
      "chip": "ym2612"
    },
    {
      "channel": 5,
      "note": 66,
      "start": 53.0674,
      "duration": 0.1005,
      "velocity": 127,
      "chip": "ym2612"
    },
    {
      "channel": 2,
      "note": 62,
      "start": 53.1495,
      "duration": 0.6661,
      "velocity": 94,
      "chip": "ym2612"
    },
    {
      "channel": 0,
      "note": 77,
      "start": 53.1523,
      "duration": 0.1603,
      "velocity": 95,
      "chip": "ym2612"
    },
    {
      "channel": 4,
      "note": 50,
      "start": 53.1623,
      "duration": 0.3255,
      "velocity": 102,
      "chip": "ym2612"
    },
    {
      "channel": 3,
      "note": 38,
      "start": 53.1645,
      "duration": 0.1531,
      "velocity": 113,
      "chip": "ym2612"
    },
    {
      "channel": 5,
      "note": 66,
      "start": 53.1685,
      "duration": 0.0648,
      "velocity": 127,
      "chip": "ym2612"
    },
    {
      "channel": 5,
      "note": 66,
      "start": 53.2339,
      "duration": 0.0877,
      "velocity": 127,
      "chip": "ym2612"
    },
    {
      "channel": 0,
      "note": 65,
      "start": 53.3133,
      "duration": 0.1709,
      "velocity": 95,
      "chip": "ym2612"
    },
    {
      "channel": 3,
      "note": 38,
      "start": 53.3183,
      "duration": 0.1718,
      "velocity": 113,
      "chip": "ym2612"
    },
    {
      "channel": 5,
      "note": 66,
      "start": 53.3222,
      "duration": 0.0803,
      "velocity": 127,
      "chip": "ym2612"
    },
    {
      "channel": 5,
      "note": 66,
      "start": 53.4032,
      "duration": 0.0909,
      "velocity": 127,
      "chip": "ym2612"
    },
    {
      "channel": 0,
      "note": 77,
      "start": 53.4848,
      "duration": 0.1626,
      "velocity": 95,
      "chip": "ym2612"
    },
    {
      "channel": 4,
      "note": 50,
      "start": 53.4884,
      "duration": 0.3461,
      "velocity": 102,
      "chip": "ym2612"
    },
    {
      "channel": 3,
      "note": 38,
      "start": 53.4907,
      "duration": 0.1673,
      "velocity": 113,
      "chip": "ym2612"
    },
    {
      "channel": 5,
      "note": 66,
      "start": 53.4947,
      "duration": 0.0771,
      "velocity": 127,
      "chip": "ym2612"
    },
    {
      "channel": 5,
      "note": 66,
      "start": 53.5724,
      "duration": 0.0828,
      "velocity": 127,
      "chip": "ym2612"
    },
    {
      "channel": 0,
      "note": 65,
      "start": 53.648,
      "duration": 0.1703,
      "velocity": 95,
      "chip": "ym2612"
    },
    {
      "channel": 5,
      "note": 66,
      "start": 53.6559,
      "duration": 0.0851,
      "velocity": 127,
      "chip": "ym2612"
    },
    {
      "channel": 3,
      "note": 38,
      "start": 53.6586,
      "duration": 0.1782,
      "velocity": 113,
      "chip": "ym2612"
    },
    {
      "channel": 5,
      "note": 66,
      "start": 53.7417,
      "duration": 0.0906,
      "velocity": 127,
      "chip": "ym2612"
    },
    {
      "channel": 2,
      "note": 64,
      "start": 53.8163,
      "duration": 0.6736,
      "velocity": 94,
      "chip": "ym2612"
    },
    {
      "channel": 0,
      "note": 76,
      "start": 53.819,
      "duration": 0.1678,
      "velocity": 95,
      "chip": "ym2612"
    },
    {
      "channel": 5,
      "note": 66,
      "start": 53.8329,
      "duration": 0.0746,
      "velocity": 127,
      "chip": "ym2612"
    },
    {
      "channel": 4,
      "note": 52,
      "start": 53.8352,
      "duration": 0.3268,
      "velocity": 102,
      "chip": "ym2612"
    },
    {
      "channel": 3,
      "note": 40,
      "start": 53.8375,
      "duration": 0.1544,
      "velocity": 113,
      "chip": "ym2612"
    },
    {
      "channel": 5,
      "note": 66,
      "start": 53.9081,
      "duration": 0.0876,
      "velocity": 127,
      "chip": "ym2612"
    },
    {
      "channel": 0,
      "note": 64,
      "start": 53.9875,
      "duration": 0.1709,
      "velocity": 95,
      "chip": "ym2612"
    },
    {
      "channel": 3,
      "note": 40,
      "start": 53.9925,
      "duration": 0.1718,
      "velocity": 113,
      "chip": "ym2612"
    },
    {
      "channel": 5,
      "note": 66,
      "start": 53.9964,
      "duration": 0.0803,
      "velocity": 127,
      "chip": "ym2612"
    },
    {
      "channel": 5,
      "note": 66,
      "start": 54.0773,
      "duration": 0.091,
      "velocity": 127,
      "chip": "ym2612"
    },
    {
      "channel": 0,
      "note": 76,
      "start": 54.159,
      "duration": 0.1626,
      "velocity": 95,
      "chip": "ym2612"
    },
    {
      "channel": 4,
      "note": 52,
      "start": 54.1627,
      "duration": 0.3461,
      "velocity": 102,
      "chip": "ym2612"
    },
    {
      "channel": 3,
      "note": 40,
      "start": 54.1649,
      "duration": 0.1673,
      "velocity": 113,
      "chip": "ym2612"
    },
    {
      "channel": 5,
      "note": 66,
      "start": 54.1689,
      "duration": 0.0709,
      "velocity": 127,
      "chip": "ym2612"
    },
    {
      "channel": 5,
      "note": 66,
      "start": 54.2405,
      "duration": 0.0889,
      "velocity": 127,
      "chip": "ym2612"
    },
    {
      "channel": 0,
      "note": 74,
      "start": 54.3222,
      "duration": 0.1704,
      "velocity": 95,
      "chip": "ym2612"
    },
    {
      "channel": 5,
      "note": 66,
      "start": 54.3301,
      "duration": 0.079,
      "velocity": 127,
      "chip": "ym2612"
    },
    {
      "channel": 3,
      "note": 40,
      "start": 54.3329,
      "duration": 0.1782,
      "velocity": 113,
      "chip": "ym2612"
    },
    {
      "channel": 5,
      "note": 66,
      "start": 54.4097,
      "duration": 0.0968,
      "velocity": 127,
      "chip": "ym2612"
    },
    {
      "channel": 2,
      "note": 65,
      "start": 54.4905,
      "duration": 1.006,
      "velocity": 94,
      "chip": "ym2612"
    },
    {
      "channel": 0,
      "note": 62,
      "start": 54.4932,
      "duration": 0.1678,
      "velocity": 95,
      "chip": "ym2612"
    },
    {
      "channel": 5,
      "note": 66,
      "start": 54.5071,
      "duration": 0.0714,
      "velocity": 127,
      "chip": "ym2612"
    },
    {
      "channel": 4,
      "note": 53,
      "start": 54.5094,
      "duration": 0.3268,
      "velocity": 102,
      "chip": "ym2612"
    },
    {
      "channel": 3,
      "note": 41,
      "start": 54.5117,
      "duration": 0.1543,
      "velocity": 113,
      "chip": "ym2612"
    },
    {
      "channel": 5,
      "note": 66,
      "start": 54.5792,
      "duration": 0.0908,
      "velocity": 127,
      "chip": "ym2612"
    },
    {
      "channel": 0,
      "note": 74,
      "start": 54.6616,
      "duration": 0.1709,
      "velocity": 95,
      "chip": "ym2612"
    },
    {
      "channel": 3,
      "note": 41,
      "start": 54.6666,
      "duration": 0.1718,
      "velocity": 113,
      "chip": "ym2612"
    },
    {
      "channel": 5,
      "note": 66,
      "start": 54.6706,
      "duration": 0.0772,
      "velocity": 127,
      "chip": "ym2612"
    },
    {
      "channel": 5,
      "note": 66,
      "start": 54.7484,
      "duration": 0.0941,
      "velocity": 127,
      "chip": "ym2612"
    },
    {
      "channel": 0,
      "note": 76,
      "start": 54.8331,
      "duration": 0.1627,
      "velocity": 95,
      "chip": "ym2612"
    },
    {
      "channel": 4,
      "note": 53,
      "start": 54.8368,
      "duration": 0.3317,
      "velocity": 102,
      "chip": "ym2612"
    },
    {
      "channel": 3,
      "note": 41,
      "start": 54.8391,
      "duration": 0.1673,
      "velocity": 113,
      "chip": "ym2612"
    },
    {
      "channel": 5,
      "note": 66,
      "start": 54.8431,
      "duration": 0.0709,
      "velocity": 127,
      "chip": "ym2612"
    },
    {
      "channel": 5,
      "note": 66,
      "start": 54.9147,
      "duration": 0.089,
      "velocity": 127,
      "chip": "ym2612"
    },
    {
      "channel": 0,
      "note": 64,
      "start": 54.9964,
      "duration": 0.1685,
      "velocity": 95,
      "chip": "ym2612"
    },
    {
      "channel": 5,
      "note": 66,
      "start": 55.0043,
      "duration": 0.079,
      "velocity": 127,
      "chip": "ym2612"
    },
    {
      "channel": 3,
      "note": 41,
      "start": 55.0071,
      "duration": 0.1638,
      "velocity": 113,
      "chip": "ym2612"
    },
    {
      "channel": 5,
      "note": 66,
      "start": 55.084,
      "duration": 0.0909,
      "velocity": 127,
      "chip": "ym2612"
    },
    {
      "channel": 0,
      "note": 76,
      "start": 55.1656,
      "duration": 0.1626,
      "velocity": 95,
      "chip": "ym2612"
    },
    {
      "channel": 4,
      "note": 53,
      "start": 55.1692,
      "duration": 0.3396,
      "velocity": 102,
      "chip": "ym2612"
    },
    {
      "channel": 3,
      "note": 41,
      "start": 55.1715,
      "duration": 0.1673,
      "velocity": 113,
      "chip": "ym2612"
    },
    {
      "channel": 5,
      "note": 66,
      "start": 55.1755,
      "duration": 0.0771,
      "velocity": 127,
      "chip": "ym2612"
    },
    {
      "channel": 5,
      "note": 66,
      "start": 55.2532,
      "duration": 0.0828,
      "velocity": 127,
      "chip": "ym2612"
    },
    {
      "channel": 0,
      "note": 74,
      "start": 55.3288,
      "duration": 0.1704,
      "velocity": 95,
      "chip": "ym2612"
    },
    {
      "channel": 5,
      "note": 66,
      "start": 55.3367,
      "duration": 0.0852,
      "velocity": 127,
      "chip": "ym2612"
    },
    {
      "channel": 3,
      "note": 41,
      "start": 55.3394,
      "duration": 0.1717,
      "velocity": 113,
      "chip": "ym2612"
    },
    {
      "channel": 5,
      "note": 66,
      "start": 55.4225,
      "duration": 0.0925,
      "velocity": 127,
      "chip": "ym2612"
    },
    {
      "channel": 2,
      "note": 64,
      "start": 55.4971,
      "duration": 0.3457,
      "velocity": 94,
      "chip": "ym2612"
    },
    {
      "channel": 0,
      "note": 62,
      "start": 55.4999,
      "duration": 0.1655,
      "velocity": 95,
      "chip": "ym2612"
    },
    {
      "channel": 4,
      "note": 52,
      "start": 55.5095,
      "duration": 0.3288,
      "velocity": 102,
      "chip": "ym2612"
    },
    {
      "channel": 3,
      "note": 40,
      "start": 55.5118,
      "duration": 0.1585,
      "velocity": 113,
      "chip": "ym2612"
    },
    {
      "channel": 5,
      "note": 66,
      "start": 55.5157,
      "duration": 0.0741,
      "velocity": 127,
      "chip": "ym2612"
    },
    {
      "channel": 5,
      "note": 66,
      "start": 55.5904,
      "duration": 0.0839,
      "velocity": 127,
      "chip": "ym2612"
    },
    {
      "channel": 0,
      "note": 74,
      "start": 55.6659,
      "duration": 0.1679,
      "velocity": 95,
      "chip": "ym2612"
    },
    {
      "channel": 3,
      "note": 40,
      "start": 55.6709,
      "duration": 0.1697,
      "velocity": 113,
      "chip": "ym2612"
    },
    {
      "channel": 5,
      "note": 66,
      "start": 55.6749,
      "duration": 0.0833,
      "velocity": 127,
      "chip": "ym2612"
    },
    {
      "channel": 5,
      "note": 66,
      "start": 55.7588,
      "duration": 0.0912,
      "velocity": 127,
      "chip": "ym2612"
    },
    {
      "channel": 0,
      "note": 72,
      "start": 55.8344,
      "duration": 0.1707,
      "velocity": 95,
      "chip": "ym2612"
    },
    {
      "channel": 4,
      "note": 50,
      "start": 55.8389,
      "duration": 0.3412,
      "velocity": 102,
      "chip": "ym2612"
    },
    {
      "channel": 3,
      "note": 38,
      "start": 55.8412,
      "duration": 0.1607,
      "velocity": 113,
      "chip": "ym2612"
    },
    {
      "channel": 2,
      "note": 62,
      "start": 55.8435,
      "duration": 0.3293,
      "velocity": 94,
      "chip": "ym2612"
    },
    {
      "channel": 5,
      "note": 66,
      "start": 55.8507,
      "duration": 0.0741,
      "velocity": 127,
      "chip": "ym2612"
    },
    {
      "channel": 5,
      "note": 66,
      "start": 55.9254,
      "duration": 0.0869,
      "velocity": 127,
      "chip": "ym2612"
    },
    {
      "channel": 3,
      "note": 38,
      "start": 56.0026,
      "duration": 0.168,
      "velocity": 113,
      "chip": "ym2612"
    },
    {
      "channel": 0,
      "note": 60,
      "start": 56.0058,
      "duration": 0.1698,
      "velocity": 95,
      "chip": "ym2612"
    },
    {
      "channel": 5,
      "note": 66,
      "start": 56.013,
      "duration": 0.0772,
      "velocity": 127,
      "chip": "ym2612"
    },
    {
      "channel": 5,
      "note": 66,
      "start": 56.0908,
      "duration": 0.0975,
      "velocity": 127,
      "chip": "ym2612"
    },
    {
      "channel": 3,
      "note": 33,
      "start": 56.1711,
      "duration": 0.1705,
      "velocity": 113,
      "chip": "ym2612"
    },
    {
      "channel": 2,
      "note": 57,
      "start": 56.1734,
      "duration": 0.3389,
      "velocity": 94,
      "chip": "ym2612"
    },
    {
      "channel": 0,
      "note": 67,
      "start": 56.1762,
      "duration": 0.1687,
      "velocity": 95,
      "chip": "ym2612"
    },
    {
      "channel": 4,
      "note": 45,
      "start": 56.1807,
      "duration": 0.3386,
      "velocity": 102,
      "chip": "ym2612"
    },
    {
      "channel": 5,
      "note": 66,
      "start": 56.1889,
      "duration": 0.0678,
      "velocity": 127,
      "chip": "ym2612"
    },
    {
      "channel": 5,
      "note": 66,
      "start": 56.2574,
      "duration": 0.0901,
      "velocity": 127,
      "chip": "ym2612"
    },
    {
      "channel": 3,
      "note": 33,
      "start": 56.3423,
      "duration": 0.1793,
      "velocity": 113,
      "chip": "ym2612"
    },
    {
      "channel": 0,
      "note": 55,
      "start": 56.3455,
      "duration": 0.1793,
      "velocity": 95,
      "chip": "ym2612"
    },
    {
      "channel": 5,
      "note": 66,
      "start": 56.348,
      "duration": 0.0803,
      "velocity": 127,
      "chip": "ym2612"
    },
    {
      "channel": 5,
      "note": 66,
      "start": 56.4289,
      "duration": 0.0985,
      "velocity": 127,
      "chip": "ym2612"
    },
    {
      "channel": 2,
      "note": 67,
      "start": 56.5129,
      "duration": 0.6683,
      "velocity": 94,
      "chip": "ym2612"
    },
    {
      "channel": 1,
      "note": 45,
      "start": 56.5151,
      "duration": 5.3783,
      "velocity": 94,
      "chip": "ym2612"
    },
    {
      "channel": 4,
      "note": 55,
      "start": 56.52,
      "duration": 0.3336,
      "velocity": 102,
      "chip": "ym2612"
    },
    {
      "channel": 3,
      "note": 43,
      "start": 56.5222,
      "duration": 0.1611,
      "velocity": 113,
      "chip": "ym2612"
    },
    {
      "channel": 0,
      "note": 69,
      "start": 56.5255,
      "duration": 0.1529,
      "velocity": 95,
      "chip": "ym2612"
    },
    {
      "channel": 5,
      "note": 66,
      "start": 56.528,
      "duration": 0.0678,
      "velocity": 127,
      "chip": "ym2612"
    },
    {
      "channel": 5,
      "note": 66,
      "start": 56.5965,
      "duration": 0.0908,
      "velocity": 127,
      "chip": "ym2612"
    },
    {
      "channel": 0,
      "note": 57,
      "start": 56.679,
      "duration": 0.1709,
      "velocity": 95,
      "chip": "ym2612"
    },
    {
      "channel": 3,
      "note": 43,
      "start": 56.684,
      "duration": 0.1718,
      "velocity": 113,
      "chip": "ym2612"
    },
    {
      "channel": 5,
      "note": 66,
      "start": 56.688,
      "duration": 0.0772,
      "velocity": 127,
      "chip": "ym2612"
    },
    {
      "channel": 5,
      "note": 66,
      "start": 56.7658,
      "duration": 0.0941,
      "velocity": 127,
      "chip": "ym2612"
    },
    {
      "channel": 0,
      "note": 69,
      "start": 56.8506,
      "duration": 0.1602,
      "velocity": 95,
      "chip": "ym2612"
    },
    {
      "channel": 4,
      "note": 55,
      "start": 56.8542,
      "duration": 0.3399,
      "velocity": 102,
      "chip": "ym2612"
    },
    {
      "channel": 3,
      "note": 43,
      "start": 56.8565,
      "duration": 0.1593,
      "velocity": 113,
      "chip": "ym2612"
    },
    {
      "channel": 5,
      "note": 66,
      "start": 56.8605,
      "duration": 0.0709,
      "velocity": 127,
      "chip": "ym2612"
    },
    {
      "channel": 5,
      "note": 66,
      "start": 56.932,
      "duration": 0.0877,
      "velocity": 127,
      "chip": "ym2612"
    },
    {
      "channel": 0,
      "note": 71,
      "start": 57.0114,
      "duration": 0.1725,
      "velocity": 95,
      "chip": "ym2612"
    },
    {
      "channel": 3,
      "note": 43,
      "start": 57.0164,
      "duration": 0.18,
      "velocity": 113,
      "chip": "ym2612"
    },
    {
      "channel": 5,
      "note": 66,
      "start": 57.0204,
      "duration": 0.0803,
      "velocity": 127,
      "chip": "ym2612"
    },
    {
      "channel": 5,
      "note": 66,
      "start": 57.1013,
      "duration": 0.0905,
      "velocity": 127,
      "chip": "ym2612"
    },
    {
      "channel": 2,
      "note": 65,
      "start": 57.1818,
      "duration": 0.6736,
      "velocity": 94,
      "chip": "ym2612"
    },
    {
      "channel": 0,
      "note": 59,
      "start": 57.1846,
      "duration": 0.1611,
      "velocity": 95,
      "chip": "ym2612"
    },
    {
      "channel": 5,
      "note": 66,
      "start": 57.1925,
      "duration": 0.0777,
      "velocity": 127,
      "chip": "ym2612"
    },
    {
      "channel": 4,
      "note": 53,
      "start": 57.1948,
      "duration": 0.3299,
      "velocity": 102,
      "chip": "ym2612"
    },
    {
      "channel": 3,
      "note": 41,
      "start": 57.1971,
      "duration": 0.1593,
      "velocity": 113,
      "chip": "ym2612"
    },
    {
      "channel": 5,
      "note": 66,
      "start": 57.2708,
      "duration": 0.0828,
      "velocity": 127,
      "chip": "ym2612"
    },
    {
      "channel": 0,
      "note": 71,
      "start": 57.3464,
      "duration": 0.1686,
      "velocity": 95,
      "chip": "ym2612"
    },
    {
      "channel": 5,
      "note": 66,
      "start": 57.3542,
      "duration": 0.0851,
      "velocity": 127,
      "chip": "ym2612"
    },
    {
      "channel": 3,
      "note": 41,
      "start": 57.357,
      "duration": 0.17,
      "velocity": 113,
      "chip": "ym2612"
    },
    {
      "channel": 5,
      "note": 66,
      "start": 57.44,
      "duration": 0.0909,
      "velocity": 127,
      "chip": "ym2612"
    },
    {
      "channel": 0,
      "note": 72,
      "start": 57.5156,
      "duration": 0.1694,
      "velocity": 95,
      "chip": "ym2612"
    },
    {
      "channel": 4,
      "note": 53,
      "start": 57.5253,
      "duration": 0.3431,
      "velocity": 102,
      "chip": "ym2612"
    },
    {
      "channel": 3,
      "note": 41,
      "start": 57.5276,
      "duration": 0.1624,
      "velocity": 113,
      "chip": "ym2612"
    },
    {
      "channel": 5,
      "note": 66,
      "start": 57.5315,
      "duration": 0.0741,
      "velocity": 127,
      "chip": "ym2612"
    },
    {
      "channel": 5,
      "note": 66,
      "start": 57.6063,
      "duration": 0.0877,
      "velocity": 127,
      "chip": "ym2612"
    },
    {
      "channel": 0,
      "note": 60,
      "start": 57.6856,
      "duration": 0.1726,
      "velocity": 95,
      "chip": "ym2612"
    },
    {
      "channel": 3,
      "note": 41,
      "start": 57.6906,
      "duration": 0.18,
      "velocity": 113,
      "chip": "ym2612"
    },
    {
      "channel": 5,
      "note": 66,
      "start": 57.6946,
      "duration": 0.0803,
      "velocity": 127,
      "chip": "ym2612"
    },
    {
      "channel": 5,
      "note": 66,
      "start": 57.7755,
      "duration": 0.0906,
      "velocity": 127,
      "chip": "ym2612"
    },
    {
      "channel": 2,
      "note": 64,
      "start": 57.856,
      "duration": 0.6736,
      "velocity": 94,
      "chip": "ym2612"
    },
    {
      "channel": 0,
      "note": 72,
      "start": 57.8588,
      "duration": 0.1612,
      "velocity": 95,
      "chip": "ym2612"
    },
    {
      "channel": 5,
      "note": 66,
      "start": 57.8667,
      "duration": 0.0715,
      "velocity": 127,
      "chip": "ym2612"
    },
    {
      "channel": 4,
      "note": 52,
      "start": 57.869,
      "duration": 0.33,
      "velocity": 102,
      "chip": "ym2612"
    },
    {
      "channel": 3,
      "note": 40,
      "start": 57.8713,
      "duration": 0.1593,
      "velocity": 113,
      "chip": "ym2612"
    },
    {
      "channel": 5,
      "note": 66,
      "start": 57.9389,
      "duration": 0.0889,
      "velocity": 127,
      "chip": "ym2612"
    },
    {
      "channel": 0,
      "note": 74,
      "start": 58.0205,
      "duration": 0.1686,
      "velocity": 95,
      "chip": "ym2612"
    },
    {
      "channel": 5,
      "note": 66,
      "start": 58.0284,
      "duration": 0.079,
      "velocity": 127,
      "chip": "ym2612"
    },
    {
      "channel": 3,
      "note": 40,
      "start": 58.0312,
      "duration": 0.17,
      "velocity": 113,
      "chip": "ym2612"
    },
    {
      "channel": 5,
      "note": 66,
      "start": 58.1081,
      "duration": 0.0971,
      "velocity": 127,
      "chip": "ym2612"
    },
    {
      "channel": 0,
      "note": 62,
      "start": 58.1898,
      "duration": 0.1694,
      "velocity": 95,
      "chip": "ym2612"
    },
    {
      "channel": 4,
      "note": 52,
      "start": 58.1996,
      "duration": 0.343,
      "velocity": 102,
      "chip": "ym2612"
    },
    {
      "channel": 3,
      "note": 40,
      "start": 58.2018,
      "duration": 0.1624,
      "velocity": 113,
      "chip": "ym2612"
    },
    {
      "channel": 5,
      "note": 66,
      "start": 58.2059,
      "duration": 0.0709,
      "velocity": 127,
      "chip": "ym2612"
    },
    {
      "channel": 5,
      "note": 66,
      "start": 58.2774,
      "duration": 0.0908,
      "velocity": 127,
      "chip": "ym2612"
    },
    {
      "channel": 0,
      "note": 74,
      "start": 58.3598,
      "duration": 0.1726,
      "velocity": 95,
      "chip": "ym2612"
    },
    {
      "channel": 3,
      "note": 40,
      "start": 58.3649,
      "duration": 0.18,
      "velocity": 113,
      "chip": "ym2612"
    },
    {
      "channel": 5,
      "note": 66,
      "start": 58.3688,
      "duration": 0.074,
      "velocity": 127,
      "chip": "ym2612"
    },
    {
      "channel": 5,
      "note": 66,
      "start": 58.4435,
      "duration": 0.0968,
      "velocity": 127,
      "chip": "ym2612"
    },
    {
      "channel": 2,
      "note": 62,
      "start": 58.5303,
      "duration": 0.6739,
      "velocity": 94,
      "chip": "ym2612"
    },
    {
      "channel": 0,
      "note": 77,
      "start": 58.533,
      "duration": 0.1612,
      "velocity": 95,
      "chip": "ym2612"
    },
    {
      "channel": 5,
      "note": 66,
      "start": 58.541,
      "duration": 0.0715,
      "velocity": 127,
      "chip": "ym2612"
    },
    {
      "channel": 4,
      "note": 50,
      "start": 58.5432,
      "duration": 0.3238,
      "velocity": 102,
      "chip": "ym2612"
    },
    {
      "channel": 3,
      "note": 38,
      "start": 58.5455,
      "duration": 0.1593,
      "velocity": 113,
      "chip": "ym2612"
    },
    {
      "channel": 5,
      "note": 66,
      "start": 58.6131,
      "duration": 0.089,
      "velocity": 127,
      "chip": "ym2612"
    },
    {
      "channel": 0,
      "note": 65,
      "start": 58.6948,
      "duration": 0.1625,
      "velocity": 95,
      "chip": "ym2612"
    },
    {
      "channel": 5,
      "note": 66,
      "start": 58.7027,
      "duration": 0.079,
      "velocity": 127,
      "chip": "ym2612"
    },
    {
      "channel": 3,
      "note": 38,
      "start": 58.7055,
      "duration": 0.1638,
      "velocity": 113,
      "chip": "ym2612"
    },
    {
      "channel": 5,
      "note": 66,
      "start": 58.7824,
      "duration": 0.0909,
      "velocity": 127,
      "chip": "ym2612"
    },
    {
      "channel": 0,
      "note": 77,
      "start": 58.8579,
      "duration": 0.1688,
      "velocity": 95,
      "chip": "ym2612"
    },
    {
      "channel": 4,
      "note": 50,
      "start": 58.8677,
      "duration": 0.3564,
      "velocity": 102,
      "chip": "ym2612"
    },
    {
      "channel": 3,
      "note": 38,
      "start": 58.87,
      "duration": 0.1673,
      "velocity": 113,
      "chip": "ym2612"
    },
    {
      "channel": 5,
      "note": 66,
      "start": 58.8739,
      "duration": 0.0772,
      "velocity": 127,
      "chip": "ym2612"
    },
    {
      "channel": 5,
      "note": 66,
      "start": 58.9517,
      "duration": 0.0828,
      "velocity": 127,
      "chip": "ym2612"
    },
    {
      "channel": 0,
      "note": 65,
      "start": 59.0272,
      "duration": 0.1701,
      "velocity": 95,
      "chip": "ym2612"
    },
    {
      "channel": 5,
      "note": 66,
      "start": 59.0351,
      "duration": 0.0821,
      "velocity": 127,
      "chip": "ym2612"
    },
    {
      "channel": 3,
      "note": 38,
      "start": 59.0379,
      "duration": 0.1885,
      "velocity": 113,
      "chip": "ym2612"
    },
    {
      "channel": 5,
      "note": 66,
      "start": 59.1179,
      "duration": 0.0948,
      "velocity": 127,
      "chip": "ym2612"
    },
    {
      "channel": 0,
      "note": 76,
      "start": 59.198,
      "duration": 0.1653,
      "velocity": 95,
      "chip": "ym2612"
    },
    {
      "channel": 2,
      "note": 57,
      "start": 59.2048,
      "duration": 0.6638,
      "velocity": 94,
      "chip": "ym2612"
    },
    {
      "channel": 5,
      "note": 66,
      "start": 59.2133,
      "duration": 0.0744,
      "velocity": 127,
      "chip": "ym2612"
    },
    {
      "channel": 4,
      "note": 45,
      "start": 59.2247,
      "duration": 0.3168,
      "velocity": 102,
      "chip": "ym2612"
    },
    {
      "channel": 3,
      "note": 33,
      "start": 59.227,
      "duration": 0.1413,
      "velocity": 113,
      "chip": "ym2612"
    },
    {
      "channel": 5,
      "note": 66,
      "start": 59.2883,
      "duration": 0.0839,
      "velocity": 127,
      "chip": "ym2612"
    },
    {
      "channel": 0,
      "note": 64,
      "start": 59.3639,
      "duration": 0.1678,
      "velocity": 95,
      "chip": "ym2612"
    },
    {
      "channel": 3,
      "note": 33,
      "start": 59.3689,
      "duration": 0.1749,
      "velocity": 113,
      "chip": "ym2612"
    },
    {
      "channel": 5,
      "note": 66,
      "start": 59.3728,
      "duration": 0.0833,
      "velocity": 127,
      "chip": "ym2612"
    },
    {
      "channel": 5,
      "note": 66,
      "start": 59.4568,
      "duration": 0.091,
      "velocity": 127,
      "chip": "ym2612"
    },
    {
      "channel": 0,
      "note": 76,
      "start": 59.5324,
      "duration": 0.1688,
      "velocity": 95,
      "chip": "ym2612"
    },
    {
      "channel": 4,
      "note": 45,
      "start": 59.5422,
      "duration": 0.339,
      "velocity": 102,
      "chip": "ym2612"
    },
    {
      "channel": 3,
      "note": 33,
      "start": 59.5444,
      "duration": 0.1618,
      "velocity": 113,
      "chip": "ym2612"
    },
    {
      "channel": 5,
      "note": 66,
      "start": 59.5484,
      "duration": 0.0772,
      "velocity": 127,
      "chip": "ym2612"
    },
    {
      "channel": 5,
      "note": 66,
      "start": 59.6262,
      "duration": 0.0839,
      "velocity": 127,
      "chip": "ym2612"
    },
    {
      "channel": 0,
      "note": 74,
      "start": 59.7018,
      "duration": 0.1696,
      "velocity": 95,
      "chip": "ym2612"
    },
    {
      "channel": 3,
      "note": 33,
      "start": 59.7067,
      "duration": 0.1767,
      "velocity": 113,
      "chip": "ym2612"
    },
    {
      "channel": 5,
      "note": 66,
      "start": 59.7107,
      "duration": 0.0771,
      "velocity": 127,
      "chip": "ym2612"
    },
    {
      "channel": 5,
      "note": 66,
      "start": 59.7885,
      "duration": 0.0988,
      "velocity": 127,
      "chip": "ym2612"
    },
    {
      "channel": 2,
      "note": 59,
      "start": 59.8693,
      "duration": 2.0219,
      "velocity": 94,
      "chip": "ym2612"
    },
    {
      "channel": 0,
      "note": 62,
      "start": 59.872,
      "duration": 0.1656,
      "velocity": 95,
      "chip": "ym2612"
    },
    {
      "channel": 4,
      "note": 45,
      "start": 59.8818,
      "duration": 0.3342,
      "velocity": 102,
      "chip": "ym2612"
    },
    {
      "channel": 3,
      "note": 33,
      "start": 59.8841,
      "duration": 0.1586,
      "velocity": 113,
      "chip": "ym2612"
    },
    {
      "channel": 5,
      "note": 66,
      "start": 59.888,
      "duration": 0.0679,
      "velocity": 127,
      "chip": "ym2612"
    },
    {
      "channel": 5,
      "note": 66,
      "start": 59.9565,
      "duration": 0.0901,
      "velocity": 127,
      "chip": "ym2612"
    },
    {
      "channel": 0,
      "note": 74,
      "start": 60.0383,
      "duration": 0.1679,
      "velocity": 95,
      "chip": "ym2612"
    },
    {
      "channel": 3,
      "note": 33,
      "start": 60.0432,
      "duration": 0.1749,
      "velocity": 113,
      "chip": "ym2612"
    },
    {
      "channel": 5,
      "note": 66,
      "start": 60.0473,
      "duration": 0.0772,
      "velocity": 127,
      "chip": "ym2612"
    },
    {
      "channel": 5,
      "note": 66,
      "start": 60.1251,
      "duration": 0.0971,
      "velocity": 127,
      "chip": "ym2612"
    },
    {
      "channel": 0,
      "note": 76,
      "start": 60.2068,
      "duration": 0.1705,
      "velocity": 95,
      "chip": "ym2612"
    },
    {
      "channel": 4,
      "note": 45,
      "start": 60.2166,
      "duration": 0.339,
      "velocity": 102,
      "chip": "ym2612"
    },
    {
      "channel": 3,
      "note": 33,
      "start": 60.2188,
      "duration": 0.1554,
      "velocity": 113,
      "chip": "ym2612"
    },
    {
      "channel": 5,
      "note": 66,
      "start": 60.2228,
      "duration": 0.0709,
      "velocity": 127,
      "chip": "ym2612"
    },
    {
      "channel": 5,
      "note": 66,
      "start": 60.2944,
      "duration": 0.0901,
      "velocity": 127,
      "chip": "ym2612"
    },
    {
      "channel": 3,
      "note": 33,
      "start": 60.3747,
      "duration": 0.1758,
      "velocity": 113,
      "chip": "ym2612"
    },
    {
      "channel": 0,
      "note": 64,
      "start": 60.378,
      "duration": 0.1668,
      "velocity": 95,
      "chip": "ym2612"
    },
    {
      "channel": 5,
      "note": 66,
      "start": 60.3852,
      "duration": 0.0772,
      "velocity": 127,
      "chip": "ym2612"
    },
    {
      "channel": 5,
      "note": 66,
      "start": 60.463,
      "duration": 0.0971,
      "velocity": 127,
      "chip": "ym2612"
    },
    {
      "channel": 0,
      "note": 76,
      "start": 60.5454,
      "duration": 0.1618,
      "velocity": 95,
      "chip": "ym2612"
    },
    {
      "channel": 3,
      "note": 33,
      "start": 60.5511,
      "duration": 0.161,
      "velocity": 113,
      "chip": "ym2612"
    },
    {
      "channel": 4,
      "note": 45,
      "start": 60.5562,
      "duration": 0.3292,
      "velocity": 102,
      "chip": "ym2612"
    },
    {
      "channel": 5,
      "note": 66,
      "start": 60.5607,
      "duration": 0.0709,
      "velocity": 127,
      "chip": "ym2612"
    },
    {
      "channel": 5,
      "note": 66,
      "start": 60.6322,
      "duration": 0.0839,
      "velocity": 127,
      "chip": "ym2612"
    },
    {
      "channel": 0,
      "note": 74,
      "start": 60.7078,
      "duration": 0.1679,
      "velocity": 95,
      "chip": "ym2612"
    },
    {
      "channel": 3,
      "note": 33,
      "start": 60.7128,
      "duration": 0.1749,
      "velocity": 113,
      "chip": "ym2612"
    },
    {
      "channel": 5,
      "note": 66,
      "start": 60.7168,
      "duration": 0.0833,
      "velocity": 127,
      "chip": "ym2612"
    },
    {
      "channel": 5,
      "note": 66,
      "start": 60.8007,
      "duration": 0.0909,
      "velocity": 127,
      "chip": "ym2612"
    },
    {
      "channel": 0,
      "note": 62,
      "start": 60.8763,
      "duration": 0.1705,
      "velocity": 95,
      "chip": "ym2612"
    },
    {
      "channel": 4,
      "note": 45,
      "start": 60.8861,
      "duration": 0.3389,
      "velocity": 102,
      "chip": "ym2612"
    },
    {
      "channel": 3,
      "note": 33,
      "start": 60.8883,
      "duration": 0.1552,
      "velocity": 113,
      "chip": "ym2612"
    },
    {
      "channel": 5,
      "note": 66,
      "start": 60.8923,
      "duration": 0.0741,
      "velocity": 127,
      "chip": "ym2612"
    },
    {
      "channel": 5,
      "note": 66,
      "start": 60.967,
      "duration": 0.0869,
      "velocity": 127,
      "chip": "ym2612"
    },
    {
      "channel": 3,
      "note": 33,
      "start": 61.0442,
      "duration": 0.1757,
      "velocity": 113,
      "chip": "ym2612"
    },
    {
      "channel": 0,
      "note": 74,
      "start": 61.0474,
      "duration": 0.1668,
      "velocity": 95,
      "chip": "ym2612"
    },
    {
      "channel": 5,
      "note": 66,
      "start": 61.0546,
      "duration": 0.0803,
      "velocity": 127,
      "chip": "ym2612"
    },
    {
      "channel": 5,
      "note": 66,
      "start": 61.1355,
      "duration": 0.0939,
      "velocity": 127,
      "chip": "ym2612"
    },
    {
      "channel": 0,
      "note": 72,
      "start": 61.2148,
      "duration": 0.1712,
      "velocity": 95,
      "chip": "ym2612"
    },
    {
      "channel": 3,
      "note": 33,
      "start": 61.2205,
      "duration": 0.1623,
      "velocity": 113,
      "chip": "ym2612"
    },
    {
      "channel": 4,
      "note": 45,
      "start": 61.2256,
      "duration": 0.3315,
      "velocity": 102,
      "chip": "ym2612"
    },
    {
      "channel": 5,
      "note": 66,
      "start": 61.2301,
      "duration": 0.0741,
      "velocity": 127,
      "chip": "ym2612"
    },
    {
      "channel": 5,
      "note": 66,
      "start": 61.3048,
      "duration": 0.0838,
      "velocity": 127,
      "chip": "ym2612"
    },
    {
      "channel": 3,
      "note": 33,
      "start": 61.3834,
      "duration": 0.1761,
      "velocity": 113,
      "chip": "ym2612"
    },
    {
      "channel": 0,
      "note": 60,
      "start": 61.3867,
      "duration": 0.166,
      "velocity": 95,
      "chip": "ym2612"
    },
    {
      "channel": 5,
      "note": 66,
      "start": 61.3892,
      "duration": 0.0834,
      "velocity": 127,
      "chip": "ym2612"
    },
    {
      "channel": 5,
      "note": 66,
      "start": 61.4732,
      "duration": 0.094,
      "velocity": 127,
      "chip": "ym2612"
    },
    {
      "channel": 0,
      "note": 67,
      "start": 61.5533,
      "duration": 0.1705,
      "velocity": 95,
      "chip": "ym2612"
    },
    {
      "channel": 4,
      "note": 45,
      "start": 61.5578,
      "duration": 0.3403,
      "velocity": 102,
      "chip": "ym2612"
    },
    {
      "channel": 3,
      "note": 33,
      "start": 61.5602,
      "duration": 0.1604,
      "velocity": 113,
      "chip": "ym2612"
    },
    {
      "channel": 5,
      "note": 66,
      "start": 61.5678,
      "duration": 0.0679,
      "velocity": 127,
      "chip": "ym2612"
    },
    {
      "channel": 5,
      "note": 66,
      "start": 61.6363,
      "duration": 0.0901,
      "velocity": 127,
      "chip": "ym2612"
    },
    {
      "channel": 3,
      "note": 33,
      "start": 61.7212,
      "duration": 0.1792,
      "velocity": 113,
      "chip": "ym2612"
    },
    {
      "channel": 0,
      "note": 55,
      "start": 61.7245,
      "duration": 0.1789,
      "velocity": 95,
      "chip": "ym2612"
    },
    {
      "channel": 5,
      "note": 66,
      "start": 61.727,
      "duration": 0.0772,
      "velocity": 127,
      "chip": "ym2612"
    },
    {
      "channel": 5,
      "note": 66,
      "start": 61.8048,
      "duration": 0.1013,
      "velocity": 127,
      "chip": "ym2612"
    },
    {
      "channel": 2,
      "note": 60,
      "start": 61.8917,
      "duration": 1.0057,
      "velocity": 94,
      "chip": "ym2612"
    },
    {
      "channel": 1,
      "note": 57,
      "start": 61.8939,
      "duration": 5.3808,
      "velocity": 94,
      "chip": "ym2612"
    },
    {
      "channel": 4,
      "note": 45,
      "start": 61.8988,
      "duration": 0.3353,
      "velocity": 102,
      "chip": "ym2612"
    },
    {
      "channel": 3,
      "note": 33,
      "start": 61.9011,
      "duration": 0.1598,
      "velocity": 113,
      "chip": "ym2612"
    },
    {
      "channel": 5,
      "note": 66,
      "start": 61.9068,
      "duration": 0.0703,
      "velocity": 127,
      "chip": "ym2612"
    },
    {
      "channel": 0,
      "note": 69,
      "start": 61.9192,
      "duration": 0.0508,
      "velocity": 94,
      "chip": "ym2612"
    },
    {
      "channel": 0,
      "note": 69,
      "start": 61.9707,
      "duration": 0.0852,
      "velocity": 94,
      "chip": "ym2612"
    },
    {
      "channel": 5,
      "note": 66,
      "start": 61.9778,
      "duration": 0.087,
      "velocity": 127,
      "chip": "ym2612"
    },
    {
      "channel": 0,
      "note": 57,
      "start": 62.0565,
      "duration": 0.1678,
      "velocity": 94,
      "chip": "ym2612"
    },
    {
      "channel": 3,
      "note": 33,
      "start": 62.0614,
      "duration": 0.1749,
      "velocity": 113,
      "chip": "ym2612"
    },
    {
      "channel": 5,
      "note": 66,
      "start": 62.0654,
      "duration": 0.0772,
      "velocity": 127,
      "chip": "ym2612"
    },
    {
      "channel": 5,
      "note": 66,
      "start": 62.1432,
      "duration": 0.0971,
      "velocity": 127,
      "chip": "ym2612"
    },
    {
      "channel": 0,
      "note": 69,
      "start": 62.2249,
      "duration": 0.1705,
      "velocity": 94,
      "chip": "ym2612"
    },
    {
      "channel": 4,
      "note": 45,
      "start": 62.2347,
      "duration": 0.3296,
      "velocity": 102,
      "chip": "ym2612"
    },
    {
      "channel": 3,
      "note": 33,
      "start": 62.2369,
      "duration": 0.1553,
      "velocity": 113,
      "chip": "ym2612"
    },
    {
      "channel": 5,
      "note": 66,
      "start": 62.241,
      "duration": 0.0709,
      "velocity": 127,
      "chip": "ym2612"
    },
    {
      "channel": 5,
      "note": 66,
      "start": 62.3125,
      "duration": 0.0901,
      "velocity": 127,
      "chip": "ym2612"
    },
    {
      "channel": 3,
      "note": 33,
      "start": 62.3929,
      "duration": 0.1737,
      "velocity": 113,
      "chip": "ym2612"
    },
    {
      "channel": 0,
      "note": 59,
      "start": 62.3961,
      "duration": 0.0789,
      "velocity": 94,
      "chip": "ym2612"
    },
    {
      "channel": 5,
      "note": 66,
      "start": 62.4032,
      "duration": 0.0789,
      "velocity": 127,
      "chip": "ym2612"
    },
    {
      "channel": 0,
      "note": 59,
      "start": 62.4756,
      "duration": 0.0851,
      "velocity": 94,
      "chip": "ym2612"
    },
    {
      "channel": 5,
      "note": 66,
      "start": 62.4827,
      "duration": 0.0878,
      "velocity": 127,
      "chip": "ym2612"
    },
    {
      "channel": 0,
      "note": 71,
      "start": 62.5613,
      "duration": 0.1626,
      "velocity": 94,
      "chip": "ym2612"
    },
    {
      "channel": 4,
      "note": 45,
      "start": 62.5649,
      "duration": 0.3389,
      "velocity": 102,
      "chip": "ym2612"
    },
    {
      "channel": 3,
      "note": 33,
      "start": 62.5672,
      "duration": 0.1616,
      "velocity": 113,
      "chip": "ym2612"
    },
    {
      "channel": 5,
      "note": 66,
      "start": 62.5712,
      "duration": 0.0771,
      "velocity": 127,
      "chip": "ym2612"
    },
    {
      "channel": 5,
      "note": 66,
      "start": 62.649,
      "duration": 0.0838,
      "velocity": 127,
      "chip": "ym2612"
    },
    {
      "channel": 0,
      "note": 59,
      "start": 62.7245,
      "duration": 0.1757,
      "velocity": 94,
      "chip": "ym2612"
    },
    {
      "channel": 3,
      "note": 33,
      "start": 62.7295,
      "duration": 0.1766,
      "velocity": 113,
      "chip": "ym2612"
    },
    {
      "channel": 5,
      "note": 66,
      "start": 62.7334,
      "duration": 0.0833,
      "velocity": 127,
      "chip": "ym2612"
    },
    {
      "channel": 5,
      "note": 66,
      "start": 62.8174,
      "duration": 0.0927,
      "velocity": 127,
      "chip": "ym2612"
    },
    {
      "channel": 2,
      "note": 62,
      "start": 62.8981,
      "duration": 1.6821,
      "velocity": 94,
      "chip": "ym2612"
    },
    {
      "channel": 0,
      "note": 72,
      "start": 62.9008,
      "duration": 0.0787,
      "velocity": 94,
      "chip": "ym2612"
    },
    {
      "channel": 4,
      "note": 45,
      "start": 62.9045,
      "duration": 0.336,
      "velocity": 102,
      "chip": "ym2612"
    },
    {
      "channel": 3,
      "note": 33,
      "start": 62.9067,
      "duration": 0.1605,
      "velocity": 113,
      "chip": "ym2612"
    },
    {
      "channel": 5,
      "note": 66,
      "start": 62.9107,
      "duration": 0.0759,
      "velocity": 127,
      "chip": "ym2612"
    },
    {
      "channel": 0,
      "note": 72,
      "start": 62.9801,
      "duration": 0.0821,
      "velocity": 94,
      "chip": "ym2612"
    },
    {
      "channel": 5,
      "note": 66,
      "start": 62.9873,
      "duration": 0.0839,
      "velocity": 127,
      "chip": "ym2612"
    },
    {
      "channel": 0,
      "note": 60,
      "start": 63.0628,
      "duration": 0.1679,
      "velocity": 94,
      "chip": "ym2612"
    },
    {
      "channel": 3,
      "note": 33,
      "start": 63.0678,
      "duration": 0.1749,
      "velocity": 113,
      "chip": "ym2612"
    },
    {
      "channel": 5,
      "note": 66,
      "start": 63.0718,
      "duration": 0.0833,
      "velocity": 127,
      "chip": "ym2612"
    },
    {
      "channel": 5,
      "note": 66,
      "start": 63.1558,
      "duration": 0.091,
      "velocity": 127,
      "chip": "ym2612"
    },
    {
      "channel": 0,
      "note": 72,
      "start": 63.2314,
      "duration": 0.1705,
      "velocity": 94,
      "chip": "ym2612"
    },
    {
      "channel": 4,
      "note": 45,
      "start": 63.2412,
      "duration": 0.3358,
      "velocity": 102,
      "chip": "ym2612"
    },
    {
      "channel": 3,
      "note": 33,
      "start": 63.2434,
      "duration": 0.1553,
      "velocity": 113,
      "chip": "ym2612"
    },
    {
      "channel": 5,
      "note": 66,
      "start": 63.2474,
      "duration": 0.0741,
      "velocity": 127,
      "chip": "ym2612"
    },
    {
      "channel": 5,
      "note": 66,
      "start": 63.3221,
      "duration": 0.087,
      "velocity": 127,
      "chip": "ym2612"
    },
    {
      "channel": 3,
      "note": 33,
      "start": 63.3993,
      "duration": 0.18,
      "velocity": 113,
      "chip": "ym2612"
    },
    {
      "channel": 0,
      "note": 62,
      "start": 63.4025,
      "duration": 0.0789,
      "velocity": 94,
      "chip": "ym2612"
    },
    {
      "channel": 5,
      "note": 66,
      "start": 63.4097,
      "duration": 0.0789,
      "velocity": 127,
      "chip": "ym2612"
    },
    {
      "channel": 0,
      "note": 62,
      "start": 63.482,
      "duration": 0.0852,
      "velocity": 94,
      "chip": "ym2612"
    },
    {
      "channel": 5,
      "note": 66,
      "start": 63.4892,
      "duration": 0.094,
      "velocity": 127,
      "chip": "ym2612"
    },
    {
      "channel": 0,
      "note": 74,
      "start": 63.5678,
      "duration": 0.1705,
      "velocity": 94,
      "chip": "ym2612"
    },
    {
      "channel": 4,
      "note": 45,
      "start": 63.5776,
      "duration": 0.339,
      "velocity": 102,
      "chip": "ym2612"
    },
    {
      "channel": 3,
      "note": 33,
      "start": 63.5799,
      "duration": 0.1553,
      "velocity": 113,
      "chip": "ym2612"
    },
    {
      "channel": 5,
      "note": 66,
      "start": 63.5838,
      "duration": 0.0709,
      "velocity": 127,
      "chip": "ym2612"
    },
    {
      "channel": 5,
      "note": 66,
      "start": 63.6554,
      "duration": 0.0901,
      "velocity": 127,
      "chip": "ym2612"
    },
    {
      "channel": 3,
      "note": 33,
      "start": 63.7357,
      "duration": 0.1758,
      "velocity": 113,
      "chip": "ym2612"
    },
    {
      "channel": 0,
      "note": 62,
      "start": 63.739,
      "duration": 0.1669,
      "velocity": 94,
      "chip": "ym2612"
    },
    {
      "channel": 5,
      "note": 66,
      "start": 63.7462,
      "duration": 0.0772,
      "velocity": 127,
      "chip": "ym2612"
    },
    {
      "channel": 5,
      "note": 66,
      "start": 63.824,
      "duration": 0.0971,
      "velocity": 127,
      "chip": "ym2612"
    },
    {
      "channel": 0,
      "note": 77,
      "start": 63.9065,
      "duration": 0.0808,
      "velocity": 94,
      "chip": "ym2612"
    },
    {
      "channel": 3,
      "note": 33,
      "start": 63.9122,
      "duration": 0.1659,
      "velocity": 113,
      "chip": "ym2612"
    },
    {
      "channel": 4,
      "note": 45,
      "start": 63.9173,
      "duration": 0.3341,
      "velocity": 102,
      "chip": "ym2612"
    },
    {
      "channel": 5,
      "note": 66,
      "start": 63.9217,
      "duration": 0.0727,
      "velocity": 127,
      "chip": "ym2612"
    },
    {
      "channel": 0,
      "note": 77,
      "start": 63.988,
      "duration": 0.0851,
      "velocity": 94,
      "chip": "ym2612"
    },
    {
      "channel": 5,
      "note": 66,
      "start": 63.9951,
      "duration": 0.087,
      "velocity": 127,
      "chip": "ym2612"
    },
    {
      "channel": 0,
      "note": 65,
      "start": 64.0737,
      "duration": 0.1679,
      "velocity": 94,
      "chip": "ym2612"
    },
    {
      "channel": 3,
      "note": 33,
      "start": 64.0787,
      "duration": 0.1749,
      "velocity": 113,
      "chip": "ym2612"
    },
    {
      "channel": 5,
      "note": 66,
      "start": 64.0827,
      "duration": 0.0772,
      "velocity": 127,
      "chip": "ym2612"
    },
    {
      "channel": 5,
      "note": 66,
      "start": 64.1605,
      "duration": 0.0971,
      "velocity": 127,
      "chip": "ym2612"
    },
    {
      "channel": 0,
      "note": 77,
      "start": 64.2422,
      "duration": 0.1625,
      "velocity": 94,
      "chip": "ym2612"
    },
    {
      "channel": 4,
      "note": 45,
      "start": 64.252,
      "duration": 0.3328,
      "velocity": 102,
      "chip": "ym2612"
    },
    {
      "channel": 3,
      "note": 33,
      "start": 64.2543,
      "duration": 0.1554,
      "velocity": 113,
      "chip": "ym2612"
    },
    {
      "channel": 5,
      "note": 66,
      "start": 64.2583,
      "duration": 0.0709,
      "velocity": 127,
      "chip": "ym2612"
    },
    {
      "channel": 5,
      "note": 66,
      "start": 64.3298,
      "duration": 0.0839,
      "velocity": 127,
      "chip": "ym2612"
    },
    {
      "channel": 0,
      "note": 65,
      "start": 64.4054,
      "duration": 0.1679,
      "velocity": 94,
      "chip": "ym2612"
    },
    {
      "channel": 3,
      "note": 33,
      "start": 64.4104,
      "duration": 0.1767,
      "velocity": 113,
      "chip": "ym2612"
    },
    {
      "channel": 5,
      "note": 66,
      "start": 64.4143,
      "duration": 0.0834,
      "velocity": 127,
      "chip": "ym2612"
    },
    {
      "channel": 5,
      "note": 66,
      "start": 64.4983,
      "duration": 0.0927,
      "velocity": 127,
      "chip": "ym2612"
    },
    {
      "channel": 0,
      "note": 76,
      "start": 64.5739,
      "duration": 0.0866,
      "velocity": 94,
      "chip": "ym2612"
    },
    {
      "channel": 2,
      "note": 64,
      "start": 64.5808,
      "duration": 0.6663,
      "velocity": 94,
      "chip": "ym2612"
    },
    {
      "channel": 4,
      "note": 45,
      "start": 64.5855,
      "duration": 0.3377,
      "velocity": 102,
      "chip": "ym2612"
    },
    {
      "channel": 3,
      "note": 33,
      "start": 64.5877,
      "duration": 0.154,
      "velocity": 113,
      "chip": "ym2612"
    },
    {
      "channel": 5,
      "note": 66,
      "start": 64.5917,
      "duration": 0.0759,
      "velocity": 127,
      "chip": "ym2612"
    },
    {
      "channel": 0,
      "note": 76,
      "start": 64.6611,
      "duration": 0.0838,
      "velocity": 94,
      "chip": "ym2612"
    },
    {
      "channel": 5,
      "note": 66,
      "start": 64.6683,
      "duration": 0.0838,
      "velocity": 127,
      "chip": "ym2612"
    },
    {
      "channel": 3,
      "note": 33,
      "start": 64.7424,
      "duration": 0.1757,
      "velocity": 113,
      "chip": "ym2612"
    },
    {
      "channel": 0,
      "note": 64,
      "start": 64.7455,
      "duration": 0.1668,
      "velocity": 94,
      "chip": "ym2612"
    },
    {
      "channel": 5,
      "note": 66,
      "start": 64.7527,
      "duration": 0.0803,
      "velocity": 127,
      "chip": "ym2612"
    },
    {
      "channel": 5,
      "note": 66,
      "start": 64.8336,
      "duration": 0.094,
      "velocity": 127,
      "chip": "ym2612"
    },
    {
      "channel": 0,
      "note": 76,
      "start": 64.913,
      "duration": 0.1712,
      "velocity": 94,
      "chip": "ym2612"
    },
    {
      "channel": 3,
      "note": 33,
      "start": 64.9187,
      "duration": 0.1623,
      "velocity": 113,
      "chip": "ym2612"
    },
    {
      "channel": 4,
      "note": 45,
      "start": 64.9238,
      "duration": 0.3359,
      "velocity": 102,
      "chip": "ym2612"
    },
    {
      "channel": 5,
      "note": 66,
      "start": 64.9282,
      "duration": 0.074,
      "velocity": 127,
      "chip": "ym2612"
    },
    {
      "channel": 5,
      "note": 66,
      "start": 65.0029,
      "duration": 0.0838,
      "velocity": 127,
      "chip": "ym2612"
    },
    {
      "channel": 3,
      "note": 33,
      "start": 65.0816,
      "duration": 0.1803,
      "velocity": 113,
      "chip": "ym2612"
    },
    {
      "channel": 0,
      "note": 62,
      "start": 65.0849,
      "duration": 0.0805,
      "velocity": 94,
      "chip": "ym2612"
    },
    {
      "channel": 5,
      "note": 66,
      "start": 65.0874,
      "duration": 0.0851,
      "velocity": 127,
      "chip": "ym2612"
    },
    {
      "channel": 0,
      "note": 62,
      "start": 65.166,
      "duration": 0.0839,
      "velocity": 94,
      "chip": "ym2612"
    },
    {
      "channel": 5,
      "note": 66,
      "start": 65.1732,
      "duration": 0.0927,
      "velocity": 127,
      "chip": "ym2612"
    },
    {
      "channel": 2,
      "note": 65,
      "start": 65.2478,
      "duration": 0.6803,
      "velocity": 94,
      "chip": "ym2612"
    },
    {
      "channel": 0,
      "note": 74,
      "start": 65.2505,
      "duration": 0.1656,
      "velocity": 94,
      "chip": "ym2612"
    },
    {
      "channel": 4,
      "note": 45,
      "start": 65.2603,
      "duration": 0.3341,
      "velocity": 102,
      "chip": "ym2612"
    },
    {
      "channel": 3,
      "note": 33,
      "start": 65.2626,
      "duration": 0.1586,
      "velocity": 113,
      "chip": "ym2612"
    },
    {
      "channel": 5,
      "note": 66,
      "start": 65.2665,
      "duration": 0.0679,
      "velocity": 127,
      "chip": "ym2612"
    },
    {
      "channel": 5,
      "note": 66,
      "start": 65.335,
      "duration": 0.09,
      "velocity": 127,
      "chip": "ym2612"
    },
    {
      "channel": 0,
      "note": 62,
      "start": 65.4168,
      "duration": 0.1679,
      "velocity": 94,
      "chip": "ym2612"
    },
    {
      "channel": 3,
      "note": 33,
      "start": 65.4217,
      "duration": 0.1749,
      "velocity": 113,
      "chip": "ym2612"
    },
    {
      "channel": 5,
      "note": 66,
      "start": 65.4257,
      "duration": 0.0772,
      "velocity": 127,
      "chip": "ym2612"
    },
    {
      "channel": 5,
      "note": 66,
      "start": 65.5036,
      "duration": 0.0971,
      "velocity": 127,
      "chip": "ym2612"
    },
    {
      "channel": 0,
      "note": 76,
      "start": 65.5853,
      "duration": 0.0816,
      "velocity": 94,
      "chip": "ym2612"
    },
    {
      "channel": 4,
      "note": 45,
      "start": 65.5951,
      "duration": 0.3377,
      "velocity": 102,
      "chip": "ym2612"
    },
    {
      "channel": 3,
      "note": 33,
      "start": 65.5973,
      "duration": 0.1604,
      "velocity": 113,
      "chip": "ym2612"
    },
    {
      "channel": 5,
      "note": 66,
      "start": 65.6013,
      "duration": 0.0727,
      "velocity": 127,
      "chip": "ym2612"
    },
    {
      "channel": 0,
      "note": 76,
      "start": 65.6676,
      "duration": 0.0852,
      "velocity": 94,
      "chip": "ym2612"
    },
    {
      "channel": 5,
      "note": 66,
      "start": 65.6747,
      "duration": 0.087,
      "velocity": 127,
      "chip": "ym2612"
    },
    {
      "channel": 0,
      "note": 64,
      "start": 65.7533,
      "duration": 0.1679,
      "velocity": 94,
      "chip": "ym2612"
    },
    {
      "channel": 3,
      "note": 33,
      "start": 65.7583,
      "duration": 0.1766,
      "velocity": 113,
      "chip": "ym2612"
    },
    {
      "channel": 5,
      "note": 66,
      "start": 65.7623,
      "duration": 0.0772,
      "velocity": 127,
      "chip": "ym2612"
    },
    {
      "channel": 5,
      "note": 66,
      "start": 65.8401,
      "duration": 0.0988,
      "velocity": 127,
      "chip": "ym2612"
    },
    {
      "channel": 0,
      "note": 76,
      "start": 65.9218,
      "duration": 0.1739,
      "velocity": 94,
      "chip": "ym2612"
    },
    {
      "channel": 2,
      "note": 64,
      "start": 65.9287,
      "duration": 0.6693,
      "velocity": 94,
      "chip": "ym2612"
    },
    {
      "channel": 4,
      "note": 45,
      "start": 65.9334,
      "duration": 0.3297,
      "velocity": 102,
      "chip": "ym2612"
    },
    {
      "channel": 3,
      "note": 33,
      "start": 65.9356,
      "duration": 0.1568,
      "velocity": 113,
      "chip": "ym2612"
    },
    {
      "channel": 5,
      "note": 66,
      "start": 65.9396,
      "duration": 0.0709,
      "velocity": 127,
      "chip": "ym2612"
    },
    {
      "channel": 5,
      "note": 66,
      "start": 66.0112,
      "duration": 0.087,
      "velocity": 127,
      "chip": "ym2612"
    },
    {
      "channel": 3,
      "note": 33,
      "start": 66.0931,
      "duration": 0.1723,
      "velocity": 113,
      "chip": "ym2612"
    },
    {
      "channel": 0,
      "note": 62,
      "start": 66.0963,
      "duration": 0.0774,
      "velocity": 94,
      "chip": "ym2612"
    },
    {
      "channel": 5,
      "note": 66,
      "start": 66.0988,
      "duration": 0.0821,
      "velocity": 127,
      "chip": "ym2612"
    },
    {
      "channel": 0,
      "note": 62,
      "start": 66.1744,
      "duration": 0.0851,
      "velocity": 94,
      "chip": "ym2612"
    },
    {
      "channel": 5,
      "note": 66,
      "start": 66.1815,
      "duration": 0.0878,
      "velocity": 127,
      "chip": "ym2612"
    },
    {
      "channel": 0,
      "note": 74,
      "start": 66.26,
      "duration": 0.1626,
      "velocity": 94,
      "chip": "ym2612"
    },
    {
      "channel": 4,
      "note": 45,
      "start": 66.2637,
      "duration": 0.3389,
      "velocity": 102,
      "chip": "ym2612"
    },
    {
      "channel": 3,
      "note": 33,
      "start": 66.266,
      "duration": 0.1616,
      "velocity": 113,
      "chip": "ym2612"
    },
    {
      "channel": 5,
      "note": 66,
      "start": 66.27,
      "duration": 0.0771,
      "velocity": 127,
      "chip": "ym2612"
    },
    {
      "channel": 5,
      "note": 66,
      "start": 66.3477,
      "duration": 0.0839,
      "velocity": 127,
      "chip": "ym2612"
    },
    {
      "channel": 0,
      "note": 62,
      "start": 66.4232,
      "duration": 0.1679,
      "velocity": 94,
      "chip": "ym2612"
    },
    {
      "channel": 3,
      "note": 33,
      "start": 66.4282,
      "duration": 0.1766,
      "velocity": 113,
      "chip": "ym2612"
    },
    {
      "channel": 5,
      "note": 66,
      "start": 66.4322,
      "duration": 0.0833,
      "velocity": 127,
      "chip": "ym2612"
    },
    {
      "channel": 5,
      "note": 66,
      "start": 66.5161,
      "duration": 0.0927,
      "velocity": 127,
      "chip": "ym2612"
    },
    {
      "channel": 0,
      "note": 72,
      "start": 66.5917,
      "duration": 0.0864,
      "velocity": 94,
      "chip": "ym2612"
    },
    {
      "channel": 2,
      "note": 62,
      "start": 66.5987,
      "duration": 0.6663,
      "velocity": 94,
      "chip": "ym2612"
    },
    {
      "channel": 4,
      "note": 45,
      "start": 66.6032,
      "duration": 0.3376,
      "velocity": 102,
      "chip": "ym2612"
    },
    {
      "channel": 3,
      "note": 33,
      "start": 66.6055,
      "duration": 0.1539,
      "velocity": 113,
      "chip": "ym2612"
    },
    {
      "channel": 5,
      "note": 66,
      "start": 66.6095,
      "duration": 0.0758,
      "velocity": 127,
      "chip": "ym2612"
    },
    {
      "channel": 0,
      "note": 72,
      "start": 66.6788,
      "duration": 0.0839,
      "velocity": 94,
      "chip": "ym2612"
    },
    {
      "channel": 5,
      "note": 66,
      "start": 66.6859,
      "duration": 0.0839,
      "velocity": 127,
      "chip": "ym2612"
    },
    {
      "channel": 3,
      "note": 33,
      "start": 66.7601,
      "duration": 0.1757,
      "velocity": 113,
      "chip": "ym2612"
    },
    {
      "channel": 0,
      "note": 60,
      "start": 66.7633,
      "duration": 0.1668,
      "velocity": 94,
      "chip": "ym2612"
    },
    {
      "channel": 5,
      "note": 66,
      "start": 66.7705,
      "duration": 0.0803,
      "velocity": 127,
      "chip": "ym2612"
    },
    {
      "channel": 5,
      "note": 66,
      "start": 66.8514,
      "duration": 0.094,
      "velocity": 127,
      "chip": "ym2612"
    },
    {
      "channel": 0,
      "note": 67,
      "start": 66.9307,
      "duration": 0.084,
      "velocity": 94,
      "chip": "ym2612"
    },
    {
      "channel": 3,
      "note": 33,
      "start": 66.9364,
      "duration": 0.166,
      "velocity": 113,
      "chip": "ym2612"
    },
    {
      "channel": 4,
      "note": 45,
      "start": 66.9415,
      "duration": 0.3391,
      "velocity": 102,
      "chip": "ym2612"
    },
    {
      "channel": 5,
      "note": 66,
      "start": 66.946,
      "duration": 0.0759,
      "velocity": 127,
      "chip": "ym2612"
    },
    {
      "channel": 0,
      "note": 67,
      "start": 67.0154,
      "duration": 0.0821,
      "velocity": 94,
      "chip": "ym2612"
    },
    {
      "channel": 5,
      "note": 66,
      "start": 67.0225,
      "duration": 0.0839,
      "velocity": 127,
      "chip": "ym2612"
    },
    {
      "channel": 0,
      "note": 55,
      "start": 67.0981,
      "duration": 0.1789,
      "velocity": 94,
      "chip": "ym2612"
    },
    {
      "channel": 3,
      "note": 33,
      "start": 67.103,
      "duration": 0.1799,
      "velocity": 113,
      "chip": "ym2612"
    },
    {
      "channel": 5,
      "note": 66,
      "start": 67.1071,
      "duration": 0.0772,
      "velocity": 127,
      "chip": "ym2612"
    },
    {
      "channel": 5,
      "note": 66,
      "start": 67.1849,
      "duration": 0.102,
      "velocity": 127,
      "chip": "ym2612"
    },
    {
      "channel": 2,
      "note": 64,
      "start": 67.2656,
      "duration": 0.6759,
      "velocity": 94,
      "chip": "ym2612"
    },
    {
      "channel": 1,
      "note": 45,
      "start": 67.2754,
      "duration": 10.7515,
      "velocity": 94,
      "chip": "ym2612"
    },
    {
      "channel": 0,
      "note": 69,
      "start": 67.2776,
      "duration": 0.0693,
      "velocity": 94,
      "chip": "ym2612"
    },
    {
      "channel": 4,
      "note": 45,
      "start": 67.2813,
      "duration": 0.3297,
      "velocity": 102,
      "chip": "ym2612"
    },
    {
      "channel": 3,
      "note": 33,
      "start": 67.2836,
      "duration": 0.1523,
      "velocity": 113,
      "chip": "ym2612"
    },
    {
      "channel": 5,
      "note": 66,
      "start": 67.2875,
      "duration": 0.0665,
      "velocity": 127,
      "chip": "ym2612"
    },
    {
      "channel": 0,
      "note": 69,
      "start": 67.3476,
      "duration": 0.0916,
      "velocity": 94,
      "chip": "ym2612"
    },
    {
      "channel": 5,
      "note": 66,
      "start": 67.3547,
      "duration": 0.087,
      "velocity": 127,
      "chip": "ym2612"
    },
    {
      "channel": 3,
      "note": 33,
      "start": 67.4366,
      "duration": 0.1767,
      "velocity": 113,
      "chip": "ym2612"
    },
    {
      "channel": 0,
      "note": 57,
      "start": 67.4398,
      "duration": 0.1676,
      "velocity": 94,
      "chip": "ym2612"
    },
    {
      "channel": 5,
      "note": 66,
      "start": 67.4423,
      "duration": 0.0803,
      "velocity": 127,
      "chip": "ym2612"
    },
    {
      "channel": 5,
      "note": 66,
      "start": 67.5232,
      "duration": 0.0941,
      "velocity": 127,
      "chip": "ym2612"
    },
    {
      "channel": 0,
      "note": 69,
      "start": 67.608,
      "duration": 0.1626,
      "velocity": 94,
      "chip": "ym2612"
    },
    {
      "channel": 4,
      "note": 45,
      "start": 67.6116,
      "duration": 0.3371,
      "velocity": 102,
      "chip": "ym2612"
    },
    {
      "channel": 3,
      "note": 33,
      "start": 67.6139,
      "duration": 0.1617,
      "velocity": 113,
      "chip": "ym2612"
    },
    {
      "channel": 5,
      "note": 66,
      "start": 67.6179,
      "duration": 0.0709,
      "velocity": 127,
      "chip": "ym2612"
    },
    {
      "channel": 5,
      "note": 66,
      "start": 67.6895,
      "duration": 0.09,
      "velocity": 127,
      "chip": "ym2612"
    },
    {
      "channel": 0,
      "note": 59,
      "start": 67.7712,
      "duration": 0.0853,
      "velocity": 94,
      "chip": "ym2612"
    },
    {
      "channel": 3,
      "note": 33,
      "start": 67.7762,
      "duration": 0.1748,
      "velocity": 113,
      "chip": "ym2612"
    },
    {
      "channel": 5,
      "note": 66,
      "start": 67.7801,
      "duration": 0.079,
      "velocity": 127,
      "chip": "ym2612"
    },
    {
      "channel": 0,
      "note": 59,
      "start": 67.8572,
      "duration": 0.087,
      "velocity": 94,
      "chip": "ym2612"
    },
    {
      "channel": 5,
      "note": 66,
      "start": 67.8598,
      "duration": 0.099,
      "velocity": 127,
      "chip": "ym2612"
    },
    {
      "channel": 2,
      "note": 65,
      "start": 67.942,
      "duration": 1.006,
      "velocity": 94,
      "chip": "ym2612"
    },
    {
      "channel": 0,
      "note": 71,
      "start": 67.9448,
      "duration": 0.158,
      "velocity": 94,
      "chip": "ym2612"
    },
    {
      "channel": 4,
      "note": 45,
      "start": 67.9493,
      "duration": 0.3317,
      "velocity": 102,
      "chip": "ym2612"
    },
    {
      "channel": 3,
      "note": 33,
      "start": 67.9516,
      "duration": 0.1561,
      "velocity": 113,
      "chip": "ym2612"
    },
    {
      "channel": 5,
      "note": 66,
      "start": 67.9593,
      "duration": 0.0679,
      "velocity": 127,
      "chip": "ym2612"
    },
    {
      "channel": 5,
      "note": 66,
      "start": 68.0278,
      "duration": 0.0839,
      "velocity": 127,
      "chip": "ym2612"
    },
    {
      "channel": 0,
      "note": 59,
      "start": 68.1034,
      "duration": 0.1679,
      "velocity": 94,
      "chip": "ym2612"
    },
    {
      "channel": 3,
      "note": 33,
      "start": 68.1084,
      "duration": 0.1749,
      "velocity": 113,
      "chip": "ym2612"
    },
    {
      "channel": 5,
      "note": 66,
      "start": 68.1123,
      "duration": 0.0834,
      "velocity": 127,
      "chip": "ym2612"
    },
    {
      "channel": 5,
      "note": 66,
      "start": 68.1964,
      "duration": 0.091,
      "velocity": 127,
      "chip": "ym2612"
    },
    {
      "channel": 0,
      "note": 72,
      "start": 68.2719,
      "duration": 0.0878,
      "velocity": 94,
      "chip": "ym2612"
    },
    {
      "channel": 4,
      "note": 45,
      "start": 68.2817,
      "duration": 0.3359,
      "velocity": 102,
      "chip": "ym2612"
    },
    {
      "channel": 3,
      "note": 33,
      "start": 68.284,
      "duration": 0.1586,
      "velocity": 113,
      "chip": "ym2612"
    },
    {
      "channel": 5,
      "note": 66,
      "start": 68.288,
      "duration": 0.079,
      "velocity": 127,
      "chip": "ym2612"
    },
    {
      "channel": 0,
      "note": 72,
      "start": 68.3604,
      "duration": 0.0854,
      "velocity": 94,
      "chip": "ym2612"
    },
    {
      "channel": 5,
      "note": 66,
      "start": 68.3676,
      "duration": 0.0808,
      "velocity": 127,
      "chip": "ym2612"
    },
    {
      "channel": 3,
      "note": 33,
      "start": 68.4432,
      "duration": 0.1767,
      "velocity": 113,
      "chip": "ym2612"
    },
    {
      "channel": 0,
      "note": 60,
      "start": 68.4464,
      "duration": 0.1676,
      "velocity": 94,
      "chip": "ym2612"
    },
    {
      "channel": 5,
      "note": 66,
      "start": 68.449,
      "duration": 0.0833,
      "velocity": 127,
      "chip": "ym2612"
    },
    {
      "channel": 5,
      "note": 66,
      "start": 68.5329,
      "duration": 0.0909,
      "velocity": 127,
      "chip": "ym2612"
    },
    {
      "channel": 0,
      "note": 72,
      "start": 68.6146,
      "duration": 0.1626,
      "velocity": 94,
      "chip": "ym2612"
    },
    {
      "channel": 4,
      "note": 45,
      "start": 68.6183,
      "duration": 0.337,
      "velocity": 102,
      "chip": "ym2612"
    },
    {
      "channel": 3,
      "note": 33,
      "start": 68.6205,
      "duration": 0.1616,
      "velocity": 113,
      "chip": "ym2612"
    },
    {
      "channel": 5,
      "note": 66,
      "start": 68.6245,
      "duration": 0.0771,
      "velocity": 127,
      "chip": "ym2612"
    },
    {
      "channel": 5,
      "note": 66,
      "start": 68.7022,
      "duration": 0.0838,
      "velocity": 127,
      "chip": "ym2612"
    },
    {
      "channel": 0,
      "note": 62,
      "start": 68.7778,
      "duration": 0.087,
      "velocity": 94,
      "chip": "ym2612"
    },
    {
      "channel": 3,
      "note": 33,
      "start": 68.7827,
      "duration": 0.1748,
      "velocity": 113,
      "chip": "ym2612"
    },
    {
      "channel": 5,
      "note": 66,
      "start": 68.7867,
      "duration": 0.0852,
      "velocity": 127,
      "chip": "ym2612"
    },
    {
      "channel": 0,
      "note": 62,
      "start": 68.8654,
      "duration": 0.0854,
      "velocity": 94,
      "chip": "ym2612"
    },
    {
      "channel": 5,
      "note": 66,
      "start": 68.8725,
      "duration": 0.0927,
      "velocity": 127,
      "chip": "ym2612"
    },
    {
      "channel": 2,
      "note": 64,
      "start": 68.9486,
      "duration": 0.3352,
      "velocity": 94,
      "chip": "ym2612"
    },
    {
      "channel": 0,
      "note": 74,
      "start": 68.9514,
      "duration": 0.1659,
      "velocity": 94,
      "chip": "ym2612"
    },
    {
      "channel": 4,
      "note": 45,
      "start": 68.9559,
      "duration": 0.3415,
      "velocity": 102,
      "chip": "ym2612"
    },
    {
      "channel": 3,
      "note": 33,
      "start": 68.9582,
      "duration": 0.1559,
      "velocity": 113,
      "chip": "ym2612"
    },
    {
      "channel": 5,
      "note": 66,
      "start": 68.9659,
      "duration": 0.0678,
      "velocity": 127,
      "chip": "ym2612"
    },
    {
      "channel": 5,
      "note": 66,
      "start": 69.0343,
      "duration": 0.0901,
      "velocity": 127,
      "chip": "ym2612"
    },
    {
      "channel": 3,
      "note": 33,
      "start": 69.1147,
      "duration": 0.1776,
      "velocity": 113,
      "chip": "ym2612"
    },
    {
      "channel": 0,
      "note": 62,
      "start": 69.1179,
      "duration": 0.1686,
      "velocity": 94,
      "chip": "ym2612"
    },
    {
      "channel": 5,
      "note": 66,
      "start": 69.1251,
      "duration": 0.0772,
      "velocity": 127,
      "chip": "ym2612"
    },
    {
      "channel": 5,
      "note": 66,
      "start": 69.2029,
      "duration": 0.099,
      "velocity": 127,
      "chip": "ym2612"
    },
    {
      "channel": 2,
      "note": 62,
      "start": 69.2844,
      "duration": 0.34,
      "velocity": 94,
      "chip": "ym2612"
    },
    {
      "channel": 0,
      "note": 77,
      "start": 69.2871,
      "duration": 0.0779,
      "velocity": 94,
      "chip": "ym2612"
    },
    {
      "channel": 3,
      "note": 33,
      "start": 69.2929,
      "duration": 0.161,
      "velocity": 113,
      "chip": "ym2612"
    },
    {
      "channel": 4,
      "note": 45,
      "start": 69.298,
      "duration": 0.3328,
      "velocity": 102,
      "chip": "ym2612"
    },
    {
      "channel": 5,
      "note": 66,
      "start": 69.3025,
      "duration": 0.0697,
      "velocity": 127,
      "chip": "ym2612"
    },
    {
      "channel": 0,
      "note": 77,
      "start": 69.3656,
      "duration": 0.0916,
      "velocity": 94,
      "chip": "ym2612"
    },
    {
      "channel": 5,
      "note": 66,
      "start": 69.3728,
      "duration": 0.087,
      "velocity": 127,
      "chip": "ym2612"
    },
    {
      "channel": 3,
      "note": 33,
      "start": 69.4546,
      "duration": 0.1785,
      "velocity": 113,
      "chip": "ym2612"
    },
    {
      "channel": 0,
      "note": 65,
      "start": 69.4578,
      "duration": 0.1693,
      "velocity": 94,
      "chip": "ym2612"
    },
    {
      "channel": 5,
      "note": 66,
      "start": 69.4603,
      "duration": 0.0772,
      "velocity": 127,
      "chip": "ym2612"
    },
    {
      "channel": 5,
      "note": 66,
      "start": 69.5382,
      "duration": 0.0989,
      "velocity": 127,
      "chip": "ym2612"
    },
    {
      "channel": 2,
      "note": 57,
      "start": 69.6251,
      "duration": 0.3267,
      "velocity": 94,
      "chip": "ym2612"
    },
    {
      "channel": 0,
      "note": 77,
      "start": 69.6278,
      "duration": 0.166,
      "velocity": 94,
      "chip": "ym2612"
    },
    {
      "channel": 4,
      "note": 45,
      "start": 69.6315,
      "duration": 0.3328,
      "velocity": 102,
      "chip": "ym2612"
    },
    {
      "channel": 3,
      "note": 33,
      "start": 69.6337,
      "duration": 0.1568,
      "velocity": 113,
      "chip": "ym2612"
    },
    {
      "channel": 5,
      "note": 66,
      "start": 69.6377,
      "duration": 0.0709,
      "velocity": 127,
      "chip": "ym2612"
    },
    {
      "channel": 5,
      "note": 66,
      "start": 69.7093,
      "duration": 0.087,
      "velocity": 127,
      "chip": "ym2612"
    },
    {
      "channel": 3,
      "note": 33,
      "start": 69.7912,
      "duration": 0.1754,
      "velocity": 113,
      "chip": "ym2612"
    },
    {
      "channel": 0,
      "note": 65,
      "start": 69.7944,
      "duration": 0.1601,
      "velocity": 94,
      "chip": "ym2612"
    },
    {
      "channel": 5,
      "note": 66,
      "start": 69.7969,
      "duration": 0.0803,
      "velocity": 127,
      "chip": "ym2612"
    },
    {
      "channel": 5,
      "note": 66,
      "start": 69.8778,
      "duration": 0.0927,
      "velocity": 127,
      "chip": "ym2612"
    },
    {
      "channel": 2,
      "note": 67,
      "start": 69.9524,
      "duration": 0.6748,
      "velocity": 94,
      "chip": "ym2612"
    },
    {
      "channel": 0,
      "note": 76,
      "start": 69.9551,
      "duration": 0.0847,
      "velocity": 94,
      "chip": "ym2612"
    },
    {
      "channel": 4,
      "note": 45,
      "start": 69.9649,
      "duration": 0.3321,
      "velocity": 102,
      "chip": "ym2612"
    },
    {
      "channel": 3,
      "note": 33,
      "start": 69.9672,
      "duration": 0.1553,
      "velocity": 113,
      "chip": "ym2612"
    },
    {
      "channel": 5,
      "note": 66,
      "start": 69.9711,
      "duration": 0.0758,
      "velocity": 127,
      "chip": "ym2612"
    },
    {
      "channel": 0,
      "note": 76,
      "start": 70.0405,
      "duration": 0.0854,
      "velocity": 94,
      "chip": "ym2612"
    },
    {
      "channel": 5,
      "note": 66,
      "start": 70.0476,
      "duration": 0.0808,
      "velocity": 127,
      "chip": "ym2612"
    },
    {
      "channel": 3,
      "note": 33,
      "start": 70.1232,
      "duration": 0.176,
      "velocity": 113,
      "chip": "ym2612"
    },
    {
      "channel": 0,
      "note": 64,
      "start": 70.1264,
      "duration": 0.166,
      "velocity": 94,
      "chip": "ym2612"
    },
    {
      "channel": 5,
      "note": 66,
      "start": 70.129,
      "duration": 0.0833,
      "velocity": 127,
      "chip": "ym2612"
    },
    {
      "channel": 5,
      "note": 66,
      "start": 70.213,
      "duration": 0.0939,
      "velocity": 127,
      "chip": "ym2612"
    },
    {
      "channel": 0,
      "note": 76,
      "start": 70.2931,
      "duration": 0.1705,
      "velocity": 94,
      "chip": "ym2612"
    },
    {
      "channel": 4,
      "note": 45,
      "start": 70.2976,
      "duration": 0.3432,
      "velocity": 102,
      "chip": "ym2612"
    },
    {
      "channel": 3,
      "note": 33,
      "start": 70.2999,
      "duration": 0.1604,
      "velocity": 113,
      "chip": "ym2612"
    },
    {
      "channel": 5,
      "note": 66,
      "start": 70.3076,
      "duration": 0.0741,
      "velocity": 127,
      "chip": "ym2612"
    },
    {
      "channel": 5,
      "note": 66,
      "start": 70.3822,
      "duration": 0.0838,
      "velocity": 127,
      "chip": "ym2612"
    },
    {
      "channel": 3,
      "note": 33,
      "start": 70.4609,
      "duration": 0.1747,
      "velocity": 113,
      "chip": "ym2612"
    },
    {
      "channel": 0,
      "note": 62,
      "start": 70.4642,
      "duration": 0.0805,
      "velocity": 94,
      "chip": "ym2612"
    },
    {
      "channel": 5,
      "note": 66,
      "start": 70.4667,
      "duration": 0.0851,
      "velocity": 127,
      "chip": "ym2612"
    },
    {
      "channel": 0,
      "note": 62,
      "start": 70.5454,
      "duration": 0.0845,
      "velocity": 94,
      "chip": "ym2612"
    },
    {
      "channel": 5,
      "note": 66,
      "start": 70.5525,
      "duration": 0.0927,
      "velocity": 127,
      "chip": "ym2612"
    },
    {
      "channel": 2,
      "note": 65,
      "start": 70.6278,
      "duration": 0.6795,
      "velocity": 94,
      "chip": "ym2612"
    },
    {
      "channel": 0,
      "note": 74,
      "start": 70.6305,
      "duration": 0.1649,
      "velocity": 94,
      "chip": "ym2612"
    },
    {
      "channel": 3,
      "note": 33,
      "start": 70.6363,
      "duration": 0.1642,
      "velocity": 113,
      "chip": "ym2612"
    },
    {
      "channel": 4,
      "note": 45,
      "start": 70.6414,
      "duration": 0.3323,
      "velocity": 102,
      "chip": "ym2612"
    },
    {
      "channel": 5,
      "note": 66,
      "start": 70.6459,
      "duration": 0.0741,
      "velocity": 127,
      "chip": "ym2612"
    },
    {
      "channel": 5,
      "note": 66,
      "start": 70.7205,
      "duration": 0.0839,
      "velocity": 127,
      "chip": "ym2612"
    },
    {
      "channel": 0,
      "note": 62,
      "start": 70.7961,
      "duration": 0.1678,
      "velocity": 94,
      "chip": "ym2612"
    },
    {
      "channel": 3,
      "note": 33,
      "start": 70.8011,
      "duration": 0.1749,
      "velocity": 113,
      "chip": "ym2612"
    },
    {
      "channel": 5,
      "note": 66,
      "start": 70.8051,
      "duration": 0.0772,
      "velocity": 127,
      "chip": "ym2612"
    },
    {
      "channel": 5,
      "note": 66,
      "start": 70.8829,
      "duration": 0.0971,
      "velocity": 127,
      "chip": "ym2612"
    },
    {
      "channel": 0,
      "note": 76,
      "start": 70.9646,
      "duration": 0.0816,
      "velocity": 94,
      "chip": "ym2612"
    },
    {
      "channel": 4,
      "note": 45,
      "start": 70.9744,
      "duration": 0.3377,
      "velocity": 102,
      "chip": "ym2612"
    },
    {
      "channel": 3,
      "note": 33,
      "start": 70.9766,
      "duration": 0.1603,
      "velocity": 113,
      "chip": "ym2612"
    },
    {
      "channel": 5,
      "note": 66,
      "start": 70.9806,
      "duration": 0.0727,
      "velocity": 127,
      "chip": "ym2612"
    },
    {
      "channel": 0,
      "note": 76,
      "start": 71.0468,
      "duration": 0.0852,
      "velocity": 94,
      "chip": "ym2612"
    },
    {
      "channel": 5,
      "note": 66,
      "start": 71.0539,
      "duration": 0.087,
      "velocity": 127,
      "chip": "ym2612"
    },
    {
      "channel": 0,
      "note": 64,
      "start": 71.1326,
      "duration": 0.1679,
      "velocity": 94,
      "chip": "ym2612"
    },
    {
      "channel": 3,
      "note": 33,
      "start": 71.1376,
      "duration": 0.1767,
      "velocity": 113,
      "chip": "ym2612"
    },
    {
      "channel": 5,
      "note": 66,
      "start": 71.1416,
      "duration": 0.0771,
      "velocity": 127,
      "chip": "ym2612"
    },
    {
      "channel": 5,
      "note": 66,
      "start": 71.2193,
      "duration": 0.0989,
      "velocity": 127,
      "chip": "ym2612"
    },
    {
      "channel": 0,
      "note": 76,
      "start": 71.3011,
      "duration": 0.1674,
      "velocity": 94,
      "chip": "ym2612"
    },
    {
      "channel": 2,
      "note": 64,
      "start": 71.308,
      "duration": 0.6615,
      "velocity": 94,
      "chip": "ym2612"
    },
    {
      "channel": 4,
      "note": 45,
      "start": 71.3127,
      "duration": 0.3321,
      "velocity": 102,
      "chip": "ym2612"
    },
    {
      "channel": 3,
      "note": 33,
      "start": 71.3149,
      "duration": 0.1586,
      "velocity": 113,
      "chip": "ym2612"
    },
    {
      "channel": 5,
      "note": 66,
      "start": 71.3189,
      "duration": 0.0679,
      "velocity": 127,
      "chip": "ym2612"
    },
    {
      "channel": 5,
      "note": 66,
      "start": 71.3874,
      "duration": 0.09,
      "velocity": 127,
      "chip": "ym2612"
    },
    {
      "channel": 0,
      "note": 62,
      "start": 71.4691,
      "duration": 0.0853,
      "velocity": 94,
      "chip": "ym2612"
    },
    {
      "channel": 3,
      "note": 33,
      "start": 71.4742,
      "duration": 0.1729,
      "velocity": 113,
      "chip": "ym2612"
    },
    {
      "channel": 5,
      "note": 66,
      "start": 71.478,
      "duration": 0.079,
      "velocity": 127,
      "chip": "ym2612"
    },
    {
      "channel": 0,
      "note": 62,
      "start": 71.5551,
      "duration": 0.0852,
      "velocity": 94,
      "chip": "ym2612"
    },
    {
      "channel": 5,
      "note": 66,
      "start": 71.5577,
      "duration": 0.0971,
      "velocity": 127,
      "chip": "ym2612"
    },
    {
      "channel": 0,
      "note": 74,
      "start": 71.6409,
      "duration": 0.1611,
      "velocity": 94,
      "chip": "ym2612"
    },
    {
      "channel": 4,
      "note": 45,
      "start": 71.6454,
      "duration": 0.3366,
      "velocity": 102,
      "chip": "ym2612"
    },
    {
      "channel": 3,
      "note": 33,
      "start": 71.6478,
      "duration": 0.1592,
      "velocity": 113,
      "chip": "ym2612"
    },
    {
      "channel": 5,
      "note": 66,
      "start": 71.6555,
      "duration": 0.0709,
      "velocity": 127,
      "chip": "ym2612"
    },
    {
      "channel": 5,
      "note": 66,
      "start": 71.727,
      "duration": 0.0839,
      "velocity": 127,
      "chip": "ym2612"
    },
    {
      "channel": 0,
      "note": 62,
      "start": 71.8026,
      "duration": 0.1697,
      "velocity": 94,
      "chip": "ym2612"
    },
    {
      "channel": 3,
      "note": 33,
      "start": 71.8076,
      "duration": 0.1768,
      "velocity": 113,
      "chip": "ym2612"
    },
    {
      "channel": 5,
      "note": 66,
      "start": 71.8116,
      "duration": 0.0833,
      "velocity": 127,
      "chip": "ym2612"
    },
    {
      "channel": 5,
      "note": 66,
      "start": 71.8955,
      "duration": 0.0927,
      "velocity": 127,
      "chip": "ym2612"
    },
    {
      "channel": 2,
      "note": 62,
      "start": 71.9702,
      "duration": 0.6903,
      "velocity": 94,
      "chip": "ym2612"
    },
    {
      "channel": 0,
      "note": 72,
      "start": 71.9729,
      "duration": 0.0847,
      "velocity": 94,
      "chip": "ym2612"
    },
    {
      "channel": 4,
      "note": 45,
      "start": 71.9826,
      "duration": 0.3328,
      "velocity": 102,
      "chip": "ym2612"
    },
    {
      "channel": 3,
      "note": 33,
      "start": 71.985,
      "duration": 0.1554,
      "velocity": 113,
      "chip": "ym2612"
    },
    {
      "channel": 5,
      "note": 66,
      "start": 71.9889,
      "duration": 0.0758,
      "velocity": 127,
      "chip": "ym2612"
    },
    {
      "channel": 0,
      "note": 72,
      "start": 72.0582,
      "duration": 0.0854,
      "velocity": 94,
      "chip": "ym2612"
    },
    {
      "channel": 5,
      "note": 66,
      "start": 72.0653,
      "duration": 0.0808,
      "velocity": 127,
      "chip": "ym2612"
    },
    {
      "channel": 3,
      "note": 33,
      "start": 72.141,
      "duration": 0.1767,
      "velocity": 113,
      "chip": "ym2612"
    },
    {
      "channel": 0,
      "note": 60,
      "start": 72.1443,
      "duration": 0.1676,
      "velocity": 94,
      "chip": "ym2612"
    },
    {
      "channel": 5,
      "note": 66,
      "start": 72.1467,
      "duration": 0.0834,
      "velocity": 127,
      "chip": "ym2612"
    },
    {
      "channel": 5,
      "note": 66,
      "start": 72.2308,
      "duration": 0.091,
      "velocity": 127,
      "chip": "ym2612"
    },
    {
      "channel": 0,
      "note": 67,
      "start": 72.3124,
      "duration": 0.0817,
      "velocity": 94,
      "chip": "ym2612"
    },
    {
      "channel": 4,
      "note": 45,
      "start": 72.3161,
      "duration": 0.3348,
      "velocity": 102,
      "chip": "ym2612"
    },
    {
      "channel": 3,
      "note": 33,
      "start": 72.3184,
      "duration": 0.1571,
      "velocity": 113,
      "chip": "ym2612"
    },
    {
      "channel": 5,
      "note": 66,
      "start": 72.3224,
      "duration": 0.0789,
      "velocity": 127,
      "chip": "ym2612"
    },
    {
      "channel": 0,
      "note": 67,
      "start": 72.3948,
      "duration": 0.0839,
      "velocity": 94,
      "chip": "ym2612"
    },
    {
      "channel": 5,
      "note": 66,
      "start": 72.4019,
      "duration": 0.0839,
      "velocity": 127,
      "chip": "ym2612"
    },
    {
      "channel": 3,
      "note": 33,
      "start": 72.4761,
      "duration": 0.1772,
      "velocity": 113,
      "chip": "ym2612"
    },
    {
      "channel": 0,
      "note": 55,
      "start": 72.4793,
      "duration": 0.1837,
      "velocity": 94,
      "chip": "ym2612"
    },
    {
      "channel": 5,
      "note": 66,
      "start": 72.4864,
      "duration": 0.0803,
      "velocity": 127,
      "chip": "ym2612"
    },
    {
      "channel": 5,
      "note": 66,
      "start": 72.5673,
      "duration": 0.0983,
      "velocity": 127,
      "chip": "ym2612"
    },
    {
      "channel": 4,
      "note": 45,
      "start": 72.6515,
      "duration": 0.3367,
      "velocity": 102,
      "chip": "ym2612"
    },
    {
      "channel": 3,
      "note": 33,
      "start": 72.6539,
      "duration": 0.1585,
      "velocity": 113,
      "chip": "ym2612"
    },
    {
      "channel": 2,
      "note": 69,
      "start": 72.6611,
      "duration": 0.661,
      "velocity": 94,
      "chip": "ym2612"
    },
    {
      "channel": 5,
      "note": 66,
      "start": 72.6663,
      "duration": 0.0657,
      "velocity": 127,
      "chip": "ym2612"
    },
    {
      "channel": 0,
      "note": 69,
      "start": 72.679,
      "duration": 0.1366,
      "velocity": 95,
      "chip": "ym2612"
    },
    {
      "channel": 5,
      "note": 66,
      "start": 72.7327,
      "duration": 0.0901,
      "velocity": 127,
      "chip": "ym2612"
    },
    {
      "channel": 3,
      "note": 33,
      "start": 72.813,
      "duration": 0.1775,
      "velocity": 113,
      "chip": "ym2612"
    },
    {
      "channel": 0,
      "note": 57,
      "start": 72.8162,
      "duration": 0.1675,
      "velocity": 95,
      "chip": "ym2612"
    },
    {
      "channel": 5,
      "note": 66,
      "start": 72.8234,
      "duration": 0.0771,
      "velocity": 127,
      "chip": "ym2612"
    },
    {
      "channel": 5,
      "note": 66,
      "start": 72.9011,
      "duration": 0.0971,
      "velocity": 127,
      "chip": "ym2612"
    },
    {
      "channel": 0,
      "note": 69,
      "start": 72.9843,
      "duration": 0.1705,
      "velocity": 95,
      "chip": "ym2612"
    },
    {
      "channel": 4,
      "note": 45,
      "start": 72.9889,
      "duration": 0.3397,
      "velocity": 102,
      "chip": "ym2612"
    },
    {
      "channel": 3,
      "note": 33,
      "start": 72.9912,
      "duration": 0.1604,
      "velocity": 113,
      "chip": "ym2612"
    },
    {
      "channel": 5,
      "note": 66,
      "start": 72.9989,
      "duration": 0.0709,
      "velocity": 127,
      "chip": "ym2612"
    },
    {
      "channel": 5,
      "note": 66,
      "start": 73.0705,
      "duration": 0.087,
      "velocity": 127,
      "chip": "ym2612"
    },
    {
      "channel": 3,
      "note": 33,
      "start": 73.1523,
      "duration": 0.1785,
      "velocity": 113,
      "chip": "ym2612"
    },
    {
      "channel": 0,
      "note": 71,
      "start": 73.1555,
      "duration": 0.1693,
      "velocity": 95,
      "chip": "ym2612"
    },
    {
      "channel": 5,
      "note": 66,
      "start": 73.1581,
      "duration": 0.0803,
      "velocity": 127,
      "chip": "ym2612"
    },
    {
      "channel": 5,
      "note": 66,
      "start": 73.239,
      "duration": 0.0958,
      "velocity": 127,
      "chip": "ym2612"
    },
    {
      "channel": 2,
      "note": 71,
      "start": 73.3227,
      "duration": 2.0127,
      "velocity": 94,
      "chip": "ym2612"
    },
    {
      "channel": 0,
      "note": 59,
      "start": 73.3255,
      "duration": 0.1644,
      "velocity": 95,
      "chip": "ym2612"
    },
    {
      "channel": 4,
      "note": 45,
      "start": 73.3292,
      "duration": 0.3309,
      "velocity": 102,
      "chip": "ym2612"
    },
    {
      "channel": 3,
      "note": 33,
      "start": 73.3314,
      "duration": 0.1553,
      "velocity": 113,
      "chip": "ym2612"
    },
    {
      "channel": 5,
      "note": 66,
      "start": 73.3354,
      "duration": 0.0709,
      "velocity": 127,
      "chip": "ym2612"
    },
    {
      "channel": 5,
      "note": 66,
      "start": 73.407,
      "duration": 0.0901,
      "velocity": 127,
      "chip": "ym2612"
    },
    {
      "channel": 3,
      "note": 33,
      "start": 73.4873,
      "duration": 0.1751,
      "velocity": 113,
      "chip": "ym2612"
    },
    {
      "channel": 0,
      "note": 71,
      "start": 73.4905,
      "duration": 0.1599,
      "velocity": 95,
      "chip": "ym2612"
    },
    {
      "channel": 5,
      "note": 66,
      "start": 73.4977,
      "duration": 0.0771,
      "velocity": 127,
      "chip": "ym2612"
    },
    {
      "channel": 5,
      "note": 66,
      "start": 73.5754,
      "duration": 0.0909,
      "velocity": 127,
      "chip": "ym2612"
    },
    {
      "channel": 0,
      "note": 72,
      "start": 73.651,
      "duration": 0.1705,
      "velocity": 95,
      "chip": "ym2612"
    },
    {
      "channel": 4,
      "note": 45,
      "start": 73.6607,
      "duration": 0.3371,
      "velocity": 102,
      "chip": "ym2612"
    },
    {
      "channel": 3,
      "note": 33,
      "start": 73.663,
      "duration": 0.1552,
      "velocity": 113,
      "chip": "ym2612"
    },
    {
      "channel": 5,
      "note": 66,
      "start": 73.667,
      "duration": 0.0741,
      "velocity": 127,
      "chip": "ym2612"
    },
    {
      "channel": 5,
      "note": 66,
      "start": 73.7417,
      "duration": 0.087,
      "velocity": 127,
      "chip": "ym2612"
    },
    {
      "channel": 3,
      "note": 33,
      "start": 73.8189,
      "duration": 0.1812,
      "velocity": 113,
      "chip": "ym2612"
    },
    {
      "channel": 0,
      "note": 60,
      "start": 73.8221,
      "duration": 0.166,
      "velocity": 95,
      "chip": "ym2612"
    },
    {
      "channel": 5,
      "note": 66,
      "start": 73.8293,
      "duration": 0.0802,
      "velocity": 127,
      "chip": "ym2612"
    },
    {
      "channel": 5,
      "note": 66,
      "start": 73.9101,
      "duration": 0.094,
      "velocity": 127,
      "chip": "ym2612"
    },
    {
      "channel": 0,
      "note": 72,
      "start": 73.9887,
      "duration": 0.1705,
      "velocity": 95,
      "chip": "ym2612"
    },
    {
      "channel": 4,
      "note": 45,
      "start": 73.9985,
      "duration": 0.3335,
      "velocity": 102,
      "chip": "ym2612"
    },
    {
      "channel": 3,
      "note": 33,
      "start": 74.0007,
      "duration": 0.1554,
      "velocity": 113,
      "chip": "ym2612"
    },
    {
      "channel": 5,
      "note": 66,
      "start": 74.0048,
      "duration": 0.0741,
      "velocity": 127,
      "chip": "ym2612"
    },
    {
      "channel": 5,
      "note": 66,
      "start": 74.0794,
      "duration": 0.087,
      "velocity": 127,
      "chip": "ym2612"
    },
    {
      "channel": 3,
      "note": 33,
      "start": 74.1567,
      "duration": 0.1776,
      "velocity": 113,
      "chip": "ym2612"
    },
    {
      "channel": 0,
      "note": 74,
      "start": 74.1599,
      "duration": 0.1676,
      "velocity": 95,
      "chip": "ym2612"
    },
    {
      "channel": 5,
      "note": 66,
      "start": 74.1671,
      "duration": 0.0803,
      "velocity": 127,
      "chip": "ym2612"
    },
    {
      "channel": 5,
      "note": 66,
      "start": 74.248,
      "duration": 0.0939,
      "velocity": 127,
      "chip": "ym2612"
    },
    {
      "channel": 0,
      "note": 62,
      "start": 74.3281,
      "duration": 0.1706,
      "velocity": 95,
      "chip": "ym2612"
    },
    {
      "channel": 4,
      "note": 45,
      "start": 74.3326,
      "duration": 0.3378,
      "velocity": 102,
      "chip": "ym2612"
    },
    {
      "channel": 3,
      "note": 33,
      "start": 74.335,
      "duration": 0.1604,
      "velocity": 113,
      "chip": "ym2612"
    },
    {
      "channel": 5,
      "note": 66,
      "start": 74.3426,
      "duration": 0.0741,
      "velocity": 127,
      "chip": "ym2612"
    },
    {
      "channel": 5,
      "note": 66,
      "start": 74.4173,
      "duration": 0.0839,
      "velocity": 127,
      "chip": "ym2612"
    },
    {
      "channel": 3,
      "note": 33,
      "start": 74.4961,
      "duration": 0.1767,
      "velocity": 113,
      "chip": "ym2612"
    },
    {
      "channel": 0,
      "note": 74,
      "start": 74.4993,
      "duration": 0.1676,
      "velocity": 95,
      "chip": "ym2612"
    },
    {
      "channel": 5,
      "note": 66,
      "start": 74.5018,
      "duration": 0.0772,
      "velocity": 127,
      "chip": "ym2612"
    },
    {
      "channel": 5,
      "note": 66,
      "start": 74.5796,
      "duration": 0.0972,
      "velocity": 127,
      "chip": "ym2612"
    },
    {
      "channel": 0,
      "note": 77,
      "start": 74.6674,
      "duration": 0.1627,
      "velocity": 95,
      "chip": "ym2612"
    },
    {
      "channel": 4,
      "note": 45,
      "start": 74.6711,
      "duration": 0.3372,
      "velocity": 102,
      "chip": "ym2612"
    },
    {
      "channel": 3,
      "note": 33,
      "start": 74.6734,
      "duration": 0.1616,
      "velocity": 113,
      "chip": "ym2612"
    },
    {
      "channel": 5,
      "note": 66,
      "start": 74.6774,
      "duration": 0.0709,
      "velocity": 127,
      "chip": "ym2612"
    },
    {
      "channel": 5,
      "note": 66,
      "start": 74.749,
      "duration": 0.09,
      "velocity": 127,
      "chip": "ym2612"
    },
    {
      "channel": 0,
      "note": 65,
      "start": 74.8307,
      "duration": 0.1679,
      "velocity": 95,
      "chip": "ym2612"
    },
    {
      "channel": 3,
      "note": 33,
      "start": 74.8357,
      "duration": 0.1749,
      "velocity": 113,
      "chip": "ym2612"
    },
    {
      "channel": 5,
      "note": 66,
      "start": 74.8396,
      "duration": 0.0772,
      "velocity": 127,
      "chip": "ym2612"
    },
    {
      "channel": 5,
      "note": 66,
      "start": 74.9174,
      "duration": 0.0971,
      "velocity": 127,
      "chip": "ym2612"
    },
    {
      "channel": 0,
      "note": 77,
      "start": 74.9992,
      "duration": 0.1687,
      "velocity": 95,
      "chip": "ym2612"
    },
    {
      "channel": 4,
      "note": 45,
      "start": 75.009,
      "duration": 0.3389,
      "velocity": 102,
      "chip": "ym2612"
    },
    {
      "channel": 3,
      "note": 33,
      "start": 75.0112,
      "duration": 0.1616,
      "velocity": 113,
      "chip": "ym2612"
    },
    {
      "channel": 5,
      "note": 66,
      "start": 75.0152,
      "duration": 0.0709,
      "velocity": 127,
      "chip": "ym2612"
    },
    {
      "channel": 5,
      "note": 66,
      "start": 75.0868,
      "duration": 0.0901,
      "velocity": 127,
      "chip": "ym2612"
    },
    {
      "channel": 0,
      "note": 65,
      "start": 75.1685,
      "duration": 0.1696,
      "velocity": 95,
      "chip": "ym2612"
    },
    {
      "channel": 3,
      "note": 33,
      "start": 75.1735,
      "duration": 0.1767,
      "velocity": 113,
      "chip": "ym2612"
    },
    {
      "channel": 5,
      "note": 66,
      "start": 75.1775,
      "duration": 0.0772,
      "velocity": 127,
      "chip": "ym2612"
    },
    {
      "channel": 5,
      "note": 66,
      "start": 75.2553,
      "duration": 0.0989,
      "velocity": 127,
      "chip": "ym2612"
    },
    {
      "channel": 2,
      "note": 72,
      "start": 75.336,
      "duration": 1.0055,
      "velocity": 94,
      "chip": "ym2612"
    },
    {
      "channel": 0,
      "note": 76,
      "start": 75.3387,
      "duration": 0.1659,
      "velocity": 95,
      "chip": "ym2612"
    },
    {
      "channel": 4,
      "note": 45,
      "start": 75.3485,
      "duration": 0.3279,
      "velocity": 102,
      "chip": "ym2612"
    },
    {
      "channel": 3,
      "note": 33,
      "start": 75.3508,
      "duration": 0.1506,
      "velocity": 113,
      "chip": "ym2612"
    },
    {
      "channel": 5,
      "note": 66,
      "start": 75.3548,
      "duration": 0.0679,
      "velocity": 127,
      "chip": "ym2612"
    },
    {
      "channel": 5,
      "note": 66,
      "start": 75.4233,
      "duration": 0.0839,
      "velocity": 127,
      "chip": "ym2612"
    },
    {
      "channel": 3,
      "note": 33,
      "start": 75.502,
      "duration": 0.1767,
      "velocity": 113,
      "chip": "ym2612"
    },
    {
      "channel": 0,
      "note": 64,
      "start": 75.5052,
      "duration": 0.1676,
      "velocity": 95,
      "chip": "ym2612"
    },
    {
      "channel": 5,
      "note": 66,
      "start": 75.5078,
      "duration": 0.0834,
      "velocity": 127,
      "chip": "ym2612"
    },
    {
      "channel": 5,
      "note": 66,
      "start": 75.5918,
      "duration": 0.091,
      "velocity": 127,
      "chip": "ym2612"
    },
    {
      "channel": 0,
      "note": 76,
      "start": 75.6735,
      "duration": 0.1626,
      "velocity": 95,
      "chip": "ym2612"
    },
    {
      "channel": 4,
      "note": 45,
      "start": 75.6771,
      "duration": 0.3373,
      "velocity": 102,
      "chip": "ym2612"
    },
    {
      "channel": 3,
      "note": 33,
      "start": 75.6794,
      "duration": 0.1617,
      "velocity": 113,
      "chip": "ym2612"
    },
    {
      "channel": 5,
      "note": 66,
      "start": 75.6834,
      "duration": 0.0771,
      "velocity": 127,
      "chip": "ym2612"
    },
    {
      "channel": 5,
      "note": 66,
      "start": 75.7611,
      "duration": 0.0839,
      "velocity": 127,
      "chip": "ym2612"
    },
    {
      "channel": 0,
      "note": 74,
      "start": 75.8367,
      "duration": 0.1679,
      "velocity": 95,
      "chip": "ym2612"
    },
    {
      "channel": 3,
      "note": 33,
      "start": 75.8417,
      "duration": 0.1749,
      "velocity": 113,
      "chip": "ym2612"
    },
    {
      "channel": 5,
      "note": 66,
      "start": 75.8456,
      "duration": 0.0834,
      "velocity": 127,
      "chip": "ym2612"
    },
    {
      "channel": 5,
      "note": 66,
      "start": 75.9296,
      "duration": 0.091,
      "velocity": 127,
      "chip": "ym2612"
    },
    {
      "channel": 0,
      "note": 62,
      "start": 76.0052,
      "duration": 0.1688,
      "velocity": 95,
      "chip": "ym2612"
    },
    {
      "channel": 4,
      "note": 45,
      "start": 76.015,
      "duration": 0.339,
      "velocity": 102,
      "chip": "ym2612"
    },
    {
      "channel": 3,
      "note": 33,
      "start": 76.0172,
      "duration": 0.1618,
      "velocity": 113,
      "chip": "ym2612"
    },
    {
      "channel": 5,
      "note": 66,
      "start": 76.0212,
      "duration": 0.0772,
      "velocity": 127,
      "chip": "ym2612"
    },
    {
      "channel": 5,
      "note": 66,
      "start": 76.099,
      "duration": 0.0839,
      "velocity": 127,
      "chip": "ym2612"
    },
    {
      "channel": 0,
      "note": 74,
      "start": 76.1746,
      "duration": 0.1696,
      "velocity": 95,
      "chip": "ym2612"
    },
    {
      "channel": 3,
      "note": 33,
      "start": 76.1796,
      "duration": 0.1767,
      "velocity": 113,
      "chip": "ym2612"
    },
    {
      "channel": 5,
      "note": 66,
      "start": 76.1836,
      "duration": 0.0833,
      "velocity": 127,
      "chip": "ym2612"
    },
    {
      "channel": 5,
      "note": 66,
      "start": 76.2676,
      "duration": 0.0927,
      "velocity": 127,
      "chip": "ym2612"
    },
    {
      "channel": 2,
      "note": 74,
      "start": 76.3421,
      "duration": 1.6825,
      "velocity": 94,
      "chip": "ym2612"
    },
    {
      "channel": 0,
      "note": 76,
      "start": 76.3448,
      "duration": 0.1656,
      "velocity": 95,
      "chip": "ym2612"
    },
    {
      "channel": 4,
      "note": 45,
      "start": 76.3546,
      "duration": 0.3341,
      "velocity": 102,
      "chip": "ym2612"
    },
    {
      "channel": 3,
      "note": 33,
      "start": 76.3569,
      "duration": 0.1586,
      "velocity": 113,
      "chip": "ym2612"
    },
    {
      "channel": 5,
      "note": 66,
      "start": 76.3609,
      "duration": 0.0679,
      "velocity": 127,
      "chip": "ym2612"
    },
    {
      "channel": 5,
      "note": 66,
      "start": 76.4294,
      "duration": 0.09,
      "velocity": 127,
      "chip": "ym2612"
    },
    {
      "channel": 0,
      "note": 64,
      "start": 76.5111,
      "duration": 0.1679,
      "velocity": 95,
      "chip": "ym2612"
    },
    {
      "channel": 3,
      "note": 33,
      "start": 76.5161,
      "duration": 0.1749,
      "velocity": 113,
      "chip": "ym2612"
    },
    {
      "channel": 5,
      "note": 66,
      "start": 76.52,
      "duration": 0.0772,
      "velocity": 127,
      "chip": "ym2612"
    },
    {
      "channel": 5,
      "note": 66,
      "start": 76.5979,
      "duration": 0.0971,
      "velocity": 127,
      "chip": "ym2612"
    },
    {
      "channel": 0,
      "note": 76,
      "start": 76.6796,
      "duration": 0.1687,
      "velocity": 95,
      "chip": "ym2612"
    },
    {
      "channel": 4,
      "note": 45,
      "start": 76.6894,
      "duration": 0.3371,
      "velocity": 102,
      "chip": "ym2612"
    },
    {
      "channel": 3,
      "note": 33,
      "start": 76.6917,
      "duration": 0.1616,
      "velocity": 113,
      "chip": "ym2612"
    },
    {
      "channel": 5,
      "note": 66,
      "start": 76.6956,
      "duration": 0.071,
      "velocity": 127,
      "chip": "ym2612"
    },
    {
      "channel": 5,
      "note": 66,
      "start": 76.7672,
      "duration": 0.09,
      "velocity": 127,
      "chip": "ym2612"
    },
    {
      "channel": 0,
      "note": 74,
      "start": 76.8489,
      "duration": 0.1678,
      "velocity": 95,
      "chip": "ym2612"
    },
    {
      "channel": 3,
      "note": 33,
      "start": 76.8539,
      "duration": 0.1749,
      "velocity": 113,
      "chip": "ym2612"
    },
    {
      "channel": 5,
      "note": 66,
      "start": 76.8579,
      "duration": 0.0772,
      "velocity": 127,
      "chip": "ym2612"
    },
    {
      "channel": 5,
      "note": 66,
      "start": 76.9357,
      "duration": 0.0971,
      "velocity": 127,
      "chip": "ym2612"
    },
    {
      "channel": 0,
      "note": 62,
      "start": 77.0173,
      "duration": 0.1705,
      "velocity": 95,
      "chip": "ym2612"
    },
    {
      "channel": 4,
      "note": 45,
      "start": 77.0271,
      "duration": 0.331,
      "velocity": 102,
      "chip": "ym2612"
    },
    {
      "channel": 3,
      "note": 33,
      "start": 77.0294,
      "duration": 0.1552,
      "velocity": 113,
      "chip": "ym2612"
    },
    {
      "channel": 5,
      "note": 66,
      "start": 77.0334,
      "duration": 0.0709,
      "velocity": 127,
      "chip": "ym2612"
    },
    {
      "channel": 5,
      "note": 66,
      "start": 77.1049,
      "duration": 0.0901,
      "velocity": 127,
      "chip": "ym2612"
    },
    {
      "channel": 3,
      "note": 33,
      "start": 77.1853,
      "duration": 0.1751,
      "velocity": 113,
      "chip": "ym2612"
    },
    {
      "channel": 0,
      "note": 74,
      "start": 77.1885,
      "duration": 0.1599,
      "velocity": 95,
      "chip": "ym2612"
    },
    {
      "channel": 5,
      "note": 66,
      "start": 77.1957,
      "duration": 0.0771,
      "velocity": 127,
      "chip": "ym2612"
    },
    {
      "channel": 5,
      "note": 66,
      "start": 77.2734,
      "duration": 0.091,
      "velocity": 127,
      "chip": "ym2612"
    },
    {
      "channel": 0,
      "note": 72,
      "start": 77.349,
      "duration": 0.1687,
      "velocity": 95,
      "chip": "ym2612"
    },
    {
      "channel": 4,
      "note": 45,
      "start": 77.3588,
      "duration": 0.3371,
      "velocity": 102,
      "chip": "ym2612"
    },
    {
      "channel": 3,
      "note": 33,
      "start": 77.361,
      "duration": 0.1616,
      "velocity": 113,
      "chip": "ym2612"
    },
    {
      "channel": 5,
      "note": 66,
      "start": 77.365,
      "duration": 0.0771,
      "velocity": 127,
      "chip": "ym2612"
    },
    {
      "channel": 5,
      "note": 66,
      "start": 77.4427,
      "duration": 0.0839,
      "velocity": 127,
      "chip": "ym2612"
    },
    {
      "channel": 0,
      "note": 60,
      "start": 77.5183,
      "duration": 0.1679,
      "velocity": 95,
      "chip": "ym2612"
    },
    {
      "channel": 3,
      "note": 33,
      "start": 77.5233,
      "duration": 0.1749,
      "velocity": 113,
      "chip": "ym2612"
    },
    {
      "channel": 5,
      "note": 66,
      "start": 77.5273,
      "duration": 0.0833,
      "velocity": 127,
      "chip": "ym2612"
    },
    {
      "channel": 5,
      "note": 66,
      "start": 77.6112,
      "duration": 0.0909,
      "velocity": 127,
      "chip": "ym2612"
    },
    {
      "channel": 0,
      "note": 67,
      "start": 77.6868,
      "duration": 0.1705,
      "velocity": 95,
      "chip": "ym2612"
    },
    {
      "channel": 4,
      "note": 45,
      "start": 77.6966,
      "duration": 0.336,
      "velocity": 102,
      "chip": "ym2612"
    },
    {
      "channel": 3,
      "note": 33,
      "start": 77.6988,
      "duration": 0.1553,
      "velocity": 113,
      "chip": "ym2612"
    },
    {
      "channel": 5,
      "note": 66,
      "start": 77.7028,
      "duration": 0.0741,
      "velocity": 127,
      "chip": "ym2612"
    },
    {
      "channel": 5,
      "note": 66,
      "start": 77.7775,
      "duration": 0.087,
      "velocity": 127,
      "chip": "ym2612"
    },
    {
      "channel": 3,
      "note": 33,
      "start": 77.8548,
      "duration": 0.1801,
      "velocity": 113,
      "chip": "ym2612"
    },
    {
      "channel": 0,
      "note": 55,
      "start": 77.8579,
      "duration": 0.1802,
      "velocity": 95,
      "chip": "ym2612"
    },
    {
      "channel": 5,
      "note": 66,
      "start": 77.8651,
      "duration": 0.0803,
      "velocity": 127,
      "chip": "ym2612"
    },
    {
      "channel": 5,
      "note": 66,
      "start": 77.9461,
      "duration": 0.0983,
      "velocity": 127,
      "chip": "ym2612"
    },
    {
      "channel": 2,
      "note": 76,
      "start": 78.0252,
      "duration": 0.6724,
      "velocity": 94,
      "chip": "ym2612"
    },
    {
      "channel": 1,
      "note": 45,
      "start": 78.0275,
      "duration": 5.3736,
      "velocity": 94,
      "chip": "ym2612"
    },
    {
      "channel": 4,
      "note": 45,
      "start": 78.0332,
      "duration": 0.3365,
      "velocity": 102,
      "chip": "ym2612"
    },
    {
      "channel": 3,
      "note": 33,
      "start": 78.0355,
      "duration": 0.1609,
      "velocity": 113,
      "chip": "ym2612"
    },
    {
      "channel": 0,
      "note": 69,
      "start": 78.0387,
      "duration": 0.1527,
      "velocity": 95,
      "chip": "ym2612"
    },
    {
      "channel": 5,
      "note": 66,
      "start": 78.045,
      "duration": 0.0709,
      "velocity": 127,
      "chip": "ym2612"
    },
    {
      "channel": 5,
      "note": 66,
      "start": 78.1165,
      "duration": 0.0838,
      "velocity": 127,
      "chip": "ym2612"
    },
    {
      "channel": 0,
      "note": 57,
      "start": 78.192,
      "duration": 0.1679,
      "velocity": 95,
      "chip": "ym2612"
    },
    {
      "channel": 3,
      "note": 33,
      "start": 78.1971,
      "duration": 0.1749,
      "velocity": 113,
      "chip": "ym2612"
    },
    {
      "channel": 5,
      "note": 66,
      "start": 78.201,
      "duration": 0.0772,
      "velocity": 127,
      "chip": "ym2612"
    },
    {
      "channel": 5,
      "note": 66,
      "start": 78.2788,
      "duration": 0.0971,
      "velocity": 127,
      "chip": "ym2612"
    },
    {
      "channel": 0,
      "note": 69,
      "start": 78.3605,
      "duration": 0.1705,
      "velocity": 95,
      "chip": "ym2612"
    },
    {
      "channel": 4,
      "note": 45,
      "start": 78.3703,
      "duration": 0.3408,
      "velocity": 102,
      "chip": "ym2612"
    },
    {
      "channel": 3,
      "note": 33,
      "start": 78.3726,
      "duration": 0.1553,
      "velocity": 113,
      "chip": "ym2612"
    },
    {
      "channel": 5,
      "note": 66,
      "start": 78.3766,
      "duration": 0.0709,
      "velocity": 127,
      "chip": "ym2612"
    },
    {
      "channel": 5,
      "note": 66,
      "start": 78.4481,
      "duration": 0.0901,
      "velocity": 127,
      "chip": "ym2612"
    },
    {
      "channel": 3,
      "note": 33,
      "start": 78.5285,
      "duration": 0.1776,
      "velocity": 113,
      "chip": "ym2612"
    },
    {
      "channel": 0,
      "note": 71,
      "start": 78.5317,
      "duration": 0.1686,
      "velocity": 95,
      "chip": "ym2612"
    },
    {
      "channel": 5,
      "note": 66,
      "start": 78.5389,
      "duration": 0.0771,
      "velocity": 127,
      "chip": "ym2612"
    },
    {
      "channel": 5,
      "note": 66,
      "start": 78.6166,
      "duration": 0.099,
      "velocity": 127,
      "chip": "ym2612"
    },
    {
      "channel": 2,
      "note": 77,
      "start": 78.6982,
      "duration": 0.6746,
      "velocity": 94,
      "chip": "ym2612"
    },
    {
      "channel": 0,
      "note": 59,
      "start": 78.701,
      "duration": 0.1649,
      "velocity": 95,
      "chip": "ym2612"
    },
    {
      "channel": 3,
      "note": 33,
      "start": 78.7067,
      "duration": 0.1641,
      "velocity": 113,
      "chip": "ym2612"
    },
    {
      "channel": 4,
      "note": 45,
      "start": 78.7118,
      "duration": 0.3323,
      "velocity": 102,
      "chip": "ym2612"
    },
    {
      "channel": 5,
      "note": 66,
      "start": 78.7163,
      "duration": 0.0679,
      "velocity": 127,
      "chip": "ym2612"
    },
    {
      "channel": 5,
      "note": 66,
      "start": 78.7848,
      "duration": 0.09,
      "velocity": 127,
      "chip": "ym2612"
    },
    {
      "channel": 0,
      "note": 71,
      "start": 78.8665,
      "duration": 0.1678,
      "velocity": 95,
      "chip": "ym2612"
    },
    {
      "channel": 3,
      "note": 33,
      "start": 78.8715,
      "duration": 0.1749,
      "velocity": 113,
      "chip": "ym2612"
    },
    {
      "channel": 5,
      "note": 66,
      "start": 78.8754,
      "duration": 0.0771,
      "velocity": 127,
      "chip": "ym2612"
    },
    {
      "channel": 5,
      "note": 66,
      "start": 78.9532,
      "duration": 0.0971,
      "velocity": 127,
      "chip": "ym2612"
    },
    {
      "channel": 0,
      "note": 72,
      "start": 79.0349,
      "duration": 0.1625,
      "velocity": 95,
      "chip": "ym2612"
    },
    {
      "channel": 4,
      "note": 45,
      "start": 79.0447,
      "duration": 0.3327,
      "velocity": 102,
      "chip": "ym2612"
    },
    {
      "channel": 3,
      "note": 33,
      "start": 79.047,
      "duration": 0.1554,
      "velocity": 113,
      "chip": "ym2612"
    },
    {
      "channel": 5,
      "note": 66,
      "start": 79.051,
      "duration": 0.0709,
      "velocity": 127,
      "chip": "ym2612"
    },
    {
      "channel": 5,
      "note": 66,
      "start": 79.1225,
      "duration": 0.0838,
      "velocity": 127,
      "chip": "ym2612"
    },
    {
      "channel": 0,
      "note": 60,
      "start": 79.1981,
      "duration": 0.1678,
      "velocity": 95,
      "chip": "ym2612"
    },
    {
      "channel": 3,
      "note": 33,
      "start": 79.203,
      "duration": 0.1767,
      "velocity": 113,
      "chip": "ym2612"
    },
    {
      "channel": 5,
      "note": 66,
      "start": 79.207,
      "duration": 0.0833,
      "velocity": 127,
      "chip": "ym2612"
    },
    {
      "channel": 5,
      "note": 66,
      "start": 79.291,
      "duration": 0.0927,
      "velocity": 127,
      "chip": "ym2612"
    },
    {
      "channel": 0,
      "note": 72,
      "start": 79.3665,
      "duration": 0.1738,
      "velocity": 95,
      "chip": "ym2612"
    },
    {
      "channel": 2,
      "note": 76,
      "start": 79.3735,
      "duration": 0.6737,
      "velocity": 94,
      "chip": "ym2612"
    },
    {
      "channel": 4,
      "note": 45,
      "start": 79.3781,
      "duration": 0.3341,
      "velocity": 102,
      "chip": "ym2612"
    },
    {
      "channel": 3,
      "note": 33,
      "start": 79.3803,
      "duration": 0.1567,
      "velocity": 113,
      "chip": "ym2612"
    },
    {
      "channel": 5,
      "note": 66,
      "start": 79.3843,
      "duration": 0.0741,
      "velocity": 127,
      "chip": "ym2612"
    },
    {
      "channel": 5,
      "note": 66,
      "start": 79.459,
      "duration": 0.0838,
      "velocity": 127,
      "chip": "ym2612"
    },
    {
      "channel": 3,
      "note": 33,
      "start": 79.5377,
      "duration": 0.1767,
      "velocity": 113,
      "chip": "ym2612"
    },
    {
      "channel": 0,
      "note": 74,
      "start": 79.541,
      "duration": 0.1676,
      "velocity": 95,
      "chip": "ym2612"
    },
    {
      "channel": 5,
      "note": 66,
      "start": 79.5435,
      "duration": 0.0834,
      "velocity": 127,
      "chip": "ym2612"
    },
    {
      "channel": 5,
      "note": 66,
      "start": 79.6275,
      "duration": 0.0909,
      "velocity": 127,
      "chip": "ym2612"
    },
    {
      "channel": 0,
      "note": 62,
      "start": 79.7091,
      "duration": 0.1626,
      "velocity": 95,
      "chip": "ym2612"
    },
    {
      "channel": 4,
      "note": 45,
      "start": 79.7128,
      "duration": 0.3389,
      "velocity": 102,
      "chip": "ym2612"
    },
    {
      "channel": 3,
      "note": 33,
      "start": 79.7151,
      "duration": 0.1617,
      "velocity": 113,
      "chip": "ym2612"
    },
    {
      "channel": 5,
      "note": 66,
      "start": 79.7191,
      "duration": 0.0771,
      "velocity": 127,
      "chip": "ym2612"
    },
    {
      "channel": 5,
      "note": 66,
      "start": 79.7968,
      "duration": 0.0839,
      "velocity": 127,
      "chip": "ym2612"
    },
    {
      "channel": 0,
      "note": 74,
      "start": 79.8723,
      "duration": 0.1679,
      "velocity": 95,
      "chip": "ym2612"
    },
    {
      "channel": 3,
      "note": 33,
      "start": 79.8773,
      "duration": 0.1766,
      "velocity": 113,
      "chip": "ym2612"
    },
    {
      "channel": 5,
      "note": 66,
      "start": 79.8814,
      "duration": 0.0833,
      "velocity": 127,
      "chip": "ym2612"
    },
    {
      "channel": 5,
      "note": 66,
      "start": 79.9653,
      "duration": 0.0927,
      "velocity": 127,
      "chip": "ym2612"
    },
    {
      "channel": 0,
      "note": 77,
      "start": 80.0408,
      "duration": 0.1674,
      "velocity": 95,
      "chip": "ym2612"
    },
    {
      "channel": 2,
      "note": 74,
      "start": 80.0478,
      "duration": 0.6737,
      "velocity": 94,
      "chip": "ym2612"
    },
    {
      "channel": 4,
      "note": 45,
      "start": 80.0523,
      "duration": 0.3341,
      "velocity": 102,
      "chip": "ym2612"
    },
    {
      "channel": 3,
      "note": 33,
      "start": 80.0546,
      "duration": 0.1586,
      "velocity": 113,
      "chip": "ym2612"
    },
    {
      "channel": 5,
      "note": 66,
      "start": 80.0586,
      "duration": 0.0679,
      "velocity": 127,
      "chip": "ym2612"
    },
    {
      "channel": 5,
      "note": 66,
      "start": 80.1271,
      "duration": 0.09,
      "velocity": 127,
      "chip": "ym2612"
    },
    {
      "channel": 0,
      "note": 65,
      "start": 80.2088,
      "duration": 0.1679,
      "velocity": 95,
      "chip": "ym2612"
    },
    {
      "channel": 3,
      "note": 33,
      "start": 80.2139,
      "duration": 0.1749,
      "velocity": 113,
      "chip": "ym2612"
    },
    {
      "channel": 5,
      "note": 66,
      "start": 80.2177,
      "duration": 0.0772,
      "velocity": 127,
      "chip": "ym2612"
    },
    {
      "channel": 5,
      "note": 66,
      "start": 80.2956,
      "duration": 0.0971,
      "velocity": 127,
      "chip": "ym2612"
    },
    {
      "channel": 0,
      "note": 77,
      "start": 80.3773,
      "duration": 0.1688,
      "velocity": 95,
      "chip": "ym2612"
    },
    {
      "channel": 4,
      "note": 45,
      "start": 80.3871,
      "duration": 0.339,
      "velocity": 102,
      "chip": "ym2612"
    },
    {
      "channel": 3,
      "note": 33,
      "start": 80.3894,
      "duration": 0.1616,
      "velocity": 113,
      "chip": "ym2612"
    },
    {
      "channel": 5,
      "note": 66,
      "start": 80.3933,
      "duration": 0.0709,
      "velocity": 127,
      "chip": "ym2612"
    },
    {
      "channel": 5,
      "note": 66,
      "start": 80.4649,
      "duration": 0.0901,
      "velocity": 127,
      "chip": "ym2612"
    },
    {
      "channel": 0,
      "note": 65,
      "start": 80.5466,
      "duration": 0.1679,
      "velocity": 95,
      "chip": "ym2612"
    },
    {
      "channel": 3,
      "note": 33,
      "start": 80.5516,
      "duration": 0.1767,
      "velocity": 113,
      "chip": "ym2612"
    },
    {
      "channel": 5,
      "note": 66,
      "start": 80.5556,
      "duration": 0.0771,
      "velocity": 127,
      "chip": "ym2612"
    },
    {
      "channel": 5,
      "note": 66,
      "start": 80.6334,
      "duration": 0.0989,
      "velocity": 127,
      "chip": "ym2612"
    },
    {
      "channel": 0,
      "note": 76,
      "start": 80.7151,
      "duration": 0.1674,
      "velocity": 95,
      "chip": "ym2612"
    },
    {
      "channel": 2,
      "note": 76,
      "start": 80.7221,
      "duration": 0.6658,
      "velocity": 94,
      "chip": "ym2612"
    },
    {
      "channel": 4,
      "note": 45,
      "start": 80.7267,
      "duration": 0.3272,
      "velocity": 102,
      "chip": "ym2612"
    },
    {
      "channel": 3,
      "note": 33,
      "start": 80.729,
      "duration": 0.1586,
      "velocity": 113,
      "chip": "ym2612"
    },
    {
      "channel": 5,
      "note": 66,
      "start": 80.7329,
      "duration": 0.0679,
      "velocity": 127,
      "chip": "ym2612"
    },
    {
      "channel": 5,
      "note": 66,
      "start": 80.8015,
      "duration": 0.09,
      "velocity": 127,
      "chip": "ym2612"
    },
    {
      "channel": 0,
      "note": 64,
      "start": 80.8832,
      "duration": 0.1662,
      "velocity": 95,
      "chip": "ym2612"
    },
    {
      "channel": 3,
      "note": 33,
      "start": 80.8882,
      "duration": 0.1681,
      "velocity": 113,
      "chip": "ym2612"
    },
    {
      "channel": 5,
      "note": 66,
      "start": 80.8921,
      "duration": 0.0772,
      "velocity": 127,
      "chip": "ym2612"
    },
    {
      "channel": 5,
      "note": 66,
      "start": 80.97,
      "duration": 0.094,
      "velocity": 127,
      "chip": "ym2612"
    },
    {
      "channel": 0,
      "note": 76,
      "start": 81.05,
      "duration": 0.1705,
      "velocity": 95,
      "chip": "ym2612"
    },
    {
      "channel": 4,
      "note": 45,
      "start": 81.0546,
      "duration": 0.3397,
      "velocity": 102,
      "chip": "ym2612"
    },
    {
      "channel": 3,
      "note": 33,
      "start": 81.0569,
      "duration": 0.1604,
      "velocity": 113,
      "chip": "ym2612"
    },
    {
      "channel": 5,
      "note": 66,
      "start": 81.0646,
      "duration": 0.074,
      "velocity": 127,
      "chip": "ym2612"
    },
    {
      "channel": 5,
      "note": 66,
      "start": 81.1393,
      "duration": 0.0839,
      "velocity": 127,
      "chip": "ym2612"
    },
    {
      "channel": 3,
      "note": 33,
      "start": 81.218,
      "duration": 0.1786,
      "velocity": 113,
      "chip": "ym2612"
    },
    {
      "channel": 0,
      "note": 74,
      "start": 81.2212,
      "duration": 0.1694,
      "velocity": 95,
      "chip": "ym2612"
    },
    {
      "channel": 5,
      "note": 66,
      "start": 81.2238,
      "duration": 0.0834,
      "velocity": 127,
      "chip": "ym2612"
    },
    {
      "channel": 5,
      "note": 66,
      "start": 81.3078,
      "duration": 0.0927,
      "velocity": 127,
      "chip": "ym2612"
    },
    {
      "channel": 2,
      "note": 77,
      "start": 81.3885,
      "duration": 1.0134,
      "velocity": 94,
      "chip": "ym2612"
    },
    {
      "channel": 0,
      "note": 62,
      "start": 81.3912,
      "duration": 0.1644,
      "velocity": 95,
      "chip": "ym2612"
    },
    {
      "channel": 4,
      "note": 45,
      "start": 81.3949,
      "duration": 0.3335,
      "velocity": 102,
      "chip": "ym2612"
    },
    {
      "channel": 3,
      "note": 33,
      "start": 81.3972,
      "duration": 0.1553,
      "velocity": 113,
      "chip": "ym2612"
    },
    {
      "channel": 5,
      "note": 66,
      "start": 81.4011,
      "duration": 0.0741,
      "velocity": 127,
      "chip": "ym2612"
    },
    {
      "channel": 5,
      "note": 66,
      "start": 81.4759,
      "duration": 0.087,
      "velocity": 127,
      "chip": "ym2612"
    },
    {
      "channel": 3,
      "note": 33,
      "start": 81.553,
      "duration": 0.1777,
      "velocity": 113,
      "chip": "ym2612"
    },
    {
      "channel": 0,
      "note": 74,
      "start": 81.5563,
      "duration": 0.1676,
      "velocity": 95,
      "chip": "ym2612"
    },
    {
      "channel": 5,
      "note": 66,
      "start": 81.5635,
      "duration": 0.0803,
      "velocity": 127,
      "chip": "ym2612"
    },
    {
      "channel": 5,
      "note": 66,
      "start": 81.6444,
      "duration": 0.0939,
      "velocity": 127,
      "chip": "ym2612"
    },
    {
      "channel": 0,
      "note": 76,
      "start": 81.7245,
      "duration": 0.1705,
      "velocity": 95,
      "chip": "ym2612"
    },
    {
      "channel": 4,
      "note": 45,
      "start": 81.729,
      "duration": 0.3379,
      "velocity": 102,
      "chip": "ym2612"
    },
    {
      "channel": 3,
      "note": 33,
      "start": 81.7314,
      "duration": 0.1604,
      "velocity": 113,
      "chip": "ym2612"
    },
    {
      "channel": 5,
      "note": 66,
      "start": 81.739,
      "duration": 0.0741,
      "velocity": 127,
      "chip": "ym2612"
    },
    {
      "channel": 5,
      "note": 66,
      "start": 81.8137,
      "duration": 0.0838,
      "velocity": 127,
      "chip": "ym2612"
    },
    {
      "channel": 3,
      "note": 33,
      "start": 81.8924,
      "duration": 0.1768,
      "velocity": 113,
      "chip": "ym2612"
    },
    {
      "channel": 0,
      "note": 64,
      "start": 81.8956,
      "duration": 0.1676,
      "velocity": 95,
      "chip": "ym2612"
    },
    {
      "channel": 5,
      "note": 66,
      "start": 81.8981,
      "duration": 0.0772,
      "velocity": 127,
      "chip": "ym2612"
    },
    {
      "channel": 5,
      "note": 66,
      "start": 81.9759,
      "duration": 0.0972,
      "velocity": 127,
      "chip": "ym2612"
    },
    {
      "channel": 0,
      "note": 76,
      "start": 82.0638,
      "duration": 0.1627,
      "velocity": 95,
      "chip": "ym2612"
    },
    {
      "channel": 4,
      "note": 45,
      "start": 82.0675,
      "duration": 0.339,
      "velocity": 102,
      "chip": "ym2612"
    },
    {
      "channel": 3,
      "note": 33,
      "start": 82.0698,
      "duration": 0.1617,
      "velocity": 113,
      "chip": "ym2612"
    },
    {
      "channel": 5,
      "note": 66,
      "start": 82.0738,
      "duration": 0.0709,
      "velocity": 127,
      "chip": "ym2612"
    },
    {
      "channel": 5,
      "note": 66,
      "start": 82.1454,
      "duration": 0.0901,
      "velocity": 127,
      "chip": "ym2612"
    },
    {
      "channel": 0,
      "note": 74,
      "start": 82.2271,
      "duration": 0.1679,
      "velocity": 95,
      "chip": "ym2612"
    },
    {
      "channel": 3,
      "note": 33,
      "start": 82.232,
      "duration": 0.1768,
      "velocity": 113,
      "chip": "ym2612"
    },
    {
      "channel": 5,
      "note": 66,
      "start": 82.2361,
      "duration": 0.0772,
      "velocity": 127,
      "chip": "ym2612"
    },
    {
      "channel": 5,
      "note": 66,
      "start": 82.3139,
      "duration": 0.0989,
      "velocity": 127,
      "chip": "ym2612"
    },
    {
      "channel": 0,
      "note": 62,
      "start": 82.3956,
      "duration": 0.1675,
      "velocity": 95,
      "chip": "ym2612"
    },
    {
      "channel": 2,
      "note": 76,
      "start": 82.4026,
      "duration": 0.336,
      "velocity": 94,
      "chip": "ym2612"
    },
    {
      "channel": 4,
      "note": 45,
      "start": 82.4072,
      "duration": 0.336,
      "velocity": 102,
      "chip": "ym2612"
    },
    {
      "channel": 3,
      "note": 33,
      "start": 82.4095,
      "duration": 0.1586,
      "velocity": 113,
      "chip": "ym2612"
    },
    {
      "channel": 5,
      "note": 66,
      "start": 82.4134,
      "duration": 0.068,
      "velocity": 127,
      "chip": "ym2612"
    },
    {
      "channel": 5,
      "note": 66,
      "start": 82.482,
      "duration": 0.09,
      "velocity": 127,
      "chip": "ym2612"
    },
    {
      "channel": 0,
      "note": 74,
      "start": 82.5637,
      "duration": 0.1679,
      "velocity": 95,
      "chip": "ym2612"
    },
    {
      "channel": 3,
      "note": 33,
      "start": 82.5687,
      "duration": 0.1767,
      "velocity": 113,
      "chip": "ym2612"
    },
    {
      "channel": 5,
      "note": 66,
      "start": 82.5726,
      "duration": 0.0772,
      "velocity": 127,
      "chip": "ym2612"
    },
    {
      "channel": 5,
      "note": 66,
      "start": 82.6505,
      "duration": 0.0989,
      "velocity": 127,
      "chip": "ym2612"
    },
    {
      "channel": 0,
      "note": 72,
      "start": 82.7322,
      "duration": 0.1661,
      "velocity": 95,
      "chip": "ym2612"
    },
    {
      "channel": 2,
      "note": 74,
      "start": 82.7392,
      "duration": 0.3257,
      "velocity": 94,
      "chip": "ym2612"
    },
    {
      "channel": 4,
      "note": 45,
      "start": 82.7438,
      "duration": 0.3347,
      "velocity": 102,
      "chip": "ym2612"
    },
    {
      "channel": 3,
      "note": 33,
      "start": 82.7461,
      "duration": 0.1491,
      "velocity": 113,
      "chip": "ym2612"
    },
    {
      "channel": 5,
      "note": 66,
      "start": 82.75,
      "duration": 0.0678,
      "velocity": 127,
      "chip": "ym2612"
    },
    {
      "channel": 5,
      "note": 66,
      "start": 82.8185,
      "duration": 0.087,
      "velocity": 127,
      "chip": "ym2612"
    },
    {
      "channel": 3,
      "note": 33,
      "start": 82.8958,
      "duration": 0.1776,
      "velocity": 113,
      "chip": "ym2612"
    },
    {
      "channel": 0,
      "note": 60,
      "start": 82.899,
      "duration": 0.1686,
      "velocity": 95,
      "chip": "ym2612"
    },
    {
      "channel": 5,
      "note": 66,
      "start": 82.9062,
      "duration": 0.0802,
      "velocity": 127,
      "chip": "ym2612"
    },
    {
      "channel": 5,
      "note": 66,
      "start": 82.987,
      "duration": 0.0959,
      "velocity": 127,
      "chip": "ym2612"
    },
    {
      "channel": 2,
      "note": 69,
      "start": 83.0655,
      "duration": 0.3437,
      "velocity": 94,
      "chip": "ym2612"
    },
    {
      "channel": 0,
      "note": 67,
      "start": 83.0683,
      "duration": 0.1648,
      "velocity": 95,
      "chip": "ym2612"
    },
    {
      "channel": 3,
      "note": 33,
      "start": 83.074,
      "duration": 0.1641,
      "velocity": 113,
      "chip": "ym2612"
    },
    {
      "channel": 4,
      "note": 45,
      "start": 83.0791,
      "duration": 0.3365,
      "velocity": 102,
      "chip": "ym2612"
    },
    {
      "channel": 5,
      "note": 66,
      "start": 83.0836,
      "duration": 0.074,
      "velocity": 127,
      "chip": "ym2612"
    },
    {
      "channel": 5,
      "note": 66,
      "start": 83.1582,
      "duration": 0.0839,
      "velocity": 127,
      "chip": "ym2612"
    },
    {
      "channel": 0,
      "note": 55,
      "start": 83.2337,
      "duration": 0.1783,
      "velocity": 95,
      "chip": "ym2612"
    },
    {
      "channel": 3,
      "note": 33,
      "start": 83.2387,
      "duration": 0.1791,
      "velocity": 113,
      "chip": "ym2612"
    },
    {
      "channel": 5,
      "note": 66,
      "start": 83.2427,
      "duration": 0.0833,
      "velocity": 127,
      "chip": "ym2612"
    },
    {
      "channel": 5,
      "note": 66,
      "start": 83.3266,
      "duration": 0.0952,
      "velocity": 127,
      "chip": "ym2612"
    },
    {
      "channel": 1,
      "note": 57,
      "start": 83.4017,
      "duration": 5.3874,
      "velocity": 94,
      "chip": "ym2612"
    },
    {
      "channel": 2,
      "note": 79,
      "start": 83.4098,
      "duration": 0.6723,
      "velocity": 94,
      "chip": "ym2612"
    },
    {
      "channel": 0,
      "note": 69,
      "start": 83.4126,
      "duration": 0.1628,
      "velocity": 95,
      "chip": "ym2612"
    },
    {
      "channel": 4,
      "note": 45,
      "start": 83.4163,
      "duration": 0.3309,
      "velocity": 102,
      "chip": "ym2612"
    },
    {
      "channel": 3,
      "note": 33,
      "start": 83.4185,
      "duration": 0.1536,
      "velocity": 113,
      "chip": "ym2612"
    },
    {
      "channel": 5,
      "note": 66,
      "start": 83.4225,
      "duration": 0.0709,
      "velocity": 127,
      "chip": "ym2612"
    },
    {
      "channel": 5,
      "note": 66,
      "start": 83.4941,
      "duration": 0.0838,
      "velocity": 127,
      "chip": "ym2612"
    },
    {
      "channel": 3,
      "note": 33,
      "start": 83.5728,
      "duration": 0.1767,
      "velocity": 113,
      "chip": "ym2612"
    },
    {
      "channel": 0,
      "note": 57,
      "start": 83.576,
      "duration": 0.1676,
      "velocity": 95,
      "chip": "ym2612"
    },
    {
      "channel": 5,
      "note": 66,
      "start": 83.5785,
      "duration": 0.0833,
      "velocity": 127,
      "chip": "ym2612"
    },
    {
      "channel": 5,
      "note": 66,
      "start": 83.6625,
      "duration": 0.091,
      "velocity": 127,
      "chip": "ym2612"
    },
    {
      "channel": 0,
      "note": 69,
      "start": 83.7441,
      "duration": 0.1627,
      "velocity": 95,
      "chip": "ym2612"
    },
    {
      "channel": 4,
      "note": 45,
      "start": 83.7478,
      "duration": 0.339,
      "velocity": 102,
      "chip": "ym2612"
    },
    {
      "channel": 3,
      "note": 33,
      "start": 83.7501,
      "duration": 0.1616,
      "velocity": 113,
      "chip": "ym2612"
    },
    {
      "channel": 5,
      "note": 66,
      "start": 83.7541,
      "duration": 0.0709,
      "velocity": 127,
      "chip": "ym2612"
    },
    {
      "channel": 5,
      "note": 66,
      "start": 83.8257,
      "duration": 0.09,
      "velocity": 127,
      "chip": "ym2612"
    },
    {
      "channel": 0,
      "note": 71,
      "start": 83.9074,
      "duration": 0.1679,
      "velocity": 95,
      "chip": "ym2612"
    },
    {
      "channel": 3,
      "note": 33,
      "start": 83.9124,
      "duration": 0.1766,
      "velocity": 113,
      "chip": "ym2612"
    },
    {
      "channel": 5,
      "note": 66,
      "start": 83.9163,
      "duration": 0.0772,
      "velocity": 127,
      "chip": "ym2612"
    },
    {
      "channel": 5,
      "note": 66,
      "start": 83.9941,
      "duration": 0.0989,
      "velocity": 127,
      "chip": "ym2612"
    },
    {
      "channel": 0,
      "note": 59,
      "start": 84.0759,
      "duration": 0.1674,
      "velocity": 95,
      "chip": "ym2612"
    },
    {
      "channel": 2,
      "note": 77,
      "start": 84.0828,
      "duration": 0.6658,
      "velocity": 94,
      "chip": "ym2612"
    },
    {
      "channel": 4,
      "note": 45,
      "start": 84.0875,
      "duration": 0.3341,
      "velocity": 102,
      "chip": "ym2612"
    },
    {
      "channel": 3,
      "note": 33,
      "start": 84.0897,
      "duration": 0.1587,
      "velocity": 113,
      "chip": "ym2612"
    },
    {
      "channel": 5,
      "note": 66,
      "start": 84.0937,
      "duration": 0.0679,
      "velocity": 127,
      "chip": "ym2612"
    },
    {
      "channel": 5,
      "note": 66,
      "start": 84.1622,
      "duration": 0.09,
      "velocity": 127,
      "chip": "ym2612"
    },
    {
      "channel": 0,
      "note": 71,
      "start": 84.2439,
      "duration": 0.1679,
      "velocity": 95,
      "chip": "ym2612"
    },
    {
      "channel": 3,
      "note": 33,
      "start": 84.249,
      "duration": 0.1749,
      "velocity": 113,
      "chip": "ym2612"
    },
    {
      "channel": 5,
      "note": 66,
      "start": 84.2529,
      "duration": 0.0772,
      "velocity": 127,
      "chip": "ym2612"
    },
    {
      "channel": 5,
      "note": 66,
      "start": 84.3307,
      "duration": 0.0971,
      "velocity": 127,
      "chip": "ym2612"
    },
    {
      "channel": 0,
      "note": 72,
      "start": 84.4124,
      "duration": 0.1687,
      "velocity": 95,
      "chip": "ym2612"
    },
    {
      "channel": 4,
      "note": 45,
      "start": 84.4222,
      "duration": 0.3328,
      "velocity": 102,
      "chip": "ym2612"
    },
    {
      "channel": 3,
      "note": 33,
      "start": 84.4245,
      "duration": 0.1617,
      "velocity": 113,
      "chip": "ym2612"
    },
    {
      "channel": 5,
      "note": 66,
      "start": 84.4285,
      "duration": 0.0709,
      "velocity": 127,
      "chip": "ym2612"
    },
    {
      "channel": 5,
      "note": 66,
      "start": 84.5,
      "duration": 0.0901,
      "velocity": 127,
      "chip": "ym2612"
    },
    {
      "channel": 0,
      "note": 60,
      "start": 84.5818,
      "duration": 0.1695,
      "velocity": 95,
      "chip": "ym2612"
    },
    {
      "channel": 3,
      "note": 33,
      "start": 84.5868,
      "duration": 0.1705,
      "velocity": 113,
      "chip": "ym2612"
    },
    {
      "channel": 5,
      "note": 66,
      "start": 84.5908,
      "duration": 0.0772,
      "velocity": 127,
      "chip": "ym2612"
    },
    {
      "channel": 5,
      "note": 66,
      "start": 84.6686,
      "duration": 0.0927,
      "velocity": 127,
      "chip": "ym2612"
    },
    {
      "channel": 2,
      "note": 76,
      "start": 84.7492,
      "duration": 0.6737,
      "velocity": 94,
      "chip": "ym2612"
    },
    {
      "channel": 0,
      "note": 72,
      "start": 84.752,
      "duration": 0.1644,
      "velocity": 95,
      "chip": "ym2612"
    },
    {
      "channel": 4,
      "note": 45,
      "start": 84.7556,
      "duration": 0.3334,
      "velocity": 102,
      "chip": "ym2612"
    },
    {
      "channel": 3,
      "note": 33,
      "start": 84.7579,
      "duration": 0.1553,
      "velocity": 113,
      "chip": "ym2612"
    },
    {
      "channel": 5,
      "note": 66,
      "start": 84.7619,
      "duration": 0.0741,
      "velocity": 127,
      "chip": "ym2612"
    },
    {
      "channel": 5,
      "note": 66,
      "start": 84.8366,
      "duration": 0.087,
      "velocity": 127,
      "chip": "ym2612"
    },
    {
      "channel": 3,
      "note": 33,
      "start": 84.9138,
      "duration": 0.1776,
      "velocity": 113,
      "chip": "ym2612"
    },
    {
      "channel": 0,
      "note": 74,
      "start": 84.917,
      "duration": 0.1675,
      "velocity": 95,
      "chip": "ym2612"
    },
    {
      "channel": 5,
      "note": 66,
      "start": 84.9242,
      "duration": 0.0802,
      "velocity": 127,
      "chip": "ym2612"
    },
    {
      "channel": 5,
      "note": 66,
      "start": 85.0051,
      "duration": 0.0939,
      "velocity": 127,
      "chip": "ym2612"
    },
    {
      "channel": 0,
      "note": 62,
      "start": 85.0852,
      "duration": 0.1705,
      "velocity": 95,
      "chip": "ym2612"
    },
    {
      "channel": 4,
      "note": 45,
      "start": 85.0897,
      "duration": 0.3397,
      "velocity": 102,
      "chip": "ym2612"
    },
    {
      "channel": 3,
      "note": 33,
      "start": 85.092,
      "duration": 0.1605,
      "velocity": 113,
      "chip": "ym2612"
    },
    {
      "channel": 5,
      "note": 66,
      "start": 85.0997,
      "duration": 0.0741,
      "velocity": 127,
      "chip": "ym2612"
    },
    {
      "channel": 5,
      "note": 66,
      "start": 85.1744,
      "duration": 0.0838,
      "velocity": 127,
      "chip": "ym2612"
    },
    {
      "channel": 3,
      "note": 33,
      "start": 85.2531,
      "duration": 0.1785,
      "velocity": 113,
      "chip": "ym2612"
    },
    {
      "channel": 0,
      "note": 74,
      "start": 85.2563,
      "duration": 0.1693,
      "velocity": 95,
      "chip": "ym2612"
    },
    {
      "channel": 5,
      "note": 66,
      "start": 85.2589,
      "duration": 0.0833,
      "velocity": 127,
      "chip": "ym2612"
    },
    {
      "channel": 5,
      "note": 66,
      "start": 85.3429,
      "duration": 0.0927,
      "velocity": 127,
      "chip": "ym2612"
    },
    {
      "channel": 2,
      "note": 74,
      "start": 85.4235,
      "duration": 0.6949,
      "velocity": 94,
      "chip": "ym2612"
    },
    {
      "channel": 0,
      "note": 77,
      "start": 85.4263,
      "duration": 0.1644,
      "velocity": 95,
      "chip": "ym2612"
    },
    {
      "channel": 4,
      "note": 45,
      "start": 85.43,
      "duration": 0.3333,
      "velocity": 102,
      "chip": "ym2612"
    },
    {
      "channel": 3,
      "note": 33,
      "start": 85.4322,
      "duration": 0.1553,
      "velocity": 113,
      "chip": "ym2612"
    },
    {
      "channel": 5,
      "note": 66,
      "start": 85.4363,
      "duration": 0.0741,
      "velocity": 127,
      "chip": "ym2612"
    },
    {
      "channel": 5,
      "note": 66,
      "start": 85.5109,
      "duration": 0.087,
      "velocity": 127,
      "chip": "ym2612"
    },
    {
      "channel": 3,
      "note": 33,
      "start": 85.5882,
      "duration": 0.1775,
      "velocity": 113,
      "chip": "ym2612"
    },
    {
      "channel": 0,
      "note": 65,
      "start": 85.5913,
      "duration": 0.1675,
      "velocity": 95,
      "chip": "ym2612"
    },
    {
      "channel": 5,
      "note": 66,
      "start": 85.5985,
      "duration": 0.0771,
      "velocity": 127,
      "chip": "ym2612"
    },
    {
      "channel": 5,
      "note": 66,
      "start": 85.6763,
      "duration": 0.0971,
      "velocity": 127,
      "chip": "ym2612"
    },
    {
      "channel": 0,
      "note": 77,
      "start": 85.7595,
      "duration": 0.1706,
      "velocity": 95,
      "chip": "ym2612"
    },
    {
      "channel": 4,
      "note": 45,
      "start": 85.764,
      "duration": 0.3508,
      "velocity": 102,
      "chip": "ym2612"
    },
    {
      "channel": 3,
      "note": 33,
      "start": 85.7663,
      "duration": 0.1605,
      "velocity": 113,
      "chip": "ym2612"
    },
    {
      "channel": 5,
      "note": 66,
      "start": 85.774,
      "duration": 0.0678,
      "velocity": 127,
      "chip": "ym2612"
    },
    {
      "channel": 5,
      "note": 66,
      "start": 85.8425,
      "duration": 0.0901,
      "velocity": 127,
      "chip": "ym2612"
    },
    {
      "channel": 3,
      "note": 33,
      "start": 85.9274,
      "duration": 0.1954,
      "velocity": 113,
      "chip": "ym2612"
    },
    {
      "channel": 0,
      "note": 65,
      "start": 85.9307,
      "duration": 0.168,
      "velocity": 95,
      "chip": "ym2612"
    },
    {
      "channel": 5,
      "note": 66,
      "start": 85.9332,
      "duration": 0.0771,
      "velocity": 127,
      "chip": "ym2612"
    },
    {
      "channel": 5,
      "note": 66,
      "start": 86.0109,
      "duration": 0.0961,
      "velocity": 127,
      "chip": "ym2612"
    },
    {
      "channel": 0,
      "note": 76,
      "start": 86.0993,
      "duration": 0.1642,
      "velocity": 95,
      "chip": "ym2612"
    },
    {
      "channel": 5,
      "note": 66,
      "start": 86.1077,
      "duration": 0.0733,
      "velocity": 127,
      "chip": "ym2612"
    },
    {
      "channel": 4,
      "note": 45,
      "start": 86.1154,
      "duration": 0.3232,
      "velocity": 102,
      "chip": "ym2612"
    },
    {
      "channel": 2,
      "note": 57,
      "start": 86.119,
      "duration": 0.6472,
      "velocity": 94,
      "chip": "ym2612"
    },
    {
      "channel": 3,
      "note": 33,
      "start": 86.1235,
      "duration": 0.145,
      "velocity": 113,
      "chip": "ym2612"
    },
    {
      "channel": 5,
      "note": 66,
      "start": 86.1816,
      "duration": 0.0908,
      "velocity": 127,
      "chip": "ym2612"
    },
    {
      "channel": 0,
      "note": 64,
      "start": 86.2641,
      "duration": 0.1709,
      "velocity": 95,
      "chip": "ym2612"
    },
    {
      "channel": 3,
      "note": 33,
      "start": 86.2691,
      "duration": 0.1718,
      "velocity": 113,
      "chip": "ym2612"
    },
    {
      "channel": 5,
      "note": 66,
      "start": 86.2731,
      "duration": 0.0772,
      "velocity": 127,
      "chip": "ym2612"
    },
    {
      "channel": 5,
      "note": 66,
      "start": 86.3509,
      "duration": 0.0941,
      "velocity": 127,
      "chip": "ym2612"
    },
    {
      "channel": 0,
      "note": 76,
      "start": 86.4357,
      "duration": 0.1602,
      "velocity": 95,
      "chip": "ym2612"
    },
    {
      "channel": 4,
      "note": 45,
      "start": 86.4393,
      "duration": 0.3399,
      "velocity": 102,
      "chip": "ym2612"
    },
    {
      "channel": 3,
      "note": 33,
      "start": 86.4416,
      "duration": 0.1593,
      "velocity": 113,
      "chip": "ym2612"
    },
    {
      "channel": 5,
      "note": 66,
      "start": 86.4456,
      "duration": 0.0709,
      "velocity": 127,
      "chip": "ym2612"
    },
    {
      "channel": 5,
      "note": 66,
      "start": 86.5172,
      "duration": 0.0877,
      "velocity": 127,
      "chip": "ym2612"
    },
    {
      "channel": 0,
      "note": 74,
      "start": 86.5965,
      "duration": 0.1724,
      "velocity": 95,
      "chip": "ym2612"
    },
    {
      "channel": 3,
      "note": 33,
      "start": 86.6015,
      "duration": 0.18,
      "velocity": 113,
      "chip": "ym2612"
    },
    {
      "channel": 5,
      "note": 66,
      "start": 86.6055,
      "duration": 0.0803,
      "velocity": 127,
      "chip": "ym2612"
    },
    {
      "channel": 5,
      "note": 66,
      "start": 86.6864,
      "duration": 0.0905,
      "velocity": 127,
      "chip": "ym2612"
    },
    {
      "channel": 2,
      "note": 59,
      "start": 86.7668,
      "duration": 2.0127,
      "velocity": 94,
      "chip": "ym2612"
    },
    {
      "channel": 0,
      "note": 62,
      "start": 86.7696,
      "duration": 0.1612,
      "velocity": 95,
      "chip": "ym2612"
    },
    {
      "channel": 5,
      "note": 66,
      "start": 86.7775,
      "duration": 0.0777,
      "velocity": 127,
      "chip": "ym2612"
    },
    {
      "channel": 4,
      "note": 47,
      "start": 86.7798,
      "duration": 0.3299,
      "velocity": 102,
      "chip": "ym2612"
    },
    {
      "channel": 3,
      "note": 35,
      "start": 86.7821,
      "duration": 0.1593,
      "velocity": 113,
      "chip": "ym2612"
    },
    {
      "channel": 5,
      "note": 66,
      "start": 86.8559,
      "duration": 0.0828,
      "velocity": 127,
      "chip": "ym2612"
    },
    {
      "channel": 0,
      "note": 74,
      "start": 86.9314,
      "duration": 0.1686,
      "velocity": 95,
      "chip": "ym2612"
    },
    {
      "channel": 5,
      "note": 66,
      "start": 86.9393,
      "duration": 0.0851,
      "velocity": 127,
      "chip": "ym2612"
    },
    {
      "channel": 3,
      "note": 35,
      "start": 86.942,
      "duration": 0.17,
      "velocity": 113,
      "chip": "ym2612"
    },
    {
      "channel": 5,
      "note": 66,
      "start": 87.0251,
      "duration": 0.0909,
      "velocity": 127,
      "chip": "ym2612"
    },
    {
      "channel": 0,
      "note": 76,
      "start": 87.1006,
      "duration": 0.1694,
      "velocity": 95,
      "chip": "ym2612"
    },
    {
      "channel": 4,
      "note": 47,
      "start": 87.1104,
      "duration": 0.3349,
      "velocity": 102,
      "chip": "ym2612"
    },
    {
      "channel": 3,
      "note": 35,
      "start": 87.1127,
      "duration": 0.1624,
      "velocity": 113,
      "chip": "ym2612"
    },
    {
      "channel": 5,
      "note": 66,
      "start": 87.1166,
      "duration": 0.0741,
      "velocity": 127,
      "chip": "ym2612"
    },
    {
      "channel": 5,
      "note": 66,
      "start": 87.1913,
      "duration": 0.0877,
      "velocity": 127,
      "chip": "ym2612"
    },
    {
      "channel": 0,
      "note": 64,
      "start": 87.2707,
      "duration": 0.1709,
      "velocity": 95,
      "chip": "ym2612"
    },
    {
      "channel": 3,
      "note": 35,
      "start": 87.2757,
      "duration": 0.1718,
      "velocity": 113,
      "chip": "ym2612"
    },
    {
      "channel": 5,
      "note": 66,
      "start": 87.2796,
      "duration": 0.0803,
      "velocity": 127,
      "chip": "ym2612"
    },
    {
      "channel": 5,
      "note": 66,
      "start": 87.3605,
      "duration": 0.091,
      "velocity": 127,
      "chip": "ym2612"
    },
    {
      "channel": 0,
      "note": 76,
      "start": 87.4422,
      "duration": 0.1627,
      "velocity": 95,
      "chip": "ym2612"
    },
    {
      "channel": 4,
      "note": 47,
      "start": 87.4459,
      "duration": 0.338,
      "velocity": 102,
      "chip": "ym2612"
    },
    {
      "channel": 3,
      "note": 35,
      "start": 87.4481,
      "duration": 0.1673,
      "velocity": 113,
      "chip": "ym2612"
    },
    {
      "channel": 5,
      "note": 66,
      "start": 87.4522,
      "duration": 0.0709,
      "velocity": 127,
      "chip": "ym2612"
    },
    {
      "channel": 5,
      "note": 66,
      "start": 87.5237,
      "duration": 0.0889,
      "velocity": 127,
      "chip": "ym2612"
    },
    {
      "channel": 0,
      "note": 74,
      "start": 87.6054,
      "duration": 0.1686,
      "velocity": 95,
      "chip": "ym2612"
    },
    {
      "channel": 5,
      "note": 66,
      "start": 87.6133,
      "duration": 0.0791,
      "velocity": 127,
      "chip": "ym2612"
    },
    {
      "channel": 3,
      "note": 35,
      "start": 87.6161,
      "duration": 0.17,
      "velocity": 113,
      "chip": "ym2612"
    },
    {
      "channel": 5,
      "note": 66,
      "start": 87.693,
      "duration": 0.0971,
      "velocity": 127,
      "chip": "ym2612"
    },
    {
      "channel": 0,
      "note": 62,
      "start": 87.7747,
      "duration": 0.1695,
      "velocity": 95,
      "chip": "ym2612"
    },
    {
      "channel": 4,
      "note": 47,
      "start": 87.7845,
      "duration": 0.3349,
      "velocity": 102,
      "chip": "ym2612"
    },
    {
      "channel": 3,
      "note": 35,
      "start": 87.7868,
      "duration": 0.1624,
      "velocity": 113,
      "chip": "ym2612"
    },
    {
      "channel": 5,
      "note": 66,
      "start": 87.7907,
      "duration": 0.0709,
      "velocity": 127,
      "chip": "ym2612"
    },
    {
      "channel": 5,
      "note": 66,
      "start": 87.8623,
      "duration": 0.0908,
      "velocity": 127,
      "chip": "ym2612"
    },
    {
      "channel": 0,
      "note": 74,
      "start": 87.9448,
      "duration": 0.1709,
      "velocity": 95,
      "chip": "ym2612"
    },
    {
      "channel": 3,
      "note": 35,
      "start": 87.9498,
      "duration": 0.1718,
      "velocity": 113,
      "chip": "ym2612"
    },
    {
      "channel": 5,
      "note": 66,
      "start": 87.9537,
      "duration": 0.0772,
      "velocity": 127,
      "chip": "ym2612"
    },
    {
      "channel": 5,
      "note": 66,
      "start": 88.0315,
      "duration": 0.0941,
      "velocity": 127,
      "chip": "ym2612"
    },
    {
      "channel": 0,
      "note": 72,
      "start": 88.1163,
      "duration": 0.1626,
      "velocity": 95,
      "chip": "ym2612"
    },
    {
      "channel": 4,
      "note": 47,
      "start": 88.12,
      "duration": 0.3317,
      "velocity": 102,
      "chip": "ym2612"
    },
    {
      "channel": 3,
      "note": 35,
      "start": 88.1222,
      "duration": 0.1673,
      "velocity": 113,
      "chip": "ym2612"
    },
    {
      "channel": 5,
      "note": 66,
      "start": 88.1263,
      "duration": 0.0709,
      "velocity": 127,
      "chip": "ym2612"
    },
    {
      "channel": 5,
      "note": 66,
      "start": 88.1978,
      "duration": 0.089,
      "velocity": 127,
      "chip": "ym2612"
    },
    {
      "channel": 0,
      "note": 60,
      "start": 88.2796,
      "duration": 0.1685,
      "velocity": 95,
      "chip": "ym2612"
    },
    {
      "channel": 5,
      "note": 66,
      "start": 88.2875,
      "duration": 0.0789,
      "velocity": 127,
      "chip": "ym2612"
    },
    {
      "channel": 3,
      "note": 35,
      "start": 88.2902,
      "duration": 0.1637,
      "velocity": 113,
      "chip": "ym2612"
    },
    {
      "channel": 5,
      "note": 66,
      "start": 88.367,
      "duration": 0.0909,
      "velocity": 127,
      "chip": "ym2612"
    },
    {
      "channel": 0,
      "note": 67,
      "start": 88.4487,
      "duration": 0.1626,
      "velocity": 95,
      "chip": "ym2612"
    },
    {
      "channel": 4,
      "note": 47,
      "start": 88.4523,
      "duration": 0.3505,
      "velocity": 102,
      "chip": "ym2612"
    },
    {
      "channel": 3,
      "note": 35,
      "start": 88.4546,
      "duration": 0.1673,
      "velocity": 113,
      "chip": "ym2612"
    },
    {
      "channel": 5,
      "note": 66,
      "start": 88.4586,
      "duration": 0.0771,
      "velocity": 127,
      "chip": "ym2612"
    },
    {
      "channel": 5,
      "note": 66,
      "start": 88.5363,
      "duration": 0.0828,
      "velocity": 127,
      "chip": "ym2612"
    },
    {
      "channel": 0,
      "note": 55,
      "start": 88.6119,
      "duration": 0.1791,
      "velocity": 95,
      "chip": "ym2612"
    },
    {
      "channel": 5,
      "note": 66,
      "start": 88.6198,
      "duration": 0.0852,
      "velocity": 127,
      "chip": "ym2612"
    },
    {
      "channel": 3,
      "note": 35,
      "start": 88.6225,
      "duration": 0.1825,
      "velocity": 113,
      "chip": "ym2612"
    },
    {
      "channel": 5,
      "note": 66,
      "start": 88.7056,
      "duration": 0.0949,
      "velocity": 127,
      "chip": "ym2612"
    },
    {
      "channel": 2,
      "note": 60,
      "start": 88.7802,
      "duration": 1.0103,
      "velocity": 94,
      "chip": "ym2612"
    },
    {
      "channel": 1,
      "note": 45,
      "start": 88.7897,
      "duration": 10.7508,
      "velocity": 94,
      "chip": "ym2612"
    },
    {
      "channel": 5,
      "note": 66,
      "start": 88.8011,
      "duration": 0.0728,
      "velocity": 127,
      "chip": "ym2612"
    },
    {
      "channel": 4,
      "note": 48,
      "start": 88.8034,
      "duration": 0.322,
      "velocity": 102,
      "chip": "ym2612"
    },
    {
      "channel": 3,
      "note": 36,
      "start": 88.8056,
      "duration": 0.1496,
      "velocity": 113,
      "chip": "ym2612"
    },
    {
      "channel": 0,
      "note": 69,
      "start": 88.8128,
      "duration": 0.054,
      "velocity": 94,
      "chip": "ym2612"
    },
    {
      "channel": 0,
      "note": 69,
      "start": 88.8673,
      "duration": 0.0828,
      "velocity": 94,
      "chip": "ym2612"
    },
    {
      "channel": 5,
      "note": 66,
      "start": 88.8745,
      "duration": 0.0846,
      "velocity": 127,
      "chip": "ym2612"
    },
    {
      "channel": 0,
      "note": 57,
      "start": 88.9508,
      "duration": 0.1709,
      "velocity": 94,
      "chip": "ym2612"
    },
    {
      "channel": 3,
      "note": 36,
      "start": 88.9559,
      "duration": 0.1718,
      "velocity": 113,
      "chip": "ym2612"
    },
    {
      "channel": 5,
      "note": 66,
      "start": 88.9598,
      "duration": 0.0803,
      "velocity": 127,
      "chip": "ym2612"
    },
    {
      "channel": 5,
      "note": 66,
      "start": 89.0407,
      "duration": 0.091,
      "velocity": 127,
      "chip": "ym2612"
    },
    {
      "channel": 0,
      "note": 69,
      "start": 89.1224,
      "duration": 0.1626,
      "velocity": 94,
      "chip": "ym2612"
    },
    {
      "channel": 4,
      "note": 48,
      "start": 89.126,
      "duration": 0.3366,
      "velocity": 102,
      "chip": "ym2612"
    },
    {
      "channel": 3,
      "note": 36,
      "start": 89.1283,
      "duration": 0.1673,
      "velocity": 113,
      "chip": "ym2612"
    },
    {
      "channel": 5,
      "note": 66,
      "start": 89.1323,
      "duration": 0.0771,
      "velocity": 127,
      "chip": "ym2612"
    },
    {
      "channel": 5,
      "note": 66,
      "start": 89.21,
      "duration": 0.0828,
      "velocity": 127,
      "chip": "ym2612"
    },
    {
      "channel": 0,
      "note": 59,
      "start": 89.2856,
      "duration": 0.0815,
      "velocity": 94,
      "chip": "ym2612"
    },
    {
      "channel": 5,
      "note": 66,
      "start": 89.2935,
      "duration": 0.0807,
      "velocity": 127,
      "chip": "ym2612"
    },
    {
      "channel": 3,
      "note": 36,
      "start": 89.2962,
      "duration": 0.1687,
      "velocity": 113,
      "chip": "ym2612"
    },
    {
      "channel": 0,
      "note": 59,
      "start": 89.3677,
      "duration": 0.0913,
      "velocity": 94,
      "chip": "ym2612"
    },
    {
      "channel": 5,
      "note": 66,
      "start": 89.3749,
      "duration": 0.0941,
      "velocity": 127,
      "chip": "ym2612"
    },
    {
      "channel": 0,
      "note": 71,
      "start": 89.4597,
      "duration": 0.1626,
      "velocity": 94,
      "chip": "ym2612"
    },
    {
      "channel": 4,
      "note": 48,
      "start": 89.4633,
      "duration": 0.3461,
      "velocity": 102,
      "chip": "ym2612"
    },
    {
      "channel": 3,
      "note": 36,
      "start": 89.4656,
      "duration": 0.1673,
      "velocity": 113,
      "chip": "ym2612"
    },
    {
      "channel": 5,
      "note": 66,
      "start": 89.4696,
      "duration": 0.0709,
      "velocity": 127,
      "chip": "ym2612"
    },
    {
      "channel": 5,
      "note": 66,
      "start": 89.5412,
      "duration": 0.089,
      "velocity": 127,
      "chip": "ym2612"
    },
    {
      "channel": 0,
      "note": 59,
      "start": 89.6229,
      "duration": 0.1704,
      "velocity": 94,
      "chip": "ym2612"
    },
    {
      "channel": 5,
      "note": 66,
      "start": 89.6308,
      "duration": 0.079,
      "velocity": 127,
      "chip": "ym2612"
    },
    {
      "channel": 3,
      "note": 36,
      "start": 89.6335,
      "duration": 0.1782,
      "velocity": 113,
      "chip": "ym2612"
    },
    {
      "channel": 5,
      "note": 66,
      "start": 89.7104,
      "duration": 0.0968,
      "velocity": 127,
      "chip": "ym2612"
    },
    {
      "channel": 2,
      "note": 62,
      "start": 89.7912,
      "duration": 1.6869,
      "velocity": 94,
      "chip": "ym2612"
    },
    {
      "channel": 0,
      "note": 72,
      "start": 89.7939,
      "duration": 0.08,
      "velocity": 94,
      "chip": "ym2612"
    },
    {
      "channel": 5,
      "note": 66,
      "start": 89.8078,
      "duration": 0.0732,
      "velocity": 127,
      "chip": "ym2612"
    },
    {
      "channel": 4,
      "note": 50,
      "start": 89.81,
      "duration": 0.3286,
      "velocity": 102,
      "chip": "ym2612"
    },
    {
      "channel": 3,
      "note": 38,
      "start": 89.8123,
      "duration": 0.1579,
      "velocity": 113,
      "chip": "ym2612"
    },
    {
      "channel": 0,
      "note": 72,
      "start": 89.8745,
      "duration": 0.0852,
      "velocity": 94,
      "chip": "ym2612"
    },
    {
      "channel": 5,
      "note": 66,
      "start": 89.8816,
      "duration": 0.0859,
      "velocity": 127,
      "chip": "ym2612"
    },
    {
      "channel": 0,
      "note": 60,
      "start": 89.9602,
      "duration": 0.1686,
      "velocity": 94,
      "chip": "ym2612"
    },
    {
      "channel": 5,
      "note": 66,
      "start": 89.9681,
      "duration": 0.079,
      "velocity": 127,
      "chip": "ym2612"
    },
    {
      "channel": 3,
      "note": 38,
      "start": 89.9709,
      "duration": 0.17,
      "velocity": 113,
      "chip": "ym2612"
    },
    {
      "channel": 5,
      "note": 66,
      "start": 90.0478,
      "duration": 0.0971,
      "velocity": 127,
      "chip": "ym2612"
    },
    {
      "channel": 0,
      "note": 72,
      "start": 90.1295,
      "duration": 0.1625,
      "velocity": 94,
      "chip": "ym2612"
    },
    {
      "channel": 4,
      "note": 50,
      "start": 90.1393,
      "duration": 0.3305,
      "velocity": 102,
      "chip": "ym2612"
    },
    {
      "channel": 3,
      "note": 38,
      "start": 90.1415,
      "duration": 0.1611,
      "velocity": 113,
      "chip": "ym2612"
    },
    {
      "channel": 5,
      "note": 66,
      "start": 90.1455,
      "duration": 0.0709,
      "velocity": 127,
      "chip": "ym2612"
    },
    {
      "channel": 5,
      "note": 66,
      "start": 90.2171,
      "duration": 0.0828,
      "velocity": 127,
      "chip": "ym2612"
    },
    {
      "channel": 0,
      "note": 62,
      "start": 90.2926,
      "duration": 0.0893,
      "velocity": 94,
      "chip": "ym2612"
    },
    {
      "channel": 5,
      "note": 66,
      "start": 90.3005,
      "duration": 0.0839,
      "velocity": 127,
      "chip": "ym2612"
    },
    {
      "channel": 3,
      "note": 38,
      "start": 90.3033,
      "duration": 0.1687,
      "velocity": 113,
      "chip": "ym2612"
    },
    {
      "channel": 0,
      "note": 62,
      "start": 90.3825,
      "duration": 0.0775,
      "velocity": 94,
      "chip": "ym2612"
    },
    {
      "channel": 5,
      "note": 66,
      "start": 90.385,
      "duration": 0.091,
      "velocity": 127,
      "chip": "ym2612"
    },
    {
      "channel": 0,
      "note": 74,
      "start": 90.4606,
      "duration": 0.1687,
      "velocity": 94,
      "chip": "ym2612"
    },
    {
      "channel": 4,
      "note": 50,
      "start": 90.4704,
      "duration": 0.3397,
      "velocity": 102,
      "chip": "ym2612"
    },
    {
      "channel": 3,
      "note": 38,
      "start": 90.4726,
      "duration": 0.1674,
      "velocity": 113,
      "chip": "ym2612"
    },
    {
      "channel": 5,
      "note": 66,
      "start": 90.4766,
      "duration": 0.0772,
      "velocity": 127,
      "chip": "ym2612"
    },
    {
      "channel": 5,
      "note": 66,
      "start": 90.5544,
      "duration": 0.0828,
      "velocity": 127,
      "chip": "ym2612"
    },
    {
      "channel": 0,
      "note": 62,
      "start": 90.63,
      "duration": 0.1693,
      "velocity": 94,
      "chip": "ym2612"
    },
    {
      "channel": 5,
      "note": 66,
      "start": 90.6378,
      "duration": 0.0821,
      "velocity": 127,
      "chip": "ym2612"
    },
    {
      "channel": 3,
      "note": 38,
      "start": 90.6406,
      "duration": 0.1644,
      "velocity": 113,
      "chip": "ym2612"
    },
    {
      "channel": 5,
      "note": 66,
      "start": 90.7206,
      "duration": 0.094,
      "velocity": 127,
      "chip": "ym2612"
    },
    {
      "channel": 0,
      "note": 77,
      "start": 90.7999,
      "duration": 0.084,
      "velocity": 94,
      "chip": "ym2612"
    },
    {
      "channel": 3,
      "note": 38,
      "start": 90.8056,
      "duration": 0.1716,
      "velocity": 113,
      "chip": "ym2612"
    },
    {
      "channel": 4,
      "note": 50,
      "start": 90.8107,
      "duration": 0.3366,
      "velocity": 102,
      "chip": "ym2612"
    },
    {
      "channel": 5,
      "note": 66,
      "start": 90.8152,
      "duration": 0.0758,
      "velocity": 127,
      "chip": "ym2612"
    },
    {
      "channel": 0,
      "note": 77,
      "start": 90.8845,
      "duration": 0.0821,
      "velocity": 94,
      "chip": "ym2612"
    },
    {
      "channel": 5,
      "note": 66,
      "start": 90.8917,
      "duration": 0.0828,
      "velocity": 127,
      "chip": "ym2612"
    },
    {
      "channel": 0,
      "note": 65,
      "start": 90.9672,
      "duration": 0.1693,
      "velocity": 94,
      "chip": "ym2612"
    },
    {
      "channel": 5,
      "note": 66,
      "start": 90.9751,
      "duration": 0.082,
      "velocity": 127,
      "chip": "ym2612"
    },
    {
      "channel": 3,
      "note": 38,
      "start": 90.9778,
      "duration": 0.1644,
      "velocity": 113,
      "chip": "ym2612"
    },
    {
      "channel": 5,
      "note": 66,
      "start": 91.0578,
      "duration": 0.0939,
      "velocity": 127,
      "chip": "ym2612"
    },
    {
      "channel": 0,
      "note": 77,
      "start": 91.1371,
      "duration": 0.1703,
      "velocity": 94,
      "chip": "ym2612"
    },
    {
      "channel": 3,
      "note": 38,
      "start": 91.1429,
      "duration": 0.1699,
      "velocity": 113,
      "chip": "ym2612"
    },
    {
      "channel": 4,
      "note": 50,
      "start": 91.148,
      "duration": 0.3413,
      "velocity": 102,
      "chip": "ym2612"
    },
    {
      "channel": 5,
      "note": 66,
      "start": 91.1524,
      "duration": 0.071,
      "velocity": 127,
      "chip": "ym2612"
    },
    {
      "channel": 5,
      "note": 66,
      "start": 91.224,
      "duration": 0.0859,
      "velocity": 127,
      "chip": "ym2612"
    },
    {
      "channel": 0,
      "note": 65,
      "start": 91.3081,
      "duration": 0.1632,
      "velocity": 94,
      "chip": "ym2612"
    },
    {
      "channel": 5,
      "note": 66,
      "start": 91.3106,
      "duration": 0.0789,
      "velocity": 127,
      "chip": "ym2612"
    },
    {
      "channel": 3,
      "note": 38,
      "start": 91.3134,
      "duration": 0.1782,
      "velocity": 113,
      "chip": "ym2612"
    },
    {
      "channel": 5,
      "note": 66,
      "start": 91.3902,
      "duration": 0.0968,
      "velocity": 127,
      "chip": "ym2612"
    },
    {
      "channel": 0,
      "note": 76,
      "start": 91.4719,
      "duration": 0.0818,
      "velocity": 94,
      "chip": "ym2612"
    },
    {
      "channel": 2,
      "note": 64,
      "start": 91.4787,
      "duration": 0.666,
      "velocity": 94,
      "chip": "ym2612"
    },
    {
      "channel": 5,
      "note": 66,
      "start": 91.4876,
      "duration": 0.0733,
      "velocity": 127,
      "chip": "ym2612"
    },
    {
      "channel": 4,
      "note": 52,
      "start": 91.4899,
      "duration": 0.3286,
      "velocity": 102,
      "chip": "ym2612"
    },
    {
      "channel": 3,
      "note": 40,
      "start": 91.4922,
      "duration": 0.158,
      "velocity": 113,
      "chip": "ym2612"
    },
    {
      "channel": 0,
      "note": 76,
      "start": 91.5543,
      "duration": 0.0905,
      "velocity": 94,
      "chip": "ym2612"
    },
    {
      "channel": 5,
      "note": 66,
      "start": 91.5615,
      "duration": 0.0859,
      "velocity": 127,
      "chip": "ym2612"
    },
    {
      "channel": 0,
      "note": 64,
      "start": 91.6455,
      "duration": 0.1632,
      "velocity": 94,
      "chip": "ym2612"
    },
    {
      "channel": 5,
      "note": 66,
      "start": 91.648,
      "duration": 0.0789,
      "velocity": 127,
      "chip": "ym2612"
    },
    {
      "channel": 3,
      "note": 40,
      "start": 91.6507,
      "duration": 0.17,
      "velocity": 113,
      "chip": "ym2612"
    },
    {
      "channel": 5,
      "note": 66,
      "start": 91.7276,
      "duration": 0.0971,
      "velocity": 127,
      "chip": "ym2612"
    },
    {
      "channel": 0,
      "note": 76,
      "start": 91.8093,
      "duration": 0.1694,
      "velocity": 94,
      "chip": "ym2612"
    },
    {
      "channel": 4,
      "note": 52,
      "start": 91.8191,
      "duration": 0.3385,
      "velocity": 102,
      "chip": "ym2612"
    },
    {
      "channel": 3,
      "note": 40,
      "start": 91.8214,
      "duration": 0.1624,
      "velocity": 113,
      "chip": "ym2612"
    },
    {
      "channel": 5,
      "note": 66,
      "start": 91.8254,
      "duration": 0.0709,
      "velocity": 127,
      "chip": "ym2612"
    },
    {
      "channel": 5,
      "note": 66,
      "start": 91.8969,
      "duration": 0.0908,
      "velocity": 127,
      "chip": "ym2612"
    },
    {
      "channel": 0,
      "note": 62,
      "start": 91.9794,
      "duration": 0.0807,
      "velocity": 94,
      "chip": "ym2612"
    },
    {
      "channel": 3,
      "note": 40,
      "start": 91.9844,
      "duration": 0.1756,
      "velocity": 113,
      "chip": "ym2612"
    },
    {
      "channel": 5,
      "note": 66,
      "start": 91.9883,
      "duration": 0.0789,
      "velocity": 127,
      "chip": "ym2612"
    },
    {
      "channel": 0,
      "note": 62,
      "start": 92.0607,
      "duration": 0.0867,
      "velocity": 94,
      "chip": "ym2612"
    },
    {
      "channel": 5,
      "note": 66,
      "start": 92.0679,
      "duration": 0.0875,
      "velocity": 127,
      "chip": "ym2612"
    },
    {
      "channel": 2,
      "note": 65,
      "start": 92.1454,
      "duration": 0.6695,
      "velocity": 94,
      "chip": "ym2612"
    },
    {
      "channel": 0,
      "note": 74,
      "start": 92.1481,
      "duration": 0.1612,
      "velocity": 94,
      "chip": "ym2612"
    },
    {
      "channel": 5,
      "note": 66,
      "start": 92.156,
      "duration": 0.0777,
      "velocity": 127,
      "chip": "ym2612"
    },
    {
      "channel": 4,
      "note": 53,
      "start": 92.1583,
      "duration": 0.3299,
      "velocity": 102,
      "chip": "ym2612"
    },
    {
      "channel": 3,
      "note": 41,
      "start": 92.1606,
      "duration": 0.1593,
      "velocity": 113,
      "chip": "ym2612"
    },
    {
      "channel": 5,
      "note": 66,
      "start": 92.2343,
      "duration": 0.0828,
      "velocity": 127,
      "chip": "ym2612"
    },
    {
      "channel": 0,
      "note": 62,
      "start": 92.3099,
      "duration": 0.1686,
      "velocity": 94,
      "chip": "ym2612"
    },
    {
      "channel": 5,
      "note": 66,
      "start": 92.3178,
      "duration": 0.0851,
      "velocity": 127,
      "chip": "ym2612"
    },
    {
      "channel": 3,
      "note": 41,
      "start": 92.3205,
      "duration": 0.17,
      "velocity": 113,
      "chip": "ym2612"
    },
    {
      "channel": 5,
      "note": 66,
      "start": 92.4036,
      "duration": 0.0909,
      "velocity": 127,
      "chip": "ym2612"
    },
    {
      "channel": 0,
      "note": 76,
      "start": 92.4791,
      "duration": 0.0893,
      "velocity": 94,
      "chip": "ym2612"
    },
    {
      "channel": 4,
      "note": 53,
      "start": 92.4889,
      "duration": 0.3449,
      "velocity": 102,
      "chip": "ym2612"
    },
    {
      "channel": 3,
      "note": 41,
      "start": 92.4912,
      "duration": 0.166,
      "velocity": 113,
      "chip": "ym2612"
    },
    {
      "channel": 5,
      "note": 66,
      "start": 92.4951,
      "duration": 0.0759,
      "velocity": 127,
      "chip": "ym2612"
    },
    {
      "channel": 0,
      "note": 76,
      "start": 92.569,
      "duration": 0.0775,
      "velocity": 94,
      "chip": "ym2612"
    },
    {
      "channel": 5,
      "note": 66,
      "start": 92.5716,
      "duration": 0.0828,
      "velocity": 127,
      "chip": "ym2612"
    },
    {
      "channel": 0,
      "note": 64,
      "start": 92.6471,
      "duration": 0.1704,
      "velocity": 94,
      "chip": "ym2612"
    },
    {
      "channel": 5,
      "note": 66,
      "start": 92.655,
      "duration": 0.0852,
      "velocity": 127,
      "chip": "ym2612"
    },
    {
      "channel": 3,
      "note": 41,
      "start": 92.6578,
      "duration": 0.1782,
      "velocity": 113,
      "chip": "ym2612"
    },
    {
      "channel": 5,
      "note": 66,
      "start": 92.7408,
      "duration": 0.0906,
      "velocity": 127,
      "chip": "ym2612"
    },
    {
      "channel": 2,
      "note": 64,
      "start": 92.8154,
      "duration": 0.68,
      "velocity": 94,
      "chip": "ym2612"
    },
    {
      "channel": 0,
      "note": 76,
      "start": 92.8182,
      "duration": 0.1678,
      "velocity": 94,
      "chip": "ym2612"
    },
    {
      "channel": 5,
      "note": 66,
      "start": 92.832,
      "duration": 0.0746,
      "velocity": 127,
      "chip": "ym2612"
    },
    {
      "channel": 4,
      "note": 52,
      "start": 92.8344,
      "duration": 0.3303,
      "velocity": 102,
      "chip": "ym2612"
    },
    {
      "channel": 3,
      "note": 40,
      "start": 92.8366,
      "duration": 0.1544,
      "velocity": 113,
      "chip": "ym2612"
    },
    {
      "channel": 5,
      "note": 66,
      "start": 92.9073,
      "duration": 0.0877,
      "velocity": 127,
      "chip": "ym2612"
    },
    {
      "channel": 0,
      "note": 62,
      "start": 92.9866,
      "duration": 0.0823,
      "velocity": 94,
      "chip": "ym2612"
    },
    {
      "channel": 3,
      "note": 40,
      "start": 92.9917,
      "duration": 0.168,
      "velocity": 113,
      "chip": "ym2612"
    },
    {
      "channel": 5,
      "note": 66,
      "start": 92.9956,
      "duration": 0.0758,
      "velocity": 127,
      "chip": "ym2612"
    },
    {
      "channel": 0,
      "note": 62,
      "start": 93.0695,
      "duration": 0.0844,
      "velocity": 94,
      "chip": "ym2612"
    },
    {
      "channel": 5,
      "note": 66,
      "start": 93.0721,
      "duration": 0.0971,
      "velocity": 127,
      "chip": "ym2612"
    },
    {
      "channel": 0,
      "note": 74,
      "start": 93.1546,
      "duration": 0.1702,
      "velocity": 94,
      "chip": "ym2612"
    },
    {
      "channel": 3,
      "note": 40,
      "start": 93.1603,
      "duration": 0.1698,
      "velocity": 113,
      "chip": "ym2612"
    },
    {
      "channel": 4,
      "note": 52,
      "start": 93.1654,
      "duration": 0.3412,
      "velocity": 102,
      "chip": "ym2612"
    },
    {
      "channel": 5,
      "note": 66,
      "start": 93.1698,
      "duration": 0.0709,
      "velocity": 127,
      "chip": "ym2612"
    },
    {
      "channel": 5,
      "note": 66,
      "start": 93.2414,
      "duration": 0.0859,
      "velocity": 127,
      "chip": "ym2612"
    },
    {
      "channel": 0,
      "note": 62,
      "start": 93.3254,
      "duration": 0.1633,
      "velocity": 94,
      "chip": "ym2612"
    },
    {
      "channel": 5,
      "note": 66,
      "start": 93.328,
      "duration": 0.0789,
      "velocity": 127,
      "chip": "ym2612"
    },
    {
      "channel": 3,
      "note": 40,
      "start": 93.3307,
      "duration": 0.1782,
      "velocity": 113,
      "chip": "ym2612"
    },
    {
      "channel": 5,
      "note": 66,
      "start": 93.4076,
      "duration": 0.0968,
      "velocity": 127,
      "chip": "ym2612"
    },
    {
      "channel": 0,
      "note": 72,
      "start": 93.4893,
      "duration": 0.0818,
      "velocity": 94,
      "chip": "ym2612"
    },
    {
      "channel": 2,
      "note": 62,
      "start": 93.4961,
      "duration": 0.6661,
      "velocity": 94,
      "chip": "ym2612"
    },
    {
      "channel": 5,
      "note": 66,
      "start": 93.5049,
      "duration": 0.0733,
      "velocity": 127,
      "chip": "ym2612"
    },
    {
      "channel": 4,
      "note": 50,
      "start": 93.5072,
      "duration": 0.3286,
      "velocity": 102,
      "chip": "ym2612"
    },
    {
      "channel": 3,
      "note": 38,
      "start": 93.5095,
      "duration": 0.158,
      "velocity": 113,
      "chip": "ym2612"
    },
    {
      "channel": 0,
      "note": 72,
      "start": 93.5717,
      "duration": 0.0905,
      "velocity": 94,
      "chip": "ym2612"
    },
    {
      "channel": 5,
      "note": 66,
      "start": 93.5789,
      "duration": 0.0859,
      "velocity": 127,
      "chip": "ym2612"
    },
    {
      "channel": 0,
      "note": 60,
      "start": 93.6628,
      "duration": 0.1632,
      "velocity": 94,
      "chip": "ym2612"
    },
    {
      "channel": 5,
      "note": 66,
      "start": 93.6654,
      "duration": 0.079,
      "velocity": 127,
      "chip": "ym2612"
    },
    {
      "channel": 3,
      "note": 38,
      "start": 93.6681,
      "duration": 0.17,
      "velocity": 113,
      "chip": "ym2612"
    },
    {
      "channel": 5,
      "note": 66,
      "start": 93.745,
      "duration": 0.0971,
      "velocity": 127,
      "chip": "ym2612"
    },
    {
      "channel": 0,
      "note": 67,
      "start": 93.8267,
      "duration": 0.0817,
      "velocity": 94,
      "chip": "ym2612"
    },
    {
      "channel": 4,
      "note": 50,
      "start": 93.8365,
      "duration": 0.3394,
      "velocity": 102,
      "chip": "ym2612"
    },
    {
      "channel": 3,
      "note": 38,
      "start": 93.8387,
      "duration": 0.158,
      "velocity": 113,
      "chip": "ym2612"
    },
    {
      "channel": 5,
      "note": 66,
      "start": 93.8427,
      "duration": 0.0728,
      "velocity": 127,
      "chip": "ym2612"
    },
    {
      "channel": 0,
      "note": 67,
      "start": 93.909,
      "duration": 0.0828,
      "velocity": 94,
      "chip": "ym2612"
    },
    {
      "channel": 5,
      "note": 66,
      "start": 93.9161,
      "duration": 0.0846,
      "velocity": 127,
      "chip": "ym2612"
    },
    {
      "channel": 0,
      "note": 55,
      "start": 93.9924,
      "duration": 0.1786,
      "velocity": 94,
      "chip": "ym2612"
    },
    {
      "channel": 3,
      "note": 38,
      "start": 93.9974,
      "duration": 0.1809,
      "velocity": 113,
      "chip": "ym2612"
    },
    {
      "channel": 5,
      "note": 66,
      "start": 94.0014,
      "duration": 0.0803,
      "velocity": 127,
      "chip": "ym2612"
    },
    {
      "channel": 5,
      "note": 66,
      "start": 94.0823,
      "duration": 0.0913,
      "velocity": 127,
      "chip": "ym2612"
    },
    {
      "channel": 2,
      "note": 64,
      "start": 94.1628,
      "duration": 0.6767,
      "velocity": 94,
      "chip": "ym2612"
    },
    {
      "channel": 0,
      "note": 69,
      "start": 94.1717,
      "duration": 0.0749,
      "velocity": 94,
      "chip": "ym2612"
    },
    {
      "channel": 5,
      "note": 66,
      "start": 94.1743,
      "duration": 0.0794,
      "velocity": 127,
      "chip": "ym2612"
    },
    {
      "channel": 4,
      "note": 52,
      "start": 94.1765,
      "duration": 0.3286,
      "velocity": 102,
      "chip": "ym2612"
    },
    {
      "channel": 3,
      "note": 40,
      "start": 94.1789,
      "duration": 0.158,
      "velocity": 113,
      "chip": "ym2612"
    },
    {
      "channel": 0,
      "note": 69,
      "start": 94.2472,
      "duration": 0.0844,
      "velocity": 94,
      "chip": "ym2612"
    },
    {
      "channel": 5,
      "note": 66,
      "start": 94.2543,
      "duration": 0.0798,
      "velocity": 127,
      "chip": "ym2612"
    },
    {
      "channel": 0,
      "note": 57,
      "start": 94.3322,
      "duration": 0.1632,
      "velocity": 94,
      "chip": "ym2612"
    },
    {
      "channel": 5,
      "note": 66,
      "start": 94.3346,
      "duration": 0.0852,
      "velocity": 127,
      "chip": "ym2612"
    },
    {
      "channel": 3,
      "note": 40,
      "start": 94.3375,
      "duration": 0.17,
      "velocity": 113,
      "chip": "ym2612"
    },
    {
      "channel": 5,
      "note": 66,
      "start": 94.4205,
      "duration": 0.0909,
      "velocity": 127,
      "chip": "ym2612"
    },
    {
      "channel": 0,
      "note": 69,
      "start": 94.4961,
      "duration": 0.1687,
      "velocity": 94,
      "chip": "ym2612"
    },
    {
      "channel": 4,
      "note": 52,
      "start": 94.5058,
      "duration": 0.3449,
      "velocity": 102,
      "chip": "ym2612"
    },
    {
      "channel": 3,
      "note": 40,
      "start": 94.5081,
      "duration": 0.1673,
      "velocity": 113,
      "chip": "ym2612"
    },
    {
      "channel": 5,
      "note": 66,
      "start": 94.512,
      "duration": 0.0772,
      "velocity": 127,
      "chip": "ym2612"
    },
    {
      "channel": 5,
      "note": 66,
      "start": 94.5898,
      "duration": 0.0828,
      "velocity": 127,
      "chip": "ym2612"
    },
    {
      "channel": 0,
      "note": 59,
      "start": 94.6654,
      "duration": 0.0892,
      "velocity": 94,
      "chip": "ym2612"
    },
    {
      "channel": 5,
      "note": 66,
      "start": 94.6733,
      "duration": 0.0839,
      "velocity": 127,
      "chip": "ym2612"
    },
    {
      "channel": 3,
      "note": 40,
      "start": 94.676,
      "duration": 0.1769,
      "velocity": 113,
      "chip": "ym2612"
    },
    {
      "channel": 0,
      "note": 59,
      "start": 94.7552,
      "duration": 0.0775,
      "velocity": 94,
      "chip": "ym2612"
    },
    {
      "channel": 5,
      "note": 66,
      "start": 94.7578,
      "duration": 0.0906,
      "velocity": 127,
      "chip": "ym2612"
    },
    {
      "channel": 0,
      "note": 71,
      "start": 94.8333,
      "duration": 0.1697,
      "velocity": 94,
      "chip": "ym2612"
    },
    {
      "channel": 2,
      "note": 65,
      "start": 94.8401,
      "duration": 0.9988,
      "velocity": 94,
      "chip": "ym2612"
    },
    {
      "channel": 5,
      "note": 66,
      "start": 94.849,
      "duration": 0.0715,
      "velocity": 127,
      "chip": "ym2612"
    },
    {
      "channel": 4,
      "note": 53,
      "start": 94.8513,
      "duration": 0.3261,
      "velocity": 102,
      "chip": "ym2612"
    },
    {
      "channel": 3,
      "note": 41,
      "start": 94.8536,
      "duration": 0.1544,
      "velocity": 113,
      "chip": "ym2612"
    },
    {
      "channel": 5,
      "note": 66,
      "start": 94.9211,
      "duration": 0.0908,
      "velocity": 127,
      "chip": "ym2612"
    },
    {
      "channel": 0,
      "note": 59,
      "start": 95.0036,
      "duration": 0.1693,
      "velocity": 94,
      "chip": "ym2612"
    },
    {
      "channel": 3,
      "note": 41,
      "start": 95.0086,
      "duration": 0.1711,
      "velocity": 113,
      "chip": "ym2612"
    },
    {
      "channel": 5,
      "note": 66,
      "start": 95.0126,
      "duration": 0.0771,
      "velocity": 127,
      "chip": "ym2612"
    },
    {
      "channel": 5,
      "note": 66,
      "start": 95.0903,
      "duration": 0.0971,
      "velocity": 127,
      "chip": "ym2612"
    },
    {
      "channel": 0,
      "note": 72,
      "start": 95.1735,
      "duration": 0.0817,
      "velocity": 94,
      "chip": "ym2612"
    },
    {
      "channel": 4,
      "note": 53,
      "start": 95.178,
      "duration": 0.3374,
      "velocity": 102,
      "chip": "ym2612"
    },
    {
      "channel": 3,
      "note": 41,
      "start": 95.1804,
      "duration": 0.1649,
      "velocity": 113,
      "chip": "ym2612"
    },
    {
      "channel": 5,
      "note": 66,
      "start": 95.1881,
      "duration": 0.0697,
      "velocity": 127,
      "chip": "ym2612"
    },
    {
      "channel": 0,
      "note": 72,
      "start": 95.2559,
      "duration": 0.0844,
      "velocity": 94,
      "chip": "ym2612"
    },
    {
      "channel": 5,
      "note": 66,
      "start": 95.2584,
      "duration": 0.0908,
      "velocity": 127,
      "chip": "ym2612"
    },
    {
      "channel": 0,
      "note": 60,
      "start": 95.3409,
      "duration": 0.1709,
      "velocity": 94,
      "chip": "ym2612"
    },
    {
      "channel": 3,
      "note": 41,
      "start": 95.3459,
      "duration": 0.1718,
      "velocity": 113,
      "chip": "ym2612"
    },
    {
      "channel": 5,
      "note": 66,
      "start": 95.3499,
      "duration": 0.0772,
      "velocity": 127,
      "chip": "ym2612"
    },
    {
      "channel": 5,
      "note": 66,
      "start": 95.4277,
      "duration": 0.0941,
      "velocity": 127,
      "chip": "ym2612"
    },
    {
      "channel": 0,
      "note": 72,
      "start": 95.5124,
      "duration": 0.1626,
      "velocity": 94,
      "chip": "ym2612"
    },
    {
      "channel": 4,
      "note": 53,
      "start": 95.5161,
      "duration": 0.3351,
      "velocity": 102,
      "chip": "ym2612"
    },
    {
      "channel": 3,
      "note": 41,
      "start": 95.5184,
      "duration": 0.1673,
      "velocity": 113,
      "chip": "ym2612"
    },
    {
      "channel": 5,
      "note": 66,
      "start": 95.5224,
      "duration": 0.0709,
      "velocity": 127,
      "chip": "ym2612"
    },
    {
      "channel": 5,
      "note": 66,
      "start": 95.5939,
      "duration": 0.089,
      "velocity": 127,
      "chip": "ym2612"
    },
    {
      "channel": 0,
      "note": 62,
      "start": 95.6757,
      "duration": 0.0815,
      "velocity": 94,
      "chip": "ym2612"
    },
    {
      "channel": 5,
      "note": 66,
      "start": 95.6836,
      "duration": 0.0807,
      "velocity": 127,
      "chip": "ym2612"
    },
    {
      "channel": 3,
      "note": 41,
      "start": 95.6863,
      "duration": 0.1673,
      "velocity": 113,
      "chip": "ym2612"
    },
    {
      "channel": 0,
      "note": 62,
      "start": 95.7578,
      "duration": 0.0838,
      "velocity": 94,
      "chip": "ym2612"
    },
    {
      "channel": 5,
      "note": 66,
      "start": 95.7649,
      "duration": 0.0925,
      "velocity": 127,
      "chip": "ym2612"
    },
    {
      "channel": 2,
      "note": 64,
      "start": 95.8395,
      "duration": 0.3457,
      "velocity": 94,
      "chip": "ym2612"
    },
    {
      "channel": 0,
      "note": 74,
      "start": 95.8422,
      "duration": 0.1655,
      "velocity": 94,
      "chip": "ym2612"
    },
    {
      "channel": 4,
      "note": 52,
      "start": 95.8518,
      "duration": 0.3288,
      "velocity": 102,
      "chip": "ym2612"
    },
    {
      "channel": 3,
      "note": 40,
      "start": 95.8542,
      "duration": 0.1585,
      "velocity": 113,
      "chip": "ym2612"
    },
    {
      "channel": 5,
      "note": 66,
      "start": 95.8581,
      "duration": 0.074,
      "velocity": 127,
      "chip": "ym2612"
    },
    {
      "channel": 5,
      "note": 66,
      "start": 95.9327,
      "duration": 0.0839,
      "velocity": 127,
      "chip": "ym2612"
    },
    {
      "channel": 0,
      "note": 62,
      "start": 96.0083,
      "duration": 0.1679,
      "velocity": 94,
      "chip": "ym2612"
    },
    {
      "channel": 3,
      "note": 40,
      "start": 96.0133,
      "duration": 0.1697,
      "velocity": 113,
      "chip": "ym2612"
    },
    {
      "channel": 5,
      "note": 66,
      "start": 96.0173,
      "duration": 0.0833,
      "velocity": 127,
      "chip": "ym2612"
    },
    {
      "channel": 5,
      "note": 66,
      "start": 96.1012,
      "duration": 0.0912,
      "velocity": 127,
      "chip": "ym2612"
    },
    {
      "channel": 0,
      "note": 77,
      "start": 96.1768,
      "duration": 0.0895,
      "velocity": 94,
      "chip": "ym2612"
    },
    {
      "channel": 4,
      "note": 50,
      "start": 96.1813,
      "duration": 0.3362,
      "velocity": 102,
      "chip": "ym2612"
    },
    {
      "channel": 3,
      "note": 38,
      "start": 96.1836,
      "duration": 0.1659,
      "velocity": 113,
      "chip": "ym2612"
    },
    {
      "channel": 2,
      "note": 62,
      "start": 96.1859,
      "duration": 0.3361,
      "velocity": 94,
      "chip": "ym2612"
    },
    {
      "channel": 5,
      "note": 66,
      "start": 96.1931,
      "duration": 0.0759,
      "velocity": 127,
      "chip": "ym2612"
    },
    {
      "channel": 0,
      "note": 77,
      "start": 96.267,
      "duration": 0.0775,
      "velocity": 94,
      "chip": "ym2612"
    },
    {
      "channel": 5,
      "note": 66,
      "start": 96.2695,
      "duration": 0.0838,
      "velocity": 127,
      "chip": "ym2612"
    },
    {
      "channel": 0,
      "note": 65,
      "start": 96.3451,
      "duration": 0.1679,
      "velocity": 94,
      "chip": "ym2612"
    },
    {
      "channel": 3,
      "note": 38,
      "start": 96.3501,
      "duration": 0.1697,
      "velocity": 113,
      "chip": "ym2612"
    },
    {
      "channel": 5,
      "note": 66,
      "start": 96.354,
      "duration": 0.0834,
      "velocity": 127,
      "chip": "ym2612"
    },
    {
      "channel": 5,
      "note": 66,
      "start": 96.438,
      "duration": 0.0912,
      "velocity": 127,
      "chip": "ym2612"
    },
    {
      "channel": 0,
      "note": 77,
      "start": 96.5136,
      "duration": 0.1708,
      "velocity": 94,
      "chip": "ym2612"
    },
    {
      "channel": 4,
      "note": 45,
      "start": 96.5181,
      "duration": 0.3446,
      "velocity": 102,
      "chip": "ym2612"
    },
    {
      "channel": 3,
      "note": 33,
      "start": 96.5204,
      "duration": 0.1608,
      "velocity": 113,
      "chip": "ym2612"
    },
    {
      "channel": 2,
      "note": 57,
      "start": 96.5226,
      "duration": 0.3275,
      "velocity": 94,
      "chip": "ym2612"
    },
    {
      "channel": 5,
      "note": 66,
      "start": 96.5299,
      "duration": 0.074,
      "velocity": 127,
      "chip": "ym2612"
    },
    {
      "channel": 5,
      "note": 66,
      "start": 96.6046,
      "duration": 0.087,
      "velocity": 127,
      "chip": "ym2612"
    },
    {
      "channel": 3,
      "note": 33,
      "start": 96.6818,
      "duration": 0.1833,
      "velocity": 113,
      "chip": "ym2612"
    },
    {
      "channel": 0,
      "note": 65,
      "start": 96.685,
      "duration": 0.1678,
      "velocity": 94,
      "chip": "ym2612"
    },
    {
      "channel": 5,
      "note": 66,
      "start": 96.6922,
      "duration": 0.0771,
      "velocity": 127,
      "chip": "ym2612"
    },
    {
      "channel": 5,
      "note": 66,
      "start": 96.77,
      "duration": 0.0991,
      "velocity": 127,
      "chip": "ym2612"
    },
    {
      "channel": 2,
      "note": 67,
      "start": 96.8507,
      "duration": 0.6805,
      "velocity": 94,
      "chip": "ym2612"
    },
    {
      "channel": 0,
      "note": 76,
      "start": 96.8535,
      "duration": 0.0787,
      "velocity": 94,
      "chip": "ym2612"
    },
    {
      "channel": 4,
      "note": 55,
      "start": 96.8634,
      "duration": 0.3336,
      "velocity": 102,
      "chip": "ym2612"
    },
    {
      "channel": 3,
      "note": 43,
      "start": 96.8657,
      "duration": 0.1629,
      "velocity": 113,
      "chip": "ym2612"
    },
    {
      "channel": 5,
      "note": 66,
      "start": 96.8697,
      "duration": 0.0696,
      "velocity": 127,
      "chip": "ym2612"
    },
    {
      "channel": 0,
      "note": 76,
      "start": 96.9327,
      "duration": 0.0906,
      "velocity": 94,
      "chip": "ym2612"
    },
    {
      "channel": 5,
      "note": 66,
      "start": 96.9399,
      "duration": 0.0859,
      "velocity": 127,
      "chip": "ym2612"
    },
    {
      "channel": 0,
      "note": 64,
      "start": 97.024,
      "duration": 0.1632,
      "velocity": 94,
      "chip": "ym2612"
    },
    {
      "channel": 5,
      "note": 66,
      "start": 97.0264,
      "duration": 0.079,
      "velocity": 127,
      "chip": "ym2612"
    },
    {
      "channel": 3,
      "note": 43,
      "start": 97.0293,
      "duration": 0.17,
      "velocity": 113,
      "chip": "ym2612"
    },
    {
      "channel": 5,
      "note": 66,
      "start": 97.1061,
      "duration": 0.0971,
      "velocity": 127,
      "chip": "ym2612"
    },
    {
      "channel": 0,
      "note": 76,
      "start": 97.1878,
      "duration": 0.1687,
      "velocity": 94,
      "chip": "ym2612"
    },
    {
      "channel": 4,
      "note": 55,
      "start": 97.1976,
      "duration": 0.3448,
      "velocity": 102,
      "chip": "ym2612"
    },
    {
      "channel": 3,
      "note": 43,
      "start": 97.1999,
      "duration": 0.1674,
      "velocity": 113,
      "chip": "ym2612"
    },
    {
      "channel": 5,
      "note": 66,
      "start": 97.2039,
      "duration": 0.071,
      "velocity": 127,
      "chip": "ym2612"
    },
    {
      "channel": 5,
      "note": 66,
      "start": 97.2755,
      "duration": 0.0889,
      "velocity": 127,
      "chip": "ym2612"
    },
    {
      "channel": 0,
      "note": 62,
      "start": 97.3572,
      "duration": 0.0815,
      "velocity": 94,
      "chip": "ym2612"
    },
    {
      "channel": 5,
      "note": 66,
      "start": 97.3651,
      "duration": 0.0807,
      "velocity": 127,
      "chip": "ym2612"
    },
    {
      "channel": 3,
      "note": 43,
      "start": 97.3679,
      "duration": 0.1768,
      "velocity": 113,
      "chip": "ym2612"
    },
    {
      "channel": 0,
      "note": 62,
      "start": 97.4393,
      "duration": 0.0852,
      "velocity": 94,
      "chip": "ym2612"
    },
    {
      "channel": 5,
      "note": 66,
      "start": 97.4464,
      "duration": 0.0937,
      "velocity": 127,
      "chip": "ym2612"
    },
    {
      "channel": 0,
      "note": 74,
      "start": 97.5251,
      "duration": 0.1627,
      "velocity": 94,
      "chip": "ym2612"
    },
    {
      "channel": 2,
      "note": 65,
      "start": 97.5319,
      "duration": 0.6614,
      "velocity": 94,
      "chip": "ym2612"
    },
    {
      "channel": 5,
      "note": 66,
      "start": 97.5408,
      "duration": 0.0715,
      "velocity": 127,
      "chip": "ym2612"
    },
    {
      "channel": 4,
      "note": 53,
      "start": 97.5431,
      "duration": 0.3237,
      "velocity": 102,
      "chip": "ym2612"
    },
    {
      "channel": 3,
      "note": 41,
      "start": 97.5454,
      "duration": 0.1531,
      "velocity": 113,
      "chip": "ym2612"
    },
    {
      "channel": 5,
      "note": 66,
      "start": 97.6129,
      "duration": 0.0828,
      "velocity": 127,
      "chip": "ym2612"
    },
    {
      "channel": 0,
      "note": 62,
      "start": 97.6884,
      "duration": 0.1686,
      "velocity": 94,
      "chip": "ym2612"
    },
    {
      "channel": 5,
      "note": 66,
      "start": 97.6963,
      "duration": 0.0852,
      "velocity": 127,
      "chip": "ym2612"
    },
    {
      "channel": 3,
      "note": 41,
      "start": 97.6991,
      "duration": 0.1699,
      "velocity": 113,
      "chip": "ym2612"
    },
    {
      "channel": 5,
      "note": 66,
      "start": 97.7821,
      "duration": 0.0909,
      "velocity": 127,
      "chip": "ym2612"
    },
    {
      "channel": 0,
      "note": 76,
      "start": 97.8576,
      "duration": 0.0893,
      "velocity": 94,
      "chip": "ym2612"
    },
    {
      "channel": 4,
      "note": 53,
      "start": 97.8674,
      "duration": 0.3448,
      "velocity": 102,
      "chip": "ym2612"
    },
    {
      "channel": 3,
      "note": 41,
      "start": 97.8696,
      "duration": 0.1661,
      "velocity": 113,
      "chip": "ym2612"
    },
    {
      "channel": 5,
      "note": 66,
      "start": 97.8737,
      "duration": 0.0759,
      "velocity": 127,
      "chip": "ym2612"
    },
    {
      "channel": 0,
      "note": 76,
      "start": 97.9476,
      "duration": 0.0775,
      "velocity": 94,
      "chip": "ym2612"
    },
    {
      "channel": 5,
      "note": 66,
      "start": 97.9501,
      "duration": 0.0828,
      "velocity": 127,
      "chip": "ym2612"
    },
    {
      "channel": 0,
      "note": 64,
      "start": 98.0257,
      "duration": 0.1704,
      "velocity": 94,
      "chip": "ym2612"
    },
    {
      "channel": 5,
      "note": 66,
      "start": 98.0336,
      "duration": 0.0851,
      "velocity": 127,
      "chip": "ym2612"
    },
    {
      "channel": 3,
      "note": 41,
      "start": 98.0364,
      "duration": 0.1781,
      "velocity": 113,
      "chip": "ym2612"
    },
    {
      "channel": 5,
      "note": 66,
      "start": 98.1193,
      "duration": 0.0906,
      "velocity": 127,
      "chip": "ym2612"
    },
    {
      "channel": 2,
      "note": 64,
      "start": 98.1939,
      "duration": 0.6783,
      "velocity": 94,
      "chip": "ym2612"
    },
    {
      "channel": 0,
      "note": 76,
      "start": 98.1967,
      "duration": 0.1678,
      "velocity": 94,
      "chip": "ym2612"
    },
    {
      "channel": 5,
      "note": 66,
      "start": 98.2105,
      "duration": 0.0746,
      "velocity": 127,
      "chip": "ym2612"
    },
    {
      "channel": 4,
      "note": 52,
      "start": 98.2128,
      "duration": 0.3304,
      "velocity": 102,
      "chip": "ym2612"
    },
    {
      "channel": 3,
      "note": 40,
      "start": 98.2151,
      "duration": 0.1544,
      "velocity": 113,
      "chip": "ym2612"
    },
    {
      "channel": 5,
      "note": 66,
      "start": 98.2858,
      "duration": 0.0877,
      "velocity": 127,
      "chip": "ym2612"
    },
    {
      "channel": 0,
      "note": 62,
      "start": 98.3651,
      "duration": 0.0839,
      "velocity": 94,
      "chip": "ym2612"
    },
    {
      "channel": 3,
      "note": 40,
      "start": 98.3702,
      "duration": 0.168,
      "velocity": 113,
      "chip": "ym2612"
    },
    {
      "channel": 5,
      "note": 66,
      "start": 98.3741,
      "duration": 0.0821,
      "velocity": 127,
      "chip": "ym2612"
    },
    {
      "channel": 0,
      "note": 62,
      "start": 98.4496,
      "duration": 0.0828,
      "velocity": 94,
      "chip": "ym2612"
    },
    {
      "channel": 5,
      "note": 66,
      "start": 98.4568,
      "duration": 0.0909,
      "velocity": 127,
      "chip": "ym2612"
    },
    {
      "channel": 0,
      "note": 74,
      "start": 98.5331,
      "duration": 0.1686,
      "velocity": 94,
      "chip": "ym2612"
    },
    {
      "channel": 3,
      "note": 40,
      "start": 98.5388,
      "duration": 0.1679,
      "velocity": 113,
      "chip": "ym2612"
    },
    {
      "channel": 4,
      "note": 52,
      "start": 98.5439,
      "duration": 0.3412,
      "velocity": 102,
      "chip": "ym2612"
    },
    {
      "channel": 5,
      "note": 66,
      "start": 98.5483,
      "duration": 0.0709,
      "velocity": 127,
      "chip": "ym2612"
    },
    {
      "channel": 5,
      "note": 66,
      "start": 98.6199,
      "duration": 0.0908,
      "velocity": 127,
      "chip": "ym2612"
    },
    {
      "channel": 0,
      "note": 62,
      "start": 98.7023,
      "duration": 0.1725,
      "velocity": 94,
      "chip": "ym2612"
    },
    {
      "channel": 3,
      "note": 40,
      "start": 98.7074,
      "duration": 0.18,
      "velocity": 113,
      "chip": "ym2612"
    },
    {
      "channel": 5,
      "note": 66,
      "start": 98.7113,
      "duration": 0.074,
      "velocity": 127,
      "chip": "ym2612"
    },
    {
      "channel": 5,
      "note": 66,
      "start": 98.786,
      "duration": 0.0968,
      "velocity": 127,
      "chip": "ym2612"
    },
    {
      "channel": 2,
      "note": 62,
      "start": 98.8728,
      "duration": 0.6758,
      "velocity": 94,
      "chip": "ym2612"
    },
    {
      "channel": 0,
      "note": 72,
      "start": 98.8755,
      "duration": 0.0741,
      "velocity": 94,
      "chip": "ym2612"
    },
    {
      "channel": 5,
      "note": 66,
      "start": 98.8834,
      "duration": 0.0733,
      "velocity": 127,
      "chip": "ym2612"
    },
    {
      "channel": 4,
      "note": 50,
      "start": 98.8857,
      "duration": 0.3287,
      "velocity": 102,
      "chip": "ym2612"
    },
    {
      "channel": 3,
      "note": 38,
      "start": 98.888,
      "duration": 0.158,
      "velocity": 113,
      "chip": "ym2612"
    },
    {
      "channel": 0,
      "note": 72,
      "start": 98.9502,
      "duration": 0.0905,
      "velocity": 94,
      "chip": "ym2612"
    },
    {
      "channel": 5,
      "note": 66,
      "start": 98.9574,
      "duration": 0.0859,
      "velocity": 127,
      "chip": "ym2612"
    },
    {
      "channel": 0,
      "note": 60,
      "start": 99.0414,
      "duration": 0.1632,
      "velocity": 94,
      "chip": "ym2612"
    },
    {
      "channel": 5,
      "note": 66,
      "start": 99.0439,
      "duration": 0.079,
      "velocity": 127,
      "chip": "ym2612"
    },
    {
      "channel": 3,
      "note": 38,
      "start": 99.0467,
      "duration": 0.17,
      "velocity": 113,
      "chip": "ym2612"
    },
    {
      "channel": 5,
      "note": 66,
      "start": 99.1235,
      "duration": 0.0971,
      "velocity": 127,
      "chip": "ym2612"
    },
    {
      "channel": 0,
      "note": 67,
      "start": 99.2053,
      "duration": 0.0817,
      "velocity": 94,
      "chip": "ym2612"
    },
    {
      "channel": 4,
      "note": 50,
      "start": 99.2151,
      "duration": 0.3471,
      "velocity": 102,
      "chip": "ym2612"
    },
    {
      "channel": 3,
      "note": 38,
      "start": 99.2173,
      "duration": 0.1661,
      "velocity": 113,
      "chip": "ym2612"
    },
    {
      "channel": 5,
      "note": 66,
      "start": 99.2213,
      "duration": 0.0728,
      "velocity": 127,
      "chip": "ym2612"
    },
    {
      "channel": 0,
      "note": 67,
      "start": 99.2875,
      "duration": 0.0906,
      "velocity": 94,
      "chip": "ym2612"
    },
    {
      "channel": 5,
      "note": 66,
      "start": 99.2947,
      "duration": 0.0859,
      "velocity": 127,
      "chip": "ym2612"
    },
    {
      "channel": 0,
      "note": 55,
      "start": 99.3787,
      "duration": 0.1783,
      "velocity": 94,
      "chip": "ym2612"
    },
    {
      "channel": 5,
      "note": 66,
      "start": 99.3812,
      "duration": 0.0791,
      "velocity": 127,
      "chip": "ym2612"
    },
    {
      "channel": 3,
      "note": 38,
      "start": 99.384,
      "duration": 0.1803,
      "velocity": 113,
      "chip": "ym2612"
    },
    {
      "channel": 5,
      "note": 66,
      "start": 99.4609,
      "duration": 0.0989,
      "velocity": 127,
      "chip": "ym2612"
    },
    {
      "channel": 1,
      "note": 45,
      "start": 99.5411,
      "duration": 2.6973,
      "velocity": 94,
      "chip": "ym2612"
    },
    {
      "channel": 2,
      "note": 57,
      "start": 99.5492,
      "duration": 0.6658,
      "velocity": 94,
      "chip": "ym2612"
    },
    {
      "channel": 5,
      "note": 66,
      "start": 99.5604,
      "duration": 0.0694,
      "velocity": 127,
      "chip": "ym2612"
    },
    {
      "channel": 4,
      "note": 45,
      "start": 99.5628,
      "duration": 0.3216,
      "velocity": 102,
      "chip": "ym2612"
    },
    {
      "channel": 3,
      "note": 33,
      "start": 99.565,
      "duration": 0.151,
      "velocity": 113,
      "chip": "ym2612"
    },
    {
      "channel": 0,
      "note": 69,
      "start": 99.5768,
      "duration": 0.1286,
      "velocity": 95,
      "chip": "ym2612"
    },
    {
      "channel": 5,
      "note": 66,
      "start": 99.6305,
      "duration": 0.0828,
      "velocity": 127,
      "chip": "ym2612"
    },
    {
      "channel": 0,
      "note": 57,
      "start": 99.706,
      "duration": 0.1686,
      "velocity": 95,
      "chip": "ym2612"
    },
    {
      "channel": 5,
      "note": 66,
      "start": 99.7139,
      "duration": 0.0851,
      "velocity": 127,
      "chip": "ym2612"
    },
    {
      "channel": 3,
      "note": 33,
      "start": 99.7166,
      "duration": 0.17,
      "velocity": 113,
      "chip": "ym2612"
    },
    {
      "channel": 5,
      "note": 66,
      "start": 99.7997,
      "duration": 0.0909,
      "velocity": 127,
      "chip": "ym2612"
    },
    {
      "channel": 0,
      "note": 69,
      "start": 99.8752,
      "duration": 0.1695,
      "velocity": 95,
      "chip": "ym2612"
    },
    {
      "channel": 4,
      "note": 45,
      "start": 99.885,
      "duration": 0.3431,
      "velocity": 102,
      "chip": "ym2612"
    },
    {
      "channel": 3,
      "note": 33,
      "start": 99.8873,
      "duration": 0.1624,
      "velocity": 113,
      "chip": "ym2612"
    },
    {
      "channel": 5,
      "note": 66,
      "start": 99.8912,
      "duration": 0.0741,
      "velocity": 127,
      "chip": "ym2612"
    },
    {
      "channel": 5,
      "note": 66,
      "start": 99.966,
      "duration": 0.0876,
      "velocity": 127,
      "chip": "ym2612"
    },
    {
      "channel": 0,
      "note": 71,
      "start": 100.0453,
      "duration": 0.1725,
      "velocity": 95,
      "chip": "ym2612"
    },
    {
      "channel": 3,
      "note": 33,
      "start": 100.0503,
      "duration": 0.18,
      "velocity": 113,
      "chip": "ym2612"
    },
    {
      "channel": 5,
      "note": 66,
      "start": 100.0542,
      "duration": 0.0803,
      "velocity": 127,
      "chip": "ym2612"
    },
    {
      "channel": 5,
      "note": 66,
      "start": 100.1352,
      "duration": 0.0906,
      "velocity": 127,
      "chip": "ym2612"
    },
    {
      "channel": 2,
      "note": 59,
      "start": 100.2156,
      "duration": 2.0128,
      "velocity": 94,
      "chip": "ym2612"
    },
    {
      "channel": 0,
      "note": 59,
      "start": 100.2184,
      "duration": 0.1612,
      "velocity": 95,
      "chip": "ym2612"
    },
    {
      "channel": 5,
      "note": 66,
      "start": 100.2264,
      "duration": 0.0777,
      "velocity": 127,
      "chip": "ym2612"
    },
    {
      "channel": 4,
      "note": 47,
      "start": 100.2287,
      "duration": 0.33,
      "velocity": 102,
      "chip": "ym2612"
    },
    {
      "channel": 3,
      "note": 35,
      "start": 100.231,
      "duration": 0.1593,
      "velocity": 113,
      "chip": "ym2612"
    },
    {
      "channel": 5,
      "note": 66,
      "start": 100.3047,
      "duration": 0.0828,
      "velocity": 127,
      "chip": "ym2612"
    },
    {
      "channel": 0,
      "note": 71,
      "start": 100.3803,
      "duration": 0.1686,
      "velocity": 95,
      "chip": "ym2612"
    },
    {
      "channel": 5,
      "note": 66,
      "start": 100.3882,
      "duration": 0.0789,
      "velocity": 127,
      "chip": "ym2612"
    },
    {
      "channel": 3,
      "note": 35,
      "start": 100.3909,
      "duration": 0.17,
      "velocity": 113,
      "chip": "ym2612"
    },
    {
      "channel": 5,
      "note": 66,
      "start": 100.4677,
      "duration": 0.0971,
      "velocity": 127,
      "chip": "ym2612"
    },
    {
      "channel": 0,
      "note": 72,
      "start": 100.5495,
      "duration": 0.1695,
      "velocity": 95,
      "chip": "ym2612"
    },
    {
      "channel": 4,
      "note": 47,
      "start": 100.5593,
      "duration": 0.3349,
      "velocity": 102,
      "chip": "ym2612"
    },
    {
      "channel": 3,
      "note": 35,
      "start": 100.5615,
      "duration": 0.1625,
      "velocity": 113,
      "chip": "ym2612"
    },
    {
      "channel": 5,
      "note": 66,
      "start": 100.5655,
      "duration": 0.0709,
      "velocity": 127,
      "chip": "ym2612"
    },
    {
      "channel": 5,
      "note": 66,
      "start": 100.6371,
      "duration": 0.0908,
      "velocity": 127,
      "chip": "ym2612"
    },
    {
      "channel": 0,
      "note": 60,
      "start": 100.7196,
      "duration": 0.1709,
      "velocity": 95,
      "chip": "ym2612"
    },
    {
      "channel": 3,
      "note": 35,
      "start": 100.7246,
      "duration": 0.1718,
      "velocity": 113,
      "chip": "ym2612"
    },
    {
      "channel": 5,
      "note": 66,
      "start": 100.7285,
      "duration": 0.0772,
      "velocity": 127,
      "chip": "ym2612"
    },
    {
      "channel": 5,
      "note": 66,
      "start": 100.8063,
      "duration": 0.0941,
      "velocity": 127,
      "chip": "ym2612"
    },
    {
      "channel": 0,
      "note": 72,
      "start": 100.8912,
      "duration": 0.1626,
      "velocity": 95,
      "chip": "ym2612"
    },
    {
      "channel": 4,
      "note": 47,
      "start": 100.8948,
      "duration": 0.338,
      "velocity": 102,
      "chip": "ym2612"
    },
    {
      "channel": 3,
      "note": 35,
      "start": 100.8971,
      "duration": 0.1673,
      "velocity": 113,
      "chip": "ym2612"
    },
    {
      "channel": 5,
      "note": 66,
      "start": 100.9011,
      "duration": 0.0709,
      "velocity": 127,
      "chip": "ym2612"
    },
    {
      "channel": 5,
      "note": 66,
      "start": 100.9726,
      "duration": 0.089,
      "velocity": 127,
      "chip": "ym2612"
    },
    {
      "channel": 0,
      "note": 74,
      "start": 101.0544,
      "duration": 0.1686,
      "velocity": 95,
      "chip": "ym2612"
    },
    {
      "channel": 5,
      "note": 66,
      "start": 101.0623,
      "duration": 0.0789,
      "velocity": 127,
      "chip": "ym2612"
    },
    {
      "channel": 3,
      "note": 35,
      "start": 101.065,
      "duration": 0.17,
      "velocity": 113,
      "chip": "ym2612"
    },
    {
      "channel": 5,
      "note": 66,
      "start": 101.1418,
      "duration": 0.0971,
      "velocity": 127,
      "chip": "ym2612"
    },
    {
      "channel": 0,
      "note": 62,
      "start": 101.2236,
      "duration": 0.1625,
      "velocity": 95,
      "chip": "ym2612"
    },
    {
      "channel": 4,
      "note": 47,
      "start": 101.2334,
      "duration": 0.3317,
      "velocity": 102,
      "chip": "ym2612"
    },
    {
      "channel": 3,
      "note": 35,
      "start": 101.2356,
      "duration": 0.1611,
      "velocity": 113,
      "chip": "ym2612"
    },
    {
      "channel": 5,
      "note": 66,
      "start": 101.2396,
      "duration": 0.0709,
      "velocity": 127,
      "chip": "ym2612"
    },
    {
      "channel": 5,
      "note": 66,
      "start": 101.3112,
      "duration": 0.0828,
      "velocity": 127,
      "chip": "ym2612"
    },
    {
      "channel": 0,
      "note": 74,
      "start": 101.3868,
      "duration": 0.1686,
      "velocity": 95,
      "chip": "ym2612"
    },
    {
      "channel": 5,
      "note": 66,
      "start": 101.3946,
      "duration": 0.0851,
      "velocity": 127,
      "chip": "ym2612"
    },
    {
      "channel": 3,
      "note": 35,
      "start": 101.3974,
      "duration": 0.17,
      "velocity": 113,
      "chip": "ym2612"
    },
    {
      "channel": 5,
      "note": 66,
      "start": 101.4804,
      "duration": 0.091,
      "velocity": 127,
      "chip": "ym2612"
    },
    {
      "channel": 0,
      "note": 77,
      "start": 101.556,
      "duration": 0.1695,
      "velocity": 95,
      "chip": "ym2612"
    },
    {
      "channel": 4,
      "note": 47,
      "start": 101.5658,
      "duration": 0.3349,
      "velocity": 102,
      "chip": "ym2612"
    },
    {
      "channel": 3,
      "note": 35,
      "start": 101.568,
      "duration": 0.1625,
      "velocity": 113,
      "chip": "ym2612"
    },
    {
      "channel": 5,
      "note": 66,
      "start": 101.572,
      "duration": 0.0741,
      "velocity": 127,
      "chip": "ym2612"
    },
    {
      "channel": 5,
      "note": 66,
      "start": 101.6467,
      "duration": 0.0877,
      "velocity": 127,
      "chip": "ym2612"
    },
    {
      "channel": 0,
      "note": 65,
      "start": 101.7261,
      "duration": 0.1709,
      "velocity": 95,
      "chip": "ym2612"
    },
    {
      "channel": 3,
      "note": 35,
      "start": 101.7311,
      "duration": 0.1718,
      "velocity": 113,
      "chip": "ym2612"
    },
    {
      "channel": 5,
      "note": 66,
      "start": 101.735,
      "duration": 0.0803,
      "velocity": 127,
      "chip": "ym2612"
    },
    {
      "channel": 5,
      "note": 66,
      "start": 101.816,
      "duration": 0.091,
      "velocity": 127,
      "chip": "ym2612"
    },
    {
      "channel": 0,
      "note": 77,
      "start": 101.8976,
      "duration": 0.1626,
      "velocity": 95,
      "chip": "ym2612"
    },
    {
      "channel": 4,
      "note": 47,
      "start": 101.9013,
      "duration": 0.3371,
      "velocity": 102,
      "chip": "ym2612"
    },
    {
      "channel": 3,
      "note": 35,
      "start": 101.9036,
      "duration": 0.1673,
      "velocity": 113,
      "chip": "ym2612"
    },
    {
      "channel": 5,
      "note": 66,
      "start": 101.9076,
      "duration": 0.0771,
      "velocity": 127,
      "chip": "ym2612"
    },
    {
      "channel": 5,
      "note": 66,
      "start": 101.9853,
      "duration": 0.0828,
      "velocity": 127,
      "chip": "ym2612"
    },
    {
      "channel": 0,
      "note": 65,
      "start": 102.0609,
      "duration": 0.1704,
      "velocity": 95,
      "chip": "ym2612"
    },
    {
      "channel": 5,
      "note": 66,
      "start": 102.0688,
      "duration": 0.0851,
      "velocity": 127,
      "chip": "ym2612"
    },
    {
      "channel": 3,
      "note": 35,
      "start": 102.0715,
      "duration": 0.1669,
      "velocity": 113,
      "chip": "ym2612"
    },
    {
      "channel": 5,
      "note": 66,
      "start": 102.1545,
      "duration": 0.0839,
      "velocity": 127,
      "chip": "ym2612"
    },
    {
      "channel": 2,
      "note": 60,
      "start": 102.2291,
      "duration": 0.0093,
      "velocity": 94,
      "chip": "ym2612"
    },
    {
      "channel": 0,
      "note": 76,
      "start": 102.2319,
      "duration": 0.0065,
      "velocity": 95,
      "chip": "ym2612"
    }
  ]
}