{
  "track_name": "11 - Chapter 7 Scene 1",
  "duration_sec": 66.772,
  "sample_rate": 44100,
  "note_count": 1120,
  "unique_pitches": 38,
  "pitch_range": 65,
  "avg_note_duration": 0.2102,
  "reconstruction_stats": {
    "notes_reconstructed": 1120,
    "keyon_events": 1120,
    "keyoff_events": 1117,
    "orphan_keyons": 3,
    "unique_pitches": 38,
    "pitch_range": 65,
    "avg_duration_sec": 0.2102
  },
  "metadata": {
    "source": "S\\Saint Sword\\11 - Chapter 7 Scene 1.vgz"
  },
  "notes": [
    {
      "channel": 0,
      "note": 88,
      "start": 0.0,
      "duration": 0.0886,
      "velocity": 103,
      "chip": "ym2612"
    },
    {
      "channel": 1,
      "note": 52,
      "start": 0.0012,
      "duration": 0.0882,
      "velocity": 96,
      "chip": "ym2612"
    },
    {
      "channel": 2,
      "note": 77,
      "start": 0.0087,
      "duration": 0.0771,
      "velocity": 127,
      "chip": "ym2612"
    },
    {
      "channel": 0,
      "note": 89,
      "start": 0.0893,
      "duration": 0.1056,
      "velocity": 103,
      "chip": "ym2612"
    },
    {
      "channel": 1,
      "note": 54,
      "start": 0.09,
      "duration": 0.1053,
      "velocity": 96,
      "chip": "ym2612"
    },
    {
      "channel": 2,
      "note": 77,
      "start": 0.0917,
      "duration": 0.2124,
      "velocity": 127,
      "chip": "ym2612"
    },
    {
      "channel": 0,
      "note": 90,
      "start": 0.3078,
      "duration": 0.1054,
      "velocity": 103,
      "chip": "ym2612"
    },
    {
      "channel": 1,
      "note": 54,
      "start": 0.309,
      "duration": 0.1046,
      "velocity": 96,
      "chip": "ym2612"
    },
    {
      "channel": 2,
      "note": 77,
      "start": 0.3101,
      "duration": 0.2123,
      "velocity": 127,
      "chip": "ym2612"
    },
    {
      "channel": 0,
      "note": 90,
      "start": 0.5265,
      "duration": 0.105,
      "velocity": 103,
      "chip": "ym2612"
    },
    {
      "channel": 1,
      "note": 54,
      "start": 0.5273,
      "duration": 0.1046,
      "velocity": 96,
      "chip": "ym2612"
    },
    {
      "channel": 2,
      "note": 77,
      "start": 0.5283,
      "duration": 0.2125,
      "velocity": 127,
      "chip": "ym2612"
    },
    {
      "channel": 5,
      "note": 88,
      "start": 0.636,
      "duration": 0.1098,
      "velocity": 103,
      "chip": "ym2612"
    },
    {
      "channel": 0,
      "note": 88,
      "start": 0.7447,
      "duration": 0.1078,
      "velocity": 103,
      "chip": "ym2612"
    },
    {
      "channel": 1,
      "note": 54,
      "start": 0.7454,
      "duration": 0.108,
      "velocity": 96,
      "chip": "ym2612"
    },
    {
      "channel": 5,
      "note": 89,
      "start": 0.7465,
      "duration": 0.1078,
      "velocity": 103,
      "chip": "ym2612"
    },
    {
      "channel": 2,
      "note": 77,
      "start": 0.7473,
      "duration": 0.1024,
      "velocity": 127,
      "chip": "ym2612"
    },
    {
      "channel": 0,
      "note": 90,
      "start": 0.8533,
      "duration": 0.1084,
      "velocity": 103,
      "chip": "ym2612"
    },
    {
      "channel": 1,
      "note": 54,
      "start": 0.854,
      "duration": 0.108,
      "velocity": 96,
      "chip": "ym2612"
    },
    {
      "channel": 2,
      "note": 37,
      "start": 0.8552,
      "duration": 0.1037,
      "velocity": 120,
      "chip": "ym2612"
    },
    {
      "channel": 5,
      "note": 90,
      "start": 0.9632,
      "duration": 0.1078,
      "velocity": 103,
      "chip": "ym2612"
    },
    {
      "channel": 2,
      "note": 77,
      "start": 0.9641,
      "duration": 0.0311,
      "velocity": 127,
      "chip": "ym2612"
    },
    {
      "channel": 2,
      "note": 77,
      "start": 0.9995,
      "duration": 0.0685,
      "velocity": 127,
      "chip": "ym2612"
    },
    {
      "channel": 2,
      "note": 77,
      "start": 1.0721,
      "duration": 0.105,
      "velocity": 127,
      "chip": "ym2612"
    },
    {
      "channel": 5,
      "note": 90,
      "start": 1.1809,
      "duration": 0.1101,
      "velocity": 103,
      "chip": "ym2612"
    },
    {
      "channel": 2,
      "note": 77,
      "start": 1.1818,
      "duration": 0.1044,
      "velocity": 127,
      "chip": "ym2612"
    },
    {
      "channel": 0,
      "note": 90,
      "start": 1.2898,
      "duration": 0.1084,
      "velocity": 103,
      "chip": "ym2612"
    },
    {
      "channel": 1,
      "note": 54,
      "start": 1.2907,
      "duration": 0.1083,
      "velocity": 96,
      "chip": "ym2612"
    },
    {
      "channel": 2,
      "note": 77,
      "start": 1.2924,
      "duration": 0.1029,
      "velocity": 127,
      "chip": "ym2612"
    },
    {
      "channel": 0,
      "note": 90,
      "start": 1.3989,
      "duration": 0.1087,
      "velocity": 103,
      "chip": "ym2612"
    },
    {
      "channel": 1,
      "note": 54,
      "start": 1.3996,
      "duration": 0.1092,
      "velocity": 96,
      "chip": "ym2612"
    },
    {
      "channel": 5,
      "note": 88,
      "start": 1.4007,
      "duration": 0.1091,
      "velocity": 103,
      "chip": "ym2612"
    },
    {
      "channel": 2,
      "note": 77,
      "start": 1.4015,
      "duration": 0.1031,
      "velocity": 127,
      "chip": "ym2612"
    },
    {
      "channel": 0,
      "note": 88,
      "start": 1.5087,
      "duration": 0.1077,
      "velocity": 103,
      "chip": "ym2612"
    },
    {
      "channel": 1,
      "note": 52,
      "start": 1.5094,
      "duration": 0.1079,
      "velocity": 96,
      "chip": "ym2612"
    },
    {
      "channel": 5,
      "note": 90,
      "start": 1.5105,
      "duration": 0.1077,
      "velocity": 103,
      "chip": "ym2612"
    },
    {
      "channel": 2,
      "note": 77,
      "start": 1.5113,
      "duration": 0.1023,
      "velocity": 127,
      "chip": "ym2612"
    },
    {
      "channel": 0,
      "note": 90,
      "start": 1.6171,
      "duration": 0.1092,
      "velocity": 103,
      "chip": "ym2612"
    },
    {
      "channel": 1,
      "note": 54,
      "start": 1.6179,
      "duration": 0.1087,
      "velocity": 96,
      "chip": "ym2612"
    },
    {
      "channel": 2,
      "note": 77,
      "start": 1.6192,
      "duration": 0.1037,
      "velocity": 127,
      "chip": "ym2612"
    },
    {
      "channel": 2,
      "note": 37,
      "start": 1.728,
      "duration": 0.1226,
      "velocity": 120,
      "chip": "ym2612"
    },
    {
      "channel": 5,
      "note": 90,
      "start": 1.9456,
      "duration": 0.105,
      "velocity": 103,
      "chip": "ym2612"
    },
    {
      "channel": 2,
      "note": 37,
      "start": 1.9463,
      "duration": 0.123,
      "velocity": 120,
      "chip": "ym2612"
    },
    {
      "channel": 5,
      "note": 90,
      "start": 2.0514,
      "duration": 0.1126,
      "velocity": 103,
      "chip": "ym2612"
    },
    {
      "channel": 0,
      "note": 93,
      "start": 2.1629,
      "duration": 0.4331,
      "velocity": 103,
      "chip": "ym2612"
    },
    {
      "channel": 1,
      "note": 57,
      "start": 2.1636,
      "duration": 0.4326,
      "velocity": 96,
      "chip": "ym2612"
    },
    {
      "channel": 5,
      "note": 88,
      "start": 2.1646,
      "duration": 0.1048,
      "velocity": 103,
      "chip": "ym2612"
    },
    {
      "channel": 2,
      "note": 77,
      "start": 2.1655,
      "duration": 0.2315,
      "velocity": 127,
      "chip": "ym2612"
    },
    {
      "channel": 5,
      "note": 90,
      "start": 2.2702,
      "duration": 0.1085,
      "velocity": 103,
      "chip": "ym2612"
    },
    {
      "channel": 2,
      "note": 37,
      "start": 2.4918,
      "duration": 0.1227,
      "velocity": 120,
      "chip": "ym2612"
    },
    {
      "channel": 2,
      "note": 37,
      "start": 2.7095,
      "duration": 0.1237,
      "velocity": 120,
      "chip": "ym2612"
    },
    {
      "channel": 5,
      "note": 93,
      "start": 2.8152,
      "duration": 0.4393,
      "velocity": 103,
      "chip": "ym2612"
    },
    {
      "channel": 2,
      "note": 37,
      "start": 2.9281,
      "duration": 0.1043,
      "velocity": 120,
      "chip": "ym2612"
    },
    {
      "channel": 0,
      "note": 92,
      "start": 3.036,
      "duration": 0.4363,
      "velocity": 103,
      "chip": "ym2612"
    },
    {
      "channel": 1,
      "note": 56,
      "start": 3.0367,
      "duration": 0.4365,
      "velocity": 96,
      "chip": "ym2612"
    },
    {
      "channel": 2,
      "note": 77,
      "start": 3.0381,
      "duration": 0.2126,
      "velocity": 127,
      "chip": "ym2612"
    },
    {
      "channel": 2,
      "note": 77,
      "start": 3.2555,
      "duration": 0.2136,
      "velocity": 127,
      "chip": "ym2612"
    },
    {
      "channel": 0,
      "note": 88,
      "start": 3.4729,
      "duration": 0.1079,
      "velocity": 103,
      "chip": "ym2612"
    },
    {
      "channel": 1,
      "note": 52,
      "start": 3.474,
      "duration": 0.1077,
      "velocity": 96,
      "chip": "ym2612"
    },
    {
      "channel": 3,
      "note": 95,
      "start": 3.4753,
      "duration": 0.1071,
      "velocity": 103,
      "chip": "ym2612"
    },
    {
      "channel": 2,
      "note": 77,
      "start": 3.4763,
      "duration": 0.1017,
      "velocity": 127,
      "chip": "ym2612"
    },
    {
      "channel": 0,
      "note": 89,
      "start": 3.5816,
      "duration": 0.1057,
      "velocity": 103,
      "chip": "ym2612"
    },
    {
      "channel": 1,
      "note": 54,
      "start": 3.5823,
      "duration": 0.1054,
      "velocity": 96,
      "chip": "ym2612"
    },
    {
      "channel": 3,
      "note": 96,
      "start": 3.583,
      "duration": 0.1049,
      "velocity": 103,
      "chip": "ym2612"
    },
    {
      "channel": 2,
      "note": 77,
      "start": 3.5841,
      "duration": 0.2123,
      "velocity": 127,
      "chip": "ym2612"
    },
    {
      "channel": 4,
      "note": 95,
      "start": 3.689,
      "duration": 0.1125,
      "velocity": 103,
      "chip": "ym2612"
    },
    {
      "channel": 5,
      "note": 92,
      "start": 3.6898,
      "duration": 0.4361,
      "velocity": 103,
      "chip": "ym2612"
    },
    {
      "channel": 0,
      "note": 90,
      "start": 3.7998,
      "duration": 0.1057,
      "velocity": 103,
      "chip": "ym2612"
    },
    {
      "channel": 1,
      "note": 54,
      "start": 3.8006,
      "duration": 0.1053,
      "velocity": 96,
      "chip": "ym2612"
    },
    {
      "channel": 3,
      "note": 97,
      "start": 3.8014,
      "duration": 0.1048,
      "velocity": 103,
      "chip": "ym2612"
    },
    {
      "channel": 4,
      "note": 96,
      "start": 3.8021,
      "duration": 0.1044,
      "velocity": 103,
      "chip": "ym2612"
    },
    {
      "channel": 2,
      "note": 77,
      "start": 3.8034,
      "duration": 0.2112,
      "velocity": 127,
      "chip": "ym2612"
    },
    {
      "channel": 0,
      "note": 90,
      "start": 4.0181,
      "duration": 0.1059,
      "velocity": 103,
      "chip": "ym2612"
    },
    {
      "channel": 1,
      "note": 54,
      "start": 4.0189,
      "duration": 0.1054,
      "velocity": 96,
      "chip": "ym2612"
    },
    {
      "channel": 3,
      "note": 97,
      "start": 4.0197,
      "duration": 0.1053,
      "velocity": 103,
      "chip": "ym2612"
    },
    {
      "channel": 4,
      "note": 97,
      "start": 4.0204,
      "duration": 0.1049,
      "velocity": 103,
      "chip": "ym2612"
    },
    {
      "channel": 2,
      "note": 77,
      "start": 4.0218,
      "duration": 0.2111,
      "velocity": 127,
      "chip": "ym2612"
    },
    {
      "channel": 5,
      "note": 88,
      "start": 4.1267,
      "duration": 0.1122,
      "velocity": 103,
      "chip": "ym2612"
    },
    {
      "channel": 0,
      "note": 88,
      "start": 4.2364,
      "duration": 0.1085,
      "velocity": 103,
      "chip": "ym2612"
    },
    {
      "channel": 1,
      "note": 54,
      "start": 4.2371,
      "duration": 0.1087,
      "velocity": 96,
      "chip": "ym2612"
    },
    {
      "channel": 3,
      "note": 95,
      "start": 4.2379,
      "duration": 0.1086,
      "velocity": 103,
      "chip": "ym2612"
    },
    {
      "channel": 4,
      "note": 97,
      "start": 4.2387,
      "duration": 0.1086,
      "velocity": 103,
      "chip": "ym2612"
    },
    {
      "channel": 5,
      "note": 89,
      "start": 4.2396,
      "duration": 0.108,
      "velocity": 103,
      "chip": "ym2612"
    },
    {
      "channel": 2,
      "note": 77,
      "start": 4.2406,
      "duration": 0.1015,
      "velocity": 127,
      "chip": "ym2612"
    },
    {
      "channel": 0,
      "note": 90,
      "start": 4.3456,
      "duration": 0.1083,
      "velocity": 103,
      "chip": "ym2612"
    },
    {
      "channel": 1,
      "note": 54,
      "start": 4.3464,
      "duration": 0.1078,
      "velocity": 96,
      "chip": "ym2612"
    },
    {
      "channel": 3,
      "note": 97,
      "start": 4.3472,
      "duration": 0.1074,
      "velocity": 103,
      "chip": "ym2612"
    },
    {
      "channel": 2,
      "note": 37,
      "start": 4.3485,
      "duration": 0.1026,
      "velocity": 120,
      "chip": "ym2612"
    },
    {
      "channel": 4,
      "note": 95,
      "start": 4.4555,
      "duration": 0.1078,
      "velocity": 103,
      "chip": "ym2612"
    },
    {
      "channel": 5,
      "note": 90,
      "start": 4.4564,
      "duration": 0.1077,
      "velocity": 103,
      "chip": "ym2612"
    },
    {
      "channel": 2,
      "note": 77,
      "start": 4.4574,
      "duration": 0.0301,
      "velocity": 127,
      "chip": "ym2612"
    },
    {
      "channel": 2,
      "note": 77,
      "start": 4.4927,
      "duration": 0.0675,
      "velocity": 127,
      "chip": "ym2612"
    },
    {
      "channel": 4,
      "note": 97,
      "start": 4.5639,
      "duration": 0.1085,
      "velocity": 103,
      "chip": "ym2612"
    },
    {
      "channel": 2,
      "note": 77,
      "start": 4.565,
      "duration": 0.1043,
      "velocity": 127,
      "chip": "ym2612"
    },
    {
      "channel": 5,
      "note": 90,
      "start": 4.6735,
      "duration": 0.1104,
      "velocity": 103,
      "chip": "ym2612"
    },
    {
      "channel": 2,
      "note": 77,
      "start": 4.6746,
      "duration": 0.1039,
      "velocity": 127,
      "chip": "ym2612"
    },
    {
      "channel": 0,
      "note": 90,
      "start": 4.7821,
      "duration": 0.1086,
      "velocity": 103,
      "chip": "ym2612"
    },
    {
      "channel": 1,
      "note": 54,
      "start": 4.7828,
      "duration": 0.1092,
      "velocity": 96,
      "chip": "ym2612"
    },
    {
      "channel": 3,
      "note": 97,
      "start": 4.7836,
      "duration": 0.1092,
      "velocity": 103,
      "chip": "ym2612"
    },
    {
      "channel": 2,
      "note": 77,
      "start": 4.7848,
      "duration": 0.1029,
      "velocity": 127,
      "chip": "ym2612"
    },
    {
      "channel": 0,
      "note": 90,
      "start": 4.8919,
      "duration": 0.1078,
      "velocity": 103,
      "chip": "ym2612"
    },
    {
      "channel": 1,
      "note": 54,
      "start": 4.8926,
      "duration": 0.1079,
      "velocity": 96,
      "chip": "ym2612"
    },
    {
      "channel": 3,
      "note": 97,
      "start": 4.8934,
      "duration": 0.1078,
      "velocity": 103,
      "chip": "ym2612"
    },
    {
      "channel": 5,
      "note": 88,
      "start": 4.8944,
      "duration": 0.1085,
      "velocity": 103,
      "chip": "ym2612"
    },
    {
      "channel": 2,
      "note": 77,
      "start": 4.8952,
      "duration": 0.1017,
      "velocity": 127,
      "chip": "ym2612"
    },
    {
      "channel": 0,
      "note": 88,
      "start": 5.0003,
      "duration": 0.109,
      "velocity": 103,
      "chip": "ym2612"
    },
    {
      "channel": 1,
      "note": 52,
      "start": 5.0011,
      "duration": 0.1091,
      "velocity": 96,
      "chip": "ym2612"
    },
    {
      "channel": 3,
      "note": 95,
      "start": 5.0019,
      "duration": 0.109,
      "velocity": 103,
      "chip": "ym2612"
    },
    {
      "channel": 4,
      "note": 97,
      "start": 5.0026,
      "duration": 0.109,
      "velocity": 103,
      "chip": "ym2612"
    },
    {
      "channel": 5,
      "note": 90,
      "start": 5.0035,
      "duration": 0.1089,
      "velocity": 103,
      "chip": "ym2612"
    },
    {
      "channel": 2,
      "note": 77,
      "start": 5.0044,
      "duration": 0.1015,
      "velocity": 127,
      "chip": "ym2612"
    },
    {
      "channel": 0,
      "note": 90,
      "start": 5.11,
      "duration": 0.108,
      "velocity": 103,
      "chip": "ym2612"
    },
    {
      "channel": 1,
      "note": 54,
      "start": 5.1108,
      "duration": 0.1075,
      "velocity": 96,
      "chip": "ym2612"
    },
    {
      "channel": 3,
      "note": 97,
      "start": 5.1115,
      "duration": 0.1071,
      "velocity": 103,
      "chip": "ym2612"
    },
    {
      "channel": 4,
      "note": 97,
      "start": 5.1123,
      "duration": 0.1066,
      "velocity": 103,
      "chip": "ym2612"
    },
    {
      "channel": 2,
      "note": 77,
      "start": 5.1134,
      "duration": 0.1017,
      "velocity": 127,
      "chip": "ym2612"
    },
    {
      "channel": 4,
      "note": 95,
      "start": 5.2195,
      "duration": 0.1055,
      "velocity": 103,
      "chip": "ym2612"
    },
    {
      "channel": 2,
      "note": 37,
      "start": 5.2203,
      "duration": 0.1228,
      "velocity": 120,
      "chip": "ym2612"
    },
    {
      "channel": 4,
      "note": 97,
      "start": 5.3256,
      "duration": 0.1108,
      "velocity": 103,
      "chip": "ym2612"
    },
    {
      "channel": 5,
      "note": 90,
      "start": 5.4375,
      "duration": 0.1054,
      "velocity": 103,
      "chip": "ym2612"
    },
    {
      "channel": 2,
      "note": 37,
      "start": 5.4382,
      "duration": 0.1234,
      "velocity": 120,
      "chip": "ym2612"
    },
    {
      "channel": 5,
      "note": 90,
      "start": 5.5436,
      "duration": 0.1132,
      "velocity": 103,
      "chip": "ym2612"
    },
    {
      "channel": 0,
      "note": 93,
      "start": 5.6551,
      "duration": 0.4331,
      "velocity": 103,
      "chip": "ym2612"
    },
    {
      "channel": 1,
      "note": 57,
      "start": 5.6558,
      "duration": 0.4327,
      "velocity": 96,
      "chip": "ym2612"
    },
    {
      "channel": 3,
      "note": 102,
      "start": 5.6566,
      "duration": 0.4322,
      "velocity": 103,
      "chip": "ym2612"
    },
    {
      "channel": 5,
      "note": 88,
      "start": 5.6578,
      "duration": 0.1043,
      "velocity": 103,
      "chip": "ym2612"
    },
    {
      "channel": 2,
      "note": 77,
      "start": 5.659,
      "duration": 0.2308,
      "velocity": 127,
      "chip": "ym2612"
    },
    {
      "channel": 5,
      "note": 90,
      "start": 5.7627,
      "duration": 0.1091,
      "velocity": 103,
      "chip": "ym2612"
    },
    {
      "channel": 4,
      "note": 102,
      "start": 5.8717,
      "duration": 0.435,
      "velocity": 103,
      "chip": "ym2612"
    },
    {
      "channel": 2,
      "note": 37,
      "start": 5.9841,
      "duration": 0.1229,
      "velocity": 120,
      "chip": "ym2612"
    },
    {
      "channel": 2,
      "note": 37,
      "start": 6.2013,
      "duration": 0.1246,
      "velocity": 120,
      "chip": "ym2612"
    },
    {
      "channel": 5,
      "note": 93,
      "start": 6.3084,
      "duration": 0.4393,
      "velocity": 103,
      "chip": "ym2612"
    },
    {
      "channel": 2,
      "note": 37,
      "start": 6.4198,
      "duration": 0.1053,
      "velocity": 120,
      "chip": "ym2612"
    },
    {
      "channel": 0,
      "note": 92,
      "start": 6.5286,
      "duration": 0.4356,
      "velocity": 103,
      "chip": "ym2612"
    },
    {
      "channel": 1,
      "note": 56,
      "start": 6.5293,
      "duration": 0.4354,
      "velocity": 96,
      "chip": "ym2612"
    },
    {
      "channel": 3,
      "note": 101,
      "start": 6.5301,
      "duration": 0.435,
      "velocity": 103,
      "chip": "ym2612"
    },
    {
      "channel": 2,
      "note": 77,
      "start": 6.5315,
      "duration": 0.2115,
      "velocity": 127,
      "chip": "ym2612"
    },
    {
      "channel": 4,
      "note": 101,
      "start": 6.7475,
      "duration": 0.4352,
      "velocity": 103,
      "chip": "ym2612"
    },
    {
      "channel": 2,
      "note": 77,
      "start": 6.7486,
      "duration": 0.2127,
      "velocity": 127,
      "chip": "ym2612"
    },
    {
      "channel": 2,
      "note": 77,
      "start": 6.9666,
      "duration": 0.031,
      "velocity": 127,
      "chip": "ym2612"
    },
    {
      "channel": 2,
      "note": 77,
      "start": 7.0018,
      "duration": 0.0686,
      "velocity": 127,
      "chip": "ym2612"
    },
    {
      "channel": 2,
      "note": 77,
      "start": 7.0751,
      "duration": 0.1043,
      "velocity": 127,
      "chip": "ym2612"
    },
    {
      "channel": 5,
      "note": 92,
      "start": 7.1837,
      "duration": 0.4357,
      "velocity": 103,
      "chip": "ym2612"
    },
    {
      "channel": 2,
      "note": 77,
      "start": 7.1845,
      "duration": 0.1041,
      "velocity": 127,
      "chip": "ym2612"
    },
    {
      "channel": 2,
      "note": 77,
      "start": 7.2935,
      "duration": 0.1043,
      "velocity": 127,
      "chip": "ym2612"
    },
    {
      "channel": 2,
      "note": 77,
      "start": 7.4021,
      "duration": 0.1048,
      "velocity": 127,
      "chip": "ym2612"
    },
    {
      "channel": 2,
      "note": 77,
      "start": 7.5118,
      "duration": 0.1043,
      "velocity": 127,
      "chip": "ym2612"
    },
    {
      "channel": 2,
      "note": 37,
      "start": 7.6202,
      "duration": 0.1052,
      "velocity": 120,
      "chip": "ym2612"
    },
    {
      "channel": 2,
      "note": 77,
      "start": 7.7293,
      "duration": 0.2141,
      "velocity": 127,
      "chip": "ym2612"
    },
    {
      "channel": 2,
      "note": 77,
      "start": 7.9473,
      "duration": 0.1053,
      "velocity": 127,
      "chip": "ym2612"
    },
    {
      "channel": 2,
      "note": 37,
      "start": 8.0564,
      "duration": 0.1053,
      "velocity": 120,
      "chip": "ym2612"
    },
    {
      "channel": 2,
      "note": 77,
      "start": 8.1656,
      "duration": 0.1051,
      "velocity": 127,
      "chip": "ym2612"
    },
    {
      "channel": 1,
      "note": 49,
      "start": 8.2744,
      "duration": 0.2182,
      "velocity": 96,
      "chip": "ym2612"
    },
    {
      "channel": 2,
      "note": 77,
      "start": 8.276,
      "duration": 0.1039,
      "velocity": 127,
      "chip": "ym2612"
    },
    {
      "channel": 2,
      "note": 77,
      "start": 8.3841,
      "duration": 0.105,
      "velocity": 127,
      "chip": "ym2612"
    },
    {
      "channel": 1,
      "note": 52,
      "start": 8.4932,
      "duration": 0.2193,
      "velocity": 96,
      "chip": "ym2612"
    },
    {
      "channel": 2,
      "note": 77,
      "start": 8.4943,
      "duration": 0.2134,
      "velocity": 127,
      "chip": "ym2612"
    },
    {
      "channel": 0,
      "note": 78,
      "start": 8.7121,
      "duration": 1.7443,
      "velocity": 103,
      "chip": "ym2612"
    },
    {
      "channel": 1,
      "note": 54,
      "start": 8.7131,
      "duration": 0.1039,
      "velocity": 96,
      "chip": "ym2612"
    },
    {
      "channel": 2,
      "note": 37,
      "start": 8.718,
      "duration": 0.1179,
      "velocity": 120,
      "chip": "ym2612"
    },
    {
      "channel": 1,
      "note": 54,
      "start": 8.8176,
      "duration": 0.545,
      "velocity": 96,
      "chip": "ym2612"
    },
    {
      "channel": 2,
      "note": 37,
      "start": 8.9301,
      "duration": 0.1239,
      "velocity": 120,
      "chip": "ym2612"
    },
    {
      "channel": 4,
      "note": 90,
      "start": 9.1484,
      "duration": 0.1084,
      "velocity": 96,
      "chip": "ym2612"
    },
    {
      "channel": 2,
      "note": 77,
      "start": 9.1492,
      "duration": 0.1038,
      "velocity": 127,
      "chip": "ym2612"
    },
    {
      "channel": 4,
      "note": 90,
      "start": 9.2578,
      "duration": 0.1057,
      "velocity": 96,
      "chip": "ym2612"
    },
    {
      "channel": 2,
      "note": 37,
      "start": 9.259,
      "duration": 0.123,
      "velocity": 120,
      "chip": "ym2612"
    },
    {
      "channel": 1,
      "note": 54,
      "start": 9.3632,
      "duration": 0.112,
      "velocity": 96,
      "chip": "ym2612"
    },
    {
      "channel": 5,
      "note": 78,
      "start": 9.3652,
      "duration": 1.7454,
      "velocity": 103,
      "chip": "ym2612"
    },
    {
      "channel": 1,
      "note": 54,
      "start": 9.4758,
      "duration": 0.4331,
      "velocity": 96,
      "chip": "ym2612"
    },
    {
      "channel": 4,
      "note": 90,
      "start": 9.4768,
      "duration": 0.1045,
      "velocity": 96,
      "chip": "ym2612"
    },
    {
      "channel": 2,
      "note": 37,
      "start": 9.478,
      "duration": 0.1221,
      "velocity": 120,
      "chip": "ym2612"
    },
    {
      "channel": 4,
      "note": 90,
      "start": 9.692,
      "duration": 0.1104,
      "velocity": 96,
      "chip": "ym2612"
    },
    {
      "channel": 2,
      "note": 37,
      "start": 9.804,
      "duration": 0.1239,
      "velocity": 120,
      "chip": "ym2612"
    },
    {
      "channel": 1,
      "note": 52,
      "start": 9.9094,
      "duration": 0.1109,
      "velocity": 96,
      "chip": "ym2612"
    },
    {
      "channel": 4,
      "note": 90,
      "start": 9.9105,
      "duration": 0.1106,
      "velocity": 96,
      "chip": "ym2612"
    },
    {
      "channel": 1,
      "note": 54,
      "start": 10.0209,
      "duration": 0.1087,
      "velocity": 96,
      "chip": "ym2612"
    },
    {
      "channel": 2,
      "note": 77,
      "start": 10.0228,
      "duration": 0.1035,
      "velocity": 127,
      "chip": "ym2612"
    },
    {
      "channel": 1,
      "note": 52,
      "start": 10.1302,
      "duration": 0.1083,
      "velocity": 96,
      "chip": "ym2612"
    },
    {
      "channel": 2,
      "note": 37,
      "start": 10.1316,
      "duration": 0.1037,
      "velocity": 120,
      "chip": "ym2612"
    },
    {
      "channel": 1,
      "note": 54,
      "start": 10.2391,
      "duration": 0.1058,
      "velocity": 96,
      "chip": "ym2612"
    },
    {
      "channel": 4,
      "note": 90,
      "start": 10.2402,
      "duration": 0.1055,
      "velocity": 96,
      "chip": "ym2612"
    },
    {
      "channel": 2,
      "note": 37,
      "start": 10.242,
      "duration": 0.1222,
      "velocity": 120,
      "chip": "ym2612"
    },
    {
      "channel": 1,
      "note": 49,
      "start": 10.3454,
      "duration": 0.1122,
      "velocity": 96,
      "chip": "ym2612"
    },
    {
      "channel": 0,
      "note": 80,
      "start": 10.4574,
      "duration": 0.8693,
      "velocity": 103,
      "chip": "ym2612"
    },
    {
      "channel": 1,
      "note": 54,
      "start": 10.4586,
      "duration": 0.1045,
      "velocity": 96,
      "chip": "ym2612"
    },
    {
      "channel": 2,
      "note": 37,
      "start": 10.4603,
      "duration": 0.122,
      "velocity": 120,
      "chip": "ym2612"
    },
    {
      "channel": 1,
      "note": 54,
      "start": 10.5637,
      "duration": 0.5456,
      "velocity": 96,
      "chip": "ym2612"
    },
    {
      "channel": 4,
      "note": 90,
      "start": 10.6769,
      "duration": 0.1049,
      "velocity": 96,
      "chip": "ym2612"
    },
    {
      "channel": 2,
      "note": 37,
      "start": 10.6781,
      "duration": 0.1229,
      "velocity": 120,
      "chip": "ym2612"
    },
    {
      "channel": 4,
      "note": 90,
      "start": 10.7827,
      "duration": 0.1116,
      "velocity": 96,
      "chip": "ym2612"
    },
    {
      "channel": 2,
      "note": 77,
      "start": 10.896,
      "duration": 0.1031,
      "velocity": 127,
      "chip": "ym2612"
    },
    {
      "channel": 4,
      "note": 90,
      "start": 11.0037,
      "duration": 0.1064,
      "velocity": 96,
      "chip": "ym2612"
    },
    {
      "channel": 2,
      "note": 37,
      "start": 11.0049,
      "duration": 0.1232,
      "velocity": 120,
      "chip": "ym2612"
    },
    {
      "channel": 1,
      "note": 57,
      "start": 11.1098,
      "duration": 0.1109,
      "velocity": 96,
      "chip": "ym2612"
    },
    {
      "channel": 5,
      "note": 80,
      "start": 11.1113,
      "duration": 0.8743,
      "velocity": 103,
      "chip": "ym2612"
    },
    {
      "channel": 1,
      "note": 59,
      "start": 11.2213,
      "duration": 0.2149,
      "velocity": 96,
      "chip": "ym2612"
    },
    {
      "channel": 4,
      "note": 90,
      "start": 11.2224,
      "duration": 0.1056,
      "velocity": 96,
      "chip": "ym2612"
    },
    {
      "channel": 2,
      "note": 37,
      "start": 11.2236,
      "duration": 0.1227,
      "velocity": 120,
      "chip": "ym2612"
    },
    {
      "channel": 0,
      "note": 76,
      "start": 11.3274,
      "duration": 0.6568,
      "velocity": 103,
      "chip": "ym2612"
    },
    {
      "channel": 1,
      "note": 57,
      "start": 11.4368,
      "duration": 0.2176,
      "velocity": 96,
      "chip": "ym2612"
    },
    {
      "channel": 2,
      "note": 37,
      "start": 11.5497,
      "duration": 0.124,
      "velocity": 120,
      "chip": "ym2612"
    },
    {
      "channel": 1,
      "note": 56,
      "start": 11.6551,
      "duration": 0.2212,
      "velocity": 96,
      "chip": "ym2612"
    },
    {
      "channel": 2,
      "note": 77,
      "start": 11.768,
      "duration": 0.1043,
      "velocity": 127,
      "chip": "ym2612"
    },
    {
      "channel": 1,
      "note": 54,
      "start": 11.8768,
      "duration": 0.2144,
      "velocity": 96,
      "chip": "ym2612"
    },
    {
      "channel": 2,
      "note": 37,
      "start": 11.8782,
      "duration": 0.1032,
      "velocity": 120,
      "chip": "ym2612"
    },
    {
      "channel": 0,
      "note": 73,
      "start": 11.9849,
      "duration": 3.71,
      "velocity": 103,
      "chip": "ym2612"
    },
    {
      "channel": 5,
      "note": 76,
      "start": 11.9863,
      "duration": 0.6548,
      "velocity": 103,
      "chip": "ym2612"
    },
    {
      "channel": 2,
      "note": 37,
      "start": 11.9871,
      "duration": 0.1233,
      "velocity": 120,
      "chip": "ym2612"
    },
    {
      "channel": 1,
      "note": 56,
      "start": 12.0922,
      "duration": 0.1111,
      "velocity": 96,
      "chip": "ym2612"
    },
    {
      "channel": 1,
      "note": 54,
      "start": 12.2039,
      "duration": 0.1055,
      "velocity": 96,
      "chip": "ym2612"
    },
    {
      "channel": 2,
      "note": 37,
      "start": 12.2096,
      "duration": 0.1189,
      "velocity": 120,
      "chip": "ym2612"
    },
    {
      "channel": 1,
      "note": 54,
      "start": 12.31,
      "duration": 0.545,
      "velocity": 96,
      "chip": "ym2612"
    },
    {
      "channel": 2,
      "note": 37,
      "start": 12.4227,
      "duration": 0.1241,
      "velocity": 120,
      "chip": "ym2612"
    },
    {
      "channel": 4,
      "note": 90,
      "start": 12.6409,
      "duration": 0.1081,
      "velocity": 96,
      "chip": "ym2612"
    },
    {
      "channel": 5,
      "note": 73,
      "start": 12.6423,
      "duration": 3.7065,
      "velocity": 103,
      "chip": "ym2612"
    },
    {
      "channel": 2,
      "note": 77,
      "start": 12.6431,
      "duration": 0.1022,
      "velocity": 127,
      "chip": "ym2612"
    },
    {
      "channel": 4,
      "note": 90,
      "start": 12.7498,
      "duration": 0.1059,
      "velocity": 96,
      "chip": "ym2612"
    },
    {
      "channel": 2,
      "note": 37,
      "start": 12.751,
      "duration": 0.1235,
      "velocity": 120,
      "chip": "ym2612"
    },
    {
      "channel": 1,
      "note": 54,
      "start": 12.8555,
      "duration": 0.1114,
      "velocity": 96,
      "chip": "ym2612"
    },
    {
      "channel": 1,
      "note": 54,
      "start": 12.9675,
      "duration": 0.4331,
      "velocity": 96,
      "chip": "ym2612"
    },
    {
      "channel": 4,
      "note": 90,
      "start": 12.9685,
      "duration": 0.1052,
      "velocity": 96,
      "chip": "ym2612"
    },
    {
      "channel": 2,
      "note": 37,
      "start": 12.9697,
      "duration": 0.1233,
      "velocity": 120,
      "chip": "ym2612"
    },
    {
      "channel": 4,
      "note": 90,
      "start": 13.1836,
      "duration": 0.1116,
      "velocity": 96,
      "chip": "ym2612"
    },
    {
      "channel": 2,
      "note": 37,
      "start": 13.2967,
      "duration": 0.1234,
      "velocity": 120,
      "chip": "ym2612"
    },
    {
      "channel": 1,
      "note": 52,
      "start": 13.4012,
      "duration": 0.1113,
      "velocity": 96,
      "chip": "ym2612"
    },
    {
      "channel": 4,
      "note": 90,
      "start": 13.4022,
      "duration": 0.1111,
      "velocity": 96,
      "chip": "ym2612"
    },
    {
      "channel": 1,
      "note": 54,
      "start": 13.5131,
      "duration": 0.1086,
      "velocity": 96,
      "chip": "ym2612"
    },
    {
      "channel": 2,
      "note": 77,
      "start": 13.515,
      "duration": 0.1034,
      "velocity": 127,
      "chip": "ym2612"
    },
    {
      "channel": 1,
      "note": 52,
      "start": 13.6222,
      "duration": 0.1086,
      "velocity": 96,
      "chip": "ym2612"
    },
    {
      "channel": 2,
      "note": 37,
      "start": 13.6236,
      "duration": 0.1039,
      "velocity": 120,
      "chip": "ym2612"
    },
    {
      "channel": 1,
      "note": 54,
      "start": 13.7314,
      "duration": 0.1058,
      "velocity": 96,
      "chip": "ym2612"
    },
    {
      "channel": 4,
      "note": 90,
      "start": 13.7324,
      "duration": 0.1055,
      "velocity": 96,
      "chip": "ym2612"
    },
    {
      "channel": 2,
      "note": 37,
      "start": 13.7336,
      "duration": 0.1228,
      "velocity": 120,
      "chip": "ym2612"
    },
    {
      "channel": 1,
      "note": 49,
      "start": 13.8377,
      "duration": 0.1117,
      "velocity": 96,
      "chip": "ym2612"
    },
    {
      "channel": 1,
      "note": 54,
      "start": 13.95,
      "duration": 0.1055,
      "velocity": 96,
      "chip": "ym2612"
    },
    {
      "channel": 2,
      "note": 37,
      "start": 13.9517,
      "duration": 0.1235,
      "velocity": 120,
      "chip": "ym2612"
    },
    {
      "channel": 1,
      "note": 54,
      "start": 14.0561,
      "duration": 0.545,
      "velocity": 96,
      "chip": "ym2612"
    },
    {
      "channel": 4,
      "note": 90,
      "start": 14.1685,
      "duration": 0.106,
      "velocity": 96,
      "chip": "ym2612"
    },
    {
      "channel": 2,
      "note": 37,
      "start": 14.1697,
      "duration": 0.1239,
      "velocity": 120,
      "chip": "ym2612"
    },
    {
      "channel": 4,
      "note": 90,
      "start": 14.2757,
      "duration": 0.1102,
      "velocity": 96,
      "chip": "ym2612"
    },
    {
      "channel": 2,
      "note": 77,
      "start": 14.3877,
      "duration": 0.1041,
      "velocity": 127,
      "chip": "ym2612"
    },
    {
      "channel": 4,
      "note": 90,
      "start": 14.4963,
      "duration": 0.1055,
      "velocity": 96,
      "chip": "ym2612"
    },
    {
      "channel": 2,
      "note": 37,
      "start": 14.4976,
      "duration": 0.1227,
      "velocity": 120,
      "chip": "ym2612"
    },
    {
      "channel": 1,
      "note": 59,
      "start": 14.6017,
      "duration": 0.1113,
      "velocity": 96,
      "chip": "ym2612"
    },
    {
      "channel": 1,
      "note": 61,
      "start": 14.7136,
      "duration": 0.4332,
      "velocity": 96,
      "chip": "ym2612"
    },
    {
      "channel": 4,
      "note": 90,
      "start": 14.7146,
      "duration": 0.1051,
      "velocity": 96,
      "chip": "ym2612"
    },
    {
      "channel": 2,
      "note": 37,
      "start": 14.7159,
      "duration": 0.1227,
      "velocity": 120,
      "chip": "ym2612"
    },
    {
      "channel": 2,
      "note": 37,
      "start": 15.0425,
      "duration": 0.1235,
      "velocity": 120,
      "chip": "ym2612"
    },
    {
      "channel": 1,
      "note": 64,
      "start": 15.1474,
      "duration": 0.1119,
      "velocity": 96,
      "chip": "ym2612"
    },
    {
      "channel": 1,
      "note": 66,
      "start": 15.26,
      "duration": 0.1079,
      "velocity": 96,
      "chip": "ym2612"
    },
    {
      "channel": 2,
      "note": 77,
      "start": 15.2614,
      "duration": 0.1031,
      "velocity": 127,
      "chip": "ym2612"
    },
    {
      "channel": 1,
      "note": 64,
      "start": 15.3685,
      "duration": 0.109,
      "velocity": 96,
      "chip": "ym2612"
    },
    {
      "channel": 2,
      "note": 37,
      "start": 15.3698,
      "duration": 0.1038,
      "velocity": 120,
      "chip": "ym2612"
    },
    {
      "channel": 1,
      "note": 66,
      "start": 15.4781,
      "duration": 0.1053,
      "velocity": 96,
      "chip": "ym2612"
    },
    {
      "channel": 2,
      "note": 37,
      "start": 15.4795,
      "duration": 0.1231,
      "velocity": 120,
      "chip": "ym2612"
    },
    {
      "channel": 1,
      "note": 61,
      "start": 15.5839,
      "duration": 0.1121,
      "velocity": 96,
      "chip": "ym2612"
    },
    {
      "channel": 0,
      "note": 78,
      "start": 15.6957,
      "duration": 1.7456,
      "velocity": 103,
      "chip": "ym2612"
    },
    {
      "channel": 1,
      "note": 54,
      "start": 15.6966,
      "duration": 0.1049,
      "velocity": 96,
      "chip": "ym2612"
    },
    {
      "channel": 2,
      "note": 37,
      "start": 15.7017,
      "duration": 0.1191,
      "velocity": 120,
      "chip": "ym2612"
    },
    {
      "channel": 1,
      "note": 54,
      "start": 15.8021,
      "duration": 0.5454,
      "velocity": 96,
      "chip": "ym2612"
    },
    {
      "channel": 2,
      "note": 37,
      "start": 15.9149,
      "duration": 0.1242,
      "velocity": 120,
      "chip": "ym2612"
    },
    {
      "channel": 4,
      "note": 90,
      "start": 16.1329,
      "duration": 0.1091,
      "velocity": 96,
      "chip": "ym2612"
    },
    {
      "channel": 2,
      "note": 77,
      "start": 16.1342,
      "duration": 0.1034,
      "velocity": 127,
      "chip": "ym2612"
    },
    {
      "channel": 4,
      "note": 90,
      "start": 16.2428,
      "duration": 0.1055,
      "velocity": 96,
      "chip": "ym2612"
    },
    {
      "channel": 2,
      "note": 37,
      "start": 16.244,
      "duration": 0.1225,
      "velocity": 120,
      "chip": "ym2612"
    },
    {
      "channel": 1,
      "note": 54,
      "start": 16.348,
      "duration": 0.1118,
      "velocity": 96,
      "chip": "ym2612"
    },
    {
      "channel": 5,
      "note": 78,
      "start": 16.3495,
      "duration": 1.7452,
      "velocity": 103,
      "chip": "ym2612"
    },
    {
      "channel": 1,
      "note": 54,
      "start": 16.4605,
      "duration": 0.4324,
      "velocity": 96,
      "chip": "ym2612"
    },
    {
      "channel": 4,
      "note": 90,
      "start": 16.4615,
      "duration": 0.1044,
      "velocity": 96,
      "chip": "ym2612"
    },
    {
      "channel": 2,
      "note": 37,
      "start": 16.4627,
      "duration": 0.122,
      "velocity": 120,
      "chip": "ym2612"
    },
    {
      "channel": 4,
      "note": 90,
      "start": 16.6766,
      "duration": 0.1103,
      "velocity": 96,
      "chip": "ym2612"
    },
    {
      "channel": 2,
      "note": 37,
      "start": 16.7885,
      "duration": 0.1239,
      "velocity": 120,
      "chip": "ym2612"
    },
    {
      "channel": 1,
      "note": 52,
      "start": 16.8935,
      "duration": 0.1113,
      "velocity": 96,
      "chip": "ym2612"
    },
    {
      "channel": 4,
      "note": 90,
      "start": 16.8946,
      "duration": 0.1111,
      "velocity": 96,
      "chip": "ym2612"
    },
    {
      "channel": 1,
      "note": 54,
      "start": 17.0054,
      "duration": 0.1086,
      "velocity": 96,
      "chip": "ym2612"
    },
    {
      "channel": 2,
      "note": 77,
      "start": 17.0075,
      "duration": 0.1031,
      "velocity": 127,
      "chip": "ym2612"
    },
    {
      "channel": 1,
      "note": 52,
      "start": 17.1145,
      "duration": 0.1085,
      "velocity": 96,
      "chip": "ym2612"
    },
    {
      "channel": 2,
      "note": 37,
      "start": 17.1159,
      "duration": 0.1039,
      "velocity": 120,
      "chip": "ym2612"
    },
    {
      "channel": 1,
      "note": 54,
      "start": 17.2236,
      "duration": 0.1059,
      "velocity": 96,
      "chip": "ym2612"
    },
    {
      "channel": 4,
      "note": 90,
      "start": 17.2253,
      "duration": 0.105,
      "velocity": 96,
      "chip": "ym2612"
    },
    {
      "channel": 2,
      "note": 37,
      "start": 17.2265,
      "duration": 0.1221,
      "velocity": 120,
      "chip": "ym2612"
    },
    {
      "channel": 1,
      "note": 49,
      "start": 17.3301,
      "duration": 0.1125,
      "velocity": 96,
      "chip": "ym2612"
    },
    {
      "channel": 0,
      "note": 80,
      "start": 17.4424,
      "duration": 0.8688,
      "velocity": 103,
      "chip": "ym2612"
    },
    {
      "channel": 1,
      "note": 54,
      "start": 17.4432,
      "duration": 0.1044,
      "velocity": 96,
      "chip": "ym2612"
    },
    {
      "channel": 2,
      "note": 37,
      "start": 17.4449,
      "duration": 0.1221,
      "velocity": 120,
      "chip": "ym2612"
    },
    {
      "channel": 1,
      "note": 54,
      "start": 17.5483,
      "duration": 0.545,
      "velocity": 96,
      "chip": "ym2612"
    },
    {
      "channel": 4,
      "note": 90,
      "start": 17.6615,
      "duration": 0.105,
      "velocity": 96,
      "chip": "ym2612"
    },
    {
      "channel": 2,
      "note": 37,
      "start": 17.6627,
      "duration": 0.1228,
      "velocity": 120,
      "chip": "ym2612"
    },
    {
      "channel": 4,
      "note": 90,
      "start": 17.7672,
      "duration": 0.1115,
      "velocity": 96,
      "chip": "ym2612"
    },
    {
      "channel": 2,
      "note": 77,
      "start": 17.8804,
      "duration": 0.1033,
      "velocity": 127,
      "chip": "ym2612"
    },
    {
      "channel": 4,
      "note": 90,
      "start": 17.9882,
      "duration": 0.106,
      "velocity": 96,
      "chip": "ym2612"
    },
    {
      "channel": 2,
      "note": 37,
      "start": 17.9895,
      "duration": 0.1231,
      "velocity": 120,
      "chip": "ym2612"
    },
    {
      "channel": 1,
      "note": 57,
      "start": 18.0939,
      "duration": 0.1114,
      "velocity": 96,
      "chip": "ym2612"
    },
    {
      "channel": 5,
      "note": 80,
      "start": 18.0954,
      "duration": 0.8747,
      "velocity": 103,
      "chip": "ym2612"
    },
    {
      "channel": 1,
      "note": 59,
      "start": 18.2059,
      "duration": 0.2152,
      "velocity": 96,
      "chip": "ym2612"
    },
    {
      "channel": 4,
      "note": 90,
      "start": 18.207,
      "duration": 0.1055,
      "velocity": 96,
      "chip": "ym2612"
    },
    {
      "channel": 2,
      "note": 37,
      "start": 18.2088,
      "duration": 0.122,
      "velocity": 120,
      "chip": "ym2612"
    },
    {
      "channel": 0,
      "note": 76,
      "start": 18.3119,
      "duration": 0.6568,
      "velocity": 103,
      "chip": "ym2612"
    },
    {
      "channel": 1,
      "note": 57,
      "start": 18.4217,
      "duration": 0.2174,
      "velocity": 96,
      "chip": "ym2612"
    },
    {
      "channel": 2,
      "note": 37,
      "start": 18.5342,
      "duration": 0.1248,
      "velocity": 120,
      "chip": "ym2612"
    },
    {
      "channel": 1,
      "note": 56,
      "start": 18.6397,
      "duration": 0.221,
      "velocity": 96,
      "chip": "ym2612"
    },
    {
      "channel": 2,
      "note": 77,
      "start": 18.7526,
      "duration": 0.1042,
      "velocity": 127,
      "chip": "ym2612"
    },
    {
      "channel": 1,
      "note": 54,
      "start": 18.8613,
      "duration": 0.2147,
      "velocity": 96,
      "chip": "ym2612"
    },
    {
      "channel": 2,
      "note": 37,
      "start": 18.8627,
      "duration": 0.1032,
      "velocity": 120,
      "chip": "ym2612"
    },
    {
      "channel": 0,
      "note": 85,
      "start": 18.9694,
      "duration": 3.7102,
      "velocity": 103,
      "chip": "ym2612"
    },
    {
      "channel": 5,
      "note": 76,
      "start": 18.9708,
      "duration": 0.6552,
      "velocity": 103,
      "chip": "ym2612"
    },
    {
      "channel": 2,
      "note": 37,
      "start": 18.9716,
      "duration": 0.1234,
      "velocity": 120,
      "chip": "ym2612"
    },
    {
      "channel": 1,
      "note": 56,
      "start": 19.0766,
      "duration": 0.1111,
      "velocity": 96,
      "chip": "ym2612"
    },
    {
      "channel": 1,
      "note": 54,
      "start": 19.1883,
      "duration": 0.1057,
      "velocity": 96,
      "chip": "ym2612"
    },
    {
      "channel": 2,
      "note": 37,
      "start": 19.194,
      "duration": 0.1191,
      "velocity": 120,
      "chip": "ym2612"
    },
    {
      "channel": 1,
      "note": 54,
      "start": 19.2945,
      "duration": 0.545,
      "velocity": 96,
      "chip": "ym2612"
    },
    {
      "channel": 2,
      "note": 37,
      "start": 19.4075,
      "duration": 0.1239,
      "velocity": 120,
      "chip": "ym2612"
    },
    {
      "channel": 4,
      "note": 90,
      "start": 19.6259,
      "duration": 0.1077,
      "velocity": 96,
      "chip": "ym2612"
    },
    {
      "channel": 5,
      "note": 85,
      "start": 19.6268,
      "duration": 3.7063,
      "velocity": 103,
      "chip": "ym2612"
    },
    {
      "channel": 2,
      "note": 77,
      "start": 19.6276,
      "duration": 0.1022,
      "velocity": 127,
      "chip": "ym2612"
    },
    {
      "channel": 4,
      "note": 90,
      "start": 19.7344,
      "duration": 0.1059,
      "velocity": 96,
      "chip": "ym2612"
    },
    {
      "channel": 2,
      "note": 37,
      "start": 19.7356,
      "duration": 0.1238,
      "velocity": 120,
      "chip": "ym2612"
    },
    {
      "channel": 1,
      "note": 54,
      "start": 19.84,
      "duration": 0.1113,
      "velocity": 96,
      "chip": "ym2612"
    },
    {
      "channel": 1,
      "note": 54,
      "start": 19.9519,
      "duration": 0.4333,
      "velocity": 96,
      "chip": "ym2612"
    },
    {
      "channel": 4,
      "note": 90,
      "start": 19.9529,
      "duration": 0.1059,
      "velocity": 96,
      "chip": "ym2612"
    },
    {
      "channel": 2,
      "note": 37,
      "start": 19.9542,
      "duration": 0.1228,
      "velocity": 120,
      "chip": "ym2612"
    },
    {
      "channel": 4,
      "note": 90,
      "start": 20.1681,
      "duration": 0.1111,
      "velocity": 96,
      "chip": "ym2612"
    },
    {
      "channel": 2,
      "note": 37,
      "start": 20.2807,
      "duration": 0.1239,
      "velocity": 120,
      "chip": "ym2612"
    },
    {
      "channel": 1,
      "note": 52,
      "start": 20.3858,
      "duration": 0.1116,
      "velocity": 96,
      "chip": "ym2612"
    },
    {
      "channel": 4,
      "note": 90,
      "start": 20.3868,
      "duration": 0.1114,
      "velocity": 96,
      "chip": "ym2612"
    },
    {
      "channel": 1,
      "note": 54,
      "start": 20.498,
      "duration": 0.1082,
      "velocity": 96,
      "chip": "ym2612"
    },
    {
      "channel": 2,
      "note": 77,
      "start": 20.4999,
      "duration": 0.103,
      "velocity": 127,
      "chip": "ym2612"
    },
    {
      "channel": 1,
      "note": 52,
      "start": 20.6068,
      "duration": 0.1087,
      "velocity": 96,
      "chip": "ym2612"
    },
    {
      "channel": 2,
      "note": 37,
      "start": 20.6088,
      "duration": 0.1033,
      "velocity": 120,
      "chip": "ym2612"
    },
    {
      "channel": 1,
      "note": 54,
      "start": 20.716,
      "duration": 0.1057,
      "velocity": 96,
      "chip": "ym2612"
    },
    {
      "channel": 4,
      "note": 90,
      "start": 20.717,
      "duration": 0.1055,
      "velocity": 96,
      "chip": "ym2612"
    },
    {
      "channel": 2,
      "note": 37,
      "start": 20.7182,
      "duration": 0.123,
      "velocity": 120,
      "chip": "ym2612"
    },
    {
      "channel": 1,
      "note": 49,
      "start": 20.8223,
      "duration": 0.1118,
      "velocity": 96,
      "chip": "ym2612"
    },
    {
      "channel": 1,
      "note": 54,
      "start": 20.9346,
      "duration": 0.1054,
      "velocity": 96,
      "chip": "ym2612"
    },
    {
      "channel": 2,
      "note": 37,
      "start": 20.9363,
      "duration": 0.1235,
      "velocity": 120,
      "chip": "ym2612"
    },
    {
      "channel": 1,
      "note": 54,
      "start": 21.0408,
      "duration": 0.5449,
      "velocity": 96,
      "chip": "ym2612"
    },
    {
      "channel": 4,
      "note": 90,
      "start": 21.1531,
      "duration": 0.106,
      "velocity": 96,
      "chip": "ym2612"
    },
    {
      "channel": 2,
      "note": 37,
      "start": 21.1543,
      "duration": 0.1234,
      "velocity": 120,
      "chip": "ym2612"
    },
    {
      "channel": 4,
      "note": 90,
      "start": 21.2599,
      "duration": 0.1107,
      "velocity": 96,
      "chip": "ym2612"
    },
    {
      "channel": 2,
      "note": 77,
      "start": 21.3723,
      "duration": 0.1037,
      "velocity": 127,
      "chip": "ym2612"
    },
    {
      "channel": 4,
      "note": 90,
      "start": 21.4805,
      "duration": 0.1059,
      "velocity": 96,
      "chip": "ym2612"
    },
    {
      "channel": 2,
      "note": 37,
      "start": 21.4818,
      "duration": 0.123,
      "velocity": 120,
      "chip": "ym2612"
    },
    {
      "channel": 1,
      "note": 59,
      "start": 21.5862,
      "duration": 0.1113,
      "velocity": 96,
      "chip": "ym2612"
    },
    {
      "channel": 1,
      "note": 61,
      "start": 21.6981,
      "duration": 0.4359,
      "velocity": 96,
      "chip": "ym2612"
    },
    {
      "channel": 4,
      "note": 90,
      "start": 21.6991,
      "duration": 0.1082,
      "velocity": 96,
      "chip": "ym2612"
    },
    {
      "channel": 2,
      "note": 37,
      "start": 21.7004,
      "duration": 0.103,
      "velocity": 120,
      "chip": "ym2612"
    },
    {
      "channel": 2,
      "note": 77,
      "start": 21.8094,
      "duration": 0.0307,
      "velocity": 127,
      "chip": "ym2612"
    },
    {
      "channel": 2,
      "note": 77,
      "start": 21.8456,
      "duration": 0.0669,
      "velocity": 127,
      "chip": "ym2612"
    },
    {
      "channel": 2,
      "note": 77,
      "start": 21.9175,
      "duration": 0.1043,
      "velocity": 127,
      "chip": "ym2612"
    },
    {
      "channel": 2,
      "note": 77,
      "start": 22.0273,
      "duration": 0.1034,
      "velocity": 127,
      "chip": "ym2612"
    },
    {
      "channel": 1,
      "note": 64,
      "start": 22.1346,
      "duration": 0.1092,
      "velocity": 96,
      "chip": "ym2612"
    },
    {
      "channel": 2,
      "note": 77,
      "start": 22.1361,
      "duration": 0.1038,
      "velocity": 127,
      "chip": "ym2612"
    },
    {
      "channel": 1,
      "note": 66,
      "start": 22.2445,
      "duration": 0.1079,
      "velocity": 96,
      "chip": "ym2612"
    },
    {
      "channel": 2,
      "note": 77,
      "start": 22.2459,
      "duration": 0.1031,
      "velocity": 127,
      "chip": "ym2612"
    },
    {
      "channel": 1,
      "note": 64,
      "start": 22.3529,
      "duration": 0.109,
      "velocity": 96,
      "chip": "ym2612"
    },
    {
      "channel": 2,
      "note": 77,
      "start": 22.3545,
      "duration": 0.1041,
      "velocity": 127,
      "chip": "ym2612"
    },
    {
      "channel": 1,
      "note": 66,
      "start": 22.4625,
      "duration": 0.1085,
      "velocity": 96,
      "chip": "ym2612"
    },
    {
      "channel": 2,
      "note": 77,
      "start": 22.4639,
      "duration": 0.1038,
      "velocity": 127,
      "chip": "ym2612"
    },
    {
      "channel": 1,
      "note": 61,
      "start": 22.5716,
      "duration": 0.1093,
      "velocity": 96,
      "chip": "ym2612"
    },
    {
      "channel": 2,
      "note": 77,
      "start": 22.5731,
      "duration": 0.1036,
      "velocity": 127,
      "chip": "ym2612"
    },
    {
      "channel": 0,
      "note": 76,
      "start": 22.6804,
      "duration": 1.7458,
      "velocity": 103,
      "chip": "ym2612"
    },
    {
      "channel": 1,
      "note": 52,
      "start": 22.6816,
      "duration": 0.1046,
      "velocity": 96,
      "chip": "ym2612"
    },
    {
      "channel": 2,
      "note": 37,
      "start": 22.684,
      "duration": 0.1214,
      "velocity": 120,
      "chip": "ym2612"
    },
    {
      "channel": 1,
      "note": 52,
      "start": 22.7867,
      "duration": 0.545,
      "velocity": 96,
      "chip": "ym2612"
    },
    {
      "channel": 2,
      "note": 37,
      "start": 22.8995,
      "duration": 0.1241,
      "velocity": 120,
      "chip": "ym2612"
    },
    {
      "channel": 4,
      "note": 88,
      "start": 23.1175,
      "duration": 0.109,
      "velocity": 96,
      "chip": "ym2612"
    },
    {
      "channel": 2,
      "note": 77,
      "start": 23.1188,
      "duration": 0.1032,
      "velocity": 127,
      "chip": "ym2612"
    },
    {
      "channel": 4,
      "note": 88,
      "start": 23.2273,
      "duration": 0.1053,
      "velocity": 96,
      "chip": "ym2612"
    },
    {
      "channel": 2,
      "note": 37,
      "start": 23.2285,
      "duration": 0.1225,
      "velocity": 120,
      "chip": "ym2612"
    },
    {
      "channel": 1,
      "note": 52,
      "start": 23.3323,
      "duration": 0.1121,
      "velocity": 96,
      "chip": "ym2612"
    },
    {
      "channel": 5,
      "note": 76,
      "start": 23.3339,
      "duration": 1.7454,
      "velocity": 103,
      "chip": "ym2612"
    },
    {
      "channel": 1,
      "note": 52,
      "start": 23.445,
      "duration": 0.4325,
      "velocity": 96,
      "chip": "ym2612"
    },
    {
      "channel": 4,
      "note": 88,
      "start": 23.446,
      "duration": 0.1045,
      "velocity": 96,
      "chip": "ym2612"
    },
    {
      "channel": 2,
      "note": 37,
      "start": 23.4472,
      "duration": 0.122,
      "velocity": 120,
      "chip": "ym2612"
    },
    {
      "channel": 4,
      "note": 88,
      "start": 23.6604,
      "duration": 0.1111,
      "velocity": 96,
      "chip": "ym2612"
    },
    {
      "channel": 2,
      "note": 37,
      "start": 23.773,
      "duration": 0.1239,
      "velocity": 120,
      "chip": "ym2612"
    },
    {
      "channel": 1,
      "note": 50,
      "start": 23.8781,
      "duration": 0.1113,
      "velocity": 96,
      "chip": "ym2612"
    },
    {
      "channel": 4,
      "note": 88,
      "start": 23.8791,
      "duration": 0.111,
      "velocity": 96,
      "chip": "ym2612"
    },
    {
      "channel": 1,
      "note": 52,
      "start": 23.9899,
      "duration": 0.1086,
      "velocity": 96,
      "chip": "ym2612"
    },
    {
      "channel": 2,
      "note": 77,
      "start": 23.9924,
      "duration": 0.1029,
      "velocity": 127,
      "chip": "ym2612"
    },
    {
      "channel": 1,
      "note": 50,
      "start": 24.0991,
      "duration": 0.1088,
      "velocity": 96,
      "chip": "ym2612"
    },
    {
      "channel": 2,
      "note": 37,
      "start": 24.1005,
      "duration": 0.1039,
      "velocity": 120,
      "chip": "ym2612"
    },
    {
      "channel": 1,
      "note": 52,
      "start": 24.2089,
      "duration": 0.1051,
      "velocity": 96,
      "chip": "ym2612"
    },
    {
      "channel": 4,
      "note": 88,
      "start": 24.21,
      "duration": 0.1049,
      "velocity": 96,
      "chip": "ym2612"
    },
    {
      "channel": 2,
      "note": 37,
      "start": 24.2112,
      "duration": 0.1221,
      "velocity": 120,
      "chip": "ym2612"
    },
    {
      "channel": 1,
      "note": 47,
      "start": 24.3146,
      "duration": 0.1125,
      "velocity": 96,
      "chip": "ym2612"
    },
    {
      "channel": 0,
      "note": 78,
      "start": 24.4269,
      "duration": 0.8688,
      "velocity": 103,
      "chip": "ym2612"
    },
    {
      "channel": 1,
      "note": 52,
      "start": 24.4277,
      "duration": 0.1046,
      "velocity": 96,
      "chip": "ym2612"
    },
    {
      "channel": 2,
      "note": 37,
      "start": 24.4294,
      "duration": 0.1221,
      "velocity": 120,
      "chip": "ym2612"
    },
    {
      "channel": 1,
      "note": 52,
      "start": 24.5328,
      "duration": 0.5451,
      "velocity": 96,
      "chip": "ym2612"
    },
    {
      "channel": 4,
      "note": 88,
      "start": 24.6463,
      "duration": 0.1047,
      "velocity": 96,
      "chip": "ym2612"
    },
    {
      "channel": 2,
      "note": 37,
      "start": 24.6475,
      "duration": 0.1225,
      "velocity": 120,
      "chip": "ym2612"
    },
    {
      "channel": 4,
      "note": 88,
      "start": 24.7517,
      "duration": 0.1111,
      "velocity": 96,
      "chip": "ym2612"
    },
    {
      "channel": 2,
      "note": 77,
      "start": 24.8645,
      "duration": 0.1037,
      "velocity": 127,
      "chip": "ym2612"
    },
    {
      "channel": 4,
      "note": 88,
      "start": 24.9727,
      "duration": 0.1061,
      "velocity": 96,
      "chip": "ym2612"
    },
    {
      "channel": 2,
      "note": 37,
      "start": 24.9742,
      "duration": 0.123,
      "velocity": 120,
      "chip": "ym2612"
    },
    {
      "channel": 1,
      "note": 55,
      "start": 25.0785,
      "duration": 0.1113,
      "velocity": 96,
      "chip": "ym2612"
    },
    {
      "channel": 5,
      "note": 78,
      "start": 25.08,
      "duration": 0.8747,
      "velocity": 103,
      "chip": "ym2612"
    },
    {
      "channel": 1,
      "note": 57,
      "start": 25.1907,
      "duration": 0.2147,
      "velocity": 96,
      "chip": "ym2612"
    },
    {
      "channel": 4,
      "note": 88,
      "start": 25.1921,
      "duration": 0.1048,
      "velocity": 96,
      "chip": "ym2612"
    },
    {
      "channel": 2,
      "note": 37,
      "start": 25.1933,
      "duration": 0.1224,
      "velocity": 120,
      "chip": "ym2612"
    },
    {
      "channel": 0,
      "note": 74,
      "start": 25.2964,
      "duration": 0.6569,
      "velocity": 103,
      "chip": "ym2612"
    },
    {
      "channel": 1,
      "note": 55,
      "start": 25.4059,
      "duration": 0.2177,
      "velocity": 96,
      "chip": "ym2612"
    },
    {
      "channel": 2,
      "note": 37,
      "start": 25.5188,
      "duration": 0.1243,
      "velocity": 120,
      "chip": "ym2612"
    },
    {
      "channel": 1,
      "note": 54,
      "start": 25.6244,
      "duration": 0.2206,
      "velocity": 96,
      "chip": "ym2612"
    },
    {
      "channel": 2,
      "note": 77,
      "start": 25.7371,
      "duration": 0.1046,
      "velocity": 127,
      "chip": "ym2612"
    },
    {
      "channel": 1,
      "note": 52,
      "start": 25.8456,
      "duration": 0.2146,
      "velocity": 96,
      "chip": "ym2612"
    },
    {
      "channel": 2,
      "note": 37,
      "start": 25.847,
      "duration": 0.1036,
      "velocity": 120,
      "chip": "ym2612"
    },
    {
      "channel": 0,
      "note": 71,
      "start": 25.9541,
      "duration": 3.7098,
      "velocity": 103,
      "chip": "ym2612"
    },
    {
      "channel": 5,
      "note": 74,
      "start": 25.9554,
      "duration": 0.6552,
      "velocity": 103,
      "chip": "ym2612"
    },
    {
      "channel": 2,
      "note": 37,
      "start": 25.9562,
      "duration": 0.1231,
      "velocity": 120,
      "chip": "ym2612"
    },
    {
      "channel": 1,
      "note": 54,
      "start": 26.0607,
      "duration": 0.1115,
      "velocity": 96,
      "chip": "ym2612"
    },
    {
      "channel": 1,
      "note": 52,
      "start": 26.1727,
      "duration": 0.1058,
      "velocity": 96,
      "chip": "ym2612"
    },
    {
      "channel": 2,
      "note": 37,
      "start": 26.1758,
      "duration": 0.1218,
      "velocity": 120,
      "chip": "ym2612"
    },
    {
      "channel": 1,
      "note": 52,
      "start": 26.2791,
      "duration": 0.5452,
      "velocity": 96,
      "chip": "ym2612"
    },
    {
      "channel": 2,
      "note": 37,
      "start": 26.3924,
      "duration": 0.1235,
      "velocity": 120,
      "chip": "ym2612"
    },
    {
      "channel": 4,
      "note": 88,
      "start": 26.6105,
      "duration": 0.1078,
      "velocity": 96,
      "chip": "ym2612"
    },
    {
      "channel": 5,
      "note": 71,
      "start": 26.6113,
      "duration": 3.7064,
      "velocity": 103,
      "chip": "ym2612"
    },
    {
      "channel": 2,
      "note": 77,
      "start": 26.6122,
      "duration": 0.1023,
      "velocity": 127,
      "chip": "ym2612"
    },
    {
      "channel": 4,
      "note": 88,
      "start": 26.719,
      "duration": 0.1066,
      "velocity": 96,
      "chip": "ym2612"
    },
    {
      "channel": 2,
      "note": 37,
      "start": 26.7202,
      "duration": 0.1234,
      "velocity": 120,
      "chip": "ym2612"
    },
    {
      "channel": 1,
      "note": 52,
      "start": 26.8253,
      "duration": 0.1107,
      "velocity": 96,
      "chip": "ym2612"
    },
    {
      "channel": 1,
      "note": 52,
      "start": 26.9366,
      "duration": 0.4332,
      "velocity": 96,
      "chip": "ym2612"
    },
    {
      "channel": 4,
      "note": 88,
      "start": 26.9376,
      "duration": 0.1054,
      "velocity": 96,
      "chip": "ym2612"
    },
    {
      "channel": 2,
      "note": 37,
      "start": 26.9388,
      "duration": 0.1228,
      "velocity": 120,
      "chip": "ym2612"
    },
    {
      "channel": 4,
      "note": 88,
      "start": 27.1528,
      "duration": 0.1111,
      "velocity": 96,
      "chip": "ym2612"
    },
    {
      "channel": 2,
      "note": 37,
      "start": 27.2654,
      "duration": 0.1242,
      "velocity": 120,
      "chip": "ym2612"
    },
    {
      "channel": 1,
      "note": 50,
      "start": 27.3703,
      "duration": 0.1113,
      "velocity": 96,
      "chip": "ym2612"
    },
    {
      "channel": 4,
      "note": 88,
      "start": 27.3713,
      "duration": 0.1111,
      "velocity": 96,
      "chip": "ym2612"
    },
    {
      "channel": 1,
      "note": 52,
      "start": 27.4822,
      "duration": 0.1088,
      "velocity": 96,
      "chip": "ym2612"
    },
    {
      "channel": 2,
      "note": 77,
      "start": 27.4841,
      "duration": 0.1033,
      "velocity": 127,
      "chip": "ym2612"
    },
    {
      "channel": 1,
      "note": 50,
      "start": 27.592,
      "duration": 0.1079,
      "velocity": 96,
      "chip": "ym2612"
    },
    {
      "channel": 2,
      "note": 37,
      "start": 27.5933,
      "duration": 0.1032,
      "velocity": 120,
      "chip": "ym2612"
    },
    {
      "channel": 1,
      "note": 52,
      "start": 27.7005,
      "duration": 0.1059,
      "velocity": 96,
      "chip": "ym2612"
    },
    {
      "channel": 4,
      "note": 88,
      "start": 27.7015,
      "duration": 0.1059,
      "velocity": 96,
      "chip": "ym2612"
    },
    {
      "channel": 2,
      "note": 37,
      "start": 27.7027,
      "duration": 0.1235,
      "velocity": 120,
      "chip": "ym2612"
    },
    {
      "channel": 1,
      "note": 47,
      "start": 27.8069,
      "duration": 0.1116,
      "velocity": 96,
      "chip": "ym2612"
    },
    {
      "channel": 1,
      "note": 52,
      "start": 27.9191,
      "duration": 0.1062,
      "velocity": 96,
      "chip": "ym2612"
    },
    {
      "channel": 2,
      "note": 37,
      "start": 27.9207,
      "duration": 0.123,
      "velocity": 120,
      "chip": "ym2612"
    },
    {
      "channel": 1,
      "note": 52,
      "start": 28.0259,
      "duration": 0.5443,
      "velocity": 96,
      "chip": "ym2612"
    },
    {
      "channel": 4,
      "note": 88,
      "start": 28.1377,
      "duration": 0.1055,
      "velocity": 96,
      "chip": "ym2612"
    },
    {
      "channel": 2,
      "note": 37,
      "start": 28.1389,
      "duration": 0.1234,
      "velocity": 120,
      "chip": "ym2612"
    },
    {
      "channel": 4,
      "note": 88,
      "start": 28.244,
      "duration": 0.1111,
      "velocity": 96,
      "chip": "ym2612"
    },
    {
      "channel": 2,
      "note": 77,
      "start": 28.3567,
      "duration": 0.1039,
      "velocity": 127,
      "chip": "ym2612"
    },
    {
      "channel": 4,
      "note": 88,
      "start": 28.4652,
      "duration": 0.1059,
      "velocity": 96,
      "chip": "ym2612"
    },
    {
      "channel": 2,
      "note": 37,
      "start": 28.4664,
      "duration": 0.123,
      "velocity": 120,
      "chip": "ym2612"
    },
    {
      "channel": 1,
      "note": 57,
      "start": 28.5707,
      "duration": 0.1115,
      "velocity": 96,
      "chip": "ym2612"
    },
    {
      "channel": 1,
      "note": 59,
      "start": 28.6828,
      "duration": 0.4331,
      "velocity": 96,
      "chip": "ym2612"
    },
    {
      "channel": 4,
      "note": 88,
      "start": 28.6838,
      "duration": 0.1051,
      "velocity": 96,
      "chip": "ym2612"
    },
    {
      "channel": 2,
      "note": 37,
      "start": 28.6851,
      "duration": 0.1228,
      "velocity": 120,
      "chip": "ym2612"
    },
    {
      "channel": 2,
      "note": 37,
      "start": 29.0116,
      "duration": 0.1235,
      "velocity": 120,
      "chip": "ym2612"
    },
    {
      "channel": 1,
      "note": 62,
      "start": 29.1165,
      "duration": 0.1117,
      "velocity": 96,
      "chip": "ym2612"
    },
    {
      "channel": 1,
      "note": 64,
      "start": 29.2288,
      "duration": 0.1082,
      "velocity": 96,
      "chip": "ym2612"
    },
    {
      "channel": 2,
      "note": 77,
      "start": 29.2302,
      "duration": 0.1034,
      "velocity": 127,
      "chip": "ym2612"
    },
    {
      "channel": 1,
      "note": 62,
      "start": 29.3376,
      "duration": 0.1085,
      "velocity": 96,
      "chip": "ym2612"
    },
    {
      "channel": 2,
      "note": 37,
      "start": 29.339,
      "duration": 0.1037,
      "velocity": 120,
      "chip": "ym2612"
    },
    {
      "channel": 1,
      "note": 64,
      "start": 29.4466,
      "duration": 0.1059,
      "velocity": 96,
      "chip": "ym2612"
    },
    {
      "channel": 2,
      "note": 37,
      "start": 29.448,
      "duration": 0.1237,
      "velocity": 120,
      "chip": "ym2612"
    },
    {
      "channel": 1,
      "note": 59,
      "start": 29.553,
      "duration": 0.112,
      "velocity": 96,
      "chip": "ym2612"
    },
    {
      "channel": 0,
      "note": 76,
      "start": 29.6646,
      "duration": 1.746,
      "velocity": 103,
      "chip": "ym2612"
    },
    {
      "channel": 1,
      "note": 52,
      "start": 29.6655,
      "duration": 0.1051,
      "velocity": 96,
      "chip": "ym2612"
    },
    {
      "channel": 2,
      "note": 37,
      "start": 29.668,
      "duration": 0.122,
      "velocity": 120,
      "chip": "ym2612"
    },
    {
      "channel": 1,
      "note": 52,
      "start": 29.7712,
      "duration": 0.5452,
      "velocity": 96,
      "chip": "ym2612"
    },
    {
      "channel": 2,
      "note": 37,
      "start": 29.8841,
      "duration": 0.1247,
      "velocity": 120,
      "chip": "ym2612"
    },
    {
      "channel": 4,
      "note": 88,
      "start": 30.1021,
      "duration": 0.109,
      "velocity": 96,
      "chip": "ym2612"
    },
    {
      "channel": 2,
      "note": 77,
      "start": 30.1034,
      "duration": 0.1033,
      "velocity": 127,
      "chip": "ym2612"
    },
    {
      "channel": 4,
      "note": 88,
      "start": 30.2119,
      "duration": 0.1053,
      "velocity": 96,
      "chip": "ym2612"
    },
    {
      "channel": 2,
      "note": 37,
      "start": 30.2131,
      "duration": 0.1224,
      "velocity": 120,
      "chip": "ym2612"
    },
    {
      "channel": 1,
      "note": 52,
      "start": 30.3169,
      "duration": 0.1118,
      "velocity": 96,
      "chip": "ym2612"
    },
    {
      "channel": 5,
      "note": 76,
      "start": 30.3184,
      "duration": 1.7454,
      "velocity": 103,
      "chip": "ym2612"
    },
    {
      "channel": 1,
      "note": 52,
      "start": 30.4293,
      "duration": 0.4328,
      "velocity": 96,
      "chip": "ym2612"
    },
    {
      "channel": 4,
      "note": 88,
      "start": 30.4303,
      "duration": 0.1047,
      "velocity": 96,
      "chip": "ym2612"
    },
    {
      "channel": 2,
      "note": 37,
      "start": 30.4315,
      "duration": 0.1222,
      "velocity": 120,
      "chip": "ym2612"
    },
    {
      "channel": 4,
      "note": 88,
      "start": 30.6449,
      "duration": 0.1113,
      "velocity": 96,
      "chip": "ym2612"
    },
    {
      "channel": 2,
      "note": 37,
      "start": 30.7583,
      "duration": 0.1232,
      "velocity": 120,
      "chip": "ym2612"
    },
    {
      "channel": 1,
      "note": 50,
      "start": 30.8627,
      "duration": 0.1115,
      "velocity": 96,
      "chip": "ym2612"
    },
    {
      "channel": 4,
      "note": 88,
      "start": 30.8637,
      "duration": 0.1116,
      "velocity": 96,
      "chip": "ym2612"
    },
    {
      "channel": 1,
      "note": 52,
      "start": 30.9751,
      "duration": 0.1079,
      "velocity": 96,
      "chip": "ym2612"
    },
    {
      "channel": 2,
      "note": 77,
      "start": 30.9771,
      "duration": 0.1027,
      "velocity": 127,
      "chip": "ym2612"
    },
    {
      "channel": 1,
      "note": 50,
      "start": 31.0836,
      "duration": 0.1092,
      "velocity": 96,
      "chip": "ym2612"
    },
    {
      "channel": 2,
      "note": 37,
      "start": 31.085,
      "duration": 0.1039,
      "velocity": 120,
      "chip": "ym2612"
    },
    {
      "channel": 1,
      "note": 52,
      "start": 31.1933,
      "duration": 0.1053,
      "velocity": 96,
      "chip": "ym2612"
    },
    {
      "channel": 4,
      "note": 88,
      "start": 31.1944,
      "duration": 0.105,
      "velocity": 96,
      "chip": "ym2612"
    },
    {
      "channel": 2,
      "note": 37,
      "start": 31.1956,
      "duration": 0.1222,
      "velocity": 120,
      "chip": "ym2612"
    },
    {
      "channel": 1,
      "note": 47,
      "start": 31.2992,
      "duration": 0.1124,
      "velocity": 96,
      "chip": "ym2612"
    },
    {
      "channel": 0,
      "note": 78,
      "start": 31.4114,
      "duration": 0.8689,
      "velocity": 103,
      "chip": "ym2612"
    },
    {
      "channel": 1,
      "note": 52,
      "start": 31.4122,
      "duration": 0.1046,
      "velocity": 96,
      "chip": "ym2612"
    },
    {
      "channel": 2,
      "note": 37,
      "start": 31.4139,
      "duration": 0.1222,
      "velocity": 120,
      "chip": "ym2612"
    },
    {
      "channel": 1,
      "note": 52,
      "start": 31.5174,
      "duration": 0.5451,
      "velocity": 96,
      "chip": "ym2612"
    },
    {
      "channel": 4,
      "note": 88,
      "start": 31.6299,
      "duration": 0.1056,
      "velocity": 96,
      "chip": "ym2612"
    },
    {
      "channel": 2,
      "note": 37,
      "start": 31.6311,
      "duration": 0.1235,
      "velocity": 120,
      "chip": "ym2612"
    },
    {
      "channel": 4,
      "note": 88,
      "start": 31.7363,
      "duration": 0.1111,
      "velocity": 96,
      "chip": "ym2612"
    },
    {
      "channel": 2,
      "note": 77,
      "start": 31.8491,
      "duration": 0.1037,
      "velocity": 127,
      "chip": "ym2612"
    },
    {
      "channel": 4,
      "note": 88,
      "start": 31.9576,
      "duration": 0.1057,
      "velocity": 96,
      "chip": "ym2612"
    },
    {
      "channel": 2,
      "note": 37,
      "start": 31.9593,
      "duration": 0.1224,
      "velocity": 120,
      "chip": "ym2612"
    },
    {
      "channel": 1,
      "note": 55,
      "start": 32.0631,
      "duration": 0.112,
      "velocity": 96,
      "chip": "ym2612"
    },
    {
      "channel": 5,
      "note": 78,
      "start": 32.0646,
      "duration": 0.8746,
      "velocity": 103,
      "chip": "ym2612"
    },
    {
      "channel": 1,
      "note": 57,
      "start": 32.1757,
      "duration": 0.2141,
      "velocity": 96,
      "chip": "ym2612"
    },
    {
      "channel": 4,
      "note": 88,
      "start": 32.1767,
      "duration": 0.1049,
      "velocity": 96,
      "chip": "ym2612"
    },
    {
      "channel": 2,
      "note": 37,
      "start": 32.1779,
      "duration": 0.1221,
      "velocity": 120,
      "chip": "ym2612"
    },
    {
      "channel": 0,
      "note": 74,
      "start": 32.2811,
      "duration": 0.6567,
      "velocity": 103,
      "chip": "ym2612"
    },
    {
      "channel": 1,
      "note": 55,
      "start": 32.3907,
      "duration": 0.218,
      "velocity": 96,
      "chip": "ym2612"
    },
    {
      "channel": 2,
      "note": 37,
      "start": 32.5033,
      "duration": 0.124,
      "velocity": 120,
      "chip": "ym2612"
    },
    {
      "channel": 1,
      "note": 54,
      "start": 32.6093,
      "duration": 0.2202,
      "velocity": 96,
      "chip": "ym2612"
    },
    {
      "channel": 2,
      "note": 77,
      "start": 32.7217,
      "duration": 0.1044,
      "velocity": 127,
      "chip": "ym2612"
    },
    {
      "channel": 1,
      "note": 52,
      "start": 32.83,
      "duration": 0.2146,
      "velocity": 96,
      "chip": "ym2612"
    },
    {
      "channel": 2,
      "note": 37,
      "start": 32.8314,
      "duration": 0.1036,
      "velocity": 120,
      "chip": "ym2612"
    },
    {
      "channel": 0,
      "note": 83,
      "start": 32.9385,
      "duration": 3.71,
      "velocity": 103,
      "chip": "ym2612"
    },
    {
      "channel": 5,
      "note": 74,
      "start": 32.9399,
      "duration": 0.6552,
      "velocity": 103,
      "chip": "ym2612"
    },
    {
      "channel": 2,
      "note": 37,
      "start": 32.9409,
      "duration": 0.123,
      "velocity": 120,
      "chip": "ym2612"
    },
    {
      "channel": 1,
      "note": 54,
      "start": 33.0453,
      "duration": 0.1115,
      "velocity": 96,
      "chip": "ym2612"
    },
    {
      "channel": 1,
      "note": 52,
      "start": 33.1576,
      "duration": 0.1053,
      "velocity": 96,
      "chip": "ym2612"
    },
    {
      "channel": 2,
      "note": 37,
      "start": 33.1604,
      "duration": 0.1218,
      "velocity": 120,
      "chip": "ym2612"
    },
    {
      "channel": 1,
      "note": 52,
      "start": 33.2635,
      "duration": 0.5455,
      "velocity": 96,
      "chip": "ym2612"
    },
    {
      "channel": 2,
      "note": 37,
      "start": 33.3771,
      "duration": 0.1235,
      "velocity": 120,
      "chip": "ym2612"
    },
    {
      "channel": 4,
      "note": 88,
      "start": 33.5949,
      "duration": 0.1078,
      "velocity": 96,
      "chip": "ym2612"
    },
    {
      "channel": 5,
      "note": 83,
      "start": 33.5958,
      "duration": 3.7051,
      "velocity": 103,
      "chip": "ym2612"
    },
    {
      "channel": 2,
      "note": 77,
      "start": 33.5966,
      "duration": 0.1023,
      "velocity": 127,
      "chip": "ym2612"
    },
    {
      "channel": 4,
      "note": 88,
      "start": 33.7034,
      "duration": 0.1064,
      "velocity": 96,
      "chip": "ym2612"
    },
    {
      "channel": 2,
      "note": 37,
      "start": 33.7047,
      "duration": 0.1232,
      "velocity": 120,
      "chip": "ym2612"
    },
    {
      "channel": 1,
      "note": 52,
      "start": 33.8096,
      "duration": 0.111,
      "velocity": 96,
      "chip": "ym2612"
    },
    {
      "channel": 1,
      "note": 52,
      "start": 33.9211,
      "duration": 0.4332,
      "velocity": 96,
      "chip": "ym2612"
    },
    {
      "channel": 4,
      "note": 88,
      "start": 33.9222,
      "duration": 0.1051,
      "velocity": 96,
      "chip": "ym2612"
    },
    {
      "channel": 2,
      "note": 37,
      "start": 33.9234,
      "duration": 0.1227,
      "velocity": 120,
      "chip": "ym2612"
    },
    {
      "channel": 4,
      "note": 88,
      "start": 34.1372,
      "duration": 0.1111,
      "velocity": 96,
      "chip": "ym2612"
    },
    {
      "channel": 2,
      "note": 37,
      "start": 34.2499,
      "duration": 0.1241,
      "velocity": 120,
      "chip": "ym2612"
    },
    {
      "channel": 1,
      "note": 50,
      "start": 34.3549,
      "duration": 0.1113,
      "velocity": 96,
      "chip": "ym2612"
    },
    {
      "channel": 4,
      "note": 88,
      "start": 34.3559,
      "duration": 0.1111,
      "velocity": 96,
      "chip": "ym2612"
    },
    {
      "channel": 1,
      "note": 52,
      "start": 34.4668,
      "duration": 0.1092,
      "velocity": 96,
      "chip": "ym2612"
    },
    {
      "channel": 2,
      "note": 77,
      "start": 34.4687,
      "duration": 0.1033,
      "velocity": 127,
      "chip": "ym2612"
    },
    {
      "channel": 1,
      "note": 50,
      "start": 34.5765,
      "duration": 0.108,
      "velocity": 96,
      "chip": "ym2612"
    },
    {
      "channel": 2,
      "note": 37,
      "start": 34.5779,
      "duration": 0.1033,
      "velocity": 120,
      "chip": "ym2612"
    },
    {
      "channel": 1,
      "note": 52,
      "start": 34.685,
      "duration": 0.1061,
      "velocity": 96,
      "chip": "ym2612"
    },
    {
      "channel": 4,
      "note": 88,
      "start": 34.6861,
      "duration": 0.1062,
      "velocity": 96,
      "chip": "ym2612"
    },
    {
      "channel": 2,
      "note": 37,
      "start": 34.6872,
      "duration": 0.1231,
      "velocity": 120,
      "chip": "ym2612"
    },
    {
      "channel": 1,
      "note": 47,
      "start": 34.7921,
      "duration": 0.1113,
      "velocity": 96,
      "chip": "ym2612"
    },
    {
      "channel": 1,
      "note": 52,
      "start": 34.9039,
      "duration": 0.1054,
      "velocity": 96,
      "chip": "ym2612"
    },
    {
      "channel": 2,
      "note": 37,
      "start": 34.9056,
      "duration": 0.1226,
      "velocity": 120,
      "chip": "ym2612"
    },
    {
      "channel": 1,
      "note": 52,
      "start": 35.0099,
      "duration": 0.5449,
      "velocity": 96,
      "chip": "ym2612"
    },
    {
      "channel": 4,
      "note": 88,
      "start": 35.1222,
      "duration": 0.1056,
      "velocity": 96,
      "chip": "ym2612"
    },
    {
      "channel": 2,
      "note": 37,
      "start": 35.1234,
      "duration": 0.1235,
      "velocity": 120,
      "chip": "ym2612"
    },
    {
      "channel": 4,
      "note": 88,
      "start": 35.2286,
      "duration": 0.1111,
      "velocity": 96,
      "chip": "ym2612"
    },
    {
      "channel": 2,
      "note": 77,
      "start": 35.342,
      "duration": 0.1031,
      "velocity": 127,
      "chip": "ym2612"
    },
    {
      "channel": 4,
      "note": 88,
      "start": 35.4496,
      "duration": 0.1061,
      "velocity": 96,
      "chip": "ym2612"
    },
    {
      "channel": 2,
      "note": 37,
      "start": 35.4508,
      "duration": 0.1235,
      "velocity": 120,
      "chip": "ym2612"
    },
    {
      "channel": 1,
      "note": 57,
      "start": 35.5554,
      "duration": 0.1113,
      "velocity": 96,
      "chip": "ym2612"
    },
    {
      "channel": 1,
      "note": 59,
      "start": 35.6673,
      "duration": 0.436,
      "velocity": 96,
      "chip": "ym2612"
    },
    {
      "channel": 4,
      "note": 88,
      "start": 35.6683,
      "duration": 0.1085,
      "velocity": 96,
      "chip": "ym2612"
    },
    {
      "channel": 2,
      "note": 37,
      "start": 35.6695,
      "duration": 0.1029,
      "velocity": 120,
      "chip": "ym2612"
    },
    {
      "channel": 2,
      "note": 77,
      "start": 35.7785,
      "duration": 0.0304,
      "velocity": 127,
      "chip": "ym2612"
    },
    {
      "channel": 2,
      "note": 77,
      "start": 35.8138,
      "duration": 0.0678,
      "velocity": 127,
      "chip": "ym2612"
    },
    {
      "channel": 2,
      "note": 77,
      "start": 35.8866,
      "duration": 0.1045,
      "velocity": 127,
      "chip": "ym2612"
    },
    {
      "channel": 2,
      "note": 77,
      "start": 35.9965,
      "duration": 0.1035,
      "velocity": 127,
      "chip": "ym2612"
    },
    {
      "channel": 1,
      "note": 62,
      "start": 36.1038,
      "duration": 0.1085,
      "velocity": 96,
      "chip": "ym2612"
    },
    {
      "channel": 2,
      "note": 77,
      "start": 36.1054,
      "duration": 0.1037,
      "velocity": 127,
      "chip": "ym2612"
    },
    {
      "channel": 1,
      "note": 64,
      "start": 36.2129,
      "duration": 0.1085,
      "velocity": 96,
      "chip": "ym2612"
    },
    {
      "channel": 2,
      "note": 77,
      "start": 36.2144,
      "duration": 0.1037,
      "velocity": 127,
      "chip": "ym2612"
    },
    {
      "channel": 1,
      "note": 62,
      "start": 36.322,
      "duration": 0.1086,
      "velocity": 96,
      "chip": "ym2612"
    },
    {
      "channel": 2,
      "note": 77,
      "start": 36.3235,
      "duration": 0.1038,
      "velocity": 127,
      "chip": "ym2612"
    },
    {
      "channel": 1,
      "note": 64,
      "start": 36.4312,
      "duration": 0.1085,
      "velocity": 96,
      "chip": "ym2612"
    },
    {
      "channel": 2,
      "note": 77,
      "start": 36.4327,
      "duration": 0.1038,
      "velocity": 127,
      "chip": "ym2612"
    },
    {
      "channel": 1,
      "note": 59,
      "start": 36.5403,
      "duration": 0.1088,
      "velocity": 96,
      "chip": "ym2612"
    },
    {
      "channel": 2,
      "note": 77,
      "start": 36.5424,
      "duration": 0.1033,
      "velocity": 127,
      "chip": "ym2612"
    },
    {
      "channel": 1,
      "note": 54,
      "start": 36.6497,
      "duration": 0.1081,
      "velocity": 96,
      "chip": "ym2612"
    },
    {
      "channel": 2,
      "note": 77,
      "start": 36.6522,
      "duration": 0.1026,
      "velocity": 127,
      "chip": "ym2612"
    },
    {
      "channel": 1,
      "note": 54,
      "start": 36.7588,
      "duration": 0.108,
      "velocity": 96,
      "chip": "ym2612"
    },
    {
      "channel": 2,
      "note": 77,
      "start": 36.7603,
      "duration": 0.1036,
      "velocity": 127,
      "chip": "ym2612"
    },
    {
      "channel": 1,
      "note": 54,
      "start": 36.8673,
      "duration": 0.2178,
      "velocity": 96,
      "chip": "ym2612"
    },
    {
      "channel": 2,
      "note": 77,
      "start": 36.8688,
      "duration": 0.2134,
      "velocity": 127,
      "chip": "ym2612"
    },
    {
      "channel": 1,
      "note": 54,
      "start": 37.0856,
      "duration": 0.1089,
      "velocity": 96,
      "chip": "ym2612"
    },
    {
      "channel": 2,
      "note": 77,
      "start": 37.0871,
      "duration": 0.1046,
      "velocity": 127,
      "chip": "ym2612"
    },
    {
      "channel": 1,
      "note": 54,
      "start": 37.1952,
      "duration": 0.2172,
      "velocity": 96,
      "chip": "ym2612"
    },
    {
      "channel": 2,
      "note": 77,
      "start": 37.1966,
      "duration": 0.2129,
      "velocity": 127,
      "chip": "ym2612"
    },
    {
      "channel": 1,
      "note": 54,
      "start": 37.413,
      "duration": 0.2176,
      "velocity": 96,
      "chip": "ym2612"
    },
    {
      "channel": 2,
      "note": 77,
      "start": 37.4141,
      "duration": 0.2137,
      "velocity": 127,
      "chip": "ym2612"
    },
    {
      "channel": 1,
      "note": 49,
      "start": 37.6312,
      "duration": 0.1086,
      "velocity": 96,
      "chip": "ym2612"
    },
    {
      "channel": 2,
      "note": 37,
      "start": 37.6322,
      "duration": 0.1047,
      "velocity": 120,
      "chip": "ym2612"
    },
    {
      "channel": 1,
      "note": 61,
      "start": 37.7406,
      "duration": 0.1084,
      "velocity": 96,
      "chip": "ym2612"
    },
    {
      "channel": 2,
      "note": 37,
      "start": 37.742,
      "duration": 0.1041,
      "velocity": 120,
      "chip": "ym2612"
    },
    {
      "channel": 1,
      "note": 49,
      "start": 37.8496,
      "duration": 0.1091,
      "velocity": 96,
      "chip": "ym2612"
    },
    {
      "channel": 2,
      "note": 37,
      "start": 37.8505,
      "duration": 0.1046,
      "velocity": 120,
      "chip": "ym2612"
    },
    {
      "channel": 1,
      "note": 50,
      "start": 37.9593,
      "duration": 0.1079,
      "velocity": 96,
      "chip": "ym2612"
    },
    {
      "channel": 2,
      "note": 37,
      "start": 37.9603,
      "duration": 0.1041,
      "velocity": 120,
      "chip": "ym2612"
    },
    {
      "channel": 1,
      "note": 62,
      "start": 38.0678,
      "duration": 0.1091,
      "velocity": 96,
      "chip": "ym2612"
    },
    {
      "channel": 2,
      "note": 37,
      "start": 38.0688,
      "duration": 0.1046,
      "velocity": 120,
      "chip": "ym2612"
    },
    {
      "channel": 1,
      "note": 51,
      "start": 38.1775,
      "duration": 0.108,
      "velocity": 96,
      "chip": "ym2612"
    },
    {
      "channel": 2,
      "note": 37,
      "start": 38.1785,
      "duration": 0.1041,
      "velocity": 120,
      "chip": "ym2612"
    },
    {
      "channel": 1,
      "note": 63,
      "start": 38.2861,
      "duration": 0.1101,
      "velocity": 96,
      "chip": "ym2612"
    },
    {
      "channel": 2,
      "note": 37,
      "start": 38.2871,
      "duration": 0.1051,
      "velocity": 120,
      "chip": "ym2612"
    },
    {
      "channel": 0,
      "note": 78,
      "start": 38.3958,
      "duration": 1.7452,
      "velocity": 103,
      "chip": "ym2612"
    },
    {
      "channel": 1,
      "note": 54,
      "start": 38.3968,
      "duration": 0.1046,
      "velocity": 96,
      "chip": "ym2612"
    },
    {
      "channel": 2,
      "note": 37,
      "start": 38.3986,
      "duration": 0.1215,
      "velocity": 120,
      "chip": "ym2612"
    },
    {
      "channel": 1,
      "note": 54,
      "start": 38.502,
      "duration": 0.5454,
      "velocity": 96,
      "chip": "ym2612"
    },
    {
      "channel": 2,
      "note": 37,
      "start": 38.6145,
      "duration": 0.124,
      "velocity": 120,
      "chip": "ym2612"
    },
    {
      "channel": 4,
      "note": 90,
      "start": 38.8327,
      "duration": 0.109,
      "velocity": 96,
      "chip": "ym2612"
    },
    {
      "channel": 2,
      "note": 77,
      "start": 38.8337,
      "duration": 0.1037,
      "velocity": 127,
      "chip": "ym2612"
    },
    {
      "channel": 4,
      "note": 90,
      "start": 38.9425,
      "duration": 0.1057,
      "velocity": 96,
      "chip": "ym2612"
    },
    {
      "channel": 2,
      "note": 37,
      "start": 38.9433,
      "duration": 0.1229,
      "velocity": 120,
      "chip": "ym2612"
    },
    {
      "channel": 1,
      "note": 54,
      "start": 39.0479,
      "duration": 0.1118,
      "velocity": 96,
      "chip": "ym2612"
    },
    {
      "channel": 5,
      "note": 78,
      "start": 39.0495,
      "duration": 1.745,
      "velocity": 103,
      "chip": "ym2612"
    },
    {
      "channel": 1,
      "note": 54,
      "start": 39.1603,
      "duration": 0.4325,
      "velocity": 96,
      "chip": "ym2612"
    },
    {
      "channel": 4,
      "note": 90,
      "start": 39.1613,
      "duration": 0.1045,
      "velocity": 96,
      "chip": "ym2612"
    },
    {
      "channel": 2,
      "note": 37,
      "start": 39.1625,
      "duration": 0.1221,
      "velocity": 120,
      "chip": "ym2612"
    },
    {
      "channel": 4,
      "note": 90,
      "start": 39.3762,
      "duration": 0.1105,
      "velocity": 96,
      "chip": "ym2612"
    },
    {
      "channel": 2,
      "note": 37,
      "start": 39.4883,
      "duration": 0.1239,
      "velocity": 120,
      "chip": "ym2612"
    },
    {
      "channel": 1,
      "note": 52,
      "start": 39.5933,
      "duration": 0.1113,
      "velocity": 96,
      "chip": "ym2612"
    },
    {
      "channel": 4,
      "note": 90,
      "start": 39.5944,
      "duration": 0.1111,
      "velocity": 96,
      "chip": "ym2612"
    },
    {
      "channel": 1,
      "note": 54,
      "start": 39.7052,
      "duration": 0.1085,
      "velocity": 96,
      "chip": "ym2612"
    },
    {
      "channel": 2,
      "note": 77,
      "start": 39.7073,
      "duration": 0.1032,
      "velocity": 127,
      "chip": "ym2612"
    },
    {
      "channel": 1,
      "note": 52,
      "start": 39.8143,
      "duration": 0.1086,
      "velocity": 96,
      "chip": "ym2612"
    },
    {
      "channel": 2,
      "note": 37,
      "start": 39.8157,
      "duration": 0.1039,
      "velocity": 120,
      "chip": "ym2612"
    },
    {
      "channel": 1,
      "note": 54,
      "start": 39.9234,
      "duration": 0.1059,
      "velocity": 96,
      "chip": "ym2612"
    },
    {
      "channel": 4,
      "note": 90,
      "start": 39.9251,
      "duration": 0.1051,
      "velocity": 96,
      "chip": "ym2612"
    },
    {
      "channel": 2,
      "note": 37,
      "start": 39.9263,
      "duration": 0.1222,
      "velocity": 120,
      "chip": "ym2612"
    },
    {
      "channel": 1,
      "note": 49,
      "start": 40.0299,
      "duration": 0.1125,
      "velocity": 96,
      "chip": "ym2612"
    },
    {
      "channel": 0,
      "note": 80,
      "start": 40.1422,
      "duration": 0.8687,
      "velocity": 103,
      "chip": "ym2612"
    },
    {
      "channel": 1,
      "note": 54,
      "start": 40.143,
      "duration": 0.1045,
      "velocity": 96,
      "chip": "ym2612"
    },
    {
      "channel": 2,
      "note": 37,
      "start": 40.1447,
      "duration": 0.1221,
      "velocity": 120,
      "chip": "ym2612"
    },
    {
      "channel": 1,
      "note": 54,
      "start": 40.2481,
      "duration": 0.545,
      "velocity": 96,
      "chip": "ym2612"
    },
    {
      "channel": 4,
      "note": 90,
      "start": 40.3613,
      "duration": 0.105,
      "velocity": 96,
      "chip": "ym2612"
    },
    {
      "channel": 2,
      "note": 37,
      "start": 40.3625,
      "duration": 0.1228,
      "velocity": 120,
      "chip": "ym2612"
    },
    {
      "channel": 4,
      "note": 90,
      "start": 40.4671,
      "duration": 0.1115,
      "velocity": 96,
      "chip": "ym2612"
    },
    {
      "channel": 2,
      "note": 77,
      "start": 40.5802,
      "duration": 0.1033,
      "velocity": 127,
      "chip": "ym2612"
    },
    {
      "channel": 4,
      "note": 90,
      "start": 40.688,
      "duration": 0.106,
      "velocity": 96,
      "chip": "ym2612"
    },
    {
      "channel": 2,
      "note": 37,
      "start": 40.6893,
      "duration": 0.1231,
      "velocity": 120,
      "chip": "ym2612"
    },
    {
      "channel": 1,
      "note": 57,
      "start": 40.7937,
      "duration": 0.1115,
      "velocity": 96,
      "chip": "ym2612"
    },
    {
      "channel": 5,
      "note": 80,
      "start": 40.7952,
      "duration": 0.8748,
      "velocity": 103,
      "chip": "ym2612"
    },
    {
      "channel": 1,
      "note": 59,
      "start": 40.9057,
      "duration": 0.2151,
      "velocity": 96,
      "chip": "ym2612"
    },
    {
      "channel": 4,
      "note": 90,
      "start": 40.9068,
      "duration": 0.1054,
      "velocity": 96,
      "chip": "ym2612"
    },
    {
      "channel": 2,
      "note": 37,
      "start": 40.9086,
      "duration": 0.122,
      "velocity": 120,
      "chip": "ym2612"
    },
    {
      "channel": 0,
      "note": 76,
      "start": 41.0117,
      "duration": 0.6569,
      "velocity": 103,
      "chip": "ym2612"
    },
    {
      "channel": 1,
      "note": 57,
      "start": 41.1215,
      "duration": 0.2175,
      "velocity": 96,
      "chip": "ym2612"
    },
    {
      "channel": 2,
      "note": 37,
      "start": 41.2341,
      "duration": 0.1246,
      "velocity": 120,
      "chip": "ym2612"
    },
    {
      "channel": 1,
      "note": 56,
      "start": 41.3395,
      "duration": 0.2209,
      "velocity": 96,
      "chip": "ym2612"
    },
    {
      "channel": 2,
      "note": 77,
      "start": 41.4524,
      "duration": 0.1041,
      "velocity": 127,
      "chip": "ym2612"
    },
    {
      "channel": 1,
      "note": 54,
      "start": 41.561,
      "duration": 0.2147,
      "velocity": 96,
      "chip": "ym2612"
    },
    {
      "channel": 2,
      "note": 37,
      "start": 41.5624,
      "duration": 0.1034,
      "velocity": 120,
      "chip": "ym2612"
    },
    {
      "channel": 0,
      "note": 73,
      "start": 41.6693,
      "duration": 3.7099,
      "velocity": 103,
      "chip": "ym2612"
    },
    {
      "channel": 5,
      "note": 76,
      "start": 41.6707,
      "duration": 0.6551,
      "velocity": 103,
      "chip": "ym2612"
    },
    {
      "channel": 2,
      "note": 37,
      "start": 41.6715,
      "duration": 0.1234,
      "velocity": 120,
      "chip": "ym2612"
    },
    {
      "channel": 1,
      "note": 56,
      "start": 41.7763,
      "duration": 0.1111,
      "velocity": 96,
      "chip": "ym2612"
    },
    {
      "channel": 1,
      "note": 54,
      "start": 41.8881,
      "duration": 0.1056,
      "velocity": 96,
      "chip": "ym2612"
    },
    {
      "channel": 2,
      "note": 37,
      "start": 41.8907,
      "duration": 0.1222,
      "velocity": 120,
      "chip": "ym2612"
    },
    {
      "channel": 1,
      "note": 54,
      "start": 41.9943,
      "duration": 0.5451,
      "velocity": 96,
      "chip": "ym2612"
    },
    {
      "channel": 2,
      "note": 37,
      "start": 42.1074,
      "duration": 0.1237,
      "velocity": 120,
      "chip": "ym2612"
    },
    {
      "channel": 4,
      "note": 90,
      "start": 42.3256,
      "duration": 0.1078,
      "velocity": 96,
      "chip": "ym2612"
    },
    {
      "channel": 5,
      "note": 73,
      "start": 42.3266,
      "duration": 3.7063,
      "velocity": 103,
      "chip": "ym2612"
    },
    {
      "channel": 2,
      "note": 77,
      "start": 42.3274,
      "duration": 0.1024,
      "velocity": 127,
      "chip": "ym2612"
    },
    {
      "channel": 4,
      "note": 90,
      "start": 42.4342,
      "duration": 0.1059,
      "velocity": 96,
      "chip": "ym2612"
    },
    {
      "channel": 2,
      "note": 37,
      "start": 42.4354,
      "duration": 0.1238,
      "velocity": 120,
      "chip": "ym2612"
    },
    {
      "channel": 1,
      "note": 54,
      "start": 42.54,
      "duration": 0.1112,
      "velocity": 96,
      "chip": "ym2612"
    },
    {
      "channel": 1,
      "note": 54,
      "start": 42.6518,
      "duration": 0.4332,
      "velocity": 96,
      "chip": "ym2612"
    },
    {
      "channel": 4,
      "note": 90,
      "start": 42.6529,
      "duration": 0.1057,
      "velocity": 96,
      "chip": "ym2612"
    },
    {
      "channel": 2,
      "note": 37,
      "start": 42.6541,
      "duration": 0.1229,
      "velocity": 120,
      "chip": "ym2612"
    },
    {
      "channel": 4,
      "note": 90,
      "start": 42.868,
      "duration": 0.1111,
      "velocity": 96,
      "chip": "ym2612"
    },
    {
      "channel": 2,
      "note": 37,
      "start": 42.9807,
      "duration": 0.1239,
      "velocity": 120,
      "chip": "ym2612"
    },
    {
      "channel": 1,
      "note": 52,
      "start": 43.0856,
      "duration": 0.1116,
      "velocity": 96,
      "chip": "ym2612"
    },
    {
      "channel": 4,
      "note": 90,
      "start": 43.0866,
      "duration": 0.1115,
      "velocity": 96,
      "chip": "ym2612"
    },
    {
      "channel": 1,
      "note": 54,
      "start": 43.1978,
      "duration": 0.1083,
      "velocity": 96,
      "chip": "ym2612"
    },
    {
      "channel": 2,
      "note": 77,
      "start": 43.1997,
      "duration": 0.103,
      "velocity": 127,
      "chip": "ym2612"
    },
    {
      "channel": 1,
      "note": 52,
      "start": 43.3066,
      "duration": 0.1086,
      "velocity": 96,
      "chip": "ym2612"
    },
    {
      "channel": 2,
      "note": 37,
      "start": 43.3086,
      "duration": 0.1033,
      "velocity": 120,
      "chip": "ym2612"
    },
    {
      "channel": 1,
      "note": 54,
      "start": 43.4158,
      "duration": 0.1057,
      "velocity": 96,
      "chip": "ym2612"
    },
    {
      "channel": 4,
      "note": 90,
      "start": 43.4168,
      "duration": 0.1055,
      "velocity": 96,
      "chip": "ym2612"
    },
    {
      "channel": 2,
      "note": 37,
      "start": 43.418,
      "duration": 0.1229,
      "velocity": 120,
      "chip": "ym2612"
    },
    {
      "channel": 1,
      "note": 49,
      "start": 43.5221,
      "duration": 0.1117,
      "velocity": 96,
      "chip": "ym2612"
    },
    {
      "channel": 1,
      "note": 54,
      "start": 43.6344,
      "duration": 0.1055,
      "velocity": 96,
      "chip": "ym2612"
    },
    {
      "channel": 2,
      "note": 37,
      "start": 43.6361,
      "duration": 0.1236,
      "velocity": 120,
      "chip": "ym2612"
    },
    {
      "channel": 1,
      "note": 54,
      "start": 43.7407,
      "duration": 0.5448,
      "velocity": 96,
      "chip": "ym2612"
    },
    {
      "channel": 4,
      "note": 90,
      "start": 43.8529,
      "duration": 0.1061,
      "velocity": 96,
      "chip": "ym2612"
    },
    {
      "channel": 2,
      "note": 37,
      "start": 43.8541,
      "duration": 0.1234,
      "velocity": 120,
      "chip": "ym2612"
    },
    {
      "channel": 4,
      "note": 90,
      "start": 43.9599,
      "duration": 0.1105,
      "velocity": 96,
      "chip": "ym2612"
    },
    {
      "channel": 2,
      "note": 77,
      "start": 44.072,
      "duration": 0.1037,
      "velocity": 127,
      "chip": "ym2612"
    },
    {
      "channel": 4,
      "note": 90,
      "start": 44.1803,
      "duration": 0.106,
      "velocity": 96,
      "chip": "ym2612"
    },
    {
      "channel": 2,
      "note": 37,
      "start": 44.1815,
      "duration": 0.1232,
      "velocity": 120,
      "chip": "ym2612"
    },
    {
      "channel": 1,
      "note": 59,
      "start": 44.2861,
      "duration": 0.1112,
      "velocity": 96,
      "chip": "ym2612"
    },
    {
      "channel": 1,
      "note": 61,
      "start": 44.398,
      "duration": 0.4332,
      "velocity": 96,
      "chip": "ym2612"
    },
    {
      "channel": 4,
      "note": 90,
      "start": 44.399,
      "duration": 0.1051,
      "velocity": 96,
      "chip": "ym2612"
    },
    {
      "channel": 2,
      "note": 37,
      "start": 44.4002,
      "duration": 0.1227,
      "velocity": 120,
      "chip": "ym2612"
    },
    {
      "channel": 2,
      "note": 37,
      "start": 44.7269,
      "duration": 0.1233,
      "velocity": 120,
      "chip": "ym2612"
    },
    {
      "channel": 1,
      "note": 64,
      "start": 44.8318,
      "duration": 0.1119,
      "velocity": 96,
      "chip": "ym2612"
    },
    {
      "channel": 1,
      "note": 66,
      "start": 44.9442,
      "duration": 0.1079,
      "velocity": 96,
      "chip": "ym2612"
    },
    {
      "channel": 2,
      "note": 77,
      "start": 44.9457,
      "duration": 0.1032,
      "velocity": 127,
      "chip": "ym2612"
    },
    {
      "channel": 1,
      "note": 64,
      "start": 45.0528,
      "duration": 0.109,
      "velocity": 96,
      "chip": "ym2612"
    },
    {
      "channel": 2,
      "note": 37,
      "start": 45.0541,
      "duration": 0.1043,
      "velocity": 120,
      "chip": "ym2612"
    },
    {
      "channel": 1,
      "note": 66,
      "start": 45.1623,
      "duration": 0.1057,
      "velocity": 96,
      "chip": "ym2612"
    },
    {
      "channel": 2,
      "note": 37,
      "start": 45.1637,
      "duration": 0.1232,
      "velocity": 120,
      "chip": "ym2612"
    },
    {
      "channel": 1,
      "note": 61,
      "start": 45.2686,
      "duration": 0.1116,
      "velocity": 96,
      "chip": "ym2612"
    },
    {
      "channel": 0,
      "note": 78,
      "start": 45.3799,
      "duration": 1.7461,
      "velocity": 103,
      "chip": "ym2612"
    },
    {
      "channel": 1,
      "note": 54,
      "start": 45.3808,
      "duration": 0.1051,
      "velocity": 96,
      "chip": "ym2612"
    },
    {
      "channel": 2,
      "note": 37,
      "start": 45.3832,
      "duration": 0.1219,
      "velocity": 120,
      "chip": "ym2612"
    },
    {
      "channel": 1,
      "note": 54,
      "start": 45.4865,
      "duration": 0.545,
      "velocity": 96,
      "chip": "ym2612"
    },
    {
      "channel": 2,
      "note": 37,
      "start": 45.5993,
      "duration": 0.1241,
      "velocity": 120,
      "chip": "ym2612"
    },
    {
      "channel": 4,
      "note": 90,
      "start": 45.8173,
      "duration": 0.109,
      "velocity": 96,
      "chip": "ym2612"
    },
    {
      "channel": 2,
      "note": 77,
      "start": 45.8187,
      "duration": 0.1032,
      "velocity": 127,
      "chip": "ym2612"
    },
    {
      "channel": 4,
      "note": 90,
      "start": 45.9271,
      "duration": 0.1054,
      "velocity": 96,
      "chip": "ym2612"
    },
    {
      "channel": 2,
      "note": 37,
      "start": 45.9283,
      "duration": 0.1226,
      "velocity": 120,
      "chip": "ym2612"
    },
    {
      "channel": 1,
      "note": 54,
      "start": 46.0322,
      "duration": 0.112,
      "velocity": 96,
      "chip": "ym2612"
    },
    {
      "channel": 5,
      "note": 78,
      "start": 46.0336,
      "duration": 1.7454,
      "velocity": 103,
      "chip": "ym2612"
    },
    {
      "channel": 1,
      "note": 54,
      "start": 46.1447,
      "duration": 0.4326,
      "velocity": 96,
      "chip": "ym2612"
    },
    {
      "channel": 4,
      "note": 90,
      "start": 46.1458,
      "duration": 0.1045,
      "velocity": 96,
      "chip": "ym2612"
    },
    {
      "channel": 2,
      "note": 37,
      "start": 46.147,
      "duration": 0.1221,
      "velocity": 120,
      "chip": "ym2612"
    },
    {
      "channel": 4,
      "note": 90,
      "start": 46.3605,
      "duration": 0.1107,
      "velocity": 96,
      "chip": "ym2612"
    },
    {
      "channel": 2,
      "note": 37,
      "start": 46.4728,
      "duration": 0.124,
      "velocity": 120,
      "chip": "ym2612"
    },
    {
      "channel": 1,
      "note": 52,
      "start": 46.5779,
      "duration": 0.1113,
      "velocity": 96,
      "chip": "ym2612"
    },
    {
      "channel": 4,
      "note": 90,
      "start": 46.5789,
      "duration": 0.1111,
      "velocity": 96,
      "chip": "ym2612"
    },
    {
      "channel": 1,
      "note": 54,
      "start": 46.6898,
      "duration": 0.1085,
      "velocity": 96,
      "chip": "ym2612"
    },
    {
      "channel": 2,
      "note": 77,
      "start": 46.6923,
      "duration": 0.1027,
      "velocity": 127,
      "chip": "ym2612"
    },
    {
      "channel": 1,
      "note": 52,
      "start": 46.7988,
      "duration": 0.1088,
      "velocity": 96,
      "chip": "ym2612"
    },
    {
      "channel": 2,
      "note": 37,
      "start": 46.8002,
      "duration": 0.1039,
      "velocity": 120,
      "chip": "ym2612"
    },
    {
      "channel": 1,
      "note": 54,
      "start": 46.9087,
      "duration": 0.1052,
      "velocity": 96,
      "chip": "ym2612"
    },
    {
      "channel": 4,
      "note": 90,
      "start": 46.9097,
      "duration": 0.105,
      "velocity": 96,
      "chip": "ym2612"
    },
    {
      "channel": 2,
      "note": 37,
      "start": 46.9109,
      "duration": 0.1221,
      "velocity": 120,
      "chip": "ym2612"
    },
    {
      "channel": 1,
      "note": 49,
      "start": 47.0145,
      "duration": 0.1125,
      "velocity": 96,
      "chip": "ym2612"
    },
    {
      "channel": 0,
      "note": 80,
      "start": 47.1267,
      "duration": 0.8688,
      "velocity": 103,
      "chip": "ym2612"
    },
    {
      "channel": 1,
      "note": 54,
      "start": 47.1276,
      "duration": 0.1045,
      "velocity": 96,
      "chip": "ym2612"
    },
    {
      "channel": 2,
      "note": 37,
      "start": 47.1292,
      "duration": 0.1221,
      "velocity": 120,
      "chip": "ym2612"
    },
    {
      "channel": 1,
      "note": 54,
      "start": 47.2327,
      "duration": 0.545,
      "velocity": 96,
      "chip": "ym2612"
    },
    {
      "channel": 4,
      "note": 90,
      "start": 47.3458,
      "duration": 0.1051,
      "velocity": 96,
      "chip": "ym2612"
    },
    {
      "channel": 2,
      "note": 37,
      "start": 47.347,
      "duration": 0.1229,
      "velocity": 120,
      "chip": "ym2612"
    },
    {
      "channel": 4,
      "note": 90,
      "start": 47.4516,
      "duration": 0.1111,
      "velocity": 96,
      "chip": "ym2612"
    },
    {
      "channel": 2,
      "note": 77,
      "start": 47.5643,
      "duration": 0.1038,
      "velocity": 127,
      "chip": "ym2612"
    },
    {
      "channel": 4,
      "note": 90,
      "start": 47.6727,
      "duration": 0.1059,
      "velocity": 96,
      "chip": "ym2612"
    },
    {
      "channel": 2,
      "note": 37,
      "start": 47.6741,
      "duration": 0.1228,
      "velocity": 120,
      "chip": "ym2612"
    },
    {
      "channel": 1,
      "note": 57,
      "start": 47.7783,
      "duration": 0.1113,
      "velocity": 96,
      "chip": "ym2612"
    },
    {
      "channel": 5,
      "note": 80,
      "start": 47.7798,
      "duration": 0.8747,
      "velocity": 103,
      "chip": "ym2612"
    },
    {
      "channel": 1,
      "note": 59,
      "start": 47.8902,
      "duration": 0.2149,
      "velocity": 96,
      "chip": "ym2612"
    },
    {
      "channel": 4,
      "note": 90,
      "start": 47.8919,
      "duration": 0.105,
      "velocity": 96,
      "chip": "ym2612"
    },
    {
      "channel": 2,
      "note": 37,
      "start": 47.8931,
      "duration": 0.1225,
      "velocity": 120,
      "chip": "ym2612"
    },
    {
      "channel": 0,
      "note": 76,
      "start": 47.9963,
      "duration": 0.6569,
      "velocity": 103,
      "chip": "ym2612"
    },
    {
      "channel": 1,
      "note": 57,
      "start": 48.1057,
      "duration": 0.2178,
      "velocity": 96,
      "chip": "ym2612"
    },
    {
      "channel": 2,
      "note": 37,
      "start": 48.2186,
      "duration": 0.1244,
      "velocity": 120,
      "chip": "ym2612"
    },
    {
      "channel": 1,
      "note": 56,
      "start": 48.3243,
      "duration": 0.2205,
      "velocity": 96,
      "chip": "ym2612"
    },
    {
      "channel": 2,
      "note": 77,
      "start": 48.4369,
      "duration": 0.1042,
      "velocity": 127,
      "chip": "ym2612"
    },
    {
      "channel": 1,
      "note": 54,
      "start": 48.5454,
      "duration": 0.2145,
      "velocity": 96,
      "chip": "ym2612"
    },
    {
      "channel": 2,
      "note": 37,
      "start": 48.5468,
      "duration": 0.1036,
      "velocity": 120,
      "chip": "ym2612"
    },
    {
      "channel": 0,
      "note": 85,
      "start": 48.6538,
      "duration": 3.7102,
      "velocity": 103,
      "chip": "ym2612"
    },
    {
      "channel": 5,
      "note": 76,
      "start": 48.6552,
      "duration": 0.6551,
      "velocity": 103,
      "chip": "ym2612"
    },
    {
      "channel": 2,
      "note": 37,
      "start": 48.656,
      "duration": 0.1232,
      "velocity": 120,
      "chip": "ym2612"
    },
    {
      "channel": 1,
      "note": 56,
      "start": 48.7605,
      "duration": 0.1115,
      "velocity": 96,
      "chip": "ym2612"
    },
    {
      "channel": 1,
      "note": 54,
      "start": 48.8725,
      "duration": 0.1057,
      "velocity": 96,
      "chip": "ym2612"
    },
    {
      "channel": 2,
      "note": 37,
      "start": 48.8756,
      "duration": 0.1218,
      "velocity": 120,
      "chip": "ym2612"
    },
    {
      "channel": 1,
      "note": 54,
      "start": 48.9788,
      "duration": 0.5454,
      "velocity": 96,
      "chip": "ym2612"
    },
    {
      "channel": 2,
      "note": 37,
      "start": 49.0923,
      "duration": 0.1234,
      "velocity": 120,
      "chip": "ym2612"
    },
    {
      "channel": 4,
      "note": 90,
      "start": 49.3102,
      "duration": 0.1077,
      "velocity": 96,
      "chip": "ym2612"
    },
    {
      "channel": 5,
      "note": 85,
      "start": 49.3111,
      "duration": 3.71,
      "velocity": 103,
      "chip": "ym2612"
    },
    {
      "channel": 2,
      "note": 77,
      "start": 49.3119,
      "duration": 0.1022,
      "velocity": 127,
      "chip": "ym2612"
    },
    {
      "channel": 4,
      "note": 90,
      "start": 49.4187,
      "duration": 0.1066,
      "velocity": 96,
      "chip": "ym2612"
    },
    {
      "channel": 2,
      "note": 37,
      "start": 49.4199,
      "duration": 0.1235,
      "velocity": 120,
      "chip": "ym2612"
    },
    {
      "channel": 1,
      "note": 54,
      "start": 49.5251,
      "duration": 0.1106,
      "velocity": 96,
      "chip": "ym2612"
    },
    {
      "channel": 1,
      "note": 54,
      "start": 49.6363,
      "duration": 0.4333,
      "velocity": 96,
      "chip": "ym2612"
    },
    {
      "channel": 4,
      "note": 90,
      "start": 49.6374,
      "duration": 0.1056,
      "velocity": 96,
      "chip": "ym2612"
    },
    {
      "channel": 2,
      "note": 37,
      "start": 49.6386,
      "duration": 0.1227,
      "velocity": 120,
      "chip": "ym2612"
    },
    {
      "channel": 4,
      "note": 90,
      "start": 49.8526,
      "duration": 0.1111,
      "velocity": 96,
      "chip": "ym2612"
    },
    {
      "channel": 2,
      "note": 37,
      "start": 49.9652,
      "duration": 0.1239,
      "velocity": 120,
      "chip": "ym2612"
    },
    {
      "channel": 1,
      "note": 52,
      "start": 50.0702,
      "duration": 0.1112,
      "velocity": 96,
      "chip": "ym2612"
    },
    {
      "channel": 4,
      "note": 90,
      "start": 50.0712,
      "duration": 0.111,
      "velocity": 96,
      "chip": "ym2612"
    },
    {
      "channel": 1,
      "note": 54,
      "start": 50.182,
      "duration": 0.1088,
      "velocity": 96,
      "chip": "ym2612"
    },
    {
      "channel": 2,
      "note": 77,
      "start": 50.1839,
      "duration": 0.1034,
      "velocity": 127,
      "chip": "ym2612"
    },
    {
      "channel": 1,
      "note": 52,
      "start": 50.2917,
      "duration": 0.108,
      "velocity": 96,
      "chip": "ym2612"
    },
    {
      "channel": 2,
      "note": 37,
      "start": 50.2932,
      "duration": 0.1032,
      "velocity": 120,
      "chip": "ym2612"
    },
    {
      "channel": 1,
      "note": 54,
      "start": 50.4003,
      "duration": 0.1059,
      "velocity": 96,
      "chip": "ym2612"
    },
    {
      "channel": 4,
      "note": 90,
      "start": 50.4013,
      "duration": 0.1057,
      "velocity": 96,
      "chip": "ym2612"
    },
    {
      "channel": 2,
      "note": 37,
      "start": 50.4025,
      "duration": 0.1234,
      "velocity": 120,
      "chip": "ym2612"
    },
    {
      "channel": 1,
      "note": 49,
      "start": 50.5067,
      "duration": 0.1117,
      "velocity": 96,
      "chip": "ym2612"
    },
    {
      "channel": 1,
      "note": 54,
      "start": 50.6189,
      "duration": 0.1061,
      "velocity": 96,
      "chip": "ym2612"
    },
    {
      "channel": 2,
      "note": 37,
      "start": 50.6206,
      "duration": 0.123,
      "velocity": 120,
      "chip": "ym2612"
    },
    {
      "channel": 1,
      "note": 54,
      "start": 50.7256,
      "duration": 0.5444,
      "velocity": 96,
      "chip": "ym2612"
    },
    {
      "channel": 4,
      "note": 90,
      "start": 50.8374,
      "duration": 0.1056,
      "velocity": 96,
      "chip": "ym2612"
    },
    {
      "channel": 2,
      "note": 37,
      "start": 50.8386,
      "duration": 0.1235,
      "velocity": 120,
      "chip": "ym2612"
    },
    {
      "channel": 4,
      "note": 90,
      "start": 50.9438,
      "duration": 0.1111,
      "velocity": 96,
      "chip": "ym2612"
    },
    {
      "channel": 2,
      "note": 77,
      "start": 51.0566,
      "duration": 0.1037,
      "velocity": 127,
      "chip": "ym2612"
    },
    {
      "channel": 4,
      "note": 90,
      "start": 51.1649,
      "duration": 0.1059,
      "velocity": 96,
      "chip": "ym2612"
    },
    {
      "channel": 2,
      "note": 37,
      "start": 51.1661,
      "duration": 0.123,
      "velocity": 120,
      "chip": "ym2612"
    },
    {
      "channel": 1,
      "note": 59,
      "start": 51.2706,
      "duration": 0.1115,
      "velocity": 96,
      "chip": "ym2612"
    },
    {
      "channel": 1,
      "note": 61,
      "start": 51.3827,
      "duration": 0.4358,
      "velocity": 96,
      "chip": "ym2612"
    },
    {
      "channel": 4,
      "note": 90,
      "start": 51.3837,
      "duration": 0.1084,
      "velocity": 96,
      "chip": "ym2612"
    },
    {
      "channel": 2,
      "note": 37,
      "start": 51.3849,
      "duration": 0.1029,
      "velocity": 120,
      "chip": "ym2612"
    },
    {
      "channel": 2,
      "note": 77,
      "start": 51.4938,
      "duration": 0.0306,
      "velocity": 127,
      "chip": "ym2612"
    },
    {
      "channel": 2,
      "note": 77,
      "start": 51.5298,
      "duration": 0.0671,
      "velocity": 127,
      "chip": "ym2612"
    },
    {
      "channel": 2,
      "note": 77,
      "start": 51.6019,
      "duration": 0.1041,
      "velocity": 127,
      "chip": "ym2612"
    },
    {
      "channel": 2,
      "note": 77,
      "start": 51.7116,
      "duration": 0.1036,
      "velocity": 127,
      "chip": "ym2612"
    },
    {
      "channel": 1,
      "note": 64,
      "start": 51.819,
      "duration": 0.1091,
      "velocity": 96,
      "chip": "ym2612"
    },
    {
      "channel": 2,
      "note": 77,
      "start": 51.8205,
      "duration": 0.1039,
      "velocity": 127,
      "chip": "ym2612"
    },
    {
      "channel": 1,
      "note": 66,
      "start": 51.9286,
      "duration": 0.1081,
      "velocity": 96,
      "chip": "ym2612"
    },
    {
      "channel": 2,
      "note": 77,
      "start": 51.9301,
      "duration": 0.1033,
      "velocity": 127,
      "chip": "ym2612"
    },
    {
      "channel": 1,
      "note": 64,
      "start": 52.0373,
      "duration": 0.1086,
      "velocity": 96,
      "chip": "ym2612"
    },
    {
      "channel": 2,
      "note": 77,
      "start": 52.0388,
      "duration": 0.1038,
      "velocity": 127,
      "chip": "ym2612"
    },
    {
      "channel": 1,
      "note": 66,
      "start": 52.1465,
      "duration": 0.1085,
      "velocity": 96,
      "chip": "ym2612"
    },
    {
      "channel": 2,
      "note": 77,
      "start": 52.1479,
      "duration": 0.1038,
      "velocity": 127,
      "chip": "ym2612"
    },
    {
      "channel": 1,
      "note": 61,
      "start": 52.2556,
      "duration": 0.1097,
      "velocity": 96,
      "chip": "ym2612"
    },
    {
      "channel": 2,
      "note": 77,
      "start": 52.2573,
      "duration": 0.1037,
      "velocity": 127,
      "chip": "ym2612"
    },
    {
      "channel": 0,
      "note": 86,
      "start": 52.3648,
      "duration": 0.1053,
      "velocity": 103,
      "chip": "ym2612"
    },
    {
      "channel": 1,
      "note": 50,
      "start": 52.3659,
      "duration": 0.2169,
      "velocity": 96,
      "chip": "ym2612"
    },
    {
      "channel": 3,
      "note": 81,
      "start": 52.3669,
      "duration": 0.1044,
      "velocity": 103,
      "chip": "ym2612"
    },
    {
      "channel": 2,
      "note": 37,
      "start": 52.3717,
      "duration": 0.1183,
      "velocity": 120,
      "chip": "ym2612"
    },
    {
      "channel": 0,
      "note": 86,
      "start": 52.4707,
      "duration": 0.1112,
      "velocity": 103,
      "chip": "ym2612"
    },
    {
      "channel": 3,
      "note": 81,
      "start": 52.4719,
      "duration": 0.1116,
      "velocity": 103,
      "chip": "ym2612"
    },
    {
      "channel": 0,
      "note": 86,
      "start": 52.5827,
      "duration": 0.1057,
      "velocity": 103,
      "chip": "ym2612"
    },
    {
      "channel": 1,
      "note": 50,
      "start": 52.5834,
      "duration": 0.2169,
      "velocity": 96,
      "chip": "ym2612"
    },
    {
      "channel": 3,
      "note": 81,
      "start": 52.5841,
      "duration": 0.1048,
      "velocity": 103,
      "chip": "ym2612"
    },
    {
      "channel": 2,
      "note": 37,
      "start": 52.5854,
      "duration": 0.1223,
      "velocity": 120,
      "chip": "ym2612"
    },
    {
      "channel": 1,
      "note": 62,
      "start": 52.8008,
      "duration": 0.2185,
      "velocity": 96,
      "chip": "ym2612"
    },
    {
      "channel": 2,
      "note": 77,
      "start": 52.8023,
      "duration": 0.2133,
      "velocity": 127,
      "chip": "ym2612"
    },
    {
      "channel": 0,
      "note": 86,
      "start": 53.0192,
      "duration": 0.1089,
      "velocity": 103,
      "chip": "ym2612"
    },
    {
      "channel": 1,
      "note": 50,
      "start": 53.0199,
      "duration": 0.109,
      "velocity": 96,
      "chip": "ym2612"
    },
    {
      "channel": 3,
      "note": 81,
      "start": 53.0207,
      "duration": 0.109,
      "velocity": 103,
      "chip": "ym2612"
    },
    {
      "channel": 5,
      "note": 86,
      "start": 53.0218,
      "duration": 0.1087,
      "velocity": 103,
      "chip": "ym2612"
    },
    {
      "channel": 2,
      "note": 37,
      "start": 53.0226,
      "duration": 0.1026,
      "velocity": 120,
      "chip": "ym2612"
    },
    {
      "channel": 0,
      "note": 86,
      "start": 53.1288,
      "duration": 0.1051,
      "velocity": 103,
      "chip": "ym2612"
    },
    {
      "channel": 1,
      "note": 50,
      "start": 53.1295,
      "duration": 0.2166,
      "velocity": 96,
      "chip": "ym2612"
    },
    {
      "channel": 3,
      "note": 81,
      "start": 53.1303,
      "duration": 0.1048,
      "velocity": 103,
      "chip": "ym2612"
    },
    {
      "channel": 5,
      "note": 86,
      "start": 53.1312,
      "duration": 0.1047,
      "velocity": 103,
      "chip": "ym2612"
    },
    {
      "channel": 2,
      "note": 37,
      "start": 53.132,
      "duration": 0.122,
      "velocity": 120,
      "chip": "ym2612"
    },
    {
      "channel": 0,
      "note": 86,
      "start": 53.2346,
      "duration": 0.1112,
      "velocity": 103,
      "chip": "ym2612"
    },
    {
      "channel": 3,
      "note": 81,
      "start": 53.2358,
      "duration": 0.1111,
      "velocity": 103,
      "chip": "ym2612"
    },
    {
      "channel": 5,
      "note": 86,
      "start": 53.2367,
      "duration": 0.1105,
      "velocity": 103,
      "chip": "ym2612"
    },
    {
      "channel": 1,
      "note": 50,
      "start": 53.3467,
      "duration": 0.2176,
      "velocity": 96,
      "chip": "ym2612"
    },
    {
      "channel": 2,
      "note": 37,
      "start": 53.3482,
      "duration": 0.1233,
      "velocity": 120,
      "chip": "ym2612"
    },
    {
      "channel": 4,
      "note": 78,
      "start": 53.4538,
      "duration": 0.1113,
      "velocity": 98,
      "chip": "ym2612"
    },
    {
      "channel": 1,
      "note": 50,
      "start": 53.5649,
      "duration": 0.1085,
      "velocity": 96,
      "chip": "ym2612"
    },
    {
      "channel": 4,
      "note": 80,
      "start": 53.566,
      "duration": 0.1084,
      "velocity": 98,
      "chip": "ym2612"
    },
    {
      "channel": 2,
      "note": 37,
      "start": 53.5668,
      "duration": 0.1036,
      "velocity": 120,
      "chip": "ym2612"
    },
    {
      "channel": 1,
      "note": 62,
      "start": 53.6741,
      "duration": 0.2181,
      "velocity": 96,
      "chip": "ym2612"
    },
    {
      "channel": 4,
      "note": 81,
      "start": 53.6757,
      "duration": 0.2173,
      "velocity": 98,
      "chip": "ym2612"
    },
    {
      "channel": 5,
      "note": 86,
      "start": 53.6766,
      "duration": 0.104,
      "velocity": 103,
      "chip": "ym2612"
    },
    {
      "channel": 2,
      "note": 77,
      "start": 53.6774,
      "duration": 0.2113,
      "velocity": 127,
      "chip": "ym2612"
    },
    {
      "channel": 5,
      "note": 86,
      "start": 53.7814,
      "duration": 0.1127,
      "velocity": 103,
      "chip": "ym2612"
    },
    {
      "channel": 1,
      "note": 50,
      "start": 53.8928,
      "duration": 0.2192,
      "velocity": 96,
      "chip": "ym2612"
    },
    {
      "channel": 4,
      "note": 80,
      "start": 53.894,
      "duration": 0.2226,
      "velocity": 98,
      "chip": "ym2612"
    },
    {
      "channel": 5,
      "note": 86,
      "start": 53.8949,
      "duration": 0.104,
      "velocity": 103,
      "chip": "ym2612"
    },
    {
      "channel": 2,
      "note": 37,
      "start": 53.8956,
      "duration": 0.1216,
      "velocity": 120,
      "chip": "ym2612"
    },
    {
      "channel": 0,
      "note": 86,
      "start": 54.1115,
      "duration": 0.1046,
      "velocity": 103,
      "chip": "ym2612"
    },
    {
      "channel": 1,
      "note": 50,
      "start": 54.1125,
      "duration": 0.2166,
      "velocity": 96,
      "chip": "ym2612"
    },
    {
      "channel": 3,
      "note": 81,
      "start": 54.1136,
      "duration": 0.1038,
      "velocity": 103,
      "chip": "ym2612"
    },
    {
      "channel": 2,
      "note": 37,
      "start": 54.1177,
      "duration": 0.118,
      "velocity": 120,
      "chip": "ym2612"
    },
    {
      "channel": 0,
      "note": 86,
      "start": 54.2168,
      "duration": 0.1114,
      "velocity": 103,
      "chip": "ym2612"
    },
    {
      "channel": 3,
      "note": 81,
      "start": 54.218,
      "duration": 0.1119,
      "velocity": 103,
      "chip": "ym2612"
    },
    {
      "channel": 0,
      "note": 86,
      "start": 54.329,
      "duration": 0.1055,
      "velocity": 103,
      "chip": "ym2612"
    },
    {
      "channel": 1,
      "note": 50,
      "start": 54.3297,
      "duration": 0.2167,
      "velocity": 96,
      "chip": "ym2612"
    },
    {
      "channel": 3,
      "note": 81,
      "start": 54.3304,
      "duration": 0.1047,
      "velocity": 103,
      "chip": "ym2612"
    },
    {
      "channel": 2,
      "note": 37,
      "start": 54.3313,
      "duration": 0.1221,
      "velocity": 120,
      "chip": "ym2612"
    },
    {
      "channel": 1,
      "note": 62,
      "start": 54.5469,
      "duration": 0.2186,
      "velocity": 96,
      "chip": "ym2612"
    },
    {
      "channel": 2,
      "note": 77,
      "start": 54.548,
      "duration": 0.2138,
      "velocity": 127,
      "chip": "ym2612"
    },
    {
      "channel": 0,
      "note": 86,
      "start": 54.7654,
      "duration": 0.1086,
      "velocity": 103,
      "chip": "ym2612"
    },
    {
      "channel": 1,
      "note": 50,
      "start": 54.7661,
      "duration": 0.1092,
      "velocity": 96,
      "chip": "ym2612"
    },
    {
      "channel": 3,
      "note": 81,
      "start": 54.7668,
      "duration": 0.1091,
      "velocity": 103,
      "chip": "ym2612"
    },
    {
      "channel": 5,
      "note": 86,
      "start": 54.7681,
      "duration": 0.1087,
      "velocity": 103,
      "chip": "ym2612"
    },
    {
      "channel": 2,
      "note": 37,
      "start": 54.7688,
      "duration": 0.1021,
      "velocity": 120,
      "chip": "ym2612"
    },
    {
      "channel": 0,
      "note": 86,
      "start": 54.8751,
      "duration": 0.105,
      "velocity": 103,
      "chip": "ym2612"
    },
    {
      "channel": 1,
      "note": 50,
      "start": 54.8759,
      "duration": 0.2171,
      "velocity": 96,
      "chip": "ym2612"
    },
    {
      "channel": 3,
      "note": 81,
      "start": 54.8766,
      "duration": 0.1046,
      "velocity": 103,
      "chip": "ym2612"
    },
    {
      "channel": 5,
      "note": 86,
      "start": 54.8776,
      "duration": 0.1045,
      "velocity": 103,
      "chip": "ym2612"
    },
    {
      "channel": 2,
      "note": 37,
      "start": 54.8783,
      "duration": 0.1218,
      "velocity": 120,
      "chip": "ym2612"
    },
    {
      "channel": 0,
      "note": 86,
      "start": 54.9807,
      "duration": 0.1119,
      "velocity": 103,
      "chip": "ym2612"
    },
    {
      "channel": 3,
      "note": 81,
      "start": 54.9818,
      "duration": 0.1118,
      "velocity": 103,
      "chip": "ym2612"
    },
    {
      "channel": 5,
      "note": 86,
      "start": 54.9828,
      "duration": 0.1113,
      "velocity": 103,
      "chip": "ym2612"
    },
    {
      "channel": 1,
      "note": 50,
      "start": 55.0935,
      "duration": 0.2175,
      "velocity": 96,
      "chip": "ym2612"
    },
    {
      "channel": 2,
      "note": 37,
      "start": 55.095,
      "duration": 0.1227,
      "velocity": 120,
      "chip": "ym2612"
    },
    {
      "channel": 4,
      "note": 78,
      "start": 55.1998,
      "duration": 0.112,
      "velocity": 98,
      "chip": "ym2612"
    },
    {
      "channel": 1,
      "note": 50,
      "start": 55.3116,
      "duration": 0.1079,
      "velocity": 96,
      "chip": "ym2612"
    },
    {
      "channel": 4,
      "note": 80,
      "start": 55.3127,
      "duration": 0.1076,
      "velocity": 98,
      "chip": "ym2612"
    },
    {
      "channel": 2,
      "note": 37,
      "start": 55.3136,
      "duration": 0.103,
      "velocity": 120,
      "chip": "ym2612"
    },
    {
      "channel": 1,
      "note": 62,
      "start": 55.4201,
      "duration": 0.2176,
      "velocity": 96,
      "chip": "ym2612"
    },
    {
      "channel": 4,
      "note": 81,
      "start": 55.4212,
      "duration": 0.2173,
      "velocity": 98,
      "chip": "ym2612"
    },
    {
      "channel": 5,
      "note": 86,
      "start": 55.4221,
      "duration": 0.1049,
      "velocity": 103,
      "chip": "ym2612"
    },
    {
      "channel": 2,
      "note": 77,
      "start": 55.4229,
      "duration": 0.2119,
      "velocity": 127,
      "chip": "ym2612"
    },
    {
      "channel": 5,
      "note": 86,
      "start": 55.5277,
      "duration": 0.1118,
      "velocity": 103,
      "chip": "ym2612"
    },
    {
      "channel": 1,
      "note": 50,
      "start": 55.6383,
      "duration": 0.2196,
      "velocity": 96,
      "chip": "ym2612"
    },
    {
      "channel": 4,
      "note": 80,
      "start": 55.6394,
      "duration": 0.2208,
      "velocity": 98,
      "chip": "ym2612"
    },
    {
      "channel": 5,
      "note": 86,
      "start": 55.6403,
      "duration": 0.1047,
      "velocity": 103,
      "chip": "ym2612"
    },
    {
      "channel": 2,
      "note": 37,
      "start": 55.6412,
      "duration": 0.1221,
      "velocity": 120,
      "chip": "ym2612"
    },
    {
      "channel": 0,
      "note": 88,
      "start": 55.8573,
      "duration": 0.1049,
      "velocity": 103,
      "chip": "ym2612"
    },
    {
      "channel": 1,
      "note": 52,
      "start": 55.8589,
      "duration": 0.2167,
      "velocity": 96,
      "chip": "ym2612"
    },
    {
      "channel": 3,
      "note": 83,
      "start": 55.86,
      "duration": 0.1035,
      "velocity": 103,
      "chip": "ym2612"
    },
    {
      "channel": 2,
      "note": 37,
      "start": 55.8613,
      "duration": 0.1205,
      "velocity": 120,
      "chip": "ym2612"
    },
    {
      "channel": 0,
      "note": 88,
      "start": 55.9629,
      "duration": 0.1114,
      "velocity": 103,
      "chip": "ym2612"
    },
    {
      "channel": 3,
      "note": 83,
      "start": 55.9641,
      "duration": 0.1123,
      "velocity": 103,
      "chip": "ym2612"
    },
    {
      "channel": 0,
      "note": 88,
      "start": 56.0755,
      "duration": 0.1051,
      "velocity": 103,
      "chip": "ym2612"
    },
    {
      "channel": 1,
      "note": 52,
      "start": 56.0762,
      "duration": 0.2169,
      "velocity": 96,
      "chip": "ym2612"
    },
    {
      "channel": 3,
      "note": 83,
      "start": 56.0769,
      "duration": 0.1043,
      "velocity": 103,
      "chip": "ym2612"
    },
    {
      "channel": 2,
      "note": 37,
      "start": 56.0778,
      "duration": 0.1217,
      "velocity": 120,
      "chip": "ym2612"
    },
    {
      "channel": 1,
      "note": 64,
      "start": 56.2937,
      "duration": 0.2183,
      "velocity": 96,
      "chip": "ym2612"
    },
    {
      "channel": 2,
      "note": 77,
      "start": 56.2948,
      "duration": 0.2135,
      "velocity": 127,
      "chip": "ym2612"
    },
    {
      "channel": 0,
      "note": 88,
      "start": 56.5119,
      "duration": 0.1079,
      "velocity": 103,
      "chip": "ym2612"
    },
    {
      "channel": 1,
      "note": 52,
      "start": 56.5126,
      "duration": 0.1081,
      "velocity": 96,
      "chip": "ym2612"
    },
    {
      "channel": 3,
      "note": 83,
      "start": 56.5134,
      "duration": 0.108,
      "velocity": 103,
      "chip": "ym2612"
    },
    {
      "channel": 5,
      "note": 88,
      "start": 56.5147,
      "duration": 0.1076,
      "velocity": 103,
      "chip": "ym2612"
    },
    {
      "channel": 2,
      "note": 37,
      "start": 56.5155,
      "duration": 0.1015,
      "velocity": 120,
      "chip": "ym2612"
    },
    {
      "channel": 0,
      "note": 88,
      "start": 56.6206,
      "duration": 0.1057,
      "velocity": 103,
      "chip": "ym2612"
    },
    {
      "channel": 1,
      "note": 52,
      "start": 56.6213,
      "duration": 0.2172,
      "velocity": 96,
      "chip": "ym2612"
    },
    {
      "channel": 3,
      "note": 83,
      "start": 56.622,
      "duration": 0.1055,
      "velocity": 103,
      "chip": "ym2612"
    },
    {
      "channel": 5,
      "note": 88,
      "start": 56.623,
      "duration": 0.1053,
      "velocity": 103,
      "chip": "ym2612"
    },
    {
      "channel": 2,
      "note": 37,
      "start": 56.6239,
      "duration": 0.1223,
      "velocity": 120,
      "chip": "ym2612"
    },
    {
      "channel": 0,
      "note": 88,
      "start": 56.727,
      "duration": 0.1111,
      "velocity": 103,
      "chip": "ym2612"
    },
    {
      "channel": 3,
      "note": 83,
      "start": 56.7281,
      "duration": 0.1111,
      "velocity": 103,
      "chip": "ym2612"
    },
    {
      "channel": 5,
      "note": 88,
      "start": 56.7291,
      "duration": 0.1105,
      "velocity": 103,
      "chip": "ym2612"
    },
    {
      "channel": 1,
      "note": 52,
      "start": 56.8391,
      "duration": 0.2174,
      "velocity": 96,
      "chip": "ym2612"
    },
    {
      "channel": 2,
      "note": 37,
      "start": 56.8407,
      "duration": 0.123,
      "velocity": 120,
      "chip": "ym2612"
    },
    {
      "channel": 4,
      "note": 80,
      "start": 56.9459,
      "duration": 0.1116,
      "velocity": 98,
      "chip": "ym2612"
    },
    {
      "channel": 1,
      "note": 52,
      "start": 57.057,
      "duration": 0.1086,
      "velocity": 96,
      "chip": "ym2612"
    },
    {
      "channel": 4,
      "note": 81,
      "start": 57.0588,
      "duration": 0.1077,
      "velocity": 98,
      "chip": "ym2612"
    },
    {
      "channel": 2,
      "note": 37,
      "start": 57.0596,
      "duration": 0.1031,
      "velocity": 120,
      "chip": "ym2612"
    },
    {
      "channel": 1,
      "note": 64,
      "start": 57.1662,
      "duration": 0.2176,
      "velocity": 96,
      "chip": "ym2612"
    },
    {
      "channel": 4,
      "note": 83,
      "start": 57.1674,
      "duration": 0.2173,
      "velocity": 98,
      "chip": "ym2612"
    },
    {
      "channel": 5,
      "note": 88,
      "start": 57.1683,
      "duration": 0.1046,
      "velocity": 103,
      "chip": "ym2612"
    },
    {
      "channel": 2,
      "note": 77,
      "start": 57.1691,
      "duration": 0.2119,
      "velocity": 127,
      "chip": "ym2612"
    },
    {
      "channel": 5,
      "note": 88,
      "start": 57.2736,
      "duration": 0.1122,
      "velocity": 103,
      "chip": "ym2612"
    },
    {
      "channel": 1,
      "note": 52,
      "start": 57.3844,
      "duration": 0.2195,
      "velocity": 96,
      "chip": "ym2612"
    },
    {
      "channel": 4,
      "note": 81,
      "start": 57.3856,
      "duration": 0.2202,
      "velocity": 98,
      "chip": "ym2612"
    },
    {
      "channel": 5,
      "note": 88,
      "start": 57.3865,
      "duration": 0.1054,
      "velocity": 103,
      "chip": "ym2612"
    },
    {
      "channel": 2,
      "note": 37,
      "start": 57.3872,
      "duration": 0.1227,
      "velocity": 120,
      "chip": "ym2612"
    },
    {
      "channel": 0,
      "note": 88,
      "start": 57.6035,
      "duration": 0.1056,
      "velocity": 103,
      "chip": "ym2612"
    },
    {
      "channel": 1,
      "note": 52,
      "start": 57.6045,
      "duration": 0.2167,
      "velocity": 96,
      "chip": "ym2612"
    },
    {
      "channel": 3,
      "note": 83,
      "start": 57.6056,
      "duration": 0.1048,
      "velocity": 103,
      "chip": "ym2612"
    },
    {
      "channel": 2,
      "note": 37,
      "start": 57.607,
      "duration": 0.121,
      "velocity": 120,
      "chip": "ym2612"
    },
    {
      "channel": 0,
      "note": 88,
      "start": 57.7099,
      "duration": 0.1104,
      "velocity": 103,
      "chip": "ym2612"
    },
    {
      "channel": 3,
      "note": 83,
      "start": 57.711,
      "duration": 0.111,
      "velocity": 103,
      "chip": "ym2612"
    },
    {
      "channel": 0,
      "note": 88,
      "start": 57.821,
      "duration": 0.1057,
      "velocity": 103,
      "chip": "ym2612"
    },
    {
      "channel": 1,
      "note": 52,
      "start": 57.8217,
      "duration": 0.2169,
      "velocity": 96,
      "chip": "ym2612"
    },
    {
      "channel": 3,
      "note": 83,
      "start": 57.8225,
      "duration": 0.1049,
      "velocity": 103,
      "chip": "ym2612"
    },
    {
      "channel": 2,
      "note": 37,
      "start": 57.8234,
      "duration": 0.1223,
      "velocity": 120,
      "chip": "ym2612"
    },
    {
      "channel": 1,
      "note": 64,
      "start": 58.0392,
      "duration": 0.2191,
      "velocity": 96,
      "chip": "ym2612"
    },
    {
      "channel": 2,
      "note": 77,
      "start": 58.0403,
      "duration": 0.2137,
      "velocity": 127,
      "chip": "ym2612"
    },
    {
      "channel": 0,
      "note": 88,
      "start": 58.2578,
      "duration": 0.1083,
      "velocity": 103,
      "chip": "ym2612"
    },
    {
      "channel": 1,
      "note": 52,
      "start": 58.2589,
      "duration": 0.108,
      "velocity": 96,
      "chip": "ym2612"
    },
    {
      "channel": 3,
      "note": 83,
      "start": 58.2597,
      "duration": 0.108,
      "velocity": 103,
      "chip": "ym2612"
    },
    {
      "channel": 5,
      "note": 88,
      "start": 58.261,
      "duration": 0.1075,
      "velocity": 103,
      "chip": "ym2612"
    },
    {
      "channel": 2,
      "note": 37,
      "start": 58.2617,
      "duration": 0.1016,
      "velocity": 120,
      "chip": "ym2612"
    },
    {
      "channel": 0,
      "note": 88,
      "start": 58.3668,
      "duration": 0.1056,
      "velocity": 103,
      "chip": "ym2612"
    },
    {
      "channel": 1,
      "note": 52,
      "start": 58.3675,
      "duration": 0.217,
      "velocity": 96,
      "chip": "ym2612"
    },
    {
      "channel": 3,
      "note": 83,
      "start": 58.3683,
      "duration": 0.1053,
      "velocity": 103,
      "chip": "ym2612"
    },
    {
      "channel": 5,
      "note": 88,
      "start": 58.3692,
      "duration": 0.1058,
      "velocity": 103,
      "chip": "ym2612"
    },
    {
      "channel": 2,
      "note": 37,
      "start": 58.3699,
      "duration": 0.123,
      "velocity": 120,
      "chip": "ym2612"
    },
    {
      "channel": 0,
      "note": 88,
      "start": 58.473,
      "duration": 0.1111,
      "velocity": 103,
      "chip": "ym2612"
    },
    {
      "channel": 3,
      "note": 83,
      "start": 58.4744,
      "duration": 0.1109,
      "velocity": 103,
      "chip": "ym2612"
    },
    {
      "channel": 5,
      "note": 88,
      "start": 58.4758,
      "duration": 0.1099,
      "velocity": 103,
      "chip": "ym2612"
    },
    {
      "channel": 1,
      "note": 52,
      "start": 58.5851,
      "duration": 0.2176,
      "velocity": 96,
      "chip": "ym2612"
    },
    {
      "channel": 2,
      "note": 77,
      "start": 58.5867,
      "duration": 0.0312,
      "velocity": 127,
      "chip": "ym2612"
    },
    {
      "channel": 2,
      "note": 77,
      "start": 58.622,
      "duration": 0.0688,
      "velocity": 127,
      "chip": "ym2612"
    },
    {
      "channel": 4,
      "note": 80,
      "start": 58.6954,
      "duration": 0.108,
      "velocity": 98,
      "chip": "ym2612"
    },
    {
      "channel": 2,
      "note": 77,
      "start": 58.6963,
      "duration": 0.1034,
      "velocity": 127,
      "chip": "ym2612"
    },
    {
      "channel": 1,
      "note": 52,
      "start": 58.8032,
      "duration": 0.1085,
      "velocity": 96,
      "chip": "ym2612"
    },
    {
      "channel": 4,
      "note": 81,
      "start": 58.8044,
      "duration": 0.1082,
      "velocity": 98,
      "chip": "ym2612"
    },
    {
      "channel": 2,
      "note": 77,
      "start": 58.8053,
      "duration": 0.1036,
      "velocity": 127,
      "chip": "ym2612"
    },
    {
      "channel": 1,
      "note": 64,
      "start": 58.9123,
      "duration": 0.1086,
      "velocity": 96,
      "chip": "ym2612"
    },
    {
      "channel": 4,
      "note": 83,
      "start": 58.9134,
      "duration": 0.1083,
      "velocity": 98,
      "chip": "ym2612"
    },
    {
      "channel": 5,
      "note": 88,
      "start": 58.9143,
      "duration": 0.1085,
      "velocity": 103,
      "chip": "ym2612"
    },
    {
      "channel": 2,
      "note": 77,
      "start": 58.9152,
      "duration": 0.1029,
      "velocity": 127,
      "chip": "ym2612"
    },
    {
      "channel": 1,
      "note": 62,
      "start": 59.0215,
      "duration": 0.1085,
      "velocity": 96,
      "chip": "ym2612"
    },
    {
      "channel": 4,
      "note": 85,
      "start": 59.0226,
      "duration": 0.1082,
      "velocity": 98,
      "chip": "ym2612"
    },
    {
      "channel": 5,
      "note": 88,
      "start": 59.0235,
      "duration": 0.1083,
      "velocity": 103,
      "chip": "ym2612"
    },
    {
      "channel": 2,
      "note": 77,
      "start": 59.0246,
      "duration": 0.1025,
      "velocity": 127,
      "chip": "ym2612"
    },
    {
      "channel": 1,
      "note": 64,
      "start": 59.1305,
      "duration": 0.1085,
      "velocity": 96,
      "chip": "ym2612"
    },
    {
      "channel": 4,
      "note": 86,
      "start": 59.1317,
      "duration": 0.1082,
      "velocity": 98,
      "chip": "ym2612"
    },
    {
      "channel": 5,
      "note": 88,
      "start": 59.1326,
      "duration": 0.1086,
      "velocity": 103,
      "chip": "ym2612"
    },
    {
      "channel": 2,
      "note": 77,
      "start": 59.1334,
      "duration": 0.1028,
      "velocity": 127,
      "chip": "ym2612"
    },
    {
      "channel": 1,
      "note": 59,
      "start": 59.2397,
      "duration": 0.1101,
      "velocity": 96,
      "chip": "ym2612"
    },
    {
      "channel": 4,
      "note": 88,
      "start": 59.241,
      "duration": 0.1134,
      "velocity": 98,
      "chip": "ym2612"
    },
    {
      "channel": 2,
      "note": 77,
      "start": 59.2426,
      "duration": 0.1029,
      "velocity": 127,
      "chip": "ym2612"
    },
    {
      "channel": 0,
      "note": 90,
      "start": 59.3494,
      "duration": 0.1051,
      "velocity": 103,
      "chip": "ym2612"
    },
    {
      "channel": 1,
      "note": 50,
      "start": 59.3503,
      "duration": 0.217,
      "velocity": 96,
      "chip": "ym2612"
    },
    {
      "channel": 3,
      "note": 86,
      "start": 59.3514,
      "duration": 0.1043,
      "velocity": 103,
      "chip": "ym2612"
    },
    {
      "channel": 2,
      "note": 37,
      "start": 59.3556,
      "duration": 0.1186,
      "velocity": 120,
      "chip": "ym2612"
    },
    {
      "channel": 0,
      "note": 90,
      "start": 59.4552,
      "duration": 0.1112,
      "velocity": 103,
      "chip": "ym2612"
    },
    {
      "channel": 3,
      "note": 86,
      "start": 59.4563,
      "duration": 0.1118,
      "velocity": 103,
      "chip": "ym2612"
    },
    {
      "channel": 0,
      "note": 90,
      "start": 59.5672,
      "duration": 0.1059,
      "velocity": 103,
      "chip": "ym2612"
    },
    {
      "channel": 1,
      "note": 50,
      "start": 59.5679,
      "duration": 0.2169,
      "velocity": 96,
      "chip": "ym2612"
    },
    {
      "channel": 3,
      "note": 86,
      "start": 59.5687,
      "duration": 0.105,
      "velocity": 103,
      "chip": "ym2612"
    },
    {
      "channel": 2,
      "note": 37,
      "start": 59.5695,
      "duration": 0.1227,
      "velocity": 120,
      "chip": "ym2612"
    },
    {
      "channel": 1,
      "note": 62,
      "start": 59.7854,
      "duration": 0.2185,
      "velocity": 96,
      "chip": "ym2612"
    },
    {
      "channel": 2,
      "note": 77,
      "start": 59.7865,
      "duration": 0.2137,
      "velocity": 127,
      "chip": "ym2612"
    },
    {
      "channel": 0,
      "note": 90,
      "start": 60.0038,
      "duration": 0.1084,
      "velocity": 103,
      "chip": "ym2612"
    },
    {
      "channel": 1,
      "note": 50,
      "start": 60.0045,
      "duration": 0.1085,
      "velocity": 96,
      "chip": "ym2612"
    },
    {
      "channel": 3,
      "note": 86,
      "start": 60.0053,
      "duration": 0.1085,
      "velocity": 103,
      "chip": "ym2612"
    },
    {
      "channel": 5,
      "note": 90,
      "start": 60.0066,
      "duration": 0.1079,
      "velocity": 103,
      "chip": "ym2612"
    },
    {
      "channel": 2,
      "note": 37,
      "start": 60.0076,
      "duration": 0.1017,
      "velocity": 120,
      "chip": "ym2612"
    },
    {
      "channel": 0,
      "note": 90,
      "start": 60.1129,
      "duration": 0.1056,
      "velocity": 103,
      "chip": "ym2612"
    },
    {
      "channel": 1,
      "note": 50,
      "start": 60.1136,
      "duration": 0.2172,
      "velocity": 96,
      "chip": "ym2612"
    },
    {
      "channel": 3,
      "note": 86,
      "start": 60.1144,
      "duration": 0.1054,
      "velocity": 103,
      "chip": "ym2612"
    },
    {
      "channel": 5,
      "note": 90,
      "start": 60.1154,
      "duration": 0.1052,
      "velocity": 103,
      "chip": "ym2612"
    },
    {
      "channel": 2,
      "note": 37,
      "start": 60.1161,
      "duration": 0.1224,
      "velocity": 120,
      "chip": "ym2612"
    },
    {
      "channel": 0,
      "note": 90,
      "start": 60.2192,
      "duration": 0.1112,
      "velocity": 103,
      "chip": "ym2612"
    },
    {
      "channel": 3,
      "note": 86,
      "start": 60.2204,
      "duration": 0.1111,
      "velocity": 103,
      "chip": "ym2612"
    },
    {
      "channel": 5,
      "note": 90,
      "start": 60.2213,
      "duration": 0.1105,
      "velocity": 103,
      "chip": "ym2612"
    },
    {
      "channel": 1,
      "note": 50,
      "start": 60.3314,
      "duration": 0.2174,
      "velocity": 96,
      "chip": "ym2612"
    },
    {
      "channel": 2,
      "note": 37,
      "start": 60.3328,
      "duration": 0.1232,
      "velocity": 120,
      "chip": "ym2612"
    },
    {
      "channel": 4,
      "note": 78,
      "start": 60.4382,
      "duration": 0.1115,
      "velocity": 98,
      "chip": "ym2612"
    },
    {
      "channel": 1,
      "note": 50,
      "start": 60.5494,
      "duration": 0.1091,
      "velocity": 96,
      "chip": "ym2612"
    },
    {
      "channel": 4,
      "note": 80,
      "start": 60.5505,
      "duration": 0.1088,
      "velocity": 98,
      "chip": "ym2612"
    },
    {
      "channel": 2,
      "note": 37,
      "start": 60.5514,
      "duration": 0.1036,
      "velocity": 120,
      "chip": "ym2612"
    },
    {
      "channel": 1,
      "note": 62,
      "start": 60.659,
      "duration": 0.2178,
      "velocity": 96,
      "chip": "ym2612"
    },
    {
      "channel": 4,
      "note": 81,
      "start": 60.6602,
      "duration": 0.2174,
      "velocity": 98,
      "chip": "ym2612"
    },
    {
      "channel": 5,
      "note": 90,
      "start": 60.6611,
      "duration": 0.1041,
      "velocity": 103,
      "chip": "ym2612"
    },
    {
      "channel": 2,
      "note": 77,
      "start": 60.6619,
      "duration": 0.2113,
      "velocity": 127,
      "chip": "ym2612"
    },
    {
      "channel": 5,
      "note": 90,
      "start": 60.7659,
      "duration": 0.1127,
      "velocity": 103,
      "chip": "ym2612"
    },
    {
      "channel": 1,
      "note": 50,
      "start": 60.8774,
      "duration": 0.2189,
      "velocity": 96,
      "chip": "ym2612"
    },
    {
      "channel": 4,
      "note": 80,
      "start": 60.8785,
      "duration": 0.2224,
      "velocity": 98,
      "chip": "ym2612"
    },
    {
      "channel": 5,
      "note": 90,
      "start": 60.8794,
      "duration": 0.104,
      "velocity": 103,
      "chip": "ym2612"
    },
    {
      "channel": 2,
      "note": 37,
      "start": 60.8801,
      "duration": 0.1217,
      "velocity": 120,
      "chip": "ym2612"
    },
    {
      "channel": 0,
      "note": 90,
      "start": 61.0958,
      "duration": 0.1049,
      "velocity": 103,
      "chip": "ym2612"
    },
    {
      "channel": 1,
      "note": 50,
      "start": 61.0968,
      "duration": 0.2167,
      "velocity": 96,
      "chip": "ym2612"
    },
    {
      "channel": 3,
      "note": 86,
      "start": 61.0979,
      "duration": 0.104,
      "velocity": 103,
      "chip": "ym2612"
    },
    {
      "channel": 2,
      "note": 37,
      "start": 61.1021,
      "duration": 0.1183,
      "velocity": 120,
      "chip": "ym2612"
    },
    {
      "channel": 0,
      "note": 90,
      "start": 61.2014,
      "duration": 0.1112,
      "velocity": 103,
      "chip": "ym2612"
    },
    {
      "channel": 3,
      "note": 86,
      "start": 61.2026,
      "duration": 0.1117,
      "velocity": 103,
      "chip": "ym2612"
    },
    {
      "channel": 0,
      "note": 90,
      "start": 61.3134,
      "duration": 0.1055,
      "velocity": 103,
      "chip": "ym2612"
    },
    {
      "channel": 1,
      "note": 50,
      "start": 61.3141,
      "duration": 0.2168,
      "velocity": 96,
      "chip": "ym2612"
    },
    {
      "channel": 3,
      "note": 86,
      "start": 61.3149,
      "duration": 0.1047,
      "velocity": 103,
      "chip": "ym2612"
    },
    {
      "channel": 2,
      "note": 37,
      "start": 61.3157,
      "duration": 0.1222,
      "velocity": 120,
      "chip": "ym2612"
    },
    {
      "channel": 1,
      "note": 62,
      "start": 61.5315,
      "duration": 0.2189,
      "velocity": 96,
      "chip": "ym2612"
    },
    {
      "channel": 2,
      "note": 77,
      "start": 61.5325,
      "duration": 0.2141,
      "velocity": 127,
      "chip": "ym2612"
    },
    {
      "channel": 0,
      "note": 90,
      "start": 61.7502,
      "duration": 0.1087,
      "velocity": 103,
      "chip": "ym2612"
    },
    {
      "channel": 1,
      "note": 50,
      "start": 61.7509,
      "duration": 0.1089,
      "velocity": 96,
      "chip": "ym2612"
    },
    {
      "channel": 3,
      "note": 86,
      "start": 61.7517,
      "duration": 0.1088,
      "velocity": 103,
      "chip": "ym2612"
    },
    {
      "channel": 5,
      "note": 90,
      "start": 61.7529,
      "duration": 0.1085,
      "velocity": 103,
      "chip": "ym2612"
    },
    {
      "channel": 2,
      "note": 37,
      "start": 61.7537,
      "duration": 0.1018,
      "velocity": 120,
      "chip": "ym2612"
    },
    {
      "channel": 0,
      "note": 90,
      "start": 61.8596,
      "duration": 0.105,
      "velocity": 103,
      "chip": "ym2612"
    },
    {
      "channel": 1,
      "note": 50,
      "start": 61.8604,
      "duration": 0.2171,
      "velocity": 96,
      "chip": "ym2612"
    },
    {
      "channel": 3,
      "note": 86,
      "start": 61.8612,
      "duration": 0.1047,
      "velocity": 103,
      "chip": "ym2612"
    },
    {
      "channel": 5,
      "note": 90,
      "start": 61.8621,
      "duration": 0.1046,
      "velocity": 103,
      "chip": "ym2612"
    },
    {
      "channel": 2,
      "note": 37,
      "start": 61.8629,
      "duration": 0.1217,
      "velocity": 120,
      "chip": "ym2612"
    },
    {
      "channel": 0,
      "note": 90,
      "start": 61.9654,
      "duration": 0.1118,
      "velocity": 103,
      "chip": "ym2612"
    },
    {
      "channel": 3,
      "note": 86,
      "start": 61.9665,
      "duration": 0.1117,
      "velocity": 103,
      "chip": "ym2612"
    },
    {
      "channel": 5,
      "note": 90,
      "start": 61.9675,
      "duration": 0.1111,
      "velocity": 103,
      "chip": "ym2612"
    },
    {
      "channel": 1,
      "note": 50,
      "start": 62.078,
      "duration": 0.217,
      "velocity": 96,
      "chip": "ym2612"
    },
    {
      "channel": 2,
      "note": 37,
      "start": 62.0795,
      "duration": 0.1226,
      "velocity": 120,
      "chip": "ym2612"
    },
    {
      "channel": 4,
      "note": 78,
      "start": 62.1844,
      "duration": 0.1115,
      "velocity": 98,
      "chip": "ym2612"
    },
    {
      "channel": 1,
      "note": 50,
      "start": 62.2956,
      "duration": 0.1084,
      "velocity": 96,
      "chip": "ym2612"
    },
    {
      "channel": 4,
      "note": 80,
      "start": 62.2967,
      "duration": 0.1081,
      "velocity": 98,
      "chip": "ym2612"
    },
    {
      "channel": 2,
      "note": 37,
      "start": 62.2976,
      "duration": 0.1036,
      "velocity": 120,
      "chip": "ym2612"
    },
    {
      "channel": 1,
      "note": 62,
      "start": 62.4045,
      "duration": 0.2178,
      "velocity": 96,
      "chip": "ym2612"
    },
    {
      "channel": 4,
      "note": 81,
      "start": 62.4057,
      "duration": 0.2173,
      "velocity": 98,
      "chip": "ym2612"
    },
    {
      "channel": 5,
      "note": 90,
      "start": 62.4066,
      "duration": 0.1046,
      "velocity": 103,
      "chip": "ym2612"
    },
    {
      "channel": 2,
      "note": 77,
      "start": 62.4077,
      "duration": 0.2117,
      "velocity": 127,
      "chip": "ym2612"
    },
    {
      "channel": 5,
      "note": 90,
      "start": 62.512,
      "duration": 0.1123,
      "velocity": 103,
      "chip": "ym2612"
    },
    {
      "channel": 1,
      "note": 50,
      "start": 62.6229,
      "duration": 0.2199,
      "velocity": 96,
      "chip": "ym2612"
    },
    {
      "channel": 4,
      "note": 80,
      "start": 62.6242,
      "duration": 0.2205,
      "velocity": 98,
      "chip": "ym2612"
    },
    {
      "channel": 5,
      "note": 90,
      "start": 62.6255,
      "duration": 0.1041,
      "velocity": 103,
      "chip": "ym2612"
    },
    {
      "channel": 2,
      "note": 37,
      "start": 62.6262,
      "duration": 0.1217,
      "velocity": 120,
      "chip": "ym2612"
    },
    {
      "channel": 0,
      "note": 92,
      "start": 62.8423,
      "duration": 0.1046,
      "velocity": 103,
      "chip": "ym2612"
    },
    {
      "channel": 1,
      "note": 52,
      "start": 62.8433,
      "duration": 0.2169,
      "velocity": 96,
      "chip": "ym2612"
    },
    {
      "channel": 3,
      "note": 88,
      "start": 62.8445,
      "duration": 0.1036,
      "velocity": 103,
      "chip": "ym2612"
    },
    {
      "channel": 2,
      "note": 37,
      "start": 62.8459,
      "duration": 0.1205,
      "velocity": 120,
      "chip": "ym2612"
    },
    {
      "channel": 0,
      "note": 92,
      "start": 62.9476,
      "duration": 0.1118,
      "velocity": 103,
      "chip": "ym2612"
    },
    {
      "channel": 3,
      "note": 88,
      "start": 62.9487,
      "duration": 0.1123,
      "velocity": 103,
      "chip": "ym2612"
    },
    {
      "channel": 0,
      "note": 92,
      "start": 63.0601,
      "duration": 0.105,
      "velocity": 103,
      "chip": "ym2612"
    },
    {
      "channel": 1,
      "note": 52,
      "start": 63.0608,
      "duration": 0.2168,
      "velocity": 96,
      "chip": "ym2612"
    },
    {
      "channel": 3,
      "note": 88,
      "start": 63.0616,
      "duration": 0.1041,
      "velocity": 103,
      "chip": "ym2612"
    },
    {
      "channel": 2,
      "note": 37,
      "start": 63.0625,
      "duration": 0.1215,
      "velocity": 120,
      "chip": "ym2612"
    },
    {
      "channel": 1,
      "note": 64,
      "start": 63.2783,
      "duration": 0.2179,
      "velocity": 96,
      "chip": "ym2612"
    },
    {
      "channel": 2,
      "note": 77,
      "start": 63.2793,
      "duration": 0.2131,
      "velocity": 127,
      "chip": "ym2612"
    },
    {
      "channel": 0,
      "note": 92,
      "start": 63.496,
      "duration": 0.1085,
      "velocity": 103,
      "chip": "ym2612"
    },
    {
      "channel": 1,
      "note": 52,
      "start": 63.4968,
      "duration": 0.1085,
      "velocity": 96,
      "chip": "ym2612"
    },
    {
      "channel": 3,
      "note": 88,
      "start": 63.4976,
      "duration": 0.1085,
      "velocity": 103,
      "chip": "ym2612"
    },
    {
      "channel": 5,
      "note": 92,
      "start": 63.4989,
      "duration": 0.108,
      "velocity": 103,
      "chip": "ym2612"
    },
    {
      "channel": 2,
      "note": 37,
      "start": 63.4996,
      "duration": 0.102,
      "velocity": 120,
      "chip": "ym2612"
    },
    {
      "channel": 0,
      "note": 92,
      "start": 63.6052,
      "duration": 0.1056,
      "velocity": 103,
      "chip": "ym2612"
    },
    {
      "channel": 1,
      "note": 52,
      "start": 63.6059,
      "duration": 0.2174,
      "velocity": 96,
      "chip": "ym2612"
    },
    {
      "channel": 3,
      "note": 88,
      "start": 63.6067,
      "duration": 0.1053,
      "velocity": 103,
      "chip": "ym2612"
    },
    {
      "channel": 5,
      "note": 92,
      "start": 63.6078,
      "duration": 0.105,
      "velocity": 103,
      "chip": "ym2612"
    },
    {
      "channel": 2,
      "note": 37,
      "start": 63.609,
      "duration": 0.1217,
      "velocity": 120,
      "chip": "ym2612"
    },
    {
      "channel": 0,
      "note": 92,
      "start": 63.7115,
      "duration": 0.1115,
      "velocity": 103,
      "chip": "ym2612"
    },
    {
      "channel": 3,
      "note": 88,
      "start": 63.7126,
      "duration": 0.1117,
      "velocity": 103,
      "chip": "ym2612"
    },
    {
      "channel": 5,
      "note": 92,
      "start": 63.7136,
      "duration": 0.1115,
      "velocity": 103,
      "chip": "ym2612"
    },
    {
      "channel": 1,
      "note": 52,
      "start": 63.8241,
      "duration": 0.2176,
      "velocity": 96,
      "chip": "ym2612"
    },
    {
      "channel": 2,
      "note": 37,
      "start": 63.826,
      "duration": 0.1224,
      "velocity": 120,
      "chip": "ym2612"
    },
    {
      "channel": 4,
      "note": 80,
      "start": 63.9305,
      "duration": 0.112,
      "velocity": 98,
      "chip": "ym2612"
    },
    {
      "channel": 1,
      "note": 52,
      "start": 64.0423,
      "duration": 0.1079,
      "velocity": 96,
      "chip": "ym2612"
    },
    {
      "channel": 4,
      "note": 81,
      "start": 64.0434,
      "duration": 0.1076,
      "velocity": 98,
      "chip": "ym2612"
    },
    {
      "channel": 2,
      "note": 37,
      "start": 64.0442,
      "duration": 0.103,
      "velocity": 120,
      "chip": "ym2612"
    },
    {
      "channel": 1,
      "note": 64,
      "start": 64.1508,
      "duration": 0.2177,
      "velocity": 96,
      "chip": "ym2612"
    },
    {
      "channel": 4,
      "note": 83,
      "start": 64.1519,
      "duration": 0.2174,
      "velocity": 98,
      "chip": "ym2612"
    },
    {
      "channel": 5,
      "note": 92,
      "start": 64.1528,
      "duration": 0.1049,
      "velocity": 103,
      "chip": "ym2612"
    },
    {
      "channel": 2,
      "note": 77,
      "start": 64.1537,
      "duration": 0.212,
      "velocity": 127,
      "chip": "ym2612"
    },
    {
      "channel": 5,
      "note": 92,
      "start": 64.2589,
      "duration": 0.1115,
      "velocity": 103,
      "chip": "ym2612"
    },
    {
      "channel": 1,
      "note": 52,
      "start": 64.369,
      "duration": 0.219,
      "velocity": 96,
      "chip": "ym2612"
    },
    {
      "channel": 4,
      "note": 81,
      "start": 64.3702,
      "duration": 0.2196,
      "velocity": 98,
      "chip": "ym2612"
    },
    {
      "channel": 5,
      "note": 92,
      "start": 64.3711,
      "duration": 0.105,
      "velocity": 103,
      "chip": "ym2612"
    },
    {
      "channel": 2,
      "note": 37,
      "start": 64.3718,
      "duration": 0.1226,
      "velocity": 120,
      "chip": "ym2612"
    },
    {
      "channel": 0,
      "note": 89,
      "start": 64.5877,
      "duration": 0.1053,
      "velocity": 103,
      "chip": "ym2612"
    },
    {
      "channel": 1,
      "note": 53,
      "start": 64.5886,
      "duration": 0.1047,
      "velocity": 96,
      "chip": "ym2612"
    },
    {
      "channel": 3,
      "note": 85,
      "start": 64.5896,
      "duration": 0.1041,
      "velocity": 103,
      "chip": "ym2612"
    },
    {
      "channel": 2,
      "note": 37,
      "start": 64.5912,
      "duration": 0.1204,
      "velocity": 120,
      "chip": "ym2612"
    },
    {
      "channel": 0,
      "note": 89,
      "start": 64.8056,
      "duration": 0.1057,
      "velocity": 103,
      "chip": "ym2612"
    },
    {
      "channel": 1,
      "note": 53,
      "start": 64.8063,
      "duration": 0.1053,
      "velocity": 96,
      "chip": "ym2612"
    },
    {
      "channel": 3,
      "note": 85,
      "start": 64.807,
      "duration": 0.1048,
      "velocity": 103,
      "chip": "ym2612"
    },
    {
      "channel": 2,
      "note": 37,
      "start": 64.8085,
      "duration": 0.1214,
      "velocity": 120,
      "chip": "ym2612"
    },
    {
      "channel": 0,
      "note": 89,
      "start": 65.0241,
      "duration": 0.1054,
      "velocity": 103,
      "chip": "ym2612"
    },
    {
      "channel": 1,
      "note": 53,
      "start": 65.0253,
      "duration": 0.1045,
      "velocity": 96,
      "chip": "ym2612"
    },
    {
      "channel": 3,
      "note": 85,
      "start": 65.026,
      "duration": 0.1041,
      "velocity": 103,
      "chip": "ym2612"
    },
    {
      "channel": 2,
      "note": 37,
      "start": 65.0269,
      "duration": 0.1212,
      "velocity": 120,
      "chip": "ym2612"
    },
    {
      "channel": 0,
      "note": 89,
      "start": 65.2428,
      "duration": 0.1078,
      "velocity": 103,
      "chip": "ym2612"
    },
    {
      "channel": 1,
      "note": 53,
      "start": 65.2435,
      "duration": 0.1079,
      "velocity": 96,
      "chip": "ym2612"
    },
    {
      "channel": 3,
      "note": 85,
      "start": 65.2443,
      "duration": 0.1078,
      "velocity": 103,
      "chip": "ym2612"
    },
    {
      "channel": 5,
      "note": 89,
      "start": 65.2454,
      "duration": 0.1075,
      "velocity": 103,
      "chip": "ym2612"
    },
    {
      "channel": 2,
      "note": 37,
      "start": 65.2461,
      "duration": 0.1016,
      "velocity": 120,
      "chip": "ym2612"
    },
    {
      "channel": 0,
      "note": 89,
      "start": 65.3513,
      "duration": 0.109,
      "velocity": 103,
      "chip": "ym2612"
    },
    {
      "channel": 1,
      "note": 53,
      "start": 65.352,
      "duration": 0.1086,
      "velocity": 96,
      "chip": "ym2612"
    },
    {
      "channel": 3,
      "note": 85,
      "start": 65.3528,
      "duration": 0.1082,
      "velocity": 103,
      "chip": "ym2612"
    },
    {
      "channel": 2,
      "note": 77,
      "start": 65.354,
      "duration": 0.0301,
      "velocity": 127,
      "chip": "ym2612"
    },
    {
      "channel": 2,
      "note": 77,
      "start": 65.3889,
      "duration": 0.068,
      "velocity": 127,
      "chip": "ym2612"
    },
    {
      "channel": 5,
      "note": 89,
      "start": 65.4621,
      "duration": 0.107,
      "velocity": 103,
      "chip": "ym2612"
    },
    {
      "channel": 2,
      "note": 77,
      "start": 65.4629,
      "duration": 0.1031,
      "velocity": 127,
      "chip": "ym2612"
    },
    {
      "channel": 2,
      "note": 77,
      "start": 65.5701,
      "duration": 0.1054,
      "velocity": 127,
      "chip": "ym2612"
    },
    {
      "channel": 5,
      "note": 89,
      "start": 65.6793,
      "duration": 0.108,
      "velocity": 103,
      "chip": "ym2612"
    },
    {
      "channel": 2,
      "note": 77,
      "start": 65.6802,
      "duration": 0.104,
      "velocity": 127,
      "chip": "ym2612"
    },
    {
      "channel": 2,
      "note": 77,
      "start": 65.7883,
      "duration": 0.1054,
      "velocity": 127,
      "chip": "ym2612"
    },
    {
      "channel": 5,
      "note": 89,
      "start": 65.8976,
      "duration": 0.1081,
      "velocity": 103,
      "chip": "ym2612"
    },
    {
      "channel": 2,
      "note": 77,
      "start": 65.8984,
      "duration": 0.1041,
      "velocity": 127,
      "chip": "ym2612"
    },
    {
      "channel": 5,
      "note": 89,
      "start": 66.0064,
      "duration": 0.1085,
      "velocity": 103,
      "chip": "ym2612"
    },
    {
      "channel": 2,
      "note": 77,
      "start": 66.0075,
      "duration": 0.1043,
      "velocity": 127,
      "chip": "ym2612"
    },
    {
      "channel": 2,
      "note": 77,
      "start": 66.1158,
      "duration": 0.105,
      "velocity": 127,
      "chip": "ym2612"
    },
    {
      "channel": 2,
      "note": 77,
      "start": 66.2253,
      "duration": 0.1049,
      "velocity": 127,
      "chip": "ym2612"
    },
    {
      "channel": 0,
      "note": 78,
      "start": 66.3339,
      "duration": 0.438,
      "velocity": 103,
      "chip": "ym2612"
    },
    {
      "channel": 1,
      "note": 54,
      "start": 66.3349,
      "duration": 0.1047,
      "velocity": 96,
      "chip": "ym2612"
    },
    {
      "channel": 2,
      "note": 37,
      "start": 66.3395,
      "duration": 0.1196,
      "velocity": 120,
      "chip": "ym2612"
    },
    {
      "channel": 1,
      "note": 54,
      "start": 66.4402,
      "duration": 0.3317,
      "velocity": 96,
      "chip": "ym2612"
    },
    {
      "channel": 2,
      "note": 37,
      "start": 66.5526,
      "duration": 0.1242,
      "velocity": 120,
      "chip": "ym2612"
    },
    {
      "channel": 4,
      "note": 90,
      "start": 66.771,
      "duration": 0.0009,
      "velocity": 96,
      "chip": "ym2612"
    }
  ]
}