{
  "track_name": "12 - Dungeon",
  "duration_sec": 34.123,
  "sample_rate": 44100,
  "note_count": 402,
  "unique_pitches": 29,
  "pitch_range": 34,
  "avg_note_duration": 0.4706,
  "reconstruction_stats": {
    "notes_reconstructed": 402,
    "keyon_events": 402,
    "keyoff_events": 397,
    "orphan_keyons": 5,
    "unique_pitches": 29,
    "pitch_range": 34,
    "avg_duration_sec": 0.4706
  },
  "metadata": {
    "source": "S\\Surging Aura\\12 - Dungeon.vgz"
  },
  "notes": [
    {
      "channel": 0,
      "note": 91,
      "start": 0.0,
      "duration": 0.0,
      "velocity": 87,
      "chip": "ym2612"
    },
    {
      "channel": 0,
      "note": 91,
      "start": 0.0,
      "duration": 0.0,
      "velocity": 87,
      "chip": "ym2612"
    },
    {
      "channel": 0,
      "note": 85,
      "start": 0.0,
      "duration": 0.0,
      "velocity": 87,
      "chip": "ym2612"
    },
    {
      "channel": 0,
      "note": 85,
      "start": 0.0,
      "duration": 0.0,
      "velocity": 87,
      "chip": "ym2612"
    },
    {
      "channel": 0,
      "note": 87,
      "start": 0.0,
      "duration": 0.0,
      "velocity": 87,
      "chip": "ym2612"
    },
    {
      "channel": 0,
      "note": 87,
      "start": 0.0,
      "duration": 0.0,
      "velocity": 87,
      "chip": "ym2612"
    },
    {
      "channel": 0,
      "note": 81,
      "start": 0.0,
      "duration": 0.0,
      "velocity": 87,
      "chip": "ym2612"
    },
    {
      "channel": 0,
      "note": 81,
      "start": 0.0,
      "duration": 0.0,
      "velocity": 87,
      "chip": "ym2612"
    },
    {
      "channel": 0,
      "note": 91,
      "start": 0.0,
      "duration": 0.0,
      "velocity": 87,
      "chip": "ym2612"
    },
    {
      "channel": 0,
      "note": 91,
      "start": 0.0,
      "duration": 0.0,
      "velocity": 87,
      "chip": "ym2612"
    },
    {
      "channel": 0,
      "note": 85,
      "start": 0.0,
      "duration": 0.0,
      "velocity": 87,
      "chip": "ym2612"
    },
    {
      "channel": 0,
      "note": 85,
      "start": 0.0,
      "duration": 0.0,
      "velocity": 87,
      "chip": "ym2612"
    },
    {
      "channel": 0,
      "note": 87,
      "start": 0.0,
      "duration": 0.0,
      "velocity": 87,
      "chip": "ym2612"
    },
    {
      "channel": 0,
      "note": 87,
      "start": 0.0,
      "duration": 0.0,
      "velocity": 87,
      "chip": "ym2612"
    },
    {
      "channel": 0,
      "note": 81,
      "start": 0.0,
      "duration": 0.0,
      "velocity": 87,
      "chip": "ym2612"
    },
    {
      "channel": 0,
      "note": 81,
      "start": 0.0,
      "duration": 0.0,
      "velocity": 87,
      "chip": "ym2612"
    },
    {
      "channel": 0,
      "note": 91,
      "start": 0.0,
      "duration": 0.0,
      "velocity": 87,
      "chip": "ym2612"
    },
    {
      "channel": 0,
      "note": 91,
      "start": 0.0,
      "duration": 0.0,
      "velocity": 87,
      "chip": "ym2612"
    },
    {
      "channel": 0,
      "note": 85,
      "start": 0.0,
      "duration": 0.0,
      "velocity": 1,
      "chip": "ym2612"
    },
    {
      "channel": 1,
      "note": 79,
      "start": 0.0,
      "duration": 0.0,
      "velocity": 87,
      "chip": "ym2612"
    },
    {
      "channel": 1,
      "note": 79,
      "start": 0.0,
      "duration": 0.0,
      "velocity": 87,
      "chip": "ym2612"
    },
    {
      "channel": 1,
      "note": 73,
      "start": 0.0,
      "duration": 0.0,
      "velocity": 87,
      "chip": "ym2612"
    },
    {
      "channel": 1,
      "note": 73,
      "start": 0.0,
      "duration": 0.0,
      "velocity": 87,
      "chip": "ym2612"
    },
    {
      "channel": 1,
      "note": 75,
      "start": 0.0,
      "duration": 0.0,
      "velocity": 87,
      "chip": "ym2612"
    },
    {
      "channel": 1,
      "note": 75,
      "start": 0.0,
      "duration": 0.0,
      "velocity": 87,
      "chip": "ym2612"
    },
    {
      "channel": 1,
      "note": 69,
      "start": 0.0,
      "duration": 0.0,
      "velocity": 87,
      "chip": "ym2612"
    },
    {
      "channel": 1,
      "note": 69,
      "start": 0.0,
      "duration": 0.0,
      "velocity": 87,
      "chip": "ym2612"
    },
    {
      "channel": 1,
      "note": 79,
      "start": 0.0,
      "duration": 0.0,
      "velocity": 87,
      "chip": "ym2612"
    },
    {
      "channel": 1,
      "note": 79,
      "start": 0.0,
      "duration": 0.0,
      "velocity": 87,
      "chip": "ym2612"
    },
    {
      "channel": 1,
      "note": 73,
      "start": 0.0,
      "duration": 0.0,
      "velocity": 87,
      "chip": "ym2612"
    },
    {
      "channel": 1,
      "note": 73,
      "start": 0.0,
      "duration": 0.0,
      "velocity": 87,
      "chip": "ym2612"
    },
    {
      "channel": 1,
      "note": 75,
      "start": 0.0,
      "duration": 0.0,
      "velocity": 87,
      "chip": "ym2612"
    },
    {
      "channel": 1,
      "note": 75,
      "start": 0.0,
      "duration": 0.0,
      "velocity": 87,
      "chip": "ym2612"
    },
    {
      "channel": 1,
      "note": 69,
      "start": 0.0,
      "duration": 0.0,
      "velocity": 87,
      "chip": "ym2612"
    },
    {
      "channel": 1,
      "note": 69,
      "start": 0.0,
      "duration": 0.0,
      "velocity": 87,
      "chip": "ym2612"
    },
    {
      "channel": 1,
      "note": 79,
      "start": 0.0,
      "duration": 0.0,
      "velocity": 87,
      "chip": "ym2612"
    },
    {
      "channel": 1,
      "note": 79,
      "start": 0.0,
      "duration": 0.0,
      "velocity": 87,
      "chip": "ym2612"
    },
    {
      "channel": 1,
      "note": 73,
      "start": 0.0,
      "duration": 0.0,
      "velocity": 1,
      "chip": "ym2612"
    },
    {
      "channel": 2,
      "note": 89,
      "start": 0.0,
      "duration": 0.0,
      "velocity": 87,
      "chip": "ym2612"
    },
    {
      "channel": 2,
      "note": 89,
      "start": 0.0,
      "duration": 0.0,
      "velocity": 87,
      "chip": "ym2612"
    },
    {
      "channel": 2,
      "note": 83,
      "start": 0.0,
      "duration": 0.0,
      "velocity": 87,
      "chip": "ym2612"
    },
    {
      "channel": 2,
      "note": 83,
      "start": 0.0,
      "duration": 0.0,
      "velocity": 87,
      "chip": "ym2612"
    },
    {
      "channel": 2,
      "note": 85,
      "start": 0.0,
      "duration": 0.0,
      "velocity": 87,
      "chip": "ym2612"
    },
    {
      "channel": 2,
      "note": 85,
      "start": 0.0,
      "duration": 0.0,
      "velocity": 87,
      "chip": "ym2612"
    },
    {
      "channel": 2,
      "note": 79,
      "start": 0.0,
      "duration": 0.0,
      "velocity": 87,
      "chip": "ym2612"
    },
    {
      "channel": 2,
      "note": 79,
      "start": 0.0,
      "duration": 0.0,
      "velocity": 87,
      "chip": "ym2612"
    },
    {
      "channel": 2,
      "note": 89,
      "start": 0.0,
      "duration": 0.0,
      "velocity": 87,
      "chip": "ym2612"
    },
    {
      "channel": 2,
      "note": 89,
      "start": 0.0,
      "duration": 0.0,
      "velocity": 87,
      "chip": "ym2612"
    },
    {
      "channel": 2,
      "note": 83,
      "start": 0.0,
      "duration": 0.0,
      "velocity": 87,
      "chip": "ym2612"
    },
    {
      "channel": 2,
      "note": 83,
      "start": 0.0,
      "duration": 0.0,
      "velocity": 87,
      "chip": "ym2612"
    },
    {
      "channel": 2,
      "note": 85,
      "start": 0.0,
      "duration": 0.0,
      "velocity": 87,
      "chip": "ym2612"
    },
    {
      "channel": 2,
      "note": 85,
      "start": 0.0,
      "duration": 0.0,
      "velocity": 87,
      "chip": "ym2612"
    },
    {
      "channel": 2,
      "note": 79,
      "start": 0.0,
      "duration": 0.0,
      "velocity": 87,
      "chip": "ym2612"
    },
    {
      "channel": 2,
      "note": 79,
      "start": 0.0,
      "duration": 0.0,
      "velocity": 87,
      "chip": "ym2612"
    },
    {
      "channel": 2,
      "note": 89,
      "start": 0.0,
      "duration": 0.0,
      "velocity": 87,
      "chip": "ym2612"
    },
    {
      "channel": 2,
      "note": 89,
      "start": 0.0,
      "duration": 0.0,
      "velocity": 87,
      "chip": "ym2612"
    },
    {
      "channel": 2,
      "note": 83,
      "start": 0.0,
      "duration": 0.0,
      "velocity": 1,
      "chip": "ym2612"
    },
    {
      "channel": 3,
      "note": 84,
      "start": 0.0,
      "duration": 0.0,
      "velocity": 101,
      "chip": "ym2612"
    },
    {
      "channel": 3,
      "note": 80,
      "start": 0.0,
      "duration": 0.0,
      "velocity": 101,
      "chip": "ym2612"
    },
    {
      "channel": 3,
      "note": 82,
      "start": 0.0,
      "duration": 0.0,
      "velocity": 101,
      "chip": "ym2612"
    },
    {
      "channel": 3,
      "note": 78,
      "start": 0.0,
      "duration": 0.0,
      "velocity": 101,
      "chip": "ym2612"
    },
    {
      "channel": 3,
      "note": 80,
      "start": 0.0,
      "duration": 0.0,
      "velocity": 101,
      "chip": "ym2612"
    },
    {
      "channel": 3,
      "note": 76,
      "start": 0.0,
      "duration": 0.0,
      "velocity": 87,
      "chip": "ym2612"
    },
    {
      "channel": 3,
      "note": 77,
      "start": 0.0,
      "duration": 0.0,
      "velocity": 87,
      "chip": "ym2612"
    },
    {
      "channel": 3,
      "note": 77,
      "start": 0.0,
      "duration": 0.0,
      "velocity": 87,
      "chip": "ym2612"
    },
    {
      "channel": 3,
      "note": 71,
      "start": 0.0,
      "duration": 0.0,
      "velocity": 87,
      "chip": "ym2612"
    },
    {
      "channel": 3,
      "note": 71,
      "start": 0.0,
      "duration": 0.0,
      "velocity": 87,
      "chip": "ym2612"
    },
    {
      "channel": 3,
      "note": 73,
      "start": 0.0,
      "duration": 0.0,
      "velocity": 87,
      "chip": "ym2612"
    },
    {
      "channel": 3,
      "note": 73,
      "start": 0.0,
      "duration": 0.0,
      "velocity": 87,
      "chip": "ym2612"
    },
    {
      "channel": 3,
      "note": 67,
      "start": 0.0,
      "duration": 0.0,
      "velocity": 87,
      "chip": "ym2612"
    },
    {
      "channel": 3,
      "note": 67,
      "start": 0.0,
      "duration": 0.0,
      "velocity": 87,
      "chip": "ym2612"
    },
    {
      "channel": 3,
      "note": 78,
      "start": 0.0,
      "duration": 0.0,
      "velocity": 87,
      "chip": "ym2612"
    },
    {
      "channel": 3,
      "note": 78,
      "start": 0.0,
      "duration": 0.0,
      "velocity": 87,
      "chip": "ym2612"
    },
    {
      "channel": 3,
      "note": 71,
      "start": 0.0,
      "duration": 0.0,
      "velocity": 87,
      "chip": "ym2612"
    },
    {
      "channel": 3,
      "note": 71,
      "start": 0.0,
      "duration": 0.0,
      "velocity": 87,
      "chip": "ym2612"
    },
    {
      "channel": 3,
      "note": 73,
      "start": 0.0,
      "duration": 0.0,
      "velocity": 87,
      "chip": "ym2612"
    },
    {
      "channel": 3,
      "note": 73,
      "start": 0.0,
      "duration": 0.0,
      "velocity": 87,
      "chip": "ym2612"
    },
    {
      "channel": 3,
      "note": 67,
      "start": 0.0,
      "duration": 0.0,
      "velocity": 87,
      "chip": "ym2612"
    },
    {
      "channel": 3,
      "note": 67,
      "start": 0.0,
      "duration": 0.0,
      "velocity": 87,
      "chip": "ym2612"
    },
    {
      "channel": 3,
      "note": 77,
      "start": 0.0,
      "duration": 0.0,
      "velocity": 87,
      "chip": "ym2612"
    },
    {
      "channel": 3,
      "note": 77,
      "start": 0.0,
      "duration": 0.0,
      "velocity": 87,
      "chip": "ym2612"
    },
    {
      "channel": 3,
      "note": 71,
      "start": 0.0,
      "duration": 0.0,
      "velocity": 1,
      "chip": "ym2612"
    },
    {
      "channel": 0,
      "note": 92,
      "start": 0.0084,
      "duration": 1.7492,
      "velocity": 92,
      "chip": "ym2612"
    },
    {
      "channel": 1,
      "note": 74,
      "start": 0.0117,
      "duration": 2.1132,
      "velocity": 101,
      "chip": "ym2612"
    },
    {
      "channel": 2,
      "note": 64,
      "start": 0.0151,
      "duration": 2.1106,
      "velocity": 101,
      "chip": "ym2612"
    },
    {
      "channel": 3,
      "note": 78,
      "start": 0.0185,
      "duration": 0.3238,
      "velocity": 101,
      "chip": "ym2612"
    },
    {
      "channel": 4,
      "note": 92,
      "start": 0.0219,
      "duration": 1.7382,
      "velocity": 92,
      "chip": "ym2612"
    },
    {
      "channel": 3,
      "note": 82,
      "start": 0.3429,
      "duration": 0.3494,
      "velocity": 101,
      "chip": "ym2612"
    },
    {
      "channel": 3,
      "note": 78,
      "start": 0.6929,
      "duration": 0.3661,
      "velocity": 101,
      "chip": "ym2612"
    },
    {
      "channel": 3,
      "note": 82,
      "start": 1.0596,
      "duration": 0.3498,
      "velocity": 101,
      "chip": "ym2612"
    },
    {
      "channel": 3,
      "note": 78,
      "start": 1.41,
      "duration": 0.3495,
      "velocity": 101,
      "chip": "ym2612"
    },
    {
      "channel": 0,
      "note": 94,
      "start": 1.7582,
      "duration": 0.1828,
      "velocity": 92,
      "chip": "ym2612"
    },
    {
      "channel": 3,
      "note": 82,
      "start": 1.76,
      "duration": 0.3668,
      "velocity": 101,
      "chip": "ym2612"
    },
    {
      "channel": 4,
      "note": 94,
      "start": 1.7607,
      "duration": 0.1819,
      "velocity": 92,
      "chip": "ym2612"
    },
    {
      "channel": 0,
      "note": 96,
      "start": 1.9415,
      "duration": 0.1828,
      "velocity": 92,
      "chip": "ym2612"
    },
    {
      "channel": 4,
      "note": 96,
      "start": 1.9432,
      "duration": 0.1844,
      "velocity": 92,
      "chip": "ym2612"
    },
    {
      "channel": 0,
      "note": 98,
      "start": 2.1249,
      "duration": 0.3494,
      "velocity": 92,
      "chip": "ym2612"
    },
    {
      "channel": 1,
      "note": 76,
      "start": 2.1256,
      "duration": 0.6994,
      "velocity": 101,
      "chip": "ym2612"
    },
    {
      "channel": 2,
      "note": 66,
      "start": 2.1263,
      "duration": 0.6994,
      "velocity": 101,
      "chip": "ym2612"
    },
    {
      "channel": 3,
      "note": 80,
      "start": 2.1275,
      "duration": 0.3487,
      "velocity": 101,
      "chip": "ym2612"
    },
    {
      "channel": 4,
      "note": 98,
      "start": 2.1282,
      "duration": 0.3487,
      "velocity": 92,
      "chip": "ym2612"
    },
    {
      "channel": 0,
      "note": 96,
      "start": 2.4749,
      "duration": 0.1828,
      "velocity": 92,
      "chip": "ym2612"
    },
    {
      "channel": 3,
      "note": 84,
      "start": 2.4767,
      "duration": 0.3502,
      "velocity": 101,
      "chip": "ym2612"
    },
    {
      "channel": 4,
      "note": 96,
      "start": 2.4774,
      "duration": 0.1819,
      "velocity": 92,
      "chip": "ym2612"
    },
    {
      "channel": 0,
      "note": 94,
      "start": 2.6582,
      "duration": 0.1658,
      "velocity": 92,
      "chip": "ym2612"
    },
    {
      "channel": 4,
      "note": 94,
      "start": 2.6598,
      "duration": 0.1678,
      "velocity": 92,
      "chip": "ym2612"
    },
    {
      "channel": 0,
      "note": 92,
      "start": 2.8249,
      "duration": 2.8495,
      "velocity": 92,
      "chip": "ym2612"
    },
    {
      "channel": 1,
      "note": 74,
      "start": 2.8256,
      "duration": 2.8496,
      "velocity": 101,
      "chip": "ym2612"
    },
    {
      "channel": 2,
      "note": 64,
      "start": 2.8263,
      "duration": 2.8498,
      "velocity": 101,
      "chip": "ym2612"
    },
    {
      "channel": 3,
      "note": 78,
      "start": 2.8275,
      "duration": 0.3649,
      "velocity": 101,
      "chip": "ym2612"
    },
    {
      "channel": 4,
      "note": 92,
      "start": 2.8282,
      "duration": 2.8495,
      "velocity": 92,
      "chip": "ym2612"
    },
    {
      "channel": 3,
      "note": 82,
      "start": 3.1929,
      "duration": 0.3494,
      "velocity": 101,
      "chip": "ym2612"
    },
    {
      "channel": 3,
      "note": 78,
      "start": 3.5429,
      "duration": 0.3498,
      "velocity": 101,
      "chip": "ym2612"
    },
    {
      "channel": 3,
      "note": 82,
      "start": 3.8933,
      "duration": 0.3657,
      "velocity": 101,
      "chip": "ym2612"
    },
    {
      "channel": 3,
      "note": 78,
      "start": 4.2596,
      "duration": 0.3494,
      "velocity": 101,
      "chip": "ym2612"
    },
    {
      "channel": 3,
      "note": 82,
      "start": 4.6096,
      "duration": 0.3494,
      "velocity": 101,
      "chip": "ym2612"
    },
    {
      "channel": 3,
      "note": 78,
      "start": 4.9596,
      "duration": 0.3661,
      "velocity": 101,
      "chip": "ym2612"
    },
    {
      "channel": 3,
      "note": 82,
      "start": 5.3263,
      "duration": 0.3506,
      "velocity": 101,
      "chip": "ym2612"
    },
    {
      "channel": 0,
      "note": 92,
      "start": 5.6749,
      "duration": 1.7827,
      "velocity": 92,
      "chip": "ym2612"
    },
    {
      "channel": 1,
      "note": 74,
      "start": 5.6757,
      "duration": 2.1326,
      "velocity": 101,
      "chip": "ym2612"
    },
    {
      "channel": 2,
      "note": 64,
      "start": 5.6766,
      "duration": 2.1324,
      "velocity": 101,
      "chip": "ym2612"
    },
    {
      "channel": 3,
      "note": 78,
      "start": 5.6775,
      "duration": 0.3482,
      "velocity": 101,
      "chip": "ym2612"
    },
    {
      "channel": 4,
      "note": 92,
      "start": 5.6783,
      "duration": 1.7819,
      "velocity": 92,
      "chip": "ym2612"
    },
    {
      "channel": 3,
      "note": 82,
      "start": 6.0263,
      "duration": 0.3661,
      "velocity": 101,
      "chip": "ym2612"
    },
    {
      "channel": 3,
      "note": 78,
      "start": 6.3929,
      "duration": 0.3494,
      "velocity": 101,
      "chip": "ym2612"
    },
    {
      "channel": 3,
      "note": 82,
      "start": 6.7429,
      "duration": 0.3498,
      "velocity": 101,
      "chip": "ym2612"
    },
    {
      "channel": 3,
      "note": 78,
      "start": 7.0933,
      "duration": 0.3661,
      "velocity": 101,
      "chip": "ym2612"
    },
    {
      "channel": 0,
      "note": 94,
      "start": 7.4582,
      "duration": 0.1661,
      "velocity": 92,
      "chip": "ym2612"
    },
    {
      "channel": 3,
      "note": 82,
      "start": 7.46,
      "duration": 0.3502,
      "velocity": 101,
      "chip": "ym2612"
    },
    {
      "channel": 4,
      "note": 94,
      "start": 7.4607,
      "duration": 0.1652,
      "velocity": 92,
      "chip": "ym2612"
    },
    {
      "channel": 0,
      "note": 96,
      "start": 7.6249,
      "duration": 0.1828,
      "velocity": 92,
      "chip": "ym2612"
    },
    {
      "channel": 4,
      "note": 96,
      "start": 7.6265,
      "duration": 0.1844,
      "velocity": 92,
      "chip": "ym2612"
    },
    {
      "channel": 0,
      "note": 98,
      "start": 7.8082,
      "duration": 0.3494,
      "velocity": 92,
      "chip": "ym2612"
    },
    {
      "channel": 1,
      "note": 76,
      "start": 7.8089,
      "duration": 0.7161,
      "velocity": 101,
      "chip": "ym2612"
    },
    {
      "channel": 2,
      "note": 66,
      "start": 7.8096,
      "duration": 0.7161,
      "velocity": 101,
      "chip": "ym2612"
    },
    {
      "channel": 3,
      "note": 80,
      "start": 7.8108,
      "duration": 0.3487,
      "velocity": 101,
      "chip": "ym2612"
    },
    {
      "channel": 4,
      "note": 98,
      "start": 7.8115,
      "duration": 0.3487,
      "velocity": 92,
      "chip": "ym2612"
    },
    {
      "channel": 0,
      "note": 96,
      "start": 8.1582,
      "duration": 0.1828,
      "velocity": 92,
      "chip": "ym2612"
    },
    {
      "channel": 3,
      "note": 84,
      "start": 8.16,
      "duration": 0.3668,
      "velocity": 101,
      "chip": "ym2612"
    },
    {
      "channel": 4,
      "note": 96,
      "start": 8.1607,
      "duration": 0.1819,
      "velocity": 92,
      "chip": "ym2612"
    },
    {
      "channel": 0,
      "note": 94,
      "start": 8.3415,
      "duration": 0.1828,
      "velocity": 92,
      "chip": "ym2612"
    },
    {
      "channel": 4,
      "note": 94,
      "start": 8.3432,
      "duration": 0.1844,
      "velocity": 92,
      "chip": "ym2612"
    },
    {
      "channel": 0,
      "note": 92,
      "start": 8.5249,
      "duration": 2.8349,
      "velocity": 97,
      "chip": "ym2612"
    },
    {
      "channel": 1,
      "note": 74,
      "start": 8.5256,
      "duration": 2.835,
      "velocity": 101,
      "chip": "ym2612"
    },
    {
      "channel": 2,
      "note": 64,
      "start": 8.5263,
      "duration": 2.8351,
      "velocity": 101,
      "chip": "ym2612"
    },
    {
      "channel": 3,
      "note": 78,
      "start": 8.5275,
      "duration": 0.3482,
      "velocity": 101,
      "chip": "ym2612"
    },
    {
      "channel": 4,
      "note": 92,
      "start": 8.5282,
      "duration": 2.8371,
      "velocity": 97,
      "chip": "ym2612"
    },
    {
      "channel": 3,
      "note": 82,
      "start": 8.8763,
      "duration": 0.3494,
      "velocity": 101,
      "chip": "ym2612"
    },
    {
      "channel": 3,
      "note": 78,
      "start": 9.2263,
      "duration": 0.3665,
      "velocity": 101,
      "chip": "ym2612"
    },
    {
      "channel": 3,
      "note": 82,
      "start": 9.5933,
      "duration": 0.349,
      "velocity": 101,
      "chip": "ym2612"
    },
    {
      "channel": 3,
      "note": 78,
      "start": 9.9429,
      "duration": 0.3494,
      "velocity": 101,
      "chip": "ym2612"
    },
    {
      "channel": 3,
      "note": 82,
      "start": 10.2929,
      "duration": 0.3661,
      "velocity": 101,
      "chip": "ym2612"
    },
    {
      "channel": 3,
      "note": 78,
      "start": 10.6596,
      "duration": 0.3494,
      "velocity": 101,
      "chip": "ym2612"
    },
    {
      "channel": 3,
      "note": 82,
      "start": 11.0096,
      "duration": 0.3527,
      "velocity": 101,
      "chip": "ym2612"
    },
    {
      "channel": 0,
      "note": 88,
      "start": 11.3604,
      "duration": 0.1806,
      "velocity": 97,
      "chip": "ym2612"
    },
    {
      "channel": 1,
      "note": 74,
      "start": 11.3611,
      "duration": 2.1305,
      "velocity": 101,
      "chip": "ym2612"
    },
    {
      "channel": 2,
      "note": 64,
      "start": 11.362,
      "duration": 2.1304,
      "velocity": 101,
      "chip": "ym2612"
    },
    {
      "channel": 3,
      "note": 78,
      "start": 11.3628,
      "duration": 0.3633,
      "velocity": 101,
      "chip": "ym2612"
    },
    {
      "channel": 4,
      "note": 88,
      "start": 11.3658,
      "duration": 0.1768,
      "velocity": 97,
      "chip": "ym2612"
    },
    {
      "channel": 0,
      "note": 86,
      "start": 11.5415,
      "duration": 0.1828,
      "velocity": 97,
      "chip": "ym2612"
    },
    {
      "channel": 4,
      "note": 86,
      "start": 11.5432,
      "duration": 0.1837,
      "velocity": 97,
      "chip": "ym2612"
    },
    {
      "channel": 0,
      "note": 84,
      "start": 11.7249,
      "duration": 0.1661,
      "velocity": 97,
      "chip": "ym2612"
    },
    {
      "channel": 3,
      "note": 82,
      "start": 11.7267,
      "duration": 0.3494,
      "velocity": 101,
      "chip": "ym2612"
    },
    {
      "channel": 4,
      "note": 84,
      "start": 11.7274,
      "duration": 0.1652,
      "velocity": 97,
      "chip": "ym2612"
    },
    {
      "channel": 0,
      "note": 82,
      "start": 11.8915,
      "duration": 0.1828,
      "velocity": 97,
      "chip": "ym2612"
    },
    {
      "channel": 4,
      "note": 82,
      "start": 11.8932,
      "duration": 0.1837,
      "velocity": 97,
      "chip": "ym2612"
    },
    {
      "channel": 0,
      "note": 80,
      "start": 12.0749,
      "duration": 1.0661,
      "velocity": 97,
      "chip": "ym2612"
    },
    {
      "channel": 3,
      "note": 78,
      "start": 12.0767,
      "duration": 0.349,
      "velocity": 101,
      "chip": "ym2612"
    },
    {
      "channel": 4,
      "note": 80,
      "start": 12.0774,
      "duration": 1.0661,
      "velocity": 97,
      "chip": "ym2612"
    },
    {
      "channel": 3,
      "note": 82,
      "start": 12.4263,
      "duration": 0.3665,
      "velocity": 101,
      "chip": "ym2612"
    },
    {
      "channel": 3,
      "note": 78,
      "start": 12.7933,
      "duration": 0.3495,
      "velocity": 101,
      "chip": "ym2612"
    },
    {
      "channel": 0,
      "note": 78,
      "start": 13.1415,
      "duration": 0.1828,
      "velocity": 97,
      "chip": "ym2612"
    },
    {
      "channel": 3,
      "note": 82,
      "start": 13.1434,
      "duration": 0.3502,
      "velocity": 101,
      "chip": "ym2612"
    },
    {
      "channel": 4,
      "note": 78,
      "start": 13.1441,
      "duration": 0.1818,
      "velocity": 97,
      "chip": "ym2612"
    },
    {
      "channel": 0,
      "note": 80,
      "start": 13.3249,
      "duration": 0.1661,
      "velocity": 97,
      "chip": "ym2612"
    },
    {
      "channel": 4,
      "note": 80,
      "start": 13.3264,
      "duration": 0.1678,
      "velocity": 97,
      "chip": "ym2612"
    },
    {
      "channel": 0,
      "note": 76,
      "start": 13.4915,
      "duration": 0.1828,
      "velocity": 97,
      "chip": "ym2612"
    },
    {
      "channel": 1,
      "note": 76,
      "start": 13.4922,
      "duration": 0.7161,
      "velocity": 101,
      "chip": "ym2612"
    },
    {
      "channel": 2,
      "note": 66,
      "start": 13.4929,
      "duration": 0.7161,
      "velocity": 101,
      "chip": "ym2612"
    },
    {
      "channel": 3,
      "note": 80,
      "start": 13.4941,
      "duration": 0.3653,
      "velocity": 101,
      "chip": "ym2612"
    },
    {
      "channel": 4,
      "note": 76,
      "start": 13.4948,
      "duration": 0.1811,
      "velocity": 97,
      "chip": "ym2612"
    },
    {
      "channel": 0,
      "note": 82,
      "start": 13.6749,
      "duration": 0.1828,
      "velocity": 97,
      "chip": "ym2612"
    },
    {
      "channel": 4,
      "note": 82,
      "start": 13.6765,
      "duration": 0.1837,
      "velocity": 97,
      "chip": "ym2612"
    },
    {
      "channel": 0,
      "note": 80,
      "start": 13.8582,
      "duration": 0.1661,
      "velocity": 97,
      "chip": "ym2612"
    },
    {
      "channel": 3,
      "note": 84,
      "start": 13.86,
      "duration": 0.3502,
      "velocity": 101,
      "chip": "ym2612"
    },
    {
      "channel": 4,
      "note": 80,
      "start": 13.8607,
      "duration": 0.1651,
      "velocity": 97,
      "chip": "ym2612"
    },
    {
      "channel": 0,
      "note": 78,
      "start": 14.0249,
      "duration": 0.1828,
      "velocity": 97,
      "chip": "ym2612"
    },
    {
      "channel": 4,
      "note": 78,
      "start": 14.0264,
      "duration": 0.1845,
      "velocity": 97,
      "chip": "ym2612"
    },
    {
      "channel": 0,
      "note": 74,
      "start": 14.2082,
      "duration": 0.1828,
      "velocity": 97,
      "chip": "ym2612"
    },
    {
      "channel": 1,
      "note": 74,
      "start": 14.2089,
      "duration": 2.8495,
      "velocity": 101,
      "chip": "ym2612"
    },
    {
      "channel": 2,
      "note": 64,
      "start": 14.2096,
      "duration": 2.8496,
      "velocity": 101,
      "chip": "ym2612"
    },
    {
      "channel": 3,
      "note": 78,
      "start": 14.2108,
      "duration": 0.3487,
      "velocity": 101,
      "chip": "ym2612"
    },
    {
      "channel": 4,
      "note": 74,
      "start": 14.2115,
      "duration": 0.181,
      "velocity": 97,
      "chip": "ym2612"
    },
    {
      "channel": 0,
      "note": 72,
      "start": 14.3915,
      "duration": 0.1661,
      "velocity": 97,
      "chip": "ym2612"
    },
    {
      "channel": 4,
      "note": 72,
      "start": 14.3931,
      "duration": 0.1671,
      "velocity": 97,
      "chip": "ym2612"
    },
    {
      "channel": 0,
      "note": 74,
      "start": 14.5582,
      "duration": 2.4994,
      "velocity": 97,
      "chip": "ym2612"
    },
    {
      "channel": 3,
      "note": 82,
      "start": 14.56,
      "duration": 0.366,
      "velocity": 101,
      "chip": "ym2612"
    },
    {
      "channel": 4,
      "note": 74,
      "start": 14.5607,
      "duration": 2.5001,
      "velocity": 97,
      "chip": "ym2612"
    },
    {
      "channel": 3,
      "note": 78,
      "start": 14.9266,
      "duration": 0.3494,
      "velocity": 101,
      "chip": "ym2612"
    },
    {
      "channel": 3,
      "note": 82,
      "start": 15.2766,
      "duration": 0.349,
      "velocity": 101,
      "chip": "ym2612"
    },
    {
      "channel": 3,
      "note": 78,
      "start": 15.6263,
      "duration": 0.3661,
      "velocity": 101,
      "chip": "ym2612"
    },
    {
      "channel": 3,
      "note": 82,
      "start": 15.9929,
      "duration": 0.3494,
      "velocity": 101,
      "chip": "ym2612"
    },
    {
      "channel": 3,
      "note": 78,
      "start": 16.3429,
      "duration": 0.3494,
      "velocity": 101,
      "chip": "ym2612"
    },
    {
      "channel": 3,
      "note": 82,
      "start": 16.6929,
      "duration": 0.3672,
      "velocity": 101,
      "chip": "ym2612"
    },
    {
      "channel": 0,
      "note": 88,
      "start": 17.0582,
      "duration": 0.1661,
      "velocity": 97,
      "chip": "ym2612"
    },
    {
      "channel": 1,
      "note": 74,
      "start": 17.059,
      "duration": 2.1327,
      "velocity": 101,
      "chip": "ym2612"
    },
    {
      "channel": 2,
      "note": 64,
      "start": 17.0598,
      "duration": 2.1326,
      "velocity": 101,
      "chip": "ym2612"
    },
    {
      "channel": 3,
      "note": 78,
      "start": 17.0607,
      "duration": 0.3488,
      "velocity": 101,
      "chip": "ym2612"
    },
    {
      "channel": 4,
      "note": 88,
      "start": 17.0614,
      "duration": 0.1646,
      "velocity": 97,
      "chip": "ym2612"
    },
    {
      "channel": 0,
      "note": 86,
      "start": 17.2249,
      "duration": 0.1828,
      "velocity": 97,
      "chip": "ym2612"
    },
    {
      "channel": 4,
      "note": 86,
      "start": 17.2265,
      "duration": 0.1837,
      "velocity": 97,
      "chip": "ym2612"
    },
    {
      "channel": 0,
      "note": 84,
      "start": 17.4082,
      "duration": 0.1828,
      "velocity": 97,
      "chip": "ym2612"
    },
    {
      "channel": 3,
      "note": 82,
      "start": 17.41,
      "duration": 0.3494,
      "velocity": 101,
      "chip": "ym2612"
    },
    {
      "channel": 4,
      "note": 84,
      "start": 17.4107,
      "duration": 0.1819,
      "velocity": 97,
      "chip": "ym2612"
    },
    {
      "channel": 0,
      "note": 82,
      "start": 17.5915,
      "duration": 0.1661,
      "velocity": 97,
      "chip": "ym2612"
    },
    {
      "channel": 4,
      "note": 82,
      "start": 17.5932,
      "duration": 0.167,
      "velocity": 97,
      "chip": "ym2612"
    },
    {
      "channel": 0,
      "note": 80,
      "start": 17.7582,
      "duration": 1.0661,
      "velocity": 97,
      "chip": "ym2612"
    },
    {
      "channel": 3,
      "note": 78,
      "start": 17.76,
      "duration": 0.3656,
      "velocity": 101,
      "chip": "ym2612"
    },
    {
      "channel": 4,
      "note": 80,
      "start": 17.7607,
      "duration": 1.0661,
      "velocity": 97,
      "chip": "ym2612"
    },
    {
      "channel": 3,
      "note": 82,
      "start": 18.1263,
      "duration": 0.3498,
      "velocity": 101,
      "chip": "ym2612"
    },
    {
      "channel": 3,
      "note": 78,
      "start": 18.4766,
      "duration": 0.3495,
      "velocity": 101,
      "chip": "ym2612"
    },
    {
      "channel": 0,
      "note": 78,
      "start": 18.8249,
      "duration": 0.1828,
      "velocity": 97,
      "chip": "ym2612"
    },
    {
      "channel": 3,
      "note": 82,
      "start": 18.8267,
      "duration": 0.3668,
      "velocity": 101,
      "chip": "ym2612"
    },
    {
      "channel": 4,
      "note": 78,
      "start": 18.8274,
      "duration": 0.1818,
      "velocity": 97,
      "chip": "ym2612"
    },
    {
      "channel": 0,
      "note": 80,
      "start": 19.0082,
      "duration": 0.1828,
      "velocity": 97,
      "chip": "ym2612"
    },
    {
      "channel": 4,
      "note": 80,
      "start": 19.0098,
      "duration": 0.1845,
      "velocity": 97,
      "chip": "ym2612"
    },
    {
      "channel": 0,
      "note": 76,
      "start": 19.1915,
      "duration": 0.1661,
      "velocity": 97,
      "chip": "ym2612"
    },
    {
      "channel": 1,
      "note": 76,
      "start": 19.1922,
      "duration": 0.6994,
      "velocity": 101,
      "chip": "ym2612"
    },
    {
      "channel": 2,
      "note": 66,
      "start": 19.1929,
      "duration": 0.6994,
      "velocity": 101,
      "chip": "ym2612"
    },
    {
      "channel": 3,
      "note": 80,
      "start": 19.1941,
      "duration": 0.3486,
      "velocity": 101,
      "chip": "ym2612"
    },
    {
      "channel": 4,
      "note": 76,
      "start": 19.1948,
      "duration": 0.1644,
      "velocity": 97,
      "chip": "ym2612"
    },
    {
      "channel": 0,
      "note": 82,
      "start": 19.3582,
      "duration": 0.1828,
      "velocity": 97,
      "chip": "ym2612"
    },
    {
      "channel": 4,
      "note": 82,
      "start": 19.3598,
      "duration": 0.1837,
      "velocity": 97,
      "chip": "ym2612"
    },
    {
      "channel": 0,
      "note": 80,
      "start": 19.5415,
      "duration": 0.1828,
      "velocity": 97,
      "chip": "ym2612"
    },
    {
      "channel": 3,
      "note": 84,
      "start": 19.5433,
      "duration": 0.3502,
      "velocity": 101,
      "chip": "ym2612"
    },
    {
      "channel": 4,
      "note": 80,
      "start": 19.5441,
      "duration": 0.1819,
      "velocity": 97,
      "chip": "ym2612"
    },
    {
      "channel": 0,
      "note": 84,
      "start": 19.7249,
      "duration": 0.1661,
      "velocity": 97,
      "chip": "ym2612"
    },
    {
      "channel": 4,
      "note": 84,
      "start": 19.7265,
      "duration": 0.1678,
      "velocity": 97,
      "chip": "ym2612"
    },
    {
      "channel": 0,
      "note": 86,
      "start": 19.8915,
      "duration": 2.8515,
      "velocity": 87,
      "chip": "ym2612"
    },
    {
      "channel": 1,
      "note": 78,
      "start": 19.8922,
      "duration": 2.8536,
      "velocity": 87,
      "chip": "ym2612"
    },
    {
      "channel": 2,
      "note": 68,
      "start": 19.8929,
      "duration": 2.8554,
      "velocity": 87,
      "chip": "ym2612"
    },
    {
      "channel": 3,
      "note": 86,
      "start": 19.8941,
      "duration": 0.3649,
      "velocity": 101,
      "chip": "ym2612"
    },
    {
      "channel": 4,
      "note": 86,
      "start": 19.8948,
      "duration": 2.8569,
      "velocity": 97,
      "chip": "ym2612"
    },
    {
      "channel": 3,
      "note": 82,
      "start": 20.2596,
      "duration": 0.3494,
      "velocity": 101,
      "chip": "ym2612"
    },
    {
      "channel": 3,
      "note": 84,
      "start": 20.6096,
      "duration": 0.3494,
      "velocity": 101,
      "chip": "ym2612"
    },
    {
      "channel": 3,
      "note": 80,
      "start": 20.9596,
      "duration": 0.3661,
      "velocity": 101,
      "chip": "ym2612"
    },
    {
      "channel": 3,
      "note": 82,
      "start": 21.3263,
      "duration": 0.3494,
      "velocity": 101,
      "chip": "ym2612"
    },
    {
      "channel": 3,
      "note": 78,
      "start": 21.6763,
      "duration": 0.3494,
      "velocity": 101,
      "chip": "ym2612"
    },
    {
      "channel": 3,
      "note": 80,
      "start": 22.0263,
      "duration": 0.3661,
      "velocity": 101,
      "chip": "ym2612"
    },
    {
      "channel": 3,
      "note": 76,
      "start": 22.3929,
      "duration": 0.3585,
      "velocity": 87,
      "chip": "ym2612"
    },
    {
      "channel": 0,
      "note": 91,
      "start": 22.7436,
      "duration": 0.1807,
      "velocity": 87,
      "chip": "ym2612"
    },
    {
      "channel": 2,
      "note": 89,
      "start": 22.7488,
      "duration": 0.1765,
      "velocity": 87,
      "chip": "ym2612"
    },
    {
      "channel": 1,
      "note": 79,
      "start": 22.8256,
      "duration": 0.1823,
      "velocity": 87,
      "chip": "ym2612"
    },
    {
      "channel": 3,
      "note": 77,
      "start": 22.8271,
      "duration": 0.1817,
      "velocity": 87,
      "chip": "ym2612"
    },
    {
      "channel": 0,
      "note": 91,
      "start": 22.9249,
      "duration": 0.1661,
      "velocity": 87,
      "chip": "ym2612"
    },
    {
      "channel": 2,
      "note": 89,
      "start": 22.9259,
      "duration": 0.1661,
      "velocity": 87,
      "chip": "ym2612"
    },
    {
      "channel": 1,
      "note": 79,
      "start": 23.0084,
      "duration": 0.1828,
      "velocity": 87,
      "chip": "ym2612"
    },
    {
      "channel": 3,
      "note": 77,
      "start": 23.0095,
      "duration": 0.1828,
      "velocity": 87,
      "chip": "ym2612"
    },
    {
      "channel": 0,
      "note": 85,
      "start": 23.0915,
      "duration": 0.1828,
      "velocity": 87,
      "chip": "ym2612"
    },
    {
      "channel": 2,
      "note": 83,
      "start": 23.0925,
      "duration": 0.1828,
      "velocity": 87,
      "chip": "ym2612"
    },
    {
      "channel": 1,
      "note": 73,
      "start": 23.1918,
      "duration": 0.1662,
      "velocity": 87,
      "chip": "ym2612"
    },
    {
      "channel": 3,
      "note": 71,
      "start": 23.1928,
      "duration": 0.1661,
      "velocity": 87,
      "chip": "ym2612"
    },
    {
      "channel": 0,
      "note": 85,
      "start": 23.2749,
      "duration": 0.1828,
      "velocity": 87,
      "chip": "ym2612"
    },
    {
      "channel": 2,
      "note": 83,
      "start": 23.2759,
      "duration": 0.1823,
      "velocity": 87,
      "chip": "ym2612"
    },
    {
      "channel": 1,
      "note": 73,
      "start": 23.3584,
      "duration": 0.1826,
      "velocity": 87,
      "chip": "ym2612"
    },
    {
      "channel": 3,
      "note": 71,
      "start": 23.3595,
      "duration": 0.182,
      "velocity": 87,
      "chip": "ym2612"
    },
    {
      "channel": 0,
      "note": 87,
      "start": 23.8082,
      "duration": 0.1828,
      "velocity": 87,
      "chip": "ym2612"
    },
    {
      "channel": 2,
      "note": 85,
      "start": 23.809,
      "duration": 0.183,
      "velocity": 87,
      "chip": "ym2612"
    },
    {
      "channel": 1,
      "note": 75,
      "start": 23.8918,
      "duration": 0.1828,
      "velocity": 87,
      "chip": "ym2612"
    },
    {
      "channel": 3,
      "note": 73,
      "start": 23.8929,
      "duration": 0.1827,
      "velocity": 87,
      "chip": "ym2612"
    },
    {
      "channel": 0,
      "note": 87,
      "start": 23.9915,
      "duration": 0.1661,
      "velocity": 87,
      "chip": "ym2612"
    },
    {
      "channel": 2,
      "note": 85,
      "start": 23.9925,
      "duration": 0.1661,
      "velocity": 87,
      "chip": "ym2612"
    },
    {
      "channel": 1,
      "note": 75,
      "start": 24.0751,
      "duration": 0.1828,
      "velocity": 87,
      "chip": "ym2612"
    },
    {
      "channel": 3,
      "note": 73,
      "start": 24.0761,
      "duration": 0.1828,
      "velocity": 87,
      "chip": "ym2612"
    },
    {
      "channel": 0,
      "note": 81,
      "start": 24.1582,
      "duration": 0.1828,
      "velocity": 87,
      "chip": "ym2612"
    },
    {
      "channel": 2,
      "note": 79,
      "start": 24.1592,
      "duration": 0.1828,
      "velocity": 87,
      "chip": "ym2612"
    },
    {
      "channel": 1,
      "note": 69,
      "start": 24.2584,
      "duration": 0.1662,
      "velocity": 87,
      "chip": "ym2612"
    },
    {
      "channel": 3,
      "note": 67,
      "start": 24.2595,
      "duration": 0.1661,
      "velocity": 87,
      "chip": "ym2612"
    },
    {
      "channel": 0,
      "note": 81,
      "start": 24.3415,
      "duration": 0.1828,
      "velocity": 87,
      "chip": "ym2612"
    },
    {
      "channel": 2,
      "note": 79,
      "start": 24.3425,
      "duration": 0.1823,
      "velocity": 87,
      "chip": "ym2612"
    },
    {
      "channel": 1,
      "note": 69,
      "start": 24.4251,
      "duration": 0.1826,
      "velocity": 87,
      "chip": "ym2612"
    },
    {
      "channel": 3,
      "note": 67,
      "start": 24.4261,
      "duration": 0.182,
      "velocity": 87,
      "chip": "ym2612"
    },
    {
      "channel": 0,
      "note": 91,
      "start": 24.8749,
      "duration": 0.1828,
      "velocity": 87,
      "chip": "ym2612"
    },
    {
      "channel": 2,
      "note": 89,
      "start": 24.8756,
      "duration": 0.183,
      "velocity": 87,
      "chip": "ym2612"
    },
    {
      "channel": 1,
      "note": 79,
      "start": 24.9585,
      "duration": 0.1828,
      "velocity": 87,
      "chip": "ym2612"
    },
    {
      "channel": 3,
      "note": 78,
      "start": 24.9595,
      "duration": 0.1827,
      "velocity": 87,
      "chip": "ym2612"
    },
    {
      "channel": 0,
      "note": 91,
      "start": 25.0582,
      "duration": 0.1661,
      "velocity": 87,
      "chip": "ym2612"
    },
    {
      "channel": 2,
      "note": 89,
      "start": 25.0592,
      "duration": 0.1661,
      "velocity": 87,
      "chip": "ym2612"
    },
    {
      "channel": 1,
      "note": 79,
      "start": 25.1418,
      "duration": 0.1828,
      "velocity": 87,
      "chip": "ym2612"
    },
    {
      "channel": 3,
      "note": 78,
      "start": 25.1428,
      "duration": 0.1828,
      "velocity": 87,
      "chip": "ym2612"
    },
    {
      "channel": 0,
      "note": 85,
      "start": 25.2249,
      "duration": 0.1828,
      "velocity": 87,
      "chip": "ym2612"
    },
    {
      "channel": 2,
      "note": 83,
      "start": 25.2259,
      "duration": 0.1828,
      "velocity": 87,
      "chip": "ym2612"
    },
    {
      "channel": 1,
      "note": 73,
      "start": 25.3251,
      "duration": 0.1662,
      "velocity": 87,
      "chip": "ym2612"
    },
    {
      "channel": 3,
      "note": 71,
      "start": 25.3261,
      "duration": 0.1661,
      "velocity": 87,
      "chip": "ym2612"
    },
    {
      "channel": 0,
      "note": 85,
      "start": 25.4082,
      "duration": 0.1828,
      "velocity": 87,
      "chip": "ym2612"
    },
    {
      "channel": 2,
      "note": 83,
      "start": 25.4092,
      "duration": 0.1823,
      "velocity": 87,
      "chip": "ym2612"
    },
    {
      "channel": 1,
      "note": 73,
      "start": 25.4918,
      "duration": 0.1826,
      "velocity": 87,
      "chip": "ym2612"
    },
    {
      "channel": 3,
      "note": 71,
      "start": 25.4928,
      "duration": 0.182,
      "velocity": 87,
      "chip": "ym2612"
    },
    {
      "channel": 0,
      "note": 87,
      "start": 25.9415,
      "duration": 0.1828,
      "velocity": 87,
      "chip": "ym2612"
    },
    {
      "channel": 2,
      "note": 85,
      "start": 25.9423,
      "duration": 0.183,
      "velocity": 87,
      "chip": "ym2612"
    },
    {
      "channel": 1,
      "note": 75,
      "start": 26.0252,
      "duration": 0.1828,
      "velocity": 87,
      "chip": "ym2612"
    },
    {
      "channel": 3,
      "note": 73,
      "start": 26.0262,
      "duration": 0.1827,
      "velocity": 87,
      "chip": "ym2612"
    },
    {
      "channel": 0,
      "note": 87,
      "start": 26.1249,
      "duration": 0.1661,
      "velocity": 87,
      "chip": "ym2612"
    },
    {
      "channel": 2,
      "note": 85,
      "start": 26.1259,
      "duration": 0.1661,
      "velocity": 87,
      "chip": "ym2612"
    },
    {
      "channel": 1,
      "note": 75,
      "start": 26.2084,
      "duration": 0.1828,
      "velocity": 87,
      "chip": "ym2612"
    },
    {
      "channel": 3,
      "note": 73,
      "start": 26.2095,
      "duration": 0.1828,
      "velocity": 87,
      "chip": "ym2612"
    },
    {
      "channel": 0,
      "note": 81,
      "start": 26.2915,
      "duration": 0.1828,
      "velocity": 87,
      "chip": "ym2612"
    },
    {
      "channel": 2,
      "note": 79,
      "start": 26.2925,
      "duration": 0.1828,
      "velocity": 87,
      "chip": "ym2612"
    },
    {
      "channel": 1,
      "note": 69,
      "start": 26.3918,
      "duration": 0.1662,
      "velocity": 87,
      "chip": "ym2612"
    },
    {
      "channel": 3,
      "note": 67,
      "start": 26.3928,
      "duration": 0.1661,
      "velocity": 87,
      "chip": "ym2612"
    },
    {
      "channel": 0,
      "note": 81,
      "start": 26.4749,
      "duration": 0.1828,
      "velocity": 87,
      "chip": "ym2612"
    },
    {
      "channel": 2,
      "note": 79,
      "start": 26.4759,
      "duration": 0.1823,
      "velocity": 87,
      "chip": "ym2612"
    },
    {
      "channel": 1,
      "note": 69,
      "start": 26.5584,
      "duration": 0.1826,
      "velocity": 87,
      "chip": "ym2612"
    },
    {
      "channel": 3,
      "note": 67,
      "start": 26.5595,
      "duration": 0.182,
      "velocity": 87,
      "chip": "ym2612"
    },
    {
      "channel": 0,
      "note": 91,
      "start": 27.0082,
      "duration": 0.1828,
      "velocity": 87,
      "chip": "ym2612"
    },
    {
      "channel": 2,
      "note": 89,
      "start": 27.009,
      "duration": 0.183,
      "velocity": 87,
      "chip": "ym2612"
    },
    {
      "channel": 1,
      "note": 79,
      "start": 27.0918,
      "duration": 0.1828,
      "velocity": 87,
      "chip": "ym2612"
    },
    {
      "channel": 3,
      "note": 77,
      "start": 27.0929,
      "duration": 0.1827,
      "velocity": 87,
      "chip": "ym2612"
    },
    {
      "channel": 0,
      "note": 91,
      "start": 27.1915,
      "duration": 0.1661,
      "velocity": 87,
      "chip": "ym2612"
    },
    {
      "channel": 2,
      "note": 89,
      "start": 27.1925,
      "duration": 0.1661,
      "velocity": 87,
      "chip": "ym2612"
    },
    {
      "channel": 1,
      "note": 79,
      "start": 27.2751,
      "duration": 0.1828,
      "velocity": 87,
      "chip": "ym2612"
    },
    {
      "channel": 3,
      "note": 77,
      "start": 27.2761,
      "duration": 0.1828,
      "velocity": 87,
      "chip": "ym2612"
    },
    {
      "channel": 0,
      "note": 85,
      "start": 27.3582,
      "duration": 0.1828,
      "velocity": 87,
      "chip": "ym2612"
    },
    {
      "channel": 2,
      "note": 83,
      "start": 27.3592,
      "duration": 0.1828,
      "velocity": 87,
      "chip": "ym2612"
    },
    {
      "channel": 1,
      "note": 73,
      "start": 27.4584,
      "duration": 0.1662,
      "velocity": 87,
      "chip": "ym2612"
    },
    {
      "channel": 3,
      "note": 71,
      "start": 27.4595,
      "duration": 0.1661,
      "velocity": 87,
      "chip": "ym2612"
    },
    {
      "channel": 0,
      "note": 85,
      "start": 27.5415,
      "duration": 0.1828,
      "velocity": 87,
      "chip": "ym2612"
    },
    {
      "channel": 2,
      "note": 83,
      "start": 27.5425,
      "duration": 0.1823,
      "velocity": 87,
      "chip": "ym2612"
    },
    {
      "channel": 1,
      "note": 73,
      "start": 27.6251,
      "duration": 0.1826,
      "velocity": 87,
      "chip": "ym2612"
    },
    {
      "channel": 3,
      "note": 71,
      "start": 27.6261,
      "duration": 0.182,
      "velocity": 87,
      "chip": "ym2612"
    },
    {
      "channel": 0,
      "note": 86,
      "start": 28.0749,
      "duration": 0.1828,
      "velocity": 87,
      "chip": "ym2612"
    },
    {
      "channel": 2,
      "note": 85,
      "start": 28.0756,
      "duration": 0.183,
      "velocity": 87,
      "chip": "ym2612"
    },
    {
      "channel": 1,
      "note": 75,
      "start": 28.1585,
      "duration": 0.1828,
      "velocity": 87,
      "chip": "ym2612"
    },
    {
      "channel": 3,
      "note": 73,
      "start": 28.1595,
      "duration": 0.1827,
      "velocity": 87,
      "chip": "ym2612"
    },
    {
      "channel": 0,
      "note": 86,
      "start": 28.2582,
      "duration": 0.1661,
      "velocity": 87,
      "chip": "ym2612"
    },
    {
      "channel": 2,
      "note": 85,
      "start": 28.2592,
      "duration": 0.1661,
      "velocity": 87,
      "chip": "ym2612"
    },
    {
      "channel": 1,
      "note": 75,
      "start": 28.3418,
      "duration": 0.1828,
      "velocity": 87,
      "chip": "ym2612"
    },
    {
      "channel": 3,
      "note": 73,
      "start": 28.3428,
      "duration": 0.1828,
      "velocity": 87,
      "chip": "ym2612"
    },
    {
      "channel": 0,
      "note": 81,
      "start": 28.4249,
      "duration": 0.1828,
      "velocity": 87,
      "chip": "ym2612"
    },
    {
      "channel": 2,
      "note": 79,
      "start": 28.4259,
      "duration": 0.1828,
      "velocity": 87,
      "chip": "ym2612"
    },
    {
      "channel": 1,
      "note": 69,
      "start": 28.5251,
      "duration": 0.1662,
      "velocity": 87,
      "chip": "ym2612"
    },
    {
      "channel": 3,
      "note": 67,
      "start": 28.5261,
      "duration": 0.1661,
      "velocity": 87,
      "chip": "ym2612"
    },
    {
      "channel": 0,
      "note": 81,
      "start": 28.6082,
      "duration": 0.1828,
      "velocity": 87,
      "chip": "ym2612"
    },
    {
      "channel": 2,
      "note": 79,
      "start": 28.6092,
      "duration": 0.1823,
      "velocity": 87,
      "chip": "ym2612"
    },
    {
      "channel": 1,
      "note": 69,
      "start": 28.6918,
      "duration": 0.1826,
      "velocity": 87,
      "chip": "ym2612"
    },
    {
      "channel": 3,
      "note": 67,
      "start": 28.6928,
      "duration": 0.182,
      "velocity": 87,
      "chip": "ym2612"
    },
    {
      "channel": 0,
      "note": 91,
      "start": 29.1415,
      "duration": 0.1828,
      "velocity": 87,
      "chip": "ym2612"
    },
    {
      "channel": 2,
      "note": 89,
      "start": 29.1423,
      "duration": 0.183,
      "velocity": 87,
      "chip": "ym2612"
    },
    {
      "channel": 1,
      "note": 79,
      "start": 29.2252,
      "duration": 0.1828,
      "velocity": 87,
      "chip": "ym2612"
    },
    {
      "channel": 3,
      "note": 75,
      "start": 29.2262,
      "duration": 0.1827,
      "velocity": 87,
      "chip": "ym2612"
    },
    {
      "channel": 0,
      "note": 91,
      "start": 29.3249,
      "duration": 0.1661,
      "velocity": 87,
      "chip": "ym2612"
    },
    {
      "channel": 2,
      "note": 89,
      "start": 29.3259,
      "duration": 0.1661,
      "velocity": 87,
      "chip": "ym2612"
    },
    {
      "channel": 1,
      "note": 79,
      "start": 29.4084,
      "duration": 0.1828,
      "velocity": 87,
      "chip": "ym2612"
    },
    {
      "channel": 3,
      "note": 75,
      "start": 29.4095,
      "duration": 0.1828,
      "velocity": 87,
      "chip": "ym2612"
    },
    {
      "channel": 0,
      "note": 85,
      "start": 29.4915,
      "duration": 0.1828,
      "velocity": 87,
      "chip": "ym2612"
    },
    {
      "channel": 2,
      "note": 83,
      "start": 29.4925,
      "duration": 0.1828,
      "velocity": 87,
      "chip": "ym2612"
    },
    {
      "channel": 1,
      "note": 73,
      "start": 29.5918,
      "duration": 0.1662,
      "velocity": 87,
      "chip": "ym2612"
    },
    {
      "channel": 3,
      "note": 71,
      "start": 29.5928,
      "duration": 0.1661,
      "velocity": 87,
      "chip": "ym2612"
    },
    {
      "channel": 0,
      "note": 85,
      "start": 29.6749,
      "duration": 0.1828,
      "velocity": 87,
      "chip": "ym2612"
    },
    {
      "channel": 2,
      "note": 83,
      "start": 29.6759,
      "duration": 0.1823,
      "velocity": 87,
      "chip": "ym2612"
    },
    {
      "channel": 1,
      "note": 73,
      "start": 29.7584,
      "duration": 0.1826,
      "velocity": 87,
      "chip": "ym2612"
    },
    {
      "channel": 3,
      "note": 71,
      "start": 29.7595,
      "duration": 0.182,
      "velocity": 87,
      "chip": "ym2612"
    },
    {
      "channel": 0,
      "note": 87,
      "start": 30.2082,
      "duration": 0.1828,
      "velocity": 87,
      "chip": "ym2612"
    },
    {
      "channel": 2,
      "note": 85,
      "start": 30.209,
      "duration": 0.183,
      "velocity": 87,
      "chip": "ym2612"
    },
    {
      "channel": 1,
      "note": 75,
      "start": 30.2918,
      "duration": 0.1828,
      "velocity": 87,
      "chip": "ym2612"
    },
    {
      "channel": 3,
      "note": 73,
      "start": 30.2929,
      "duration": 0.1827,
      "velocity": 87,
      "chip": "ym2612"
    },
    {
      "channel": 0,
      "note": 87,
      "start": 30.3915,
      "duration": 0.1661,
      "velocity": 87,
      "chip": "ym2612"
    },
    {
      "channel": 2,
      "note": 85,
      "start": 30.3925,
      "duration": 0.1661,
      "velocity": 87,
      "chip": "ym2612"
    },
    {
      "channel": 1,
      "note": 75,
      "start": 30.4751,
      "duration": 0.1828,
      "velocity": 87,
      "chip": "ym2612"
    },
    {
      "channel": 3,
      "note": 73,
      "start": 30.4761,
      "duration": 0.1828,
      "velocity": 87,
      "chip": "ym2612"
    },
    {
      "channel": 0,
      "note": 81,
      "start": 30.5582,
      "duration": 0.1828,
      "velocity": 87,
      "chip": "ym2612"
    },
    {
      "channel": 2,
      "note": 79,
      "start": 30.5592,
      "duration": 0.1828,
      "velocity": 87,
      "chip": "ym2612"
    },
    {
      "channel": 1,
      "note": 69,
      "start": 30.6584,
      "duration": 0.1662,
      "velocity": 87,
      "chip": "ym2612"
    },
    {
      "channel": 3,
      "note": 67,
      "start": 30.6595,
      "duration": 0.1661,
      "velocity": 87,
      "chip": "ym2612"
    },
    {
      "channel": 0,
      "note": 81,
      "start": 30.7415,
      "duration": 0.1828,
      "velocity": 87,
      "chip": "ym2612"
    },
    {
      "channel": 2,
      "note": 79,
      "start": 30.7425,
      "duration": 0.1823,
      "velocity": 87,
      "chip": "ym2612"
    },
    {
      "channel": 1,
      "note": 69,
      "start": 30.8251,
      "duration": 0.1826,
      "velocity": 87,
      "chip": "ym2612"
    },
    {
      "channel": 3,
      "note": 67,
      "start": 30.8261,
      "duration": 0.182,
      "velocity": 87,
      "chip": "ym2612"
    },
    {
      "channel": 0,
      "note": 92,
      "start": 31.2771,
      "duration": 1.7805,
      "velocity": 92,
      "chip": "ym2612"
    },
    {
      "channel": 1,
      "note": 74,
      "start": 31.2804,
      "duration": 2.1279,
      "velocity": 101,
      "chip": "ym2612"
    },
    {
      "channel": 2,
      "note": 64,
      "start": 31.2834,
      "duration": 2.1256,
      "velocity": 101,
      "chip": "ym2612"
    },
    {
      "channel": 3,
      "note": 78,
      "start": 31.2869,
      "duration": 0.3388,
      "velocity": 101,
      "chip": "ym2612"
    },
    {
      "channel": 4,
      "note": 92,
      "start": 31.29,
      "duration": 1.7702,
      "velocity": 92,
      "chip": "ym2612"
    },
    {
      "channel": 3,
      "note": 82,
      "start": 31.6263,
      "duration": 0.3661,
      "velocity": 101,
      "chip": "ym2612"
    },
    {
      "channel": 3,
      "note": 78,
      "start": 31.9929,
      "duration": 0.3494,
      "velocity": 101,
      "chip": "ym2612"
    },
    {
      "channel": 3,
      "note": 82,
      "start": 32.3429,
      "duration": 0.3498,
      "velocity": 101,
      "chip": "ym2612"
    },
    {
      "channel": 3,
      "note": 78,
      "start": 32.6933,
      "duration": 0.3661,
      "velocity": 101,
      "chip": "ym2612"
    },
    {
      "channel": 0,
      "note": 94,
      "start": 33.0582,
      "duration": 0.1661,
      "velocity": 92,
      "chip": "ym2612"
    },
    {
      "channel": 3,
      "note": 82,
      "start": 33.06,
      "duration": 0.3502,
      "velocity": 101,
      "chip": "ym2612"
    },
    {
      "channel": 4,
      "note": 94,
      "start": 33.0607,
      "duration": 0.1652,
      "velocity": 92,
      "chip": "ym2612"
    },
    {
      "channel": 0,
      "note": 96,
      "start": 33.2249,
      "duration": 0.1828,
      "velocity": 92,
      "chip": "ym2612"
    },
    {
      "channel": 4,
      "note": 96,
      "start": 33.2265,
      "duration": 0.1844,
      "velocity": 92,
      "chip": "ym2612"
    },
    {
      "channel": 0,
      "note": 98,
      "start": 33.4082,
      "duration": 0.3494,
      "velocity": 92,
      "chip": "ym2612"
    },
    {
      "channel": 1,
      "note": 76,
      "start": 33.4089,
      "duration": 0.7141,
      "velocity": 101,
      "chip": "ym2612"
    },
    {
      "channel": 2,
      "note": 66,
      "start": 33.4096,
      "duration": 0.7134,
      "velocity": 101,
      "chip": "ym2612"
    },
    {
      "channel": 3,
      "note": 80,
      "start": 33.4108,
      "duration": 0.3487,
      "velocity": 101,
      "chip": "ym2612"
    },
    {
      "channel": 4,
      "note": 98,
      "start": 33.4115,
      "duration": 0.3487,
      "velocity": 92,
      "chip": "ym2612"
    },
    {
      "channel": 0,
      "note": 96,
      "start": 33.7582,
      "duration": 0.1828,
      "velocity": 92,
      "chip": "ym2612"
    },
    {
      "channel": 3,
      "note": 84,
      "start": 33.76,
      "duration": 0.363,
      "velocity": 101,
      "chip": "ym2612"
    },
    {
      "channel": 4,
      "note": 96,
      "start": 33.7607,
      "duration": 0.1819,
      "velocity": 92,
      "chip": "ym2612"
    },
    {
      "channel": 0,
      "note": 94,
      "start": 33.9415,
      "duration": 0.1815,
      "velocity": 92,
      "chip": "ym2612"
    },
    {
      "channel": 4,
      "note": 94,
      "start": 33.9432,
      "duration": 0.1799,
      "velocity": 92,
      "chip": "ym2612"
    }
  ]
}