{
  "track_name": "12 - Jungle Pink (Clip 1)",
  "duration_sec": 62.787,
  "sample_rate": 44100,
  "note_count": 1600,
  "unique_pitches": 38,
  "pitch_range": 38,
  "avg_note_duration": 0.1201,
  "reconstruction_stats": {
    "notes_reconstructed": 1600,
    "keyon_events": 1600,
    "keyoff_events": 1600,
    "orphan_keyons": 0,
    "unique_pitches": 38,
    "pitch_range": 38,
    "avg_duration_sec": 0.1201
  },
  "metadata": {
    "source": "P\\Pink Goes to Hollywood\\12 - Jungle Pink (Clip 1).vgm"
  },
  "notes": [
    {
      "channel": 0,
      "note": 59,
      "start": 0.0012,
      "duration": 0.2366,
      "velocity": 96,
      "chip": "ym2612"
    },
    {
      "channel": 2,
      "note": 82,
      "start": 0.0059,
      "duration": 0.0822,
      "velocity": 85,
      "chip": "ym2612"
    },
    {
      "channel": 1,
      "note": 66,
      "start": 0.0108,
      "duration": 0.0771,
      "velocity": 127,
      "chip": "ym2612"
    },
    {
      "channel": 5,
      "note": 76,
      "start": 0.1413,
      "duration": 0.0802,
      "velocity": 101,
      "chip": "ym2612"
    },
    {
      "channel": 3,
      "note": 69,
      "start": 0.1442,
      "duration": 0.0772,
      "velocity": 101,
      "chip": "ym2612"
    },
    {
      "channel": 1,
      "note": 73,
      "start": 0.1471,
      "duration": 0.091,
      "velocity": 127,
      "chip": "ym2612"
    },
    {
      "channel": 3,
      "note": 78,
      "start": 0.2418,
      "duration": 0.113,
      "velocity": 101,
      "chip": "ym2612"
    },
    {
      "channel": 5,
      "note": 71,
      "start": 0.2446,
      "duration": 0.1104,
      "velocity": 101,
      "chip": "ym2612"
    },
    {
      "channel": 2,
      "note": 82,
      "start": 0.2471,
      "duration": 0.108,
      "velocity": 85,
      "chip": "ym2612"
    },
    {
      "channel": 1,
      "note": 76,
      "start": 0.2496,
      "duration": 0.105,
      "velocity": 127,
      "chip": "ym2612"
    },
    {
      "channel": 3,
      "note": 76,
      "start": 0.3912,
      "duration": 0.08,
      "velocity": 101,
      "chip": "ym2612"
    },
    {
      "channel": 5,
      "note": 69,
      "start": 0.3941,
      "duration": 0.0773,
      "velocity": 101,
      "chip": "ym2612"
    },
    {
      "channel": 1,
      "note": 78,
      "start": 0.397,
      "duration": 0.091,
      "velocity": 127,
      "chip": "ym2612"
    },
    {
      "channel": 3,
      "note": 78,
      "start": 0.4913,
      "duration": 0.1134,
      "velocity": 101,
      "chip": "ym2612"
    },
    {
      "channel": 5,
      "note": 71,
      "start": 0.4941,
      "duration": 0.1107,
      "velocity": 101,
      "chip": "ym2612"
    },
    {
      "channel": 0,
      "note": 54,
      "start": 0.4965,
      "duration": 0.2414,
      "velocity": 96,
      "chip": "ym2612"
    },
    {
      "channel": 2,
      "note": 82,
      "start": 0.499,
      "duration": 0.106,
      "velocity": 85,
      "chip": "ym2612"
    },
    {
      "channel": 1,
      "note": 66,
      "start": 0.502,
      "duration": 0.1026,
      "velocity": 127,
      "chip": "ym2612"
    },
    {
      "channel": 2,
      "note": 82,
      "start": 0.6411,
      "duration": 0.0971,
      "velocity": 85,
      "chip": "ym2612"
    },
    {
      "channel": 3,
      "note": 81,
      "start": 0.7417,
      "duration": 0.113,
      "velocity": 101,
      "chip": "ym2612"
    },
    {
      "channel": 5,
      "note": 74,
      "start": 0.7444,
      "duration": 0.1104,
      "velocity": 101,
      "chip": "ym2612"
    },
    {
      "channel": 1,
      "note": 71,
      "start": 0.7474,
      "duration": 0.1072,
      "velocity": 127,
      "chip": "ym2612"
    },
    {
      "channel": 2,
      "note": 82,
      "start": 0.8911,
      "duration": 0.0972,
      "velocity": 85,
      "chip": "ym2612"
    },
    {
      "channel": 1,
      "note": 78,
      "start": 0.8936,
      "duration": 0.0943,
      "velocity": 127,
      "chip": "ym2612"
    },
    {
      "channel": 0,
      "note": 59,
      "start": 0.9912,
      "duration": 0.2633,
      "velocity": 96,
      "chip": "ym2612"
    },
    {
      "channel": 2,
      "note": 82,
      "start": 0.994,
      "duration": 0.1109,
      "velocity": 85,
      "chip": "ym2612"
    },
    {
      "channel": 1,
      "note": 66,
      "start": 0.9966,
      "duration": 0.1081,
      "velocity": 127,
      "chip": "ym2612"
    },
    {
      "channel": 3,
      "note": 76,
      "start": 1.1412,
      "duration": 0.08,
      "velocity": 101,
      "chip": "ym2612"
    },
    {
      "channel": 5,
      "note": 69,
      "start": 1.144,
      "duration": 0.0774,
      "velocity": 101,
      "chip": "ym2612"
    },
    {
      "channel": 1,
      "note": 73,
      "start": 1.1469,
      "duration": 0.1078,
      "velocity": 127,
      "chip": "ym2612"
    },
    {
      "channel": 3,
      "note": 78,
      "start": 1.2581,
      "duration": 0.0966,
      "velocity": 101,
      "chip": "ym2612"
    },
    {
      "channel": 5,
      "note": 71,
      "start": 1.2609,
      "duration": 0.094,
      "velocity": 101,
      "chip": "ym2612"
    },
    {
      "channel": 2,
      "note": 82,
      "start": 1.2635,
      "duration": 0.0915,
      "velocity": 85,
      "chip": "ym2612"
    },
    {
      "channel": 1,
      "note": 76,
      "start": 1.2661,
      "duration": 0.0885,
      "velocity": 127,
      "chip": "ym2612"
    },
    {
      "channel": 3,
      "note": 76,
      "start": 1.3912,
      "duration": 0.0801,
      "velocity": 101,
      "chip": "ym2612"
    },
    {
      "channel": 5,
      "note": 69,
      "start": 1.3944,
      "duration": 0.0771,
      "velocity": 101,
      "chip": "ym2612"
    },
    {
      "channel": 0,
      "note": 54,
      "start": 1.3971,
      "duration": 0.6074,
      "velocity": 96,
      "chip": "ym2612"
    },
    {
      "channel": 2,
      "note": 82,
      "start": 1.3995,
      "duration": 0.1053,
      "velocity": 85,
      "chip": "ym2612"
    },
    {
      "channel": 1,
      "note": 66,
      "start": 1.4021,
      "duration": 0.1025,
      "velocity": 127,
      "chip": "ym2612"
    },
    {
      "channel": 1,
      "note": 78,
      "start": 1.5081,
      "duration": 0.0965,
      "velocity": 127,
      "chip": "ym2612"
    },
    {
      "channel": 3,
      "note": 81,
      "start": 1.6411,
      "duration": 0.0802,
      "velocity": 101,
      "chip": "ym2612"
    },
    {
      "channel": 5,
      "note": 74,
      "start": 1.6439,
      "duration": 0.0776,
      "velocity": 101,
      "chip": "ym2612"
    },
    {
      "channel": 2,
      "note": 82,
      "start": 1.6465,
      "duration": 0.1083,
      "velocity": 85,
      "chip": "ym2612"
    },
    {
      "channel": 1,
      "note": 66,
      "start": 1.6495,
      "duration": 0.1051,
      "velocity": 127,
      "chip": "ym2612"
    },
    {
      "channel": 2,
      "note": 82,
      "start": 1.7578,
      "duration": 0.097,
      "velocity": 85,
      "chip": "ym2612"
    },
    {
      "channel": 1,
      "note": 71,
      "start": 1.7605,
      "duration": 0.0941,
      "velocity": 127,
      "chip": "ym2612"
    },
    {
      "channel": 1,
      "note": 78,
      "start": 1.8912,
      "duration": 0.1134,
      "velocity": 127,
      "chip": "ym2612"
    },
    {
      "channel": 0,
      "note": 59,
      "start": 2.0083,
      "duration": 0.2463,
      "velocity": 96,
      "chip": "ym2612"
    },
    {
      "channel": 2,
      "note": 82,
      "start": 2.0106,
      "duration": 0.0942,
      "velocity": 85,
      "chip": "ym2612"
    },
    {
      "channel": 1,
      "note": 66,
      "start": 2.0132,
      "duration": 0.0914,
      "velocity": 127,
      "chip": "ym2612"
    },
    {
      "channel": 3,
      "note": 76,
      "start": 2.1411,
      "duration": 0.0802,
      "velocity": 101,
      "chip": "ym2612"
    },
    {
      "channel": 5,
      "note": 69,
      "start": 2.1439,
      "duration": 0.0777,
      "velocity": 101,
      "chip": "ym2612"
    },
    {
      "channel": 1,
      "note": 73,
      "start": 2.1467,
      "duration": 0.1079,
      "velocity": 127,
      "chip": "ym2612"
    },
    {
      "channel": 3,
      "note": 78,
      "start": 2.258,
      "duration": 0.0966,
      "velocity": 101,
      "chip": "ym2612"
    },
    {
      "channel": 5,
      "note": 71,
      "start": 2.2608,
      "duration": 0.094,
      "velocity": 101,
      "chip": "ym2612"
    },
    {
      "channel": 2,
      "note": 82,
      "start": 2.2633,
      "duration": 0.0916,
      "velocity": 85,
      "chip": "ym2612"
    },
    {
      "channel": 1,
      "note": 76,
      "start": 2.2659,
      "duration": 0.0886,
      "velocity": 127,
      "chip": "ym2612"
    },
    {
      "channel": 3,
      "note": 76,
      "start": 2.4082,
      "duration": 0.0798,
      "velocity": 101,
      "chip": "ym2612"
    },
    {
      "channel": 5,
      "note": 69,
      "start": 2.411,
      "duration": 0.0772,
      "velocity": 101,
      "chip": "ym2612"
    },
    {
      "channel": 1,
      "note": 78,
      "start": 2.4139,
      "duration": 0.0907,
      "velocity": 127,
      "chip": "ym2612"
    },
    {
      "channel": 3,
      "note": 78,
      "start": 2.508,
      "duration": 0.0967,
      "velocity": 101,
      "chip": "ym2612"
    },
    {
      "channel": 5,
      "note": 71,
      "start": 2.5108,
      "duration": 0.094,
      "velocity": 101,
      "chip": "ym2612"
    },
    {
      "channel": 0,
      "note": 54,
      "start": 2.5132,
      "duration": 0.2414,
      "velocity": 96,
      "chip": "ym2612"
    },
    {
      "channel": 2,
      "note": 82,
      "start": 2.5156,
      "duration": 0.0893,
      "velocity": 85,
      "chip": "ym2612"
    },
    {
      "channel": 1,
      "note": 66,
      "start": 2.5182,
      "duration": 0.0863,
      "velocity": 127,
      "chip": "ym2612"
    },
    {
      "channel": 2,
      "note": 82,
      "start": 2.6577,
      "duration": 0.0972,
      "velocity": 85,
      "chip": "ym2612"
    },
    {
      "channel": 3,
      "note": 81,
      "start": 2.758,
      "duration": 0.0968,
      "velocity": 101,
      "chip": "ym2612"
    },
    {
      "channel": 5,
      "note": 74,
      "start": 2.7607,
      "duration": 0.0943,
      "velocity": 101,
      "chip": "ym2612"
    },
    {
      "channel": 4,
      "note": 90,
      "start": 2.7649,
      "duration": 0.0565,
      "velocity": 127,
      "chip": "ym2612"
    },
    {
      "channel": 1,
      "note": 71,
      "start": 2.7681,
      "duration": 0.0866,
      "velocity": 127,
      "chip": "ym2612"
    },
    {
      "channel": 4,
      "note": 90,
      "start": 2.8252,
      "duration": 0.0463,
      "velocity": 127,
      "chip": "ym2612"
    },
    {
      "channel": 4,
      "note": 90,
      "start": 2.8753,
      "duration": 0.0629,
      "velocity": 127,
      "chip": "ym2612"
    },
    {
      "channel": 2,
      "note": 82,
      "start": 2.9082,
      "duration": 0.0969,
      "velocity": 85,
      "chip": "ym2612"
    },
    {
      "channel": 1,
      "note": 78,
      "start": 2.9108,
      "duration": 0.0939,
      "velocity": 127,
      "chip": "ym2612"
    },
    {
      "channel": 4,
      "note": 90,
      "start": 2.942,
      "duration": 0.063,
      "velocity": 127,
      "chip": "ym2612"
    },
    {
      "channel": 4,
      "note": 90,
      "start": 3.0091,
      "duration": 0.1124,
      "velocity": 127,
      "chip": "ym2612"
    },
    {
      "channel": 0,
      "note": 59,
      "start": 3.0115,
      "duration": 0.2431,
      "velocity": 96,
      "chip": "ym2612"
    },
    {
      "channel": 2,
      "note": 82,
      "start": 3.014,
      "duration": 0.0909,
      "velocity": 85,
      "chip": "ym2612"
    },
    {
      "channel": 1,
      "note": 66,
      "start": 3.0166,
      "duration": 0.088,
      "velocity": 127,
      "chip": "ym2612"
    },
    {
      "channel": 3,
      "note": 76,
      "start": 3.158,
      "duration": 0.0801,
      "velocity": 101,
      "chip": "ym2612"
    },
    {
      "channel": 5,
      "note": 69,
      "start": 3.1611,
      "duration": 0.0771,
      "velocity": 101,
      "chip": "ym2612"
    },
    {
      "channel": 1,
      "note": 73,
      "start": 3.164,
      "duration": 0.0908,
      "velocity": 127,
      "chip": "ym2612"
    },
    {
      "channel": 3,
      "note": 78,
      "start": 3.2581,
      "duration": 0.0966,
      "velocity": 101,
      "chip": "ym2612"
    },
    {
      "channel": 5,
      "note": 71,
      "start": 3.2609,
      "duration": 0.094,
      "velocity": 101,
      "chip": "ym2612"
    },
    {
      "channel": 4,
      "note": 85,
      "start": 3.2644,
      "duration": 0.1237,
      "velocity": 127,
      "chip": "ym2612"
    },
    {
      "channel": 2,
      "note": 82,
      "start": 3.2669,
      "duration": 0.0882,
      "velocity": 85,
      "chip": "ym2612"
    },
    {
      "channel": 1,
      "note": 76,
      "start": 3.2694,
      "duration": 0.0852,
      "velocity": 127,
      "chip": "ym2612"
    },
    {
      "channel": 4,
      "note": 90,
      "start": 3.392,
      "duration": 0.1129,
      "velocity": 127,
      "chip": "ym2612"
    },
    {
      "channel": 3,
      "note": 76,
      "start": 3.408,
      "duration": 0.08,
      "velocity": 101,
      "chip": "ym2612"
    },
    {
      "channel": 5,
      "note": 69,
      "start": 3.4108,
      "duration": 0.0775,
      "velocity": 101,
      "chip": "ym2612"
    },
    {
      "channel": 0,
      "note": 54,
      "start": 3.4135,
      "duration": 0.5911,
      "velocity": 96,
      "chip": "ym2612"
    },
    {
      "channel": 2,
      "note": 82,
      "start": 3.416,
      "duration": 0.089,
      "velocity": 85,
      "chip": "ym2612"
    },
    {
      "channel": 1,
      "note": 66,
      "start": 3.4185,
      "duration": 0.0861,
      "velocity": 127,
      "chip": "ym2612"
    },
    {
      "channel": 1,
      "note": 78,
      "start": 3.5083,
      "duration": 0.0964,
      "velocity": 127,
      "chip": "ym2612"
    },
    {
      "channel": 4,
      "note": 90,
      "start": 3.6419,
      "duration": 0.113,
      "velocity": 127,
      "chip": "ym2612"
    },
    {
      "channel": 3,
      "note": 81,
      "start": 3.6579,
      "duration": 0.0802,
      "velocity": 101,
      "chip": "ym2612"
    },
    {
      "channel": 5,
      "note": 74,
      "start": 3.6607,
      "duration": 0.0776,
      "velocity": 101,
      "chip": "ym2612"
    },
    {
      "channel": 2,
      "note": 82,
      "start": 3.6633,
      "duration": 0.0917,
      "velocity": 85,
      "chip": "ym2612"
    },
    {
      "channel": 1,
      "note": 66,
      "start": 3.6659,
      "duration": 0.0888,
      "velocity": 127,
      "chip": "ym2612"
    },
    {
      "channel": 2,
      "note": 82,
      "start": 3.758,
      "duration": 0.0968,
      "velocity": 85,
      "chip": "ym2612"
    },
    {
      "channel": 1,
      "note": 71,
      "start": 3.761,
      "duration": 0.0936,
      "velocity": 127,
      "chip": "ym2612"
    },
    {
      "channel": 4,
      "note": 85,
      "start": 3.8919,
      "duration": 0.113,
      "velocity": 127,
      "chip": "ym2612"
    },
    {
      "channel": 1,
      "note": 78,
      "start": 3.9081,
      "duration": 0.0966,
      "velocity": 127,
      "chip": "ym2612"
    },
    {
      "channel": 4,
      "note": 90,
      "start": 4.0093,
      "duration": 0.1288,
      "velocity": 127,
      "chip": "ym2612"
    },
    {
      "channel": 0,
      "note": 59,
      "start": 4.0119,
      "duration": 0.2426,
      "velocity": 96,
      "chip": "ym2612"
    },
    {
      "channel": 2,
      "note": 82,
      "start": 4.0141,
      "duration": 0.0908,
      "velocity": 85,
      "chip": "ym2612"
    },
    {
      "channel": 1,
      "note": 66,
      "start": 4.0168,
      "duration": 0.0879,
      "velocity": 127,
      "chip": "ym2612"
    },
    {
      "channel": 3,
      "note": 83,
      "start": 4.1584,
      "duration": 0.0965,
      "velocity": 101,
      "chip": "ym2612"
    },
    {
      "channel": 5,
      "note": 74,
      "start": 4.1613,
      "duration": 0.0769,
      "velocity": 101,
      "chip": "ym2612"
    },
    {
      "channel": 1,
      "note": 73,
      "start": 4.1641,
      "duration": 0.0905,
      "velocity": 127,
      "chip": "ym2612"
    },
    {
      "channel": 3,
      "note": 85,
      "start": 4.2582,
      "duration": 0.0966,
      "velocity": 101,
      "chip": "ym2612"
    },
    {
      "channel": 5,
      "note": 77,
      "start": 4.261,
      "duration": 0.094,
      "velocity": 101,
      "chip": "ym2612"
    },
    {
      "channel": 4,
      "note": 85,
      "start": 4.2644,
      "duration": 0.1237,
      "velocity": 127,
      "chip": "ym2612"
    },
    {
      "channel": 2,
      "note": 82,
      "start": 4.2668,
      "duration": 0.0884,
      "velocity": 85,
      "chip": "ym2612"
    },
    {
      "channel": 1,
      "note": 76,
      "start": 4.2694,
      "duration": 0.0853,
      "velocity": 127,
      "chip": "ym2612"
    },
    {
      "channel": 4,
      "note": 90,
      "start": 4.392,
      "duration": 0.1129,
      "velocity": 127,
      "chip": "ym2612"
    },
    {
      "channel": 3,
      "note": 86,
      "start": 4.408,
      "duration": 0.08,
      "velocity": 101,
      "chip": "ym2612"
    },
    {
      "channel": 5,
      "note": 78,
      "start": 4.4108,
      "duration": 0.0774,
      "velocity": 101,
      "chip": "ym2612"
    },
    {
      "channel": 1,
      "note": 78,
      "start": 4.4137,
      "duration": 0.0911,
      "velocity": 127,
      "chip": "ym2612"
    },
    {
      "channel": 3,
      "note": 83,
      "start": 4.5086,
      "duration": 0.1129,
      "velocity": 101,
      "chip": "ym2612"
    },
    {
      "channel": 5,
      "note": 74,
      "start": 4.5114,
      "duration": 0.1103,
      "velocity": 101,
      "chip": "ym2612"
    },
    {
      "channel": 0,
      "note": 54,
      "start": 4.5138,
      "duration": 0.2408,
      "velocity": 96,
      "chip": "ym2612"
    },
    {
      "channel": 2,
      "note": 82,
      "start": 4.5163,
      "duration": 0.1055,
      "velocity": 85,
      "chip": "ym2612"
    },
    {
      "channel": 1,
      "note": 66,
      "start": 4.5188,
      "duration": 0.1025,
      "velocity": 127,
      "chip": "ym2612"
    },
    {
      "channel": 4,
      "note": 90,
      "start": 4.6418,
      "duration": 0.1131,
      "velocity": 127,
      "chip": "ym2612"
    },
    {
      "channel": 3,
      "note": 78,
      "start": 4.6581,
      "duration": 0.08,
      "velocity": 101,
      "chip": "ym2612"
    },
    {
      "channel": 5,
      "note": 71,
      "start": 4.6608,
      "duration": 0.0774,
      "velocity": 101,
      "chip": "ym2612"
    },
    {
      "channel": 2,
      "note": 82,
      "start": 4.6638,
      "duration": 0.0912,
      "velocity": 85,
      "chip": "ym2612"
    },
    {
      "channel": 3,
      "note": 83,
      "start": 4.7583,
      "duration": 0.1132,
      "velocity": 101,
      "chip": "ym2612"
    },
    {
      "channel": 5,
      "note": 74,
      "start": 4.761,
      "duration": 0.1107,
      "velocity": 101,
      "chip": "ym2612"
    },
    {
      "channel": 1,
      "note": 71,
      "start": 4.764,
      "duration": 0.1074,
      "velocity": 127,
      "chip": "ym2612"
    },
    {
      "channel": 4,
      "note": 85,
      "start": 4.8919,
      "duration": 0.1129,
      "velocity": 127,
      "chip": "ym2612"
    },
    {
      "channel": 2,
      "note": 82,
      "start": 4.9079,
      "duration": 0.097,
      "velocity": 85,
      "chip": "ym2612"
    },
    {
      "channel": 1,
      "note": 78,
      "start": 4.9108,
      "duration": 0.0938,
      "velocity": 127,
      "chip": "ym2612"
    },
    {
      "channel": 3,
      "note": 82,
      "start": 5.0084,
      "duration": 0.1131,
      "velocity": 101,
      "chip": "ym2612"
    },
    {
      "channel": 5,
      "note": 73,
      "start": 5.0112,
      "duration": 0.1106,
      "velocity": 101,
      "chip": "ym2612"
    },
    {
      "channel": 4,
      "note": 90,
      "start": 5.0146,
      "duration": 0.1235,
      "velocity": 127,
      "chip": "ym2612"
    },
    {
      "channel": 0,
      "note": 59,
      "start": 5.0171,
      "duration": 0.2375,
      "velocity": 96,
      "chip": "ym2612"
    },
    {
      "channel": 2,
      "note": 82,
      "start": 5.0196,
      "duration": 0.1023,
      "velocity": 85,
      "chip": "ym2612"
    },
    {
      "channel": 1,
      "note": 66,
      "start": 5.0222,
      "duration": 0.0992,
      "velocity": 127,
      "chip": "ym2612"
    },
    {
      "channel": 3,
      "note": 78,
      "start": 5.158,
      "duration": 0.08,
      "velocity": 101,
      "chip": "ym2612"
    },
    {
      "channel": 5,
      "note": 71,
      "start": 5.1608,
      "duration": 0.0775,
      "velocity": 101,
      "chip": "ym2612"
    },
    {
      "channel": 1,
      "note": 73,
      "start": 5.1637,
      "duration": 0.091,
      "velocity": 127,
      "chip": "ym2612"
    },
    {
      "channel": 4,
      "note": 85,
      "start": 5.2589,
      "duration": 0.0625,
      "velocity": 127,
      "chip": "ym2612"
    },
    {
      "channel": 2,
      "note": 82,
      "start": 5.2615,
      "duration": 0.1101,
      "velocity": 85,
      "chip": "ym2612"
    },
    {
      "channel": 1,
      "note": 76,
      "start": 5.264,
      "duration": 0.1073,
      "velocity": 127,
      "chip": "ym2612"
    },
    {
      "channel": 4,
      "note": 85,
      "start": 5.3253,
      "duration": 0.0627,
      "velocity": 127,
      "chip": "ym2612"
    },
    {
      "channel": 4,
      "note": 85,
      "start": 5.3918,
      "duration": 0.063,
      "velocity": 127,
      "chip": "ym2612"
    },
    {
      "channel": 3,
      "note": 90,
      "start": 5.4078,
      "duration": 0.0803,
      "velocity": 101,
      "chip": "ym2612"
    },
    {
      "channel": 5,
      "note": 83,
      "start": 5.4107,
      "duration": 0.0776,
      "velocity": 101,
      "chip": "ym2612"
    },
    {
      "channel": 0,
      "note": 54,
      "start": 5.4137,
      "duration": 0.7409,
      "velocity": 96,
      "chip": "ym2612"
    },
    {
      "channel": 2,
      "note": 82,
      "start": 5.4162,
      "duration": 0.1055,
      "velocity": 85,
      "chip": "ym2612"
    },
    {
      "channel": 1,
      "note": 66,
      "start": 5.4187,
      "duration": 0.1025,
      "velocity": 127,
      "chip": "ym2612"
    },
    {
      "channel": 4,
      "note": 85,
      "start": 5.459,
      "duration": 0.0625,
      "velocity": 127,
      "chip": "ym2612"
    },
    {
      "channel": 4,
      "note": 90,
      "start": 5.5257,
      "duration": 0.1124,
      "velocity": 127,
      "chip": "ym2612"
    },
    {
      "channel": 1,
      "note": 78,
      "start": 5.5284,
      "duration": 0.0929,
      "velocity": 127,
      "chip": "ym2612"
    },
    {
      "channel": 4,
      "note": 85,
      "start": 5.642,
      "duration": 0.1295,
      "velocity": 127,
      "chip": "ym2612"
    },
    {
      "channel": 3,
      "note": 90,
      "start": 5.6579,
      "duration": 0.0802,
      "velocity": 101,
      "chip": "ym2612"
    },
    {
      "channel": 5,
      "note": 83,
      "start": 5.6607,
      "duration": 0.0776,
      "velocity": 101,
      "chip": "ym2612"
    },
    {
      "channel": 2,
      "note": 82,
      "start": 5.6633,
      "duration": 0.1085,
      "velocity": 85,
      "chip": "ym2612"
    },
    {
      "channel": 1,
      "note": 66,
      "start": 5.6659,
      "duration": 0.1055,
      "velocity": 127,
      "chip": "ym2612"
    },
    {
      "channel": 2,
      "note": 82,
      "start": 5.7748,
      "duration": 0.0969,
      "velocity": 85,
      "chip": "ym2612"
    },
    {
      "channel": 1,
      "note": 71,
      "start": 5.7773,
      "duration": 0.0941,
      "velocity": 127,
      "chip": "ym2612"
    },
    {
      "channel": 4,
      "note": 85,
      "start": 5.892,
      "duration": 0.1296,
      "velocity": 127,
      "chip": "ym2612"
    },
    {
      "channel": 3,
      "note": 83,
      "start": 5.9082,
      "duration": 0.0798,
      "velocity": 101,
      "chip": "ym2612"
    },
    {
      "channel": 5,
      "note": 74,
      "start": 5.911,
      "duration": 0.0772,
      "velocity": 101,
      "chip": "ym2612"
    },
    {
      "channel": 1,
      "note": 78,
      "start": 5.9142,
      "duration": 0.1071,
      "velocity": 127,
      "chip": "ym2612"
    },
    {
      "channel": 3,
      "note": 85,
      "start": 6.0248,
      "duration": 0.0966,
      "velocity": 101,
      "chip": "ym2612"
    },
    {
      "channel": 5,
      "note": 77,
      "start": 6.0276,
      "duration": 0.094,
      "velocity": 101,
      "chip": "ym2612"
    },
    {
      "channel": 4,
      "note": 90,
      "start": 6.031,
      "duration": 0.1071,
      "velocity": 127,
      "chip": "ym2612"
    },
    {
      "channel": 2,
      "note": 59,
      "start": 6.0339,
      "duration": 0.0005,
      "velocity": 96,
      "chip": "ym2612"
    },
    {
      "channel": 2,
      "note": 82,
      "start": 6.0363,
      "duration": 0.0854,
      "velocity": 85,
      "chip": "ym2612"
    },
    {
      "channel": 1,
      "note": 66,
      "start": 6.039,
      "duration": 0.0822,
      "velocity": 127,
      "chip": "ym2612"
    },
    {
      "channel": 3,
      "note": 86,
      "start": 6.158,
      "duration": 0.08,
      "velocity": 101,
      "chip": "ym2612"
    },
    {
      "channel": 5,
      "note": 78,
      "start": 6.1608,
      "duration": 0.0774,
      "velocity": 101,
      "chip": "ym2612"
    },
    {
      "channel": 1,
      "note": 73,
      "start": 6.1637,
      "duration": 0.1076,
      "velocity": 127,
      "chip": "ym2612"
    },
    {
      "channel": 3,
      "note": 83,
      "start": 6.2751,
      "duration": 0.0964,
      "velocity": 101,
      "chip": "ym2612"
    },
    {
      "channel": 5,
      "note": 74,
      "start": 6.2778,
      "duration": 0.0938,
      "velocity": 101,
      "chip": "ym2612"
    },
    {
      "channel": 4,
      "note": 85,
      "start": 6.2813,
      "duration": 0.1069,
      "velocity": 127,
      "chip": "ym2612"
    },
    {
      "channel": 2,
      "note": 82,
      "start": 6.2837,
      "duration": 0.0882,
      "velocity": 85,
      "chip": "ym2612"
    },
    {
      "channel": 1,
      "note": 76,
      "start": 6.2862,
      "duration": 0.0851,
      "velocity": 127,
      "chip": "ym2612"
    },
    {
      "channel": 4,
      "note": 90,
      "start": 6.3921,
      "duration": 0.1294,
      "velocity": 127,
      "chip": "ym2612"
    },
    {
      "channel": 3,
      "note": 78,
      "start": 6.4081,
      "duration": 0.0799,
      "velocity": 101,
      "chip": "ym2612"
    },
    {
      "channel": 5,
      "note": 71,
      "start": 6.4108,
      "duration": 0.0774,
      "velocity": 101,
      "chip": "ym2612"
    },
    {
      "channel": 1,
      "note": 78,
      "start": 6.4138,
      "duration": 0.1075,
      "velocity": 127,
      "chip": "ym2612"
    },
    {
      "channel": 3,
      "note": 83,
      "start": 6.5248,
      "duration": 0.0966,
      "velocity": 101,
      "chip": "ym2612"
    },
    {
      "channel": 5,
      "note": 74,
      "start": 6.5276,
      "duration": 0.0941,
      "velocity": 101,
      "chip": "ym2612"
    },
    {
      "channel": 0,
      "note": 54,
      "start": 6.53,
      "duration": 0.2412,
      "velocity": 96,
      "chip": "ym2612"
    },
    {
      "channel": 2,
      "note": 82,
      "start": 6.5328,
      "duration": 0.089,
      "velocity": 85,
      "chip": "ym2612"
    },
    {
      "channel": 1,
      "note": 66,
      "start": 6.5354,
      "duration": 0.0859,
      "velocity": 127,
      "chip": "ym2612"
    },
    {
      "channel": 4,
      "note": 90,
      "start": 6.6418,
      "duration": 0.1296,
      "velocity": 127,
      "chip": "ym2612"
    },
    {
      "channel": 2,
      "note": 82,
      "start": 6.6746,
      "duration": 0.0971,
      "velocity": 85,
      "chip": "ym2612"
    },
    {
      "channel": 3,
      "note": 82,
      "start": 6.7747,
      "duration": 0.0968,
      "velocity": 101,
      "chip": "ym2612"
    },
    {
      "channel": 5,
      "note": 73,
      "start": 6.7779,
      "duration": 0.0938,
      "velocity": 101,
      "chip": "ym2612"
    },
    {
      "channel": 1,
      "note": 71,
      "start": 6.7807,
      "duration": 0.0906,
      "velocity": 127,
      "chip": "ym2612"
    },
    {
      "channel": 4,
      "note": 85,
      "start": 6.8924,
      "duration": 0.1291,
      "velocity": 127,
      "chip": "ym2612"
    },
    {
      "channel": 3,
      "note": 78,
      "start": 6.9247,
      "duration": 0.2133,
      "velocity": 101,
      "chip": "ym2612"
    },
    {
      "channel": 5,
      "note": 71,
      "start": 6.9276,
      "duration": 0.2106,
      "velocity": 101,
      "chip": "ym2612"
    },
    {
      "channel": 2,
      "note": 82,
      "start": 6.9302,
      "duration": 0.0914,
      "velocity": 85,
      "chip": "ym2612"
    },
    {
      "channel": 1,
      "note": 78,
      "start": 6.9329,
      "duration": 0.0884,
      "velocity": 127,
      "chip": "ym2612"
    },
    {
      "channel": 4,
      "note": 90,
      "start": 7.0255,
      "duration": 0.1127,
      "velocity": 127,
      "chip": "ym2612"
    },
    {
      "channel": 0,
      "note": 59,
      "start": 7.028,
      "duration": 0.2433,
      "velocity": 96,
      "chip": "ym2612"
    },
    {
      "channel": 2,
      "note": 82,
      "start": 7.0304,
      "duration": 0.0912,
      "velocity": 85,
      "chip": "ym2612"
    },
    {
      "channel": 1,
      "note": 66,
      "start": 7.0334,
      "duration": 0.088,
      "velocity": 127,
      "chip": "ym2612"
    },
    {
      "channel": 1,
      "note": 73,
      "start": 7.1748,
      "duration": 0.0966,
      "velocity": 127,
      "chip": "ym2612"
    },
    {
      "channel": 4,
      "note": 85,
      "start": 7.2755,
      "duration": 0.1127,
      "velocity": 127,
      "chip": "ym2612"
    },
    {
      "channel": 2,
      "note": 82,
      "start": 7.278,
      "duration": 0.0935,
      "velocity": 85,
      "chip": "ym2612"
    },
    {
      "channel": 1,
      "note": 76,
      "start": 7.2806,
      "duration": 0.0906,
      "velocity": 127,
      "chip": "ym2612"
    },
    {
      "channel": 4,
      "note": 90,
      "start": 7.3923,
      "duration": 0.0625,
      "velocity": 127,
      "chip": "ym2612"
    },
    {
      "channel": 0,
      "note": 54,
      "start": 7.4246,
      "duration": 0.5966,
      "velocity": 96,
      "chip": "ym2612"
    },
    {
      "channel": 2,
      "note": 82,
      "start": 7.4271,
      "duration": 0.0946,
      "velocity": 85,
      "chip": "ym2612"
    },
    {
      "channel": 1,
      "note": 66,
      "start": 7.4297,
      "duration": 0.0916,
      "velocity": 127,
      "chip": "ym2612"
    },
    {
      "channel": 4,
      "note": 90,
      "start": 7.4586,
      "duration": 0.0629,
      "velocity": 127,
      "chip": "ym2612"
    },
    {
      "channel": 4,
      "note": 90,
      "start": 7.5254,
      "duration": 0.0629,
      "velocity": 127,
      "chip": "ym2612"
    },
    {
      "channel": 1,
      "note": 78,
      "start": 7.5281,
      "duration": 0.0931,
      "velocity": 127,
      "chip": "ym2612"
    },
    {
      "channel": 4,
      "note": 90,
      "start": 7.592,
      "duration": 0.0628,
      "velocity": 127,
      "chip": "ym2612"
    },
    {
      "channel": 4,
      "note": 90,
      "start": 7.6589,
      "duration": 0.1127,
      "velocity": 127,
      "chip": "ym2612"
    },
    {
      "channel": 2,
      "note": 82,
      "start": 7.6746,
      "duration": 0.0971,
      "velocity": 85,
      "chip": "ym2612"
    },
    {
      "channel": 1,
      "note": 66,
      "start": 7.6771,
      "duration": 0.0943,
      "velocity": 127,
      "chip": "ym2612"
    },
    {
      "channel": 2,
      "note": 82,
      "start": 7.7748,
      "duration": 0.0969,
      "velocity": 85,
      "chip": "ym2612"
    },
    {
      "channel": 1,
      "note": 71,
      "start": 7.7773,
      "duration": 0.0941,
      "velocity": 127,
      "chip": "ym2612"
    },
    {
      "channel": 4,
      "note": 85,
      "start": 7.9093,
      "duration": 0.1124,
      "velocity": 127,
      "chip": "ym2612"
    },
    {
      "channel": 3,
      "note": 70,
      "start": 7.925,
      "duration": 0.0965,
      "velocity": 98,
      "chip": "ym2612"
    },
    {
      "channel": 1,
      "note": 78,
      "start": 7.928,
      "duration": 0.0934,
      "velocity": 127,
      "chip": "ym2612"
    },
    {
      "channel": 3,
      "note": 71,
      "start": 8.0248,
      "duration": 0.13,
      "velocity": 98,
      "chip": "ym2612"
    },
    {
      "channel": 4,
      "note": 90,
      "start": 8.0288,
      "duration": 0.1261,
      "velocity": 127,
      "chip": "ym2612"
    },
    {
      "channel": 0,
      "note": 59,
      "start": 8.0315,
      "duration": 0.2398,
      "velocity": 96,
      "chip": "ym2612"
    },
    {
      "channel": 2,
      "note": 82,
      "start": 8.0341,
      "duration": 0.0875,
      "velocity": 85,
      "chip": "ym2612"
    },
    {
      "channel": 1,
      "note": 66,
      "start": 8.0371,
      "duration": 0.0844,
      "velocity": 127,
      "chip": "ym2612"
    },
    {
      "channel": 1,
      "note": 73,
      "start": 8.1747,
      "duration": 0.0966,
      "velocity": 127,
      "chip": "ym2612"
    },
    {
      "channel": 2,
      "note": 82,
      "start": 8.2745,
      "duration": 0.0971,
      "velocity": 85,
      "chip": "ym2612"
    },
    {
      "channel": 1,
      "note": 76,
      "start": 8.277,
      "duration": 0.0943,
      "velocity": 127,
      "chip": "ym2612"
    },
    {
      "channel": 3,
      "note": 73,
      "start": 8.4244,
      "duration": 0.097,
      "velocity": 98,
      "chip": "ym2612"
    },
    {
      "channel": 1,
      "note": 78,
      "start": 8.4274,
      "duration": 0.0939,
      "velocity": 127,
      "chip": "ym2612"
    },
    {
      "channel": 3,
      "note": 74,
      "start": 8.5246,
      "duration": 0.1301,
      "velocity": 98,
      "chip": "ym2612"
    },
    {
      "channel": 0,
      "note": 54,
      "start": 8.5271,
      "duration": 0.244,
      "velocity": 96,
      "chip": "ym2612"
    },
    {
      "channel": 2,
      "note": 82,
      "start": 8.5295,
      "duration": 0.092,
      "velocity": 85,
      "chip": "ym2612"
    },
    {
      "channel": 1,
      "note": 66,
      "start": 8.5321,
      "duration": 0.0892,
      "velocity": 127,
      "chip": "ym2612"
    },
    {
      "channel": 2,
      "note": 82,
      "start": 8.6744,
      "duration": 0.0971,
      "velocity": 85,
      "chip": "ym2612"
    },
    {
      "channel": 1,
      "note": 71,
      "start": 8.7748,
      "duration": 0.1132,
      "velocity": 127,
      "chip": "ym2612"
    },
    {
      "channel": 3,
      "note": 70,
      "start": 8.9243,
      "duration": 0.097,
      "velocity": 98,
      "chip": "ym2612"
    },
    {
      "channel": 2,
      "note": 82,
      "start": 8.9271,
      "duration": 0.0944,
      "velocity": 85,
      "chip": "ym2612"
    },
    {
      "channel": 1,
      "note": 78,
      "start": 8.9297,
      "duration": 0.0915,
      "velocity": 127,
      "chip": "ym2612"
    },
    {
      "channel": 3,
      "note": 71,
      "start": 9.0249,
      "duration": 0.1297,
      "velocity": 98,
      "chip": "ym2612"
    },
    {
      "channel": 0,
      "note": 59,
      "start": 9.0276,
      "duration": 0.2436,
      "velocity": 96,
      "chip": "ym2612"
    },
    {
      "channel": 2,
      "note": 82,
      "start": 9.0301,
      "duration": 0.1081,
      "velocity": 85,
      "chip": "ym2612"
    },
    {
      "channel": 1,
      "note": 66,
      "start": 9.0326,
      "duration": 0.1053,
      "velocity": 127,
      "chip": "ym2612"
    },
    {
      "channel": 1,
      "note": 73,
      "start": 9.1751,
      "duration": 0.0963,
      "velocity": 127,
      "chip": "ym2612"
    },
    {
      "channel": 3,
      "note": 73,
      "start": 9.2745,
      "duration": 0.1137,
      "velocity": 98,
      "chip": "ym2612"
    },
    {
      "channel": 2,
      "note": 82,
      "start": 9.2772,
      "duration": 0.1111,
      "velocity": 85,
      "chip": "ym2612"
    },
    {
      "channel": 1,
      "note": 76,
      "start": 9.2797,
      "duration": 0.1082,
      "velocity": 127,
      "chip": "ym2612"
    },
    {
      "channel": 0,
      "note": 54,
      "start": 9.4249,
      "duration": 0.6129,
      "velocity": 96,
      "chip": "ym2612"
    },
    {
      "channel": 2,
      "note": 82,
      "start": 9.4273,
      "duration": 0.0942,
      "velocity": 85,
      "chip": "ym2612"
    },
    {
      "channel": 1,
      "note": 66,
      "start": 9.4299,
      "duration": 0.0913,
      "velocity": 127,
      "chip": "ym2612"
    },
    {
      "channel": 3,
      "note": 74,
      "start": 9.5244,
      "duration": 0.1303,
      "velocity": 98,
      "chip": "ym2612"
    },
    {
      "channel": 1,
      "note": 78,
      "start": 9.5274,
      "duration": 0.1106,
      "velocity": 127,
      "chip": "ym2612"
    },
    {
      "channel": 2,
      "note": 82,
      "start": 9.6744,
      "duration": 0.1137,
      "velocity": 85,
      "chip": "ym2612"
    },
    {
      "channel": 1,
      "note": 66,
      "start": 9.6769,
      "duration": 0.111,
      "velocity": 127,
      "chip": "ym2612"
    },
    {
      "channel": 3,
      "note": 76,
      "start": 9.7912,
      "duration": 0.1301,
      "velocity": 98,
      "chip": "ym2612"
    },
    {
      "channel": 2,
      "note": 82,
      "start": 9.7943,
      "duration": 0.0939,
      "velocity": 85,
      "chip": "ym2612"
    },
    {
      "channel": 1,
      "note": 71,
      "start": 9.7968,
      "duration": 0.0912,
      "velocity": 127,
      "chip": "ym2612"
    },
    {
      "channel": 3,
      "note": 78,
      "start": 9.9245,
      "duration": 0.1301,
      "velocity": 98,
      "chip": "ym2612"
    },
    {
      "channel": 1,
      "note": 78,
      "start": 9.9275,
      "duration": 0.1105,
      "velocity": 127,
      "chip": "ym2612"
    },
    {
      "channel": 0,
      "note": 55,
      "start": 10.0413,
      "duration": 0.2466,
      "velocity": 96,
      "chip": "ym2612"
    },
    {
      "channel": 2,
      "note": 82,
      "start": 10.0435,
      "duration": 0.0946,
      "velocity": 85,
      "chip": "ym2612"
    },
    {
      "channel": 1,
      "note": 66,
      "start": 10.0461,
      "duration": 0.0917,
      "velocity": 127,
      "chip": "ym2612"
    },
    {
      "channel": 4,
      "note": 90,
      "start": 10.1586,
      "duration": 0.1296,
      "velocity": 127,
      "chip": "ym2612"
    },
    {
      "channel": 3,
      "note": 83,
      "start": 10.1745,
      "duration": 0.1303,
      "velocity": 98,
      "chip": "ym2612"
    },
    {
      "channel": 1,
      "note": 73,
      "start": 10.1778,
      "duration": 0.1102,
      "velocity": 127,
      "chip": "ym2612"
    },
    {
      "channel": 2,
      "note": 82,
      "start": 10.2912,
      "duration": 0.097,
      "velocity": 85,
      "chip": "ym2612"
    },
    {
      "channel": 1,
      "note": 76,
      "start": 10.2938,
      "duration": 0.0941,
      "velocity": 127,
      "chip": "ym2612"
    },
    {
      "channel": 4,
      "note": 85,
      "start": 10.4086,
      "duration": 0.1296,
      "velocity": 127,
      "chip": "ym2612"
    },
    {
      "channel": 5,
      "note": 79,
      "start": 10.4249,
      "duration": 0.08,
      "velocity": 101,
      "chip": "ym2612"
    },
    {
      "channel": 0,
      "note": 74,
      "start": 10.4277,
      "duration": 0.0769,
      "velocity": 101,
      "chip": "ym2612"
    },
    {
      "channel": 1,
      "note": 78,
      "start": 10.4306,
      "duration": 0.1074,
      "velocity": 127,
      "chip": "ym2612"
    },
    {
      "channel": 0,
      "note": 84,
      "start": 10.5414,
      "duration": 0.0966,
      "velocity": 101,
      "chip": "ym2612"
    },
    {
      "channel": 5,
      "note": 77,
      "start": 10.5446,
      "duration": 0.0938,
      "velocity": 101,
      "chip": "ym2612"
    },
    {
      "channel": 4,
      "note": 90,
      "start": 10.548,
      "duration": 0.1068,
      "velocity": 127,
      "chip": "ym2612"
    },
    {
      "channel": 3,
      "note": 62,
      "start": 10.5506,
      "duration": 0.2375,
      "velocity": 96,
      "chip": "ym2612"
    },
    {
      "channel": 2,
      "note": 82,
      "start": 10.553,
      "duration": 0.0854,
      "velocity": 85,
      "chip": "ym2612"
    },
    {
      "channel": 1,
      "note": 66,
      "start": 10.5557,
      "duration": 0.0824,
      "velocity": 127,
      "chip": "ym2612"
    },
    {
      "channel": 0,
      "note": 86,
      "start": 10.6746,
      "duration": 0.08,
      "velocity": 101,
      "chip": "ym2612"
    },
    {
      "channel": 5,
      "note": 79,
      "start": 10.6773,
      "duration": 0.0776,
      "velocity": 101,
      "chip": "ym2612"
    },
    {
      "channel": 2,
      "note": 82,
      "start": 10.68,
      "duration": 0.1083,
      "velocity": 85,
      "chip": "ym2612"
    },
    {
      "channel": 0,
      "note": 84,
      "start": 10.7915,
      "duration": 0.0964,
      "velocity": 101,
      "chip": "ym2612"
    },
    {
      "channel": 5,
      "note": 77,
      "start": 10.7942,
      "duration": 0.0941,
      "velocity": 101,
      "chip": "ym2612"
    },
    {
      "channel": 4,
      "note": 85,
      "start": 10.7978,
      "duration": 0.0571,
      "velocity": 127,
      "chip": "ym2612"
    },
    {
      "channel": 1,
      "note": 71,
      "start": 10.8006,
      "duration": 0.0874,
      "velocity": 127,
      "chip": "ym2612"
    },
    {
      "channel": 4,
      "note": 85,
      "start": 10.8586,
      "duration": 0.0461,
      "velocity": 127,
      "chip": "ym2612"
    },
    {
      "channel": 4,
      "note": 85,
      "start": 10.9085,
      "duration": 0.0629,
      "velocity": 127,
      "chip": "ym2612"
    },
    {
      "channel": 0,
      "note": 86,
      "start": 10.9412,
      "duration": 0.0801,
      "velocity": 101,
      "chip": "ym2612"
    },
    {
      "channel": 5,
      "note": 79,
      "start": 10.944,
      "duration": 0.0776,
      "velocity": 101,
      "chip": "ym2612"
    },
    {
      "channel": 2,
      "note": 82,
      "start": 10.9466,
      "duration": 0.0917,
      "velocity": 85,
      "chip": "ym2612"
    },
    {
      "channel": 1,
      "note": 78,
      "start": 10.9492,
      "duration": 0.0887,
      "velocity": 127,
      "chip": "ym2612"
    },
    {
      "channel": 4,
      "note": 85,
      "start": 10.9753,
      "duration": 0.0629,
      "velocity": 127,
      "chip": "ym2612"
    },
    {
      "channel": 4,
      "note": 90,
      "start": 11.0427,
      "duration": 0.1622,
      "velocity": 127,
      "chip": "ym2612"
    },
    {
      "channel": 3,
      "note": 55,
      "start": 11.0453,
      "duration": 0.2429,
      "velocity": 96,
      "chip": "ym2612"
    },
    {
      "channel": 2,
      "note": 82,
      "start": 11.0477,
      "duration": 0.0906,
      "velocity": 85,
      "chip": "ym2612"
    },
    {
      "channel": 1,
      "note": 66,
      "start": 11.0503,
      "duration": 0.0877,
      "velocity": 127,
      "chip": "ym2612"
    },
    {
      "channel": 0,
      "note": 89,
      "start": 11.1915,
      "duration": 0.0799,
      "velocity": 101,
      "chip": "ym2612"
    },
    {
      "channel": 5,
      "note": 81,
      "start": 11.1942,
      "duration": 0.0775,
      "velocity": 101,
      "chip": "ym2612"
    },
    {
      "channel": 1,
      "note": 73,
      "start": 11.1971,
      "duration": 0.091,
      "velocity": 127,
      "chip": "ym2612"
    },
    {
      "channel": 4,
      "note": 90,
      "start": 11.2085,
      "duration": 0.1629,
      "velocity": 127,
      "chip": "ym2612"
    },
    {
      "channel": 2,
      "note": 82,
      "start": 11.2914,
      "duration": 0.097,
      "velocity": 85,
      "chip": "ym2612"
    },
    {
      "channel": 1,
      "note": 76,
      "start": 11.2943,
      "duration": 0.0938,
      "velocity": 127,
      "chip": "ym2612"
    },
    {
      "channel": 4,
      "note": 90,
      "start": 11.3752,
      "duration": 0.163,
      "velocity": 127,
      "chip": "ym2612"
    },
    {
      "channel": 0,
      "note": 86,
      "start": 11.4411,
      "duration": 0.0802,
      "velocity": 101,
      "chip": "ym2612"
    },
    {
      "channel": 5,
      "note": 79,
      "start": 11.4441,
      "duration": 0.0775,
      "velocity": 101,
      "chip": "ym2612"
    },
    {
      "channel": 3,
      "note": 62,
      "start": 11.4468,
      "duration": 0.5914,
      "velocity": 96,
      "chip": "ym2612"
    },
    {
      "channel": 2,
      "note": 82,
      "start": 11.4493,
      "duration": 0.089,
      "velocity": 85,
      "chip": "ym2612"
    },
    {
      "channel": 1,
      "note": 66,
      "start": 11.4519,
      "duration": 0.0861,
      "velocity": 127,
      "chip": "ym2612"
    },
    {
      "channel": 4,
      "note": 90,
      "start": 11.5421,
      "duration": 0.1627,
      "velocity": 127,
      "chip": "ym2612"
    },
    {
      "channel": 1,
      "note": 78,
      "start": 11.5449,
      "duration": 0.0931,
      "velocity": 127,
      "chip": "ym2612"
    },
    {
      "channel": 2,
      "note": 82,
      "start": 11.6915,
      "duration": 0.0968,
      "velocity": 85,
      "chip": "ym2612"
    },
    {
      "channel": 1,
      "note": 66,
      "start": 11.6941,
      "duration": 0.0939,
      "velocity": 127,
      "chip": "ym2612"
    },
    {
      "channel": 4,
      "note": 90,
      "start": 11.7085,
      "duration": 0.1629,
      "velocity": 127,
      "chip": "ym2612"
    },
    {
      "channel": 2,
      "note": 82,
      "start": 11.7914,
      "duration": 0.0969,
      "velocity": 85,
      "chip": "ym2612"
    },
    {
      "channel": 1,
      "note": 71,
      "start": 11.7939,
      "duration": 0.0941,
      "velocity": 127,
      "chip": "ym2612"
    },
    {
      "channel": 4,
      "note": 90,
      "start": 11.8752,
      "duration": 0.1632,
      "velocity": 127,
      "chip": "ym2612"
    },
    {
      "channel": 0,
      "note": 70,
      "start": 11.9416,
      "duration": 0.0964,
      "velocity": 98,
      "chip": "ym2612"
    },
    {
      "channel": 1,
      "note": 78,
      "start": 11.9446,
      "duration": 0.0935,
      "velocity": 127,
      "chip": "ym2612"
    },
    {
      "channel": 0,
      "note": 71,
      "start": 12.0414,
      "duration": 0.13,
      "velocity": 98,
      "chip": "ym2612"
    },
    {
      "channel": 4,
      "note": 90,
      "start": 12.0451,
      "duration": 0.1597,
      "velocity": 127,
      "chip": "ym2612"
    },
    {
      "channel": 3,
      "note": 59,
      "start": 12.0478,
      "duration": 0.2403,
      "velocity": 96,
      "chip": "ym2612"
    },
    {
      "channel": 2,
      "note": 82,
      "start": 12.0501,
      "duration": 0.0882,
      "velocity": 85,
      "chip": "ym2612"
    },
    {
      "channel": 1,
      "note": 66,
      "start": 12.0526,
      "duration": 0.0854,
      "velocity": 127,
      "chip": "ym2612"
    },
    {
      "channel": 1,
      "note": 73,
      "start": 12.1915,
      "duration": 0.0965,
      "velocity": 127,
      "chip": "ym2612"
    },
    {
      "channel": 2,
      "note": 82,
      "start": 12.2911,
      "duration": 0.0971,
      "velocity": 85,
      "chip": "ym2612"
    },
    {
      "channel": 1,
      "note": 76,
      "start": 12.2941,
      "duration": 0.0939,
      "velocity": 127,
      "chip": "ym2612"
    },
    {
      "channel": 0,
      "note": 73,
      "start": 12.4409,
      "duration": 0.097,
      "velocity": 98,
      "chip": "ym2612"
    },
    {
      "channel": 1,
      "note": 78,
      "start": 12.4439,
      "duration": 0.0941,
      "velocity": 127,
      "chip": "ym2612"
    },
    {
      "channel": 0,
      "note": 74,
      "start": 12.5411,
      "duration": 0.1468,
      "velocity": 98,
      "chip": "ym2612"
    },
    {
      "channel": 3,
      "note": 54,
      "start": 12.5438,
      "duration": 0.2441,
      "velocity": 96,
      "chip": "ym2612"
    },
    {
      "channel": 2,
      "note": 82,
      "start": 12.5462,
      "duration": 0.092,
      "velocity": 85,
      "chip": "ym2612"
    },
    {
      "channel": 1,
      "note": 66,
      "start": 12.5488,
      "duration": 0.0892,
      "velocity": 127,
      "chip": "ym2612"
    },
    {
      "channel": 2,
      "note": 82,
      "start": 12.6912,
      "duration": 0.097,
      "velocity": 85,
      "chip": "ym2612"
    },
    {
      "channel": 1,
      "note": 71,
      "start": 12.7915,
      "duration": 0.0964,
      "velocity": 127,
      "chip": "ym2612"
    },
    {
      "channel": 0,
      "note": 73,
      "start": 12.941,
      "duration": 0.0969,
      "velocity": 98,
      "chip": "ym2612"
    },
    {
      "channel": 2,
      "note": 82,
      "start": 12.9437,
      "duration": 0.0945,
      "velocity": 85,
      "chip": "ym2612"
    },
    {
      "channel": 1,
      "note": 78,
      "start": 12.9463,
      "duration": 0.0917,
      "velocity": 127,
      "chip": "ym2612"
    },
    {
      "channel": 0,
      "note": 74,
      "start": 13.0416,
      "duration": 0.1463,
      "velocity": 98,
      "chip": "ym2612"
    },
    {
      "channel": 3,
      "note": 59,
      "start": 13.0448,
      "duration": 0.2434,
      "velocity": 96,
      "chip": "ym2612"
    },
    {
      "channel": 2,
      "note": 82,
      "start": 13.0472,
      "duration": 0.1077,
      "velocity": 85,
      "chip": "ym2612"
    },
    {
      "channel": 1,
      "note": 66,
      "start": 13.0498,
      "duration": 0.1048,
      "velocity": 127,
      "chip": "ym2612"
    },
    {
      "channel": 1,
      "note": 73,
      "start": 13.1914,
      "duration": 0.0966,
      "velocity": 127,
      "chip": "ym2612"
    },
    {
      "channel": 0,
      "note": 76,
      "start": 13.291,
      "duration": 0.1135,
      "velocity": 98,
      "chip": "ym2612"
    },
    {
      "channel": 2,
      "note": 82,
      "start": 13.2937,
      "duration": 0.1111,
      "velocity": 85,
      "chip": "ym2612"
    },
    {
      "channel": 1,
      "note": 76,
      "start": 13.2963,
      "duration": 0.1083,
      "velocity": 127,
      "chip": "ym2612"
    },
    {
      "channel": 3,
      "note": 54,
      "start": 13.4412,
      "duration": 0.6135,
      "velocity": 96,
      "chip": "ym2612"
    },
    {
      "channel": 2,
      "note": 82,
      "start": 13.4441,
      "duration": 0.0941,
      "velocity": 85,
      "chip": "ym2612"
    },
    {
      "channel": 1,
      "note": 66,
      "start": 13.447,
      "duration": 0.091,
      "velocity": 127,
      "chip": "ym2612"
    },
    {
      "channel": 0,
      "note": 78,
      "start": 13.5409,
      "duration": 0.1303,
      "velocity": 98,
      "chip": "ym2612"
    },
    {
      "channel": 1,
      "note": 78,
      "start": 13.5439,
      "duration": 0.1107,
      "velocity": 127,
      "chip": "ym2612"
    },
    {
      "channel": 2,
      "note": 82,
      "start": 13.6911,
      "duration": 0.0971,
      "velocity": 85,
      "chip": "ym2612"
    },
    {
      "channel": 1,
      "note": 66,
      "start": 13.6936,
      "duration": 0.0943,
      "velocity": 127,
      "chip": "ym2612"
    },
    {
      "channel": 0,
      "note": 83,
      "start": 13.7911,
      "duration": 0.147,
      "velocity": 98,
      "chip": "ym2612"
    },
    {
      "channel": 2,
      "note": 82,
      "start": 13.7938,
      "duration": 0.1111,
      "velocity": 85,
      "chip": "ym2612"
    },
    {
      "channel": 1,
      "note": 71,
      "start": 13.7964,
      "duration": 0.1082,
      "velocity": 127,
      "chip": "ym2612"
    },
    {
      "channel": 0,
      "note": 82,
      "start": 13.9413,
      "duration": 0.4968,
      "velocity": 98,
      "chip": "ym2612"
    },
    {
      "channel": 1,
      "note": 78,
      "start": 13.9443,
      "duration": 0.1103,
      "velocity": 127,
      "chip": "ym2612"
    },
    {
      "channel": 3,
      "note": 60,
      "start": 14.0582,
      "duration": 0.2467,
      "velocity": 96,
      "chip": "ym2612"
    },
    {
      "channel": 2,
      "note": 82,
      "start": 14.0604,
      "duration": 0.0946,
      "velocity": 85,
      "chip": "ym2612"
    },
    {
      "channel": 1,
      "note": 66,
      "start": 14.063,
      "duration": 0.0917,
      "velocity": 127,
      "chip": "ym2612"
    },
    {
      "channel": 4,
      "note": 90,
      "start": 14.1755,
      "duration": 0.1295,
      "velocity": 127,
      "chip": "ym2612"
    },
    {
      "channel": 5,
      "note": 79,
      "start": 14.1915,
      "duration": 0.0802,
      "velocity": 101,
      "chip": "ym2612"
    },
    {
      "channel": 1,
      "note": 74,
      "start": 14.1942,
      "duration": 0.0772,
      "velocity": 101,
      "chip": "ym2612"
    },
    {
      "channel": 2,
      "note": 73,
      "start": 14.1974,
      "duration": 0.1078,
      "velocity": 127,
      "chip": "ym2612"
    },
    {
      "channel": 1,
      "note": 82,
      "start": 14.3084,
      "duration": 0.0964,
      "velocity": 101,
      "chip": "ym2612"
    },
    {
      "channel": 5,
      "note": 76,
      "start": 14.3114,
      "duration": 0.0937,
      "velocity": 101,
      "chip": "ym2612"
    },
    {
      "channel": 2,
      "note": 82,
      "start": 14.314,
      "duration": 0.0913,
      "velocity": 85,
      "chip": "ym2612"
    },
    {
      "channel": 3,
      "note": 76,
      "start": 14.3167,
      "duration": 0.0882,
      "velocity": 127,
      "chip": "ym2612"
    },
    {
      "channel": 4,
      "note": 85,
      "start": 14.4254,
      "duration": 0.1295,
      "velocity": 127,
      "chip": "ym2612"
    },
    {
      "channel": 1,
      "note": 86,
      "start": 14.4416,
      "duration": 0.0798,
      "velocity": 101,
      "chip": "ym2612"
    },
    {
      "channel": 5,
      "note": 79,
      "start": 14.4444,
      "duration": 0.0772,
      "velocity": 101,
      "chip": "ym2612"
    },
    {
      "channel": 3,
      "note": 78,
      "start": 14.4477,
      "duration": 0.1071,
      "velocity": 127,
      "chip": "ym2612"
    },
    {
      "channel": 1,
      "note": 88,
      "start": 14.5582,
      "duration": 0.0965,
      "velocity": 101,
      "chip": "ym2612"
    },
    {
      "channel": 5,
      "note": 82,
      "start": 14.5609,
      "duration": 0.094,
      "velocity": 101,
      "chip": "ym2612"
    },
    {
      "channel": 4,
      "note": 90,
      "start": 14.5649,
      "duration": 0.0399,
      "velocity": 127,
      "chip": "ym2612"
    },
    {
      "channel": 2,
      "note": 55,
      "start": 14.5675,
      "duration": 0.0006,
      "velocity": 96,
      "chip": "ym2612"
    },
    {
      "channel": 2,
      "note": 82,
      "start": 14.57,
      "duration": 0.0851,
      "velocity": 85,
      "chip": "ym2612"
    },
    {
      "channel": 3,
      "note": 66,
      "start": 14.5729,
      "duration": 0.0819,
      "velocity": 127,
      "chip": "ym2612"
    },
    {
      "channel": 4,
      "note": 90,
      "start": 14.6086,
      "duration": 0.0628,
      "velocity": 127,
      "chip": "ym2612"
    },
    {
      "channel": 4,
      "note": 90,
      "start": 14.6752,
      "duration": 0.0629,
      "velocity": 127,
      "chip": "ym2612"
    },
    {
      "channel": 1,
      "note": 86,
      "start": 14.6914,
      "duration": 0.0634,
      "velocity": 101,
      "chip": "ym2612"
    },
    {
      "channel": 5,
      "note": 79,
      "start": 14.6944,
      "duration": 0.0605,
      "velocity": 101,
      "chip": "ym2612"
    },
    {
      "channel": 2,
      "note": 82,
      "start": 14.6971,
      "duration": 0.1079,
      "velocity": 85,
      "chip": "ym2612"
    },
    {
      "channel": 4,
      "note": 90,
      "start": 14.742,
      "duration": 0.0629,
      "velocity": 127,
      "chip": "ym2612"
    },
    {
      "channel": 4,
      "note": 85,
      "start": 14.809,
      "duration": 0.1124,
      "velocity": 127,
      "chip": "ym2612"
    },
    {
      "channel": 3,
      "note": 71,
      "start": 14.8119,
      "duration": 0.0929,
      "velocity": 127,
      "chip": "ym2612"
    },
    {
      "channel": 4,
      "note": 90,
      "start": 14.9254,
      "duration": 0.1295,
      "velocity": 127,
      "chip": "ym2612"
    },
    {
      "channel": 1,
      "note": 79,
      "start": 14.9414,
      "duration": 0.08,
      "velocity": 101,
      "chip": "ym2612"
    },
    {
      "channel": 5,
      "note": 74,
      "start": 14.9441,
      "duration": 0.0775,
      "velocity": 101,
      "chip": "ym2612"
    },
    {
      "channel": 2,
      "note": 82,
      "start": 14.9468,
      "duration": 0.1083,
      "velocity": 85,
      "chip": "ym2612"
    },
    {
      "channel": 3,
      "note": 78,
      "start": 14.9494,
      "duration": 0.1054,
      "velocity": 127,
      "chip": "ym2612"
    },
    {
      "channel": 1,
      "note": 82,
      "start": 15.0582,
      "duration": 0.0965,
      "velocity": 101,
      "chip": "ym2612"
    },
    {
      "channel": 5,
      "note": 76,
      "start": 15.061,
      "duration": 0.0939,
      "velocity": 101,
      "chip": "ym2612"
    },
    {
      "channel": 0,
      "note": 60,
      "start": 15.0639,
      "duration": 0.2407,
      "velocity": 96,
      "chip": "ym2612"
    },
    {
      "channel": 2,
      "note": 82,
      "start": 15.0663,
      "duration": 0.0888,
      "velocity": 85,
      "chip": "ym2612"
    },
    {
      "channel": 3,
      "note": 66,
      "start": 15.0689,
      "duration": 0.0859,
      "velocity": 127,
      "chip": "ym2612"
    },
    {
      "channel": 4,
      "note": 90,
      "start": 15.1752,
      "duration": 0.1298,
      "velocity": 127,
      "chip": "ym2612"
    },
    {
      "channel": 1,
      "note": 86,
      "start": 15.208,
      "duration": 0.08,
      "velocity": 101,
      "chip": "ym2612"
    },
    {
      "channel": 5,
      "note": 79,
      "start": 15.2108,
      "duration": 0.0775,
      "velocity": 101,
      "chip": "ym2612"
    },
    {
      "channel": 3,
      "note": 73,
      "start": 15.2137,
      "duration": 0.091,
      "velocity": 127,
      "chip": "ym2612"
    },
    {
      "channel": 1,
      "note": 88,
      "start": 15.3085,
      "duration": 0.0961,
      "velocity": 101,
      "chip": "ym2612"
    },
    {
      "channel": 5,
      "note": 82,
      "start": 15.3113,
      "duration": 0.0936,
      "velocity": 101,
      "chip": "ym2612"
    },
    {
      "channel": 2,
      "note": 82,
      "start": 15.3144,
      "duration": 0.0907,
      "velocity": 85,
      "chip": "ym2612"
    },
    {
      "channel": 3,
      "note": 76,
      "start": 15.317,
      "duration": 0.0878,
      "velocity": 127,
      "chip": "ym2612"
    },
    {
      "channel": 4,
      "note": 85,
      "start": 15.4253,
      "duration": 0.1295,
      "velocity": 127,
      "chip": "ym2612"
    },
    {
      "channel": 1,
      "note": 86,
      "start": 15.458,
      "duration": 0.08,
      "velocity": 101,
      "chip": "ym2612"
    },
    {
      "channel": 5,
      "note": 79,
      "start": 15.4607,
      "duration": 0.0775,
      "velocity": 101,
      "chip": "ym2612"
    },
    {
      "channel": 0,
      "note": 55,
      "start": 15.4634,
      "duration": 0.5911,
      "velocity": 96,
      "chip": "ym2612"
    },
    {
      "channel": 2,
      "note": 82,
      "start": 15.4659,
      "duration": 0.0891,
      "velocity": 85,
      "chip": "ym2612"
    },
    {
      "channel": 3,
      "note": 66,
      "start": 15.4685,
      "duration": 0.0862,
      "velocity": 127,
      "chip": "ym2612"
    },
    {
      "channel": 4,
      "note": 90,
      "start": 15.559,
      "duration": 0.0625,
      "velocity": 127,
      "chip": "ym2612"
    },
    {
      "channel": 3,
      "note": 78,
      "start": 15.5622,
      "duration": 0.0925,
      "velocity": 127,
      "chip": "ym2612"
    },
    {
      "channel": 4,
      "note": 90,
      "start": 15.6256,
      "duration": 0.0459,
      "velocity": 127,
      "chip": "ym2612"
    },
    {
      "channel": 4,
      "note": 90,
      "start": 15.6753,
      "duration": 0.0628,
      "velocity": 127,
      "chip": "ym2612"
    },
    {
      "channel": 1,
      "note": 89,
      "start": 15.7078,
      "duration": 0.0801,
      "velocity": 101,
      "chip": "ym2612"
    },
    {
      "channel": 5,
      "note": 82,
      "start": 15.7107,
      "duration": 0.0775,
      "velocity": 101,
      "chip": "ym2612"
    },
    {
      "channel": 2,
      "note": 82,
      "start": 15.7133,
      "duration": 0.0917,
      "velocity": 85,
      "chip": "ym2612"
    },
    {
      "channel": 3,
      "note": 66,
      "start": 15.7159,
      "duration": 0.0889,
      "velocity": 127,
      "chip": "ym2612"
    },
    {
      "channel": 4,
      "note": 90,
      "start": 15.7419,
      "duration": 0.063,
      "velocity": 127,
      "chip": "ym2612"
    },
    {
      "channel": 4,
      "note": 85,
      "start": 15.8091,
      "duration": 0.1123,
      "velocity": 127,
      "chip": "ym2612"
    },
    {
      "channel": 2,
      "note": 82,
      "start": 15.8116,
      "duration": 0.0934,
      "velocity": 85,
      "chip": "ym2612"
    },
    {
      "channel": 3,
      "note": 71,
      "start": 15.8143,
      "duration": 0.0905,
      "velocity": 127,
      "chip": "ym2612"
    },
    {
      "channel": 4,
      "note": 90,
      "start": 15.9253,
      "duration": 0.1297,
      "velocity": 127,
      "chip": "ym2612"
    },
    {
      "channel": 1,
      "note": 70,
      "start": 15.9584,
      "duration": 0.0963,
      "velocity": 98,
      "chip": "ym2612"
    },
    {
      "channel": 3,
      "note": 78,
      "start": 15.9614,
      "duration": 0.0935,
      "velocity": 127,
      "chip": "ym2612"
    },
    {
      "channel": 1,
      "note": 71,
      "start": 16.058,
      "duration": 0.1467,
      "velocity": 98,
      "chip": "ym2612"
    },
    {
      "channel": 4,
      "note": 85,
      "start": 16.0617,
      "duration": 0.1264,
      "velocity": 127,
      "chip": "ym2612"
    },
    {
      "channel": 0,
      "note": 59,
      "start": 16.0647,
      "duration": 0.2399,
      "velocity": 96,
      "chip": "ym2612"
    },
    {
      "channel": 2,
      "note": 82,
      "start": 16.067,
      "duration": 0.088,
      "velocity": 85,
      "chip": "ym2612"
    },
    {
      "channel": 3,
      "note": 66,
      "start": 16.0697,
      "duration": 0.0851,
      "velocity": 127,
      "chip": "ym2612"
    },
    {
      "channel": 3,
      "note": 73,
      "start": 16.2082,
      "duration": 0.0966,
      "velocity": 127,
      "chip": "ym2612"
    },
    {
      "channel": 2,
      "note": 82,
      "start": 16.3078,
      "duration": 0.0971,
      "velocity": 85,
      "chip": "ym2612"
    },
    {
      "channel": 3,
      "note": 76,
      "start": 16.3105,
      "duration": 0.0943,
      "velocity": 127,
      "chip": "ym2612"
    },
    {
      "channel": 1,
      "note": 73,
      "start": 16.4578,
      "duration": 0.0968,
      "velocity": 98,
      "chip": "ym2612"
    },
    {
      "channel": 3,
      "note": 78,
      "start": 16.4608,
      "duration": 0.0939,
      "velocity": 127,
      "chip": "ym2612"
    },
    {
      "channel": 1,
      "note": 74,
      "start": 16.5578,
      "duration": 0.1468,
      "velocity": 98,
      "chip": "ym2612"
    },
    {
      "channel": 0,
      "note": 54,
      "start": 16.5604,
      "duration": 0.2441,
      "velocity": 96,
      "chip": "ym2612"
    },
    {
      "channel": 2,
      "note": 82,
      "start": 16.5628,
      "duration": 0.0921,
      "velocity": 85,
      "chip": "ym2612"
    },
    {
      "channel": 3,
      "note": 66,
      "start": 16.5658,
      "duration": 0.0888,
      "velocity": 127,
      "chip": "ym2612"
    },
    {
      "channel": 2,
      "note": 82,
      "start": 16.7078,
      "duration": 0.097,
      "velocity": 85,
      "chip": "ym2612"
    },
    {
      "channel": 3,
      "note": 71,
      "start": 16.8081,
      "duration": 0.0965,
      "velocity": 127,
      "chip": "ym2612"
    },
    {
      "channel": 1,
      "note": 70,
      "start": 16.9577,
      "duration": 0.0969,
      "velocity": 98,
      "chip": "ym2612"
    },
    {
      "channel": 2,
      "note": 82,
      "start": 16.9604,
      "duration": 0.0945,
      "velocity": 85,
      "chip": "ym2612"
    },
    {
      "channel": 3,
      "note": 78,
      "start": 16.9631,
      "duration": 0.0917,
      "velocity": 127,
      "chip": "ym2612"
    },
    {
      "channel": 1,
      "note": 71,
      "start": 17.0583,
      "duration": 0.1463,
      "velocity": 98,
      "chip": "ym2612"
    },
    {
      "channel": 0,
      "note": 59,
      "start": 17.061,
      "duration": 0.2436,
      "velocity": 96,
      "chip": "ym2612"
    },
    {
      "channel": 2,
      "note": 82,
      "start": 17.0638,
      "duration": 0.0911,
      "velocity": 85,
      "chip": "ym2612"
    },
    {
      "channel": 3,
      "note": 66,
      "start": 17.0664,
      "duration": 0.0883,
      "velocity": 127,
      "chip": "ym2612"
    },
    {
      "channel": 3,
      "note": 73,
      "start": 17.2081,
      "duration": 0.0966,
      "velocity": 127,
      "chip": "ym2612"
    },
    {
      "channel": 1,
      "note": 73,
      "start": 17.3077,
      "duration": 0.1302,
      "velocity": 98,
      "chip": "ym2612"
    },
    {
      "channel": 2,
      "note": 82,
      "start": 17.3105,
      "duration": 0.111,
      "velocity": 85,
      "chip": "ym2612"
    },
    {
      "channel": 3,
      "note": 76,
      "start": 17.3131,
      "duration": 0.1081,
      "velocity": 127,
      "chip": "ym2612"
    },
    {
      "channel": 0,
      "note": 54,
      "start": 17.4577,
      "duration": 0.5968,
      "velocity": 96,
      "chip": "ym2612"
    },
    {
      "channel": 2,
      "note": 82,
      "start": 17.4602,
      "duration": 0.0946,
      "velocity": 85,
      "chip": "ym2612"
    },
    {
      "channel": 3,
      "note": 66,
      "start": 17.4628,
      "duration": 0.0917,
      "velocity": 127,
      "chip": "ym2612"
    },
    {
      "channel": 1,
      "note": 74,
      "start": 17.5576,
      "duration": 0.147,
      "velocity": 98,
      "chip": "ym2612"
    },
    {
      "channel": 3,
      "note": 78,
      "start": 17.5607,
      "duration": 0.1106,
      "velocity": 127,
      "chip": "ym2612"
    },
    {
      "channel": 2,
      "note": 82,
      "start": 17.7078,
      "duration": 0.0971,
      "velocity": 85,
      "chip": "ym2612"
    },
    {
      "channel": 3,
      "note": 66,
      "start": 17.7108,
      "duration": 0.0939,
      "velocity": 127,
      "chip": "ym2612"
    },
    {
      "channel": 1,
      "note": 76,
      "start": 17.8078,
      "duration": 0.1634,
      "velocity": 98,
      "chip": "ym2612"
    },
    {
      "channel": 2,
      "note": 82,
      "start": 17.8107,
      "duration": 0.1109,
      "velocity": 85,
      "chip": "ym2612"
    },
    {
      "channel": 3,
      "note": 71,
      "start": 17.8133,
      "duration": 0.1081,
      "velocity": 127,
      "chip": "ym2612"
    },
    {
      "channel": 5,
      "note": 78,
      "start": 17.9579,
      "duration": 0.1468,
      "velocity": 98,
      "chip": "ym2612"
    },
    {
      "channel": 3,
      "note": 78,
      "start": 17.9609,
      "duration": 0.0938,
      "velocity": 127,
      "chip": "ym2612"
    },
    {
      "channel": 0,
      "note": 55,
      "start": 18.058,
      "duration": 0.2632,
      "velocity": 96,
      "chip": "ym2612"
    },
    {
      "channel": 2,
      "note": 82,
      "start": 18.0603,
      "duration": 0.1112,
      "velocity": 85,
      "chip": "ym2612"
    },
    {
      "channel": 3,
      "note": 66,
      "start": 18.0629,
      "duration": 0.1083,
      "velocity": 127,
      "chip": "ym2612"
    },
    {
      "channel": 1,
      "note": 83,
      "start": 18.2078,
      "duration": 0.1967,
      "velocity": 98,
      "chip": "ym2612"
    },
    {
      "channel": 3,
      "note": 73,
      "start": 18.2109,
      "duration": 0.1106,
      "velocity": 127,
      "chip": "ym2612"
    },
    {
      "channel": 2,
      "note": 82,
      "start": 18.3245,
      "duration": 0.097,
      "velocity": 85,
      "chip": "ym2612"
    },
    {
      "channel": 3,
      "note": 76,
      "start": 18.3271,
      "duration": 0.0941,
      "velocity": 127,
      "chip": "ym2612"
    },
    {
      "channel": 4,
      "note": 90,
      "start": 18.4421,
      "duration": 0.0627,
      "velocity": 127,
      "chip": "ym2612"
    },
    {
      "channel": 5,
      "note": 86,
      "start": 18.4586,
      "duration": 0.1131,
      "velocity": 101,
      "chip": "ym2612"
    },
    {
      "channel": 0,
      "note": 79,
      "start": 18.4614,
      "duration": 0.1098,
      "velocity": 101,
      "chip": "ym2612"
    },
    {
      "channel": 3,
      "note": 78,
      "start": 18.4644,
      "duration": 0.1071,
      "velocity": 127,
      "chip": "ym2612"
    },
    {
      "channel": 4,
      "note": 90,
      "start": 18.5085,
      "duration": 0.063,
      "velocity": 127,
      "chip": "ym2612"
    },
    {
      "channel": 0,
      "note": 89,
      "start": 18.5748,
      "duration": 0.1132,
      "velocity": 101,
      "chip": "ym2612"
    },
    {
      "channel": 5,
      "note": 81,
      "start": 18.5776,
      "duration": 0.1107,
      "velocity": 101,
      "chip": "ym2612"
    },
    {
      "channel": 4,
      "note": 90,
      "start": 18.5809,
      "duration": 0.0405,
      "velocity": 127,
      "chip": "ym2612"
    },
    {
      "channel": 1,
      "note": 62,
      "start": 18.5835,
      "duration": 0.238,
      "velocity": 96,
      "chip": "ym2612"
    },
    {
      "channel": 2,
      "note": 82,
      "start": 18.5859,
      "duration": 0.0857,
      "velocity": 85,
      "chip": "ym2612"
    },
    {
      "channel": 3,
      "note": 66,
      "start": 18.5887,
      "duration": 0.0828,
      "velocity": 127,
      "chip": "ym2612"
    },
    {
      "channel": 4,
      "note": 90,
      "start": 18.6252,
      "duration": 0.063,
      "velocity": 127,
      "chip": "ym2612"
    },
    {
      "channel": 4,
      "note": 90,
      "start": 18.6925,
      "duration": 0.0623,
      "velocity": 127,
      "chip": "ym2612"
    },
    {
      "channel": 0,
      "note": 91,
      "start": 18.708,
      "duration": 0.1134,
      "velocity": 101,
      "chip": "ym2612"
    },
    {
      "channel": 5,
      "note": 83,
      "start": 18.7107,
      "duration": 0.1111,
      "velocity": 101,
      "chip": "ym2612"
    },
    {
      "channel": 2,
      "note": 82,
      "start": 18.7134,
      "duration": 0.1085,
      "velocity": 85,
      "chip": "ym2612"
    },
    {
      "channel": 4,
      "note": 90,
      "start": 18.7586,
      "duration": 0.063,
      "velocity": 127,
      "chip": "ym2612"
    },
    {
      "channel": 0,
      "note": 86,
      "start": 18.8249,
      "duration": 0.0964,
      "velocity": 101,
      "chip": "ym2612"
    },
    {
      "channel": 5,
      "note": 79,
      "start": 18.828,
      "duration": 0.0936,
      "velocity": 101,
      "chip": "ym2612"
    },
    {
      "channel": 4,
      "note": 85,
      "start": 18.8314,
      "duration": 0.04,
      "velocity": 127,
      "chip": "ym2612"
    },
    {
      "channel": 3,
      "note": 71,
      "start": 18.8346,
      "duration": 0.0869,
      "velocity": 127,
      "chip": "ym2612"
    },
    {
      "channel": 4,
      "note": 85,
      "start": 18.8752,
      "duration": 0.063,
      "velocity": 127,
      "chip": "ym2612"
    },
    {
      "channel": 4,
      "note": 85,
      "start": 18.942,
      "duration": 0.0628,
      "velocity": 127,
      "chip": "ym2612"
    },
    {
      "channel": 2,
      "note": 82,
      "start": 18.9583,
      "duration": 0.1134,
      "velocity": 85,
      "chip": "ym2612"
    },
    {
      "channel": 3,
      "note": 78,
      "start": 18.9609,
      "duration": 0.1106,
      "velocity": 127,
      "chip": "ym2612"
    },
    {
      "channel": 4,
      "note": 85,
      "start": 19.0085,
      "duration": 0.0631,
      "velocity": 127,
      "chip": "ym2612"
    },
    {
      "channel": 0,
      "note": 84,
      "start": 19.0748,
      "duration": 0.1132,
      "velocity": 101,
      "chip": "ym2612"
    },
    {
      "channel": 5,
      "note": 77,
      "start": 19.0776,
      "duration": 0.1107,
      "velocity": 101,
      "chip": "ym2612"
    },
    {
      "channel": 4,
      "note": 90,
      "start": 19.0809,
      "duration": 0.0406,
      "velocity": 127,
      "chip": "ym2612"
    },
    {
      "channel": 1,
      "note": 55,
      "start": 19.0834,
      "duration": 0.2378,
      "velocity": 96,
      "chip": "ym2612"
    },
    {
      "channel": 2,
      "note": 82,
      "start": 19.0859,
      "duration": 0.0857,
      "velocity": 85,
      "chip": "ym2612"
    },
    {
      "channel": 3,
      "note": 66,
      "start": 19.0886,
      "duration": 0.0827,
      "velocity": 127,
      "chip": "ym2612"
    },
    {
      "channel": 4,
      "note": 90,
      "start": 19.1252,
      "duration": 0.063,
      "velocity": 127,
      "chip": "ym2612"
    },
    {
      "channel": 4,
      "note": 90,
      "start": 19.1922,
      "duration": 0.0626,
      "velocity": 127,
      "chip": "ym2612"
    },
    {
      "channel": 3,
      "note": 73,
      "start": 19.2082,
      "duration": 0.1133,
      "velocity": 127,
      "chip": "ym2612"
    },
    {
      "channel": 4,
      "note": 90,
      "start": 19.2585,
      "duration": 0.063,
      "velocity": 127,
      "chip": "ym2612"
    },
    {
      "channel": 0,
      "note": 83,
      "start": 19.3246,
      "duration": 0.1133,
      "velocity": 101,
      "chip": "ym2612"
    },
    {
      "channel": 5,
      "note": 76,
      "start": 19.3274,
      "duration": 0.1109,
      "velocity": 101,
      "chip": "ym2612"
    },
    {
      "channel": 4,
      "note": 90,
      "start": 19.3307,
      "duration": 0.0574,
      "velocity": 127,
      "chip": "ym2612"
    },
    {
      "channel": 2,
      "note": 82,
      "start": 19.3332,
      "duration": 0.0883,
      "velocity": 85,
      "chip": "ym2612"
    },
    {
      "channel": 3,
      "note": 76,
      "start": 19.3359,
      "duration": 0.0855,
      "velocity": 127,
      "chip": "ym2612"
    },
    {
      "channel": 4,
      "note": 90,
      "start": 19.3918,
      "duration": 0.0463,
      "velocity": 127,
      "chip": "ym2612"
    },
    {
      "channel": 4,
      "note": 85,
      "start": 19.4423,
      "duration": 0.1292,
      "velocity": 127,
      "chip": "ym2612"
    },
    {
      "channel": 0,
      "note": 79,
      "start": 19.4745,
      "duration": 0.3635,
      "velocity": 101,
      "chip": "ym2612"
    },
    {
      "channel": 5,
      "note": 74,
      "start": 19.4773,
      "duration": 0.361,
      "velocity": 101,
      "chip": "ym2612"
    },
    {
      "channel": 1,
      "note": 57,
      "start": 19.4801,
      "duration": 0.5913,
      "velocity": 96,
      "chip": "ym2612"
    },
    {
      "channel": 2,
      "note": 82,
      "start": 19.4825,
      "duration": 0.0893,
      "velocity": 85,
      "chip": "ym2612"
    },
    {
      "channel": 3,
      "note": 66,
      "start": 19.4851,
      "duration": 0.0863,
      "velocity": 127,
      "chip": "ym2612"
    },
    {
      "channel": 3,
      "note": 78,
      "start": 19.575,
      "duration": 0.0964,
      "velocity": 127,
      "chip": "ym2612"
    },
    {
      "channel": 4,
      "note": 85,
      "start": 19.6919,
      "duration": 0.1296,
      "velocity": 127,
      "chip": "ym2612"
    },
    {
      "channel": 2,
      "note": 82,
      "start": 19.7246,
      "duration": 0.097,
      "velocity": 85,
      "chip": "ym2612"
    },
    {
      "channel": 3,
      "note": 66,
      "start": 19.7273,
      "duration": 0.0941,
      "velocity": 127,
      "chip": "ym2612"
    },
    {
      "channel": 2,
      "note": 82,
      "start": 19.8247,
      "duration": 0.0969,
      "velocity": 85,
      "chip": "ym2612"
    },
    {
      "channel": 3,
      "note": 71,
      "start": 19.8276,
      "duration": 0.0938,
      "velocity": 127,
      "chip": "ym2612"
    },
    {
      "channel": 4,
      "note": 85,
      "start": 19.9423,
      "duration": 0.1294,
      "velocity": 127,
      "chip": "ym2612"
    },
    {
      "channel": 3,
      "note": 78,
      "start": 19.9749,
      "duration": 0.0966,
      "velocity": 127,
      "chip": "ym2612"
    },
    {
      "channel": 1,
      "note": 59,
      "start": 20.0797,
      "duration": 0.2416,
      "velocity": 96,
      "chip": "ym2612"
    },
    {
      "channel": 2,
      "note": 82,
      "start": 20.0825,
      "duration": 0.0892,
      "velocity": 85,
      "chip": "ym2612"
    },
    {
      "channel": 3,
      "note": 66,
      "start": 20.0851,
      "duration": 0.0864,
      "velocity": 127,
      "chip": "ym2612"
    },
    {
      "channel": 2,
      "note": 82,
      "start": 20.2409,
      "duration": 0.0972,
      "velocity": 85,
      "chip": "ym2612"
    },
    {
      "channel": 3,
      "note": 66,
      "start": 20.3248,
      "duration": 0.0964,
      "velocity": 127,
      "chip": "ym2612"
    },
    {
      "channel": 2,
      "note": 82,
      "start": 20.4076,
      "duration": 0.0971,
      "velocity": 85,
      "chip": "ym2612"
    },
    {
      "channel": 3,
      "note": 71,
      "start": 20.4747,
      "duration": 0.0966,
      "velocity": 127,
      "chip": "ym2612"
    },
    {
      "channel": 1,
      "note": 54,
      "start": 20.5743,
      "duration": 0.2469,
      "velocity": 96,
      "chip": "ym2612"
    },
    {
      "channel": 2,
      "note": 82,
      "start": 20.5766,
      "duration": 0.0949,
      "velocity": 85,
      "chip": "ym2612"
    },
    {
      "channel": 3,
      "note": 66,
      "start": 20.5792,
      "duration": 0.0921,
      "velocity": 127,
      "chip": "ym2612"
    },
    {
      "channel": 3,
      "note": 76,
      "start": 20.7246,
      "duration": 0.0968,
      "velocity": 127,
      "chip": "ym2612"
    },
    {
      "channel": 2,
      "note": 82,
      "start": 20.7409,
      "duration": 0.0972,
      "velocity": 85,
      "chip": "ym2612"
    },
    {
      "channel": 3,
      "note": 73,
      "start": 20.8249,
      "duration": 0.0963,
      "velocity": 127,
      "chip": "ym2612"
    },
    {
      "channel": 2,
      "note": 82,
      "start": 20.9075,
      "duration": 0.0972,
      "velocity": 85,
      "chip": "ym2612"
    },
    {
      "channel": 3,
      "note": 71,
      "start": 20.975,
      "duration": 0.0963,
      "velocity": 127,
      "chip": "ym2612"
    },
    {
      "channel": 1,
      "note": 59,
      "start": 21.0745,
      "duration": 0.2468,
      "velocity": 96,
      "chip": "ym2612"
    },
    {
      "channel": 2,
      "note": 82,
      "start": 21.0769,
      "duration": 0.0947,
      "velocity": 85,
      "chip": "ym2612"
    },
    {
      "channel": 3,
      "note": 66,
      "start": 21.0795,
      "duration": 0.0919,
      "velocity": 127,
      "chip": "ym2612"
    },
    {
      "channel": 0,
      "note": 78,
      "start": 21.2246,
      "duration": 0.08,
      "velocity": 98,
      "chip": "ym2612"
    },
    {
      "channel": 5,
      "note": 68,
      "start": 21.2276,
      "duration": 0.0773,
      "velocity": 101,
      "chip": "ym2612"
    },
    {
      "channel": 4,
      "note": 59,
      "start": 21.231,
      "duration": 0.0738,
      "velocity": 98,
      "chip": "ym2612"
    },
    {
      "channel": 2,
      "note": 74,
      "start": 21.2345,
      "duration": 0.0705,
      "velocity": 96,
      "chip": "ym2612"
    },
    {
      "channel": 0,
      "note": 79,
      "start": 21.3245,
      "duration": 0.0634,
      "velocity": 98,
      "chip": "ym2612"
    },
    {
      "channel": 5,
      "note": 70,
      "start": 21.3275,
      "duration": 0.0607,
      "velocity": 101,
      "chip": "ym2612"
    },
    {
      "channel": 4,
      "note": 61,
      "start": 21.3304,
      "duration": 0.0576,
      "velocity": 98,
      "chip": "ym2612"
    },
    {
      "channel": 2,
      "note": 76,
      "start": 21.3337,
      "duration": 0.0546,
      "velocity": 96,
      "chip": "ym2612"
    },
    {
      "channel": 3,
      "note": 73,
      "start": 21.3363,
      "duration": 0.0851,
      "velocity": 127,
      "chip": "ym2612"
    },
    {
      "channel": 0,
      "note": 81,
      "start": 21.4074,
      "duration": 0.0638,
      "velocity": 98,
      "chip": "ym2612"
    },
    {
      "channel": 5,
      "note": 71,
      "start": 21.4101,
      "duration": 0.0614,
      "velocity": 101,
      "chip": "ym2612"
    },
    {
      "channel": 4,
      "note": 62,
      "start": 21.4128,
      "duration": 0.0586,
      "velocity": 98,
      "chip": "ym2612"
    },
    {
      "channel": 2,
      "note": 77,
      "start": 21.4157,
      "duration": 0.056,
      "velocity": 96,
      "chip": "ym2612"
    },
    {
      "channel": 1,
      "note": 57,
      "start": 21.4749,
      "duration": 0.5963,
      "velocity": 96,
      "chip": "ym2612"
    },
    {
      "channel": 3,
      "note": 66,
      "start": 21.4776,
      "duration": 0.0937,
      "velocity": 127,
      "chip": "ym2612"
    },
    {
      "channel": 0,
      "note": 82,
      "start": 21.4907,
      "duration": 0.0638,
      "velocity": 98,
      "chip": "ym2612"
    },
    {
      "channel": 5,
      "note": 73,
      "start": 21.4934,
      "duration": 0.0615,
      "velocity": 101,
      "chip": "ym2612"
    },
    {
      "channel": 4,
      "note": 64,
      "start": 21.496,
      "duration": 0.0587,
      "velocity": 98,
      "chip": "ym2612"
    },
    {
      "channel": 2,
      "note": 79,
      "start": 21.4989,
      "duration": 0.0561,
      "velocity": 96,
      "chip": "ym2612"
    },
    {
      "channel": 0,
      "note": 83,
      "start": 21.5745,
      "duration": 0.1134,
      "velocity": 98,
      "chip": "ym2612"
    },
    {
      "channel": 5,
      "note": 74,
      "start": 21.5775,
      "duration": 0.1108,
      "velocity": 101,
      "chip": "ym2612"
    },
    {
      "channel": 4,
      "note": 65,
      "start": 21.5805,
      "duration": 0.1077,
      "velocity": 98,
      "chip": "ym2612"
    },
    {
      "channel": 2,
      "note": 81,
      "start": 21.5837,
      "duration": 0.1048,
      "velocity": 96,
      "chip": "ym2612"
    },
    {
      "channel": 3,
      "note": 73,
      "start": 21.5862,
      "duration": 0.1018,
      "velocity": 127,
      "chip": "ym2612"
    },
    {
      "channel": 0,
      "note": 86,
      "start": 21.7248,
      "duration": 0.0798,
      "velocity": 98,
      "chip": "ym2612"
    },
    {
      "channel": 5,
      "note": 77,
      "start": 21.7282,
      "duration": 0.0767,
      "velocity": 101,
      "chip": "ym2612"
    },
    {
      "channel": 4,
      "note": 68,
      "start": 21.7311,
      "duration": 0.0737,
      "velocity": 98,
      "chip": "ym2612"
    },
    {
      "channel": 2,
      "note": 83,
      "start": 21.7344,
      "duration": 0.0707,
      "velocity": 96,
      "chip": "ym2612"
    },
    {
      "channel": 3,
      "note": 76,
      "start": 21.737,
      "duration": 0.0843,
      "velocity": 127,
      "chip": "ym2612"
    },
    {
      "channel": 0,
      "note": 87,
      "start": 21.8245,
      "duration": 0.1134,
      "velocity": 98,
      "chip": "ym2612"
    },
    {
      "channel": 5,
      "note": 78,
      "start": 21.8275,
      "duration": 0.1108,
      "velocity": 101,
      "chip": "ym2612"
    },
    {
      "channel": 4,
      "note": 69,
      "start": 21.8304,
      "duration": 0.1077,
      "velocity": 98,
      "chip": "ym2612"
    },
    {
      "channel": 2,
      "note": 84,
      "start": 21.834,
      "duration": 0.1044,
      "velocity": 96,
      "chip": "ym2612"
    },
    {
      "channel": 3,
      "note": 66,
      "start": 21.8366,
      "duration": 0.1014,
      "velocity": 127,
      "chip": "ym2612"
    },
    {
      "channel": 0,
      "note": 88,
      "start": 21.9743,
      "duration": 0.0802,
      "velocity": 98,
      "chip": "ym2612"
    },
    {
      "channel": 5,
      "note": 79,
      "start": 21.9774,
      "duration": 0.0775,
      "velocity": 101,
      "chip": "ym2612"
    },
    {
      "channel": 4,
      "note": 70,
      "start": 21.9807,
      "duration": 0.0741,
      "velocity": 98,
      "chip": "ym2612"
    },
    {
      "channel": 2,
      "note": 85,
      "start": 21.9839,
      "duration": 0.0711,
      "velocity": 96,
      "chip": "ym2612"
    },
    {
      "channel": 3,
      "note": 71,
      "start": 21.9865,
      "duration": 0.0849,
      "velocity": 127,
      "chip": "ym2612"
    },
    {
      "channel": 0,
      "note": 89,
      "start": 22.0745,
      "duration": 0.4635,
      "velocity": 98,
      "chip": "ym2612"
    },
    {
      "channel": 5,
      "note": 81,
      "start": 22.0775,
      "duration": 0.4608,
      "velocity": 101,
      "chip": "ym2612"
    },
    {
      "channel": 4,
      "note": 71,
      "start": 22.0805,
      "duration": 0.4577,
      "velocity": 98,
      "chip": "ym2612"
    },
    {
      "channel": 1,
      "note": 62,
      "start": 22.0832,
      "duration": 0.2381,
      "velocity": 96,
      "chip": "ym2612"
    },
    {
      "channel": 2,
      "note": 86,
      "start": 22.0863,
      "duration": 0.4522,
      "velocity": 96,
      "chip": "ym2612"
    },
    {
      "channel": 3,
      "note": 66,
      "start": 22.0894,
      "duration": 0.0987,
      "velocity": 127,
      "chip": "ym2612"
    },
    {
      "channel": 3,
      "note": 73,
      "start": 22.3248,
      "duration": 0.1132,
      "velocity": 127,
      "chip": "ym2612"
    },
    {
      "channel": 3,
      "note": 76,
      "start": 22.4746,
      "duration": 0.1134,
      "velocity": 127,
      "chip": "ym2612"
    },
    {
      "channel": 0,
      "note": 83,
      "start": 22.5909,
      "duration": 0.447,
      "velocity": 98,
      "chip": "ym2612"
    },
    {
      "channel": 5,
      "note": 74,
      "start": 22.5937,
      "duration": 0.4445,
      "velocity": 101,
      "chip": "ym2612"
    },
    {
      "channel": 4,
      "note": 65,
      "start": 22.5964,
      "duration": 0.4417,
      "velocity": 98,
      "chip": "ym2612"
    },
    {
      "channel": 1,
      "note": 57,
      "start": 22.5988,
      "duration": 0.2392,
      "velocity": 96,
      "chip": "ym2612"
    },
    {
      "channel": 2,
      "note": 81,
      "start": 22.6016,
      "duration": 0.4368,
      "velocity": 96,
      "chip": "ym2612"
    },
    {
      "channel": 3,
      "note": 66,
      "start": 22.6043,
      "duration": 0.0837,
      "velocity": 127,
      "chip": "ym2612"
    },
    {
      "channel": 3,
      "note": 73,
      "start": 22.8416,
      "duration": 0.0964,
      "velocity": 127,
      "chip": "ym2612"
    },
    {
      "channel": 3,
      "note": 76,
      "start": 22.9746,
      "duration": 0.1134,
      "velocity": 127,
      "chip": "ym2612"
    },
    {
      "channel": 0,
      "note": 82,
      "start": 23.0913,
      "duration": 0.0966,
      "velocity": 98,
      "chip": "ym2612"
    },
    {
      "channel": 5,
      "note": 73,
      "start": 23.0943,
      "duration": 0.0941,
      "velocity": 101,
      "chip": "ym2612"
    },
    {
      "channel": 4,
      "note": 64,
      "start": 23.0973,
      "duration": 0.0909,
      "velocity": 98,
      "chip": "ym2612"
    },
    {
      "channel": 1,
      "note": 62,
      "start": 23.0998,
      "duration": 0.2381,
      "velocity": 96,
      "chip": "ym2612"
    },
    {
      "channel": 2,
      "note": 79,
      "start": 23.1029,
      "duration": 0.0856,
      "velocity": 96,
      "chip": "ym2612"
    },
    {
      "channel": 3,
      "note": 66,
      "start": 23.1056,
      "duration": 0.0824,
      "velocity": 127,
      "chip": "ym2612"
    },
    {
      "channel": 0,
      "note": 81,
      "start": 23.341,
      "duration": 0.097,
      "velocity": 98,
      "chip": "ym2612"
    },
    {
      "channel": 5,
      "note": 71,
      "start": 23.3443,
      "duration": 0.0941,
      "velocity": 101,
      "chip": "ym2612"
    },
    {
      "channel": 4,
      "note": 62,
      "start": 23.3471,
      "duration": 0.0912,
      "velocity": 98,
      "chip": "ym2612"
    },
    {
      "channel": 2,
      "note": 77,
      "start": 23.3502,
      "duration": 0.0884,
      "velocity": 96,
      "chip": "ym2612"
    },
    {
      "channel": 3,
      "note": 73,
      "start": 23.3528,
      "duration": 0.0853,
      "velocity": 127,
      "chip": "ym2612"
    },
    {
      "channel": 0,
      "note": 77,
      "start": 23.4748,
      "duration": 0.0798,
      "velocity": 98,
      "chip": "ym2612"
    },
    {
      "channel": 5,
      "note": 69,
      "start": 23.4778,
      "duration": 0.0772,
      "velocity": 101,
      "chip": "ym2612"
    },
    {
      "channel": 4,
      "note": 59,
      "start": 23.4807,
      "duration": 0.0741,
      "velocity": 98,
      "chip": "ym2612"
    },
    {
      "channel": 1,
      "note": 57,
      "start": 23.4838,
      "duration": 0.6042,
      "velocity": 96,
      "chip": "ym2612"
    },
    {
      "channel": 2,
      "note": 74,
      "start": 23.4869,
      "duration": 0.0682,
      "velocity": 96,
      "chip": "ym2612"
    },
    {
      "channel": 3,
      "note": 66,
      "start": 23.49,
      "duration": 0.098,
      "velocity": 127,
      "chip": "ym2612"
    },
    {
      "channel": 3,
      "note": 73,
      "start": 23.5916,
      "duration": 0.0963,
      "velocity": 127,
      "chip": "ym2612"
    },
    {
      "channel": 3,
      "note": 76,
      "start": 23.7414,
      "duration": 0.0966,
      "velocity": 127,
      "chip": "ym2612"
    },
    {
      "channel": 3,
      "note": 66,
      "start": 23.8416,
      "duration": 0.0964,
      "velocity": 127,
      "chip": "ym2612"
    },
    {
      "channel": 3,
      "note": 78,
      "start": 23.9914,
      "duration": 0.0968,
      "velocity": 127,
      "chip": "ym2612"
    },
    {
      "channel": 1,
      "note": 58,
      "start": 24.0916,
      "duration": 0.2464,
      "velocity": 96,
      "chip": "ym2612"
    },
    {
      "channel": 3,
      "note": 66,
      "start": 24.0943,
      "duration": 0.0938,
      "velocity": 127,
      "chip": "ym2612"
    },
    {
      "channel": 0,
      "note": 89,
      "start": 24.2409,
      "duration": 0.0803,
      "velocity": 98,
      "chip": "ym2612"
    },
    {
      "channel": 5,
      "note": 79,
      "start": 24.2438,
      "duration": 0.0778,
      "velocity": 101,
      "chip": "ym2612"
    },
    {
      "channel": 4,
      "note": 70,
      "start": 24.2466,
      "duration": 0.0748,
      "velocity": 98,
      "chip": "ym2612"
    },
    {
      "channel": 2,
      "note": 86,
      "start": 24.25,
      "duration": 0.0717,
      "velocity": 96,
      "chip": "ym2612"
    },
    {
      "channel": 0,
      "note": 88,
      "start": 24.3412,
      "duration": 0.0968,
      "velocity": 98,
      "chip": "ym2612"
    },
    {
      "channel": 5,
      "note": 78,
      "start": 24.3442,
      "duration": 0.0942,
      "velocity": 101,
      "chip": "ym2612"
    },
    {
      "channel": 4,
      "note": 69,
      "start": 24.3476,
      "duration": 0.0907,
      "velocity": 98,
      "chip": "ym2612"
    },
    {
      "channel": 2,
      "note": 85,
      "start": 24.3507,
      "duration": 0.0878,
      "velocity": 96,
      "chip": "ym2612"
    },
    {
      "channel": 3,
      "note": 73,
      "start": 24.3534,
      "duration": 0.0847,
      "velocity": 127,
      "chip": "ym2612"
    },
    {
      "channel": 0,
      "note": 89,
      "start": 24.491,
      "duration": 0.0802,
      "velocity": 98,
      "chip": "ym2612"
    },
    {
      "channel": 5,
      "note": 79,
      "start": 24.4941,
      "duration": 0.0775,
      "velocity": 101,
      "chip": "ym2612"
    },
    {
      "channel": 4,
      "note": 70,
      "start": 24.4971,
      "duration": 0.0744,
      "velocity": 98,
      "chip": "ym2612"
    },
    {
      "channel": 2,
      "note": 86,
      "start": 24.5003,
      "duration": 0.0714,
      "velocity": 96,
      "chip": "ym2612"
    },
    {
      "channel": 3,
      "note": 76,
      "start": 24.5029,
      "duration": 0.0851,
      "velocity": 127,
      "chip": "ym2612"
    },
    {
      "channel": 0,
      "note": 86,
      "start": 24.5912,
      "duration": 0.0966,
      "velocity": 98,
      "chip": "ym2612"
    },
    {
      "channel": 5,
      "note": 77,
      "start": 24.5942,
      "duration": 0.0941,
      "velocity": 101,
      "chip": "ym2612"
    },
    {
      "channel": 4,
      "note": 67,
      "start": 24.5972,
      "duration": 0.091,
      "velocity": 98,
      "chip": "ym2612"
    },
    {
      "channel": 1,
      "note": 53,
      "start": 24.5996,
      "duration": 0.2383,
      "velocity": 96,
      "chip": "ym2612"
    },
    {
      "channel": 2,
      "note": 82,
      "start": 24.6027,
      "duration": 0.0858,
      "velocity": 96,
      "chip": "ym2612"
    },
    {
      "channel": 3,
      "note": 66,
      "start": 24.6058,
      "duration": 0.0822,
      "velocity": 127,
      "chip": "ym2612"
    },
    {
      "channel": 0,
      "note": 79,
      "start": 24.7414,
      "duration": 0.0798,
      "velocity": 98,
      "chip": "ym2612"
    },
    {
      "channel": 5,
      "note": 70,
      "start": 24.7448,
      "duration": 0.0768,
      "velocity": 101,
      "chip": "ym2612"
    },
    {
      "channel": 4,
      "note": 62,
      "start": 24.7477,
      "duration": 0.0737,
      "velocity": 98,
      "chip": "ym2612"
    },
    {
      "channel": 2,
      "note": 77,
      "start": 24.751,
      "duration": 0.0707,
      "velocity": 96,
      "chip": "ym2612"
    },
    {
      "channel": 3,
      "note": 73,
      "start": 24.8416,
      "duration": 0.0964,
      "velocity": 127,
      "chip": "ym2612"
    },
    {
      "channel": 3,
      "note": 76,
      "start": 24.9915,
      "duration": 0.0966,
      "velocity": 127,
      "chip": "ym2612"
    },
    {
      "channel": 0,
      "note": 82,
      "start": 25.0912,
      "duration": 0.0966,
      "velocity": 98,
      "chip": "ym2612"
    },
    {
      "channel": 5,
      "note": 74,
      "start": 25.0943,
      "duration": 0.094,
      "velocity": 101,
      "chip": "ym2612"
    },
    {
      "channel": 4,
      "note": 65,
      "start": 25.0973,
      "duration": 0.0909,
      "velocity": 98,
      "chip": "ym2612"
    },
    {
      "channel": 1,
      "note": 58,
      "start": 25.0998,
      "duration": 0.2381,
      "velocity": 96,
      "chip": "ym2612"
    },
    {
      "channel": 2,
      "note": 79,
      "start": 25.1033,
      "duration": 0.0852,
      "velocity": 96,
      "chip": "ym2612"
    },
    {
      "channel": 3,
      "note": 66,
      "start": 25.1061,
      "duration": 0.082,
      "velocity": 127,
      "chip": "ym2612"
    },
    {
      "channel": 0,
      "note": 83,
      "start": 25.341,
      "duration": 0.0969,
      "velocity": 98,
      "chip": "ym2612"
    },
    {
      "channel": 5,
      "note": 75,
      "start": 25.3439,
      "duration": 0.0945,
      "velocity": 101,
      "chip": "ym2612"
    },
    {
      "channel": 4,
      "note": 66,
      "start": 25.3471,
      "duration": 0.0911,
      "velocity": 98,
      "chip": "ym2612"
    },
    {
      "channel": 2,
      "note": 80,
      "start": 25.3501,
      "duration": 0.0884,
      "velocity": 96,
      "chip": "ym2612"
    },
    {
      "channel": 3,
      "note": 73,
      "start": 25.3528,
      "duration": 0.0853,
      "velocity": 127,
      "chip": "ym2612"
    },
    {
      "channel": 0,
      "note": 85,
      "start": 25.4911,
      "duration": 0.2301,
      "velocity": 98,
      "chip": "ym2612"
    },
    {
      "channel": 5,
      "note": 76,
      "start": 25.4941,
      "duration": 0.2275,
      "velocity": 101,
      "chip": "ym2612"
    },
    {
      "channel": 4,
      "note": 67,
      "start": 25.4971,
      "duration": 0.2244,
      "velocity": 98,
      "chip": "ym2612"
    },
    {
      "channel": 1,
      "note": 53,
      "start": 25.4997,
      "duration": 0.5884,
      "velocity": 96,
      "chip": "ym2612"
    },
    {
      "channel": 2,
      "note": 81,
      "start": 25.5028,
      "duration": 0.2188,
      "velocity": 96,
      "chip": "ym2612"
    },
    {
      "channel": 3,
      "note": 66,
      "start": 25.5056,
      "duration": 0.0825,
      "velocity": 127,
      "chip": "ym2612"
    },
    {
      "channel": 3,
      "note": 73,
      "start": 25.5916,
      "duration": 0.0964,
      "velocity": 127,
      "chip": "ym2612"
    },
    {
      "channel": 3,
      "note": 76,
      "start": 25.7415,
      "duration": 0.0966,
      "velocity": 127,
      "chip": "ym2612"
    },
    {
      "channel": 0,
      "note": 79,
      "start": 25.8413,
      "duration": 0.1132,
      "velocity": 98,
      "chip": "ym2612"
    },
    {
      "channel": 5,
      "note": 70,
      "start": 25.8443,
      "duration": 0.1107,
      "velocity": 101,
      "chip": "ym2612"
    },
    {
      "channel": 4,
      "note": 61,
      "start": 25.8473,
      "duration": 0.1076,
      "velocity": 98,
      "chip": "ym2612"
    },
    {
      "channel": 2,
      "note": 76,
      "start": 25.8505,
      "duration": 0.1046,
      "velocity": 96,
      "chip": "ym2612"
    },
    {
      "channel": 3,
      "note": 66,
      "start": 25.8534,
      "duration": 0.1013,
      "velocity": 127,
      "chip": "ym2612"
    },
    {
      "channel": 3,
      "note": 78,
      "start": 25.9913,
      "duration": 0.0969,
      "velocity": 127,
      "chip": "ym2612"
    },
    {
      "channel": 0,
      "note": 83,
      "start": 26.0911,
      "duration": 0.1134,
      "velocity": 98,
      "chip": "ym2612"
    },
    {
      "channel": 5,
      "note": 74,
      "start": 26.0939,
      "duration": 0.1111,
      "velocity": 101,
      "chip": "ym2612"
    },
    {
      "channel": 4,
      "note": 65,
      "start": 26.0965,
      "duration": 0.1083,
      "velocity": 98,
      "chip": "ym2612"
    },
    {
      "channel": 1,
      "note": 62,
      "start": 26.0992,
      "duration": 0.2387,
      "velocity": 96,
      "chip": "ym2612"
    },
    {
      "channel": 2,
      "note": 81,
      "start": 26.102,
      "duration": 0.1032,
      "velocity": 96,
      "chip": "ym2612"
    },
    {
      "channel": 3,
      "note": 66,
      "start": 26.1047,
      "duration": 0.1,
      "velocity": 127,
      "chip": "ym2612"
    },
    {
      "channel": 0,
      "note": 89,
      "start": 26.3408,
      "duration": 0.1137,
      "velocity": 98,
      "chip": "ym2612"
    },
    {
      "channel": 5,
      "note": 81,
      "start": 26.3436,
      "duration": 0.1114,
      "velocity": 101,
      "chip": "ym2612"
    },
    {
      "channel": 4,
      "note": 71,
      "start": 26.3463,
      "duration": 0.1086,
      "velocity": 98,
      "chip": "ym2612"
    },
    {
      "channel": 2,
      "note": 86,
      "start": 26.3492,
      "duration": 0.1059,
      "velocity": 96,
      "chip": "ym2612"
    },
    {
      "channel": 3,
      "note": 73,
      "start": 26.3518,
      "duration": 0.1029,
      "velocity": 127,
      "chip": "ym2612"
    },
    {
      "channel": 3,
      "note": 76,
      "start": 26.4913,
      "duration": 0.0968,
      "velocity": 127,
      "chip": "ym2612"
    },
    {
      "channel": 0,
      "note": 83,
      "start": 26.5917,
      "duration": 0.2295,
      "velocity": 98,
      "chip": "ym2612"
    },
    {
      "channel": 5,
      "note": 74,
      "start": 26.5951,
      "duration": 0.2265,
      "velocity": 101,
      "chip": "ym2612"
    },
    {
      "channel": 4,
      "note": 65,
      "start": 26.598,
      "duration": 0.2234,
      "velocity": 98,
      "chip": "ym2612"
    },
    {
      "channel": 1,
      "note": 57,
      "start": 26.6004,
      "duration": 0.2542,
      "velocity": 96,
      "chip": "ym2612"
    },
    {
      "channel": 2,
      "note": 81,
      "start": 26.6035,
      "duration": 0.2182,
      "velocity": 96,
      "chip": "ym2612"
    },
    {
      "channel": 3,
      "note": 66,
      "start": 26.6063,
      "duration": 0.0983,
      "velocity": 127,
      "chip": "ym2612"
    },
    {
      "channel": 3,
      "note": 73,
      "start": 26.8582,
      "duration": 0.0964,
      "velocity": 127,
      "chip": "ym2612"
    },
    {
      "channel": 3,
      "note": 76,
      "start": 26.9914,
      "duration": 0.1132,
      "velocity": 127,
      "chip": "ym2612"
    },
    {
      "channel": 0,
      "note": 82,
      "start": 27.1078,
      "duration": 0.0967,
      "velocity": 98,
      "chip": "ym2612"
    },
    {
      "channel": 5,
      "note": 73,
      "start": 27.1109,
      "duration": 0.0941,
      "velocity": 101,
      "chip": "ym2612"
    },
    {
      "channel": 4,
      "note": 64,
      "start": 27.1139,
      "duration": 0.091,
      "velocity": 98,
      "chip": "ym2612"
    },
    {
      "channel": 1,
      "note": 62,
      "start": 27.1168,
      "duration": 0.2378,
      "velocity": 96,
      "chip": "ym2612"
    },
    {
      "channel": 2,
      "note": 79,
      "start": 27.1203,
      "duration": 0.0849,
      "velocity": 96,
      "chip": "ym2612"
    },
    {
      "channel": 3,
      "note": 66,
      "start": 27.1234,
      "duration": 0.0814,
      "velocity": 127,
      "chip": "ym2612"
    },
    {
      "channel": 0,
      "note": 81,
      "start": 27.241,
      "duration": 0.0802,
      "velocity": 98,
      "chip": "ym2612"
    },
    {
      "channel": 5,
      "note": 71,
      "start": 27.2441,
      "duration": 0.0775,
      "velocity": 101,
      "chip": "ym2612"
    },
    {
      "channel": 4,
      "note": 62,
      "start": 27.2474,
      "duration": 0.074,
      "velocity": 98,
      "chip": "ym2612"
    },
    {
      "channel": 2,
      "note": 77,
      "start": 27.2506,
      "duration": 0.0711,
      "velocity": 96,
      "chip": "ym2612"
    },
    {
      "channel": 3,
      "note": 73,
      "start": 27.3581,
      "duration": 0.0966,
      "velocity": 127,
      "chip": "ym2612"
    },
    {
      "channel": 0,
      "note": 82,
      "start": 27.4907,
      "duration": 0.0806,
      "velocity": 98,
      "chip": "ym2612"
    },
    {
      "channel": 5,
      "note": 73,
      "start": 27.4935,
      "duration": 0.0782,
      "velocity": 101,
      "chip": "ym2612"
    },
    {
      "channel": 4,
      "note": 64,
      "start": 27.4961,
      "duration": 0.0754,
      "velocity": 98,
      "chip": "ym2612"
    },
    {
      "channel": 1,
      "note": 57,
      "start": 27.4988,
      "duration": 0.6058,
      "velocity": 96,
      "chip": "ym2612"
    },
    {
      "channel": 2,
      "note": 79,
      "start": 27.5016,
      "duration": 0.0703,
      "velocity": 96,
      "chip": "ym2612"
    },
    {
      "channel": 3,
      "note": 66,
      "start": 27.5044,
      "duration": 0.1004,
      "velocity": 127,
      "chip": "ym2612"
    },
    {
      "channel": 3,
      "note": 73,
      "start": 27.6083,
      "duration": 0.0964,
      "velocity": 127,
      "chip": "ym2612"
    },
    {
      "channel": 0,
      "note": 81,
      "start": 27.7409,
      "duration": 0.197,
      "velocity": 98,
      "chip": "ym2612"
    },
    {
      "channel": 5,
      "note": 71,
      "start": 27.7438,
      "duration": 0.1944,
      "velocity": 101,
      "chip": "ym2612"
    },
    {
      "channel": 4,
      "note": 62,
      "start": 27.7466,
      "duration": 0.1915,
      "velocity": 98,
      "chip": "ym2612"
    },
    {
      "channel": 2,
      "note": 77,
      "start": 27.7497,
      "duration": 0.1887,
      "velocity": 96,
      "chip": "ym2612"
    },
    {
      "channel": 3,
      "note": 76,
      "start": 27.7522,
      "duration": 0.1025,
      "velocity": 127,
      "chip": "ym2612"
    },
    {
      "channel": 3,
      "note": 66,
      "start": 27.8583,
      "duration": 0.0964,
      "velocity": 127,
      "chip": "ym2612"
    },
    {
      "channel": 0,
      "note": 78,
      "start": 28.0077,
      "duration": 0.0803,
      "velocity": 98,
      "chip": "ym2612"
    },
    {
      "channel": 5,
      "note": 69,
      "start": 28.0108,
      "duration": 0.0775,
      "velocity": 101,
      "chip": "ym2612"
    },
    {
      "channel": 4,
      "note": 60,
      "start": 28.0138,
      "duration": 0.0744,
      "velocity": 98,
      "chip": "ym2612"
    },
    {
      "channel": 2,
      "note": 76,
      "start": 28.017,
      "duration": 0.0715,
      "velocity": 96,
      "chip": "ym2612"
    },
    {
      "channel": 3,
      "note": 78,
      "start": 28.0195,
      "duration": 0.0852,
      "velocity": 127,
      "chip": "ym2612"
    },
    {
      "channel": 0,
      "note": 79,
      "start": 28.1079,
      "duration": 0.0966,
      "velocity": 98,
      "chip": "ym2612"
    },
    {
      "channel": 5,
      "note": 70,
      "start": 28.1114,
      "duration": 0.0936,
      "velocity": 101,
      "chip": "ym2612"
    },
    {
      "channel": 4,
      "note": 61,
      "start": 28.1144,
      "duration": 0.0905,
      "velocity": 98,
      "chip": "ym2612"
    },
    {
      "channel": 1,
      "note": 63,
      "start": 28.117,
      "duration": 0.2376,
      "velocity": 96,
      "chip": "ym2612"
    },
    {
      "channel": 2,
      "note": 77,
      "start": 28.1201,
      "duration": 0.0851,
      "velocity": 96,
      "chip": "ym2612"
    },
    {
      "channel": 3,
      "note": 66,
      "start": 28.1229,
      "duration": 0.0819,
      "velocity": 127,
      "chip": "ym2612"
    },
    {
      "channel": 0,
      "note": 82,
      "start": 28.2581,
      "duration": 0.0798,
      "velocity": 98,
      "chip": "ym2612"
    },
    {
      "channel": 5,
      "note": 73,
      "start": 28.2611,
      "duration": 0.0771,
      "velocity": 101,
      "chip": "ym2612"
    },
    {
      "channel": 4,
      "note": 63,
      "start": 28.2641,
      "duration": 0.0741,
      "velocity": 98,
      "chip": "ym2612"
    },
    {
      "channel": 2,
      "note": 79,
      "start": 28.2673,
      "duration": 0.0711,
      "velocity": 96,
      "chip": "ym2612"
    },
    {
      "channel": 0,
      "note": 83,
      "start": 28.3577,
      "duration": 0.0969,
      "velocity": 98,
      "chip": "ym2612"
    },
    {
      "channel": 5,
      "note": 74,
      "start": 28.3608,
      "duration": 0.0943,
      "velocity": 101,
      "chip": "ym2612"
    },
    {
      "channel": 4,
      "note": 65,
      "start": 28.3641,
      "duration": 0.0908,
      "velocity": 98,
      "chip": "ym2612"
    },
    {
      "channel": 2,
      "note": 80,
      "start": 28.3677,
      "duration": 0.0875,
      "velocity": 96,
      "chip": "ym2612"
    },
    {
      "channel": 3,
      "note": 73,
      "start": 28.3708,
      "duration": 0.084,
      "velocity": 127,
      "chip": "ym2612"
    },
    {
      "channel": 0,
      "note": 84,
      "start": 28.5077,
      "duration": 0.0802,
      "velocity": 98,
      "chip": "ym2612"
    },
    {
      "channel": 5,
      "note": 75,
      "start": 28.5108,
      "duration": 0.0775,
      "velocity": 101,
      "chip": "ym2612"
    },
    {
      "channel": 4,
      "note": 66,
      "start": 28.5137,
      "duration": 0.0744,
      "velocity": 98,
      "chip": "ym2612"
    },
    {
      "channel": 2,
      "note": 81,
      "start": 28.517,
      "duration": 0.0714,
      "velocity": 96,
      "chip": "ym2612"
    },
    {
      "channel": 3,
      "note": 76,
      "start": 28.5196,
      "duration": 0.0851,
      "velocity": 127,
      "chip": "ym2612"
    },
    {
      "channel": 0,
      "note": 85,
      "start": 28.6079,
      "duration": 0.0967,
      "velocity": 98,
      "chip": "ym2612"
    },
    {
      "channel": 5,
      "note": 77,
      "start": 28.6109,
      "duration": 0.0941,
      "velocity": 101,
      "chip": "ym2612"
    },
    {
      "channel": 4,
      "note": 67,
      "start": 28.6139,
      "duration": 0.091,
      "velocity": 98,
      "chip": "ym2612"
    },
    {
      "channel": 1,
      "note": 58,
      "start": 28.6163,
      "duration": 0.2384,
      "velocity": 96,
      "chip": "ym2612"
    },
    {
      "channel": 2,
      "note": 82,
      "start": 28.6194,
      "duration": 0.0858,
      "velocity": 96,
      "chip": "ym2612"
    },
    {
      "channel": 3,
      "note": 66,
      "start": 28.6221,
      "duration": 0.0827,
      "velocity": 127,
      "chip": "ym2612"
    },
    {
      "channel": 0,
      "note": 91,
      "start": 28.7577,
      "duration": 0.0803,
      "velocity": 98,
      "chip": "ym2612"
    },
    {
      "channel": 5,
      "note": 82,
      "start": 28.7607,
      "duration": 0.0776,
      "velocity": 101,
      "chip": "ym2612"
    },
    {
      "channel": 4,
      "note": 73,
      "start": 28.7637,
      "duration": 0.0745,
      "velocity": 98,
      "chip": "ym2612"
    },
    {
      "channel": 2,
      "note": 87,
      "start": 28.7669,
      "duration": 0.0716,
      "velocity": 96,
      "chip": "ym2612"
    },
    {
      "channel": 0,
      "note": 89,
      "start": 28.8584,
      "duration": 0.0962,
      "velocity": 98,
      "chip": "ym2612"
    },
    {
      "channel": 5,
      "note": 79,
      "start": 28.8617,
      "duration": 0.0933,
      "velocity": 101,
      "chip": "ym2612"
    },
    {
      "channel": 4,
      "note": 70,
      "start": 28.8647,
      "duration": 0.0902,
      "velocity": 98,
      "chip": "ym2612"
    },
    {
      "channel": 2,
      "note": 85,
      "start": 28.8679,
      "duration": 0.0873,
      "velocity": 96,
      "chip": "ym2612"
    },
    {
      "channel": 3,
      "note": 73,
      "start": 28.8707,
      "duration": 0.084,
      "velocity": 127,
      "chip": "ym2612"
    },
    {
      "channel": 0,
      "note": 85,
      "start": 29.0077,
      "duration": 0.0803,
      "velocity": 98,
      "chip": "ym2612"
    },
    {
      "channel": 5,
      "note": 77,
      "start": 29.0107,
      "duration": 0.0776,
      "velocity": 101,
      "chip": "ym2612"
    },
    {
      "channel": 4,
      "note": 67,
      "start": 29.0137,
      "duration": 0.0745,
      "velocity": 98,
      "chip": "ym2612"
    },
    {
      "channel": 2,
      "note": 82,
      "start": 29.0173,
      "duration": 0.0712,
      "velocity": 96,
      "chip": "ym2612"
    },
    {
      "channel": 3,
      "note": 76,
      "start": 29.0199,
      "duration": 0.0849,
      "velocity": 127,
      "chip": "ym2612"
    },
    {
      "channel": 0,
      "note": 84,
      "start": 29.108,
      "duration": 0.0966,
      "velocity": 98,
      "chip": "ym2612"
    },
    {
      "channel": 5,
      "note": 75,
      "start": 29.111,
      "duration": 0.0939,
      "velocity": 101,
      "chip": "ym2612"
    },
    {
      "channel": 4,
      "note": 66,
      "start": 29.1144,
      "duration": 0.0905,
      "velocity": 98,
      "chip": "ym2612"
    },
    {
      "channel": 1,
      "note": 58,
      "start": 29.1169,
      "duration": 0.2377,
      "velocity": 96,
      "chip": "ym2612"
    },
    {
      "channel": 2,
      "note": 80,
      "start": 29.1199,
      "duration": 0.0852,
      "velocity": 96,
      "chip": "ym2612"
    },
    {
      "channel": 3,
      "note": 66,
      "start": 29.1227,
      "duration": 0.082,
      "velocity": 127,
      "chip": "ym2612"
    },
    {
      "channel": 0,
      "note": 82,
      "start": 29.241,
      "duration": 0.0302,
      "velocity": 98,
      "chip": "ym2612"
    },
    {
      "channel": 5,
      "note": 73,
      "start": 29.2441,
      "duration": 0.0275,
      "velocity": 101,
      "chip": "ym2612"
    },
    {
      "channel": 4,
      "note": 64,
      "start": 29.2471,
      "duration": 0.0244,
      "velocity": 98,
      "chip": "ym2612"
    },
    {
      "channel": 2,
      "note": 79,
      "start": 29.2502,
      "duration": 0.0215,
      "velocity": 96,
      "chip": "ym2612"
    },
    {
      "channel": 0,
      "note": 80,
      "start": 29.2907,
      "duration": 0.0471,
      "velocity": 98,
      "chip": "ym2612"
    },
    {
      "channel": 5,
      "note": 71,
      "start": 29.2934,
      "duration": 0.0448,
      "velocity": 101,
      "chip": "ym2612"
    },
    {
      "channel": 4,
      "note": 62,
      "start": 29.2961,
      "duration": 0.042,
      "velocity": 98,
      "chip": "ym2612"
    },
    {
      "channel": 2,
      "note": 77,
      "start": 29.299,
      "duration": 0.0393,
      "velocity": 96,
      "chip": "ym2612"
    },
    {
      "channel": 0,
      "note": 79,
      "start": 29.3578,
      "duration": 0.0969,
      "velocity": 98,
      "chip": "ym2612"
    },
    {
      "channel": 5,
      "note": 69,
      "start": 29.3608,
      "duration": 0.0943,
      "velocity": 101,
      "chip": "ym2612"
    },
    {
      "channel": 4,
      "note": 61,
      "start": 29.3638,
      "duration": 0.0912,
      "velocity": 98,
      "chip": "ym2612"
    },
    {
      "channel": 2,
      "note": 76,
      "start": 29.367,
      "duration": 0.0882,
      "velocity": 96,
      "chip": "ym2612"
    },
    {
      "channel": 3,
      "note": 73,
      "start": 29.3696,
      "duration": 0.0852,
      "velocity": 127,
      "chip": "ym2612"
    },
    {
      "channel": 0,
      "note": 85,
      "start": 29.508,
      "duration": 0.3466,
      "velocity": 98,
      "chip": "ym2612"
    },
    {
      "channel": 5,
      "note": 76,
      "start": 29.5114,
      "duration": 0.3437,
      "velocity": 101,
      "chip": "ym2612"
    },
    {
      "channel": 4,
      "note": 67,
      "start": 29.5144,
      "duration": 0.3406,
      "velocity": 98,
      "chip": "ym2612"
    },
    {
      "channel": 1,
      "note": 57,
      "start": 29.5171,
      "duration": 0.5877,
      "velocity": 96,
      "chip": "ym2612"
    },
    {
      "channel": 2,
      "note": 81,
      "start": 29.5201,
      "duration": 0.3351,
      "velocity": 96,
      "chip": "ym2612"
    },
    {
      "channel": 3,
      "note": 66,
      "start": 29.5229,
      "duration": 0.0818,
      "velocity": 127,
      "chip": "ym2612"
    },
    {
      "channel": 3,
      "note": 73,
      "start": 29.6087,
      "duration": 0.0959,
      "velocity": 127,
      "chip": "ym2612"
    },
    {
      "channel": 3,
      "note": 76,
      "start": 29.7606,
      "duration": 0.0943,
      "velocity": 127,
      "chip": "ym2612"
    },
    {
      "channel": 3,
      "note": 66,
      "start": 29.8612,
      "duration": 0.0935,
      "velocity": 127,
      "chip": "ym2612"
    },
    {
      "channel": 3,
      "note": 78,
      "start": 30.008,
      "duration": 0.0968,
      "velocity": 127,
      "chip": "ym2612"
    },
    {
      "channel": 0,
      "note": 83,
      "start": 30.108,
      "duration": 0.1132,
      "velocity": 98,
      "chip": "ym2612"
    },
    {
      "channel": 5,
      "note": 74,
      "start": 30.1111,
      "duration": 0.1105,
      "velocity": 101,
      "chip": "ym2612"
    },
    {
      "channel": 4,
      "note": 65,
      "start": 30.1141,
      "duration": 0.1075,
      "velocity": 98,
      "chip": "ym2612"
    },
    {
      "channel": 1,
      "note": 62,
      "start": 30.1168,
      "duration": 0.2378,
      "velocity": 96,
      "chip": "ym2612"
    },
    {
      "channel": 2,
      "note": 81,
      "start": 30.1203,
      "duration": 0.1015,
      "velocity": 96,
      "chip": "ym2612"
    },
    {
      "channel": 3,
      "note": 66,
      "start": 30.1231,
      "duration": 0.0983,
      "velocity": 127,
      "chip": "ym2612"
    },
    {
      "channel": 0,
      "note": 89,
      "start": 30.2577,
      "duration": 0.6803,
      "velocity": 98,
      "chip": "ym2612"
    },
    {
      "channel": 5,
      "note": 81,
      "start": 30.2608,
      "duration": 0.6774,
      "velocity": 101,
      "chip": "ym2612"
    },
    {
      "channel": 4,
      "note": 71,
      "start": 30.2644,
      "duration": 0.6738,
      "velocity": 98,
      "chip": "ym2612"
    },
    {
      "channel": 2,
      "note": 86,
      "start": 30.2675,
      "duration": 0.6709,
      "velocity": 96,
      "chip": "ym2612"
    },
    {
      "channel": 3,
      "note": 73,
      "start": 30.3581,
      "duration": 0.1133,
      "velocity": 127,
      "chip": "ym2612"
    },
    {
      "channel": 3,
      "note": 76,
      "start": 30.5081,
      "duration": 0.0966,
      "velocity": 127,
      "chip": "ym2612"
    },
    {
      "channel": 1,
      "note": 57,
      "start": 30.6082,
      "duration": 0.2464,
      "velocity": 96,
      "chip": "ym2612"
    },
    {
      "channel": 3,
      "note": 66,
      "start": 30.611,
      "duration": 0.1103,
      "velocity": 127,
      "chip": "ym2612"
    },
    {
      "channel": 3,
      "note": 73,
      "start": 30.8587,
      "duration": 0.1127,
      "velocity": 127,
      "chip": "ym2612"
    },
    {
      "channel": 0,
      "note": 77,
      "start": 31.0077,
      "duration": 0.0802,
      "velocity": 98,
      "chip": "ym2612"
    },
    {
      "channel": 2,
      "note": 77,
      "start": 31.0112,
      "duration": 0.0771,
      "velocity": 96,
      "chip": "ym2612"
    },
    {
      "channel": 3,
      "note": 76,
      "start": 31.0138,
      "duration": 0.1075,
      "velocity": 127,
      "chip": "ym2612"
    },
    {
      "channel": 0,
      "note": 79,
      "start": 31.1246,
      "duration": 0.0967,
      "velocity": 98,
      "chip": "ym2612"
    },
    {
      "channel": 1,
      "note": 62,
      "start": 31.1273,
      "duration": 0.244,
      "velocity": 96,
      "chip": "ym2612"
    },
    {
      "channel": 2,
      "note": 79,
      "start": 31.1304,
      "duration": 0.0913,
      "velocity": 96,
      "chip": "ym2612"
    },
    {
      "channel": 3,
      "note": 66,
      "start": 31.133,
      "duration": 0.0884,
      "velocity": 127,
      "chip": "ym2612"
    },
    {
      "channel": 0,
      "note": 76,
      "start": 31.258,
      "duration": 0.0798,
      "velocity": 98,
      "chip": "ym2612"
    },
    {
      "channel": 2,
      "note": 76,
      "start": 31.2615,
      "duration": 0.0767,
      "velocity": 96,
      "chip": "ym2612"
    },
    {
      "channel": 0,
      "note": 77,
      "start": 31.3744,
      "duration": 0.0969,
      "velocity": 98,
      "chip": "ym2612"
    },
    {
      "channel": 2,
      "note": 77,
      "start": 31.3782,
      "duration": 0.0934,
      "velocity": 96,
      "chip": "ym2612"
    },
    {
      "channel": 3,
      "note": 73,
      "start": 31.3808,
      "duration": 0.0906,
      "velocity": 127,
      "chip": "ym2612"
    },
    {
      "channel": 0,
      "note": 74,
      "start": 31.5077,
      "duration": 0.0803,
      "velocity": 98,
      "chip": "ym2612"
    },
    {
      "channel": 1,
      "note": 57,
      "start": 31.5105,
      "duration": 0.6107,
      "velocity": 96,
      "chip": "ym2612"
    },
    {
      "channel": 2,
      "note": 74,
      "start": 31.5137,
      "duration": 0.0747,
      "velocity": 96,
      "chip": "ym2612"
    },
    {
      "channel": 3,
      "note": 66,
      "start": 31.5163,
      "duration": 0.1051,
      "velocity": 127,
      "chip": "ym2612"
    },
    {
      "channel": 3,
      "note": 73,
      "start": 31.625,
      "duration": 0.0963,
      "velocity": 127,
      "chip": "ym2612"
    },
    {
      "channel": 3,
      "note": 76,
      "start": 31.758,
      "duration": 0.1133,
      "velocity": 127,
      "chip": "ym2612"
    },
    {
      "channel": 3,
      "note": 66,
      "start": 31.8749,
      "duration": 0.0963,
      "velocity": 127,
      "chip": "ym2612"
    },
    {
      "channel": 3,
      "note": 78,
      "start": 32.0083,
      "duration": 0.1131,
      "velocity": 127,
      "chip": "ym2612"
    },
    {
      "channel": 0,
      "note": 86,
      "start": 32.1246,
      "duration": 0.3466,
      "velocity": 98,
      "chip": "ym2612"
    },
    {
      "channel": 5,
      "note": 77,
      "start": 32.1277,
      "duration": 0.3439,
      "velocity": 101,
      "chip": "ym2612"
    },
    {
      "channel": 4,
      "note": 68,
      "start": 32.1306,
      "duration": 0.3409,
      "velocity": 98,
      "chip": "ym2612"
    },
    {
      "channel": 1,
      "note": 58,
      "start": 32.1333,
      "duration": 0.238,
      "velocity": 96,
      "chip": "ym2612"
    },
    {
      "channel": 2,
      "note": 84,
      "start": 32.1364,
      "duration": 0.3354,
      "velocity": 96,
      "chip": "ym2612"
    },
    {
      "channel": 3,
      "note": 66,
      "start": 32.1392,
      "duration": 0.0822,
      "velocity": 127,
      "chip": "ym2612"
    },
    {
      "channel": 3,
      "note": 73,
      "start": 32.3748,
      "duration": 0.0966,
      "velocity": 127,
      "chip": "ym2612"
    },
    {
      "channel": 0,
      "note": 86,
      "start": 32.4911,
      "duration": 0.0469,
      "velocity": 98,
      "chip": "ym2612"
    },
    {
      "channel": 5,
      "note": 76,
      "start": 32.4942,
      "duration": 0.0442,
      "velocity": 101,
      "chip": "ym2612"
    },
    {
      "channel": 4,
      "note": 67,
      "start": 32.4972,
      "duration": 0.0411,
      "velocity": 98,
      "chip": "ym2612"
    },
    {
      "channel": 2,
      "note": 82,
      "start": 32.5003,
      "duration": 0.0382,
      "velocity": 96,
      "chip": "ym2612"
    },
    {
      "channel": 3,
      "note": 76,
      "start": 32.5248,
      "duration": 0.0966,
      "velocity": 127,
      "chip": "ym2612"
    },
    {
      "channel": 0,
      "note": 85,
      "start": 32.5574,
      "duration": 0.0472,
      "velocity": 98,
      "chip": "ym2612"
    },
    {
      "channel": 5,
      "note": 75,
      "start": 32.5605,
      "duration": 0.0445,
      "velocity": 101,
      "chip": "ym2612"
    },
    {
      "channel": 4,
      "note": 66,
      "start": 32.5632,
      "duration": 0.0417,
      "velocity": 98,
      "chip": "ym2612"
    },
    {
      "channel": 2,
      "note": 81,
      "start": 32.5661,
      "duration": 0.039,
      "velocity": 96,
      "chip": "ym2612"
    },
    {
      "channel": 0,
      "note": 84,
      "start": 32.625,
      "duration": 0.3462,
      "velocity": 98,
      "chip": "ym2612"
    },
    {
      "channel": 5,
      "note": 74,
      "start": 32.628,
      "duration": 0.3436,
      "velocity": 101,
      "chip": "ym2612"
    },
    {
      "channel": 4,
      "note": 65,
      "start": 32.631,
      "duration": 0.3405,
      "velocity": 98,
      "chip": "ym2612"
    },
    {
      "channel": 1,
      "note": 53,
      "start": 32.6334,
      "duration": 0.2379,
      "velocity": 96,
      "chip": "ym2612"
    },
    {
      "channel": 2,
      "note": 80,
      "start": 32.6365,
      "duration": 0.3352,
      "velocity": 96,
      "chip": "ym2612"
    },
    {
      "channel": 3,
      "note": 66,
      "start": 32.6392,
      "duration": 0.0821,
      "velocity": 127,
      "chip": "ym2612"
    },
    {
      "channel": 3,
      "note": 73,
      "start": 32.8749,
      "duration": 0.0964,
      "velocity": 127,
      "chip": "ym2612"
    },
    {
      "channel": 0,
      "note": 82,
      "start": 32.991,
      "duration": 0.047,
      "velocity": 98,
      "chip": "ym2612"
    },
    {
      "channel": 5,
      "note": 74,
      "start": 32.9941,
      "duration": 0.0443,
      "velocity": 101,
      "chip": "ym2612"
    },
    {
      "channel": 4,
      "note": 64,
      "start": 32.9974,
      "duration": 0.0409,
      "velocity": 98,
      "chip": "ym2612"
    },
    {
      "channel": 2,
      "note": 79,
      "start": 33.0009,
      "duration": 0.0376,
      "velocity": 96,
      "chip": "ym2612"
    },
    {
      "channel": 3,
      "note": 76,
      "start": 33.0248,
      "duration": 0.0966,
      "velocity": 127,
      "chip": "ym2612"
    },
    {
      "channel": 0,
      "note": 81,
      "start": 33.0574,
      "duration": 0.0472,
      "velocity": 98,
      "chip": "ym2612"
    },
    {
      "channel": 5,
      "note": 73,
      "start": 33.0601,
      "duration": 0.0449,
      "velocity": 101,
      "chip": "ym2612"
    },
    {
      "channel": 4,
      "note": 63,
      "start": 33.0628,
      "duration": 0.0421,
      "velocity": 98,
      "chip": "ym2612"
    },
    {
      "channel": 2,
      "note": 78,
      "start": 33.0657,
      "duration": 0.0394,
      "velocity": 96,
      "chip": "ym2612"
    },
    {
      "channel": 0,
      "note": 80,
      "start": 33.1246,
      "duration": 0.0968,
      "velocity": 98,
      "chip": "ym2612"
    },
    {
      "channel": 5,
      "note": 72,
      "start": 33.1276,
      "duration": 0.0941,
      "velocity": 101,
      "chip": "ym2612"
    },
    {
      "channel": 4,
      "note": 62,
      "start": 33.1306,
      "duration": 0.091,
      "velocity": 98,
      "chip": "ym2612"
    },
    {
      "channel": 1,
      "note": 58,
      "start": 33.1332,
      "duration": 0.2381,
      "velocity": 96,
      "chip": "ym2612"
    },
    {
      "channel": 2,
      "note": 77,
      "start": 33.1362,
      "duration": 0.0857,
      "velocity": 96,
      "chip": "ym2612"
    },
    {
      "channel": 3,
      "note": 66,
      "start": 33.139,
      "duration": 0.0825,
      "velocity": 127,
      "chip": "ym2612"
    },
    {
      "channel": 0,
      "note": 77,
      "start": 33.2743,
      "duration": 0.0802,
      "velocity": 98,
      "chip": "ym2612"
    },
    {
      "channel": 5,
      "note": 69,
      "start": 33.2773,
      "duration": 0.0776,
      "velocity": 101,
      "chip": "ym2612"
    },
    {
      "channel": 4,
      "note": 58,
      "start": 33.2803,
      "duration": 0.0744,
      "velocity": 98,
      "chip": "ym2612"
    },
    {
      "channel": 2,
      "note": 74,
      "start": 33.2835,
      "duration": 0.0715,
      "velocity": 96,
      "chip": "ym2612"
    },
    {
      "channel": 0,
      "note": 80,
      "start": 33.3745,
      "duration": 0.0968,
      "velocity": 98,
      "chip": "ym2612"
    },
    {
      "channel": 5,
      "note": 72,
      "start": 33.3779,
      "duration": 0.0938,
      "velocity": 101,
      "chip": "ym2612"
    },
    {
      "channel": 4,
      "note": 62,
      "start": 33.3809,
      "duration": 0.0907,
      "velocity": 98,
      "chip": "ym2612"
    },
    {
      "channel": 2,
      "note": 77,
      "start": 33.3841,
      "duration": 0.0877,
      "velocity": 96,
      "chip": "ym2612"
    },
    {
      "channel": 3,
      "note": 73,
      "start": 33.3871,
      "duration": 0.0844,
      "velocity": 127,
      "chip": "ym2612"
    },
    {
      "channel": 0,
      "note": 81,
      "start": 33.5247,
      "duration": 0.0799,
      "velocity": 98,
      "chip": "ym2612"
    },
    {
      "channel": 5,
      "note": 73,
      "start": 33.5278,
      "duration": 0.0772,
      "velocity": 101,
      "chip": "ym2612"
    },
    {
      "channel": 4,
      "note": 64,
      "start": 33.5307,
      "duration": 0.0741,
      "velocity": 98,
      "chip": "ym2612"
    },
    {
      "channel": 1,
      "note": 57,
      "start": 33.5334,
      "duration": 0.5879,
      "velocity": 96,
      "chip": "ym2612"
    },
    {
      "channel": 2,
      "note": 79,
      "start": 33.5366,
      "duration": 0.0686,
      "velocity": 96,
      "chip": "ym2612"
    },
    {
      "channel": 3,
      "note": 66,
      "start": 33.5393,
      "duration": 0.0821,
      "velocity": 127,
      "chip": "ym2612"
    },
    {
      "channel": 3,
      "note": 73,
      "start": 33.625,
      "duration": 0.0963,
      "velocity": 127,
      "chip": "ym2612"
    },
    {
      "channel": 3,
      "note": 76,
      "start": 33.7747,
      "duration": 0.0966,
      "velocity": 127,
      "chip": "ym2612"
    },
    {
      "channel": 3,
      "note": 66,
      "start": 33.8749,
      "duration": 0.0964,
      "velocity": 127,
      "chip": "ym2612"
    },
    {
      "channel": 3,
      "note": 78,
      "start": 34.0247,
      "duration": 0.0968,
      "velocity": 127,
      "chip": "ym2612"
    },
    {
      "channel": 0,
      "note": 81,
      "start": 34.1246,
      "duration": 0.0967,
      "velocity": 98,
      "chip": "ym2612"
    },
    {
      "channel": 5,
      "note": 71,
      "start": 34.1277,
      "duration": 0.0941,
      "velocity": 101,
      "chip": "ym2612"
    },
    {
      "channel": 4,
      "note": 62,
      "start": 34.1311,
      "duration": 0.0906,
      "velocity": 98,
      "chip": "ym2612"
    },
    {
      "channel": 1,
      "note": 62,
      "start": 34.1341,
      "duration": 0.2371,
      "velocity": 96,
      "chip": "ym2612"
    },
    {
      "channel": 2,
      "note": 77,
      "start": 34.1377,
      "duration": 0.0842,
      "velocity": 96,
      "chip": "ym2612"
    },
    {
      "channel": 3,
      "note": 66,
      "start": 34.1404,
      "duration": 0.0812,
      "velocity": 127,
      "chip": "ym2612"
    },
    {
      "channel": 0,
      "note": 77,
      "start": 34.2743,
      "duration": 0.0802,
      "velocity": 98,
      "chip": "ym2612"
    },
    {
      "channel": 5,
      "note": 69,
      "start": 34.2773,
      "duration": 0.0776,
      "velocity": 101,
      "chip": "ym2612"
    },
    {
      "channel": 4,
      "note": 59,
      "start": 34.2803,
      "duration": 0.0744,
      "velocity": 98,
      "chip": "ym2612"
    },
    {
      "channel": 2,
      "note": 74,
      "start": 34.2835,
      "duration": 0.0715,
      "velocity": 96,
      "chip": "ym2612"
    },
    {
      "channel": 3,
      "note": 73,
      "start": 34.3748,
      "duration": 0.1132,
      "velocity": 127,
      "chip": "ym2612"
    },
    {
      "channel": 0,
      "note": 81,
      "start": 34.5241,
      "duration": 0.0805,
      "velocity": 98,
      "chip": "ym2612"
    },
    {
      "channel": 5,
      "note": 71,
      "start": 34.5268,
      "duration": 0.0781,
      "velocity": 101,
      "chip": "ym2612"
    },
    {
      "channel": 4,
      "note": 62,
      "start": 34.5295,
      "duration": 0.0753,
      "velocity": 98,
      "chip": "ym2612"
    },
    {
      "channel": 2,
      "note": 77,
      "start": 34.5324,
      "duration": 0.0727,
      "velocity": 96,
      "chip": "ym2612"
    },
    {
      "channel": 3,
      "note": 76,
      "start": 34.5353,
      "duration": 0.086,
      "velocity": 127,
      "chip": "ym2612"
    },
    {
      "channel": 1,
      "note": 57,
      "start": 34.6245,
      "duration": 0.2468,
      "velocity": 96,
      "chip": "ym2612"
    },
    {
      "channel": 3,
      "note": 66,
      "start": 34.6272,
      "duration": 0.1108,
      "velocity": 127,
      "chip": "ym2612"
    },
    {
      "channel": 0,
      "note": 82,
      "start": 34.7741,
      "duration": 0.0805,
      "velocity": 98,
      "chip": "ym2612"
    },
    {
      "channel": 5,
      "note": 73,
      "start": 34.7769,
      "duration": 0.078,
      "velocity": 101,
      "chip": "ym2612"
    },
    {
      "channel": 4,
      "note": 64,
      "start": 34.7795,
      "duration": 0.0753,
      "velocity": 98,
      "chip": "ym2612"
    },
    {
      "channel": 2,
      "note": 79,
      "start": 34.7824,
      "duration": 0.0727,
      "velocity": 96,
      "chip": "ym2612"
    },
    {
      "channel": 3,
      "note": 73,
      "start": 34.8749,
      "duration": 0.113,
      "velocity": 127,
      "chip": "ym2612"
    },
    {
      "channel": 0,
      "note": 81,
      "start": 35.0241,
      "duration": 0.0804,
      "velocity": 98,
      "chip": "ym2612"
    },
    {
      "channel": 5,
      "note": 71,
      "start": 35.0271,
      "duration": 0.0778,
      "velocity": 101,
      "chip": "ym2612"
    },
    {
      "channel": 4,
      "note": 62,
      "start": 35.0299,
      "duration": 0.0749,
      "velocity": 98,
      "chip": "ym2612"
    },
    {
      "channel": 2,
      "note": 77,
      "start": 35.0329,
      "duration": 0.0721,
      "velocity": 96,
      "chip": "ym2612"
    },
    {
      "channel": 3,
      "note": 76,
      "start": 35.0356,
      "duration": 0.0857,
      "velocity": 127,
      "chip": "ym2612"
    },
    {
      "channel": 0,
      "note": 83,
      "start": 35.1246,
      "duration": 0.1133,
      "velocity": 98,
      "chip": "ym2612"
    },
    {
      "channel": 5,
      "note": 75,
      "start": 35.128,
      "duration": 0.1104,
      "velocity": 101,
      "chip": "ym2612"
    },
    {
      "channel": 4,
      "note": 65,
      "start": 35.131,
      "duration": 0.1073,
      "velocity": 98,
      "chip": "ym2612"
    },
    {
      "channel": 1,
      "note": 62,
      "start": 35.1335,
      "duration": 0.2544,
      "velocity": 96,
      "chip": "ym2612"
    },
    {
      "channel": 2,
      "note": 80,
      "start": 35.1366,
      "duration": 0.102,
      "velocity": 96,
      "chip": "ym2612"
    },
    {
      "channel": 3,
      "note": 66,
      "start": 35.1393,
      "duration": 0.0987,
      "velocity": 127,
      "chip": "ym2612"
    },
    {
      "channel": 0,
      "note": 84,
      "start": 35.2747,
      "duration": 0.0798,
      "velocity": 98,
      "chip": "ym2612"
    },
    {
      "channel": 5,
      "note": 76,
      "start": 35.2778,
      "duration": 0.0771,
      "velocity": 101,
      "chip": "ym2612"
    },
    {
      "channel": 4,
      "note": 66,
      "start": 35.2807,
      "duration": 0.074,
      "velocity": 98,
      "chip": "ym2612"
    },
    {
      "channel": 2,
      "note": 81,
      "start": 35.2839,
      "duration": 0.071,
      "velocity": 96,
      "chip": "ym2612"
    },
    {
      "channel": 3,
      "note": 73,
      "start": 35.3915,
      "duration": 0.0966,
      "velocity": 127,
      "chip": "ym2612"
    },
    {
      "channel": 0,
      "note": 77,
      "start": 35.5243,
      "duration": 0.3636,
      "velocity": 98,
      "chip": "ym2612"
    },
    {
      "channel": 5,
      "note": 69,
      "start": 35.5274,
      "duration": 0.361,
      "velocity": 101,
      "chip": "ym2612"
    },
    {
      "channel": 4,
      "note": 59,
      "start": 35.5307,
      "duration": 0.3575,
      "velocity": 98,
      "chip": "ym2612"
    },
    {
      "channel": 1,
      "note": 57,
      "start": 35.5334,
      "duration": 0.6045,
      "velocity": 96,
      "chip": "ym2612"
    },
    {
      "channel": 2,
      "note": 74,
      "start": 35.5369,
      "duration": 0.3517,
      "velocity": 96,
      "chip": "ym2612"
    },
    {
      "channel": 3,
      "note": 66,
      "start": 35.5397,
      "duration": 0.0984,
      "velocity": 127,
      "chip": "ym2612"
    },
    {
      "channel": 3,
      "note": 73,
      "start": 35.6416,
      "duration": 0.0964,
      "velocity": 127,
      "chip": "ym2612"
    },
    {
      "channel": 3,
      "note": 76,
      "start": 35.775,
      "duration": 0.1131,
      "velocity": 127,
      "chip": "ym2612"
    },
    {
      "channel": 3,
      "note": 66,
      "start": 35.892,
      "duration": 0.0961,
      "velocity": 127,
      "chip": "ym2612"
    },
    {
      "channel": 3,
      "note": 78,
      "start": 36.0247,
      "duration": 0.1134,
      "velocity": 127,
      "chip": "ym2612"
    },
    {
      "channel": 0,
      "note": 82,
      "start": 36.1411,
      "duration": 0.3468,
      "velocity": 98,
      "chip": "ym2612"
    },
    {
      "channel": 5,
      "note": 74,
      "start": 36.1441,
      "duration": 0.3443,
      "velocity": 101,
      "chip": "ym2612"
    },
    {
      "channel": 4,
      "note": 65,
      "start": 36.1468,
      "duration": 0.3414,
      "velocity": 98,
      "chip": "ym2612"
    },
    {
      "channel": 1,
      "note": 58,
      "start": 36.1495,
      "duration": 0.4885,
      "velocity": 96,
      "chip": "ym2612"
    },
    {
      "channel": 2,
      "note": 79,
      "start": 36.1525,
      "duration": 0.336,
      "velocity": 96,
      "chip": "ym2612"
    },
    {
      "channel": 3,
      "note": 66,
      "start": 36.1552,
      "duration": 0.0828,
      "velocity": 127,
      "chip": "ym2612"
    },
    {
      "channel": 3,
      "note": 73,
      "start": 36.3913,
      "duration": 0.0968,
      "velocity": 127,
      "chip": "ym2612"
    },
    {
      "channel": 3,
      "note": 76,
      "start": 36.5414,
      "duration": 0.0968,
      "velocity": 127,
      "chip": "ym2612"
    },
    {
      "channel": 0,
      "note": 83,
      "start": 36.6411,
      "duration": 0.3468,
      "velocity": 98,
      "chip": "ym2612"
    },
    {
      "channel": 5,
      "note": 74,
      "start": 36.6439,
      "duration": 0.3445,
      "velocity": 101,
      "chip": "ym2612"
    },
    {
      "channel": 4,
      "note": 65,
      "start": 36.6465,
      "duration": 0.3417,
      "velocity": 98,
      "chip": "ym2612"
    },
    {
      "channel": 1,
      "note": 53,
      "start": 36.6489,
      "duration": 0.4891,
      "velocity": 96,
      "chip": "ym2612"
    },
    {
      "channel": 2,
      "note": 80,
      "start": 36.6517,
      "duration": 0.3368,
      "velocity": 96,
      "chip": "ym2612"
    },
    {
      "channel": 3,
      "note": 66,
      "start": 36.6544,
      "duration": 0.0836,
      "velocity": 127,
      "chip": "ym2612"
    },
    {
      "channel": 3,
      "note": 73,
      "start": 36.8915,
      "duration": 0.0966,
      "velocity": 127,
      "chip": "ym2612"
    },
    {
      "channel": 3,
      "note": 76,
      "start": 37.0417,
      "duration": 0.0964,
      "velocity": 127,
      "chip": "ym2612"
    },
    {
      "channel": 0,
      "note": 85,
      "start": 37.1414,
      "duration": 0.0965,
      "velocity": 98,
      "chip": "ym2612"
    },
    {
      "channel": 5,
      "note": 76,
      "start": 37.1444,
      "duration": 0.0939,
      "velocity": 101,
      "chip": "ym2612"
    },
    {
      "channel": 4,
      "note": 67,
      "start": 37.1474,
      "duration": 0.0908,
      "velocity": 98,
      "chip": "ym2612"
    },
    {
      "channel": 1,
      "note": 57,
      "start": 37.1498,
      "duration": 0.4882,
      "velocity": 96,
      "chip": "ym2612"
    },
    {
      "channel": 2,
      "note": 81,
      "start": 37.1529,
      "duration": 0.0856,
      "velocity": 96,
      "chip": "ym2612"
    },
    {
      "channel": 3,
      "note": 66,
      "start": 37.1556,
      "duration": 0.0824,
      "velocity": 127,
      "chip": "ym2612"
    },
    {
      "channel": 0,
      "note": 81,
      "start": 37.3907,
      "duration": 0.0971,
      "velocity": 98,
      "chip": "ym2612"
    },
    {
      "channel": 5,
      "note": 71,
      "start": 37.3934,
      "duration": 0.0949,
      "velocity": 101,
      "chip": "ym2612"
    },
    {
      "channel": 4,
      "note": 62,
      "start": 37.3961,
      "duration": 0.0921,
      "velocity": 98,
      "chip": "ym2612"
    },
    {
      "channel": 2,
      "note": 77,
      "start": 37.399,
      "duration": 0.0894,
      "velocity": 96,
      "chip": "ym2612"
    },
    {
      "channel": 3,
      "note": 73,
      "start": 37.4016,
      "duration": 0.0864,
      "velocity": 127,
      "chip": "ym2612"
    },
    {
      "channel": 3,
      "note": 66,
      "start": 37.5414,
      "duration": 0.0967,
      "velocity": 127,
      "chip": "ym2612"
    },
    {
      "channel": 0,
      "note": 83,
      "start": 37.641,
      "duration": 0.0968,
      "velocity": 98,
      "chip": "ym2612"
    },
    {
      "channel": 5,
      "note": 73,
      "start": 37.6438,
      "duration": 0.0945,
      "velocity": 101,
      "chip": "ym2612"
    },
    {
      "channel": 4,
      "note": 64,
      "start": 37.6465,
      "duration": 0.0917,
      "velocity": 98,
      "chip": "ym2612"
    },
    {
      "channel": 1,
      "note": 57,
      "start": 37.6488,
      "duration": 0.4891,
      "velocity": 96,
      "chip": "ym2612"
    },
    {
      "channel": 2,
      "note": 79,
      "start": 37.6516,
      "duration": 0.0868,
      "velocity": 96,
      "chip": "ym2612"
    },
    {
      "channel": 3,
      "note": 73,
      "start": 37.6544,
      "duration": 0.0837,
      "velocity": 127,
      "chip": "ym2612"
    },
    {
      "channel": 3,
      "note": 76,
      "start": 37.7913,
      "duration": 0.0968,
      "velocity": 127,
      "chip": "ym2612"
    },
    {
      "channel": 0,
      "note": 81,
      "start": 37.8912,
      "duration": 0.0967,
      "velocity": 98,
      "chip": "ym2612"
    },
    {
      "channel": 5,
      "note": 71,
      "start": 37.8944,
      "duration": 0.0939,
      "velocity": 101,
      "chip": "ym2612"
    },
    {
      "channel": 4,
      "note": 62,
      "start": 37.8972,
      "duration": 0.091,
      "velocity": 98,
      "chip": "ym2612"
    },
    {
      "channel": 2,
      "note": 77,
      "start": 37.9002,
      "duration": 0.0883,
      "velocity": 96,
      "chip": "ym2612"
    },
    {
      "channel": 3,
      "note": 66,
      "start": 37.9029,
      "duration": 0.0852,
      "velocity": 127,
      "chip": "ym2612"
    },
    {
      "channel": 0,
      "note": 77,
      "start": 38.0414,
      "duration": 0.0799,
      "velocity": 98,
      "chip": "ym2612"
    },
    {
      "channel": 5,
      "note": 69,
      "start": 38.0444,
      "duration": 0.0772,
      "velocity": 101,
      "chip": "ym2612"
    },
    {
      "channel": 4,
      "note": 57,
      "start": 38.0474,
      "duration": 0.0741,
      "velocity": 98,
      "chip": "ym2612"
    },
    {
      "channel": 2,
      "note": 74,
      "start": 38.0506,
      "duration": 0.0712,
      "velocity": 96,
      "chip": "ym2612"
    },
    {
      "channel": 3,
      "note": 78,
      "start": 38.0532,
      "duration": 0.0849,
      "velocity": 127,
      "chip": "ym2612"
    },
    {
      "channel": 1,
      "note": 62,
      "start": 38.1412,
      "duration": 0.4968,
      "velocity": 96,
      "chip": "ym2612"
    },
    {
      "channel": 3,
      "note": 66,
      "start": 38.1442,
      "duration": 0.0938,
      "velocity": 127,
      "chip": "ym2612"
    },
    {
      "channel": 0,
      "note": 81,
      "start": 38.2909,
      "duration": 0.0804,
      "velocity": 98,
      "chip": "ym2612"
    },
    {
      "channel": 5,
      "note": 71,
      "start": 38.2938,
      "duration": 0.0779,
      "velocity": 101,
      "chip": "ym2612"
    },
    {
      "channel": 4,
      "note": 62,
      "start": 38.2966,
      "duration": 0.0749,
      "velocity": 98,
      "chip": "ym2612"
    },
    {
      "channel": 2,
      "note": 77,
      "start": 38.2997,
      "duration": 0.0721,
      "velocity": 96,
      "chip": "ym2612"
    },
    {
      "channel": 0,
      "note": 82,
      "start": 38.3912,
      "duration": 0.0467,
      "velocity": 98,
      "chip": "ym2612"
    },
    {
      "channel": 5,
      "note": 74,
      "start": 38.3942,
      "duration": 0.044,
      "velocity": 101,
      "chip": "ym2612"
    },
    {
      "channel": 4,
      "note": 64,
      "start": 38.3976,
      "duration": 0.0405,
      "velocity": 98,
      "chip": "ym2612"
    },
    {
      "channel": 2,
      "note": 79,
      "start": 38.4011,
      "duration": 0.0373,
      "velocity": 96,
      "chip": "ym2612"
    },
    {
      "channel": 3,
      "note": 73,
      "start": 38.4038,
      "duration": 0.0844,
      "velocity": 127,
      "chip": "ym2612"
    },
    {
      "channel": 0,
      "note": 85,
      "start": 38.4573,
      "duration": 0.0306,
      "velocity": 98,
      "chip": "ym2612"
    },
    {
      "channel": 5,
      "note": 76,
      "start": 38.4601,
      "duration": 0.0283,
      "velocity": 101,
      "chip": "ym2612"
    },
    {
      "channel": 4,
      "note": 67,
      "start": 38.4627,
      "duration": 0.0255,
      "velocity": 98,
      "chip": "ym2612"
    },
    {
      "channel": 2,
      "note": 81,
      "start": 38.4656,
      "duration": 0.0229,
      "velocity": 96,
      "chip": "ym2612"
    },
    {
      "channel": 0,
      "note": 86,
      "start": 38.524,
      "duration": 0.0306,
      "velocity": 98,
      "chip": "ym2612"
    },
    {
      "channel": 5,
      "note": 77,
      "start": 38.5268,
      "duration": 0.0282,
      "velocity": 101,
      "chip": "ym2612"
    },
    {
      "channel": 4,
      "note": 69,
      "start": 38.5294,
      "duration": 0.0254,
      "velocity": 98,
      "chip": "ym2612"
    },
    {
      "channel": 2,
      "note": 83,
      "start": 38.5324,
      "duration": 0.0228,
      "velocity": 96,
      "chip": "ym2612"
    },
    {
      "channel": 3,
      "note": 76,
      "start": 38.5414,
      "duration": 0.0967,
      "velocity": 127,
      "chip": "ym2612"
    },
    {
      "channel": 0,
      "note": 88,
      "start": 38.5908,
      "duration": 0.0305,
      "velocity": 98,
      "chip": "ym2612"
    },
    {
      "channel": 5,
      "note": 79,
      "start": 38.5935,
      "duration": 0.0281,
      "velocity": 101,
      "chip": "ym2612"
    },
    {
      "channel": 4,
      "note": 70,
      "start": 38.5961,
      "duration": 0.0254,
      "velocity": 98,
      "chip": "ym2612"
    },
    {
      "channel": 2,
      "note": 85,
      "start": 38.599,
      "duration": 0.0228,
      "velocity": 96,
      "chip": "ym2612"
    },
    {
      "channel": 0,
      "note": 89,
      "start": 38.6412,
      "duration": 0.1133,
      "velocity": 98,
      "chip": "ym2612"
    },
    {
      "channel": 5,
      "note": 81,
      "start": 38.6443,
      "duration": 0.1107,
      "velocity": 101,
      "chip": "ym2612"
    },
    {
      "channel": 4,
      "note": 71,
      "start": 38.6473,
      "duration": 0.1076,
      "velocity": 98,
      "chip": "ym2612"
    },
    {
      "channel": 1,
      "note": 57,
      "start": 38.6497,
      "duration": 0.4883,
      "velocity": 96,
      "chip": "ym2612"
    },
    {
      "channel": 2,
      "note": 86,
      "start": 38.6528,
      "duration": 0.1024,
      "velocity": 96,
      "chip": "ym2612"
    },
    {
      "channel": 3,
      "note": 66,
      "start": 38.6555,
      "duration": 0.0992,
      "velocity": 127,
      "chip": "ym2612"
    },
    {
      "channel": 0,
      "note": 89,
      "start": 38.791,
      "duration": 0.0969,
      "velocity": 98,
      "chip": "ym2612"
    },
    {
      "channel": 5,
      "note": 81,
      "start": 38.7944,
      "duration": 0.0939,
      "velocity": 101,
      "chip": "ym2612"
    },
    {
      "channel": 4,
      "note": 71,
      "start": 38.7974,
      "duration": 0.0908,
      "velocity": 98,
      "chip": "ym2612"
    },
    {
      "channel": 2,
      "note": 86,
      "start": 38.8005,
      "duration": 0.0878,
      "velocity": 96,
      "chip": "ym2612"
    },
    {
      "channel": 3,
      "note": 73,
      "start": 38.8918,
      "duration": 0.1129,
      "velocity": 127,
      "chip": "ym2612"
    },
    {
      "channel": 3,
      "note": 76,
      "start": 39.0413,
      "duration": 0.0968,
      "velocity": 127,
      "chip": "ym2612"
    },
    {
      "channel": 1,
      "note": 62,
      "start": 39.1418,
      "duration": 0.3794,
      "velocity": 96,
      "chip": "ym2612"
    },
    {
      "channel": 3,
      "note": 66,
      "start": 39.1446,
      "duration": 0.11,
      "velocity": 127,
      "chip": "ym2612"
    },
    {
      "channel": 2,
      "note": 82,
      "start": 39.147,
      "duration": 0.1078,
      "velocity": 85,
      "chip": "ym2612"
    },
    {
      "channel": 2,
      "note": 82,
      "start": 39.2912,
      "duration": 0.0968,
      "velocity": 85,
      "chip": "ym2612"
    },
    {
      "channel": 3,
      "note": 73,
      "start": 39.3915,
      "duration": 0.1132,
      "velocity": 127,
      "chip": "ym2612"
    },
    {
      "channel": 1,
      "note": 60,
      "start": 39.5412,
      "duration": 0.4968,
      "velocity": 96,
      "chip": "ym2612"
    },
    {
      "channel": 3,
      "note": 66,
      "start": 39.5443,
      "duration": 0.1103,
      "velocity": 127,
      "chip": "ym2612"
    },
    {
      "channel": 2,
      "note": 82,
      "start": 39.547,
      "duration": 0.1078,
      "velocity": 85,
      "chip": "ym2612"
    },
    {
      "channel": 3,
      "note": 73,
      "start": 39.6582,
      "duration": 0.0965,
      "velocity": 127,
      "chip": "ym2612"
    },
    {
      "channel": 3,
      "note": 76,
      "start": 39.7914,
      "duration": 0.1132,
      "velocity": 127,
      "chip": "ym2612"
    },
    {
      "channel": 2,
      "note": 82,
      "start": 39.7938,
      "duration": 0.111,
      "velocity": 85,
      "chip": "ym2612"
    },
    {
      "channel": 3,
      "note": 66,
      "start": 39.9082,
      "duration": 0.0964,
      "velocity": 127,
      "chip": "ym2612"
    },
    {
      "channel": 2,
      "note": 82,
      "start": 39.9105,
      "duration": 0.0944,
      "velocity": 85,
      "chip": "ym2612"
    },
    {
      "channel": 3,
      "note": 78,
      "start": 40.0415,
      "duration": 0.1132,
      "velocity": 127,
      "chip": "ym2612"
    },
    {
      "channel": 1,
      "note": 59,
      "start": 40.1648,
      "duration": 0.2398,
      "velocity": 96,
      "chip": "ym2612"
    },
    {
      "channel": 2,
      "note": 82,
      "start": 40.1691,
      "duration": 0.0857,
      "velocity": 85,
      "chip": "ym2612"
    },
    {
      "channel": 3,
      "note": 66,
      "start": 40.1739,
      "duration": 0.0807,
      "velocity": 127,
      "chip": "ym2612"
    },
    {
      "channel": 5,
      "note": 64,
      "start": 40.2913,
      "duration": 0.0802,
      "velocity": 101,
      "chip": "ym2612"
    },
    {
      "channel": 0,
      "note": 69,
      "start": 40.2942,
      "duration": 0.0771,
      "velocity": 101,
      "chip": "ym2612"
    },
    {
      "channel": 2,
      "note": 82,
      "start": 40.2968,
      "duration": 0.1081,
      "velocity": 85,
      "chip": "ym2612"
    },
    {
      "channel": 0,
      "note": 66,
      "start": 40.4084,
      "duration": 0.0961,
      "velocity": 101,
      "chip": "ym2612"
    },
    {
      "channel": 5,
      "note": 71,
      "start": 40.4112,
      "duration": 0.0937,
      "velocity": 101,
      "chip": "ym2612"
    },
    {
      "channel": 3,
      "note": 73,
      "start": 40.4141,
      "duration": 0.0907,
      "velocity": 127,
      "chip": "ym2612"
    },
    {
      "channel": 0,
      "note": 64,
      "start": 40.5412,
      "duration": 0.08,
      "velocity": 101,
      "chip": "ym2612"
    },
    {
      "channel": 5,
      "note": 69,
      "start": 40.5439,
      "duration": 0.0775,
      "velocity": 101,
      "chip": "ym2612"
    },
    {
      "channel": 2,
      "note": 82,
      "start": 40.5465,
      "duration": 0.1083,
      "velocity": 85,
      "chip": "ym2612"
    },
    {
      "channel": 3,
      "note": 76,
      "start": 40.5491,
      "duration": 0.1055,
      "velocity": 127,
      "chip": "ym2612"
    },
    {
      "channel": 0,
      "note": 66,
      "start": 40.658,
      "duration": 0.0966,
      "velocity": 101,
      "chip": "ym2612"
    },
    {
      "channel": 5,
      "note": 71,
      "start": 40.6607,
      "duration": 0.0942,
      "velocity": 101,
      "chip": "ym2612"
    },
    {
      "channel": 1,
      "note": 54,
      "start": 40.6632,
      "duration": 0.2414,
      "velocity": 96,
      "chip": "ym2612"
    },
    {
      "channel": 3,
      "note": 66,
      "start": 40.6659,
      "duration": 0.0888,
      "velocity": 127,
      "chip": "ym2612"
    },
    {
      "channel": 2,
      "note": 82,
      "start": 40.8077,
      "duration": 0.0971,
      "velocity": 85,
      "chip": "ym2612"
    },
    {
      "channel": 0,
      "note": 69,
      "start": 40.9078,
      "duration": 0.0967,
      "velocity": 101,
      "chip": "ym2612"
    },
    {
      "channel": 5,
      "note": 74,
      "start": 40.911,
      "duration": 0.0939,
      "velocity": 101,
      "chip": "ym2612"
    },
    {
      "channel": 2,
      "note": 82,
      "start": 40.9136,
      "duration": 0.0915,
      "velocity": 85,
      "chip": "ym2612"
    },
    {
      "channel": 3,
      "note": 73,
      "start": 40.9163,
      "duration": 0.0885,
      "velocity": 127,
      "chip": "ym2612"
    },
    {
      "channel": 3,
      "note": 76,
      "start": 41.0581,
      "duration": 0.0965,
      "velocity": 127,
      "chip": "ym2612"
    },
    {
      "channel": 1,
      "note": 59,
      "start": 41.1578,
      "duration": 0.2468,
      "velocity": 96,
      "chip": "ym2612"
    },
    {
      "channel": 2,
      "note": 82,
      "start": 41.1603,
      "duration": 0.0945,
      "velocity": 85,
      "chip": "ym2612"
    },
    {
      "channel": 3,
      "note": 66,
      "start": 41.1629,
      "duration": 0.0917,
      "velocity": 127,
      "chip": "ym2612"
    },
    {
      "channel": 0,
      "note": 64,
      "start": 41.3078,
      "duration": 0.08,
      "velocity": 101,
      "chip": "ym2612"
    },
    {
      "channel": 5,
      "note": 69,
      "start": 41.3105,
      "duration": 0.0776,
      "velocity": 101,
      "chip": "ym2612"
    },
    {
      "channel": 2,
      "note": 82,
      "start": 41.3132,
      "duration": 0.0917,
      "velocity": 85,
      "chip": "ym2612"
    },
    {
      "channel": 0,
      "note": 66,
      "start": 41.408,
      "duration": 0.0966,
      "velocity": 101,
      "chip": "ym2612"
    },
    {
      "channel": 5,
      "note": 71,
      "start": 41.4108,
      "duration": 0.0941,
      "velocity": 101,
      "chip": "ym2612"
    },
    {
      "channel": 3,
      "note": 73,
      "start": 41.4137,
      "duration": 0.091,
      "velocity": 127,
      "chip": "ym2612"
    },
    {
      "channel": 0,
      "note": 64,
      "start": 41.5578,
      "duration": 0.0801,
      "velocity": 101,
      "chip": "ym2612"
    },
    {
      "channel": 5,
      "note": 69,
      "start": 41.5607,
      "duration": 0.0776,
      "velocity": 101,
      "chip": "ym2612"
    },
    {
      "channel": 1,
      "note": 54,
      "start": 41.5634,
      "duration": 0.5912,
      "velocity": 96,
      "chip": "ym2612"
    },
    {
      "channel": 2,
      "note": 82,
      "start": 41.5657,
      "duration": 0.0891,
      "velocity": 85,
      "chip": "ym2612"
    },
    {
      "channel": 3,
      "note": 66,
      "start": 41.5687,
      "duration": 0.0859,
      "velocity": 127,
      "chip": "ym2612"
    },
    {
      "channel": 3,
      "note": 73,
      "start": 41.6582,
      "duration": 0.0965,
      "velocity": 127,
      "chip": "ym2612"
    },
    {
      "channel": 0,
      "note": 69,
      "start": 41.808,
      "duration": 0.0798,
      "velocity": 101,
      "chip": "ym2612"
    },
    {
      "channel": 5,
      "note": 74,
      "start": 41.8107,
      "duration": 0.0774,
      "velocity": 101,
      "chip": "ym2612"
    },
    {
      "channel": 2,
      "note": 82,
      "start": 41.8137,
      "duration": 0.0912,
      "velocity": 85,
      "chip": "ym2612"
    },
    {
      "channel": 3,
      "note": 76,
      "start": 41.8163,
      "duration": 0.0883,
      "velocity": 127,
      "chip": "ym2612"
    },
    {
      "channel": 2,
      "note": 82,
      "start": 41.9079,
      "duration": 0.097,
      "velocity": 85,
      "chip": "ym2612"
    },
    {
      "channel": 3,
      "note": 66,
      "start": 41.9105,
      "duration": 0.0941,
      "velocity": 127,
      "chip": "ym2612"
    },
    {
      "channel": 3,
      "note": 78,
      "start": 42.058,
      "duration": 0.0967,
      "velocity": 127,
      "chip": "ym2612"
    },
    {
      "channel": 1,
      "note": 54,
      "start": 42.1584,
      "duration": 0.2462,
      "velocity": 96,
      "chip": "ym2612"
    },
    {
      "channel": 2,
      "note": 82,
      "start": 42.1608,
      "duration": 0.094,
      "velocity": 85,
      "chip": "ym2612"
    },
    {
      "channel": 3,
      "note": 66,
      "start": 42.1634,
      "duration": 0.0912,
      "velocity": 127,
      "chip": "ym2612"
    },
    {
      "channel": 0,
      "note": 64,
      "start": 42.3077,
      "duration": 0.0802,
      "velocity": 101,
      "chip": "ym2612"
    },
    {
      "channel": 5,
      "note": 69,
      "start": 42.3105,
      "duration": 0.0778,
      "velocity": 101,
      "chip": "ym2612"
    },
    {
      "channel": 2,
      "note": 82,
      "start": 42.3131,
      "duration": 0.0919,
      "velocity": 85,
      "chip": "ym2612"
    },
    {
      "channel": 0,
      "note": 66,
      "start": 42.408,
      "duration": 0.0966,
      "velocity": 101,
      "chip": "ym2612"
    },
    {
      "channel": 5,
      "note": 71,
      "start": 42.4108,
      "duration": 0.0941,
      "velocity": 101,
      "chip": "ym2612"
    },
    {
      "channel": 3,
      "note": 73,
      "start": 42.4138,
      "duration": 0.091,
      "velocity": 127,
      "chip": "ym2612"
    },
    {
      "channel": 0,
      "note": 64,
      "start": 42.5578,
      "duration": 0.08,
      "velocity": 101,
      "chip": "ym2612"
    },
    {
      "channel": 5,
      "note": 69,
      "start": 42.561,
      "duration": 0.0772,
      "velocity": 101,
      "chip": "ym2612"
    },
    {
      "channel": 2,
      "note": 82,
      "start": 42.5634,
      "duration": 0.0914,
      "velocity": 85,
      "chip": "ym2612"
    },
    {
      "channel": 3,
      "note": 76,
      "start": 42.5661,
      "duration": 0.0885,
      "velocity": 127,
      "chip": "ym2612"
    },
    {
      "channel": 0,
      "note": 66,
      "start": 42.658,
      "duration": 0.0966,
      "velocity": 101,
      "chip": "ym2612"
    },
    {
      "channel": 5,
      "note": 71,
      "start": 42.6607,
      "duration": 0.0942,
      "velocity": 101,
      "chip": "ym2612"
    },
    {
      "channel": 1,
      "note": 54,
      "start": 42.6632,
      "duration": 0.2414,
      "velocity": 96,
      "chip": "ym2612"
    },
    {
      "channel": 3,
      "note": 66,
      "start": 42.6663,
      "duration": 0.0884,
      "velocity": 127,
      "chip": "ym2612"
    },
    {
      "channel": 2,
      "note": 82,
      "start": 42.8077,
      "duration": 0.0971,
      "velocity": 85,
      "chip": "ym2612"
    },
    {
      "channel": 0,
      "note": 69,
      "start": 42.9078,
      "duration": 0.1133,
      "velocity": 101,
      "chip": "ym2612"
    },
    {
      "channel": 5,
      "note": 74,
      "start": 42.9106,
      "duration": 0.111,
      "velocity": 101,
      "chip": "ym2612"
    },
    {
      "channel": 2,
      "note": 82,
      "start": 42.9133,
      "duration": 0.1084,
      "velocity": 85,
      "chip": "ym2612"
    },
    {
      "channel": 3,
      "note": 73,
      "start": 42.9159,
      "duration": 0.1055,
      "velocity": 127,
      "chip": "ym2612"
    },
    {
      "channel": 3,
      "note": 76,
      "start": 43.058,
      "duration": 0.0966,
      "velocity": 127,
      "chip": "ym2612"
    },
    {
      "channel": 1,
      "note": 59,
      "start": 43.1578,
      "duration": 0.2467,
      "velocity": 96,
      "chip": "ym2612"
    },
    {
      "channel": 2,
      "note": 82,
      "start": 43.1603,
      "duration": 0.1113,
      "velocity": 85,
      "chip": "ym2612"
    },
    {
      "channel": 3,
      "note": 66,
      "start": 43.1629,
      "duration": 0.1085,
      "velocity": 127,
      "chip": "ym2612"
    },
    {
      "channel": 0,
      "note": 64,
      "start": 43.3078,
      "duration": 0.08,
      "velocity": 101,
      "chip": "ym2612"
    },
    {
      "channel": 5,
      "note": 69,
      "start": 43.3106,
      "duration": 0.0776,
      "velocity": 101,
      "chip": "ym2612"
    },
    {
      "channel": 2,
      "note": 82,
      "start": 43.3136,
      "duration": 0.0913,
      "velocity": 85,
      "chip": "ym2612"
    },
    {
      "channel": 0,
      "note": 66,
      "start": 43.4084,
      "duration": 0.1128,
      "velocity": 101,
      "chip": "ym2612"
    },
    {
      "channel": 5,
      "note": 71,
      "start": 43.4111,
      "duration": 0.1104,
      "velocity": 101,
      "chip": "ym2612"
    },
    {
      "channel": 3,
      "note": 73,
      "start": 43.414,
      "duration": 0.1073,
      "velocity": 127,
      "chip": "ym2612"
    },
    {
      "channel": 0,
      "note": 64,
      "start": 43.5578,
      "duration": 0.08,
      "velocity": 101,
      "chip": "ym2612"
    },
    {
      "channel": 5,
      "note": 69,
      "start": 43.5606,
      "duration": 0.0776,
      "velocity": 101,
      "chip": "ym2612"
    },
    {
      "channel": 1,
      "note": 59,
      "start": 43.5633,
      "duration": 0.608,
      "velocity": 96,
      "chip": "ym2612"
    },
    {
      "channel": 2,
      "note": 82,
      "start": 43.5656,
      "duration": 0.0893,
      "velocity": 85,
      "chip": "ym2612"
    },
    {
      "channel": 3,
      "note": 66,
      "start": 43.5683,
      "duration": 0.0863,
      "velocity": 127,
      "chip": "ym2612"
    },
    {
      "channel": 3,
      "note": 73,
      "start": 43.6582,
      "duration": 0.113,
      "velocity": 127,
      "chip": "ym2612"
    },
    {
      "channel": 0,
      "note": 69,
      "start": 43.8077,
      "duration": 0.0802,
      "velocity": 101,
      "chip": "ym2612"
    },
    {
      "channel": 5,
      "note": 74,
      "start": 43.8105,
      "duration": 0.0778,
      "velocity": 101,
      "chip": "ym2612"
    },
    {
      "channel": 2,
      "note": 82,
      "start": 43.8131,
      "duration": 0.1084,
      "velocity": 85,
      "chip": "ym2612"
    },
    {
      "channel": 3,
      "note": 76,
      "start": 43.8157,
      "duration": 0.1055,
      "velocity": 127,
      "chip": "ym2612"
    },
    {
      "channel": 4,
      "note": 90,
      "start": 43.9255,
      "duration": 0.0459,
      "velocity": 127,
      "chip": "ym2612"
    },
    {
      "channel": 2,
      "note": 82,
      "start": 43.9281,
      "duration": 0.0935,
      "velocity": 85,
      "chip": "ym2612"
    },
    {
      "channel": 3,
      "note": 66,
      "start": 43.9311,
      "duration": 0.0903,
      "velocity": 127,
      "chip": "ym2612"
    },
    {
      "channel": 4,
      "note": 90,
      "start": 43.9752,
      "duration": 0.0629,
      "velocity": 127,
      "chip": "ym2612"
    },
    {
      "channel": 4,
      "note": 90,
      "start": 44.042,
      "duration": 0.0629,
      "velocity": 127,
      "chip": "ym2612"
    },
    {
      "channel": 3,
      "note": 78,
      "start": 44.0582,
      "duration": 0.1133,
      "velocity": 127,
      "chip": "ym2612"
    },
    {
      "channel": 4,
      "note": 90,
      "start": 44.1085,
      "duration": 0.063,
      "velocity": 127,
      "chip": "ym2612"
    },
    {
      "channel": 4,
      "note": 90,
      "start": 44.1761,
      "duration": 0.0955,
      "velocity": 127,
      "chip": "ym2612"
    },
    {
      "channel": 1,
      "note": 59,
      "start": 44.1787,
      "duration": 0.2427,
      "velocity": 96,
      "chip": "ym2612"
    },
    {
      "channel": 2,
      "note": 82,
      "start": 44.181,
      "duration": 0.0908,
      "velocity": 85,
      "chip": "ym2612"
    },
    {
      "channel": 3,
      "note": 66,
      "start": 44.1836,
      "duration": 0.0878,
      "velocity": 127,
      "chip": "ym2612"
    },
    {
      "channel": 0,
      "note": 71,
      "start": 44.3082,
      "duration": 0.113,
      "velocity": 101,
      "chip": "ym2612"
    },
    {
      "channel": 5,
      "note": 74,
      "start": 44.3111,
      "duration": 0.077,
      "velocity": 101,
      "chip": "ym2612"
    },
    {
      "channel": 3,
      "note": 73,
      "start": 44.314,
      "duration": 0.1075,
      "velocity": 127,
      "chip": "ym2612"
    },
    {
      "channel": 0,
      "note": 73,
      "start": 44.4248,
      "duration": 0.0965,
      "velocity": 101,
      "chip": "ym2612"
    },
    {
      "channel": 5,
      "note": 77,
      "start": 44.4276,
      "duration": 0.0941,
      "velocity": 101,
      "chip": "ym2612"
    },
    {
      "channel": 4,
      "note": 85,
      "start": 44.431,
      "duration": 0.0906,
      "velocity": 127,
      "chip": "ym2612"
    },
    {
      "channel": 2,
      "note": 82,
      "start": 44.4334,
      "duration": 0.0885,
      "velocity": 85,
      "chip": "ym2612"
    },
    {
      "channel": 3,
      "note": 76,
      "start": 44.436,
      "duration": 0.0854,
      "velocity": 127,
      "chip": "ym2612"
    },
    {
      "channel": 4,
      "note": 90,
      "start": 44.542,
      "duration": 0.0963,
      "velocity": 127,
      "chip": "ym2612"
    },
    {
      "channel": 0,
      "note": 74,
      "start": 44.558,
      "duration": 0.08,
      "velocity": 101,
      "chip": "ym2612"
    },
    {
      "channel": 5,
      "note": 78,
      "start": 44.5607,
      "duration": 0.0776,
      "velocity": 101,
      "chip": "ym2612"
    },
    {
      "channel": 3,
      "note": 78,
      "start": 44.5637,
      "duration": 0.1078,
      "velocity": 127,
      "chip": "ym2612"
    },
    {
      "channel": 0,
      "note": 71,
      "start": 44.6751,
      "duration": 0.0962,
      "velocity": 101,
      "chip": "ym2612"
    },
    {
      "channel": 5,
      "note": 74,
      "start": 44.6778,
      "duration": 0.0938,
      "velocity": 101,
      "chip": "ym2612"
    },
    {
      "channel": 1,
      "note": 54,
      "start": 44.6803,
      "duration": 0.241,
      "velocity": 96,
      "chip": "ym2612"
    },
    {
      "channel": 2,
      "note": 82,
      "start": 44.6827,
      "duration": 0.0891,
      "velocity": 85,
      "chip": "ym2612"
    },
    {
      "channel": 3,
      "note": 66,
      "start": 44.6853,
      "duration": 0.0861,
      "velocity": 127,
      "chip": "ym2612"
    },
    {
      "channel": 0,
      "note": 66,
      "start": 44.808,
      "duration": 0.08,
      "velocity": 101,
      "chip": "ym2612"
    },
    {
      "channel": 5,
      "note": 71,
      "start": 44.8108,
      "duration": 0.0775,
      "velocity": 101,
      "chip": "ym2612"
    },
    {
      "channel": 2,
      "note": 82,
      "start": 44.8134,
      "duration": 0.1081,
      "velocity": 85,
      "chip": "ym2612"
    },
    {
      "channel": 0,
      "note": 71,
      "start": 44.9246,
      "duration": 0.0967,
      "velocity": 101,
      "chip": "ym2612"
    },
    {
      "channel": 5,
      "note": 74,
      "start": 44.9275,
      "duration": 0.0943,
      "velocity": 101,
      "chip": "ym2612"
    },
    {
      "channel": 4,
      "note": 90,
      "start": 44.9311,
      "duration": 0.0571,
      "velocity": 127,
      "chip": "ym2612"
    },
    {
      "channel": 3,
      "note": 71,
      "start": 44.9339,
      "duration": 0.0877,
      "velocity": 127,
      "chip": "ym2612"
    },
    {
      "channel": 4,
      "note": 90,
      "start": 44.9919,
      "duration": 0.0463,
      "velocity": 127,
      "chip": "ym2612"
    },
    {
      "channel": 4,
      "note": 90,
      "start": 45.042,
      "duration": 0.0629,
      "velocity": 127,
      "chip": "ym2612"
    },
    {
      "channel": 2,
      "note": 82,
      "start": 45.0746,
      "duration": 0.0971,
      "velocity": 85,
      "chip": "ym2612"
    },
    {
      "channel": 3,
      "note": 78,
      "start": 45.0776,
      "duration": 0.0938,
      "velocity": 127,
      "chip": "ym2612"
    },
    {
      "channel": 4,
      "note": 90,
      "start": 45.1086,
      "duration": 0.0629,
      "velocity": 127,
      "chip": "ym2612"
    },
    {
      "channel": 0,
      "note": 70,
      "start": 45.1746,
      "duration": 0.0967,
      "velocity": 101,
      "chip": "ym2612"
    },
    {
      "channel": 5,
      "note": 73,
      "start": 45.1778,
      "duration": 0.094,
      "velocity": 101,
      "chip": "ym2612"
    },
    {
      "channel": 4,
      "note": 90,
      "start": 45.1814,
      "duration": 0.0903,
      "velocity": 127,
      "chip": "ym2612"
    },
    {
      "channel": 1,
      "note": 59,
      "start": 45.1839,
      "duration": 0.2374,
      "velocity": 96,
      "chip": "ym2612"
    },
    {
      "channel": 2,
      "note": 82,
      "start": 45.1863,
      "duration": 0.0856,
      "velocity": 85,
      "chip": "ym2612"
    },
    {
      "channel": 3,
      "note": 66,
      "start": 45.1891,
      "duration": 0.0824,
      "velocity": 127,
      "chip": "ym2612"
    },
    {
      "channel": 0,
      "note": 66,
      "start": 45.3245,
      "duration": 0.0802,
      "velocity": 101,
      "chip": "ym2612"
    },
    {
      "channel": 5,
      "note": 71,
      "start": 45.3273,
      "duration": 0.0776,
      "velocity": 101,
      "chip": "ym2612"
    },
    {
      "channel": 3,
      "note": 73,
      "start": 45.3302,
      "duration": 0.0912,
      "velocity": 127,
      "chip": "ym2612"
    },
    {
      "channel": 4,
      "note": 85,
      "start": 45.4254,
      "duration": 0.0961,
      "velocity": 127,
      "chip": "ym2612"
    },
    {
      "channel": 2,
      "note": 82,
      "start": 45.4283,
      "duration": 0.0934,
      "velocity": 85,
      "chip": "ym2612"
    },
    {
      "channel": 3,
      "note": 76,
      "start": 45.431,
      "duration": 0.0905,
      "velocity": 127,
      "chip": "ym2612"
    },
    {
      "channel": 4,
      "note": 90,
      "start": 45.5423,
      "duration": 0.1126,
      "velocity": 127,
      "chip": "ym2612"
    },
    {
      "channel": 0,
      "note": 78,
      "start": 45.5745,
      "duration": 0.0802,
      "velocity": 101,
      "chip": "ym2612"
    },
    {
      "channel": 5,
      "note": 83,
      "start": 45.5773,
      "duration": 0.0778,
      "velocity": 101,
      "chip": "ym2612"
    },
    {
      "channel": 1,
      "note": 54,
      "start": 45.5804,
      "duration": 0.5909,
      "velocity": 96,
      "chip": "ym2612"
    },
    {
      "channel": 2,
      "note": 82,
      "start": 45.5828,
      "duration": 0.0889,
      "velocity": 85,
      "chip": "ym2612"
    },
    {
      "channel": 3,
      "note": 66,
      "start": 45.5854,
      "duration": 0.0861,
      "velocity": 127,
      "chip": "ym2612"
    },
    {
      "channel": 3,
      "note": 78,
      "start": 45.675,
      "duration": 0.0964,
      "velocity": 127,
      "chip": "ym2612"
    },
    {
      "channel": 0,
      "note": 78,
      "start": 45.8245,
      "duration": 0.0801,
      "velocity": 101,
      "chip": "ym2612"
    },
    {
      "channel": 5,
      "note": 83,
      "start": 45.8273,
      "duration": 0.0777,
      "velocity": 101,
      "chip": "ym2612"
    },
    {
      "channel": 2,
      "note": 82,
      "start": 45.8299,
      "duration": 0.0917,
      "velocity": 85,
      "chip": "ym2612"
    },
    {
      "channel": 3,
      "note": 66,
      "start": 45.8325,
      "duration": 0.0888,
      "velocity": 127,
      "chip": "ym2612"
    },
    {
      "channel": 4,
      "note": 90,
      "start": 45.9255,
      "duration": 0.0626,
      "velocity": 127,
      "chip": "ym2612"
    },
    {
      "channel": 2,
      "note": 82,
      "start": 45.9281,
      "duration": 0.0936,
      "velocity": 85,
      "chip": "ym2612"
    },
    {
      "channel": 3,
      "note": 71,
      "start": 45.9307,
      "duration": 0.0907,
      "velocity": 127,
      "chip": "ym2612"
    },
    {
      "channel": 4,
      "note": 90,
      "start": 45.9919,
      "duration": 0.0629,
      "velocity": 127,
      "chip": "ym2612"
    },
    {
      "channel": 4,
      "note": 90,
      "start": 46.0585,
      "duration": 0.0463,
      "velocity": 127,
      "chip": "ym2612"
    },
    {
      "channel": 0,
      "note": 71,
      "start": 46.0745,
      "duration": 0.0801,
      "velocity": 101,
      "chip": "ym2612"
    },
    {
      "channel": 5,
      "note": 74,
      "start": 46.0776,
      "duration": 0.0773,
      "velocity": 101,
      "chip": "ym2612"
    },
    {
      "channel": 3,
      "note": 78,
      "start": 46.0809,
      "duration": 0.0905,
      "velocity": 127,
      "chip": "ym2612"
    },
    {
      "channel": 4,
      "note": 90,
      "start": 46.1086,
      "duration": 0.0629,
      "velocity": 127,
      "chip": "ym2612"
    },
    {
      "channel": 0,
      "note": 73,
      "start": 46.1747,
      "duration": 0.0965,
      "velocity": 101,
      "chip": "ym2612"
    },
    {
      "channel": 5,
      "note": 77,
      "start": 46.1775,
      "duration": 0.0941,
      "velocity": 101,
      "chip": "ym2612"
    },
    {
      "channel": 4,
      "note": 90,
      "start": 46.1811,
      "duration": 0.0905,
      "velocity": 127,
      "chip": "ym2612"
    },
    {
      "channel": 1,
      "note": 59,
      "start": 46.1837,
      "duration": 0.2376,
      "velocity": 96,
      "chip": "ym2612"
    },
    {
      "channel": 2,
      "note": 82,
      "start": 46.186,
      "duration": 0.0858,
      "velocity": 85,
      "chip": "ym2612"
    },
    {
      "channel": 3,
      "note": 66,
      "start": 46.1888,
      "duration": 0.0826,
      "velocity": 127,
      "chip": "ym2612"
    },
    {
      "channel": 0,
      "note": 74,
      "start": 46.3246,
      "duration": 0.08,
      "velocity": 101,
      "chip": "ym2612"
    },
    {
      "channel": 5,
      "note": 78,
      "start": 46.3273,
      "duration": 0.0776,
      "velocity": 101,
      "chip": "ym2612"
    },
    {
      "channel": 3,
      "note": 73,
      "start": 46.3302,
      "duration": 0.0913,
      "velocity": 127,
      "chip": "ym2612"
    },
    {
      "channel": 0,
      "note": 71,
      "start": 46.4248,
      "duration": 0.0966,
      "velocity": 101,
      "chip": "ym2612"
    },
    {
      "channel": 5,
      "note": 74,
      "start": 46.4279,
      "duration": 0.0939,
      "velocity": 101,
      "chip": "ym2612"
    },
    {
      "channel": 4,
      "note": 85,
      "start": 46.4313,
      "duration": 0.0903,
      "velocity": 127,
      "chip": "ym2612"
    },
    {
      "channel": 2,
      "note": 82,
      "start": 46.4337,
      "duration": 0.0882,
      "velocity": 85,
      "chip": "ym2612"
    },
    {
      "channel": 3,
      "note": 76,
      "start": 46.4363,
      "duration": 0.0852,
      "velocity": 127,
      "chip": "ym2612"
    },
    {
      "channel": 4,
      "note": 90,
      "start": 46.5585,
      "duration": 0.0963,
      "velocity": 127,
      "chip": "ym2612"
    },
    {
      "channel": 0,
      "note": 66,
      "start": 46.5746,
      "duration": 0.0801,
      "velocity": 101,
      "chip": "ym2612"
    },
    {
      "channel": 5,
      "note": 71,
      "start": 46.5773,
      "duration": 0.0777,
      "velocity": 101,
      "chip": "ym2612"
    },
    {
      "channel": 3,
      "note": 78,
      "start": 46.5803,
      "duration": 0.0911,
      "velocity": 127,
      "chip": "ym2612"
    },
    {
      "channel": 0,
      "note": 71,
      "start": 46.6746,
      "duration": 0.0966,
      "velocity": 101,
      "chip": "ym2612"
    },
    {
      "channel": 5,
      "note": 74,
      "start": 46.6775,
      "duration": 0.0942,
      "velocity": 101,
      "chip": "ym2612"
    },
    {
      "channel": 1,
      "note": 54,
      "start": 46.6799,
      "duration": 0.2413,
      "velocity": 96,
      "chip": "ym2612"
    },
    {
      "channel": 2,
      "note": 82,
      "start": 46.6824,
      "duration": 0.0894,
      "velocity": 85,
      "chip": "ym2612"
    },
    {
      "channel": 3,
      "note": 66,
      "start": 46.685,
      "duration": 0.0865,
      "velocity": 127,
      "chip": "ym2612"
    },
    {
      "channel": 4,
      "note": 90,
      "start": 46.8084,
      "duration": 0.0963,
      "velocity": 127,
      "chip": "ym2612"
    },
    {
      "channel": 2,
      "note": 82,
      "start": 46.8245,
      "duration": 0.097,
      "velocity": 85,
      "chip": "ym2612"
    },
    {
      "channel": 0,
      "note": 70,
      "start": 46.9245,
      "duration": 0.0968,
      "velocity": 101,
      "chip": "ym2612"
    },
    {
      "channel": 5,
      "note": 73,
      "start": 46.9273,
      "duration": 0.0945,
      "velocity": 101,
      "chip": "ym2612"
    },
    {
      "channel": 3,
      "note": 71,
      "start": 46.9302,
      "duration": 0.0913,
      "velocity": 127,
      "chip": "ym2612"
    },
    {
      "channel": 4,
      "note": 85,
      "start": 47.0591,
      "duration": 0.0957,
      "velocity": 127,
      "chip": "ym2612"
    },
    {
      "channel": 0,
      "note": 66,
      "start": 47.075,
      "duration": 0.2296,
      "velocity": 101,
      "chip": "ym2612"
    },
    {
      "channel": 5,
      "note": 71,
      "start": 47.0779,
      "duration": 0.227,
      "velocity": 101,
      "chip": "ym2612"
    },
    {
      "channel": 2,
      "note": 82,
      "start": 47.0806,
      "duration": 0.0911,
      "velocity": 85,
      "chip": "ym2612"
    },
    {
      "channel": 3,
      "note": 78,
      "start": 47.0832,
      "duration": 0.0883,
      "velocity": 127,
      "chip": "ym2612"
    },
    {
      "channel": 4,
      "note": 90,
      "start": 47.1755,
      "duration": 0.1127,
      "velocity": 127,
      "chip": "ym2612"
    },
    {
      "channel": 1,
      "note": 59,
      "start": 47.1781,
      "duration": 0.2433,
      "velocity": 96,
      "chip": "ym2612"
    },
    {
      "channel": 2,
      "note": 82,
      "start": 47.1808,
      "duration": 0.1075,
      "velocity": 85,
      "chip": "ym2612"
    },
    {
      "channel": 3,
      "note": 66,
      "start": 47.1838,
      "duration": 0.1043,
      "velocity": 127,
      "chip": "ym2612"
    },
    {
      "channel": 3,
      "note": 73,
      "start": 47.3248,
      "duration": 0.0967,
      "velocity": 127,
      "chip": "ym2612"
    },
    {
      "channel": 4,
      "note": 85,
      "start": 47.4255,
      "duration": 0.1127,
      "velocity": 127,
      "chip": "ym2612"
    },
    {
      "channel": 2,
      "note": 82,
      "start": 47.428,
      "duration": 0.1104,
      "velocity": 85,
      "chip": "ym2612"
    },
    {
      "channel": 3,
      "note": 76,
      "start": 47.4307,
      "duration": 0.1074,
      "velocity": 127,
      "chip": "ym2612"
    },
    {
      "channel": 4,
      "note": 90,
      "start": 47.5586,
      "duration": 0.0962,
      "velocity": 127,
      "chip": "ym2612"
    },
    {
      "channel": 1,
      "note": 54,
      "start": 47.5748,
      "duration": 0.6133,
      "velocity": 96,
      "chip": "ym2612"
    },
    {
      "channel": 2,
      "note": 82,
      "start": 47.5772,
      "duration": 0.0944,
      "velocity": 85,
      "chip": "ym2612"
    },
    {
      "channel": 3,
      "note": 66,
      "start": 47.5798,
      "duration": 0.0916,
      "velocity": 127,
      "chip": "ym2612"
    },
    {
      "channel": 3,
      "note": 78,
      "start": 47.675,
      "duration": 0.1131,
      "velocity": 127,
      "chip": "ym2612"
    },
    {
      "channel": 4,
      "note": 90,
      "start": 47.8084,
      "duration": 0.0964,
      "velocity": 127,
      "chip": "ym2612"
    },
    {
      "channel": 2,
      "note": 82,
      "start": 47.8245,
      "duration": 0.0971,
      "velocity": 85,
      "chip": "ym2612"
    },
    {
      "channel": 3,
      "note": 66,
      "start": 47.8272,
      "duration": 0.0942,
      "velocity": 127,
      "chip": "ym2612"
    },
    {
      "channel": 2,
      "note": 82,
      "start": 47.9246,
      "duration": 0.1136,
      "velocity": 85,
      "chip": "ym2612"
    },
    {
      "channel": 3,
      "note": 71,
      "start": 47.9273,
      "duration": 0.1107,
      "velocity": 127,
      "chip": "ym2612"
    },
    {
      "channel": 4,
      "note": 85,
      "start": 48.0586,
      "duration": 0.0961,
      "velocity": 127,
      "chip": "ym2612"
    },
    {
      "channel": 0,
      "note": 70,
      "start": 48.0746,
      "duration": 0.1134,
      "velocity": 98,
      "chip": "ym2612"
    },
    {
      "channel": 3,
      "note": 78,
      "start": 48.0776,
      "duration": 0.1106,
      "velocity": 127,
      "chip": "ym2612"
    },
    {
      "channel": 0,
      "note": 71,
      "start": 48.1912,
      "duration": 0.1134,
      "velocity": 98,
      "chip": "ym2612"
    },
    {
      "channel": 4,
      "note": 90,
      "start": 48.1949,
      "duration": 0.0933,
      "velocity": 127,
      "chip": "ym2612"
    },
    {
      "channel": 1,
      "note": 59,
      "start": 48.1976,
      "duration": 0.2404,
      "velocity": 96,
      "chip": "ym2612"
    },
    {
      "channel": 2,
      "note": 82,
      "start": 48.1998,
      "duration": 0.0885,
      "velocity": 85,
      "chip": "ym2612"
    },
    {
      "channel": 3,
      "note": 66,
      "start": 48.2028,
      "duration": 0.0852,
      "velocity": 127,
      "chip": "ym2612"
    },
    {
      "channel": 3,
      "note": 73,
      "start": 48.3248,
      "duration": 0.1134,
      "velocity": 127,
      "chip": "ym2612"
    },
    {
      "channel": 2,
      "note": 82,
      "start": 48.4412,
      "duration": 0.0971,
      "velocity": 85,
      "chip": "ym2612"
    },
    {
      "channel": 3,
      "note": 76,
      "start": 48.4438,
      "duration": 0.0942,
      "velocity": 127,
      "chip": "ym2612"
    },
    {
      "channel": 0,
      "note": 73,
      "start": 48.5743,
      "duration": 0.1136,
      "velocity": 98,
      "chip": "ym2612"
    },
    {
      "channel": 3,
      "note": 78,
      "start": 48.5774,
      "duration": 0.1107,
      "velocity": 127,
      "chip": "ym2612"
    },
    {
      "channel": 0,
      "note": 74,
      "start": 48.6915,
      "duration": 0.1131,
      "velocity": 98,
      "chip": "ym2612"
    },
    {
      "channel": 1,
      "note": 54,
      "start": 48.6941,
      "duration": 0.2438,
      "velocity": 96,
      "chip": "ym2612"
    },
    {
      "channel": 2,
      "note": 82,
      "start": 48.6965,
      "duration": 0.0917,
      "velocity": 85,
      "chip": "ym2612"
    },
    {
      "channel": 3,
      "note": 66,
      "start": 48.6991,
      "duration": 0.0889,
      "velocity": 127,
      "chip": "ym2612"
    },
    {
      "channel": 2,
      "note": 82,
      "start": 48.8244,
      "duration": 0.1138,
      "velocity": 85,
      "chip": "ym2612"
    },
    {
      "channel": 3,
      "note": 71,
      "start": 48.9416,
      "duration": 0.0964,
      "velocity": 127,
      "chip": "ym2612"
    },
    {
      "channel": 0,
      "note": 70,
      "start": 49.0742,
      "duration": 0.1137,
      "velocity": 98,
      "chip": "ym2612"
    },
    {
      "channel": 2,
      "note": 82,
      "start": 49.0773,
      "duration": 0.111,
      "velocity": 85,
      "chip": "ym2612"
    },
    {
      "channel": 3,
      "note": 78,
      "start": 49.0799,
      "duration": 0.1081,
      "velocity": 127,
      "chip": "ym2612"
    },
    {
      "channel": 0,
      "note": 71,
      "start": 49.1912,
      "duration": 0.1468,
      "velocity": 98,
      "chip": "ym2612"
    },
    {
      "channel": 1,
      "note": 59,
      "start": 49.1939,
      "duration": 0.244,
      "velocity": 96,
      "chip": "ym2612"
    },
    {
      "channel": 2,
      "note": 82,
      "start": 49.1964,
      "duration": 0.0918,
      "velocity": 85,
      "chip": "ym2612"
    },
    {
      "channel": 3,
      "note": 66,
      "start": 49.199,
      "duration": 0.089,
      "velocity": 127,
      "chip": "ym2612"
    },
    {
      "channel": 3,
      "note": 73,
      "start": 49.3419,
      "duration": 0.0962,
      "velocity": 127,
      "chip": "ym2612"
    },
    {
      "channel": 0,
      "note": 73,
      "start": 49.4409,
      "duration": 0.1136,
      "velocity": 98,
      "chip": "ym2612"
    },
    {
      "channel": 2,
      "note": 82,
      "start": 49.4437,
      "duration": 0.0945,
      "velocity": 85,
      "chip": "ym2612"
    },
    {
      "channel": 3,
      "note": 76,
      "start": 49.4463,
      "duration": 0.0915,
      "velocity": 127,
      "chip": "ym2612"
    },
    {
      "channel": 1,
      "note": 54,
      "start": 49.5916,
      "duration": 0.5962,
      "velocity": 96,
      "chip": "ym2612"
    },
    {
      "channel": 2,
      "note": 82,
      "start": 49.5941,
      "duration": 0.0941,
      "velocity": 85,
      "chip": "ym2612"
    },
    {
      "channel": 3,
      "note": 66,
      "start": 49.5967,
      "duration": 0.0913,
      "velocity": 127,
      "chip": "ym2612"
    },
    {
      "channel": 0,
      "note": 74,
      "start": 49.691,
      "duration": 0.1469,
      "velocity": 98,
      "chip": "ym2612"
    },
    {
      "channel": 3,
      "note": 78,
      "start": 49.694,
      "duration": 0.0939,
      "velocity": 127,
      "chip": "ym2612"
    },
    {
      "channel": 2,
      "note": 82,
      "start": 49.8412,
      "duration": 0.097,
      "velocity": 85,
      "chip": "ym2612"
    },
    {
      "channel": 3,
      "note": 66,
      "start": 49.8438,
      "duration": 0.0941,
      "velocity": 127,
      "chip": "ym2612"
    },
    {
      "channel": 0,
      "note": 76,
      "start": 49.9411,
      "duration": 0.1635,
      "velocity": 98,
      "chip": "ym2612"
    },
    {
      "channel": 2,
      "note": 82,
      "start": 49.9438,
      "duration": 0.0944,
      "velocity": 85,
      "chip": "ym2612"
    },
    {
      "channel": 3,
      "note": 71,
      "start": 49.9464,
      "duration": 0.0916,
      "velocity": 127,
      "chip": "ym2612"
    },
    {
      "channel": 5,
      "note": 78,
      "start": 50.0916,
      "duration": 0.1298,
      "velocity": 98,
      "chip": "ym2612"
    },
    {
      "channel": 3,
      "note": 78,
      "start": 50.0947,
      "duration": 0.0933,
      "velocity": 127,
      "chip": "ym2612"
    },
    {
      "channel": 1,
      "note": 55,
      "start": 50.1913,
      "duration": 0.2466,
      "velocity": 96,
      "chip": "ym2612"
    },
    {
      "channel": 2,
      "note": 82,
      "start": 50.1936,
      "duration": 0.0945,
      "velocity": 85,
      "chip": "ym2612"
    },
    {
      "channel": 3,
      "note": 66,
      "start": 50.1962,
      "duration": 0.0917,
      "velocity": 127,
      "chip": "ym2612"
    },
    {
      "channel": 0,
      "note": 83,
      "start": 50.341,
      "duration": 0.1802,
      "velocity": 98,
      "chip": "ym2612"
    },
    {
      "channel": 3,
      "note": 73,
      "start": 50.3444,
      "duration": 0.0936,
      "velocity": 127,
      "chip": "ym2612"
    },
    {
      "channel": 2,
      "note": 82,
      "start": 50.441,
      "duration": 0.0972,
      "velocity": 85,
      "chip": "ym2612"
    },
    {
      "channel": 3,
      "note": 76,
      "start": 50.4437,
      "duration": 0.0943,
      "velocity": 127,
      "chip": "ym2612"
    },
    {
      "channel": 4,
      "note": 90,
      "start": 50.5759,
      "duration": 0.0456,
      "velocity": 127,
      "chip": "ym2612"
    },
    {
      "channel": 5,
      "note": 74,
      "start": 50.5915,
      "duration": 0.0801,
      "velocity": 101,
      "chip": "ym2612"
    },
    {
      "channel": 1,
      "note": 79,
      "start": 50.5944,
      "duration": 0.077,
      "velocity": 101,
      "chip": "ym2612"
    },
    {
      "channel": 3,
      "note": 78,
      "start": 50.5973,
      "duration": 0.0907,
      "velocity": 127,
      "chip": "ym2612"
    },
    {
      "channel": 4,
      "note": 90,
      "start": 50.6252,
      "duration": 0.063,
      "velocity": 127,
      "chip": "ym2612"
    },
    {
      "channel": 1,
      "note": 77,
      "start": 50.6915,
      "duration": 0.0965,
      "velocity": 101,
      "chip": "ym2612"
    },
    {
      "channel": 5,
      "note": 81,
      "start": 50.6942,
      "duration": 0.0941,
      "velocity": 101,
      "chip": "ym2612"
    },
    {
      "channel": 4,
      "note": 90,
      "start": 50.6975,
      "duration": 0.0573,
      "velocity": 127,
      "chip": "ym2612"
    },
    {
      "channel": 0,
      "note": 62,
      "start": 50.7001,
      "duration": 0.2378,
      "velocity": 96,
      "chip": "ym2612"
    },
    {
      "channel": 2,
      "note": 82,
      "start": 50.7025,
      "duration": 0.0859,
      "velocity": 85,
      "chip": "ym2612"
    },
    {
      "channel": 3,
      "note": 66,
      "start": 50.7052,
      "duration": 0.0828,
      "velocity": 127,
      "chip": "ym2612"
    },
    {
      "channel": 4,
      "note": 90,
      "start": 50.7585,
      "duration": 0.0629,
      "velocity": 127,
      "chip": "ym2612"
    },
    {
      "channel": 4,
      "note": 90,
      "start": 50.8252,
      "duration": 0.0463,
      "velocity": 127,
      "chip": "ym2612"
    },
    {
      "channel": 1,
      "note": 79,
      "start": 50.8416,
      "duration": 0.0797,
      "velocity": 101,
      "chip": "ym2612"
    },
    {
      "channel": 5,
      "note": 83,
      "start": 50.8444,
      "duration": 0.0772,
      "velocity": 101,
      "chip": "ym2612"
    },
    {
      "channel": 2,
      "note": 82,
      "start": 50.8474,
      "duration": 0.0909,
      "velocity": 85,
      "chip": "ym2612"
    },
    {
      "channel": 4,
      "note": 90,
      "start": 50.8753,
      "duration": 0.0629,
      "velocity": 127,
      "chip": "ym2612"
    },
    {
      "channel": 1,
      "note": 74,
      "start": 50.9413,
      "duration": 0.0801,
      "velocity": 101,
      "chip": "ym2612"
    },
    {
      "channel": 5,
      "note": 79,
      "start": 50.9441,
      "duration": 0.0775,
      "velocity": 101,
      "chip": "ym2612"
    },
    {
      "channel": 4,
      "note": 85,
      "start": 50.9474,
      "duration": 0.0573,
      "velocity": 127,
      "chip": "ym2612"
    },
    {
      "channel": 3,
      "note": 71,
      "start": 50.9502,
      "duration": 0.0878,
      "velocity": 127,
      "chip": "ym2612"
    },
    {
      "channel": 4,
      "note": 85,
      "start": 51.0085,
      "duration": 0.0629,
      "velocity": 127,
      "chip": "ym2612"
    },
    {
      "channel": 4,
      "note": 85,
      "start": 51.0752,
      "duration": 0.0463,
      "velocity": 127,
      "chip": "ym2612"
    },
    {
      "channel": 2,
      "note": 82,
      "start": 51.0911,
      "duration": 0.0972,
      "velocity": 85,
      "chip": "ym2612"
    },
    {
      "channel": 3,
      "note": 78,
      "start": 51.0938,
      "duration": 0.0943,
      "velocity": 127,
      "chip": "ym2612"
    },
    {
      "channel": 4,
      "note": 85,
      "start": 51.1253,
      "duration": 0.0629,
      "velocity": 127,
      "chip": "ym2612"
    },
    {
      "channel": 1,
      "note": 72,
      "start": 51.1916,
      "duration": 0.0964,
      "velocity": 101,
      "chip": "ym2612"
    },
    {
      "channel": 5,
      "note": 77,
      "start": 51.1943,
      "duration": 0.0939,
      "velocity": 101,
      "chip": "ym2612"
    },
    {
      "channel": 4,
      "note": 90,
      "start": 51.1976,
      "duration": 0.0572,
      "velocity": 127,
      "chip": "ym2612"
    },
    {
      "channel": 0,
      "note": 55,
      "start": 51.2001,
      "duration": 0.2378,
      "velocity": 96,
      "chip": "ym2612"
    },
    {
      "channel": 2,
      "note": 82,
      "start": 51.2025,
      "duration": 0.0859,
      "velocity": 85,
      "chip": "ym2612"
    },
    {
      "channel": 3,
      "note": 66,
      "start": 51.2052,
      "duration": 0.0828,
      "velocity": 127,
      "chip": "ym2612"
    },
    {
      "channel": 4,
      "note": 90,
      "start": 51.2585,
      "duration": 0.0629,
      "velocity": 127,
      "chip": "ym2612"
    },
    {
      "channel": 4,
      "note": 90,
      "start": 51.3252,
      "duration": 0.063,
      "velocity": 127,
      "chip": "ym2612"
    },
    {
      "channel": 3,
      "note": 73,
      "start": 51.3416,
      "duration": 0.0966,
      "velocity": 127,
      "chip": "ym2612"
    },
    {
      "channel": 4,
      "note": 90,
      "start": 51.392,
      "duration": 0.0463,
      "velocity": 127,
      "chip": "ym2612"
    },
    {
      "channel": 1,
      "note": 71,
      "start": 51.4415,
      "duration": 0.1133,
      "velocity": 101,
      "chip": "ym2612"
    },
    {
      "channel": 5,
      "note": 76,
      "start": 51.4446,
      "duration": 0.1104,
      "velocity": 101,
      "chip": "ym2612"
    },
    {
      "channel": 4,
      "note": 90,
      "start": 51.4478,
      "duration": 0.057,
      "velocity": 127,
      "chip": "ym2612"
    },
    {
      "channel": 2,
      "note": 82,
      "start": 51.4503,
      "duration": 0.1049,
      "velocity": 85,
      "chip": "ym2612"
    },
    {
      "channel": 3,
      "note": 76,
      "start": 51.4533,
      "duration": 0.1015,
      "velocity": 127,
      "chip": "ym2612"
    },
    {
      "channel": 4,
      "note": 90,
      "start": 51.5086,
      "duration": 0.0628,
      "velocity": 127,
      "chip": "ym2612"
    },
    {
      "channel": 4,
      "note": 85,
      "start": 51.5757,
      "duration": 0.0624,
      "velocity": 127,
      "chip": "ym2612"
    },
    {
      "channel": 1,
      "note": 67,
      "start": 51.5914,
      "duration": 0.3467,
      "velocity": 101,
      "chip": "ym2612"
    },
    {
      "channel": 5,
      "note": 74,
      "start": 51.5942,
      "duration": 0.3441,
      "velocity": 101,
      "chip": "ym2612"
    },
    {
      "channel": 0,
      "note": 62,
      "start": 51.5972,
      "duration": 0.5908,
      "velocity": 96,
      "chip": "ym2612"
    },
    {
      "channel": 2,
      "note": 82,
      "start": 51.5996,
      "duration": 0.0887,
      "velocity": 85,
      "chip": "ym2612"
    },
    {
      "channel": 3,
      "note": 66,
      "start": 51.6022,
      "duration": 0.0858,
      "velocity": 127,
      "chip": "ym2612"
    },
    {
      "channel": 3,
      "note": 78,
      "start": 51.6916,
      "duration": 0.1132,
      "velocity": 127,
      "chip": "ym2612"
    },
    {
      "channel": 4,
      "note": 85,
      "start": 51.8253,
      "duration": 0.0961,
      "velocity": 127,
      "chip": "ym2612"
    },
    {
      "channel": 2,
      "note": 82,
      "start": 51.8413,
      "duration": 0.0972,
      "velocity": 85,
      "chip": "ym2612"
    },
    {
      "channel": 3,
      "note": 66,
      "start": 51.8439,
      "duration": 0.0943,
      "velocity": 127,
      "chip": "ym2612"
    },
    {
      "channel": 2,
      "note": 82,
      "start": 51.9417,
      "duration": 0.1132,
      "velocity": 85,
      "chip": "ym2612"
    },
    {
      "channel": 3,
      "note": 71,
      "start": 51.9443,
      "duration": 0.1104,
      "velocity": 127,
      "chip": "ym2612"
    },
    {
      "channel": 4,
      "note": 85,
      "start": 52.0755,
      "duration": 0.096,
      "velocity": 127,
      "chip": "ym2612"
    },
    {
      "channel": 1,
      "note": 71,
      "start": 52.0913,
      "duration": 0.0968,
      "velocity": 98,
      "chip": "ym2612"
    },
    {
      "channel": 3,
      "note": 78,
      "start": 52.0944,
      "duration": 0.0938,
      "velocity": 127,
      "chip": "ym2612"
    },
    {
      "channel": 1,
      "note": 77,
      "start": 52.1913,
      "duration": 0.13,
      "velocity": 98,
      "chip": "ym2612"
    },
    {
      "channel": 1,
      "note": 74,
      "start": 52.3412,
      "duration": 0.1134,
      "velocity": 98,
      "chip": "ym2612"
    },
    {
      "channel": 1,
      "note": 76,
      "start": 52.4582,
      "duration": 0.1131,
      "velocity": 98,
      "chip": "ym2612"
    },
    {
      "channel": 1,
      "note": 77,
      "start": 52.7075,
      "duration": 0.1137,
      "velocity": 98,
      "chip": "ym2612"
    },
    {
      "channel": 1,
      "note": 74,
      "start": 52.8408,
      "duration": 0.1305,
      "velocity": 98,
      "chip": "ym2612"
    },
    {
      "channel": 5,
      "note": 76,
      "start": 52.9578,
      "duration": 0.1136,
      "velocity": 98,
      "chip": "ym2612"
    },
    {
      "channel": 1,
      "note": 77,
      "start": 53.2075,
      "duration": 0.1137,
      "velocity": 98,
      "chip": "ym2612"
    },
    {
      "channel": 1,
      "note": 74,
      "start": 53.3409,
      "duration": 0.1137,
      "velocity": 98,
      "chip": "ym2612"
    },
    {
      "channel": 1,
      "note": 76,
      "start": 53.4578,
      "duration": 0.1135,
      "velocity": 98,
      "chip": "ym2612"
    },
    {
      "channel": 1,
      "note": 74,
      "start": 53.6078,
      "duration": 0.1135,
      "velocity": 98,
      "chip": "ym2612"
    },
    {
      "channel": 1,
      "note": 71,
      "start": 53.8578,
      "duration": 0.3635,
      "velocity": 98,
      "chip": "ym2612"
    },
    {
      "channel": 3,
      "note": 76,
      "start": 53.8608,
      "duration": 0.0937,
      "velocity": 127,
      "chip": "ym2612"
    },
    {
      "channel": 3,
      "note": 73,
      "start": 53.958,
      "duration": 0.0966,
      "velocity": 127,
      "chip": "ym2612"
    },
    {
      "channel": 3,
      "note": 71,
      "start": 54.1084,
      "duration": 0.0962,
      "velocity": 127,
      "chip": "ym2612"
    },
    {
      "channel": 0,
      "note": 59,
      "start": 54.2079,
      "duration": 0.2467,
      "velocity": 96,
      "chip": "ym2612"
    },
    {
      "channel": 2,
      "note": 82,
      "start": 54.2107,
      "duration": 0.0941,
      "velocity": 85,
      "chip": "ym2612"
    },
    {
      "channel": 3,
      "note": 66,
      "start": 54.2134,
      "duration": 0.0912,
      "velocity": 127,
      "chip": "ym2612"
    },
    {
      "channel": 4,
      "note": 71,
      "start": 54.3581,
      "duration": 0.08,
      "velocity": 101,
      "chip": "ym2612"
    },
    {
      "channel": 5,
      "note": 78,
      "start": 54.361,
      "duration": 0.0772,
      "velocity": 101,
      "chip": "ym2612"
    },
    {
      "channel": 3,
      "note": 73,
      "start": 54.3639,
      "duration": 0.0908,
      "velocity": 127,
      "chip": "ym2612"
    },
    {
      "channel": 4,
      "note": 78,
      "start": 54.4582,
      "duration": 0.0965,
      "velocity": 101,
      "chip": "ym2612"
    },
    {
      "channel": 5,
      "note": 83,
      "start": 54.4614,
      "duration": 0.0934,
      "velocity": 101,
      "chip": "ym2612"
    },
    {
      "channel": 2,
      "note": 82,
      "start": 54.4638,
      "duration": 0.0911,
      "velocity": 85,
      "chip": "ym2612"
    },
    {
      "channel": 3,
      "note": 76,
      "start": 54.4664,
      "duration": 0.0881,
      "velocity": 127,
      "chip": "ym2612"
    },
    {
      "channel": 4,
      "note": 78,
      "start": 54.6079,
      "duration": 0.08,
      "velocity": 101,
      "chip": "ym2612"
    },
    {
      "channel": 5,
      "note": 83,
      "start": 54.6107,
      "duration": 0.0773,
      "velocity": 101,
      "chip": "ym2612"
    },
    {
      "channel": 3,
      "note": 78,
      "start": 54.6137,
      "duration": 0.0909,
      "velocity": 127,
      "chip": "ym2612"
    },
    {
      "channel": 0,
      "note": 54,
      "start": 54.7079,
      "duration": 0.2466,
      "velocity": 96,
      "chip": "ym2612"
    },
    {
      "channel": 2,
      "note": 82,
      "start": 54.7103,
      "duration": 0.0945,
      "velocity": 85,
      "chip": "ym2612"
    },
    {
      "channel": 3,
      "note": 66,
      "start": 54.7129,
      "duration": 0.0916,
      "velocity": 127,
      "chip": "ym2612"
    },
    {
      "channel": 4,
      "note": 71,
      "start": 54.8577,
      "duration": 0.0802,
      "velocity": 101,
      "chip": "ym2612"
    },
    {
      "channel": 5,
      "note": 78,
      "start": 54.8605,
      "duration": 0.0776,
      "velocity": 101,
      "chip": "ym2612"
    },
    {
      "channel": 2,
      "note": 82,
      "start": 54.8631,
      "duration": 0.0917,
      "velocity": 85,
      "chip": "ym2612"
    },
    {
      "channel": 4,
      "note": 78,
      "start": 54.9581,
      "duration": 0.0968,
      "velocity": 101,
      "chip": "ym2612"
    },
    {
      "channel": 5,
      "note": 83,
      "start": 54.9609,
      "duration": 0.0941,
      "velocity": 101,
      "chip": "ym2612"
    },
    {
      "channel": 1,
      "note": 90,
      "start": 54.9647,
      "duration": 0.0566,
      "velocity": 127,
      "chip": "ym2612"
    },
    {
      "channel": 3,
      "note": 71,
      "start": 54.9675,
      "duration": 0.0872,
      "velocity": 127,
      "chip": "ym2612"
    },
    {
      "channel": 1,
      "note": 90,
      "start": 55.0251,
      "duration": 0.063,
      "velocity": 127,
      "chip": "ym2612"
    },
    {
      "channel": 1,
      "note": 90,
      "start": 55.0918,
      "duration": 0.0462,
      "velocity": 127,
      "chip": "ym2612"
    },
    {
      "channel": 4,
      "note": 78,
      "start": 55.1085,
      "duration": 0.0796,
      "velocity": 101,
      "chip": "ym2612"
    },
    {
      "channel": 5,
      "note": 83,
      "start": 55.1113,
      "duration": 0.077,
      "velocity": 101,
      "chip": "ym2612"
    },
    {
      "channel": 2,
      "note": 82,
      "start": 55.1139,
      "duration": 0.0912,
      "velocity": 85,
      "chip": "ym2612"
    },
    {
      "channel": 3,
      "note": 78,
      "start": 55.1165,
      "duration": 0.0884,
      "velocity": 127,
      "chip": "ym2612"
    },
    {
      "channel": 1,
      "note": 90,
      "start": 55.1418,
      "duration": 0.0629,
      "velocity": 127,
      "chip": "ym2612"
    },
    {
      "channel": 1,
      "note": 90,
      "start": 55.209,
      "duration": 0.0957,
      "velocity": 127,
      "chip": "ym2612"
    },
    {
      "channel": 0,
      "note": 59,
      "start": 55.2115,
      "duration": 0.2431,
      "velocity": 96,
      "chip": "ym2612"
    },
    {
      "channel": 2,
      "note": 82,
      "start": 55.2139,
      "duration": 0.0911,
      "velocity": 85,
      "chip": "ym2612"
    },
    {
      "channel": 3,
      "note": 66,
      "start": 55.2169,
      "duration": 0.0879,
      "velocity": 127,
      "chip": "ym2612"
    },
    {
      "channel": 4,
      "note": 74,
      "start": 55.3578,
      "duration": 0.0803,
      "velocity": 101,
      "chip": "ym2612"
    },
    {
      "channel": 5,
      "note": 78,
      "start": 55.3606,
      "duration": 0.0777,
      "velocity": 101,
      "chip": "ym2612"
    },
    {
      "channel": 3,
      "note": 73,
      "start": 55.3636,
      "duration": 0.0912,
      "velocity": 127,
      "chip": "ym2612"
    },
    {
      "channel": 4,
      "note": 76,
      "start": 55.4582,
      "duration": 0.0968,
      "velocity": 101,
      "chip": "ym2612"
    },
    {
      "channel": 5,
      "note": 80,
      "start": 55.4609,
      "duration": 0.0941,
      "velocity": 101,
      "chip": "ym2612"
    },
    {
      "channel": 1,
      "note": 90,
      "start": 55.4645,
      "duration": 0.0902,
      "velocity": 127,
      "chip": "ym2612"
    },
    {
      "channel": 2,
      "note": 82,
      "start": 55.467,
      "duration": 0.0882,
      "velocity": 85,
      "chip": "ym2612"
    },
    {
      "channel": 3,
      "note": 76,
      "start": 55.4696,
      "duration": 0.0852,
      "velocity": 127,
      "chip": "ym2612"
    },
    {
      "channel": 4,
      "note": 74,
      "start": 55.608,
      "duration": 0.08,
      "velocity": 101,
      "chip": "ym2612"
    },
    {
      "channel": 5,
      "note": 78,
      "start": 55.6112,
      "duration": 0.077,
      "velocity": 101,
      "chip": "ym2612"
    },
    {
      "channel": 0,
      "note": 54,
      "start": 55.614,
      "duration": 0.5906,
      "velocity": 96,
      "chip": "ym2612"
    },
    {
      "channel": 2,
      "note": 82,
      "start": 55.6164,
      "duration": 0.0885,
      "velocity": 85,
      "chip": "ym2612"
    },
    {
      "channel": 3,
      "note": 66,
      "start": 55.619,
      "duration": 0.0858,
      "velocity": 127,
      "chip": "ym2612"
    },
    {
      "channel": 1,
      "note": 85,
      "start": 55.7087,
      "duration": 0.1127,
      "velocity": 127,
      "chip": "ym2612"
    },
    {
      "channel": 3,
      "note": 78,
      "start": 55.7115,
      "duration": 0.11,
      "velocity": 127,
      "chip": "ym2612"
    },
    {
      "channel": 1,
      "note": 90,
      "start": 55.8419,
      "duration": 0.0961,
      "velocity": 127,
      "chip": "ym2612"
    },
    {
      "channel": 4,
      "note": 76,
      "start": 55.8578,
      "duration": 0.0803,
      "velocity": 101,
      "chip": "ym2612"
    },
    {
      "channel": 5,
      "note": 80,
      "start": 55.8606,
      "duration": 0.0777,
      "velocity": 101,
      "chip": "ym2612"
    },
    {
      "channel": 2,
      "note": 82,
      "start": 55.8633,
      "duration": 0.0916,
      "velocity": 85,
      "chip": "ym2612"
    },
    {
      "channel": 3,
      "note": 66,
      "start": 55.8659,
      "duration": 0.0888,
      "velocity": 127,
      "chip": "ym2612"
    },
    {
      "channel": 2,
      "note": 82,
      "start": 55.9583,
      "duration": 0.1133,
      "velocity": 85,
      "chip": "ym2612"
    },
    {
      "channel": 3,
      "note": 71,
      "start": 55.9609,
      "duration": 0.1104,
      "velocity": 127,
      "chip": "ym2612"
    },
    {
      "channel": 1,
      "note": 90,
      "start": 56.0919,
      "duration": 0.0961,
      "velocity": 127,
      "chip": "ym2612"
    },
    {
      "channel": 4,
      "note": 74,
      "start": 56.1078,
      "duration": 0.0803,
      "velocity": 101,
      "chip": "ym2612"
    },
    {
      "channel": 5,
      "note": 78,
      "start": 56.1106,
      "duration": 0.0777,
      "velocity": 101,
      "chip": "ym2612"
    },
    {
      "channel": 3,
      "note": 78,
      "start": 56.1135,
      "duration": 0.0912,
      "velocity": 127,
      "chip": "ym2612"
    },
    {
      "channel": 1,
      "note": 90,
      "start": 56.2086,
      "duration": 0.1128,
      "velocity": 127,
      "chip": "ym2612"
    },
    {
      "channel": 0,
      "note": 59,
      "start": 56.2113,
      "duration": 0.2434,
      "velocity": 96,
      "chip": "ym2612"
    },
    {
      "channel": 2,
      "note": 82,
      "start": 56.2135,
      "duration": 0.1082,
      "velocity": 85,
      "chip": "ym2612"
    },
    {
      "channel": 3,
      "note": 66,
      "start": 56.2165,
      "duration": 0.105,
      "velocity": 127,
      "chip": "ym2612"
    },
    {
      "channel": 4,
      "note": 71,
      "start": 56.3578,
      "duration": 0.0802,
      "velocity": 101,
      "chip": "ym2612"
    },
    {
      "channel": 5,
      "note": 78,
      "start": 56.3606,
      "duration": 0.0776,
      "velocity": 101,
      "chip": "ym2612"
    },
    {
      "channel": 3,
      "note": 73,
      "start": 56.3635,
      "duration": 0.0913,
      "velocity": 127,
      "chip": "ym2612"
    },
    {
      "channel": 4,
      "note": 78,
      "start": 56.4586,
      "duration": 0.113,
      "velocity": 101,
      "chip": "ym2612"
    },
    {
      "channel": 5,
      "note": 83,
      "start": 56.4614,
      "duration": 0.1103,
      "velocity": 101,
      "chip": "ym2612"
    },
    {
      "channel": 1,
      "note": 90,
      "start": 56.4646,
      "duration": 0.1067,
      "velocity": 127,
      "chip": "ym2612"
    },
    {
      "channel": 2,
      "note": 82,
      "start": 56.467,
      "duration": 0.1049,
      "velocity": 85,
      "chip": "ym2612"
    },
    {
      "channel": 3,
      "note": 76,
      "start": 56.4696,
      "duration": 0.1019,
      "velocity": 127,
      "chip": "ym2612"
    },
    {
      "channel": 4,
      "note": 78,
      "start": 56.608,
      "duration": 0.08,
      "velocity": 101,
      "chip": "ym2612"
    },
    {
      "channel": 5,
      "note": 83,
      "start": 56.6108,
      "duration": 0.0774,
      "velocity": 101,
      "chip": "ym2612"
    },
    {
      "channel": 3,
      "note": 78,
      "start": 56.6138,
      "duration": 0.1076,
      "velocity": 127,
      "chip": "ym2612"
    },
    {
      "channel": 1,
      "note": 85,
      "start": 56.7253,
      "duration": 0.096,
      "velocity": 127,
      "chip": "ym2612"
    },
    {
      "channel": 0,
      "note": 54,
      "start": 56.7276,
      "duration": 0.2436,
      "velocity": 96,
      "chip": "ym2612"
    },
    {
      "channel": 2,
      "note": 82,
      "start": 56.7301,
      "duration": 0.0916,
      "velocity": 85,
      "chip": "ym2612"
    },
    {
      "channel": 3,
      "note": 66,
      "start": 56.7327,
      "duration": 0.0887,
      "velocity": 127,
      "chip": "ym2612"
    },
    {
      "channel": 1,
      "note": 90,
      "start": 56.8418,
      "duration": 0.0963,
      "velocity": 127,
      "chip": "ym2612"
    },
    {
      "channel": 4,
      "note": 71,
      "start": 56.8579,
      "duration": 0.0803,
      "velocity": 101,
      "chip": "ym2612"
    },
    {
      "channel": 5,
      "note": 78,
      "start": 56.8607,
      "duration": 0.0777,
      "velocity": 101,
      "chip": "ym2612"
    },
    {
      "channel": 2,
      "note": 82,
      "start": 56.8633,
      "duration": 0.1083,
      "velocity": 85,
      "chip": "ym2612"
    },
    {
      "channel": 4,
      "note": 78,
      "start": 56.9748,
      "duration": 0.0966,
      "velocity": 101,
      "chip": "ym2612"
    },
    {
      "channel": 5,
      "note": 83,
      "start": 56.978,
      "duration": 0.0936,
      "velocity": 101,
      "chip": "ym2612"
    },
    {
      "channel": 3,
      "note": 71,
      "start": 56.981,
      "duration": 0.0904,
      "velocity": 127,
      "chip": "ym2612"
    },
    {
      "channel": 1,
      "note": 85,
      "start": 57.0919,
      "duration": 0.0961,
      "velocity": 127,
      "chip": "ym2612"
    },
    {
      "channel": 4,
      "note": 78,
      "start": 57.1081,
      "duration": 0.08,
      "velocity": 101,
      "chip": "ym2612"
    },
    {
      "channel": 5,
      "note": 83,
      "start": 57.1108,
      "duration": 0.0775,
      "velocity": 101,
      "chip": "ym2612"
    },
    {
      "channel": 2,
      "note": 82,
      "start": 57.1134,
      "duration": 0.1081,
      "velocity": 85,
      "chip": "ym2612"
    },
    {
      "channel": 3,
      "note": 78,
      "start": 57.1161,
      "duration": 0.1053,
      "velocity": 127,
      "chip": "ym2612"
    },
    {
      "channel": 1,
      "note": 90,
      "start": 57.2257,
      "duration": 0.0955,
      "velocity": 127,
      "chip": "ym2612"
    },
    {
      "channel": 0,
      "note": 59,
      "start": 57.2282,
      "duration": 0.2431,
      "velocity": 96,
      "chip": "ym2612"
    },
    {
      "channel": 2,
      "note": 82,
      "start": 57.2306,
      "duration": 0.091,
      "velocity": 85,
      "chip": "ym2612"
    },
    {
      "channel": 3,
      "note": 66,
      "start": 57.2332,
      "duration": 0.0882,
      "velocity": 127,
      "chip": "ym2612"
    },
    {
      "channel": 4,
      "note": 74,
      "start": 57.3578,
      "duration": 0.0802,
      "velocity": 101,
      "chip": "ym2612"
    },
    {
      "channel": 5,
      "note": 78,
      "start": 57.3606,
      "duration": 0.0776,
      "velocity": 101,
      "chip": "ym2612"
    },
    {
      "channel": 3,
      "note": 73,
      "start": 57.3639,
      "duration": 0.1076,
      "velocity": 127,
      "chip": "ym2612"
    },
    {
      "channel": 1,
      "note": 90,
      "start": 57.3918,
      "duration": 0.0962,
      "velocity": 127,
      "chip": "ym2612"
    },
    {
      "channel": 4,
      "note": 76,
      "start": 57.475,
      "duration": 0.0966,
      "velocity": 101,
      "chip": "ym2612"
    },
    {
      "channel": 5,
      "note": 80,
      "start": 57.4777,
      "duration": 0.094,
      "velocity": 101,
      "chip": "ym2612"
    },
    {
      "channel": 2,
      "note": 82,
      "start": 57.4803,
      "duration": 0.0915,
      "velocity": 85,
      "chip": "ym2612"
    },
    {
      "channel": 3,
      "note": 76,
      "start": 57.483,
      "duration": 0.0885,
      "velocity": 127,
      "chip": "ym2612"
    },
    {
      "channel": 1,
      "note": 90,
      "start": 57.5584,
      "duration": 0.0963,
      "velocity": 127,
      "chip": "ym2612"
    },
    {
      "channel": 4,
      "note": 74,
      "start": 57.6084,
      "duration": 0.0797,
      "velocity": 101,
      "chip": "ym2612"
    },
    {
      "channel": 5,
      "note": 78,
      "start": 57.6112,
      "duration": 0.0771,
      "velocity": 101,
      "chip": "ym2612"
    },
    {
      "channel": 0,
      "note": 54,
      "start": 57.6139,
      "duration": 0.6074,
      "velocity": 96,
      "chip": "ym2612"
    },
    {
      "channel": 2,
      "note": 82,
      "start": 57.6164,
      "duration": 0.1052,
      "velocity": 85,
      "chip": "ym2612"
    },
    {
      "channel": 3,
      "note": 66,
      "start": 57.619,
      "duration": 0.1024,
      "velocity": 127,
      "chip": "ym2612"
    },
    {
      "channel": 1,
      "note": 90,
      "start": 57.7252,
      "duration": 0.0961,
      "velocity": 127,
      "chip": "ym2612"
    },
    {
      "channel": 3,
      "note": 78,
      "start": 57.728,
      "duration": 0.0934,
      "velocity": 127,
      "chip": "ym2612"
    },
    {
      "channel": 4,
      "note": 76,
      "start": 57.8746,
      "duration": 0.0801,
      "velocity": 101,
      "chip": "ym2612"
    },
    {
      "channel": 5,
      "note": 80,
      "start": 57.8774,
      "duration": 0.0775,
      "velocity": 101,
      "chip": "ym2612"
    },
    {
      "channel": 2,
      "note": 82,
      "start": 57.8804,
      "duration": 0.0913,
      "velocity": 85,
      "chip": "ym2612"
    },
    {
      "channel": 3,
      "note": 66,
      "start": 57.883,
      "duration": 0.0885,
      "velocity": 127,
      "chip": "ym2612"
    },
    {
      "channel": 1,
      "note": 90,
      "start": 57.8917,
      "duration": 0.0964,
      "velocity": 127,
      "chip": "ym2612"
    },
    {
      "channel": 2,
      "note": 82,
      "start": 57.9747,
      "duration": 0.0969,
      "velocity": 85,
      "chip": "ym2612"
    },
    {
      "channel": 3,
      "note": 71,
      "start": 57.9773,
      "duration": 0.0941,
      "velocity": 127,
      "chip": "ym2612"
    },
    {
      "channel": 1,
      "note": 90,
      "start": 58.0584,
      "duration": 0.0963,
      "velocity": 127,
      "chip": "ym2612"
    },
    {
      "channel": 4,
      "note": 74,
      "start": 58.1245,
      "duration": 0.0804,
      "velocity": 101,
      "chip": "ym2612"
    },
    {
      "channel": 5,
      "note": 78,
      "start": 58.1273,
      "duration": 0.0777,
      "velocity": 101,
      "chip": "ym2612"
    },
    {
      "channel": 3,
      "note": 78,
      "start": 58.1302,
      "duration": 0.0913,
      "velocity": 127,
      "chip": "ym2612"
    },
    {
      "channel": 1,
      "note": 90,
      "start": 58.2255,
      "duration": 0.1126,
      "velocity": 127,
      "chip": "ym2612"
    },
    {
      "channel": 0,
      "note": 59,
      "start": 58.2285,
      "duration": 0.2427,
      "velocity": 96,
      "chip": "ym2612"
    },
    {
      "channel": 2,
      "note": 82,
      "start": 58.2307,
      "duration": 0.0908,
      "velocity": 85,
      "chip": "ym2612"
    },
    {
      "channel": 3,
      "note": 66,
      "start": 58.2334,
      "duration": 0.088,
      "velocity": 127,
      "chip": "ym2612"
    },
    {
      "channel": 4,
      "note": 71,
      "start": 58.3746,
      "duration": 0.0802,
      "velocity": 101,
      "chip": "ym2612"
    },
    {
      "channel": 5,
      "note": 78,
      "start": 58.3774,
      "duration": 0.0776,
      "velocity": 101,
      "chip": "ym2612"
    },
    {
      "channel": 3,
      "note": 73,
      "start": 58.3807,
      "duration": 0.0908,
      "velocity": 127,
      "chip": "ym2612"
    },
    {
      "channel": 4,
      "note": 78,
      "start": 58.4752,
      "duration": 0.0963,
      "velocity": 101,
      "chip": "ym2612"
    },
    {
      "channel": 5,
      "note": 83,
      "start": 58.478,
      "duration": 0.0936,
      "velocity": 101,
      "chip": "ym2612"
    },
    {
      "channel": 1,
      "note": 90,
      "start": 58.4813,
      "duration": 0.1067,
      "velocity": 127,
      "chip": "ym2612"
    },
    {
      "channel": 2,
      "note": 82,
      "start": 58.4837,
      "duration": 0.088,
      "velocity": 85,
      "chip": "ym2612"
    },
    {
      "channel": 3,
      "note": 76,
      "start": 58.4863,
      "duration": 0.085,
      "velocity": 127,
      "chip": "ym2612"
    },
    {
      "channel": 1,
      "note": 85,
      "start": 58.5918,
      "duration": 0.1295,
      "velocity": 127,
      "chip": "ym2612"
    },
    {
      "channel": 4,
      "note": 78,
      "start": 58.6248,
      "duration": 0.0799,
      "velocity": 101,
      "chip": "ym2612"
    },
    {
      "channel": 5,
      "note": 83,
      "start": 58.6276,
      "duration": 0.0773,
      "velocity": 101,
      "chip": "ym2612"
    },
    {
      "channel": 3,
      "note": 78,
      "start": 58.6305,
      "duration": 0.091,
      "velocity": 127,
      "chip": "ym2612"
    },
    {
      "channel": 1,
      "note": 90,
      "start": 58.7255,
      "duration": 0.0626,
      "velocity": 127,
      "chip": "ym2612"
    },
    {
      "channel": 0,
      "note": 54,
      "start": 58.7278,
      "duration": 0.2435,
      "velocity": 96,
      "chip": "ym2612"
    },
    {
      "channel": 2,
      "note": 82,
      "start": 58.7302,
      "duration": 0.0913,
      "velocity": 85,
      "chip": "ym2612"
    },
    {
      "channel": 3,
      "note": 66,
      "start": 58.7329,
      "duration": 0.0885,
      "velocity": 127,
      "chip": "ym2612"
    },
    {
      "channel": 1,
      "note": 90,
      "start": 58.7922,
      "duration": 0.0625,
      "velocity": 127,
      "chip": "ym2612"
    },
    {
      "channel": 1,
      "note": 90,
      "start": 58.8585,
      "duration": 0.0462,
      "velocity": 127,
      "chip": "ym2612"
    },
    {
      "channel": 4,
      "note": 71,
      "start": 58.8746,
      "duration": 0.0802,
      "velocity": 101,
      "chip": "ym2612"
    },
    {
      "channel": 5,
      "note": 78,
      "start": 58.8774,
      "duration": 0.0775,
      "velocity": 101,
      "chip": "ym2612"
    },
    {
      "channel": 2,
      "note": 82,
      "start": 58.88,
      "duration": 0.0918,
      "velocity": 85,
      "chip": "ym2612"
    },
    {
      "channel": 1,
      "note": 90,
      "start": 58.9084,
      "duration": 0.063,
      "velocity": 127,
      "chip": "ym2612"
    },
    {
      "channel": 4,
      "note": 78,
      "start": 58.9754,
      "duration": 0.0961,
      "velocity": 101,
      "chip": "ym2612"
    },
    {
      "channel": 5,
      "note": 83,
      "start": 58.9782,
      "duration": 0.0934,
      "velocity": 101,
      "chip": "ym2612"
    },
    {
      "channel": 1,
      "note": 85,
      "start": 58.9817,
      "duration": 0.123,
      "velocity": 127,
      "chip": "ym2612"
    },
    {
      "channel": 3,
      "note": 71,
      "start": 58.9845,
      "duration": 0.0869,
      "velocity": 127,
      "chip": "ym2612"
    },
    {
      "channel": 1,
      "note": 90,
      "start": 59.1086,
      "duration": 0.1127,
      "velocity": 127,
      "chip": "ym2612"
    },
    {
      "channel": 4,
      "note": 78,
      "start": 59.1248,
      "duration": 0.08,
      "velocity": 101,
      "chip": "ym2612"
    },
    {
      "channel": 5,
      "note": 83,
      "start": 59.1276,
      "duration": 0.0773,
      "velocity": 101,
      "chip": "ym2612"
    },
    {
      "channel": 2,
      "note": 82,
      "start": 59.1302,
      "duration": 0.0914,
      "velocity": 85,
      "chip": "ym2612"
    },
    {
      "channel": 3,
      "note": 78,
      "start": 59.1329,
      "duration": 0.0885,
      "velocity": 127,
      "chip": "ym2612"
    },
    {
      "channel": 0,
      "note": 59,
      "start": 59.2246,
      "duration": 0.2467,
      "velocity": 96,
      "chip": "ym2612"
    },
    {
      "channel": 2,
      "note": 82,
      "start": 59.2271,
      "duration": 0.0945,
      "velocity": 85,
      "chip": "ym2612"
    },
    {
      "channel": 3,
      "note": 66,
      "start": 59.2297,
      "duration": 0.0917,
      "velocity": 127,
      "chip": "ym2612"
    },
    {
      "channel": 1,
      "note": 90,
      "start": 59.3584,
      "duration": 0.113,
      "velocity": 127,
      "chip": "ym2612"
    },
    {
      "channel": 4,
      "note": 74,
      "start": 59.3745,
      "duration": 0.0802,
      "velocity": 101,
      "chip": "ym2612"
    },
    {
      "channel": 5,
      "note": 78,
      "start": 59.3773,
      "duration": 0.0776,
      "velocity": 101,
      "chip": "ym2612"
    },
    {
      "channel": 3,
      "note": 73,
      "start": 59.3802,
      "duration": 0.0914,
      "velocity": 127,
      "chip": "ym2612"
    },
    {
      "channel": 4,
      "note": 76,
      "start": 59.475,
      "duration": 0.0965,
      "velocity": 101,
      "chip": "ym2612"
    },
    {
      "channel": 5,
      "note": 80,
      "start": 59.4781,
      "duration": 0.0935,
      "velocity": 101,
      "chip": "ym2612"
    },
    {
      "channel": 2,
      "note": 82,
      "start": 59.4807,
      "duration": 0.091,
      "velocity": 85,
      "chip": "ym2612"
    },
    {
      "channel": 3,
      "note": 76,
      "start": 59.4837,
      "duration": 0.0876,
      "velocity": 127,
      "chip": "ym2612"
    },
    {
      "channel": 1,
      "note": 85,
      "start": 59.6085,
      "duration": 0.1128,
      "velocity": 127,
      "chip": "ym2612"
    },
    {
      "channel": 4,
      "note": 74,
      "start": 59.6248,
      "duration": 0.08,
      "velocity": 101,
      "chip": "ym2612"
    },
    {
      "channel": 5,
      "note": 78,
      "start": 59.6275,
      "duration": 0.0774,
      "velocity": 101,
      "chip": "ym2612"
    },
    {
      "channel": 0,
      "note": 54,
      "start": 59.6303,
      "duration": 0.591,
      "velocity": 96,
      "chip": "ym2612"
    },
    {
      "channel": 2,
      "note": 82,
      "start": 59.633,
      "duration": 0.0886,
      "velocity": 85,
      "chip": "ym2612"
    },
    {
      "channel": 3,
      "note": 66,
      "start": 59.6357,
      "duration": 0.0857,
      "velocity": 127,
      "chip": "ym2612"
    },
    {
      "channel": 1,
      "note": 90,
      "start": 59.7255,
      "duration": 0.0624,
      "velocity": 127,
      "chip": "ym2612"
    },
    {
      "channel": 3,
      "note": 78,
      "start": 59.7283,
      "duration": 0.0931,
      "velocity": 127,
      "chip": "ym2612"
    },
    {
      "channel": 1,
      "note": 90,
      "start": 59.7918,
      "duration": 0.063,
      "velocity": 127,
      "chip": "ym2612"
    },
    {
      "channel": 1,
      "note": 90,
      "start": 59.8585,
      "duration": 0.0629,
      "velocity": 127,
      "chip": "ym2612"
    },
    {
      "channel": 4,
      "note": 71,
      "start": 59.8746,
      "duration": 0.0802,
      "velocity": 101,
      "chip": "ym2612"
    },
    {
      "channel": 5,
      "note": 76,
      "start": 59.8774,
      "duration": 0.0775,
      "velocity": 101,
      "chip": "ym2612"
    },
    {
      "channel": 2,
      "note": 82,
      "start": 59.88,
      "duration": 0.0917,
      "velocity": 85,
      "chip": "ym2612"
    },
    {
      "channel": 3,
      "note": 66,
      "start": 59.8826,
      "duration": 0.0888,
      "velocity": 127,
      "chip": "ym2612"
    },
    {
      "channel": 1,
      "note": 90,
      "start": 59.9255,
      "duration": 0.0457,
      "velocity": 127,
      "chip": "ym2612"
    },
    {
      "channel": 1,
      "note": 85,
      "start": 59.9755,
      "duration": 0.1291,
      "velocity": 127,
      "chip": "ym2612"
    },
    {
      "channel": 2,
      "note": 82,
      "start": 59.9781,
      "duration": 0.1102,
      "velocity": 85,
      "chip": "ym2612"
    },
    {
      "channel": 3,
      "note": 71,
      "start": 59.9807,
      "duration": 0.1074,
      "velocity": 127,
      "chip": "ym2612"
    },
    {
      "channel": 1,
      "note": 90,
      "start": 60.1085,
      "duration": 0.1129,
      "velocity": 127,
      "chip": "ym2612"
    },
    {
      "channel": 4,
      "note": 69,
      "start": 60.1245,
      "duration": 0.0802,
      "velocity": 101,
      "chip": "ym2612"
    },
    {
      "channel": 5,
      "note": 74,
      "start": 60.1273,
      "duration": 0.0776,
      "velocity": 101,
      "chip": "ym2612"
    },
    {
      "channel": 3,
      "note": 78,
      "start": 60.1302,
      "duration": 0.0914,
      "velocity": 127,
      "chip": "ym2612"
    },
    {
      "channel": 0,
      "note": 59,
      "start": 60.2248,
      "duration": 0.2465,
      "velocity": 96,
      "chip": "ym2612"
    },
    {
      "channel": 2,
      "note": 82,
      "start": 60.2271,
      "duration": 0.1111,
      "velocity": 85,
      "chip": "ym2612"
    },
    {
      "channel": 3,
      "note": 66,
      "start": 60.2297,
      "duration": 0.1083,
      "velocity": 127,
      "chip": "ym2612"
    },
    {
      "channel": 1,
      "note": 85,
      "start": 60.3584,
      "duration": 0.1131,
      "velocity": 127,
      "chip": "ym2612"
    },
    {
      "channel": 4,
      "note": 66,
      "start": 60.3752,
      "duration": 0.9464,
      "velocity": 101,
      "chip": "ym2612"
    },
    {
      "channel": 5,
      "note": 71,
      "start": 60.378,
      "duration": 0.9436,
      "velocity": 101,
      "chip": "ym2612"
    },
    {
      "channel": 3,
      "note": 73,
      "start": 60.381,
      "duration": 0.0906,
      "velocity": 127,
      "chip": "ym2612"
    },
    {
      "channel": 2,
      "note": 82,
      "start": 60.4746,
      "duration": 0.1136,
      "velocity": 85,
      "chip": "ym2612"
    },
    {
      "channel": 3,
      "note": 76,
      "start": 60.4776,
      "duration": 0.1104,
      "velocity": 127,
      "chip": "ym2612"
    },
    {
      "channel": 1,
      "note": 90,
      "start": 60.6086,
      "duration": 0.1127,
      "velocity": 127,
      "chip": "ym2612"
    },
    {
      "channel": 3,
      "note": 78,
      "start": 60.6248,
      "duration": 0.0966,
      "velocity": 127,
      "chip": "ym2612"
    },
    {
      "channel": 1,
      "note": 85,
      "start": 60.7254,
      "duration": 0.1293,
      "velocity": 127,
      "chip": "ym2612"
    },
    {
      "channel": 0,
      "note": 54,
      "start": 60.7277,
      "duration": 0.2602,
      "velocity": 96,
      "chip": "ym2612"
    },
    {
      "channel": 2,
      "note": 82,
      "start": 60.7301,
      "duration": 0.1082,
      "velocity": 85,
      "chip": "ym2612"
    },
    {
      "channel": 3,
      "note": 66,
      "start": 60.7327,
      "duration": 0.1054,
      "velocity": 127,
      "chip": "ym2612"
    },
    {
      "channel": 2,
      "note": 82,
      "start": 60.8745,
      "duration": 0.1139,
      "velocity": 85,
      "chip": "ym2612"
    },
    {
      "channel": 1,
      "note": 90,
      "start": 60.9922,
      "duration": 0.0458,
      "velocity": 127,
      "chip": "ym2612"
    },
    {
      "channel": 3,
      "note": 71,
      "start": 60.9951,
      "duration": 0.093,
      "velocity": 127,
      "chip": "ym2612"
    },
    {
      "channel": 1,
      "note": 90,
      "start": 61.0418,
      "duration": 0.0628,
      "velocity": 127,
      "chip": "ym2612"
    },
    {
      "channel": 1,
      "note": 90,
      "start": 61.1085,
      "duration": 0.0628,
      "velocity": 127,
      "chip": "ym2612"
    },
    {
      "channel": 2,
      "note": 82,
      "start": 61.1246,
      "duration": 0.1138,
      "velocity": 85,
      "chip": "ym2612"
    },
    {
      "channel": 3,
      "note": 78,
      "start": 61.1272,
      "duration": 0.111,
      "velocity": 127,
      "chip": "ym2612"
    },
    {
      "channel": 1,
      "note": 90,
      "start": 61.1755,
      "duration": 0.0625,
      "velocity": 127,
      "chip": "ym2612"
    },
    {
      "channel": 1,
      "note": 90,
      "start": 61.242,
      "duration": 0.0459,
      "velocity": 127,
      "chip": "ym2612"
    },
    {
      "channel": 0,
      "note": 59,
      "start": 61.2445,
      "duration": 0.2434,
      "velocity": 96,
      "chip": "ym2612"
    },
    {
      "channel": 2,
      "note": 82,
      "start": 61.2469,
      "duration": 0.0913,
      "velocity": 85,
      "chip": "ym2612"
    },
    {
      "channel": 3,
      "note": 66,
      "start": 61.2495,
      "duration": 0.0885,
      "velocity": 127,
      "chip": "ym2612"
    },
    {
      "channel": 1,
      "note": 90,
      "start": 61.2918,
      "duration": 0.063,
      "velocity": 127,
      "chip": "ym2612"
    },
    {
      "channel": 1,
      "note": 85,
      "start": 61.3585,
      "duration": 0.0629,
      "velocity": 127,
      "chip": "ym2612"
    },
    {
      "channel": 3,
      "note": 73,
      "start": 61.3749,
      "duration": 0.1134,
      "velocity": 127,
      "chip": "ym2612"
    },
    {
      "channel": 1,
      "note": 85,
      "start": 61.4252,
      "duration": 0.0629,
      "velocity": 127,
      "chip": "ym2612"
    },
    {
      "channel": 1,
      "note": 85,
      "start": 61.492,
      "duration": 0.046,
      "velocity": 127,
      "chip": "ym2612"
    },
    {
      "channel": 2,
      "note": 82,
      "start": 61.4949,
      "duration": 0.0934,
      "velocity": 85,
      "chip": "ym2612"
    },
    {
      "channel": 3,
      "note": 76,
      "start": 61.4975,
      "duration": 0.0906,
      "velocity": 127,
      "chip": "ym2612"
    },
    {
      "channel": 1,
      "note": 85,
      "start": 61.5418,
      "duration": 0.0628,
      "velocity": 127,
      "chip": "ym2612"
    },
    {
      "channel": 1,
      "note": 85,
      "start": 61.6084,
      "duration": 0.0629,
      "velocity": 127,
      "chip": "ym2612"
    },
    {
      "channel": 0,
      "note": 54,
      "start": 61.6249,
      "duration": 0.613,
      "velocity": 96,
      "chip": "ym2612"
    },
    {
      "channel": 2,
      "note": 82,
      "start": 61.6274,
      "duration": 0.1109,
      "velocity": 85,
      "chip": "ym2612"
    },
    {
      "channel": 3,
      "note": 66,
      "start": 61.6304,
      "duration": 0.1078,
      "velocity": 127,
      "chip": "ym2612"
    },
    {
      "channel": 1,
      "note": 85,
      "start": 61.6751,
      "duration": 0.0629,
      "velocity": 127,
      "chip": "ym2612"
    },
    {
      "channel": 1,
      "note": 90,
      "start": 61.7422,
      "duration": 0.1625,
      "velocity": 127,
      "chip": "ym2612"
    },
    {
      "channel": 3,
      "note": 78,
      "start": 61.745,
      "duration": 0.093,
      "velocity": 127,
      "chip": "ym2612"
    },
    {
      "channel": 2,
      "note": 82,
      "start": 61.8745,
      "duration": 0.1138,
      "velocity": 85,
      "chip": "ym2612"
    },
    {
      "channel": 3,
      "note": 66,
      "start": 61.8771,
      "duration": 0.111,
      "velocity": 127,
      "chip": "ym2612"
    },
    {
      "channel": 1,
      "note": 90,
      "start": 61.9085,
      "duration": 0.1629,
      "velocity": 127,
      "chip": "ym2612"
    },
    {
      "channel": 2,
      "note": 82,
      "start": 61.9914,
      "duration": 0.097,
      "velocity": 85,
      "chip": "ym2612"
    },
    {
      "channel": 3,
      "note": 71,
      "start": 61.994,
      "duration": 0.0941,
      "velocity": 127,
      "chip": "ym2612"
    },
    {
      "channel": 1,
      "note": 90,
      "start": 62.0752,
      "duration": 0.1628,
      "velocity": 127,
      "chip": "ym2612"
    },
    {
      "channel": 3,
      "note": 78,
      "start": 62.1415,
      "duration": 0.0967,
      "velocity": 127,
      "chip": "ym2612"
    }
  ]
}