{
  "track_name": "12 - Sunken Ship",
  "duration_sec": 66.933,
  "sample_rate": 44100,
  "note_count": 816,
  "unique_pitches": 42,
  "pitch_range": 49,
  "avg_note_duration": 0.2468,
  "reconstruction_stats": {
    "notes_reconstructed": 816,
    "keyon_events": 816,
    "keyoff_events": 690,
    "orphan_keyons": 2,
    "unique_pitches": 42,
    "pitch_range": 49,
    "avg_duration_sec": 0.2468
  },
  "metadata": {
    "source": "M\\McDonald's Treasure Land Adventure\\12 - Sunken Ship.vgz"
  },
  "notes": [
    {
      "channel": 0,
      "note": 68,
      "start": 0.0,
      "duration": 0.2655,
      "velocity": 106,
      "chip": "ym2612"
    },
    {
      "channel": 0,
      "note": 70,
      "start": 0.2658,
      "duration": 0.083,
      "velocity": 106,
      "chip": "ym2612"
    },
    {
      "channel": 4,
      "note": 68,
      "start": 0.2672,
      "duration": 0.2653,
      "velocity": 106,
      "chip": "ym2612"
    },
    {
      "channel": 0,
      "note": 71,
      "start": 0.349,
      "duration": 0.0832,
      "velocity": 106,
      "chip": "ym2612"
    },
    {
      "channel": 0,
      "note": 73,
      "start": 0.4324,
      "duration": 0.0997,
      "velocity": 106,
      "chip": "ym2612"
    },
    {
      "channel": 0,
      "note": 75,
      "start": 0.5324,
      "duration": 0.1664,
      "velocity": 106,
      "chip": "ym2612"
    },
    {
      "channel": 4,
      "note": 70,
      "start": 0.5328,
      "duration": 0.0829,
      "velocity": 106,
      "chip": "ym2612"
    },
    {
      "channel": 4,
      "note": 71,
      "start": 0.6159,
      "duration": 0.0832,
      "velocity": 106,
      "chip": "ym2612"
    },
    {
      "channel": 4,
      "note": 73,
      "start": 0.6993,
      "duration": 0.1,
      "velocity": 106,
      "chip": "ym2612"
    },
    {
      "channel": 2,
      "note": 75,
      "start": 0.7993,
      "duration": 0.133,
      "velocity": 97,
      "chip": "ym2612"
    },
    {
      "channel": 4,
      "note": 75,
      "start": 0.7996,
      "duration": 0.1662,
      "velocity": 106,
      "chip": "ym2612"
    },
    {
      "channel": 2,
      "note": 75,
      "start": 0.9325,
      "duration": 0.1332,
      "velocity": 97,
      "chip": "ym2612"
    },
    {
      "channel": 2,
      "note": 73,
      "start": 1.0659,
      "duration": 0.1161,
      "velocity": 97,
      "chip": "ym2612"
    },
    {
      "channel": 2,
      "note": 75,
      "start": 1.1823,
      "duration": 0.2664,
      "velocity": 97,
      "chip": "ym2612"
    },
    {
      "channel": 2,
      "note": 73,
      "start": 1.4489,
      "duration": 0.1331,
      "velocity": 97,
      "chip": "ym2612"
    },
    {
      "channel": 2,
      "note": 71,
      "start": 1.7156,
      "duration": 0.2664,
      "velocity": 97,
      "chip": "ym2612"
    },
    {
      "channel": 2,
      "note": 70,
      "start": 1.9823,
      "duration": 0.1334,
      "velocity": 97,
      "chip": "ym2612"
    },
    {
      "channel": 0,
      "note": 70,
      "start": 2.1155,
      "duration": 0.2665,
      "velocity": 106,
      "chip": "ym2612"
    },
    {
      "channel": 0,
      "note": 71,
      "start": 2.3822,
      "duration": 0.083,
      "velocity": 106,
      "chip": "ym2612"
    },
    {
      "channel": 4,
      "note": 70,
      "start": 2.3826,
      "duration": 0.2663,
      "velocity": 106,
      "chip": "ym2612"
    },
    {
      "channel": 0,
      "note": 73,
      "start": 2.4655,
      "duration": 0.0832,
      "velocity": 106,
      "chip": "ym2612"
    },
    {
      "channel": 0,
      "note": 75,
      "start": 2.5489,
      "duration": 0.0997,
      "velocity": 106,
      "chip": "ym2612"
    },
    {
      "channel": 0,
      "note": 77,
      "start": 2.6488,
      "duration": 0.1665,
      "velocity": 106,
      "chip": "ym2612"
    },
    {
      "channel": 4,
      "note": 71,
      "start": 2.6493,
      "duration": 0.083,
      "velocity": 106,
      "chip": "ym2612"
    },
    {
      "channel": 4,
      "note": 73,
      "start": 2.7324,
      "duration": 0.0832,
      "velocity": 106,
      "chip": "ym2612"
    },
    {
      "channel": 4,
      "note": 75,
      "start": 2.8159,
      "duration": 0.0999,
      "velocity": 106,
      "chip": "ym2612"
    },
    {
      "channel": 2,
      "note": 77,
      "start": 2.9156,
      "duration": 0.1163,
      "velocity": 97,
      "chip": "ym2612"
    },
    {
      "channel": 4,
      "note": 77,
      "start": 2.9159,
      "duration": 0.1324,
      "velocity": 106,
      "chip": "ym2612"
    },
    {
      "channel": 2,
      "note": 77,
      "start": 3.0321,
      "duration": 0.1161,
      "velocity": 97,
      "chip": "ym2612"
    },
    {
      "channel": 2,
      "note": 75,
      "start": 3.1484,
      "duration": 0.1163,
      "velocity": 97,
      "chip": "ym2612"
    },
    {
      "channel": 2,
      "note": 77,
      "start": 3.2649,
      "duration": 0.2492,
      "velocity": 97,
      "chip": "ym2612"
    },
    {
      "channel": 2,
      "note": 75,
      "start": 3.5144,
      "duration": 0.1331,
      "velocity": 97,
      "chip": "ym2612"
    },
    {
      "channel": 2,
      "note": 73,
      "start": 3.7811,
      "duration": 0.2664,
      "velocity": 97,
      "chip": "ym2612"
    },
    {
      "channel": 2,
      "note": 71,
      "start": 4.0477,
      "duration": 0.1336,
      "velocity": 97,
      "chip": "ym2612"
    },
    {
      "channel": 0,
      "note": 68,
      "start": 4.1809,
      "duration": 0.2665,
      "velocity": 106,
      "chip": "ym2612"
    },
    {
      "channel": 1,
      "note": 83,
      "start": 4.1812,
      "duration": 0.2665,
      "velocity": 97,
      "chip": "ym2612"
    },
    {
      "channel": 3,
      "note": 83,
      "start": 4.3812,
      "duration": 0.2664,
      "velocity": 97,
      "chip": "ym2612"
    },
    {
      "channel": 0,
      "note": 70,
      "start": 4.4477,
      "duration": 0.0831,
      "velocity": 106,
      "chip": "ym2612"
    },
    {
      "channel": 1,
      "note": 85,
      "start": 4.4479,
      "duration": 0.0832,
      "velocity": 97,
      "chip": "ym2612"
    },
    {
      "channel": 4,
      "note": 68,
      "start": 4.4484,
      "duration": 0.2663,
      "velocity": 106,
      "chip": "ym2612"
    },
    {
      "channel": 0,
      "note": 71,
      "start": 4.531,
      "duration": 0.083,
      "velocity": 106,
      "chip": "ym2612"
    },
    {
      "channel": 1,
      "note": 87,
      "start": 4.5312,
      "duration": 0.0831,
      "velocity": 97,
      "chip": "ym2612"
    },
    {
      "channel": 0,
      "note": 73,
      "start": 4.6143,
      "duration": 0.0998,
      "velocity": 106,
      "chip": "ym2612"
    },
    {
      "channel": 1,
      "note": 89,
      "start": 4.6145,
      "duration": 0.0998,
      "velocity": 97,
      "chip": "ym2612"
    },
    {
      "channel": 3,
      "note": 85,
      "start": 4.6478,
      "duration": 0.0832,
      "velocity": 97,
      "chip": "ym2612"
    },
    {
      "channel": 0,
      "note": 75,
      "start": 4.7143,
      "duration": 0.1665,
      "velocity": 106,
      "chip": "ym2612"
    },
    {
      "channel": 1,
      "note": 90,
      "start": 4.7145,
      "duration": 0.1664,
      "velocity": 97,
      "chip": "ym2612"
    },
    {
      "channel": 4,
      "note": 70,
      "start": 4.715,
      "duration": 0.0827,
      "velocity": 106,
      "chip": "ym2612"
    },
    {
      "channel": 3,
      "note": 87,
      "start": 4.7312,
      "duration": 0.0831,
      "velocity": 97,
      "chip": "ym2612"
    },
    {
      "channel": 4,
      "note": 71,
      "start": 4.7978,
      "duration": 0.0833,
      "velocity": 106,
      "chip": "ym2612"
    },
    {
      "channel": 3,
      "note": 89,
      "start": 4.8146,
      "duration": 0.0996,
      "velocity": 97,
      "chip": "ym2612"
    },
    {
      "channel": 4,
      "note": 73,
      "start": 4.8814,
      "duration": 0.0999,
      "velocity": 106,
      "chip": "ym2612"
    },
    {
      "channel": 3,
      "note": 90,
      "start": 4.9144,
      "duration": 0.1666,
      "velocity": 97,
      "chip": "ym2612"
    },
    {
      "channel": 2,
      "note": 75,
      "start": 4.9812,
      "duration": 0.1329,
      "velocity": 97,
      "chip": "ym2612"
    },
    {
      "channel": 4,
      "note": 75,
      "start": 4.9816,
      "duration": 0.1661,
      "velocity": 106,
      "chip": "ym2612"
    },
    {
      "channel": 2,
      "note": 75,
      "start": 5.1144,
      "duration": 0.1332,
      "velocity": 97,
      "chip": "ym2612"
    },
    {
      "channel": 2,
      "note": 73,
      "start": 5.2477,
      "duration": 0.1162,
      "velocity": 97,
      "chip": "ym2612"
    },
    {
      "channel": 2,
      "note": 75,
      "start": 5.3641,
      "duration": 0.2665,
      "velocity": 97,
      "chip": "ym2612"
    },
    {
      "channel": 2,
      "note": 73,
      "start": 5.6309,
      "duration": 0.133,
      "velocity": 97,
      "chip": "ym2612"
    },
    {
      "channel": 2,
      "note": 71,
      "start": 5.8975,
      "duration": 0.2664,
      "velocity": 97,
      "chip": "ym2612"
    },
    {
      "channel": 2,
      "note": 70,
      "start": 6.1641,
      "duration": 0.1336,
      "velocity": 97,
      "chip": "ym2612"
    },
    {
      "channel": 0,
      "note": 70,
      "start": 6.2973,
      "duration": 0.2665,
      "velocity": 106,
      "chip": "ym2612"
    },
    {
      "channel": 1,
      "note": 85,
      "start": 6.2977,
      "duration": 0.2665,
      "velocity": 97,
      "chip": "ym2612"
    },
    {
      "channel": 3,
      "note": 85,
      "start": 6.4976,
      "duration": 0.2664,
      "velocity": 97,
      "chip": "ym2612"
    },
    {
      "channel": 0,
      "note": 71,
      "start": 6.5641,
      "duration": 0.0831,
      "velocity": 106,
      "chip": "ym2612"
    },
    {
      "channel": 1,
      "note": 87,
      "start": 6.5643,
      "duration": 0.0832,
      "velocity": 97,
      "chip": "ym2612"
    },
    {
      "channel": 4,
      "note": 70,
      "start": 6.5648,
      "duration": 0.2663,
      "velocity": 106,
      "chip": "ym2612"
    },
    {
      "channel": 0,
      "note": 73,
      "start": 6.6474,
      "duration": 0.083,
      "velocity": 106,
      "chip": "ym2612"
    },
    {
      "channel": 1,
      "note": 89,
      "start": 6.6477,
      "duration": 0.0831,
      "velocity": 97,
      "chip": "ym2612"
    },
    {
      "channel": 0,
      "note": 75,
      "start": 6.7307,
      "duration": 0.0998,
      "velocity": 106,
      "chip": "ym2612"
    },
    {
      "channel": 1,
      "note": 90,
      "start": 6.7309,
      "duration": 0.0998,
      "velocity": 97,
      "chip": "ym2612"
    },
    {
      "channel": 3,
      "note": 87,
      "start": 6.7643,
      "duration": 0.0832,
      "velocity": 97,
      "chip": "ym2612"
    },
    {
      "channel": 0,
      "note": 77,
      "start": 6.8307,
      "duration": 0.1665,
      "velocity": 106,
      "chip": "ym2612"
    },
    {
      "channel": 1,
      "note": 92,
      "start": 6.8309,
      "duration": 0.1664,
      "velocity": 97,
      "chip": "ym2612"
    },
    {
      "channel": 4,
      "note": 71,
      "start": 6.8314,
      "duration": 0.0827,
      "velocity": 106,
      "chip": "ym2612"
    },
    {
      "channel": 3,
      "note": 89,
      "start": 6.8477,
      "duration": 0.0831,
      "velocity": 97,
      "chip": "ym2612"
    },
    {
      "channel": 4,
      "note": 73,
      "start": 6.9143,
      "duration": 0.0833,
      "velocity": 106,
      "chip": "ym2612"
    },
    {
      "channel": 3,
      "note": 90,
      "start": 6.931,
      "duration": 0.0996,
      "velocity": 97,
      "chip": "ym2612"
    },
    {
      "channel": 4,
      "note": 75,
      "start": 6.9978,
      "duration": 0.0997,
      "velocity": 106,
      "chip": "ym2612"
    },
    {
      "channel": 3,
      "note": 92,
      "start": 7.0308,
      "duration": 0.1497,
      "velocity": 97,
      "chip": "ym2612"
    },
    {
      "channel": 2,
      "note": 77,
      "start": 7.0975,
      "duration": 0.1161,
      "velocity": 97,
      "chip": "ym2612"
    },
    {
      "channel": 4,
      "note": 77,
      "start": 7.0977,
      "duration": 0.1324,
      "velocity": 106,
      "chip": "ym2612"
    },
    {
      "channel": 2,
      "note": 77,
      "start": 7.2138,
      "duration": 0.1163,
      "velocity": 97,
      "chip": "ym2612"
    },
    {
      "channel": 2,
      "note": 75,
      "start": 7.3302,
      "duration": 0.1162,
      "velocity": 97,
      "chip": "ym2612"
    },
    {
      "channel": 2,
      "note": 77,
      "start": 7.4466,
      "duration": 0.2494,
      "velocity": 97,
      "chip": "ym2612"
    },
    {
      "channel": 2,
      "note": 75,
      "start": 7.6962,
      "duration": 0.1161,
      "velocity": 97,
      "chip": "ym2612"
    },
    {
      "channel": 2,
      "note": 77,
      "start": 7.9459,
      "duration": 0.0153,
      "velocity": 97,
      "chip": "ym2612"
    },
    {
      "channel": 2,
      "note": 78,
      "start": 7.9614,
      "duration": 0.0101,
      "velocity": 97,
      "chip": "ym2612"
    },
    {
      "channel": 0,
      "note": 87,
      "start": 7.9696,
      "duration": 0.1159,
      "velocity": 103,
      "chip": "ym2612"
    },
    {
      "channel": 1,
      "note": 61,
      "start": 7.9707,
      "duration": 0.3818,
      "velocity": 99,
      "chip": "ym2612"
    },
    {
      "channel": 0,
      "note": 80,
      "start": 8.0858,
      "duration": 0.2663,
      "velocity": 103,
      "chip": "ym2612"
    },
    {
      "channel": 2,
      "note": 80,
      "start": 8.0861,
      "duration": 0.2666,
      "velocity": 97,
      "chip": "ym2612"
    },
    {
      "channel": 4,
      "note": 87,
      "start": 8.2204,
      "duration": 0.1326,
      "velocity": 103,
      "chip": "ym2612"
    },
    {
      "channel": 0,
      "note": 75,
      "start": 8.3524,
      "duration": 0.6259,
      "velocity": 103,
      "chip": "ym2612"
    },
    {
      "channel": 1,
      "note": 68,
      "start": 8.3527,
      "duration": 0.2596,
      "velocity": 99,
      "chip": "ym2612"
    },
    {
      "channel": 4,
      "note": 80,
      "start": 8.3532,
      "duration": 0.143,
      "velocity": 103,
      "chip": "ym2612"
    },
    {
      "channel": 2,
      "note": 75,
      "start": 8.4866,
      "duration": 0.0094,
      "velocity": 75,
      "chip": "ym2612"
    },
    {
      "channel": 2,
      "note": 68,
      "start": 8.4961,
      "duration": 0.2495,
      "velocity": 75,
      "chip": "ym2612"
    },
    {
      "channel": 4,
      "note": 75,
      "start": 8.4963,
      "duration": 0.7493,
      "velocity": 103,
      "chip": "ym2612"
    },
    {
      "channel": 1,
      "note": 71,
      "start": 8.6124,
      "duration": 0.2497,
      "velocity": 99,
      "chip": "ym2612"
    },
    {
      "channel": 2,
      "note": 63,
      "start": 8.7458,
      "duration": 0.1166,
      "velocity": 75,
      "chip": "ym2612"
    },
    {
      "channel": 1,
      "note": 61,
      "start": 8.8623,
      "duration": 0.383,
      "velocity": 99,
      "chip": "ym2612"
    },
    {
      "channel": 0,
      "note": 76,
      "start": 8.9785,
      "duration": 0.1331,
      "velocity": 103,
      "chip": "ym2612"
    },
    {
      "channel": 0,
      "note": 78,
      "start": 9.1118,
      "duration": 0.1332,
      "velocity": 103,
      "chip": "ym2612"
    },
    {
      "channel": 0,
      "note": 80,
      "start": 9.2452,
      "duration": 0.1331,
      "velocity": 103,
      "chip": "ym2612"
    },
    {
      "channel": 1,
      "note": 68,
      "start": 9.2455,
      "duration": 0.2574,
      "velocity": 99,
      "chip": "ym2612"
    },
    {
      "channel": 4,
      "note": 76,
      "start": 9.2459,
      "duration": 0.1327,
      "velocity": 103,
      "chip": "ym2612"
    },
    {
      "channel": 0,
      "note": 82,
      "start": 9.3786,
      "duration": 0.0077,
      "velocity": 103,
      "chip": "ym2612"
    },
    {
      "channel": 4,
      "note": 78,
      "start": 9.3789,
      "duration": 0.0077,
      "velocity": 103,
      "chip": "ym2612"
    },
    {
      "channel": 0,
      "note": 83,
      "start": 9.3865,
      "duration": 0.1161,
      "velocity": 103,
      "chip": "ym2612"
    },
    {
      "channel": 4,
      "note": 80,
      "start": 9.3867,
      "duration": 0.1165,
      "velocity": 103,
      "chip": "ym2612"
    },
    {
      "channel": 0,
      "note": 85,
      "start": 9.5028,
      "duration": 0.1331,
      "velocity": 103,
      "chip": "ym2612"
    },
    {
      "channel": 1,
      "note": 71,
      "start": 9.5031,
      "duration": 0.2494,
      "velocity": 99,
      "chip": "ym2612"
    },
    {
      "channel": 4,
      "note": 82,
      "start": 9.5035,
      "duration": 0.1327,
      "velocity": 103,
      "chip": "ym2612"
    },
    {
      "channel": 0,
      "note": 87,
      "start": 9.6361,
      "duration": 0.1161,
      "velocity": 103,
      "chip": "ym2612"
    },
    {
      "channel": 4,
      "note": 83,
      "start": 9.6363,
      "duration": 0.1172,
      "velocity": 103,
      "chip": "ym2612"
    },
    {
      "channel": 0,
      "note": 88,
      "start": 9.7524,
      "duration": 0.383,
      "velocity": 103,
      "chip": "ym2612"
    },
    {
      "channel": 1,
      "note": 61,
      "start": 9.7527,
      "duration": 0.383,
      "velocity": 99,
      "chip": "ym2612"
    },
    {
      "channel": 4,
      "note": 85,
      "start": 9.7537,
      "duration": 0.1156,
      "velocity": 103,
      "chip": "ym2612"
    },
    {
      "channel": 2,
      "note": 80,
      "start": 9.8692,
      "duration": 0.2668,
      "velocity": 97,
      "chip": "ym2612"
    },
    {
      "channel": 4,
      "note": 87,
      "start": 9.8695,
      "duration": 0.1329,
      "velocity": 103,
      "chip": "ym2612"
    },
    {
      "channel": 4,
      "note": 88,
      "start": 10.0027,
      "duration": 0.2769,
      "velocity": 103,
      "chip": "ym2612"
    },
    {
      "channel": 0,
      "note": 90,
      "start": 10.1357,
      "duration": 0.1433,
      "velocity": 103,
      "chip": "ym2612"
    },
    {
      "channel": 1,
      "note": 68,
      "start": 10.1359,
      "duration": 0.2595,
      "velocity": 99,
      "chip": "ym2612"
    },
    {
      "channel": 2,
      "note": 75,
      "start": 10.2698,
      "duration": 0.0095,
      "velocity": 75,
      "chip": "ym2612"
    },
    {
      "channel": 0,
      "note": 92,
      "start": 10.2792,
      "duration": 0.3661,
      "velocity": 103,
      "chip": "ym2612"
    },
    {
      "channel": 2,
      "note": 68,
      "start": 10.2795,
      "duration": 0.2494,
      "velocity": 75,
      "chip": "ym2612"
    },
    {
      "channel": 4,
      "note": 90,
      "start": 10.2798,
      "duration": 0.2494,
      "velocity": 103,
      "chip": "ym2612"
    },
    {
      "channel": 1,
      "note": 71,
      "start": 10.3957,
      "duration": 0.2499,
      "velocity": 99,
      "chip": "ym2612"
    },
    {
      "channel": 2,
      "note": 63,
      "start": 10.529,
      "duration": 0.1168,
      "velocity": 75,
      "chip": "ym2612"
    },
    {
      "channel": 4,
      "note": 92,
      "start": 10.5294,
      "duration": 0.3661,
      "velocity": 103,
      "chip": "ym2612"
    },
    {
      "channel": 0,
      "note": 90,
      "start": 10.6456,
      "duration": 0.3829,
      "velocity": 103,
      "chip": "ym2612"
    },
    {
      "channel": 1,
      "note": 61,
      "start": 10.6458,
      "duration": 0.383,
      "velocity": 99,
      "chip": "ym2612"
    },
    {
      "channel": 4,
      "note": 90,
      "start": 10.8957,
      "duration": 0.2741,
      "velocity": 103,
      "chip": "ym2612"
    },
    {
      "channel": 0,
      "note": 88,
      "start": 11.0288,
      "duration": 0.2571,
      "velocity": 103,
      "chip": "ym2612"
    },
    {
      "channel": 1,
      "note": 68,
      "start": 11.029,
      "duration": 0.2571,
      "velocity": 99,
      "chip": "ym2612"
    },
    {
      "channel": 4,
      "note": 88,
      "start": 11.17,
      "duration": 0.3669,
      "velocity": 103,
      "chip": "ym2612"
    },
    {
      "channel": 0,
      "note": 87,
      "start": 11.2861,
      "duration": 0.2493,
      "velocity": 103,
      "chip": "ym2612"
    },
    {
      "channel": 1,
      "note": 71,
      "start": 11.2863,
      "duration": 0.2494,
      "velocity": 99,
      "chip": "ym2612"
    },
    {
      "channel": 0,
      "note": 95,
      "start": 11.5357,
      "duration": 0.2495,
      "velocity": 103,
      "chip": "ym2612"
    },
    {
      "channel": 1,
      "note": 59,
      "start": 11.5359,
      "duration": 0.383,
      "velocity": 99,
      "chip": "ym2612"
    },
    {
      "channel": 4,
      "note": 87,
      "start": 11.5371,
      "duration": 0.2487,
      "velocity": 103,
      "chip": "ym2612"
    },
    {
      "channel": 2,
      "note": 78,
      "start": 11.6523,
      "duration": 0.2668,
      "velocity": 97,
      "chip": "ym2612"
    },
    {
      "channel": 0,
      "note": 90,
      "start": 11.7854,
      "duration": 0.1332,
      "velocity": 103,
      "chip": "ym2612"
    },
    {
      "channel": 4,
      "note": 95,
      "start": 11.7859,
      "duration": 0.2671,
      "velocity": 103,
      "chip": "ym2612"
    },
    {
      "channel": 0,
      "note": 88,
      "start": 11.9188,
      "duration": 0.1331,
      "velocity": 103,
      "chip": "ym2612"
    },
    {
      "channel": 1,
      "note": 66,
      "start": 11.9191,
      "duration": 0.259,
      "velocity": 99,
      "chip": "ym2612"
    },
    {
      "channel": 2,
      "note": 71,
      "start": 12.053,
      "duration": 0.0088,
      "velocity": 75,
      "chip": "ym2612"
    },
    {
      "channel": 4,
      "note": 90,
      "start": 12.0532,
      "duration": 0.0088,
      "velocity": 103,
      "chip": "ym2612"
    },
    {
      "channel": 0,
      "note": 87,
      "start": 12.0617,
      "duration": 0.2497,
      "velocity": 103,
      "chip": "ym2612"
    },
    {
      "channel": 2,
      "note": 66,
      "start": 12.062,
      "duration": 0.2497,
      "velocity": 75,
      "chip": "ym2612"
    },
    {
      "channel": 4,
      "note": 88,
      "start": 12.0622,
      "duration": 0.1164,
      "velocity": 103,
      "chip": "ym2612"
    },
    {
      "channel": 1,
      "note": 73,
      "start": 12.1783,
      "duration": 0.2496,
      "velocity": 99,
      "chip": "ym2612"
    },
    {
      "channel": 0,
      "note": 85,
      "start": 12.3116,
      "duration": 0.1163,
      "velocity": 103,
      "chip": "ym2612"
    },
    {
      "channel": 2,
      "note": 59,
      "start": 12.3118,
      "duration": 0.1165,
      "velocity": 75,
      "chip": "ym2612"
    },
    {
      "channel": 4,
      "note": 87,
      "start": 12.312,
      "duration": 0.2324,
      "velocity": 103,
      "chip": "ym2612"
    },
    {
      "channel": 1,
      "note": 59,
      "start": 12.4282,
      "duration": 0.3826,
      "velocity": 99,
      "chip": "ym2612"
    },
    {
      "channel": 0,
      "note": 83,
      "start": 12.5442,
      "duration": 0.7732,
      "velocity": 103,
      "chip": "ym2612"
    },
    {
      "channel": 4,
      "note": 85,
      "start": 12.5447,
      "duration": 0.133,
      "velocity": 103,
      "chip": "ym2612"
    },
    {
      "channel": 1,
      "note": 66,
      "start": 12.811,
      "duration": 0.2569,
      "velocity": 99,
      "chip": "ym2612"
    },
    {
      "channel": 4,
      "note": 83,
      "start": 12.8114,
      "duration": 0.7561,
      "velocity": 103,
      "chip": "ym2612"
    },
    {
      "channel": 1,
      "note": 73,
      "start": 13.0682,
      "duration": 0.2495,
      "velocity": 99,
      "chip": "ym2612"
    },
    {
      "channel": 0,
      "note": 75,
      "start": 13.3176,
      "duration": 0.1162,
      "velocity": 103,
      "chip": "ym2612"
    },
    {
      "channel": 1,
      "note": 59,
      "start": 13.3179,
      "duration": 0.3828,
      "velocity": 99,
      "chip": "ym2612"
    },
    {
      "channel": 0,
      "note": 76,
      "start": 13.434,
      "duration": 0.1331,
      "velocity": 103,
      "chip": "ym2612"
    },
    {
      "channel": 0,
      "note": 75,
      "start": 13.5674,
      "duration": 0.133,
      "velocity": 103,
      "chip": "ym2612"
    },
    {
      "channel": 4,
      "note": 75,
      "start": 13.5678,
      "duration": 0.1333,
      "velocity": 103,
      "chip": "ym2612"
    },
    {
      "channel": 0,
      "note": 76,
      "start": 13.7006,
      "duration": 0.7599,
      "velocity": 103,
      "chip": "ym2612"
    },
    {
      "channel": 1,
      "note": 66,
      "start": 13.7009,
      "duration": 0.2598,
      "velocity": 99,
      "chip": "ym2612"
    },
    {
      "channel": 4,
      "note": 76,
      "start": 13.7013,
      "duration": 0.1329,
      "velocity": 103,
      "chip": "ym2612"
    },
    {
      "channel": 2,
      "note": 71,
      "start": 13.8342,
      "duration": 0.0103,
      "velocity": 75,
      "chip": "ym2612"
    },
    {
      "channel": 4,
      "note": 75,
      "start": 13.8345,
      "duration": 0.0102,
      "velocity": 103,
      "chip": "ym2612"
    },
    {
      "channel": 2,
      "note": 66,
      "start": 13.8446,
      "duration": 0.2495,
      "velocity": 75,
      "chip": "ym2612"
    },
    {
      "channel": 4,
      "note": 76,
      "start": 13.8449,
      "duration": 0.8828,
      "velocity": 103,
      "chip": "ym2612"
    },
    {
      "channel": 1,
      "note": 73,
      "start": 13.9609,
      "duration": 0.2498,
      "velocity": 99,
      "chip": "ym2612"
    },
    {
      "channel": 2,
      "note": 59,
      "start": 14.0942,
      "duration": 0.1167,
      "velocity": 75,
      "chip": "ym2612"
    },
    {
      "channel": 1,
      "note": 59,
      "start": 14.2108,
      "duration": 0.3829,
      "velocity": 99,
      "chip": "ym2612"
    },
    {
      "channel": 2,
      "note": 66,
      "start": 14.3273,
      "duration": 0.1333,
      "velocity": 75,
      "chip": "ym2612"
    },
    {
      "channel": 0,
      "note": 75,
      "start": 14.4605,
      "duration": 0.0332,
      "velocity": 103,
      "chip": "ym2612"
    },
    {
      "channel": 2,
      "note": 71,
      "start": 14.4608,
      "duration": 0.2776,
      "velocity": 97,
      "chip": "ym2612"
    },
    {
      "channel": 0,
      "note": 74,
      "start": 14.4937,
      "duration": 0.0501,
      "velocity": 103,
      "chip": "ym2612"
    },
    {
      "channel": 0,
      "note": 73,
      "start": 14.5439,
      "duration": 0.0498,
      "velocity": 103,
      "chip": "ym2612"
    },
    {
      "channel": 0,
      "note": 72,
      "start": 14.5937,
      "duration": 0.0335,
      "velocity": 103,
      "chip": "ym2612"
    },
    {
      "channel": 1,
      "note": 66,
      "start": 14.5939,
      "duration": 0.2601,
      "velocity": 99,
      "chip": "ym2612"
    },
    {
      "channel": 0,
      "note": 71,
      "start": 14.6271,
      "duration": 0.0499,
      "velocity": 103,
      "chip": "ym2612"
    },
    {
      "channel": 0,
      "note": 70,
      "start": 14.6771,
      "duration": 0.0501,
      "velocity": 103,
      "chip": "ym2612"
    },
    {
      "channel": 0,
      "note": 69,
      "start": 14.7272,
      "duration": 0.0046,
      "velocity": 103,
      "chip": "ym2612"
    },
    {
      "channel": 4,
      "note": 75,
      "start": 14.7277,
      "duration": 0.0021,
      "velocity": 103,
      "chip": "ym2612"
    },
    {
      "channel": 4,
      "note": 74,
      "start": 14.7298,
      "duration": 0.0035,
      "velocity": 103,
      "chip": "ym2612"
    },
    {
      "channel": 0,
      "note": 68,
      "start": 14.7318,
      "duration": 0.0057,
      "velocity": 103,
      "chip": "ym2612"
    },
    {
      "channel": 4,
      "note": 73,
      "start": 14.7333,
      "duration": 0.0054,
      "velocity": 103,
      "chip": "ym2612"
    },
    {
      "channel": 0,
      "note": 67,
      "start": 14.7375,
      "duration": 0.0497,
      "velocity": 103,
      "chip": "ym2612"
    },
    {
      "channel": 2,
      "note": 85,
      "start": 14.7385,
      "duration": 0.1158,
      "velocity": 97,
      "chip": "ym2612"
    },
    {
      "channel": 4,
      "note": 72,
      "start": 14.7386,
      "duration": 0.0157,
      "velocity": 103,
      "chip": "ym2612"
    },
    {
      "channel": 4,
      "note": 71,
      "start": 14.7543,
      "duration": 0.0499,
      "velocity": 103,
      "chip": "ym2612"
    },
    {
      "channel": 0,
      "note": 66,
      "start": 14.7872,
      "duration": 0.0668,
      "velocity": 103,
      "chip": "ym2612"
    },
    {
      "channel": 4,
      "note": 70,
      "start": 14.8042,
      "duration": 0.0507,
      "velocity": 103,
      "chip": "ym2612"
    },
    {
      "channel": 0,
      "note": 65,
      "start": 14.854,
      "duration": 0.0665,
      "velocity": 103,
      "chip": "ym2612"
    },
    {
      "channel": 1,
      "note": 73,
      "start": 14.8542,
      "duration": 0.2495,
      "velocity": 99,
      "chip": "ym2612"
    },
    {
      "channel": 2,
      "note": 78,
      "start": 14.8546,
      "duration": 0.1327,
      "velocity": 97,
      "chip": "ym2612"
    },
    {
      "channel": 4,
      "note": 69,
      "start": 14.8549,
      "duration": 0.066,
      "velocity": 103,
      "chip": "ym2612"
    },
    {
      "channel": 0,
      "note": 64,
      "start": 14.9205,
      "duration": 0.0667,
      "velocity": 103,
      "chip": "ym2612"
    },
    {
      "channel": 4,
      "note": 68,
      "start": 14.9209,
      "duration": 0.0668,
      "velocity": 103,
      "chip": "ym2612"
    },
    {
      "channel": 2,
      "note": 71,
      "start": 14.9875,
      "duration": 0.1166,
      "velocity": 97,
      "chip": "ym2612"
    },
    {
      "channel": 4,
      "note": 67,
      "start": 14.9877,
      "duration": 0.0495,
      "velocity": 103,
      "chip": "ym2612"
    },
    {
      "channel": 4,
      "note": 66,
      "start": 15.0372,
      "duration": 0.0672,
      "velocity": 103,
      "chip": "ym2612"
    },
    {
      "channel": 0,
      "note": 87,
      "start": 15.1037,
      "duration": 0.1161,
      "velocity": 103,
      "chip": "ym2612"
    },
    {
      "channel": 1,
      "note": 61,
      "start": 15.104,
      "duration": 0.3828,
      "velocity": 99,
      "chip": "ym2612"
    },
    {
      "channel": 4,
      "note": 65,
      "start": 15.1044,
      "duration": 0.0492,
      "velocity": 103,
      "chip": "ym2612"
    },
    {
      "channel": 4,
      "note": 64,
      "start": 15.1536,
      "duration": 0.0671,
      "velocity": 103,
      "chip": "ym2612"
    },
    {
      "channel": 0,
      "note": 80,
      "start": 15.2201,
      "duration": 0.2663,
      "velocity": 103,
      "chip": "ym2612"
    },
    {
      "channel": 2,
      "note": 80,
      "start": 15.2205,
      "duration": 0.2666,
      "velocity": 97,
      "chip": "ym2612"
    },
    {
      "channel": 4,
      "note": 87,
      "start": 15.3538,
      "duration": 0.1335,
      "velocity": 103,
      "chip": "ym2612"
    },
    {
      "channel": 0,
      "note": 75,
      "start": 15.4867,
      "duration": 0.6262,
      "velocity": 103,
      "chip": "ym2612"
    },
    {
      "channel": 1,
      "note": 68,
      "start": 15.487,
      "duration": 0.2598,
      "velocity": 99,
      "chip": "ym2612"
    },
    {
      "channel": 4,
      "note": 80,
      "start": 15.4876,
      "duration": 0.143,
      "velocity": 103,
      "chip": "ym2612"
    },
    {
      "channel": 2,
      "note": 75,
      "start": 15.621,
      "duration": 0.0093,
      "velocity": 75,
      "chip": "ym2612"
    },
    {
      "channel": 2,
      "note": 68,
      "start": 15.6305,
      "duration": 0.2496,
      "velocity": 75,
      "chip": "ym2612"
    },
    {
      "channel": 4,
      "note": 75,
      "start": 15.6307,
      "duration": 0.7497,
      "velocity": 103,
      "chip": "ym2612"
    },
    {
      "channel": 1,
      "note": 71,
      "start": 15.747,
      "duration": 0.2497,
      "velocity": 99,
      "chip": "ym2612"
    },
    {
      "channel": 2,
      "note": 63,
      "start": 15.8803,
      "duration": 0.1167,
      "velocity": 75,
      "chip": "ym2612"
    },
    {
      "channel": 1,
      "note": 61,
      "start": 15.9969,
      "duration": 0.383,
      "velocity": 99,
      "chip": "ym2612"
    },
    {
      "channel": 0,
      "note": 76,
      "start": 16.1132,
      "duration": 0.1332,
      "velocity": 103,
      "chip": "ym2612"
    },
    {
      "channel": 2,
      "note": 61,
      "start": 16.1135,
      "duration": 0.1332,
      "velocity": 75,
      "chip": "ym2612"
    },
    {
      "channel": 0,
      "note": 78,
      "start": 16.2466,
      "duration": 0.133,
      "velocity": 103,
      "chip": "ym2612"
    },
    {
      "channel": 2,
      "note": 63,
      "start": 16.2469,
      "duration": 0.1333,
      "velocity": 75,
      "chip": "ym2612"
    },
    {
      "channel": 0,
      "note": 80,
      "start": 16.3798,
      "duration": 0.1332,
      "velocity": 103,
      "chip": "ym2612"
    },
    {
      "channel": 1,
      "note": 68,
      "start": 16.3801,
      "duration": 0.2598,
      "velocity": 99,
      "chip": "ym2612"
    },
    {
      "channel": 2,
      "note": 64,
      "start": 16.3804,
      "duration": 0.1329,
      "velocity": 75,
      "chip": "ym2612"
    },
    {
      "channel": 4,
      "note": 76,
      "start": 16.3807,
      "duration": 0.1329,
      "velocity": 103,
      "chip": "ym2612"
    },
    {
      "channel": 0,
      "note": 82,
      "start": 16.5133,
      "duration": 0.0101,
      "velocity": 103,
      "chip": "ym2612"
    },
    {
      "channel": 2,
      "note": 66,
      "start": 16.5135,
      "duration": 0.0102,
      "velocity": 75,
      "chip": "ym2612"
    },
    {
      "channel": 4,
      "note": 78,
      "start": 16.5138,
      "duration": 0.0101,
      "velocity": 103,
      "chip": "ym2612"
    },
    {
      "channel": 0,
      "note": 83,
      "start": 16.5236,
      "duration": 0.116,
      "velocity": 103,
      "chip": "ym2612"
    },
    {
      "channel": 2,
      "note": 68,
      "start": 16.5238,
      "duration": 0.1163,
      "velocity": 75,
      "chip": "ym2612"
    },
    {
      "channel": 4,
      "note": 80,
      "start": 16.524,
      "duration": 0.1166,
      "velocity": 103,
      "chip": "ym2612"
    },
    {
      "channel": 0,
      "note": 85,
      "start": 16.6398,
      "duration": 0.1332,
      "velocity": 103,
      "chip": "ym2612"
    },
    {
      "channel": 1,
      "note": 71,
      "start": 16.6401,
      "duration": 0.2496,
      "velocity": 99,
      "chip": "ym2612"
    },
    {
      "channel": 2,
      "note": 70,
      "start": 16.6404,
      "duration": 0.1329,
      "velocity": 75,
      "chip": "ym2612"
    },
    {
      "channel": 4,
      "note": 82,
      "start": 16.6407,
      "duration": 0.1327,
      "velocity": 103,
      "chip": "ym2612"
    },
    {
      "channel": 0,
      "note": 87,
      "start": 16.7733,
      "duration": 0.1162,
      "velocity": 103,
      "chip": "ym2612"
    },
    {
      "channel": 2,
      "note": 71,
      "start": 16.7734,
      "duration": 0.1166,
      "velocity": 75,
      "chip": "ym2612"
    },
    {
      "channel": 4,
      "note": 83,
      "start": 16.7737,
      "duration": 0.1174,
      "velocity": 103,
      "chip": "ym2612"
    },
    {
      "channel": 0,
      "note": 88,
      "start": 16.8897,
      "duration": 0.3831,
      "velocity": 103,
      "chip": "ym2612"
    },
    {
      "channel": 1,
      "note": 61,
      "start": 16.89,
      "duration": 0.3832,
      "velocity": 99,
      "chip": "ym2612"
    },
    {
      "channel": 2,
      "note": 73,
      "start": 16.8902,
      "duration": 0.3832,
      "velocity": 75,
      "chip": "ym2612"
    },
    {
      "channel": 4,
      "note": 85,
      "start": 16.8913,
      "duration": 0.1155,
      "velocity": 103,
      "chip": "ym2612"
    },
    {
      "channel": 3,
      "note": 80,
      "start": 17.0067,
      "duration": 0.267,
      "velocity": 97,
      "chip": "ym2612"
    },
    {
      "channel": 4,
      "note": 87,
      "start": 17.0069,
      "duration": 0.1329,
      "velocity": 103,
      "chip": "ym2612"
    },
    {
      "channel": 4,
      "note": 88,
      "start": 17.14,
      "duration": 0.2765,
      "velocity": 103,
      "chip": "ym2612"
    },
    {
      "channel": 0,
      "note": 90,
      "start": 17.273,
      "duration": 0.2595,
      "velocity": 103,
      "chip": "ym2612"
    },
    {
      "channel": 1,
      "note": 68,
      "start": 17.2733,
      "duration": 0.2595,
      "velocity": 99,
      "chip": "ym2612"
    },
    {
      "channel": 2,
      "note": 75,
      "start": 17.2736,
      "duration": 0.2595,
      "velocity": 75,
      "chip": "ym2612"
    },
    {
      "channel": 4,
      "note": 90,
      "start": 17.4167,
      "duration": 0.3665,
      "velocity": 103,
      "chip": "ym2612"
    },
    {
      "channel": 0,
      "note": 92,
      "start": 17.5327,
      "duration": 0.2496,
      "velocity": 103,
      "chip": "ym2612"
    },
    {
      "channel": 1,
      "note": 71,
      "start": 17.533,
      "duration": 0.2496,
      "velocity": 99,
      "chip": "ym2612"
    },
    {
      "channel": 2,
      "note": 76,
      "start": 17.5333,
      "duration": 0.2496,
      "velocity": 75,
      "chip": "ym2612"
    },
    {
      "channel": 0,
      "note": 90,
      "start": 17.7826,
      "duration": 0.3829,
      "velocity": 103,
      "chip": "ym2612"
    },
    {
      "channel": 1,
      "note": 61,
      "start": 17.7829,
      "duration": 0.3829,
      "velocity": 99,
      "chip": "ym2612"
    },
    {
      "channel": 2,
      "note": 75,
      "start": 17.7831,
      "duration": 0.3829,
      "velocity": 75,
      "chip": "ym2612"
    },
    {
      "channel": 4,
      "note": 92,
      "start": 17.7833,
      "duration": 0.2493,
      "velocity": 103,
      "chip": "ym2612"
    },
    {
      "channel": 4,
      "note": 90,
      "start": 18.0328,
      "duration": 0.2764,
      "velocity": 103,
      "chip": "ym2612"
    },
    {
      "channel": 0,
      "note": 88,
      "start": 18.1657,
      "duration": 0.2594,
      "velocity": 103,
      "chip": "ym2612"
    },
    {
      "channel": 1,
      "note": 68,
      "start": 18.1659,
      "duration": 0.2595,
      "velocity": 99,
      "chip": "ym2612"
    },
    {
      "channel": 2,
      "note": 73,
      "start": 18.1663,
      "duration": 0.2595,
      "velocity": 75,
      "chip": "ym2612"
    },
    {
      "channel": 4,
      "note": 88,
      "start": 18.3094,
      "duration": 0.3666,
      "velocity": 103,
      "chip": "ym2612"
    },
    {
      "channel": 0,
      "note": 87,
      "start": 18.4254,
      "duration": 0.2496,
      "velocity": 103,
      "chip": "ym2612"
    },
    {
      "channel": 1,
      "note": 71,
      "start": 18.4256,
      "duration": 0.2496,
      "velocity": 99,
      "chip": "ym2612"
    },
    {
      "channel": 2,
      "note": 71,
      "start": 18.4259,
      "duration": 0.2496,
      "velocity": 75,
      "chip": "ym2612"
    },
    {
      "channel": 0,
      "note": 95,
      "start": 18.6752,
      "duration": 0.2498,
      "velocity": 103,
      "chip": "ym2612"
    },
    {
      "channel": 1,
      "note": 59,
      "start": 18.6754,
      "duration": 0.3832,
      "velocity": 99,
      "chip": "ym2612"
    },
    {
      "channel": 2,
      "note": 66,
      "start": 18.6757,
      "duration": 0.2497,
      "velocity": 75,
      "chip": "ym2612"
    },
    {
      "channel": 4,
      "note": 87,
      "start": 18.6761,
      "duration": 0.2497,
      "velocity": 103,
      "chip": "ym2612"
    },
    {
      "channel": 3,
      "note": 78,
      "start": 18.7923,
      "duration": 0.2669,
      "velocity": 97,
      "chip": "ym2612"
    },
    {
      "channel": 0,
      "note": 90,
      "start": 18.9253,
      "duration": 0.133,
      "velocity": 103,
      "chip": "ym2612"
    },
    {
      "channel": 2,
      "note": 63,
      "start": 18.9256,
      "duration": 0.1333,
      "velocity": 75,
      "chip": "ym2612"
    },
    {
      "channel": 4,
      "note": 95,
      "start": 18.926,
      "duration": 0.2661,
      "velocity": 103,
      "chip": "ym2612"
    },
    {
      "channel": 0,
      "note": 97,
      "start": 19.0586,
      "duration": 0.1332,
      "velocity": 103,
      "chip": "ym2612"
    },
    {
      "channel": 1,
      "note": 66,
      "start": 19.0588,
      "duration": 0.2573,
      "velocity": 99,
      "chip": "ym2612"
    },
    {
      "channel": 2,
      "note": 70,
      "start": 19.0591,
      "duration": 0.1407,
      "velocity": 75,
      "chip": "ym2612"
    },
    {
      "channel": 4,
      "note": 90,
      "start": 19.1923,
      "duration": 0.0078,
      "velocity": 103,
      "chip": "ym2612"
    },
    {
      "channel": 0,
      "note": 95,
      "start": 19.1998,
      "duration": 0.2502,
      "velocity": 102,
      "chip": "ym2612"
    },
    {
      "channel": 2,
      "note": 66,
      "start": 19.2,
      "duration": 0.2503,
      "velocity": 75,
      "chip": "ym2612"
    },
    {
      "channel": 4,
      "note": 97,
      "start": 19.2002,
      "duration": 0.1164,
      "velocity": 103,
      "chip": "ym2612"
    },
    {
      "channel": 1,
      "note": 73,
      "start": 19.3163,
      "duration": 0.2499,
      "velocity": 99,
      "chip": "ym2612"
    },
    {
      "channel": 0,
      "note": 97,
      "start": 19.4502,
      "duration": 0.2326,
      "velocity": 102,
      "chip": "ym2612"
    },
    {
      "channel": 2,
      "note": 71,
      "start": 19.4505,
      "duration": 0.8922,
      "velocity": 75,
      "chip": "ym2612"
    },
    {
      "channel": 4,
      "note": 95,
      "start": 19.4508,
      "duration": 0.2331,
      "velocity": 102,
      "chip": "ym2612"
    },
    {
      "channel": 1,
      "note": 59,
      "start": 19.5664,
      "duration": 0.383,
      "velocity": 99,
      "chip": "ym2612"
    },
    {
      "channel": 0,
      "note": 99,
      "start": 19.6828,
      "duration": 0.4001,
      "velocity": 102,
      "chip": "ym2612"
    },
    {
      "channel": 4,
      "note": 97,
      "start": 19.6841,
      "duration": 0.266,
      "velocity": 102,
      "chip": "ym2612"
    },
    {
      "channel": 1,
      "note": 66,
      "start": 19.9497,
      "duration": 0.2596,
      "velocity": 99,
      "chip": "ym2612"
    },
    {
      "channel": 4,
      "note": 99,
      "start": 19.9501,
      "duration": 0.2599,
      "velocity": 102,
      "chip": "ym2612"
    },
    {
      "channel": 0,
      "note": 99,
      "start": 20.0829,
      "duration": 0.8932,
      "velocity": 103,
      "chip": "ym2612"
    },
    {
      "channel": 1,
      "note": 73,
      "start": 20.2094,
      "duration": 0.2495,
      "velocity": 99,
      "chip": "ym2612"
    },
    {
      "channel": 4,
      "note": 99,
      "start": 20.21,
      "duration": 0.8934,
      "velocity": 103,
      "chip": "ym2612"
    },
    {
      "channel": 2,
      "note": 71,
      "start": 20.3427,
      "duration": 0.1165,
      "velocity": 75,
      "chip": "ym2612"
    },
    {
      "channel": 1,
      "note": 59,
      "start": 20.4591,
      "duration": 0.383,
      "velocity": 99,
      "chip": "ym2612"
    },
    {
      "channel": 2,
      "note": 78,
      "start": 20.4594,
      "duration": 0.517,
      "velocity": 75,
      "chip": "ym2612"
    },
    {
      "channel": 3,
      "note": 78,
      "start": 20.5758,
      "duration": 0.2668,
      "velocity": 97,
      "chip": "ym2612"
    },
    {
      "channel": 1,
      "note": 66,
      "start": 20.8423,
      "duration": 0.2596,
      "velocity": 99,
      "chip": "ym2612"
    },
    {
      "channel": 0,
      "note": 97,
      "start": 20.9763,
      "duration": 0.3753,
      "velocity": 103,
      "chip": "ym2612"
    },
    {
      "channel": 2,
      "note": 76,
      "start": 20.9766,
      "duration": 0.3756,
      "velocity": 75,
      "chip": "ym2612"
    },
    {
      "channel": 1,
      "note": 73,
      "start": 21.1022,
      "duration": 0.2497,
      "velocity": 99,
      "chip": "ym2612"
    },
    {
      "channel": 4,
      "note": 97,
      "start": 21.1036,
      "duration": 0.4983,
      "velocity": 103,
      "chip": "ym2612"
    },
    {
      "channel": 0,
      "note": 95,
      "start": 21.3518,
      "duration": 0.5163,
      "velocity": 103,
      "chip": "ym2612"
    },
    {
      "channel": 1,
      "note": 59,
      "start": 21.3521,
      "duration": 0.3828,
      "velocity": 99,
      "chip": "ym2612"
    },
    {
      "channel": 2,
      "note": 75,
      "start": 21.3523,
      "duration": 0.5161,
      "velocity": 75,
      "chip": "ym2612"
    },
    {
      "channel": 3,
      "note": 78,
      "start": 21.4686,
      "duration": 0.2667,
      "velocity": 97,
      "chip": "ym2612"
    },
    {
      "channel": 4,
      "note": 95,
      "start": 21.6021,
      "duration": 0.3935,
      "velocity": 103,
      "chip": "ym2612"
    },
    {
      "channel": 1,
      "note": 66,
      "start": 21.7351,
      "duration": 0.26,
      "velocity": 99,
      "chip": "ym2612"
    },
    {
      "channel": 0,
      "note": 94,
      "start": 21.8684,
      "duration": 0.1266,
      "velocity": 103,
      "chip": "ym2612"
    },
    {
      "channel": 2,
      "note": 73,
      "start": 21.8686,
      "duration": 0.378,
      "velocity": 97,
      "chip": "ym2612"
    },
    {
      "channel": 0,
      "note": 93,
      "start": 21.995,
      "duration": 0.0332,
      "velocity": 103,
      "chip": "ym2612"
    },
    {
      "channel": 1,
      "note": 73,
      "start": 21.9953,
      "duration": 0.2504,
      "velocity": 99,
      "chip": "ym2612"
    },
    {
      "channel": 4,
      "note": 94,
      "start": 21.9958,
      "duration": 0.2512,
      "velocity": 103,
      "chip": "ym2612"
    },
    {
      "channel": 0,
      "note": 92,
      "start": 22.0282,
      "duration": 0.0502,
      "velocity": 103,
      "chip": "ym2612"
    },
    {
      "channel": 0,
      "note": 91,
      "start": 22.0784,
      "duration": 0.0499,
      "velocity": 103,
      "chip": "ym2612"
    },
    {
      "channel": 0,
      "note": 90,
      "start": 22.1283,
      "duration": 0.0165,
      "velocity": 103,
      "chip": "ym2612"
    },
    {
      "channel": 0,
      "note": 89,
      "start": 22.1448,
      "duration": 0.0499,
      "velocity": 103,
      "chip": "ym2612"
    },
    {
      "channel": 0,
      "note": 88,
      "start": 22.1947,
      "duration": 0.0507,
      "velocity": 98,
      "chip": "ym2612"
    },
    {
      "channel": 0,
      "note": 73,
      "start": 22.2455,
      "duration": 0.9265,
      "velocity": 98,
      "chip": "ym2612"
    },
    {
      "channel": 1,
      "note": 81,
      "start": 22.2458,
      "duration": 0.9263,
      "velocity": 99,
      "chip": "ym2612"
    },
    {
      "channel": 2,
      "note": 71,
      "start": 22.2467,
      "duration": 0.9257,
      "velocity": 97,
      "chip": "ym2612"
    },
    {
      "channel": 4,
      "note": 93,
      "start": 22.247,
      "duration": 0.0148,
      "velocity": 103,
      "chip": "ym2612"
    },
    {
      "channel": 4,
      "note": 92,
      "start": 22.2618,
      "duration": 0.0501,
      "velocity": 103,
      "chip": "ym2612"
    },
    {
      "channel": 4,
      "note": 91,
      "start": 22.3119,
      "duration": 0.0499,
      "velocity": 103,
      "chip": "ym2612"
    },
    {
      "channel": 4,
      "note": 90,
      "start": 22.3618,
      "duration": 0.0335,
      "velocity": 103,
      "chip": "ym2612"
    },
    {
      "channel": 4,
      "note": 89,
      "start": 22.3953,
      "duration": 0.0498,
      "velocity": 103,
      "chip": "ym2612"
    },
    {
      "channel": 4,
      "note": 88,
      "start": 22.4451,
      "duration": 0.0509,
      "velocity": 98,
      "chip": "ym2612"
    },
    {
      "channel": 4,
      "note": 73,
      "start": 22.4963,
      "duration": 0.9261,
      "velocity": 98,
      "chip": "ym2612"
    },
    {
      "channel": 0,
      "note": 73,
      "start": 23.1721,
      "duration": 0.2499,
      "velocity": 98,
      "chip": "ym2612"
    },
    {
      "channel": 1,
      "note": 80,
      "start": 23.1723,
      "duration": 0.9271,
      "velocity": 99,
      "chip": "ym2612"
    },
    {
      "channel": 2,
      "note": 75,
      "start": 23.1725,
      "duration": 0.9271,
      "velocity": 97,
      "chip": "ym2612"
    },
    {
      "channel": 0,
      "note": 75,
      "start": 23.4219,
      "duration": 0.6772,
      "velocity": 98,
      "chip": "ym2612"
    },
    {
      "channel": 4,
      "note": 73,
      "start": 23.4224,
      "duration": 0.2666,
      "velocity": 98,
      "chip": "ym2612"
    },
    {
      "channel": 4,
      "note": 75,
      "start": 23.6889,
      "duration": 0.6606,
      "velocity": 98,
      "chip": "ym2612"
    },
    {
      "channel": 0,
      "note": 71,
      "start": 24.0993,
      "duration": 0.9271,
      "velocity": 98,
      "chip": "ym2612"
    },
    {
      "channel": 1,
      "note": 79,
      "start": 24.0996,
      "duration": 0.9269,
      "velocity": 99,
      "chip": "ym2612"
    },
    {
      "channel": 2,
      "note": 78,
      "start": 24.0998,
      "duration": 0.9271,
      "velocity": 97,
      "chip": "ym2612"
    },
    {
      "channel": 4,
      "note": 71,
      "start": 24.3497,
      "duration": 0.9269,
      "velocity": 98,
      "chip": "ym2612"
    },
    {
      "channel": 0,
      "note": 70,
      "start": 25.0264,
      "duration": 0.7831,
      "velocity": 98,
      "chip": "ym2612"
    },
    {
      "channel": 1,
      "note": 67,
      "start": 25.0268,
      "duration": 0.1161,
      "velocity": 99,
      "chip": "ym2612"
    },
    {
      "channel": 2,
      "note": 78,
      "start": 25.0269,
      "duration": 0.7832,
      "velocity": 97,
      "chip": "ym2612"
    },
    {
      "channel": 1,
      "note": 71,
      "start": 25.1431,
      "duration": 0.2665,
      "velocity": 99,
      "chip": "ym2612"
    },
    {
      "channel": 4,
      "note": 70,
      "start": 25.2766,
      "duration": 0.6773,
      "velocity": 98,
      "chip": "ym2612"
    },
    {
      "channel": 1,
      "note": 74,
      "start": 25.4098,
      "duration": 0.2665,
      "velocity": 99,
      "chip": "ym2612"
    },
    {
      "channel": 1,
      "note": 78,
      "start": 25.6764,
      "duration": 0.1332,
      "velocity": 99,
      "chip": "ym2612"
    },
    {
      "channel": 0,
      "note": 71,
      "start": 25.8095,
      "duration": 0.1434,
      "velocity": 98,
      "chip": "ym2612"
    },
    {
      "channel": 1,
      "note": 79,
      "start": 25.8098,
      "duration": 0.1434,
      "velocity": 99,
      "chip": "ym2612"
    },
    {
      "channel": 2,
      "note": 78,
      "start": 25.8101,
      "duration": 0.1434,
      "velocity": 97,
      "chip": "ym2612"
    },
    {
      "channel": 0,
      "note": 76,
      "start": 25.9532,
      "duration": 0.9268,
      "velocity": 98,
      "chip": "ym2612"
    },
    {
      "channel": 1,
      "note": 78,
      "start": 25.9534,
      "duration": 0.9269,
      "velocity": 99,
      "chip": "ym2612"
    },
    {
      "channel": 2,
      "note": 69,
      "start": 25.9537,
      "duration": 0.9268,
      "velocity": 97,
      "chip": "ym2612"
    },
    {
      "channel": 4,
      "note": 71,
      "start": 25.9539,
      "duration": 0.2492,
      "velocity": 98,
      "chip": "ym2612"
    },
    {
      "channel": 4,
      "note": 76,
      "start": 26.2034,
      "duration": 0.9269,
      "velocity": 98,
      "chip": "ym2612"
    },
    {
      "channel": 0,
      "note": 80,
      "start": 26.8803,
      "duration": 0.9272,
      "velocity": 98,
      "chip": "ym2612"
    },
    {
      "channel": 1,
      "note": 77,
      "start": 26.8805,
      "duration": 0.9273,
      "velocity": 99,
      "chip": "ym2612"
    },
    {
      "channel": 2,
      "note": 73,
      "start": 26.8807,
      "duration": 0.9273,
      "velocity": 97,
      "chip": "ym2612"
    },
    {
      "channel": 4,
      "note": 80,
      "start": 27.1305,
      "duration": 0.9274,
      "velocity": 98,
      "chip": "ym2612"
    },
    {
      "channel": 0,
      "note": 85,
      "start": 27.8077,
      "duration": 0.2499,
      "velocity": 98,
      "chip": "ym2612"
    },
    {
      "channel": 1,
      "note": 76,
      "start": 27.8079,
      "duration": 0.5162,
      "velocity": 99,
      "chip": "ym2612"
    },
    {
      "channel": 2,
      "note": 82,
      "start": 27.8081,
      "duration": 1.7108,
      "velocity": 97,
      "chip": "ym2612"
    },
    {
      "channel": 0,
      "note": 87,
      "start": 28.0576,
      "duration": 0.6776,
      "velocity": 98,
      "chip": "ym2612"
    },
    {
      "channel": 4,
      "note": 85,
      "start": 28.0582,
      "duration": 0.2667,
      "velocity": 98,
      "chip": "ym2612"
    },
    {
      "channel": 1,
      "note": 75,
      "start": 28.3244,
      "duration": 0.4109,
      "velocity": 99,
      "chip": "ym2612"
    },
    {
      "channel": 4,
      "note": 87,
      "start": 28.3248,
      "duration": 0.6606,
      "velocity": 98,
      "chip": "ym2612"
    },
    {
      "channel": 0,
      "note": 87,
      "start": 28.7352,
      "duration": 0.7833,
      "velocity": 98,
      "chip": "ym2612"
    },
    {
      "channel": 1,
      "note": 74,
      "start": 28.7355,
      "duration": 0.5161,
      "velocity": 99,
      "chip": "ym2612"
    },
    {
      "channel": 4,
      "note": 87,
      "start": 28.9854,
      "duration": 0.6798,
      "velocity": 98,
      "chip": "ym2612"
    },
    {
      "channel": 1,
      "note": 73,
      "start": 29.2518,
      "duration": 0.4117,
      "velocity": 94,
      "chip": "ym2612"
    },
    {
      "channel": 0,
      "note": 86,
      "start": 29.5185,
      "duration": 0.0331,
      "velocity": 98,
      "chip": "ym2612"
    },
    {
      "channel": 2,
      "note": 80,
      "start": 29.5189,
      "duration": 0.033,
      "velocity": 97,
      "chip": "ym2612"
    },
    {
      "channel": 0,
      "note": 85,
      "start": 29.5516,
      "duration": 0.0501,
      "velocity": 98,
      "chip": "ym2612"
    },
    {
      "channel": 2,
      "note": 79,
      "start": 29.552,
      "duration": 0.0502,
      "velocity": 97,
      "chip": "ym2612"
    },
    {
      "channel": 0,
      "note": 84,
      "start": 29.6018,
      "duration": 0.05,
      "velocity": 98,
      "chip": "ym2612"
    },
    {
      "channel": 2,
      "note": 79,
      "start": 29.6022,
      "duration": 0.0499,
      "velocity": 97,
      "chip": "ym2612"
    },
    {
      "channel": 0,
      "note": 82,
      "start": 29.6518,
      "duration": 0.0029,
      "velocity": 98,
      "chip": "ym2612"
    },
    {
      "channel": 2,
      "note": 78,
      "start": 29.6521,
      "duration": 0.003,
      "velocity": 97,
      "chip": "ym2612"
    },
    {
      "channel": 0,
      "note": 81,
      "start": 29.6547,
      "duration": 0.0039,
      "velocity": 98,
      "chip": "ym2612"
    },
    {
      "channel": 2,
      "note": 77,
      "start": 29.6551,
      "duration": 0.0037,
      "velocity": 97,
      "chip": "ym2612"
    },
    {
      "channel": 0,
      "note": 81,
      "start": 29.6587,
      "duration": 0.0039,
      "velocity": 98,
      "chip": "ym2612"
    },
    {
      "channel": 2,
      "note": 76,
      "start": 29.6588,
      "duration": 0.0058,
      "velocity": 94,
      "chip": "ym2612"
    },
    {
      "channel": 4,
      "note": 86,
      "start": 29.6653,
      "duration": 0.0019,
      "velocity": 98,
      "chip": "ym2612"
    },
    {
      "channel": 4,
      "note": 85,
      "start": 29.6672,
      "duration": 0.0029,
      "velocity": 98,
      "chip": "ym2612"
    },
    {
      "channel": 4,
      "note": 84,
      "start": 29.6701,
      "duration": 0.003,
      "velocity": 98,
      "chip": "ym2612"
    },
    {
      "channel": 1,
      "note": 50,
      "start": 29.6729,
      "duration": 0.0492,
      "velocity": 94,
      "chip": "ym2612"
    },
    {
      "channel": 4,
      "note": 82,
      "start": 29.6731,
      "duration": 0.002,
      "velocity": 98,
      "chip": "ym2612"
    },
    {
      "channel": 4,
      "note": 81,
      "start": 29.6751,
      "duration": 0.0032,
      "velocity": 98,
      "chip": "ym2612"
    },
    {
      "channel": 4,
      "note": 81,
      "start": 29.6783,
      "duration": 0.003,
      "velocity": 98,
      "chip": "ym2612"
    },
    {
      "channel": 2,
      "note": 50,
      "start": 29.6849,
      "duration": 0.0496,
      "velocity": 94,
      "chip": "ym2612"
    },
    {
      "channel": 1,
      "note": 63,
      "start": 29.7224,
      "duration": 0.0702,
      "velocity": 94,
      "chip": "ym2612"
    },
    {
      "channel": 2,
      "note": 63,
      "start": 29.7348,
      "duration": 0.0705,
      "velocity": 94,
      "chip": "ym2612"
    },
    {
      "channel": 1,
      "note": 55,
      "start": 29.7927,
      "duration": 0.0501,
      "velocity": 94,
      "chip": "ym2612"
    },
    {
      "channel": 2,
      "note": 55,
      "start": 29.8054,
      "duration": 0.0495,
      "velocity": 94,
      "chip": "ym2612"
    },
    {
      "channel": 1,
      "note": 57,
      "start": 29.8431,
      "duration": 0.0596,
      "velocity": 94,
      "chip": "ym2612"
    },
    {
      "channel": 2,
      "note": 57,
      "start": 29.855,
      "duration": 0.0614,
      "velocity": 94,
      "chip": "ym2612"
    },
    {
      "channel": 1,
      "note": 50,
      "start": 29.9121,
      "duration": 0.0494,
      "velocity": 94,
      "chip": "ym2612"
    },
    {
      "channel": 2,
      "note": 50,
      "start": 29.9238,
      "duration": 0.0503,
      "velocity": 94,
      "chip": "ym2612"
    },
    {
      "channel": 1,
      "note": 63,
      "start": 29.9617,
      "duration": 0.0705,
      "velocity": 94,
      "chip": "ym2612"
    },
    {
      "channel": 2,
      "note": 63,
      "start": 29.9743,
      "duration": 0.0708,
      "velocity": 94,
      "chip": "ym2612"
    },
    {
      "channel": 1,
      "note": 55,
      "start": 30.0325,
      "duration": 0.0499,
      "velocity": 94,
      "chip": "ym2612"
    },
    {
      "channel": 2,
      "note": 55,
      "start": 30.0453,
      "duration": 0.0494,
      "velocity": 94,
      "chip": "ym2612"
    },
    {
      "channel": 1,
      "note": 57,
      "start": 30.0826,
      "duration": 0.06,
      "velocity": 94,
      "chip": "ym2612"
    },
    {
      "channel": 2,
      "note": 57,
      "start": 30.0949,
      "duration": 0.0615,
      "velocity": 94,
      "chip": "ym2612"
    },
    {
      "channel": 1,
      "note": 50,
      "start": 30.152,
      "duration": 0.0485,
      "velocity": 94,
      "chip": "ym2612"
    },
    {
      "channel": 2,
      "note": 50,
      "start": 30.1637,
      "duration": 0.0495,
      "velocity": 94,
      "chip": "ym2612"
    },
    {
      "channel": 1,
      "note": 63,
      "start": 30.2008,
      "duration": 0.0706,
      "velocity": 94,
      "chip": "ym2612"
    },
    {
      "channel": 2,
      "note": 63,
      "start": 30.2133,
      "duration": 0.0709,
      "velocity": 94,
      "chip": "ym2612"
    },
    {
      "channel": 1,
      "note": 55,
      "start": 30.2716,
      "duration": 0.0493,
      "velocity": 94,
      "chip": "ym2612"
    },
    {
      "channel": 2,
      "note": 55,
      "start": 30.2844,
      "duration": 0.0488,
      "velocity": 94,
      "chip": "ym2612"
    },
    {
      "channel": 1,
      "note": 57,
      "start": 30.3211,
      "duration": 0.0602,
      "velocity": 94,
      "chip": "ym2612"
    },
    {
      "channel": 2,
      "note": 57,
      "start": 30.3333,
      "duration": 0.0622,
      "velocity": 94,
      "chip": "ym2612"
    },
    {
      "channel": 1,
      "note": 50,
      "start": 30.3909,
      "duration": 0.0489,
      "velocity": 94,
      "chip": "ym2612"
    },
    {
      "channel": 2,
      "note": 50,
      "start": 30.4028,
      "duration": 0.0496,
      "velocity": 94,
      "chip": "ym2612"
    },
    {
      "channel": 1,
      "note": 63,
      "start": 30.44,
      "duration": 0.0614,
      "velocity": 97,
      "chip": "ym2612"
    },
    {
      "channel": 2,
      "note": 63,
      "start": 30.4526,
      "duration": 0.0632,
      "velocity": 97,
      "chip": "ym2612"
    },
    {
      "channel": 0,
      "note": 71,
      "start": 30.5005,
      "duration": 0.0096,
      "velocity": 98,
      "chip": "ym2612"
    },
    {
      "channel": 1,
      "note": 80,
      "start": 30.5016,
      "duration": 0.0088,
      "velocity": 97,
      "chip": "ym2612"
    },
    {
      "channel": 0,
      "note": 70,
      "start": 30.5104,
      "duration": 0.0091,
      "velocity": 98,
      "chip": "ym2612"
    },
    {
      "channel": 1,
      "note": 79,
      "start": 30.5106,
      "duration": 0.0092,
      "velocity": 97,
      "chip": "ym2612"
    },
    {
      "channel": 2,
      "note": 80,
      "start": 30.5159,
      "duration": 0.0084,
      "velocity": 97,
      "chip": "ym2612"
    },
    {
      "channel": 0,
      "note": 69,
      "start": 30.5197,
      "duration": 0.0087,
      "velocity": 98,
      "chip": "ym2612"
    },
    {
      "channel": 1,
      "note": 78,
      "start": 30.52,
      "duration": 0.0088,
      "velocity": 97,
      "chip": "ym2612"
    },
    {
      "channel": 4,
      "note": 71,
      "start": 30.5202,
      "duration": 0.0089,
      "velocity": 98,
      "chip": "ym2612"
    },
    {
      "channel": 2,
      "note": 79,
      "start": 30.5245,
      "duration": 0.0088,
      "velocity": 97,
      "chip": "ym2612"
    },
    {
      "channel": 0,
      "note": 68,
      "start": 30.5287,
      "duration": 0.0097,
      "velocity": 98,
      "chip": "ym2612"
    },
    {
      "channel": 1,
      "note": 77,
      "start": 30.529,
      "duration": 0.0096,
      "velocity": 97,
      "chip": "ym2612"
    },
    {
      "channel": 4,
      "note": 70,
      "start": 30.5293,
      "duration": 0.0097,
      "velocity": 98,
      "chip": "ym2612"
    },
    {
      "channel": 2,
      "note": 78,
      "start": 30.5336,
      "duration": 0.0093,
      "velocity": 97,
      "chip": "ym2612"
    },
    {
      "channel": 0,
      "note": 67,
      "start": 30.5386,
      "duration": 0.0097,
      "velocity": 98,
      "chip": "ym2612"
    },
    {
      "channel": 1,
      "note": 76,
      "start": 30.5389,
      "duration": 0.0098,
      "velocity": 97,
      "chip": "ym2612"
    },
    {
      "channel": 4,
      "note": 69,
      "start": 30.5393,
      "duration": 0.0096,
      "velocity": 98,
      "chip": "ym2612"
    },
    {
      "channel": 2,
      "note": 77,
      "start": 30.5431,
      "duration": 0.0097,
      "velocity": 97,
      "chip": "ym2612"
    },
    {
      "channel": 0,
      "note": 66,
      "start": 30.5486,
      "duration": 0.008,
      "velocity": 98,
      "chip": "ym2612"
    },
    {
      "channel": 1,
      "note": 75,
      "start": 30.5488,
      "duration": 0.0081,
      "velocity": 97,
      "chip": "ym2612"
    },
    {
      "channel": 4,
      "note": 68,
      "start": 30.549,
      "duration": 0.0081,
      "velocity": 98,
      "chip": "ym2612"
    },
    {
      "channel": 2,
      "note": 76,
      "start": 30.5529,
      "duration": 0.0079,
      "velocity": 97,
      "chip": "ym2612"
    },
    {
      "channel": 0,
      "note": 65,
      "start": 30.5568,
      "duration": 0.0098,
      "velocity": 98,
      "chip": "ym2612"
    },
    {
      "channel": 1,
      "note": 74,
      "start": 30.5571,
      "duration": 0.0098,
      "velocity": 97,
      "chip": "ym2612"
    },
    {
      "channel": 4,
      "note": 67,
      "start": 30.5572,
      "duration": 0.0099,
      "velocity": 98,
      "chip": "ym2612"
    },
    {
      "channel": 2,
      "note": 75,
      "start": 30.561,
      "duration": 0.0098,
      "velocity": 97,
      "chip": "ym2612"
    },
    {
      "channel": 0,
      "note": 64,
      "start": 30.5668,
      "duration": 0.0099,
      "velocity": 98,
      "chip": "ym2612"
    },
    {
      "channel": 1,
      "note": 73,
      "start": 30.567,
      "duration": 0.0106,
      "velocity": 99,
      "chip": "ym2612"
    },
    {
      "channel": 4,
      "note": 66,
      "start": 30.5672,
      "duration": 0.0121,
      "velocity": 98,
      "chip": "ym2612"
    },
    {
      "channel": 2,
      "note": 74,
      "start": 30.571,
      "duration": 0.0077,
      "velocity": 104,
      "chip": "ym2612"
    },
    {
      "channel": 0,
      "note": 63,
      "start": 30.5768,
      "duration": 0.1272,
      "velocity": 98,
      "chip": "ym2612"
    },
    {
      "channel": 1,
      "note": 71,
      "start": 30.5777,
      "duration": 0.3589,
      "velocity": 99,
      "chip": "ym2612"
    },
    {
      "channel": 2,
      "note": 78,
      "start": 30.5789,
      "duration": 0.0089,
      "velocity": 104,
      "chip": "ym2612"
    },
    {
      "channel": 3,
      "note": 71,
      "start": 30.5792,
      "duration": 0.0595,
      "velocity": 104,
      "chip": "ym2612"
    },
    {
      "channel": 4,
      "note": 65,
      "start": 30.5794,
      "duration": 0.0087,
      "velocity": 98,
      "chip": "ym2612"
    },
    {
      "channel": 2,
      "note": 77,
      "start": 30.588,
      "duration": 0.1161,
      "velocity": 104,
      "chip": "ym2612"
    },
    {
      "channel": 4,
      "note": 64,
      "start": 30.5883,
      "duration": 0.1162,
      "velocity": 98,
      "chip": "ym2612"
    },
    {
      "channel": 3,
      "note": 78,
      "start": 30.639,
      "duration": 0.1148,
      "velocity": 104,
      "chip": "ym2612"
    },
    {
      "channel": 2,
      "note": 78,
      "start": 30.7043,
      "duration": 0.1161,
      "velocity": 104,
      "chip": "ym2612"
    },
    {
      "channel": 4,
      "note": 63,
      "start": 30.7047,
      "duration": 0.2325,
      "velocity": 98,
      "chip": "ym2612"
    },
    {
      "channel": 3,
      "note": 77,
      "start": 30.754,
      "duration": 0.1162,
      "velocity": 104,
      "chip": "ym2612"
    },
    {
      "channel": 2,
      "note": 82,
      "start": 30.8205,
      "duration": 0.1164,
      "velocity": 104,
      "chip": "ym2612"
    },
    {
      "channel": 3,
      "note": 78,
      "start": 30.8704,
      "duration": 0.1331,
      "velocity": 104,
      "chip": "ym2612"
    },
    {
      "channel": 3,
      "note": 82,
      "start": 31.0037,
      "duration": 0.1332,
      "velocity": 104,
      "chip": "ym2612"
    },
    {
      "channel": 2,
      "note": 80,
      "start": 31.2037,
      "duration": 0.1331,
      "velocity": 104,
      "chip": "ym2612"
    },
    {
      "channel": 2,
      "note": 78,
      "start": 31.3369,
      "duration": 0.1333,
      "velocity": 104,
      "chip": "ym2612"
    },
    {
      "channel": 3,
      "note": 80,
      "start": 31.4037,
      "duration": 0.1332,
      "velocity": 104,
      "chip": "ym2612"
    },
    {
      "channel": 2,
      "note": 77,
      "start": 31.4704,
      "duration": 0.1331,
      "velocity": 104,
      "chip": "ym2612"
    },
    {
      "channel": 3,
      "note": 78,
      "start": 31.5371,
      "duration": 0.0703,
      "velocity": 104,
      "chip": "ym2612"
    },
    {
      "channel": 2,
      "note": 80,
      "start": 31.6037,
      "duration": 0.0075,
      "velocity": 104,
      "chip": "ym2612"
    },
    {
      "channel": 3,
      "note": 77,
      "start": 31.6076,
      "duration": 0.007,
      "velocity": 104,
      "chip": "ym2612"
    },
    {
      "channel": 3,
      "note": 80,
      "start": 31.6148,
      "duration": 0.0136,
      "velocity": 104,
      "chip": "ym2612"
    },
    {
      "channel": 2,
      "note": 78,
      "start": 31.6951,
      "duration": 0.1161,
      "velocity": 104,
      "chip": "ym2612"
    },
    {
      "channel": 2,
      "note": 77,
      "start": 31.8114,
      "duration": 0.0071,
      "velocity": 104,
      "chip": "ym2612"
    },
    {
      "channel": 3,
      "note": 78,
      "start": 31.8148,
      "duration": 0.0076,
      "velocity": 104,
      "chip": "ym2612"
    },
    {
      "channel": 2,
      "note": 75,
      "start": 31.8186,
      "duration": 0.0078,
      "velocity": 104,
      "chip": "ym2612"
    },
    {
      "channel": 3,
      "note": 77,
      "start": 31.8226,
      "duration": 0.0077,
      "velocity": 104,
      "chip": "ym2612"
    },
    {
      "channel": 2,
      "note": 78,
      "start": 31.8266,
      "duration": 0.008,
      "velocity": 104,
      "chip": "ym2612"
    },
    {
      "channel": 3,
      "note": 75,
      "start": 31.8305,
      "duration": 0.0535,
      "velocity": 104,
      "chip": "ym2612"
    },
    {
      "channel": 1,
      "note": 63,
      "start": 31.8346,
      "duration": 0.2572,
      "velocity": 99,
      "chip": "ym2612"
    },
    {
      "channel": 2,
      "note": 77,
      "start": 31.8347,
      "duration": 0.1158,
      "velocity": 104,
      "chip": "ym2612"
    },
    {
      "channel": 3,
      "note": 78,
      "start": 31.8842,
      "duration": 0.1332,
      "velocity": 104,
      "chip": "ym2612"
    },
    {
      "channel": 2,
      "note": 75,
      "start": 31.9507,
      "duration": 0.1332,
      "velocity": 104,
      "chip": "ym2612"
    },
    {
      "channel": 3,
      "note": 77,
      "start": 32.0176,
      "duration": 0.0704,
      "velocity": 104,
      "chip": "ym2612"
    },
    {
      "channel": 2,
      "note": 73,
      "start": 32.0841,
      "duration": 0.008,
      "velocity": 104,
      "chip": "ym2612"
    },
    {
      "channel": 3,
      "note": 75,
      "start": 32.0883,
      "duration": 0.0532,
      "velocity": 104,
      "chip": "ym2612"
    },
    {
      "channel": 1,
      "note": 70,
      "start": 32.092,
      "duration": 0.3827,
      "velocity": 99,
      "chip": "ym2612"
    },
    {
      "channel": 2,
      "note": 70,
      "start": 32.0923,
      "duration": 0.8934,
      "velocity": 104,
      "chip": "ym2612"
    },
    {
      "channel": 3,
      "note": 73,
      "start": 32.1417,
      "duration": 0.1332,
      "velocity": 104,
      "chip": "ym2612"
    },
    {
      "channel": 3,
      "note": 70,
      "start": 32.2751,
      "duration": 0.8938,
      "velocity": 104,
      "chip": "ym2612"
    },
    {
      "channel": 1,
      "note": 73,
      "start": 32.4749,
      "duration": 0.2498,
      "velocity": 99,
      "chip": "ym2612"
    },
    {
      "channel": 0,
      "note": 89,
      "start": 32.7246,
      "duration": 0.1161,
      "velocity": 98,
      "chip": "ym2612"
    },
    {
      "channel": 1,
      "note": 72,
      "start": 32.7248,
      "duration": 0.1162,
      "velocity": 99,
      "chip": "ym2612"
    },
    {
      "channel": 0,
      "note": 87,
      "start": 32.841,
      "duration": 0.1332,
      "velocity": 98,
      "chip": "ym2612"
    },
    {
      "channel": 1,
      "note": 68,
      "start": 32.8412,
      "duration": 0.1441,
      "velocity": 99,
      "chip": "ym2612"
    },
    {
      "channel": 0,
      "note": 85,
      "start": 32.9744,
      "duration": 0.0105,
      "velocity": 98,
      "chip": "ym2612"
    },
    {
      "channel": 4,
      "note": 89,
      "start": 32.9749,
      "duration": 0.011,
      "velocity": 98,
      "chip": "ym2612"
    },
    {
      "channel": 0,
      "note": 82,
      "start": 32.9852,
      "duration": 0.4028,
      "velocity": 98,
      "chip": "ym2612"
    },
    {
      "channel": 1,
      "note": 63,
      "start": 32.9856,
      "duration": 0.2498,
      "velocity": 99,
      "chip": "ym2612"
    },
    {
      "channel": 2,
      "note": 70,
      "start": 32.9857,
      "duration": 0.4026,
      "velocity": 104,
      "chip": "ym2612"
    },
    {
      "channel": 4,
      "note": 87,
      "start": 32.9861,
      "duration": 0.1161,
      "velocity": 98,
      "chip": "ym2612"
    },
    {
      "channel": 4,
      "note": 85,
      "start": 33.1025,
      "duration": 0.1334,
      "velocity": 98,
      "chip": "ym2612"
    },
    {
      "channel": 3,
      "note": 70,
      "start": 33.169,
      "duration": 0.3855,
      "velocity": 104,
      "chip": "ym2612"
    },
    {
      "channel": 1,
      "note": 60,
      "start": 33.2355,
      "duration": 0.1426,
      "velocity": 99,
      "chip": "ym2612"
    },
    {
      "channel": 4,
      "note": 82,
      "start": 33.2361,
      "duration": 0.3856,
      "velocity": 98,
      "chip": "ym2612"
    },
    {
      "channel": 1,
      "note": 56,
      "start": 33.3783,
      "duration": 0.0098,
      "velocity": 99,
      "chip": "ym2612"
    },
    {
      "channel": 0,
      "note": 81,
      "start": 33.388,
      "duration": 0.0498,
      "velocity": 98,
      "chip": "ym2612"
    },
    {
      "channel": 1,
      "note": 59,
      "start": 33.3883,
      "duration": 0.4827,
      "velocity": 99,
      "chip": "ym2612"
    },
    {
      "channel": 2,
      "note": 71,
      "start": 33.3885,
      "duration": 0.1161,
      "velocity": 104,
      "chip": "ym2612"
    },
    {
      "channel": 0,
      "note": 80,
      "start": 33.4378,
      "duration": 0.0667,
      "velocity": 98,
      "chip": "ym2612"
    },
    {
      "channel": 0,
      "note": 79,
      "start": 33.5045,
      "duration": 0.0497,
      "velocity": 98,
      "chip": "ym2612"
    },
    {
      "channel": 2,
      "note": 70,
      "start": 33.5047,
      "duration": 0.1164,
      "velocity": 104,
      "chip": "ym2612"
    },
    {
      "channel": 0,
      "note": 78,
      "start": 33.5542,
      "duration": 0.0668,
      "velocity": 98,
      "chip": "ym2612"
    },
    {
      "channel": 3,
      "note": 71,
      "start": 33.5547,
      "duration": 0.133,
      "velocity": 104,
      "chip": "ym2612"
    },
    {
      "channel": 0,
      "note": 77,
      "start": 33.621,
      "duration": 0.0331,
      "velocity": 98,
      "chip": "ym2612"
    },
    {
      "channel": 2,
      "note": 71,
      "start": 33.6213,
      "duration": 0.133,
      "velocity": 104,
      "chip": "ym2612"
    },
    {
      "channel": 4,
      "note": 81,
      "start": 33.6218,
      "duration": 0.0664,
      "velocity": 98,
      "chip": "ym2612"
    },
    {
      "channel": 0,
      "note": 76,
      "start": 33.6541,
      "duration": 0.0501,
      "velocity": 98,
      "chip": "ym2612"
    },
    {
      "channel": 3,
      "note": 70,
      "start": 33.6879,
      "duration": 0.1164,
      "velocity": 104,
      "chip": "ym2612"
    },
    {
      "channel": 4,
      "note": 80,
      "start": 33.6882,
      "duration": 0.0665,
      "velocity": 98,
      "chip": "ym2612"
    },
    {
      "channel": 0,
      "note": 75,
      "start": 33.7043,
      "duration": 0.0499,
      "velocity": 98,
      "chip": "ym2612"
    },
    {
      "channel": 0,
      "note": 74,
      "start": 33.7542,
      "duration": 0.0167,
      "velocity": 98,
      "chip": "ym2612"
    },
    {
      "channel": 2,
      "note": 75,
      "start": 33.7544,
      "duration": 0.1167,
      "velocity": 104,
      "chip": "ym2612"
    },
    {
      "channel": 4,
      "note": 79,
      "start": 33.7547,
      "duration": 0.05,
      "velocity": 98,
      "chip": "ym2612"
    },
    {
      "channel": 0,
      "note": 73,
      "start": 33.7709,
      "duration": 0.0499,
      "velocity": 98,
      "chip": "ym2612"
    },
    {
      "channel": 3,
      "note": 71,
      "start": 33.8045,
      "duration": 0.1329,
      "velocity": 104,
      "chip": "ym2612"
    },
    {
      "channel": 4,
      "note": 78,
      "start": 33.8048,
      "duration": 0.0671,
      "velocity": 98,
      "chip": "ym2612"
    },
    {
      "channel": 0,
      "note": 71,
      "start": 33.8208,
      "duration": 0.05,
      "velocity": 98,
      "chip": "ym2612"
    },
    {
      "channel": 4,
      "note": 77,
      "start": 33.8718,
      "duration": 0.0327,
      "velocity": 98,
      "chip": "ym2612"
    },
    {
      "channel": 4,
      "note": 76,
      "start": 33.9045,
      "duration": 0.0501,
      "velocity": 98,
      "chip": "ym2612"
    },
    {
      "channel": 3,
      "note": 75,
      "start": 33.9377,
      "duration": 0.1331,
      "velocity": 104,
      "chip": "ym2612"
    },
    {
      "channel": 4,
      "note": 75,
      "start": 33.9546,
      "duration": 0.0499,
      "velocity": 98,
      "chip": "ym2612"
    },
    {
      "channel": 4,
      "note": 74,
      "start": 34.0044,
      "duration": 0.0335,
      "velocity": 98,
      "chip": "ym2612"
    },
    {
      "channel": 4,
      "note": 73,
      "start": 34.0379,
      "duration": 0.0498,
      "velocity": 98,
      "chip": "ym2612"
    },
    {
      "channel": 4,
      "note": 71,
      "start": 34.0877,
      "duration": 0.05,
      "velocity": 98,
      "chip": "ym2612"
    },
    {
      "channel": 2,
      "note": 73,
      "start": 34.1376,
      "duration": 0.1158,
      "velocity": 104,
      "chip": "ym2612"
    },
    {
      "channel": 2,
      "note": 71,
      "start": 34.2537,
      "duration": 0.1334,
      "velocity": 104,
      "chip": "ym2612"
    },
    {
      "channel": 3,
      "note": 73,
      "start": 34.3205,
      "duration": 0.1332,
      "velocity": 104,
      "chip": "ym2612"
    },
    {
      "channel": 2,
      "note": 73,
      "start": 34.3873,
      "duration": 0.1329,
      "velocity": 104,
      "chip": "ym2612"
    },
    {
      "channel": 3,
      "note": 71,
      "start": 34.4538,
      "duration": 0.1332,
      "velocity": 104,
      "chip": "ym2612"
    },
    {
      "channel": 2,
      "note": 77,
      "start": 34.5204,
      "duration": 0.1331,
      "velocity": 104,
      "chip": "ym2612"
    },
    {
      "channel": 3,
      "note": 73,
      "start": 34.5872,
      "duration": 0.133,
      "velocity": 104,
      "chip": "ym2612"
    },
    {
      "channel": 3,
      "note": 77,
      "start": 34.7204,
      "duration": 0.1332,
      "velocity": 104,
      "chip": "ym2612"
    },
    {
      "channel": 2,
      "note": 75,
      "start": 34.9204,
      "duration": 0.1331,
      "velocity": 104,
      "chip": "ym2612"
    },
    {
      "channel": 2,
      "note": 77,
      "start": 35.0537,
      "duration": 0.1332,
      "velocity": 104,
      "chip": "ym2612"
    },
    {
      "channel": 3,
      "note": 75,
      "start": 35.1205,
      "duration": 0.0704,
      "velocity": 104,
      "chip": "ym2612"
    },
    {
      "channel": 2,
      "note": 78,
      "start": 35.1872,
      "duration": 0.0075,
      "velocity": 104,
      "chip": "ym2612"
    },
    {
      "channel": 3,
      "note": 77,
      "start": 35.1911,
      "duration": 0.0077,
      "velocity": 104,
      "chip": "ym2612"
    },
    {
      "channel": 2,
      "note": 80,
      "start": 35.1949,
      "duration": 0.0083,
      "velocity": 104,
      "chip": "ym2612"
    },
    {
      "channel": 3,
      "note": 78,
      "start": 35.199,
      "duration": 0.0536,
      "velocity": 104,
      "chip": "ym2612"
    },
    {
      "channel": 1,
      "note": 63,
      "start": 35.2031,
      "duration": 0.2571,
      "velocity": 99,
      "chip": "ym2612"
    },
    {
      "channel": 2,
      "note": 82,
      "start": 35.2034,
      "duration": 0.1157,
      "velocity": 104,
      "chip": "ym2612"
    },
    {
      "channel": 3,
      "note": 80,
      "start": 35.2528,
      "duration": 0.1332,
      "velocity": 104,
      "chip": "ym2612"
    },
    {
      "channel": 2,
      "note": 78,
      "start": 35.3193,
      "duration": 0.1333,
      "velocity": 104,
      "chip": "ym2612"
    },
    {
      "channel": 3,
      "note": 82,
      "start": 35.3862,
      "duration": 0.0703,
      "velocity": 104,
      "chip": "ym2612"
    },
    {
      "channel": 2,
      "note": 77,
      "start": 35.4528,
      "duration": 0.0077,
      "velocity": 104,
      "chip": "ym2612"
    },
    {
      "channel": 3,
      "note": 78,
      "start": 35.4567,
      "duration": 0.0534,
      "velocity": 104,
      "chip": "ym2612"
    },
    {
      "channel": 1,
      "note": 73,
      "start": 35.4605,
      "duration": 0.3828,
      "velocity": 99,
      "chip": "ym2612"
    },
    {
      "channel": 2,
      "note": 75,
      "start": 35.4608,
      "duration": 0.6345,
      "velocity": 102,
      "chip": "ym2612"
    },
    {
      "channel": 3,
      "note": 77,
      "start": 35.5104,
      "duration": 0.1331,
      "velocity": 104,
      "chip": "ym2612"
    },
    {
      "channel": 3,
      "note": 75,
      "start": 35.6437,
      "duration": 0.633,
      "velocity": 104,
      "chip": "ym2612"
    },
    {
      "channel": 1,
      "note": 75,
      "start": 35.8435,
      "duration": 0.2506,
      "velocity": 99,
      "chip": "ym2612"
    },
    {
      "channel": 0,
      "note": 66,
      "start": 36.094,
      "duration": 0.2492,
      "velocity": 102,
      "chip": "ym2612"
    },
    {
      "channel": 1,
      "note": 76,
      "start": 36.0942,
      "duration": 0.2491,
      "velocity": 99,
      "chip": "ym2612"
    },
    {
      "channel": 2,
      "note": 71,
      "start": 36.0954,
      "duration": 0.2483,
      "velocity": 102,
      "chip": "ym2612"
    },
    {
      "channel": 0,
      "note": 66,
      "start": 36.3432,
      "duration": 0.1271,
      "velocity": 104,
      "chip": "ym2612"
    },
    {
      "channel": 1,
      "note": 64,
      "start": 36.3435,
      "duration": 0.1271,
      "velocity": 99,
      "chip": "ym2612"
    },
    {
      "channel": 2,
      "note": 71,
      "start": 36.3437,
      "duration": 0.128,
      "velocity": 104,
      "chip": "ym2612"
    },
    {
      "channel": 4,
      "note": 66,
      "start": 36.3448,
      "duration": 0.1275,
      "velocity": 102,
      "chip": "ym2612"
    },
    {
      "channel": 0,
      "note": 68,
      "start": 36.4706,
      "duration": 0.2659,
      "velocity": 104,
      "chip": "ym2612"
    },
    {
      "channel": 1,
      "note": 78,
      "start": 36.4708,
      "duration": 0.2656,
      "velocity": 99,
      "chip": "ym2612"
    },
    {
      "channel": 2,
      "note": 73,
      "start": 36.472,
      "duration": 0.2649,
      "velocity": 104,
      "chip": "ym2612"
    },
    {
      "channel": 4,
      "note": 66,
      "start": 36.4724,
      "duration": 0.2654,
      "velocity": 104,
      "chip": "ym2612"
    },
    {
      "channel": 0,
      "note": 68,
      "start": 36.7364,
      "duration": 0.2507,
      "velocity": 50,
      "chip": "ym2612"
    },
    {
      "channel": 1,
      "note": 66,
      "start": 36.7367,
      "duration": 0.2507,
      "velocity": 99,
      "chip": "ym2612"
    },
    {
      "channel": 2,
      "note": 73,
      "start": 36.7369,
      "duration": 0.2517,
      "velocity": 102,
      "chip": "ym2612"
    },
    {
      "channel": 4,
      "note": 68,
      "start": 36.738,
      "duration": 0.251,
      "velocity": 104,
      "chip": "ym2612"
    },
    {
      "channel": 0,
      "note": 78,
      "start": 36.9872,
      "duration": 0.1159,
      "velocity": 50,
      "chip": "ym2612"
    },
    {
      "channel": 1,
      "note": 59,
      "start": 36.9875,
      "duration": 0.3827,
      "velocity": 99,
      "chip": "ym2612"
    },
    {
      "channel": 2,
      "note": 75,
      "start": 36.9887,
      "duration": 0.1148,
      "velocity": 102,
      "chip": "ym2612"
    },
    {
      "channel": 4,
      "note": 68,
      "start": 36.989,
      "duration": 0.2493,
      "velocity": 50,
      "chip": "ym2612"
    },
    {
      "channel": 0,
      "note": 77,
      "start": 37.1034,
      "duration": 0.1332,
      "velocity": 50,
      "chip": "ym2612"
    },
    {
      "channel": 2,
      "note": 73,
      "start": 37.1037,
      "duration": 0.1332,
      "velocity": 102,
      "chip": "ym2612"
    },
    {
      "channel": 3,
      "note": 75,
      "start": 37.1712,
      "duration": 0.1323,
      "velocity": 102,
      "chip": "ym2612"
    },
    {
      "channel": 0,
      "note": 78,
      "start": 37.2368,
      "duration": 0.1331,
      "velocity": 50,
      "chip": "ym2612"
    },
    {
      "channel": 2,
      "note": 75,
      "start": 37.2371,
      "duration": 0.1334,
      "velocity": 102,
      "chip": "ym2612"
    },
    {
      "channel": 4,
      "note": 78,
      "start": 37.2385,
      "duration": 0.1322,
      "velocity": 50,
      "chip": "ym2612"
    },
    {
      "channel": 3,
      "note": 73,
      "start": 37.3037,
      "duration": 0.1163,
      "velocity": 102,
      "chip": "ym2612"
    },
    {
      "channel": 0,
      "note": 82,
      "start": 37.3702,
      "duration": 0.3829,
      "velocity": 50,
      "chip": "ym2612"
    },
    {
      "channel": 1,
      "note": 59,
      "start": 37.3704,
      "duration": 0.383,
      "velocity": 99,
      "chip": "ym2612"
    },
    {
      "channel": 2,
      "note": 78,
      "start": 37.3706,
      "duration": 0.3831,
      "velocity": 102,
      "chip": "ym2612"
    },
    {
      "channel": 4,
      "note": 77,
      "start": 37.3709,
      "duration": 0.1159,
      "velocity": 50,
      "chip": "ym2612"
    },
    {
      "channel": 3,
      "note": 75,
      "start": 37.4203,
      "duration": 0.1331,
      "velocity": 102,
      "chip": "ym2612"
    },
    {
      "channel": 4,
      "note": 78,
      "start": 37.487,
      "duration": 0.1332,
      "velocity": 50,
      "chip": "ym2612"
    },
    {
      "channel": 3,
      "note": 78,
      "start": 37.5536,
      "duration": 0.2145,
      "velocity": 102,
      "chip": "ym2612"
    },
    {
      "channel": 4,
      "note": 82,
      "start": 37.6205,
      "duration": 0.1533,
      "velocity": 50,
      "chip": "ym2612"
    },
    {
      "channel": 0,
      "note": 80,
      "start": 37.7533,
      "duration": 0.0097,
      "velocity": 50,
      "chip": "ym2612"
    },
    {
      "channel": 1,
      "note": 59,
      "start": 37.7536,
      "duration": 0.0197,
      "velocity": 99,
      "chip": "ym2612"
    },
    {
      "channel": 2,
      "note": 77,
      "start": 37.7538,
      "duration": 0.0095,
      "velocity": 102,
      "chip": "ym2612"
    },
    {
      "channel": 0,
      "note": 78,
      "start": 37.7632,
      "duration": 0.0097,
      "velocity": 50,
      "chip": "ym2612"
    },
    {
      "channel": 2,
      "note": 75,
      "start": 37.7635,
      "duration": 0.0099,
      "velocity": 102,
      "chip": "ym2612"
    },
    {
      "channel": 3,
      "note": 77,
      "start": 37.7683,
      "duration": 0.0545,
      "velocity": 102,
      "chip": "ym2612"
    },
    {
      "channel": 0,
      "note": 77,
      "start": 37.7732,
      "duration": 0.1161,
      "velocity": 50,
      "chip": "ym2612"
    },
    {
      "channel": 1,
      "note": 61,
      "start": 37.7733,
      "duration": 0.3828,
      "velocity": 99,
      "chip": "ym2612"
    },
    {
      "channel": 2,
      "note": 73,
      "start": 37.7736,
      "duration": 0.116,
      "velocity": 102,
      "chip": "ym2612"
    },
    {
      "channel": 4,
      "note": 80,
      "start": 37.7739,
      "duration": 0.1162,
      "velocity": 50,
      "chip": "ym2612"
    },
    {
      "channel": 3,
      "note": 75,
      "start": 37.8231,
      "duration": 0.1332,
      "velocity": 102,
      "chip": "ym2612"
    },
    {
      "channel": 0,
      "note": 80,
      "start": 37.8895,
      "duration": 0.3829,
      "velocity": 50,
      "chip": "ym2612"
    },
    {
      "channel": 2,
      "note": 77,
      "start": 37.8898,
      "duration": 0.383,
      "velocity": 102,
      "chip": "ym2612"
    },
    {
      "channel": 4,
      "note": 78,
      "start": 37.8902,
      "duration": 0.1328,
      "velocity": 50,
      "chip": "ym2612"
    },
    {
      "channel": 3,
      "note": 73,
      "start": 37.9565,
      "duration": 0.1331,
      "velocity": 102,
      "chip": "ym2612"
    },
    {
      "channel": 4,
      "note": 77,
      "start": 38.0232,
      "duration": 0.1333,
      "velocity": 50,
      "chip": "ym2612"
    },
    {
      "channel": 3,
      "note": 77,
      "start": 38.0898,
      "duration": 0.3829,
      "velocity": 102,
      "chip": "ym2612"
    },
    {
      "channel": 1,
      "note": 61,
      "start": 38.1563,
      "duration": 0.3832,
      "velocity": 99,
      "chip": "ym2612"
    },
    {
      "channel": 4,
      "note": 80,
      "start": 38.1566,
      "duration": 0.3835,
      "velocity": 50,
      "chip": "ym2612"
    },
    {
      "channel": 0,
      "note": 78,
      "start": 38.2727,
      "duration": 0.1332,
      "velocity": 50,
      "chip": "ym2612"
    },
    {
      "channel": 2,
      "note": 75,
      "start": 38.273,
      "duration": 0.1332,
      "velocity": 102,
      "chip": "ym2612"
    },
    {
      "channel": 0,
      "note": 77,
      "start": 38.4061,
      "duration": 0.1331,
      "velocity": 50,
      "chip": "ym2612"
    },
    {
      "channel": 2,
      "note": 73,
      "start": 38.4064,
      "duration": 0.1334,
      "velocity": 102,
      "chip": "ym2612"
    },
    {
      "channel": 3,
      "note": 75,
      "start": 38.473,
      "duration": 0.0719,
      "velocity": 102,
      "chip": "ym2612"
    },
    {
      "channel": 0,
      "note": 75,
      "start": 38.5395,
      "duration": 0.0099,
      "velocity": 50,
      "chip": "ym2612"
    },
    {
      "channel": 1,
      "note": 61,
      "start": 38.5398,
      "duration": 0.02,
      "velocity": 99,
      "chip": "ym2612"
    },
    {
      "channel": 2,
      "note": 71,
      "start": 38.54,
      "duration": 0.0097,
      "velocity": 102,
      "chip": "ym2612"
    },
    {
      "channel": 4,
      "note": 78,
      "start": 38.5403,
      "duration": 0.0098,
      "velocity": 50,
      "chip": "ym2612"
    },
    {
      "channel": 3,
      "note": 73,
      "start": 38.545,
      "duration": 0.01,
      "velocity": 102,
      "chip": "ym2612"
    },
    {
      "channel": 0,
      "note": 78,
      "start": 38.5496,
      "duration": 0.0101,
      "velocity": 50,
      "chip": "ym2612"
    },
    {
      "channel": 2,
      "note": 75,
      "start": 38.5499,
      "duration": 0.0102,
      "velocity": 102,
      "chip": "ym2612"
    },
    {
      "channel": 4,
      "note": 77,
      "start": 38.5504,
      "duration": 0.01,
      "velocity": 50,
      "chip": "ym2612"
    },
    {
      "channel": 3,
      "note": 71,
      "start": 38.5552,
      "duration": 0.0545,
      "velocity": 102,
      "chip": "ym2612"
    },
    {
      "channel": 0,
      "note": 77,
      "start": 38.5598,
      "duration": 0.1162,
      "velocity": 50,
      "chip": "ym2612"
    },
    {
      "channel": 1,
      "note": 63,
      "start": 38.5601,
      "duration": 0.383,
      "velocity": 99,
      "chip": "ym2612"
    },
    {
      "channel": 2,
      "note": 73,
      "start": 38.5602,
      "duration": 0.1161,
      "velocity": 102,
      "chip": "ym2612"
    },
    {
      "channel": 4,
      "note": 75,
      "start": 38.5605,
      "duration": 0.1162,
      "velocity": 50,
      "chip": "ym2612"
    },
    {
      "channel": 3,
      "note": 75,
      "start": 38.6099,
      "duration": 0.1331,
      "velocity": 102,
      "chip": "ym2612"
    },
    {
      "channel": 0,
      "note": 75,
      "start": 38.6762,
      "duration": 0.1332,
      "velocity": 50,
      "chip": "ym2612"
    },
    {
      "channel": 2,
      "note": 71,
      "start": 38.6765,
      "duration": 0.1332,
      "velocity": 102,
      "chip": "ym2612"
    },
    {
      "channel": 4,
      "note": 78,
      "start": 38.677,
      "duration": 0.1331,
      "velocity": 50,
      "chip": "ym2612"
    },
    {
      "channel": 3,
      "note": 73,
      "start": 38.7433,
      "duration": 0.1331,
      "velocity": 102,
      "chip": "ym2612"
    },
    {
      "channel": 0,
      "note": 73,
      "start": 38.8096,
      "duration": 0.1331,
      "velocity": 50,
      "chip": "ym2612"
    },
    {
      "channel": 2,
      "note": 70,
      "start": 38.8099,
      "duration": 0.1334,
      "velocity": 102,
      "chip": "ym2612"
    },
    {
      "channel": 4,
      "note": 77,
      "start": 38.8104,
      "duration": 0.1332,
      "velocity": 50,
      "chip": "ym2612"
    },
    {
      "channel": 3,
      "note": 71,
      "start": 38.8766,
      "duration": 0.1163,
      "velocity": 102,
      "chip": "ym2612"
    },
    {
      "channel": 0,
      "note": 70,
      "start": 38.943,
      "duration": 0.7856,
      "velocity": 50,
      "chip": "ym2612"
    },
    {
      "channel": 1,
      "note": 63,
      "start": 38.9432,
      "duration": 0.3829,
      "velocity": 99,
      "chip": "ym2612"
    },
    {
      "channel": 2,
      "note": 65,
      "start": 38.9434,
      "duration": 0.7856,
      "velocity": 102,
      "chip": "ym2612"
    },
    {
      "channel": 4,
      "note": 75,
      "start": 38.9438,
      "duration": 0.1159,
      "velocity": 50,
      "chip": "ym2612"
    },
    {
      "channel": 3,
      "note": 70,
      "start": 38.9932,
      "duration": 0.1331,
      "velocity": 102,
      "chip": "ym2612"
    },
    {
      "channel": 4,
      "note": 73,
      "start": 39.0599,
      "duration": 0.1332,
      "velocity": 50,
      "chip": "ym2612"
    },
    {
      "channel": 3,
      "note": 65,
      "start": 39.1265,
      "duration": 1.0555,
      "velocity": 87,
      "chip": "ym2612"
    },
    {
      "channel": 4,
      "note": 70,
      "start": 39.1933,
      "duration": 0.786,
      "velocity": 50,
      "chip": "ym2612"
    },
    {
      "channel": 1,
      "note": 63,
      "start": 39.3263,
      "duration": 0.0192,
      "velocity": 99,
      "chip": "ym2612"
    },
    {
      "channel": 1,
      "note": 63,
      "start": 39.3456,
      "duration": 0.1163,
      "velocity": 99,
      "chip": "ym2612"
    },
    {
      "channel": 1,
      "note": 70,
      "start": 39.4621,
      "duration": 0.2666,
      "velocity": 99,
      "chip": "ym2612"
    },
    {
      "channel": 0,
      "note": 70,
      "start": 39.7286,
      "duration": 0.4024,
      "velocity": 50,
      "chip": "ym2612"
    },
    {
      "channel": 1,
      "note": 73,
      "start": 39.7289,
      "duration": 0.1164,
      "velocity": 99,
      "chip": "ym2612"
    },
    {
      "channel": 2,
      "note": 65,
      "start": 39.729,
      "duration": 0.4033,
      "velocity": 97,
      "chip": "ym2612"
    },
    {
      "channel": 1,
      "note": 68,
      "start": 39.9787,
      "duration": 0.1423,
      "velocity": 99,
      "chip": "ym2612"
    },
    {
      "channel": 4,
      "note": 70,
      "start": 39.9793,
      "duration": 0.4022,
      "velocity": 50,
      "chip": "ym2612"
    },
    {
      "channel": 1,
      "note": 70,
      "start": 40.1213,
      "duration": 0.01,
      "velocity": 99,
      "chip": "ym2612"
    },
    {
      "channel": 0,
      "note": 71,
      "start": 40.1312,
      "duration": 0.1161,
      "velocity": 50,
      "chip": "ym2612"
    },
    {
      "channel": 1,
      "note": 59,
      "start": 40.1314,
      "duration": 0.3829,
      "velocity": 99,
      "chip": "ym2612"
    },
    {
      "channel": 2,
      "note": 68,
      "start": 40.1324,
      "duration": 0.1152,
      "velocity": 97,
      "chip": "ym2612"
    },
    {
      "channel": 3,
      "note": 68,
      "start": 40.1822,
      "duration": 0.1321,
      "velocity": 87,
      "chip": "ym2612"
    },
    {
      "channel": 0,
      "note": 70,
      "start": 40.2475,
      "duration": 0.1331,
      "velocity": 50,
      "chip": "ym2612"
    },
    {
      "channel": 2,
      "note": 66,
      "start": 40.2478,
      "duration": 0.1332,
      "velocity": 97,
      "chip": "ym2612"
    },
    {
      "channel": 3,
      "note": 66,
      "start": 40.3145,
      "duration": 0.1331,
      "velocity": 87,
      "chip": "ym2612"
    },
    {
      "channel": 0,
      "note": 71,
      "start": 40.3808,
      "duration": 0.1332,
      "velocity": 50,
      "chip": "ym2612"
    },
    {
      "channel": 2,
      "note": 68,
      "start": 40.3811,
      "duration": 0.1334,
      "velocity": 97,
      "chip": "ym2612"
    },
    {
      "channel": 4,
      "note": 71,
      "start": 40.3818,
      "duration": 0.1331,
      "velocity": 50,
      "chip": "ym2612"
    },
    {
      "channel": 3,
      "note": 68,
      "start": 40.4479,
      "duration": 0.1163,
      "velocity": 87,
      "chip": "ym2612"
    },
    {
      "channel": 0,
      "note": 75,
      "start": 40.5143,
      "duration": 0.3829,
      "velocity": 50,
      "chip": "ym2612"
    },
    {
      "channel": 1,
      "note": 59,
      "start": 40.5145,
      "duration": 0.383,
      "velocity": 99,
      "chip": "ym2612"
    },
    {
      "channel": 2,
      "note": 71,
      "start": 40.5147,
      "duration": 0.3831,
      "velocity": 97,
      "chip": "ym2612"
    },
    {
      "channel": 4,
      "note": 70,
      "start": 40.5151,
      "duration": 0.116,
      "velocity": 50,
      "chip": "ym2612"
    },
    {
      "channel": 3,
      "note": 71,
      "start": 40.5644,
      "duration": 0.3378,
      "velocity": 87,
      "chip": "ym2612"
    },
    {
      "channel": 4,
      "note": 71,
      "start": 40.6312,
      "duration": 0.1332,
      "velocity": 50,
      "chip": "ym2612"
    },
    {
      "channel": 4,
      "note": 75,
      "start": 40.7646,
      "duration": 0.153,
      "velocity": 50,
      "chip": "ym2612"
    },
    {
      "channel": 0,
      "note": 73,
      "start": 40.8974,
      "duration": 0.009,
      "velocity": 50,
      "chip": "ym2612"
    },
    {
      "channel": 1,
      "note": 59,
      "start": 40.8977,
      "duration": 0.0193,
      "velocity": 99,
      "chip": "ym2612"
    },
    {
      "channel": 2,
      "note": 70,
      "start": 40.8979,
      "duration": 0.0088,
      "velocity": 97,
      "chip": "ym2612"
    },
    {
      "channel": 3,
      "note": 70,
      "start": 40.9025,
      "duration": 0.0092,
      "velocity": 87,
      "chip": "ym2612"
    },
    {
      "channel": 0,
      "note": 71,
      "start": 40.9066,
      "duration": 0.0102,
      "velocity": 50,
      "chip": "ym2612"
    },
    {
      "channel": 2,
      "note": 68,
      "start": 40.9068,
      "duration": 0.0104,
      "velocity": 97,
      "chip": "ym2612"
    },
    {
      "channel": 3,
      "note": 68,
      "start": 40.9119,
      "duration": 0.0549,
      "velocity": 87,
      "chip": "ym2612"
    },
    {
      "channel": 0,
      "note": 73,
      "start": 40.9169,
      "duration": 0.1161,
      "velocity": 50,
      "chip": "ym2612"
    },
    {
      "channel": 1,
      "note": 61,
      "start": 40.9171,
      "duration": 0.3829,
      "velocity": 99,
      "chip": "ym2612"
    },
    {
      "channel": 2,
      "note": 70,
      "start": 40.9173,
      "duration": 0.1161,
      "velocity": 97,
      "chip": "ym2612"
    },
    {
      "channel": 4,
      "note": 73,
      "start": 40.9177,
      "duration": 0.1162,
      "velocity": 50,
      "chip": "ym2612"
    },
    {
      "channel": 3,
      "note": 70,
      "start": 40.967,
      "duration": 0.1332,
      "velocity": 87,
      "chip": "ym2612"
    },
    {
      "channel": 0,
      "note": 77,
      "start": 41.0333,
      "duration": 0.3831,
      "velocity": 50,
      "chip": "ym2612"
    },
    {
      "channel": 2,
      "note": 73,
      "start": 41.0337,
      "duration": 0.3832,
      "velocity": 97,
      "chip": "ym2612"
    },
    {
      "channel": 4,
      "note": 71,
      "start": 41.0341,
      "duration": 0.1329,
      "velocity": 50,
      "chip": "ym2612"
    },
    {
      "channel": 3,
      "note": 73,
      "start": 41.1004,
      "duration": 0.383,
      "velocity": 87,
      "chip": "ym2612"
    },
    {
      "channel": 4,
      "note": 73,
      "start": 41.1672,
      "duration": 0.1333,
      "velocity": 50,
      "chip": "ym2612"
    },
    {
      "channel": 1,
      "note": 61,
      "start": 41.3002,
      "duration": 0.3832,
      "velocity": 99,
      "chip": "ym2612"
    },
    {
      "channel": 4,
      "note": 77,
      "start": 41.3007,
      "duration": 0.3834,
      "velocity": 50,
      "chip": "ym2612"
    },
    {
      "channel": 0,
      "note": 75,
      "start": 41.4167,
      "duration": 0.1331,
      "velocity": 50,
      "chip": "ym2612"
    },
    {
      "channel": 2,
      "note": 71,
      "start": 41.417,
      "duration": 0.1331,
      "velocity": 97,
      "chip": "ym2612"
    },
    {
      "channel": 3,
      "note": 71,
      "start": 41.4837,
      "duration": 0.133,
      "velocity": 87,
      "chip": "ym2612"
    },
    {
      "channel": 0,
      "note": 77,
      "start": 41.55,
      "duration": 0.1331,
      "velocity": 50,
      "chip": "ym2612"
    },
    {
      "channel": 2,
      "note": 73,
      "start": 41.5503,
      "duration": 0.1334,
      "velocity": 97,
      "chip": "ym2612"
    },
    {
      "channel": 3,
      "note": 73,
      "start": 41.6169,
      "duration": 0.072,
      "velocity": 87,
      "chip": "ym2612"
    },
    {
      "channel": 0,
      "note": 78,
      "start": 41.6834,
      "duration": 0.0108,
      "velocity": 50,
      "chip": "ym2612"
    },
    {
      "channel": 1,
      "note": 73,
      "start": 41.6837,
      "duration": 0.0217,
      "velocity": 99,
      "chip": "ym2612"
    },
    {
      "channel": 2,
      "note": 75,
      "start": 41.6839,
      "duration": 0.0106,
      "velocity": 97,
      "chip": "ym2612"
    },
    {
      "channel": 4,
      "note": 75,
      "start": 41.6843,
      "duration": 0.0106,
      "velocity": 50,
      "chip": "ym2612"
    },
    {
      "channel": 3,
      "note": 75,
      "start": 41.6891,
      "duration": 0.0105,
      "velocity": 87,
      "chip": "ym2612"
    },
    {
      "channel": 0,
      "note": 80,
      "start": 41.6945,
      "duration": 0.0105,
      "velocity": 50,
      "chip": "ym2612"
    },
    {
      "channel": 2,
      "note": 77,
      "start": 41.6946,
      "duration": 0.011,
      "velocity": 97,
      "chip": "ym2612"
    },
    {
      "channel": 4,
      "note": 77,
      "start": 41.6951,
      "duration": 0.0109,
      "velocity": 50,
      "chip": "ym2612"
    },
    {
      "channel": 3,
      "note": 77,
      "start": 41.6999,
      "duration": 0.0554,
      "velocity": 87,
      "chip": "ym2612"
    },
    {
      "channel": 0,
      "note": 82,
      "start": 41.7053,
      "duration": 0.1164,
      "velocity": 50,
      "chip": "ym2612"
    },
    {
      "channel": 1,
      "note": 75,
      "start": 41.7056,
      "duration": 0.3662,
      "velocity": 99,
      "chip": "ym2612"
    },
    {
      "channel": 2,
      "note": 78,
      "start": 41.7058,
      "duration": 0.1162,
      "velocity": 97,
      "chip": "ym2612"
    },
    {
      "channel": 4,
      "note": 78,
      "start": 41.7061,
      "duration": 0.1163,
      "velocity": 50,
      "chip": "ym2612"
    },
    {
      "channel": 3,
      "note": 78,
      "start": 41.7555,
      "duration": 0.1332,
      "velocity": 87,
      "chip": "ym2612"
    },
    {
      "channel": 0,
      "note": 87,
      "start": 41.8219,
      "duration": 0.1331,
      "velocity": 50,
      "chip": "ym2612"
    },
    {
      "channel": 2,
      "note": 80,
      "start": 41.8222,
      "duration": 0.1331,
      "velocity": 97,
      "chip": "ym2612"
    },
    {
      "channel": 4,
      "note": 80,
      "start": 41.8227,
      "duration": 0.1331,
      "velocity": 50,
      "chip": "ym2612"
    },
    {
      "channel": 3,
      "note": 80,
      "start": 41.8889,
      "duration": 0.1162,
      "velocity": 87,
      "chip": "ym2612"
    },
    {
      "channel": 0,
      "note": 92,
      "start": 41.9553,
      "duration": 0.1162,
      "velocity": 50,
      "chip": "ym2612"
    },
    {
      "channel": 2,
      "note": 82,
      "start": 41.9555,
      "duration": 0.1165,
      "velocity": 97,
      "chip": "ym2612"
    },
    {
      "channel": 4,
      "note": 82,
      "start": 41.9559,
      "duration": 0.1166,
      "velocity": 50,
      "chip": "ym2612"
    },
    {
      "channel": 3,
      "note": 82,
      "start": 42.0054,
      "duration": 0.1331,
      "velocity": 87,
      "chip": "ym2612"
    },
    {
      "channel": 0,
      "note": 94,
      "start": 42.0717,
      "duration": 1.132,
      "velocity": 50,
      "chip": "ym2612"
    },
    {
      "channel": 1,
      "note": 63,
      "start": 42.072,
      "duration": 0.3829,
      "velocity": 99,
      "chip": "ym2612"
    },
    {
      "channel": 2,
      "note": 87,
      "start": 42.0723,
      "duration": 0.1328,
      "velocity": 97,
      "chip": "ym2612"
    },
    {
      "channel": 4,
      "note": 87,
      "start": 42.0727,
      "duration": 0.1324,
      "velocity": 50,
      "chip": "ym2612"
    },
    {
      "channel": 3,
      "note": 87,
      "start": 42.1387,
      "duration": 0.1161,
      "velocity": 87,
      "chip": "ym2612"
    },
    {
      "channel": 4,
      "note": 92,
      "start": 42.2054,
      "duration": 0.1161,
      "velocity": 50,
      "chip": "ym2612"
    },
    {
      "channel": 4,
      "note": 94,
      "start": 42.3217,
      "duration": 1.1317,
      "velocity": 50,
      "chip": "ym2612"
    },
    {
      "channel": 1,
      "note": 63,
      "start": 42.455,
      "duration": 0.2494,
      "velocity": 99,
      "chip": "ym2612"
    },
    {
      "channel": 1,
      "note": 75,
      "start": 42.7046,
      "duration": 0.2495,
      "velocity": 99,
      "chip": "ym2612"
    },
    {
      "channel": 1,
      "note": 63,
      "start": 42.9543,
      "duration": 0.2496,
      "velocity": 99,
      "chip": "ym2612"
    },
    {
      "channel": 0,
      "note": 93,
      "start": 43.2037,
      "duration": 0.4998,
      "velocity": 102,
      "chip": "ym2612"
    },
    {
      "channel": 1,
      "note": 63,
      "start": 43.3201,
      "duration": 0.3837,
      "velocity": 99,
      "chip": "ym2612"
    },
    {
      "channel": 4,
      "note": 93,
      "start": 43.4535,
      "duration": 0.5011,
      "velocity": 102,
      "chip": "ym2612"
    },
    {
      "channel": 0,
      "note": 79,
      "start": 43.7037,
      "duration": 0.9989,
      "velocity": 102,
      "chip": "ym2612"
    },
    {
      "channel": 1,
      "note": 75,
      "start": 43.7039,
      "duration": 0.2492,
      "velocity": 99,
      "chip": "ym2612"
    },
    {
      "channel": 1,
      "note": 63,
      "start": 43.9532,
      "duration": 0.1166,
      "velocity": 99,
      "chip": "ym2612"
    },
    {
      "channel": 2,
      "note": 75,
      "start": 43.9534,
      "duration": 0.2498,
      "velocity": 94,
      "chip": "ym2612"
    },
    {
      "channel": 3,
      "note": 75,
      "start": 43.9536,
      "duration": 0.2497,
      "velocity": 97,
      "chip": "ym2612"
    },
    {
      "channel": 4,
      "note": 79,
      "start": 43.9547,
      "duration": 0.9987,
      "velocity": 102,
      "chip": "ym2612"
    },
    {
      "channel": 1,
      "note": 63,
      "start": 44.07,
      "duration": 0.1332,
      "velocity": 99,
      "chip": "ym2612"
    },
    {
      "channel": 2,
      "note": 75,
      "start": 44.3199,
      "duration": 0.1331,
      "velocity": 94,
      "chip": "ym2612"
    },
    {
      "channel": 3,
      "note": 75,
      "start": 44.3203,
      "duration": 0.1328,
      "velocity": 97,
      "chip": "ym2612"
    },
    {
      "channel": 0,
      "note": 79,
      "start": 44.7026,
      "duration": 0.9996,
      "velocity": 102,
      "chip": "ym2612"
    },
    {
      "channel": 1,
      "note": 75,
      "start": 44.7029,
      "duration": 0.2498,
      "velocity": 99,
      "chip": "ym2612"
    },
    {
      "channel": 1,
      "note": 63,
      "start": 44.9528,
      "duration": 0.1167,
      "velocity": 99,
      "chip": "ym2612"
    },
    {
      "channel": 2,
      "note": 75,
      "start": 44.9531,
      "duration": 0.2499,
      "velocity": 94,
      "chip": "ym2612"
    },
    {
      "channel": 3,
      "note": 75,
      "start": 44.9533,
      "duration": 0.2498,
      "velocity": 97,
      "chip": "ym2612"
    },
    {
      "channel": 4,
      "note": 79,
      "start": 44.9535,
      "duration": 0.9996,
      "velocity": 102,
      "chip": "ym2612"
    },
    {
      "channel": 1,
      "note": 63,
      "start": 45.0697,
      "duration": 0.1332,
      "velocity": 99,
      "chip": "ym2612"
    },
    {
      "channel": 2,
      "note": 75,
      "start": 45.3195,
      "duration": 0.1331,
      "velocity": 94,
      "chip": "ym2612"
    },
    {
      "channel": 3,
      "note": 75,
      "start": 45.3199,
      "duration": 0.1328,
      "velocity": 97,
      "chip": "ym2612"
    },
    {
      "channel": 0,
      "note": 78,
      "start": 45.7024,
      "duration": 0.9993,
      "velocity": 102,
      "chip": "ym2612"
    },
    {
      "channel": 1,
      "note": 75,
      "start": 45.7027,
      "duration": 0.2497,
      "velocity": 99,
      "chip": "ym2612"
    },
    {
      "channel": 1,
      "note": 63,
      "start": 45.9525,
      "duration": 0.1165,
      "velocity": 99,
      "chip": "ym2612"
    },
    {
      "channel": 2,
      "note": 75,
      "start": 45.9528,
      "duration": 0.2498,
      "velocity": 94,
      "chip": "ym2612"
    },
    {
      "channel": 3,
      "note": 75,
      "start": 45.953,
      "duration": 0.2498,
      "velocity": 97,
      "chip": "ym2612"
    },
    {
      "channel": 4,
      "note": 78,
      "start": 45.9532,
      "duration": 0.9992,
      "velocity": 102,
      "chip": "ym2612"
    },
    {
      "channel": 1,
      "note": 63,
      "start": 46.0693,
      "duration": 0.1333,
      "velocity": 99,
      "chip": "ym2612"
    },
    {
      "channel": 2,
      "note": 75,
      "start": 46.3191,
      "duration": 0.1332,
      "velocity": 94,
      "chip": "ym2612"
    },
    {
      "channel": 3,
      "note": 75,
      "start": 46.3195,
      "duration": 0.1328,
      "velocity": 97,
      "chip": "ym2612"
    },
    {
      "channel": 0,
      "note": 78,
      "start": 46.7018,
      "duration": 0.9993,
      "velocity": 102,
      "chip": "ym2612"
    },
    {
      "channel": 1,
      "note": 75,
      "start": 46.702,
      "duration": 0.2498,
      "velocity": 99,
      "chip": "ym2612"
    },
    {
      "channel": 1,
      "note": 63,
      "start": 46.9519,
      "duration": 0.1165,
      "velocity": 99,
      "chip": "ym2612"
    },
    {
      "channel": 2,
      "note": 75,
      "start": 46.9521,
      "duration": 0.2498,
      "velocity": 94,
      "chip": "ym2612"
    },
    {
      "channel": 3,
      "note": 75,
      "start": 46.9523,
      "duration": 0.2497,
      "velocity": 97,
      "chip": "ym2612"
    },
    {
      "channel": 4,
      "note": 78,
      "start": 46.9525,
      "duration": 0.9994,
      "velocity": 102,
      "chip": "ym2612"
    },
    {
      "channel": 1,
      "note": 63,
      "start": 47.0685,
      "duration": 0.1332,
      "velocity": 99,
      "chip": "ym2612"
    },
    {
      "channel": 1,
      "note": 63,
      "start": 47.2019,
      "duration": 0.1162,
      "velocity": 99,
      "chip": "ym2612"
    },
    {
      "channel": 1,
      "note": 63,
      "start": 47.3183,
      "duration": 0.1332,
      "velocity": 99,
      "chip": "ym2612"
    },
    {
      "channel": 2,
      "note": 75,
      "start": 47.3186,
      "duration": 0.1332,
      "velocity": 94,
      "chip": "ym2612"
    },
    {
      "channel": 3,
      "note": 75,
      "start": 47.319,
      "duration": 0.1329,
      "velocity": 97,
      "chip": "ym2612"
    },
    {
      "channel": 1,
      "note": 63,
      "start": 47.4517,
      "duration": 0.1161,
      "velocity": 99,
      "chip": "ym2612"
    },
    {
      "channel": 1,
      "note": 63,
      "start": 47.568,
      "duration": 0.1334,
      "velocity": 99,
      "chip": "ym2612"
    },
    {
      "channel": 0,
      "note": 79,
      "start": 47.7014,
      "duration": 0.9996,
      "velocity": 102,
      "chip": "ym2612"
    },
    {
      "channel": 1,
      "note": 63,
      "start": 47.7015,
      "duration": 0.1163,
      "velocity": 99,
      "chip": "ym2612"
    },
    {
      "channel": 1,
      "note": 63,
      "start": 47.8181,
      "duration": 0.2498,
      "velocity": 99,
      "chip": "ym2612"
    },
    {
      "channel": 2,
      "note": 75,
      "start": 47.9516,
      "duration": 0.2498,
      "velocity": 94,
      "chip": "ym2612"
    },
    {
      "channel": 3,
      "note": 75,
      "start": 47.9518,
      "duration": 0.2496,
      "velocity": 97,
      "chip": "ym2612"
    },
    {
      "channel": 4,
      "note": 79,
      "start": 47.952,
      "duration": 0.9995,
      "velocity": 102,
      "chip": "ym2612"
    },
    {
      "channel": 1,
      "note": 63,
      "start": 48.0681,
      "duration": 0.2496,
      "velocity": 99,
      "chip": "ym2612"
    },
    {
      "channel": 1,
      "note": 63,
      "start": 48.318,
      "duration": 0.2496,
      "velocity": 99,
      "chip": "ym2612"
    },
    {
      "channel": 2,
      "note": 75,
      "start": 48.3183,
      "duration": 0.1328,
      "velocity": 94,
      "chip": "ym2612"
    },
    {
      "channel": 3,
      "note": 75,
      "start": 48.3186,
      "duration": 0.1326,
      "velocity": 97,
      "chip": "ym2612"
    },
    {
      "channel": 1,
      "note": 63,
      "start": 48.5677,
      "duration": 0.1333,
      "velocity": 99,
      "chip": "ym2612"
    },
    {
      "channel": 0,
      "note": 79,
      "start": 48.701,
      "duration": 0.75,
      "velocity": 102,
      "chip": "ym2612"
    },
    {
      "channel": 1,
      "note": 63,
      "start": 48.7012,
      "duration": 0.2495,
      "velocity": 99,
      "chip": "ym2612"
    },
    {
      "channel": 1,
      "note": 75,
      "start": 48.9509,
      "duration": 0.25,
      "velocity": 99,
      "chip": "ym2612"
    },
    {
      "channel": 2,
      "note": 75,
      "start": 48.9512,
      "duration": 0.25,
      "velocity": 94,
      "chip": "ym2612"
    },
    {
      "channel": 3,
      "note": 75,
      "start": 48.9514,
      "duration": 0.2499,
      "velocity": 97,
      "chip": "ym2612"
    },
    {
      "channel": 4,
      "note": 79,
      "start": 48.9515,
      "duration": 0.7548,
      "velocity": 102,
      "chip": "ym2612"
    },
    {
      "channel": 1,
      "note": 73,
      "start": 49.201,
      "duration": 0.2499,
      "velocity": 99,
      "chip": "ym2612"
    },
    {
      "channel": 0,
      "note": 78,
      "start": 49.4509,
      "duration": 0.0166,
      "velocity": 102,
      "chip": "ym2612"
    },
    {
      "channel": 1,
      "note": 63,
      "start": 49.4511,
      "duration": 0.252,
      "velocity": 97,
      "chip": "ym2612"
    },
    {
      "channel": 2,
      "note": 75,
      "start": 49.4514,
      "duration": 0.2529,
      "velocity": 97,
      "chip": "ym2612"
    },
    {
      "channel": 3,
      "note": 75,
      "start": 49.4516,
      "duration": 0.2541,
      "velocity": 97,
      "chip": "ym2612"
    },
    {
      "channel": 0,
      "note": 77,
      "start": 49.4676,
      "duration": 0.0501,
      "velocity": 102,
      "chip": "ym2612"
    },
    {
      "channel": 0,
      "note": 76,
      "start": 49.5177,
      "duration": 0.0499,
      "velocity": 102,
      "chip": "ym2612"
    },
    {
      "channel": 0,
      "note": 75,
      "start": 49.5676,
      "duration": 0.0334,
      "velocity": 102,
      "chip": "ym2612"
    },
    {
      "channel": 0,
      "note": 74,
      "start": 49.601,
      "duration": 0.0499,
      "velocity": 102,
      "chip": "ym2612"
    },
    {
      "channel": 0,
      "note": 73,
      "start": 49.6509,
      "duration": 0.051,
      "velocity": 106,
      "chip": "ym2612"
    },
    {
      "channel": 0,
      "note": 68,
      "start": 49.7021,
      "duration": 0.2653,
      "velocity": 106,
      "chip": "ym2612"
    },
    {
      "channel": 4,
      "note": 78,
      "start": 49.7063,
      "duration": 0.0282,
      "velocity": 102,
      "chip": "ym2612"
    },
    {
      "channel": 4,
      "note": 77,
      "start": 49.7344,
      "duration": 0.0502,
      "velocity": 102,
      "chip": "ym2612"
    },
    {
      "channel": 4,
      "note": 76,
      "start": 49.7846,
      "duration": 0.0498,
      "velocity": 102,
      "chip": "ym2612"
    },
    {
      "channel": 4,
      "note": 75,
      "start": 49.8344,
      "duration": 0.0335,
      "velocity": 102,
      "chip": "ym2612"
    },
    {
      "channel": 4,
      "note": 74,
      "start": 49.868,
      "duration": 0.0498,
      "velocity": 102,
      "chip": "ym2612"
    },
    {
      "channel": 4,
      "note": 73,
      "start": 49.9178,
      "duration": 0.0513,
      "velocity": 106,
      "chip": "ym2612"
    },
    {
      "channel": 0,
      "note": 70,
      "start": 49.9676,
      "duration": 0.083,
      "velocity": 106,
      "chip": "ym2612"
    },
    {
      "channel": 4,
      "note": 68,
      "start": 49.9692,
      "duration": 0.2653,
      "velocity": 106,
      "chip": "ym2612"
    },
    {
      "channel": 0,
      "note": 71,
      "start": 50.0509,
      "duration": 0.0832,
      "velocity": 106,
      "chip": "ym2612"
    },
    {
      "channel": 0,
      "note": 73,
      "start": 50.1343,
      "duration": 0.0998,
      "velocity": 106,
      "chip": "ym2612"
    },
    {
      "channel": 0,
      "note": 75,
      "start": 50.2343,
      "duration": 0.1664,
      "velocity": 106,
      "chip": "ym2612"
    },
    {
      "channel": 4,
      "note": 70,
      "start": 50.2347,
      "duration": 0.083,
      "velocity": 106,
      "chip": "ym2612"
    },
    {
      "channel": 4,
      "note": 71,
      "start": 50.3179,
      "duration": 0.0832,
      "velocity": 106,
      "chip": "ym2612"
    },
    {
      "channel": 4,
      "note": 73,
      "start": 50.4013,
      "duration": 16.5313,
      "velocity": 106,
      "chip": "ym2612"
    },
    {
      "channel": 2,
      "note": 75,
      "start": 50.5011,
      "duration": 16.4315,
      "velocity": 97,
      "chip": "ym2612"
    }
  ]
}