{
  "track_name": "12 - Searching for Princess Claire",
  "duration_sec": 141.797,
  "sample_rate": 44100,
  "note_count": 2477,
  "unique_pitches": 65,
  "pitch_range": 64,
  "avg_note_duration": 0.0349,
  "reconstruction_stats": {
    "notes_reconstructed": 2477,
    "keyon_events": 2477,
    "keyoff_events": 2477,
    "orphan_keyons": 0,
    "unique_pitches": 65,
    "pitch_range": 64,
    "avg_duration_sec": 0.0349
  },
  "metadata": {
    "source": "S\\Shining in the Darkness\\12 - Searching for Princess Claire.vgz"
  },
  "notes": [
    {
      "channel": 0,
      "note": 52,
      "start": 0.0462,
      "duration": 0.4824,
      "velocity": 86,
      "chip": "ym2612"
    },
    {
      "channel": 1,
      "note": 52,
      "start": 0.0501,
      "duration": 0.2009,
      "velocity": 82,
      "chip": "ym2612"
    },
    {
      "channel": 2,
      "note": 67,
      "start": 0.0539,
      "duration": 0.4537,
      "velocity": 78,
      "chip": "ym2612"
    },
    {
      "channel": 3,
      "note": 66,
      "start": 0.0611,
      "duration": 0.4468,
      "velocity": 78,
      "chip": "ym2612"
    },
    {
      "channel": 1,
      "note": 54,
      "start": 0.5505,
      "duration": 0.2134,
      "velocity": 82,
      "chip": "ym2612"
    },
    {
      "channel": 2,
      "note": 69,
      "start": 0.551,
      "duration": 0.4695,
      "velocity": 78,
      "chip": "ym2612"
    },
    {
      "channel": 3,
      "note": 64,
      "start": 0.5516,
      "duration": 0.4692,
      "velocity": 78,
      "chip": "ym2612"
    },
    {
      "channel": 1,
      "note": 55,
      "start": 1.0632,
      "duration": 0.2134,
      "velocity": 82,
      "chip": "ym2612"
    },
    {
      "channel": 2,
      "note": 70,
      "start": 1.0638,
      "duration": 0.4696,
      "velocity": 78,
      "chip": "ym2612"
    },
    {
      "channel": 3,
      "note": 66,
      "start": 1.0644,
      "duration": 0.4693,
      "velocity": 78,
      "chip": "ym2612"
    },
    {
      "channel": 0,
      "note": 52,
      "start": 1.5757,
      "duration": 0.0085,
      "velocity": 86,
      "chip": "ym2612"
    },
    {
      "channel": 0,
      "note": 52,
      "start": 1.5875,
      "duration": 0.0082,
      "velocity": 86,
      "chip": "ym2612"
    },
    {
      "channel": 0,
      "note": 52,
      "start": 1.5984,
      "duration": 0.012,
      "velocity": 86,
      "chip": "ym2612"
    },
    {
      "channel": 0,
      "note": 52,
      "start": 1.6141,
      "duration": 0.0957,
      "velocity": 86,
      "chip": "ym2612"
    },
    {
      "channel": 1,
      "note": 57,
      "start": 1.7316,
      "duration": 0.0852,
      "velocity": 82,
      "chip": "ym2612"
    },
    {
      "channel": 2,
      "note": 72,
      "start": 1.7322,
      "duration": 0.2132,
      "velocity": 78,
      "chip": "ym2612"
    },
    {
      "channel": 3,
      "note": 67,
      "start": 1.7328,
      "duration": 0.2129,
      "velocity": 78,
      "chip": "ym2612"
    },
    {
      "channel": 1,
      "note": 58,
      "start": 1.988,
      "duration": 0.0853,
      "velocity": 82,
      "chip": "ym2612"
    },
    {
      "channel": 2,
      "note": 73,
      "start": 1.9885,
      "duration": 0.2131,
      "velocity": 78,
      "chip": "ym2612"
    },
    {
      "channel": 3,
      "note": 69,
      "start": 1.9892,
      "duration": 0.2128,
      "velocity": 78,
      "chip": "ym2612"
    },
    {
      "channel": 0,
      "note": 52,
      "start": 2.2442,
      "duration": 0.0296,
      "velocity": 86,
      "chip": "ym2612"
    },
    {
      "channel": 0,
      "note": 57,
      "start": 2.2769,
      "duration": 0.0924,
      "velocity": 86,
      "chip": "ym2612"
    },
    {
      "channel": 0,
      "note": 52,
      "start": 2.3911,
      "duration": 0.0351,
      "velocity": 86,
      "chip": "ym2612"
    },
    {
      "channel": 0,
      "note": 57,
      "start": 2.4291,
      "duration": 0.0956,
      "velocity": 86,
      "chip": "ym2612"
    },
    {
      "channel": 2,
      "note": 69,
      "start": 2.55,
      "duration": 0.082,
      "velocity": 104,
      "chip": "ym2612"
    },
    {
      "channel": 2,
      "note": 70,
      "start": 2.9313,
      "duration": 0.0855,
      "velocity": 104,
      "chip": "ym2612"
    },
    {
      "channel": 1,
      "note": 50,
      "start": 3.0632,
      "duration": 0.0256,
      "velocity": 82,
      "chip": "ym2612"
    },
    {
      "channel": 2,
      "note": 70,
      "start": 3.0638,
      "duration": 0.2474,
      "velocity": 104,
      "chip": "ym2612"
    },
    {
      "channel": 3,
      "note": 70,
      "start": 3.0693,
      "duration": 0.2422,
      "velocity": 104,
      "chip": "ym2612"
    },
    {
      "channel": 0,
      "note": 98,
      "start": 3.1713,
      "duration": 0.0034,
      "velocity": 98,
      "chip": "ym2612"
    },
    {
      "channel": 4,
      "note": 52,
      "start": 3.1727,
      "duration": 0.0001,
      "velocity": 98,
      "chip": "ym2612"
    },
    {
      "channel": 0,
      "note": 100,
      "start": 3.1749,
      "duration": 0.0031,
      "velocity": 98,
      "chip": "ym2612"
    },
    {
      "channel": 4,
      "note": 86,
      "start": 3.1763,
      "duration": 0.0001,
      "velocity": 98,
      "chip": "ym2612"
    },
    {
      "channel": 0,
      "note": 101,
      "start": 3.1782,
      "duration": 0.0031,
      "velocity": 98,
      "chip": "ym2612"
    },
    {
      "channel": 4,
      "note": 88,
      "start": 3.1796,
      "duration": 0.0001,
      "velocity": 98,
      "chip": "ym2612"
    },
    {
      "channel": 0,
      "note": 103,
      "start": 3.1815,
      "duration": 0.0034,
      "velocity": 98,
      "chip": "ym2612"
    },
    {
      "channel": 4,
      "note": 89,
      "start": 3.1829,
      "duration": 0.0001,
      "velocity": 98,
      "chip": "ym2612"
    },
    {
      "channel": 0,
      "note": 105,
      "start": 3.1851,
      "duration": 0.0031,
      "velocity": 98,
      "chip": "ym2612"
    },
    {
      "channel": 4,
      "note": 91,
      "start": 3.1865,
      "duration": 0.0001,
      "velocity": 98,
      "chip": "ym2612"
    },
    {
      "channel": 0,
      "note": 107,
      "start": 3.1885,
      "duration": 0.0037,
      "velocity": 98,
      "chip": "ym2612"
    },
    {
      "channel": 4,
      "note": 93,
      "start": 3.1899,
      "duration": 0.0002,
      "velocity": 98,
      "chip": "ym2612"
    },
    {
      "channel": 0,
      "note": 109,
      "start": 3.1923,
      "duration": 0.0076,
      "velocity": 98,
      "chip": "ym2612"
    },
    {
      "channel": 1,
      "note": 50,
      "start": 3.1929,
      "duration": 0.0209,
      "velocity": 82,
      "chip": "ym2612"
    },
    {
      "channel": 4,
      "note": 95,
      "start": 3.1941,
      "duration": 0.0002,
      "velocity": 98,
      "chip": "ym2612"
    },
    {
      "channel": 0,
      "note": 110,
      "start": 3.2,
      "duration": 0.0134,
      "velocity": 98,
      "chip": "ym2612"
    },
    {
      "channel": 4,
      "note": 97,
      "start": 3.2015,
      "duration": 0.0104,
      "velocity": 98,
      "chip": "ym2612"
    },
    {
      "channel": 1,
      "note": 52,
      "start": 3.3164,
      "duration": 0.0167,
      "velocity": 82,
      "chip": "ym2612"
    },
    {
      "channel": 2,
      "note": 69,
      "start": 3.317,
      "duration": 0.0112,
      "velocity": 104,
      "chip": "ym2612"
    },
    {
      "channel": 3,
      "note": 65,
      "start": 3.3176,
      "duration": 0.0108,
      "velocity": 104,
      "chip": "ym2612"
    },
    {
      "channel": 1,
      "note": 52,
      "start": 3.4374,
      "duration": 0.0171,
      "velocity": 82,
      "chip": "ym2612"
    },
    {
      "channel": 2,
      "note": 69,
      "start": 3.4379,
      "duration": 0.0116,
      "velocity": 104,
      "chip": "ym2612"
    },
    {
      "channel": 3,
      "note": 67,
      "start": 3.4386,
      "duration": 0.0113,
      "velocity": 104,
      "chip": "ym2612"
    },
    {
      "channel": 2,
      "note": 74,
      "start": 3.5416,
      "duration": 0.0311,
      "velocity": 104,
      "chip": "ym2612"
    },
    {
      "channel": 3,
      "note": 67,
      "start": 3.5422,
      "duration": 0.0308,
      "velocity": 104,
      "chip": "ym2612"
    },
    {
      "channel": 1,
      "note": 53,
      "start": 3.6109,
      "duration": 0.0201,
      "velocity": 82,
      "chip": "ym2612"
    },
    {
      "channel": 2,
      "note": 74,
      "start": 3.6115,
      "duration": 0.2427,
      "velocity": 104,
      "chip": "ym2612"
    },
    {
      "channel": 3,
      "note": 67,
      "start": 3.6121,
      "duration": 0.2424,
      "velocity": 104,
      "chip": "ym2612"
    },
    {
      "channel": 0,
      "note": 98,
      "start": 3.7178,
      "duration": 0.0034,
      "velocity": 98,
      "chip": "ym2612"
    },
    {
      "channel": 4,
      "note": 98,
      "start": 3.7192,
      "duration": 0.0001,
      "velocity": 98,
      "chip": "ym2612"
    },
    {
      "channel": 0,
      "note": 100,
      "start": 3.7214,
      "duration": 0.003,
      "velocity": 98,
      "chip": "ym2612"
    },
    {
      "channel": 4,
      "note": 86,
      "start": 3.7228,
      "duration": 0.0001,
      "velocity": 98,
      "chip": "ym2612"
    },
    {
      "channel": 0,
      "note": 101,
      "start": 3.7246,
      "duration": 0.003,
      "velocity": 98,
      "chip": "ym2612"
    },
    {
      "channel": 4,
      "note": 88,
      "start": 3.726,
      "duration": 0.0001,
      "velocity": 98,
      "chip": "ym2612"
    },
    {
      "channel": 0,
      "note": 103,
      "start": 3.728,
      "duration": 0.0034,
      "velocity": 98,
      "chip": "ym2612"
    },
    {
      "channel": 4,
      "note": 89,
      "start": 3.7293,
      "duration": 0.0001,
      "velocity": 98,
      "chip": "ym2612"
    },
    {
      "channel": 0,
      "note": 105,
      "start": 3.7316,
      "duration": 0.0031,
      "velocity": 98,
      "chip": "ym2612"
    },
    {
      "channel": 4,
      "note": 91,
      "start": 3.733,
      "duration": 0.0001,
      "velocity": 98,
      "chip": "ym2612"
    },
    {
      "channel": 0,
      "note": 107,
      "start": 3.7349,
      "duration": 0.0032,
      "velocity": 98,
      "chip": "ym2612"
    },
    {
      "channel": 4,
      "note": 93,
      "start": 3.7364,
      "duration": 0.0002,
      "velocity": 98,
      "chip": "ym2612"
    },
    {
      "channel": 0,
      "note": 109,
      "start": 3.7383,
      "duration": 0.0042,
      "velocity": 98,
      "chip": "ym2612"
    },
    {
      "channel": 1,
      "note": 53,
      "start": 3.7389,
      "duration": 0.0177,
      "velocity": 82,
      "chip": "ym2612"
    },
    {
      "channel": 4,
      "note": 95,
      "start": 3.7401,
      "duration": 0.0001,
      "velocity": 98,
      "chip": "ym2612"
    },
    {
      "channel": 0,
      "note": 110,
      "start": 3.7427,
      "duration": 0.0134,
      "velocity": 98,
      "chip": "ym2612"
    },
    {
      "channel": 4,
      "note": 97,
      "start": 3.7442,
      "duration": 0.0104,
      "velocity": 98,
      "chip": "ym2612"
    },
    {
      "channel": 1,
      "note": 52,
      "start": 3.8594,
      "duration": 0.0166,
      "velocity": 82,
      "chip": "ym2612"
    },
    {
      "channel": 2,
      "note": 69,
      "start": 3.86,
      "duration": 0.0111,
      "velocity": 104,
      "chip": "ym2612"
    },
    {
      "channel": 3,
      "note": 69,
      "start": 3.8606,
      "duration": 0.0108,
      "velocity": 104,
      "chip": "ym2612"
    },
    {
      "channel": 1,
      "note": 52,
      "start": 3.9829,
      "duration": 0.0189,
      "velocity": 82,
      "chip": "ym2612"
    },
    {
      "channel": 2,
      "note": 69,
      "start": 3.9834,
      "duration": 0.0116,
      "velocity": 104,
      "chip": "ym2612"
    },
    {
      "channel": 3,
      "note": 67,
      "start": 3.984,
      "duration": 0.0113,
      "velocity": 104,
      "chip": "ym2612"
    },
    {
      "channel": 2,
      "note": 76,
      "start": 4.0404,
      "duration": 0.0112,
      "velocity": 104,
      "chip": "ym2612"
    },
    {
      "channel": 3,
      "note": 67,
      "start": 4.0411,
      "duration": 0.0109,
      "velocity": 104,
      "chip": "ym2612"
    },
    {
      "channel": 1,
      "note": 50,
      "start": 4.0572,
      "duration": 0.017,
      "velocity": 82,
      "chip": "ym2612"
    },
    {
      "channel": 2,
      "note": 77,
      "start": 4.0578,
      "duration": 0.0115,
      "velocity": 104,
      "chip": "ym2612"
    },
    {
      "channel": 3,
      "note": 67,
      "start": 4.0584,
      "duration": 0.0112,
      "velocity": 104,
      "chip": "ym2612"
    },
    {
      "channel": 1,
      "note": 50,
      "start": 4.1768,
      "duration": 0.0169,
      "velocity": 82,
      "chip": "ym2612"
    },
    {
      "channel": 2,
      "note": 81,
      "start": 4.1773,
      "duration": 0.2203,
      "velocity": 104,
      "chip": "ym2612"
    },
    {
      "channel": 3,
      "note": 65,
      "start": 4.1779,
      "duration": 0.2201,
      "velocity": 104,
      "chip": "ym2612"
    },
    {
      "channel": 1,
      "note": 48,
      "start": 4.2973,
      "duration": 0.0169,
      "velocity": 82,
      "chip": "ym2612"
    },
    {
      "channel": 1,
      "note": 48,
      "start": 4.4202,
      "duration": 0.017,
      "velocity": 82,
      "chip": "ym2612"
    },
    {
      "channel": 2,
      "note": 81,
      "start": 4.4207,
      "duration": 0.1348,
      "velocity": 104,
      "chip": "ym2612"
    },
    {
      "channel": 3,
      "note": 74,
      "start": 4.4213,
      "duration": 0.1344,
      "velocity": 104,
      "chip": "ym2612"
    },
    {
      "channel": 0,
      "note": 83,
      "start": 4.5931,
      "duration": 0.0206,
      "velocity": 98,
      "chip": "ym2612"
    },
    {
      "channel": 1,
      "note": 47,
      "start": 4.5937,
      "duration": 0.0178,
      "velocity": 82,
      "chip": "ym2612"
    },
    {
      "channel": 2,
      "note": 79,
      "start": 4.5942,
      "duration": 0.3688,
      "velocity": 104,
      "chip": "ym2612"
    },
    {
      "channel": 3,
      "note": 74,
      "start": 4.5949,
      "duration": 0.3685,
      "velocity": 104,
      "chip": "ym2612"
    },
    {
      "channel": 4,
      "note": 98,
      "start": 4.5956,
      "duration": 0.0167,
      "velocity": 98,
      "chip": "ym2612"
    },
    {
      "channel": 0,
      "note": 79,
      "start": 4.6815,
      "duration": 0.0119,
      "velocity": 98,
      "chip": "ym2612"
    },
    {
      "channel": 4,
      "note": 79,
      "start": 4.6829,
      "duration": 0.009,
      "velocity": 98,
      "chip": "ym2612"
    },
    {
      "channel": 0,
      "note": 79,
      "start": 4.7017,
      "duration": 0.0083,
      "velocity": 98,
      "chip": "ym2612"
    },
    {
      "channel": 4,
      "note": 74,
      "start": 4.7031,
      "duration": 0.0055,
      "velocity": 98,
      "chip": "ym2612"
    },
    {
      "channel": 1,
      "note": 47,
      "start": 4.7162,
      "duration": 0.0169,
      "velocity": 82,
      "chip": "ym2612"
    },
    {
      "channel": 0,
      "note": 79,
      "start": 4.7189,
      "duration": 0.0167,
      "velocity": 98,
      "chip": "ym2612"
    },
    {
      "channel": 4,
      "note": 74,
      "start": 4.7204,
      "duration": 0.0136,
      "velocity": 98,
      "chip": "ym2612"
    },
    {
      "channel": 0,
      "note": 83,
      "start": 4.8041,
      "duration": 0.0204,
      "velocity": 98,
      "chip": "ym2612"
    },
    {
      "channel": 4,
      "note": 74,
      "start": 4.8055,
      "duration": 0.0173,
      "velocity": 98,
      "chip": "ym2612"
    },
    {
      "channel": 1,
      "note": 55,
      "start": 4.8391,
      "duration": 0.0178,
      "velocity": 82,
      "chip": "ym2612"
    },
    {
      "channel": 0,
      "note": 86,
      "start": 4.8419,
      "duration": 0.0117,
      "velocity": 98,
      "chip": "ym2612"
    },
    {
      "channel": 4,
      "note": 79,
      "start": 4.8434,
      "duration": 0.0057,
      "velocity": 98,
      "chip": "ym2612"
    },
    {
      "channel": 4,
      "note": 83,
      "start": 4.852,
      "duration": 0.0058,
      "velocity": 98,
      "chip": "ym2612"
    },
    {
      "channel": 0,
      "note": 88,
      "start": 4.8539,
      "duration": 0.0115,
      "velocity": 98,
      "chip": "ym2612"
    },
    {
      "channel": 4,
      "note": 84,
      "start": 4.8609,
      "duration": 0.0059,
      "velocity": 98,
      "chip": "ym2612"
    },
    {
      "channel": 0,
      "note": 86,
      "start": 4.8656,
      "duration": 0.0612,
      "velocity": 98,
      "chip": "ym2612"
    },
    {
      "channel": 4,
      "note": 83,
      "start": 4.8712,
      "duration": 0.0376,
      "velocity": 98,
      "chip": "ym2612"
    },
    {
      "channel": 0,
      "note": 88,
      "start": 4.927,
      "duration": 0.0159,
      "velocity": 98,
      "chip": "ym2612"
    },
    {
      "channel": 4,
      "note": 84,
      "start": 4.9284,
      "duration": 0.0092,
      "velocity": 98,
      "chip": "ym2612"
    },
    {
      "channel": 4,
      "note": 83,
      "start": 4.9407,
      "duration": 0.0061,
      "velocity": 98,
      "chip": "ym2612"
    },
    {
      "channel": 0,
      "note": 86,
      "start": 4.9431,
      "duration": 0.0114,
      "velocity": 98,
      "chip": "ym2612"
    },
    {
      "channel": 4,
      "note": 84,
      "start": 4.9499,
      "duration": 0.006,
      "velocity": 98,
      "chip": "ym2612"
    },
    {
      "channel": 0,
      "note": 88,
      "start": 4.9547,
      "duration": 0.015,
      "velocity": 98,
      "chip": "ym2612"
    },
    {
      "channel": 4,
      "note": 83,
      "start": 4.9605,
      "duration": 0.0058,
      "velocity": 98,
      "chip": "ym2612"
    },
    {
      "channel": 0,
      "note": 86,
      "start": 4.97,
      "duration": 0.0123,
      "velocity": 98,
      "chip": "ym2612"
    },
    {
      "channel": 1,
      "note": 55,
      "start": 4.9705,
      "duration": 0.0149,
      "velocity": 82,
      "chip": "ym2612"
    },
    {
      "channel": 2,
      "note": 74,
      "start": 4.971,
      "duration": 0.012,
      "velocity": 104,
      "chip": "ym2612"
    },
    {
      "channel": 4,
      "note": 84,
      "start": 4.9721,
      "duration": 0.0057,
      "velocity": 98,
      "chip": "ym2612"
    },
    {
      "channel": 4,
      "note": 83,
      "start": 4.9807,
      "duration": 0.0056,
      "velocity": 98,
      "chip": "ym2612"
    },
    {
      "channel": 0,
      "note": 88,
      "start": 4.9824,
      "duration": 0.0125,
      "velocity": 98,
      "chip": "ym2612"
    },
    {
      "channel": 4,
      "note": 84,
      "start": 4.9903,
      "duration": 0.006,
      "velocity": 98,
      "chip": "ym2612"
    },
    {
      "channel": 0,
      "note": 86,
      "start": 4.9952,
      "duration": 0.0127,
      "velocity": 98,
      "chip": "ym2612"
    },
    {
      "channel": 4,
      "note": 83,
      "start": 4.9991,
      "duration": 0.0053,
      "velocity": 98,
      "chip": "ym2612"
    },
    {
      "channel": 0,
      "note": 88,
      "start": 5.0081,
      "duration": 0.0115,
      "velocity": 98,
      "chip": "ym2612"
    },
    {
      "channel": 4,
      "note": 85,
      "start": 5.0095,
      "duration": 0.0055,
      "velocity": 98,
      "chip": "ym2612"
    },
    {
      "channel": 4,
      "note": 83,
      "start": 5.0179,
      "duration": 0.0057,
      "velocity": 98,
      "chip": "ym2612"
    },
    {
      "channel": 0,
      "note": 86,
      "start": 5.0199,
      "duration": 0.0138,
      "velocity": 98,
      "chip": "ym2612"
    },
    {
      "channel": 2,
      "note": 76,
      "start": 5.0278,
      "duration": 0.0124,
      "velocity": 104,
      "chip": "ym2612"
    },
    {
      "channel": 3,
      "note": 74,
      "start": 5.0284,
      "duration": 0.0121,
      "velocity": 104,
      "chip": "ym2612"
    },
    {
      "channel": 4,
      "note": 84,
      "start": 5.0291,
      "duration": 0.0059,
      "velocity": 98,
      "chip": "ym2612"
    },
    {
      "channel": 0,
      "note": 88,
      "start": 5.0339,
      "duration": 0.0113,
      "velocity": 98,
      "chip": "ym2612"
    },
    {
      "channel": 4,
      "note": 83,
      "start": 5.0379,
      "duration": 0.0057,
      "velocity": 98,
      "chip": "ym2612"
    },
    {
      "channel": 1,
      "note": 58,
      "start": 5.0458,
      "duration": 0.0169,
      "velocity": 82,
      "chip": "ym2612"
    },
    {
      "channel": 2,
      "note": 77,
      "start": 5.0463,
      "duration": 0.0115,
      "velocity": 104,
      "chip": "ym2612"
    },
    {
      "channel": 3,
      "note": 74,
      "start": 5.047,
      "duration": 0.0086,
      "velocity": 104,
      "chip": "ym2612"
    },
    {
      "channel": 2,
      "note": 74,
      "start": 5.1502,
      "duration": 0.0111,
      "velocity": 104,
      "chip": "ym2612"
    },
    {
      "channel": 3,
      "note": 74,
      "start": 5.1509,
      "duration": 0.0107,
      "velocity": 104,
      "chip": "ym2612"
    },
    {
      "channel": 1,
      "note": 58,
      "start": 5.1666,
      "duration": 0.0168,
      "velocity": 82,
      "chip": "ym2612"
    },
    {
      "channel": 2,
      "note": 74,
      "start": 5.1671,
      "duration": 0.2363,
      "velocity": 104,
      "chip": "ym2612"
    },
    {
      "channel": 3,
      "note": 65,
      "start": 5.1677,
      "duration": 0.2359,
      "velocity": 104,
      "chip": "ym2612"
    },
    {
      "channel": 0,
      "note": 89,
      "start": 5.2871,
      "duration": 0.0168,
      "velocity": 98,
      "chip": "ym2612"
    },
    {
      "channel": 1,
      "note": 58,
      "start": 5.2877,
      "duration": 0.0167,
      "velocity": 82,
      "chip": "ym2612"
    },
    {
      "channel": 4,
      "note": 84,
      "start": 5.2889,
      "duration": 0.0136,
      "velocity": 98,
      "chip": "ym2612"
    },
    {
      "channel": 0,
      "note": 86,
      "start": 5.3914,
      "duration": 0.0169,
      "velocity": 98,
      "chip": "ym2612"
    },
    {
      "channel": 4,
      "note": 86,
      "start": 5.3929,
      "duration": 0.0139,
      "velocity": 98,
      "chip": "ym2612"
    },
    {
      "channel": 0,
      "note": 86,
      "start": 5.4086,
      "duration": 0.0127,
      "velocity": 98,
      "chip": "ym2612"
    },
    {
      "channel": 1,
      "note": 58,
      "start": 5.4091,
      "duration": 0.0152,
      "velocity": 82,
      "chip": "ym2612"
    },
    {
      "channel": 2,
      "note": 77,
      "start": 5.4097,
      "duration": 0.1348,
      "velocity": 104,
      "chip": "ym2612"
    },
    {
      "channel": 3,
      "note": 65,
      "start": 5.4103,
      "duration": 0.1345,
      "velocity": 104,
      "chip": "ym2612"
    },
    {
      "channel": 4,
      "note": 82,
      "start": 5.411,
      "duration": 0.0058,
      "velocity": 98,
      "chip": "ym2612"
    },
    {
      "channel": 4,
      "note": 82,
      "start": 5.4197,
      "duration": 0.0055,
      "velocity": 98,
      "chip": "ym2612"
    },
    {
      "channel": 0,
      "note": 88,
      "start": 5.4215,
      "duration": 0.0107,
      "velocity": 98,
      "chip": "ym2612"
    },
    {
      "channel": 4,
      "note": 84,
      "start": 5.428,
      "duration": 0.0056,
      "velocity": 98,
      "chip": "ym2612"
    },
    {
      "channel": 0,
      "note": 86,
      "start": 5.4324,
      "duration": 0.0609,
      "velocity": 98,
      "chip": "ym2612"
    },
    {
      "channel": 4,
      "note": 82,
      "start": 5.4378,
      "duration": 0.0376,
      "velocity": 98,
      "chip": "ym2612"
    },
    {
      "channel": 0,
      "note": 88,
      "start": 5.4935,
      "duration": 0.0146,
      "velocity": 98,
      "chip": "ym2612"
    },
    {
      "channel": 4,
      "note": 84,
      "start": 5.4949,
      "duration": 0.0088,
      "velocity": 98,
      "chip": "ym2612"
    },
    {
      "channel": 4,
      "note": 82,
      "start": 5.5066,
      "duration": 0.0054,
      "velocity": 98,
      "chip": "ym2612"
    },
    {
      "channel": 0,
      "note": 86,
      "start": 5.5083,
      "duration": 0.0106,
      "velocity": 98,
      "chip": "ym2612"
    },
    {
      "channel": 4,
      "note": 84,
      "start": 5.5147,
      "duration": 0.0055,
      "velocity": 98,
      "chip": "ym2612"
    },
    {
      "channel": 0,
      "note": 88,
      "start": 5.5191,
      "duration": 0.0628,
      "velocity": 98,
      "chip": "ym2612"
    },
    {
      "channel": 4,
      "note": 82,
      "start": 5.5262,
      "duration": 0.0377,
      "velocity": 98,
      "chip": "ym2612"
    },
    {
      "channel": 1,
      "note": 57,
      "start": 5.5824,
      "duration": 0.0176,
      "velocity": 82,
      "chip": "ym2612"
    },
    {
      "channel": 2,
      "note": 79,
      "start": 5.583,
      "duration": 0.0147,
      "velocity": 104,
      "chip": "ym2612"
    },
    {
      "channel": 3,
      "note": 74,
      "start": 5.5836,
      "duration": 0.0144,
      "velocity": 104,
      "chip": "ym2612"
    },
    {
      "channel": 2,
      "note": 76,
      "start": 5.6899,
      "duration": 0.011,
      "velocity": 104,
      "chip": "ym2612"
    },
    {
      "channel": 3,
      "note": 76,
      "start": 5.6906,
      "duration": 0.0107,
      "velocity": 104,
      "chip": "ym2612"
    },
    {
      "channel": 1,
      "note": 57,
      "start": 5.7035,
      "duration": 0.0169,
      "velocity": 82,
      "chip": "ym2612"
    },
    {
      "channel": 2,
      "note": 76,
      "start": 5.7067,
      "duration": 0.2373,
      "velocity": 104,
      "chip": "ym2612"
    },
    {
      "channel": 3,
      "note": 69,
      "start": 5.7073,
      "duration": 0.237,
      "velocity": 104,
      "chip": "ym2612"
    },
    {
      "channel": 1,
      "note": 57,
      "start": 5.8245,
      "duration": 0.0172,
      "velocity": 82,
      "chip": "ym2612"
    },
    {
      "channel": 0,
      "note": 91,
      "start": 5.8274,
      "duration": 0.0167,
      "velocity": 98,
      "chip": "ym2612"
    },
    {
      "channel": 4,
      "note": 84,
      "start": 5.8289,
      "duration": 0.0137,
      "velocity": 98,
      "chip": "ym2612"
    },
    {
      "channel": 0,
      "note": 88,
      "start": 5.9321,
      "duration": 0.0194,
      "velocity": 98,
      "chip": "ym2612"
    },
    {
      "channel": 4,
      "note": 88,
      "start": 5.9335,
      "duration": 0.0139,
      "velocity": 98,
      "chip": "ym2612"
    },
    {
      "channel": 0,
      "note": 88,
      "start": 5.9517,
      "duration": 0.0127,
      "velocity": 98,
      "chip": "ym2612"
    },
    {
      "channel": 1,
      "note": 57,
      "start": 5.9523,
      "duration": 0.0152,
      "velocity": 82,
      "chip": "ym2612"
    },
    {
      "channel": 2,
      "note": 79,
      "start": 5.9528,
      "duration": 0.0679,
      "velocity": 104,
      "chip": "ym2612"
    },
    {
      "channel": 3,
      "note": 69,
      "start": 5.9534,
      "duration": 0.0676,
      "velocity": 104,
      "chip": "ym2612"
    },
    {
      "channel": 4,
      "note": 84,
      "start": 5.9541,
      "duration": 0.0059,
      "velocity": 98,
      "chip": "ym2612"
    },
    {
      "channel": 4,
      "note": 84,
      "start": 5.9628,
      "duration": 0.0054,
      "velocity": 98,
      "chip": "ym2612"
    },
    {
      "channel": 0,
      "note": 89,
      "start": 5.9646,
      "duration": 0.0118,
      "velocity": 98,
      "chip": "ym2612"
    },
    {
      "channel": 4,
      "note": 86,
      "start": 5.9719,
      "duration": 0.0059,
      "velocity": 98,
      "chip": "ym2612"
    },
    {
      "channel": 0,
      "note": 88,
      "start": 5.9766,
      "duration": 0.0131,
      "velocity": 98,
      "chip": "ym2612"
    },
    {
      "channel": 4,
      "note": 84,
      "start": 5.9806,
      "duration": 0.005,
      "velocity": 98,
      "chip": "ym2612"
    },
    {
      "channel": 0,
      "note": 89,
      "start": 5.99,
      "duration": 0.0112,
      "velocity": 98,
      "chip": "ym2612"
    },
    {
      "channel": 4,
      "note": 86,
      "start": 5.9914,
      "duration": 0.0054,
      "velocity": 98,
      "chip": "ym2612"
    },
    {
      "channel": 4,
      "note": 84,
      "start": 5.9995,
      "duration": 0.0054,
      "velocity": 98,
      "chip": "ym2612"
    },
    {
      "channel": 0,
      "note": 88,
      "start": 6.0014,
      "duration": 0.0129,
      "velocity": 98,
      "chip": "ym2612"
    },
    {
      "channel": 4,
      "note": 86,
      "start": 6.0099,
      "duration": 0.0058,
      "velocity": 98,
      "chip": "ym2612"
    },
    {
      "channel": 0,
      "note": 89,
      "start": 6.0146,
      "duration": 0.0111,
      "velocity": 98,
      "chip": "ym2612"
    },
    {
      "channel": 4,
      "note": 84,
      "start": 6.0185,
      "duration": 0.0056,
      "velocity": 98,
      "chip": "ym2612"
    },
    {
      "channel": 1,
      "note": 56,
      "start": 6.0263,
      "duration": 0.0145,
      "velocity": 82,
      "chip": "ym2612"
    },
    {
      "channel": 2,
      "note": 77,
      "start": 6.0268,
      "duration": 0.0116,
      "velocity": 104,
      "chip": "ym2612"
    },
    {
      "channel": 3,
      "note": 76,
      "start": 6.0275,
      "duration": 0.0113,
      "velocity": 104,
      "chip": "ym2612"
    },
    {
      "channel": 1,
      "note": 56,
      "start": 6.1441,
      "duration": 0.0169,
      "velocity": 82,
      "chip": "ym2612"
    },
    {
      "channel": 2,
      "note": 80,
      "start": 6.1471,
      "duration": 0.2379,
      "velocity": 104,
      "chip": "ym2612"
    },
    {
      "channel": 3,
      "note": 74,
      "start": 6.1478,
      "duration": 0.2376,
      "velocity": 104,
      "chip": "ym2612"
    },
    {
      "channel": 1,
      "note": 52,
      "start": 6.265,
      "duration": 0.0169,
      "velocity": 82,
      "chip": "ym2612"
    },
    {
      "channel": 0,
      "note": 92,
      "start": 6.2679,
      "duration": 0.0166,
      "velocity": 98,
      "chip": "ym2612"
    },
    {
      "channel": 4,
      "note": 86,
      "start": 6.2694,
      "duration": 0.0135,
      "velocity": 98,
      "chip": "ym2612"
    },
    {
      "channel": 0,
      "note": 89,
      "start": 6.3727,
      "duration": 0.0174,
      "velocity": 98,
      "chip": "ym2612"
    },
    {
      "channel": 4,
      "note": 89,
      "start": 6.3742,
      "duration": 0.0143,
      "velocity": 98,
      "chip": "ym2612"
    },
    {
      "channel": 0,
      "note": 89,
      "start": 6.3904,
      "duration": 0.1731,
      "velocity": 98,
      "chip": "ym2612"
    },
    {
      "channel": 1,
      "note": 52,
      "start": 6.3909,
      "duration": 0.0145,
      "velocity": 82,
      "chip": "ym2612"
    },
    {
      "channel": 2,
      "note": 77,
      "start": 6.3915,
      "duration": 0.0979,
      "velocity": 104,
      "chip": "ym2612"
    },
    {
      "channel": 3,
      "note": 77,
      "start": 6.3921,
      "duration": 0.0976,
      "velocity": 104,
      "chip": "ym2612"
    },
    {
      "channel": 4,
      "note": 86,
      "start": 6.3928,
      "duration": 0.1529,
      "velocity": 98,
      "chip": "ym2612"
    },
    {
      "channel": 0,
      "note": 93,
      "start": 6.5637,
      "duration": 0.016,
      "velocity": 98,
      "chip": "ym2612"
    },
    {
      "channel": 1,
      "note": 57,
      "start": 6.5643,
      "duration": 0.021,
      "velocity": 82,
      "chip": "ym2612"
    },
    {
      "channel": 2,
      "note": 76,
      "start": 6.5648,
      "duration": 0.3724,
      "velocity": 104,
      "chip": "ym2612"
    },
    {
      "channel": 3,
      "note": 71,
      "start": 6.5655,
      "duration": 0.372,
      "velocity": 104,
      "chip": "ym2612"
    },
    {
      "channel": 4,
      "note": 86,
      "start": 6.5661,
      "duration": 0.0092,
      "velocity": 98,
      "chip": "ym2612"
    },
    {
      "channel": 4,
      "note": 88,
      "start": 6.5782,
      "duration": 0.0054,
      "velocity": 98,
      "chip": "ym2612"
    },
    {
      "channel": 0,
      "note": 94,
      "start": 6.5799,
      "duration": 0.0106,
      "velocity": 98,
      "chip": "ym2612"
    },
    {
      "channel": 4,
      "note": 89,
      "start": 6.5864,
      "duration": 0.0056,
      "velocity": 98,
      "chip": "ym2612"
    },
    {
      "channel": 0,
      "note": 93,
      "start": 6.5908,
      "duration": 0.0613,
      "velocity": 98,
      "chip": "ym2612"
    },
    {
      "channel": 4,
      "note": 88,
      "start": 6.5964,
      "duration": 0.0376,
      "velocity": 98,
      "chip": "ym2612"
    },
    {
      "channel": 0,
      "note": 94,
      "start": 6.6523,
      "duration": 0.015,
      "velocity": 98,
      "chip": "ym2612"
    },
    {
      "channel": 4,
      "note": 89,
      "start": 6.6537,
      "duration": 0.0088,
      "velocity": 98,
      "chip": "ym2612"
    },
    {
      "channel": 4,
      "note": 88,
      "start": 6.6654,
      "duration": 0.0057,
      "velocity": 98,
      "chip": "ym2612"
    },
    {
      "channel": 0,
      "note": 93,
      "start": 6.6675,
      "duration": 0.0109,
      "velocity": 98,
      "chip": "ym2612"
    },
    {
      "channel": 4,
      "note": 89,
      "start": 6.674,
      "duration": 0.0058,
      "velocity": 98,
      "chip": "ym2612"
    },
    {
      "channel": 0,
      "note": 94,
      "start": 6.6787,
      "duration": 0.011,
      "velocity": 98,
      "chip": "ym2612"
    },
    {
      "channel": 4,
      "note": 88,
      "start": 6.6826,
      "duration": 0.0055,
      "velocity": 98,
      "chip": "ym2612"
    },
    {
      "channel": 0,
      "note": 93,
      "start": 6.6899,
      "duration": 0.0122,
      "velocity": 98,
      "chip": "ym2612"
    },
    {
      "channel": 1,
      "note": 59,
      "start": 6.6905,
      "duration": 0.0175,
      "velocity": 82,
      "chip": "ym2612"
    },
    {
      "channel": 4,
      "note": 89,
      "start": 6.6917,
      "duration": 0.0057,
      "velocity": 98,
      "chip": "ym2612"
    },
    {
      "channel": 4,
      "note": 88,
      "start": 6.7004,
      "duration": 0.0058,
      "velocity": 98,
      "chip": "ym2612"
    },
    {
      "channel": 0,
      "note": 94,
      "start": 6.7024,
      "duration": 0.011,
      "velocity": 98,
      "chip": "ym2612"
    },
    {
      "channel": 4,
      "note": 89,
      "start": 6.7092,
      "duration": 0.0058,
      "velocity": 98,
      "chip": "ym2612"
    },
    {
      "channel": 0,
      "note": 93,
      "start": 6.7137,
      "duration": 0.0612,
      "velocity": 98,
      "chip": "ym2612"
    },
    {
      "channel": 4,
      "note": 88,
      "start": 6.7195,
      "duration": 0.0375,
      "velocity": 98,
      "chip": "ym2612"
    },
    {
      "channel": 0,
      "note": 94,
      "start": 6.7751,
      "duration": 0.0155,
      "velocity": 98,
      "chip": "ym2612"
    },
    {
      "channel": 4,
      "note": 89,
      "start": 6.7766,
      "duration": 0.0091,
      "velocity": 98,
      "chip": "ym2612"
    },
    {
      "channel": 4,
      "note": 88,
      "start": 6.7887,
      "duration": 0.006,
      "velocity": 98,
      "chip": "ym2612"
    },
    {
      "channel": 0,
      "note": 93,
      "start": 6.7909,
      "duration": 0.0132,
      "velocity": 98,
      "chip": "ym2612"
    },
    {
      "channel": 4,
      "note": 89,
      "start": 6.7993,
      "duration": 0.0062,
      "velocity": 98,
      "chip": "ym2612"
    },
    {
      "channel": 0,
      "note": 94,
      "start": 6.8044,
      "duration": 0.0114,
      "velocity": 98,
      "chip": "ym2612"
    },
    {
      "channel": 4,
      "note": 88,
      "start": 6.8085,
      "duration": 0.0056,
      "velocity": 98,
      "chip": "ym2612"
    },
    {
      "channel": 0,
      "note": 81,
      "start": 6.816,
      "duration": 0.0065,
      "velocity": 98,
      "chip": "ym2612"
    },
    {
      "channel": 1,
      "note": 61,
      "start": 6.8166,
      "duration": 0.0189,
      "velocity": 82,
      "chip": "ym2612"
    },
    {
      "channel": 4,
      "note": 89,
      "start": 6.8178,
      "duration": 0.0031,
      "velocity": 98,
      "chip": "ym2612"
    },
    {
      "channel": 0,
      "note": 83,
      "start": 6.8228,
      "duration": 0.0058,
      "velocity": 98,
      "chip": "ym2612"
    },
    {
      "channel": 4,
      "note": 69,
      "start": 6.8242,
      "duration": 0.0027,
      "velocity": 98,
      "chip": "ym2612"
    },
    {
      "channel": 0,
      "note": 85,
      "start": 6.8288,
      "duration": 0.0061,
      "velocity": 98,
      "chip": "ym2612"
    },
    {
      "channel": 4,
      "note": 71,
      "start": 6.8303,
      "duration": 0.0029,
      "velocity": 98,
      "chip": "ym2612"
    },
    {
      "channel": 0,
      "note": 86,
      "start": 6.8351,
      "duration": 0.0058,
      "velocity": 98,
      "chip": "ym2612"
    },
    {
      "channel": 4,
      "note": 73,
      "start": 6.8366,
      "duration": 0.0027,
      "velocity": 98,
      "chip": "ym2612"
    },
    {
      "channel": 0,
      "note": 88,
      "start": 6.8412,
      "duration": 0.0218,
      "velocity": 98,
      "chip": "ym2612"
    },
    {
      "channel": 4,
      "note": 74,
      "start": 6.8428,
      "duration": 0.0028,
      "velocity": 98,
      "chip": "ym2612"
    },
    {
      "channel": 0,
      "note": 90,
      "start": 6.8633,
      "duration": 0.0376,
      "velocity": 98,
      "chip": "ym2612"
    },
    {
      "channel": 4,
      "note": 76,
      "start": 6.8647,
      "duration": 0.0184,
      "velocity": 98,
      "chip": "ym2612"
    },
    {
      "channel": 0,
      "note": 92,
      "start": 6.9012,
      "duration": 0.0096,
      "velocity": 98,
      "chip": "ym2612"
    },
    {
      "channel": 4,
      "note": 78,
      "start": 6.9026,
      "duration": 0.0065,
      "velocity": 98,
      "chip": "ym2612"
    },
    {
      "channel": 0,
      "note": 93,
      "start": 6.911,
      "duration": 0.0064,
      "velocity": 98,
      "chip": "ym2612"
    },
    {
      "channel": 4,
      "note": 80,
      "start": 6.9125,
      "duration": 0.0029,
      "velocity": 98,
      "chip": "ym2612"
    },
    {
      "channel": 0,
      "note": 95,
      "start": 6.9177,
      "duration": 0.0059,
      "velocity": 98,
      "chip": "ym2612"
    },
    {
      "channel": 4,
      "note": 81,
      "start": 6.9192,
      "duration": 0.0028,
      "velocity": 98,
      "chip": "ym2612"
    },
    {
      "channel": 0,
      "note": 97,
      "start": 6.9238,
      "duration": 0.0061,
      "velocity": 98,
      "chip": "ym2612"
    },
    {
      "channel": 4,
      "note": 83,
      "start": 6.9253,
      "duration": 0.0031,
      "velocity": 98,
      "chip": "ym2612"
    },
    {
      "channel": 0,
      "note": 98,
      "start": 6.9301,
      "duration": 0.0061,
      "velocity": 98,
      "chip": "ym2612"
    },
    {
      "channel": 4,
      "note": 85,
      "start": 6.9316,
      "duration": 0.0028,
      "velocity": 98,
      "chip": "ym2612"
    },
    {
      "channel": 0,
      "note": 100,
      "start": 6.9365,
      "duration": 0.0076,
      "velocity": 98,
      "chip": "ym2612"
    },
    {
      "channel": 4,
      "note": 86,
      "start": 6.9381,
      "duration": 0.003,
      "velocity": 98,
      "chip": "ym2612"
    },
    {
      "channel": 0,
      "note": 102,
      "start": 6.9444,
      "duration": 0.0069,
      "velocity": 98,
      "chip": "ym2612"
    },
    {
      "channel": 1,
      "note": 57,
      "start": 6.9449,
      "duration": 0.0185,
      "velocity": 82,
      "chip": "ym2612"
    },
    {
      "channel": 4,
      "note": 88,
      "start": 6.9463,
      "duration": 0.0034,
      "velocity": 98,
      "chip": "ym2612"
    },
    {
      "channel": 0,
      "note": 104,
      "start": 6.9515,
      "duration": 0.0081,
      "velocity": 98,
      "chip": "ym2612"
    },
    {
      "channel": 4,
      "note": 90,
      "start": 6.9529,
      "duration": 0.0052,
      "velocity": 98,
      "chip": "ym2612"
    },
    {
      "channel": 0,
      "note": 105,
      "start": 6.9599,
      "duration": 0.0116,
      "velocity": 98,
      "chip": "ym2612"
    },
    {
      "channel": 4,
      "note": 92,
      "start": 6.9613,
      "duration": 0.0085,
      "velocity": 98,
      "chip": "ym2612"
    },
    {
      "channel": 1,
      "note": 50,
      "start": 7.0183,
      "duration": 0.0165,
      "velocity": 82,
      "chip": "ym2612"
    },
    {
      "channel": 0,
      "note": 98,
      "start": 7.1221,
      "duration": 0.008,
      "velocity": 98,
      "chip": "ym2612"
    },
    {
      "channel": 2,
      "note": 81,
      "start": 7.1244,
      "duration": 0.0194,
      "velocity": 104,
      "chip": "ym2612"
    },
    {
      "channel": 3,
      "note": 73,
      "start": 7.1273,
      "duration": 0.0168,
      "velocity": 104,
      "chip": "ym2612"
    },
    {
      "channel": 4,
      "note": 93,
      "start": 7.128,
      "duration": 0.0001,
      "velocity": 98,
      "chip": "ym2612"
    },
    {
      "channel": 0,
      "note": 100,
      "start": 7.1303,
      "duration": 0.0031,
      "velocity": 98,
      "chip": "ym2612"
    },
    {
      "channel": 4,
      "note": 86,
      "start": 7.1317,
      "duration": 0.0001,
      "velocity": 98,
      "chip": "ym2612"
    },
    {
      "channel": 0,
      "note": 101,
      "start": 7.1336,
      "duration": 0.0057,
      "velocity": 98,
      "chip": "ym2612"
    },
    {
      "channel": 4,
      "note": 88,
      "start": 7.135,
      "duration": 0.0001,
      "velocity": 98,
      "chip": "ym2612"
    },
    {
      "channel": 0,
      "note": 103,
      "start": 7.1395,
      "duration": 0.0034,
      "velocity": 98,
      "chip": "ym2612"
    },
    {
      "channel": 4,
      "note": 89,
      "start": 7.141,
      "duration": 0.0001,
      "velocity": 98,
      "chip": "ym2612"
    },
    {
      "channel": 0,
      "note": 105,
      "start": 7.1432,
      "duration": 0.0032,
      "velocity": 98,
      "chip": "ym2612"
    },
    {
      "channel": 4,
      "note": 91,
      "start": 7.1447,
      "duration": 0.0001,
      "velocity": 98,
      "chip": "ym2612"
    },
    {
      "channel": 0,
      "note": 107,
      "start": 7.1466,
      "duration": 0.0032,
      "velocity": 98,
      "chip": "ym2612"
    },
    {
      "channel": 4,
      "note": 93,
      "start": 7.148,
      "duration": 0.0001,
      "velocity": 98,
      "chip": "ym2612"
    },
    {
      "channel": 0,
      "note": 109,
      "start": 7.1501,
      "duration": 0.0078,
      "velocity": 98,
      "chip": "ym2612"
    },
    {
      "channel": 1,
      "note": 50,
      "start": 7.1506,
      "duration": 0.0212,
      "velocity": 82,
      "chip": "ym2612"
    },
    {
      "channel": 2,
      "note": 81,
      "start": 7.1512,
      "duration": 0.3799,
      "velocity": 104,
      "chip": "ym2612"
    },
    {
      "channel": 3,
      "note": 74,
      "start": 7.1518,
      "duration": 0.1174,
      "velocity": 104,
      "chip": "ym2612"
    },
    {
      "channel": 4,
      "note": 95,
      "start": 7.1525,
      "duration": 0.0001,
      "velocity": 98,
      "chip": "ym2612"
    },
    {
      "channel": 0,
      "note": 110,
      "start": 7.1581,
      "duration": 0.0134,
      "velocity": 98,
      "chip": "ym2612"
    },
    {
      "channel": 4,
      "note": 97,
      "start": 7.1595,
      "duration": 0.0103,
      "velocity": 98,
      "chip": "ym2612"
    },
    {
      "channel": 1,
      "note": 52,
      "start": 7.2743,
      "duration": 0.0167,
      "velocity": 82,
      "chip": "ym2612"
    },
    {
      "channel": 3,
      "note": 74,
      "start": 7.2752,
      "duration": 0.2562,
      "velocity": 104,
      "chip": "ym2612"
    },
    {
      "channel": 1,
      "note": 52,
      "start": 7.3956,
      "duration": 0.0169,
      "velocity": 82,
      "chip": "ym2612"
    },
    {
      "channel": 1,
      "note": 53,
      "start": 7.5692,
      "duration": 0.0196,
      "velocity": 82,
      "chip": "ym2612"
    },
    {
      "channel": 0,
      "note": 98,
      "start": 7.6762,
      "duration": 0.0041,
      "velocity": 98,
      "chip": "ym2612"
    },
    {
      "channel": 2,
      "note": 81,
      "start": 7.677,
      "duration": 0.0178,
      "velocity": 104,
      "chip": "ym2612"
    },
    {
      "channel": 3,
      "note": 76,
      "start": 7.6776,
      "duration": 0.0174,
      "velocity": 104,
      "chip": "ym2612"
    },
    {
      "channel": 4,
      "note": 98,
      "start": 7.6783,
      "duration": 0.0001,
      "velocity": 98,
      "chip": "ym2612"
    },
    {
      "channel": 0,
      "note": 100,
      "start": 7.6805,
      "duration": 0.0031,
      "velocity": 98,
      "chip": "ym2612"
    },
    {
      "channel": 4,
      "note": 86,
      "start": 7.6819,
      "duration": 0.0001,
      "velocity": 98,
      "chip": "ym2612"
    },
    {
      "channel": 0,
      "note": 101,
      "start": 7.6838,
      "duration": 0.003,
      "velocity": 98,
      "chip": "ym2612"
    },
    {
      "channel": 4,
      "note": 88,
      "start": 7.6852,
      "duration": 0.0001,
      "velocity": 98,
      "chip": "ym2612"
    },
    {
      "channel": 0,
      "note": 103,
      "start": 7.6871,
      "duration": 0.0068,
      "velocity": 98,
      "chip": "ym2612"
    },
    {
      "channel": 4,
      "note": 89,
      "start": 7.6885,
      "duration": 0.0001,
      "velocity": 98,
      "chip": "ym2612"
    },
    {
      "channel": 0,
      "note": 105,
      "start": 7.6941,
      "duration": 0.0032,
      "velocity": 98,
      "chip": "ym2612"
    },
    {
      "channel": 4,
      "note": 91,
      "start": 7.6957,
      "duration": 0.0001,
      "velocity": 98,
      "chip": "ym2612"
    },
    {
      "channel": 0,
      "note": 107,
      "start": 7.6975,
      "duration": 0.0035,
      "velocity": 98,
      "chip": "ym2612"
    },
    {
      "channel": 4,
      "note": 93,
      "start": 7.6989,
      "duration": 0.0001,
      "velocity": 98,
      "chip": "ym2612"
    },
    {
      "channel": 0,
      "note": 109,
      "start": 7.7013,
      "duration": 0.0078,
      "velocity": 98,
      "chip": "ym2612"
    },
    {
      "channel": 1,
      "note": 53,
      "start": 7.7018,
      "duration": 0.0211,
      "velocity": 82,
      "chip": "ym2612"
    },
    {
      "channel": 2,
      "note": 81,
      "start": 7.7024,
      "duration": 0.3158,
      "velocity": 104,
      "chip": "ym2612"
    },
    {
      "channel": 3,
      "note": 77,
      "start": 7.703,
      "duration": 0.1174,
      "velocity": 104,
      "chip": "ym2612"
    },
    {
      "channel": 4,
      "note": 95,
      "start": 7.7037,
      "duration": 0.0001,
      "velocity": 98,
      "chip": "ym2612"
    },
    {
      "channel": 0,
      "note": 110,
      "start": 7.7092,
      "duration": 0.0133,
      "velocity": 98,
      "chip": "ym2612"
    },
    {
      "channel": 4,
      "note": 97,
      "start": 7.7106,
      "duration": 0.0104,
      "velocity": 98,
      "chip": "ym2612"
    },
    {
      "channel": 1,
      "note": 52,
      "start": 7.8255,
      "duration": 0.0167,
      "velocity": 82,
      "chip": "ym2612"
    },
    {
      "channel": 3,
      "note": 77,
      "start": 7.8264,
      "duration": 0.1921,
      "velocity": 104,
      "chip": "ym2612"
    },
    {
      "channel": 1,
      "note": 52,
      "start": 7.9494,
      "duration": 0.0189,
      "velocity": 82,
      "chip": "ym2612"
    },
    {
      "channel": 1,
      "note": 50,
      "start": 8.024,
      "duration": 0.0166,
      "velocity": 82,
      "chip": "ym2612"
    },
    {
      "channel": 2,
      "note": 81,
      "start": 8.1282,
      "duration": 0.0111,
      "velocity": 104,
      "chip": "ym2612"
    },
    {
      "channel": 3,
      "note": 73,
      "start": 8.1289,
      "duration": 0.0107,
      "velocity": 104,
      "chip": "ym2612"
    },
    {
      "channel": 1,
      "note": 50,
      "start": 8.1445,
      "duration": 0.017,
      "velocity": 82,
      "chip": "ym2612"
    },
    {
      "channel": 2,
      "note": 81,
      "start": 8.1451,
      "duration": 0.2378,
      "velocity": 104,
      "chip": "ym2612"
    },
    {
      "channel": 3,
      "note": 77,
      "start": 8.1457,
      "duration": 0.2374,
      "velocity": 104,
      "chip": "ym2612"
    },
    {
      "channel": 1,
      "note": 48,
      "start": 8.2652,
      "duration": 0.0166,
      "velocity": 82,
      "chip": "ym2612"
    },
    {
      "channel": 1,
      "note": 48,
      "start": 8.3883,
      "duration": 0.017,
      "velocity": 82,
      "chip": "ym2612"
    },
    {
      "channel": 2,
      "note": 77,
      "start": 8.3888,
      "duration": 0.1349,
      "velocity": 104,
      "chip": "ym2612"
    },
    {
      "channel": 3,
      "note": 77,
      "start": 8.3895,
      "duration": 0.1346,
      "velocity": 104,
      "chip": "ym2612"
    },
    {
      "channel": 1,
      "note": 47,
      "start": 8.5617,
      "duration": 0.02,
      "velocity": 82,
      "chip": "ym2612"
    },
    {
      "channel": 2,
      "note": 79,
      "start": 8.5623,
      "duration": 0.0146,
      "velocity": 104,
      "chip": "ym2612"
    },
    {
      "channel": 3,
      "note": 74,
      "start": 8.5629,
      "duration": 0.0143,
      "velocity": 104,
      "chip": "ym2612"
    },
    {
      "channel": 2,
      "note": 74,
      "start": 8.6501,
      "duration": 0.0145,
      "velocity": 104,
      "chip": "ym2612"
    },
    {
      "channel": 3,
      "note": 74,
      "start": 8.6507,
      "duration": 0.0142,
      "velocity": 104,
      "chip": "ym2612"
    },
    {
      "channel": 2,
      "note": 74,
      "start": 8.67,
      "duration": 0.011,
      "velocity": 104,
      "chip": "ym2612"
    },
    {
      "channel": 3,
      "note": 71,
      "start": 8.6706,
      "duration": 0.0107,
      "velocity": 104,
      "chip": "ym2612"
    },
    {
      "channel": 1,
      "note": 47,
      "start": 8.6863,
      "duration": 0.017,
      "velocity": 82,
      "chip": "ym2612"
    },
    {
      "channel": 2,
      "note": 74,
      "start": 8.6868,
      "duration": 0.0113,
      "velocity": 104,
      "chip": "ym2612"
    },
    {
      "channel": 3,
      "note": 71,
      "start": 8.6874,
      "duration": 0.011,
      "velocity": 104,
      "chip": "ym2612"
    },
    {
      "channel": 2,
      "note": 79,
      "start": 8.7716,
      "duration": 0.015,
      "velocity": 104,
      "chip": "ym2612"
    },
    {
      "channel": 3,
      "note": 71,
      "start": 8.7722,
      "duration": 0.0147,
      "velocity": 104,
      "chip": "ym2612"
    },
    {
      "channel": 0,
      "note": 83,
      "start": 8.8088,
      "duration": 0.0173,
      "velocity": 98,
      "chip": "ym2612"
    },
    {
      "channel": 1,
      "note": 55,
      "start": 8.8093,
      "duration": 0.0172,
      "velocity": 82,
      "chip": "ym2612"
    },
    {
      "channel": 2,
      "note": 83,
      "start": 8.8098,
      "duration": 0.1738,
      "velocity": 104,
      "chip": "ym2612"
    },
    {
      "channel": 3,
      "note": 74,
      "start": 8.8105,
      "duration": 0.1735,
      "velocity": 104,
      "chip": "ym2612"
    },
    {
      "channel": 4,
      "note": 98,
      "start": 8.8112,
      "duration": 0.0132,
      "velocity": 98,
      "chip": "ym2612"
    },
    {
      "channel": 0,
      "note": 79,
      "start": 8.8939,
      "duration": 0.012,
      "velocity": 98,
      "chip": "ym2612"
    },
    {
      "channel": 4,
      "note": 79,
      "start": 8.8953,
      "duration": 0.009,
      "velocity": 98,
      "chip": "ym2612"
    },
    {
      "channel": 0,
      "note": 79,
      "start": 8.9146,
      "duration": 0.0085,
      "velocity": 98,
      "chip": "ym2612"
    },
    {
      "channel": 4,
      "note": 74,
      "start": 8.916,
      "duration": 0.0056,
      "velocity": 98,
      "chip": "ym2612"
    },
    {
      "channel": 0,
      "note": 79,
      "start": 8.9342,
      "duration": 0.0187,
      "velocity": 98,
      "chip": "ym2612"
    },
    {
      "channel": 1,
      "note": 55,
      "start": 8.9347,
      "duration": 0.0186,
      "velocity": 82,
      "chip": "ym2612"
    },
    {
      "channel": 4,
      "note": 74,
      "start": 8.936,
      "duration": 0.0137,
      "velocity": 98,
      "chip": "ym2612"
    },
    {
      "channel": 0,
      "note": 83,
      "start": 8.9722,
      "duration": 0.0188,
      "velocity": 98,
      "chip": "ym2612"
    },
    {
      "channel": 4,
      "note": 74,
      "start": 8.9737,
      "duration": 0.0132,
      "velocity": 98,
      "chip": "ym2612"
    },
    {
      "channel": 0,
      "note": 86,
      "start": 9.0078,
      "duration": 0.0123,
      "velocity": 98,
      "chip": "ym2612"
    },
    {
      "channel": 1,
      "note": 58,
      "start": 9.0083,
      "duration": 0.0175,
      "velocity": 82,
      "chip": "ym2612"
    },
    {
      "channel": 2,
      "note": 74,
      "start": 9.0089,
      "duration": 0.0118,
      "velocity": 104,
      "chip": "ym2612"
    },
    {
      "channel": 3,
      "note": 79,
      "start": 9.0095,
      "duration": 0.0115,
      "velocity": 104,
      "chip": "ym2612"
    },
    {
      "channel": 4,
      "note": 79,
      "start": 9.0102,
      "duration": 0.0084,
      "velocity": 98,
      "chip": "ym2612"
    },
    {
      "channel": 0,
      "note": 77,
      "start": 9.0929,
      "duration": 0.0196,
      "velocity": 98,
      "chip": "ym2612"
    },
    {
      "channel": 4,
      "note": 82,
      "start": 9.0943,
      "duration": 0.0167,
      "velocity": 98,
      "chip": "ym2612"
    },
    {
      "channel": 0,
      "note": 82,
      "start": 9.1127,
      "duration": 0.0175,
      "velocity": 98,
      "chip": "ym2612"
    },
    {
      "channel": 2,
      "note": 74,
      "start": 9.1135,
      "duration": 0.012,
      "velocity": 104,
      "chip": "ym2612"
    },
    {
      "channel": 3,
      "note": 70,
      "start": 9.1141,
      "duration": 0.0117,
      "velocity": 104,
      "chip": "ym2612"
    },
    {
      "channel": 4,
      "note": 74,
      "start": 9.1148,
      "duration": 0.0139,
      "velocity": 98,
      "chip": "ym2612"
    },
    {
      "channel": 0,
      "note": 89,
      "start": 9.1305,
      "duration": 0.0097,
      "velocity": 98,
      "chip": "ym2612"
    },
    {
      "channel": 1,
      "note": 58,
      "start": 9.1311,
      "duration": 0.018,
      "velocity": 82,
      "chip": "ym2612"
    },
    {
      "channel": 2,
      "note": 74,
      "start": 9.1316,
      "duration": 0.241,
      "velocity": 104,
      "chip": "ym2612"
    },
    {
      "channel": 3,
      "note": 70,
      "start": 9.1322,
      "duration": 0.2407,
      "velocity": 104,
      "chip": "ym2612"
    },
    {
      "channel": 4,
      "note": 77,
      "start": 9.1329,
      "duration": 0.0087,
      "velocity": 98,
      "chip": "ym2612"
    },
    {
      "channel": 0,
      "note": 91,
      "start": 9.1405,
      "duration": 0.0081,
      "velocity": 98,
      "chip": "ym2612"
    },
    {
      "channel": 4,
      "note": 86,
      "start": 9.1445,
      "duration": 0.008,
      "velocity": 98,
      "chip": "ym2612"
    },
    {
      "channel": 0,
      "note": 89,
      "start": 9.1488,
      "duration": 0.0097,
      "velocity": 98,
      "chip": "ym2612"
    },
    {
      "channel": 4,
      "note": 88,
      "start": 9.1554,
      "duration": 0.042,
      "velocity": 98,
      "chip": "ym2612"
    },
    {
      "channel": 0,
      "note": 91,
      "start": 9.1588,
      "duration": 0.0566,
      "velocity": 98,
      "chip": "ym2612"
    },
    {
      "channel": 0,
      "note": 89,
      "start": 9.2157,
      "duration": 0.0118,
      "velocity": 98,
      "chip": "ym2612"
    },
    {
      "channel": 4,
      "note": 86,
      "start": 9.2171,
      "duration": 0.0117,
      "velocity": 98,
      "chip": "ym2612"
    },
    {
      "channel": 0,
      "note": 91,
      "start": 9.2277,
      "duration": 0.0083,
      "velocity": 98,
      "chip": "ym2612"
    },
    {
      "channel": 4,
      "note": 88,
      "start": 9.232,
      "duration": 0.0083,
      "velocity": 98,
      "chip": "ym2612"
    },
    {
      "channel": 0,
      "note": 89,
      "start": 9.2363,
      "duration": 0.0084,
      "velocity": 98,
      "chip": "ym2612"
    },
    {
      "channel": 4,
      "note": 86,
      "start": 9.2431,
      "duration": 0.0084,
      "velocity": 98,
      "chip": "ym2612"
    },
    {
      "channel": 0,
      "note": 91,
      "start": 9.2449,
      "duration": 0.0082,
      "velocity": 98,
      "chip": "ym2612"
    },
    {
      "channel": 0,
      "note": 89,
      "start": 9.2534,
      "duration": 0.0089,
      "velocity": 98,
      "chip": "ym2612"
    },
    {
      "channel": 1,
      "note": 58,
      "start": 9.2539,
      "duration": 0.0178,
      "velocity": 82,
      "chip": "ym2612"
    },
    {
      "channel": 4,
      "note": 88,
      "start": 9.2551,
      "duration": 0.0086,
      "velocity": 98,
      "chip": "ym2612"
    },
    {
      "channel": 0,
      "note": 91,
      "start": 9.2625,
      "duration": 0.0085,
      "velocity": 98,
      "chip": "ym2612"
    },
    {
      "channel": 4,
      "note": 86,
      "start": 9.2667,
      "duration": 0.0084,
      "velocity": 98,
      "chip": "ym2612"
    },
    {
      "channel": 0,
      "note": 89,
      "start": 9.2713,
      "duration": 0.0101,
      "velocity": 98,
      "chip": "ym2612"
    },
    {
      "channel": 4,
      "note": 88,
      "start": 9.2783,
      "duration": 0.0421,
      "velocity": 98,
      "chip": "ym2612"
    },
    {
      "channel": 0,
      "note": 91,
      "start": 9.2816,
      "duration": 0.0566,
      "velocity": 98,
      "chip": "ym2612"
    },
    {
      "channel": 0,
      "note": 89,
      "start": 9.3385,
      "duration": 0.0121,
      "velocity": 98,
      "chip": "ym2612"
    },
    {
      "channel": 4,
      "note": 86,
      "start": 9.3399,
      "duration": 0.0121,
      "velocity": 98,
      "chip": "ym2612"
    },
    {
      "channel": 0,
      "note": 91,
      "start": 9.3509,
      "duration": 0.0087,
      "velocity": 98,
      "chip": "ym2612"
    },
    {
      "channel": 4,
      "note": 88,
      "start": 9.3553,
      "duration": 0.0088,
      "velocity": 98,
      "chip": "ym2612"
    },
    {
      "channel": 0,
      "note": 89,
      "start": 9.3598,
      "duration": 0.009,
      "velocity": 98,
      "chip": "ym2612"
    },
    {
      "channel": 4,
      "note": 86,
      "start": 9.3671,
      "duration": 0.009,
      "velocity": 98,
      "chip": "ym2612"
    },
    {
      "channel": 0,
      "note": 91,
      "start": 9.3691,
      "duration": 0.0086,
      "velocity": 98,
      "chip": "ym2612"
    },
    {
      "channel": 0,
      "note": 86,
      "start": 9.378,
      "duration": 0.1734,
      "velocity": 98,
      "chip": "ym2612"
    },
    {
      "channel": 1,
      "note": 58,
      "start": 9.3785,
      "duration": 0.0145,
      "velocity": 82,
      "chip": "ym2612"
    },
    {
      "channel": 2,
      "note": 74,
      "start": 9.379,
      "duration": 0.1348,
      "velocity": 104,
      "chip": "ym2612"
    },
    {
      "channel": 3,
      "note": 70,
      "start": 9.3797,
      "duration": 0.1344,
      "velocity": 104,
      "chip": "ym2612"
    },
    {
      "channel": 4,
      "note": 88,
      "start": 9.3804,
      "duration": 0.153,
      "velocity": 98,
      "chip": "ym2612"
    },
    {
      "channel": 0,
      "note": 88,
      "start": 9.5516,
      "duration": 0.0159,
      "velocity": 98,
      "chip": "ym2612"
    },
    {
      "channel": 1,
      "note": 57,
      "start": 9.5522,
      "duration": 0.0209,
      "velocity": 82,
      "chip": "ym2612"
    },
    {
      "channel": 2,
      "note": 72,
      "start": 9.5527,
      "duration": 0.0154,
      "velocity": 104,
      "chip": "ym2612"
    },
    {
      "channel": 3,
      "note": 70,
      "start": 9.5533,
      "duration": 0.0151,
      "velocity": 104,
      "chip": "ym2612"
    },
    {
      "channel": 4,
      "note": 82,
      "start": 9.554,
      "duration": 0.0093,
      "velocity": 98,
      "chip": "ym2612"
    },
    {
      "channel": 0,
      "note": 79,
      "start": 9.64,
      "duration": 0.0198,
      "velocity": 98,
      "chip": "ym2612"
    },
    {
      "channel": 4,
      "note": 84,
      "start": 9.6415,
      "duration": 0.0168,
      "velocity": 98,
      "chip": "ym2612"
    },
    {
      "channel": 0,
      "note": 84,
      "start": 9.6601,
      "duration": 0.0174,
      "velocity": 98,
      "chip": "ym2612"
    },
    {
      "channel": 2,
      "note": 72,
      "start": 9.6608,
      "duration": 0.0119,
      "velocity": 104,
      "chip": "ym2612"
    },
    {
      "channel": 3,
      "note": 67,
      "start": 9.6615,
      "duration": 0.0115,
      "velocity": 104,
      "chip": "ym2612"
    },
    {
      "channel": 4,
      "note": 76,
      "start": 9.6622,
      "duration": 0.0139,
      "velocity": 98,
      "chip": "ym2612"
    },
    {
      "channel": 0,
      "note": 91,
      "start": 9.6778,
      "duration": 0.0098,
      "velocity": 98,
      "chip": "ym2612"
    },
    {
      "channel": 1,
      "note": 57,
      "start": 9.6783,
      "duration": 0.0181,
      "velocity": 82,
      "chip": "ym2612"
    },
    {
      "channel": 2,
      "note": 72,
      "start": 9.6788,
      "duration": 0.2438,
      "velocity": 104,
      "chip": "ym2612"
    },
    {
      "channel": 3,
      "note": 67,
      "start": 9.6795,
      "duration": 0.2435,
      "velocity": 104,
      "chip": "ym2612"
    },
    {
      "channel": 4,
      "note": 79,
      "start": 9.6802,
      "duration": 0.0088,
      "velocity": 98,
      "chip": "ym2612"
    },
    {
      "channel": 0,
      "note": 93,
      "start": 9.6878,
      "duration": 0.008,
      "velocity": 98,
      "chip": "ym2612"
    },
    {
      "channel": 4,
      "note": 88,
      "start": 9.6917,
      "duration": 0.008,
      "velocity": 98,
      "chip": "ym2612"
    },
    {
      "channel": 0,
      "note": 91,
      "start": 9.6961,
      "duration": 0.0096,
      "velocity": 98,
      "chip": "ym2612"
    },
    {
      "channel": 4,
      "note": 89,
      "start": 9.7027,
      "duration": 0.042,
      "velocity": 98,
      "chip": "ym2612"
    },
    {
      "channel": 0,
      "note": 93,
      "start": 9.706,
      "duration": 0.0566,
      "velocity": 98,
      "chip": "ym2612"
    },
    {
      "channel": 0,
      "note": 91,
      "start": 9.7628,
      "duration": 0.0117,
      "velocity": 98,
      "chip": "ym2612"
    },
    {
      "channel": 4,
      "note": 88,
      "start": 9.7642,
      "duration": 0.0117,
      "velocity": 98,
      "chip": "ym2612"
    },
    {
      "channel": 0,
      "note": 93,
      "start": 9.7748,
      "duration": 0.0083,
      "velocity": 98,
      "chip": "ym2612"
    },
    {
      "channel": 4,
      "note": 89,
      "start": 9.7791,
      "duration": 0.0083,
      "velocity": 98,
      "chip": "ym2612"
    },
    {
      "channel": 0,
      "note": 91,
      "start": 9.7834,
      "duration": 0.0083,
      "velocity": 98,
      "chip": "ym2612"
    },
    {
      "channel": 4,
      "note": 88,
      "start": 9.7901,
      "duration": 0.0084,
      "velocity": 98,
      "chip": "ym2612"
    },
    {
      "channel": 0,
      "note": 93,
      "start": 9.792,
      "duration": 0.0081,
      "velocity": 98,
      "chip": "ym2612"
    },
    {
      "channel": 0,
      "note": 91,
      "start": 9.8003,
      "duration": 0.009,
      "velocity": 98,
      "chip": "ym2612"
    },
    {
      "channel": 1,
      "note": 57,
      "start": 9.8009,
      "duration": 0.0176,
      "velocity": 82,
      "chip": "ym2612"
    },
    {
      "channel": 4,
      "note": 89,
      "start": 9.8021,
      "duration": 0.0086,
      "velocity": 98,
      "chip": "ym2612"
    },
    {
      "channel": 0,
      "note": 93,
      "start": 9.8095,
      "duration": 0.0084,
      "velocity": 98,
      "chip": "ym2612"
    },
    {
      "channel": 4,
      "note": 88,
      "start": 9.8137,
      "duration": 0.0084,
      "velocity": 98,
      "chip": "ym2612"
    },
    {
      "channel": 0,
      "note": 91,
      "start": 9.8182,
      "duration": 0.0101,
      "velocity": 98,
      "chip": "ym2612"
    },
    {
      "channel": 4,
      "note": 89,
      "start": 9.8252,
      "duration": 0.0421,
      "velocity": 98,
      "chip": "ym2612"
    },
    {
      "channel": 0,
      "note": 93,
      "start": 9.8285,
      "duration": 0.0568,
      "velocity": 98,
      "chip": "ym2612"
    },
    {
      "channel": 0,
      "note": 91,
      "start": 9.8855,
      "duration": 0.0122,
      "velocity": 98,
      "chip": "ym2612"
    },
    {
      "channel": 4,
      "note": 88,
      "start": 9.887,
      "duration": 0.0122,
      "velocity": 98,
      "chip": "ym2612"
    },
    {
      "channel": 0,
      "note": 93,
      "start": 9.8979,
      "duration": 0.0104,
      "velocity": 98,
      "chip": "ym2612"
    },
    {
      "channel": 4,
      "note": 89,
      "start": 9.9024,
      "duration": 0.0104,
      "velocity": 98,
      "chip": "ym2612"
    },
    {
      "channel": 0,
      "note": 91,
      "start": 9.9085,
      "duration": 0.0103,
      "velocity": 98,
      "chip": "ym2612"
    },
    {
      "channel": 4,
      "note": 88,
      "start": 9.9159,
      "duration": 0.0103,
      "velocity": 98,
      "chip": "ym2612"
    },
    {
      "channel": 0,
      "note": 93,
      "start": 9.9191,
      "duration": 0.0101,
      "velocity": 98,
      "chip": "ym2612"
    },
    {
      "channel": 0,
      "note": 88,
      "start": 9.9294,
      "duration": 0.0691,
      "velocity": 98,
      "chip": "ym2612"
    },
    {
      "channel": 1,
      "note": 57,
      "start": 9.9299,
      "duration": 0.0188,
      "velocity": 82,
      "chip": "ym2612"
    },
    {
      "channel": 2,
      "note": 72,
      "start": 9.9305,
      "duration": 0.063,
      "velocity": 104,
      "chip": "ym2612"
    },
    {
      "channel": 3,
      "note": 67,
      "start": 9.9312,
      "duration": 0.0627,
      "velocity": 104,
      "chip": "ym2612"
    },
    {
      "channel": 4,
      "note": 89,
      "start": 9.9319,
      "duration": 0.0651,
      "velocity": 98,
      "chip": "ym2612"
    },
    {
      "channel": 0,
      "note": 90,
      "start": 9.9987,
      "duration": 0.0099,
      "velocity": 98,
      "chip": "ym2612"
    },
    {
      "channel": 1,
      "note": 50,
      "start": 9.9993,
      "duration": 0.0183,
      "velocity": 82,
      "chip": "ym2612"
    },
    {
      "channel": 2,
      "note": 69,
      "start": 9.9998,
      "duration": 0.2379,
      "velocity": 104,
      "chip": "ym2612"
    },
    {
      "channel": 3,
      "note": 67,
      "start": 10.0004,
      "duration": 0.2341,
      "velocity": 104,
      "chip": "ym2612"
    },
    {
      "channel": 4,
      "note": 84,
      "start": 10.0011,
      "duration": 0.0089,
      "velocity": 98,
      "chip": "ym2612"
    },
    {
      "channel": 0,
      "note": 91,
      "start": 10.0089,
      "duration": 0.008,
      "velocity": 98,
      "chip": "ym2612"
    },
    {
      "channel": 4,
      "note": 86,
      "start": 10.0128,
      "duration": 0.008,
      "velocity": 98,
      "chip": "ym2612"
    },
    {
      "channel": 0,
      "note": 90,
      "start": 10.0172,
      "duration": 0.0095,
      "velocity": 98,
      "chip": "ym2612"
    },
    {
      "channel": 4,
      "note": 88,
      "start": 10.0238,
      "duration": 0.0418,
      "velocity": 98,
      "chip": "ym2612"
    },
    {
      "channel": 0,
      "note": 91,
      "start": 10.027,
      "duration": 0.0566,
      "velocity": 98,
      "chip": "ym2612"
    },
    {
      "channel": 0,
      "note": 90,
      "start": 10.0839,
      "duration": 0.0118,
      "velocity": 98,
      "chip": "ym2612"
    },
    {
      "channel": 4,
      "note": 86,
      "start": 10.0853,
      "duration": 0.0117,
      "velocity": 98,
      "chip": "ym2612"
    },
    {
      "channel": 0,
      "note": 91,
      "start": 10.0959,
      "duration": 0.0084,
      "velocity": 98,
      "chip": "ym2612"
    },
    {
      "channel": 4,
      "note": 88,
      "start": 10.1001,
      "duration": 0.0084,
      "velocity": 98,
      "chip": "ym2612"
    },
    {
      "channel": 0,
      "note": 90,
      "start": 10.1045,
      "duration": 0.0084,
      "velocity": 98,
      "chip": "ym2612"
    },
    {
      "channel": 4,
      "note": 86,
      "start": 10.1113,
      "duration": 0.0083,
      "velocity": 98,
      "chip": "ym2612"
    },
    {
      "channel": 0,
      "note": 91,
      "start": 10.1131,
      "duration": 0.0081,
      "velocity": 98,
      "chip": "ym2612"
    },
    {
      "channel": 0,
      "note": 90,
      "start": 10.1215,
      "duration": 0.0089,
      "velocity": 98,
      "chip": "ym2612"
    },
    {
      "channel": 1,
      "note": 50,
      "start": 10.122,
      "duration": 0.0178,
      "velocity": 82,
      "chip": "ym2612"
    },
    {
      "channel": 4,
      "note": 88,
      "start": 10.1233,
      "duration": 0.0086,
      "velocity": 98,
      "chip": "ym2612"
    },
    {
      "channel": 0,
      "note": 91,
      "start": 10.1307,
      "duration": 0.0085,
      "velocity": 98,
      "chip": "ym2612"
    },
    {
      "channel": 4,
      "note": 86,
      "start": 10.1349,
      "duration": 0.0084,
      "velocity": 98,
      "chip": "ym2612"
    },
    {
      "channel": 0,
      "note": 90,
      "start": 10.1395,
      "duration": 0.0101,
      "velocity": 98,
      "chip": "ym2612"
    },
    {
      "channel": 4,
      "note": 88,
      "start": 10.1465,
      "duration": 0.0421,
      "velocity": 98,
      "chip": "ym2612"
    },
    {
      "channel": 0,
      "note": 91,
      "start": 10.1498,
      "duration": 0.0566,
      "velocity": 98,
      "chip": "ym2612"
    },
    {
      "channel": 0,
      "note": 90,
      "start": 10.2066,
      "duration": 0.0121,
      "velocity": 98,
      "chip": "ym2612"
    },
    {
      "channel": 4,
      "note": 86,
      "start": 10.2081,
      "duration": 0.012,
      "velocity": 98,
      "chip": "ym2612"
    },
    {
      "channel": 0,
      "note": 91,
      "start": 10.2189,
      "duration": 0.0087,
      "velocity": 98,
      "chip": "ym2612"
    },
    {
      "channel": 4,
      "note": 88,
      "start": 10.2234,
      "duration": 0.0088,
      "velocity": 98,
      "chip": "ym2612"
    },
    {
      "channel": 0,
      "note": 90,
      "start": 10.2279,
      "duration": 0.009,
      "velocity": 98,
      "chip": "ym2612"
    },
    {
      "channel": 4,
      "note": 86,
      "start": 10.2352,
      "duration": 0.0089,
      "velocity": 98,
      "chip": "ym2612"
    },
    {
      "channel": 0,
      "note": 91,
      "start": 10.2371,
      "duration": 0.0086,
      "velocity": 98,
      "chip": "ym2612"
    },
    {
      "channel": 0,
      "note": 90,
      "start": 10.2459,
      "duration": 0.0088,
      "velocity": 98,
      "chip": "ym2612"
    },
    {
      "channel": 1,
      "note": 50,
      "start": 10.2464,
      "duration": 0.0175,
      "velocity": 82,
      "chip": "ym2612"
    },
    {
      "channel": 4,
      "note": 88,
      "start": 10.2476,
      "duration": 0.0085,
      "velocity": 98,
      "chip": "ym2612"
    },
    {
      "channel": 0,
      "note": 91,
      "start": 10.255,
      "duration": 0.0084,
      "velocity": 98,
      "chip": "ym2612"
    },
    {
      "channel": 4,
      "note": 86,
      "start": 10.259,
      "duration": 0.0083,
      "velocity": 98,
      "chip": "ym2612"
    },
    {
      "channel": 0,
      "note": 90,
      "start": 10.2636,
      "duration": 0.0103,
      "velocity": 98,
      "chip": "ym2612"
    },
    {
      "channel": 4,
      "note": 88,
      "start": 10.2703,
      "duration": 0.0426,
      "velocity": 98,
      "chip": "ym2612"
    },
    {
      "channel": 0,
      "note": 91,
      "start": 10.2741,
      "duration": 0.0567,
      "velocity": 98,
      "chip": "ym2612"
    },
    {
      "channel": 0,
      "note": 90,
      "start": 10.3311,
      "duration": 0.0127,
      "velocity": 98,
      "chip": "ym2612"
    },
    {
      "channel": 2,
      "note": 69,
      "start": 10.3318,
      "duration": 0.0158,
      "velocity": 104,
      "chip": "ym2612"
    },
    {
      "channel": 3,
      "note": 66,
      "start": 10.3325,
      "duration": 0.0155,
      "velocity": 104,
      "chip": "ym2612"
    },
    {
      "channel": 4,
      "note": 86,
      "start": 10.3332,
      "duration": 0.012,
      "velocity": 98,
      "chip": "ym2612"
    },
    {
      "channel": 0,
      "note": 91,
      "start": 10.344,
      "duration": 0.0088,
      "velocity": 98,
      "chip": "ym2612"
    },
    {
      "channel": 4,
      "note": 88,
      "start": 10.3485,
      "duration": 0.0091,
      "velocity": 98,
      "chip": "ym2612"
    },
    {
      "channel": 0,
      "note": 90,
      "start": 10.3529,
      "duration": 0.0093,
      "velocity": 98,
      "chip": "ym2612"
    },
    {
      "channel": 2,
      "note": 69,
      "start": 10.3537,
      "duration": 0.0122,
      "velocity": 104,
      "chip": "ym2612"
    },
    {
      "channel": 3,
      "note": 62,
      "start": 10.3544,
      "duration": 0.0119,
      "velocity": 104,
      "chip": "ym2612"
    },
    {
      "channel": 4,
      "note": 86,
      "start": 10.3606,
      "duration": 0.0086,
      "velocity": 98,
      "chip": "ym2612"
    },
    {
      "channel": 0,
      "note": 91,
      "start": 10.3625,
      "duration": 0.0083,
      "velocity": 98,
      "chip": "ym2612"
    },
    {
      "channel": 0,
      "note": 90,
      "start": 10.3711,
      "duration": 0.0097,
      "velocity": 98,
      "chip": "ym2612"
    },
    {
      "channel": 1,
      "note": 50,
      "start": 10.3716,
      "duration": 0.0154,
      "velocity": 82,
      "chip": "ym2612"
    },
    {
      "channel": 2,
      "note": 74,
      "start": 10.3722,
      "duration": 0.012,
      "velocity": 104,
      "chip": "ym2612"
    },
    {
      "channel": 3,
      "note": 62,
      "start": 10.3728,
      "duration": 0.0117,
      "velocity": 104,
      "chip": "ym2612"
    },
    {
      "channel": 4,
      "note": 88,
      "start": 10.3735,
      "duration": 0.0087,
      "velocity": 98,
      "chip": "ym2612"
    },
    {
      "channel": 0,
      "note": 91,
      "start": 10.381,
      "duration": 0.0083,
      "velocity": 98,
      "chip": "ym2612"
    },
    {
      "channel": 4,
      "note": 86,
      "start": 10.3851,
      "duration": 0.0084,
      "velocity": 98,
      "chip": "ym2612"
    },
    {
      "channel": 0,
      "note": 90,
      "start": 10.3895,
      "duration": 0.0094,
      "velocity": 98,
      "chip": "ym2612"
    },
    {
      "channel": 4,
      "note": 88,
      "start": 10.3964,
      "duration": 0.0414,
      "velocity": 98,
      "chip": "ym2612"
    },
    {
      "channel": 0,
      "note": 91,
      "start": 10.3992,
      "duration": 0.0566,
      "velocity": 98,
      "chip": "ym2612"
    },
    {
      "channel": 0,
      "note": 90,
      "start": 10.456,
      "duration": 0.0124,
      "velocity": 98,
      "chip": "ym2612"
    },
    {
      "channel": 2,
      "note": 79,
      "start": 10.4568,
      "duration": 0.0149,
      "velocity": 104,
      "chip": "ym2612"
    },
    {
      "channel": 3,
      "note": 69,
      "start": 10.4574,
      "duration": 0.0146,
      "velocity": 104,
      "chip": "ym2612"
    },
    {
      "channel": 4,
      "note": 86,
      "start": 10.4581,
      "duration": 0.0116,
      "velocity": 98,
      "chip": "ym2612"
    },
    {
      "channel": 0,
      "note": 91,
      "start": 10.4686,
      "duration": 0.0082,
      "velocity": 98,
      "chip": "ym2612"
    },
    {
      "channel": 4,
      "note": 88,
      "start": 10.4727,
      "duration": 0.0083,
      "velocity": 98,
      "chip": "ym2612"
    },
    {
      "channel": 0,
      "note": 90,
      "start": 10.4771,
      "duration": 0.0101,
      "velocity": 98,
      "chip": "ym2612"
    },
    {
      "channel": 4,
      "note": 86,
      "start": 10.4838,
      "duration": 0.0424,
      "velocity": 98,
      "chip": "ym2612"
    },
    {
      "channel": 0,
      "note": 91,
      "start": 10.4874,
      "duration": 0.0567,
      "velocity": 98,
      "chip": "ym2612"
    },
    {
      "channel": 0,
      "note": 90,
      "start": 10.5443,
      "duration": 0.0129,
      "velocity": 98,
      "chip": "ym2612"
    },
    {
      "channel": 1,
      "note": 50,
      "start": 10.5448,
      "duration": 0.0185,
      "velocity": 82,
      "chip": "ym2612"
    },
    {
      "channel": 2,
      "note": 78,
      "start": 10.5454,
      "duration": 0.4474,
      "velocity": 104,
      "chip": "ym2612"
    },
    {
      "channel": 3,
      "note": 74,
      "start": 10.546,
      "duration": 0.4471,
      "velocity": 104,
      "chip": "ym2612"
    },
    {
      "channel": 4,
      "note": 88,
      "start": 10.5467,
      "duration": 0.0119,
      "velocity": 98,
      "chip": "ym2612"
    },
    {
      "channel": 0,
      "note": 91,
      "start": 10.5575,
      "duration": 0.0082,
      "velocity": 98,
      "chip": "ym2612"
    },
    {
      "channel": 4,
      "note": 86,
      "start": 10.5615,
      "duration": 0.0082,
      "velocity": 98,
      "chip": "ym2612"
    },
    {
      "channel": 0,
      "note": 90,
      "start": 10.566,
      "duration": 0.0096,
      "velocity": 98,
      "chip": "ym2612"
    },
    {
      "channel": 4,
      "note": 88,
      "start": 10.5726,
      "duration": 0.0419,
      "velocity": 98,
      "chip": "ym2612"
    },
    {
      "channel": 0,
      "note": 91,
      "start": 10.5758,
      "duration": 0.0567,
      "velocity": 98,
      "chip": "ym2612"
    },
    {
      "channel": 0,
      "note": 90,
      "start": 10.6328,
      "duration": 0.0118,
      "velocity": 98,
      "chip": "ym2612"
    },
    {
      "channel": 4,
      "note": 86,
      "start": 10.6342,
      "duration": 0.0118,
      "velocity": 98,
      "chip": "ym2612"
    },
    {
      "channel": 0,
      "note": 91,
      "start": 10.6449,
      "duration": 0.0085,
      "velocity": 98,
      "chip": "ym2612"
    },
    {
      "channel": 4,
      "note": 88,
      "start": 10.6491,
      "duration": 0.0085,
      "velocity": 98,
      "chip": "ym2612"
    },
    {
      "channel": 0,
      "note": 90,
      "start": 10.6537,
      "duration": 0.0084,
      "velocity": 98,
      "chip": "ym2612"
    },
    {
      "channel": 4,
      "note": 86,
      "start": 10.6605,
      "duration": 0.0084,
      "velocity": 98,
      "chip": "ym2612"
    },
    {
      "channel": 0,
      "note": 91,
      "start": 10.6623,
      "duration": 0.0082,
      "velocity": 98,
      "chip": "ym2612"
    },
    {
      "channel": 0,
      "note": 90,
      "start": 10.6707,
      "duration": 0.0091,
      "velocity": 98,
      "chip": "ym2612"
    },
    {
      "channel": 1,
      "note": 52,
      "start": 10.6713,
      "duration": 0.0178,
      "velocity": 82,
      "chip": "ym2612"
    },
    {
      "channel": 4,
      "note": 88,
      "start": 10.6725,
      "duration": 0.0087,
      "velocity": 98,
      "chip": "ym2612"
    },
    {
      "channel": 0,
      "note": 91,
      "start": 10.68,
      "duration": 0.0085,
      "velocity": 98,
      "chip": "ym2612"
    },
    {
      "channel": 4,
      "note": 86,
      "start": 10.6843,
      "duration": 0.0084,
      "velocity": 98,
      "chip": "ym2612"
    },
    {
      "channel": 0,
      "note": 90,
      "start": 10.6888,
      "duration": 0.01,
      "velocity": 98,
      "chip": "ym2612"
    },
    {
      "channel": 4,
      "note": 88,
      "start": 10.6958,
      "duration": 0.042,
      "velocity": 98,
      "chip": "ym2612"
    },
    {
      "channel": 0,
      "note": 91,
      "start": 10.699,
      "duration": 0.0567,
      "velocity": 98,
      "chip": "ym2612"
    },
    {
      "channel": 0,
      "note": 90,
      "start": 10.7559,
      "duration": 0.0122,
      "velocity": 98,
      "chip": "ym2612"
    },
    {
      "channel": 4,
      "note": 86,
      "start": 10.7574,
      "duration": 0.0122,
      "velocity": 98,
      "chip": "ym2612"
    },
    {
      "channel": 0,
      "note": 91,
      "start": 10.7684,
      "duration": 0.0104,
      "velocity": 98,
      "chip": "ym2612"
    },
    {
      "channel": 4,
      "note": 88,
      "start": 10.7729,
      "duration": 0.0104,
      "velocity": 98,
      "chip": "ym2612"
    },
    {
      "channel": 0,
      "note": 90,
      "start": 10.779,
      "duration": 0.0103,
      "velocity": 98,
      "chip": "ym2612"
    },
    {
      "channel": 4,
      "note": 86,
      "start": 10.7863,
      "duration": 0.0098,
      "velocity": 98,
      "chip": "ym2612"
    },
    {
      "channel": 0,
      "note": 74,
      "start": 10.7981,
      "duration": 0.0061,
      "velocity": 98,
      "chip": "ym2612"
    },
    {
      "channel": 1,
      "note": 54,
      "start": 10.7987,
      "duration": 0.0175,
      "velocity": 82,
      "chip": "ym2612"
    },
    {
      "channel": 0,
      "note": 76,
      "start": 10.8045,
      "duration": 0.0054,
      "velocity": 98,
      "chip": "ym2612"
    },
    {
      "channel": 0,
      "note": 78,
      "start": 10.8101,
      "duration": 0.0055,
      "velocity": 98,
      "chip": "ym2612"
    },
    {
      "channel": 0,
      "note": 79,
      "start": 10.8158,
      "duration": 0.0054,
      "velocity": 98,
      "chip": "ym2612"
    },
    {
      "channel": 0,
      "note": 81,
      "start": 10.8215,
      "duration": 0.0237,
      "velocity": 98,
      "chip": "ym2612"
    },
    {
      "channel": 0,
      "note": 83,
      "start": 10.8454,
      "duration": 0.0376,
      "velocity": 98,
      "chip": "ym2612"
    },
    {
      "channel": 0,
      "note": 85,
      "start": 10.8833,
      "duration": 0.0091,
      "velocity": 98,
      "chip": "ym2612"
    },
    {
      "channel": 0,
      "note": 86,
      "start": 10.8927,
      "duration": 0.0057,
      "velocity": 98,
      "chip": "ym2612"
    },
    {
      "channel": 0,
      "note": 88,
      "start": 10.8986,
      "duration": 0.0054,
      "velocity": 98,
      "chip": "ym2612"
    },
    {
      "channel": 0,
      "note": 90,
      "start": 10.9042,
      "duration": 0.0057,
      "velocity": 98,
      "chip": "ym2612"
    },
    {
      "channel": 0,
      "note": 91,
      "start": 10.9102,
      "duration": 0.0056,
      "velocity": 98,
      "chip": "ym2612"
    },
    {
      "channel": 0,
      "note": 93,
      "start": 10.9161,
      "duration": 0.0077,
      "velocity": 98,
      "chip": "ym2612"
    },
    {
      "channel": 0,
      "note": 95,
      "start": 10.924,
      "duration": 0.0062,
      "velocity": 98,
      "chip": "ym2612"
    },
    {
      "channel": 1,
      "note": 57,
      "start": 10.9246,
      "duration": 0.0185,
      "velocity": 82,
      "chip": "ym2612"
    },
    {
      "channel": 0,
      "note": 97,
      "start": 10.9305,
      "duration": 0.0054,
      "velocity": 98,
      "chip": "ym2612"
    },
    {
      "channel": 0,
      "note": 98,
      "start": 10.9362,
      "duration": 0.0123,
      "velocity": 98,
      "chip": "ym2612"
    },
    {
      "channel": 1,
      "note": 58,
      "start": 10.9984,
      "duration": 0.0117,
      "velocity": 82,
      "chip": "ym2612"
    },
    {
      "channel": 1,
      "note": 58,
      "start": 11.1971,
      "duration": 0.0066,
      "velocity": 82,
      "chip": "ym2612"
    },
    {
      "channel": 1,
      "note": 58,
      "start": 11.2172,
      "duration": 0.5088,
      "velocity": 82,
      "chip": "ym2612"
    },
    {
      "channel": 2,
      "note": 65,
      "start": 11.3337,
      "duration": 0.0412,
      "velocity": 99,
      "chip": "ym2612"
    },
    {
      "channel": 3,
      "note": 74,
      "start": 11.3391,
      "duration": 0.0362,
      "velocity": 99,
      "chip": "ym2612"
    },
    {
      "channel": 2,
      "note": 70,
      "start": 11.3778,
      "duration": 0.0327,
      "velocity": 99,
      "chip": "ym2612"
    },
    {
      "channel": 3,
      "note": 62,
      "start": 11.3784,
      "duration": 0.0323,
      "velocity": 99,
      "chip": "ym2612"
    },
    {
      "channel": 2,
      "note": 74,
      "start": 11.4134,
      "duration": 0.0328,
      "velocity": 99,
      "chip": "ym2612"
    },
    {
      "channel": 3,
      "note": 65,
      "start": 11.414,
      "duration": 0.0324,
      "velocity": 99,
      "chip": "ym2612"
    },
    {
      "channel": 2,
      "note": 81,
      "start": 11.4493,
      "duration": 0.0657,
      "velocity": 99,
      "chip": "ym2612"
    },
    {
      "channel": 3,
      "note": 70,
      "start": 11.4499,
      "duration": 0.0655,
      "velocity": 99,
      "chip": "ym2612"
    },
    {
      "channel": 2,
      "note": 79,
      "start": 11.5179,
      "duration": 0.0327,
      "velocity": 99,
      "chip": "ym2612"
    },
    {
      "channel": 3,
      "note": 77,
      "start": 11.5185,
      "duration": 0.0324,
      "velocity": 99,
      "chip": "ym2612"
    },
    {
      "channel": 2,
      "note": 81,
      "start": 11.5535,
      "duration": 0.0326,
      "velocity": 99,
      "chip": "ym2612"
    },
    {
      "channel": 3,
      "note": 76,
      "start": 11.5541,
      "duration": 0.0323,
      "velocity": 99,
      "chip": "ym2612"
    },
    {
      "channel": 2,
      "note": 77,
      "start": 11.5889,
      "duration": 0.0328,
      "velocity": 99,
      "chip": "ym2612"
    },
    {
      "channel": 3,
      "note": 77,
      "start": 11.5896,
      "duration": 0.0326,
      "velocity": 99,
      "chip": "ym2612"
    },
    {
      "channel": 2,
      "note": 76,
      "start": 11.6247,
      "duration": 0.033,
      "velocity": 99,
      "chip": "ym2612"
    },
    {
      "channel": 3,
      "note": 74,
      "start": 11.6254,
      "duration": 0.0327,
      "velocity": 99,
      "chip": "ym2612"
    },
    {
      "channel": 2,
      "note": 74,
      "start": 11.6605,
      "duration": 0.0329,
      "velocity": 99,
      "chip": "ym2612"
    },
    {
      "channel": 3,
      "note": 69,
      "start": 11.6612,
      "duration": 0.0326,
      "velocity": 99,
      "chip": "ym2612"
    },
    {
      "channel": 2,
      "note": 79,
      "start": 11.6963,
      "duration": 0.0328,
      "velocity": 99,
      "chip": "ym2612"
    },
    {
      "channel": 3,
      "note": 69,
      "start": 11.697,
      "duration": 0.0325,
      "velocity": 99,
      "chip": "ym2612"
    },
    {
      "channel": 1,
      "note": 57,
      "start": 11.7319,
      "duration": 0.0119,
      "velocity": 82,
      "chip": "ym2612"
    },
    {
      "channel": 2,
      "note": 76,
      "start": 11.7325,
      "duration": 0.1793,
      "velocity": 99,
      "chip": "ym2612"
    },
    {
      "channel": 3,
      "note": 74,
      "start": 11.7331,
      "duration": 0.179,
      "velocity": 99,
      "chip": "ym2612"
    },
    {
      "channel": 1,
      "note": 57,
      "start": 11.9307,
      "duration": 0.0074,
      "velocity": 82,
      "chip": "ym2612"
    },
    {
      "channel": 2,
      "note": 75,
      "start": 11.9312,
      "duration": 0.0071,
      "velocity": 99,
      "chip": "ym2612"
    },
    {
      "channel": 3,
      "note": 72,
      "start": 11.9319,
      "duration": 0.0067,
      "velocity": 99,
      "chip": "ym2612"
    },
    {
      "channel": 2,
      "note": 74,
      "start": 11.9413,
      "duration": 0.0031,
      "velocity": 99,
      "chip": "ym2612"
    },
    {
      "channel": 3,
      "note": 71,
      "start": 11.942,
      "duration": 0.0028,
      "velocity": 99,
      "chip": "ym2612"
    },
    {
      "channel": 2,
      "note": 73,
      "start": 11.9475,
      "duration": 0.0031,
      "velocity": 99,
      "chip": "ym2612"
    },
    {
      "channel": 3,
      "note": 69,
      "start": 11.9482,
      "duration": 0.0027,
      "velocity": 99,
      "chip": "ym2612"
    },
    {
      "channel": 1,
      "note": 57,
      "start": 11.9532,
      "duration": 0.5119,
      "velocity": 82,
      "chip": "ym2612"
    },
    {
      "channel": 2,
      "note": 72,
      "start": 11.9538,
      "duration": 0.4781,
      "velocity": 99,
      "chip": "ym2612"
    },
    {
      "channel": 3,
      "note": 68,
      "start": 11.9544,
      "duration": 0.4778,
      "velocity": 99,
      "chip": "ym2612"
    },
    {
      "channel": 0,
      "note": 79,
      "start": 12.068,
      "duration": 0.0353,
      "velocity": 98,
      "chip": "ym2612"
    },
    {
      "channel": 4,
      "note": 88,
      "start": 12.0695,
      "duration": 0.0323,
      "velocity": 98,
      "chip": "ym2612"
    },
    {
      "channel": 0,
      "note": 84,
      "start": 12.1035,
      "duration": 0.0354,
      "velocity": 98,
      "chip": "ym2612"
    },
    {
      "channel": 4,
      "note": 76,
      "start": 12.1051,
      "duration": 0.0323,
      "velocity": 98,
      "chip": "ym2612"
    },
    {
      "channel": 0,
      "note": 88,
      "start": 12.1391,
      "duration": 0.0354,
      "velocity": 98,
      "chip": "ym2612"
    },
    {
      "channel": 4,
      "note": 79,
      "start": 12.1406,
      "duration": 0.0324,
      "velocity": 98,
      "chip": "ym2612"
    },
    {
      "channel": 0,
      "note": 91,
      "start": 12.1747,
      "duration": 0.0526,
      "velocity": 98,
      "chip": "ym2612"
    },
    {
      "channel": 4,
      "note": 84,
      "start": 12.1762,
      "duration": 0.0681,
      "velocity": 98,
      "chip": "ym2612"
    },
    {
      "channel": 0,
      "note": 91,
      "start": 12.2276,
      "duration": 0.006,
      "velocity": 98,
      "chip": "ym2612"
    },
    {
      "channel": 0,
      "note": 90,
      "start": 12.2339,
      "duration": 0.0062,
      "velocity": 98,
      "chip": "ym2612"
    },
    {
      "channel": 0,
      "note": 89,
      "start": 12.2403,
      "duration": 0.0072,
      "velocity": 98,
      "chip": "ym2612"
    },
    {
      "channel": 0,
      "note": 88,
      "start": 12.2478,
      "duration": 0.0128,
      "velocity": 98,
      "chip": "ym2612"
    },
    {
      "channel": 4,
      "note": 84,
      "start": 12.2493,
      "duration": 0.0062,
      "velocity": 98,
      "chip": "ym2612"
    },
    {
      "channel": 4,
      "note": 84,
      "start": 12.2584,
      "duration": 0.0066,
      "velocity": 98,
      "chip": "ym2612"
    },
    {
      "channel": 0,
      "note": 89,
      "start": 12.2608,
      "duration": 0.0121,
      "velocity": 98,
      "chip": "ym2612"
    },
    {
      "channel": 4,
      "note": 86,
      "start": 12.2679,
      "duration": 0.0066,
      "velocity": 98,
      "chip": "ym2612"
    },
    {
      "channel": 0,
      "note": 88,
      "start": 12.2732,
      "duration": 0.012,
      "velocity": 98,
      "chip": "ym2612"
    },
    {
      "channel": 4,
      "note": 84,
      "start": 12.2776,
      "duration": 0.006,
      "velocity": 98,
      "chip": "ym2612"
    },
    {
      "channel": 0,
      "note": 89,
      "start": 12.2854,
      "duration": 0.0128,
      "velocity": 98,
      "chip": "ym2612"
    },
    {
      "channel": 4,
      "note": 86,
      "start": 12.2868,
      "duration": 0.0063,
      "velocity": 98,
      "chip": "ym2612"
    },
    {
      "channel": 4,
      "note": 84,
      "start": 12.2961,
      "duration": 0.0067,
      "velocity": 98,
      "chip": "ym2612"
    },
    {
      "channel": 0,
      "note": 88,
      "start": 12.2984,
      "duration": 0.012,
      "velocity": 98,
      "chip": "ym2612"
    },
    {
      "channel": 4,
      "note": 86,
      "start": 12.3056,
      "duration": 0.0063,
      "velocity": 98,
      "chip": "ym2612"
    },
    {
      "channel": 0,
      "note": 89,
      "start": 12.3107,
      "duration": 0.012,
      "velocity": 98,
      "chip": "ym2612"
    },
    {
      "channel": 4,
      "note": 84,
      "start": 12.3151,
      "duration": 0.0061,
      "velocity": 98,
      "chip": "ym2612"
    },
    {
      "channel": 0,
      "note": 88,
      "start": 12.3229,
      "duration": 0.0126,
      "velocity": 98,
      "chip": "ym2612"
    },
    {
      "channel": 4,
      "note": 86,
      "start": 12.3244,
      "duration": 0.0061,
      "velocity": 98,
      "chip": "ym2612"
    },
    {
      "channel": 4,
      "note": 84,
      "start": 12.3336,
      "duration": 0.0061,
      "velocity": 98,
      "chip": "ym2612"
    },
    {
      "channel": 0,
      "note": 89,
      "start": 12.3357,
      "duration": 0.0119,
      "velocity": 98,
      "chip": "ym2612"
    },
    {
      "channel": 4,
      "note": 86,
      "start": 12.3426,
      "duration": 0.0065,
      "velocity": 98,
      "chip": "ym2612"
    },
    {
      "channel": 0,
      "note": 88,
      "start": 12.3478,
      "duration": 0.0115,
      "velocity": 98,
      "chip": "ym2612"
    },
    {
      "channel": 4,
      "note": 84,
      "start": 12.352,
      "duration": 0.0058,
      "velocity": 98,
      "chip": "ym2612"
    },
    {
      "channel": 0,
      "note": 89,
      "start": 12.3595,
      "duration": 0.0125,
      "velocity": 98,
      "chip": "ym2612"
    },
    {
      "channel": 4,
      "note": 86,
      "start": 12.361,
      "duration": 0.0062,
      "velocity": 98,
      "chip": "ym2612"
    },
    {
      "channel": 4,
      "note": 84,
      "start": 12.3701,
      "duration": 0.0061,
      "velocity": 98,
      "chip": "ym2612"
    },
    {
      "channel": 0,
      "note": 88,
      "start": 12.3723,
      "duration": 0.0117,
      "velocity": 98,
      "chip": "ym2612"
    },
    {
      "channel": 4,
      "note": 86,
      "start": 12.3791,
      "duration": 0.0063,
      "velocity": 98,
      "chip": "ym2612"
    },
    {
      "channel": 0,
      "note": 89,
      "start": 12.3842,
      "duration": 0.0115,
      "velocity": 98,
      "chip": "ym2612"
    },
    {
      "channel": 4,
      "note": 84,
      "start": 12.3883,
      "duration": 0.006,
      "velocity": 98,
      "chip": "ym2612"
    },
    {
      "channel": 0,
      "note": 88,
      "start": 12.396,
      "duration": 0.0124,
      "velocity": 98,
      "chip": "ym2612"
    },
    {
      "channel": 4,
      "note": 86,
      "start": 12.3975,
      "duration": 0.0061,
      "velocity": 98,
      "chip": "ym2612"
    },
    {
      "channel": 4,
      "note": 84,
      "start": 12.4065,
      "duration": 0.0061,
      "velocity": 98,
      "chip": "ym2612"
    },
    {
      "channel": 0,
      "note": 89,
      "start": 12.4086,
      "duration": 0.0136,
      "velocity": 98,
      "chip": "ym2612"
    },
    {
      "channel": 4,
      "note": 86,
      "start": 12.4172,
      "duration": 0.0065,
      "velocity": 98,
      "chip": "ym2612"
    },
    {
      "channel": 0,
      "note": 88,
      "start": 12.4224,
      "duration": 0.0117,
      "velocity": 98,
      "chip": "ym2612"
    },
    {
      "channel": 4,
      "note": 84,
      "start": 12.4268,
      "duration": 0.0058,
      "velocity": 98,
      "chip": "ym2612"
    },
    {
      "channel": 0,
      "note": 89,
      "start": 12.4344,
      "duration": 0.0124,
      "velocity": 98,
      "chip": "ym2612"
    },
    {
      "channel": 4,
      "note": 86,
      "start": 12.4361,
      "duration": 0.0061,
      "velocity": 98,
      "chip": "ym2612"
    },
    {
      "channel": 4,
      "note": 84,
      "start": 12.4449,
      "duration": 0.006,
      "velocity": 98,
      "chip": "ym2612"
    },
    {
      "channel": 0,
      "note": 88,
      "start": 12.4471,
      "duration": 0.0116,
      "velocity": 98,
      "chip": "ym2612"
    },
    {
      "channel": 4,
      "note": 86,
      "start": 12.4538,
      "duration": 0.0063,
      "velocity": 98,
      "chip": "ym2612"
    },
    {
      "channel": 0,
      "note": 89,
      "start": 12.459,
      "duration": 0.0113,
      "velocity": 98,
      "chip": "ym2612"
    },
    {
      "channel": 4,
      "note": 84,
      "start": 12.463,
      "duration": 0.0057,
      "velocity": 98,
      "chip": "ym2612"
    },
    {
      "channel": 1,
      "note": 55,
      "start": 12.4709,
      "duration": 0.0468,
      "velocity": 82,
      "chip": "ym2612"
    },
    {
      "channel": 2,
      "note": 70,
      "start": 12.4714,
      "duration": 0.014,
      "velocity": 99,
      "chip": "ym2612"
    },
    {
      "channel": 3,
      "note": 67,
      "start": 12.472,
      "duration": 0.0137,
      "velocity": 99,
      "chip": "ym2612"
    },
    {
      "channel": 2,
      "note": 74,
      "start": 12.5751,
      "duration": 0.0137,
      "velocity": 99,
      "chip": "ym2612"
    },
    {
      "channel": 3,
      "note": 65,
      "start": 12.5758,
      "duration": 0.0134,
      "velocity": 99,
      "chip": "ym2612"
    },
    {
      "channel": 1,
      "note": 55,
      "start": 12.5916,
      "duration": 0.0467,
      "velocity": 82,
      "chip": "ym2612"
    },
    {
      "channel": 2,
      "note": 81,
      "start": 12.5921,
      "duration": 0.2405,
      "velocity": 99,
      "chip": "ym2612"
    },
    {
      "channel": 3,
      "note": 70,
      "start": 12.5927,
      "duration": 0.2402,
      "velocity": 99,
      "chip": "ym2612"
    },
    {
      "channel": 1,
      "note": 53,
      "start": 12.7123,
      "duration": 0.0468,
      "velocity": 82,
      "chip": "ym2612"
    },
    {
      "channel": 1,
      "note": 53,
      "start": 12.8353,
      "duration": 0.0468,
      "velocity": 82,
      "chip": "ym2612"
    },
    {
      "channel": 2,
      "note": 77,
      "start": 12.8359,
      "duration": 0.1539,
      "velocity": 99,
      "chip": "ym2612"
    },
    {
      "channel": 3,
      "note": 77,
      "start": 12.8365,
      "duration": 0.1536,
      "velocity": 99,
      "chip": "ym2612"
    },
    {
      "channel": 1,
      "note": 52,
      "start": 13.0088,
      "duration": 0.0504,
      "velocity": 82,
      "chip": "ym2612"
    },
    {
      "channel": 2,
      "note": 80,
      "start": 13.0094,
      "duration": 0.0174,
      "velocity": 99,
      "chip": "ym2612"
    },
    {
      "channel": 3,
      "note": 74,
      "start": 13.01,
      "duration": 0.0171,
      "velocity": 99,
      "chip": "ym2612"
    },
    {
      "channel": 2,
      "note": 76,
      "start": 13.0976,
      "duration": 0.0171,
      "velocity": 99,
      "chip": "ym2612"
    },
    {
      "channel": 3,
      "note": 76,
      "start": 13.0982,
      "duration": 0.0167,
      "velocity": 99,
      "chip": "ym2612"
    },
    {
      "channel": 2,
      "note": 80,
      "start": 13.1175,
      "duration": 0.0138,
      "velocity": 99,
      "chip": "ym2612"
    },
    {
      "channel": 3,
      "note": 71,
      "start": 13.1181,
      "duration": 0.0135,
      "velocity": 99,
      "chip": "ym2612"
    },
    {
      "channel": 1,
      "note": 52,
      "start": 13.1339,
      "duration": 0.0469,
      "velocity": 82,
      "chip": "ym2612"
    },
    {
      "channel": 2,
      "note": 83,
      "start": 13.1345,
      "duration": 0.2404,
      "velocity": 99,
      "chip": "ym2612"
    },
    {
      "channel": 3,
      "note": 76,
      "start": 13.1351,
      "duration": 0.2402,
      "velocity": 99,
      "chip": "ym2612"
    },
    {
      "channel": 1,
      "note": 50,
      "start": 13.2549,
      "duration": 0.0467,
      "velocity": 82,
      "chip": "ym2612"
    },
    {
      "channel": 0,
      "note": 74,
      "start": 13.3775,
      "duration": 0.0073,
      "velocity": 98,
      "chip": "ym2612"
    },
    {
      "channel": 1,
      "note": 50,
      "start": 13.3781,
      "duration": 0.047,
      "velocity": 82,
      "chip": "ym2612"
    },
    {
      "channel": 2,
      "note": 86,
      "start": 13.3786,
      "duration": 0.1536,
      "velocity": 99,
      "chip": "ym2612"
    },
    {
      "channel": 3,
      "note": 80,
      "start": 13.3792,
      "duration": 0.1533,
      "velocity": 99,
      "chip": "ym2612"
    },
    {
      "channel": 0,
      "note": 76,
      "start": 13.3851,
      "duration": 0.0058,
      "velocity": 98,
      "chip": "ym2612"
    },
    {
      "channel": 0,
      "note": 77,
      "start": 13.3911,
      "duration": 0.0057,
      "velocity": 98,
      "chip": "ym2612"
    },
    {
      "channel": 0,
      "note": 79,
      "start": 13.3971,
      "duration": 0.0056,
      "velocity": 98,
      "chip": "ym2612"
    },
    {
      "channel": 0,
      "note": 81,
      "start": 13.4029,
      "duration": 0.0215,
      "velocity": 98,
      "chip": "ym2612"
    },
    {
      "channel": 0,
      "note": 82,
      "start": 13.4247,
      "duration": 0.0439,
      "velocity": 98,
      "chip": "ym2612"
    },
    {
      "channel": 0,
      "note": 84,
      "start": 13.4689,
      "duration": 0.0058,
      "velocity": 98,
      "chip": "ym2612"
    },
    {
      "channel": 0,
      "note": 86,
      "start": 13.475,
      "duration": 0.0059,
      "velocity": 98,
      "chip": "ym2612"
    },
    {
      "channel": 0,
      "note": 88,
      "start": 13.4811,
      "duration": 0.0057,
      "velocity": 98,
      "chip": "ym2612"
    },
    {
      "channel": 0,
      "note": 89,
      "start": 13.4871,
      "duration": 0.0066,
      "velocity": 98,
      "chip": "ym2612"
    },
    {
      "channel": 0,
      "note": 91,
      "start": 13.4939,
      "duration": 0.0567,
      "velocity": 98,
      "chip": "ym2612"
    },
    {
      "channel": 0,
      "note": 93,
      "start": 13.551,
      "duration": 0.0236,
      "velocity": 98,
      "chip": "ym2612"
    },
    {
      "channel": 1,
      "note": 57,
      "start": 13.5516,
      "duration": 0.0234,
      "velocity": 82,
      "chip": "ym2612"
    },
    {
      "channel": 2,
      "note": 73,
      "start": 13.5553,
      "duration": 0.0199,
      "velocity": 104,
      "chip": "ym2612"
    },
    {
      "channel": 3,
      "note": 83,
      "start": 13.5607,
      "duration": 0.0148,
      "velocity": 104,
      "chip": "ym2612"
    },
    {
      "channel": 4,
      "note": 86,
      "start": 13.5614,
      "duration": 0.0145,
      "velocity": 98,
      "chip": "ym2612"
    },
    {
      "channel": 0,
      "note": 93,
      "start": 13.5802,
      "duration": 0.0123,
      "velocity": 98,
      "chip": "ym2612"
    },
    {
      "channel": 1,
      "note": 57,
      "start": 13.5808,
      "duration": 0.012,
      "velocity": 82,
      "chip": "ym2612"
    },
    {
      "channel": 2,
      "note": 73,
      "start": 13.5813,
      "duration": 0.0118,
      "velocity": 104,
      "chip": "ym2612"
    },
    {
      "channel": 3,
      "note": 69,
      "start": 13.5819,
      "duration": 0.0115,
      "velocity": 104,
      "chip": "ym2612"
    },
    {
      "channel": 4,
      "note": 85,
      "start": 13.5826,
      "duration": 0.0112,
      "velocity": 98,
      "chip": "ym2612"
    },
    {
      "channel": 0,
      "note": 93,
      "start": 13.5994,
      "duration": 0.0123,
      "velocity": 98,
      "chip": "ym2612"
    },
    {
      "channel": 1,
      "note": 57,
      "start": 13.5999,
      "duration": 0.012,
      "velocity": 82,
      "chip": "ym2612"
    },
    {
      "channel": 2,
      "note": 73,
      "start": 13.6004,
      "duration": 0.0118,
      "velocity": 104,
      "chip": "ym2612"
    },
    {
      "channel": 3,
      "note": 69,
      "start": 13.6011,
      "duration": 0.0115,
      "velocity": 104,
      "chip": "ym2612"
    },
    {
      "channel": 4,
      "note": 85,
      "start": 13.6018,
      "duration": 0.0112,
      "velocity": 98,
      "chip": "ym2612"
    },
    {
      "channel": 0,
      "note": 93,
      "start": 13.6185,
      "duration": 0.0122,
      "velocity": 98,
      "chip": "ym2612"
    },
    {
      "channel": 1,
      "note": 57,
      "start": 13.6191,
      "duration": 0.0119,
      "velocity": 82,
      "chip": "ym2612"
    },
    {
      "channel": 2,
      "note": 73,
      "start": 13.6196,
      "duration": 0.0117,
      "velocity": 104,
      "chip": "ym2612"
    },
    {
      "channel": 3,
      "note": 69,
      "start": 13.6202,
      "duration": 0.0114,
      "velocity": 104,
      "chip": "ym2612"
    },
    {
      "channel": 4,
      "note": 85,
      "start": 13.6209,
      "duration": 0.011,
      "velocity": 98,
      "chip": "ym2612"
    },
    {
      "channel": 0,
      "note": 93,
      "start": 13.6363,
      "duration": 0.0123,
      "velocity": 98,
      "chip": "ym2612"
    },
    {
      "channel": 1,
      "note": 57,
      "start": 13.6368,
      "duration": 0.0121,
      "velocity": 82,
      "chip": "ym2612"
    },
    {
      "channel": 2,
      "note": 73,
      "start": 13.6374,
      "duration": 0.0117,
      "velocity": 104,
      "chip": "ym2612"
    },
    {
      "channel": 3,
      "note": 69,
      "start": 13.638,
      "duration": 0.0114,
      "velocity": 104,
      "chip": "ym2612"
    },
    {
      "channel": 4,
      "note": 85,
      "start": 13.6388,
      "duration": 0.0111,
      "velocity": 98,
      "chip": "ym2612"
    },
    {
      "channel": 0,
      "note": 93,
      "start": 13.9492,
      "duration": 0.0155,
      "velocity": 98,
      "chip": "ym2612"
    },
    {
      "channel": 1,
      "note": 57,
      "start": 13.9497,
      "duration": 0.0153,
      "velocity": 82,
      "chip": "ym2612"
    },
    {
      "channel": 2,
      "note": 73,
      "start": 13.9503,
      "duration": 0.015,
      "velocity": 104,
      "chip": "ym2612"
    },
    {
      "channel": 3,
      "note": 69,
      "start": 13.9509,
      "duration": 0.0147,
      "velocity": 104,
      "chip": "ym2612"
    },
    {
      "channel": 4,
      "note": 85,
      "start": 13.9516,
      "duration": 0.0144,
      "velocity": 98,
      "chip": "ym2612"
    },
    {
      "channel": 0,
      "note": 93,
      "start": 13.9715,
      "duration": 0.0122,
      "velocity": 98,
      "chip": "ym2612"
    },
    {
      "channel": 1,
      "note": 57,
      "start": 13.9721,
      "duration": 0.0119,
      "velocity": 82,
      "chip": "ym2612"
    },
    {
      "channel": 2,
      "note": 73,
      "start": 13.9726,
      "duration": 0.0117,
      "velocity": 104,
      "chip": "ym2612"
    },
    {
      "channel": 3,
      "note": 69,
      "start": 13.9733,
      "duration": 0.0114,
      "velocity": 104,
      "chip": "ym2612"
    },
    {
      "channel": 4,
      "note": 85,
      "start": 13.9739,
      "duration": 0.011,
      "velocity": 98,
      "chip": "ym2612"
    },
    {
      "channel": 0,
      "note": 93,
      "start": 13.9906,
      "duration": 0.0121,
      "velocity": 98,
      "chip": "ym2612"
    },
    {
      "channel": 1,
      "note": 57,
      "start": 13.9911,
      "duration": 0.0118,
      "velocity": 82,
      "chip": "ym2612"
    },
    {
      "channel": 2,
      "note": 73,
      "start": 13.9917,
      "duration": 0.0116,
      "velocity": 104,
      "chip": "ym2612"
    },
    {
      "channel": 3,
      "note": 69,
      "start": 13.9923,
      "duration": 0.0113,
      "velocity": 104,
      "chip": "ym2612"
    },
    {
      "channel": 4,
      "note": 85,
      "start": 13.993,
      "duration": 0.0109,
      "velocity": 98,
      "chip": "ym2612"
    },
    {
      "channel": 0,
      "note": 93,
      "start": 14.0097,
      "duration": 0.0123,
      "velocity": 98,
      "chip": "ym2612"
    },
    {
      "channel": 1,
      "note": 57,
      "start": 14.0102,
      "duration": 0.012,
      "velocity": 82,
      "chip": "ym2612"
    },
    {
      "channel": 2,
      "note": 73,
      "start": 14.0107,
      "duration": 0.0118,
      "velocity": 104,
      "chip": "ym2612"
    },
    {
      "channel": 3,
      "note": 69,
      "start": 14.0114,
      "duration": 0.0115,
      "velocity": 104,
      "chip": "ym2612"
    },
    {
      "channel": 4,
      "note": 85,
      "start": 14.0121,
      "duration": 0.0112,
      "velocity": 98,
      "chip": "ym2612"
    },
    {
      "channel": 0,
      "note": 93,
      "start": 14.0276,
      "duration": 0.0122,
      "velocity": 98,
      "chip": "ym2612"
    },
    {
      "channel": 1,
      "note": 57,
      "start": 14.0281,
      "duration": 0.012,
      "velocity": 82,
      "chip": "ym2612"
    },
    {
      "channel": 2,
      "note": 73,
      "start": 14.0287,
      "duration": 0.0117,
      "velocity": 104,
      "chip": "ym2612"
    },
    {
      "channel": 3,
      "note": 69,
      "start": 14.0293,
      "duration": 0.0114,
      "velocity": 104,
      "chip": "ym2612"
    },
    {
      "channel": 4,
      "note": 85,
      "start": 14.03,
      "duration": 0.011,
      "velocity": 98,
      "chip": "ym2612"
    },
    {
      "channel": 0,
      "note": 94,
      "start": 14.3403,
      "duration": 0.0156,
      "velocity": 98,
      "chip": "ym2612"
    },
    {
      "channel": 1,
      "note": 58,
      "start": 14.3409,
      "duration": 0.0154,
      "velocity": 82,
      "chip": "ym2612"
    },
    {
      "channel": 2,
      "note": 74,
      "start": 14.3414,
      "duration": 0.0152,
      "velocity": 104,
      "chip": "ym2612"
    },
    {
      "channel": 3,
      "note": 69,
      "start": 14.342,
      "duration": 0.0149,
      "velocity": 104,
      "chip": "ym2612"
    },
    {
      "channel": 4,
      "note": 85,
      "start": 14.3428,
      "duration": 0.0145,
      "velocity": 98,
      "chip": "ym2612"
    },
    {
      "channel": 0,
      "note": 94,
      "start": 14.6561,
      "duration": 0.02,
      "velocity": 98,
      "chip": "ym2612"
    },
    {
      "channel": 1,
      "note": 58,
      "start": 14.6566,
      "duration": 0.2364,
      "velocity": 82,
      "chip": "ym2612"
    },
    {
      "channel": 2,
      "note": 74,
      "start": 14.6572,
      "duration": 0.1547,
      "velocity": 104,
      "chip": "ym2612"
    },
    {
      "channel": 3,
      "note": 65,
      "start": 14.6578,
      "duration": 0.2359,
      "velocity": 104,
      "chip": "ym2612"
    },
    {
      "channel": 4,
      "note": 86,
      "start": 14.6586,
      "duration": 0.0118,
      "velocity": 98,
      "chip": "ym2612"
    },
    {
      "channel": 4,
      "note": 86,
      "start": 14.6707,
      "duration": 0.0122,
      "velocity": 98,
      "chip": "ym2612"
    },
    {
      "channel": 0,
      "note": 95,
      "start": 14.6764,
      "duration": 0.0116,
      "velocity": 98,
      "chip": "ym2612"
    },
    {
      "channel": 4,
      "note": 87,
      "start": 14.6832,
      "duration": 0.0088,
      "velocity": 98,
      "chip": "ym2612"
    },
    {
      "channel": 0,
      "note": 94,
      "start": 14.6882,
      "duration": 0.0118,
      "velocity": 98,
      "chip": "ym2612"
    },
    {
      "channel": 4,
      "note": 86,
      "start": 14.6924,
      "duration": 0.009,
      "velocity": 98,
      "chip": "ym2612"
    },
    {
      "channel": 0,
      "note": 95,
      "start": 14.7003,
      "duration": 0.016,
      "velocity": 98,
      "chip": "ym2612"
    },
    {
      "channel": 4,
      "note": 87,
      "start": 14.7017,
      "duration": 0.0121,
      "velocity": 98,
      "chip": "ym2612"
    },
    {
      "channel": 4,
      "note": 86,
      "start": 14.7141,
      "duration": 0.0105,
      "velocity": 98,
      "chip": "ym2612"
    },
    {
      "channel": 0,
      "note": 94,
      "start": 14.7165,
      "duration": 0.0133,
      "velocity": 98,
      "chip": "ym2612"
    },
    {
      "channel": 4,
      "note": 87,
      "start": 14.725,
      "duration": 0.0089,
      "velocity": 98,
      "chip": "ym2612"
    },
    {
      "channel": 0,
      "note": 95,
      "start": 14.73,
      "duration": 0.0115,
      "velocity": 98,
      "chip": "ym2612"
    },
    {
      "channel": 4,
      "note": 86,
      "start": 14.7342,
      "duration": 0.0088,
      "velocity": 98,
      "chip": "ym2612"
    },
    {
      "channel": 0,
      "note": 94,
      "start": 14.7418,
      "duration": 0.0129,
      "velocity": 98,
      "chip": "ym2612"
    },
    {
      "channel": 4,
      "note": 87,
      "start": 14.7433,
      "duration": 0.0089,
      "velocity": 98,
      "chip": "ym2612"
    },
    {
      "channel": 4,
      "note": 86,
      "start": 14.7526,
      "duration": 0.0092,
      "velocity": 98,
      "chip": "ym2612"
    },
    {
      "channel": 0,
      "note": 95,
      "start": 14.7549,
      "duration": 0.012,
      "velocity": 98,
      "chip": "ym2612"
    },
    {
      "channel": 4,
      "note": 87,
      "start": 14.762,
      "duration": 0.0094,
      "velocity": 98,
      "chip": "ym2612"
    },
    {
      "channel": 0,
      "note": 94,
      "start": 14.7672,
      "duration": 0.0121,
      "velocity": 98,
      "chip": "ym2612"
    },
    {
      "channel": 4,
      "note": 86,
      "start": 14.7717,
      "duration": 0.0091,
      "velocity": 98,
      "chip": "ym2612"
    },
    {
      "channel": 0,
      "note": 95,
      "start": 14.7795,
      "duration": 0.0128,
      "velocity": 98,
      "chip": "ym2612"
    },
    {
      "channel": 4,
      "note": 87,
      "start": 14.7811,
      "duration": 0.0088,
      "velocity": 98,
      "chip": "ym2612"
    },
    {
      "channel": 4,
      "note": 86,
      "start": 14.7902,
      "duration": 0.0091,
      "velocity": 98,
      "chip": "ym2612"
    },
    {
      "channel": 0,
      "note": 94,
      "start": 14.7926,
      "duration": 0.0121,
      "velocity": 98,
      "chip": "ym2612"
    },
    {
      "channel": 4,
      "note": 87,
      "start": 14.7997,
      "duration": 0.0093,
      "velocity": 98,
      "chip": "ym2612"
    },
    {
      "channel": 0,
      "note": 95,
      "start": 14.8049,
      "duration": 0.0119,
      "velocity": 98,
      "chip": "ym2612"
    },
    {
      "channel": 4,
      "note": 86,
      "start": 14.8093,
      "duration": 0.0093,
      "velocity": 98,
      "chip": "ym2612"
    },
    {
      "channel": 0,
      "note": 94,
      "start": 14.8171,
      "duration": 0.0128,
      "velocity": 98,
      "chip": "ym2612"
    },
    {
      "channel": 2,
      "note": 70,
      "start": 14.8179,
      "duration": 0.0092,
      "velocity": 104,
      "chip": "ym2612"
    },
    {
      "channel": 4,
      "note": 87,
      "start": 14.8189,
      "duration": 0.0088,
      "velocity": 98,
      "chip": "ym2612"
    },
    {
      "channel": 4,
      "note": 86,
      "start": 14.8281,
      "duration": 0.009,
      "velocity": 98,
      "chip": "ym2612"
    },
    {
      "channel": 0,
      "note": 95,
      "start": 14.8302,
      "duration": 0.0155,
      "velocity": 98,
      "chip": "ym2612"
    },
    {
      "channel": 4,
      "note": 87,
      "start": 14.8375,
      "duration": 0.0124,
      "velocity": 98,
      "chip": "ym2612"
    },
    {
      "channel": 0,
      "note": 94,
      "start": 14.8459,
      "duration": 0.0114,
      "velocity": 98,
      "chip": "ym2612"
    },
    {
      "channel": 4,
      "note": 86,
      "start": 14.8502,
      "duration": 0.0085,
      "velocity": 98,
      "chip": "ym2612"
    },
    {
      "channel": 0,
      "note": 95,
      "start": 14.8576,
      "duration": 0.0126,
      "velocity": 98,
      "chip": "ym2612"
    },
    {
      "channel": 4,
      "note": 87,
      "start": 14.8591,
      "duration": 0.009,
      "velocity": 98,
      "chip": "ym2612"
    },
    {
      "channel": 4,
      "note": 86,
      "start": 14.8684,
      "duration": 0.0095,
      "velocity": 98,
      "chip": "ym2612"
    },
    {
      "channel": 0,
      "note": 94,
      "start": 14.8704,
      "duration": 0.0159,
      "velocity": 98,
      "chip": "ym2612"
    },
    {
      "channel": 2,
      "note": 71,
      "start": 14.8771,
      "duration": 0.0162,
      "velocity": 104,
      "chip": "ym2612"
    },
    {
      "channel": 4,
      "note": 87,
      "start": 14.8782,
      "duration": 0.0125,
      "velocity": 98,
      "chip": "ym2612"
    },
    {
      "channel": 0,
      "note": 95,
      "start": 14.8866,
      "duration": 0.0117,
      "velocity": 98,
      "chip": "ym2612"
    },
    {
      "channel": 4,
      "note": 86,
      "start": 14.891,
      "duration": 0.0096,
      "velocity": 98,
      "chip": "ym2612"
    },
    {
      "channel": 1,
      "note": 51,
      "start": 14.899,
      "duration": 0.0169,
      "velocity": 82,
      "chip": "ym2612"
    },
    {
      "channel": 2,
      "note": 71,
      "start": 14.8995,
      "duration": 0.2498,
      "velocity": 104,
      "chip": "ym2612"
    },
    {
      "channel": 3,
      "note": 65,
      "start": 14.9002,
      "duration": 0.2495,
      "velocity": 104,
      "chip": "ym2612"
    },
    {
      "channel": 0,
      "note": 99,
      "start": 15.0056,
      "duration": 0.0034,
      "velocity": 98,
      "chip": "ym2612"
    },
    {
      "channel": 4,
      "note": 87,
      "start": 15.0071,
      "duration": 0.0033,
      "velocity": 98,
      "chip": "ym2612"
    },
    {
      "channel": 0,
      "note": 101,
      "start": 15.0093,
      "duration": 0.003,
      "velocity": 98,
      "chip": "ym2612"
    },
    {
      "channel": 4,
      "note": 87,
      "start": 15.0107,
      "duration": 0.0029,
      "velocity": 98,
      "chip": "ym2612"
    },
    {
      "channel": 0,
      "note": 102,
      "start": 15.0125,
      "duration": 0.0033,
      "velocity": 98,
      "chip": "ym2612"
    },
    {
      "channel": 4,
      "note": 89,
      "start": 15.0139,
      "duration": 0.0032,
      "velocity": 98,
      "chip": "ym2612"
    },
    {
      "channel": 0,
      "note": 104,
      "start": 15.0161,
      "duration": 0.0068,
      "velocity": 98,
      "chip": "ym2612"
    },
    {
      "channel": 4,
      "note": 90,
      "start": 15.0175,
      "duration": 0.0068,
      "velocity": 98,
      "chip": "ym2612"
    },
    {
      "channel": 0,
      "note": 106,
      "start": 15.0231,
      "duration": 0.003,
      "velocity": 98,
      "chip": "ym2612"
    },
    {
      "channel": 4,
      "note": 92,
      "start": 15.0246,
      "duration": 0.0031,
      "velocity": 98,
      "chip": "ym2612"
    },
    {
      "channel": 0,
      "note": 108,
      "start": 15.0264,
      "duration": 0.0036,
      "velocity": 98,
      "chip": "ym2612"
    },
    {
      "channel": 4,
      "note": 94,
      "start": 15.028,
      "duration": 0.0038,
      "velocity": 98,
      "chip": "ym2612"
    },
    {
      "channel": 0,
      "note": 110,
      "start": 15.0303,
      "duration": 0.0075,
      "velocity": 98,
      "chip": "ym2612"
    },
    {
      "channel": 1,
      "note": 51,
      "start": 15.0308,
      "duration": 0.0209,
      "velocity": 82,
      "chip": "ym2612"
    },
    {
      "channel": 4,
      "note": 96,
      "start": 15.0321,
      "duration": 0.0071,
      "velocity": 98,
      "chip": "ym2612"
    },
    {
      "channel": 0,
      "note": 111,
      "start": 15.038,
      "duration": 0.0133,
      "velocity": 98,
      "chip": "ym2612"
    },
    {
      "channel": 4,
      "note": 98,
      "start": 15.0395,
      "duration": 0.013,
      "velocity": 98,
      "chip": "ym2612"
    },
    {
      "channel": 1,
      "note": 53,
      "start": 15.1546,
      "duration": 0.0168,
      "velocity": 82,
      "chip": "ym2612"
    },
    {
      "channel": 2,
      "note": 70,
      "start": 15.1552,
      "duration": 0.0113,
      "velocity": 104,
      "chip": "ym2612"
    },
    {
      "channel": 3,
      "note": 66,
      "start": 15.1558,
      "duration": 0.011,
      "velocity": 104,
      "chip": "ym2612"
    },
    {
      "channel": 1,
      "note": 53,
      "start": 15.2755,
      "duration": 0.0171,
      "velocity": 82,
      "chip": "ym2612"
    },
    {
      "channel": 2,
      "note": 70,
      "start": 15.2761,
      "duration": 0.0116,
      "velocity": 104,
      "chip": "ym2612"
    },
    {
      "channel": 3,
      "note": 68,
      "start": 15.2767,
      "duration": 0.0113,
      "velocity": 104,
      "chip": "ym2612"
    },
    {
      "channel": 2,
      "note": 75,
      "start": 15.3798,
      "duration": 0.0311,
      "velocity": 104,
      "chip": "ym2612"
    },
    {
      "channel": 3,
      "note": 68,
      "start": 15.3804,
      "duration": 0.0308,
      "velocity": 104,
      "chip": "ym2612"
    },
    {
      "channel": 1,
      "note": 54,
      "start": 15.4489,
      "duration": 0.0201,
      "velocity": 82,
      "chip": "ym2612"
    },
    {
      "channel": 2,
      "note": 75,
      "start": 15.4495,
      "duration": 0.2464,
      "velocity": 104,
      "chip": "ym2612"
    },
    {
      "channel": 3,
      "note": 68,
      "start": 15.4501,
      "duration": 0.2462,
      "velocity": 104,
      "chip": "ym2612"
    },
    {
      "channel": 0,
      "note": 99,
      "start": 15.5559,
      "duration": 0.0034,
      "velocity": 98,
      "chip": "ym2612"
    },
    {
      "channel": 4,
      "note": 99,
      "start": 15.5573,
      "duration": 0.0033,
      "velocity": 98,
      "chip": "ym2612"
    },
    {
      "channel": 0,
      "note": 101,
      "start": 15.5595,
      "duration": 0.0031,
      "velocity": 98,
      "chip": "ym2612"
    },
    {
      "channel": 4,
      "note": 87,
      "start": 15.561,
      "duration": 0.003,
      "velocity": 98,
      "chip": "ym2612"
    },
    {
      "channel": 0,
      "note": 102,
      "start": 15.5628,
      "duration": 0.0031,
      "velocity": 98,
      "chip": "ym2612"
    },
    {
      "channel": 4,
      "note": 89,
      "start": 15.5643,
      "duration": 0.003,
      "velocity": 98,
      "chip": "ym2612"
    },
    {
      "channel": 0,
      "note": 104,
      "start": 15.5661,
      "duration": 0.0034,
      "velocity": 98,
      "chip": "ym2612"
    },
    {
      "channel": 4,
      "note": 90,
      "start": 15.5676,
      "duration": 0.0033,
      "velocity": 98,
      "chip": "ym2612"
    },
    {
      "channel": 0,
      "note": 106,
      "start": 15.5697,
      "duration": 0.0031,
      "velocity": 98,
      "chip": "ym2612"
    },
    {
      "channel": 4,
      "note": 92,
      "start": 15.5712,
      "duration": 0.003,
      "velocity": 98,
      "chip": "ym2612"
    },
    {
      "channel": 0,
      "note": 108,
      "start": 15.573,
      "duration": 0.0036,
      "velocity": 98,
      "chip": "ym2612"
    },
    {
      "channel": 4,
      "note": 94,
      "start": 15.5746,
      "duration": 0.0038,
      "velocity": 98,
      "chip": "ym2612"
    },
    {
      "channel": 0,
      "note": 110,
      "start": 15.5769,
      "duration": 0.0075,
      "velocity": 98,
      "chip": "ym2612"
    },
    {
      "channel": 1,
      "note": 54,
      "start": 15.5774,
      "duration": 0.021,
      "velocity": 82,
      "chip": "ym2612"
    },
    {
      "channel": 4,
      "note": 96,
      "start": 15.5787,
      "duration": 0.0071,
      "velocity": 98,
      "chip": "ym2612"
    },
    {
      "channel": 0,
      "note": 111,
      "start": 15.5846,
      "duration": 0.0134,
      "velocity": 98,
      "chip": "ym2612"
    },
    {
      "channel": 4,
      "note": 98,
      "start": 15.5861,
      "duration": 0.0132,
      "velocity": 98,
      "chip": "ym2612"
    },
    {
      "channel": 1,
      "note": 53,
      "start": 15.7012,
      "duration": 0.0166,
      "velocity": 82,
      "chip": "ym2612"
    },
    {
      "channel": 2,
      "note": 70,
      "start": 15.7018,
      "duration": 0.0111,
      "velocity": 104,
      "chip": "ym2612"
    },
    {
      "channel": 3,
      "note": 70,
      "start": 15.7024,
      "duration": 0.0108,
      "velocity": 104,
      "chip": "ym2612"
    },
    {
      "channel": 1,
      "note": 53,
      "start": 15.8248,
      "duration": 0.0188,
      "velocity": 82,
      "chip": "ym2612"
    },
    {
      "channel": 2,
      "note": 70,
      "start": 15.8254,
      "duration": 0.0117,
      "velocity": 104,
      "chip": "ym2612"
    },
    {
      "channel": 3,
      "note": 68,
      "start": 15.826,
      "duration": 0.0113,
      "velocity": 104,
      "chip": "ym2612"
    },
    {
      "channel": 2,
      "note": 77,
      "start": 15.8821,
      "duration": 0.0112,
      "velocity": 104,
      "chip": "ym2612"
    },
    {
      "channel": 3,
      "note": 68,
      "start": 15.8828,
      "duration": 0.0109,
      "velocity": 104,
      "chip": "ym2612"
    },
    {
      "channel": 1,
      "note": 51,
      "start": 15.8989,
      "duration": 0.017,
      "velocity": 82,
      "chip": "ym2612"
    },
    {
      "channel": 2,
      "note": 78,
      "start": 15.8995,
      "duration": 0.0116,
      "velocity": 104,
      "chip": "ym2612"
    },
    {
      "channel": 3,
      "note": 68,
      "start": 15.9001,
      "duration": 0.0113,
      "velocity": 104,
      "chip": "ym2612"
    },
    {
      "channel": 1,
      "note": 51,
      "start": 16.0187,
      "duration": 0.017,
      "velocity": 82,
      "chip": "ym2612"
    },
    {
      "channel": 2,
      "note": 82,
      "start": 16.0192,
      "duration": 0.2201,
      "velocity": 104,
      "chip": "ym2612"
    },
    {
      "channel": 3,
      "note": 66,
      "start": 16.0198,
      "duration": 0.2198,
      "velocity": 104,
      "chip": "ym2612"
    },
    {
      "channel": 1,
      "note": 49,
      "start": 16.1393,
      "duration": 0.0166,
      "velocity": 82,
      "chip": "ym2612"
    },
    {
      "channel": 1,
      "note": 49,
      "start": 16.2617,
      "duration": 0.0171,
      "velocity": 82,
      "chip": "ym2612"
    },
    {
      "channel": 2,
      "note": 82,
      "start": 16.2623,
      "duration": 0.1351,
      "velocity": 104,
      "chip": "ym2612"
    },
    {
      "channel": 3,
      "note": 75,
      "start": 16.2629,
      "duration": 0.1348,
      "velocity": 104,
      "chip": "ym2612"
    },
    {
      "channel": 0,
      "note": 84,
      "start": 16.4351,
      "duration": 0.0207,
      "velocity": 98,
      "chip": "ym2612"
    },
    {
      "channel": 1,
      "note": 48,
      "start": 16.4357,
      "duration": 0.0206,
      "velocity": 82,
      "chip": "ym2612"
    },
    {
      "channel": 2,
      "note": 80,
      "start": 16.4362,
      "duration": 0.3664,
      "velocity": 104,
      "chip": "ym2612"
    },
    {
      "channel": 3,
      "note": 75,
      "start": 16.4368,
      "duration": 0.3661,
      "velocity": 104,
      "chip": "ym2612"
    },
    {
      "channel": 4,
      "note": 99,
      "start": 16.4376,
      "duration": 0.0195,
      "velocity": 98,
      "chip": "ym2612"
    },
    {
      "channel": 0,
      "note": 80,
      "start": 16.5237,
      "duration": 0.0118,
      "velocity": 98,
      "chip": "ym2612"
    },
    {
      "channel": 4,
      "note": 80,
      "start": 16.5252,
      "duration": 0.0115,
      "velocity": 98,
      "chip": "ym2612"
    },
    {
      "channel": 0,
      "note": 80,
      "start": 16.5438,
      "duration": 0.0083,
      "velocity": 98,
      "chip": "ym2612"
    },
    {
      "channel": 4,
      "note": 75,
      "start": 16.5453,
      "duration": 0.0081,
      "velocity": 98,
      "chip": "ym2612"
    },
    {
      "channel": 0,
      "note": 80,
      "start": 16.5607,
      "duration": 0.0169,
      "velocity": 98,
      "chip": "ym2612"
    },
    {
      "channel": 1,
      "note": 48,
      "start": 16.5612,
      "duration": 0.0168,
      "velocity": 82,
      "chip": "ym2612"
    },
    {
      "channel": 4,
      "note": 75,
      "start": 16.5626,
      "duration": 0.0163,
      "velocity": 98,
      "chip": "ym2612"
    },
    {
      "channel": 0,
      "note": 84,
      "start": 16.6458,
      "duration": 0.0204,
      "velocity": 98,
      "chip": "ym2612"
    },
    {
      "channel": 4,
      "note": 75,
      "start": 16.6473,
      "duration": 0.0201,
      "velocity": 98,
      "chip": "ym2612"
    },
    {
      "channel": 0,
      "note": 87,
      "start": 16.6834,
      "duration": 0.0121,
      "velocity": 98,
      "chip": "ym2612"
    },
    {
      "channel": 1,
      "note": 56,
      "start": 16.6839,
      "duration": 0.0176,
      "velocity": 82,
      "chip": "ym2612"
    },
    {
      "channel": 4,
      "note": 80,
      "start": 16.6852,
      "duration": 0.0083,
      "velocity": 98,
      "chip": "ym2612"
    },
    {
      "channel": 4,
      "note": 84,
      "start": 16.6939,
      "duration": 0.0087,
      "velocity": 98,
      "chip": "ym2612"
    },
    {
      "channel": 0,
      "note": 89,
      "start": 16.6958,
      "duration": 0.0114,
      "velocity": 98,
      "chip": "ym2612"
    },
    {
      "channel": 4,
      "note": 85,
      "start": 16.7028,
      "duration": 0.0095,
      "velocity": 98,
      "chip": "ym2612"
    },
    {
      "channel": 0,
      "note": 87,
      "start": 16.7074,
      "duration": 0.0608,
      "velocity": 98,
      "chip": "ym2612"
    },
    {
      "channel": 4,
      "note": 84,
      "start": 16.7127,
      "duration": 0.0569,
      "velocity": 98,
      "chip": "ym2612"
    },
    {
      "channel": 0,
      "note": 89,
      "start": 16.7684,
      "duration": 0.0159,
      "velocity": 98,
      "chip": "ym2612"
    },
    {
      "channel": 4,
      "note": 85,
      "start": 16.7699,
      "duration": 0.012,
      "velocity": 98,
      "chip": "ym2612"
    },
    {
      "channel": 4,
      "note": 84,
      "start": 16.7822,
      "duration": 0.0086,
      "velocity": 98,
      "chip": "ym2612"
    },
    {
      "channel": 0,
      "note": 87,
      "start": 16.7845,
      "duration": 0.0112,
      "velocity": 98,
      "chip": "ym2612"
    },
    {
      "channel": 4,
      "note": 85,
      "start": 16.7912,
      "duration": 0.0086,
      "velocity": 98,
      "chip": "ym2612"
    },
    {
      "channel": 0,
      "note": 89,
      "start": 16.7961,
      "duration": 0.0135,
      "velocity": 98,
      "chip": "ym2612"
    },
    {
      "channel": 4,
      "note": 84,
      "start": 16.8001,
      "duration": 0.0116,
      "velocity": 98,
      "chip": "ym2612"
    },
    {
      "channel": 0,
      "note": 87,
      "start": 16.8098,
      "duration": 0.0124,
      "velocity": 98,
      "chip": "ym2612"
    },
    {
      "channel": 1,
      "note": 56,
      "start": 16.8104,
      "duration": 0.015,
      "velocity": 82,
      "chip": "ym2612"
    },
    {
      "channel": 2,
      "note": 75,
      "start": 16.8109,
      "duration": 0.0121,
      "velocity": 104,
      "chip": "ym2612"
    },
    {
      "channel": 4,
      "note": 85,
      "start": 16.812,
      "duration": 0.0082,
      "velocity": 98,
      "chip": "ym2612"
    },
    {
      "channel": 4,
      "note": 84,
      "start": 16.8205,
      "duration": 0.0093,
      "velocity": 98,
      "chip": "ym2612"
    },
    {
      "channel": 0,
      "note": 89,
      "start": 16.8224,
      "duration": 0.0123,
      "velocity": 98,
      "chip": "ym2612"
    },
    {
      "channel": 4,
      "note": 85,
      "start": 16.8301,
      "duration": 0.0085,
      "velocity": 98,
      "chip": "ym2612"
    },
    {
      "channel": 0,
      "note": 87,
      "start": 16.835,
      "duration": 0.0126,
      "velocity": 98,
      "chip": "ym2612"
    },
    {
      "channel": 4,
      "note": 84,
      "start": 16.839,
      "duration": 0.01,
      "velocity": 98,
      "chip": "ym2612"
    },
    {
      "channel": 0,
      "note": 89,
      "start": 16.8478,
      "duration": 0.0116,
      "velocity": 98,
      "chip": "ym2612"
    },
    {
      "channel": 4,
      "note": 86,
      "start": 16.8493,
      "duration": 0.0082,
      "velocity": 98,
      "chip": "ym2612"
    },
    {
      "channel": 4,
      "note": 84,
      "start": 16.8578,
      "duration": 0.0109,
      "velocity": 98,
      "chip": "ym2612"
    },
    {
      "channel": 0,
      "note": 87,
      "start": 16.8597,
      "duration": 0.0138,
      "velocity": 98,
      "chip": "ym2612"
    },
    {
      "channel": 2,
      "note": 77,
      "start": 16.8676,
      "duration": 0.0125,
      "velocity": 104,
      "chip": "ym2612"
    },
    {
      "channel": 3,
      "note": 75,
      "start": 16.8682,
      "duration": 0.0122,
      "velocity": 104,
      "chip": "ym2612"
    },
    {
      "channel": 4,
      "note": 85,
      "start": 16.869,
      "duration": 0.0085,
      "velocity": 98,
      "chip": "ym2612"
    },
    {
      "channel": 0,
      "note": 89,
      "start": 16.8737,
      "duration": 0.0112,
      "velocity": 98,
      "chip": "ym2612"
    },
    {
      "channel": 4,
      "note": 84,
      "start": 16.8778,
      "duration": 0.0094,
      "velocity": 98,
      "chip": "ym2612"
    },
    {
      "channel": 1,
      "note": 59,
      "start": 16.8856,
      "duration": 0.0144,
      "velocity": 82,
      "chip": "ym2612"
    },
    {
      "channel": 2,
      "note": 78,
      "start": 16.8861,
      "duration": 0.0091,
      "velocity": 104,
      "chip": "ym2612"
    },
    {
      "channel": 3,
      "note": 75,
      "start": 16.8867,
      "duration": 0.0088,
      "velocity": 104,
      "chip": "ym2612"
    },
    {
      "channel": 2,
      "note": 75,
      "start": 16.99,
      "duration": 0.0111,
      "velocity": 104,
      "chip": "ym2612"
    },
    {
      "channel": 3,
      "note": 75,
      "start": 16.9906,
      "duration": 0.0107,
      "velocity": 104,
      "chip": "ym2612"
    },
    {
      "channel": 1,
      "note": 59,
      "start": 17.0063,
      "duration": 0.0168,
      "velocity": 82,
      "chip": "ym2612"
    },
    {
      "channel": 2,
      "note": 75,
      "start": 17.0068,
      "duration": 0.2365,
      "velocity": 104,
      "chip": "ym2612"
    },
    {
      "channel": 3,
      "note": 66,
      "start": 17.0075,
      "duration": 0.2361,
      "velocity": 104,
      "chip": "ym2612"
    },
    {
      "channel": 0,
      "note": 90,
      "start": 17.1268,
      "duration": 0.017,
      "velocity": 98,
      "chip": "ym2612"
    },
    {
      "channel": 1,
      "note": 59,
      "start": 17.1274,
      "duration": 0.0168,
      "velocity": 82,
      "chip": "ym2612"
    },
    {
      "channel": 4,
      "note": 85,
      "start": 17.1287,
      "duration": 0.0164,
      "velocity": 98,
      "chip": "ym2612"
    },
    {
      "channel": 0,
      "note": 87,
      "start": 17.2313,
      "duration": 0.017,
      "velocity": 98,
      "chip": "ym2612"
    },
    {
      "channel": 4,
      "note": 87,
      "start": 17.2328,
      "duration": 0.0178,
      "velocity": 98,
      "chip": "ym2612"
    },
    {
      "channel": 0,
      "note": 87,
      "start": 17.2485,
      "duration": 0.0127,
      "velocity": 98,
      "chip": "ym2612"
    },
    {
      "channel": 1,
      "note": 59,
      "start": 17.2491,
      "duration": 0.0152,
      "velocity": 82,
      "chip": "ym2612"
    },
    {
      "channel": 2,
      "note": 78,
      "start": 17.2496,
      "duration": 0.1346,
      "velocity": 104,
      "chip": "ym2612"
    },
    {
      "channel": 3,
      "note": 66,
      "start": 17.2502,
      "duration": 0.1343,
      "velocity": 104,
      "chip": "ym2612"
    },
    {
      "channel": 4,
      "note": 83,
      "start": 17.251,
      "duration": 0.0083,
      "velocity": 98,
      "chip": "ym2612"
    },
    {
      "channel": 4,
      "note": 83,
      "start": 17.2596,
      "duration": 0.008,
      "velocity": 98,
      "chip": "ym2612"
    },
    {
      "channel": 0,
      "note": 89,
      "start": 17.2615,
      "duration": 0.0107,
      "velocity": 98,
      "chip": "ym2612"
    },
    {
      "channel": 4,
      "note": 85,
      "start": 17.268,
      "duration": 0.0094,
      "velocity": 98,
      "chip": "ym2612"
    },
    {
      "channel": 0,
      "note": 87,
      "start": 17.2724,
      "duration": 0.0609,
      "velocity": 98,
      "chip": "ym2612"
    },
    {
      "channel": 4,
      "note": 83,
      "start": 17.2777,
      "duration": 0.0569,
      "velocity": 98,
      "chip": "ym2612"
    },
    {
      "channel": 0,
      "note": 89,
      "start": 17.3335,
      "duration": 0.0146,
      "velocity": 98,
      "chip": "ym2612"
    },
    {
      "channel": 4,
      "note": 85,
      "start": 17.335,
      "duration": 0.0112,
      "velocity": 98,
      "chip": "ym2612"
    },
    {
      "channel": 4,
      "note": 83,
      "start": 17.3466,
      "duration": 0.0078,
      "velocity": 98,
      "chip": "ym2612"
    },
    {
      "channel": 0,
      "note": 87,
      "start": 17.3483,
      "duration": 0.0104,
      "velocity": 98,
      "chip": "ym2612"
    },
    {
      "channel": 4,
      "note": 85,
      "start": 17.3548,
      "duration": 0.0109,
      "velocity": 98,
      "chip": "ym2612"
    },
    {
      "channel": 0,
      "note": 89,
      "start": 17.359,
      "duration": 0.0626,
      "velocity": 98,
      "chip": "ym2612"
    },
    {
      "channel": 4,
      "note": 83,
      "start": 17.3661,
      "duration": 0.0578,
      "velocity": 98,
      "chip": "ym2612"
    },
    {
      "channel": 1,
      "note": 58,
      "start": 17.4222,
      "duration": 0.0201,
      "velocity": 82,
      "chip": "ym2612"
    },
    {
      "channel": 2,
      "note": 80,
      "start": 17.4228,
      "duration": 0.0147,
      "velocity": 104,
      "chip": "ym2612"
    },
    {
      "channel": 3,
      "note": 75,
      "start": 17.4235,
      "duration": 0.0144,
      "velocity": 104,
      "chip": "ym2612"
    },
    {
      "channel": 2,
      "note": 77,
      "start": 17.5299,
      "duration": 0.0112,
      "velocity": 104,
      "chip": "ym2612"
    },
    {
      "channel": 3,
      "note": 77,
      "start": 17.5306,
      "duration": 0.0108,
      "velocity": 104,
      "chip": "ym2612"
    },
    {
      "channel": 1,
      "note": 58,
      "start": 17.5463,
      "duration": 0.0168,
      "velocity": 82,
      "chip": "ym2612"
    },
    {
      "channel": 2,
      "note": 77,
      "start": 17.5469,
      "duration": 0.2364,
      "velocity": 104,
      "chip": "ym2612"
    },
    {
      "channel": 3,
      "note": 70,
      "start": 17.5475,
      "duration": 0.2361,
      "velocity": 104,
      "chip": "ym2612"
    },
    {
      "channel": 0,
      "note": 92,
      "start": 17.6668,
      "duration": 0.0168,
      "velocity": 98,
      "chip": "ym2612"
    },
    {
      "channel": 1,
      "note": 58,
      "start": 17.6673,
      "duration": 0.0168,
      "velocity": 82,
      "chip": "ym2612"
    },
    {
      "channel": 4,
      "note": 85,
      "start": 17.6687,
      "duration": 0.0163,
      "velocity": 98,
      "chip": "ym2612"
    },
    {
      "channel": 0,
      "note": 89,
      "start": 17.7713,
      "duration": 0.0196,
      "velocity": 98,
      "chip": "ym2612"
    },
    {
      "channel": 4,
      "note": 89,
      "start": 17.7728,
      "duration": 0.0205,
      "velocity": 98,
      "chip": "ym2612"
    },
    {
      "channel": 0,
      "note": 89,
      "start": 17.7911,
      "duration": 0.0128,
      "velocity": 98,
      "chip": "ym2612"
    },
    {
      "channel": 1,
      "note": 58,
      "start": 17.7916,
      "duration": 0.0187,
      "velocity": 82,
      "chip": "ym2612"
    },
    {
      "channel": 2,
      "note": 80,
      "start": 17.7922,
      "duration": 0.0678,
      "velocity": 104,
      "chip": "ym2612"
    },
    {
      "channel": 3,
      "note": 70,
      "start": 17.7928,
      "duration": 0.0675,
      "velocity": 104,
      "chip": "ym2612"
    },
    {
      "channel": 4,
      "note": 85,
      "start": 17.7936,
      "duration": 0.0084,
      "velocity": 98,
      "chip": "ym2612"
    },
    {
      "channel": 4,
      "note": 85,
      "start": 17.8023,
      "duration": 0.0088,
      "velocity": 98,
      "chip": "ym2612"
    },
    {
      "channel": 0,
      "note": 90,
      "start": 17.8041,
      "duration": 0.0117,
      "velocity": 98,
      "chip": "ym2612"
    },
    {
      "channel": 4,
      "note": 87,
      "start": 17.8114,
      "duration": 0.0084,
      "velocity": 98,
      "chip": "ym2612"
    },
    {
      "channel": 0,
      "note": 89,
      "start": 17.8161,
      "duration": 0.013,
      "velocity": 98,
      "chip": "ym2612"
    },
    {
      "channel": 4,
      "note": 85,
      "start": 17.8201,
      "duration": 0.0103,
      "velocity": 98,
      "chip": "ym2612"
    },
    {
      "channel": 0,
      "note": 90,
      "start": 17.8293,
      "duration": 0.0113,
      "velocity": 98,
      "chip": "ym2612"
    },
    {
      "channel": 4,
      "note": 87,
      "start": 17.8307,
      "duration": 0.0079,
      "velocity": 98,
      "chip": "ym2612"
    },
    {
      "channel": 4,
      "note": 85,
      "start": 17.839,
      "duration": 0.0101,
      "velocity": 98,
      "chip": "ym2612"
    },
    {
      "channel": 0,
      "note": 89,
      "start": 17.8407,
      "duration": 0.013,
      "velocity": 98,
      "chip": "ym2612"
    },
    {
      "channel": 4,
      "note": 87,
      "start": 17.8494,
      "duration": 0.0082,
      "velocity": 98,
      "chip": "ym2612"
    },
    {
      "channel": 0,
      "note": 90,
      "start": 17.854,
      "duration": 0.0109,
      "velocity": 98,
      "chip": "ym2612"
    },
    {
      "channel": 4,
      "note": 85,
      "start": 17.858,
      "duration": 0.0092,
      "velocity": 98,
      "chip": "ym2612"
    },
    {
      "channel": 1,
      "note": 57,
      "start": 17.8656,
      "duration": 0.0171,
      "velocity": 82,
      "chip": "ym2612"
    },
    {
      "channel": 2,
      "note": 78,
      "start": 17.8661,
      "duration": 0.0117,
      "velocity": 104,
      "chip": "ym2612"
    },
    {
      "channel": 3,
      "note": 77,
      "start": 17.8667,
      "duration": 0.0113,
      "velocity": 104,
      "chip": "ym2612"
    },
    {
      "channel": 1,
      "note": 57,
      "start": 17.9856,
      "duration": 0.0169,
      "velocity": 82,
      "chip": "ym2612"
    },
    {
      "channel": 2,
      "note": 81,
      "start": 17.9861,
      "duration": 0.2372,
      "velocity": 104,
      "chip": "ym2612"
    },
    {
      "channel": 3,
      "note": 75,
      "start": 17.9868,
      "duration": 0.237,
      "velocity": 104,
      "chip": "ym2612"
    },
    {
      "channel": 0,
      "note": 93,
      "start": 18.106,
      "duration": 0.0169,
      "velocity": 98,
      "chip": "ym2612"
    },
    {
      "channel": 1,
      "note": 53,
      "start": 18.1066,
      "duration": 0.0168,
      "velocity": 82,
      "chip": "ym2612"
    },
    {
      "channel": 4,
      "note": 87,
      "start": 18.1079,
      "duration": 0.0164,
      "velocity": 98,
      "chip": "ym2612"
    },
    {
      "channel": 0,
      "note": 90,
      "start": 18.211,
      "duration": 0.0174,
      "velocity": 98,
      "chip": "ym2612"
    },
    {
      "channel": 4,
      "note": 90,
      "start": 18.2125,
      "duration": 0.0183,
      "velocity": 98,
      "chip": "ym2612"
    },
    {
      "channel": 0,
      "note": 90,
      "start": 18.2287,
      "duration": 0.1734,
      "velocity": 98,
      "chip": "ym2612"
    },
    {
      "channel": 1,
      "note": 53,
      "start": 18.2292,
      "duration": 0.0145,
      "velocity": 82,
      "chip": "ym2612"
    },
    {
      "channel": 2,
      "note": 78,
      "start": 18.2298,
      "duration": 0.0978,
      "velocity": 104,
      "chip": "ym2612"
    },
    {
      "channel": 3,
      "note": 78,
      "start": 18.2304,
      "duration": 0.0975,
      "velocity": 104,
      "chip": "ym2612"
    },
    {
      "channel": 4,
      "note": 87,
      "start": 18.2312,
      "duration": 0.173,
      "velocity": 98,
      "chip": "ym2612"
    },
    {
      "channel": 0,
      "note": 89,
      "start": 18.4022,
      "duration": 0.0161,
      "velocity": 98,
      "chip": "ym2612"
    },
    {
      "channel": 2,
      "note": 77,
      "start": 18.4031,
      "duration": 0.3703,
      "velocity": 104,
      "chip": "ym2612"
    },
    {
      "channel": 3,
      "note": 72,
      "start": 18.4037,
      "duration": 0.37,
      "velocity": 104,
      "chip": "ym2612"
    },
    {
      "channel": 4,
      "note": 87,
      "start": 18.4045,
      "duration": 0.0119,
      "velocity": 98,
      "chip": "ym2612"
    },
    {
      "channel": 1,
      "note": 58,
      "start": 18.4105,
      "duration": 0.0133,
      "velocity": 82,
      "chip": "ym2612"
    },
    {
      "channel": 4,
      "note": 86,
      "start": 18.4167,
      "duration": 0.0079,
      "velocity": 98,
      "chip": "ym2612"
    },
    {
      "channel": 0,
      "note": 90,
      "start": 18.4185,
      "duration": 0.0105,
      "velocity": 98,
      "chip": "ym2612"
    },
    {
      "channel": 4,
      "note": 87,
      "start": 18.4249,
      "duration": 0.0094,
      "velocity": 98,
      "chip": "ym2612"
    },
    {
      "channel": 0,
      "note": 89,
      "start": 18.4293,
      "duration": 0.0609,
      "velocity": 98,
      "chip": "ym2612"
    },
    {
      "channel": 4,
      "note": 86,
      "start": 18.4347,
      "duration": 0.0569,
      "velocity": 98,
      "chip": "ym2612"
    },
    {
      "channel": 0,
      "note": 90,
      "start": 18.4905,
      "duration": 0.0151,
      "velocity": 98,
      "chip": "ym2612"
    },
    {
      "channel": 4,
      "note": 87,
      "start": 18.4919,
      "duration": 0.0113,
      "velocity": 98,
      "chip": "ym2612"
    },
    {
      "channel": 4,
      "note": 86,
      "start": 18.5036,
      "duration": 0.0082,
      "velocity": 98,
      "chip": "ym2612"
    },
    {
      "channel": 0,
      "note": 89,
      "start": 18.5058,
      "duration": 0.0108,
      "velocity": 98,
      "chip": "ym2612"
    },
    {
      "channel": 4,
      "note": 87,
      "start": 18.5122,
      "duration": 0.0082,
      "velocity": 98,
      "chip": "ym2612"
    },
    {
      "channel": 0,
      "note": 90,
      "start": 18.5168,
      "duration": 0.011,
      "velocity": 98,
      "chip": "ym2612"
    },
    {
      "channel": 4,
      "note": 86,
      "start": 18.5208,
      "duration": 0.0088,
      "velocity": 98,
      "chip": "ym2612"
    },
    {
      "channel": 0,
      "note": 89,
      "start": 18.528,
      "duration": 0.0122,
      "velocity": 98,
      "chip": "ym2612"
    },
    {
      "channel": 1,
      "note": 60,
      "start": 18.5286,
      "duration": 0.0173,
      "velocity": 82,
      "chip": "ym2612"
    },
    {
      "channel": 4,
      "note": 87,
      "start": 18.5299,
      "duration": 0.0083,
      "velocity": 98,
      "chip": "ym2612"
    },
    {
      "channel": 4,
      "note": 86,
      "start": 18.5385,
      "duration": 0.0083,
      "velocity": 98,
      "chip": "ym2612"
    },
    {
      "channel": 0,
      "note": 90,
      "start": 18.5405,
      "duration": 0.011,
      "velocity": 98,
      "chip": "ym2612"
    },
    {
      "channel": 4,
      "note": 87,
      "start": 18.5472,
      "duration": 0.01,
      "velocity": 98,
      "chip": "ym2612"
    },
    {
      "channel": 0,
      "note": 89,
      "start": 18.5517,
      "duration": 0.0611,
      "velocity": 98,
      "chip": "ym2612"
    },
    {
      "channel": 4,
      "note": 86,
      "start": 18.5575,
      "duration": 0.0568,
      "velocity": 98,
      "chip": "ym2612"
    },
    {
      "channel": 0,
      "note": 90,
      "start": 18.6131,
      "duration": 0.0156,
      "velocity": 98,
      "chip": "ym2612"
    },
    {
      "channel": 4,
      "note": 87,
      "start": 18.6146,
      "duration": 0.0118,
      "velocity": 98,
      "chip": "ym2612"
    },
    {
      "channel": 4,
      "note": 86,
      "start": 18.6268,
      "duration": 0.0086,
      "velocity": 98,
      "chip": "ym2612"
    },
    {
      "channel": 0,
      "note": 89,
      "start": 18.629,
      "duration": 0.0116,
      "velocity": 98,
      "chip": "ym2612"
    },
    {
      "channel": 4,
      "note": 87,
      "start": 18.6357,
      "duration": 0.0089,
      "velocity": 98,
      "chip": "ym2612"
    },
    {
      "channel": 0,
      "note": 90,
      "start": 18.6408,
      "duration": 0.0114,
      "velocity": 98,
      "chip": "ym2612"
    },
    {
      "channel": 4,
      "note": 86,
      "start": 18.645,
      "duration": 0.009,
      "velocity": 98,
      "chip": "ym2612"
    },
    {
      "channel": 0,
      "note": 82,
      "start": 18.6524,
      "duration": 0.0064,
      "velocity": 98,
      "chip": "ym2612"
    },
    {
      "channel": 1,
      "note": 62,
      "start": 18.6529,
      "duration": 0.0189,
      "velocity": 82,
      "chip": "ym2612"
    },
    {
      "channel": 4,
      "note": 87,
      "start": 18.6543,
      "duration": 0.006,
      "velocity": 98,
      "chip": "ym2612"
    },
    {
      "channel": 0,
      "note": 84,
      "start": 18.6591,
      "duration": 0.0058,
      "velocity": 98,
      "chip": "ym2612"
    },
    {
      "channel": 4,
      "note": 70,
      "start": 18.6606,
      "duration": 0.0058,
      "velocity": 98,
      "chip": "ym2612"
    },
    {
      "channel": 0,
      "note": 86,
      "start": 18.6651,
      "duration": 0.0061,
      "velocity": 98,
      "chip": "ym2612"
    },
    {
      "channel": 4,
      "note": 72,
      "start": 18.6667,
      "duration": 0.006,
      "velocity": 98,
      "chip": "ym2612"
    },
    {
      "channel": 0,
      "note": 87,
      "start": 18.6714,
      "duration": 0.0058,
      "velocity": 98,
      "chip": "ym2612"
    },
    {
      "channel": 4,
      "note": 74,
      "start": 18.673,
      "duration": 0.0058,
      "velocity": 98,
      "chip": "ym2612"
    },
    {
      "channel": 0,
      "note": 89,
      "start": 18.6775,
      "duration": 0.022,
      "velocity": 98,
      "chip": "ym2612"
    },
    {
      "channel": 4,
      "note": 75,
      "start": 18.6792,
      "duration": 0.0217,
      "velocity": 98,
      "chip": "ym2612"
    },
    {
      "channel": 0,
      "note": 91,
      "start": 18.6996,
      "duration": 0.0377,
      "velocity": 98,
      "chip": "ym2612"
    },
    {
      "channel": 4,
      "note": 77,
      "start": 18.7012,
      "duration": 0.0376,
      "velocity": 98,
      "chip": "ym2612"
    },
    {
      "channel": 0,
      "note": 93,
      "start": 18.7376,
      "duration": 0.0096,
      "velocity": 98,
      "chip": "ym2612"
    },
    {
      "channel": 4,
      "note": 79,
      "start": 18.7391,
      "duration": 0.0095,
      "velocity": 98,
      "chip": "ym2612"
    },
    {
      "channel": 0,
      "note": 94,
      "start": 18.7474,
      "duration": 0.0063,
      "velocity": 98,
      "chip": "ym2612"
    },
    {
      "channel": 4,
      "note": 81,
      "start": 18.749,
      "duration": 0.0063,
      "velocity": 98,
      "chip": "ym2612"
    },
    {
      "channel": 0,
      "note": 96,
      "start": 18.754,
      "duration": 0.0058,
      "velocity": 98,
      "chip": "ym2612"
    },
    {
      "channel": 4,
      "note": 82,
      "start": 18.7555,
      "duration": 0.0058,
      "velocity": 98,
      "chip": "ym2612"
    },
    {
      "channel": 0,
      "note": 98,
      "start": 18.7601,
      "duration": 0.0061,
      "velocity": 98,
      "chip": "ym2612"
    },
    {
      "channel": 4,
      "note": 84,
      "start": 18.7616,
      "duration": 0.006,
      "velocity": 98,
      "chip": "ym2612"
    },
    {
      "channel": 0,
      "note": 99,
      "start": 18.7664,
      "duration": 0.0061,
      "velocity": 98,
      "chip": "ym2612"
    },
    {
      "channel": 4,
      "note": 86,
      "start": 18.7679,
      "duration": 0.0062,
      "velocity": 98,
      "chip": "ym2612"
    },
    {
      "channel": 0,
      "note": 101,
      "start": 18.7727,
      "duration": 0.0077,
      "velocity": 98,
      "chip": "ym2612"
    },
    {
      "channel": 4,
      "note": 87,
      "start": 18.7745,
      "duration": 0.0079,
      "velocity": 98,
      "chip": "ym2612"
    },
    {
      "channel": 0,
      "note": 103,
      "start": 18.7807,
      "duration": 0.007,
      "velocity": 98,
      "chip": "ym2612"
    },
    {
      "channel": 1,
      "note": 58,
      "start": 18.7812,
      "duration": 0.0161,
      "velocity": 82,
      "chip": "ym2612"
    },
    {
      "channel": 4,
      "note": 89,
      "start": 18.7827,
      "duration": 0.0064,
      "velocity": 98,
      "chip": "ym2612"
    },
    {
      "channel": 0,
      "note": 105,
      "start": 18.788,
      "duration": 0.0056,
      "velocity": 98,
      "chip": "ym2612"
    },
    {
      "channel": 4,
      "note": 91,
      "start": 18.7895,
      "duration": 0.0056,
      "velocity": 98,
      "chip": "ym2612"
    },
    {
      "channel": 0,
      "note": 106,
      "start": 18.7939,
      "duration": 0.014,
      "velocity": 98,
      "chip": "ym2612"
    },
    {
      "channel": 4,
      "note": 93,
      "start": 18.7954,
      "duration": 0.0137,
      "velocity": 98,
      "chip": "ym2612"
    },
    {
      "channel": 0,
      "note": 99,
      "start": 19.0975,
      "duration": 0.008,
      "velocity": 98,
      "chip": "ym2612"
    },
    {
      "channel": 2,
      "note": 75,
      "start": 19.0999,
      "duration": 0.0167,
      "velocity": 104,
      "chip": "ym2612"
    },
    {
      "channel": 3,
      "note": 74,
      "start": 19.1028,
      "duration": 0.0141,
      "velocity": 104,
      "chip": "ym2612"
    },
    {
      "channel": 4,
      "note": 94,
      "start": 19.1036,
      "duration": 0.0033,
      "velocity": 98,
      "chip": "ym2612"
    },
    {
      "channel": 0,
      "note": 101,
      "start": 19.1057,
      "duration": 0.0031,
      "velocity": 98,
      "chip": "ym2612"
    },
    {
      "channel": 4,
      "note": 87,
      "start": 19.1072,
      "duration": 0.003,
      "velocity": 98,
      "chip": "ym2612"
    },
    {
      "channel": 0,
      "note": 102,
      "start": 19.109,
      "duration": 0.0031,
      "velocity": 98,
      "chip": "ym2612"
    },
    {
      "channel": 4,
      "note": 89,
      "start": 19.1105,
      "duration": 0.003,
      "velocity": 98,
      "chip": "ym2612"
    },
    {
      "channel": 0,
      "note": 104,
      "start": 19.1124,
      "duration": 0.0034,
      "velocity": 98,
      "chip": "ym2612"
    },
    {
      "channel": 4,
      "note": 90,
      "start": 19.1138,
      "duration": 0.0034,
      "velocity": 98,
      "chip": "ym2612"
    },
    {
      "channel": 0,
      "note": 106,
      "start": 19.116,
      "duration": 0.0032,
      "velocity": 98,
      "chip": "ym2612"
    },
    {
      "channel": 4,
      "note": 92,
      "start": 19.1176,
      "duration": 0.003,
      "velocity": 98,
      "chip": "ym2612"
    },
    {
      "channel": 0,
      "note": 108,
      "start": 19.1194,
      "duration": 0.0036,
      "velocity": 98,
      "chip": "ym2612"
    },
    {
      "channel": 4,
      "note": 94,
      "start": 19.1209,
      "duration": 0.0045,
      "velocity": 98,
      "chip": "ym2612"
    },
    {
      "channel": 0,
      "note": 110,
      "start": 19.1232,
      "duration": 0.0078,
      "velocity": 98,
      "chip": "ym2612"
    },
    {
      "channel": 1,
      "note": 51,
      "start": 19.1237,
      "duration": 0.0216,
      "velocity": 82,
      "chip": "ym2612"
    },
    {
      "channel": 2,
      "note": 75,
      "start": 19.1243,
      "duration": 0.0105,
      "velocity": 104,
      "chip": "ym2612"
    },
    {
      "channel": 3,
      "note": 70,
      "start": 19.125,
      "duration": 0.0102,
      "velocity": 104,
      "chip": "ym2612"
    },
    {
      "channel": 4,
      "note": 96,
      "start": 19.1257,
      "duration": 0.0067,
      "velocity": 98,
      "chip": "ym2612"
    },
    {
      "channel": 0,
      "note": 111,
      "start": 19.1313,
      "duration": 0.0137,
      "velocity": 98,
      "chip": "ym2612"
    },
    {
      "channel": 4,
      "note": 98,
      "start": 19.1327,
      "duration": 0.0135,
      "velocity": 98,
      "chip": "ym2612"
    },
    {
      "channel": 2,
      "note": 74,
      "start": 19.6876,
      "duration": 0.0117,
      "velocity": 104,
      "chip": "ym2612"
    },
    {
      "channel": 3,
      "note": 70,
      "start": 19.6882,
      "duration": 0.0114,
      "velocity": 104,
      "chip": "ym2612"
    },
    {
      "channel": 1,
      "note": 53,
      "start": 19.7046,
      "duration": 0.0175,
      "velocity": 82,
      "chip": "ym2612"
    },
    {
      "channel": 2,
      "note": 74,
      "start": 19.7051,
      "duration": 0.0065,
      "velocity": 104,
      "chip": "ym2612"
    },
    {
      "channel": 3,
      "note": 68,
      "start": 19.7058,
      "duration": 0.0062,
      "velocity": 104,
      "chip": "ym2612"
    },
    {
      "channel": 0,
      "note": 99,
      "start": 20.2636,
      "duration": 0.0041,
      "velocity": 98,
      "chip": "ym2612"
    },
    {
      "channel": 2,
      "note": 75,
      "start": 20.2644,
      "duration": 0.0178,
      "velocity": 104,
      "chip": "ym2612"
    },
    {
      "channel": 3,
      "note": 68,
      "start": 20.265,
      "duration": 0.0175,
      "velocity": 104,
      "chip": "ym2612"
    },
    {
      "channel": 4,
      "note": 99,
      "start": 20.2658,
      "duration": 0.0033,
      "velocity": 98,
      "chip": "ym2612"
    },
    {
      "channel": 0,
      "note": 101,
      "start": 20.2679,
      "duration": 0.0031,
      "velocity": 98,
      "chip": "ym2612"
    },
    {
      "channel": 4,
      "note": 87,
      "start": 20.2693,
      "duration": 0.003,
      "velocity": 98,
      "chip": "ym2612"
    },
    {
      "channel": 0,
      "note": 102,
      "start": 20.2712,
      "duration": 0.0031,
      "velocity": 98,
      "chip": "ym2612"
    },
    {
      "channel": 4,
      "note": 89,
      "start": 20.2727,
      "duration": 0.0029,
      "velocity": 98,
      "chip": "ym2612"
    },
    {
      "channel": 0,
      "note": 104,
      "start": 20.2744,
      "duration": 0.0069,
      "velocity": 98,
      "chip": "ym2612"
    },
    {
      "channel": 4,
      "note": 90,
      "start": 20.2759,
      "duration": 0.0069,
      "velocity": 98,
      "chip": "ym2612"
    },
    {
      "channel": 0,
      "note": 106,
      "start": 20.2815,
      "duration": 0.0032,
      "velocity": 98,
      "chip": "ym2612"
    },
    {
      "channel": 4,
      "note": 92,
      "start": 20.2832,
      "duration": 0.003,
      "velocity": 98,
      "chip": "ym2612"
    },
    {
      "channel": 0,
      "note": 108,
      "start": 20.285,
      "duration": 0.0036,
      "velocity": 98,
      "chip": "ym2612"
    },
    {
      "channel": 4,
      "note": 94,
      "start": 20.2865,
      "duration": 0.0045,
      "velocity": 98,
      "chip": "ym2612"
    },
    {
      "channel": 0,
      "note": 110,
      "start": 20.2888,
      "duration": 0.0078,
      "velocity": 98,
      "chip": "ym2612"
    },
    {
      "channel": 1,
      "note": 54,
      "start": 20.2893,
      "duration": 0.0216,
      "velocity": 82,
      "chip": "ym2612"
    },
    {
      "channel": 2,
      "note": 75,
      "start": 20.2899,
      "duration": 0.0104,
      "velocity": 104,
      "chip": "ym2612"
    },
    {
      "channel": 3,
      "note": 70,
      "start": 20.2905,
      "duration": 0.0101,
      "velocity": 104,
      "chip": "ym2612"
    },
    {
      "channel": 4,
      "note": 96,
      "start": 20.2913,
      "duration": 0.0066,
      "velocity": 98,
      "chip": "ym2612"
    },
    {
      "channel": 0,
      "note": 111,
      "start": 20.2968,
      "duration": 0.0137,
      "velocity": 98,
      "chip": "ym2612"
    },
    {
      "channel": 4,
      "note": 98,
      "start": 20.2983,
      "duration": 0.0135,
      "velocity": 98,
      "chip": "ym2612"
    },
    {
      "channel": 2,
      "note": 77,
      "start": 20.8535,
      "duration": 0.0116,
      "velocity": 104,
      "chip": "ym2612"
    },
    {
      "channel": 3,
      "note": 70,
      "start": 20.8541,
      "duration": 0.0113,
      "velocity": 104,
      "chip": "ym2612"
    },
    {
      "channel": 1,
      "note": 50,
      "start": 20.8703,
      "duration": 0.0176,
      "velocity": 82,
      "chip": "ym2612"
    },
    {
      "channel": 2,
      "note": 77,
      "start": 20.8709,
      "duration": 0.0065,
      "velocity": 104,
      "chip": "ym2612"
    },
    {
      "channel": 3,
      "note": 74,
      "start": 20.8715,
      "duration": 0.0061,
      "velocity": 104,
      "chip": "ym2612"
    },
    {
      "channel": 2,
      "note": 75,
      "start": 21.1835,
      "duration": 0.17,
      "velocity": 104,
      "chip": "ym2612"
    },
    {
      "channel": 3,
      "note": 74,
      "start": 21.1841,
      "duration": 0.1697,
      "velocity": 104,
      "chip": "ym2612"
    },
    {
      "channel": 1,
      "note": 51,
      "start": 21.4485,
      "duration": 0.0169,
      "velocity": 82,
      "chip": "ym2612"
    },
    {
      "channel": 2,
      "note": 78,
      "start": 21.449,
      "duration": 0.2377,
      "velocity": 104,
      "chip": "ym2612"
    },
    {
      "channel": 3,
      "note": 70,
      "start": 21.4496,
      "duration": 0.2374,
      "velocity": 104,
      "chip": "ym2612"
    },
    {
      "channel": 1,
      "note": 49,
      "start": 21.5693,
      "duration": 0.0166,
      "velocity": 82,
      "chip": "ym2612"
    },
    {
      "channel": 1,
      "note": 49,
      "start": 21.6921,
      "duration": 0.017,
      "velocity": 82,
      "chip": "ym2612"
    },
    {
      "channel": 2,
      "note": 75,
      "start": 21.6927,
      "duration": 0.135,
      "velocity": 104,
      "chip": "ym2612"
    },
    {
      "channel": 3,
      "note": 75,
      "start": 21.6933,
      "duration": 0.1346,
      "velocity": 104,
      "chip": "ym2612"
    },
    {
      "channel": 1,
      "note": 56,
      "start": 21.8655,
      "duration": 0.0201,
      "velocity": 82,
      "chip": "ym2612"
    },
    {
      "channel": 2,
      "note": 75,
      "start": 21.8661,
      "duration": 0.0147,
      "velocity": 104,
      "chip": "ym2612"
    },
    {
      "channel": 3,
      "note": 70,
      "start": 21.8667,
      "duration": 0.0144,
      "velocity": 104,
      "chip": "ym2612"
    },
    {
      "channel": 2,
      "note": 72,
      "start": 21.9539,
      "duration": 0.0145,
      "velocity": 104,
      "chip": "ym2612"
    },
    {
      "channel": 3,
      "note": 72,
      "start": 21.9546,
      "duration": 0.0142,
      "velocity": 104,
      "chip": "ym2612"
    },
    {
      "channel": 2,
      "note": 72,
      "start": 21.9737,
      "duration": 0.0111,
      "velocity": 104,
      "chip": "ym2612"
    },
    {
      "channel": 3,
      "note": 68,
      "start": 21.9743,
      "duration": 0.0108,
      "velocity": 104,
      "chip": "ym2612"
    },
    {
      "channel": 1,
      "note": 56,
      "start": 21.99,
      "duration": 0.0172,
      "velocity": 82,
      "chip": "ym2612"
    },
    {
      "channel": 2,
      "note": 72,
      "start": 21.9905,
      "duration": 0.0061,
      "velocity": 104,
      "chip": "ym2612"
    },
    {
      "channel": 3,
      "note": 68,
      "start": 21.9912,
      "duration": 0.0083,
      "velocity": 104,
      "chip": "ym2612"
    },
    {
      "channel": 2,
      "note": 75,
      "start": 22.0752,
      "duration": 0.0095,
      "velocity": 104,
      "chip": "ym2612"
    },
    {
      "channel": 3,
      "note": 68,
      "start": 22.0759,
      "duration": 0.0118,
      "velocity": 104,
      "chip": "ym2612"
    },
    {
      "channel": 0,
      "note": 84,
      "start": 22.1124,
      "duration": 0.0174,
      "velocity": 98,
      "chip": "ym2612"
    },
    {
      "channel": 1,
      "note": 56,
      "start": 22.113,
      "duration": 0.0173,
      "velocity": 82,
      "chip": "ym2612"
    },
    {
      "channel": 2,
      "note": 80,
      "start": 22.1135,
      "duration": 0.1912,
      "velocity": 104,
      "chip": "ym2612"
    },
    {
      "channel": 3,
      "note": 72,
      "start": 22.1142,
      "duration": 0.1909,
      "velocity": 104,
      "chip": "ym2612"
    },
    {
      "channel": 4,
      "note": 99,
      "start": 22.1149,
      "duration": 0.0162,
      "velocity": 98,
      "chip": "ym2612"
    },
    {
      "channel": 0,
      "note": 80,
      "start": 22.1976,
      "duration": 0.012,
      "velocity": 98,
      "chip": "ym2612"
    },
    {
      "channel": 4,
      "note": 80,
      "start": 22.1991,
      "duration": 0.0117,
      "velocity": 98,
      "chip": "ym2612"
    },
    {
      "channel": 0,
      "note": 80,
      "start": 22.2183,
      "duration": 0.0085,
      "velocity": 98,
      "chip": "ym2612"
    },
    {
      "channel": 4,
      "note": 75,
      "start": 22.2198,
      "duration": 0.0082,
      "velocity": 98,
      "chip": "ym2612"
    },
    {
      "channel": 0,
      "note": 80,
      "start": 22.2356,
      "duration": 0.0189,
      "velocity": 98,
      "chip": "ym2612"
    },
    {
      "channel": 1,
      "note": 56,
      "start": 22.2361,
      "duration": 0.0187,
      "velocity": 82,
      "chip": "ym2612"
    },
    {
      "channel": 4,
      "note": 75,
      "start": 22.2374,
      "duration": 0.0184,
      "velocity": 98,
      "chip": "ym2612"
    },
    {
      "channel": 0,
      "note": 84,
      "start": 22.2739,
      "duration": 0.019,
      "velocity": 98,
      "chip": "ym2612"
    },
    {
      "channel": 4,
      "note": 75,
      "start": 22.2754,
      "duration": 0.0187,
      "velocity": 98,
      "chip": "ym2612"
    },
    {
      "channel": 0,
      "note": 87,
      "start": 22.3099,
      "duration": 0.0125,
      "velocity": 98,
      "chip": "ym2612"
    },
    {
      "channel": 1,
      "note": 59,
      "start": 22.3105,
      "duration": 0.0176,
      "velocity": 82,
      "chip": "ym2612"
    },
    {
      "channel": 2,
      "note": 71,
      "start": 22.311,
      "duration": 0.0464,
      "velocity": 104,
      "chip": "ym2612"
    },
    {
      "channel": 3,
      "note": 75,
      "start": 22.3116,
      "duration": 0.0461,
      "velocity": 104,
      "chip": "ym2612"
    },
    {
      "channel": 4,
      "note": 80,
      "start": 22.3124,
      "duration": 0.0112,
      "velocity": 98,
      "chip": "ym2612"
    },
    {
      "channel": 0,
      "note": 83,
      "start": 22.3951,
      "duration": 0.0198,
      "velocity": 98,
      "chip": "ym2612"
    },
    {
      "channel": 4,
      "note": 83,
      "start": 22.3968,
      "duration": 0.0195,
      "velocity": 98,
      "chip": "ym2612"
    },
    {
      "channel": 0,
      "note": 87,
      "start": 22.4152,
      "duration": 0.0185,
      "velocity": 98,
      "chip": "ym2612"
    },
    {
      "channel": 4,
      "note": 78,
      "start": 22.4167,
      "duration": 0.0195,
      "velocity": 98,
      "chip": "ym2612"
    },
    {
      "channel": 0,
      "note": 90,
      "start": 22.434,
      "duration": 0.124,
      "velocity": 98,
      "chip": "ym2612"
    },
    {
      "channel": 1,
      "note": 59,
      "start": 22.4346,
      "duration": 0.017,
      "velocity": 82,
      "chip": "ym2612"
    },
    {
      "channel": 2,
      "note": 66,
      "start": 22.4351,
      "duration": 0.1138,
      "velocity": 104,
      "chip": "ym2612"
    },
    {
      "channel": 3,
      "note": 66,
      "start": 22.4357,
      "duration": 0.1135,
      "velocity": 104,
      "chip": "ym2612"
    },
    {
      "channel": 4,
      "note": 83,
      "start": 22.4365,
      "duration": 0.1193,
      "velocity": 98,
      "chip": "ym2612"
    },
    {
      "channel": 1,
      "note": 59,
      "start": 22.5541,
      "duration": 0.0193,
      "velocity": 82,
      "chip": "ym2612"
    },
    {
      "channel": 2,
      "note": 71,
      "start": 22.5547,
      "duration": 0.1193,
      "velocity": 104,
      "chip": "ym2612"
    },
    {
      "channel": 3,
      "note": 63,
      "start": 22.5553,
      "duration": 0.1189,
      "velocity": 104,
      "chip": "ym2612"
    },
    {
      "channel": 4,
      "note": 87,
      "start": 22.5561,
      "duration": 0.0063,
      "velocity": 98,
      "chip": "ym2612"
    },
    {
      "channel": 0,
      "note": 83,
      "start": 22.5583,
      "duration": 0.0027,
      "velocity": 98,
      "chip": "ym2612"
    },
    {
      "channel": 0,
      "note": 85,
      "start": 22.5612,
      "duration": 0.0057,
      "velocity": 98,
      "chip": "ym2612"
    },
    {
      "channel": 4,
      "note": 71,
      "start": 22.5627,
      "duration": 0.0056,
      "velocity": 98,
      "chip": "ym2612"
    },
    {
      "channel": 0,
      "note": 87,
      "start": 22.5672,
      "duration": 0.0057,
      "velocity": 98,
      "chip": "ym2612"
    },
    {
      "channel": 4,
      "note": 73,
      "start": 22.5686,
      "duration": 0.0057,
      "velocity": 98,
      "chip": "ym2612"
    },
    {
      "channel": 0,
      "note": 88,
      "start": 22.5731,
      "duration": 0.0057,
      "velocity": 98,
      "chip": "ym2612"
    },
    {
      "channel": 4,
      "note": 75,
      "start": 22.5746,
      "duration": 0.0057,
      "velocity": 98,
      "chip": "ym2612"
    },
    {
      "channel": 0,
      "note": 90,
      "start": 22.579,
      "duration": 0.0219,
      "velocity": 98,
      "chip": "ym2612"
    },
    {
      "channel": 4,
      "note": 76,
      "start": 22.5806,
      "duration": 0.0217,
      "velocity": 98,
      "chip": "ym2612"
    },
    {
      "channel": 0,
      "note": 92,
      "start": 22.6011,
      "duration": 0.0377,
      "velocity": 98,
      "chip": "ym2612"
    },
    {
      "channel": 4,
      "note": 78,
      "start": 22.6026,
      "duration": 0.0376,
      "velocity": 98,
      "chip": "ym2612"
    },
    {
      "channel": 0,
      "note": 94,
      "start": 22.639,
      "duration": 0.0095,
      "velocity": 98,
      "chip": "ym2612"
    },
    {
      "channel": 4,
      "note": 80,
      "start": 22.6405,
      "duration": 0.0094,
      "velocity": 98,
      "chip": "ym2612"
    },
    {
      "channel": 0,
      "note": 95,
      "start": 22.6488,
      "duration": 0.006,
      "velocity": 98,
      "chip": "ym2612"
    },
    {
      "channel": 4,
      "note": 82,
      "start": 22.6502,
      "duration": 0.0059,
      "velocity": 98,
      "chip": "ym2612"
    },
    {
      "channel": 0,
      "note": 97,
      "start": 22.6549,
      "duration": 0.0057,
      "velocity": 98,
      "chip": "ym2612"
    },
    {
      "channel": 4,
      "note": 83,
      "start": 22.6564,
      "duration": 0.0055,
      "velocity": 98,
      "chip": "ym2612"
    },
    {
      "channel": 0,
      "note": 99,
      "start": 22.6608,
      "duration": 0.0061,
      "velocity": 98,
      "chip": "ym2612"
    },
    {
      "channel": 4,
      "note": 85,
      "start": 22.6623,
      "duration": 0.006,
      "velocity": 98,
      "chip": "ym2612"
    },
    {
      "channel": 0,
      "note": 100,
      "start": 22.6671,
      "duration": 0.006,
      "velocity": 98,
      "chip": "ym2612"
    },
    {
      "channel": 4,
      "note": 87,
      "start": 22.6686,
      "duration": 0.006,
      "velocity": 98,
      "chip": "ym2612"
    },
    {
      "channel": 0,
      "note": 102,
      "start": 22.6733,
      "duration": 0.0061,
      "velocity": 98,
      "chip": "ym2612"
    },
    {
      "channel": 4,
      "note": 88,
      "start": 22.675,
      "duration": 0.0068,
      "velocity": 98,
      "chip": "ym2612"
    },
    {
      "channel": 0,
      "note": 104,
      "start": 22.6796,
      "duration": 0.0073,
      "velocity": 98,
      "chip": "ym2612"
    },
    {
      "channel": 1,
      "note": 59,
      "start": 22.6801,
      "duration": 0.0158,
      "velocity": 82,
      "chip": "ym2612"
    },
    {
      "channel": 2,
      "note": 75,
      "start": 22.6807,
      "duration": 0.1348,
      "velocity": 104,
      "chip": "ym2612"
    },
    {
      "channel": 3,
      "note": 66,
      "start": 22.6814,
      "duration": 0.1345,
      "velocity": 104,
      "chip": "ym2612"
    },
    {
      "channel": 4,
      "note": 90,
      "start": 22.6821,
      "duration": 0.0063,
      "velocity": 98,
      "chip": "ym2612"
    },
    {
      "channel": 0,
      "note": 106,
      "start": 22.6872,
      "duration": 0.0056,
      "velocity": 98,
      "chip": "ym2612"
    },
    {
      "channel": 4,
      "note": 92,
      "start": 22.6887,
      "duration": 0.0081,
      "velocity": 98,
      "chip": "ym2612"
    },
    {
      "channel": 0,
      "note": 107,
      "start": 22.6931,
      "duration": 0.0145,
      "velocity": 98,
      "chip": "ym2612"
    },
    {
      "channel": 4,
      "note": 94,
      "start": 22.6971,
      "duration": 0.0117,
      "velocity": 98,
      "chip": "ym2612"
    },
    {
      "channel": 0,
      "note": 89,
      "start": 22.8533,
      "duration": 0.0155,
      "velocity": 98,
      "chip": "ym2612"
    },
    {
      "channel": 1,
      "note": 58,
      "start": 22.8538,
      "duration": 0.0183,
      "velocity": 82,
      "chip": "ym2612"
    },
    {
      "channel": 2,
      "note": 73,
      "start": 22.8544,
      "duration": 0.0495,
      "velocity": 104,
      "chip": "ym2612"
    },
    {
      "channel": 3,
      "note": 71,
      "start": 22.855,
      "duration": 0.0492,
      "velocity": 104,
      "chip": "ym2612"
    },
    {
      "channel": 4,
      "note": 95,
      "start": 22.8558,
      "duration": 0.0142,
      "velocity": 98,
      "chip": "ym2612"
    },
    {
      "channel": 0,
      "note": 85,
      "start": 22.9417,
      "duration": 0.0198,
      "velocity": 98,
      "chip": "ym2612"
    },
    {
      "channel": 4,
      "note": 85,
      "start": 22.9434,
      "duration": 0.0195,
      "velocity": 98,
      "chip": "ym2612"
    },
    {
      "channel": 0,
      "note": 89,
      "start": 22.9617,
      "duration": 0.0169,
      "velocity": 98,
      "chip": "ym2612"
    },
    {
      "channel": 4,
      "note": 80,
      "start": 22.9632,
      "duration": 0.0178,
      "velocity": 98,
      "chip": "ym2612"
    },
    {
      "channel": 0,
      "note": 92,
      "start": 22.9789,
      "duration": 0.1195,
      "velocity": 98,
      "chip": "ym2612"
    },
    {
      "channel": 1,
      "note": 58,
      "start": 22.9794,
      "duration": 0.0169,
      "velocity": 82,
      "chip": "ym2612"
    },
    {
      "channel": 2,
      "note": 68,
      "start": 22.98,
      "duration": 0.1137,
      "velocity": 104,
      "chip": "ym2612"
    },
    {
      "channel": 3,
      "note": 68,
      "start": 22.9806,
      "duration": 0.1133,
      "velocity": 104,
      "chip": "ym2612"
    },
    {
      "channel": 4,
      "note": 85,
      "start": 22.9814,
      "duration": 0.1194,
      "velocity": 98,
      "chip": "ym2612"
    },
    {
      "channel": 0,
      "note": 85,
      "start": 23.0986,
      "duration": 0.007,
      "velocity": 98,
      "chip": "ym2612"
    },
    {
      "channel": 1,
      "note": 58,
      "start": 23.0991,
      "duration": 0.019,
      "velocity": 82,
      "chip": "ym2612"
    },
    {
      "channel": 2,
      "note": 73,
      "start": 23.0997,
      "duration": 0.1191,
      "velocity": 104,
      "chip": "ym2612"
    },
    {
      "channel": 3,
      "note": 65,
      "start": 23.1003,
      "duration": 0.1188,
      "velocity": 104,
      "chip": "ym2612"
    },
    {
      "channel": 4,
      "note": 89,
      "start": 23.1011,
      "duration": 0.0059,
      "velocity": 98,
      "chip": "ym2612"
    },
    {
      "channel": 0,
      "note": 87,
      "start": 23.1059,
      "duration": 0.0057,
      "velocity": 98,
      "chip": "ym2612"
    },
    {
      "channel": 4,
      "note": 73,
      "start": 23.1073,
      "duration": 0.0056,
      "velocity": 98,
      "chip": "ym2612"
    },
    {
      "channel": 0,
      "note": 89,
      "start": 23.1118,
      "duration": 0.0057,
      "velocity": 98,
      "chip": "ym2612"
    },
    {
      "channel": 4,
      "note": 75,
      "start": 23.1132,
      "duration": 0.0057,
      "velocity": 98,
      "chip": "ym2612"
    },
    {
      "channel": 0,
      "note": 90,
      "start": 23.1177,
      "duration": 0.0056,
      "velocity": 98,
      "chip": "ym2612"
    },
    {
      "channel": 4,
      "note": 77,
      "start": 23.1192,
      "duration": 0.0057,
      "velocity": 98,
      "chip": "ym2612"
    },
    {
      "channel": 0,
      "note": 92,
      "start": 23.1236,
      "duration": 0.022,
      "velocity": 98,
      "chip": "ym2612"
    },
    {
      "channel": 4,
      "note": 78,
      "start": 23.1252,
      "duration": 0.0218,
      "velocity": 98,
      "chip": "ym2612"
    },
    {
      "channel": 0,
      "note": 94,
      "start": 23.1459,
      "duration": 0.0377,
      "velocity": 98,
      "chip": "ym2612"
    },
    {
      "channel": 4,
      "note": 80,
      "start": 23.1473,
      "duration": 0.0376,
      "velocity": 98,
      "chip": "ym2612"
    },
    {
      "channel": 0,
      "note": 96,
      "start": 23.1838,
      "duration": 0.0095,
      "velocity": 98,
      "chip": "ym2612"
    },
    {
      "channel": 4,
      "note": 82,
      "start": 23.1852,
      "duration": 0.0094,
      "velocity": 98,
      "chip": "ym2612"
    },
    {
      "channel": 0,
      "note": 97,
      "start": 23.1935,
      "duration": 0.006,
      "velocity": 98,
      "chip": "ym2612"
    },
    {
      "channel": 4,
      "note": 84,
      "start": 23.1949,
      "duration": 0.0059,
      "velocity": 98,
      "chip": "ym2612"
    },
    {
      "channel": 0,
      "note": 99,
      "start": 23.1997,
      "duration": 0.0057,
      "velocity": 98,
      "chip": "ym2612"
    },
    {
      "channel": 4,
      "note": 85,
      "start": 23.2012,
      "duration": 0.0056,
      "velocity": 98,
      "chip": "ym2612"
    },
    {
      "channel": 0,
      "note": 101,
      "start": 23.2056,
      "duration": 0.0061,
      "velocity": 98,
      "chip": "ym2612"
    },
    {
      "channel": 4,
      "note": 87,
      "start": 23.2071,
      "duration": 0.006,
      "velocity": 98,
      "chip": "ym2612"
    },
    {
      "channel": 0,
      "note": 102,
      "start": 23.2119,
      "duration": 0.006,
      "velocity": 98,
      "chip": "ym2612"
    },
    {
      "channel": 4,
      "note": 89,
      "start": 23.2134,
      "duration": 0.006,
      "velocity": 98,
      "chip": "ym2612"
    },
    {
      "channel": 0,
      "note": 104,
      "start": 23.2182,
      "duration": 0.0061,
      "velocity": 98,
      "chip": "ym2612"
    },
    {
      "channel": 4,
      "note": 90,
      "start": 23.2198,
      "duration": 0.0068,
      "velocity": 98,
      "chip": "ym2612"
    },
    {
      "channel": 0,
      "note": 106,
      "start": 23.2245,
      "duration": 0.0073,
      "velocity": 98,
      "chip": "ym2612"
    },
    {
      "channel": 1,
      "note": 58,
      "start": 23.2251,
      "duration": 0.0157,
      "velocity": 82,
      "chip": "ym2612"
    },
    {
      "channel": 2,
      "note": 77,
      "start": 23.2256,
      "duration": 0.0631,
      "velocity": 104,
      "chip": "ym2612"
    },
    {
      "channel": 3,
      "note": 68,
      "start": 23.2262,
      "duration": 0.0628,
      "velocity": 104,
      "chip": "ym2612"
    },
    {
      "channel": 4,
      "note": 92,
      "start": 23.227,
      "duration": 0.0063,
      "velocity": 98,
      "chip": "ym2612"
    },
    {
      "channel": 0,
      "note": 108,
      "start": 23.2321,
      "duration": 0.0056,
      "velocity": 98,
      "chip": "ym2612"
    },
    {
      "channel": 4,
      "note": 94,
      "start": 23.2335,
      "duration": 0.0081,
      "velocity": 98,
      "chip": "ym2612"
    },
    {
      "channel": 0,
      "note": 109,
      "start": 23.2379,
      "duration": 0.0135,
      "velocity": 98,
      "chip": "ym2612"
    },
    {
      "channel": 4,
      "note": 96,
      "start": 23.2419,
      "duration": 0.0107,
      "velocity": 98,
      "chip": "ym2612"
    },
    {
      "channel": 0,
      "note": 90,
      "start": 23.2938,
      "duration": 0.0098,
      "velocity": 98,
      "chip": "ym2612"
    },
    {
      "channel": 1,
      "note": 56,
      "start": 23.2943,
      "duration": 0.0173,
      "velocity": 82,
      "chip": "ym2612"
    },
    {
      "channel": 2,
      "note": 78,
      "start": 23.2948,
      "duration": 0.1939,
      "velocity": 104,
      "chip": "ym2612"
    },
    {
      "channel": 3,
      "note": 73,
      "start": 23.2955,
      "duration": 0.3483,
      "velocity": 104,
      "chip": "ym2612"
    },
    {
      "channel": 4,
      "note": 97,
      "start": 23.2962,
      "duration": 0.0085,
      "velocity": 98,
      "chip": "ym2612"
    },
    {
      "channel": 0,
      "note": 87,
      "start": 23.3788,
      "duration": 0.0191,
      "velocity": 98,
      "chip": "ym2612"
    },
    {
      "channel": 4,
      "note": 87,
      "start": 23.3802,
      "duration": 0.0191,
      "velocity": 98,
      "chip": "ym2612"
    },
    {
      "channel": 0,
      "note": 90,
      "start": 23.3982,
      "duration": 0.0161,
      "velocity": 98,
      "chip": "ym2612"
    },
    {
      "channel": 4,
      "note": 83,
      "start": 23.3996,
      "duration": 0.0079,
      "velocity": 98,
      "chip": "ym2612"
    },
    {
      "channel": 0,
      "note": 94,
      "start": 23.4145,
      "duration": 0.0133,
      "velocity": 98,
      "chip": "ym2612"
    },
    {
      "channel": 1,
      "note": 56,
      "start": 23.415,
      "duration": 0.5414,
      "velocity": 82,
      "chip": "ym2612"
    },
    {
      "channel": 4,
      "note": 87,
      "start": 23.4164,
      "duration": 0.0092,
      "velocity": 98,
      "chip": "ym2612"
    },
    {
      "channel": 4,
      "note": 90,
      "start": 23.4259,
      "duration": 0.0086,
      "velocity": 98,
      "chip": "ym2612"
    },
    {
      "channel": 0,
      "note": 95,
      "start": 23.428,
      "duration": 0.0113,
      "velocity": 98,
      "chip": "ym2612"
    },
    {
      "channel": 4,
      "note": 92,
      "start": 23.4348,
      "duration": 0.0087,
      "velocity": 98,
      "chip": "ym2612"
    },
    {
      "channel": 0,
      "note": 94,
      "start": 23.4396,
      "duration": 0.0117,
      "velocity": 98,
      "chip": "ym2612"
    },
    {
      "channel": 4,
      "note": 90,
      "start": 23.4439,
      "duration": 0.0089,
      "velocity": 98,
      "chip": "ym2612"
    },
    {
      "channel": 0,
      "note": 95,
      "start": 23.4515,
      "duration": 0.0156,
      "velocity": 98,
      "chip": "ym2612"
    },
    {
      "channel": 4,
      "note": 92,
      "start": 23.4531,
      "duration": 0.0118,
      "velocity": 98,
      "chip": "ym2612"
    },
    {
      "channel": 4,
      "note": 90,
      "start": 23.4651,
      "duration": 0.0103,
      "velocity": 98,
      "chip": "ym2612"
    },
    {
      "channel": 0,
      "note": 94,
      "start": 23.4674,
      "duration": 0.0132,
      "velocity": 98,
      "chip": "ym2612"
    },
    {
      "channel": 4,
      "note": 92,
      "start": 23.4758,
      "duration": 0.0102,
      "velocity": 98,
      "chip": "ym2612"
    },
    {
      "channel": 0,
      "note": 95,
      "start": 23.4808,
      "duration": 0.0129,
      "velocity": 98,
      "chip": "ym2612"
    },
    {
      "channel": 4,
      "note": 90,
      "start": 23.4863,
      "duration": 0.0092,
      "velocity": 98,
      "chip": "ym2612"
    },
    {
      "channel": 0,
      "note": 94,
      "start": 23.4939,
      "duration": 0.0126,
      "velocity": 98,
      "chip": "ym2612"
    },
    {
      "channel": 2,
      "note": 78,
      "start": 23.4948,
      "duration": 0.0062,
      "velocity": 104,
      "chip": "ym2612"
    },
    {
      "channel": 4,
      "note": 92,
      "start": 23.4958,
      "duration": 0.0084,
      "velocity": 98,
      "chip": "ym2612"
    },
    {
      "channel": 4,
      "note": 90,
      "start": 23.5045,
      "duration": 0.009,
      "velocity": 98,
      "chip": "ym2612"
    },
    {
      "channel": 0,
      "note": 95,
      "start": 23.5068,
      "duration": 0.0117,
      "velocity": 98,
      "chip": "ym2612"
    },
    {
      "channel": 4,
      "note": 92,
      "start": 23.5139,
      "duration": 0.0104,
      "velocity": 98,
      "chip": "ym2612"
    },
    {
      "channel": 0,
      "note": 94,
      "start": 23.5187,
      "duration": 0.0132,
      "velocity": 98,
      "chip": "ym2612"
    },
    {
      "channel": 4,
      "note": 90,
      "start": 23.5246,
      "duration": 0.009,
      "velocity": 98,
      "chip": "ym2612"
    },
    {
      "channel": 0,
      "note": 95,
      "start": 23.5321,
      "duration": 0.0126,
      "velocity": 98,
      "chip": "ym2612"
    },
    {
      "channel": 2,
      "note": 75,
      "start": 23.5329,
      "duration": 0.0127,
      "velocity": 104,
      "chip": "ym2612"
    },
    {
      "channel": 4,
      "note": 92,
      "start": 23.534,
      "duration": 0.0084,
      "velocity": 98,
      "chip": "ym2612"
    },
    {
      "channel": 4,
      "note": 90,
      "start": 23.5427,
      "duration": 0.0108,
      "velocity": 98,
      "chip": "ym2612"
    },
    {
      "channel": 0,
      "note": 94,
      "start": 23.545,
      "duration": 0.0134,
      "velocity": 98,
      "chip": "ym2612"
    },
    {
      "channel": 2,
      "note": 78,
      "start": 23.5528,
      "duration": 0.0126,
      "velocity": 104,
      "chip": "ym2612"
    },
    {
      "channel": 4,
      "note": 92,
      "start": 23.5539,
      "duration": 0.0087,
      "velocity": 98,
      "chip": "ym2612"
    },
    {
      "channel": 0,
      "note": 95,
      "start": 23.5587,
      "duration": 0.0115,
      "velocity": 98,
      "chip": "ym2612"
    },
    {
      "channel": 4,
      "note": 90,
      "start": 23.5629,
      "duration": 0.009,
      "velocity": 98,
      "chip": "ym2612"
    },
    {
      "channel": 0,
      "note": 95,
      "start": 23.5704,
      "duration": 0.0126,
      "velocity": 98,
      "chip": "ym2612"
    },
    {
      "channel": 2,
      "note": 82,
      "start": 23.5711,
      "duration": 0.2249,
      "velocity": 104,
      "chip": "ym2612"
    },
    {
      "channel": 4,
      "note": 92,
      "start": 23.5722,
      "duration": 0.0085,
      "velocity": 98,
      "chip": "ym2612"
    },
    {
      "channel": 4,
      "note": 90,
      "start": 23.581,
      "duration": 0.0104,
      "velocity": 98,
      "chip": "ym2612"
    },
    {
      "channel": 0,
      "note": 94,
      "start": 23.5832,
      "duration": 0.013,
      "velocity": 98,
      "chip": "ym2612"
    },
    {
      "channel": 4,
      "note": 92,
      "start": 23.5917,
      "duration": 0.01,
      "velocity": 98,
      "chip": "ym2612"
    },
    {
      "channel": 0,
      "note": 95,
      "start": 23.5965,
      "duration": 0.0129,
      "velocity": 98,
      "chip": "ym2612"
    },
    {
      "channel": 4,
      "note": 90,
      "start": 23.602,
      "duration": 0.0089,
      "velocity": 98,
      "chip": "ym2612"
    },
    {
      "channel": 0,
      "note": 94,
      "start": 23.6097,
      "duration": 0.0122,
      "velocity": 98,
      "chip": "ym2612"
    },
    {
      "channel": 4,
      "note": 92,
      "start": 23.6112,
      "duration": 0.0083,
      "velocity": 98,
      "chip": "ym2612"
    },
    {
      "channel": 4,
      "note": 90,
      "start": 23.6199,
      "duration": 0.0103,
      "velocity": 98,
      "chip": "ym2612"
    },
    {
      "channel": 0,
      "note": 95,
      "start": 23.6221,
      "duration": 0.0131,
      "velocity": 98,
      "chip": "ym2612"
    },
    {
      "channel": 4,
      "note": 92,
      "start": 23.6305,
      "duration": 0.01,
      "velocity": 98,
      "chip": "ym2612"
    },
    {
      "channel": 0,
      "note": 94,
      "start": 23.6354,
      "duration": 0.0129,
      "velocity": 98,
      "chip": "ym2612"
    },
    {
      "channel": 4,
      "note": 90,
      "start": 23.6409,
      "duration": 0.0092,
      "velocity": 98,
      "chip": "ym2612"
    },
    {
      "channel": 0,
      "note": 95,
      "start": 23.6485,
      "duration": 0.0127,
      "velocity": 98,
      "chip": "ym2612"
    },
    {
      "channel": 3,
      "note": 75,
      "start": 23.6497,
      "duration": 0.0062,
      "velocity": 104,
      "chip": "ym2612"
    },
    {
      "channel": 4,
      "note": 92,
      "start": 23.6504,
      "duration": 0.0084,
      "velocity": 98,
      "chip": "ym2612"
    },
    {
      "channel": 4,
      "note": 90,
      "start": 23.6592,
      "duration": 0.0104,
      "velocity": 98,
      "chip": "ym2612"
    },
    {
      "channel": 0,
      "note": 94,
      "start": 23.6613,
      "duration": 0.0133,
      "velocity": 98,
      "chip": "ym2612"
    },
    {
      "channel": 4,
      "note": 92,
      "start": 23.6699,
      "duration": 0.0101,
      "velocity": 98,
      "chip": "ym2612"
    },
    {
      "channel": 0,
      "note": 95,
      "start": 23.6748,
      "duration": 0.0129,
      "velocity": 98,
      "chip": "ym2612"
    },
    {
      "channel": 4,
      "note": 90,
      "start": 23.6803,
      "duration": 0.0093,
      "velocity": 98,
      "chip": "ym2612"
    },
    {
      "channel": 0,
      "note": 94,
      "start": 23.6879,
      "duration": 0.0126,
      "velocity": 98,
      "chip": "ym2612"
    },
    {
      "channel": 3,
      "note": 75,
      "start": 23.6891,
      "duration": 0.0125,
      "velocity": 104,
      "chip": "ym2612"
    },
    {
      "channel": 4,
      "note": 92,
      "start": 23.6899,
      "duration": 0.0083,
      "velocity": 98,
      "chip": "ym2612"
    },
    {
      "channel": 4,
      "note": 90,
      "start": 23.6986,
      "duration": 0.0093,
      "velocity": 98,
      "chip": "ym2612"
    },
    {
      "channel": 0,
      "note": 95,
      "start": 23.7008,
      "duration": 0.012,
      "velocity": 98,
      "chip": "ym2612"
    },
    {
      "channel": 3,
      "note": 71,
      "start": 23.7074,
      "duration": 0.0126,
      "velocity": 104,
      "chip": "ym2612"
    },
    {
      "channel": 4,
      "note": 92,
      "start": 23.7082,
      "duration": 0.0088,
      "velocity": 98,
      "chip": "ym2612"
    },
    {
      "channel": 0,
      "note": 94,
      "start": 23.713,
      "duration": 0.0115,
      "velocity": 98,
      "chip": "ym2612"
    },
    {
      "channel": 4,
      "note": 90,
      "start": 23.7173,
      "duration": 0.0091,
      "velocity": 98,
      "chip": "ym2612"
    },
    {
      "channel": 0,
      "note": 95,
      "start": 23.7248,
      "duration": 0.0126,
      "velocity": 98,
      "chip": "ym2612"
    },
    {
      "channel": 3,
      "note": 75,
      "start": 23.726,
      "duration": 0.1438,
      "velocity": 104,
      "chip": "ym2612"
    },
    {
      "channel": 4,
      "note": 92,
      "start": 23.7267,
      "duration": 0.0083,
      "velocity": 98,
      "chip": "ym2612"
    },
    {
      "channel": 4,
      "note": 90,
      "start": 23.7354,
      "duration": 0.0087,
      "velocity": 98,
      "chip": "ym2612"
    },
    {
      "channel": 0,
      "note": 94,
      "start": 23.7376,
      "duration": 0.0115,
      "velocity": 98,
      "chip": "ym2612"
    },
    {
      "channel": 4,
      "note": 92,
      "start": 23.7445,
      "duration": 0.0088,
      "velocity": 98,
      "chip": "ym2612"
    },
    {
      "channel": 0,
      "note": 95,
      "start": 23.7493,
      "duration": 0.0114,
      "velocity": 98,
      "chip": "ym2612"
    },
    {
      "channel": 4,
      "note": 90,
      "start": 23.7535,
      "duration": 0.0086,
      "velocity": 98,
      "chip": "ym2612"
    },
    {
      "channel": 0,
      "note": 94,
      "start": 23.761,
      "duration": 0.0139,
      "velocity": 98,
      "chip": "ym2612"
    },
    {
      "channel": 4,
      "note": 92,
      "start": 23.7625,
      "duration": 0.0102,
      "velocity": 98,
      "chip": "ym2612"
    },
    {
      "channel": 4,
      "note": 90,
      "start": 23.773,
      "duration": 0.01,
      "velocity": 98,
      "chip": "ym2612"
    },
    {
      "channel": 0,
      "note": 95,
      "start": 23.7752,
      "duration": 0.0127,
      "velocity": 98,
      "chip": "ym2612"
    },
    {
      "channel": 4,
      "note": 92,
      "start": 23.7833,
      "duration": 0.01,
      "velocity": 98,
      "chip": "ym2612"
    },
    {
      "channel": 0,
      "note": 94,
      "start": 23.7882,
      "duration": 0.0128,
      "velocity": 98,
      "chip": "ym2612"
    },
    {
      "channel": 4,
      "note": 90,
      "start": 23.7936,
      "duration": 0.0088,
      "velocity": 98,
      "chip": "ym2612"
    },
    {
      "channel": 4,
      "note": 92,
      "start": 23.8027,
      "duration": 0.006,
      "velocity": 98,
      "chip": "ym2612"
    },
    {
      "channel": 4,
      "note": 71,
      "start": 23.809,
      "duration": 0.006,
      "velocity": 98,
      "chip": "ym2612"
    },
    {
      "channel": 4,
      "note": 73,
      "start": 23.8154,
      "duration": 0.0055,
      "velocity": 98,
      "chip": "ym2612"
    },
    {
      "channel": 4,
      "note": 75,
      "start": 23.8212,
      "duration": 0.0058,
      "velocity": 98,
      "chip": "ym2612"
    },
    {
      "channel": 4,
      "note": 76,
      "start": 23.8273,
      "duration": 0.0061,
      "velocity": 98,
      "chip": "ym2612"
    },
    {
      "channel": 4,
      "note": 78,
      "start": 23.8337,
      "duration": 0.0055,
      "velocity": 98,
      "chip": "ym2612"
    },
    {
      "channel": 4,
      "note": 80,
      "start": 23.8395,
      "duration": 0.0059,
      "velocity": 98,
      "chip": "ym2612"
    },
    {
      "channel": 4,
      "note": 82,
      "start": 23.8457,
      "duration": 0.006,
      "velocity": 98,
      "chip": "ym2612"
    },
    {
      "channel": 4,
      "note": 83,
      "start": 23.852,
      "duration": 0.0057,
      "velocity": 98,
      "chip": "ym2612"
    },
    {
      "channel": 4,
      "note": 85,
      "start": 23.858,
      "duration": 0.006,
      "velocity": 98,
      "chip": "ym2612"
    },
    {
      "channel": 4,
      "note": 87,
      "start": 23.8643,
      "duration": 0.0059,
      "velocity": 98,
      "chip": "ym2612"
    },
    {
      "channel": 4,
      "note": 88,
      "start": 23.8705,
      "duration": 0.0065,
      "velocity": 98,
      "chip": "ym2612"
    },
    {
      "channel": 2,
      "note": 80,
      "start": 23.8759,
      "duration": 0.0808,
      "velocity": 104,
      "chip": "ym2612"
    },
    {
      "channel": 3,
      "note": 78,
      "start": 23.8766,
      "duration": 0.0805,
      "velocity": 104,
      "chip": "ym2612"
    },
    {
      "channel": 4,
      "note": 90,
      "start": 23.8773,
      "duration": 0.0063,
      "velocity": 98,
      "chip": "ym2612"
    },
    {
      "channel": 4,
      "note": 92,
      "start": 23.884,
      "duration": 0.0097,
      "velocity": 98,
      "chip": "ym2612"
    },
    {
      "channel": 4,
      "note": 94,
      "start": 23.894,
      "duration": 0.006,
      "velocity": 98,
      "chip": "ym2612"
    },
    {
      "channel": 0,
      "note": 83,
      "start": 23.8989,
      "duration": 0.0067,
      "velocity": 98,
      "chip": "ym2612"
    },
    {
      "channel": 4,
      "note": 95,
      "start": 23.9004,
      "duration": 0.0066,
      "velocity": 98,
      "chip": "ym2612"
    },
    {
      "channel": 0,
      "note": 85,
      "start": 23.9058,
      "duration": 0.0067,
      "velocity": 98,
      "chip": "ym2612"
    },
    {
      "channel": 4,
      "note": 83,
      "start": 23.9073,
      "duration": 0.0066,
      "velocity": 98,
      "chip": "ym2612"
    },
    {
      "channel": 0,
      "note": 87,
      "start": 23.9127,
      "duration": 0.006,
      "velocity": 98,
      "chip": "ym2612"
    },
    {
      "channel": 4,
      "note": 85,
      "start": 23.9143,
      "duration": 0.0059,
      "velocity": 98,
      "chip": "ym2612"
    },
    {
      "channel": 0,
      "note": 88,
      "start": 23.919,
      "duration": 0.0062,
      "velocity": 98,
      "chip": "ym2612"
    },
    {
      "channel": 4,
      "note": 87,
      "start": 23.9205,
      "duration": 0.006,
      "velocity": 98,
      "chip": "ym2612"
    },
    {
      "channel": 0,
      "note": 90,
      "start": 23.9254,
      "duration": 0.0104,
      "velocity": 98,
      "chip": "ym2612"
    },
    {
      "channel": 4,
      "note": 88,
      "start": 23.9269,
      "duration": 0.0102,
      "velocity": 98,
      "chip": "ym2612"
    },
    {
      "channel": 0,
      "note": 92,
      "start": 23.9359,
      "duration": 0.0063,
      "velocity": 98,
      "chip": "ym2612"
    },
    {
      "channel": 4,
      "note": 90,
      "start": 23.9375,
      "duration": 0.0062,
      "velocity": 98,
      "chip": "ym2612"
    },
    {
      "channel": 0,
      "note": 94,
      "start": 23.9425,
      "duration": 0.0067,
      "velocity": 98,
      "chip": "ym2612"
    },
    {
      "channel": 4,
      "note": 92,
      "start": 23.944,
      "duration": 0.0066,
      "velocity": 98,
      "chip": "ym2612"
    },
    {
      "channel": 0,
      "note": 95,
      "start": 23.9495,
      "duration": 0.0063,
      "velocity": 98,
      "chip": "ym2612"
    },
    {
      "channel": 4,
      "note": 94,
      "start": 23.951,
      "duration": 0.0064,
      "velocity": 98,
      "chip": "ym2612"
    },
    {
      "channel": 0,
      "note": 97,
      "start": 23.9561,
      "duration": 0.0061,
      "velocity": 98,
      "chip": "ym2612"
    },
    {
      "channel": 4,
      "note": 95,
      "start": 23.9577,
      "duration": 0.0069,
      "velocity": 98,
      "chip": "ym2612"
    },
    {
      "channel": 0,
      "note": 99,
      "start": 23.9624,
      "duration": 0.7537,
      "velocity": 98,
      "chip": "ym2612"
    },
    {
      "channel": 1,
      "note": 63,
      "start": 23.963,
      "duration": 0.0095,
      "velocity": 82,
      "chip": "ym2612"
    },
    {
      "channel": 2,
      "note": 79,
      "start": 23.9635,
      "duration": 0.5906,
      "velocity": 104,
      "chip": "ym2612"
    },
    {
      "channel": 3,
      "note": 71,
      "start": 23.9641,
      "duration": 0.5903,
      "velocity": 104,
      "chip": "ym2612"
    },
    {
      "channel": 4,
      "note": 97,
      "start": 23.9649,
      "duration": 0.7526,
      "velocity": 98,
      "chip": "ym2612"
    },
    {
      "channel": 1,
      "note": 58,
      "start": 24.0856,
      "duration": 0.0085,
      "velocity": 82,
      "chip": "ym2612"
    },
    {
      "channel": 1,
      "note": 63,
      "start": 24.2081,
      "duration": 0.0085,
      "velocity": 82,
      "chip": "ym2612"
    },
    {
      "channel": 1,
      "note": 58,
      "start": 24.3304,
      "duration": 0.0089,
      "velocity": 82,
      "chip": "ym2612"
    },
    {
      "channel": 1,
      "note": 63,
      "start": 24.5038,
      "duration": 0.0117,
      "velocity": 82,
      "chip": "ym2612"
    },
    {
      "channel": 1,
      "note": 63,
      "start": 24.6289,
      "duration": 0.012,
      "velocity": 82,
      "chip": "ym2612"
    },
    {
      "channel": 2,
      "note": 79,
      "start": 24.6295,
      "duration": 0.0117,
      "velocity": 104,
      "chip": "ym2612"
    },
    {
      "channel": 3,
      "note": 75,
      "start": 24.6301,
      "duration": 0.0114,
      "velocity": 104,
      "chip": "ym2612"
    },
    {
      "channel": 1,
      "note": 63,
      "start": 24.6466,
      "duration": 0.0117,
      "velocity": 82,
      "chip": "ym2612"
    },
    {
      "channel": 2,
      "note": 79,
      "start": 24.6471,
      "duration": 0.0115,
      "velocity": 104,
      "chip": "ym2612"
    },
    {
      "channel": 3,
      "note": 75,
      "start": 24.6477,
      "duration": 0.0111,
      "velocity": 104,
      "chip": "ym2612"
    },
    {
      "channel": 1,
      "note": 63,
      "start": 24.6639,
      "duration": 0.0119,
      "velocity": 82,
      "chip": "ym2612"
    },
    {
      "channel": 2,
      "note": 79,
      "start": 24.6644,
      "duration": 0.0116,
      "velocity": 104,
      "chip": "ym2612"
    },
    {
      "channel": 3,
      "note": 75,
      "start": 24.6651,
      "duration": 0.0113,
      "velocity": 104,
      "chip": "ym2612"
    },
    {
      "channel": 1,
      "note": 63,
      "start": 24.6814,
      "duration": 0.0118,
      "velocity": 82,
      "chip": "ym2612"
    },
    {
      "channel": 2,
      "note": 79,
      "start": 24.6819,
      "duration": 0.0116,
      "velocity": 104,
      "chip": "ym2612"
    },
    {
      "channel": 3,
      "note": 75,
      "start": 24.6826,
      "duration": 0.0113,
      "velocity": 104,
      "chip": "ym2612"
    },
    {
      "channel": 1,
      "note": 63,
      "start": 24.699,
      "duration": 0.0092,
      "velocity": 82,
      "chip": "ym2612"
    },
    {
      "channel": 2,
      "note": 79,
      "start": 24.6995,
      "duration": 0.0116,
      "velocity": 104,
      "chip": "ym2612"
    },
    {
      "channel": 3,
      "note": 75,
      "start": 24.7001,
      "duration": 0.0113,
      "velocity": 104,
      "chip": "ym2612"
    },
    {
      "channel": 2,
      "note": 69,
      "start": 25.0118,
      "duration": 0.0757,
      "velocity": 104,
      "chip": "ym2612"
    },
    {
      "channel": 2,
      "note": 70,
      "start": 25.3532,
      "duration": 0.0756,
      "velocity": 104,
      "chip": "ym2612"
    },
    {
      "channel": 1,
      "note": 50,
      "start": 25.4704,
      "duration": 0.0214,
      "velocity": 82,
      "chip": "ym2612"
    },
    {
      "channel": 2,
      "note": 70,
      "start": 25.4711,
      "duration": 0.243,
      "velocity": 104,
      "chip": "ym2612"
    },
    {
      "channel": 3,
      "note": 75,
      "start": 25.4718,
      "duration": 0.2426,
      "velocity": 104,
      "chip": "ym2612"
    },
    {
      "channel": 0,
      "note": 98,
      "start": 25.5739,
      "duration": 0.0034,
      "velocity": 98,
      "chip": "ym2612"
    },
    {
      "channel": 4,
      "note": 91,
      "start": 25.5754,
      "duration": 0.0033,
      "velocity": 98,
      "chip": "ym2612"
    },
    {
      "channel": 0,
      "note": 100,
      "start": 25.5775,
      "duration": 0.0031,
      "velocity": 98,
      "chip": "ym2612"
    },
    {
      "channel": 4,
      "note": 86,
      "start": 25.579,
      "duration": 0.003,
      "velocity": 98,
      "chip": "ym2612"
    },
    {
      "channel": 0,
      "note": 101,
      "start": 25.5808,
      "duration": 0.0031,
      "velocity": 98,
      "chip": "ym2612"
    },
    {
      "channel": 4,
      "note": 88,
      "start": 25.5823,
      "duration": 0.003,
      "velocity": 98,
      "chip": "ym2612"
    },
    {
      "channel": 0,
      "note": 103,
      "start": 25.5841,
      "duration": 0.0034,
      "velocity": 98,
      "chip": "ym2612"
    },
    {
      "channel": 4,
      "note": 89,
      "start": 25.5856,
      "duration": 0.0033,
      "velocity": 98,
      "chip": "ym2612"
    },
    {
      "channel": 0,
      "note": 105,
      "start": 25.5878,
      "duration": 0.003,
      "velocity": 98,
      "chip": "ym2612"
    },
    {
      "channel": 4,
      "note": 91,
      "start": 25.5892,
      "duration": 0.0031,
      "velocity": 98,
      "chip": "ym2612"
    },
    {
      "channel": 0,
      "note": 107,
      "start": 25.5911,
      "duration": 0.0036,
      "velocity": 98,
      "chip": "ym2612"
    },
    {
      "channel": 4,
      "note": 93,
      "start": 25.5926,
      "duration": 0.0039,
      "velocity": 98,
      "chip": "ym2612"
    },
    {
      "channel": 0,
      "note": 109,
      "start": 25.5949,
      "duration": 0.0075,
      "velocity": 98,
      "chip": "ym2612"
    },
    {
      "channel": 1,
      "note": 50,
      "start": 25.5955,
      "duration": 0.0211,
      "velocity": 82,
      "chip": "ym2612"
    },
    {
      "channel": 4,
      "note": 95,
      "start": 25.5968,
      "duration": 0.0071,
      "velocity": 98,
      "chip": "ym2612"
    },
    {
      "channel": 0,
      "note": 110,
      "start": 25.6026,
      "duration": 0.0134,
      "velocity": 98,
      "chip": "ym2612"
    },
    {
      "channel": 4,
      "note": 97,
      "start": 25.6042,
      "duration": 0.0132,
      "velocity": 98,
      "chip": "ym2612"
    },
    {
      "channel": 1,
      "note": 52,
      "start": 25.7193,
      "duration": 0.0167,
      "velocity": 82,
      "chip": "ym2612"
    },
    {
      "channel": 2,
      "note": 69,
      "start": 25.7199,
      "duration": 0.0112,
      "velocity": 104,
      "chip": "ym2612"
    },
    {
      "channel": 3,
      "note": 65,
      "start": 25.7206,
      "duration": 0.0109,
      "velocity": 104,
      "chip": "ym2612"
    },
    {
      "channel": 1,
      "note": 52,
      "start": 25.8401,
      "duration": 0.0172,
      "velocity": 82,
      "chip": "ym2612"
    },
    {
      "channel": 2,
      "note": 69,
      "start": 25.8407,
      "duration": 0.0116,
      "velocity": 104,
      "chip": "ym2612"
    },
    {
      "channel": 3,
      "note": 67,
      "start": 25.8413,
      "duration": 0.0113,
      "velocity": 104,
      "chip": "ym2612"
    },
    {
      "channel": 2,
      "note": 74,
      "start": 25.9443,
      "duration": 0.031,
      "velocity": 104,
      "chip": "ym2612"
    },
    {
      "channel": 3,
      "note": 67,
      "start": 25.945,
      "duration": 0.0307,
      "velocity": 104,
      "chip": "ym2612"
    },
    {
      "channel": 1,
      "note": 53,
      "start": 26.0135,
      "duration": 0.0202,
      "velocity": 82,
      "chip": "ym2612"
    },
    {
      "channel": 2,
      "note": 74,
      "start": 26.0141,
      "duration": 0.2466,
      "velocity": 104,
      "chip": "ym2612"
    },
    {
      "channel": 3,
      "note": 67,
      "start": 26.0147,
      "duration": 0.2463,
      "velocity": 104,
      "chip": "ym2612"
    },
    {
      "channel": 0,
      "note": 98,
      "start": 26.1206,
      "duration": 0.0034,
      "velocity": 98,
      "chip": "ym2612"
    },
    {
      "channel": 4,
      "note": 98,
      "start": 26.122,
      "duration": 0.0033,
      "velocity": 98,
      "chip": "ym2612"
    },
    {
      "channel": 0,
      "note": 100,
      "start": 26.1242,
      "duration": 0.003,
      "velocity": 98,
      "chip": "ym2612"
    },
    {
      "channel": 4,
      "note": 86,
      "start": 26.1256,
      "duration": 0.003,
      "velocity": 98,
      "chip": "ym2612"
    },
    {
      "channel": 0,
      "note": 101,
      "start": 26.1275,
      "duration": 0.003,
      "velocity": 98,
      "chip": "ym2612"
    },
    {
      "channel": 4,
      "note": 88,
      "start": 26.129,
      "duration": 0.003,
      "velocity": 98,
      "chip": "ym2612"
    },
    {
      "channel": 0,
      "note": 103,
      "start": 26.1308,
      "duration": 0.0034,
      "velocity": 98,
      "chip": "ym2612"
    },
    {
      "channel": 4,
      "note": 89,
      "start": 26.1323,
      "duration": 0.0033,
      "velocity": 98,
      "chip": "ym2612"
    },
    {
      "channel": 0,
      "note": 105,
      "start": 26.1344,
      "duration": 0.003,
      "velocity": 98,
      "chip": "ym2612"
    },
    {
      "channel": 4,
      "note": 91,
      "start": 26.1359,
      "duration": 0.0031,
      "velocity": 98,
      "chip": "ym2612"
    },
    {
      "channel": 0,
      "note": 107,
      "start": 26.1378,
      "duration": 0.0036,
      "velocity": 98,
      "chip": "ym2612"
    },
    {
      "channel": 4,
      "note": 93,
      "start": 26.1393,
      "duration": 0.0038,
      "velocity": 98,
      "chip": "ym2612"
    },
    {
      "channel": 0,
      "note": 109,
      "start": 26.1416,
      "duration": 0.0075,
      "velocity": 98,
      "chip": "ym2612"
    },
    {
      "channel": 1,
      "note": 53,
      "start": 26.1421,
      "duration": 0.021,
      "velocity": 82,
      "chip": "ym2612"
    },
    {
      "channel": 4,
      "note": 95,
      "start": 26.1434,
      "duration": 0.0071,
      "velocity": 98,
      "chip": "ym2612"
    },
    {
      "channel": 0,
      "note": 110,
      "start": 26.1494,
      "duration": 0.0134,
      "velocity": 98,
      "chip": "ym2612"
    },
    {
      "channel": 4,
      "note": 97,
      "start": 26.1509,
      "duration": 0.0132,
      "velocity": 98,
      "chip": "ym2612"
    },
    {
      "channel": 1,
      "note": 52,
      "start": 26.266,
      "duration": 0.0167,
      "velocity": 82,
      "chip": "ym2612"
    },
    {
      "channel": 2,
      "note": 69,
      "start": 26.2665,
      "duration": 0.0111,
      "velocity": 104,
      "chip": "ym2612"
    },
    {
      "channel": 3,
      "note": 69,
      "start": 26.2672,
      "duration": 0.0108,
      "velocity": 104,
      "chip": "ym2612"
    },
    {
      "channel": 1,
      "note": 52,
      "start": 26.3894,
      "duration": 0.0187,
      "velocity": 82,
      "chip": "ym2612"
    },
    {
      "channel": 2,
      "note": 69,
      "start": 26.3899,
      "duration": 0.0116,
      "velocity": 104,
      "chip": "ym2612"
    },
    {
      "channel": 3,
      "note": 67,
      "start": 26.3905,
      "duration": 0.0113,
      "velocity": 104,
      "chip": "ym2612"
    },
    {
      "channel": 2,
      "note": 76,
      "start": 26.4467,
      "duration": 0.0112,
      "velocity": 104,
      "chip": "ym2612"
    },
    {
      "channel": 3,
      "note": 67,
      "start": 26.4474,
      "duration": 0.0108,
      "velocity": 104,
      "chip": "ym2612"
    },
    {
      "channel": 1,
      "note": 50,
      "start": 26.4634,
      "duration": 0.017,
      "velocity": 82,
      "chip": "ym2612"
    },
    {
      "channel": 2,
      "note": 77,
      "start": 26.464,
      "duration": 0.0117,
      "velocity": 104,
      "chip": "ym2612"
    },
    {
      "channel": 3,
      "note": 67,
      "start": 26.4646,
      "duration": 0.0114,
      "velocity": 104,
      "chip": "ym2612"
    },
    {
      "channel": 1,
      "note": 50,
      "start": 26.5831,
      "duration": 0.0168,
      "velocity": 82,
      "chip": "ym2612"
    },
    {
      "channel": 2,
      "note": 81,
      "start": 26.5836,
      "duration": 0.2204,
      "velocity": 104,
      "chip": "ym2612"
    },
    {
      "channel": 3,
      "note": 65,
      "start": 26.5842,
      "duration": 0.2202,
      "velocity": 104,
      "chip": "ym2612"
    },
    {
      "channel": 1,
      "note": 48,
      "start": 26.7038,
      "duration": 0.0166,
      "velocity": 82,
      "chip": "ym2612"
    },
    {
      "channel": 1,
      "note": 48,
      "start": 26.8265,
      "duration": 0.0171,
      "velocity": 82,
      "chip": "ym2612"
    },
    {
      "channel": 2,
      "note": 81,
      "start": 26.827,
      "duration": 0.135,
      "velocity": 104,
      "chip": "ym2612"
    },
    {
      "channel": 3,
      "note": 74,
      "start": 26.8277,
      "duration": 0.1347,
      "velocity": 104,
      "chip": "ym2612"
    },
    {
      "channel": 0,
      "note": 83,
      "start": 26.9997,
      "duration": 0.0206,
      "velocity": 98,
      "chip": "ym2612"
    },
    {
      "channel": 1,
      "note": 47,
      "start": 27.0002,
      "duration": 0.0178,
      "velocity": 82,
      "chip": "ym2612"
    },
    {
      "channel": 2,
      "note": 79,
      "start": 27.0008,
      "duration": 0.3668,
      "velocity": 104,
      "chip": "ym2612"
    },
    {
      "channel": 3,
      "note": 74,
      "start": 27.0015,
      "duration": 0.3664,
      "velocity": 104,
      "chip": "ym2612"
    },
    {
      "channel": 4,
      "note": 98,
      "start": 27.0022,
      "duration": 0.0193,
      "velocity": 98,
      "chip": "ym2612"
    },
    {
      "channel": 0,
      "note": 79,
      "start": 27.0881,
      "duration": 0.0117,
      "velocity": 98,
      "chip": "ym2612"
    },
    {
      "channel": 4,
      "note": 79,
      "start": 27.0895,
      "duration": 0.0115,
      "velocity": 98,
      "chip": "ym2612"
    },
    {
      "channel": 0,
      "note": 79,
      "start": 27.1082,
      "duration": 0.0083,
      "velocity": 98,
      "chip": "ym2612"
    },
    {
      "channel": 4,
      "note": 74,
      "start": 27.1096,
      "duration": 0.0081,
      "velocity": 98,
      "chip": "ym2612"
    },
    {
      "channel": 1,
      "note": 47,
      "start": 27.1226,
      "duration": 0.017,
      "velocity": 82,
      "chip": "ym2612"
    },
    {
      "channel": 0,
      "note": 79,
      "start": 27.1254,
      "duration": 0.0166,
      "velocity": 98,
      "chip": "ym2612"
    },
    {
      "channel": 4,
      "note": 74,
      "start": 27.1269,
      "duration": 0.0164,
      "velocity": 98,
      "chip": "ym2612"
    },
    {
      "channel": 0,
      "note": 83,
      "start": 27.2105,
      "duration": 0.0204,
      "velocity": 98,
      "chip": "ym2612"
    },
    {
      "channel": 4,
      "note": 74,
      "start": 27.212,
      "duration": 0.0201,
      "velocity": 98,
      "chip": "ym2612"
    },
    {
      "channel": 1,
      "note": 55,
      "start": 27.2456,
      "duration": 0.0177,
      "velocity": 82,
      "chip": "ym2612"
    },
    {
      "channel": 0,
      "note": 86,
      "start": 27.2483,
      "duration": 0.0118,
      "velocity": 98,
      "chip": "ym2612"
    },
    {
      "channel": 4,
      "note": 79,
      "start": 27.2498,
      "duration": 0.0083,
      "velocity": 98,
      "chip": "ym2612"
    },
    {
      "channel": 4,
      "note": 83,
      "start": 27.2584,
      "duration": 0.0087,
      "velocity": 98,
      "chip": "ym2612"
    },
    {
      "channel": 0,
      "note": 88,
      "start": 27.2603,
      "duration": 0.0115,
      "velocity": 98,
      "chip": "ym2612"
    },
    {
      "channel": 4,
      "note": 84,
      "start": 27.2674,
      "duration": 0.01,
      "velocity": 98,
      "chip": "ym2612"
    },
    {
      "channel": 0,
      "note": 86,
      "start": 27.272,
      "duration": 0.0611,
      "velocity": 98,
      "chip": "ym2612"
    },
    {
      "channel": 4,
      "note": 83,
      "start": 27.2777,
      "duration": 0.0569,
      "velocity": 98,
      "chip": "ym2612"
    },
    {
      "channel": 0,
      "note": 88,
      "start": 27.3334,
      "duration": 0.0158,
      "velocity": 98,
      "chip": "ym2612"
    },
    {
      "channel": 4,
      "note": 84,
      "start": 27.3349,
      "duration": 0.0119,
      "velocity": 98,
      "chip": "ym2612"
    },
    {
      "channel": 4,
      "note": 83,
      "start": 27.3471,
      "duration": 0.0087,
      "velocity": 98,
      "chip": "ym2612"
    },
    {
      "channel": 0,
      "note": 86,
      "start": 27.3494,
      "duration": 0.0113,
      "velocity": 98,
      "chip": "ym2612"
    },
    {
      "channel": 4,
      "note": 84,
      "start": 27.3561,
      "duration": 0.0086,
      "velocity": 98,
      "chip": "ym2612"
    },
    {
      "channel": 0,
      "note": 88,
      "start": 27.361,
      "duration": 0.0135,
      "velocity": 98,
      "chip": "ym2612"
    },
    {
      "channel": 4,
      "note": 83,
      "start": 27.3651,
      "duration": 0.0116,
      "velocity": 98,
      "chip": "ym2612"
    },
    {
      "channel": 0,
      "note": 86,
      "start": 27.3748,
      "duration": 0.0124,
      "velocity": 98,
      "chip": "ym2612"
    },
    {
      "channel": 1,
      "note": 55,
      "start": 27.3754,
      "duration": 0.0149,
      "velocity": 82,
      "chip": "ym2612"
    },
    {
      "channel": 2,
      "note": 74,
      "start": 27.3759,
      "duration": 0.0121,
      "velocity": 104,
      "chip": "ym2612"
    },
    {
      "channel": 4,
      "note": 84,
      "start": 27.377,
      "duration": 0.0082,
      "velocity": 98,
      "chip": "ym2612"
    },
    {
      "channel": 4,
      "note": 83,
      "start": 27.3855,
      "duration": 0.0093,
      "velocity": 98,
      "chip": "ym2612"
    },
    {
      "channel": 0,
      "note": 88,
      "start": 27.3874,
      "duration": 0.0123,
      "velocity": 98,
      "chip": "ym2612"
    },
    {
      "channel": 4,
      "note": 84,
      "start": 27.3951,
      "duration": 0.0086,
      "velocity": 98,
      "chip": "ym2612"
    },
    {
      "channel": 0,
      "note": 86,
      "start": 27.4,
      "duration": 0.0128,
      "velocity": 98,
      "chip": "ym2612"
    },
    {
      "channel": 4,
      "note": 83,
      "start": 27.404,
      "duration": 0.0102,
      "velocity": 98,
      "chip": "ym2612"
    },
    {
      "channel": 0,
      "note": 88,
      "start": 27.4131,
      "duration": 0.0116,
      "velocity": 98,
      "chip": "ym2612"
    },
    {
      "channel": 4,
      "note": 85,
      "start": 27.4145,
      "duration": 0.0081,
      "velocity": 98,
      "chip": "ym2612"
    },
    {
      "channel": 4,
      "note": 83,
      "start": 27.423,
      "duration": 0.0107,
      "velocity": 98,
      "chip": "ym2612"
    },
    {
      "channel": 0,
      "note": 86,
      "start": 27.4249,
      "duration": 0.0136,
      "velocity": 98,
      "chip": "ym2612"
    },
    {
      "channel": 2,
      "note": 76,
      "start": 27.4326,
      "duration": 0.0125,
      "velocity": 104,
      "chip": "ym2612"
    },
    {
      "channel": 3,
      "note": 74,
      "start": 27.4332,
      "duration": 0.0122,
      "velocity": 104,
      "chip": "ym2612"
    },
    {
      "channel": 4,
      "note": 84,
      "start": 27.434,
      "duration": 0.0085,
      "velocity": 98,
      "chip": "ym2612"
    },
    {
      "channel": 0,
      "note": 88,
      "start": 27.4388,
      "duration": 0.0113,
      "velocity": 98,
      "chip": "ym2612"
    },
    {
      "channel": 4,
      "note": 83,
      "start": 27.4429,
      "duration": 0.0095,
      "velocity": 98,
      "chip": "ym2612"
    },
    {
      "channel": 1,
      "note": 58,
      "start": 27.4507,
      "duration": 0.0171,
      "velocity": 82,
      "chip": "ym2612"
    },
    {
      "channel": 2,
      "note": 77,
      "start": 27.4512,
      "duration": 0.0117,
      "velocity": 104,
      "chip": "ym2612"
    },
    {
      "channel": 3,
      "note": 74,
      "start": 27.4519,
      "duration": 0.0088,
      "velocity": 104,
      "chip": "ym2612"
    },
    {
      "channel": 2,
      "note": 74,
      "start": 27.5552,
      "duration": 0.0111,
      "velocity": 104,
      "chip": "ym2612"
    },
    {
      "channel": 3,
      "note": 74,
      "start": 27.5559,
      "duration": 0.0107,
      "velocity": 104,
      "chip": "ym2612"
    },
    {
      "channel": 1,
      "note": 58,
      "start": 27.5715,
      "duration": 0.0169,
      "velocity": 82,
      "chip": "ym2612"
    },
    {
      "channel": 2,
      "note": 74,
      "start": 27.5721,
      "duration": 0.2367,
      "velocity": 104,
      "chip": "ym2612"
    },
    {
      "channel": 3,
      "note": 65,
      "start": 27.5727,
      "duration": 0.2365,
      "velocity": 104,
      "chip": "ym2612"
    },
    {
      "channel": 0,
      "note": 89,
      "start": 27.6923,
      "duration": 0.017,
      "velocity": 98,
      "chip": "ym2612"
    },
    {
      "channel": 1,
      "note": 58,
      "start": 27.6928,
      "duration": 0.0169,
      "velocity": 82,
      "chip": "ym2612"
    },
    {
      "channel": 4,
      "note": 84,
      "start": 27.6942,
      "duration": 0.0165,
      "velocity": 98,
      "chip": "ym2612"
    },
    {
      "channel": 0,
      "note": 86,
      "start": 27.7968,
      "duration": 0.017,
      "velocity": 98,
      "chip": "ym2612"
    },
    {
      "channel": 4,
      "note": 86,
      "start": 27.7983,
      "duration": 0.0179,
      "velocity": 98,
      "chip": "ym2612"
    },
    {
      "channel": 0,
      "note": 86,
      "start": 27.814,
      "duration": 0.0127,
      "velocity": 98,
      "chip": "ym2612"
    },
    {
      "channel": 1,
      "note": 58,
      "start": 27.8146,
      "duration": 0.0152,
      "velocity": 82,
      "chip": "ym2612"
    },
    {
      "channel": 2,
      "note": 77,
      "start": 27.8151,
      "duration": 0.1346,
      "velocity": 104,
      "chip": "ym2612"
    },
    {
      "channel": 3,
      "note": 65,
      "start": 27.8157,
      "duration": 0.1342,
      "velocity": 104,
      "chip": "ym2612"
    },
    {
      "channel": 4,
      "note": 82,
      "start": 27.8165,
      "duration": 0.0084,
      "velocity": 98,
      "chip": "ym2612"
    },
    {
      "channel": 4,
      "note": 82,
      "start": 27.8252,
      "duration": 0.008,
      "velocity": 98,
      "chip": "ym2612"
    },
    {
      "channel": 0,
      "note": 88,
      "start": 27.8271,
      "duration": 0.0106,
      "velocity": 98,
      "chip": "ym2612"
    },
    {
      "channel": 4,
      "note": 84,
      "start": 27.8335,
      "duration": 0.0094,
      "velocity": 98,
      "chip": "ym2612"
    },
    {
      "channel": 0,
      "note": 86,
      "start": 27.8379,
      "duration": 0.0609,
      "velocity": 98,
      "chip": "ym2612"
    },
    {
      "channel": 4,
      "note": 82,
      "start": 27.8432,
      "duration": 0.0569,
      "velocity": 98,
      "chip": "ym2612"
    },
    {
      "channel": 0,
      "note": 88,
      "start": 27.899,
      "duration": 0.0146,
      "velocity": 98,
      "chip": "ym2612"
    },
    {
      "channel": 4,
      "note": 84,
      "start": 27.9005,
      "duration": 0.0112,
      "velocity": 98,
      "chip": "ym2612"
    },
    {
      "channel": 4,
      "note": 82,
      "start": 27.912,
      "duration": 0.0078,
      "velocity": 98,
      "chip": "ym2612"
    },
    {
      "channel": 0,
      "note": 86,
      "start": 27.9138,
      "duration": 0.0104,
      "velocity": 98,
      "chip": "ym2612"
    },
    {
      "channel": 4,
      "note": 84,
      "start": 27.9202,
      "duration": 0.011,
      "velocity": 98,
      "chip": "ym2612"
    },
    {
      "channel": 0,
      "note": 88,
      "start": 27.9245,
      "duration": 0.0626,
      "velocity": 98,
      "chip": "ym2612"
    },
    {
      "channel": 4,
      "note": 82,
      "start": 27.9316,
      "duration": 0.0578,
      "velocity": 98,
      "chip": "ym2612"
    },
    {
      "channel": 1,
      "note": 57,
      "start": 27.9877,
      "duration": 0.0177,
      "velocity": 82,
      "chip": "ym2612"
    },
    {
      "channel": 2,
      "note": 79,
      "start": 27.9883,
      "duration": 0.0148,
      "velocity": 104,
      "chip": "ym2612"
    },
    {
      "channel": 3,
      "note": 74,
      "start": 27.9889,
      "duration": 0.0145,
      "velocity": 104,
      "chip": "ym2612"
    },
    {
      "channel": 2,
      "note": 76,
      "start": 28.0956,
      "duration": 0.0111,
      "velocity": 104,
      "chip": "ym2612"
    },
    {
      "channel": 3,
      "note": 76,
      "start": 28.0962,
      "duration": 0.0107,
      "velocity": 104,
      "chip": "ym2612"
    },
    {
      "channel": 1,
      "note": 57,
      "start": 28.1092,
      "duration": 0.017,
      "velocity": 82,
      "chip": "ym2612"
    },
    {
      "channel": 2,
      "note": 76,
      "start": 28.1124,
      "duration": 0.2371,
      "velocity": 104,
      "chip": "ym2612"
    },
    {
      "channel": 3,
      "note": 69,
      "start": 28.113,
      "duration": 0.2368,
      "velocity": 104,
      "chip": "ym2612"
    },
    {
      "channel": 1,
      "note": 57,
      "start": 28.23,
      "duration": 0.0172,
      "velocity": 82,
      "chip": "ym2612"
    },
    {
      "channel": 0,
      "note": 91,
      "start": 28.2329,
      "duration": 0.0167,
      "velocity": 98,
      "chip": "ym2612"
    },
    {
      "channel": 4,
      "note": 84,
      "start": 28.2344,
      "duration": 0.0165,
      "velocity": 98,
      "chip": "ym2612"
    },
    {
      "channel": 0,
      "note": 88,
      "start": 28.3375,
      "duration": 0.0194,
      "velocity": 98,
      "chip": "ym2612"
    },
    {
      "channel": 4,
      "note": 88,
      "start": 28.339,
      "duration": 0.0202,
      "velocity": 98,
      "chip": "ym2612"
    },
    {
      "channel": 0,
      "note": 88,
      "start": 28.3571,
      "duration": 0.0128,
      "velocity": 98,
      "chip": "ym2612"
    },
    {
      "channel": 1,
      "note": 57,
      "start": 28.3576,
      "duration": 0.0154,
      "velocity": 82,
      "chip": "ym2612"
    },
    {
      "channel": 2,
      "note": 79,
      "start": 28.3582,
      "duration": 0.068,
      "velocity": 104,
      "chip": "ym2612"
    },
    {
      "channel": 3,
      "note": 69,
      "start": 28.3588,
      "duration": 0.0677,
      "velocity": 104,
      "chip": "ym2612"
    },
    {
      "channel": 4,
      "note": 84,
      "start": 28.3596,
      "duration": 0.0085,
      "velocity": 98,
      "chip": "ym2612"
    },
    {
      "channel": 4,
      "note": 84,
      "start": 28.3684,
      "duration": 0.0087,
      "velocity": 98,
      "chip": "ym2612"
    },
    {
      "channel": 0,
      "note": 89,
      "start": 28.3702,
      "duration": 0.0118,
      "velocity": 98,
      "chip": "ym2612"
    },
    {
      "channel": 4,
      "note": 86,
      "start": 28.3775,
      "duration": 0.0083,
      "velocity": 98,
      "chip": "ym2612"
    },
    {
      "channel": 0,
      "note": 88,
      "start": 28.3822,
      "duration": 0.013,
      "velocity": 98,
      "chip": "ym2612"
    },
    {
      "channel": 4,
      "note": 84,
      "start": 28.3861,
      "duration": 0.0105,
      "velocity": 98,
      "chip": "ym2612"
    },
    {
      "channel": 0,
      "note": 89,
      "start": 28.3954,
      "duration": 0.0112,
      "velocity": 98,
      "chip": "ym2612"
    },
    {
      "channel": 4,
      "note": 86,
      "start": 28.3968,
      "duration": 0.0079,
      "velocity": 98,
      "chip": "ym2612"
    },
    {
      "channel": 4,
      "note": 84,
      "start": 28.4051,
      "duration": 0.0101,
      "velocity": 98,
      "chip": "ym2612"
    },
    {
      "channel": 0,
      "note": 88,
      "start": 28.4068,
      "duration": 0.0131,
      "velocity": 98,
      "chip": "ym2612"
    },
    {
      "channel": 4,
      "note": 86,
      "start": 28.4156,
      "duration": 0.0083,
      "velocity": 98,
      "chip": "ym2612"
    },
    {
      "channel": 0,
      "note": 89,
      "start": 28.4202,
      "duration": 0.0109,
      "velocity": 98,
      "chip": "ym2612"
    },
    {
      "channel": 4,
      "note": 84,
      "start": 28.4241,
      "duration": 0.0092,
      "velocity": 98,
      "chip": "ym2612"
    },
    {
      "channel": 1,
      "note": 56,
      "start": 28.4317,
      "duration": 0.0145,
      "velocity": 82,
      "chip": "ym2612"
    },
    {
      "channel": 2,
      "note": 77,
      "start": 28.4323,
      "duration": 0.0116,
      "velocity": 104,
      "chip": "ym2612"
    },
    {
      "channel": 3,
      "note": 76,
      "start": 28.4329,
      "duration": 0.0112,
      "velocity": 104,
      "chip": "ym2612"
    },
    {
      "channel": 1,
      "note": 56,
      "start": 28.5492,
      "duration": 0.0169,
      "velocity": 82,
      "chip": "ym2612"
    },
    {
      "channel": 2,
      "note": 80,
      "start": 28.5523,
      "duration": 0.2378,
      "velocity": 104,
      "chip": "ym2612"
    },
    {
      "channel": 3,
      "note": 74,
      "start": 28.5529,
      "duration": 0.2375,
      "velocity": 104,
      "chip": "ym2612"
    },
    {
      "channel": 1,
      "note": 52,
      "start": 28.67,
      "duration": 0.0171,
      "velocity": 82,
      "chip": "ym2612"
    },
    {
      "channel": 0,
      "note": 92,
      "start": 28.6729,
      "duration": 0.0166,
      "velocity": 98,
      "chip": "ym2612"
    },
    {
      "channel": 4,
      "note": 86,
      "start": 28.6744,
      "duration": 0.0164,
      "velocity": 98,
      "chip": "ym2612"
    },
    {
      "channel": 0,
      "note": 89,
      "start": 28.7776,
      "duration": 0.0175,
      "velocity": 98,
      "chip": "ym2612"
    },
    {
      "channel": 4,
      "note": 89,
      "start": 28.7791,
      "duration": 0.0184,
      "velocity": 98,
      "chip": "ym2612"
    },
    {
      "channel": 0,
      "note": 89,
      "start": 28.7954,
      "duration": 0.1734,
      "velocity": 98,
      "chip": "ym2612"
    },
    {
      "channel": 1,
      "note": 52,
      "start": 28.7959,
      "duration": 0.0146,
      "velocity": 82,
      "chip": "ym2612"
    },
    {
      "channel": 2,
      "note": 77,
      "start": 28.7964,
      "duration": 0.0979,
      "velocity": 104,
      "chip": "ym2612"
    },
    {
      "channel": 3,
      "note": 77,
      "start": 28.7971,
      "duration": 0.0976,
      "velocity": 104,
      "chip": "ym2612"
    },
    {
      "channel": 4,
      "note": 86,
      "start": 28.7978,
      "duration": 0.1734,
      "velocity": 98,
      "chip": "ym2612"
    },
    {
      "channel": 0,
      "note": 93,
      "start": 28.9691,
      "duration": 0.0161,
      "velocity": 98,
      "chip": "ym2612"
    },
    {
      "channel": 1,
      "note": 57,
      "start": 28.9696,
      "duration": 0.0211,
      "velocity": 82,
      "chip": "ym2612"
    },
    {
      "channel": 2,
      "note": 76,
      "start": 28.9701,
      "duration": 0.3722,
      "velocity": 104,
      "chip": "ym2612"
    },
    {
      "channel": 3,
      "note": 71,
      "start": 28.9708,
      "duration": 0.3719,
      "velocity": 104,
      "chip": "ym2612"
    },
    {
      "channel": 4,
      "note": 86,
      "start": 28.9715,
      "duration": 0.0118,
      "velocity": 98,
      "chip": "ym2612"
    },
    {
      "channel": 4,
      "note": 88,
      "start": 28.9836,
      "duration": 0.008,
      "velocity": 98,
      "chip": "ym2612"
    },
    {
      "channel": 0,
      "note": 94,
      "start": 28.9855,
      "duration": 0.0105,
      "velocity": 98,
      "chip": "ym2612"
    },
    {
      "channel": 4,
      "note": 89,
      "start": 28.9919,
      "duration": 0.0096,
      "velocity": 98,
      "chip": "ym2612"
    },
    {
      "channel": 0,
      "note": 93,
      "start": 28.9963,
      "duration": 0.061,
      "velocity": 98,
      "chip": "ym2612"
    },
    {
      "channel": 4,
      "note": 88,
      "start": 29.0018,
      "duration": 0.0568,
      "velocity": 98,
      "chip": "ym2612"
    },
    {
      "channel": 0,
      "note": 94,
      "start": 29.0575,
      "duration": 0.0151,
      "velocity": 98,
      "chip": "ym2612"
    },
    {
      "channel": 4,
      "note": 89,
      "start": 29.0589,
      "duration": 0.0114,
      "velocity": 98,
      "chip": "ym2612"
    },
    {
      "channel": 4,
      "note": 88,
      "start": 29.0707,
      "duration": 0.0082,
      "velocity": 98,
      "chip": "ym2612"
    },
    {
      "channel": 0,
      "note": 93,
      "start": 29.0728,
      "duration": 0.0107,
      "velocity": 98,
      "chip": "ym2612"
    },
    {
      "channel": 4,
      "note": 89,
      "start": 29.0792,
      "duration": 0.0082,
      "velocity": 98,
      "chip": "ym2612"
    },
    {
      "channel": 0,
      "note": 94,
      "start": 29.0838,
      "duration": 0.011,
      "velocity": 98,
      "chip": "ym2612"
    },
    {
      "channel": 4,
      "note": 88,
      "start": 29.0878,
      "duration": 0.0088,
      "velocity": 98,
      "chip": "ym2612"
    },
    {
      "channel": 0,
      "note": 93,
      "start": 29.095,
      "duration": 0.0123,
      "velocity": 98,
      "chip": "ym2612"
    },
    {
      "channel": 1,
      "note": 59,
      "start": 29.0956,
      "duration": 0.0175,
      "velocity": 82,
      "chip": "ym2612"
    },
    {
      "channel": 4,
      "note": 89,
      "start": 29.0969,
      "duration": 0.0084,
      "velocity": 98,
      "chip": "ym2612"
    },
    {
      "channel": 4,
      "note": 88,
      "start": 29.1056,
      "duration": 0.0084,
      "velocity": 98,
      "chip": "ym2612"
    },
    {
      "channel": 0,
      "note": 94,
      "start": 29.1075,
      "duration": 0.0111,
      "velocity": 98,
      "chip": "ym2612"
    },
    {
      "channel": 4,
      "note": 89,
      "start": 29.1144,
      "duration": 0.01,
      "velocity": 98,
      "chip": "ym2612"
    },
    {
      "channel": 0,
      "note": 93,
      "start": 29.1188,
      "duration": 0.0612,
      "velocity": 98,
      "chip": "ym2612"
    },
    {
      "channel": 4,
      "note": 88,
      "start": 29.1247,
      "duration": 0.0568,
      "velocity": 98,
      "chip": "ym2612"
    },
    {
      "channel": 0,
      "note": 94,
      "start": 29.1803,
      "duration": 0.0157,
      "velocity": 98,
      "chip": "ym2612"
    },
    {
      "channel": 4,
      "note": 89,
      "start": 29.1818,
      "duration": 0.0118,
      "velocity": 98,
      "chip": "ym2612"
    },
    {
      "channel": 4,
      "note": 88,
      "start": 29.194,
      "duration": 0.0103,
      "velocity": 98,
      "chip": "ym2612"
    },
    {
      "channel": 0,
      "note": 93,
      "start": 29.1961,
      "duration": 0.0133,
      "velocity": 98,
      "chip": "ym2612"
    },
    {
      "channel": 4,
      "note": 89,
      "start": 29.2046,
      "duration": 0.009,
      "velocity": 98,
      "chip": "ym2612"
    },
    {
      "channel": 0,
      "note": 94,
      "start": 29.2097,
      "duration": 0.0115,
      "velocity": 98,
      "chip": "ym2612"
    },
    {
      "channel": 4,
      "note": 88,
      "start": 29.2139,
      "duration": 0.009,
      "velocity": 98,
      "chip": "ym2612"
    },
    {
      "channel": 0,
      "note": 81,
      "start": 29.2214,
      "duration": 0.0065,
      "velocity": 98,
      "chip": "ym2612"
    },
    {
      "channel": 1,
      "note": 61,
      "start": 29.2219,
      "duration": 0.0188,
      "velocity": 82,
      "chip": "ym2612"
    },
    {
      "channel": 4,
      "note": 89,
      "start": 29.2232,
      "duration": 0.0061,
      "velocity": 98,
      "chip": "ym2612"
    },
    {
      "channel": 0,
      "note": 83,
      "start": 29.2281,
      "duration": 0.0058,
      "velocity": 98,
      "chip": "ym2612"
    },
    {
      "channel": 4,
      "note": 69,
      "start": 29.2296,
      "duration": 0.0058,
      "velocity": 98,
      "chip": "ym2612"
    },
    {
      "channel": 0,
      "note": 85,
      "start": 29.2341,
      "duration": 0.006,
      "velocity": 98,
      "chip": "ym2612"
    },
    {
      "channel": 4,
      "note": 71,
      "start": 29.2357,
      "duration": 0.006,
      "velocity": 98,
      "chip": "ym2612"
    },
    {
      "channel": 0,
      "note": 86,
      "start": 29.2405,
      "duration": 0.0058,
      "velocity": 98,
      "chip": "ym2612"
    },
    {
      "channel": 4,
      "note": 73,
      "start": 29.242,
      "duration": 0.0059,
      "velocity": 98,
      "chip": "ym2612"
    },
    {
      "channel": 0,
      "note": 88,
      "start": 29.2465,
      "duration": 0.0218,
      "velocity": 98,
      "chip": "ym2612"
    },
    {
      "channel": 4,
      "note": 74,
      "start": 29.2482,
      "duration": 0.0216,
      "velocity": 98,
      "chip": "ym2612"
    },
    {
      "channel": 0,
      "note": 90,
      "start": 29.2685,
      "duration": 0.0377,
      "velocity": 98,
      "chip": "ym2612"
    },
    {
      "channel": 4,
      "note": 76,
      "start": 29.2701,
      "duration": 0.0376,
      "velocity": 98,
      "chip": "ym2612"
    },
    {
      "channel": 0,
      "note": 92,
      "start": 29.3065,
      "duration": 0.0096,
      "velocity": 98,
      "chip": "ym2612"
    },
    {
      "channel": 4,
      "note": 78,
      "start": 29.308,
      "duration": 0.0096,
      "velocity": 98,
      "chip": "ym2612"
    },
    {
      "channel": 0,
      "note": 93,
      "start": 29.3163,
      "duration": 0.0063,
      "velocity": 98,
      "chip": "ym2612"
    },
    {
      "channel": 4,
      "note": 80,
      "start": 29.3179,
      "duration": 0.0063,
      "velocity": 98,
      "chip": "ym2612"
    },
    {
      "channel": 0,
      "note": 95,
      "start": 29.3229,
      "duration": 0.0058,
      "velocity": 98,
      "chip": "ym2612"
    },
    {
      "channel": 4,
      "note": 81,
      "start": 29.3245,
      "duration": 0.0057,
      "velocity": 98,
      "chip": "ym2612"
    },
    {
      "channel": 0,
      "note": 97,
      "start": 29.329,
      "duration": 0.0061,
      "velocity": 98,
      "chip": "ym2612"
    },
    {
      "channel": 4,
      "note": 83,
      "start": 29.3305,
      "duration": 0.006,
      "velocity": 98,
      "chip": "ym2612"
    },
    {
      "channel": 0,
      "note": 98,
      "start": 29.3353,
      "duration": 0.0061,
      "velocity": 98,
      "chip": "ym2612"
    },
    {
      "channel": 4,
      "note": 85,
      "start": 29.3368,
      "duration": 0.0062,
      "velocity": 98,
      "chip": "ym2612"
    },
    {
      "channel": 0,
      "note": 100,
      "start": 29.3417,
      "duration": 0.0077,
      "velocity": 98,
      "chip": "ym2612"
    },
    {
      "channel": 4,
      "note": 86,
      "start": 29.3434,
      "duration": 0.0079,
      "velocity": 98,
      "chip": "ym2612"
    },
    {
      "channel": 0,
      "note": 102,
      "start": 29.3496,
      "duration": 0.0069,
      "velocity": 98,
      "chip": "ym2612"
    },
    {
      "channel": 1,
      "note": 57,
      "start": 29.3502,
      "duration": 0.0186,
      "velocity": 82,
      "chip": "ym2612"
    },
    {
      "channel": 4,
      "note": 88,
      "start": 29.3517,
      "duration": 0.0063,
      "velocity": 98,
      "chip": "ym2612"
    },
    {
      "channel": 0,
      "note": 104,
      "start": 29.3568,
      "duration": 0.0081,
      "velocity": 98,
      "chip": "ym2612"
    },
    {
      "channel": 4,
      "note": 90,
      "start": 29.3583,
      "duration": 0.0081,
      "velocity": 98,
      "chip": "ym2612"
    },
    {
      "channel": 0,
      "note": 105,
      "start": 29.3652,
      "duration": 0.0115,
      "velocity": 98,
      "chip": "ym2612"
    },
    {
      "channel": 4,
      "note": 92,
      "start": 29.3667,
      "duration": 0.0112,
      "velocity": 98,
      "chip": "ym2612"
    },
    {
      "channel": 1,
      "note": 50,
      "start": 29.4236,
      "duration": 0.0167,
      "velocity": 82,
      "chip": "ym2612"
    },
    {
      "channel": 0,
      "note": 98,
      "start": 29.5274,
      "duration": 0.0079,
      "velocity": 98,
      "chip": "ym2612"
    },
    {
      "channel": 2,
      "note": 81,
      "start": 29.5298,
      "duration": 0.0167,
      "velocity": 104,
      "chip": "ym2612"
    },
    {
      "channel": 3,
      "note": 73,
      "start": 29.5327,
      "duration": 0.0141,
      "velocity": 104,
      "chip": "ym2612"
    },
    {
      "channel": 4,
      "note": 93,
      "start": 29.5334,
      "duration": 0.0033,
      "velocity": 98,
      "chip": "ym2612"
    },
    {
      "channel": 0,
      "note": 100,
      "start": 29.5356,
      "duration": 0.003,
      "velocity": 98,
      "chip": "ym2612"
    },
    {
      "channel": 4,
      "note": 86,
      "start": 29.5371,
      "duration": 0.003,
      "velocity": 98,
      "chip": "ym2612"
    },
    {
      "channel": 0,
      "note": 101,
      "start": 29.5389,
      "duration": 0.0031,
      "velocity": 98,
      "chip": "ym2612"
    },
    {
      "channel": 4,
      "note": 88,
      "start": 29.5404,
      "duration": 0.003,
      "velocity": 98,
      "chip": "ym2612"
    },
    {
      "channel": 0,
      "note": 103,
      "start": 29.5422,
      "duration": 0.0034,
      "velocity": 98,
      "chip": "ym2612"
    },
    {
      "channel": 4,
      "note": 89,
      "start": 29.5437,
      "duration": 0.0034,
      "velocity": 98,
      "chip": "ym2612"
    },
    {
      "channel": 0,
      "note": 105,
      "start": 29.5459,
      "duration": 0.0032,
      "velocity": 98,
      "chip": "ym2612"
    },
    {
      "channel": 4,
      "note": 91,
      "start": 29.5474,
      "duration": 0.003,
      "velocity": 98,
      "chip": "ym2612"
    },
    {
      "channel": 0,
      "note": 107,
      "start": 29.5493,
      "duration": 0.0036,
      "velocity": 98,
      "chip": "ym2612"
    },
    {
      "channel": 4,
      "note": 93,
      "start": 29.5507,
      "duration": 0.0045,
      "velocity": 98,
      "chip": "ym2612"
    },
    {
      "channel": 0,
      "note": 109,
      "start": 29.5531,
      "duration": 0.0077,
      "velocity": 98,
      "chip": "ym2612"
    },
    {
      "channel": 1,
      "note": 50,
      "start": 29.5537,
      "duration": 0.0211,
      "velocity": 82,
      "chip": "ym2612"
    },
    {
      "channel": 2,
      "note": 81,
      "start": 29.5542,
      "duration": 0.3798,
      "velocity": 104,
      "chip": "ym2612"
    },
    {
      "channel": 3,
      "note": 74,
      "start": 29.5548,
      "duration": 0.1175,
      "velocity": 104,
      "chip": "ym2612"
    },
    {
      "channel": 4,
      "note": 95,
      "start": 29.5556,
      "duration": 0.0067,
      "velocity": 98,
      "chip": "ym2612"
    },
    {
      "channel": 0,
      "note": 110,
      "start": 29.5611,
      "duration": 0.0132,
      "velocity": 98,
      "chip": "ym2612"
    },
    {
      "channel": 4,
      "note": 97,
      "start": 29.5626,
      "duration": 0.0131,
      "velocity": 98,
      "chip": "ym2612"
    },
    {
      "channel": 1,
      "note": 52,
      "start": 29.6775,
      "duration": 0.0167,
      "velocity": 82,
      "chip": "ym2612"
    },
    {
      "channel": 3,
      "note": 74,
      "start": 29.6783,
      "duration": 0.2561,
      "velocity": 104,
      "chip": "ym2612"
    },
    {
      "channel": 1,
      "note": 52,
      "start": 29.7987,
      "duration": 0.0169,
      "velocity": 82,
      "chip": "ym2612"
    },
    {
      "channel": 1,
      "note": 53,
      "start": 29.9721,
      "duration": 0.0197,
      "velocity": 82,
      "chip": "ym2612"
    },
    {
      "channel": 0,
      "note": 98,
      "start": 30.0793,
      "duration": 0.0041,
      "velocity": 98,
      "chip": "ym2612"
    },
    {
      "channel": 2,
      "note": 81,
      "start": 30.0801,
      "duration": 0.0178,
      "velocity": 104,
      "chip": "ym2612"
    },
    {
      "channel": 3,
      "note": 76,
      "start": 30.0807,
      "duration": 0.0175,
      "velocity": 104,
      "chip": "ym2612"
    },
    {
      "channel": 4,
      "note": 98,
      "start": 30.0815,
      "duration": 0.0032,
      "velocity": 98,
      "chip": "ym2612"
    },
    {
      "channel": 0,
      "note": 100,
      "start": 30.0836,
      "duration": 0.0031,
      "velocity": 98,
      "chip": "ym2612"
    },
    {
      "channel": 4,
      "note": 86,
      "start": 30.0851,
      "duration": 0.003,
      "velocity": 98,
      "chip": "ym2612"
    },
    {
      "channel": 0,
      "note": 101,
      "start": 30.0869,
      "duration": 0.0031,
      "velocity": 98,
      "chip": "ym2612"
    },
    {
      "channel": 4,
      "note": 88,
      "start": 30.0884,
      "duration": 0.003,
      "velocity": 98,
      "chip": "ym2612"
    },
    {
      "channel": 0,
      "note": 103,
      "start": 30.0902,
      "duration": 0.0068,
      "velocity": 98,
      "chip": "ym2612"
    },
    {
      "channel": 4,
      "note": 89,
      "start": 30.0917,
      "duration": 0.0069,
      "velocity": 98,
      "chip": "ym2612"
    },
    {
      "channel": 0,
      "note": 105,
      "start": 30.0973,
      "duration": 0.0032,
      "velocity": 98,
      "chip": "ym2612"
    },
    {
      "channel": 4,
      "note": 91,
      "start": 30.0989,
      "duration": 0.003,
      "velocity": 98,
      "chip": "ym2612"
    },
    {
      "channel": 0,
      "note": 107,
      "start": 30.1008,
      "duration": 0.0036,
      "velocity": 98,
      "chip": "ym2612"
    },
    {
      "channel": 4,
      "note": 93,
      "start": 30.1022,
      "duration": 0.0045,
      "velocity": 98,
      "chip": "ym2612"
    },
    {
      "channel": 0,
      "note": 109,
      "start": 30.1046,
      "duration": 0.0078,
      "velocity": 98,
      "chip": "ym2612"
    },
    {
      "channel": 1,
      "note": 53,
      "start": 30.1051,
      "duration": 0.0212,
      "velocity": 82,
      "chip": "ym2612"
    },
    {
      "channel": 2,
      "note": 81,
      "start": 30.1057,
      "duration": 0.3157,
      "velocity": 104,
      "chip": "ym2612"
    },
    {
      "channel": 3,
      "note": 77,
      "start": 30.1063,
      "duration": 0.1173,
      "velocity": 104,
      "chip": "ym2612"
    },
    {
      "channel": 4,
      "note": 95,
      "start": 30.1071,
      "duration": 0.0066,
      "velocity": 98,
      "chip": "ym2612"
    },
    {
      "channel": 0,
      "note": 110,
      "start": 30.1126,
      "duration": 0.0133,
      "velocity": 98,
      "chip": "ym2612"
    },
    {
      "channel": 4,
      "note": 97,
      "start": 30.114,
      "duration": 0.0131,
      "velocity": 98,
      "chip": "ym2612"
    },
    {
      "channel": 1,
      "note": 52,
      "start": 30.2287,
      "duration": 0.0166,
      "velocity": 82,
      "chip": "ym2612"
    },
    {
      "channel": 3,
      "note": 77,
      "start": 30.2296,
      "duration": 0.1921,
      "velocity": 104,
      "chip": "ym2612"
    },
    {
      "channel": 1,
      "note": 52,
      "start": 30.3526,
      "duration": 0.0189,
      "velocity": 82,
      "chip": "ym2612"
    },
    {
      "channel": 1,
      "note": 50,
      "start": 30.427,
      "duration": 0.0167,
      "velocity": 82,
      "chip": "ym2612"
    },
    {
      "channel": 2,
      "note": 81,
      "start": 30.5312,
      "duration": 0.011,
      "velocity": 104,
      "chip": "ym2612"
    },
    {
      "channel": 3,
      "note": 73,
      "start": 30.5318,
      "duration": 0.0107,
      "velocity": 104,
      "chip": "ym2612"
    },
    {
      "channel": 1,
      "note": 50,
      "start": 30.5474,
      "duration": 0.0169,
      "velocity": 82,
      "chip": "ym2612"
    },
    {
      "channel": 2,
      "note": 81,
      "start": 30.548,
      "duration": 0.2377,
      "velocity": 104,
      "chip": "ym2612"
    },
    {
      "channel": 3,
      "note": 77,
      "start": 30.5486,
      "duration": 0.2374,
      "velocity": 104,
      "chip": "ym2612"
    },
    {
      "channel": 1,
      "note": 48,
      "start": 30.668,
      "duration": 0.0166,
      "velocity": 82,
      "chip": "ym2612"
    },
    {
      "channel": 1,
      "note": 48,
      "start": 30.7912,
      "duration": 0.0169,
      "velocity": 82,
      "chip": "ym2612"
    },
    {
      "channel": 2,
      "note": 77,
      "start": 30.7917,
      "duration": 0.1348,
      "velocity": 104,
      "chip": "ym2612"
    },
    {
      "channel": 3,
      "note": 77,
      "start": 30.7923,
      "duration": 0.1345,
      "velocity": 104,
      "chip": "ym2612"
    },
    {
      "channel": 1,
      "note": 47,
      "start": 30.9645,
      "duration": 0.0201,
      "velocity": 82,
      "chip": "ym2612"
    },
    {
      "channel": 2,
      "note": 79,
      "start": 30.965,
      "duration": 0.0148,
      "velocity": 104,
      "chip": "ym2612"
    },
    {
      "channel": 3,
      "note": 74,
      "start": 30.9656,
      "duration": 0.0145,
      "velocity": 104,
      "chip": "ym2612"
    },
    {
      "channel": 2,
      "note": 74,
      "start": 31.0529,
      "duration": 0.0145,
      "velocity": 104,
      "chip": "ym2612"
    },
    {
      "channel": 3,
      "note": 74,
      "start": 31.0535,
      "duration": 0.0141,
      "velocity": 104,
      "chip": "ym2612"
    },
    {
      "channel": 2,
      "note": 74,
      "start": 31.0727,
      "duration": 0.0111,
      "velocity": 104,
      "chip": "ym2612"
    },
    {
      "channel": 3,
      "note": 71,
      "start": 31.0733,
      "duration": 0.0108,
      "velocity": 104,
      "chip": "ym2612"
    },
    {
      "channel": 1,
      "note": 47,
      "start": 31.089,
      "duration": 0.017,
      "velocity": 82,
      "chip": "ym2612"
    },
    {
      "channel": 2,
      "note": 74,
      "start": 31.0895,
      "duration": 0.0114,
      "velocity": 104,
      "chip": "ym2612"
    },
    {
      "channel": 3,
      "note": 71,
      "start": 31.0901,
      "duration": 0.011,
      "velocity": 104,
      "chip": "ym2612"
    },
    {
      "channel": 2,
      "note": 79,
      "start": 31.1742,
      "duration": 0.0151,
      "velocity": 104,
      "chip": "ym2612"
    },
    {
      "channel": 3,
      "note": 71,
      "start": 31.1749,
      "duration": 0.0147,
      "velocity": 104,
      "chip": "ym2612"
    },
    {
      "channel": 0,
      "note": 83,
      "start": 31.2115,
      "duration": 0.0173,
      "velocity": 98,
      "chip": "ym2612"
    },
    {
      "channel": 1,
      "note": 55,
      "start": 31.212,
      "duration": 0.0172,
      "velocity": 82,
      "chip": "ym2612"
    },
    {
      "channel": 2,
      "note": 83,
      "start": 31.2125,
      "duration": 0.174,
      "velocity": 104,
      "chip": "ym2612"
    },
    {
      "channel": 3,
      "note": 74,
      "start": 31.2132,
      "duration": 0.1737,
      "velocity": 104,
      "chip": "ym2612"
    },
    {
      "channel": 4,
      "note": 98,
      "start": 31.2139,
      "duration": 0.0161,
      "velocity": 98,
      "chip": "ym2612"
    },
    {
      "channel": 0,
      "note": 79,
      "start": 31.2965,
      "duration": 0.012,
      "velocity": 98,
      "chip": "ym2612"
    },
    {
      "channel": 4,
      "note": 79,
      "start": 31.2979,
      "duration": 0.0117,
      "velocity": 98,
      "chip": "ym2612"
    },
    {
      "channel": 0,
      "note": 79,
      "start": 31.3172,
      "duration": 0.0084,
      "velocity": 98,
      "chip": "ym2612"
    },
    {
      "channel": 4,
      "note": 74,
      "start": 31.3186,
      "duration": 0.0082,
      "velocity": 98,
      "chip": "ym2612"
    },
    {
      "channel": 0,
      "note": 79,
      "start": 31.3367,
      "duration": 0.0188,
      "velocity": 98,
      "chip": "ym2612"
    },
    {
      "channel": 1,
      "note": 55,
      "start": 31.3372,
      "duration": 0.0187,
      "velocity": 82,
      "chip": "ym2612"
    },
    {
      "channel": 4,
      "note": 74,
      "start": 31.3385,
      "duration": 0.0182,
      "velocity": 98,
      "chip": "ym2612"
    },
    {
      "channel": 0,
      "note": 83,
      "start": 31.3749,
      "duration": 0.0188,
      "velocity": 98,
      "chip": "ym2612"
    },
    {
      "channel": 4,
      "note": 74,
      "start": 31.3764,
      "duration": 0.0187,
      "velocity": 98,
      "chip": "ym2612"
    },
    {
      "channel": 0,
      "note": 86,
      "start": 31.4107,
      "duration": 0.0124,
      "velocity": 98,
      "chip": "ym2612"
    },
    {
      "channel": 1,
      "note": 58,
      "start": 31.4112,
      "duration": 0.0177,
      "velocity": 82,
      "chip": "ym2612"
    },
    {
      "channel": 2,
      "note": 74,
      "start": 31.4117,
      "duration": 0.0119,
      "velocity": 104,
      "chip": "ym2612"
    },
    {
      "channel": 3,
      "note": 79,
      "start": 31.4124,
      "duration": 0.0116,
      "velocity": 104,
      "chip": "ym2612"
    },
    {
      "channel": 4,
      "note": 79,
      "start": 31.4132,
      "duration": 0.0112,
      "velocity": 98,
      "chip": "ym2612"
    },
    {
      "channel": 0,
      "note": 77,
      "start": 31.4959,
      "duration": 0.0198,
      "velocity": 98,
      "chip": "ym2612"
    },
    {
      "channel": 4,
      "note": 82,
      "start": 31.4973,
      "duration": 0.0204,
      "velocity": 98,
      "chip": "ym2612"
    },
    {
      "channel": 0,
      "note": 82,
      "start": 31.5159,
      "duration": 0.0173,
      "velocity": 98,
      "chip": "ym2612"
    },
    {
      "channel": 2,
      "note": 74,
      "start": 31.5166,
      "duration": 0.0119,
      "velocity": 104,
      "chip": "ym2612"
    },
    {
      "channel": 3,
      "note": 70,
      "start": 31.5173,
      "duration": 0.0116,
      "velocity": 104,
      "chip": "ym2612"
    },
    {
      "channel": 4,
      "note": 74,
      "start": 31.518,
      "duration": 0.0176,
      "velocity": 98,
      "chip": "ym2612"
    },
    {
      "channel": 0,
      "note": 89,
      "start": 31.5335,
      "duration": 0.0098,
      "velocity": 98,
      "chip": "ym2612"
    },
    {
      "channel": 1,
      "note": 58,
      "start": 31.534,
      "duration": 0.0182,
      "velocity": 82,
      "chip": "ym2612"
    },
    {
      "channel": 2,
      "note": 74,
      "start": 31.5345,
      "duration": 0.2437,
      "velocity": 104,
      "chip": "ym2612"
    },
    {
      "channel": 3,
      "note": 70,
      "start": 31.5352,
      "duration": 0.2434,
      "velocity": 104,
      "chip": "ym2612"
    },
    {
      "channel": 4,
      "note": 77,
      "start": 31.5359,
      "duration": 0.0112,
      "velocity": 98,
      "chip": "ym2612"
    },
    {
      "channel": 0,
      "note": 91,
      "start": 31.5435,
      "duration": 0.008,
      "velocity": 98,
      "chip": "ym2612"
    },
    {
      "channel": 4,
      "note": 86,
      "start": 31.5474,
      "duration": 0.0106,
      "velocity": 98,
      "chip": "ym2612"
    },
    {
      "channel": 0,
      "note": 89,
      "start": 31.5518,
      "duration": 0.0096,
      "velocity": 98,
      "chip": "ym2612"
    },
    {
      "channel": 4,
      "note": 88,
      "start": 31.5584,
      "duration": 0.0613,
      "velocity": 98,
      "chip": "ym2612"
    },
    {
      "channel": 0,
      "note": 91,
      "start": 31.5617,
      "duration": 0.0567,
      "velocity": 98,
      "chip": "ym2612"
    },
    {
      "channel": 0,
      "note": 89,
      "start": 31.6186,
      "duration": 0.0118,
      "velocity": 98,
      "chip": "ym2612"
    },
    {
      "channel": 4,
      "note": 86,
      "start": 31.62,
      "duration": 0.0145,
      "velocity": 98,
      "chip": "ym2612"
    },
    {
      "channel": 0,
      "note": 91,
      "start": 31.6306,
      "duration": 0.0084,
      "velocity": 98,
      "chip": "ym2612"
    },
    {
      "channel": 4,
      "note": 88,
      "start": 31.6349,
      "duration": 0.0107,
      "velocity": 98,
      "chip": "ym2612"
    },
    {
      "channel": 0,
      "note": 89,
      "start": 31.6392,
      "duration": 0.0083,
      "velocity": 98,
      "chip": "ym2612"
    },
    {
      "channel": 4,
      "note": 86,
      "start": 31.6459,
      "duration": 0.0116,
      "velocity": 98,
      "chip": "ym2612"
    },
    {
      "channel": 0,
      "note": 91,
      "start": 31.6478,
      "duration": 0.008,
      "velocity": 98,
      "chip": "ym2612"
    },
    {
      "channel": 0,
      "note": 89,
      "start": 31.656,
      "duration": 0.009,
      "velocity": 98,
      "chip": "ym2612"
    },
    {
      "channel": 1,
      "note": 58,
      "start": 31.6565,
      "duration": 0.0177,
      "velocity": 82,
      "chip": "ym2612"
    },
    {
      "channel": 4,
      "note": 88,
      "start": 31.6578,
      "duration": 0.0112,
      "velocity": 98,
      "chip": "ym2612"
    },
    {
      "channel": 0,
      "note": 91,
      "start": 31.6652,
      "duration": 0.0084,
      "velocity": 98,
      "chip": "ym2612"
    },
    {
      "channel": 4,
      "note": 86,
      "start": 31.6694,
      "duration": 0.0111,
      "velocity": 98,
      "chip": "ym2612"
    },
    {
      "channel": 0,
      "note": 89,
      "start": 31.6739,
      "duration": 0.01,
      "velocity": 98,
      "chip": "ym2612"
    },
    {
      "channel": 4,
      "note": 88,
      "start": 31.6808,
      "duration": 0.0615,
      "velocity": 98,
      "chip": "ym2612"
    },
    {
      "channel": 0,
      "note": 91,
      "start": 31.6841,
      "duration": 0.0567,
      "velocity": 98,
      "chip": "ym2612"
    },
    {
      "channel": 0,
      "note": 89,
      "start": 31.7411,
      "duration": 0.0122,
      "velocity": 98,
      "chip": "ym2612"
    },
    {
      "channel": 4,
      "note": 86,
      "start": 31.7426,
      "duration": 0.015,
      "velocity": 98,
      "chip": "ym2612"
    },
    {
      "channel": 0,
      "note": 91,
      "start": 31.7535,
      "duration": 0.0104,
      "velocity": 98,
      "chip": "ym2612"
    },
    {
      "channel": 4,
      "note": 88,
      "start": 31.7579,
      "duration": 0.0132,
      "velocity": 98,
      "chip": "ym2612"
    },
    {
      "channel": 0,
      "note": 89,
      "start": 31.7641,
      "duration": 0.0103,
      "velocity": 98,
      "chip": "ym2612"
    },
    {
      "channel": 4,
      "note": 86,
      "start": 31.7715,
      "duration": 0.0142,
      "velocity": 98,
      "chip": "ym2612"
    },
    {
      "channel": 0,
      "note": 91,
      "start": 31.7746,
      "duration": 0.0086,
      "velocity": 98,
      "chip": "ym2612"
    },
    {
      "channel": 0,
      "note": 86,
      "start": 31.7835,
      "duration": 0.1731,
      "velocity": 98,
      "chip": "ym2612"
    },
    {
      "channel": 1,
      "note": 58,
      "start": 31.7841,
      "duration": 0.0145,
      "velocity": 82,
      "chip": "ym2612"
    },
    {
      "channel": 2,
      "note": 74,
      "start": 31.7846,
      "duration": 0.1347,
      "velocity": 104,
      "chip": "ym2612"
    },
    {
      "channel": 3,
      "note": 70,
      "start": 31.7852,
      "duration": 0.1344,
      "velocity": 104,
      "chip": "ym2612"
    },
    {
      "channel": 4,
      "note": 88,
      "start": 31.786,
      "duration": 0.173,
      "velocity": 98,
      "chip": "ym2612"
    },
    {
      "channel": 0,
      "note": 88,
      "start": 31.9568,
      "duration": 0.0159,
      "velocity": 98,
      "chip": "ym2612"
    },
    {
      "channel": 1,
      "note": 57,
      "start": 31.9573,
      "duration": 0.021,
      "velocity": 82,
      "chip": "ym2612"
    },
    {
      "channel": 2,
      "note": 72,
      "start": 31.9579,
      "duration": 0.0154,
      "velocity": 104,
      "chip": "ym2612"
    },
    {
      "channel": 3,
      "note": 70,
      "start": 31.9585,
      "duration": 0.0151,
      "velocity": 104,
      "chip": "ym2612"
    },
    {
      "channel": 4,
      "note": 82,
      "start": 31.9593,
      "duration": 0.0117,
      "velocity": 98,
      "chip": "ym2612"
    },
    {
      "channel": 0,
      "note": 79,
      "start": 32.0452,
      "duration": 0.0197,
      "velocity": 98,
      "chip": "ym2612"
    },
    {
      "channel": 4,
      "note": 84,
      "start": 32.0467,
      "duration": 0.0203,
      "velocity": 98,
      "chip": "ym2612"
    },
    {
      "channel": 0,
      "note": 84,
      "start": 32.0651,
      "duration": 0.0175,
      "velocity": 98,
      "chip": "ym2612"
    },
    {
      "channel": 2,
      "note": 72,
      "start": 32.0659,
      "duration": 0.012,
      "velocity": 104,
      "chip": "ym2612"
    },
    {
      "channel": 3,
      "note": 67,
      "start": 32.0666,
      "duration": 0.0116,
      "velocity": 104,
      "chip": "ym2612"
    },
    {
      "channel": 4,
      "note": 76,
      "start": 32.0673,
      "duration": 0.0178,
      "velocity": 98,
      "chip": "ym2612"
    },
    {
      "channel": 0,
      "note": 91,
      "start": 32.0829,
      "duration": 0.0098,
      "velocity": 98,
      "chip": "ym2612"
    },
    {
      "channel": 1,
      "note": 57,
      "start": 32.0834,
      "duration": 0.0182,
      "velocity": 82,
      "chip": "ym2612"
    },
    {
      "channel": 2,
      "note": 72,
      "start": 32.084,
      "duration": 0.2408,
      "velocity": 104,
      "chip": "ym2612"
    },
    {
      "channel": 3,
      "note": 67,
      "start": 32.0846,
      "duration": 0.2406,
      "velocity": 104,
      "chip": "ym2612"
    },
    {
      "channel": 4,
      "note": 79,
      "start": 32.0854,
      "duration": 0.0112,
      "velocity": 98,
      "chip": "ym2612"
    },
    {
      "channel": 0,
      "note": 93,
      "start": 32.093,
      "duration": 0.0081,
      "velocity": 98,
      "chip": "ym2612"
    },
    {
      "channel": 4,
      "note": 88,
      "start": 32.0969,
      "duration": 0.0106,
      "velocity": 98,
      "chip": "ym2612"
    },
    {
      "channel": 0,
      "note": 91,
      "start": 32.1013,
      "duration": 0.0096,
      "velocity": 98,
      "chip": "ym2612"
    },
    {
      "channel": 4,
      "note": 89,
      "start": 32.1079,
      "duration": 0.0613,
      "velocity": 98,
      "chip": "ym2612"
    },
    {
      "channel": 0,
      "note": 93,
      "start": 32.1111,
      "duration": 0.0567,
      "velocity": 98,
      "chip": "ym2612"
    },
    {
      "channel": 0,
      "note": 91,
      "start": 32.1681,
      "duration": 0.0117,
      "velocity": 98,
      "chip": "ym2612"
    },
    {
      "channel": 4,
      "note": 88,
      "start": 32.1695,
      "duration": 0.0145,
      "velocity": 98,
      "chip": "ym2612"
    },
    {
      "channel": 0,
      "note": 93,
      "start": 32.1801,
      "duration": 0.0084,
      "velocity": 98,
      "chip": "ym2612"
    },
    {
      "channel": 4,
      "note": 89,
      "start": 32.1844,
      "duration": 0.0106,
      "velocity": 98,
      "chip": "ym2612"
    },
    {
      "channel": 0,
      "note": 91,
      "start": 32.1886,
      "duration": 0.0083,
      "velocity": 98,
      "chip": "ym2612"
    },
    {
      "channel": 4,
      "note": 88,
      "start": 32.1954,
      "duration": 0.0117,
      "velocity": 98,
      "chip": "ym2612"
    },
    {
      "channel": 0,
      "note": 93,
      "start": 32.1972,
      "duration": 0.008,
      "velocity": 98,
      "chip": "ym2612"
    },
    {
      "channel": 0,
      "note": 91,
      "start": 32.2055,
      "duration": 0.009,
      "velocity": 98,
      "chip": "ym2612"
    },
    {
      "channel": 1,
      "note": 57,
      "start": 32.206,
      "duration": 0.0179,
      "velocity": 82,
      "chip": "ym2612"
    },
    {
      "channel": 4,
      "note": 89,
      "start": 32.2073,
      "duration": 0.0113,
      "velocity": 98,
      "chip": "ym2612"
    },
    {
      "channel": 0,
      "note": 93,
      "start": 32.2148,
      "duration": 0.0085,
      "velocity": 98,
      "chip": "ym2612"
    },
    {
      "channel": 4,
      "note": 88,
      "start": 32.219,
      "duration": 0.0112,
      "velocity": 98,
      "chip": "ym2612"
    },
    {
      "channel": 0,
      "note": 91,
      "start": 32.2235,
      "duration": 0.0101,
      "velocity": 98,
      "chip": "ym2612"
    },
    {
      "channel": 4,
      "note": 89,
      "start": 32.2305,
      "duration": 0.0615,
      "velocity": 98,
      "chip": "ym2612"
    },
    {
      "channel": 0,
      "note": 93,
      "start": 32.2339,
      "duration": 0.0566,
      "velocity": 98,
      "chip": "ym2612"
    },
    {
      "channel": 0,
      "note": 91,
      "start": 32.2907,
      "duration": 0.0122,
      "velocity": 98,
      "chip": "ym2612"
    },
    {
      "channel": 4,
      "note": 88,
      "start": 32.2923,
      "duration": 0.0151,
      "velocity": 98,
      "chip": "ym2612"
    },
    {
      "channel": 0,
      "note": 93,
      "start": 32.3031,
      "duration": 0.0088,
      "velocity": 98,
      "chip": "ym2612"
    },
    {
      "channel": 4,
      "note": 89,
      "start": 32.3076,
      "duration": 0.0115,
      "velocity": 98,
      "chip": "ym2612"
    },
    {
      "channel": 0,
      "note": 91,
      "start": 32.3121,
      "duration": 0.0089,
      "velocity": 98,
      "chip": "ym2612"
    },
    {
      "channel": 4,
      "note": 88,
      "start": 32.3194,
      "duration": 0.0149,
      "velocity": 98,
      "chip": "ym2612"
    },
    {
      "channel": 0,
      "note": 93,
      "start": 32.3212,
      "duration": 0.0107,
      "velocity": 98,
      "chip": "ym2612"
    },
    {
      "channel": 0,
      "note": 88,
      "start": 32.3322,
      "duration": 0.0726,
      "velocity": 98,
      "chip": "ym2612"
    },
    {
      "channel": 1,
      "note": 57,
      "start": 32.3327,
      "duration": 0.0185,
      "velocity": 82,
      "chip": "ym2612"
    },
    {
      "channel": 2,
      "note": 72,
      "start": 32.3333,
      "duration": 0.0665,
      "velocity": 104,
      "chip": "ym2612"
    },
    {
      "channel": 3,
      "note": 67,
      "start": 32.3339,
      "duration": 0.0662,
      "velocity": 104,
      "chip": "ym2612"
    },
    {
      "channel": 4,
      "note": 89,
      "start": 32.3346,
      "duration": 0.0725,
      "velocity": 98,
      "chip": "ym2612"
    },
    {
      "channel": 0,
      "note": 90,
      "start": 32.405,
      "duration": 0.0098,
      "velocity": 98,
      "chip": "ym2612"
    },
    {
      "channel": 1,
      "note": 50,
      "start": 32.4055,
      "duration": 0.0181,
      "velocity": 82,
      "chip": "ym2612"
    },
    {
      "channel": 2,
      "note": 69,
      "start": 32.4061,
      "duration": 0.2378,
      "velocity": 104,
      "chip": "ym2612"
    },
    {
      "channel": 3,
      "note": 67,
      "start": 32.4067,
      "duration": 0.2339,
      "velocity": 104,
      "chip": "ym2612"
    },
    {
      "channel": 4,
      "note": 84,
      "start": 32.4075,
      "duration": 0.0111,
      "velocity": 98,
      "chip": "ym2612"
    },
    {
      "channel": 0,
      "note": 91,
      "start": 32.415,
      "duration": 0.008,
      "velocity": 98,
      "chip": "ym2612"
    },
    {
      "channel": 4,
      "note": 86,
      "start": 32.4189,
      "duration": 0.0107,
      "velocity": 98,
      "chip": "ym2612"
    },
    {
      "channel": 0,
      "note": 90,
      "start": 32.4232,
      "duration": 0.0096,
      "velocity": 98,
      "chip": "ym2612"
    },
    {
      "channel": 4,
      "note": 88,
      "start": 32.4299,
      "duration": 0.0613,
      "velocity": 98,
      "chip": "ym2612"
    },
    {
      "channel": 0,
      "note": 91,
      "start": 32.4331,
      "duration": 0.0567,
      "velocity": 98,
      "chip": "ym2612"
    },
    {
      "channel": 0,
      "note": 90,
      "start": 32.49,
      "duration": 0.0119,
      "velocity": 98,
      "chip": "ym2612"
    },
    {
      "channel": 4,
      "note": 86,
      "start": 32.4915,
      "duration": 0.0145,
      "velocity": 98,
      "chip": "ym2612"
    },
    {
      "channel": 0,
      "note": 91,
      "start": 32.5021,
      "duration": 0.0083,
      "velocity": 98,
      "chip": "ym2612"
    },
    {
      "channel": 4,
      "note": 88,
      "start": 32.5064,
      "duration": 0.0107,
      "velocity": 98,
      "chip": "ym2612"
    },
    {
      "channel": 0,
      "note": 90,
      "start": 32.5107,
      "duration": 0.0083,
      "velocity": 98,
      "chip": "ym2612"
    },
    {
      "channel": 4,
      "note": 86,
      "start": 32.5174,
      "duration": 0.0117,
      "velocity": 98,
      "chip": "ym2612"
    },
    {
      "channel": 0,
      "note": 91,
      "start": 32.5193,
      "duration": 0.0081,
      "velocity": 98,
      "chip": "ym2612"
    },
    {
      "channel": 0,
      "note": 90,
      "start": 32.5276,
      "duration": 0.0091,
      "velocity": 98,
      "chip": "ym2612"
    },
    {
      "channel": 1,
      "note": 50,
      "start": 32.5281,
      "duration": 0.0178,
      "velocity": 82,
      "chip": "ym2612"
    },
    {
      "channel": 4,
      "note": 88,
      "start": 32.5295,
      "duration": 0.0112,
      "velocity": 98,
      "chip": "ym2612"
    },
    {
      "channel": 0,
      "note": 91,
      "start": 32.5369,
      "duration": 0.0084,
      "velocity": 98,
      "chip": "ym2612"
    },
    {
      "channel": 4,
      "note": 86,
      "start": 32.541,
      "duration": 0.0111,
      "velocity": 98,
      "chip": "ym2612"
    },
    {
      "channel": 0,
      "note": 90,
      "start": 32.5455,
      "duration": 0.0101,
      "velocity": 98,
      "chip": "ym2612"
    },
    {
      "channel": 4,
      "note": 88,
      "start": 32.5524,
      "duration": 0.0613,
      "velocity": 98,
      "chip": "ym2612"
    },
    {
      "channel": 0,
      "note": 91,
      "start": 32.5558,
      "duration": 0.0565,
      "velocity": 98,
      "chip": "ym2612"
    },
    {
      "channel": 0,
      "note": 90,
      "start": 32.6125,
      "duration": 0.0122,
      "velocity": 98,
      "chip": "ym2612"
    },
    {
      "channel": 4,
      "note": 86,
      "start": 32.6141,
      "duration": 0.015,
      "velocity": 98,
      "chip": "ym2612"
    },
    {
      "channel": 0,
      "note": 91,
      "start": 32.625,
      "duration": 0.0087,
      "velocity": 98,
      "chip": "ym2612"
    },
    {
      "channel": 4,
      "note": 88,
      "start": 32.6294,
      "duration": 0.0117,
      "velocity": 98,
      "chip": "ym2612"
    },
    {
      "channel": 0,
      "note": 90,
      "start": 32.6339,
      "duration": 0.0091,
      "velocity": 98,
      "chip": "ym2612"
    },
    {
      "channel": 4,
      "note": 86,
      "start": 32.6414,
      "duration": 0.0121,
      "velocity": 98,
      "chip": "ym2612"
    },
    {
      "channel": 0,
      "note": 91,
      "start": 32.6433,
      "duration": 0.0085,
      "velocity": 98,
      "chip": "ym2612"
    },
    {
      "channel": 0,
      "note": 90,
      "start": 32.6521,
      "duration": 0.0088,
      "velocity": 98,
      "chip": "ym2612"
    },
    {
      "channel": 1,
      "note": 50,
      "start": 32.6527,
      "duration": 0.0175,
      "velocity": 82,
      "chip": "ym2612"
    },
    {
      "channel": 4,
      "note": 88,
      "start": 32.6539,
      "duration": 0.011,
      "velocity": 98,
      "chip": "ym2612"
    },
    {
      "channel": 0,
      "note": 91,
      "start": 32.6612,
      "duration": 0.0084,
      "velocity": 98,
      "chip": "ym2612"
    },
    {
      "channel": 4,
      "note": 86,
      "start": 32.6652,
      "duration": 0.011,
      "velocity": 98,
      "chip": "ym2612"
    },
    {
      "channel": 0,
      "note": 90,
      "start": 32.6698,
      "duration": 0.0102,
      "velocity": 98,
      "chip": "ym2612"
    },
    {
      "channel": 4,
      "note": 88,
      "start": 32.6765,
      "duration": 0.0624,
      "velocity": 98,
      "chip": "ym2612"
    },
    {
      "channel": 0,
      "note": 91,
      "start": 32.6802,
      "duration": 0.0566,
      "velocity": 98,
      "chip": "ym2612"
    },
    {
      "channel": 0,
      "note": 90,
      "start": 32.7371,
      "duration": 0.0127,
      "velocity": 98,
      "chip": "ym2612"
    },
    {
      "channel": 2,
      "note": 69,
      "start": 32.7378,
      "duration": 0.0157,
      "velocity": 104,
      "chip": "ym2612"
    },
    {
      "channel": 3,
      "note": 66,
      "start": 32.7384,
      "duration": 0.0154,
      "velocity": 104,
      "chip": "ym2612"
    },
    {
      "channel": 4,
      "note": 86,
      "start": 32.7392,
      "duration": 0.015,
      "velocity": 98,
      "chip": "ym2612"
    },
    {
      "channel": 0,
      "note": 91,
      "start": 32.75,
      "duration": 0.0104,
      "velocity": 98,
      "chip": "ym2612"
    },
    {
      "channel": 4,
      "note": 88,
      "start": 32.7545,
      "duration": 0.0134,
      "velocity": 98,
      "chip": "ym2612"
    },
    {
      "channel": 0,
      "note": 90,
      "start": 32.7606,
      "duration": 0.0093,
      "velocity": 98,
      "chip": "ym2612"
    },
    {
      "channel": 2,
      "note": 69,
      "start": 32.7614,
      "duration": 0.0123,
      "velocity": 104,
      "chip": "ym2612"
    },
    {
      "channel": 3,
      "note": 62,
      "start": 32.762,
      "duration": 0.012,
      "velocity": 104,
      "chip": "ym2612"
    },
    {
      "channel": 4,
      "note": 86,
      "start": 32.7682,
      "duration": 0.0126,
      "velocity": 98,
      "chip": "ym2612"
    },
    {
      "channel": 0,
      "note": 91,
      "start": 32.7701,
      "duration": 0.0083,
      "velocity": 98,
      "chip": "ym2612"
    },
    {
      "channel": 0,
      "note": 90,
      "start": 32.7787,
      "duration": 0.0098,
      "velocity": 98,
      "chip": "ym2612"
    },
    {
      "channel": 1,
      "note": 50,
      "start": 32.7792,
      "duration": 0.0155,
      "velocity": 82,
      "chip": "ym2612"
    },
    {
      "channel": 2,
      "note": 74,
      "start": 32.7798,
      "duration": 0.012,
      "velocity": 104,
      "chip": "ym2612"
    },
    {
      "channel": 3,
      "note": 62,
      "start": 32.7804,
      "duration": 0.0117,
      "velocity": 104,
      "chip": "ym2612"
    },
    {
      "channel": 4,
      "note": 88,
      "start": 32.7812,
      "duration": 0.0113,
      "velocity": 98,
      "chip": "ym2612"
    },
    {
      "channel": 0,
      "note": 91,
      "start": 32.7887,
      "duration": 0.0083,
      "velocity": 98,
      "chip": "ym2612"
    },
    {
      "channel": 4,
      "note": 86,
      "start": 32.7928,
      "duration": 0.0109,
      "velocity": 98,
      "chip": "ym2612"
    },
    {
      "channel": 0,
      "note": 90,
      "start": 32.7972,
      "duration": 0.0095,
      "velocity": 98,
      "chip": "ym2612"
    },
    {
      "channel": 4,
      "note": 88,
      "start": 32.8041,
      "duration": 0.0615,
      "velocity": 98,
      "chip": "ym2612"
    },
    {
      "channel": 0,
      "note": 91,
      "start": 32.807,
      "duration": 0.0566,
      "velocity": 98,
      "chip": "ym2612"
    },
    {
      "channel": 0,
      "note": 90,
      "start": 32.8638,
      "duration": 0.0125,
      "velocity": 98,
      "chip": "ym2612"
    },
    {
      "channel": 2,
      "note": 79,
      "start": 32.8645,
      "duration": 0.0151,
      "velocity": 104,
      "chip": "ym2612"
    },
    {
      "channel": 3,
      "note": 69,
      "start": 32.8652,
      "duration": 0.0148,
      "velocity": 104,
      "chip": "ym2612"
    },
    {
      "channel": 4,
      "note": 86,
      "start": 32.8659,
      "duration": 0.0144,
      "velocity": 98,
      "chip": "ym2612"
    },
    {
      "channel": 0,
      "note": 91,
      "start": 32.8765,
      "duration": 0.0082,
      "velocity": 98,
      "chip": "ym2612"
    },
    {
      "channel": 4,
      "note": 88,
      "start": 32.8806,
      "duration": 0.0107,
      "velocity": 98,
      "chip": "ym2612"
    },
    {
      "channel": 0,
      "note": 90,
      "start": 32.8849,
      "duration": 0.0102,
      "velocity": 98,
      "chip": "ym2612"
    },
    {
      "channel": 4,
      "note": 86,
      "start": 32.8917,
      "duration": 0.0626,
      "velocity": 98,
      "chip": "ym2612"
    },
    {
      "channel": 0,
      "note": 91,
      "start": 32.8953,
      "duration": 0.0566,
      "velocity": 98,
      "chip": "ym2612"
    },
    {
      "channel": 0,
      "note": 90,
      "start": 32.9521,
      "duration": 0.013,
      "velocity": 98,
      "chip": "ym2612"
    },
    {
      "channel": 1,
      "note": 50,
      "start": 32.9527,
      "duration": 0.0184,
      "velocity": 82,
      "chip": "ym2612"
    },
    {
      "channel": 2,
      "note": 78,
      "start": 32.9532,
      "duration": 0.4466,
      "velocity": 104,
      "chip": "ym2612"
    },
    {
      "channel": 3,
      "note": 74,
      "start": 32.9538,
      "duration": 0.4463,
      "velocity": 104,
      "chip": "ym2612"
    },
    {
      "channel": 4,
      "note": 88,
      "start": 32.9546,
      "duration": 0.0143,
      "velocity": 98,
      "chip": "ym2612"
    },
    {
      "channel": 0,
      "note": 91,
      "start": 32.9653,
      "duration": 0.0081,
      "velocity": 98,
      "chip": "ym2612"
    },
    {
      "channel": 4,
      "note": 86,
      "start": 32.9693,
      "duration": 0.0107,
      "velocity": 98,
      "chip": "ym2612"
    },
    {
      "channel": 0,
      "note": 90,
      "start": 32.9736,
      "duration": 0.0097,
      "velocity": 98,
      "chip": "ym2612"
    },
    {
      "channel": 4,
      "note": 88,
      "start": 32.9802,
      "duration": 0.0612,
      "velocity": 98,
      "chip": "ym2612"
    },
    {
      "channel": 0,
      "note": 91,
      "start": 32.9835,
      "duration": 0.0566,
      "velocity": 98,
      "chip": "ym2612"
    },
    {
      "channel": 0,
      "note": 90,
      "start": 33.0403,
      "duration": 0.0118,
      "velocity": 98,
      "chip": "ym2612"
    },
    {
      "channel": 4,
      "note": 86,
      "start": 33.0418,
      "duration": 0.0145,
      "velocity": 98,
      "chip": "ym2612"
    },
    {
      "channel": 0,
      "note": 91,
      "start": 33.0524,
      "duration": 0.0084,
      "velocity": 98,
      "chip": "ym2612"
    },
    {
      "channel": 4,
      "note": 88,
      "start": 33.0566,
      "duration": 0.0108,
      "velocity": 98,
      "chip": "ym2612"
    },
    {
      "channel": 0,
      "note": 90,
      "start": 33.0611,
      "duration": 0.0084,
      "velocity": 98,
      "chip": "ym2612"
    },
    {
      "channel": 4,
      "note": 86,
      "start": 33.0679,
      "duration": 0.0117,
      "velocity": 98,
      "chip": "ym2612"
    },
    {
      "channel": 0,
      "note": 91,
      "start": 33.0697,
      "duration": 0.008,
      "velocity": 98,
      "chip": "ym2612"
    },
    {
      "channel": 0,
      "note": 90,
      "start": 33.078,
      "duration": 0.009,
      "velocity": 98,
      "chip": "ym2612"
    },
    {
      "channel": 1,
      "note": 52,
      "start": 33.0786,
      "duration": 0.0178,
      "velocity": 82,
      "chip": "ym2612"
    },
    {
      "channel": 4,
      "note": 88,
      "start": 33.0798,
      "duration": 0.0113,
      "velocity": 98,
      "chip": "ym2612"
    },
    {
      "channel": 0,
      "note": 91,
      "start": 33.0873,
      "duration": 0.0084,
      "velocity": 98,
      "chip": "ym2612"
    },
    {
      "channel": 4,
      "note": 86,
      "start": 33.0915,
      "duration": 0.0111,
      "velocity": 98,
      "chip": "ym2612"
    },
    {
      "channel": 0,
      "note": 90,
      "start": 33.096,
      "duration": 0.01,
      "velocity": 98,
      "chip": "ym2612"
    },
    {
      "channel": 4,
      "note": 88,
      "start": 33.1029,
      "duration": 0.0614,
      "velocity": 98,
      "chip": "ym2612"
    },
    {
      "channel": 0,
      "note": 91,
      "start": 33.1063,
      "duration": 0.0566,
      "velocity": 98,
      "chip": "ym2612"
    },
    {
      "channel": 0,
      "note": 90,
      "start": 33.1631,
      "duration": 0.0139,
      "velocity": 98,
      "chip": "ym2612"
    },
    {
      "channel": 4,
      "note": 86,
      "start": 33.1646,
      "duration": 0.0168,
      "velocity": 98,
      "chip": "ym2612"
    },
    {
      "channel": 0,
      "note": 91,
      "start": 33.1772,
      "duration": 0.0087,
      "velocity": 98,
      "chip": "ym2612"
    },
    {
      "channel": 4,
      "note": 88,
      "start": 33.1817,
      "duration": 0.0115,
      "velocity": 98,
      "chip": "ym2612"
    },
    {
      "channel": 0,
      "note": 90,
      "start": 33.1862,
      "duration": 0.0105,
      "velocity": 98,
      "chip": "ym2612"
    },
    {
      "channel": 4,
      "note": 86,
      "start": 33.1935,
      "duration": 0.0134,
      "velocity": 98,
      "chip": "ym2612"
    },
    {
      "channel": 0,
      "note": 74,
      "start": 33.2054,
      "duration": 0.0062,
      "velocity": 98,
      "chip": "ym2612"
    },
    {
      "channel": 1,
      "note": 54,
      "start": 33.2059,
      "duration": 0.0176,
      "velocity": 82,
      "chip": "ym2612"
    },
    {
      "channel": 0,
      "note": 76,
      "start": 33.2117,
      "duration": 0.0054,
      "velocity": 98,
      "chip": "ym2612"
    },
    {
      "channel": 0,
      "note": 78,
      "start": 33.2174,
      "duration": 0.0056,
      "velocity": 98,
      "chip": "ym2612"
    },
    {
      "channel": 0,
      "note": 79,
      "start": 33.2232,
      "duration": 0.0053,
      "velocity": 98,
      "chip": "ym2612"
    },
    {
      "channel": 0,
      "note": 81,
      "start": 33.2288,
      "duration": 0.0235,
      "velocity": 98,
      "chip": "ym2612"
    },
    {
      "channel": 0,
      "note": 83,
      "start": 33.2525,
      "duration": 0.0376,
      "velocity": 98,
      "chip": "ym2612"
    },
    {
      "channel": 0,
      "note": 85,
      "start": 33.2904,
      "duration": 0.0091,
      "velocity": 98,
      "chip": "ym2612"
    },
    {
      "channel": 0,
      "note": 86,
      "start": 33.2998,
      "duration": 0.0057,
      "velocity": 98,
      "chip": "ym2612"
    },
    {
      "channel": 0,
      "note": 88,
      "start": 33.3057,
      "duration": 0.0053,
      "velocity": 98,
      "chip": "ym2612"
    },
    {
      "channel": 0,
      "note": 90,
      "start": 33.3112,
      "duration": 0.0058,
      "velocity": 98,
      "chip": "ym2612"
    },
    {
      "channel": 0,
      "note": 91,
      "start": 33.3173,
      "duration": 0.0056,
      "velocity": 98,
      "chip": "ym2612"
    },
    {
      "channel": 0,
      "note": 93,
      "start": 33.323,
      "duration": 0.0077,
      "velocity": 98,
      "chip": "ym2612"
    },
    {
      "channel": 0,
      "note": 95,
      "start": 33.3309,
      "duration": 0.0062,
      "velocity": 98,
      "chip": "ym2612"
    },
    {
      "channel": 1,
      "note": 57,
      "start": 33.3315,
      "duration": 0.0185,
      "velocity": 82,
      "chip": "ym2612"
    },
    {
      "channel": 0,
      "note": 97,
      "start": 33.3374,
      "duration": 0.0054,
      "velocity": 98,
      "chip": "ym2612"
    },
    {
      "channel": 0,
      "note": 98,
      "start": 33.343,
      "duration": 0.0125,
      "velocity": 98,
      "chip": "ym2612"
    },
    {
      "channel": 1,
      "note": 58,
      "start": 33.4053,
      "duration": 0.0118,
      "velocity": 82,
      "chip": "ym2612"
    },
    {
      "channel": 1,
      "note": 58,
      "start": 33.6041,
      "duration": 0.0067,
      "velocity": 82,
      "chip": "ym2612"
    },
    {
      "channel": 1,
      "note": 58,
      "start": 33.6242,
      "duration": 0.5103,
      "velocity": 82,
      "chip": "ym2612"
    },
    {
      "channel": 2,
      "note": 65,
      "start": 33.7427,
      "duration": 0.041,
      "velocity": 99,
      "chip": "ym2612"
    },
    {
      "channel": 3,
      "note": 74,
      "start": 33.748,
      "duration": 0.036,
      "velocity": 99,
      "chip": "ym2612"
    },
    {
      "channel": 2,
      "note": 70,
      "start": 33.7866,
      "duration": 0.0327,
      "velocity": 99,
      "chip": "ym2612"
    },
    {
      "channel": 3,
      "note": 62,
      "start": 33.7873,
      "duration": 0.0323,
      "velocity": 99,
      "chip": "ym2612"
    },
    {
      "channel": 2,
      "note": 74,
      "start": 33.8222,
      "duration": 0.0326,
      "velocity": 99,
      "chip": "ym2612"
    },
    {
      "channel": 3,
      "note": 65,
      "start": 33.8229,
      "duration": 0.0323,
      "velocity": 99,
      "chip": "ym2612"
    },
    {
      "channel": 2,
      "note": 81,
      "start": 33.8579,
      "duration": 0.0656,
      "velocity": 99,
      "chip": "ym2612"
    },
    {
      "channel": 3,
      "note": 70,
      "start": 33.8585,
      "duration": 0.0654,
      "velocity": 99,
      "chip": "ym2612"
    },
    {
      "channel": 2,
      "note": 79,
      "start": 33.9266,
      "duration": 0.0327,
      "velocity": 99,
      "chip": "ym2612"
    },
    {
      "channel": 3,
      "note": 77,
      "start": 33.9272,
      "duration": 0.0323,
      "velocity": 99,
      "chip": "ym2612"
    },
    {
      "channel": 2,
      "note": 81,
      "start": 33.9621,
      "duration": 0.0328,
      "velocity": 99,
      "chip": "ym2612"
    },
    {
      "channel": 3,
      "note": 76,
      "start": 33.9627,
      "duration": 0.0325,
      "velocity": 99,
      "chip": "ym2612"
    },
    {
      "channel": 2,
      "note": 77,
      "start": 33.9978,
      "duration": 0.0326,
      "velocity": 99,
      "chip": "ym2612"
    },
    {
      "channel": 3,
      "note": 77,
      "start": 33.9985,
      "duration": 0.0323,
      "velocity": 99,
      "chip": "ym2612"
    },
    {
      "channel": 2,
      "note": 76,
      "start": 34.0334,
      "duration": 0.0328,
      "velocity": 99,
      "chip": "ym2612"
    },
    {
      "channel": 3,
      "note": 74,
      "start": 34.034,
      "duration": 0.0324,
      "velocity": 99,
      "chip": "ym2612"
    },
    {
      "channel": 2,
      "note": 74,
      "start": 34.0691,
      "duration": 0.0328,
      "velocity": 99,
      "chip": "ym2612"
    },
    {
      "channel": 3,
      "note": 69,
      "start": 34.0697,
      "duration": 0.0325,
      "velocity": 99,
      "chip": "ym2612"
    },
    {
      "channel": 2,
      "note": 79,
      "start": 34.1049,
      "duration": 0.0328,
      "velocity": 99,
      "chip": "ym2612"
    },
    {
      "channel": 3,
      "note": 69,
      "start": 34.1056,
      "duration": 0.0325,
      "velocity": 99,
      "chip": "ym2612"
    },
    {
      "channel": 1,
      "note": 57,
      "start": 34.1405,
      "duration": 0.0119,
      "velocity": 82,
      "chip": "ym2612"
    },
    {
      "channel": 2,
      "note": 76,
      "start": 34.141,
      "duration": 0.1791,
      "velocity": 99,
      "chip": "ym2612"
    },
    {
      "channel": 3,
      "note": 74,
      "start": 34.1417,
      "duration": 0.1788,
      "velocity": 99,
      "chip": "ym2612"
    },
    {
      "channel": 1,
      "note": 57,
      "start": 34.339,
      "duration": 0.0074,
      "velocity": 82,
      "chip": "ym2612"
    },
    {
      "channel": 2,
      "note": 75,
      "start": 34.3395,
      "duration": 0.0071,
      "velocity": 99,
      "chip": "ym2612"
    },
    {
      "channel": 3,
      "note": 72,
      "start": 34.3402,
      "duration": 0.0068,
      "velocity": 99,
      "chip": "ym2612"
    },
    {
      "channel": 2,
      "note": 74,
      "start": 34.3497,
      "duration": 0.0031,
      "velocity": 99,
      "chip": "ym2612"
    },
    {
      "channel": 3,
      "note": 71,
      "start": 34.3504,
      "duration": 0.0028,
      "velocity": 99,
      "chip": "ym2612"
    },
    {
      "channel": 2,
      "note": 73,
      "start": 34.3559,
      "duration": 0.003,
      "velocity": 99,
      "chip": "ym2612"
    },
    {
      "channel": 3,
      "note": 69,
      "start": 34.3566,
      "duration": 0.0027,
      "velocity": 99,
      "chip": "ym2612"
    },
    {
      "channel": 1,
      "note": 57,
      "start": 34.3616,
      "duration": 0.5139,
      "velocity": 82,
      "chip": "ym2612"
    },
    {
      "channel": 2,
      "note": 72,
      "start": 34.3622,
      "duration": 0.4803,
      "velocity": 99,
      "chip": "ym2612"
    },
    {
      "channel": 3,
      "note": 68,
      "start": 34.3628,
      "duration": 0.48,
      "velocity": 99,
      "chip": "ym2612"
    },
    {
      "channel": 0,
      "note": 79,
      "start": 34.4765,
      "duration": 0.0354,
      "velocity": 98,
      "chip": "ym2612"
    },
    {
      "channel": 4,
      "note": 88,
      "start": 34.4781,
      "duration": 0.0354,
      "velocity": 98,
      "chip": "ym2612"
    },
    {
      "channel": 0,
      "note": 84,
      "start": 34.5122,
      "duration": 0.0354,
      "velocity": 98,
      "chip": "ym2612"
    },
    {
      "channel": 4,
      "note": 76,
      "start": 34.5138,
      "duration": 0.0352,
      "velocity": 98,
      "chip": "ym2612"
    },
    {
      "channel": 0,
      "note": 88,
      "start": 34.5477,
      "duration": 0.0354,
      "velocity": 98,
      "chip": "ym2612"
    },
    {
      "channel": 4,
      "note": 79,
      "start": 34.5493,
      "duration": 0.0353,
      "velocity": 98,
      "chip": "ym2612"
    },
    {
      "channel": 0,
      "note": 91,
      "start": 34.5833,
      "duration": 0.0529,
      "velocity": 98,
      "chip": "ym2612"
    },
    {
      "channel": 4,
      "note": 84,
      "start": 34.5849,
      "duration": 0.0729,
      "velocity": 98,
      "chip": "ym2612"
    },
    {
      "channel": 0,
      "note": 91,
      "start": 34.6365,
      "duration": 0.006,
      "velocity": 98,
      "chip": "ym2612"
    },
    {
      "channel": 0,
      "note": 90,
      "start": 34.6428,
      "duration": 0.0061,
      "velocity": 98,
      "chip": "ym2612"
    },
    {
      "channel": 0,
      "note": 89,
      "start": 34.6492,
      "duration": 0.0071,
      "velocity": 98,
      "chip": "ym2612"
    },
    {
      "channel": 0,
      "note": 88,
      "start": 34.6566,
      "duration": 0.0128,
      "velocity": 98,
      "chip": "ym2612"
    },
    {
      "channel": 4,
      "note": 84,
      "start": 34.6581,
      "duration": 0.0089,
      "velocity": 98,
      "chip": "ym2612"
    },
    {
      "channel": 4,
      "note": 84,
      "start": 34.6673,
      "duration": 0.0091,
      "velocity": 98,
      "chip": "ym2612"
    },
    {
      "channel": 0,
      "note": 89,
      "start": 34.6697,
      "duration": 0.0122,
      "velocity": 98,
      "chip": "ym2612"
    },
    {
      "channel": 4,
      "note": 86,
      "start": 34.6768,
      "duration": 0.0094,
      "velocity": 98,
      "chip": "ym2612"
    },
    {
      "channel": 0,
      "note": 88,
      "start": 34.6821,
      "duration": 0.0119,
      "velocity": 98,
      "chip": "ym2612"
    },
    {
      "channel": 4,
      "note": 84,
      "start": 34.6865,
      "duration": 0.009,
      "velocity": 98,
      "chip": "ym2612"
    },
    {
      "channel": 0,
      "note": 89,
      "start": 34.6943,
      "duration": 0.0129,
      "velocity": 98,
      "chip": "ym2612"
    },
    {
      "channel": 4,
      "note": 86,
      "start": 34.6959,
      "duration": 0.0088,
      "velocity": 98,
      "chip": "ym2612"
    },
    {
      "channel": 4,
      "note": 84,
      "start": 34.705,
      "duration": 0.0093,
      "velocity": 98,
      "chip": "ym2612"
    },
    {
      "channel": 0,
      "note": 88,
      "start": 34.7074,
      "duration": 0.0121,
      "velocity": 98,
      "chip": "ym2612"
    },
    {
      "channel": 4,
      "note": 86,
      "start": 34.7146,
      "duration": 0.0091,
      "velocity": 98,
      "chip": "ym2612"
    },
    {
      "channel": 0,
      "note": 89,
      "start": 34.7197,
      "duration": 0.0136,
      "velocity": 98,
      "chip": "ym2612"
    },
    {
      "channel": 4,
      "note": 84,
      "start": 34.7241,
      "duration": 0.0107,
      "velocity": 98,
      "chip": "ym2612"
    },
    {
      "channel": 0,
      "note": 88,
      "start": 34.7335,
      "duration": 0.0126,
      "velocity": 98,
      "chip": "ym2612"
    },
    {
      "channel": 4,
      "note": 86,
      "start": 34.7351,
      "duration": 0.0088,
      "velocity": 98,
      "chip": "ym2612"
    },
    {
      "channel": 4,
      "note": 84,
      "start": 34.7443,
      "duration": 0.0087,
      "velocity": 98,
      "chip": "ym2612"
    },
    {
      "channel": 0,
      "note": 89,
      "start": 34.7464,
      "duration": 0.0117,
      "velocity": 98,
      "chip": "ym2612"
    },
    {
      "channel": 4,
      "note": 86,
      "start": 34.7532,
      "duration": 0.009,
      "velocity": 98,
      "chip": "ym2612"
    },
    {
      "channel": 0,
      "note": 88,
      "start": 34.7583,
      "duration": 0.0114,
      "velocity": 98,
      "chip": "ym2612"
    },
    {
      "channel": 4,
      "note": 84,
      "start": 34.7626,
      "duration": 0.0086,
      "velocity": 98,
      "chip": "ym2612"
    },
    {
      "channel": 0,
      "note": 89,
      "start": 34.7699,
      "duration": 0.0127,
      "velocity": 98,
      "chip": "ym2612"
    },
    {
      "channel": 4,
      "note": 86,
      "start": 34.7715,
      "duration": 0.0089,
      "velocity": 98,
      "chip": "ym2612"
    },
    {
      "channel": 4,
      "note": 84,
      "start": 34.7807,
      "duration": 0.0088,
      "velocity": 98,
      "chip": "ym2612"
    },
    {
      "channel": 0,
      "note": 88,
      "start": 34.7829,
      "duration": 0.0118,
      "velocity": 98,
      "chip": "ym2612"
    },
    {
      "channel": 4,
      "note": 86,
      "start": 34.7898,
      "duration": 0.009,
      "velocity": 98,
      "chip": "ym2612"
    },
    {
      "channel": 0,
      "note": 89,
      "start": 34.7949,
      "duration": 0.0116,
      "velocity": 98,
      "chip": "ym2612"
    },
    {
      "channel": 4,
      "note": 84,
      "start": 34.7991,
      "duration": 0.0089,
      "velocity": 98,
      "chip": "ym2612"
    },
    {
      "channel": 0,
      "note": 88,
      "start": 34.8068,
      "duration": 0.0124,
      "velocity": 98,
      "chip": "ym2612"
    },
    {
      "channel": 4,
      "note": 86,
      "start": 34.8083,
      "duration": 0.0086,
      "velocity": 98,
      "chip": "ym2612"
    },
    {
      "channel": 4,
      "note": 84,
      "start": 34.8173,
      "duration": 0.0103,
      "velocity": 98,
      "chip": "ym2612"
    },
    {
      "channel": 0,
      "note": 89,
      "start": 34.8195,
      "duration": 0.0134,
      "velocity": 98,
      "chip": "ym2612"
    },
    {
      "channel": 4,
      "note": 86,
      "start": 34.828,
      "duration": 0.0091,
      "velocity": 98,
      "chip": "ym2612"
    },
    {
      "channel": 0,
      "note": 88,
      "start": 34.8331,
      "duration": 0.0115,
      "velocity": 98,
      "chip": "ym2612"
    },
    {
      "channel": 4,
      "note": 84,
      "start": 34.8374,
      "duration": 0.0089,
      "velocity": 98,
      "chip": "ym2612"
    },
    {
      "channel": 0,
      "note": 89,
      "start": 34.8449,
      "duration": 0.0124,
      "velocity": 98,
      "chip": "ym2612"
    },
    {
      "channel": 4,
      "note": 86,
      "start": 34.8466,
      "duration": 0.0084,
      "velocity": 98,
      "chip": "ym2612"
    },
    {
      "channel": 4,
      "note": 84,
      "start": 34.8554,
      "duration": 0.0085,
      "velocity": 98,
      "chip": "ym2612"
    },
    {
      "channel": 0,
      "note": 88,
      "start": 34.8575,
      "duration": 0.0116,
      "velocity": 98,
      "chip": "ym2612"
    },
    {
      "channel": 4,
      "note": 86,
      "start": 34.8642,
      "duration": 0.0088,
      "velocity": 98,
      "chip": "ym2612"
    },
    {
      "channel": 0,
      "note": 89,
      "start": 34.8694,
      "duration": 0.0112,
      "velocity": 98,
      "chip": "ym2612"
    },
    {
      "channel": 4,
      "note": 84,
      "start": 34.8734,
      "duration": 0.0094,
      "velocity": 98,
      "chip": "ym2612"
    },
    {
      "channel": 1,
      "note": 55,
      "start": 34.8812,
      "duration": 0.0469,
      "velocity": 82,
      "chip": "ym2612"
    },
    {
      "channel": 2,
      "note": 70,
      "start": 34.8817,
      "duration": 0.0143,
      "velocity": 99,
      "chip": "ym2612"
    },
    {
      "channel": 3,
      "note": 67,
      "start": 34.8824,
      "duration": 0.0139,
      "velocity": 99,
      "chip": "ym2612"
    },
    {
      "channel": 2,
      "note": 74,
      "start": 34.9856,
      "duration": 0.0137,
      "velocity": 99,
      "chip": "ym2612"
    },
    {
      "channel": 3,
      "note": 65,
      "start": 34.9863,
      "duration": 0.0133,
      "velocity": 99,
      "chip": "ym2612"
    },
    {
      "channel": 1,
      "note": 55,
      "start": 35.002,
      "duration": 0.0469,
      "velocity": 82,
      "chip": "ym2612"
    },
    {
      "channel": 2,
      "note": 81,
      "start": 35.0025,
      "duration": 0.2401,
      "velocity": 99,
      "chip": "ym2612"
    },
    {
      "channel": 3,
      "note": 70,
      "start": 35.0032,
      "duration": 0.2398,
      "velocity": 99,
      "chip": "ym2612"
    },
    {
      "channel": 1,
      "note": 53,
      "start": 35.1228,
      "duration": 0.0466,
      "velocity": 82,
      "chip": "ym2612"
    },
    {
      "channel": 1,
      "note": 53,
      "start": 35.2454,
      "duration": 0.0468,
      "velocity": 82,
      "chip": "ym2612"
    },
    {
      "channel": 2,
      "note": 77,
      "start": 35.246,
      "duration": 0.1539,
      "velocity": 99,
      "chip": "ym2612"
    },
    {
      "channel": 3,
      "note": 77,
      "start": 35.2466,
      "duration": 0.1536,
      "velocity": 99,
      "chip": "ym2612"
    },
    {
      "channel": 1,
      "note": 52,
      "start": 35.4189,
      "duration": 0.0501,
      "velocity": 82,
      "chip": "ym2612"
    },
    {
      "channel": 2,
      "note": 80,
      "start": 35.4194,
      "duration": 0.0173,
      "velocity": 99,
      "chip": "ym2612"
    },
    {
      "channel": 3,
      "note": 74,
      "start": 35.4201,
      "duration": 0.017,
      "velocity": 99,
      "chip": "ym2612"
    },
    {
      "channel": 2,
      "note": 76,
      "start": 35.5074,
      "duration": 0.017,
      "velocity": 99,
      "chip": "ym2612"
    },
    {
      "channel": 3,
      "note": 76,
      "start": 35.5081,
      "duration": 0.0166,
      "velocity": 99,
      "chip": "ym2612"
    },
    {
      "channel": 2,
      "note": 80,
      "start": 35.5273,
      "duration": 0.0138,
      "velocity": 99,
      "chip": "ym2612"
    },
    {
      "channel": 3,
      "note": 71,
      "start": 35.5279,
      "duration": 0.0134,
      "velocity": 99,
      "chip": "ym2612"
    },
    {
      "channel": 1,
      "note": 52,
      "start": 35.5437,
      "duration": 0.047,
      "velocity": 82,
      "chip": "ym2612"
    },
    {
      "channel": 2,
      "note": 83,
      "start": 35.5443,
      "duration": 0.2402,
      "velocity": 99,
      "chip": "ym2612"
    },
    {
      "channel": 3,
      "note": 76,
      "start": 35.5449,
      "duration": 0.24,
      "velocity": 99,
      "chip": "ym2612"
    },
    {
      "channel": 1,
      "note": 50,
      "start": 35.6647,
      "duration": 0.0467,
      "velocity": 82,
      "chip": "ym2612"
    },
    {
      "channel": 0,
      "note": 74,
      "start": 35.7871,
      "duration": 0.0073,
      "velocity": 98,
      "chip": "ym2612"
    },
    {
      "channel": 1,
      "note": 50,
      "start": 35.7876,
      "duration": 0.047,
      "velocity": 82,
      "chip": "ym2612"
    },
    {
      "channel": 2,
      "note": 86,
      "start": 35.7881,
      "duration": 0.1536,
      "velocity": 99,
      "chip": "ym2612"
    },
    {
      "channel": 3,
      "note": 80,
      "start": 35.7888,
      "duration": 0.1533,
      "velocity": 99,
      "chip": "ym2612"
    },
    {
      "channel": 0,
      "note": 76,
      "start": 35.7946,
      "duration": 0.0059,
      "velocity": 98,
      "chip": "ym2612"
    },
    {
      "channel": 0,
      "note": 77,
      "start": 35.8007,
      "duration": 0.0057,
      "velocity": 98,
      "chip": "ym2612"
    },
    {
      "channel": 0,
      "note": 79,
      "start": 35.8066,
      "duration": 0.0056,
      "velocity": 98,
      "chip": "ym2612"
    },
    {
      "channel": 0,
      "note": 81,
      "start": 35.8125,
      "duration": 0.0215,
      "velocity": 98,
      "chip": "ym2612"
    },
    {
      "channel": 0,
      "note": 82,
      "start": 35.8342,
      "duration": 0.044,
      "velocity": 98,
      "chip": "ym2612"
    },
    {
      "channel": 0,
      "note": 84,
      "start": 35.8785,
      "duration": 0.0059,
      "velocity": 98,
      "chip": "ym2612"
    },
    {
      "channel": 0,
      "note": 86,
      "start": 35.8846,
      "duration": 0.0059,
      "velocity": 98,
      "chip": "ym2612"
    },
    {
      "channel": 0,
      "note": 88,
      "start": 35.8907,
      "duration": 0.0057,
      "velocity": 98,
      "chip": "ym2612"
    },
    {
      "channel": 0,
      "note": 89,
      "start": 35.8966,
      "duration": 0.0068,
      "velocity": 98,
      "chip": "ym2612"
    },
    {
      "channel": 0,
      "note": 91,
      "start": 35.9036,
      "duration": 0.0566,
      "velocity": 98,
      "chip": "ym2612"
    },
    {
      "channel": 0,
      "note": 93,
      "start": 35.9605,
      "duration": 0.0238,
      "velocity": 98,
      "chip": "ym2612"
    },
    {
      "channel": 1,
      "note": 57,
      "start": 35.961,
      "duration": 0.0236,
      "velocity": 82,
      "chip": "ym2612"
    },
    {
      "channel": 2,
      "note": 73,
      "start": 35.9648,
      "duration": 0.02,
      "velocity": 104,
      "chip": "ym2612"
    },
    {
      "channel": 3,
      "note": 83,
      "start": 35.9701,
      "duration": 0.015,
      "velocity": 104,
      "chip": "ym2612"
    },
    {
      "channel": 4,
      "note": 86,
      "start": 35.971,
      "duration": 0.0146,
      "velocity": 98,
      "chip": "ym2612"
    },
    {
      "channel": 0,
      "note": 93,
      "start": 35.9899,
      "duration": 0.0122,
      "velocity": 98,
      "chip": "ym2612"
    },
    {
      "channel": 1,
      "note": 57,
      "start": 35.9904,
      "duration": 0.0119,
      "velocity": 82,
      "chip": "ym2612"
    },
    {
      "channel": 2,
      "note": 73,
      "start": 35.991,
      "duration": 0.0117,
      "velocity": 104,
      "chip": "ym2612"
    },
    {
      "channel": 3,
      "note": 69,
      "start": 35.9916,
      "duration": 0.0114,
      "velocity": 104,
      "chip": "ym2612"
    },
    {
      "channel": 4,
      "note": 85,
      "start": 35.9923,
      "duration": 0.011,
      "velocity": 98,
      "chip": "ym2612"
    },
    {
      "channel": 0,
      "note": 93,
      "start": 36.0091,
      "duration": 0.0121,
      "velocity": 98,
      "chip": "ym2612"
    },
    {
      "channel": 1,
      "note": 57,
      "start": 36.0096,
      "duration": 0.0118,
      "velocity": 82,
      "chip": "ym2612"
    },
    {
      "channel": 2,
      "note": 73,
      "start": 36.0102,
      "duration": 0.0116,
      "velocity": 104,
      "chip": "ym2612"
    },
    {
      "channel": 3,
      "note": 69,
      "start": 36.0108,
      "duration": 0.0113,
      "velocity": 104,
      "chip": "ym2612"
    },
    {
      "channel": 4,
      "note": 85,
      "start": 36.0115,
      "duration": 0.011,
      "velocity": 98,
      "chip": "ym2612"
    },
    {
      "channel": 0,
      "note": 93,
      "start": 36.0281,
      "duration": 0.0122,
      "velocity": 98,
      "chip": "ym2612"
    },
    {
      "channel": 1,
      "note": 57,
      "start": 36.0286,
      "duration": 0.012,
      "velocity": 82,
      "chip": "ym2612"
    },
    {
      "channel": 2,
      "note": 73,
      "start": 36.0292,
      "duration": 0.0117,
      "velocity": 104,
      "chip": "ym2612"
    },
    {
      "channel": 3,
      "note": 69,
      "start": 36.0298,
      "duration": 0.0114,
      "velocity": 104,
      "chip": "ym2612"
    },
    {
      "channel": 4,
      "note": 85,
      "start": 36.0305,
      "duration": 0.011,
      "velocity": 98,
      "chip": "ym2612"
    },
    {
      "channel": 0,
      "note": 93,
      "start": 36.0459,
      "duration": 0.0122,
      "velocity": 98,
      "chip": "ym2612"
    },
    {
      "channel": 1,
      "note": 57,
      "start": 36.0465,
      "duration": 0.012,
      "velocity": 82,
      "chip": "ym2612"
    },
    {
      "channel": 2,
      "note": 73,
      "start": 36.047,
      "duration": 0.0117,
      "velocity": 104,
      "chip": "ym2612"
    },
    {
      "channel": 3,
      "note": 69,
      "start": 36.0476,
      "duration": 0.0114,
      "velocity": 104,
      "chip": "ym2612"
    },
    {
      "channel": 4,
      "note": 85,
      "start": 36.0483,
      "duration": 0.0111,
      "velocity": 98,
      "chip": "ym2612"
    },
    {
      "channel": 0,
      "note": 93,
      "start": 36.3585,
      "duration": 0.0156,
      "velocity": 98,
      "chip": "ym2612"
    },
    {
      "channel": 1,
      "note": 57,
      "start": 36.359,
      "duration": 0.0154,
      "velocity": 82,
      "chip": "ym2612"
    },
    {
      "channel": 2,
      "note": 73,
      "start": 36.3595,
      "duration": 0.0151,
      "velocity": 104,
      "chip": "ym2612"
    },
    {
      "channel": 3,
      "note": 69,
      "start": 36.3602,
      "duration": 0.0148,
      "velocity": 104,
      "chip": "ym2612"
    },
    {
      "channel": 4,
      "note": 85,
      "start": 36.3609,
      "duration": 0.0145,
      "velocity": 98,
      "chip": "ym2612"
    },
    {
      "channel": 0,
      "note": 93,
      "start": 36.3812,
      "duration": 0.0122,
      "velocity": 98,
      "chip": "ym2612"
    },
    {
      "channel": 1,
      "note": 57,
      "start": 36.3817,
      "duration": 0.012,
      "velocity": 82,
      "chip": "ym2612"
    },
    {
      "channel": 2,
      "note": 73,
      "start": 36.3822,
      "duration": 0.0117,
      "velocity": 104,
      "chip": "ym2612"
    },
    {
      "channel": 3,
      "note": 69,
      "start": 36.3829,
      "duration": 0.0114,
      "velocity": 104,
      "chip": "ym2612"
    },
    {
      "channel": 4,
      "note": 85,
      "start": 36.3836,
      "duration": 0.011,
      "velocity": 98,
      "chip": "ym2612"
    },
    {
      "channel": 0,
      "note": 93,
      "start": 36.4002,
      "duration": 0.0122,
      "velocity": 98,
      "chip": "ym2612"
    },
    {
      "channel": 1,
      "note": 57,
      "start": 36.4008,
      "duration": 0.0119,
      "velocity": 82,
      "chip": "ym2612"
    },
    {
      "channel": 2,
      "note": 73,
      "start": 36.4013,
      "duration": 0.0117,
      "velocity": 104,
      "chip": "ym2612"
    },
    {
      "channel": 3,
      "note": 69,
      "start": 36.4019,
      "duration": 0.0114,
      "velocity": 104,
      "chip": "ym2612"
    },
    {
      "channel": 4,
      "note": 85,
      "start": 36.4026,
      "duration": 0.011,
      "velocity": 98,
      "chip": "ym2612"
    },
    {
      "channel": 0,
      "note": 93,
      "start": 36.4192,
      "duration": 0.0122,
      "velocity": 98,
      "chip": "ym2612"
    },
    {
      "channel": 1,
      "note": 57,
      "start": 36.4198,
      "duration": 0.012,
      "velocity": 82,
      "chip": "ym2612"
    },
    {
      "channel": 2,
      "note": 73,
      "start": 36.4203,
      "duration": 0.0117,
      "velocity": 104,
      "chip": "ym2612"
    },
    {
      "channel": 3,
      "note": 69,
      "start": 36.421,
      "duration": 0.0114,
      "velocity": 104,
      "chip": "ym2612"
    },
    {
      "channel": 4,
      "note": 85,
      "start": 36.4217,
      "duration": 0.0111,
      "velocity": 98,
      "chip": "ym2612"
    },
    {
      "channel": 0,
      "note": 93,
      "start": 36.437,
      "duration": 0.0122,
      "velocity": 98,
      "chip": "ym2612"
    },
    {
      "channel": 1,
      "note": 57,
      "start": 36.4376,
      "duration": 0.0119,
      "velocity": 82,
      "chip": "ym2612"
    },
    {
      "channel": 2,
      "note": 73,
      "start": 36.4381,
      "duration": 0.0117,
      "velocity": 104,
      "chip": "ym2612"
    },
    {
      "channel": 3,
      "note": 69,
      "start": 36.4388,
      "duration": 0.0113,
      "velocity": 104,
      "chip": "ym2612"
    },
    {
      "channel": 4,
      "note": 85,
      "start": 36.4395,
      "duration": 0.011,
      "velocity": 98,
      "chip": "ym2612"
    },
    {
      "channel": 0,
      "note": 94,
      "start": 36.7498,
      "duration": 0.0157,
      "velocity": 98,
      "chip": "ym2612"
    },
    {
      "channel": 1,
      "note": 58,
      "start": 36.7503,
      "duration": 0.0156,
      "velocity": 82,
      "chip": "ym2612"
    },
    {
      "channel": 2,
      "note": 74,
      "start": 36.7508,
      "duration": 0.0153,
      "velocity": 104,
      "chip": "ym2612"
    },
    {
      "channel": 3,
      "note": 69,
      "start": 36.7515,
      "duration": 0.015,
      "velocity": 104,
      "chip": "ym2612"
    },
    {
      "channel": 4,
      "note": 85,
      "start": 36.7522,
      "duration": 0.0146,
      "velocity": 98,
      "chip": "ym2612"
    },
    {
      "channel": 0,
      "note": 94,
      "start": 37.0657,
      "duration": 0.02,
      "velocity": 98,
      "chip": "ym2612"
    },
    {
      "channel": 1,
      "note": 58,
      "start": 37.0662,
      "duration": 0.2377,
      "velocity": 82,
      "chip": "ym2612"
    },
    {
      "channel": 2,
      "note": 74,
      "start": 37.0668,
      "duration": 0.1564,
      "velocity": 104,
      "chip": "ym2612"
    },
    {
      "channel": 3,
      "note": 65,
      "start": 37.0674,
      "duration": 0.2371,
      "velocity": 104,
      "chip": "ym2612"
    },
    {
      "channel": 4,
      "note": 86,
      "start": 37.0681,
      "duration": 0.0118,
      "velocity": 98,
      "chip": "ym2612"
    },
    {
      "channel": 4,
      "note": 86,
      "start": 37.0803,
      "duration": 0.0121,
      "velocity": 98,
      "chip": "ym2612"
    },
    {
      "channel": 0,
      "note": 95,
      "start": 37.086,
      "duration": 0.0115,
      "velocity": 98,
      "chip": "ym2612"
    },
    {
      "channel": 4,
      "note": 87,
      "start": 37.0927,
      "duration": 0.0088,
      "velocity": 98,
      "chip": "ym2612"
    },
    {
      "channel": 0,
      "note": 94,
      "start": 37.0977,
      "duration": 0.0117,
      "velocity": 98,
      "chip": "ym2612"
    },
    {
      "channel": 4,
      "note": 86,
      "start": 37.1019,
      "duration": 0.009,
      "velocity": 98,
      "chip": "ym2612"
    },
    {
      "channel": 0,
      "note": 95,
      "start": 37.1097,
      "duration": 0.016,
      "velocity": 98,
      "chip": "ym2612"
    },
    {
      "channel": 4,
      "note": 87,
      "start": 37.1112,
      "duration": 0.012,
      "velocity": 98,
      "chip": "ym2612"
    },
    {
      "channel": 4,
      "note": 86,
      "start": 37.1236,
      "duration": 0.0105,
      "velocity": 98,
      "chip": "ym2612"
    },
    {
      "channel": 0,
      "note": 94,
      "start": 37.1259,
      "duration": 0.0133,
      "velocity": 98,
      "chip": "ym2612"
    },
    {
      "channel": 4,
      "note": 87,
      "start": 37.1344,
      "duration": 0.0088,
      "velocity": 98,
      "chip": "ym2612"
    },
    {
      "channel": 0,
      "note": 95,
      "start": 37.1394,
      "duration": 0.0116,
      "velocity": 98,
      "chip": "ym2612"
    },
    {
      "channel": 4,
      "note": 86,
      "start": 37.1436,
      "duration": 0.0089,
      "velocity": 98,
      "chip": "ym2612"
    },
    {
      "channel": 0,
      "note": 94,
      "start": 37.1513,
      "duration": 0.0129,
      "velocity": 98,
      "chip": "ym2612"
    },
    {
      "channel": 4,
      "note": 87,
      "start": 37.1529,
      "duration": 0.0089,
      "velocity": 98,
      "chip": "ym2612"
    },
    {
      "channel": 4,
      "note": 86,
      "start": 37.1621,
      "duration": 0.0092,
      "velocity": 98,
      "chip": "ym2612"
    },
    {
      "channel": 0,
      "note": 95,
      "start": 37.1644,
      "duration": 0.012,
      "velocity": 98,
      "chip": "ym2612"
    },
    {
      "channel": 4,
      "note": 87,
      "start": 37.1715,
      "duration": 0.0095,
      "velocity": 98,
      "chip": "ym2612"
    },
    {
      "channel": 0,
      "note": 94,
      "start": 37.1767,
      "duration": 0.0138,
      "velocity": 98,
      "chip": "ym2612"
    },
    {
      "channel": 4,
      "note": 86,
      "start": 37.1813,
      "duration": 0.0107,
      "velocity": 98,
      "chip": "ym2612"
    },
    {
      "channel": 0,
      "note": 95,
      "start": 37.1908,
      "duration": 0.0129,
      "velocity": 98,
      "chip": "ym2612"
    },
    {
      "channel": 4,
      "note": 87,
      "start": 37.1924,
      "duration": 0.0088,
      "velocity": 98,
      "chip": "ym2612"
    },
    {
      "channel": 4,
      "note": 86,
      "start": 37.2015,
      "duration": 0.0091,
      "velocity": 98,
      "chip": "ym2612"
    },
    {
      "channel": 0,
      "note": 94,
      "start": 37.2039,
      "duration": 0.0121,
      "velocity": 98,
      "chip": "ym2612"
    },
    {
      "channel": 4,
      "note": 87,
      "start": 37.211,
      "duration": 0.0093,
      "velocity": 98,
      "chip": "ym2612"
    },
    {
      "channel": 0,
      "note": 95,
      "start": 37.2163,
      "duration": 0.0119,
      "velocity": 98,
      "chip": "ym2612"
    },
    {
      "channel": 4,
      "note": 86,
      "start": 37.2206,
      "duration": 0.0093,
      "velocity": 98,
      "chip": "ym2612"
    },
    {
      "channel": 0,
      "note": 94,
      "start": 37.2284,
      "duration": 0.0127,
      "velocity": 98,
      "chip": "ym2612"
    },
    {
      "channel": 2,
      "note": 70,
      "start": 37.2292,
      "duration": 0.0091,
      "velocity": 104,
      "chip": "ym2612"
    },
    {
      "channel": 4,
      "note": 87,
      "start": 37.2302,
      "duration": 0.0088,
      "velocity": 98,
      "chip": "ym2612"
    },
    {
      "channel": 4,
      "note": 86,
      "start": 37.2393,
      "duration": 0.009,
      "velocity": 98,
      "chip": "ym2612"
    },
    {
      "channel": 0,
      "note": 95,
      "start": 37.2414,
      "duration": 0.0154,
      "velocity": 98,
      "chip": "ym2612"
    },
    {
      "channel": 4,
      "note": 87,
      "start": 37.2486,
      "duration": 0.0124,
      "velocity": 98,
      "chip": "ym2612"
    },
    {
      "channel": 0,
      "note": 94,
      "start": 37.2571,
      "duration": 0.0113,
      "velocity": 98,
      "chip": "ym2612"
    },
    {
      "channel": 4,
      "note": 86,
      "start": 37.2613,
      "duration": 0.0086,
      "velocity": 98,
      "chip": "ym2612"
    },
    {
      "channel": 0,
      "note": 95,
      "start": 37.2686,
      "duration": 0.0125,
      "velocity": 98,
      "chip": "ym2612"
    },
    {
      "channel": 4,
      "note": 87,
      "start": 37.2702,
      "duration": 0.0088,
      "velocity": 98,
      "chip": "ym2612"
    },
    {
      "channel": 4,
      "note": 86,
      "start": 37.2793,
      "duration": 0.0095,
      "velocity": 98,
      "chip": "ym2612"
    },
    {
      "channel": 0,
      "note": 94,
      "start": 37.2814,
      "duration": 0.0159,
      "velocity": 98,
      "chip": "ym2612"
    },
    {
      "channel": 2,
      "note": 71,
      "start": 37.2881,
      "duration": 0.0161,
      "velocity": 104,
      "chip": "ym2612"
    },
    {
      "channel": 4,
      "note": 87,
      "start": 37.2892,
      "duration": 0.0124,
      "velocity": 98,
      "chip": "ym2612"
    },
    {
      "channel": 0,
      "note": 95,
      "start": 37.2976,
      "duration": 0.0116,
      "velocity": 98,
      "chip": "ym2612"
    },
    {
      "channel": 4,
      "note": 86,
      "start": 37.3019,
      "duration": 0.0095,
      "velocity": 98,
      "chip": "ym2612"
    },
    {
      "channel": 1,
      "note": 51,
      "start": 37.3099,
      "duration": 0.017,
      "velocity": 82,
      "chip": "ym2612"
    },
    {
      "channel": 2,
      "note": 71,
      "start": 37.3104,
      "duration": 0.2432,
      "velocity": 104,
      "chip": "ym2612"
    },
    {
      "channel": 3,
      "note": 65,
      "start": 37.311,
      "duration": 0.2429,
      "velocity": 104,
      "chip": "ym2612"
    },
    {
      "channel": 0,
      "note": 99,
      "start": 37.4135,
      "duration": 0.0034,
      "velocity": 98,
      "chip": "ym2612"
    },
    {
      "channel": 4,
      "note": 87,
      "start": 37.415,
      "duration": 0.0033,
      "velocity": 98,
      "chip": "ym2612"
    },
    {
      "channel": 0,
      "note": 101,
      "start": 37.4172,
      "duration": 0.0031,
      "velocity": 98,
      "chip": "ym2612"
    },
    {
      "channel": 4,
      "note": 87,
      "start": 37.4186,
      "duration": 0.003,
      "velocity": 98,
      "chip": "ym2612"
    },
    {
      "channel": 0,
      "note": 102,
      "start": 37.4205,
      "duration": 0.0031,
      "velocity": 98,
      "chip": "ym2612"
    },
    {
      "channel": 4,
      "note": 89,
      "start": 37.4219,
      "duration": 0.003,
      "velocity": 98,
      "chip": "ym2612"
    },
    {
      "channel": 0,
      "note": 104,
      "start": 37.4238,
      "duration": 0.0034,
      "velocity": 98,
      "chip": "ym2612"
    },
    {
      "channel": 4,
      "note": 90,
      "start": 37.4252,
      "duration": 0.0033,
      "velocity": 98,
      "chip": "ym2612"
    },
    {
      "channel": 0,
      "note": 106,
      "start": 37.4274,
      "duration": 0.0031,
      "velocity": 98,
      "chip": "ym2612"
    },
    {
      "channel": 4,
      "note": 92,
      "start": 37.4289,
      "duration": 0.0031,
      "velocity": 98,
      "chip": "ym2612"
    },
    {
      "channel": 0,
      "note": 108,
      "start": 37.4307,
      "duration": 0.0036,
      "velocity": 98,
      "chip": "ym2612"
    },
    {
      "channel": 4,
      "note": 94,
      "start": 37.4322,
      "duration": 0.0038,
      "velocity": 98,
      "chip": "ym2612"
    },
    {
      "channel": 0,
      "note": 110,
      "start": 37.4346,
      "duration": 0.0075,
      "velocity": 98,
      "chip": "ym2612"
    },
    {
      "channel": 1,
      "note": 51,
      "start": 37.4351,
      "duration": 0.021,
      "velocity": 82,
      "chip": "ym2612"
    },
    {
      "channel": 4,
      "note": 96,
      "start": 37.4364,
      "duration": 0.0071,
      "velocity": 98,
      "chip": "ym2612"
    },
    {
      "channel": 0,
      "note": 111,
      "start": 37.4423,
      "duration": 0.0134,
      "velocity": 98,
      "chip": "ym2612"
    },
    {
      "channel": 4,
      "note": 98,
      "start": 37.4438,
      "duration": 0.0132,
      "velocity": 98,
      "chip": "ym2612"
    },
    {
      "channel": 1,
      "note": 53,
      "start": 37.5588,
      "duration": 0.0166,
      "velocity": 82,
      "chip": "ym2612"
    },
    {
      "channel": 2,
      "note": 70,
      "start": 37.5594,
      "duration": 0.0111,
      "velocity": 104,
      "chip": "ym2612"
    },
    {
      "channel": 3,
      "note": 66,
      "start": 37.56,
      "duration": 0.0108,
      "velocity": 104,
      "chip": "ym2612"
    },
    {
      "channel": 1,
      "note": 53,
      "start": 37.6796,
      "duration": 0.0171,
      "velocity": 82,
      "chip": "ym2612"
    },
    {
      "channel": 2,
      "note": 70,
      "start": 37.6801,
      "duration": 0.0116,
      "velocity": 104,
      "chip": "ym2612"
    },
    {
      "channel": 3,
      "note": 68,
      "start": 37.6807,
      "duration": 0.0113,
      "velocity": 104,
      "chip": "ym2612"
    },
    {
      "channel": 2,
      "note": 75,
      "start": 37.7837,
      "duration": 0.0311,
      "velocity": 104,
      "chip": "ym2612"
    },
    {
      "channel": 3,
      "note": 68,
      "start": 37.7844,
      "duration": 0.0308,
      "velocity": 104,
      "chip": "ym2612"
    },
    {
      "channel": 1,
      "note": 54,
      "start": 37.8529,
      "duration": 0.0202,
      "velocity": 82,
      "chip": "ym2612"
    },
    {
      "channel": 2,
      "note": 75,
      "start": 37.8535,
      "duration": 0.2426,
      "velocity": 104,
      "chip": "ym2612"
    },
    {
      "channel": 3,
      "note": 68,
      "start": 37.8541,
      "duration": 0.2424,
      "velocity": 104,
      "chip": "ym2612"
    },
    {
      "channel": 0,
      "note": 99,
      "start": 37.9599,
      "duration": 0.0034,
      "velocity": 98,
      "chip": "ym2612"
    },
    {
      "channel": 4,
      "note": 99,
      "start": 37.9613,
      "duration": 0.0033,
      "velocity": 98,
      "chip": "ym2612"
    },
    {
      "channel": 0,
      "note": 101,
      "start": 37.9635,
      "duration": 0.0031,
      "velocity": 98,
      "chip": "ym2612"
    },
    {
      "channel": 4,
      "note": 87,
      "start": 37.9649,
      "duration": 0.0029,
      "velocity": 98,
      "chip": "ym2612"
    },
    {
      "channel": 0,
      "note": 102,
      "start": 37.9667,
      "duration": 0.0031,
      "velocity": 98,
      "chip": "ym2612"
    },
    {
      "channel": 4,
      "note": 89,
      "start": 37.9682,
      "duration": 0.003,
      "velocity": 98,
      "chip": "ym2612"
    },
    {
      "channel": 0,
      "note": 104,
      "start": 37.97,
      "duration": 0.0034,
      "velocity": 98,
      "chip": "ym2612"
    },
    {
      "channel": 4,
      "note": 90,
      "start": 37.9715,
      "duration": 0.0034,
      "velocity": 98,
      "chip": "ym2612"
    },
    {
      "channel": 0,
      "note": 106,
      "start": 37.9737,
      "duration": 0.0031,
      "velocity": 98,
      "chip": "ym2612"
    },
    {
      "channel": 4,
      "note": 92,
      "start": 37.9752,
      "duration": 0.003,
      "velocity": 98,
      "chip": "ym2612"
    },
    {
      "channel": 0,
      "note": 108,
      "start": 37.977,
      "duration": 0.0032,
      "velocity": 98,
      "chip": "ym2612"
    },
    {
      "channel": 4,
      "note": 94,
      "start": 37.9785,
      "duration": 0.0034,
      "velocity": 98,
      "chip": "ym2612"
    },
    {
      "channel": 0,
      "note": 110,
      "start": 37.9805,
      "duration": 0.0042,
      "velocity": 98,
      "chip": "ym2612"
    },
    {
      "channel": 1,
      "note": 54,
      "start": 37.981,
      "duration": 0.0176,
      "velocity": 82,
      "chip": "ym2612"
    },
    {
      "channel": 4,
      "note": 96,
      "start": 37.9823,
      "duration": 0.0038,
      "velocity": 98,
      "chip": "ym2612"
    },
    {
      "channel": 0,
      "note": 111,
      "start": 37.9848,
      "duration": 0.0134,
      "velocity": 98,
      "chip": "ym2612"
    },
    {
      "channel": 4,
      "note": 98,
      "start": 37.9864,
      "duration": 0.0132,
      "velocity": 98,
      "chip": "ym2612"
    },
    {
      "channel": 1,
      "note": 53,
      "start": 38.1013,
      "duration": 0.0166,
      "velocity": 82,
      "chip": "ym2612"
    },
    {
      "channel": 2,
      "note": 70,
      "start": 38.102,
      "duration": 0.0111,
      "velocity": 104,
      "chip": "ym2612"
    },
    {
      "channel": 3,
      "note": 70,
      "start": 38.1026,
      "duration": 0.0108,
      "velocity": 104,
      "chip": "ym2612"
    },
    {
      "channel": 1,
      "note": 53,
      "start": 38.2249,
      "duration": 0.0188,
      "velocity": 82,
      "chip": "ym2612"
    },
    {
      "channel": 2,
      "note": 70,
      "start": 38.2255,
      "duration": 0.0116,
      "velocity": 104,
      "chip": "ym2612"
    },
    {
      "channel": 3,
      "note": 68,
      "start": 38.2261,
      "duration": 0.0113,
      "velocity": 104,
      "chip": "ym2612"
    },
    {
      "channel": 2,
      "note": 77,
      "start": 38.2823,
      "duration": 0.0112,
      "velocity": 104,
      "chip": "ym2612"
    },
    {
      "channel": 3,
      "note": 68,
      "start": 38.2829,
      "duration": 0.0109,
      "velocity": 104,
      "chip": "ym2612"
    },
    {
      "channel": 1,
      "note": 51,
      "start": 38.299,
      "duration": 0.017,
      "velocity": 82,
      "chip": "ym2612"
    },
    {
      "channel": 2,
      "note": 78,
      "start": 38.2995,
      "duration": 0.0116,
      "velocity": 104,
      "chip": "ym2612"
    },
    {
      "channel": 3,
      "note": 68,
      "start": 38.3002,
      "duration": 0.0113,
      "velocity": 104,
      "chip": "ym2612"
    },
    {
      "channel": 1,
      "note": 51,
      "start": 38.4184,
      "duration": 0.0168,
      "velocity": 82,
      "chip": "ym2612"
    },
    {
      "channel": 2,
      "note": 82,
      "start": 38.4189,
      "duration": 0.2203,
      "velocity": 104,
      "chip": "ym2612"
    },
    {
      "channel": 3,
      "note": 66,
      "start": 38.4195,
      "duration": 0.2201,
      "velocity": 104,
      "chip": "ym2612"
    },
    {
      "channel": 1,
      "note": 49,
      "start": 38.5391,
      "duration": 0.0166,
      "velocity": 82,
      "chip": "ym2612"
    },
    {
      "channel": 1,
      "note": 49,
      "start": 38.6615,
      "duration": 0.0171,
      "velocity": 82,
      "chip": "ym2612"
    },
    {
      "channel": 2,
      "note": 82,
      "start": 38.6621,
      "duration": 0.135,
      "velocity": 104,
      "chip": "ym2612"
    },
    {
      "channel": 3,
      "note": 75,
      "start": 38.6627,
      "duration": 0.1347,
      "velocity": 104,
      "chip": "ym2612"
    },
    {
      "channel": 0,
      "note": 84,
      "start": 38.8348,
      "duration": 0.0206,
      "velocity": 98,
      "chip": "ym2612"
    },
    {
      "channel": 1,
      "note": 48,
      "start": 38.8353,
      "duration": 0.0205,
      "velocity": 82,
      "chip": "ym2612"
    },
    {
      "channel": 2,
      "note": 80,
      "start": 38.8359,
      "duration": 0.3693,
      "velocity": 104,
      "chip": "ym2612"
    },
    {
      "channel": 3,
      "note": 75,
      "start": 38.8365,
      "duration": 0.369,
      "velocity": 104,
      "chip": "ym2612"
    },
    {
      "channel": 4,
      "note": 99,
      "start": 38.8373,
      "duration": 0.0194,
      "velocity": 98,
      "chip": "ym2612"
    },
    {
      "channel": 0,
      "note": 80,
      "start": 38.9232,
      "duration": 0.0118,
      "velocity": 98,
      "chip": "ym2612"
    },
    {
      "channel": 4,
      "note": 80,
      "start": 38.9247,
      "duration": 0.0116,
      "velocity": 98,
      "chip": "ym2612"
    },
    {
      "channel": 0,
      "note": 80,
      "start": 38.9435,
      "duration": 0.0083,
      "velocity": 98,
      "chip": "ym2612"
    },
    {
      "channel": 4,
      "note": 75,
      "start": 38.9449,
      "duration": 0.0081,
      "velocity": 98,
      "chip": "ym2612"
    },
    {
      "channel": 0,
      "note": 80,
      "start": 38.9603,
      "duration": 0.0168,
      "velocity": 98,
      "chip": "ym2612"
    },
    {
      "channel": 1,
      "note": 48,
      "start": 38.9609,
      "duration": 0.0166,
      "velocity": 82,
      "chip": "ym2612"
    },
    {
      "channel": 4,
      "note": 75,
      "start": 38.9621,
      "duration": 0.0162,
      "velocity": 98,
      "chip": "ym2612"
    },
    {
      "channel": 0,
      "note": 84,
      "start": 39.0451,
      "duration": 0.0203,
      "velocity": 98,
      "chip": "ym2612"
    },
    {
      "channel": 4,
      "note": 75,
      "start": 39.0467,
      "duration": 0.0201,
      "velocity": 98,
      "chip": "ym2612"
    },
    {
      "channel": 0,
      "note": 87,
      "start": 39.0828,
      "duration": 0.0122,
      "velocity": 98,
      "chip": "ym2612"
    },
    {
      "channel": 1,
      "note": 56,
      "start": 39.0834,
      "duration": 0.0176,
      "velocity": 82,
      "chip": "ym2612"
    },
    {
      "channel": 4,
      "note": 80,
      "start": 39.0846,
      "duration": 0.0083,
      "velocity": 98,
      "chip": "ym2612"
    },
    {
      "channel": 4,
      "note": 84,
      "start": 39.0933,
      "duration": 0.0086,
      "velocity": 98,
      "chip": "ym2612"
    },
    {
      "channel": 0,
      "note": 89,
      "start": 39.0952,
      "duration": 0.0113,
      "velocity": 98,
      "chip": "ym2612"
    },
    {
      "channel": 4,
      "note": 85,
      "start": 39.1022,
      "duration": 0.0097,
      "velocity": 98,
      "chip": "ym2612"
    },
    {
      "channel": 0,
      "note": 87,
      "start": 39.1068,
      "duration": 0.0609,
      "velocity": 98,
      "chip": "ym2612"
    },
    {
      "channel": 4,
      "note": 84,
      "start": 39.1122,
      "duration": 0.0568,
      "velocity": 98,
      "chip": "ym2612"
    },
    {
      "channel": 0,
      "note": 89,
      "start": 39.1679,
      "duration": 0.0158,
      "velocity": 98,
      "chip": "ym2612"
    },
    {
      "channel": 4,
      "note": 85,
      "start": 39.1694,
      "duration": 0.0119,
      "velocity": 98,
      "chip": "ym2612"
    },
    {
      "channel": 4,
      "note": 84,
      "start": 39.1816,
      "duration": 0.0104,
      "velocity": 98,
      "chip": "ym2612"
    },
    {
      "channel": 0,
      "note": 87,
      "start": 39.1839,
      "duration": 0.013,
      "velocity": 98,
      "chip": "ym2612"
    },
    {
      "channel": 4,
      "note": 85,
      "start": 39.1923,
      "duration": 0.0101,
      "velocity": 98,
      "chip": "ym2612"
    },
    {
      "channel": 0,
      "note": 89,
      "start": 39.1972,
      "duration": 0.0146,
      "velocity": 98,
      "chip": "ym2612"
    },
    {
      "channel": 4,
      "note": 84,
      "start": 39.2027,
      "duration": 0.0112,
      "velocity": 98,
      "chip": "ym2612"
    },
    {
      "channel": 0,
      "note": 87,
      "start": 39.2121,
      "duration": 0.0124,
      "velocity": 98,
      "chip": "ym2612"
    },
    {
      "channel": 1,
      "note": 56,
      "start": 39.2126,
      "duration": 0.0151,
      "velocity": 82,
      "chip": "ym2612"
    },
    {
      "channel": 2,
      "note": 75,
      "start": 39.2132,
      "duration": 0.0121,
      "velocity": 104,
      "chip": "ym2612"
    },
    {
      "channel": 4,
      "note": 85,
      "start": 39.2143,
      "duration": 0.0082,
      "velocity": 98,
      "chip": "ym2612"
    },
    {
      "channel": 4,
      "note": 84,
      "start": 39.2229,
      "duration": 0.0093,
      "velocity": 98,
      "chip": "ym2612"
    },
    {
      "channel": 0,
      "note": 89,
      "start": 39.2248,
      "duration": 0.0124,
      "velocity": 98,
      "chip": "ym2612"
    },
    {
      "channel": 4,
      "note": 85,
      "start": 39.2325,
      "duration": 0.0086,
      "velocity": 98,
      "chip": "ym2612"
    },
    {
      "channel": 0,
      "note": 87,
      "start": 39.2374,
      "duration": 0.0128,
      "velocity": 98,
      "chip": "ym2612"
    },
    {
      "channel": 4,
      "note": 84,
      "start": 39.2415,
      "duration": 0.0102,
      "velocity": 98,
      "chip": "ym2612"
    },
    {
      "channel": 0,
      "note": 89,
      "start": 39.2505,
      "duration": 0.0115,
      "velocity": 98,
      "chip": "ym2612"
    },
    {
      "channel": 4,
      "note": 86,
      "start": 39.252,
      "duration": 0.008,
      "velocity": 98,
      "chip": "ym2612"
    },
    {
      "channel": 4,
      "note": 84,
      "start": 39.2603,
      "duration": 0.0108,
      "velocity": 98,
      "chip": "ym2612"
    },
    {
      "channel": 0,
      "note": 87,
      "start": 39.2622,
      "duration": 0.0137,
      "velocity": 98,
      "chip": "ym2612"
    },
    {
      "channel": 2,
      "note": 77,
      "start": 39.27,
      "duration": 0.0124,
      "velocity": 104,
      "chip": "ym2612"
    },
    {
      "channel": 3,
      "note": 75,
      "start": 39.2706,
      "duration": 0.012,
      "velocity": 104,
      "chip": "ym2612"
    },
    {
      "channel": 4,
      "note": 85,
      "start": 39.2714,
      "duration": 0.0084,
      "velocity": 98,
      "chip": "ym2612"
    },
    {
      "channel": 0,
      "note": 89,
      "start": 39.2761,
      "duration": 0.0111,
      "velocity": 98,
      "chip": "ym2612"
    },
    {
      "channel": 4,
      "note": 84,
      "start": 39.2801,
      "duration": 0.0094,
      "velocity": 98,
      "chip": "ym2612"
    },
    {
      "channel": 1,
      "note": 59,
      "start": 39.2878,
      "duration": 0.0144,
      "velocity": 82,
      "chip": "ym2612"
    },
    {
      "channel": 2,
      "note": 78,
      "start": 39.2884,
      "duration": 0.009,
      "velocity": 104,
      "chip": "ym2612"
    },
    {
      "channel": 3,
      "note": 75,
      "start": 39.289,
      "duration": 0.0087,
      "velocity": 104,
      "chip": "ym2612"
    },
    {
      "channel": 2,
      "note": 75,
      "start": 39.3922,
      "duration": 0.011,
      "velocity": 104,
      "chip": "ym2612"
    },
    {
      "channel": 3,
      "note": 75,
      "start": 39.3929,
      "duration": 0.0107,
      "velocity": 104,
      "chip": "ym2612"
    },
    {
      "channel": 1,
      "note": 59,
      "start": 39.4085,
      "duration": 0.0168,
      "velocity": 82,
      "chip": "ym2612"
    },
    {
      "channel": 2,
      "note": 75,
      "start": 39.409,
      "duration": 0.2362,
      "velocity": 104,
      "chip": "ym2612"
    },
    {
      "channel": 3,
      "note": 66,
      "start": 39.4097,
      "duration": 0.2359,
      "velocity": 104,
      "chip": "ym2612"
    },
    {
      "channel": 0,
      "note": 90,
      "start": 39.5289,
      "duration": 0.0169,
      "velocity": 98,
      "chip": "ym2612"
    },
    {
      "channel": 1,
      "note": 59,
      "start": 39.5294,
      "duration": 0.0167,
      "velocity": 82,
      "chip": "ym2612"
    },
    {
      "channel": 4,
      "note": 85,
      "start": 39.5307,
      "duration": 0.0164,
      "velocity": 98,
      "chip": "ym2612"
    },
    {
      "channel": 0,
      "note": 87,
      "start": 39.6332,
      "duration": 0.017,
      "velocity": 98,
      "chip": "ym2612"
    },
    {
      "channel": 4,
      "note": 87,
      "start": 39.6347,
      "duration": 0.0179,
      "velocity": 98,
      "chip": "ym2612"
    },
    {
      "channel": 0,
      "note": 87,
      "start": 39.6505,
      "duration": 0.0127,
      "velocity": 98,
      "chip": "ym2612"
    },
    {
      "channel": 1,
      "note": 59,
      "start": 39.651,
      "duration": 0.0152,
      "velocity": 82,
      "chip": "ym2612"
    },
    {
      "channel": 2,
      "note": 78,
      "start": 39.6515,
      "duration": 0.1346,
      "velocity": 104,
      "chip": "ym2612"
    },
    {
      "channel": 3,
      "note": 66,
      "start": 39.6522,
      "duration": 0.1342,
      "velocity": 104,
      "chip": "ym2612"
    },
    {
      "channel": 4,
      "note": 83,
      "start": 39.6529,
      "duration": 0.0083,
      "velocity": 98,
      "chip": "ym2612"
    },
    {
      "channel": 4,
      "note": 83,
      "start": 39.6616,
      "duration": 0.008,
      "velocity": 98,
      "chip": "ym2612"
    },
    {
      "channel": 0,
      "note": 89,
      "start": 39.6634,
      "duration": 0.0107,
      "velocity": 98,
      "chip": "ym2612"
    },
    {
      "channel": 4,
      "note": 85,
      "start": 39.6699,
      "duration": 0.0095,
      "velocity": 98,
      "chip": "ym2612"
    },
    {
      "channel": 0,
      "note": 87,
      "start": 39.6743,
      "duration": 0.0609,
      "velocity": 98,
      "chip": "ym2612"
    },
    {
      "channel": 4,
      "note": 83,
      "start": 39.6797,
      "duration": 0.0568,
      "velocity": 98,
      "chip": "ym2612"
    },
    {
      "channel": 0,
      "note": 89,
      "start": 39.7354,
      "duration": 0.0146,
      "velocity": 98,
      "chip": "ym2612"
    },
    {
      "channel": 4,
      "note": 85,
      "start": 39.7368,
      "duration": 0.0112,
      "velocity": 98,
      "chip": "ym2612"
    },
    {
      "channel": 4,
      "note": 83,
      "start": 39.7483,
      "duration": 0.0079,
      "velocity": 98,
      "chip": "ym2612"
    },
    {
      "channel": 0,
      "note": 87,
      "start": 39.7502,
      "duration": 0.0105,
      "velocity": 98,
      "chip": "ym2612"
    },
    {
      "channel": 4,
      "note": 85,
      "start": 39.7566,
      "duration": 0.0112,
      "velocity": 98,
      "chip": "ym2612"
    },
    {
      "channel": 0,
      "note": 89,
      "start": 39.7609,
      "duration": 0.0626,
      "velocity": 98,
      "chip": "ym2612"
    },
    {
      "channel": 4,
      "note": 83,
      "start": 39.7681,
      "duration": 0.0577,
      "velocity": 98,
      "chip": "ym2612"
    },
    {
      "channel": 1,
      "note": 58,
      "start": 39.8241,
      "duration": 0.0201,
      "velocity": 82,
      "chip": "ym2612"
    },
    {
      "channel": 2,
      "note": 80,
      "start": 39.8247,
      "duration": 0.0147,
      "velocity": 104,
      "chip": "ym2612"
    },
    {
      "channel": 3,
      "note": 75,
      "start": 39.8254,
      "duration": 0.0144,
      "velocity": 104,
      "chip": "ym2612"
    },
    {
      "channel": 2,
      "note": 77,
      "start": 39.9317,
      "duration": 0.011,
      "velocity": 104,
      "chip": "ym2612"
    },
    {
      "channel": 3,
      "note": 77,
      "start": 39.9323,
      "duration": 0.0107,
      "velocity": 104,
      "chip": "ym2612"
    },
    {
      "channel": 1,
      "note": 58,
      "start": 39.948,
      "duration": 0.0169,
      "velocity": 82,
      "chip": "ym2612"
    },
    {
      "channel": 2,
      "note": 77,
      "start": 39.9485,
      "duration": 0.2366,
      "velocity": 104,
      "chip": "ym2612"
    },
    {
      "channel": 3,
      "note": 70,
      "start": 39.9491,
      "duration": 0.2363,
      "velocity": 104,
      "chip": "ym2612"
    },
    {
      "channel": 0,
      "note": 92,
      "start": 40.0687,
      "duration": 0.0169,
      "velocity": 98,
      "chip": "ym2612"
    },
    {
      "channel": 1,
      "note": 58,
      "start": 40.0693,
      "duration": 0.0167,
      "velocity": 82,
      "chip": "ym2612"
    },
    {
      "channel": 4,
      "note": 85,
      "start": 40.0705,
      "duration": 0.0164,
      "velocity": 98,
      "chip": "ym2612"
    },
    {
      "channel": 0,
      "note": 89,
      "start": 40.173,
      "duration": 0.0196,
      "velocity": 98,
      "chip": "ym2612"
    },
    {
      "channel": 4,
      "note": 89,
      "start": 40.1746,
      "duration": 0.0205,
      "velocity": 98,
      "chip": "ym2612"
    },
    {
      "channel": 0,
      "note": 89,
      "start": 40.1929,
      "duration": 0.0127,
      "velocity": 98,
      "chip": "ym2612"
    },
    {
      "channel": 1,
      "note": 58,
      "start": 40.1934,
      "duration": 0.0184,
      "velocity": 82,
      "chip": "ym2612"
    },
    {
      "channel": 2,
      "note": 80,
      "start": 40.1939,
      "duration": 0.068,
      "velocity": 104,
      "chip": "ym2612"
    },
    {
      "channel": 3,
      "note": 70,
      "start": 40.1946,
      "duration": 0.0676,
      "velocity": 104,
      "chip": "ym2612"
    },
    {
      "channel": 4,
      "note": 85,
      "start": 40.1954,
      "duration": 0.0083,
      "velocity": 98,
      "chip": "ym2612"
    },
    {
      "channel": 4,
      "note": 85,
      "start": 40.204,
      "duration": 0.0087,
      "velocity": 98,
      "chip": "ym2612"
    },
    {
      "channel": 0,
      "note": 90,
      "start": 40.2058,
      "duration": 0.0116,
      "velocity": 98,
      "chip": "ym2612"
    },
    {
      "channel": 4,
      "note": 87,
      "start": 40.213,
      "duration": 0.0084,
      "velocity": 98,
      "chip": "ym2612"
    },
    {
      "channel": 0,
      "note": 89,
      "start": 40.2177,
      "duration": 0.013,
      "velocity": 98,
      "chip": "ym2612"
    },
    {
      "channel": 4,
      "note": 85,
      "start": 40.2217,
      "duration": 0.0104,
      "velocity": 98,
      "chip": "ym2612"
    },
    {
      "channel": 0,
      "note": 90,
      "start": 40.2309,
      "duration": 0.0113,
      "velocity": 98,
      "chip": "ym2612"
    },
    {
      "channel": 4,
      "note": 87,
      "start": 40.2324,
      "duration": 0.0079,
      "velocity": 98,
      "chip": "ym2612"
    },
    {
      "channel": 4,
      "note": 85,
      "start": 40.2407,
      "duration": 0.0101,
      "velocity": 98,
      "chip": "ym2612"
    },
    {
      "channel": 0,
      "note": 89,
      "start": 40.2424,
      "duration": 0.0132,
      "velocity": 98,
      "chip": "ym2612"
    },
    {
      "channel": 4,
      "note": 87,
      "start": 40.2512,
      "duration": 0.0083,
      "velocity": 98,
      "chip": "ym2612"
    },
    {
      "channel": 0,
      "note": 90,
      "start": 40.2558,
      "duration": 0.011,
      "velocity": 98,
      "chip": "ym2612"
    },
    {
      "channel": 4,
      "note": 85,
      "start": 40.2598,
      "duration": 0.0092,
      "velocity": 98,
      "chip": "ym2612"
    },
    {
      "channel": 1,
      "note": 57,
      "start": 40.2674,
      "duration": 0.0173,
      "velocity": 82,
      "chip": "ym2612"
    },
    {
      "channel": 2,
      "note": 78,
      "start": 40.268,
      "duration": 0.0116,
      "velocity": 104,
      "chip": "ym2612"
    },
    {
      "channel": 3,
      "note": 77,
      "start": 40.2686,
      "duration": 0.0113,
      "velocity": 104,
      "chip": "ym2612"
    },
    {
      "channel": 1,
      "note": 57,
      "start": 40.3909,
      "duration": 0.0169,
      "velocity": 82,
      "chip": "ym2612"
    },
    {
      "channel": 2,
      "note": 81,
      "start": 40.3914,
      "duration": 0.239,
      "velocity": 104,
      "chip": "ym2612"
    },
    {
      "channel": 3,
      "note": 75,
      "start": 40.392,
      "duration": 0.2388,
      "velocity": 104,
      "chip": "ym2612"
    },
    {
      "channel": 0,
      "note": 93,
      "start": 40.5113,
      "duration": 0.017,
      "velocity": 98,
      "chip": "ym2612"
    },
    {
      "channel": 1,
      "note": 53,
      "start": 40.5119,
      "duration": 0.0168,
      "velocity": 82,
      "chip": "ym2612"
    },
    {
      "channel": 4,
      "note": 87,
      "start": 40.5132,
      "duration": 0.0165,
      "velocity": 98,
      "chip": "ym2612"
    },
    {
      "channel": 0,
      "note": 90,
      "start": 40.6163,
      "duration": 0.0192,
      "velocity": 98,
      "chip": "ym2612"
    },
    {
      "channel": 4,
      "note": 90,
      "start": 40.6178,
      "duration": 0.02,
      "velocity": 98,
      "chip": "ym2612"
    },
    {
      "channel": 0,
      "note": 90,
      "start": 40.6357,
      "duration": 0.1731,
      "velocity": 98,
      "chip": "ym2612"
    },
    {
      "channel": 1,
      "note": 53,
      "start": 40.6362,
      "duration": 0.0145,
      "velocity": 82,
      "chip": "ym2612"
    },
    {
      "channel": 2,
      "note": 78,
      "start": 40.6368,
      "duration": 0.0976,
      "velocity": 104,
      "chip": "ym2612"
    },
    {
      "channel": 3,
      "note": 78,
      "start": 40.6374,
      "duration": 0.0972,
      "velocity": 104,
      "chip": "ym2612"
    },
    {
      "channel": 4,
      "note": 87,
      "start": 40.6382,
      "duration": 0.1728,
      "velocity": 98,
      "chip": "ym2612"
    },
    {
      "channel": 0,
      "note": 89,
      "start": 40.809,
      "duration": 0.0162,
      "velocity": 98,
      "chip": "ym2612"
    },
    {
      "channel": 2,
      "note": 77,
      "start": 40.8099,
      "duration": 0.3732,
      "velocity": 104,
      "chip": "ym2612"
    },
    {
      "channel": 3,
      "note": 72,
      "start": 40.8106,
      "duration": 0.3729,
      "velocity": 104,
      "chip": "ym2612"
    },
    {
      "channel": 4,
      "note": 87,
      "start": 40.8113,
      "duration": 0.0119,
      "velocity": 98,
      "chip": "ym2612"
    },
    {
      "channel": 1,
      "note": 58,
      "start": 40.8174,
      "duration": 0.0134,
      "velocity": 82,
      "chip": "ym2612"
    },
    {
      "channel": 4,
      "note": 86,
      "start": 40.8236,
      "duration": 0.008,
      "velocity": 98,
      "chip": "ym2612"
    },
    {
      "channel": 0,
      "note": 90,
      "start": 40.8254,
      "duration": 0.0105,
      "velocity": 98,
      "chip": "ym2612"
    },
    {
      "channel": 4,
      "note": 87,
      "start": 40.8319,
      "duration": 0.0094,
      "velocity": 98,
      "chip": "ym2612"
    },
    {
      "channel": 0,
      "note": 89,
      "start": 40.8362,
      "duration": 0.0609,
      "velocity": 98,
      "chip": "ym2612"
    },
    {
      "channel": 4,
      "note": 86,
      "start": 40.8416,
      "duration": 0.0569,
      "velocity": 98,
      "chip": "ym2612"
    },
    {
      "channel": 0,
      "note": 90,
      "start": 40.8974,
      "duration": 0.0151,
      "velocity": 98,
      "chip": "ym2612"
    },
    {
      "channel": 4,
      "note": 87,
      "start": 40.8989,
      "duration": 0.0114,
      "velocity": 98,
      "chip": "ym2612"
    },
    {
      "channel": 4,
      "note": 86,
      "start": 40.9106,
      "duration": 0.0082,
      "velocity": 98,
      "chip": "ym2612"
    },
    {
      "channel": 0,
      "note": 89,
      "start": 40.9128,
      "duration": 0.0108,
      "velocity": 98,
      "chip": "ym2612"
    },
    {
      "channel": 4,
      "note": 87,
      "start": 40.9192,
      "duration": 0.0082,
      "velocity": 98,
      "chip": "ym2612"
    },
    {
      "channel": 0,
      "note": 90,
      "start": 40.9238,
      "duration": 0.011,
      "velocity": 98,
      "chip": "ym2612"
    },
    {
      "channel": 4,
      "note": 86,
      "start": 40.9277,
      "duration": 0.0089,
      "velocity": 98,
      "chip": "ym2612"
    },
    {
      "channel": 0,
      "note": 89,
      "start": 40.9351,
      "duration": 0.0121,
      "velocity": 98,
      "chip": "ym2612"
    },
    {
      "channel": 1,
      "note": 60,
      "start": 40.9356,
      "duration": 0.0173,
      "velocity": 82,
      "chip": "ym2612"
    },
    {
      "channel": 4,
      "note": 87,
      "start": 40.9369,
      "duration": 0.0083,
      "velocity": 98,
      "chip": "ym2612"
    },
    {
      "channel": 4,
      "note": 86,
      "start": 40.9455,
      "duration": 0.0083,
      "velocity": 98,
      "chip": "ym2612"
    },
    {
      "channel": 0,
      "note": 90,
      "start": 40.9474,
      "duration": 0.0109,
      "velocity": 98,
      "chip": "ym2612"
    },
    {
      "channel": 4,
      "note": 87,
      "start": 40.9541,
      "duration": 0.01,
      "velocity": 98,
      "chip": "ym2612"
    },
    {
      "channel": 0,
      "note": 89,
      "start": 40.9586,
      "duration": 0.0612,
      "velocity": 98,
      "chip": "ym2612"
    },
    {
      "channel": 4,
      "note": 86,
      "start": 40.9644,
      "duration": 0.0568,
      "velocity": 98,
      "chip": "ym2612"
    },
    {
      "channel": 0,
      "note": 90,
      "start": 41.02,
      "duration": 0.0155,
      "velocity": 98,
      "chip": "ym2612"
    },
    {
      "channel": 4,
      "note": 87,
      "start": 41.0216,
      "duration": 0.0117,
      "velocity": 98,
      "chip": "ym2612"
    },
    {
      "channel": 4,
      "note": 86,
      "start": 41.0336,
      "duration": 0.0103,
      "velocity": 98,
      "chip": "ym2612"
    },
    {
      "channel": 0,
      "note": 89,
      "start": 41.0358,
      "duration": 0.0133,
      "velocity": 98,
      "chip": "ym2612"
    },
    {
      "channel": 4,
      "note": 87,
      "start": 41.0443,
      "duration": 0.0102,
      "velocity": 98,
      "chip": "ym2612"
    },
    {
      "channel": 0,
      "note": 90,
      "start": 41.0493,
      "duration": 0.0127,
      "velocity": 98,
      "chip": "ym2612"
    },
    {
      "channel": 4,
      "note": 86,
      "start": 41.0548,
      "duration": 0.009,
      "velocity": 98,
      "chip": "ym2612"
    },
    {
      "channel": 0,
      "note": 82,
      "start": 41.0622,
      "duration": 0.0064,
      "velocity": 98,
      "chip": "ym2612"
    },
    {
      "channel": 1,
      "note": 62,
      "start": 41.0628,
      "duration": 0.0188,
      "velocity": 82,
      "chip": "ym2612"
    },
    {
      "channel": 4,
      "note": 87,
      "start": 41.0641,
      "duration": 0.0061,
      "velocity": 98,
      "chip": "ym2612"
    },
    {
      "channel": 0,
      "note": 84,
      "start": 41.0689,
      "duration": 0.0058,
      "velocity": 98,
      "chip": "ym2612"
    },
    {
      "channel": 4,
      "note": 70,
      "start": 41.0705,
      "duration": 0.0057,
      "velocity": 98,
      "chip": "ym2612"
    },
    {
      "channel": 0,
      "note": 86,
      "start": 41.075,
      "duration": 0.0061,
      "velocity": 98,
      "chip": "ym2612"
    },
    {
      "channel": 4,
      "note": 72,
      "start": 41.0765,
      "duration": 0.006,
      "velocity": 98,
      "chip": "ym2612"
    },
    {
      "channel": 0,
      "note": 87,
      "start": 41.0813,
      "duration": 0.0058,
      "velocity": 98,
      "chip": "ym2612"
    },
    {
      "channel": 4,
      "note": 74,
      "start": 41.0829,
      "duration": 0.0058,
      "velocity": 98,
      "chip": "ym2612"
    },
    {
      "channel": 0,
      "note": 89,
      "start": 41.0873,
      "duration": 0.0217,
      "velocity": 98,
      "chip": "ym2612"
    },
    {
      "channel": 4,
      "note": 75,
      "start": 41.089,
      "duration": 0.0215,
      "velocity": 98,
      "chip": "ym2612"
    },
    {
      "channel": 0,
      "note": 91,
      "start": 41.1093,
      "duration": 0.0377,
      "velocity": 98,
      "chip": "ym2612"
    },
    {
      "channel": 4,
      "note": 77,
      "start": 41.1108,
      "duration": 0.0376,
      "velocity": 98,
      "chip": "ym2612"
    },
    {
      "channel": 0,
      "note": 93,
      "start": 41.1472,
      "duration": 0.0096,
      "velocity": 98,
      "chip": "ym2612"
    },
    {
      "channel": 4,
      "note": 79,
      "start": 41.1488,
      "duration": 0.0095,
      "velocity": 98,
      "chip": "ym2612"
    },
    {
      "channel": 0,
      "note": 94,
      "start": 41.1571,
      "duration": 0.0064,
      "velocity": 98,
      "chip": "ym2612"
    },
    {
      "channel": 4,
      "note": 81,
      "start": 41.1586,
      "duration": 0.0063,
      "velocity": 98,
      "chip": "ym2612"
    },
    {
      "channel": 0,
      "note": 96,
      "start": 41.1637,
      "duration": 0.0058,
      "velocity": 98,
      "chip": "ym2612"
    },
    {
      "channel": 4,
      "note": 82,
      "start": 41.1652,
      "duration": 0.0058,
      "velocity": 98,
      "chip": "ym2612"
    },
    {
      "channel": 0,
      "note": 98,
      "start": 41.1698,
      "duration": 0.0061,
      "velocity": 98,
      "chip": "ym2612"
    },
    {
      "channel": 4,
      "note": 84,
      "start": 41.1713,
      "duration": 0.006,
      "velocity": 98,
      "chip": "ym2612"
    },
    {
      "channel": 0,
      "note": 99,
      "start": 41.1761,
      "duration": 0.0062,
      "velocity": 98,
      "chip": "ym2612"
    },
    {
      "channel": 4,
      "note": 86,
      "start": 41.1776,
      "duration": 0.0062,
      "velocity": 98,
      "chip": "ym2612"
    },
    {
      "channel": 0,
      "note": 101,
      "start": 41.1824,
      "duration": 0.0077,
      "velocity": 98,
      "chip": "ym2612"
    },
    {
      "channel": 4,
      "note": 87,
      "start": 41.1842,
      "duration": 0.0079,
      "velocity": 98,
      "chip": "ym2612"
    },
    {
      "channel": 0,
      "note": 103,
      "start": 41.1904,
      "duration": 0.0071,
      "velocity": 98,
      "chip": "ym2612"
    },
    {
      "channel": 1,
      "note": 58,
      "start": 41.191,
      "duration": 0.0159,
      "velocity": 82,
      "chip": "ym2612"
    },
    {
      "channel": 4,
      "note": 89,
      "start": 41.1924,
      "duration": 0.0063,
      "velocity": 98,
      "chip": "ym2612"
    },
    {
      "channel": 0,
      "note": 105,
      "start": 41.1976,
      "duration": 0.0056,
      "velocity": 98,
      "chip": "ym2612"
    },
    {
      "channel": 4,
      "note": 91,
      "start": 41.1991,
      "duration": 0.0056,
      "velocity": 98,
      "chip": "ym2612"
    },
    {
      "channel": 0,
      "note": 106,
      "start": 41.2035,
      "duration": 0.0138,
      "velocity": 98,
      "chip": "ym2612"
    },
    {
      "channel": 4,
      "note": 93,
      "start": 41.205,
      "duration": 0.0135,
      "velocity": 98,
      "chip": "ym2612"
    },
    {
      "channel": 0,
      "note": 99,
      "start": 41.5067,
      "duration": 0.008,
      "velocity": 98,
      "chip": "ym2612"
    },
    {
      "channel": 2,
      "note": 75,
      "start": 41.5091,
      "duration": 0.0193,
      "velocity": 104,
      "chip": "ym2612"
    },
    {
      "channel": 3,
      "note": 74,
      "start": 41.512,
      "duration": 0.0167,
      "velocity": 104,
      "chip": "ym2612"
    },
    {
      "channel": 4,
      "note": 94,
      "start": 41.5128,
      "duration": 0.0033,
      "velocity": 98,
      "chip": "ym2612"
    },
    {
      "channel": 0,
      "note": 101,
      "start": 41.5149,
      "duration": 0.0031,
      "velocity": 98,
      "chip": "ym2612"
    },
    {
      "channel": 4,
      "note": 87,
      "start": 41.5164,
      "duration": 0.003,
      "velocity": 98,
      "chip": "ym2612"
    },
    {
      "channel": 0,
      "note": 102,
      "start": 41.5182,
      "duration": 0.0057,
      "velocity": 98,
      "chip": "ym2612"
    },
    {
      "channel": 4,
      "note": 89,
      "start": 41.5197,
      "duration": 0.0056,
      "velocity": 98,
      "chip": "ym2612"
    },
    {
      "channel": 0,
      "note": 104,
      "start": 41.5242,
      "duration": 0.0034,
      "velocity": 98,
      "chip": "ym2612"
    },
    {
      "channel": 4,
      "note": 90,
      "start": 41.5256,
      "duration": 0.0034,
      "velocity": 98,
      "chip": "ym2612"
    },
    {
      "channel": 0,
      "note": 106,
      "start": 41.5278,
      "duration": 0.0032,
      "velocity": 98,
      "chip": "ym2612"
    },
    {
      "channel": 4,
      "note": 92,
      "start": 41.5294,
      "duration": 0.0031,
      "velocity": 98,
      "chip": "ym2612"
    },
    {
      "channel": 0,
      "note": 108,
      "start": 41.5312,
      "duration": 0.0033,
      "velocity": 98,
      "chip": "ym2612"
    },
    {
      "channel": 4,
      "note": 94,
      "start": 41.5328,
      "duration": 0.0041,
      "velocity": 98,
      "chip": "ym2612"
    },
    {
      "channel": 0,
      "note": 110,
      "start": 41.5347,
      "duration": 0.0078,
      "velocity": 98,
      "chip": "ym2612"
    },
    {
      "channel": 1,
      "note": 51,
      "start": 41.5353,
      "duration": 0.0216,
      "velocity": 82,
      "chip": "ym2612"
    },
    {
      "channel": 2,
      "note": 75,
      "start": 41.5358,
      "duration": 0.0105,
      "velocity": 104,
      "chip": "ym2612"
    },
    {
      "channel": 3,
      "note": 70,
      "start": 41.5364,
      "duration": 0.0102,
      "velocity": 104,
      "chip": "ym2612"
    },
    {
      "channel": 4,
      "note": 96,
      "start": 41.5372,
      "duration": 0.0067,
      "velocity": 98,
      "chip": "ym2612"
    },
    {
      "channel": 0,
      "note": 111,
      "start": 41.5427,
      "duration": 0.0137,
      "velocity": 98,
      "chip": "ym2612"
    },
    {
      "channel": 4,
      "note": 98,
      "start": 41.5442,
      "duration": 0.0135,
      "velocity": 98,
      "chip": "ym2612"
    },
    {
      "channel": 2,
      "note": 74,
      "start": 42.0992,
      "duration": 0.0116,
      "velocity": 104,
      "chip": "ym2612"
    },
    {
      "channel": 3,
      "note": 70,
      "start": 42.0999,
      "duration": 0.0113,
      "velocity": 104,
      "chip": "ym2612"
    },
    {
      "channel": 1,
      "note": 53,
      "start": 42.1161,
      "duration": 0.0175,
      "velocity": 82,
      "chip": "ym2612"
    },
    {
      "channel": 2,
      "note": 74,
      "start": 42.1166,
      "duration": 0.0065,
      "velocity": 104,
      "chip": "ym2612"
    },
    {
      "channel": 3,
      "note": 68,
      "start": 42.1173,
      "duration": 0.0062,
      "velocity": 104,
      "chip": "ym2612"
    },
    {
      "channel": 0,
      "note": 99,
      "start": 42.6751,
      "duration": 0.0041,
      "velocity": 98,
      "chip": "ym2612"
    },
    {
      "channel": 2,
      "note": 75,
      "start": 42.6758,
      "duration": 0.0178,
      "velocity": 104,
      "chip": "ym2612"
    },
    {
      "channel": 3,
      "note": 68,
      "start": 42.6764,
      "duration": 0.0175,
      "velocity": 104,
      "chip": "ym2612"
    },
    {
      "channel": 4,
      "note": 99,
      "start": 42.6772,
      "duration": 0.0033,
      "velocity": 98,
      "chip": "ym2612"
    },
    {
      "channel": 0,
      "note": 101,
      "start": 42.6794,
      "duration": 0.0031,
      "velocity": 98,
      "chip": "ym2612"
    },
    {
      "channel": 4,
      "note": 87,
      "start": 42.6808,
      "duration": 0.003,
      "velocity": 98,
      "chip": "ym2612"
    },
    {
      "channel": 0,
      "note": 102,
      "start": 42.6827,
      "duration": 0.0031,
      "velocity": 98,
      "chip": "ym2612"
    },
    {
      "channel": 4,
      "note": 89,
      "start": 42.6841,
      "duration": 0.003,
      "velocity": 98,
      "chip": "ym2612"
    },
    {
      "channel": 0,
      "note": 104,
      "start": 42.686,
      "duration": 0.0068,
      "velocity": 98,
      "chip": "ym2612"
    },
    {
      "channel": 4,
      "note": 90,
      "start": 42.6875,
      "duration": 0.0069,
      "velocity": 98,
      "chip": "ym2612"
    },
    {
      "channel": 0,
      "note": 106,
      "start": 42.6931,
      "duration": 0.0032,
      "velocity": 98,
      "chip": "ym2612"
    },
    {
      "channel": 4,
      "note": 92,
      "start": 42.6947,
      "duration": 0.003,
      "velocity": 98,
      "chip": "ym2612"
    },
    {
      "channel": 0,
      "note": 108,
      "start": 42.6964,
      "duration": 0.0036,
      "velocity": 98,
      "chip": "ym2612"
    },
    {
      "channel": 4,
      "note": 94,
      "start": 42.698,
      "duration": 0.0045,
      "velocity": 98,
      "chip": "ym2612"
    },
    {
      "channel": 0,
      "note": 110,
      "start": 42.7003,
      "duration": 0.0078,
      "velocity": 98,
      "chip": "ym2612"
    },
    {
      "channel": 1,
      "note": 54,
      "start": 42.7008,
      "duration": 0.0214,
      "velocity": 82,
      "chip": "ym2612"
    },
    {
      "channel": 2,
      "note": 75,
      "start": 42.7014,
      "duration": 0.0104,
      "velocity": 104,
      "chip": "ym2612"
    },
    {
      "channel": 3,
      "note": 70,
      "start": 42.702,
      "duration": 0.0101,
      "velocity": 104,
      "chip": "ym2612"
    },
    {
      "channel": 4,
      "note": 96,
      "start": 42.7028,
      "duration": 0.0066,
      "velocity": 98,
      "chip": "ym2612"
    },
    {
      "channel": 0,
      "note": 111,
      "start": 42.7082,
      "duration": 0.0136,
      "velocity": 98,
      "chip": "ym2612"
    },
    {
      "channel": 4,
      "note": 98,
      "start": 42.7097,
      "duration": 0.0133,
      "velocity": 98,
      "chip": "ym2612"
    }
  ]
}