{
  "track_name": "12 - Danzen Dungeon",
  "duration_sec": 62.499,
  "sample_rate": 44100,
  "note_count": 903,
  "unique_pitches": 42,
  "pitch_range": 43,
  "avg_note_duration": 0.2953,
  "reconstruction_stats": {
    "notes_reconstructed": 903,
    "keyon_events": 903,
    "keyoff_events": 863,
    "orphan_keyons": 4,
    "unique_pitches": 42,
    "pitch_range": 43,
    "avg_duration_sec": 0.2953
  },
  "metadata": {
    "source": "D\\Dynamite Headdy\\12 - Danzen Dungeon.vgz"
  },
  "notes": [
    {
      "channel": 0,
      "note": 80,
      "start": 0.0,
      "duration": 0.3224,
      "velocity": 90,
      "chip": "ym2612"
    },
    {
      "channel": 1,
      "note": 73,
      "start": 0.0011,
      "duration": 0.3216,
      "velocity": 107,
      "chip": "ym2612"
    },
    {
      "channel": 2,
      "note": 83,
      "start": 0.0033,
      "duration": 0.0691,
      "velocity": 108,
      "chip": "ym2612"
    },
    {
      "channel": 4,
      "note": 80,
      "start": 0.0053,
      "duration": 0.3832,
      "velocity": 90,
      "chip": "ym2612"
    },
    {
      "channel": 2,
      "note": 85,
      "start": 0.0726,
      "duration": 0.1165,
      "velocity": 108,
      "chip": "ym2612"
    },
    {
      "channel": 3,
      "note": 83,
      "start": 0.0729,
      "duration": 0.1164,
      "velocity": 108,
      "chip": "ym2612"
    },
    {
      "channel": 2,
      "note": 83,
      "start": 0.1893,
      "duration": 0.1337,
      "velocity": 108,
      "chip": "ym2612"
    },
    {
      "channel": 3,
      "note": 85,
      "start": 0.1896,
      "duration": 0.1337,
      "velocity": 108,
      "chip": "ym2612"
    },
    {
      "channel": 0,
      "note": 79,
      "start": 0.3226,
      "duration": 0.4487,
      "velocity": 90,
      "chip": "ym2612"
    },
    {
      "channel": 1,
      "note": 72,
      "start": 0.3229,
      "duration": 0.4487,
      "velocity": 107,
      "chip": "ym2612"
    },
    {
      "channel": 2,
      "note": 85,
      "start": 0.3233,
      "duration": 0.4515,
      "velocity": 108,
      "chip": "ym2612"
    },
    {
      "channel": 3,
      "note": 83,
      "start": 0.3237,
      "duration": 0.0644,
      "velocity": 108,
      "chip": "ym2612"
    },
    {
      "channel": 3,
      "note": 85,
      "start": 0.3884,
      "duration": 0.4558,
      "velocity": 108,
      "chip": "ym2612"
    },
    {
      "channel": 4,
      "note": 79,
      "start": 0.3887,
      "duration": 0.3863,
      "velocity": 90,
      "chip": "ym2612"
    },
    {
      "channel": 0,
      "note": 78,
      "start": 0.7716,
      "duration": 0.7726,
      "velocity": 83,
      "chip": "ym2612"
    },
    {
      "channel": 1,
      "note": 71,
      "start": 0.7719,
      "duration": 0.3221,
      "velocity": 107,
      "chip": "ym2612"
    },
    {
      "channel": 2,
      "note": 83,
      "start": 0.7749,
      "duration": 0.069,
      "velocity": 108,
      "chip": "ym2612"
    },
    {
      "channel": 4,
      "note": 78,
      "start": 0.7751,
      "duration": 0.773,
      "velocity": 83,
      "chip": "ym2612"
    },
    {
      "channel": 2,
      "note": 85,
      "start": 0.8441,
      "duration": 0.1165,
      "velocity": 108,
      "chip": "ym2612"
    },
    {
      "channel": 3,
      "note": 83,
      "start": 0.8444,
      "duration": 0.1164,
      "velocity": 108,
      "chip": "ym2612"
    },
    {
      "channel": 2,
      "note": 83,
      "start": 0.9608,
      "duration": 0.1335,
      "velocity": 108,
      "chip": "ym2612"
    },
    {
      "channel": 3,
      "note": 85,
      "start": 0.9611,
      "duration": 0.1335,
      "velocity": 108,
      "chip": "ym2612"
    },
    {
      "channel": 1,
      "note": 70,
      "start": 1.0942,
      "duration": 0.4504,
      "velocity": 107,
      "chip": "ym2612"
    },
    {
      "channel": 2,
      "note": 85,
      "start": 1.0945,
      "duration": 0.4503,
      "velocity": 108,
      "chip": "ym2612"
    },
    {
      "channel": 3,
      "note": 83,
      "start": 1.0948,
      "duration": 0.0649,
      "velocity": 108,
      "chip": "ym2612"
    },
    {
      "channel": 3,
      "note": 85,
      "start": 1.16,
      "duration": 0.387,
      "velocity": 108,
      "chip": "ym2612"
    },
    {
      "channel": 0,
      "note": 78,
      "start": 1.5446,
      "duration": 0.7708,
      "velocity": 83,
      "chip": "ym2612"
    },
    {
      "channel": 1,
      "note": 69,
      "start": 1.5447,
      "duration": 0.3217,
      "velocity": 107,
      "chip": "ym2612"
    },
    {
      "channel": 2,
      "note": 83,
      "start": 1.5469,
      "duration": 0.0694,
      "velocity": 108,
      "chip": "ym2612"
    },
    {
      "channel": 4,
      "note": 78,
      "start": 1.5482,
      "duration": 0.7708,
      "velocity": 83,
      "chip": "ym2612"
    },
    {
      "channel": 2,
      "note": 85,
      "start": 1.6165,
      "duration": 0.1165,
      "velocity": 108,
      "chip": "ym2612"
    },
    {
      "channel": 3,
      "note": 83,
      "start": 1.6168,
      "duration": 0.1164,
      "velocity": 108,
      "chip": "ym2612"
    },
    {
      "channel": 2,
      "note": 83,
      "start": 1.7332,
      "duration": 0.1335,
      "velocity": 108,
      "chip": "ym2612"
    },
    {
      "channel": 3,
      "note": 85,
      "start": 1.7335,
      "duration": 0.1335,
      "velocity": 108,
      "chip": "ym2612"
    },
    {
      "channel": 1,
      "note": 70,
      "start": 1.8666,
      "duration": 0.4489,
      "velocity": 107,
      "chip": "ym2612"
    },
    {
      "channel": 2,
      "note": 85,
      "start": 1.8669,
      "duration": 0.4519,
      "velocity": 108,
      "chip": "ym2612"
    },
    {
      "channel": 3,
      "note": 83,
      "start": 1.8672,
      "duration": 0.0649,
      "velocity": 108,
      "chip": "ym2612"
    },
    {
      "channel": 3,
      "note": 85,
      "start": 1.9324,
      "duration": 0.456,
      "velocity": 108,
      "chip": "ym2612"
    },
    {
      "channel": 0,
      "note": 78,
      "start": 2.3154,
      "duration": 0.3239,
      "velocity": 90,
      "chip": "ym2612"
    },
    {
      "channel": 1,
      "note": 71,
      "start": 2.3157,
      "duration": 0.324,
      "velocity": 107,
      "chip": "ym2612"
    },
    {
      "channel": 2,
      "note": 83,
      "start": 2.3189,
      "duration": 0.0693,
      "velocity": 108,
      "chip": "ym2612"
    },
    {
      "channel": 4,
      "note": 78,
      "start": 2.3191,
      "duration": 0.3865,
      "velocity": 90,
      "chip": "ym2612"
    },
    {
      "channel": 2,
      "note": 85,
      "start": 2.3883,
      "duration": 0.1164,
      "velocity": 108,
      "chip": "ym2612"
    },
    {
      "channel": 3,
      "note": 83,
      "start": 2.3886,
      "duration": 0.1164,
      "velocity": 108,
      "chip": "ym2612"
    },
    {
      "channel": 2,
      "note": 83,
      "start": 2.505,
      "duration": 0.1349,
      "velocity": 108,
      "chip": "ym2612"
    },
    {
      "channel": 3,
      "note": 85,
      "start": 2.5053,
      "duration": 0.1347,
      "velocity": 108,
      "chip": "ym2612"
    },
    {
      "channel": 0,
      "note": 79,
      "start": 2.6397,
      "duration": 0.4486,
      "velocity": 90,
      "chip": "ym2612"
    },
    {
      "channel": 1,
      "note": 72,
      "start": 2.6399,
      "duration": 0.4488,
      "velocity": 107,
      "chip": "ym2612"
    },
    {
      "channel": 2,
      "note": 85,
      "start": 2.64,
      "duration": 0.4489,
      "velocity": 108,
      "chip": "ym2612"
    },
    {
      "channel": 3,
      "note": 83,
      "start": 2.6402,
      "duration": 0.0638,
      "velocity": 108,
      "chip": "ym2612"
    },
    {
      "channel": 3,
      "note": 85,
      "start": 2.7042,
      "duration": 0.3868,
      "velocity": 108,
      "chip": "ym2612"
    },
    {
      "channel": 4,
      "note": 79,
      "start": 2.7058,
      "duration": 0.3864,
      "velocity": 90,
      "chip": "ym2612"
    },
    {
      "channel": 0,
      "note": 80,
      "start": 3.0886,
      "duration": 0.3219,
      "velocity": 90,
      "chip": "ym2612"
    },
    {
      "channel": 1,
      "note": 73,
      "start": 3.0888,
      "duration": 0.3219,
      "velocity": 107,
      "chip": "ym2612"
    },
    {
      "channel": 2,
      "note": 83,
      "start": 3.091,
      "duration": 0.0695,
      "velocity": 108,
      "chip": "ym2612"
    },
    {
      "channel": 4,
      "note": 80,
      "start": 3.0923,
      "duration": 0.3842,
      "velocity": 90,
      "chip": "ym2612"
    },
    {
      "channel": 2,
      "note": 85,
      "start": 3.1607,
      "duration": 0.1165,
      "velocity": 108,
      "chip": "ym2612"
    },
    {
      "channel": 3,
      "note": 83,
      "start": 3.161,
      "duration": 0.1164,
      "velocity": 108,
      "chip": "ym2612"
    },
    {
      "channel": 2,
      "note": 83,
      "start": 3.2773,
      "duration": 0.1337,
      "velocity": 108,
      "chip": "ym2612"
    },
    {
      "channel": 3,
      "note": 85,
      "start": 3.2777,
      "duration": 0.1337,
      "velocity": 108,
      "chip": "ym2612"
    },
    {
      "channel": 0,
      "note": 79,
      "start": 3.4107,
      "duration": 0.4487,
      "velocity": 90,
      "chip": "ym2612"
    },
    {
      "channel": 1,
      "note": 72,
      "start": 3.411,
      "duration": 0.4487,
      "velocity": 107,
      "chip": "ym2612"
    },
    {
      "channel": 2,
      "note": 85,
      "start": 3.4113,
      "duration": 0.4516,
      "velocity": 108,
      "chip": "ym2612"
    },
    {
      "channel": 3,
      "note": 83,
      "start": 3.4118,
      "duration": 0.0644,
      "velocity": 108,
      "chip": "ym2612"
    },
    {
      "channel": 3,
      "note": 85,
      "start": 3.4764,
      "duration": 0.4559,
      "velocity": 108,
      "chip": "ym2612"
    },
    {
      "channel": 4,
      "note": 79,
      "start": 3.4767,
      "duration": 0.3864,
      "velocity": 90,
      "chip": "ym2612"
    },
    {
      "channel": 0,
      "note": 78,
      "start": 3.8596,
      "duration": 0.7727,
      "velocity": 83,
      "chip": "ym2612"
    },
    {
      "channel": 1,
      "note": 71,
      "start": 3.8599,
      "duration": 0.3222,
      "velocity": 107,
      "chip": "ym2612"
    },
    {
      "channel": 2,
      "note": 83,
      "start": 3.863,
      "duration": 0.069,
      "velocity": 108,
      "chip": "ym2612"
    },
    {
      "channel": 4,
      "note": 78,
      "start": 3.8633,
      "duration": 0.773,
      "velocity": 83,
      "chip": "ym2612"
    },
    {
      "channel": 2,
      "note": 85,
      "start": 3.9322,
      "duration": 0.1165,
      "velocity": 108,
      "chip": "ym2612"
    },
    {
      "channel": 3,
      "note": 83,
      "start": 3.9326,
      "duration": 0.1164,
      "velocity": 108,
      "chip": "ym2612"
    },
    {
      "channel": 2,
      "note": 83,
      "start": 4.0489,
      "duration": 0.1335,
      "velocity": 108,
      "chip": "ym2612"
    },
    {
      "channel": 3,
      "note": 85,
      "start": 4.0492,
      "duration": 0.1335,
      "velocity": 108,
      "chip": "ym2612"
    },
    {
      "channel": 1,
      "note": 70,
      "start": 4.1823,
      "duration": 0.4504,
      "velocity": 107,
      "chip": "ym2612"
    },
    {
      "channel": 2,
      "note": 85,
      "start": 4.1826,
      "duration": 0.4503,
      "velocity": 108,
      "chip": "ym2612"
    },
    {
      "channel": 3,
      "note": 83,
      "start": 4.1829,
      "duration": 0.0649,
      "velocity": 108,
      "chip": "ym2612"
    },
    {
      "channel": 3,
      "note": 85,
      "start": 4.2481,
      "duration": 0.387,
      "velocity": 108,
      "chip": "ym2612"
    },
    {
      "channel": 0,
      "note": 78,
      "start": 4.6327,
      "duration": 0.7708,
      "velocity": 83,
      "chip": "ym2612"
    },
    {
      "channel": 1,
      "note": 69,
      "start": 4.6329,
      "duration": 0.3217,
      "velocity": 107,
      "chip": "ym2612"
    },
    {
      "channel": 2,
      "note": 83,
      "start": 4.635,
      "duration": 0.0694,
      "velocity": 108,
      "chip": "ym2612"
    },
    {
      "channel": 4,
      "note": 78,
      "start": 4.6364,
      "duration": 0.7708,
      "velocity": 83,
      "chip": "ym2612"
    },
    {
      "channel": 2,
      "note": 85,
      "start": 4.7047,
      "duration": 0.1165,
      "velocity": 108,
      "chip": "ym2612"
    },
    {
      "channel": 3,
      "note": 83,
      "start": 4.705,
      "duration": 0.1164,
      "velocity": 108,
      "chip": "ym2612"
    },
    {
      "channel": 2,
      "note": 83,
      "start": 4.8213,
      "duration": 0.1335,
      "velocity": 108,
      "chip": "ym2612"
    },
    {
      "channel": 3,
      "note": 85,
      "start": 4.8217,
      "duration": 0.1335,
      "velocity": 108,
      "chip": "ym2612"
    },
    {
      "channel": 1,
      "note": 70,
      "start": 4.9547,
      "duration": 0.4489,
      "velocity": 107,
      "chip": "ym2612"
    },
    {
      "channel": 2,
      "note": 85,
      "start": 4.9551,
      "duration": 0.4519,
      "velocity": 108,
      "chip": "ym2612"
    },
    {
      "channel": 3,
      "note": 83,
      "start": 4.9554,
      "duration": 0.0649,
      "velocity": 108,
      "chip": "ym2612"
    },
    {
      "channel": 3,
      "note": 85,
      "start": 5.0205,
      "duration": 0.456,
      "velocity": 108,
      "chip": "ym2612"
    },
    {
      "channel": 0,
      "note": 78,
      "start": 5.4035,
      "duration": 0.3239,
      "velocity": 90,
      "chip": "ym2612"
    },
    {
      "channel": 1,
      "note": 71,
      "start": 5.4039,
      "duration": 0.324,
      "velocity": 107,
      "chip": "ym2612"
    },
    {
      "channel": 2,
      "note": 83,
      "start": 5.407,
      "duration": 0.0693,
      "velocity": 108,
      "chip": "ym2612"
    },
    {
      "channel": 4,
      "note": 78,
      "start": 5.4072,
      "duration": 0.3868,
      "velocity": 90,
      "chip": "ym2612"
    },
    {
      "channel": 2,
      "note": 85,
      "start": 5.4765,
      "duration": 0.1164,
      "velocity": 108,
      "chip": "ym2612"
    },
    {
      "channel": 3,
      "note": 83,
      "start": 5.4768,
      "duration": 0.1164,
      "velocity": 108,
      "chip": "ym2612"
    },
    {
      "channel": 2,
      "note": 83,
      "start": 5.5931,
      "duration": 0.1349,
      "velocity": 108,
      "chip": "ym2612"
    },
    {
      "channel": 3,
      "note": 85,
      "start": 5.5934,
      "duration": 0.1348,
      "velocity": 108,
      "chip": "ym2612"
    },
    {
      "channel": 0,
      "note": 79,
      "start": 5.7278,
      "duration": 0.4488,
      "velocity": 90,
      "chip": "ym2612"
    },
    {
      "channel": 1,
      "note": 72,
      "start": 5.728,
      "duration": 0.449,
      "velocity": 107,
      "chip": "ym2612"
    },
    {
      "channel": 2,
      "note": 85,
      "start": 5.7281,
      "duration": 0.0639,
      "velocity": 108,
      "chip": "ym2612"
    },
    {
      "channel": 3,
      "note": 83,
      "start": 5.7283,
      "duration": 0.0641,
      "velocity": 108,
      "chip": "ym2612"
    },
    {
      "channel": 2,
      "note": 88,
      "start": 5.7923,
      "duration": 0.1331,
      "velocity": 108,
      "chip": "ym2612"
    },
    {
      "channel": 3,
      "note": 85,
      "start": 5.7926,
      "duration": 0.1331,
      "velocity": 108,
      "chip": "ym2612"
    },
    {
      "channel": 4,
      "note": 79,
      "start": 5.7942,
      "duration": 0.386,
      "velocity": 90,
      "chip": "ym2612"
    },
    {
      "channel": 2,
      "note": 90,
      "start": 5.9256,
      "duration": 0.1165,
      "velocity": 108,
      "chip": "ym2612"
    },
    {
      "channel": 3,
      "note": 88,
      "start": 5.926,
      "duration": 0.1164,
      "velocity": 108,
      "chip": "ym2612"
    },
    {
      "channel": 2,
      "note": 92,
      "start": 6.0423,
      "duration": 0.1348,
      "velocity": 108,
      "chip": "ym2612"
    },
    {
      "channel": 3,
      "note": 90,
      "start": 6.0426,
      "duration": 0.1345,
      "velocity": 108,
      "chip": "ym2612"
    },
    {
      "channel": 0,
      "note": 80,
      "start": 6.1769,
      "duration": 0.3216,
      "velocity": 90,
      "chip": "ym2612"
    },
    {
      "channel": 1,
      "note": 73,
      "start": 6.1771,
      "duration": 0.3216,
      "velocity": 107,
      "chip": "ym2612"
    },
    {
      "channel": 3,
      "note": 92,
      "start": 6.1772,
      "duration": 0.0021,
      "velocity": 108,
      "chip": "ym2612"
    },
    {
      "channel": 2,
      "note": 95,
      "start": 6.1792,
      "duration": 0.0692,
      "velocity": 108,
      "chip": "ym2612"
    },
    {
      "channel": 4,
      "note": 80,
      "start": 6.1804,
      "duration": 0.322,
      "velocity": 90,
      "chip": "ym2612"
    },
    {
      "channel": 2,
      "note": 97,
      "start": 6.2487,
      "duration": 0.1165,
      "velocity": 108,
      "chip": "ym2612"
    },
    {
      "channel": 3,
      "note": 95,
      "start": 6.249,
      "duration": 0.1164,
      "velocity": 108,
      "chip": "ym2612"
    },
    {
      "channel": 2,
      "note": 95,
      "start": 6.3654,
      "duration": 0.1337,
      "velocity": 108,
      "chip": "ym2612"
    },
    {
      "channel": 3,
      "note": 97,
      "start": 6.3657,
      "duration": 0.1337,
      "velocity": 108,
      "chip": "ym2612"
    },
    {
      "channel": 0,
      "note": 79,
      "start": 6.4987,
      "duration": 0.2163,
      "velocity": 90,
      "chip": "ym2612"
    },
    {
      "channel": 1,
      "note": 72,
      "start": 6.499,
      "duration": 0.2163,
      "velocity": 107,
      "chip": "ym2612"
    },
    {
      "channel": 2,
      "note": 97,
      "start": 6.4993,
      "duration": 0.2193,
      "velocity": 108,
      "chip": "ym2612"
    },
    {
      "channel": 3,
      "note": 95,
      "start": 6.4998,
      "duration": 0.0024,
      "velocity": 108,
      "chip": "ym2612"
    },
    {
      "channel": 3,
      "note": 97,
      "start": 6.5023,
      "duration": 0.2857,
      "velocity": 108,
      "chip": "ym2612"
    },
    {
      "channel": 4,
      "note": 79,
      "start": 6.5025,
      "duration": 0.2164,
      "velocity": 90,
      "chip": "ym2612"
    },
    {
      "channel": 0,
      "note": 78,
      "start": 6.7152,
      "duration": 0.8035,
      "velocity": 83,
      "chip": "ym2612"
    },
    {
      "channel": 1,
      "note": 71,
      "start": 6.7155,
      "duration": 0.3223,
      "velocity": 107,
      "chip": "ym2612"
    },
    {
      "channel": 2,
      "note": 95,
      "start": 6.7187,
      "duration": 0.069,
      "velocity": 108,
      "chip": "ym2612"
    },
    {
      "channel": 4,
      "note": 78,
      "start": 6.719,
      "duration": 0.8034,
      "velocity": 83,
      "chip": "ym2612"
    },
    {
      "channel": 2,
      "note": 97,
      "start": 6.788,
      "duration": 0.1165,
      "velocity": 108,
      "chip": "ym2612"
    },
    {
      "channel": 3,
      "note": 95,
      "start": 6.7883,
      "duration": 0.1164,
      "velocity": 108,
      "chip": "ym2612"
    },
    {
      "channel": 2,
      "note": 95,
      "start": 6.9046,
      "duration": 0.1335,
      "velocity": 108,
      "chip": "ym2612"
    },
    {
      "channel": 3,
      "note": 97,
      "start": 6.9049,
      "duration": 0.1335,
      "velocity": 108,
      "chip": "ym2612"
    },
    {
      "channel": 1,
      "note": 70,
      "start": 7.038,
      "duration": 0.481,
      "velocity": 107,
      "chip": "ym2612"
    },
    {
      "channel": 2,
      "note": 97,
      "start": 7.0383,
      "duration": 0.4809,
      "velocity": 108,
      "chip": "ym2612"
    },
    {
      "channel": 3,
      "note": 95,
      "start": 7.0387,
      "duration": 0.0956,
      "velocity": 108,
      "chip": "ym2612"
    },
    {
      "channel": 3,
      "note": 97,
      "start": 7.1346,
      "duration": 0.3868,
      "velocity": 108,
      "chip": "ym2612"
    },
    {
      "channel": 0,
      "note": 78,
      "start": 7.519,
      "duration": 0.5391,
      "velocity": 83,
      "chip": "ym2612"
    },
    {
      "channel": 1,
      "note": 69,
      "start": 7.5192,
      "duration": 0.3214,
      "velocity": 107,
      "chip": "ym2612"
    },
    {
      "channel": 2,
      "note": 95,
      "start": 7.5213,
      "duration": 0.0692,
      "velocity": 108,
      "chip": "ym2612"
    },
    {
      "channel": 4,
      "note": 78,
      "start": 7.5225,
      "duration": 0.5393,
      "velocity": 83,
      "chip": "ym2612"
    },
    {
      "channel": 2,
      "note": 97,
      "start": 7.5907,
      "duration": 0.1165,
      "velocity": 108,
      "chip": "ym2612"
    },
    {
      "channel": 3,
      "note": 95,
      "start": 7.5911,
      "duration": 0.1164,
      "velocity": 108,
      "chip": "ym2612"
    },
    {
      "channel": 2,
      "note": 95,
      "start": 7.7074,
      "duration": 0.1335,
      "velocity": 108,
      "chip": "ym2612"
    },
    {
      "channel": 3,
      "note": 97,
      "start": 7.7077,
      "duration": 0.1335,
      "velocity": 108,
      "chip": "ym2612"
    },
    {
      "channel": 1,
      "note": 70,
      "start": 7.8408,
      "duration": 0.2174,
      "velocity": 107,
      "chip": "ym2612"
    },
    {
      "channel": 2,
      "note": 97,
      "start": 7.8411,
      "duration": 0.2203,
      "velocity": 108,
      "chip": "ym2612"
    },
    {
      "channel": 3,
      "note": 95,
      "start": 7.8415,
      "duration": 0.0031,
      "velocity": 108,
      "chip": "ym2612"
    },
    {
      "channel": 3,
      "note": 97,
      "start": 7.8446,
      "duration": 0.2864,
      "velocity": 108,
      "chip": "ym2612"
    },
    {
      "channel": 0,
      "note": 78,
      "start": 8.0581,
      "duration": 0.3238,
      "velocity": 90,
      "chip": "ym2612"
    },
    {
      "channel": 1,
      "note": 71,
      "start": 8.0584,
      "duration": 0.3239,
      "velocity": 107,
      "chip": "ym2612"
    },
    {
      "channel": 2,
      "note": 95,
      "start": 8.0617,
      "duration": 0.0691,
      "velocity": 108,
      "chip": "ym2612"
    },
    {
      "channel": 4,
      "note": 78,
      "start": 8.0618,
      "duration": 0.4175,
      "velocity": 90,
      "chip": "ym2612"
    },
    {
      "channel": 2,
      "note": 97,
      "start": 8.131,
      "duration": 0.1164,
      "velocity": 108,
      "chip": "ym2612"
    },
    {
      "channel": 3,
      "note": 95,
      "start": 8.1313,
      "duration": 0.1164,
      "velocity": 108,
      "chip": "ym2612"
    },
    {
      "channel": 2,
      "note": 95,
      "start": 8.2476,
      "duration": 0.1347,
      "velocity": 108,
      "chip": "ym2612"
    },
    {
      "channel": 3,
      "note": 97,
      "start": 8.248,
      "duration": 0.1346,
      "velocity": 108,
      "chip": "ym2612"
    },
    {
      "channel": 0,
      "note": 79,
      "start": 8.3822,
      "duration": 0.4798,
      "velocity": 90,
      "chip": "ym2612"
    },
    {
      "channel": 1,
      "note": 72,
      "start": 8.3823,
      "duration": 0.4802,
      "velocity": 107,
      "chip": "ym2612"
    },
    {
      "channel": 2,
      "note": 97,
      "start": 8.3825,
      "duration": 0.4801,
      "velocity": 108,
      "chip": "ym2612"
    },
    {
      "channel": 3,
      "note": 95,
      "start": 8.3827,
      "duration": 0.0951,
      "velocity": 108,
      "chip": "ym2612"
    },
    {
      "channel": 3,
      "note": 97,
      "start": 8.478,
      "duration": 0.387,
      "velocity": 108,
      "chip": "ym2612"
    },
    {
      "channel": 4,
      "note": 79,
      "start": 8.4795,
      "duration": 0.3863,
      "velocity": 90,
      "chip": "ym2612"
    },
    {
      "channel": 0,
      "note": 80,
      "start": 8.8624,
      "duration": 0.3217,
      "velocity": 90,
      "chip": "ym2612"
    },
    {
      "channel": 1,
      "note": 73,
      "start": 8.8625,
      "duration": 0.3218,
      "velocity": 107,
      "chip": "ym2612"
    },
    {
      "channel": 2,
      "note": 95,
      "start": 8.8649,
      "duration": 0.0692,
      "velocity": 108,
      "chip": "ym2612"
    },
    {
      "channel": 4,
      "note": 80,
      "start": 8.866,
      "duration": 0.322,
      "velocity": 90,
      "chip": "ym2612"
    },
    {
      "channel": 2,
      "note": 97,
      "start": 8.9343,
      "duration": 0.1165,
      "velocity": 108,
      "chip": "ym2612"
    },
    {
      "channel": 3,
      "note": 95,
      "start": 8.9346,
      "duration": 0.1164,
      "velocity": 108,
      "chip": "ym2612"
    },
    {
      "channel": 2,
      "note": 95,
      "start": 9.051,
      "duration": 0.1337,
      "velocity": 108,
      "chip": "ym2612"
    },
    {
      "channel": 3,
      "note": 97,
      "start": 9.0513,
      "duration": 0.1337,
      "velocity": 108,
      "chip": "ym2612"
    },
    {
      "channel": 0,
      "note": 79,
      "start": 9.1843,
      "duration": 0.2164,
      "velocity": 90,
      "chip": "ym2612"
    },
    {
      "channel": 1,
      "note": 72,
      "start": 9.1846,
      "duration": 0.2164,
      "velocity": 107,
      "chip": "ym2612"
    },
    {
      "channel": 2,
      "note": 97,
      "start": 9.1849,
      "duration": 0.2194,
      "velocity": 108,
      "chip": "ym2612"
    },
    {
      "channel": 3,
      "note": 95,
      "start": 9.1854,
      "duration": 0.0025,
      "velocity": 108,
      "chip": "ym2612"
    },
    {
      "channel": 3,
      "note": 97,
      "start": 9.188,
      "duration": 0.2857,
      "velocity": 108,
      "chip": "ym2612"
    },
    {
      "channel": 4,
      "note": 79,
      "start": 9.1882,
      "duration": 0.2164,
      "velocity": 90,
      "chip": "ym2612"
    },
    {
      "channel": 0,
      "note": 78,
      "start": 9.4009,
      "duration": 0.8035,
      "velocity": 83,
      "chip": "ym2612"
    },
    {
      "channel": 1,
      "note": 71,
      "start": 9.4012,
      "duration": 0.3223,
      "velocity": 107,
      "chip": "ym2612"
    },
    {
      "channel": 2,
      "note": 95,
      "start": 9.4044,
      "duration": 0.069,
      "velocity": 108,
      "chip": "ym2612"
    },
    {
      "channel": 4,
      "note": 78,
      "start": 9.4047,
      "duration": 0.8034,
      "velocity": 83,
      "chip": "ym2612"
    },
    {
      "channel": 2,
      "note": 97,
      "start": 9.4737,
      "duration": 0.1165,
      "velocity": 108,
      "chip": "ym2612"
    },
    {
      "channel": 3,
      "note": 95,
      "start": 9.474,
      "duration": 0.1164,
      "velocity": 108,
      "chip": "ym2612"
    },
    {
      "channel": 2,
      "note": 95,
      "start": 9.5903,
      "duration": 0.1335,
      "velocity": 108,
      "chip": "ym2612"
    },
    {
      "channel": 3,
      "note": 97,
      "start": 9.5907,
      "duration": 0.1335,
      "velocity": 108,
      "chip": "ym2612"
    },
    {
      "channel": 1,
      "note": 70,
      "start": 9.7237,
      "duration": 0.4811,
      "velocity": 107,
      "chip": "ym2612"
    },
    {
      "channel": 2,
      "note": 97,
      "start": 9.7241,
      "duration": 0.4809,
      "velocity": 108,
      "chip": "ym2612"
    },
    {
      "channel": 3,
      "note": 95,
      "start": 9.7244,
      "duration": 0.0956,
      "velocity": 108,
      "chip": "ym2612"
    },
    {
      "channel": 3,
      "note": 97,
      "start": 9.8203,
      "duration": 0.3867,
      "velocity": 108,
      "chip": "ym2612"
    },
    {
      "channel": 0,
      "note": 78,
      "start": 10.2048,
      "duration": 0.5387,
      "velocity": 83,
      "chip": "ym2612"
    },
    {
      "channel": 1,
      "note": 69,
      "start": 10.2049,
      "duration": 0.3215,
      "velocity": 107,
      "chip": "ym2612"
    },
    {
      "channel": 2,
      "note": 95,
      "start": 10.2069,
      "duration": 0.0694,
      "velocity": 108,
      "chip": "ym2612"
    },
    {
      "channel": 4,
      "note": 78,
      "start": 10.2082,
      "duration": 0.5388,
      "velocity": 83,
      "chip": "ym2612"
    },
    {
      "channel": 2,
      "note": 97,
      "start": 10.2765,
      "duration": 0.1165,
      "velocity": 108,
      "chip": "ym2612"
    },
    {
      "channel": 3,
      "note": 95,
      "start": 10.2768,
      "duration": 0.1164,
      "velocity": 108,
      "chip": "ym2612"
    },
    {
      "channel": 2,
      "note": 95,
      "start": 10.3932,
      "duration": 0.1335,
      "velocity": 108,
      "chip": "ym2612"
    },
    {
      "channel": 3,
      "note": 97,
      "start": 10.3935,
      "duration": 0.1335,
      "velocity": 108,
      "chip": "ym2612"
    },
    {
      "channel": 1,
      "note": 70,
      "start": 10.5266,
      "duration": 0.2169,
      "velocity": 107,
      "chip": "ym2612"
    },
    {
      "channel": 2,
      "note": 97,
      "start": 10.5269,
      "duration": 0.2198,
      "velocity": 108,
      "chip": "ym2612"
    },
    {
      "channel": 3,
      "note": 95,
      "start": 10.5272,
      "duration": 0.0029,
      "velocity": 108,
      "chip": "ym2612"
    },
    {
      "channel": 3,
      "note": 97,
      "start": 10.5302,
      "duration": 0.2861,
      "velocity": 108,
      "chip": "ym2612"
    },
    {
      "channel": 0,
      "note": 78,
      "start": 10.7435,
      "duration": 0.3237,
      "velocity": 90,
      "chip": "ym2612"
    },
    {
      "channel": 1,
      "note": 71,
      "start": 10.7437,
      "duration": 0.3239,
      "velocity": 107,
      "chip": "ym2612"
    },
    {
      "channel": 2,
      "note": 95,
      "start": 10.7469,
      "duration": 0.0692,
      "velocity": 108,
      "chip": "ym2612"
    },
    {
      "channel": 4,
      "note": 78,
      "start": 10.7471,
      "duration": 0.3246,
      "velocity": 90,
      "chip": "ym2612"
    },
    {
      "channel": 2,
      "note": 97,
      "start": 10.8163,
      "duration": 0.1164,
      "velocity": 108,
      "chip": "ym2612"
    },
    {
      "channel": 3,
      "note": 95,
      "start": 10.8166,
      "duration": 0.1164,
      "velocity": 108,
      "chip": "ym2612"
    },
    {
      "channel": 2,
      "note": 95,
      "start": 10.9329,
      "duration": 0.1349,
      "velocity": 108,
      "chip": "ym2612"
    },
    {
      "channel": 3,
      "note": 97,
      "start": 10.9332,
      "duration": 0.1346,
      "velocity": 108,
      "chip": "ym2612"
    },
    {
      "channel": 0,
      "note": 79,
      "start": 11.0676,
      "duration": 0.0804,
      "velocity": 100,
      "chip": "ym2612"
    },
    {
      "channel": 1,
      "note": 72,
      "start": 11.0678,
      "duration": 0.0815,
      "velocity": 83,
      "chip": "ym2612"
    },
    {
      "channel": 2,
      "note": 97,
      "start": 11.0679,
      "duration": 0.002,
      "velocity": 108,
      "chip": "ym2612"
    },
    {
      "channel": 3,
      "note": 95,
      "start": 11.0679,
      "duration": 0.0023,
      "velocity": 108,
      "chip": "ym2612"
    },
    {
      "channel": 2,
      "note": 100,
      "start": 11.0701,
      "duration": 0.0041,
      "velocity": 108,
      "chip": "ym2612"
    },
    {
      "channel": 3,
      "note": 97,
      "start": 11.0704,
      "duration": 0.0042,
      "velocity": 108,
      "chip": "ym2612"
    },
    {
      "channel": 4,
      "note": 79,
      "start": 11.0718,
      "duration": 0.0835,
      "velocity": 100,
      "chip": "ym2612"
    },
    {
      "channel": 2,
      "note": 102,
      "start": 11.0745,
      "duration": 0.003,
      "velocity": 108,
      "chip": "ym2612"
    },
    {
      "channel": 3,
      "note": 100,
      "start": 11.0748,
      "duration": 0.003,
      "velocity": 108,
      "chip": "ym2612"
    },
    {
      "channel": 2,
      "note": 104,
      "start": 11.0777,
      "duration": 0.0727,
      "velocity": 89,
      "chip": "ym2612"
    },
    {
      "channel": 3,
      "note": 102,
      "start": 11.0779,
      "duration": 0.0737,
      "velocity": 89,
      "chip": "ym2612"
    },
    {
      "channel": 0,
      "note": 80,
      "start": 11.1484,
      "duration": 0.0051,
      "velocity": 100,
      "chip": "ym2612"
    },
    {
      "channel": 1,
      "note": 61,
      "start": 11.1494,
      "duration": 0.2099,
      "velocity": 83,
      "chip": "ym2612"
    },
    {
      "channel": 2,
      "note": 80,
      "start": 11.1505,
      "duration": 0.2667,
      "velocity": 89,
      "chip": "ym2612"
    },
    {
      "channel": 3,
      "note": 76,
      "start": 11.1516,
      "duration": 0.2658,
      "velocity": 89,
      "chip": "ym2612"
    },
    {
      "channel": 0,
      "note": 83,
      "start": 11.1536,
      "duration": 0.0037,
      "velocity": 100,
      "chip": "ym2612"
    },
    {
      "channel": 4,
      "note": 80,
      "start": 11.1554,
      "duration": 0.0021,
      "velocity": 100,
      "chip": "ym2612"
    },
    {
      "channel": 0,
      "note": 90,
      "start": 11.1573,
      "duration": 0.2017,
      "velocity": 100,
      "chip": "ym2612"
    },
    {
      "channel": 4,
      "note": 83,
      "start": 11.1576,
      "duration": 0.0684,
      "velocity": 100,
      "chip": "ym2612"
    },
    {
      "channel": 4,
      "note": 90,
      "start": 11.2262,
      "duration": 0.136,
      "velocity": 100,
      "chip": "ym2612"
    },
    {
      "channel": 0,
      "note": 88,
      "start": 11.3592,
      "duration": 0.1383,
      "velocity": 100,
      "chip": "ym2612"
    },
    {
      "channel": 1,
      "note": 63,
      "start": 11.3595,
      "duration": 0.0574,
      "velocity": 83,
      "chip": "ym2612"
    },
    {
      "channel": 4,
      "note": 88,
      "start": 11.3622,
      "duration": 0.1389,
      "velocity": 100,
      "chip": "ym2612"
    },
    {
      "channel": 1,
      "note": 64,
      "start": 11.4171,
      "duration": 0.0804,
      "velocity": 83,
      "chip": "ym2612"
    },
    {
      "channel": 2,
      "note": 78,
      "start": 11.4174,
      "duration": 0.1394,
      "velocity": 89,
      "chip": "ym2612"
    },
    {
      "channel": 3,
      "note": 75,
      "start": 11.4177,
      "duration": 0.1394,
      "velocity": 89,
      "chip": "ym2612"
    },
    {
      "channel": 0,
      "note": 88,
      "start": 11.4974,
      "duration": 0.0589,
      "velocity": 100,
      "chip": "ym2612"
    },
    {
      "channel": 1,
      "note": 66,
      "start": 11.4977,
      "duration": 0.0588,
      "velocity": 83,
      "chip": "ym2612"
    },
    {
      "channel": 4,
      "note": 88,
      "start": 11.5011,
      "duration": 0.059,
      "velocity": 100,
      "chip": "ym2612"
    },
    {
      "channel": 1,
      "note": 68,
      "start": 11.5567,
      "duration": 0.2085,
      "velocity": 83,
      "chip": "ym2612"
    },
    {
      "channel": 2,
      "note": 76,
      "start": 11.557,
      "duration": 0.265,
      "velocity": 89,
      "chip": "ym2612"
    },
    {
      "channel": 3,
      "note": 73,
      "start": 11.5573,
      "duration": 0.265,
      "velocity": 89,
      "chip": "ym2612"
    },
    {
      "channel": 1,
      "note": 67,
      "start": 11.7654,
      "duration": 0.0562,
      "velocity": 83,
      "chip": "ym2612"
    },
    {
      "channel": 0,
      "note": 87,
      "start": 11.8215,
      "duration": 0.0031,
      "velocity": 100,
      "chip": "ym2612"
    },
    {
      "channel": 1,
      "note": 66,
      "start": 11.8218,
      "duration": 0.0793,
      "velocity": 83,
      "chip": "ym2612"
    },
    {
      "channel": 2,
      "note": 76,
      "start": 11.822,
      "duration": 0.1368,
      "velocity": 89,
      "chip": "ym2612"
    },
    {
      "channel": 3,
      "note": 73,
      "start": 11.8223,
      "duration": 0.1369,
      "velocity": 89,
      "chip": "ym2612"
    },
    {
      "channel": 0,
      "note": 85,
      "start": 11.8248,
      "duration": 0.0069,
      "velocity": 100,
      "chip": "ym2612"
    },
    {
      "channel": 4,
      "note": 87,
      "start": 11.8255,
      "duration": 0.0039,
      "velocity": 100,
      "chip": "ym2612"
    },
    {
      "channel": 4,
      "note": 85,
      "start": 11.8297,
      "duration": 0.072,
      "velocity": 100,
      "chip": "ym2612"
    },
    {
      "channel": 0,
      "note": 83,
      "start": 11.8318,
      "duration": 0.069,
      "velocity": 100,
      "chip": "ym2612"
    },
    {
      "channel": 0,
      "note": 85,
      "start": 11.901,
      "duration": 0.003,
      "velocity": 100,
      "chip": "ym2612"
    },
    {
      "channel": 1,
      "note": 64,
      "start": 11.9013,
      "duration": 0.0573,
      "velocity": 83,
      "chip": "ym2612"
    },
    {
      "channel": 4,
      "note": 83,
      "start": 11.9021,
      "duration": 0.0023,
      "velocity": 100,
      "chip": "ym2612"
    },
    {
      "channel": 0,
      "note": 79,
      "start": 11.9041,
      "duration": 0.0021,
      "velocity": 100,
      "chip": "ym2612"
    },
    {
      "channel": 4,
      "note": 85,
      "start": 11.9044,
      "duration": 0.0019,
      "velocity": 100,
      "chip": "ym2612"
    },
    {
      "channel": 0,
      "note": 78,
      "start": 11.9062,
      "duration": 0.0019,
      "velocity": 100,
      "chip": "ym2612"
    },
    {
      "channel": 4,
      "note": 79,
      "start": 11.9065,
      "duration": 0.0019,
      "velocity": 100,
      "chip": "ym2612"
    },
    {
      "channel": 0,
      "note": 76,
      "start": 11.9082,
      "duration": 0.0501,
      "velocity": 100,
      "chip": "ym2612"
    },
    {
      "channel": 4,
      "note": 78,
      "start": 11.9085,
      "duration": 0.0511,
      "velocity": 100,
      "chip": "ym2612"
    },
    {
      "channel": 0,
      "note": 78,
      "start": 11.9585,
      "duration": 0.0031,
      "velocity": 100,
      "chip": "ym2612"
    },
    {
      "channel": 1,
      "note": 63,
      "start": 11.9588,
      "duration": 0.2085,
      "velocity": 83,
      "chip": "ym2612"
    },
    {
      "channel": 2,
      "note": 78,
      "start": 11.9591,
      "duration": 0.2666,
      "velocity": 89,
      "chip": "ym2612"
    },
    {
      "channel": 3,
      "note": 73,
      "start": 11.9594,
      "duration": 0.2666,
      "velocity": 89,
      "chip": "ym2612"
    },
    {
      "channel": 4,
      "note": 76,
      "start": 11.9598,
      "duration": 0.0026,
      "velocity": 100,
      "chip": "ym2612"
    },
    {
      "channel": 0,
      "note": 80,
      "start": 11.9619,
      "duration": 0.003,
      "velocity": 100,
      "chip": "ym2612"
    },
    {
      "channel": 4,
      "note": 78,
      "start": 11.9626,
      "duration": 0.0028,
      "velocity": 100,
      "chip": "ym2612"
    },
    {
      "channel": 0,
      "note": 83,
      "start": 11.9651,
      "duration": 0.0686,
      "velocity": 100,
      "chip": "ym2612"
    },
    {
      "channel": 4,
      "note": 80,
      "start": 11.9654,
      "duration": 0.069,
      "velocity": 100,
      "chip": "ym2612"
    },
    {
      "channel": 0,
      "note": 80,
      "start": 12.0339,
      "duration": 0.2021,
      "velocity": 100,
      "chip": "ym2612"
    },
    {
      "channel": 4,
      "note": 83,
      "start": 12.0346,
      "duration": 0.1333,
      "velocity": 100,
      "chip": "ym2612"
    },
    {
      "channel": 1,
      "note": 64,
      "start": 12.1675,
      "duration": 0.0577,
      "velocity": 83,
      "chip": "ym2612"
    },
    {
      "channel": 4,
      "note": 80,
      "start": 12.1682,
      "duration": 0.1375,
      "velocity": 100,
      "chip": "ym2612"
    },
    {
      "channel": 1,
      "note": 66,
      "start": 12.2254,
      "duration": 0.0796,
      "velocity": 83,
      "chip": "ym2612"
    },
    {
      "channel": 2,
      "note": 78,
      "start": 12.2257,
      "duration": 0.1373,
      "velocity": 89,
      "chip": "ym2612"
    },
    {
      "channel": 3,
      "note": 73,
      "start": 12.2259,
      "duration": 0.1374,
      "velocity": 89,
      "chip": "ym2612"
    },
    {
      "channel": 0,
      "note": 80,
      "start": 12.236,
      "duration": 0.1265,
      "velocity": 100,
      "chip": "ym2612"
    },
    {
      "channel": 1,
      "note": 68,
      "start": 12.3052,
      "duration": 0.0575,
      "velocity": 83,
      "chip": "ym2612"
    },
    {
      "channel": 4,
      "note": 80,
      "start": 12.3058,
      "duration": 0.0607,
      "velocity": 100,
      "chip": "ym2612"
    },
    {
      "channel": 1,
      "note": 66,
      "start": 12.3629,
      "duration": 0.2083,
      "velocity": 83,
      "chip": "ym2612"
    },
    {
      "channel": 2,
      "note": 83,
      "start": 12.3632,
      "duration": 0.2647,
      "velocity": 89,
      "chip": "ym2612"
    },
    {
      "channel": 3,
      "note": 78,
      "start": 12.3636,
      "duration": 0.2646,
      "velocity": 89,
      "chip": "ym2612"
    },
    {
      "channel": 1,
      "note": 64,
      "start": 12.5715,
      "duration": 0.056,
      "velocity": 83,
      "chip": "ym2612"
    },
    {
      "channel": 1,
      "note": 63,
      "start": 12.6277,
      "duration": 0.0776,
      "velocity": 83,
      "chip": "ym2612"
    },
    {
      "channel": 2,
      "note": 83,
      "start": 12.6279,
      "duration": 0.1333,
      "velocity": 89,
      "chip": "ym2612"
    },
    {
      "channel": 3,
      "note": 78,
      "start": 12.6281,
      "duration": 0.1334,
      "velocity": 89,
      "chip": "ym2612"
    },
    {
      "channel": 1,
      "note": 62,
      "start": 12.7055,
      "duration": 0.0555,
      "velocity": 83,
      "chip": "ym2612"
    },
    {
      "channel": 0,
      "note": 80,
      "start": 12.7608,
      "duration": 0.0032,
      "velocity": 100,
      "chip": "ym2612"
    },
    {
      "channel": 1,
      "note": 61,
      "start": 12.7611,
      "duration": 0.2086,
      "velocity": 83,
      "chip": "ym2612"
    },
    {
      "channel": 2,
      "note": 80,
      "start": 12.7615,
      "duration": 0.2661,
      "velocity": 89,
      "chip": "ym2612"
    },
    {
      "channel": 3,
      "note": 76,
      "start": 12.7619,
      "duration": 0.266,
      "velocity": 89,
      "chip": "ym2612"
    },
    {
      "channel": 0,
      "note": 83,
      "start": 12.7643,
      "duration": 0.0029,
      "velocity": 100,
      "chip": "ym2612"
    },
    {
      "channel": 4,
      "note": 80,
      "start": 12.7649,
      "duration": 0.0025,
      "velocity": 100,
      "chip": "ym2612"
    },
    {
      "channel": 0,
      "note": 90,
      "start": 12.7673,
      "duration": 0.2021,
      "velocity": 100,
      "chip": "ym2612"
    },
    {
      "channel": 4,
      "note": 83,
      "start": 12.7675,
      "duration": 0.0688,
      "velocity": 100,
      "chip": "ym2612"
    },
    {
      "channel": 4,
      "note": 90,
      "start": 12.8366,
      "duration": 0.136,
      "velocity": 100,
      "chip": "ym2612"
    },
    {
      "channel": 0,
      "note": 88,
      "start": 12.9696,
      "duration": 0.1384,
      "velocity": 100,
      "chip": "ym2612"
    },
    {
      "channel": 1,
      "note": 63,
      "start": 12.9699,
      "duration": 0.0575,
      "velocity": 83,
      "chip": "ym2612"
    },
    {
      "channel": 4,
      "note": 88,
      "start": 12.9727,
      "duration": 0.139,
      "velocity": 100,
      "chip": "ym2612"
    },
    {
      "channel": 1,
      "note": 64,
      "start": 13.0275,
      "duration": 0.0805,
      "velocity": 83,
      "chip": "ym2612"
    },
    {
      "channel": 2,
      "note": 78,
      "start": 13.0278,
      "duration": 0.1393,
      "velocity": 89,
      "chip": "ym2612"
    },
    {
      "channel": 3,
      "note": 75,
      "start": 13.0282,
      "duration": 0.1393,
      "velocity": 89,
      "chip": "ym2612"
    },
    {
      "channel": 0,
      "note": 88,
      "start": 13.1079,
      "duration": 0.0588,
      "velocity": 100,
      "chip": "ym2612"
    },
    {
      "channel": 1,
      "note": 66,
      "start": 13.1082,
      "duration": 0.0586,
      "velocity": 83,
      "chip": "ym2612"
    },
    {
      "channel": 4,
      "note": 88,
      "start": 13.1117,
      "duration": 0.0589,
      "velocity": 100,
      "chip": "ym2612"
    },
    {
      "channel": 1,
      "note": 68,
      "start": 13.1671,
      "duration": 0.2085,
      "velocity": 83,
      "chip": "ym2612"
    },
    {
      "channel": 2,
      "note": 76,
      "start": 13.1674,
      "duration": 0.265,
      "velocity": 89,
      "chip": "ym2612"
    },
    {
      "channel": 3,
      "note": 73,
      "start": 13.1677,
      "duration": 0.265,
      "velocity": 89,
      "chip": "ym2612"
    },
    {
      "channel": 1,
      "note": 67,
      "start": 13.3758,
      "duration": 0.0562,
      "velocity": 83,
      "chip": "ym2612"
    },
    {
      "channel": 0,
      "note": 87,
      "start": 13.4318,
      "duration": 0.0031,
      "velocity": 100,
      "chip": "ym2612"
    },
    {
      "channel": 1,
      "note": 66,
      "start": 13.4322,
      "duration": 0.0793,
      "velocity": 83,
      "chip": "ym2612"
    },
    {
      "channel": 2,
      "note": 76,
      "start": 13.4324,
      "duration": 0.1368,
      "velocity": 89,
      "chip": "ym2612"
    },
    {
      "channel": 3,
      "note": 73,
      "start": 13.4327,
      "duration": 0.1369,
      "velocity": 89,
      "chip": "ym2612"
    },
    {
      "channel": 0,
      "note": 85,
      "start": 13.4352,
      "duration": 0.0069,
      "velocity": 100,
      "chip": "ym2612"
    },
    {
      "channel": 4,
      "note": 87,
      "start": 13.4359,
      "duration": 0.0039,
      "velocity": 100,
      "chip": "ym2612"
    },
    {
      "channel": 4,
      "note": 85,
      "start": 13.44,
      "duration": 0.072,
      "velocity": 100,
      "chip": "ym2612"
    },
    {
      "channel": 0,
      "note": 83,
      "start": 13.4422,
      "duration": 0.069,
      "velocity": 100,
      "chip": "ym2612"
    },
    {
      "channel": 0,
      "note": 85,
      "start": 13.5114,
      "duration": 0.003,
      "velocity": 100,
      "chip": "ym2612"
    },
    {
      "channel": 1,
      "note": 64,
      "start": 13.5117,
      "duration": 0.0573,
      "velocity": 83,
      "chip": "ym2612"
    },
    {
      "channel": 4,
      "note": 83,
      "start": 13.5124,
      "duration": 0.0023,
      "velocity": 100,
      "chip": "ym2612"
    },
    {
      "channel": 0,
      "note": 79,
      "start": 13.5145,
      "duration": 0.0021,
      "velocity": 100,
      "chip": "ym2612"
    },
    {
      "channel": 4,
      "note": 85,
      "start": 13.5148,
      "duration": 0.0019,
      "velocity": 100,
      "chip": "ym2612"
    },
    {
      "channel": 0,
      "note": 78,
      "start": 13.5166,
      "duration": 0.0019,
      "velocity": 100,
      "chip": "ym2612"
    },
    {
      "channel": 4,
      "note": 79,
      "start": 13.5168,
      "duration": 0.0019,
      "velocity": 100,
      "chip": "ym2612"
    },
    {
      "channel": 0,
      "note": 76,
      "start": 13.5186,
      "duration": 0.0501,
      "velocity": 100,
      "chip": "ym2612"
    },
    {
      "channel": 4,
      "note": 78,
      "start": 13.5189,
      "duration": 0.0511,
      "velocity": 100,
      "chip": "ym2612"
    },
    {
      "channel": 0,
      "note": 78,
      "start": 13.5689,
      "duration": 0.0031,
      "velocity": 100,
      "chip": "ym2612"
    },
    {
      "channel": 1,
      "note": 63,
      "start": 13.5692,
      "duration": 0.2085,
      "velocity": 83,
      "chip": "ym2612"
    },
    {
      "channel": 2,
      "note": 78,
      "start": 13.5695,
      "duration": 0.2666,
      "velocity": 89,
      "chip": "ym2612"
    },
    {
      "channel": 3,
      "note": 73,
      "start": 13.5698,
      "duration": 0.2666,
      "velocity": 89,
      "chip": "ym2612"
    },
    {
      "channel": 4,
      "note": 76,
      "start": 13.5701,
      "duration": 0.0026,
      "velocity": 100,
      "chip": "ym2612"
    },
    {
      "channel": 0,
      "note": 80,
      "start": 13.5723,
      "duration": 0.003,
      "velocity": 100,
      "chip": "ym2612"
    },
    {
      "channel": 4,
      "note": 78,
      "start": 13.573,
      "duration": 0.0028,
      "velocity": 100,
      "chip": "ym2612"
    },
    {
      "channel": 0,
      "note": 83,
      "start": 13.5755,
      "duration": 0.0686,
      "velocity": 100,
      "chip": "ym2612"
    },
    {
      "channel": 4,
      "note": 80,
      "start": 13.5758,
      "duration": 0.069,
      "velocity": 100,
      "chip": "ym2612"
    },
    {
      "channel": 0,
      "note": 80,
      "start": 13.6443,
      "duration": 0.2021,
      "velocity": 100,
      "chip": "ym2612"
    },
    {
      "channel": 4,
      "note": 83,
      "start": 13.645,
      "duration": 0.1333,
      "velocity": 100,
      "chip": "ym2612"
    },
    {
      "channel": 1,
      "note": 64,
      "start": 13.7779,
      "duration": 0.0577,
      "velocity": 83,
      "chip": "ym2612"
    },
    {
      "channel": 4,
      "note": 80,
      "start": 13.7786,
      "duration": 0.1376,
      "velocity": 100,
      "chip": "ym2612"
    },
    {
      "channel": 1,
      "note": 66,
      "start": 13.8358,
      "duration": 0.0796,
      "velocity": 83,
      "chip": "ym2612"
    },
    {
      "channel": 2,
      "note": 78,
      "start": 13.8361,
      "duration": 0.1373,
      "velocity": 89,
      "chip": "ym2612"
    },
    {
      "channel": 3,
      "note": 73,
      "start": 13.8363,
      "duration": 0.1374,
      "velocity": 89,
      "chip": "ym2612"
    },
    {
      "channel": 0,
      "note": 80,
      "start": 13.8464,
      "duration": 0.1265,
      "velocity": 100,
      "chip": "ym2612"
    },
    {
      "channel": 1,
      "note": 68,
      "start": 13.9156,
      "duration": 0.0575,
      "velocity": 83,
      "chip": "ym2612"
    },
    {
      "channel": 4,
      "note": 80,
      "start": 13.9162,
      "duration": 0.0607,
      "velocity": 100,
      "chip": "ym2612"
    },
    {
      "channel": 1,
      "note": 66,
      "start": 13.9733,
      "duration": 0.2083,
      "velocity": 83,
      "chip": "ym2612"
    },
    {
      "channel": 2,
      "note": 83,
      "start": 13.9737,
      "duration": 0.2647,
      "velocity": 89,
      "chip": "ym2612"
    },
    {
      "channel": 3,
      "note": 78,
      "start": 13.974,
      "duration": 0.2646,
      "velocity": 89,
      "chip": "ym2612"
    },
    {
      "channel": 1,
      "note": 64,
      "start": 14.1819,
      "duration": 0.056,
      "velocity": 83,
      "chip": "ym2612"
    },
    {
      "channel": 1,
      "note": 63,
      "start": 14.2381,
      "duration": 0.0776,
      "velocity": 83,
      "chip": "ym2612"
    },
    {
      "channel": 2,
      "note": 83,
      "start": 14.2383,
      "duration": 0.0916,
      "velocity": 89,
      "chip": "ym2612"
    },
    {
      "channel": 3,
      "note": 78,
      "start": 14.2385,
      "duration": 0.0915,
      "velocity": 89,
      "chip": "ym2612"
    },
    {
      "channel": 1,
      "note": 62,
      "start": 14.3159,
      "duration": 0.0139,
      "velocity": 83,
      "chip": "ym2612"
    },
    {
      "channel": 0,
      "note": 61,
      "start": 14.3298,
      "duration": 0.0708,
      "velocity": 100,
      "chip": "ym2612"
    },
    {
      "channel": 1,
      "note": 61,
      "start": 14.3299,
      "duration": 0.071,
      "velocity": 83,
      "chip": "ym2612"
    },
    {
      "channel": 2,
      "note": 68,
      "start": 14.33,
      "duration": 0.0712,
      "velocity": 89,
      "chip": "ym2612"
    },
    {
      "channel": 3,
      "note": 68,
      "start": 14.3301,
      "duration": 0.0715,
      "velocity": 89,
      "chip": "ym2612"
    },
    {
      "channel": 4,
      "note": 61,
      "start": 14.333,
      "duration": 0.0708,
      "velocity": 100,
      "chip": "ym2612"
    },
    {
      "channel": 0,
      "note": 73,
      "start": 14.4008,
      "duration": 0.0717,
      "velocity": 100,
      "chip": "ym2612"
    },
    {
      "channel": 1,
      "note": 73,
      "start": 14.4012,
      "duration": 0.0717,
      "velocity": 83,
      "chip": "ym2612"
    },
    {
      "channel": 2,
      "note": 80,
      "start": 14.4015,
      "duration": 0.0717,
      "velocity": 89,
      "chip": "ym2612"
    },
    {
      "channel": 3,
      "note": 80,
      "start": 14.4017,
      "duration": 0.0717,
      "velocity": 89,
      "chip": "ym2612"
    },
    {
      "channel": 4,
      "note": 73,
      "start": 14.4038,
      "duration": 0.0723,
      "velocity": 100,
      "chip": "ym2612"
    },
    {
      "channel": 0,
      "note": 71,
      "start": 14.4728,
      "duration": 0.006,
      "velocity": 100,
      "chip": "ym2612"
    },
    {
      "channel": 1,
      "note": 71,
      "start": 14.4731,
      "duration": 0.006,
      "velocity": 83,
      "chip": "ym2612"
    },
    {
      "channel": 2,
      "note": 78,
      "start": 14.4734,
      "duration": 0.006,
      "velocity": 89,
      "chip": "ym2612"
    },
    {
      "channel": 3,
      "note": 78,
      "start": 14.4737,
      "duration": 0.0061,
      "velocity": 89,
      "chip": "ym2612"
    },
    {
      "channel": 4,
      "note": 71,
      "start": 14.4763,
      "duration": 0.0071,
      "velocity": 100,
      "chip": "ym2612"
    },
    {
      "channel": 0,
      "note": 71,
      "start": 14.479,
      "duration": 0.0031,
      "velocity": 100,
      "chip": "ym2612"
    },
    {
      "channel": 1,
      "note": 71,
      "start": 14.4793,
      "duration": 0.0031,
      "velocity": 83,
      "chip": "ym2612"
    },
    {
      "channel": 2,
      "note": 78,
      "start": 14.4797,
      "duration": 0.0031,
      "velocity": 89,
      "chip": "ym2612"
    },
    {
      "channel": 3,
      "note": 78,
      "start": 14.48,
      "duration": 0.003,
      "velocity": 89,
      "chip": "ym2612"
    },
    {
      "channel": 0,
      "note": 73,
      "start": 14.4824,
      "duration": 0.0734,
      "velocity": 89,
      "chip": "ym2612"
    },
    {
      "channel": 1,
      "note": 73,
      "start": 14.4827,
      "duration": 0.0031,
      "velocity": 83,
      "chip": "ym2612"
    },
    {
      "channel": 2,
      "note": 80,
      "start": 14.483,
      "duration": 0.0732,
      "velocity": 89,
      "chip": "ym2612"
    },
    {
      "channel": 3,
      "note": 80,
      "start": 14.4834,
      "duration": 0.0734,
      "velocity": 89,
      "chip": "ym2612"
    },
    {
      "channel": 4,
      "note": 71,
      "start": 14.4836,
      "duration": 0.0023,
      "velocity": 100,
      "chip": "ym2612"
    },
    {
      "channel": 4,
      "note": 73,
      "start": 14.4861,
      "duration": 0.2036,
      "velocity": 89,
      "chip": "ym2612"
    },
    {
      "channel": 2,
      "note": 78,
      "start": 14.5565,
      "duration": 0.248,
      "velocity": 89,
      "chip": "ym2612"
    },
    {
      "channel": 0,
      "note": 83,
      "start": 14.6878,
      "duration": 0.2498,
      "velocity": 89,
      "chip": "ym2612"
    },
    {
      "channel": 3,
      "note": 78,
      "start": 14.7215,
      "duration": 0.1331,
      "velocity": 89,
      "chip": "ym2612"
    },
    {
      "channel": 2,
      "note": 88,
      "start": 14.8047,
      "duration": 0.2498,
      "velocity": 89,
      "chip": "ym2612"
    },
    {
      "channel": 4,
      "note": 83,
      "start": 14.8052,
      "duration": 0.2498,
      "velocity": 89,
      "chip": "ym2612"
    },
    {
      "channel": 3,
      "note": 83,
      "start": 14.8549,
      "duration": 0.1164,
      "velocity": 89,
      "chip": "ym2612"
    },
    {
      "channel": 0,
      "note": 93,
      "start": 14.9378,
      "duration": 0.2499,
      "velocity": 89,
      "chip": "ym2612"
    },
    {
      "channel": 3,
      "note": 88,
      "start": 14.9715,
      "duration": 0.1331,
      "velocity": 89,
      "chip": "ym2612"
    },
    {
      "channel": 2,
      "note": 98,
      "start": 15.0547,
      "duration": 0.256,
      "velocity": 89,
      "chip": "ym2612"
    },
    {
      "channel": 4,
      "note": 93,
      "start": 15.0552,
      "duration": 0.2499,
      "velocity": 89,
      "chip": "ym2612"
    },
    {
      "channel": 3,
      "note": 93,
      "start": 15.1049,
      "duration": 0.1164,
      "velocity": 89,
      "chip": "ym2612"
    },
    {
      "channel": 0,
      "note": 103,
      "start": 15.188,
      "duration": 0.1223,
      "velocity": 100,
      "chip": "ym2612"
    },
    {
      "channel": 3,
      "note": 98,
      "start": 15.2215,
      "duration": 0.085,
      "velocity": 89,
      "chip": "ym2612"
    },
    {
      "channel": 4,
      "note": 103,
      "start": 15.3053,
      "duration": 0.0091,
      "velocity": 100,
      "chip": "ym2612"
    },
    {
      "channel": 3,
      "note": 103,
      "start": 15.3066,
      "duration": 0.0044,
      "velocity": 89,
      "chip": "ym2612"
    },
    {
      "channel": 0,
      "note": 61,
      "start": 15.3104,
      "duration": 0.0716,
      "velocity": 100,
      "chip": "ym2612"
    },
    {
      "channel": 1,
      "note": 61,
      "start": 15.3106,
      "duration": 0.0718,
      "velocity": 83,
      "chip": "ym2612"
    },
    {
      "channel": 2,
      "note": 68,
      "start": 15.3108,
      "duration": 0.0719,
      "velocity": 89,
      "chip": "ym2612"
    },
    {
      "channel": 3,
      "note": 68,
      "start": 15.3111,
      "duration": 0.0719,
      "velocity": 89,
      "chip": "ym2612"
    },
    {
      "channel": 4,
      "note": 61,
      "start": 15.3145,
      "duration": 0.0708,
      "velocity": 100,
      "chip": "ym2612"
    },
    {
      "channel": 0,
      "note": 73,
      "start": 15.3823,
      "duration": 0.0717,
      "velocity": 100,
      "chip": "ym2612"
    },
    {
      "channel": 1,
      "note": 73,
      "start": 15.3826,
      "duration": 0.0717,
      "velocity": 83,
      "chip": "ym2612"
    },
    {
      "channel": 2,
      "note": 80,
      "start": 15.3829,
      "duration": 0.0717,
      "velocity": 89,
      "chip": "ym2612"
    },
    {
      "channel": 3,
      "note": 80,
      "start": 15.3832,
      "duration": 0.0718,
      "velocity": 89,
      "chip": "ym2612"
    },
    {
      "channel": 4,
      "note": 73,
      "start": 15.3853,
      "duration": 0.0723,
      "velocity": 100,
      "chip": "ym2612"
    },
    {
      "channel": 0,
      "note": 71,
      "start": 15.4543,
      "duration": 0.006,
      "velocity": 100,
      "chip": "ym2612"
    },
    {
      "channel": 1,
      "note": 71,
      "start": 15.4546,
      "duration": 0.006,
      "velocity": 83,
      "chip": "ym2612"
    },
    {
      "channel": 2,
      "note": 78,
      "start": 15.4549,
      "duration": 0.006,
      "velocity": 89,
      "chip": "ym2612"
    },
    {
      "channel": 3,
      "note": 78,
      "start": 15.4552,
      "duration": 0.0061,
      "velocity": 89,
      "chip": "ym2612"
    },
    {
      "channel": 4,
      "note": 71,
      "start": 15.4578,
      "duration": 0.007,
      "velocity": 100,
      "chip": "ym2612"
    },
    {
      "channel": 0,
      "note": 71,
      "start": 15.4605,
      "duration": 0.0027,
      "velocity": 100,
      "chip": "ym2612"
    },
    {
      "channel": 1,
      "note": 71,
      "start": 15.4609,
      "duration": 0.003,
      "velocity": 83,
      "chip": "ym2612"
    },
    {
      "channel": 2,
      "note": 78,
      "start": 15.4612,
      "duration": 0.003,
      "velocity": 89,
      "chip": "ym2612"
    },
    {
      "channel": 3,
      "note": 78,
      "start": 15.4616,
      "duration": 0.0029,
      "velocity": 89,
      "chip": "ym2612"
    },
    {
      "channel": 0,
      "note": 68,
      "start": 15.4636,
      "duration": 0.0742,
      "velocity": 89,
      "chip": "ym2612"
    },
    {
      "channel": 1,
      "note": 68,
      "start": 15.4641,
      "duration": 0.206,
      "velocity": 83,
      "chip": "ym2612"
    },
    {
      "channel": 2,
      "note": 76,
      "start": 15.4644,
      "duration": 0.0739,
      "velocity": 89,
      "chip": "ym2612"
    },
    {
      "channel": 3,
      "note": 76,
      "start": 15.4648,
      "duration": 0.0741,
      "velocity": 89,
      "chip": "ym2612"
    },
    {
      "channel": 4,
      "note": 71,
      "start": 15.465,
      "duration": 0.0034,
      "velocity": 100,
      "chip": "ym2612"
    },
    {
      "channel": 4,
      "note": 68,
      "start": 15.4685,
      "duration": 0.2037,
      "velocity": 89,
      "chip": "ym2612"
    },
    {
      "channel": 2,
      "note": 76,
      "start": 15.5386,
      "duration": 0.1358,
      "velocity": 89,
      "chip": "ym2612"
    },
    {
      "channel": 0,
      "note": 81,
      "start": 15.67,
      "duration": 0.0733,
      "velocity": 89,
      "chip": "ym2612"
    },
    {
      "channel": 1,
      "note": 67,
      "start": 15.6703,
      "duration": 0.0732,
      "velocity": 83,
      "chip": "ym2612"
    },
    {
      "channel": 3,
      "note": 76,
      "start": 15.6729,
      "duration": 0.0031,
      "velocity": 89,
      "chip": "ym2612"
    },
    {
      "channel": 2,
      "note": 86,
      "start": 15.6745,
      "duration": 0.0737,
      "velocity": 89,
      "chip": "ym2612"
    },
    {
      "channel": 4,
      "note": 81,
      "start": 15.6746,
      "duration": 0.0741,
      "velocity": 89,
      "chip": "ym2612"
    },
    {
      "channel": 3,
      "note": 81,
      "start": 15.6761,
      "duration": 0.0692,
      "velocity": 89,
      "chip": "ym2612"
    },
    {
      "channel": 0,
      "note": 91,
      "start": 15.7435,
      "duration": 0.0084,
      "velocity": 89,
      "chip": "ym2612"
    },
    {
      "channel": 1,
      "note": 66,
      "start": 15.7438,
      "duration": 0.0041,
      "velocity": 83,
      "chip": "ym2612"
    },
    {
      "channel": 3,
      "note": 86,
      "start": 15.7454,
      "duration": 0.0048,
      "velocity": 89,
      "chip": "ym2612"
    },
    {
      "channel": 1,
      "note": 64,
      "start": 15.7482,
      "duration": 0.2075,
      "velocity": 83,
      "chip": "ym2612"
    },
    {
      "channel": 2,
      "note": 96,
      "start": 15.7485,
      "duration": 0.2075,
      "velocity": 89,
      "chip": "ym2612"
    },
    {
      "channel": 4,
      "note": 91,
      "start": 15.7491,
      "duration": 0.0721,
      "velocity": 89,
      "chip": "ym2612"
    },
    {
      "channel": 3,
      "note": 91,
      "start": 15.7502,
      "duration": 0.0027,
      "velocity": 89,
      "chip": "ym2612"
    },
    {
      "channel": 0,
      "note": 101,
      "start": 15.752,
      "duration": 0.2035,
      "velocity": 100,
      "chip": "ym2612"
    },
    {
      "channel": 3,
      "note": 96,
      "start": 15.753,
      "duration": 0.1178,
      "velocity": 89,
      "chip": "ym2612"
    },
    {
      "channel": 4,
      "note": 101,
      "start": 15.8214,
      "duration": 0.1381,
      "velocity": 100,
      "chip": "ym2612"
    },
    {
      "channel": 3,
      "note": 101,
      "start": 15.8711,
      "duration": 0.0851,
      "velocity": 89,
      "chip": "ym2612"
    },
    {
      "channel": 0,
      "note": 61,
      "start": 15.9556,
      "duration": 0.0717,
      "velocity": 100,
      "chip": "ym2612"
    },
    {
      "channel": 1,
      "note": 61,
      "start": 15.9558,
      "duration": 0.0719,
      "velocity": 83,
      "chip": "ym2612"
    },
    {
      "channel": 2,
      "note": 68,
      "start": 15.956,
      "duration": 0.0719,
      "velocity": 89,
      "chip": "ym2612"
    },
    {
      "channel": 3,
      "note": 68,
      "start": 15.9563,
      "duration": 0.072,
      "velocity": 89,
      "chip": "ym2612"
    },
    {
      "channel": 4,
      "note": 61,
      "start": 15.9598,
      "duration": 0.0708,
      "velocity": 100,
      "chip": "ym2612"
    },
    {
      "channel": 0,
      "note": 73,
      "start": 16.0276,
      "duration": 0.0717,
      "velocity": 100,
      "chip": "ym2612"
    },
    {
      "channel": 1,
      "note": 73,
      "start": 16.0279,
      "duration": 0.0717,
      "velocity": 83,
      "chip": "ym2612"
    },
    {
      "channel": 2,
      "note": 80,
      "start": 16.0282,
      "duration": 0.0717,
      "velocity": 89,
      "chip": "ym2612"
    },
    {
      "channel": 3,
      "note": 80,
      "start": 16.0285,
      "duration": 0.0718,
      "velocity": 89,
      "chip": "ym2612"
    },
    {
      "channel": 4,
      "note": 73,
      "start": 16.0306,
      "duration": 0.0723,
      "velocity": 100,
      "chip": "ym2612"
    },
    {
      "channel": 0,
      "note": 71,
      "start": 16.0995,
      "duration": 0.006,
      "velocity": 100,
      "chip": "ym2612"
    },
    {
      "channel": 1,
      "note": 71,
      "start": 16.0998,
      "duration": 0.006,
      "velocity": 83,
      "chip": "ym2612"
    },
    {
      "channel": 2,
      "note": 78,
      "start": 16.1002,
      "duration": 0.006,
      "velocity": 89,
      "chip": "ym2612"
    },
    {
      "channel": 3,
      "note": 78,
      "start": 16.1004,
      "duration": 0.0061,
      "velocity": 89,
      "chip": "ym2612"
    },
    {
      "channel": 4,
      "note": 71,
      "start": 16.1031,
      "duration": 0.0066,
      "velocity": 100,
      "chip": "ym2612"
    },
    {
      "channel": 0,
      "note": 71,
      "start": 16.1058,
      "duration": 0.0026,
      "velocity": 100,
      "chip": "ym2612"
    },
    {
      "channel": 1,
      "note": 71,
      "start": 16.1061,
      "duration": 0.0027,
      "velocity": 83,
      "chip": "ym2612"
    },
    {
      "channel": 2,
      "note": 78,
      "start": 16.1064,
      "duration": 0.0027,
      "velocity": 89,
      "chip": "ym2612"
    },
    {
      "channel": 3,
      "note": 78,
      "start": 16.1068,
      "duration": 0.0026,
      "velocity": 89,
      "chip": "ym2612"
    },
    {
      "channel": 0,
      "note": 73,
      "start": 16.1088,
      "duration": 0.0734,
      "velocity": 89,
      "chip": "ym2612"
    },
    {
      "channel": 1,
      "note": 73,
      "start": 16.1091,
      "duration": 0.0031,
      "velocity": 83,
      "chip": "ym2612"
    },
    {
      "channel": 2,
      "note": 80,
      "start": 16.1094,
      "duration": 0.0732,
      "velocity": 89,
      "chip": "ym2612"
    },
    {
      "channel": 3,
      "note": 80,
      "start": 16.1097,
      "duration": 0.0734,
      "velocity": 89,
      "chip": "ym2612"
    },
    {
      "channel": 4,
      "note": 71,
      "start": 16.11,
      "duration": 0.0023,
      "velocity": 100,
      "chip": "ym2612"
    },
    {
      "channel": 4,
      "note": 73,
      "start": 16.1124,
      "duration": 0.2036,
      "velocity": 89,
      "chip": "ym2612"
    },
    {
      "channel": 2,
      "note": 78,
      "start": 16.1828,
      "duration": 0.248,
      "velocity": 89,
      "chip": "ym2612"
    },
    {
      "channel": 0,
      "note": 83,
      "start": 16.3142,
      "duration": 0.2498,
      "velocity": 89,
      "chip": "ym2612"
    },
    {
      "channel": 3,
      "note": 78,
      "start": 16.3479,
      "duration": 0.1331,
      "velocity": 89,
      "chip": "ym2612"
    },
    {
      "channel": 2,
      "note": 88,
      "start": 16.431,
      "duration": 0.2498,
      "velocity": 89,
      "chip": "ym2612"
    },
    {
      "channel": 4,
      "note": 83,
      "start": 16.4315,
      "duration": 0.2498,
      "velocity": 89,
      "chip": "ym2612"
    },
    {
      "channel": 3,
      "note": 83,
      "start": 16.4812,
      "duration": 0.1164,
      "velocity": 89,
      "chip": "ym2612"
    },
    {
      "channel": 0,
      "note": 93,
      "start": 16.5642,
      "duration": 0.2499,
      "velocity": 89,
      "chip": "ym2612"
    },
    {
      "channel": 3,
      "note": 88,
      "start": 16.5979,
      "duration": 0.1331,
      "velocity": 89,
      "chip": "ym2612"
    },
    {
      "channel": 2,
      "note": 98,
      "start": 16.681,
      "duration": 0.256,
      "velocity": 89,
      "chip": "ym2612"
    },
    {
      "channel": 4,
      "note": 93,
      "start": 16.6815,
      "duration": 0.2499,
      "velocity": 89,
      "chip": "ym2612"
    },
    {
      "channel": 3,
      "note": 93,
      "start": 16.7312,
      "duration": 0.1164,
      "velocity": 89,
      "chip": "ym2612"
    },
    {
      "channel": 0,
      "note": 103,
      "start": 16.8143,
      "duration": 0.1223,
      "velocity": 100,
      "chip": "ym2612"
    },
    {
      "channel": 3,
      "note": 98,
      "start": 16.8479,
      "duration": 0.085,
      "velocity": 89,
      "chip": "ym2612"
    },
    {
      "channel": 4,
      "note": 103,
      "start": 16.9317,
      "duration": 0.009,
      "velocity": 100,
      "chip": "ym2612"
    },
    {
      "channel": 3,
      "note": 103,
      "start": 16.933,
      "duration": 0.0043,
      "velocity": 89,
      "chip": "ym2612"
    },
    {
      "channel": 0,
      "note": 61,
      "start": 16.9368,
      "duration": 0.0716,
      "velocity": 100,
      "chip": "ym2612"
    },
    {
      "channel": 1,
      "note": 61,
      "start": 16.9369,
      "duration": 0.0718,
      "velocity": 83,
      "chip": "ym2612"
    },
    {
      "channel": 2,
      "note": 68,
      "start": 16.9371,
      "duration": 0.0719,
      "velocity": 89,
      "chip": "ym2612"
    },
    {
      "channel": 3,
      "note": 68,
      "start": 16.9375,
      "duration": 0.0719,
      "velocity": 89,
      "chip": "ym2612"
    },
    {
      "channel": 4,
      "note": 61,
      "start": 16.9408,
      "duration": 0.0708,
      "velocity": 100,
      "chip": "ym2612"
    },
    {
      "channel": 0,
      "note": 73,
      "start": 17.0086,
      "duration": 0.0717,
      "velocity": 100,
      "chip": "ym2612"
    },
    {
      "channel": 1,
      "note": 73,
      "start": 17.0089,
      "duration": 0.0717,
      "velocity": 83,
      "chip": "ym2612"
    },
    {
      "channel": 2,
      "note": 80,
      "start": 17.0093,
      "duration": 0.0717,
      "velocity": 89,
      "chip": "ym2612"
    },
    {
      "channel": 3,
      "note": 80,
      "start": 17.0095,
      "duration": 0.0718,
      "velocity": 89,
      "chip": "ym2612"
    },
    {
      "channel": 4,
      "note": 73,
      "start": 17.0117,
      "duration": 0.0723,
      "velocity": 100,
      "chip": "ym2612"
    },
    {
      "channel": 0,
      "note": 71,
      "start": 17.0806,
      "duration": 0.006,
      "velocity": 100,
      "chip": "ym2612"
    },
    {
      "channel": 1,
      "note": 71,
      "start": 17.0809,
      "duration": 0.006,
      "velocity": 83,
      "chip": "ym2612"
    },
    {
      "channel": 2,
      "note": 78,
      "start": 17.0812,
      "duration": 0.006,
      "velocity": 89,
      "chip": "ym2612"
    },
    {
      "channel": 3,
      "note": 78,
      "start": 17.0815,
      "duration": 0.0061,
      "velocity": 89,
      "chip": "ym2612"
    },
    {
      "channel": 4,
      "note": 71,
      "start": 17.0842,
      "duration": 0.007,
      "velocity": 100,
      "chip": "ym2612"
    },
    {
      "channel": 0,
      "note": 71,
      "start": 17.0869,
      "duration": 0.0027,
      "velocity": 100,
      "chip": "ym2612"
    },
    {
      "channel": 1,
      "note": 71,
      "start": 17.0872,
      "duration": 0.003,
      "velocity": 83,
      "chip": "ym2612"
    },
    {
      "channel": 2,
      "note": 78,
      "start": 17.0875,
      "duration": 0.003,
      "velocity": 89,
      "chip": "ym2612"
    },
    {
      "channel": 3,
      "note": 78,
      "start": 17.0879,
      "duration": 0.0029,
      "velocity": 89,
      "chip": "ym2612"
    },
    {
      "channel": 0,
      "note": 68,
      "start": 17.0899,
      "duration": 0.0742,
      "velocity": 89,
      "chip": "ym2612"
    },
    {
      "channel": 1,
      "note": 68,
      "start": 17.0904,
      "duration": 0.206,
      "velocity": 83,
      "chip": "ym2612"
    },
    {
      "channel": 2,
      "note": 76,
      "start": 17.0907,
      "duration": 0.0739,
      "velocity": 89,
      "chip": "ym2612"
    },
    {
      "channel": 3,
      "note": 76,
      "start": 17.0911,
      "duration": 0.0741,
      "velocity": 89,
      "chip": "ym2612"
    },
    {
      "channel": 4,
      "note": 71,
      "start": 17.0913,
      "duration": 0.0034,
      "velocity": 100,
      "chip": "ym2612"
    },
    {
      "channel": 4,
      "note": 68,
      "start": 17.0948,
      "duration": 0.2037,
      "velocity": 89,
      "chip": "ym2612"
    },
    {
      "channel": 2,
      "note": 76,
      "start": 17.1649,
      "duration": 0.1358,
      "velocity": 89,
      "chip": "ym2612"
    },
    {
      "channel": 0,
      "note": 81,
      "start": 17.2963,
      "duration": 0.0733,
      "velocity": 89,
      "chip": "ym2612"
    },
    {
      "channel": 1,
      "note": 67,
      "start": 17.2967,
      "duration": 0.0732,
      "velocity": 83,
      "chip": "ym2612"
    },
    {
      "channel": 3,
      "note": 76,
      "start": 17.2992,
      "duration": 0.0031,
      "velocity": 89,
      "chip": "ym2612"
    },
    {
      "channel": 2,
      "note": 86,
      "start": 17.3008,
      "duration": 0.0737,
      "velocity": 89,
      "chip": "ym2612"
    },
    {
      "channel": 4,
      "note": 81,
      "start": 17.301,
      "duration": 0.0741,
      "velocity": 89,
      "chip": "ym2612"
    },
    {
      "channel": 3,
      "note": 81,
      "start": 17.3024,
      "duration": 0.0692,
      "velocity": 89,
      "chip": "ym2612"
    },
    {
      "channel": 0,
      "note": 91,
      "start": 17.3698,
      "duration": 0.0084,
      "velocity": 89,
      "chip": "ym2612"
    },
    {
      "channel": 1,
      "note": 66,
      "start": 17.3702,
      "duration": 0.0041,
      "velocity": 83,
      "chip": "ym2612"
    },
    {
      "channel": 3,
      "note": 86,
      "start": 17.3717,
      "duration": 0.0048,
      "velocity": 89,
      "chip": "ym2612"
    },
    {
      "channel": 1,
      "note": 64,
      "start": 17.3745,
      "duration": 0.2082,
      "velocity": 107,
      "chip": "ym2612"
    },
    {
      "channel": 2,
      "note": 96,
      "start": 17.3748,
      "duration": 0.2082,
      "velocity": 89,
      "chip": "ym2612"
    },
    {
      "channel": 4,
      "note": 91,
      "start": 17.3754,
      "duration": 0.0721,
      "velocity": 89,
      "chip": "ym2612"
    },
    {
      "channel": 3,
      "note": 91,
      "start": 17.3766,
      "duration": 0.0027,
      "velocity": 89,
      "chip": "ym2612"
    },
    {
      "channel": 0,
      "note": 101,
      "start": 17.3783,
      "duration": 0.2033,
      "velocity": 100,
      "chip": "ym2612"
    },
    {
      "channel": 3,
      "note": 96,
      "start": 17.3794,
      "duration": 0.1178,
      "velocity": 89,
      "chip": "ym2612"
    },
    {
      "channel": 4,
      "note": 101,
      "start": 17.4478,
      "duration": 0.1392,
      "velocity": 100,
      "chip": "ym2612"
    },
    {
      "channel": 3,
      "note": 101,
      "start": 17.4974,
      "duration": 0.0859,
      "velocity": 89,
      "chip": "ym2612"
    },
    {
      "channel": 1,
      "note": 63,
      "start": 17.5829,
      "duration": 0.0716,
      "velocity": 107,
      "chip": "ym2612"
    },
    {
      "channel": 2,
      "note": 78,
      "start": 17.5832,
      "duration": 0.353,
      "velocity": 89,
      "chip": "ym2612"
    },
    {
      "channel": 3,
      "note": 73,
      "start": 17.5834,
      "duration": 0.3532,
      "velocity": 89,
      "chip": "ym2612"
    },
    {
      "channel": 0,
      "note": 78,
      "start": 17.5856,
      "duration": 0.0686,
      "velocity": 100,
      "chip": "ym2612"
    },
    {
      "channel": 0,
      "note": 80,
      "start": 17.6544,
      "duration": 0.0028,
      "velocity": 100,
      "chip": "ym2612"
    },
    {
      "channel": 1,
      "note": 63,
      "start": 17.6548,
      "duration": 0.0753,
      "velocity": 107,
      "chip": "ym2612"
    },
    {
      "channel": 4,
      "note": 78,
      "start": 17.6554,
      "duration": 0.0022,
      "velocity": 100,
      "chip": "ym2612"
    },
    {
      "channel": 0,
      "note": 83,
      "start": 17.6574,
      "duration": 0.0724,
      "velocity": 100,
      "chip": "ym2612"
    },
    {
      "channel": 4,
      "note": 80,
      "start": 17.6577,
      "duration": 0.0691,
      "velocity": 100,
      "chip": "ym2612"
    },
    {
      "channel": 4,
      "note": 83,
      "start": 17.7271,
      "duration": 0.0066,
      "velocity": 100,
      "chip": "ym2612"
    },
    {
      "channel": 0,
      "note": 85,
      "start": 17.73,
      "duration": 0.0033,
      "velocity": 100,
      "chip": "ym2612"
    },
    {
      "channel": 1,
      "note": 63,
      "start": 17.7303,
      "duration": 0.2056,
      "velocity": 107,
      "chip": "ym2612"
    },
    {
      "channel": 0,
      "note": 83,
      "start": 17.7334,
      "duration": 0.0687,
      "velocity": 100,
      "chip": "ym2612"
    },
    {
      "channel": 4,
      "note": 85,
      "start": 17.7338,
      "duration": 0.069,
      "velocity": 100,
      "chip": "ym2612"
    },
    {
      "channel": 0,
      "note": 81,
      "start": 17.8023,
      "duration": 0.1333,
      "velocity": 100,
      "chip": "ym2612"
    },
    {
      "channel": 4,
      "note": 83,
      "start": 17.803,
      "duration": 0.1339,
      "velocity": 100,
      "chip": "ym2612"
    },
    {
      "channel": 0,
      "note": 80,
      "start": 17.9359,
      "duration": 0.1989,
      "velocity": 100,
      "chip": "ym2612"
    },
    {
      "channel": 1,
      "note": 62,
      "start": 17.9362,
      "duration": 0.1887,
      "velocity": 107,
      "chip": "ym2612"
    },
    {
      "channel": 2,
      "note": 76,
      "start": 17.9365,
      "duration": 0.2712,
      "velocity": 89,
      "chip": "ym2612"
    },
    {
      "channel": 3,
      "note": 72,
      "start": 17.9369,
      "duration": 0.2711,
      "velocity": 89,
      "chip": "ym2612"
    },
    {
      "channel": 4,
      "note": 81,
      "start": 17.9371,
      "duration": 0.0022,
      "velocity": 100,
      "chip": "ym2612"
    },
    {
      "channel": 4,
      "note": 80,
      "start": 17.9395,
      "duration": 0.1988,
      "velocity": 100,
      "chip": "ym2612"
    },
    {
      "channel": 1,
      "note": 62,
      "start": 18.125,
      "duration": 0.01,
      "velocity": 107,
      "chip": "ym2612"
    },
    {
      "channel": 0,
      "note": 78,
      "start": 18.135,
      "duration": 0.0028,
      "velocity": 100,
      "chip": "ym2612"
    },
    {
      "channel": 1,
      "note": 62,
      "start": 18.1353,
      "duration": 0.0721,
      "velocity": 107,
      "chip": "ym2612"
    },
    {
      "channel": 0,
      "note": 76,
      "start": 18.138,
      "duration": 0.069,
      "velocity": 100,
      "chip": "ym2612"
    },
    {
      "channel": 4,
      "note": 78,
      "start": 18.1384,
      "duration": 0.07,
      "velocity": 100,
      "chip": "ym2612"
    },
    {
      "channel": 0,
      "note": 75,
      "start": 18.2073,
      "duration": 0.0031,
      "velocity": 100,
      "chip": "ym2612"
    },
    {
      "channel": 1,
      "note": 61,
      "start": 18.2077,
      "duration": 0.0721,
      "velocity": 107,
      "chip": "ym2612"
    },
    {
      "channel": 2,
      "note": 76,
      "start": 18.208,
      "duration": 0.3534,
      "velocity": 89,
      "chip": "ym2612"
    },
    {
      "channel": 3,
      "note": 71,
      "start": 18.2083,
      "duration": 0.3534,
      "velocity": 89,
      "chip": "ym2612"
    },
    {
      "channel": 4,
      "note": 76,
      "start": 18.2085,
      "duration": 0.0022,
      "velocity": 100,
      "chip": "ym2612"
    },
    {
      "channel": 0,
      "note": 76,
      "start": 18.2106,
      "duration": 0.0689,
      "velocity": 100,
      "chip": "ym2612"
    },
    {
      "channel": 4,
      "note": 75,
      "start": 18.2108,
      "duration": 0.0696,
      "velocity": 100,
      "chip": "ym2612"
    },
    {
      "channel": 0,
      "note": 78,
      "start": 18.2797,
      "duration": 0.0027,
      "velocity": 100,
      "chip": "ym2612"
    },
    {
      "channel": 1,
      "note": 61,
      "start": 18.28,
      "duration": 0.0751,
      "velocity": 107,
      "chip": "ym2612"
    },
    {
      "channel": 4,
      "note": 76,
      "start": 18.2807,
      "duration": 0.002,
      "velocity": 100,
      "chip": "ym2612"
    },
    {
      "channel": 0,
      "note": 80,
      "start": 18.2826,
      "duration": 0.076,
      "velocity": 100,
      "chip": "ym2612"
    },
    {
      "channel": 4,
      "note": 78,
      "start": 18.2828,
      "duration": 0.0691,
      "velocity": 100,
      "chip": "ym2612"
    },
    {
      "channel": 4,
      "note": 80,
      "start": 18.3521,
      "duration": 0.0757,
      "velocity": 100,
      "chip": "ym2612"
    },
    {
      "channel": 1,
      "note": 73,
      "start": 18.3554,
      "duration": 0.2056,
      "velocity": 107,
      "chip": "ym2612"
    },
    {
      "channel": 0,
      "note": 76,
      "start": 18.3587,
      "duration": 0.202,
      "velocity": 100,
      "chip": "ym2612"
    },
    {
      "channel": 4,
      "note": 76,
      "start": 18.428,
      "duration": 0.1363,
      "velocity": 100,
      "chip": "ym2612"
    },
    {
      "channel": 0,
      "note": 75,
      "start": 18.561,
      "duration": 0.2714,
      "velocity": 100,
      "chip": "ym2612"
    },
    {
      "channel": 1,
      "note": 72,
      "start": 18.5613,
      "duration": 0.1887,
      "velocity": 107,
      "chip": "ym2612"
    },
    {
      "channel": 2,
      "note": 75,
      "start": 18.5616,
      "duration": 0.2714,
      "velocity": 89,
      "chip": "ym2612"
    },
    {
      "channel": 3,
      "note": 70,
      "start": 18.5621,
      "duration": 0.2713,
      "velocity": 89,
      "chip": "ym2612"
    },
    {
      "channel": 4,
      "note": 75,
      "start": 18.5644,
      "duration": 0.2713,
      "velocity": 100,
      "chip": "ym2612"
    },
    {
      "channel": 1,
      "note": 72,
      "start": 18.7501,
      "duration": 0.01,
      "velocity": 107,
      "chip": "ym2612"
    },
    {
      "channel": 1,
      "note": 72,
      "start": 18.7603,
      "duration": 0.0724,
      "velocity": 107,
      "chip": "ym2612"
    },
    {
      "channel": 0,
      "note": 74,
      "start": 18.8327,
      "duration": 0.0748,
      "velocity": 100,
      "chip": "ym2612"
    },
    {
      "channel": 1,
      "note": 71,
      "start": 18.833,
      "duration": 0.0716,
      "velocity": 107,
      "chip": "ym2612"
    },
    {
      "channel": 2,
      "note": 74,
      "start": 18.8333,
      "duration": 0.3532,
      "velocity": 89,
      "chip": "ym2612"
    },
    {
      "channel": 3,
      "note": 69,
      "start": 18.8337,
      "duration": 0.3531,
      "velocity": 89,
      "chip": "ym2612"
    },
    {
      "channel": 4,
      "note": 74,
      "start": 18.8357,
      "duration": 0.1415,
      "velocity": 100,
      "chip": "ym2612"
    },
    {
      "channel": 1,
      "note": 71,
      "start": 18.9048,
      "duration": 0.0758,
      "velocity": 107,
      "chip": "ym2612"
    },
    {
      "channel": 0,
      "note": 76,
      "start": 18.9075,
      "duration": 0.0728,
      "velocity": 100,
      "chip": "ym2612"
    },
    {
      "channel": 4,
      "note": 76,
      "start": 18.9775,
      "duration": 0.0066,
      "velocity": 100,
      "chip": "ym2612"
    },
    {
      "channel": 0,
      "note": 78,
      "start": 18.9805,
      "duration": 0.2053,
      "velocity": 100,
      "chip": "ym2612"
    },
    {
      "channel": 1,
      "note": 71,
      "start": 18.9808,
      "duration": 0.2054,
      "velocity": 107,
      "chip": "ym2612"
    },
    {
      "channel": 4,
      "note": 78,
      "start": 18.9841,
      "duration": 0.2051,
      "velocity": 100,
      "chip": "ym2612"
    },
    {
      "channel": 0,
      "note": 79,
      "start": 19.1861,
      "duration": 0.1889,
      "velocity": 100,
      "chip": "ym2612"
    },
    {
      "channel": 1,
      "note": 70,
      "start": 19.1864,
      "duration": 0.1888,
      "velocity": 107,
      "chip": "ym2612"
    },
    {
      "channel": 2,
      "note": 72,
      "start": 19.1868,
      "duration": 0.2706,
      "velocity": 89,
      "chip": "ym2612"
    },
    {
      "channel": 3,
      "note": 68,
      "start": 19.187,
      "duration": 0.2706,
      "velocity": 89,
      "chip": "ym2612"
    },
    {
      "channel": 4,
      "note": 79,
      "start": 19.1894,
      "duration": 0.1903,
      "velocity": 100,
      "chip": "ym2612"
    },
    {
      "channel": 0,
      "note": 81,
      "start": 19.3752,
      "duration": 0.0093,
      "velocity": 100,
      "chip": "ym2612"
    },
    {
      "channel": 1,
      "note": 82,
      "start": 19.3755,
      "duration": 0.0093,
      "velocity": 107,
      "chip": "ym2612"
    },
    {
      "channel": 4,
      "note": 81,
      "start": 19.3799,
      "duration": 0.008,
      "velocity": 100,
      "chip": "ym2612"
    },
    {
      "channel": 0,
      "note": 83,
      "start": 19.3848,
      "duration": 0.0719,
      "velocity": 100,
      "chip": "ym2612"
    },
    {
      "channel": 1,
      "note": 70,
      "start": 19.3851,
      "duration": 0.0719,
      "velocity": 107,
      "chip": "ym2612"
    },
    {
      "channel": 4,
      "note": 83,
      "start": 19.388,
      "duration": 0.0723,
      "velocity": 100,
      "chip": "ym2612"
    },
    {
      "channel": 0,
      "note": 85,
      "start": 19.4569,
      "duration": 0.3541,
      "velocity": 100,
      "chip": "ym2612"
    },
    {
      "channel": 1,
      "note": 69,
      "start": 19.4573,
      "duration": 0.072,
      "velocity": 107,
      "chip": "ym2612"
    },
    {
      "channel": 2,
      "note": 73,
      "start": 19.4576,
      "duration": 0.3537,
      "velocity": 89,
      "chip": "ym2612"
    },
    {
      "channel": 3,
      "note": 68,
      "start": 19.458,
      "duration": 0.3536,
      "velocity": 89,
      "chip": "ym2612"
    },
    {
      "channel": 4,
      "note": 85,
      "start": 19.4603,
      "duration": 0.3545,
      "velocity": 100,
      "chip": "ym2612"
    },
    {
      "channel": 1,
      "note": 69,
      "start": 19.5294,
      "duration": 0.0761,
      "velocity": 107,
      "chip": "ym2612"
    },
    {
      "channel": 1,
      "note": 69,
      "start": 19.6058,
      "duration": 0.2053,
      "velocity": 107,
      "chip": "ym2612"
    },
    {
      "channel": 0,
      "note": 85,
      "start": 19.811,
      "duration": 0.2004,
      "velocity": 100,
      "chip": "ym2612"
    },
    {
      "channel": 1,
      "note": 69,
      "start": 19.8112,
      "duration": 0.2075,
      "velocity": 107,
      "chip": "ym2612"
    },
    {
      "channel": 2,
      "note": 73,
      "start": 19.8116,
      "duration": 0.2075,
      "velocity": 89,
      "chip": "ym2612"
    },
    {
      "channel": 3,
      "note": 67,
      "start": 19.8119,
      "duration": 0.2074,
      "velocity": 89,
      "chip": "ym2612"
    },
    {
      "channel": 4,
      "note": 85,
      "start": 19.8149,
      "duration": 0.2011,
      "velocity": 100,
      "chip": "ym2612"
    },
    {
      "channel": 0,
      "note": 83,
      "start": 20.0117,
      "duration": 0.0034,
      "velocity": 100,
      "chip": "ym2612"
    },
    {
      "channel": 0,
      "note": 81,
      "start": 20.0154,
      "duration": 0.003,
      "velocity": 100,
      "chip": "ym2612"
    },
    {
      "channel": 4,
      "note": 83,
      "start": 20.0162,
      "duration": 0.0035,
      "velocity": 100,
      "chip": "ym2612"
    },
    {
      "channel": 0,
      "note": 85,
      "start": 20.0187,
      "duration": 0.0032,
      "velocity": 100,
      "chip": "ym2612"
    },
    {
      "channel": 1,
      "note": 62,
      "start": 20.019,
      "duration": 0.072,
      "velocity": 107,
      "chip": "ym2612"
    },
    {
      "channel": 2,
      "note": 69,
      "start": 20.0192,
      "duration": 0.3536,
      "velocity": 89,
      "chip": "ym2612"
    },
    {
      "channel": 3,
      "note": 66,
      "start": 20.0195,
      "duration": 0.3536,
      "velocity": 89,
      "chip": "ym2612"
    },
    {
      "channel": 4,
      "note": 81,
      "start": 20.0198,
      "duration": 0.0023,
      "velocity": 100,
      "chip": "ym2612"
    },
    {
      "channel": 0,
      "note": 81,
      "start": 20.022,
      "duration": 0.0719,
      "velocity": 100,
      "chip": "ym2612"
    },
    {
      "channel": 4,
      "note": 85,
      "start": 20.0224,
      "duration": 0.0692,
      "velocity": 100,
      "chip": "ym2612"
    },
    {
      "channel": 1,
      "note": 62,
      "start": 20.0912,
      "duration": 0.0758,
      "velocity": 107,
      "chip": "ym2612"
    },
    {
      "channel": 4,
      "note": 81,
      "start": 20.0918,
      "duration": 0.0718,
      "velocity": 100,
      "chip": "ym2612"
    },
    {
      "channel": 0,
      "note": 81,
      "start": 20.0941,
      "duration": 0.0725,
      "velocity": 100,
      "chip": "ym2612"
    },
    {
      "channel": 4,
      "note": 81,
      "start": 20.1639,
      "duration": 0.0066,
      "velocity": 100,
      "chip": "ym2612"
    },
    {
      "channel": 0,
      "note": 78,
      "start": 20.1669,
      "duration": 0.2053,
      "velocity": 100,
      "chip": "ym2612"
    },
    {
      "channel": 1,
      "note": 62,
      "start": 20.1671,
      "duration": 0.2054,
      "velocity": 107,
      "chip": "ym2612"
    },
    {
      "channel": 4,
      "note": 78,
      "start": 20.1705,
      "duration": 0.2054,
      "velocity": 100,
      "chip": "ym2612"
    },
    {
      "channel": 0,
      "note": 81,
      "start": 20.3725,
      "duration": 0.1891,
      "velocity": 100,
      "chip": "ym2612"
    },
    {
      "channel": 1,
      "note": 67,
      "start": 20.3728,
      "duration": 0.1928,
      "velocity": 107,
      "chip": "ym2612"
    },
    {
      "channel": 2,
      "note": 71,
      "start": 20.3731,
      "duration": 0.2713,
      "velocity": 89,
      "chip": "ym2612"
    },
    {
      "channel": 3,
      "note": 65,
      "start": 20.3735,
      "duration": 0.2712,
      "velocity": 89,
      "chip": "ym2612"
    },
    {
      "channel": 4,
      "note": 81,
      "start": 20.3761,
      "duration": 0.1902,
      "velocity": 100,
      "chip": "ym2612"
    },
    {
      "channel": 0,
      "note": 83,
      "start": 20.5618,
      "duration": 0.0095,
      "velocity": 100,
      "chip": "ym2612"
    },
    {
      "channel": 1,
      "note": 67,
      "start": 20.5658,
      "duration": 0.0782,
      "velocity": 107,
      "chip": "ym2612"
    },
    {
      "channel": 4,
      "note": 83,
      "start": 20.5665,
      "duration": 0.0082,
      "velocity": 100,
      "chip": "ym2612"
    },
    {
      "channel": 0,
      "note": 86,
      "start": 20.5716,
      "duration": 0.0722,
      "velocity": 100,
      "chip": "ym2612"
    },
    {
      "channel": 4,
      "note": 86,
      "start": 20.5749,
      "duration": 0.0724,
      "velocity": 100,
      "chip": "ym2612"
    },
    {
      "channel": 0,
      "note": 85,
      "start": 20.644,
      "duration": 0.1515,
      "velocity": 100,
      "chip": "ym2612"
    },
    {
      "channel": 1,
      "note": 66,
      "start": 20.6443,
      "duration": 0.0719,
      "velocity": 107,
      "chip": "ym2612"
    },
    {
      "channel": 2,
      "note": 69,
      "start": 20.6446,
      "duration": 0.3537,
      "velocity": 89,
      "chip": "ym2612"
    },
    {
      "channel": 3,
      "note": 64,
      "start": 20.645,
      "duration": 0.3536,
      "velocity": 89,
      "chip": "ym2612"
    },
    {
      "channel": 4,
      "note": 85,
      "start": 20.6474,
      "duration": 0.2174,
      "velocity": 100,
      "chip": "ym2612"
    },
    {
      "channel": 1,
      "note": 66,
      "start": 20.7163,
      "duration": 0.076,
      "velocity": 107,
      "chip": "ym2612"
    },
    {
      "channel": 1,
      "note": 66,
      "start": 20.7926,
      "duration": 0.2054,
      "velocity": 107,
      "chip": "ym2612"
    },
    {
      "channel": 0,
      "note": 83,
      "start": 20.7956,
      "duration": 0.0685,
      "velocity": 100,
      "chip": "ym2612"
    },
    {
      "channel": 0,
      "note": 81,
      "start": 20.8644,
      "duration": 0.1333,
      "velocity": 100,
      "chip": "ym2612"
    },
    {
      "channel": 4,
      "note": 83,
      "start": 20.8651,
      "duration": 0.1339,
      "velocity": 100,
      "chip": "ym2612"
    },
    {
      "channel": 0,
      "note": 84,
      "start": 20.9979,
      "duration": 0.072,
      "velocity": 100,
      "chip": "ym2612"
    },
    {
      "channel": 1,
      "note": 65,
      "start": 20.9982,
      "duration": 0.1928,
      "velocity": 107,
      "chip": "ym2612"
    },
    {
      "channel": 2,
      "note": 67,
      "start": 20.9985,
      "duration": 0.2713,
      "velocity": 89,
      "chip": "ym2612"
    },
    {
      "channel": 3,
      "note": 63,
      "start": 20.9989,
      "duration": 0.2713,
      "velocity": 89,
      "chip": "ym2612"
    },
    {
      "channel": 4,
      "note": 81,
      "start": 20.9991,
      "duration": 0.0024,
      "velocity": 100,
      "chip": "ym2612"
    },
    {
      "channel": 4,
      "note": 84,
      "start": 21.0016,
      "duration": 0.1857,
      "velocity": 100,
      "chip": "ym2612"
    },
    {
      "channel": 0,
      "note": 83,
      "start": 21.0702,
      "duration": 0.1204,
      "velocity": 100,
      "chip": "ym2612"
    },
    {
      "channel": 4,
      "note": 83,
      "start": 21.1876,
      "duration": 0.0067,
      "velocity": 100,
      "chip": "ym2612"
    },
    {
      "channel": 0,
      "note": 81,
      "start": 21.1909,
      "duration": 0.0784,
      "velocity": 100,
      "chip": "ym2612"
    },
    {
      "channel": 1,
      "note": 65,
      "start": 21.1912,
      "duration": 0.0784,
      "velocity": 107,
      "chip": "ym2612"
    },
    {
      "channel": 4,
      "note": 81,
      "start": 21.1943,
      "duration": 0.0785,
      "velocity": 100,
      "chip": "ym2612"
    },
    {
      "channel": 0,
      "note": 80,
      "start": 21.2695,
      "duration": 0.0031,
      "velocity": 100,
      "chip": "ym2612"
    },
    {
      "channel": 1,
      "note": 64,
      "start": 21.2698,
      "duration": 0.072,
      "velocity": 107,
      "chip": "ym2612"
    },
    {
      "channel": 2,
      "note": 68,
      "start": 21.2701,
      "duration": 0.2712,
      "velocity": 89,
      "chip": "ym2612"
    },
    {
      "channel": 3,
      "note": 63,
      "start": 21.2706,
      "duration": 0.271,
      "velocity": 89,
      "chip": "ym2612"
    },
    {
      "channel": 0,
      "note": 83,
      "start": 21.2727,
      "duration": 0.0689,
      "velocity": 100,
      "chip": "ym2612"
    },
    {
      "channel": 4,
      "note": 80,
      "start": 21.2729,
      "duration": 0.0695,
      "velocity": 100,
      "chip": "ym2612"
    },
    {
      "channel": 0,
      "note": 85,
      "start": 21.3418,
      "duration": 0.1166,
      "velocity": 100,
      "chip": "ym2612"
    },
    {
      "channel": 1,
      "note": 64,
      "start": 21.342,
      "duration": 0.1241,
      "velocity": 107,
      "chip": "ym2612"
    },
    {
      "channel": 4,
      "note": 83,
      "start": 21.3427,
      "duration": 0.1165,
      "velocity": 100,
      "chip": "ym2612"
    },
    {
      "channel": 0,
      "note": 80,
      "start": 21.4586,
      "duration": 0.0073,
      "velocity": 100,
      "chip": "ym2612"
    },
    {
      "channel": 4,
      "note": 85,
      "start": 21.4593,
      "duration": 0.0038,
      "velocity": 100,
      "chip": "ym2612"
    },
    {
      "channel": 4,
      "note": 80,
      "start": 21.4634,
      "duration": 0.0055,
      "velocity": 100,
      "chip": "ym2612"
    },
    {
      "channel": 0,
      "note": 83,
      "start": 21.4661,
      "duration": 0.002,
      "velocity": 100,
      "chip": "ym2612"
    },
    {
      "channel": 1,
      "note": 64,
      "start": 21.4661,
      "duration": 0.0747,
      "velocity": 107,
      "chip": "ym2612"
    },
    {
      "channel": 0,
      "note": 85,
      "start": 21.4685,
      "duration": 0.003,
      "velocity": 100,
      "chip": "ym2612"
    },
    {
      "channel": 4,
      "note": 83,
      "start": 21.4691,
      "duration": 0.0027,
      "velocity": 100,
      "chip": "ym2612"
    },
    {
      "channel": 0,
      "note": 80,
      "start": 21.4716,
      "duration": 0.069,
      "velocity": 100,
      "chip": "ym2612"
    },
    {
      "channel": 4,
      "note": 85,
      "start": 21.4719,
      "duration": 0.07,
      "velocity": 100,
      "chip": "ym2612"
    },
    {
      "channel": 1,
      "note": 64,
      "start": 21.541,
      "duration": 0.1736,
      "velocity": 107,
      "chip": "ym2612"
    },
    {
      "channel": 2,
      "note": 68,
      "start": 21.5413,
      "duration": 0.0972,
      "velocity": 89,
      "chip": "ym2612"
    },
    {
      "channel": 3,
      "note": 63,
      "start": 21.5415,
      "duration": 0.098,
      "velocity": 107,
      "chip": "ym2612"
    },
    {
      "channel": 4,
      "note": 80,
      "start": 21.542,
      "duration": 0.0977,
      "velocity": 100,
      "chip": "ym2612"
    },
    {
      "channel": 0,
      "note": 68,
      "start": 21.6384,
      "duration": 0.0031,
      "velocity": 90,
      "chip": "ym2612"
    },
    {
      "channel": 2,
      "note": 63,
      "start": 21.6386,
      "duration": 0.0031,
      "velocity": 89,
      "chip": "ym2612"
    },
    {
      "channel": 3,
      "note": 63,
      "start": 21.6397,
      "duration": 0.0022,
      "velocity": 107,
      "chip": "ym2612"
    },
    {
      "channel": 0,
      "note": 71,
      "start": 21.6416,
      "duration": 0.0689,
      "velocity": 90,
      "chip": "ym2612"
    },
    {
      "channel": 2,
      "note": 68,
      "start": 21.6419,
      "duration": 0.069,
      "velocity": 89,
      "chip": "ym2612"
    },
    {
      "channel": 3,
      "note": 68,
      "start": 21.642,
      "duration": 0.0692,
      "velocity": 107,
      "chip": "ym2612"
    },
    {
      "channel": 4,
      "note": 68,
      "start": 21.6432,
      "duration": 0.0683,
      "velocity": 90,
      "chip": "ym2612"
    },
    {
      "channel": 0,
      "note": 75,
      "start": 21.7108,
      "duration": 0.0036,
      "velocity": 90,
      "chip": "ym2612"
    },
    {
      "channel": 2,
      "note": 71,
      "start": 21.7112,
      "duration": 0.0037,
      "velocity": 89,
      "chip": "ym2612"
    },
    {
      "channel": 3,
      "note": 71,
      "start": 21.7115,
      "duration": 0.0036,
      "velocity": 107,
      "chip": "ym2612"
    },
    {
      "channel": 4,
      "note": 71,
      "start": 21.7119,
      "duration": 0.0033,
      "velocity": 90,
      "chip": "ym2612"
    },
    {
      "channel": 0,
      "note": 80,
      "start": 21.7146,
      "duration": 0.0692,
      "velocity": 90,
      "chip": "ym2612"
    },
    {
      "channel": 1,
      "note": 64,
      "start": 21.7148,
      "duration": 0.147,
      "velocity": 107,
      "chip": "ym2612"
    },
    {
      "channel": 2,
      "note": 75,
      "start": 21.7151,
      "duration": 0.0691,
      "velocity": 89,
      "chip": "ym2612"
    },
    {
      "channel": 3,
      "note": 75,
      "start": 21.7151,
      "duration": 0.0693,
      "velocity": 107,
      "chip": "ym2612"
    },
    {
      "channel": 4,
      "note": 75,
      "start": 21.7152,
      "duration": 0.0695,
      "velocity": 90,
      "chip": "ym2612"
    },
    {
      "channel": 0,
      "note": 75,
      "start": 21.784,
      "duration": 0.0039,
      "velocity": 90,
      "chip": "ym2612"
    },
    {
      "channel": 2,
      "note": 71,
      "start": 21.7844,
      "duration": 0.0038,
      "velocity": 89,
      "chip": "ym2612"
    },
    {
      "channel": 3,
      "note": 71,
      "start": 21.7847,
      "duration": 0.0038,
      "velocity": 107,
      "chip": "ym2612"
    },
    {
      "channel": 4,
      "note": 80,
      "start": 21.7851,
      "duration": 0.0037,
      "velocity": 90,
      "chip": "ym2612"
    },
    {
      "channel": 0,
      "note": 71,
      "start": 21.7882,
      "duration": 0.0028,
      "velocity": 90,
      "chip": "ym2612"
    },
    {
      "channel": 2,
      "note": 68,
      "start": 21.7885,
      "duration": 0.0027,
      "velocity": 89,
      "chip": "ym2612"
    },
    {
      "channel": 3,
      "note": 68,
      "start": 21.7888,
      "duration": 0.0026,
      "velocity": 107,
      "chip": "ym2612"
    },
    {
      "channel": 4,
      "note": 75,
      "start": 21.7891,
      "duration": 0.0024,
      "velocity": 90,
      "chip": "ym2612"
    },
    {
      "channel": 0,
      "note": 68,
      "start": 21.7911,
      "duration": 0.0703,
      "velocity": 100,
      "chip": "ym2612"
    },
    {
      "channel": 2,
      "note": 63,
      "start": 21.7914,
      "duration": 0.0706,
      "velocity": 89,
      "chip": "ym2612"
    },
    {
      "channel": 3,
      "note": 63,
      "start": 21.7915,
      "duration": 0.0714,
      "velocity": 89,
      "chip": "ym2612"
    },
    {
      "channel": 4,
      "note": 71,
      "start": 21.7917,
      "duration": 0.0715,
      "velocity": 90,
      "chip": "ym2612"
    },
    {
      "channel": 0,
      "note": 79,
      "start": 21.8616,
      "duration": 0.0041,
      "velocity": 100,
      "chip": "ym2612"
    },
    {
      "channel": 1,
      "note": 63,
      "start": 21.8619,
      "duration": 0.0726,
      "velocity": 107,
      "chip": "ym2612"
    },
    {
      "channel": 2,
      "note": 67,
      "start": 21.862,
      "duration": 0.2719,
      "velocity": 89,
      "chip": "ym2612"
    },
    {
      "channel": 3,
      "note": 61,
      "start": 21.8631,
      "duration": 0.2711,
      "velocity": 89,
      "chip": "ym2612"
    },
    {
      "channel": 4,
      "note": 68,
      "start": 21.8633,
      "duration": 0.0036,
      "velocity": 100,
      "chip": "ym2612"
    },
    {
      "channel": 0,
      "note": 83,
      "start": 21.8659,
      "duration": 0.0682,
      "velocity": 100,
      "chip": "ym2612"
    },
    {
      "channel": 4,
      "note": 79,
      "start": 21.8672,
      "duration": 0.0678,
      "velocity": 100,
      "chip": "ym2612"
    },
    {
      "channel": 0,
      "note": 85,
      "start": 21.9344,
      "duration": 0.1166,
      "velocity": 100,
      "chip": "ym2612"
    },
    {
      "channel": 1,
      "note": 63,
      "start": 21.9346,
      "duration": 0.1241,
      "velocity": 107,
      "chip": "ym2612"
    },
    {
      "channel": 4,
      "note": 83,
      "start": 21.9353,
      "duration": 0.1165,
      "velocity": 100,
      "chip": "ym2612"
    },
    {
      "channel": 0,
      "note": 91,
      "start": 22.0512,
      "duration": 0.0073,
      "velocity": 100,
      "chip": "ym2612"
    },
    {
      "channel": 4,
      "note": 85,
      "start": 22.0519,
      "duration": 0.0038,
      "velocity": 100,
      "chip": "ym2612"
    },
    {
      "channel": 4,
      "note": 91,
      "start": 22.056,
      "duration": 0.0055,
      "velocity": 100,
      "chip": "ym2612"
    },
    {
      "channel": 0,
      "note": 85,
      "start": 22.0587,
      "duration": 0.002,
      "velocity": 100,
      "chip": "ym2612"
    },
    {
      "channel": 1,
      "note": 63,
      "start": 22.0587,
      "duration": 0.0747,
      "velocity": 107,
      "chip": "ym2612"
    },
    {
      "channel": 0,
      "note": 83,
      "start": 22.0611,
      "duration": 0.003,
      "velocity": 100,
      "chip": "ym2612"
    },
    {
      "channel": 4,
      "note": 85,
      "start": 22.0617,
      "duration": 0.0027,
      "velocity": 100,
      "chip": "ym2612"
    },
    {
      "channel": 0,
      "note": 79,
      "start": 22.0642,
      "duration": 0.069,
      "velocity": 100,
      "chip": "ym2612"
    },
    {
      "channel": 4,
      "note": 83,
      "start": 22.0645,
      "duration": 0.07,
      "velocity": 100,
      "chip": "ym2612"
    },
    {
      "channel": 1,
      "note": 63,
      "start": 22.1337,
      "duration": 0.1739,
      "velocity": 107,
      "chip": "ym2612"
    },
    {
      "channel": 2,
      "note": 67,
      "start": 22.1339,
      "duration": 0.0973,
      "velocity": 89,
      "chip": "ym2612"
    },
    {
      "channel": 3,
      "note": 61,
      "start": 22.1341,
      "duration": 0.0981,
      "velocity": 107,
      "chip": "ym2612"
    },
    {
      "channel": 4,
      "note": 79,
      "start": 22.1346,
      "duration": 0.0979,
      "velocity": 100,
      "chip": "ym2612"
    },
    {
      "channel": 0,
      "note": 67,
      "start": 22.2312,
      "duration": 0.0031,
      "velocity": 90,
      "chip": "ym2612"
    },
    {
      "channel": 2,
      "note": 63,
      "start": 22.2314,
      "duration": 0.0031,
      "velocity": 89,
      "chip": "ym2612"
    },
    {
      "channel": 3,
      "note": 63,
      "start": 22.2324,
      "duration": 0.0022,
      "velocity": 107,
      "chip": "ym2612"
    },
    {
      "channel": 0,
      "note": 71,
      "start": 22.2344,
      "duration": 0.0689,
      "velocity": 90,
      "chip": "ym2612"
    },
    {
      "channel": 2,
      "note": 67,
      "start": 22.2346,
      "duration": 0.069,
      "velocity": 89,
      "chip": "ym2612"
    },
    {
      "channel": 3,
      "note": 67,
      "start": 22.2348,
      "duration": 0.0692,
      "velocity": 107,
      "chip": "ym2612"
    },
    {
      "channel": 4,
      "note": 67,
      "start": 22.236,
      "duration": 0.0683,
      "velocity": 90,
      "chip": "ym2612"
    },
    {
      "channel": 0,
      "note": 75,
      "start": 22.3035,
      "duration": 0.0037,
      "velocity": 90,
      "chip": "ym2612"
    },
    {
      "channel": 2,
      "note": 71,
      "start": 22.3039,
      "duration": 0.0039,
      "velocity": 89,
      "chip": "ym2612"
    },
    {
      "channel": 3,
      "note": 71,
      "start": 22.3042,
      "duration": 0.0039,
      "velocity": 107,
      "chip": "ym2612"
    },
    {
      "channel": 4,
      "note": 71,
      "start": 22.3046,
      "duration": 0.0039,
      "velocity": 90,
      "chip": "ym2612"
    },
    {
      "channel": 0,
      "note": 79,
      "start": 22.3074,
      "duration": 0.0036,
      "velocity": 90,
      "chip": "ym2612"
    },
    {
      "channel": 1,
      "note": 63,
      "start": 22.3077,
      "duration": 0.0174,
      "velocity": 107,
      "chip": "ym2612"
    },
    {
      "channel": 2,
      "note": 75,
      "start": 22.308,
      "duration": 0.0033,
      "velocity": 89,
      "chip": "ym2612"
    },
    {
      "channel": 3,
      "note": 75,
      "start": 22.3083,
      "duration": 0.0033,
      "velocity": 107,
      "chip": "ym2612"
    },
    {
      "channel": 4,
      "note": 75,
      "start": 22.3086,
      "duration": 0.0033,
      "velocity": 90,
      "chip": "ym2612"
    },
    {
      "channel": 0,
      "note": 83,
      "start": 22.3113,
      "duration": 0.0034,
      "velocity": 90,
      "chip": "ym2612"
    },
    {
      "channel": 2,
      "note": 79,
      "start": 22.3116,
      "duration": 0.0034,
      "velocity": 89,
      "chip": "ym2612"
    },
    {
      "channel": 3,
      "note": 79,
      "start": 22.3119,
      "duration": 0.0034,
      "velocity": 107,
      "chip": "ym2612"
    },
    {
      "channel": 4,
      "note": 79,
      "start": 22.3123,
      "duration": 0.0033,
      "velocity": 90,
      "chip": "ym2612"
    },
    {
      "channel": 0,
      "note": 87,
      "start": 22.3149,
      "duration": 0.0036,
      "velocity": 90,
      "chip": "ym2612"
    },
    {
      "channel": 2,
      "note": 83,
      "start": 22.3153,
      "duration": 0.0037,
      "velocity": 89,
      "chip": "ym2612"
    },
    {
      "channel": 3,
      "note": 83,
      "start": 22.3156,
      "duration": 0.0037,
      "velocity": 107,
      "chip": "ym2612"
    },
    {
      "channel": 4,
      "note": 83,
      "start": 22.3159,
      "duration": 0.0037,
      "velocity": 90,
      "chip": "ym2612"
    },
    {
      "channel": 0,
      "note": 91,
      "start": 22.3189,
      "duration": 0.0059,
      "velocity": 100,
      "chip": "ym2612"
    },
    {
      "channel": 2,
      "note": 87,
      "start": 22.3192,
      "duration": 0.0063,
      "velocity": 89,
      "chip": "ym2612"
    },
    {
      "channel": 3,
      "note": 87,
      "start": 22.3195,
      "duration": 0.007,
      "velocity": 89,
      "chip": "ym2612"
    },
    {
      "channel": 4,
      "note": 87,
      "start": 22.3198,
      "duration": 0.0068,
      "velocity": 90,
      "chip": "ym2612"
    },
    {
      "channel": 0,
      "note": 78,
      "start": 22.3251,
      "duration": 0.0037,
      "velocity": 100,
      "chip": "ym2612"
    },
    {
      "channel": 1,
      "note": 62,
      "start": 22.3254,
      "duration": 0.072,
      "velocity": 107,
      "chip": "ym2612"
    },
    {
      "channel": 2,
      "note": 66,
      "start": 22.3255,
      "duration": 0.2713,
      "velocity": 89,
      "chip": "ym2612"
    },
    {
      "channel": 3,
      "note": 61,
      "start": 22.3266,
      "duration": 0.2705,
      "velocity": 89,
      "chip": "ym2612"
    },
    {
      "channel": 4,
      "note": 91,
      "start": 22.3268,
      "duration": 0.0033,
      "velocity": 100,
      "chip": "ym2612"
    },
    {
      "channel": 0,
      "note": 83,
      "start": 22.3289,
      "duration": 0.0682,
      "velocity": 100,
      "chip": "ym2612"
    },
    {
      "channel": 4,
      "note": 78,
      "start": 22.3302,
      "duration": 0.0677,
      "velocity": 100,
      "chip": "ym2612"
    },
    {
      "channel": 0,
      "note": 85,
      "start": 22.3973,
      "duration": 0.1166,
      "velocity": 100,
      "chip": "ym2612"
    },
    {
      "channel": 1,
      "note": 62,
      "start": 22.3976,
      "duration": 0.1241,
      "velocity": 107,
      "chip": "ym2612"
    },
    {
      "channel": 4,
      "note": 83,
      "start": 22.3982,
      "duration": 0.1165,
      "velocity": 100,
      "chip": "ym2612"
    },
    {
      "channel": 0,
      "note": 78,
      "start": 22.5141,
      "duration": 0.0073,
      "velocity": 100,
      "chip": "ym2612"
    },
    {
      "channel": 4,
      "note": 85,
      "start": 22.5149,
      "duration": 0.0038,
      "velocity": 100,
      "chip": "ym2612"
    },
    {
      "channel": 4,
      "note": 78,
      "start": 22.5189,
      "duration": 0.0055,
      "velocity": 100,
      "chip": "ym2612"
    },
    {
      "channel": 0,
      "note": 83,
      "start": 22.5216,
      "duration": 0.002,
      "velocity": 100,
      "chip": "ym2612"
    },
    {
      "channel": 1,
      "note": 62,
      "start": 22.5216,
      "duration": 0.0747,
      "velocity": 107,
      "chip": "ym2612"
    },
    {
      "channel": 0,
      "note": 85,
      "start": 22.524,
      "duration": 0.003,
      "velocity": 100,
      "chip": "ym2612"
    },
    {
      "channel": 4,
      "note": 83,
      "start": 22.5247,
      "duration": 0.0027,
      "velocity": 100,
      "chip": "ym2612"
    },
    {
      "channel": 0,
      "note": 78,
      "start": 22.5271,
      "duration": 0.069,
      "velocity": 100,
      "chip": "ym2612"
    },
    {
      "channel": 4,
      "note": 85,
      "start": 22.5274,
      "duration": 0.07,
      "velocity": 100,
      "chip": "ym2612"
    },
    {
      "channel": 1,
      "note": 62,
      "start": 22.5966,
      "duration": 0.0807,
      "velocity": 107,
      "chip": "ym2612"
    },
    {
      "channel": 2,
      "note": 66,
      "start": 22.5968,
      "duration": 0.0032,
      "velocity": 89,
      "chip": "ym2612"
    },
    {
      "channel": 3,
      "note": 61,
      "start": 22.5971,
      "duration": 0.004,
      "velocity": 107,
      "chip": "ym2612"
    },
    {
      "channel": 4,
      "note": 78,
      "start": 22.5976,
      "duration": 0.0037,
      "velocity": 100,
      "chip": "ym2612"
    },
    {
      "channel": 0,
      "note": 66,
      "start": 22.6,
      "duration": 0.0038,
      "velocity": 90,
      "chip": "ym2612"
    },
    {
      "channel": 2,
      "note": 62,
      "start": 22.6002,
      "duration": 0.0041,
      "velocity": 89,
      "chip": "ym2612"
    },
    {
      "channel": 3,
      "note": 62,
      "start": 22.6012,
      "duration": 0.0034,
      "velocity": 107,
      "chip": "ym2612"
    },
    {
      "channel": 0,
      "note": 71,
      "start": 22.6042,
      "duration": 0.0041,
      "velocity": 90,
      "chip": "ym2612"
    },
    {
      "channel": 2,
      "note": 66,
      "start": 22.6045,
      "duration": 0.004,
      "velocity": 89,
      "chip": "ym2612"
    },
    {
      "channel": 3,
      "note": 66,
      "start": 22.6048,
      "duration": 0.0038,
      "velocity": 107,
      "chip": "ym2612"
    },
    {
      "channel": 4,
      "note": 66,
      "start": 22.6062,
      "duration": 0.0026,
      "velocity": 90,
      "chip": "ym2612"
    },
    {
      "channel": 0,
      "note": 74,
      "start": 22.6084,
      "duration": 0.0686,
      "velocity": 90,
      "chip": "ym2612"
    },
    {
      "channel": 2,
      "note": 71,
      "start": 22.6086,
      "duration": 0.069,
      "velocity": 89,
      "chip": "ym2612"
    },
    {
      "channel": 3,
      "note": 71,
      "start": 22.6088,
      "duration": 0.0691,
      "velocity": 107,
      "chip": "ym2612"
    },
    {
      "channel": 4,
      "note": 71,
      "start": 22.6089,
      "duration": 0.0694,
      "velocity": 90,
      "chip": "ym2612"
    },
    {
      "channel": 0,
      "note": 78,
      "start": 22.6772,
      "duration": 0.0035,
      "velocity": 90,
      "chip": "ym2612"
    },
    {
      "channel": 1,
      "note": 62,
      "start": 22.6775,
      "duration": 0.0162,
      "velocity": 107,
      "chip": "ym2612"
    },
    {
      "channel": 2,
      "note": 74,
      "start": 22.6778,
      "duration": 0.0032,
      "velocity": 89,
      "chip": "ym2612"
    },
    {
      "channel": 3,
      "note": 74,
      "start": 22.6783,
      "duration": 0.0031,
      "velocity": 107,
      "chip": "ym2612"
    },
    {
      "channel": 4,
      "note": 74,
      "start": 22.6785,
      "duration": 0.0032,
      "velocity": 90,
      "chip": "ym2612"
    },
    {
      "channel": 0,
      "note": 83,
      "start": 22.681,
      "duration": 0.0032,
      "velocity": 90,
      "chip": "ym2612"
    },
    {
      "channel": 2,
      "note": 78,
      "start": 22.6813,
      "duration": 0.0032,
      "velocity": 89,
      "chip": "ym2612"
    },
    {
      "channel": 3,
      "note": 78,
      "start": 22.6816,
      "duration": 0.0032,
      "velocity": 107,
      "chip": "ym2612"
    },
    {
      "channel": 4,
      "note": 78,
      "start": 22.682,
      "duration": 0.0032,
      "velocity": 90,
      "chip": "ym2612"
    },
    {
      "channel": 0,
      "note": 86,
      "start": 22.6844,
      "duration": 0.009,
      "velocity": 100,
      "chip": "ym2612"
    },
    {
      "channel": 2,
      "note": 83,
      "start": 22.6848,
      "duration": 0.0092,
      "velocity": 89,
      "chip": "ym2612"
    },
    {
      "channel": 3,
      "note": 83,
      "start": 22.6851,
      "duration": 0.0101,
      "velocity": 89,
      "chip": "ym2612"
    },
    {
      "channel": 4,
      "note": 83,
      "start": 22.6855,
      "duration": 0.0032,
      "velocity": 90,
      "chip": "ym2612"
    },
    {
      "channel": 4,
      "note": 86,
      "start": 22.689,
      "duration": 0.0094,
      "velocity": 100,
      "chip": "ym2612"
    },
    {
      "channel": 0,
      "note": 77,
      "start": 22.6937,
      "duration": 0.0034,
      "velocity": 100,
      "chip": "ym2612"
    },
    {
      "channel": 1,
      "note": 61,
      "start": 22.694,
      "duration": 0.0069,
      "velocity": 107,
      "chip": "ym2612"
    },
    {
      "channel": 2,
      "note": 77,
      "start": 22.6941,
      "duration": 0.0103,
      "velocity": 89,
      "chip": "ym2612"
    },
    {
      "channel": 3,
      "note": 73,
      "start": 22.6953,
      "duration": 0.0095,
      "velocity": 89,
      "chip": "ym2612"
    },
    {
      "channel": 0,
      "note": 83,
      "start": 22.6971,
      "duration": 0.0034,
      "velocity": 100,
      "chip": "ym2612"
    },
    {
      "channel": 4,
      "note": 77,
      "start": 22.6984,
      "duration": 0.0031,
      "velocity": 100,
      "chip": "ym2612"
    },
    {
      "channel": 0,
      "note": 85,
      "start": 22.7008,
      "duration": 0.003,
      "velocity": 100,
      "chip": "ym2612"
    },
    {
      "channel": 1,
      "note": 73,
      "start": 22.7012,
      "duration": 0.003,
      "velocity": 107,
      "chip": "ym2612"
    },
    {
      "channel": 4,
      "note": 83,
      "start": 22.7018,
      "duration": 0.0033,
      "velocity": 100,
      "chip": "ym2612"
    },
    {
      "channel": 0,
      "note": 76,
      "start": 22.7041,
      "duration": 0.0033,
      "velocity": 100,
      "chip": "ym2612"
    },
    {
      "channel": 1,
      "note": 72,
      "start": 22.7044,
      "duration": 0.0094,
      "velocity": 107,
      "chip": "ym2612"
    },
    {
      "channel": 2,
      "note": 76,
      "start": 22.7048,
      "duration": 0.0093,
      "velocity": 89,
      "chip": "ym2612"
    },
    {
      "channel": 3,
      "note": 72,
      "start": 22.705,
      "duration": 0.0094,
      "velocity": 89,
      "chip": "ym2612"
    },
    {
      "channel": 4,
      "note": 85,
      "start": 22.7054,
      "duration": 0.0022,
      "velocity": 100,
      "chip": "ym2612"
    },
    {
      "channel": 0,
      "note": 82,
      "start": 22.7075,
      "duration": 0.0022,
      "velocity": 100,
      "chip": "ym2612"
    },
    {
      "channel": 4,
      "note": 76,
      "start": 22.7078,
      "duration": 0.0024,
      "velocity": 100,
      "chip": "ym2612"
    },
    {
      "channel": 0,
      "note": 84,
      "start": 22.7098,
      "duration": 0.0037,
      "velocity": 100,
      "chip": "ym2612"
    },
    {
      "channel": 4,
      "note": 82,
      "start": 22.7105,
      "duration": 0.0043,
      "velocity": 100,
      "chip": "ym2612"
    },
    {
      "channel": 0,
      "note": 75,
      "start": 22.7137,
      "duration": 0.0025,
      "velocity": 100,
      "chip": "ym2612"
    },
    {
      "channel": 1,
      "note": 71,
      "start": 22.714,
      "duration": 0.0082,
      "velocity": 107,
      "chip": "ym2612"
    },
    {
      "channel": 2,
      "note": 75,
      "start": 22.7143,
      "duration": 0.0081,
      "velocity": 89,
      "chip": "ym2612"
    },
    {
      "channel": 3,
      "note": 71,
      "start": 22.7146,
      "duration": 0.0081,
      "velocity": 89,
      "chip": "ym2612"
    },
    {
      "channel": 4,
      "note": 84,
      "start": 22.7148,
      "duration": 0.0018,
      "velocity": 100,
      "chip": "ym2612"
    },
    {
      "channel": 0,
      "note": 81,
      "start": 22.7164,
      "duration": 0.0021,
      "velocity": 100,
      "chip": "ym2612"
    },
    {
      "channel": 4,
      "note": 75,
      "start": 22.7168,
      "duration": 0.0024,
      "velocity": 100,
      "chip": "ym2612"
    },
    {
      "channel": 0,
      "note": 83,
      "start": 22.7188,
      "duration": 0.0029,
      "velocity": 100,
      "chip": "ym2612"
    },
    {
      "channel": 4,
      "note": 81,
      "start": 22.7195,
      "duration": 0.0036,
      "velocity": 100,
      "chip": "ym2612"
    },
    {
      "channel": 0,
      "note": 74,
      "start": 22.7221,
      "duration": 0.0032,
      "velocity": 100,
      "chip": "ym2612"
    },
    {
      "channel": 1,
      "note": 70,
      "start": 22.7224,
      "duration": 0.0092,
      "velocity": 107,
      "chip": "ym2612"
    },
    {
      "channel": 2,
      "note": 74,
      "start": 22.7227,
      "duration": 0.0091,
      "velocity": 89,
      "chip": "ym2612"
    },
    {
      "channel": 3,
      "note": 70,
      "start": 22.723,
      "duration": 0.0091,
      "velocity": 89,
      "chip": "ym2612"
    },
    {
      "channel": 4,
      "note": 83,
      "start": 22.7234,
      "duration": 0.0023,
      "velocity": 100,
      "chip": "ym2612"
    },
    {
      "channel": 0,
      "note": 80,
      "start": 22.7254,
      "duration": 0.0018,
      "velocity": 100,
      "chip": "ym2612"
    },
    {
      "channel": 4,
      "note": 74,
      "start": 22.7259,
      "duration": 0.0021,
      "velocity": 100,
      "chip": "ym2612"
    },
    {
      "channel": 0,
      "note": 82,
      "start": 22.7275,
      "duration": 0.0037,
      "velocity": 100,
      "chip": "ym2612"
    },
    {
      "channel": 4,
      "note": 80,
      "start": 22.7282,
      "duration": 0.0043,
      "velocity": 100,
      "chip": "ym2612"
    },
    {
      "channel": 0,
      "note": 73,
      "start": 22.7315,
      "duration": 0.0033,
      "velocity": 100,
      "chip": "ym2612"
    },
    {
      "channel": 1,
      "note": 69,
      "start": 22.7318,
      "duration": 0.0161,
      "velocity": 107,
      "chip": "ym2612"
    },
    {
      "channel": 2,
      "note": 73,
      "start": 22.7321,
      "duration": 0.0161,
      "velocity": 89,
      "chip": "ym2612"
    },
    {
      "channel": 3,
      "note": 69,
      "start": 22.7324,
      "duration": 0.0161,
      "velocity": 89,
      "chip": "ym2612"
    },
    {
      "channel": 4,
      "note": 82,
      "start": 22.7327,
      "duration": 0.0027,
      "velocity": 100,
      "chip": "ym2612"
    },
    {
      "channel": 0,
      "note": 79,
      "start": 22.7351,
      "duration": 0.0036,
      "velocity": 100,
      "chip": "ym2612"
    },
    {
      "channel": 4,
      "note": 73,
      "start": 22.7357,
      "duration": 0.0035,
      "velocity": 100,
      "chip": "ym2612"
    },
    {
      "channel": 0,
      "note": 81,
      "start": 22.7387,
      "duration": 0.0088,
      "velocity": 100,
      "chip": "ym2612"
    },
    {
      "channel": 4,
      "note": 79,
      "start": 22.7394,
      "duration": 0.0037,
      "velocity": 100,
      "chip": "ym2612"
    },
    {
      "channel": 4,
      "note": 81,
      "start": 22.7434,
      "duration": 0.0085,
      "velocity": 100,
      "chip": "ym2612"
    },
    {
      "channel": 0,
      "note": 80,
      "start": 22.7478,
      "duration": 0.0026,
      "velocity": 100,
      "chip": "ym2612"
    },
    {
      "channel": 1,
      "note": 68,
      "start": 22.7481,
      "duration": 0.0111,
      "velocity": 107,
      "chip": "ym2612"
    },
    {
      "channel": 2,
      "note": 72,
      "start": 22.7484,
      "duration": 0.0111,
      "velocity": 89,
      "chip": "ym2612"
    },
    {
      "channel": 3,
      "note": 68,
      "start": 22.7487,
      "duration": 0.011,
      "velocity": 89,
      "chip": "ym2612"
    },
    {
      "channel": 0,
      "note": 81,
      "start": 22.7506,
      "duration": 0.0025,
      "velocity": 100,
      "chip": "ym2612"
    },
    {
      "channel": 4,
      "note": 80,
      "start": 22.7521,
      "duration": 0.002,
      "velocity": 100,
      "chip": "ym2612"
    },
    {
      "channel": 0,
      "note": 82,
      "start": 22.7534,
      "duration": 0.0014,
      "velocity": 100,
      "chip": "ym2612"
    },
    {
      "channel": 4,
      "note": 81,
      "start": 22.7542,
      "duration": 0.0026,
      "velocity": 100,
      "chip": "ym2612"
    },
    {
      "channel": 0,
      "note": 83,
      "start": 22.7551,
      "duration": 0.0028,
      "velocity": 100,
      "chip": "ym2612"
    },
    {
      "channel": 4,
      "note": 82,
      "start": 22.7569,
      "duration": 0.0031,
      "velocity": 100,
      "chip": "ym2612"
    },
    {
      "channel": 0,
      "note": 84,
      "start": 22.758,
      "duration": 0.003,
      "velocity": 100,
      "chip": "ym2612"
    },
    {
      "channel": 1,
      "note": 68,
      "start": 22.7593,
      "duration": 0.0136,
      "velocity": 107,
      "chip": "ym2612"
    },
    {
      "channel": 2,
      "note": 72,
      "start": 22.7596,
      "duration": 0.0136,
      "velocity": 89,
      "chip": "ym2612"
    },
    {
      "channel": 3,
      "note": 68,
      "start": 22.76,
      "duration": 0.0136,
      "velocity": 89,
      "chip": "ym2612"
    },
    {
      "channel": 4,
      "note": 83,
      "start": 22.7603,
      "duration": 0.0018,
      "velocity": 100,
      "chip": "ym2612"
    },
    {
      "channel": 0,
      "note": 85,
      "start": 22.7612,
      "duration": 0.0018,
      "velocity": 100,
      "chip": "ym2612"
    },
    {
      "channel": 4,
      "note": 84,
      "start": 22.7623,
      "duration": 0.0028,
      "velocity": 100,
      "chip": "ym2612"
    },
    {
      "channel": 0,
      "note": 86,
      "start": 22.7634,
      "duration": 0.003,
      "velocity": 100,
      "chip": "ym2612"
    },
    {
      "channel": 4,
      "note": 85,
      "start": 22.7653,
      "duration": 0.0025,
      "velocity": 100,
      "chip": "ym2612"
    },
    {
      "channel": 0,
      "note": 87,
      "start": 22.7665,
      "duration": 0.0033,
      "velocity": 100,
      "chip": "ym2612"
    },
    {
      "channel": 4,
      "note": 86,
      "start": 22.768,
      "duration": 0.0033,
      "velocity": 100,
      "chip": "ym2612"
    },
    {
      "channel": 0,
      "note": 88,
      "start": 22.77,
      "duration": 0.0027,
      "velocity": 100,
      "chip": "ym2612"
    },
    {
      "channel": 4,
      "note": 87,
      "start": 22.7715,
      "duration": 0.0031,
      "velocity": 100,
      "chip": "ym2612"
    },
    {
      "channel": 0,
      "note": 89,
      "start": 22.7729,
      "duration": 0.0025,
      "velocity": 100,
      "chip": "ym2612"
    },
    {
      "channel": 1,
      "note": 68,
      "start": 22.7732,
      "duration": 0.0073,
      "velocity": 107,
      "chip": "ym2612"
    },
    {
      "channel": 2,
      "note": 72,
      "start": 22.7735,
      "duration": 0.0073,
      "velocity": 89,
      "chip": "ym2612"
    },
    {
      "channel": 3,
      "note": 68,
      "start": 22.7739,
      "duration": 0.0071,
      "velocity": 89,
      "chip": "ym2612"
    },
    {
      "channel": 4,
      "note": 88,
      "start": 22.7746,
      "duration": 0.0022,
      "velocity": 100,
      "chip": "ym2612"
    },
    {
      "channel": 0,
      "note": 90,
      "start": 22.7755,
      "duration": 0.0026,
      "velocity": 100,
      "chip": "ym2612"
    },
    {
      "channel": 4,
      "note": 89,
      "start": 22.7771,
      "duration": 0.0018,
      "velocity": 100,
      "chip": "ym2612"
    },
    {
      "channel": 0,
      "note": 91,
      "start": 22.7782,
      "duration": 0.0019,
      "velocity": 100,
      "chip": "ym2612"
    },
    {
      "channel": 4,
      "note": 90,
      "start": 22.7791,
      "duration": 0.0032,
      "velocity": 100,
      "chip": "ym2612"
    },
    {
      "channel": 0,
      "note": 92,
      "start": 22.7804,
      "duration": 0.2266,
      "velocity": 90,
      "chip": "ym2612"
    },
    {
      "channel": 1,
      "note": 80,
      "start": 22.7807,
      "duration": 0.0032,
      "velocity": 107,
      "chip": "ym2612"
    },
    {
      "channel": 2,
      "note": 78,
      "start": 22.781,
      "duration": 0.0032,
      "velocity": 89,
      "chip": "ym2612"
    },
    {
      "channel": 3,
      "note": 72,
      "start": 22.7814,
      "duration": 0.0032,
      "velocity": 89,
      "chip": "ym2612"
    },
    {
      "channel": 4,
      "note": 91,
      "start": 22.7823,
      "duration": 0.0026,
      "velocity": 100,
      "chip": "ym2612"
    },
    {
      "channel": 1,
      "note": 68,
      "start": 22.7842,
      "duration": 0.072,
      "velocity": 107,
      "chip": "ym2612"
    },
    {
      "channel": 2,
      "note": 68,
      "start": 22.7845,
      "duration": 0.0719,
      "velocity": 89,
      "chip": "ym2612"
    },
    {
      "channel": 3,
      "note": 68,
      "start": 22.7848,
      "duration": 0.0719,
      "velocity": 89,
      "chip": "ym2612"
    },
    {
      "channel": 4,
      "note": 92,
      "start": 22.7851,
      "duration": 0.2276,
      "velocity": 90,
      "chip": "ym2612"
    },
    {
      "channel": 1,
      "note": 68,
      "start": 22.8563,
      "duration": 0.0728,
      "velocity": 107,
      "chip": "ym2612"
    },
    {
      "channel": 2,
      "note": 68,
      "start": 22.8566,
      "duration": 0.0727,
      "velocity": 89,
      "chip": "ym2612"
    },
    {
      "channel": 3,
      "note": 68,
      "start": 22.857,
      "duration": 0.0727,
      "velocity": 89,
      "chip": "ym2612"
    },
    {
      "channel": 1,
      "note": 68,
      "start": 22.9293,
      "duration": 0.0042,
      "velocity": 107,
      "chip": "ym2612"
    },
    {
      "channel": 2,
      "note": 68,
      "start": 22.9296,
      "duration": 0.0042,
      "velocity": 89,
      "chip": "ym2612"
    },
    {
      "channel": 3,
      "note": 68,
      "start": 22.9299,
      "duration": 0.0042,
      "velocity": 89,
      "chip": "ym2612"
    },
    {
      "channel": 1,
      "note": 71,
      "start": 22.9337,
      "duration": 0.0746,
      "velocity": 107,
      "chip": "ym2612"
    },
    {
      "channel": 2,
      "note": 71,
      "start": 22.9341,
      "duration": 0.0753,
      "velocity": 108,
      "chip": "ym2612"
    },
    {
      "channel": 3,
      "note": 71,
      "start": 22.9344,
      "duration": 0.075,
      "velocity": 89,
      "chip": "ym2612"
    },
    {
      "channel": 0,
      "note": 80,
      "start": 23.0073,
      "duration": 0.3223,
      "velocity": 90,
      "chip": "ym2612"
    },
    {
      "channel": 1,
      "note": 73,
      "start": 23.0084,
      "duration": 0.3215,
      "velocity": 107,
      "chip": "ym2612"
    },
    {
      "channel": 2,
      "note": 83,
      "start": 23.0109,
      "duration": 0.0688,
      "velocity": 108,
      "chip": "ym2612"
    },
    {
      "channel": 4,
      "note": 80,
      "start": 23.0128,
      "duration": 39.4861,
      "velocity": 90,
      "chip": "ym2612"
    },
    {
      "channel": 2,
      "note": 85,
      "start": 23.0799,
      "duration": 0.1165,
      "velocity": 108,
      "chip": "ym2612"
    },
    {
      "channel": 3,
      "note": 83,
      "start": 23.0802,
      "duration": 0.1164,
      "velocity": 108,
      "chip": "ym2612"
    },
    {
      "channel": 2,
      "note": 83,
      "start": 23.1966,
      "duration": 39.3024,
      "velocity": 108,
      "chip": "ym2612"
    },
    {
      "channel": 3,
      "note": 85,
      "start": 23.1969,
      "duration": 39.3021,
      "velocity": 108,
      "chip": "ym2612"
    },
    {
      "channel": 0,
      "note": 79,
      "start": 23.3299,
      "duration": 39.1691,
      "velocity": 90,
      "chip": "ym2612"
    }
  ]
}