{
  "track_name": "12 - Volcano Valley Zone Act 2",
  "duration_sec": 79.977,
  "sample_rate": 44100,
  "note_count": 772,
  "unique_pitches": 27,
  "pitch_range": 36,
  "avg_note_duration": 0.465,
  "reconstruction_stats": {
    "notes_reconstructed": 772,
    "keyon_events": 772,
    "keyoff_events": 768,
    "orphan_keyons": 4,
    "unique_pitches": 27,
    "pitch_range": 36,
    "avg_duration_sec": 0.465
  },
  "metadata": {
    "source": "S\\Sonic 3D Blast\\12 - Volcano Valley Zone Act 2.vgm"
  },
  "notes": [
    {
      "channel": 2,
      "note": 50,
      "start": 0.0,
      "duration": 4.503,
      "velocity": 97,
      "chip": "ym2612"
    },
    {
      "channel": 3,
      "note": 57,
      "start": 0.0031,
      "duration": 4.5007,
      "velocity": 97,
      "chip": "ym2612"
    },
    {
      "channel": 1,
      "note": 50,
      "start": 1.8795,
      "duration": 0.2722,
      "velocity": 101,
      "chip": "ym2612"
    },
    {
      "channel": 1,
      "note": 50,
      "start": 2.1524,
      "duration": 0.0411,
      "velocity": 101,
      "chip": "ym2612"
    },
    {
      "channel": 1,
      "note": 50,
      "start": 2.4442,
      "duration": 0.041,
      "velocity": 101,
      "chip": "ym2612"
    },
    {
      "channel": 0,
      "note": 62,
      "start": 2.6021,
      "duration": 0.9489,
      "velocity": 107,
      "chip": "ym2612"
    },
    {
      "channel": 4,
      "note": 62,
      "start": 2.82,
      "duration": 0.9494,
      "velocity": 107,
      "chip": "ym2612"
    },
    {
      "channel": 0,
      "note": 69,
      "start": 3.5521,
      "duration": 0.9493,
      "velocity": 107,
      "chip": "ym2612"
    },
    {
      "channel": 4,
      "note": 69,
      "start": 3.7701,
      "duration": 0.9496,
      "velocity": 107,
      "chip": "ym2612"
    },
    {
      "channel": 1,
      "note": 50,
      "start": 3.7859,
      "duration": 0.2492,
      "velocity": 101,
      "chip": "ym2612"
    },
    {
      "channel": 1,
      "note": 52,
      "start": 4.0359,
      "duration": 0.2326,
      "velocity": 101,
      "chip": "ym2612"
    },
    {
      "channel": 1,
      "note": 53,
      "start": 4.2692,
      "duration": 0.2329,
      "velocity": 101,
      "chip": "ym2612"
    },
    {
      "channel": 0,
      "note": 74,
      "start": 4.502,
      "duration": 0.9497,
      "velocity": 107,
      "chip": "ym2612"
    },
    {
      "channel": 1,
      "note": 55,
      "start": 4.5028,
      "duration": 0.2489,
      "velocity": 101,
      "chip": "ym2612"
    },
    {
      "channel": 2,
      "note": 50,
      "start": 4.5037,
      "duration": 0.9497,
      "velocity": 97,
      "chip": "ym2612"
    },
    {
      "channel": 3,
      "note": 57,
      "start": 4.5045,
      "duration": 0.9497,
      "velocity": 97,
      "chip": "ym2612"
    },
    {
      "channel": 4,
      "note": 74,
      "start": 4.7203,
      "duration": 0.8912,
      "velocity": 107,
      "chip": "ym2612"
    },
    {
      "channel": 1,
      "note": 50,
      "start": 4.7525,
      "duration": 0.2326,
      "velocity": 101,
      "chip": "ym2612"
    },
    {
      "channel": 1,
      "note": 57,
      "start": 4.9859,
      "duration": 0.2326,
      "velocity": 101,
      "chip": "ym2612"
    },
    {
      "channel": 1,
      "note": 62,
      "start": 5.2192,
      "duration": 0.2333,
      "velocity": 101,
      "chip": "ym2612"
    },
    {
      "channel": 0,
      "note": 76,
      "start": 5.4523,
      "duration": 0.7413,
      "velocity": 107,
      "chip": "ym2612"
    },
    {
      "channel": 1,
      "note": 62,
      "start": 5.4532,
      "duration": 0.0237,
      "velocity": 101,
      "chip": "ym2612"
    },
    {
      "channel": 2,
      "note": 48,
      "start": 5.454,
      "duration": 2.6407,
      "velocity": 97,
      "chip": "ym2612"
    },
    {
      "channel": 3,
      "note": 55,
      "start": 5.4549,
      "duration": 2.6407,
      "velocity": 97,
      "chip": "ym2612"
    },
    {
      "channel": 1,
      "note": 64,
      "start": 5.4777,
      "duration": 0.2681,
      "velocity": 101,
      "chip": "ym2612"
    },
    {
      "channel": 4,
      "note": 76,
      "start": 5.6122,
      "duration": 0.7993,
      "velocity": 107,
      "chip": "ym2612"
    },
    {
      "channel": 1,
      "note": 60,
      "start": 5.7466,
      "duration": 0.2724,
      "velocity": 101,
      "chip": "ym2612"
    },
    {
      "channel": 1,
      "note": 55,
      "start": 6.0197,
      "duration": 0.1746,
      "velocity": 101,
      "chip": "ym2612"
    },
    {
      "channel": 0,
      "note": 67,
      "start": 6.1942,
      "duration": 0.9494,
      "velocity": 107,
      "chip": "ym2612"
    },
    {
      "channel": 4,
      "note": 67,
      "start": 6.4122,
      "duration": 0.9496,
      "velocity": 107,
      "chip": "ym2612"
    },
    {
      "channel": 1,
      "note": 52,
      "start": 6.428,
      "duration": 0.2326,
      "velocity": 101,
      "chip": "ym2612"
    },
    {
      "channel": 1,
      "note": 60,
      "start": 6.6613,
      "duration": 0.2326,
      "velocity": 101,
      "chip": "ym2612"
    },
    {
      "channel": 1,
      "note": 67,
      "start": 6.8946,
      "duration": 0.716,
      "velocity": 101,
      "chip": "ym2612"
    },
    {
      "channel": 0,
      "note": 72,
      "start": 7.1442,
      "duration": 1.8995,
      "velocity": 107,
      "chip": "ym2612"
    },
    {
      "channel": 4,
      "note": 72,
      "start": 7.3625,
      "duration": 1.8244,
      "velocity": 107,
      "chip": "ym2612"
    },
    {
      "channel": 1,
      "note": 65,
      "start": 7.6113,
      "duration": 0.4826,
      "velocity": 101,
      "chip": "ym2612"
    },
    {
      "channel": 1,
      "note": 64,
      "start": 8.0946,
      "duration": 0.4659,
      "velocity": 101,
      "chip": "ym2612"
    },
    {
      "channel": 2,
      "note": 48,
      "start": 8.0954,
      "duration": 0.95,
      "velocity": 97,
      "chip": "ym2612"
    },
    {
      "channel": 3,
      "note": 55,
      "start": 8.0962,
      "duration": 0.95,
      "velocity": 97,
      "chip": "ym2612"
    },
    {
      "channel": 1,
      "note": 60,
      "start": 8.5613,
      "duration": 0.1326,
      "velocity": 101,
      "chip": "ym2612"
    },
    {
      "channel": 1,
      "note": 67,
      "start": 8.6946,
      "duration": 0.1159,
      "velocity": 101,
      "chip": "ym2612"
    },
    {
      "channel": 1,
      "note": 72,
      "start": 8.8113,
      "duration": 0.2333,
      "velocity": 101,
      "chip": "ym2612"
    },
    {
      "channel": 0,
      "note": 81,
      "start": 9.0444,
      "duration": 0.7246,
      "velocity": 107,
      "chip": "ym2612"
    },
    {
      "channel": 1,
      "note": 50,
      "start": 9.0453,
      "duration": 0.274,
      "velocity": 101,
      "chip": "ym2612"
    },
    {
      "channel": 2,
      "note": 50,
      "start": 9.0461,
      "duration": 2.6244,
      "velocity": 97,
      "chip": "ym2612"
    },
    {
      "channel": 3,
      "note": 57,
      "start": 9.0469,
      "duration": 2.6244,
      "velocity": 97,
      "chip": "ym2612"
    },
    {
      "channel": 4,
      "note": 81,
      "start": 9.1876,
      "duration": 0.7992,
      "velocity": 107,
      "chip": "ym2612"
    },
    {
      "channel": 1,
      "note": 62,
      "start": 9.32,
      "duration": 0.2911,
      "velocity": 101,
      "chip": "ym2612"
    },
    {
      "channel": 1,
      "note": 50,
      "start": 9.6118,
      "duration": 0.158,
      "velocity": 101,
      "chip": "ym2612"
    },
    {
      "channel": 0,
      "note": 62,
      "start": 9.7696,
      "duration": 0.9494,
      "velocity": 107,
      "chip": "ym2612"
    },
    {
      "channel": 4,
      "note": 62,
      "start": 9.9876,
      "duration": 0.9493,
      "velocity": 107,
      "chip": "ym2612"
    },
    {
      "channel": 0,
      "note": 69,
      "start": 10.7196,
      "duration": 0.9493,
      "velocity": 107,
      "chip": "ym2612"
    },
    {
      "channel": 4,
      "note": 69,
      "start": 10.9376,
      "duration": 0.9663,
      "velocity": 107,
      "chip": "ym2612"
    },
    {
      "channel": 1,
      "note": 62,
      "start": 10.9701,
      "duration": 0.1159,
      "velocity": 101,
      "chip": "ym2612"
    },
    {
      "channel": 1,
      "note": 57,
      "start": 11.0867,
      "duration": 0.1159,
      "velocity": 101,
      "chip": "ym2612"
    },
    {
      "channel": 1,
      "note": 60,
      "start": 11.2034,
      "duration": 0.1159,
      "velocity": 101,
      "chip": "ym2612"
    },
    {
      "channel": 1,
      "note": 62,
      "start": 11.3201,
      "duration": 0.3496,
      "velocity": 101,
      "chip": "ym2612"
    },
    {
      "channel": 0,
      "note": 74,
      "start": 11.6696,
      "duration": 0.9663,
      "velocity": 107,
      "chip": "ym2612"
    },
    {
      "channel": 1,
      "note": 65,
      "start": 11.6704,
      "duration": 0.2489,
      "velocity": 101,
      "chip": "ym2612"
    },
    {
      "channel": 2,
      "note": 50,
      "start": 11.6712,
      "duration": 0.9688,
      "velocity": 97,
      "chip": "ym2612"
    },
    {
      "channel": 3,
      "note": 57,
      "start": 11.672,
      "duration": 0.9688,
      "velocity": 97,
      "chip": "ym2612"
    },
    {
      "channel": 4,
      "note": 74,
      "start": 11.9046,
      "duration": 0.8745,
      "velocity": 107,
      "chip": "ym2612"
    },
    {
      "channel": 1,
      "note": 60,
      "start": 11.9201,
      "duration": 0.2326,
      "velocity": 101,
      "chip": "ym2612"
    },
    {
      "channel": 1,
      "note": 69,
      "start": 12.1534,
      "duration": 0.2326,
      "velocity": 101,
      "chip": "ym2612"
    },
    {
      "channel": 1,
      "note": 74,
      "start": 12.3867,
      "duration": 0.2524,
      "velocity": 101,
      "chip": "ym2612"
    },
    {
      "channel": 0,
      "note": 72,
      "start": 12.6366,
      "duration": 0.7247,
      "velocity": 107,
      "chip": "ym2612"
    },
    {
      "channel": 1,
      "note": 74,
      "start": 12.6398,
      "duration": 0.0163,
      "velocity": 101,
      "chip": "ym2612"
    },
    {
      "channel": 2,
      "note": 48,
      "start": 12.6407,
      "duration": 2.0427,
      "velocity": 97,
      "chip": "ym2612"
    },
    {
      "channel": 3,
      "note": 55,
      "start": 12.6415,
      "duration": 2.0427,
      "velocity": 97,
      "chip": "ym2612"
    },
    {
      "channel": 1,
      "note": 76,
      "start": 12.6569,
      "duration": 0.2565,
      "velocity": 101,
      "chip": "ym2612"
    },
    {
      "channel": 4,
      "note": 72,
      "start": 12.7798,
      "duration": 0.7993,
      "velocity": 107,
      "chip": "ym2612"
    },
    {
      "channel": 1,
      "note": 72,
      "start": 12.9142,
      "duration": 0.2891,
      "velocity": 101,
      "chip": "ym2612"
    },
    {
      "channel": 1,
      "note": 64,
      "start": 13.2041,
      "duration": 0.158,
      "velocity": 101,
      "chip": "ym2612"
    },
    {
      "channel": 0,
      "note": 67,
      "start": 13.3618,
      "duration": 0.9494,
      "velocity": 107,
      "chip": "ym2612"
    },
    {
      "channel": 4,
      "note": 67,
      "start": 13.5798,
      "duration": 0.8808,
      "velocity": 107,
      "chip": "ym2612"
    },
    {
      "channel": 1,
      "note": 64,
      "start": 13.8288,
      "duration": 0.1327,
      "velocity": 101,
      "chip": "ym2612"
    },
    {
      "channel": 1,
      "note": 65,
      "start": 13.9623,
      "duration": 0.116,
      "velocity": 101,
      "chip": "ym2612"
    },
    {
      "channel": 1,
      "note": 67,
      "start": 14.079,
      "duration": 0.3695,
      "velocity": 101,
      "chip": "ym2612"
    },
    {
      "channel": 0,
      "note": 79,
      "start": 14.3119,
      "duration": 0.6647,
      "velocity": 97,
      "chip": "ym2612"
    },
    {
      "channel": 1,
      "note": 66,
      "start": 14.4493,
      "duration": 0.0097,
      "velocity": 101,
      "chip": "ym2612"
    },
    {
      "channel": 1,
      "note": 64,
      "start": 14.4596,
      "duration": 0.0103,
      "velocity": 101,
      "chip": "ym2612"
    },
    {
      "channel": 4,
      "note": 79,
      "start": 14.4613,
      "duration": 0.5876,
      "velocity": 97,
      "chip": "ym2612"
    },
    {
      "channel": 1,
      "note": 62,
      "start": 14.4707,
      "duration": 0.0146,
      "velocity": 101,
      "chip": "ym2612"
    },
    {
      "channel": 1,
      "note": 61,
      "start": 14.4861,
      "duration": 0.0147,
      "velocity": 101,
      "chip": "ym2612"
    },
    {
      "channel": 1,
      "note": 59,
      "start": 14.5014,
      "duration": 0.0199,
      "velocity": 101,
      "chip": "ym2612"
    },
    {
      "channel": 1,
      "note": 57,
      "start": 14.5221,
      "duration": 0.0198,
      "velocity": 101,
      "chip": "ym2612"
    },
    {
      "channel": 1,
      "note": 55,
      "start": 14.5426,
      "duration": 0.14,
      "velocity": 101,
      "chip": "ym2612"
    },
    {
      "channel": 1,
      "note": 64,
      "start": 14.6833,
      "duration": 0.1458,
      "velocity": 101,
      "chip": "ym2612"
    },
    {
      "channel": 2,
      "note": 48,
      "start": 14.6841,
      "duration": 0.2941,
      "velocity": 97,
      "chip": "ym2612"
    },
    {
      "channel": 3,
      "note": 55,
      "start": 14.6849,
      "duration": 0.2941,
      "velocity": 97,
      "chip": "ym2612"
    },
    {
      "channel": 1,
      "note": 60,
      "start": 14.8298,
      "duration": 0.1476,
      "velocity": 101,
      "chip": "ym2612"
    },
    {
      "channel": 0,
      "note": 57,
      "start": 14.9773,
      "duration": 0.392,
      "velocity": 97,
      "chip": "ym2612"
    },
    {
      "channel": 1,
      "note": 50,
      "start": 14.9781,
      "duration": 0.1164,
      "velocity": 101,
      "chip": "ym2612"
    },
    {
      "channel": 2,
      "note": 50,
      "start": 14.9789,
      "duration": 2.4666,
      "velocity": 97,
      "chip": "ym2612"
    },
    {
      "channel": 3,
      "note": 57,
      "start": 14.9798,
      "duration": 2.4666,
      "velocity": 97,
      "chip": "ym2612"
    },
    {
      "channel": 4,
      "note": 57,
      "start": 15.0495,
      "duration": 0.4627,
      "velocity": 97,
      "chip": "ym2612"
    },
    {
      "channel": 1,
      "note": 50,
      "start": 15.0952,
      "duration": 0.041,
      "velocity": 101,
      "chip": "ym2612"
    },
    {
      "channel": 0,
      "note": 62,
      "start": 15.3699,
      "duration": 0.6411,
      "velocity": 97,
      "chip": "ym2612"
    },
    {
      "channel": 1,
      "note": 50,
      "start": 15.3706,
      "duration": 0.0409,
      "velocity": 101,
      "chip": "ym2612"
    },
    {
      "channel": 4,
      "note": 62,
      "start": 15.513,
      "duration": 0.7159,
      "velocity": 97,
      "chip": "ym2612"
    },
    {
      "channel": 0,
      "note": 69,
      "start": 16.0116,
      "duration": 0.716,
      "velocity": 97,
      "chip": "ym2612"
    },
    {
      "channel": 4,
      "note": 69,
      "start": 16.2296,
      "duration": 0.7163,
      "velocity": 97,
      "chip": "ym2612"
    },
    {
      "channel": 0,
      "note": 67,
      "start": 16.7283,
      "duration": 0.466,
      "velocity": 97,
      "chip": "ym2612"
    },
    {
      "channel": 1,
      "note": 50,
      "start": 16.7291,
      "duration": 0.466,
      "velocity": 101,
      "chip": "ym2612"
    },
    {
      "channel": 4,
      "note": 67,
      "start": 16.9466,
      "duration": 0.4827,
      "velocity": 97,
      "chip": "ym2612"
    },
    {
      "channel": 0,
      "note": 65,
      "start": 17.1949,
      "duration": 0.4827,
      "velocity": 97,
      "chip": "ym2612"
    },
    {
      "channel": 1,
      "note": 52,
      "start": 17.1957,
      "duration": 0.2489,
      "velocity": 101,
      "chip": "ym2612"
    },
    {
      "channel": 4,
      "note": 65,
      "start": 17.43,
      "duration": 0.4659,
      "velocity": 97,
      "chip": "ym2612"
    },
    {
      "channel": 1,
      "note": 53,
      "start": 17.4454,
      "duration": 0.2329,
      "velocity": 101,
      "chip": "ym2612"
    },
    {
      "channel": 2,
      "note": 50,
      "start": 17.4462,
      "duration": 0.9499,
      "velocity": 97,
      "chip": "ym2612"
    },
    {
      "channel": 3,
      "note": 57,
      "start": 17.447,
      "duration": 0.9499,
      "velocity": 97,
      "chip": "ym2612"
    },
    {
      "channel": 0,
      "note": 64,
      "start": 17.6783,
      "duration": 0.2327,
      "velocity": 97,
      "chip": "ym2612"
    },
    {
      "channel": 1,
      "note": 50,
      "start": 17.6791,
      "duration": 0.2326,
      "velocity": 101,
      "chip": "ym2612"
    },
    {
      "channel": 4,
      "note": 64,
      "start": 17.8966,
      "duration": 0.2327,
      "velocity": 97,
      "chip": "ym2612"
    },
    {
      "channel": 0,
      "note": 62,
      "start": 17.9115,
      "duration": 0.2494,
      "velocity": 97,
      "chip": "ym2612"
    },
    {
      "channel": 1,
      "note": 52,
      "start": 17.9124,
      "duration": 0.2493,
      "velocity": 101,
      "chip": "ym2612"
    },
    {
      "channel": 4,
      "note": 62,
      "start": 18.13,
      "duration": 0.2493,
      "velocity": 97,
      "chip": "ym2612"
    },
    {
      "channel": 0,
      "note": 65,
      "start": 18.1615,
      "duration": 0.233,
      "velocity": 97,
      "chip": "ym2612"
    },
    {
      "channel": 1,
      "note": 53,
      "start": 18.1624,
      "duration": 0.2328,
      "velocity": 101,
      "chip": "ym2612"
    },
    {
      "channel": 4,
      "note": 65,
      "start": 18.38,
      "duration": 0.1578,
      "velocity": 97,
      "chip": "ym2612"
    },
    {
      "channel": 0,
      "note": 64,
      "start": 18.3951,
      "duration": 0.5665,
      "velocity": 97,
      "chip": "ym2612"
    },
    {
      "channel": 1,
      "note": 50,
      "start": 18.396,
      "duration": 0.2741,
      "velocity": 101,
      "chip": "ym2612"
    },
    {
      "channel": 2,
      "note": 48,
      "start": 18.3968,
      "duration": 2.6243,
      "velocity": 97,
      "chip": "ym2612"
    },
    {
      "channel": 3,
      "note": 55,
      "start": 18.3976,
      "duration": 2.6243,
      "velocity": 97,
      "chip": "ym2612"
    },
    {
      "channel": 4,
      "note": 64,
      "start": 18.5384,
      "duration": 0.5661,
      "velocity": 97,
      "chip": "ym2612"
    },
    {
      "channel": 1,
      "note": 60,
      "start": 18.6708,
      "duration": 0.2915,
      "velocity": 101,
      "chip": "ym2612"
    },
    {
      "channel": 0,
      "note": 62,
      "start": 18.9622,
      "duration": 0.641,
      "velocity": 97,
      "chip": "ym2612"
    },
    {
      "channel": 1,
      "note": 50,
      "start": 18.963,
      "duration": 0.0407,
      "velocity": 101,
      "chip": "ym2612"
    },
    {
      "channel": 4,
      "note": 62,
      "start": 19.1052,
      "duration": 0.7159,
      "velocity": 97,
      "chip": "ym2612"
    },
    {
      "channel": 0,
      "note": 60,
      "start": 19.6038,
      "duration": 0.6994,
      "velocity": 97,
      "chip": "ym2612"
    },
    {
      "channel": 4,
      "note": 60,
      "start": 19.8218,
      "duration": 0.7163,
      "velocity": 97,
      "chip": "ym2612"
    },
    {
      "channel": 1,
      "note": 60,
      "start": 20.0713,
      "duration": 0.0677,
      "velocity": 101,
      "chip": "ym2612"
    },
    {
      "channel": 1,
      "note": 62,
      "start": 20.1398,
      "duration": 0.4159,
      "velocity": 101,
      "chip": "ym2612"
    },
    {
      "channel": 0,
      "note": 62,
      "start": 20.3039,
      "duration": 0.4827,
      "velocity": 97,
      "chip": "ym2612"
    },
    {
      "channel": 4,
      "note": 62,
      "start": 20.5388,
      "duration": 0.466,
      "velocity": 97,
      "chip": "ym2612"
    },
    {
      "channel": 1,
      "note": 60,
      "start": 20.5564,
      "duration": 0.4639,
      "velocity": 101,
      "chip": "ym2612"
    },
    {
      "channel": 0,
      "note": 60,
      "start": 20.7871,
      "duration": 0.4827,
      "velocity": 97,
      "chip": "ym2612"
    },
    {
      "channel": 4,
      "note": 60,
      "start": 21.0056,
      "duration": 0.4826,
      "velocity": 97,
      "chip": "ym2612"
    },
    {
      "channel": 1,
      "note": 55,
      "start": 21.021,
      "duration": 0.4826,
      "velocity": 101,
      "chip": "ym2612"
    },
    {
      "channel": 2,
      "note": 48,
      "start": 21.0218,
      "duration": 0.95,
      "velocity": 97,
      "chip": "ym2612"
    },
    {
      "channel": 3,
      "note": 55,
      "start": 21.0226,
      "duration": 0.95,
      "velocity": 97,
      "chip": "ym2612"
    },
    {
      "channel": 0,
      "note": 55,
      "start": 21.2705,
      "duration": 0.4661,
      "velocity": 97,
      "chip": "ym2612"
    },
    {
      "channel": 4,
      "note": 55,
      "start": 21.4888,
      "duration": 0.466,
      "velocity": 97,
      "chip": "ym2612"
    },
    {
      "channel": 1,
      "note": 52,
      "start": 21.5044,
      "duration": 0.4666,
      "velocity": 101,
      "chip": "ym2612"
    },
    {
      "channel": 0,
      "note": 56,
      "start": 21.7371,
      "duration": 0.2331,
      "velocity": 97,
      "chip": "ym2612"
    },
    {
      "channel": 4,
      "note": 56,
      "start": 21.9556,
      "duration": 0.1744,
      "velocity": 97,
      "chip": "ym2612"
    },
    {
      "channel": 0,
      "note": 57,
      "start": 21.9708,
      "duration": 0.5663,
      "velocity": 97,
      "chip": "ym2612"
    },
    {
      "channel": 1,
      "note": 50,
      "start": 21.9717,
      "duration": 0.2907,
      "velocity": 101,
      "chip": "ym2612"
    },
    {
      "channel": 2,
      "note": 50,
      "start": 21.9725,
      "duration": 2.6408,
      "velocity": 97,
      "chip": "ym2612"
    },
    {
      "channel": 3,
      "note": 57,
      "start": 21.9733,
      "duration": 2.6408,
      "velocity": 97,
      "chip": "ym2612"
    },
    {
      "channel": 4,
      "note": 57,
      "start": 22.1307,
      "duration": 0.5493,
      "velocity": 97,
      "chip": "ym2612"
    },
    {
      "channel": 1,
      "note": 50,
      "start": 22.263,
      "duration": 0.041,
      "velocity": 101,
      "chip": "ym2612"
    },
    {
      "channel": 0,
      "note": 62,
      "start": 22.5377,
      "duration": 0.641,
      "velocity": 97,
      "chip": "ym2612"
    },
    {
      "channel": 1,
      "note": 50,
      "start": 22.5384,
      "duration": 0.0575,
      "velocity": 101,
      "chip": "ym2612"
    },
    {
      "channel": 4,
      "note": 62,
      "start": 22.6807,
      "duration": 0.7159,
      "velocity": 97,
      "chip": "ym2612"
    },
    {
      "channel": 0,
      "note": 69,
      "start": 23.1793,
      "duration": 0.716,
      "velocity": 97,
      "chip": "ym2612"
    },
    {
      "channel": 4,
      "note": 69,
      "start": 23.3973,
      "duration": 0.7163,
      "velocity": 97,
      "chip": "ym2612"
    },
    {
      "channel": 0,
      "note": 67,
      "start": 23.896,
      "duration": 0.4827,
      "velocity": 97,
      "chip": "ym2612"
    },
    {
      "channel": 1,
      "note": 50,
      "start": 23.8968,
      "duration": 0.4826,
      "velocity": 101,
      "chip": "ym2612"
    },
    {
      "channel": 4,
      "note": 67,
      "start": 24.1143,
      "duration": 0.4827,
      "velocity": 97,
      "chip": "ym2612"
    },
    {
      "channel": 0,
      "note": 65,
      "start": 24.3792,
      "duration": 0.4661,
      "velocity": 97,
      "chip": "ym2612"
    },
    {
      "channel": 1,
      "note": 52,
      "start": 24.3801,
      "duration": 0.2322,
      "velocity": 101,
      "chip": "ym2612"
    },
    {
      "channel": 4,
      "note": 65,
      "start": 24.5977,
      "duration": 0.4659,
      "velocity": 97,
      "chip": "ym2612"
    },
    {
      "channel": 1,
      "note": 53,
      "start": 24.6131,
      "duration": 0.2329,
      "velocity": 101,
      "chip": "ym2612"
    },
    {
      "channel": 2,
      "note": 50,
      "start": 24.6139,
      "duration": 0.95,
      "velocity": 97,
      "chip": "ym2612"
    },
    {
      "channel": 3,
      "note": 57,
      "start": 24.6147,
      "duration": 0.95,
      "velocity": 97,
      "chip": "ym2612"
    },
    {
      "channel": 0,
      "note": 67,
      "start": 24.8459,
      "duration": 0.2494,
      "velocity": 97,
      "chip": "ym2612"
    },
    {
      "channel": 1,
      "note": 50,
      "start": 24.8468,
      "duration": 0.2493,
      "velocity": 101,
      "chip": "ym2612"
    },
    {
      "channel": 4,
      "note": 67,
      "start": 25.0643,
      "duration": 0.2493,
      "velocity": 97,
      "chip": "ym2612"
    },
    {
      "channel": 0,
      "note": 65,
      "start": 25.0959,
      "duration": 0.2327,
      "velocity": 97,
      "chip": "ym2612"
    },
    {
      "channel": 1,
      "note": 52,
      "start": 25.0968,
      "duration": 0.2326,
      "velocity": 101,
      "chip": "ym2612"
    },
    {
      "channel": 4,
      "note": 65,
      "start": 25.3143,
      "duration": 0.2327,
      "velocity": 97,
      "chip": "ym2612"
    },
    {
      "channel": 0,
      "note": 62,
      "start": 25.3292,
      "duration": 0.2331,
      "velocity": 97,
      "chip": "ym2612"
    },
    {
      "channel": 1,
      "note": 53,
      "start": 25.3301,
      "duration": 0.2329,
      "velocity": 101,
      "chip": "ym2612"
    },
    {
      "channel": 4,
      "note": 62,
      "start": 25.5477,
      "duration": 0.1577,
      "velocity": 97,
      "chip": "ym2612"
    },
    {
      "channel": 0,
      "note": 64,
      "start": 25.5629,
      "duration": 0.5662,
      "velocity": 97,
      "chip": "ym2612"
    },
    {
      "channel": 1,
      "note": 48,
      "start": 25.5638,
      "duration": 0.2906,
      "velocity": 101,
      "chip": "ym2612"
    },
    {
      "channel": 2,
      "note": 48,
      "start": 25.5646,
      "duration": 2.641,
      "velocity": 97,
      "chip": "ym2612"
    },
    {
      "channel": 3,
      "note": 55,
      "start": 25.5654,
      "duration": 2.641,
      "velocity": 97,
      "chip": "ym2612"
    },
    {
      "channel": 4,
      "note": 64,
      "start": 25.706,
      "duration": 0.5664,
      "velocity": 97,
      "chip": "ym2612"
    },
    {
      "channel": 1,
      "note": 55,
      "start": 25.8551,
      "duration": 0.041,
      "velocity": 101,
      "chip": "ym2612"
    },
    {
      "channel": 0,
      "note": 69,
      "start": 26.1298,
      "duration": 2.4471,
      "velocity": 97,
      "chip": "ym2612"
    },
    {
      "channel": 1,
      "note": 65,
      "start": 26.1306,
      "duration": 0.023,
      "velocity": 101,
      "chip": "ym2612"
    },
    {
      "channel": 1,
      "note": 67,
      "start": 26.1544,
      "duration": 0.6189,
      "velocity": 101,
      "chip": "ym2612"
    },
    {
      "channel": 4,
      "note": 69,
      "start": 26.2732,
      "duration": 2.3739,
      "velocity": 97,
      "chip": "ym2612"
    },
    {
      "channel": 1,
      "note": 65,
      "start": 26.7741,
      "duration": 0.4641,
      "velocity": 101,
      "chip": "ym2612"
    },
    {
      "channel": 1,
      "note": 64,
      "start": 27.239,
      "duration": 0.4822,
      "velocity": 101,
      "chip": "ym2612"
    },
    {
      "channel": 1,
      "note": 60,
      "start": 27.722,
      "duration": 0.4827,
      "velocity": 101,
      "chip": "ym2612"
    },
    {
      "channel": 1,
      "note": 52,
      "start": 28.2054,
      "duration": 0.116,
      "velocity": 101,
      "chip": "ym2612"
    },
    {
      "channel": 2,
      "note": 48,
      "start": 28.2062,
      "duration": 0.3722,
      "velocity": 97,
      "chip": "ym2612"
    },
    {
      "channel": 3,
      "note": 55,
      "start": 28.207,
      "duration": 0.3722,
      "velocity": 97,
      "chip": "ym2612"
    },
    {
      "channel": 1,
      "note": 53,
      "start": 28.3222,
      "duration": 0.0349,
      "velocity": 101,
      "chip": "ym2612"
    },
    {
      "channel": 1,
      "note": 55,
      "start": 28.3577,
      "duration": 0.0349,
      "velocity": 101,
      "chip": "ym2612"
    },
    {
      "channel": 1,
      "note": 53,
      "start": 28.3933,
      "duration": 0.0349,
      "velocity": 101,
      "chip": "ym2612"
    },
    {
      "channel": 1,
      "note": 50,
      "start": 28.4289,
      "duration": 0.0353,
      "velocity": 101,
      "chip": "ym2612"
    },
    {
      "channel": 1,
      "note": 48,
      "start": 28.4649,
      "duration": 0.0355,
      "velocity": 101,
      "chip": "ym2612"
    },
    {
      "channel": 1,
      "note": 47,
      "start": 28.5011,
      "duration": 0.0402,
      "velocity": 101,
      "chip": "ym2612"
    },
    {
      "channel": 1,
      "note": 52,
      "start": 28.5419,
      "duration": 0.0356,
      "velocity": 101,
      "chip": "ym2612"
    },
    {
      "channel": 0,
      "note": 57,
      "start": 28.5774,
      "duration": 0.403,
      "velocity": 97,
      "chip": "ym2612"
    },
    {
      "channel": 1,
      "note": 50,
      "start": 28.5783,
      "duration": 0.1106,
      "velocity": 101,
      "chip": "ym2612"
    },
    {
      "channel": 2,
      "note": 50,
      "start": 28.5791,
      "duration": 2.4609,
      "velocity": 97,
      "chip": "ym2612"
    },
    {
      "channel": 3,
      "note": 57,
      "start": 28.58,
      "duration": 2.4609,
      "velocity": 97,
      "chip": "ym2612"
    },
    {
      "channel": 4,
      "note": 57,
      "start": 28.6478,
      "duration": 0.4755,
      "velocity": 97,
      "chip": "ym2612"
    },
    {
      "channel": 1,
      "note": 50,
      "start": 28.6896,
      "duration": 0.0411,
      "velocity": 101,
      "chip": "ym2612"
    },
    {
      "channel": 0,
      "note": 62,
      "start": 28.981,
      "duration": 0.6243,
      "velocity": 97,
      "chip": "ym2612"
    },
    {
      "channel": 1,
      "note": 50,
      "start": 28.9817,
      "duration": 0.0408,
      "velocity": 101,
      "chip": "ym2612"
    },
    {
      "channel": 4,
      "note": 62,
      "start": 29.124,
      "duration": 0.7159,
      "velocity": 97,
      "chip": "ym2612"
    },
    {
      "channel": 0,
      "note": 69,
      "start": 29.6059,
      "duration": 0.716,
      "velocity": 97,
      "chip": "ym2612"
    },
    {
      "channel": 4,
      "note": 69,
      "start": 29.8406,
      "duration": 0.6997,
      "velocity": 97,
      "chip": "ym2612"
    },
    {
      "channel": 0,
      "note": 67,
      "start": 30.3225,
      "duration": 0.4827,
      "velocity": 97,
      "chip": "ym2612"
    },
    {
      "channel": 1,
      "note": 50,
      "start": 30.3234,
      "duration": 0.4826,
      "velocity": 101,
      "chip": "ym2612"
    },
    {
      "channel": 4,
      "note": 67,
      "start": 30.541,
      "duration": 0.4826,
      "velocity": 97,
      "chip": "ym2612"
    },
    {
      "channel": 0,
      "note": 65,
      "start": 30.8059,
      "duration": 0.4663,
      "velocity": 97,
      "chip": "ym2612"
    },
    {
      "channel": 1,
      "note": 52,
      "start": 30.8068,
      "duration": 0.2324,
      "velocity": 101,
      "chip": "ym2612"
    },
    {
      "channel": 4,
      "note": 65,
      "start": 31.0243,
      "duration": 0.4078,
      "velocity": 97,
      "chip": "ym2612"
    },
    {
      "channel": 1,
      "note": 53,
      "start": 31.0398,
      "duration": 0.2331,
      "velocity": 101,
      "chip": "ym2612"
    },
    {
      "channel": 2,
      "note": 50,
      "start": 31.0407,
      "duration": 0.6531,
      "velocity": 97,
      "chip": "ym2612"
    },
    {
      "channel": 3,
      "note": 57,
      "start": 31.0415,
      "duration": 0.6531,
      "velocity": 97,
      "chip": "ym2612"
    },
    {
      "channel": 0,
      "note": 67,
      "start": 31.2728,
      "duration": 0.1746,
      "velocity": 97,
      "chip": "ym2612"
    },
    {
      "channel": 1,
      "note": 50,
      "start": 31.2736,
      "duration": 0.1745,
      "velocity": 101,
      "chip": "ym2612"
    },
    {
      "channel": 4,
      "note": 67,
      "start": 31.4327,
      "duration": 0.082,
      "velocity": 97,
      "chip": "ym2612"
    },
    {
      "channel": 0,
      "note": 65,
      "start": 31.448,
      "duration": 0.0707,
      "velocity": 97,
      "chip": "ym2612"
    },
    {
      "channel": 1,
      "note": 52,
      "start": 31.4488,
      "duration": 0.0705,
      "velocity": 101,
      "chip": "ym2612"
    },
    {
      "channel": 4,
      "note": 65,
      "start": 31.5154,
      "duration": 0.1615,
      "velocity": 97,
      "chip": "ym2612"
    },
    {
      "channel": 0,
      "note": 62,
      "start": 31.5192,
      "duration": 0.173,
      "velocity": 97,
      "chip": "ym2612"
    },
    {
      "channel": 1,
      "note": 53,
      "start": 31.52,
      "duration": 0.1729,
      "velocity": 101,
      "chip": "ym2612"
    },
    {
      "channel": 4,
      "note": 62,
      "start": 31.6776,
      "duration": 0.1578,
      "velocity": 97,
      "chip": "ym2612"
    },
    {
      "channel": 0,
      "note": 64,
      "start": 31.6927,
      "duration": 0.5664,
      "velocity": 97,
      "chip": "ym2612"
    },
    {
      "channel": 1,
      "note": 50,
      "start": 31.6936,
      "duration": 0.2908,
      "velocity": 101,
      "chip": "ym2612"
    },
    {
      "channel": 2,
      "note": 48,
      "start": 31.6945,
      "duration": 2.641,
      "velocity": 97,
      "chip": "ym2612"
    },
    {
      "channel": 3,
      "note": 55,
      "start": 31.6953,
      "duration": 2.6411,
      "velocity": 97,
      "chip": "ym2612"
    },
    {
      "channel": 4,
      "note": 64,
      "start": 31.836,
      "duration": 0.5661,
      "velocity": 97,
      "chip": "ym2612"
    },
    {
      "channel": 1,
      "note": 60,
      "start": 31.9851,
      "duration": 0.2748,
      "velocity": 101,
      "chip": "ym2612"
    },
    {
      "channel": 0,
      "note": 60,
      "start": 32.2598,
      "duration": 0.641,
      "velocity": 97,
      "chip": "ym2612"
    },
    {
      "channel": 1,
      "note": 50,
      "start": 32.2606,
      "duration": 0.0407,
      "velocity": 101,
      "chip": "ym2612"
    },
    {
      "channel": 4,
      "note": 60,
      "start": 32.4028,
      "duration": 0.7159,
      "velocity": 97,
      "chip": "ym2612"
    },
    {
      "channel": 0,
      "note": 57,
      "start": 32.9014,
      "duration": 0.716,
      "velocity": 97,
      "chip": "ym2612"
    },
    {
      "channel": 4,
      "note": 57,
      "start": 33.1194,
      "duration": 0.7163,
      "velocity": 97,
      "chip": "ym2612"
    },
    {
      "channel": 1,
      "note": 60,
      "start": 33.3856,
      "duration": 0.051,
      "velocity": 101,
      "chip": "ym2612"
    },
    {
      "channel": 1,
      "note": 62,
      "start": 33.4374,
      "duration": 0.4159,
      "velocity": 101,
      "chip": "ym2612"
    },
    {
      "channel": 0,
      "note": 64,
      "start": 33.6181,
      "duration": 0.4827,
      "velocity": 97,
      "chip": "ym2612"
    },
    {
      "channel": 4,
      "note": 64,
      "start": 33.8365,
      "duration": 0.4826,
      "velocity": 97,
      "chip": "ym2612"
    },
    {
      "channel": 1,
      "note": 60,
      "start": 33.854,
      "duration": 0.4807,
      "velocity": 101,
      "chip": "ym2612"
    },
    {
      "channel": 0,
      "note": 62,
      "start": 34.1014,
      "duration": 0.4663,
      "velocity": 97,
      "chip": "ym2612"
    },
    {
      "channel": 4,
      "note": 62,
      "start": 34.3198,
      "duration": 0.321,
      "velocity": 97,
      "chip": "ym2612"
    },
    {
      "channel": 1,
      "note": 55,
      "start": 34.3353,
      "duration": 0.3168,
      "velocity": 101,
      "chip": "ym2612"
    },
    {
      "channel": 2,
      "note": 48,
      "start": 34.3361,
      "duration": 0.5667,
      "velocity": 97,
      "chip": "ym2612"
    },
    {
      "channel": 3,
      "note": 55,
      "start": 34.337,
      "duration": 0.5667,
      "velocity": 97,
      "chip": "ym2612"
    },
    {
      "channel": 0,
      "note": 60,
      "start": 34.5683,
      "duration": 0.0831,
      "velocity": 97,
      "chip": "ym2612"
    },
    {
      "channel": 4,
      "note": 60,
      "start": 34.6415,
      "duration": 0.0773,
      "velocity": 97,
      "chip": "ym2612"
    },
    {
      "channel": 0,
      "note": 55,
      "start": 34.652,
      "duration": 0.0758,
      "velocity": 97,
      "chip": "ym2612"
    },
    {
      "channel": 1,
      "note": 52,
      "start": 34.6528,
      "duration": 0.2492,
      "velocity": 101,
      "chip": "ym2612"
    },
    {
      "channel": 4,
      "note": 55,
      "start": 34.7195,
      "duration": 0.1666,
      "velocity": 97,
      "chip": "ym2612"
    },
    {
      "channel": 0,
      "note": 56,
      "start": 34.7283,
      "duration": 0.1729,
      "velocity": 97,
      "chip": "ym2612"
    },
    {
      "channel": 4,
      "note": 56,
      "start": 34.8867,
      "duration": 0.0845,
      "velocity": 97,
      "chip": "ym2612"
    },
    {
      "channel": 0,
      "note": 57,
      "start": 34.9019,
      "duration": 0.4014,
      "velocity": 97,
      "chip": "ym2612"
    },
    {
      "channel": 1,
      "note": 50,
      "start": 34.9027,
      "duration": 0.1092,
      "velocity": 101,
      "chip": "ym2612"
    },
    {
      "channel": 2,
      "note": 50,
      "start": 34.9036,
      "duration": 2.4593,
      "velocity": 97,
      "chip": "ym2612"
    },
    {
      "channel": 3,
      "note": 57,
      "start": 34.9044,
      "duration": 2.4593,
      "velocity": 97,
      "chip": "ym2612"
    },
    {
      "channel": 4,
      "note": 57,
      "start": 34.9719,
      "duration": 0.4742,
      "velocity": 97,
      "chip": "ym2612"
    },
    {
      "channel": 1,
      "note": 50,
      "start": 35.0126,
      "duration": 0.0576,
      "velocity": 101,
      "chip": "ym2612"
    },
    {
      "channel": 0,
      "note": 62,
      "start": 35.3039,
      "duration": 0.641,
      "velocity": 97,
      "chip": "ym2612"
    },
    {
      "channel": 1,
      "note": 50,
      "start": 35.3046,
      "duration": 0.0408,
      "velocity": 101,
      "chip": "ym2612"
    },
    {
      "channel": 4,
      "note": 62,
      "start": 35.4469,
      "duration": 0.7159,
      "velocity": 97,
      "chip": "ym2612"
    },
    {
      "channel": 0,
      "note": 69,
      "start": 35.9455,
      "duration": 0.716,
      "velocity": 97,
      "chip": "ym2612"
    },
    {
      "channel": 4,
      "note": 69,
      "start": 36.1635,
      "duration": 0.7163,
      "velocity": 97,
      "chip": "ym2612"
    },
    {
      "channel": 0,
      "note": 67,
      "start": 36.6622,
      "duration": 0.466,
      "velocity": 97,
      "chip": "ym2612"
    },
    {
      "channel": 1,
      "note": 50,
      "start": 36.663,
      "duration": 0.466,
      "velocity": 101,
      "chip": "ym2612"
    },
    {
      "channel": 4,
      "note": 67,
      "start": 36.8805,
      "duration": 0.466,
      "velocity": 97,
      "chip": "ym2612"
    },
    {
      "channel": 0,
      "note": 65,
      "start": 37.1288,
      "duration": 0.483,
      "velocity": 97,
      "chip": "ym2612"
    },
    {
      "channel": 1,
      "note": 52,
      "start": 37.1296,
      "duration": 0.2324,
      "velocity": 101,
      "chip": "ym2612"
    },
    {
      "channel": 4,
      "note": 65,
      "start": 37.3472,
      "duration": 0.4078,
      "velocity": 97,
      "chip": "ym2612"
    },
    {
      "channel": 1,
      "note": 53,
      "start": 37.3627,
      "duration": 0.2498,
      "velocity": 101,
      "chip": "ym2612"
    },
    {
      "channel": 2,
      "note": 50,
      "start": 37.3635,
      "duration": 0.6698,
      "velocity": 97,
      "chip": "ym2612"
    },
    {
      "channel": 3,
      "note": 57,
      "start": 37.3644,
      "duration": 0.6698,
      "velocity": 97,
      "chip": "ym2612"
    },
    {
      "channel": 0,
      "note": 64,
      "start": 37.6123,
      "duration": 0.158,
      "velocity": 97,
      "chip": "ym2612"
    },
    {
      "channel": 1,
      "note": 50,
      "start": 37.6132,
      "duration": 0.1579,
      "velocity": 101,
      "chip": "ym2612"
    },
    {
      "channel": 4,
      "note": 64,
      "start": 37.7557,
      "duration": 0.0821,
      "velocity": 97,
      "chip": "ym2612"
    },
    {
      "channel": 0,
      "note": 65,
      "start": 37.7709,
      "duration": 0.0708,
      "velocity": 97,
      "chip": "ym2612"
    },
    {
      "channel": 1,
      "note": 52,
      "start": 37.7717,
      "duration": 0.0707,
      "velocity": 101,
      "chip": "ym2612"
    },
    {
      "channel": 4,
      "note": 65,
      "start": 37.8384,
      "duration": 0.1615,
      "velocity": 97,
      "chip": "ym2612"
    },
    {
      "channel": 0,
      "note": 62,
      "start": 37.8422,
      "duration": 0.1895,
      "velocity": 97,
      "chip": "ym2612"
    },
    {
      "channel": 1,
      "note": 53,
      "start": 37.8431,
      "duration": 0.1894,
      "velocity": 101,
      "chip": "ym2612"
    },
    {
      "channel": 4,
      "note": 62,
      "start": 38.0005,
      "duration": 0.1744,
      "velocity": 97,
      "chip": "ym2612"
    },
    {
      "channel": 0,
      "note": 64,
      "start": 38.0324,
      "duration": 0.5498,
      "velocity": 97,
      "chip": "ym2612"
    },
    {
      "channel": 1,
      "note": 48,
      "start": 38.0332,
      "duration": 0.2741,
      "velocity": 101,
      "chip": "ym2612"
    },
    {
      "channel": 2,
      "note": 48,
      "start": 38.0341,
      "duration": 2.4748,
      "velocity": 97,
      "chip": "ym2612"
    },
    {
      "channel": 3,
      "note": 55,
      "start": 38.0349,
      "duration": 2.4748,
      "velocity": 97,
      "chip": "ym2612"
    },
    {
      "channel": 4,
      "note": 64,
      "start": 38.1756,
      "duration": 0.5664,
      "velocity": 97,
      "chip": "ym2612"
    },
    {
      "channel": 1,
      "note": 55,
      "start": 38.308,
      "duration": 0.0411,
      "velocity": 101,
      "chip": "ym2612"
    },
    {
      "channel": 0,
      "note": 69,
      "start": 38.5827,
      "duration": 2.2191,
      "velocity": 97,
      "chip": "ym2612"
    },
    {
      "channel": 1,
      "note": 65,
      "start": 38.5836,
      "duration": 0.0227,
      "velocity": 101,
      "chip": "ym2612"
    },
    {
      "channel": 1,
      "note": 67,
      "start": 38.607,
      "duration": 0.6192,
      "velocity": 101,
      "chip": "ym2612"
    },
    {
      "channel": 4,
      "note": 69,
      "start": 38.7427,
      "duration": 2.1242,
      "velocity": 97,
      "chip": "ym2612"
    },
    {
      "channel": 1,
      "note": 65,
      "start": 39.227,
      "duration": 0.4809,
      "velocity": 101,
      "chip": "ym2612"
    },
    {
      "channel": 1,
      "note": 64,
      "start": 39.7086,
      "duration": 0.3909,
      "velocity": 101,
      "chip": "ym2612"
    },
    {
      "channel": 1,
      "note": 60,
      "start": 40.1002,
      "duration": 0.4078,
      "velocity": 101,
      "chip": "ym2612"
    },
    {
      "channel": 1,
      "note": 55,
      "start": 40.5088,
      "duration": 0.1515,
      "velocity": 101,
      "chip": "ym2612"
    },
    {
      "channel": 2,
      "note": 48,
      "start": 40.5096,
      "duration": 0.2963,
      "velocity": 62,
      "chip": "ym2612"
    },
    {
      "channel": 3,
      "note": 55,
      "start": 40.5104,
      "duration": 0.2983,
      "velocity": 62,
      "chip": "ym2612"
    },
    {
      "channel": 1,
      "note": 52,
      "start": 40.661,
      "duration": 0.1415,
      "velocity": 101,
      "chip": "ym2612"
    },
    {
      "channel": 0,
      "note": 77,
      "start": 40.8024,
      "duration": 0.386,
      "velocity": 97,
      "chip": "ym2612"
    },
    {
      "channel": 1,
      "note": 58,
      "start": 40.8032,
      "duration": 0.1104,
      "velocity": 101,
      "chip": "ym2612"
    },
    {
      "channel": 4,
      "note": 77,
      "start": 40.8676,
      "duration": 0.464,
      "velocity": 97,
      "chip": "ym2612"
    },
    {
      "channel": 2,
      "note": 77,
      "start": 40.8724,
      "duration": 0.0832,
      "velocity": 62,
      "chip": "ym2612"
    },
    {
      "channel": 3,
      "note": 70,
      "start": 40.8733,
      "duration": 0.0832,
      "velocity": 62,
      "chip": "ym2612"
    },
    {
      "channel": 1,
      "note": 53,
      "start": 40.9144,
      "duration": 0.0409,
      "velocity": 101,
      "chip": "ym2612"
    },
    {
      "channel": 2,
      "note": 77,
      "start": 40.9563,
      "duration": 0.2337,
      "velocity": 62,
      "chip": "ym2612"
    },
    {
      "channel": 3,
      "note": 70,
      "start": 40.9571,
      "duration": 0.2337,
      "velocity": 62,
      "chip": "ym2612"
    },
    {
      "channel": 0,
      "note": 74,
      "start": 41.1889,
      "duration": 0.408,
      "velocity": 97,
      "chip": "ym2612"
    },
    {
      "channel": 1,
      "note": 58,
      "start": 41.1898,
      "duration": 0.738,
      "velocity": 101,
      "chip": "ym2612"
    },
    {
      "channel": 2,
      "note": 77,
      "start": 41.1907,
      "duration": 0.157,
      "velocity": 62,
      "chip": "ym2612"
    },
    {
      "channel": 3,
      "note": 70,
      "start": 41.1915,
      "duration": 0.157,
      "velocity": 62,
      "chip": "ym2612"
    },
    {
      "channel": 4,
      "note": 74,
      "start": 41.3323,
      "duration": 0.3387,
      "velocity": 97,
      "chip": "ym2612"
    },
    {
      "channel": 2,
      "note": 77,
      "start": 41.3483,
      "duration": 0.2497,
      "velocity": 62,
      "chip": "ym2612"
    },
    {
      "channel": 3,
      "note": 70,
      "start": 41.3491,
      "duration": 0.2498,
      "velocity": 62,
      "chip": "ym2612"
    },
    {
      "channel": 0,
      "note": 79,
      "start": 41.5975,
      "duration": 0.0831,
      "velocity": 97,
      "chip": "ym2612"
    },
    {
      "channel": 2,
      "note": 77,
      "start": 41.5987,
      "duration": 0.0831,
      "velocity": 62,
      "chip": "ym2612"
    },
    {
      "channel": 3,
      "note": 70,
      "start": 41.5996,
      "duration": 0.083,
      "velocity": 62,
      "chip": "ym2612"
    },
    {
      "channel": 4,
      "note": 79,
      "start": 41.6716,
      "duration": 0.0792,
      "velocity": 97,
      "chip": "ym2612"
    },
    {
      "channel": 0,
      "note": 77,
      "start": 41.6812,
      "duration": 0.0736,
      "velocity": 97,
      "chip": "ym2612"
    },
    {
      "channel": 2,
      "note": 77,
      "start": 41.6824,
      "duration": 0.0734,
      "velocity": 62,
      "chip": "ym2612"
    },
    {
      "channel": 3,
      "note": 70,
      "start": 41.6833,
      "duration": 0.0734,
      "velocity": 62,
      "chip": "ym2612"
    },
    {
      "channel": 4,
      "note": 77,
      "start": 41.7515,
      "duration": 0.1602,
      "velocity": 97,
      "chip": "ym2612"
    },
    {
      "channel": 0,
      "note": 76,
      "start": 41.7553,
      "duration": 0.1717,
      "velocity": 97,
      "chip": "ym2612"
    },
    {
      "channel": 2,
      "note": 77,
      "start": 41.7565,
      "duration": 0.1715,
      "velocity": 62,
      "chip": "ym2612"
    },
    {
      "channel": 3,
      "note": 70,
      "start": 41.7574,
      "duration": 0.1715,
      "velocity": 62,
      "chip": "ym2612"
    },
    {
      "channel": 4,
      "note": 76,
      "start": 41.9125,
      "duration": 0.1741,
      "velocity": 97,
      "chip": "ym2612"
    },
    {
      "channel": 0,
      "note": 77,
      "start": 41.9276,
      "duration": 0.5664,
      "velocity": 97,
      "chip": "ym2612"
    },
    {
      "channel": 2,
      "note": 79,
      "start": 41.9288,
      "duration": 0.1746,
      "velocity": 62,
      "chip": "ym2612"
    },
    {
      "channel": 3,
      "note": 72,
      "start": 41.9297,
      "duration": 0.1746,
      "velocity": 62,
      "chip": "ym2612"
    },
    {
      "channel": 4,
      "note": 77,
      "start": 42.0873,
      "duration": 0.55,
      "velocity": 97,
      "chip": "ym2612"
    },
    {
      "channel": 1,
      "note": 65,
      "start": 42.1033,
      "duration": 0.1577,
      "velocity": 101,
      "chip": "ym2612"
    },
    {
      "channel": 2,
      "note": 79,
      "start": 42.1041,
      "duration": 0.1578,
      "velocity": 62,
      "chip": "ym2612"
    },
    {
      "channel": 3,
      "note": 72,
      "start": 42.1049,
      "duration": 0.1578,
      "velocity": 62,
      "chip": "ym2612"
    },
    {
      "channel": 1,
      "note": 64,
      "start": 42.2617,
      "duration": 0.233,
      "velocity": 101,
      "chip": "ym2612"
    },
    {
      "channel": 2,
      "note": 79,
      "start": 42.2625,
      "duration": 0.2331,
      "velocity": 62,
      "chip": "ym2612"
    },
    {
      "channel": 3,
      "note": 72,
      "start": 42.2634,
      "duration": 0.2331,
      "velocity": 62,
      "chip": "ym2612"
    },
    {
      "channel": 0,
      "note": 72,
      "start": 42.4946,
      "duration": 0.4078,
      "velocity": 97,
      "chip": "ym2612"
    },
    {
      "channel": 1,
      "note": 62,
      "start": 42.4955,
      "duration": 0.174,
      "velocity": 101,
      "chip": "ym2612"
    },
    {
      "channel": 2,
      "note": 79,
      "start": 42.4963,
      "duration": 0.174,
      "velocity": 62,
      "chip": "ym2612"
    },
    {
      "channel": 3,
      "note": 72,
      "start": 42.4971,
      "duration": 0.1741,
      "velocity": 62,
      "chip": "ym2612"
    },
    {
      "channel": 4,
      "note": 72,
      "start": 42.6379,
      "duration": 0.4827,
      "velocity": 97,
      "chip": "ym2612"
    },
    {
      "channel": 1,
      "note": 60,
      "start": 42.6702,
      "duration": 0.2329,
      "velocity": 101,
      "chip": "ym2612"
    },
    {
      "channel": 2,
      "note": 79,
      "start": 42.6711,
      "duration": 0.2329,
      "velocity": 62,
      "chip": "ym2612"
    },
    {
      "channel": 3,
      "note": 72,
      "start": 42.6719,
      "duration": 0.2329,
      "velocity": 62,
      "chip": "ym2612"
    },
    {
      "channel": 0,
      "note": 79,
      "start": 42.9031,
      "duration": 0.2328,
      "velocity": 97,
      "chip": "ym2612"
    },
    {
      "channel": 1,
      "note": 52,
      "start": 42.9039,
      "duration": 0.2327,
      "velocity": 101,
      "chip": "ym2612"
    },
    {
      "channel": 2,
      "note": 79,
      "start": 42.9047,
      "duration": 0.2328,
      "velocity": 62,
      "chip": "ym2612"
    },
    {
      "channel": 3,
      "note": 72,
      "start": 42.9056,
      "duration": 0.2327,
      "velocity": 62,
      "chip": "ym2612"
    },
    {
      "channel": 4,
      "note": 79,
      "start": 43.1212,
      "duration": 0.085,
      "velocity": 97,
      "chip": "ym2612"
    },
    {
      "channel": 0,
      "note": 77,
      "start": 43.1365,
      "duration": 0.0788,
      "velocity": 97,
      "chip": "ym2612"
    },
    {
      "channel": 1,
      "note": 55,
      "start": 43.1373,
      "duration": 0.0787,
      "velocity": 101,
      "chip": "ym2612"
    },
    {
      "channel": 2,
      "note": 79,
      "start": 43.1382,
      "duration": 0.0787,
      "velocity": 62,
      "chip": "ym2612"
    },
    {
      "channel": 3,
      "note": 72,
      "start": 43.139,
      "duration": 0.0788,
      "velocity": 62,
      "chip": "ym2612"
    },
    {
      "channel": 4,
      "note": 77,
      "start": 43.2069,
      "duration": 0.1654,
      "velocity": 97,
      "chip": "ym2612"
    },
    {
      "channel": 0,
      "note": 76,
      "start": 43.2159,
      "duration": 0.1717,
      "velocity": 97,
      "chip": "ym2612"
    },
    {
      "channel": 1,
      "note": 60,
      "start": 43.2168,
      "duration": 0.1716,
      "velocity": 101,
      "chip": "ym2612"
    },
    {
      "channel": 2,
      "note": 79,
      "start": 43.2176,
      "duration": 0.1716,
      "velocity": 62,
      "chip": "ym2612"
    },
    {
      "channel": 3,
      "note": 72,
      "start": 43.2185,
      "duration": 0.1715,
      "velocity": 62,
      "chip": "ym2612"
    },
    {
      "channel": 4,
      "note": 76,
      "start": 43.3729,
      "duration": 0.1578,
      "velocity": 97,
      "chip": "ym2612"
    },
    {
      "channel": 0,
      "note": 77,
      "start": 43.3882,
      "duration": 0.5664,
      "velocity": 97,
      "chip": "ym2612"
    },
    {
      "channel": 1,
      "note": 57,
      "start": 43.389,
      "duration": 0.2741,
      "velocity": 101,
      "chip": "ym2612"
    },
    {
      "channel": 2,
      "note": 76,
      "start": 43.3899,
      "duration": 0.1569,
      "velocity": 62,
      "chip": "ym2612"
    },
    {
      "channel": 3,
      "note": 69,
      "start": 43.3907,
      "duration": 0.1569,
      "velocity": 62,
      "chip": "ym2612"
    },
    {
      "channel": 4,
      "note": 77,
      "start": 43.5315,
      "duration": 0.4931,
      "velocity": 97,
      "chip": "ym2612"
    },
    {
      "channel": 2,
      "note": 76,
      "start": 43.5475,
      "duration": 0.1577,
      "velocity": 62,
      "chip": "ym2612"
    },
    {
      "channel": 3,
      "note": 69,
      "start": 43.5483,
      "duration": 0.1577,
      "velocity": 62,
      "chip": "ym2612"
    },
    {
      "channel": 1,
      "note": 64,
      "start": 43.6638,
      "duration": 0.0411,
      "velocity": 101,
      "chip": "ym2612"
    },
    {
      "channel": 2,
      "note": 76,
      "start": 43.7059,
      "duration": 0.2503,
      "velocity": 62,
      "chip": "ym2612"
    },
    {
      "channel": 3,
      "note": 69,
      "start": 43.7068,
      "duration": 0.2502,
      "velocity": 62,
      "chip": "ym2612"
    },
    {
      "channel": 0,
      "note": 72,
      "start": 43.9552,
      "duration": 0.2664,
      "velocity": 97,
      "chip": "ym2612"
    },
    {
      "channel": 1,
      "note": 69,
      "start": 43.9561,
      "duration": 0.4407,
      "velocity": 101,
      "chip": "ym2612"
    },
    {
      "channel": 2,
      "note": 76,
      "start": 43.9569,
      "duration": 0.0725,
      "velocity": 62,
      "chip": "ym2612"
    },
    {
      "channel": 3,
      "note": 72,
      "start": 43.9577,
      "duration": 0.0726,
      "velocity": 62,
      "chip": "ym2612"
    },
    {
      "channel": 4,
      "note": 72,
      "start": 44.0252,
      "duration": 0.2703,
      "velocity": 97,
      "chip": "ym2612"
    },
    {
      "channel": 2,
      "note": 76,
      "start": 44.0301,
      "duration": 0.1927,
      "velocity": 62,
      "chip": "ym2612"
    },
    {
      "channel": 3,
      "note": 72,
      "start": 44.031,
      "duration": 0.1927,
      "velocity": 62,
      "chip": "ym2612"
    },
    {
      "channel": 0,
      "note": 79,
      "start": 44.2222,
      "duration": 0.0998,
      "velocity": 97,
      "chip": "ym2612"
    },
    {
      "channel": 2,
      "note": 76,
      "start": 44.2234,
      "duration": 0.0997,
      "velocity": 62,
      "chip": "ym2612"
    },
    {
      "channel": 3,
      "note": 72,
      "start": 44.2243,
      "duration": 0.0996,
      "velocity": 62,
      "chip": "ym2612"
    },
    {
      "channel": 4,
      "note": 79,
      "start": 44.2963,
      "duration": 0.0959,
      "velocity": 97,
      "chip": "ym2612"
    },
    {
      "channel": 0,
      "note": 77,
      "start": 44.3225,
      "duration": 0.0735,
      "velocity": 97,
      "chip": "ym2612"
    },
    {
      "channel": 2,
      "note": 76,
      "start": 44.3238,
      "duration": 0.0738,
      "velocity": 62,
      "chip": "ym2612"
    },
    {
      "channel": 3,
      "note": 72,
      "start": 44.3246,
      "duration": 0.0739,
      "velocity": 62,
      "chip": "ym2612"
    },
    {
      "channel": 4,
      "note": 77,
      "start": 44.3928,
      "duration": 0.1603,
      "velocity": 97,
      "chip": "ym2612"
    },
    {
      "channel": 0,
      "note": 76,
      "start": 44.3967,
      "duration": 0.1717,
      "velocity": 97,
      "chip": "ym2612"
    },
    {
      "channel": 1,
      "note": 67,
      "start": 44.3975,
      "duration": 0.0544,
      "velocity": 101,
      "chip": "ym2612"
    },
    {
      "channel": 2,
      "note": 76,
      "start": 44.3983,
      "duration": 0.1717,
      "velocity": 62,
      "chip": "ym2612"
    },
    {
      "channel": 3,
      "note": 72,
      "start": 44.3992,
      "duration": 0.1717,
      "velocity": 62,
      "chip": "ym2612"
    },
    {
      "channel": 1,
      "note": 69,
      "start": 44.4527,
      "duration": 0.1165,
      "velocity": 101,
      "chip": "ym2612"
    },
    {
      "channel": 4,
      "note": 76,
      "start": 44.5539,
      "duration": 0.1578,
      "velocity": 97,
      "chip": "ym2612"
    },
    {
      "channel": 0,
      "note": 77,
      "start": 44.569,
      "duration": 0.4086,
      "velocity": 97,
      "chip": "ym2612"
    },
    {
      "channel": 1,
      "note": 69,
      "start": 44.5699,
      "duration": 0.0427,
      "velocity": 101,
      "chip": "ym2612"
    },
    {
      "channel": 2,
      "note": 77,
      "start": 44.5707,
      "duration": 0.1568,
      "velocity": 62,
      "chip": "ym2612"
    },
    {
      "channel": 3,
      "note": 74,
      "start": 44.5716,
      "duration": 0.1568,
      "velocity": 62,
      "chip": "ym2612"
    },
    {
      "channel": 1,
      "note": 70,
      "start": 44.6134,
      "duration": 0.2911,
      "velocity": 101,
      "chip": "ym2612"
    },
    {
      "channel": 4,
      "note": 77,
      "start": 44.7123,
      "duration": 0.4084,
      "velocity": 97,
      "chip": "ym2612"
    },
    {
      "channel": 2,
      "note": 77,
      "start": 44.7283,
      "duration": 0.1771,
      "velocity": 62,
      "chip": "ym2612"
    },
    {
      "channel": 3,
      "note": 74,
      "start": 44.7291,
      "duration": 0.177,
      "velocity": 62,
      "chip": "ym2612"
    },
    {
      "channel": 1,
      "note": 67,
      "start": 44.9052,
      "duration": 0.2311,
      "velocity": 101,
      "chip": "ym2612"
    },
    {
      "channel": 2,
      "note": 77,
      "start": 44.906,
      "duration": 0.0727,
      "velocity": 62,
      "chip": "ym2612"
    },
    {
      "channel": 3,
      "note": 74,
      "start": 44.9069,
      "duration": 0.0727,
      "velocity": 62,
      "chip": "ym2612"
    },
    {
      "channel": 0,
      "note": 74,
      "start": 44.9782,
      "duration": 0.4079,
      "velocity": 97,
      "chip": "ym2612"
    },
    {
      "channel": 2,
      "note": 77,
      "start": 44.9794,
      "duration": 0.1578,
      "velocity": 62,
      "chip": "ym2612"
    },
    {
      "channel": 3,
      "note": 70,
      "start": 44.9803,
      "duration": 0.1578,
      "velocity": 62,
      "chip": "ym2612"
    },
    {
      "channel": 4,
      "note": 74,
      "start": 45.1215,
      "duration": 0.4079,
      "velocity": 97,
      "chip": "ym2612"
    },
    {
      "channel": 1,
      "note": 65,
      "start": 45.1371,
      "duration": 0.1159,
      "velocity": 101,
      "chip": "ym2612"
    },
    {
      "channel": 2,
      "note": 77,
      "start": 45.1379,
      "duration": 0.2493,
      "velocity": 62,
      "chip": "ym2612"
    },
    {
      "channel": 3,
      "note": 70,
      "start": 45.1388,
      "duration": 0.2493,
      "velocity": 62,
      "chip": "ym2612"
    },
    {
      "channel": 1,
      "note": 67,
      "start": 45.2538,
      "duration": 0.2916,
      "velocity": 101,
      "chip": "ym2612"
    },
    {
      "channel": 0,
      "note": 79,
      "start": 45.3867,
      "duration": 0.158,
      "velocity": 97,
      "chip": "ym2612"
    },
    {
      "channel": 2,
      "note": 77,
      "start": 45.3879,
      "duration": 0.1583,
      "velocity": 62,
      "chip": "ym2612"
    },
    {
      "channel": 3,
      "note": 70,
      "start": 45.3888,
      "duration": 0.1582,
      "velocity": 62,
      "chip": "ym2612"
    },
    {
      "channel": 4,
      "note": 79,
      "start": 45.53,
      "duration": 0.0854,
      "velocity": 97,
      "chip": "ym2612"
    },
    {
      "channel": 0,
      "note": 77,
      "start": 45.5452,
      "duration": 0.0741,
      "velocity": 97,
      "chip": "ym2612"
    },
    {
      "channel": 1,
      "note": 62,
      "start": 45.5461,
      "duration": 0.0371,
      "velocity": 101,
      "chip": "ym2612"
    },
    {
      "channel": 2,
      "note": 77,
      "start": 45.5469,
      "duration": 0.0739,
      "velocity": 62,
      "chip": "ym2612"
    },
    {
      "channel": 3,
      "note": 70,
      "start": 45.5478,
      "duration": 0.074,
      "velocity": 62,
      "chip": "ym2612"
    },
    {
      "channel": 1,
      "note": 60,
      "start": 45.584,
      "duration": 0.036,
      "velocity": 101,
      "chip": "ym2612"
    },
    {
      "channel": 4,
      "note": 77,
      "start": 45.6161,
      "duration": 0.1598,
      "velocity": 97,
      "chip": "ym2612"
    },
    {
      "channel": 0,
      "note": 76,
      "start": 45.6199,
      "duration": 0.1712,
      "velocity": 97,
      "chip": "ym2612"
    },
    {
      "channel": 1,
      "note": 58,
      "start": 45.6207,
      "duration": 0.1712,
      "velocity": 101,
      "chip": "ym2612"
    },
    {
      "channel": 2,
      "note": 77,
      "start": 45.6216,
      "duration": 0.1711,
      "velocity": 62,
      "chip": "ym2612"
    },
    {
      "channel": 3,
      "note": 70,
      "start": 45.6225,
      "duration": 0.171,
      "velocity": 62,
      "chip": "ym2612"
    },
    {
      "channel": 4,
      "note": 76,
      "start": 45.7765,
      "duration": 0.1745,
      "velocity": 97,
      "chip": "ym2612"
    },
    {
      "channel": 0,
      "note": 77,
      "start": 45.7917,
      "duration": 0.5664,
      "velocity": 97,
      "chip": "ym2612"
    },
    {
      "channel": 1,
      "note": 58,
      "start": 45.7925,
      "duration": 0.2909,
      "velocity": 101,
      "chip": "ym2612"
    },
    {
      "channel": 2,
      "note": 77,
      "start": 45.7933,
      "duration": 0.1737,
      "velocity": 62,
      "chip": "ym2612"
    },
    {
      "channel": 3,
      "note": 70,
      "start": 45.7942,
      "duration": 0.1737,
      "velocity": 62,
      "chip": "ym2612"
    },
    {
      "channel": 4,
      "note": 77,
      "start": 45.9518,
      "duration": 0.5496,
      "velocity": 97,
      "chip": "ym2612"
    },
    {
      "channel": 2,
      "note": 77,
      "start": 45.9677,
      "duration": 0.1577,
      "velocity": 62,
      "chip": "ym2612"
    },
    {
      "channel": 3,
      "note": 70,
      "start": 45.9686,
      "duration": 0.1577,
      "velocity": 62,
      "chip": "ym2612"
    },
    {
      "channel": 1,
      "note": 53,
      "start": 46.0841,
      "duration": 0.041,
      "velocity": 101,
      "chip": "ym2612"
    },
    {
      "channel": 2,
      "note": 77,
      "start": 46.1261,
      "duration": 0.2337,
      "velocity": 62,
      "chip": "ym2612"
    },
    {
      "channel": 3,
      "note": 70,
      "start": 46.1269,
      "duration": 0.2337,
      "velocity": 62,
      "chip": "ym2612"
    },
    {
      "channel": 0,
      "note": 74,
      "start": 46.3588,
      "duration": 0.408,
      "velocity": 97,
      "chip": "ym2612"
    },
    {
      "channel": 1,
      "note": 58,
      "start": 46.3596,
      "duration": 0.5656,
      "velocity": 101,
      "chip": "ym2612"
    },
    {
      "channel": 2,
      "note": 77,
      "start": 46.3605,
      "duration": 0.1736,
      "velocity": 62,
      "chip": "ym2612"
    },
    {
      "channel": 3,
      "note": 70,
      "start": 46.3613,
      "duration": 0.1736,
      "velocity": 62,
      "chip": "ym2612"
    },
    {
      "channel": 4,
      "note": 74,
      "start": 46.5021,
      "duration": 0.3387,
      "velocity": 97,
      "chip": "ym2612"
    },
    {
      "channel": 2,
      "note": 77,
      "start": 46.5347,
      "duration": 0.2331,
      "velocity": 62,
      "chip": "ym2612"
    },
    {
      "channel": 3,
      "note": 70,
      "start": 46.5356,
      "duration": 0.2331,
      "velocity": 62,
      "chip": "ym2612"
    },
    {
      "channel": 0,
      "note": 79,
      "start": 46.7673,
      "duration": 0.0832,
      "velocity": 97,
      "chip": "ym2612"
    },
    {
      "channel": 2,
      "note": 77,
      "start": 46.7685,
      "duration": 0.0831,
      "velocity": 62,
      "chip": "ym2612"
    },
    {
      "channel": 3,
      "note": 70,
      "start": 46.7694,
      "duration": 0.083,
      "velocity": 62,
      "chip": "ym2612"
    },
    {
      "channel": 4,
      "note": 79,
      "start": 46.8415,
      "duration": 0.0791,
      "velocity": 97,
      "chip": "ym2612"
    },
    {
      "channel": 0,
      "note": 77,
      "start": 46.851,
      "duration": 0.0735,
      "velocity": 97,
      "chip": "ym2612"
    },
    {
      "channel": 2,
      "note": 77,
      "start": 46.8523,
      "duration": 0.0738,
      "velocity": 62,
      "chip": "ym2612"
    },
    {
      "channel": 3,
      "note": 70,
      "start": 46.8532,
      "duration": 0.0738,
      "velocity": 62,
      "chip": "ym2612"
    },
    {
      "channel": 4,
      "note": 77,
      "start": 46.9213,
      "duration": 0.1654,
      "velocity": 97,
      "chip": "ym2612"
    },
    {
      "channel": 0,
      "note": 76,
      "start": 46.9251,
      "duration": 0.1768,
      "velocity": 97,
      "chip": "ym2612"
    },
    {
      "channel": 1,
      "note": 57,
      "start": 46.926,
      "duration": 0.0595,
      "velocity": 101,
      "chip": "ym2612"
    },
    {
      "channel": 2,
      "note": 77,
      "start": 46.9268,
      "duration": 0.1767,
      "velocity": 62,
      "chip": "ym2612"
    },
    {
      "channel": 3,
      "note": 70,
      "start": 46.9277,
      "duration": 0.1767,
      "velocity": 62,
      "chip": "ym2612"
    },
    {
      "channel": 1,
      "note": 58,
      "start": 46.9862,
      "duration": 0.1165,
      "velocity": 101,
      "chip": "ym2612"
    },
    {
      "channel": 4,
      "note": 76,
      "start": 47.0874,
      "duration": 0.1578,
      "velocity": 97,
      "chip": "ym2612"
    },
    {
      "channel": 0,
      "note": 77,
      "start": 47.1025,
      "duration": 0.5664,
      "velocity": 97,
      "chip": "ym2612"
    },
    {
      "channel": 1,
      "note": 60,
      "start": 47.1034,
      "duration": 0.2741,
      "velocity": 101,
      "chip": "ym2612"
    },
    {
      "channel": 2,
      "note": 79,
      "start": 47.1043,
      "duration": 0.1569,
      "velocity": 62,
      "chip": "ym2612"
    },
    {
      "channel": 3,
      "note": 72,
      "start": 47.1051,
      "duration": 0.1569,
      "velocity": 62,
      "chip": "ym2612"
    },
    {
      "channel": 4,
      "note": 77,
      "start": 47.2458,
      "duration": 0.5663,
      "velocity": 97,
      "chip": "ym2612"
    },
    {
      "channel": 2,
      "note": 79,
      "start": 47.2619,
      "duration": 0.1577,
      "velocity": 62,
      "chip": "ym2612"
    },
    {
      "channel": 3,
      "note": 72,
      "start": 47.2627,
      "duration": 0.1577,
      "velocity": 62,
      "chip": "ym2612"
    },
    {
      "channel": 1,
      "note": 55,
      "start": 47.3782,
      "duration": 0.0411,
      "velocity": 101,
      "chip": "ym2612"
    },
    {
      "channel": 2,
      "note": 79,
      "start": 47.4202,
      "duration": 0.2503,
      "velocity": 62,
      "chip": "ym2612"
    },
    {
      "channel": 3,
      "note": 72,
      "start": 47.4211,
      "duration": 0.2502,
      "velocity": 62,
      "chip": "ym2612"
    },
    {
      "channel": 0,
      "note": 76,
      "start": 47.6695,
      "duration": 0.3912,
      "velocity": 97,
      "chip": "ym2612"
    },
    {
      "channel": 1,
      "note": 60,
      "start": 47.6704,
      "duration": 0.1573,
      "velocity": 101,
      "chip": "ym2612"
    },
    {
      "channel": 2,
      "note": 79,
      "start": 47.6713,
      "duration": 0.1574,
      "velocity": 62,
      "chip": "ym2612"
    },
    {
      "channel": 3,
      "note": 72,
      "start": 47.6721,
      "duration": 0.1574,
      "velocity": 62,
      "chip": "ym2612"
    },
    {
      "channel": 4,
      "note": 76,
      "start": 47.8129,
      "duration": 0.466,
      "velocity": 97,
      "chip": "ym2612"
    },
    {
      "channel": 1,
      "note": 67,
      "start": 47.8285,
      "duration": 0.2329,
      "velocity": 101,
      "chip": "ym2612"
    },
    {
      "channel": 2,
      "note": 79,
      "start": 47.8293,
      "duration": 0.2329,
      "velocity": 62,
      "chip": "ym2612"
    },
    {
      "channel": 3,
      "note": 72,
      "start": 47.8302,
      "duration": 0.2329,
      "velocity": 62,
      "chip": "ym2612"
    },
    {
      "channel": 0,
      "note": 77,
      "start": 48.0613,
      "duration": 0.2328,
      "velocity": 97,
      "chip": "ym2612"
    },
    {
      "channel": 1,
      "note": 52,
      "start": 48.0622,
      "duration": 0.2327,
      "velocity": 101,
      "chip": "ym2612"
    },
    {
      "channel": 2,
      "note": 79,
      "start": 48.063,
      "duration": 0.2328,
      "velocity": 62,
      "chip": "ym2612"
    },
    {
      "channel": 3,
      "note": 72,
      "start": 48.0638,
      "duration": 0.2327,
      "velocity": 62,
      "chip": "ym2612"
    },
    {
      "channel": 4,
      "note": 77,
      "start": 48.2795,
      "duration": 0.0901,
      "velocity": 97,
      "chip": "ym2612"
    },
    {
      "channel": 0,
      "note": 76,
      "start": 48.2947,
      "duration": 0.251,
      "velocity": 97,
      "chip": "ym2612"
    },
    {
      "channel": 1,
      "note": 55,
      "start": 48.2956,
      "duration": 0.0783,
      "velocity": 101,
      "chip": "ym2612"
    },
    {
      "channel": 2,
      "note": 79,
      "start": 48.2965,
      "duration": 0.0783,
      "velocity": 62,
      "chip": "ym2612"
    },
    {
      "channel": 3,
      "note": 72,
      "start": 48.2973,
      "duration": 0.0783,
      "velocity": 62,
      "chip": "ym2612"
    },
    {
      "channel": 4,
      "note": 76,
      "start": 48.3703,
      "duration": 0.3187,
      "velocity": 97,
      "chip": "ym2612"
    },
    {
      "channel": 1,
      "note": 60,
      "start": 48.3746,
      "duration": 0.1717,
      "velocity": 101,
      "chip": "ym2612"
    },
    {
      "channel": 2,
      "note": 79,
      "start": 48.3755,
      "duration": 0.1717,
      "velocity": 62,
      "chip": "ym2612"
    },
    {
      "channel": 3,
      "note": 72,
      "start": 48.3763,
      "duration": 0.1717,
      "velocity": 62,
      "chip": "ym2612"
    },
    {
      "channel": 0,
      "note": 76,
      "start": 48.5462,
      "duration": 1.1805,
      "velocity": 97,
      "chip": "ym2612"
    },
    {
      "channel": 1,
      "note": 57,
      "start": 48.547,
      "duration": 0.2743,
      "velocity": 101,
      "chip": "ym2612"
    },
    {
      "channel": 2,
      "note": 81,
      "start": 48.5479,
      "duration": 0.1571,
      "velocity": 62,
      "chip": "ym2612"
    },
    {
      "channel": 3,
      "note": 76,
      "start": 48.5488,
      "duration": 0.1571,
      "velocity": 62,
      "chip": "ym2612"
    },
    {
      "channel": 4,
      "note": 76,
      "start": 48.6895,
      "duration": 1.1803,
      "velocity": 97,
      "chip": "ym2612"
    },
    {
      "channel": 2,
      "note": 81,
      "start": 48.7057,
      "duration": 0.1743,
      "velocity": 62,
      "chip": "ym2612"
    },
    {
      "channel": 3,
      "note": 76,
      "start": 48.7065,
      "duration": 0.1743,
      "velocity": 62,
      "chip": "ym2612"
    },
    {
      "channel": 1,
      "note": 64,
      "start": 48.822,
      "duration": 0.0577,
      "velocity": 101,
      "chip": "ym2612"
    },
    {
      "channel": 2,
      "note": 81,
      "start": 48.8807,
      "duration": 0.2333,
      "velocity": 62,
      "chip": "ym2612"
    },
    {
      "channel": 3,
      "note": 76,
      "start": 48.8815,
      "duration": 0.2333,
      "velocity": 62,
      "chip": "ym2612"
    },
    {
      "channel": 1,
      "note": 69,
      "start": 49.1139,
      "duration": 0.4304,
      "velocity": 101,
      "chip": "ym2612"
    },
    {
      "channel": 2,
      "note": 79,
      "start": 49.1147,
      "duration": 0.0722,
      "velocity": 62,
      "chip": "ym2612"
    },
    {
      "channel": 3,
      "note": 72,
      "start": 49.1156,
      "duration": 0.0722,
      "velocity": 62,
      "chip": "ym2612"
    },
    {
      "channel": 2,
      "note": 79,
      "start": 49.1876,
      "duration": 0.1931,
      "velocity": 62,
      "chip": "ym2612"
    },
    {
      "channel": 3,
      "note": 72,
      "start": 49.1884,
      "duration": 0.1931,
      "velocity": 62,
      "chip": "ym2612"
    },
    {
      "channel": 2,
      "note": 79,
      "start": 49.3814,
      "duration": 0.0996,
      "velocity": 62,
      "chip": "ym2612"
    },
    {
      "channel": 3,
      "note": 72,
      "start": 49.3822,
      "duration": 0.0996,
      "velocity": 62,
      "chip": "ym2612"
    },
    {
      "channel": 2,
      "note": 79,
      "start": 49.4816,
      "duration": 0.0723,
      "velocity": 62,
      "chip": "ym2612"
    },
    {
      "channel": 3,
      "note": 72,
      "start": 49.4825,
      "duration": 0.0723,
      "velocity": 62,
      "chip": "ym2612"
    },
    {
      "channel": 2,
      "note": 79,
      "start": 49.5546,
      "duration": 0.1737,
      "velocity": 62,
      "chip": "ym2612"
    },
    {
      "channel": 3,
      "note": 72,
      "start": 49.5555,
      "duration": 0.1736,
      "velocity": 62,
      "chip": "ym2612"
    },
    {
      "channel": 0,
      "note": 74,
      "start": 49.7272,
      "duration": 1.2367,
      "velocity": 97,
      "chip": "ym2612"
    },
    {
      "channel": 1,
      "note": 65,
      "start": 49.7281,
      "duration": 0.1739,
      "velocity": 101,
      "chip": "ym2612"
    },
    {
      "channel": 2,
      "note": 77,
      "start": 49.729,
      "duration": 0.174,
      "velocity": 62,
      "chip": "ym2612"
    },
    {
      "channel": 3,
      "note": 74,
      "start": 49.7298,
      "duration": 0.174,
      "velocity": 62,
      "chip": "ym2612"
    },
    {
      "channel": 4,
      "note": 74,
      "start": 49.8705,
      "duration": 1.1637,
      "velocity": 97,
      "chip": "ym2612"
    },
    {
      "channel": 1,
      "note": 65,
      "start": 49.9028,
      "duration": 0.1579,
      "velocity": 101,
      "chip": "ym2612"
    },
    {
      "channel": 2,
      "note": 77,
      "start": 49.9037,
      "duration": 0.1579,
      "velocity": 62,
      "chip": "ym2612"
    },
    {
      "channel": 3,
      "note": 74,
      "start": 49.9045,
      "duration": 0.1579,
      "velocity": 62,
      "chip": "ym2612"
    },
    {
      "channel": 1,
      "note": 62,
      "start": 50.0614,
      "duration": 0.0728,
      "velocity": 101,
      "chip": "ym2612"
    },
    {
      "channel": 2,
      "note": 77,
      "start": 50.0622,
      "duration": 0.0729,
      "velocity": 62,
      "chip": "ym2612"
    },
    {
      "channel": 3,
      "note": 74,
      "start": 50.0631,
      "duration": 0.0728,
      "velocity": 62,
      "chip": "ym2612"
    },
    {
      "channel": 1,
      "note": 62,
      "start": 50.1349,
      "duration": 0.1576,
      "velocity": 101,
      "chip": "ym2612"
    },
    {
      "channel": 2,
      "note": 77,
      "start": 50.1358,
      "duration": 0.1576,
      "velocity": 62,
      "chip": "ym2612"
    },
    {
      "channel": 3,
      "note": 69,
      "start": 50.1366,
      "duration": 0.1577,
      "velocity": 62,
      "chip": "ym2612"
    },
    {
      "channel": 1,
      "note": 58,
      "start": 50.2933,
      "duration": 0.2494,
      "velocity": 101,
      "chip": "ym2612"
    },
    {
      "channel": 2,
      "note": 77,
      "start": 50.2941,
      "duration": 0.2494,
      "velocity": 62,
      "chip": "ym2612"
    },
    {
      "channel": 3,
      "note": 69,
      "start": 50.295,
      "duration": 0.2494,
      "velocity": 62,
      "chip": "ym2612"
    },
    {
      "channel": 1,
      "note": 58,
      "start": 50.5434,
      "duration": 0.1578,
      "velocity": 101,
      "chip": "ym2612"
    },
    {
      "channel": 2,
      "note": 77,
      "start": 50.5442,
      "duration": 0.1578,
      "velocity": 62,
      "chip": "ym2612"
    },
    {
      "channel": 3,
      "note": 69,
      "start": 50.5451,
      "duration": 0.1578,
      "velocity": 62,
      "chip": "ym2612"
    },
    {
      "channel": 1,
      "note": 62,
      "start": 50.7019,
      "duration": 0.073,
      "velocity": 101,
      "chip": "ym2612"
    },
    {
      "channel": 2,
      "note": 77,
      "start": 50.7027,
      "duration": 0.073,
      "velocity": 62,
      "chip": "ym2612"
    },
    {
      "channel": 3,
      "note": 69,
      "start": 50.7036,
      "duration": 0.073,
      "velocity": 62,
      "chip": "ym2612"
    },
    {
      "channel": 1,
      "note": 50,
      "start": 50.7756,
      "duration": 0.1891,
      "velocity": 101,
      "chip": "ym2612"
    },
    {
      "channel": 2,
      "note": 77,
      "start": 50.7764,
      "duration": 0.1891,
      "velocity": 62,
      "chip": "ym2612"
    },
    {
      "channel": 3,
      "note": 69,
      "start": 50.7773,
      "duration": 0.1891,
      "velocity": 62,
      "chip": "ym2612"
    },
    {
      "channel": 0,
      "note": 77,
      "start": 50.9645,
      "duration": 0.3862,
      "velocity": 97,
      "chip": "ym2612"
    },
    {
      "channel": 1,
      "note": 46,
      "start": 50.9654,
      "duration": 0.1106,
      "velocity": 101,
      "chip": "ym2612"
    },
    {
      "channel": 2,
      "note": 77,
      "start": 50.9662,
      "duration": 0.0729,
      "velocity": 62,
      "chip": "ym2612"
    },
    {
      "channel": 3,
      "note": 70,
      "start": 50.967,
      "duration": 0.0729,
      "velocity": 62,
      "chip": "ym2612"
    },
    {
      "channel": 4,
      "note": 77,
      "start": 51.0349,
      "duration": 0.4757,
      "velocity": 97,
      "chip": "ym2612"
    },
    {
      "channel": 2,
      "note": 77,
      "start": 51.0398,
      "duration": 0.0782,
      "velocity": 62,
      "chip": "ym2612"
    },
    {
      "channel": 3,
      "note": 70,
      "start": 51.0406,
      "duration": 0.0782,
      "velocity": 62,
      "chip": "ym2612"
    },
    {
      "channel": 1,
      "note": 53,
      "start": 51.0766,
      "duration": 0.2747,
      "velocity": 101,
      "chip": "ym2612"
    },
    {
      "channel": 2,
      "note": 77,
      "start": 51.1187,
      "duration": 0.2335,
      "velocity": 62,
      "chip": "ym2612"
    },
    {
      "channel": 3,
      "note": 70,
      "start": 51.1195,
      "duration": 0.2335,
      "velocity": 62,
      "chip": "ym2612"
    },
    {
      "channel": 0,
      "note": 74,
      "start": 51.3512,
      "duration": 0.408,
      "velocity": 97,
      "chip": "ym2612"
    },
    {
      "channel": 1,
      "note": 60,
      "start": 51.3521,
      "duration": 0.3572,
      "velocity": 101,
      "chip": "ym2612"
    },
    {
      "channel": 2,
      "note": 77,
      "start": 51.3529,
      "duration": 0.1736,
      "velocity": 62,
      "chip": "ym2612"
    },
    {
      "channel": 3,
      "note": 70,
      "start": 51.3538,
      "duration": 0.1737,
      "velocity": 62,
      "chip": "ym2612"
    },
    {
      "channel": 4,
      "note": 74,
      "start": 51.5113,
      "duration": 0.3219,
      "velocity": 97,
      "chip": "ym2612"
    },
    {
      "channel": 2,
      "note": 77,
      "start": 51.5272,
      "duration": 0.2357,
      "velocity": 62,
      "chip": "ym2612"
    },
    {
      "channel": 3,
      "note": 70,
      "start": 51.5281,
      "duration": 0.2356,
      "velocity": 62,
      "chip": "ym2612"
    },
    {
      "channel": 1,
      "note": 60,
      "start": 51.7101,
      "duration": 0.0519,
      "velocity": 101,
      "chip": "ym2612"
    },
    {
      "channel": 0,
      "note": 79,
      "start": 51.7598,
      "duration": 0.0832,
      "velocity": 97,
      "chip": "ym2612"
    },
    {
      "channel": 1,
      "note": 62,
      "start": 51.7628,
      "duration": 0.3344,
      "velocity": 101,
      "chip": "ym2612"
    },
    {
      "channel": 2,
      "note": 77,
      "start": 51.7636,
      "duration": 0.0805,
      "velocity": 62,
      "chip": "ym2612"
    },
    {
      "channel": 3,
      "note": 70,
      "start": 51.7644,
      "duration": 0.0805,
      "velocity": 62,
      "chip": "ym2612"
    },
    {
      "channel": 4,
      "note": 79,
      "start": 51.8339,
      "duration": 0.0792,
      "velocity": 97,
      "chip": "ym2612"
    },
    {
      "channel": 0,
      "note": 77,
      "start": 51.8435,
      "duration": 0.0785,
      "velocity": 97,
      "chip": "ym2612"
    },
    {
      "channel": 2,
      "note": 77,
      "start": 51.8448,
      "duration": 0.0784,
      "velocity": 62,
      "chip": "ym2612"
    },
    {
      "channel": 3,
      "note": 70,
      "start": 51.8457,
      "duration": 0.0784,
      "velocity": 62,
      "chip": "ym2612"
    },
    {
      "channel": 4,
      "note": 77,
      "start": 51.9137,
      "duration": 0.1654,
      "velocity": 97,
      "chip": "ym2612"
    },
    {
      "channel": 0,
      "note": 76,
      "start": 51.9227,
      "duration": 0.1717,
      "velocity": 97,
      "chip": "ym2612"
    },
    {
      "channel": 2,
      "note": 77,
      "start": 51.9239,
      "duration": 0.1736,
      "velocity": 62,
      "chip": "ym2612"
    },
    {
      "channel": 3,
      "note": 70,
      "start": 51.9247,
      "duration": 0.1736,
      "velocity": 62,
      "chip": "ym2612"
    },
    {
      "channel": 4,
      "note": 76,
      "start": 52.0798,
      "duration": 0.1575,
      "velocity": 97,
      "chip": "ym2612"
    },
    {
      "channel": 0,
      "note": 77,
      "start": 52.0949,
      "duration": 0.5666,
      "velocity": 97,
      "chip": "ym2612"
    },
    {
      "channel": 2,
      "note": 79,
      "start": 52.0982,
      "duration": 0.1559,
      "velocity": 62,
      "chip": "ym2612"
    },
    {
      "channel": 3,
      "note": 72,
      "start": 52.099,
      "duration": 0.1559,
      "velocity": 62,
      "chip": "ym2612"
    },
    {
      "channel": 4,
      "note": 77,
      "start": 52.238,
      "duration": 0.5667,
      "velocity": 97,
      "chip": "ym2612"
    },
    {
      "channel": 1,
      "note": 48,
      "start": 52.2539,
      "duration": 0.1745,
      "velocity": 101,
      "chip": "ym2612"
    },
    {
      "channel": 2,
      "note": 79,
      "start": 52.2548,
      "duration": 0.1745,
      "velocity": 62,
      "chip": "ym2612"
    },
    {
      "channel": 3,
      "note": 72,
      "start": 52.2556,
      "duration": 0.1745,
      "velocity": 62,
      "chip": "ym2612"
    },
    {
      "channel": 1,
      "note": 55,
      "start": 52.4291,
      "duration": 0.2331,
      "velocity": 101,
      "chip": "ym2612"
    },
    {
      "channel": 2,
      "note": 79,
      "start": 52.43,
      "duration": 0.2331,
      "velocity": 62,
      "chip": "ym2612"
    },
    {
      "channel": 3,
      "note": 72,
      "start": 52.4308,
      "duration": 0.2331,
      "velocity": 62,
      "chip": "ym2612"
    },
    {
      "channel": 0,
      "note": 72,
      "start": 52.6621,
      "duration": 0.3912,
      "velocity": 97,
      "chip": "ym2612"
    },
    {
      "channel": 1,
      "note": 64,
      "start": 52.6629,
      "duration": 0.1573,
      "velocity": 101,
      "chip": "ym2612"
    },
    {
      "channel": 2,
      "note": 79,
      "start": 52.6638,
      "duration": 0.1574,
      "velocity": 62,
      "chip": "ym2612"
    },
    {
      "channel": 3,
      "note": 72,
      "start": 52.6646,
      "duration": 0.1574,
      "velocity": 62,
      "chip": "ym2612"
    },
    {
      "channel": 4,
      "note": 72,
      "start": 52.8054,
      "duration": 0.466,
      "velocity": 97,
      "chip": "ym2612"
    },
    {
      "channel": 1,
      "note": 65,
      "start": 52.821,
      "duration": 0.0679,
      "velocity": 101,
      "chip": "ym2612"
    },
    {
      "channel": 2,
      "note": 79,
      "start": 52.8219,
      "duration": 0.2351,
      "velocity": 62,
      "chip": "ym2612"
    },
    {
      "channel": 3,
      "note": 72,
      "start": 52.8227,
      "duration": 0.235,
      "velocity": 62,
      "chip": "ym2612"
    },
    {
      "channel": 1,
      "note": 67,
      "start": 52.8897,
      "duration": 0.1663,
      "velocity": 101,
      "chip": "ym2612"
    },
    {
      "channel": 0,
      "note": 79,
      "start": 53.0539,
      "duration": 0.2495,
      "velocity": 97,
      "chip": "ym2612"
    },
    {
      "channel": 1,
      "note": 65,
      "start": 53.0568,
      "duration": 0.2473,
      "velocity": 101,
      "chip": "ym2612"
    },
    {
      "channel": 2,
      "note": 79,
      "start": 53.0576,
      "duration": 0.2473,
      "velocity": 62,
      "chip": "ym2612"
    },
    {
      "channel": 3,
      "note": 72,
      "start": 53.0584,
      "duration": 0.2473,
      "velocity": 62,
      "chip": "ym2612"
    },
    {
      "channel": 4,
      "note": 79,
      "start": 53.272,
      "duration": 0.1015,
      "velocity": 97,
      "chip": "ym2612"
    },
    {
      "channel": 0,
      "note": 77,
      "start": 53.3039,
      "duration": 0.0735,
      "velocity": 97,
      "chip": "ym2612"
    },
    {
      "channel": 1,
      "note": 64,
      "start": 53.3048,
      "duration": 0.0734,
      "velocity": 101,
      "chip": "ym2612"
    },
    {
      "channel": 2,
      "note": 79,
      "start": 53.3056,
      "duration": 0.0734,
      "velocity": 62,
      "chip": "ym2612"
    },
    {
      "channel": 3,
      "note": 72,
      "start": 53.3065,
      "duration": 0.0734,
      "velocity": 62,
      "chip": "ym2612"
    },
    {
      "channel": 4,
      "note": 77,
      "start": 53.3742,
      "duration": 0.1603,
      "velocity": 97,
      "chip": "ym2612"
    },
    {
      "channel": 0,
      "note": 76,
      "start": 53.378,
      "duration": 0.1718,
      "velocity": 97,
      "chip": "ym2612"
    },
    {
      "channel": 1,
      "note": 60,
      "start": 53.3789,
      "duration": 0.1717,
      "velocity": 101,
      "chip": "ym2612"
    },
    {
      "channel": 2,
      "note": 79,
      "start": 53.3797,
      "duration": 0.1717,
      "velocity": 62,
      "chip": "ym2612"
    },
    {
      "channel": 3,
      "note": 72,
      "start": 53.3806,
      "duration": 0.1716,
      "velocity": 62,
      "chip": "ym2612"
    },
    {
      "channel": 4,
      "note": 76,
      "start": 53.5352,
      "duration": 0.1578,
      "velocity": 97,
      "chip": "ym2612"
    },
    {
      "channel": 0,
      "note": 77,
      "start": 53.5504,
      "duration": 0.5664,
      "velocity": 97,
      "chip": "ym2612"
    },
    {
      "channel": 1,
      "note": 45,
      "start": 53.5513,
      "duration": 0.2908,
      "velocity": 101,
      "chip": "ym2612"
    },
    {
      "channel": 2,
      "note": 76,
      "start": 53.5521,
      "duration": 0.1735,
      "velocity": 62,
      "chip": "ym2612"
    },
    {
      "channel": 3,
      "note": 69,
      "start": 53.5529,
      "duration": 0.1736,
      "velocity": 62,
      "chip": "ym2612"
    },
    {
      "channel": 4,
      "note": 77,
      "start": 53.6937,
      "duration": 0.4932,
      "velocity": 97,
      "chip": "ym2612"
    },
    {
      "channel": 2,
      "note": 76,
      "start": 53.7263,
      "duration": 0.1578,
      "velocity": 62,
      "chip": "ym2612"
    },
    {
      "channel": 3,
      "note": 69,
      "start": 53.7272,
      "duration": 0.1578,
      "velocity": 62,
      "chip": "ym2612"
    },
    {
      "channel": 1,
      "note": 52,
      "start": 53.8427,
      "duration": 0.2748,
      "velocity": 101,
      "chip": "ym2612"
    },
    {
      "channel": 2,
      "note": 76,
      "start": 53.8848,
      "duration": 0.2336,
      "velocity": 62,
      "chip": "ym2612"
    },
    {
      "channel": 3,
      "note": 69,
      "start": 53.8857,
      "duration": 0.2335,
      "velocity": 62,
      "chip": "ym2612"
    },
    {
      "channel": 0,
      "note": 72,
      "start": 54.1174,
      "duration": 0.2832,
      "velocity": 97,
      "chip": "ym2612"
    },
    {
      "channel": 1,
      "note": 57,
      "start": 54.1183,
      "duration": 0.3668,
      "velocity": 101,
      "chip": "ym2612"
    },
    {
      "channel": 2,
      "note": 76,
      "start": 54.1191,
      "duration": 0.0727,
      "velocity": 62,
      "chip": "ym2612"
    },
    {
      "channel": 3,
      "note": 72,
      "start": 54.1199,
      "duration": 0.0727,
      "velocity": 62,
      "chip": "ym2612"
    },
    {
      "channel": 4,
      "note": 72,
      "start": 54.1875,
      "duration": 0.2871,
      "velocity": 97,
      "chip": "ym2612"
    },
    {
      "channel": 2,
      "note": 76,
      "start": 54.1924,
      "duration": 0.2093,
      "velocity": 62,
      "chip": "ym2612"
    },
    {
      "channel": 3,
      "note": 72,
      "start": 54.1933,
      "duration": 0.2093,
      "velocity": 62,
      "chip": "ym2612"
    },
    {
      "channel": 0,
      "note": 79,
      "start": 54.4012,
      "duration": 0.0832,
      "velocity": 97,
      "chip": "ym2612"
    },
    {
      "channel": 2,
      "note": 76,
      "start": 54.4024,
      "duration": 0.0835,
      "velocity": 62,
      "chip": "ym2612"
    },
    {
      "channel": 3,
      "note": 72,
      "start": 54.4033,
      "duration": 0.0835,
      "velocity": 62,
      "chip": "ym2612"
    },
    {
      "channel": 4,
      "note": 79,
      "start": 54.4754,
      "duration": 0.082,
      "velocity": 97,
      "chip": "ym2612"
    },
    {
      "channel": 0,
      "note": 77,
      "start": 54.4849,
      "duration": 0.0763,
      "velocity": 97,
      "chip": "ym2612"
    },
    {
      "channel": 1,
      "note": 62,
      "start": 54.4858,
      "duration": 0.0241,
      "velocity": 101,
      "chip": "ym2612"
    },
    {
      "channel": 2,
      "note": 76,
      "start": 54.4867,
      "duration": 0.0782,
      "velocity": 62,
      "chip": "ym2612"
    },
    {
      "channel": 3,
      "note": 72,
      "start": 54.4875,
      "duration": 0.0783,
      "velocity": 62,
      "chip": "ym2612"
    },
    {
      "channel": 1,
      "note": 64,
      "start": 54.5107,
      "duration": 0.0533,
      "velocity": 101,
      "chip": "ym2612"
    },
    {
      "channel": 4,
      "note": 77,
      "start": 54.558,
      "duration": 0.1577,
      "velocity": 97,
      "chip": "ym2612"
    },
    {
      "channel": 0,
      "note": 76,
      "start": 54.5618,
      "duration": 0.1858,
      "velocity": 97,
      "chip": "ym2612"
    },
    {
      "channel": 1,
      "note": 62,
      "start": 54.5648,
      "duration": 0.0496,
      "velocity": 101,
      "chip": "ym2612"
    },
    {
      "channel": 2,
      "note": 76,
      "start": 54.5656,
      "duration": 0.1836,
      "velocity": 62,
      "chip": "ym2612"
    },
    {
      "channel": 3,
      "note": 72,
      "start": 54.5665,
      "duration": 0.1835,
      "velocity": 62,
      "chip": "ym2612"
    },
    {
      "channel": 1,
      "note": 60,
      "start": 54.6151,
      "duration": 0.1332,
      "velocity": 101,
      "chip": "ym2612"
    },
    {
      "channel": 4,
      "note": 76,
      "start": 54.7163,
      "duration": 0.1744,
      "velocity": 97,
      "chip": "ym2612"
    },
    {
      "channel": 0,
      "note": 77,
      "start": 54.7482,
      "duration": 0.39,
      "velocity": 97,
      "chip": "ym2612"
    },
    {
      "channel": 1,
      "note": 58,
      "start": 54.749,
      "duration": 0.1573,
      "velocity": 101,
      "chip": "ym2612"
    },
    {
      "channel": 2,
      "note": 77,
      "start": 54.7499,
      "duration": 0.1568,
      "velocity": 62,
      "chip": "ym2612"
    },
    {
      "channel": 3,
      "note": 74,
      "start": 54.7507,
      "duration": 0.1568,
      "velocity": 62,
      "chip": "ym2612"
    },
    {
      "channel": 4,
      "note": 77,
      "start": 54.8915,
      "duration": 0.4066,
      "velocity": 97,
      "chip": "ym2612"
    },
    {
      "channel": 2,
      "note": 77,
      "start": 54.9074,
      "duration": 0.1585,
      "velocity": 62,
      "chip": "ym2612"
    },
    {
      "channel": 3,
      "note": 74,
      "start": 54.9082,
      "duration": 0.1585,
      "velocity": 62,
      "chip": "ym2612"
    },
    {
      "channel": 1,
      "note": 58,
      "start": 55.0658,
      "duration": 0.0732,
      "velocity": 101,
      "chip": "ym2612"
    },
    {
      "channel": 2,
      "note": 77,
      "start": 55.0666,
      "duration": 0.0732,
      "velocity": 62,
      "chip": "ym2612"
    },
    {
      "channel": 3,
      "note": 74,
      "start": 55.0674,
      "duration": 0.0732,
      "velocity": 62,
      "chip": "ym2612"
    },
    {
      "channel": 0,
      "note": 74,
      "start": 55.1388,
      "duration": 0.4079,
      "velocity": 97,
      "chip": "ym2612"
    },
    {
      "channel": 1,
      "note": 55,
      "start": 55.1396,
      "duration": 0.174,
      "velocity": 101,
      "chip": "ym2612"
    },
    {
      "channel": 2,
      "note": 77,
      "start": 55.1405,
      "duration": 0.1741,
      "velocity": 62,
      "chip": "ym2612"
    },
    {
      "channel": 3,
      "note": 70,
      "start": 55.1413,
      "duration": 0.1741,
      "velocity": 62,
      "chip": "ym2612"
    },
    {
      "channel": 4,
      "note": 74,
      "start": 55.2988,
      "duration": 0.3911,
      "velocity": 97,
      "chip": "ym2612"
    },
    {
      "channel": 1,
      "note": 53,
      "start": 55.3143,
      "duration": 0.2331,
      "velocity": 101,
      "chip": "ym2612"
    },
    {
      "channel": 2,
      "note": 77,
      "start": 55.3152,
      "duration": 0.2331,
      "velocity": 62,
      "chip": "ym2612"
    },
    {
      "channel": 3,
      "note": 70,
      "start": 55.3161,
      "duration": 0.2331,
      "velocity": 62,
      "chip": "ym2612"
    },
    {
      "channel": 0,
      "note": 79,
      "start": 55.5473,
      "duration": 0.1579,
      "velocity": 97,
      "chip": "ym2612"
    },
    {
      "channel": 1,
      "note": 53,
      "start": 55.5481,
      "duration": 0.1578,
      "velocity": 101,
      "chip": "ym2612"
    },
    {
      "channel": 2,
      "note": 77,
      "start": 55.549,
      "duration": 0.1578,
      "velocity": 62,
      "chip": "ym2612"
    },
    {
      "channel": 3,
      "note": 70,
      "start": 55.5498,
      "duration": 0.1578,
      "velocity": 62,
      "chip": "ym2612"
    },
    {
      "channel": 4,
      "note": 79,
      "start": 55.6906,
      "duration": 0.0849,
      "velocity": 97,
      "chip": "ym2612"
    },
    {
      "channel": 0,
      "note": 77,
      "start": 55.7058,
      "duration": 0.0788,
      "velocity": 97,
      "chip": "ym2612"
    },
    {
      "channel": 1,
      "note": 62,
      "start": 55.7067,
      "duration": 0.0786,
      "velocity": 101,
      "chip": "ym2612"
    },
    {
      "channel": 2,
      "note": 77,
      "start": 55.7075,
      "duration": 0.0786,
      "velocity": 62,
      "chip": "ym2612"
    },
    {
      "channel": 3,
      "note": 70,
      "start": 55.7083,
      "duration": 0.0787,
      "velocity": 62,
      "chip": "ym2612"
    },
    {
      "channel": 4,
      "note": 77,
      "start": 55.7762,
      "duration": 0.1653,
      "velocity": 97,
      "chip": "ym2612"
    },
    {
      "channel": 0,
      "note": 76,
      "start": 55.7852,
      "duration": 0.1716,
      "velocity": 97,
      "chip": "ym2612"
    },
    {
      "channel": 1,
      "note": 62,
      "start": 55.786,
      "duration": 0.1716,
      "velocity": 101,
      "chip": "ym2612"
    },
    {
      "channel": 2,
      "note": 77,
      "start": 55.7868,
      "duration": 0.1716,
      "velocity": 62,
      "chip": "ym2612"
    },
    {
      "channel": 3,
      "note": 70,
      "start": 55.7877,
      "duration": 0.1715,
      "velocity": 62,
      "chip": "ym2612"
    },
    {
      "channel": 4,
      "note": 76,
      "start": 55.9422,
      "duration": 0.1578,
      "velocity": 97,
      "chip": "ym2612"
    },
    {
      "channel": 0,
      "note": 77,
      "start": 55.9574,
      "duration": 0.5664,
      "velocity": 97,
      "chip": "ym2612"
    },
    {
      "channel": 1,
      "note": 46,
      "start": 55.9583,
      "duration": 0.2741,
      "velocity": 101,
      "chip": "ym2612"
    },
    {
      "channel": 2,
      "note": 77,
      "start": 55.9591,
      "duration": 0.1569,
      "velocity": 62,
      "chip": "ym2612"
    },
    {
      "channel": 3,
      "note": 70,
      "start": 55.9599,
      "duration": 0.1569,
      "velocity": 62,
      "chip": "ym2612"
    },
    {
      "channel": 4,
      "note": 77,
      "start": 56.1007,
      "duration": 0.5664,
      "velocity": 97,
      "chip": "ym2612"
    },
    {
      "channel": 2,
      "note": 77,
      "start": 56.1167,
      "duration": 0.1578,
      "velocity": 62,
      "chip": "ym2612"
    },
    {
      "channel": 3,
      "note": 70,
      "start": 56.1176,
      "duration": 0.1578,
      "velocity": 62,
      "chip": "ym2612"
    },
    {
      "channel": 1,
      "note": 53,
      "start": 56.2331,
      "duration": 0.2915,
      "velocity": 101,
      "chip": "ym2612"
    },
    {
      "channel": 2,
      "note": 77,
      "start": 56.2752,
      "duration": 0.2502,
      "velocity": 62,
      "chip": "ym2612"
    },
    {
      "channel": 3,
      "note": 70,
      "start": 56.2761,
      "duration": 0.2502,
      "velocity": 62,
      "chip": "ym2612"
    },
    {
      "channel": 0,
      "note": 74,
      "start": 56.5244,
      "duration": 0.3913,
      "velocity": 97,
      "chip": "ym2612"
    },
    {
      "channel": 1,
      "note": 59,
      "start": 56.5253,
      "duration": 0.0189,
      "velocity": 101,
      "chip": "ym2612"
    },
    {
      "channel": 2,
      "note": 77,
      "start": 56.5261,
      "duration": 0.1569,
      "velocity": 62,
      "chip": "ym2612"
    },
    {
      "channel": 3,
      "note": 70,
      "start": 56.5269,
      "duration": 0.1569,
      "velocity": 62,
      "chip": "ym2612"
    },
    {
      "channel": 1,
      "note": 60,
      "start": 56.5449,
      "duration": 0.3736,
      "velocity": 101,
      "chip": "ym2612"
    },
    {
      "channel": 4,
      "note": 74,
      "start": 56.6678,
      "duration": 0.3216,
      "velocity": 97,
      "chip": "ym2612"
    },
    {
      "channel": 2,
      "note": 77,
      "start": 56.6837,
      "duration": 0.2356,
      "velocity": 62,
      "chip": "ym2612"
    },
    {
      "channel": 3,
      "note": 70,
      "start": 56.6846,
      "duration": 0.2356,
      "velocity": 62,
      "chip": "ym2612"
    },
    {
      "channel": 0,
      "note": 79,
      "start": 56.9163,
      "duration": 0.0998,
      "velocity": 97,
      "chip": "ym2612"
    },
    {
      "channel": 1,
      "note": 62,
      "start": 56.9192,
      "duration": 0.3441,
      "velocity": 101,
      "chip": "ym2612"
    },
    {
      "channel": 2,
      "note": 77,
      "start": 56.92,
      "duration": 0.0972,
      "velocity": 62,
      "chip": "ym2612"
    },
    {
      "channel": 3,
      "note": 70,
      "start": 56.9209,
      "duration": 0.0971,
      "velocity": 62,
      "chip": "ym2612"
    },
    {
      "channel": 4,
      "note": 79,
      "start": 56.9901,
      "duration": 0.0963,
      "velocity": 97,
      "chip": "ym2612"
    },
    {
      "channel": 0,
      "note": 77,
      "start": 57.0166,
      "duration": 0.0736,
      "velocity": 97,
      "chip": "ym2612"
    },
    {
      "channel": 2,
      "note": 77,
      "start": 57.0179,
      "duration": 0.0735,
      "velocity": 62,
      "chip": "ym2612"
    },
    {
      "channel": 3,
      "note": 70,
      "start": 57.0187,
      "duration": 0.0735,
      "velocity": 62,
      "chip": "ym2612"
    },
    {
      "channel": 4,
      "note": 77,
      "start": 57.0871,
      "duration": 0.1601,
      "velocity": 97,
      "chip": "ym2612"
    },
    {
      "channel": 0,
      "note": 76,
      "start": 57.0909,
      "duration": 0.1716,
      "velocity": 97,
      "chip": "ym2612"
    },
    {
      "channel": 2,
      "note": 77,
      "start": 57.0921,
      "duration": 0.1715,
      "velocity": 62,
      "chip": "ym2612"
    },
    {
      "channel": 3,
      "note": 70,
      "start": 57.0929,
      "duration": 0.1715,
      "velocity": 62,
      "chip": "ym2612"
    },
    {
      "channel": 4,
      "note": 76,
      "start": 57.2479,
      "duration": 0.1574,
      "velocity": 97,
      "chip": "ym2612"
    },
    {
      "channel": 0,
      "note": 77,
      "start": 57.2631,
      "duration": 0.5665,
      "velocity": 97,
      "chip": "ym2612"
    },
    {
      "channel": 2,
      "note": 79,
      "start": 57.2642,
      "duration": 0.1579,
      "velocity": 62,
      "chip": "ym2612"
    },
    {
      "channel": 3,
      "note": 72,
      "start": 57.2651,
      "duration": 0.1579,
      "velocity": 62,
      "chip": "ym2612"
    },
    {
      "channel": 4,
      "note": 77,
      "start": 57.4061,
      "duration": 0.5666,
      "velocity": 97,
      "chip": "ym2612"
    },
    {
      "channel": 1,
      "note": 48,
      "start": 57.422,
      "duration": 0.1745,
      "velocity": 101,
      "chip": "ym2612"
    },
    {
      "channel": 2,
      "note": 79,
      "start": 57.4229,
      "duration": 0.1745,
      "velocity": 62,
      "chip": "ym2612"
    },
    {
      "channel": 3,
      "note": 72,
      "start": 57.4237,
      "duration": 0.1745,
      "velocity": 62,
      "chip": "ym2612"
    },
    {
      "channel": 1,
      "note": 55,
      "start": 57.5972,
      "duration": 0.2331,
      "velocity": 101,
      "chip": "ym2612"
    },
    {
      "channel": 2,
      "note": 79,
      "start": 57.598,
      "duration": 0.2331,
      "velocity": 62,
      "chip": "ym2612"
    },
    {
      "channel": 3,
      "note": 72,
      "start": 57.5989,
      "duration": 0.2331,
      "velocity": 62,
      "chip": "ym2612"
    },
    {
      "channel": 0,
      "note": 76,
      "start": 57.8301,
      "duration": 0.6412,
      "velocity": 97,
      "chip": "ym2612"
    },
    {
      "channel": 1,
      "note": 64,
      "start": 57.831,
      "duration": 0.1573,
      "velocity": 101,
      "chip": "ym2612"
    },
    {
      "channel": 2,
      "note": 79,
      "start": 57.8318,
      "duration": 0.1573,
      "velocity": 62,
      "chip": "ym2612"
    },
    {
      "channel": 3,
      "note": 72,
      "start": 57.8327,
      "duration": 0.1573,
      "velocity": 62,
      "chip": "ym2612"
    },
    {
      "channel": 4,
      "note": 76,
      "start": 57.9734,
      "duration": 0.5683,
      "velocity": 97,
      "chip": "ym2612"
    },
    {
      "channel": 1,
      "note": 67,
      "start": 57.989,
      "duration": 0.2492,
      "velocity": 101,
      "chip": "ym2612"
    },
    {
      "channel": 2,
      "note": 79,
      "start": 57.9899,
      "duration": 0.2493,
      "velocity": 62,
      "chip": "ym2612"
    },
    {
      "channel": 3,
      "note": 72,
      "start": 57.9907,
      "duration": 0.2493,
      "velocity": 62,
      "chip": "ym2612"
    },
    {
      "channel": 1,
      "note": 65,
      "start": 58.239,
      "duration": 0.2331,
      "velocity": 101,
      "chip": "ym2612"
    },
    {
      "channel": 2,
      "note": 79,
      "start": 58.2399,
      "duration": 0.2331,
      "velocity": 62,
      "chip": "ym2612"
    },
    {
      "channel": 3,
      "note": 72,
      "start": 58.2407,
      "duration": 0.2331,
      "velocity": 62,
      "chip": "ym2612"
    },
    {
      "channel": 0,
      "note": 72,
      "start": 58.4719,
      "duration": 0.246,
      "velocity": 97,
      "chip": "ym2612"
    },
    {
      "channel": 1,
      "note": 64,
      "start": 58.4728,
      "duration": 0.0732,
      "velocity": 101,
      "chip": "ym2612"
    },
    {
      "channel": 2,
      "note": 79,
      "start": 58.4737,
      "duration": 0.0732,
      "velocity": 62,
      "chip": "ym2612"
    },
    {
      "channel": 3,
      "note": 72,
      "start": 58.4745,
      "duration": 0.0733,
      "velocity": 62,
      "chip": "ym2612"
    },
    {
      "channel": 4,
      "note": 72,
      "start": 58.5424,
      "duration": 0.3354,
      "velocity": 97,
      "chip": "ym2612"
    },
    {
      "channel": 1,
      "note": 60,
      "start": 58.5467,
      "duration": 0.1719,
      "velocity": 101,
      "chip": "ym2612"
    },
    {
      "channel": 2,
      "note": 79,
      "start": 58.5476,
      "duration": 0.172,
      "velocity": 62,
      "chip": "ym2612"
    },
    {
      "channel": 3,
      "note": 72,
      "start": 58.5485,
      "duration": 0.1719,
      "velocity": 62,
      "chip": "ym2612"
    },
    {
      "channel": 0,
      "note": 74,
      "start": 58.7185,
      "duration": 2.2454,
      "velocity": 107,
      "chip": "ym2612"
    },
    {
      "channel": 1,
      "note": 50,
      "start": 58.7194,
      "duration": 0.2908,
      "velocity": 101,
      "chip": "ym2612"
    },
    {
      "channel": 2,
      "note": 77,
      "start": 58.7202,
      "duration": 0.1735,
      "velocity": 62,
      "chip": "ym2612"
    },
    {
      "channel": 3,
      "note": 74,
      "start": 58.721,
      "duration": 0.1736,
      "velocity": 62,
      "chip": "ym2612"
    },
    {
      "channel": 4,
      "note": 74,
      "start": 58.8785,
      "duration": 2.2286,
      "velocity": 107,
      "chip": "ym2612"
    },
    {
      "channel": 2,
      "note": 77,
      "start": 58.8944,
      "duration": 0.1578,
      "velocity": 62,
      "chip": "ym2612"
    },
    {
      "channel": 3,
      "note": 74,
      "start": 58.8953,
      "duration": 0.1578,
      "velocity": 62,
      "chip": "ym2612"
    },
    {
      "channel": 1,
      "note": 57,
      "start": 59.0108,
      "duration": 0.2745,
      "velocity": 101,
      "chip": "ym2612"
    },
    {
      "channel": 2,
      "note": 77,
      "start": 59.053,
      "duration": 0.2333,
      "velocity": 62,
      "chip": "ym2612"
    },
    {
      "channel": 3,
      "note": 74,
      "start": 59.0539,
      "duration": 0.2332,
      "velocity": 62,
      "chip": "ym2612"
    },
    {
      "channel": 1,
      "note": 62,
      "start": 59.2861,
      "duration": 0.634,
      "velocity": 101,
      "chip": "ym2612"
    },
    {
      "channel": 2,
      "note": 77,
      "start": 59.287,
      "duration": 0.1739,
      "velocity": 62,
      "chip": "ym2612"
    },
    {
      "channel": 3,
      "note": 69,
      "start": 59.2878,
      "duration": 0.1739,
      "velocity": 62,
      "chip": "ym2612"
    },
    {
      "channel": 2,
      "note": 77,
      "start": 59.4616,
      "duration": 0.2327,
      "velocity": 62,
      "chip": "ym2612"
    },
    {
      "channel": 3,
      "note": 69,
      "start": 59.4624,
      "duration": 0.2327,
      "velocity": 62,
      "chip": "ym2612"
    },
    {
      "channel": 2,
      "note": 77,
      "start": 59.695,
      "duration": 0.0722,
      "velocity": 62,
      "chip": "ym2612"
    },
    {
      "channel": 3,
      "note": 69,
      "start": 59.6958,
      "duration": 0.0722,
      "velocity": 62,
      "chip": "ym2612"
    },
    {
      "channel": 2,
      "note": 77,
      "start": 59.7678,
      "duration": 0.0734,
      "velocity": 62,
      "chip": "ym2612"
    },
    {
      "channel": 3,
      "note": 69,
      "start": 59.7687,
      "duration": 0.0734,
      "velocity": 62,
      "chip": "ym2612"
    },
    {
      "channel": 2,
      "note": 77,
      "start": 59.8419,
      "duration": 0.0792,
      "velocity": 62,
      "chip": "ym2612"
    },
    {
      "channel": 3,
      "note": 69,
      "start": 59.8428,
      "duration": 0.0791,
      "velocity": 62,
      "chip": "ym2612"
    },
    {
      "channel": 1,
      "note": 50,
      "start": 59.9209,
      "duration": 1.0437,
      "velocity": 101,
      "chip": "ym2612"
    },
    {
      "channel": 2,
      "note": 77,
      "start": 59.9217,
      "duration": 0.0737,
      "velocity": 62,
      "chip": "ym2612"
    },
    {
      "channel": 3,
      "note": 74,
      "start": 59.9226,
      "duration": 0.0737,
      "velocity": 62,
      "chip": "ym2612"
    },
    {
      "channel": 2,
      "note": 77,
      "start": 59.9961,
      "duration": 0.0729,
      "velocity": 62,
      "chip": "ym2612"
    },
    {
      "channel": 3,
      "note": 74,
      "start": 59.9969,
      "duration": 0.0729,
      "velocity": 62,
      "chip": "ym2612"
    },
    {
      "channel": 2,
      "note": 77,
      "start": 60.0697,
      "duration": 0.0767,
      "velocity": 62,
      "chip": "ym2612"
    },
    {
      "channel": 3,
      "note": 74,
      "start": 60.0706,
      "duration": 0.0767,
      "velocity": 62,
      "chip": "ym2612"
    },
    {
      "channel": 2,
      "note": 77,
      "start": 60.1471,
      "duration": 0.0719,
      "velocity": 62,
      "chip": "ym2612"
    },
    {
      "channel": 3,
      "note": 69,
      "start": 60.1479,
      "duration": 0.0719,
      "velocity": 62,
      "chip": "ym2612"
    },
    {
      "channel": 2,
      "note": 77,
      "start": 60.2197,
      "duration": 0.0718,
      "velocity": 62,
      "chip": "ym2612"
    },
    {
      "channel": 3,
      "note": 69,
      "start": 60.2205,
      "duration": 0.0719,
      "velocity": 62,
      "chip": "ym2612"
    },
    {
      "channel": 2,
      "note": 77,
      "start": 60.2922,
      "duration": 0.2033,
      "velocity": 62,
      "chip": "ym2612"
    },
    {
      "channel": 3,
      "note": 69,
      "start": 60.2931,
      "duration": 0.2032,
      "velocity": 62,
      "chip": "ym2612"
    },
    {
      "channel": 2,
      "note": 77,
      "start": 60.4962,
      "duration": 0.2326,
      "velocity": 62,
      "chip": "ym2612"
    },
    {
      "channel": 3,
      "note": 69,
      "start": 60.497,
      "duration": 0.2326,
      "velocity": 62,
      "chip": "ym2612"
    },
    {
      "channel": 2,
      "note": 77,
      "start": 60.7295,
      "duration": 19.2472,
      "velocity": 97,
      "chip": "ym2612"
    },
    {
      "channel": 3,
      "note": 69,
      "start": 60.7304,
      "duration": 19.2464,
      "velocity": 97,
      "chip": "ym2612"
    },
    {
      "channel": 0,
      "note": 74,
      "start": 60.9643,
      "duration": 0.7227,
      "velocity": 107,
      "chip": "ym2612"
    },
    {
      "channel": 1,
      "note": 50,
      "start": 60.9652,
      "duration": 0.2886,
      "velocity": 101,
      "chip": "ym2612"
    },
    {
      "channel": 4,
      "note": 74,
      "start": 61.1077,
      "duration": 0.7971,
      "velocity": 107,
      "chip": "ym2612"
    },
    {
      "channel": 1,
      "note": 50,
      "start": 61.2545,
      "duration": 0.041,
      "velocity": 101,
      "chip": "ym2612"
    },
    {
      "channel": 1,
      "note": 50,
      "start": 61.5295,
      "duration": 0.0412,
      "velocity": 101,
      "chip": "ym2612"
    },
    {
      "channel": 0,
      "note": 62,
      "start": 61.6876,
      "duration": 0.9494,
      "velocity": 107,
      "chip": "ym2612"
    },
    {
      "channel": 4,
      "note": 62,
      "start": 61.9055,
      "duration": 18.0712,
      "velocity": 107,
      "chip": "ym2612"
    },
    {
      "channel": 0,
      "note": 69,
      "start": 62.6376,
      "duration": 17.3392,
      "velocity": 107,
      "chip": "ym2612"
    }
  ]
}