{
  "track_name": "12 - Levels 10 & 12- Ice Cube Cliffs ~ The Great Rocked Race",
  "duration_sec": 46.023,
  "sample_rate": 44100,
  "note_count": 2518,
  "unique_pitches": 72,
  "pitch_range": 81,
  "avg_note_duration": 0.0974,
  "reconstruction_stats": {
    "notes_reconstructed": 2518,
    "keyon_events": 2518,
    "keyoff_events": 2515,
    "orphan_keyons": 3,
    "unique_pitches": 72,
    "pitch_range": 81,
    "avg_duration_sec": 0.0974
  },
  "metadata": {
    "source": "S\\Snake Rattle 'n' Roll\\12 - Levels 10 & 12- Ice Cube Cliffs ~ The Great Rocked Race.vgz"
  },
  "notes": [
    {
      "channel": 1,
      "note": 69,
      "start": 0.0022,
      "duration": 0.1342,
      "velocity": 109,
      "chip": "ym2612"
    },
    {
      "channel": 2,
      "note": 27,
      "start": 0.0049,
      "duration": 0.0916,
      "velocity": 93,
      "chip": "ym2612"
    },
    {
      "channel": 3,
      "note": 93,
      "start": 0.0077,
      "duration": 0.133,
      "velocity": 67,
      "chip": "ym2612"
    },
    {
      "channel": 4,
      "note": 72,
      "start": 0.0107,
      "duration": 0.1323,
      "velocity": 109,
      "chip": "ym2612"
    },
    {
      "channel": 5,
      "note": 36,
      "start": 0.0135,
      "duration": 0.1315,
      "velocity": 110,
      "chip": "ym2612"
    },
    {
      "channel": 2,
      "note": 27,
      "start": 0.1406,
      "duration": 0.098,
      "velocity": 93,
      "chip": "ym2612"
    },
    {
      "channel": 3,
      "note": 95,
      "start": 0.1428,
      "duration": 0.1385,
      "velocity": 67,
      "chip": "ym2612"
    },
    {
      "channel": 0,
      "note": 93,
      "start": 0.2385,
      "duration": 0.1379,
      "velocity": 67,
      "chip": "ym2612"
    },
    {
      "channel": 1,
      "note": 69,
      "start": 0.2784,
      "duration": 0.118,
      "velocity": 109,
      "chip": "ym2612"
    },
    {
      "channel": 2,
      "note": 35,
      "start": 0.2811,
      "duration": 0.0975,
      "velocity": 127,
      "chip": "ym2612"
    },
    {
      "channel": 3,
      "note": 96,
      "start": 0.2832,
      "duration": 0.1175,
      "velocity": 67,
      "chip": "ym2612"
    },
    {
      "channel": 4,
      "note": 72,
      "start": 0.2854,
      "duration": 0.1175,
      "velocity": 109,
      "chip": "ym2612"
    },
    {
      "channel": 5,
      "note": 36,
      "start": 0.2876,
      "duration": 0.1174,
      "velocity": 110,
      "chip": "ym2612"
    },
    {
      "channel": 0,
      "note": 95,
      "start": 0.3783,
      "duration": 0.118,
      "velocity": 67,
      "chip": "ym2612"
    },
    {
      "channel": 2,
      "note": 34,
      "start": 0.4006,
      "duration": 0.098,
      "velocity": 127,
      "chip": "ym2612"
    },
    {
      "channel": 3,
      "note": 98,
      "start": 0.4028,
      "duration": 0.1385,
      "velocity": 67,
      "chip": "ym2612"
    },
    {
      "channel": 0,
      "note": 96,
      "start": 0.4983,
      "duration": 0.138,
      "velocity": 67,
      "chip": "ym2612"
    },
    {
      "channel": 1,
      "note": 69,
      "start": 0.5384,
      "duration": 0.138,
      "velocity": 109,
      "chip": "ym2612"
    },
    {
      "channel": 2,
      "note": 27,
      "start": 0.5411,
      "duration": 0.0975,
      "velocity": 93,
      "chip": "ym2612"
    },
    {
      "channel": 3,
      "note": 100,
      "start": 0.5432,
      "duration": 0.1375,
      "velocity": 67,
      "chip": "ym2612"
    },
    {
      "channel": 4,
      "note": 72,
      "start": 0.5454,
      "duration": 0.1375,
      "velocity": 109,
      "chip": "ym2612"
    },
    {
      "channel": 5,
      "note": 36,
      "start": 0.5476,
      "duration": 0.1374,
      "velocity": 110,
      "chip": "ym2612"
    },
    {
      "channel": 0,
      "note": 98,
      "start": 0.6383,
      "duration": 0.138,
      "velocity": 67,
      "chip": "ym2612"
    },
    {
      "channel": 2,
      "note": 27,
      "start": 0.6806,
      "duration": 0.098,
      "velocity": 93,
      "chip": "ym2612"
    },
    {
      "channel": 3,
      "note": 98,
      "start": 0.6828,
      "duration": 0.1185,
      "velocity": 67,
      "chip": "ym2612"
    },
    {
      "channel": 0,
      "note": 100,
      "start": 0.7783,
      "duration": 0.118,
      "velocity": 67,
      "chip": "ym2612"
    },
    {
      "channel": 1,
      "note": 69,
      "start": 0.7984,
      "duration": 0.138,
      "velocity": 109,
      "chip": "ym2612"
    },
    {
      "channel": 2,
      "note": 35,
      "start": 0.8011,
      "duration": 0.0975,
      "velocity": 127,
      "chip": "ym2612"
    },
    {
      "channel": 3,
      "note": 96,
      "start": 0.8032,
      "duration": 0.1376,
      "velocity": 67,
      "chip": "ym2612"
    },
    {
      "channel": 4,
      "note": 72,
      "start": 0.8054,
      "duration": 0.1376,
      "velocity": 109,
      "chip": "ym2612"
    },
    {
      "channel": 5,
      "note": 36,
      "start": 0.8076,
      "duration": 0.1376,
      "velocity": 110,
      "chip": "ym2612"
    },
    {
      "channel": 0,
      "note": 98,
      "start": 0.8983,
      "duration": 0.138,
      "velocity": 67,
      "chip": "ym2612"
    },
    {
      "channel": 1,
      "note": 57,
      "start": 0.9384,
      "duration": 1.198,
      "velocity": 109,
      "chip": "ym2612"
    },
    {
      "channel": 2,
      "note": 34,
      "start": 0.9406,
      "duration": 0.098,
      "velocity": 127,
      "chip": "ym2612"
    },
    {
      "channel": 3,
      "note": 95,
      "start": 0.9428,
      "duration": 0.1364,
      "velocity": 67,
      "chip": "ym2612"
    },
    {
      "channel": 4,
      "note": 69,
      "start": 0.945,
      "duration": 1.1987,
      "velocity": 109,
      "chip": "ym2612"
    },
    {
      "channel": 5,
      "note": 33,
      "start": 0.9471,
      "duration": 0.2539,
      "velocity": 110,
      "chip": "ym2612"
    },
    {
      "channel": 0,
      "note": 96,
      "start": 1.0383,
      "duration": 0.138,
      "velocity": 67,
      "chip": "ym2612"
    },
    {
      "channel": 2,
      "note": 27,
      "start": 1.0791,
      "duration": 0.0995,
      "velocity": 93,
      "chip": "ym2612"
    },
    {
      "channel": 3,
      "note": 93,
      "start": 1.0813,
      "duration": 0.1174,
      "velocity": 67,
      "chip": "ym2612"
    },
    {
      "channel": 0,
      "note": 95,
      "start": 1.1783,
      "duration": 0.118,
      "velocity": 67,
      "chip": "ym2612"
    },
    {
      "channel": 2,
      "note": 27,
      "start": 1.1986,
      "duration": 0.1001,
      "velocity": 93,
      "chip": "ym2612"
    },
    {
      "channel": 3,
      "note": 95,
      "start": 1.2008,
      "duration": 0.1383,
      "velocity": 67,
      "chip": "ym2612"
    },
    {
      "channel": 5,
      "note": 40,
      "start": 1.203,
      "duration": 0.1384,
      "velocity": 110,
      "chip": "ym2612"
    },
    {
      "channel": 0,
      "note": 93,
      "start": 1.2984,
      "duration": 0.138,
      "velocity": 67,
      "chip": "ym2612"
    },
    {
      "channel": 2,
      "note": 35,
      "start": 1.339,
      "duration": 0.0995,
      "velocity": 127,
      "chip": "ym2612"
    },
    {
      "channel": 3,
      "note": 96,
      "start": 1.3412,
      "duration": 0.1375,
      "velocity": 67,
      "chip": "ym2612"
    },
    {
      "channel": 5,
      "note": 41,
      "start": 1.3434,
      "duration": 0.1376,
      "velocity": 110,
      "chip": "ym2612"
    },
    {
      "channel": 0,
      "note": 95,
      "start": 1.4383,
      "duration": 0.138,
      "velocity": 67,
      "chip": "ym2612"
    },
    {
      "channel": 2,
      "note": 34,
      "start": 1.4786,
      "duration": 0.1,
      "velocity": 127,
      "chip": "ym2612"
    },
    {
      "channel": 3,
      "note": 98,
      "start": 1.4808,
      "duration": 0.1184,
      "velocity": 67,
      "chip": "ym2612"
    },
    {
      "channel": 5,
      "note": 40,
      "start": 1.483,
      "duration": 0.1184,
      "velocity": 110,
      "chip": "ym2612"
    },
    {
      "channel": 0,
      "note": 96,
      "start": 1.5783,
      "duration": 0.118,
      "velocity": 67,
      "chip": "ym2612"
    },
    {
      "channel": 2,
      "note": 27,
      "start": 1.5991,
      "duration": 0.0995,
      "velocity": 93,
      "chip": "ym2612"
    },
    {
      "channel": 3,
      "note": 100,
      "start": 1.6013,
      "duration": 0.1374,
      "velocity": 67,
      "chip": "ym2612"
    },
    {
      "channel": 5,
      "note": 33,
      "start": 1.6035,
      "duration": 0.1375,
      "velocity": 110,
      "chip": "ym2612"
    },
    {
      "channel": 0,
      "note": 98,
      "start": 1.6983,
      "duration": 0.138,
      "velocity": 67,
      "chip": "ym2612"
    },
    {
      "channel": 2,
      "note": 27,
      "start": 1.7386,
      "duration": 0.1,
      "velocity": 93,
      "chip": "ym2612"
    },
    {
      "channel": 3,
      "note": 98,
      "start": 1.7408,
      "duration": 0.1383,
      "velocity": 67,
      "chip": "ym2612"
    },
    {
      "channel": 5,
      "note": 40,
      "start": 1.743,
      "duration": 0.1384,
      "velocity": 110,
      "chip": "ym2612"
    },
    {
      "channel": 0,
      "note": 100,
      "start": 1.8383,
      "duration": 0.138,
      "velocity": 67,
      "chip": "ym2612"
    },
    {
      "channel": 2,
      "note": 35,
      "start": 1.879,
      "duration": 0.0995,
      "velocity": 127,
      "chip": "ym2612"
    },
    {
      "channel": 3,
      "note": 96,
      "start": 1.8812,
      "duration": 0.1175,
      "velocity": 67,
      "chip": "ym2612"
    },
    {
      "channel": 5,
      "note": 41,
      "start": 1.8834,
      "duration": 0.1176,
      "velocity": 110,
      "chip": "ym2612"
    },
    {
      "channel": 0,
      "note": 98,
      "start": 1.9783,
      "duration": 0.118,
      "velocity": 67,
      "chip": "ym2612"
    },
    {
      "channel": 2,
      "note": 34,
      "start": 1.9986,
      "duration": 0.1,
      "velocity": 127,
      "chip": "ym2612"
    },
    {
      "channel": 3,
      "note": 95,
      "start": 2.0008,
      "duration": 0.1406,
      "velocity": 67,
      "chip": "ym2612"
    },
    {
      "channel": 5,
      "note": 40,
      "start": 2.003,
      "duration": 0.1429,
      "velocity": 110,
      "chip": "ym2612"
    },
    {
      "channel": 0,
      "note": 96,
      "start": 2.0983,
      "duration": 0.138,
      "velocity": 67,
      "chip": "ym2612"
    },
    {
      "channel": 1,
      "note": 69,
      "start": 2.1385,
      "duration": 0.1379,
      "velocity": 109,
      "chip": "ym2612"
    },
    {
      "channel": 2,
      "note": 27,
      "start": 2.1412,
      "duration": 0.0974,
      "velocity": 93,
      "chip": "ym2612"
    },
    {
      "channel": 3,
      "note": 93,
      "start": 2.1435,
      "duration": 0.1373,
      "velocity": 67,
      "chip": "ym2612"
    },
    {
      "channel": 4,
      "note": 72,
      "start": 2.1458,
      "duration": 0.1371,
      "velocity": 109,
      "chip": "ym2612"
    },
    {
      "channel": 5,
      "note": 36,
      "start": 2.1481,
      "duration": 0.1369,
      "velocity": 110,
      "chip": "ym2612"
    },
    {
      "channel": 0,
      "note": 95,
      "start": 2.2383,
      "duration": 0.138,
      "velocity": 67,
      "chip": "ym2612"
    },
    {
      "channel": 2,
      "note": 27,
      "start": 2.2806,
      "duration": 0.098,
      "velocity": 93,
      "chip": "ym2612"
    },
    {
      "channel": 3,
      "note": 95,
      "start": 2.2828,
      "duration": 0.1185,
      "velocity": 67,
      "chip": "ym2612"
    },
    {
      "channel": 0,
      "note": 93,
      "start": 2.3784,
      "duration": 0.118,
      "velocity": 67,
      "chip": "ym2612"
    },
    {
      "channel": 1,
      "note": 69,
      "start": 2.3984,
      "duration": 0.138,
      "velocity": 109,
      "chip": "ym2612"
    },
    {
      "channel": 2,
      "note": 35,
      "start": 2.4011,
      "duration": 0.0975,
      "velocity": 127,
      "chip": "ym2612"
    },
    {
      "channel": 3,
      "note": 96,
      "start": 2.4032,
      "duration": 0.1375,
      "velocity": 67,
      "chip": "ym2612"
    },
    {
      "channel": 4,
      "note": 72,
      "start": 2.4054,
      "duration": 0.1375,
      "velocity": 109,
      "chip": "ym2612"
    },
    {
      "channel": 5,
      "note": 36,
      "start": 2.4076,
      "duration": 0.1374,
      "velocity": 110,
      "chip": "ym2612"
    },
    {
      "channel": 0,
      "note": 95,
      "start": 2.4983,
      "duration": 0.138,
      "velocity": 67,
      "chip": "ym2612"
    },
    {
      "channel": 2,
      "note": 34,
      "start": 2.5406,
      "duration": 0.098,
      "velocity": 127,
      "chip": "ym2612"
    },
    {
      "channel": 3,
      "note": 98,
      "start": 2.5428,
      "duration": 0.1185,
      "velocity": 67,
      "chip": "ym2612"
    },
    {
      "channel": 0,
      "note": 96,
      "start": 2.6383,
      "duration": 0.118,
      "velocity": 67,
      "chip": "ym2612"
    },
    {
      "channel": 1,
      "note": 69,
      "start": 2.6584,
      "duration": 0.138,
      "velocity": 109,
      "chip": "ym2612"
    },
    {
      "channel": 2,
      "note": 27,
      "start": 2.6611,
      "duration": 0.0975,
      "velocity": 93,
      "chip": "ym2612"
    },
    {
      "channel": 3,
      "note": 100,
      "start": 2.6632,
      "duration": 0.1375,
      "velocity": 67,
      "chip": "ym2612"
    },
    {
      "channel": 4,
      "note": 72,
      "start": 2.6654,
      "duration": 0.1375,
      "velocity": 109,
      "chip": "ym2612"
    },
    {
      "channel": 5,
      "note": 36,
      "start": 2.6676,
      "duration": 0.1374,
      "velocity": 110,
      "chip": "ym2612"
    },
    {
      "channel": 0,
      "note": 98,
      "start": 2.7583,
      "duration": 0.138,
      "velocity": 67,
      "chip": "ym2612"
    },
    {
      "channel": 2,
      "note": 27,
      "start": 2.8006,
      "duration": 0.098,
      "velocity": 93,
      "chip": "ym2612"
    },
    {
      "channel": 3,
      "note": 98,
      "start": 2.8028,
      "duration": 0.1385,
      "velocity": 67,
      "chip": "ym2612"
    },
    {
      "channel": 0,
      "note": 100,
      "start": 2.8983,
      "duration": 0.138,
      "velocity": 67,
      "chip": "ym2612"
    },
    {
      "channel": 1,
      "note": 69,
      "start": 2.9384,
      "duration": 0.118,
      "velocity": 109,
      "chip": "ym2612"
    },
    {
      "channel": 2,
      "note": 35,
      "start": 2.9411,
      "duration": 0.0975,
      "velocity": 127,
      "chip": "ym2612"
    },
    {
      "channel": 3,
      "note": 96,
      "start": 2.9432,
      "duration": 0.1176,
      "velocity": 67,
      "chip": "ym2612"
    },
    {
      "channel": 4,
      "note": 72,
      "start": 2.9454,
      "duration": 0.1176,
      "velocity": 109,
      "chip": "ym2612"
    },
    {
      "channel": 5,
      "note": 36,
      "start": 2.9476,
      "duration": 0.1176,
      "velocity": 110,
      "chip": "ym2612"
    },
    {
      "channel": 0,
      "note": 98,
      "start": 3.0383,
      "duration": 0.118,
      "velocity": 67,
      "chip": "ym2612"
    },
    {
      "channel": 1,
      "note": 57,
      "start": 3.0584,
      "duration": 1.198,
      "velocity": 109,
      "chip": "ym2612"
    },
    {
      "channel": 2,
      "note": 34,
      "start": 3.0606,
      "duration": 0.098,
      "velocity": 127,
      "chip": "ym2612"
    },
    {
      "channel": 3,
      "note": 95,
      "start": 3.0628,
      "duration": 0.1364,
      "velocity": 67,
      "chip": "ym2612"
    },
    {
      "channel": 4,
      "note": 69,
      "start": 3.065,
      "duration": 1.199,
      "velocity": 109,
      "chip": "ym2612"
    },
    {
      "channel": 5,
      "note": 33,
      "start": 3.0671,
      "duration": 0.2739,
      "velocity": 110,
      "chip": "ym2612"
    },
    {
      "channel": 0,
      "note": 96,
      "start": 3.1583,
      "duration": 0.138,
      "velocity": 67,
      "chip": "ym2612"
    },
    {
      "channel": 2,
      "note": 27,
      "start": 3.1991,
      "duration": 0.0995,
      "velocity": 93,
      "chip": "ym2612"
    },
    {
      "channel": 3,
      "note": 93,
      "start": 3.2013,
      "duration": 0.1374,
      "velocity": 67,
      "chip": "ym2612"
    },
    {
      "channel": 0,
      "note": 95,
      "start": 3.2983,
      "duration": 0.138,
      "velocity": 67,
      "chip": "ym2612"
    },
    {
      "channel": 2,
      "note": 27,
      "start": 3.3386,
      "duration": 0.1001,
      "velocity": 93,
      "chip": "ym2612"
    },
    {
      "channel": 3,
      "note": 95,
      "start": 3.3408,
      "duration": 0.1183,
      "velocity": 67,
      "chip": "ym2612"
    },
    {
      "channel": 5,
      "note": 40,
      "start": 3.343,
      "duration": 0.1184,
      "velocity": 110,
      "chip": "ym2612"
    },
    {
      "channel": 0,
      "note": 93,
      "start": 3.4385,
      "duration": 0.1179,
      "velocity": 67,
      "chip": "ym2612"
    },
    {
      "channel": 2,
      "note": 35,
      "start": 3.459,
      "duration": 0.0995,
      "velocity": 127,
      "chip": "ym2612"
    },
    {
      "channel": 3,
      "note": 96,
      "start": 3.4612,
      "duration": 0.1375,
      "velocity": 67,
      "chip": "ym2612"
    },
    {
      "channel": 5,
      "note": 41,
      "start": 3.4634,
      "duration": 0.1376,
      "velocity": 110,
      "chip": "ym2612"
    },
    {
      "channel": 0,
      "note": 95,
      "start": 3.5583,
      "duration": 0.138,
      "velocity": 67,
      "chip": "ym2612"
    },
    {
      "channel": 2,
      "note": 34,
      "start": 3.5986,
      "duration": 0.1,
      "velocity": 127,
      "chip": "ym2612"
    },
    {
      "channel": 3,
      "note": 98,
      "start": 3.6008,
      "duration": 0.1384,
      "velocity": 67,
      "chip": "ym2612"
    },
    {
      "channel": 5,
      "note": 40,
      "start": 3.603,
      "duration": 0.1384,
      "velocity": 110,
      "chip": "ym2612"
    },
    {
      "channel": 0,
      "note": 96,
      "start": 3.6983,
      "duration": 0.138,
      "velocity": 67,
      "chip": "ym2612"
    },
    {
      "channel": 2,
      "note": 27,
      "start": 3.7391,
      "duration": 0.0995,
      "velocity": 93,
      "chip": "ym2612"
    },
    {
      "channel": 3,
      "note": 100,
      "start": 3.7413,
      "duration": 0.1174,
      "velocity": 67,
      "chip": "ym2612"
    },
    {
      "channel": 5,
      "note": 33,
      "start": 3.7435,
      "duration": 0.1175,
      "velocity": 110,
      "chip": "ym2612"
    },
    {
      "channel": 0,
      "note": 98,
      "start": 3.8383,
      "duration": 0.118,
      "velocity": 67,
      "chip": "ym2612"
    },
    {
      "channel": 2,
      "note": 27,
      "start": 3.8586,
      "duration": 0.1,
      "velocity": 93,
      "chip": "ym2612"
    },
    {
      "channel": 3,
      "note": 98,
      "start": 3.8608,
      "duration": 0.1383,
      "velocity": 67,
      "chip": "ym2612"
    },
    {
      "channel": 5,
      "note": 40,
      "start": 3.863,
      "duration": 0.1384,
      "velocity": 110,
      "chip": "ym2612"
    },
    {
      "channel": 0,
      "note": 100,
      "start": 3.9583,
      "duration": 0.138,
      "velocity": 67,
      "chip": "ym2612"
    },
    {
      "channel": 2,
      "note": 35,
      "start": 3.999,
      "duration": 0.0995,
      "velocity": 127,
      "chip": "ym2612"
    },
    {
      "channel": 3,
      "note": 96,
      "start": 4.0012,
      "duration": 0.1375,
      "velocity": 67,
      "chip": "ym2612"
    },
    {
      "channel": 5,
      "note": 41,
      "start": 4.0034,
      "duration": 0.1376,
      "velocity": 110,
      "chip": "ym2612"
    },
    {
      "channel": 0,
      "note": 98,
      "start": 4.0983,
      "duration": 0.138,
      "velocity": 67,
      "chip": "ym2612"
    },
    {
      "channel": 2,
      "note": 34,
      "start": 4.1386,
      "duration": 0.1,
      "velocity": 127,
      "chip": "ym2612"
    },
    {
      "channel": 3,
      "note": 95,
      "start": 4.1408,
      "duration": 0.1207,
      "velocity": 67,
      "chip": "ym2612"
    },
    {
      "channel": 5,
      "note": 40,
      "start": 4.143,
      "duration": 0.1233,
      "velocity": 110,
      "chip": "ym2612"
    },
    {
      "channel": 0,
      "note": 96,
      "start": 4.2383,
      "duration": 0.118,
      "velocity": 67,
      "chip": "ym2612"
    },
    {
      "channel": 1,
      "note": 71,
      "start": 4.2586,
      "duration": 0.1378,
      "velocity": 109,
      "chip": "ym2612"
    },
    {
      "channel": 2,
      "note": 27,
      "start": 4.2613,
      "duration": 0.0973,
      "velocity": 93,
      "chip": "ym2612"
    },
    {
      "channel": 3,
      "note": 95,
      "start": 4.2637,
      "duration": 0.137,
      "velocity": 67,
      "chip": "ym2612"
    },
    {
      "channel": 4,
      "note": 74,
      "start": 4.2662,
      "duration": 0.1367,
      "velocity": 109,
      "chip": "ym2612"
    },
    {
      "channel": 5,
      "note": 38,
      "start": 4.2687,
      "duration": 0.1364,
      "velocity": 110,
      "chip": "ym2612"
    },
    {
      "channel": 0,
      "note": 95,
      "start": 4.3583,
      "duration": 0.138,
      "velocity": 67,
      "chip": "ym2612"
    },
    {
      "channel": 2,
      "note": 27,
      "start": 4.4006,
      "duration": 0.0982,
      "velocity": 93,
      "chip": "ym2612"
    },
    {
      "channel": 3,
      "note": 96,
      "start": 4.4028,
      "duration": 0.1385,
      "velocity": 67,
      "chip": "ym2612"
    },
    {
      "channel": 0,
      "note": 95,
      "start": 4.4986,
      "duration": 0.1378,
      "velocity": 67,
      "chip": "ym2612"
    },
    {
      "channel": 1,
      "note": 71,
      "start": 4.5384,
      "duration": 0.118,
      "velocity": 109,
      "chip": "ym2612"
    },
    {
      "channel": 2,
      "note": 35,
      "start": 4.5411,
      "duration": 0.0975,
      "velocity": 127,
      "chip": "ym2612"
    },
    {
      "channel": 3,
      "note": 98,
      "start": 4.5432,
      "duration": 0.1175,
      "velocity": 67,
      "chip": "ym2612"
    },
    {
      "channel": 4,
      "note": 74,
      "start": 4.5454,
      "duration": 0.1175,
      "velocity": 109,
      "chip": "ym2612"
    },
    {
      "channel": 5,
      "note": 38,
      "start": 4.5476,
      "duration": 0.1174,
      "velocity": 110,
      "chip": "ym2612"
    },
    {
      "channel": 0,
      "note": 96,
      "start": 4.6383,
      "duration": 0.118,
      "velocity": 67,
      "chip": "ym2612"
    },
    {
      "channel": 2,
      "note": 34,
      "start": 4.6606,
      "duration": 0.098,
      "velocity": 127,
      "chip": "ym2612"
    },
    {
      "channel": 3,
      "note": 100,
      "start": 4.6628,
      "duration": 0.1385,
      "velocity": 67,
      "chip": "ym2612"
    },
    {
      "channel": 0,
      "note": 98,
      "start": 4.7583,
      "duration": 0.138,
      "velocity": 67,
      "chip": "ym2612"
    },
    {
      "channel": 1,
      "note": 71,
      "start": 4.7984,
      "duration": 0.138,
      "velocity": 109,
      "chip": "ym2612"
    },
    {
      "channel": 2,
      "note": 27,
      "start": 4.8011,
      "duration": 0.0975,
      "velocity": 93,
      "chip": "ym2612"
    },
    {
      "channel": 3,
      "note": 101,
      "start": 4.8032,
      "duration": 0.1375,
      "velocity": 67,
      "chip": "ym2612"
    },
    {
      "channel": 4,
      "note": 74,
      "start": 4.8054,
      "duration": 0.1375,
      "velocity": 109,
      "chip": "ym2612"
    },
    {
      "channel": 5,
      "note": 38,
      "start": 4.8076,
      "duration": 0.1374,
      "velocity": 110,
      "chip": "ym2612"
    },
    {
      "channel": 0,
      "note": 100,
      "start": 4.8983,
      "duration": 0.138,
      "velocity": 67,
      "chip": "ym2612"
    },
    {
      "channel": 2,
      "note": 27,
      "start": 4.9406,
      "duration": 0.098,
      "velocity": 93,
      "chip": "ym2612"
    },
    {
      "channel": 3,
      "note": 100,
      "start": 4.9428,
      "duration": 0.1185,
      "velocity": 67,
      "chip": "ym2612"
    },
    {
      "channel": 0,
      "note": 101,
      "start": 5.0383,
      "duration": 0.118,
      "velocity": 67,
      "chip": "ym2612"
    },
    {
      "channel": 1,
      "note": 71,
      "start": 5.0584,
      "duration": 0.138,
      "velocity": 109,
      "chip": "ym2612"
    },
    {
      "channel": 2,
      "note": 35,
      "start": 5.0611,
      "duration": 0.0975,
      "velocity": 127,
      "chip": "ym2612"
    },
    {
      "channel": 3,
      "note": 98,
      "start": 5.0632,
      "duration": 0.1376,
      "velocity": 67,
      "chip": "ym2612"
    },
    {
      "channel": 4,
      "note": 74,
      "start": 5.0654,
      "duration": 0.1376,
      "velocity": 109,
      "chip": "ym2612"
    },
    {
      "channel": 5,
      "note": 38,
      "start": 5.0676,
      "duration": 0.1376,
      "velocity": 110,
      "chip": "ym2612"
    },
    {
      "channel": 0,
      "note": 100,
      "start": 5.1583,
      "duration": 0.138,
      "velocity": 67,
      "chip": "ym2612"
    },
    {
      "channel": 1,
      "note": 59,
      "start": 5.1984,
      "duration": 1.198,
      "velocity": 109,
      "chip": "ym2612"
    },
    {
      "channel": 2,
      "note": 34,
      "start": 5.2006,
      "duration": 0.098,
      "velocity": 127,
      "chip": "ym2612"
    },
    {
      "channel": 3,
      "note": 96,
      "start": 5.2028,
      "duration": 0.1164,
      "velocity": 67,
      "chip": "ym2612"
    },
    {
      "channel": 4,
      "note": 71,
      "start": 5.205,
      "duration": 1.1987,
      "velocity": 109,
      "chip": "ym2612"
    },
    {
      "channel": 5,
      "note": 35,
      "start": 5.2071,
      "duration": 0.2539,
      "velocity": 110,
      "chip": "ym2612"
    },
    {
      "channel": 0,
      "note": 98,
      "start": 5.2983,
      "duration": 0.118,
      "velocity": 67,
      "chip": "ym2612"
    },
    {
      "channel": 2,
      "note": 27,
      "start": 5.3191,
      "duration": 0.0995,
      "velocity": 93,
      "chip": "ym2612"
    },
    {
      "channel": 3,
      "note": 95,
      "start": 5.3213,
      "duration": 0.1374,
      "velocity": 67,
      "chip": "ym2612"
    },
    {
      "channel": 0,
      "note": 96,
      "start": 5.4183,
      "duration": 0.138,
      "velocity": 67,
      "chip": "ym2612"
    },
    {
      "channel": 2,
      "note": 27,
      "start": 5.4586,
      "duration": 0.1001,
      "velocity": 93,
      "chip": "ym2612"
    },
    {
      "channel": 3,
      "note": 96,
      "start": 5.4608,
      "duration": 0.1383,
      "velocity": 67,
      "chip": "ym2612"
    },
    {
      "channel": 5,
      "note": 42,
      "start": 5.463,
      "duration": 0.1384,
      "velocity": 110,
      "chip": "ym2612"
    },
    {
      "channel": 0,
      "note": 95,
      "start": 5.5584,
      "duration": 0.138,
      "velocity": 67,
      "chip": "ym2612"
    },
    {
      "channel": 2,
      "note": 35,
      "start": 5.599,
      "duration": 0.0995,
      "velocity": 127,
      "chip": "ym2612"
    },
    {
      "channel": 3,
      "note": 98,
      "start": 5.6012,
      "duration": 0.1175,
      "velocity": 67,
      "chip": "ym2612"
    },
    {
      "channel": 5,
      "note": 43,
      "start": 5.6034,
      "duration": 0.1176,
      "velocity": 110,
      "chip": "ym2612"
    },
    {
      "channel": 0,
      "note": 96,
      "start": 5.6983,
      "duration": 0.118,
      "velocity": 67,
      "chip": "ym2612"
    },
    {
      "channel": 2,
      "note": 34,
      "start": 5.7186,
      "duration": 0.1,
      "velocity": 127,
      "chip": "ym2612"
    },
    {
      "channel": 3,
      "note": 100,
      "start": 5.7208,
      "duration": 0.1384,
      "velocity": 67,
      "chip": "ym2612"
    },
    {
      "channel": 5,
      "note": 42,
      "start": 5.723,
      "duration": 0.1384,
      "velocity": 110,
      "chip": "ym2612"
    },
    {
      "channel": 0,
      "note": 98,
      "start": 5.8183,
      "duration": 0.138,
      "velocity": 67,
      "chip": "ym2612"
    },
    {
      "channel": 2,
      "note": 27,
      "start": 5.8591,
      "duration": 0.0995,
      "velocity": 93,
      "chip": "ym2612"
    },
    {
      "channel": 3,
      "note": 101,
      "start": 5.8613,
      "duration": 0.1374,
      "velocity": 67,
      "chip": "ym2612"
    },
    {
      "channel": 5,
      "note": 35,
      "start": 5.8635,
      "duration": 0.1375,
      "velocity": 110,
      "chip": "ym2612"
    },
    {
      "channel": 0,
      "note": 100,
      "start": 5.9583,
      "duration": 0.138,
      "velocity": 67,
      "chip": "ym2612"
    },
    {
      "channel": 2,
      "note": 27,
      "start": 5.9986,
      "duration": 0.1,
      "velocity": 93,
      "chip": "ym2612"
    },
    {
      "channel": 3,
      "note": 100,
      "start": 6.0008,
      "duration": 0.1183,
      "velocity": 67,
      "chip": "ym2612"
    },
    {
      "channel": 5,
      "note": 42,
      "start": 6.003,
      "duration": 0.1184,
      "velocity": 110,
      "chip": "ym2612"
    },
    {
      "channel": 0,
      "note": 101,
      "start": 6.0983,
      "duration": 0.118,
      "velocity": 67,
      "chip": "ym2612"
    },
    {
      "channel": 2,
      "note": 35,
      "start": 6.119,
      "duration": 0.0995,
      "velocity": 127,
      "chip": "ym2612"
    },
    {
      "channel": 3,
      "note": 98,
      "start": 6.1212,
      "duration": 0.1375,
      "velocity": 67,
      "chip": "ym2612"
    },
    {
      "channel": 5,
      "note": 43,
      "start": 6.1234,
      "duration": 0.1376,
      "velocity": 110,
      "chip": "ym2612"
    },
    {
      "channel": 0,
      "note": 100,
      "start": 6.2183,
      "duration": 0.138,
      "velocity": 67,
      "chip": "ym2612"
    },
    {
      "channel": 2,
      "note": 34,
      "start": 6.2586,
      "duration": 0.1,
      "velocity": 127,
      "chip": "ym2612"
    },
    {
      "channel": 3,
      "note": 96,
      "start": 6.2608,
      "duration": 0.1406,
      "velocity": 67,
      "chip": "ym2612"
    },
    {
      "channel": 5,
      "note": 42,
      "start": 6.263,
      "duration": 0.1429,
      "velocity": 110,
      "chip": "ym2612"
    },
    {
      "channel": 0,
      "note": 98,
      "start": 6.3583,
      "duration": 0.138,
      "velocity": 67,
      "chip": "ym2612"
    },
    {
      "channel": 1,
      "note": 71,
      "start": 6.3985,
      "duration": 0.1179,
      "velocity": 109,
      "chip": "ym2612"
    },
    {
      "channel": 2,
      "note": 27,
      "start": 6.4012,
      "duration": 0.0974,
      "velocity": 93,
      "chip": "ym2612"
    },
    {
      "channel": 3,
      "note": 95,
      "start": 6.4035,
      "duration": 0.1173,
      "velocity": 67,
      "chip": "ym2612"
    },
    {
      "channel": 4,
      "note": 74,
      "start": 6.4058,
      "duration": 0.1171,
      "velocity": 109,
      "chip": "ym2612"
    },
    {
      "channel": 5,
      "note": 38,
      "start": 6.4081,
      "duration": 0.1169,
      "velocity": 110,
      "chip": "ym2612"
    },
    {
      "channel": 0,
      "note": 96,
      "start": 6.4983,
      "duration": 0.118,
      "velocity": 67,
      "chip": "ym2612"
    },
    {
      "channel": 2,
      "note": 27,
      "start": 6.5206,
      "duration": 0.098,
      "velocity": 93,
      "chip": "ym2612"
    },
    {
      "channel": 3,
      "note": 96,
      "start": 6.5228,
      "duration": 0.1385,
      "velocity": 67,
      "chip": "ym2612"
    },
    {
      "channel": 0,
      "note": 95,
      "start": 6.6184,
      "duration": 0.138,
      "velocity": 67,
      "chip": "ym2612"
    },
    {
      "channel": 1,
      "note": 71,
      "start": 6.6584,
      "duration": 0.138,
      "velocity": 109,
      "chip": "ym2612"
    },
    {
      "channel": 2,
      "note": 35,
      "start": 6.6611,
      "duration": 0.0975,
      "velocity": 127,
      "chip": "ym2612"
    },
    {
      "channel": 3,
      "note": 98,
      "start": 6.6632,
      "duration": 0.1375,
      "velocity": 67,
      "chip": "ym2612"
    },
    {
      "channel": 4,
      "note": 74,
      "start": 6.6654,
      "duration": 0.1375,
      "velocity": 109,
      "chip": "ym2612"
    },
    {
      "channel": 5,
      "note": 38,
      "start": 6.6676,
      "duration": 0.1374,
      "velocity": 110,
      "chip": "ym2612"
    },
    {
      "channel": 0,
      "note": 96,
      "start": 6.7583,
      "duration": 0.138,
      "velocity": 67,
      "chip": "ym2612"
    },
    {
      "channel": 2,
      "note": 34,
      "start": 6.8006,
      "duration": 0.098,
      "velocity": 127,
      "chip": "ym2612"
    },
    {
      "channel": 3,
      "note": 100,
      "start": 6.8028,
      "duration": 0.1185,
      "velocity": 67,
      "chip": "ym2612"
    },
    {
      "channel": 0,
      "note": 98,
      "start": 6.8983,
      "duration": 0.118,
      "velocity": 67,
      "chip": "ym2612"
    },
    {
      "channel": 1,
      "note": 71,
      "start": 6.9184,
      "duration": 0.138,
      "velocity": 109,
      "chip": "ym2612"
    },
    {
      "channel": 2,
      "note": 27,
      "start": 6.9211,
      "duration": 0.0975,
      "velocity": 93,
      "chip": "ym2612"
    },
    {
      "channel": 3,
      "note": 101,
      "start": 6.9232,
      "duration": 0.1375,
      "velocity": 67,
      "chip": "ym2612"
    },
    {
      "channel": 4,
      "note": 74,
      "start": 6.9254,
      "duration": 0.1375,
      "velocity": 109,
      "chip": "ym2612"
    },
    {
      "channel": 5,
      "note": 38,
      "start": 6.9276,
      "duration": 0.1374,
      "velocity": 110,
      "chip": "ym2612"
    },
    {
      "channel": 0,
      "note": 100,
      "start": 7.0183,
      "duration": 0.138,
      "velocity": 67,
      "chip": "ym2612"
    },
    {
      "channel": 2,
      "note": 27,
      "start": 7.0606,
      "duration": 0.098,
      "velocity": 93,
      "chip": "ym2612"
    },
    {
      "channel": 3,
      "note": 100,
      "start": 7.0628,
      "duration": 0.1385,
      "velocity": 67,
      "chip": "ym2612"
    },
    {
      "channel": 0,
      "note": 101,
      "start": 7.1583,
      "duration": 0.138,
      "velocity": 67,
      "chip": "ym2612"
    },
    {
      "channel": 1,
      "note": 71,
      "start": 7.1984,
      "duration": 0.118,
      "velocity": 109,
      "chip": "ym2612"
    },
    {
      "channel": 2,
      "note": 35,
      "start": 7.2011,
      "duration": 0.0975,
      "velocity": 127,
      "chip": "ym2612"
    },
    {
      "channel": 3,
      "note": 98,
      "start": 7.2032,
      "duration": 0.1176,
      "velocity": 67,
      "chip": "ym2612"
    },
    {
      "channel": 4,
      "note": 74,
      "start": 7.2054,
      "duration": 0.1176,
      "velocity": 109,
      "chip": "ym2612"
    },
    {
      "channel": 5,
      "note": 38,
      "start": 7.2076,
      "duration": 0.1176,
      "velocity": 110,
      "chip": "ym2612"
    },
    {
      "channel": 0,
      "note": 100,
      "start": 7.2983,
      "duration": 0.118,
      "velocity": 67,
      "chip": "ym2612"
    },
    {
      "channel": 1,
      "note": 59,
      "start": 7.3184,
      "duration": 1.198,
      "velocity": 109,
      "chip": "ym2612"
    },
    {
      "channel": 2,
      "note": 34,
      "start": 7.3206,
      "duration": 0.098,
      "velocity": 127,
      "chip": "ym2612"
    },
    {
      "channel": 3,
      "note": 96,
      "start": 7.3228,
      "duration": 0.1364,
      "velocity": 67,
      "chip": "ym2612"
    },
    {
      "channel": 4,
      "note": 71,
      "start": 7.325,
      "duration": 1.199,
      "velocity": 109,
      "chip": "ym2612"
    },
    {
      "channel": 5,
      "note": 35,
      "start": 7.3271,
      "duration": 0.2739,
      "velocity": 110,
      "chip": "ym2612"
    },
    {
      "channel": 0,
      "note": 98,
      "start": 7.4183,
      "duration": 0.138,
      "velocity": 67,
      "chip": "ym2612"
    },
    {
      "channel": 2,
      "note": 27,
      "start": 7.4591,
      "duration": 0.0995,
      "velocity": 93,
      "chip": "ym2612"
    },
    {
      "channel": 3,
      "note": 95,
      "start": 7.4613,
      "duration": 0.1374,
      "velocity": 67,
      "chip": "ym2612"
    },
    {
      "channel": 0,
      "note": 96,
      "start": 7.5583,
      "duration": 0.118,
      "velocity": 67,
      "chip": "ym2612"
    },
    {
      "channel": 2,
      "note": 27,
      "start": 7.5986,
      "duration": 0.0801,
      "velocity": 93,
      "chip": "ym2612"
    },
    {
      "channel": 3,
      "note": 96,
      "start": 7.6008,
      "duration": 0.1183,
      "velocity": 67,
      "chip": "ym2612"
    },
    {
      "channel": 5,
      "note": 42,
      "start": 7.603,
      "duration": 0.1184,
      "velocity": 110,
      "chip": "ym2612"
    },
    {
      "channel": 0,
      "note": 95,
      "start": 7.6784,
      "duration": 0.138,
      "velocity": 67,
      "chip": "ym2612"
    },
    {
      "channel": 2,
      "note": 35,
      "start": 7.719,
      "duration": 0.0995,
      "velocity": 127,
      "chip": "ym2612"
    },
    {
      "channel": 3,
      "note": 98,
      "start": 7.7212,
      "duration": 0.1375,
      "velocity": 67,
      "chip": "ym2612"
    },
    {
      "channel": 5,
      "note": 43,
      "start": 7.7234,
      "duration": 0.1376,
      "velocity": 110,
      "chip": "ym2612"
    },
    {
      "channel": 0,
      "note": 96,
      "start": 7.8183,
      "duration": 0.138,
      "velocity": 67,
      "chip": "ym2612"
    },
    {
      "channel": 2,
      "note": 34,
      "start": 7.8586,
      "duration": 0.1,
      "velocity": 127,
      "chip": "ym2612"
    },
    {
      "channel": 3,
      "note": 100,
      "start": 7.8608,
      "duration": 0.1184,
      "velocity": 67,
      "chip": "ym2612"
    },
    {
      "channel": 5,
      "note": 42,
      "start": 7.863,
      "duration": 0.1184,
      "velocity": 110,
      "chip": "ym2612"
    },
    {
      "channel": 0,
      "note": 98,
      "start": 7.9583,
      "duration": 0.118,
      "velocity": 67,
      "chip": "ym2612"
    },
    {
      "channel": 2,
      "note": 27,
      "start": 7.9791,
      "duration": 0.0995,
      "velocity": 93,
      "chip": "ym2612"
    },
    {
      "channel": 3,
      "note": 101,
      "start": 7.9813,
      "duration": 0.1374,
      "velocity": 67,
      "chip": "ym2612"
    },
    {
      "channel": 5,
      "note": 35,
      "start": 7.9835,
      "duration": 0.1375,
      "velocity": 110,
      "chip": "ym2612"
    },
    {
      "channel": 0,
      "note": 100,
      "start": 8.0783,
      "duration": 0.138,
      "velocity": 67,
      "chip": "ym2612"
    },
    {
      "channel": 2,
      "note": 27,
      "start": 8.1186,
      "duration": 0.1,
      "velocity": 93,
      "chip": "ym2612"
    },
    {
      "channel": 3,
      "note": 100,
      "start": 8.1208,
      "duration": 0.1383,
      "velocity": 67,
      "chip": "ym2612"
    },
    {
      "channel": 5,
      "note": 42,
      "start": 8.123,
      "duration": 0.1384,
      "velocity": 110,
      "chip": "ym2612"
    },
    {
      "channel": 0,
      "note": 101,
      "start": 8.2183,
      "duration": 0.138,
      "velocity": 67,
      "chip": "ym2612"
    },
    {
      "channel": 2,
      "note": 35,
      "start": 8.259,
      "duration": 0.0995,
      "velocity": 127,
      "chip": "ym2612"
    },
    {
      "channel": 3,
      "note": 98,
      "start": 8.2612,
      "duration": 0.1175,
      "velocity": 67,
      "chip": "ym2612"
    },
    {
      "channel": 5,
      "note": 43,
      "start": 8.2634,
      "duration": 0.1176,
      "velocity": 110,
      "chip": "ym2612"
    },
    {
      "channel": 0,
      "note": 100,
      "start": 8.3583,
      "duration": 0.118,
      "velocity": 67,
      "chip": "ym2612"
    },
    {
      "channel": 2,
      "note": 34,
      "start": 8.3786,
      "duration": 0.1,
      "velocity": 127,
      "chip": "ym2612"
    },
    {
      "channel": 3,
      "note": 96,
      "start": 8.3808,
      "duration": 0.1407,
      "velocity": 67,
      "chip": "ym2612"
    },
    {
      "channel": 5,
      "note": 42,
      "start": 8.383,
      "duration": 0.1433,
      "velocity": 110,
      "chip": "ym2612"
    },
    {
      "channel": 0,
      "note": 98,
      "start": 8.4783,
      "duration": 0.138,
      "velocity": 67,
      "chip": "ym2612"
    },
    {
      "channel": 1,
      "note": 70,
      "start": 8.5186,
      "duration": 0.1378,
      "velocity": 109,
      "chip": "ym2612"
    },
    {
      "channel": 2,
      "note": 27,
      "start": 8.5213,
      "duration": 0.0973,
      "velocity": 93,
      "chip": "ym2612"
    },
    {
      "channel": 3,
      "note": 94,
      "start": 8.5237,
      "duration": 0.137,
      "velocity": 67,
      "chip": "ym2612"
    },
    {
      "channel": 4,
      "note": 73,
      "start": 8.5262,
      "duration": 0.1367,
      "velocity": 109,
      "chip": "ym2612"
    },
    {
      "channel": 5,
      "note": 37,
      "start": 8.5287,
      "duration": 0.1364,
      "velocity": 110,
      "chip": "ym2612"
    },
    {
      "channel": 0,
      "note": 96,
      "start": 8.6183,
      "duration": 0.138,
      "velocity": 67,
      "chip": "ym2612"
    },
    {
      "channel": 2,
      "note": 27,
      "start": 8.6606,
      "duration": 0.0982,
      "velocity": 93,
      "chip": "ym2612"
    },
    {
      "channel": 3,
      "note": 96,
      "start": 8.6628,
      "duration": 0.1185,
      "velocity": 67,
      "chip": "ym2612"
    },
    {
      "channel": 0,
      "note": 94,
      "start": 8.7586,
      "duration": 0.1178,
      "velocity": 67,
      "chip": "ym2612"
    },
    {
      "channel": 1,
      "note": 70,
      "start": 8.7784,
      "duration": 0.138,
      "velocity": 109,
      "chip": "ym2612"
    },
    {
      "channel": 2,
      "note": 35,
      "start": 8.7811,
      "duration": 0.0975,
      "velocity": 127,
      "chip": "ym2612"
    },
    {
      "channel": 3,
      "note": 97,
      "start": 8.7832,
      "duration": 0.1375,
      "velocity": 67,
      "chip": "ym2612"
    },
    {
      "channel": 4,
      "note": 73,
      "start": 8.7854,
      "duration": 0.1375,
      "velocity": 109,
      "chip": "ym2612"
    },
    {
      "channel": 5,
      "note": 37,
      "start": 8.7876,
      "duration": 0.1374,
      "velocity": 110,
      "chip": "ym2612"
    },
    {
      "channel": 0,
      "note": 96,
      "start": 8.8783,
      "duration": 0.138,
      "velocity": 67,
      "chip": "ym2612"
    },
    {
      "channel": 2,
      "note": 34,
      "start": 8.9206,
      "duration": 0.098,
      "velocity": 127,
      "chip": "ym2612"
    },
    {
      "channel": 3,
      "note": 99,
      "start": 8.9228,
      "duration": 0.1385,
      "velocity": 67,
      "chip": "ym2612"
    },
    {
      "channel": 0,
      "note": 97,
      "start": 9.0183,
      "duration": 0.138,
      "velocity": 67,
      "chip": "ym2612"
    },
    {
      "channel": 1,
      "note": 70,
      "start": 9.0584,
      "duration": 0.118,
      "velocity": 109,
      "chip": "ym2612"
    },
    {
      "channel": 2,
      "note": 27,
      "start": 9.0611,
      "duration": 0.0975,
      "velocity": 93,
      "chip": "ym2612"
    },
    {
      "channel": 3,
      "note": 101,
      "start": 9.0632,
      "duration": 0.1175,
      "velocity": 67,
      "chip": "ym2612"
    },
    {
      "channel": 4,
      "note": 73,
      "start": 9.0654,
      "duration": 0.1175,
      "velocity": 109,
      "chip": "ym2612"
    },
    {
      "channel": 5,
      "note": 37,
      "start": 9.0676,
      "duration": 0.1174,
      "velocity": 110,
      "chip": "ym2612"
    },
    {
      "channel": 0,
      "note": 99,
      "start": 9.1583,
      "duration": 0.118,
      "velocity": 67,
      "chip": "ym2612"
    },
    {
      "channel": 2,
      "note": 27,
      "start": 9.1806,
      "duration": 0.098,
      "velocity": 93,
      "chip": "ym2612"
    },
    {
      "channel": 3,
      "note": 99,
      "start": 9.1828,
      "duration": 0.1385,
      "velocity": 67,
      "chip": "ym2612"
    },
    {
      "channel": 0,
      "note": 101,
      "start": 9.2783,
      "duration": 0.138,
      "velocity": 67,
      "chip": "ym2612"
    },
    {
      "channel": 1,
      "note": 70,
      "start": 9.3184,
      "duration": 0.138,
      "velocity": 109,
      "chip": "ym2612"
    },
    {
      "channel": 2,
      "note": 35,
      "start": 9.3211,
      "duration": 0.0975,
      "velocity": 127,
      "chip": "ym2612"
    },
    {
      "channel": 3,
      "note": 97,
      "start": 9.3232,
      "duration": 0.1376,
      "velocity": 67,
      "chip": "ym2612"
    },
    {
      "channel": 4,
      "note": 73,
      "start": 9.3254,
      "duration": 0.1376,
      "velocity": 109,
      "chip": "ym2612"
    },
    {
      "channel": 5,
      "note": 37,
      "start": 9.3276,
      "duration": 0.1376,
      "velocity": 110,
      "chip": "ym2612"
    },
    {
      "channel": 0,
      "note": 99,
      "start": 9.4183,
      "duration": 0.138,
      "velocity": 67,
      "chip": "ym2612"
    },
    {
      "channel": 1,
      "note": 58,
      "start": 9.4584,
      "duration": 1.178,
      "velocity": 109,
      "chip": "ym2612"
    },
    {
      "channel": 2,
      "note": 34,
      "start": 9.4606,
      "duration": 0.098,
      "velocity": 127,
      "chip": "ym2612"
    },
    {
      "channel": 3,
      "note": 96,
      "start": 9.4628,
      "duration": 0.1164,
      "velocity": 67,
      "chip": "ym2612"
    },
    {
      "channel": 4,
      "note": 70,
      "start": 9.465,
      "duration": 1.1787,
      "velocity": 109,
      "chip": "ym2612"
    },
    {
      "channel": 5,
      "note": 34,
      "start": 9.4671,
      "duration": 0.2539,
      "velocity": 110,
      "chip": "ym2612"
    },
    {
      "channel": 0,
      "note": 97,
      "start": 9.5583,
      "duration": 0.118,
      "velocity": 67,
      "chip": "ym2612"
    },
    {
      "channel": 2,
      "note": 27,
      "start": 9.5791,
      "duration": 0.0995,
      "velocity": 93,
      "chip": "ym2612"
    },
    {
      "channel": 3,
      "note": 94,
      "start": 9.5813,
      "duration": 0.1374,
      "velocity": 67,
      "chip": "ym2612"
    },
    {
      "channel": 0,
      "note": 96,
      "start": 9.6783,
      "duration": 0.138,
      "velocity": 67,
      "chip": "ym2612"
    },
    {
      "channel": 2,
      "note": 27,
      "start": 9.7186,
      "duration": 0.1001,
      "velocity": 93,
      "chip": "ym2612"
    },
    {
      "channel": 3,
      "note": 96,
      "start": 9.7208,
      "duration": 0.1383,
      "velocity": 67,
      "chip": "ym2612"
    },
    {
      "channel": 5,
      "note": 41,
      "start": 9.723,
      "duration": 0.1384,
      "velocity": 110,
      "chip": "ym2612"
    },
    {
      "channel": 0,
      "note": 94,
      "start": 9.8184,
      "duration": 0.138,
      "velocity": 67,
      "chip": "ym2612"
    },
    {
      "channel": 2,
      "note": 35,
      "start": 9.859,
      "duration": 0.0995,
      "velocity": 127,
      "chip": "ym2612"
    },
    {
      "channel": 3,
      "note": 97,
      "start": 9.8612,
      "duration": 0.1175,
      "velocity": 67,
      "chip": "ym2612"
    },
    {
      "channel": 5,
      "note": 42,
      "start": 9.8634,
      "duration": 0.1176,
      "velocity": 110,
      "chip": "ym2612"
    },
    {
      "channel": 0,
      "note": 96,
      "start": 9.9583,
      "duration": 0.118,
      "velocity": 67,
      "chip": "ym2612"
    },
    {
      "channel": 2,
      "note": 34,
      "start": 9.9786,
      "duration": 0.1,
      "velocity": 127,
      "chip": "ym2612"
    },
    {
      "channel": 3,
      "note": 99,
      "start": 9.9808,
      "duration": 0.1384,
      "velocity": 67,
      "chip": "ym2612"
    },
    {
      "channel": 5,
      "note": 41,
      "start": 9.983,
      "duration": 0.1384,
      "velocity": 110,
      "chip": "ym2612"
    },
    {
      "channel": 0,
      "note": 97,
      "start": 10.0783,
      "duration": 0.138,
      "velocity": 67,
      "chip": "ym2612"
    },
    {
      "channel": 2,
      "note": 27,
      "start": 10.1191,
      "duration": 0.0995,
      "velocity": 93,
      "chip": "ym2612"
    },
    {
      "channel": 3,
      "note": 101,
      "start": 10.1213,
      "duration": 0.1174,
      "velocity": 67,
      "chip": "ym2612"
    },
    {
      "channel": 5,
      "note": 34,
      "start": 10.1235,
      "duration": 0.1175,
      "velocity": 110,
      "chip": "ym2612"
    },
    {
      "channel": 0,
      "note": 99,
      "start": 10.2183,
      "duration": 0.118,
      "velocity": 67,
      "chip": "ym2612"
    },
    {
      "channel": 2,
      "note": 27,
      "start": 10.2386,
      "duration": 0.1,
      "velocity": 93,
      "chip": "ym2612"
    },
    {
      "channel": 3,
      "note": 99,
      "start": 10.2408,
      "duration": 0.1383,
      "velocity": 67,
      "chip": "ym2612"
    },
    {
      "channel": 5,
      "note": 41,
      "start": 10.243,
      "duration": 0.1384,
      "velocity": 110,
      "chip": "ym2612"
    },
    {
      "channel": 0,
      "note": 101,
      "start": 10.3383,
      "duration": 0.138,
      "velocity": 67,
      "chip": "ym2612"
    },
    {
      "channel": 2,
      "note": 35,
      "start": 10.379,
      "duration": 0.0995,
      "velocity": 127,
      "chip": "ym2612"
    },
    {
      "channel": 3,
      "note": 97,
      "start": 10.3812,
      "duration": 0.1375,
      "velocity": 67,
      "chip": "ym2612"
    },
    {
      "channel": 5,
      "note": 42,
      "start": 10.3834,
      "duration": 0.1376,
      "velocity": 110,
      "chip": "ym2612"
    },
    {
      "channel": 0,
      "note": 99,
      "start": 10.4783,
      "duration": 0.138,
      "velocity": 67,
      "chip": "ym2612"
    },
    {
      "channel": 2,
      "note": 34,
      "start": 10.5186,
      "duration": 0.1,
      "velocity": 127,
      "chip": "ym2612"
    },
    {
      "channel": 3,
      "note": 96,
      "start": 10.5208,
      "duration": 0.1206,
      "velocity": 67,
      "chip": "ym2612"
    },
    {
      "channel": 5,
      "note": 41,
      "start": 10.523,
      "duration": 0.1229,
      "velocity": 110,
      "chip": "ym2612"
    },
    {
      "channel": 0,
      "note": 97,
      "start": 10.6183,
      "duration": 0.118,
      "velocity": 67,
      "chip": "ym2612"
    },
    {
      "channel": 1,
      "note": 70,
      "start": 10.6385,
      "duration": 0.1379,
      "velocity": 109,
      "chip": "ym2612"
    },
    {
      "channel": 2,
      "note": 27,
      "start": 10.6412,
      "duration": 0.0974,
      "velocity": 93,
      "chip": "ym2612"
    },
    {
      "channel": 3,
      "note": 94,
      "start": 10.6435,
      "duration": 0.1373,
      "velocity": 67,
      "chip": "ym2612"
    },
    {
      "channel": 4,
      "note": 73,
      "start": 10.6458,
      "duration": 0.1371,
      "velocity": 109,
      "chip": "ym2612"
    },
    {
      "channel": 5,
      "note": 37,
      "start": 10.6481,
      "duration": 0.1369,
      "velocity": 110,
      "chip": "ym2612"
    },
    {
      "channel": 0,
      "note": 96,
      "start": 10.7383,
      "duration": 0.138,
      "velocity": 67,
      "chip": "ym2612"
    },
    {
      "channel": 2,
      "note": 27,
      "start": 10.7806,
      "duration": 0.098,
      "velocity": 93,
      "chip": "ym2612"
    },
    {
      "channel": 3,
      "note": 96,
      "start": 10.7828,
      "duration": 0.1385,
      "velocity": 67,
      "chip": "ym2612"
    },
    {
      "channel": 0,
      "note": 94,
      "start": 10.8785,
      "duration": 0.1379,
      "velocity": 67,
      "chip": "ym2612"
    },
    {
      "channel": 1,
      "note": 70,
      "start": 10.9184,
      "duration": 0.118,
      "velocity": 109,
      "chip": "ym2612"
    },
    {
      "channel": 2,
      "note": 35,
      "start": 10.9211,
      "duration": 0.0975,
      "velocity": 127,
      "chip": "ym2612"
    },
    {
      "channel": 3,
      "note": 97,
      "start": 10.9232,
      "duration": 0.1175,
      "velocity": 67,
      "chip": "ym2612"
    },
    {
      "channel": 4,
      "note": 73,
      "start": 10.9254,
      "duration": 0.1175,
      "velocity": 109,
      "chip": "ym2612"
    },
    {
      "channel": 5,
      "note": 37,
      "start": 10.9276,
      "duration": 0.1174,
      "velocity": 110,
      "chip": "ym2612"
    },
    {
      "channel": 0,
      "note": 96,
      "start": 11.0183,
      "duration": 0.118,
      "velocity": 67,
      "chip": "ym2612"
    },
    {
      "channel": 2,
      "note": 34,
      "start": 11.0406,
      "duration": 0.098,
      "velocity": 127,
      "chip": "ym2612"
    },
    {
      "channel": 3,
      "note": 99,
      "start": 11.0428,
      "duration": 0.1385,
      "velocity": 67,
      "chip": "ym2612"
    },
    {
      "channel": 0,
      "note": 97,
      "start": 11.1383,
      "duration": 0.138,
      "velocity": 67,
      "chip": "ym2612"
    },
    {
      "channel": 1,
      "note": 70,
      "start": 11.1784,
      "duration": 0.138,
      "velocity": 109,
      "chip": "ym2612"
    },
    {
      "channel": 2,
      "note": 27,
      "start": 11.1811,
      "duration": 0.0975,
      "velocity": 93,
      "chip": "ym2612"
    },
    {
      "channel": 3,
      "note": 101,
      "start": 11.1832,
      "duration": 0.1375,
      "velocity": 67,
      "chip": "ym2612"
    },
    {
      "channel": 4,
      "note": 73,
      "start": 11.1854,
      "duration": 0.1375,
      "velocity": 109,
      "chip": "ym2612"
    },
    {
      "channel": 5,
      "note": 37,
      "start": 11.1876,
      "duration": 0.1374,
      "velocity": 110,
      "chip": "ym2612"
    },
    {
      "channel": 0,
      "note": 99,
      "start": 11.2783,
      "duration": 0.138,
      "velocity": 67,
      "chip": "ym2612"
    },
    {
      "channel": 2,
      "note": 27,
      "start": 11.3206,
      "duration": 0.098,
      "velocity": 93,
      "chip": "ym2612"
    },
    {
      "channel": 3,
      "note": 99,
      "start": 11.3228,
      "duration": 0.1185,
      "velocity": 67,
      "chip": "ym2612"
    },
    {
      "channel": 0,
      "note": 101,
      "start": 11.4183,
      "duration": 0.118,
      "velocity": 67,
      "chip": "ym2612"
    },
    {
      "channel": 1,
      "note": 70,
      "start": 11.4384,
      "duration": 0.138,
      "velocity": 109,
      "chip": "ym2612"
    },
    {
      "channel": 2,
      "note": 35,
      "start": 11.4411,
      "duration": 0.0975,
      "velocity": 127,
      "chip": "ym2612"
    },
    {
      "channel": 3,
      "note": 97,
      "start": 11.4432,
      "duration": 0.1376,
      "velocity": 67,
      "chip": "ym2612"
    },
    {
      "channel": 4,
      "note": 73,
      "start": 11.4454,
      "duration": 0.1376,
      "velocity": 109,
      "chip": "ym2612"
    },
    {
      "channel": 5,
      "note": 37,
      "start": 11.4476,
      "duration": 0.1376,
      "velocity": 110,
      "chip": "ym2612"
    },
    {
      "channel": 0,
      "note": 99,
      "start": 11.5383,
      "duration": 0.138,
      "velocity": 67,
      "chip": "ym2612"
    },
    {
      "channel": 1,
      "note": 58,
      "start": 11.5784,
      "duration": 1.198,
      "velocity": 109,
      "chip": "ym2612"
    },
    {
      "channel": 2,
      "note": 34,
      "start": 11.5806,
      "duration": 0.098,
      "velocity": 127,
      "chip": "ym2612"
    },
    {
      "channel": 3,
      "note": 96,
      "start": 11.5828,
      "duration": 0.1365,
      "velocity": 67,
      "chip": "ym2612"
    },
    {
      "channel": 4,
      "note": 70,
      "start": 11.585,
      "duration": 1.2001,
      "velocity": 109,
      "chip": "ym2612"
    },
    {
      "channel": 5,
      "note": 34,
      "start": 11.5871,
      "duration": 0.2543,
      "velocity": 110,
      "chip": "ym2612"
    },
    {
      "channel": 0,
      "note": 97,
      "start": 11.6783,
      "duration": 0.138,
      "velocity": 67,
      "chip": "ym2612"
    },
    {
      "channel": 2,
      "note": 27,
      "start": 11.7192,
      "duration": 0.0994,
      "velocity": 93,
      "chip": "ym2612"
    },
    {
      "channel": 3,
      "note": 94,
      "start": 11.7215,
      "duration": 0.1177,
      "velocity": 67,
      "chip": "ym2612"
    },
    {
      "channel": 0,
      "note": 96,
      "start": 11.8183,
      "duration": 0.118,
      "velocity": 67,
      "chip": "ym2612"
    },
    {
      "channel": 2,
      "note": 35,
      "start": 11.839,
      "duration": 0.0996,
      "velocity": 127,
      "chip": "ym2612"
    },
    {
      "channel": 3,
      "note": 96,
      "start": 11.8412,
      "duration": 0.1375,
      "velocity": 67,
      "chip": "ym2612"
    },
    {
      "channel": 5,
      "note": 41,
      "start": 11.8434,
      "duration": 0.1376,
      "velocity": 110,
      "chip": "ym2612"
    },
    {
      "channel": 0,
      "note": 94,
      "start": 11.9385,
      "duration": 0.1379,
      "velocity": 67,
      "chip": "ym2612"
    },
    {
      "channel": 2,
      "note": 34,
      "start": 11.9786,
      "duration": 0.1,
      "velocity": 127,
      "chip": "ym2612"
    },
    {
      "channel": 3,
      "note": 97,
      "start": 11.9808,
      "duration": 0.1383,
      "velocity": 67,
      "chip": "ym2612"
    },
    {
      "channel": 5,
      "note": 42,
      "start": 11.983,
      "duration": 0.1383,
      "velocity": 110,
      "chip": "ym2612"
    },
    {
      "channel": 0,
      "note": 96,
      "start": 12.0783,
      "duration": 0.138,
      "velocity": 67,
      "chip": "ym2612"
    },
    {
      "channel": 2,
      "note": 27,
      "start": 12.1189,
      "duration": 0.0997,
      "velocity": 93,
      "chip": "ym2612"
    },
    {
      "channel": 3,
      "note": 99,
      "start": 12.1211,
      "duration": 0.118,
      "velocity": 67,
      "chip": "ym2612"
    },
    {
      "channel": 5,
      "note": 41,
      "start": 12.1234,
      "duration": 0.1181,
      "velocity": 110,
      "chip": "ym2612"
    },
    {
      "channel": 0,
      "note": 97,
      "start": 12.2183,
      "duration": 0.118,
      "velocity": 67,
      "chip": "ym2612"
    },
    {
      "channel": 2,
      "note": 35,
      "start": 12.239,
      "duration": 0.0995,
      "velocity": 127,
      "chip": "ym2612"
    },
    {
      "channel": 3,
      "note": 101,
      "start": 12.2412,
      "duration": 0.1375,
      "velocity": 67,
      "chip": "ym2612"
    },
    {
      "channel": 5,
      "note": 34,
      "start": 12.2434,
      "duration": 0.1376,
      "velocity": 110,
      "chip": "ym2612"
    },
    {
      "channel": 0,
      "note": 99,
      "start": 12.3383,
      "duration": 0.138,
      "velocity": 67,
      "chip": "ym2612"
    },
    {
      "channel": 2,
      "note": 34,
      "start": 12.3786,
      "duration": 0.1,
      "velocity": 127,
      "chip": "ym2612"
    },
    {
      "channel": 3,
      "note": 99,
      "start": 12.3808,
      "duration": 0.1379,
      "velocity": 67,
      "chip": "ym2612"
    },
    {
      "channel": 5,
      "note": 41,
      "start": 12.383,
      "duration": 0.138,
      "velocity": 110,
      "chip": "ym2612"
    },
    {
      "channel": 0,
      "note": 101,
      "start": 12.4783,
      "duration": 0.138,
      "velocity": 67,
      "chip": "ym2612"
    },
    {
      "channel": 2,
      "note": 35,
      "start": 12.5186,
      "duration": 0.1,
      "velocity": 127,
      "chip": "ym2612"
    },
    {
      "channel": 3,
      "note": 97,
      "start": 12.5208,
      "duration": 0.1178,
      "velocity": 67,
      "chip": "ym2612"
    },
    {
      "channel": 5,
      "note": 42,
      "start": 12.523,
      "duration": 0.1179,
      "velocity": 110,
      "chip": "ym2612"
    },
    {
      "channel": 0,
      "note": 99,
      "start": 12.6183,
      "duration": 0.118,
      "velocity": 67,
      "chip": "ym2612"
    },
    {
      "channel": 2,
      "note": 35,
      "start": 12.6385,
      "duration": 0.1001,
      "velocity": 127,
      "chip": "ym2612"
    },
    {
      "channel": 3,
      "note": 96,
      "start": 12.6407,
      "duration": 0.1413,
      "velocity": 67,
      "chip": "ym2612"
    },
    {
      "channel": 5,
      "note": 41,
      "start": 12.6429,
      "duration": 0.1451,
      "velocity": 110,
      "chip": "ym2612"
    },
    {
      "channel": 0,
      "note": 97,
      "start": 12.7383,
      "duration": 0.138,
      "velocity": 67,
      "chip": "ym2612"
    },
    {
      "channel": 2,
      "note": 27,
      "start": 12.7818,
      "duration": 0.0967,
      "velocity": 93,
      "chip": "ym2612"
    },
    {
      "channel": 3,
      "note": 69,
      "start": 12.7848,
      "duration": 0.0939,
      "velocity": 110,
      "chip": "ym2612"
    },
    {
      "channel": 4,
      "note": 45,
      "start": 12.7879,
      "duration": 0.113,
      "velocity": 117,
      "chip": "ym2612"
    },
    {
      "channel": 5,
      "note": 33,
      "start": 12.7903,
      "duration": 0.1127,
      "velocity": 110,
      "chip": "ym2612"
    },
    {
      "channel": 0,
      "note": 96,
      "start": 12.8783,
      "duration": 0.118,
      "velocity": 67,
      "chip": "ym2612"
    },
    {
      "channel": 2,
      "note": 27,
      "start": 12.8986,
      "duration": 0.1031,
      "velocity": 93,
      "chip": "ym2612"
    },
    {
      "channel": 3,
      "note": 81,
      "start": 12.9007,
      "duration": 0.1011,
      "velocity": 110,
      "chip": "ym2612"
    },
    {
      "channel": 4,
      "note": 48,
      "start": 12.9029,
      "duration": 0.138,
      "velocity": 117,
      "chip": "ym2612"
    },
    {
      "channel": 5,
      "note": 36,
      "start": 12.9051,
      "duration": 0.1379,
      "velocity": 110,
      "chip": "ym2612"
    },
    {
      "channel": 0,
      "note": 69,
      "start": 12.9992,
      "duration": 0.0971,
      "velocity": 110,
      "chip": "ym2612"
    },
    {
      "channel": 1,
      "note": 45,
      "start": 13.0015,
      "duration": 0.1369,
      "velocity": 117,
      "chip": "ym2612"
    },
    {
      "channel": 2,
      "note": 27,
      "start": 13.0386,
      "duration": 0.102,
      "velocity": 93,
      "chip": "ym2612"
    },
    {
      "channel": 3,
      "note": 69,
      "start": 13.0407,
      "duration": 0.1,
      "velocity": 110,
      "chip": "ym2612"
    },
    {
      "channel": 4,
      "note": 50,
      "start": 13.0429,
      "duration": 0.138,
      "velocity": 117,
      "chip": "ym2612"
    },
    {
      "channel": 5,
      "note": 38,
      "start": 13.0451,
      "duration": 0.1379,
      "velocity": 110,
      "chip": "ym2612"
    },
    {
      "channel": 0,
      "note": 81,
      "start": 13.1383,
      "duration": 0.0981,
      "velocity": 110,
      "chip": "ym2612"
    },
    {
      "channel": 1,
      "note": 48,
      "start": 13.1404,
      "duration": 0.138,
      "velocity": 117,
      "chip": "ym2612"
    },
    {
      "channel": 2,
      "note": 27,
      "start": 13.1786,
      "duration": 0.102,
      "velocity": 93,
      "chip": "ym2612"
    },
    {
      "channel": 3,
      "note": 81,
      "start": 13.1807,
      "duration": 0.1,
      "velocity": 110,
      "chip": "ym2612"
    },
    {
      "channel": 4,
      "note": 51,
      "start": 13.1829,
      "duration": 0.1183,
      "velocity": 117,
      "chip": "ym2612"
    },
    {
      "channel": 5,
      "note": 39,
      "start": 13.1851,
      "duration": 0.1183,
      "velocity": 110,
      "chip": "ym2612"
    },
    {
      "channel": 0,
      "note": 69,
      "start": 13.2783,
      "duration": 0.0981,
      "velocity": 110,
      "chip": "ym2612"
    },
    {
      "channel": 1,
      "note": 50,
      "start": 13.2804,
      "duration": 0.118,
      "velocity": 117,
      "chip": "ym2612"
    },
    {
      "channel": 2,
      "note": 35,
      "start": 13.299,
      "duration": 0.1016,
      "velocity": 127,
      "chip": "ym2612"
    },
    {
      "channel": 3,
      "note": 69,
      "start": 13.3011,
      "duration": 0.0996,
      "velocity": 110,
      "chip": "ym2612"
    },
    {
      "channel": 4,
      "note": 52,
      "start": 13.3033,
      "duration": 0.1376,
      "velocity": 117,
      "chip": "ym2612"
    },
    {
      "channel": 5,
      "note": 40,
      "start": 13.3055,
      "duration": 0.1376,
      "velocity": 110,
      "chip": "ym2612"
    },
    {
      "channel": 0,
      "note": 81,
      "start": 13.3983,
      "duration": 0.0981,
      "velocity": 110,
      "chip": "ym2612"
    },
    {
      "channel": 1,
      "note": 51,
      "start": 13.4004,
      "duration": 0.138,
      "velocity": 117,
      "chip": "ym2612"
    },
    {
      "channel": 2,
      "note": 34,
      "start": 13.4386,
      "duration": 0.102,
      "velocity": 127,
      "chip": "ym2612"
    },
    {
      "channel": 3,
      "note": 81,
      "start": 13.4407,
      "duration": 0.1,
      "velocity": 110,
      "chip": "ym2612"
    },
    {
      "channel": 4,
      "note": 53,
      "start": 13.4429,
      "duration": 0.1383,
      "velocity": 117,
      "chip": "ym2612"
    },
    {
      "channel": 5,
      "note": 41,
      "start": 13.4451,
      "duration": 0.1383,
      "velocity": 110,
      "chip": "ym2612"
    },
    {
      "channel": 0,
      "note": 69,
      "start": 13.5383,
      "duration": 0.0981,
      "velocity": 110,
      "chip": "ym2612"
    },
    {
      "channel": 1,
      "note": 52,
      "start": 13.5404,
      "duration": 0.138,
      "velocity": 117,
      "chip": "ym2612"
    },
    {
      "channel": 2,
      "note": 27,
      "start": 13.579,
      "duration": 0.1016,
      "velocity": 93,
      "chip": "ym2612"
    },
    {
      "channel": 3,
      "note": 69,
      "start": 13.5811,
      "duration": 0.0996,
      "velocity": 110,
      "chip": "ym2612"
    },
    {
      "channel": 4,
      "note": 52,
      "start": 13.5833,
      "duration": 0.1174,
      "velocity": 117,
      "chip": "ym2612"
    },
    {
      "channel": 5,
      "note": 40,
      "start": 13.5855,
      "duration": 0.1175,
      "velocity": 110,
      "chip": "ym2612"
    },
    {
      "channel": 0,
      "note": 81,
      "start": 13.6783,
      "duration": 0.0981,
      "velocity": 110,
      "chip": "ym2612"
    },
    {
      "channel": 1,
      "note": 53,
      "start": 13.6804,
      "duration": 0.118,
      "velocity": 117,
      "chip": "ym2612"
    },
    {
      "channel": 2,
      "note": 27,
      "start": 13.6985,
      "duration": 0.1022,
      "velocity": 93,
      "chip": "ym2612"
    },
    {
      "channel": 3,
      "note": 81,
      "start": 13.7006,
      "duration": 0.1001,
      "velocity": 110,
      "chip": "ym2612"
    },
    {
      "channel": 4,
      "note": 45,
      "start": 13.7028,
      "duration": 0.2781,
      "velocity": 117,
      "chip": "ym2612"
    },
    {
      "channel": 5,
      "note": 33,
      "start": 13.705,
      "duration": 0.2781,
      "velocity": 110,
      "chip": "ym2612"
    },
    {
      "channel": 0,
      "note": 69,
      "start": 13.7983,
      "duration": 0.0981,
      "velocity": 110,
      "chip": "ym2612"
    },
    {
      "channel": 1,
      "note": 52,
      "start": 13.8004,
      "duration": 0.138,
      "velocity": 117,
      "chip": "ym2612"
    },
    {
      "channel": 2,
      "note": 27,
      "start": 13.8386,
      "duration": 0.102,
      "velocity": 93,
      "chip": "ym2612"
    },
    {
      "channel": 3,
      "note": 69,
      "start": 13.8407,
      "duration": 0.1,
      "velocity": 110,
      "chip": "ym2612"
    },
    {
      "channel": 0,
      "note": 81,
      "start": 13.9383,
      "duration": 0.0981,
      "velocity": 110,
      "chip": "ym2612"
    },
    {
      "channel": 1,
      "note": 45,
      "start": 13.9404,
      "duration": 0.258,
      "velocity": 117,
      "chip": "ym2612"
    },
    {
      "channel": 2,
      "note": 27,
      "start": 13.9786,
      "duration": 0.0999,
      "velocity": 93,
      "chip": "ym2612"
    },
    {
      "channel": 3,
      "note": 81,
      "start": 13.9807,
      "duration": 0.098,
      "velocity": 110,
      "chip": "ym2612"
    },
    {
      "channel": 4,
      "note": 48,
      "start": 13.9829,
      "duration": 0.118,
      "velocity": 117,
      "chip": "ym2612"
    },
    {
      "channel": 5,
      "note": 36,
      "start": 13.9851,
      "duration": 0.1179,
      "velocity": 110,
      "chip": "ym2612"
    },
    {
      "channel": 0,
      "note": 69,
      "start": 14.0783,
      "duration": 0.0981,
      "velocity": 110,
      "chip": "ym2612"
    },
    {
      "channel": 2,
      "note": 27,
      "start": 14.0986,
      "duration": 0.102,
      "velocity": 93,
      "chip": "ym2612"
    },
    {
      "channel": 3,
      "note": 69,
      "start": 14.1007,
      "duration": 0.1,
      "velocity": 110,
      "chip": "ym2612"
    },
    {
      "channel": 4,
      "note": 50,
      "start": 14.1029,
      "duration": 0.138,
      "velocity": 117,
      "chip": "ym2612"
    },
    {
      "channel": 5,
      "note": 38,
      "start": 14.1051,
      "duration": 0.1379,
      "velocity": 110,
      "chip": "ym2612"
    },
    {
      "channel": 0,
      "note": 81,
      "start": 14.1983,
      "duration": 0.0981,
      "velocity": 110,
      "chip": "ym2612"
    },
    {
      "channel": 1,
      "note": 48,
      "start": 14.2004,
      "duration": 0.138,
      "velocity": 117,
      "chip": "ym2612"
    },
    {
      "channel": 2,
      "note": 27,
      "start": 14.2386,
      "duration": 0.102,
      "velocity": 93,
      "chip": "ym2612"
    },
    {
      "channel": 3,
      "note": 81,
      "start": 14.2407,
      "duration": 0.1,
      "velocity": 110,
      "chip": "ym2612"
    },
    {
      "channel": 4,
      "note": 51,
      "start": 14.2429,
      "duration": 0.1383,
      "velocity": 117,
      "chip": "ym2612"
    },
    {
      "channel": 5,
      "note": 39,
      "start": 14.2451,
      "duration": 0.1383,
      "velocity": 110,
      "chip": "ym2612"
    },
    {
      "channel": 0,
      "note": 69,
      "start": 14.3383,
      "duration": 0.0981,
      "velocity": 110,
      "chip": "ym2612"
    },
    {
      "channel": 1,
      "note": 50,
      "start": 14.3404,
      "duration": 0.138,
      "velocity": 117,
      "chip": "ym2612"
    },
    {
      "channel": 2,
      "note": 35,
      "start": 14.379,
      "duration": 0.1016,
      "velocity": 127,
      "chip": "ym2612"
    },
    {
      "channel": 3,
      "note": 69,
      "start": 14.3811,
      "duration": 0.0996,
      "velocity": 110,
      "chip": "ym2612"
    },
    {
      "channel": 4,
      "note": 52,
      "start": 14.3833,
      "duration": 0.1176,
      "velocity": 117,
      "chip": "ym2612"
    },
    {
      "channel": 5,
      "note": 40,
      "start": 14.3855,
      "duration": 0.1176,
      "velocity": 110,
      "chip": "ym2612"
    },
    {
      "channel": 0,
      "note": 81,
      "start": 14.4783,
      "duration": 0.0981,
      "velocity": 110,
      "chip": "ym2612"
    },
    {
      "channel": 1,
      "note": 51,
      "start": 14.4804,
      "duration": 0.118,
      "velocity": 117,
      "chip": "ym2612"
    },
    {
      "channel": 2,
      "note": 34,
      "start": 14.4986,
      "duration": 0.102,
      "velocity": 127,
      "chip": "ym2612"
    },
    {
      "channel": 3,
      "note": 81,
      "start": 14.5007,
      "duration": 0.1,
      "velocity": 110,
      "chip": "ym2612"
    },
    {
      "channel": 4,
      "note": 53,
      "start": 14.5029,
      "duration": 0.138,
      "velocity": 117,
      "chip": "ym2612"
    },
    {
      "channel": 5,
      "note": 41,
      "start": 14.5051,
      "duration": 0.1379,
      "velocity": 110,
      "chip": "ym2612"
    },
    {
      "channel": 0,
      "note": 69,
      "start": 14.5983,
      "duration": 0.0981,
      "velocity": 110,
      "chip": "ym2612"
    },
    {
      "channel": 1,
      "note": 52,
      "start": 14.6004,
      "duration": 0.138,
      "velocity": 117,
      "chip": "ym2612"
    },
    {
      "channel": 2,
      "note": 34,
      "start": 14.6386,
      "duration": 0.102,
      "velocity": 127,
      "chip": "ym2612"
    },
    {
      "channel": 3,
      "note": 69,
      "start": 14.6407,
      "duration": 0.1,
      "velocity": 110,
      "chip": "ym2612"
    },
    {
      "channel": 4,
      "note": 52,
      "start": 14.6429,
      "duration": 0.138,
      "velocity": 117,
      "chip": "ym2612"
    },
    {
      "channel": 5,
      "note": 40,
      "start": 14.6451,
      "duration": 0.1379,
      "velocity": 110,
      "chip": "ym2612"
    },
    {
      "channel": 0,
      "note": 81,
      "start": 14.7383,
      "duration": 0.0981,
      "velocity": 110,
      "chip": "ym2612"
    },
    {
      "channel": 1,
      "note": 53,
      "start": 14.7404,
      "duration": 0.138,
      "velocity": 117,
      "chip": "ym2612"
    },
    {
      "channel": 2,
      "note": 34,
      "start": 14.7786,
      "duration": 0.102,
      "velocity": 127,
      "chip": "ym2612"
    },
    {
      "channel": 3,
      "note": 81,
      "start": 14.7807,
      "duration": 0.1,
      "velocity": 110,
      "chip": "ym2612"
    },
    {
      "channel": 4,
      "note": 48,
      "start": 14.7829,
      "duration": 0.1186,
      "velocity": 117,
      "chip": "ym2612"
    },
    {
      "channel": 5,
      "note": 36,
      "start": 14.7851,
      "duration": 0.1187,
      "velocity": 110,
      "chip": "ym2612"
    },
    {
      "channel": 0,
      "note": 69,
      "start": 14.8783,
      "duration": 0.0981,
      "velocity": 110,
      "chip": "ym2612"
    },
    {
      "channel": 1,
      "note": 52,
      "start": 14.8804,
      "duration": 0.118,
      "velocity": 117,
      "chip": "ym2612"
    },
    {
      "channel": 2,
      "note": 27,
      "start": 14.8992,
      "duration": 0.1015,
      "velocity": 93,
      "chip": "ym2612"
    },
    {
      "channel": 3,
      "note": 69,
      "start": 14.9014,
      "duration": 0.0994,
      "velocity": 110,
      "chip": "ym2612"
    },
    {
      "channel": 4,
      "note": 45,
      "start": 14.9037,
      "duration": 0.1372,
      "velocity": 117,
      "chip": "ym2612"
    },
    {
      "channel": 5,
      "note": 33,
      "start": 14.9059,
      "duration": 0.1371,
      "velocity": 110,
      "chip": "ym2612"
    },
    {
      "channel": 0,
      "note": 81,
      "start": 14.9983,
      "duration": 0.0981,
      "velocity": 110,
      "chip": "ym2612"
    },
    {
      "channel": 1,
      "note": 48,
      "start": 15.0004,
      "duration": 0.1381,
      "velocity": 117,
      "chip": "ym2612"
    },
    {
      "channel": 2,
      "note": 27,
      "start": 15.0386,
      "duration": 0.1022,
      "velocity": 93,
      "chip": "ym2612"
    },
    {
      "channel": 3,
      "note": 81,
      "start": 15.0407,
      "duration": 0.1002,
      "velocity": 110,
      "chip": "ym2612"
    },
    {
      "channel": 4,
      "note": 48,
      "start": 15.0429,
      "duration": 0.138,
      "velocity": 117,
      "chip": "ym2612"
    },
    {
      "channel": 5,
      "note": 36,
      "start": 15.0451,
      "duration": 0.1379,
      "velocity": 110,
      "chip": "ym2612"
    },
    {
      "channel": 0,
      "note": 69,
      "start": 15.1384,
      "duration": 0.098,
      "velocity": 110,
      "chip": "ym2612"
    },
    {
      "channel": 1,
      "note": 45,
      "start": 15.1407,
      "duration": 0.1378,
      "velocity": 117,
      "chip": "ym2612"
    },
    {
      "channel": 2,
      "note": 27,
      "start": 15.1786,
      "duration": 0.102,
      "velocity": 93,
      "chip": "ym2612"
    },
    {
      "channel": 3,
      "note": 69,
      "start": 15.1807,
      "duration": 0.1,
      "velocity": 110,
      "chip": "ym2612"
    },
    {
      "channel": 4,
      "note": 50,
      "start": 15.1829,
      "duration": 0.118,
      "velocity": 117,
      "chip": "ym2612"
    },
    {
      "channel": 5,
      "note": 38,
      "start": 15.1851,
      "duration": 0.1179,
      "velocity": 110,
      "chip": "ym2612"
    },
    {
      "channel": 0,
      "note": 81,
      "start": 15.2783,
      "duration": 0.0781,
      "velocity": 110,
      "chip": "ym2612"
    },
    {
      "channel": 1,
      "note": 48,
      "start": 15.2804,
      "duration": 0.118,
      "velocity": 117,
      "chip": "ym2612"
    },
    {
      "channel": 2,
      "note": 27,
      "start": 15.2986,
      "duration": 0.102,
      "velocity": 93,
      "chip": "ym2612"
    },
    {
      "channel": 3,
      "note": 81,
      "start": 15.3007,
      "duration": 0.1,
      "velocity": 110,
      "chip": "ym2612"
    },
    {
      "channel": 4,
      "note": 51,
      "start": 15.3029,
      "duration": 0.1383,
      "velocity": 117,
      "chip": "ym2612"
    },
    {
      "channel": 5,
      "note": 39,
      "start": 15.3051,
      "duration": 0.1383,
      "velocity": 110,
      "chip": "ym2612"
    },
    {
      "channel": 0,
      "note": 69,
      "start": 15.3983,
      "duration": 0.0981,
      "velocity": 110,
      "chip": "ym2612"
    },
    {
      "channel": 1,
      "note": 50,
      "start": 15.4004,
      "duration": 0.138,
      "velocity": 117,
      "chip": "ym2612"
    },
    {
      "channel": 2,
      "note": 35,
      "start": 15.439,
      "duration": 0.1016,
      "velocity": 127,
      "chip": "ym2612"
    },
    {
      "channel": 3,
      "note": 69,
      "start": 15.4411,
      "duration": 0.0996,
      "velocity": 110,
      "chip": "ym2612"
    },
    {
      "channel": 4,
      "note": 52,
      "start": 15.4433,
      "duration": 0.1176,
      "velocity": 117,
      "chip": "ym2612"
    },
    {
      "channel": 5,
      "note": 40,
      "start": 15.4455,
      "duration": 0.1176,
      "velocity": 110,
      "chip": "ym2612"
    },
    {
      "channel": 0,
      "note": 81,
      "start": 15.5383,
      "duration": 0.0981,
      "velocity": 110,
      "chip": "ym2612"
    },
    {
      "channel": 1,
      "note": 51,
      "start": 15.5404,
      "duration": 0.118,
      "velocity": 117,
      "chip": "ym2612"
    },
    {
      "channel": 2,
      "note": 34,
      "start": 15.5586,
      "duration": 0.102,
      "velocity": 127,
      "chip": "ym2612"
    },
    {
      "channel": 3,
      "note": 81,
      "start": 15.5607,
      "duration": 0.1,
      "velocity": 110,
      "chip": "ym2612"
    },
    {
      "channel": 4,
      "note": 53,
      "start": 15.5629,
      "duration": 0.1383,
      "velocity": 117,
      "chip": "ym2612"
    },
    {
      "channel": 5,
      "note": 41,
      "start": 15.5651,
      "duration": 0.1383,
      "velocity": 110,
      "chip": "ym2612"
    },
    {
      "channel": 0,
      "note": 69,
      "start": 15.6583,
      "duration": 0.0981,
      "velocity": 110,
      "chip": "ym2612"
    },
    {
      "channel": 1,
      "note": 52,
      "start": 15.6604,
      "duration": 0.138,
      "velocity": 117,
      "chip": "ym2612"
    },
    {
      "channel": 2,
      "note": 27,
      "start": 15.699,
      "duration": 0.1016,
      "velocity": 93,
      "chip": "ym2612"
    },
    {
      "channel": 3,
      "note": 69,
      "start": 15.7011,
      "duration": 0.0996,
      "velocity": 110,
      "chip": "ym2612"
    },
    {
      "channel": 4,
      "note": 52,
      "start": 15.7033,
      "duration": 0.1374,
      "velocity": 117,
      "chip": "ym2612"
    },
    {
      "channel": 5,
      "note": 40,
      "start": 15.7055,
      "duration": 0.1374,
      "velocity": 110,
      "chip": "ym2612"
    },
    {
      "channel": 0,
      "note": 81,
      "start": 15.7983,
      "duration": 0.0981,
      "velocity": 110,
      "chip": "ym2612"
    },
    {
      "channel": 1,
      "note": 53,
      "start": 15.8004,
      "duration": 0.138,
      "velocity": 117,
      "chip": "ym2612"
    },
    {
      "channel": 2,
      "note": 27,
      "start": 15.8385,
      "duration": 0.1022,
      "velocity": 93,
      "chip": "ym2612"
    },
    {
      "channel": 3,
      "note": 81,
      "start": 15.8406,
      "duration": 0.1001,
      "velocity": 110,
      "chip": "ym2612"
    },
    {
      "channel": 4,
      "note": 45,
      "start": 15.8428,
      "duration": 0.2581,
      "velocity": 117,
      "chip": "ym2612"
    },
    {
      "channel": 5,
      "note": 33,
      "start": 15.845,
      "duration": 0.2581,
      "velocity": 110,
      "chip": "ym2612"
    },
    {
      "channel": 0,
      "note": 69,
      "start": 15.9383,
      "duration": 0.0981,
      "velocity": 110,
      "chip": "ym2612"
    },
    {
      "channel": 1,
      "note": 52,
      "start": 15.9404,
      "duration": 0.118,
      "velocity": 117,
      "chip": "ym2612"
    },
    {
      "channel": 2,
      "note": 27,
      "start": 15.9586,
      "duration": 0.102,
      "velocity": 93,
      "chip": "ym2612"
    },
    {
      "channel": 3,
      "note": 69,
      "start": 15.9607,
      "duration": 0.1,
      "velocity": 110,
      "chip": "ym2612"
    },
    {
      "channel": 0,
      "note": 81,
      "start": 16.0583,
      "duration": 0.0981,
      "velocity": 110,
      "chip": "ym2612"
    },
    {
      "channel": 1,
      "note": 45,
      "start": 16.0604,
      "duration": 0.278,
      "velocity": 117,
      "chip": "ym2612"
    },
    {
      "channel": 2,
      "note": 27,
      "start": 16.0986,
      "duration": 0.0999,
      "velocity": 93,
      "chip": "ym2612"
    },
    {
      "channel": 3,
      "note": 81,
      "start": 16.1007,
      "duration": 0.098,
      "velocity": 110,
      "chip": "ym2612"
    },
    {
      "channel": 4,
      "note": 48,
      "start": 16.1029,
      "duration": 0.138,
      "velocity": 117,
      "chip": "ym2612"
    },
    {
      "channel": 5,
      "note": 36,
      "start": 16.1051,
      "duration": 0.1379,
      "velocity": 110,
      "chip": "ym2612"
    },
    {
      "channel": 0,
      "note": 69,
      "start": 16.1983,
      "duration": 0.0981,
      "velocity": 110,
      "chip": "ym2612"
    },
    {
      "channel": 2,
      "note": 27,
      "start": 16.2386,
      "duration": 0.102,
      "velocity": 93,
      "chip": "ym2612"
    },
    {
      "channel": 3,
      "note": 69,
      "start": 16.2407,
      "duration": 0.1,
      "velocity": 110,
      "chip": "ym2612"
    },
    {
      "channel": 4,
      "note": 50,
      "start": 16.2429,
      "duration": 0.118,
      "velocity": 117,
      "chip": "ym2612"
    },
    {
      "channel": 5,
      "note": 38,
      "start": 16.2451,
      "duration": 0.1179,
      "velocity": 110,
      "chip": "ym2612"
    },
    {
      "channel": 0,
      "note": 81,
      "start": 16.3383,
      "duration": 0.0981,
      "velocity": 110,
      "chip": "ym2612"
    },
    {
      "channel": 1,
      "note": 48,
      "start": 16.3404,
      "duration": 0.118,
      "velocity": 117,
      "chip": "ym2612"
    },
    {
      "channel": 2,
      "note": 27,
      "start": 16.3586,
      "duration": 0.102,
      "velocity": 93,
      "chip": "ym2612"
    },
    {
      "channel": 3,
      "note": 81,
      "start": 16.3607,
      "duration": 0.1,
      "velocity": 110,
      "chip": "ym2612"
    },
    {
      "channel": 4,
      "note": 51,
      "start": 16.3629,
      "duration": 0.1383,
      "velocity": 117,
      "chip": "ym2612"
    },
    {
      "channel": 5,
      "note": 39,
      "start": 16.3651,
      "duration": 0.1383,
      "velocity": 110,
      "chip": "ym2612"
    },
    {
      "channel": 0,
      "note": 69,
      "start": 16.4583,
      "duration": 0.0981,
      "velocity": 110,
      "chip": "ym2612"
    },
    {
      "channel": 1,
      "note": 50,
      "start": 16.4604,
      "duration": 0.138,
      "velocity": 117,
      "chip": "ym2612"
    },
    {
      "channel": 2,
      "note": 35,
      "start": 16.499,
      "duration": 0.1016,
      "velocity": 127,
      "chip": "ym2612"
    },
    {
      "channel": 3,
      "note": 69,
      "start": 16.5011,
      "duration": 0.0996,
      "velocity": 110,
      "chip": "ym2612"
    },
    {
      "channel": 4,
      "note": 52,
      "start": 16.5033,
      "duration": 0.1376,
      "velocity": 117,
      "chip": "ym2612"
    },
    {
      "channel": 5,
      "note": 40,
      "start": 16.5055,
      "duration": 0.1376,
      "velocity": 110,
      "chip": "ym2612"
    },
    {
      "channel": 0,
      "note": 81,
      "start": 16.5983,
      "duration": 0.0981,
      "velocity": 110,
      "chip": "ym2612"
    },
    {
      "channel": 1,
      "note": 51,
      "start": 16.6004,
      "duration": 0.138,
      "velocity": 117,
      "chip": "ym2612"
    },
    {
      "channel": 2,
      "note": 34,
      "start": 16.6386,
      "duration": 0.102,
      "velocity": 127,
      "chip": "ym2612"
    },
    {
      "channel": 3,
      "note": 81,
      "start": 16.6407,
      "duration": 0.1,
      "velocity": 110,
      "chip": "ym2612"
    },
    {
      "channel": 4,
      "note": 53,
      "start": 16.6429,
      "duration": 0.118,
      "velocity": 117,
      "chip": "ym2612"
    },
    {
      "channel": 5,
      "note": 41,
      "start": 16.6451,
      "duration": 0.1179,
      "velocity": 110,
      "chip": "ym2612"
    },
    {
      "channel": 0,
      "note": 69,
      "start": 16.7383,
      "duration": 0.0981,
      "velocity": 110,
      "chip": "ym2612"
    },
    {
      "channel": 1,
      "note": 52,
      "start": 16.7404,
      "duration": 0.118,
      "velocity": 117,
      "chip": "ym2612"
    },
    {
      "channel": 2,
      "note": 34,
      "start": 16.7586,
      "duration": 0.102,
      "velocity": 127,
      "chip": "ym2612"
    },
    {
      "channel": 3,
      "note": 69,
      "start": 16.7607,
      "duration": 0.1,
      "velocity": 110,
      "chip": "ym2612"
    },
    {
      "channel": 4,
      "note": 52,
      "start": 16.7629,
      "duration": 0.138,
      "velocity": 117,
      "chip": "ym2612"
    },
    {
      "channel": 5,
      "note": 40,
      "start": 16.7651,
      "duration": 0.1379,
      "velocity": 110,
      "chip": "ym2612"
    },
    {
      "channel": 0,
      "note": 81,
      "start": 16.8583,
      "duration": 0.0981,
      "velocity": 110,
      "chip": "ym2612"
    },
    {
      "channel": 1,
      "note": 53,
      "start": 16.8604,
      "duration": 0.138,
      "velocity": 117,
      "chip": "ym2612"
    },
    {
      "channel": 2,
      "note": 34,
      "start": 16.8986,
      "duration": 0.102,
      "velocity": 127,
      "chip": "ym2612"
    },
    {
      "channel": 3,
      "note": 81,
      "start": 16.9007,
      "duration": 0.1,
      "velocity": 110,
      "chip": "ym2612"
    },
    {
      "channel": 4,
      "note": 48,
      "start": 16.9029,
      "duration": 0.1387,
      "velocity": 117,
      "chip": "ym2612"
    },
    {
      "channel": 5,
      "note": 36,
      "start": 16.9051,
      "duration": 0.139,
      "velocity": 110,
      "chip": "ym2612"
    },
    {
      "channel": 0,
      "note": 69,
      "start": 16.9983,
      "duration": 0.0981,
      "velocity": 110,
      "chip": "ym2612"
    },
    {
      "channel": 1,
      "note": 52,
      "start": 17.0004,
      "duration": 0.138,
      "velocity": 117,
      "chip": "ym2612"
    },
    {
      "channel": 2,
      "note": 27,
      "start": 17.0392,
      "duration": 0.1015,
      "velocity": 93,
      "chip": "ym2612"
    },
    {
      "channel": 3,
      "note": 71,
      "start": 17.0415,
      "duration": 0.0992,
      "velocity": 110,
      "chip": "ym2612"
    },
    {
      "channel": 4,
      "note": 47,
      "start": 17.0439,
      "duration": 0.1169,
      "velocity": 117,
      "chip": "ym2612"
    },
    {
      "channel": 5,
      "note": 35,
      "start": 17.0464,
      "duration": 0.1166,
      "velocity": 110,
      "chip": "ym2612"
    },
    {
      "channel": 0,
      "note": 81,
      "start": 17.1383,
      "duration": 0.0981,
      "velocity": 110,
      "chip": "ym2612"
    },
    {
      "channel": 1,
      "note": 48,
      "start": 17.1404,
      "duration": 0.1183,
      "velocity": 117,
      "chip": "ym2612"
    },
    {
      "channel": 2,
      "note": 27,
      "start": 17.1586,
      "duration": 0.1026,
      "velocity": 93,
      "chip": "ym2612"
    },
    {
      "channel": 3,
      "note": 83,
      "start": 17.1607,
      "duration": 0.1005,
      "velocity": 110,
      "chip": "ym2612"
    },
    {
      "channel": 4,
      "note": 50,
      "start": 17.1629,
      "duration": 0.138,
      "velocity": 117,
      "chip": "ym2612"
    },
    {
      "channel": 5,
      "note": 38,
      "start": 17.1651,
      "duration": 0.1379,
      "velocity": 110,
      "chip": "ym2612"
    },
    {
      "channel": 0,
      "note": 71,
      "start": 17.2585,
      "duration": 0.0978,
      "velocity": 110,
      "chip": "ym2612"
    },
    {
      "channel": 1,
      "note": 47,
      "start": 17.2609,
      "duration": 0.1375,
      "velocity": 117,
      "chip": "ym2612"
    },
    {
      "channel": 2,
      "note": 27,
      "start": 17.2986,
      "duration": 0.102,
      "velocity": 93,
      "chip": "ym2612"
    },
    {
      "channel": 3,
      "note": 71,
      "start": 17.3007,
      "duration": 0.1,
      "velocity": 110,
      "chip": "ym2612"
    },
    {
      "channel": 4,
      "note": 52,
      "start": 17.3029,
      "duration": 0.138,
      "velocity": 117,
      "chip": "ym2612"
    },
    {
      "channel": 5,
      "note": 40,
      "start": 17.3051,
      "duration": 0.1379,
      "velocity": 110,
      "chip": "ym2612"
    },
    {
      "channel": 0,
      "note": 83,
      "start": 17.3983,
      "duration": 0.0981,
      "velocity": 110,
      "chip": "ym2612"
    },
    {
      "channel": 1,
      "note": 50,
      "start": 17.4004,
      "duration": 0.138,
      "velocity": 117,
      "chip": "ym2612"
    },
    {
      "channel": 2,
      "note": 27,
      "start": 17.4386,
      "duration": 0.102,
      "velocity": 93,
      "chip": "ym2612"
    },
    {
      "channel": 3,
      "note": 83,
      "start": 17.4407,
      "duration": 0.1,
      "velocity": 110,
      "chip": "ym2612"
    },
    {
      "channel": 4,
      "note": 53,
      "start": 17.4429,
      "duration": 0.1183,
      "velocity": 117,
      "chip": "ym2612"
    },
    {
      "channel": 5,
      "note": 41,
      "start": 17.4451,
      "duration": 0.1183,
      "velocity": 110,
      "chip": "ym2612"
    },
    {
      "channel": 0,
      "note": 71,
      "start": 17.5383,
      "duration": 0.0981,
      "velocity": 110,
      "chip": "ym2612"
    },
    {
      "channel": 1,
      "note": 52,
      "start": 17.5404,
      "duration": 0.118,
      "velocity": 117,
      "chip": "ym2612"
    },
    {
      "channel": 2,
      "note": 35,
      "start": 17.559,
      "duration": 0.1016,
      "velocity": 127,
      "chip": "ym2612"
    },
    {
      "channel": 3,
      "note": 71,
      "start": 17.5611,
      "duration": 0.0996,
      "velocity": 110,
      "chip": "ym2612"
    },
    {
      "channel": 4,
      "note": 54,
      "start": 17.5633,
      "duration": 0.1376,
      "velocity": 117,
      "chip": "ym2612"
    },
    {
      "channel": 5,
      "note": 42,
      "start": 17.5655,
      "duration": 0.1376,
      "velocity": 110,
      "chip": "ym2612"
    },
    {
      "channel": 0,
      "note": 83,
      "start": 17.6583,
      "duration": 0.0981,
      "velocity": 110,
      "chip": "ym2612"
    },
    {
      "channel": 1,
      "note": 53,
      "start": 17.6604,
      "duration": 0.138,
      "velocity": 117,
      "chip": "ym2612"
    },
    {
      "channel": 2,
      "note": 34,
      "start": 17.6986,
      "duration": 0.102,
      "velocity": 127,
      "chip": "ym2612"
    },
    {
      "channel": 3,
      "note": 83,
      "start": 17.7007,
      "duration": 0.1,
      "velocity": 110,
      "chip": "ym2612"
    },
    {
      "channel": 4,
      "note": 55,
      "start": 17.7029,
      "duration": 0.1383,
      "velocity": 117,
      "chip": "ym2612"
    },
    {
      "channel": 5,
      "note": 43,
      "start": 17.7051,
      "duration": 0.1383,
      "velocity": 110,
      "chip": "ym2612"
    },
    {
      "channel": 0,
      "note": 71,
      "start": 17.7983,
      "duration": 0.0981,
      "velocity": 110,
      "chip": "ym2612"
    },
    {
      "channel": 1,
      "note": 54,
      "start": 17.8004,
      "duration": 0.118,
      "velocity": 117,
      "chip": "ym2612"
    },
    {
      "channel": 2,
      "note": 27,
      "start": 17.839,
      "duration": 0.0816,
      "velocity": 93,
      "chip": "ym2612"
    },
    {
      "channel": 3,
      "note": 71,
      "start": 17.8411,
      "duration": 0.0796,
      "velocity": 110,
      "chip": "ym2612"
    },
    {
      "channel": 4,
      "note": 54,
      "start": 17.8433,
      "duration": 0.1174,
      "velocity": 117,
      "chip": "ym2612"
    },
    {
      "channel": 5,
      "note": 42,
      "start": 17.8455,
      "duration": 0.1174,
      "velocity": 110,
      "chip": "ym2612"
    },
    {
      "channel": 0,
      "note": 83,
      "start": 17.9183,
      "duration": 0.0981,
      "velocity": 110,
      "chip": "ym2612"
    },
    {
      "channel": 1,
      "note": 55,
      "start": 17.9204,
      "duration": 0.138,
      "velocity": 117,
      "chip": "ym2612"
    },
    {
      "channel": 2,
      "note": 27,
      "start": 17.9585,
      "duration": 0.1022,
      "velocity": 93,
      "chip": "ym2612"
    },
    {
      "channel": 3,
      "note": 83,
      "start": 17.9606,
      "duration": 0.1001,
      "velocity": 110,
      "chip": "ym2612"
    },
    {
      "channel": 4,
      "note": 47,
      "start": 17.9628,
      "duration": 0.2581,
      "velocity": 117,
      "chip": "ym2612"
    },
    {
      "channel": 5,
      "note": 35,
      "start": 17.965,
      "duration": 0.2581,
      "velocity": 110,
      "chip": "ym2612"
    },
    {
      "channel": 0,
      "note": 71,
      "start": 18.0583,
      "duration": 0.0981,
      "velocity": 110,
      "chip": "ym2612"
    },
    {
      "channel": 1,
      "note": 54,
      "start": 18.0604,
      "duration": 0.138,
      "velocity": 117,
      "chip": "ym2612"
    },
    {
      "channel": 2,
      "note": 27,
      "start": 18.0986,
      "duration": 0.102,
      "velocity": 93,
      "chip": "ym2612"
    },
    {
      "channel": 3,
      "note": 71,
      "start": 18.1007,
      "duration": 0.1,
      "velocity": 110,
      "chip": "ym2612"
    },
    {
      "channel": 0,
      "note": 83,
      "start": 18.1983,
      "duration": 0.0981,
      "velocity": 110,
      "chip": "ym2612"
    },
    {
      "channel": 1,
      "note": 47,
      "start": 18.2004,
      "duration": 0.258,
      "velocity": 117,
      "chip": "ym2612"
    },
    {
      "channel": 2,
      "note": 27,
      "start": 18.2186,
      "duration": 0.0999,
      "velocity": 93,
      "chip": "ym2612"
    },
    {
      "channel": 3,
      "note": 83,
      "start": 18.2207,
      "duration": 0.098,
      "velocity": 110,
      "chip": "ym2612"
    },
    {
      "channel": 4,
      "note": 50,
      "start": 18.2229,
      "duration": 0.138,
      "velocity": 117,
      "chip": "ym2612"
    },
    {
      "channel": 5,
      "note": 38,
      "start": 18.2251,
      "duration": 0.1379,
      "velocity": 110,
      "chip": "ym2612"
    },
    {
      "channel": 0,
      "note": 71,
      "start": 18.3183,
      "duration": 0.0981,
      "velocity": 110,
      "chip": "ym2612"
    },
    {
      "channel": 2,
      "note": 27,
      "start": 18.3586,
      "duration": 0.102,
      "velocity": 93,
      "chip": "ym2612"
    },
    {
      "channel": 3,
      "note": 71,
      "start": 18.3607,
      "duration": 0.1,
      "velocity": 110,
      "chip": "ym2612"
    },
    {
      "channel": 4,
      "note": 52,
      "start": 18.3629,
      "duration": 0.138,
      "velocity": 117,
      "chip": "ym2612"
    },
    {
      "channel": 5,
      "note": 40,
      "start": 18.3651,
      "duration": 0.1379,
      "velocity": 110,
      "chip": "ym2612"
    },
    {
      "channel": 0,
      "note": 83,
      "start": 18.4583,
      "duration": 0.0981,
      "velocity": 110,
      "chip": "ym2612"
    },
    {
      "channel": 1,
      "note": 50,
      "start": 18.4604,
      "duration": 0.138,
      "velocity": 117,
      "chip": "ym2612"
    },
    {
      "channel": 2,
      "note": 27,
      "start": 18.4986,
      "duration": 0.102,
      "velocity": 93,
      "chip": "ym2612"
    },
    {
      "channel": 3,
      "note": 83,
      "start": 18.5007,
      "duration": 0.1,
      "velocity": 110,
      "chip": "ym2612"
    },
    {
      "channel": 4,
      "note": 53,
      "start": 18.5029,
      "duration": 0.1183,
      "velocity": 117,
      "chip": "ym2612"
    },
    {
      "channel": 5,
      "note": 41,
      "start": 18.5051,
      "duration": 0.1183,
      "velocity": 110,
      "chip": "ym2612"
    },
    {
      "channel": 0,
      "note": 71,
      "start": 18.5983,
      "duration": 0.0981,
      "velocity": 110,
      "chip": "ym2612"
    },
    {
      "channel": 1,
      "note": 52,
      "start": 18.6004,
      "duration": 0.118,
      "velocity": 117,
      "chip": "ym2612"
    },
    {
      "channel": 2,
      "note": 35,
      "start": 18.619,
      "duration": 0.1016,
      "velocity": 127,
      "chip": "ym2612"
    },
    {
      "channel": 3,
      "note": 71,
      "start": 18.6211,
      "duration": 0.0996,
      "velocity": 110,
      "chip": "ym2612"
    },
    {
      "channel": 4,
      "note": 54,
      "start": 18.6233,
      "duration": 0.1376,
      "velocity": 117,
      "chip": "ym2612"
    },
    {
      "channel": 5,
      "note": 42,
      "start": 18.6255,
      "duration": 0.1376,
      "velocity": 110,
      "chip": "ym2612"
    },
    {
      "channel": 0,
      "note": 83,
      "start": 18.7183,
      "duration": 0.0981,
      "velocity": 110,
      "chip": "ym2612"
    },
    {
      "channel": 1,
      "note": 53,
      "start": 18.7204,
      "duration": 0.138,
      "velocity": 117,
      "chip": "ym2612"
    },
    {
      "channel": 2,
      "note": 34,
      "start": 18.7586,
      "duration": 0.102,
      "velocity": 127,
      "chip": "ym2612"
    },
    {
      "channel": 3,
      "note": 83,
      "start": 18.7607,
      "duration": 0.1,
      "velocity": 110,
      "chip": "ym2612"
    },
    {
      "channel": 4,
      "note": 55,
      "start": 18.7629,
      "duration": 0.138,
      "velocity": 117,
      "chip": "ym2612"
    },
    {
      "channel": 5,
      "note": 43,
      "start": 18.7651,
      "duration": 0.1379,
      "velocity": 110,
      "chip": "ym2612"
    },
    {
      "channel": 0,
      "note": 71,
      "start": 18.8583,
      "duration": 0.0981,
      "velocity": 110,
      "chip": "ym2612"
    },
    {
      "channel": 1,
      "note": 54,
      "start": 18.8604,
      "duration": 0.138,
      "velocity": 117,
      "chip": "ym2612"
    },
    {
      "channel": 2,
      "note": 34,
      "start": 18.8986,
      "duration": 0.102,
      "velocity": 127,
      "chip": "ym2612"
    },
    {
      "channel": 3,
      "note": 71,
      "start": 18.9007,
      "duration": 0.1,
      "velocity": 110,
      "chip": "ym2612"
    },
    {
      "channel": 4,
      "note": 54,
      "start": 18.9029,
      "duration": 0.118,
      "velocity": 117,
      "chip": "ym2612"
    },
    {
      "channel": 5,
      "note": 42,
      "start": 18.9051,
      "duration": 0.1179,
      "velocity": 110,
      "chip": "ym2612"
    },
    {
      "channel": 0,
      "note": 83,
      "start": 18.9983,
      "duration": 0.0981,
      "velocity": 110,
      "chip": "ym2612"
    },
    {
      "channel": 1,
      "note": 55,
      "start": 19.0004,
      "duration": 0.118,
      "velocity": 117,
      "chip": "ym2612"
    },
    {
      "channel": 2,
      "note": 34,
      "start": 19.0186,
      "duration": 0.102,
      "velocity": 127,
      "chip": "ym2612"
    },
    {
      "channel": 3,
      "note": 83,
      "start": 19.0207,
      "duration": 0.1,
      "velocity": 110,
      "chip": "ym2612"
    },
    {
      "channel": 4,
      "note": 50,
      "start": 19.0229,
      "duration": 0.1386,
      "velocity": 117,
      "chip": "ym2612"
    },
    {
      "channel": 5,
      "note": 38,
      "start": 19.0251,
      "duration": 0.1387,
      "velocity": 110,
      "chip": "ym2612"
    },
    {
      "channel": 0,
      "note": 71,
      "start": 19.1183,
      "duration": 0.0981,
      "velocity": 110,
      "chip": "ym2612"
    },
    {
      "channel": 1,
      "note": 54,
      "start": 19.1204,
      "duration": 0.138,
      "velocity": 117,
      "chip": "ym2612"
    },
    {
      "channel": 2,
      "note": 27,
      "start": 19.1592,
      "duration": 0.1015,
      "velocity": 93,
      "chip": "ym2612"
    },
    {
      "channel": 3,
      "note": 71,
      "start": 19.1614,
      "duration": 0.0994,
      "velocity": 110,
      "chip": "ym2612"
    },
    {
      "channel": 4,
      "note": 47,
      "start": 19.1637,
      "duration": 0.1372,
      "velocity": 117,
      "chip": "ym2612"
    },
    {
      "channel": 5,
      "note": 35,
      "start": 19.1659,
      "duration": 0.1371,
      "velocity": 110,
      "chip": "ym2612"
    },
    {
      "channel": 0,
      "note": 83,
      "start": 19.2583,
      "duration": 0.0981,
      "velocity": 110,
      "chip": "ym2612"
    },
    {
      "channel": 1,
      "note": 50,
      "start": 19.2604,
      "duration": 0.1381,
      "velocity": 117,
      "chip": "ym2612"
    },
    {
      "channel": 2,
      "note": 27,
      "start": 19.2986,
      "duration": 0.1022,
      "velocity": 93,
      "chip": "ym2612"
    },
    {
      "channel": 3,
      "note": 83,
      "start": 19.3007,
      "duration": 0.1002,
      "velocity": 110,
      "chip": "ym2612"
    },
    {
      "channel": 4,
      "note": 50,
      "start": 19.3029,
      "duration": 0.118,
      "velocity": 117,
      "chip": "ym2612"
    },
    {
      "channel": 5,
      "note": 38,
      "start": 19.3051,
      "duration": 0.1179,
      "velocity": 110,
      "chip": "ym2612"
    },
    {
      "channel": 0,
      "note": 71,
      "start": 19.3984,
      "duration": 0.098,
      "velocity": 110,
      "chip": "ym2612"
    },
    {
      "channel": 1,
      "note": 47,
      "start": 19.4007,
      "duration": 0.1178,
      "velocity": 117,
      "chip": "ym2612"
    },
    {
      "channel": 2,
      "note": 27,
      "start": 19.4186,
      "duration": 0.102,
      "velocity": 93,
      "chip": "ym2612"
    },
    {
      "channel": 3,
      "note": 71,
      "start": 19.4207,
      "duration": 0.1,
      "velocity": 110,
      "chip": "ym2612"
    },
    {
      "channel": 4,
      "note": 52,
      "start": 19.4229,
      "duration": 0.138,
      "velocity": 117,
      "chip": "ym2612"
    },
    {
      "channel": 5,
      "note": 40,
      "start": 19.4251,
      "duration": 0.1379,
      "velocity": 110,
      "chip": "ym2612"
    },
    {
      "channel": 0,
      "note": 83,
      "start": 19.5183,
      "duration": 0.0981,
      "velocity": 110,
      "chip": "ym2612"
    },
    {
      "channel": 1,
      "note": 50,
      "start": 19.5204,
      "duration": 0.138,
      "velocity": 117,
      "chip": "ym2612"
    },
    {
      "channel": 2,
      "note": 27,
      "start": 19.5586,
      "duration": 0.102,
      "velocity": 93,
      "chip": "ym2612"
    },
    {
      "channel": 3,
      "note": 83,
      "start": 19.5607,
      "duration": 0.1,
      "velocity": 110,
      "chip": "ym2612"
    },
    {
      "channel": 4,
      "note": 53,
      "start": 19.5629,
      "duration": 0.1383,
      "velocity": 117,
      "chip": "ym2612"
    },
    {
      "channel": 5,
      "note": 41,
      "start": 19.5651,
      "duration": 0.1383,
      "velocity": 110,
      "chip": "ym2612"
    },
    {
      "channel": 0,
      "note": 71,
      "start": 19.6583,
      "duration": 0.0981,
      "velocity": 110,
      "chip": "ym2612"
    },
    {
      "channel": 1,
      "note": 52,
      "start": 19.6604,
      "duration": 0.138,
      "velocity": 117,
      "chip": "ym2612"
    },
    {
      "channel": 2,
      "note": 35,
      "start": 19.699,
      "duration": 0.1016,
      "velocity": 127,
      "chip": "ym2612"
    },
    {
      "channel": 3,
      "note": 71,
      "start": 19.7011,
      "duration": 0.0996,
      "velocity": 110,
      "chip": "ym2612"
    },
    {
      "channel": 4,
      "note": 54,
      "start": 19.7033,
      "duration": 0.1176,
      "velocity": 117,
      "chip": "ym2612"
    },
    {
      "channel": 5,
      "note": 42,
      "start": 19.7055,
      "duration": 0.1176,
      "velocity": 110,
      "chip": "ym2612"
    },
    {
      "channel": 0,
      "note": 83,
      "start": 19.7983,
      "duration": 0.0981,
      "velocity": 110,
      "chip": "ym2612"
    },
    {
      "channel": 1,
      "note": 53,
      "start": 19.8004,
      "duration": 0.118,
      "velocity": 117,
      "chip": "ym2612"
    },
    {
      "channel": 2,
      "note": 34,
      "start": 19.8186,
      "duration": 0.102,
      "velocity": 127,
      "chip": "ym2612"
    },
    {
      "channel": 3,
      "note": 83,
      "start": 19.8207,
      "duration": 0.1,
      "velocity": 110,
      "chip": "ym2612"
    },
    {
      "channel": 4,
      "note": 55,
      "start": 19.8229,
      "duration": 0.1383,
      "velocity": 117,
      "chip": "ym2612"
    },
    {
      "channel": 5,
      "note": 43,
      "start": 19.8251,
      "duration": 0.1383,
      "velocity": 110,
      "chip": "ym2612"
    },
    {
      "channel": 0,
      "note": 71,
      "start": 19.9183,
      "duration": 0.0981,
      "velocity": 110,
      "chip": "ym2612"
    },
    {
      "channel": 1,
      "note": 54,
      "start": 19.9204,
      "duration": 0.138,
      "velocity": 117,
      "chip": "ym2612"
    },
    {
      "channel": 2,
      "note": 27,
      "start": 19.959,
      "duration": 0.1016,
      "velocity": 93,
      "chip": "ym2612"
    },
    {
      "channel": 3,
      "note": 71,
      "start": 19.9611,
      "duration": 0.0996,
      "velocity": 110,
      "chip": "ym2612"
    },
    {
      "channel": 4,
      "note": 54,
      "start": 19.9633,
      "duration": 0.1374,
      "velocity": 117,
      "chip": "ym2612"
    },
    {
      "channel": 5,
      "note": 42,
      "start": 19.9655,
      "duration": 0.1374,
      "velocity": 110,
      "chip": "ym2612"
    },
    {
      "channel": 0,
      "note": 83,
      "start": 20.0583,
      "duration": 0.0981,
      "velocity": 110,
      "chip": "ym2612"
    },
    {
      "channel": 1,
      "note": 55,
      "start": 20.0604,
      "duration": 0.138,
      "velocity": 117,
      "chip": "ym2612"
    },
    {
      "channel": 2,
      "note": 27,
      "start": 20.0985,
      "duration": 0.1022,
      "velocity": 93,
      "chip": "ym2612"
    },
    {
      "channel": 3,
      "note": 83,
      "start": 20.1006,
      "duration": 0.1001,
      "velocity": 110,
      "chip": "ym2612"
    },
    {
      "channel": 4,
      "note": 47,
      "start": 20.1028,
      "duration": 0.2581,
      "velocity": 117,
      "chip": "ym2612"
    },
    {
      "channel": 5,
      "note": 35,
      "start": 20.105,
      "duration": 0.2581,
      "velocity": 110,
      "chip": "ym2612"
    },
    {
      "channel": 0,
      "note": 71,
      "start": 20.1983,
      "duration": 0.0981,
      "velocity": 110,
      "chip": "ym2612"
    },
    {
      "channel": 1,
      "note": 54,
      "start": 20.2004,
      "duration": 0.118,
      "velocity": 117,
      "chip": "ym2612"
    },
    {
      "channel": 2,
      "note": 27,
      "start": 20.2186,
      "duration": 0.102,
      "velocity": 93,
      "chip": "ym2612"
    },
    {
      "channel": 3,
      "note": 71,
      "start": 20.2207,
      "duration": 0.1,
      "velocity": 110,
      "chip": "ym2612"
    },
    {
      "channel": 0,
      "note": 83,
      "start": 20.3183,
      "duration": 0.0981,
      "velocity": 110,
      "chip": "ym2612"
    },
    {
      "channel": 1,
      "note": 47,
      "start": 20.3204,
      "duration": 0.258,
      "velocity": 117,
      "chip": "ym2612"
    },
    {
      "channel": 2,
      "note": 27,
      "start": 20.3586,
      "duration": 0.0999,
      "velocity": 93,
      "chip": "ym2612"
    },
    {
      "channel": 3,
      "note": 83,
      "start": 20.3607,
      "duration": 0.098,
      "velocity": 110,
      "chip": "ym2612"
    },
    {
      "channel": 4,
      "note": 50,
      "start": 20.3629,
      "duration": 0.118,
      "velocity": 117,
      "chip": "ym2612"
    },
    {
      "channel": 5,
      "note": 38,
      "start": 20.3651,
      "duration": 0.1179,
      "velocity": 110,
      "chip": "ym2612"
    },
    {
      "channel": 0,
      "note": 71,
      "start": 20.4583,
      "duration": 0.0981,
      "velocity": 110,
      "chip": "ym2612"
    },
    {
      "channel": 2,
      "note": 27,
      "start": 20.4786,
      "duration": 0.102,
      "velocity": 93,
      "chip": "ym2612"
    },
    {
      "channel": 3,
      "note": 71,
      "start": 20.4807,
      "duration": 0.1,
      "velocity": 110,
      "chip": "ym2612"
    },
    {
      "channel": 4,
      "note": 52,
      "start": 20.4829,
      "duration": 0.138,
      "velocity": 117,
      "chip": "ym2612"
    },
    {
      "channel": 5,
      "note": 40,
      "start": 20.4851,
      "duration": 0.1379,
      "velocity": 110,
      "chip": "ym2612"
    },
    {
      "channel": 0,
      "note": 83,
      "start": 20.5783,
      "duration": 0.0981,
      "velocity": 110,
      "chip": "ym2612"
    },
    {
      "channel": 1,
      "note": 50,
      "start": 20.5804,
      "duration": 0.138,
      "velocity": 117,
      "chip": "ym2612"
    },
    {
      "channel": 2,
      "note": 27,
      "start": 20.6186,
      "duration": 0.102,
      "velocity": 93,
      "chip": "ym2612"
    },
    {
      "channel": 3,
      "note": 83,
      "start": 20.6207,
      "duration": 0.1,
      "velocity": 110,
      "chip": "ym2612"
    },
    {
      "channel": 4,
      "note": 53,
      "start": 20.6229,
      "duration": 0.1383,
      "velocity": 117,
      "chip": "ym2612"
    },
    {
      "channel": 5,
      "note": 41,
      "start": 20.6251,
      "duration": 0.1383,
      "velocity": 110,
      "chip": "ym2612"
    },
    {
      "channel": 0,
      "note": 71,
      "start": 20.7183,
      "duration": 0.0981,
      "velocity": 110,
      "chip": "ym2612"
    },
    {
      "channel": 1,
      "note": 52,
      "start": 20.7204,
      "duration": 0.138,
      "velocity": 117,
      "chip": "ym2612"
    },
    {
      "channel": 2,
      "note": 35,
      "start": 20.759,
      "duration": 0.1016,
      "velocity": 127,
      "chip": "ym2612"
    },
    {
      "channel": 3,
      "note": 71,
      "start": 20.7611,
      "duration": 0.0996,
      "velocity": 110,
      "chip": "ym2612"
    },
    {
      "channel": 4,
      "note": 54,
      "start": 20.7633,
      "duration": 0.1176,
      "velocity": 117,
      "chip": "ym2612"
    },
    {
      "channel": 5,
      "note": 42,
      "start": 20.7655,
      "duration": 0.1176,
      "velocity": 110,
      "chip": "ym2612"
    },
    {
      "channel": 0,
      "note": 83,
      "start": 20.8583,
      "duration": 0.0981,
      "velocity": 110,
      "chip": "ym2612"
    },
    {
      "channel": 1,
      "note": 53,
      "start": 20.8604,
      "duration": 0.118,
      "velocity": 117,
      "chip": "ym2612"
    },
    {
      "channel": 2,
      "note": 34,
      "start": 20.8786,
      "duration": 0.102,
      "velocity": 127,
      "chip": "ym2612"
    },
    {
      "channel": 3,
      "note": 83,
      "start": 20.8807,
      "duration": 0.1,
      "velocity": 110,
      "chip": "ym2612"
    },
    {
      "channel": 4,
      "note": 55,
      "start": 20.8829,
      "duration": 0.138,
      "velocity": 117,
      "chip": "ym2612"
    },
    {
      "channel": 5,
      "note": 43,
      "start": 20.8851,
      "duration": 0.1379,
      "velocity": 110,
      "chip": "ym2612"
    },
    {
      "channel": 0,
      "note": 71,
      "start": 20.9783,
      "duration": 0.0981,
      "velocity": 110,
      "chip": "ym2612"
    },
    {
      "channel": 1,
      "note": 54,
      "start": 20.9804,
      "duration": 0.138,
      "velocity": 117,
      "chip": "ym2612"
    },
    {
      "channel": 2,
      "note": 34,
      "start": 21.0186,
      "duration": 0.102,
      "velocity": 127,
      "chip": "ym2612"
    },
    {
      "channel": 3,
      "note": 71,
      "start": 21.0207,
      "duration": 0.1,
      "velocity": 110,
      "chip": "ym2612"
    },
    {
      "channel": 4,
      "note": 54,
      "start": 21.0229,
      "duration": 0.138,
      "velocity": 117,
      "chip": "ym2612"
    },
    {
      "channel": 5,
      "note": 42,
      "start": 21.0251,
      "duration": 0.1379,
      "velocity": 110,
      "chip": "ym2612"
    },
    {
      "channel": 0,
      "note": 83,
      "start": 21.1183,
      "duration": 0.0981,
      "velocity": 110,
      "chip": "ym2612"
    },
    {
      "channel": 1,
      "note": 55,
      "start": 21.1204,
      "duration": 0.138,
      "velocity": 117,
      "chip": "ym2612"
    },
    {
      "channel": 2,
      "note": 34,
      "start": 21.1586,
      "duration": 0.102,
      "velocity": 127,
      "chip": "ym2612"
    },
    {
      "channel": 3,
      "note": 83,
      "start": 21.1607,
      "duration": 0.1,
      "velocity": 110,
      "chip": "ym2612"
    },
    {
      "channel": 4,
      "note": 50,
      "start": 21.1629,
      "duration": 0.1188,
      "velocity": 117,
      "chip": "ym2612"
    },
    {
      "channel": 5,
      "note": 38,
      "start": 21.1651,
      "duration": 0.119,
      "velocity": 110,
      "chip": "ym2612"
    },
    {
      "channel": 0,
      "note": 71,
      "start": 21.2583,
      "duration": 0.0981,
      "velocity": 110,
      "chip": "ym2612"
    },
    {
      "channel": 1,
      "note": 54,
      "start": 21.2604,
      "duration": 0.118,
      "velocity": 117,
      "chip": "ym2612"
    },
    {
      "channel": 2,
      "note": 27,
      "start": 21.2792,
      "duration": 0.1015,
      "velocity": 93,
      "chip": "ym2612"
    },
    {
      "channel": 3,
      "note": 73,
      "start": 21.2815,
      "duration": 0.0992,
      "velocity": 110,
      "chip": "ym2612"
    },
    {
      "channel": 4,
      "note": 49,
      "start": 21.284,
      "duration": 0.1369,
      "velocity": 117,
      "chip": "ym2612"
    },
    {
      "channel": 5,
      "note": 37,
      "start": 21.2864,
      "duration": 0.1366,
      "velocity": 110,
      "chip": "ym2612"
    },
    {
      "channel": 0,
      "note": 83,
      "start": 21.3783,
      "duration": 0.0981,
      "velocity": 110,
      "chip": "ym2612"
    },
    {
      "channel": 1,
      "note": 50,
      "start": 21.3804,
      "duration": 0.1383,
      "velocity": 117,
      "chip": "ym2612"
    },
    {
      "channel": 2,
      "note": 27,
      "start": 21.4186,
      "duration": 0.1026,
      "velocity": 93,
      "chip": "ym2612"
    },
    {
      "channel": 3,
      "note": 85,
      "start": 21.4207,
      "duration": 0.1005,
      "velocity": 110,
      "chip": "ym2612"
    },
    {
      "channel": 4,
      "note": 52,
      "start": 21.4229,
      "duration": 0.138,
      "velocity": 117,
      "chip": "ym2612"
    },
    {
      "channel": 5,
      "note": 40,
      "start": 21.4251,
      "duration": 0.1379,
      "velocity": 110,
      "chip": "ym2612"
    },
    {
      "channel": 0,
      "note": 73,
      "start": 21.5185,
      "duration": 0.0978,
      "velocity": 110,
      "chip": "ym2612"
    },
    {
      "channel": 1,
      "note": 49,
      "start": 21.5209,
      "duration": 0.1375,
      "velocity": 117,
      "chip": "ym2612"
    },
    {
      "channel": 2,
      "note": 27,
      "start": 21.5586,
      "duration": 0.102,
      "velocity": 93,
      "chip": "ym2612"
    },
    {
      "channel": 3,
      "note": 73,
      "start": 21.5607,
      "duration": 0.1,
      "velocity": 110,
      "chip": "ym2612"
    },
    {
      "channel": 4,
      "note": 54,
      "start": 21.5629,
      "duration": 0.118,
      "velocity": 117,
      "chip": "ym2612"
    },
    {
      "channel": 5,
      "note": 42,
      "start": 21.5651,
      "duration": 0.1179,
      "velocity": 110,
      "chip": "ym2612"
    },
    {
      "channel": 0,
      "note": 85,
      "start": 21.6583,
      "duration": 0.0981,
      "velocity": 110,
      "chip": "ym2612"
    },
    {
      "channel": 1,
      "note": 52,
      "start": 21.6604,
      "duration": 0.118,
      "velocity": 117,
      "chip": "ym2612"
    },
    {
      "channel": 2,
      "note": 27,
      "start": 21.6786,
      "duration": 0.102,
      "velocity": 93,
      "chip": "ym2612"
    },
    {
      "channel": 3,
      "note": 85,
      "start": 21.6807,
      "duration": 0.1,
      "velocity": 110,
      "chip": "ym2612"
    },
    {
      "channel": 4,
      "note": 55,
      "start": 21.6829,
      "duration": 0.1383,
      "velocity": 117,
      "chip": "ym2612"
    },
    {
      "channel": 5,
      "note": 43,
      "start": 21.6851,
      "duration": 0.1383,
      "velocity": 110,
      "chip": "ym2612"
    },
    {
      "channel": 0,
      "note": 73,
      "start": 21.7783,
      "duration": 0.0981,
      "velocity": 110,
      "chip": "ym2612"
    },
    {
      "channel": 1,
      "note": 54,
      "start": 21.7804,
      "duration": 0.138,
      "velocity": 117,
      "chip": "ym2612"
    },
    {
      "channel": 2,
      "note": 35,
      "start": 21.819,
      "duration": 0.1016,
      "velocity": 127,
      "chip": "ym2612"
    },
    {
      "channel": 3,
      "note": 73,
      "start": 21.8211,
      "duration": 0.0996,
      "velocity": 110,
      "chip": "ym2612"
    },
    {
      "channel": 4,
      "note": 56,
      "start": 21.8233,
      "duration": 0.1376,
      "velocity": 117,
      "chip": "ym2612"
    },
    {
      "channel": 5,
      "note": 44,
      "start": 21.8255,
      "duration": 0.1376,
      "velocity": 110,
      "chip": "ym2612"
    },
    {
      "channel": 0,
      "note": 85,
      "start": 21.9183,
      "duration": 0.0981,
      "velocity": 110,
      "chip": "ym2612"
    },
    {
      "channel": 1,
      "note": 55,
      "start": 21.9204,
      "duration": 0.138,
      "velocity": 117,
      "chip": "ym2612"
    },
    {
      "channel": 2,
      "note": 34,
      "start": 21.9586,
      "duration": 0.102,
      "velocity": 127,
      "chip": "ym2612"
    },
    {
      "channel": 3,
      "note": 85,
      "start": 21.9607,
      "duration": 0.1,
      "velocity": 110,
      "chip": "ym2612"
    },
    {
      "channel": 4,
      "note": 57,
      "start": 21.9629,
      "duration": 0.1183,
      "velocity": 117,
      "chip": "ym2612"
    },
    {
      "channel": 5,
      "note": 45,
      "start": 21.9651,
      "duration": 0.1183,
      "velocity": 110,
      "chip": "ym2612"
    },
    {
      "channel": 0,
      "note": 73,
      "start": 22.0583,
      "duration": 0.0981,
      "velocity": 110,
      "chip": "ym2612"
    },
    {
      "channel": 1,
      "note": 56,
      "start": 22.0604,
      "duration": 0.118,
      "velocity": 117,
      "chip": "ym2612"
    },
    {
      "channel": 2,
      "note": 27,
      "start": 22.079,
      "duration": 0.1016,
      "velocity": 93,
      "chip": "ym2612"
    },
    {
      "channel": 3,
      "note": 73,
      "start": 22.0811,
      "duration": 0.0996,
      "velocity": 110,
      "chip": "ym2612"
    },
    {
      "channel": 4,
      "note": 56,
      "start": 22.0833,
      "duration": 0.1374,
      "velocity": 117,
      "chip": "ym2612"
    },
    {
      "channel": 5,
      "note": 44,
      "start": 22.0855,
      "duration": 0.1375,
      "velocity": 110,
      "chip": "ym2612"
    },
    {
      "channel": 0,
      "note": 85,
      "start": 22.1783,
      "duration": 0.0981,
      "velocity": 110,
      "chip": "ym2612"
    },
    {
      "channel": 1,
      "note": 57,
      "start": 22.1804,
      "duration": 0.138,
      "velocity": 117,
      "chip": "ym2612"
    },
    {
      "channel": 2,
      "note": 27,
      "start": 22.2185,
      "duration": 0.1022,
      "velocity": 93,
      "chip": "ym2612"
    },
    {
      "channel": 3,
      "note": 85,
      "start": 22.2206,
      "duration": 0.1001,
      "velocity": 110,
      "chip": "ym2612"
    },
    {
      "channel": 4,
      "note": 49,
      "start": 22.2228,
      "duration": 0.2581,
      "velocity": 117,
      "chip": "ym2612"
    },
    {
      "channel": 5,
      "note": 37,
      "start": 22.225,
      "duration": 0.2581,
      "velocity": 110,
      "chip": "ym2612"
    },
    {
      "channel": 0,
      "note": 73,
      "start": 22.3183,
      "duration": 0.0981,
      "velocity": 110,
      "chip": "ym2612"
    },
    {
      "channel": 1,
      "note": 56,
      "start": 22.3204,
      "duration": 0.138,
      "velocity": 117,
      "chip": "ym2612"
    },
    {
      "channel": 2,
      "note": 27,
      "start": 22.3586,
      "duration": 0.102,
      "velocity": 93,
      "chip": "ym2612"
    },
    {
      "channel": 3,
      "note": 73,
      "start": 22.3607,
      "duration": 0.1,
      "velocity": 110,
      "chip": "ym2612"
    },
    {
      "channel": 0,
      "note": 85,
      "start": 22.4583,
      "duration": 0.0981,
      "velocity": 110,
      "chip": "ym2612"
    },
    {
      "channel": 1,
      "note": 49,
      "start": 22.4604,
      "duration": 0.258,
      "velocity": 117,
      "chip": "ym2612"
    },
    {
      "channel": 2,
      "note": 27,
      "start": 22.4786,
      "duration": 0.0999,
      "velocity": 93,
      "chip": "ym2612"
    },
    {
      "channel": 3,
      "note": 85,
      "start": 22.4807,
      "duration": 0.098,
      "velocity": 110,
      "chip": "ym2612"
    },
    {
      "channel": 4,
      "note": 52,
      "start": 22.4829,
      "duration": 0.138,
      "velocity": 117,
      "chip": "ym2612"
    },
    {
      "channel": 5,
      "note": 40,
      "start": 22.4851,
      "duration": 0.1379,
      "velocity": 110,
      "chip": "ym2612"
    },
    {
      "channel": 0,
      "note": 73,
      "start": 22.5783,
      "duration": 0.0981,
      "velocity": 110,
      "chip": "ym2612"
    },
    {
      "channel": 2,
      "note": 27,
      "start": 22.6186,
      "duration": 0.102,
      "velocity": 93,
      "chip": "ym2612"
    },
    {
      "channel": 3,
      "note": 73,
      "start": 22.6207,
      "duration": 0.1,
      "velocity": 110,
      "chip": "ym2612"
    },
    {
      "channel": 4,
      "note": 54,
      "start": 22.6229,
      "duration": 0.138,
      "velocity": 117,
      "chip": "ym2612"
    },
    {
      "channel": 5,
      "note": 42,
      "start": 22.6251,
      "duration": 0.1379,
      "velocity": 110,
      "chip": "ym2612"
    },
    {
      "channel": 0,
      "note": 85,
      "start": 22.7183,
      "duration": 0.0981,
      "velocity": 110,
      "chip": "ym2612"
    },
    {
      "channel": 1,
      "note": 52,
      "start": 22.7204,
      "duration": 0.138,
      "velocity": 117,
      "chip": "ym2612"
    },
    {
      "channel": 2,
      "note": 27,
      "start": 22.7586,
      "duration": 0.102,
      "velocity": 93,
      "chip": "ym2612"
    },
    {
      "channel": 3,
      "note": 85,
      "start": 22.7607,
      "duration": 0.1,
      "velocity": 110,
      "chip": "ym2612"
    },
    {
      "channel": 4,
      "note": 55,
      "start": 22.7629,
      "duration": 0.1183,
      "velocity": 117,
      "chip": "ym2612"
    },
    {
      "channel": 5,
      "note": 43,
      "start": 22.7651,
      "duration": 0.1183,
      "velocity": 110,
      "chip": "ym2612"
    },
    {
      "channel": 0,
      "note": 73,
      "start": 22.8583,
      "duration": 0.0981,
      "velocity": 110,
      "chip": "ym2612"
    },
    {
      "channel": 1,
      "note": 54,
      "start": 22.8604,
      "duration": 0.118,
      "velocity": 117,
      "chip": "ym2612"
    },
    {
      "channel": 2,
      "note": 35,
      "start": 22.879,
      "duration": 0.1016,
      "velocity": 127,
      "chip": "ym2612"
    },
    {
      "channel": 3,
      "note": 73,
      "start": 22.8811,
      "duration": 0.0996,
      "velocity": 110,
      "chip": "ym2612"
    },
    {
      "channel": 4,
      "note": 56,
      "start": 22.8833,
      "duration": 0.1376,
      "velocity": 117,
      "chip": "ym2612"
    },
    {
      "channel": 5,
      "note": 44,
      "start": 22.8855,
      "duration": 0.1376,
      "velocity": 110,
      "chip": "ym2612"
    },
    {
      "channel": 0,
      "note": 85,
      "start": 22.9783,
      "duration": 0.0981,
      "velocity": 110,
      "chip": "ym2612"
    },
    {
      "channel": 1,
      "note": 55,
      "start": 22.9804,
      "duration": 0.138,
      "velocity": 117,
      "chip": "ym2612"
    },
    {
      "channel": 2,
      "note": 34,
      "start": 23.0186,
      "duration": 0.102,
      "velocity": 127,
      "chip": "ym2612"
    },
    {
      "channel": 3,
      "note": 85,
      "start": 23.0207,
      "duration": 0.1,
      "velocity": 110,
      "chip": "ym2612"
    },
    {
      "channel": 4,
      "note": 57,
      "start": 23.0229,
      "duration": 0.118,
      "velocity": 117,
      "chip": "ym2612"
    },
    {
      "channel": 5,
      "note": 45,
      "start": 23.0251,
      "duration": 0.1179,
      "velocity": 110,
      "chip": "ym2612"
    },
    {
      "channel": 0,
      "note": 73,
      "start": 23.1183,
      "duration": 0.0981,
      "velocity": 110,
      "chip": "ym2612"
    },
    {
      "channel": 1,
      "note": 56,
      "start": 23.1204,
      "duration": 0.118,
      "velocity": 117,
      "chip": "ym2612"
    },
    {
      "channel": 2,
      "note": 34,
      "start": 23.1386,
      "duration": 0.102,
      "velocity": 127,
      "chip": "ym2612"
    },
    {
      "channel": 3,
      "note": 73,
      "start": 23.1407,
      "duration": 0.1,
      "velocity": 110,
      "chip": "ym2612"
    },
    {
      "channel": 4,
      "note": 56,
      "start": 23.1429,
      "duration": 0.138,
      "velocity": 117,
      "chip": "ym2612"
    },
    {
      "channel": 5,
      "note": 44,
      "start": 23.1451,
      "duration": 0.1379,
      "velocity": 110,
      "chip": "ym2612"
    },
    {
      "channel": 0,
      "note": 85,
      "start": 23.2383,
      "duration": 0.0981,
      "velocity": 110,
      "chip": "ym2612"
    },
    {
      "channel": 1,
      "note": 57,
      "start": 23.2404,
      "duration": 0.138,
      "velocity": 117,
      "chip": "ym2612"
    },
    {
      "channel": 2,
      "note": 34,
      "start": 23.2786,
      "duration": 0.102,
      "velocity": 127,
      "chip": "ym2612"
    },
    {
      "channel": 3,
      "note": 85,
      "start": 23.2807,
      "duration": 0.1,
      "velocity": 110,
      "chip": "ym2612"
    },
    {
      "channel": 4,
      "note": 52,
      "start": 23.2829,
      "duration": 0.1386,
      "velocity": 117,
      "chip": "ym2612"
    },
    {
      "channel": 5,
      "note": 40,
      "start": 23.2851,
      "duration": 0.1387,
      "velocity": 110,
      "chip": "ym2612"
    },
    {
      "channel": 0,
      "note": 73,
      "start": 23.3783,
      "duration": 0.0981,
      "velocity": 110,
      "chip": "ym2612"
    },
    {
      "channel": 1,
      "note": 56,
      "start": 23.3804,
      "duration": 0.138,
      "velocity": 117,
      "chip": "ym2612"
    },
    {
      "channel": 2,
      "note": 27,
      "start": 23.4192,
      "duration": 0.1015,
      "velocity": 93,
      "chip": "ym2612"
    },
    {
      "channel": 3,
      "note": 73,
      "start": 23.4214,
      "duration": 0.0994,
      "velocity": 110,
      "chip": "ym2612"
    },
    {
      "channel": 4,
      "note": 49,
      "start": 23.4236,
      "duration": 0.1173,
      "velocity": 117,
      "chip": "ym2612"
    },
    {
      "channel": 5,
      "note": 37,
      "start": 23.4259,
      "duration": 0.1171,
      "velocity": 110,
      "chip": "ym2612"
    },
    {
      "channel": 0,
      "note": 85,
      "start": 23.5183,
      "duration": 0.0981,
      "velocity": 110,
      "chip": "ym2612"
    },
    {
      "channel": 1,
      "note": 52,
      "start": 23.5204,
      "duration": 0.1181,
      "velocity": 117,
      "chip": "ym2612"
    },
    {
      "channel": 2,
      "note": 27,
      "start": 23.5386,
      "duration": 0.1022,
      "velocity": 93,
      "chip": "ym2612"
    },
    {
      "channel": 3,
      "note": 85,
      "start": 23.5407,
      "duration": 0.1002,
      "velocity": 110,
      "chip": "ym2612"
    },
    {
      "channel": 4,
      "note": 52,
      "start": 23.5429,
      "duration": 0.138,
      "velocity": 117,
      "chip": "ym2612"
    },
    {
      "channel": 5,
      "note": 40,
      "start": 23.5451,
      "duration": 0.1379,
      "velocity": 110,
      "chip": "ym2612"
    },
    {
      "channel": 0,
      "note": 73,
      "start": 23.6384,
      "duration": 0.098,
      "velocity": 110,
      "chip": "ym2612"
    },
    {
      "channel": 1,
      "note": 49,
      "start": 23.6407,
      "duration": 0.1378,
      "velocity": 117,
      "chip": "ym2612"
    },
    {
      "channel": 2,
      "note": 27,
      "start": 23.6786,
      "duration": 0.102,
      "velocity": 93,
      "chip": "ym2612"
    },
    {
      "channel": 3,
      "note": 73,
      "start": 23.6807,
      "duration": 0.1,
      "velocity": 110,
      "chip": "ym2612"
    },
    {
      "channel": 4,
      "note": 54,
      "start": 23.6829,
      "duration": 0.138,
      "velocity": 117,
      "chip": "ym2612"
    },
    {
      "channel": 5,
      "note": 42,
      "start": 23.6851,
      "duration": 0.1379,
      "velocity": 110,
      "chip": "ym2612"
    },
    {
      "channel": 0,
      "note": 85,
      "start": 23.7783,
      "duration": 0.0981,
      "velocity": 110,
      "chip": "ym2612"
    },
    {
      "channel": 1,
      "note": 52,
      "start": 23.7804,
      "duration": 0.138,
      "velocity": 117,
      "chip": "ym2612"
    },
    {
      "channel": 2,
      "note": 27,
      "start": 23.8186,
      "duration": 0.102,
      "velocity": 93,
      "chip": "ym2612"
    },
    {
      "channel": 3,
      "note": 85,
      "start": 23.8207,
      "duration": 0.1,
      "velocity": 110,
      "chip": "ym2612"
    },
    {
      "channel": 4,
      "note": 55,
      "start": 23.8229,
      "duration": 0.1183,
      "velocity": 117,
      "chip": "ym2612"
    },
    {
      "channel": 5,
      "note": 43,
      "start": 23.8251,
      "duration": 0.1183,
      "velocity": 110,
      "chip": "ym2612"
    },
    {
      "channel": 0,
      "note": 73,
      "start": 23.9183,
      "duration": 0.0981,
      "velocity": 110,
      "chip": "ym2612"
    },
    {
      "channel": 1,
      "note": 54,
      "start": 23.9204,
      "duration": 0.118,
      "velocity": 117,
      "chip": "ym2612"
    },
    {
      "channel": 2,
      "note": 35,
      "start": 23.939,
      "duration": 0.1016,
      "velocity": 127,
      "chip": "ym2612"
    },
    {
      "channel": 3,
      "note": 73,
      "start": 23.9411,
      "duration": 0.0996,
      "velocity": 110,
      "chip": "ym2612"
    },
    {
      "channel": 4,
      "note": 56,
      "start": 23.9433,
      "duration": 0.1376,
      "velocity": 117,
      "chip": "ym2612"
    },
    {
      "channel": 5,
      "note": 44,
      "start": 23.9455,
      "duration": 0.1376,
      "velocity": 110,
      "chip": "ym2612"
    },
    {
      "channel": 0,
      "note": 85,
      "start": 24.0383,
      "duration": 0.0981,
      "velocity": 110,
      "chip": "ym2612"
    },
    {
      "channel": 1,
      "note": 55,
      "start": 24.0404,
      "duration": 0.138,
      "velocity": 117,
      "chip": "ym2612"
    },
    {
      "channel": 2,
      "note": 34,
      "start": 24.0786,
      "duration": 0.102,
      "velocity": 127,
      "chip": "ym2612"
    },
    {
      "channel": 3,
      "note": 85,
      "start": 24.0807,
      "duration": 0.1,
      "velocity": 110,
      "chip": "ym2612"
    },
    {
      "channel": 4,
      "note": 57,
      "start": 24.0829,
      "duration": 0.1383,
      "velocity": 117,
      "chip": "ym2612"
    },
    {
      "channel": 5,
      "note": 45,
      "start": 24.0851,
      "duration": 0.1383,
      "velocity": 110,
      "chip": "ym2612"
    },
    {
      "channel": 0,
      "note": 73,
      "start": 24.1783,
      "duration": 0.0981,
      "velocity": 110,
      "chip": "ym2612"
    },
    {
      "channel": 1,
      "note": 56,
      "start": 24.1804,
      "duration": 0.138,
      "velocity": 117,
      "chip": "ym2612"
    },
    {
      "channel": 2,
      "note": 27,
      "start": 24.219,
      "duration": 0.1016,
      "velocity": 93,
      "chip": "ym2612"
    },
    {
      "channel": 3,
      "note": 73,
      "start": 24.2211,
      "duration": 0.0996,
      "velocity": 110,
      "chip": "ym2612"
    },
    {
      "channel": 4,
      "note": 56,
      "start": 24.2233,
      "duration": 0.1174,
      "velocity": 117,
      "chip": "ym2612"
    },
    {
      "channel": 5,
      "note": 44,
      "start": 24.2255,
      "duration": 0.1174,
      "velocity": 110,
      "chip": "ym2612"
    },
    {
      "channel": 0,
      "note": 85,
      "start": 24.3183,
      "duration": 0.0981,
      "velocity": 110,
      "chip": "ym2612"
    },
    {
      "channel": 1,
      "note": 57,
      "start": 24.3204,
      "duration": 0.118,
      "velocity": 117,
      "chip": "ym2612"
    },
    {
      "channel": 2,
      "note": 27,
      "start": 24.3385,
      "duration": 0.1022,
      "velocity": 93,
      "chip": "ym2612"
    },
    {
      "channel": 3,
      "note": 85,
      "start": 24.3406,
      "duration": 0.1001,
      "velocity": 110,
      "chip": "ym2612"
    },
    {
      "channel": 4,
      "note": 49,
      "start": 24.3428,
      "duration": 0.2781,
      "velocity": 117,
      "chip": "ym2612"
    },
    {
      "channel": 5,
      "note": 37,
      "start": 24.345,
      "duration": 0.2781,
      "velocity": 110,
      "chip": "ym2612"
    },
    {
      "channel": 0,
      "note": 73,
      "start": 24.4383,
      "duration": 0.0981,
      "velocity": 110,
      "chip": "ym2612"
    },
    {
      "channel": 1,
      "note": 56,
      "start": 24.4404,
      "duration": 0.138,
      "velocity": 117,
      "chip": "ym2612"
    },
    {
      "channel": 2,
      "note": 27,
      "start": 24.4786,
      "duration": 0.102,
      "velocity": 93,
      "chip": "ym2612"
    },
    {
      "channel": 3,
      "note": 73,
      "start": 24.4807,
      "duration": 0.1,
      "velocity": 110,
      "chip": "ym2612"
    },
    {
      "channel": 0,
      "note": 85,
      "start": 24.5783,
      "duration": 0.0981,
      "velocity": 110,
      "chip": "ym2612"
    },
    {
      "channel": 1,
      "note": 49,
      "start": 24.5804,
      "duration": 0.258,
      "velocity": 117,
      "chip": "ym2612"
    },
    {
      "channel": 2,
      "note": 27,
      "start": 24.6186,
      "duration": 0.0999,
      "velocity": 93,
      "chip": "ym2612"
    },
    {
      "channel": 3,
      "note": 85,
      "start": 24.6207,
      "duration": 0.098,
      "velocity": 110,
      "chip": "ym2612"
    },
    {
      "channel": 4,
      "note": 52,
      "start": 24.6229,
      "duration": 0.118,
      "velocity": 117,
      "chip": "ym2612"
    },
    {
      "channel": 5,
      "note": 40,
      "start": 24.6251,
      "duration": 0.1179,
      "velocity": 110,
      "chip": "ym2612"
    },
    {
      "channel": 0,
      "note": 73,
      "start": 24.7183,
      "duration": 0.0981,
      "velocity": 110,
      "chip": "ym2612"
    },
    {
      "channel": 2,
      "note": 27,
      "start": 24.7386,
      "duration": 0.102,
      "velocity": 93,
      "chip": "ym2612"
    },
    {
      "channel": 3,
      "note": 73,
      "start": 24.7407,
      "duration": 0.1,
      "velocity": 110,
      "chip": "ym2612"
    },
    {
      "channel": 4,
      "note": 54,
      "start": 24.7429,
      "duration": 0.138,
      "velocity": 117,
      "chip": "ym2612"
    },
    {
      "channel": 5,
      "note": 42,
      "start": 24.7451,
      "duration": 0.1379,
      "velocity": 110,
      "chip": "ym2612"
    },
    {
      "channel": 0,
      "note": 85,
      "start": 24.8383,
      "duration": 0.0981,
      "velocity": 110,
      "chip": "ym2612"
    },
    {
      "channel": 1,
      "note": 52,
      "start": 24.8404,
      "duration": 0.138,
      "velocity": 117,
      "chip": "ym2612"
    },
    {
      "channel": 2,
      "note": 27,
      "start": 24.8786,
      "duration": 0.102,
      "velocity": 93,
      "chip": "ym2612"
    },
    {
      "channel": 3,
      "note": 85,
      "start": 24.8807,
      "duration": 0.1,
      "velocity": 110,
      "chip": "ym2612"
    },
    {
      "channel": 4,
      "note": 55,
      "start": 24.8829,
      "duration": 0.1383,
      "velocity": 117,
      "chip": "ym2612"
    },
    {
      "channel": 5,
      "note": 43,
      "start": 24.8851,
      "duration": 0.1383,
      "velocity": 110,
      "chip": "ym2612"
    },
    {
      "channel": 0,
      "note": 73,
      "start": 24.9783,
      "duration": 0.0981,
      "velocity": 110,
      "chip": "ym2612"
    },
    {
      "channel": 1,
      "note": 54,
      "start": 24.9804,
      "duration": 0.138,
      "velocity": 117,
      "chip": "ym2612"
    },
    {
      "channel": 2,
      "note": 35,
      "start": 25.019,
      "duration": 0.1016,
      "velocity": 127,
      "chip": "ym2612"
    },
    {
      "channel": 3,
      "note": 73,
      "start": 25.0211,
      "duration": 0.0996,
      "velocity": 110,
      "chip": "ym2612"
    },
    {
      "channel": 4,
      "note": 56,
      "start": 25.0233,
      "duration": 0.1176,
      "velocity": 117,
      "chip": "ym2612"
    },
    {
      "channel": 5,
      "note": 44,
      "start": 25.0255,
      "duration": 0.1176,
      "velocity": 110,
      "chip": "ym2612"
    },
    {
      "channel": 0,
      "note": 85,
      "start": 25.1183,
      "duration": 0.0981,
      "velocity": 110,
      "chip": "ym2612"
    },
    {
      "channel": 1,
      "note": 55,
      "start": 25.1204,
      "duration": 0.118,
      "velocity": 117,
      "chip": "ym2612"
    },
    {
      "channel": 2,
      "note": 34,
      "start": 25.1386,
      "duration": 0.102,
      "velocity": 127,
      "chip": "ym2612"
    },
    {
      "channel": 3,
      "note": 85,
      "start": 25.1407,
      "duration": 0.1,
      "velocity": 110,
      "chip": "ym2612"
    },
    {
      "channel": 4,
      "note": 57,
      "start": 25.1429,
      "duration": 0.138,
      "velocity": 117,
      "chip": "ym2612"
    },
    {
      "channel": 5,
      "note": 45,
      "start": 25.1451,
      "duration": 0.1379,
      "velocity": 110,
      "chip": "ym2612"
    },
    {
      "channel": 0,
      "note": 73,
      "start": 25.2383,
      "duration": 0.0981,
      "velocity": 110,
      "chip": "ym2612"
    },
    {
      "channel": 1,
      "note": 56,
      "start": 25.2404,
      "duration": 0.138,
      "velocity": 117,
      "chip": "ym2612"
    },
    {
      "channel": 2,
      "note": 34,
      "start": 25.2786,
      "duration": 0.102,
      "velocity": 127,
      "chip": "ym2612"
    },
    {
      "channel": 3,
      "note": 73,
      "start": 25.2807,
      "duration": 0.1,
      "velocity": 110,
      "chip": "ym2612"
    },
    {
      "channel": 4,
      "note": 56,
      "start": 25.2829,
      "duration": 0.138,
      "velocity": 117,
      "chip": "ym2612"
    },
    {
      "channel": 5,
      "note": 44,
      "start": 25.2851,
      "duration": 0.1379,
      "velocity": 110,
      "chip": "ym2612"
    },
    {
      "channel": 0,
      "note": 85,
      "start": 25.3783,
      "duration": 0.0981,
      "velocity": 110,
      "chip": "ym2612"
    },
    {
      "channel": 1,
      "note": 57,
      "start": 25.3804,
      "duration": 0.138,
      "velocity": 117,
      "chip": "ym2612"
    },
    {
      "channel": 2,
      "note": 34,
      "start": 25.4186,
      "duration": 0.102,
      "velocity": 127,
      "chip": "ym2612"
    },
    {
      "channel": 3,
      "note": 85,
      "start": 25.4207,
      "duration": 0.1,
      "velocity": 110,
      "chip": "ym2612"
    },
    {
      "channel": 4,
      "note": 52,
      "start": 25.4229,
      "duration": 0.1194,
      "velocity": 117,
      "chip": "ym2612"
    },
    {
      "channel": 5,
      "note": 40,
      "start": 25.4251,
      "duration": 0.1196,
      "velocity": 110,
      "chip": "ym2612"
    },
    {
      "channel": 0,
      "note": 73,
      "start": 25.5183,
      "duration": 0.0781,
      "velocity": 110,
      "chip": "ym2612"
    },
    {
      "channel": 1,
      "note": 56,
      "start": 25.5204,
      "duration": 0.118,
      "velocity": 117,
      "chip": "ym2612"
    },
    {
      "channel": 2,
      "note": 27,
      "start": 25.5392,
      "duration": 0.1015,
      "velocity": 93,
      "chip": "ym2612"
    },
    {
      "channel": 3,
      "note": 98,
      "start": 25.5421,
      "duration": 0.0546,
      "velocity": 117,
      "chip": "ym2612"
    },
    {
      "channel": 4,
      "note": 62,
      "start": 25.5446,
      "duration": 0.0542,
      "velocity": 117,
      "chip": "ym2612"
    },
    {
      "channel": 5,
      "note": 50,
      "start": 25.5471,
      "duration": 0.054,
      "velocity": 110,
      "chip": "ym2612"
    },
    {
      "channel": 3,
      "note": 93,
      "start": 25.5987,
      "duration": 0.08,
      "velocity": 117,
      "chip": "ym2612"
    },
    {
      "channel": 4,
      "note": 57,
      "start": 25.6009,
      "duration": 0.08,
      "velocity": 117,
      "chip": "ym2612"
    },
    {
      "channel": 5,
      "note": 45,
      "start": 25.6031,
      "duration": 0.08,
      "velocity": 110,
      "chip": "ym2612"
    },
    {
      "channel": 0,
      "note": 85,
      "start": 25.6383,
      "duration": 0.0981,
      "velocity": 110,
      "chip": "ym2612"
    },
    {
      "channel": 1,
      "note": 52,
      "start": 25.6404,
      "duration": 0.1388,
      "velocity": 117,
      "chip": "ym2612"
    },
    {
      "channel": 2,
      "note": 27,
      "start": 25.6786,
      "duration": 0.1031,
      "velocity": 93,
      "chip": "ym2612"
    },
    {
      "channel": 3,
      "note": 86,
      "start": 25.6808,
      "duration": 0.0559,
      "velocity": 117,
      "chip": "ym2612"
    },
    {
      "channel": 4,
      "note": 53,
      "start": 25.683,
      "duration": 0.0558,
      "velocity": 117,
      "chip": "ym2612"
    },
    {
      "channel": 5,
      "note": 41,
      "start": 25.6851,
      "duration": 0.0559,
      "velocity": 110,
      "chip": "ym2612"
    },
    {
      "channel": 3,
      "note": 93,
      "start": 25.7387,
      "duration": 0.0605,
      "velocity": 117,
      "chip": "ym2612"
    },
    {
      "channel": 4,
      "note": 50,
      "start": 25.7409,
      "duration": 0.0604,
      "velocity": 117,
      "chip": "ym2612"
    },
    {
      "channel": 5,
      "note": 38,
      "start": 25.7431,
      "duration": 0.0604,
      "velocity": 110,
      "chip": "ym2612"
    },
    {
      "channel": 0,
      "note": 98,
      "start": 25.7792,
      "duration": 0.0572,
      "velocity": 117,
      "chip": "ym2612"
    },
    {
      "channel": 1,
      "note": 62,
      "start": 25.7815,
      "duration": 0.0569,
      "velocity": 117,
      "chip": "ym2612"
    },
    {
      "channel": 2,
      "note": 35,
      "start": 25.799,
      "duration": 0.1017,
      "velocity": 127,
      "chip": "ym2612"
    },
    {
      "channel": 3,
      "note": 98,
      "start": 25.8012,
      "duration": 0.0754,
      "velocity": 117,
      "chip": "ym2612"
    },
    {
      "channel": 4,
      "note": 62,
      "start": 25.8034,
      "duration": 0.0754,
      "velocity": 117,
      "chip": "ym2612"
    },
    {
      "channel": 5,
      "note": 50,
      "start": 25.8055,
      "duration": 0.0755,
      "velocity": 110,
      "chip": "ym2612"
    },
    {
      "channel": 0,
      "note": 93,
      "start": 25.8383,
      "duration": 0.058,
      "velocity": 117,
      "chip": "ym2612"
    },
    {
      "channel": 1,
      "note": 57,
      "start": 25.8405,
      "duration": 0.058,
      "velocity": 117,
      "chip": "ym2612"
    },
    {
      "channel": 3,
      "note": 93,
      "start": 25.8786,
      "duration": 0.0601,
      "velocity": 117,
      "chip": "ym2612"
    },
    {
      "channel": 4,
      "note": 57,
      "start": 25.8809,
      "duration": 0.06,
      "velocity": 117,
      "chip": "ym2612"
    },
    {
      "channel": 5,
      "note": 45,
      "start": 25.883,
      "duration": 0.0601,
      "velocity": 110,
      "chip": "ym2612"
    },
    {
      "channel": 0,
      "note": 86,
      "start": 25.8983,
      "duration": 0.078,
      "velocity": 117,
      "chip": "ym2612"
    },
    {
      "channel": 1,
      "note": 53,
      "start": 25.9005,
      "duration": 0.078,
      "velocity": 117,
      "chip": "ym2612"
    },
    {
      "channel": 2,
      "note": 34,
      "start": 25.9386,
      "duration": 0.1021,
      "velocity": 127,
      "chip": "ym2612"
    },
    {
      "channel": 3,
      "note": 86,
      "start": 25.9408,
      "duration": 0.0558,
      "velocity": 117,
      "chip": "ym2612"
    },
    {
      "channel": 4,
      "note": 53,
      "start": 25.943,
      "duration": 0.0558,
      "velocity": 117,
      "chip": "ym2612"
    },
    {
      "channel": 5,
      "note": 41,
      "start": 25.9451,
      "duration": 0.0559,
      "velocity": 110,
      "chip": "ym2612"
    },
    {
      "channel": 0,
      "note": 93,
      "start": 25.9783,
      "duration": 0.058,
      "velocity": 117,
      "chip": "ym2612"
    },
    {
      "channel": 1,
      "note": 50,
      "start": 25.9805,
      "duration": 0.058,
      "velocity": 117,
      "chip": "ym2612"
    },
    {
      "channel": 3,
      "note": 93,
      "start": 25.9986,
      "duration": 0.0806,
      "velocity": 117,
      "chip": "ym2612"
    },
    {
      "channel": 4,
      "note": 50,
      "start": 26.0009,
      "duration": 0.0806,
      "velocity": 117,
      "chip": "ym2612"
    },
    {
      "channel": 5,
      "note": 38,
      "start": 26.003,
      "duration": 0.0807,
      "velocity": 110,
      "chip": "ym2612"
    },
    {
      "channel": 0,
      "note": 98,
      "start": 26.0383,
      "duration": 0.058,
      "velocity": 117,
      "chip": "ym2612"
    },
    {
      "channel": 1,
      "note": 62,
      "start": 26.0405,
      "duration": 0.058,
      "velocity": 117,
      "chip": "ym2612"
    },
    {
      "channel": 2,
      "note": 27,
      "start": 26.0791,
      "duration": 0.1016,
      "velocity": 93,
      "chip": "ym2612"
    },
    {
      "channel": 3,
      "note": 98,
      "start": 26.0813,
      "duration": 0.0553,
      "velocity": 117,
      "chip": "ym2612"
    },
    {
      "channel": 4,
      "note": 58,
      "start": 26.0835,
      "duration": 0.1174,
      "velocity": 117,
      "chip": "ym2612"
    },
    {
      "channel": 5,
      "note": 46,
      "start": 26.0857,
      "duration": 0.1174,
      "velocity": 110,
      "chip": "ym2612"
    },
    {
      "channel": 0,
      "note": 93,
      "start": 26.0983,
      "duration": 0.078,
      "velocity": 117,
      "chip": "ym2612"
    },
    {
      "channel": 1,
      "note": 57,
      "start": 26.1005,
      "duration": 0.078,
      "velocity": 117,
      "chip": "ym2612"
    },
    {
      "channel": 3,
      "note": 93,
      "start": 26.1386,
      "duration": 0.0601,
      "velocity": 117,
      "chip": "ym2612"
    },
    {
      "channel": 0,
      "note": 86,
      "start": 26.1783,
      "duration": 0.058,
      "velocity": 117,
      "chip": "ym2612"
    },
    {
      "channel": 1,
      "note": 53,
      "start": 26.1805,
      "duration": 0.058,
      "velocity": 117,
      "chip": "ym2612"
    },
    {
      "channel": 2,
      "note": 27,
      "start": 26.1986,
      "duration": 0.1022,
      "velocity": 93,
      "chip": "ym2612"
    },
    {
      "channel": 3,
      "note": 86,
      "start": 26.2008,
      "duration": 0.0758,
      "velocity": 117,
      "chip": "ym2612"
    },
    {
      "channel": 4,
      "note": 59,
      "start": 26.203,
      "duration": 0.1383,
      "velocity": 117,
      "chip": "ym2612"
    },
    {
      "channel": 5,
      "note": 47,
      "start": 26.2051,
      "duration": 0.1383,
      "velocity": 110,
      "chip": "ym2612"
    },
    {
      "channel": 0,
      "note": 93,
      "start": 26.2383,
      "duration": 0.058,
      "velocity": 117,
      "chip": "ym2612"
    },
    {
      "channel": 1,
      "note": 50,
      "start": 26.2405,
      "duration": 0.0581,
      "velocity": 117,
      "chip": "ym2612"
    },
    {
      "channel": 3,
      "note": 93,
      "start": 26.2786,
      "duration": 0.0605,
      "velocity": 117,
      "chip": "ym2612"
    },
    {
      "channel": 0,
      "note": 98,
      "start": 26.2984,
      "duration": 0.078,
      "velocity": 117,
      "chip": "ym2612"
    },
    {
      "channel": 1,
      "note": 58,
      "start": 26.3006,
      "duration": 0.1379,
      "velocity": 117,
      "chip": "ym2612"
    },
    {
      "channel": 2,
      "note": 35,
      "start": 26.339,
      "duration": 0.1017,
      "velocity": 127,
      "chip": "ym2612"
    },
    {
      "channel": 3,
      "note": 98,
      "start": 26.3412,
      "duration": 0.0554,
      "velocity": 117,
      "chip": "ym2612"
    },
    {
      "channel": 4,
      "note": 60,
      "start": 26.3434,
      "duration": 0.1376,
      "velocity": 117,
      "chip": "ym2612"
    },
    {
      "channel": 5,
      "note": 48,
      "start": 26.3455,
      "duration": 0.1376,
      "velocity": 110,
      "chip": "ym2612"
    },
    {
      "channel": 0,
      "note": 93,
      "start": 26.3783,
      "duration": 0.058,
      "velocity": 117,
      "chip": "ym2612"
    },
    {
      "channel": 3,
      "note": 93,
      "start": 26.3986,
      "duration": 0.0801,
      "velocity": 117,
      "chip": "ym2612"
    },
    {
      "channel": 0,
      "note": 86,
      "start": 26.4383,
      "duration": 0.058,
      "velocity": 117,
      "chip": "ym2612"
    },
    {
      "channel": 1,
      "note": 59,
      "start": 26.4405,
      "duration": 0.138,
      "velocity": 117,
      "chip": "ym2612"
    },
    {
      "channel": 2,
      "note": 34,
      "start": 26.4786,
      "duration": 0.1021,
      "velocity": 127,
      "chip": "ym2612"
    },
    {
      "channel": 3,
      "note": 86,
      "start": 26.4808,
      "duration": 0.0558,
      "velocity": 117,
      "chip": "ym2612"
    },
    {
      "channel": 4,
      "note": 61,
      "start": 26.483,
      "duration": 0.1185,
      "velocity": 117,
      "chip": "ym2612"
    },
    {
      "channel": 5,
      "note": 49,
      "start": 26.4851,
      "duration": 0.1185,
      "velocity": 110,
      "chip": "ym2612"
    },
    {
      "channel": 0,
      "note": 93,
      "start": 26.4983,
      "duration": 0.078,
      "velocity": 117,
      "chip": "ym2612"
    },
    {
      "channel": 3,
      "note": 93,
      "start": 26.5386,
      "duration": 0.0606,
      "velocity": 117,
      "chip": "ym2612"
    },
    {
      "channel": 0,
      "note": 98,
      "start": 26.5783,
      "duration": 0.058,
      "velocity": 117,
      "chip": "ym2612"
    },
    {
      "channel": 1,
      "note": 60,
      "start": 26.5805,
      "duration": 0.118,
      "velocity": 117,
      "chip": "ym2612"
    },
    {
      "channel": 2,
      "note": 27,
      "start": 26.5991,
      "duration": 0.1016,
      "velocity": 93,
      "chip": "ym2612"
    },
    {
      "channel": 3,
      "note": 98,
      "start": 26.6013,
      "duration": 0.0753,
      "velocity": 117,
      "chip": "ym2612"
    },
    {
      "channel": 4,
      "note": 62,
      "start": 26.6035,
      "duration": 0.0753,
      "velocity": 117,
      "chip": "ym2612"
    },
    {
      "channel": 5,
      "note": 50,
      "start": 26.6057,
      "duration": 0.0753,
      "velocity": 110,
      "chip": "ym2612"
    },
    {
      "channel": 0,
      "note": 93,
      "start": 26.6383,
      "duration": 0.058,
      "velocity": 117,
      "chip": "ym2612"
    },
    {
      "channel": 3,
      "note": 93,
      "start": 26.6786,
      "duration": 0.0601,
      "velocity": 117,
      "chip": "ym2612"
    },
    {
      "channel": 4,
      "note": 57,
      "start": 26.6809,
      "duration": 0.06,
      "velocity": 117,
      "chip": "ym2612"
    },
    {
      "channel": 5,
      "note": 45,
      "start": 26.683,
      "duration": 0.0601,
      "velocity": 110,
      "chip": "ym2612"
    },
    {
      "channel": 0,
      "note": 86,
      "start": 26.6983,
      "duration": 0.078,
      "velocity": 117,
      "chip": "ym2612"
    },
    {
      "channel": 1,
      "note": 61,
      "start": 26.7005,
      "duration": 0.1381,
      "velocity": 117,
      "chip": "ym2612"
    },
    {
      "channel": 2,
      "note": 27,
      "start": 26.7386,
      "duration": 0.1022,
      "velocity": 93,
      "chip": "ym2612"
    },
    {
      "channel": 3,
      "note": 86,
      "start": 26.7408,
      "duration": 0.0558,
      "velocity": 117,
      "chip": "ym2612"
    },
    {
      "channel": 4,
      "note": 53,
      "start": 26.743,
      "duration": 0.0558,
      "velocity": 117,
      "chip": "ym2612"
    },
    {
      "channel": 5,
      "note": 41,
      "start": 26.7451,
      "duration": 0.0559,
      "velocity": 110,
      "chip": "ym2612"
    },
    {
      "channel": 0,
      "note": 93,
      "start": 26.7783,
      "duration": 0.058,
      "velocity": 117,
      "chip": "ym2612"
    },
    {
      "channel": 3,
      "note": 93,
      "start": 26.7986,
      "duration": 0.0805,
      "velocity": 117,
      "chip": "ym2612"
    },
    {
      "channel": 4,
      "note": 50,
      "start": 26.8009,
      "duration": 0.0804,
      "velocity": 117,
      "chip": "ym2612"
    },
    {
      "channel": 5,
      "note": 38,
      "start": 26.803,
      "duration": 0.0805,
      "velocity": 110,
      "chip": "ym2612"
    },
    {
      "channel": 0,
      "note": 98,
      "start": 26.8384,
      "duration": 0.058,
      "velocity": 117,
      "chip": "ym2612"
    },
    {
      "channel": 1,
      "note": 62,
      "start": 26.8406,
      "duration": 0.0579,
      "velocity": 117,
      "chip": "ym2612"
    },
    {
      "channel": 2,
      "note": 35,
      "start": 26.879,
      "duration": 0.1017,
      "velocity": 127,
      "chip": "ym2612"
    },
    {
      "channel": 3,
      "note": 98,
      "start": 26.8812,
      "duration": 0.0554,
      "velocity": 117,
      "chip": "ym2612"
    },
    {
      "channel": 4,
      "note": 62,
      "start": 26.8834,
      "duration": 0.0554,
      "velocity": 117,
      "chip": "ym2612"
    },
    {
      "channel": 5,
      "note": 50,
      "start": 26.8855,
      "duration": 0.0555,
      "velocity": 110,
      "chip": "ym2612"
    },
    {
      "channel": 0,
      "note": 93,
      "start": 26.8983,
      "duration": 0.078,
      "velocity": 117,
      "chip": "ym2612"
    },
    {
      "channel": 1,
      "note": 57,
      "start": 26.9005,
      "duration": 0.078,
      "velocity": 117,
      "chip": "ym2612"
    },
    {
      "channel": 3,
      "note": 93,
      "start": 26.9386,
      "duration": 0.0601,
      "velocity": 117,
      "chip": "ym2612"
    },
    {
      "channel": 4,
      "note": 57,
      "start": 26.9409,
      "duration": 0.06,
      "velocity": 117,
      "chip": "ym2612"
    },
    {
      "channel": 5,
      "note": 45,
      "start": 26.943,
      "duration": 0.0601,
      "velocity": 110,
      "chip": "ym2612"
    },
    {
      "channel": 0,
      "note": 86,
      "start": 26.9783,
      "duration": 0.058,
      "velocity": 117,
      "chip": "ym2612"
    },
    {
      "channel": 1,
      "note": 53,
      "start": 26.9805,
      "duration": 0.058,
      "velocity": 117,
      "chip": "ym2612"
    },
    {
      "channel": 2,
      "note": 34,
      "start": 26.9986,
      "duration": 0.1021,
      "velocity": 127,
      "chip": "ym2612"
    },
    {
      "channel": 3,
      "note": 86,
      "start": 27.0008,
      "duration": 0.0758,
      "velocity": 117,
      "chip": "ym2612"
    },
    {
      "channel": 4,
      "note": 53,
      "start": 27.003,
      "duration": 0.0758,
      "velocity": 117,
      "chip": "ym2612"
    },
    {
      "channel": 5,
      "note": 41,
      "start": 27.0051,
      "duration": 0.0759,
      "velocity": 110,
      "chip": "ym2612"
    },
    {
      "channel": 0,
      "note": 93,
      "start": 27.0383,
      "duration": 0.058,
      "velocity": 117,
      "chip": "ym2612"
    },
    {
      "channel": 1,
      "note": 50,
      "start": 27.0405,
      "duration": 0.058,
      "velocity": 117,
      "chip": "ym2612"
    },
    {
      "channel": 3,
      "note": 93,
      "start": 27.0786,
      "duration": 0.0606,
      "velocity": 117,
      "chip": "ym2612"
    },
    {
      "channel": 4,
      "note": 50,
      "start": 27.0809,
      "duration": 0.0606,
      "velocity": 117,
      "chip": "ym2612"
    },
    {
      "channel": 5,
      "note": 38,
      "start": 27.083,
      "duration": 0.0607,
      "velocity": 110,
      "chip": "ym2612"
    },
    {
      "channel": 0,
      "note": 98,
      "start": 27.0983,
      "duration": 0.078,
      "velocity": 117,
      "chip": "ym2612"
    },
    {
      "channel": 1,
      "note": 62,
      "start": 27.1005,
      "duration": 0.078,
      "velocity": 117,
      "chip": "ym2612"
    },
    {
      "channel": 2,
      "note": 27,
      "start": 27.1391,
      "duration": 0.1016,
      "velocity": 93,
      "chip": "ym2612"
    },
    {
      "channel": 3,
      "note": 98,
      "start": 27.1413,
      "duration": 0.0553,
      "velocity": 117,
      "chip": "ym2612"
    },
    {
      "channel": 4,
      "note": 46,
      "start": 27.1435,
      "duration": 0.1374,
      "velocity": 117,
      "chip": "ym2612"
    },
    {
      "channel": 5,
      "note": 34,
      "start": 27.1457,
      "duration": 0.1374,
      "velocity": 110,
      "chip": "ym2612"
    },
    {
      "channel": 0,
      "note": 93,
      "start": 27.1783,
      "duration": 0.058,
      "velocity": 117,
      "chip": "ym2612"
    },
    {
      "channel": 1,
      "note": 57,
      "start": 27.1805,
      "duration": 0.058,
      "velocity": 117,
      "chip": "ym2612"
    },
    {
      "channel": 3,
      "note": 93,
      "start": 27.1986,
      "duration": 0.0801,
      "velocity": 117,
      "chip": "ym2612"
    },
    {
      "channel": 0,
      "note": 86,
      "start": 27.2383,
      "duration": 0.058,
      "velocity": 117,
      "chip": "ym2612"
    },
    {
      "channel": 1,
      "note": 53,
      "start": 27.2405,
      "duration": 0.058,
      "velocity": 117,
      "chip": "ym2612"
    },
    {
      "channel": 2,
      "note": 27,
      "start": 27.2786,
      "duration": 0.1022,
      "velocity": 93,
      "chip": "ym2612"
    },
    {
      "channel": 3,
      "note": 86,
      "start": 27.2808,
      "duration": 0.0558,
      "velocity": 117,
      "chip": "ym2612"
    },
    {
      "channel": 4,
      "note": 47,
      "start": 27.283,
      "duration": 0.1183,
      "velocity": 117,
      "chip": "ym2612"
    },
    {
      "channel": 5,
      "note": 35,
      "start": 27.2851,
      "duration": 0.1183,
      "velocity": 110,
      "chip": "ym2612"
    },
    {
      "channel": 0,
      "note": 93,
      "start": 27.2983,
      "duration": 0.078,
      "velocity": 117,
      "chip": "ym2612"
    },
    {
      "channel": 1,
      "note": 50,
      "start": 27.3005,
      "duration": 0.0781,
      "velocity": 117,
      "chip": "ym2612"
    },
    {
      "channel": 3,
      "note": 93,
      "start": 27.3386,
      "duration": 0.0605,
      "velocity": 117,
      "chip": "ym2612"
    },
    {
      "channel": 0,
      "note": 98,
      "start": 27.3784,
      "duration": 0.058,
      "velocity": 117,
      "chip": "ym2612"
    },
    {
      "channel": 1,
      "note": 46,
      "start": 27.3806,
      "duration": 0.1179,
      "velocity": 117,
      "chip": "ym2612"
    },
    {
      "channel": 2,
      "note": 35,
      "start": 27.399,
      "duration": 0.1017,
      "velocity": 127,
      "chip": "ym2612"
    },
    {
      "channel": 3,
      "note": 98,
      "start": 27.4012,
      "duration": 0.0754,
      "velocity": 117,
      "chip": "ym2612"
    },
    {
      "channel": 4,
      "note": 48,
      "start": 27.4034,
      "duration": 0.1376,
      "velocity": 117,
      "chip": "ym2612"
    },
    {
      "channel": 5,
      "note": 36,
      "start": 27.4055,
      "duration": 0.1376,
      "velocity": 110,
      "chip": "ym2612"
    },
    {
      "channel": 0,
      "note": 93,
      "start": 27.4383,
      "duration": 0.058,
      "velocity": 117,
      "chip": "ym2612"
    },
    {
      "channel": 3,
      "note": 93,
      "start": 27.4786,
      "duration": 0.0601,
      "velocity": 117,
      "chip": "ym2612"
    },
    {
      "channel": 0,
      "note": 86,
      "start": 27.4983,
      "duration": 0.078,
      "velocity": 117,
      "chip": "ym2612"
    },
    {
      "channel": 1,
      "note": 47,
      "start": 27.5005,
      "duration": 0.138,
      "velocity": 117,
      "chip": "ym2612"
    },
    {
      "channel": 2,
      "note": 34,
      "start": 27.5386,
      "duration": 0.1021,
      "velocity": 127,
      "chip": "ym2612"
    },
    {
      "channel": 3,
      "note": 86,
      "start": 27.5408,
      "duration": 0.0558,
      "velocity": 117,
      "chip": "ym2612"
    },
    {
      "channel": 4,
      "note": 49,
      "start": 27.543,
      "duration": 0.1385,
      "velocity": 117,
      "chip": "ym2612"
    },
    {
      "channel": 5,
      "note": 37,
      "start": 27.5451,
      "duration": 0.1386,
      "velocity": 110,
      "chip": "ym2612"
    },
    {
      "channel": 0,
      "note": 93,
      "start": 27.5783,
      "duration": 0.058,
      "velocity": 117,
      "chip": "ym2612"
    },
    {
      "channel": 3,
      "note": 93,
      "start": 27.5986,
      "duration": 0.0806,
      "velocity": 117,
      "chip": "ym2612"
    },
    {
      "channel": 0,
      "note": 98,
      "start": 27.6383,
      "duration": 0.058,
      "velocity": 117,
      "chip": "ym2612"
    },
    {
      "channel": 1,
      "note": 48,
      "start": 27.6405,
      "duration": 0.138,
      "velocity": 117,
      "chip": "ym2612"
    },
    {
      "channel": 2,
      "note": 27,
      "start": 27.6791,
      "duration": 0.1016,
      "velocity": 93,
      "chip": "ym2612"
    },
    {
      "channel": 3,
      "note": 98,
      "start": 27.6813,
      "duration": 0.0553,
      "velocity": 117,
      "chip": "ym2612"
    },
    {
      "channel": 4,
      "note": 62,
      "start": 27.6836,
      "duration": 0.0551,
      "velocity": 117,
      "chip": "ym2612"
    },
    {
      "channel": 5,
      "note": 50,
      "start": 27.6859,
      "duration": 0.0551,
      "velocity": 110,
      "chip": "ym2612"
    },
    {
      "channel": 0,
      "note": 93,
      "start": 27.6983,
      "duration": 0.078,
      "velocity": 117,
      "chip": "ym2612"
    },
    {
      "channel": 3,
      "note": 93,
      "start": 27.7386,
      "duration": 0.0601,
      "velocity": 117,
      "chip": "ym2612"
    },
    {
      "channel": 4,
      "note": 57,
      "start": 27.7409,
      "duration": 0.06,
      "velocity": 117,
      "chip": "ym2612"
    },
    {
      "channel": 5,
      "note": 45,
      "start": 27.743,
      "duration": 0.0601,
      "velocity": 110,
      "chip": "ym2612"
    },
    {
      "channel": 0,
      "note": 86,
      "start": 27.7783,
      "duration": 0.058,
      "velocity": 117,
      "chip": "ym2612"
    },
    {
      "channel": 1,
      "note": 49,
      "start": 27.7805,
      "duration": 0.1181,
      "velocity": 117,
      "chip": "ym2612"
    },
    {
      "channel": 2,
      "note": 27,
      "start": 27.7986,
      "duration": 0.1022,
      "velocity": 93,
      "chip": "ym2612"
    },
    {
      "channel": 3,
      "note": 86,
      "start": 27.8008,
      "duration": 0.0758,
      "velocity": 117,
      "chip": "ym2612"
    },
    {
      "channel": 4,
      "note": 53,
      "start": 27.803,
      "duration": 0.0758,
      "velocity": 117,
      "chip": "ym2612"
    },
    {
      "channel": 5,
      "note": 41,
      "start": 27.8051,
      "duration": 0.0759,
      "velocity": 110,
      "chip": "ym2612"
    },
    {
      "channel": 0,
      "note": 93,
      "start": 27.8383,
      "duration": 0.058,
      "velocity": 117,
      "chip": "ym2612"
    },
    {
      "channel": 3,
      "note": 93,
      "start": 27.8786,
      "duration": 0.0605,
      "velocity": 117,
      "chip": "ym2612"
    },
    {
      "channel": 4,
      "note": 50,
      "start": 27.8809,
      "duration": 0.0604,
      "velocity": 117,
      "chip": "ym2612"
    },
    {
      "channel": 5,
      "note": 38,
      "start": 27.883,
      "duration": 0.0605,
      "velocity": 110,
      "chip": "ym2612"
    },
    {
      "channel": 0,
      "note": 98,
      "start": 27.8984,
      "duration": 0.078,
      "velocity": 117,
      "chip": "ym2612"
    },
    {
      "channel": 1,
      "note": 62,
      "start": 27.9007,
      "duration": 0.0778,
      "velocity": 117,
      "chip": "ym2612"
    },
    {
      "channel": 2,
      "note": 35,
      "start": 27.939,
      "duration": 0.1017,
      "velocity": 127,
      "chip": "ym2612"
    },
    {
      "channel": 3,
      "note": 98,
      "start": 27.9412,
      "duration": 0.0554,
      "velocity": 117,
      "chip": "ym2612"
    },
    {
      "channel": 4,
      "note": 62,
      "start": 27.9434,
      "duration": 0.0554,
      "velocity": 117,
      "chip": "ym2612"
    },
    {
      "channel": 5,
      "note": 50,
      "start": 27.9455,
      "duration": 0.0555,
      "velocity": 110,
      "chip": "ym2612"
    },
    {
      "channel": 0,
      "note": 93,
      "start": 27.9783,
      "duration": 0.058,
      "velocity": 117,
      "chip": "ym2612"
    },
    {
      "channel": 1,
      "note": 57,
      "start": 27.9805,
      "duration": 0.058,
      "velocity": 117,
      "chip": "ym2612"
    },
    {
      "channel": 3,
      "note": 93,
      "start": 27.9986,
      "duration": 0.0801,
      "velocity": 117,
      "chip": "ym2612"
    },
    {
      "channel": 4,
      "note": 57,
      "start": 28.0009,
      "duration": 0.08,
      "velocity": 117,
      "chip": "ym2612"
    },
    {
      "channel": 5,
      "note": 45,
      "start": 28.003,
      "duration": 0.0801,
      "velocity": 110,
      "chip": "ym2612"
    },
    {
      "channel": 0,
      "note": 86,
      "start": 28.0383,
      "duration": 0.058,
      "velocity": 117,
      "chip": "ym2612"
    },
    {
      "channel": 1,
      "note": 53,
      "start": 28.0405,
      "duration": 0.058,
      "velocity": 117,
      "chip": "ym2612"
    },
    {
      "channel": 2,
      "note": 34,
      "start": 28.0786,
      "duration": 0.0821,
      "velocity": 127,
      "chip": "ym2612"
    },
    {
      "channel": 3,
      "note": 86,
      "start": 28.0808,
      "duration": 0.0558,
      "velocity": 117,
      "chip": "ym2612"
    },
    {
      "channel": 4,
      "note": 53,
      "start": 28.083,
      "duration": 0.0558,
      "velocity": 117,
      "chip": "ym2612"
    },
    {
      "channel": 5,
      "note": 41,
      "start": 28.0851,
      "duration": 0.0559,
      "velocity": 110,
      "chip": "ym2612"
    },
    {
      "channel": 0,
      "note": 93,
      "start": 28.0983,
      "duration": 0.058,
      "velocity": 117,
      "chip": "ym2612"
    },
    {
      "channel": 1,
      "note": 50,
      "start": 28.1005,
      "duration": 0.058,
      "velocity": 117,
      "chip": "ym2612"
    },
    {
      "channel": 3,
      "note": 93,
      "start": 28.1386,
      "duration": 0.0606,
      "velocity": 117,
      "chip": "ym2612"
    },
    {
      "channel": 4,
      "note": 50,
      "start": 28.1409,
      "duration": 0.0606,
      "velocity": 117,
      "chip": "ym2612"
    },
    {
      "channel": 5,
      "note": 38,
      "start": 28.143,
      "duration": 0.0607,
      "velocity": 110,
      "chip": "ym2612"
    },
    {
      "channel": 0,
      "note": 98,
      "start": 28.1583,
      "duration": 0.078,
      "velocity": 117,
      "chip": "ym2612"
    },
    {
      "channel": 1,
      "note": 62,
      "start": 28.1605,
      "duration": 0.078,
      "velocity": 117,
      "chip": "ym2612"
    },
    {
      "channel": 2,
      "note": 27,
      "start": 28.1991,
      "duration": 0.1016,
      "velocity": 93,
      "chip": "ym2612"
    },
    {
      "channel": 3,
      "note": 98,
      "start": 28.2013,
      "duration": 0.0553,
      "velocity": 117,
      "chip": "ym2612"
    },
    {
      "channel": 4,
      "note": 58,
      "start": 28.2035,
      "duration": 0.1374,
      "velocity": 117,
      "chip": "ym2612"
    },
    {
      "channel": 5,
      "note": 46,
      "start": 28.2057,
      "duration": 0.1374,
      "velocity": 110,
      "chip": "ym2612"
    },
    {
      "channel": 0,
      "note": 93,
      "start": 28.2383,
      "duration": 0.058,
      "velocity": 117,
      "chip": "ym2612"
    },
    {
      "channel": 1,
      "note": 57,
      "start": 28.2405,
      "duration": 0.058,
      "velocity": 117,
      "chip": "ym2612"
    },
    {
      "channel": 3,
      "note": 93,
      "start": 28.2586,
      "duration": 0.0801,
      "velocity": 117,
      "chip": "ym2612"
    },
    {
      "channel": 0,
      "note": 86,
      "start": 28.2983,
      "duration": 0.058,
      "velocity": 117,
      "chip": "ym2612"
    },
    {
      "channel": 1,
      "note": 53,
      "start": 28.3005,
      "duration": 0.058,
      "velocity": 117,
      "chip": "ym2612"
    },
    {
      "channel": 2,
      "note": 27,
      "start": 28.3386,
      "duration": 0.1022,
      "velocity": 93,
      "chip": "ym2612"
    },
    {
      "channel": 3,
      "note": 86,
      "start": 28.3408,
      "duration": 0.0558,
      "velocity": 117,
      "chip": "ym2612"
    },
    {
      "channel": 4,
      "note": 59,
      "start": 28.343,
      "duration": 0.1183,
      "velocity": 117,
      "chip": "ym2612"
    },
    {
      "channel": 5,
      "note": 47,
      "start": 28.3451,
      "duration": 0.1183,
      "velocity": 110,
      "chip": "ym2612"
    },
    {
      "channel": 0,
      "note": 93,
      "start": 28.3583,
      "duration": 0.078,
      "velocity": 117,
      "chip": "ym2612"
    },
    {
      "channel": 1,
      "note": 50,
      "start": 28.3605,
      "duration": 0.0781,
      "velocity": 117,
      "chip": "ym2612"
    },
    {
      "channel": 3,
      "note": 93,
      "start": 28.3986,
      "duration": 0.0605,
      "velocity": 117,
      "chip": "ym2612"
    },
    {
      "channel": 0,
      "note": 98,
      "start": 28.4384,
      "duration": 0.058,
      "velocity": 117,
      "chip": "ym2612"
    },
    {
      "channel": 1,
      "note": 58,
      "start": 28.4406,
      "duration": 0.1179,
      "velocity": 117,
      "chip": "ym2612"
    },
    {
      "channel": 2,
      "note": 35,
      "start": 28.459,
      "duration": 0.1017,
      "velocity": 127,
      "chip": "ym2612"
    },
    {
      "channel": 3,
      "note": 98,
      "start": 28.4612,
      "duration": 0.0754,
      "velocity": 117,
      "chip": "ym2612"
    },
    {
      "channel": 4,
      "note": 60,
      "start": 28.4634,
      "duration": 0.1376,
      "velocity": 117,
      "chip": "ym2612"
    },
    {
      "channel": 5,
      "note": 48,
      "start": 28.4655,
      "duration": 0.1376,
      "velocity": 110,
      "chip": "ym2612"
    },
    {
      "channel": 0,
      "note": 93,
      "start": 28.4983,
      "duration": 0.058,
      "velocity": 117,
      "chip": "ym2612"
    },
    {
      "channel": 3,
      "note": 93,
      "start": 28.5386,
      "duration": 0.0601,
      "velocity": 117,
      "chip": "ym2612"
    },
    {
      "channel": 0,
      "note": 86,
      "start": 28.5583,
      "duration": 0.078,
      "velocity": 117,
      "chip": "ym2612"
    },
    {
      "channel": 1,
      "note": 59,
      "start": 28.5605,
      "duration": 0.138,
      "velocity": 117,
      "chip": "ym2612"
    },
    {
      "channel": 2,
      "note": 34,
      "start": 28.5986,
      "duration": 0.1021,
      "velocity": 127,
      "chip": "ym2612"
    },
    {
      "channel": 3,
      "note": 86,
      "start": 28.6008,
      "duration": 0.0558,
      "velocity": 117,
      "chip": "ym2612"
    },
    {
      "channel": 4,
      "note": 61,
      "start": 28.603,
      "duration": 0.1385,
      "velocity": 117,
      "chip": "ym2612"
    },
    {
      "channel": 5,
      "note": 49,
      "start": 28.6051,
      "duration": 0.1385,
      "velocity": 110,
      "chip": "ym2612"
    },
    {
      "channel": 0,
      "note": 93,
      "start": 28.6383,
      "duration": 0.058,
      "velocity": 117,
      "chip": "ym2612"
    },
    {
      "channel": 3,
      "note": 93,
      "start": 28.6586,
      "duration": 0.0806,
      "velocity": 117,
      "chip": "ym2612"
    },
    {
      "channel": 0,
      "note": 98,
      "start": 28.6983,
      "duration": 0.058,
      "velocity": 117,
      "chip": "ym2612"
    },
    {
      "channel": 1,
      "note": 60,
      "start": 28.7005,
      "duration": 0.138,
      "velocity": 117,
      "chip": "ym2612"
    },
    {
      "channel": 2,
      "note": 27,
      "start": 28.7391,
      "duration": 0.1016,
      "velocity": 93,
      "chip": "ym2612"
    },
    {
      "channel": 3,
      "note": 98,
      "start": 28.7413,
      "duration": 0.0553,
      "velocity": 117,
      "chip": "ym2612"
    },
    {
      "channel": 4,
      "note": 62,
      "start": 28.7435,
      "duration": 0.0553,
      "velocity": 117,
      "chip": "ym2612"
    },
    {
      "channel": 5,
      "note": 50,
      "start": 28.7457,
      "duration": 0.0553,
      "velocity": 110,
      "chip": "ym2612"
    },
    {
      "channel": 0,
      "note": 93,
      "start": 28.7583,
      "duration": 0.078,
      "velocity": 117,
      "chip": "ym2612"
    },
    {
      "channel": 3,
      "note": 93,
      "start": 28.7986,
      "duration": 0.0601,
      "velocity": 117,
      "chip": "ym2612"
    },
    {
      "channel": 4,
      "note": 57,
      "start": 28.8009,
      "duration": 0.06,
      "velocity": 117,
      "chip": "ym2612"
    },
    {
      "channel": 5,
      "note": 45,
      "start": 28.803,
      "duration": 0.0601,
      "velocity": 110,
      "chip": "ym2612"
    },
    {
      "channel": 0,
      "note": 86,
      "start": 28.8383,
      "duration": 0.058,
      "velocity": 117,
      "chip": "ym2612"
    },
    {
      "channel": 1,
      "note": 61,
      "start": 28.8405,
      "duration": 0.1181,
      "velocity": 117,
      "chip": "ym2612"
    },
    {
      "channel": 2,
      "note": 27,
      "start": 28.8586,
      "duration": 0.1022,
      "velocity": 93,
      "chip": "ym2612"
    },
    {
      "channel": 3,
      "note": 86,
      "start": 28.8608,
      "duration": 0.0758,
      "velocity": 117,
      "chip": "ym2612"
    },
    {
      "channel": 4,
      "note": 53,
      "start": 28.863,
      "duration": 0.0758,
      "velocity": 117,
      "chip": "ym2612"
    },
    {
      "channel": 5,
      "note": 41,
      "start": 28.8651,
      "duration": 0.0759,
      "velocity": 110,
      "chip": "ym2612"
    },
    {
      "channel": 0,
      "note": 93,
      "start": 28.8983,
      "duration": 0.058,
      "velocity": 117,
      "chip": "ym2612"
    },
    {
      "channel": 3,
      "note": 93,
      "start": 28.9386,
      "duration": 0.0605,
      "velocity": 117,
      "chip": "ym2612"
    },
    {
      "channel": 4,
      "note": 50,
      "start": 28.9409,
      "duration": 0.0604,
      "velocity": 117,
      "chip": "ym2612"
    },
    {
      "channel": 5,
      "note": 38,
      "start": 28.943,
      "duration": 0.0605,
      "velocity": 110,
      "chip": "ym2612"
    },
    {
      "channel": 0,
      "note": 98,
      "start": 28.9584,
      "duration": 0.078,
      "velocity": 117,
      "chip": "ym2612"
    },
    {
      "channel": 1,
      "note": 62,
      "start": 28.9606,
      "duration": 0.0779,
      "velocity": 117,
      "chip": "ym2612"
    },
    {
      "channel": 2,
      "note": 35,
      "start": 28.999,
      "duration": 0.1017,
      "velocity": 127,
      "chip": "ym2612"
    },
    {
      "channel": 3,
      "note": 98,
      "start": 29.0012,
      "duration": 0.0554,
      "velocity": 117,
      "chip": "ym2612"
    },
    {
      "channel": 4,
      "note": 62,
      "start": 29.0034,
      "duration": 0.0554,
      "velocity": 117,
      "chip": "ym2612"
    },
    {
      "channel": 5,
      "note": 50,
      "start": 29.0055,
      "duration": 0.0555,
      "velocity": 110,
      "chip": "ym2612"
    },
    {
      "channel": 0,
      "note": 93,
      "start": 29.0383,
      "duration": 0.058,
      "velocity": 117,
      "chip": "ym2612"
    },
    {
      "channel": 1,
      "note": 57,
      "start": 29.0405,
      "duration": 0.058,
      "velocity": 117,
      "chip": "ym2612"
    },
    {
      "channel": 3,
      "note": 93,
      "start": 29.0586,
      "duration": 0.0801,
      "velocity": 117,
      "chip": "ym2612"
    },
    {
      "channel": 4,
      "note": 57,
      "start": 29.0609,
      "duration": 0.08,
      "velocity": 117,
      "chip": "ym2612"
    },
    {
      "channel": 5,
      "note": 45,
      "start": 29.063,
      "duration": 0.0801,
      "velocity": 110,
      "chip": "ym2612"
    },
    {
      "channel": 0,
      "note": 86,
      "start": 29.0983,
      "duration": 0.058,
      "velocity": 117,
      "chip": "ym2612"
    },
    {
      "channel": 1,
      "note": 53,
      "start": 29.1005,
      "duration": 0.058,
      "velocity": 117,
      "chip": "ym2612"
    },
    {
      "channel": 2,
      "note": 34,
      "start": 29.1386,
      "duration": 0.1021,
      "velocity": 127,
      "chip": "ym2612"
    },
    {
      "channel": 3,
      "note": 86,
      "start": 29.1408,
      "duration": 0.0558,
      "velocity": 117,
      "chip": "ym2612"
    },
    {
      "channel": 4,
      "note": 53,
      "start": 29.143,
      "duration": 0.0558,
      "velocity": 117,
      "chip": "ym2612"
    },
    {
      "channel": 5,
      "note": 41,
      "start": 29.1451,
      "duration": 0.0559,
      "velocity": 110,
      "chip": "ym2612"
    },
    {
      "channel": 0,
      "note": 93,
      "start": 29.1583,
      "duration": 0.078,
      "velocity": 117,
      "chip": "ym2612"
    },
    {
      "channel": 1,
      "note": 50,
      "start": 29.1605,
      "duration": 0.078,
      "velocity": 117,
      "chip": "ym2612"
    },
    {
      "channel": 3,
      "note": 93,
      "start": 29.1986,
      "duration": 0.0606,
      "velocity": 117,
      "chip": "ym2612"
    },
    {
      "channel": 4,
      "note": 50,
      "start": 29.2009,
      "duration": 0.0606,
      "velocity": 117,
      "chip": "ym2612"
    },
    {
      "channel": 5,
      "note": 38,
      "start": 29.203,
      "duration": 0.0607,
      "velocity": 110,
      "chip": "ym2612"
    },
    {
      "channel": 0,
      "note": 98,
      "start": 29.2383,
      "duration": 0.058,
      "velocity": 117,
      "chip": "ym2612"
    },
    {
      "channel": 1,
      "note": 62,
      "start": 29.2405,
      "duration": 0.058,
      "velocity": 117,
      "chip": "ym2612"
    },
    {
      "channel": 2,
      "note": 27,
      "start": 29.2591,
      "duration": 0.1016,
      "velocity": 93,
      "chip": "ym2612"
    },
    {
      "channel": 3,
      "note": 98,
      "start": 29.2613,
      "duration": 0.0753,
      "velocity": 117,
      "chip": "ym2612"
    },
    {
      "channel": 4,
      "note": 46,
      "start": 29.2635,
      "duration": 0.1374,
      "velocity": 117,
      "chip": "ym2612"
    },
    {
      "channel": 5,
      "note": 34,
      "start": 29.2657,
      "duration": 0.1374,
      "velocity": 110,
      "chip": "ym2612"
    },
    {
      "channel": 0,
      "note": 93,
      "start": 29.2983,
      "duration": 0.058,
      "velocity": 117,
      "chip": "ym2612"
    },
    {
      "channel": 1,
      "note": 57,
      "start": 29.3005,
      "duration": 0.058,
      "velocity": 117,
      "chip": "ym2612"
    },
    {
      "channel": 3,
      "note": 93,
      "start": 29.3386,
      "duration": 0.0601,
      "velocity": 117,
      "chip": "ym2612"
    },
    {
      "channel": 0,
      "note": 86,
      "start": 29.3583,
      "duration": 0.078,
      "velocity": 117,
      "chip": "ym2612"
    },
    {
      "channel": 1,
      "note": 53,
      "start": 29.3605,
      "duration": 0.078,
      "velocity": 117,
      "chip": "ym2612"
    },
    {
      "channel": 2,
      "note": 27,
      "start": 29.3986,
      "duration": 0.1022,
      "velocity": 93,
      "chip": "ym2612"
    },
    {
      "channel": 3,
      "note": 86,
      "start": 29.4008,
      "duration": 0.0558,
      "velocity": 117,
      "chip": "ym2612"
    },
    {
      "channel": 4,
      "note": 47,
      "start": 29.403,
      "duration": 0.1383,
      "velocity": 117,
      "chip": "ym2612"
    },
    {
      "channel": 5,
      "note": 35,
      "start": 29.4051,
      "duration": 0.1383,
      "velocity": 110,
      "chip": "ym2612"
    },
    {
      "channel": 0,
      "note": 93,
      "start": 29.4383,
      "duration": 0.058,
      "velocity": 117,
      "chip": "ym2612"
    },
    {
      "channel": 1,
      "note": 50,
      "start": 29.4405,
      "duration": 0.0581,
      "velocity": 117,
      "chip": "ym2612"
    },
    {
      "channel": 3,
      "note": 93,
      "start": 29.4586,
      "duration": 0.0805,
      "velocity": 117,
      "chip": "ym2612"
    },
    {
      "channel": 0,
      "note": 98,
      "start": 29.4984,
      "duration": 0.058,
      "velocity": 117,
      "chip": "ym2612"
    },
    {
      "channel": 1,
      "note": 46,
      "start": 29.5006,
      "duration": 0.1379,
      "velocity": 117,
      "chip": "ym2612"
    },
    {
      "channel": 2,
      "note": 35,
      "start": 29.539,
      "duration": 0.1017,
      "velocity": 127,
      "chip": "ym2612"
    },
    {
      "channel": 3,
      "note": 98,
      "start": 29.5412,
      "duration": 0.0554,
      "velocity": 117,
      "chip": "ym2612"
    },
    {
      "channel": 4,
      "note": 48,
      "start": 29.5434,
      "duration": 0.1176,
      "velocity": 117,
      "chip": "ym2612"
    },
    {
      "channel": 5,
      "note": 36,
      "start": 29.5455,
      "duration": 0.1176,
      "velocity": 110,
      "chip": "ym2612"
    },
    {
      "channel": 0,
      "note": 93,
      "start": 29.5583,
      "duration": 0.078,
      "velocity": 117,
      "chip": "ym2612"
    },
    {
      "channel": 3,
      "note": 93,
      "start": 29.5986,
      "duration": 0.0601,
      "velocity": 117,
      "chip": "ym2612"
    },
    {
      "channel": 0,
      "note": 86,
      "start": 29.6383,
      "duration": 0.058,
      "velocity": 117,
      "chip": "ym2612"
    },
    {
      "channel": 1,
      "note": 47,
      "start": 29.6405,
      "duration": 0.118,
      "velocity": 117,
      "chip": "ym2612"
    },
    {
      "channel": 2,
      "note": 34,
      "start": 29.6586,
      "duration": 0.1021,
      "velocity": 127,
      "chip": "ym2612"
    },
    {
      "channel": 3,
      "note": 86,
      "start": 29.6608,
      "duration": 0.0758,
      "velocity": 117,
      "chip": "ym2612"
    },
    {
      "channel": 4,
      "note": 49,
      "start": 29.663,
      "duration": 0.1386,
      "velocity": 117,
      "chip": "ym2612"
    },
    {
      "channel": 5,
      "note": 37,
      "start": 29.6651,
      "duration": 0.1389,
      "velocity": 110,
      "chip": "ym2612"
    },
    {
      "channel": 0,
      "note": 93,
      "start": 29.6983,
      "duration": 0.058,
      "velocity": 117,
      "chip": "ym2612"
    },
    {
      "channel": 3,
      "note": 93,
      "start": 29.7386,
      "duration": 0.0606,
      "velocity": 117,
      "chip": "ym2612"
    },
    {
      "channel": 0,
      "note": 98,
      "start": 29.7583,
      "duration": 0.078,
      "velocity": 117,
      "chip": "ym2612"
    },
    {
      "channel": 1,
      "note": 48,
      "start": 29.7605,
      "duration": 0.138,
      "velocity": 117,
      "chip": "ym2612"
    },
    {
      "channel": 2,
      "note": 27,
      "start": 29.7991,
      "duration": 0.1016,
      "velocity": 93,
      "chip": "ym2612"
    },
    {
      "channel": 3,
      "note": 101,
      "start": 29.8015,
      "duration": 0.0551,
      "velocity": 117,
      "chip": "ym2612"
    },
    {
      "channel": 4,
      "note": 65,
      "start": 29.8039,
      "duration": 0.0548,
      "velocity": 117,
      "chip": "ym2612"
    },
    {
      "channel": 5,
      "note": 53,
      "start": 29.8064,
      "duration": 0.0546,
      "velocity": 110,
      "chip": "ym2612"
    },
    {
      "channel": 0,
      "note": 93,
      "start": 29.8383,
      "duration": 0.058,
      "velocity": 117,
      "chip": "ym2612"
    },
    {
      "channel": 3,
      "note": 96,
      "start": 29.8586,
      "duration": 0.0801,
      "velocity": 117,
      "chip": "ym2612"
    },
    {
      "channel": 4,
      "note": 60,
      "start": 29.8609,
      "duration": 0.08,
      "velocity": 117,
      "chip": "ym2612"
    },
    {
      "channel": 5,
      "note": 48,
      "start": 29.863,
      "duration": 0.0801,
      "velocity": 110,
      "chip": "ym2612"
    },
    {
      "channel": 0,
      "note": 86,
      "start": 29.8983,
      "duration": 0.058,
      "velocity": 117,
      "chip": "ym2612"
    },
    {
      "channel": 1,
      "note": 49,
      "start": 29.9005,
      "duration": 0.1383,
      "velocity": 117,
      "chip": "ym2612"
    },
    {
      "channel": 2,
      "note": 27,
      "start": 29.9386,
      "duration": 0.1026,
      "velocity": 93,
      "chip": "ym2612"
    },
    {
      "channel": 3,
      "note": 89,
      "start": 29.9408,
      "duration": 0.0558,
      "velocity": 117,
      "chip": "ym2612"
    },
    {
      "channel": 4,
      "note": 56,
      "start": 29.943,
      "duration": 0.0558,
      "velocity": 117,
      "chip": "ym2612"
    },
    {
      "channel": 5,
      "note": 44,
      "start": 29.9451,
      "duration": 0.0559,
      "velocity": 110,
      "chip": "ym2612"
    },
    {
      "channel": 0,
      "note": 93,
      "start": 29.9583,
      "duration": 0.078,
      "velocity": 117,
      "chip": "ym2612"
    },
    {
      "channel": 3,
      "note": 96,
      "start": 29.9986,
      "duration": 0.0605,
      "velocity": 117,
      "chip": "ym2612"
    },
    {
      "channel": 4,
      "note": 53,
      "start": 30.0009,
      "duration": 0.0604,
      "velocity": 117,
      "chip": "ym2612"
    },
    {
      "channel": 5,
      "note": 41,
      "start": 30.003,
      "duration": 0.0605,
      "velocity": 110,
      "chip": "ym2612"
    },
    {
      "channel": 0,
      "note": 101,
      "start": 30.0386,
      "duration": 0.0578,
      "velocity": 117,
      "chip": "ym2612"
    },
    {
      "channel": 1,
      "note": 65,
      "start": 30.041,
      "duration": 0.0575,
      "velocity": 117,
      "chip": "ym2612"
    },
    {
      "channel": 2,
      "note": 35,
      "start": 30.059,
      "duration": 0.1017,
      "velocity": 127,
      "chip": "ym2612"
    },
    {
      "channel": 3,
      "note": 101,
      "start": 30.0612,
      "duration": 0.0754,
      "velocity": 117,
      "chip": "ym2612"
    },
    {
      "channel": 4,
      "note": 65,
      "start": 30.0634,
      "duration": 0.0754,
      "velocity": 117,
      "chip": "ym2612"
    },
    {
      "channel": 5,
      "note": 53,
      "start": 30.0655,
      "duration": 0.0755,
      "velocity": 110,
      "chip": "ym2612"
    },
    {
      "channel": 0,
      "note": 96,
      "start": 30.0983,
      "duration": 0.058,
      "velocity": 117,
      "chip": "ym2612"
    },
    {
      "channel": 1,
      "note": 60,
      "start": 30.1005,
      "duration": 0.058,
      "velocity": 117,
      "chip": "ym2612"
    },
    {
      "channel": 3,
      "note": 96,
      "start": 30.1386,
      "duration": 0.0601,
      "velocity": 117,
      "chip": "ym2612"
    },
    {
      "channel": 4,
      "note": 60,
      "start": 30.1409,
      "duration": 0.06,
      "velocity": 117,
      "chip": "ym2612"
    },
    {
      "channel": 5,
      "note": 48,
      "start": 30.143,
      "duration": 0.0601,
      "velocity": 110,
      "chip": "ym2612"
    },
    {
      "channel": 0,
      "note": 89,
      "start": 30.1583,
      "duration": 0.078,
      "velocity": 117,
      "chip": "ym2612"
    },
    {
      "channel": 1,
      "note": 56,
      "start": 30.1605,
      "duration": 0.078,
      "velocity": 117,
      "chip": "ym2612"
    },
    {
      "channel": 2,
      "note": 34,
      "start": 30.1986,
      "duration": 0.1021,
      "velocity": 127,
      "chip": "ym2612"
    },
    {
      "channel": 3,
      "note": 89,
      "start": 30.2008,
      "duration": 0.0558,
      "velocity": 117,
      "chip": "ym2612"
    },
    {
      "channel": 4,
      "note": 56,
      "start": 30.203,
      "duration": 0.0558,
      "velocity": 117,
      "chip": "ym2612"
    },
    {
      "channel": 5,
      "note": 44,
      "start": 30.2051,
      "duration": 0.0559,
      "velocity": 110,
      "chip": "ym2612"
    },
    {
      "channel": 0,
      "note": 96,
      "start": 30.2383,
      "duration": 0.058,
      "velocity": 117,
      "chip": "ym2612"
    },
    {
      "channel": 1,
      "note": 53,
      "start": 30.2405,
      "duration": 0.058,
      "velocity": 117,
      "chip": "ym2612"
    },
    {
      "channel": 3,
      "note": 96,
      "start": 30.2586,
      "duration": 0.0806,
      "velocity": 117,
      "chip": "ym2612"
    },
    {
      "channel": 4,
      "note": 53,
      "start": 30.2609,
      "duration": 0.0806,
      "velocity": 117,
      "chip": "ym2612"
    },
    {
      "channel": 5,
      "note": 41,
      "start": 30.263,
      "duration": 0.0807,
      "velocity": 110,
      "chip": "ym2612"
    },
    {
      "channel": 0,
      "note": 101,
      "start": 30.2983,
      "duration": 0.058,
      "velocity": 117,
      "chip": "ym2612"
    },
    {
      "channel": 1,
      "note": 65,
      "start": 30.3005,
      "duration": 0.058,
      "velocity": 117,
      "chip": "ym2612"
    },
    {
      "channel": 2,
      "note": 27,
      "start": 30.3391,
      "duration": 0.1016,
      "velocity": 93,
      "chip": "ym2612"
    },
    {
      "channel": 3,
      "note": 101,
      "start": 30.3413,
      "duration": 0.0553,
      "velocity": 117,
      "chip": "ym2612"
    },
    {
      "channel": 4,
      "note": 61,
      "start": 30.3435,
      "duration": 0.1174,
      "velocity": 117,
      "chip": "ym2612"
    },
    {
      "channel": 5,
      "note": 49,
      "start": 30.3457,
      "duration": 0.1174,
      "velocity": 110,
      "chip": "ym2612"
    },
    {
      "channel": 0,
      "note": 96,
      "start": 30.3583,
      "duration": 0.078,
      "velocity": 117,
      "chip": "ym2612"
    },
    {
      "channel": 1,
      "note": 60,
      "start": 30.3605,
      "duration": 0.078,
      "velocity": 117,
      "chip": "ym2612"
    },
    {
      "channel": 3,
      "note": 96,
      "start": 30.3986,
      "duration": 0.0601,
      "velocity": 117,
      "chip": "ym2612"
    },
    {
      "channel": 0,
      "note": 89,
      "start": 30.4383,
      "duration": 0.058,
      "velocity": 117,
      "chip": "ym2612"
    },
    {
      "channel": 1,
      "note": 56,
      "start": 30.4405,
      "duration": 0.058,
      "velocity": 117,
      "chip": "ym2612"
    },
    {
      "channel": 2,
      "note": 27,
      "start": 30.4586,
      "duration": 0.1022,
      "velocity": 93,
      "chip": "ym2612"
    },
    {
      "channel": 3,
      "note": 89,
      "start": 30.4608,
      "duration": 0.0758,
      "velocity": 117,
      "chip": "ym2612"
    },
    {
      "channel": 4,
      "note": 62,
      "start": 30.463,
      "duration": 0.1383,
      "velocity": 117,
      "chip": "ym2612"
    },
    {
      "channel": 5,
      "note": 50,
      "start": 30.4651,
      "duration": 0.1383,
      "velocity": 110,
      "chip": "ym2612"
    },
    {
      "channel": 0,
      "note": 96,
      "start": 30.4983,
      "duration": 0.058,
      "velocity": 117,
      "chip": "ym2612"
    },
    {
      "channel": 1,
      "note": 53,
      "start": 30.5005,
      "duration": 0.0581,
      "velocity": 117,
      "chip": "ym2612"
    },
    {
      "channel": 3,
      "note": 96,
      "start": 30.5386,
      "duration": 0.0605,
      "velocity": 117,
      "chip": "ym2612"
    },
    {
      "channel": 0,
      "note": 101,
      "start": 30.5584,
      "duration": 0.078,
      "velocity": 117,
      "chip": "ym2612"
    },
    {
      "channel": 1,
      "note": 61,
      "start": 30.5606,
      "duration": 0.1379,
      "velocity": 117,
      "chip": "ym2612"
    },
    {
      "channel": 2,
      "note": 35,
      "start": 30.599,
      "duration": 0.1017,
      "velocity": 127,
      "chip": "ym2612"
    },
    {
      "channel": 3,
      "note": 101,
      "start": 30.6012,
      "duration": 0.0554,
      "velocity": 117,
      "chip": "ym2612"
    },
    {
      "channel": 4,
      "note": 63,
      "start": 30.6034,
      "duration": 0.1176,
      "velocity": 117,
      "chip": "ym2612"
    },
    {
      "channel": 5,
      "note": 51,
      "start": 30.6055,
      "duration": 0.1176,
      "velocity": 110,
      "chip": "ym2612"
    },
    {
      "channel": 0,
      "note": 96,
      "start": 30.6383,
      "duration": 0.058,
      "velocity": 117,
      "chip": "ym2612"
    },
    {
      "channel": 3,
      "note": 96,
      "start": 30.6586,
      "duration": 0.0601,
      "velocity": 117,
      "chip": "ym2612"
    },
    {
      "channel": 0,
      "note": 89,
      "start": 30.6983,
      "duration": 0.058,
      "velocity": 117,
      "chip": "ym2612"
    },
    {
      "channel": 1,
      "note": 62,
      "start": 30.7005,
      "duration": 0.118,
      "velocity": 117,
      "chip": "ym2612"
    },
    {
      "channel": 2,
      "note": 34,
      "start": 30.7186,
      "duration": 0.1021,
      "velocity": 127,
      "chip": "ym2612"
    },
    {
      "channel": 3,
      "note": 89,
      "start": 30.7208,
      "duration": 0.0758,
      "velocity": 117,
      "chip": "ym2612"
    },
    {
      "channel": 4,
      "note": 64,
      "start": 30.723,
      "duration": 0.1385,
      "velocity": 117,
      "chip": "ym2612"
    },
    {
      "channel": 5,
      "note": 52,
      "start": 30.7251,
      "duration": 0.1385,
      "velocity": 110,
      "chip": "ym2612"
    },
    {
      "channel": 0,
      "note": 96,
      "start": 30.7583,
      "duration": 0.058,
      "velocity": 117,
      "chip": "ym2612"
    },
    {
      "channel": 3,
      "note": 96,
      "start": 30.7986,
      "duration": 0.0606,
      "velocity": 117,
      "chip": "ym2612"
    },
    {
      "channel": 0,
      "note": 101,
      "start": 30.8183,
      "duration": 0.078,
      "velocity": 117,
      "chip": "ym2612"
    },
    {
      "channel": 1,
      "note": 63,
      "start": 30.8205,
      "duration": 0.138,
      "velocity": 117,
      "chip": "ym2612"
    },
    {
      "channel": 2,
      "note": 27,
      "start": 30.8591,
      "duration": 0.1016,
      "velocity": 93,
      "chip": "ym2612"
    },
    {
      "channel": 3,
      "note": 101,
      "start": 30.8613,
      "duration": 0.0553,
      "velocity": 117,
      "chip": "ym2612"
    },
    {
      "channel": 4,
      "note": 65,
      "start": 30.8635,
      "duration": 0.0553,
      "velocity": 117,
      "chip": "ym2612"
    },
    {
      "channel": 5,
      "note": 53,
      "start": 30.8657,
      "duration": 0.0553,
      "velocity": 110,
      "chip": "ym2612"
    },
    {
      "channel": 0,
      "note": 96,
      "start": 30.8983,
      "duration": 0.058,
      "velocity": 117,
      "chip": "ym2612"
    },
    {
      "channel": 3,
      "note": 96,
      "start": 30.9186,
      "duration": 0.0801,
      "velocity": 117,
      "chip": "ym2612"
    },
    {
      "channel": 4,
      "note": 60,
      "start": 30.9209,
      "duration": 0.08,
      "velocity": 117,
      "chip": "ym2612"
    },
    {
      "channel": 5,
      "note": 48,
      "start": 30.923,
      "duration": 0.0801,
      "velocity": 110,
      "chip": "ym2612"
    },
    {
      "channel": 0,
      "note": 89,
      "start": 30.9583,
      "duration": 0.058,
      "velocity": 117,
      "chip": "ym2612"
    },
    {
      "channel": 1,
      "note": 64,
      "start": 30.9605,
      "duration": 0.1381,
      "velocity": 117,
      "chip": "ym2612"
    },
    {
      "channel": 2,
      "note": 27,
      "start": 30.9986,
      "duration": 0.1022,
      "velocity": 93,
      "chip": "ym2612"
    },
    {
      "channel": 3,
      "note": 89,
      "start": 31.0008,
      "duration": 0.0558,
      "velocity": 117,
      "chip": "ym2612"
    },
    {
      "channel": 4,
      "note": 56,
      "start": 31.003,
      "duration": 0.0558,
      "velocity": 117,
      "chip": "ym2612"
    },
    {
      "channel": 5,
      "note": 44,
      "start": 31.0051,
      "duration": 0.0559,
      "velocity": 110,
      "chip": "ym2612"
    },
    {
      "channel": 0,
      "note": 96,
      "start": 31.0183,
      "duration": 0.078,
      "velocity": 117,
      "chip": "ym2612"
    },
    {
      "channel": 3,
      "note": 96,
      "start": 31.0586,
      "duration": 0.0605,
      "velocity": 117,
      "chip": "ym2612"
    },
    {
      "channel": 4,
      "note": 53,
      "start": 31.0609,
      "duration": 0.0604,
      "velocity": 117,
      "chip": "ym2612"
    },
    {
      "channel": 5,
      "note": 41,
      "start": 31.063,
      "duration": 0.0605,
      "velocity": 110,
      "chip": "ym2612"
    },
    {
      "channel": 0,
      "note": 101,
      "start": 31.0984,
      "duration": 0.058,
      "velocity": 117,
      "chip": "ym2612"
    },
    {
      "channel": 1,
      "note": 65,
      "start": 31.1006,
      "duration": 0.0579,
      "velocity": 117,
      "chip": "ym2612"
    },
    {
      "channel": 2,
      "note": 35,
      "start": 31.119,
      "duration": 0.1017,
      "velocity": 127,
      "chip": "ym2612"
    },
    {
      "channel": 3,
      "note": 101,
      "start": 31.1212,
      "duration": 0.0754,
      "velocity": 117,
      "chip": "ym2612"
    },
    {
      "channel": 4,
      "note": 65,
      "start": 31.1234,
      "duration": 0.0754,
      "velocity": 117,
      "chip": "ym2612"
    },
    {
      "channel": 5,
      "note": 53,
      "start": 31.1255,
      "duration": 0.0755,
      "velocity": 110,
      "chip": "ym2612"
    },
    {
      "channel": 0,
      "note": 96,
      "start": 31.1583,
      "duration": 0.058,
      "velocity": 117,
      "chip": "ym2612"
    },
    {
      "channel": 1,
      "note": 60,
      "start": 31.1605,
      "duration": 0.058,
      "velocity": 117,
      "chip": "ym2612"
    },
    {
      "channel": 3,
      "note": 96,
      "start": 31.1986,
      "duration": 0.0601,
      "velocity": 117,
      "chip": "ym2612"
    },
    {
      "channel": 4,
      "note": 60,
      "start": 31.2009,
      "duration": 0.06,
      "velocity": 117,
      "chip": "ym2612"
    },
    {
      "channel": 5,
      "note": 48,
      "start": 31.203,
      "duration": 0.0601,
      "velocity": 110,
      "chip": "ym2612"
    },
    {
      "channel": 0,
      "note": 89,
      "start": 31.2183,
      "duration": 0.078,
      "velocity": 117,
      "chip": "ym2612"
    },
    {
      "channel": 1,
      "note": 56,
      "start": 31.2205,
      "duration": 0.078,
      "velocity": 117,
      "chip": "ym2612"
    },
    {
      "channel": 2,
      "note": 34,
      "start": 31.2586,
      "duration": 0.1021,
      "velocity": 127,
      "chip": "ym2612"
    },
    {
      "channel": 3,
      "note": 89,
      "start": 31.2608,
      "duration": 0.0558,
      "velocity": 117,
      "chip": "ym2612"
    },
    {
      "channel": 4,
      "note": 56,
      "start": 31.263,
      "duration": 0.0558,
      "velocity": 117,
      "chip": "ym2612"
    },
    {
      "channel": 5,
      "note": 44,
      "start": 31.2651,
      "duration": 0.0559,
      "velocity": 110,
      "chip": "ym2612"
    },
    {
      "channel": 0,
      "note": 96,
      "start": 31.2983,
      "duration": 0.058,
      "velocity": 117,
      "chip": "ym2612"
    },
    {
      "channel": 1,
      "note": 53,
      "start": 31.3005,
      "duration": 0.058,
      "velocity": 117,
      "chip": "ym2612"
    },
    {
      "channel": 3,
      "note": 96,
      "start": 31.3186,
      "duration": 0.0806,
      "velocity": 117,
      "chip": "ym2612"
    },
    {
      "channel": 4,
      "note": 53,
      "start": 31.3209,
      "duration": 0.0806,
      "velocity": 117,
      "chip": "ym2612"
    },
    {
      "channel": 5,
      "note": 41,
      "start": 31.323,
      "duration": 0.0807,
      "velocity": 110,
      "chip": "ym2612"
    },
    {
      "channel": 0,
      "note": 101,
      "start": 31.3583,
      "duration": 0.058,
      "velocity": 117,
      "chip": "ym2612"
    },
    {
      "channel": 1,
      "note": 65,
      "start": 31.3605,
      "duration": 0.058,
      "velocity": 117,
      "chip": "ym2612"
    },
    {
      "channel": 2,
      "note": 27,
      "start": 31.3991,
      "duration": 0.1016,
      "velocity": 93,
      "chip": "ym2612"
    },
    {
      "channel": 3,
      "note": 101,
      "start": 31.4013,
      "duration": 0.0553,
      "velocity": 117,
      "chip": "ym2612"
    },
    {
      "channel": 4,
      "note": 49,
      "start": 31.4035,
      "duration": 0.1174,
      "velocity": 117,
      "chip": "ym2612"
    },
    {
      "channel": 5,
      "note": 37,
      "start": 31.4057,
      "duration": 0.1174,
      "velocity": 110,
      "chip": "ym2612"
    },
    {
      "channel": 0,
      "note": 96,
      "start": 31.4183,
      "duration": 0.078,
      "velocity": 117,
      "chip": "ym2612"
    },
    {
      "channel": 1,
      "note": 60,
      "start": 31.4205,
      "duration": 0.078,
      "velocity": 117,
      "chip": "ym2612"
    },
    {
      "channel": 3,
      "note": 96,
      "start": 31.4586,
      "duration": 0.0601,
      "velocity": 117,
      "chip": "ym2612"
    },
    {
      "channel": 0,
      "note": 89,
      "start": 31.4983,
      "duration": 0.058,
      "velocity": 117,
      "chip": "ym2612"
    },
    {
      "channel": 1,
      "note": 56,
      "start": 31.5005,
      "duration": 0.058,
      "velocity": 117,
      "chip": "ym2612"
    },
    {
      "channel": 2,
      "note": 27,
      "start": 31.5186,
      "duration": 0.1022,
      "velocity": 93,
      "chip": "ym2612"
    },
    {
      "channel": 3,
      "note": 89,
      "start": 31.5208,
      "duration": 0.0758,
      "velocity": 117,
      "chip": "ym2612"
    },
    {
      "channel": 4,
      "note": 50,
      "start": 31.523,
      "duration": 0.1383,
      "velocity": 117,
      "chip": "ym2612"
    },
    {
      "channel": 5,
      "note": 38,
      "start": 31.5251,
      "duration": 0.1383,
      "velocity": 110,
      "chip": "ym2612"
    },
    {
      "channel": 0,
      "note": 96,
      "start": 31.5583,
      "duration": 0.058,
      "velocity": 117,
      "chip": "ym2612"
    },
    {
      "channel": 1,
      "note": 53,
      "start": 31.5605,
      "duration": 0.0581,
      "velocity": 117,
      "chip": "ym2612"
    },
    {
      "channel": 3,
      "note": 96,
      "start": 31.5986,
      "duration": 0.0605,
      "velocity": 117,
      "chip": "ym2612"
    },
    {
      "channel": 0,
      "note": 101,
      "start": 31.6185,
      "duration": 0.0779,
      "velocity": 117,
      "chip": "ym2612"
    },
    {
      "channel": 1,
      "note": 49,
      "start": 31.6206,
      "duration": 0.1378,
      "velocity": 117,
      "chip": "ym2612"
    },
    {
      "channel": 2,
      "note": 35,
      "start": 31.659,
      "duration": 0.1017,
      "velocity": 127,
      "chip": "ym2612"
    },
    {
      "channel": 3,
      "note": 101,
      "start": 31.6612,
      "duration": 0.0554,
      "velocity": 117,
      "chip": "ym2612"
    },
    {
      "channel": 4,
      "note": 51,
      "start": 31.6634,
      "duration": 0.1376,
      "velocity": 117,
      "chip": "ym2612"
    },
    {
      "channel": 5,
      "note": 39,
      "start": 31.6655,
      "duration": 0.1376,
      "velocity": 110,
      "chip": "ym2612"
    },
    {
      "channel": 0,
      "note": 96,
      "start": 31.6983,
      "duration": 0.058,
      "velocity": 117,
      "chip": "ym2612"
    },
    {
      "channel": 3,
      "note": 96,
      "start": 31.7186,
      "duration": 0.0801,
      "velocity": 117,
      "chip": "ym2612"
    },
    {
      "channel": 0,
      "note": 89,
      "start": 31.7583,
      "duration": 0.058,
      "velocity": 117,
      "chip": "ym2612"
    },
    {
      "channel": 1,
      "note": 50,
      "start": 31.7605,
      "duration": 0.138,
      "velocity": 117,
      "chip": "ym2612"
    },
    {
      "channel": 2,
      "note": 34,
      "start": 31.7986,
      "duration": 0.1021,
      "velocity": 127,
      "chip": "ym2612"
    },
    {
      "channel": 3,
      "note": 89,
      "start": 31.8008,
      "duration": 0.0558,
      "velocity": 117,
      "chip": "ym2612"
    },
    {
      "channel": 4,
      "note": 52,
      "start": 31.803,
      "duration": 0.1185,
      "velocity": 117,
      "chip": "ym2612"
    },
    {
      "channel": 5,
      "note": 40,
      "start": 31.8051,
      "duration": 0.1186,
      "velocity": 110,
      "chip": "ym2612"
    },
    {
      "channel": 0,
      "note": 96,
      "start": 31.8183,
      "duration": 0.078,
      "velocity": 117,
      "chip": "ym2612"
    },
    {
      "channel": 3,
      "note": 96,
      "start": 31.8586,
      "duration": 0.0606,
      "velocity": 117,
      "chip": "ym2612"
    },
    {
      "channel": 0,
      "note": 101,
      "start": 31.8983,
      "duration": 0.058,
      "velocity": 117,
      "chip": "ym2612"
    },
    {
      "channel": 1,
      "note": 51,
      "start": 31.9005,
      "duration": 0.118,
      "velocity": 117,
      "chip": "ym2612"
    },
    {
      "channel": 2,
      "note": 27,
      "start": 31.9191,
      "duration": 0.1016,
      "velocity": 93,
      "chip": "ym2612"
    },
    {
      "channel": 3,
      "note": 101,
      "start": 31.9213,
      "duration": 0.0753,
      "velocity": 117,
      "chip": "ym2612"
    },
    {
      "channel": 4,
      "note": 65,
      "start": 31.9236,
      "duration": 0.0751,
      "velocity": 117,
      "chip": "ym2612"
    },
    {
      "channel": 5,
      "note": 53,
      "start": 31.9259,
      "duration": 0.0751,
      "velocity": 110,
      "chip": "ym2612"
    },
    {
      "channel": 0,
      "note": 96,
      "start": 31.9583,
      "duration": 0.058,
      "velocity": 117,
      "chip": "ym2612"
    },
    {
      "channel": 3,
      "note": 96,
      "start": 31.9986,
      "duration": 0.0601,
      "velocity": 117,
      "chip": "ym2612"
    },
    {
      "channel": 4,
      "note": 60,
      "start": 32.0009,
      "duration": 0.06,
      "velocity": 117,
      "chip": "ym2612"
    },
    {
      "channel": 5,
      "note": 48,
      "start": 32.003,
      "duration": 0.0601,
      "velocity": 110,
      "chip": "ym2612"
    },
    {
      "channel": 0,
      "note": 89,
      "start": 32.0183,
      "duration": 0.078,
      "velocity": 117,
      "chip": "ym2612"
    },
    {
      "channel": 1,
      "note": 52,
      "start": 32.0205,
      "duration": 0.1381,
      "velocity": 117,
      "chip": "ym2612"
    },
    {
      "channel": 2,
      "note": 27,
      "start": 32.0586,
      "duration": 0.1022,
      "velocity": 93,
      "chip": "ym2612"
    },
    {
      "channel": 3,
      "note": 89,
      "start": 32.0608,
      "duration": 0.0558,
      "velocity": 117,
      "chip": "ym2612"
    },
    {
      "channel": 4,
      "note": 56,
      "start": 32.063,
      "duration": 0.0558,
      "velocity": 117,
      "chip": "ym2612"
    },
    {
      "channel": 5,
      "note": 44,
      "start": 32.0651,
      "duration": 0.0559,
      "velocity": 110,
      "chip": "ym2612"
    },
    {
      "channel": 0,
      "note": 96,
      "start": 32.0983,
      "duration": 0.058,
      "velocity": 117,
      "chip": "ym2612"
    },
    {
      "channel": 3,
      "note": 96,
      "start": 32.1186,
      "duration": 0.0805,
      "velocity": 117,
      "chip": "ym2612"
    },
    {
      "channel": 4,
      "note": 53,
      "start": 32.1209,
      "duration": 0.0804,
      "velocity": 117,
      "chip": "ym2612"
    },
    {
      "channel": 5,
      "note": 41,
      "start": 32.123,
      "duration": 0.0805,
      "velocity": 110,
      "chip": "ym2612"
    },
    {
      "channel": 0,
      "note": 101,
      "start": 32.1584,
      "duration": 0.058,
      "velocity": 117,
      "chip": "ym2612"
    },
    {
      "channel": 1,
      "note": 65,
      "start": 32.1607,
      "duration": 0.0578,
      "velocity": 117,
      "chip": "ym2612"
    },
    {
      "channel": 2,
      "note": 35,
      "start": 32.199,
      "duration": 0.1017,
      "velocity": 127,
      "chip": "ym2612"
    },
    {
      "channel": 3,
      "note": 101,
      "start": 32.2012,
      "duration": 0.0554,
      "velocity": 117,
      "chip": "ym2612"
    },
    {
      "channel": 4,
      "note": 65,
      "start": 32.2034,
      "duration": 0.0554,
      "velocity": 117,
      "chip": "ym2612"
    },
    {
      "channel": 5,
      "note": 53,
      "start": 32.2055,
      "duration": 0.0555,
      "velocity": 110,
      "chip": "ym2612"
    },
    {
      "channel": 0,
      "note": 96,
      "start": 32.2183,
      "duration": 0.078,
      "velocity": 117,
      "chip": "ym2612"
    },
    {
      "channel": 1,
      "note": 60,
      "start": 32.2205,
      "duration": 0.078,
      "velocity": 117,
      "chip": "ym2612"
    },
    {
      "channel": 3,
      "note": 96,
      "start": 32.2586,
      "duration": 0.0601,
      "velocity": 117,
      "chip": "ym2612"
    },
    {
      "channel": 4,
      "note": 60,
      "start": 32.2609,
      "duration": 0.06,
      "velocity": 117,
      "chip": "ym2612"
    },
    {
      "channel": 5,
      "note": 48,
      "start": 32.263,
      "duration": 0.0601,
      "velocity": 110,
      "chip": "ym2612"
    },
    {
      "channel": 0,
      "note": 89,
      "start": 32.2983,
      "duration": 0.058,
      "velocity": 117,
      "chip": "ym2612"
    },
    {
      "channel": 1,
      "note": 56,
      "start": 32.3005,
      "duration": 0.058,
      "velocity": 117,
      "chip": "ym2612"
    },
    {
      "channel": 2,
      "note": 34,
      "start": 32.3186,
      "duration": 0.1021,
      "velocity": 127,
      "chip": "ym2612"
    },
    {
      "channel": 3,
      "note": 89,
      "start": 32.3208,
      "duration": 0.0758,
      "velocity": 117,
      "chip": "ym2612"
    },
    {
      "channel": 4,
      "note": 56,
      "start": 32.323,
      "duration": 0.0758,
      "velocity": 117,
      "chip": "ym2612"
    },
    {
      "channel": 5,
      "note": 44,
      "start": 32.3251,
      "duration": 0.0759,
      "velocity": 110,
      "chip": "ym2612"
    },
    {
      "channel": 0,
      "note": 96,
      "start": 32.3583,
      "duration": 0.058,
      "velocity": 117,
      "chip": "ym2612"
    },
    {
      "channel": 1,
      "note": 53,
      "start": 32.3605,
      "duration": 0.058,
      "velocity": 117,
      "chip": "ym2612"
    },
    {
      "channel": 3,
      "note": 96,
      "start": 32.3986,
      "duration": 0.0606,
      "velocity": 117,
      "chip": "ym2612"
    },
    {
      "channel": 4,
      "note": 53,
      "start": 32.4009,
      "duration": 0.0606,
      "velocity": 117,
      "chip": "ym2612"
    },
    {
      "channel": 5,
      "note": 41,
      "start": 32.403,
      "duration": 0.0607,
      "velocity": 110,
      "chip": "ym2612"
    },
    {
      "channel": 0,
      "note": 101,
      "start": 32.4183,
      "duration": 0.078,
      "velocity": 117,
      "chip": "ym2612"
    },
    {
      "channel": 1,
      "note": 65,
      "start": 32.4205,
      "duration": 0.078,
      "velocity": 117,
      "chip": "ym2612"
    },
    {
      "channel": 2,
      "note": 27,
      "start": 32.4591,
      "duration": 0.1016,
      "velocity": 93,
      "chip": "ym2612"
    },
    {
      "channel": 3,
      "note": 101,
      "start": 32.4613,
      "duration": 0.0553,
      "velocity": 117,
      "chip": "ym2612"
    },
    {
      "channel": 4,
      "note": 61,
      "start": 32.4635,
      "duration": 0.1374,
      "velocity": 117,
      "chip": "ym2612"
    },
    {
      "channel": 5,
      "note": 49,
      "start": 32.4657,
      "duration": 0.1374,
      "velocity": 110,
      "chip": "ym2612"
    },
    {
      "channel": 0,
      "note": 96,
      "start": 32.4983,
      "duration": 0.058,
      "velocity": 117,
      "chip": "ym2612"
    },
    {
      "channel": 1,
      "note": 60,
      "start": 32.5005,
      "duration": 0.058,
      "velocity": 117,
      "chip": "ym2612"
    },
    {
      "channel": 3,
      "note": 96,
      "start": 32.5186,
      "duration": 0.0801,
      "velocity": 117,
      "chip": "ym2612"
    },
    {
      "channel": 0,
      "note": 89,
      "start": 32.5583,
      "duration": 0.058,
      "velocity": 117,
      "chip": "ym2612"
    },
    {
      "channel": 1,
      "note": 56,
      "start": 32.5605,
      "duration": 0.058,
      "velocity": 117,
      "chip": "ym2612"
    },
    {
      "channel": 2,
      "note": 27,
      "start": 32.5986,
      "duration": 0.1022,
      "velocity": 93,
      "chip": "ym2612"
    },
    {
      "channel": 3,
      "note": 89,
      "start": 32.6008,
      "duration": 0.0558,
      "velocity": 117,
      "chip": "ym2612"
    },
    {
      "channel": 4,
      "note": 62,
      "start": 32.603,
      "duration": 0.1183,
      "velocity": 117,
      "chip": "ym2612"
    },
    {
      "channel": 5,
      "note": 50,
      "start": 32.6051,
      "duration": 0.1183,
      "velocity": 110,
      "chip": "ym2612"
    },
    {
      "channel": 0,
      "note": 96,
      "start": 32.6183,
      "duration": 0.078,
      "velocity": 117,
      "chip": "ym2612"
    },
    {
      "channel": 1,
      "note": 53,
      "start": 32.6205,
      "duration": 0.0781,
      "velocity": 117,
      "chip": "ym2612"
    },
    {
      "channel": 3,
      "note": 96,
      "start": 32.6586,
      "duration": 0.0605,
      "velocity": 117,
      "chip": "ym2612"
    },
    {
      "channel": 0,
      "note": 101,
      "start": 32.6984,
      "duration": 0.058,
      "velocity": 117,
      "chip": "ym2612"
    },
    {
      "channel": 1,
      "note": 61,
      "start": 32.7006,
      "duration": 0.1179,
      "velocity": 117,
      "chip": "ym2612"
    },
    {
      "channel": 2,
      "note": 35,
      "start": 32.719,
      "duration": 0.1017,
      "velocity": 127,
      "chip": "ym2612"
    },
    {
      "channel": 3,
      "note": 101,
      "start": 32.7212,
      "duration": 0.0754,
      "velocity": 117,
      "chip": "ym2612"
    },
    {
      "channel": 4,
      "note": 63,
      "start": 32.7234,
      "duration": 0.1376,
      "velocity": 117,
      "chip": "ym2612"
    },
    {
      "channel": 5,
      "note": 51,
      "start": 32.7255,
      "duration": 0.1376,
      "velocity": 110,
      "chip": "ym2612"
    },
    {
      "channel": 0,
      "note": 96,
      "start": 32.7583,
      "duration": 0.058,
      "velocity": 117,
      "chip": "ym2612"
    },
    {
      "channel": 3,
      "note": 96,
      "start": 32.7986,
      "duration": 0.0601,
      "velocity": 117,
      "chip": "ym2612"
    },
    {
      "channel": 0,
      "note": 89,
      "start": 32.8183,
      "duration": 0.078,
      "velocity": 117,
      "chip": "ym2612"
    },
    {
      "channel": 1,
      "note": 62,
      "start": 32.8205,
      "duration": 0.138,
      "velocity": 117,
      "chip": "ym2612"
    },
    {
      "channel": 2,
      "note": 34,
      "start": 32.8586,
      "duration": 0.1021,
      "velocity": 127,
      "chip": "ym2612"
    },
    {
      "channel": 3,
      "note": 89,
      "start": 32.8608,
      "duration": 0.0558,
      "velocity": 117,
      "chip": "ym2612"
    },
    {
      "channel": 4,
      "note": 64,
      "start": 32.863,
      "duration": 0.1385,
      "velocity": 117,
      "chip": "ym2612"
    },
    {
      "channel": 5,
      "note": 52,
      "start": 32.8651,
      "duration": 0.1385,
      "velocity": 110,
      "chip": "ym2612"
    },
    {
      "channel": 0,
      "note": 96,
      "start": 32.8983,
      "duration": 0.058,
      "velocity": 117,
      "chip": "ym2612"
    },
    {
      "channel": 3,
      "note": 96,
      "start": 32.9186,
      "duration": 0.0806,
      "velocity": 117,
      "chip": "ym2612"
    },
    {
      "channel": 0,
      "note": 101,
      "start": 32.9583,
      "duration": 0.058,
      "velocity": 117,
      "chip": "ym2612"
    },
    {
      "channel": 1,
      "note": 63,
      "start": 32.9605,
      "duration": 0.138,
      "velocity": 117,
      "chip": "ym2612"
    },
    {
      "channel": 2,
      "note": 27,
      "start": 32.9991,
      "duration": 0.1016,
      "velocity": 93,
      "chip": "ym2612"
    },
    {
      "channel": 3,
      "note": 101,
      "start": 33.0013,
      "duration": 0.0553,
      "velocity": 117,
      "chip": "ym2612"
    },
    {
      "channel": 4,
      "note": 65,
      "start": 33.0035,
      "duration": 0.0553,
      "velocity": 117,
      "chip": "ym2612"
    },
    {
      "channel": 5,
      "note": 53,
      "start": 33.0057,
      "duration": 0.0553,
      "velocity": 110,
      "chip": "ym2612"
    },
    {
      "channel": 0,
      "note": 96,
      "start": 33.0183,
      "duration": 0.078,
      "velocity": 117,
      "chip": "ym2612"
    },
    {
      "channel": 3,
      "note": 96,
      "start": 33.0586,
      "duration": 0.0601,
      "velocity": 117,
      "chip": "ym2612"
    },
    {
      "channel": 4,
      "note": 60,
      "start": 33.0609,
      "duration": 0.06,
      "velocity": 117,
      "chip": "ym2612"
    },
    {
      "channel": 5,
      "note": 48,
      "start": 33.063,
      "duration": 0.0601,
      "velocity": 110,
      "chip": "ym2612"
    },
    {
      "channel": 0,
      "note": 89,
      "start": 33.0983,
      "duration": 0.058,
      "velocity": 117,
      "chip": "ym2612"
    },
    {
      "channel": 1,
      "note": 64,
      "start": 33.1005,
      "duration": 0.1181,
      "velocity": 117,
      "chip": "ym2612"
    },
    {
      "channel": 2,
      "note": 27,
      "start": 33.1186,
      "duration": 0.1022,
      "velocity": 93,
      "chip": "ym2612"
    },
    {
      "channel": 3,
      "note": 89,
      "start": 33.1208,
      "duration": 0.0758,
      "velocity": 117,
      "chip": "ym2612"
    },
    {
      "channel": 4,
      "note": 56,
      "start": 33.123,
      "duration": 0.0758,
      "velocity": 117,
      "chip": "ym2612"
    },
    {
      "channel": 5,
      "note": 44,
      "start": 33.1251,
      "duration": 0.0759,
      "velocity": 110,
      "chip": "ym2612"
    },
    {
      "channel": 0,
      "note": 96,
      "start": 33.1583,
      "duration": 0.058,
      "velocity": 117,
      "chip": "ym2612"
    },
    {
      "channel": 3,
      "note": 96,
      "start": 33.1986,
      "duration": 0.0605,
      "velocity": 117,
      "chip": "ym2612"
    },
    {
      "channel": 4,
      "note": 53,
      "start": 33.2009,
      "duration": 0.0604,
      "velocity": 117,
      "chip": "ym2612"
    },
    {
      "channel": 5,
      "note": 41,
      "start": 33.203,
      "duration": 0.0605,
      "velocity": 110,
      "chip": "ym2612"
    },
    {
      "channel": 0,
      "note": 101,
      "start": 33.2185,
      "duration": 0.0579,
      "velocity": 117,
      "chip": "ym2612"
    },
    {
      "channel": 1,
      "note": 65,
      "start": 33.2206,
      "duration": 0.0578,
      "velocity": 117,
      "chip": "ym2612"
    },
    {
      "channel": 2,
      "note": 35,
      "start": 33.259,
      "duration": 0.1017,
      "velocity": 127,
      "chip": "ym2612"
    },
    {
      "channel": 3,
      "note": 101,
      "start": 33.2612,
      "duration": 0.0554,
      "velocity": 117,
      "chip": "ym2612"
    },
    {
      "channel": 4,
      "note": 65,
      "start": 33.2634,
      "duration": 0.0554,
      "velocity": 117,
      "chip": "ym2612"
    },
    {
      "channel": 5,
      "note": 53,
      "start": 33.2655,
      "duration": 0.0555,
      "velocity": 110,
      "chip": "ym2612"
    },
    {
      "channel": 0,
      "note": 96,
      "start": 33.2783,
      "duration": 0.078,
      "velocity": 117,
      "chip": "ym2612"
    },
    {
      "channel": 1,
      "note": 60,
      "start": 33.2805,
      "duration": 0.078,
      "velocity": 117,
      "chip": "ym2612"
    },
    {
      "channel": 3,
      "note": 96,
      "start": 33.3186,
      "duration": 0.0601,
      "velocity": 117,
      "chip": "ym2612"
    },
    {
      "channel": 4,
      "note": 60,
      "start": 33.3209,
      "duration": 0.06,
      "velocity": 117,
      "chip": "ym2612"
    },
    {
      "channel": 5,
      "note": 48,
      "start": 33.323,
      "duration": 0.0601,
      "velocity": 110,
      "chip": "ym2612"
    },
    {
      "channel": 0,
      "note": 89,
      "start": 33.3583,
      "duration": 0.058,
      "velocity": 117,
      "chip": "ym2612"
    },
    {
      "channel": 1,
      "note": 56,
      "start": 33.3605,
      "duration": 0.058,
      "velocity": 117,
      "chip": "ym2612"
    },
    {
      "channel": 2,
      "note": 34,
      "start": 33.3786,
      "duration": 0.1021,
      "velocity": 127,
      "chip": "ym2612"
    },
    {
      "channel": 3,
      "note": 89,
      "start": 33.3808,
      "duration": 0.0758,
      "velocity": 117,
      "chip": "ym2612"
    },
    {
      "channel": 4,
      "note": 56,
      "start": 33.383,
      "duration": 0.0758,
      "velocity": 117,
      "chip": "ym2612"
    },
    {
      "channel": 5,
      "note": 44,
      "start": 33.3851,
      "duration": 0.0759,
      "velocity": 110,
      "chip": "ym2612"
    },
    {
      "channel": 0,
      "note": 96,
      "start": 33.4183,
      "duration": 0.058,
      "velocity": 117,
      "chip": "ym2612"
    },
    {
      "channel": 1,
      "note": 53,
      "start": 33.4205,
      "duration": 0.058,
      "velocity": 117,
      "chip": "ym2612"
    },
    {
      "channel": 3,
      "note": 96,
      "start": 33.4586,
      "duration": 0.0606,
      "velocity": 117,
      "chip": "ym2612"
    },
    {
      "channel": 4,
      "note": 53,
      "start": 33.4609,
      "duration": 0.0606,
      "velocity": 117,
      "chip": "ym2612"
    },
    {
      "channel": 5,
      "note": 41,
      "start": 33.463,
      "duration": 0.0607,
      "velocity": 110,
      "chip": "ym2612"
    },
    {
      "channel": 0,
      "note": 101,
      "start": 33.4783,
      "duration": 0.078,
      "velocity": 117,
      "chip": "ym2612"
    },
    {
      "channel": 1,
      "note": 65,
      "start": 33.4805,
      "duration": 0.078,
      "velocity": 117,
      "chip": "ym2612"
    },
    {
      "channel": 2,
      "note": 27,
      "start": 33.5191,
      "duration": 0.1016,
      "velocity": 93,
      "chip": "ym2612"
    },
    {
      "channel": 3,
      "note": 101,
      "start": 33.5213,
      "duration": 0.0553,
      "velocity": 117,
      "chip": "ym2612"
    },
    {
      "channel": 4,
      "note": 49,
      "start": 33.5235,
      "duration": 0.1374,
      "velocity": 117,
      "chip": "ym2612"
    },
    {
      "channel": 5,
      "note": 37,
      "start": 33.5257,
      "duration": 0.1374,
      "velocity": 110,
      "chip": "ym2612"
    },
    {
      "channel": 0,
      "note": 96,
      "start": 33.5583,
      "duration": 0.058,
      "velocity": 117,
      "chip": "ym2612"
    },
    {
      "channel": 1,
      "note": 60,
      "start": 33.5605,
      "duration": 0.058,
      "velocity": 117,
      "chip": "ym2612"
    },
    {
      "channel": 3,
      "note": 96,
      "start": 33.5786,
      "duration": 0.0801,
      "velocity": 117,
      "chip": "ym2612"
    },
    {
      "channel": 0,
      "note": 89,
      "start": 33.6183,
      "duration": 0.058,
      "velocity": 117,
      "chip": "ym2612"
    },
    {
      "channel": 1,
      "note": 56,
      "start": 33.6205,
      "duration": 0.058,
      "velocity": 117,
      "chip": "ym2612"
    },
    {
      "channel": 2,
      "note": 27,
      "start": 33.6586,
      "duration": 0.1022,
      "velocity": 93,
      "chip": "ym2612"
    },
    {
      "channel": 3,
      "note": 89,
      "start": 33.6608,
      "duration": 0.0558,
      "velocity": 117,
      "chip": "ym2612"
    },
    {
      "channel": 4,
      "note": 50,
      "start": 33.663,
      "duration": 0.1183,
      "velocity": 117,
      "chip": "ym2612"
    },
    {
      "channel": 5,
      "note": 38,
      "start": 33.6651,
      "duration": 0.1183,
      "velocity": 110,
      "chip": "ym2612"
    },
    {
      "channel": 0,
      "note": 96,
      "start": 33.6783,
      "duration": 0.078,
      "velocity": 117,
      "chip": "ym2612"
    },
    {
      "channel": 1,
      "note": 53,
      "start": 33.6805,
      "duration": 0.0781,
      "velocity": 117,
      "chip": "ym2612"
    },
    {
      "channel": 3,
      "note": 96,
      "start": 33.7186,
      "duration": 0.0605,
      "velocity": 117,
      "chip": "ym2612"
    },
    {
      "channel": 0,
      "note": 101,
      "start": 33.7584,
      "duration": 0.058,
      "velocity": 117,
      "chip": "ym2612"
    },
    {
      "channel": 1,
      "note": 49,
      "start": 33.7606,
      "duration": 0.1179,
      "velocity": 117,
      "chip": "ym2612"
    },
    {
      "channel": 2,
      "note": 35,
      "start": 33.779,
      "duration": 0.1017,
      "velocity": 127,
      "chip": "ym2612"
    },
    {
      "channel": 3,
      "note": 101,
      "start": 33.7812,
      "duration": 0.0754,
      "velocity": 117,
      "chip": "ym2612"
    },
    {
      "channel": 4,
      "note": 51,
      "start": 33.7834,
      "duration": 0.1376,
      "velocity": 117,
      "chip": "ym2612"
    },
    {
      "channel": 5,
      "note": 39,
      "start": 33.7855,
      "duration": 0.1376,
      "velocity": 110,
      "chip": "ym2612"
    },
    {
      "channel": 0,
      "note": 96,
      "start": 33.8183,
      "duration": 0.058,
      "velocity": 117,
      "chip": "ym2612"
    },
    {
      "channel": 3,
      "note": 96,
      "start": 33.8586,
      "duration": 0.0601,
      "velocity": 117,
      "chip": "ym2612"
    },
    {
      "channel": 0,
      "note": 89,
      "start": 33.8783,
      "duration": 0.078,
      "velocity": 117,
      "chip": "ym2612"
    },
    {
      "channel": 1,
      "note": 50,
      "start": 33.8805,
      "duration": 0.138,
      "velocity": 117,
      "chip": "ym2612"
    },
    {
      "channel": 2,
      "note": 34,
      "start": 33.9186,
      "duration": 0.1021,
      "velocity": 127,
      "chip": "ym2612"
    },
    {
      "channel": 3,
      "note": 89,
      "start": 33.9208,
      "duration": 0.0558,
      "velocity": 117,
      "chip": "ym2612"
    },
    {
      "channel": 4,
      "note": 52,
      "start": 33.923,
      "duration": 0.1394,
      "velocity": 117,
      "chip": "ym2612"
    },
    {
      "channel": 5,
      "note": 40,
      "start": 33.9251,
      "duration": 0.1397,
      "velocity": 110,
      "chip": "ym2612"
    },
    {
      "channel": 0,
      "note": 96,
      "start": 33.9583,
      "duration": 0.058,
      "velocity": 117,
      "chip": "ym2612"
    },
    {
      "channel": 3,
      "note": 96,
      "start": 33.9786,
      "duration": 0.0807,
      "velocity": 117,
      "chip": "ym2612"
    },
    {
      "channel": 0,
      "note": 101,
      "start": 34.0183,
      "duration": 0.058,
      "velocity": 117,
      "chip": "ym2612"
    },
    {
      "channel": 1,
      "note": 51,
      "start": 34.0205,
      "duration": 0.138,
      "velocity": 117,
      "chip": "ym2612"
    },
    {
      "channel": 2,
      "note": 22,
      "start": 34.0592,
      "duration": 0.1015,
      "velocity": 127,
      "chip": "ym2612"
    },
    {
      "channel": 3,
      "note": 58,
      "start": 34.0622,
      "duration": 0.0544,
      "velocity": 117,
      "chip": "ym2612"
    },
    {
      "channel": 4,
      "note": 69,
      "start": 34.0647,
      "duration": 0.0541,
      "velocity": 117,
      "chip": "ym2612"
    },
    {
      "channel": 5,
      "note": 45,
      "start": 34.0673,
      "duration": 0.0537,
      "velocity": 110,
      "chip": "ym2612"
    },
    {
      "channel": 0,
      "note": 96,
      "start": 34.0783,
      "duration": 0.078,
      "velocity": 117,
      "chip": "ym2612"
    },
    {
      "channel": 3,
      "note": 57,
      "start": 34.1186,
      "duration": 0.0601,
      "velocity": 117,
      "chip": "ym2612"
    },
    {
      "channel": 4,
      "note": 68,
      "start": 34.1209,
      "duration": 0.06,
      "velocity": 117,
      "chip": "ym2612"
    },
    {
      "channel": 5,
      "note": 44,
      "start": 34.123,
      "duration": 0.0601,
      "velocity": 110,
      "chip": "ym2612"
    },
    {
      "channel": 0,
      "note": 89,
      "start": 34.1583,
      "duration": 0.058,
      "velocity": 117,
      "chip": "ym2612"
    },
    {
      "channel": 1,
      "note": 52,
      "start": 34.1605,
      "duration": 0.1188,
      "velocity": 117,
      "chip": "ym2612"
    },
    {
      "channel": 2,
      "note": 21,
      "start": 34.1786,
      "duration": 0.1032,
      "velocity": 127,
      "chip": "ym2612"
    },
    {
      "channel": 3,
      "note": 58,
      "start": 34.1808,
      "duration": 0.0378,
      "velocity": 117,
      "chip": "ym2612"
    },
    {
      "channel": 4,
      "note": 67,
      "start": 34.183,
      "duration": 0.0737,
      "velocity": 117,
      "chip": "ym2612"
    },
    {
      "channel": 5,
      "note": 43,
      "start": 34.1851,
      "duration": 0.0737,
      "velocity": 110,
      "chip": "ym2612"
    },
    {
      "channel": 0,
      "note": 96,
      "start": 34.2183,
      "duration": 0.058,
      "velocity": 117,
      "chip": "ym2612"
    },
    {
      "channel": 3,
      "note": 57,
      "start": 34.2207,
      "duration": 0.0612,
      "velocity": 117,
      "chip": "ym2612"
    },
    {
      "channel": 4,
      "note": 66,
      "start": 34.2587,
      "duration": 0.0601,
      "velocity": 117,
      "chip": "ym2612"
    },
    {
      "channel": 5,
      "note": 42,
      "start": 34.2609,
      "duration": 0.0601,
      "velocity": 110,
      "chip": "ym2612"
    },
    {
      "channel": 0,
      "note": 58,
      "start": 34.2792,
      "duration": 0.0771,
      "velocity": 117,
      "chip": "ym2612"
    },
    {
      "channel": 1,
      "note": 69,
      "start": 34.2816,
      "duration": 0.0769,
      "velocity": 117,
      "chip": "ym2612"
    },
    {
      "channel": 3,
      "note": 58,
      "start": 34.2839,
      "duration": 0.0768,
      "velocity": 117,
      "chip": "ym2612"
    },
    {
      "channel": 2,
      "note": 21,
      "start": 34.3186,
      "duration": 0.1021,
      "velocity": 127,
      "chip": "ym2612"
    },
    {
      "channel": 4,
      "note": 65,
      "start": 34.3209,
      "duration": 0.0558,
      "velocity": 117,
      "chip": "ym2612"
    },
    {
      "channel": 5,
      "note": 41,
      "start": 34.323,
      "duration": 0.0558,
      "velocity": 110,
      "chip": "ym2612"
    },
    {
      "channel": 0,
      "note": 57,
      "start": 34.3583,
      "duration": 0.058,
      "velocity": 117,
      "chip": "ym2612"
    },
    {
      "channel": 1,
      "note": 68,
      "start": 34.3605,
      "duration": 0.058,
      "velocity": 117,
      "chip": "ym2612"
    },
    {
      "channel": 3,
      "note": 57,
      "start": 34.3628,
      "duration": 0.058,
      "velocity": 117,
      "chip": "ym2612"
    },
    {
      "channel": 4,
      "note": 64,
      "start": 34.3787,
      "duration": 0.0822,
      "velocity": 117,
      "chip": "ym2612"
    },
    {
      "channel": 5,
      "note": 40,
      "start": 34.3809,
      "duration": 0.0822,
      "velocity": 110,
      "chip": "ym2612"
    },
    {
      "channel": 0,
      "note": 58,
      "start": 34.4183,
      "duration": 0.038,
      "velocity": 117,
      "chip": "ym2612"
    },
    {
      "channel": 1,
      "note": 67,
      "start": 34.4205,
      "duration": 0.0559,
      "velocity": 117,
      "chip": "ym2612"
    },
    {
      "channel": 3,
      "note": 58,
      "start": 34.4229,
      "duration": 0.0558,
      "velocity": 117,
      "chip": "ym2612"
    },
    {
      "channel": 0,
      "note": 57,
      "start": 34.4583,
      "duration": 0.058,
      "velocity": 117,
      "chip": "ym2612"
    },
    {
      "channel": 2,
      "note": 20,
      "start": 34.4607,
      "duration": 0.0979,
      "velocity": 127,
      "chip": "ym2612"
    },
    {
      "channel": 4,
      "note": 63,
      "start": 34.4629,
      "duration": 0.0558,
      "velocity": 117,
      "chip": "ym2612"
    },
    {
      "channel": 5,
      "note": 39,
      "start": 34.4651,
      "duration": 0.0558,
      "velocity": 110,
      "chip": "ym2612"
    },
    {
      "channel": 1,
      "note": 66,
      "start": 34.4784,
      "duration": 0.078,
      "velocity": 117,
      "chip": "ym2612"
    },
    {
      "channel": 3,
      "note": 57,
      "start": 34.4807,
      "duration": 0.078,
      "velocity": 117,
      "chip": "ym2612"
    },
    {
      "channel": 0,
      "note": 58,
      "start": 34.5183,
      "duration": 0.058,
      "velocity": 117,
      "chip": "ym2612"
    },
    {
      "channel": 4,
      "note": 62,
      "start": 34.5208,
      "duration": 0.0607,
      "velocity": 117,
      "chip": "ym2612"
    },
    {
      "channel": 5,
      "note": 38,
      "start": 34.523,
      "duration": 0.0607,
      "velocity": 110,
      "chip": "ym2612"
    },
    {
      "channel": 1,
      "note": 65,
      "start": 34.5584,
      "duration": 0.058,
      "velocity": 117,
      "chip": "ym2612"
    },
    {
      "channel": 3,
      "note": 58,
      "start": 34.5609,
      "duration": 0.0578,
      "velocity": 117,
      "chip": "ym2612"
    },
    {
      "channel": 0,
      "note": 57,
      "start": 34.5783,
      "duration": 0.078,
      "velocity": 117,
      "chip": "ym2612"
    },
    {
      "channel": 2,
      "note": 23,
      "start": 34.5813,
      "duration": 0.0973,
      "velocity": 127,
      "chip": "ym2612"
    },
    {
      "channel": 4,
      "note": 58,
      "start": 34.5836,
      "duration": 0.1394,
      "velocity": 117,
      "chip": "ym2612"
    },
    {
      "channel": 5,
      "note": 34,
      "start": 34.5857,
      "duration": 0.1394,
      "velocity": 110,
      "chip": "ym2612"
    },
    {
      "channel": 1,
      "note": 64,
      "start": 34.6184,
      "duration": 0.058,
      "velocity": 117,
      "chip": "ym2612"
    },
    {
      "channel": 3,
      "note": 57,
      "start": 34.6207,
      "duration": 0.058,
      "velocity": 117,
      "chip": "ym2612"
    },
    {
      "channel": 0,
      "note": 58,
      "start": 34.6583,
      "duration": 0.058,
      "velocity": 117,
      "chip": "ym2612"
    },
    {
      "channel": 1,
      "note": 63,
      "start": 34.6784,
      "duration": 0.078,
      "velocity": 117,
      "chip": "ym2612"
    },
    {
      "channel": 3,
      "note": 58,
      "start": 34.6808,
      "duration": 0.04,
      "velocity": 117,
      "chip": "ym2612"
    },
    {
      "channel": 0,
      "note": 57,
      "start": 34.7183,
      "duration": 0.058,
      "velocity": 117,
      "chip": "ym2612"
    },
    {
      "channel": 2,
      "note": 22,
      "start": 34.7207,
      "duration": 0.0979,
      "velocity": 127,
      "chip": "ym2612"
    },
    {
      "channel": 3,
      "note": 57,
      "start": 34.7229,
      "duration": 0.0559,
      "velocity": 117,
      "chip": "ym2612"
    },
    {
      "channel": 4,
      "note": 59,
      "start": 34.725,
      "duration": 0.138,
      "velocity": 117,
      "chip": "ym2612"
    },
    {
      "channel": 5,
      "note": 35,
      "start": 34.7272,
      "duration": 0.1379,
      "velocity": 110,
      "chip": "ym2612"
    },
    {
      "channel": 1,
      "note": 62,
      "start": 34.7584,
      "duration": 0.058,
      "velocity": 117,
      "chip": "ym2612"
    },
    {
      "channel": 0,
      "note": 58,
      "start": 34.7784,
      "duration": 0.078,
      "velocity": 117,
      "chip": "ym2612"
    },
    {
      "channel": 3,
      "note": 58,
      "start": 34.7808,
      "duration": 0.08,
      "velocity": 117,
      "chip": "ym2612"
    },
    {
      "channel": 1,
      "note": 58,
      "start": 34.8184,
      "duration": 0.1401,
      "velocity": 117,
      "chip": "ym2612"
    },
    {
      "channel": 0,
      "note": 57,
      "start": 34.8583,
      "duration": 0.058,
      "velocity": 117,
      "chip": "ym2612"
    },
    {
      "channel": 2,
      "note": 22,
      "start": 34.8607,
      "duration": 0.1,
      "velocity": 127,
      "chip": "ym2612"
    },
    {
      "channel": 3,
      "note": 57,
      "start": 34.8629,
      "duration": 0.0558,
      "velocity": 117,
      "chip": "ym2612"
    },
    {
      "channel": 4,
      "note": 60,
      "start": 34.865,
      "duration": 0.1159,
      "velocity": 117,
      "chip": "ym2612"
    },
    {
      "channel": 5,
      "note": 36,
      "start": 34.8672,
      "duration": 0.1159,
      "velocity": 110,
      "chip": "ym2612"
    },
    {
      "channel": 0,
      "note": 58,
      "start": 34.9183,
      "duration": 0.038,
      "velocity": 117,
      "chip": "ym2612"
    },
    {
      "channel": 3,
      "note": 58,
      "start": 34.9207,
      "duration": 0.058,
      "velocity": 117,
      "chip": "ym2612"
    },
    {
      "channel": 0,
      "note": 57,
      "start": 34.9583,
      "duration": 0.058,
      "velocity": 117,
      "chip": "ym2612"
    },
    {
      "channel": 1,
      "note": 59,
      "start": 34.9605,
      "duration": 0.118,
      "velocity": 117,
      "chip": "ym2612"
    },
    {
      "channel": 2,
      "note": 21,
      "start": 34.9786,
      "duration": 0.1021,
      "velocity": 127,
      "chip": "ym2612"
    },
    {
      "channel": 3,
      "note": 57,
      "start": 34.9808,
      "duration": 0.0758,
      "velocity": 117,
      "chip": "ym2612"
    },
    {
      "channel": 4,
      "note": 61,
      "start": 34.983,
      "duration": 0.1385,
      "velocity": 117,
      "chip": "ym2612"
    },
    {
      "channel": 5,
      "note": 37,
      "start": 34.9851,
      "duration": 0.1389,
      "velocity": 110,
      "chip": "ym2612"
    },
    {
      "channel": 0,
      "note": 58,
      "start": 35.0183,
      "duration": 0.058,
      "velocity": 117,
      "chip": "ym2612"
    },
    {
      "channel": 3,
      "note": 59,
      "start": 35.0589,
      "duration": 0.0605,
      "velocity": 117,
      "chip": "ym2612"
    },
    {
      "channel": 0,
      "note": 57,
      "start": 35.0783,
      "duration": 0.078,
      "velocity": 117,
      "chip": "ym2612"
    },
    {
      "channel": 1,
      "note": 60,
      "start": 35.0805,
      "duration": 0.138,
      "velocity": 117,
      "chip": "ym2612"
    },
    {
      "channel": 2,
      "note": 24,
      "start": 35.1192,
      "duration": 0.1015,
      "velocity": 127,
      "chip": "ym2612"
    },
    {
      "channel": 3,
      "note": 58,
      "start": 35.1214,
      "duration": 0.0552,
      "velocity": 117,
      "chip": "ym2612"
    },
    {
      "channel": 4,
      "note": 70,
      "start": 35.1238,
      "duration": 0.055,
      "velocity": 117,
      "chip": "ym2612"
    },
    {
      "channel": 5,
      "note": 46,
      "start": 35.1263,
      "duration": 0.0547,
      "velocity": 110,
      "chip": "ym2612"
    },
    {
      "channel": 0,
      "note": 58,
      "start": 35.1583,
      "duration": 0.058,
      "velocity": 117,
      "chip": "ym2612"
    },
    {
      "channel": 3,
      "note": 59,
      "start": 35.1786,
      "duration": 0.0422,
      "velocity": 117,
      "chip": "ym2612"
    },
    {
      "channel": 4,
      "note": 69,
      "start": 35.1809,
      "duration": 0.0779,
      "velocity": 117,
      "chip": "ym2612"
    },
    {
      "channel": 5,
      "note": 45,
      "start": 35.183,
      "duration": 0.078,
      "velocity": 110,
      "chip": "ym2612"
    },
    {
      "channel": 0,
      "note": 57,
      "start": 35.2183,
      "duration": 0.058,
      "velocity": 117,
      "chip": "ym2612"
    },
    {
      "channel": 1,
      "note": 61,
      "start": 35.2205,
      "duration": 0.138,
      "velocity": 117,
      "chip": "ym2612"
    },
    {
      "channel": 3,
      "note": 58,
      "start": 35.2229,
      "duration": 0.056,
      "velocity": 117,
      "chip": "ym2612"
    },
    {
      "channel": 2,
      "note": 23,
      "start": 35.2586,
      "duration": 0.1024,
      "velocity": 127,
      "chip": "ym2612"
    },
    {
      "channel": 4,
      "note": 68,
      "start": 35.2609,
      "duration": 0.0558,
      "velocity": 117,
      "chip": "ym2612"
    },
    {
      "channel": 5,
      "note": 44,
      "start": 35.263,
      "duration": 0.0558,
      "velocity": 110,
      "chip": "ym2612"
    },
    {
      "channel": 0,
      "note": 59,
      "start": 35.2786,
      "duration": 0.0778,
      "velocity": 117,
      "chip": "ym2612"
    },
    {
      "channel": 3,
      "note": 59,
      "start": 35.281,
      "duration": 0.0801,
      "velocity": 117,
      "chip": "ym2612"
    },
    {
      "channel": 4,
      "note": 67,
      "start": 35.3187,
      "duration": 0.0601,
      "velocity": 117,
      "chip": "ym2612"
    },
    {
      "channel": 5,
      "note": 43,
      "start": 35.3209,
      "duration": 0.0601,
      "velocity": 110,
      "chip": "ym2612"
    },
    {
      "channel": 0,
      "note": 58,
      "start": 35.3583,
      "duration": 0.058,
      "velocity": 117,
      "chip": "ym2612"
    },
    {
      "channel": 1,
      "note": 70,
      "start": 35.3607,
      "duration": 0.0577,
      "velocity": 117,
      "chip": "ym2612"
    },
    {
      "channel": 3,
      "note": 58,
      "start": 35.3631,
      "duration": 0.0576,
      "velocity": 117,
      "chip": "ym2612"
    },
    {
      "channel": 2,
      "note": 23,
      "start": 35.3786,
      "duration": 0.1,
      "velocity": 127,
      "chip": "ym2612"
    },
    {
      "channel": 4,
      "note": 66,
      "start": 35.3809,
      "duration": 0.0778,
      "velocity": 117,
      "chip": "ym2612"
    },
    {
      "channel": 5,
      "note": 42,
      "start": 35.383,
      "duration": 0.0779,
      "velocity": 110,
      "chip": "ym2612"
    },
    {
      "channel": 0,
      "note": 59,
      "start": 35.4183,
      "duration": 0.038,
      "velocity": 117,
      "chip": "ym2612"
    },
    {
      "channel": 1,
      "note": 69,
      "start": 35.4205,
      "duration": 0.0559,
      "velocity": 117,
      "chip": "ym2612"
    },
    {
      "channel": 3,
      "note": 59,
      "start": 35.4228,
      "duration": 0.0559,
      "velocity": 117,
      "chip": "ym2612"
    },
    {
      "channel": 0,
      "note": 58,
      "start": 35.4583,
      "duration": 0.058,
      "velocity": 117,
      "chip": "ym2612"
    },
    {
      "channel": 4,
      "note": 65,
      "start": 35.4608,
      "duration": 0.0601,
      "velocity": 117,
      "chip": "ym2612"
    },
    {
      "channel": 5,
      "note": 41,
      "start": 35.463,
      "duration": 0.0601,
      "velocity": 110,
      "chip": "ym2612"
    },
    {
      "channel": 1,
      "note": 68,
      "start": 35.4784,
      "duration": 0.078,
      "velocity": 117,
      "chip": "ym2612"
    },
    {
      "channel": 3,
      "note": 58,
      "start": 35.4808,
      "duration": 0.0778,
      "velocity": 117,
      "chip": "ym2612"
    },
    {
      "channel": 0,
      "note": 59,
      "start": 35.5183,
      "duration": 0.058,
      "velocity": 117,
      "chip": "ym2612"
    },
    {
      "channel": 2,
      "note": 22,
      "start": 35.5207,
      "duration": 0.0979,
      "velocity": 127,
      "chip": "ym2612"
    },
    {
      "channel": 4,
      "note": 64,
      "start": 35.5229,
      "duration": 0.0558,
      "velocity": 117,
      "chip": "ym2612"
    },
    {
      "channel": 5,
      "note": 40,
      "start": 35.5251,
      "duration": 0.0558,
      "velocity": 110,
      "chip": "ym2612"
    },
    {
      "channel": 1,
      "note": 67,
      "start": 35.5584,
      "duration": 0.058,
      "velocity": 117,
      "chip": "ym2612"
    },
    {
      "channel": 3,
      "note": 59,
      "start": 35.5608,
      "duration": 0.0579,
      "velocity": 117,
      "chip": "ym2612"
    },
    {
      "channel": 0,
      "note": 58,
      "start": 35.5783,
      "duration": 0.078,
      "velocity": 117,
      "chip": "ym2612"
    },
    {
      "channel": 4,
      "note": 63,
      "start": 35.5808,
      "duration": 0.0807,
      "velocity": 117,
      "chip": "ym2612"
    },
    {
      "channel": 5,
      "note": 39,
      "start": 35.583,
      "duration": 0.0807,
      "velocity": 110,
      "chip": "ym2612"
    },
    {
      "channel": 1,
      "note": 66,
      "start": 35.6184,
      "duration": 0.058,
      "velocity": 117,
      "chip": "ym2612"
    },
    {
      "channel": 3,
      "note": 58,
      "start": 35.6208,
      "duration": 0.0578,
      "velocity": 117,
      "chip": "ym2612"
    },
    {
      "channel": 0,
      "note": 59,
      "start": 35.6583,
      "duration": 0.058,
      "velocity": 117,
      "chip": "ym2612"
    },
    {
      "channel": 2,
      "note": 25,
      "start": 35.6613,
      "duration": 0.0973,
      "velocity": 127,
      "chip": "ym2612"
    },
    {
      "channel": 4,
      "note": 59,
      "start": 35.6636,
      "duration": 0.1195,
      "velocity": 117,
      "chip": "ym2612"
    },
    {
      "channel": 5,
      "note": 35,
      "start": 35.6657,
      "duration": 0.1195,
      "velocity": 110,
      "chip": "ym2612"
    },
    {
      "channel": 1,
      "note": 65,
      "start": 35.6784,
      "duration": 0.078,
      "velocity": 117,
      "chip": "ym2612"
    },
    {
      "channel": 3,
      "note": 59,
      "start": 35.6807,
      "duration": 0.038,
      "velocity": 117,
      "chip": "ym2612"
    },
    {
      "channel": 0,
      "note": 58,
      "start": 35.7183,
      "duration": 0.058,
      "velocity": 117,
      "chip": "ym2612"
    },
    {
      "channel": 3,
      "note": 58,
      "start": 35.7207,
      "duration": 0.0602,
      "velocity": 117,
      "chip": "ym2612"
    },
    {
      "channel": 1,
      "note": 64,
      "start": 35.7584,
      "duration": 0.058,
      "velocity": 117,
      "chip": "ym2612"
    },
    {
      "channel": 0,
      "note": 59,
      "start": 35.7785,
      "duration": 0.0579,
      "velocity": 117,
      "chip": "ym2612"
    },
    {
      "channel": 2,
      "note": 24,
      "start": 35.7807,
      "duration": 0.0978,
      "velocity": 127,
      "chip": "ym2612"
    },
    {
      "channel": 3,
      "note": 59,
      "start": 35.7829,
      "duration": 0.0557,
      "velocity": 117,
      "chip": "ym2612"
    },
    {
      "channel": 4,
      "note": 60,
      "start": 35.7851,
      "duration": 0.1379,
      "velocity": 117,
      "chip": "ym2612"
    },
    {
      "channel": 5,
      "note": 36,
      "start": 35.7873,
      "duration": 0.1379,
      "velocity": 110,
      "chip": "ym2612"
    },
    {
      "channel": 1,
      "note": 63,
      "start": 35.8184,
      "duration": 0.058,
      "velocity": 117,
      "chip": "ym2612"
    },
    {
      "channel": 0,
      "note": 58,
      "start": 35.8383,
      "duration": 0.078,
      "velocity": 117,
      "chip": "ym2612"
    },
    {
      "channel": 3,
      "note": 58,
      "start": 35.8407,
      "duration": 0.0801,
      "velocity": 117,
      "chip": "ym2612"
    },
    {
      "channel": 1,
      "note": 59,
      "start": 35.8784,
      "duration": 0.1401,
      "velocity": 117,
      "chip": "ym2612"
    },
    {
      "channel": 0,
      "note": 59,
      "start": 35.9183,
      "duration": 0.018,
      "velocity": 117,
      "chip": "ym2612"
    },
    {
      "channel": 2,
      "note": 24,
      "start": 35.9207,
      "duration": 0.1,
      "velocity": 127,
      "chip": "ym2612"
    },
    {
      "channel": 3,
      "note": 59,
      "start": 35.9229,
      "duration": 0.0537,
      "velocity": 117,
      "chip": "ym2612"
    },
    {
      "channel": 4,
      "note": 61,
      "start": 35.925,
      "duration": 0.1162,
      "velocity": 117,
      "chip": "ym2612"
    },
    {
      "channel": 5,
      "note": 37,
      "start": 35.9272,
      "duration": 0.1162,
      "velocity": 110,
      "chip": "ym2612"
    },
    {
      "channel": 0,
      "note": 58,
      "start": 35.9383,
      "duration": 0.078,
      "velocity": 117,
      "chip": "ym2612"
    },
    {
      "channel": 3,
      "note": 58,
      "start": 35.9786,
      "duration": 0.0601,
      "velocity": 117,
      "chip": "ym2612"
    },
    {
      "channel": 0,
      "note": 59,
      "start": 36.0183,
      "duration": 0.058,
      "velocity": 117,
      "chip": "ym2612"
    },
    {
      "channel": 1,
      "note": 60,
      "start": 36.0205,
      "duration": 0.118,
      "velocity": 117,
      "chip": "ym2612"
    },
    {
      "channel": 2,
      "note": 23,
      "start": 36.0386,
      "duration": 0.1021,
      "velocity": 127,
      "chip": "ym2612"
    },
    {
      "channel": 3,
      "note": 60,
      "start": 36.0411,
      "duration": 0.0755,
      "velocity": 117,
      "chip": "ym2612"
    },
    {
      "channel": 4,
      "note": 62,
      "start": 36.0432,
      "duration": 0.1383,
      "velocity": 117,
      "chip": "ym2612"
    },
    {
      "channel": 5,
      "note": 38,
      "start": 36.0454,
      "duration": 0.1386,
      "velocity": 110,
      "chip": "ym2612"
    },
    {
      "channel": 0,
      "note": 58,
      "start": 36.0783,
      "duration": 0.058,
      "velocity": 117,
      "chip": "ym2612"
    },
    {
      "channel": 3,
      "note": 59,
      "start": 36.1186,
      "duration": 0.0607,
      "velocity": 117,
      "chip": "ym2612"
    },
    {
      "channel": 0,
      "note": 59,
      "start": 36.1383,
      "duration": 0.078,
      "velocity": 117,
      "chip": "ym2612"
    },
    {
      "channel": 1,
      "note": 61,
      "start": 36.1405,
      "duration": 0.1383,
      "velocity": 117,
      "chip": "ym2612"
    },
    {
      "channel": 2,
      "note": 26,
      "start": 36.1792,
      "duration": 0.1017,
      "velocity": 127,
      "chip": "ym2612"
    },
    {
      "channel": 3,
      "note": 60,
      "start": 36.1814,
      "duration": 0.0373,
      "velocity": 117,
      "chip": "ym2612"
    },
    {
      "channel": 4,
      "note": 71,
      "start": 36.1838,
      "duration": 0.0529,
      "velocity": 117,
      "chip": "ym2612"
    },
    {
      "channel": 5,
      "note": 47,
      "start": 36.1863,
      "duration": 0.0525,
      "velocity": 110,
      "chip": "ym2612"
    },
    {
      "channel": 0,
      "note": 58,
      "start": 36.2183,
      "duration": 0.058,
      "velocity": 117,
      "chip": "ym2612"
    },
    {
      "channel": 3,
      "note": 59,
      "start": 36.2207,
      "duration": 0.0603,
      "velocity": 117,
      "chip": "ym2612"
    },
    {
      "channel": 4,
      "note": 70,
      "start": 36.2387,
      "duration": 0.0801,
      "velocity": 117,
      "chip": "ym2612"
    },
    {
      "channel": 5,
      "note": 46,
      "start": 36.2409,
      "duration": 0.0801,
      "velocity": 110,
      "chip": "ym2612"
    },
    {
      "channel": 0,
      "note": 60,
      "start": 36.2786,
      "duration": 0.0578,
      "velocity": 117,
      "chip": "ym2612"
    },
    {
      "channel": 1,
      "note": 62,
      "start": 36.2807,
      "duration": 0.1377,
      "velocity": 117,
      "chip": "ym2612"
    },
    {
      "channel": 3,
      "note": 60,
      "start": 36.2831,
      "duration": 0.0555,
      "velocity": 117,
      "chip": "ym2612"
    },
    {
      "channel": 2,
      "note": 25,
      "start": 36.3186,
      "duration": 0.1024,
      "velocity": 127,
      "chip": "ym2612"
    },
    {
      "channel": 4,
      "note": 69,
      "start": 36.3209,
      "duration": 0.0558,
      "velocity": 117,
      "chip": "ym2612"
    },
    {
      "channel": 5,
      "note": 45,
      "start": 36.323,
      "duration": 0.0558,
      "velocity": 110,
      "chip": "ym2612"
    },
    {
      "channel": 0,
      "note": 59,
      "start": 36.3383,
      "duration": 0.078,
      "velocity": 117,
      "chip": "ym2612"
    },
    {
      "channel": 3,
      "note": 59,
      "start": 36.3407,
      "duration": 0.0803,
      "velocity": 117,
      "chip": "ym2612"
    },
    {
      "channel": 4,
      "note": 68,
      "start": 36.3787,
      "duration": 0.0622,
      "velocity": 117,
      "chip": "ym2612"
    },
    {
      "channel": 5,
      "note": 44,
      "start": 36.3809,
      "duration": 0.0622,
      "velocity": 110,
      "chip": "ym2612"
    },
    {
      "channel": 0,
      "note": 60,
      "start": 36.4183,
      "duration": 0.018,
      "velocity": 117,
      "chip": "ym2612"
    },
    {
      "channel": 1,
      "note": 71,
      "start": 36.4207,
      "duration": 0.0556,
      "velocity": 117,
      "chip": "ym2612"
    },
    {
      "channel": 3,
      "note": 60,
      "start": 36.4231,
      "duration": 0.0555,
      "velocity": 117,
      "chip": "ym2612"
    },
    {
      "channel": 0,
      "note": 59,
      "start": 36.4383,
      "duration": 0.078,
      "velocity": 117,
      "chip": "ym2612"
    },
    {
      "channel": 2,
      "note": 25,
      "start": 36.4407,
      "duration": 0.0979,
      "velocity": 127,
      "chip": "ym2612"
    },
    {
      "channel": 4,
      "note": 67,
      "start": 36.4429,
      "duration": 0.0758,
      "velocity": 117,
      "chip": "ym2612"
    },
    {
      "channel": 5,
      "note": 43,
      "start": 36.4451,
      "duration": 0.0758,
      "velocity": 110,
      "chip": "ym2612"
    },
    {
      "channel": 1,
      "note": 70,
      "start": 36.4784,
      "duration": 0.058,
      "velocity": 117,
      "chip": "ym2612"
    },
    {
      "channel": 3,
      "note": 59,
      "start": 36.4807,
      "duration": 0.058,
      "velocity": 117,
      "chip": "ym2612"
    },
    {
      "channel": 0,
      "note": 60,
      "start": 36.5183,
      "duration": 0.058,
      "velocity": 117,
      "chip": "ym2612"
    },
    {
      "channel": 4,
      "note": 66,
      "start": 36.5208,
      "duration": 0.0601,
      "velocity": 117,
      "chip": "ym2612"
    },
    {
      "channel": 5,
      "note": 42,
      "start": 36.523,
      "duration": 0.0601,
      "velocity": 110,
      "chip": "ym2612"
    },
    {
      "channel": 1,
      "note": 69,
      "start": 36.5384,
      "duration": 0.078,
      "velocity": 117,
      "chip": "ym2612"
    },
    {
      "channel": 3,
      "note": 60,
      "start": 36.5409,
      "duration": 0.0778,
      "velocity": 117,
      "chip": "ym2612"
    },
    {
      "channel": 0,
      "note": 59,
      "start": 36.5783,
      "duration": 0.058,
      "velocity": 117,
      "chip": "ym2612"
    },
    {
      "channel": 2,
      "note": 24,
      "start": 36.5807,
      "duration": 0.0979,
      "velocity": 127,
      "chip": "ym2612"
    },
    {
      "channel": 4,
      "note": 65,
      "start": 36.5829,
      "duration": 0.0558,
      "velocity": 117,
      "chip": "ym2612"
    },
    {
      "channel": 5,
      "note": 41,
      "start": 36.5851,
      "duration": 0.0558,
      "velocity": 110,
      "chip": "ym2612"
    },
    {
      "channel": 1,
      "note": 68,
      "start": 36.6184,
      "duration": 0.058,
      "velocity": 117,
      "chip": "ym2612"
    },
    {
      "channel": 3,
      "note": 59,
      "start": 36.6207,
      "duration": 0.058,
      "velocity": 117,
      "chip": "ym2612"
    },
    {
      "channel": 0,
      "note": 60,
      "start": 36.6383,
      "duration": 0.078,
      "velocity": 117,
      "chip": "ym2612"
    },
    {
      "channel": 4,
      "note": 64,
      "start": 36.6408,
      "duration": 0.0828,
      "velocity": 117,
      "chip": "ym2612"
    },
    {
      "channel": 5,
      "note": 40,
      "start": 36.643,
      "duration": 0.0828,
      "velocity": 110,
      "chip": "ym2612"
    },
    {
      "channel": 1,
      "note": 67,
      "start": 36.6784,
      "duration": 0.058,
      "velocity": 117,
      "chip": "ym2612"
    },
    {
      "channel": 3,
      "note": 60,
      "start": 36.6808,
      "duration": 0.0406,
      "velocity": 117,
      "chip": "ym2612"
    },
    {
      "channel": 0,
      "note": 59,
      "start": 36.7183,
      "duration": 0.058,
      "velocity": 117,
      "chip": "ym2612"
    },
    {
      "channel": 2,
      "note": 27,
      "start": 36.7213,
      "duration": 0.0973,
      "velocity": 127,
      "chip": "ym2612"
    },
    {
      "channel": 3,
      "note": 59,
      "start": 36.7234,
      "duration": 0.0553,
      "velocity": 117,
      "chip": "ym2612"
    },
    {
      "channel": 4,
      "note": 60,
      "start": 36.7256,
      "duration": 0.1174,
      "velocity": 117,
      "chip": "ym2612"
    },
    {
      "channel": 5,
      "note": 36,
      "start": 36.7278,
      "duration": 0.1174,
      "velocity": 110,
      "chip": "ym2612"
    },
    {
      "channel": 1,
      "note": 66,
      "start": 36.7384,
      "duration": 0.078,
      "velocity": 117,
      "chip": "ym2612"
    },
    {
      "channel": 0,
      "note": 60,
      "start": 36.7784,
      "duration": 0.058,
      "velocity": 117,
      "chip": "ym2612"
    },
    {
      "channel": 3,
      "note": 60,
      "start": 36.7808,
      "duration": 0.06,
      "velocity": 117,
      "chip": "ym2612"
    },
    {
      "channel": 1,
      "note": 65,
      "start": 36.8184,
      "duration": 0.058,
      "velocity": 117,
      "chip": "ym2612"
    },
    {
      "channel": 0,
      "note": 59,
      "start": 36.8383,
      "duration": 0.078,
      "velocity": 117,
      "chip": "ym2612"
    },
    {
      "channel": 2,
      "note": 26,
      "start": 36.8407,
      "duration": 0.1,
      "velocity": 127,
      "chip": "ym2612"
    },
    {
      "channel": 3,
      "note": 59,
      "start": 36.8429,
      "duration": 0.0758,
      "velocity": 117,
      "chip": "ym2612"
    },
    {
      "channel": 4,
      "note": 61,
      "start": 36.845,
      "duration": 0.1359,
      "velocity": 117,
      "chip": "ym2612"
    },
    {
      "channel": 5,
      "note": 37,
      "start": 36.8472,
      "duration": 0.1359,
      "velocity": 110,
      "chip": "ym2612"
    },
    {
      "channel": 1,
      "note": 64,
      "start": 36.8784,
      "duration": 0.0601,
      "velocity": 117,
      "chip": "ym2612"
    },
    {
      "channel": 0,
      "note": 60,
      "start": 36.9183,
      "duration": 0.018,
      "velocity": 117,
      "chip": "ym2612"
    },
    {
      "channel": 3,
      "note": 60,
      "start": 36.9207,
      "duration": 0.058,
      "velocity": 117,
      "chip": "ym2612"
    },
    {
      "channel": 0,
      "note": 59,
      "start": 36.9383,
      "duration": 0.078,
      "velocity": 117,
      "chip": "ym2612"
    },
    {
      "channel": 1,
      "note": 60,
      "start": 36.9405,
      "duration": 0.138,
      "velocity": 117,
      "chip": "ym2612"
    },
    {
      "channel": 2,
      "note": 26,
      "start": 36.9786,
      "duration": 0.1021,
      "velocity": 127,
      "chip": "ym2612"
    },
    {
      "channel": 3,
      "note": 59,
      "start": 36.9808,
      "duration": 0.0558,
      "velocity": 117,
      "chip": "ym2612"
    },
    {
      "channel": 4,
      "note": 62,
      "start": 36.983,
      "duration": 0.1379,
      "velocity": 117,
      "chip": "ym2612"
    },
    {
      "channel": 5,
      "note": 38,
      "start": 36.9851,
      "duration": 0.138,
      "velocity": 110,
      "chip": "ym2612"
    },
    {
      "channel": 0,
      "note": 60,
      "start": 37.0183,
      "duration": 0.058,
      "velocity": 117,
      "chip": "ym2612"
    },
    {
      "channel": 3,
      "note": 61,
      "start": 37.0389,
      "duration": 0.0798,
      "velocity": 117,
      "chip": "ym2612"
    },
    {
      "channel": 0,
      "note": 59,
      "start": 37.0783,
      "duration": 0.058,
      "velocity": 117,
      "chip": "ym2612"
    },
    {
      "channel": 1,
      "note": 61,
      "start": 37.0805,
      "duration": 0.138,
      "velocity": 117,
      "chip": "ym2612"
    },
    {
      "channel": 2,
      "note": 25,
      "start": 37.1186,
      "duration": 0.1021,
      "velocity": 127,
      "chip": "ym2612"
    },
    {
      "channel": 3,
      "note": 60,
      "start": 37.1208,
      "duration": 0.0558,
      "velocity": 117,
      "chip": "ym2612"
    },
    {
      "channel": 4,
      "note": 63,
      "start": 37.123,
      "duration": 0.1164,
      "velocity": 117,
      "chip": "ym2612"
    },
    {
      "channel": 5,
      "note": 39,
      "start": 37.1251,
      "duration": 0.1168,
      "velocity": 110,
      "chip": "ym2612"
    },
    {
      "channel": 0,
      "note": 60,
      "start": 37.1383,
      "duration": 0.078,
      "velocity": 117,
      "chip": "ym2612"
    },
    {
      "channel": 3,
      "note": 61,
      "start": 37.1786,
      "duration": 0.0422,
      "velocity": 117,
      "chip": "ym2612"
    },
    {
      "channel": 0,
      "note": 59,
      "start": 37.2183,
      "duration": 0.058,
      "velocity": 117,
      "chip": "ym2612"
    },
    {
      "channel": 1,
      "note": 62,
      "start": 37.2205,
      "duration": 0.118,
      "velocity": 117,
      "chip": "ym2612"
    },
    {
      "channel": 3,
      "note": 60,
      "start": 37.2229,
      "duration": 0.056,
      "velocity": 117,
      "chip": "ym2612"
    },
    {
      "channel": 2,
      "note": 28,
      "start": 37.2392,
      "duration": 0.1015,
      "velocity": 127,
      "chip": "ym2612"
    },
    {
      "channel": 4,
      "note": 72,
      "start": 37.2417,
      "duration": 0.075,
      "velocity": 117,
      "chip": "ym2612"
    },
    {
      "channel": 5,
      "note": 48,
      "start": 37.2442,
      "duration": 0.0746,
      "velocity": 110,
      "chip": "ym2612"
    },
    {
      "channel": 0,
      "note": 61,
      "start": 37.2786,
      "duration": 0.0578,
      "velocity": 117,
      "chip": "ym2612"
    },
    {
      "channel": 3,
      "note": 61,
      "start": 37.281,
      "duration": 0.0598,
      "velocity": 117,
      "chip": "ym2612"
    },
    {
      "channel": 4,
      "note": 71,
      "start": 37.3187,
      "duration": 0.0601,
      "velocity": 117,
      "chip": "ym2612"
    },
    {
      "channel": 5,
      "note": 47,
      "start": 37.3209,
      "duration": 0.0601,
      "velocity": 110,
      "chip": "ym2612"
    },
    {
      "channel": 0,
      "note": 60,
      "start": 37.3383,
      "duration": 0.078,
      "velocity": 117,
      "chip": "ym2612"
    },
    {
      "channel": 1,
      "note": 63,
      "start": 37.3405,
      "duration": 0.1359,
      "velocity": 117,
      "chip": "ym2612"
    },
    {
      "channel": 3,
      "note": 60,
      "start": 37.3429,
      "duration": 0.0758,
      "velocity": 117,
      "chip": "ym2612"
    },
    {
      "channel": 2,
      "note": 27,
      "start": 37.3786,
      "duration": 0.1002,
      "velocity": 127,
      "chip": "ym2612"
    },
    {
      "channel": 4,
      "note": 70,
      "start": 37.3809,
      "duration": 0.0578,
      "velocity": 117,
      "chip": "ym2612"
    },
    {
      "channel": 5,
      "note": 46,
      "start": 37.383,
      "duration": 0.0579,
      "velocity": 110,
      "chip": "ym2612"
    },
    {
      "channel": 0,
      "note": 61,
      "start": 37.4183,
      "duration": 0.018,
      "velocity": 117,
      "chip": "ym2612"
    },
    {
      "channel": 3,
      "note": 61,
      "start": 37.4207,
      "duration": 0.0582,
      "velocity": 117,
      "chip": "ym2612"
    },
    {
      "channel": 0,
      "note": 60,
      "start": 37.4383,
      "duration": 0.078,
      "velocity": 117,
      "chip": "ym2612"
    },
    {
      "channel": 4,
      "note": 69,
      "start": 37.4408,
      "duration": 0.0801,
      "velocity": 117,
      "chip": "ym2612"
    },
    {
      "channel": 5,
      "note": 45,
      "start": 37.443,
      "duration": 0.0801,
      "velocity": 110,
      "chip": "ym2612"
    },
    {
      "channel": 1,
      "note": 72,
      "start": 37.4786,
      "duration": 0.0578,
      "velocity": 117,
      "chip": "ym2612"
    },
    {
      "channel": 3,
      "note": 60,
      "start": 37.4811,
      "duration": 0.0576,
      "velocity": 117,
      "chip": "ym2612"
    },
    {
      "channel": 0,
      "note": 61,
      "start": 37.5183,
      "duration": 0.058,
      "velocity": 117,
      "chip": "ym2612"
    },
    {
      "channel": 2,
      "note": 27,
      "start": 37.5207,
      "duration": 0.0979,
      "velocity": 127,
      "chip": "ym2612"
    },
    {
      "channel": 4,
      "note": 68,
      "start": 37.5229,
      "duration": 0.0558,
      "velocity": 117,
      "chip": "ym2612"
    },
    {
      "channel": 5,
      "note": 44,
      "start": 37.5251,
      "duration": 0.0558,
      "velocity": 110,
      "chip": "ym2612"
    },
    {
      "channel": 1,
      "note": 71,
      "start": 37.5384,
      "duration": 0.078,
      "velocity": 117,
      "chip": "ym2612"
    },
    {
      "channel": 3,
      "note": 61,
      "start": 37.5408,
      "duration": 0.0779,
      "velocity": 117,
      "chip": "ym2612"
    },
    {
      "channel": 0,
      "note": 60,
      "start": 37.5783,
      "duration": 0.058,
      "velocity": 117,
      "chip": "ym2612"
    },
    {
      "channel": 4,
      "note": 67,
      "start": 37.5808,
      "duration": 0.0601,
      "velocity": 117,
      "chip": "ym2612"
    },
    {
      "channel": 5,
      "note": 43,
      "start": 37.583,
      "duration": 0.0601,
      "velocity": 110,
      "chip": "ym2612"
    },
    {
      "channel": 1,
      "note": 70,
      "start": 37.6184,
      "duration": 0.058,
      "velocity": 117,
      "chip": "ym2612"
    },
    {
      "channel": 3,
      "note": 60,
      "start": 37.6208,
      "duration": 0.0578,
      "velocity": 117,
      "chip": "ym2612"
    },
    {
      "channel": 0,
      "note": 61,
      "start": 37.6383,
      "duration": 0.078,
      "velocity": 117,
      "chip": "ym2612"
    },
    {
      "channel": 2,
      "note": 26,
      "start": 37.6407,
      "duration": 0.0979,
      "velocity": 127,
      "chip": "ym2612"
    },
    {
      "channel": 4,
      "note": 66,
      "start": 37.6429,
      "duration": 0.078,
      "velocity": 117,
      "chip": "ym2612"
    },
    {
      "channel": 5,
      "note": 42,
      "start": 37.6451,
      "duration": 0.0779,
      "velocity": 110,
      "chip": "ym2612"
    },
    {
      "channel": 1,
      "note": 69,
      "start": 37.6784,
      "duration": 0.058,
      "velocity": 117,
      "chip": "ym2612"
    },
    {
      "channel": 3,
      "note": 61,
      "start": 37.6807,
      "duration": 0.038,
      "velocity": 117,
      "chip": "ym2612"
    },
    {
      "channel": 0,
      "note": 60,
      "start": 37.7183,
      "duration": 0.058,
      "velocity": 117,
      "chip": "ym2612"
    },
    {
      "channel": 3,
      "note": 60,
      "start": 37.7207,
      "duration": 0.0607,
      "velocity": 117,
      "chip": "ym2612"
    },
    {
      "channel": 4,
      "note": 65,
      "start": 37.7229,
      "duration": 0.0608,
      "velocity": 117,
      "chip": "ym2612"
    },
    {
      "channel": 5,
      "note": 41,
      "start": 37.7251,
      "duration": 0.0607,
      "velocity": 110,
      "chip": "ym2612"
    },
    {
      "channel": 1,
      "note": 68,
      "start": 37.7384,
      "duration": 0.078,
      "velocity": 117,
      "chip": "ym2612"
    },
    {
      "channel": 0,
      "note": 61,
      "start": 37.7784,
      "duration": 0.058,
      "velocity": 117,
      "chip": "ym2612"
    },
    {
      "channel": 2,
      "note": 29,
      "start": 37.7813,
      "duration": 0.0973,
      "velocity": 127,
      "chip": "ym2612"
    },
    {
      "channel": 3,
      "note": 61,
      "start": 37.7835,
      "duration": 0.0551,
      "velocity": 117,
      "chip": "ym2612"
    },
    {
      "channel": 4,
      "note": 61,
      "start": 37.7857,
      "duration": 0.1373,
      "velocity": 117,
      "chip": "ym2612"
    },
    {
      "channel": 5,
      "note": 37,
      "start": 37.7878,
      "duration": 0.1373,
      "velocity": 110,
      "chip": "ym2612"
    },
    {
      "channel": 1,
      "note": 67,
      "start": 37.8184,
      "duration": 0.058,
      "velocity": 117,
      "chip": "ym2612"
    },
    {
      "channel": 0,
      "note": 60,
      "start": 37.8383,
      "duration": 0.078,
      "velocity": 117,
      "chip": "ym2612"
    },
    {
      "channel": 3,
      "note": 60,
      "start": 37.8407,
      "duration": 0.0801,
      "velocity": 117,
      "chip": "ym2612"
    },
    {
      "channel": 1,
      "note": 66,
      "start": 37.8784,
      "duration": 0.0601,
      "velocity": 117,
      "chip": "ym2612"
    },
    {
      "channel": 0,
      "note": 61,
      "start": 37.9183,
      "duration": 0.018,
      "velocity": 117,
      "chip": "ym2612"
    },
    {
      "channel": 2,
      "note": 28,
      "start": 37.9207,
      "duration": 0.1,
      "velocity": 127,
      "chip": "ym2612"
    },
    {
      "channel": 3,
      "note": 61,
      "start": 37.9229,
      "duration": 0.0537,
      "velocity": 117,
      "chip": "ym2612"
    },
    {
      "channel": 4,
      "note": 62,
      "start": 37.925,
      "duration": 0.1161,
      "velocity": 117,
      "chip": "ym2612"
    },
    {
      "channel": 5,
      "note": 38,
      "start": 37.9272,
      "duration": 0.1161,
      "velocity": 110,
      "chip": "ym2612"
    },
    {
      "channel": 0,
      "note": 60,
      "start": 37.9383,
      "duration": 0.078,
      "velocity": 117,
      "chip": "ym2612"
    },
    {
      "channel": 1,
      "note": 65,
      "start": 37.9405,
      "duration": 0.078,
      "velocity": 117,
      "chip": "ym2612"
    },
    {
      "channel": 3,
      "note": 60,
      "start": 37.9786,
      "duration": 0.0601,
      "velocity": 117,
      "chip": "ym2612"
    },
    {
      "channel": 0,
      "note": 61,
      "start": 38.0183,
      "duration": 0.058,
      "velocity": 117,
      "chip": "ym2612"
    },
    {
      "channel": 1,
      "note": 61,
      "start": 38.0205,
      "duration": 0.118,
      "velocity": 117,
      "chip": "ym2612"
    },
    {
      "channel": 2,
      "note": 28,
      "start": 38.0386,
      "duration": 0.1021,
      "velocity": 127,
      "chip": "ym2612"
    },
    {
      "channel": 4,
      "note": 63,
      "start": 38.0432,
      "duration": 0.1356,
      "velocity": 117,
      "chip": "ym2612"
    },
    {
      "channel": 5,
      "note": 39,
      "start": 38.0454,
      "duration": 0.1356,
      "velocity": 110,
      "chip": "ym2612"
    },
    {
      "channel": 0,
      "note": 60,
      "start": 38.0783,
      "duration": 0.058,
      "velocity": 117,
      "chip": "ym2612"
    },
    {
      "channel": 3,
      "note": 57,
      "start": 38.0807,
      "duration": 0.0601,
      "velocity": 117,
      "chip": "ym2612"
    },
    {
      "channel": 0,
      "note": 61,
      "start": 38.1383,
      "duration": 0.078,
      "velocity": 117,
      "chip": "ym2612"
    },
    {
      "channel": 1,
      "note": 62,
      "start": 38.1405,
      "duration": 0.1382,
      "velocity": 117,
      "chip": "ym2612"
    },
    {
      "channel": 3,
      "note": 58,
      "start": 38.1429,
      "duration": 0.0758,
      "velocity": 117,
      "chip": "ym2612"
    },
    {
      "channel": 2,
      "note": 27,
      "start": 38.1786,
      "duration": 0.1023,
      "velocity": 127,
      "chip": "ym2612"
    },
    {
      "channel": 4,
      "note": 64,
      "start": 38.1809,
      "duration": 0.1406,
      "velocity": 117,
      "chip": "ym2612"
    },
    {
      "channel": 5,
      "note": 40,
      "start": 38.183,
      "duration": 0.1409,
      "velocity": 110,
      "chip": "ym2612"
    },
    {
      "channel": 0,
      "note": 60,
      "start": 38.2183,
      "duration": 0.058,
      "velocity": 117,
      "chip": "ym2612"
    },
    {
      "channel": 3,
      "note": 59,
      "start": 38.2207,
      "duration": 0.0602,
      "velocity": 117,
      "chip": "ym2612"
    },
    {
      "channel": 1,
      "note": 63,
      "start": 38.2807,
      "duration": 0.1157,
      "velocity": 117,
      "chip": "ym2612"
    },
    {
      "channel": 3,
      "note": 60,
      "start": 38.283,
      "duration": 0.0536,
      "velocity": 117,
      "chip": "ym2612"
    },
    {
      "channel": 0,
      "note": 57,
      "start": 38.3183,
      "duration": 0.058,
      "velocity": 117,
      "chip": "ym2612"
    },
    {
      "channel": 2,
      "note": 30,
      "start": 38.3213,
      "duration": 0.0773,
      "velocity": 127,
      "chip": "ym2612"
    },
    {
      "channel": 4,
      "note": 45,
      "start": 38.3238,
      "duration": 0.0549,
      "velocity": 117,
      "chip": "ym2612"
    },
    {
      "channel": 5,
      "note": 33,
      "start": 38.3264,
      "duration": 0.0546,
      "velocity": 110,
      "chip": "ym2612"
    },
    {
      "channel": 3,
      "note": 61,
      "start": 38.3386,
      "duration": 0.0601,
      "velocity": 117,
      "chip": "ym2612"
    },
    {
      "channel": 0,
      "note": 58,
      "start": 38.3783,
      "duration": 0.058,
      "velocity": 117,
      "chip": "ym2612"
    },
    {
      "channel": 4,
      "note": 46,
      "start": 38.3808,
      "duration": 0.0601,
      "velocity": 117,
      "chip": "ym2612"
    },
    {
      "channel": 5,
      "note": 34,
      "start": 38.383,
      "duration": 0.0601,
      "velocity": 110,
      "chip": "ym2612"
    },
    {
      "channel": 1,
      "note": 64,
      "start": 38.3984,
      "duration": 0.138,
      "velocity": 117,
      "chip": "ym2612"
    },
    {
      "channel": 3,
      "note": 62,
      "start": 38.4008,
      "duration": 0.0758,
      "velocity": 117,
      "chip": "ym2612"
    },
    {
      "channel": 0,
      "note": 59,
      "start": 38.4383,
      "duration": 0.058,
      "velocity": 117,
      "chip": "ym2612"
    },
    {
      "channel": 2,
      "note": 29,
      "start": 38.4407,
      "duration": 0.0981,
      "velocity": 127,
      "chip": "ym2612"
    },
    {
      "channel": 4,
      "note": 47,
      "start": 38.4429,
      "duration": 0.0558,
      "velocity": 117,
      "chip": "ym2612"
    },
    {
      "channel": 5,
      "note": 35,
      "start": 38.4451,
      "duration": 0.0558,
      "velocity": 110,
      "chip": "ym2612"
    },
    {
      "channel": 3,
      "note": 63,
      "start": 38.4786,
      "duration": 0.0603,
      "velocity": 117,
      "chip": "ym2612"
    },
    {
      "channel": 0,
      "note": 60,
      "start": 38.4983,
      "duration": 0.078,
      "velocity": 117,
      "chip": "ym2612"
    },
    {
      "channel": 4,
      "note": 48,
      "start": 38.5008,
      "duration": 0.0801,
      "velocity": 117,
      "chip": "ym2612"
    },
    {
      "channel": 5,
      "note": 36,
      "start": 38.503,
      "duration": 0.0801,
      "velocity": 110,
      "chip": "ym2612"
    },
    {
      "channel": 1,
      "note": 45,
      "start": 38.5386,
      "duration": 0.0578,
      "velocity": 117,
      "chip": "ym2612"
    },
    {
      "channel": 3,
      "note": 64,
      "start": 38.5411,
      "duration": 0.0576,
      "velocity": 117,
      "chip": "ym2612"
    },
    {
      "channel": 0,
      "note": 61,
      "start": 38.5783,
      "duration": 0.058,
      "velocity": 117,
      "chip": "ym2612"
    },
    {
      "channel": 2,
      "note": 29,
      "start": 38.5807,
      "duration": 0.0979,
      "velocity": 127,
      "chip": "ym2612"
    },
    {
      "channel": 4,
      "note": 49,
      "start": 38.5829,
      "duration": 0.0558,
      "velocity": 117,
      "chip": "ym2612"
    },
    {
      "channel": 5,
      "note": 37,
      "start": 38.5851,
      "duration": 0.0558,
      "velocity": 110,
      "chip": "ym2612"
    },
    {
      "channel": 1,
      "note": 46,
      "start": 38.5984,
      "duration": 0.078,
      "velocity": 117,
      "chip": "ym2612"
    },
    {
      "channel": 3,
      "note": 65,
      "start": 38.6007,
      "duration": 0.078,
      "velocity": 117,
      "chip": "ym2612"
    },
    {
      "channel": 0,
      "note": 62,
      "start": 38.6383,
      "duration": 0.058,
      "velocity": 117,
      "chip": "ym2612"
    },
    {
      "channel": 4,
      "note": 50,
      "start": 38.6408,
      "duration": 0.0601,
      "velocity": 117,
      "chip": "ym2612"
    },
    {
      "channel": 5,
      "note": 38,
      "start": 38.643,
      "duration": 0.0601,
      "velocity": 110,
      "chip": "ym2612"
    },
    {
      "channel": 1,
      "note": 47,
      "start": 38.6784,
      "duration": 0.058,
      "velocity": 117,
      "chip": "ym2612"
    },
    {
      "channel": 3,
      "note": 64,
      "start": 38.6808,
      "duration": 0.0578,
      "velocity": 117,
      "chip": "ym2612"
    },
    {
      "channel": 0,
      "note": 63,
      "start": 38.6983,
      "duration": 0.078,
      "velocity": 117,
      "chip": "ym2612"
    },
    {
      "channel": 2,
      "note": 28,
      "start": 38.7007,
      "duration": 0.0979,
      "velocity": 127,
      "chip": "ym2612"
    },
    {
      "channel": 4,
      "note": 51,
      "start": 38.7029,
      "duration": 0.0758,
      "velocity": 117,
      "chip": "ym2612"
    },
    {
      "channel": 5,
      "note": 39,
      "start": 38.7051,
      "duration": 0.0758,
      "velocity": 110,
      "chip": "ym2612"
    },
    {
      "channel": 1,
      "note": 48,
      "start": 38.7384,
      "duration": 0.058,
      "velocity": 117,
      "chip": "ym2612"
    },
    {
      "channel": 3,
      "note": 63,
      "start": 38.7407,
      "duration": 0.058,
      "velocity": 117,
      "chip": "ym2612"
    },
    {
      "channel": 0,
      "note": 64,
      "start": 38.7783,
      "duration": 0.058,
      "velocity": 117,
      "chip": "ym2612"
    },
    {
      "channel": 4,
      "note": 52,
      "start": 38.7808,
      "duration": 0.0607,
      "velocity": 117,
      "chip": "ym2612"
    },
    {
      "channel": 5,
      "note": 40,
      "start": 38.783,
      "duration": 0.0607,
      "velocity": 110,
      "chip": "ym2612"
    },
    {
      "channel": 1,
      "note": 49,
      "start": 38.7984,
      "duration": 0.078,
      "velocity": 117,
      "chip": "ym2612"
    },
    {
      "channel": 3,
      "note": 62,
      "start": 38.8008,
      "duration": 0.0778,
      "velocity": 117,
      "chip": "ym2612"
    },
    {
      "channel": 0,
      "note": 65,
      "start": 38.8383,
      "duration": 0.058,
      "velocity": 117,
      "chip": "ym2612"
    },
    {
      "channel": 2,
      "note": 31,
      "start": 38.8413,
      "duration": 0.0973,
      "velocity": 127,
      "chip": "ym2612"
    },
    {
      "channel": 4,
      "note": 53,
      "start": 38.8436,
      "duration": 0.0551,
      "velocity": 117,
      "chip": "ym2612"
    },
    {
      "channel": 5,
      "note": 41,
      "start": 38.8457,
      "duration": 0.0552,
      "velocity": 110,
      "chip": "ym2612"
    },
    {
      "channel": 1,
      "note": 50,
      "start": 38.8784,
      "duration": 0.058,
      "velocity": 117,
      "chip": "ym2612"
    },
    {
      "channel": 3,
      "note": 61,
      "start": 38.8807,
      "duration": 0.058,
      "velocity": 117,
      "chip": "ym2612"
    },
    {
      "channel": 0,
      "note": 64,
      "start": 38.8983,
      "duration": 0.078,
      "velocity": 117,
      "chip": "ym2612"
    },
    {
      "channel": 4,
      "note": 52,
      "start": 38.9008,
      "duration": 0.0801,
      "velocity": 117,
      "chip": "ym2612"
    },
    {
      "channel": 5,
      "note": 40,
      "start": 38.903,
      "duration": 0.0801,
      "velocity": 110,
      "chip": "ym2612"
    },
    {
      "channel": 1,
      "note": 51,
      "start": 38.9384,
      "duration": 0.058,
      "velocity": 117,
      "chip": "ym2612"
    },
    {
      "channel": 3,
      "note": 60,
      "start": 38.9408,
      "duration": 0.0578,
      "velocity": 117,
      "chip": "ym2612"
    },
    {
      "channel": 0,
      "note": 63,
      "start": 38.9783,
      "duration": 0.058,
      "velocity": 117,
      "chip": "ym2612"
    },
    {
      "channel": 2,
      "note": 30,
      "start": 38.9807,
      "duration": 0.0979,
      "velocity": 127,
      "chip": "ym2612"
    },
    {
      "channel": 4,
      "note": 51,
      "start": 38.9829,
      "duration": 0.0558,
      "velocity": 117,
      "chip": "ym2612"
    },
    {
      "channel": 5,
      "note": 39,
      "start": 38.9851,
      "duration": 0.0558,
      "velocity": 110,
      "chip": "ym2612"
    },
    {
      "channel": 1,
      "note": 52,
      "start": 38.9984,
      "duration": 0.078,
      "velocity": 117,
      "chip": "ym2612"
    },
    {
      "channel": 3,
      "note": 59,
      "start": 39.0007,
      "duration": 0.078,
      "velocity": 117,
      "chip": "ym2612"
    },
    {
      "channel": 0,
      "note": 62,
      "start": 39.0383,
      "duration": 0.058,
      "velocity": 117,
      "chip": "ym2612"
    },
    {
      "channel": 4,
      "note": 50,
      "start": 39.0408,
      "duration": 0.0624,
      "velocity": 117,
      "chip": "ym2612"
    },
    {
      "channel": 5,
      "note": 38,
      "start": 39.043,
      "duration": 0.0624,
      "velocity": 110,
      "chip": "ym2612"
    },
    {
      "channel": 1,
      "note": 53,
      "start": 39.0784,
      "duration": 0.058,
      "velocity": 117,
      "chip": "ym2612"
    },
    {
      "channel": 3,
      "note": 58,
      "start": 39.0808,
      "duration": 0.02,
      "velocity": 117,
      "chip": "ym2612"
    },
    {
      "channel": 0,
      "note": 61,
      "start": 39.0983,
      "duration": 0.078,
      "velocity": 117,
      "chip": "ym2612"
    },
    {
      "channel": 2,
      "note": 30,
      "start": 39.1007,
      "duration": 0.0979,
      "velocity": 127,
      "chip": "ym2612"
    },
    {
      "channel": 4,
      "note": 49,
      "start": 39.1052,
      "duration": 0.0735,
      "velocity": 117,
      "chip": "ym2612"
    },
    {
      "channel": 5,
      "note": 37,
      "start": 39.1074,
      "duration": 0.0735,
      "velocity": 110,
      "chip": "ym2612"
    },
    {
      "channel": 1,
      "note": 52,
      "start": 39.1384,
      "duration": 0.058,
      "velocity": 117,
      "chip": "ym2612"
    },
    {
      "channel": 3,
      "note": 59,
      "start": 39.1407,
      "duration": 0.058,
      "velocity": 117,
      "chip": "ym2612"
    },
    {
      "channel": 0,
      "note": 60,
      "start": 39.1783,
      "duration": 0.058,
      "velocity": 117,
      "chip": "ym2612"
    },
    {
      "channel": 4,
      "note": 48,
      "start": 39.1808,
      "duration": 0.0601,
      "velocity": 117,
      "chip": "ym2612"
    },
    {
      "channel": 5,
      "note": 36,
      "start": 39.183,
      "duration": 0.0601,
      "velocity": 110,
      "chip": "ym2612"
    },
    {
      "channel": 1,
      "note": 51,
      "start": 39.1984,
      "duration": 0.078,
      "velocity": 117,
      "chip": "ym2612"
    },
    {
      "channel": 3,
      "note": 60,
      "start": 39.2008,
      "duration": 0.0778,
      "velocity": 117,
      "chip": "ym2612"
    },
    {
      "channel": 0,
      "note": 59,
      "start": 39.2383,
      "duration": 0.058,
      "velocity": 117,
      "chip": "ym2612"
    },
    {
      "channel": 2,
      "note": 29,
      "start": 39.2407,
      "duration": 0.1002,
      "velocity": 127,
      "chip": "ym2612"
    },
    {
      "channel": 4,
      "note": 47,
      "start": 39.2429,
      "duration": 0.0558,
      "velocity": 117,
      "chip": "ym2612"
    },
    {
      "channel": 5,
      "note": 35,
      "start": 39.2451,
      "duration": 0.0558,
      "velocity": 110,
      "chip": "ym2612"
    },
    {
      "channel": 1,
      "note": 50,
      "start": 39.2784,
      "duration": 0.0603,
      "velocity": 117,
      "chip": "ym2612"
    },
    {
      "channel": 3,
      "note": 61,
      "start": 39.2807,
      "duration": 0.0603,
      "velocity": 117,
      "chip": "ym2612"
    },
    {
      "channel": 0,
      "note": 58,
      "start": 39.2983,
      "duration": 0.038,
      "velocity": 117,
      "chip": "ym2612"
    },
    {
      "channel": 4,
      "note": 46,
      "start": 39.3008,
      "duration": 0.0807,
      "velocity": 117,
      "chip": "ym2612"
    },
    {
      "channel": 5,
      "note": 34,
      "start": 39.303,
      "duration": 0.081,
      "velocity": 110,
      "chip": "ym2612"
    },
    {
      "channel": 1,
      "note": 49,
      "start": 39.3407,
      "duration": 0.0557,
      "velocity": 117,
      "chip": "ym2612"
    },
    {
      "channel": 3,
      "note": 62,
      "start": 39.343,
      "duration": 0.0556,
      "velocity": 117,
      "chip": "ym2612"
    },
    {
      "channel": 0,
      "note": 59,
      "start": 39.3783,
      "duration": 0.058,
      "velocity": 117,
      "chip": "ym2612"
    },
    {
      "channel": 2,
      "note": 32,
      "start": 39.3813,
      "duration": 0.0973,
      "velocity": 127,
      "chip": "ym2612"
    },
    {
      "channel": 4,
      "note": 47,
      "start": 39.3838,
      "duration": 0.0549,
      "velocity": 117,
      "chip": "ym2612"
    },
    {
      "channel": 5,
      "note": 35,
      "start": 39.3862,
      "duration": 0.0547,
      "velocity": 110,
      "chip": "ym2612"
    },
    {
      "channel": 1,
      "note": 48,
      "start": 39.3984,
      "duration": 0.078,
      "velocity": 117,
      "chip": "ym2612"
    },
    {
      "channel": 3,
      "note": 63,
      "start": 39.4007,
      "duration": 0.078,
      "velocity": 117,
      "chip": "ym2612"
    },
    {
      "channel": 0,
      "note": 60,
      "start": 39.4383,
      "duration": 0.058,
      "velocity": 117,
      "chip": "ym2612"
    },
    {
      "channel": 4,
      "note": 48,
      "start": 39.4408,
      "duration": 0.0601,
      "velocity": 117,
      "chip": "ym2612"
    },
    {
      "channel": 5,
      "note": 36,
      "start": 39.443,
      "duration": 0.0601,
      "velocity": 110,
      "chip": "ym2612"
    },
    {
      "channel": 1,
      "note": 47,
      "start": 39.4784,
      "duration": 0.058,
      "velocity": 117,
      "chip": "ym2612"
    },
    {
      "channel": 3,
      "note": 64,
      "start": 39.4808,
      "duration": 0.0578,
      "velocity": 117,
      "chip": "ym2612"
    },
    {
      "channel": 0,
      "note": 61,
      "start": 39.4983,
      "duration": 0.078,
      "velocity": 117,
      "chip": "ym2612"
    },
    {
      "channel": 2,
      "note": 31,
      "start": 39.5007,
      "duration": 0.0981,
      "velocity": 127,
      "chip": "ym2612"
    },
    {
      "channel": 4,
      "note": 49,
      "start": 39.5029,
      "duration": 0.0758,
      "velocity": 117,
      "chip": "ym2612"
    },
    {
      "channel": 5,
      "note": 37,
      "start": 39.5051,
      "duration": 0.0758,
      "velocity": 110,
      "chip": "ym2612"
    },
    {
      "channel": 1,
      "note": 46,
      "start": 39.5384,
      "duration": 0.058,
      "velocity": 117,
      "chip": "ym2612"
    },
    {
      "channel": 3,
      "note": 65,
      "start": 39.5407,
      "duration": 0.0583,
      "velocity": 117,
      "chip": "ym2612"
    },
    {
      "channel": 0,
      "note": 62,
      "start": 39.5783,
      "duration": 0.058,
      "velocity": 117,
      "chip": "ym2612"
    },
    {
      "channel": 4,
      "note": 50,
      "start": 39.5808,
      "duration": 0.0601,
      "velocity": 117,
      "chip": "ym2612"
    },
    {
      "channel": 5,
      "note": 38,
      "start": 39.583,
      "duration": 0.0601,
      "velocity": 110,
      "chip": "ym2612"
    },
    {
      "channel": 1,
      "note": 47,
      "start": 39.5986,
      "duration": 0.0778,
      "velocity": 117,
      "chip": "ym2612"
    },
    {
      "channel": 3,
      "note": 66,
      "start": 39.6011,
      "duration": 0.0776,
      "velocity": 117,
      "chip": "ym2612"
    },
    {
      "channel": 0,
      "note": 63,
      "start": 39.6383,
      "duration": 0.058,
      "velocity": 117,
      "chip": "ym2612"
    },
    {
      "channel": 2,
      "note": 31,
      "start": 39.6407,
      "duration": 0.0979,
      "velocity": 127,
      "chip": "ym2612"
    },
    {
      "channel": 4,
      "note": 51,
      "start": 39.6429,
      "duration": 0.0558,
      "velocity": 117,
      "chip": "ym2612"
    },
    {
      "channel": 5,
      "note": 39,
      "start": 39.6451,
      "duration": 0.0558,
      "velocity": 110,
      "chip": "ym2612"
    },
    {
      "channel": 1,
      "note": 48,
      "start": 39.6784,
      "duration": 0.058,
      "velocity": 117,
      "chip": "ym2612"
    },
    {
      "channel": 3,
      "note": 67,
      "start": 39.6807,
      "duration": 0.058,
      "velocity": 117,
      "chip": "ym2612"
    },
    {
      "channel": 0,
      "note": 64,
      "start": 39.6983,
      "duration": 0.078,
      "velocity": 117,
      "chip": "ym2612"
    },
    {
      "channel": 4,
      "note": 52,
      "start": 39.7008,
      "duration": 0.0801,
      "velocity": 117,
      "chip": "ym2612"
    },
    {
      "channel": 5,
      "note": 40,
      "start": 39.703,
      "duration": 0.0801,
      "velocity": 110,
      "chip": "ym2612"
    },
    {
      "channel": 1,
      "note": 49,
      "start": 39.7384,
      "duration": 0.058,
      "velocity": 117,
      "chip": "ym2612"
    },
    {
      "channel": 3,
      "note": 66,
      "start": 39.7408,
      "duration": 0.0578,
      "velocity": 117,
      "chip": "ym2612"
    },
    {
      "channel": 0,
      "note": 65,
      "start": 39.7783,
      "duration": 0.058,
      "velocity": 117,
      "chip": "ym2612"
    },
    {
      "channel": 2,
      "note": 30,
      "start": 39.7807,
      "duration": 0.0979,
      "velocity": 127,
      "chip": "ym2612"
    },
    {
      "channel": 4,
      "note": 53,
      "start": 39.7829,
      "duration": 0.0558,
      "velocity": 117,
      "chip": "ym2612"
    },
    {
      "channel": 5,
      "note": 41,
      "start": 39.7851,
      "duration": 0.0558,
      "velocity": 110,
      "chip": "ym2612"
    },
    {
      "channel": 1,
      "note": 50,
      "start": 39.7984,
      "duration": 0.078,
      "velocity": 117,
      "chip": "ym2612"
    },
    {
      "channel": 3,
      "note": 65,
      "start": 39.8007,
      "duration": 0.078,
      "velocity": 117,
      "chip": "ym2612"
    },
    {
      "channel": 0,
      "note": 66,
      "start": 39.8383,
      "duration": 0.058,
      "velocity": 117,
      "chip": "ym2612"
    },
    {
      "channel": 4,
      "note": 54,
      "start": 39.8408,
      "duration": 0.0607,
      "velocity": 117,
      "chip": "ym2612"
    },
    {
      "channel": 5,
      "note": 42,
      "start": 39.843,
      "duration": 0.0607,
      "velocity": 110,
      "chip": "ym2612"
    },
    {
      "channel": 1,
      "note": 51,
      "start": 39.8784,
      "duration": 0.058,
      "velocity": 117,
      "chip": "ym2612"
    },
    {
      "channel": 3,
      "note": 64,
      "start": 39.8808,
      "duration": 0.0578,
      "velocity": 117,
      "chip": "ym2612"
    },
    {
      "channel": 0,
      "note": 67,
      "start": 39.8983,
      "duration": 0.078,
      "velocity": 117,
      "chip": "ym2612"
    },
    {
      "channel": 2,
      "note": 33,
      "start": 39.9013,
      "duration": 0.0973,
      "velocity": 127,
      "chip": "ym2612"
    },
    {
      "channel": 4,
      "note": 55,
      "start": 39.9036,
      "duration": 0.0751,
      "velocity": 117,
      "chip": "ym2612"
    },
    {
      "channel": 5,
      "note": 43,
      "start": 39.9057,
      "duration": 0.0752,
      "velocity": 110,
      "chip": "ym2612"
    },
    {
      "channel": 1,
      "note": 52,
      "start": 39.9384,
      "duration": 0.058,
      "velocity": 117,
      "chip": "ym2612"
    },
    {
      "channel": 3,
      "note": 63,
      "start": 39.9407,
      "duration": 0.058,
      "velocity": 117,
      "chip": "ym2612"
    },
    {
      "channel": 0,
      "note": 66,
      "start": 39.9783,
      "duration": 0.058,
      "velocity": 117,
      "chip": "ym2612"
    },
    {
      "channel": 4,
      "note": 54,
      "start": 39.9808,
      "duration": 0.0601,
      "velocity": 117,
      "chip": "ym2612"
    },
    {
      "channel": 5,
      "note": 42,
      "start": 39.983,
      "duration": 0.0601,
      "velocity": 110,
      "chip": "ym2612"
    },
    {
      "channel": 1,
      "note": 53,
      "start": 39.9984,
      "duration": 0.078,
      "velocity": 117,
      "chip": "ym2612"
    },
    {
      "channel": 3,
      "note": 62,
      "start": 40.0008,
      "duration": 0.0778,
      "velocity": 117,
      "chip": "ym2612"
    },
    {
      "channel": 0,
      "note": 65,
      "start": 40.0383,
      "duration": 0.058,
      "velocity": 117,
      "chip": "ym2612"
    },
    {
      "channel": 2,
      "note": 32,
      "start": 40.0407,
      "duration": 0.0979,
      "velocity": 127,
      "chip": "ym2612"
    },
    {
      "channel": 4,
      "note": 53,
      "start": 40.0429,
      "duration": 0.0558,
      "velocity": 117,
      "chip": "ym2612"
    },
    {
      "channel": 5,
      "note": 41,
      "start": 40.0451,
      "duration": 0.0558,
      "velocity": 110,
      "chip": "ym2612"
    },
    {
      "channel": 1,
      "note": 54,
      "start": 40.0784,
      "duration": 0.058,
      "velocity": 117,
      "chip": "ym2612"
    },
    {
      "channel": 3,
      "note": 61,
      "start": 40.0807,
      "duration": 0.058,
      "velocity": 117,
      "chip": "ym2612"
    },
    {
      "channel": 0,
      "note": 64,
      "start": 40.0983,
      "duration": 0.078,
      "velocity": 117,
      "chip": "ym2612"
    },
    {
      "channel": 4,
      "note": 52,
      "start": 40.1008,
      "duration": 0.0824,
      "velocity": 117,
      "chip": "ym2612"
    },
    {
      "channel": 5,
      "note": 40,
      "start": 40.103,
      "duration": 0.0824,
      "velocity": 110,
      "chip": "ym2612"
    },
    {
      "channel": 1,
      "note": 55,
      "start": 40.1384,
      "duration": 0.058,
      "velocity": 117,
      "chip": "ym2612"
    },
    {
      "channel": 3,
      "note": 60,
      "start": 40.1408,
      "duration": 0.04,
      "velocity": 117,
      "chip": "ym2612"
    },
    {
      "channel": 0,
      "note": 63,
      "start": 40.1783,
      "duration": 0.058,
      "velocity": 117,
      "chip": "ym2612"
    },
    {
      "channel": 2,
      "note": 32,
      "start": 40.1807,
      "duration": 0.0979,
      "velocity": 127,
      "chip": "ym2612"
    },
    {
      "channel": 4,
      "note": 51,
      "start": 40.1852,
      "duration": 0.0535,
      "velocity": 117,
      "chip": "ym2612"
    },
    {
      "channel": 5,
      "note": 39,
      "start": 40.1874,
      "duration": 0.0535,
      "velocity": 110,
      "chip": "ym2612"
    },
    {
      "channel": 1,
      "note": 54,
      "start": 40.1984,
      "duration": 0.078,
      "velocity": 117,
      "chip": "ym2612"
    },
    {
      "channel": 3,
      "note": 61,
      "start": 40.2007,
      "duration": 0.078,
      "velocity": 117,
      "chip": "ym2612"
    },
    {
      "channel": 0,
      "note": 62,
      "start": 40.2383,
      "duration": 0.058,
      "velocity": 117,
      "chip": "ym2612"
    },
    {
      "channel": 4,
      "note": 50,
      "start": 40.2408,
      "duration": 0.0601,
      "velocity": 117,
      "chip": "ym2612"
    },
    {
      "channel": 5,
      "note": 38,
      "start": 40.243,
      "duration": 0.0601,
      "velocity": 110,
      "chip": "ym2612"
    },
    {
      "channel": 1,
      "note": 53,
      "start": 40.2784,
      "duration": 0.058,
      "velocity": 117,
      "chip": "ym2612"
    },
    {
      "channel": 3,
      "note": 62,
      "start": 40.2808,
      "duration": 0.0578,
      "velocity": 117,
      "chip": "ym2612"
    },
    {
      "channel": 0,
      "note": 61,
      "start": 40.2983,
      "duration": 0.078,
      "velocity": 117,
      "chip": "ym2612"
    },
    {
      "channel": 2,
      "note": 31,
      "start": 40.3007,
      "duration": 0.1002,
      "velocity": 127,
      "chip": "ym2612"
    },
    {
      "channel": 4,
      "note": 49,
      "start": 40.3029,
      "duration": 0.0758,
      "velocity": 117,
      "chip": "ym2612"
    },
    {
      "channel": 5,
      "note": 37,
      "start": 40.3051,
      "duration": 0.0758,
      "velocity": 110,
      "chip": "ym2612"
    },
    {
      "channel": 1,
      "note": 52,
      "start": 40.3384,
      "duration": 0.0603,
      "velocity": 117,
      "chip": "ym2612"
    },
    {
      "channel": 3,
      "note": 63,
      "start": 40.3407,
      "duration": 0.0603,
      "velocity": 117,
      "chip": "ym2612"
    },
    {
      "channel": 0,
      "note": 60,
      "start": 40.3783,
      "duration": 0.018,
      "velocity": 117,
      "chip": "ym2612"
    },
    {
      "channel": 4,
      "note": 48,
      "start": 40.3808,
      "duration": 0.0607,
      "velocity": 117,
      "chip": "ym2612"
    },
    {
      "channel": 5,
      "note": 36,
      "start": 40.383,
      "duration": 0.061,
      "velocity": 110,
      "chip": "ym2612"
    },
    {
      "channel": 1,
      "note": 51,
      "start": 40.4007,
      "duration": 0.0757,
      "velocity": 117,
      "chip": "ym2612"
    },
    {
      "channel": 3,
      "note": 64,
      "start": 40.403,
      "duration": 0.0756,
      "velocity": 117,
      "chip": "ym2612"
    },
    {
      "channel": 0,
      "note": 61,
      "start": 40.4383,
      "duration": 0.058,
      "velocity": 117,
      "chip": "ym2612"
    },
    {
      "channel": 2,
      "note": 34,
      "start": 40.4413,
      "duration": 0.0973,
      "velocity": 127,
      "chip": "ym2612"
    },
    {
      "channel": 4,
      "note": 49,
      "start": 40.4438,
      "duration": 0.0549,
      "velocity": 117,
      "chip": "ym2612"
    },
    {
      "channel": 5,
      "note": 37,
      "start": 40.4462,
      "duration": 0.0547,
      "velocity": 110,
      "chip": "ym2612"
    },
    {
      "channel": 1,
      "note": 50,
      "start": 40.4784,
      "duration": 0.058,
      "velocity": 117,
      "chip": "ym2612"
    },
    {
      "channel": 3,
      "note": 65,
      "start": 40.4807,
      "duration": 0.058,
      "velocity": 117,
      "chip": "ym2612"
    },
    {
      "channel": 0,
      "note": 62,
      "start": 40.4983,
      "duration": 0.078,
      "velocity": 117,
      "chip": "ym2612"
    },
    {
      "channel": 4,
      "note": 50,
      "start": 40.5008,
      "duration": 0.0801,
      "velocity": 117,
      "chip": "ym2612"
    },
    {
      "channel": 5,
      "note": 38,
      "start": 40.503,
      "duration": 0.0801,
      "velocity": 110,
      "chip": "ym2612"
    },
    {
      "channel": 1,
      "note": 49,
      "start": 40.5384,
      "duration": 0.058,
      "velocity": 117,
      "chip": "ym2612"
    },
    {
      "channel": 3,
      "note": 66,
      "start": 40.5408,
      "duration": 0.0578,
      "velocity": 117,
      "chip": "ym2612"
    },
    {
      "channel": 0,
      "note": 63,
      "start": 40.5783,
      "duration": 0.058,
      "velocity": 117,
      "chip": "ym2612"
    },
    {
      "channel": 2,
      "note": 33,
      "start": 40.5807,
      "duration": 0.0981,
      "velocity": 127,
      "chip": "ym2612"
    },
    {
      "channel": 4,
      "note": 51,
      "start": 40.5829,
      "duration": 0.0558,
      "velocity": 117,
      "chip": "ym2612"
    },
    {
      "channel": 5,
      "note": 39,
      "start": 40.5851,
      "duration": 0.0558,
      "velocity": 110,
      "chip": "ym2612"
    },
    {
      "channel": 1,
      "note": 48,
      "start": 40.5984,
      "duration": 0.078,
      "velocity": 117,
      "chip": "ym2612"
    },
    {
      "channel": 3,
      "note": 67,
      "start": 40.6007,
      "duration": 0.0783,
      "velocity": 117,
      "chip": "ym2612"
    },
    {
      "channel": 0,
      "note": 64,
      "start": 40.6383,
      "duration": 0.058,
      "velocity": 117,
      "chip": "ym2612"
    },
    {
      "channel": 4,
      "note": 52,
      "start": 40.6408,
      "duration": 0.0601,
      "velocity": 117,
      "chip": "ym2612"
    },
    {
      "channel": 5,
      "note": 40,
      "start": 40.643,
      "duration": 0.0601,
      "velocity": 110,
      "chip": "ym2612"
    },
    {
      "channel": 1,
      "note": 49,
      "start": 40.6786,
      "duration": 0.0578,
      "velocity": 117,
      "chip": "ym2612"
    },
    {
      "channel": 3,
      "note": 68,
      "start": 40.6811,
      "duration": 0.0576,
      "velocity": 117,
      "chip": "ym2612"
    },
    {
      "channel": 0,
      "note": 65,
      "start": 40.6983,
      "duration": 0.078,
      "velocity": 117,
      "chip": "ym2612"
    },
    {
      "channel": 2,
      "note": 33,
      "start": 40.7007,
      "duration": 0.0979,
      "velocity": 127,
      "chip": "ym2612"
    },
    {
      "channel": 4,
      "note": 53,
      "start": 40.7029,
      "duration": 0.0758,
      "velocity": 117,
      "chip": "ym2612"
    },
    {
      "channel": 5,
      "note": 41,
      "start": 40.7051,
      "duration": 0.0758,
      "velocity": 110,
      "chip": "ym2612"
    },
    {
      "channel": 1,
      "note": 50,
      "start": 40.7384,
      "duration": 0.058,
      "velocity": 117,
      "chip": "ym2612"
    },
    {
      "channel": 3,
      "note": 69,
      "start": 40.7407,
      "duration": 0.058,
      "velocity": 117,
      "chip": "ym2612"
    },
    {
      "channel": 0,
      "note": 66,
      "start": 40.7783,
      "duration": 0.058,
      "velocity": 117,
      "chip": "ym2612"
    },
    {
      "channel": 4,
      "note": 54,
      "start": 40.7808,
      "duration": 0.0601,
      "velocity": 117,
      "chip": "ym2612"
    },
    {
      "channel": 5,
      "note": 42,
      "start": 40.783,
      "duration": 0.0601,
      "velocity": 110,
      "chip": "ym2612"
    },
    {
      "channel": 1,
      "note": 51,
      "start": 40.7984,
      "duration": 0.078,
      "velocity": 117,
      "chip": "ym2612"
    },
    {
      "channel": 3,
      "note": 68,
      "start": 40.8008,
      "duration": 0.0778,
      "velocity": 117,
      "chip": "ym2612"
    },
    {
      "channel": 0,
      "note": 67,
      "start": 40.8383,
      "duration": 0.058,
      "velocity": 117,
      "chip": "ym2612"
    },
    {
      "channel": 2,
      "note": 32,
      "start": 40.8407,
      "duration": 0.0979,
      "velocity": 127,
      "chip": "ym2612"
    },
    {
      "channel": 4,
      "note": 55,
      "start": 40.8429,
      "duration": 0.0558,
      "velocity": 117,
      "chip": "ym2612"
    },
    {
      "channel": 5,
      "note": 43,
      "start": 40.8451,
      "duration": 0.0558,
      "velocity": 110,
      "chip": "ym2612"
    },
    {
      "channel": 1,
      "note": 52,
      "start": 40.8784,
      "duration": 0.058,
      "velocity": 117,
      "chip": "ym2612"
    },
    {
      "channel": 3,
      "note": 67,
      "start": 40.8807,
      "duration": 0.058,
      "velocity": 117,
      "chip": "ym2612"
    },
    {
      "channel": 0,
      "note": 68,
      "start": 40.8983,
      "duration": 0.058,
      "velocity": 117,
      "chip": "ym2612"
    },
    {
      "channel": 4,
      "note": 56,
      "start": 40.9008,
      "duration": 0.0607,
      "velocity": 117,
      "chip": "ym2612"
    },
    {
      "channel": 5,
      "note": 44,
      "start": 40.903,
      "duration": 0.0607,
      "velocity": 110,
      "chip": "ym2612"
    },
    {
      "channel": 1,
      "note": 53,
      "start": 40.9384,
      "duration": 0.058,
      "velocity": 117,
      "chip": "ym2612"
    },
    {
      "channel": 3,
      "note": 66,
      "start": 40.9408,
      "duration": 0.0578,
      "velocity": 117,
      "chip": "ym2612"
    },
    {
      "channel": 0,
      "note": 69,
      "start": 40.9583,
      "duration": 0.078,
      "velocity": 117,
      "chip": "ym2612"
    },
    {
      "channel": 2,
      "note": 35,
      "start": 40.9613,
      "duration": 0.0973,
      "velocity": 127,
      "chip": "ym2612"
    },
    {
      "channel": 4,
      "note": 57,
      "start": 40.9636,
      "duration": 0.0751,
      "velocity": 117,
      "chip": "ym2612"
    },
    {
      "channel": 5,
      "note": 45,
      "start": 40.9657,
      "duration": 0.0752,
      "velocity": 110,
      "chip": "ym2612"
    },
    {
      "channel": 1,
      "note": 54,
      "start": 40.9984,
      "duration": 0.058,
      "velocity": 117,
      "chip": "ym2612"
    },
    {
      "channel": 3,
      "note": 65,
      "start": 41.0007,
      "duration": 0.058,
      "velocity": 117,
      "chip": "ym2612"
    },
    {
      "channel": 0,
      "note": 68,
      "start": 41.0383,
      "duration": 0.058,
      "velocity": 117,
      "chip": "ym2612"
    },
    {
      "channel": 4,
      "note": 56,
      "start": 41.0408,
      "duration": 0.0601,
      "velocity": 117,
      "chip": "ym2612"
    },
    {
      "channel": 5,
      "note": 44,
      "start": 41.043,
      "duration": 0.0601,
      "velocity": 110,
      "chip": "ym2612"
    },
    {
      "channel": 1,
      "note": 55,
      "start": 41.0584,
      "duration": 0.078,
      "velocity": 117,
      "chip": "ym2612"
    },
    {
      "channel": 3,
      "note": 64,
      "start": 41.0608,
      "duration": 0.0778,
      "velocity": 117,
      "chip": "ym2612"
    },
    {
      "channel": 0,
      "note": 67,
      "start": 41.0983,
      "duration": 0.058,
      "velocity": 117,
      "chip": "ym2612"
    },
    {
      "channel": 2,
      "note": 34,
      "start": 41.1007,
      "duration": 0.0979,
      "velocity": 127,
      "chip": "ym2612"
    },
    {
      "channel": 4,
      "note": 55,
      "start": 41.1029,
      "duration": 0.0558,
      "velocity": 117,
      "chip": "ym2612"
    },
    {
      "channel": 5,
      "note": 43,
      "start": 41.1051,
      "duration": 0.0558,
      "velocity": 110,
      "chip": "ym2612"
    },
    {
      "channel": 1,
      "note": 56,
      "start": 41.1384,
      "duration": 0.058,
      "velocity": 117,
      "chip": "ym2612"
    },
    {
      "channel": 3,
      "note": 63,
      "start": 41.1407,
      "duration": 0.058,
      "velocity": 117,
      "chip": "ym2612"
    },
    {
      "channel": 0,
      "note": 66,
      "start": 41.1583,
      "duration": 0.078,
      "velocity": 117,
      "chip": "ym2612"
    },
    {
      "channel": 4,
      "note": 54,
      "start": 41.1608,
      "duration": 0.0824,
      "velocity": 117,
      "chip": "ym2612"
    },
    {
      "channel": 5,
      "note": 42,
      "start": 41.163,
      "duration": 0.0824,
      "velocity": 110,
      "chip": "ym2612"
    },
    {
      "channel": 1,
      "note": 57,
      "start": 41.1984,
      "duration": 0.058,
      "velocity": 117,
      "chip": "ym2612"
    },
    {
      "channel": 3,
      "note": 62,
      "start": 41.2008,
      "duration": 0.04,
      "velocity": 117,
      "chip": "ym2612"
    },
    {
      "channel": 0,
      "note": 65,
      "start": 41.2383,
      "duration": 0.058,
      "velocity": 117,
      "chip": "ym2612"
    },
    {
      "channel": 2,
      "note": 34,
      "start": 41.2407,
      "duration": 0.0979,
      "velocity": 127,
      "chip": "ym2612"
    },
    {
      "channel": 4,
      "note": 53,
      "start": 41.2452,
      "duration": 0.0535,
      "velocity": 117,
      "chip": "ym2612"
    },
    {
      "channel": 5,
      "note": 41,
      "start": 41.2474,
      "duration": 0.0535,
      "velocity": 110,
      "chip": "ym2612"
    },
    {
      "channel": 1,
      "note": 56,
      "start": 41.2584,
      "duration": 0.078,
      "velocity": 117,
      "chip": "ym2612"
    },
    {
      "channel": 3,
      "note": 63,
      "start": 41.2607,
      "duration": 0.078,
      "velocity": 117,
      "chip": "ym2612"
    },
    {
      "channel": 0,
      "note": 64,
      "start": 41.2983,
      "duration": 0.058,
      "velocity": 117,
      "chip": "ym2612"
    },
    {
      "channel": 4,
      "note": 52,
      "start": 41.3008,
      "duration": 0.0601,
      "velocity": 117,
      "chip": "ym2612"
    },
    {
      "channel": 5,
      "note": 40,
      "start": 41.303,
      "duration": 0.0601,
      "velocity": 110,
      "chip": "ym2612"
    },
    {
      "channel": 1,
      "note": 55,
      "start": 41.3384,
      "duration": 0.058,
      "velocity": 117,
      "chip": "ym2612"
    },
    {
      "channel": 3,
      "note": 64,
      "start": 41.3408,
      "duration": 0.0578,
      "velocity": 117,
      "chip": "ym2612"
    },
    {
      "channel": 0,
      "note": 63,
      "start": 41.3583,
      "duration": 0.078,
      "velocity": 117,
      "chip": "ym2612"
    },
    {
      "channel": 2,
      "note": 33,
      "start": 41.3607,
      "duration": 0.1002,
      "velocity": 127,
      "chip": "ym2612"
    },
    {
      "channel": 4,
      "note": 51,
      "start": 41.3629,
      "duration": 0.0758,
      "velocity": 117,
      "chip": "ym2612"
    },
    {
      "channel": 5,
      "note": 39,
      "start": 41.3651,
      "duration": 0.0758,
      "velocity": 110,
      "chip": "ym2612"
    },
    {
      "channel": 1,
      "note": 54,
      "start": 41.3984,
      "duration": 0.0603,
      "velocity": 117,
      "chip": "ym2612"
    },
    {
      "channel": 3,
      "note": 65,
      "start": 41.4007,
      "duration": 0.0603,
      "velocity": 117,
      "chip": "ym2612"
    },
    {
      "channel": 0,
      "note": 62,
      "start": 41.4383,
      "duration": 0.018,
      "velocity": 117,
      "chip": "ym2612"
    },
    {
      "channel": 4,
      "note": 50,
      "start": 41.4408,
      "duration": 0.0607,
      "velocity": 117,
      "chip": "ym2612"
    },
    {
      "channel": 5,
      "note": 38,
      "start": 41.443,
      "duration": 0.061,
      "velocity": 110,
      "chip": "ym2612"
    },
    {
      "channel": 1,
      "note": 53,
      "start": 41.4607,
      "duration": 0.0757,
      "velocity": 117,
      "chip": "ym2612"
    },
    {
      "channel": 3,
      "note": 66,
      "start": 41.463,
      "duration": 0.0756,
      "velocity": 117,
      "chip": "ym2612"
    },
    {
      "channel": 0,
      "note": 63,
      "start": 41.4983,
      "duration": 0.058,
      "velocity": 117,
      "chip": "ym2612"
    },
    {
      "channel": 2,
      "note": 36,
      "start": 41.5013,
      "duration": 0.0973,
      "velocity": 127,
      "chip": "ym2612"
    },
    {
      "channel": 4,
      "note": 51,
      "start": 41.5038,
      "duration": 0.0549,
      "velocity": 117,
      "chip": "ym2612"
    },
    {
      "channel": 5,
      "note": 39,
      "start": 41.5062,
      "duration": 0.0547,
      "velocity": 110,
      "chip": "ym2612"
    },
    {
      "channel": 1,
      "note": 52,
      "start": 41.5384,
      "duration": 0.058,
      "velocity": 117,
      "chip": "ym2612"
    },
    {
      "channel": 3,
      "note": 67,
      "start": 41.5407,
      "duration": 0.058,
      "velocity": 117,
      "chip": "ym2612"
    },
    {
      "channel": 0,
      "note": 64,
      "start": 41.5583,
      "duration": 0.078,
      "velocity": 117,
      "chip": "ym2612"
    },
    {
      "channel": 4,
      "note": 52,
      "start": 41.5608,
      "duration": 0.0801,
      "velocity": 117,
      "chip": "ym2612"
    },
    {
      "channel": 5,
      "note": 40,
      "start": 41.563,
      "duration": 0.0801,
      "velocity": 110,
      "chip": "ym2612"
    },
    {
      "channel": 1,
      "note": 51,
      "start": 41.5984,
      "duration": 0.058,
      "velocity": 117,
      "chip": "ym2612"
    },
    {
      "channel": 3,
      "note": 68,
      "start": 41.6008,
      "duration": 0.0578,
      "velocity": 117,
      "chip": "ym2612"
    },
    {
      "channel": 0,
      "note": 65,
      "start": 41.6383,
      "duration": 0.058,
      "velocity": 117,
      "chip": "ym2612"
    },
    {
      "channel": 2,
      "note": 35,
      "start": 41.6407,
      "duration": 0.0981,
      "velocity": 127,
      "chip": "ym2612"
    },
    {
      "channel": 4,
      "note": 53,
      "start": 41.6429,
      "duration": 0.0558,
      "velocity": 117,
      "chip": "ym2612"
    },
    {
      "channel": 5,
      "note": 41,
      "start": 41.6451,
      "duration": 0.0558,
      "velocity": 110,
      "chip": "ym2612"
    },
    {
      "channel": 1,
      "note": 50,
      "start": 41.6584,
      "duration": 0.078,
      "velocity": 117,
      "chip": "ym2612"
    },
    {
      "channel": 3,
      "note": 69,
      "start": 41.6607,
      "duration": 0.0783,
      "velocity": 117,
      "chip": "ym2612"
    },
    {
      "channel": 0,
      "note": 66,
      "start": 41.6983,
      "duration": 0.058,
      "velocity": 117,
      "chip": "ym2612"
    },
    {
      "channel": 4,
      "note": 54,
      "start": 41.7008,
      "duration": 0.0601,
      "velocity": 117,
      "chip": "ym2612"
    },
    {
      "channel": 5,
      "note": 42,
      "start": 41.703,
      "duration": 0.0601,
      "velocity": 110,
      "chip": "ym2612"
    },
    {
      "channel": 1,
      "note": 51,
      "start": 41.7386,
      "duration": 0.0578,
      "velocity": 117,
      "chip": "ym2612"
    },
    {
      "channel": 3,
      "note": 70,
      "start": 41.7411,
      "duration": 0.0576,
      "velocity": 117,
      "chip": "ym2612"
    },
    {
      "channel": 0,
      "note": 67,
      "start": 41.7583,
      "duration": 0.078,
      "velocity": 117,
      "chip": "ym2612"
    },
    {
      "channel": 2,
      "note": 35,
      "start": 41.7607,
      "duration": 0.0979,
      "velocity": 127,
      "chip": "ym2612"
    },
    {
      "channel": 4,
      "note": 55,
      "start": 41.7629,
      "duration": 0.0758,
      "velocity": 117,
      "chip": "ym2612"
    },
    {
      "channel": 5,
      "note": 43,
      "start": 41.7651,
      "duration": 0.0758,
      "velocity": 110,
      "chip": "ym2612"
    },
    {
      "channel": 1,
      "note": 52,
      "start": 41.7984,
      "duration": 0.058,
      "velocity": 117,
      "chip": "ym2612"
    },
    {
      "channel": 3,
      "note": 71,
      "start": 41.8007,
      "duration": 0.058,
      "velocity": 117,
      "chip": "ym2612"
    },
    {
      "channel": 0,
      "note": 68,
      "start": 41.8383,
      "duration": 0.058,
      "velocity": 117,
      "chip": "ym2612"
    },
    {
      "channel": 4,
      "note": 56,
      "start": 41.8408,
      "duration": 0.0601,
      "velocity": 117,
      "chip": "ym2612"
    },
    {
      "channel": 5,
      "note": 44,
      "start": 41.843,
      "duration": 0.0601,
      "velocity": 110,
      "chip": "ym2612"
    },
    {
      "channel": 1,
      "note": 53,
      "start": 41.8584,
      "duration": 0.078,
      "velocity": 117,
      "chip": "ym2612"
    },
    {
      "channel": 3,
      "note": 70,
      "start": 41.8608,
      "duration": 0.0778,
      "velocity": 117,
      "chip": "ym2612"
    },
    {
      "channel": 0,
      "note": 69,
      "start": 41.8983,
      "duration": 0.058,
      "velocity": 117,
      "chip": "ym2612"
    },
    {
      "channel": 2,
      "note": 34,
      "start": 41.9007,
      "duration": 0.0979,
      "velocity": 127,
      "chip": "ym2612"
    },
    {
      "channel": 4,
      "note": 57,
      "start": 41.9029,
      "duration": 0.0558,
      "velocity": 117,
      "chip": "ym2612"
    },
    {
      "channel": 5,
      "note": 45,
      "start": 41.9051,
      "duration": 0.0558,
      "velocity": 110,
      "chip": "ym2612"
    },
    {
      "channel": 1,
      "note": 54,
      "start": 41.9384,
      "duration": 0.058,
      "velocity": 117,
      "chip": "ym2612"
    },
    {
      "channel": 3,
      "note": 69,
      "start": 41.9407,
      "duration": 0.058,
      "velocity": 117,
      "chip": "ym2612"
    },
    {
      "channel": 0,
      "note": 70,
      "start": 41.9583,
      "duration": 0.078,
      "velocity": 117,
      "chip": "ym2612"
    },
    {
      "channel": 4,
      "note": 58,
      "start": 41.9608,
      "duration": 0.0807,
      "velocity": 117,
      "chip": "ym2612"
    },
    {
      "channel": 5,
      "note": 46,
      "start": 41.963,
      "duration": 0.0807,
      "velocity": 110,
      "chip": "ym2612"
    },
    {
      "channel": 1,
      "note": 55,
      "start": 41.9984,
      "duration": 0.058,
      "velocity": 117,
      "chip": "ym2612"
    },
    {
      "channel": 3,
      "note": 68,
      "start": 42.0008,
      "duration": 0.0578,
      "velocity": 117,
      "chip": "ym2612"
    },
    {
      "channel": 0,
      "note": 71,
      "start": 42.0383,
      "duration": 0.058,
      "velocity": 117,
      "chip": "ym2612"
    },
    {
      "channel": 2,
      "note": 37,
      "start": 42.0413,
      "duration": 0.0973,
      "velocity": 127,
      "chip": "ym2612"
    },
    {
      "channel": 4,
      "note": 59,
      "start": 42.0436,
      "duration": 0.0551,
      "velocity": 117,
      "chip": "ym2612"
    },
    {
      "channel": 5,
      "note": 47,
      "start": 42.0457,
      "duration": 0.0552,
      "velocity": 110,
      "chip": "ym2612"
    },
    {
      "channel": 1,
      "note": 56,
      "start": 42.0584,
      "duration": 0.078,
      "velocity": 117,
      "chip": "ym2612"
    },
    {
      "channel": 3,
      "note": 67,
      "start": 42.0607,
      "duration": 0.078,
      "velocity": 117,
      "chip": "ym2612"
    },
    {
      "channel": 0,
      "note": 70,
      "start": 42.0983,
      "duration": 0.058,
      "velocity": 117,
      "chip": "ym2612"
    },
    {
      "channel": 4,
      "note": 58,
      "start": 42.1008,
      "duration": 0.0601,
      "velocity": 117,
      "chip": "ym2612"
    },
    {
      "channel": 5,
      "note": 46,
      "start": 42.103,
      "duration": 0.0601,
      "velocity": 110,
      "chip": "ym2612"
    },
    {
      "channel": 1,
      "note": 57,
      "start": 42.1384,
      "duration": 0.058,
      "velocity": 117,
      "chip": "ym2612"
    },
    {
      "channel": 3,
      "note": 66,
      "start": 42.1408,
      "duration": 0.0578,
      "velocity": 117,
      "chip": "ym2612"
    },
    {
      "channel": 0,
      "note": 69,
      "start": 42.1583,
      "duration": 0.078,
      "velocity": 117,
      "chip": "ym2612"
    },
    {
      "channel": 2,
      "note": 36,
      "start": 42.1607,
      "duration": 0.0979,
      "velocity": 127,
      "chip": "ym2612"
    },
    {
      "channel": 4,
      "note": 57,
      "start": 42.1629,
      "duration": 0.0758,
      "velocity": 117,
      "chip": "ym2612"
    },
    {
      "channel": 5,
      "note": 45,
      "start": 42.1651,
      "duration": 0.0758,
      "velocity": 110,
      "chip": "ym2612"
    },
    {
      "channel": 1,
      "note": 58,
      "start": 42.1984,
      "duration": 0.058,
      "velocity": 117,
      "chip": "ym2612"
    },
    {
      "channel": 3,
      "note": 65,
      "start": 42.2007,
      "duration": 0.058,
      "velocity": 117,
      "chip": "ym2612"
    },
    {
      "channel": 0,
      "note": 68,
      "start": 42.2383,
      "duration": 0.058,
      "velocity": 117,
      "chip": "ym2612"
    },
    {
      "channel": 4,
      "note": 56,
      "start": 42.2408,
      "duration": 0.0624,
      "velocity": 117,
      "chip": "ym2612"
    },
    {
      "channel": 5,
      "note": 44,
      "start": 42.243,
      "duration": 0.0624,
      "velocity": 110,
      "chip": "ym2612"
    },
    {
      "channel": 1,
      "note": 59,
      "start": 42.2584,
      "duration": 0.078,
      "velocity": 117,
      "chip": "ym2612"
    },
    {
      "channel": 3,
      "note": 64,
      "start": 42.2608,
      "duration": 0.04,
      "velocity": 117,
      "chip": "ym2612"
    },
    {
      "channel": 0,
      "note": 67,
      "start": 42.2983,
      "duration": 0.058,
      "velocity": 117,
      "chip": "ym2612"
    },
    {
      "channel": 2,
      "note": 36,
      "start": 42.3007,
      "duration": 0.0979,
      "velocity": 127,
      "chip": "ym2612"
    },
    {
      "channel": 4,
      "note": 55,
      "start": 42.3052,
      "duration": 0.0535,
      "velocity": 117,
      "chip": "ym2612"
    },
    {
      "channel": 5,
      "note": 43,
      "start": 42.3074,
      "duration": 0.0535,
      "velocity": 110,
      "chip": "ym2612"
    },
    {
      "channel": 1,
      "note": 58,
      "start": 42.3384,
      "duration": 0.058,
      "velocity": 117,
      "chip": "ym2612"
    },
    {
      "channel": 3,
      "note": 65,
      "start": 42.3407,
      "duration": 0.058,
      "velocity": 117,
      "chip": "ym2612"
    },
    {
      "channel": 0,
      "note": 66,
      "start": 42.3583,
      "duration": 0.078,
      "velocity": 117,
      "chip": "ym2612"
    },
    {
      "channel": 4,
      "note": 54,
      "start": 42.3608,
      "duration": 0.0801,
      "velocity": 117,
      "chip": "ym2612"
    },
    {
      "channel": 5,
      "note": 42,
      "start": 42.363,
      "duration": 0.0801,
      "velocity": 110,
      "chip": "ym2612"
    },
    {
      "channel": 1,
      "note": 57,
      "start": 42.3984,
      "duration": 0.058,
      "velocity": 117,
      "chip": "ym2612"
    },
    {
      "channel": 3,
      "note": 66,
      "start": 42.4008,
      "duration": 0.0578,
      "velocity": 117,
      "chip": "ym2612"
    },
    {
      "channel": 0,
      "note": 65,
      "start": 42.4383,
      "duration": 0.058,
      "velocity": 117,
      "chip": "ym2612"
    },
    {
      "channel": 2,
      "note": 35,
      "start": 42.4407,
      "duration": 0.1002,
      "velocity": 127,
      "chip": "ym2612"
    },
    {
      "channel": 4,
      "note": 53,
      "start": 42.4429,
      "duration": 0.0558,
      "velocity": 117,
      "chip": "ym2612"
    },
    {
      "channel": 5,
      "note": 41,
      "start": 42.4451,
      "duration": 0.0558,
      "velocity": 110,
      "chip": "ym2612"
    },
    {
      "channel": 1,
      "note": 56,
      "start": 42.4584,
      "duration": 0.0803,
      "velocity": 117,
      "chip": "ym2612"
    },
    {
      "channel": 3,
      "note": 67,
      "start": 42.4607,
      "duration": 0.0803,
      "velocity": 117,
      "chip": "ym2612"
    },
    {
      "channel": 0,
      "note": 64,
      "start": 42.4983,
      "duration": 0.038,
      "velocity": 117,
      "chip": "ym2612"
    },
    {
      "channel": 4,
      "note": 52,
      "start": 42.5008,
      "duration": 0.0607,
      "velocity": 117,
      "chip": "ym2612"
    },
    {
      "channel": 5,
      "note": 40,
      "start": 42.503,
      "duration": 0.061,
      "velocity": 110,
      "chip": "ym2612"
    },
    {
      "channel": 1,
      "note": 55,
      "start": 42.5407,
      "duration": 0.0557,
      "velocity": 117,
      "chip": "ym2612"
    },
    {
      "channel": 3,
      "note": 68,
      "start": 42.543,
      "duration": 0.0556,
      "velocity": 117,
      "chip": "ym2612"
    },
    {
      "channel": 0,
      "note": 65,
      "start": 42.5583,
      "duration": 0.078,
      "velocity": 117,
      "chip": "ym2612"
    },
    {
      "channel": 2,
      "note": 38,
      "start": 42.5613,
      "duration": 0.0973,
      "velocity": 127,
      "chip": "ym2612"
    },
    {
      "channel": 4,
      "note": 53,
      "start": 42.5638,
      "duration": 0.0749,
      "velocity": 117,
      "chip": "ym2612"
    },
    {
      "channel": 5,
      "note": 41,
      "start": 42.5662,
      "duration": 0.0747,
      "velocity": 110,
      "chip": "ym2612"
    },
    {
      "channel": 1,
      "note": 54,
      "start": 42.5984,
      "duration": 0.058,
      "velocity": 117,
      "chip": "ym2612"
    },
    {
      "channel": 3,
      "note": 69,
      "start": 42.6007,
      "duration": 0.058,
      "velocity": 117,
      "chip": "ym2612"
    },
    {
      "channel": 0,
      "note": 66,
      "start": 42.6383,
      "duration": 0.058,
      "velocity": 117,
      "chip": "ym2612"
    },
    {
      "channel": 4,
      "note": 54,
      "start": 42.6408,
      "duration": 0.0601,
      "velocity": 117,
      "chip": "ym2612"
    },
    {
      "channel": 5,
      "note": 42,
      "start": 42.643,
      "duration": 0.0601,
      "velocity": 110,
      "chip": "ym2612"
    },
    {
      "channel": 1,
      "note": 53,
      "start": 42.6584,
      "duration": 0.078,
      "velocity": 117,
      "chip": "ym2612"
    },
    {
      "channel": 3,
      "note": 70,
      "start": 42.6608,
      "duration": 0.0778,
      "velocity": 117,
      "chip": "ym2612"
    },
    {
      "channel": 0,
      "note": 67,
      "start": 42.6983,
      "duration": 0.058,
      "velocity": 117,
      "chip": "ym2612"
    },
    {
      "channel": 2,
      "note": 37,
      "start": 42.7007,
      "duration": 0.0981,
      "velocity": 127,
      "chip": "ym2612"
    },
    {
      "channel": 4,
      "note": 55,
      "start": 42.7029,
      "duration": 0.0558,
      "velocity": 117,
      "chip": "ym2612"
    },
    {
      "channel": 5,
      "note": 43,
      "start": 42.7051,
      "duration": 0.0558,
      "velocity": 110,
      "chip": "ym2612"
    },
    {
      "channel": 1,
      "note": 52,
      "start": 42.7384,
      "duration": 0.058,
      "velocity": 117,
      "chip": "ym2612"
    },
    {
      "channel": 3,
      "note": 71,
      "start": 42.7407,
      "duration": 0.0583,
      "velocity": 117,
      "chip": "ym2612"
    },
    {
      "channel": 0,
      "note": 68,
      "start": 42.7583,
      "duration": 0.078,
      "velocity": 117,
      "chip": "ym2612"
    },
    {
      "channel": 4,
      "note": 56,
      "start": 42.7608,
      "duration": 0.0801,
      "velocity": 117,
      "chip": "ym2612"
    },
    {
      "channel": 5,
      "note": 44,
      "start": 42.763,
      "duration": 0.0801,
      "velocity": 110,
      "chip": "ym2612"
    },
    {
      "channel": 1,
      "note": 53,
      "start": 42.7986,
      "duration": 0.0578,
      "velocity": 117,
      "chip": "ym2612"
    },
    {
      "channel": 3,
      "note": 72,
      "start": 42.8011,
      "duration": 0.0576,
      "velocity": 117,
      "chip": "ym2612"
    },
    {
      "channel": 0,
      "note": 69,
      "start": 42.8383,
      "duration": 0.058,
      "velocity": 117,
      "chip": "ym2612"
    },
    {
      "channel": 2,
      "note": 37,
      "start": 42.8407,
      "duration": 0.0979,
      "velocity": 127,
      "chip": "ym2612"
    },
    {
      "channel": 4,
      "note": 57,
      "start": 42.8429,
      "duration": 0.0558,
      "velocity": 117,
      "chip": "ym2612"
    },
    {
      "channel": 5,
      "note": 45,
      "start": 42.8451,
      "duration": 0.0558,
      "velocity": 110,
      "chip": "ym2612"
    },
    {
      "channel": 1,
      "note": 54,
      "start": 42.8584,
      "duration": 0.078,
      "velocity": 117,
      "chip": "ym2612"
    },
    {
      "channel": 3,
      "note": 73,
      "start": 42.8607,
      "duration": 0.078,
      "velocity": 117,
      "chip": "ym2612"
    },
    {
      "channel": 0,
      "note": 70,
      "start": 42.8983,
      "duration": 0.058,
      "velocity": 117,
      "chip": "ym2612"
    },
    {
      "channel": 4,
      "note": 58,
      "start": 42.9008,
      "duration": 0.0601,
      "velocity": 117,
      "chip": "ym2612"
    },
    {
      "channel": 5,
      "note": 46,
      "start": 42.903,
      "duration": 0.0601,
      "velocity": 110,
      "chip": "ym2612"
    },
    {
      "channel": 1,
      "note": 55,
      "start": 42.9384,
      "duration": 0.058,
      "velocity": 117,
      "chip": "ym2612"
    },
    {
      "channel": 3,
      "note": 72,
      "start": 42.9408,
      "duration": 0.0578,
      "velocity": 117,
      "chip": "ym2612"
    },
    {
      "channel": 0,
      "note": 71,
      "start": 42.9583,
      "duration": 0.078,
      "velocity": 117,
      "chip": "ym2612"
    },
    {
      "channel": 2,
      "note": 36,
      "start": 42.9607,
      "duration": 0.0979,
      "velocity": 127,
      "chip": "ym2612"
    },
    {
      "channel": 4,
      "note": 59,
      "start": 42.9629,
      "duration": 0.0758,
      "velocity": 117,
      "chip": "ym2612"
    },
    {
      "channel": 5,
      "note": 47,
      "start": 42.9651,
      "duration": 0.0758,
      "velocity": 110,
      "chip": "ym2612"
    },
    {
      "channel": 1,
      "note": 56,
      "start": 42.9984,
      "duration": 0.058,
      "velocity": 117,
      "chip": "ym2612"
    },
    {
      "channel": 3,
      "note": 71,
      "start": 43.0007,
      "duration": 0.058,
      "velocity": 117,
      "chip": "ym2612"
    },
    {
      "channel": 0,
      "note": 72,
      "start": 43.0383,
      "duration": 0.058,
      "velocity": 117,
      "chip": "ym2612"
    },
    {
      "channel": 4,
      "note": 60,
      "start": 43.0408,
      "duration": 0.0607,
      "velocity": 117,
      "chip": "ym2612"
    },
    {
      "channel": 5,
      "note": 48,
      "start": 43.043,
      "duration": 0.0607,
      "velocity": 110,
      "chip": "ym2612"
    },
    {
      "channel": 1,
      "note": 57,
      "start": 43.0584,
      "duration": 0.078,
      "velocity": 117,
      "chip": "ym2612"
    },
    {
      "channel": 3,
      "note": 70,
      "start": 43.0608,
      "duration": 0.0778,
      "velocity": 117,
      "chip": "ym2612"
    },
    {
      "channel": 0,
      "note": 73,
      "start": 43.0983,
      "duration": 0.058,
      "velocity": 117,
      "chip": "ym2612"
    },
    {
      "channel": 2,
      "note": 39,
      "start": 43.1013,
      "duration": 0.0973,
      "velocity": 127,
      "chip": "ym2612"
    },
    {
      "channel": 4,
      "note": 61,
      "start": 43.1036,
      "duration": 0.0551,
      "velocity": 117,
      "chip": "ym2612"
    },
    {
      "channel": 5,
      "note": 49,
      "start": 43.1057,
      "duration": 0.0552,
      "velocity": 110,
      "chip": "ym2612"
    },
    {
      "channel": 1,
      "note": 58,
      "start": 43.1384,
      "duration": 0.058,
      "velocity": 117,
      "chip": "ym2612"
    },
    {
      "channel": 3,
      "note": 69,
      "start": 43.1407,
      "duration": 0.058,
      "velocity": 117,
      "chip": "ym2612"
    },
    {
      "channel": 0,
      "note": 72,
      "start": 43.1583,
      "duration": 0.078,
      "velocity": 117,
      "chip": "ym2612"
    },
    {
      "channel": 4,
      "note": 60,
      "start": 43.1608,
      "duration": 0.0801,
      "velocity": 117,
      "chip": "ym2612"
    },
    {
      "channel": 5,
      "note": 48,
      "start": 43.163,
      "duration": 0.0801,
      "velocity": 110,
      "chip": "ym2612"
    },
    {
      "channel": 1,
      "note": 59,
      "start": 43.1984,
      "duration": 0.058,
      "velocity": 117,
      "chip": "ym2612"
    },
    {
      "channel": 3,
      "note": 68,
      "start": 43.2008,
      "duration": 0.0578,
      "velocity": 117,
      "chip": "ym2612"
    },
    {
      "channel": 0,
      "note": 71,
      "start": 43.2383,
      "duration": 0.058,
      "velocity": 117,
      "chip": "ym2612"
    },
    {
      "channel": 2,
      "note": 38,
      "start": 43.2407,
      "duration": 0.0979,
      "velocity": 127,
      "chip": "ym2612"
    },
    {
      "channel": 4,
      "note": 59,
      "start": 43.2429,
      "duration": 0.0558,
      "velocity": 117,
      "chip": "ym2612"
    },
    {
      "channel": 5,
      "note": 47,
      "start": 43.2451,
      "duration": 0.0558,
      "velocity": 110,
      "chip": "ym2612"
    },
    {
      "channel": 1,
      "note": 60,
      "start": 43.2584,
      "duration": 0.078,
      "velocity": 117,
      "chip": "ym2612"
    },
    {
      "channel": 3,
      "note": 67,
      "start": 43.2607,
      "duration": 0.078,
      "velocity": 117,
      "chip": "ym2612"
    },
    {
      "channel": 0,
      "note": 70,
      "start": 43.2983,
      "duration": 0.058,
      "velocity": 117,
      "chip": "ym2612"
    },
    {
      "channel": 4,
      "note": 58,
      "start": 43.3008,
      "duration": 0.0624,
      "velocity": 117,
      "chip": "ym2612"
    },
    {
      "channel": 5,
      "note": 46,
      "start": 43.303,
      "duration": 0.0624,
      "velocity": 110,
      "chip": "ym2612"
    },
    {
      "channel": 1,
      "note": 61,
      "start": 43.3384,
      "duration": 0.058,
      "velocity": 117,
      "chip": "ym2612"
    },
    {
      "channel": 3,
      "note": 66,
      "start": 43.3408,
      "duration": 0.02,
      "velocity": 117,
      "chip": "ym2612"
    },
    {
      "channel": 0,
      "note": 69,
      "start": 43.3583,
      "duration": 0.078,
      "velocity": 117,
      "chip": "ym2612"
    },
    {
      "channel": 2,
      "note": 38,
      "start": 43.3607,
      "duration": 0.0979,
      "velocity": 127,
      "chip": "ym2612"
    },
    {
      "channel": 4,
      "note": 57,
      "start": 43.3652,
      "duration": 0.0735,
      "velocity": 117,
      "chip": "ym2612"
    },
    {
      "channel": 5,
      "note": 45,
      "start": 43.3674,
      "duration": 0.0735,
      "velocity": 110,
      "chip": "ym2612"
    },
    {
      "channel": 1,
      "note": 60,
      "start": 43.3984,
      "duration": 0.058,
      "velocity": 117,
      "chip": "ym2612"
    },
    {
      "channel": 3,
      "note": 67,
      "start": 43.4007,
      "duration": 0.058,
      "velocity": 117,
      "chip": "ym2612"
    },
    {
      "channel": 0,
      "note": 68,
      "start": 43.4383,
      "duration": 0.058,
      "velocity": 117,
      "chip": "ym2612"
    },
    {
      "channel": 4,
      "note": 56,
      "start": 43.4408,
      "duration": 0.0601,
      "velocity": 117,
      "chip": "ym2612"
    },
    {
      "channel": 5,
      "note": 44,
      "start": 43.443,
      "duration": 0.0601,
      "velocity": 110,
      "chip": "ym2612"
    },
    {
      "channel": 1,
      "note": 59,
      "start": 43.4584,
      "duration": 0.058,
      "velocity": 117,
      "chip": "ym2612"
    },
    {
      "channel": 3,
      "note": 68,
      "start": 43.4608,
      "duration": 0.0578,
      "velocity": 117,
      "chip": "ym2612"
    },
    {
      "channel": 0,
      "note": 67,
      "start": 43.4983,
      "duration": 0.058,
      "velocity": 117,
      "chip": "ym2612"
    },
    {
      "channel": 2,
      "note": 37,
      "start": 43.5007,
      "duration": 0.1002,
      "velocity": 127,
      "chip": "ym2612"
    },
    {
      "channel": 4,
      "note": 55,
      "start": 43.5029,
      "duration": 0.0558,
      "velocity": 117,
      "chip": "ym2612"
    },
    {
      "channel": 5,
      "note": 43,
      "start": 43.5051,
      "duration": 0.0558,
      "velocity": 110,
      "chip": "ym2612"
    },
    {
      "channel": 1,
      "note": 58,
      "start": 43.5184,
      "duration": 0.0803,
      "velocity": 117,
      "chip": "ym2612"
    },
    {
      "channel": 3,
      "note": 69,
      "start": 43.5207,
      "duration": 0.0803,
      "velocity": 117,
      "chip": "ym2612"
    },
    {
      "channel": 0,
      "note": 66,
      "start": 43.5583,
      "duration": 0.038,
      "velocity": 117,
      "chip": "ym2612"
    },
    {
      "channel": 4,
      "note": 54,
      "start": 43.5608,
      "duration": 0.0607,
      "velocity": 117,
      "chip": "ym2612"
    },
    {
      "channel": 5,
      "note": 42,
      "start": 43.563,
      "duration": 0.061,
      "velocity": 110,
      "chip": "ym2612"
    },
    {
      "channel": 1,
      "note": 57,
      "start": 43.6007,
      "duration": 0.0557,
      "velocity": 117,
      "chip": "ym2612"
    },
    {
      "channel": 3,
      "note": 70,
      "start": 43.603,
      "duration": 0.0556,
      "velocity": 117,
      "chip": "ym2612"
    },
    {
      "channel": 0,
      "note": 67,
      "start": 43.6183,
      "duration": 0.078,
      "velocity": 117,
      "chip": "ym2612"
    },
    {
      "channel": 2,
      "note": 40,
      "start": 43.6213,
      "duration": 0.0973,
      "velocity": 127,
      "chip": "ym2612"
    },
    {
      "channel": 4,
      "note": 55,
      "start": 43.6238,
      "duration": 0.0749,
      "velocity": 117,
      "chip": "ym2612"
    },
    {
      "channel": 5,
      "note": 43,
      "start": 43.6262,
      "duration": 0.0747,
      "velocity": 110,
      "chip": "ym2612"
    },
    {
      "channel": 1,
      "note": 56,
      "start": 43.6584,
      "duration": 0.058,
      "velocity": 117,
      "chip": "ym2612"
    },
    {
      "channel": 3,
      "note": 71,
      "start": 43.6607,
      "duration": 0.058,
      "velocity": 117,
      "chip": "ym2612"
    },
    {
      "channel": 0,
      "note": 68,
      "start": 43.6983,
      "duration": 0.058,
      "velocity": 117,
      "chip": "ym2612"
    },
    {
      "channel": 4,
      "note": 56,
      "start": 43.7008,
      "duration": 0.0601,
      "velocity": 117,
      "chip": "ym2612"
    },
    {
      "channel": 5,
      "note": 44,
      "start": 43.703,
      "duration": 0.0601,
      "velocity": 110,
      "chip": "ym2612"
    },
    {
      "channel": 1,
      "note": 55,
      "start": 43.7184,
      "duration": 0.078,
      "velocity": 117,
      "chip": "ym2612"
    },
    {
      "channel": 3,
      "note": 72,
      "start": 43.7208,
      "duration": 0.0778,
      "velocity": 117,
      "chip": "ym2612"
    },
    {
      "channel": 0,
      "note": 69,
      "start": 43.7583,
      "duration": 0.058,
      "velocity": 117,
      "chip": "ym2612"
    },
    {
      "channel": 2,
      "note": 39,
      "start": 43.7607,
      "duration": 0.0981,
      "velocity": 127,
      "chip": "ym2612"
    },
    {
      "channel": 4,
      "note": 57,
      "start": 43.7629,
      "duration": 0.0558,
      "velocity": 117,
      "chip": "ym2612"
    },
    {
      "channel": 5,
      "note": 45,
      "start": 43.7651,
      "duration": 0.0558,
      "velocity": 110,
      "chip": "ym2612"
    },
    {
      "channel": 1,
      "note": 54,
      "start": 43.7984,
      "duration": 0.058,
      "velocity": 117,
      "chip": "ym2612"
    },
    {
      "channel": 3,
      "note": 73,
      "start": 43.8007,
      "duration": 0.0583,
      "velocity": 117,
      "chip": "ym2612"
    },
    {
      "channel": 0,
      "note": 70,
      "start": 43.8183,
      "duration": 0.078,
      "velocity": 117,
      "chip": "ym2612"
    },
    {
      "channel": 4,
      "note": 58,
      "start": 43.8208,
      "duration": 0.0801,
      "velocity": 117,
      "chip": "ym2612"
    },
    {
      "channel": 5,
      "note": 46,
      "start": 43.823,
      "duration": 0.0801,
      "velocity": 110,
      "chip": "ym2612"
    },
    {
      "channel": 1,
      "note": 55,
      "start": 43.8586,
      "duration": 0.0578,
      "velocity": 117,
      "chip": "ym2612"
    },
    {
      "channel": 3,
      "note": 74,
      "start": 43.8611,
      "duration": 0.0576,
      "velocity": 117,
      "chip": "ym2612"
    },
    {
      "channel": 0,
      "note": 71,
      "start": 43.8983,
      "duration": 0.058,
      "velocity": 117,
      "chip": "ym2612"
    },
    {
      "channel": 2,
      "note": 39,
      "start": 43.9007,
      "duration": 0.0979,
      "velocity": 127,
      "chip": "ym2612"
    },
    {
      "channel": 4,
      "note": 59,
      "start": 43.9029,
      "duration": 0.0558,
      "velocity": 117,
      "chip": "ym2612"
    },
    {
      "channel": 5,
      "note": 47,
      "start": 43.9051,
      "duration": 0.0558,
      "velocity": 110,
      "chip": "ym2612"
    },
    {
      "channel": 1,
      "note": 56,
      "start": 43.9184,
      "duration": 0.078,
      "velocity": 117,
      "chip": "ym2612"
    },
    {
      "channel": 3,
      "note": 75,
      "start": 43.9207,
      "duration": 0.078,
      "velocity": 117,
      "chip": "ym2612"
    },
    {
      "channel": 0,
      "note": 72,
      "start": 43.9583,
      "duration": 0.058,
      "velocity": 117,
      "chip": "ym2612"
    },
    {
      "channel": 4,
      "note": 60,
      "start": 43.9608,
      "duration": 0.0601,
      "velocity": 117,
      "chip": "ym2612"
    },
    {
      "channel": 5,
      "note": 48,
      "start": 43.963,
      "duration": 0.0601,
      "velocity": 110,
      "chip": "ym2612"
    },
    {
      "channel": 1,
      "note": 57,
      "start": 43.9984,
      "duration": 0.058,
      "velocity": 117,
      "chip": "ym2612"
    },
    {
      "channel": 3,
      "note": 74,
      "start": 44.0008,
      "duration": 0.0578,
      "velocity": 117,
      "chip": "ym2612"
    },
    {
      "channel": 0,
      "note": 73,
      "start": 44.0183,
      "duration": 0.078,
      "velocity": 117,
      "chip": "ym2612"
    },
    {
      "channel": 2,
      "note": 38,
      "start": 44.0207,
      "duration": 0.0979,
      "velocity": 127,
      "chip": "ym2612"
    },
    {
      "channel": 4,
      "note": 61,
      "start": 44.0229,
      "duration": 0.0758,
      "velocity": 117,
      "chip": "ym2612"
    },
    {
      "channel": 5,
      "note": 49,
      "start": 44.0251,
      "duration": 0.0758,
      "velocity": 110,
      "chip": "ym2612"
    },
    {
      "channel": 1,
      "note": 58,
      "start": 44.0584,
      "duration": 0.058,
      "velocity": 117,
      "chip": "ym2612"
    },
    {
      "channel": 3,
      "note": 73,
      "start": 44.0607,
      "duration": 0.058,
      "velocity": 117,
      "chip": "ym2612"
    },
    {
      "channel": 0,
      "note": 74,
      "start": 44.0983,
      "duration": 0.058,
      "velocity": 117,
      "chip": "ym2612"
    },
    {
      "channel": 4,
      "note": 62,
      "start": 44.1008,
      "duration": 0.0607,
      "velocity": 117,
      "chip": "ym2612"
    },
    {
      "channel": 5,
      "note": 50,
      "start": 44.103,
      "duration": 0.0607,
      "velocity": 110,
      "chip": "ym2612"
    },
    {
      "channel": 1,
      "note": 59,
      "start": 44.1184,
      "duration": 0.078,
      "velocity": 117,
      "chip": "ym2612"
    },
    {
      "channel": 3,
      "note": 72,
      "start": 44.1208,
      "duration": 0.0778,
      "velocity": 117,
      "chip": "ym2612"
    },
    {
      "channel": 0,
      "note": 75,
      "start": 44.1583,
      "duration": 0.058,
      "velocity": 117,
      "chip": "ym2612"
    },
    {
      "channel": 2,
      "note": 41,
      "start": 44.1613,
      "duration": 0.0973,
      "velocity": 127,
      "chip": "ym2612"
    },
    {
      "channel": 4,
      "note": 63,
      "start": 44.1636,
      "duration": 0.0551,
      "velocity": 117,
      "chip": "ym2612"
    },
    {
      "channel": 5,
      "note": 51,
      "start": 44.1657,
      "duration": 0.0552,
      "velocity": 110,
      "chip": "ym2612"
    },
    {
      "channel": 1,
      "note": 60,
      "start": 44.1984,
      "duration": 0.058,
      "velocity": 117,
      "chip": "ym2612"
    },
    {
      "channel": 3,
      "note": 71,
      "start": 44.2007,
      "duration": 0.058,
      "velocity": 117,
      "chip": "ym2612"
    },
    {
      "channel": 0,
      "note": 74,
      "start": 44.2183,
      "duration": 0.078,
      "velocity": 117,
      "chip": "ym2612"
    },
    {
      "channel": 4,
      "note": 62,
      "start": 44.2208,
      "duration": 0.0801,
      "velocity": 117,
      "chip": "ym2612"
    },
    {
      "channel": 5,
      "note": 50,
      "start": 44.223,
      "duration": 0.0801,
      "velocity": 110,
      "chip": "ym2612"
    },
    {
      "channel": 1,
      "note": 61,
      "start": 44.2584,
      "duration": 0.058,
      "velocity": 117,
      "chip": "ym2612"
    },
    {
      "channel": 3,
      "note": 70,
      "start": 44.2608,
      "duration": 0.0578,
      "velocity": 117,
      "chip": "ym2612"
    },
    {
      "channel": 0,
      "note": 73,
      "start": 44.2983,
      "duration": 0.058,
      "velocity": 117,
      "chip": "ym2612"
    },
    {
      "channel": 2,
      "note": 40,
      "start": 44.3007,
      "duration": 0.0979,
      "velocity": 127,
      "chip": "ym2612"
    },
    {
      "channel": 4,
      "note": 61,
      "start": 44.3029,
      "duration": 0.0558,
      "velocity": 117,
      "chip": "ym2612"
    },
    {
      "channel": 5,
      "note": 49,
      "start": 44.3051,
      "duration": 0.0558,
      "velocity": 110,
      "chip": "ym2612"
    },
    {
      "channel": 1,
      "note": 62,
      "start": 44.3184,
      "duration": 0.078,
      "velocity": 117,
      "chip": "ym2612"
    },
    {
      "channel": 3,
      "note": 69,
      "start": 44.3207,
      "duration": 0.078,
      "velocity": 117,
      "chip": "ym2612"
    },
    {
      "channel": 0,
      "note": 72,
      "start": 44.3583,
      "duration": 0.058,
      "velocity": 117,
      "chip": "ym2612"
    },
    {
      "channel": 4,
      "note": 60,
      "start": 44.3608,
      "duration": 0.0624,
      "velocity": 117,
      "chip": "ym2612"
    },
    {
      "channel": 5,
      "note": 48,
      "start": 44.363,
      "duration": 0.0624,
      "velocity": 110,
      "chip": "ym2612"
    },
    {
      "channel": 1,
      "note": 63,
      "start": 44.3984,
      "duration": 0.058,
      "velocity": 117,
      "chip": "ym2612"
    },
    {
      "channel": 3,
      "note": 68,
      "start": 44.4008,
      "duration": 0.02,
      "velocity": 117,
      "chip": "ym2612"
    },
    {
      "channel": 0,
      "note": 71,
      "start": 44.4183,
      "duration": 0.078,
      "velocity": 117,
      "chip": "ym2612"
    },
    {
      "channel": 2,
      "note": 40,
      "start": 44.4207,
      "duration": 0.0979,
      "velocity": 127,
      "chip": "ym2612"
    },
    {
      "channel": 4,
      "note": 59,
      "start": 44.4252,
      "duration": 0.0735,
      "velocity": 117,
      "chip": "ym2612"
    },
    {
      "channel": 5,
      "note": 47,
      "start": 44.4274,
      "duration": 0.0735,
      "velocity": 110,
      "chip": "ym2612"
    },
    {
      "channel": 1,
      "note": 62,
      "start": 44.4584,
      "duration": 0.058,
      "velocity": 117,
      "chip": "ym2612"
    },
    {
      "channel": 3,
      "note": 69,
      "start": 44.4607,
      "duration": 0.058,
      "velocity": 117,
      "chip": "ym2612"
    },
    {
      "channel": 0,
      "note": 70,
      "start": 44.4983,
      "duration": 0.058,
      "velocity": 117,
      "chip": "ym2612"
    },
    {
      "channel": 4,
      "note": 58,
      "start": 44.5008,
      "duration": 0.0601,
      "velocity": 117,
      "chip": "ym2612"
    },
    {
      "channel": 5,
      "note": 46,
      "start": 44.503,
      "duration": 0.0601,
      "velocity": 110,
      "chip": "ym2612"
    },
    {
      "channel": 1,
      "note": 61,
      "start": 44.5184,
      "duration": 0.078,
      "velocity": 117,
      "chip": "ym2612"
    },
    {
      "channel": 3,
      "note": 70,
      "start": 44.5208,
      "duration": 0.0778,
      "velocity": 117,
      "chip": "ym2612"
    },
    {
      "channel": 0,
      "note": 69,
      "start": 44.5583,
      "duration": 0.058,
      "velocity": 117,
      "chip": "ym2612"
    },
    {
      "channel": 2,
      "note": 39,
      "start": 44.5607,
      "duration": 0.1002,
      "velocity": 127,
      "chip": "ym2612"
    },
    {
      "channel": 4,
      "note": 57,
      "start": 44.5629,
      "duration": 0.0558,
      "velocity": 117,
      "chip": "ym2612"
    },
    {
      "channel": 5,
      "note": 45,
      "start": 44.5651,
      "duration": 0.0558,
      "velocity": 110,
      "chip": "ym2612"
    },
    {
      "channel": 1,
      "note": 60,
      "start": 44.5984,
      "duration": 0.0603,
      "velocity": 117,
      "chip": "ym2612"
    },
    {
      "channel": 3,
      "note": 71,
      "start": 44.6007,
      "duration": 0.0603,
      "velocity": 117,
      "chip": "ym2612"
    },
    {
      "channel": 0,
      "note": 68,
      "start": 44.6183,
      "duration": 0.038,
      "velocity": 117,
      "chip": "ym2612"
    },
    {
      "channel": 4,
      "note": 56,
      "start": 44.6208,
      "duration": 0.0807,
      "velocity": 117,
      "chip": "ym2612"
    },
    {
      "channel": 5,
      "note": 44,
      "start": 44.623,
      "duration": 0.081,
      "velocity": 110,
      "chip": "ym2612"
    },
    {
      "channel": 1,
      "note": 59,
      "start": 44.6607,
      "duration": 0.0557,
      "velocity": 117,
      "chip": "ym2612"
    },
    {
      "channel": 3,
      "note": 72,
      "start": 44.663,
      "duration": 0.0556,
      "velocity": 117,
      "chip": "ym2612"
    },
    {
      "channel": 0,
      "note": 69,
      "start": 44.6983,
      "duration": 0.058,
      "velocity": 117,
      "chip": "ym2612"
    },
    {
      "channel": 2,
      "note": 42,
      "start": 44.7013,
      "duration": 0.0973,
      "velocity": 127,
      "chip": "ym2612"
    },
    {
      "channel": 4,
      "note": 57,
      "start": 44.7038,
      "duration": 0.0549,
      "velocity": 117,
      "chip": "ym2612"
    },
    {
      "channel": 5,
      "note": 45,
      "start": 44.7062,
      "duration": 0.0547,
      "velocity": 110,
      "chip": "ym2612"
    },
    {
      "channel": 1,
      "note": 58,
      "start": 44.7184,
      "duration": 0.078,
      "velocity": 117,
      "chip": "ym2612"
    },
    {
      "channel": 3,
      "note": 73,
      "start": 44.7207,
      "duration": 0.078,
      "velocity": 117,
      "chip": "ym2612"
    },
    {
      "channel": 0,
      "note": 70,
      "start": 44.7583,
      "duration": 0.058,
      "velocity": 117,
      "chip": "ym2612"
    },
    {
      "channel": 4,
      "note": 58,
      "start": 44.7608,
      "duration": 0.0601,
      "velocity": 117,
      "chip": "ym2612"
    },
    {
      "channel": 5,
      "note": 46,
      "start": 44.763,
      "duration": 0.0601,
      "velocity": 110,
      "chip": "ym2612"
    },
    {
      "channel": 1,
      "note": 57,
      "start": 44.7984,
      "duration": 0.058,
      "velocity": 117,
      "chip": "ym2612"
    },
    {
      "channel": 3,
      "note": 74,
      "start": 44.8008,
      "duration": 0.0578,
      "velocity": 117,
      "chip": "ym2612"
    },
    {
      "channel": 0,
      "note": 71,
      "start": 44.8183,
      "duration": 0.078,
      "velocity": 117,
      "chip": "ym2612"
    },
    {
      "channel": 2,
      "note": 41,
      "start": 44.8207,
      "duration": 0.0981,
      "velocity": 127,
      "chip": "ym2612"
    },
    {
      "channel": 4,
      "note": 59,
      "start": 44.8229,
      "duration": 0.0758,
      "velocity": 117,
      "chip": "ym2612"
    },
    {
      "channel": 5,
      "note": 47,
      "start": 44.8251,
      "duration": 0.0758,
      "velocity": 110,
      "chip": "ym2612"
    },
    {
      "channel": 1,
      "note": 56,
      "start": 44.8584,
      "duration": 0.058,
      "velocity": 117,
      "chip": "ym2612"
    },
    {
      "channel": 3,
      "note": 75,
      "start": 44.8607,
      "duration": 0.0583,
      "velocity": 117,
      "chip": "ym2612"
    },
    {
      "channel": 0,
      "note": 72,
      "start": 44.8983,
      "duration": 0.058,
      "velocity": 117,
      "chip": "ym2612"
    },
    {
      "channel": 4,
      "note": 60,
      "start": 44.9008,
      "duration": 0.0601,
      "velocity": 117,
      "chip": "ym2612"
    },
    {
      "channel": 5,
      "note": 48,
      "start": 44.903,
      "duration": 0.0601,
      "velocity": 110,
      "chip": "ym2612"
    },
    {
      "channel": 1,
      "note": 57,
      "start": 44.9186,
      "duration": 0.0778,
      "velocity": 117,
      "chip": "ym2612"
    },
    {
      "channel": 3,
      "note": 76,
      "start": 44.9211,
      "duration": 0.0776,
      "velocity": 117,
      "chip": "ym2612"
    },
    {
      "channel": 0,
      "note": 73,
      "start": 44.9583,
      "duration": 0.058,
      "velocity": 117,
      "chip": "ym2612"
    },
    {
      "channel": 2,
      "note": 41,
      "start": 44.9607,
      "duration": 0.0979,
      "velocity": 127,
      "chip": "ym2612"
    },
    {
      "channel": 4,
      "note": 61,
      "start": 44.9629,
      "duration": 0.0558,
      "velocity": 117,
      "chip": "ym2612"
    },
    {
      "channel": 5,
      "note": 49,
      "start": 44.9651,
      "duration": 0.0558,
      "velocity": 110,
      "chip": "ym2612"
    },
    {
      "channel": 1,
      "note": 58,
      "start": 44.9984,
      "duration": 0.058,
      "velocity": 117,
      "chip": "ym2612"
    },
    {
      "channel": 3,
      "note": 77,
      "start": 45.0007,
      "duration": 0.058,
      "velocity": 117,
      "chip": "ym2612"
    },
    {
      "channel": 0,
      "note": 74,
      "start": 45.0183,
      "duration": 0.078,
      "velocity": 117,
      "chip": "ym2612"
    },
    {
      "channel": 4,
      "note": 62,
      "start": 45.0208,
      "duration": 0.0801,
      "velocity": 117,
      "chip": "ym2612"
    },
    {
      "channel": 5,
      "note": 50,
      "start": 45.023,
      "duration": 0.0801,
      "velocity": 110,
      "chip": "ym2612"
    },
    {
      "channel": 1,
      "note": 59,
      "start": 45.0584,
      "duration": 0.058,
      "velocity": 117,
      "chip": "ym2612"
    },
    {
      "channel": 3,
      "note": 76,
      "start": 45.0608,
      "duration": 0.0578,
      "velocity": 117,
      "chip": "ym2612"
    },
    {
      "channel": 0,
      "note": 75,
      "start": 45.0983,
      "duration": 0.058,
      "velocity": 117,
      "chip": "ym2612"
    },
    {
      "channel": 2,
      "note": 40,
      "start": 45.1007,
      "duration": 0.0979,
      "velocity": 127,
      "chip": "ym2612"
    },
    {
      "channel": 4,
      "note": 63,
      "start": 45.1029,
      "duration": 0.0558,
      "velocity": 117,
      "chip": "ym2612"
    },
    {
      "channel": 5,
      "note": 51,
      "start": 45.1051,
      "duration": 0.0558,
      "velocity": 110,
      "chip": "ym2612"
    },
    {
      "channel": 1,
      "note": 60,
      "start": 45.1184,
      "duration": 0.078,
      "velocity": 117,
      "chip": "ym2612"
    },
    {
      "channel": 3,
      "note": 75,
      "start": 45.1207,
      "duration": 0.078,
      "velocity": 117,
      "chip": "ym2612"
    },
    {
      "channel": 0,
      "note": 76,
      "start": 45.1583,
      "duration": 0.058,
      "velocity": 117,
      "chip": "ym2612"
    },
    {
      "channel": 4,
      "note": 64,
      "start": 45.1608,
      "duration": 0.0628,
      "velocity": 117,
      "chip": "ym2612"
    },
    {
      "channel": 5,
      "note": 52,
      "start": 45.163,
      "duration": 0.0628,
      "velocity": 110,
      "chip": "ym2612"
    },
    {
      "channel": 1,
      "note": 61,
      "start": 45.1984,
      "duration": 0.058,
      "velocity": 117,
      "chip": "ym2612"
    },
    {
      "channel": 3,
      "note": 74,
      "start": 45.2008,
      "duration": 0.0206,
      "velocity": 117,
      "chip": "ym2612"
    },
    {
      "channel": 0,
      "note": 77,
      "start": 45.2183,
      "duration": 0.078,
      "velocity": 117,
      "chip": "ym2612"
    },
    {
      "channel": 2,
      "note": 43,
      "start": 45.2213,
      "duration": 0.0973,
      "velocity": 127,
      "chip": "ym2612"
    },
    {
      "channel": 3,
      "note": 73,
      "start": 45.2234,
      "duration": 0.0752,
      "velocity": 117,
      "chip": "ym2612"
    },
    {
      "channel": 4,
      "note": 65,
      "start": 45.2256,
      "duration": 0.0753,
      "velocity": 117,
      "chip": "ym2612"
    },
    {
      "channel": 5,
      "note": 53,
      "start": 45.2278,
      "duration": 0.0753,
      "velocity": 110,
      "chip": "ym2612"
    },
    {
      "channel": 1,
      "note": 62,
      "start": 45.2584,
      "duration": 0.058,
      "velocity": 117,
      "chip": "ym2612"
    },
    {
      "channel": 0,
      "note": 76,
      "start": 45.2983,
      "duration": 0.058,
      "velocity": 117,
      "chip": "ym2612"
    },
    {
      "channel": 3,
      "note": 72,
      "start": 45.3007,
      "duration": 0.0601,
      "velocity": 117,
      "chip": "ym2612"
    },
    {
      "channel": 4,
      "note": 64,
      "start": 45.3029,
      "duration": 0.0601,
      "velocity": 117,
      "chip": "ym2612"
    },
    {
      "channel": 5,
      "note": 52,
      "start": 45.3051,
      "duration": 0.06,
      "velocity": 110,
      "chip": "ym2612"
    },
    {
      "channel": 1,
      "note": 63,
      "start": 45.3184,
      "duration": 0.078,
      "velocity": 117,
      "chip": "ym2612"
    },
    {
      "channel": 0,
      "note": 75,
      "start": 45.3583,
      "duration": 0.058,
      "velocity": 117,
      "chip": "ym2612"
    },
    {
      "channel": 2,
      "note": 42,
      "start": 45.3607,
      "duration": 0.1,
      "velocity": 127,
      "chip": "ym2612"
    },
    {
      "channel": 3,
      "note": 71,
      "start": 45.3629,
      "duration": 0.0558,
      "velocity": 117,
      "chip": "ym2612"
    },
    {
      "channel": 4,
      "note": 63,
      "start": 45.365,
      "duration": 0.0559,
      "velocity": 117,
      "chip": "ym2612"
    },
    {
      "channel": 5,
      "note": 51,
      "start": 45.3672,
      "duration": 0.0558,
      "velocity": 110,
      "chip": "ym2612"
    },
    {
      "channel": 1,
      "note": 64,
      "start": 45.3984,
      "duration": 0.0601,
      "velocity": 117,
      "chip": "ym2612"
    },
    {
      "channel": 0,
      "note": 74,
      "start": 45.4183,
      "duration": 0.038,
      "velocity": 117,
      "chip": "ym2612"
    },
    {
      "channel": 3,
      "note": 70,
      "start": 45.4207,
      "duration": 0.078,
      "velocity": 117,
      "chip": "ym2612"
    },
    {
      "channel": 4,
      "note": 62,
      "start": 45.4229,
      "duration": 0.078,
      "velocity": 117,
      "chip": "ym2612"
    },
    {
      "channel": 5,
      "note": 50,
      "start": 45.4251,
      "duration": 0.078,
      "velocity": 110,
      "chip": "ym2612"
    },
    {
      "channel": 0,
      "note": 73,
      "start": 45.4583,
      "duration": 0.058,
      "velocity": 117,
      "chip": "ym2612"
    },
    {
      "channel": 1,
      "note": 65,
      "start": 45.4605,
      "duration": 0.058,
      "velocity": 117,
      "chip": "ym2612"
    },
    {
      "channel": 2,
      "note": 42,
      "start": 45.4986,
      "duration": 0.1021,
      "velocity": 127,
      "chip": "ym2612"
    },
    {
      "channel": 3,
      "note": 69,
      "start": 45.5008,
      "duration": 0.0558,
      "velocity": 117,
      "chip": "ym2612"
    },
    {
      "channel": 4,
      "note": 61,
      "start": 45.503,
      "duration": 0.0558,
      "velocity": 117,
      "chip": "ym2612"
    },
    {
      "channel": 5,
      "note": 49,
      "start": 45.5051,
      "duration": 0.0559,
      "velocity": 110,
      "chip": "ym2612"
    },
    {
      "channel": 0,
      "note": 72,
      "start": 45.5183,
      "duration": 0.078,
      "velocity": 117,
      "chip": "ym2612"
    },
    {
      "channel": 1,
      "note": 64,
      "start": 45.5205,
      "duration": 0.078,
      "velocity": 117,
      "chip": "ym2612"
    },
    {
      "channel": 3,
      "note": 70,
      "start": 45.5586,
      "duration": 0.0601,
      "velocity": 117,
      "chip": "ym2612"
    },
    {
      "channel": 4,
      "note": 60,
      "start": 45.5609,
      "duration": 0.06,
      "velocity": 117,
      "chip": "ym2612"
    },
    {
      "channel": 5,
      "note": 48,
      "start": 45.563,
      "duration": 0.0601,
      "velocity": 110,
      "chip": "ym2612"
    },
    {
      "channel": 0,
      "note": 71,
      "start": 45.5983,
      "duration": 0.058,
      "velocity": 117,
      "chip": "ym2612"
    },
    {
      "channel": 1,
      "note": 63,
      "start": 45.6005,
      "duration": 0.058,
      "velocity": 117,
      "chip": "ym2612"
    },
    {
      "channel": 2,
      "note": 41,
      "start": 45.6186,
      "duration": 0.1021,
      "velocity": 127,
      "chip": "ym2612"
    },
    {
      "channel": 3,
      "note": 71,
      "start": 45.6208,
      "duration": 0.0758,
      "velocity": 117,
      "chip": "ym2612"
    },
    {
      "channel": 4,
      "note": 59,
      "start": 45.623,
      "duration": 0.0758,
      "velocity": 117,
      "chip": "ym2612"
    },
    {
      "channel": 5,
      "note": 47,
      "start": 45.6251,
      "duration": 0.0759,
      "velocity": 110,
      "chip": "ym2612"
    },
    {
      "channel": 0,
      "note": 70,
      "start": 45.6583,
      "duration": 0.058,
      "velocity": 117,
      "chip": "ym2612"
    },
    {
      "channel": 1,
      "note": 62,
      "start": 45.6605,
      "duration": 0.058,
      "velocity": 117,
      "chip": "ym2612"
    },
    {
      "channel": 3,
      "note": 72,
      "start": 45.6986,
      "duration": 0.0667,
      "velocity": 117,
      "chip": "ym2612"
    },
    {
      "channel": 4,
      "note": 58,
      "start": 45.7009,
      "duration": 0.0675,
      "velocity": 117,
      "chip": "ym2612"
    },
    {
      "channel": 5,
      "note": 46,
      "start": 45.703,
      "duration": 0.0686,
      "velocity": 110,
      "chip": "ym2612"
    },
    {
      "channel": 0,
      "note": 69,
      "start": 45.7183,
      "duration": 0.038,
      "velocity": 117,
      "chip": "ym2612"
    },
    {
      "channel": 1,
      "note": 61,
      "start": 45.7205,
      "duration": 0.0388,
      "velocity": 117,
      "chip": "ym2612"
    },
    {
      "channel": 1,
      "note": 69,
      "start": 45.7622,
      "duration": 0.1342,
      "velocity": 109,
      "chip": "ym2612"
    },
    {
      "channel": 2,
      "note": 27,
      "start": 45.7651,
      "duration": 0.0914,
      "velocity": 93,
      "chip": "ym2612"
    },
    {
      "channel": 3,
      "note": 93,
      "start": 45.7682,
      "duration": 0.1325,
      "velocity": 67,
      "chip": "ym2612"
    },
    {
      "channel": 4,
      "note": 72,
      "start": 45.7714,
      "duration": 0.1315,
      "velocity": 109,
      "chip": "ym2612"
    },
    {
      "channel": 5,
      "note": 36,
      "start": 45.7746,
      "duration": 0.1304,
      "velocity": 110,
      "chip": "ym2612"
    },
    {
      "channel": 2,
      "note": 27,
      "start": 45.9006,
      "duration": 0.098,
      "velocity": 93,
      "chip": "ym2612"
    },
    {
      "channel": 3,
      "note": 95,
      "start": 45.9028,
      "duration": 0.1185,
      "velocity": 67,
      "chip": "ym2612"
    },
    {
      "channel": 0,
      "note": 93,
      "start": 45.9985,
      "duration": 0.0244,
      "velocity": 67,
      "chip": "ym2612"
    },
    {
      "channel": 1,
      "note": 69,
      "start": 46.0184,
      "duration": 0.0045,
      "velocity": 109,
      "chip": "ym2612"
    },
    {
      "channel": 2,
      "note": 35,
      "start": 46.0211,
      "duration": 0.0018,
      "velocity": 127,
      "chip": "ym2612"
    }
  ]
}