{
  "track_name": "12 - Stage 5-1 (City at Night)",
  "duration_sec": 59.319,
  "sample_rate": 44100,
  "note_count": 1341,
  "unique_pitches": 43,
  "pitch_range": 69,
  "avg_note_duration": 0.1773,
  "reconstruction_stats": {
    "notes_reconstructed": 1341,
    "keyon_events": 1341,
    "keyoff_events": 1333,
    "orphan_keyons": 5,
    "unique_pitches": 43,
    "pitch_range": 69,
    "avg_duration_sec": 0.1773
  },
  "metadata": {
    "source": "R\\Ranger-X\\12 - Stage 5-1 (City at Night).vgz"
  },
  "notes": [
    {
      "channel": 0,
      "note": 49,
      "start": 0.0,
      "duration": 0.2193,
      "velocity": 95,
      "chip": "ym2612"
    },
    {
      "channel": 2,
      "note": 51,
      "start": 0.0077,
      "duration": 0.0919,
      "velocity": 94,
      "chip": "ym2612"
    },
    {
      "channel": 2,
      "note": 51,
      "start": 0.1185,
      "duration": 0.1011,
      "velocity": 94,
      "chip": "ym2612"
    },
    {
      "channel": 0,
      "note": 49,
      "start": 0.2366,
      "duration": 0.2229,
      "velocity": 95,
      "chip": "ym2612"
    },
    {
      "channel": 2,
      "note": 51,
      "start": 0.2373,
      "duration": 0.1025,
      "velocity": 94,
      "chip": "ym2612"
    },
    {
      "channel": 2,
      "note": 51,
      "start": 0.3588,
      "duration": 0.1012,
      "velocity": 94,
      "chip": "ym2612"
    },
    {
      "channel": 0,
      "note": 49,
      "start": 0.4768,
      "duration": 0.2228,
      "velocity": 95,
      "chip": "ym2612"
    },
    {
      "channel": 2,
      "note": 51,
      "start": 0.4791,
      "duration": 0.1008,
      "velocity": 94,
      "chip": "ym2612"
    },
    {
      "channel": 2,
      "note": 51,
      "start": 0.5974,
      "duration": 0.1027,
      "velocity": 94,
      "chip": "ym2612"
    },
    {
      "channel": 0,
      "note": 49,
      "start": 0.717,
      "duration": 0.2228,
      "velocity": 95,
      "chip": "ym2612"
    },
    {
      "channel": 2,
      "note": 51,
      "start": 0.7176,
      "duration": 0.1025,
      "velocity": 94,
      "chip": "ym2612"
    },
    {
      "channel": 2,
      "note": 51,
      "start": 0.8374,
      "duration": 0.1028,
      "velocity": 94,
      "chip": "ym2612"
    },
    {
      "channel": 0,
      "note": 49,
      "start": 0.9571,
      "duration": 0.2228,
      "velocity": 95,
      "chip": "ym2612"
    },
    {
      "channel": 2,
      "note": 51,
      "start": 0.9595,
      "duration": 0.1008,
      "velocity": 94,
      "chip": "ym2612"
    },
    {
      "channel": 2,
      "note": 51,
      "start": 1.0793,
      "duration": 0.1012,
      "velocity": 94,
      "chip": "ym2612"
    },
    {
      "channel": 0,
      "note": 55,
      "start": 1.1973,
      "duration": 0.2228,
      "velocity": 95,
      "chip": "ym2612"
    },
    {
      "channel": 2,
      "note": 51,
      "start": 1.198,
      "duration": 0.1024,
      "velocity": 94,
      "chip": "ym2612"
    },
    {
      "channel": 2,
      "note": 51,
      "start": 1.3194,
      "duration": 0.1012,
      "velocity": 94,
      "chip": "ym2612"
    },
    {
      "channel": 0,
      "note": 49,
      "start": 1.4374,
      "duration": 0.2228,
      "velocity": 95,
      "chip": "ym2612"
    },
    {
      "channel": 2,
      "note": 51,
      "start": 1.4398,
      "duration": 0.1008,
      "velocity": 94,
      "chip": "ym2612"
    },
    {
      "channel": 2,
      "note": 51,
      "start": 1.5579,
      "duration": 0.1028,
      "velocity": 94,
      "chip": "ym2612"
    },
    {
      "channel": 0,
      "note": 52,
      "start": 1.6776,
      "duration": 0.2228,
      "velocity": 95,
      "chip": "ym2612"
    },
    {
      "channel": 2,
      "note": 51,
      "start": 1.6799,
      "duration": 0.1009,
      "velocity": 94,
      "chip": "ym2612"
    },
    {
      "channel": 2,
      "note": 51,
      "start": 1.7997,
      "duration": 0.1012,
      "velocity": 94,
      "chip": "ym2612"
    },
    {
      "channel": 0,
      "note": 49,
      "start": 1.9178,
      "duration": 0.2228,
      "velocity": 95,
      "chip": "ym2612"
    },
    {
      "channel": 2,
      "note": 51,
      "start": 1.9186,
      "duration": 0.1023,
      "velocity": 94,
      "chip": "ym2612"
    },
    {
      "channel": 2,
      "note": 51,
      "start": 2.0383,
      "duration": 0.1027,
      "velocity": 94,
      "chip": "ym2612"
    },
    {
      "channel": 0,
      "note": 49,
      "start": 2.1579,
      "duration": 0.2228,
      "velocity": 95,
      "chip": "ym2612"
    },
    {
      "channel": 2,
      "note": 51,
      "start": 2.1586,
      "duration": 0.1024,
      "velocity": 94,
      "chip": "ym2612"
    },
    {
      "channel": 2,
      "note": 51,
      "start": 2.28,
      "duration": 0.1012,
      "velocity": 94,
      "chip": "ym2612"
    },
    {
      "channel": 0,
      "note": 49,
      "start": 2.398,
      "duration": 0.2229,
      "velocity": 95,
      "chip": "ym2612"
    },
    {
      "channel": 2,
      "note": 51,
      "start": 2.4004,
      "duration": 0.1008,
      "velocity": 94,
      "chip": "ym2612"
    },
    {
      "channel": 2,
      "note": 51,
      "start": 2.5186,
      "duration": 0.1028,
      "velocity": 94,
      "chip": "ym2612"
    },
    {
      "channel": 0,
      "note": 49,
      "start": 2.6383,
      "duration": 0.2228,
      "velocity": 95,
      "chip": "ym2612"
    },
    {
      "channel": 2,
      "note": 51,
      "start": 2.639,
      "duration": 0.1025,
      "velocity": 94,
      "chip": "ym2612"
    },
    {
      "channel": 2,
      "note": 51,
      "start": 2.7588,
      "duration": 0.1028,
      "velocity": 94,
      "chip": "ym2612"
    },
    {
      "channel": 0,
      "note": 49,
      "start": 2.8784,
      "duration": 0.2228,
      "velocity": 95,
      "chip": "ym2612"
    },
    {
      "channel": 2,
      "note": 51,
      "start": 2.8808,
      "duration": 0.1008,
      "velocity": 94,
      "chip": "ym2612"
    },
    {
      "channel": 2,
      "note": 51,
      "start": 3.0006,
      "duration": 0.1011,
      "velocity": 94,
      "chip": "ym2612"
    },
    {
      "channel": 0,
      "note": 58,
      "start": 3.1185,
      "duration": 0.2228,
      "velocity": 95,
      "chip": "ym2612"
    },
    {
      "channel": 2,
      "note": 51,
      "start": 3.1193,
      "duration": 0.1024,
      "velocity": 94,
      "chip": "ym2612"
    },
    {
      "channel": 2,
      "note": 51,
      "start": 3.2407,
      "duration": 0.1012,
      "velocity": 94,
      "chip": "ym2612"
    },
    {
      "channel": 0,
      "note": 49,
      "start": 3.3587,
      "duration": 0.2228,
      "velocity": 95,
      "chip": "ym2612"
    },
    {
      "channel": 2,
      "note": 51,
      "start": 3.361,
      "duration": 0.1009,
      "velocity": 94,
      "chip": "ym2612"
    },
    {
      "channel": 2,
      "note": 51,
      "start": 3.4792,
      "duration": 0.1028,
      "velocity": 94,
      "chip": "ym2612"
    },
    {
      "channel": 0,
      "note": 55,
      "start": 3.5989,
      "duration": 0.2228,
      "velocity": 95,
      "chip": "ym2612"
    },
    {
      "channel": 2,
      "note": 51,
      "start": 3.6012,
      "duration": 0.1008,
      "velocity": 94,
      "chip": "ym2612"
    },
    {
      "channel": 2,
      "note": 51,
      "start": 3.721,
      "duration": 0.1012,
      "velocity": 94,
      "chip": "ym2612"
    },
    {
      "channel": 0,
      "note": 49,
      "start": 3.8393,
      "duration": 0.2226,
      "velocity": 95,
      "chip": "ym2612"
    },
    {
      "channel": 1,
      "note": 73,
      "start": 3.8431,
      "duration": 0.0989,
      "velocity": 93,
      "chip": "ym2612"
    },
    {
      "channel": 2,
      "note": 51,
      "start": 3.8472,
      "duration": 0.0951,
      "velocity": 94,
      "chip": "ym2612"
    },
    {
      "channel": 1,
      "note": 85,
      "start": 3.9593,
      "duration": 0.1028,
      "velocity": 93,
      "chip": "ym2612"
    },
    {
      "channel": 2,
      "note": 51,
      "start": 3.9615,
      "duration": 0.1009,
      "velocity": 94,
      "chip": "ym2612"
    },
    {
      "channel": 0,
      "note": 49,
      "start": 4.0792,
      "duration": 0.2228,
      "velocity": 95,
      "chip": "ym2612"
    },
    {
      "channel": 1,
      "note": 88,
      "start": 4.0797,
      "duration": 0.1025,
      "velocity": 93,
      "chip": "ym2612"
    },
    {
      "channel": 2,
      "note": 51,
      "start": 4.0802,
      "duration": 0.1022,
      "velocity": 94,
      "chip": "ym2612"
    },
    {
      "channel": 3,
      "note": 82,
      "start": 4.0858,
      "duration": 0.0969,
      "velocity": 93,
      "chip": "ym2612"
    },
    {
      "channel": 4,
      "note": 82,
      "start": 4.1708,
      "duration": 0.0978,
      "velocity": 93,
      "chip": "ym2612"
    },
    {
      "channel": 1,
      "note": 79,
      "start": 4.1995,
      "duration": 0.1028,
      "velocity": 93,
      "chip": "ym2612"
    },
    {
      "channel": 2,
      "note": 51,
      "start": 4.2016,
      "duration": 0.101,
      "velocity": 94,
      "chip": "ym2612"
    },
    {
      "channel": 3,
      "note": 73,
      "start": 4.2022,
      "duration": 0.1006,
      "velocity": 93,
      "chip": "ym2612"
    },
    {
      "channel": 4,
      "note": 73,
      "start": 4.286,
      "duration": 0.1027,
      "velocity": 93,
      "chip": "ym2612"
    },
    {
      "channel": 0,
      "note": 49,
      "start": 4.3194,
      "duration": 0.2228,
      "velocity": 95,
      "chip": "ym2612"
    },
    {
      "channel": 1,
      "note": 91,
      "start": 4.3198,
      "duration": 0.1025,
      "velocity": 93,
      "chip": "ym2612"
    },
    {
      "channel": 2,
      "note": 51,
      "start": 4.322,
      "duration": 0.1006,
      "velocity": 94,
      "chip": "ym2612"
    },
    {
      "channel": 3,
      "note": 85,
      "start": 4.3225,
      "duration": 0.1003,
      "velocity": 93,
      "chip": "ym2612"
    },
    {
      "channel": 4,
      "note": 85,
      "start": 4.4061,
      "duration": 0.1027,
      "velocity": 93,
      "chip": "ym2612"
    },
    {
      "channel": 1,
      "note": 82,
      "start": 4.4397,
      "duration": 0.1028,
      "velocity": 93,
      "chip": "ym2612"
    },
    {
      "channel": 2,
      "note": 51,
      "start": 4.4402,
      "duration": 0.1025,
      "velocity": 94,
      "chip": "ym2612"
    },
    {
      "channel": 3,
      "note": 88,
      "start": 4.4407,
      "duration": 0.1022,
      "velocity": 93,
      "chip": "ym2612"
    },
    {
      "channel": 4,
      "note": 88,
      "start": 4.5262,
      "duration": 0.1027,
      "velocity": 93,
      "chip": "ym2612"
    },
    {
      "channel": 0,
      "note": 49,
      "start": 4.5595,
      "duration": 0.2228,
      "velocity": 95,
      "chip": "ym2612"
    },
    {
      "channel": 1,
      "note": 85,
      "start": 4.56,
      "duration": 0.1025,
      "velocity": 93,
      "chip": "ym2612"
    },
    {
      "channel": 2,
      "note": 51,
      "start": 4.5605,
      "duration": 0.1023,
      "velocity": 94,
      "chip": "ym2612"
    },
    {
      "channel": 3,
      "note": 79,
      "start": 4.5611,
      "duration": 0.1019,
      "velocity": 93,
      "chip": "ym2612"
    },
    {
      "channel": 4,
      "note": 79,
      "start": 4.6463,
      "duration": 0.1027,
      "velocity": 93,
      "chip": "ym2612"
    },
    {
      "channel": 1,
      "note": 94,
      "start": 4.6798,
      "duration": 0.1028,
      "velocity": 93,
      "chip": "ym2612"
    },
    {
      "channel": 2,
      "note": 51,
      "start": 4.6804,
      "duration": 0.1025,
      "velocity": 94,
      "chip": "ym2612"
    },
    {
      "channel": 3,
      "note": 91,
      "start": 4.681,
      "duration": 0.1022,
      "velocity": 93,
      "chip": "ym2612"
    },
    {
      "channel": 4,
      "note": 91,
      "start": 4.7664,
      "duration": 0.1027,
      "velocity": 93,
      "chip": "ym2612"
    },
    {
      "channel": 0,
      "note": 49,
      "start": 4.7997,
      "duration": 0.2228,
      "velocity": 95,
      "chip": "ym2612"
    },
    {
      "channel": 1,
      "note": 97,
      "start": 4.8002,
      "duration": 0.1024,
      "velocity": 93,
      "chip": "ym2612"
    },
    {
      "channel": 2,
      "note": 51,
      "start": 4.8023,
      "duration": 0.1005,
      "velocity": 94,
      "chip": "ym2612"
    },
    {
      "channel": 3,
      "note": 82,
      "start": 4.8029,
      "duration": 0.1002,
      "velocity": 93,
      "chip": "ym2612"
    },
    {
      "channel": 4,
      "note": 82,
      "start": 4.8865,
      "duration": 0.1027,
      "velocity": 93,
      "chip": "ym2612"
    },
    {
      "channel": 1,
      "note": 82,
      "start": 4.92,
      "duration": 0.1027,
      "velocity": 93,
      "chip": "ym2612"
    },
    {
      "channel": 2,
      "note": 51,
      "start": 4.9221,
      "duration": 0.1009,
      "velocity": 94,
      "chip": "ym2612"
    },
    {
      "channel": 3,
      "note": 85,
      "start": 4.9227,
      "duration": 0.1006,
      "velocity": 93,
      "chip": "ym2612"
    },
    {
      "channel": 4,
      "note": 85,
      "start": 5.0065,
      "duration": 0.1027,
      "velocity": 93,
      "chip": "ym2612"
    },
    {
      "channel": 0,
      "note": 55,
      "start": 5.0399,
      "duration": 0.2228,
      "velocity": 95,
      "chip": "ym2612"
    },
    {
      "channel": 1,
      "note": 85,
      "start": 5.0404,
      "duration": 0.1024,
      "velocity": 93,
      "chip": "ym2612"
    },
    {
      "channel": 2,
      "note": 51,
      "start": 5.0408,
      "duration": 0.1022,
      "velocity": 94,
      "chip": "ym2612"
    },
    {
      "channel": 3,
      "note": 94,
      "start": 5.0415,
      "duration": 0.1019,
      "velocity": 93,
      "chip": "ym2612"
    },
    {
      "channel": 4,
      "note": 94,
      "start": 5.1266,
      "duration": 0.1027,
      "velocity": 93,
      "chip": "ym2612"
    },
    {
      "channel": 1,
      "note": 91,
      "start": 5.1601,
      "duration": 0.3964,
      "velocity": 93,
      "chip": "ym2612"
    },
    {
      "channel": 2,
      "note": 51,
      "start": 5.1622,
      "duration": 0.1009,
      "velocity": 94,
      "chip": "ym2612"
    },
    {
      "channel": 3,
      "note": 97,
      "start": 5.1629,
      "duration": 0.1005,
      "velocity": 93,
      "chip": "ym2612"
    },
    {
      "channel": 4,
      "note": 97,
      "start": 5.2467,
      "duration": 0.1027,
      "velocity": 93,
      "chip": "ym2612"
    },
    {
      "channel": 0,
      "note": 49,
      "start": 5.28,
      "duration": 0.2228,
      "velocity": 95,
      "chip": "ym2612"
    },
    {
      "channel": 2,
      "note": 51,
      "start": 5.2823,
      "duration": 0.1008,
      "velocity": 94,
      "chip": "ym2612"
    },
    {
      "channel": 3,
      "note": 82,
      "start": 5.283,
      "duration": 0.1005,
      "velocity": 93,
      "chip": "ym2612"
    },
    {
      "channel": 4,
      "note": 82,
      "start": 5.3668,
      "duration": 0.1027,
      "velocity": 93,
      "chip": "ym2612"
    },
    {
      "channel": 2,
      "note": 51,
      "start": 5.4005,
      "duration": 0.1028,
      "velocity": 94,
      "chip": "ym2612"
    },
    {
      "channel": 3,
      "note": 85,
      "start": 5.4011,
      "duration": 0.1923,
      "velocity": 93,
      "chip": "ym2612"
    },
    {
      "channel": 4,
      "note": 85,
      "start": 5.4869,
      "duration": 0.1199,
      "velocity": 93,
      "chip": "ym2612"
    },
    {
      "channel": 0,
      "note": 52,
      "start": 5.5201,
      "duration": 0.0362,
      "velocity": 95,
      "chip": "ym2612"
    },
    {
      "channel": 2,
      "note": 51,
      "start": 5.5225,
      "duration": 0.0149,
      "velocity": 94,
      "chip": "ym2612"
    },
    {
      "channel": 2,
      "note": 51,
      "start": 5.5417,
      "duration": 0.0151,
      "velocity": 94,
      "chip": "ym2612"
    },
    {
      "channel": 0,
      "note": 49,
      "start": 5.5591,
      "duration": 0.0336,
      "velocity": 95,
      "chip": "ym2612"
    },
    {
      "channel": 2,
      "note": 51,
      "start": 5.5599,
      "duration": 0.0154,
      "velocity": 94,
      "chip": "ym2612"
    },
    {
      "channel": 2,
      "note": 51,
      "start": 5.5781,
      "duration": 0.015,
      "velocity": 94,
      "chip": "ym2612"
    },
    {
      "channel": 0,
      "note": 49,
      "start": 5.5955,
      "duration": 0.1129,
      "velocity": 95,
      "chip": "ym2612"
    },
    {
      "channel": 2,
      "note": 51,
      "start": 5.5962,
      "duration": 0.015,
      "velocity": 94,
      "chip": "ym2612"
    },
    {
      "channel": 2,
      "note": 51,
      "start": 5.6155,
      "duration": 0.0934,
      "velocity": 94,
      "chip": "ym2612"
    },
    {
      "channel": 0,
      "note": 49,
      "start": 5.7258,
      "duration": 0.2228,
      "velocity": 95,
      "chip": "ym2612"
    },
    {
      "channel": 2,
      "note": 51,
      "start": 5.7281,
      "duration": 0.1008,
      "velocity": 94,
      "chip": "ym2612"
    },
    {
      "channel": 2,
      "note": 51,
      "start": 5.8463,
      "duration": 0.1028,
      "velocity": 94,
      "chip": "ym2612"
    },
    {
      "channel": 0,
      "note": 49,
      "start": 5.9659,
      "duration": 0.2228,
      "velocity": 95,
      "chip": "ym2612"
    },
    {
      "channel": 2,
      "note": 51,
      "start": 5.9667,
      "duration": 0.1024,
      "velocity": 94,
      "chip": "ym2612"
    },
    {
      "channel": 2,
      "note": 51,
      "start": 6.0864,
      "duration": 0.1027,
      "velocity": 94,
      "chip": "ym2612"
    },
    {
      "channel": 0,
      "note": 49,
      "start": 6.206,
      "duration": 0.2228,
      "velocity": 95,
      "chip": "ym2612"
    },
    {
      "channel": 2,
      "note": 51,
      "start": 6.2084,
      "duration": 0.1008,
      "velocity": 94,
      "chip": "ym2612"
    },
    {
      "channel": 2,
      "note": 51,
      "start": 6.3282,
      "duration": 0.1011,
      "velocity": 94,
      "chip": "ym2612"
    },
    {
      "channel": 0,
      "note": 58,
      "start": 6.4462,
      "duration": 0.0371,
      "velocity": 95,
      "chip": "ym2612"
    },
    {
      "channel": 2,
      "note": 51,
      "start": 6.4469,
      "duration": 0.0158,
      "velocity": 94,
      "chip": "ym2612"
    },
    {
      "channel": 2,
      "note": 51,
      "start": 6.4676,
      "duration": 0.0163,
      "velocity": 94,
      "chip": "ym2612"
    },
    {
      "channel": 0,
      "note": 49,
      "start": 6.4862,
      "duration": 0.0631,
      "velocity": 95,
      "chip": "ym2612"
    },
    {
      "channel": 1,
      "note": 33,
      "start": 6.49,
      "duration": 0.2998,
      "velocity": 127,
      "chip": "ym2612"
    },
    {
      "channel": 2,
      "note": 51,
      "start": 6.4922,
      "duration": 0.015,
      "velocity": 94,
      "chip": "ym2612"
    },
    {
      "channel": 2,
      "note": 51,
      "start": 6.5099,
      "duration": 0.04,
      "velocity": 94,
      "chip": "ym2612"
    },
    {
      "channel": 0,
      "note": 55,
      "start": 6.5667,
      "duration": 0.2228,
      "velocity": 95,
      "chip": "ym2612"
    },
    {
      "channel": 2,
      "note": 51,
      "start": 6.569,
      "duration": 0.1008,
      "velocity": 94,
      "chip": "ym2612"
    },
    {
      "channel": 3,
      "note": 91,
      "start": 6.5746,
      "duration": 0.4559,
      "velocity": 127,
      "chip": "ym2612"
    },
    {
      "channel": 2,
      "note": 51,
      "start": 6.6889,
      "duration": 0.1011,
      "velocity": 94,
      "chip": "ym2612"
    },
    {
      "channel": 0,
      "note": 49,
      "start": 6.807,
      "duration": 0.2227,
      "velocity": 95,
      "chip": "ym2612"
    },
    {
      "channel": 1,
      "note": 97,
      "start": 6.8109,
      "duration": 0.099,
      "velocity": 93,
      "chip": "ym2612"
    },
    {
      "channel": 2,
      "note": 51,
      "start": 6.8147,
      "duration": 0.0954,
      "velocity": 94,
      "chip": "ym2612"
    },
    {
      "channel": 1,
      "note": 85,
      "start": 6.9272,
      "duration": 0.1027,
      "velocity": 93,
      "chip": "ym2612"
    },
    {
      "channel": 2,
      "note": 51,
      "start": 6.9293,
      "duration": 0.1009,
      "velocity": 94,
      "chip": "ym2612"
    },
    {
      "channel": 0,
      "note": 49,
      "start": 7.0471,
      "duration": 0.2228,
      "velocity": 95,
      "chip": "ym2612"
    },
    {
      "channel": 1,
      "note": 94,
      "start": 7.0476,
      "duration": 0.1024,
      "velocity": 93,
      "chip": "ym2612"
    },
    {
      "channel": 2,
      "note": 51,
      "start": 7.0481,
      "duration": 0.1022,
      "velocity": 94,
      "chip": "ym2612"
    },
    {
      "channel": 3,
      "note": 33,
      "start": 7.0536,
      "duration": 0.0969,
      "velocity": 93,
      "chip": "ym2612"
    },
    {
      "channel": 4,
      "note": 91,
      "start": 7.1338,
      "duration": 0.1027,
      "velocity": 93,
      "chip": "ym2612"
    },
    {
      "channel": 1,
      "note": 91,
      "start": 7.1673,
      "duration": 0.1028,
      "velocity": 93,
      "chip": "ym2612"
    },
    {
      "channel": 2,
      "note": 51,
      "start": 7.1694,
      "duration": 0.101,
      "velocity": 94,
      "chip": "ym2612"
    },
    {
      "channel": 3,
      "note": 97,
      "start": 7.1701,
      "duration": 0.1006,
      "velocity": 93,
      "chip": "ym2612"
    },
    {
      "channel": 4,
      "note": 97,
      "start": 7.2539,
      "duration": 0.1027,
      "velocity": 93,
      "chip": "ym2612"
    },
    {
      "channel": 0,
      "note": 49,
      "start": 7.2873,
      "duration": 0.2228,
      "velocity": 95,
      "chip": "ym2612"
    },
    {
      "channel": 1,
      "note": 88,
      "start": 7.2877,
      "duration": 0.1024,
      "velocity": 93,
      "chip": "ym2612"
    },
    {
      "channel": 2,
      "note": 51,
      "start": 7.2899,
      "duration": 0.1004,
      "velocity": 94,
      "chip": "ym2612"
    },
    {
      "channel": 3,
      "note": 85,
      "start": 7.2905,
      "duration": 0.1002,
      "velocity": 93,
      "chip": "ym2612"
    },
    {
      "channel": 4,
      "note": 85,
      "start": 7.3739,
      "duration": 0.1027,
      "velocity": 93,
      "chip": "ym2612"
    },
    {
      "channel": 1,
      "note": 76,
      "start": 7.4075,
      "duration": 0.1028,
      "velocity": 93,
      "chip": "ym2612"
    },
    {
      "channel": 2,
      "note": 51,
      "start": 7.408,
      "duration": 0.1026,
      "velocity": 94,
      "chip": "ym2612"
    },
    {
      "channel": 3,
      "note": 94,
      "start": 7.4086,
      "duration": 0.1023,
      "velocity": 93,
      "chip": "ym2612"
    },
    {
      "channel": 4,
      "note": 94,
      "start": 7.4941,
      "duration": 0.1027,
      "velocity": 93,
      "chip": "ym2612"
    },
    {
      "channel": 0,
      "note": 49,
      "start": 7.5274,
      "duration": 0.2228,
      "velocity": 95,
      "chip": "ym2612"
    },
    {
      "channel": 1,
      "note": 79,
      "start": 7.5278,
      "duration": 0.1024,
      "velocity": 93,
      "chip": "ym2612"
    },
    {
      "channel": 2,
      "note": 51,
      "start": 7.5283,
      "duration": 0.1022,
      "velocity": 94,
      "chip": "ym2612"
    },
    {
      "channel": 3,
      "note": 91,
      "start": 7.529,
      "duration": 0.1018,
      "velocity": 93,
      "chip": "ym2612"
    },
    {
      "channel": 4,
      "note": 91,
      "start": 7.6141,
      "duration": 0.1027,
      "velocity": 93,
      "chip": "ym2612"
    },
    {
      "channel": 1,
      "note": 82,
      "start": 7.6477,
      "duration": 0.1027,
      "velocity": 93,
      "chip": "ym2612"
    },
    {
      "channel": 2,
      "note": 51,
      "start": 7.6482,
      "duration": 0.1025,
      "velocity": 94,
      "chip": "ym2612"
    },
    {
      "channel": 3,
      "note": 88,
      "start": 7.6488,
      "duration": 0.1022,
      "velocity": 93,
      "chip": "ym2612"
    },
    {
      "channel": 4,
      "note": 88,
      "start": 7.7343,
      "duration": 0.1027,
      "velocity": 93,
      "chip": "ym2612"
    },
    {
      "channel": 0,
      "note": 49,
      "start": 7.7675,
      "duration": 0.2228,
      "velocity": 95,
      "chip": "ym2612"
    },
    {
      "channel": 1,
      "note": 85,
      "start": 7.768,
      "duration": 0.1024,
      "velocity": 93,
      "chip": "ym2612"
    },
    {
      "channel": 2,
      "note": 51,
      "start": 7.7701,
      "duration": 0.1006,
      "velocity": 94,
      "chip": "ym2612"
    },
    {
      "channel": 3,
      "note": 76,
      "start": 7.7708,
      "duration": 0.1002,
      "velocity": 93,
      "chip": "ym2612"
    },
    {
      "channel": 4,
      "note": 76,
      "start": 7.8543,
      "duration": 0.1027,
      "velocity": 93,
      "chip": "ym2612"
    },
    {
      "channel": 1,
      "note": 94,
      "start": 7.8878,
      "duration": 0.1028,
      "velocity": 93,
      "chip": "ym2612"
    },
    {
      "channel": 2,
      "note": 51,
      "start": 7.89,
      "duration": 0.1009,
      "velocity": 94,
      "chip": "ym2612"
    },
    {
      "channel": 3,
      "note": 79,
      "start": 7.8906,
      "duration": 0.1006,
      "velocity": 93,
      "chip": "ym2612"
    },
    {
      "channel": 4,
      "note": 79,
      "start": 7.9744,
      "duration": 0.1027,
      "velocity": 93,
      "chip": "ym2612"
    },
    {
      "channel": 0,
      "note": 55,
      "start": 8.0077,
      "duration": 0.2228,
      "velocity": 95,
      "chip": "ym2612"
    },
    {
      "channel": 1,
      "note": 91,
      "start": 8.0082,
      "duration": 0.1024,
      "velocity": 93,
      "chip": "ym2612"
    },
    {
      "channel": 2,
      "note": 51,
      "start": 8.0087,
      "duration": 0.1022,
      "velocity": 94,
      "chip": "ym2612"
    },
    {
      "channel": 3,
      "note": 82,
      "start": 8.0093,
      "duration": 0.1019,
      "velocity": 93,
      "chip": "ym2612"
    },
    {
      "channel": 4,
      "note": 82,
      "start": 8.0945,
      "duration": 0.1027,
      "velocity": 93,
      "chip": "ym2612"
    },
    {
      "channel": 1,
      "note": 82,
      "start": 8.128,
      "duration": 0.5831,
      "velocity": 93,
      "chip": "ym2612"
    },
    {
      "channel": 2,
      "note": 51,
      "start": 8.1301,
      "duration": 0.1009,
      "velocity": 94,
      "chip": "ym2612"
    },
    {
      "channel": 3,
      "note": 85,
      "start": 8.1307,
      "duration": 0.1006,
      "velocity": 93,
      "chip": "ym2612"
    },
    {
      "channel": 4,
      "note": 85,
      "start": 8.2145,
      "duration": 0.1027,
      "velocity": 93,
      "chip": "ym2612"
    },
    {
      "channel": 0,
      "note": 49,
      "start": 8.2479,
      "duration": 0.2228,
      "velocity": 95,
      "chip": "ym2612"
    },
    {
      "channel": 2,
      "note": 51,
      "start": 8.2502,
      "duration": 0.1009,
      "velocity": 94,
      "chip": "ym2612"
    },
    {
      "channel": 3,
      "note": 94,
      "start": 8.2508,
      "duration": 0.1005,
      "velocity": 93,
      "chip": "ym2612"
    },
    {
      "channel": 4,
      "note": 94,
      "start": 8.3346,
      "duration": 0.1027,
      "velocity": 93,
      "chip": "ym2612"
    },
    {
      "channel": 2,
      "note": 51,
      "start": 8.3684,
      "duration": 0.1028,
      "velocity": 94,
      "chip": "ym2612"
    },
    {
      "channel": 3,
      "note": 91,
      "start": 8.3689,
      "duration": 0.5828,
      "velocity": 93,
      "chip": "ym2612"
    },
    {
      "channel": 4,
      "note": 91,
      "start": 8.4547,
      "duration": 0.5829,
      "velocity": 93,
      "chip": "ym2612"
    },
    {
      "channel": 0,
      "note": 52,
      "start": 8.488,
      "duration": 0.2228,
      "velocity": 95,
      "chip": "ym2612"
    },
    {
      "channel": 2,
      "note": 51,
      "start": 8.4904,
      "duration": 0.1008,
      "velocity": 94,
      "chip": "ym2612"
    },
    {
      "channel": 2,
      "note": 51,
      "start": 8.6102,
      "duration": 0.1012,
      "velocity": 94,
      "chip": "ym2612"
    },
    {
      "channel": 0,
      "note": 49,
      "start": 8.7282,
      "duration": 0.2228,
      "velocity": 95,
      "chip": "ym2612"
    },
    {
      "channel": 2,
      "note": 51,
      "start": 8.729,
      "duration": 0.1024,
      "velocity": 94,
      "chip": "ym2612"
    },
    {
      "channel": 2,
      "note": 51,
      "start": 8.8487,
      "duration": 0.1027,
      "velocity": 94,
      "chip": "ym2612"
    },
    {
      "channel": 0,
      "note": 49,
      "start": 8.9684,
      "duration": 0.2228,
      "velocity": 95,
      "chip": "ym2612"
    },
    {
      "channel": 2,
      "note": 51,
      "start": 8.969,
      "duration": 0.1024,
      "velocity": 94,
      "chip": "ym2612"
    },
    {
      "channel": 2,
      "note": 51,
      "start": 9.0906,
      "duration": 0.1011,
      "velocity": 94,
      "chip": "ym2612"
    },
    {
      "channel": 0,
      "note": 49,
      "start": 9.2085,
      "duration": 0.2228,
      "velocity": 95,
      "chip": "ym2612"
    },
    {
      "channel": 2,
      "note": 51,
      "start": 9.2109,
      "duration": 0.1008,
      "velocity": 94,
      "chip": "ym2612"
    },
    {
      "channel": 2,
      "note": 51,
      "start": 9.329,
      "duration": 0.1028,
      "velocity": 94,
      "chip": "ym2612"
    },
    {
      "channel": 0,
      "note": 49,
      "start": 9.4486,
      "duration": 0.2228,
      "velocity": 95,
      "chip": "ym2612"
    },
    {
      "channel": 2,
      "note": 51,
      "start": 9.4494,
      "duration": 0.1024,
      "velocity": 94,
      "chip": "ym2612"
    },
    {
      "channel": 2,
      "note": 51,
      "start": 9.5692,
      "duration": 0.1028,
      "velocity": 94,
      "chip": "ym2612"
    },
    {
      "channel": 0,
      "note": 49,
      "start": 9.6889,
      "duration": 0.2228,
      "velocity": 95,
      "chip": "ym2612"
    },
    {
      "channel": 2,
      "note": 51,
      "start": 9.6913,
      "duration": 0.1007,
      "velocity": 94,
      "chip": "ym2612"
    },
    {
      "channel": 2,
      "note": 51,
      "start": 9.811,
      "duration": 0.1011,
      "velocity": 94,
      "chip": "ym2612"
    },
    {
      "channel": 0,
      "note": 58,
      "start": 9.929,
      "duration": 0.2228,
      "velocity": 95,
      "chip": "ym2612"
    },
    {
      "channel": 2,
      "note": 51,
      "start": 9.9298,
      "duration": 0.1025,
      "velocity": 94,
      "chip": "ym2612"
    },
    {
      "channel": 2,
      "note": 51,
      "start": 10.0511,
      "duration": 0.1012,
      "velocity": 94,
      "chip": "ym2612"
    },
    {
      "channel": 0,
      "note": 49,
      "start": 10.1692,
      "duration": 0.2228,
      "velocity": 95,
      "chip": "ym2612"
    },
    {
      "channel": 2,
      "note": 51,
      "start": 10.1715,
      "duration": 0.1009,
      "velocity": 94,
      "chip": "ym2612"
    },
    {
      "channel": 2,
      "note": 51,
      "start": 10.2897,
      "duration": 0.1027,
      "velocity": 94,
      "chip": "ym2612"
    },
    {
      "channel": 0,
      "note": 55,
      "start": 10.4093,
      "duration": 0.2228,
      "velocity": 95,
      "chip": "ym2612"
    },
    {
      "channel": 2,
      "note": 51,
      "start": 10.4117,
      "duration": 0.1008,
      "velocity": 94,
      "chip": "ym2612"
    },
    {
      "channel": 2,
      "note": 51,
      "start": 10.5315,
      "duration": 0.1012,
      "velocity": 94,
      "chip": "ym2612"
    },
    {
      "channel": 0,
      "note": 49,
      "start": 10.6496,
      "duration": 0.2228,
      "velocity": 95,
      "chip": "ym2612"
    },
    {
      "channel": 1,
      "note": 73,
      "start": 10.6501,
      "duration": 0.1023,
      "velocity": 93,
      "chip": "ym2612"
    },
    {
      "channel": 2,
      "note": 51,
      "start": 10.654,
      "duration": 0.0987,
      "velocity": 94,
      "chip": "ym2612"
    },
    {
      "channel": 1,
      "note": 85,
      "start": 10.7698,
      "duration": 0.1029,
      "velocity": 93,
      "chip": "ym2612"
    },
    {
      "channel": 2,
      "note": 51,
      "start": 10.7719,
      "duration": 0.101,
      "velocity": 94,
      "chip": "ym2612"
    },
    {
      "channel": 0,
      "note": 49,
      "start": 10.8897,
      "duration": 0.2228,
      "velocity": 95,
      "chip": "ym2612"
    },
    {
      "channel": 1,
      "note": 88,
      "start": 10.8901,
      "duration": 0.1025,
      "velocity": 93,
      "chip": "ym2612"
    },
    {
      "channel": 2,
      "note": 51,
      "start": 10.8906,
      "duration": 0.1022,
      "velocity": 94,
      "chip": "ym2612"
    },
    {
      "channel": 3,
      "note": 82,
      "start": 10.8913,
      "duration": 0.1018,
      "velocity": 93,
      "chip": "ym2612"
    },
    {
      "channel": 4,
      "note": 82,
      "start": 10.9764,
      "duration": 0.1027,
      "velocity": 93,
      "chip": "ym2612"
    },
    {
      "channel": 1,
      "note": 79,
      "start": 11.0099,
      "duration": 0.1028,
      "velocity": 93,
      "chip": "ym2612"
    },
    {
      "channel": 2,
      "note": 51,
      "start": 11.0121,
      "duration": 0.1009,
      "velocity": 94,
      "chip": "ym2612"
    },
    {
      "channel": 3,
      "note": 73,
      "start": 11.0126,
      "duration": 0.1006,
      "velocity": 93,
      "chip": "ym2612"
    },
    {
      "channel": 4,
      "note": 73,
      "start": 11.0965,
      "duration": 0.1027,
      "velocity": 93,
      "chip": "ym2612"
    },
    {
      "channel": 0,
      "note": 49,
      "start": 11.1298,
      "duration": 0.2228,
      "velocity": 95,
      "chip": "ym2612"
    },
    {
      "channel": 1,
      "note": 91,
      "start": 11.1302,
      "duration": 0.1025,
      "velocity": 93,
      "chip": "ym2612"
    },
    {
      "channel": 2,
      "note": 51,
      "start": 11.1324,
      "duration": 0.1006,
      "velocity": 94,
      "chip": "ym2612"
    },
    {
      "channel": 3,
      "note": 85,
      "start": 11.133,
      "duration": 0.1003,
      "velocity": 93,
      "chip": "ym2612"
    },
    {
      "channel": 4,
      "note": 85,
      "start": 11.2166,
      "duration": 0.1027,
      "velocity": 93,
      "chip": "ym2612"
    },
    {
      "channel": 1,
      "note": 82,
      "start": 11.2501,
      "duration": 0.1027,
      "velocity": 93,
      "chip": "ym2612"
    },
    {
      "channel": 2,
      "note": 51,
      "start": 11.2506,
      "duration": 0.1025,
      "velocity": 94,
      "chip": "ym2612"
    },
    {
      "channel": 3,
      "note": 88,
      "start": 11.2512,
      "duration": 0.1022,
      "velocity": 93,
      "chip": "ym2612"
    },
    {
      "channel": 4,
      "note": 88,
      "start": 11.3367,
      "duration": 0.1027,
      "velocity": 93,
      "chip": "ym2612"
    },
    {
      "channel": 0,
      "note": 49,
      "start": 11.37,
      "duration": 0.2228,
      "velocity": 95,
      "chip": "ym2612"
    },
    {
      "channel": 1,
      "note": 85,
      "start": 11.3705,
      "duration": 0.1024,
      "velocity": 93,
      "chip": "ym2612"
    },
    {
      "channel": 2,
      "note": 51,
      "start": 11.371,
      "duration": 0.1022,
      "velocity": 94,
      "chip": "ym2612"
    },
    {
      "channel": 3,
      "note": 79,
      "start": 11.3715,
      "duration": 0.1019,
      "velocity": 93,
      "chip": "ym2612"
    },
    {
      "channel": 4,
      "note": 79,
      "start": 11.4568,
      "duration": 0.1027,
      "velocity": 93,
      "chip": "ym2612"
    },
    {
      "channel": 1,
      "note": 94,
      "start": 11.4902,
      "duration": 0.1028,
      "velocity": 93,
      "chip": "ym2612"
    },
    {
      "channel": 2,
      "note": 51,
      "start": 11.4907,
      "duration": 0.1025,
      "velocity": 94,
      "chip": "ym2612"
    },
    {
      "channel": 3,
      "note": 91,
      "start": 11.4913,
      "duration": 0.1023,
      "velocity": 93,
      "chip": "ym2612"
    },
    {
      "channel": 4,
      "note": 91,
      "start": 11.5768,
      "duration": 0.1027,
      "velocity": 93,
      "chip": "ym2612"
    },
    {
      "channel": 0,
      "note": 49,
      "start": 11.6101,
      "duration": 0.2228,
      "velocity": 95,
      "chip": "ym2612"
    },
    {
      "channel": 1,
      "note": 97,
      "start": 11.6106,
      "duration": 0.1024,
      "velocity": 93,
      "chip": "ym2612"
    },
    {
      "channel": 2,
      "note": 51,
      "start": 11.6127,
      "duration": 0.1006,
      "velocity": 94,
      "chip": "ym2612"
    },
    {
      "channel": 3,
      "note": 82,
      "start": 11.6133,
      "duration": 0.1002,
      "velocity": 93,
      "chip": "ym2612"
    },
    {
      "channel": 4,
      "note": 82,
      "start": 11.6969,
      "duration": 0.1027,
      "velocity": 93,
      "chip": "ym2612"
    },
    {
      "channel": 1,
      "note": 82,
      "start": 11.7305,
      "duration": 0.1027,
      "velocity": 93,
      "chip": "ym2612"
    },
    {
      "channel": 2,
      "note": 51,
      "start": 11.7325,
      "duration": 0.1009,
      "velocity": 94,
      "chip": "ym2612"
    },
    {
      "channel": 3,
      "note": 85,
      "start": 11.7332,
      "duration": 0.1006,
      "velocity": 93,
      "chip": "ym2612"
    },
    {
      "channel": 4,
      "note": 85,
      "start": 11.817,
      "duration": 0.1027,
      "velocity": 93,
      "chip": "ym2612"
    },
    {
      "channel": 0,
      "note": 55,
      "start": 11.8503,
      "duration": 0.2228,
      "velocity": 95,
      "chip": "ym2612"
    },
    {
      "channel": 1,
      "note": 85,
      "start": 11.8507,
      "duration": 0.1025,
      "velocity": 93,
      "chip": "ym2612"
    },
    {
      "channel": 2,
      "note": 51,
      "start": 11.8512,
      "duration": 0.1022,
      "velocity": 94,
      "chip": "ym2612"
    },
    {
      "channel": 3,
      "note": 94,
      "start": 11.8519,
      "duration": 0.1019,
      "velocity": 93,
      "chip": "ym2612"
    },
    {
      "channel": 4,
      "note": 94,
      "start": 11.9371,
      "duration": 0.1027,
      "velocity": 93,
      "chip": "ym2612"
    },
    {
      "channel": 1,
      "note": 91,
      "start": 11.9706,
      "duration": 0.3429,
      "velocity": 93,
      "chip": "ym2612"
    },
    {
      "channel": 2,
      "note": 51,
      "start": 11.9727,
      "duration": 0.1008,
      "velocity": 94,
      "chip": "ym2612"
    },
    {
      "channel": 3,
      "note": 97,
      "start": 11.9734,
      "duration": 0.1005,
      "velocity": 93,
      "chip": "ym2612"
    },
    {
      "channel": 4,
      "note": 97,
      "start": 12.0571,
      "duration": 0.1027,
      "velocity": 93,
      "chip": "ym2612"
    },
    {
      "channel": 0,
      "note": 49,
      "start": 12.0904,
      "duration": 0.2228,
      "velocity": 95,
      "chip": "ym2612"
    },
    {
      "channel": 2,
      "note": 51,
      "start": 12.0928,
      "duration": 0.1008,
      "velocity": 94,
      "chip": "ym2612"
    },
    {
      "channel": 3,
      "note": 82,
      "start": 12.0934,
      "duration": 0.1005,
      "velocity": 93,
      "chip": "ym2612"
    },
    {
      "channel": 4,
      "note": 82,
      "start": 12.1772,
      "duration": 0.1027,
      "velocity": 93,
      "chip": "ym2612"
    },
    {
      "channel": 2,
      "note": 51,
      "start": 12.2109,
      "duration": 0.1029,
      "velocity": 94,
      "chip": "ym2612"
    },
    {
      "channel": 3,
      "note": 85,
      "start": 12.2115,
      "duration": 0.3428,
      "velocity": 93,
      "chip": "ym2612"
    },
    {
      "channel": 4,
      "note": 85,
      "start": 12.2973,
      "duration": 0.5832,
      "velocity": 93,
      "chip": "ym2612"
    },
    {
      "channel": 0,
      "note": 52,
      "start": 12.3306,
      "duration": 0.2228,
      "velocity": 95,
      "chip": "ym2612"
    },
    {
      "channel": 1,
      "note": 102,
      "start": 12.3345,
      "duration": 0.9936,
      "velocity": 113,
      "chip": "ym2612"
    },
    {
      "channel": 2,
      "note": 51,
      "start": 12.3367,
      "duration": 0.0972,
      "velocity": 94,
      "chip": "ym2612"
    },
    {
      "channel": 2,
      "note": 51,
      "start": 12.4528,
      "duration": 0.1012,
      "velocity": 94,
      "chip": "ym2612"
    },
    {
      "channel": 0,
      "note": 49,
      "start": 12.5708,
      "duration": 0.2228,
      "velocity": 95,
      "chip": "ym2612"
    },
    {
      "channel": 2,
      "note": 51,
      "start": 12.5715,
      "duration": 0.1025,
      "velocity": 94,
      "chip": "ym2612"
    },
    {
      "channel": 3,
      "note": 91,
      "start": 12.5771,
      "duration": 0.8188,
      "velocity": 113,
      "chip": "ym2612"
    },
    {
      "channel": 2,
      "note": 51,
      "start": 12.6914,
      "duration": 0.1027,
      "velocity": 94,
      "chip": "ym2612"
    },
    {
      "channel": 0,
      "note": 49,
      "start": 12.8109,
      "duration": 0.2228,
      "velocity": 95,
      "chip": "ym2612"
    },
    {
      "channel": 2,
      "note": 51,
      "start": 12.8117,
      "duration": 0.1025,
      "velocity": 94,
      "chip": "ym2612"
    },
    {
      "channel": 2,
      "note": 51,
      "start": 12.9331,
      "duration": 0.1012,
      "velocity": 94,
      "chip": "ym2612"
    },
    {
      "channel": 0,
      "note": 49,
      "start": 13.0511,
      "duration": 0.2228,
      "velocity": 95,
      "chip": "ym2612"
    },
    {
      "channel": 2,
      "note": 51,
      "start": 13.0535,
      "duration": 0.1008,
      "velocity": 94,
      "chip": "ym2612"
    },
    {
      "channel": 2,
      "note": 51,
      "start": 13.1717,
      "duration": 0.1028,
      "velocity": 94,
      "chip": "ym2612"
    },
    {
      "channel": 0,
      "note": 49,
      "start": 13.2913,
      "duration": 0.0366,
      "velocity": 95,
      "chip": "ym2612"
    },
    {
      "channel": 2,
      "note": 51,
      "start": 13.2921,
      "duration": 0.0167,
      "velocity": 94,
      "chip": "ym2612"
    },
    {
      "channel": 2,
      "note": 51,
      "start": 13.3116,
      "duration": 0.0169,
      "velocity": 94,
      "chip": "ym2612"
    },
    {
      "channel": 0,
      "note": 49,
      "start": 13.3308,
      "duration": 0.0643,
      "velocity": 95,
      "chip": "ym2612"
    },
    {
      "channel": 1,
      "note": 33,
      "start": 13.3347,
      "duration": 0.7811,
      "velocity": 127,
      "chip": "ym2612"
    },
    {
      "channel": 2,
      "note": 51,
      "start": 13.3368,
      "duration": 0.0155,
      "velocity": 94,
      "chip": "ym2612"
    },
    {
      "channel": 2,
      "note": 51,
      "start": 13.3567,
      "duration": 0.0388,
      "velocity": 94,
      "chip": "ym2612"
    },
    {
      "channel": 0,
      "note": 58,
      "start": 13.4125,
      "duration": 0.2228,
      "velocity": 95,
      "chip": "ym2612"
    },
    {
      "channel": 2,
      "note": 51,
      "start": 13.4132,
      "duration": 0.1024,
      "velocity": 94,
      "chip": "ym2612"
    },
    {
      "channel": 2,
      "note": 51,
      "start": 13.5346,
      "duration": 0.1011,
      "velocity": 94,
      "chip": "ym2612"
    },
    {
      "channel": 0,
      "note": 49,
      "start": 13.6526,
      "duration": 0.2228,
      "velocity": 95,
      "chip": "ym2612"
    },
    {
      "channel": 2,
      "note": 51,
      "start": 13.655,
      "duration": 0.1008,
      "velocity": 94,
      "chip": "ym2612"
    },
    {
      "channel": 2,
      "note": 51,
      "start": 13.7732,
      "duration": 0.1027,
      "velocity": 94,
      "chip": "ym2612"
    },
    {
      "channel": 0,
      "note": 55,
      "start": 13.8927,
      "duration": 0.2228,
      "velocity": 95,
      "chip": "ym2612"
    },
    {
      "channel": 2,
      "note": 51,
      "start": 13.8951,
      "duration": 0.1009,
      "velocity": 94,
      "chip": "ym2612"
    },
    {
      "channel": 2,
      "note": 51,
      "start": 14.015,
      "duration": 0.1011,
      "velocity": 94,
      "chip": "ym2612"
    },
    {
      "channel": 0,
      "note": 49,
      "start": 14.1331,
      "duration": 0.2226,
      "velocity": 95,
      "chip": "ym2612"
    },
    {
      "channel": 1,
      "note": 73,
      "start": 14.137,
      "duration": 0.0989,
      "velocity": 93,
      "chip": "ym2612"
    },
    {
      "channel": 2,
      "note": 51,
      "start": 14.1408,
      "duration": 0.0953,
      "velocity": 94,
      "chip": "ym2612"
    },
    {
      "channel": 1,
      "note": 85,
      "start": 14.2532,
      "duration": 0.1027,
      "velocity": 93,
      "chip": "ym2612"
    },
    {
      "channel": 2,
      "note": 51,
      "start": 14.2553,
      "duration": 0.1009,
      "velocity": 94,
      "chip": "ym2612"
    },
    {
      "channel": 0,
      "note": 49,
      "start": 14.3731,
      "duration": 0.2228,
      "velocity": 95,
      "chip": "ym2612"
    },
    {
      "channel": 1,
      "note": 88,
      "start": 14.3736,
      "duration": 0.1024,
      "velocity": 93,
      "chip": "ym2612"
    },
    {
      "channel": 2,
      "note": 51,
      "start": 14.3741,
      "duration": 0.1022,
      "velocity": 94,
      "chip": "ym2612"
    },
    {
      "channel": 3,
      "note": 91,
      "start": 14.3796,
      "duration": 0.097,
      "velocity": 93,
      "chip": "ym2612"
    },
    {
      "channel": 4,
      "note": 91,
      "start": 14.4599,
      "duration": 0.1027,
      "velocity": 93,
      "chip": "ym2612"
    },
    {
      "channel": 1,
      "note": 79,
      "start": 14.4934,
      "duration": 0.1028,
      "velocity": 93,
      "chip": "ym2612"
    },
    {
      "channel": 2,
      "note": 51,
      "start": 14.4955,
      "duration": 0.101,
      "velocity": 94,
      "chip": "ym2612"
    },
    {
      "channel": 3,
      "note": 73,
      "start": 14.4961,
      "duration": 0.1006,
      "velocity": 93,
      "chip": "ym2612"
    },
    {
      "channel": 4,
      "note": 73,
      "start": 14.58,
      "duration": 0.1026,
      "velocity": 93,
      "chip": "ym2612"
    },
    {
      "channel": 0,
      "note": 49,
      "start": 14.6133,
      "duration": 0.2228,
      "velocity": 95,
      "chip": "ym2612"
    },
    {
      "channel": 1,
      "note": 91,
      "start": 14.6138,
      "duration": 0.1024,
      "velocity": 93,
      "chip": "ym2612"
    },
    {
      "channel": 2,
      "note": 51,
      "start": 14.6159,
      "duration": 0.1006,
      "velocity": 94,
      "chip": "ym2612"
    },
    {
      "channel": 3,
      "note": 85,
      "start": 14.6165,
      "duration": 0.1003,
      "velocity": 93,
      "chip": "ym2612"
    },
    {
      "channel": 4,
      "note": 85,
      "start": 14.7001,
      "duration": 0.1027,
      "velocity": 93,
      "chip": "ym2612"
    },
    {
      "channel": 1,
      "note": 82,
      "start": 14.7335,
      "duration": 0.1028,
      "velocity": 93,
      "chip": "ym2612"
    },
    {
      "channel": 2,
      "note": 51,
      "start": 14.734,
      "duration": 0.1025,
      "velocity": 94,
      "chip": "ym2612"
    },
    {
      "channel": 3,
      "note": 88,
      "start": 14.7346,
      "duration": 0.1023,
      "velocity": 93,
      "chip": "ym2612"
    },
    {
      "channel": 4,
      "note": 88,
      "start": 14.8202,
      "duration": 0.1026,
      "velocity": 93,
      "chip": "ym2612"
    },
    {
      "channel": 0,
      "note": 49,
      "start": 14.8534,
      "duration": 0.2228,
      "velocity": 95,
      "chip": "ym2612"
    },
    {
      "channel": 1,
      "note": 85,
      "start": 14.8539,
      "duration": 0.1024,
      "velocity": 93,
      "chip": "ym2612"
    },
    {
      "channel": 2,
      "note": 51,
      "start": 14.8544,
      "duration": 0.1022,
      "velocity": 94,
      "chip": "ym2612"
    },
    {
      "channel": 3,
      "note": 79,
      "start": 14.855,
      "duration": 0.1019,
      "velocity": 93,
      "chip": "ym2612"
    },
    {
      "channel": 4,
      "note": 79,
      "start": 14.9402,
      "duration": 0.1027,
      "velocity": 93,
      "chip": "ym2612"
    },
    {
      "channel": 1,
      "note": 94,
      "start": 14.9737,
      "duration": 0.1027,
      "velocity": 93,
      "chip": "ym2612"
    },
    {
      "channel": 2,
      "note": 51,
      "start": 14.9742,
      "duration": 0.1025,
      "velocity": 94,
      "chip": "ym2612"
    },
    {
      "channel": 3,
      "note": 91,
      "start": 14.9748,
      "duration": 0.1022,
      "velocity": 93,
      "chip": "ym2612"
    },
    {
      "channel": 4,
      "note": 91,
      "start": 15.0603,
      "duration": 0.1027,
      "velocity": 93,
      "chip": "ym2612"
    },
    {
      "channel": 0,
      "note": 49,
      "start": 15.0936,
      "duration": 0.2229,
      "velocity": 95,
      "chip": "ym2612"
    },
    {
      "channel": 1,
      "note": 97,
      "start": 15.0941,
      "duration": 0.1025,
      "velocity": 93,
      "chip": "ym2612"
    },
    {
      "channel": 2,
      "note": 51,
      "start": 15.0962,
      "duration": 0.1006,
      "velocity": 94,
      "chip": "ym2612"
    },
    {
      "channel": 3,
      "note": 82,
      "start": 15.0968,
      "duration": 0.1003,
      "velocity": 93,
      "chip": "ym2612"
    },
    {
      "channel": 4,
      "note": 82,
      "start": 15.1804,
      "duration": 0.1027,
      "velocity": 93,
      "chip": "ym2612"
    },
    {
      "channel": 1,
      "note": 82,
      "start": 15.2139,
      "duration": 0.1028,
      "velocity": 93,
      "chip": "ym2612"
    },
    {
      "channel": 2,
      "note": 51,
      "start": 15.216,
      "duration": 0.101,
      "velocity": 94,
      "chip": "ym2612"
    },
    {
      "channel": 3,
      "note": 85,
      "start": 15.2166,
      "duration": 0.1006,
      "velocity": 93,
      "chip": "ym2612"
    },
    {
      "channel": 4,
      "note": 85,
      "start": 15.3004,
      "duration": 0.1027,
      "velocity": 93,
      "chip": "ym2612"
    },
    {
      "channel": 0,
      "note": 55,
      "start": 15.3337,
      "duration": 0.2228,
      "velocity": 95,
      "chip": "ym2612"
    },
    {
      "channel": 1,
      "note": 85,
      "start": 15.3342,
      "duration": 0.1025,
      "velocity": 93,
      "chip": "ym2612"
    },
    {
      "channel": 2,
      "note": 51,
      "start": 15.3347,
      "duration": 0.1022,
      "velocity": 94,
      "chip": "ym2612"
    },
    {
      "channel": 3,
      "note": 94,
      "start": 15.3353,
      "duration": 0.1019,
      "velocity": 93,
      "chip": "ym2612"
    },
    {
      "channel": 4,
      "note": 94,
      "start": 15.4205,
      "duration": 0.1027,
      "velocity": 93,
      "chip": "ym2612"
    },
    {
      "channel": 1,
      "note": 91,
      "start": 15.454,
      "duration": 0.3429,
      "velocity": 93,
      "chip": "ym2612"
    },
    {
      "channel": 2,
      "note": 51,
      "start": 15.4561,
      "duration": 0.1009,
      "velocity": 94,
      "chip": "ym2612"
    },
    {
      "channel": 3,
      "note": 97,
      "start": 15.4567,
      "duration": 0.1006,
      "velocity": 93,
      "chip": "ym2612"
    },
    {
      "channel": 4,
      "note": 97,
      "start": 15.5406,
      "duration": 0.1027,
      "velocity": 93,
      "chip": "ym2612"
    },
    {
      "channel": 0,
      "note": 49,
      "start": 15.5739,
      "duration": 0.2228,
      "velocity": 95,
      "chip": "ym2612"
    },
    {
      "channel": 2,
      "note": 51,
      "start": 15.5762,
      "duration": 0.1008,
      "velocity": 94,
      "chip": "ym2612"
    },
    {
      "channel": 3,
      "note": 82,
      "start": 15.5768,
      "duration": 0.1005,
      "velocity": 93,
      "chip": "ym2612"
    },
    {
      "channel": 4,
      "note": 82,
      "start": 15.6607,
      "duration": 0.1027,
      "velocity": 93,
      "chip": "ym2612"
    },
    {
      "channel": 2,
      "note": 51,
      "start": 15.6944,
      "duration": 0.1029,
      "velocity": 94,
      "chip": "ym2612"
    },
    {
      "channel": 3,
      "note": 85,
      "start": 15.695,
      "duration": 0.3427,
      "velocity": 93,
      "chip": "ym2612"
    },
    {
      "channel": 4,
      "note": 85,
      "start": 15.7808,
      "duration": 0.3428,
      "velocity": 93,
      "chip": "ym2612"
    },
    {
      "channel": 0,
      "note": 52,
      "start": 15.8141,
      "duration": 0.2228,
      "velocity": 95,
      "chip": "ym2612"
    },
    {
      "channel": 1,
      "note": 94,
      "start": 15.8178,
      "duration": 0.0992,
      "velocity": 100,
      "chip": "ym2612"
    },
    {
      "channel": 2,
      "note": 51,
      "start": 15.8199,
      "duration": 0.0973,
      "velocity": 94,
      "chip": "ym2612"
    },
    {
      "channel": 1,
      "note": 97,
      "start": 15.9344,
      "duration": 0.1028,
      "velocity": 100,
      "chip": "ym2612"
    },
    {
      "channel": 2,
      "note": 51,
      "start": 15.9364,
      "duration": 0.101,
      "velocity": 94,
      "chip": "ym2612"
    },
    {
      "channel": 0,
      "note": 49,
      "start": 16.0542,
      "duration": 0.2228,
      "velocity": 95,
      "chip": "ym2612"
    },
    {
      "channel": 1,
      "note": 91,
      "start": 16.0547,
      "duration": 0.1024,
      "velocity": 100,
      "chip": "ym2612"
    },
    {
      "channel": 2,
      "note": 51,
      "start": 16.0552,
      "duration": 0.1022,
      "velocity": 94,
      "chip": "ym2612"
    },
    {
      "channel": 3,
      "note": 91,
      "start": 16.0606,
      "duration": 0.0971,
      "velocity": 100,
      "chip": "ym2612"
    },
    {
      "channel": 4,
      "note": 91,
      "start": 16.1458,
      "duration": 0.0979,
      "velocity": 100,
      "chip": "ym2612"
    },
    {
      "channel": 1,
      "note": 94,
      "start": 16.1745,
      "duration": 0.1028,
      "velocity": 100,
      "chip": "ym2612"
    },
    {
      "channel": 2,
      "note": 51,
      "start": 16.175,
      "duration": 0.1026,
      "velocity": 94,
      "chip": "ym2612"
    },
    {
      "channel": 3,
      "note": 94,
      "start": 16.1756,
      "duration": 0.1023,
      "velocity": 100,
      "chip": "ym2612"
    },
    {
      "channel": 4,
      "note": 94,
      "start": 16.2611,
      "duration": 0.1028,
      "velocity": 100,
      "chip": "ym2612"
    },
    {
      "channel": 0,
      "note": 49,
      "start": 16.2944,
      "duration": 0.2228,
      "velocity": 95,
      "chip": "ym2612"
    },
    {
      "channel": 1,
      "note": 88,
      "start": 16.2949,
      "duration": 0.1025,
      "velocity": 100,
      "chip": "ym2612"
    },
    {
      "channel": 2,
      "note": 51,
      "start": 16.2954,
      "duration": 0.1022,
      "velocity": 94,
      "chip": "ym2612"
    },
    {
      "channel": 3,
      "note": 97,
      "start": 16.296,
      "duration": 0.1019,
      "velocity": 100,
      "chip": "ym2612"
    },
    {
      "channel": 4,
      "note": 97,
      "start": 16.3812,
      "duration": 0.1027,
      "velocity": 100,
      "chip": "ym2612"
    },
    {
      "channel": 1,
      "note": 91,
      "start": 16.4147,
      "duration": 0.1027,
      "velocity": 100,
      "chip": "ym2612"
    },
    {
      "channel": 2,
      "note": 51,
      "start": 16.4168,
      "duration": 0.1009,
      "velocity": 94,
      "chip": "ym2612"
    },
    {
      "channel": 3,
      "note": 91,
      "start": 16.4174,
      "duration": 0.1006,
      "velocity": 100,
      "chip": "ym2612"
    },
    {
      "channel": 4,
      "note": 91,
      "start": 16.5013,
      "duration": 0.1027,
      "velocity": 100,
      "chip": "ym2612"
    },
    {
      "channel": 0,
      "note": 49,
      "start": 16.5345,
      "duration": 0.2228,
      "velocity": 95,
      "chip": "ym2612"
    },
    {
      "channel": 1,
      "note": 85,
      "start": 16.5351,
      "duration": 0.1024,
      "velocity": 100,
      "chip": "ym2612"
    },
    {
      "channel": 2,
      "note": 51,
      "start": 16.5371,
      "duration": 0.1006,
      "velocity": 94,
      "chip": "ym2612"
    },
    {
      "channel": 3,
      "note": 94,
      "start": 16.5377,
      "duration": 0.1003,
      "velocity": 100,
      "chip": "ym2612"
    },
    {
      "channel": 4,
      "note": 94,
      "start": 16.6213,
      "duration": 0.1027,
      "velocity": 100,
      "chip": "ym2612"
    },
    {
      "channel": 1,
      "note": 88,
      "start": 16.6548,
      "duration": 0.1028,
      "velocity": 100,
      "chip": "ym2612"
    },
    {
      "channel": 2,
      "note": 51,
      "start": 16.6553,
      "duration": 0.1026,
      "velocity": 94,
      "chip": "ym2612"
    },
    {
      "channel": 3,
      "note": 88,
      "start": 16.6559,
      "duration": 0.1023,
      "velocity": 100,
      "chip": "ym2612"
    },
    {
      "channel": 4,
      "note": 88,
      "start": 16.7414,
      "duration": 0.1027,
      "velocity": 100,
      "chip": "ym2612"
    },
    {
      "channel": 0,
      "note": 49,
      "start": 16.7747,
      "duration": 0.2228,
      "velocity": 95,
      "chip": "ym2612"
    },
    {
      "channel": 1,
      "note": 82,
      "start": 16.7752,
      "duration": 0.1025,
      "velocity": 100,
      "chip": "ym2612"
    },
    {
      "channel": 2,
      "note": 51,
      "start": 16.7757,
      "duration": 0.1022,
      "velocity": 94,
      "chip": "ym2612"
    },
    {
      "channel": 3,
      "note": 91,
      "start": 16.7763,
      "duration": 0.102,
      "velocity": 100,
      "chip": "ym2612"
    },
    {
      "channel": 4,
      "note": 91,
      "start": 16.8615,
      "duration": 0.1027,
      "velocity": 100,
      "chip": "ym2612"
    },
    {
      "channel": 1,
      "note": 85,
      "start": 16.895,
      "duration": 0.1028,
      "velocity": 100,
      "chip": "ym2612"
    },
    {
      "channel": 2,
      "note": 51,
      "start": 16.8955,
      "duration": 0.1025,
      "velocity": 94,
      "chip": "ym2612"
    },
    {
      "channel": 3,
      "note": 85,
      "start": 16.8961,
      "duration": 0.1022,
      "velocity": 100,
      "chip": "ym2612"
    },
    {
      "channel": 4,
      "note": 85,
      "start": 16.9815,
      "duration": 0.1027,
      "velocity": 100,
      "chip": "ym2612"
    },
    {
      "channel": 0,
      "note": 49,
      "start": 17.0149,
      "duration": 0.2228,
      "velocity": 95,
      "chip": "ym2612"
    },
    {
      "channel": 1,
      "note": 79,
      "start": 17.0154,
      "duration": 0.1024,
      "velocity": 100,
      "chip": "ym2612"
    },
    {
      "channel": 2,
      "note": 51,
      "start": 17.0175,
      "duration": 0.1006,
      "velocity": 94,
      "chip": "ym2612"
    },
    {
      "channel": 3,
      "note": 88,
      "start": 17.0181,
      "duration": 0.1003,
      "velocity": 100,
      "chip": "ym2612"
    },
    {
      "channel": 4,
      "note": 88,
      "start": 17.1017,
      "duration": 0.1027,
      "velocity": 100,
      "chip": "ym2612"
    },
    {
      "channel": 1,
      "note": 82,
      "start": 17.1352,
      "duration": 0.1028,
      "velocity": 100,
      "chip": "ym2612"
    },
    {
      "channel": 2,
      "note": 51,
      "start": 17.1373,
      "duration": 0.101,
      "velocity": 94,
      "chip": "ym2612"
    },
    {
      "channel": 3,
      "note": 82,
      "start": 17.1379,
      "duration": 0.1006,
      "velocity": 100,
      "chip": "ym2612"
    },
    {
      "channel": 4,
      "note": 82,
      "start": 17.2217,
      "duration": 0.1027,
      "velocity": 100,
      "chip": "ym2612"
    },
    {
      "channel": 0,
      "note": 58,
      "start": 17.255,
      "duration": 0.2229,
      "velocity": 95,
      "chip": "ym2612"
    },
    {
      "channel": 1,
      "note": 76,
      "start": 17.2555,
      "duration": 0.1024,
      "velocity": 100,
      "chip": "ym2612"
    },
    {
      "channel": 2,
      "note": 51,
      "start": 17.256,
      "duration": 0.1022,
      "velocity": 94,
      "chip": "ym2612"
    },
    {
      "channel": 3,
      "note": 85,
      "start": 17.2566,
      "duration": 0.1019,
      "velocity": 100,
      "chip": "ym2612"
    },
    {
      "channel": 4,
      "note": 85,
      "start": 17.3418,
      "duration": 0.1027,
      "velocity": 100,
      "chip": "ym2612"
    },
    {
      "channel": 1,
      "note": 79,
      "start": 17.3753,
      "duration": 0.1028,
      "velocity": 100,
      "chip": "ym2612"
    },
    {
      "channel": 2,
      "note": 51,
      "start": 17.3774,
      "duration": 0.101,
      "velocity": 94,
      "chip": "ym2612"
    },
    {
      "channel": 3,
      "note": 79,
      "start": 17.378,
      "duration": 0.1006,
      "velocity": 100,
      "chip": "ym2612"
    },
    {
      "channel": 4,
      "note": 79,
      "start": 17.4619,
      "duration": 0.1027,
      "velocity": 100,
      "chip": "ym2612"
    },
    {
      "channel": 0,
      "note": 49,
      "start": 17.4952,
      "duration": 0.2228,
      "velocity": 95,
      "chip": "ym2612"
    },
    {
      "channel": 1,
      "note": 73,
      "start": 17.4957,
      "duration": 0.1025,
      "velocity": 100,
      "chip": "ym2612"
    },
    {
      "channel": 2,
      "note": 51,
      "start": 17.4979,
      "duration": 0.1005,
      "velocity": 94,
      "chip": "ym2612"
    },
    {
      "channel": 3,
      "note": 82,
      "start": 17.4985,
      "duration": 0.1003,
      "velocity": 100,
      "chip": "ym2612"
    },
    {
      "channel": 4,
      "note": 82,
      "start": 17.5819,
      "duration": 0.1027,
      "velocity": 100,
      "chip": "ym2612"
    },
    {
      "channel": 1,
      "note": 76,
      "start": 17.6155,
      "duration": 0.1028,
      "velocity": 100,
      "chip": "ym2612"
    },
    {
      "channel": 2,
      "note": 51,
      "start": 17.616,
      "duration": 0.1025,
      "velocity": 94,
      "chip": "ym2612"
    },
    {
      "channel": 3,
      "note": 76,
      "start": 17.6165,
      "duration": 0.1023,
      "velocity": 100,
      "chip": "ym2612"
    },
    {
      "channel": 4,
      "note": 76,
      "start": 17.702,
      "duration": 0.1027,
      "velocity": 100,
      "chip": "ym2612"
    },
    {
      "channel": 0,
      "note": 55,
      "start": 17.7353,
      "duration": 0.2229,
      "velocity": 95,
      "chip": "ym2612"
    },
    {
      "channel": 1,
      "note": 70,
      "start": 17.7358,
      "duration": 0.1025,
      "velocity": 100,
      "chip": "ym2612"
    },
    {
      "channel": 2,
      "note": 51,
      "start": 17.7379,
      "duration": 0.1006,
      "velocity": 94,
      "chip": "ym2612"
    },
    {
      "channel": 3,
      "note": 79,
      "start": 17.7385,
      "duration": 0.1003,
      "velocity": 100,
      "chip": "ym2612"
    },
    {
      "channel": 4,
      "note": 79,
      "start": 17.8221,
      "duration": 0.1027,
      "velocity": 100,
      "chip": "ym2612"
    },
    {
      "channel": 1,
      "note": 73,
      "start": 17.8556,
      "duration": 0.1028,
      "velocity": 100,
      "chip": "ym2612"
    },
    {
      "channel": 2,
      "note": 51,
      "start": 17.8578,
      "duration": 0.101,
      "velocity": 94,
      "chip": "ym2612"
    },
    {
      "channel": 3,
      "note": 73,
      "start": 17.8584,
      "duration": 0.1006,
      "velocity": 100,
      "chip": "ym2612"
    },
    {
      "channel": 4,
      "note": 73,
      "start": 17.9422,
      "duration": 0.0526,
      "velocity": 100,
      "chip": "ym2612"
    },
    {
      "channel": 0,
      "note": 49,
      "start": 17.9756,
      "duration": 0.0683,
      "velocity": 95,
      "chip": "ym2612"
    },
    {
      "channel": 1,
      "note": 97,
      "start": 17.9794,
      "duration": 0.0201,
      "velocity": 93,
      "chip": "ym2612"
    },
    {
      "channel": 2,
      "note": 51,
      "start": 17.9833,
      "duration": 0.0164,
      "velocity": 94,
      "chip": "ym2612"
    },
    {
      "channel": 3,
      "note": 76,
      "start": 17.984,
      "duration": 0.0161,
      "velocity": 100,
      "chip": "ym2612"
    },
    {
      "channel": 4,
      "note": 76,
      "start": 17.9975,
      "duration": 0.0176,
      "velocity": 100,
      "chip": "ym2612"
    },
    {
      "channel": 1,
      "note": 85,
      "start": 18.0022,
      "duration": 0.042,
      "velocity": 93,
      "chip": "ym2612"
    },
    {
      "channel": 2,
      "note": 51,
      "start": 18.0044,
      "duration": 0.0401,
      "velocity": 94,
      "chip": "ym2612"
    },
    {
      "channel": 3,
      "note": 70,
      "start": 18.005,
      "duration": 0.0398,
      "velocity": 100,
      "chip": "ym2612"
    },
    {
      "channel": 4,
      "note": 70,
      "start": 18.028,
      "duration": 0.1027,
      "velocity": 100,
      "chip": "ym2612"
    },
    {
      "channel": 0,
      "note": 49,
      "start": 18.0613,
      "duration": 0.2228,
      "velocity": 95,
      "chip": "ym2612"
    },
    {
      "channel": 1,
      "note": 94,
      "start": 18.0618,
      "duration": 0.1025,
      "velocity": 93,
      "chip": "ym2612"
    },
    {
      "channel": 2,
      "note": 51,
      "start": 18.0623,
      "duration": 0.1022,
      "velocity": 94,
      "chip": "ym2612"
    },
    {
      "channel": 3,
      "note": 73,
      "start": 18.0677,
      "duration": 0.0971,
      "velocity": 93,
      "chip": "ym2612"
    },
    {
      "channel": 4,
      "note": 73,
      "start": 18.1529,
      "duration": 0.0979,
      "velocity": 93,
      "chip": "ym2612"
    },
    {
      "channel": 1,
      "note": 91,
      "start": 18.1816,
      "duration": 0.1028,
      "velocity": 93,
      "chip": "ym2612"
    },
    {
      "channel": 2,
      "note": 51,
      "start": 18.1838,
      "duration": 0.1009,
      "velocity": 94,
      "chip": "ym2612"
    },
    {
      "channel": 3,
      "note": 97,
      "start": 18.1843,
      "duration": 0.1007,
      "velocity": 93,
      "chip": "ym2612"
    },
    {
      "channel": 4,
      "note": 97,
      "start": 18.2682,
      "duration": 0.0469,
      "velocity": 93,
      "chip": "ym2612"
    },
    {
      "channel": 0,
      "note": 49,
      "start": 18.3015,
      "duration": 0.0682,
      "velocity": 95,
      "chip": "ym2612"
    },
    {
      "channel": 1,
      "note": 88,
      "start": 18.302,
      "duration": 0.0176,
      "velocity": 93,
      "chip": "ym2612"
    },
    {
      "channel": 2,
      "note": 51,
      "start": 18.3041,
      "duration": 0.0156,
      "velocity": 94,
      "chip": "ym2612"
    },
    {
      "channel": 3,
      "note": 85,
      "start": 18.3047,
      "duration": 0.0154,
      "velocity": 93,
      "chip": "ym2612"
    },
    {
      "channel": 4,
      "note": 85,
      "start": 18.3178,
      "duration": 0.0186,
      "velocity": 93,
      "chip": "ym2612"
    },
    {
      "channel": 1,
      "note": 76,
      "start": 18.3223,
      "duration": 0.0477,
      "velocity": 93,
      "chip": "ym2612"
    },
    {
      "channel": 2,
      "note": 51,
      "start": 18.3228,
      "duration": 0.0475,
      "velocity": 94,
      "chip": "ym2612"
    },
    {
      "channel": 3,
      "note": 94,
      "start": 18.3234,
      "duration": 0.0472,
      "velocity": 93,
      "chip": "ym2612"
    },
    {
      "channel": 4,
      "note": 94,
      "start": 18.3538,
      "duration": 0.1027,
      "velocity": 93,
      "chip": "ym2612"
    },
    {
      "channel": 0,
      "note": 49,
      "start": 18.3871,
      "duration": 0.2228,
      "velocity": 95,
      "chip": "ym2612"
    },
    {
      "channel": 1,
      "note": 79,
      "start": 18.3876,
      "duration": 0.1024,
      "velocity": 93,
      "chip": "ym2612"
    },
    {
      "channel": 2,
      "note": 51,
      "start": 18.3881,
      "duration": 0.1022,
      "velocity": 94,
      "chip": "ym2612"
    },
    {
      "channel": 3,
      "note": 91,
      "start": 18.3888,
      "duration": 0.1018,
      "velocity": 93,
      "chip": "ym2612"
    },
    {
      "channel": 4,
      "note": 91,
      "start": 18.4739,
      "duration": 0.1027,
      "velocity": 93,
      "chip": "ym2612"
    },
    {
      "channel": 1,
      "note": 82,
      "start": 18.5074,
      "duration": 0.1027,
      "velocity": 93,
      "chip": "ym2612"
    },
    {
      "channel": 2,
      "note": 51,
      "start": 18.5079,
      "duration": 0.1025,
      "velocity": 94,
      "chip": "ym2612"
    },
    {
      "channel": 3,
      "note": 88,
      "start": 18.5085,
      "duration": 0.1022,
      "velocity": 93,
      "chip": "ym2612"
    },
    {
      "channel": 4,
      "note": 88,
      "start": 18.594,
      "duration": 0.0469,
      "velocity": 93,
      "chip": "ym2612"
    },
    {
      "channel": 0,
      "note": 49,
      "start": 18.6272,
      "duration": 0.0683,
      "velocity": 95,
      "chip": "ym2612"
    },
    {
      "channel": 1,
      "note": 85,
      "start": 18.6278,
      "duration": 0.0175,
      "velocity": 93,
      "chip": "ym2612"
    },
    {
      "channel": 2,
      "note": 51,
      "start": 18.6298,
      "duration": 0.0157,
      "velocity": 94,
      "chip": "ym2612"
    },
    {
      "channel": 3,
      "note": 76,
      "start": 18.6305,
      "duration": 0.0153,
      "velocity": 93,
      "chip": "ym2612"
    },
    {
      "channel": 4,
      "note": 76,
      "start": 18.6435,
      "duration": 0.0187,
      "velocity": 93,
      "chip": "ym2612"
    },
    {
      "channel": 1,
      "note": 94,
      "start": 18.648,
      "duration": 0.0478,
      "velocity": 93,
      "chip": "ym2612"
    },
    {
      "channel": 2,
      "note": 51,
      "start": 18.6501,
      "duration": 0.0459,
      "velocity": 94,
      "chip": "ym2612"
    },
    {
      "channel": 3,
      "note": 79,
      "start": 18.6507,
      "duration": 0.0456,
      "velocity": 93,
      "chip": "ym2612"
    },
    {
      "channel": 4,
      "note": 79,
      "start": 18.6795,
      "duration": 0.1027,
      "velocity": 93,
      "chip": "ym2612"
    },
    {
      "channel": 0,
      "note": 55,
      "start": 18.7129,
      "duration": 0.2228,
      "velocity": 95,
      "chip": "ym2612"
    },
    {
      "channel": 1,
      "note": 91,
      "start": 18.7133,
      "duration": 0.1025,
      "velocity": 93,
      "chip": "ym2612"
    },
    {
      "channel": 2,
      "note": 51,
      "start": 18.7138,
      "duration": 0.1022,
      "velocity": 94,
      "chip": "ym2612"
    },
    {
      "channel": 3,
      "note": 82,
      "start": 18.7145,
      "duration": 0.102,
      "velocity": 93,
      "chip": "ym2612"
    },
    {
      "channel": 4,
      "note": 82,
      "start": 18.7997,
      "duration": 0.1027,
      "velocity": 93,
      "chip": "ym2612"
    },
    {
      "channel": 1,
      "note": 82,
      "start": 18.8332,
      "duration": 0.1883,
      "velocity": 93,
      "chip": "ym2612"
    },
    {
      "channel": 2,
      "note": 51,
      "start": 18.8354,
      "duration": 0.1007,
      "velocity": 94,
      "chip": "ym2612"
    },
    {
      "channel": 3,
      "note": 85,
      "start": 18.8359,
      "duration": 0.1005,
      "velocity": 93,
      "chip": "ym2612"
    },
    {
      "channel": 4,
      "note": 85,
      "start": 18.9197,
      "duration": 0.0468,
      "velocity": 93,
      "chip": "ym2612"
    },
    {
      "channel": 0,
      "note": 49,
      "start": 18.953,
      "duration": 0.0682,
      "velocity": 95,
      "chip": "ym2612"
    },
    {
      "channel": 2,
      "note": 51,
      "start": 18.9554,
      "duration": 0.0157,
      "velocity": 94,
      "chip": "ym2612"
    },
    {
      "channel": 3,
      "note": 94,
      "start": 18.9559,
      "duration": 0.0155,
      "velocity": 93,
      "chip": "ym2612"
    },
    {
      "channel": 4,
      "note": 94,
      "start": 18.9691,
      "duration": 0.0188,
      "velocity": 93,
      "chip": "ym2612"
    },
    {
      "channel": 2,
      "note": 51,
      "start": 18.9738,
      "duration": 0.048,
      "velocity": 94,
      "chip": "ym2612"
    },
    {
      "channel": 3,
      "note": 91,
      "start": 18.9744,
      "duration": 0.288,
      "velocity": 93,
      "chip": "ym2612"
    },
    {
      "channel": 4,
      "note": 91,
      "start": 19.0053,
      "duration": 0.2919,
      "velocity": 93,
      "chip": "ym2612"
    },
    {
      "channel": 0,
      "note": 52,
      "start": 19.0386,
      "duration": 0.2228,
      "velocity": 95,
      "chip": "ym2612"
    },
    {
      "channel": 1,
      "note": 69,
      "start": 19.0424,
      "duration": 0.0003,
      "velocity": 98,
      "chip": "ym2612"
    },
    {
      "channel": 1,
      "note": 73,
      "start": 19.0427,
      "duration": 1.5227,
      "velocity": 98,
      "chip": "ym2612"
    },
    {
      "channel": 2,
      "note": 51,
      "start": 19.045,
      "duration": 0.0969,
      "velocity": 94,
      "chip": "ym2612"
    },
    {
      "channel": 2,
      "note": 51,
      "start": 19.1609,
      "duration": 0.1012,
      "velocity": 94,
      "chip": "ym2612"
    },
    {
      "channel": 0,
      "note": 49,
      "start": 19.2788,
      "duration": 0.0682,
      "velocity": 95,
      "chip": "ym2612"
    },
    {
      "channel": 2,
      "note": 51,
      "start": 19.2796,
      "duration": 0.0278,
      "velocity": 94,
      "chip": "ym2612"
    },
    {
      "channel": 3,
      "note": 82,
      "start": 19.285,
      "duration": 0.0004,
      "velocity": 98,
      "chip": "ym2612"
    },
    {
      "channel": 3,
      "note": 82,
      "start": 19.2854,
      "duration": 1.366,
      "velocity": 98,
      "chip": "ym2612"
    },
    {
      "channel": 4,
      "note": 82,
      "start": 19.3048,
      "duration": 0.0005,
      "velocity": 98,
      "chip": "ym2612"
    },
    {
      "channel": 4,
      "note": 82,
      "start": 19.3053,
      "duration": 1.432,
      "velocity": 98,
      "chip": "ym2612"
    },
    {
      "channel": 2,
      "note": 51,
      "start": 19.3103,
      "duration": 0.0371,
      "velocity": 94,
      "chip": "ym2612"
    },
    {
      "channel": 0,
      "note": 49,
      "start": 19.3643,
      "duration": 0.2228,
      "velocity": 95,
      "chip": "ym2612"
    },
    {
      "channel": 2,
      "note": 51,
      "start": 19.3651,
      "duration": 0.1024,
      "velocity": 94,
      "chip": "ym2612"
    },
    {
      "channel": 2,
      "note": 51,
      "start": 19.4865,
      "duration": 0.1012,
      "velocity": 94,
      "chip": "ym2612"
    },
    {
      "channel": 0,
      "note": 49,
      "start": 19.6045,
      "duration": 0.0687,
      "velocity": 95,
      "chip": "ym2612"
    },
    {
      "channel": 2,
      "note": 51,
      "start": 19.6068,
      "duration": 0.0159,
      "velocity": 94,
      "chip": "ym2612"
    },
    {
      "channel": 2,
      "note": 51,
      "start": 19.6256,
      "duration": 0.048,
      "velocity": 94,
      "chip": "ym2612"
    },
    {
      "channel": 0,
      "note": 49,
      "start": 19.6905,
      "duration": 0.2228,
      "velocity": 95,
      "chip": "ym2612"
    },
    {
      "channel": 2,
      "note": 51,
      "start": 19.6913,
      "duration": 0.1024,
      "velocity": 94,
      "chip": "ym2612"
    },
    {
      "channel": 2,
      "note": 51,
      "start": 19.811,
      "duration": 0.1029,
      "velocity": 94,
      "chip": "ym2612"
    },
    {
      "channel": 0,
      "note": 49,
      "start": 19.9306,
      "duration": 0.0685,
      "velocity": 95,
      "chip": "ym2612"
    },
    {
      "channel": 2,
      "note": 51,
      "start": 19.933,
      "duration": 0.0155,
      "velocity": 94,
      "chip": "ym2612"
    },
    {
      "channel": 2,
      "note": 51,
      "start": 19.9529,
      "duration": 0.0468,
      "velocity": 94,
      "chip": "ym2612"
    },
    {
      "channel": 0,
      "note": 58,
      "start": 20.0165,
      "duration": 0.2228,
      "velocity": 95,
      "chip": "ym2612"
    },
    {
      "channel": 2,
      "note": 51,
      "start": 20.0172,
      "duration": 0.1025,
      "velocity": 94,
      "chip": "ym2612"
    },
    {
      "channel": 2,
      "note": 51,
      "start": 20.1385,
      "duration": 0.1012,
      "velocity": 94,
      "chip": "ym2612"
    },
    {
      "channel": 0,
      "note": 49,
      "start": 20.2566,
      "duration": 0.0683,
      "velocity": 95,
      "chip": "ym2612"
    },
    {
      "channel": 2,
      "note": 51,
      "start": 20.259,
      "duration": 0.0156,
      "velocity": 94,
      "chip": "ym2612"
    },
    {
      "channel": 2,
      "note": 51,
      "start": 20.2773,
      "duration": 0.0481,
      "velocity": 94,
      "chip": "ym2612"
    },
    {
      "channel": 0,
      "note": 55,
      "start": 20.3422,
      "duration": 0.2228,
      "velocity": 95,
      "chip": "ym2612"
    },
    {
      "channel": 2,
      "note": 51,
      "start": 20.3446,
      "duration": 0.1008,
      "velocity": 94,
      "chip": "ym2612"
    },
    {
      "channel": 2,
      "note": 51,
      "start": 20.4644,
      "duration": 0.1012,
      "velocity": 94,
      "chip": "ym2612"
    },
    {
      "channel": 0,
      "note": 49,
      "start": 20.5826,
      "duration": 0.068,
      "velocity": 95,
      "chip": "ym2612"
    },
    {
      "channel": 1,
      "note": 73,
      "start": 20.5864,
      "duration": 0.0195,
      "velocity": 93,
      "chip": "ym2612"
    },
    {
      "channel": 2,
      "note": 51,
      "start": 20.5902,
      "duration": 0.0159,
      "velocity": 94,
      "chip": "ym2612"
    },
    {
      "channel": 1,
      "note": 85,
      "start": 20.6087,
      "duration": 0.0422,
      "velocity": 93,
      "chip": "ym2612"
    },
    {
      "channel": 2,
      "note": 51,
      "start": 20.6108,
      "duration": 0.0403,
      "velocity": 94,
      "chip": "ym2612"
    },
    {
      "channel": 0,
      "note": 49,
      "start": 20.6679,
      "duration": 0.2228,
      "velocity": 95,
      "chip": "ym2612"
    },
    {
      "channel": 1,
      "note": 88,
      "start": 20.6684,
      "duration": 0.1024,
      "velocity": 93,
      "chip": "ym2612"
    },
    {
      "channel": 2,
      "note": 51,
      "start": 20.6689,
      "duration": 0.1022,
      "velocity": 94,
      "chip": "ym2612"
    },
    {
      "channel": 3,
      "note": 73,
      "start": 20.6744,
      "duration": 0.097,
      "velocity": 93,
      "chip": "ym2612"
    },
    {
      "channel": 4,
      "note": 73,
      "start": 20.7597,
      "duration": 0.0977,
      "velocity": 93,
      "chip": "ym2612"
    },
    {
      "channel": 1,
      "note": 79,
      "start": 20.7882,
      "duration": 0.1028,
      "velocity": 93,
      "chip": "ym2612"
    },
    {
      "channel": 2,
      "note": 51,
      "start": 20.7904,
      "duration": 0.1009,
      "velocity": 94,
      "chip": "ym2612"
    },
    {
      "channel": 3,
      "note": 73,
      "start": 20.791,
      "duration": 0.1005,
      "velocity": 93,
      "chip": "ym2612"
    },
    {
      "channel": 4,
      "note": 73,
      "start": 20.8748,
      "duration": 0.0469,
      "velocity": 93,
      "chip": "ym2612"
    },
    {
      "channel": 0,
      "note": 49,
      "start": 20.9081,
      "duration": 0.0682,
      "velocity": 95,
      "chip": "ym2612"
    },
    {
      "channel": 1,
      "note": 91,
      "start": 20.9086,
      "duration": 0.0176,
      "velocity": 93,
      "chip": "ym2612"
    },
    {
      "channel": 2,
      "note": 51,
      "start": 20.9107,
      "duration": 0.0158,
      "velocity": 94,
      "chip": "ym2612"
    },
    {
      "channel": 3,
      "note": 85,
      "start": 20.9113,
      "duration": 0.0154,
      "velocity": 93,
      "chip": "ym2612"
    },
    {
      "channel": 4,
      "note": 85,
      "start": 20.9244,
      "duration": 0.0186,
      "velocity": 93,
      "chip": "ym2612"
    },
    {
      "channel": 1,
      "note": 82,
      "start": 20.9289,
      "duration": 0.0476,
      "velocity": 93,
      "chip": "ym2612"
    },
    {
      "channel": 2,
      "note": 51,
      "start": 20.9294,
      "duration": 0.0473,
      "velocity": 94,
      "chip": "ym2612"
    },
    {
      "channel": 3,
      "note": 88,
      "start": 20.93,
      "duration": 0.0471,
      "velocity": 93,
      "chip": "ym2612"
    },
    {
      "channel": 4,
      "note": 88,
      "start": 20.9604,
      "duration": 0.1027,
      "velocity": 93,
      "chip": "ym2612"
    },
    {
      "channel": 0,
      "note": 49,
      "start": 20.9937,
      "duration": 0.2228,
      "velocity": 95,
      "chip": "ym2612"
    },
    {
      "channel": 1,
      "note": 85,
      "start": 20.9941,
      "duration": 0.1025,
      "velocity": 93,
      "chip": "ym2612"
    },
    {
      "channel": 2,
      "note": 51,
      "start": 20.9947,
      "duration": 0.1022,
      "velocity": 94,
      "chip": "ym2612"
    },
    {
      "channel": 3,
      "note": 79,
      "start": 20.9952,
      "duration": 0.102,
      "velocity": 93,
      "chip": "ym2612"
    },
    {
      "channel": 4,
      "note": 79,
      "start": 21.0805,
      "duration": 0.1027,
      "velocity": 93,
      "chip": "ym2612"
    },
    {
      "channel": 1,
      "note": 94,
      "start": 21.114,
      "duration": 0.1027,
      "velocity": 93,
      "chip": "ym2612"
    },
    {
      "channel": 2,
      "note": 51,
      "start": 21.1144,
      "duration": 0.1025,
      "velocity": 94,
      "chip": "ym2612"
    },
    {
      "channel": 3,
      "note": 91,
      "start": 21.1151,
      "duration": 0.1022,
      "velocity": 93,
      "chip": "ym2612"
    },
    {
      "channel": 4,
      "note": 91,
      "start": 21.2006,
      "duration": 0.047,
      "velocity": 93,
      "chip": "ym2612"
    },
    {
      "channel": 0,
      "note": 49,
      "start": 21.2339,
      "duration": 0.0684,
      "velocity": 95,
      "chip": "ym2612"
    },
    {
      "channel": 1,
      "note": 97,
      "start": 21.2343,
      "duration": 0.0179,
      "velocity": 93,
      "chip": "ym2612"
    },
    {
      "channel": 2,
      "note": 51,
      "start": 21.2365,
      "duration": 0.0159,
      "velocity": 94,
      "chip": "ym2612"
    },
    {
      "channel": 3,
      "note": 82,
      "start": 21.2371,
      "duration": 0.0156,
      "velocity": 93,
      "chip": "ym2612"
    },
    {
      "channel": 4,
      "note": 82,
      "start": 21.2503,
      "duration": 0.0187,
      "velocity": 93,
      "chip": "ym2612"
    },
    {
      "channel": 1,
      "note": 82,
      "start": 21.2549,
      "duration": 0.0476,
      "velocity": 93,
      "chip": "ym2612"
    },
    {
      "channel": 2,
      "note": 51,
      "start": 21.257,
      "duration": 0.0458,
      "velocity": 94,
      "chip": "ym2612"
    },
    {
      "channel": 3,
      "note": 85,
      "start": 21.2576,
      "duration": 0.0454,
      "velocity": 93,
      "chip": "ym2612"
    },
    {
      "channel": 4,
      "note": 85,
      "start": 21.2863,
      "duration": 0.1027,
      "velocity": 93,
      "chip": "ym2612"
    },
    {
      "channel": 0,
      "note": 55,
      "start": 21.3196,
      "duration": 0.2228,
      "velocity": 95,
      "chip": "ym2612"
    },
    {
      "channel": 1,
      "note": 85,
      "start": 21.3201,
      "duration": 0.1024,
      "velocity": 93,
      "chip": "ym2612"
    },
    {
      "channel": 2,
      "note": 51,
      "start": 21.3206,
      "duration": 0.1022,
      "velocity": 94,
      "chip": "ym2612"
    },
    {
      "channel": 3,
      "note": 94,
      "start": 21.3212,
      "duration": 0.1019,
      "velocity": 93,
      "chip": "ym2612"
    },
    {
      "channel": 4,
      "note": 94,
      "start": 21.4064,
      "duration": 0.1027,
      "velocity": 93,
      "chip": "ym2612"
    },
    {
      "channel": 1,
      "note": 91,
      "start": 21.4399,
      "duration": 0.4288,
      "velocity": 93,
      "chip": "ym2612"
    },
    {
      "channel": 2,
      "note": 51,
      "start": 21.442,
      "duration": 0.1009,
      "velocity": 94,
      "chip": "ym2612"
    },
    {
      "channel": 3,
      "note": 97,
      "start": 21.4426,
      "duration": 0.1006,
      "velocity": 93,
      "chip": "ym2612"
    },
    {
      "channel": 4,
      "note": 97,
      "start": 21.5265,
      "duration": 0.0466,
      "velocity": 93,
      "chip": "ym2612"
    },
    {
      "channel": 0,
      "note": 49,
      "start": 21.5597,
      "duration": 0.0686,
      "velocity": 95,
      "chip": "ym2612"
    },
    {
      "channel": 2,
      "note": 51,
      "start": 21.5621,
      "duration": 0.0158,
      "velocity": 94,
      "chip": "ym2612"
    },
    {
      "channel": 3,
      "note": 82,
      "start": 21.5627,
      "duration": 0.0155,
      "velocity": 93,
      "chip": "ym2612"
    },
    {
      "channel": 4,
      "note": 82,
      "start": 21.5758,
      "duration": 0.0192,
      "velocity": 93,
      "chip": "ym2612"
    },
    {
      "channel": 2,
      "note": 51,
      "start": 21.5806,
      "duration": 0.0482,
      "velocity": 94,
      "chip": "ym2612"
    },
    {
      "channel": 3,
      "note": 85,
      "start": 21.5813,
      "duration": 0.3739,
      "velocity": 93,
      "chip": "ym2612"
    },
    {
      "channel": 4,
      "note": 85,
      "start": 21.6124,
      "duration": 0.4287,
      "velocity": 93,
      "chip": "ym2612"
    },
    {
      "channel": 0,
      "note": 52,
      "start": 21.6457,
      "duration": 0.2228,
      "velocity": 95,
      "chip": "ym2612"
    },
    {
      "channel": 2,
      "note": 51,
      "start": 21.648,
      "duration": 0.1008,
      "velocity": 94,
      "chip": "ym2612"
    },
    {
      "channel": 2,
      "note": 51,
      "start": 21.7678,
      "duration": 0.1012,
      "velocity": 94,
      "chip": "ym2612"
    },
    {
      "channel": 0,
      "note": 49,
      "start": 21.8858,
      "duration": 0.0685,
      "velocity": 95,
      "chip": "ym2612"
    },
    {
      "channel": 2,
      "note": 51,
      "start": 21.8867,
      "duration": 0.0153,
      "velocity": 94,
      "chip": "ym2612"
    },
    {
      "channel": 2,
      "note": 51,
      "start": 21.9045,
      "duration": 0.0502,
      "velocity": 94,
      "chip": "ym2612"
    },
    {
      "channel": 0,
      "note": 49,
      "start": 21.9717,
      "duration": 0.2228,
      "velocity": 95,
      "chip": "ym2612"
    },
    {
      "channel": 2,
      "note": 51,
      "start": 21.9725,
      "duration": 0.1024,
      "velocity": 94,
      "chip": "ym2612"
    },
    {
      "channel": 2,
      "note": 51,
      "start": 22.0939,
      "duration": 0.1011,
      "velocity": 94,
      "chip": "ym2612"
    },
    {
      "channel": 0,
      "note": 49,
      "start": 22.2118,
      "duration": 0.0683,
      "velocity": 95,
      "chip": "ym2612"
    },
    {
      "channel": 2,
      "note": 51,
      "start": 22.2142,
      "duration": 0.0152,
      "velocity": 94,
      "chip": "ym2612"
    },
    {
      "channel": 2,
      "note": 51,
      "start": 22.232,
      "duration": 0.0486,
      "velocity": 94,
      "chip": "ym2612"
    },
    {
      "channel": 0,
      "note": 49,
      "start": 22.2975,
      "duration": 0.2228,
      "velocity": 95,
      "chip": "ym2612"
    },
    {
      "channel": 2,
      "note": 51,
      "start": 22.2983,
      "duration": 0.1025,
      "velocity": 94,
      "chip": "ym2612"
    },
    {
      "channel": 2,
      "note": 51,
      "start": 22.4182,
      "duration": 0.1027,
      "velocity": 94,
      "chip": "ym2612"
    },
    {
      "channel": 0,
      "note": 49,
      "start": 22.5376,
      "duration": 0.0682,
      "velocity": 95,
      "chip": "ym2612"
    },
    {
      "channel": 2,
      "note": 51,
      "start": 22.54,
      "duration": 0.0154,
      "velocity": 94,
      "chip": "ym2612"
    },
    {
      "channel": 2,
      "note": 51,
      "start": 22.5597,
      "duration": 0.0467,
      "velocity": 94,
      "chip": "ym2612"
    },
    {
      "channel": 0,
      "note": 58,
      "start": 22.6232,
      "duration": 0.2229,
      "velocity": 95,
      "chip": "ym2612"
    },
    {
      "channel": 2,
      "note": 51,
      "start": 22.6239,
      "duration": 0.1025,
      "velocity": 94,
      "chip": "ym2612"
    },
    {
      "channel": 2,
      "note": 51,
      "start": 22.7453,
      "duration": 0.1013,
      "velocity": 94,
      "chip": "ym2612"
    },
    {
      "channel": 0,
      "note": 49,
      "start": 22.8633,
      "duration": 0.0682,
      "velocity": 95,
      "chip": "ym2612"
    },
    {
      "channel": 2,
      "note": 51,
      "start": 22.8657,
      "duration": 0.0154,
      "velocity": 94,
      "chip": "ym2612"
    },
    {
      "channel": 2,
      "note": 51,
      "start": 22.8838,
      "duration": 0.0482,
      "velocity": 94,
      "chip": "ym2612"
    },
    {
      "channel": 0,
      "note": 55,
      "start": 22.9488,
      "duration": 0.2228,
      "velocity": 95,
      "chip": "ym2612"
    },
    {
      "channel": 2,
      "note": 51,
      "start": 22.9512,
      "duration": 0.1009,
      "velocity": 94,
      "chip": "ym2612"
    },
    {
      "channel": 2,
      "note": 51,
      "start": 23.071,
      "duration": 0.1012,
      "velocity": 94,
      "chip": "ym2612"
    },
    {
      "channel": 0,
      "note": 49,
      "start": 23.1891,
      "duration": 0.0684,
      "velocity": 95,
      "chip": "ym2612"
    },
    {
      "channel": 1,
      "note": 73,
      "start": 23.1896,
      "duration": 0.0202,
      "velocity": 93,
      "chip": "ym2612"
    },
    {
      "channel": 2,
      "note": 51,
      "start": 23.1936,
      "duration": 0.0165,
      "velocity": 94,
      "chip": "ym2612"
    },
    {
      "channel": 1,
      "note": 85,
      "start": 23.2125,
      "duration": 0.0453,
      "velocity": 93,
      "chip": "ym2612"
    },
    {
      "channel": 2,
      "note": 51,
      "start": 23.2147,
      "duration": 0.0434,
      "velocity": 94,
      "chip": "ym2612"
    },
    {
      "channel": 0,
      "note": 49,
      "start": 23.2749,
      "duration": 0.2228,
      "velocity": 95,
      "chip": "ym2612"
    },
    {
      "channel": 1,
      "note": 88,
      "start": 23.2754,
      "duration": 0.1024,
      "velocity": 93,
      "chip": "ym2612"
    },
    {
      "channel": 2,
      "note": 51,
      "start": 23.2759,
      "duration": 0.1022,
      "velocity": 94,
      "chip": "ym2612"
    },
    {
      "channel": 3,
      "note": 91,
      "start": 23.2765,
      "duration": 0.1019,
      "velocity": 93,
      "chip": "ym2612"
    },
    {
      "channel": 4,
      "note": 91,
      "start": 23.3617,
      "duration": 0.1027,
      "velocity": 93,
      "chip": "ym2612"
    },
    {
      "channel": 1,
      "note": 79,
      "start": 23.3952,
      "duration": 0.1028,
      "velocity": 93,
      "chip": "ym2612"
    },
    {
      "channel": 2,
      "note": 51,
      "start": 23.3973,
      "duration": 0.101,
      "velocity": 94,
      "chip": "ym2612"
    },
    {
      "channel": 3,
      "note": 73,
      "start": 23.3979,
      "duration": 0.1006,
      "velocity": 93,
      "chip": "ym2612"
    },
    {
      "channel": 4,
      "note": 73,
      "start": 23.4818,
      "duration": 0.0468,
      "velocity": 93,
      "chip": "ym2612"
    },
    {
      "channel": 0,
      "note": 49,
      "start": 23.5151,
      "duration": 0.0684,
      "velocity": 95,
      "chip": "ym2612"
    },
    {
      "channel": 1,
      "note": 91,
      "start": 23.5156,
      "duration": 0.0175,
      "velocity": 93,
      "chip": "ym2612"
    },
    {
      "channel": 2,
      "note": 51,
      "start": 23.5177,
      "duration": 0.0156,
      "velocity": 94,
      "chip": "ym2612"
    },
    {
      "channel": 3,
      "note": 85,
      "start": 23.5183,
      "duration": 0.0154,
      "velocity": 93,
      "chip": "ym2612"
    },
    {
      "channel": 4,
      "note": 85,
      "start": 23.5313,
      "duration": 0.0189,
      "velocity": 93,
      "chip": "ym2612"
    },
    {
      "channel": 1,
      "note": 82,
      "start": 23.5358,
      "duration": 0.048,
      "velocity": 93,
      "chip": "ym2612"
    },
    {
      "channel": 2,
      "note": 51,
      "start": 23.5363,
      "duration": 0.0477,
      "velocity": 94,
      "chip": "ym2612"
    },
    {
      "channel": 3,
      "note": 88,
      "start": 23.5369,
      "duration": 0.0474,
      "velocity": 93,
      "chip": "ym2612"
    },
    {
      "channel": 4,
      "note": 88,
      "start": 23.5676,
      "duration": 0.1027,
      "velocity": 93,
      "chip": "ym2612"
    },
    {
      "channel": 0,
      "note": 49,
      "start": 23.6009,
      "duration": 0.2229,
      "velocity": 95,
      "chip": "ym2612"
    },
    {
      "channel": 1,
      "note": 85,
      "start": 23.6013,
      "duration": 0.1025,
      "velocity": 93,
      "chip": "ym2612"
    },
    {
      "channel": 2,
      "note": 51,
      "start": 23.6019,
      "duration": 0.1022,
      "velocity": 94,
      "chip": "ym2612"
    },
    {
      "channel": 3,
      "note": 79,
      "start": 23.6025,
      "duration": 0.1019,
      "velocity": 93,
      "chip": "ym2612"
    },
    {
      "channel": 4,
      "note": 79,
      "start": 23.6877,
      "duration": 0.1027,
      "velocity": 93,
      "chip": "ym2612"
    },
    {
      "channel": 1,
      "note": 94,
      "start": 23.7212,
      "duration": 0.1028,
      "velocity": 93,
      "chip": "ym2612"
    },
    {
      "channel": 2,
      "note": 51,
      "start": 23.7217,
      "duration": 0.1025,
      "velocity": 94,
      "chip": "ym2612"
    },
    {
      "channel": 3,
      "note": 91,
      "start": 23.7223,
      "duration": 0.1022,
      "velocity": 93,
      "chip": "ym2612"
    },
    {
      "channel": 4,
      "note": 91,
      "start": 23.8078,
      "duration": 0.0469,
      "velocity": 93,
      "chip": "ym2612"
    },
    {
      "channel": 0,
      "note": 49,
      "start": 23.841,
      "duration": 0.0684,
      "velocity": 95,
      "chip": "ym2612"
    },
    {
      "channel": 1,
      "note": 97,
      "start": 23.8415,
      "duration": 0.0176,
      "velocity": 93,
      "chip": "ym2612"
    },
    {
      "channel": 2,
      "note": 51,
      "start": 23.8437,
      "duration": 0.0157,
      "velocity": 94,
      "chip": "ym2612"
    },
    {
      "channel": 3,
      "note": 82,
      "start": 23.8443,
      "duration": 0.0154,
      "velocity": 93,
      "chip": "ym2612"
    },
    {
      "channel": 4,
      "note": 82,
      "start": 23.8573,
      "duration": 0.0188,
      "velocity": 93,
      "chip": "ym2612"
    },
    {
      "channel": 1,
      "note": 82,
      "start": 23.8619,
      "duration": 0.0478,
      "velocity": 93,
      "chip": "ym2612"
    },
    {
      "channel": 2,
      "note": 51,
      "start": 23.864,
      "duration": 0.0459,
      "velocity": 94,
      "chip": "ym2612"
    },
    {
      "channel": 3,
      "note": 85,
      "start": 23.8646,
      "duration": 0.0456,
      "velocity": 93,
      "chip": "ym2612"
    },
    {
      "channel": 4,
      "note": 85,
      "start": 23.8935,
      "duration": 0.1027,
      "velocity": 93,
      "chip": "ym2612"
    },
    {
      "channel": 0,
      "note": 55,
      "start": 23.9268,
      "duration": 0.2228,
      "velocity": 95,
      "chip": "ym2612"
    },
    {
      "channel": 1,
      "note": 85,
      "start": 23.9272,
      "duration": 0.1025,
      "velocity": 93,
      "chip": "ym2612"
    },
    {
      "channel": 2,
      "note": 51,
      "start": 23.9278,
      "duration": 0.1022,
      "velocity": 94,
      "chip": "ym2612"
    },
    {
      "channel": 3,
      "note": 94,
      "start": 23.9285,
      "duration": 0.1018,
      "velocity": 93,
      "chip": "ym2612"
    },
    {
      "channel": 4,
      "note": 94,
      "start": 24.0136,
      "duration": 0.1027,
      "velocity": 93,
      "chip": "ym2612"
    },
    {
      "channel": 1,
      "note": 91,
      "start": 24.047,
      "duration": 0.1884,
      "velocity": 93,
      "chip": "ym2612"
    },
    {
      "channel": 2,
      "note": 51,
      "start": 24.0492,
      "duration": 0.1009,
      "velocity": 94,
      "chip": "ym2612"
    },
    {
      "channel": 3,
      "note": 97,
      "start": 24.0498,
      "duration": 0.1006,
      "velocity": 93,
      "chip": "ym2612"
    },
    {
      "channel": 4,
      "note": 97,
      "start": 24.1337,
      "duration": 0.0466,
      "velocity": 93,
      "chip": "ym2612"
    },
    {
      "channel": 0,
      "note": 49,
      "start": 24.1669,
      "duration": 0.0682,
      "velocity": 95,
      "chip": "ym2612"
    },
    {
      "channel": 2,
      "note": 51,
      "start": 24.1692,
      "duration": 0.0158,
      "velocity": 94,
      "chip": "ym2612"
    },
    {
      "channel": 3,
      "note": 82,
      "start": 24.1699,
      "duration": 0.0154,
      "velocity": 93,
      "chip": "ym2612"
    },
    {
      "channel": 4,
      "note": 82,
      "start": 24.183,
      "duration": 0.0189,
      "velocity": 93,
      "chip": "ym2612"
    },
    {
      "channel": 2,
      "note": 51,
      "start": 24.1877,
      "duration": 0.048,
      "velocity": 94,
      "chip": "ym2612"
    },
    {
      "channel": 3,
      "note": 85,
      "start": 24.1883,
      "duration": 0.2878,
      "velocity": 93,
      "chip": "ym2612"
    },
    {
      "channel": 4,
      "note": 85,
      "start": 24.2193,
      "duration": 0.2911,
      "velocity": 93,
      "chip": "ym2612"
    },
    {
      "channel": 0,
      "note": 52,
      "start": 24.2525,
      "duration": 0.2228,
      "velocity": 95,
      "chip": "ym2612"
    },
    {
      "channel": 1,
      "note": 73,
      "start": 24.2563,
      "duration": 0.0993,
      "velocity": 107,
      "chip": "ym2612"
    },
    {
      "channel": 2,
      "note": 51,
      "start": 24.2585,
      "duration": 0.0973,
      "velocity": 94,
      "chip": "ym2612"
    },
    {
      "channel": 1,
      "note": 76,
      "start": 24.3728,
      "duration": 0.1028,
      "velocity": 107,
      "chip": "ym2612"
    },
    {
      "channel": 2,
      "note": 51,
      "start": 24.3751,
      "duration": 0.1008,
      "velocity": 94,
      "chip": "ym2612"
    },
    {
      "channel": 0,
      "note": 49,
      "start": 24.4927,
      "duration": 0.0682,
      "velocity": 95,
      "chip": "ym2612"
    },
    {
      "channel": 1,
      "note": 82,
      "start": 24.4932,
      "duration": 0.0264,
      "velocity": 107,
      "chip": "ym2612"
    },
    {
      "channel": 2,
      "note": 51,
      "start": 24.4937,
      "duration": 0.0261,
      "velocity": 94,
      "chip": "ym2612"
    },
    {
      "channel": 3,
      "note": 91,
      "start": 24.4991,
      "duration": 0.021,
      "velocity": 107,
      "chip": "ym2612"
    },
    {
      "channel": 4,
      "note": 91,
      "start": 24.5178,
      "duration": 0.0156,
      "velocity": 107,
      "chip": "ym2612"
    },
    {
      "channel": 1,
      "note": 73,
      "start": 24.5223,
      "duration": 0.0389,
      "velocity": 107,
      "chip": "ym2612"
    },
    {
      "channel": 2,
      "note": 51,
      "start": 24.5228,
      "duration": 0.0387,
      "velocity": 94,
      "chip": "ym2612"
    },
    {
      "channel": 3,
      "note": 73,
      "start": 24.5234,
      "duration": 0.0384,
      "velocity": 107,
      "chip": "ym2612"
    },
    {
      "channel": 4,
      "note": 73,
      "start": 24.545,
      "duration": 0.1027,
      "velocity": 107,
      "chip": "ym2612"
    },
    {
      "channel": 0,
      "note": 49,
      "start": 24.5783,
      "duration": 0.2228,
      "velocity": 95,
      "chip": "ym2612"
    },
    {
      "channel": 1,
      "note": 76,
      "start": 24.5788,
      "duration": 0.1024,
      "velocity": 107,
      "chip": "ym2612"
    },
    {
      "channel": 2,
      "note": 51,
      "start": 24.5793,
      "duration": 0.1022,
      "velocity": 94,
      "chip": "ym2612"
    },
    {
      "channel": 3,
      "note": 76,
      "start": 24.5799,
      "duration": 0.1019,
      "velocity": 107,
      "chip": "ym2612"
    },
    {
      "channel": 4,
      "note": 76,
      "start": 24.6651,
      "duration": 0.1027,
      "velocity": 107,
      "chip": "ym2612"
    },
    {
      "channel": 1,
      "note": 79,
      "start": 24.6986,
      "duration": 0.1027,
      "velocity": 107,
      "chip": "ym2612"
    },
    {
      "channel": 2,
      "note": 51,
      "start": 24.7007,
      "duration": 0.1009,
      "velocity": 94,
      "chip": "ym2612"
    },
    {
      "channel": 3,
      "note": 82,
      "start": 24.7013,
      "duration": 0.1006,
      "velocity": 107,
      "chip": "ym2612"
    },
    {
      "channel": 4,
      "note": 82,
      "start": 24.7852,
      "duration": 0.047,
      "velocity": 107,
      "chip": "ym2612"
    },
    {
      "channel": 0,
      "note": 49,
      "start": 24.8184,
      "duration": 0.0683,
      "velocity": 95,
      "chip": "ym2612"
    },
    {
      "channel": 1,
      "note": 73,
      "start": 24.819,
      "duration": 0.0177,
      "velocity": 107,
      "chip": "ym2612"
    },
    {
      "channel": 2,
      "note": 51,
      "start": 24.8211,
      "duration": 0.0159,
      "velocity": 94,
      "chip": "ym2612"
    },
    {
      "channel": 3,
      "note": 73,
      "start": 24.8217,
      "duration": 0.0155,
      "velocity": 107,
      "chip": "ym2612"
    },
    {
      "channel": 4,
      "note": 73,
      "start": 24.8349,
      "duration": 0.0186,
      "velocity": 107,
      "chip": "ym2612"
    },
    {
      "channel": 1,
      "note": 82,
      "start": 24.8394,
      "duration": 0.0476,
      "velocity": 107,
      "chip": "ym2612"
    },
    {
      "channel": 2,
      "note": 51,
      "start": 24.8399,
      "duration": 0.0474,
      "velocity": 94,
      "chip": "ym2612"
    },
    {
      "channel": 3,
      "note": 76,
      "start": 24.8405,
      "duration": 0.0471,
      "velocity": 107,
      "chip": "ym2612"
    },
    {
      "channel": 4,
      "note": 76,
      "start": 24.8708,
      "duration": 0.1027,
      "velocity": 107,
      "chip": "ym2612"
    },
    {
      "channel": 0,
      "note": 49,
      "start": 24.9041,
      "duration": 0.2228,
      "velocity": 95,
      "chip": "ym2612"
    },
    {
      "channel": 1,
      "note": 73,
      "start": 24.9046,
      "duration": 0.1025,
      "velocity": 107,
      "chip": "ym2612"
    },
    {
      "channel": 2,
      "note": 51,
      "start": 24.9051,
      "duration": 0.1022,
      "velocity": 94,
      "chip": "ym2612"
    },
    {
      "channel": 3,
      "note": 79,
      "start": 24.9057,
      "duration": 0.1019,
      "velocity": 107,
      "chip": "ym2612"
    },
    {
      "channel": 4,
      "note": 79,
      "start": 24.9909,
      "duration": 0.1027,
      "velocity": 107,
      "chip": "ym2612"
    },
    {
      "channel": 1,
      "note": 76,
      "start": 25.0244,
      "duration": 0.1027,
      "velocity": 107,
      "chip": "ym2612"
    },
    {
      "channel": 2,
      "note": 51,
      "start": 25.0249,
      "duration": 0.1025,
      "velocity": 94,
      "chip": "ym2612"
    },
    {
      "channel": 3,
      "note": 73,
      "start": 25.0255,
      "duration": 0.1022,
      "velocity": 107,
      "chip": "ym2612"
    },
    {
      "channel": 4,
      "note": 73,
      "start": 25.111,
      "duration": 0.047,
      "velocity": 107,
      "chip": "ym2612"
    },
    {
      "channel": 0,
      "note": 49,
      "start": 25.1443,
      "duration": 0.0685,
      "velocity": 95,
      "chip": "ym2612"
    },
    {
      "channel": 1,
      "note": 73,
      "start": 25.1447,
      "duration": 0.0177,
      "velocity": 107,
      "chip": "ym2612"
    },
    {
      "channel": 2,
      "note": 51,
      "start": 25.1469,
      "duration": 0.0158,
      "velocity": 94,
      "chip": "ym2612"
    },
    {
      "channel": 3,
      "note": 82,
      "start": 25.1475,
      "duration": 0.0156,
      "velocity": 107,
      "chip": "ym2612"
    },
    {
      "channel": 4,
      "note": 82,
      "start": 25.1607,
      "duration": 0.0189,
      "velocity": 107,
      "chip": "ym2612"
    },
    {
      "channel": 1,
      "note": 82,
      "start": 25.1652,
      "duration": 0.0478,
      "velocity": 107,
      "chip": "ym2612"
    },
    {
      "channel": 2,
      "note": 51,
      "start": 25.1674,
      "duration": 0.0459,
      "velocity": 94,
      "chip": "ym2612"
    },
    {
      "channel": 3,
      "note": 73,
      "start": 25.168,
      "duration": 0.0456,
      "velocity": 107,
      "chip": "ym2612"
    },
    {
      "channel": 4,
      "note": 73,
      "start": 25.1969,
      "duration": 0.1027,
      "velocity": 107,
      "chip": "ym2612"
    },
    {
      "channel": 0,
      "note": 58,
      "start": 25.2302,
      "duration": 0.2228,
      "velocity": 95,
      "chip": "ym2612"
    },
    {
      "channel": 1,
      "note": 73,
      "start": 25.2307,
      "duration": 0.1025,
      "velocity": 107,
      "chip": "ym2612"
    },
    {
      "channel": 2,
      "note": 51,
      "start": 25.2312,
      "duration": 0.1022,
      "velocity": 94,
      "chip": "ym2612"
    },
    {
      "channel": 3,
      "note": 76,
      "start": 25.2318,
      "duration": 0.102,
      "velocity": 107,
      "chip": "ym2612"
    },
    {
      "channel": 4,
      "note": 76,
      "start": 25.317,
      "duration": 0.1027,
      "velocity": 107,
      "chip": "ym2612"
    },
    {
      "channel": 1,
      "note": 79,
      "start": 25.3505,
      "duration": 0.1027,
      "velocity": 107,
      "chip": "ym2612"
    },
    {
      "channel": 2,
      "note": 51,
      "start": 25.3526,
      "duration": 0.1009,
      "velocity": 94,
      "chip": "ym2612"
    },
    {
      "channel": 3,
      "note": 73,
      "start": 25.3532,
      "duration": 0.1006,
      "velocity": 107,
      "chip": "ym2612"
    },
    {
      "channel": 4,
      "note": 73,
      "start": 25.4371,
      "duration": 0.0469,
      "velocity": 107,
      "chip": "ym2612"
    },
    {
      "channel": 0,
      "note": 49,
      "start": 25.4704,
      "duration": 0.0683,
      "velocity": 95,
      "chip": "ym2612"
    },
    {
      "channel": 1,
      "note": 73,
      "start": 25.4709,
      "duration": 0.0176,
      "velocity": 107,
      "chip": "ym2612"
    },
    {
      "channel": 2,
      "note": 51,
      "start": 25.473,
      "duration": 0.0157,
      "velocity": 94,
      "chip": "ym2612"
    },
    {
      "channel": 3,
      "note": 82,
      "start": 25.4736,
      "duration": 0.0154,
      "velocity": 107,
      "chip": "ym2612"
    },
    {
      "channel": 4,
      "note": 82,
      "start": 25.4866,
      "duration": 0.0188,
      "velocity": 107,
      "chip": "ym2612"
    },
    {
      "channel": 1,
      "note": 76,
      "start": 25.4912,
      "duration": 0.0478,
      "velocity": 107,
      "chip": "ym2612"
    },
    {
      "channel": 2,
      "note": 51,
      "start": 25.4917,
      "duration": 0.0475,
      "velocity": 94,
      "chip": "ym2612"
    },
    {
      "channel": 3,
      "note": 73,
      "start": 25.4923,
      "duration": 0.0473,
      "velocity": 107,
      "chip": "ym2612"
    },
    {
      "channel": 4,
      "note": 73,
      "start": 25.5228,
      "duration": 0.1027,
      "velocity": 107,
      "chip": "ym2612"
    },
    {
      "channel": 0,
      "note": 55,
      "start": 25.5562,
      "duration": 0.2228,
      "velocity": 95,
      "chip": "ym2612"
    },
    {
      "channel": 1,
      "note": 82,
      "start": 25.5567,
      "duration": 0.2225,
      "velocity": 107,
      "chip": "ym2612"
    },
    {
      "channel": 2,
      "note": 51,
      "start": 25.5588,
      "duration": 0.1005,
      "velocity": 94,
      "chip": "ym2612"
    },
    {
      "channel": 3,
      "note": 79,
      "start": 25.5594,
      "duration": 0.1002,
      "velocity": 107,
      "chip": "ym2612"
    },
    {
      "channel": 4,
      "note": 79,
      "start": 25.6429,
      "duration": 0.1027,
      "velocity": 107,
      "chip": "ym2612"
    },
    {
      "channel": 2,
      "note": 51,
      "start": 25.6782,
      "duration": 0.1012,
      "velocity": 94,
      "chip": "ym2612"
    },
    {
      "channel": 3,
      "note": 73,
      "start": 25.6788,
      "duration": 0.101,
      "velocity": 107,
      "chip": "ym2612"
    },
    {
      "channel": 4,
      "note": 73,
      "start": 25.763,
      "duration": 0.0529,
      "velocity": 107,
      "chip": "ym2612"
    },
    {
      "channel": 0,
      "note": 49,
      "start": 25.7964,
      "duration": 0.0681,
      "velocity": 95,
      "chip": "ym2612"
    },
    {
      "channel": 1,
      "note": 97,
      "start": 25.8001,
      "duration": 0.0203,
      "velocity": 93,
      "chip": "ym2612"
    },
    {
      "channel": 2,
      "note": 51,
      "start": 25.8041,
      "duration": 0.0166,
      "velocity": 94,
      "chip": "ym2612"
    },
    {
      "channel": 3,
      "note": 76,
      "start": 25.8046,
      "duration": 0.0607,
      "velocity": 107,
      "chip": "ym2612"
    },
    {
      "channel": 4,
      "note": 76,
      "start": 25.8186,
      "duration": 0.1327,
      "velocity": 107,
      "chip": "ym2612"
    },
    {
      "channel": 1,
      "note": 85,
      "start": 25.823,
      "duration": 0.0417,
      "velocity": 93,
      "chip": "ym2612"
    },
    {
      "channel": 2,
      "note": 51,
      "start": 25.8252,
      "duration": 0.0398,
      "velocity": 94,
      "chip": "ym2612"
    },
    {
      "channel": 0,
      "note": 49,
      "start": 25.8819,
      "duration": 0.2228,
      "velocity": 95,
      "chip": "ym2612"
    },
    {
      "channel": 1,
      "note": 94,
      "start": 25.8823,
      "duration": 0.1025,
      "velocity": 93,
      "chip": "ym2612"
    },
    {
      "channel": 2,
      "note": 51,
      "start": 25.8828,
      "duration": 0.1023,
      "velocity": 94,
      "chip": "ym2612"
    },
    {
      "channel": 3,
      "note": 82,
      "start": 25.8883,
      "duration": 0.0971,
      "velocity": 93,
      "chip": "ym2612"
    },
    {
      "channel": 4,
      "note": 82,
      "start": 25.9735,
      "duration": 0.0979,
      "velocity": 93,
      "chip": "ym2612"
    },
    {
      "channel": 1,
      "note": 91,
      "start": 26.0021,
      "duration": 0.1028,
      "velocity": 93,
      "chip": "ym2612"
    },
    {
      "channel": 2,
      "note": 51,
      "start": 26.0042,
      "duration": 0.1009,
      "velocity": 94,
      "chip": "ym2612"
    },
    {
      "channel": 3,
      "note": 97,
      "start": 26.0048,
      "duration": 0.1006,
      "velocity": 93,
      "chip": "ym2612"
    },
    {
      "channel": 4,
      "note": 97,
      "start": 26.0887,
      "duration": 0.0469,
      "velocity": 93,
      "chip": "ym2612"
    },
    {
      "channel": 0,
      "note": 49,
      "start": 26.122,
      "duration": 0.0683,
      "velocity": 95,
      "chip": "ym2612"
    },
    {
      "channel": 1,
      "note": 88,
      "start": 26.1225,
      "duration": 0.0176,
      "velocity": 93,
      "chip": "ym2612"
    },
    {
      "channel": 2,
      "note": 51,
      "start": 26.1246,
      "duration": 0.0158,
      "velocity": 94,
      "chip": "ym2612"
    },
    {
      "channel": 3,
      "note": 85,
      "start": 26.1252,
      "duration": 0.0155,
      "velocity": 93,
      "chip": "ym2612"
    },
    {
      "channel": 4,
      "note": 85,
      "start": 26.1384,
      "duration": 0.0185,
      "velocity": 93,
      "chip": "ym2612"
    },
    {
      "channel": 1,
      "note": 76,
      "start": 26.1428,
      "duration": 0.0477,
      "velocity": 93,
      "chip": "ym2612"
    },
    {
      "channel": 2,
      "note": 51,
      "start": 26.1433,
      "duration": 0.0474,
      "velocity": 94,
      "chip": "ym2612"
    },
    {
      "channel": 3,
      "note": 94,
      "start": 26.1439,
      "duration": 0.0471,
      "velocity": 93,
      "chip": "ym2612"
    },
    {
      "channel": 4,
      "note": 94,
      "start": 26.1743,
      "duration": 0.1027,
      "velocity": 93,
      "chip": "ym2612"
    },
    {
      "channel": 0,
      "note": 49,
      "start": 26.2076,
      "duration": 0.2229,
      "velocity": 95,
      "chip": "ym2612"
    },
    {
      "channel": 1,
      "note": 79,
      "start": 26.2081,
      "duration": 0.1025,
      "velocity": 93,
      "chip": "ym2612"
    },
    {
      "channel": 2,
      "note": 51,
      "start": 26.2086,
      "duration": 0.1022,
      "velocity": 94,
      "chip": "ym2612"
    },
    {
      "channel": 3,
      "note": 91,
      "start": 26.2091,
      "duration": 0.1019,
      "velocity": 93,
      "chip": "ym2612"
    },
    {
      "channel": 4,
      "note": 91,
      "start": 26.2944,
      "duration": 0.1027,
      "velocity": 93,
      "chip": "ym2612"
    },
    {
      "channel": 1,
      "note": 82,
      "start": 26.3278,
      "duration": 0.1029,
      "velocity": 93,
      "chip": "ym2612"
    },
    {
      "channel": 2,
      "note": 51,
      "start": 26.3284,
      "duration": 0.1026,
      "velocity": 94,
      "chip": "ym2612"
    },
    {
      "channel": 3,
      "note": 88,
      "start": 26.329,
      "duration": 0.1022,
      "velocity": 93,
      "chip": "ym2612"
    },
    {
      "channel": 4,
      "note": 88,
      "start": 26.4145,
      "duration": 0.0469,
      "velocity": 93,
      "chip": "ym2612"
    },
    {
      "channel": 0,
      "note": 49,
      "start": 26.4478,
      "duration": 0.0683,
      "velocity": 95,
      "chip": "ym2612"
    },
    {
      "channel": 1,
      "note": 85,
      "start": 26.4483,
      "duration": 0.0176,
      "velocity": 93,
      "chip": "ym2612"
    },
    {
      "channel": 2,
      "note": 51,
      "start": 26.4504,
      "duration": 0.0158,
      "velocity": 94,
      "chip": "ym2612"
    },
    {
      "channel": 3,
      "note": 76,
      "start": 26.451,
      "duration": 0.0154,
      "velocity": 93,
      "chip": "ym2612"
    },
    {
      "channel": 4,
      "note": 76,
      "start": 26.464,
      "duration": 0.0187,
      "velocity": 93,
      "chip": "ym2612"
    },
    {
      "channel": 1,
      "note": 94,
      "start": 26.4686,
      "duration": 0.0477,
      "velocity": 93,
      "chip": "ym2612"
    },
    {
      "channel": 2,
      "note": 51,
      "start": 26.4707,
      "duration": 0.0458,
      "velocity": 94,
      "chip": "ym2612"
    },
    {
      "channel": 3,
      "note": 79,
      "start": 26.4713,
      "duration": 0.0455,
      "velocity": 93,
      "chip": "ym2612"
    },
    {
      "channel": 4,
      "note": 79,
      "start": 26.5001,
      "duration": 0.1027,
      "velocity": 93,
      "chip": "ym2612"
    },
    {
      "channel": 0,
      "note": 55,
      "start": 26.5334,
      "duration": 0.2228,
      "velocity": 95,
      "chip": "ym2612"
    },
    {
      "channel": 1,
      "note": 91,
      "start": 26.5339,
      "duration": 0.1024,
      "velocity": 93,
      "chip": "ym2612"
    },
    {
      "channel": 2,
      "note": 51,
      "start": 26.5344,
      "duration": 0.1022,
      "velocity": 94,
      "chip": "ym2612"
    },
    {
      "channel": 3,
      "note": 82,
      "start": 26.5349,
      "duration": 0.1019,
      "velocity": 93,
      "chip": "ym2612"
    },
    {
      "channel": 4,
      "note": 82,
      "start": 26.6201,
      "duration": 0.1027,
      "velocity": 93,
      "chip": "ym2612"
    },
    {
      "channel": 1,
      "note": 82,
      "start": 26.6537,
      "duration": 0.1886,
      "velocity": 93,
      "chip": "ym2612"
    },
    {
      "channel": 2,
      "note": 51,
      "start": 26.6558,
      "duration": 0.1009,
      "velocity": 94,
      "chip": "ym2612"
    },
    {
      "channel": 3,
      "note": 85,
      "start": 26.6564,
      "duration": 0.1006,
      "velocity": 93,
      "chip": "ym2612"
    },
    {
      "channel": 4,
      "note": 85,
      "start": 26.7402,
      "duration": 0.0468,
      "velocity": 93,
      "chip": "ym2612"
    },
    {
      "channel": 0,
      "note": 49,
      "start": 26.7735,
      "duration": 0.0685,
      "velocity": 95,
      "chip": "ym2612"
    },
    {
      "channel": 2,
      "note": 51,
      "start": 26.7759,
      "duration": 0.0158,
      "velocity": 94,
      "chip": "ym2612"
    },
    {
      "channel": 3,
      "note": 94,
      "start": 26.7765,
      "duration": 0.0155,
      "velocity": 93,
      "chip": "ym2612"
    },
    {
      "channel": 4,
      "note": 94,
      "start": 26.7898,
      "duration": 0.0189,
      "velocity": 93,
      "chip": "ym2612"
    },
    {
      "channel": 2,
      "note": 51,
      "start": 26.7944,
      "duration": 0.0481,
      "velocity": 94,
      "chip": "ym2612"
    },
    {
      "channel": 3,
      "note": 91,
      "start": 26.795,
      "duration": 0.288,
      "velocity": 93,
      "chip": "ym2612"
    },
    {
      "channel": 4,
      "note": 91,
      "start": 26.8261,
      "duration": 0.2909,
      "velocity": 93,
      "chip": "ym2612"
    },
    {
      "channel": 0,
      "note": 52,
      "start": 26.8594,
      "duration": 0.2228,
      "velocity": 95,
      "chip": "ym2612"
    },
    {
      "channel": 1,
      "note": 76,
      "start": 26.8631,
      "duration": 0.0992,
      "velocity": 100,
      "chip": "ym2612"
    },
    {
      "channel": 2,
      "note": 51,
      "start": 26.8652,
      "duration": 0.0973,
      "velocity": 94,
      "chip": "ym2612"
    },
    {
      "channel": 1,
      "note": 79,
      "start": 26.9797,
      "duration": 0.1027,
      "velocity": 100,
      "chip": "ym2612"
    },
    {
      "channel": 2,
      "note": 51,
      "start": 26.9818,
      "duration": 0.1009,
      "velocity": 94,
      "chip": "ym2612"
    },
    {
      "channel": 0,
      "note": 49,
      "start": 27.0995,
      "duration": 0.0686,
      "velocity": 95,
      "chip": "ym2612"
    },
    {
      "channel": 1,
      "note": 70,
      "start": 27.1,
      "duration": 0.0263,
      "velocity": 100,
      "chip": "ym2612"
    },
    {
      "channel": 2,
      "note": 51,
      "start": 27.1005,
      "duration": 0.0261,
      "velocity": 94,
      "chip": "ym2612"
    },
    {
      "channel": 3,
      "note": 82,
      "start": 27.1059,
      "duration": 0.021,
      "velocity": 100,
      "chip": "ym2612"
    },
    {
      "channel": 4,
      "note": 82,
      "start": 27.1246,
      "duration": 0.0161,
      "velocity": 100,
      "chip": "ym2612"
    },
    {
      "channel": 1,
      "note": 79,
      "start": 27.1291,
      "duration": 0.0393,
      "velocity": 100,
      "chip": "ym2612"
    },
    {
      "channel": 2,
      "note": 51,
      "start": 27.1296,
      "duration": 0.039,
      "velocity": 94,
      "chip": "ym2612"
    },
    {
      "channel": 3,
      "note": 76,
      "start": 27.1302,
      "duration": 0.0387,
      "velocity": 100,
      "chip": "ym2612"
    },
    {
      "channel": 4,
      "note": 76,
      "start": 27.1522,
      "duration": 0.1027,
      "velocity": 100,
      "chip": "ym2612"
    },
    {
      "channel": 0,
      "note": 49,
      "start": 27.1855,
      "duration": 0.2228,
      "velocity": 95,
      "chip": "ym2612"
    },
    {
      "channel": 1,
      "note": 73,
      "start": 27.186,
      "duration": 0.1025,
      "velocity": 100,
      "chip": "ym2612"
    },
    {
      "channel": 2,
      "note": 51,
      "start": 27.1865,
      "duration": 0.1022,
      "velocity": 94,
      "chip": "ym2612"
    },
    {
      "channel": 3,
      "note": 79,
      "start": 27.1871,
      "duration": 0.1019,
      "velocity": 100,
      "chip": "ym2612"
    },
    {
      "channel": 4,
      "note": 79,
      "start": 27.2723,
      "duration": 0.1027,
      "velocity": 100,
      "chip": "ym2612"
    },
    {
      "channel": 1,
      "note": 79,
      "start": 27.3058,
      "duration": 0.1028,
      "velocity": 100,
      "chip": "ym2612"
    },
    {
      "channel": 2,
      "note": 51,
      "start": 27.3079,
      "duration": 0.1009,
      "velocity": 94,
      "chip": "ym2612"
    },
    {
      "channel": 3,
      "note": 70,
      "start": 27.3085,
      "duration": 0.1006,
      "velocity": 100,
      "chip": "ym2612"
    },
    {
      "channel": 4,
      "note": 70,
      "start": 27.3924,
      "duration": 0.0469,
      "velocity": 100,
      "chip": "ym2612"
    },
    {
      "channel": 0,
      "note": 49,
      "start": 27.4257,
      "duration": 0.0683,
      "velocity": 95,
      "chip": "ym2612"
    },
    {
      "channel": 1,
      "note": 76,
      "start": 27.4262,
      "duration": 0.0176,
      "velocity": 100,
      "chip": "ym2612"
    },
    {
      "channel": 2,
      "note": 51,
      "start": 27.4283,
      "duration": 0.0157,
      "velocity": 94,
      "chip": "ym2612"
    },
    {
      "channel": 3,
      "note": 79,
      "start": 27.4288,
      "duration": 0.0155,
      "velocity": 100,
      "chip": "ym2612"
    },
    {
      "channel": 4,
      "note": 79,
      "start": 27.442,
      "duration": 0.0186,
      "velocity": 100,
      "chip": "ym2612"
    },
    {
      "channel": 1,
      "note": 79,
      "start": 27.4465,
      "duration": 0.0477,
      "velocity": 100,
      "chip": "ym2612"
    },
    {
      "channel": 2,
      "note": 51,
      "start": 27.447,
      "duration": 0.0474,
      "velocity": 94,
      "chip": "ym2612"
    },
    {
      "channel": 3,
      "note": 73,
      "start": 27.4476,
      "duration": 0.0471,
      "velocity": 100,
      "chip": "ym2612"
    },
    {
      "channel": 4,
      "note": 73,
      "start": 27.478,
      "duration": 0.1027,
      "velocity": 100,
      "chip": "ym2612"
    },
    {
      "channel": 0,
      "note": 49,
      "start": 27.5112,
      "duration": 0.2228,
      "velocity": 95,
      "chip": "ym2612"
    },
    {
      "channel": 1,
      "note": 73,
      "start": 27.5117,
      "duration": 0.1024,
      "velocity": 100,
      "chip": "ym2612"
    },
    {
      "channel": 2,
      "note": 51,
      "start": 27.5123,
      "duration": 0.1022,
      "velocity": 94,
      "chip": "ym2612"
    },
    {
      "channel": 3,
      "note": 79,
      "start": 27.5129,
      "duration": 0.1018,
      "velocity": 100,
      "chip": "ym2612"
    },
    {
      "channel": 4,
      "note": 79,
      "start": 27.598,
      "duration": 0.1027,
      "velocity": 100,
      "chip": "ym2612"
    },
    {
      "channel": 1,
      "note": 76,
      "start": 27.6315,
      "duration": 0.1028,
      "velocity": 100,
      "chip": "ym2612"
    },
    {
      "channel": 2,
      "note": 51,
      "start": 27.632,
      "duration": 0.1026,
      "velocity": 94,
      "chip": "ym2612"
    },
    {
      "channel": 3,
      "note": 76,
      "start": 27.6326,
      "duration": 0.1023,
      "velocity": 100,
      "chip": "ym2612"
    },
    {
      "channel": 4,
      "note": 76,
      "start": 27.7181,
      "duration": 0.047,
      "velocity": 100,
      "chip": "ym2612"
    },
    {
      "channel": 0,
      "note": 49,
      "start": 27.7515,
      "duration": 0.0682,
      "velocity": 95,
      "chip": "ym2612"
    },
    {
      "channel": 1,
      "note": 70,
      "start": 27.7519,
      "duration": 0.0177,
      "velocity": 100,
      "chip": "ym2612"
    },
    {
      "channel": 2,
      "note": 51,
      "start": 27.7541,
      "duration": 0.0158,
      "velocity": 94,
      "chip": "ym2612"
    },
    {
      "channel": 3,
      "note": 79,
      "start": 27.7546,
      "duration": 0.0154,
      "velocity": 100,
      "chip": "ym2612"
    },
    {
      "channel": 4,
      "note": 79,
      "start": 27.7678,
      "duration": 0.0186,
      "velocity": 100,
      "chip": "ym2612"
    },
    {
      "channel": 1,
      "note": 79,
      "start": 27.7723,
      "duration": 0.0476,
      "velocity": 100,
      "chip": "ym2612"
    },
    {
      "channel": 2,
      "note": 51,
      "start": 27.7744,
      "duration": 0.0458,
      "velocity": 94,
      "chip": "ym2612"
    },
    {
      "channel": 3,
      "note": 73,
      "start": 27.7751,
      "duration": 0.0454,
      "velocity": 100,
      "chip": "ym2612"
    },
    {
      "channel": 4,
      "note": 73,
      "start": 27.8038,
      "duration": 0.1027,
      "velocity": 100,
      "chip": "ym2612"
    },
    {
      "channel": 0,
      "note": 58,
      "start": 27.8371,
      "duration": 0.2228,
      "velocity": 95,
      "chip": "ym2612"
    },
    {
      "channel": 1,
      "note": 73,
      "start": 27.8376,
      "duration": 0.1024,
      "velocity": 100,
      "chip": "ym2612"
    },
    {
      "channel": 2,
      "note": 51,
      "start": 27.838,
      "duration": 0.1022,
      "velocity": 94,
      "chip": "ym2612"
    },
    {
      "channel": 3,
      "note": 76,
      "start": 27.8386,
      "duration": 0.1019,
      "velocity": 100,
      "chip": "ym2612"
    },
    {
      "channel": 4,
      "note": 76,
      "start": 27.9238,
      "duration": 0.1027,
      "velocity": 100,
      "chip": "ym2612"
    },
    {
      "channel": 1,
      "note": 79,
      "start": 27.9573,
      "duration": 0.1028,
      "velocity": 100,
      "chip": "ym2612"
    },
    {
      "channel": 2,
      "note": 51,
      "start": 27.9595,
      "duration": 0.1009,
      "velocity": 94,
      "chip": "ym2612"
    },
    {
      "channel": 3,
      "note": 70,
      "start": 27.9601,
      "duration": 0.1005,
      "velocity": 100,
      "chip": "ym2612"
    },
    {
      "channel": 4,
      "note": 70,
      "start": 28.0439,
      "duration": 0.0469,
      "velocity": 100,
      "chip": "ym2612"
    },
    {
      "channel": 0,
      "note": 49,
      "start": 28.0772,
      "duration": 0.0683,
      "velocity": 95,
      "chip": "ym2612"
    },
    {
      "channel": 1,
      "note": 76,
      "start": 28.0777,
      "duration": 0.0176,
      "velocity": 100,
      "chip": "ym2612"
    },
    {
      "channel": 2,
      "note": 51,
      "start": 28.0798,
      "duration": 0.0158,
      "velocity": 94,
      "chip": "ym2612"
    },
    {
      "channel": 3,
      "note": 79,
      "start": 28.0804,
      "duration": 0.0155,
      "velocity": 100,
      "chip": "ym2612"
    },
    {
      "channel": 4,
      "note": 79,
      "start": 28.0935,
      "duration": 0.0187,
      "velocity": 100,
      "chip": "ym2612"
    },
    {
      "channel": 1,
      "note": 79,
      "start": 28.0981,
      "duration": 0.0477,
      "velocity": 100,
      "chip": "ym2612"
    },
    {
      "channel": 2,
      "note": 51,
      "start": 28.0986,
      "duration": 0.0474,
      "velocity": 94,
      "chip": "ym2612"
    },
    {
      "channel": 3,
      "note": 73,
      "start": 28.0992,
      "duration": 0.0471,
      "velocity": 100,
      "chip": "ym2612"
    },
    {
      "channel": 4,
      "note": 73,
      "start": 28.1295,
      "duration": 0.1027,
      "velocity": 100,
      "chip": "ym2612"
    },
    {
      "channel": 0,
      "note": 55,
      "start": 28.1628,
      "duration": 0.2229,
      "velocity": 95,
      "chip": "ym2612"
    },
    {
      "channel": 1,
      "note": 73,
      "start": 28.1633,
      "duration": 0.1025,
      "velocity": 100,
      "chip": "ym2612"
    },
    {
      "channel": 2,
      "note": 51,
      "start": 28.1655,
      "duration": 0.1006,
      "velocity": 94,
      "chip": "ym2612"
    },
    {
      "channel": 3,
      "note": 79,
      "start": 28.1661,
      "duration": 0.1003,
      "velocity": 100,
      "chip": "ym2612"
    },
    {
      "channel": 4,
      "note": 79,
      "start": 28.2497,
      "duration": 0.1027,
      "velocity": 100,
      "chip": "ym2612"
    },
    {
      "channel": 1,
      "note": 79,
      "start": 28.2832,
      "duration": 0.1027,
      "velocity": 100,
      "chip": "ym2612"
    },
    {
      "channel": 2,
      "note": 51,
      "start": 28.2853,
      "duration": 0.1009,
      "velocity": 94,
      "chip": "ym2612"
    },
    {
      "channel": 3,
      "note": 76,
      "start": 28.2859,
      "duration": 0.1006,
      "velocity": 100,
      "chip": "ym2612"
    },
    {
      "channel": 4,
      "note": 76,
      "start": 28.3697,
      "duration": 0.0464,
      "velocity": 100,
      "chip": "ym2612"
    },
    {
      "channel": 0,
      "note": 50,
      "start": 28.4033,
      "duration": 0.0682,
      "velocity": 95,
      "chip": "ym2612"
    },
    {
      "channel": 3,
      "note": 79,
      "start": 28.4047,
      "duration": 0.0164,
      "velocity": 100,
      "chip": "ym2612"
    },
    {
      "channel": 4,
      "note": 79,
      "start": 28.4188,
      "duration": 0.0195,
      "velocity": 100,
      "chip": "ym2612"
    },
    {
      "channel": 3,
      "note": 73,
      "start": 28.4238,
      "duration": 0.0485,
      "velocity": 100,
      "chip": "ym2612"
    },
    {
      "channel": 4,
      "note": 73,
      "start": 28.4556,
      "duration": 0.1027,
      "velocity": 100,
      "chip": "ym2612"
    },
    {
      "channel": 0,
      "note": 50,
      "start": 28.4889,
      "duration": 0.2228,
      "velocity": 95,
      "chip": "ym2612"
    },
    {
      "channel": 1,
      "note": 77,
      "start": 28.4927,
      "duration": 0.1162,
      "velocity": 99,
      "chip": "ym2612"
    },
    {
      "channel": 2,
      "note": 74,
      "start": 28.4966,
      "duration": 0.1126,
      "velocity": 99,
      "chip": "ym2612"
    },
    {
      "channel": 0,
      "note": 50,
      "start": 28.729,
      "duration": 0.0684,
      "velocity": 95,
      "chip": "ym2612"
    },
    {
      "channel": 1,
      "note": 77,
      "start": 28.7295,
      "duration": 0.0284,
      "velocity": 99,
      "chip": "ym2612"
    },
    {
      "channel": 2,
      "note": 74,
      "start": 28.73,
      "duration": 0.0281,
      "velocity": 99,
      "chip": "ym2612"
    },
    {
      "channel": 3,
      "note": 79,
      "start": 28.7356,
      "duration": 0.0229,
      "velocity": 99,
      "chip": "ym2612"
    },
    {
      "channel": 4,
      "note": 79,
      "start": 28.7537,
      "duration": 0.0276,
      "velocity": 99,
      "chip": "ym2612"
    },
    {
      "channel": 0,
      "note": 50,
      "start": 28.8148,
      "duration": 0.2228,
      "velocity": 95,
      "chip": "ym2612"
    },
    {
      "channel": 1,
      "note": 77,
      "start": 28.8169,
      "duration": 0.1179,
      "velocity": 99,
      "chip": "ym2612"
    },
    {
      "channel": 2,
      "note": 74,
      "start": 28.819,
      "duration": 0.1161,
      "velocity": 99,
      "chip": "ym2612"
    },
    {
      "channel": 3,
      "note": 77,
      "start": 28.8197,
      "duration": 0.1158,
      "velocity": 99,
      "chip": "ym2612"
    },
    {
      "channel": 4,
      "note": 74,
      "start": 28.9015,
      "duration": 0.1199,
      "velocity": 99,
      "chip": "ym2612"
    },
    {
      "channel": 0,
      "note": 50,
      "start": 29.0549,
      "duration": 0.0684,
      "velocity": 95,
      "chip": "ym2612"
    },
    {
      "channel": 1,
      "note": 77,
      "start": 29.0554,
      "duration": 0.0232,
      "velocity": 99,
      "chip": "ym2612"
    },
    {
      "channel": 2,
      "note": 74,
      "start": 29.0559,
      "duration": 0.0229,
      "velocity": 99,
      "chip": "ym2612"
    },
    {
      "channel": 3,
      "note": 77,
      "start": 29.0589,
      "duration": 0.0203,
      "velocity": 99,
      "chip": "ym2612"
    },
    {
      "channel": 4,
      "note": 74,
      "start": 29.0744,
      "duration": 0.0328,
      "velocity": 99,
      "chip": "ym2612"
    },
    {
      "channel": 0,
      "note": 56,
      "start": 29.1408,
      "duration": 0.2227,
      "velocity": 95,
      "chip": "ym2612"
    },
    {
      "channel": 1,
      "note": 77,
      "start": 29.1429,
      "duration": 0.1179,
      "velocity": 99,
      "chip": "ym2612"
    },
    {
      "channel": 2,
      "note": 74,
      "start": 29.145,
      "duration": 0.116,
      "velocity": 99,
      "chip": "ym2612"
    },
    {
      "channel": 3,
      "note": 77,
      "start": 29.1456,
      "duration": 0.1157,
      "velocity": 99,
      "chip": "ym2612"
    },
    {
      "channel": 4,
      "note": 74,
      "start": 29.2275,
      "duration": 0.1199,
      "velocity": 99,
      "chip": "ym2612"
    },
    {
      "channel": 0,
      "note": 50,
      "start": 29.3808,
      "duration": 0.0681,
      "velocity": 95,
      "chip": "ym2612"
    },
    {
      "channel": 1,
      "note": 77,
      "start": 29.3814,
      "duration": 0.023,
      "velocity": 99,
      "chip": "ym2612"
    },
    {
      "channel": 2,
      "note": 74,
      "start": 29.3819,
      "duration": 0.0228,
      "velocity": 99,
      "chip": "ym2612"
    },
    {
      "channel": 3,
      "note": 77,
      "start": 29.3849,
      "duration": 0.0201,
      "velocity": 99,
      "chip": "ym2612"
    },
    {
      "channel": 4,
      "note": 74,
      "start": 29.4002,
      "duration": 0.0326,
      "velocity": 99,
      "chip": "ym2612"
    },
    {
      "channel": 0,
      "note": 53,
      "start": 29.4663,
      "duration": 0.2228,
      "velocity": 95,
      "chip": "ym2612"
    },
    {
      "channel": 1,
      "note": 77,
      "start": 29.4685,
      "duration": 0.1179,
      "velocity": 99,
      "chip": "ym2612"
    },
    {
      "channel": 2,
      "note": 74,
      "start": 29.4707,
      "duration": 0.116,
      "velocity": 99,
      "chip": "ym2612"
    },
    {
      "channel": 3,
      "note": 77,
      "start": 29.4713,
      "duration": 0.1157,
      "velocity": 99,
      "chip": "ym2612"
    },
    {
      "channel": 4,
      "note": 74,
      "start": 29.5532,
      "duration": 0.1198,
      "velocity": 99,
      "chip": "ym2612"
    },
    {
      "channel": 0,
      "note": 50,
      "start": 29.7065,
      "duration": 0.0685,
      "velocity": 95,
      "chip": "ym2612"
    },
    {
      "channel": 1,
      "note": 77,
      "start": 29.707,
      "duration": 0.0234,
      "velocity": 99,
      "chip": "ym2612"
    },
    {
      "channel": 2,
      "note": 74,
      "start": 29.7075,
      "duration": 0.0232,
      "velocity": 99,
      "chip": "ym2612"
    },
    {
      "channel": 3,
      "note": 77,
      "start": 29.7105,
      "duration": 0.0205,
      "velocity": 99,
      "chip": "ym2612"
    },
    {
      "channel": 4,
      "note": 74,
      "start": 29.7262,
      "duration": 0.0326,
      "velocity": 99,
      "chip": "ym2612"
    },
    {
      "channel": 0,
      "note": 50,
      "start": 29.7923,
      "duration": 0.2229,
      "velocity": 95,
      "chip": "ym2612"
    },
    {
      "channel": 1,
      "note": 77,
      "start": 29.7945,
      "duration": 0.1179,
      "velocity": 99,
      "chip": "ym2612"
    },
    {
      "channel": 2,
      "note": 74,
      "start": 29.7966,
      "duration": 0.1161,
      "velocity": 99,
      "chip": "ym2612"
    },
    {
      "channel": 3,
      "note": 77,
      "start": 29.7972,
      "duration": 0.1158,
      "velocity": 99,
      "chip": "ym2612"
    },
    {
      "channel": 4,
      "note": 74,
      "start": 29.8791,
      "duration": 0.1199,
      "velocity": 99,
      "chip": "ym2612"
    },
    {
      "channel": 0,
      "note": 50,
      "start": 30.0324,
      "duration": 0.0683,
      "velocity": 95,
      "chip": "ym2612"
    },
    {
      "channel": 1,
      "note": 77,
      "start": 30.0329,
      "duration": 0.023,
      "velocity": 99,
      "chip": "ym2612"
    },
    {
      "channel": 2,
      "note": 74,
      "start": 30.0334,
      "duration": 0.0228,
      "velocity": 99,
      "chip": "ym2612"
    },
    {
      "channel": 3,
      "note": 77,
      "start": 30.0364,
      "duration": 0.0201,
      "velocity": 99,
      "chip": "ym2612"
    },
    {
      "channel": 4,
      "note": 74,
      "start": 30.0518,
      "duration": 0.0327,
      "velocity": 99,
      "chip": "ym2612"
    },
    {
      "channel": 0,
      "note": 50,
      "start": 30.118,
      "duration": 0.2228,
      "velocity": 95,
      "chip": "ym2612"
    },
    {
      "channel": 1,
      "note": 77,
      "start": 30.1202,
      "duration": 0.118,
      "velocity": 99,
      "chip": "ym2612"
    },
    {
      "channel": 2,
      "note": 74,
      "start": 30.1224,
      "duration": 0.1161,
      "velocity": 99,
      "chip": "ym2612"
    },
    {
      "channel": 3,
      "note": 77,
      "start": 30.1229,
      "duration": 0.1158,
      "velocity": 99,
      "chip": "ym2612"
    },
    {
      "channel": 4,
      "note": 74,
      "start": 30.2049,
      "duration": 0.1198,
      "velocity": 99,
      "chip": "ym2612"
    },
    {
      "channel": 0,
      "note": 50,
      "start": 30.3582,
      "duration": 0.0685,
      "velocity": 95,
      "chip": "ym2612"
    },
    {
      "channel": 1,
      "note": 77,
      "start": 30.3587,
      "duration": 0.0234,
      "velocity": 99,
      "chip": "ym2612"
    },
    {
      "channel": 2,
      "note": 74,
      "start": 30.3592,
      "duration": 0.0232,
      "velocity": 99,
      "chip": "ym2612"
    },
    {
      "channel": 3,
      "note": 77,
      "start": 30.3623,
      "duration": 0.0204,
      "velocity": 99,
      "chip": "ym2612"
    },
    {
      "channel": 4,
      "note": 74,
      "start": 30.3779,
      "duration": 0.0326,
      "velocity": 99,
      "chip": "ym2612"
    },
    {
      "channel": 0,
      "note": 59,
      "start": 30.444,
      "duration": 0.2228,
      "velocity": 95,
      "chip": "ym2612"
    },
    {
      "channel": 1,
      "note": 83,
      "start": 30.4446,
      "duration": 0.5487,
      "velocity": 99,
      "chip": "ym2612"
    },
    {
      "channel": 2,
      "note": 80,
      "start": 30.4452,
      "duration": 0.5484,
      "velocity": 99,
      "chip": "ym2612"
    },
    {
      "channel": 3,
      "note": 77,
      "start": 30.4458,
      "duration": 0.1188,
      "velocity": 99,
      "chip": "ym2612"
    },
    {
      "channel": 4,
      "note": 74,
      "start": 30.5309,
      "duration": 0.1198,
      "velocity": 99,
      "chip": "ym2612"
    },
    {
      "channel": 0,
      "note": 50,
      "start": 30.6842,
      "duration": 0.0687,
      "velocity": 95,
      "chip": "ym2612"
    },
    {
      "channel": 3,
      "note": 77,
      "start": 30.6877,
      "duration": 0.3915,
      "velocity": 99,
      "chip": "ym2612"
    },
    {
      "channel": 4,
      "note": 74,
      "start": 30.7034,
      "duration": 0.4618,
      "velocity": 99,
      "chip": "ym2612"
    },
    {
      "channel": 0,
      "note": 56,
      "start": 30.7702,
      "duration": 0.2228,
      "velocity": 95,
      "chip": "ym2612"
    },
    {
      "channel": 0,
      "note": 50,
      "start": 31.0105,
      "duration": 0.068,
      "velocity": 95,
      "chip": "ym2612"
    },
    {
      "channel": 1,
      "note": 62,
      "start": 31.0142,
      "duration": 0.6305,
      "velocity": 95,
      "chip": "ym2612"
    },
    {
      "channel": 0,
      "note": 50,
      "start": 31.0958,
      "duration": 0.2228,
      "velocity": 95,
      "chip": "ym2612"
    },
    {
      "channel": 3,
      "note": 83,
      "start": 31.1017,
      "duration": 0.629,
      "velocity": 95,
      "chip": "ym2612"
    },
    {
      "channel": 2,
      "note": 71,
      "start": 31.2196,
      "duration": 0.6308,
      "velocity": 95,
      "chip": "ym2612"
    },
    {
      "channel": 0,
      "note": 50,
      "start": 31.336,
      "duration": 0.0683,
      "velocity": 95,
      "chip": "ym2612"
    },
    {
      "channel": 4,
      "note": 80,
      "start": 31.3932,
      "duration": 0.6294,
      "velocity": 95,
      "chip": "ym2612"
    },
    {
      "channel": 0,
      "note": 50,
      "start": 31.4216,
      "duration": 0.2228,
      "velocity": 95,
      "chip": "ym2612"
    },
    {
      "channel": 0,
      "note": 50,
      "start": 31.6618,
      "duration": 0.0681,
      "velocity": 95,
      "chip": "ym2612"
    },
    {
      "channel": 1,
      "note": 68,
      "start": 31.6623,
      "duration": 0.6339,
      "velocity": 95,
      "chip": "ym2612"
    },
    {
      "channel": 0,
      "note": 56,
      "start": 31.7473,
      "duration": 0.2228,
      "velocity": 95,
      "chip": "ym2612"
    },
    {
      "channel": 3,
      "note": 62,
      "start": 31.7483,
      "duration": 0.6343,
      "velocity": 95,
      "chip": "ym2612"
    },
    {
      "channel": 2,
      "note": 77,
      "start": 31.8678,
      "duration": 0.6346,
      "velocity": 95,
      "chip": "ym2612"
    },
    {
      "channel": 0,
      "note": 50,
      "start": 31.9874,
      "duration": 0.0684,
      "velocity": 95,
      "chip": "ym2612"
    },
    {
      "channel": 4,
      "note": 71,
      "start": 32.0399,
      "duration": 0.6347,
      "velocity": 95,
      "chip": "ym2612"
    },
    {
      "channel": 0,
      "note": 53,
      "start": 32.0731,
      "duration": 0.2228,
      "velocity": 95,
      "chip": "ym2612"
    },
    {
      "channel": 0,
      "note": 50,
      "start": 32.3133,
      "duration": 0.0686,
      "velocity": 95,
      "chip": "ym2612"
    },
    {
      "channel": 1,
      "note": 74,
      "start": 32.3138,
      "duration": 0.6344,
      "velocity": 95,
      "chip": "ym2612"
    },
    {
      "channel": 0,
      "note": 50,
      "start": 32.3992,
      "duration": 0.2228,
      "velocity": 95,
      "chip": "ym2612"
    },
    {
      "channel": 3,
      "note": 68,
      "start": 32.4002,
      "duration": 0.634,
      "velocity": 95,
      "chip": "ym2612"
    },
    {
      "channel": 2,
      "note": 83,
      "start": 32.5198,
      "duration": 0.6343,
      "velocity": 95,
      "chip": "ym2612"
    },
    {
      "channel": 0,
      "note": 50,
      "start": 32.6394,
      "duration": 0.0683,
      "velocity": 95,
      "chip": "ym2612"
    },
    {
      "channel": 4,
      "note": 77,
      "start": 32.6919,
      "duration": 0.6341,
      "velocity": 95,
      "chip": "ym2612"
    },
    {
      "channel": 0,
      "note": 50,
      "start": 32.7251,
      "duration": 0.2228,
      "velocity": 95,
      "chip": "ym2612"
    },
    {
      "channel": 0,
      "note": 50,
      "start": 32.9652,
      "duration": 0.0683,
      "velocity": 95,
      "chip": "ym2612"
    },
    {
      "channel": 1,
      "note": 80,
      "start": 32.9657,
      "duration": 0.6339,
      "velocity": 95,
      "chip": "ym2612"
    },
    {
      "channel": 0,
      "note": 59,
      "start": 33.0509,
      "duration": 0.2228,
      "velocity": 95,
      "chip": "ym2612"
    },
    {
      "channel": 3,
      "note": 74,
      "start": 33.052,
      "duration": 0.6336,
      "velocity": 95,
      "chip": "ym2612"
    },
    {
      "channel": 2,
      "note": 89,
      "start": 33.1714,
      "duration": 0.4285,
      "velocity": 95,
      "chip": "ym2612"
    },
    {
      "channel": 0,
      "note": 50,
      "start": 33.291,
      "duration": 0.0682,
      "velocity": 95,
      "chip": "ym2612"
    },
    {
      "channel": 4,
      "note": 83,
      "start": 33.3433,
      "duration": 0.4283,
      "velocity": 95,
      "chip": "ym2612"
    },
    {
      "channel": 0,
      "note": 56,
      "start": 33.3765,
      "duration": 0.2228,
      "velocity": 95,
      "chip": "ym2612"
    },
    {
      "channel": 0,
      "note": 50,
      "start": 33.6168,
      "duration": 0.068,
      "velocity": 95,
      "chip": "ym2612"
    },
    {
      "channel": 0,
      "note": 50,
      "start": 33.7022,
      "duration": 0.2228,
      "velocity": 95,
      "chip": "ym2612"
    },
    {
      "channel": 1,
      "note": 80,
      "start": 33.7043,
      "duration": 0.1179,
      "velocity": 99,
      "chip": "ym2612"
    },
    {
      "channel": 2,
      "note": 77,
      "start": 33.7064,
      "duration": 0.1161,
      "velocity": 99,
      "chip": "ym2612"
    },
    {
      "channel": 0,
      "note": 50,
      "start": 33.9424,
      "duration": 0.0684,
      "velocity": 95,
      "chip": "ym2612"
    },
    {
      "channel": 1,
      "note": 80,
      "start": 33.9428,
      "duration": 0.0234,
      "velocity": 99,
      "chip": "ym2612"
    },
    {
      "channel": 2,
      "note": 77,
      "start": 33.9433,
      "duration": 0.0232,
      "velocity": 99,
      "chip": "ym2612"
    },
    {
      "channel": 3,
      "note": 80,
      "start": 33.9464,
      "duration": 0.0205,
      "velocity": 99,
      "chip": "ym2612"
    },
    {
      "channel": 4,
      "note": 89,
      "start": 33.9621,
      "duration": 0.0326,
      "velocity": 99,
      "chip": "ym2612"
    },
    {
      "channel": 0,
      "note": 50,
      "start": 34.0282,
      "duration": 0.2228,
      "velocity": 95,
      "chip": "ym2612"
    },
    {
      "channel": 1,
      "note": 80,
      "start": 34.0304,
      "duration": 0.1179,
      "velocity": 99,
      "chip": "ym2612"
    },
    {
      "channel": 2,
      "note": 77,
      "start": 34.0324,
      "duration": 0.1161,
      "velocity": 99,
      "chip": "ym2612"
    },
    {
      "channel": 3,
      "note": 80,
      "start": 34.0331,
      "duration": 0.1158,
      "velocity": 99,
      "chip": "ym2612"
    },
    {
      "channel": 4,
      "note": 77,
      "start": 34.115,
      "duration": 0.1198,
      "velocity": 99,
      "chip": "ym2612"
    },
    {
      "channel": 0,
      "note": 50,
      "start": 34.2683,
      "duration": 0.0685,
      "velocity": 95,
      "chip": "ym2612"
    },
    {
      "channel": 1,
      "note": 80,
      "start": 34.2688,
      "duration": 0.0232,
      "velocity": 99,
      "chip": "ym2612"
    },
    {
      "channel": 2,
      "note": 77,
      "start": 34.2693,
      "duration": 0.023,
      "velocity": 99,
      "chip": "ym2612"
    },
    {
      "channel": 3,
      "note": 80,
      "start": 34.2723,
      "duration": 0.0203,
      "velocity": 99,
      "chip": "ym2612"
    },
    {
      "channel": 4,
      "note": 77,
      "start": 34.2878,
      "duration": 0.0329,
      "velocity": 99,
      "chip": "ym2612"
    },
    {
      "channel": 0,
      "note": 56,
      "start": 34.3542,
      "duration": 0.2228,
      "velocity": 95,
      "chip": "ym2612"
    },
    {
      "channel": 1,
      "note": 80,
      "start": 34.3563,
      "duration": 0.1179,
      "velocity": 99,
      "chip": "ym2612"
    },
    {
      "channel": 2,
      "note": 77,
      "start": 34.3585,
      "duration": 0.116,
      "velocity": 99,
      "chip": "ym2612"
    },
    {
      "channel": 3,
      "note": 80,
      "start": 34.3591,
      "duration": 0.1158,
      "velocity": 99,
      "chip": "ym2612"
    },
    {
      "channel": 4,
      "note": 77,
      "start": 34.441,
      "duration": 0.1198,
      "velocity": 99,
      "chip": "ym2612"
    },
    {
      "channel": 0,
      "note": 50,
      "start": 34.5944,
      "duration": 0.0683,
      "velocity": 95,
      "chip": "ym2612"
    },
    {
      "channel": 1,
      "note": 80,
      "start": 34.5949,
      "duration": 0.0231,
      "velocity": 99,
      "chip": "ym2612"
    },
    {
      "channel": 2,
      "note": 77,
      "start": 34.5954,
      "duration": 0.0228,
      "velocity": 99,
      "chip": "ym2612"
    },
    {
      "channel": 3,
      "note": 80,
      "start": 34.5984,
      "duration": 0.0202,
      "velocity": 99,
      "chip": "ym2612"
    },
    {
      "channel": 4,
      "note": 77,
      "start": 34.6139,
      "duration": 0.0326,
      "velocity": 99,
      "chip": "ym2612"
    },
    {
      "channel": 0,
      "note": 53,
      "start": 34.68,
      "duration": 0.2228,
      "velocity": 95,
      "chip": "ym2612"
    },
    {
      "channel": 1,
      "note": 80,
      "start": 34.6822,
      "duration": 0.1179,
      "velocity": 99,
      "chip": "ym2612"
    },
    {
      "channel": 2,
      "note": 77,
      "start": 34.6843,
      "duration": 0.116,
      "velocity": 99,
      "chip": "ym2612"
    },
    {
      "channel": 3,
      "note": 80,
      "start": 34.6849,
      "duration": 0.1157,
      "velocity": 99,
      "chip": "ym2612"
    },
    {
      "channel": 4,
      "note": 77,
      "start": 34.7668,
      "duration": 0.1198,
      "velocity": 99,
      "chip": "ym2612"
    },
    {
      "channel": 0,
      "note": 50,
      "start": 34.9202,
      "duration": 0.0682,
      "velocity": 95,
      "chip": "ym2612"
    },
    {
      "channel": 1,
      "note": 80,
      "start": 34.9206,
      "duration": 0.0234,
      "velocity": 99,
      "chip": "ym2612"
    },
    {
      "channel": 2,
      "note": 77,
      "start": 34.9212,
      "duration": 0.0231,
      "velocity": 99,
      "chip": "ym2612"
    },
    {
      "channel": 3,
      "note": 80,
      "start": 34.9241,
      "duration": 0.0205,
      "velocity": 99,
      "chip": "ym2612"
    },
    {
      "channel": 4,
      "note": 77,
      "start": 34.9399,
      "duration": 0.0324,
      "velocity": 99,
      "chip": "ym2612"
    },
    {
      "channel": 0,
      "note": 50,
      "start": 35.0058,
      "duration": 0.2228,
      "velocity": 95,
      "chip": "ym2612"
    },
    {
      "channel": 1,
      "note": 80,
      "start": 35.0079,
      "duration": 0.1179,
      "velocity": 99,
      "chip": "ym2612"
    },
    {
      "channel": 2,
      "note": 77,
      "start": 35.0101,
      "duration": 0.116,
      "velocity": 99,
      "chip": "ym2612"
    },
    {
      "channel": 3,
      "note": 80,
      "start": 35.0107,
      "duration": 0.1157,
      "velocity": 99,
      "chip": "ym2612"
    },
    {
      "channel": 4,
      "note": 77,
      "start": 35.0925,
      "duration": 0.1199,
      "velocity": 99,
      "chip": "ym2612"
    },
    {
      "channel": 0,
      "note": 50,
      "start": 35.2459,
      "duration": 0.0682,
      "velocity": 95,
      "chip": "ym2612"
    },
    {
      "channel": 1,
      "note": 80,
      "start": 35.2464,
      "duration": 0.0231,
      "velocity": 99,
      "chip": "ym2612"
    },
    {
      "channel": 2,
      "note": 77,
      "start": 35.2469,
      "duration": 0.0229,
      "velocity": 99,
      "chip": "ym2612"
    },
    {
      "channel": 3,
      "note": 80,
      "start": 35.2499,
      "duration": 0.0202,
      "velocity": 99,
      "chip": "ym2612"
    },
    {
      "channel": 4,
      "note": 77,
      "start": 35.2653,
      "duration": 0.0327,
      "velocity": 99,
      "chip": "ym2612"
    },
    {
      "channel": 0,
      "note": 50,
      "start": 35.3314,
      "duration": 0.2228,
      "velocity": 95,
      "chip": "ym2612"
    },
    {
      "channel": 1,
      "note": 80,
      "start": 35.3336,
      "duration": 0.118,
      "velocity": 99,
      "chip": "ym2612"
    },
    {
      "channel": 2,
      "note": 77,
      "start": 35.3358,
      "duration": 0.1161,
      "velocity": 99,
      "chip": "ym2612"
    },
    {
      "channel": 3,
      "note": 80,
      "start": 35.3363,
      "duration": 0.1159,
      "velocity": 99,
      "chip": "ym2612"
    },
    {
      "channel": 4,
      "note": 77,
      "start": 35.4183,
      "duration": 0.1199,
      "velocity": 99,
      "chip": "ym2612"
    },
    {
      "channel": 0,
      "note": 50,
      "start": 35.5717,
      "duration": 0.0681,
      "velocity": 95,
      "chip": "ym2612"
    },
    {
      "channel": 1,
      "note": 80,
      "start": 35.5722,
      "duration": 0.023,
      "velocity": 99,
      "chip": "ym2612"
    },
    {
      "channel": 2,
      "note": 77,
      "start": 35.5727,
      "duration": 0.0227,
      "velocity": 99,
      "chip": "ym2612"
    },
    {
      "channel": 3,
      "note": 80,
      "start": 35.5757,
      "duration": 0.0201,
      "velocity": 99,
      "chip": "ym2612"
    },
    {
      "channel": 4,
      "note": 77,
      "start": 35.591,
      "duration": 0.0325,
      "velocity": 99,
      "chip": "ym2612"
    },
    {
      "channel": 0,
      "note": 59,
      "start": 35.6571,
      "duration": 0.2228,
      "velocity": 95,
      "chip": "ym2612"
    },
    {
      "channel": 1,
      "note": 86,
      "start": 35.6577,
      "duration": 0.5485,
      "velocity": 99,
      "chip": "ym2612"
    },
    {
      "channel": 2,
      "note": 83,
      "start": 35.6583,
      "duration": 0.5481,
      "velocity": 99,
      "chip": "ym2612"
    },
    {
      "channel": 3,
      "note": 80,
      "start": 35.6589,
      "duration": 0.1188,
      "velocity": 99,
      "chip": "ym2612"
    },
    {
      "channel": 4,
      "note": 77,
      "start": 35.7439,
      "duration": 0.1199,
      "velocity": 99,
      "chip": "ym2612"
    },
    {
      "channel": 0,
      "note": 50,
      "start": 35.8972,
      "duration": 0.0685,
      "velocity": 95,
      "chip": "ym2612"
    },
    {
      "channel": 3,
      "note": 80,
      "start": 35.9009,
      "duration": 0.3915,
      "velocity": 99,
      "chip": "ym2612"
    },
    {
      "channel": 4,
      "note": 77,
      "start": 35.9166,
      "duration": 0.4617,
      "velocity": 99,
      "chip": "ym2612"
    },
    {
      "channel": 0,
      "note": 56,
      "start": 35.9831,
      "duration": 0.2229,
      "velocity": 95,
      "chip": "ym2612"
    },
    {
      "channel": 0,
      "note": 50,
      "start": 36.2233,
      "duration": 0.0683,
      "velocity": 95,
      "chip": "ym2612"
    },
    {
      "channel": 1,
      "note": 68,
      "start": 36.2271,
      "duration": 0.6306,
      "velocity": 95,
      "chip": "ym2612"
    },
    {
      "channel": 0,
      "note": 50,
      "start": 36.3089,
      "duration": 0.2228,
      "velocity": 95,
      "chip": "ym2612"
    },
    {
      "channel": 3,
      "note": 86,
      "start": 36.3147,
      "duration": 0.6292,
      "velocity": 95,
      "chip": "ym2612"
    },
    {
      "channel": 2,
      "note": 77,
      "start": 36.4294,
      "duration": 0.6342,
      "velocity": 95,
      "chip": "ym2612"
    },
    {
      "channel": 0,
      "note": 50,
      "start": 36.549,
      "duration": 0.0683,
      "velocity": 95,
      "chip": "ym2612"
    },
    {
      "channel": 4,
      "note": 83,
      "start": 36.6014,
      "duration": 0.6342,
      "velocity": 95,
      "chip": "ym2612"
    },
    {
      "channel": 0,
      "note": 50,
      "start": 36.6346,
      "duration": 0.2228,
      "velocity": 95,
      "chip": "ym2612"
    },
    {
      "channel": 0,
      "note": 50,
      "start": 36.8747,
      "duration": 0.0684,
      "velocity": 95,
      "chip": "ym2612"
    },
    {
      "channel": 1,
      "note": 74,
      "start": 36.8752,
      "duration": 0.634,
      "velocity": 95,
      "chip": "ym2612"
    },
    {
      "channel": 0,
      "note": 56,
      "start": 36.9605,
      "duration": 0.2228,
      "velocity": 95,
      "chip": "ym2612"
    },
    {
      "channel": 3,
      "note": 68,
      "start": 36.9615,
      "duration": 0.6339,
      "velocity": 95,
      "chip": "ym2612"
    },
    {
      "channel": 2,
      "note": 83,
      "start": 37.081,
      "duration": 0.6343,
      "velocity": 95,
      "chip": "ym2612"
    },
    {
      "channel": 0,
      "note": 50,
      "start": 37.2006,
      "duration": 0.0683,
      "velocity": 95,
      "chip": "ym2612"
    },
    {
      "channel": 4,
      "note": 77,
      "start": 37.253,
      "duration": 0.6344,
      "velocity": 95,
      "chip": "ym2612"
    },
    {
      "channel": 0,
      "note": 53,
      "start": 37.2862,
      "duration": 0.2228,
      "velocity": 95,
      "chip": "ym2612"
    },
    {
      "channel": 0,
      "note": 50,
      "start": 37.5263,
      "duration": 0.0684,
      "velocity": 95,
      "chip": "ym2612"
    },
    {
      "channel": 1,
      "note": 80,
      "start": 37.5269,
      "duration": 0.6342,
      "velocity": 95,
      "chip": "ym2612"
    },
    {
      "channel": 0,
      "note": 50,
      "start": 37.612,
      "duration": 0.2228,
      "velocity": 95,
      "chip": "ym2612"
    },
    {
      "channel": 3,
      "note": 74,
      "start": 37.6131,
      "duration": 0.6341,
      "velocity": 95,
      "chip": "ym2612"
    },
    {
      "channel": 2,
      "note": 89,
      "start": 37.7326,
      "duration": 0.6344,
      "velocity": 95,
      "chip": "ym2612"
    },
    {
      "channel": 0,
      "note": 50,
      "start": 37.8522,
      "duration": 0.0684,
      "velocity": 95,
      "chip": "ym2612"
    },
    {
      "channel": 4,
      "note": 83,
      "start": 37.9048,
      "duration": 0.6343,
      "velocity": 95,
      "chip": "ym2612"
    },
    {
      "channel": 0,
      "note": 50,
      "start": 37.938,
      "duration": 0.2228,
      "velocity": 95,
      "chip": "ym2612"
    },
    {
      "channel": 0,
      "note": 50,
      "start": 38.1781,
      "duration": 0.0683,
      "velocity": 95,
      "chip": "ym2612"
    },
    {
      "channel": 1,
      "note": 86,
      "start": 38.1786,
      "duration": 0.634,
      "velocity": 95,
      "chip": "ym2612"
    },
    {
      "channel": 0,
      "note": 59,
      "start": 38.2638,
      "duration": 0.2228,
      "velocity": 95,
      "chip": "ym2612"
    },
    {
      "channel": 3,
      "note": 80,
      "start": 38.2649,
      "duration": 0.6336,
      "velocity": 95,
      "chip": "ym2612"
    },
    {
      "channel": 2,
      "note": 95,
      "start": 38.3843,
      "duration": 0.4285,
      "velocity": 95,
      "chip": "ym2612"
    },
    {
      "channel": 0,
      "note": 50,
      "start": 38.5039,
      "duration": 0.0683,
      "velocity": 95,
      "chip": "ym2612"
    },
    {
      "channel": 4,
      "note": 89,
      "start": 38.5563,
      "duration": 0.4281,
      "velocity": 95,
      "chip": "ym2612"
    },
    {
      "channel": 0,
      "note": 56,
      "start": 38.5895,
      "duration": 0.2228,
      "velocity": 95,
      "chip": "ym2612"
    },
    {
      "channel": 0,
      "note": 51,
      "start": 38.83,
      "duration": 0.0677,
      "velocity": 95,
      "chip": "ym2612"
    },
    {
      "channel": 1,
      "note": 99,
      "start": 38.8337,
      "duration": 0.3044,
      "velocity": 100,
      "chip": "ym2612"
    },
    {
      "channel": 2,
      "note": 39,
      "start": 38.8376,
      "duration": 0.0156,
      "velocity": 94,
      "chip": "ym2612"
    },
    {
      "channel": 2,
      "note": 39,
      "start": 38.8574,
      "duration": 0.0408,
      "velocity": 94,
      "chip": "ym2612"
    },
    {
      "channel": 0,
      "note": 51,
      "start": 38.9151,
      "duration": 0.2228,
      "velocity": 95,
      "chip": "ym2612"
    },
    {
      "channel": 2,
      "note": 39,
      "start": 38.9158,
      "duration": 0.1025,
      "velocity": 94,
      "chip": "ym2612"
    },
    {
      "channel": 3,
      "note": 86,
      "start": 38.9212,
      "duration": 0.303,
      "velocity": 100,
      "chip": "ym2612"
    },
    {
      "channel": 4,
      "note": 95,
      "start": 39.0067,
      "duration": 0.3034,
      "velocity": 100,
      "chip": "ym2612"
    },
    {
      "channel": 2,
      "note": 39,
      "start": 39.0373,
      "duration": 0.1012,
      "velocity": 94,
      "chip": "ym2612"
    },
    {
      "channel": 0,
      "note": 51,
      "start": 39.1553,
      "duration": 0.0682,
      "velocity": 95,
      "chip": "ym2612"
    },
    {
      "channel": 1,
      "note": 90,
      "start": 39.1558,
      "duration": 0.308,
      "velocity": 100,
      "chip": "ym2612"
    },
    {
      "channel": 2,
      "note": 39,
      "start": 39.1579,
      "duration": 0.015,
      "velocity": 94,
      "chip": "ym2612"
    },
    {
      "channel": 2,
      "note": 39,
      "start": 39.1755,
      "duration": 0.0484,
      "velocity": 94,
      "chip": "ym2612"
    },
    {
      "channel": 0,
      "note": 51,
      "start": 39.2408,
      "duration": 0.2228,
      "velocity": 95,
      "chip": "ym2612"
    },
    {
      "channel": 2,
      "note": 39,
      "start": 39.2415,
      "duration": 0.1025,
      "velocity": 94,
      "chip": "ym2612"
    },
    {
      "channel": 3,
      "note": 99,
      "start": 39.2421,
      "duration": 0.3082,
      "velocity": 100,
      "chip": "ym2612"
    },
    {
      "channel": 4,
      "note": 99,
      "start": 39.3276,
      "duration": 0.3087,
      "velocity": 100,
      "chip": "ym2612"
    },
    {
      "channel": 2,
      "note": 39,
      "start": 39.3613,
      "duration": 0.1028,
      "velocity": 94,
      "chip": "ym2612"
    },
    {
      "channel": 0,
      "note": 51,
      "start": 39.4809,
      "duration": 0.0686,
      "velocity": 95,
      "chip": "ym2612"
    },
    {
      "channel": 1,
      "note": 96,
      "start": 39.4814,
      "duration": 0.3085,
      "velocity": 100,
      "chip": "ym2612"
    },
    {
      "channel": 2,
      "note": 39,
      "start": 39.4835,
      "duration": 0.0153,
      "velocity": 94,
      "chip": "ym2612"
    },
    {
      "channel": 2,
      "note": 39,
      "start": 39.503,
      "duration": 0.047,
      "velocity": 94,
      "chip": "ym2612"
    },
    {
      "channel": 0,
      "note": 57,
      "start": 39.5669,
      "duration": 0.2228,
      "velocity": 95,
      "chip": "ym2612"
    },
    {
      "channel": 2,
      "note": 39,
      "start": 39.5676,
      "duration": 0.1025,
      "velocity": 94,
      "chip": "ym2612"
    },
    {
      "channel": 3,
      "note": 90,
      "start": 39.5682,
      "duration": 0.308,
      "velocity": 100,
      "chip": "ym2612"
    },
    {
      "channel": 4,
      "note": 90,
      "start": 39.6537,
      "duration": 0.3085,
      "velocity": 100,
      "chip": "ym2612"
    },
    {
      "channel": 2,
      "note": 39,
      "start": 39.6891,
      "duration": 0.1011,
      "velocity": 94,
      "chip": "ym2612"
    },
    {
      "channel": 0,
      "note": 51,
      "start": 39.8071,
      "duration": 0.0683,
      "velocity": 95,
      "chip": "ym2612"
    },
    {
      "channel": 1,
      "note": 93,
      "start": 39.8076,
      "duration": 0.3083,
      "velocity": 100,
      "chip": "ym2612"
    },
    {
      "channel": 2,
      "note": 39,
      "start": 39.8097,
      "duration": 0.015,
      "velocity": 94,
      "chip": "ym2612"
    },
    {
      "channel": 2,
      "note": 39,
      "start": 39.8272,
      "duration": 0.0487,
      "velocity": 94,
      "chip": "ym2612"
    },
    {
      "channel": 0,
      "note": 54,
      "start": 39.8928,
      "duration": 0.2228,
      "velocity": 95,
      "chip": "ym2612"
    },
    {
      "channel": 2,
      "note": 39,
      "start": 39.8951,
      "duration": 0.1008,
      "velocity": 94,
      "chip": "ym2612"
    },
    {
      "channel": 3,
      "note": 96,
      "start": 39.8957,
      "duration": 0.3061,
      "velocity": 100,
      "chip": "ym2612"
    },
    {
      "channel": 4,
      "note": 96,
      "start": 39.9796,
      "duration": 0.3083,
      "velocity": 100,
      "chip": "ym2612"
    },
    {
      "channel": 2,
      "note": 39,
      "start": 40.015,
      "duration": 0.1012,
      "velocity": 94,
      "chip": "ym2612"
    },
    {
      "channel": 0,
      "note": 51,
      "start": 40.1329,
      "duration": 0.0682,
      "velocity": 95,
      "chip": "ym2612"
    },
    {
      "channel": 1,
      "note": 99,
      "start": 40.1334,
      "duration": 0.308,
      "velocity": 100,
      "chip": "ym2612"
    },
    {
      "channel": 2,
      "note": 39,
      "start": 40.1339,
      "duration": 0.0151,
      "velocity": 94,
      "chip": "ym2612"
    },
    {
      "channel": 2,
      "note": 39,
      "start": 40.1516,
      "duration": 0.05,
      "velocity": 94,
      "chip": "ym2612"
    },
    {
      "channel": 0,
      "note": 51,
      "start": 40.2184,
      "duration": 0.2228,
      "velocity": 95,
      "chip": "ym2612"
    },
    {
      "channel": 2,
      "note": 39,
      "start": 40.2191,
      "duration": 0.1025,
      "velocity": 94,
      "chip": "ym2612"
    },
    {
      "channel": 3,
      "note": 93,
      "start": 40.2198,
      "duration": 0.3078,
      "velocity": 100,
      "chip": "ym2612"
    },
    {
      "channel": 4,
      "note": 93,
      "start": 40.3053,
      "duration": 0.3083,
      "velocity": 100,
      "chip": "ym2612"
    },
    {
      "channel": 2,
      "note": 39,
      "start": 40.3406,
      "duration": 0.1012,
      "velocity": 94,
      "chip": "ym2612"
    },
    {
      "channel": 0,
      "note": 51,
      "start": 40.4586,
      "duration": 0.0682,
      "velocity": 95,
      "chip": "ym2612"
    },
    {
      "channel": 1,
      "note": 87,
      "start": 40.4591,
      "duration": 0.3081,
      "velocity": 100,
      "chip": "ym2612"
    },
    {
      "channel": 2,
      "note": 39,
      "start": 40.4612,
      "duration": 0.015,
      "velocity": 94,
      "chip": "ym2612"
    },
    {
      "channel": 2,
      "note": 39,
      "start": 40.4788,
      "duration": 0.0485,
      "velocity": 94,
      "chip": "ym2612"
    },
    {
      "channel": 0,
      "note": 51,
      "start": 40.5441,
      "duration": 0.2228,
      "velocity": 95,
      "chip": "ym2612"
    },
    {
      "channel": 2,
      "note": 39,
      "start": 40.5449,
      "duration": 0.1025,
      "velocity": 94,
      "chip": "ym2612"
    },
    {
      "channel": 3,
      "note": 99,
      "start": 40.5454,
      "duration": 0.3079,
      "velocity": 100,
      "chip": "ym2612"
    },
    {
      "channel": 4,
      "note": 99,
      "start": 40.6309,
      "duration": 0.3083,
      "velocity": 100,
      "chip": "ym2612"
    },
    {
      "channel": 2,
      "note": 39,
      "start": 40.6646,
      "duration": 0.1029,
      "velocity": 94,
      "chip": "ym2612"
    },
    {
      "channel": 0,
      "note": 51,
      "start": 40.7843,
      "duration": 0.0682,
      "velocity": 95,
      "chip": "ym2612"
    },
    {
      "channel": 1,
      "note": 93,
      "start": 40.7848,
      "duration": 0.3081,
      "velocity": 100,
      "chip": "ym2612"
    },
    {
      "channel": 2,
      "note": 39,
      "start": 40.7869,
      "duration": 0.015,
      "velocity": 94,
      "chip": "ym2612"
    },
    {
      "channel": 2,
      "note": 39,
      "start": 40.8061,
      "duration": 0.0469,
      "velocity": 94,
      "chip": "ym2612"
    },
    {
      "channel": 0,
      "note": 60,
      "start": 40.8698,
      "duration": 0.2228,
      "velocity": 95,
      "chip": "ym2612"
    },
    {
      "channel": 2,
      "note": 39,
      "start": 40.8705,
      "duration": 0.1025,
      "velocity": 94,
      "chip": "ym2612"
    },
    {
      "channel": 3,
      "note": 87,
      "start": 40.8712,
      "duration": 0.3082,
      "velocity": 100,
      "chip": "ym2612"
    },
    {
      "channel": 4,
      "note": 87,
      "start": 40.9567,
      "duration": 0.3086,
      "velocity": 100,
      "chip": "ym2612"
    },
    {
      "channel": 2,
      "note": 39,
      "start": 40.992,
      "duration": 0.1011,
      "velocity": 94,
      "chip": "ym2612"
    },
    {
      "channel": 0,
      "note": 51,
      "start": 41.11,
      "duration": 0.0686,
      "velocity": 95,
      "chip": "ym2612"
    },
    {
      "channel": 1,
      "note": 84,
      "start": 41.1105,
      "duration": 0.3085,
      "velocity": 100,
      "chip": "ym2612"
    },
    {
      "channel": 2,
      "note": 39,
      "start": 41.1127,
      "duration": 0.0151,
      "velocity": 94,
      "chip": "ym2612"
    },
    {
      "channel": 2,
      "note": 39,
      "start": 41.1304,
      "duration": 0.0486,
      "velocity": 94,
      "chip": "ym2612"
    },
    {
      "channel": 0,
      "note": 57,
      "start": 41.1959,
      "duration": 0.2228,
      "velocity": 95,
      "chip": "ym2612"
    },
    {
      "channel": 2,
      "note": 39,
      "start": 41.1983,
      "duration": 0.1008,
      "velocity": 94,
      "chip": "ym2612"
    },
    {
      "channel": 3,
      "note": 93,
      "start": 41.1988,
      "duration": 0.3063,
      "velocity": 100,
      "chip": "ym2612"
    },
    {
      "channel": 4,
      "note": 93,
      "start": 41.2827,
      "duration": 0.3084,
      "velocity": 100,
      "chip": "ym2612"
    },
    {
      "channel": 2,
      "note": 39,
      "start": 41.318,
      "duration": 0.1012,
      "velocity": 94,
      "chip": "ym2612"
    },
    {
      "channel": 0,
      "note": 51,
      "start": 41.4362,
      "duration": 0.0681,
      "velocity": 95,
      "chip": "ym2612"
    },
    {
      "channel": 1,
      "note": 99,
      "start": 41.4367,
      "duration": 0.0679,
      "velocity": 100,
      "chip": "ym2612"
    },
    {
      "channel": 2,
      "note": 39,
      "start": 41.4406,
      "duration": 0.0154,
      "velocity": 94,
      "chip": "ym2612"
    },
    {
      "channel": 2,
      "note": 39,
      "start": 41.4604,
      "duration": 0.0445,
      "velocity": 94,
      "chip": "ym2612"
    },
    {
      "channel": 0,
      "note": 51,
      "start": 41.5217,
      "duration": 0.2228,
      "velocity": 95,
      "chip": "ym2612"
    },
    {
      "channel": 1,
      "note": 90,
      "start": 41.5222,
      "duration": 0.2226,
      "velocity": 100,
      "chip": "ym2612"
    },
    {
      "channel": 2,
      "note": 39,
      "start": 41.5227,
      "duration": 0.1022,
      "velocity": 94,
      "chip": "ym2612"
    },
    {
      "channel": 3,
      "note": 84,
      "start": 41.5233,
      "duration": 0.222,
      "velocity": 100,
      "chip": "ym2612"
    },
    {
      "channel": 4,
      "note": 84,
      "start": 41.6085,
      "duration": 0.167,
      "velocity": 100,
      "chip": "ym2612"
    },
    {
      "channel": 2,
      "note": 39,
      "start": 41.6438,
      "duration": 0.1012,
      "velocity": 94,
      "chip": "ym2612"
    },
    {
      "channel": 0,
      "note": 51,
      "start": 41.7618,
      "duration": 0.0682,
      "velocity": 95,
      "chip": "ym2612"
    },
    {
      "channel": 1,
      "note": 96,
      "start": 41.7624,
      "duration": 0.0679,
      "velocity": 100,
      "chip": "ym2612"
    },
    {
      "channel": 2,
      "note": 39,
      "start": 41.7644,
      "duration": 0.0158,
      "velocity": 94,
      "chip": "ym2612"
    },
    {
      "channel": 3,
      "note": 99,
      "start": 41.7651,
      "duration": 0.0658,
      "velocity": 100,
      "chip": "ym2612"
    },
    {
      "channel": 4,
      "note": 99,
      "start": 41.7781,
      "duration": 0.1387,
      "velocity": 100,
      "chip": "ym2612"
    },
    {
      "channel": 2,
      "note": 39,
      "start": 41.7828,
      "duration": 0.0478,
      "velocity": 94,
      "chip": "ym2612"
    },
    {
      "channel": 0,
      "note": 51,
      "start": 41.8474,
      "duration": 0.2228,
      "velocity": 95,
      "chip": "ym2612"
    },
    {
      "channel": 1,
      "note": 93,
      "start": 41.848,
      "duration": 0.2225,
      "velocity": 100,
      "chip": "ym2612"
    },
    {
      "channel": 2,
      "note": 39,
      "start": 41.8485,
      "duration": 0.1021,
      "velocity": 94,
      "chip": "ym2612"
    },
    {
      "channel": 3,
      "note": 90,
      "start": 41.849,
      "duration": 0.222,
      "velocity": 100,
      "chip": "ym2612"
    },
    {
      "channel": 4,
      "note": 90,
      "start": 41.9342,
      "duration": 0.1671,
      "velocity": 100,
      "chip": "ym2612"
    },
    {
      "channel": 2,
      "note": 39,
      "start": 41.9679,
      "duration": 0.1028,
      "velocity": 94,
      "chip": "ym2612"
    },
    {
      "channel": 0,
      "note": 51,
      "start": 42.0876,
      "duration": 0.0681,
      "velocity": 95,
      "chip": "ym2612"
    },
    {
      "channel": 1,
      "note": 99,
      "start": 42.088,
      "duration": 0.0679,
      "velocity": 100,
      "chip": "ym2612"
    },
    {
      "channel": 2,
      "note": 39,
      "start": 42.0902,
      "duration": 0.0157,
      "velocity": 94,
      "chip": "ym2612"
    },
    {
      "channel": 3,
      "note": 96,
      "start": 42.0908,
      "duration": 0.0658,
      "velocity": 100,
      "chip": "ym2612"
    },
    {
      "channel": 4,
      "note": 96,
      "start": 42.1039,
      "duration": 0.1386,
      "velocity": 100,
      "chip": "ym2612"
    },
    {
      "channel": 2,
      "note": 39,
      "start": 42.1101,
      "duration": 0.0461,
      "velocity": 94,
      "chip": "ym2612"
    },
    {
      "channel": 0,
      "note": 57,
      "start": 42.1731,
      "duration": 0.2228,
      "velocity": 95,
      "chip": "ym2612"
    },
    {
      "channel": 1,
      "note": 87,
      "start": 42.1736,
      "duration": 0.2225,
      "velocity": 100,
      "chip": "ym2612"
    },
    {
      "channel": 2,
      "note": 39,
      "start": 42.1741,
      "duration": 0.1021,
      "velocity": 94,
      "chip": "ym2612"
    },
    {
      "channel": 3,
      "note": 93,
      "start": 42.1747,
      "duration": 0.222,
      "velocity": 100,
      "chip": "ym2612"
    },
    {
      "channel": 4,
      "note": 93,
      "start": 42.2599,
      "duration": 0.167,
      "velocity": 100,
      "chip": "ym2612"
    },
    {
      "channel": 2,
      "note": 39,
      "start": 42.2953,
      "duration": 0.1011,
      "velocity": 94,
      "chip": "ym2612"
    },
    {
      "channel": 0,
      "note": 51,
      "start": 42.4132,
      "duration": 0.0682,
      "velocity": 95,
      "chip": "ym2612"
    },
    {
      "channel": 1,
      "note": 93,
      "start": 42.4137,
      "duration": 0.068,
      "velocity": 100,
      "chip": "ym2612"
    },
    {
      "channel": 2,
      "note": 39,
      "start": 42.4158,
      "duration": 0.0158,
      "velocity": 94,
      "chip": "ym2612"
    },
    {
      "channel": 3,
      "note": 99,
      "start": 42.4165,
      "duration": 0.0658,
      "velocity": 100,
      "chip": "ym2612"
    },
    {
      "channel": 4,
      "note": 99,
      "start": 42.4295,
      "duration": 0.1386,
      "velocity": 100,
      "chip": "ym2612"
    },
    {
      "channel": 2,
      "note": 39,
      "start": 42.4342,
      "duration": 0.0478,
      "velocity": 94,
      "chip": "ym2612"
    },
    {
      "channel": 0,
      "note": 54,
      "start": 42.4988,
      "duration": 0.2228,
      "velocity": 95,
      "chip": "ym2612"
    },
    {
      "channel": 1,
      "note": 84,
      "start": 42.4992,
      "duration": 0.2227,
      "velocity": 100,
      "chip": "ym2612"
    },
    {
      "channel": 2,
      "note": 39,
      "start": 42.5014,
      "duration": 0.1005,
      "velocity": 94,
      "chip": "ym2612"
    },
    {
      "channel": 3,
      "note": 87,
      "start": 42.502,
      "duration": 0.2205,
      "velocity": 100,
      "chip": "ym2612"
    },
    {
      "channel": 4,
      "note": 87,
      "start": 42.5856,
      "duration": 0.1655,
      "velocity": 100,
      "chip": "ym2612"
    },
    {
      "channel": 2,
      "note": 39,
      "start": 42.6209,
      "duration": 0.1013,
      "velocity": 94,
      "chip": "ym2612"
    },
    {
      "channel": 0,
      "note": 51,
      "start": 42.7389,
      "duration": 0.0682,
      "velocity": 95,
      "chip": "ym2612"
    },
    {
      "channel": 1,
      "note": 99,
      "start": 42.7394,
      "duration": 0.0161,
      "velocity": 100,
      "chip": "ym2612"
    },
    {
      "channel": 2,
      "note": 39,
      "start": 42.74,
      "duration": 0.0159,
      "velocity": 94,
      "chip": "ym2612"
    },
    {
      "channel": 3,
      "note": 93,
      "start": 42.7405,
      "duration": 0.0674,
      "velocity": 100,
      "chip": "ym2612"
    },
    {
      "channel": 4,
      "note": 93,
      "start": 42.7537,
      "duration": 0.1402,
      "velocity": 100,
      "chip": "ym2612"
    },
    {
      "channel": 1,
      "note": 90,
      "start": 42.7582,
      "duration": 0.0492,
      "velocity": 100,
      "chip": "ym2612"
    },
    {
      "channel": 2,
      "note": 39,
      "start": 42.7587,
      "duration": 0.0489,
      "velocity": 94,
      "chip": "ym2612"
    },
    {
      "channel": 0,
      "note": 51,
      "start": 42.8245,
      "duration": 0.2228,
      "velocity": 95,
      "chip": "ym2612"
    },
    {
      "channel": 1,
      "note": 96,
      "start": 42.825,
      "duration": 0.1025,
      "velocity": 100,
      "chip": "ym2612"
    },
    {
      "channel": 2,
      "note": 39,
      "start": 42.8255,
      "duration": 0.1022,
      "velocity": 94,
      "chip": "ym2612"
    },
    {
      "channel": 3,
      "note": 84,
      "start": 42.8261,
      "duration": 0.1018,
      "velocity": 100,
      "chip": "ym2612"
    },
    {
      "channel": 4,
      "note": 84,
      "start": 42.9113,
      "duration": 0.1027,
      "velocity": 100,
      "chip": "ym2612"
    },
    {
      "channel": 1,
      "note": 93,
      "start": 42.9448,
      "duration": 0.1028,
      "velocity": 100,
      "chip": "ym2612"
    },
    {
      "channel": 2,
      "note": 39,
      "start": 42.9468,
      "duration": 0.101,
      "velocity": 94,
      "chip": "ym2612"
    },
    {
      "channel": 3,
      "note": 99,
      "start": 42.9475,
      "duration": 0.1007,
      "velocity": 100,
      "chip": "ym2612"
    },
    {
      "channel": 4,
      "note": 99,
      "start": 43.0313,
      "duration": 0.0472,
      "velocity": 100,
      "chip": "ym2612"
    },
    {
      "channel": 0,
      "note": 51,
      "start": 43.0647,
      "duration": 0.0685,
      "velocity": 95,
      "chip": "ym2612"
    },
    {
      "channel": 1,
      "note": 96,
      "start": 43.0651,
      "duration": 0.018,
      "velocity": 100,
      "chip": "ym2612"
    },
    {
      "channel": 2,
      "note": 39,
      "start": 43.0673,
      "duration": 0.0161,
      "velocity": 94,
      "chip": "ym2612"
    },
    {
      "channel": 3,
      "note": 90,
      "start": 43.0679,
      "duration": 0.0157,
      "velocity": 100,
      "chip": "ym2612"
    },
    {
      "channel": 4,
      "note": 90,
      "start": 43.0813,
      "duration": 0.0186,
      "velocity": 100,
      "chip": "ym2612"
    },
    {
      "channel": 1,
      "note": 87,
      "start": 43.0858,
      "duration": 0.0476,
      "velocity": 100,
      "chip": "ym2612"
    },
    {
      "channel": 2,
      "note": 39,
      "start": 43.0863,
      "duration": 0.0474,
      "velocity": 94,
      "chip": "ym2612"
    },
    {
      "channel": 3,
      "note": 96,
      "start": 43.0869,
      "duration": 0.0471,
      "velocity": 100,
      "chip": "ym2612"
    },
    {
      "channel": 4,
      "note": 96,
      "start": 43.1173,
      "duration": 0.1027,
      "velocity": 100,
      "chip": "ym2612"
    },
    {
      "channel": 0,
      "note": 51,
      "start": 43.1506,
      "duration": 0.2228,
      "velocity": 95,
      "chip": "ym2612"
    },
    {
      "channel": 1,
      "note": 93,
      "start": 43.1511,
      "duration": 0.1024,
      "velocity": 100,
      "chip": "ym2612"
    },
    {
      "channel": 2,
      "note": 39,
      "start": 43.1516,
      "duration": 0.1022,
      "velocity": 94,
      "chip": "ym2612"
    },
    {
      "channel": 3,
      "note": 93,
      "start": 43.1522,
      "duration": 0.1019,
      "velocity": 100,
      "chip": "ym2612"
    },
    {
      "channel": 4,
      "note": 93,
      "start": 43.2373,
      "duration": 0.1027,
      "velocity": 100,
      "chip": "ym2612"
    },
    {
      "channel": 1,
      "note": 90,
      "start": 43.2709,
      "duration": 0.1027,
      "velocity": 100,
      "chip": "ym2612"
    },
    {
      "channel": 2,
      "note": 39,
      "start": 43.2714,
      "duration": 0.1025,
      "velocity": 94,
      "chip": "ym2612"
    },
    {
      "channel": 3,
      "note": 96,
      "start": 43.272,
      "duration": 0.1022,
      "velocity": 100,
      "chip": "ym2612"
    },
    {
      "channel": 4,
      "note": 96,
      "start": 43.3574,
      "duration": 0.0469,
      "velocity": 100,
      "chip": "ym2612"
    },
    {
      "channel": 0,
      "note": 51,
      "start": 43.3907,
      "duration": 0.0685,
      "velocity": 95,
      "chip": "ym2612"
    },
    {
      "channel": 1,
      "note": 93,
      "start": 43.3912,
      "duration": 0.0176,
      "velocity": 100,
      "chip": "ym2612"
    },
    {
      "channel": 2,
      "note": 39,
      "start": 43.3933,
      "duration": 0.0158,
      "velocity": 94,
      "chip": "ym2612"
    },
    {
      "channel": 3,
      "note": 87,
      "start": 43.3939,
      "duration": 0.0154,
      "velocity": 100,
      "chip": "ym2612"
    },
    {
      "channel": 4,
      "note": 87,
      "start": 43.407,
      "duration": 0.0189,
      "velocity": 100,
      "chip": "ym2612"
    },
    {
      "channel": 1,
      "note": 84,
      "start": 43.4115,
      "duration": 0.048,
      "velocity": 100,
      "chip": "ym2612"
    },
    {
      "channel": 2,
      "note": 39,
      "start": 43.4137,
      "duration": 0.046,
      "velocity": 94,
      "chip": "ym2612"
    },
    {
      "channel": 3,
      "note": 93,
      "start": 43.4143,
      "duration": 0.0457,
      "velocity": 100,
      "chip": "ym2612"
    },
    {
      "channel": 4,
      "note": 93,
      "start": 43.4433,
      "duration": 0.1026,
      "velocity": 100,
      "chip": "ym2612"
    },
    {
      "channel": 0,
      "note": 60,
      "start": 43.4765,
      "duration": 0.2229,
      "velocity": 95,
      "chip": "ym2612"
    },
    {
      "channel": 1,
      "note": 90,
      "start": 43.477,
      "duration": 0.1025,
      "velocity": 100,
      "chip": "ym2612"
    },
    {
      "channel": 2,
      "note": 39,
      "start": 43.4775,
      "duration": 0.1022,
      "velocity": 94,
      "chip": "ym2612"
    },
    {
      "channel": 3,
      "note": 90,
      "start": 43.4781,
      "duration": 0.1019,
      "velocity": 100,
      "chip": "ym2612"
    },
    {
      "channel": 4,
      "note": 90,
      "start": 43.5633,
      "duration": 0.1027,
      "velocity": 100,
      "chip": "ym2612"
    },
    {
      "channel": 1,
      "note": 87,
      "start": 43.5968,
      "duration": 0.1027,
      "velocity": 100,
      "chip": "ym2612"
    },
    {
      "channel": 2,
      "note": 39,
      "start": 43.5989,
      "duration": 0.1009,
      "velocity": 94,
      "chip": "ym2612"
    },
    {
      "channel": 3,
      "note": 93,
      "start": 43.5996,
      "duration": 0.1006,
      "velocity": 100,
      "chip": "ym2612"
    },
    {
      "channel": 4,
      "note": 93,
      "start": 43.6834,
      "duration": 0.047,
      "velocity": 100,
      "chip": "ym2612"
    },
    {
      "channel": 0,
      "note": 51,
      "start": 43.7167,
      "duration": 0.0683,
      "velocity": 95,
      "chip": "ym2612"
    },
    {
      "channel": 1,
      "note": 90,
      "start": 43.7172,
      "duration": 0.0176,
      "velocity": 100,
      "chip": "ym2612"
    },
    {
      "channel": 2,
      "note": 39,
      "start": 43.7193,
      "duration": 0.0158,
      "velocity": 94,
      "chip": "ym2612"
    },
    {
      "channel": 3,
      "note": 84,
      "start": 43.7199,
      "duration": 0.0155,
      "velocity": 100,
      "chip": "ym2612"
    },
    {
      "channel": 4,
      "note": 84,
      "start": 43.733,
      "duration": 0.0186,
      "velocity": 100,
      "chip": "ym2612"
    },
    {
      "channel": 1,
      "note": 81,
      "start": 43.7375,
      "duration": 0.0477,
      "velocity": 100,
      "chip": "ym2612"
    },
    {
      "channel": 2,
      "note": 39,
      "start": 43.738,
      "duration": 0.0474,
      "velocity": 94,
      "chip": "ym2612"
    },
    {
      "channel": 3,
      "note": 90,
      "start": 43.7386,
      "duration": 0.0472,
      "velocity": 100,
      "chip": "ym2612"
    },
    {
      "channel": 4,
      "note": 90,
      "start": 43.769,
      "duration": 0.1027,
      "velocity": 100,
      "chip": "ym2612"
    },
    {
      "channel": 0,
      "note": 57,
      "start": 43.8023,
      "duration": 0.2228,
      "velocity": 95,
      "chip": "ym2612"
    },
    {
      "channel": 1,
      "note": 87,
      "start": 43.8027,
      "duration": 0.1025,
      "velocity": 100,
      "chip": "ym2612"
    },
    {
      "channel": 2,
      "note": 39,
      "start": 43.805,
      "duration": 0.1005,
      "velocity": 94,
      "chip": "ym2612"
    },
    {
      "channel": 3,
      "note": 87,
      "start": 43.8055,
      "duration": 0.1003,
      "velocity": 100,
      "chip": "ym2612"
    },
    {
      "channel": 4,
      "note": 87,
      "start": 43.8891,
      "duration": 0.1027,
      "velocity": 100,
      "chip": "ym2612"
    },
    {
      "channel": 1,
      "note": 84,
      "start": 43.9225,
      "duration": 0.1028,
      "velocity": 100,
      "chip": "ym2612"
    },
    {
      "channel": 2,
      "note": 39,
      "start": 43.9246,
      "duration": 0.101,
      "velocity": 94,
      "chip": "ym2612"
    },
    {
      "channel": 3,
      "note": 90,
      "start": 43.9253,
      "duration": 0.1006,
      "velocity": 100,
      "chip": "ym2612"
    },
    {
      "channel": 4,
      "note": 90,
      "start": 44.0092,
      "duration": 0.1027,
      "velocity": 100,
      "chip": "ym2612"
    },
    {
      "channel": 0,
      "note": 49,
      "start": 44.0428,
      "duration": 0.2224,
      "velocity": 95,
      "chip": "ym2612"
    },
    {
      "channel": 1,
      "note": 73,
      "start": 44.0467,
      "duration": 0.0987,
      "velocity": 93,
      "chip": "ym2612"
    },
    {
      "channel": 2,
      "note": 51,
      "start": 44.0508,
      "duration": 0.0948,
      "velocity": 94,
      "chip": "ym2612"
    },
    {
      "channel": 3,
      "note": 81,
      "start": 44.0515,
      "duration": 0.0945,
      "velocity": 100,
      "chip": "ym2612"
    },
    {
      "channel": 4,
      "note": 81,
      "start": 44.1292,
      "duration": 0.1027,
      "velocity": 100,
      "chip": "ym2612"
    },
    {
      "channel": 1,
      "note": 85,
      "start": 44.1627,
      "duration": 0.1027,
      "velocity": 93,
      "chip": "ym2612"
    },
    {
      "channel": 2,
      "note": 51,
      "start": 44.1648,
      "duration": 0.1009,
      "velocity": 94,
      "chip": "ym2612"
    },
    {
      "channel": 3,
      "note": 87,
      "start": 44.1654,
      "duration": 0.1006,
      "velocity": 100,
      "chip": "ym2612"
    },
    {
      "channel": 4,
      "note": 87,
      "start": 44.2493,
      "duration": 0.1027,
      "velocity": 100,
      "chip": "ym2612"
    },
    {
      "channel": 0,
      "note": 49,
      "start": 44.2826,
      "duration": 0.2228,
      "velocity": 95,
      "chip": "ym2612"
    },
    {
      "channel": 1,
      "note": 88,
      "start": 44.2831,
      "duration": 0.1024,
      "velocity": 93,
      "chip": "ym2612"
    },
    {
      "channel": 2,
      "note": 51,
      "start": 44.2836,
      "duration": 0.1022,
      "velocity": 94,
      "chip": "ym2612"
    },
    {
      "channel": 3,
      "note": 84,
      "start": 44.2892,
      "duration": 0.0969,
      "velocity": 93,
      "chip": "ym2612"
    },
    {
      "channel": 4,
      "note": 84,
      "start": 44.3744,
      "duration": 0.0977,
      "velocity": 93,
      "chip": "ym2612"
    },
    {
      "channel": 1,
      "note": 79,
      "start": 44.4029,
      "duration": 0.1028,
      "velocity": 93,
      "chip": "ym2612"
    },
    {
      "channel": 2,
      "note": 51,
      "start": 44.405,
      "duration": 0.1009,
      "velocity": 94,
      "chip": "ym2612"
    },
    {
      "channel": 3,
      "note": 73,
      "start": 44.4057,
      "duration": 0.1006,
      "velocity": 93,
      "chip": "ym2612"
    },
    {
      "channel": 4,
      "note": 73,
      "start": 44.4895,
      "duration": 0.1027,
      "velocity": 93,
      "chip": "ym2612"
    },
    {
      "channel": 0,
      "note": 49,
      "start": 44.5228,
      "duration": 0.2228,
      "velocity": 95,
      "chip": "ym2612"
    },
    {
      "channel": 1,
      "note": 91,
      "start": 44.5233,
      "duration": 0.1024,
      "velocity": 93,
      "chip": "ym2612"
    },
    {
      "channel": 2,
      "note": 51,
      "start": 44.5254,
      "duration": 0.1005,
      "velocity": 94,
      "chip": "ym2612"
    },
    {
      "channel": 3,
      "note": 85,
      "start": 44.526,
      "duration": 0.1002,
      "velocity": 93,
      "chip": "ym2612"
    },
    {
      "channel": 4,
      "note": 85,
      "start": 44.6095,
      "duration": 0.1027,
      "velocity": 93,
      "chip": "ym2612"
    },
    {
      "channel": 1,
      "note": 82,
      "start": 44.6431,
      "duration": 0.1027,
      "velocity": 93,
      "chip": "ym2612"
    },
    {
      "channel": 2,
      "note": 51,
      "start": 44.6436,
      "duration": 0.1025,
      "velocity": 94,
      "chip": "ym2612"
    },
    {
      "channel": 3,
      "note": 88,
      "start": 44.6441,
      "duration": 0.1022,
      "velocity": 93,
      "chip": "ym2612"
    },
    {
      "channel": 4,
      "note": 88,
      "start": 44.7297,
      "duration": 0.1027,
      "velocity": 93,
      "chip": "ym2612"
    },
    {
      "channel": 0,
      "note": 49,
      "start": 44.7629,
      "duration": 0.2228,
      "velocity": 95,
      "chip": "ym2612"
    },
    {
      "channel": 1,
      "note": 85,
      "start": 44.7634,
      "duration": 0.1024,
      "velocity": 93,
      "chip": "ym2612"
    },
    {
      "channel": 2,
      "note": 51,
      "start": 44.7639,
      "duration": 0.1022,
      "velocity": 94,
      "chip": "ym2612"
    },
    {
      "channel": 3,
      "note": 79,
      "start": 44.7645,
      "duration": 0.1019,
      "velocity": 93,
      "chip": "ym2612"
    },
    {
      "channel": 4,
      "note": 79,
      "start": 44.8497,
      "duration": 0.1027,
      "velocity": 93,
      "chip": "ym2612"
    },
    {
      "channel": 1,
      "note": 94,
      "start": 44.8832,
      "duration": 0.1027,
      "velocity": 93,
      "chip": "ym2612"
    },
    {
      "channel": 2,
      "note": 51,
      "start": 44.8837,
      "duration": 0.1025,
      "velocity": 94,
      "chip": "ym2612"
    },
    {
      "channel": 3,
      "note": 91,
      "start": 44.8843,
      "duration": 0.1022,
      "velocity": 93,
      "chip": "ym2612"
    },
    {
      "channel": 4,
      "note": 91,
      "start": 44.9698,
      "duration": 0.1027,
      "velocity": 93,
      "chip": "ym2612"
    },
    {
      "channel": 0,
      "note": 49,
      "start": 45.0031,
      "duration": 0.2228,
      "velocity": 95,
      "chip": "ym2612"
    },
    {
      "channel": 1,
      "note": 97,
      "start": 45.0036,
      "duration": 0.1025,
      "velocity": 93,
      "chip": "ym2612"
    },
    {
      "channel": 2,
      "note": 51,
      "start": 45.0057,
      "duration": 0.1006,
      "velocity": 94,
      "chip": "ym2612"
    },
    {
      "channel": 3,
      "note": 82,
      "start": 45.0064,
      "duration": 0.1002,
      "velocity": 93,
      "chip": "ym2612"
    },
    {
      "channel": 4,
      "note": 82,
      "start": 45.0898,
      "duration": 0.1027,
      "velocity": 93,
      "chip": "ym2612"
    },
    {
      "channel": 1,
      "note": 82,
      "start": 45.1234,
      "duration": 0.1028,
      "velocity": 93,
      "chip": "ym2612"
    },
    {
      "channel": 2,
      "note": 51,
      "start": 45.1255,
      "duration": 0.101,
      "velocity": 94,
      "chip": "ym2612"
    },
    {
      "channel": 3,
      "note": 85,
      "start": 45.1261,
      "duration": 0.1006,
      "velocity": 93,
      "chip": "ym2612"
    },
    {
      "channel": 4,
      "note": 85,
      "start": 45.2099,
      "duration": 0.1027,
      "velocity": 93,
      "chip": "ym2612"
    },
    {
      "channel": 0,
      "note": 55,
      "start": 45.2433,
      "duration": 0.2228,
      "velocity": 95,
      "chip": "ym2612"
    },
    {
      "channel": 1,
      "note": 85,
      "start": 45.2437,
      "duration": 0.1025,
      "velocity": 93,
      "chip": "ym2612"
    },
    {
      "channel": 2,
      "note": 51,
      "start": 45.2442,
      "duration": 0.1022,
      "velocity": 94,
      "chip": "ym2612"
    },
    {
      "channel": 3,
      "note": 94,
      "start": 45.2449,
      "duration": 0.1018,
      "velocity": 93,
      "chip": "ym2612"
    },
    {
      "channel": 4,
      "note": 94,
      "start": 45.33,
      "duration": 0.1027,
      "velocity": 93,
      "chip": "ym2612"
    },
    {
      "channel": 1,
      "note": 91,
      "start": 45.3635,
      "duration": 13.9553,
      "velocity": 93,
      "chip": "ym2612"
    },
    {
      "channel": 2,
      "note": 51,
      "start": 45.3656,
      "duration": 0.1008,
      "velocity": 94,
      "chip": "ym2612"
    },
    {
      "channel": 3,
      "note": 97,
      "start": 45.3662,
      "duration": 0.1006,
      "velocity": 93,
      "chip": "ym2612"
    },
    {
      "channel": 4,
      "note": 97,
      "start": 45.4501,
      "duration": 0.1027,
      "velocity": 93,
      "chip": "ym2612"
    },
    {
      "channel": 0,
      "note": 49,
      "start": 45.4834,
      "duration": 0.2228,
      "velocity": 95,
      "chip": "ym2612"
    },
    {
      "channel": 2,
      "note": 51,
      "start": 45.4857,
      "duration": 0.1009,
      "velocity": 94,
      "chip": "ym2612"
    },
    {
      "channel": 3,
      "note": 82,
      "start": 45.4863,
      "duration": 0.1005,
      "velocity": 93,
      "chip": "ym2612"
    },
    {
      "channel": 4,
      "note": 82,
      "start": 45.5702,
      "duration": 0.1027,
      "velocity": 93,
      "chip": "ym2612"
    },
    {
      "channel": 2,
      "note": 51,
      "start": 45.6039,
      "duration": 0.1029,
      "velocity": 94,
      "chip": "ym2612"
    },
    {
      "channel": 3,
      "note": 85,
      "start": 45.6046,
      "duration": 13.7142,
      "velocity": 93,
      "chip": "ym2612"
    },
    {
      "channel": 4,
      "note": 85,
      "start": 45.6903,
      "duration": 13.6285,
      "velocity": 93,
      "chip": "ym2612"
    },
    {
      "channel": 0,
      "note": 52,
      "start": 45.7235,
      "duration": 13.5953,
      "velocity": 95,
      "chip": "ym2612"
    },
    {
      "channel": 2,
      "note": 51,
      "start": 45.7259,
      "duration": 13.5929,
      "velocity": 94,
      "chip": "ym2612"
    }
  ]
}