{
  "track_name": "12 - Stage 3-3",
  "duration_sec": 38.451,
  "sample_rate": 44100,
  "note_count": 609,
  "unique_pitches": 26,
  "pitch_range": 89,
  "avg_note_duration": 0.1275,
  "reconstruction_stats": {
    "notes_reconstructed": 609,
    "keyon_events": 609,
    "keyoff_events": 607,
    "orphan_keyons": 2,
    "unique_pitches": 26,
    "pitch_range": 89,
    "avg_duration_sec": 0.1275
  },
  "metadata": {
    "source": "M\\Mega Turrican\\12 - Stage 3-3.vgz"
  },
  "notes": [
    {
      "channel": 4,
      "note": 48,
      "start": 0.0114,
      "duration": 0.0625,
      "velocity": 101,
      "chip": "ym2612"
    },
    {
      "channel": 2,
      "note": 60,
      "start": 0.0133,
      "duration": 0.0866,
      "velocity": 101,
      "chip": "ym2612"
    },
    {
      "channel": 4,
      "note": 60,
      "start": 0.0759,
      "duration": 0.0051,
      "velocity": 103,
      "chip": "ym2612"
    },
    {
      "channel": 0,
      "note": 67,
      "start": 0.079,
      "duration": 0.0047,
      "velocity": 100,
      "chip": "ym2612"
    },
    {
      "channel": 4,
      "note": 72,
      "start": 0.0813,
      "duration": 0.0068,
      "velocity": 96,
      "chip": "ym2612"
    },
    {
      "channel": 0,
      "note": 79,
      "start": 0.084,
      "duration": 0.0069,
      "velocity": 98,
      "chip": "ym2612"
    },
    {
      "channel": 4,
      "note": 72,
      "start": 0.0885,
      "duration": 0.0053,
      "velocity": 98,
      "chip": "ym2612"
    },
    {
      "channel": 0,
      "note": 67,
      "start": 0.0913,
      "duration": 0.0052,
      "velocity": 98,
      "chip": "ym2612"
    },
    {
      "channel": 4,
      "note": 60,
      "start": 0.0941,
      "duration": 0.0049,
      "velocity": 100,
      "chip": "ym2612"
    },
    {
      "channel": 0,
      "note": 72,
      "start": 0.0969,
      "duration": 0.0075,
      "velocity": 100,
      "chip": "ym2612"
    },
    {
      "channel": 2,
      "note": 75,
      "start": 0.1015,
      "duration": 0.0248,
      "velocity": 104,
      "chip": "ym2612"
    },
    {
      "channel": 3,
      "note": 48,
      "start": 0.1035,
      "duration": 0.0009,
      "velocity": 113,
      "chip": "ym2612"
    },
    {
      "channel": 4,
      "note": 125,
      "start": 0.1035,
      "duration": 0.0002,
      "velocity": 127,
      "chip": "ym2612"
    },
    {
      "channel": 3,
      "note": 60,
      "start": 0.106,
      "duration": 0.0063,
      "velocity": 113,
      "chip": "ym2612"
    },
    {
      "channel": 4,
      "note": 125,
      "start": 0.106,
      "duration": 0.0044,
      "velocity": 127,
      "chip": "ym2612"
    },
    {
      "channel": 0,
      "note": 67,
      "start": 0.108,
      "duration": 0.0043,
      "velocity": 101,
      "chip": "ym2612"
    },
    {
      "channel": 1,
      "note": 63,
      "start": 0.108,
      "duration": 0.0044,
      "velocity": 101,
      "chip": "ym2612"
    },
    {
      "channel": 0,
      "note": 67,
      "start": 0.1129,
      "duration": 0.0028,
      "velocity": 101,
      "chip": "ym2612"
    },
    {
      "channel": 3,
      "note": 60,
      "start": 0.1129,
      "duration": 0.0027,
      "velocity": 113,
      "chip": "ym2612"
    },
    {
      "channel": 4,
      "note": 125,
      "start": 0.1129,
      "duration": 0.0012,
      "velocity": 127,
      "chip": "ym2612"
    },
    {
      "channel": 1,
      "note": 63,
      "start": 0.1129,
      "duration": 0.0028,
      "velocity": 101,
      "chip": "ym2612"
    },
    {
      "channel": 3,
      "note": 48,
      "start": 0.1161,
      "duration": 0.0027,
      "velocity": 113,
      "chip": "ym2612"
    },
    {
      "channel": 4,
      "note": 125,
      "start": 0.1161,
      "duration": 0.0012,
      "velocity": 127,
      "chip": "ym2612"
    },
    {
      "channel": 0,
      "note": 67,
      "start": 0.1162,
      "duration": 0.0027,
      "velocity": 101,
      "chip": "ym2612"
    },
    {
      "channel": 1,
      "note": 63,
      "start": 0.1162,
      "duration": 0.0028,
      "velocity": 101,
      "chip": "ym2612"
    },
    {
      "channel": 3,
      "note": 60,
      "start": 0.1194,
      "duration": 0.0027,
      "velocity": 113,
      "chip": "ym2612"
    },
    {
      "channel": 0,
      "note": 67,
      "start": 0.1195,
      "duration": 0.0027,
      "velocity": 101,
      "chip": "ym2612"
    },
    {
      "channel": 1,
      "note": 63,
      "start": 0.1195,
      "duration": 0.0028,
      "velocity": 101,
      "chip": "ym2612"
    },
    {
      "channel": 4,
      "note": 125,
      "start": 0.1195,
      "duration": 0.0011,
      "velocity": 127,
      "chip": "ym2612"
    },
    {
      "channel": 3,
      "note": 60,
      "start": 0.1227,
      "duration": 0.0034,
      "velocity": 113,
      "chip": "ym2612"
    },
    {
      "channel": 0,
      "note": 65,
      "start": 0.1227,
      "duration": 0.007,
      "velocity": 101,
      "chip": "ym2612"
    },
    {
      "channel": 1,
      "note": 62,
      "start": 0.1227,
      "duration": 0.0071,
      "velocity": 101,
      "chip": "ym2612"
    },
    {
      "channel": 4,
      "note": 125,
      "start": 0.1227,
      "duration": 0.0011,
      "velocity": 127,
      "chip": "ym2612"
    },
    {
      "channel": 3,
      "note": 48,
      "start": 0.1267,
      "duration": 0.003,
      "velocity": 113,
      "chip": "ym2612"
    },
    {
      "channel": 4,
      "note": 125,
      "start": 0.1268,
      "duration": 0.0014,
      "velocity": 127,
      "chip": "ym2612"
    },
    {
      "channel": 2,
      "note": 75,
      "start": 0.1268,
      "duration": 0.003,
      "velocity": 101,
      "chip": "ym2612"
    },
    {
      "channel": 0,
      "note": 65,
      "start": 0.1303,
      "duration": 0.0048,
      "velocity": 101,
      "chip": "ym2612"
    },
    {
      "channel": 3,
      "note": 60,
      "start": 0.1303,
      "duration": 0.0008,
      "velocity": 113,
      "chip": "ym2612"
    },
    {
      "channel": 4,
      "note": 125,
      "start": 0.1303,
      "duration": 0.0003,
      "velocity": 127,
      "chip": "ym2612"
    },
    {
      "channel": 1,
      "note": 62,
      "start": 0.1304,
      "duration": 0.0048,
      "velocity": 101,
      "chip": "ym2612"
    },
    {
      "channel": 2,
      "note": 77,
      "start": 0.1304,
      "duration": 0.0012,
      "velocity": 100,
      "chip": "ym2612"
    },
    {
      "channel": 3,
      "note": 48,
      "start": 0.1321,
      "duration": 0.003,
      "velocity": 113,
      "chip": "ym2612"
    },
    {
      "channel": 4,
      "note": 125,
      "start": 0.1321,
      "duration": 0.0014,
      "velocity": 127,
      "chip": "ym2612"
    },
    {
      "channel": 2,
      "note": 79,
      "start": 0.1322,
      "duration": 0.006,
      "velocity": 101,
      "chip": "ym2612"
    },
    {
      "channel": 3,
      "note": 60,
      "start": 0.1356,
      "duration": 0.0025,
      "velocity": 113,
      "chip": "ym2612"
    },
    {
      "channel": 4,
      "note": 125,
      "start": 0.1356,
      "duration": 0.0002,
      "velocity": 127,
      "chip": "ym2612"
    },
    {
      "channel": 0,
      "note": 67,
      "start": 0.1356,
      "duration": 0.0024,
      "velocity": 101,
      "chip": "ym2612"
    },
    {
      "channel": 1,
      "note": 63,
      "start": 0.1356,
      "duration": 0.0025,
      "velocity": 101,
      "chip": "ym2612"
    },
    {
      "channel": 0,
      "note": 67,
      "start": 0.139,
      "duration": 0.0269,
      "velocity": 101,
      "chip": "ym2612"
    },
    {
      "channel": 3,
      "note": 60,
      "start": 0.139,
      "duration": 0.001,
      "velocity": 113,
      "chip": "ym2612"
    },
    {
      "channel": 4,
      "note": 125,
      "start": 0.139,
      "duration": 0.0003,
      "velocity": 127,
      "chip": "ym2612"
    },
    {
      "channel": 1,
      "note": 63,
      "start": 0.1391,
      "duration": 0.0269,
      "velocity": 101,
      "chip": "ym2612"
    },
    {
      "channel": 2,
      "note": 79,
      "start": 0.1391,
      "duration": 0.0011,
      "velocity": 101,
      "chip": "ym2612"
    },
    {
      "channel": 3,
      "note": 48,
      "start": 0.1406,
      "duration": 0.003,
      "velocity": 113,
      "chip": "ym2612"
    },
    {
      "channel": 4,
      "note": 125,
      "start": 0.1406,
      "duration": 0.0013,
      "velocity": 127,
      "chip": "ym2612"
    },
    {
      "channel": 2,
      "note": 77,
      "start": 0.1407,
      "duration": 0.0076,
      "velocity": 103,
      "chip": "ym2612"
    },
    {
      "channel": 3,
      "note": 60,
      "start": 0.144,
      "duration": 0.0042,
      "velocity": 113,
      "chip": "ym2612"
    },
    {
      "channel": 4,
      "note": 125,
      "start": 0.144,
      "duration": 0.0013,
      "velocity": 127,
      "chip": "ym2612"
    },
    {
      "channel": 3,
      "note": 60,
      "start": 0.1489,
      "duration": 0.0038,
      "velocity": 113,
      "chip": "ym2612"
    },
    {
      "channel": 4,
      "note": 125,
      "start": 0.1489,
      "duration": 0.0014,
      "velocity": 127,
      "chip": "ym2612"
    },
    {
      "channel": 2,
      "note": 74,
      "start": 0.149,
      "duration": 0.0082,
      "velocity": 103,
      "chip": "ym2612"
    },
    {
      "channel": 3,
      "note": 48,
      "start": 0.1541,
      "duration": 0.003,
      "velocity": 113,
      "chip": "ym2612"
    },
    {
      "channel": 4,
      "note": 125,
      "start": 0.1541,
      "duration": 0.0014,
      "velocity": 127,
      "chip": "ym2612"
    },
    {
      "channel": 3,
      "note": 60,
      "start": 0.1577,
      "duration": 0.0028,
      "velocity": 113,
      "chip": "ym2612"
    },
    {
      "channel": 4,
      "note": 125,
      "start": 0.1577,
      "duration": 0.0014,
      "velocity": 127,
      "chip": "ym2612"
    },
    {
      "channel": 2,
      "note": 75,
      "start": 0.1578,
      "duration": 0.0243,
      "velocity": 102,
      "chip": "ym2612"
    },
    {
      "channel": 3,
      "note": 48,
      "start": 0.1629,
      "duration": 0.003,
      "velocity": 113,
      "chip": "ym2612"
    },
    {
      "channel": 4,
      "note": 125,
      "start": 0.1629,
      "duration": 0.0014,
      "velocity": 127,
      "chip": "ym2612"
    },
    {
      "channel": 3,
      "note": 60,
      "start": 0.1664,
      "duration": 0.0027,
      "velocity": 113,
      "chip": "ym2612"
    },
    {
      "channel": 0,
      "note": 67,
      "start": 0.1665,
      "duration": 0.0027,
      "velocity": 101,
      "chip": "ym2612"
    },
    {
      "channel": 1,
      "note": 63,
      "start": 0.1665,
      "duration": 0.0027,
      "velocity": 101,
      "chip": "ym2612"
    },
    {
      "channel": 4,
      "note": 125,
      "start": 0.1665,
      "duration": 0.0011,
      "velocity": 127,
      "chip": "ym2612"
    },
    {
      "channel": 3,
      "note": 60,
      "start": 0.1696,
      "duration": 0.0027,
      "velocity": 113,
      "chip": "ym2612"
    },
    {
      "channel": 4,
      "note": 125,
      "start": 0.1696,
      "duration": 0.0011,
      "velocity": 127,
      "chip": "ym2612"
    },
    {
      "channel": 0,
      "note": 67,
      "start": 0.1697,
      "duration": 0.0027,
      "velocity": 101,
      "chip": "ym2612"
    },
    {
      "channel": 1,
      "note": 63,
      "start": 0.1697,
      "duration": 0.0028,
      "velocity": 101,
      "chip": "ym2612"
    },
    {
      "channel": 3,
      "note": 48,
      "start": 0.1729,
      "duration": 0.0027,
      "velocity": 113,
      "chip": "ym2612"
    },
    {
      "channel": 4,
      "note": 125,
      "start": 0.1729,
      "duration": 0.0012,
      "velocity": 127,
      "chip": "ym2612"
    },
    {
      "channel": 0,
      "note": 67,
      "start": 0.1729,
      "duration": 0.0026,
      "velocity": 101,
      "chip": "ym2612"
    },
    {
      "channel": 1,
      "note": 63,
      "start": 0.1729,
      "duration": 0.0027,
      "velocity": 101,
      "chip": "ym2612"
    },
    {
      "channel": 3,
      "note": 60,
      "start": 0.1761,
      "duration": 0.0028,
      "velocity": 113,
      "chip": "ym2612"
    },
    {
      "channel": 4,
      "note": 125,
      "start": 0.1761,
      "duration": 0.0012,
      "velocity": 127,
      "chip": "ym2612"
    },
    {
      "channel": 0,
      "note": 67,
      "start": 0.1761,
      "duration": 0.0028,
      "velocity": 101,
      "chip": "ym2612"
    },
    {
      "channel": 1,
      "note": 63,
      "start": 0.1761,
      "duration": 0.0029,
      "velocity": 101,
      "chip": "ym2612"
    },
    {
      "channel": 3,
      "note": 60,
      "start": 0.1794,
      "duration": 0.0026,
      "velocity": 113,
      "chip": "ym2612"
    },
    {
      "channel": 0,
      "note": 65,
      "start": 0.1794,
      "duration": 0.0062,
      "velocity": 101,
      "chip": "ym2612"
    },
    {
      "channel": 1,
      "note": 62,
      "start": 0.1794,
      "duration": 0.0063,
      "velocity": 101,
      "chip": "ym2612"
    },
    {
      "channel": 4,
      "note": 125,
      "start": 0.1794,
      "duration": 0.0011,
      "velocity": 127,
      "chip": "ym2612"
    },
    {
      "channel": 3,
      "note": 48,
      "start": 0.1826,
      "duration": 0.003,
      "velocity": 113,
      "chip": "ym2612"
    },
    {
      "channel": 4,
      "note": 125,
      "start": 0.1826,
      "duration": 0.0013,
      "velocity": 127,
      "chip": "ym2612"
    },
    {
      "channel": 2,
      "note": 75,
      "start": 0.1827,
      "duration": 0.0031,
      "velocity": 100,
      "chip": "ym2612"
    },
    {
      "channel": 3,
      "note": 60,
      "start": 0.1862,
      "duration": 0.0007,
      "velocity": 113,
      "chip": "ym2612"
    },
    {
      "channel": 4,
      "note": 125,
      "start": 0.1862,
      "duration": 0.0003,
      "velocity": 127,
      "chip": "ym2612"
    },
    {
      "channel": 0,
      "note": 65,
      "start": 0.1863,
      "duration": 0.0046,
      "velocity": 101,
      "chip": "ym2612"
    },
    {
      "channel": 1,
      "note": 62,
      "start": 0.1863,
      "duration": 0.0047,
      "velocity": 101,
      "chip": "ym2612"
    },
    {
      "channel": 2,
      "note": 77,
      "start": 0.1863,
      "duration": 0.0011,
      "velocity": 101,
      "chip": "ym2612"
    },
    {
      "channel": 3,
      "note": 48,
      "start": 0.1878,
      "duration": 0.003,
      "velocity": 113,
      "chip": "ym2612"
    },
    {
      "channel": 4,
      "note": 125,
      "start": 0.1878,
      "duration": 0.0014,
      "velocity": 127,
      "chip": "ym2612"
    },
    {
      "channel": 2,
      "note": 79,
      "start": 0.188,
      "duration": 0.0045,
      "velocity": 102,
      "chip": "ym2612"
    },
    {
      "channel": 3,
      "note": 60,
      "start": 0.1914,
      "duration": 0.001,
      "velocity": 113,
      "chip": "ym2612"
    },
    {
      "channel": 0,
      "note": 67,
      "start": 0.1914,
      "duration": 0.001,
      "velocity": 101,
      "chip": "ym2612"
    },
    {
      "channel": 1,
      "note": 63,
      "start": 0.1914,
      "duration": 0.001,
      "velocity": 101,
      "chip": "ym2612"
    },
    {
      "channel": 4,
      "note": 125,
      "start": 0.1914,
      "duration": 0.0002,
      "velocity": 127,
      "chip": "ym2612"
    },
    {
      "channel": 3,
      "note": 60,
      "start": 0.1932,
      "duration": 0.001,
      "velocity": 113,
      "chip": "ym2612"
    },
    {
      "channel": 4,
      "note": 125,
      "start": 0.1932,
      "duration": 0.0003,
      "velocity": 127,
      "chip": "ym2612"
    },
    {
      "channel": 0,
      "note": 67,
      "start": 0.1933,
      "duration": 0.001,
      "velocity": 101,
      "chip": "ym2612"
    },
    {
      "channel": 1,
      "note": 63,
      "start": 0.1933,
      "duration": 0.001,
      "velocity": 101,
      "chip": "ym2612"
    },
    {
      "channel": 2,
      "note": 79,
      "start": 0.1933,
      "duration": 0.0011,
      "velocity": 101,
      "chip": "ym2612"
    },
    {
      "channel": 0,
      "note": 68,
      "start": 0.1948,
      "duration": 0.0055,
      "velocity": 101,
      "chip": "ym2612"
    },
    {
      "channel": 3,
      "note": 48,
      "start": 0.1948,
      "duration": 0.001,
      "velocity": 113,
      "chip": "ym2612"
    },
    {
      "channel": 4,
      "note": 125,
      "start": 0.1948,
      "duration": 0.0003,
      "velocity": 127,
      "chip": "ym2612"
    },
    {
      "channel": 1,
      "note": 65,
      "start": 0.1949,
      "duration": 0.0055,
      "velocity": 101,
      "chip": "ym2612"
    },
    {
      "channel": 2,
      "note": 77,
      "start": 0.1949,
      "duration": 0.0055,
      "velocity": 102,
      "chip": "ym2612"
    },
    {
      "channel": 3,
      "note": 60,
      "start": 0.1963,
      "duration": 0.004,
      "velocity": 113,
      "chip": "ym2612"
    },
    {
      "channel": 4,
      "note": 125,
      "start": 0.1963,
      "duration": 0.0013,
      "velocity": 127,
      "chip": "ym2612"
    },
    {
      "channel": 3,
      "note": 60,
      "start": 0.201,
      "duration": 0.001,
      "velocity": 113,
      "chip": "ym2612"
    },
    {
      "channel": 4,
      "note": 125,
      "start": 0.201,
      "duration": 0.0003,
      "velocity": 127,
      "chip": "ym2612"
    },
    {
      "channel": 0,
      "note": 67,
      "start": 0.201,
      "duration": 0.0045,
      "velocity": 101,
      "chip": "ym2612"
    },
    {
      "channel": 1,
      "note": 63,
      "start": 0.201,
      "duration": 0.0046,
      "velocity": 101,
      "chip": "ym2612"
    },
    {
      "channel": 2,
      "note": 74,
      "start": 0.201,
      "duration": 0.0046,
      "velocity": 102,
      "chip": "ym2612"
    },
    {
      "channel": 3,
      "note": 48,
      "start": 0.2025,
      "duration": 0.003,
      "velocity": 113,
      "chip": "ym2612"
    },
    {
      "channel": 4,
      "note": 125,
      "start": 0.2025,
      "duration": 0.0013,
      "velocity": 127,
      "chip": "ym2612"
    },
    {
      "channel": 3,
      "note": 60,
      "start": 0.2061,
      "duration": 0.0007,
      "velocity": 113,
      "chip": "ym2612"
    },
    {
      "channel": 4,
      "note": 125,
      "start": 0.2061,
      "duration": 0.0003,
      "velocity": 127,
      "chip": "ym2612"
    },
    {
      "channel": 0,
      "note": 65,
      "start": 0.2062,
      "duration": 0.0063,
      "velocity": 101,
      "chip": "ym2612"
    },
    {
      "channel": 1,
      "note": 62,
      "start": 0.2062,
      "duration": 0.0064,
      "velocity": 101,
      "chip": "ym2612"
    },
    {
      "channel": 2,
      "note": 72,
      "start": 0.2062,
      "duration": 0.0318,
      "velocity": 104,
      "chip": "ym2612"
    },
    {
      "channel": 3,
      "note": 44,
      "start": 0.2094,
      "duration": 0.003,
      "velocity": 113,
      "chip": "ym2612"
    },
    {
      "channel": 4,
      "note": 125,
      "start": 0.2094,
      "duration": 0.0013,
      "velocity": 127,
      "chip": "ym2612"
    },
    {
      "channel": 3,
      "note": 56,
      "start": 0.2129,
      "duration": 0.0028,
      "velocity": 113,
      "chip": "ym2612"
    },
    {
      "channel": 0,
      "note": 63,
      "start": 0.213,
      "duration": 0.0028,
      "velocity": 101,
      "chip": "ym2612"
    },
    {
      "channel": 1,
      "note": 60,
      "start": 0.213,
      "duration": 0.0029,
      "velocity": 101,
      "chip": "ym2612"
    },
    {
      "channel": 4,
      "note": 125,
      "start": 0.213,
      "duration": 0.0012,
      "velocity": 127,
      "chip": "ym2612"
    },
    {
      "channel": 3,
      "note": 56,
      "start": 0.2163,
      "duration": 0.0028,
      "velocity": 113,
      "chip": "ym2612"
    },
    {
      "channel": 0,
      "note": 63,
      "start": 0.2163,
      "duration": 0.0028,
      "velocity": 101,
      "chip": "ym2612"
    },
    {
      "channel": 1,
      "note": 60,
      "start": 0.2163,
      "duration": 0.0029,
      "velocity": 101,
      "chip": "ym2612"
    },
    {
      "channel": 4,
      "note": 125,
      "start": 0.2163,
      "duration": 0.0012,
      "velocity": 127,
      "chip": "ym2612"
    },
    {
      "channel": 3,
      "note": 44,
      "start": 0.2196,
      "duration": 0.0028,
      "velocity": 113,
      "chip": "ym2612"
    },
    {
      "channel": 0,
      "note": 63,
      "start": 0.2196,
      "duration": 0.0028,
      "velocity": 101,
      "chip": "ym2612"
    },
    {
      "channel": 1,
      "note": 60,
      "start": 0.2196,
      "duration": 0.0029,
      "velocity": 101,
      "chip": "ym2612"
    },
    {
      "channel": 4,
      "note": 125,
      "start": 0.2196,
      "duration": 0.0012,
      "velocity": 127,
      "chip": "ym2612"
    },
    {
      "channel": 0,
      "note": 63,
      "start": 0.2246,
      "duration": 0.0029,
      "velocity": 101,
      "chip": "ym2612"
    },
    {
      "channel": 3,
      "note": 56,
      "start": 0.2246,
      "duration": 0.0028,
      "velocity": 113,
      "chip": "ym2612"
    },
    {
      "channel": 4,
      "note": 125,
      "start": 0.2246,
      "duration": 0.0012,
      "velocity": 127,
      "chip": "ym2612"
    },
    {
      "channel": 1,
      "note": 60,
      "start": 0.2246,
      "duration": 0.0029,
      "velocity": 101,
      "chip": "ym2612"
    },
    {
      "channel": 3,
      "note": 56,
      "start": 0.2279,
      "duration": 0.0027,
      "velocity": 113,
      "chip": "ym2612"
    },
    {
      "channel": 0,
      "note": 62,
      "start": 0.228,
      "duration": 0.0067,
      "velocity": 101,
      "chip": "ym2612"
    },
    {
      "channel": 1,
      "note": 58,
      "start": 0.228,
      "duration": 0.0068,
      "velocity": 101,
      "chip": "ym2612"
    },
    {
      "channel": 4,
      "note": 125,
      "start": 0.228,
      "duration": 0.0011,
      "velocity": 127,
      "chip": "ym2612"
    },
    {
      "channel": 3,
      "note": 44,
      "start": 0.2311,
      "duration": 0.0035,
      "velocity": 113,
      "chip": "ym2612"
    },
    {
      "channel": 4,
      "note": 125,
      "start": 0.2311,
      "duration": 0.0016,
      "velocity": 127,
      "chip": "ym2612"
    },
    {
      "channel": 3,
      "note": 56,
      "start": 0.2351,
      "duration": 0.0023,
      "velocity": 113,
      "chip": "ym2612"
    },
    {
      "channel": 4,
      "note": 125,
      "start": 0.2351,
      "duration": 0.0012,
      "velocity": 127,
      "chip": "ym2612"
    },
    {
      "channel": 0,
      "note": 62,
      "start": 0.2352,
      "duration": 0.0063,
      "velocity": 101,
      "chip": "ym2612"
    },
    {
      "channel": 1,
      "note": 58,
      "start": 0.2352,
      "duration": 0.0063,
      "velocity": 101,
      "chip": "ym2612"
    },
    {
      "channel": 3,
      "note": 46,
      "start": 0.2384,
      "duration": 0.003,
      "velocity": 113,
      "chip": "ym2612"
    },
    {
      "channel": 4,
      "note": 125,
      "start": 0.2384,
      "duration": 0.0014,
      "velocity": 127,
      "chip": "ym2612"
    },
    {
      "channel": 2,
      "note": 70,
      "start": 0.2386,
      "duration": 0.0049,
      "velocity": 104,
      "chip": "ym2612"
    },
    {
      "channel": 3,
      "note": 58,
      "start": 0.2419,
      "duration": 0.0013,
      "velocity": 113,
      "chip": "ym2612"
    },
    {
      "channel": 4,
      "note": 125,
      "start": 0.2419,
      "duration": 0.0002,
      "velocity": 127,
      "chip": "ym2612"
    },
    {
      "channel": 0,
      "note": 63,
      "start": 0.242,
      "duration": 0.0013,
      "velocity": 101,
      "chip": "ym2612"
    },
    {
      "channel": 1,
      "note": 60,
      "start": 0.242,
      "duration": 0.0014,
      "velocity": 101,
      "chip": "ym2612"
    },
    {
      "channel": 3,
      "note": 58,
      "start": 0.2439,
      "duration": 0.0011,
      "velocity": 113,
      "chip": "ym2612"
    },
    {
      "channel": 4,
      "note": 125,
      "start": 0.2439,
      "duration": 0.0003,
      "velocity": 127,
      "chip": "ym2612"
    },
    {
      "channel": 0,
      "note": 63,
      "start": 0.2439,
      "duration": 0.001,
      "velocity": 101,
      "chip": "ym2612"
    },
    {
      "channel": 1,
      "note": 60,
      "start": 0.2439,
      "duration": 0.0011,
      "velocity": 101,
      "chip": "ym2612"
    },
    {
      "channel": 2,
      "note": 70,
      "start": 0.2439,
      "duration": 0.0011,
      "velocity": 102,
      "chip": "ym2612"
    },
    {
      "channel": 0,
      "note": 65,
      "start": 0.2455,
      "duration": 0.0044,
      "velocity": 101,
      "chip": "ym2612"
    },
    {
      "channel": 3,
      "note": 46,
      "start": 0.2455,
      "duration": 0.001,
      "velocity": 113,
      "chip": "ym2612"
    },
    {
      "channel": 4,
      "note": 125,
      "start": 0.2455,
      "duration": 0.0003,
      "velocity": 127,
      "chip": "ym2612"
    },
    {
      "channel": 1,
      "note": 62,
      "start": 0.2456,
      "duration": 0.0044,
      "velocity": 101,
      "chip": "ym2612"
    },
    {
      "channel": 2,
      "note": 65,
      "start": 0.2456,
      "duration": 0.0089,
      "velocity": 102,
      "chip": "ym2612"
    },
    {
      "channel": 3,
      "note": 58,
      "start": 0.247,
      "duration": 0.0029,
      "velocity": 113,
      "chip": "ym2612"
    },
    {
      "channel": 4,
      "note": 125,
      "start": 0.247,
      "duration": 0.0014,
      "velocity": 127,
      "chip": "ym2612"
    },
    {
      "channel": 3,
      "note": 58,
      "start": 0.2505,
      "duration": 0.0039,
      "velocity": 113,
      "chip": "ym2612"
    },
    {
      "channel": 0,
      "note": 65,
      "start": 0.2505,
      "duration": 0.0148,
      "velocity": 101,
      "chip": "ym2612"
    },
    {
      "channel": 1,
      "note": 62,
      "start": 0.2505,
      "duration": 0.0149,
      "velocity": 101,
      "chip": "ym2612"
    },
    {
      "channel": 4,
      "note": 125,
      "start": 0.2505,
      "duration": 0.0011,
      "velocity": 127,
      "chip": "ym2612"
    },
    {
      "channel": 3,
      "note": 46,
      "start": 0.2552,
      "duration": 0.003,
      "velocity": 113,
      "chip": "ym2612"
    },
    {
      "channel": 4,
      "note": 125,
      "start": 0.2552,
      "duration": 0.0014,
      "velocity": 127,
      "chip": "ym2612"
    },
    {
      "channel": 2,
      "note": 68,
      "start": 0.2554,
      "duration": 0.0064,
      "velocity": 101,
      "chip": "ym2612"
    },
    {
      "channel": 3,
      "note": 58,
      "start": 0.2587,
      "duration": 0.0027,
      "velocity": 113,
      "chip": "ym2612"
    },
    {
      "channel": 4,
      "note": 125,
      "start": 0.2587,
      "duration": 0.0013,
      "velocity": 127,
      "chip": "ym2612"
    },
    {
      "channel": 3,
      "note": 48,
      "start": 0.2624,
      "duration": 0.0029,
      "velocity": 113,
      "chip": "ym2612"
    },
    {
      "channel": 4,
      "note": 125,
      "start": 0.2624,
      "duration": 0.0013,
      "velocity": 127,
      "chip": "ym2612"
    },
    {
      "channel": 2,
      "note": 68,
      "start": 0.2625,
      "duration": 0.0029,
      "velocity": 104,
      "chip": "ym2612"
    },
    {
      "channel": 3,
      "note": 60,
      "start": 0.2659,
      "duration": 0.0012,
      "velocity": 113,
      "chip": "ym2612"
    },
    {
      "channel": 4,
      "note": 125,
      "start": 0.2659,
      "duration": 0.0003,
      "velocity": 127,
      "chip": "ym2612"
    },
    {
      "channel": 0,
      "note": 67,
      "start": 0.2659,
      "duration": 0.0011,
      "velocity": 101,
      "chip": "ym2612"
    },
    {
      "channel": 1,
      "note": 63,
      "start": 0.2659,
      "duration": 0.0012,
      "velocity": 101,
      "chip": "ym2612"
    },
    {
      "channel": 2,
      "note": 67,
      "start": 0.2659,
      "duration": 0.0012,
      "velocity": 101,
      "chip": "ym2612"
    },
    {
      "channel": 0,
      "note": 67,
      "start": 0.2676,
      "duration": 0.001,
      "velocity": 101,
      "chip": "ym2612"
    },
    {
      "channel": 3,
      "note": 60,
      "start": 0.2676,
      "duration": 0.001,
      "velocity": 113,
      "chip": "ym2612"
    },
    {
      "channel": 4,
      "note": 125,
      "start": 0.2676,
      "duration": 0.0003,
      "velocity": 127,
      "chip": "ym2612"
    },
    {
      "channel": 1,
      "note": 63,
      "start": 0.2677,
      "duration": 0.001,
      "velocity": 101,
      "chip": "ym2612"
    },
    {
      "channel": 2,
      "note": 65,
      "start": 0.2677,
      "duration": 0.0011,
      "velocity": 102,
      "chip": "ym2612"
    },
    {
      "channel": 0,
      "note": 67,
      "start": 0.2693,
      "duration": 0.0019,
      "velocity": 101,
      "chip": "ym2612"
    },
    {
      "channel": 3,
      "note": 48,
      "start": 0.2693,
      "duration": 0.0019,
      "velocity": 113,
      "chip": "ym2612"
    },
    {
      "channel": 4,
      "note": 125,
      "start": 0.2693,
      "duration": 0.0003,
      "velocity": 127,
      "chip": "ym2612"
    },
    {
      "channel": 1,
      "note": 63,
      "start": 0.2693,
      "duration": 0.0019,
      "velocity": 101,
      "chip": "ym2612"
    },
    {
      "channel": 2,
      "note": 67,
      "start": 0.2693,
      "duration": 0.0453,
      "velocity": 103,
      "chip": "ym2612"
    },
    {
      "channel": 3,
      "note": 60,
      "start": 0.2726,
      "duration": 0.001,
      "velocity": 113,
      "chip": "ym2612"
    },
    {
      "channel": 4,
      "note": 125,
      "start": 0.2726,
      "duration": 0.0003,
      "velocity": 127,
      "chip": "ym2612"
    },
    {
      "channel": 0,
      "note": 67,
      "start": 0.2726,
      "duration": 0.001,
      "velocity": 101,
      "chip": "ym2612"
    },
    {
      "channel": 1,
      "note": 63,
      "start": 0.2726,
      "duration": 0.001,
      "velocity": 101,
      "chip": "ym2612"
    },
    {
      "channel": 0,
      "note": 65,
      "start": 0.2741,
      "duration": 0.0068,
      "velocity": 101,
      "chip": "ym2612"
    },
    {
      "channel": 3,
      "note": 60,
      "start": 0.2741,
      "duration": 0.0027,
      "velocity": 113,
      "chip": "ym2612"
    },
    {
      "channel": 4,
      "note": 125,
      "start": 0.2741,
      "duration": 0.0012,
      "velocity": 127,
      "chip": "ym2612"
    },
    {
      "channel": 1,
      "note": 62,
      "start": 0.2742,
      "duration": 0.0068,
      "velocity": 101,
      "chip": "ym2612"
    },
    {
      "channel": 3,
      "note": 48,
      "start": 0.2773,
      "duration": 0.0035,
      "velocity": 113,
      "chip": "ym2612"
    },
    {
      "channel": 4,
      "note": 125,
      "start": 0.2774,
      "duration": 0.0016,
      "velocity": 127,
      "chip": "ym2612"
    },
    {
      "channel": 0,
      "note": 65,
      "start": 0.2814,
      "duration": 0.0067,
      "velocity": 101,
      "chip": "ym2612"
    },
    {
      "channel": 3,
      "note": 60,
      "start": 0.2814,
      "duration": 0.0023,
      "velocity": 113,
      "chip": "ym2612"
    },
    {
      "channel": 4,
      "note": 125,
      "start": 0.2814,
      "duration": 0.0012,
      "velocity": 127,
      "chip": "ym2612"
    },
    {
      "channel": 1,
      "note": 62,
      "start": 0.2815,
      "duration": 0.0067,
      "velocity": 101,
      "chip": "ym2612"
    },
    {
      "channel": 3,
      "note": 48,
      "start": 0.2845,
      "duration": 0.0036,
      "velocity": 113,
      "chip": "ym2612"
    },
    {
      "channel": 4,
      "note": 125,
      "start": 0.2845,
      "duration": 0.0016,
      "velocity": 127,
      "chip": "ym2612"
    },
    {
      "channel": 0,
      "note": 68,
      "start": 0.2886,
      "duration": 0.0033,
      "velocity": 101,
      "chip": "ym2612"
    },
    {
      "channel": 3,
      "note": 60,
      "start": 0.2886,
      "duration": 0.0032,
      "velocity": 113,
      "chip": "ym2612"
    },
    {
      "channel": 4,
      "note": 125,
      "start": 0.2886,
      "duration": 0.0012,
      "velocity": 127,
      "chip": "ym2612"
    },
    {
      "channel": 1,
      "note": 65,
      "start": 0.2886,
      "duration": 0.0033,
      "velocity": 101,
      "chip": "ym2612"
    },
    {
      "channel": 3,
      "note": 60,
      "start": 0.2933,
      "duration": 0.0026,
      "velocity": 113,
      "chip": "ym2612"
    },
    {
      "channel": 4,
      "note": 125,
      "start": 0.2933,
      "duration": 0.0011,
      "velocity": 127,
      "chip": "ym2612"
    },
    {
      "channel": 0,
      "note": 68,
      "start": 0.2934,
      "duration": 0.0026,
      "velocity": 101,
      "chip": "ym2612"
    },
    {
      "channel": 1,
      "note": 65,
      "start": 0.2934,
      "duration": 0.0026,
      "velocity": 101,
      "chip": "ym2612"
    },
    {
      "channel": 3,
      "note": 48,
      "start": 0.2964,
      "duration": 0.0027,
      "velocity": 113,
      "chip": "ym2612"
    },
    {
      "channel": 0,
      "note": 67,
      "start": 0.2965,
      "duration": 0.0071,
      "velocity": 101,
      "chip": "ym2612"
    },
    {
      "channel": 1,
      "note": 63,
      "start": 0.2965,
      "duration": 0.0072,
      "velocity": 101,
      "chip": "ym2612"
    },
    {
      "channel": 4,
      "note": 125,
      "start": 0.2965,
      "duration": 0.0012,
      "velocity": 127,
      "chip": "ym2612"
    },
    {
      "channel": 3,
      "note": 60,
      "start": 0.2997,
      "duration": 0.0039,
      "velocity": 113,
      "chip": "ym2612"
    },
    {
      "channel": 4,
      "note": 125,
      "start": 0.2997,
      "duration": 0.0017,
      "velocity": 127,
      "chip": "ym2612"
    },
    {
      "channel": 0,
      "note": 65,
      "start": 0.3041,
      "duration": 0.0068,
      "velocity": 101,
      "chip": "ym2612"
    },
    {
      "channel": 3,
      "note": 60,
      "start": 0.3041,
      "duration": 0.0028,
      "velocity": 113,
      "chip": "ym2612"
    },
    {
      "channel": 4,
      "note": 125,
      "start": 0.3041,
      "duration": 0.0012,
      "velocity": 127,
      "chip": "ym2612"
    },
    {
      "channel": 1,
      "note": 62,
      "start": 0.3042,
      "duration": 0.0068,
      "velocity": 101,
      "chip": "ym2612"
    },
    {
      "channel": 3,
      "note": 48,
      "start": 0.3074,
      "duration": 0.0035,
      "velocity": 113,
      "chip": "ym2612"
    },
    {
      "channel": 4,
      "note": 125,
      "start": 0.3074,
      "duration": 0.0016,
      "velocity": 127,
      "chip": "ym2612"
    },
    {
      "channel": 3,
      "note": 60,
      "start": 0.3115,
      "duration": 0.0024,
      "velocity": 113,
      "chip": "ym2612"
    },
    {
      "channel": 4,
      "note": 125,
      "start": 0.3115,
      "duration": 0.0012,
      "velocity": 127,
      "chip": "ym2612"
    },
    {
      "channel": 0,
      "note": 67,
      "start": 0.3115,
      "duration": 0.003,
      "velocity": 101,
      "chip": "ym2612"
    },
    {
      "channel": 1,
      "note": 63,
      "start": 0.3115,
      "duration": 0.0031,
      "velocity": 101,
      "chip": "ym2612"
    },
    {
      "channel": 3,
      "note": 48,
      "start": 0.3156,
      "duration": 0.003,
      "velocity": 113,
      "chip": "ym2612"
    },
    {
      "channel": 4,
      "note": 125,
      "start": 0.3156,
      "duration": 0.0022,
      "velocity": 127,
      "chip": "ym2612"
    },
    {
      "channel": 0,
      "note": 63,
      "start": 0.3156,
      "duration": 0.0031,
      "velocity": 101,
      "chip": "ym2612"
    },
    {
      "channel": 1,
      "note": 60,
      "start": 0.3156,
      "duration": 0.0031,
      "velocity": 101,
      "chip": "ym2612"
    },
    {
      "channel": 2,
      "note": 79,
      "start": 0.3177,
      "duration": 0.0012,
      "velocity": 102,
      "chip": "ym2612"
    },
    {
      "channel": 3,
      "note": 60,
      "start": 0.3193,
      "duration": 0.0073,
      "velocity": 113,
      "chip": "ym2612"
    },
    {
      "channel": 4,
      "note": 125,
      "start": 0.3193,
      "duration": 0.0033,
      "velocity": 127,
      "chip": "ym2612"
    },
    {
      "channel": 0,
      "note": 63,
      "start": 0.3194,
      "duration": 0.0108,
      "velocity": 101,
      "chip": "ym2612"
    },
    {
      "channel": 1,
      "note": 60,
      "start": 0.3194,
      "duration": 0.0109,
      "velocity": 101,
      "chip": "ym2612"
    },
    {
      "channel": 2,
      "note": 77,
      "start": 0.3194,
      "duration": 0.0073,
      "velocity": 100,
      "chip": "ym2612"
    },
    {
      "channel": 3,
      "note": 60,
      "start": 0.3272,
      "duration": 0.0029,
      "velocity": 113,
      "chip": "ym2612"
    },
    {
      "channel": 4,
      "note": 125,
      "start": 0.3272,
      "duration": 0.0013,
      "velocity": 127,
      "chip": "ym2612"
    },
    {
      "channel": 2,
      "note": 79,
      "start": 0.3273,
      "duration": 0.003,
      "velocity": 101,
      "chip": "ym2612"
    },
    {
      "channel": 0,
      "note": 63,
      "start": 0.3308,
      "duration": 0.0044,
      "velocity": 101,
      "chip": "ym2612"
    },
    {
      "channel": 3,
      "note": 48,
      "start": 0.3308,
      "duration": 0.001,
      "velocity": 113,
      "chip": "ym2612"
    },
    {
      "channel": 4,
      "note": 125,
      "start": 0.3308,
      "duration": 0.0003,
      "velocity": 127,
      "chip": "ym2612"
    },
    {
      "channel": 1,
      "note": 60,
      "start": 0.3308,
      "duration": 0.0044,
      "velocity": 101,
      "chip": "ym2612"
    },
    {
      "channel": 2,
      "note": 72,
      "start": 0.3308,
      "duration": 0.0078,
      "velocity": 100,
      "chip": "ym2612"
    },
    {
      "channel": 3,
      "note": 60,
      "start": 0.3322,
      "duration": 0.003,
      "velocity": 113,
      "chip": "ym2612"
    },
    {
      "channel": 4,
      "note": 125,
      "start": 0.3322,
      "duration": 0.0014,
      "velocity": 127,
      "chip": "ym2612"
    },
    {
      "channel": 3,
      "note": 60,
      "start": 0.3357,
      "duration": 0.0028,
      "velocity": 113,
      "chip": "ym2612"
    },
    {
      "channel": 4,
      "note": 125,
      "start": 0.3357,
      "duration": 0.0012,
      "velocity": 127,
      "chip": "ym2612"
    },
    {
      "channel": 0,
      "note": 63,
      "start": 0.3358,
      "duration": 0.0064,
      "velocity": 101,
      "chip": "ym2612"
    },
    {
      "channel": 1,
      "note": 60,
      "start": 0.3358,
      "duration": 0.0065,
      "velocity": 101,
      "chip": "ym2612"
    },
    {
      "channel": 3,
      "note": 48,
      "start": 0.3392,
      "duration": 0.003,
      "velocity": 113,
      "chip": "ym2612"
    },
    {
      "channel": 4,
      "note": 125,
      "start": 0.3392,
      "duration": 0.0014,
      "velocity": 127,
      "chip": "ym2612"
    },
    {
      "channel": 2,
      "note": 79,
      "start": 0.3393,
      "duration": 0.0031,
      "velocity": 98,
      "chip": "ym2612"
    },
    {
      "channel": 3,
      "note": 60,
      "start": 0.3428,
      "duration": 0.0007,
      "velocity": 113,
      "chip": "ym2612"
    },
    {
      "channel": 0,
      "note": 62,
      "start": 0.3428,
      "duration": 0.0046,
      "velocity": 101,
      "chip": "ym2612"
    },
    {
      "channel": 1,
      "note": 58,
      "start": 0.3428,
      "duration": 0.0046,
      "velocity": 101,
      "chip": "ym2612"
    },
    {
      "channel": 4,
      "note": 125,
      "start": 0.3428,
      "duration": 0.0002,
      "velocity": 127,
      "chip": "ym2612"
    },
    {
      "channel": 2,
      "note": 77,
      "start": 0.3429,
      "duration": 0.001,
      "velocity": 101,
      "chip": "ym2612"
    },
    {
      "channel": 3,
      "note": 48,
      "start": 0.3444,
      "duration": 0.003,
      "velocity": 113,
      "chip": "ym2612"
    },
    {
      "channel": 4,
      "note": 125,
      "start": 0.3444,
      "duration": 0.0014,
      "velocity": 127,
      "chip": "ym2612"
    },
    {
      "channel": 2,
      "note": 79,
      "start": 0.3445,
      "duration": 0.003,
      "velocity": 100,
      "chip": "ym2612"
    },
    {
      "channel": 3,
      "note": 60,
      "start": 0.3479,
      "duration": 0.001,
      "velocity": 113,
      "chip": "ym2612"
    },
    {
      "channel": 4,
      "note": 125,
      "start": 0.3479,
      "duration": 0.0003,
      "velocity": 127,
      "chip": "ym2612"
    },
    {
      "channel": 0,
      "note": 63,
      "start": 0.348,
      "duration": 0.001,
      "velocity": 101,
      "chip": "ym2612"
    },
    {
      "channel": 1,
      "note": 60,
      "start": 0.348,
      "duration": 0.0011,
      "velocity": 101,
      "chip": "ym2612"
    },
    {
      "channel": 2,
      "note": 72,
      "start": 0.348,
      "duration": 0.0068,
      "velocity": 100,
      "chip": "ym2612"
    },
    {
      "channel": 3,
      "note": 60,
      "start": 0.3494,
      "duration": 0.001,
      "velocity": 113,
      "chip": "ym2612"
    },
    {
      "channel": 0,
      "note": 63,
      "start": 0.3495,
      "duration": 0.0051,
      "velocity": 101,
      "chip": "ym2612"
    },
    {
      "channel": 1,
      "note": 60,
      "start": 0.3495,
      "duration": 0.0052,
      "velocity": 101,
      "chip": "ym2612"
    },
    {
      "channel": 4,
      "note": 125,
      "start": 0.3495,
      "duration": 0.0002,
      "velocity": 127,
      "chip": "ym2612"
    },
    {
      "channel": 3,
      "note": 48,
      "start": 0.3509,
      "duration": 0.0037,
      "velocity": 113,
      "chip": "ym2612"
    },
    {
      "channel": 4,
      "note": 125,
      "start": 0.3509,
      "duration": 0.0017,
      "velocity": 127,
      "chip": "ym2612"
    },
    {
      "channel": 0,
      "note": 63,
      "start": 0.3551,
      "duration": 0.0062,
      "velocity": 101,
      "chip": "ym2612"
    },
    {
      "channel": 3,
      "note": 60,
      "start": 0.3551,
      "duration": 0.0016,
      "velocity": 113,
      "chip": "ym2612"
    },
    {
      "channel": 4,
      "note": 125,
      "start": 0.3551,
      "duration": 0.0003,
      "velocity": 127,
      "chip": "ym2612"
    },
    {
      "channel": 1,
      "note": 60,
      "start": 0.3552,
      "duration": 0.0062,
      "velocity": 101,
      "chip": "ym2612"
    },
    {
      "channel": 2,
      "note": 72,
      "start": 0.3552,
      "duration": 0.0017,
      "velocity": 103,
      "chip": "ym2612"
    },
    {
      "channel": 3,
      "note": 60,
      "start": 0.3574,
      "duration": 0.0039,
      "velocity": 113,
      "chip": "ym2612"
    },
    {
      "channel": 4,
      "note": 125,
      "start": 0.3574,
      "duration": 0.0013,
      "velocity": 127,
      "chip": "ym2612"
    },
    {
      "channel": 2,
      "note": 77,
      "start": 0.3575,
      "duration": 0.004,
      "velocity": 100,
      "chip": "ym2612"
    },
    {
      "channel": 3,
      "note": 48,
      "start": 0.3629,
      "duration": 0.001,
      "velocity": 113,
      "chip": "ym2612"
    },
    {
      "channel": 0,
      "note": 63,
      "start": 0.3629,
      "duration": 0.0011,
      "velocity": 101,
      "chip": "ym2612"
    },
    {
      "channel": 1,
      "note": 60,
      "start": 0.3629,
      "duration": 0.0011,
      "velocity": 101,
      "chip": "ym2612"
    },
    {
      "channel": 4,
      "note": 125,
      "start": 0.3629,
      "duration": 0.0002,
      "velocity": 127,
      "chip": "ym2612"
    },
    {
      "channel": 2,
      "note": 79,
      "start": 0.363,
      "duration": 0.0011,
      "velocity": 100,
      "chip": "ym2612"
    },
    {
      "channel": 0,
      "note": 62,
      "start": 0.3645,
      "duration": 0.0029,
      "velocity": 101,
      "chip": "ym2612"
    },
    {
      "channel": 3,
      "note": 60,
      "start": 0.3645,
      "duration": 0.0007,
      "velocity": 113,
      "chip": "ym2612"
    },
    {
      "channel": 4,
      "note": 125,
      "start": 0.3645,
      "duration": 0.0003,
      "velocity": 127,
      "chip": "ym2612"
    },
    {
      "channel": 1,
      "note": 58,
      "start": 0.3645,
      "duration": 0.0029,
      "velocity": 101,
      "chip": "ym2612"
    },
    {
      "channel": 2,
      "note": 77,
      "start": 0.3645,
      "duration": 0.0029,
      "velocity": 100,
      "chip": "ym2612"
    },
    {
      "channel": 0,
      "note": 63,
      "start": 0.3679,
      "duration": 0.0011,
      "velocity": 101,
      "chip": "ym2612"
    },
    {
      "channel": 3,
      "note": 44,
      "start": 0.3679,
      "duration": 0.0011,
      "velocity": 113,
      "chip": "ym2612"
    },
    {
      "channel": 4,
      "note": 125,
      "start": 0.3679,
      "duration": 0.0003,
      "velocity": 127,
      "chip": "ym2612"
    },
    {
      "channel": 1,
      "note": 60,
      "start": 0.368,
      "duration": 0.0011,
      "velocity": 101,
      "chip": "ym2612"
    },
    {
      "channel": 2,
      "note": 79,
      "start": 0.368,
      "duration": 0.0012,
      "velocity": 100,
      "chip": "ym2612"
    },
    {
      "channel": 3,
      "note": 56,
      "start": 0.3696,
      "duration": 0.0014,
      "velocity": 113,
      "chip": "ym2612"
    },
    {
      "channel": 0,
      "note": 63,
      "start": 0.3696,
      "duration": 0.0059,
      "velocity": 101,
      "chip": "ym2612"
    },
    {
      "channel": 1,
      "note": 60,
      "start": 0.3696,
      "duration": 0.006,
      "velocity": 101,
      "chip": "ym2612"
    },
    {
      "channel": 4,
      "note": 125,
      "start": 0.3696,
      "duration": 0.0002,
      "velocity": 127,
      "chip": "ym2612"
    },
    {
      "channel": 2,
      "note": 77,
      "start": 0.3697,
      "duration": 0.0014,
      "velocity": 100,
      "chip": "ym2612"
    },
    {
      "channel": 3,
      "note": 56,
      "start": 0.3725,
      "duration": 0.003,
      "velocity": 113,
      "chip": "ym2612"
    },
    {
      "channel": 4,
      "note": 125,
      "start": 0.3725,
      "duration": 0.0014,
      "velocity": 127,
      "chip": "ym2612"
    },
    {
      "channel": 2,
      "note": 79,
      "start": 0.3726,
      "duration": 0.0031,
      "velocity": 99,
      "chip": "ym2612"
    },
    {
      "channel": 0,
      "note": 63,
      "start": 0.3761,
      "duration": 0.0073,
      "velocity": 101,
      "chip": "ym2612"
    },
    {
      "channel": 3,
      "note": 44,
      "start": 0.3761,
      "duration": 0.0018,
      "velocity": 113,
      "chip": "ym2612"
    },
    {
      "channel": 4,
      "note": 125,
      "start": 0.3761,
      "duration": 0.0003,
      "velocity": 127,
      "chip": "ym2612"
    },
    {
      "channel": 1,
      "note": 60,
      "start": 0.3761,
      "duration": 0.0073,
      "velocity": 101,
      "chip": "ym2612"
    },
    {
      "channel": 2,
      "note": 72,
      "start": 0.3761,
      "duration": 0.0107,
      "velocity": 101,
      "chip": "ym2612"
    },
    {
      "channel": 3,
      "note": 56,
      "start": 0.3793,
      "duration": 0.0041,
      "velocity": 113,
      "chip": "ym2612"
    },
    {
      "channel": 4,
      "note": 125,
      "start": 0.3793,
      "duration": 0.0013,
      "velocity": 127,
      "chip": "ym2612"
    },
    {
      "channel": 0,
      "note": 63,
      "start": 0.3839,
      "duration": 0.0065,
      "velocity": 101,
      "chip": "ym2612"
    },
    {
      "channel": 3,
      "note": 56,
      "start": 0.3839,
      "duration": 0.0028,
      "velocity": 113,
      "chip": "ym2612"
    },
    {
      "channel": 4,
      "note": 125,
      "start": 0.3839,
      "duration": 0.0012,
      "velocity": 127,
      "chip": "ym2612"
    },
    {
      "channel": 1,
      "note": 60,
      "start": 0.384,
      "duration": 0.0065,
      "velocity": 101,
      "chip": "ym2612"
    },
    {
      "channel": 3,
      "note": 44,
      "start": 0.3873,
      "duration": 0.003,
      "velocity": 113,
      "chip": "ym2612"
    },
    {
      "channel": 4,
      "note": 125,
      "start": 0.3873,
      "duration": 0.0014,
      "velocity": 127,
      "chip": "ym2612"
    },
    {
      "channel": 2,
      "note": 79,
      "start": 0.3875,
      "duration": 0.0031,
      "velocity": 100,
      "chip": "ym2612"
    },
    {
      "channel": 3,
      "note": 56,
      "start": 0.391,
      "duration": 0.0007,
      "velocity": 113,
      "chip": "ym2612"
    },
    {
      "channel": 4,
      "note": 125,
      "start": 0.391,
      "duration": 0.0003,
      "velocity": 127,
      "chip": "ym2612"
    },
    {
      "channel": 0,
      "note": 65,
      "start": 0.391,
      "duration": 0.0063,
      "velocity": 101,
      "chip": "ym2612"
    },
    {
      "channel": 1,
      "note": 62,
      "start": 0.391,
      "duration": 0.0064,
      "velocity": 101,
      "chip": "ym2612"
    },
    {
      "channel": 2,
      "note": 77,
      "start": 0.391,
      "duration": 0.0011,
      "velocity": 100,
      "chip": "ym2612"
    },
    {
      "channel": 3,
      "note": 44,
      "start": 0.3942,
      "duration": 0.003,
      "velocity": 113,
      "chip": "ym2612"
    },
    {
      "channel": 4,
      "note": 125,
      "start": 0.3943,
      "duration": 0.0013,
      "velocity": 127,
      "chip": "ym2612"
    },
    {
      "channel": 2,
      "note": 79,
      "start": 0.3943,
      "duration": 0.0031,
      "velocity": 100,
      "chip": "ym2612"
    },
    {
      "channel": 0,
      "note": 65,
      "start": 0.3978,
      "duration": 0.0025,
      "velocity": 101,
      "chip": "ym2612"
    },
    {
      "channel": 3,
      "note": 56,
      "start": 0.3978,
      "duration": 0.0024,
      "velocity": 113,
      "chip": "ym2612"
    },
    {
      "channel": 4,
      "note": 125,
      "start": 0.3978,
      "duration": 0.0003,
      "velocity": 127,
      "chip": "ym2612"
    },
    {
      "channel": 1,
      "note": 62,
      "start": 0.3979,
      "duration": 0.0025,
      "velocity": 101,
      "chip": "ym2612"
    },
    {
      "channel": 2,
      "note": 72,
      "start": 0.3979,
      "duration": 0.0084,
      "velocity": 100,
      "chip": "ym2612"
    },
    {
      "channel": 0,
      "note": 65,
      "start": 0.4012,
      "duration": 0.005,
      "velocity": 101,
      "chip": "ym2612"
    },
    {
      "channel": 3,
      "note": 56,
      "start": 0.4012,
      "duration": 0.001,
      "velocity": 113,
      "chip": "ym2612"
    },
    {
      "channel": 4,
      "note": 125,
      "start": 0.4012,
      "duration": 0.0003,
      "velocity": 127,
      "chip": "ym2612"
    },
    {
      "channel": 1,
      "note": 62,
      "start": 0.4013,
      "duration": 0.005,
      "velocity": 101,
      "chip": "ym2612"
    },
    {
      "channel": 3,
      "note": 44,
      "start": 0.4027,
      "duration": 0.0035,
      "velocity": 113,
      "chip": "ym2612"
    },
    {
      "channel": 4,
      "note": 125,
      "start": 0.4027,
      "duration": 0.0016,
      "velocity": 127,
      "chip": "ym2612"
    },
    {
      "channel": 3,
      "note": 56,
      "start": 0.4084,
      "duration": 0.0016,
      "velocity": 113,
      "chip": "ym2612"
    },
    {
      "channel": 4,
      "note": 125,
      "start": 0.4084,
      "duration": 0.0003,
      "velocity": 127,
      "chip": "ym2612"
    },
    {
      "channel": 0,
      "note": 63,
      "start": 0.4085,
      "duration": 0.0061,
      "velocity": 101,
      "chip": "ym2612"
    },
    {
      "channel": 1,
      "note": 60,
      "start": 0.4085,
      "duration": 0.0061,
      "velocity": 101,
      "chip": "ym2612"
    },
    {
      "channel": 2,
      "note": 72,
      "start": 0.4085,
      "duration": 0.0017,
      "velocity": 103,
      "chip": "ym2612"
    },
    {
      "channel": 3,
      "note": 56,
      "start": 0.4106,
      "duration": 0.0039,
      "velocity": 113,
      "chip": "ym2612"
    },
    {
      "channel": 4,
      "note": 125,
      "start": 0.4106,
      "duration": 0.0014,
      "velocity": 127,
      "chip": "ym2612"
    },
    {
      "channel": 2,
      "note": 77,
      "start": 0.4107,
      "duration": 0.0039,
      "velocity": 99,
      "chip": "ym2612"
    },
    {
      "channel": 3,
      "note": 44,
      "start": 0.4154,
      "duration": 0.001,
      "velocity": 113,
      "chip": "ym2612"
    },
    {
      "channel": 4,
      "note": 125,
      "start": 0.4154,
      "duration": 0.0003,
      "velocity": 127,
      "chip": "ym2612"
    },
    {
      "channel": 0,
      "note": 62,
      "start": 0.4155,
      "duration": 0.0049,
      "velocity": 101,
      "chip": "ym2612"
    },
    {
      "channel": 1,
      "note": 58,
      "start": 0.4155,
      "duration": 0.005,
      "velocity": 101,
      "chip": "ym2612"
    },
    {
      "channel": 2,
      "note": 79,
      "start": 0.4155,
      "duration": 0.001,
      "velocity": 99,
      "chip": "ym2612"
    },
    {
      "channel": 3,
      "note": 56,
      "start": 0.417,
      "duration": 0.0027,
      "velocity": 113,
      "chip": "ym2612"
    },
    {
      "channel": 4,
      "note": 125,
      "start": 0.417,
      "duration": 0.0014,
      "velocity": 127,
      "chip": "ym2612"
    },
    {
      "channel": 2,
      "note": 77,
      "start": 0.4171,
      "duration": 0.0034,
      "velocity": 100,
      "chip": "ym2612"
    },
    {
      "channel": 0,
      "note": 65,
      "start": 0.4219,
      "duration": 0.0011,
      "velocity": 101,
      "chip": "ym2612"
    },
    {
      "channel": 3,
      "note": 46,
      "start": 0.4219,
      "duration": 0.001,
      "velocity": 113,
      "chip": "ym2612"
    },
    {
      "channel": 4,
      "note": 125,
      "start": 0.4219,
      "duration": 0.0003,
      "velocity": 127,
      "chip": "ym2612"
    },
    {
      "channel": 1,
      "note": 62,
      "start": 0.4219,
      "duration": 0.0011,
      "velocity": 101,
      "chip": "ym2612"
    },
    {
      "channel": 2,
      "note": 77,
      "start": 0.4219,
      "duration": 0.0011,
      "velocity": 100,
      "chip": "ym2612"
    },
    {
      "channel": 3,
      "note": 58,
      "start": 0.4234,
      "duration": 0.0015,
      "velocity": 113,
      "chip": "ym2612"
    },
    {
      "channel": 4,
      "note": 125,
      "start": 0.4234,
      "duration": 0.0003,
      "velocity": 127,
      "chip": "ym2612"
    },
    {
      "channel": 0,
      "note": 65,
      "start": 0.4235,
      "duration": 0.0065,
      "velocity": 101,
      "chip": "ym2612"
    },
    {
      "channel": 1,
      "note": 62,
      "start": 0.4235,
      "duration": 0.0065,
      "velocity": 101,
      "chip": "ym2612"
    },
    {
      "channel": 2,
      "note": 75,
      "start": 0.4235,
      "duration": 0.0016,
      "velocity": 100,
      "chip": "ym2612"
    },
    {
      "channel": 3,
      "note": 58,
      "start": 0.4269,
      "duration": 0.003,
      "velocity": 113,
      "chip": "ym2612"
    },
    {
      "channel": 4,
      "note": 125,
      "start": 0.4269,
      "duration": 0.0014,
      "velocity": 127,
      "chip": "ym2612"
    },
    {
      "channel": 2,
      "note": 77,
      "start": 0.4271,
      "duration": 0.003,
      "velocity": 99,
      "chip": "ym2612"
    },
    {
      "channel": 0,
      "note": 65,
      "start": 0.4305,
      "duration": 0.0068,
      "velocity": 101,
      "chip": "ym2612"
    },
    {
      "channel": 3,
      "note": 46,
      "start": 0.4305,
      "duration": 0.0013,
      "velocity": 113,
      "chip": "ym2612"
    },
    {
      "channel": 4,
      "note": 125,
      "start": 0.4305,
      "duration": 0.0003,
      "velocity": 127,
      "chip": "ym2612"
    },
    {
      "channel": 1,
      "note": 62,
      "start": 0.4306,
      "duration": 0.0068,
      "velocity": 101,
      "chip": "ym2612"
    },
    {
      "channel": 2,
      "note": 70,
      "start": 0.4306,
      "duration": 0.0101,
      "velocity": 100,
      "chip": "ym2612"
    },
    {
      "channel": 3,
      "note": 58,
      "start": 0.4332,
      "duration": 0.004,
      "velocity": 113,
      "chip": "ym2612"
    },
    {
      "channel": 4,
      "note": 125,
      "start": 0.4332,
      "duration": 0.0013,
      "velocity": 127,
      "chip": "ym2612"
    },
    {
      "channel": 3,
      "note": 58,
      "start": 0.4378,
      "duration": 0.0027,
      "velocity": 113,
      "chip": "ym2612"
    },
    {
      "channel": 4,
      "note": 125,
      "start": 0.4378,
      "duration": 0.0011,
      "velocity": 127,
      "chip": "ym2612"
    },
    {
      "channel": 0,
      "note": 65,
      "start": 0.4378,
      "duration": 0.0064,
      "velocity": 101,
      "chip": "ym2612"
    },
    {
      "channel": 1,
      "note": 62,
      "start": 0.4378,
      "duration": 0.0065,
      "velocity": 101,
      "chip": "ym2612"
    },
    {
      "channel": 3,
      "note": 46,
      "start": 0.4411,
      "duration": 0.0031,
      "velocity": 113,
      "chip": "ym2612"
    },
    {
      "channel": 4,
      "note": 125,
      "start": 0.4411,
      "duration": 0.0014,
      "velocity": 127,
      "chip": "ym2612"
    },
    {
      "channel": 2,
      "note": 77,
      "start": 0.4412,
      "duration": 0.0032,
      "velocity": 101,
      "chip": "ym2612"
    },
    {
      "channel": 0,
      "note": 63,
      "start": 0.4449,
      "duration": 0.0056,
      "velocity": 101,
      "chip": "ym2612"
    },
    {
      "channel": 3,
      "note": 58,
      "start": 0.4449,
      "duration": 0.0007,
      "velocity": 113,
      "chip": "ym2612"
    },
    {
      "channel": 4,
      "note": 125,
      "start": 0.4449,
      "duration": 0.0003,
      "velocity": 127,
      "chip": "ym2612"
    },
    {
      "channel": 1,
      "note": 60,
      "start": 0.4449,
      "duration": 0.0056,
      "velocity": 101,
      "chip": "ym2612"
    },
    {
      "channel": 2,
      "note": 75,
      "start": 0.4449,
      "duration": 0.0011,
      "velocity": 100,
      "chip": "ym2612"
    },
    {
      "channel": 3,
      "note": 46,
      "start": 0.4474,
      "duration": 0.003,
      "velocity": 113,
      "chip": "ym2612"
    },
    {
      "channel": 4,
      "note": 125,
      "start": 0.4474,
      "duration": 0.0014,
      "velocity": 127,
      "chip": "ym2612"
    },
    {
      "channel": 2,
      "note": 77,
      "start": 0.4476,
      "duration": 0.0031,
      "velocity": 100,
      "chip": "ym2612"
    },
    {
      "channel": 3,
      "note": 58,
      "start": 0.451,
      "duration": 0.0012,
      "velocity": 113,
      "chip": "ym2612"
    },
    {
      "channel": 0,
      "note": 65,
      "start": 0.4511,
      "duration": 0.0012,
      "velocity": 101,
      "chip": "ym2612"
    },
    {
      "channel": 1,
      "note": 62,
      "start": 0.4511,
      "duration": 0.0012,
      "velocity": 101,
      "chip": "ym2612"
    },
    {
      "channel": 4,
      "note": 125,
      "start": 0.4511,
      "duration": 0.0003,
      "velocity": 127,
      "chip": "ym2612"
    },
    {
      "channel": 2,
      "note": 70,
      "start": 0.4512,
      "duration": 0.0073,
      "velocity": 103,
      "chip": "ym2612"
    },
    {
      "channel": 0,
      "note": 65,
      "start": 0.4532,
      "duration": 0.0051,
      "velocity": 101,
      "chip": "ym2612"
    },
    {
      "channel": 3,
      "note": 58,
      "start": 0.4532,
      "duration": 0.001,
      "velocity": 113,
      "chip": "ym2612"
    },
    {
      "channel": 4,
      "note": 125,
      "start": 0.4532,
      "duration": 0.0002,
      "velocity": 127,
      "chip": "ym2612"
    },
    {
      "channel": 1,
      "note": 62,
      "start": 0.4533,
      "duration": 0.0051,
      "velocity": 101,
      "chip": "ym2612"
    },
    {
      "channel": 3,
      "note": 46,
      "start": 0.4546,
      "duration": 0.0036,
      "velocity": 113,
      "chip": "ym2612"
    },
    {
      "channel": 4,
      "note": 125,
      "start": 0.4546,
      "duration": 0.0016,
      "velocity": 127,
      "chip": "ym2612"
    },
    {
      "channel": 0,
      "note": 65,
      "start": 0.459,
      "duration": 0.0049,
      "velocity": 101,
      "chip": "ym2612"
    },
    {
      "channel": 3,
      "note": 58,
      "start": 0.459,
      "duration": 0.0013,
      "velocity": 113,
      "chip": "ym2612"
    },
    {
      "channel": 4,
      "note": 125,
      "start": 0.459,
      "duration": 0.0003,
      "velocity": 127,
      "chip": "ym2612"
    },
    {
      "channel": 1,
      "note": 62,
      "start": 0.459,
      "duration": 0.0049,
      "velocity": 101,
      "chip": "ym2612"
    },
    {
      "channel": 2,
      "note": 70,
      "start": 0.459,
      "duration": 0.0014,
      "velocity": 103,
      "chip": "ym2612"
    },
    {
      "channel": 3,
      "note": 58,
      "start": 0.4608,
      "duration": 0.003,
      "velocity": 113,
      "chip": "ym2612"
    },
    {
      "channel": 4,
      "note": 125,
      "start": 0.4609,
      "duration": 0.0013,
      "velocity": 127,
      "chip": "ym2612"
    },
    {
      "channel": 2,
      "note": 75,
      "start": 0.461,
      "duration": 0.0031,
      "velocity": 98,
      "chip": "ym2612"
    },
    {
      "channel": 0,
      "note": 65,
      "start": 0.4662,
      "duration": 0.001,
      "velocity": 101,
      "chip": "ym2612"
    },
    {
      "channel": 3,
      "note": 46,
      "start": 0.4662,
      "duration": 0.001,
      "velocity": 113,
      "chip": "ym2612"
    },
    {
      "channel": 4,
      "note": 125,
      "start": 0.4662,
      "duration": 0.0003,
      "velocity": 127,
      "chip": "ym2612"
    },
    {
      "channel": 1,
      "note": 62,
      "start": 0.4663,
      "duration": 0.001,
      "velocity": 101,
      "chip": "ym2612"
    },
    {
      "channel": 2,
      "note": 77,
      "start": 0.4663,
      "duration": 0.0011,
      "velocity": 99,
      "chip": "ym2612"
    },
    {
      "channel": 3,
      "note": 58,
      "start": 0.4678,
      "duration": 0.0007,
      "velocity": 113,
      "chip": "ym2612"
    },
    {
      "channel": 0,
      "note": 62,
      "start": 0.4678,
      "duration": 0.001,
      "velocity": 101,
      "chip": "ym2612"
    },
    {
      "channel": 1,
      "note": 65,
      "start": 0.4678,
      "duration": 0.0011,
      "velocity": 101,
      "chip": "ym2612"
    },
    {
      "channel": 4,
      "note": 125,
      "start": 0.4678,
      "duration": 0.0003,
      "velocity": 127,
      "chip": "ym2612"
    },
    {
      "channel": 2,
      "note": 75,
      "start": 0.4679,
      "duration": 0.0011,
      "velocity": 100,
      "chip": "ym2612"
    },
    {
      "channel": 3,
      "note": 47,
      "start": 0.4694,
      "duration": 0.001,
      "velocity": 113,
      "chip": "ym2612"
    },
    {
      "channel": 4,
      "note": 125,
      "start": 0.4694,
      "duration": 0.0003,
      "velocity": 127,
      "chip": "ym2612"
    },
    {
      "channel": 0,
      "note": 62,
      "start": 0.4695,
      "duration": 0.001,
      "velocity": 101,
      "chip": "ym2612"
    },
    {
      "channel": 1,
      "note": 59,
      "start": 0.4695,
      "duration": 0.0011,
      "velocity": 101,
      "chip": "ym2612"
    },
    {
      "channel": 2,
      "note": 77,
      "start": 0.4695,
      "duration": 0.0012,
      "velocity": 100,
      "chip": "ym2612"
    },
    {
      "channel": 3,
      "note": 59,
      "start": 0.4711,
      "duration": 0.0015,
      "velocity": 113,
      "chip": "ym2612"
    },
    {
      "channel": 4,
      "note": 125,
      "start": 0.4711,
      "duration": 0.0003,
      "velocity": 127,
      "chip": "ym2612"
    },
    {
      "channel": 0,
      "note": 62,
      "start": 0.4711,
      "duration": 0.0059,
      "velocity": 101,
      "chip": "ym2612"
    },
    {
      "channel": 1,
      "note": 59,
      "start": 0.4711,
      "duration": 0.006,
      "velocity": 101,
      "chip": "ym2612"
    },
    {
      "channel": 2,
      "note": 75,
      "start": 0.4711,
      "duration": 0.0015,
      "velocity": 101,
      "chip": "ym2612"
    },
    {
      "channel": 3,
      "note": 59,
      "start": 0.474,
      "duration": 0.003,
      "velocity": 113,
      "chip": "ym2612"
    },
    {
      "channel": 4,
      "note": 125,
      "start": 0.474,
      "duration": 0.0014,
      "velocity": 127,
      "chip": "ym2612"
    },
    {
      "channel": 2,
      "note": 77,
      "start": 0.4741,
      "duration": 0.0031,
      "velocity": 100,
      "chip": "ym2612"
    },
    {
      "channel": 3,
      "note": 47,
      "start": 0.4776,
      "duration": 0.001,
      "velocity": 113,
      "chip": "ym2612"
    },
    {
      "channel": 0,
      "note": 62,
      "start": 0.4776,
      "duration": 0.0011,
      "velocity": 101,
      "chip": "ym2612"
    },
    {
      "channel": 1,
      "note": 59,
      "start": 0.4776,
      "duration": 0.0011,
      "velocity": 101,
      "chip": "ym2612"
    },
    {
      "channel": 4,
      "note": 125,
      "start": 0.4776,
      "duration": 0.0003,
      "velocity": 127,
      "chip": "ym2612"
    },
    {
      "channel": 2,
      "note": 71,
      "start": 0.4777,
      "duration": 0.006,
      "velocity": 102,
      "chip": "ym2612"
    },
    {
      "channel": 3,
      "note": 59,
      "start": 0.4791,
      "duration": 0.001,
      "velocity": 113,
      "chip": "ym2612"
    },
    {
      "channel": 0,
      "note": 65,
      "start": 0.4792,
      "duration": 0.001,
      "velocity": 101,
      "chip": "ym2612"
    },
    {
      "channel": 1,
      "note": 62,
      "start": 0.4792,
      "duration": 0.0011,
      "velocity": 101,
      "chip": "ym2612"
    },
    {
      "channel": 4,
      "note": 125,
      "start": 0.4792,
      "duration": 0.0002,
      "velocity": 127,
      "chip": "ym2612"
    },
    {
      "channel": 0,
      "note": 65,
      "start": 0.4807,
      "duration": 0.0065,
      "velocity": 101,
      "chip": "ym2612"
    },
    {
      "channel": 3,
      "note": 59,
      "start": 0.4807,
      "duration": 0.0028,
      "velocity": 113,
      "chip": "ym2612"
    },
    {
      "channel": 4,
      "note": 125,
      "start": 0.4807,
      "duration": 0.0012,
      "velocity": 127,
      "chip": "ym2612"
    },
    {
      "channel": 1,
      "note": 62,
      "start": 0.4808,
      "duration": 0.0065,
      "velocity": 101,
      "chip": "ym2612"
    },
    {
      "channel": 3,
      "note": 47,
      "start": 0.4841,
      "duration": 0.003,
      "velocity": 113,
      "chip": "ym2612"
    },
    {
      "channel": 4,
      "note": 125,
      "start": 0.4841,
      "duration": 0.0014,
      "velocity": 127,
      "chip": "ym2612"
    },
    {
      "channel": 2,
      "note": 77,
      "start": 0.4842,
      "duration": 0.0031,
      "velocity": 101,
      "chip": "ym2612"
    },
    {
      "channel": 3,
      "note": 59,
      "start": 0.4878,
      "duration": 0.0007,
      "velocity": 113,
      "chip": "ym2612"
    },
    {
      "channel": 4,
      "note": 125,
      "start": 0.4878,
      "duration": 0.0003,
      "velocity": 127,
      "chip": "ym2612"
    },
    {
      "channel": 0,
      "note": 68,
      "start": 0.4878,
      "duration": 0.0046,
      "velocity": 101,
      "chip": "ym2612"
    },
    {
      "channel": 1,
      "note": 65,
      "start": 0.4878,
      "duration": 0.0047,
      "velocity": 101,
      "chip": "ym2612"
    },
    {
      "channel": 2,
      "note": 75,
      "start": 0.4878,
      "duration": 0.0012,
      "velocity": 100,
      "chip": "ym2612"
    },
    {
      "channel": 3,
      "note": 47,
      "start": 0.4894,
      "duration": 0.003,
      "velocity": 113,
      "chip": "ym2612"
    },
    {
      "channel": 4,
      "note": 125,
      "start": 0.4894,
      "duration": 0.0014,
      "velocity": 127,
      "chip": "ym2612"
    },
    {
      "channel": 2,
      "note": 77,
      "start": 0.4895,
      "duration": 0.003,
      "velocity": 100,
      "chip": "ym2612"
    },
    {
      "channel": 0,
      "note": 68,
      "start": 0.493,
      "duration": 0.0047,
      "velocity": 101,
      "chip": "ym2612"
    },
    {
      "channel": 3,
      "note": 59,
      "start": 0.493,
      "duration": 0.0013,
      "velocity": 113,
      "chip": "ym2612"
    },
    {
      "channel": 4,
      "note": 125,
      "start": 0.493,
      "duration": 0.0003,
      "velocity": 127,
      "chip": "ym2612"
    },
    {
      "channel": 1,
      "note": 65,
      "start": 0.4931,
      "duration": 0.0047,
      "velocity": 101,
      "chip": "ym2612"
    },
    {
      "channel": 2,
      "note": 75,
      "start": 0.4931,
      "duration": 0.0048,
      "velocity": 102,
      "chip": "ym2612"
    },
    {
      "channel": 3,
      "note": 59,
      "start": 0.4947,
      "duration": 0.003,
      "velocity": 113,
      "chip": "ym2612"
    },
    {
      "channel": 4,
      "note": 125,
      "start": 0.4947,
      "duration": 0.0013,
      "velocity": 127,
      "chip": "ym2612"
    },
    {
      "channel": 0,
      "note": 68,
      "start": 0.4983,
      "duration": 0.001,
      "velocity": 101,
      "chip": "ym2612"
    },
    {
      "channel": 3,
      "note": 47,
      "start": 0.4983,
      "duration": 0.001,
      "velocity": 113,
      "chip": "ym2612"
    },
    {
      "channel": 4,
      "note": 125,
      "start": 0.4983,
      "duration": 0.0003,
      "velocity": 127,
      "chip": "ym2612"
    },
    {
      "channel": 1,
      "note": 65,
      "start": 0.4983,
      "duration": 0.001,
      "velocity": 101,
      "chip": "ym2612"
    },
    {
      "channel": 2,
      "note": 71,
      "start": 0.4983,
      "duration": 0.0025,
      "velocity": 102,
      "chip": "ym2612"
    },
    {
      "channel": 3,
      "note": 59,
      "start": 0.4997,
      "duration": 0.001,
      "velocity": 113,
      "chip": "ym2612"
    },
    {
      "channel": 0,
      "note": 68,
      "start": 0.4998,
      "duration": 0.0046,
      "velocity": 101,
      "chip": "ym2612"
    },
    {
      "channel": 1,
      "note": 65,
      "start": 0.4998,
      "duration": 0.0047,
      "velocity": 101,
      "chip": "ym2612"
    },
    {
      "channel": 4,
      "note": 125,
      "start": 0.4998,
      "duration": 0.0002,
      "velocity": 127,
      "chip": "ym2612"
    },
    {
      "channel": 3,
      "note": 59,
      "start": 0.5013,
      "duration": 0.003,
      "velocity": 113,
      "chip": "ym2612"
    },
    {
      "channel": 4,
      "note": 125,
      "start": 0.5013,
      "duration": 0.0014,
      "velocity": 127,
      "chip": "ym2612"
    },
    {
      "channel": 2,
      "note": 80,
      "start": 0.5014,
      "duration": 0.0031,
      "velocity": 101,
      "chip": "ym2612"
    },
    {
      "channel": 3,
      "note": 47,
      "start": 0.505,
      "duration": 0.001,
      "velocity": 113,
      "chip": "ym2612"
    },
    {
      "channel": 0,
      "note": 65,
      "start": 0.505,
      "duration": 0.0053,
      "velocity": 101,
      "chip": "ym2612"
    },
    {
      "channel": 1,
      "note": 62,
      "start": 0.505,
      "duration": 0.0059,
      "velocity": 101,
      "chip": "ym2612"
    },
    {
      "channel": 4,
      "note": 125,
      "start": 0.505,
      "duration": 0.0002,
      "velocity": 127,
      "chip": "ym2612"
    },
    {
      "channel": 2,
      "note": 79,
      "start": 0.5051,
      "duration": 0.001,
      "velocity": 100,
      "chip": "ym2612"
    },
    {
      "channel": 3,
      "note": 59,
      "start": 0.5065,
      "duration": 0.0027,
      "velocity": 113,
      "chip": "ym2612"
    },
    {
      "channel": 4,
      "note": 125,
      "start": 0.5065,
      "duration": 0.0014,
      "velocity": 127,
      "chip": "ym2612"
    },
    {
      "channel": 2,
      "note": 75,
      "start": 0.5067,
      "duration": 0.0049,
      "velocity": 99,
      "chip": "ym2612"
    },
    {
      "channel": 4,
      "note": 125,
      "start": 0.5125,
      "duration": 0.0007,
      "velocity": 127,
      "chip": "ym2612"
    },
    {
      "channel": 2,
      "note": 67,
      "start": 0.5126,
      "duration": 0.0012,
      "velocity": 100,
      "chip": "ym2612"
    },
    {
      "channel": 0,
      "note": 63,
      "start": 0.5129,
      "duration": 0.0007,
      "velocity": 100,
      "chip": "ym2612"
    },
    {
      "channel": 1,
      "note": 72,
      "start": 0.5129,
      "duration": 0.0008,
      "velocity": 101,
      "chip": "ym2612"
    },
    {
      "channel": 3,
      "note": 36,
      "start": 0.5129,
      "duration": 0.0175,
      "velocity": 127,
      "chip": "ym2612"
    },
    {
      "channel": 0,
      "note": 67,
      "start": 0.5142,
      "duration": 0.0039,
      "velocity": 100,
      "chip": "ym2612"
    },
    {
      "channel": 1,
      "note": 63,
      "start": 0.5142,
      "duration": 0.004,
      "velocity": 98,
      "chip": "ym2612"
    },
    {
      "channel": 4,
      "note": 125,
      "start": 0.5142,
      "duration": 0.0005,
      "velocity": 127,
      "chip": "ym2612"
    },
    {
      "channel": 2,
      "note": 72,
      "start": 0.5142,
      "duration": 0.0041,
      "velocity": 100,
      "chip": "ym2612"
    },
    {
      "channel": 4,
      "note": 125,
      "start": 0.5171,
      "duration": 0.0003,
      "velocity": 127,
      "chip": "ym2612"
    },
    {
      "channel": 0,
      "note": 72,
      "start": 0.5187,
      "duration": 0.005,
      "velocity": 101,
      "chip": "ym2612"
    },
    {
      "channel": 1,
      "note": 67,
      "start": 0.5187,
      "duration": 0.0051,
      "velocity": 100,
      "chip": "ym2612"
    },
    {
      "channel": 4,
      "note": 125,
      "start": 0.5187,
      "duration": 0.0005,
      "velocity": 127,
      "chip": "ym2612"
    },
    {
      "channel": 2,
      "note": 63,
      "start": 0.5187,
      "duration": 0.0052,
      "velocity": 99,
      "chip": "ym2612"
    },
    {
      "channel": 4,
      "note": 125,
      "start": 0.522,
      "duration": 0.0004,
      "velocity": 127,
      "chip": "ym2612"
    },
    {
      "channel": 4,
      "note": 125,
      "start": 0.5252,
      "duration": 0.0005,
      "velocity": 127,
      "chip": "ym2612"
    },
    {
      "channel": 0,
      "note": 67,
      "start": 0.5252,
      "duration": 0.0032,
      "velocity": 100,
      "chip": "ym2612"
    },
    {
      "channel": 1,
      "note": 72,
      "start": 0.5252,
      "duration": 0.0034,
      "velocity": 101,
      "chip": "ym2612"
    },
    {
      "channel": 2,
      "note": 63,
      "start": 0.5252,
      "duration": 0.0035,
      "velocity": 100,
      "chip": "ym2612"
    },
    {
      "channel": 4,
      "note": 125,
      "start": 0.5274,
      "duration": 0.0005,
      "velocity": 127,
      "chip": "ym2612"
    },
    {
      "channel": 0,
      "note": 67,
      "start": 0.5291,
      "duration": 0.0013,
      "velocity": 95,
      "chip": "ym2612"
    },
    {
      "channel": 1,
      "note": 72,
      "start": 0.5291,
      "duration": 0.0014,
      "velocity": 95,
      "chip": "ym2612"
    },
    {
      "channel": 4,
      "note": 125,
      "start": 0.5291,
      "duration": 0.0005,
      "velocity": 127,
      "chip": "ym2612"
    },
    {
      "channel": 2,
      "note": 63,
      "start": 0.5292,
      "duration": 0.0015,
      "velocity": 95,
      "chip": "ym2612"
    },
    {
      "channel": 3,
      "note": 41,
      "start": 0.5312,
      "duration": 0.0076,
      "velocity": 127,
      "chip": "ym2612"
    },
    {
      "channel": 4,
      "note": 125,
      "start": 0.5312,
      "duration": 0.0005,
      "velocity": 127,
      "chip": "ym2612"
    },
    {
      "channel": 0,
      "note": 69,
      "start": 0.5312,
      "duration": 0.0015,
      "velocity": 100,
      "chip": "ym2612"
    },
    {
      "channel": 1,
      "note": 65,
      "start": 0.5312,
      "duration": 0.0016,
      "velocity": 101,
      "chip": "ym2612"
    },
    {
      "channel": 2,
      "note": 72,
      "start": 0.5312,
      "duration": 0.0017,
      "velocity": 102,
      "chip": "ym2612"
    },
    {
      "channel": 0,
      "note": 69,
      "start": 0.5333,
      "duration": 0.0034,
      "velocity": 99,
      "chip": "ym2612"
    },
    {
      "channel": 4,
      "note": 125,
      "start": 0.5333,
      "duration": 0.0005,
      "velocity": 127,
      "chip": "ym2612"
    },
    {
      "channel": 1,
      "note": 65,
      "start": 0.5334,
      "duration": 0.0035,
      "velocity": 98,
      "chip": "ym2612"
    },
    {
      "channel": 2,
      "note": 72,
      "start": 0.5334,
      "duration": 0.0036,
      "velocity": 100,
      "chip": "ym2612"
    },
    {
      "channel": 4,
      "note": 125,
      "start": 0.5357,
      "duration": 0.0003,
      "velocity": 127,
      "chip": "ym2612"
    },
    {
      "channel": 0,
      "note": 69,
      "start": 0.5374,
      "duration": 0.0013,
      "velocity": 97,
      "chip": "ym2612"
    },
    {
      "channel": 4,
      "note": 125,
      "start": 0.5374,
      "duration": 0.0005,
      "velocity": 127,
      "chip": "ym2612"
    },
    {
      "channel": 1,
      "note": 65,
      "start": 0.5374,
      "duration": 0.0014,
      "velocity": 95,
      "chip": "ym2612"
    },
    {
      "channel": 2,
      "note": 72,
      "start": 0.5374,
      "duration": 0.0015,
      "velocity": 97,
      "chip": "ym2612"
    },
    {
      "channel": 0,
      "note": 74,
      "start": 0.5412,
      "duration": 0.0018,
      "velocity": 101,
      "chip": "ym2612"
    },
    {
      "channel": 3,
      "note": 43,
      "start": 0.5412,
      "duration": 0.0076,
      "velocity": 127,
      "chip": "ym2612"
    },
    {
      "channel": 4,
      "note": 125,
      "start": 0.5412,
      "duration": 0.0005,
      "velocity": 127,
      "chip": "ym2612"
    },
    {
      "channel": 1,
      "note": 65,
      "start": 0.5413,
      "duration": 0.0018,
      "velocity": 100,
      "chip": "ym2612"
    },
    {
      "channel": 2,
      "note": 70,
      "start": 0.5413,
      "duration": 0.002,
      "velocity": 100,
      "chip": "ym2612"
    },
    {
      "channel": 0,
      "note": 65,
      "start": 0.5437,
      "duration": 0.0032,
      "velocity": 98,
      "chip": "ym2612"
    },
    {
      "channel": 4,
      "note": 125,
      "start": 0.5437,
      "duration": 0.0005,
      "velocity": 127,
      "chip": "ym2612"
    },
    {
      "channel": 1,
      "note": 74,
      "start": 0.5437,
      "duration": 0.0033,
      "velocity": 100,
      "chip": "ym2612"
    },
    {
      "channel": 2,
      "note": 70,
      "start": 0.5437,
      "duration": 0.0034,
      "velocity": 100,
      "chip": "ym2612"
    },
    {
      "channel": 4,
      "note": 125,
      "start": 0.546,
      "duration": 0.0003,
      "velocity": 127,
      "chip": "ym2612"
    },
    {
      "channel": 0,
      "note": 70,
      "start": 0.5476,
      "duration": 0.0013,
      "velocity": 98,
      "chip": "ym2612"
    },
    {
      "channel": 4,
      "note": 125,
      "start": 0.5476,
      "duration": 0.0005,
      "velocity": 127,
      "chip": "ym2612"
    },
    {
      "channel": 1,
      "note": 65,
      "start": 0.5476,
      "duration": 0.0014,
      "velocity": 97,
      "chip": "ym2612"
    },
    {
      "channel": 2,
      "note": 74,
      "start": 0.5476,
      "duration": 0.0015,
      "velocity": 98,
      "chip": "ym2612"
    },
    {
      "channel": 0,
      "note": 67,
      "start": 0.5497,
      "duration": 0.0012,
      "velocity": 100,
      "chip": "ym2612"
    },
    {
      "channel": 3,
      "note": 44,
      "start": 0.5497,
      "duration": 0.0138,
      "velocity": 127,
      "chip": "ym2612"
    },
    {
      "channel": 4,
      "note": 125,
      "start": 0.5497,
      "duration": 0.0006,
      "velocity": 127,
      "chip": "ym2612"
    },
    {
      "channel": 1,
      "note": 72,
      "start": 0.5497,
      "duration": 0.0013,
      "velocity": 100,
      "chip": "ym2612"
    },
    {
      "channel": 2,
      "note": 75,
      "start": 0.5497,
      "duration": 0.0014,
      "velocity": 103,
      "chip": "ym2612"
    },
    {
      "channel": 0,
      "note": 67,
      "start": 0.5515,
      "duration": 0.0028,
      "velocity": 98,
      "chip": "ym2612"
    },
    {
      "channel": 4,
      "note": 125,
      "start": 0.5515,
      "duration": 0.0005,
      "velocity": 127,
      "chip": "ym2612"
    },
    {
      "channel": 1,
      "note": 75,
      "start": 0.5516,
      "duration": 0.0029,
      "velocity": 101,
      "chip": "ym2612"
    },
    {
      "channel": 2,
      "note": 72,
      "start": 0.5516,
      "duration": 0.003,
      "velocity": 98,
      "chip": "ym2612"
    },
    {
      "channel": 4,
      "note": 125,
      "start": 0.5534,
      "duration": 0.0003,
      "velocity": 127,
      "chip": "ym2612"
    },
    {
      "channel": 0,
      "note": 75,
      "start": 0.555,
      "duration": 0.0032,
      "velocity": 103,
      "chip": "ym2612"
    },
    {
      "channel": 4,
      "note": 125,
      "start": 0.555,
      "duration": 0.0005,
      "velocity": 127,
      "chip": "ym2612"
    },
    {
      "channel": 1,
      "note": 67,
      "start": 0.555,
      "duration": 0.0033,
      "velocity": 99,
      "chip": "ym2612"
    },
    {
      "channel": 2,
      "note": 72,
      "start": 0.555,
      "duration": 0.0034,
      "velocity": 101,
      "chip": "ym2612"
    },
    {
      "channel": 4,
      "note": 125,
      "start": 0.5564,
      "duration": 0.0005,
      "velocity": 127,
      "chip": "ym2612"
    },
    {
      "channel": 4,
      "note": 125,
      "start": 0.5589,
      "duration": 0.0004,
      "velocity": 127,
      "chip": "ym2612"
    },
    {
      "channel": 0,
      "note": 72,
      "start": 0.559,
      "duration": 0.0028,
      "velocity": 100,
      "chip": "ym2612"
    },
    {
      "channel": 1,
      "note": 75,
      "start": 0.559,
      "duration": 0.003,
      "velocity": 102,
      "chip": "ym2612"
    },
    {
      "channel": 2,
      "note": 67,
      "start": 0.559,
      "duration": 0.0031,
      "velocity": 99,
      "chip": "ym2612"
    },
    {
      "channel": 4,
      "note": 125,
      "start": 0.5606,
      "duration": 0.0005,
      "velocity": 127,
      "chip": "ym2612"
    },
    {
      "channel": 0,
      "note": 72,
      "start": 0.5624,
      "duration": 0.0011,
      "velocity": 95,
      "chip": "ym2612"
    },
    {
      "channel": 4,
      "note": 125,
      "start": 0.5624,
      "duration": 0.0004,
      "velocity": 127,
      "chip": "ym2612"
    },
    {
      "channel": 1,
      "note": 75,
      "start": 0.5625,
      "duration": 0.0012,
      "velocity": 95,
      "chip": "ym2612"
    },
    {
      "channel": 2,
      "note": 67,
      "start": 0.5625,
      "duration": 0.0013,
      "velocity": 93,
      "chip": "ym2612"
    },
    {
      "channel": 3,
      "note": 46,
      "start": 0.5643,
      "duration": 0.0088,
      "velocity": 127,
      "chip": "ym2612"
    },
    {
      "channel": 4,
      "note": 125,
      "start": 0.5643,
      "duration": 0.0005,
      "velocity": 127,
      "chip": "ym2612"
    },
    {
      "channel": 0,
      "note": 70,
      "start": 0.5644,
      "duration": 0.0029,
      "velocity": 101,
      "chip": "ym2612"
    },
    {
      "channel": 1,
      "note": 74,
      "start": 0.5644,
      "duration": 0.003,
      "velocity": 101,
      "chip": "ym2612"
    },
    {
      "channel": 2,
      "note": 65,
      "start": 0.5644,
      "duration": 0.0032,
      "velocity": 100,
      "chip": "ym2612"
    },
    {
      "channel": 4,
      "note": 125,
      "start": 0.568,
      "duration": 0.0004,
      "velocity": 127,
      "chip": "ym2612"
    },
    {
      "channel": 0,
      "note": 74,
      "start": 0.568,
      "duration": 0.0032,
      "velocity": 100,
      "chip": "ym2612"
    },
    {
      "channel": 1,
      "note": 65,
      "start": 0.568,
      "duration": 0.0034,
      "velocity": 100,
      "chip": "ym2612"
    },
    {
      "channel": 2,
      "note": 70,
      "start": 0.568,
      "duration": 0.0035,
      "velocity": 101,
      "chip": "ym2612"
    },
    {
      "channel": 4,
      "note": 125,
      "start": 0.5702,
      "duration": 0.0004,
      "velocity": 127,
      "chip": "ym2612"
    },
    {
      "channel": 0,
      "note": 70,
      "start": 0.5719,
      "duration": 0.0013,
      "velocity": 95,
      "chip": "ym2612"
    },
    {
      "channel": 1,
      "note": 65,
      "start": 0.5719,
      "duration": 0.0014,
      "velocity": 93,
      "chip": "ym2612"
    },
    {
      "channel": 4,
      "note": 125,
      "start": 0.5719,
      "duration": 0.0004,
      "velocity": 127,
      "chip": "ym2612"
    },
    {
      "channel": 2,
      "note": 74,
      "start": 0.572,
      "duration": 0.0015,
      "velocity": 96,
      "chip": "ym2612"
    },
    {
      "channel": 3,
      "note": 48,
      "start": 0.5756,
      "duration": 0.0079,
      "velocity": 127,
      "chip": "ym2612"
    },
    {
      "channel": 4,
      "note": 125,
      "start": 0.5756,
      "duration": 0.0005,
      "velocity": 127,
      "chip": "ym2612"
    },
    {
      "channel": 0,
      "note": 72,
      "start": 0.5756,
      "duration": 0.0017,
      "velocity": 102,
      "chip": "ym2612"
    },
    {
      "channel": 1,
      "note": 69,
      "start": 0.5756,
      "duration": 0.0018,
      "velocity": 101,
      "chip": "ym2612"
    },
    {
      "channel": 2,
      "note": 65,
      "start": 0.5756,
      "duration": 0.0019,
      "velocity": 99,
      "chip": "ym2612"
    },
    {
      "channel": 0,
      "note": 69,
      "start": 0.578,
      "duration": 0.0038,
      "velocity": 100,
      "chip": "ym2612"
    },
    {
      "channel": 4,
      "note": 125,
      "start": 0.578,
      "duration": 0.0005,
      "velocity": 127,
      "chip": "ym2612"
    },
    {
      "channel": 1,
      "note": 72,
      "start": 0.578,
      "duration": 0.0039,
      "velocity": 101,
      "chip": "ym2612"
    },
    {
      "channel": 2,
      "note": 65,
      "start": 0.578,
      "duration": 0.004,
      "velocity": 99,
      "chip": "ym2612"
    },
    {
      "channel": 4,
      "note": 125,
      "start": 0.5806,
      "duration": 0.0003,
      "velocity": 127,
      "chip": "ym2612"
    },
    {
      "channel": 0,
      "note": 72,
      "start": 0.5824,
      "duration": 0.0023,
      "velocity": 103,
      "chip": "ym2612"
    },
    {
      "channel": 1,
      "note": 69,
      "start": 0.5824,
      "duration": 0.0024,
      "velocity": 100,
      "chip": "ym2612"
    },
    {
      "channel": 4,
      "note": 125,
      "start": 0.5824,
      "duration": 0.0004,
      "velocity": 127,
      "chip": "ym2612"
    },
    {
      "channel": 2,
      "note": 65,
      "start": 0.5825,
      "duration": 0.0024,
      "velocity": 99,
      "chip": "ym2612"
    },
    {
      "channel": 4,
      "note": 48,
      "start": 0.5857,
      "duration": 0.0777,
      "velocity": 101,
      "chip": "ym2612"
    },
    {
      "channel": 2,
      "note": 60,
      "start": 0.5863,
      "duration": 37.8644,
      "velocity": 101,
      "chip": "ym2612"
    },
    {
      "channel": 4,
      "note": 60,
      "start": 0.6672,
      "duration": 0.0086,
      "velocity": 103,
      "chip": "ym2612"
    },
    {
      "channel": 0,
      "note": 67,
      "start": 0.6719,
      "duration": 0.0084,
      "velocity": 100,
      "chip": "ym2612"
    },
    {
      "channel": 4,
      "note": 72,
      "start": 0.6763,
      "duration": 0.01,
      "velocity": 96,
      "chip": "ym2612"
    },
    {
      "channel": 0,
      "note": 79,
      "start": 0.6807,
      "duration": 0.01,
      "velocity": 98,
      "chip": "ym2612"
    },
    {
      "channel": 4,
      "note": 72,
      "start": 0.6868,
      "duration": 0.0088,
      "velocity": 98,
      "chip": "ym2612"
    },
    {
      "channel": 0,
      "note": 67,
      "start": 0.6913,
      "duration": 0.0088,
      "velocity": 98,
      "chip": "ym2612"
    },
    {
      "channel": 4,
      "note": 60,
      "start": 0.696,
      "duration": 0.0082,
      "velocity": 100,
      "chip": "ym2612"
    },
    {
      "channel": 0,
      "note": 72,
      "start": 0.7006,
      "duration": 37.7501,
      "velocity": 100,
      "chip": "ym2612"
    }
  ]
}