{
  "track_name": "12 - Strange Factor",
  "duration_sec": 127.969,
  "sample_rate": 44100,
  "note_count": 934,
  "unique_pitches": 59,
  "pitch_range": 63,
  "avg_note_duration": 0.6778,
  "reconstruction_stats": {
    "notes_reconstructed": 934,
    "keyon_events": 934,
    "keyoff_events": 929,
    "orphan_keyons": 5,
    "unique_pitches": 59,
    "pitch_range": 63,
    "avg_duration_sec": 0.6778
  },
  "metadata": {
    "source": "P\\Pac-Man 2 - The New Adventures\\12 - Strange Factor.vgz"
  },
  "notes": [
    {
      "channel": 0,
      "note": 45,
      "start": 0.0,
      "duration": 2.3201,
      "velocity": 74,
      "chip": "ym2612"
    },
    {
      "channel": 1,
      "note": 59,
      "start": 0.0,
      "duration": 2.6535,
      "velocity": 100,
      "chip": "ym2612"
    },
    {
      "channel": 2,
      "note": 37,
      "start": 0.0034,
      "duration": 2.6551,
      "velocity": 116,
      "chip": "ym2612"
    },
    {
      "channel": 3,
      "note": 50,
      "start": 0.0084,
      "duration": 2.6552,
      "velocity": 100,
      "chip": "ym2612"
    },
    {
      "channel": 4,
      "note": 43,
      "start": 0.0276,
      "duration": 2.3293,
      "velocity": 74,
      "chip": "ym2612"
    },
    {
      "channel": 0,
      "note": 47,
      "start": 2.3201,
      "duration": 0.1663,
      "velocity": 74,
      "chip": "ym2612"
    },
    {
      "channel": 4,
      "note": 49,
      "start": 2.3569,
      "duration": 0.1667,
      "velocity": 74,
      "chip": "ym2612"
    },
    {
      "channel": 0,
      "note": 46,
      "start": 2.4864,
      "duration": 0.1668,
      "velocity": 74,
      "chip": "ym2612"
    },
    {
      "channel": 4,
      "note": 52,
      "start": 2.5237,
      "duration": 0.1667,
      "velocity": 74,
      "chip": "ym2612"
    },
    {
      "channel": 0,
      "note": 48,
      "start": 2.6532,
      "duration": 0.9994,
      "velocity": 74,
      "chip": "ym2612"
    },
    {
      "channel": 1,
      "note": 58,
      "start": 2.6583,
      "duration": 0.6621,
      "velocity": 100,
      "chip": "ym2612"
    },
    {
      "channel": 2,
      "note": 36,
      "start": 2.6632,
      "duration": 1.329,
      "velocity": 116,
      "chip": "ym2612"
    },
    {
      "channel": 3,
      "note": 61,
      "start": 2.6698,
      "duration": 1.3274,
      "velocity": 100,
      "chip": "ym2612"
    },
    {
      "channel": 4,
      "note": 53,
      "start": 2.6903,
      "duration": 0.9994,
      "velocity": 74,
      "chip": "ym2612"
    },
    {
      "channel": 1,
      "note": 42,
      "start": 3.325,
      "duration": 0.6623,
      "velocity": 100,
      "chip": "ym2612"
    },
    {
      "channel": 0,
      "note": 73,
      "start": 3.6572,
      "duration": 0.0792,
      "velocity": 100,
      "chip": "ym2612"
    },
    {
      "channel": 4,
      "note": 55,
      "start": 3.6943,
      "duration": 0.0793,
      "velocity": 100,
      "chip": "ym2612"
    },
    {
      "channel": 0,
      "note": 77,
      "start": 3.7364,
      "duration": 0.0833,
      "velocity": 100,
      "chip": "ym2612"
    },
    {
      "channel": 4,
      "note": 54,
      "start": 3.7737,
      "duration": 0.0833,
      "velocity": 100,
      "chip": "ym2612"
    },
    {
      "channel": 0,
      "note": 84,
      "start": 3.8198,
      "duration": 0.1671,
      "velocity": 100,
      "chip": "ym2612"
    },
    {
      "channel": 4,
      "note": 53,
      "start": 3.857,
      "duration": 0.1667,
      "velocity": 100,
      "chip": "ym2612"
    },
    {
      "channel": 0,
      "note": 89,
      "start": 3.9869,
      "duration": 1.3328,
      "velocity": 100,
      "chip": "ym2612"
    },
    {
      "channel": 1,
      "note": 34,
      "start": 3.9919,
      "duration": 1.3327,
      "velocity": 92,
      "chip": "ym2612"
    },
    {
      "channel": 2,
      "note": 63,
      "start": 3.9969,
      "duration": 1.3327,
      "velocity": 89,
      "chip": "ym2612"
    },
    {
      "channel": 3,
      "note": 67,
      "start": 4.0035,
      "duration": 1.3328,
      "velocity": 89,
      "chip": "ym2612"
    },
    {
      "channel": 4,
      "note": 49,
      "start": 4.0237,
      "duration": 1.3327,
      "velocity": 100,
      "chip": "ym2612"
    },
    {
      "channel": 0,
      "note": 48,
      "start": 5.3242,
      "duration": 2.3292,
      "velocity": 74,
      "chip": "ym2612"
    },
    {
      "channel": 1,
      "note": 61,
      "start": 5.3292,
      "duration": 2.6582,
      "velocity": 100,
      "chip": "ym2612"
    },
    {
      "channel": 2,
      "note": 40,
      "start": 5.336,
      "duration": 2.6525,
      "velocity": 116,
      "chip": "ym2612"
    },
    {
      "channel": 3,
      "note": 49,
      "start": 5.341,
      "duration": 2.6479,
      "velocity": 100,
      "chip": "ym2612"
    },
    {
      "channel": 4,
      "note": 46,
      "start": 5.361,
      "duration": 2.3293,
      "velocity": 74,
      "chip": "ym2612"
    },
    {
      "channel": 0,
      "note": 43,
      "start": 7.6534,
      "duration": 0.3331,
      "velocity": 74,
      "chip": "ym2612"
    },
    {
      "channel": 4,
      "note": 48,
      "start": 7.6902,
      "duration": 0.3334,
      "velocity": 74,
      "chip": "ym2612"
    },
    {
      "channel": 0,
      "note": 45,
      "start": 7.9865,
      "duration": 0.9994,
      "velocity": 74,
      "chip": "ym2612"
    },
    {
      "channel": 1,
      "note": 61,
      "start": 7.9874,
      "duration": 0.666,
      "velocity": 100,
      "chip": "ym2612"
    },
    {
      "channel": 2,
      "note": 36,
      "start": 7.9885,
      "duration": 1.3371,
      "velocity": 116,
      "chip": "ym2612"
    },
    {
      "channel": 3,
      "note": 49,
      "start": 7.9934,
      "duration": 1.3372,
      "velocity": 100,
      "chip": "ym2612"
    },
    {
      "channel": 4,
      "note": 43,
      "start": 8.0237,
      "duration": 0.9994,
      "velocity": 74,
      "chip": "ym2612"
    },
    {
      "channel": 1,
      "note": 42,
      "start": 8.658,
      "duration": 0.6625,
      "velocity": 100,
      "chip": "ym2612"
    },
    {
      "channel": 0,
      "note": 72,
      "start": 8.9905,
      "duration": 0.0793,
      "velocity": 100,
      "chip": "ym2612"
    },
    {
      "channel": 4,
      "note": 54,
      "start": 9.0276,
      "duration": 0.0793,
      "velocity": 100,
      "chip": "ym2612"
    },
    {
      "channel": 0,
      "note": 77,
      "start": 9.0698,
      "duration": 0.0833,
      "velocity": 100,
      "chip": "ym2612"
    },
    {
      "channel": 4,
      "note": 54,
      "start": 9.107,
      "duration": 0.0833,
      "velocity": 100,
      "chip": "ym2612"
    },
    {
      "channel": 0,
      "note": 84,
      "start": 9.1531,
      "duration": 0.1671,
      "velocity": 100,
      "chip": "ym2612"
    },
    {
      "channel": 4,
      "note": 53,
      "start": 9.1904,
      "duration": 0.1668,
      "velocity": 100,
      "chip": "ym2612"
    },
    {
      "channel": 0,
      "note": 89,
      "start": 9.3201,
      "duration": 1.3329,
      "velocity": 100,
      "chip": "ym2612"
    },
    {
      "channel": 1,
      "note": 34,
      "start": 9.3252,
      "duration": 1.3328,
      "velocity": 92,
      "chip": "ym2612"
    },
    {
      "channel": 2,
      "note": 63,
      "start": 9.3302,
      "duration": 1.3328,
      "velocity": 89,
      "chip": "ym2612"
    },
    {
      "channel": 3,
      "note": 67,
      "start": 9.3368,
      "duration": 1.3329,
      "velocity": 89,
      "chip": "ym2612"
    },
    {
      "channel": 4,
      "note": 49,
      "start": 9.3572,
      "duration": 1.3324,
      "velocity": 100,
      "chip": "ym2612"
    },
    {
      "channel": 0,
      "note": 52,
      "start": 10.6577,
      "duration": 2.3291,
      "velocity": 74,
      "chip": "ym2612"
    },
    {
      "channel": 1,
      "note": 59,
      "start": 10.6627,
      "duration": 2.6575,
      "velocity": 100,
      "chip": "ym2612"
    },
    {
      "channel": 2,
      "note": 43,
      "start": 10.6694,
      "duration": 2.6559,
      "velocity": 116,
      "chip": "ym2612"
    },
    {
      "channel": 3,
      "note": 50,
      "start": 10.6744,
      "duration": 2.6559,
      "velocity": 100,
      "chip": "ym2612"
    },
    {
      "channel": 4,
      "note": 47,
      "start": 10.6943,
      "duration": 2.3292,
      "velocity": 74,
      "chip": "ym2612"
    },
    {
      "channel": 0,
      "note": 47,
      "start": 12.9868,
      "duration": 0.1663,
      "velocity": 74,
      "chip": "ym2612"
    },
    {
      "channel": 4,
      "note": 49,
      "start": 13.0234,
      "duration": 0.1667,
      "velocity": 74,
      "chip": "ym2612"
    },
    {
      "channel": 0,
      "note": 46,
      "start": 13.153,
      "duration": 0.1668,
      "velocity": 74,
      "chip": "ym2612"
    },
    {
      "channel": 4,
      "note": 52,
      "start": 13.1902,
      "duration": 0.1667,
      "velocity": 74,
      "chip": "ym2612"
    },
    {
      "channel": 0,
      "note": 48,
      "start": 13.3198,
      "duration": 0.9994,
      "velocity": 74,
      "chip": "ym2612"
    },
    {
      "channel": 1,
      "note": 58,
      "start": 13.3249,
      "duration": 0.6622,
      "velocity": 100,
      "chip": "ym2612"
    },
    {
      "channel": 2,
      "note": 37,
      "start": 13.3299,
      "duration": 1.329,
      "velocity": 116,
      "chip": "ym2612"
    },
    {
      "channel": 3,
      "note": 61,
      "start": 13.3365,
      "duration": 1.3274,
      "velocity": 100,
      "chip": "ym2612"
    },
    {
      "channel": 4,
      "note": 53,
      "start": 13.3568,
      "duration": 0.9994,
      "velocity": 74,
      "chip": "ym2612"
    },
    {
      "channel": 1,
      "note": 42,
      "start": 13.9917,
      "duration": 0.6622,
      "velocity": 100,
      "chip": "ym2612"
    },
    {
      "channel": 0,
      "note": 73,
      "start": 14.3238,
      "duration": 0.0792,
      "velocity": 100,
      "chip": "ym2612"
    },
    {
      "channel": 4,
      "note": 55,
      "start": 14.3609,
      "duration": 0.0792,
      "velocity": 100,
      "chip": "ym2612"
    },
    {
      "channel": 0,
      "note": 77,
      "start": 14.4031,
      "duration": 0.0832,
      "velocity": 100,
      "chip": "ym2612"
    },
    {
      "channel": 4,
      "note": 54,
      "start": 14.44,
      "duration": 0.0833,
      "velocity": 100,
      "chip": "ym2612"
    },
    {
      "channel": 0,
      "note": 84,
      "start": 14.4863,
      "duration": 0.1672,
      "velocity": 100,
      "chip": "ym2612"
    },
    {
      "channel": 4,
      "note": 53,
      "start": 14.5234,
      "duration": 0.1671,
      "velocity": 100,
      "chip": "ym2612"
    },
    {
      "channel": 0,
      "note": 89,
      "start": 14.6535,
      "duration": 1.3329,
      "velocity": 100,
      "chip": "ym2612"
    },
    {
      "channel": 1,
      "note": 34,
      "start": 14.6585,
      "duration": 1.3329,
      "velocity": 92,
      "chip": "ym2612"
    },
    {
      "channel": 2,
      "note": 63,
      "start": 14.6635,
      "duration": 1.3328,
      "velocity": 89,
      "chip": "ym2612"
    },
    {
      "channel": 3,
      "note": 67,
      "start": 14.6701,
      "duration": 1.3329,
      "velocity": 89,
      "chip": "ym2612"
    },
    {
      "channel": 4,
      "note": 49,
      "start": 14.6905,
      "duration": 1.3324,
      "velocity": 100,
      "chip": "ym2612"
    },
    {
      "channel": 0,
      "note": 48,
      "start": 15.991,
      "duration": 2.3291,
      "velocity": 74,
      "chip": "ym2612"
    },
    {
      "channel": 1,
      "note": 61,
      "start": 15.996,
      "duration": 2.6581,
      "velocity": 100,
      "chip": "ym2612"
    },
    {
      "channel": 2,
      "note": 37,
      "start": 16.0027,
      "duration": 2.6524,
      "velocity": 116,
      "chip": "ym2612"
    },
    {
      "channel": 3,
      "note": 49,
      "start": 16.0077,
      "duration": 2.6478,
      "velocity": 100,
      "chip": "ym2612"
    },
    {
      "channel": 4,
      "note": 46,
      "start": 16.0276,
      "duration": 2.3293,
      "velocity": 74,
      "chip": "ym2612"
    },
    {
      "channel": 0,
      "note": 43,
      "start": 18.3201,
      "duration": 0.3331,
      "velocity": 74,
      "chip": "ym2612"
    },
    {
      "channel": 4,
      "note": 48,
      "start": 18.3569,
      "duration": 0.3334,
      "velocity": 74,
      "chip": "ym2612"
    },
    {
      "channel": 0,
      "note": 45,
      "start": 18.6532,
      "duration": 0.9994,
      "velocity": 74,
      "chip": "ym2612"
    },
    {
      "channel": 1,
      "note": 61,
      "start": 18.6541,
      "duration": 0.666,
      "velocity": 100,
      "chip": "ym2612"
    },
    {
      "channel": 2,
      "note": 36,
      "start": 18.6551,
      "duration": 1.3371,
      "velocity": 116,
      "chip": "ym2612"
    },
    {
      "channel": 3,
      "note": 49,
      "start": 18.66,
      "duration": 1.3372,
      "velocity": 100,
      "chip": "ym2612"
    },
    {
      "channel": 4,
      "note": 43,
      "start": 18.6903,
      "duration": 0.9994,
      "velocity": 74,
      "chip": "ym2612"
    },
    {
      "channel": 1,
      "note": 42,
      "start": 19.3247,
      "duration": 0.6625,
      "velocity": 100,
      "chip": "ym2612"
    },
    {
      "channel": 0,
      "note": 72,
      "start": 19.6572,
      "duration": 0.0792,
      "velocity": 100,
      "chip": "ym2612"
    },
    {
      "channel": 4,
      "note": 54,
      "start": 19.6943,
      "duration": 0.0793,
      "velocity": 100,
      "chip": "ym2612"
    },
    {
      "channel": 0,
      "note": 77,
      "start": 19.7364,
      "duration": 0.0833,
      "velocity": 100,
      "chip": "ym2612"
    },
    {
      "channel": 4,
      "note": 54,
      "start": 19.7737,
      "duration": 0.0833,
      "velocity": 100,
      "chip": "ym2612"
    },
    {
      "channel": 0,
      "note": 84,
      "start": 19.8198,
      "duration": 0.1671,
      "velocity": 100,
      "chip": "ym2612"
    },
    {
      "channel": 4,
      "note": 53,
      "start": 19.857,
      "duration": 0.1668,
      "velocity": 100,
      "chip": "ym2612"
    },
    {
      "channel": 0,
      "note": 89,
      "start": 19.9868,
      "duration": 1.3332,
      "velocity": 100,
      "chip": "ym2612"
    },
    {
      "channel": 1,
      "note": 34,
      "start": 19.9918,
      "duration": 1.334,
      "velocity": 92,
      "chip": "ym2612"
    },
    {
      "channel": 2,
      "note": 63,
      "start": 19.9969,
      "duration": 1.3293,
      "velocity": 89,
      "chip": "ym2612"
    },
    {
      "channel": 3,
      "note": 67,
      "start": 20.0035,
      "duration": 1.3277,
      "velocity": 89,
      "chip": "ym2612"
    },
    {
      "channel": 4,
      "note": 49,
      "start": 20.0238,
      "duration": 1.3324,
      "velocity": 100,
      "chip": "ym2612"
    },
    {
      "channel": 0,
      "note": 65,
      "start": 21.3246,
      "duration": 1.9952,
      "velocity": 119,
      "chip": "ym2612"
    },
    {
      "channel": 1,
      "note": 35,
      "start": 21.3258,
      "duration": 1.3282,
      "velocity": 92,
      "chip": "ym2612"
    },
    {
      "channel": 2,
      "note": 52,
      "start": 21.3308,
      "duration": 0.4075,
      "velocity": 116,
      "chip": "ym2612"
    },
    {
      "channel": 3,
      "note": 90,
      "start": 21.3374,
      "duration": 0.2352,
      "velocity": 100,
      "chip": "ym2612"
    },
    {
      "channel": 4,
      "note": 62,
      "start": 21.3609,
      "duration": 1.9961,
      "velocity": 119,
      "chip": "ym2612"
    },
    {
      "channel": 3,
      "note": 83,
      "start": 21.5726,
      "duration": 0.1667,
      "velocity": 100,
      "chip": "ym2612"
    },
    {
      "channel": 2,
      "note": 48,
      "start": 21.7383,
      "duration": 0.2494,
      "velocity": 116,
      "chip": "ym2612"
    },
    {
      "channel": 3,
      "note": 89,
      "start": 21.7394,
      "duration": 0.2539,
      "velocity": 100,
      "chip": "ym2612"
    },
    {
      "channel": 2,
      "note": 42,
      "start": 21.9923,
      "duration": 0.6621,
      "velocity": 116,
      "chip": "ym2612"
    },
    {
      "channel": 3,
      "note": 90,
      "start": 21.9933,
      "duration": 0.2458,
      "velocity": 100,
      "chip": "ym2612"
    },
    {
      "channel": 3,
      "note": 83,
      "start": 22.2392,
      "duration": 0.1667,
      "velocity": 100,
      "chip": "ym2612"
    },
    {
      "channel": 3,
      "note": 89,
      "start": 22.4058,
      "duration": 0.2543,
      "velocity": 100,
      "chip": "ym2612"
    },
    {
      "channel": 1,
      "note": 38,
      "start": 22.6541,
      "duration": 1.3335,
      "velocity": 92,
      "chip": "ym2612"
    },
    {
      "channel": 2,
      "note": 41,
      "start": 22.6591,
      "duration": 0.4125,
      "velocity": 116,
      "chip": "ym2612"
    },
    {
      "channel": 3,
      "note": 90,
      "start": 22.6601,
      "duration": 0.2457,
      "velocity": 100,
      "chip": "ym2612"
    },
    {
      "channel": 3,
      "note": 83,
      "start": 22.9058,
      "duration": 0.1668,
      "velocity": 100,
      "chip": "ym2612"
    },
    {
      "channel": 2,
      "note": 43,
      "start": 23.0715,
      "duration": 0.2496,
      "velocity": 116,
      "chip": "ym2612"
    },
    {
      "channel": 3,
      "note": 89,
      "start": 23.0726,
      "duration": 0.2542,
      "velocity": 100,
      "chip": "ym2612"
    },
    {
      "channel": 0,
      "note": 62,
      "start": 23.3199,
      "duration": 0.4165,
      "velocity": 119,
      "chip": "ym2612"
    },
    {
      "channel": 2,
      "note": 45,
      "start": 23.3258,
      "duration": 0.6622,
      "velocity": 116,
      "chip": "ym2612"
    },
    {
      "channel": 3,
      "note": 90,
      "start": 23.3268,
      "duration": 0.2459,
      "velocity": 100,
      "chip": "ym2612"
    },
    {
      "channel": 4,
      "note": 62,
      "start": 23.357,
      "duration": 0.4165,
      "velocity": 119,
      "chip": "ym2612"
    },
    {
      "channel": 3,
      "note": 83,
      "start": 23.5727,
      "duration": 0.1667,
      "velocity": 100,
      "chip": "ym2612"
    },
    {
      "channel": 0,
      "note": 65,
      "start": 23.7365,
      "duration": 0.25,
      "velocity": 119,
      "chip": "ym2612"
    },
    {
      "channel": 3,
      "note": 89,
      "start": 23.7394,
      "duration": 0.2542,
      "velocity": 100,
      "chip": "ym2612"
    },
    {
      "channel": 4,
      "note": 65,
      "start": 23.7734,
      "duration": 0.2502,
      "velocity": 119,
      "chip": "ym2612"
    },
    {
      "channel": 0,
      "note": 66,
      "start": 23.9865,
      "duration": 1.3334,
      "velocity": 119,
      "chip": "ym2612"
    },
    {
      "channel": 1,
      "note": 42,
      "start": 23.9876,
      "duration": 1.3334,
      "velocity": 92,
      "chip": "ym2612"
    },
    {
      "channel": 2,
      "note": 49,
      "start": 23.9926,
      "duration": 0.4123,
      "velocity": 116,
      "chip": "ym2612"
    },
    {
      "channel": 3,
      "note": 90,
      "start": 23.9936,
      "duration": 0.2457,
      "velocity": 100,
      "chip": "ym2612"
    },
    {
      "channel": 4,
      "note": 67,
      "start": 24.0237,
      "duration": 1.3334,
      "velocity": 119,
      "chip": "ym2612"
    },
    {
      "channel": 3,
      "note": 83,
      "start": 24.2393,
      "duration": 0.1667,
      "velocity": 100,
      "chip": "ym2612"
    },
    {
      "channel": 2,
      "note": 48,
      "start": 24.4049,
      "duration": 0.2494,
      "velocity": 116,
      "chip": "ym2612"
    },
    {
      "channel": 3,
      "note": 89,
      "start": 24.406,
      "duration": 0.2539,
      "velocity": 100,
      "chip": "ym2612"
    },
    {
      "channel": 2,
      "note": 42,
      "start": 24.659,
      "duration": 0.6624,
      "velocity": 116,
      "chip": "ym2612"
    },
    {
      "channel": 3,
      "note": 90,
      "start": 24.66,
      "duration": 0.2458,
      "velocity": 100,
      "chip": "ym2612"
    },
    {
      "channel": 3,
      "note": 83,
      "start": 24.9058,
      "duration": 0.1667,
      "velocity": 100,
      "chip": "ym2612"
    },
    {
      "channel": 3,
      "note": 89,
      "start": 25.0725,
      "duration": 0.2545,
      "velocity": 100,
      "chip": "ym2612"
    },
    {
      "channel": 0,
      "note": 60,
      "start": 25.3199,
      "duration": 1.3333,
      "velocity": 119,
      "chip": "ym2612"
    },
    {
      "channel": 1,
      "note": 35,
      "start": 25.321,
      "duration": 1.3332,
      "velocity": 92,
      "chip": "ym2612"
    },
    {
      "channel": 2,
      "note": 41,
      "start": 25.326,
      "duration": 0.4122,
      "velocity": 116,
      "chip": "ym2612"
    },
    {
      "channel": 3,
      "note": 90,
      "start": 25.327,
      "duration": 0.2456,
      "velocity": 100,
      "chip": "ym2612"
    },
    {
      "channel": 4,
      "note": 61,
      "start": 25.357,
      "duration": 1.3333,
      "velocity": 119,
      "chip": "ym2612"
    },
    {
      "channel": 3,
      "note": 83,
      "start": 25.5726,
      "duration": 0.1667,
      "velocity": 100,
      "chip": "ym2612"
    },
    {
      "channel": 2,
      "note": 43,
      "start": 25.7382,
      "duration": 0.2495,
      "velocity": 116,
      "chip": "ym2612"
    },
    {
      "channel": 3,
      "note": 89,
      "start": 25.7393,
      "duration": 0.2541,
      "velocity": 100,
      "chip": "ym2612"
    },
    {
      "channel": 2,
      "note": 45,
      "start": 25.9923,
      "duration": 0.6623,
      "velocity": 116,
      "chip": "ym2612"
    },
    {
      "channel": 3,
      "note": 90,
      "start": 25.9934,
      "duration": 0.2458,
      "velocity": 100,
      "chip": "ym2612"
    },
    {
      "channel": 3,
      "note": 83,
      "start": 26.2392,
      "duration": 0.1665,
      "velocity": 100,
      "chip": "ym2612"
    },
    {
      "channel": 3,
      "note": 89,
      "start": 26.4058,
      "duration": 0.2545,
      "velocity": 100,
      "chip": "ym2612"
    },
    {
      "channel": 0,
      "note": 59,
      "start": 26.6532,
      "duration": 2.6663,
      "velocity": 119,
      "chip": "ym2612"
    },
    {
      "channel": 1,
      "note": 34,
      "start": 26.6542,
      "duration": 1.3331,
      "velocity": 92,
      "chip": "ym2612"
    },
    {
      "channel": 2,
      "note": 48,
      "start": 26.6593,
      "duration": 0.4123,
      "velocity": 116,
      "chip": "ym2612"
    },
    {
      "channel": 3,
      "note": 90,
      "start": 26.6603,
      "duration": 0.2457,
      "velocity": 100,
      "chip": "ym2612"
    },
    {
      "channel": 4,
      "note": 59,
      "start": 26.6903,
      "duration": 2.666,
      "velocity": 119,
      "chip": "ym2612"
    },
    {
      "channel": 3,
      "note": 82,
      "start": 26.906,
      "duration": 0.1667,
      "velocity": 100,
      "chip": "ym2612"
    },
    {
      "channel": 2,
      "note": 47,
      "start": 27.0716,
      "duration": 0.2494,
      "velocity": 116,
      "chip": "ym2612"
    },
    {
      "channel": 3,
      "note": 89,
      "start": 27.0727,
      "duration": 0.2539,
      "velocity": 100,
      "chip": "ym2612"
    },
    {
      "channel": 2,
      "note": 42,
      "start": 27.3256,
      "duration": 0.6621,
      "velocity": 116,
      "chip": "ym2612"
    },
    {
      "channel": 3,
      "note": 90,
      "start": 27.3266,
      "duration": 0.2458,
      "velocity": 100,
      "chip": "ym2612"
    },
    {
      "channel": 3,
      "note": 82,
      "start": 27.5725,
      "duration": 0.1667,
      "velocity": 100,
      "chip": "ym2612"
    },
    {
      "channel": 3,
      "note": 89,
      "start": 27.7392,
      "duration": 0.2542,
      "velocity": 100,
      "chip": "ym2612"
    },
    {
      "channel": 1,
      "note": 37,
      "start": 27.9874,
      "duration": 1.3377,
      "velocity": 92,
      "chip": "ym2612"
    },
    {
      "channel": 2,
      "note": 41,
      "start": 27.9924,
      "duration": 0.4125,
      "velocity": 116,
      "chip": "ym2612"
    },
    {
      "channel": 3,
      "note": 90,
      "start": 27.9934,
      "duration": 0.2457,
      "velocity": 100,
      "chip": "ym2612"
    },
    {
      "channel": 3,
      "note": 82,
      "start": 28.2391,
      "duration": 0.1668,
      "velocity": 100,
      "chip": "ym2612"
    },
    {
      "channel": 2,
      "note": 43,
      "start": 28.4049,
      "duration": 0.2494,
      "velocity": 116,
      "chip": "ym2612"
    },
    {
      "channel": 3,
      "note": 89,
      "start": 28.4059,
      "duration": 0.254,
      "velocity": 100,
      "chip": "ym2612"
    },
    {
      "channel": 2,
      "note": 45,
      "start": 28.6589,
      "duration": 0.6666,
      "velocity": 116,
      "chip": "ym2612"
    },
    {
      "channel": 3,
      "note": 90,
      "start": 28.6599,
      "duration": 0.2459,
      "velocity": 100,
      "chip": "ym2612"
    },
    {
      "channel": 3,
      "note": 82,
      "start": 28.9059,
      "duration": 0.1665,
      "velocity": 100,
      "chip": "ym2612"
    },
    {
      "channel": 3,
      "note": 89,
      "start": 29.0724,
      "duration": 0.2587,
      "velocity": 100,
      "chip": "ym2612"
    },
    {
      "channel": 0,
      "note": 75,
      "start": 29.3241,
      "duration": 0.4957,
      "velocity": 83,
      "chip": "ym2612"
    },
    {
      "channel": 1,
      "note": 42,
      "start": 29.3251,
      "duration": 1.3291,
      "velocity": 92,
      "chip": "ym2612"
    },
    {
      "channel": 2,
      "note": 48,
      "start": 29.3301,
      "duration": 0.4081,
      "velocity": 116,
      "chip": "ym2612"
    },
    {
      "channel": 3,
      "note": 90,
      "start": 29.3312,
      "duration": 0.2413,
      "velocity": 100,
      "chip": "ym2612"
    },
    {
      "channel": 4,
      "note": 75,
      "start": 29.3609,
      "duration": 0.496,
      "velocity": 83,
      "chip": "ym2612"
    },
    {
      "channel": 3,
      "note": 82,
      "start": 29.5725,
      "duration": 0.1668,
      "velocity": 100,
      "chip": "ym2612"
    },
    {
      "channel": 2,
      "note": 47,
      "start": 29.7383,
      "duration": 0.2495,
      "velocity": 116,
      "chip": "ym2612"
    },
    {
      "channel": 3,
      "note": 89,
      "start": 29.7394,
      "duration": 0.2541,
      "velocity": 100,
      "chip": "ym2612"
    },
    {
      "channel": 0,
      "note": 82,
      "start": 29.8198,
      "duration": 0.1667,
      "velocity": 83,
      "chip": "ym2612"
    },
    {
      "channel": 4,
      "note": 82,
      "start": 29.8569,
      "duration": 0.1667,
      "velocity": 83,
      "chip": "ym2612"
    },
    {
      "channel": 0,
      "note": 81,
      "start": 29.9865,
      "duration": 0.4999,
      "velocity": 83,
      "chip": "ym2612"
    },
    {
      "channel": 2,
      "note": 42,
      "start": 29.9924,
      "duration": 0.6623,
      "velocity": 116,
      "chip": "ym2612"
    },
    {
      "channel": 3,
      "note": 90,
      "start": 29.9934,
      "duration": 0.2457,
      "velocity": 100,
      "chip": "ym2612"
    },
    {
      "channel": 4,
      "note": 81,
      "start": 30.0236,
      "duration": 0.4999,
      "velocity": 83,
      "chip": "ym2612"
    },
    {
      "channel": 3,
      "note": 82,
      "start": 30.2392,
      "duration": 0.1667,
      "velocity": 100,
      "chip": "ym2612"
    },
    {
      "channel": 3,
      "note": 89,
      "start": 30.4058,
      "duration": 0.2545,
      "velocity": 100,
      "chip": "ym2612"
    },
    {
      "channel": 0,
      "note": 79,
      "start": 30.4864,
      "duration": 0.1668,
      "velocity": 83,
      "chip": "ym2612"
    },
    {
      "channel": 4,
      "note": 79,
      "start": 30.5235,
      "duration": 0.1668,
      "velocity": 83,
      "chip": "ym2612"
    },
    {
      "channel": 0,
      "note": 78,
      "start": 30.6532,
      "duration": 1.3329,
      "velocity": 83,
      "chip": "ym2612"
    },
    {
      "channel": 1,
      "note": 34,
      "start": 30.6543,
      "duration": 1.3375,
      "velocity": 92,
      "chip": "ym2612"
    },
    {
      "channel": 2,
      "note": 41,
      "start": 30.6593,
      "duration": 0.4122,
      "velocity": 116,
      "chip": "ym2612"
    },
    {
      "channel": 3,
      "note": 90,
      "start": 30.6603,
      "duration": 0.2454,
      "velocity": 100,
      "chip": "ym2612"
    },
    {
      "channel": 4,
      "note": 78,
      "start": 30.6904,
      "duration": 1.3326,
      "velocity": 83,
      "chip": "ym2612"
    },
    {
      "channel": 3,
      "note": 82,
      "start": 30.9058,
      "duration": 0.1668,
      "velocity": 100,
      "chip": "ym2612"
    },
    {
      "channel": 2,
      "note": 43,
      "start": 31.0715,
      "duration": 0.2494,
      "velocity": 116,
      "chip": "ym2612"
    },
    {
      "channel": 3,
      "note": 89,
      "start": 31.0726,
      "duration": 0.254,
      "velocity": 100,
      "chip": "ym2612"
    },
    {
      "channel": 2,
      "note": 45,
      "start": 31.3256,
      "duration": 0.6666,
      "velocity": 116,
      "chip": "ym2612"
    },
    {
      "channel": 3,
      "note": 90,
      "start": 31.3266,
      "duration": 0.2459,
      "velocity": 100,
      "chip": "ym2612"
    },
    {
      "channel": 3,
      "note": 82,
      "start": 31.5726,
      "duration": 0.1665,
      "velocity": 100,
      "chip": "ym2612"
    },
    {
      "channel": 3,
      "note": 89,
      "start": 31.7391,
      "duration": 0.2587,
      "velocity": 100,
      "chip": "ym2612"
    },
    {
      "channel": 0,
      "note": 62,
      "start": 31.9907,
      "duration": 1.9957,
      "velocity": 119,
      "chip": "ym2612"
    },
    {
      "channel": 1,
      "note": 35,
      "start": 31.9918,
      "duration": 1.3289,
      "velocity": 92,
      "chip": "ym2612"
    },
    {
      "channel": 2,
      "note": 49,
      "start": 31.9968,
      "duration": 0.4081,
      "velocity": 116,
      "chip": "ym2612"
    },
    {
      "channel": 3,
      "note": 90,
      "start": 31.9978,
      "duration": 0.2415,
      "velocity": 100,
      "chip": "ym2612"
    },
    {
      "channel": 4,
      "note": 62,
      "start": 32.0276,
      "duration": 1.9961,
      "velocity": 119,
      "chip": "ym2612"
    },
    {
      "channel": 3,
      "note": 83,
      "start": 32.2393,
      "duration": 0.1667,
      "velocity": 100,
      "chip": "ym2612"
    },
    {
      "channel": 2,
      "note": 48,
      "start": 32.4049,
      "duration": 0.2494,
      "velocity": 116,
      "chip": "ym2612"
    },
    {
      "channel": 3,
      "note": 89,
      "start": 32.406,
      "duration": 0.254,
      "velocity": 100,
      "chip": "ym2612"
    },
    {
      "channel": 2,
      "note": 42,
      "start": 32.659,
      "duration": 0.6621,
      "velocity": 116,
      "chip": "ym2612"
    },
    {
      "channel": 3,
      "note": 90,
      "start": 32.66,
      "duration": 0.2458,
      "velocity": 100,
      "chip": "ym2612"
    },
    {
      "channel": 3,
      "note": 83,
      "start": 32.9058,
      "duration": 0.1667,
      "velocity": 100,
      "chip": "ym2612"
    },
    {
      "channel": 3,
      "note": 89,
      "start": 33.0725,
      "duration": 0.2543,
      "velocity": 100,
      "chip": "ym2612"
    },
    {
      "channel": 1,
      "note": 38,
      "start": 33.3207,
      "duration": 1.3335,
      "velocity": 92,
      "chip": "ym2612"
    },
    {
      "channel": 2,
      "note": 41,
      "start": 33.3257,
      "duration": 0.4125,
      "velocity": 116,
      "chip": "ym2612"
    },
    {
      "channel": 3,
      "note": 90,
      "start": 33.3268,
      "duration": 0.2457,
      "velocity": 100,
      "chip": "ym2612"
    },
    {
      "channel": 3,
      "note": 83,
      "start": 33.5724,
      "duration": 0.1668,
      "velocity": 100,
      "chip": "ym2612"
    },
    {
      "channel": 2,
      "note": 43,
      "start": 33.7382,
      "duration": 0.2496,
      "velocity": 116,
      "chip": "ym2612"
    },
    {
      "channel": 3,
      "note": 89,
      "start": 33.7392,
      "duration": 0.2543,
      "velocity": 100,
      "chip": "ym2612"
    },
    {
      "channel": 0,
      "note": 60,
      "start": 33.9866,
      "duration": 0.1665,
      "velocity": 119,
      "chip": "ym2612"
    },
    {
      "channel": 2,
      "note": 45,
      "start": 33.9925,
      "duration": 0.6622,
      "velocity": 116,
      "chip": "ym2612"
    },
    {
      "channel": 3,
      "note": 90,
      "start": 33.9935,
      "duration": 0.2458,
      "velocity": 100,
      "chip": "ym2612"
    },
    {
      "channel": 4,
      "note": 60,
      "start": 34.0237,
      "duration": 0.1665,
      "velocity": 119,
      "chip": "ym2612"
    },
    {
      "channel": 0,
      "note": 62,
      "start": 34.1531,
      "duration": 0.25,
      "velocity": 119,
      "chip": "ym2612"
    },
    {
      "channel": 4,
      "note": 62,
      "start": 34.1902,
      "duration": 0.2499,
      "velocity": 119,
      "chip": "ym2612"
    },
    {
      "channel": 3,
      "note": 83,
      "start": 34.2394,
      "duration": 0.1667,
      "velocity": 100,
      "chip": "ym2612"
    },
    {
      "channel": 0,
      "note": 65,
      "start": 34.4031,
      "duration": 0.2501,
      "velocity": 119,
      "chip": "ym2612"
    },
    {
      "channel": 3,
      "note": 89,
      "start": 34.406,
      "duration": 0.2542,
      "velocity": 100,
      "chip": "ym2612"
    },
    {
      "channel": 4,
      "note": 65,
      "start": 34.4401,
      "duration": 0.2502,
      "velocity": 119,
      "chip": "ym2612"
    },
    {
      "channel": 0,
      "note": 66,
      "start": 34.6532,
      "duration": 1.3334,
      "velocity": 119,
      "chip": "ym2612"
    },
    {
      "channel": 1,
      "note": 42,
      "start": 34.6542,
      "duration": 1.3333,
      "velocity": 92,
      "chip": "ym2612"
    },
    {
      "channel": 2,
      "note": 49,
      "start": 34.6593,
      "duration": 0.4123,
      "velocity": 116,
      "chip": "ym2612"
    },
    {
      "channel": 3,
      "note": 90,
      "start": 34.6603,
      "duration": 0.2457,
      "velocity": 100,
      "chip": "ym2612"
    },
    {
      "channel": 4,
      "note": 67,
      "start": 34.6903,
      "duration": 1.3334,
      "velocity": 119,
      "chip": "ym2612"
    },
    {
      "channel": 3,
      "note": 83,
      "start": 34.906,
      "duration": 0.1667,
      "velocity": 100,
      "chip": "ym2612"
    },
    {
      "channel": 2,
      "note": 48,
      "start": 35.0716,
      "duration": 0.2494,
      "velocity": 116,
      "chip": "ym2612"
    },
    {
      "channel": 3,
      "note": 89,
      "start": 35.0726,
      "duration": 0.254,
      "velocity": 100,
      "chip": "ym2612"
    },
    {
      "channel": 2,
      "note": 42,
      "start": 35.3256,
      "duration": 0.6624,
      "velocity": 116,
      "chip": "ym2612"
    },
    {
      "channel": 3,
      "note": 90,
      "start": 35.3266,
      "duration": 0.2458,
      "velocity": 100,
      "chip": "ym2612"
    },
    {
      "channel": 3,
      "note": 83,
      "start": 35.5724,
      "duration": 0.1667,
      "velocity": 100,
      "chip": "ym2612"
    },
    {
      "channel": 3,
      "note": 89,
      "start": 35.7392,
      "duration": 0.2545,
      "velocity": 100,
      "chip": "ym2612"
    },
    {
      "channel": 0,
      "note": 67,
      "start": 35.9866,
      "duration": 1.3333,
      "velocity": 119,
      "chip": "ym2612"
    },
    {
      "channel": 1,
      "note": 35,
      "start": 35.9876,
      "duration": 1.3332,
      "velocity": 92,
      "chip": "ym2612"
    },
    {
      "channel": 2,
      "note": 41,
      "start": 35.9927,
      "duration": 0.4124,
      "velocity": 116,
      "chip": "ym2612"
    },
    {
      "channel": 3,
      "note": 90,
      "start": 35.9937,
      "duration": 0.2456,
      "velocity": 100,
      "chip": "ym2612"
    },
    {
      "channel": 4,
      "note": 68,
      "start": 36.0237,
      "duration": 1.3332,
      "velocity": 119,
      "chip": "ym2612"
    },
    {
      "channel": 3,
      "note": 83,
      "start": 36.2392,
      "duration": 0.1668,
      "velocity": 100,
      "chip": "ym2612"
    },
    {
      "channel": 2,
      "note": 43,
      "start": 36.405,
      "duration": 0.2494,
      "velocity": 116,
      "chip": "ym2612"
    },
    {
      "channel": 3,
      "note": 89,
      "start": 36.406,
      "duration": 0.254,
      "velocity": 100,
      "chip": "ym2612"
    },
    {
      "channel": 2,
      "note": 45,
      "start": 36.659,
      "duration": 0.6623,
      "velocity": 116,
      "chip": "ym2612"
    },
    {
      "channel": 3,
      "note": 90,
      "start": 36.66,
      "duration": 0.2458,
      "velocity": 100,
      "chip": "ym2612"
    },
    {
      "channel": 3,
      "note": 83,
      "start": 36.9058,
      "duration": 0.1666,
      "velocity": 100,
      "chip": "ym2612"
    },
    {
      "channel": 3,
      "note": 89,
      "start": 37.0724,
      "duration": 0.2545,
      "velocity": 100,
      "chip": "ym2612"
    },
    {
      "channel": 0,
      "note": 62,
      "start": 37.3198,
      "duration": 2.6663,
      "velocity": 119,
      "chip": "ym2612"
    },
    {
      "channel": 1,
      "note": 34,
      "start": 37.3209,
      "duration": 1.3331,
      "velocity": 92,
      "chip": "ym2612"
    },
    {
      "channel": 2,
      "note": 48,
      "start": 37.3259,
      "duration": 0.4123,
      "velocity": 116,
      "chip": "ym2612"
    },
    {
      "channel": 3,
      "note": 90,
      "start": 37.3269,
      "duration": 0.2457,
      "velocity": 100,
      "chip": "ym2612"
    },
    {
      "channel": 4,
      "note": 62,
      "start": 37.357,
      "duration": 2.666,
      "velocity": 119,
      "chip": "ym2612"
    },
    {
      "channel": 3,
      "note": 82,
      "start": 37.5726,
      "duration": 0.1667,
      "velocity": 100,
      "chip": "ym2612"
    },
    {
      "channel": 2,
      "note": 47,
      "start": 37.7383,
      "duration": 0.2494,
      "velocity": 116,
      "chip": "ym2612"
    },
    {
      "channel": 3,
      "note": 89,
      "start": 37.7393,
      "duration": 0.254,
      "velocity": 100,
      "chip": "ym2612"
    },
    {
      "channel": 2,
      "note": 42,
      "start": 37.9923,
      "duration": 0.6621,
      "velocity": 116,
      "chip": "ym2612"
    },
    {
      "channel": 3,
      "note": 90,
      "start": 37.9933,
      "duration": 0.2458,
      "velocity": 100,
      "chip": "ym2612"
    },
    {
      "channel": 3,
      "note": 82,
      "start": 38.2391,
      "duration": 0.1667,
      "velocity": 100,
      "chip": "ym2612"
    },
    {
      "channel": 3,
      "note": 89,
      "start": 38.4058,
      "duration": 0.2542,
      "velocity": 100,
      "chip": "ym2612"
    },
    {
      "channel": 1,
      "note": 35,
      "start": 38.654,
      "duration": 1.3377,
      "velocity": 92,
      "chip": "ym2612"
    },
    {
      "channel": 2,
      "note": 41,
      "start": 38.6591,
      "duration": 0.4125,
      "velocity": 116,
      "chip": "ym2612"
    },
    {
      "channel": 3,
      "note": 90,
      "start": 38.6601,
      "duration": 0.2457,
      "velocity": 100,
      "chip": "ym2612"
    },
    {
      "channel": 3,
      "note": 82,
      "start": 38.9058,
      "duration": 0.1668,
      "velocity": 100,
      "chip": "ym2612"
    },
    {
      "channel": 2,
      "note": 43,
      "start": 39.0715,
      "duration": 0.2495,
      "velocity": 116,
      "chip": "ym2612"
    },
    {
      "channel": 3,
      "note": 89,
      "start": 39.0726,
      "duration": 0.2541,
      "velocity": 100,
      "chip": "ym2612"
    },
    {
      "channel": 2,
      "note": 46,
      "start": 39.3257,
      "duration": 0.6665,
      "velocity": 116,
      "chip": "ym2612"
    },
    {
      "channel": 3,
      "note": 90,
      "start": 39.3267,
      "duration": 0.2458,
      "velocity": 100,
      "chip": "ym2612"
    },
    {
      "channel": 3,
      "note": 82,
      "start": 39.5725,
      "duration": 0.1666,
      "velocity": 100,
      "chip": "ym2612"
    },
    {
      "channel": 3,
      "note": 89,
      "start": 39.7391,
      "duration": 0.2587,
      "velocity": 100,
      "chip": "ym2612"
    },
    {
      "channel": 0,
      "note": 76,
      "start": 39.9907,
      "duration": 0.4957,
      "velocity": 83,
      "chip": "ym2612"
    },
    {
      "channel": 1,
      "note": 37,
      "start": 39.9918,
      "duration": 1.3291,
      "velocity": 92,
      "chip": "ym2612"
    },
    {
      "channel": 2,
      "note": 48,
      "start": 39.9968,
      "duration": 0.4081,
      "velocity": 116,
      "chip": "ym2612"
    },
    {
      "channel": 3,
      "note": 90,
      "start": 39.9978,
      "duration": 0.2413,
      "velocity": 100,
      "chip": "ym2612"
    },
    {
      "channel": 4,
      "note": 76,
      "start": 40.0276,
      "duration": 0.4959,
      "velocity": 83,
      "chip": "ym2612"
    },
    {
      "channel": 3,
      "note": 82,
      "start": 40.2392,
      "duration": 0.1668,
      "velocity": 100,
      "chip": "ym2612"
    },
    {
      "channel": 2,
      "note": 47,
      "start": 40.4049,
      "duration": 0.2495,
      "velocity": 116,
      "chip": "ym2612"
    },
    {
      "channel": 3,
      "note": 89,
      "start": 40.406,
      "duration": 0.2541,
      "velocity": 100,
      "chip": "ym2612"
    },
    {
      "channel": 0,
      "note": 82,
      "start": 40.4864,
      "duration": 0.1667,
      "velocity": 83,
      "chip": "ym2612"
    },
    {
      "channel": 4,
      "note": 82,
      "start": 40.5236,
      "duration": 0.1667,
      "velocity": 83,
      "chip": "ym2612"
    },
    {
      "channel": 0,
      "note": 81,
      "start": 40.6531,
      "duration": 0.5,
      "velocity": 83,
      "chip": "ym2612"
    },
    {
      "channel": 2,
      "note": 42,
      "start": 40.6591,
      "duration": 0.6623,
      "velocity": 116,
      "chip": "ym2612"
    },
    {
      "channel": 3,
      "note": 90,
      "start": 40.6601,
      "duration": 0.2457,
      "velocity": 100,
      "chip": "ym2612"
    },
    {
      "channel": 4,
      "note": 81,
      "start": 40.6902,
      "duration": 0.4999,
      "velocity": 83,
      "chip": "ym2612"
    },
    {
      "channel": 3,
      "note": 82,
      "start": 40.9058,
      "duration": 0.1667,
      "velocity": 100,
      "chip": "ym2612"
    },
    {
      "channel": 3,
      "note": 89,
      "start": 41.0725,
      "duration": 0.2544,
      "velocity": 100,
      "chip": "ym2612"
    },
    {
      "channel": 0,
      "note": 79,
      "start": 41.1531,
      "duration": 0.1668,
      "velocity": 83,
      "chip": "ym2612"
    },
    {
      "channel": 4,
      "note": 79,
      "start": 41.1902,
      "duration": 0.1668,
      "velocity": 83,
      "chip": "ym2612"
    },
    {
      "channel": 0,
      "note": 78,
      "start": 41.3199,
      "duration": 1.3329,
      "velocity": 83,
      "chip": "ym2612"
    },
    {
      "channel": 1,
      "note": 42,
      "start": 41.321,
      "duration": 1.3375,
      "velocity": 92,
      "chip": "ym2612"
    },
    {
      "channel": 2,
      "note": 41,
      "start": 41.326,
      "duration": 0.4124,
      "velocity": 116,
      "chip": "ym2612"
    },
    {
      "channel": 3,
      "note": 90,
      "start": 41.327,
      "duration": 0.2454,
      "velocity": 100,
      "chip": "ym2612"
    },
    {
      "channel": 4,
      "note": 78,
      "start": 41.357,
      "duration": 1.3326,
      "velocity": 83,
      "chip": "ym2612"
    },
    {
      "channel": 3,
      "note": 82,
      "start": 41.5724,
      "duration": 0.1669,
      "velocity": 100,
      "chip": "ym2612"
    },
    {
      "channel": 2,
      "note": 43,
      "start": 41.7383,
      "duration": 0.2494,
      "velocity": 116,
      "chip": "ym2612"
    },
    {
      "channel": 3,
      "note": 89,
      "start": 41.7394,
      "duration": 0.254,
      "velocity": 100,
      "chip": "ym2612"
    },
    {
      "channel": 2,
      "note": 46,
      "start": 41.9923,
      "duration": 0.6665,
      "velocity": 116,
      "chip": "ym2612"
    },
    {
      "channel": 3,
      "note": 90,
      "start": 41.9934,
      "duration": 0.2458,
      "velocity": 100,
      "chip": "ym2612"
    },
    {
      "channel": 3,
      "note": 82,
      "start": 42.2392,
      "duration": 0.1666,
      "velocity": 100,
      "chip": "ym2612"
    },
    {
      "channel": 3,
      "note": 89,
      "start": 42.4058,
      "duration": 0.2587,
      "velocity": 100,
      "chip": "ym2612"
    },
    {
      "channel": 0,
      "note": 71,
      "start": 42.6574,
      "duration": 2.329,
      "velocity": 119,
      "chip": "ym2612"
    },
    {
      "channel": 1,
      "note": 38,
      "start": 42.6584,
      "duration": 1.329,
      "velocity": 92,
      "chip": "ym2612"
    },
    {
      "channel": 2,
      "note": 52,
      "start": 42.6635,
      "duration": 0.4081,
      "velocity": 116,
      "chip": "ym2612"
    },
    {
      "channel": 3,
      "note": 90,
      "start": 42.6645,
      "duration": 0.2415,
      "velocity": 100,
      "chip": "ym2612"
    },
    {
      "channel": 4,
      "note": 71,
      "start": 42.6943,
      "duration": 2.3293,
      "velocity": 119,
      "chip": "ym2612"
    },
    {
      "channel": 3,
      "note": 81,
      "start": 42.906,
      "duration": 0.1667,
      "velocity": 100,
      "chip": "ym2612"
    },
    {
      "channel": 2,
      "note": 52,
      "start": 43.0716,
      "duration": 0.2494,
      "velocity": 116,
      "chip": "ym2612"
    },
    {
      "channel": 3,
      "note": 89,
      "start": 43.0726,
      "duration": 0.254,
      "velocity": 100,
      "chip": "ym2612"
    },
    {
      "channel": 2,
      "note": 50,
      "start": 43.3256,
      "duration": 0.6622,
      "velocity": 116,
      "chip": "ym2612"
    },
    {
      "channel": 3,
      "note": 90,
      "start": 43.3266,
      "duration": 0.2458,
      "velocity": 100,
      "chip": "ym2612"
    },
    {
      "channel": 3,
      "note": 81,
      "start": 43.5724,
      "duration": 0.1667,
      "velocity": 100,
      "chip": "ym2612"
    },
    {
      "channel": 3,
      "note": 89,
      "start": 43.7392,
      "duration": 0.2543,
      "velocity": 100,
      "chip": "ym2612"
    },
    {
      "channel": 1,
      "note": 42,
      "start": 43.9874,
      "duration": 1.3334,
      "velocity": 92,
      "chip": "ym2612"
    },
    {
      "channel": 2,
      "note": 42,
      "start": 43.9925,
      "duration": 0.4123,
      "velocity": 116,
      "chip": "ym2612"
    },
    {
      "channel": 3,
      "note": 90,
      "start": 43.9936,
      "duration": 0.2455,
      "velocity": 100,
      "chip": "ym2612"
    },
    {
      "channel": 3,
      "note": 81,
      "start": 44.2391,
      "duration": 0.1668,
      "velocity": 100,
      "chip": "ym2612"
    },
    {
      "channel": 2,
      "note": 44,
      "start": 44.4049,
      "duration": 0.2495,
      "velocity": 116,
      "chip": "ym2612"
    },
    {
      "channel": 3,
      "note": 89,
      "start": 44.4059,
      "duration": 0.2541,
      "velocity": 100,
      "chip": "ym2612"
    },
    {
      "channel": 2,
      "note": 49,
      "start": 44.659,
      "duration": 0.6622,
      "velocity": 116,
      "chip": "ym2612"
    },
    {
      "channel": 3,
      "note": 90,
      "start": 44.66,
      "duration": 0.2458,
      "velocity": 100,
      "chip": "ym2612"
    },
    {
      "channel": 3,
      "note": 81,
      "start": 44.9058,
      "duration": 0.1669,
      "velocity": 100,
      "chip": "ym2612"
    },
    {
      "channel": 0,
      "note": 65,
      "start": 44.9864,
      "duration": 0.0833,
      "velocity": 119,
      "chip": "ym2612"
    },
    {
      "channel": 4,
      "note": 65,
      "start": 45.0236,
      "duration": 0.0831,
      "velocity": 119,
      "chip": "ym2612"
    },
    {
      "channel": 0,
      "note": 66,
      "start": 45.0698,
      "duration": 0.0833,
      "velocity": 119,
      "chip": "ym2612"
    },
    {
      "channel": 3,
      "note": 89,
      "start": 45.0727,
      "duration": 0.2542,
      "velocity": 100,
      "chip": "ym2612"
    },
    {
      "channel": 4,
      "note": 66,
      "start": 45.1067,
      "duration": 0.0834,
      "velocity": 119,
      "chip": "ym2612"
    },
    {
      "channel": 0,
      "note": 65,
      "start": 45.1531,
      "duration": 0.1667,
      "velocity": 119,
      "chip": "ym2612"
    },
    {
      "channel": 4,
      "note": 65,
      "start": 45.1901,
      "duration": 0.1668,
      "velocity": 119,
      "chip": "ym2612"
    },
    {
      "channel": 0,
      "note": 63,
      "start": 45.3198,
      "duration": 1.3334,
      "velocity": 119,
      "chip": "ym2612"
    },
    {
      "channel": 1,
      "note": 45,
      "start": 45.3208,
      "duration": 1.3334,
      "velocity": 92,
      "chip": "ym2612"
    },
    {
      "channel": 2,
      "note": 53,
      "start": 45.3259,
      "duration": 0.4123,
      "velocity": 116,
      "chip": "ym2612"
    },
    {
      "channel": 3,
      "note": 90,
      "start": 45.3269,
      "duration": 0.2457,
      "velocity": 100,
      "chip": "ym2612"
    },
    {
      "channel": 4,
      "note": 63,
      "start": 45.357,
      "duration": 1.3333,
      "velocity": 119,
      "chip": "ym2612"
    },
    {
      "channel": 3,
      "note": 81,
      "start": 45.5726,
      "duration": 0.1667,
      "velocity": 100,
      "chip": "ym2612"
    },
    {
      "channel": 2,
      "note": 52,
      "start": 45.7383,
      "duration": 0.2494,
      "velocity": 116,
      "chip": "ym2612"
    },
    {
      "channel": 3,
      "note": 89,
      "start": 45.7393,
      "duration": 0.254,
      "velocity": 100,
      "chip": "ym2612"
    },
    {
      "channel": 2,
      "note": 50,
      "start": 45.9923,
      "duration": 0.6623,
      "velocity": 116,
      "chip": "ym2612"
    },
    {
      "channel": 3,
      "note": 90,
      "start": 45.9933,
      "duration": 0.2458,
      "velocity": 100,
      "chip": "ym2612"
    },
    {
      "channel": 3,
      "note": 81,
      "start": 46.2391,
      "duration": 0.1667,
      "velocity": 100,
      "chip": "ym2612"
    },
    {
      "channel": 3,
      "note": 89,
      "start": 46.4058,
      "duration": 0.2544,
      "velocity": 100,
      "chip": "ym2612"
    },
    {
      "channel": 0,
      "note": 63,
      "start": 46.6532,
      "duration": 1.3333,
      "velocity": 119,
      "chip": "ym2612"
    },
    {
      "channel": 1,
      "note": 38,
      "start": 46.6542,
      "duration": 1.3333,
      "velocity": 92,
      "chip": "ym2612"
    },
    {
      "channel": 2,
      "note": 42,
      "start": 46.6593,
      "duration": 0.4123,
      "velocity": 116,
      "chip": "ym2612"
    },
    {
      "channel": 3,
      "note": 90,
      "start": 46.6603,
      "duration": 0.2456,
      "velocity": 100,
      "chip": "ym2612"
    },
    {
      "channel": 4,
      "note": 63,
      "start": 46.6904,
      "duration": 1.3332,
      "velocity": 119,
      "chip": "ym2612"
    },
    {
      "channel": 3,
      "note": 81,
      "start": 46.9059,
      "duration": 0.1668,
      "velocity": 100,
      "chip": "ym2612"
    },
    {
      "channel": 2,
      "note": 44,
      "start": 47.0717,
      "duration": 0.2494,
      "velocity": 116,
      "chip": "ym2612"
    },
    {
      "channel": 3,
      "note": 89,
      "start": 47.0727,
      "duration": 0.254,
      "velocity": 100,
      "chip": "ym2612"
    },
    {
      "channel": 2,
      "note": 49,
      "start": 47.3257,
      "duration": 0.6622,
      "velocity": 116,
      "chip": "ym2612"
    },
    {
      "channel": 3,
      "note": 90,
      "start": 47.3267,
      "duration": 0.2458,
      "velocity": 100,
      "chip": "ym2612"
    },
    {
      "channel": 3,
      "note": 81,
      "start": 47.5725,
      "duration": 0.1667,
      "velocity": 100,
      "chip": "ym2612"
    },
    {
      "channel": 3,
      "note": 89,
      "start": 47.7392,
      "duration": 0.2543,
      "velocity": 100,
      "chip": "ym2612"
    },
    {
      "channel": 0,
      "note": 70,
      "start": 47.9865,
      "duration": 2.6667,
      "velocity": 119,
      "chip": "ym2612"
    },
    {
      "channel": 1,
      "note": 43,
      "start": 47.9875,
      "duration": 1.3333,
      "velocity": 92,
      "chip": "ym2612"
    },
    {
      "channel": 2,
      "note": 54,
      "start": 47.9925,
      "duration": 0.4124,
      "velocity": 116,
      "chip": "ym2612"
    },
    {
      "channel": 3,
      "note": 95,
      "start": 47.9936,
      "duration": 0.2457,
      "velocity": 100,
      "chip": "ym2612"
    },
    {
      "channel": 4,
      "note": 70,
      "start": 48.0237,
      "duration": 2.6666,
      "velocity": 119,
      "chip": "ym2612"
    },
    {
      "channel": 3,
      "note": 86,
      "start": 48.2393,
      "duration": 0.1667,
      "velocity": 100,
      "chip": "ym2612"
    },
    {
      "channel": 2,
      "note": 52,
      "start": 48.4049,
      "duration": 0.2494,
      "velocity": 116,
      "chip": "ym2612"
    },
    {
      "channel": 3,
      "note": 94,
      "start": 48.406,
      "duration": 0.254,
      "velocity": 100,
      "chip": "ym2612"
    },
    {
      "channel": 2,
      "note": 50,
      "start": 48.659,
      "duration": 0.6622,
      "velocity": 116,
      "chip": "ym2612"
    },
    {
      "channel": 3,
      "note": 95,
      "start": 48.66,
      "duration": 0.2458,
      "velocity": 100,
      "chip": "ym2612"
    },
    {
      "channel": 3,
      "note": 86,
      "start": 48.9058,
      "duration": 0.1667,
      "velocity": 100,
      "chip": "ym2612"
    },
    {
      "channel": 3,
      "note": 94,
      "start": 49.0725,
      "duration": 0.2543,
      "velocity": 100,
      "chip": "ym2612"
    },
    {
      "channel": 1,
      "note": 38,
      "start": 49.3208,
      "duration": 1.3334,
      "velocity": 92,
      "chip": "ym2612"
    },
    {
      "channel": 2,
      "note": 43,
      "start": 49.3258,
      "duration": 0.4125,
      "velocity": 116,
      "chip": "ym2612"
    },
    {
      "channel": 3,
      "note": 95,
      "start": 49.3269,
      "duration": 0.2455,
      "velocity": 100,
      "chip": "ym2612"
    },
    {
      "channel": 3,
      "note": 86,
      "start": 49.5724,
      "duration": 0.1669,
      "velocity": 100,
      "chip": "ym2612"
    },
    {
      "channel": 2,
      "note": 44,
      "start": 49.7383,
      "duration": 0.2494,
      "velocity": 116,
      "chip": "ym2612"
    },
    {
      "channel": 3,
      "note": 94,
      "start": 49.7394,
      "duration": 0.254,
      "velocity": 100,
      "chip": "ym2612"
    },
    {
      "channel": 2,
      "note": 49,
      "start": 49.9923,
      "duration": 0.6622,
      "velocity": 116,
      "chip": "ym2612"
    },
    {
      "channel": 3,
      "note": 95,
      "start": 49.9934,
      "duration": 0.2458,
      "velocity": 100,
      "chip": "ym2612"
    },
    {
      "channel": 3,
      "note": 86,
      "start": 50.2392,
      "duration": 0.1667,
      "velocity": 100,
      "chip": "ym2612"
    },
    {
      "channel": 3,
      "note": 94,
      "start": 50.4059,
      "duration": 0.2543,
      "velocity": 100,
      "chip": "ym2612"
    },
    {
      "channel": 0,
      "note": 68,
      "start": 50.6532,
      "duration": 1.3334,
      "velocity": 119,
      "chip": "ym2612"
    },
    {
      "channel": 1,
      "note": 35,
      "start": 50.6542,
      "duration": 1.3334,
      "velocity": 92,
      "chip": "ym2612"
    },
    {
      "channel": 2,
      "note": 54,
      "start": 50.6592,
      "duration": 0.4124,
      "velocity": 116,
      "chip": "ym2612"
    },
    {
      "channel": 3,
      "note": 95,
      "start": 50.6603,
      "duration": 0.2457,
      "velocity": 100,
      "chip": "ym2612"
    },
    {
      "channel": 4,
      "note": 68,
      "start": 50.6902,
      "duration": 1.3334,
      "velocity": 119,
      "chip": "ym2612"
    },
    {
      "channel": 3,
      "note": 88,
      "start": 50.906,
      "duration": 0.1667,
      "velocity": 100,
      "chip": "ym2612"
    },
    {
      "channel": 2,
      "note": 52,
      "start": 51.0716,
      "duration": 0.2494,
      "velocity": 116,
      "chip": "ym2612"
    },
    {
      "channel": 3,
      "note": 94,
      "start": 51.0726,
      "duration": 0.254,
      "velocity": 100,
      "chip": "ym2612"
    },
    {
      "channel": 2,
      "note": 50,
      "start": 51.3256,
      "duration": 0.6623,
      "velocity": 116,
      "chip": "ym2612"
    },
    {
      "channel": 3,
      "note": 95,
      "start": 51.3266,
      "duration": 0.2458,
      "velocity": 100,
      "chip": "ym2612"
    },
    {
      "channel": 3,
      "note": 88,
      "start": 51.5724,
      "duration": 0.1667,
      "velocity": 100,
      "chip": "ym2612"
    },
    {
      "channel": 3,
      "note": 94,
      "start": 51.7392,
      "duration": 0.2544,
      "velocity": 100,
      "chip": "ym2612"
    },
    {
      "channel": 0,
      "note": 65,
      "start": 51.9866,
      "duration": 1.3332,
      "velocity": 119,
      "chip": "ym2612"
    },
    {
      "channel": 1,
      "note": 43,
      "start": 51.9876,
      "duration": 1.3333,
      "velocity": 92,
      "chip": "ym2612"
    },
    {
      "channel": 2,
      "note": 43,
      "start": 51.9927,
      "duration": 0.4124,
      "velocity": 116,
      "chip": "ym2612"
    },
    {
      "channel": 3,
      "note": 95,
      "start": 51.9937,
      "duration": 0.2456,
      "velocity": 100,
      "chip": "ym2612"
    },
    {
      "channel": 4,
      "note": 65,
      "start": 52.0237,
      "duration": 1.3332,
      "velocity": 119,
      "chip": "ym2612"
    },
    {
      "channel": 3,
      "note": 88,
      "start": 52.2392,
      "duration": 0.1668,
      "velocity": 100,
      "chip": "ym2612"
    },
    {
      "channel": 2,
      "note": 44,
      "start": 52.405,
      "duration": 0.2494,
      "velocity": 116,
      "chip": "ym2612"
    },
    {
      "channel": 3,
      "note": 94,
      "start": 52.406,
      "duration": 0.254,
      "velocity": 100,
      "chip": "ym2612"
    },
    {
      "channel": 2,
      "note": 49,
      "start": 52.659,
      "duration": 0.6622,
      "velocity": 116,
      "chip": "ym2612"
    },
    {
      "channel": 3,
      "note": 95,
      "start": 52.66,
      "duration": 0.2458,
      "velocity": 100,
      "chip": "ym2612"
    },
    {
      "channel": 3,
      "note": 88,
      "start": 52.9058,
      "duration": 0.1667,
      "velocity": 100,
      "chip": "ym2612"
    },
    {
      "channel": 3,
      "note": 94,
      "start": 53.0726,
      "duration": 0.2543,
      "velocity": 100,
      "chip": "ym2612"
    },
    {
      "channel": 0,
      "note": 63,
      "start": 53.3198,
      "duration": 2.6666,
      "velocity": 119,
      "chip": "ym2612"
    },
    {
      "channel": 1,
      "note": 45,
      "start": 53.3208,
      "duration": 1.3333,
      "velocity": 92,
      "chip": "ym2612"
    },
    {
      "channel": 2,
      "note": 53,
      "start": 53.3259,
      "duration": 0.4123,
      "velocity": 116,
      "chip": "ym2612"
    },
    {
      "channel": 3,
      "note": 95,
      "start": 53.3269,
      "duration": 0.2457,
      "velocity": 100,
      "chip": "ym2612"
    },
    {
      "channel": 4,
      "note": 63,
      "start": 53.3569,
      "duration": 2.6667,
      "velocity": 119,
      "chip": "ym2612"
    },
    {
      "channel": 3,
      "note": 86,
      "start": 53.5726,
      "duration": 0.1667,
      "velocity": 100,
      "chip": "ym2612"
    },
    {
      "channel": 2,
      "note": 52,
      "start": 53.7383,
      "duration": 0.2494,
      "velocity": 116,
      "chip": "ym2612"
    },
    {
      "channel": 3,
      "note": 94,
      "start": 53.7393,
      "duration": 0.254,
      "velocity": 100,
      "chip": "ym2612"
    },
    {
      "channel": 2,
      "note": 50,
      "start": 53.9923,
      "duration": 0.6622,
      "velocity": 116,
      "chip": "ym2612"
    },
    {
      "channel": 3,
      "note": 86,
      "start": 53.9933,
      "duration": 0.2458,
      "velocity": 100,
      "chip": "ym2612"
    },
    {
      "channel": 3,
      "note": 94,
      "start": 54.2391,
      "duration": 0.1667,
      "velocity": 100,
      "chip": "ym2612"
    },
    {
      "channel": 3,
      "note": 95,
      "start": 54.4058,
      "duration": 0.2543,
      "velocity": 100,
      "chip": "ym2612"
    },
    {
      "channel": 1,
      "note": 38,
      "start": 54.6541,
      "duration": 1.3334,
      "velocity": 92,
      "chip": "ym2612"
    },
    {
      "channel": 2,
      "note": 42,
      "start": 54.6591,
      "duration": 0.4125,
      "velocity": 116,
      "chip": "ym2612"
    },
    {
      "channel": 3,
      "note": 86,
      "start": 54.6602,
      "duration": 0.2457,
      "velocity": 100,
      "chip": "ym2612"
    },
    {
      "channel": 3,
      "note": 94,
      "start": 54.9059,
      "duration": 0.1668,
      "velocity": 100,
      "chip": "ym2612"
    },
    {
      "channel": 2,
      "note": 42,
      "start": 55.0717,
      "duration": 0.2494,
      "velocity": 116,
      "chip": "ym2612"
    },
    {
      "channel": 3,
      "note": 95,
      "start": 55.0727,
      "duration": 0.254,
      "velocity": 100,
      "chip": "ym2612"
    },
    {
      "channel": 2,
      "note": 48,
      "start": 55.3257,
      "duration": 0.6622,
      "velocity": 116,
      "chip": "ym2612"
    },
    {
      "channel": 3,
      "note": 86,
      "start": 55.3267,
      "duration": 0.2458,
      "velocity": 100,
      "chip": "ym2612"
    },
    {
      "channel": 3,
      "note": 94,
      "start": 55.5725,
      "duration": 0.1667,
      "velocity": 100,
      "chip": "ym2612"
    },
    {
      "channel": 3,
      "note": 95,
      "start": 55.7392,
      "duration": 0.2543,
      "velocity": 100,
      "chip": "ym2612"
    },
    {
      "channel": 0,
      "note": 62,
      "start": 55.9865,
      "duration": 2.6667,
      "velocity": 119,
      "chip": "ym2612"
    },
    {
      "channel": 1,
      "note": 37,
      "start": 55.9875,
      "duration": 1.3333,
      "velocity": 92,
      "chip": "ym2612"
    },
    {
      "channel": 2,
      "note": 54,
      "start": 55.9925,
      "duration": 0.4123,
      "velocity": 116,
      "chip": "ym2612"
    },
    {
      "channel": 3,
      "note": 94,
      "start": 55.9936,
      "duration": 0.2457,
      "velocity": 100,
      "chip": "ym2612"
    },
    {
      "channel": 4,
      "note": 62,
      "start": 56.0236,
      "duration": 2.6667,
      "velocity": 119,
      "chip": "ym2612"
    },
    {
      "channel": 3,
      "note": 85,
      "start": 56.2393,
      "duration": 0.1667,
      "velocity": 100,
      "chip": "ym2612"
    },
    {
      "channel": 2,
      "note": 52,
      "start": 56.4049,
      "duration": 0.2494,
      "velocity": 116,
      "chip": "ym2612"
    },
    {
      "channel": 3,
      "note": 90,
      "start": 56.406,
      "duration": 0.254,
      "velocity": 100,
      "chip": "ym2612"
    },
    {
      "channel": 2,
      "note": 51,
      "start": 56.659,
      "duration": 0.6622,
      "velocity": 116,
      "chip": "ym2612"
    },
    {
      "channel": 3,
      "note": 94,
      "start": 56.66,
      "duration": 0.2458,
      "velocity": 100,
      "chip": "ym2612"
    },
    {
      "channel": 3,
      "note": 85,
      "start": 56.9058,
      "duration": 0.1667,
      "velocity": 100,
      "chip": "ym2612"
    },
    {
      "channel": 3,
      "note": 90,
      "start": 57.0725,
      "duration": 0.2543,
      "velocity": 100,
      "chip": "ym2612"
    },
    {
      "channel": 1,
      "note": 42,
      "start": 57.3208,
      "duration": 1.3335,
      "velocity": 92,
      "chip": "ym2612"
    },
    {
      "channel": 2,
      "note": 41,
      "start": 57.3258,
      "duration": 0.4125,
      "velocity": 116,
      "chip": "ym2612"
    },
    {
      "channel": 3,
      "note": 92,
      "start": 57.3268,
      "duration": 0.2457,
      "velocity": 100,
      "chip": "ym2612"
    },
    {
      "channel": 3,
      "note": 85,
      "start": 57.5726,
      "duration": 0.1668,
      "velocity": 100,
      "chip": "ym2612"
    },
    {
      "channel": 2,
      "note": 41,
      "start": 57.7383,
      "duration": 0.2494,
      "velocity": 116,
      "chip": "ym2612"
    },
    {
      "channel": 3,
      "note": 89,
      "start": 57.7394,
      "duration": 0.254,
      "velocity": 100,
      "chip": "ym2612"
    },
    {
      "channel": 2,
      "note": 47,
      "start": 57.9923,
      "duration": 0.6624,
      "velocity": 116,
      "chip": "ym2612"
    },
    {
      "channel": 3,
      "note": 90,
      "start": 57.9934,
      "duration": 0.2458,
      "velocity": 100,
      "chip": "ym2612"
    },
    {
      "channel": 3,
      "note": 82,
      "start": 58.2392,
      "duration": 0.1667,
      "velocity": 100,
      "chip": "ym2612"
    },
    {
      "channel": 3,
      "note": 89,
      "start": 58.4059,
      "duration": 0.2544,
      "velocity": 100,
      "chip": "ym2612"
    },
    {
      "channel": 0,
      "note": 60,
      "start": 58.6533,
      "duration": 5.333,
      "velocity": 119,
      "chip": "ym2612"
    },
    {
      "channel": 1,
      "note": 35,
      "start": 58.6543,
      "duration": 1.3331,
      "velocity": 92,
      "chip": "ym2612"
    },
    {
      "channel": 2,
      "note": 49,
      "start": 58.6593,
      "duration": 0.4122,
      "velocity": 116,
      "chip": "ym2612"
    },
    {
      "channel": 3,
      "note": 90,
      "start": 58.6604,
      "duration": 0.2455,
      "velocity": 100,
      "chip": "ym2612"
    },
    {
      "channel": 4,
      "note": 60,
      "start": 58.6902,
      "duration": 5.3327,
      "velocity": 119,
      "chip": "ym2612"
    },
    {
      "channel": 3,
      "note": 83,
      "start": 58.906,
      "duration": 0.1667,
      "velocity": 100,
      "chip": "ym2612"
    },
    {
      "channel": 2,
      "note": 48,
      "start": 59.0716,
      "duration": 0.2494,
      "velocity": 116,
      "chip": "ym2612"
    },
    {
      "channel": 3,
      "note": 89,
      "start": 59.0726,
      "duration": 0.254,
      "velocity": 100,
      "chip": "ym2612"
    },
    {
      "channel": 2,
      "note": 42,
      "start": 59.3256,
      "duration": 0.6622,
      "velocity": 116,
      "chip": "ym2612"
    },
    {
      "channel": 3,
      "note": 90,
      "start": 59.3266,
      "duration": 0.2458,
      "velocity": 100,
      "chip": "ym2612"
    },
    {
      "channel": 3,
      "note": 83,
      "start": 59.5724,
      "duration": 0.1667,
      "velocity": 100,
      "chip": "ym2612"
    },
    {
      "channel": 3,
      "note": 89,
      "start": 59.7392,
      "duration": 0.2543,
      "velocity": 100,
      "chip": "ym2612"
    },
    {
      "channel": 1,
      "note": 38,
      "start": 59.9874,
      "duration": 1.3334,
      "velocity": 92,
      "chip": "ym2612"
    },
    {
      "channel": 2,
      "note": 41,
      "start": 59.9925,
      "duration": 0.4125,
      "velocity": 116,
      "chip": "ym2612"
    },
    {
      "channel": 3,
      "note": 90,
      "start": 59.9935,
      "duration": 0.2457,
      "velocity": 100,
      "chip": "ym2612"
    },
    {
      "channel": 3,
      "note": 83,
      "start": 60.2392,
      "duration": 0.1668,
      "velocity": 100,
      "chip": "ym2612"
    },
    {
      "channel": 2,
      "note": 43,
      "start": 60.405,
      "duration": 0.2494,
      "velocity": 116,
      "chip": "ym2612"
    },
    {
      "channel": 3,
      "note": 89,
      "start": 60.406,
      "duration": 0.254,
      "velocity": 100,
      "chip": "ym2612"
    },
    {
      "channel": 2,
      "note": 45,
      "start": 60.659,
      "duration": 0.6622,
      "velocity": 116,
      "chip": "ym2612"
    },
    {
      "channel": 3,
      "note": 90,
      "start": 60.66,
      "duration": 0.2458,
      "velocity": 100,
      "chip": "ym2612"
    },
    {
      "channel": 3,
      "note": 83,
      "start": 60.9058,
      "duration": 0.1667,
      "velocity": 100,
      "chip": "ym2612"
    },
    {
      "channel": 3,
      "note": 89,
      "start": 61.0726,
      "duration": 0.2543,
      "velocity": 100,
      "chip": "ym2612"
    },
    {
      "channel": 1,
      "note": 37,
      "start": 61.3208,
      "duration": 1.3334,
      "velocity": 92,
      "chip": "ym2612"
    },
    {
      "channel": 2,
      "note": 49,
      "start": 61.3259,
      "duration": 0.4125,
      "velocity": 116,
      "chip": "ym2612"
    },
    {
      "channel": 3,
      "note": 90,
      "start": 61.3269,
      "duration": 0.2457,
      "velocity": 100,
      "chip": "ym2612"
    },
    {
      "channel": 3,
      "note": 83,
      "start": 61.5726,
      "duration": 0.1668,
      "velocity": 100,
      "chip": "ym2612"
    },
    {
      "channel": 2,
      "note": 48,
      "start": 61.7384,
      "duration": 0.2493,
      "velocity": 116,
      "chip": "ym2612"
    },
    {
      "channel": 3,
      "note": 89,
      "start": 61.7394,
      "duration": 0.2538,
      "velocity": 100,
      "chip": "ym2612"
    },
    {
      "channel": 2,
      "note": 42,
      "start": 61.9923,
      "duration": 0.6623,
      "velocity": 116,
      "chip": "ym2612"
    },
    {
      "channel": 3,
      "note": 90,
      "start": 61.9933,
      "duration": 0.2459,
      "velocity": 100,
      "chip": "ym2612"
    },
    {
      "channel": 3,
      "note": 83,
      "start": 62.2392,
      "duration": 0.1667,
      "velocity": 100,
      "chip": "ym2612"
    },
    {
      "channel": 3,
      "note": 89,
      "start": 62.406,
      "duration": 0.2543,
      "velocity": 100,
      "chip": "ym2612"
    },
    {
      "channel": 1,
      "note": 34,
      "start": 62.6542,
      "duration": 1.3376,
      "velocity": 92,
      "chip": "ym2612"
    },
    {
      "channel": 2,
      "note": 41,
      "start": 62.6593,
      "duration": 0.4124,
      "velocity": 116,
      "chip": "ym2612"
    },
    {
      "channel": 3,
      "note": 90,
      "start": 62.6603,
      "duration": 0.2457,
      "velocity": 100,
      "chip": "ym2612"
    },
    {
      "channel": 3,
      "note": 83,
      "start": 62.906,
      "duration": 0.1668,
      "velocity": 100,
      "chip": "ym2612"
    },
    {
      "channel": 2,
      "note": 43,
      "start": 63.0718,
      "duration": 0.2494,
      "velocity": 116,
      "chip": "ym2612"
    },
    {
      "channel": 3,
      "note": 89,
      "start": 63.0728,
      "duration": 0.254,
      "velocity": 100,
      "chip": "ym2612"
    },
    {
      "channel": 2,
      "note": 45,
      "start": 63.3258,
      "duration": 0.6665,
      "velocity": 116,
      "chip": "ym2612"
    },
    {
      "channel": 3,
      "note": 90,
      "start": 63.3268,
      "duration": 0.2458,
      "velocity": 100,
      "chip": "ym2612"
    },
    {
      "channel": 3,
      "note": 83,
      "start": 63.5726,
      "duration": 0.1667,
      "velocity": 100,
      "chip": "ym2612"
    },
    {
      "channel": 3,
      "note": 89,
      "start": 63.7394,
      "duration": 0.2585,
      "velocity": 100,
      "chip": "ym2612"
    },
    {
      "channel": 0,
      "note": 48,
      "start": 63.9908,
      "duration": 2.6617,
      "velocity": 116,
      "chip": "ym2612"
    },
    {
      "channel": 1,
      "note": 35,
      "start": 63.9919,
      "duration": 1.3288,
      "velocity": 92,
      "chip": "ym2612"
    },
    {
      "channel": 2,
      "note": 49,
      "start": 63.9969,
      "duration": 0.408,
      "velocity": 116,
      "chip": "ym2612"
    },
    {
      "channel": 3,
      "note": 90,
      "start": 63.9979,
      "duration": 0.2412,
      "velocity": 100,
      "chip": "ym2612"
    },
    {
      "channel": 4,
      "note": 60,
      "start": 64.0276,
      "duration": 2.662,
      "velocity": 100,
      "chip": "ym2612"
    },
    {
      "channel": 3,
      "note": 83,
      "start": 64.2392,
      "duration": 0.1668,
      "velocity": 100,
      "chip": "ym2612"
    },
    {
      "channel": 2,
      "note": 48,
      "start": 64.4049,
      "duration": 0.2494,
      "velocity": 116,
      "chip": "ym2612"
    },
    {
      "channel": 3,
      "note": 89,
      "start": 64.406,
      "duration": 0.2539,
      "velocity": 100,
      "chip": "ym2612"
    },
    {
      "channel": 2,
      "note": 42,
      "start": 64.659,
      "duration": 0.6621,
      "velocity": 116,
      "chip": "ym2612"
    },
    {
      "channel": 3,
      "note": 90,
      "start": 64.66,
      "duration": 0.2458,
      "velocity": 100,
      "chip": "ym2612"
    },
    {
      "channel": 3,
      "note": 83,
      "start": 64.9058,
      "duration": 0.1667,
      "velocity": 100,
      "chip": "ym2612"
    },
    {
      "channel": 3,
      "note": 89,
      "start": 65.0724,
      "duration": 0.2543,
      "velocity": 100,
      "chip": "ym2612"
    },
    {
      "channel": 1,
      "note": 38,
      "start": 65.3207,
      "duration": 1.3375,
      "velocity": 92,
      "chip": "ym2612"
    },
    {
      "channel": 2,
      "note": 41,
      "start": 65.3257,
      "duration": 0.4125,
      "velocity": 116,
      "chip": "ym2612"
    },
    {
      "channel": 3,
      "note": 90,
      "start": 65.3267,
      "duration": 0.246,
      "velocity": 100,
      "chip": "ym2612"
    },
    {
      "channel": 3,
      "note": 83,
      "start": 65.5727,
      "duration": 0.1665,
      "velocity": 100,
      "chip": "ym2612"
    },
    {
      "channel": 2,
      "note": 43,
      "start": 65.7381,
      "duration": 0.2497,
      "velocity": 116,
      "chip": "ym2612"
    },
    {
      "channel": 3,
      "note": 89,
      "start": 65.7392,
      "duration": 0.2543,
      "velocity": 100,
      "chip": "ym2612"
    },
    {
      "channel": 2,
      "note": 45,
      "start": 65.9925,
      "duration": 0.666,
      "velocity": 116,
      "chip": "ym2612"
    },
    {
      "channel": 3,
      "note": 90,
      "start": 65.9935,
      "duration": 0.2456,
      "velocity": 100,
      "chip": "ym2612"
    },
    {
      "channel": 3,
      "note": 83,
      "start": 66.239,
      "duration": 0.1669,
      "velocity": 100,
      "chip": "ym2612"
    },
    {
      "channel": 3,
      "note": 89,
      "start": 66.406,
      "duration": 0.2581,
      "velocity": 100,
      "chip": "ym2612"
    },
    {
      "channel": 0,
      "note": 43,
      "start": 66.6571,
      "duration": 0.9954,
      "velocity": 116,
      "chip": "ym2612"
    },
    {
      "channel": 1,
      "note": 42,
      "start": 66.6581,
      "duration": 1.3295,
      "velocity": 92,
      "chip": "ym2612"
    },
    {
      "channel": 2,
      "note": 48,
      "start": 66.6632,
      "duration": 0.4084,
      "velocity": 116,
      "chip": "ym2612"
    },
    {
      "channel": 3,
      "note": 90,
      "start": 66.6642,
      "duration": 0.2416,
      "velocity": 100,
      "chip": "ym2612"
    },
    {
      "channel": 4,
      "note": 61,
      "start": 66.6943,
      "duration": 0.9952,
      "velocity": 100,
      "chip": "ym2612"
    },
    {
      "channel": 3,
      "note": 82,
      "start": 66.9058,
      "duration": 0.1668,
      "velocity": 100,
      "chip": "ym2612"
    },
    {
      "channel": 2,
      "note": 47,
      "start": 67.0715,
      "duration": 0.2497,
      "velocity": 116,
      "chip": "ym2612"
    },
    {
      "channel": 3,
      "note": 89,
      "start": 67.0726,
      "duration": 0.2543,
      "velocity": 100,
      "chip": "ym2612"
    },
    {
      "channel": 2,
      "note": 42,
      "start": 67.3259,
      "duration": 0.6621,
      "velocity": 116,
      "chip": "ym2612"
    },
    {
      "channel": 3,
      "note": 90,
      "start": 67.3269,
      "duration": 0.2455,
      "velocity": 100,
      "chip": "ym2612"
    },
    {
      "channel": 3,
      "note": 82,
      "start": 67.5724,
      "duration": 0.1668,
      "velocity": 100,
      "chip": "ym2612"
    },
    {
      "channel": 0,
      "note": 72,
      "start": 67.6571,
      "duration": 0.0793,
      "velocity": 119,
      "chip": "ym2612"
    },
    {
      "channel": 4,
      "note": 85,
      "start": 67.6941,
      "duration": 0.0793,
      "velocity": 119,
      "chip": "ym2612"
    },
    {
      "channel": 0,
      "note": 78,
      "start": 67.7364,
      "duration": 0.0833,
      "velocity": 119,
      "chip": "ym2612"
    },
    {
      "channel": 3,
      "note": 89,
      "start": 67.7393,
      "duration": 0.2543,
      "velocity": 100,
      "chip": "ym2612"
    },
    {
      "channel": 4,
      "note": 90,
      "start": 67.7735,
      "duration": 0.0833,
      "velocity": 119,
      "chip": "ym2612"
    },
    {
      "channel": 0,
      "note": 81,
      "start": 67.8197,
      "duration": 0.1668,
      "velocity": 119,
      "chip": "ym2612"
    },
    {
      "channel": 4,
      "note": 93,
      "start": 67.8568,
      "duration": 0.1667,
      "velocity": 119,
      "chip": "ym2612"
    },
    {
      "channel": 0,
      "note": 84,
      "start": 67.9866,
      "duration": 1.3328,
      "velocity": 119,
      "chip": "ym2612"
    },
    {
      "channel": 1,
      "note": 37,
      "start": 67.9876,
      "duration": 1.3373,
      "velocity": 92,
      "chip": "ym2612"
    },
    {
      "channel": 2,
      "note": 41,
      "start": 67.9926,
      "duration": 0.4122,
      "velocity": 116,
      "chip": "ym2612"
    },
    {
      "channel": 3,
      "note": 90,
      "start": 67.9936,
      "duration": 0.2454,
      "velocity": 100,
      "chip": "ym2612"
    },
    {
      "channel": 4,
      "note": 97,
      "start": 68.0235,
      "duration": 1.3328,
      "velocity": 119,
      "chip": "ym2612"
    },
    {
      "channel": 3,
      "note": 82,
      "start": 68.2391,
      "duration": 0.1668,
      "velocity": 100,
      "chip": "ym2612"
    },
    {
      "channel": 2,
      "note": 43,
      "start": 68.4048,
      "duration": 0.2494,
      "velocity": 116,
      "chip": "ym2612"
    },
    {
      "channel": 3,
      "note": 89,
      "start": 68.4059,
      "duration": 0.2539,
      "velocity": 100,
      "chip": "ym2612"
    },
    {
      "channel": 2,
      "note": 45,
      "start": 68.6588,
      "duration": 0.6665,
      "velocity": 116,
      "chip": "ym2612"
    },
    {
      "channel": 3,
      "note": 90,
      "start": 68.6599,
      "duration": 0.2458,
      "velocity": 100,
      "chip": "ym2612"
    },
    {
      "channel": 3,
      "note": 82,
      "start": 68.9057,
      "duration": 0.1667,
      "velocity": 100,
      "chip": "ym2612"
    },
    {
      "channel": 3,
      "note": 89,
      "start": 69.0724,
      "duration": 0.2586,
      "velocity": 100,
      "chip": "ym2612"
    },
    {
      "channel": 0,
      "note": 48,
      "start": 69.3239,
      "duration": 2.662,
      "velocity": 122,
      "chip": "ym2612"
    },
    {
      "channel": 1,
      "note": 34,
      "start": 69.3249,
      "duration": 1.3291,
      "velocity": 92,
      "chip": "ym2612"
    },
    {
      "channel": 2,
      "note": 50,
      "start": 69.3299,
      "duration": 0.4083,
      "velocity": 116,
      "chip": "ym2612"
    },
    {
      "channel": 3,
      "note": 90,
      "start": 69.331,
      "duration": 0.2414,
      "velocity": 100,
      "chip": "ym2612"
    },
    {
      "channel": 4,
      "note": 66,
      "start": 69.3609,
      "duration": 2.6619,
      "velocity": 100,
      "chip": "ym2612"
    },
    {
      "channel": 3,
      "note": 82,
      "start": 69.5725,
      "duration": 0.1668,
      "velocity": 100,
      "chip": "ym2612"
    },
    {
      "channel": 2,
      "note": 50,
      "start": 69.7382,
      "duration": 0.2494,
      "velocity": 116,
      "chip": "ym2612"
    },
    {
      "channel": 3,
      "note": 89,
      "start": 69.7393,
      "duration": 0.254,
      "velocity": 100,
      "chip": "ym2612"
    },
    {
      "channel": 2,
      "note": 42,
      "start": 69.9922,
      "duration": 0.6622,
      "velocity": 116,
      "chip": "ym2612"
    },
    {
      "channel": 3,
      "note": 90,
      "start": 69.9933,
      "duration": 0.2458,
      "velocity": 100,
      "chip": "ym2612"
    },
    {
      "channel": 3,
      "note": 82,
      "start": 70.2391,
      "duration": 0.1667,
      "velocity": 100,
      "chip": "ym2612"
    },
    {
      "channel": 3,
      "note": 89,
      "start": 70.4058,
      "duration": 0.2543,
      "velocity": 100,
      "chip": "ym2612"
    },
    {
      "channel": 1,
      "note": 37,
      "start": 70.654,
      "duration": 1.3373,
      "velocity": 92,
      "chip": "ym2612"
    },
    {
      "channel": 2,
      "note": 41,
      "start": 70.659,
      "duration": 0.4125,
      "velocity": 116,
      "chip": "ym2612"
    },
    {
      "channel": 3,
      "note": 90,
      "start": 70.66,
      "duration": 0.2459,
      "velocity": 100,
      "chip": "ym2612"
    },
    {
      "channel": 3,
      "note": 82,
      "start": 70.906,
      "duration": 0.1665,
      "velocity": 100,
      "chip": "ym2612"
    },
    {
      "channel": 2,
      "note": 43,
      "start": 71.0715,
      "duration": 0.2497,
      "velocity": 116,
      "chip": "ym2612"
    },
    {
      "channel": 3,
      "note": 89,
      "start": 71.0726,
      "duration": 0.2542,
      "velocity": 100,
      "chip": "ym2612"
    },
    {
      "channel": 2,
      "note": 45,
      "start": 71.3258,
      "duration": 0.6659,
      "velocity": 116,
      "chip": "ym2612"
    },
    {
      "channel": 3,
      "note": 90,
      "start": 71.3268,
      "duration": 0.2456,
      "velocity": 100,
      "chip": "ym2612"
    },
    {
      "channel": 3,
      "note": 82,
      "start": 71.5724,
      "duration": 0.1669,
      "velocity": 100,
      "chip": "ym2612"
    },
    {
      "channel": 3,
      "note": 89,
      "start": 71.7394,
      "duration": 0.258,
      "velocity": 100,
      "chip": "ym2612"
    },
    {
      "channel": 0,
      "note": 42,
      "start": 71.9903,
      "duration": 0.9955,
      "velocity": 116,
      "chip": "ym2612"
    },
    {
      "channel": 1,
      "note": 42,
      "start": 71.9913,
      "duration": 1.3296,
      "velocity": 92,
      "chip": "ym2612"
    },
    {
      "channel": 2,
      "note": 49,
      "start": 71.9963,
      "duration": 0.4085,
      "velocity": 116,
      "chip": "ym2612"
    },
    {
      "channel": 3,
      "note": 90,
      "start": 71.9974,
      "duration": 0.2417,
      "velocity": 100,
      "chip": "ym2612"
    },
    {
      "channel": 4,
      "note": 61,
      "start": 72.0273,
      "duration": 0.9955,
      "velocity": 100,
      "chip": "ym2612"
    },
    {
      "channel": 3,
      "note": 82,
      "start": 72.2392,
      "duration": 0.1668,
      "velocity": 100,
      "chip": "ym2612"
    },
    {
      "channel": 2,
      "note": 48,
      "start": 72.4049,
      "duration": 0.2497,
      "velocity": 116,
      "chip": "ym2612"
    },
    {
      "channel": 3,
      "note": 89,
      "start": 72.406,
      "duration": 0.2543,
      "velocity": 100,
      "chip": "ym2612"
    },
    {
      "channel": 2,
      "note": 42,
      "start": 72.6592,
      "duration": 0.6621,
      "velocity": 116,
      "chip": "ym2612"
    },
    {
      "channel": 3,
      "note": 90,
      "start": 72.6602,
      "duration": 0.2455,
      "velocity": 100,
      "chip": "ym2612"
    },
    {
      "channel": 3,
      "note": 82,
      "start": 72.9058,
      "duration": 0.1668,
      "velocity": 100,
      "chip": "ym2612"
    },
    {
      "channel": 0,
      "note": 75,
      "start": 72.9904,
      "duration": 0.0793,
      "velocity": 119,
      "chip": "ym2612"
    },
    {
      "channel": 4,
      "note": 88,
      "start": 73.0275,
      "duration": 0.0793,
      "velocity": 119,
      "chip": "ym2612"
    },
    {
      "channel": 0,
      "note": 78,
      "start": 73.0697,
      "duration": 0.0833,
      "velocity": 119,
      "chip": "ym2612"
    },
    {
      "channel": 3,
      "note": 89,
      "start": 73.0726,
      "duration": 0.2544,
      "velocity": 100,
      "chip": "ym2612"
    },
    {
      "channel": 4,
      "note": 90,
      "start": 73.1068,
      "duration": 0.0833,
      "velocity": 119,
      "chip": "ym2612"
    },
    {
      "channel": 0,
      "note": 71,
      "start": 73.153,
      "duration": 0.1668,
      "velocity": 119,
      "chip": "ym2612"
    },
    {
      "channel": 4,
      "note": 83,
      "start": 73.1902,
      "duration": 0.1668,
      "velocity": 119,
      "chip": "ym2612"
    },
    {
      "channel": 0,
      "note": 66,
      "start": 73.3199,
      "duration": 1.333,
      "velocity": 119,
      "chip": "ym2612"
    },
    {
      "channel": 1,
      "note": 34,
      "start": 73.3209,
      "duration": 1.3376,
      "velocity": 92,
      "chip": "ym2612"
    },
    {
      "channel": 2,
      "note": 41,
      "start": 73.3259,
      "duration": 0.4122,
      "velocity": 116,
      "chip": "ym2612"
    },
    {
      "channel": 3,
      "note": 90,
      "start": 73.3269,
      "duration": 0.2454,
      "velocity": 100,
      "chip": "ym2612"
    },
    {
      "channel": 4,
      "note": 78,
      "start": 73.357,
      "duration": 1.3326,
      "velocity": 119,
      "chip": "ym2612"
    },
    {
      "channel": 3,
      "note": 82,
      "start": 73.5724,
      "duration": 0.1668,
      "velocity": 100,
      "chip": "ym2612"
    },
    {
      "channel": 2,
      "note": 43,
      "start": 73.7381,
      "duration": 0.2494,
      "velocity": 116,
      "chip": "ym2612"
    },
    {
      "channel": 3,
      "note": 89,
      "start": 73.7392,
      "duration": 0.2539,
      "velocity": 100,
      "chip": "ym2612"
    },
    {
      "channel": 2,
      "note": 45,
      "start": 73.9922,
      "duration": 0.6667,
      "velocity": 116,
      "chip": "ym2612"
    },
    {
      "channel": 3,
      "note": 90,
      "start": 73.9932,
      "duration": 0.2458,
      "velocity": 100,
      "chip": "ym2612"
    },
    {
      "channel": 3,
      "note": 82,
      "start": 74.239,
      "duration": 0.1667,
      "velocity": 100,
      "chip": "ym2612"
    },
    {
      "channel": 3,
      "note": 89,
      "start": 74.4057,
      "duration": 0.2588,
      "velocity": 100,
      "chip": "ym2612"
    },
    {
      "channel": 0,
      "note": 52,
      "start": 74.6575,
      "duration": 2.6617,
      "velocity": 116,
      "chip": "ym2612"
    },
    {
      "channel": 1,
      "note": 35,
      "start": 74.6585,
      "duration": 1.3288,
      "velocity": 92,
      "chip": "ym2612"
    },
    {
      "channel": 2,
      "note": 49,
      "start": 74.6636,
      "duration": 0.408,
      "velocity": 116,
      "chip": "ym2612"
    },
    {
      "channel": 3,
      "note": 90,
      "start": 74.6646,
      "duration": 0.2412,
      "velocity": 100,
      "chip": "ym2612"
    },
    {
      "channel": 4,
      "note": 64,
      "start": 74.6943,
      "duration": 2.662,
      "velocity": 100,
      "chip": "ym2612"
    },
    {
      "channel": 3,
      "note": 83,
      "start": 74.9058,
      "duration": 0.1669,
      "velocity": 100,
      "chip": "ym2612"
    },
    {
      "channel": 2,
      "note": 48,
      "start": 75.0715,
      "duration": 0.2494,
      "velocity": 116,
      "chip": "ym2612"
    },
    {
      "channel": 3,
      "note": 89,
      "start": 75.0726,
      "duration": 0.2539,
      "velocity": 100,
      "chip": "ym2612"
    },
    {
      "channel": 2,
      "note": 42,
      "start": 75.3256,
      "duration": 0.6622,
      "velocity": 116,
      "chip": "ym2612"
    },
    {
      "channel": 3,
      "note": 90,
      "start": 75.3266,
      "duration": 0.2458,
      "velocity": 100,
      "chip": "ym2612"
    },
    {
      "channel": 3,
      "note": 83,
      "start": 75.5724,
      "duration": 0.1667,
      "velocity": 100,
      "chip": "ym2612"
    },
    {
      "channel": 3,
      "note": 89,
      "start": 75.7391,
      "duration": 0.2543,
      "velocity": 100,
      "chip": "ym2612"
    },
    {
      "channel": 1,
      "note": 38,
      "start": 75.9873,
      "duration": 1.3375,
      "velocity": 92,
      "chip": "ym2612"
    },
    {
      "channel": 2,
      "note": 41,
      "start": 75.9923,
      "duration": 0.4125,
      "velocity": 116,
      "chip": "ym2612"
    },
    {
      "channel": 3,
      "note": 90,
      "start": 75.9934,
      "duration": 0.2459,
      "velocity": 100,
      "chip": "ym2612"
    },
    {
      "channel": 3,
      "note": 83,
      "start": 76.2394,
      "duration": 0.1665,
      "velocity": 100,
      "chip": "ym2612"
    },
    {
      "channel": 2,
      "note": 43,
      "start": 76.4048,
      "duration": 0.2497,
      "velocity": 116,
      "chip": "ym2612"
    },
    {
      "channel": 3,
      "note": 89,
      "start": 76.4059,
      "duration": 0.2543,
      "velocity": 100,
      "chip": "ym2612"
    },
    {
      "channel": 2,
      "note": 45,
      "start": 76.6591,
      "duration": 0.666,
      "velocity": 116,
      "chip": "ym2612"
    },
    {
      "channel": 3,
      "note": 90,
      "start": 76.6602,
      "duration": 0.2456,
      "velocity": 100,
      "chip": "ym2612"
    },
    {
      "channel": 3,
      "note": 83,
      "start": 76.9057,
      "duration": 0.1669,
      "velocity": 100,
      "chip": "ym2612"
    },
    {
      "channel": 3,
      "note": 89,
      "start": 77.0726,
      "duration": 0.2582,
      "velocity": 100,
      "chip": "ym2612"
    },
    {
      "channel": 0,
      "note": 43,
      "start": 77.3238,
      "duration": 0.9954,
      "velocity": 116,
      "chip": "ym2612"
    },
    {
      "channel": 1,
      "note": 42,
      "start": 77.3248,
      "duration": 1.3295,
      "velocity": 92,
      "chip": "ym2612"
    },
    {
      "channel": 2,
      "note": 48,
      "start": 77.3298,
      "duration": 0.4084,
      "velocity": 116,
      "chip": "ym2612"
    },
    {
      "channel": 3,
      "note": 90,
      "start": 77.3308,
      "duration": 0.2416,
      "velocity": 100,
      "chip": "ym2612"
    },
    {
      "channel": 4,
      "note": 61,
      "start": 77.3609,
      "duration": 0.9952,
      "velocity": 100,
      "chip": "ym2612"
    },
    {
      "channel": 3,
      "note": 82,
      "start": 77.5724,
      "duration": 0.1669,
      "velocity": 100,
      "chip": "ym2612"
    },
    {
      "channel": 2,
      "note": 47,
      "start": 77.7382,
      "duration": 0.2497,
      "velocity": 116,
      "chip": "ym2612"
    },
    {
      "channel": 3,
      "note": 89,
      "start": 77.7393,
      "duration": 0.2542,
      "velocity": 100,
      "chip": "ym2612"
    },
    {
      "channel": 2,
      "note": 42,
      "start": 77.9925,
      "duration": 0.6621,
      "velocity": 116,
      "chip": "ym2612"
    },
    {
      "channel": 3,
      "note": 90,
      "start": 77.9936,
      "duration": 0.2455,
      "velocity": 100,
      "chip": "ym2612"
    },
    {
      "channel": 3,
      "note": 82,
      "start": 78.2391,
      "duration": 0.1668,
      "velocity": 100,
      "chip": "ym2612"
    },
    {
      "channel": 0,
      "note": 72,
      "start": 78.3238,
      "duration": 0.0793,
      "velocity": 119,
      "chip": "ym2612"
    },
    {
      "channel": 4,
      "note": 85,
      "start": 78.3608,
      "duration": 0.0793,
      "velocity": 119,
      "chip": "ym2612"
    },
    {
      "channel": 0,
      "note": 78,
      "start": 78.403,
      "duration": 0.0833,
      "velocity": 119,
      "chip": "ym2612"
    },
    {
      "channel": 3,
      "note": 89,
      "start": 78.4059,
      "duration": 0.2544,
      "velocity": 100,
      "chip": "ym2612"
    },
    {
      "channel": 4,
      "note": 90,
      "start": 78.4402,
      "duration": 0.0833,
      "velocity": 119,
      "chip": "ym2612"
    },
    {
      "channel": 0,
      "note": 81,
      "start": 78.4864,
      "duration": 0.1668,
      "velocity": 119,
      "chip": "ym2612"
    },
    {
      "channel": 4,
      "note": 93,
      "start": 78.5235,
      "duration": 0.1668,
      "velocity": 119,
      "chip": "ym2612"
    },
    {
      "channel": 0,
      "note": 84,
      "start": 78.6532,
      "duration": 1.3328,
      "velocity": 119,
      "chip": "ym2612"
    },
    {
      "channel": 1,
      "note": 37,
      "start": 78.6542,
      "duration": 1.3373,
      "velocity": 92,
      "chip": "ym2612"
    },
    {
      "channel": 2,
      "note": 41,
      "start": 78.6593,
      "duration": 0.4122,
      "velocity": 116,
      "chip": "ym2612"
    },
    {
      "channel": 3,
      "note": 90,
      "start": 78.6603,
      "duration": 0.2454,
      "velocity": 100,
      "chip": "ym2612"
    },
    {
      "channel": 4,
      "note": 97,
      "start": 78.6903,
      "duration": 1.3326,
      "velocity": 119,
      "chip": "ym2612"
    },
    {
      "channel": 3,
      "note": 82,
      "start": 78.9057,
      "duration": 0.1668,
      "velocity": 100,
      "chip": "ym2612"
    },
    {
      "channel": 2,
      "note": 43,
      "start": 79.0715,
      "duration": 0.2494,
      "velocity": 116,
      "chip": "ym2612"
    },
    {
      "channel": 3,
      "note": 89,
      "start": 79.0726,
      "duration": 0.2539,
      "velocity": 100,
      "chip": "ym2612"
    },
    {
      "channel": 2,
      "note": 45,
      "start": 79.3255,
      "duration": 0.6665,
      "velocity": 116,
      "chip": "ym2612"
    },
    {
      "channel": 3,
      "note": 90,
      "start": 79.3266,
      "duration": 0.2458,
      "velocity": 100,
      "chip": "ym2612"
    },
    {
      "channel": 3,
      "note": 82,
      "start": 79.5724,
      "duration": 0.1667,
      "velocity": 100,
      "chip": "ym2612"
    },
    {
      "channel": 3,
      "note": 89,
      "start": 79.739,
      "duration": 0.2586,
      "velocity": 100,
      "chip": "ym2612"
    },
    {
      "channel": 0,
      "note": 48,
      "start": 79.9906,
      "duration": 2.662,
      "velocity": 122,
      "chip": "ym2612"
    },
    {
      "channel": 1,
      "note": 34,
      "start": 79.9916,
      "duration": 1.3291,
      "velocity": 92,
      "chip": "ym2612"
    },
    {
      "channel": 2,
      "note": 50,
      "start": 79.9966,
      "duration": 0.4083,
      "velocity": 116,
      "chip": "ym2612"
    },
    {
      "channel": 3,
      "note": 90,
      "start": 79.9976,
      "duration": 0.2415,
      "velocity": 100,
      "chip": "ym2612"
    },
    {
      "channel": 4,
      "note": 66,
      "start": 80.0276,
      "duration": 2.6619,
      "velocity": 100,
      "chip": "ym2612"
    },
    {
      "channel": 3,
      "note": 82,
      "start": 80.2391,
      "duration": 0.1669,
      "velocity": 100,
      "chip": "ym2612"
    },
    {
      "channel": 2,
      "note": 50,
      "start": 80.4049,
      "duration": 0.2494,
      "velocity": 116,
      "chip": "ym2612"
    },
    {
      "channel": 3,
      "note": 89,
      "start": 80.406,
      "duration": 0.2539,
      "velocity": 100,
      "chip": "ym2612"
    },
    {
      "channel": 2,
      "note": 42,
      "start": 80.6589,
      "duration": 0.6622,
      "velocity": 116,
      "chip": "ym2612"
    },
    {
      "channel": 3,
      "note": 90,
      "start": 80.66,
      "duration": 0.2458,
      "velocity": 100,
      "chip": "ym2612"
    },
    {
      "channel": 3,
      "note": 82,
      "start": 80.9058,
      "duration": 0.1667,
      "velocity": 100,
      "chip": "ym2612"
    },
    {
      "channel": 3,
      "note": 89,
      "start": 81.0724,
      "duration": 0.2543,
      "velocity": 100,
      "chip": "ym2612"
    },
    {
      "channel": 1,
      "note": 37,
      "start": 81.3207,
      "duration": 1.3373,
      "velocity": 92,
      "chip": "ym2612"
    },
    {
      "channel": 2,
      "note": 41,
      "start": 81.3257,
      "duration": 0.4125,
      "velocity": 116,
      "chip": "ym2612"
    },
    {
      "channel": 3,
      "note": 90,
      "start": 81.3267,
      "duration": 0.2459,
      "velocity": 100,
      "chip": "ym2612"
    },
    {
      "channel": 3,
      "note": 82,
      "start": 81.5727,
      "duration": 0.1665,
      "velocity": 100,
      "chip": "ym2612"
    },
    {
      "channel": 2,
      "note": 43,
      "start": 81.7381,
      "duration": 0.2496,
      "velocity": 116,
      "chip": "ym2612"
    },
    {
      "channel": 3,
      "note": 89,
      "start": 81.7392,
      "duration": 0.2542,
      "velocity": 100,
      "chip": "ym2612"
    },
    {
      "channel": 2,
      "note": 45,
      "start": 81.9924,
      "duration": 0.666,
      "velocity": 116,
      "chip": "ym2612"
    },
    {
      "channel": 3,
      "note": 90,
      "start": 81.9935,
      "duration": 0.2457,
      "velocity": 100,
      "chip": "ym2612"
    },
    {
      "channel": 3,
      "note": 82,
      "start": 82.2392,
      "duration": 0.1668,
      "velocity": 100,
      "chip": "ym2612"
    },
    {
      "channel": 3,
      "note": 89,
      "start": 82.406,
      "duration": 0.2581,
      "velocity": 100,
      "chip": "ym2612"
    },
    {
      "channel": 0,
      "note": 42,
      "start": 82.657,
      "duration": 0.9955,
      "velocity": 116,
      "chip": "ym2612"
    },
    {
      "channel": 1,
      "note": 42,
      "start": 82.658,
      "duration": 1.3296,
      "velocity": 92,
      "chip": "ym2612"
    },
    {
      "channel": 2,
      "note": 49,
      "start": 82.663,
      "duration": 0.4085,
      "velocity": 116,
      "chip": "ym2612"
    },
    {
      "channel": 3,
      "note": 90,
      "start": 82.664,
      "duration": 0.2417,
      "velocity": 100,
      "chip": "ym2612"
    },
    {
      "channel": 4,
      "note": 61,
      "start": 82.694,
      "duration": 0.9955,
      "velocity": 100,
      "chip": "ym2612"
    },
    {
      "channel": 3,
      "note": 82,
      "start": 82.9058,
      "duration": 0.1669,
      "velocity": 100,
      "chip": "ym2612"
    },
    {
      "channel": 2,
      "note": 48,
      "start": 83.0715,
      "duration": 0.2496,
      "velocity": 116,
      "chip": "ym2612"
    },
    {
      "channel": 3,
      "note": 89,
      "start": 83.0726,
      "duration": 0.2542,
      "velocity": 100,
      "chip": "ym2612"
    },
    {
      "channel": 2,
      "note": 42,
      "start": 83.3258,
      "duration": 0.6622,
      "velocity": 116,
      "chip": "ym2612"
    },
    {
      "channel": 3,
      "note": 90,
      "start": 83.3269,
      "duration": 0.2455,
      "velocity": 100,
      "chip": "ym2612"
    },
    {
      "channel": 3,
      "note": 82,
      "start": 83.5724,
      "duration": 0.1668,
      "velocity": 100,
      "chip": "ym2612"
    },
    {
      "channel": 0,
      "note": 75,
      "start": 83.6571,
      "duration": 0.0793,
      "velocity": 119,
      "chip": "ym2612"
    },
    {
      "channel": 4,
      "note": 88,
      "start": 83.6941,
      "duration": 0.0793,
      "velocity": 119,
      "chip": "ym2612"
    },
    {
      "channel": 0,
      "note": 78,
      "start": 83.7364,
      "duration": 0.0833,
      "velocity": 119,
      "chip": "ym2612"
    },
    {
      "channel": 3,
      "note": 89,
      "start": 83.7392,
      "duration": 0.2544,
      "velocity": 100,
      "chip": "ym2612"
    },
    {
      "channel": 4,
      "note": 90,
      "start": 83.7734,
      "duration": 0.0833,
      "velocity": 119,
      "chip": "ym2612"
    },
    {
      "channel": 0,
      "note": 71,
      "start": 83.8197,
      "duration": 0.1668,
      "velocity": 119,
      "chip": "ym2612"
    },
    {
      "channel": 4,
      "note": 83,
      "start": 83.8568,
      "duration": 0.1668,
      "velocity": 119,
      "chip": "ym2612"
    },
    {
      "channel": 0,
      "note": 66,
      "start": 83.9865,
      "duration": 1.3328,
      "velocity": 119,
      "chip": "ym2612"
    },
    {
      "channel": 1,
      "note": 34,
      "start": 83.9876,
      "duration": 1.3372,
      "velocity": 92,
      "chip": "ym2612"
    },
    {
      "channel": 2,
      "note": 41,
      "start": 83.9926,
      "duration": 0.4122,
      "velocity": 116,
      "chip": "ym2612"
    },
    {
      "channel": 3,
      "note": 90,
      "start": 83.9936,
      "duration": 0.2454,
      "velocity": 100,
      "chip": "ym2612"
    },
    {
      "channel": 4,
      "note": 78,
      "start": 84.0237,
      "duration": 1.3324,
      "velocity": 119,
      "chip": "ym2612"
    },
    {
      "channel": 3,
      "note": 82,
      "start": 84.239,
      "duration": 0.1668,
      "velocity": 100,
      "chip": "ym2612"
    },
    {
      "channel": 2,
      "note": 43,
      "start": 84.4048,
      "duration": 0.2494,
      "velocity": 116,
      "chip": "ym2612"
    },
    {
      "channel": 3,
      "note": 89,
      "start": 84.4059,
      "duration": 0.2539,
      "velocity": 100,
      "chip": "ym2612"
    },
    {
      "channel": 2,
      "note": 45,
      "start": 84.6588,
      "duration": 0.6663,
      "velocity": 116,
      "chip": "ym2612"
    },
    {
      "channel": 3,
      "note": 90,
      "start": 84.6598,
      "duration": 0.246,
      "velocity": 100,
      "chip": "ym2612"
    },
    {
      "channel": 3,
      "note": 82,
      "start": 84.9058,
      "duration": 0.1666,
      "velocity": 100,
      "chip": "ym2612"
    },
    {
      "channel": 3,
      "note": 89,
      "start": 85.0724,
      "duration": 0.2578,
      "velocity": 100,
      "chip": "ym2612"
    },
    {
      "channel": 0,
      "note": 66,
      "start": 85.3238,
      "duration": 0.9125,
      "velocity": 89,
      "chip": "ym2612"
    },
    {
      "channel": 1,
      "note": 35,
      "start": 85.3248,
      "duration": 1.3286,
      "velocity": 92,
      "chip": "ym2612"
    },
    {
      "channel": 2,
      "note": 49,
      "start": 85.3298,
      "duration": 0.4084,
      "velocity": 116,
      "chip": "ym2612"
    },
    {
      "channel": 3,
      "note": 71,
      "start": 85.3364,
      "duration": 2.6611,
      "velocity": 100,
      "chip": "ym2612"
    },
    {
      "channel": 4,
      "note": 78,
      "start": 85.3606,
      "duration": 0.9128,
      "velocity": 89,
      "chip": "ym2612"
    },
    {
      "channel": 2,
      "note": 48,
      "start": 85.7382,
      "duration": 0.2492,
      "velocity": 116,
      "chip": "ym2612"
    },
    {
      "channel": 2,
      "note": 42,
      "start": 85.9921,
      "duration": 0.6662,
      "velocity": 116,
      "chip": "ym2612"
    },
    {
      "channel": 0,
      "note": 70,
      "start": 86.2363,
      "duration": 0.4167,
      "velocity": 89,
      "chip": "ym2612"
    },
    {
      "channel": 4,
      "note": 82,
      "start": 86.2734,
      "duration": 0.4167,
      "velocity": 89,
      "chip": "ym2612"
    },
    {
      "channel": 0,
      "note": 69,
      "start": 86.653,
      "duration": 0.9165,
      "velocity": 89,
      "chip": "ym2612"
    },
    {
      "channel": 1,
      "note": 35,
      "start": 86.6579,
      "duration": 1.3289,
      "velocity": 100,
      "chip": "ym2612"
    },
    {
      "channel": 2,
      "note": 41,
      "start": 86.6629,
      "duration": 0.4085,
      "velocity": 116,
      "chip": "ym2612"
    },
    {
      "channel": 4,
      "note": 81,
      "start": 86.6902,
      "duration": 0.9165,
      "velocity": 89,
      "chip": "ym2612"
    },
    {
      "channel": 2,
      "note": 45,
      "start": 87.0715,
      "duration": 0.2494,
      "velocity": 116,
      "chip": "ym2612"
    },
    {
      "channel": 2,
      "note": 42,
      "start": 87.3255,
      "duration": 0.6663,
      "velocity": 116,
      "chip": "ym2612"
    },
    {
      "channel": 0,
      "note": 68,
      "start": 87.5696,
      "duration": 0.4168,
      "velocity": 89,
      "chip": "ym2612"
    },
    {
      "channel": 4,
      "note": 80,
      "start": 87.6067,
      "duration": 0.4169,
      "velocity": 89,
      "chip": "ym2612"
    },
    {
      "channel": 0,
      "note": 66,
      "start": 87.9864,
      "duration": 0.9993,
      "velocity": 89,
      "chip": "ym2612"
    },
    {
      "channel": 1,
      "note": 37,
      "start": 87.9915,
      "duration": 1.3286,
      "velocity": 92,
      "chip": "ym2612"
    },
    {
      "channel": 2,
      "note": 47,
      "start": 87.9965,
      "duration": 0.4084,
      "velocity": 116,
      "chip": "ym2612"
    },
    {
      "channel": 3,
      "note": 70,
      "start": 87.9975,
      "duration": 2.6724,
      "velocity": 100,
      "chip": "ym2612"
    },
    {
      "channel": 4,
      "note": 78,
      "start": 88.0236,
      "duration": 0.9992,
      "velocity": 89,
      "chip": "ym2612"
    },
    {
      "channel": 2,
      "note": 47,
      "start": 88.4049,
      "duration": 0.2492,
      "velocity": 116,
      "chip": "ym2612"
    },
    {
      "channel": 2,
      "note": 42,
      "start": 88.6588,
      "duration": 0.6663,
      "velocity": 116,
      "chip": "ym2612"
    },
    {
      "channel": 0,
      "note": 75,
      "start": 88.9903,
      "duration": 0.0793,
      "velocity": 119,
      "chip": "ym2612"
    },
    {
      "channel": 4,
      "note": 87,
      "start": 89.0275,
      "duration": 0.0793,
      "velocity": 119,
      "chip": "ym2612"
    },
    {
      "channel": 0,
      "note": 78,
      "start": 89.0697,
      "duration": 0.0833,
      "velocity": 119,
      "chip": "ym2612"
    },
    {
      "channel": 4,
      "note": 90,
      "start": 89.1068,
      "duration": 0.0833,
      "velocity": 119,
      "chip": "ym2612"
    },
    {
      "channel": 0,
      "note": 81,
      "start": 89.153,
      "duration": 0.1667,
      "velocity": 119,
      "chip": "ym2612"
    },
    {
      "channel": 4,
      "note": 93,
      "start": 89.1902,
      "duration": 0.1667,
      "velocity": 119,
      "chip": "ym2612"
    },
    {
      "channel": 0,
      "note": 84,
      "start": 89.3197,
      "duration": 1.3329,
      "velocity": 119,
      "chip": "ym2612"
    },
    {
      "channel": 1,
      "note": 42,
      "start": 89.3247,
      "duration": 1.3329,
      "velocity": 100,
      "chip": "ym2612"
    },
    {
      "channel": 2,
      "note": 41,
      "start": 89.3298,
      "duration": 0.4084,
      "velocity": 116,
      "chip": "ym2612"
    },
    {
      "channel": 4,
      "note": 97,
      "start": 89.3568,
      "duration": 1.3327,
      "velocity": 119,
      "chip": "ym2612"
    },
    {
      "channel": 2,
      "note": 45,
      "start": 89.7381,
      "duration": 0.2494,
      "velocity": 116,
      "chip": "ym2612"
    },
    {
      "channel": 2,
      "note": 45,
      "start": 89.9922,
      "duration": 0.6704,
      "velocity": 116,
      "chip": "ym2612"
    },
    {
      "channel": 0,
      "note": 68,
      "start": 90.6572,
      "duration": 0.9124,
      "velocity": 89,
      "chip": "ym2612"
    },
    {
      "channel": 1,
      "note": 35,
      "start": 90.6622,
      "duration": 1.3245,
      "velocity": 92,
      "chip": "ym2612"
    },
    {
      "channel": 2,
      "note": 49,
      "start": 90.6689,
      "duration": 0.4026,
      "velocity": 116,
      "chip": "ym2612"
    },
    {
      "channel": 3,
      "note": 74,
      "start": 90.67,
      "duration": 2.6609,
      "velocity": 100,
      "chip": "ym2612"
    },
    {
      "channel": 4,
      "note": 81,
      "start": 90.6942,
      "duration": 0.9126,
      "velocity": 89,
      "chip": "ym2612"
    },
    {
      "channel": 2,
      "note": 48,
      "start": 91.0715,
      "duration": 0.2494,
      "velocity": 116,
      "chip": "ym2612"
    },
    {
      "channel": 2,
      "note": 42,
      "start": 91.3256,
      "duration": 0.6661,
      "velocity": 116,
      "chip": "ym2612"
    },
    {
      "channel": 0,
      "note": 70,
      "start": 91.5696,
      "duration": 0.4167,
      "velocity": 89,
      "chip": "ym2612"
    },
    {
      "channel": 4,
      "note": 82,
      "start": 91.6068,
      "duration": 0.4167,
      "velocity": 89,
      "chip": "ym2612"
    },
    {
      "channel": 0,
      "note": 69,
      "start": 91.9864,
      "duration": 0.9167,
      "velocity": 89,
      "chip": "ym2612"
    },
    {
      "channel": 1,
      "note": 35,
      "start": 91.9913,
      "duration": 1.3289,
      "velocity": 100,
      "chip": "ym2612"
    },
    {
      "channel": 2,
      "note": 41,
      "start": 91.9963,
      "duration": 0.4085,
      "velocity": 116,
      "chip": "ym2612"
    },
    {
      "channel": 4,
      "note": 81,
      "start": 92.0235,
      "duration": 0.9165,
      "velocity": 89,
      "chip": "ym2612"
    },
    {
      "channel": 2,
      "note": 45,
      "start": 92.4048,
      "duration": 0.2494,
      "velocity": 116,
      "chip": "ym2612"
    },
    {
      "channel": 2,
      "note": 42,
      "start": 92.6588,
      "duration": 0.6663,
      "velocity": 116,
      "chip": "ym2612"
    },
    {
      "channel": 0,
      "note": 68,
      "start": 92.903,
      "duration": 0.4167,
      "velocity": 89,
      "chip": "ym2612"
    },
    {
      "channel": 4,
      "note": 80,
      "start": 92.94,
      "duration": 0.4169,
      "velocity": 89,
      "chip": "ym2612"
    },
    {
      "channel": 0,
      "note": 67,
      "start": 93.3198,
      "duration": 0.9993,
      "velocity": 89,
      "chip": "ym2612"
    },
    {
      "channel": 1,
      "note": 37,
      "start": 93.3248,
      "duration": 1.3286,
      "velocity": 92,
      "chip": "ym2612"
    },
    {
      "channel": 2,
      "note": 47,
      "start": 93.3298,
      "duration": 0.4084,
      "velocity": 116,
      "chip": "ym2612"
    },
    {
      "channel": 3,
      "note": 73,
      "start": 93.3308,
      "duration": 2.6722,
      "velocity": 100,
      "chip": "ym2612"
    },
    {
      "channel": 4,
      "note": 79,
      "start": 93.3569,
      "duration": 0.9992,
      "velocity": 89,
      "chip": "ym2612"
    },
    {
      "channel": 2,
      "note": 47,
      "start": 93.7382,
      "duration": 0.2494,
      "velocity": 116,
      "chip": "ym2612"
    },
    {
      "channel": 2,
      "note": 42,
      "start": 93.9922,
      "duration": 0.6662,
      "velocity": 116,
      "chip": "ym2612"
    },
    {
      "channel": 0,
      "note": 77,
      "start": 94.3237,
      "duration": 0.0793,
      "velocity": 119,
      "chip": "ym2612"
    },
    {
      "channel": 4,
      "note": 89,
      "start": 94.3608,
      "duration": 0.0793,
      "velocity": 119,
      "chip": "ym2612"
    },
    {
      "channel": 0,
      "note": 78,
      "start": 94.403,
      "duration": 0.0833,
      "velocity": 119,
      "chip": "ym2612"
    },
    {
      "channel": 4,
      "note": 90,
      "start": 94.4401,
      "duration": 0.0833,
      "velocity": 119,
      "chip": "ym2612"
    },
    {
      "channel": 0,
      "note": 71,
      "start": 94.4864,
      "duration": 0.1667,
      "velocity": 119,
      "chip": "ym2612"
    },
    {
      "channel": 4,
      "note": 83,
      "start": 94.5235,
      "duration": 0.1667,
      "velocity": 119,
      "chip": "ym2612"
    },
    {
      "channel": 0,
      "note": 66,
      "start": 94.653,
      "duration": 1.3329,
      "velocity": 119,
      "chip": "ym2612"
    },
    {
      "channel": 1,
      "note": 42,
      "start": 94.658,
      "duration": 1.3327,
      "velocity": 100,
      "chip": "ym2612"
    },
    {
      "channel": 2,
      "note": 41,
      "start": 94.6631,
      "duration": 0.4084,
      "velocity": 116,
      "chip": "ym2612"
    },
    {
      "channel": 4,
      "note": 78,
      "start": 94.6902,
      "duration": 1.3326,
      "velocity": 119,
      "chip": "ym2612"
    },
    {
      "channel": 2,
      "note": 43,
      "start": 95.0715,
      "duration": 0.2494,
      "velocity": 116,
      "chip": "ym2612"
    },
    {
      "channel": 2,
      "note": 45,
      "start": 95.3255,
      "duration": 0.6703,
      "velocity": 116,
      "chip": "ym2612"
    },
    {
      "channel": 0,
      "note": 66,
      "start": 95.9904,
      "duration": 0.9125,
      "velocity": 89,
      "chip": "ym2612"
    },
    {
      "channel": 1,
      "note": 38,
      "start": 95.9954,
      "duration": 1.3247,
      "velocity": 92,
      "chip": "ym2612"
    },
    {
      "channel": 2,
      "note": 49,
      "start": 96.002,
      "duration": 0.4029,
      "velocity": 116,
      "chip": "ym2612"
    },
    {
      "channel": 3,
      "note": 78,
      "start": 96.003,
      "duration": 2.6611,
      "velocity": 100,
      "chip": "ym2612"
    },
    {
      "channel": 4,
      "note": 78,
      "start": 96.0273,
      "duration": 0.9128,
      "velocity": 89,
      "chip": "ym2612"
    },
    {
      "channel": 2,
      "note": 48,
      "start": 96.4049,
      "duration": 0.2494,
      "velocity": 116,
      "chip": "ym2612"
    },
    {
      "channel": 2,
      "note": 42,
      "start": 96.6589,
      "duration": 0.6661,
      "velocity": 116,
      "chip": "ym2612"
    },
    {
      "channel": 0,
      "note": 70,
      "start": 96.903,
      "duration": 0.4167,
      "velocity": 89,
      "chip": "ym2612"
    },
    {
      "channel": 4,
      "note": 82,
      "start": 96.9401,
      "duration": 0.4167,
      "velocity": 89,
      "chip": "ym2612"
    },
    {
      "channel": 0,
      "note": 69,
      "start": 97.3197,
      "duration": 0.9167,
      "velocity": 89,
      "chip": "ym2612"
    },
    {
      "channel": 1,
      "note": 38,
      "start": 97.3246,
      "duration": 1.3289,
      "velocity": 100,
      "chip": "ym2612"
    },
    {
      "channel": 2,
      "note": 41,
      "start": 97.3296,
      "duration": 0.4085,
      "velocity": 116,
      "chip": "ym2612"
    },
    {
      "channel": 4,
      "note": 81,
      "start": 97.3568,
      "duration": 0.9165,
      "velocity": 89,
      "chip": "ym2612"
    },
    {
      "channel": 2,
      "note": 45,
      "start": 97.7381,
      "duration": 0.2494,
      "velocity": 116,
      "chip": "ym2612"
    },
    {
      "channel": 2,
      "note": 42,
      "start": 97.9922,
      "duration": 0.6663,
      "velocity": 116,
      "chip": "ym2612"
    },
    {
      "channel": 0,
      "note": 67,
      "start": 98.2364,
      "duration": 0.4167,
      "velocity": 89,
      "chip": "ym2612"
    },
    {
      "channel": 4,
      "note": 79,
      "start": 98.2734,
      "duration": 0.4169,
      "velocity": 89,
      "chip": "ym2612"
    },
    {
      "channel": 0,
      "note": 69,
      "start": 98.6531,
      "duration": 0.9166,
      "velocity": 89,
      "chip": "ym2612"
    },
    {
      "channel": 1,
      "note": 37,
      "start": 98.6581,
      "duration": 1.3288,
      "velocity": 92,
      "chip": "ym2612"
    },
    {
      "channel": 2,
      "note": 47,
      "start": 98.6632,
      "duration": 0.4084,
      "velocity": 116,
      "chip": "ym2612"
    },
    {
      "channel": 3,
      "note": 79,
      "start": 98.6642,
      "duration": 0.9916,
      "velocity": 100,
      "chip": "ym2612"
    },
    {
      "channel": 4,
      "note": 81,
      "start": 98.6902,
      "duration": 0.9165,
      "velocity": 89,
      "chip": "ym2612"
    },
    {
      "channel": 2,
      "note": 47,
      "start": 99.0715,
      "duration": 0.2494,
      "velocity": 116,
      "chip": "ym2612"
    },
    {
      "channel": 2,
      "note": 42,
      "start": 99.3256,
      "duration": 0.6663,
      "velocity": 116,
      "chip": "ym2612"
    },
    {
      "channel": 0,
      "note": 66,
      "start": 99.5696,
      "duration": 0.4168,
      "velocity": 89,
      "chip": "ym2612"
    },
    {
      "channel": 4,
      "note": 78,
      "start": 99.6068,
      "duration": 0.4169,
      "velocity": 89,
      "chip": "ym2612"
    },
    {
      "channel": 3,
      "note": 80,
      "start": 99.6558,
      "duration": 0.3418,
      "velocity": 100,
      "chip": "ym2612"
    },
    {
      "channel": 0,
      "note": 73,
      "start": 99.9865,
      "duration": 0.9166,
      "velocity": 89,
      "chip": "ym2612"
    },
    {
      "channel": 1,
      "note": 42,
      "start": 99.9915,
      "duration": 1.3286,
      "velocity": 100,
      "chip": "ym2612"
    },
    {
      "channel": 2,
      "note": 41,
      "start": 99.9966,
      "duration": 0.4083,
      "velocity": 116,
      "chip": "ym2612"
    },
    {
      "channel": 3,
      "note": 81,
      "start": 99.9976,
      "duration": 0.9916,
      "velocity": 100,
      "chip": "ym2612"
    },
    {
      "channel": 4,
      "note": 85,
      "start": 100.0237,
      "duration": 0.9162,
      "velocity": 89,
      "chip": "ym2612"
    },
    {
      "channel": 2,
      "note": 43,
      "start": 100.4048,
      "duration": 0.2494,
      "velocity": 116,
      "chip": "ym2612"
    },
    {
      "channel": 2,
      "note": 45,
      "start": 100.6588,
      "duration": 0.6663,
      "velocity": 116,
      "chip": "ym2612"
    },
    {
      "channel": 0,
      "note": 73,
      "start": 100.903,
      "duration": 0.4167,
      "velocity": 89,
      "chip": "ym2612"
    },
    {
      "channel": 4,
      "note": 85,
      "start": 100.9399,
      "duration": 0.417,
      "velocity": 89,
      "chip": "ym2612"
    },
    {
      "channel": 3,
      "note": 82,
      "start": 100.9892,
      "duration": 0.3417,
      "velocity": 100,
      "chip": "ym2612"
    },
    {
      "channel": 0,
      "note": 71,
      "start": 101.3198,
      "duration": 2.6666,
      "velocity": 89,
      "chip": "ym2612"
    },
    {
      "channel": 1,
      "note": 35,
      "start": 101.3248,
      "duration": 1.3285,
      "velocity": 92,
      "chip": "ym2612"
    },
    {
      "channel": 2,
      "note": 49,
      "start": 101.3298,
      "duration": 0.4084,
      "velocity": 116,
      "chip": "ym2612"
    },
    {
      "channel": 3,
      "note": 83,
      "start": 101.3308,
      "duration": 2.6665,
      "velocity": 100,
      "chip": "ym2612"
    },
    {
      "channel": 4,
      "note": 83,
      "start": 101.3569,
      "duration": 2.6413,
      "velocity": 89,
      "chip": "ym2612"
    },
    {
      "channel": 2,
      "note": 48,
      "start": 101.7382,
      "duration": 0.2494,
      "velocity": 116,
      "chip": "ym2612"
    },
    {
      "channel": 2,
      "note": 42,
      "start": 101.9922,
      "duration": 0.666,
      "velocity": 116,
      "chip": "ym2612"
    },
    {
      "channel": 1,
      "note": 35,
      "start": 102.6578,
      "duration": 1.3289,
      "velocity": 100,
      "chip": "ym2612"
    },
    {
      "channel": 2,
      "note": 41,
      "start": 102.6628,
      "duration": 0.4086,
      "velocity": 116,
      "chip": "ym2612"
    },
    {
      "channel": 2,
      "note": 43,
      "start": 103.0715,
      "duration": 0.2494,
      "velocity": 116,
      "chip": "ym2612"
    },
    {
      "channel": 2,
      "note": 42,
      "start": 103.3255,
      "duration": 0.6662,
      "velocity": 116,
      "chip": "ym2612"
    },
    {
      "channel": 1,
      "note": 37,
      "start": 103.9913,
      "duration": 1.3288,
      "velocity": 92,
      "chip": "ym2612"
    },
    {
      "channel": 2,
      "note": 47,
      "start": 103.9963,
      "duration": 0.4085,
      "velocity": 116,
      "chip": "ym2612"
    },
    {
      "channel": 3,
      "note": 82,
      "start": 103.9974,
      "duration": 1.4911,
      "velocity": 100,
      "chip": "ym2612"
    },
    {
      "channel": 2,
      "note": 47,
      "start": 104.4049,
      "duration": 0.2494,
      "velocity": 116,
      "chip": "ym2612"
    },
    {
      "channel": 2,
      "note": 42,
      "start": 104.6589,
      "duration": 0.6662,
      "velocity": 116,
      "chip": "ym2612"
    },
    {
      "channel": 1,
      "note": 42,
      "start": 105.3247,
      "duration": 1.3338,
      "velocity": 100,
      "chip": "ym2612"
    },
    {
      "channel": 2,
      "note": 41,
      "start": 105.3298,
      "duration": 0.4084,
      "velocity": 116,
      "chip": "ym2612"
    },
    {
      "channel": 3,
      "note": 73,
      "start": 105.4931,
      "duration": 0.1625,
      "velocity": 100,
      "chip": "ym2612"
    },
    {
      "channel": 3,
      "note": 73,
      "start": 105.6556,
      "duration": 0.1669,
      "velocity": 100,
      "chip": "ym2612"
    },
    {
      "channel": 2,
      "note": 43,
      "start": 105.7381,
      "duration": 0.2495,
      "velocity": 116,
      "chip": "ym2612"
    },
    {
      "channel": 3,
      "note": 78,
      "start": 105.8226,
      "duration": 0.1707,
      "velocity": 100,
      "chip": "ym2612"
    },
    {
      "channel": 2,
      "note": 45,
      "start": 105.9923,
      "duration": 0.6712,
      "velocity": 116,
      "chip": "ym2612"
    },
    {
      "channel": 3,
      "note": 82,
      "start": 105.9933,
      "duration": 0.1625,
      "velocity": 100,
      "chip": "ym2612"
    },
    {
      "channel": 3,
      "note": 78,
      "start": 106.1558,
      "duration": 0.1666,
      "velocity": 100,
      "chip": "ym2612"
    },
    {
      "channel": 3,
      "note": 78,
      "start": 106.3224,
      "duration": 0.1667,
      "velocity": 100,
      "chip": "ym2612"
    },
    {
      "channel": 3,
      "note": 82,
      "start": 106.489,
      "duration": 0.181,
      "velocity": 100,
      "chip": "ym2612"
    },
    {
      "channel": 0,
      "note": 52,
      "start": 106.6581,
      "duration": 2.3286,
      "velocity": 74,
      "chip": "ym2612"
    },
    {
      "channel": 1,
      "note": 59,
      "start": 106.6632,
      "duration": 2.6571,
      "velocity": 100,
      "chip": "ym2612"
    },
    {
      "channel": 2,
      "note": 38,
      "start": 106.6697,
      "duration": 2.6556,
      "velocity": 116,
      "chip": "ym2612"
    },
    {
      "channel": 3,
      "note": 50,
      "start": 106.6747,
      "duration": 2.6555,
      "velocity": 100,
      "chip": "ym2612"
    },
    {
      "channel": 4,
      "note": 62,
      "start": 106.6943,
      "duration": 2.3293,
      "velocity": 74,
      "chip": "ym2612"
    },
    {
      "channel": 0,
      "note": 47,
      "start": 108.9867,
      "duration": 0.1664,
      "velocity": 74,
      "chip": "ym2612"
    },
    {
      "channel": 4,
      "note": 61,
      "start": 109.0237,
      "duration": 0.1667,
      "velocity": 74,
      "chip": "ym2612"
    },
    {
      "channel": 0,
      "note": 46,
      "start": 109.1531,
      "duration": 0.1668,
      "velocity": 74,
      "chip": "ym2612"
    },
    {
      "channel": 4,
      "note": 64,
      "start": 109.1903,
      "duration": 0.1667,
      "velocity": 74,
      "chip": "ym2612"
    },
    {
      "channel": 0,
      "note": 48,
      "start": 109.3199,
      "duration": 0.9994,
      "velocity": 74,
      "chip": "ym2612"
    },
    {
      "channel": 1,
      "note": 58,
      "start": 109.3249,
      "duration": 0.6622,
      "velocity": 100,
      "chip": "ym2612"
    },
    {
      "channel": 2,
      "note": 36,
      "start": 109.3299,
      "duration": 1.329,
      "velocity": 116,
      "chip": "ym2612"
    },
    {
      "channel": 3,
      "note": 61,
      "start": 109.3366,
      "duration": 1.3273,
      "velocity": 100,
      "chip": "ym2612"
    },
    {
      "channel": 4,
      "note": 65,
      "start": 109.357,
      "duration": 0.9992,
      "velocity": 74,
      "chip": "ym2612"
    },
    {
      "channel": 1,
      "note": 42,
      "start": 109.9917,
      "duration": 0.6622,
      "velocity": 100,
      "chip": "ym2612"
    },
    {
      "channel": 0,
      "note": 73,
      "start": 110.3239,
      "duration": 0.0791,
      "velocity": 100,
      "chip": "ym2612"
    },
    {
      "channel": 4,
      "note": 67,
      "start": 110.3609,
      "duration": 0.0793,
      "velocity": 100,
      "chip": "ym2612"
    },
    {
      "channel": 0,
      "note": 77,
      "start": 110.403,
      "duration": 0.0833,
      "velocity": 100,
      "chip": "ym2612"
    },
    {
      "channel": 4,
      "note": 66,
      "start": 110.4402,
      "duration": 0.0833,
      "velocity": 100,
      "chip": "ym2612"
    },
    {
      "channel": 0,
      "note": 84,
      "start": 110.4864,
      "duration": 0.1672,
      "velocity": 100,
      "chip": "ym2612"
    },
    {
      "channel": 4,
      "note": 65,
      "start": 110.5236,
      "duration": 0.1668,
      "velocity": 100,
      "chip": "ym2612"
    },
    {
      "channel": 0,
      "note": 89,
      "start": 110.6535,
      "duration": 1.3328,
      "velocity": 100,
      "chip": "ym2612"
    },
    {
      "channel": 1,
      "note": 34,
      "start": 110.6586,
      "duration": 1.3327,
      "velocity": 92,
      "chip": "ym2612"
    },
    {
      "channel": 2,
      "note": 63,
      "start": 110.6636,
      "duration": 1.3327,
      "velocity": 89,
      "chip": "ym2612"
    },
    {
      "channel": 3,
      "note": 67,
      "start": 110.6701,
      "duration": 1.3329,
      "velocity": 89,
      "chip": "ym2612"
    },
    {
      "channel": 4,
      "note": 61,
      "start": 110.6904,
      "duration": 1.3326,
      "velocity": 100,
      "chip": "ym2612"
    },
    {
      "channel": 0,
      "note": 48,
      "start": 111.991,
      "duration": 2.3292,
      "velocity": 74,
      "chip": "ym2612"
    },
    {
      "channel": 1,
      "note": 61,
      "start": 111.9959,
      "duration": 2.6582,
      "velocity": 100,
      "chip": "ym2612"
    },
    {
      "channel": 2,
      "note": 40,
      "start": 112.0027,
      "duration": 2.6525,
      "velocity": 116,
      "chip": "ym2612"
    },
    {
      "channel": 3,
      "note": 49,
      "start": 112.0077,
      "duration": 2.6479,
      "velocity": 100,
      "chip": "ym2612"
    },
    {
      "channel": 4,
      "note": 58,
      "start": 112.0276,
      "duration": 2.3293,
      "velocity": 74,
      "chip": "ym2612"
    },
    {
      "channel": 0,
      "note": 43,
      "start": 114.3201,
      "duration": 0.3331,
      "velocity": 74,
      "chip": "ym2612"
    },
    {
      "channel": 4,
      "note": 60,
      "start": 114.357,
      "duration": 0.3333,
      "velocity": 74,
      "chip": "ym2612"
    },
    {
      "channel": 0,
      "note": 45,
      "start": 114.6532,
      "duration": 0.9994,
      "velocity": 74,
      "chip": "ym2612"
    },
    {
      "channel": 1,
      "note": 61,
      "start": 114.6542,
      "duration": 0.666,
      "velocity": 100,
      "chip": "ym2612"
    },
    {
      "channel": 2,
      "note": 36,
      "start": 114.6552,
      "duration": 1.3371,
      "velocity": 116,
      "chip": "ym2612"
    },
    {
      "channel": 3,
      "note": 49,
      "start": 114.6601,
      "duration": 1.3372,
      "velocity": 100,
      "chip": "ym2612"
    },
    {
      "channel": 4,
      "note": 55,
      "start": 114.6904,
      "duration": 0.9992,
      "velocity": 74,
      "chip": "ym2612"
    },
    {
      "channel": 1,
      "note": 42,
      "start": 115.3248,
      "duration": 0.6625,
      "velocity": 100,
      "chip": "ym2612"
    },
    {
      "channel": 0,
      "note": 72,
      "start": 115.6572,
      "duration": 0.0791,
      "velocity": 100,
      "chip": "ym2612"
    },
    {
      "channel": 4,
      "note": 66,
      "start": 115.6942,
      "duration": 0.0794,
      "velocity": 100,
      "chip": "ym2612"
    },
    {
      "channel": 0,
      "note": 77,
      "start": 115.7363,
      "duration": 0.0833,
      "velocity": 100,
      "chip": "ym2612"
    },
    {
      "channel": 4,
      "note": 66,
      "start": 115.7736,
      "duration": 0.0833,
      "velocity": 100,
      "chip": "ym2612"
    },
    {
      "channel": 0,
      "note": 84,
      "start": 115.8197,
      "duration": 0.1672,
      "velocity": 100,
      "chip": "ym2612"
    },
    {
      "channel": 4,
      "note": 65,
      "start": 115.8569,
      "duration": 0.1668,
      "velocity": 100,
      "chip": "ym2612"
    },
    {
      "channel": 0,
      "note": 89,
      "start": 115.9869,
      "duration": 1.3329,
      "velocity": 100,
      "chip": "ym2612"
    },
    {
      "channel": 1,
      "note": 34,
      "start": 115.9919,
      "duration": 1.3328,
      "velocity": 92,
      "chip": "ym2612"
    },
    {
      "channel": 2,
      "note": 63,
      "start": 115.9969,
      "duration": 1.3328,
      "velocity": 89,
      "chip": "ym2612"
    },
    {
      "channel": 3,
      "note": 67,
      "start": 116.0035,
      "duration": 1.333,
      "velocity": 89,
      "chip": "ym2612"
    },
    {
      "channel": 4,
      "note": 61,
      "start": 116.0238,
      "duration": 1.3326,
      "velocity": 100,
      "chip": "ym2612"
    },
    {
      "channel": 0,
      "note": 52,
      "start": 117.3244,
      "duration": 2.3289,
      "velocity": 74,
      "chip": "ym2612"
    },
    {
      "channel": 1,
      "note": 59,
      "start": 117.3294,
      "duration": 2.6576,
      "velocity": 100,
      "chip": "ym2612"
    },
    {
      "channel": 2,
      "note": 43,
      "start": 117.3361,
      "duration": 2.6559,
      "velocity": 116,
      "chip": "ym2612"
    },
    {
      "channel": 3,
      "note": 50,
      "start": 117.3411,
      "duration": 2.6558,
      "velocity": 100,
      "chip": "ym2612"
    },
    {
      "channel": 4,
      "note": 59,
      "start": 117.361,
      "duration": 2.3292,
      "velocity": 74,
      "chip": "ym2612"
    },
    {
      "channel": 0,
      "note": 47,
      "start": 119.6534,
      "duration": 0.1663,
      "velocity": 74,
      "chip": "ym2612"
    },
    {
      "channel": 4,
      "note": 61,
      "start": 119.6902,
      "duration": 0.1665,
      "velocity": 74,
      "chip": "ym2612"
    },
    {
      "channel": 0,
      "note": 46,
      "start": 119.8198,
      "duration": 0.1668,
      "velocity": 74,
      "chip": "ym2612"
    },
    {
      "channel": 4,
      "note": 64,
      "start": 119.8567,
      "duration": 0.1668,
      "velocity": 74,
      "chip": "ym2612"
    },
    {
      "channel": 0,
      "note": 48,
      "start": 119.9866,
      "duration": 0.9994,
      "velocity": 74,
      "chip": "ym2612"
    },
    {
      "channel": 1,
      "note": 58,
      "start": 119.9916,
      "duration": 0.6622,
      "velocity": 100,
      "chip": "ym2612"
    },
    {
      "channel": 2,
      "note": 37,
      "start": 119.9966,
      "duration": 1.329,
      "velocity": 116,
      "chip": "ym2612"
    },
    {
      "channel": 3,
      "note": 61,
      "start": 120.0032,
      "duration": 1.3275,
      "velocity": 100,
      "chip": "ym2612"
    },
    {
      "channel": 4,
      "note": 65,
      "start": 120.0236,
      "duration": 0.9992,
      "velocity": 74,
      "chip": "ym2612"
    },
    {
      "channel": 1,
      "note": 42,
      "start": 120.6584,
      "duration": 0.6622,
      "velocity": 100,
      "chip": "ym2612"
    },
    {
      "channel": 0,
      "note": 73,
      "start": 120.9906,
      "duration": 0.0791,
      "velocity": 100,
      "chip": "ym2612"
    },
    {
      "channel": 4,
      "note": 67,
      "start": 121.0274,
      "duration": 0.0794,
      "velocity": 100,
      "chip": "ym2612"
    },
    {
      "channel": 0,
      "note": 77,
      "start": 121.0696,
      "duration": 0.0833,
      "velocity": 100,
      "chip": "ym2612"
    },
    {
      "channel": 4,
      "note": 66,
      "start": 121.1068,
      "duration": 0.0833,
      "velocity": 100,
      "chip": "ym2612"
    },
    {
      "channel": 0,
      "note": 84,
      "start": 121.153,
      "duration": 0.1672,
      "velocity": 100,
      "chip": "ym2612"
    },
    {
      "channel": 4,
      "note": 65,
      "start": 121.1901,
      "duration": 0.1669,
      "velocity": 100,
      "chip": "ym2612"
    },
    {
      "channel": 0,
      "note": 89,
      "start": 121.3202,
      "duration": 1.3328,
      "velocity": 100,
      "chip": "ym2612"
    },
    {
      "channel": 1,
      "note": 34,
      "start": 121.3252,
      "duration": 1.3327,
      "velocity": 92,
      "chip": "ym2612"
    },
    {
      "channel": 2,
      "note": 63,
      "start": 121.3302,
      "duration": 1.3327,
      "velocity": 89,
      "chip": "ym2612"
    },
    {
      "channel": 3,
      "note": 67,
      "start": 121.3368,
      "duration": 1.3329,
      "velocity": 89,
      "chip": "ym2612"
    },
    {
      "channel": 4,
      "note": 61,
      "start": 121.3571,
      "duration": 1.3326,
      "velocity": 100,
      "chip": "ym2612"
    },
    {
      "channel": 0,
      "note": 48,
      "start": 122.6576,
      "duration": 2.3292,
      "velocity": 74,
      "chip": "ym2612"
    },
    {
      "channel": 1,
      "note": 61,
      "start": 122.6626,
      "duration": 2.6582,
      "velocity": 100,
      "chip": "ym2612"
    },
    {
      "channel": 2,
      "note": 40,
      "start": 122.6693,
      "duration": 2.6525,
      "velocity": 116,
      "chip": "ym2612"
    },
    {
      "channel": 3,
      "note": 49,
      "start": 122.6743,
      "duration": 2.6479,
      "velocity": 100,
      "chip": "ym2612"
    },
    {
      "channel": 4,
      "note": 58,
      "start": 122.6943,
      "duration": 2.3293,
      "velocity": 74,
      "chip": "ym2612"
    },
    {
      "channel": 0,
      "note": 43,
      "start": 124.9868,
      "duration": 0.3331,
      "velocity": 74,
      "chip": "ym2612"
    },
    {
      "channel": 4,
      "note": 60,
      "start": 125.0237,
      "duration": 0.3333,
      "velocity": 74,
      "chip": "ym2612"
    },
    {
      "channel": 0,
      "note": 45,
      "start": 125.3199,
      "duration": 0.9994,
      "velocity": 74,
      "chip": "ym2612"
    },
    {
      "channel": 1,
      "note": 61,
      "start": 125.3208,
      "duration": 0.666,
      "velocity": 100,
      "chip": "ym2612"
    },
    {
      "channel": 2,
      "note": 36,
      "start": 125.3219,
      "duration": 1.3371,
      "velocity": 116,
      "chip": "ym2612"
    },
    {
      "channel": 3,
      "note": 49,
      "start": 125.3268,
      "duration": 1.3371,
      "velocity": 100,
      "chip": "ym2612"
    },
    {
      "channel": 4,
      "note": 55,
      "start": 125.357,
      "duration": 0.9992,
      "velocity": 74,
      "chip": "ym2612"
    },
    {
      "channel": 1,
      "note": 42,
      "start": 125.9914,
      "duration": 0.6625,
      "velocity": 100,
      "chip": "ym2612"
    },
    {
      "channel": 0,
      "note": 72,
      "start": 126.3239,
      "duration": 0.0791,
      "velocity": 100,
      "chip": "ym2612"
    },
    {
      "channel": 4,
      "note": 66,
      "start": 126.3609,
      "duration": 0.0794,
      "velocity": 100,
      "chip": "ym2612"
    },
    {
      "channel": 0,
      "note": 77,
      "start": 126.403,
      "duration": 0.0833,
      "velocity": 100,
      "chip": "ym2612"
    },
    {
      "channel": 4,
      "note": 66,
      "start": 126.4402,
      "duration": 0.0833,
      "velocity": 100,
      "chip": "ym2612"
    },
    {
      "channel": 0,
      "note": 84,
      "start": 126.4863,
      "duration": 0.1672,
      "velocity": 100,
      "chip": "ym2612"
    },
    {
      "channel": 4,
      "note": 65,
      "start": 126.5236,
      "duration": 0.1668,
      "velocity": 100,
      "chip": "ym2612"
    },
    {
      "channel": 0,
      "note": 89,
      "start": 126.6535,
      "duration": 1.3153,
      "velocity": 100,
      "chip": "ym2612"
    },
    {
      "channel": 1,
      "note": 34,
      "start": 126.6586,
      "duration": 1.3103,
      "velocity": 92,
      "chip": "ym2612"
    },
    {
      "channel": 2,
      "note": 63,
      "start": 126.6636,
      "duration": 1.3053,
      "velocity": 89,
      "chip": "ym2612"
    },
    {
      "channel": 3,
      "note": 67,
      "start": 126.6701,
      "duration": 1.2987,
      "velocity": 89,
      "chip": "ym2612"
    },
    {
      "channel": 4,
      "note": 61,
      "start": 126.6904,
      "duration": 1.2784,
      "velocity": 100,
      "chip": "ym2612"
    }
  ]
}