{
  "track_name": "12 - Volcanic Cave",
  "duration_sec": 44.902,
  "sample_rate": 44100,
  "note_count": 924,
  "unique_pitches": 43,
  "pitch_range": 79,
  "avg_note_duration": 0.2283,
  "reconstruction_stats": {
    "notes_reconstructed": 924,
    "keyon_events": 924,
    "keyoff_events": 923,
    "orphan_keyons": 1,
    "unique_pitches": 43,
    "pitch_range": 79,
    "avg_duration_sec": 0.2283
  },
  "metadata": {
    "source": "M\\Monster World IV\\12 - Volcanic Cave.vgz"
  },
  "notes": [
    {
      "channel": 0,
      "note": 72,
      "start": 0.0,
      "duration": 1.5063,
      "velocity": 79,
      "chip": "ym2612"
    },
    {
      "channel": 1,
      "note": 77,
      "start": 0.0013,
      "duration": 0.2419,
      "velocity": 91,
      "chip": "ym2612"
    },
    {
      "channel": 4,
      "note": 86,
      "start": 0.004,
      "duration": 0.2393,
      "velocity": 91,
      "chip": "ym2612"
    },
    {
      "channel": 5,
      "note": 117,
      "start": 0.0068,
      "duration": 0.2366,
      "velocity": 127,
      "chip": "ym2612"
    },
    {
      "channel": 1,
      "note": 84,
      "start": 0.2554,
      "duration": 0.1165,
      "velocity": 91,
      "chip": "ym2612"
    },
    {
      "channel": 4,
      "note": 77,
      "start": 0.257,
      "duration": 0.1159,
      "velocity": 91,
      "chip": "ym2612"
    },
    {
      "channel": 2,
      "note": 88,
      "start": 0.2597,
      "duration": 0.1153,
      "velocity": 127,
      "chip": "ym2612"
    },
    {
      "channel": 1,
      "note": 84,
      "start": 0.3775,
      "duration": 0.2432,
      "velocity": 91,
      "chip": "ym2612"
    },
    {
      "channel": 4,
      "note": 77,
      "start": 0.3791,
      "duration": 0.2418,
      "velocity": 91,
      "chip": "ym2612"
    },
    {
      "channel": 2,
      "note": 92,
      "start": 0.3817,
      "duration": 0.0854,
      "velocity": 91,
      "chip": "ym2612"
    },
    {
      "channel": 5,
      "note": 38,
      "start": 0.3834,
      "duration": 0.1129,
      "velocity": 127,
      "chip": "ym2612"
    },
    {
      "channel": 5,
      "note": 38,
      "start": 0.5142,
      "duration": 0.2382,
      "velocity": 127,
      "chip": "ym2612"
    },
    {
      "channel": 1,
      "note": 84,
      "start": 0.6329,
      "duration": 0.1165,
      "velocity": 91,
      "chip": "ym2612"
    },
    {
      "channel": 4,
      "note": 77,
      "start": 0.6344,
      "duration": 0.1159,
      "velocity": 91,
      "chip": "ym2612"
    },
    {
      "channel": 1,
      "note": 84,
      "start": 0.7548,
      "duration": 0.2431,
      "velocity": 91,
      "chip": "ym2612"
    },
    {
      "channel": 4,
      "note": 77,
      "start": 0.7566,
      "duration": 0.2415,
      "velocity": 91,
      "chip": "ym2612"
    },
    {
      "channel": 2,
      "note": 93,
      "start": 0.7594,
      "duration": 0.1137,
      "velocity": 127,
      "chip": "ym2612"
    },
    {
      "channel": 5,
      "note": 38,
      "start": 0.7614,
      "duration": 0.112,
      "velocity": 127,
      "chip": "ym2612"
    },
    {
      "channel": 2,
      "note": 92,
      "start": 0.8923,
      "duration": 0.0895,
      "velocity": 91,
      "chip": "ym2612"
    },
    {
      "channel": 1,
      "note": 86,
      "start": 1.0115,
      "duration": 2.7655,
      "velocity": 91,
      "chip": "ym2612"
    },
    {
      "channel": 4,
      "note": 79,
      "start": 1.0129,
      "duration": 2.7644,
      "velocity": 91,
      "chip": "ym2612"
    },
    {
      "channel": 5,
      "note": 38,
      "start": 1.0158,
      "duration": 0.1783,
      "velocity": 127,
      "chip": "ym2612"
    },
    {
      "channel": 2,
      "note": 93,
      "start": 1.2695,
      "duration": 0.1155,
      "velocity": 127,
      "chip": "ym2612"
    },
    {
      "channel": 2,
      "note": 92,
      "start": 1.3896,
      "duration": 0.0896,
      "velocity": 91,
      "chip": "ym2612"
    },
    {
      "channel": 5,
      "note": 44,
      "start": 1.3922,
      "duration": 0.1158,
      "velocity": 127,
      "chip": "ym2612"
    },
    {
      "channel": 0,
      "note": 46,
      "start": 1.5243,
      "duration": 0.4943,
      "velocity": 79,
      "chip": "ym2612"
    },
    {
      "channel": 5,
      "note": 38,
      "start": 1.5288,
      "duration": 0.2341,
      "velocity": 127,
      "chip": "ym2612"
    },
    {
      "channel": 2,
      "note": 93,
      "start": 1.7671,
      "duration": 0.1182,
      "velocity": 127,
      "chip": "ym2612"
    },
    {
      "channel": 5,
      "note": 47,
      "start": 1.7688,
      "duration": 0.1166,
      "velocity": 127,
      "chip": "ym2612"
    },
    {
      "channel": 2,
      "note": 92,
      "start": 1.9042,
      "duration": 0.09,
      "velocity": 91,
      "chip": "ym2612"
    },
    {
      "channel": 5,
      "note": 61,
      "start": 1.9068,
      "duration": 0.1132,
      "velocity": 127,
      "chip": "ym2612"
    },
    {
      "channel": 0,
      "note": 58,
      "start": 2.0218,
      "duration": 1.009,
      "velocity": 79,
      "chip": "ym2612"
    },
    {
      "channel": 5,
      "note": 38,
      "start": 2.025,
      "duration": 0.2438,
      "velocity": 127,
      "chip": "ym2612"
    },
    {
      "channel": 2,
      "note": 93,
      "start": 2.2817,
      "duration": 0.1157,
      "velocity": 127,
      "chip": "ym2612"
    },
    {
      "channel": 2,
      "note": 92,
      "start": 2.4017,
      "duration": 0.0896,
      "velocity": 91,
      "chip": "ym2612"
    },
    {
      "channel": 5,
      "note": 38,
      "start": 2.4035,
      "duration": 0.1129,
      "velocity": 127,
      "chip": "ym2612"
    },
    {
      "channel": 5,
      "note": 38,
      "start": 2.5213,
      "duration": 0.245,
      "velocity": 127,
      "chip": "ym2612"
    },
    {
      "channel": 2,
      "note": 93,
      "start": 2.7796,
      "duration": 0.1145,
      "velocity": 127,
      "chip": "ym2612"
    },
    {
      "channel": 5,
      "note": 38,
      "start": 2.7813,
      "duration": 0.1188,
      "velocity": 127,
      "chip": "ym2612"
    },
    {
      "channel": 2,
      "note": 92,
      "start": 2.8992,
      "duration": 0.0898,
      "velocity": 91,
      "chip": "ym2612"
    },
    {
      "channel": 0,
      "note": 57,
      "start": 3.0339,
      "duration": 0.7483,
      "velocity": 79,
      "chip": "ym2612"
    },
    {
      "channel": 5,
      "note": 38,
      "start": 3.038,
      "duration": 0.1801,
      "velocity": 127,
      "chip": "ym2612"
    },
    {
      "channel": 2,
      "note": 93,
      "start": 3.2766,
      "duration": 0.1185,
      "velocity": 127,
      "chip": "ym2612"
    },
    {
      "channel": 2,
      "note": 92,
      "start": 3.4141,
      "duration": 0.0893,
      "velocity": 91,
      "chip": "ym2612"
    },
    {
      "channel": 5,
      "note": 44,
      "start": 3.4167,
      "duration": 0.112,
      "velocity": 127,
      "chip": "ym2612"
    },
    {
      "channel": 5,
      "note": 38,
      "start": 3.5343,
      "duration": 0.2437,
      "velocity": 127,
      "chip": "ym2612"
    },
    {
      "channel": 0,
      "note": 53,
      "start": 3.7912,
      "duration": 0.2458,
      "velocity": 79,
      "chip": "ym2612"
    },
    {
      "channel": 1,
      "note": 86,
      "start": 3.793,
      "duration": 0.1188,
      "velocity": 91,
      "chip": "ym2612"
    },
    {
      "channel": 4,
      "note": 79,
      "start": 3.7948,
      "duration": 0.1179,
      "velocity": 91,
      "chip": "ym2612"
    },
    {
      "channel": 2,
      "note": 93,
      "start": 3.7974,
      "duration": 0.1173,
      "velocity": 127,
      "chip": "ym2612"
    },
    {
      "channel": 5,
      "note": 45,
      "start": 3.7991,
      "duration": 0.1148,
      "velocity": 127,
      "chip": "ym2612"
    },
    {
      "channel": 1,
      "note": 86,
      "start": 3.917,
      "duration": 0.1214,
      "velocity": 91,
      "chip": "ym2612"
    },
    {
      "channel": 4,
      "note": 79,
      "start": 3.9186,
      "duration": 0.1208,
      "velocity": 91,
      "chip": "ym2612"
    },
    {
      "channel": 2,
      "note": 92,
      "start": 3.9212,
      "duration": 0.0912,
      "velocity": 91,
      "chip": "ym2612"
    },
    {
      "channel": 5,
      "note": 62,
      "start": 3.9239,
      "duration": 0.117,
      "velocity": 127,
      "chip": "ym2612"
    },
    {
      "channel": 0,
      "note": 50,
      "start": 4.0426,
      "duration": 1.5065,
      "velocity": 79,
      "chip": "ym2612"
    },
    {
      "channel": 1,
      "note": 86,
      "start": 4.0446,
      "duration": 0.247,
      "velocity": 91,
      "chip": "ym2612"
    },
    {
      "channel": 4,
      "note": 79,
      "start": 4.0464,
      "duration": 0.2454,
      "velocity": 91,
      "chip": "ym2612"
    },
    {
      "channel": 5,
      "note": 38,
      "start": 4.0487,
      "duration": 0.2437,
      "velocity": 127,
      "chip": "ym2612"
    },
    {
      "channel": 1,
      "note": 84,
      "start": 4.2982,
      "duration": 0.1192,
      "velocity": 91,
      "chip": "ym2612"
    },
    {
      "channel": 4,
      "note": 77,
      "start": 4.2998,
      "duration": 0.1178,
      "velocity": 91,
      "chip": "ym2612"
    },
    {
      "channel": 2,
      "note": 93,
      "start": 4.3023,
      "duration": 0.1154,
      "velocity": 127,
      "chip": "ym2612"
    },
    {
      "channel": 1,
      "note": 84,
      "start": 4.4373,
      "duration": 0.2346,
      "velocity": 91,
      "chip": "ym2612"
    },
    {
      "channel": 4,
      "note": 77,
      "start": 4.4389,
      "duration": 0.234,
      "velocity": 91,
      "chip": "ym2612"
    },
    {
      "channel": 2,
      "note": 92,
      "start": 4.4415,
      "duration": 0.086,
      "velocity": 91,
      "chip": "ym2612"
    },
    {
      "channel": 5,
      "note": 38,
      "start": 4.4432,
      "duration": 0.109,
      "velocity": 127,
      "chip": "ym2612"
    },
    {
      "channel": 5,
      "note": 38,
      "start": 4.557,
      "duration": 0.2451,
      "velocity": 127,
      "chip": "ym2612"
    },
    {
      "channel": 1,
      "note": 84,
      "start": 4.6756,
      "duration": 0.1195,
      "velocity": 91,
      "chip": "ym2612"
    },
    {
      "channel": 4,
      "note": 77,
      "start": 4.6775,
      "duration": 0.1177,
      "velocity": 91,
      "chip": "ym2612"
    },
    {
      "channel": 1,
      "note": 84,
      "start": 4.8148,
      "duration": 0.2345,
      "velocity": 91,
      "chip": "ym2612"
    },
    {
      "channel": 4,
      "note": 77,
      "start": 4.8166,
      "duration": 0.2337,
      "velocity": 91,
      "chip": "ym2612"
    },
    {
      "channel": 2,
      "note": 93,
      "start": 4.8193,
      "duration": 0.1103,
      "velocity": 127,
      "chip": "ym2612"
    },
    {
      "channel": 5,
      "note": 38,
      "start": 4.821,
      "duration": 0.115,
      "velocity": 127,
      "chip": "ym2612"
    },
    {
      "channel": 2,
      "note": 92,
      "start": 4.9351,
      "duration": 0.0895,
      "velocity": 91,
      "chip": "ym2612"
    },
    {
      "channel": 1,
      "note": 86,
      "start": 5.0539,
      "duration": 2.7715,
      "velocity": 91,
      "chip": "ym2612"
    },
    {
      "channel": 4,
      "note": 79,
      "start": 5.0554,
      "duration": 2.7702,
      "velocity": 91,
      "chip": "ym2612"
    },
    {
      "channel": 5,
      "note": 38,
      "start": 5.0583,
      "duration": 0.1841,
      "velocity": 127,
      "chip": "ym2612"
    },
    {
      "channel": 2,
      "note": 93,
      "start": 5.3125,
      "duration": 0.1155,
      "velocity": 127,
      "chip": "ym2612"
    },
    {
      "channel": 2,
      "note": 92,
      "start": 5.4324,
      "duration": 0.0896,
      "velocity": 91,
      "chip": "ym2612"
    },
    {
      "channel": 5,
      "note": 44,
      "start": 5.4349,
      "duration": 0.1159,
      "velocity": 127,
      "chip": "ym2612"
    },
    {
      "channel": 0,
      "note": 55,
      "start": 5.5672,
      "duration": 0.4943,
      "velocity": 79,
      "chip": "ym2612"
    },
    {
      "channel": 5,
      "note": 38,
      "start": 5.5714,
      "duration": 0.2339,
      "velocity": 127,
      "chip": "ym2612"
    },
    {
      "channel": 2,
      "note": 93,
      "start": 5.8098,
      "duration": 0.1185,
      "velocity": 127,
      "chip": "ym2612"
    },
    {
      "channel": 5,
      "note": 47,
      "start": 5.8117,
      "duration": 0.1167,
      "velocity": 127,
      "chip": "ym2612"
    },
    {
      "channel": 2,
      "note": 92,
      "start": 5.9472,
      "duration": 0.0894,
      "velocity": 91,
      "chip": "ym2612"
    },
    {
      "channel": 5,
      "note": 61,
      "start": 5.9498,
      "duration": 0.1134,
      "velocity": 127,
      "chip": "ym2612"
    },
    {
      "channel": 0,
      "note": 43,
      "start": 6.0649,
      "duration": 1.5059,
      "velocity": 79,
      "chip": "ym2612"
    },
    {
      "channel": 5,
      "note": 38,
      "start": 6.0682,
      "duration": 0.1134,
      "velocity": 127,
      "chip": "ym2612"
    },
    {
      "channel": 5,
      "note": 38,
      "start": 6.1876,
      "duration": 0.1183,
      "velocity": 127,
      "chip": "ym2612"
    },
    {
      "channel": 2,
      "note": 93,
      "start": 6.3243,
      "duration": 0.1146,
      "velocity": 127,
      "chip": "ym2612"
    },
    {
      "channel": 5,
      "note": 69,
      "start": 6.3273,
      "duration": 0.1125,
      "velocity": 127,
      "chip": "ym2612"
    },
    {
      "channel": 2,
      "note": 92,
      "start": 6.4447,
      "duration": 0.0379,
      "velocity": 91,
      "chip": "ym2612"
    },
    {
      "channel": 5,
      "note": 38,
      "start": 6.4474,
      "duration": 0.053,
      "velocity": 127,
      "chip": "ym2612"
    },
    {
      "channel": 5,
      "note": 78,
      "start": 6.5128,
      "duration": 0.0464,
      "velocity": 127,
      "chip": "ym2612"
    },
    {
      "channel": 5,
      "note": 79,
      "start": 6.564,
      "duration": 0.1192,
      "velocity": 127,
      "chip": "ym2612"
    },
    {
      "channel": 5,
      "note": 69,
      "start": 6.7012,
      "duration": 0.1153,
      "velocity": 127,
      "chip": "ym2612"
    },
    {
      "channel": 2,
      "note": 93,
      "start": 6.822,
      "duration": 0.1181,
      "velocity": 127,
      "chip": "ym2612"
    },
    {
      "channel": 5,
      "note": 70,
      "start": 6.8246,
      "duration": 0.1156,
      "velocity": 127,
      "chip": "ym2612"
    },
    {
      "channel": 2,
      "note": 92,
      "start": 6.9593,
      "duration": 0.0895,
      "velocity": 91,
      "chip": "ym2612"
    },
    {
      "channel": 5,
      "note": 38,
      "start": 6.9622,
      "duration": 0.1116,
      "velocity": 127,
      "chip": "ym2612"
    },
    {
      "channel": 5,
      "note": 70,
      "start": 7.08,
      "duration": 0.1865,
      "velocity": 127,
      "chip": "ym2612"
    },
    {
      "channel": 2,
      "note": 93,
      "start": 7.3365,
      "duration": 0.1156,
      "velocity": 127,
      "chip": "ym2612"
    },
    {
      "channel": 5,
      "note": 44,
      "start": 7.3392,
      "duration": 0.1121,
      "velocity": 127,
      "chip": "ym2612"
    },
    {
      "channel": 2,
      "note": 92,
      "start": 7.4565,
      "duration": 0.0897,
      "velocity": 91,
      "chip": "ym2612"
    },
    {
      "channel": 5,
      "note": 66,
      "start": 7.4591,
      "duration": 0.1129,
      "velocity": 127,
      "chip": "ym2612"
    },
    {
      "channel": 0,
      "note": 51,
      "start": 7.5741,
      "duration": 0.5081,
      "velocity": 79,
      "chip": "ym2612"
    },
    {
      "channel": 5,
      "note": 38,
      "start": 7.5786,
      "duration": 0.1171,
      "velocity": 127,
      "chip": "ym2612"
    },
    {
      "channel": 5,
      "note": 61,
      "start": 7.7137,
      "duration": 0.1166,
      "velocity": 127,
      "chip": "ym2612"
    },
    {
      "channel": 1,
      "note": 86,
      "start": 7.8333,
      "duration": 0.1153,
      "velocity": 91,
      "chip": "ym2612"
    },
    {
      "channel": 4,
      "note": 79,
      "start": 7.8349,
      "duration": 0.1146,
      "velocity": 91,
      "chip": "ym2612"
    },
    {
      "channel": 2,
      "note": 93,
      "start": 7.8375,
      "duration": 0.1141,
      "velocity": 127,
      "chip": "ym2612"
    },
    {
      "channel": 5,
      "note": 62,
      "start": 7.8393,
      "duration": 0.1115,
      "velocity": 127,
      "chip": "ym2612"
    },
    {
      "channel": 1,
      "note": 86,
      "start": 7.9538,
      "duration": 0.1235,
      "velocity": 91,
      "chip": "ym2612"
    },
    {
      "channel": 4,
      "note": 79,
      "start": 7.9554,
      "duration": 0.1221,
      "velocity": 91,
      "chip": "ym2612"
    },
    {
      "channel": 2,
      "note": 92,
      "start": 7.958,
      "duration": 0.0862,
      "velocity": 91,
      "chip": "ym2612"
    },
    {
      "channel": 5,
      "note": 57,
      "start": 7.961,
      "duration": 0.1171,
      "velocity": 127,
      "chip": "ym2612"
    },
    {
      "channel": 0,
      "note": 41,
      "start": 8.0989,
      "duration": 0.3492,
      "velocity": 111,
      "chip": "ym2612"
    },
    {
      "channel": 3,
      "note": 86,
      "start": 8.1017,
      "duration": 0.1158,
      "velocity": 97,
      "chip": "ym2612"
    },
    {
      "channel": 1,
      "note": 86,
      "start": 8.1034,
      "duration": 0.2343,
      "velocity": 91,
      "chip": "ym2612"
    },
    {
      "channel": 4,
      "note": 79,
      "start": 8.1052,
      "duration": 0.2334,
      "velocity": 91,
      "chip": "ym2612"
    },
    {
      "channel": 5,
      "note": 38,
      "start": 8.1075,
      "duration": 0.2491,
      "velocity": 127,
      "chip": "ym2612"
    },
    {
      "channel": 3,
      "note": 77,
      "start": 8.2207,
      "duration": 0.119,
      "velocity": 97,
      "chip": "ym2612"
    },
    {
      "channel": 3,
      "note": 72,
      "start": 8.343,
      "duration": 0.1171,
      "velocity": 97,
      "chip": "ym2612"
    },
    {
      "channel": 1,
      "note": 84,
      "start": 8.3449,
      "duration": 0.1153,
      "velocity": 91,
      "chip": "ym2612"
    },
    {
      "channel": 4,
      "note": 77,
      "start": 8.3465,
      "duration": 0.1141,
      "velocity": 91,
      "chip": "ym2612"
    },
    {
      "channel": 2,
      "note": 93,
      "start": 8.3491,
      "duration": 0.1117,
      "velocity": 127,
      "chip": "ym2612"
    },
    {
      "channel": 0,
      "note": 46,
      "start": 8.482,
      "duration": 0.109,
      "velocity": 111,
      "chip": "ym2612"
    },
    {
      "channel": 3,
      "note": 77,
      "start": 8.4836,
      "duration": 0.1183,
      "velocity": 97,
      "chip": "ym2612"
    },
    {
      "channel": 1,
      "note": 84,
      "start": 8.4851,
      "duration": 0.2357,
      "velocity": 91,
      "chip": "ym2612"
    },
    {
      "channel": 4,
      "note": 77,
      "start": 8.4867,
      "duration": 0.2351,
      "velocity": 91,
      "chip": "ym2612"
    },
    {
      "channel": 2,
      "note": 92,
      "start": 8.4893,
      "duration": 0.0866,
      "velocity": 91,
      "chip": "ym2612"
    },
    {
      "channel": 5,
      "note": 38,
      "start": 8.4911,
      "duration": 0.112,
      "velocity": 127,
      "chip": "ym2612"
    },
    {
      "channel": 0,
      "note": 46,
      "start": 8.6047,
      "duration": 0.3523,
      "velocity": 111,
      "chip": "ym2612"
    },
    {
      "channel": 3,
      "note": 77,
      "start": 8.6063,
      "duration": 0.1167,
      "velocity": 97,
      "chip": "ym2612"
    },
    {
      "channel": 5,
      "note": 38,
      "start": 8.6094,
      "duration": 0.2472,
      "velocity": 127,
      "chip": "ym2612"
    },
    {
      "channel": 3,
      "note": 77,
      "start": 8.7252,
      "duration": 0.118,
      "velocity": 97,
      "chip": "ym2612"
    },
    {
      "channel": 1,
      "note": 84,
      "start": 8.7268,
      "duration": 0.1166,
      "velocity": 91,
      "chip": "ym2612"
    },
    {
      "channel": 4,
      "note": 77,
      "start": 8.7287,
      "duration": 0.1148,
      "velocity": 91,
      "chip": "ym2612"
    },
    {
      "channel": 3,
      "note": 77,
      "start": 8.8644,
      "duration": 0.2426,
      "velocity": 97,
      "chip": "ym2612"
    },
    {
      "channel": 1,
      "note": 84,
      "start": 8.8661,
      "duration": 0.2389,
      "velocity": 91,
      "chip": "ym2612"
    },
    {
      "channel": 4,
      "note": 77,
      "start": 8.8679,
      "duration": 0.238,
      "velocity": 91,
      "chip": "ym2612"
    },
    {
      "channel": 2,
      "note": 93,
      "start": 8.8707,
      "duration": 0.1143,
      "velocity": 127,
      "chip": "ym2612"
    },
    {
      "channel": 5,
      "note": 38,
      "start": 8.8724,
      "duration": 0.1192,
      "velocity": 127,
      "chip": "ym2612"
    },
    {
      "channel": 0,
      "note": 46,
      "start": 8.9866,
      "duration": 0.1077,
      "velocity": 111,
      "chip": "ym2612"
    },
    {
      "channel": 2,
      "note": 92,
      "start": 8.9907,
      "duration": 0.0827,
      "velocity": 91,
      "chip": "ym2612"
    },
    {
      "channel": 0,
      "note": 46,
      "start": 9.1099,
      "duration": 0.3504,
      "velocity": 111,
      "chip": "ym2612"
    },
    {
      "channel": 3,
      "note": 81,
      "start": 9.1117,
      "duration": 0.1203,
      "velocity": 97,
      "chip": "ym2612"
    },
    {
      "channel": 1,
      "note": 86,
      "start": 9.1135,
      "duration": 2.7782,
      "velocity": 91,
      "chip": "ym2612"
    },
    {
      "channel": 4,
      "note": 79,
      "start": 9.1149,
      "duration": 2.7769,
      "velocity": 91,
      "chip": "ym2612"
    },
    {
      "channel": 5,
      "note": 38,
      "start": 9.1178,
      "duration": 0.1791,
      "velocity": 127,
      "chip": "ym2612"
    },
    {
      "channel": 3,
      "note": 79,
      "start": 9.25,
      "duration": 0.117,
      "velocity": 97,
      "chip": "ym2612"
    },
    {
      "channel": 3,
      "note": 79,
      "start": 9.3703,
      "duration": 0.1191,
      "velocity": 97,
      "chip": "ym2612"
    },
    {
      "channel": 2,
      "note": 93,
      "start": 9.3738,
      "duration": 0.1167,
      "velocity": 127,
      "chip": "ym2612"
    },
    {
      "channel": 0,
      "note": 46,
      "start": 9.509,
      "duration": 0.1114,
      "velocity": 111,
      "chip": "ym2612"
    },
    {
      "channel": 3,
      "note": 79,
      "start": 9.5108,
      "duration": 0.0986,
      "velocity": 97,
      "chip": "ym2612"
    },
    {
      "channel": 2,
      "note": 92,
      "start": 9.5145,
      "duration": 0.0907,
      "velocity": 91,
      "chip": "ym2612"
    },
    {
      "channel": 5,
      "note": 44,
      "start": 9.5171,
      "duration": 0.1153,
      "velocity": 127,
      "chip": "ym2612"
    },
    {
      "channel": 0,
      "note": 46,
      "start": 9.6342,
      "duration": 0.3464,
      "velocity": 111,
      "chip": "ym2612"
    },
    {
      "channel": 3,
      "note": 77,
      "start": 9.6357,
      "duration": 0.2996,
      "velocity": 97,
      "chip": "ym2612"
    },
    {
      "channel": 5,
      "note": 38,
      "start": 9.6397,
      "duration": 0.2462,
      "velocity": 127,
      "chip": "ym2612"
    },
    {
      "channel": 2,
      "note": 93,
      "start": 9.8929,
      "duration": 0.1179,
      "velocity": 127,
      "chip": "ym2612"
    },
    {
      "channel": 5,
      "note": 45,
      "start": 9.8949,
      "duration": 0.1148,
      "velocity": 127,
      "chip": "ym2612"
    },
    {
      "channel": 0,
      "note": 46,
      "start": 10.0125,
      "duration": 0.1111,
      "velocity": 111,
      "chip": "ym2612"
    },
    {
      "channel": 3,
      "note": 77,
      "start": 10.014,
      "duration": 0.0986,
      "velocity": 97,
      "chip": "ym2612"
    },
    {
      "channel": 2,
      "note": 92,
      "start": 10.0177,
      "duration": 0.085,
      "velocity": 91,
      "chip": "ym2612"
    },
    {
      "channel": 5,
      "note": 62,
      "start": 10.0204,
      "duration": 0.1155,
      "velocity": 127,
      "chip": "ym2612"
    },
    {
      "channel": 0,
      "note": 46,
      "start": 10.1375,
      "duration": 0.3463,
      "velocity": 111,
      "chip": "ym2612"
    },
    {
      "channel": 3,
      "note": 79,
      "start": 10.139,
      "duration": 1.8904,
      "velocity": 97,
      "chip": "ym2612"
    },
    {
      "channel": 5,
      "note": 38,
      "start": 10.1421,
      "duration": 0.2413,
      "velocity": 127,
      "chip": "ym2612"
    },
    {
      "channel": 2,
      "note": 93,
      "start": 10.3964,
      "duration": 0.1167,
      "velocity": 127,
      "chip": "ym2612"
    },
    {
      "channel": 0,
      "note": 46,
      "start": 10.5148,
      "duration": 0.1062,
      "velocity": 111,
      "chip": "ym2612"
    },
    {
      "channel": 2,
      "note": 92,
      "start": 10.5189,
      "duration": 0.0813,
      "velocity": 91,
      "chip": "ym2612"
    },
    {
      "channel": 5,
      "note": 38,
      "start": 10.5206,
      "duration": 0.1144,
      "velocity": 127,
      "chip": "ym2612"
    },
    {
      "channel": 0,
      "note": 46,
      "start": 10.6512,
      "duration": 0.3473,
      "velocity": 111,
      "chip": "ym2612"
    },
    {
      "channel": 5,
      "note": 38,
      "start": 10.6547,
      "duration": 0.2343,
      "velocity": 127,
      "chip": "ym2612"
    },
    {
      "channel": 2,
      "note": 93,
      "start": 10.8941,
      "duration": 0.1182,
      "velocity": 127,
      "chip": "ym2612"
    },
    {
      "channel": 5,
      "note": 38,
      "start": 10.8958,
      "duration": 0.1167,
      "velocity": 127,
      "chip": "ym2612"
    },
    {
      "channel": 0,
      "note": 46,
      "start": 11.0285,
      "duration": 0.1072,
      "velocity": 111,
      "chip": "ym2612"
    },
    {
      "channel": 2,
      "note": 92,
      "start": 11.0325,
      "duration": 0.0823,
      "velocity": 91,
      "chip": "ym2612"
    },
    {
      "channel": 0,
      "note": 46,
      "start": 11.1486,
      "duration": 0.2444,
      "velocity": 111,
      "chip": "ym2612"
    },
    {
      "channel": 5,
      "note": 38,
      "start": 11.153,
      "duration": 0.1796,
      "velocity": 127,
      "chip": "ym2612"
    },
    {
      "channel": 0,
      "note": 46,
      "start": 11.4055,
      "duration": 0.1076,
      "velocity": 111,
      "chip": "ym2612"
    },
    {
      "channel": 2,
      "note": 93,
      "start": 11.4097,
      "duration": 0.1151,
      "velocity": 127,
      "chip": "ym2612"
    },
    {
      "channel": 0,
      "note": 46,
      "start": 11.5266,
      "duration": 0.1066,
      "velocity": 111,
      "chip": "ym2612"
    },
    {
      "channel": 2,
      "note": 92,
      "start": 11.531,
      "duration": 0.0816,
      "velocity": 91,
      "chip": "ym2612"
    },
    {
      "channel": 5,
      "note": 44,
      "start": 11.5336,
      "duration": 0.1113,
      "velocity": 127,
      "chip": "ym2612"
    },
    {
      "channel": 0,
      "note": 46,
      "start": 11.6465,
      "duration": 0.3526,
      "velocity": 111,
      "chip": "ym2612"
    },
    {
      "channel": 5,
      "note": 38,
      "start": 11.651,
      "duration": 0.2415,
      "velocity": 127,
      "chip": "ym2612"
    },
    {
      "channel": 1,
      "note": 86,
      "start": 11.9061,
      "duration": 0.1212,
      "velocity": 91,
      "chip": "ym2612"
    },
    {
      "channel": 4,
      "note": 79,
      "start": 11.9077,
      "duration": 0.1206,
      "velocity": 91,
      "chip": "ym2612"
    },
    {
      "channel": 2,
      "note": 93,
      "start": 11.9102,
      "duration": 0.1212,
      "velocity": 127,
      "chip": "ym2612"
    },
    {
      "channel": 5,
      "note": 45,
      "start": 11.9122,
      "duration": 0.1183,
      "velocity": 127,
      "chip": "ym2612"
    },
    {
      "channel": 0,
      "note": 46,
      "start": 12.0331,
      "duration": 0.1147,
      "velocity": 111,
      "chip": "ym2612"
    },
    {
      "channel": 3,
      "note": 79,
      "start": 12.0346,
      "duration": 0.1251,
      "velocity": 97,
      "chip": "ym2612"
    },
    {
      "channel": 1,
      "note": 86,
      "start": 12.0363,
      "duration": 0.1235,
      "velocity": 91,
      "chip": "ym2612"
    },
    {
      "channel": 4,
      "note": 79,
      "start": 12.038,
      "duration": 0.1221,
      "velocity": 91,
      "chip": "ym2612"
    },
    {
      "channel": 2,
      "note": 92,
      "start": 12.0406,
      "duration": 0.0863,
      "velocity": 91,
      "chip": "ym2612"
    },
    {
      "channel": 5,
      "note": 62,
      "start": 12.0432,
      "duration": 0.1178,
      "velocity": 127,
      "chip": "ym2612"
    },
    {
      "channel": 0,
      "note": 46,
      "start": 12.1756,
      "duration": 0.3496,
      "velocity": 111,
      "chip": "ym2612"
    },
    {
      "channel": 3,
      "note": 79,
      "start": 12.1775,
      "duration": 0.1174,
      "velocity": 97,
      "chip": "ym2612"
    },
    {
      "channel": 1,
      "note": 86,
      "start": 12.1792,
      "duration": 0.2441,
      "velocity": 91,
      "chip": "ym2612"
    },
    {
      "channel": 4,
      "note": 79,
      "start": 12.181,
      "duration": 0.2424,
      "velocity": 91,
      "chip": "ym2612"
    },
    {
      "channel": 5,
      "note": 38,
      "start": 12.1832,
      "duration": 0.2408,
      "velocity": 127,
      "chip": "ym2612"
    },
    {
      "channel": 3,
      "note": 77,
      "start": 12.2978,
      "duration": 0.1193,
      "velocity": 97,
      "chip": "ym2612"
    },
    {
      "channel": 3,
      "note": 72,
      "start": 12.4372,
      "duration": 0.1179,
      "velocity": 97,
      "chip": "ym2612"
    },
    {
      "channel": 1,
      "note": 84,
      "start": 12.4389,
      "duration": 0.1142,
      "velocity": 91,
      "chip": "ym2612"
    },
    {
      "channel": 4,
      "note": 77,
      "start": 12.4405,
      "duration": 0.1135,
      "velocity": 91,
      "chip": "ym2612"
    },
    {
      "channel": 2,
      "note": 93,
      "start": 12.443,
      "duration": 0.1141,
      "velocity": 127,
      "chip": "ym2612"
    },
    {
      "channel": 0,
      "note": 46,
      "start": 12.5588,
      "duration": 0.1093,
      "velocity": 111,
      "chip": "ym2612"
    },
    {
      "channel": 3,
      "note": 77,
      "start": 12.5606,
      "duration": 0.1186,
      "velocity": 97,
      "chip": "ym2612"
    },
    {
      "channel": 1,
      "note": 84,
      "start": 12.5622,
      "duration": 0.2442,
      "velocity": 91,
      "chip": "ym2612"
    },
    {
      "channel": 4,
      "note": 77,
      "start": 12.5638,
      "duration": 0.2427,
      "velocity": 91,
      "chip": "ym2612"
    },
    {
      "channel": 2,
      "note": 92,
      "start": 12.5664,
      "duration": 0.0808,
      "velocity": 91,
      "chip": "ym2612"
    },
    {
      "channel": 5,
      "note": 38,
      "start": 12.5681,
      "duration": 0.1123,
      "velocity": 127,
      "chip": "ym2612"
    },
    {
      "channel": 0,
      "note": 46,
      "start": 12.6821,
      "duration": 0.352,
      "velocity": 111,
      "chip": "ym2612"
    },
    {
      "channel": 3,
      "note": 77,
      "start": 12.6836,
      "duration": 0.1165,
      "velocity": 97,
      "chip": "ym2612"
    },
    {
      "channel": 5,
      "note": 38,
      "start": 12.6867,
      "duration": 0.2415,
      "velocity": 127,
      "chip": "ym2612"
    },
    {
      "channel": 3,
      "note": 77,
      "start": 12.8194,
      "duration": 0.118,
      "velocity": 97,
      "chip": "ym2612"
    },
    {
      "channel": 1,
      "note": 84,
      "start": 12.821,
      "duration": 0.1142,
      "velocity": 91,
      "chip": "ym2612"
    },
    {
      "channel": 4,
      "note": 77,
      "start": 12.8226,
      "duration": 0.1136,
      "velocity": 91,
      "chip": "ym2612"
    },
    {
      "channel": 3,
      "note": 77,
      "start": 12.9415,
      "duration": 0.2475,
      "velocity": 97,
      "chip": "ym2612"
    },
    {
      "channel": 1,
      "note": 84,
      "start": 12.9433,
      "duration": 0.2458,
      "velocity": 91,
      "chip": "ym2612"
    },
    {
      "channel": 4,
      "note": 77,
      "start": 12.9454,
      "duration": 0.2439,
      "velocity": 91,
      "chip": "ym2612"
    },
    {
      "channel": 2,
      "note": 93,
      "start": 12.9481,
      "duration": 0.1141,
      "velocity": 127,
      "chip": "ym2612"
    },
    {
      "channel": 5,
      "note": 38,
      "start": 12.9498,
      "duration": 0.119,
      "velocity": 127,
      "chip": "ym2612"
    },
    {
      "channel": 0,
      "note": 46,
      "start": 13.0639,
      "duration": 0.1134,
      "velocity": 111,
      "chip": "ym2612"
    },
    {
      "channel": 2,
      "note": 92,
      "start": 13.068,
      "duration": 0.0882,
      "velocity": 91,
      "chip": "ym2612"
    },
    {
      "channel": 0,
      "note": 46,
      "start": 13.2041,
      "duration": 0.3503,
      "velocity": 111,
      "chip": "ym2612"
    },
    {
      "channel": 3,
      "note": 81,
      "start": 13.2056,
      "duration": 0.1183,
      "velocity": 97,
      "chip": "ym2612"
    },
    {
      "channel": 1,
      "note": 86,
      "start": 13.2073,
      "duration": 2.7703,
      "velocity": 91,
      "chip": "ym2612"
    },
    {
      "channel": 4,
      "note": 79,
      "start": 13.2088,
      "duration": 2.7698,
      "velocity": 91,
      "chip": "ym2612"
    },
    {
      "channel": 5,
      "note": 38,
      "start": 13.2119,
      "duration": 0.1791,
      "velocity": 127,
      "chip": "ym2612"
    },
    {
      "channel": 3,
      "note": 79,
      "start": 13.3273,
      "duration": 0.1169,
      "velocity": 97,
      "chip": "ym2612"
    },
    {
      "channel": 3,
      "note": 79,
      "start": 13.4475,
      "duration": 0.1189,
      "velocity": 97,
      "chip": "ym2612"
    },
    {
      "channel": 2,
      "note": 93,
      "start": 13.4511,
      "duration": 0.1164,
      "velocity": 127,
      "chip": "ym2612"
    },
    {
      "channel": 0,
      "note": 46,
      "start": 13.5862,
      "duration": 0.1111,
      "velocity": 111,
      "chip": "ym2612"
    },
    {
      "channel": 3,
      "note": 79,
      "start": 13.5878,
      "duration": 0.0987,
      "velocity": 97,
      "chip": "ym2612"
    },
    {
      "channel": 2,
      "note": 92,
      "start": 13.5913,
      "duration": 0.0852,
      "velocity": 91,
      "chip": "ym2612"
    },
    {
      "channel": 5,
      "note": 44,
      "start": 13.5942,
      "duration": 0.1151,
      "velocity": 127,
      "chip": "ym2612"
    },
    {
      "channel": 0,
      "note": 46,
      "start": 13.7112,
      "duration": 0.3464,
      "velocity": 111,
      "chip": "ym2612"
    },
    {
      "channel": 3,
      "note": 79,
      "start": 13.7127,
      "duration": 0.2997,
      "velocity": 97,
      "chip": "ym2612"
    },
    {
      "channel": 5,
      "note": 38,
      "start": 13.7169,
      "duration": 0.2403,
      "velocity": 127,
      "chip": "ym2612"
    },
    {
      "channel": 2,
      "note": 93,
      "start": 13.9705,
      "duration": 0.1171,
      "velocity": 127,
      "chip": "ym2612"
    },
    {
      "channel": 5,
      "note": 45,
      "start": 13.9722,
      "duration": 0.1146,
      "velocity": 127,
      "chip": "ym2612"
    },
    {
      "channel": 0,
      "note": 46,
      "start": 14.0893,
      "duration": 0.117,
      "velocity": 111,
      "chip": "ym2612"
    },
    {
      "channel": 3,
      "note": 84,
      "start": 14.0908,
      "duration": 0.0988,
      "velocity": 97,
      "chip": "ym2612"
    },
    {
      "channel": 2,
      "note": 92,
      "start": 14.0948,
      "duration": 0.0906,
      "velocity": 91,
      "chip": "ym2612"
    },
    {
      "channel": 5,
      "note": 62,
      "start": 14.0974,
      "duration": 0.1154,
      "velocity": 127,
      "chip": "ym2612"
    },
    {
      "channel": 0,
      "note": 46,
      "start": 14.2145,
      "duration": 0.3463,
      "velocity": 111,
      "chip": "ym2612"
    },
    {
      "channel": 3,
      "note": 82,
      "start": 14.2161,
      "duration": 1.9075,
      "velocity": 97,
      "chip": "ym2612"
    },
    {
      "channel": 5,
      "note": 38,
      "start": 14.2193,
      "duration": 0.2414,
      "velocity": 127,
      "chip": "ym2612"
    },
    {
      "channel": 2,
      "note": 93,
      "start": 14.4732,
      "duration": 0.1167,
      "velocity": 127,
      "chip": "ym2612"
    },
    {
      "channel": 0,
      "note": 46,
      "start": 14.5915,
      "duration": 0.1123,
      "velocity": 111,
      "chip": "ym2612"
    },
    {
      "channel": 2,
      "note": 92,
      "start": 14.5959,
      "duration": 0.0872,
      "velocity": 91,
      "chip": "ym2612"
    },
    {
      "channel": 5,
      "note": 38,
      "start": 14.5976,
      "duration": 0.1146,
      "velocity": 127,
      "chip": "ym2612"
    },
    {
      "channel": 0,
      "note": 46,
      "start": 14.7283,
      "duration": 0.3471,
      "velocity": 111,
      "chip": "ym2612"
    },
    {
      "channel": 5,
      "note": 38,
      "start": 14.7318,
      "duration": 0.2432,
      "velocity": 127,
      "chip": "ym2612"
    },
    {
      "channel": 2,
      "note": 93,
      "start": 14.9881,
      "duration": 0.1155,
      "velocity": 127,
      "chip": "ym2612"
    },
    {
      "channel": 5,
      "note": 38,
      "start": 14.9898,
      "duration": 0.1204,
      "velocity": 127,
      "chip": "ym2612"
    },
    {
      "channel": 0,
      "note": 46,
      "start": 15.1052,
      "duration": 0.1132,
      "velocity": 111,
      "chip": "ym2612"
    },
    {
      "channel": 2,
      "note": 92,
      "start": 15.1093,
      "duration": 0.0885,
      "velocity": 91,
      "chip": "ym2612"
    },
    {
      "channel": 0,
      "note": 46,
      "start": 15.225,
      "duration": 0.245,
      "velocity": 111,
      "chip": "ym2612"
    },
    {
      "channel": 5,
      "note": 38,
      "start": 15.2297,
      "duration": 0.1799,
      "velocity": 127,
      "chip": "ym2612"
    },
    {
      "channel": 0,
      "note": 46,
      "start": 15.4828,
      "duration": 0.1073,
      "velocity": 111,
      "chip": "ym2612"
    },
    {
      "channel": 2,
      "note": 93,
      "start": 15.4871,
      "duration": 0.1148,
      "velocity": 127,
      "chip": "ym2612"
    },
    {
      "channel": 0,
      "note": 46,
      "start": 15.6036,
      "duration": 0.1123,
      "velocity": 111,
      "chip": "ym2612"
    },
    {
      "channel": 2,
      "note": 92,
      "start": 15.6077,
      "duration": 0.0876,
      "velocity": 91,
      "chip": "ym2612"
    },
    {
      "channel": 5,
      "note": 44,
      "start": 15.6106,
      "duration": 0.1135,
      "velocity": 127,
      "chip": "ym2612"
    },
    {
      "channel": 0,
      "note": 46,
      "start": 15.7404,
      "duration": 0.3529,
      "velocity": 111,
      "chip": "ym2612"
    },
    {
      "channel": 5,
      "note": 38,
      "start": 15.7452,
      "duration": 0.2355,
      "velocity": 127,
      "chip": "ym2612"
    },
    {
      "channel": 1,
      "note": 86,
      "start": 15.9834,
      "duration": 0.1225,
      "velocity": 91,
      "chip": "ym2612"
    },
    {
      "channel": 4,
      "note": 79,
      "start": 15.985,
      "duration": 0.1211,
      "velocity": 91,
      "chip": "ym2612"
    },
    {
      "channel": 2,
      "note": 93,
      "start": 15.9875,
      "duration": 0.1187,
      "velocity": 127,
      "chip": "ym2612"
    },
    {
      "channel": 5,
      "note": 47,
      "start": 15.9892,
      "duration": 0.1172,
      "velocity": 127,
      "chip": "ym2612"
    },
    {
      "channel": 0,
      "note": 46,
      "start": 16.1275,
      "duration": 0.1145,
      "velocity": 111,
      "chip": "ym2612"
    },
    {
      "channel": 3,
      "note": 81,
      "start": 16.129,
      "duration": 0.1207,
      "velocity": 97,
      "chip": "ym2612"
    },
    {
      "channel": 1,
      "note": 86,
      "start": 16.1308,
      "duration": 0.1167,
      "velocity": 91,
      "chip": "ym2612"
    },
    {
      "channel": 4,
      "note": 79,
      "start": 16.1324,
      "duration": 0.116,
      "velocity": 91,
      "chip": "ym2612"
    },
    {
      "channel": 2,
      "note": 92,
      "start": 16.1349,
      "duration": 0.0862,
      "velocity": 91,
      "chip": "ym2612"
    },
    {
      "channel": 5,
      "note": 61,
      "start": 16.1376,
      "duration": 0.1134,
      "velocity": 127,
      "chip": "ym2612"
    },
    {
      "channel": 0,
      "note": 46,
      "start": 16.2527,
      "duration": 0.3495,
      "velocity": 111,
      "chip": "ym2612"
    },
    {
      "channel": 3,
      "note": 81,
      "start": 16.2542,
      "duration": 0.1174,
      "velocity": 97,
      "chip": "ym2612"
    },
    {
      "channel": 1,
      "note": 86,
      "start": 16.256,
      "duration": 0.2443,
      "velocity": 91,
      "chip": "ym2612"
    },
    {
      "channel": 4,
      "note": 79,
      "start": 16.2577,
      "duration": 0.2427,
      "velocity": 91,
      "chip": "ym2612"
    },
    {
      "channel": 5,
      "note": 38,
      "start": 16.26,
      "duration": 0.241,
      "velocity": 127,
      "chip": "ym2612"
    },
    {
      "channel": 3,
      "note": 77,
      "start": 16.3748,
      "duration": 0.1195,
      "velocity": 97,
      "chip": "ym2612"
    },
    {
      "channel": 3,
      "note": 72,
      "start": 16.5145,
      "duration": 0.118,
      "velocity": 97,
      "chip": "ym2612"
    },
    {
      "channel": 1,
      "note": 84,
      "start": 16.5162,
      "duration": 0.1143,
      "velocity": 91,
      "chip": "ym2612"
    },
    {
      "channel": 4,
      "note": 77,
      "start": 16.5178,
      "duration": 0.1136,
      "velocity": 91,
      "chip": "ym2612"
    },
    {
      "channel": 2,
      "note": 93,
      "start": 16.5203,
      "duration": 0.1141,
      "velocity": 127,
      "chip": "ym2612"
    },
    {
      "channel": 0,
      "note": 46,
      "start": 16.6361,
      "duration": 0.1148,
      "velocity": 111,
      "chip": "ym2612"
    },
    {
      "channel": 3,
      "note": 77,
      "start": 16.6376,
      "duration": 0.118,
      "velocity": 97,
      "chip": "ym2612"
    },
    {
      "channel": 1,
      "note": 84,
      "start": 16.6392,
      "duration": 0.2499,
      "velocity": 91,
      "chip": "ym2612"
    },
    {
      "channel": 4,
      "note": 77,
      "start": 16.6408,
      "duration": 0.2484,
      "velocity": 91,
      "chip": "ym2612"
    },
    {
      "channel": 2,
      "note": 92,
      "start": 16.6434,
      "duration": 0.0866,
      "velocity": 91,
      "chip": "ym2612"
    },
    {
      "channel": 5,
      "note": 38,
      "start": 16.6455,
      "duration": 0.1113,
      "velocity": 127,
      "chip": "ym2612"
    },
    {
      "channel": 0,
      "note": 46,
      "start": 16.7585,
      "duration": 0.3526,
      "velocity": 111,
      "chip": "ym2612"
    },
    {
      "channel": 3,
      "note": 77,
      "start": 16.76,
      "duration": 0.1174,
      "velocity": 97,
      "chip": "ym2612"
    },
    {
      "channel": 5,
      "note": 38,
      "start": 16.7634,
      "duration": 0.2415,
      "velocity": 127,
      "chip": "ym2612"
    },
    {
      "channel": 3,
      "note": 77,
      "start": 16.896,
      "duration": 0.1186,
      "velocity": 97,
      "chip": "ym2612"
    },
    {
      "channel": 1,
      "note": 84,
      "start": 16.8976,
      "duration": 0.1149,
      "velocity": 91,
      "chip": "ym2612"
    },
    {
      "channel": 4,
      "note": 77,
      "start": 16.8992,
      "duration": 0.1143,
      "velocity": 91,
      "chip": "ym2612"
    },
    {
      "channel": 3,
      "note": 77,
      "start": 17.0188,
      "duration": 0.2472,
      "velocity": 97,
      "chip": "ym2612"
    },
    {
      "channel": 1,
      "note": 84,
      "start": 17.0206,
      "duration": 0.2456,
      "velocity": 91,
      "chip": "ym2612"
    },
    {
      "channel": 4,
      "note": 77,
      "start": 17.0224,
      "duration": 0.244,
      "velocity": 91,
      "chip": "ym2612"
    },
    {
      "channel": 2,
      "note": 93,
      "start": 17.0252,
      "duration": 0.1139,
      "velocity": 127,
      "chip": "ym2612"
    },
    {
      "channel": 5,
      "note": 38,
      "start": 17.0269,
      "duration": 0.119,
      "velocity": 127,
      "chip": "ym2612"
    },
    {
      "channel": 0,
      "note": 46,
      "start": 17.1407,
      "duration": 0.1134,
      "velocity": 111,
      "chip": "ym2612"
    },
    {
      "channel": 2,
      "note": 92,
      "start": 17.145,
      "duration": 0.0882,
      "velocity": 91,
      "chip": "ym2612"
    },
    {
      "channel": 0,
      "note": 46,
      "start": 17.2814,
      "duration": 0.35,
      "velocity": 111,
      "chip": "ym2612"
    },
    {
      "channel": 3,
      "note": 81,
      "start": 17.2829,
      "duration": 0.118,
      "velocity": 97,
      "chip": "ym2612"
    },
    {
      "channel": 1,
      "note": 86,
      "start": 17.2846,
      "duration": 0.8783,
      "velocity": 91,
      "chip": "ym2612"
    },
    {
      "channel": 4,
      "note": 79,
      "start": 17.2861,
      "duration": 0.8778,
      "velocity": 91,
      "chip": "ym2612"
    },
    {
      "channel": 5,
      "note": 38,
      "start": 17.289,
      "duration": 0.1792,
      "velocity": 127,
      "chip": "ym2612"
    },
    {
      "channel": 3,
      "note": 79,
      "start": 17.404,
      "duration": 0.1193,
      "velocity": 97,
      "chip": "ym2612"
    },
    {
      "channel": 3,
      "note": 79,
      "start": 17.5415,
      "duration": 0.1179,
      "velocity": 97,
      "chip": "ym2612"
    },
    {
      "channel": 2,
      "note": 93,
      "start": 17.5453,
      "duration": 0.1163,
      "velocity": 127,
      "chip": "ym2612"
    },
    {
      "channel": 0,
      "note": 46,
      "start": 17.6633,
      "duration": 0.1168,
      "velocity": 111,
      "chip": "ym2612"
    },
    {
      "channel": 3,
      "note": 79,
      "start": 17.6649,
      "duration": 0.0986,
      "velocity": 97,
      "chip": "ym2612"
    },
    {
      "channel": 2,
      "note": 92,
      "start": 17.6686,
      "duration": 0.0906,
      "velocity": 91,
      "chip": "ym2612"
    },
    {
      "channel": 5,
      "note": 44,
      "start": 17.6712,
      "duration": 0.1148,
      "velocity": 127,
      "chip": "ym2612"
    },
    {
      "channel": 0,
      "note": 46,
      "start": 17.7876,
      "duration": 0.3471,
      "velocity": 111,
      "chip": "ym2612"
    },
    {
      "channel": 3,
      "note": 77,
      "start": 17.7892,
      "duration": 0.3002,
      "velocity": 97,
      "chip": "ym2612"
    },
    {
      "channel": 5,
      "note": 38,
      "start": 17.7932,
      "duration": 0.241,
      "velocity": 127,
      "chip": "ym2612"
    },
    {
      "channel": 2,
      "note": 93,
      "start": 18.0475,
      "duration": 0.1195,
      "velocity": 127,
      "chip": "ym2612"
    },
    {
      "channel": 5,
      "note": 45,
      "start": 18.0492,
      "duration": 0.1169,
      "velocity": 127,
      "chip": "ym2612"
    },
    {
      "channel": 0,
      "note": 46,
      "start": 18.1686,
      "duration": 0.1147,
      "velocity": 111,
      "chip": "ym2612"
    },
    {
      "channel": 3,
      "note": 77,
      "start": 18.1701,
      "duration": 0.0965,
      "velocity": 97,
      "chip": "ym2612"
    },
    {
      "channel": 1,
      "note": 86,
      "start": 18.1719,
      "duration": 0.1182,
      "velocity": 91,
      "chip": "ym2612"
    },
    {
      "channel": 4,
      "note": 79,
      "start": 18.1734,
      "duration": 0.1167,
      "velocity": 91,
      "chip": "ym2612"
    },
    {
      "channel": 2,
      "note": 92,
      "start": 18.1761,
      "duration": 0.0867,
      "velocity": 91,
      "chip": "ym2612"
    },
    {
      "channel": 5,
      "note": 62,
      "start": 18.179,
      "duration": 0.1119,
      "velocity": 127,
      "chip": "ym2612"
    },
    {
      "channel": 0,
      "note": 46,
      "start": 18.311,
      "duration": 0.3498,
      "velocity": 111,
      "chip": "ym2612"
    },
    {
      "channel": 3,
      "note": 79,
      "start": 18.3128,
      "duration": 1.8968,
      "velocity": 97,
      "chip": "ym2612"
    },
    {
      "channel": 1,
      "note": 86,
      "start": 18.3143,
      "duration": 0.8707,
      "velocity": 91,
      "chip": "ym2612"
    },
    {
      "channel": 4,
      "note": 79,
      "start": 18.3159,
      "duration": 0.8701,
      "velocity": 91,
      "chip": "ym2612"
    },
    {
      "channel": 5,
      "note": 38,
      "start": 18.3182,
      "duration": 0.2422,
      "velocity": 127,
      "chip": "ym2612"
    },
    {
      "channel": 2,
      "note": 93,
      "start": 18.5559,
      "duration": 0.1183,
      "velocity": 127,
      "chip": "ym2612"
    },
    {
      "channel": 0,
      "note": 48,
      "start": 18.6915,
      "duration": 0.1122,
      "velocity": 111,
      "chip": "ym2612"
    },
    {
      "channel": 2,
      "note": 92,
      "start": 18.6958,
      "duration": 0.0873,
      "velocity": 91,
      "chip": "ym2612"
    },
    {
      "channel": 5,
      "note": 38,
      "start": 18.6975,
      "duration": 0.1113,
      "velocity": 127,
      "chip": "ym2612"
    },
    {
      "channel": 0,
      "note": 48,
      "start": 18.8107,
      "duration": 0.2446,
      "velocity": 111,
      "chip": "ym2612"
    },
    {
      "channel": 5,
      "note": 38,
      "start": 18.8142,
      "duration": 0.2433,
      "velocity": 127,
      "chip": "ym2612"
    },
    {
      "channel": 0,
      "note": 48,
      "start": 19.0686,
      "duration": 0.2363,
      "velocity": 111,
      "chip": "ym2612"
    },
    {
      "channel": 2,
      "note": 93,
      "start": 19.0728,
      "duration": 0.1143,
      "velocity": 127,
      "chip": "ym2612"
    },
    {
      "channel": 5,
      "note": 38,
      "start": 19.0745,
      "duration": 0.1208,
      "velocity": 127,
      "chip": "ym2612"
    },
    {
      "channel": 1,
      "note": 86,
      "start": 19.19,
      "duration": 0.1162,
      "velocity": 91,
      "chip": "ym2612"
    },
    {
      "channel": 4,
      "note": 81,
      "start": 19.1916,
      "duration": 0.1156,
      "velocity": 91,
      "chip": "ym2612"
    },
    {
      "channel": 2,
      "note": 92,
      "start": 19.1944,
      "duration": 0.0859,
      "velocity": 91,
      "chip": "ym2612"
    },
    {
      "channel": 0,
      "note": 48,
      "start": 19.3101,
      "duration": 0.3513,
      "velocity": 111,
      "chip": "ym2612"
    },
    {
      "channel": 1,
      "note": 86,
      "start": 19.3124,
      "duration": 0.373,
      "velocity": 91,
      "chip": "ym2612"
    },
    {
      "channel": 4,
      "note": 81,
      "start": 19.3142,
      "duration": 0.3714,
      "velocity": 91,
      "chip": "ym2612"
    },
    {
      "channel": 5,
      "note": 38,
      "start": 19.3173,
      "duration": 0.1807,
      "velocity": 127,
      "chip": "ym2612"
    },
    {
      "channel": 2,
      "note": 93,
      "start": 19.5739,
      "duration": 0.1179,
      "velocity": 127,
      "chip": "ym2612"
    },
    {
      "channel": 0,
      "note": 48,
      "start": 19.6934,
      "duration": 0.1167,
      "velocity": 111,
      "chip": "ym2612"
    },
    {
      "channel": 1,
      "note": 84,
      "start": 19.6958,
      "duration": 0.121,
      "velocity": 91,
      "chip": "ym2612"
    },
    {
      "channel": 4,
      "note": 79,
      "start": 19.6974,
      "duration": 0.1196,
      "velocity": 91,
      "chip": "ym2612"
    },
    {
      "channel": 2,
      "note": 92,
      "start": 19.6999,
      "duration": 0.0893,
      "velocity": 91,
      "chip": "ym2612"
    },
    {
      "channel": 5,
      "note": 44,
      "start": 19.7025,
      "duration": 0.1151,
      "velocity": 127,
      "chip": "ym2612"
    },
    {
      "channel": 0,
      "note": 48,
      "start": 19.836,
      "duration": 0.4983,
      "velocity": 111,
      "chip": "ym2612"
    },
    {
      "channel": 1,
      "note": 84,
      "start": 19.838,
      "duration": 0.3676,
      "velocity": 91,
      "chip": "ym2612"
    },
    {
      "channel": 5,
      "note": 38,
      "start": 19.8418,
      "duration": 0.2398,
      "velocity": 127,
      "chip": "ym2612"
    },
    {
      "channel": 2,
      "note": 93,
      "start": 20.0946,
      "duration": 0.1172,
      "velocity": 127,
      "chip": "ym2612"
    },
    {
      "channel": 5,
      "note": 45,
      "start": 20.0963,
      "duration": 0.1146,
      "velocity": 127,
      "chip": "ym2612"
    },
    {
      "channel": 3,
      "note": 79,
      "start": 20.214,
      "duration": 0.1238,
      "velocity": 97,
      "chip": "ym2612"
    },
    {
      "channel": 4,
      "note": 79,
      "start": 20.2163,
      "duration": 0.1202,
      "velocity": 91,
      "chip": "ym2612"
    },
    {
      "channel": 2,
      "note": 92,
      "start": 20.2189,
      "duration": 0.0906,
      "velocity": 91,
      "chip": "ym2612"
    },
    {
      "channel": 5,
      "note": 62,
      "start": 20.2215,
      "duration": 0.1175,
      "velocity": 127,
      "chip": "ym2612"
    },
    {
      "channel": 0,
      "note": 48,
      "start": 20.3407,
      "duration": 0.3499,
      "velocity": 111,
      "chip": "ym2612"
    },
    {
      "channel": 3,
      "note": 79,
      "start": 20.3424,
      "duration": 0.12,
      "velocity": 97,
      "chip": "ym2612"
    },
    {
      "channel": 1,
      "note": 81,
      "start": 20.3444,
      "duration": 0.2443,
      "velocity": 91,
      "chip": "ym2612"
    },
    {
      "channel": 4,
      "note": 81,
      "start": 20.3462,
      "duration": 0.2427,
      "velocity": 91,
      "chip": "ym2612"
    },
    {
      "channel": 5,
      "note": 38,
      "start": 20.3485,
      "duration": 0.2411,
      "velocity": 127,
      "chip": "ym2612"
    },
    {
      "channel": 3,
      "note": 77,
      "start": 20.4804,
      "duration": 0.1193,
      "velocity": 97,
      "chip": "ym2612"
    },
    {
      "channel": 3,
      "note": 72,
      "start": 20.603,
      "duration": 0.1177,
      "velocity": 97,
      "chip": "ym2612"
    },
    {
      "channel": 1,
      "note": 84,
      "start": 20.6047,
      "duration": 0.1139,
      "velocity": 91,
      "chip": "ym2612"
    },
    {
      "channel": 4,
      "note": 77,
      "start": 20.6063,
      "duration": 0.1133,
      "velocity": 91,
      "chip": "ym2612"
    },
    {
      "channel": 2,
      "note": 93,
      "start": 20.6088,
      "duration": 0.1138,
      "velocity": 127,
      "chip": "ym2612"
    },
    {
      "channel": 0,
      "note": 50,
      "start": 20.7243,
      "duration": 0.1151,
      "velocity": 111,
      "chip": "ym2612"
    },
    {
      "channel": 3,
      "note": 77,
      "start": 20.7258,
      "duration": 0.1198,
      "velocity": 97,
      "chip": "ym2612"
    },
    {
      "channel": 1,
      "note": 84,
      "start": 20.7277,
      "duration": 0.2441,
      "velocity": 91,
      "chip": "ym2612"
    },
    {
      "channel": 4,
      "note": 77,
      "start": 20.7293,
      "duration": 0.2427,
      "velocity": 91,
      "chip": "ym2612"
    },
    {
      "channel": 2,
      "note": 92,
      "start": 20.7319,
      "duration": 0.0865,
      "velocity": 91,
      "chip": "ym2612"
    },
    {
      "channel": 5,
      "note": 38,
      "start": 20.7336,
      "duration": 0.1136,
      "velocity": 127,
      "chip": "ym2612"
    },
    {
      "channel": 0,
      "note": 50,
      "start": 20.8647,
      "duration": 0.352,
      "velocity": 111,
      "chip": "ym2612"
    },
    {
      "channel": 3,
      "note": 77,
      "start": 20.8663,
      "duration": 0.1167,
      "velocity": 97,
      "chip": "ym2612"
    },
    {
      "channel": 5,
      "note": 38,
      "start": 20.8693,
      "duration": 0.2356,
      "velocity": 127,
      "chip": "ym2612"
    },
    {
      "channel": 3,
      "note": 77,
      "start": 20.9851,
      "duration": 0.1177,
      "velocity": 97,
      "chip": "ym2612"
    },
    {
      "channel": 1,
      "note": 84,
      "start": 20.9867,
      "duration": 0.1139,
      "velocity": 91,
      "chip": "ym2612"
    },
    {
      "channel": 4,
      "note": 77,
      "start": 20.9883,
      "duration": 0.1133,
      "velocity": 91,
      "chip": "ym2612"
    },
    {
      "channel": 3,
      "note": 77,
      "start": 21.107,
      "duration": 0.2475,
      "velocity": 97,
      "chip": "ym2612"
    },
    {
      "channel": 1,
      "note": 84,
      "start": 21.1088,
      "duration": 0.2459,
      "velocity": 91,
      "chip": "ym2612"
    },
    {
      "channel": 4,
      "note": 77,
      "start": 21.1109,
      "duration": 0.2439,
      "velocity": 91,
      "chip": "ym2612"
    },
    {
      "channel": 2,
      "note": 93,
      "start": 21.1137,
      "duration": 0.1165,
      "velocity": 127,
      "chip": "ym2612"
    },
    {
      "channel": 5,
      "note": 38,
      "start": 21.1154,
      "duration": 0.1149,
      "velocity": 127,
      "chip": "ym2612"
    },
    {
      "channel": 0,
      "note": 50,
      "start": 21.2465,
      "duration": 0.1132,
      "velocity": 111,
      "chip": "ym2612"
    },
    {
      "channel": 2,
      "note": 92,
      "start": 21.2506,
      "duration": 0.0882,
      "velocity": 91,
      "chip": "ym2612"
    },
    {
      "channel": 0,
      "note": 50,
      "start": 21.3696,
      "duration": 0.2475,
      "velocity": 111,
      "chip": "ym2612"
    },
    {
      "channel": 3,
      "note": 81,
      "start": 21.3711,
      "duration": 0.1183,
      "velocity": 97,
      "chip": "ym2612"
    },
    {
      "channel": 1,
      "note": 86,
      "start": 21.3728,
      "duration": 0.6226,
      "velocity": 91,
      "chip": "ym2612"
    },
    {
      "channel": 4,
      "note": 79,
      "start": 21.3745,
      "duration": 0.621,
      "velocity": 91,
      "chip": "ym2612"
    },
    {
      "channel": 5,
      "note": 38,
      "start": 21.3778,
      "duration": 0.1788,
      "velocity": 127,
      "chip": "ym2612"
    },
    {
      "channel": 3,
      "note": 79,
      "start": 21.4925,
      "duration": 0.1193,
      "velocity": 97,
      "chip": "ym2612"
    },
    {
      "channel": 0,
      "note": 50,
      "start": 21.6307,
      "duration": 0.2359,
      "velocity": 111,
      "chip": "ym2612"
    },
    {
      "channel": 3,
      "note": 79,
      "start": 21.6322,
      "duration": 0.1149,
      "velocity": 97,
      "chip": "ym2612"
    },
    {
      "channel": 2,
      "note": 93,
      "start": 21.6358,
      "duration": 0.1133,
      "velocity": 127,
      "chip": "ym2612"
    },
    {
      "channel": 3,
      "note": 79,
      "start": 21.7512,
      "duration": 0.095,
      "velocity": 97,
      "chip": "ym2612"
    },
    {
      "channel": 2,
      "note": 92,
      "start": 21.755,
      "duration": 0.087,
      "velocity": 91,
      "chip": "ym2612"
    },
    {
      "channel": 5,
      "note": 44,
      "start": 21.7576,
      "duration": 0.1113,
      "velocity": 127,
      "chip": "ym2612"
    },
    {
      "channel": 0,
      "note": 50,
      "start": 21.8706,
      "duration": 0.2439,
      "velocity": 111,
      "chip": "ym2612"
    },
    {
      "channel": 3,
      "note": 77,
      "start": 21.8721,
      "duration": 0.3001,
      "velocity": 97,
      "chip": "ym2612"
    },
    {
      "channel": 5,
      "note": 38,
      "start": 21.8763,
      "duration": 0.2403,
      "velocity": 127,
      "chip": "ym2612"
    },
    {
      "channel": 1,
      "note": 84,
      "start": 22.0081,
      "duration": 0.1172,
      "velocity": 91,
      "chip": "ym2612"
    },
    {
      "channel": 4,
      "note": 81,
      "start": 22.0097,
      "duration": 0.1166,
      "velocity": 91,
      "chip": "ym2612"
    },
    {
      "channel": 0,
      "note": 50,
      "start": 22.1303,
      "duration": 0.2561,
      "velocity": 111,
      "chip": "ym2612"
    },
    {
      "channel": 1,
      "note": 84,
      "start": 22.1325,
      "duration": 0.2517,
      "velocity": 91,
      "chip": "ym2612"
    },
    {
      "channel": 4,
      "note": 81,
      "start": 22.1343,
      "duration": 0.2501,
      "velocity": 91,
      "chip": "ym2612"
    },
    {
      "channel": 2,
      "note": 93,
      "start": 22.1371,
      "duration": 0.1153,
      "velocity": 127,
      "chip": "ym2612"
    },
    {
      "channel": 5,
      "note": 45,
      "start": 22.1388,
      "duration": 0.1127,
      "velocity": 127,
      "chip": "ym2612"
    },
    {
      "channel": 3,
      "note": 84,
      "start": 22.2547,
      "duration": 0.0947,
      "velocity": 97,
      "chip": "ym2612"
    },
    {
      "channel": 2,
      "note": 92,
      "start": 22.2584,
      "duration": 0.0871,
      "velocity": 91,
      "chip": "ym2612"
    },
    {
      "channel": 5,
      "note": 62,
      "start": 22.2613,
      "duration": 0.113,
      "velocity": 127,
      "chip": "ym2612"
    },
    {
      "channel": 0,
      "note": 50,
      "start": 22.3927,
      "duration": 0.3508,
      "velocity": 111,
      "chip": "ym2612"
    },
    {
      "channel": 3,
      "note": 86,
      "start": 22.3947,
      "duration": 1.388,
      "velocity": 97,
      "chip": "ym2612"
    },
    {
      "channel": 1,
      "note": 82,
      "start": 22.3964,
      "duration": 1.7604,
      "velocity": 91,
      "chip": "ym2612"
    },
    {
      "channel": 4,
      "note": 79,
      "start": 22.3981,
      "duration": 1.759,
      "velocity": 91,
      "chip": "ym2612"
    },
    {
      "channel": 5,
      "note": 38,
      "start": 22.4002,
      "duration": 0.2428,
      "velocity": 127,
      "chip": "ym2612"
    },
    {
      "channel": 2,
      "note": 93,
      "start": 22.6386,
      "duration": 0.1242,
      "velocity": 127,
      "chip": "ym2612"
    },
    {
      "channel": 0,
      "note": 53,
      "start": 22.7741,
      "duration": 0.1123,
      "velocity": 111,
      "chip": "ym2612"
    },
    {
      "channel": 2,
      "note": 92,
      "start": 22.7785,
      "duration": 0.0873,
      "velocity": 91,
      "chip": "ym2612"
    },
    {
      "channel": 5,
      "note": 38,
      "start": 22.7802,
      "duration": 0.1112,
      "velocity": 127,
      "chip": "ym2612"
    },
    {
      "channel": 0,
      "note": 53,
      "start": 22.8932,
      "duration": 0.3478,
      "velocity": 111,
      "chip": "ym2612"
    },
    {
      "channel": 5,
      "note": 38,
      "start": 22.897,
      "duration": 0.2436,
      "velocity": 127,
      "chip": "ym2612"
    },
    {
      "channel": 2,
      "note": 93,
      "start": 23.1538,
      "duration": 0.1151,
      "velocity": 127,
      "chip": "ym2612"
    },
    {
      "channel": 5,
      "note": 38,
      "start": 23.1564,
      "duration": 0.0867,
      "velocity": 127,
      "chip": "ym2612"
    },
    {
      "channel": 0,
      "note": 53,
      "start": 23.2705,
      "duration": 0.1134,
      "velocity": 111,
      "chip": "ym2612"
    },
    {
      "channel": 2,
      "note": 92,
      "start": 23.2748,
      "duration": 0.0883,
      "velocity": 91,
      "chip": "ym2612"
    },
    {
      "channel": 0,
      "note": 53,
      "start": 23.4083,
      "duration": 0.4939,
      "velocity": 111,
      "chip": "ym2612"
    },
    {
      "channel": 5,
      "note": 44,
      "start": 23.4129,
      "duration": 0.1122,
      "velocity": 127,
      "chip": "ym2612"
    },
    {
      "channel": 5,
      "note": 38,
      "start": 23.5305,
      "duration": 0.1214,
      "velocity": 127,
      "chip": "ym2612"
    },
    {
      "channel": 2,
      "note": 93,
      "start": 23.6509,
      "duration": 0.1239,
      "velocity": 127,
      "chip": "ym2612"
    },
    {
      "channel": 3,
      "note": 81,
      "start": 23.7867,
      "duration": 0.1167,
      "velocity": 97,
      "chip": "ym2612"
    },
    {
      "channel": 2,
      "note": 92,
      "start": 23.7906,
      "duration": 0.0874,
      "velocity": 91,
      "chip": "ym2612"
    },
    {
      "channel": 5,
      "note": 38,
      "start": 23.7931,
      "duration": 0.085,
      "velocity": 127,
      "chip": "ym2612"
    },
    {
      "channel": 0,
      "note": 53,
      "start": 23.9061,
      "duration": 0.5057,
      "velocity": 111,
      "chip": "ym2612"
    },
    {
      "channel": 3,
      "note": 81,
      "start": 23.9078,
      "duration": 0.5075,
      "velocity": 97,
      "chip": "ym2612"
    },
    {
      "channel": 5,
      "note": 44,
      "start": 23.9123,
      "duration": 0.1105,
      "velocity": 127,
      "chip": "ym2612"
    },
    {
      "channel": 5,
      "note": 62,
      "start": 24.0279,
      "duration": 0.119,
      "velocity": 127,
      "chip": "ym2612"
    },
    {
      "channel": 1,
      "note": 81,
      "start": 24.1658,
      "duration": 0.12,
      "velocity": 91,
      "chip": "ym2612"
    },
    {
      "channel": 4,
      "note": 77,
      "start": 24.1673,
      "duration": 0.1193,
      "velocity": 91,
      "chip": "ym2612"
    },
    {
      "channel": 2,
      "note": 93,
      "start": 24.17,
      "duration": 0.1188,
      "velocity": 127,
      "chip": "ym2612"
    },
    {
      "channel": 5,
      "note": 61,
      "start": 24.1726,
      "duration": 0.0889,
      "velocity": 127,
      "chip": "ym2612"
    },
    {
      "channel": 1,
      "note": 81,
      "start": 24.2915,
      "duration": 0.1216,
      "velocity": 91,
      "chip": "ym2612"
    },
    {
      "channel": 4,
      "note": 77,
      "start": 24.293,
      "duration": 0.121,
      "velocity": 91,
      "chip": "ym2612"
    },
    {
      "channel": 2,
      "note": 92,
      "start": 24.296,
      "duration": 0.0909,
      "velocity": 91,
      "chip": "ym2612"
    },
    {
      "channel": 5,
      "note": 44,
      "start": 24.2985,
      "duration": 0.1181,
      "velocity": 127,
      "chip": "ym2612"
    },
    {
      "channel": 0,
      "note": 41,
      "start": 24.4183,
      "duration": 0.3494,
      "velocity": 111,
      "chip": "ym2612"
    },
    {
      "channel": 3,
      "note": 81,
      "start": 24.42,
      "duration": 0.4743,
      "velocity": 97,
      "chip": "ym2612"
    },
    {
      "channel": 1,
      "note": 81,
      "start": 24.4217,
      "duration": 0.2441,
      "velocity": 91,
      "chip": "ym2612"
    },
    {
      "channel": 4,
      "note": 77,
      "start": 24.4234,
      "duration": 0.2425,
      "velocity": 91,
      "chip": "ym2612"
    },
    {
      "channel": 5,
      "note": 38,
      "start": 24.4257,
      "duration": 0.2408,
      "velocity": 127,
      "chip": "ym2612"
    },
    {
      "channel": 1,
      "note": 82,
      "start": 24.6795,
      "duration": 0.1165,
      "velocity": 91,
      "chip": "ym2612"
    },
    {
      "channel": 4,
      "note": 79,
      "start": 24.6811,
      "duration": 0.1159,
      "velocity": 91,
      "chip": "ym2612"
    },
    {
      "channel": 2,
      "note": 93,
      "start": 24.6837,
      "duration": 0.1154,
      "velocity": 127,
      "chip": "ym2612"
    },
    {
      "channel": 0,
      "note": 39,
      "start": 24.8007,
      "duration": 0.1101,
      "velocity": 111,
      "chip": "ym2612"
    },
    {
      "channel": 1,
      "note": 82,
      "start": 24.8028,
      "duration": 0.2461,
      "velocity": 91,
      "chip": "ym2612"
    },
    {
      "channel": 4,
      "note": 79,
      "start": 24.8046,
      "duration": 0.2444,
      "velocity": 91,
      "chip": "ym2612"
    },
    {
      "channel": 2,
      "note": 92,
      "start": 24.8074,
      "duration": 0.088,
      "velocity": 91,
      "chip": "ym2612"
    },
    {
      "channel": 5,
      "note": 38,
      "start": 24.8091,
      "duration": 0.1156,
      "velocity": 127,
      "chip": "ym2612"
    },
    {
      "channel": 0,
      "note": 39,
      "start": 24.9414,
      "duration": 0.2362,
      "velocity": 111,
      "chip": "ym2612"
    },
    {
      "channel": 3,
      "note": 82,
      "start": 24.9429,
      "duration": 0.4985,
      "velocity": 97,
      "chip": "ym2612"
    },
    {
      "channel": 5,
      "note": 38,
      "start": 24.9464,
      "duration": 0.2358,
      "velocity": 127,
      "chip": "ym2612"
    },
    {
      "channel": 1,
      "note": 86,
      "start": 25.0616,
      "duration": 0.1172,
      "velocity": 91,
      "chip": "ym2612"
    },
    {
      "channel": 4,
      "note": 82,
      "start": 25.0632,
      "duration": 0.1166,
      "velocity": 91,
      "chip": "ym2612"
    },
    {
      "channel": 0,
      "note": 39,
      "start": 25.1839,
      "duration": 0.2529,
      "velocity": 111,
      "chip": "ym2612"
    },
    {
      "channel": 1,
      "note": 86,
      "start": 25.1862,
      "duration": 1.0063,
      "velocity": 91,
      "chip": "ym2612"
    },
    {
      "channel": 4,
      "note": 82,
      "start": 25.188,
      "duration": 1.0046,
      "velocity": 91,
      "chip": "ym2612"
    },
    {
      "channel": 2,
      "note": 93,
      "start": 25.1908,
      "duration": 0.1164,
      "velocity": 127,
      "chip": "ym2612"
    },
    {
      "channel": 5,
      "note": 38,
      "start": 25.1925,
      "duration": 0.1148,
      "velocity": 127,
      "chip": "ym2612"
    },
    {
      "channel": 2,
      "note": 92,
      "start": 25.3262,
      "duration": 0.0899,
      "velocity": 91,
      "chip": "ym2612"
    },
    {
      "channel": 0,
      "note": 46,
      "start": 25.4445,
      "duration": 0.2438,
      "velocity": 111,
      "chip": "ym2612"
    },
    {
      "channel": 3,
      "note": 82,
      "start": 25.4462,
      "duration": 0.2423,
      "velocity": 97,
      "chip": "ym2612"
    },
    {
      "channel": 5,
      "note": 38,
      "start": 25.4502,
      "duration": 0.178,
      "velocity": 127,
      "chip": "ym2612"
    },
    {
      "channel": 0,
      "note": 39,
      "start": 25.7017,
      "duration": 0.2496,
      "velocity": 111,
      "chip": "ym2612"
    },
    {
      "channel": 3,
      "note": 84,
      "start": 25.7034,
      "duration": 0.2481,
      "velocity": 97,
      "chip": "ym2612"
    },
    {
      "channel": 2,
      "note": 93,
      "start": 25.7071,
      "duration": 0.112,
      "velocity": 127,
      "chip": "ym2612"
    },
    {
      "channel": 2,
      "note": 92,
      "start": 25.8238,
      "duration": 0.0896,
      "velocity": 91,
      "chip": "ym2612"
    },
    {
      "channel": 5,
      "note": 44,
      "start": 25.8263,
      "duration": 0.1161,
      "velocity": 127,
      "chip": "ym2612"
    },
    {
      "channel": 0,
      "note": 46,
      "start": 25.9583,
      "duration": 0.1192,
      "velocity": 111,
      "chip": "ym2612"
    },
    {
      "channel": 3,
      "note": 82,
      "start": 25.96,
      "duration": 0.2382,
      "velocity": 97,
      "chip": "ym2612"
    },
    {
      "channel": 5,
      "note": 38,
      "start": 25.9644,
      "duration": 0.2357,
      "velocity": 127,
      "chip": "ym2612"
    },
    {
      "channel": 0,
      "note": 51,
      "start": 26.2018,
      "duration": 0.2585,
      "velocity": 111,
      "chip": "ym2612"
    },
    {
      "channel": 3,
      "note": 81,
      "start": 26.2035,
      "duration": 0.2572,
      "velocity": 97,
      "chip": "ym2612"
    },
    {
      "channel": 1,
      "note": 84,
      "start": 26.2052,
      "duration": 0.1188,
      "velocity": 91,
      "chip": "ym2612"
    },
    {
      "channel": 4,
      "note": 81,
      "start": 26.2068,
      "duration": 0.1174,
      "velocity": 91,
      "chip": "ym2612"
    },
    {
      "channel": 2,
      "note": 93,
      "start": 26.2094,
      "duration": 0.1149,
      "velocity": 127,
      "chip": "ym2612"
    },
    {
      "channel": 5,
      "note": 47,
      "start": 26.2114,
      "duration": 0.1131,
      "velocity": 127,
      "chip": "ym2612"
    },
    {
      "channel": 1,
      "note": 84,
      "start": 26.3444,
      "duration": 0.1205,
      "velocity": 91,
      "chip": "ym2612"
    },
    {
      "channel": 4,
      "note": 81,
      "start": 26.346,
      "duration": 0.1199,
      "velocity": 91,
      "chip": "ym2612"
    },
    {
      "channel": 2,
      "note": 92,
      "start": 26.3486,
      "duration": 0.0908,
      "velocity": 91,
      "chip": "ym2612"
    },
    {
      "channel": 5,
      "note": 61,
      "start": 26.3513,
      "duration": 0.1171,
      "velocity": 127,
      "chip": "ym2612"
    },
    {
      "channel": 0,
      "note": 46,
      "start": 26.4701,
      "duration": 0.4973,
      "velocity": 111,
      "chip": "ym2612"
    },
    {
      "channel": 3,
      "note": 79,
      "start": 26.4717,
      "duration": 0.4968,
      "velocity": 97,
      "chip": "ym2612"
    },
    {
      "channel": 1,
      "note": 84,
      "start": 26.4734,
      "duration": 0.8713,
      "velocity": 91,
      "chip": "ym2612"
    },
    {
      "channel": 4,
      "note": 81,
      "start": 26.4752,
      "duration": 0.8705,
      "velocity": 91,
      "chip": "ym2612"
    },
    {
      "channel": 5,
      "note": 38,
      "start": 26.4778,
      "duration": 0.2422,
      "velocity": 127,
      "chip": "ym2612"
    },
    {
      "channel": 2,
      "note": 93,
      "start": 26.7331,
      "duration": 0.1158,
      "velocity": 127,
      "chip": "ym2612"
    },
    {
      "channel": 2,
      "note": 92,
      "start": 26.8535,
      "duration": 0.0893,
      "velocity": 91,
      "chip": "ym2612"
    },
    {
      "channel": 5,
      "note": 38,
      "start": 26.8553,
      "duration": 0.1145,
      "velocity": 127,
      "chip": "ym2612"
    },
    {
      "channel": 0,
      "note": 51,
      "start": 26.9714,
      "duration": 0.2437,
      "velocity": 111,
      "chip": "ym2612"
    },
    {
      "channel": 3,
      "note": 82,
      "start": 26.9731,
      "duration": 0.3683,
      "velocity": 97,
      "chip": "ym2612"
    },
    {
      "channel": 5,
      "note": 38,
      "start": 26.9763,
      "duration": 0.2409,
      "velocity": 127,
      "chip": "ym2612"
    },
    {
      "channel": 0,
      "note": 39,
      "start": 27.2286,
      "duration": 0.2495,
      "velocity": 111,
      "chip": "ym2612"
    },
    {
      "channel": 2,
      "note": 93,
      "start": 27.2327,
      "duration": 0.1152,
      "velocity": 127,
      "chip": "ym2612"
    },
    {
      "channel": 5,
      "note": 38,
      "start": 27.2344,
      "duration": 0.1224,
      "velocity": 127,
      "chip": "ym2612"
    },
    {
      "channel": 3,
      "note": 84,
      "start": 27.35,
      "duration": 0.0999,
      "velocity": 97,
      "chip": "ym2612"
    },
    {
      "channel": 1,
      "note": 89,
      "start": 27.3517,
      "duration": 0.1159,
      "velocity": 91,
      "chip": "ym2612"
    },
    {
      "channel": 4,
      "note": 84,
      "start": 27.3534,
      "duration": 0.1144,
      "velocity": 91,
      "chip": "ym2612"
    },
    {
      "channel": 2,
      "note": 92,
      "start": 27.356,
      "duration": 0.0841,
      "velocity": 91,
      "chip": "ym2612"
    },
    {
      "channel": 0,
      "note": 46,
      "start": 27.4875,
      "duration": 0.2404,
      "velocity": 111,
      "chip": "ym2612"
    },
    {
      "channel": 3,
      "note": 82,
      "start": 27.4892,
      "duration": 0.6415,
      "velocity": 97,
      "chip": "ym2612"
    },
    {
      "channel": 1,
      "note": 89,
      "start": 27.4907,
      "duration": 0.2384,
      "velocity": 91,
      "chip": "ym2612"
    },
    {
      "channel": 4,
      "note": 84,
      "start": 27.4925,
      "duration": 0.2375,
      "velocity": 91,
      "chip": "ym2612"
    },
    {
      "channel": 5,
      "note": 38,
      "start": 27.496,
      "duration": 0.179,
      "velocity": 127,
      "chip": "ym2612"
    },
    {
      "channel": 0,
      "note": 51,
      "start": 27.733,
      "duration": 0.2483,
      "velocity": 111,
      "chip": "ym2612"
    },
    {
      "channel": 1,
      "note": 93,
      "start": 27.7351,
      "duration": 0.1156,
      "velocity": 91,
      "chip": "ym2612"
    },
    {
      "channel": 4,
      "note": 89,
      "start": 27.7367,
      "duration": 0.1142,
      "velocity": 91,
      "chip": "ym2612"
    },
    {
      "channel": 2,
      "note": 93,
      "start": 27.7393,
      "duration": 0.1117,
      "velocity": 127,
      "chip": "ym2612"
    },
    {
      "channel": 1,
      "note": 93,
      "start": 27.8711,
      "duration": 0.2485,
      "velocity": 91,
      "chip": "ym2612"
    },
    {
      "channel": 4,
      "note": 89,
      "start": 27.8729,
      "duration": 0.2468,
      "velocity": 91,
      "chip": "ym2612"
    },
    {
      "channel": 2,
      "note": 92,
      "start": 27.8757,
      "duration": 0.0907,
      "velocity": 91,
      "chip": "ym2612"
    },
    {
      "channel": 5,
      "note": 44,
      "start": 27.8785,
      "duration": 0.1141,
      "velocity": 127,
      "chip": "ym2612"
    },
    {
      "channel": 0,
      "note": 46,
      "start": 27.9946,
      "duration": 0.2441,
      "velocity": 111,
      "chip": "ym2612"
    },
    {
      "channel": 5,
      "note": 38,
      "start": 27.9992,
      "duration": 0.2415,
      "velocity": 127,
      "chip": "ym2612"
    },
    {
      "channel": 3,
      "note": 82,
      "start": 28.1329,
      "duration": 0.1187,
      "velocity": 97,
      "chip": "ym2612"
    },
    {
      "channel": 1,
      "note": 89,
      "start": 28.1347,
      "duration": 0.1148,
      "velocity": 91,
      "chip": "ym2612"
    },
    {
      "channel": 4,
      "note": 86,
      "start": 28.1363,
      "duration": 0.1142,
      "velocity": 91,
      "chip": "ym2612"
    },
    {
      "channel": 0,
      "note": 39,
      "start": 28.2553,
      "duration": 0.1187,
      "velocity": 111,
      "chip": "ym2612"
    },
    {
      "channel": 3,
      "note": 82,
      "start": 28.2568,
      "duration": 0.2576,
      "velocity": 97,
      "chip": "ym2612"
    },
    {
      "channel": 1,
      "note": 89,
      "start": 28.2586,
      "duration": 0.2498,
      "velocity": 91,
      "chip": "ym2612"
    },
    {
      "channel": 4,
      "note": 86,
      "start": 28.2607,
      "duration": 0.2478,
      "velocity": 91,
      "chip": "ym2612"
    },
    {
      "channel": 2,
      "note": 93,
      "start": 28.2634,
      "duration": 0.113,
      "velocity": 127,
      "chip": "ym2612"
    },
    {
      "channel": 5,
      "note": 45,
      "start": 28.2651,
      "duration": 0.1105,
      "velocity": 127,
      "chip": "ym2612"
    },
    {
      "channel": 0,
      "note": 39,
      "start": 28.3784,
      "duration": 0.1176,
      "velocity": 111,
      "chip": "ym2612"
    },
    {
      "channel": 2,
      "note": 92,
      "start": 28.3826,
      "duration": 0.0867,
      "velocity": 91,
      "chip": "ym2612"
    },
    {
      "channel": 5,
      "note": 62,
      "start": 28.3852,
      "duration": 0.1129,
      "velocity": 127,
      "chip": "ym2612"
    },
    {
      "channel": 0,
      "note": 39,
      "start": 28.5173,
      "duration": 0.3503,
      "velocity": 111,
      "chip": "ym2612"
    },
    {
      "channel": 3,
      "note": 81,
      "start": 28.5188,
      "duration": 0.4754,
      "velocity": 97,
      "chip": "ym2612"
    },
    {
      "channel": 1,
      "note": 86,
      "start": 28.5205,
      "duration": 0.2366,
      "velocity": 91,
      "chip": "ym2612"
    },
    {
      "channel": 4,
      "note": 82,
      "start": 28.5222,
      "duration": 0.2359,
      "velocity": 91,
      "chip": "ym2612"
    },
    {
      "channel": 5,
      "note": 38,
      "start": 28.5244,
      "duration": 0.2463,
      "velocity": 127,
      "chip": "ym2612"
    },
    {
      "channel": 1,
      "note": 82,
      "start": 28.7622,
      "duration": 0.1178,
      "velocity": 91,
      "chip": "ym2612"
    },
    {
      "channel": 4,
      "note": 79,
      "start": 28.7638,
      "duration": 0.1163,
      "velocity": 91,
      "chip": "ym2612"
    },
    {
      "channel": 2,
      "note": 93,
      "start": 28.7664,
      "duration": 0.1139,
      "velocity": 127,
      "chip": "ym2612"
    },
    {
      "channel": 0,
      "note": 39,
      "start": 28.9006,
      "duration": 0.1102,
      "velocity": 111,
      "chip": "ym2612"
    },
    {
      "channel": 1,
      "note": 82,
      "start": 28.9027,
      "duration": 0.2376,
      "velocity": 91,
      "chip": "ym2612"
    },
    {
      "channel": 4,
      "note": 79,
      "start": 28.9045,
      "duration": 0.2368,
      "velocity": 91,
      "chip": "ym2612"
    },
    {
      "channel": 2,
      "note": 92,
      "start": 28.9073,
      "duration": 0.088,
      "velocity": 91,
      "chip": "ym2612"
    },
    {
      "channel": 5,
      "note": 38,
      "start": 28.909,
      "duration": 0.1135,
      "velocity": 127,
      "chip": "ym2612"
    },
    {
      "channel": 0,
      "note": 39,
      "start": 29.0241,
      "duration": 0.2437,
      "velocity": 111,
      "chip": "ym2612"
    },
    {
      "channel": 3,
      "note": 82,
      "start": 29.0257,
      "duration": 0.4988,
      "velocity": 97,
      "chip": "ym2612"
    },
    {
      "channel": 5,
      "note": 38,
      "start": 29.0292,
      "duration": 0.2409,
      "velocity": 127,
      "chip": "ym2612"
    },
    {
      "channel": 1,
      "note": 89,
      "start": 29.1444,
      "duration": 0.1188,
      "velocity": 91,
      "chip": "ym2612"
    },
    {
      "channel": 4,
      "note": 82,
      "start": 29.146,
      "duration": 0.1174,
      "velocity": 91,
      "chip": "ym2612"
    },
    {
      "channel": 0,
      "note": 39,
      "start": 29.2838,
      "duration": 0.2395,
      "velocity": 111,
      "chip": "ym2612"
    },
    {
      "channel": 1,
      "note": 89,
      "start": 29.2862,
      "duration": 0.8723,
      "velocity": 91,
      "chip": "ym2612"
    },
    {
      "channel": 4,
      "note": 82,
      "start": 29.2878,
      "duration": 0.8717,
      "velocity": 91,
      "chip": "ym2612"
    },
    {
      "channel": 2,
      "note": 93,
      "start": 29.2904,
      "duration": 0.1132,
      "velocity": 127,
      "chip": "ym2612"
    },
    {
      "channel": 5,
      "note": 38,
      "start": 29.2921,
      "duration": 0.1178,
      "velocity": 127,
      "chip": "ym2612"
    },
    {
      "channel": 2,
      "note": 92,
      "start": 29.409,
      "duration": 0.0898,
      "velocity": 91,
      "chip": "ym2612"
    },
    {
      "channel": 0,
      "note": 46,
      "start": 29.5276,
      "duration": 0.2435,
      "velocity": 111,
      "chip": "ym2612"
    },
    {
      "channel": 3,
      "note": 82,
      "start": 29.5292,
      "duration": 0.242,
      "velocity": 97,
      "chip": "ym2612"
    },
    {
      "channel": 5,
      "note": 38,
      "start": 29.5333,
      "duration": 0.1776,
      "velocity": 127,
      "chip": "ym2612"
    },
    {
      "channel": 0,
      "note": 39,
      "start": 29.7846,
      "duration": 0.2438,
      "velocity": 111,
      "chip": "ym2612"
    },
    {
      "channel": 3,
      "note": 84,
      "start": 29.7863,
      "duration": 0.2422,
      "velocity": 97,
      "chip": "ym2612"
    },
    {
      "channel": 2,
      "note": 93,
      "start": 29.79,
      "duration": 0.1118,
      "velocity": 127,
      "chip": "ym2612"
    },
    {
      "channel": 2,
      "note": 92,
      "start": 29.9065,
      "duration": 0.0897,
      "velocity": 91,
      "chip": "ym2612"
    },
    {
      "channel": 5,
      "note": 44,
      "start": 29.909,
      "duration": 0.1162,
      "velocity": 127,
      "chip": "ym2612"
    },
    {
      "channel": 0,
      "note": 46,
      "start": 30.0418,
      "duration": 0.119,
      "velocity": 111,
      "chip": "ym2612"
    },
    {
      "channel": 3,
      "note": 82,
      "start": 30.0434,
      "duration": 0.2382,
      "velocity": 97,
      "chip": "ym2612"
    },
    {
      "channel": 5,
      "note": 38,
      "start": 30.0479,
      "duration": 0.2357,
      "velocity": 127,
      "chip": "ym2612"
    },
    {
      "channel": 1,
      "note": 89,
      "start": 30.1622,
      "duration": 0.1174,
      "velocity": 91,
      "chip": "ym2612"
    },
    {
      "channel": 4,
      "note": 82,
      "start": 30.1638,
      "duration": 0.1167,
      "velocity": 91,
      "chip": "ym2612"
    },
    {
      "channel": 0,
      "note": 51,
      "start": 30.2853,
      "duration": 0.252,
      "velocity": 111,
      "chip": "ym2612"
    },
    {
      "channel": 3,
      "note": 81,
      "start": 30.2869,
      "duration": 0.2505,
      "velocity": 97,
      "chip": "ym2612"
    },
    {
      "channel": 1,
      "note": 89,
      "start": 30.2886,
      "duration": 0.1181,
      "velocity": 91,
      "chip": "ym2612"
    },
    {
      "channel": 4,
      "note": 82,
      "start": 30.2902,
      "duration": 0.1167,
      "velocity": 91,
      "chip": "ym2612"
    },
    {
      "channel": 2,
      "note": 93,
      "start": 30.293,
      "duration": 0.1141,
      "velocity": 127,
      "chip": "ym2612"
    },
    {
      "channel": 5,
      "note": 47,
      "start": 30.295,
      "duration": 0.1123,
      "velocity": 127,
      "chip": "ym2612"
    },
    {
      "channel": 1,
      "note": 89,
      "start": 30.427,
      "duration": 0.1215,
      "velocity": 91,
      "chip": "ym2612"
    },
    {
      "channel": 4,
      "note": 84,
      "start": 30.4288,
      "duration": 0.1205,
      "velocity": 91,
      "chip": "ym2612"
    },
    {
      "channel": 2,
      "note": 92,
      "start": 30.4315,
      "duration": 0.0907,
      "velocity": 91,
      "chip": "ym2612"
    },
    {
      "channel": 5,
      "note": 61,
      "start": 30.4342,
      "duration": 0.1178,
      "velocity": 127,
      "chip": "ym2612"
    },
    {
      "channel": 0,
      "note": 46,
      "start": 30.5536,
      "duration": 0.4983,
      "velocity": 111,
      "chip": "ym2612"
    },
    {
      "channel": 3,
      "note": 79,
      "start": 30.5553,
      "duration": 0.5132,
      "velocity": 97,
      "chip": "ym2612"
    },
    {
      "channel": 1,
      "note": 91,
      "start": 30.557,
      "duration": 0.2444,
      "velocity": 91,
      "chip": "ym2612"
    },
    {
      "channel": 4,
      "note": 86,
      "start": 30.5587,
      "duration": 0.2428,
      "velocity": 91,
      "chip": "ym2612"
    },
    {
      "channel": 5,
      "note": 38,
      "start": 30.5611,
      "duration": 0.241,
      "velocity": 127,
      "chip": "ym2612"
    },
    {
      "channel": 1,
      "note": 93,
      "start": 30.8157,
      "duration": 0.1149,
      "velocity": 91,
      "chip": "ym2612"
    },
    {
      "channel": 4,
      "note": 84,
      "start": 30.8173,
      "duration": 0.1143,
      "velocity": 91,
      "chip": "ym2612"
    },
    {
      "channel": 2,
      "note": 93,
      "start": 30.8198,
      "duration": 0.1138,
      "velocity": 127,
      "chip": "ym2612"
    },
    {
      "channel": 1,
      "note": 93,
      "start": 30.9363,
      "duration": 0.2424,
      "velocity": 91,
      "chip": "ym2612"
    },
    {
      "channel": 4,
      "note": 84,
      "start": 30.938,
      "duration": 0.2409,
      "velocity": 91,
      "chip": "ym2612"
    },
    {
      "channel": 2,
      "note": 92,
      "start": 30.9405,
      "duration": 0.0851,
      "velocity": 91,
      "chip": "ym2612"
    },
    {
      "channel": 5,
      "note": 38,
      "start": 30.9422,
      "duration": 0.1119,
      "velocity": 127,
      "chip": "ym2612"
    },
    {
      "channel": 0,
      "note": 39,
      "start": 31.0712,
      "duration": 0.2359,
      "velocity": 111,
      "chip": "ym2612"
    },
    {
      "channel": 3,
      "note": 82,
      "start": 31.0729,
      "duration": 0.3741,
      "velocity": 97,
      "chip": "ym2612"
    },
    {
      "channel": 5,
      "note": 38,
      "start": 31.0761,
      "duration": 0.2357,
      "velocity": 127,
      "chip": "ym2612"
    },
    {
      "channel": 1,
      "note": 93,
      "start": 31.1912,
      "duration": 0.1172,
      "velocity": 91,
      "chip": "ym2612"
    },
    {
      "channel": 4,
      "note": 84,
      "start": 31.1928,
      "duration": 0.1166,
      "velocity": 91,
      "chip": "ym2612"
    },
    {
      "channel": 0,
      "note": 51,
      "start": 31.3135,
      "duration": 0.2474,
      "velocity": 111,
      "chip": "ym2612"
    },
    {
      "channel": 1,
      "note": 93,
      "start": 31.3156,
      "duration": 0.6298,
      "velocity": 91,
      "chip": "ym2612"
    },
    {
      "channel": 4,
      "note": 84,
      "start": 31.3174,
      "duration": 0.6281,
      "velocity": 91,
      "chip": "ym2612"
    },
    {
      "channel": 2,
      "note": 93,
      "start": 31.3202,
      "duration": 0.1168,
      "velocity": 127,
      "chip": "ym2612"
    },
    {
      "channel": 5,
      "note": 38,
      "start": 31.3219,
      "duration": 0.1153,
      "velocity": 127,
      "chip": "ym2612"
    },
    {
      "channel": 3,
      "note": 86,
      "start": 31.4535,
      "duration": 0.1074,
      "velocity": 97,
      "chip": "ym2612"
    },
    {
      "channel": 2,
      "note": 92,
      "start": 31.4572,
      "duration": 0.0887,
      "velocity": 91,
      "chip": "ym2612"
    },
    {
      "channel": 0,
      "note": 46,
      "start": 31.5742,
      "duration": 0.2439,
      "velocity": 111,
      "chip": "ym2612"
    },
    {
      "channel": 3,
      "note": 84,
      "start": 31.5759,
      "duration": 0.4716,
      "velocity": 97,
      "chip": "ym2612"
    },
    {
      "channel": 5,
      "note": 38,
      "start": 31.5801,
      "duration": 0.1777,
      "velocity": 127,
      "chip": "ym2612"
    },
    {
      "channel": 0,
      "note": 51,
      "start": 31.8308,
      "duration": 0.2427,
      "velocity": 111,
      "chip": "ym2612"
    },
    {
      "channel": 2,
      "note": 93,
      "start": 31.835,
      "duration": 0.1157,
      "velocity": 127,
      "chip": "ym2612"
    },
    {
      "channel": 1,
      "note": 96,
      "start": 31.9534,
      "duration": 0.1213,
      "velocity": 91,
      "chip": "ym2612"
    },
    {
      "channel": 4,
      "note": 89,
      "start": 31.955,
      "duration": 0.1206,
      "velocity": 91,
      "chip": "ym2612"
    },
    {
      "channel": 2,
      "note": 92,
      "start": 31.9576,
      "duration": 0.091,
      "velocity": 91,
      "chip": "ym2612"
    },
    {
      "channel": 5,
      "note": 44,
      "start": 31.9602,
      "duration": 0.118,
      "velocity": 127,
      "chip": "ym2612"
    },
    {
      "channel": 0,
      "note": 46,
      "start": 32.0798,
      "duration": 0.3788,
      "velocity": 111,
      "chip": "ym2612"
    },
    {
      "channel": 3,
      "note": 84,
      "start": 32.0815,
      "duration": 0.5276,
      "velocity": 97,
      "chip": "ym2612"
    },
    {
      "channel": 1,
      "note": 96,
      "start": 32.0832,
      "duration": 0.2452,
      "velocity": 91,
      "chip": "ym2612"
    },
    {
      "channel": 4,
      "note": 89,
      "start": 32.085,
      "duration": 0.2435,
      "velocity": 91,
      "chip": "ym2612"
    },
    {
      "channel": 5,
      "note": 38,
      "start": 32.0883,
      "duration": 0.2408,
      "velocity": 127,
      "chip": "ym2612"
    },
    {
      "channel": 1,
      "note": 94,
      "start": 32.3427,
      "duration": 0.121,
      "velocity": 91,
      "chip": "ym2612"
    },
    {
      "channel": 4,
      "note": 87,
      "start": 32.3445,
      "duration": 0.1201,
      "velocity": 91,
      "chip": "ym2612"
    },
    {
      "channel": 2,
      "note": 93,
      "start": 32.3471,
      "duration": 0.12,
      "velocity": 127,
      "chip": "ym2612"
    },
    {
      "channel": 5,
      "note": 45,
      "start": 32.3497,
      "duration": 0.0885,
      "velocity": 127,
      "chip": "ym2612"
    },
    {
      "channel": 0,
      "note": 51,
      "start": 32.4687,
      "duration": 0.1214,
      "velocity": 111,
      "chip": "ym2612"
    },
    {
      "channel": 1,
      "note": 94,
      "start": 32.4712,
      "duration": 0.1196,
      "velocity": 91,
      "chip": "ym2612"
    },
    {
      "channel": 4,
      "note": 87,
      "start": 32.4727,
      "duration": 0.1182,
      "velocity": 91,
      "chip": "ym2612"
    },
    {
      "channel": 2,
      "note": 92,
      "start": 32.4756,
      "duration": 0.0882,
      "velocity": 91,
      "chip": "ym2612"
    },
    {
      "channel": 5,
      "note": 44,
      "start": 32.4784,
      "duration": 0.1132,
      "velocity": 127,
      "chip": "ym2612"
    },
    {
      "channel": 0,
      "note": 48,
      "start": 32.6122,
      "duration": 0.2388,
      "velocity": 111,
      "chip": "ym2612"
    },
    {
      "channel": 3,
      "note": 84,
      "start": 32.6139,
      "duration": 1.1382,
      "velocity": 97,
      "chip": "ym2612"
    },
    {
      "channel": 1,
      "note": 94,
      "start": 32.6156,
      "duration": 0.2366,
      "velocity": 91,
      "chip": "ym2612"
    },
    {
      "channel": 4,
      "note": 89,
      "start": 32.6173,
      "duration": 0.2359,
      "velocity": 91,
      "chip": "ym2612"
    },
    {
      "channel": 5,
      "note": 38,
      "start": 32.6195,
      "duration": 0.2475,
      "velocity": 127,
      "chip": "ym2612"
    },
    {
      "channel": 0,
      "note": 38,
      "start": 32.8561,
      "duration": 0.2429,
      "velocity": 111,
      "chip": "ym2612"
    },
    {
      "channel": 1,
      "note": 93,
      "start": 32.8583,
      "duration": 0.1159,
      "velocity": 91,
      "chip": "ym2612"
    },
    {
      "channel": 4,
      "note": 90,
      "start": 32.8599,
      "duration": 0.1144,
      "velocity": 91,
      "chip": "ym2612"
    },
    {
      "channel": 2,
      "note": 93,
      "start": 32.8628,
      "duration": 0.1118,
      "velocity": 127,
      "chip": "ym2612"
    },
    {
      "channel": 1,
      "note": 93,
      "start": 32.9949,
      "duration": 0.2342,
      "velocity": 91,
      "chip": "ym2612"
    },
    {
      "channel": 4,
      "note": 90,
      "start": 32.9965,
      "duration": 0.2335,
      "velocity": 91,
      "chip": "ym2612"
    },
    {
      "channel": 2,
      "note": 92,
      "start": 32.9991,
      "duration": 0.085,
      "velocity": 91,
      "chip": "ym2612"
    },
    {
      "channel": 5,
      "note": 38,
      "start": 33.0008,
      "duration": 0.1091,
      "velocity": 127,
      "chip": "ym2612"
    },
    {
      "channel": 0,
      "note": 42,
      "start": 33.1119,
      "duration": 0.2445,
      "velocity": 111,
      "chip": "ym2612"
    },
    {
      "channel": 5,
      "note": 38,
      "start": 33.1156,
      "duration": 0.243,
      "velocity": 127,
      "chip": "ym2612"
    },
    {
      "channel": 1,
      "note": 93,
      "start": 33.2331,
      "duration": 0.1188,
      "velocity": 91,
      "chip": "ym2612"
    },
    {
      "channel": 4,
      "note": 90,
      "start": 33.2346,
      "duration": 0.1174,
      "velocity": 91,
      "chip": "ym2612"
    },
    {
      "channel": 0,
      "note": 43,
      "start": 33.3719,
      "duration": 0.1197,
      "velocity": 111,
      "chip": "ym2612"
    },
    {
      "channel": 1,
      "note": 93,
      "start": 33.3742,
      "duration": 0.2464,
      "velocity": 91,
      "chip": "ym2612"
    },
    {
      "channel": 4,
      "note": 90,
      "start": 33.376,
      "duration": 0.2447,
      "velocity": 91,
      "chip": "ym2612"
    },
    {
      "channel": 2,
      "note": 93,
      "start": 33.379,
      "duration": 0.1138,
      "velocity": 127,
      "chip": "ym2612"
    },
    {
      "channel": 5,
      "note": 38,
      "start": 33.3817,
      "duration": 0.0858,
      "velocity": 127,
      "chip": "ym2612"
    },
    {
      "channel": 0,
      "note": 45,
      "start": 33.4948,
      "duration": 0.2447,
      "velocity": 111,
      "chip": "ym2612"
    },
    {
      "channel": 2,
      "note": 92,
      "start": 33.4991,
      "duration": 0.0879,
      "velocity": 91,
      "chip": "ym2612"
    },
    {
      "channel": 1,
      "note": 90,
      "start": 33.6345,
      "duration": 0.1156,
      "velocity": 91,
      "chip": "ym2612"
    },
    {
      "channel": 4,
      "note": 86,
      "start": 33.6361,
      "duration": 0.115,
      "velocity": 91,
      "chip": "ym2612"
    },
    {
      "channel": 5,
      "note": 44,
      "start": 33.639,
      "duration": 0.1142,
      "velocity": 127,
      "chip": "ym2612"
    },
    {
      "channel": 0,
      "note": 38,
      "start": 33.7549,
      "duration": 0.2534,
      "velocity": 111,
      "chip": "ym2612"
    },
    {
      "channel": 3,
      "note": 81,
      "start": 33.7565,
      "duration": 0.1184,
      "velocity": 97,
      "chip": "ym2612"
    },
    {
      "channel": 1,
      "note": 90,
      "start": 33.7583,
      "duration": 0.2506,
      "velocity": 91,
      "chip": "ym2612"
    },
    {
      "channel": 4,
      "note": 86,
      "start": 33.7599,
      "duration": 0.2491,
      "velocity": 91,
      "chip": "ym2612"
    },
    {
      "channel": 5,
      "note": 38,
      "start": 33.7623,
      "duration": 0.124,
      "velocity": 127,
      "chip": "ym2612"
    },
    {
      "channel": 3,
      "note": 81,
      "start": 33.8784,
      "duration": 0.7775,
      "velocity": 97,
      "chip": "ym2612"
    },
    {
      "channel": 2,
      "note": 93,
      "start": 33.8822,
      "duration": 0.1166,
      "velocity": 127,
      "chip": "ym2612"
    },
    {
      "channel": 0,
      "note": 42,
      "start": 34.017,
      "duration": 0.1207,
      "velocity": 111,
      "chip": "ym2612"
    },
    {
      "channel": 1,
      "note": 90,
      "start": 34.0193,
      "duration": 0.1197,
      "velocity": 91,
      "chip": "ym2612"
    },
    {
      "channel": 4,
      "note": 86,
      "start": 34.0208,
      "duration": 0.1191,
      "velocity": 91,
      "chip": "ym2612"
    },
    {
      "channel": 2,
      "note": 92,
      "start": 34.0234,
      "duration": 0.0898,
      "velocity": 91,
      "chip": "ym2612"
    },
    {
      "channel": 5,
      "note": 38,
      "start": 34.026,
      "duration": 0.0873,
      "velocity": 127,
      "chip": "ym2612"
    },
    {
      "channel": 0,
      "note": 43,
      "start": 34.1432,
      "duration": 0.2481,
      "velocity": 111,
      "chip": "ym2612"
    },
    {
      "channel": 1,
      "note": 90,
      "start": 34.1458,
      "duration": 0.1186,
      "velocity": 91,
      "chip": "ym2612"
    },
    {
      "channel": 4,
      "note": 86,
      "start": 34.1474,
      "duration": 0.1179,
      "velocity": 91,
      "chip": "ym2612"
    },
    {
      "channel": 5,
      "note": 44,
      "start": 34.1505,
      "duration": 0.116,
      "velocity": 127,
      "chip": "ym2612"
    },
    {
      "channel": 1,
      "note": 90,
      "start": 34.2693,
      "duration": 0.1174,
      "velocity": 91,
      "chip": "ym2612"
    },
    {
      "channel": 4,
      "note": 86,
      "start": 34.2708,
      "duration": 0.1159,
      "velocity": 91,
      "chip": "ym2612"
    },
    {
      "channel": 5,
      "note": 62,
      "start": 34.2729,
      "duration": 0.1145,
      "velocity": 127,
      "chip": "ym2612"
    },
    {
      "channel": 0,
      "note": 45,
      "start": 34.4072,
      "duration": 0.2451,
      "velocity": 111,
      "chip": "ym2612"
    },
    {
      "channel": 1,
      "note": 90,
      "start": 34.4096,
      "duration": 0.1172,
      "velocity": 91,
      "chip": "ym2612"
    },
    {
      "channel": 4,
      "note": 86,
      "start": 34.4116,
      "duration": 0.1163,
      "velocity": 91,
      "chip": "ym2612"
    },
    {
      "channel": 2,
      "note": 93,
      "start": 34.4144,
      "duration": 0.1156,
      "velocity": 127,
      "chip": "ym2612"
    },
    {
      "channel": 5,
      "note": 61,
      "start": 34.4171,
      "duration": 0.0856,
      "velocity": 127,
      "chip": "ym2612"
    },
    {
      "channel": 1,
      "note": 86,
      "start": 34.5329,
      "duration": 0.1209,
      "velocity": 91,
      "chip": "ym2612"
    },
    {
      "channel": 4,
      "note": 81,
      "start": 34.5344,
      "duration": 0.1203,
      "velocity": 91,
      "chip": "ym2612"
    },
    {
      "channel": 2,
      "note": 92,
      "start": 34.5371,
      "duration": 0.091,
      "velocity": 91,
      "chip": "ym2612"
    },
    {
      "channel": 5,
      "note": 44,
      "start": 34.5396,
      "duration": 0.1174,
      "velocity": 127,
      "chip": "ym2612"
    },
    {
      "channel": 0,
      "note": 38,
      "start": 34.6587,
      "duration": 0.2473,
      "velocity": 111,
      "chip": "ym2612"
    },
    {
      "channel": 3,
      "note": 67,
      "start": 34.6602,
      "duration": 1.4025,
      "velocity": 97,
      "chip": "ym2612"
    },
    {
      "channel": 1,
      "note": 86,
      "start": 34.6622,
      "duration": 0.2445,
      "velocity": 91,
      "chip": "ym2612"
    },
    {
      "channel": 4,
      "note": 81,
      "start": 34.664,
      "duration": 0.2428,
      "velocity": 91,
      "chip": "ym2612"
    },
    {
      "channel": 5,
      "note": 38,
      "start": 34.6663,
      "duration": 0.2412,
      "velocity": 127,
      "chip": "ym2612"
    },
    {
      "channel": 0,
      "note": 38,
      "start": 34.9208,
      "duration": 0.2482,
      "velocity": 111,
      "chip": "ym2612"
    },
    {
      "channel": 1,
      "note": 93,
      "start": 34.9232,
      "duration": 0.1185,
      "velocity": 91,
      "chip": "ym2612"
    },
    {
      "channel": 4,
      "note": 90,
      "start": 34.9248,
      "duration": 0.1179,
      "velocity": 91,
      "chip": "ym2612"
    },
    {
      "channel": 2,
      "note": 93,
      "start": 34.9277,
      "duration": 0.1172,
      "velocity": 127,
      "chip": "ym2612"
    },
    {
      "channel": 1,
      "note": 93,
      "start": 35.0477,
      "duration": 0.2424,
      "velocity": 91,
      "chip": "ym2612"
    },
    {
      "channel": 4,
      "note": 90,
      "start": 35.0493,
      "duration": 0.2409,
      "velocity": 91,
      "chip": "ym2612"
    },
    {
      "channel": 2,
      "note": 92,
      "start": 35.0519,
      "duration": 0.0851,
      "velocity": 91,
      "chip": "ym2612"
    },
    {
      "channel": 5,
      "note": 38,
      "start": 35.0536,
      "duration": 0.1122,
      "velocity": 127,
      "chip": "ym2612"
    },
    {
      "channel": 0,
      "note": 42,
      "start": 35.1818,
      "duration": 0.2368,
      "velocity": 111,
      "chip": "ym2612"
    },
    {
      "channel": 5,
      "note": 38,
      "start": 35.1855,
      "duration": 0.2375,
      "velocity": 127,
      "chip": "ym2612"
    },
    {
      "channel": 1,
      "note": 93,
      "start": 35.3028,
      "duration": 0.1172,
      "velocity": 91,
      "chip": "ym2612"
    },
    {
      "channel": 4,
      "note": 90,
      "start": 35.3044,
      "duration": 0.1166,
      "velocity": 91,
      "chip": "ym2612"
    },
    {
      "channel": 0,
      "note": 43,
      "start": 35.4246,
      "duration": 0.1218,
      "velocity": 111,
      "chip": "ym2612"
    },
    {
      "channel": 1,
      "note": 93,
      "start": 35.4273,
      "duration": 0.2461,
      "velocity": 91,
      "chip": "ym2612"
    },
    {
      "channel": 4,
      "note": 90,
      "start": 35.429,
      "duration": 0.2445,
      "velocity": 91,
      "chip": "ym2612"
    },
    {
      "channel": 2,
      "note": 93,
      "start": 35.4318,
      "duration": 0.1164,
      "velocity": 127,
      "chip": "ym2612"
    },
    {
      "channel": 5,
      "note": 38,
      "start": 35.4344,
      "duration": 0.0858,
      "velocity": 127,
      "chip": "ym2612"
    },
    {
      "channel": 0,
      "note": 45,
      "start": 35.5649,
      "duration": 0.2367,
      "velocity": 111,
      "chip": "ym2612"
    },
    {
      "channel": 2,
      "note": 92,
      "start": 35.5691,
      "duration": 0.0881,
      "velocity": 91,
      "chip": "ym2612"
    },
    {
      "channel": 1,
      "note": 96,
      "start": 35.6866,
      "duration": 0.1163,
      "velocity": 91,
      "chip": "ym2612"
    },
    {
      "channel": 4,
      "note": 93,
      "start": 35.6882,
      "duration": 0.1156,
      "velocity": 91,
      "chip": "ym2612"
    },
    {
      "channel": 5,
      "note": 44,
      "start": 35.6911,
      "duration": 0.1139,
      "velocity": 127,
      "chip": "ym2612"
    },
    {
      "channel": 0,
      "note": 38,
      "start": 35.8067,
      "duration": 0.2429,
      "velocity": 111,
      "chip": "ym2612"
    },
    {
      "channel": 1,
      "note": 96,
      "start": 35.8089,
      "duration": 0.2413,
      "velocity": 91,
      "chip": "ym2612"
    },
    {
      "channel": 4,
      "note": 93,
      "start": 35.8108,
      "duration": 0.2396,
      "velocity": 91,
      "chip": "ym2612"
    },
    {
      "channel": 5,
      "note": 38,
      "start": 35.8128,
      "duration": 0.1137,
      "velocity": 127,
      "chip": "ym2612"
    },
    {
      "channel": 2,
      "note": 93,
      "start": 35.9452,
      "duration": 0.1195,
      "velocity": 127,
      "chip": "ym2612"
    },
    {
      "channel": 0,
      "note": 43,
      "start": 36.0664,
      "duration": 0.1204,
      "velocity": 111,
      "chip": "ym2612"
    },
    {
      "channel": 3,
      "note": 66,
      "start": 36.068,
      "duration": 0.119,
      "velocity": 97,
      "chip": "ym2612"
    },
    {
      "channel": 1,
      "note": 96,
      "start": 36.0698,
      "duration": 0.1173,
      "velocity": 91,
      "chip": "ym2612"
    },
    {
      "channel": 4,
      "note": 93,
      "start": 36.0714,
      "duration": 0.1159,
      "velocity": 91,
      "chip": "ym2612"
    },
    {
      "channel": 2,
      "note": 92,
      "start": 36.074,
      "duration": 0.0862,
      "velocity": 91,
      "chip": "ym2612"
    },
    {
      "channel": 5,
      "note": 38,
      "start": 36.0766,
      "duration": 0.084,
      "velocity": 127,
      "chip": "ym2612"
    },
    {
      "channel": 0,
      "note": 45,
      "start": 36.208,
      "duration": 0.24,
      "velocity": 111,
      "chip": "ym2612"
    },
    {
      "channel": 3,
      "note": 66,
      "start": 36.2097,
      "duration": 0.4809,
      "velocity": 97,
      "chip": "ym2612"
    },
    {
      "channel": 1,
      "note": 96,
      "start": 36.2118,
      "duration": 0.1166,
      "velocity": 91,
      "chip": "ym2612"
    },
    {
      "channel": 4,
      "note": 93,
      "start": 36.2134,
      "duration": 0.116,
      "velocity": 91,
      "chip": "ym2612"
    },
    {
      "channel": 5,
      "note": 44,
      "start": 36.2164,
      "duration": 0.1141,
      "velocity": 127,
      "chip": "ym2612"
    },
    {
      "channel": 1,
      "note": 96,
      "start": 36.3332,
      "duration": 0.116,
      "velocity": 91,
      "chip": "ym2612"
    },
    {
      "channel": 4,
      "note": 93,
      "start": 36.3348,
      "duration": 0.1153,
      "velocity": 91,
      "chip": "ym2612"
    },
    {
      "channel": 5,
      "note": 62,
      "start": 36.3369,
      "duration": 0.1144,
      "velocity": 127,
      "chip": "ym2612"
    },
    {
      "channel": 0,
      "note": 48,
      "start": 36.4539,
      "duration": 0.2534,
      "velocity": 111,
      "chip": "ym2612"
    },
    {
      "channel": 1,
      "note": 96,
      "start": 36.456,
      "duration": 0.1207,
      "velocity": 91,
      "chip": "ym2612"
    },
    {
      "channel": 4,
      "note": 93,
      "start": 36.4578,
      "duration": 0.119,
      "velocity": 91,
      "chip": "ym2612"
    },
    {
      "channel": 2,
      "note": 93,
      "start": 36.4609,
      "duration": 0.1164,
      "velocity": 127,
      "chip": "ym2612"
    },
    {
      "channel": 5,
      "note": 62,
      "start": 36.4635,
      "duration": 0.086,
      "velocity": 127,
      "chip": "ym2612"
    },
    {
      "channel": 1,
      "note": 98,
      "start": 36.5972,
      "duration": 0.1209,
      "velocity": 91,
      "chip": "ym2612"
    },
    {
      "channel": 4,
      "note": 90,
      "start": 36.5988,
      "duration": 0.1203,
      "velocity": 91,
      "chip": "ym2612"
    },
    {
      "channel": 2,
      "note": 92,
      "start": 36.6014,
      "duration": 0.0903,
      "velocity": 91,
      "chip": "ym2612"
    },
    {
      "channel": 5,
      "note": 44,
      "start": 36.6039,
      "duration": 0.1175,
      "velocity": 127,
      "chip": "ym2612"
    },
    {
      "channel": 0,
      "note": 45,
      "start": 36.7231,
      "duration": 0.2471,
      "velocity": 111,
      "chip": "ym2612"
    },
    {
      "channel": 3,
      "note": 63,
      "start": 36.7247,
      "duration": 1.402,
      "velocity": 97,
      "chip": "ym2612"
    },
    {
      "channel": 1,
      "note": 98,
      "start": 36.7264,
      "duration": 0.2445,
      "velocity": 91,
      "chip": "ym2612"
    },
    {
      "channel": 4,
      "note": 90,
      "start": 36.7285,
      "duration": 0.2425,
      "velocity": 91,
      "chip": "ym2612"
    },
    {
      "channel": 5,
      "note": 38,
      "start": 36.7306,
      "duration": 0.241,
      "velocity": 127,
      "chip": "ym2612"
    },
    {
      "channel": 0,
      "note": 38,
      "start": 36.9854,
      "duration": 0.2403,
      "velocity": 111,
      "chip": "ym2612"
    },
    {
      "channel": 1,
      "note": 93,
      "start": 36.9877,
      "duration": 0.1183,
      "velocity": 91,
      "chip": "ym2612"
    },
    {
      "channel": 4,
      "note": 90,
      "start": 36.9893,
      "duration": 0.1176,
      "velocity": 91,
      "chip": "ym2612"
    },
    {
      "channel": 2,
      "note": 93,
      "start": 36.9919,
      "duration": 0.117,
      "velocity": 127,
      "chip": "ym2612"
    },
    {
      "channel": 1,
      "note": 93,
      "start": 37.1119,
      "duration": 0.2424,
      "velocity": 91,
      "chip": "ym2612"
    },
    {
      "channel": 4,
      "note": 90,
      "start": 37.1135,
      "duration": 0.2409,
      "velocity": 91,
      "chip": "ym2612"
    },
    {
      "channel": 2,
      "note": 92,
      "start": 37.1161,
      "duration": 0.0851,
      "velocity": 91,
      "chip": "ym2612"
    },
    {
      "channel": 5,
      "note": 38,
      "start": 37.1178,
      "duration": 0.1099,
      "velocity": 127,
      "chip": "ym2612"
    },
    {
      "channel": 0,
      "note": 42,
      "start": 37.2294,
      "duration": 0.244,
      "velocity": 111,
      "chip": "ym2612"
    },
    {
      "channel": 5,
      "note": 38,
      "start": 37.2333,
      "duration": 0.2424,
      "velocity": 127,
      "chip": "ym2612"
    },
    {
      "channel": 1,
      "note": 93,
      "start": 37.3673,
      "duration": 0.1169,
      "velocity": 91,
      "chip": "ym2612"
    },
    {
      "channel": 4,
      "note": 90,
      "start": 37.3689,
      "duration": 0.1163,
      "velocity": 91,
      "chip": "ym2612"
    },
    {
      "channel": 0,
      "note": 43,
      "start": 37.4889,
      "duration": 0.1197,
      "velocity": 111,
      "chip": "ym2612"
    },
    {
      "channel": 1,
      "note": 93,
      "start": 37.4913,
      "duration": 0.2464,
      "velocity": 91,
      "chip": "ym2612"
    },
    {
      "channel": 4,
      "note": 90,
      "start": 37.493,
      "duration": 0.2447,
      "velocity": 91,
      "chip": "ym2612"
    },
    {
      "channel": 2,
      "note": 93,
      "start": 37.4961,
      "duration": 0.1138,
      "velocity": 127,
      "chip": "ym2612"
    },
    {
      "channel": 5,
      "note": 38,
      "start": 37.4987,
      "duration": 0.0858,
      "velocity": 127,
      "chip": "ym2612"
    },
    {
      "channel": 0,
      "note": 45,
      "start": 37.6118,
      "duration": 0.2447,
      "velocity": 111,
      "chip": "ym2612"
    },
    {
      "channel": 2,
      "note": 92,
      "start": 37.6162,
      "duration": 0.0879,
      "velocity": 91,
      "chip": "ym2612"
    },
    {
      "channel": 1,
      "note": 90,
      "start": 37.7511,
      "duration": 0.116,
      "velocity": 91,
      "chip": "ym2612"
    },
    {
      "channel": 4,
      "note": 86,
      "start": 37.7527,
      "duration": 0.1154,
      "velocity": 91,
      "chip": "ym2612"
    },
    {
      "channel": 5,
      "note": 44,
      "start": 37.7557,
      "duration": 0.1136,
      "velocity": 127,
      "chip": "ym2612"
    },
    {
      "channel": 0,
      "note": 38,
      "start": 37.871,
      "duration": 0.2429,
      "velocity": 111,
      "chip": "ym2612"
    },
    {
      "channel": 1,
      "note": 90,
      "start": 37.8731,
      "duration": 0.2413,
      "velocity": 91,
      "chip": "ym2612"
    },
    {
      "channel": 4,
      "note": 86,
      "start": 37.8747,
      "duration": 0.24,
      "velocity": 91,
      "chip": "ym2612"
    },
    {
      "channel": 5,
      "note": 38,
      "start": 37.8768,
      "duration": 0.1161,
      "velocity": 127,
      "chip": "ym2612"
    },
    {
      "channel": 2,
      "note": 93,
      "start": 37.9921,
      "duration": 0.1181,
      "velocity": 127,
      "chip": "ym2612"
    },
    {
      "channel": 0,
      "note": 42,
      "start": 38.1306,
      "duration": 0.1185,
      "velocity": 111,
      "chip": "ym2612"
    },
    {
      "channel": 3,
      "note": 62,
      "start": 38.1323,
      "duration": 0.1202,
      "velocity": 97,
      "chip": "ym2612"
    },
    {
      "channel": 1,
      "note": 90,
      "start": 38.1341,
      "duration": 0.1162,
      "velocity": 91,
      "chip": "ym2612"
    },
    {
      "channel": 4,
      "note": 86,
      "start": 38.1357,
      "duration": 0.1156,
      "velocity": 91,
      "chip": "ym2612"
    },
    {
      "channel": 2,
      "note": 92,
      "start": 38.1383,
      "duration": 0.0862,
      "velocity": 91,
      "chip": "ym2612"
    },
    {
      "channel": 5,
      "note": 38,
      "start": 38.1409,
      "duration": 0.0838,
      "velocity": 127,
      "chip": "ym2612"
    },
    {
      "channel": 0,
      "note": 43,
      "start": 38.2551,
      "duration": 0.2476,
      "velocity": 111,
      "chip": "ym2612"
    },
    {
      "channel": 3,
      "note": 62,
      "start": 38.2568,
      "duration": 0.511,
      "velocity": 97,
      "chip": "ym2612"
    },
    {
      "channel": 1,
      "note": 90,
      "start": 38.2586,
      "duration": 0.1167,
      "velocity": 91,
      "chip": "ym2612"
    },
    {
      "channel": 4,
      "note": 86,
      "start": 38.2602,
      "duration": 0.116,
      "velocity": 91,
      "chip": "ym2612"
    },
    {
      "channel": 5,
      "note": 44,
      "start": 38.2635,
      "duration": 0.1141,
      "velocity": 127,
      "chip": "ym2612"
    },
    {
      "channel": 1,
      "note": 90,
      "start": 38.3803,
      "duration": 0.1177,
      "velocity": 91,
      "chip": "ym2612"
    },
    {
      "channel": 4,
      "note": 86,
      "start": 38.3819,
      "duration": 0.1162,
      "velocity": 91,
      "chip": "ym2612"
    },
    {
      "channel": 5,
      "note": 62,
      "start": 38.384,
      "duration": 0.1148,
      "velocity": 127,
      "chip": "ym2612"
    },
    {
      "channel": 0,
      "note": 45,
      "start": 38.5187,
      "duration": 0.2455,
      "velocity": 111,
      "chip": "ym2612"
    },
    {
      "channel": 1,
      "note": 90,
      "start": 38.521,
      "duration": 0.1173,
      "velocity": 91,
      "chip": "ym2612"
    },
    {
      "channel": 4,
      "note": 86,
      "start": 38.5228,
      "duration": 0.1164,
      "velocity": 91,
      "chip": "ym2612"
    },
    {
      "channel": 2,
      "note": 93,
      "start": 38.5256,
      "duration": 0.1157,
      "velocity": 127,
      "chip": "ym2612"
    },
    {
      "channel": 5,
      "note": 61,
      "start": 38.5285,
      "duration": 0.0853,
      "velocity": 127,
      "chip": "ym2612"
    },
    {
      "channel": 1,
      "note": 86,
      "start": 38.6442,
      "duration": 0.1214,
      "velocity": 91,
      "chip": "ym2612"
    },
    {
      "channel": 4,
      "note": 81,
      "start": 38.6458,
      "duration": 0.1207,
      "velocity": 91,
      "chip": "ym2612"
    },
    {
      "channel": 2,
      "note": 92,
      "start": 38.6485,
      "duration": 0.0909,
      "velocity": 91,
      "chip": "ym2612"
    },
    {
      "channel": 5,
      "note": 44,
      "start": 38.6511,
      "duration": 0.1179,
      "velocity": 127,
      "chip": "ym2612"
    },
    {
      "channel": 0,
      "note": 38,
      "start": 38.7707,
      "duration": 0.2524,
      "velocity": 111,
      "chip": "ym2612"
    },
    {
      "channel": 3,
      "note": 67,
      "start": 38.7721,
      "duration": 1.932,
      "velocity": 97,
      "chip": "ym2612"
    },
    {
      "channel": 1,
      "note": 86,
      "start": 38.7738,
      "duration": 0.2499,
      "velocity": 91,
      "chip": "ym2612"
    },
    {
      "channel": 4,
      "note": 81,
      "start": 38.7756,
      "duration": 0.2482,
      "velocity": 91,
      "chip": "ym2612"
    },
    {
      "channel": 5,
      "note": 38,
      "start": 38.7782,
      "duration": 0.1216,
      "velocity": 127,
      "chip": "ym2612"
    },
    {
      "channel": 5,
      "note": 38,
      "start": 38.9132,
      "duration": 0.1162,
      "velocity": 127,
      "chip": "ym2612"
    },
    {
      "channel": 0,
      "note": 38,
      "start": 39.032,
      "duration": 0.2541,
      "velocity": 111,
      "chip": "ym2612"
    },
    {
      "channel": 1,
      "note": 93,
      "start": 39.0342,
      "duration": 0.1214,
      "velocity": 91,
      "chip": "ym2612"
    },
    {
      "channel": 4,
      "note": 90,
      "start": 39.0358,
      "duration": 0.12,
      "velocity": 91,
      "chip": "ym2612"
    },
    {
      "channel": 2,
      "note": 93,
      "start": 39.0383,
      "duration": 0.1176,
      "velocity": 127,
      "chip": "ym2612"
    },
    {
      "channel": 5,
      "note": 70,
      "start": 39.041,
      "duration": 0.1151,
      "velocity": 127,
      "chip": "ym2612"
    },
    {
      "channel": 1,
      "note": 93,
      "start": 39.1759,
      "duration": 0.2401,
      "velocity": 91,
      "chip": "ym2612"
    },
    {
      "channel": 4,
      "note": 90,
      "start": 39.1778,
      "duration": 0.2392,
      "velocity": 91,
      "chip": "ym2612"
    },
    {
      "channel": 2,
      "note": 92,
      "start": 39.1804,
      "duration": 0.0393,
      "velocity": 91,
      "chip": "ym2612"
    },
    {
      "channel": 5,
      "note": 38,
      "start": 39.1831,
      "duration": 0.0445,
      "velocity": 127,
      "chip": "ym2612"
    },
    {
      "channel": 5,
      "note": 79,
      "start": 39.2322,
      "duration": 0.056,
      "velocity": 127,
      "chip": "ym2612"
    },
    {
      "channel": 0,
      "note": 42,
      "start": 39.2991,
      "duration": 0.2443,
      "velocity": 111,
      "chip": "ym2612"
    },
    {
      "channel": 5,
      "note": 78,
      "start": 39.3027,
      "duration": 0.1154,
      "velocity": 127,
      "chip": "ym2612"
    },
    {
      "channel": 1,
      "note": 93,
      "start": 39.421,
      "duration": 0.1179,
      "velocity": 91,
      "chip": "ym2612"
    },
    {
      "channel": 4,
      "note": 90,
      "start": 39.4226,
      "duration": 0.1164,
      "velocity": 91,
      "chip": "ym2612"
    },
    {
      "channel": 5,
      "note": 70,
      "start": 39.4246,
      "duration": 0.115,
      "velocity": 127,
      "chip": "ym2612"
    },
    {
      "channel": 0,
      "note": 43,
      "start": 39.5589,
      "duration": 0.1201,
      "velocity": 111,
      "chip": "ym2612"
    },
    {
      "channel": 1,
      "note": 93,
      "start": 39.5615,
      "duration": 0.2375,
      "velocity": 91,
      "chip": "ym2612"
    },
    {
      "channel": 4,
      "note": 90,
      "start": 39.5633,
      "duration": 0.2366,
      "velocity": 91,
      "chip": "ym2612"
    },
    {
      "channel": 2,
      "note": 93,
      "start": 39.5661,
      "duration": 0.1151,
      "velocity": 127,
      "chip": "ym2612"
    },
    {
      "channel": 5,
      "note": 69,
      "start": 39.5688,
      "duration": 0.1115,
      "velocity": 127,
      "chip": "ym2612"
    },
    {
      "channel": 0,
      "note": 45,
      "start": 39.6829,
      "duration": 0.2437,
      "velocity": 111,
      "chip": "ym2612"
    },
    {
      "channel": 2,
      "note": 92,
      "start": 39.6871,
      "duration": 0.0872,
      "velocity": 91,
      "chip": "ym2612"
    },
    {
      "channel": 5,
      "note": 38,
      "start": 39.6897,
      "duration": 0.1115,
      "velocity": 127,
      "chip": "ym2612"
    },
    {
      "channel": 1,
      "note": 96,
      "start": 39.8039,
      "duration": 0.3741,
      "velocity": 91,
      "chip": "ym2612"
    },
    {
      "channel": 4,
      "note": 93,
      "start": 39.8054,
      "duration": 0.3736,
      "velocity": 91,
      "chip": "ym2612"
    },
    {
      "channel": 5,
      "note": 70,
      "start": 39.8085,
      "duration": 0.1837,
      "velocity": 127,
      "chip": "ym2612"
    },
    {
      "channel": 0,
      "note": 38,
      "start": 39.9388,
      "duration": 0.2377,
      "velocity": 111,
      "chip": "ym2612"
    },
    {
      "channel": 2,
      "note": 93,
      "start": 40.0623,
      "duration": 0.1187,
      "velocity": 127,
      "chip": "ym2612"
    },
    {
      "channel": 5,
      "note": 44,
      "start": 40.065,
      "duration": 0.1151,
      "velocity": 127,
      "chip": "ym2612"
    },
    {
      "channel": 0,
      "note": 43,
      "start": 40.1827,
      "duration": 0.1212,
      "velocity": 111,
      "chip": "ym2612"
    },
    {
      "channel": 1,
      "note": 96,
      "start": 40.185,
      "duration": 0.1195,
      "velocity": 91,
      "chip": "ym2612"
    },
    {
      "channel": 4,
      "note": 90,
      "start": 40.1866,
      "duration": 0.118,
      "velocity": 91,
      "chip": "ym2612"
    },
    {
      "channel": 2,
      "note": 92,
      "start": 40.1892,
      "duration": 0.0883,
      "velocity": 91,
      "chip": "ym2612"
    },
    {
      "channel": 5,
      "note": 66,
      "start": 40.1919,
      "duration": 0.1134,
      "velocity": 127,
      "chip": "ym2612"
    },
    {
      "channel": 0,
      "note": 45,
      "start": 40.3242,
      "duration": 0.2408,
      "velocity": 111,
      "chip": "ym2612"
    },
    {
      "channel": 1,
      "note": 96,
      "start": 40.3264,
      "duration": 0.3732,
      "velocity": 91,
      "chip": "ym2612"
    },
    {
      "channel": 4,
      "note": 90,
      "start": 40.3285,
      "duration": 0.3713,
      "velocity": 91,
      "chip": "ym2612"
    },
    {
      "channel": 5,
      "note": 38,
      "start": 40.3317,
      "duration": 0.1139,
      "velocity": 127,
      "chip": "ym2612"
    },
    {
      "channel": 5,
      "note": 62,
      "start": 40.4502,
      "duration": 0.1162,
      "velocity": 127,
      "chip": "ym2612"
    },
    {
      "channel": 0,
      "note": 48,
      "start": 40.5689,
      "duration": 0.2497,
      "velocity": 111,
      "chip": "ym2612"
    },
    {
      "channel": 2,
      "note": 93,
      "start": 40.5731,
      "duration": 0.1161,
      "velocity": 127,
      "chip": "ym2612"
    },
    {
      "channel": 5,
      "note": 62,
      "start": 40.5748,
      "duration": 0.1146,
      "velocity": 127,
      "chip": "ym2612"
    },
    {
      "channel": 3,
      "note": 69,
      "start": 40.7083,
      "duration": 0.1238,
      "velocity": 97,
      "chip": "ym2612"
    },
    {
      "channel": 1,
      "note": 93,
      "start": 40.71,
      "duration": 0.12,
      "velocity": 91,
      "chip": "ym2612"
    },
    {
      "channel": 4,
      "note": 86,
      "start": 40.7119,
      "duration": 0.119,
      "velocity": 91,
      "chip": "ym2612"
    },
    {
      "channel": 2,
      "note": 92,
      "start": 40.7145,
      "duration": 0.0889,
      "velocity": 91,
      "chip": "ym2612"
    },
    {
      "channel": 5,
      "note": 56,
      "start": 40.7171,
      "duration": 0.1162,
      "velocity": 127,
      "chip": "ym2612"
    },
    {
      "channel": 0,
      "note": 45,
      "start": 40.835,
      "duration": 0.3495,
      "velocity": 111,
      "chip": "ym2612"
    },
    {
      "channel": 3,
      "note": 69,
      "start": 40.8366,
      "duration": 0.1174,
      "velocity": 97,
      "chip": "ym2612"
    },
    {
      "channel": 1,
      "note": 93,
      "start": 40.8382,
      "duration": 0.2501,
      "velocity": 91,
      "chip": "ym2612"
    },
    {
      "channel": 4,
      "note": 86,
      "start": 40.84,
      "duration": 0.2484,
      "velocity": 91,
      "chip": "ym2612"
    },
    {
      "channel": 5,
      "note": 38,
      "start": 40.8423,
      "duration": 0.2468,
      "velocity": 127,
      "chip": "ym2612"
    },
    {
      "channel": 3,
      "note": 69,
      "start": 40.9571,
      "duration": 0.1192,
      "velocity": 97,
      "chip": "ym2612"
    },
    {
      "channel": 3,
      "note": 69,
      "start": 41.0958,
      "duration": 0.1189,
      "velocity": 97,
      "chip": "ym2612"
    },
    {
      "channel": 1,
      "note": 84,
      "start": 41.0974,
      "duration": 0.1153,
      "velocity": 91,
      "chip": "ym2612"
    },
    {
      "channel": 4,
      "note": 77,
      "start": 41.099,
      "duration": 0.1146,
      "velocity": 91,
      "chip": "ym2612"
    },
    {
      "channel": 2,
      "note": 93,
      "start": 41.1016,
      "duration": 0.1152,
      "velocity": 127,
      "chip": "ym2612"
    },
    {
      "channel": 0,
      "note": 46,
      "start": 41.2184,
      "duration": 0.1091,
      "velocity": 111,
      "chip": "ym2612"
    },
    {
      "channel": 3,
      "note": 69,
      "start": 41.22,
      "duration": 0.1183,
      "velocity": 97,
      "chip": "ym2612"
    },
    {
      "channel": 1,
      "note": 84,
      "start": 41.2215,
      "duration": 0.2441,
      "velocity": 91,
      "chip": "ym2612"
    },
    {
      "channel": 4,
      "note": 77,
      "start": 41.2231,
      "duration": 0.2427,
      "velocity": 91,
      "chip": "ym2612"
    },
    {
      "channel": 2,
      "note": 92,
      "start": 41.2257,
      "duration": 0.0868,
      "velocity": 91,
      "chip": "ym2612"
    },
    {
      "channel": 5,
      "note": 38,
      "start": 41.2277,
      "duration": 0.1117,
      "velocity": 127,
      "chip": "ym2612"
    },
    {
      "channel": 0,
      "note": 46,
      "start": 41.3411,
      "duration": 0.2494,
      "velocity": 111,
      "chip": "ym2612"
    },
    {
      "channel": 3,
      "note": 69,
      "start": 41.3426,
      "duration": 0.1169,
      "velocity": 97,
      "chip": "ym2612"
    },
    {
      "channel": 5,
      "note": 38,
      "start": 41.346,
      "duration": 0.2467,
      "velocity": 127,
      "chip": "ym2612"
    },
    {
      "channel": 3,
      "note": 69,
      "start": 41.479,
      "duration": 0.122,
      "velocity": 97,
      "chip": "ym2612"
    },
    {
      "channel": 1,
      "note": 84,
      "start": 41.4806,
      "duration": 0.1145,
      "velocity": 91,
      "chip": "ym2612"
    },
    {
      "channel": 4,
      "note": 77,
      "start": 41.4822,
      "duration": 0.1139,
      "velocity": 91,
      "chip": "ym2612"
    },
    {
      "channel": 0,
      "note": 46,
      "start": 41.6,
      "duration": 0.2478,
      "velocity": 111,
      "chip": "ym2612"
    },
    {
      "channel": 1,
      "note": 84,
      "start": 41.602,
      "duration": 0.2465,
      "velocity": 91,
      "chip": "ym2612"
    },
    {
      "channel": 4,
      "note": 77,
      "start": 41.6037,
      "duration": 0.2449,
      "velocity": 91,
      "chip": "ym2612"
    },
    {
      "channel": 2,
      "note": 93,
      "start": 41.6065,
      "duration": 0.1175,
      "velocity": 127,
      "chip": "ym2612"
    },
    {
      "channel": 5,
      "note": 38,
      "start": 41.6083,
      "duration": 0.1159,
      "velocity": 127,
      "chip": "ym2612"
    },
    {
      "channel": 2,
      "note": 92,
      "start": 41.743,
      "duration": 0.0896,
      "velocity": 91,
      "chip": "ym2612"
    },
    {
      "channel": 0,
      "note": 41,
      "start": 41.8626,
      "duration": 0.4981,
      "velocity": 111,
      "chip": "ym2612"
    },
    {
      "channel": 1,
      "note": 86,
      "start": 41.8651,
      "duration": 2.7742,
      "velocity": 91,
      "chip": "ym2612"
    },
    {
      "channel": 4,
      "note": 79,
      "start": 41.8665,
      "duration": 2.7729,
      "velocity": 91,
      "chip": "ym2612"
    },
    {
      "channel": 5,
      "note": 38,
      "start": 41.8694,
      "duration": 0.1868,
      "velocity": 127,
      "chip": "ym2612"
    },
    {
      "channel": 2,
      "note": 93,
      "start": 42.1261,
      "duration": 0.1156,
      "velocity": 127,
      "chip": "ym2612"
    },
    {
      "channel": 2,
      "note": 92,
      "start": 42.2465,
      "duration": 0.0895,
      "velocity": 91,
      "chip": "ym2612"
    },
    {
      "channel": 5,
      "note": 44,
      "start": 42.2491,
      "duration": 0.1129,
      "velocity": 127,
      "chip": "ym2612"
    },
    {
      "channel": 0,
      "note": 46,
      "start": 42.3647,
      "duration": 0.5009,
      "velocity": 79,
      "chip": "ym2612"
    },
    {
      "channel": 5,
      "note": 38,
      "start": 42.3694,
      "duration": 0.2473,
      "velocity": 127,
      "chip": "ym2612"
    },
    {
      "channel": 2,
      "note": 93,
      "start": 42.6236,
      "duration": 0.1158,
      "velocity": 127,
      "chip": "ym2612"
    },
    {
      "channel": 5,
      "note": 45,
      "start": 42.6253,
      "duration": 0.1132,
      "velocity": 127,
      "chip": "ym2612"
    },
    {
      "channel": 2,
      "note": 92,
      "start": 42.7442,
      "duration": 0.0893,
      "velocity": 91,
      "chip": "ym2612"
    },
    {
      "channel": 5,
      "note": 62,
      "start": 42.7469,
      "duration": 0.1159,
      "velocity": 127,
      "chip": "ym2612"
    },
    {
      "channel": 0,
      "note": 58,
      "start": 42.8788,
      "duration": 0.9914,
      "velocity": 79,
      "chip": "ym2612"
    },
    {
      "channel": 5,
      "note": 38,
      "start": 42.8827,
      "duration": 0.2486,
      "velocity": 127,
      "chip": "ym2612"
    },
    {
      "channel": 2,
      "note": 93,
      "start": 43.121,
      "duration": 0.1183,
      "velocity": 127,
      "chip": "ym2612"
    },
    {
      "channel": 2,
      "note": 92,
      "start": 43.2585,
      "duration": 0.0896,
      "velocity": 91,
      "chip": "ym2612"
    },
    {
      "channel": 5,
      "note": 38,
      "start": 43.2602,
      "duration": 0.1127,
      "velocity": 127,
      "chip": "ym2612"
    },
    {
      "channel": 5,
      "note": 38,
      "start": 43.3781,
      "duration": 0.2508,
      "velocity": 127,
      "chip": "ym2612"
    },
    {
      "channel": 2,
      "note": 93,
      "start": 43.636,
      "duration": 0.1145,
      "velocity": 127,
      "chip": "ym2612"
    },
    {
      "channel": 5,
      "note": 38,
      "start": 43.6378,
      "duration": 0.1189,
      "velocity": 127,
      "chip": "ym2612"
    },
    {
      "channel": 2,
      "note": 92,
      "start": 43.7558,
      "duration": 0.0903,
      "velocity": 91,
      "chip": "ym2612"
    },
    {
      "channel": 0,
      "note": 57,
      "start": 43.8733,
      "duration": 0.7536,
      "velocity": 79,
      "chip": "ym2612"
    },
    {
      "channel": 5,
      "note": 38,
      "start": 43.8781,
      "duration": 0.1794,
      "velocity": 127,
      "chip": "ym2612"
    },
    {
      "channel": 2,
      "note": 93,
      "start": 44.1332,
      "duration": 0.1183,
      "velocity": 127,
      "chip": "ym2612"
    },
    {
      "channel": 2,
      "note": 92,
      "start": 44.2708,
      "duration": 0.0894,
      "velocity": 91,
      "chip": "ym2612"
    },
    {
      "channel": 5,
      "note": 44,
      "start": 44.2734,
      "duration": 0.1119,
      "velocity": 127,
      "chip": "ym2612"
    },
    {
      "channel": 5,
      "note": 38,
      "start": 44.3909,
      "duration": 0.2491,
      "velocity": 127,
      "chip": "ym2612"
    },
    {
      "channel": 0,
      "note": 53,
      "start": 44.6471,
      "duration": 0.2472,
      "velocity": 79,
      "chip": "ym2612"
    },
    {
      "channel": 1,
      "note": 86,
      "start": 44.6495,
      "duration": 0.1188,
      "velocity": 91,
      "chip": "ym2612"
    },
    {
      "channel": 4,
      "note": 79,
      "start": 44.6511,
      "duration": 0.1181,
      "velocity": 91,
      "chip": "ym2612"
    },
    {
      "channel": 2,
      "note": 93,
      "start": 44.6537,
      "duration": 0.1176,
      "velocity": 127,
      "chip": "ym2612"
    },
    {
      "channel": 5,
      "note": 45,
      "start": 44.6554,
      "duration": 0.1149,
      "velocity": 127,
      "chip": "ym2612"
    },
    {
      "channel": 1,
      "note": 86,
      "start": 44.7739,
      "duration": 0.1218,
      "velocity": 91,
      "chip": "ym2612"
    },
    {
      "channel": 4,
      "note": 79,
      "start": 44.7756,
      "duration": 0.121,
      "velocity": 91,
      "chip": "ym2612"
    },
    {
      "channel": 2,
      "note": 92,
      "start": 44.7784,
      "duration": 0.0908,
      "velocity": 91,
      "chip": "ym2612"
    },
    {
      "channel": 5,
      "note": 62,
      "start": 44.781,
      "duration": 0.1182,
      "velocity": 127,
      "chip": "ym2612"
    },
    {
      "channel": 0,
      "note": 41,
      "start": 44.9018,
      "duration": 0.0,
      "velocity": 111,
      "chip": "ym2612"
    }
  ]
}