{
  "track_name": "12 - Head Rock",
  "duration_sec": 32.998,
  "sample_rate": 44100,
  "note_count": 348,
  "unique_pitches": 24,
  "pitch_range": 54,
  "avg_note_duration": 0.3465,
  "reconstruction_stats": {
    "notes_reconstructed": 348,
    "keyon_events": 348,
    "keyoff_events": 345,
    "orphan_keyons": 3,
    "unique_pitches": 24,
    "pitch_range": 54,
    "avg_duration_sec": 0.3465
  },
  "metadata": {
    "source": "S\\Sorcerer's Kingdom\\12 - Head Rock.vgm"
  },
  "notes": [
    {
      "channel": 0,
      "note": 69,
      "start": 0.0067,
      "duration": 0.2473,
      "velocity": 100,
      "chip": "ym2612"
    },
    {
      "channel": 1,
      "note": 57,
      "start": 0.0068,
      "duration": 0.2473,
      "velocity": 102,
      "chip": "ym2612"
    },
    {
      "channel": 2,
      "note": 57,
      "start": 0.0068,
      "duration": 0.4287,
      "velocity": 91,
      "chip": "ym2612"
    },
    {
      "channel": 3,
      "note": 81,
      "start": 0.007,
      "duration": 8.0031,
      "velocity": 97,
      "chip": "ym2612"
    },
    {
      "channel": 4,
      "note": 36,
      "start": 0.007,
      "duration": 0.1119,
      "velocity": 101,
      "chip": "ym2612"
    },
    {
      "channel": 0,
      "note": 64,
      "start": 0.254,
      "duration": 0.2509,
      "velocity": 100,
      "chip": "ym2612"
    },
    {
      "channel": 1,
      "note": 57,
      "start": 0.2542,
      "duration": 0.2507,
      "velocity": 102,
      "chip": "ym2612"
    },
    {
      "channel": 1,
      "note": 57,
      "start": 0.505,
      "duration": 0.249,
      "velocity": 102,
      "chip": "ym2612"
    },
    {
      "channel": 2,
      "note": 57,
      "start": 0.5051,
      "duration": 0.4305,
      "velocity": 91,
      "chip": "ym2612"
    },
    {
      "channel": 4,
      "note": 36,
      "start": 0.5052,
      "duration": 0.1137,
      "velocity": 101,
      "chip": "ym2612"
    },
    {
      "channel": 0,
      "note": 76,
      "start": 0.754,
      "duration": 0.251,
      "velocity": 100,
      "chip": "ym2612"
    },
    {
      "channel": 1,
      "note": 57,
      "start": 0.754,
      "duration": 0.251,
      "velocity": 102,
      "chip": "ym2612"
    },
    {
      "channel": 1,
      "note": 57,
      "start": 1.005,
      "duration": 0.2483,
      "velocity": 102,
      "chip": "ym2612"
    },
    {
      "channel": 2,
      "note": 57,
      "start": 1.0051,
      "duration": 0.4305,
      "velocity": 91,
      "chip": "ym2612"
    },
    {
      "channel": 4,
      "note": 36,
      "start": 1.0052,
      "duration": 0.1137,
      "velocity": 101,
      "chip": "ym2612"
    },
    {
      "channel": 1,
      "note": 57,
      "start": 1.2534,
      "duration": 0.2512,
      "velocity": 102,
      "chip": "ym2612"
    },
    {
      "channel": 1,
      "note": 57,
      "start": 1.5047,
      "duration": 0.2487,
      "velocity": 102,
      "chip": "ym2612"
    },
    {
      "channel": 2,
      "note": 57,
      "start": 1.5047,
      "duration": 0.4308,
      "velocity": 91,
      "chip": "ym2612"
    },
    {
      "channel": 4,
      "note": 36,
      "start": 1.5048,
      "duration": 0.1141,
      "velocity": 101,
      "chip": "ym2612"
    },
    {
      "channel": 1,
      "note": 57,
      "start": 1.7534,
      "duration": 0.2548,
      "velocity": 102,
      "chip": "ym2612"
    },
    {
      "channel": 1,
      "note": 57,
      "start": 2.0083,
      "duration": 0.245,
      "velocity": 102,
      "chip": "ym2612"
    },
    {
      "channel": 2,
      "note": 57,
      "start": 2.0084,
      "duration": 0.4272,
      "velocity": 91,
      "chip": "ym2612"
    },
    {
      "channel": 4,
      "note": 36,
      "start": 2.0084,
      "duration": 0.1104,
      "velocity": 101,
      "chip": "ym2612"
    },
    {
      "channel": 1,
      "note": 57,
      "start": 2.2534,
      "duration": 0.2512,
      "velocity": 102,
      "chip": "ym2612"
    },
    {
      "channel": 1,
      "note": 57,
      "start": 2.5047,
      "duration": 0.2487,
      "velocity": 102,
      "chip": "ym2612"
    },
    {
      "channel": 2,
      "note": 57,
      "start": 2.5047,
      "duration": 0.4308,
      "velocity": 91,
      "chip": "ym2612"
    },
    {
      "channel": 4,
      "note": 36,
      "start": 2.5048,
      "duration": 0.1141,
      "velocity": 101,
      "chip": "ym2612"
    },
    {
      "channel": 1,
      "note": 57,
      "start": 2.7534,
      "duration": 0.2512,
      "velocity": 102,
      "chip": "ym2612"
    },
    {
      "channel": 1,
      "note": 57,
      "start": 3.0047,
      "duration": 0.2487,
      "velocity": 102,
      "chip": "ym2612"
    },
    {
      "channel": 2,
      "note": 57,
      "start": 3.0047,
      "duration": 0.4308,
      "velocity": 91,
      "chip": "ym2612"
    },
    {
      "channel": 4,
      "note": 36,
      "start": 3.0048,
      "duration": 0.1141,
      "velocity": 101,
      "chip": "ym2612"
    },
    {
      "channel": 1,
      "note": 57,
      "start": 3.2534,
      "duration": 0.252,
      "velocity": 102,
      "chip": "ym2612"
    },
    {
      "channel": 1,
      "note": 57,
      "start": 3.5054,
      "duration": 0.2483,
      "velocity": 102,
      "chip": "ym2612"
    },
    {
      "channel": 2,
      "note": 61,
      "start": 3.5055,
      "duration": 0.43,
      "velocity": 91,
      "chip": "ym2612"
    },
    {
      "channel": 4,
      "note": 36,
      "start": 3.5056,
      "duration": 0.1134,
      "velocity": 101,
      "chip": "ym2612"
    },
    {
      "channel": 0,
      "note": 74,
      "start": 3.7537,
      "duration": 0.2548,
      "velocity": 100,
      "chip": "ym2612"
    },
    {
      "channel": 1,
      "note": 61,
      "start": 3.7538,
      "duration": 0.2548,
      "velocity": 102,
      "chip": "ym2612"
    },
    {
      "channel": 0,
      "note": 74,
      "start": 4.0085,
      "duration": 0.2454,
      "velocity": 100,
      "chip": "ym2612"
    },
    {
      "channel": 1,
      "note": 62,
      "start": 4.0086,
      "duration": 0.2454,
      "velocity": 102,
      "chip": "ym2612"
    },
    {
      "channel": 2,
      "note": 62,
      "start": 4.0087,
      "duration": 0.4268,
      "velocity": 91,
      "chip": "ym2612"
    },
    {
      "channel": 4,
      "note": 36,
      "start": 4.0088,
      "duration": 0.1101,
      "velocity": 101,
      "chip": "ym2612"
    },
    {
      "channel": 0,
      "note": 73,
      "start": 4.254,
      "duration": 0.2509,
      "velocity": 100,
      "chip": "ym2612"
    },
    {
      "channel": 1,
      "note": 62,
      "start": 4.254,
      "duration": 0.2508,
      "velocity": 102,
      "chip": "ym2612"
    },
    {
      "channel": 1,
      "note": 62,
      "start": 4.5049,
      "duration": 0.2483,
      "velocity": 102,
      "chip": "ym2612"
    },
    {
      "channel": 2,
      "note": 62,
      "start": 4.505,
      "duration": 0.4305,
      "velocity": 91,
      "chip": "ym2612"
    },
    {
      "channel": 4,
      "note": 36,
      "start": 4.5051,
      "duration": 0.1137,
      "velocity": 101,
      "chip": "ym2612"
    },
    {
      "channel": 1,
      "note": 62,
      "start": 4.7533,
      "duration": 0.2513,
      "velocity": 102,
      "chip": "ym2612"
    },
    {
      "channel": 1,
      "note": 62,
      "start": 5.0047,
      "duration": 0.2486,
      "velocity": 102,
      "chip": "ym2612"
    },
    {
      "channel": 2,
      "note": 62,
      "start": 5.0047,
      "duration": 0.4308,
      "velocity": 91,
      "chip": "ym2612"
    },
    {
      "channel": 4,
      "note": 36,
      "start": 5.0048,
      "duration": 0.1141,
      "velocity": 101,
      "chip": "ym2612"
    },
    {
      "channel": 1,
      "note": 62,
      "start": 5.2533,
      "duration": 0.2513,
      "velocity": 102,
      "chip": "ym2612"
    },
    {
      "channel": 1,
      "note": 62,
      "start": 5.5047,
      "duration": 0.2484,
      "velocity": 102,
      "chip": "ym2612"
    },
    {
      "channel": 2,
      "note": 62,
      "start": 5.5047,
      "duration": 0.4308,
      "velocity": 91,
      "chip": "ym2612"
    },
    {
      "channel": 4,
      "note": 36,
      "start": 5.5048,
      "duration": 0.1141,
      "velocity": 101,
      "chip": "ym2612"
    },
    {
      "channel": 1,
      "note": 61,
      "start": 5.7532,
      "duration": 0.255,
      "velocity": 102,
      "chip": "ym2612"
    },
    {
      "channel": 0,
      "note": 71,
      "start": 6.0081,
      "duration": 0.248,
      "velocity": 100,
      "chip": "ym2612"
    },
    {
      "channel": 1,
      "note": 59,
      "start": 6.0082,
      "duration": 0.2479,
      "velocity": 102,
      "chip": "ym2612"
    },
    {
      "channel": 2,
      "note": 57,
      "start": 6.0083,
      "duration": 0.4272,
      "velocity": 91,
      "chip": "ym2612"
    },
    {
      "channel": 4,
      "note": 55,
      "start": 6.0084,
      "duration": 0.1772,
      "velocity": 127,
      "chip": "ym2612"
    },
    {
      "channel": 1,
      "note": 57,
      "start": 6.2562,
      "duration": 0.248,
      "velocity": 102,
      "chip": "ym2612"
    },
    {
      "channel": 4,
      "note": 36,
      "start": 6.2563,
      "duration": 0.1126,
      "velocity": 101,
      "chip": "ym2612"
    },
    {
      "channel": 1,
      "note": 56,
      "start": 6.5042,
      "duration": 0.2491,
      "velocity": 102,
      "chip": "ym2612"
    },
    {
      "channel": 2,
      "note": 57,
      "start": 6.5042,
      "duration": 0.4313,
      "velocity": 91,
      "chip": "ym2612"
    },
    {
      "channel": 4,
      "note": 36,
      "start": 6.5044,
      "duration": 0.1146,
      "velocity": 101,
      "chip": "ym2612"
    },
    {
      "channel": 1,
      "note": 56,
      "start": 6.7533,
      "duration": 0.2549,
      "velocity": 102,
      "chip": "ym2612"
    },
    {
      "channel": 0,
      "note": 59,
      "start": 7.0082,
      "duration": 0.2468,
      "velocity": 100,
      "chip": "ym2612"
    },
    {
      "channel": 1,
      "note": 56,
      "start": 7.0082,
      "duration": 0.2468,
      "velocity": 102,
      "chip": "ym2612"
    },
    {
      "channel": 2,
      "note": 56,
      "start": 7.0083,
      "duration": 0.4273,
      "velocity": 91,
      "chip": "ym2612"
    },
    {
      "channel": 4,
      "note": 55,
      "start": 7.0084,
      "duration": 0.1772,
      "velocity": 127,
      "chip": "ym2612"
    },
    {
      "channel": 1,
      "note": 56,
      "start": 7.255,
      "duration": 0.2502,
      "velocity": 102,
      "chip": "ym2612"
    },
    {
      "channel": 4,
      "note": 55,
      "start": 7.2551,
      "duration": 0.1806,
      "velocity": 127,
      "chip": "ym2612"
    },
    {
      "channel": 1,
      "note": 56,
      "start": 7.5052,
      "duration": 0.2494,
      "velocity": 102,
      "chip": "ym2612"
    },
    {
      "channel": 2,
      "note": 56,
      "start": 7.5053,
      "duration": 0.4303,
      "velocity": 91,
      "chip": "ym2612"
    },
    {
      "channel": 4,
      "note": 55,
      "start": 7.5054,
      "duration": 0.1802,
      "velocity": 127,
      "chip": "ym2612"
    },
    {
      "channel": 1,
      "note": 56,
      "start": 7.7547,
      "duration": 0.2552,
      "velocity": 102,
      "chip": "ym2612"
    },
    {
      "channel": 4,
      "note": 55,
      "start": 7.7548,
      "duration": 0.181,
      "velocity": 127,
      "chip": "ym2612"
    },
    {
      "channel": 0,
      "note": 69,
      "start": 8.0098,
      "duration": 0.2441,
      "velocity": 100,
      "chip": "ym2612"
    },
    {
      "channel": 1,
      "note": 57,
      "start": 8.01,
      "duration": 0.2441,
      "velocity": 102,
      "chip": "ym2612"
    },
    {
      "channel": 2,
      "note": 57,
      "start": 8.01,
      "duration": 0.4255,
      "velocity": 91,
      "chip": "ym2612"
    },
    {
      "channel": 3,
      "note": 81,
      "start": 8.0101,
      "duration": 7.9999,
      "velocity": 97,
      "chip": "ym2612"
    },
    {
      "channel": 4,
      "note": 36,
      "start": 8.0102,
      "duration": 0.1087,
      "velocity": 101,
      "chip": "ym2612"
    },
    {
      "channel": 0,
      "note": 64,
      "start": 8.254,
      "duration": 0.2509,
      "velocity": 100,
      "chip": "ym2612"
    },
    {
      "channel": 1,
      "note": 57,
      "start": 8.2541,
      "duration": 0.2508,
      "velocity": 102,
      "chip": "ym2612"
    },
    {
      "channel": 1,
      "note": 57,
      "start": 8.505,
      "duration": 0.249,
      "velocity": 102,
      "chip": "ym2612"
    },
    {
      "channel": 2,
      "note": 57,
      "start": 8.5051,
      "duration": 0.4305,
      "velocity": 91,
      "chip": "ym2612"
    },
    {
      "channel": 4,
      "note": 36,
      "start": 8.5052,
      "duration": 0.1137,
      "velocity": 101,
      "chip": "ym2612"
    },
    {
      "channel": 0,
      "note": 76,
      "start": 8.754,
      "duration": 0.251,
      "velocity": 100,
      "chip": "ym2612"
    },
    {
      "channel": 1,
      "note": 57,
      "start": 8.754,
      "duration": 0.251,
      "velocity": 102,
      "chip": "ym2612"
    },
    {
      "channel": 1,
      "note": 57,
      "start": 9.005,
      "duration": 0.2483,
      "velocity": 102,
      "chip": "ym2612"
    },
    {
      "channel": 2,
      "note": 57,
      "start": 9.0051,
      "duration": 0.4305,
      "velocity": 91,
      "chip": "ym2612"
    },
    {
      "channel": 4,
      "note": 36,
      "start": 9.0052,
      "duration": 0.1137,
      "velocity": 101,
      "chip": "ym2612"
    },
    {
      "channel": 1,
      "note": 57,
      "start": 9.2534,
      "duration": 0.2513,
      "velocity": 102,
      "chip": "ym2612"
    },
    {
      "channel": 1,
      "note": 57,
      "start": 9.5047,
      "duration": 0.2487,
      "velocity": 102,
      "chip": "ym2612"
    },
    {
      "channel": 2,
      "note": 57,
      "start": 9.5047,
      "duration": 0.4308,
      "velocity": 91,
      "chip": "ym2612"
    },
    {
      "channel": 4,
      "note": 36,
      "start": 9.5049,
      "duration": 0.114,
      "velocity": 101,
      "chip": "ym2612"
    },
    {
      "channel": 1,
      "note": 57,
      "start": 9.7534,
      "duration": 0.2548,
      "velocity": 102,
      "chip": "ym2612"
    },
    {
      "channel": 1,
      "note": 57,
      "start": 10.0083,
      "duration": 0.245,
      "velocity": 102,
      "chip": "ym2612"
    },
    {
      "channel": 2,
      "note": 57,
      "start": 10.0084,
      "duration": 0.4272,
      "velocity": 91,
      "chip": "ym2612"
    },
    {
      "channel": 4,
      "note": 36,
      "start": 10.0084,
      "duration": 0.1105,
      "velocity": 101,
      "chip": "ym2612"
    },
    {
      "channel": 1,
      "note": 57,
      "start": 10.2534,
      "duration": 0.2513,
      "velocity": 102,
      "chip": "ym2612"
    },
    {
      "channel": 1,
      "note": 57,
      "start": 10.5047,
      "duration": 0.2487,
      "velocity": 102,
      "chip": "ym2612"
    },
    {
      "channel": 2,
      "note": 57,
      "start": 10.5047,
      "duration": 0.4308,
      "velocity": 91,
      "chip": "ym2612"
    },
    {
      "channel": 4,
      "note": 36,
      "start": 10.5049,
      "duration": 0.114,
      "velocity": 101,
      "chip": "ym2612"
    },
    {
      "channel": 1,
      "note": 57,
      "start": 10.7534,
      "duration": 0.2513,
      "velocity": 102,
      "chip": "ym2612"
    },
    {
      "channel": 1,
      "note": 57,
      "start": 11.0047,
      "duration": 0.2487,
      "velocity": 102,
      "chip": "ym2612"
    },
    {
      "channel": 2,
      "note": 57,
      "start": 11.0047,
      "duration": 0.4308,
      "velocity": 91,
      "chip": "ym2612"
    },
    {
      "channel": 4,
      "note": 36,
      "start": 11.0049,
      "duration": 0.114,
      "velocity": 101,
      "chip": "ym2612"
    },
    {
      "channel": 1,
      "note": 57,
      "start": 11.2534,
      "duration": 0.252,
      "velocity": 102,
      "chip": "ym2612"
    },
    {
      "channel": 1,
      "note": 57,
      "start": 11.5054,
      "duration": 0.2483,
      "velocity": 102,
      "chip": "ym2612"
    },
    {
      "channel": 2,
      "note": 61,
      "start": 11.5055,
      "duration": 0.43,
      "velocity": 91,
      "chip": "ym2612"
    },
    {
      "channel": 4,
      "note": 36,
      "start": 11.5056,
      "duration": 0.1133,
      "velocity": 101,
      "chip": "ym2612"
    },
    {
      "channel": 0,
      "note": 74,
      "start": 11.7537,
      "duration": 0.2548,
      "velocity": 100,
      "chip": "ym2612"
    },
    {
      "channel": 1,
      "note": 61,
      "start": 11.7538,
      "duration": 0.2548,
      "velocity": 102,
      "chip": "ym2612"
    },
    {
      "channel": 0,
      "note": 74,
      "start": 12.0085,
      "duration": 0.2454,
      "velocity": 100,
      "chip": "ym2612"
    },
    {
      "channel": 1,
      "note": 62,
      "start": 12.0086,
      "duration": 0.2454,
      "velocity": 102,
      "chip": "ym2612"
    },
    {
      "channel": 2,
      "note": 62,
      "start": 12.0087,
      "duration": 0.4268,
      "velocity": 91,
      "chip": "ym2612"
    },
    {
      "channel": 4,
      "note": 36,
      "start": 12.0088,
      "duration": 0.1101,
      "velocity": 101,
      "chip": "ym2612"
    },
    {
      "channel": 0,
      "note": 73,
      "start": 12.254,
      "duration": 0.2509,
      "velocity": 100,
      "chip": "ym2612"
    },
    {
      "channel": 1,
      "note": 62,
      "start": 12.254,
      "duration": 0.2508,
      "velocity": 102,
      "chip": "ym2612"
    },
    {
      "channel": 1,
      "note": 62,
      "start": 12.5049,
      "duration": 0.2483,
      "velocity": 102,
      "chip": "ym2612"
    },
    {
      "channel": 2,
      "note": 62,
      "start": 12.505,
      "duration": 0.4305,
      "velocity": 91,
      "chip": "ym2612"
    },
    {
      "channel": 4,
      "note": 36,
      "start": 12.5051,
      "duration": 0.1138,
      "velocity": 101,
      "chip": "ym2612"
    },
    {
      "channel": 1,
      "note": 62,
      "start": 12.7533,
      "duration": 0.2513,
      "velocity": 102,
      "chip": "ym2612"
    },
    {
      "channel": 1,
      "note": 62,
      "start": 13.0047,
      "duration": 0.2486,
      "velocity": 102,
      "chip": "ym2612"
    },
    {
      "channel": 2,
      "note": 62,
      "start": 13.0047,
      "duration": 0.4308,
      "velocity": 91,
      "chip": "ym2612"
    },
    {
      "channel": 4,
      "note": 36,
      "start": 13.0048,
      "duration": 0.1141,
      "velocity": 101,
      "chip": "ym2612"
    },
    {
      "channel": 1,
      "note": 62,
      "start": 13.2533,
      "duration": 0.2513,
      "velocity": 102,
      "chip": "ym2612"
    },
    {
      "channel": 1,
      "note": 62,
      "start": 13.5047,
      "duration": 0.2484,
      "velocity": 102,
      "chip": "ym2612"
    },
    {
      "channel": 2,
      "note": 62,
      "start": 13.5047,
      "duration": 0.4308,
      "velocity": 91,
      "chip": "ym2612"
    },
    {
      "channel": 4,
      "note": 36,
      "start": 13.5048,
      "duration": 0.1141,
      "velocity": 101,
      "chip": "ym2612"
    },
    {
      "channel": 1,
      "note": 61,
      "start": 13.7532,
      "duration": 0.255,
      "velocity": 102,
      "chip": "ym2612"
    },
    {
      "channel": 0,
      "note": 71,
      "start": 14.0081,
      "duration": 0.248,
      "velocity": 100,
      "chip": "ym2612"
    },
    {
      "channel": 1,
      "note": 59,
      "start": 14.0082,
      "duration": 0.2479,
      "velocity": 102,
      "chip": "ym2612"
    },
    {
      "channel": 2,
      "note": 57,
      "start": 14.0083,
      "duration": 0.4272,
      "velocity": 91,
      "chip": "ym2612"
    },
    {
      "channel": 4,
      "note": 55,
      "start": 14.0084,
      "duration": 0.1772,
      "velocity": 127,
      "chip": "ym2612"
    },
    {
      "channel": 1,
      "note": 57,
      "start": 14.2562,
      "duration": 0.248,
      "velocity": 102,
      "chip": "ym2612"
    },
    {
      "channel": 4,
      "note": 36,
      "start": 14.2563,
      "duration": 0.1126,
      "velocity": 101,
      "chip": "ym2612"
    },
    {
      "channel": 1,
      "note": 56,
      "start": 14.5042,
      "duration": 0.2491,
      "velocity": 102,
      "chip": "ym2612"
    },
    {
      "channel": 2,
      "note": 57,
      "start": 14.5042,
      "duration": 0.4313,
      "velocity": 91,
      "chip": "ym2612"
    },
    {
      "channel": 4,
      "note": 36,
      "start": 14.5044,
      "duration": 0.1146,
      "velocity": 101,
      "chip": "ym2612"
    },
    {
      "channel": 1,
      "note": 56,
      "start": 14.7533,
      "duration": 0.2549,
      "velocity": 102,
      "chip": "ym2612"
    },
    {
      "channel": 0,
      "note": 59,
      "start": 15.0082,
      "duration": 0.2468,
      "velocity": 100,
      "chip": "ym2612"
    },
    {
      "channel": 1,
      "note": 56,
      "start": 15.0082,
      "duration": 0.2468,
      "velocity": 102,
      "chip": "ym2612"
    },
    {
      "channel": 2,
      "note": 56,
      "start": 15.0083,
      "duration": 0.4273,
      "velocity": 91,
      "chip": "ym2612"
    },
    {
      "channel": 4,
      "note": 55,
      "start": 15.0084,
      "duration": 0.1772,
      "velocity": 127,
      "chip": "ym2612"
    },
    {
      "channel": 1,
      "note": 56,
      "start": 15.255,
      "duration": 0.2502,
      "velocity": 102,
      "chip": "ym2612"
    },
    {
      "channel": 4,
      "note": 55,
      "start": 15.2551,
      "duration": 0.1806,
      "velocity": 127,
      "chip": "ym2612"
    },
    {
      "channel": 1,
      "note": 56,
      "start": 15.5052,
      "duration": 0.2494,
      "velocity": 102,
      "chip": "ym2612"
    },
    {
      "channel": 2,
      "note": 56,
      "start": 15.5053,
      "duration": 0.4303,
      "velocity": 91,
      "chip": "ym2612"
    },
    {
      "channel": 4,
      "note": 55,
      "start": 15.5054,
      "duration": 0.1802,
      "velocity": 127,
      "chip": "ym2612"
    },
    {
      "channel": 1,
      "note": 56,
      "start": 15.7547,
      "duration": 0.2551,
      "velocity": 102,
      "chip": "ym2612"
    },
    {
      "channel": 4,
      "note": 55,
      "start": 15.7548,
      "duration": 0.181,
      "velocity": 127,
      "chip": "ym2612"
    },
    {
      "channel": 0,
      "note": 78,
      "start": 16.0098,
      "duration": 0.2441,
      "velocity": 100,
      "chip": "ym2612"
    },
    {
      "channel": 1,
      "note": 54,
      "start": 16.0099,
      "duration": 0.2441,
      "velocity": 102,
      "chip": "ym2612"
    },
    {
      "channel": 2,
      "note": 54,
      "start": 16.01,
      "duration": 0.4256,
      "velocity": 91,
      "chip": "ym2612"
    },
    {
      "channel": 3,
      "note": 90,
      "start": 16.01,
      "duration": 1.9987,
      "velocity": 97,
      "chip": "ym2612"
    },
    {
      "channel": 4,
      "note": 36,
      "start": 16.0101,
      "duration": 0.1088,
      "velocity": 101,
      "chip": "ym2612"
    },
    {
      "channel": 0,
      "note": 76,
      "start": 16.2539,
      "duration": 0.2532,
      "velocity": 100,
      "chip": "ym2612"
    },
    {
      "channel": 1,
      "note": 54,
      "start": 16.254,
      "duration": 0.2532,
      "velocity": 102,
      "chip": "ym2612"
    },
    {
      "channel": 1,
      "note": 54,
      "start": 16.5073,
      "duration": 0.2466,
      "velocity": 102,
      "chip": "ym2612"
    },
    {
      "channel": 2,
      "note": 54,
      "start": 16.5073,
      "duration": 0.4282,
      "velocity": 91,
      "chip": "ym2612"
    },
    {
      "channel": 4,
      "note": 55,
      "start": 16.5074,
      "duration": 0.1781,
      "velocity": 127,
      "chip": "ym2612"
    },
    {
      "channel": 0,
      "note": 74,
      "start": 16.7539,
      "duration": 0.2501,
      "velocity": 100,
      "chip": "ym2612"
    },
    {
      "channel": 1,
      "note": 54,
      "start": 16.754,
      "duration": 0.2501,
      "velocity": 102,
      "chip": "ym2612"
    },
    {
      "channel": 1,
      "note": 54,
      "start": 17.0041,
      "duration": 0.2527,
      "velocity": 102,
      "chip": "ym2612"
    },
    {
      "channel": 2,
      "note": 54,
      "start": 17.0042,
      "duration": 0.4314,
      "velocity": 91,
      "chip": "ym2612"
    },
    {
      "channel": 0,
      "note": 78,
      "start": 17.2567,
      "duration": 0.5001,
      "velocity": 100,
      "chip": "ym2612"
    },
    {
      "channel": 1,
      "note": 54,
      "start": 17.2568,
      "duration": 0.25,
      "velocity": 102,
      "chip": "ym2612"
    },
    {
      "channel": 4,
      "note": 36,
      "start": 17.2569,
      "duration": 0.112,
      "velocity": 101,
      "chip": "ym2612"
    },
    {
      "channel": 1,
      "note": 54,
      "start": 17.507,
      "duration": 0.2499,
      "velocity": 102,
      "chip": "ym2612"
    },
    {
      "channel": 2,
      "note": 54,
      "start": 17.507,
      "duration": 0.4285,
      "velocity": 91,
      "chip": "ym2612"
    },
    {
      "channel": 4,
      "note": 55,
      "start": 17.5071,
      "duration": 0.1784,
      "velocity": 127,
      "chip": "ym2612"
    },
    {
      "channel": 0,
      "note": 78,
      "start": 17.7568,
      "duration": 0.2516,
      "velocity": 100,
      "chip": "ym2612"
    },
    {
      "channel": 1,
      "note": 54,
      "start": 17.757,
      "duration": 0.2515,
      "velocity": 102,
      "chip": "ym2612"
    },
    {
      "channel": 4,
      "note": 36,
      "start": 17.757,
      "duration": 0.1118,
      "velocity": 101,
      "chip": "ym2612"
    },
    {
      "channel": 0,
      "note": 76,
      "start": 18.0084,
      "duration": 0.2455,
      "velocity": 100,
      "chip": "ym2612"
    },
    {
      "channel": 1,
      "note": 52,
      "start": 18.0085,
      "duration": 0.2454,
      "velocity": 102,
      "chip": "ym2612"
    },
    {
      "channel": 2,
      "note": 52,
      "start": 18.0086,
      "duration": 0.4269,
      "velocity": 91,
      "chip": "ym2612"
    },
    {
      "channel": 3,
      "note": 88,
      "start": 18.0088,
      "duration": 1.9999,
      "velocity": 97,
      "chip": "ym2612"
    },
    {
      "channel": 4,
      "note": 36,
      "start": 18.0088,
      "duration": 0.1102,
      "velocity": 101,
      "chip": "ym2612"
    },
    {
      "channel": 0,
      "note": 74,
      "start": 18.2539,
      "duration": 0.2532,
      "velocity": 100,
      "chip": "ym2612"
    },
    {
      "channel": 1,
      "note": 52,
      "start": 18.254,
      "duration": 0.2532,
      "velocity": 102,
      "chip": "ym2612"
    },
    {
      "channel": 1,
      "note": 52,
      "start": 18.5073,
      "duration": 0.2466,
      "velocity": 102,
      "chip": "ym2612"
    },
    {
      "channel": 2,
      "note": 52,
      "start": 18.5073,
      "duration": 0.4282,
      "velocity": 91,
      "chip": "ym2612"
    },
    {
      "channel": 4,
      "note": 55,
      "start": 18.5074,
      "duration": 0.1781,
      "velocity": 127,
      "chip": "ym2612"
    },
    {
      "channel": 0,
      "note": 73,
      "start": 18.7539,
      "duration": 0.2501,
      "velocity": 100,
      "chip": "ym2612"
    },
    {
      "channel": 1,
      "note": 52,
      "start": 18.754,
      "duration": 0.2501,
      "velocity": 102,
      "chip": "ym2612"
    },
    {
      "channel": 1,
      "note": 52,
      "start": 19.0041,
      "duration": 0.2527,
      "velocity": 102,
      "chip": "ym2612"
    },
    {
      "channel": 2,
      "note": 52,
      "start": 19.0042,
      "duration": 0.4314,
      "velocity": 91,
      "chip": "ym2612"
    },
    {
      "channel": 0,
      "note": 73,
      "start": 19.2567,
      "duration": 0.5001,
      "velocity": 100,
      "chip": "ym2612"
    },
    {
      "channel": 1,
      "note": 52,
      "start": 19.2568,
      "duration": 0.25,
      "velocity": 102,
      "chip": "ym2612"
    },
    {
      "channel": 4,
      "note": 36,
      "start": 19.2569,
      "duration": 0.112,
      "velocity": 101,
      "chip": "ym2612"
    },
    {
      "channel": 1,
      "note": 52,
      "start": 19.507,
      "duration": 0.2499,
      "velocity": 102,
      "chip": "ym2612"
    },
    {
      "channel": 2,
      "note": 52,
      "start": 19.507,
      "duration": 0.4285,
      "velocity": 91,
      "chip": "ym2612"
    },
    {
      "channel": 4,
      "note": 55,
      "start": 19.5071,
      "duration": 0.1784,
      "velocity": 127,
      "chip": "ym2612"
    },
    {
      "channel": 0,
      "note": 76,
      "start": 19.7568,
      "duration": 0.2516,
      "velocity": 100,
      "chip": "ym2612"
    },
    {
      "channel": 1,
      "note": 52,
      "start": 19.757,
      "duration": 0.2515,
      "velocity": 102,
      "chip": "ym2612"
    },
    {
      "channel": 4,
      "note": 36,
      "start": 19.757,
      "duration": 0.1118,
      "velocity": 101,
      "chip": "ym2612"
    },
    {
      "channel": 0,
      "note": 74,
      "start": 20.0085,
      "duration": 0.2454,
      "velocity": 100,
      "chip": "ym2612"
    },
    {
      "channel": 1,
      "note": 50,
      "start": 20.0085,
      "duration": 0.2454,
      "velocity": 102,
      "chip": "ym2612"
    },
    {
      "channel": 2,
      "note": 50,
      "start": 20.0086,
      "duration": 0.4269,
      "velocity": 91,
      "chip": "ym2612"
    },
    {
      "channel": 3,
      "note": 86,
      "start": 20.0088,
      "duration": 2.0001,
      "velocity": 97,
      "chip": "ym2612"
    },
    {
      "channel": 4,
      "note": 36,
      "start": 20.0088,
      "duration": 0.1101,
      "velocity": 101,
      "chip": "ym2612"
    },
    {
      "channel": 0,
      "note": 73,
      "start": 20.2539,
      "duration": 0.2532,
      "velocity": 100,
      "chip": "ym2612"
    },
    {
      "channel": 1,
      "note": 50,
      "start": 20.254,
      "duration": 0.2532,
      "velocity": 102,
      "chip": "ym2612"
    },
    {
      "channel": 1,
      "note": 50,
      "start": 20.5073,
      "duration": 0.2466,
      "velocity": 102,
      "chip": "ym2612"
    },
    {
      "channel": 2,
      "note": 50,
      "start": 20.5073,
      "duration": 0.4282,
      "velocity": 91,
      "chip": "ym2612"
    },
    {
      "channel": 4,
      "note": 55,
      "start": 20.5074,
      "duration": 0.1781,
      "velocity": 127,
      "chip": "ym2612"
    },
    {
      "channel": 0,
      "note": 71,
      "start": 20.7539,
      "duration": 0.2501,
      "velocity": 100,
      "chip": "ym2612"
    },
    {
      "channel": 1,
      "note": 50,
      "start": 20.754,
      "duration": 0.2501,
      "velocity": 102,
      "chip": "ym2612"
    },
    {
      "channel": 1,
      "note": 50,
      "start": 21.0041,
      "duration": 0.2527,
      "velocity": 102,
      "chip": "ym2612"
    },
    {
      "channel": 2,
      "note": 50,
      "start": 21.0042,
      "duration": 0.4314,
      "velocity": 91,
      "chip": "ym2612"
    },
    {
      "channel": 0,
      "note": 71,
      "start": 21.2567,
      "duration": 0.5001,
      "velocity": 100,
      "chip": "ym2612"
    },
    {
      "channel": 1,
      "note": 50,
      "start": 21.2568,
      "duration": 0.25,
      "velocity": 102,
      "chip": "ym2612"
    },
    {
      "channel": 4,
      "note": 36,
      "start": 21.2569,
      "duration": 0.112,
      "velocity": 101,
      "chip": "ym2612"
    },
    {
      "channel": 1,
      "note": 50,
      "start": 21.507,
      "duration": 0.2499,
      "velocity": 102,
      "chip": "ym2612"
    },
    {
      "channel": 2,
      "note": 50,
      "start": 21.507,
      "duration": 0.4285,
      "velocity": 91,
      "chip": "ym2612"
    },
    {
      "channel": 4,
      "note": 55,
      "start": 21.5071,
      "duration": 0.1784,
      "velocity": 127,
      "chip": "ym2612"
    },
    {
      "channel": 0,
      "note": 74,
      "start": 21.7568,
      "duration": 0.2517,
      "velocity": 100,
      "chip": "ym2612"
    },
    {
      "channel": 1,
      "note": 50,
      "start": 21.757,
      "duration": 0.2517,
      "velocity": 102,
      "chip": "ym2612"
    },
    {
      "channel": 4,
      "note": 36,
      "start": 21.757,
      "duration": 0.1118,
      "velocity": 101,
      "chip": "ym2612"
    },
    {
      "channel": 0,
      "note": 73,
      "start": 22.0086,
      "duration": 0.2478,
      "velocity": 100,
      "chip": "ym2612"
    },
    {
      "channel": 1,
      "note": 49,
      "start": 22.0087,
      "duration": 0.2478,
      "velocity": 102,
      "chip": "ym2612"
    },
    {
      "channel": 2,
      "note": 49,
      "start": 22.0088,
      "duration": 0.4268,
      "velocity": 91,
      "chip": "ym2612"
    },
    {
      "channel": 3,
      "note": 85,
      "start": 22.0089,
      "duration": 0.9995,
      "velocity": 97,
      "chip": "ym2612"
    },
    {
      "channel": 4,
      "note": 55,
      "start": 22.0089,
      "duration": 0.1766,
      "velocity": 127,
      "chip": "ym2612"
    },
    {
      "channel": 1,
      "note": 49,
      "start": 22.2566,
      "duration": 0.2477,
      "velocity": 102,
      "chip": "ym2612"
    },
    {
      "channel": 4,
      "note": 36,
      "start": 22.2566,
      "duration": 0.1122,
      "velocity": 101,
      "chip": "ym2612"
    },
    {
      "channel": 1,
      "note": 49,
      "start": 22.5043,
      "duration": 0.249,
      "velocity": 102,
      "chip": "ym2612"
    },
    {
      "channel": 2,
      "note": 49,
      "start": 22.5044,
      "duration": 0.4312,
      "velocity": 91,
      "chip": "ym2612"
    },
    {
      "channel": 4,
      "note": 36,
      "start": 22.5044,
      "duration": 0.1144,
      "velocity": 101,
      "chip": "ym2612"
    },
    {
      "channel": 1,
      "note": 49,
      "start": 22.7533,
      "duration": 0.2549,
      "velocity": 102,
      "chip": "ym2612"
    },
    {
      "channel": 0,
      "note": 69,
      "start": 23.0082,
      "duration": 0.2467,
      "velocity": 100,
      "chip": "ym2612"
    },
    {
      "channel": 1,
      "note": 45,
      "start": 23.0082,
      "duration": 0.2467,
      "velocity": 102,
      "chip": "ym2612"
    },
    {
      "channel": 2,
      "note": 45,
      "start": 23.0083,
      "duration": 0.4273,
      "velocity": 91,
      "chip": "ym2612"
    },
    {
      "channel": 3,
      "note": 81,
      "start": 23.0084,
      "duration": 1.0014,
      "velocity": 97,
      "chip": "ym2612"
    },
    {
      "channel": 4,
      "note": 55,
      "start": 23.0085,
      "duration": 0.177,
      "velocity": 127,
      "chip": "ym2612"
    },
    {
      "channel": 1,
      "note": 45,
      "start": 23.255,
      "duration": 0.2502,
      "velocity": 102,
      "chip": "ym2612"
    },
    {
      "channel": 4,
      "note": 55,
      "start": 23.2551,
      "duration": 0.1807,
      "velocity": 127,
      "chip": "ym2612"
    },
    {
      "channel": 1,
      "note": 45,
      "start": 23.5052,
      "duration": 0.2494,
      "velocity": 102,
      "chip": "ym2612"
    },
    {
      "channel": 2,
      "note": 45,
      "start": 23.5052,
      "duration": 0.4304,
      "velocity": 91,
      "chip": "ym2612"
    },
    {
      "channel": 4,
      "note": 55,
      "start": 23.5054,
      "duration": 0.1802,
      "velocity": 127,
      "chip": "ym2612"
    },
    {
      "channel": 1,
      "note": 45,
      "start": 23.7547,
      "duration": 0.255,
      "velocity": 102,
      "chip": "ym2612"
    },
    {
      "channel": 4,
      "note": 55,
      "start": 23.7547,
      "duration": 0.181,
      "velocity": 127,
      "chip": "ym2612"
    },
    {
      "channel": 0,
      "note": 78,
      "start": 24.0096,
      "duration": 0.2443,
      "velocity": 100,
      "chip": "ym2612"
    },
    {
      "channel": 1,
      "note": 54,
      "start": 24.0097,
      "duration": 0.2443,
      "velocity": 102,
      "chip": "ym2612"
    },
    {
      "channel": 2,
      "note": 54,
      "start": 24.0098,
      "duration": 0.4258,
      "velocity": 91,
      "chip": "ym2612"
    },
    {
      "channel": 3,
      "note": 90,
      "start": 24.0099,
      "duration": 1.9988,
      "velocity": 97,
      "chip": "ym2612"
    },
    {
      "channel": 4,
      "note": 36,
      "start": 24.01,
      "duration": 0.1089,
      "velocity": 101,
      "chip": "ym2612"
    },
    {
      "channel": 0,
      "note": 76,
      "start": 24.2539,
      "duration": 0.2532,
      "velocity": 100,
      "chip": "ym2612"
    },
    {
      "channel": 1,
      "note": 54,
      "start": 24.254,
      "duration": 0.2532,
      "velocity": 102,
      "chip": "ym2612"
    },
    {
      "channel": 1,
      "note": 54,
      "start": 24.5073,
      "duration": 0.2466,
      "velocity": 102,
      "chip": "ym2612"
    },
    {
      "channel": 2,
      "note": 54,
      "start": 24.5073,
      "duration": 0.4282,
      "velocity": 91,
      "chip": "ym2612"
    },
    {
      "channel": 4,
      "note": 55,
      "start": 24.5074,
      "duration": 0.1781,
      "velocity": 127,
      "chip": "ym2612"
    },
    {
      "channel": 0,
      "note": 74,
      "start": 24.7539,
      "duration": 0.2501,
      "velocity": 100,
      "chip": "ym2612"
    },
    {
      "channel": 1,
      "note": 54,
      "start": 24.754,
      "duration": 0.2501,
      "velocity": 102,
      "chip": "ym2612"
    },
    {
      "channel": 1,
      "note": 54,
      "start": 25.0041,
      "duration": 0.2527,
      "velocity": 102,
      "chip": "ym2612"
    },
    {
      "channel": 2,
      "note": 54,
      "start": 25.0042,
      "duration": 0.4314,
      "velocity": 91,
      "chip": "ym2612"
    },
    {
      "channel": 0,
      "note": 78,
      "start": 25.2567,
      "duration": 0.5001,
      "velocity": 100,
      "chip": "ym2612"
    },
    {
      "channel": 1,
      "note": 54,
      "start": 25.2568,
      "duration": 0.25,
      "velocity": 102,
      "chip": "ym2612"
    },
    {
      "channel": 4,
      "note": 36,
      "start": 25.2569,
      "duration": 0.112,
      "velocity": 101,
      "chip": "ym2612"
    },
    {
      "channel": 1,
      "note": 54,
      "start": 25.507,
      "duration": 0.2499,
      "velocity": 102,
      "chip": "ym2612"
    },
    {
      "channel": 2,
      "note": 54,
      "start": 25.507,
      "duration": 0.4285,
      "velocity": 91,
      "chip": "ym2612"
    },
    {
      "channel": 4,
      "note": 55,
      "start": 25.5071,
      "duration": 0.1784,
      "velocity": 127,
      "chip": "ym2612"
    },
    {
      "channel": 0,
      "note": 78,
      "start": 25.7568,
      "duration": 0.2516,
      "velocity": 100,
      "chip": "ym2612"
    },
    {
      "channel": 1,
      "note": 54,
      "start": 25.757,
      "duration": 0.2515,
      "velocity": 102,
      "chip": "ym2612"
    },
    {
      "channel": 4,
      "note": 36,
      "start": 25.757,
      "duration": 0.1118,
      "velocity": 101,
      "chip": "ym2612"
    },
    {
      "channel": 0,
      "note": 76,
      "start": 26.0084,
      "duration": 0.2455,
      "velocity": 100,
      "chip": "ym2612"
    },
    {
      "channel": 1,
      "note": 52,
      "start": 26.0085,
      "duration": 0.2454,
      "velocity": 102,
      "chip": "ym2612"
    },
    {
      "channel": 2,
      "note": 52,
      "start": 26.0086,
      "duration": 0.4269,
      "velocity": 91,
      "chip": "ym2612"
    },
    {
      "channel": 3,
      "note": 88,
      "start": 26.0088,
      "duration": 1.9999,
      "velocity": 97,
      "chip": "ym2612"
    },
    {
      "channel": 4,
      "note": 36,
      "start": 26.0088,
      "duration": 0.1101,
      "velocity": 101,
      "chip": "ym2612"
    },
    {
      "channel": 0,
      "note": 74,
      "start": 26.2539,
      "duration": 0.2532,
      "velocity": 100,
      "chip": "ym2612"
    },
    {
      "channel": 1,
      "note": 52,
      "start": 26.254,
      "duration": 0.2532,
      "velocity": 102,
      "chip": "ym2612"
    },
    {
      "channel": 1,
      "note": 52,
      "start": 26.5073,
      "duration": 0.2466,
      "velocity": 102,
      "chip": "ym2612"
    },
    {
      "channel": 2,
      "note": 52,
      "start": 26.5073,
      "duration": 0.4282,
      "velocity": 91,
      "chip": "ym2612"
    },
    {
      "channel": 4,
      "note": 55,
      "start": 26.5074,
      "duration": 0.1781,
      "velocity": 127,
      "chip": "ym2612"
    },
    {
      "channel": 0,
      "note": 73,
      "start": 26.7539,
      "duration": 0.2501,
      "velocity": 100,
      "chip": "ym2612"
    },
    {
      "channel": 1,
      "note": 52,
      "start": 26.754,
      "duration": 0.2501,
      "velocity": 102,
      "chip": "ym2612"
    },
    {
      "channel": 1,
      "note": 52,
      "start": 27.0041,
      "duration": 0.2527,
      "velocity": 102,
      "chip": "ym2612"
    },
    {
      "channel": 2,
      "note": 52,
      "start": 27.0042,
      "duration": 0.4314,
      "velocity": 91,
      "chip": "ym2612"
    },
    {
      "channel": 0,
      "note": 73,
      "start": 27.2567,
      "duration": 0.5001,
      "velocity": 100,
      "chip": "ym2612"
    },
    {
      "channel": 1,
      "note": 52,
      "start": 27.2568,
      "duration": 0.25,
      "velocity": 102,
      "chip": "ym2612"
    },
    {
      "channel": 4,
      "note": 36,
      "start": 27.2569,
      "duration": 0.112,
      "velocity": 101,
      "chip": "ym2612"
    },
    {
      "channel": 1,
      "note": 52,
      "start": 27.507,
      "duration": 0.2499,
      "velocity": 102,
      "chip": "ym2612"
    },
    {
      "channel": 2,
      "note": 52,
      "start": 27.507,
      "duration": 0.4285,
      "velocity": 91,
      "chip": "ym2612"
    },
    {
      "channel": 4,
      "note": 55,
      "start": 27.5071,
      "duration": 0.1784,
      "velocity": 127,
      "chip": "ym2612"
    },
    {
      "channel": 0,
      "note": 76,
      "start": 27.7568,
      "duration": 0.2516,
      "velocity": 100,
      "chip": "ym2612"
    },
    {
      "channel": 1,
      "note": 52,
      "start": 27.757,
      "duration": 0.2515,
      "velocity": 102,
      "chip": "ym2612"
    },
    {
      "channel": 4,
      "note": 36,
      "start": 27.757,
      "duration": 0.1118,
      "velocity": 101,
      "chip": "ym2612"
    },
    {
      "channel": 0,
      "note": 74,
      "start": 28.0085,
      "duration": 0.2454,
      "velocity": 100,
      "chip": "ym2612"
    },
    {
      "channel": 1,
      "note": 50,
      "start": 28.0085,
      "duration": 0.2454,
      "velocity": 102,
      "chip": "ym2612"
    },
    {
      "channel": 2,
      "note": 50,
      "start": 28.0086,
      "duration": 0.4269,
      "velocity": 91,
      "chip": "ym2612"
    },
    {
      "channel": 3,
      "note": 86,
      "start": 28.0088,
      "duration": 2.0001,
      "velocity": 97,
      "chip": "ym2612"
    },
    {
      "channel": 4,
      "note": 36,
      "start": 28.0088,
      "duration": 0.1101,
      "velocity": 101,
      "chip": "ym2612"
    },
    {
      "channel": 0,
      "note": 73,
      "start": 28.2539,
      "duration": 0.2532,
      "velocity": 100,
      "chip": "ym2612"
    },
    {
      "channel": 1,
      "note": 50,
      "start": 28.254,
      "duration": 0.2532,
      "velocity": 102,
      "chip": "ym2612"
    },
    {
      "channel": 1,
      "note": 50,
      "start": 28.5073,
      "duration": 0.2466,
      "velocity": 102,
      "chip": "ym2612"
    },
    {
      "channel": 2,
      "note": 50,
      "start": 28.5073,
      "duration": 0.4282,
      "velocity": 91,
      "chip": "ym2612"
    },
    {
      "channel": 4,
      "note": 55,
      "start": 28.5074,
      "duration": 0.1781,
      "velocity": 127,
      "chip": "ym2612"
    },
    {
      "channel": 0,
      "note": 71,
      "start": 28.7539,
      "duration": 0.2501,
      "velocity": 100,
      "chip": "ym2612"
    },
    {
      "channel": 1,
      "note": 50,
      "start": 28.754,
      "duration": 0.2501,
      "velocity": 102,
      "chip": "ym2612"
    },
    {
      "channel": 1,
      "note": 50,
      "start": 29.0041,
      "duration": 0.2527,
      "velocity": 102,
      "chip": "ym2612"
    },
    {
      "channel": 2,
      "note": 50,
      "start": 29.0042,
      "duration": 0.4314,
      "velocity": 91,
      "chip": "ym2612"
    },
    {
      "channel": 0,
      "note": 71,
      "start": 29.2567,
      "duration": 0.5001,
      "velocity": 100,
      "chip": "ym2612"
    },
    {
      "channel": 1,
      "note": 50,
      "start": 29.2568,
      "duration": 0.25,
      "velocity": 102,
      "chip": "ym2612"
    },
    {
      "channel": 4,
      "note": 36,
      "start": 29.2569,
      "duration": 0.112,
      "velocity": 101,
      "chip": "ym2612"
    },
    {
      "channel": 1,
      "note": 50,
      "start": 29.507,
      "duration": 0.2499,
      "velocity": 102,
      "chip": "ym2612"
    },
    {
      "channel": 2,
      "note": 50,
      "start": 29.507,
      "duration": 0.4285,
      "velocity": 91,
      "chip": "ym2612"
    },
    {
      "channel": 4,
      "note": 55,
      "start": 29.5071,
      "duration": 0.1784,
      "velocity": 127,
      "chip": "ym2612"
    },
    {
      "channel": 0,
      "note": 74,
      "start": 29.7568,
      "duration": 0.2517,
      "velocity": 100,
      "chip": "ym2612"
    },
    {
      "channel": 1,
      "note": 50,
      "start": 29.757,
      "duration": 0.2517,
      "velocity": 102,
      "chip": "ym2612"
    },
    {
      "channel": 4,
      "note": 36,
      "start": 29.757,
      "duration": 0.1118,
      "velocity": 101,
      "chip": "ym2612"
    },
    {
      "channel": 0,
      "note": 73,
      "start": 30.0086,
      "duration": 0.2478,
      "velocity": 100,
      "chip": "ym2612"
    },
    {
      "channel": 1,
      "note": 49,
      "start": 30.0087,
      "duration": 0.2478,
      "velocity": 102,
      "chip": "ym2612"
    },
    {
      "channel": 2,
      "note": 49,
      "start": 30.0088,
      "duration": 0.4268,
      "velocity": 91,
      "chip": "ym2612"
    },
    {
      "channel": 3,
      "note": 85,
      "start": 30.0089,
      "duration": 0.9995,
      "velocity": 97,
      "chip": "ym2612"
    },
    {
      "channel": 4,
      "note": 55,
      "start": 30.0089,
      "duration": 0.1766,
      "velocity": 127,
      "chip": "ym2612"
    },
    {
      "channel": 1,
      "note": 49,
      "start": 30.2566,
      "duration": 0.2477,
      "velocity": 102,
      "chip": "ym2612"
    },
    {
      "channel": 4,
      "note": 36,
      "start": 30.2566,
      "duration": 0.1122,
      "velocity": 101,
      "chip": "ym2612"
    },
    {
      "channel": 1,
      "note": 49,
      "start": 30.5043,
      "duration": 0.249,
      "velocity": 102,
      "chip": "ym2612"
    },
    {
      "channel": 2,
      "note": 49,
      "start": 30.5044,
      "duration": 0.4312,
      "velocity": 91,
      "chip": "ym2612"
    },
    {
      "channel": 4,
      "note": 36,
      "start": 30.5044,
      "duration": 0.1144,
      "velocity": 101,
      "chip": "ym2612"
    },
    {
      "channel": 1,
      "note": 49,
      "start": 30.7533,
      "duration": 0.2549,
      "velocity": 102,
      "chip": "ym2612"
    },
    {
      "channel": 0,
      "note": 69,
      "start": 31.0082,
      "duration": 0.2467,
      "velocity": 100,
      "chip": "ym2612"
    },
    {
      "channel": 1,
      "note": 45,
      "start": 31.0082,
      "duration": 0.2467,
      "velocity": 102,
      "chip": "ym2612"
    },
    {
      "channel": 2,
      "note": 45,
      "start": 31.0083,
      "duration": 0.4273,
      "velocity": 91,
      "chip": "ym2612"
    },
    {
      "channel": 3,
      "note": 81,
      "start": 31.0084,
      "duration": 1.0022,
      "velocity": 97,
      "chip": "ym2612"
    },
    {
      "channel": 4,
      "note": 55,
      "start": 31.0085,
      "duration": 0.177,
      "velocity": 127,
      "chip": "ym2612"
    },
    {
      "channel": 1,
      "note": 45,
      "start": 31.255,
      "duration": 0.2502,
      "velocity": 102,
      "chip": "ym2612"
    },
    {
      "channel": 4,
      "note": 55,
      "start": 31.2551,
      "duration": 0.1807,
      "velocity": 127,
      "chip": "ym2612"
    },
    {
      "channel": 1,
      "note": 45,
      "start": 31.5052,
      "duration": 0.2494,
      "velocity": 102,
      "chip": "ym2612"
    },
    {
      "channel": 2,
      "note": 45,
      "start": 31.5052,
      "duration": 0.4304,
      "velocity": 91,
      "chip": "ym2612"
    },
    {
      "channel": 4,
      "note": 55,
      "start": 31.5054,
      "duration": 0.1802,
      "velocity": 127,
      "chip": "ym2612"
    },
    {
      "channel": 1,
      "note": 45,
      "start": 31.7547,
      "duration": 0.2557,
      "velocity": 102,
      "chip": "ym2612"
    },
    {
      "channel": 4,
      "note": 55,
      "start": 31.7547,
      "duration": 0.181,
      "velocity": 127,
      "chip": "ym2612"
    },
    {
      "channel": 0,
      "note": 69,
      "start": 32.0103,
      "duration": 0.2437,
      "velocity": 100,
      "chip": "ym2612"
    },
    {
      "channel": 1,
      "note": 57,
      "start": 32.0105,
      "duration": 0.2437,
      "velocity": 102,
      "chip": "ym2612"
    },
    {
      "channel": 2,
      "note": 57,
      "start": 32.0105,
      "duration": 0.425,
      "velocity": 91,
      "chip": "ym2612"
    },
    {
      "channel": 3,
      "note": 81,
      "start": 32.0107,
      "duration": 0.9875,
      "velocity": 97,
      "chip": "ym2612"
    },
    {
      "channel": 4,
      "note": 36,
      "start": 32.0107,
      "duration": 0.1081,
      "velocity": 101,
      "chip": "ym2612"
    },
    {
      "channel": 0,
      "note": 64,
      "start": 32.254,
      "duration": 0.2509,
      "velocity": 100,
      "chip": "ym2612"
    },
    {
      "channel": 1,
      "note": 57,
      "start": 32.2542,
      "duration": 0.2507,
      "velocity": 102,
      "chip": "ym2612"
    },
    {
      "channel": 1,
      "note": 57,
      "start": 32.505,
      "duration": 0.249,
      "velocity": 102,
      "chip": "ym2612"
    },
    {
      "channel": 2,
      "note": 57,
      "start": 32.5051,
      "duration": 0.4305,
      "velocity": 91,
      "chip": "ym2612"
    },
    {
      "channel": 4,
      "note": 36,
      "start": 32.5052,
      "duration": 0.1137,
      "velocity": 101,
      "chip": "ym2612"
    },
    {
      "channel": 0,
      "note": 76,
      "start": 32.754,
      "duration": 0.2442,
      "velocity": 100,
      "chip": "ym2612"
    },
    {
      "channel": 1,
      "note": 57,
      "start": 32.754,
      "duration": 0.2441,
      "velocity": 102,
      "chip": "ym2612"
    }
  ]
}