{
  "track_name": "12 - Round 5-1",
  "duration_sec": 154.104,
  "sample_rate": 44100,
  "note_count": 2140,
  "unique_pitches": 26,
  "pitch_range": 52,
  "avg_note_duration": 0.3025,
  "reconstruction_stats": {
    "notes_reconstructed": 2140,
    "keyon_events": 2140,
    "keyoff_events": 2136,
    "orphan_keyons": 4,
    "unique_pitches": 26,
    "pitch_range": 52,
    "avg_duration_sec": 0.3025
  },
  "metadata": {
    "source": "E\\Eliminate Down\\12 - Round 5-1.vgm"
  },
  "notes": [
    {
      "channel": 1,
      "note": 54,
      "start": 0.0,
      "duration": 0.2659,
      "velocity": 101,
      "chip": "ym2612"
    },
    {
      "channel": 3,
      "note": 45,
      "start": 0.0034,
      "duration": 1.0462,
      "velocity": 127,
      "chip": "ym2612"
    },
    {
      "channel": 4,
      "note": 33,
      "start": 0.0051,
      "duration": 1.0446,
      "velocity": 127,
      "chip": "ym2612"
    },
    {
      "channel": 5,
      "note": 54,
      "start": 0.0067,
      "duration": 2.0798,
      "velocity": 91,
      "chip": "ym2612"
    },
    {
      "channel": 1,
      "note": 72,
      "start": 0.2913,
      "duration": 0.2784,
      "velocity": 101,
      "chip": "ym2612"
    },
    {
      "channel": 2,
      "note": 54,
      "start": 0.2918,
      "duration": 0.278,
      "velocity": 101,
      "chip": "ym2612"
    },
    {
      "channel": 1,
      "note": 71,
      "start": 0.5946,
      "duration": 1.7443,
      "velocity": 101,
      "chip": "ym2612"
    },
    {
      "channel": 2,
      "note": 72,
      "start": 0.5948,
      "duration": 0.2779,
      "velocity": 101,
      "chip": "ym2612"
    },
    {
      "channel": 2,
      "note": 71,
      "start": 0.898,
      "duration": 1.7442,
      "velocity": 101,
      "chip": "ym2612"
    },
    {
      "channel": 3,
      "note": 45,
      "start": 2.1114,
      "duration": 0.278,
      "velocity": 127,
      "chip": "ym2612"
    },
    {
      "channel": 4,
      "note": 33,
      "start": 2.1116,
      "duration": 0.278,
      "velocity": 127,
      "chip": "ym2612"
    },
    {
      "channel": 5,
      "note": 54,
      "start": 2.1117,
      "duration": 0.278,
      "velocity": 91,
      "chip": "ym2612"
    },
    {
      "channel": 1,
      "note": 54,
      "start": 2.4148,
      "duration": 0.278,
      "velocity": 101,
      "chip": "ym2612"
    },
    {
      "channel": 3,
      "note": 45,
      "start": 2.4149,
      "duration": 1.0615,
      "velocity": 127,
      "chip": "ym2612"
    },
    {
      "channel": 4,
      "note": 33,
      "start": 2.4151,
      "duration": 1.0615,
      "velocity": 127,
      "chip": "ym2612"
    },
    {
      "channel": 5,
      "note": 54,
      "start": 2.4152,
      "duration": 2.0978,
      "velocity": 91,
      "chip": "ym2612"
    },
    {
      "channel": 1,
      "note": 72,
      "start": 2.7181,
      "duration": 0.278,
      "velocity": 101,
      "chip": "ym2612"
    },
    {
      "channel": 2,
      "note": 54,
      "start": 2.7183,
      "duration": 0.278,
      "velocity": 101,
      "chip": "ym2612"
    },
    {
      "channel": 1,
      "note": 71,
      "start": 3.0215,
      "duration": 0.278,
      "velocity": 101,
      "chip": "ym2612"
    },
    {
      "channel": 2,
      "note": 72,
      "start": 3.0217,
      "duration": 0.278,
      "velocity": 101,
      "chip": "ym2612"
    },
    {
      "channel": 1,
      "note": 66,
      "start": 3.3249,
      "duration": 1.4915,
      "velocity": 101,
      "chip": "ym2612"
    },
    {
      "channel": 2,
      "note": 71,
      "start": 3.325,
      "duration": 0.2781,
      "velocity": 101,
      "chip": "ym2612"
    },
    {
      "channel": 2,
      "note": 66,
      "start": 3.6282,
      "duration": 1.4917,
      "velocity": 101,
      "chip": "ym2612"
    },
    {
      "channel": 3,
      "note": 45,
      "start": 4.5383,
      "duration": 0.2782,
      "velocity": 127,
      "chip": "ym2612"
    },
    {
      "channel": 4,
      "note": 33,
      "start": 4.5385,
      "duration": 0.2781,
      "velocity": 127,
      "chip": "ym2612"
    },
    {
      "channel": 5,
      "note": 54,
      "start": 4.5386,
      "duration": 0.2781,
      "velocity": 91,
      "chip": "ym2612"
    },
    {
      "channel": 1,
      "note": 54,
      "start": 4.8417,
      "duration": 0.2782,
      "velocity": 101,
      "chip": "ym2612"
    },
    {
      "channel": 3,
      "note": 45,
      "start": 4.8418,
      "duration": 1.0617,
      "velocity": 127,
      "chip": "ym2612"
    },
    {
      "channel": 4,
      "note": 33,
      "start": 4.8419,
      "duration": 1.0616,
      "velocity": 127,
      "chip": "ym2612"
    },
    {
      "channel": 5,
      "note": 54,
      "start": 4.842,
      "duration": 2.0978,
      "velocity": 91,
      "chip": "ym2612"
    },
    {
      "channel": 1,
      "note": 72,
      "start": 5.145,
      "duration": 0.278,
      "velocity": 101,
      "chip": "ym2612"
    },
    {
      "channel": 2,
      "note": 54,
      "start": 5.1452,
      "duration": 0.2779,
      "velocity": 101,
      "chip": "ym2612"
    },
    {
      "channel": 1,
      "note": 71,
      "start": 5.4484,
      "duration": 1.7443,
      "velocity": 101,
      "chip": "ym2612"
    },
    {
      "channel": 2,
      "note": 72,
      "start": 5.4486,
      "duration": 0.2778,
      "velocity": 101,
      "chip": "ym2612"
    },
    {
      "channel": 2,
      "note": 71,
      "start": 5.7518,
      "duration": 1.7443,
      "velocity": 101,
      "chip": "ym2612"
    },
    {
      "channel": 3,
      "note": 45,
      "start": 6.9652,
      "duration": 0.278,
      "velocity": 127,
      "chip": "ym2612"
    },
    {
      "channel": 4,
      "note": 33,
      "start": 6.9654,
      "duration": 0.278,
      "velocity": 127,
      "chip": "ym2612"
    },
    {
      "channel": 5,
      "note": 54,
      "start": 6.9655,
      "duration": 0.278,
      "velocity": 91,
      "chip": "ym2612"
    },
    {
      "channel": 1,
      "note": 54,
      "start": 7.2685,
      "duration": 0.278,
      "velocity": 101,
      "chip": "ym2612"
    },
    {
      "channel": 3,
      "note": 45,
      "start": 7.2687,
      "duration": 2.1235,
      "velocity": 127,
      "chip": "ym2612"
    },
    {
      "channel": 5,
      "note": 54,
      "start": 7.2688,
      "duration": 0.2779,
      "velocity": 91,
      "chip": "ym2612"
    },
    {
      "channel": 1,
      "note": 72,
      "start": 7.5719,
      "duration": 0.278,
      "velocity": 101,
      "chip": "ym2612"
    },
    {
      "channel": 2,
      "note": 54,
      "start": 7.5721,
      "duration": 0.278,
      "velocity": 101,
      "chip": "ym2612"
    },
    {
      "channel": 4,
      "note": 33,
      "start": 7.5722,
      "duration": 0.278,
      "velocity": 127,
      "chip": "ym2612"
    },
    {
      "channel": 5,
      "note": 54,
      "start": 7.5724,
      "duration": 0.278,
      "velocity": 91,
      "chip": "ym2612"
    },
    {
      "channel": 1,
      "note": 71,
      "start": 7.8753,
      "duration": 0.278,
      "velocity": 101,
      "chip": "ym2612"
    },
    {
      "channel": 2,
      "note": 72,
      "start": 7.8755,
      "duration": 0.2779,
      "velocity": 101,
      "chip": "ym2612"
    },
    {
      "channel": 4,
      "note": 33,
      "start": 7.8756,
      "duration": 0.278,
      "velocity": 127,
      "chip": "ym2612"
    },
    {
      "channel": 5,
      "note": 54,
      "start": 7.8757,
      "duration": 0.278,
      "velocity": 91,
      "chip": "ym2612"
    },
    {
      "channel": 1,
      "note": 66,
      "start": 8.1787,
      "duration": 0.8088,
      "velocity": 101,
      "chip": "ym2612"
    },
    {
      "channel": 2,
      "note": 71,
      "start": 8.1789,
      "duration": 0.2778,
      "velocity": 101,
      "chip": "ym2612"
    },
    {
      "channel": 4,
      "note": 33,
      "start": 8.179,
      "duration": 0.2778,
      "velocity": 127,
      "chip": "ym2612"
    },
    {
      "channel": 5,
      "note": 54,
      "start": 8.1791,
      "duration": 0.2778,
      "velocity": 91,
      "chip": "ym2612"
    },
    {
      "channel": 2,
      "note": 66,
      "start": 8.482,
      "duration": 0.8089,
      "velocity": 101,
      "chip": "ym2612"
    },
    {
      "channel": 4,
      "note": 33,
      "start": 8.4822,
      "duration": 0.2779,
      "velocity": 127,
      "chip": "ym2612"
    },
    {
      "channel": 5,
      "note": 54,
      "start": 8.4823,
      "duration": 0.2779,
      "velocity": 91,
      "chip": "ym2612"
    },
    {
      "channel": 4,
      "note": 33,
      "start": 8.7854,
      "duration": 0.278,
      "velocity": 127,
      "chip": "ym2612"
    },
    {
      "channel": 5,
      "note": 54,
      "start": 8.7855,
      "duration": 0.2781,
      "velocity": 91,
      "chip": "ym2612"
    },
    {
      "channel": 1,
      "note": 69,
      "start": 9.0888,
      "duration": 0.531,
      "velocity": 101,
      "chip": "ym2612"
    },
    {
      "channel": 4,
      "note": 33,
      "start": 9.0889,
      "duration": 0.2779,
      "velocity": 127,
      "chip": "ym2612"
    },
    {
      "channel": 5,
      "note": 54,
      "start": 9.089,
      "duration": 0.2778,
      "velocity": 91,
      "chip": "ym2612"
    },
    {
      "channel": 2,
      "note": 69,
      "start": 9.3921,
      "duration": 0.278,
      "velocity": 101,
      "chip": "ym2612"
    },
    {
      "channel": 4,
      "note": 64,
      "start": 9.3939,
      "duration": 0.0993,
      "velocity": 127,
      "chip": "ym2612"
    },
    {
      "channel": 5,
      "note": 54,
      "start": 9.394,
      "duration": 0.2763,
      "velocity": 91,
      "chip": "ym2612"
    },
    {
      "channel": 4,
      "note": 61,
      "start": 9.4933,
      "duration": 0.101,
      "velocity": 127,
      "chip": "ym2612"
    },
    {
      "channel": 4,
      "note": 57,
      "start": 9.5944,
      "duration": 0.1058,
      "velocity": 127,
      "chip": "ym2612"
    },
    {
      "channel": 1,
      "note": 54,
      "start": 9.6969,
      "duration": 0.2254,
      "velocity": 100,
      "chip": "ym2612"
    },
    {
      "channel": 2,
      "note": 54,
      "start": 9.6986,
      "duration": 0.2239,
      "velocity": 117,
      "chip": "ym2612"
    },
    {
      "channel": 3,
      "note": 45,
      "start": 9.6987,
      "duration": 1.6956,
      "velocity": 127,
      "chip": "ym2612"
    },
    {
      "channel": 4,
      "note": 33,
      "start": 9.7004,
      "duration": 0.2221,
      "velocity": 127,
      "chip": "ym2612"
    },
    {
      "channel": 5,
      "note": 54,
      "start": 9.7005,
      "duration": 0.2222,
      "velocity": 91,
      "chip": "ym2612"
    },
    {
      "channel": 1,
      "note": 72,
      "start": 9.9425,
      "duration": 0.2217,
      "velocity": 100,
      "chip": "ym2612"
    },
    {
      "channel": 2,
      "note": 72,
      "start": 9.9427,
      "duration": 0.2218,
      "velocity": 117,
      "chip": "ym2612"
    },
    {
      "channel": 4,
      "note": 33,
      "start": 9.9429,
      "duration": 0.2217,
      "velocity": 127,
      "chip": "ym2612"
    },
    {
      "channel": 5,
      "note": 54,
      "start": 9.943,
      "duration": 0.2217,
      "velocity": 91,
      "chip": "ym2612"
    },
    {
      "channel": 1,
      "note": 71,
      "start": 10.1845,
      "duration": 1.3912,
      "velocity": 100,
      "chip": "ym2612"
    },
    {
      "channel": 2,
      "note": 71,
      "start": 10.1847,
      "duration": 1.3912,
      "velocity": 117,
      "chip": "ym2612"
    },
    {
      "channel": 4,
      "note": 33,
      "start": 10.1848,
      "duration": 0.2215,
      "velocity": 127,
      "chip": "ym2612"
    },
    {
      "channel": 5,
      "note": 54,
      "start": 10.185,
      "duration": 0.2214,
      "velocity": 91,
      "chip": "ym2612"
    },
    {
      "channel": 4,
      "note": 33,
      "start": 10.4264,
      "duration": 0.2218,
      "velocity": 127,
      "chip": "ym2612"
    },
    {
      "channel": 5,
      "note": 54,
      "start": 10.4266,
      "duration": 0.2218,
      "velocity": 91,
      "chip": "ym2612"
    },
    {
      "channel": 4,
      "note": 33,
      "start": 10.6684,
      "duration": 0.2217,
      "velocity": 127,
      "chip": "ym2612"
    },
    {
      "channel": 5,
      "note": 54,
      "start": 10.6685,
      "duration": 0.2218,
      "velocity": 91,
      "chip": "ym2612"
    },
    {
      "channel": 4,
      "note": 33,
      "start": 10.9103,
      "duration": 0.2218,
      "velocity": 127,
      "chip": "ym2612"
    },
    {
      "channel": 5,
      "note": 54,
      "start": 10.9105,
      "duration": 0.2218,
      "velocity": 91,
      "chip": "ym2612"
    },
    {
      "channel": 4,
      "note": 33,
      "start": 11.1524,
      "duration": 0.2217,
      "velocity": 127,
      "chip": "ym2612"
    },
    {
      "channel": 5,
      "note": 54,
      "start": 11.1526,
      "duration": 0.2217,
      "velocity": 91,
      "chip": "ym2612"
    },
    {
      "channel": 4,
      "note": 64,
      "start": 11.396,
      "duration": 0.0789,
      "velocity": 127,
      "chip": "ym2612"
    },
    {
      "channel": 5,
      "note": 54,
      "start": 11.3962,
      "duration": 0.22,
      "velocity": 91,
      "chip": "ym2612"
    },
    {
      "channel": 4,
      "note": 61,
      "start": 11.475,
      "duration": 0.0806,
      "velocity": 127,
      "chip": "ym2612"
    },
    {
      "channel": 4,
      "note": 57,
      "start": 11.5558,
      "duration": 0.0827,
      "velocity": 127,
      "chip": "ym2612"
    },
    {
      "channel": 1,
      "note": 54,
      "start": 11.6366,
      "duration": 0.2215,
      "velocity": 100,
      "chip": "ym2612"
    },
    {
      "channel": 2,
      "note": 54,
      "start": 11.6368,
      "duration": 0.2214,
      "velocity": 117,
      "chip": "ym2612"
    },
    {
      "channel": 3,
      "note": 45,
      "start": 11.6369,
      "duration": 1.6931,
      "velocity": 127,
      "chip": "ym2612"
    },
    {
      "channel": 4,
      "note": 33,
      "start": 11.6386,
      "duration": 0.2197,
      "velocity": 127,
      "chip": "ym2612"
    },
    {
      "channel": 5,
      "note": 54,
      "start": 11.6387,
      "duration": 0.2197,
      "velocity": 91,
      "chip": "ym2612"
    },
    {
      "channel": 1,
      "note": 72,
      "start": 11.8783,
      "duration": 0.2218,
      "velocity": 100,
      "chip": "ym2612"
    },
    {
      "channel": 2,
      "note": 72,
      "start": 11.8785,
      "duration": 0.2217,
      "velocity": 117,
      "chip": "ym2612"
    },
    {
      "channel": 4,
      "note": 33,
      "start": 11.8786,
      "duration": 0.2217,
      "velocity": 127,
      "chip": "ym2612"
    },
    {
      "channel": 5,
      "note": 54,
      "start": 11.8787,
      "duration": 0.2217,
      "velocity": 91,
      "chip": "ym2612"
    },
    {
      "channel": 1,
      "note": 71,
      "start": 12.1203,
      "duration": 0.2217,
      "velocity": 100,
      "chip": "ym2612"
    },
    {
      "channel": 2,
      "note": 71,
      "start": 12.1205,
      "duration": 0.2216,
      "velocity": 117,
      "chip": "ym2612"
    },
    {
      "channel": 4,
      "note": 33,
      "start": 12.1206,
      "duration": 0.2217,
      "velocity": 127,
      "chip": "ym2612"
    },
    {
      "channel": 5,
      "note": 54,
      "start": 12.1207,
      "duration": 0.2217,
      "velocity": 91,
      "chip": "ym2612"
    },
    {
      "channel": 1,
      "note": 66,
      "start": 12.3622,
      "duration": 1.1896,
      "velocity": 100,
      "chip": "ym2612"
    },
    {
      "channel": 2,
      "note": 66,
      "start": 12.3624,
      "duration": 1.1896,
      "velocity": 117,
      "chip": "ym2612"
    },
    {
      "channel": 4,
      "note": 33,
      "start": 12.3625,
      "duration": 0.2215,
      "velocity": 127,
      "chip": "ym2612"
    },
    {
      "channel": 5,
      "note": 54,
      "start": 12.3626,
      "duration": 0.2215,
      "velocity": 91,
      "chip": "ym2612"
    },
    {
      "channel": 4,
      "note": 33,
      "start": 12.6041,
      "duration": 0.2218,
      "velocity": 127,
      "chip": "ym2612"
    },
    {
      "channel": 5,
      "note": 54,
      "start": 12.6042,
      "duration": 0.2218,
      "velocity": 91,
      "chip": "ym2612"
    },
    {
      "channel": 4,
      "note": 33,
      "start": 12.8461,
      "duration": 0.2218,
      "velocity": 127,
      "chip": "ym2612"
    },
    {
      "channel": 5,
      "note": 54,
      "start": 12.8462,
      "duration": 0.2218,
      "velocity": 91,
      "chip": "ym2612"
    },
    {
      "channel": 4,
      "note": 33,
      "start": 13.0881,
      "duration": 0.2218,
      "velocity": 127,
      "chip": "ym2612"
    },
    {
      "channel": 5,
      "note": 54,
      "start": 13.0883,
      "duration": 0.2217,
      "velocity": 91,
      "chip": "ym2612"
    },
    {
      "channel": 4,
      "note": 64,
      "start": 13.3317,
      "duration": 0.0789,
      "velocity": 127,
      "chip": "ym2612"
    },
    {
      "channel": 5,
      "note": 54,
      "start": 13.3319,
      "duration": 0.2202,
      "velocity": 91,
      "chip": "ym2612"
    },
    {
      "channel": 4,
      "note": 61,
      "start": 13.4108,
      "duration": 0.0805,
      "velocity": 127,
      "chip": "ym2612"
    },
    {
      "channel": 4,
      "note": 57,
      "start": 13.4915,
      "duration": 0.0824,
      "velocity": 127,
      "chip": "ym2612"
    },
    {
      "channel": 1,
      "note": 54,
      "start": 13.5721,
      "duration": 0.2217,
      "velocity": 100,
      "chip": "ym2612"
    },
    {
      "channel": 2,
      "note": 54,
      "start": 13.5722,
      "duration": 0.2217,
      "velocity": 117,
      "chip": "ym2612"
    },
    {
      "channel": 3,
      "note": 45,
      "start": 13.5724,
      "duration": 1.6934,
      "velocity": 127,
      "chip": "ym2612"
    },
    {
      "channel": 4,
      "note": 33,
      "start": 13.5741,
      "duration": 0.22,
      "velocity": 127,
      "chip": "ym2612"
    },
    {
      "channel": 5,
      "note": 54,
      "start": 13.5742,
      "duration": 0.22,
      "velocity": 91,
      "chip": "ym2612"
    },
    {
      "channel": 1,
      "note": 72,
      "start": 13.814,
      "duration": 0.2218,
      "velocity": 100,
      "chip": "ym2612"
    },
    {
      "channel": 2,
      "note": 72,
      "start": 13.8142,
      "duration": 0.2217,
      "velocity": 117,
      "chip": "ym2612"
    },
    {
      "channel": 4,
      "note": 33,
      "start": 13.8143,
      "duration": 0.2221,
      "velocity": 127,
      "chip": "ym2612"
    },
    {
      "channel": 5,
      "note": 54,
      "start": 13.8144,
      "duration": 0.2221,
      "velocity": 91,
      "chip": "ym2612"
    },
    {
      "channel": 1,
      "note": 71,
      "start": 14.056,
      "duration": 1.3912,
      "velocity": 100,
      "chip": "ym2612"
    },
    {
      "channel": 2,
      "note": 71,
      "start": 14.0562,
      "duration": 1.3911,
      "velocity": 117,
      "chip": "ym2612"
    },
    {
      "channel": 4,
      "note": 33,
      "start": 14.0563,
      "duration": 0.2214,
      "velocity": 127,
      "chip": "ym2612"
    },
    {
      "channel": 5,
      "note": 54,
      "start": 14.0565,
      "duration": 0.2215,
      "velocity": 91,
      "chip": "ym2612"
    },
    {
      "channel": 4,
      "note": 33,
      "start": 14.2979,
      "duration": 0.2219,
      "velocity": 127,
      "chip": "ym2612"
    },
    {
      "channel": 5,
      "note": 54,
      "start": 14.2981,
      "duration": 0.2219,
      "velocity": 91,
      "chip": "ym2612"
    },
    {
      "channel": 4,
      "note": 33,
      "start": 14.5399,
      "duration": 0.2217,
      "velocity": 127,
      "chip": "ym2612"
    },
    {
      "channel": 5,
      "note": 54,
      "start": 14.54,
      "duration": 0.2218,
      "velocity": 91,
      "chip": "ym2612"
    },
    {
      "channel": 4,
      "note": 33,
      "start": 14.7819,
      "duration": 0.2217,
      "velocity": 127,
      "chip": "ym2612"
    },
    {
      "channel": 5,
      "note": 54,
      "start": 14.782,
      "duration": 0.2218,
      "velocity": 91,
      "chip": "ym2612"
    },
    {
      "channel": 4,
      "note": 33,
      "start": 15.0238,
      "duration": 0.2218,
      "velocity": 127,
      "chip": "ym2612"
    },
    {
      "channel": 5,
      "note": 54,
      "start": 15.024,
      "duration": 0.2217,
      "velocity": 91,
      "chip": "ym2612"
    },
    {
      "channel": 4,
      "note": 64,
      "start": 15.2675,
      "duration": 0.079,
      "velocity": 127,
      "chip": "ym2612"
    },
    {
      "channel": 5,
      "note": 54,
      "start": 15.2677,
      "duration": 0.22,
      "velocity": 91,
      "chip": "ym2612"
    },
    {
      "channel": 4,
      "note": 61,
      "start": 15.3466,
      "duration": 0.0805,
      "velocity": 127,
      "chip": "ym2612"
    },
    {
      "channel": 4,
      "note": 57,
      "start": 15.4272,
      "duration": 0.0824,
      "velocity": 127,
      "chip": "ym2612"
    },
    {
      "channel": 1,
      "note": 54,
      "start": 15.5078,
      "duration": 0.2217,
      "velocity": 100,
      "chip": "ym2612"
    },
    {
      "channel": 2,
      "note": 54,
      "start": 15.508,
      "duration": 0.2216,
      "velocity": 117,
      "chip": "ym2612"
    },
    {
      "channel": 3,
      "note": 45,
      "start": 15.5081,
      "duration": 1.6934,
      "velocity": 127,
      "chip": "ym2612"
    },
    {
      "channel": 4,
      "note": 33,
      "start": 15.5098,
      "duration": 0.22,
      "velocity": 127,
      "chip": "ym2612"
    },
    {
      "channel": 5,
      "note": 54,
      "start": 15.5099,
      "duration": 0.22,
      "velocity": 91,
      "chip": "ym2612"
    },
    {
      "channel": 1,
      "note": 72,
      "start": 15.7498,
      "duration": 0.2217,
      "velocity": 100,
      "chip": "ym2612"
    },
    {
      "channel": 2,
      "note": 72,
      "start": 15.75,
      "duration": 0.2216,
      "velocity": 117,
      "chip": "ym2612"
    },
    {
      "channel": 4,
      "note": 33,
      "start": 15.7501,
      "duration": 0.2216,
      "velocity": 127,
      "chip": "ym2612"
    },
    {
      "channel": 5,
      "note": 54,
      "start": 15.7502,
      "duration": 0.2216,
      "velocity": 91,
      "chip": "ym2612"
    },
    {
      "channel": 1,
      "note": 71,
      "start": 15.9917,
      "duration": 0.2217,
      "velocity": 100,
      "chip": "ym2612"
    },
    {
      "channel": 2,
      "note": 71,
      "start": 15.9919,
      "duration": 0.2216,
      "velocity": 117,
      "chip": "ym2612"
    },
    {
      "channel": 4,
      "note": 33,
      "start": 15.992,
      "duration": 0.2217,
      "velocity": 127,
      "chip": "ym2612"
    },
    {
      "channel": 5,
      "note": 54,
      "start": 15.9922,
      "duration": 0.2217,
      "velocity": 91,
      "chip": "ym2612"
    },
    {
      "channel": 1,
      "note": 66,
      "start": 16.2337,
      "duration": 0.6452,
      "velocity": 100,
      "chip": "ym2612"
    },
    {
      "channel": 2,
      "note": 66,
      "start": 16.2339,
      "duration": 0.6451,
      "velocity": 117,
      "chip": "ym2612"
    },
    {
      "channel": 4,
      "note": 33,
      "start": 16.234,
      "duration": 0.2214,
      "velocity": 127,
      "chip": "ym2612"
    },
    {
      "channel": 5,
      "note": 54,
      "start": 16.2341,
      "duration": 0.2214,
      "velocity": 91,
      "chip": "ym2612"
    },
    {
      "channel": 4,
      "note": 33,
      "start": 16.4756,
      "duration": 0.2217,
      "velocity": 127,
      "chip": "ym2612"
    },
    {
      "channel": 5,
      "note": 54,
      "start": 16.4757,
      "duration": 0.2218,
      "velocity": 91,
      "chip": "ym2612"
    },
    {
      "channel": 4,
      "note": 33,
      "start": 16.7176,
      "duration": 0.2218,
      "velocity": 127,
      "chip": "ym2612"
    },
    {
      "channel": 5,
      "note": 54,
      "start": 16.7177,
      "duration": 0.2217,
      "velocity": 91,
      "chip": "ym2612"
    },
    {
      "channel": 1,
      "note": 69,
      "start": 16.9596,
      "duration": 0.4233,
      "velocity": 100,
      "chip": "ym2612"
    },
    {
      "channel": 2,
      "note": 69,
      "start": 16.9598,
      "duration": 0.4233,
      "velocity": 117,
      "chip": "ym2612"
    },
    {
      "channel": 4,
      "note": 33,
      "start": 16.9599,
      "duration": 0.2214,
      "velocity": 127,
      "chip": "ym2612"
    },
    {
      "channel": 5,
      "note": 54,
      "start": 16.96,
      "duration": 0.2215,
      "velocity": 91,
      "chip": "ym2612"
    },
    {
      "channel": 4,
      "note": 64,
      "start": 17.2036,
      "duration": 0.0786,
      "velocity": 127,
      "chip": "ym2612"
    },
    {
      "channel": 5,
      "note": 54,
      "start": 17.2037,
      "duration": 0.2196,
      "velocity": 91,
      "chip": "ym2612"
    },
    {
      "channel": 4,
      "note": 61,
      "start": 17.2822,
      "duration": 0.0806,
      "velocity": 127,
      "chip": "ym2612"
    },
    {
      "channel": 4,
      "note": 57,
      "start": 17.3629,
      "duration": 0.0824,
      "velocity": 127,
      "chip": "ym2612"
    },
    {
      "channel": 1,
      "note": 54,
      "start": 17.4436,
      "duration": 0.2217,
      "velocity": 100,
      "chip": "ym2612"
    },
    {
      "channel": 2,
      "note": 54,
      "start": 17.4437,
      "duration": 0.2216,
      "velocity": 117,
      "chip": "ym2612"
    },
    {
      "channel": 3,
      "note": 45,
      "start": 17.4438,
      "duration": 1.6934,
      "velocity": 127,
      "chip": "ym2612"
    },
    {
      "channel": 4,
      "note": 33,
      "start": 17.4455,
      "duration": 0.22,
      "velocity": 127,
      "chip": "ym2612"
    },
    {
      "channel": 5,
      "note": 54,
      "start": 17.4456,
      "duration": 0.22,
      "velocity": 91,
      "chip": "ym2612"
    },
    {
      "channel": 1,
      "note": 72,
      "start": 17.6855,
      "duration": 0.2218,
      "velocity": 100,
      "chip": "ym2612"
    },
    {
      "channel": 2,
      "note": 72,
      "start": 17.6857,
      "duration": 0.2217,
      "velocity": 117,
      "chip": "ym2612"
    },
    {
      "channel": 4,
      "note": 33,
      "start": 17.6859,
      "duration": 0.2216,
      "velocity": 127,
      "chip": "ym2612"
    },
    {
      "channel": 5,
      "note": 54,
      "start": 17.6863,
      "duration": 0.2213,
      "velocity": 91,
      "chip": "ym2612"
    },
    {
      "channel": 1,
      "note": 71,
      "start": 17.9275,
      "duration": 1.3912,
      "velocity": 100,
      "chip": "ym2612"
    },
    {
      "channel": 2,
      "note": 71,
      "start": 17.9276,
      "duration": 1.3912,
      "velocity": 117,
      "chip": "ym2612"
    },
    {
      "channel": 4,
      "note": 68,
      "start": 17.9293,
      "duration": 0.2199,
      "velocity": 127,
      "chip": "ym2612"
    },
    {
      "channel": 5,
      "note": 64,
      "start": 17.9295,
      "duration": 0.2198,
      "velocity": 91,
      "chip": "ym2612"
    },
    {
      "channel": 4,
      "note": 33,
      "start": 18.1714,
      "duration": 0.2198,
      "velocity": 127,
      "chip": "ym2612"
    },
    {
      "channel": 5,
      "note": 66,
      "start": 18.1716,
      "duration": 0.2197,
      "velocity": 91,
      "chip": "ym2612"
    },
    {
      "channel": 4,
      "note": 33,
      "start": 18.4114,
      "duration": 0.2218,
      "velocity": 127,
      "chip": "ym2612"
    },
    {
      "channel": 5,
      "note": 54,
      "start": 18.4116,
      "duration": 0.2217,
      "velocity": 91,
      "chip": "ym2612"
    },
    {
      "channel": 4,
      "note": 33,
      "start": 18.6534,
      "duration": 0.2217,
      "velocity": 127,
      "chip": "ym2612"
    },
    {
      "channel": 5,
      "note": 54,
      "start": 18.6535,
      "duration": 0.2218,
      "velocity": 91,
      "chip": "ym2612"
    },
    {
      "channel": 4,
      "note": 68,
      "start": 18.8968,
      "duration": 0.2204,
      "velocity": 127,
      "chip": "ym2612"
    },
    {
      "channel": 5,
      "note": 63,
      "start": 18.897,
      "duration": 0.2203,
      "velocity": 91,
      "chip": "ym2612"
    },
    {
      "channel": 4,
      "note": 64,
      "start": 19.139,
      "duration": 0.0789,
      "velocity": 127,
      "chip": "ym2612"
    },
    {
      "channel": 5,
      "note": 64,
      "start": 19.1392,
      "duration": 0.2199,
      "velocity": 91,
      "chip": "ym2612"
    },
    {
      "channel": 4,
      "note": 61,
      "start": 19.218,
      "duration": 0.0805,
      "velocity": 127,
      "chip": "ym2612"
    },
    {
      "channel": 4,
      "note": 57,
      "start": 19.2987,
      "duration": 0.0824,
      "velocity": 127,
      "chip": "ym2612"
    },
    {
      "channel": 1,
      "note": 54,
      "start": 19.3793,
      "duration": 0.2218,
      "velocity": 100,
      "chip": "ym2612"
    },
    {
      "channel": 2,
      "note": 54,
      "start": 19.3795,
      "duration": 0.2217,
      "velocity": 117,
      "chip": "ym2612"
    },
    {
      "channel": 3,
      "note": 45,
      "start": 19.3796,
      "duration": 1.6934,
      "velocity": 127,
      "chip": "ym2612"
    },
    {
      "channel": 4,
      "note": 33,
      "start": 19.3813,
      "duration": 0.22,
      "velocity": 127,
      "chip": "ym2612"
    },
    {
      "channel": 5,
      "note": 54,
      "start": 19.3815,
      "duration": 0.22,
      "velocity": 91,
      "chip": "ym2612"
    },
    {
      "channel": 1,
      "note": 72,
      "start": 19.6213,
      "duration": 0.2216,
      "velocity": 100,
      "chip": "ym2612"
    },
    {
      "channel": 2,
      "note": 72,
      "start": 19.6215,
      "duration": 0.2216,
      "velocity": 117,
      "chip": "ym2612"
    },
    {
      "channel": 4,
      "note": 33,
      "start": 19.6216,
      "duration": 0.2216,
      "velocity": 127,
      "chip": "ym2612"
    },
    {
      "channel": 5,
      "note": 54,
      "start": 19.6217,
      "duration": 0.2216,
      "velocity": 91,
      "chip": "ym2612"
    },
    {
      "channel": 1,
      "note": 71,
      "start": 19.8632,
      "duration": 0.2217,
      "velocity": 100,
      "chip": "ym2612"
    },
    {
      "channel": 2,
      "note": 71,
      "start": 19.8633,
      "duration": 0.2217,
      "velocity": 117,
      "chip": "ym2612"
    },
    {
      "channel": 4,
      "note": 68,
      "start": 19.865,
      "duration": 0.2202,
      "velocity": 127,
      "chip": "ym2612"
    },
    {
      "channel": 5,
      "note": 61,
      "start": 19.8652,
      "duration": 0.2202,
      "velocity": 91,
      "chip": "ym2612"
    },
    {
      "channel": 1,
      "note": 66,
      "start": 20.1052,
      "duration": 1.1896,
      "velocity": 100,
      "chip": "ym2612"
    },
    {
      "channel": 2,
      "note": 66,
      "start": 20.1054,
      "duration": 1.1895,
      "velocity": 117,
      "chip": "ym2612"
    },
    {
      "channel": 4,
      "note": 33,
      "start": 20.107,
      "duration": 0.2199,
      "velocity": 127,
      "chip": "ym2612"
    },
    {
      "channel": 5,
      "note": 63,
      "start": 20.1072,
      "duration": 0.2198,
      "velocity": 91,
      "chip": "ym2612"
    },
    {
      "channel": 4,
      "note": 33,
      "start": 20.3471,
      "duration": 0.2217,
      "velocity": 127,
      "chip": "ym2612"
    },
    {
      "channel": 5,
      "note": 54,
      "start": 20.3473,
      "duration": 0.2217,
      "velocity": 91,
      "chip": "ym2612"
    },
    {
      "channel": 4,
      "note": 33,
      "start": 20.5891,
      "duration": 0.2218,
      "velocity": 127,
      "chip": "ym2612"
    },
    {
      "channel": 5,
      "note": 54,
      "start": 20.5892,
      "duration": 0.2217,
      "velocity": 91,
      "chip": "ym2612"
    },
    {
      "channel": 4,
      "note": 68,
      "start": 20.8326,
      "duration": 0.2205,
      "velocity": 127,
      "chip": "ym2612"
    },
    {
      "channel": 5,
      "note": 60,
      "start": 20.8327,
      "duration": 0.2205,
      "velocity": 91,
      "chip": "ym2612"
    },
    {
      "channel": 4,
      "note": 64,
      "start": 21.0747,
      "duration": 0.079,
      "velocity": 127,
      "chip": "ym2612"
    },
    {
      "channel": 5,
      "note": 61,
      "start": 21.0749,
      "duration": 0.2201,
      "velocity": 91,
      "chip": "ym2612"
    },
    {
      "channel": 4,
      "note": 61,
      "start": 21.1537,
      "duration": 0.0806,
      "velocity": 127,
      "chip": "ym2612"
    },
    {
      "channel": 4,
      "note": 57,
      "start": 21.2345,
      "duration": 0.0824,
      "velocity": 127,
      "chip": "ym2612"
    },
    {
      "channel": 1,
      "note": 54,
      "start": 21.315,
      "duration": 0.2218,
      "velocity": 100,
      "chip": "ym2612"
    },
    {
      "channel": 2,
      "note": 54,
      "start": 21.3152,
      "duration": 0.2217,
      "velocity": 117,
      "chip": "ym2612"
    },
    {
      "channel": 3,
      "note": 45,
      "start": 21.3153,
      "duration": 1.6934,
      "velocity": 127,
      "chip": "ym2612"
    },
    {
      "channel": 4,
      "note": 33,
      "start": 21.317,
      "duration": 0.22,
      "velocity": 127,
      "chip": "ym2612"
    },
    {
      "channel": 5,
      "note": 54,
      "start": 21.3172,
      "duration": 0.2199,
      "velocity": 91,
      "chip": "ym2612"
    },
    {
      "channel": 1,
      "note": 72,
      "start": 21.557,
      "duration": 0.2217,
      "velocity": 100,
      "chip": "ym2612"
    },
    {
      "channel": 2,
      "note": 72,
      "start": 21.5572,
      "duration": 0.2216,
      "velocity": 117,
      "chip": "ym2612"
    },
    {
      "channel": 4,
      "note": 33,
      "start": 21.5573,
      "duration": 0.2217,
      "velocity": 127,
      "chip": "ym2612"
    },
    {
      "channel": 5,
      "note": 54,
      "start": 21.5574,
      "duration": 0.2217,
      "velocity": 91,
      "chip": "ym2612"
    },
    {
      "channel": 1,
      "note": 71,
      "start": 21.799,
      "duration": 1.3912,
      "velocity": 100,
      "chip": "ym2612"
    },
    {
      "channel": 2,
      "note": 71,
      "start": 21.7992,
      "duration": 1.3912,
      "velocity": 117,
      "chip": "ym2612"
    },
    {
      "channel": 4,
      "note": 68,
      "start": 21.8008,
      "duration": 0.2199,
      "velocity": 127,
      "chip": "ym2612"
    },
    {
      "channel": 5,
      "note": 64,
      "start": 21.801,
      "duration": 0.2198,
      "velocity": 91,
      "chip": "ym2612"
    },
    {
      "channel": 4,
      "note": 33,
      "start": 22.0424,
      "duration": 0.2203,
      "velocity": 127,
      "chip": "ym2612"
    },
    {
      "channel": 5,
      "note": 66,
      "start": 22.0425,
      "duration": 0.2203,
      "velocity": 91,
      "chip": "ym2612"
    },
    {
      "channel": 4,
      "note": 33,
      "start": 22.2828,
      "duration": 0.2219,
      "velocity": 127,
      "chip": "ym2612"
    },
    {
      "channel": 5,
      "note": 54,
      "start": 22.283,
      "duration": 0.2218,
      "velocity": 91,
      "chip": "ym2612"
    },
    {
      "channel": 4,
      "note": 33,
      "start": 22.5249,
      "duration": 0.2217,
      "velocity": 127,
      "chip": "ym2612"
    },
    {
      "channel": 5,
      "note": 54,
      "start": 22.525,
      "duration": 0.2217,
      "velocity": 91,
      "chip": "ym2612"
    },
    {
      "channel": 4,
      "note": 68,
      "start": 22.7683,
      "duration": 0.2203,
      "velocity": 127,
      "chip": "ym2612"
    },
    {
      "channel": 5,
      "note": 63,
      "start": 22.7685,
      "duration": 0.2202,
      "velocity": 91,
      "chip": "ym2612"
    },
    {
      "channel": 4,
      "note": 64,
      "start": 23.0105,
      "duration": 0.0789,
      "velocity": 127,
      "chip": "ym2612"
    },
    {
      "channel": 5,
      "note": 64,
      "start": 23.0107,
      "duration": 0.2199,
      "velocity": 91,
      "chip": "ym2612"
    },
    {
      "channel": 4,
      "note": 61,
      "start": 23.0895,
      "duration": 0.0805,
      "velocity": 127,
      "chip": "ym2612"
    },
    {
      "channel": 4,
      "note": 57,
      "start": 23.1702,
      "duration": 0.0828,
      "velocity": 127,
      "chip": "ym2612"
    },
    {
      "channel": 1,
      "note": 54,
      "start": 23.2507,
      "duration": 0.2217,
      "velocity": 100,
      "chip": "ym2612"
    },
    {
      "channel": 2,
      "note": 54,
      "start": 23.2509,
      "duration": 0.2216,
      "velocity": 117,
      "chip": "ym2612"
    },
    {
      "channel": 3,
      "note": 45,
      "start": 23.251,
      "duration": 1.6935,
      "velocity": 127,
      "chip": "ym2612"
    },
    {
      "channel": 4,
      "note": 33,
      "start": 23.2531,
      "duration": 0.2196,
      "velocity": 127,
      "chip": "ym2612"
    },
    {
      "channel": 5,
      "note": 54,
      "start": 23.2533,
      "duration": 0.2196,
      "velocity": 91,
      "chip": "ym2612"
    },
    {
      "channel": 1,
      "note": 72,
      "start": 23.4927,
      "duration": 0.2217,
      "velocity": 100,
      "chip": "ym2612"
    },
    {
      "channel": 2,
      "note": 72,
      "start": 23.4929,
      "duration": 0.2216,
      "velocity": 117,
      "chip": "ym2612"
    },
    {
      "channel": 4,
      "note": 33,
      "start": 23.493,
      "duration": 0.2216,
      "velocity": 127,
      "chip": "ym2612"
    },
    {
      "channel": 5,
      "note": 54,
      "start": 23.4932,
      "duration": 0.2216,
      "velocity": 91,
      "chip": "ym2612"
    },
    {
      "channel": 1,
      "note": 71,
      "start": 23.7346,
      "duration": 0.2217,
      "velocity": 100,
      "chip": "ym2612"
    },
    {
      "channel": 2,
      "note": 71,
      "start": 23.7348,
      "duration": 0.2217,
      "velocity": 117,
      "chip": "ym2612"
    },
    {
      "channel": 4,
      "note": 68,
      "start": 23.7369,
      "duration": 0.2198,
      "velocity": 127,
      "chip": "ym2612"
    },
    {
      "channel": 5,
      "note": 61,
      "start": 23.7371,
      "duration": 0.2197,
      "velocity": 91,
      "chip": "ym2612"
    },
    {
      "channel": 1,
      "note": 66,
      "start": 23.9767,
      "duration": 0.6451,
      "velocity": 100,
      "chip": "ym2612"
    },
    {
      "channel": 2,
      "note": 66,
      "start": 23.9769,
      "duration": 0.645,
      "velocity": 117,
      "chip": "ym2612"
    },
    {
      "channel": 4,
      "note": 33,
      "start": 23.9785,
      "duration": 0.22,
      "velocity": 127,
      "chip": "ym2612"
    },
    {
      "channel": 5,
      "note": 63,
      "start": 23.9787,
      "duration": 0.2199,
      "velocity": 91,
      "chip": "ym2612"
    },
    {
      "channel": 4,
      "note": 33,
      "start": 24.2186,
      "duration": 0.2217,
      "velocity": 127,
      "chip": "ym2612"
    },
    {
      "channel": 5,
      "note": 54,
      "start": 24.2188,
      "duration": 0.2217,
      "velocity": 91,
      "chip": "ym2612"
    },
    {
      "channel": 4,
      "note": 33,
      "start": 24.4605,
      "duration": 0.2218,
      "velocity": 127,
      "chip": "ym2612"
    },
    {
      "channel": 5,
      "note": 54,
      "start": 24.4607,
      "duration": 0.2218,
      "velocity": 91,
      "chip": "ym2612"
    },
    {
      "channel": 1,
      "note": 69,
      "start": 24.703,
      "duration": 0.423,
      "velocity": 100,
      "chip": "ym2612"
    },
    {
      "channel": 2,
      "note": 69,
      "start": 24.7032,
      "duration": 0.4229,
      "velocity": 117,
      "chip": "ym2612"
    },
    {
      "channel": 4,
      "note": 68,
      "start": 24.7048,
      "duration": 0.2195,
      "velocity": 127,
      "chip": "ym2612"
    },
    {
      "channel": 5,
      "note": 60,
      "start": 24.705,
      "duration": 0.2195,
      "velocity": 91,
      "chip": "ym2612"
    },
    {
      "channel": 4,
      "note": 64,
      "start": 24.9462,
      "duration": 0.0789,
      "velocity": 127,
      "chip": "ym2612"
    },
    {
      "channel": 5,
      "note": 61,
      "start": 24.9464,
      "duration": 0.2199,
      "velocity": 91,
      "chip": "ym2612"
    },
    {
      "channel": 4,
      "note": 61,
      "start": 25.0252,
      "duration": 0.0806,
      "velocity": 127,
      "chip": "ym2612"
    },
    {
      "channel": 4,
      "note": 57,
      "start": 25.106,
      "duration": 0.0851,
      "velocity": 127,
      "chip": "ym2612"
    },
    {
      "channel": 1,
      "note": 54,
      "start": 25.1881,
      "duration": 0.2713,
      "velocity": 101,
      "chip": "ym2612"
    },
    {
      "channel": 3,
      "note": 45,
      "start": 25.1895,
      "duration": 1.0536,
      "velocity": 127,
      "chip": "ym2612"
    },
    {
      "channel": 4,
      "note": 33,
      "start": 25.1911,
      "duration": 1.052,
      "velocity": 127,
      "chip": "ym2612"
    },
    {
      "channel": 5,
      "note": 54,
      "start": 25.1913,
      "duration": 2.0883,
      "velocity": 91,
      "chip": "ym2612"
    },
    {
      "channel": 1,
      "note": 72,
      "start": 25.4848,
      "duration": 0.2779,
      "velocity": 101,
      "chip": "ym2612"
    },
    {
      "channel": 2,
      "note": 54,
      "start": 25.4853,
      "duration": 0.2776,
      "velocity": 101,
      "chip": "ym2612"
    },
    {
      "channel": 1,
      "note": 71,
      "start": 25.7881,
      "duration": 1.7443,
      "velocity": 101,
      "chip": "ym2612"
    },
    {
      "channel": 2,
      "note": 72,
      "start": 25.7883,
      "duration": 0.2779,
      "velocity": 101,
      "chip": "ym2612"
    },
    {
      "channel": 2,
      "note": 71,
      "start": 26.0915,
      "duration": 1.7442,
      "velocity": 101,
      "chip": "ym2612"
    },
    {
      "channel": 3,
      "note": 45,
      "start": 27.3049,
      "duration": 0.278,
      "velocity": 127,
      "chip": "ym2612"
    },
    {
      "channel": 4,
      "note": 33,
      "start": 27.305,
      "duration": 0.278,
      "velocity": 127,
      "chip": "ym2612"
    },
    {
      "channel": 5,
      "note": 54,
      "start": 27.3051,
      "duration": 0.278,
      "velocity": 91,
      "chip": "ym2612"
    },
    {
      "channel": 1,
      "note": 54,
      "start": 27.6083,
      "duration": 0.2782,
      "velocity": 101,
      "chip": "ym2612"
    },
    {
      "channel": 3,
      "note": 45,
      "start": 27.6084,
      "duration": 1.0616,
      "velocity": 127,
      "chip": "ym2612"
    },
    {
      "channel": 4,
      "note": 33,
      "start": 27.6086,
      "duration": 1.0616,
      "velocity": 127,
      "chip": "ym2612"
    },
    {
      "channel": 5,
      "note": 54,
      "start": 27.6087,
      "duration": 2.0978,
      "velocity": 91,
      "chip": "ym2612"
    },
    {
      "channel": 1,
      "note": 72,
      "start": 27.9116,
      "duration": 0.278,
      "velocity": 101,
      "chip": "ym2612"
    },
    {
      "channel": 2,
      "note": 54,
      "start": 27.9118,
      "duration": 0.2779,
      "velocity": 101,
      "chip": "ym2612"
    },
    {
      "channel": 1,
      "note": 71,
      "start": 28.215,
      "duration": 0.278,
      "velocity": 101,
      "chip": "ym2612"
    },
    {
      "channel": 2,
      "note": 72,
      "start": 28.2151,
      "duration": 0.278,
      "velocity": 101,
      "chip": "ym2612"
    },
    {
      "channel": 1,
      "note": 66,
      "start": 28.5184,
      "duration": 1.4915,
      "velocity": 101,
      "chip": "ym2612"
    },
    {
      "channel": 2,
      "note": 71,
      "start": 28.5185,
      "duration": 0.2778,
      "velocity": 101,
      "chip": "ym2612"
    },
    {
      "channel": 2,
      "note": 66,
      "start": 28.8217,
      "duration": 1.4916,
      "velocity": 101,
      "chip": "ym2612"
    },
    {
      "channel": 3,
      "note": 45,
      "start": 29.7318,
      "duration": 0.2782,
      "velocity": 127,
      "chip": "ym2612"
    },
    {
      "channel": 4,
      "note": 33,
      "start": 29.7319,
      "duration": 0.2782,
      "velocity": 127,
      "chip": "ym2612"
    },
    {
      "channel": 5,
      "note": 54,
      "start": 29.732,
      "duration": 0.2782,
      "velocity": 91,
      "chip": "ym2612"
    },
    {
      "channel": 1,
      "note": 54,
      "start": 30.0351,
      "duration": 0.278,
      "velocity": 101,
      "chip": "ym2612"
    },
    {
      "channel": 3,
      "note": 45,
      "start": 30.0353,
      "duration": 1.0616,
      "velocity": 127,
      "chip": "ym2612"
    },
    {
      "channel": 4,
      "note": 33,
      "start": 30.0354,
      "duration": 1.0616,
      "velocity": 127,
      "chip": "ym2612"
    },
    {
      "channel": 5,
      "note": 54,
      "start": 30.0355,
      "duration": 2.0978,
      "velocity": 91,
      "chip": "ym2612"
    },
    {
      "channel": 1,
      "note": 72,
      "start": 30.3385,
      "duration": 0.278,
      "velocity": 101,
      "chip": "ym2612"
    },
    {
      "channel": 2,
      "note": 54,
      "start": 30.3387,
      "duration": 0.2779,
      "velocity": 101,
      "chip": "ym2612"
    },
    {
      "channel": 1,
      "note": 71,
      "start": 30.6419,
      "duration": 1.7446,
      "velocity": 101,
      "chip": "ym2612"
    },
    {
      "channel": 2,
      "note": 72,
      "start": 30.6421,
      "duration": 0.2779,
      "velocity": 101,
      "chip": "ym2612"
    },
    {
      "channel": 2,
      "note": 71,
      "start": 30.9453,
      "duration": 1.7443,
      "velocity": 101,
      "chip": "ym2612"
    },
    {
      "channel": 3,
      "note": 45,
      "start": 32.1587,
      "duration": 0.2781,
      "velocity": 127,
      "chip": "ym2612"
    },
    {
      "channel": 4,
      "note": 33,
      "start": 32.1589,
      "duration": 0.278,
      "velocity": 127,
      "chip": "ym2612"
    },
    {
      "channel": 5,
      "note": 54,
      "start": 32.159,
      "duration": 0.278,
      "velocity": 91,
      "chip": "ym2612"
    },
    {
      "channel": 1,
      "note": 54,
      "start": 32.4621,
      "duration": 0.278,
      "velocity": 101,
      "chip": "ym2612"
    },
    {
      "channel": 3,
      "note": 45,
      "start": 32.4622,
      "duration": 2.1235,
      "velocity": 127,
      "chip": "ym2612"
    },
    {
      "channel": 5,
      "note": 54,
      "start": 32.4623,
      "duration": 0.2779,
      "velocity": 91,
      "chip": "ym2612"
    },
    {
      "channel": 1,
      "note": 72,
      "start": 32.7654,
      "duration": 0.278,
      "velocity": 101,
      "chip": "ym2612"
    },
    {
      "channel": 2,
      "note": 54,
      "start": 32.7656,
      "duration": 0.278,
      "velocity": 101,
      "chip": "ym2612"
    },
    {
      "channel": 4,
      "note": 33,
      "start": 32.7658,
      "duration": 0.2779,
      "velocity": 127,
      "chip": "ym2612"
    },
    {
      "channel": 5,
      "note": 54,
      "start": 32.7659,
      "duration": 0.2779,
      "velocity": 91,
      "chip": "ym2612"
    },
    {
      "channel": 1,
      "note": 71,
      "start": 33.0688,
      "duration": 0.278,
      "velocity": 101,
      "chip": "ym2612"
    },
    {
      "channel": 2,
      "note": 72,
      "start": 33.069,
      "duration": 0.2779,
      "velocity": 101,
      "chip": "ym2612"
    },
    {
      "channel": 4,
      "note": 33,
      "start": 33.0692,
      "duration": 0.2779,
      "velocity": 127,
      "chip": "ym2612"
    },
    {
      "channel": 5,
      "note": 54,
      "start": 33.0696,
      "duration": 0.2776,
      "velocity": 91,
      "chip": "ym2612"
    },
    {
      "channel": 1,
      "note": 66,
      "start": 33.3722,
      "duration": 0.8089,
      "velocity": 101,
      "chip": "ym2612"
    },
    {
      "channel": 2,
      "note": 71,
      "start": 33.3724,
      "duration": 0.2778,
      "velocity": 101,
      "chip": "ym2612"
    },
    {
      "channel": 4,
      "note": 33,
      "start": 33.3725,
      "duration": 0.2778,
      "velocity": 127,
      "chip": "ym2612"
    },
    {
      "channel": 5,
      "note": 54,
      "start": 33.3726,
      "duration": 0.2778,
      "velocity": 91,
      "chip": "ym2612"
    },
    {
      "channel": 2,
      "note": 66,
      "start": 33.6756,
      "duration": 0.8088,
      "velocity": 101,
      "chip": "ym2612"
    },
    {
      "channel": 4,
      "note": 33,
      "start": 33.6757,
      "duration": 0.2779,
      "velocity": 127,
      "chip": "ym2612"
    },
    {
      "channel": 5,
      "note": 54,
      "start": 33.6758,
      "duration": 0.2779,
      "velocity": 91,
      "chip": "ym2612"
    },
    {
      "channel": 4,
      "note": 33,
      "start": 33.9789,
      "duration": 0.2781,
      "velocity": 127,
      "chip": "ym2612"
    },
    {
      "channel": 5,
      "note": 54,
      "start": 33.979,
      "duration": 0.2781,
      "velocity": 91,
      "chip": "ym2612"
    },
    {
      "channel": 1,
      "note": 69,
      "start": 34.2822,
      "duration": 0.5309,
      "velocity": 101,
      "chip": "ym2612"
    },
    {
      "channel": 4,
      "note": 33,
      "start": 34.2824,
      "duration": 0.2779,
      "velocity": 127,
      "chip": "ym2612"
    },
    {
      "channel": 5,
      "note": 54,
      "start": 34.2825,
      "duration": 0.2779,
      "velocity": 91,
      "chip": "ym2612"
    },
    {
      "channel": 2,
      "note": 69,
      "start": 34.5857,
      "duration": 0.278,
      "velocity": 101,
      "chip": "ym2612"
    },
    {
      "channel": 4,
      "note": 64,
      "start": 34.5878,
      "duration": 0.0989,
      "velocity": 127,
      "chip": "ym2612"
    },
    {
      "channel": 5,
      "note": 54,
      "start": 34.588,
      "duration": 0.2758,
      "velocity": 91,
      "chip": "ym2612"
    },
    {
      "channel": 4,
      "note": 61,
      "start": 34.6868,
      "duration": 0.1011,
      "velocity": 127,
      "chip": "ym2612"
    },
    {
      "channel": 4,
      "note": 57,
      "start": 34.788,
      "duration": 0.1058,
      "velocity": 127,
      "chip": "ym2612"
    },
    {
      "channel": 1,
      "note": 54,
      "start": 34.8904,
      "duration": 0.2254,
      "velocity": 100,
      "chip": "ym2612"
    },
    {
      "channel": 2,
      "note": 54,
      "start": 34.8921,
      "duration": 0.2239,
      "velocity": 117,
      "chip": "ym2612"
    },
    {
      "channel": 3,
      "note": 45,
      "start": 34.8922,
      "duration": 1.6955,
      "velocity": 127,
      "chip": "ym2612"
    },
    {
      "channel": 4,
      "note": 33,
      "start": 34.8939,
      "duration": 0.2221,
      "velocity": 127,
      "chip": "ym2612"
    },
    {
      "channel": 5,
      "note": 54,
      "start": 34.8941,
      "duration": 0.2221,
      "velocity": 91,
      "chip": "ym2612"
    },
    {
      "channel": 1,
      "note": 72,
      "start": 35.1366,
      "duration": 0.2212,
      "velocity": 100,
      "chip": "ym2612"
    },
    {
      "channel": 2,
      "note": 72,
      "start": 35.1368,
      "duration": 0.2212,
      "velocity": 117,
      "chip": "ym2612"
    },
    {
      "channel": 4,
      "note": 33,
      "start": 35.1369,
      "duration": 0.2212,
      "velocity": 127,
      "chip": "ym2612"
    },
    {
      "channel": 5,
      "note": 54,
      "start": 35.137,
      "duration": 0.2212,
      "velocity": 91,
      "chip": "ym2612"
    },
    {
      "channel": 1,
      "note": 71,
      "start": 35.378,
      "duration": 1.3916,
      "velocity": 100,
      "chip": "ym2612"
    },
    {
      "channel": 2,
      "note": 71,
      "start": 35.3782,
      "duration": 1.3915,
      "velocity": 117,
      "chip": "ym2612"
    },
    {
      "channel": 4,
      "note": 33,
      "start": 35.3783,
      "duration": 0.2215,
      "velocity": 127,
      "chip": "ym2612"
    },
    {
      "channel": 5,
      "note": 54,
      "start": 35.3785,
      "duration": 0.2214,
      "velocity": 91,
      "chip": "ym2612"
    },
    {
      "channel": 4,
      "note": 33,
      "start": 35.62,
      "duration": 0.2218,
      "velocity": 127,
      "chip": "ym2612"
    },
    {
      "channel": 5,
      "note": 54,
      "start": 35.6201,
      "duration": 0.2218,
      "velocity": 91,
      "chip": "ym2612"
    },
    {
      "channel": 4,
      "note": 33,
      "start": 35.8619,
      "duration": 0.2218,
      "velocity": 127,
      "chip": "ym2612"
    },
    {
      "channel": 5,
      "note": 54,
      "start": 35.8621,
      "duration": 0.2218,
      "velocity": 91,
      "chip": "ym2612"
    },
    {
      "channel": 4,
      "note": 33,
      "start": 36.1039,
      "duration": 0.2218,
      "velocity": 127,
      "chip": "ym2612"
    },
    {
      "channel": 5,
      "note": 54,
      "start": 36.104,
      "duration": 0.2218,
      "velocity": 91,
      "chip": "ym2612"
    },
    {
      "channel": 4,
      "note": 33,
      "start": 36.3459,
      "duration": 0.2217,
      "velocity": 127,
      "chip": "ym2612"
    },
    {
      "channel": 5,
      "note": 54,
      "start": 36.346,
      "duration": 0.2218,
      "velocity": 91,
      "chip": "ym2612"
    },
    {
      "channel": 4,
      "note": 64,
      "start": 36.5895,
      "duration": 0.079,
      "velocity": 127,
      "chip": "ym2612"
    },
    {
      "channel": 5,
      "note": 54,
      "start": 36.5896,
      "duration": 0.22,
      "velocity": 91,
      "chip": "ym2612"
    },
    {
      "channel": 4,
      "note": 61,
      "start": 36.6686,
      "duration": 0.0805,
      "velocity": 127,
      "chip": "ym2612"
    },
    {
      "channel": 4,
      "note": 57,
      "start": 36.7492,
      "duration": 0.0824,
      "velocity": 127,
      "chip": "ym2612"
    },
    {
      "channel": 1,
      "note": 54,
      "start": 36.8298,
      "duration": 0.2217,
      "velocity": 100,
      "chip": "ym2612"
    },
    {
      "channel": 2,
      "note": 54,
      "start": 36.83,
      "duration": 0.2217,
      "velocity": 117,
      "chip": "ym2612"
    },
    {
      "channel": 3,
      "note": 45,
      "start": 36.8301,
      "duration": 1.6934,
      "velocity": 127,
      "chip": "ym2612"
    },
    {
      "channel": 4,
      "note": 33,
      "start": 36.8319,
      "duration": 0.22,
      "velocity": 127,
      "chip": "ym2612"
    },
    {
      "channel": 5,
      "note": 54,
      "start": 36.832,
      "duration": 0.22,
      "velocity": 91,
      "chip": "ym2612"
    },
    {
      "channel": 1,
      "note": 72,
      "start": 37.0718,
      "duration": 0.2217,
      "velocity": 100,
      "chip": "ym2612"
    },
    {
      "channel": 2,
      "note": 72,
      "start": 37.072,
      "duration": 0.2216,
      "velocity": 117,
      "chip": "ym2612"
    },
    {
      "channel": 4,
      "note": 33,
      "start": 37.0721,
      "duration": 0.2216,
      "velocity": 127,
      "chip": "ym2612"
    },
    {
      "channel": 5,
      "note": 54,
      "start": 37.0722,
      "duration": 0.2216,
      "velocity": 91,
      "chip": "ym2612"
    },
    {
      "channel": 1,
      "note": 71,
      "start": 37.3138,
      "duration": 0.2217,
      "velocity": 100,
      "chip": "ym2612"
    },
    {
      "channel": 2,
      "note": 71,
      "start": 37.314,
      "duration": 0.2217,
      "velocity": 117,
      "chip": "ym2612"
    },
    {
      "channel": 4,
      "note": 33,
      "start": 37.3141,
      "duration": 0.2217,
      "velocity": 127,
      "chip": "ym2612"
    },
    {
      "channel": 5,
      "note": 54,
      "start": 37.3142,
      "duration": 0.2221,
      "velocity": 91,
      "chip": "ym2612"
    },
    {
      "channel": 1,
      "note": 66,
      "start": 37.5557,
      "duration": 1.1896,
      "velocity": 100,
      "chip": "ym2612"
    },
    {
      "channel": 2,
      "note": 66,
      "start": 37.5559,
      "duration": 1.1896,
      "velocity": 117,
      "chip": "ym2612"
    },
    {
      "channel": 4,
      "note": 33,
      "start": 37.5561,
      "duration": 0.2215,
      "velocity": 127,
      "chip": "ym2612"
    },
    {
      "channel": 5,
      "note": 54,
      "start": 37.5562,
      "duration": 0.2214,
      "velocity": 91,
      "chip": "ym2612"
    },
    {
      "channel": 4,
      "note": 33,
      "start": 37.7976,
      "duration": 0.2223,
      "velocity": 127,
      "chip": "ym2612"
    },
    {
      "channel": 5,
      "note": 54,
      "start": 37.7978,
      "duration": 0.2223,
      "velocity": 91,
      "chip": "ym2612"
    },
    {
      "channel": 4,
      "note": 33,
      "start": 38.0396,
      "duration": 0.2218,
      "velocity": 127,
      "chip": "ym2612"
    },
    {
      "channel": 5,
      "note": 54,
      "start": 38.0397,
      "duration": 0.2218,
      "velocity": 91,
      "chip": "ym2612"
    },
    {
      "channel": 4,
      "note": 33,
      "start": 38.2817,
      "duration": 0.2218,
      "velocity": 127,
      "chip": "ym2612"
    },
    {
      "channel": 5,
      "note": 54,
      "start": 38.2818,
      "duration": 0.2217,
      "velocity": 91,
      "chip": "ym2612"
    },
    {
      "channel": 4,
      "note": 64,
      "start": 38.5252,
      "duration": 0.079,
      "velocity": 127,
      "chip": "ym2612"
    },
    {
      "channel": 5,
      "note": 54,
      "start": 38.5254,
      "duration": 0.2202,
      "velocity": 91,
      "chip": "ym2612"
    },
    {
      "channel": 4,
      "note": 61,
      "start": 38.6043,
      "duration": 0.0805,
      "velocity": 127,
      "chip": "ym2612"
    },
    {
      "channel": 4,
      "note": 57,
      "start": 38.685,
      "duration": 0.0824,
      "velocity": 127,
      "chip": "ym2612"
    },
    {
      "channel": 1,
      "note": 54,
      "start": 38.7656,
      "duration": 0.2217,
      "velocity": 100,
      "chip": "ym2612"
    },
    {
      "channel": 2,
      "note": 54,
      "start": 38.7657,
      "duration": 0.2217,
      "velocity": 117,
      "chip": "ym2612"
    },
    {
      "channel": 3,
      "note": 45,
      "start": 38.7658,
      "duration": 1.6934,
      "velocity": 127,
      "chip": "ym2612"
    },
    {
      "channel": 4,
      "note": 33,
      "start": 38.7675,
      "duration": 0.22,
      "velocity": 127,
      "chip": "ym2612"
    },
    {
      "channel": 5,
      "note": 54,
      "start": 38.7677,
      "duration": 0.22,
      "velocity": 91,
      "chip": "ym2612"
    },
    {
      "channel": 1,
      "note": 72,
      "start": 39.0076,
      "duration": 0.2217,
      "velocity": 100,
      "chip": "ym2612"
    },
    {
      "channel": 2,
      "note": 72,
      "start": 39.0077,
      "duration": 0.2216,
      "velocity": 117,
      "chip": "ym2612"
    },
    {
      "channel": 4,
      "note": 33,
      "start": 39.0079,
      "duration": 0.2216,
      "velocity": 127,
      "chip": "ym2612"
    },
    {
      "channel": 5,
      "note": 54,
      "start": 39.008,
      "duration": 0.2216,
      "velocity": 91,
      "chip": "ym2612"
    },
    {
      "channel": 1,
      "note": 71,
      "start": 39.2495,
      "duration": 1.3912,
      "velocity": 100,
      "chip": "ym2612"
    },
    {
      "channel": 2,
      "note": 71,
      "start": 39.2497,
      "duration": 1.3912,
      "velocity": 117,
      "chip": "ym2612"
    },
    {
      "channel": 4,
      "note": 33,
      "start": 39.2498,
      "duration": 0.2214,
      "velocity": 127,
      "chip": "ym2612"
    },
    {
      "channel": 5,
      "note": 54,
      "start": 39.2499,
      "duration": 0.2215,
      "velocity": 91,
      "chip": "ym2612"
    },
    {
      "channel": 4,
      "note": 33,
      "start": 39.4915,
      "duration": 0.2218,
      "velocity": 127,
      "chip": "ym2612"
    },
    {
      "channel": 5,
      "note": 54,
      "start": 39.4916,
      "duration": 0.2218,
      "velocity": 91,
      "chip": "ym2612"
    },
    {
      "channel": 4,
      "note": 33,
      "start": 39.7334,
      "duration": 0.2218,
      "velocity": 127,
      "chip": "ym2612"
    },
    {
      "channel": 5,
      "note": 54,
      "start": 39.7335,
      "duration": 0.2218,
      "velocity": 91,
      "chip": "ym2612"
    },
    {
      "channel": 4,
      "note": 33,
      "start": 39.9754,
      "duration": 0.2218,
      "velocity": 127,
      "chip": "ym2612"
    },
    {
      "channel": 5,
      "note": 54,
      "start": 39.9755,
      "duration": 0.2217,
      "velocity": 91,
      "chip": "ym2612"
    },
    {
      "channel": 4,
      "note": 33,
      "start": 40.2173,
      "duration": 0.2217,
      "velocity": 127,
      "chip": "ym2612"
    },
    {
      "channel": 5,
      "note": 54,
      "start": 40.2175,
      "duration": 0.2217,
      "velocity": 91,
      "chip": "ym2612"
    },
    {
      "channel": 4,
      "note": 64,
      "start": 40.461,
      "duration": 0.079,
      "velocity": 127,
      "chip": "ym2612"
    },
    {
      "channel": 5,
      "note": 54,
      "start": 40.4611,
      "duration": 0.22,
      "velocity": 91,
      "chip": "ym2612"
    },
    {
      "channel": 4,
      "note": 61,
      "start": 40.54,
      "duration": 0.0805,
      "velocity": 127,
      "chip": "ym2612"
    },
    {
      "channel": 4,
      "note": 57,
      "start": 40.6207,
      "duration": 0.0828,
      "velocity": 127,
      "chip": "ym2612"
    },
    {
      "channel": 1,
      "note": 54,
      "start": 40.7013,
      "duration": 0.2217,
      "velocity": 100,
      "chip": "ym2612"
    },
    {
      "channel": 2,
      "note": 54,
      "start": 40.7015,
      "duration": 0.2216,
      "velocity": 117,
      "chip": "ym2612"
    },
    {
      "channel": 3,
      "note": 45,
      "start": 40.7016,
      "duration": 1.6934,
      "velocity": 127,
      "chip": "ym2612"
    },
    {
      "channel": 4,
      "note": 33,
      "start": 40.7037,
      "duration": 0.2197,
      "velocity": 127,
      "chip": "ym2612"
    },
    {
      "channel": 5,
      "note": 54,
      "start": 40.7038,
      "duration": 0.2197,
      "velocity": 91,
      "chip": "ym2612"
    },
    {
      "channel": 1,
      "note": 72,
      "start": 40.9433,
      "duration": 0.2217,
      "velocity": 100,
      "chip": "ym2612"
    },
    {
      "channel": 2,
      "note": 72,
      "start": 40.9435,
      "duration": 0.2216,
      "velocity": 117,
      "chip": "ym2612"
    },
    {
      "channel": 4,
      "note": 33,
      "start": 40.9436,
      "duration": 0.2216,
      "velocity": 127,
      "chip": "ym2612"
    },
    {
      "channel": 5,
      "note": 54,
      "start": 40.9437,
      "duration": 0.2216,
      "velocity": 91,
      "chip": "ym2612"
    },
    {
      "channel": 1,
      "note": 71,
      "start": 41.1852,
      "duration": 0.2218,
      "velocity": 100,
      "chip": "ym2612"
    },
    {
      "channel": 2,
      "note": 71,
      "start": 41.1854,
      "duration": 0.2217,
      "velocity": 117,
      "chip": "ym2612"
    },
    {
      "channel": 4,
      "note": 33,
      "start": 41.1855,
      "duration": 0.2218,
      "velocity": 127,
      "chip": "ym2612"
    },
    {
      "channel": 5,
      "note": 54,
      "start": 41.1857,
      "duration": 0.2217,
      "velocity": 91,
      "chip": "ym2612"
    },
    {
      "channel": 1,
      "note": 66,
      "start": 41.4272,
      "duration": 0.6452,
      "velocity": 100,
      "chip": "ym2612"
    },
    {
      "channel": 2,
      "note": 66,
      "start": 41.4274,
      "duration": 0.6451,
      "velocity": 117,
      "chip": "ym2612"
    },
    {
      "channel": 4,
      "note": 33,
      "start": 41.4275,
      "duration": 0.2214,
      "velocity": 127,
      "chip": "ym2612"
    },
    {
      "channel": 5,
      "note": 54,
      "start": 41.4276,
      "duration": 0.2215,
      "velocity": 91,
      "chip": "ym2612"
    },
    {
      "channel": 4,
      "note": 33,
      "start": 41.6692,
      "duration": 0.2218,
      "velocity": 127,
      "chip": "ym2612"
    },
    {
      "channel": 5,
      "note": 54,
      "start": 41.6696,
      "duration": 0.2214,
      "velocity": 91,
      "chip": "ym2612"
    },
    {
      "channel": 4,
      "note": 33,
      "start": 41.9111,
      "duration": 0.2217,
      "velocity": 127,
      "chip": "ym2612"
    },
    {
      "channel": 5,
      "note": 54,
      "start": 41.9112,
      "duration": 0.2217,
      "velocity": 91,
      "chip": "ym2612"
    },
    {
      "channel": 1,
      "note": 69,
      "start": 42.1532,
      "duration": 0.4233,
      "velocity": 100,
      "chip": "ym2612"
    },
    {
      "channel": 2,
      "note": 69,
      "start": 42.1534,
      "duration": 0.4232,
      "velocity": 117,
      "chip": "ym2612"
    },
    {
      "channel": 4,
      "note": 33,
      "start": 42.1535,
      "duration": 0.2213,
      "velocity": 127,
      "chip": "ym2612"
    },
    {
      "channel": 5,
      "note": 54,
      "start": 42.1537,
      "duration": 0.2213,
      "velocity": 91,
      "chip": "ym2612"
    },
    {
      "channel": 4,
      "note": 64,
      "start": 42.3967,
      "duration": 0.0789,
      "velocity": 127,
      "chip": "ym2612"
    },
    {
      "channel": 5,
      "note": 54,
      "start": 42.3969,
      "duration": 0.22,
      "velocity": 91,
      "chip": "ym2612"
    },
    {
      "channel": 4,
      "note": 61,
      "start": 42.4758,
      "duration": 0.0805,
      "velocity": 127,
      "chip": "ym2612"
    },
    {
      "channel": 4,
      "note": 57,
      "start": 42.5565,
      "duration": 0.0824,
      "velocity": 127,
      "chip": "ym2612"
    },
    {
      "channel": 1,
      "note": 54,
      "start": 42.6371,
      "duration": 0.2217,
      "velocity": 100,
      "chip": "ym2612"
    },
    {
      "channel": 2,
      "note": 54,
      "start": 42.6373,
      "duration": 0.2217,
      "velocity": 117,
      "chip": "ym2612"
    },
    {
      "channel": 3,
      "note": 45,
      "start": 42.6374,
      "duration": 1.6934,
      "velocity": 127,
      "chip": "ym2612"
    },
    {
      "channel": 4,
      "note": 33,
      "start": 42.6391,
      "duration": 0.22,
      "velocity": 127,
      "chip": "ym2612"
    },
    {
      "channel": 5,
      "note": 54,
      "start": 42.6392,
      "duration": 0.22,
      "velocity": 91,
      "chip": "ym2612"
    },
    {
      "channel": 1,
      "note": 72,
      "start": 42.879,
      "duration": 0.2218,
      "velocity": 100,
      "chip": "ym2612"
    },
    {
      "channel": 2,
      "note": 72,
      "start": 42.8792,
      "duration": 0.2217,
      "velocity": 117,
      "chip": "ym2612"
    },
    {
      "channel": 4,
      "note": 33,
      "start": 42.8793,
      "duration": 0.2218,
      "velocity": 127,
      "chip": "ym2612"
    },
    {
      "channel": 5,
      "note": 54,
      "start": 42.8794,
      "duration": 0.2217,
      "velocity": 91,
      "chip": "ym2612"
    },
    {
      "channel": 1,
      "note": 71,
      "start": 43.121,
      "duration": 1.3913,
      "velocity": 100,
      "chip": "ym2612"
    },
    {
      "channel": 2,
      "note": 71,
      "start": 43.1212,
      "duration": 1.3912,
      "velocity": 117,
      "chip": "ym2612"
    },
    {
      "channel": 4,
      "note": 68,
      "start": 43.1228,
      "duration": 0.2199,
      "velocity": 127,
      "chip": "ym2612"
    },
    {
      "channel": 5,
      "note": 64,
      "start": 43.123,
      "duration": 0.2198,
      "velocity": 91,
      "chip": "ym2612"
    },
    {
      "channel": 4,
      "note": 33,
      "start": 43.3644,
      "duration": 0.2203,
      "velocity": 127,
      "chip": "ym2612"
    },
    {
      "channel": 5,
      "note": 66,
      "start": 43.3646,
      "duration": 0.2202,
      "velocity": 91,
      "chip": "ym2612"
    },
    {
      "channel": 4,
      "note": 33,
      "start": 43.6049,
      "duration": 0.2218,
      "velocity": 127,
      "chip": "ym2612"
    },
    {
      "channel": 5,
      "note": 54,
      "start": 43.6051,
      "duration": 0.2217,
      "velocity": 91,
      "chip": "ym2612"
    },
    {
      "channel": 4,
      "note": 33,
      "start": 43.8469,
      "duration": 0.2217,
      "velocity": 127,
      "chip": "ym2612"
    },
    {
      "channel": 5,
      "note": 54,
      "start": 43.847,
      "duration": 0.2218,
      "velocity": 91,
      "chip": "ym2612"
    },
    {
      "channel": 4,
      "note": 68,
      "start": 44.0903,
      "duration": 0.2203,
      "velocity": 127,
      "chip": "ym2612"
    },
    {
      "channel": 5,
      "note": 63,
      "start": 44.0905,
      "duration": 0.2202,
      "velocity": 91,
      "chip": "ym2612"
    },
    {
      "channel": 4,
      "note": 64,
      "start": 44.3325,
      "duration": 0.0789,
      "velocity": 127,
      "chip": "ym2612"
    },
    {
      "channel": 5,
      "note": 64,
      "start": 44.3327,
      "duration": 0.2203,
      "velocity": 91,
      "chip": "ym2612"
    },
    {
      "channel": 4,
      "note": 61,
      "start": 44.4116,
      "duration": 0.0805,
      "velocity": 127,
      "chip": "ym2612"
    },
    {
      "channel": 4,
      "note": 57,
      "start": 44.4922,
      "duration": 0.0824,
      "velocity": 127,
      "chip": "ym2612"
    },
    {
      "channel": 1,
      "note": 54,
      "start": 44.5728,
      "duration": 0.2217,
      "velocity": 100,
      "chip": "ym2612"
    },
    {
      "channel": 2,
      "note": 54,
      "start": 44.573,
      "duration": 0.2216,
      "velocity": 117,
      "chip": "ym2612"
    },
    {
      "channel": 3,
      "note": 45,
      "start": 44.5731,
      "duration": 1.6934,
      "velocity": 127,
      "chip": "ym2612"
    },
    {
      "channel": 4,
      "note": 33,
      "start": 44.5749,
      "duration": 0.2199,
      "velocity": 127,
      "chip": "ym2612"
    },
    {
      "channel": 5,
      "note": 54,
      "start": 44.575,
      "duration": 0.2199,
      "velocity": 91,
      "chip": "ym2612"
    },
    {
      "channel": 1,
      "note": 72,
      "start": 44.8147,
      "duration": 0.2218,
      "velocity": 100,
      "chip": "ym2612"
    },
    {
      "channel": 2,
      "note": 72,
      "start": 44.8149,
      "duration": 0.2218,
      "velocity": 117,
      "chip": "ym2612"
    },
    {
      "channel": 4,
      "note": 33,
      "start": 44.8151,
      "duration": 0.2217,
      "velocity": 127,
      "chip": "ym2612"
    },
    {
      "channel": 5,
      "note": 54,
      "start": 44.8152,
      "duration": 0.2217,
      "velocity": 91,
      "chip": "ym2612"
    },
    {
      "channel": 1,
      "note": 71,
      "start": 45.0567,
      "duration": 0.2217,
      "velocity": 100,
      "chip": "ym2612"
    },
    {
      "channel": 2,
      "note": 71,
      "start": 45.0568,
      "duration": 0.2217,
      "velocity": 117,
      "chip": "ym2612"
    },
    {
      "channel": 4,
      "note": 68,
      "start": 45.0585,
      "duration": 0.2202,
      "velocity": 127,
      "chip": "ym2612"
    },
    {
      "channel": 5,
      "note": 61,
      "start": 45.0587,
      "duration": 0.2202,
      "velocity": 91,
      "chip": "ym2612"
    },
    {
      "channel": 1,
      "note": 66,
      "start": 45.2987,
      "duration": 1.1896,
      "velocity": 100,
      "chip": "ym2612"
    },
    {
      "channel": 2,
      "note": 66,
      "start": 45.2989,
      "duration": 1.1895,
      "velocity": 117,
      "chip": "ym2612"
    },
    {
      "channel": 4,
      "note": 33,
      "start": 45.3005,
      "duration": 0.2199,
      "velocity": 127,
      "chip": "ym2612"
    },
    {
      "channel": 5,
      "note": 63,
      "start": 45.3007,
      "duration": 0.2199,
      "velocity": 91,
      "chip": "ym2612"
    },
    {
      "channel": 4,
      "note": 33,
      "start": 45.5406,
      "duration": 0.2218,
      "velocity": 127,
      "chip": "ym2612"
    },
    {
      "channel": 5,
      "note": 54,
      "start": 45.5408,
      "duration": 0.2218,
      "velocity": 91,
      "chip": "ym2612"
    },
    {
      "channel": 4,
      "note": 33,
      "start": 45.7826,
      "duration": 0.2218,
      "velocity": 127,
      "chip": "ym2612"
    },
    {
      "channel": 5,
      "note": 54,
      "start": 45.7827,
      "duration": 0.2217,
      "velocity": 91,
      "chip": "ym2612"
    },
    {
      "channel": 4,
      "note": 68,
      "start": 46.0261,
      "duration": 0.2203,
      "velocity": 127,
      "chip": "ym2612"
    },
    {
      "channel": 5,
      "note": 60,
      "start": 46.0263,
      "duration": 0.2202,
      "velocity": 91,
      "chip": "ym2612"
    },
    {
      "channel": 4,
      "note": 64,
      "start": 46.2682,
      "duration": 0.079,
      "velocity": 127,
      "chip": "ym2612"
    },
    {
      "channel": 5,
      "note": 61,
      "start": 46.2684,
      "duration": 0.2202,
      "velocity": 91,
      "chip": "ym2612"
    },
    {
      "channel": 4,
      "note": 61,
      "start": 46.3472,
      "duration": 0.0806,
      "velocity": 127,
      "chip": "ym2612"
    },
    {
      "channel": 4,
      "note": 57,
      "start": 46.428,
      "duration": 0.0824,
      "velocity": 127,
      "chip": "ym2612"
    },
    {
      "channel": 1,
      "note": 54,
      "start": 46.5085,
      "duration": 0.2217,
      "velocity": 100,
      "chip": "ym2612"
    },
    {
      "channel": 2,
      "note": 54,
      "start": 46.5087,
      "duration": 0.2217,
      "velocity": 117,
      "chip": "ym2612"
    },
    {
      "channel": 3,
      "note": 45,
      "start": 46.5088,
      "duration": 1.6934,
      "velocity": 127,
      "chip": "ym2612"
    },
    {
      "channel": 4,
      "note": 33,
      "start": 46.5105,
      "duration": 0.22,
      "velocity": 127,
      "chip": "ym2612"
    },
    {
      "channel": 5,
      "note": 54,
      "start": 46.5107,
      "duration": 0.2199,
      "velocity": 91,
      "chip": "ym2612"
    },
    {
      "channel": 1,
      "note": 72,
      "start": 46.7505,
      "duration": 0.2217,
      "velocity": 100,
      "chip": "ym2612"
    },
    {
      "channel": 2,
      "note": 72,
      "start": 46.7507,
      "duration": 0.2217,
      "velocity": 117,
      "chip": "ym2612"
    },
    {
      "channel": 4,
      "note": 33,
      "start": 46.7508,
      "duration": 0.2217,
      "velocity": 127,
      "chip": "ym2612"
    },
    {
      "channel": 5,
      "note": 54,
      "start": 46.7509,
      "duration": 0.2217,
      "velocity": 91,
      "chip": "ym2612"
    },
    {
      "channel": 1,
      "note": 71,
      "start": 46.9925,
      "duration": 1.3912,
      "velocity": 100,
      "chip": "ym2612"
    },
    {
      "channel": 2,
      "note": 71,
      "start": 46.9927,
      "duration": 1.3912,
      "velocity": 117,
      "chip": "ym2612"
    },
    {
      "channel": 4,
      "note": 68,
      "start": 46.9943,
      "duration": 0.2199,
      "velocity": 127,
      "chip": "ym2612"
    },
    {
      "channel": 5,
      "note": 64,
      "start": 46.9944,
      "duration": 0.2199,
      "velocity": 91,
      "chip": "ym2612"
    },
    {
      "channel": 4,
      "note": 33,
      "start": 47.2363,
      "duration": 0.2199,
      "velocity": 127,
      "chip": "ym2612"
    },
    {
      "channel": 5,
      "note": 66,
      "start": 47.2365,
      "duration": 0.2199,
      "velocity": 91,
      "chip": "ym2612"
    },
    {
      "channel": 4,
      "note": 33,
      "start": 47.4764,
      "duration": 0.2218,
      "velocity": 127,
      "chip": "ym2612"
    },
    {
      "channel": 5,
      "note": 54,
      "start": 47.4766,
      "duration": 0.2217,
      "velocity": 91,
      "chip": "ym2612"
    },
    {
      "channel": 4,
      "note": 33,
      "start": 47.7184,
      "duration": 0.2217,
      "velocity": 127,
      "chip": "ym2612"
    },
    {
      "channel": 5,
      "note": 54,
      "start": 47.7185,
      "duration": 0.2218,
      "velocity": 91,
      "chip": "ym2612"
    },
    {
      "channel": 4,
      "note": 68,
      "start": 47.9618,
      "duration": 0.2202,
      "velocity": 127,
      "chip": "ym2612"
    },
    {
      "channel": 5,
      "note": 63,
      "start": 47.9619,
      "duration": 0.2202,
      "velocity": 91,
      "chip": "ym2612"
    },
    {
      "channel": 4,
      "note": 64,
      "start": 48.2043,
      "duration": 0.0786,
      "velocity": 127,
      "chip": "ym2612"
    },
    {
      "channel": 5,
      "note": 64,
      "start": 48.2045,
      "duration": 0.2195,
      "velocity": 91,
      "chip": "ym2612"
    },
    {
      "channel": 4,
      "note": 61,
      "start": 48.283,
      "duration": 0.0806,
      "velocity": 127,
      "chip": "ym2612"
    },
    {
      "channel": 4,
      "note": 57,
      "start": 48.3637,
      "duration": 0.0824,
      "velocity": 127,
      "chip": "ym2612"
    },
    {
      "channel": 1,
      "note": 54,
      "start": 48.4443,
      "duration": 0.2217,
      "velocity": 100,
      "chip": "ym2612"
    },
    {
      "channel": 2,
      "note": 54,
      "start": 48.4444,
      "duration": 0.2216,
      "velocity": 117,
      "chip": "ym2612"
    },
    {
      "channel": 3,
      "note": 45,
      "start": 48.4445,
      "duration": 1.6935,
      "velocity": 127,
      "chip": "ym2612"
    },
    {
      "channel": 4,
      "note": 33,
      "start": 48.4462,
      "duration": 0.22,
      "velocity": 127,
      "chip": "ym2612"
    },
    {
      "channel": 5,
      "note": 54,
      "start": 48.4464,
      "duration": 0.22,
      "velocity": 91,
      "chip": "ym2612"
    },
    {
      "channel": 1,
      "note": 72,
      "start": 48.6866,
      "duration": 0.2214,
      "velocity": 100,
      "chip": "ym2612"
    },
    {
      "channel": 2,
      "note": 72,
      "start": 48.6868,
      "duration": 0.2213,
      "velocity": 117,
      "chip": "ym2612"
    },
    {
      "channel": 4,
      "note": 33,
      "start": 48.6869,
      "duration": 0.2213,
      "velocity": 127,
      "chip": "ym2612"
    },
    {
      "channel": 5,
      "note": 54,
      "start": 48.6871,
      "duration": 0.2213,
      "velocity": 91,
      "chip": "ym2612"
    },
    {
      "channel": 1,
      "note": 71,
      "start": 48.9282,
      "duration": 0.2217,
      "velocity": 100,
      "chip": "ym2612"
    },
    {
      "channel": 2,
      "note": 71,
      "start": 48.9283,
      "duration": 0.2217,
      "velocity": 117,
      "chip": "ym2612"
    },
    {
      "channel": 4,
      "note": 68,
      "start": 48.93,
      "duration": 0.2202,
      "velocity": 127,
      "chip": "ym2612"
    },
    {
      "channel": 5,
      "note": 61,
      "start": 48.9302,
      "duration": 0.2201,
      "velocity": 91,
      "chip": "ym2612"
    },
    {
      "channel": 1,
      "note": 66,
      "start": 49.1701,
      "duration": 0.6452,
      "velocity": 100,
      "chip": "ym2612"
    },
    {
      "channel": 2,
      "note": 66,
      "start": 49.1703,
      "duration": 0.6451,
      "velocity": 117,
      "chip": "ym2612"
    },
    {
      "channel": 4,
      "note": 33,
      "start": 49.172,
      "duration": 0.2199,
      "velocity": 127,
      "chip": "ym2612"
    },
    {
      "channel": 5,
      "note": 63,
      "start": 49.1721,
      "duration": 0.2199,
      "velocity": 91,
      "chip": "ym2612"
    },
    {
      "channel": 4,
      "note": 33,
      "start": 49.4121,
      "duration": 0.2219,
      "velocity": 127,
      "chip": "ym2612"
    },
    {
      "channel": 5,
      "note": 54,
      "start": 49.4123,
      "duration": 0.2218,
      "velocity": 91,
      "chip": "ym2612"
    },
    {
      "channel": 4,
      "note": 33,
      "start": 49.6541,
      "duration": 0.2218,
      "velocity": 127,
      "chip": "ym2612"
    },
    {
      "channel": 5,
      "note": 54,
      "start": 49.6542,
      "duration": 0.2217,
      "velocity": 91,
      "chip": "ym2612"
    },
    {
      "channel": 1,
      "note": 69,
      "start": 49.8961,
      "duration": 0.4237,
      "velocity": 100,
      "chip": "ym2612"
    },
    {
      "channel": 2,
      "note": 69,
      "start": 49.8963,
      "duration": 0.4237,
      "velocity": 117,
      "chip": "ym2612"
    },
    {
      "channel": 4,
      "note": 68,
      "start": 49.8979,
      "duration": 0.2199,
      "velocity": 127,
      "chip": "ym2612"
    },
    {
      "channel": 5,
      "note": 60,
      "start": 49.8981,
      "duration": 0.2198,
      "velocity": 91,
      "chip": "ym2612"
    },
    {
      "channel": 4,
      "note": 64,
      "start": 50.1397,
      "duration": 0.0789,
      "velocity": 127,
      "chip": "ym2612"
    },
    {
      "channel": 5,
      "note": 61,
      "start": 50.1399,
      "duration": 0.2199,
      "velocity": 91,
      "chip": "ym2612"
    },
    {
      "channel": 4,
      "note": 61,
      "start": 50.2188,
      "duration": 0.0805,
      "velocity": 127,
      "chip": "ym2612"
    },
    {
      "channel": 4,
      "note": 57,
      "start": 50.2994,
      "duration": 0.085,
      "velocity": 127,
      "chip": "ym2612"
    },
    {
      "channel": 1,
      "note": 54,
      "start": 50.3815,
      "duration": 0.2717,
      "velocity": 101,
      "chip": "ym2612"
    },
    {
      "channel": 3,
      "note": 45,
      "start": 50.3829,
      "duration": 1.0538,
      "velocity": 127,
      "chip": "ym2612"
    },
    {
      "channel": 4,
      "note": 33,
      "start": 50.3845,
      "duration": 1.0522,
      "velocity": 127,
      "chip": "ym2612"
    },
    {
      "channel": 5,
      "note": 54,
      "start": 50.3847,
      "duration": 2.0883,
      "velocity": 91,
      "chip": "ym2612"
    },
    {
      "channel": 1,
      "note": 72,
      "start": 50.6783,
      "duration": 0.2779,
      "velocity": 101,
      "chip": "ym2612"
    },
    {
      "channel": 2,
      "note": 54,
      "start": 50.6787,
      "duration": 0.2776,
      "velocity": 101,
      "chip": "ym2612"
    },
    {
      "channel": 1,
      "note": 71,
      "start": 50.9816,
      "duration": 1.7443,
      "velocity": 101,
      "chip": "ym2612"
    },
    {
      "channel": 2,
      "note": 72,
      "start": 50.9818,
      "duration": 0.2779,
      "velocity": 101,
      "chip": "ym2612"
    },
    {
      "channel": 2,
      "note": 71,
      "start": 51.285,
      "duration": 1.7443,
      "velocity": 101,
      "chip": "ym2612"
    },
    {
      "channel": 3,
      "note": 45,
      "start": 52.4984,
      "duration": 0.278,
      "velocity": 127,
      "chip": "ym2612"
    },
    {
      "channel": 4,
      "note": 33,
      "start": 52.4986,
      "duration": 0.278,
      "velocity": 127,
      "chip": "ym2612"
    },
    {
      "channel": 5,
      "note": 54,
      "start": 52.4987,
      "duration": 0.278,
      "velocity": 91,
      "chip": "ym2612"
    },
    {
      "channel": 1,
      "note": 54,
      "start": 52.8018,
      "duration": 0.278,
      "velocity": 101,
      "chip": "ym2612"
    },
    {
      "channel": 3,
      "note": 45,
      "start": 52.802,
      "duration": 1.0616,
      "velocity": 127,
      "chip": "ym2612"
    },
    {
      "channel": 4,
      "note": 33,
      "start": 52.8021,
      "duration": 1.0616,
      "velocity": 127,
      "chip": "ym2612"
    },
    {
      "channel": 5,
      "note": 54,
      "start": 52.8022,
      "duration": 2.0978,
      "velocity": 91,
      "chip": "ym2612"
    },
    {
      "channel": 1,
      "note": 72,
      "start": 53.1051,
      "duration": 0.278,
      "velocity": 101,
      "chip": "ym2612"
    },
    {
      "channel": 2,
      "note": 54,
      "start": 53.1053,
      "duration": 0.2779,
      "velocity": 101,
      "chip": "ym2612"
    },
    {
      "channel": 1,
      "note": 71,
      "start": 53.4085,
      "duration": 0.278,
      "velocity": 101,
      "chip": "ym2612"
    },
    {
      "channel": 2,
      "note": 72,
      "start": 53.4086,
      "duration": 0.278,
      "velocity": 101,
      "chip": "ym2612"
    },
    {
      "channel": 1,
      "note": 66,
      "start": 53.7119,
      "duration": 1.4914,
      "velocity": 101,
      "chip": "ym2612"
    },
    {
      "channel": 2,
      "note": 71,
      "start": 53.7121,
      "duration": 0.2779,
      "velocity": 101,
      "chip": "ym2612"
    },
    {
      "channel": 2,
      "note": 66,
      "start": 54.0152,
      "duration": 1.4915,
      "velocity": 101,
      "chip": "ym2612"
    },
    {
      "channel": 3,
      "note": 45,
      "start": 54.9253,
      "duration": 0.2781,
      "velocity": 127,
      "chip": "ym2612"
    },
    {
      "channel": 4,
      "note": 33,
      "start": 54.9255,
      "duration": 0.278,
      "velocity": 127,
      "chip": "ym2612"
    },
    {
      "channel": 5,
      "note": 54,
      "start": 54.9256,
      "duration": 0.2781,
      "velocity": 91,
      "chip": "ym2612"
    },
    {
      "channel": 1,
      "note": 54,
      "start": 55.2287,
      "duration": 0.278,
      "velocity": 101,
      "chip": "ym2612"
    },
    {
      "channel": 3,
      "note": 45,
      "start": 55.2289,
      "duration": 1.0615,
      "velocity": 127,
      "chip": "ym2612"
    },
    {
      "channel": 4,
      "note": 33,
      "start": 55.229,
      "duration": 1.0615,
      "velocity": 127,
      "chip": "ym2612"
    },
    {
      "channel": 5,
      "note": 54,
      "start": 55.2291,
      "duration": 2.0978,
      "velocity": 91,
      "chip": "ym2612"
    },
    {
      "channel": 1,
      "note": 72,
      "start": 55.532,
      "duration": 0.278,
      "velocity": 101,
      "chip": "ym2612"
    },
    {
      "channel": 2,
      "note": 54,
      "start": 55.5322,
      "duration": 0.278,
      "velocity": 101,
      "chip": "ym2612"
    },
    {
      "channel": 1,
      "note": 71,
      "start": 55.8354,
      "duration": 1.7443,
      "velocity": 101,
      "chip": "ym2612"
    },
    {
      "channel": 2,
      "note": 72,
      "start": 55.8356,
      "duration": 0.2779,
      "velocity": 101,
      "chip": "ym2612"
    },
    {
      "channel": 2,
      "note": 71,
      "start": 56.1388,
      "duration": 1.7443,
      "velocity": 101,
      "chip": "ym2612"
    },
    {
      "channel": 3,
      "note": 45,
      "start": 57.3522,
      "duration": 0.278,
      "velocity": 127,
      "chip": "ym2612"
    },
    {
      "channel": 4,
      "note": 33,
      "start": 57.3524,
      "duration": 0.278,
      "velocity": 127,
      "chip": "ym2612"
    },
    {
      "channel": 5,
      "note": 54,
      "start": 57.3525,
      "duration": 0.278,
      "velocity": 91,
      "chip": "ym2612"
    },
    {
      "channel": 1,
      "note": 54,
      "start": 57.6556,
      "duration": 0.278,
      "velocity": 101,
      "chip": "ym2612"
    },
    {
      "channel": 3,
      "note": 45,
      "start": 57.6557,
      "duration": 2.1236,
      "velocity": 127,
      "chip": "ym2612"
    },
    {
      "channel": 5,
      "note": 54,
      "start": 57.6558,
      "duration": 0.2779,
      "velocity": 91,
      "chip": "ym2612"
    },
    {
      "channel": 1,
      "note": 72,
      "start": 57.959,
      "duration": 0.278,
      "velocity": 101,
      "chip": "ym2612"
    },
    {
      "channel": 2,
      "note": 54,
      "start": 57.9591,
      "duration": 0.2779,
      "velocity": 101,
      "chip": "ym2612"
    },
    {
      "channel": 4,
      "note": 33,
      "start": 57.9593,
      "duration": 0.2779,
      "velocity": 127,
      "chip": "ym2612"
    },
    {
      "channel": 5,
      "note": 54,
      "start": 57.9595,
      "duration": 0.2779,
      "velocity": 91,
      "chip": "ym2612"
    },
    {
      "channel": 1,
      "note": 71,
      "start": 58.2623,
      "duration": 0.278,
      "velocity": 101,
      "chip": "ym2612"
    },
    {
      "channel": 2,
      "note": 72,
      "start": 58.2625,
      "duration": 0.2779,
      "velocity": 101,
      "chip": "ym2612"
    },
    {
      "channel": 4,
      "note": 33,
      "start": 58.2626,
      "duration": 0.278,
      "velocity": 127,
      "chip": "ym2612"
    },
    {
      "channel": 5,
      "note": 54,
      "start": 58.2628,
      "duration": 0.278,
      "velocity": 91,
      "chip": "ym2612"
    },
    {
      "channel": 1,
      "note": 66,
      "start": 58.5657,
      "duration": 0.8088,
      "velocity": 101,
      "chip": "ym2612"
    },
    {
      "channel": 2,
      "note": 71,
      "start": 58.5659,
      "duration": 0.2778,
      "velocity": 101,
      "chip": "ym2612"
    },
    {
      "channel": 4,
      "note": 33,
      "start": 58.566,
      "duration": 0.2778,
      "velocity": 127,
      "chip": "ym2612"
    },
    {
      "channel": 5,
      "note": 54,
      "start": 58.5661,
      "duration": 0.2778,
      "velocity": 91,
      "chip": "ym2612"
    },
    {
      "channel": 2,
      "note": 66,
      "start": 58.8691,
      "duration": 0.8088,
      "velocity": 101,
      "chip": "ym2612"
    },
    {
      "channel": 4,
      "note": 33,
      "start": 58.8693,
      "duration": 0.2778,
      "velocity": 127,
      "chip": "ym2612"
    },
    {
      "channel": 5,
      "note": 54,
      "start": 58.8697,
      "duration": 0.2775,
      "velocity": 91,
      "chip": "ym2612"
    },
    {
      "channel": 4,
      "note": 33,
      "start": 59.1724,
      "duration": 0.2781,
      "velocity": 127,
      "chip": "ym2612"
    },
    {
      "channel": 5,
      "note": 54,
      "start": 59.1725,
      "duration": 0.2781,
      "velocity": 91,
      "chip": "ym2612"
    },
    {
      "channel": 1,
      "note": 69,
      "start": 59.4757,
      "duration": 0.5308,
      "velocity": 101,
      "chip": "ym2612"
    },
    {
      "channel": 4,
      "note": 33,
      "start": 59.4759,
      "duration": 0.2779,
      "velocity": 127,
      "chip": "ym2612"
    },
    {
      "channel": 5,
      "note": 54,
      "start": 59.476,
      "duration": 0.2779,
      "velocity": 91,
      "chip": "ym2612"
    },
    {
      "channel": 2,
      "note": 69,
      "start": 59.7792,
      "duration": 0.2779,
      "velocity": 101,
      "chip": "ym2612"
    },
    {
      "channel": 4,
      "note": 64,
      "start": 59.781,
      "duration": 0.0993,
      "velocity": 127,
      "chip": "ym2612"
    },
    {
      "channel": 5,
      "note": 54,
      "start": 59.7811,
      "duration": 0.2762,
      "velocity": 91,
      "chip": "ym2612"
    },
    {
      "channel": 4,
      "note": 61,
      "start": 59.8803,
      "duration": 0.101,
      "velocity": 127,
      "chip": "ym2612"
    },
    {
      "channel": 4,
      "note": 57,
      "start": 59.9815,
      "duration": 0.1062,
      "velocity": 127,
      "chip": "ym2612"
    },
    {
      "channel": 1,
      "note": 54,
      "start": 60.0839,
      "duration": 0.2254,
      "velocity": 100,
      "chip": "ym2612"
    },
    {
      "channel": 2,
      "note": 54,
      "start": 60.0856,
      "duration": 0.2239,
      "velocity": 117,
      "chip": "ym2612"
    },
    {
      "channel": 3,
      "note": 45,
      "start": 60.0857,
      "duration": 1.6956,
      "velocity": 127,
      "chip": "ym2612"
    },
    {
      "channel": 4,
      "note": 33,
      "start": 60.0878,
      "duration": 0.2218,
      "velocity": 127,
      "chip": "ym2612"
    },
    {
      "channel": 5,
      "note": 54,
      "start": 60.088,
      "duration": 0.2217,
      "velocity": 91,
      "chip": "ym2612"
    },
    {
      "channel": 1,
      "note": 72,
      "start": 60.3296,
      "duration": 0.2217,
      "velocity": 100,
      "chip": "ym2612"
    },
    {
      "channel": 2,
      "note": 72,
      "start": 60.3298,
      "duration": 0.2217,
      "velocity": 117,
      "chip": "ym2612"
    },
    {
      "channel": 4,
      "note": 33,
      "start": 60.3299,
      "duration": 0.2217,
      "velocity": 127,
      "chip": "ym2612"
    },
    {
      "channel": 5,
      "note": 54,
      "start": 60.33,
      "duration": 0.2217,
      "velocity": 91,
      "chip": "ym2612"
    },
    {
      "channel": 1,
      "note": 71,
      "start": 60.5715,
      "duration": 1.3912,
      "velocity": 100,
      "chip": "ym2612"
    },
    {
      "channel": 2,
      "note": 71,
      "start": 60.5717,
      "duration": 1.3912,
      "velocity": 117,
      "chip": "ym2612"
    },
    {
      "channel": 4,
      "note": 33,
      "start": 60.5719,
      "duration": 0.2215,
      "velocity": 127,
      "chip": "ym2612"
    },
    {
      "channel": 5,
      "note": 54,
      "start": 60.572,
      "duration": 0.2214,
      "velocity": 91,
      "chip": "ym2612"
    },
    {
      "channel": 4,
      "note": 33,
      "start": 60.8135,
      "duration": 0.2218,
      "velocity": 127,
      "chip": "ym2612"
    },
    {
      "channel": 5,
      "note": 54,
      "start": 60.8136,
      "duration": 0.2218,
      "velocity": 91,
      "chip": "ym2612"
    },
    {
      "channel": 4,
      "note": 33,
      "start": 61.0554,
      "duration": 0.2218,
      "velocity": 127,
      "chip": "ym2612"
    },
    {
      "channel": 5,
      "note": 54,
      "start": 61.0556,
      "duration": 0.2217,
      "velocity": 91,
      "chip": "ym2612"
    },
    {
      "channel": 4,
      "note": 33,
      "start": 61.2974,
      "duration": 0.2221,
      "velocity": 127,
      "chip": "ym2612"
    },
    {
      "channel": 5,
      "note": 54,
      "start": 61.2976,
      "duration": 0.2222,
      "velocity": 91,
      "chip": "ym2612"
    },
    {
      "channel": 4,
      "note": 33,
      "start": 61.5394,
      "duration": 0.2218,
      "velocity": 127,
      "chip": "ym2612"
    },
    {
      "channel": 5,
      "note": 54,
      "start": 61.5395,
      "duration": 0.2218,
      "velocity": 91,
      "chip": "ym2612"
    },
    {
      "channel": 4,
      "note": 64,
      "start": 61.7831,
      "duration": 0.0789,
      "velocity": 127,
      "chip": "ym2612"
    },
    {
      "channel": 5,
      "note": 54,
      "start": 61.7832,
      "duration": 0.22,
      "velocity": 91,
      "chip": "ym2612"
    },
    {
      "channel": 4,
      "note": 61,
      "start": 61.8621,
      "duration": 0.0806,
      "velocity": 127,
      "chip": "ym2612"
    },
    {
      "channel": 4,
      "note": 57,
      "start": 61.9428,
      "duration": 0.0824,
      "velocity": 127,
      "chip": "ym2612"
    },
    {
      "channel": 1,
      "note": 54,
      "start": 62.0233,
      "duration": 0.2217,
      "velocity": 100,
      "chip": "ym2612"
    },
    {
      "channel": 2,
      "note": 54,
      "start": 62.0235,
      "duration": 0.2217,
      "velocity": 117,
      "chip": "ym2612"
    },
    {
      "channel": 3,
      "note": 45,
      "start": 62.0237,
      "duration": 1.6934,
      "velocity": 127,
      "chip": "ym2612"
    },
    {
      "channel": 4,
      "note": 33,
      "start": 62.0254,
      "duration": 0.22,
      "velocity": 127,
      "chip": "ym2612"
    },
    {
      "channel": 5,
      "note": 54,
      "start": 62.0255,
      "duration": 0.22,
      "velocity": 91,
      "chip": "ym2612"
    },
    {
      "channel": 1,
      "note": 72,
      "start": 62.2653,
      "duration": 0.2217,
      "velocity": 100,
      "chip": "ym2612"
    },
    {
      "channel": 2,
      "note": 72,
      "start": 62.2655,
      "duration": 0.2216,
      "velocity": 117,
      "chip": "ym2612"
    },
    {
      "channel": 4,
      "note": 33,
      "start": 62.2656,
      "duration": 0.2217,
      "velocity": 127,
      "chip": "ym2612"
    },
    {
      "channel": 5,
      "note": 54,
      "start": 62.2658,
      "duration": 0.2217,
      "velocity": 91,
      "chip": "ym2612"
    },
    {
      "channel": 1,
      "note": 71,
      "start": 62.5073,
      "duration": 0.2217,
      "velocity": 100,
      "chip": "ym2612"
    },
    {
      "channel": 2,
      "note": 71,
      "start": 62.5075,
      "duration": 0.2216,
      "velocity": 117,
      "chip": "ym2612"
    },
    {
      "channel": 4,
      "note": 33,
      "start": 62.5076,
      "duration": 0.2216,
      "velocity": 127,
      "chip": "ym2612"
    },
    {
      "channel": 5,
      "note": 54,
      "start": 62.5077,
      "duration": 0.2216,
      "velocity": 91,
      "chip": "ym2612"
    },
    {
      "channel": 1,
      "note": 66,
      "start": 62.7493,
      "duration": 1.1895,
      "velocity": 100,
      "chip": "ym2612"
    },
    {
      "channel": 2,
      "note": 66,
      "start": 62.7495,
      "duration": 1.1894,
      "velocity": 117,
      "chip": "ym2612"
    },
    {
      "channel": 4,
      "note": 33,
      "start": 62.7496,
      "duration": 0.2215,
      "velocity": 127,
      "chip": "ym2612"
    },
    {
      "channel": 5,
      "note": 54,
      "start": 62.7497,
      "duration": 0.2214,
      "velocity": 91,
      "chip": "ym2612"
    },
    {
      "channel": 4,
      "note": 33,
      "start": 62.9911,
      "duration": 0.2218,
      "velocity": 127,
      "chip": "ym2612"
    },
    {
      "channel": 5,
      "note": 54,
      "start": 62.9913,
      "duration": 0.2218,
      "velocity": 91,
      "chip": "ym2612"
    },
    {
      "channel": 4,
      "note": 33,
      "start": 63.2332,
      "duration": 0.2218,
      "velocity": 127,
      "chip": "ym2612"
    },
    {
      "channel": 5,
      "note": 54,
      "start": 63.2333,
      "duration": 0.2218,
      "velocity": 91,
      "chip": "ym2612"
    },
    {
      "channel": 4,
      "note": 33,
      "start": 63.4751,
      "duration": 0.2218,
      "velocity": 127,
      "chip": "ym2612"
    },
    {
      "channel": 5,
      "note": 54,
      "start": 63.4752,
      "duration": 0.2218,
      "velocity": 91,
      "chip": "ym2612"
    },
    {
      "channel": 4,
      "note": 64,
      "start": 63.7188,
      "duration": 0.079,
      "velocity": 127,
      "chip": "ym2612"
    },
    {
      "channel": 5,
      "note": 54,
      "start": 63.7189,
      "duration": 0.2202,
      "velocity": 91,
      "chip": "ym2612"
    },
    {
      "channel": 4,
      "note": 61,
      "start": 63.7978,
      "duration": 0.0805,
      "velocity": 127,
      "chip": "ym2612"
    },
    {
      "channel": 4,
      "note": 57,
      "start": 63.8785,
      "duration": 0.0824,
      "velocity": 127,
      "chip": "ym2612"
    },
    {
      "channel": 1,
      "note": 54,
      "start": 63.9591,
      "duration": 0.2218,
      "velocity": 100,
      "chip": "ym2612"
    },
    {
      "channel": 2,
      "note": 54,
      "start": 63.9592,
      "duration": 0.2217,
      "velocity": 117,
      "chip": "ym2612"
    },
    {
      "channel": 3,
      "note": 45,
      "start": 63.9593,
      "duration": 1.6939,
      "velocity": 127,
      "chip": "ym2612"
    },
    {
      "channel": 4,
      "note": 33,
      "start": 63.961,
      "duration": 0.22,
      "velocity": 127,
      "chip": "ym2612"
    },
    {
      "channel": 5,
      "note": 54,
      "start": 63.9612,
      "duration": 0.22,
      "velocity": 91,
      "chip": "ym2612"
    },
    {
      "channel": 1,
      "note": 72,
      "start": 64.2011,
      "duration": 0.2217,
      "velocity": 100,
      "chip": "ym2612"
    },
    {
      "channel": 2,
      "note": 72,
      "start": 64.2012,
      "duration": 0.2216,
      "velocity": 117,
      "chip": "ym2612"
    },
    {
      "channel": 4,
      "note": 33,
      "start": 64.2014,
      "duration": 0.2216,
      "velocity": 127,
      "chip": "ym2612"
    },
    {
      "channel": 5,
      "note": 54,
      "start": 64.2015,
      "duration": 0.2216,
      "velocity": 91,
      "chip": "ym2612"
    },
    {
      "channel": 1,
      "note": 71,
      "start": 64.443,
      "duration": 1.3912,
      "velocity": 100,
      "chip": "ym2612"
    },
    {
      "channel": 2,
      "note": 71,
      "start": 64.4432,
      "duration": 1.3911,
      "velocity": 117,
      "chip": "ym2612"
    },
    {
      "channel": 4,
      "note": 33,
      "start": 64.4434,
      "duration": 0.2214,
      "velocity": 127,
      "chip": "ym2612"
    },
    {
      "channel": 5,
      "note": 54,
      "start": 64.4435,
      "duration": 0.2214,
      "velocity": 91,
      "chip": "ym2612"
    },
    {
      "channel": 4,
      "note": 33,
      "start": 64.685,
      "duration": 0.2217,
      "velocity": 127,
      "chip": "ym2612"
    },
    {
      "channel": 5,
      "note": 54,
      "start": 64.6851,
      "duration": 0.2217,
      "velocity": 91,
      "chip": "ym2612"
    },
    {
      "channel": 4,
      "note": 33,
      "start": 64.9269,
      "duration": 0.2218,
      "velocity": 127,
      "chip": "ym2612"
    },
    {
      "channel": 5,
      "note": 54,
      "start": 64.927,
      "duration": 0.2218,
      "velocity": 91,
      "chip": "ym2612"
    },
    {
      "channel": 4,
      "note": 33,
      "start": 65.1689,
      "duration": 0.2218,
      "velocity": 127,
      "chip": "ym2612"
    },
    {
      "channel": 5,
      "note": 54,
      "start": 65.169,
      "duration": 0.2217,
      "velocity": 91,
      "chip": "ym2612"
    },
    {
      "channel": 4,
      "note": 33,
      "start": 65.4109,
      "duration": 0.2217,
      "velocity": 127,
      "chip": "ym2612"
    },
    {
      "channel": 5,
      "note": 54,
      "start": 65.411,
      "duration": 0.2218,
      "velocity": 91,
      "chip": "ym2612"
    },
    {
      "channel": 4,
      "note": 64,
      "start": 65.6549,
      "duration": 0.0786,
      "velocity": 127,
      "chip": "ym2612"
    },
    {
      "channel": 5,
      "note": 54,
      "start": 65.655,
      "duration": 0.2197,
      "velocity": 91,
      "chip": "ym2612"
    },
    {
      "channel": 4,
      "note": 61,
      "start": 65.7336,
      "duration": 0.0806,
      "velocity": 127,
      "chip": "ym2612"
    },
    {
      "channel": 4,
      "note": 57,
      "start": 65.8143,
      "duration": 0.0824,
      "velocity": 127,
      "chip": "ym2612"
    },
    {
      "channel": 1,
      "note": 54,
      "start": 65.8948,
      "duration": 0.2217,
      "velocity": 100,
      "chip": "ym2612"
    },
    {
      "channel": 2,
      "note": 54,
      "start": 65.8949,
      "duration": 0.2217,
      "velocity": 117,
      "chip": "ym2612"
    },
    {
      "channel": 3,
      "note": 45,
      "start": 65.8951,
      "duration": 1.6934,
      "velocity": 127,
      "chip": "ym2612"
    },
    {
      "channel": 4,
      "note": 33,
      "start": 65.8968,
      "duration": 0.22,
      "velocity": 127,
      "chip": "ym2612"
    },
    {
      "channel": 5,
      "note": 54,
      "start": 65.8969,
      "duration": 0.22,
      "velocity": 91,
      "chip": "ym2612"
    },
    {
      "channel": 1,
      "note": 72,
      "start": 66.1368,
      "duration": 0.2217,
      "velocity": 100,
      "chip": "ym2612"
    },
    {
      "channel": 2,
      "note": 72,
      "start": 66.137,
      "duration": 0.2216,
      "velocity": 117,
      "chip": "ym2612"
    },
    {
      "channel": 4,
      "note": 33,
      "start": 66.1371,
      "duration": 0.2216,
      "velocity": 127,
      "chip": "ym2612"
    },
    {
      "channel": 5,
      "note": 54,
      "start": 66.1373,
      "duration": 0.2216,
      "velocity": 91,
      "chip": "ym2612"
    },
    {
      "channel": 1,
      "note": 71,
      "start": 66.3788,
      "duration": 0.2217,
      "velocity": 100,
      "chip": "ym2612"
    },
    {
      "channel": 2,
      "note": 71,
      "start": 66.3789,
      "duration": 0.2217,
      "velocity": 117,
      "chip": "ym2612"
    },
    {
      "channel": 4,
      "note": 33,
      "start": 66.3791,
      "duration": 0.2217,
      "velocity": 127,
      "chip": "ym2612"
    },
    {
      "channel": 5,
      "note": 54,
      "start": 66.3793,
      "duration": 0.2217,
      "velocity": 91,
      "chip": "ym2612"
    },
    {
      "channel": 1,
      "note": 66,
      "start": 66.6207,
      "duration": 0.6451,
      "velocity": 100,
      "chip": "ym2612"
    },
    {
      "channel": 2,
      "note": 66,
      "start": 66.6209,
      "duration": 0.6451,
      "velocity": 117,
      "chip": "ym2612"
    },
    {
      "channel": 4,
      "note": 33,
      "start": 66.621,
      "duration": 0.2214,
      "velocity": 127,
      "chip": "ym2612"
    },
    {
      "channel": 5,
      "note": 54,
      "start": 66.6212,
      "duration": 0.2215,
      "velocity": 91,
      "chip": "ym2612"
    },
    {
      "channel": 4,
      "note": 33,
      "start": 66.8626,
      "duration": 0.2218,
      "velocity": 127,
      "chip": "ym2612"
    },
    {
      "channel": 5,
      "note": 54,
      "start": 66.8628,
      "duration": 0.2218,
      "velocity": 91,
      "chip": "ym2612"
    },
    {
      "channel": 4,
      "note": 33,
      "start": 67.1046,
      "duration": 0.2217,
      "velocity": 127,
      "chip": "ym2612"
    },
    {
      "channel": 5,
      "note": 54,
      "start": 67.1047,
      "duration": 0.2218,
      "velocity": 91,
      "chip": "ym2612"
    },
    {
      "channel": 1,
      "note": 69,
      "start": 67.3466,
      "duration": 0.4234,
      "velocity": 100,
      "chip": "ym2612"
    },
    {
      "channel": 2,
      "note": 69,
      "start": 67.3468,
      "duration": 0.4233,
      "velocity": 117,
      "chip": "ym2612"
    },
    {
      "channel": 4,
      "note": 33,
      "start": 67.3469,
      "duration": 0.2215,
      "velocity": 127,
      "chip": "ym2612"
    },
    {
      "channel": 5,
      "note": 54,
      "start": 67.3471,
      "duration": 0.2214,
      "velocity": 91,
      "chip": "ym2612"
    },
    {
      "channel": 4,
      "note": 64,
      "start": 67.5902,
      "duration": 0.0794,
      "velocity": 127,
      "chip": "ym2612"
    },
    {
      "channel": 5,
      "note": 54,
      "start": 67.5904,
      "duration": 0.22,
      "velocity": 91,
      "chip": "ym2612"
    },
    {
      "channel": 4,
      "note": 61,
      "start": 67.6697,
      "duration": 0.0801,
      "velocity": 127,
      "chip": "ym2612"
    },
    {
      "channel": 4,
      "note": 57,
      "start": 67.75,
      "duration": 0.0824,
      "velocity": 127,
      "chip": "ym2612"
    },
    {
      "channel": 1,
      "note": 54,
      "start": 67.8305,
      "duration": 0.2217,
      "velocity": 100,
      "chip": "ym2612"
    },
    {
      "channel": 2,
      "note": 54,
      "start": 67.8307,
      "duration": 0.2217,
      "velocity": 117,
      "chip": "ym2612"
    },
    {
      "channel": 3,
      "note": 45,
      "start": 67.8308,
      "duration": 1.6934,
      "velocity": 127,
      "chip": "ym2612"
    },
    {
      "channel": 4,
      "note": 33,
      "start": 67.8325,
      "duration": 0.2204,
      "velocity": 127,
      "chip": "ym2612"
    },
    {
      "channel": 5,
      "note": 54,
      "start": 67.8327,
      "duration": 0.2204,
      "velocity": 91,
      "chip": "ym2612"
    },
    {
      "channel": 1,
      "note": 72,
      "start": 68.0725,
      "duration": 0.2218,
      "velocity": 100,
      "chip": "ym2612"
    },
    {
      "channel": 2,
      "note": 72,
      "start": 68.0727,
      "duration": 0.2217,
      "velocity": 117,
      "chip": "ym2612"
    },
    {
      "channel": 4,
      "note": 33,
      "start": 68.0729,
      "duration": 0.2216,
      "velocity": 127,
      "chip": "ym2612"
    },
    {
      "channel": 5,
      "note": 54,
      "start": 68.073,
      "duration": 0.2216,
      "velocity": 91,
      "chip": "ym2612"
    },
    {
      "channel": 1,
      "note": 71,
      "start": 68.3145,
      "duration": 1.3913,
      "velocity": 100,
      "chip": "ym2612"
    },
    {
      "channel": 2,
      "note": 71,
      "start": 68.3147,
      "duration": 1.3912,
      "velocity": 117,
      "chip": "ym2612"
    },
    {
      "channel": 4,
      "note": 68,
      "start": 68.3163,
      "duration": 0.2202,
      "velocity": 127,
      "chip": "ym2612"
    },
    {
      "channel": 5,
      "note": 64,
      "start": 68.3165,
      "duration": 0.2201,
      "velocity": 91,
      "chip": "ym2612"
    },
    {
      "channel": 4,
      "note": 33,
      "start": 68.5579,
      "duration": 0.2203,
      "velocity": 127,
      "chip": "ym2612"
    },
    {
      "channel": 5,
      "note": 66,
      "start": 68.5581,
      "duration": 0.2202,
      "velocity": 91,
      "chip": "ym2612"
    },
    {
      "channel": 4,
      "note": 33,
      "start": 68.7984,
      "duration": 0.2217,
      "velocity": 127,
      "chip": "ym2612"
    },
    {
      "channel": 5,
      "note": 54,
      "start": 68.7986,
      "duration": 0.2217,
      "velocity": 91,
      "chip": "ym2612"
    },
    {
      "channel": 4,
      "note": 33,
      "start": 69.0404,
      "duration": 0.2218,
      "velocity": 127,
      "chip": "ym2612"
    },
    {
      "channel": 5,
      "note": 54,
      "start": 69.0405,
      "duration": 0.2218,
      "velocity": 91,
      "chip": "ym2612"
    },
    {
      "channel": 4,
      "note": 68,
      "start": 69.2839,
      "duration": 0.2203,
      "velocity": 127,
      "chip": "ym2612"
    },
    {
      "channel": 5,
      "note": 63,
      "start": 69.284,
      "duration": 0.2203,
      "velocity": 91,
      "chip": "ym2612"
    },
    {
      "channel": 4,
      "note": 64,
      "start": 69.526,
      "duration": 0.079,
      "velocity": 127,
      "chip": "ym2612"
    },
    {
      "channel": 5,
      "note": 64,
      "start": 69.5262,
      "duration": 0.2199,
      "velocity": 91,
      "chip": "ym2612"
    },
    {
      "channel": 4,
      "note": 61,
      "start": 69.605,
      "duration": 0.0806,
      "velocity": 127,
      "chip": "ym2612"
    },
    {
      "channel": 4,
      "note": 57,
      "start": 69.6857,
      "duration": 0.0824,
      "velocity": 127,
      "chip": "ym2612"
    },
    {
      "channel": 1,
      "note": 54,
      "start": 69.7663,
      "duration": 0.2218,
      "velocity": 100,
      "chip": "ym2612"
    },
    {
      "channel": 2,
      "note": 54,
      "start": 69.7665,
      "duration": 0.2217,
      "velocity": 117,
      "chip": "ym2612"
    },
    {
      "channel": 3,
      "note": 45,
      "start": 69.7666,
      "duration": 1.6934,
      "velocity": 127,
      "chip": "ym2612"
    },
    {
      "channel": 4,
      "note": 33,
      "start": 69.7683,
      "duration": 0.22,
      "velocity": 127,
      "chip": "ym2612"
    },
    {
      "channel": 5,
      "note": 54,
      "start": 69.7685,
      "duration": 0.2199,
      "velocity": 91,
      "chip": "ym2612"
    },
    {
      "channel": 1,
      "note": 72,
      "start": 70.0083,
      "duration": 0.2217,
      "velocity": 100,
      "chip": "ym2612"
    },
    {
      "channel": 2,
      "note": 72,
      "start": 70.0084,
      "duration": 0.2217,
      "velocity": 117,
      "chip": "ym2612"
    },
    {
      "channel": 4,
      "note": 33,
      "start": 70.0086,
      "duration": 0.2217,
      "velocity": 127,
      "chip": "ym2612"
    },
    {
      "channel": 5,
      "note": 54,
      "start": 70.0087,
      "duration": 0.2217,
      "velocity": 91,
      "chip": "ym2612"
    },
    {
      "channel": 1,
      "note": 71,
      "start": 70.2502,
      "duration": 0.2218,
      "velocity": 100,
      "chip": "ym2612"
    },
    {
      "channel": 2,
      "note": 71,
      "start": 70.2504,
      "duration": 0.2217,
      "velocity": 117,
      "chip": "ym2612"
    },
    {
      "channel": 4,
      "note": 68,
      "start": 70.2521,
      "duration": 0.2202,
      "velocity": 127,
      "chip": "ym2612"
    },
    {
      "channel": 5,
      "note": 61,
      "start": 70.2523,
      "duration": 0.2201,
      "velocity": 91,
      "chip": "ym2612"
    },
    {
      "channel": 1,
      "note": 66,
      "start": 70.4922,
      "duration": 1.1896,
      "velocity": 100,
      "chip": "ym2612"
    },
    {
      "channel": 2,
      "note": 66,
      "start": 70.4923,
      "duration": 1.1896,
      "velocity": 117,
      "chip": "ym2612"
    },
    {
      "channel": 4,
      "note": 33,
      "start": 70.494,
      "duration": 0.22,
      "velocity": 127,
      "chip": "ym2612"
    },
    {
      "channel": 5,
      "note": 63,
      "start": 70.4942,
      "duration": 0.2199,
      "velocity": 91,
      "chip": "ym2612"
    },
    {
      "channel": 4,
      "note": 33,
      "start": 70.7341,
      "duration": 0.2218,
      "velocity": 127,
      "chip": "ym2612"
    },
    {
      "channel": 5,
      "note": 54,
      "start": 70.7343,
      "duration": 0.2217,
      "velocity": 91,
      "chip": "ym2612"
    },
    {
      "channel": 4,
      "note": 33,
      "start": 70.9761,
      "duration": 0.2218,
      "velocity": 127,
      "chip": "ym2612"
    },
    {
      "channel": 5,
      "note": 54,
      "start": 70.9763,
      "duration": 0.2217,
      "velocity": 91,
      "chip": "ym2612"
    },
    {
      "channel": 4,
      "note": 68,
      "start": 71.22,
      "duration": 0.2199,
      "velocity": 127,
      "chip": "ym2612"
    },
    {
      "channel": 5,
      "note": 60,
      "start": 71.2201,
      "duration": 0.2199,
      "velocity": 91,
      "chip": "ym2612"
    },
    {
      "channel": 4,
      "note": 64,
      "start": 71.4617,
      "duration": 0.079,
      "velocity": 127,
      "chip": "ym2612"
    },
    {
      "channel": 5,
      "note": 61,
      "start": 71.4619,
      "duration": 0.2202,
      "velocity": 91,
      "chip": "ym2612"
    },
    {
      "channel": 4,
      "note": 61,
      "start": 71.5407,
      "duration": 0.0806,
      "velocity": 127,
      "chip": "ym2612"
    },
    {
      "channel": 4,
      "note": 57,
      "start": 71.6215,
      "duration": 0.0828,
      "velocity": 127,
      "chip": "ym2612"
    },
    {
      "channel": 1,
      "note": 54,
      "start": 71.702,
      "duration": 0.2217,
      "velocity": 100,
      "chip": "ym2612"
    },
    {
      "channel": 2,
      "note": 54,
      "start": 71.7022,
      "duration": 0.2216,
      "velocity": 117,
      "chip": "ym2612"
    },
    {
      "channel": 3,
      "note": 45,
      "start": 71.7023,
      "duration": 1.6934,
      "velocity": 127,
      "chip": "ym2612"
    },
    {
      "channel": 4,
      "note": 33,
      "start": 71.7044,
      "duration": 0.2197,
      "velocity": 127,
      "chip": "ym2612"
    },
    {
      "channel": 5,
      "note": 54,
      "start": 71.7046,
      "duration": 0.2196,
      "velocity": 91,
      "chip": "ym2612"
    },
    {
      "channel": 1,
      "note": 72,
      "start": 71.944,
      "duration": 0.2217,
      "velocity": 100,
      "chip": "ym2612"
    },
    {
      "channel": 2,
      "note": 72,
      "start": 71.9442,
      "duration": 0.2216,
      "velocity": 117,
      "chip": "ym2612"
    },
    {
      "channel": 4,
      "note": 33,
      "start": 71.9443,
      "duration": 0.2217,
      "velocity": 127,
      "chip": "ym2612"
    },
    {
      "channel": 5,
      "note": 54,
      "start": 71.9444,
      "duration": 0.2217,
      "velocity": 91,
      "chip": "ym2612"
    },
    {
      "channel": 1,
      "note": 71,
      "start": 72.1866,
      "duration": 1.3907,
      "velocity": 100,
      "chip": "ym2612"
    },
    {
      "channel": 2,
      "note": 71,
      "start": 72.1868,
      "duration": 1.3906,
      "velocity": 117,
      "chip": "ym2612"
    },
    {
      "channel": 4,
      "note": 68,
      "start": 72.1884,
      "duration": 0.2193,
      "velocity": 127,
      "chip": "ym2612"
    },
    {
      "channel": 5,
      "note": 64,
      "start": 72.1886,
      "duration": 0.2193,
      "velocity": 91,
      "chip": "ym2612"
    },
    {
      "channel": 4,
      "note": 33,
      "start": 72.4294,
      "duration": 0.2203,
      "velocity": 127,
      "chip": "ym2612"
    },
    {
      "channel": 5,
      "note": 66,
      "start": 72.4296,
      "duration": 0.2203,
      "velocity": 91,
      "chip": "ym2612"
    },
    {
      "channel": 4,
      "note": 33,
      "start": 72.6699,
      "duration": 0.2218,
      "velocity": 127,
      "chip": "ym2612"
    },
    {
      "channel": 5,
      "note": 54,
      "start": 72.6701,
      "duration": 0.2217,
      "velocity": 91,
      "chip": "ym2612"
    },
    {
      "channel": 4,
      "note": 33,
      "start": 72.9118,
      "duration": 0.2219,
      "velocity": 127,
      "chip": "ym2612"
    },
    {
      "channel": 5,
      "note": 54,
      "start": 72.9119,
      "duration": 0.2219,
      "velocity": 91,
      "chip": "ym2612"
    },
    {
      "channel": 4,
      "note": 68,
      "start": 73.1554,
      "duration": 0.2202,
      "velocity": 127,
      "chip": "ym2612"
    },
    {
      "channel": 5,
      "note": 63,
      "start": 73.1555,
      "duration": 0.2202,
      "velocity": 91,
      "chip": "ym2612"
    },
    {
      "channel": 4,
      "note": 64,
      "start": 73.3975,
      "duration": 0.0789,
      "velocity": 127,
      "chip": "ym2612"
    },
    {
      "channel": 5,
      "note": 64,
      "start": 73.3977,
      "duration": 0.2199,
      "velocity": 91,
      "chip": "ym2612"
    },
    {
      "channel": 4,
      "note": 61,
      "start": 73.4765,
      "duration": 0.0806,
      "velocity": 127,
      "chip": "ym2612"
    },
    {
      "channel": 4,
      "note": 57,
      "start": 73.5572,
      "duration": 0.0824,
      "velocity": 127,
      "chip": "ym2612"
    },
    {
      "channel": 1,
      "note": 54,
      "start": 73.6378,
      "duration": 0.2218,
      "velocity": 100,
      "chip": "ym2612"
    },
    {
      "channel": 2,
      "note": 54,
      "start": 73.638,
      "duration": 0.2217,
      "velocity": 117,
      "chip": "ym2612"
    },
    {
      "channel": 3,
      "note": 45,
      "start": 73.6381,
      "duration": 1.6934,
      "velocity": 127,
      "chip": "ym2612"
    },
    {
      "channel": 4,
      "note": 33,
      "start": 73.6398,
      "duration": 0.22,
      "velocity": 127,
      "chip": "ym2612"
    },
    {
      "channel": 5,
      "note": 54,
      "start": 73.64,
      "duration": 0.2199,
      "velocity": 91,
      "chip": "ym2612"
    },
    {
      "channel": 1,
      "note": 72,
      "start": 73.8798,
      "duration": 0.2217,
      "velocity": 100,
      "chip": "ym2612"
    },
    {
      "channel": 2,
      "note": 72,
      "start": 73.8799,
      "duration": 0.2216,
      "velocity": 117,
      "chip": "ym2612"
    },
    {
      "channel": 4,
      "note": 33,
      "start": 73.8801,
      "duration": 0.2216,
      "velocity": 127,
      "chip": "ym2612"
    },
    {
      "channel": 5,
      "note": 54,
      "start": 73.8802,
      "duration": 0.2216,
      "velocity": 91,
      "chip": "ym2612"
    },
    {
      "channel": 1,
      "note": 71,
      "start": 74.1217,
      "duration": 0.2217,
      "velocity": 100,
      "chip": "ym2612"
    },
    {
      "channel": 2,
      "note": 71,
      "start": 74.1219,
      "duration": 0.2216,
      "velocity": 117,
      "chip": "ym2612"
    },
    {
      "channel": 4,
      "note": 68,
      "start": 74.1236,
      "duration": 0.2202,
      "velocity": 127,
      "chip": "ym2612"
    },
    {
      "channel": 5,
      "note": 61,
      "start": 74.1237,
      "duration": 0.2202,
      "velocity": 91,
      "chip": "ym2612"
    },
    {
      "channel": 1,
      "note": 66,
      "start": 74.3637,
      "duration": 0.6452,
      "velocity": 100,
      "chip": "ym2612"
    },
    {
      "channel": 2,
      "note": 66,
      "start": 74.3639,
      "duration": 0.6451,
      "velocity": 117,
      "chip": "ym2612"
    },
    {
      "channel": 4,
      "note": 33,
      "start": 74.3655,
      "duration": 0.22,
      "velocity": 127,
      "chip": "ym2612"
    },
    {
      "channel": 5,
      "note": 63,
      "start": 74.3657,
      "duration": 0.2199,
      "velocity": 91,
      "chip": "ym2612"
    },
    {
      "channel": 4,
      "note": 33,
      "start": 74.6056,
      "duration": 0.2217,
      "velocity": 127,
      "chip": "ym2612"
    },
    {
      "channel": 5,
      "note": 54,
      "start": 74.6058,
      "duration": 0.2217,
      "velocity": 91,
      "chip": "ym2612"
    },
    {
      "channel": 4,
      "note": 33,
      "start": 74.8476,
      "duration": 0.2223,
      "velocity": 127,
      "chip": "ym2612"
    },
    {
      "channel": 5,
      "note": 54,
      "start": 74.8477,
      "duration": 0.2223,
      "velocity": 91,
      "chip": "ym2612"
    },
    {
      "channel": 1,
      "note": 69,
      "start": 75.0895,
      "duration": 0.4234,
      "velocity": 100,
      "chip": "ym2612"
    },
    {
      "channel": 2,
      "note": 69,
      "start": 75.0897,
      "duration": 0.4233,
      "velocity": 117,
      "chip": "ym2612"
    },
    {
      "channel": 4,
      "note": 68,
      "start": 75.0914,
      "duration": 0.22,
      "velocity": 127,
      "chip": "ym2612"
    },
    {
      "channel": 5,
      "note": 60,
      "start": 75.0916,
      "duration": 0.2199,
      "velocity": 91,
      "chip": "ym2612"
    },
    {
      "channel": 4,
      "note": 64,
      "start": 75.3332,
      "duration": 0.079,
      "velocity": 127,
      "chip": "ym2612"
    },
    {
      "channel": 5,
      "note": 61,
      "start": 75.3334,
      "duration": 0.22,
      "velocity": 91,
      "chip": "ym2612"
    },
    {
      "channel": 4,
      "note": 61,
      "start": 75.4123,
      "duration": 0.0805,
      "velocity": 127,
      "chip": "ym2612"
    },
    {
      "channel": 4,
      "note": 57,
      "start": 75.4929,
      "duration": 0.085,
      "velocity": 127,
      "chip": "ym2612"
    },
    {
      "channel": 1,
      "note": 54,
      "start": 75.575,
      "duration": 0.2714,
      "velocity": 101,
      "chip": "ym2612"
    },
    {
      "channel": 3,
      "note": 45,
      "start": 75.5764,
      "duration": 1.0538,
      "velocity": 127,
      "chip": "ym2612"
    },
    {
      "channel": 4,
      "note": 33,
      "start": 75.5781,
      "duration": 1.0522,
      "velocity": 127,
      "chip": "ym2612"
    },
    {
      "channel": 5,
      "note": 54,
      "start": 75.5783,
      "duration": 2.0884,
      "velocity": 91,
      "chip": "ym2612"
    },
    {
      "channel": 1,
      "note": 72,
      "start": 75.8717,
      "duration": 0.278,
      "velocity": 101,
      "chip": "ym2612"
    },
    {
      "channel": 2,
      "note": 54,
      "start": 75.8722,
      "duration": 0.2776,
      "velocity": 101,
      "chip": "ym2612"
    },
    {
      "channel": 1,
      "note": 71,
      "start": 76.1752,
      "duration": 1.7447,
      "velocity": 101,
      "chip": "ym2612"
    },
    {
      "channel": 2,
      "note": 72,
      "start": 76.1754,
      "duration": 0.2779,
      "velocity": 101,
      "chip": "ym2612"
    },
    {
      "channel": 2,
      "note": 71,
      "start": 76.4785,
      "duration": 1.7443,
      "velocity": 101,
      "chip": "ym2612"
    },
    {
      "channel": 3,
      "note": 45,
      "start": 77.6919,
      "duration": 0.278,
      "velocity": 127,
      "chip": "ym2612"
    },
    {
      "channel": 4,
      "note": 33,
      "start": 77.692,
      "duration": 0.2781,
      "velocity": 127,
      "chip": "ym2612"
    },
    {
      "channel": 5,
      "note": 54,
      "start": 77.6922,
      "duration": 0.278,
      "velocity": 91,
      "chip": "ym2612"
    },
    {
      "channel": 1,
      "note": 54,
      "start": 77.9953,
      "duration": 0.2781,
      "velocity": 101,
      "chip": "ym2612"
    },
    {
      "channel": 3,
      "note": 45,
      "start": 77.9954,
      "duration": 1.0616,
      "velocity": 127,
      "chip": "ym2612"
    },
    {
      "channel": 4,
      "note": 33,
      "start": 77.9955,
      "duration": 1.0616,
      "velocity": 127,
      "chip": "ym2612"
    },
    {
      "channel": 5,
      "note": 54,
      "start": 77.9956,
      "duration": 2.0979,
      "velocity": 91,
      "chip": "ym2612"
    },
    {
      "channel": 1,
      "note": 72,
      "start": 78.2986,
      "duration": 0.278,
      "velocity": 101,
      "chip": "ym2612"
    },
    {
      "channel": 2,
      "note": 54,
      "start": 78.2988,
      "duration": 0.278,
      "velocity": 101,
      "chip": "ym2612"
    },
    {
      "channel": 1,
      "note": 71,
      "start": 78.602,
      "duration": 0.278,
      "velocity": 101,
      "chip": "ym2612"
    },
    {
      "channel": 2,
      "note": 72,
      "start": 78.6022,
      "duration": 0.278,
      "velocity": 101,
      "chip": "ym2612"
    },
    {
      "channel": 1,
      "note": 66,
      "start": 78.9054,
      "duration": 1.4915,
      "velocity": 101,
      "chip": "ym2612"
    },
    {
      "channel": 2,
      "note": 71,
      "start": 78.9056,
      "duration": 0.2779,
      "velocity": 101,
      "chip": "ym2612"
    },
    {
      "channel": 2,
      "note": 66,
      "start": 79.2088,
      "duration": 1.4915,
      "velocity": 101,
      "chip": "ym2612"
    },
    {
      "channel": 3,
      "note": 45,
      "start": 80.1188,
      "duration": 0.2782,
      "velocity": 127,
      "chip": "ym2612"
    },
    {
      "channel": 4,
      "note": 33,
      "start": 80.1189,
      "duration": 0.2782,
      "velocity": 127,
      "chip": "ym2612"
    },
    {
      "channel": 5,
      "note": 54,
      "start": 80.1191,
      "duration": 0.2782,
      "velocity": 91,
      "chip": "ym2612"
    },
    {
      "channel": 1,
      "note": 54,
      "start": 80.4222,
      "duration": 0.278,
      "velocity": 101,
      "chip": "ym2612"
    },
    {
      "channel": 3,
      "note": 45,
      "start": 80.4223,
      "duration": 1.0616,
      "velocity": 127,
      "chip": "ym2612"
    },
    {
      "channel": 4,
      "note": 33,
      "start": 80.4224,
      "duration": 1.0617,
      "velocity": 127,
      "chip": "ym2612"
    },
    {
      "channel": 5,
      "note": 54,
      "start": 80.4226,
      "duration": 2.0979,
      "velocity": 91,
      "chip": "ym2612"
    },
    {
      "channel": 1,
      "note": 72,
      "start": 80.7256,
      "duration": 0.2779,
      "velocity": 101,
      "chip": "ym2612"
    },
    {
      "channel": 2,
      "note": 54,
      "start": 80.7257,
      "duration": 0.2779,
      "velocity": 101,
      "chip": "ym2612"
    },
    {
      "channel": 1,
      "note": 71,
      "start": 81.0289,
      "duration": 1.7442,
      "velocity": 101,
      "chip": "ym2612"
    },
    {
      "channel": 2,
      "note": 72,
      "start": 81.0291,
      "duration": 0.2779,
      "velocity": 101,
      "chip": "ym2612"
    },
    {
      "channel": 2,
      "note": 71,
      "start": 81.3322,
      "duration": 1.7444,
      "velocity": 101,
      "chip": "ym2612"
    },
    {
      "channel": 3,
      "note": 45,
      "start": 82.5457,
      "duration": 0.278,
      "velocity": 127,
      "chip": "ym2612"
    },
    {
      "channel": 4,
      "note": 33,
      "start": 82.5459,
      "duration": 0.278,
      "velocity": 127,
      "chip": "ym2612"
    },
    {
      "channel": 5,
      "note": 54,
      "start": 82.546,
      "duration": 0.278,
      "velocity": 91,
      "chip": "ym2612"
    },
    {
      "channel": 1,
      "note": 54,
      "start": 82.8491,
      "duration": 0.278,
      "velocity": 101,
      "chip": "ym2612"
    },
    {
      "channel": 3,
      "note": 45,
      "start": 82.8492,
      "duration": 2.1235,
      "velocity": 127,
      "chip": "ym2612"
    },
    {
      "channel": 5,
      "note": 54,
      "start": 82.8494,
      "duration": 0.2779,
      "velocity": 91,
      "chip": "ym2612"
    },
    {
      "channel": 1,
      "note": 72,
      "start": 83.1525,
      "duration": 0.278,
      "velocity": 101,
      "chip": "ym2612"
    },
    {
      "channel": 2,
      "note": 54,
      "start": 83.153,
      "duration": 0.2776,
      "velocity": 101,
      "chip": "ym2612"
    },
    {
      "channel": 4,
      "note": 33,
      "start": 83.1532,
      "duration": 0.2776,
      "velocity": 127,
      "chip": "ym2612"
    },
    {
      "channel": 5,
      "note": 54,
      "start": 83.1533,
      "duration": 0.2776,
      "velocity": 91,
      "chip": "ym2612"
    },
    {
      "channel": 1,
      "note": 71,
      "start": 83.4558,
      "duration": 0.2781,
      "velocity": 101,
      "chip": "ym2612"
    },
    {
      "channel": 2,
      "note": 72,
      "start": 83.456,
      "duration": 0.278,
      "velocity": 101,
      "chip": "ym2612"
    },
    {
      "channel": 4,
      "note": 33,
      "start": 83.4561,
      "duration": 0.2781,
      "velocity": 127,
      "chip": "ym2612"
    },
    {
      "channel": 5,
      "note": 54,
      "start": 83.4562,
      "duration": 0.278,
      "velocity": 91,
      "chip": "ym2612"
    },
    {
      "channel": 1,
      "note": 66,
      "start": 83.7592,
      "duration": 0.8089,
      "velocity": 101,
      "chip": "ym2612"
    },
    {
      "channel": 2,
      "note": 71,
      "start": 83.7594,
      "duration": 0.2779,
      "velocity": 101,
      "chip": "ym2612"
    },
    {
      "channel": 4,
      "note": 33,
      "start": 83.7595,
      "duration": 0.2779,
      "velocity": 127,
      "chip": "ym2612"
    },
    {
      "channel": 5,
      "note": 54,
      "start": 83.7597,
      "duration": 0.2778,
      "velocity": 91,
      "chip": "ym2612"
    },
    {
      "channel": 2,
      "note": 66,
      "start": 84.0625,
      "duration": 0.8089,
      "velocity": 101,
      "chip": "ym2612"
    },
    {
      "channel": 4,
      "note": 33,
      "start": 84.0626,
      "duration": 0.2779,
      "velocity": 127,
      "chip": "ym2612"
    },
    {
      "channel": 5,
      "note": 54,
      "start": 84.0628,
      "duration": 0.2779,
      "velocity": 91,
      "chip": "ym2612"
    },
    {
      "channel": 4,
      "note": 33,
      "start": 84.3659,
      "duration": 0.2781,
      "velocity": 127,
      "chip": "ym2612"
    },
    {
      "channel": 5,
      "note": 54,
      "start": 84.366,
      "duration": 0.2781,
      "velocity": 91,
      "chip": "ym2612"
    },
    {
      "channel": 1,
      "note": 69,
      "start": 84.6696,
      "duration": 0.5304,
      "velocity": 101,
      "chip": "ym2612"
    },
    {
      "channel": 4,
      "note": 33,
      "start": 84.6698,
      "duration": 0.2775,
      "velocity": 127,
      "chip": "ym2612"
    },
    {
      "channel": 5,
      "note": 54,
      "start": 84.6699,
      "duration": 0.2776,
      "velocity": 91,
      "chip": "ym2612"
    },
    {
      "channel": 2,
      "note": 69,
      "start": 84.9727,
      "duration": 0.2779,
      "velocity": 101,
      "chip": "ym2612"
    },
    {
      "channel": 4,
      "note": 64,
      "start": 84.9745,
      "duration": 0.0992,
      "velocity": 127,
      "chip": "ym2612"
    },
    {
      "channel": 5,
      "note": 54,
      "start": 84.9746,
      "duration": 0.2762,
      "velocity": 91,
      "chip": "ym2612"
    },
    {
      "channel": 4,
      "note": 61,
      "start": 85.0738,
      "duration": 0.1011,
      "velocity": 127,
      "chip": "ym2612"
    },
    {
      "channel": 4,
      "note": 57,
      "start": 85.175,
      "duration": 0.1058,
      "velocity": 127,
      "chip": "ym2612"
    },
    {
      "channel": 1,
      "note": 54,
      "start": 85.2775,
      "duration": 0.2258,
      "velocity": 100,
      "chip": "ym2612"
    },
    {
      "channel": 2,
      "note": 54,
      "start": 85.2791,
      "duration": 0.2242,
      "velocity": 117,
      "chip": "ym2612"
    },
    {
      "channel": 3,
      "note": 45,
      "start": 85.2793,
      "duration": 1.6956,
      "velocity": 127,
      "chip": "ym2612"
    },
    {
      "channel": 4,
      "note": 33,
      "start": 85.281,
      "duration": 0.2225,
      "velocity": 127,
      "chip": "ym2612"
    },
    {
      "channel": 5,
      "note": 54,
      "start": 85.2811,
      "duration": 0.2225,
      "velocity": 91,
      "chip": "ym2612"
    },
    {
      "channel": 1,
      "note": 72,
      "start": 85.5231,
      "duration": 0.2218,
      "velocity": 100,
      "chip": "ym2612"
    },
    {
      "channel": 2,
      "note": 72,
      "start": 85.5233,
      "duration": 0.2217,
      "velocity": 117,
      "chip": "ym2612"
    },
    {
      "channel": 4,
      "note": 33,
      "start": 85.5234,
      "duration": 0.2216,
      "velocity": 127,
      "chip": "ym2612"
    },
    {
      "channel": 5,
      "note": 54,
      "start": 85.5236,
      "duration": 0.2216,
      "velocity": 91,
      "chip": "ym2612"
    },
    {
      "channel": 1,
      "note": 71,
      "start": 85.7651,
      "duration": 1.3912,
      "velocity": 100,
      "chip": "ym2612"
    },
    {
      "channel": 2,
      "note": 71,
      "start": 85.7652,
      "duration": 1.3912,
      "velocity": 117,
      "chip": "ym2612"
    },
    {
      "channel": 4,
      "note": 33,
      "start": 85.7654,
      "duration": 0.2214,
      "velocity": 127,
      "chip": "ym2612"
    },
    {
      "channel": 5,
      "note": 54,
      "start": 85.7655,
      "duration": 0.2214,
      "velocity": 91,
      "chip": "ym2612"
    },
    {
      "channel": 4,
      "note": 33,
      "start": 86.007,
      "duration": 0.2217,
      "velocity": 127,
      "chip": "ym2612"
    },
    {
      "channel": 5,
      "note": 54,
      "start": 86.0071,
      "duration": 0.2218,
      "velocity": 91,
      "chip": "ym2612"
    },
    {
      "channel": 4,
      "note": 33,
      "start": 86.249,
      "duration": 0.2218,
      "velocity": 127,
      "chip": "ym2612"
    },
    {
      "channel": 5,
      "note": 54,
      "start": 86.2491,
      "duration": 0.2217,
      "velocity": 91,
      "chip": "ym2612"
    },
    {
      "channel": 4,
      "note": 33,
      "start": 86.491,
      "duration": 0.2217,
      "velocity": 127,
      "chip": "ym2612"
    },
    {
      "channel": 5,
      "note": 54,
      "start": 86.4911,
      "duration": 0.2218,
      "velocity": 91,
      "chip": "ym2612"
    },
    {
      "channel": 4,
      "note": 33,
      "start": 86.7329,
      "duration": 0.2218,
      "velocity": 127,
      "chip": "ym2612"
    },
    {
      "channel": 5,
      "note": 54,
      "start": 86.733,
      "duration": 0.2218,
      "velocity": 91,
      "chip": "ym2612"
    },
    {
      "channel": 4,
      "note": 64,
      "start": 86.9766,
      "duration": 0.0789,
      "velocity": 127,
      "chip": "ym2612"
    },
    {
      "channel": 5,
      "note": 54,
      "start": 86.9767,
      "duration": 0.2199,
      "velocity": 91,
      "chip": "ym2612"
    },
    {
      "channel": 4,
      "note": 61,
      "start": 87.0556,
      "duration": 0.0809,
      "velocity": 127,
      "chip": "ym2612"
    },
    {
      "channel": 4,
      "note": 57,
      "start": 87.1366,
      "duration": 0.0821,
      "velocity": 127,
      "chip": "ym2612"
    },
    {
      "channel": 1,
      "note": 54,
      "start": 87.2169,
      "duration": 0.2216,
      "velocity": 100,
      "chip": "ym2612"
    },
    {
      "channel": 2,
      "note": 54,
      "start": 87.217,
      "duration": 0.2216,
      "velocity": 117,
      "chip": "ym2612"
    },
    {
      "channel": 3,
      "note": 45,
      "start": 87.2172,
      "duration": 1.6934,
      "velocity": 127,
      "chip": "ym2612"
    },
    {
      "channel": 4,
      "note": 33,
      "start": 87.2189,
      "duration": 0.22,
      "velocity": 127,
      "chip": "ym2612"
    },
    {
      "channel": 5,
      "note": 54,
      "start": 87.219,
      "duration": 0.22,
      "velocity": 91,
      "chip": "ym2612"
    },
    {
      "channel": 1,
      "note": 72,
      "start": 87.4588,
      "duration": 0.2217,
      "velocity": 100,
      "chip": "ym2612"
    },
    {
      "channel": 2,
      "note": 72,
      "start": 87.459,
      "duration": 0.2216,
      "velocity": 117,
      "chip": "ym2612"
    },
    {
      "channel": 4,
      "note": 33,
      "start": 87.4591,
      "duration": 0.2216,
      "velocity": 127,
      "chip": "ym2612"
    },
    {
      "channel": 5,
      "note": 54,
      "start": 87.4593,
      "duration": 0.2216,
      "velocity": 91,
      "chip": "ym2612"
    },
    {
      "channel": 1,
      "note": 71,
      "start": 87.7008,
      "duration": 0.2217,
      "velocity": 100,
      "chip": "ym2612"
    },
    {
      "channel": 2,
      "note": 71,
      "start": 87.701,
      "duration": 0.2217,
      "velocity": 117,
      "chip": "ym2612"
    },
    {
      "channel": 4,
      "note": 33,
      "start": 87.7011,
      "duration": 0.2217,
      "velocity": 127,
      "chip": "ym2612"
    },
    {
      "channel": 5,
      "note": 54,
      "start": 87.7012,
      "duration": 0.2217,
      "velocity": 91,
      "chip": "ym2612"
    },
    {
      "channel": 1,
      "note": 66,
      "start": 87.9428,
      "duration": 1.1896,
      "velocity": 100,
      "chip": "ym2612"
    },
    {
      "channel": 2,
      "note": 66,
      "start": 87.943,
      "duration": 1.1895,
      "velocity": 117,
      "chip": "ym2612"
    },
    {
      "channel": 4,
      "note": 33,
      "start": 87.9431,
      "duration": 0.2215,
      "velocity": 127,
      "chip": "ym2612"
    },
    {
      "channel": 5,
      "note": 54,
      "start": 87.9432,
      "duration": 0.2214,
      "velocity": 91,
      "chip": "ym2612"
    },
    {
      "channel": 4,
      "note": 33,
      "start": 88.1846,
      "duration": 0.2218,
      "velocity": 127,
      "chip": "ym2612"
    },
    {
      "channel": 5,
      "note": 54,
      "start": 88.1848,
      "duration": 0.2218,
      "velocity": 91,
      "chip": "ym2612"
    },
    {
      "channel": 4,
      "note": 33,
      "start": 88.4267,
      "duration": 0.2218,
      "velocity": 127,
      "chip": "ym2612"
    },
    {
      "channel": 5,
      "note": 54,
      "start": 88.4268,
      "duration": 0.2218,
      "velocity": 91,
      "chip": "ym2612"
    },
    {
      "channel": 4,
      "note": 33,
      "start": 88.6686,
      "duration": 0.2218,
      "velocity": 127,
      "chip": "ym2612"
    },
    {
      "channel": 5,
      "note": 54,
      "start": 88.6688,
      "duration": 0.2218,
      "velocity": 91,
      "chip": "ym2612"
    },
    {
      "channel": 4,
      "note": 64,
      "start": 88.9123,
      "duration": 0.0789,
      "velocity": 127,
      "chip": "ym2612"
    },
    {
      "channel": 5,
      "note": 54,
      "start": 88.9124,
      "duration": 0.2202,
      "velocity": 91,
      "chip": "ym2612"
    },
    {
      "channel": 4,
      "note": 61,
      "start": 88.9913,
      "duration": 0.0805,
      "velocity": 127,
      "chip": "ym2612"
    },
    {
      "channel": 4,
      "note": 57,
      "start": 89.0721,
      "duration": 0.0827,
      "velocity": 127,
      "chip": "ym2612"
    },
    {
      "channel": 1,
      "note": 54,
      "start": 89.153,
      "duration": 0.2213,
      "velocity": 100,
      "chip": "ym2612"
    },
    {
      "channel": 2,
      "note": 54,
      "start": 89.1532,
      "duration": 0.2212,
      "velocity": 117,
      "chip": "ym2612"
    },
    {
      "channel": 3,
      "note": 45,
      "start": 89.1533,
      "duration": 1.693,
      "velocity": 127,
      "chip": "ym2612"
    },
    {
      "channel": 4,
      "note": 33,
      "start": 89.155,
      "duration": 0.2195,
      "velocity": 127,
      "chip": "ym2612"
    },
    {
      "channel": 5,
      "note": 54,
      "start": 89.1551,
      "duration": 0.2195,
      "velocity": 91,
      "chip": "ym2612"
    },
    {
      "channel": 1,
      "note": 72,
      "start": 89.3946,
      "duration": 0.2217,
      "velocity": 100,
      "chip": "ym2612"
    },
    {
      "channel": 2,
      "note": 72,
      "start": 89.3948,
      "duration": 0.2216,
      "velocity": 117,
      "chip": "ym2612"
    },
    {
      "channel": 4,
      "note": 33,
      "start": 89.3949,
      "duration": 0.2216,
      "velocity": 127,
      "chip": "ym2612"
    },
    {
      "channel": 5,
      "note": 54,
      "start": 89.395,
      "duration": 0.2216,
      "velocity": 91,
      "chip": "ym2612"
    },
    {
      "channel": 1,
      "note": 71,
      "start": 89.6366,
      "duration": 1.3912,
      "velocity": 100,
      "chip": "ym2612"
    },
    {
      "channel": 2,
      "note": 71,
      "start": 89.6368,
      "duration": 1.3912,
      "velocity": 117,
      "chip": "ym2612"
    },
    {
      "channel": 4,
      "note": 33,
      "start": 89.6369,
      "duration": 0.2215,
      "velocity": 127,
      "chip": "ym2612"
    },
    {
      "channel": 5,
      "note": 54,
      "start": 89.637,
      "duration": 0.2214,
      "velocity": 91,
      "chip": "ym2612"
    },
    {
      "channel": 4,
      "note": 33,
      "start": 89.8784,
      "duration": 0.2218,
      "velocity": 127,
      "chip": "ym2612"
    },
    {
      "channel": 5,
      "note": 54,
      "start": 89.8785,
      "duration": 0.2218,
      "velocity": 91,
      "chip": "ym2612"
    },
    {
      "channel": 4,
      "note": 33,
      "start": 90.1205,
      "duration": 0.2218,
      "velocity": 127,
      "chip": "ym2612"
    },
    {
      "channel": 5,
      "note": 54,
      "start": 90.1206,
      "duration": 0.2217,
      "velocity": 91,
      "chip": "ym2612"
    },
    {
      "channel": 4,
      "note": 33,
      "start": 90.3624,
      "duration": 0.2217,
      "velocity": 127,
      "chip": "ym2612"
    },
    {
      "channel": 5,
      "note": 54,
      "start": 90.3626,
      "duration": 0.2217,
      "velocity": 91,
      "chip": "ym2612"
    },
    {
      "channel": 4,
      "note": 33,
      "start": 90.6044,
      "duration": 0.2218,
      "velocity": 127,
      "chip": "ym2612"
    },
    {
      "channel": 5,
      "note": 54,
      "start": 90.6045,
      "duration": 0.2218,
      "velocity": 91,
      "chip": "ym2612"
    },
    {
      "channel": 4,
      "note": 64,
      "start": 90.848,
      "duration": 0.079,
      "velocity": 127,
      "chip": "ym2612"
    },
    {
      "channel": 5,
      "note": 54,
      "start": 90.8481,
      "duration": 0.22,
      "velocity": 91,
      "chip": "ym2612"
    },
    {
      "channel": 4,
      "note": 61,
      "start": 90.9271,
      "duration": 0.0805,
      "velocity": 127,
      "chip": "ym2612"
    },
    {
      "channel": 4,
      "note": 57,
      "start": 91.0077,
      "duration": 0.0824,
      "velocity": 127,
      "chip": "ym2612"
    },
    {
      "channel": 1,
      "note": 54,
      "start": 91.0883,
      "duration": 0.2217,
      "velocity": 100,
      "chip": "ym2612"
    },
    {
      "channel": 2,
      "note": 54,
      "start": 91.0885,
      "duration": 0.2216,
      "velocity": 117,
      "chip": "ym2612"
    },
    {
      "channel": 3,
      "note": 45,
      "start": 91.0887,
      "duration": 1.6934,
      "velocity": 127,
      "chip": "ym2612"
    },
    {
      "channel": 4,
      "note": 33,
      "start": 91.0904,
      "duration": 0.2199,
      "velocity": 127,
      "chip": "ym2612"
    },
    {
      "channel": 5,
      "note": 54,
      "start": 91.0905,
      "duration": 0.2199,
      "velocity": 91,
      "chip": "ym2612"
    },
    {
      "channel": 1,
      "note": 72,
      "start": 91.3302,
      "duration": 0.2218,
      "velocity": 100,
      "chip": "ym2612"
    },
    {
      "channel": 2,
      "note": 72,
      "start": 91.3305,
      "duration": 0.2217,
      "velocity": 117,
      "chip": "ym2612"
    },
    {
      "channel": 4,
      "note": 33,
      "start": 91.3306,
      "duration": 0.2217,
      "velocity": 127,
      "chip": "ym2612"
    },
    {
      "channel": 5,
      "note": 54,
      "start": 91.3307,
      "duration": 0.2217,
      "velocity": 91,
      "chip": "ym2612"
    },
    {
      "channel": 1,
      "note": 71,
      "start": 91.5722,
      "duration": 0.2217,
      "velocity": 100,
      "chip": "ym2612"
    },
    {
      "channel": 2,
      "note": 71,
      "start": 91.5724,
      "duration": 0.2217,
      "velocity": 117,
      "chip": "ym2612"
    },
    {
      "channel": 4,
      "note": 33,
      "start": 91.5726,
      "duration": 0.2217,
      "velocity": 127,
      "chip": "ym2612"
    },
    {
      "channel": 5,
      "note": 54,
      "start": 91.5727,
      "duration": 0.2217,
      "velocity": 91,
      "chip": "ym2612"
    },
    {
      "channel": 1,
      "note": 66,
      "start": 91.8142,
      "duration": 0.6452,
      "velocity": 100,
      "chip": "ym2612"
    },
    {
      "channel": 2,
      "note": 66,
      "start": 91.8144,
      "duration": 0.6451,
      "velocity": 117,
      "chip": "ym2612"
    },
    {
      "channel": 4,
      "note": 33,
      "start": 91.8146,
      "duration": 0.2217,
      "velocity": 127,
      "chip": "ym2612"
    },
    {
      "channel": 5,
      "note": 54,
      "start": 91.8147,
      "duration": 0.2218,
      "velocity": 91,
      "chip": "ym2612"
    },
    {
      "channel": 4,
      "note": 33,
      "start": 92.0561,
      "duration": 0.2218,
      "velocity": 127,
      "chip": "ym2612"
    },
    {
      "channel": 5,
      "note": 54,
      "start": 92.0563,
      "duration": 0.2218,
      "velocity": 91,
      "chip": "ym2612"
    },
    {
      "channel": 4,
      "note": 33,
      "start": 92.2982,
      "duration": 0.2217,
      "velocity": 127,
      "chip": "ym2612"
    },
    {
      "channel": 5,
      "note": 54,
      "start": 92.2983,
      "duration": 0.2218,
      "velocity": 91,
      "chip": "ym2612"
    },
    {
      "channel": 1,
      "note": 69,
      "start": 92.5402,
      "duration": 0.4233,
      "velocity": 100,
      "chip": "ym2612"
    },
    {
      "channel": 2,
      "note": 69,
      "start": 92.5404,
      "duration": 0.4232,
      "velocity": 117,
      "chip": "ym2612"
    },
    {
      "channel": 4,
      "note": 33,
      "start": 92.5405,
      "duration": 0.2214,
      "velocity": 127,
      "chip": "ym2612"
    },
    {
      "channel": 5,
      "note": 54,
      "start": 92.5406,
      "duration": 0.2214,
      "velocity": 91,
      "chip": "ym2612"
    },
    {
      "channel": 4,
      "note": 64,
      "start": 92.7838,
      "duration": 0.079,
      "velocity": 127,
      "chip": "ym2612"
    },
    {
      "channel": 5,
      "note": 54,
      "start": 92.7839,
      "duration": 0.22,
      "velocity": 91,
      "chip": "ym2612"
    },
    {
      "channel": 4,
      "note": 61,
      "start": 92.8628,
      "duration": 0.0805,
      "velocity": 127,
      "chip": "ym2612"
    },
    {
      "channel": 4,
      "note": 57,
      "start": 92.9435,
      "duration": 0.0824,
      "velocity": 127,
      "chip": "ym2612"
    },
    {
      "channel": 1,
      "note": 54,
      "start": 93.0241,
      "duration": 0.2217,
      "velocity": 100,
      "chip": "ym2612"
    },
    {
      "channel": 2,
      "note": 54,
      "start": 93.0243,
      "duration": 0.2216,
      "velocity": 117,
      "chip": "ym2612"
    },
    {
      "channel": 3,
      "note": 45,
      "start": 93.0244,
      "duration": 1.6934,
      "velocity": 127,
      "chip": "ym2612"
    },
    {
      "channel": 4,
      "note": 33,
      "start": 93.0261,
      "duration": 0.2199,
      "velocity": 127,
      "chip": "ym2612"
    },
    {
      "channel": 5,
      "note": 54,
      "start": 93.0263,
      "duration": 0.2199,
      "velocity": 91,
      "chip": "ym2612"
    },
    {
      "channel": 1,
      "note": 72,
      "start": 93.266,
      "duration": 0.2217,
      "velocity": 100,
      "chip": "ym2612"
    },
    {
      "channel": 2,
      "note": 72,
      "start": 93.2662,
      "duration": 0.2217,
      "velocity": 117,
      "chip": "ym2612"
    },
    {
      "channel": 4,
      "note": 33,
      "start": 93.2663,
      "duration": 0.2217,
      "velocity": 127,
      "chip": "ym2612"
    },
    {
      "channel": 5,
      "note": 54,
      "start": 93.2665,
      "duration": 0.2217,
      "velocity": 91,
      "chip": "ym2612"
    },
    {
      "channel": 1,
      "note": 71,
      "start": 93.508,
      "duration": 1.3912,
      "velocity": 100,
      "chip": "ym2612"
    },
    {
      "channel": 2,
      "note": 71,
      "start": 93.5082,
      "duration": 1.3912,
      "velocity": 117,
      "chip": "ym2612"
    },
    {
      "channel": 4,
      "note": 68,
      "start": 93.5098,
      "duration": 0.22,
      "velocity": 127,
      "chip": "ym2612"
    },
    {
      "channel": 5,
      "note": 64,
      "start": 93.51,
      "duration": 0.22,
      "velocity": 91,
      "chip": "ym2612"
    },
    {
      "channel": 4,
      "note": 33,
      "start": 93.7515,
      "duration": 0.2202,
      "velocity": 127,
      "chip": "ym2612"
    },
    {
      "channel": 5,
      "note": 66,
      "start": 93.7516,
      "duration": 0.2202,
      "velocity": 91,
      "chip": "ym2612"
    },
    {
      "channel": 4,
      "note": 33,
      "start": 93.9919,
      "duration": 0.2217,
      "velocity": 127,
      "chip": "ym2612"
    },
    {
      "channel": 5,
      "note": 54,
      "start": 93.9921,
      "duration": 0.2217,
      "velocity": 91,
      "chip": "ym2612"
    },
    {
      "channel": 4,
      "note": 33,
      "start": 94.2339,
      "duration": 0.2218,
      "velocity": 127,
      "chip": "ym2612"
    },
    {
      "channel": 5,
      "note": 54,
      "start": 94.234,
      "duration": 0.2218,
      "velocity": 91,
      "chip": "ym2612"
    },
    {
      "channel": 4,
      "note": 68,
      "start": 94.4774,
      "duration": 0.2203,
      "velocity": 127,
      "chip": "ym2612"
    },
    {
      "channel": 5,
      "note": 63,
      "start": 94.4776,
      "duration": 0.2202,
      "velocity": 91,
      "chip": "ym2612"
    },
    {
      "channel": 4,
      "note": 64,
      "start": 94.7199,
      "duration": 0.0786,
      "velocity": 127,
      "chip": "ym2612"
    },
    {
      "channel": 5,
      "note": 64,
      "start": 94.7201,
      "duration": 0.2195,
      "velocity": 91,
      "chip": "ym2612"
    },
    {
      "channel": 4,
      "note": 61,
      "start": 94.7986,
      "duration": 0.0805,
      "velocity": 127,
      "chip": "ym2612"
    },
    {
      "channel": 4,
      "note": 57,
      "start": 94.8793,
      "duration": 0.0824,
      "velocity": 127,
      "chip": "ym2612"
    },
    {
      "channel": 1,
      "note": 54,
      "start": 94.9598,
      "duration": 0.2217,
      "velocity": 100,
      "chip": "ym2612"
    },
    {
      "channel": 2,
      "note": 54,
      "start": 94.96,
      "duration": 0.2216,
      "velocity": 117,
      "chip": "ym2612"
    },
    {
      "channel": 3,
      "note": 45,
      "start": 94.9601,
      "duration": 1.6934,
      "velocity": 127,
      "chip": "ym2612"
    },
    {
      "channel": 4,
      "note": 33,
      "start": 94.9618,
      "duration": 0.22,
      "velocity": 127,
      "chip": "ym2612"
    },
    {
      "channel": 5,
      "note": 54,
      "start": 94.962,
      "duration": 0.2199,
      "velocity": 91,
      "chip": "ym2612"
    },
    {
      "channel": 1,
      "note": 72,
      "start": 95.2018,
      "duration": 0.2217,
      "velocity": 100,
      "chip": "ym2612"
    },
    {
      "channel": 2,
      "note": 72,
      "start": 95.202,
      "duration": 0.2217,
      "velocity": 117,
      "chip": "ym2612"
    },
    {
      "channel": 4,
      "note": 33,
      "start": 95.2021,
      "duration": 0.2216,
      "velocity": 127,
      "chip": "ym2612"
    },
    {
      "channel": 5,
      "note": 54,
      "start": 95.2023,
      "duration": 0.2216,
      "velocity": 91,
      "chip": "ym2612"
    },
    {
      "channel": 1,
      "note": 71,
      "start": 95.4437,
      "duration": 0.2217,
      "velocity": 100,
      "chip": "ym2612"
    },
    {
      "channel": 2,
      "note": 71,
      "start": 95.4439,
      "duration": 0.2216,
      "velocity": 117,
      "chip": "ym2612"
    },
    {
      "channel": 4,
      "note": 68,
      "start": 95.4456,
      "duration": 0.2201,
      "velocity": 127,
      "chip": "ym2612"
    },
    {
      "channel": 5,
      "note": 61,
      "start": 95.4458,
      "duration": 0.22,
      "velocity": 91,
      "chip": "ym2612"
    },
    {
      "channel": 1,
      "note": 66,
      "start": 95.6857,
      "duration": 1.1896,
      "velocity": 100,
      "chip": "ym2612"
    },
    {
      "channel": 2,
      "note": 66,
      "start": 95.6862,
      "duration": 1.1892,
      "velocity": 117,
      "chip": "ym2612"
    },
    {
      "channel": 4,
      "note": 33,
      "start": 95.6879,
      "duration": 0.2195,
      "velocity": 127,
      "chip": "ym2612"
    },
    {
      "channel": 5,
      "note": 63,
      "start": 95.6881,
      "duration": 0.2195,
      "velocity": 91,
      "chip": "ym2612"
    },
    {
      "channel": 4,
      "note": 33,
      "start": 95.9276,
      "duration": 0.2218,
      "velocity": 127,
      "chip": "ym2612"
    },
    {
      "channel": 5,
      "note": 54,
      "start": 95.9278,
      "duration": 0.2217,
      "velocity": 91,
      "chip": "ym2612"
    },
    {
      "channel": 4,
      "note": 33,
      "start": 96.1699,
      "duration": 0.2215,
      "velocity": 127,
      "chip": "ym2612"
    },
    {
      "channel": 5,
      "note": 54,
      "start": 96.17,
      "duration": 0.2215,
      "velocity": 91,
      "chip": "ym2612"
    },
    {
      "channel": 4,
      "note": 68,
      "start": 96.4131,
      "duration": 0.2203,
      "velocity": 127,
      "chip": "ym2612"
    },
    {
      "channel": 5,
      "note": 60,
      "start": 96.4133,
      "duration": 0.2202,
      "velocity": 91,
      "chip": "ym2612"
    },
    {
      "channel": 4,
      "note": 64,
      "start": 96.6553,
      "duration": 0.0789,
      "velocity": 127,
      "chip": "ym2612"
    },
    {
      "channel": 5,
      "note": 61,
      "start": 96.6554,
      "duration": 0.2202,
      "velocity": 91,
      "chip": "ym2612"
    },
    {
      "channel": 4,
      "note": 61,
      "start": 96.7343,
      "duration": 0.0805,
      "velocity": 127,
      "chip": "ym2612"
    },
    {
      "channel": 4,
      "note": 57,
      "start": 96.815,
      "duration": 0.0824,
      "velocity": 127,
      "chip": "ym2612"
    },
    {
      "channel": 1,
      "note": 54,
      "start": 96.8956,
      "duration": 0.2217,
      "velocity": 100,
      "chip": "ym2612"
    },
    {
      "channel": 2,
      "note": 54,
      "start": 96.8958,
      "duration": 0.2216,
      "velocity": 117,
      "chip": "ym2612"
    },
    {
      "channel": 3,
      "note": 45,
      "start": 96.8959,
      "duration": 1.6934,
      "velocity": 127,
      "chip": "ym2612"
    },
    {
      "channel": 4,
      "note": 33,
      "start": 96.8976,
      "duration": 0.22,
      "velocity": 127,
      "chip": "ym2612"
    },
    {
      "channel": 5,
      "note": 54,
      "start": 96.8978,
      "duration": 0.2199,
      "velocity": 91,
      "chip": "ym2612"
    },
    {
      "channel": 1,
      "note": 72,
      "start": 97.1376,
      "duration": 0.2217,
      "velocity": 100,
      "chip": "ym2612"
    },
    {
      "channel": 2,
      "note": 72,
      "start": 97.1377,
      "duration": 0.2217,
      "velocity": 117,
      "chip": "ym2612"
    },
    {
      "channel": 4,
      "note": 33,
      "start": 97.1379,
      "duration": 0.2216,
      "velocity": 127,
      "chip": "ym2612"
    },
    {
      "channel": 5,
      "note": 54,
      "start": 97.138,
      "duration": 0.2216,
      "velocity": 91,
      "chip": "ym2612"
    },
    {
      "channel": 1,
      "note": 71,
      "start": 97.3795,
      "duration": 1.3912,
      "velocity": 100,
      "chip": "ym2612"
    },
    {
      "channel": 2,
      "note": 71,
      "start": 97.3797,
      "duration": 1.3912,
      "velocity": 117,
      "chip": "ym2612"
    },
    {
      "channel": 4,
      "note": 68,
      "start": 97.3813,
      "duration": 0.2198,
      "velocity": 127,
      "chip": "ym2612"
    },
    {
      "channel": 5,
      "note": 64,
      "start": 97.3815,
      "duration": 0.2198,
      "velocity": 91,
      "chip": "ym2612"
    },
    {
      "channel": 4,
      "note": 33,
      "start": 97.6229,
      "duration": 0.2203,
      "velocity": 127,
      "chip": "ym2612"
    },
    {
      "channel": 5,
      "note": 66,
      "start": 97.6231,
      "duration": 0.2202,
      "velocity": 91,
      "chip": "ym2612"
    },
    {
      "channel": 4,
      "note": 33,
      "start": 97.8634,
      "duration": 0.2218,
      "velocity": 127,
      "chip": "ym2612"
    },
    {
      "channel": 5,
      "note": 54,
      "start": 97.8636,
      "duration": 0.2218,
      "velocity": 91,
      "chip": "ym2612"
    },
    {
      "channel": 4,
      "note": 33,
      "start": 98.1053,
      "duration": 0.2218,
      "velocity": 127,
      "chip": "ym2612"
    },
    {
      "channel": 5,
      "note": 54,
      "start": 98.1054,
      "duration": 0.2218,
      "velocity": 91,
      "chip": "ym2612"
    },
    {
      "channel": 4,
      "note": 68,
      "start": 98.3488,
      "duration": 0.2203,
      "velocity": 127,
      "chip": "ym2612"
    },
    {
      "channel": 5,
      "note": 63,
      "start": 98.349,
      "duration": 0.2206,
      "velocity": 91,
      "chip": "ym2612"
    },
    {
      "channel": 4,
      "note": 64,
      "start": 98.591,
      "duration": 0.079,
      "velocity": 127,
      "chip": "ym2612"
    },
    {
      "channel": 5,
      "note": 64,
      "start": 98.5911,
      "duration": 0.22,
      "velocity": 91,
      "chip": "ym2612"
    },
    {
      "channel": 4,
      "note": 61,
      "start": 98.67,
      "duration": 0.0806,
      "velocity": 127,
      "chip": "ym2612"
    },
    {
      "channel": 4,
      "note": 57,
      "start": 98.7507,
      "duration": 0.0824,
      "velocity": 127,
      "chip": "ym2612"
    },
    {
      "channel": 1,
      "note": 54,
      "start": 98.8313,
      "duration": 0.2219,
      "velocity": 100,
      "chip": "ym2612"
    },
    {
      "channel": 2,
      "note": 54,
      "start": 98.8315,
      "duration": 0.2218,
      "velocity": 117,
      "chip": "ym2612"
    },
    {
      "channel": 3,
      "note": 45,
      "start": 98.8316,
      "duration": 1.6934,
      "velocity": 127,
      "chip": "ym2612"
    },
    {
      "channel": 4,
      "note": 33,
      "start": 98.8333,
      "duration": 0.2202,
      "velocity": 127,
      "chip": "ym2612"
    },
    {
      "channel": 5,
      "note": 54,
      "start": 98.8335,
      "duration": 0.2201,
      "velocity": 91,
      "chip": "ym2612"
    },
    {
      "channel": 1,
      "note": 72,
      "start": 99.0733,
      "duration": 0.2217,
      "velocity": 100,
      "chip": "ym2612"
    },
    {
      "channel": 2,
      "note": 72,
      "start": 99.0734,
      "duration": 0.2216,
      "velocity": 117,
      "chip": "ym2612"
    },
    {
      "channel": 4,
      "note": 33,
      "start": 99.0736,
      "duration": 0.2216,
      "velocity": 127,
      "chip": "ym2612"
    },
    {
      "channel": 5,
      "note": 54,
      "start": 99.0737,
      "duration": 0.2216,
      "velocity": 91,
      "chip": "ym2612"
    },
    {
      "channel": 1,
      "note": 71,
      "start": 99.3152,
      "duration": 0.2217,
      "velocity": 100,
      "chip": "ym2612"
    },
    {
      "channel": 2,
      "note": 71,
      "start": 99.3154,
      "duration": 0.2217,
      "velocity": 117,
      "chip": "ym2612"
    },
    {
      "channel": 4,
      "note": 68,
      "start": 99.317,
      "duration": 0.2202,
      "velocity": 127,
      "chip": "ym2612"
    },
    {
      "channel": 5,
      "note": 61,
      "start": 99.3172,
      "duration": 0.2201,
      "velocity": 91,
      "chip": "ym2612"
    },
    {
      "channel": 1,
      "note": 66,
      "start": 99.5572,
      "duration": 0.6452,
      "velocity": 100,
      "chip": "ym2612"
    },
    {
      "channel": 2,
      "note": 66,
      "start": 99.5574,
      "duration": 0.6451,
      "velocity": 117,
      "chip": "ym2612"
    },
    {
      "channel": 4,
      "note": 33,
      "start": 99.559,
      "duration": 0.2199,
      "velocity": 127,
      "chip": "ym2612"
    },
    {
      "channel": 5,
      "note": 63,
      "start": 99.5592,
      "duration": 0.2198,
      "velocity": 91,
      "chip": "ym2612"
    },
    {
      "channel": 4,
      "note": 33,
      "start": 99.7991,
      "duration": 0.2219,
      "velocity": 127,
      "chip": "ym2612"
    },
    {
      "channel": 5,
      "note": 54,
      "start": 99.7993,
      "duration": 0.2218,
      "velocity": 91,
      "chip": "ym2612"
    },
    {
      "channel": 4,
      "note": 33,
      "start": 100.0411,
      "duration": 0.2218,
      "velocity": 127,
      "chip": "ym2612"
    },
    {
      "channel": 5,
      "note": 54,
      "start": 100.0413,
      "duration": 0.2217,
      "velocity": 91,
      "chip": "ym2612"
    },
    {
      "channel": 1,
      "note": 69,
      "start": 100.2831,
      "duration": 0.4233,
      "velocity": 100,
      "chip": "ym2612"
    },
    {
      "channel": 2,
      "note": 69,
      "start": 100.2832,
      "duration": 0.4233,
      "velocity": 117,
      "chip": "ym2612"
    },
    {
      "channel": 4,
      "note": 68,
      "start": 100.2849,
      "duration": 0.2199,
      "velocity": 127,
      "chip": "ym2612"
    },
    {
      "channel": 5,
      "note": 60,
      "start": 100.2851,
      "duration": 0.2198,
      "velocity": 91,
      "chip": "ym2612"
    },
    {
      "channel": 4,
      "note": 64,
      "start": 100.5268,
      "duration": 0.0789,
      "velocity": 127,
      "chip": "ym2612"
    },
    {
      "channel": 5,
      "note": 61,
      "start": 100.527,
      "duration": 0.2199,
      "velocity": 91,
      "chip": "ym2612"
    },
    {
      "channel": 4,
      "note": 61,
      "start": 100.6058,
      "duration": 0.0808,
      "velocity": 127,
      "chip": "ym2612"
    },
    {
      "channel": 4,
      "note": 57,
      "start": 100.6867,
      "duration": 0.0851,
      "velocity": 127,
      "chip": "ym2612"
    },
    {
      "channel": 1,
      "note": 54,
      "start": 100.7685,
      "duration": 0.2715,
      "velocity": 101,
      "chip": "ym2612"
    },
    {
      "channel": 3,
      "note": 45,
      "start": 100.7703,
      "duration": 1.0534,
      "velocity": 127,
      "chip": "ym2612"
    },
    {
      "channel": 4,
      "note": 33,
      "start": 100.772,
      "duration": 1.0518,
      "velocity": 127,
      "chip": "ym2612"
    },
    {
      "channel": 5,
      "note": 54,
      "start": 100.7722,
      "duration": 2.0879,
      "velocity": 91,
      "chip": "ym2612"
    },
    {
      "channel": 1,
      "note": 72,
      "start": 101.0652,
      "duration": 0.278,
      "velocity": 101,
      "chip": "ym2612"
    },
    {
      "channel": 2,
      "note": 54,
      "start": 101.0658,
      "duration": 0.2776,
      "velocity": 101,
      "chip": "ym2612"
    },
    {
      "channel": 1,
      "note": 71,
      "start": 101.3686,
      "duration": 1.7442,
      "velocity": 101,
      "chip": "ym2612"
    },
    {
      "channel": 2,
      "note": 72,
      "start": 101.3688,
      "duration": 0.2779,
      "velocity": 101,
      "chip": "ym2612"
    },
    {
      "channel": 2,
      "note": 71,
      "start": 101.672,
      "duration": 1.7443,
      "velocity": 101,
      "chip": "ym2612"
    },
    {
      "channel": 3,
      "note": 45,
      "start": 102.8854,
      "duration": 0.278,
      "velocity": 127,
      "chip": "ym2612"
    },
    {
      "channel": 4,
      "note": 33,
      "start": 102.8856,
      "duration": 0.278,
      "velocity": 127,
      "chip": "ym2612"
    },
    {
      "channel": 5,
      "note": 54,
      "start": 102.8857,
      "duration": 0.278,
      "velocity": 91,
      "chip": "ym2612"
    },
    {
      "channel": 1,
      "note": 54,
      "start": 103.1888,
      "duration": 0.2781,
      "velocity": 101,
      "chip": "ym2612"
    },
    {
      "channel": 3,
      "note": 45,
      "start": 103.1889,
      "duration": 1.0616,
      "velocity": 127,
      "chip": "ym2612"
    },
    {
      "channel": 4,
      "note": 33,
      "start": 103.189,
      "duration": 1.0616,
      "velocity": 127,
      "chip": "ym2612"
    },
    {
      "channel": 5,
      "note": 54,
      "start": 103.1892,
      "duration": 2.0978,
      "velocity": 91,
      "chip": "ym2612"
    },
    {
      "channel": 1,
      "note": 72,
      "start": 103.4922,
      "duration": 0.278,
      "velocity": 101,
      "chip": "ym2612"
    },
    {
      "channel": 2,
      "note": 54,
      "start": 103.4923,
      "duration": 0.2779,
      "velocity": 101,
      "chip": "ym2612"
    },
    {
      "channel": 1,
      "note": 71,
      "start": 103.7955,
      "duration": 0.278,
      "velocity": 101,
      "chip": "ym2612"
    },
    {
      "channel": 2,
      "note": 72,
      "start": 103.7956,
      "duration": 0.278,
      "velocity": 101,
      "chip": "ym2612"
    },
    {
      "channel": 1,
      "note": 66,
      "start": 104.0989,
      "duration": 1.4915,
      "velocity": 101,
      "chip": "ym2612"
    },
    {
      "channel": 2,
      "note": 71,
      "start": 104.099,
      "duration": 0.2779,
      "velocity": 101,
      "chip": "ym2612"
    },
    {
      "channel": 2,
      "note": 66,
      "start": 104.4022,
      "duration": 1.4916,
      "velocity": 101,
      "chip": "ym2612"
    },
    {
      "channel": 3,
      "note": 45,
      "start": 105.3123,
      "duration": 0.2782,
      "velocity": 127,
      "chip": "ym2612"
    },
    {
      "channel": 4,
      "note": 33,
      "start": 105.3124,
      "duration": 0.2782,
      "velocity": 127,
      "chip": "ym2612"
    },
    {
      "channel": 5,
      "note": 54,
      "start": 105.3126,
      "duration": 0.2782,
      "velocity": 91,
      "chip": "ym2612"
    },
    {
      "channel": 1,
      "note": 54,
      "start": 105.6157,
      "duration": 0.278,
      "velocity": 101,
      "chip": "ym2612"
    },
    {
      "channel": 3,
      "note": 45,
      "start": 105.6158,
      "duration": 1.0616,
      "velocity": 127,
      "chip": "ym2612"
    },
    {
      "channel": 4,
      "note": 33,
      "start": 105.6159,
      "duration": 1.0617,
      "velocity": 127,
      "chip": "ym2612"
    },
    {
      "channel": 5,
      "note": 54,
      "start": 105.6161,
      "duration": 2.0978,
      "velocity": 91,
      "chip": "ym2612"
    },
    {
      "channel": 1,
      "note": 72,
      "start": 105.9191,
      "duration": 0.278,
      "velocity": 101,
      "chip": "ym2612"
    },
    {
      "channel": 2,
      "note": 54,
      "start": 105.9196,
      "duration": 0.2776,
      "velocity": 101,
      "chip": "ym2612"
    },
    {
      "channel": 1,
      "note": 71,
      "start": 106.2224,
      "duration": 1.7442,
      "velocity": 101,
      "chip": "ym2612"
    },
    {
      "channel": 2,
      "note": 72,
      "start": 106.2226,
      "duration": 0.2779,
      "velocity": 101,
      "chip": "ym2612"
    },
    {
      "channel": 2,
      "note": 71,
      "start": 106.5258,
      "duration": 1.7443,
      "velocity": 101,
      "chip": "ym2612"
    },
    {
      "channel": 3,
      "note": 45,
      "start": 107.7392,
      "duration": 0.278,
      "velocity": 127,
      "chip": "ym2612"
    },
    {
      "channel": 4,
      "note": 33,
      "start": 107.7394,
      "duration": 0.2779,
      "velocity": 127,
      "chip": "ym2612"
    },
    {
      "channel": 5,
      "note": 54,
      "start": 107.7395,
      "duration": 0.278,
      "velocity": 91,
      "chip": "ym2612"
    },
    {
      "channel": 1,
      "note": 54,
      "start": 108.0426,
      "duration": 0.278,
      "velocity": 101,
      "chip": "ym2612"
    },
    {
      "channel": 3,
      "note": 45,
      "start": 108.0427,
      "duration": 2.1235,
      "velocity": 127,
      "chip": "ym2612"
    },
    {
      "channel": 5,
      "note": 54,
      "start": 108.0429,
      "duration": 0.2778,
      "velocity": 91,
      "chip": "ym2612"
    },
    {
      "channel": 1,
      "note": 72,
      "start": 108.346,
      "duration": 0.2781,
      "velocity": 101,
      "chip": "ym2612"
    },
    {
      "channel": 2,
      "note": 54,
      "start": 108.3462,
      "duration": 0.278,
      "velocity": 101,
      "chip": "ym2612"
    },
    {
      "channel": 4,
      "note": 33,
      "start": 108.3463,
      "duration": 0.278,
      "velocity": 127,
      "chip": "ym2612"
    },
    {
      "channel": 5,
      "note": 54,
      "start": 108.3464,
      "duration": 0.278,
      "velocity": 91,
      "chip": "ym2612"
    },
    {
      "channel": 1,
      "note": 71,
      "start": 108.6493,
      "duration": 0.278,
      "velocity": 101,
      "chip": "ym2612"
    },
    {
      "channel": 2,
      "note": 72,
      "start": 108.6495,
      "duration": 0.2779,
      "velocity": 101,
      "chip": "ym2612"
    },
    {
      "channel": 4,
      "note": 33,
      "start": 108.6497,
      "duration": 0.2779,
      "velocity": 127,
      "chip": "ym2612"
    },
    {
      "channel": 5,
      "note": 54,
      "start": 108.6498,
      "duration": 0.2779,
      "velocity": 91,
      "chip": "ym2612"
    },
    {
      "channel": 1,
      "note": 66,
      "start": 108.953,
      "duration": 0.8085,
      "velocity": 101,
      "chip": "ym2612"
    },
    {
      "channel": 2,
      "note": 71,
      "start": 108.9532,
      "duration": 0.2775,
      "velocity": 101,
      "chip": "ym2612"
    },
    {
      "channel": 4,
      "note": 33,
      "start": 108.9534,
      "duration": 0.2775,
      "velocity": 127,
      "chip": "ym2612"
    },
    {
      "channel": 5,
      "note": 54,
      "start": 108.9535,
      "duration": 0.2775,
      "velocity": 91,
      "chip": "ym2612"
    },
    {
      "channel": 2,
      "note": 66,
      "start": 109.2561,
      "duration": 0.8089,
      "velocity": 101,
      "chip": "ym2612"
    },
    {
      "channel": 4,
      "note": 33,
      "start": 109.2562,
      "duration": 0.2779,
      "velocity": 127,
      "chip": "ym2612"
    },
    {
      "channel": 5,
      "note": 54,
      "start": 109.2563,
      "duration": 0.2779,
      "velocity": 91,
      "chip": "ym2612"
    },
    {
      "channel": 4,
      "note": 33,
      "start": 109.5594,
      "duration": 0.278,
      "velocity": 127,
      "chip": "ym2612"
    },
    {
      "channel": 5,
      "note": 54,
      "start": 109.5595,
      "duration": 0.278,
      "velocity": 91,
      "chip": "ym2612"
    },
    {
      "channel": 1,
      "note": 69,
      "start": 109.8628,
      "duration": 0.5309,
      "velocity": 101,
      "chip": "ym2612"
    },
    {
      "channel": 4,
      "note": 33,
      "start": 109.8629,
      "duration": 0.2779,
      "velocity": 127,
      "chip": "ym2612"
    },
    {
      "channel": 5,
      "note": 54,
      "start": 109.8631,
      "duration": 0.2779,
      "velocity": 91,
      "chip": "ym2612"
    },
    {
      "channel": 2,
      "note": 69,
      "start": 110.1661,
      "duration": 0.278,
      "velocity": 101,
      "chip": "ym2612"
    },
    {
      "channel": 4,
      "note": 64,
      "start": 110.1679,
      "duration": 0.0993,
      "velocity": 127,
      "chip": "ym2612"
    },
    {
      "channel": 5,
      "note": 54,
      "start": 110.168,
      "duration": 0.2762,
      "velocity": 91,
      "chip": "ym2612"
    },
    {
      "channel": 4,
      "note": 61,
      "start": 110.2673,
      "duration": 0.101,
      "velocity": 127,
      "chip": "ym2612"
    },
    {
      "channel": 4,
      "note": 57,
      "start": 110.3684,
      "duration": 0.1063,
      "velocity": 127,
      "chip": "ym2612"
    },
    {
      "channel": 1,
      "note": 54,
      "start": 110.4714,
      "duration": 0.2249,
      "velocity": 100,
      "chip": "ym2612"
    },
    {
      "channel": 2,
      "note": 54,
      "start": 110.473,
      "duration": 0.2235,
      "velocity": 117,
      "chip": "ym2612"
    },
    {
      "channel": 3,
      "note": 45,
      "start": 110.4731,
      "duration": 1.6952,
      "velocity": 127,
      "chip": "ym2612"
    },
    {
      "channel": 4,
      "note": 33,
      "start": 110.4749,
      "duration": 0.2217,
      "velocity": 127,
      "chip": "ym2612"
    },
    {
      "channel": 5,
      "note": 54,
      "start": 110.475,
      "duration": 0.2217,
      "velocity": 91,
      "chip": "ym2612"
    },
    {
      "channel": 1,
      "note": 72,
      "start": 110.7166,
      "duration": 0.2218,
      "velocity": 100,
      "chip": "ym2612"
    },
    {
      "channel": 2,
      "note": 72,
      "start": 110.7168,
      "duration": 0.2217,
      "velocity": 117,
      "chip": "ym2612"
    },
    {
      "channel": 4,
      "note": 33,
      "start": 110.7169,
      "duration": 0.2217,
      "velocity": 127,
      "chip": "ym2612"
    },
    {
      "channel": 5,
      "note": 54,
      "start": 110.717,
      "duration": 0.2217,
      "velocity": 91,
      "chip": "ym2612"
    },
    {
      "channel": 1,
      "note": 71,
      "start": 110.9586,
      "duration": 1.3912,
      "velocity": 100,
      "chip": "ym2612"
    },
    {
      "channel": 2,
      "note": 71,
      "start": 110.9588,
      "duration": 1.3912,
      "velocity": 117,
      "chip": "ym2612"
    },
    {
      "channel": 4,
      "note": 33,
      "start": 110.9589,
      "duration": 0.2214,
      "velocity": 127,
      "chip": "ym2612"
    },
    {
      "channel": 5,
      "note": 54,
      "start": 110.959,
      "duration": 0.2215,
      "velocity": 91,
      "chip": "ym2612"
    },
    {
      "channel": 4,
      "note": 33,
      "start": 111.2005,
      "duration": 0.2217,
      "velocity": 127,
      "chip": "ym2612"
    },
    {
      "channel": 5,
      "note": 54,
      "start": 111.2006,
      "duration": 0.2218,
      "velocity": 91,
      "chip": "ym2612"
    },
    {
      "channel": 4,
      "note": 33,
      "start": 111.4425,
      "duration": 0.2217,
      "velocity": 127,
      "chip": "ym2612"
    },
    {
      "channel": 5,
      "note": 54,
      "start": 111.4426,
      "duration": 0.2217,
      "velocity": 91,
      "chip": "ym2612"
    },
    {
      "channel": 4,
      "note": 33,
      "start": 111.6845,
      "duration": 0.2217,
      "velocity": 127,
      "chip": "ym2612"
    },
    {
      "channel": 5,
      "note": 54,
      "start": 111.6846,
      "duration": 0.2218,
      "velocity": 91,
      "chip": "ym2612"
    },
    {
      "channel": 4,
      "note": 33,
      "start": 111.9264,
      "duration": 0.2218,
      "velocity": 127,
      "chip": "ym2612"
    },
    {
      "channel": 5,
      "note": 54,
      "start": 111.9265,
      "duration": 0.2218,
      "velocity": 91,
      "chip": "ym2612"
    },
    {
      "channel": 4,
      "note": 64,
      "start": 112.1705,
      "duration": 0.0786,
      "velocity": 127,
      "chip": "ym2612"
    },
    {
      "channel": 5,
      "note": 54,
      "start": 112.1706,
      "duration": 0.2196,
      "velocity": 91,
      "chip": "ym2612"
    },
    {
      "channel": 4,
      "note": 61,
      "start": 112.2491,
      "duration": 0.0806,
      "velocity": 127,
      "chip": "ym2612"
    },
    {
      "channel": 4,
      "note": 57,
      "start": 112.3298,
      "duration": 0.0824,
      "velocity": 127,
      "chip": "ym2612"
    },
    {
      "channel": 1,
      "note": 54,
      "start": 112.4103,
      "duration": 0.2218,
      "velocity": 100,
      "chip": "ym2612"
    },
    {
      "channel": 2,
      "note": 54,
      "start": 112.4105,
      "duration": 0.2217,
      "velocity": 117,
      "chip": "ym2612"
    },
    {
      "channel": 3,
      "note": 45,
      "start": 112.4107,
      "duration": 1.6934,
      "velocity": 127,
      "chip": "ym2612"
    },
    {
      "channel": 4,
      "note": 33,
      "start": 112.4123,
      "duration": 0.22,
      "velocity": 127,
      "chip": "ym2612"
    },
    {
      "channel": 5,
      "note": 54,
      "start": 112.4124,
      "duration": 0.22,
      "velocity": 91,
      "chip": "ym2612"
    },
    {
      "channel": 1,
      "note": 72,
      "start": 112.6523,
      "duration": 0.2217,
      "velocity": 100,
      "chip": "ym2612"
    },
    {
      "channel": 2,
      "note": 72,
      "start": 112.6526,
      "duration": 0.2216,
      "velocity": 117,
      "chip": "ym2612"
    },
    {
      "channel": 4,
      "note": 33,
      "start": 112.653,
      "duration": 0.2212,
      "velocity": 127,
      "chip": "ym2612"
    },
    {
      "channel": 5,
      "note": 54,
      "start": 112.6532,
      "duration": 0.2212,
      "velocity": 91,
      "chip": "ym2612"
    },
    {
      "channel": 1,
      "note": 71,
      "start": 112.8943,
      "duration": 0.2217,
      "velocity": 100,
      "chip": "ym2612"
    },
    {
      "channel": 2,
      "note": 71,
      "start": 112.8944,
      "duration": 0.2217,
      "velocity": 117,
      "chip": "ym2612"
    },
    {
      "channel": 4,
      "note": 33,
      "start": 112.8946,
      "duration": 0.2217,
      "velocity": 127,
      "chip": "ym2612"
    },
    {
      "channel": 5,
      "note": 54,
      "start": 112.8947,
      "duration": 0.2218,
      "velocity": 91,
      "chip": "ym2612"
    },
    {
      "channel": 1,
      "note": 66,
      "start": 113.1366,
      "duration": 1.1892,
      "velocity": 100,
      "chip": "ym2612"
    },
    {
      "channel": 2,
      "note": 66,
      "start": 113.1368,
      "duration": 1.1891,
      "velocity": 117,
      "chip": "ym2612"
    },
    {
      "channel": 4,
      "note": 33,
      "start": 113.1369,
      "duration": 0.2211,
      "velocity": 127,
      "chip": "ym2612"
    },
    {
      "channel": 5,
      "note": 54,
      "start": 113.1371,
      "duration": 0.221,
      "velocity": 91,
      "chip": "ym2612"
    },
    {
      "channel": 4,
      "note": 33,
      "start": 113.3782,
      "duration": 0.2217,
      "velocity": 127,
      "chip": "ym2612"
    },
    {
      "channel": 5,
      "note": 54,
      "start": 113.3783,
      "duration": 0.2218,
      "velocity": 91,
      "chip": "ym2612"
    },
    {
      "channel": 4,
      "note": 33,
      "start": 113.6202,
      "duration": 0.2218,
      "velocity": 127,
      "chip": "ym2612"
    },
    {
      "channel": 5,
      "note": 54,
      "start": 113.6203,
      "duration": 0.2217,
      "velocity": 91,
      "chip": "ym2612"
    },
    {
      "channel": 4,
      "note": 33,
      "start": 113.8621,
      "duration": 0.2217,
      "velocity": 127,
      "chip": "ym2612"
    },
    {
      "channel": 5,
      "note": 54,
      "start": 113.8623,
      "duration": 0.2217,
      "velocity": 91,
      "chip": "ym2612"
    },
    {
      "channel": 4,
      "note": 64,
      "start": 114.1058,
      "duration": 0.079,
      "velocity": 127,
      "chip": "ym2612"
    },
    {
      "channel": 5,
      "note": 54,
      "start": 114.1059,
      "duration": 0.2202,
      "velocity": 91,
      "chip": "ym2612"
    },
    {
      "channel": 4,
      "note": 61,
      "start": 114.1848,
      "duration": 0.0806,
      "velocity": 127,
      "chip": "ym2612"
    },
    {
      "channel": 4,
      "note": 57,
      "start": 114.2656,
      "duration": 0.0824,
      "velocity": 127,
      "chip": "ym2612"
    },
    {
      "channel": 1,
      "note": 54,
      "start": 114.3461,
      "duration": 0.2217,
      "velocity": 100,
      "chip": "ym2612"
    },
    {
      "channel": 2,
      "note": 54,
      "start": 114.3462,
      "duration": 0.2217,
      "velocity": 117,
      "chip": "ym2612"
    },
    {
      "channel": 3,
      "note": 45,
      "start": 114.3463,
      "duration": 1.6934,
      "velocity": 127,
      "chip": "ym2612"
    },
    {
      "channel": 4,
      "note": 33,
      "start": 114.3481,
      "duration": 0.22,
      "velocity": 127,
      "chip": "ym2612"
    },
    {
      "channel": 5,
      "note": 54,
      "start": 114.3482,
      "duration": 0.22,
      "velocity": 91,
      "chip": "ym2612"
    },
    {
      "channel": 1,
      "note": 72,
      "start": 114.5881,
      "duration": 0.2217,
      "velocity": 100,
      "chip": "ym2612"
    },
    {
      "channel": 2,
      "note": 72,
      "start": 114.5883,
      "duration": 0.2216,
      "velocity": 117,
      "chip": "ym2612"
    },
    {
      "channel": 4,
      "note": 33,
      "start": 114.5884,
      "duration": 0.2216,
      "velocity": 127,
      "chip": "ym2612"
    },
    {
      "channel": 5,
      "note": 54,
      "start": 114.5885,
      "duration": 0.2216,
      "velocity": 91,
      "chip": "ym2612"
    },
    {
      "channel": 1,
      "note": 71,
      "start": 114.8301,
      "duration": 1.3912,
      "velocity": 100,
      "chip": "ym2612"
    },
    {
      "channel": 2,
      "note": 71,
      "start": 114.8302,
      "duration": 1.3911,
      "velocity": 117,
      "chip": "ym2612"
    },
    {
      "channel": 4,
      "note": 33,
      "start": 114.8304,
      "duration": 0.2214,
      "velocity": 127,
      "chip": "ym2612"
    },
    {
      "channel": 5,
      "note": 54,
      "start": 114.8305,
      "duration": 0.2214,
      "velocity": 91,
      "chip": "ym2612"
    },
    {
      "channel": 4,
      "note": 33,
      "start": 115.0719,
      "duration": 0.2218,
      "velocity": 127,
      "chip": "ym2612"
    },
    {
      "channel": 5,
      "note": 54,
      "start": 115.0721,
      "duration": 0.2218,
      "velocity": 91,
      "chip": "ym2612"
    },
    {
      "channel": 4,
      "note": 33,
      "start": 115.314,
      "duration": 0.2218,
      "velocity": 127,
      "chip": "ym2612"
    },
    {
      "channel": 5,
      "note": 54,
      "start": 115.3141,
      "duration": 0.2221,
      "velocity": 91,
      "chip": "ym2612"
    },
    {
      "channel": 4,
      "note": 33,
      "start": 115.5559,
      "duration": 0.2217,
      "velocity": 127,
      "chip": "ym2612"
    },
    {
      "channel": 5,
      "note": 54,
      "start": 115.556,
      "duration": 0.2217,
      "velocity": 91,
      "chip": "ym2612"
    },
    {
      "channel": 4,
      "note": 33,
      "start": 115.7979,
      "duration": 0.222,
      "velocity": 127,
      "chip": "ym2612"
    },
    {
      "channel": 5,
      "note": 54,
      "start": 115.798,
      "duration": 0.222,
      "velocity": 91,
      "chip": "ym2612"
    },
    {
      "channel": 4,
      "note": 64,
      "start": 116.0415,
      "duration": 0.079,
      "velocity": 127,
      "chip": "ym2612"
    },
    {
      "channel": 5,
      "note": 54,
      "start": 116.0417,
      "duration": 0.22,
      "velocity": 91,
      "chip": "ym2612"
    },
    {
      "channel": 4,
      "note": 61,
      "start": 116.1206,
      "duration": 0.0805,
      "velocity": 127,
      "chip": "ym2612"
    },
    {
      "channel": 4,
      "note": 57,
      "start": 116.2012,
      "duration": 0.0824,
      "velocity": 127,
      "chip": "ym2612"
    },
    {
      "channel": 1,
      "note": 54,
      "start": 116.2819,
      "duration": 0.2217,
      "velocity": 100,
      "chip": "ym2612"
    },
    {
      "channel": 2,
      "note": 54,
      "start": 116.282,
      "duration": 0.2217,
      "velocity": 117,
      "chip": "ym2612"
    },
    {
      "channel": 3,
      "note": 45,
      "start": 116.2822,
      "duration": 1.6934,
      "velocity": 127,
      "chip": "ym2612"
    },
    {
      "channel": 4,
      "note": 33,
      "start": 116.2839,
      "duration": 0.22,
      "velocity": 127,
      "chip": "ym2612"
    },
    {
      "channel": 5,
      "note": 54,
      "start": 116.284,
      "duration": 0.22,
      "velocity": 91,
      "chip": "ym2612"
    },
    {
      "channel": 1,
      "note": 72,
      "start": 116.5238,
      "duration": 0.2217,
      "velocity": 100,
      "chip": "ym2612"
    },
    {
      "channel": 2,
      "note": 72,
      "start": 116.524,
      "duration": 0.2216,
      "velocity": 117,
      "chip": "ym2612"
    },
    {
      "channel": 4,
      "note": 33,
      "start": 116.5241,
      "duration": 0.2216,
      "velocity": 127,
      "chip": "ym2612"
    },
    {
      "channel": 5,
      "note": 54,
      "start": 116.5243,
      "duration": 0.2216,
      "velocity": 91,
      "chip": "ym2612"
    },
    {
      "channel": 1,
      "note": 71,
      "start": 116.7658,
      "duration": 0.2217,
      "velocity": 100,
      "chip": "ym2612"
    },
    {
      "channel": 2,
      "note": 71,
      "start": 116.7659,
      "duration": 0.2217,
      "velocity": 117,
      "chip": "ym2612"
    },
    {
      "channel": 4,
      "note": 33,
      "start": 116.7661,
      "duration": 0.2217,
      "velocity": 127,
      "chip": "ym2612"
    },
    {
      "channel": 5,
      "note": 54,
      "start": 116.7662,
      "duration": 0.2217,
      "velocity": 91,
      "chip": "ym2612"
    },
    {
      "channel": 1,
      "note": 66,
      "start": 117.0077,
      "duration": 0.6454,
      "velocity": 100,
      "chip": "ym2612"
    },
    {
      "channel": 2,
      "note": 66,
      "start": 117.0079,
      "duration": 0.6454,
      "velocity": 117,
      "chip": "ym2612"
    },
    {
      "channel": 4,
      "note": 33,
      "start": 117.008,
      "duration": 0.2215,
      "velocity": 127,
      "chip": "ym2612"
    },
    {
      "channel": 5,
      "note": 54,
      "start": 117.0082,
      "duration": 0.2215,
      "velocity": 91,
      "chip": "ym2612"
    },
    {
      "channel": 4,
      "note": 33,
      "start": 117.2497,
      "duration": 0.2217,
      "velocity": 127,
      "chip": "ym2612"
    },
    {
      "channel": 5,
      "note": 54,
      "start": 117.2498,
      "duration": 0.2218,
      "velocity": 91,
      "chip": "ym2612"
    },
    {
      "channel": 4,
      "note": 33,
      "start": 117.4917,
      "duration": 0.2217,
      "velocity": 127,
      "chip": "ym2612"
    },
    {
      "channel": 5,
      "note": 54,
      "start": 117.4918,
      "duration": 0.2218,
      "velocity": 91,
      "chip": "ym2612"
    },
    {
      "channel": 1,
      "note": 69,
      "start": 117.7336,
      "duration": 0.4234,
      "velocity": 100,
      "chip": "ym2612"
    },
    {
      "channel": 2,
      "note": 69,
      "start": 117.7338,
      "duration": 0.4233,
      "velocity": 117,
      "chip": "ym2612"
    },
    {
      "channel": 4,
      "note": 33,
      "start": 117.7339,
      "duration": 0.2215,
      "velocity": 127,
      "chip": "ym2612"
    },
    {
      "channel": 5,
      "note": 54,
      "start": 117.7341,
      "duration": 0.2214,
      "velocity": 91,
      "chip": "ym2612"
    },
    {
      "channel": 4,
      "note": 64,
      "start": 117.9773,
      "duration": 0.0789,
      "velocity": 127,
      "chip": "ym2612"
    },
    {
      "channel": 5,
      "note": 54,
      "start": 117.9774,
      "duration": 0.22,
      "velocity": 91,
      "chip": "ym2612"
    },
    {
      "channel": 4,
      "note": 61,
      "start": 118.0563,
      "duration": 0.0806,
      "velocity": 127,
      "chip": "ym2612"
    },
    {
      "channel": 4,
      "note": 57,
      "start": 118.1371,
      "duration": 0.0827,
      "velocity": 127,
      "chip": "ym2612"
    },
    {
      "channel": 1,
      "note": 54,
      "start": 118.2176,
      "duration": 0.2217,
      "velocity": 100,
      "chip": "ym2612"
    },
    {
      "channel": 2,
      "note": 54,
      "start": 118.2178,
      "duration": 0.2216,
      "velocity": 117,
      "chip": "ym2612"
    },
    {
      "channel": 3,
      "note": 45,
      "start": 118.2179,
      "duration": 1.6934,
      "velocity": 127,
      "chip": "ym2612"
    },
    {
      "channel": 4,
      "note": 33,
      "start": 118.22,
      "duration": 0.2196,
      "velocity": 127,
      "chip": "ym2612"
    },
    {
      "channel": 5,
      "note": 54,
      "start": 118.2201,
      "duration": 0.2196,
      "velocity": 91,
      "chip": "ym2612"
    },
    {
      "channel": 1,
      "note": 72,
      "start": 118.4596,
      "duration": 0.2217,
      "velocity": 100,
      "chip": "ym2612"
    },
    {
      "channel": 2,
      "note": 72,
      "start": 118.4597,
      "duration": 0.2217,
      "velocity": 117,
      "chip": "ym2612"
    },
    {
      "channel": 4,
      "note": 33,
      "start": 118.4599,
      "duration": 0.2216,
      "velocity": 127,
      "chip": "ym2612"
    },
    {
      "channel": 5,
      "note": 54,
      "start": 118.46,
      "duration": 0.2216,
      "velocity": 91,
      "chip": "ym2612"
    },
    {
      "channel": 1,
      "note": 71,
      "start": 118.7015,
      "duration": 1.3912,
      "velocity": 100,
      "chip": "ym2612"
    },
    {
      "channel": 2,
      "note": 71,
      "start": 118.7017,
      "duration": 1.3912,
      "velocity": 117,
      "chip": "ym2612"
    },
    {
      "channel": 4,
      "note": 68,
      "start": 118.7037,
      "duration": 0.2196,
      "velocity": 127,
      "chip": "ym2612"
    },
    {
      "channel": 5,
      "note": 64,
      "start": 118.7039,
      "duration": 0.2196,
      "velocity": 91,
      "chip": "ym2612"
    },
    {
      "channel": 4,
      "note": 33,
      "start": 118.945,
      "duration": 0.2202,
      "velocity": 127,
      "chip": "ym2612"
    },
    {
      "channel": 5,
      "note": 66,
      "start": 118.9451,
      "duration": 0.2202,
      "velocity": 91,
      "chip": "ym2612"
    },
    {
      "channel": 4,
      "note": 33,
      "start": 119.1854,
      "duration": 0.2218,
      "velocity": 127,
      "chip": "ym2612"
    },
    {
      "channel": 5,
      "note": 54,
      "start": 119.1856,
      "duration": 0.2218,
      "velocity": 91,
      "chip": "ym2612"
    },
    {
      "channel": 4,
      "note": 33,
      "start": 119.4274,
      "duration": 0.2218,
      "velocity": 127,
      "chip": "ym2612"
    },
    {
      "channel": 5,
      "note": 54,
      "start": 119.4275,
      "duration": 0.2218,
      "velocity": 91,
      "chip": "ym2612"
    },
    {
      "channel": 4,
      "note": 68,
      "start": 119.6714,
      "duration": 0.2197,
      "velocity": 127,
      "chip": "ym2612"
    },
    {
      "channel": 5,
      "note": 63,
      "start": 119.6715,
      "duration": 0.2197,
      "velocity": 91,
      "chip": "ym2612"
    },
    {
      "channel": 4,
      "note": 64,
      "start": 119.913,
      "duration": 0.079,
      "velocity": 127,
      "chip": "ym2612"
    },
    {
      "channel": 5,
      "note": 64,
      "start": 119.9132,
      "duration": 0.2199,
      "velocity": 91,
      "chip": "ym2612"
    },
    {
      "channel": 4,
      "note": 61,
      "start": 119.9921,
      "duration": 0.0806,
      "velocity": 127,
      "chip": "ym2612"
    },
    {
      "channel": 4,
      "note": 57,
      "start": 120.0728,
      "duration": 0.0824,
      "velocity": 127,
      "chip": "ym2612"
    },
    {
      "channel": 1,
      "note": 54,
      "start": 120.1533,
      "duration": 0.2217,
      "velocity": 100,
      "chip": "ym2612"
    },
    {
      "channel": 2,
      "note": 54,
      "start": 120.1535,
      "duration": 0.2217,
      "velocity": 117,
      "chip": "ym2612"
    },
    {
      "channel": 3,
      "note": 45,
      "start": 120.1536,
      "duration": 1.6934,
      "velocity": 127,
      "chip": "ym2612"
    },
    {
      "channel": 4,
      "note": 33,
      "start": 120.1553,
      "duration": 0.22,
      "velocity": 127,
      "chip": "ym2612"
    },
    {
      "channel": 5,
      "note": 54,
      "start": 120.1555,
      "duration": 0.2199,
      "velocity": 91,
      "chip": "ym2612"
    },
    {
      "channel": 1,
      "note": 72,
      "start": 120.3953,
      "duration": 0.2218,
      "velocity": 100,
      "chip": "ym2612"
    },
    {
      "channel": 2,
      "note": 72,
      "start": 120.3955,
      "duration": 0.2217,
      "velocity": 117,
      "chip": "ym2612"
    },
    {
      "channel": 4,
      "note": 33,
      "start": 120.3956,
      "duration": 0.2217,
      "velocity": 127,
      "chip": "ym2612"
    },
    {
      "channel": 5,
      "note": 54,
      "start": 120.3957,
      "duration": 0.2217,
      "velocity": 91,
      "chip": "ym2612"
    },
    {
      "channel": 1,
      "note": 71,
      "start": 120.6373,
      "duration": 0.2217,
      "velocity": 100,
      "chip": "ym2612"
    },
    {
      "channel": 2,
      "note": 71,
      "start": 120.6374,
      "duration": 0.2216,
      "velocity": 117,
      "chip": "ym2612"
    },
    {
      "channel": 4,
      "note": 68,
      "start": 120.6391,
      "duration": 0.2202,
      "velocity": 127,
      "chip": "ym2612"
    },
    {
      "channel": 5,
      "note": 61,
      "start": 120.6392,
      "duration": 0.2202,
      "velocity": 91,
      "chip": "ym2612"
    },
    {
      "channel": 1,
      "note": 66,
      "start": 120.8793,
      "duration": 1.1895,
      "velocity": 100,
      "chip": "ym2612"
    },
    {
      "channel": 2,
      "note": 66,
      "start": 120.8794,
      "duration": 1.1895,
      "velocity": 117,
      "chip": "ym2612"
    },
    {
      "channel": 4,
      "note": 33,
      "start": 120.8811,
      "duration": 0.2198,
      "velocity": 127,
      "chip": "ym2612"
    },
    {
      "channel": 5,
      "note": 63,
      "start": 120.8812,
      "duration": 0.2198,
      "velocity": 91,
      "chip": "ym2612"
    },
    {
      "channel": 4,
      "note": 33,
      "start": 121.1212,
      "duration": 0.2218,
      "velocity": 127,
      "chip": "ym2612"
    },
    {
      "channel": 5,
      "note": 54,
      "start": 121.1214,
      "duration": 0.2217,
      "velocity": 91,
      "chip": "ym2612"
    },
    {
      "channel": 4,
      "note": 33,
      "start": 121.3631,
      "duration": 0.2218,
      "velocity": 127,
      "chip": "ym2612"
    },
    {
      "channel": 5,
      "note": 54,
      "start": 121.3632,
      "duration": 0.2218,
      "velocity": 91,
      "chip": "ym2612"
    },
    {
      "channel": 4,
      "note": 68,
      "start": 121.6066,
      "duration": 0.2203,
      "velocity": 127,
      "chip": "ym2612"
    },
    {
      "channel": 5,
      "note": 60,
      "start": 121.6068,
      "duration": 0.2202,
      "velocity": 91,
      "chip": "ym2612"
    },
    {
      "channel": 4,
      "note": 64,
      "start": 121.8488,
      "duration": 0.0789,
      "velocity": 127,
      "chip": "ym2612"
    },
    {
      "channel": 5,
      "note": 61,
      "start": 121.849,
      "duration": 0.2201,
      "velocity": 91,
      "chip": "ym2612"
    },
    {
      "channel": 4,
      "note": 61,
      "start": 121.9278,
      "duration": 0.0806,
      "velocity": 127,
      "chip": "ym2612"
    },
    {
      "channel": 4,
      "note": 57,
      "start": 122.0085,
      "duration": 0.0824,
      "velocity": 127,
      "chip": "ym2612"
    },
    {
      "channel": 1,
      "note": 54,
      "start": 122.0891,
      "duration": 0.2217,
      "velocity": 100,
      "chip": "ym2612"
    },
    {
      "channel": 2,
      "note": 54,
      "start": 122.0893,
      "duration": 0.2216,
      "velocity": 117,
      "chip": "ym2612"
    },
    {
      "channel": 3,
      "note": 45,
      "start": 122.0894,
      "duration": 1.6934,
      "velocity": 127,
      "chip": "ym2612"
    },
    {
      "channel": 4,
      "note": 33,
      "start": 122.0911,
      "duration": 0.22,
      "velocity": 127,
      "chip": "ym2612"
    },
    {
      "channel": 5,
      "note": 54,
      "start": 122.0913,
      "duration": 0.2199,
      "velocity": 91,
      "chip": "ym2612"
    },
    {
      "channel": 1,
      "note": 72,
      "start": 122.331,
      "duration": 0.2221,
      "velocity": 100,
      "chip": "ym2612"
    },
    {
      "channel": 2,
      "note": 72,
      "start": 122.3312,
      "duration": 0.2221,
      "velocity": 117,
      "chip": "ym2612"
    },
    {
      "channel": 4,
      "note": 33,
      "start": 122.3313,
      "duration": 0.2221,
      "velocity": 127,
      "chip": "ym2612"
    },
    {
      "channel": 5,
      "note": 54,
      "start": 122.3315,
      "duration": 0.2221,
      "velocity": 91,
      "chip": "ym2612"
    },
    {
      "channel": 1,
      "note": 71,
      "start": 122.573,
      "duration": 1.3912,
      "velocity": 100,
      "chip": "ym2612"
    },
    {
      "channel": 2,
      "note": 71,
      "start": 122.5732,
      "duration": 1.3912,
      "velocity": 117,
      "chip": "ym2612"
    },
    {
      "channel": 4,
      "note": 68,
      "start": 122.5749,
      "duration": 0.2199,
      "velocity": 127,
      "chip": "ym2612"
    },
    {
      "channel": 5,
      "note": 64,
      "start": 122.575,
      "duration": 0.2199,
      "velocity": 91,
      "chip": "ym2612"
    },
    {
      "channel": 4,
      "note": 33,
      "start": 122.8164,
      "duration": 0.2203,
      "velocity": 127,
      "chip": "ym2612"
    },
    {
      "channel": 5,
      "note": 66,
      "start": 122.8166,
      "duration": 0.2202,
      "velocity": 91,
      "chip": "ym2612"
    },
    {
      "channel": 4,
      "note": 33,
      "start": 123.0569,
      "duration": 0.2218,
      "velocity": 127,
      "chip": "ym2612"
    },
    {
      "channel": 5,
      "note": 54,
      "start": 123.0571,
      "duration": 0.2218,
      "velocity": 91,
      "chip": "ym2612"
    },
    {
      "channel": 4,
      "note": 33,
      "start": 123.2988,
      "duration": 0.2219,
      "velocity": 127,
      "chip": "ym2612"
    },
    {
      "channel": 5,
      "note": 54,
      "start": 123.299,
      "duration": 0.2219,
      "velocity": 91,
      "chip": "ym2612"
    },
    {
      "channel": 4,
      "note": 68,
      "start": 123.5424,
      "duration": 0.2202,
      "velocity": 127,
      "chip": "ym2612"
    },
    {
      "channel": 5,
      "note": 63,
      "start": 123.5425,
      "duration": 0.2202,
      "velocity": 91,
      "chip": "ym2612"
    },
    {
      "channel": 4,
      "note": 64,
      "start": 123.7845,
      "duration": 0.079,
      "velocity": 127,
      "chip": "ym2612"
    },
    {
      "channel": 5,
      "note": 64,
      "start": 123.7846,
      "duration": 0.22,
      "velocity": 91,
      "chip": "ym2612"
    },
    {
      "channel": 4,
      "note": 61,
      "start": 123.8636,
      "duration": 0.0805,
      "velocity": 127,
      "chip": "ym2612"
    },
    {
      "channel": 4,
      "note": 57,
      "start": 123.9442,
      "duration": 0.0825,
      "velocity": 127,
      "chip": "ym2612"
    },
    {
      "channel": 1,
      "note": 54,
      "start": 124.0248,
      "duration": 0.2218,
      "velocity": 100,
      "chip": "ym2612"
    },
    {
      "channel": 2,
      "note": 54,
      "start": 124.025,
      "duration": 0.2217,
      "velocity": 117,
      "chip": "ym2612"
    },
    {
      "channel": 3,
      "note": 45,
      "start": 124.0251,
      "duration": 1.6934,
      "velocity": 127,
      "chip": "ym2612"
    },
    {
      "channel": 4,
      "note": 33,
      "start": 124.0268,
      "duration": 0.22,
      "velocity": 127,
      "chip": "ym2612"
    },
    {
      "channel": 5,
      "note": 54,
      "start": 124.027,
      "duration": 0.2199,
      "velocity": 91,
      "chip": "ym2612"
    },
    {
      "channel": 1,
      "note": 72,
      "start": 124.2668,
      "duration": 0.2217,
      "velocity": 100,
      "chip": "ym2612"
    },
    {
      "channel": 2,
      "note": 72,
      "start": 124.267,
      "duration": 0.2216,
      "velocity": 117,
      "chip": "ym2612"
    },
    {
      "channel": 4,
      "note": 33,
      "start": 124.2671,
      "duration": 0.2216,
      "velocity": 127,
      "chip": "ym2612"
    },
    {
      "channel": 5,
      "note": 54,
      "start": 124.2672,
      "duration": 0.2216,
      "velocity": 91,
      "chip": "ym2612"
    },
    {
      "channel": 1,
      "note": 71,
      "start": 124.5088,
      "duration": 0.2217,
      "velocity": 100,
      "chip": "ym2612"
    },
    {
      "channel": 2,
      "note": 71,
      "start": 124.509,
      "duration": 0.2216,
      "velocity": 117,
      "chip": "ym2612"
    },
    {
      "channel": 4,
      "note": 68,
      "start": 124.5106,
      "duration": 0.2201,
      "velocity": 127,
      "chip": "ym2612"
    },
    {
      "channel": 5,
      "note": 61,
      "start": 124.5108,
      "duration": 0.22,
      "velocity": 91,
      "chip": "ym2612"
    },
    {
      "channel": 1,
      "note": 66,
      "start": 124.7507,
      "duration": 0.6451,
      "velocity": 100,
      "chip": "ym2612"
    },
    {
      "channel": 2,
      "note": 66,
      "start": 124.7509,
      "duration": 0.645,
      "velocity": 117,
      "chip": "ym2612"
    },
    {
      "channel": 4,
      "note": 33,
      "start": 124.7529,
      "duration": 0.2196,
      "velocity": 127,
      "chip": "ym2612"
    },
    {
      "channel": 5,
      "note": 63,
      "start": 124.7531,
      "duration": 0.2195,
      "velocity": 91,
      "chip": "ym2612"
    },
    {
      "channel": 4,
      "note": 33,
      "start": 124.9927,
      "duration": 0.2218,
      "velocity": 127,
      "chip": "ym2612"
    },
    {
      "channel": 5,
      "note": 54,
      "start": 124.9929,
      "duration": 0.2217,
      "velocity": 91,
      "chip": "ym2612"
    },
    {
      "channel": 4,
      "note": 33,
      "start": 125.2346,
      "duration": 0.2218,
      "velocity": 127,
      "chip": "ym2612"
    },
    {
      "channel": 5,
      "note": 54,
      "start": 125.2347,
      "duration": 0.2218,
      "velocity": 91,
      "chip": "ym2612"
    },
    {
      "channel": 1,
      "note": 69,
      "start": 125.4766,
      "duration": 0.4234,
      "velocity": 100,
      "chip": "ym2612"
    },
    {
      "channel": 2,
      "note": 69,
      "start": 125.4768,
      "duration": 0.4234,
      "velocity": 117,
      "chip": "ym2612"
    },
    {
      "channel": 4,
      "note": 68,
      "start": 125.4784,
      "duration": 0.2199,
      "velocity": 127,
      "chip": "ym2612"
    },
    {
      "channel": 5,
      "note": 60,
      "start": 125.4786,
      "duration": 0.2199,
      "velocity": 91,
      "chip": "ym2612"
    },
    {
      "channel": 4,
      "note": 64,
      "start": 125.7206,
      "duration": 0.0786,
      "velocity": 127,
      "chip": "ym2612"
    },
    {
      "channel": 5,
      "note": 61,
      "start": 125.7208,
      "duration": 0.2196,
      "velocity": 91,
      "chip": "ym2612"
    },
    {
      "channel": 4,
      "note": 61,
      "start": 125.7993,
      "duration": 0.0806,
      "velocity": 127,
      "chip": "ym2612"
    },
    {
      "channel": 4,
      "note": 57,
      "start": 125.88,
      "duration": 0.0846,
      "velocity": 127,
      "chip": "ym2612"
    },
    {
      "channel": 4,
      "note": 33,
      "start": 125.9647,
      "duration": 0.0719,
      "velocity": 127,
      "chip": "ym2612"
    },
    {
      "channel": 4,
      "note": 33,
      "start": 126.0499,
      "duration": 0.0693,
      "velocity": 127,
      "chip": "ym2612"
    },
    {
      "channel": 4,
      "note": 33,
      "start": 126.133,
      "duration": 0.0691,
      "velocity": 127,
      "chip": "ym2612"
    },
    {
      "channel": 1,
      "note": 68,
      "start": 126.2163,
      "duration": 0.0689,
      "velocity": 127,
      "chip": "ym2612"
    },
    {
      "channel": 2,
      "note": 68,
      "start": 126.2168,
      "duration": 0.0685,
      "velocity": 127,
      "chip": "ym2612"
    },
    {
      "channel": 4,
      "note": 68,
      "start": 126.2185,
      "duration": 0.067,
      "velocity": 127,
      "chip": "ym2612"
    },
    {
      "channel": 4,
      "note": 33,
      "start": 126.3006,
      "duration": 0.0677,
      "velocity": 127,
      "chip": "ym2612"
    },
    {
      "channel": 4,
      "note": 33,
      "start": 126.3821,
      "duration": 0.0692,
      "velocity": 127,
      "chip": "ym2612"
    },
    {
      "channel": 4,
      "note": 33,
      "start": 126.4652,
      "duration": 0.0692,
      "velocity": 127,
      "chip": "ym2612"
    },
    {
      "channel": 1,
      "note": 68,
      "start": 126.5483,
      "duration": 0.0692,
      "velocity": 127,
      "chip": "ym2612"
    },
    {
      "channel": 2,
      "note": 68,
      "start": 126.5484,
      "duration": 0.0692,
      "velocity": 127,
      "chip": "ym2612"
    },
    {
      "channel": 4,
      "note": 68,
      "start": 126.55,
      "duration": 0.0677,
      "velocity": 127,
      "chip": "ym2612"
    },
    {
      "channel": 4,
      "note": 33,
      "start": 126.6329,
      "duration": 0.0677,
      "velocity": 127,
      "chip": "ym2612"
    },
    {
      "channel": 4,
      "note": 33,
      "start": 126.7144,
      "duration": 0.0692,
      "velocity": 127,
      "chip": "ym2612"
    },
    {
      "channel": 4,
      "note": 33,
      "start": 126.7974,
      "duration": 0.0692,
      "velocity": 127,
      "chip": "ym2612"
    },
    {
      "channel": 1,
      "note": 68,
      "start": 126.8805,
      "duration": 0.0692,
      "velocity": 127,
      "chip": "ym2612"
    },
    {
      "channel": 2,
      "note": 68,
      "start": 126.8806,
      "duration": 0.0692,
      "velocity": 127,
      "chip": "ym2612"
    },
    {
      "channel": 4,
      "note": 68,
      "start": 126.8823,
      "duration": 0.0677,
      "velocity": 127,
      "chip": "ym2612"
    },
    {
      "channel": 4,
      "note": 33,
      "start": 126.9651,
      "duration": 0.0677,
      "velocity": 127,
      "chip": "ym2612"
    },
    {
      "channel": 4,
      "note": 33,
      "start": 127.0466,
      "duration": 0.0692,
      "velocity": 127,
      "chip": "ym2612"
    },
    {
      "channel": 4,
      "note": 33,
      "start": 127.1297,
      "duration": 0.0692,
      "velocity": 127,
      "chip": "ym2612"
    },
    {
      "channel": 1,
      "note": 68,
      "start": 127.2128,
      "duration": 0.0691,
      "velocity": 127,
      "chip": "ym2612"
    },
    {
      "channel": 2,
      "note": 68,
      "start": 127.2129,
      "duration": 0.0691,
      "velocity": 127,
      "chip": "ym2612"
    },
    {
      "channel": 4,
      "note": 68,
      "start": 127.2146,
      "duration": 0.0676,
      "velocity": 127,
      "chip": "ym2612"
    },
    {
      "channel": 1,
      "note": 85,
      "start": 127.2973,
      "duration": 5.1484,
      "velocity": 126,
      "chip": "ym2612"
    },
    {
      "channel": 2,
      "note": 73,
      "start": 127.299,
      "duration": 5.147,
      "velocity": 126,
      "chip": "ym2612"
    },
    {
      "channel": 4,
      "note": 33,
      "start": 127.3005,
      "duration": 0.0648,
      "velocity": 127,
      "chip": "ym2612"
    },
    {
      "channel": 4,
      "note": 33,
      "start": 127.3792,
      "duration": 0.0692,
      "velocity": 127,
      "chip": "ym2612"
    },
    {
      "channel": 4,
      "note": 33,
      "start": 127.4623,
      "duration": 0.0693,
      "velocity": 127,
      "chip": "ym2612"
    },
    {
      "channel": 4,
      "note": 68,
      "start": 127.5469,
      "duration": 0.0677,
      "velocity": 127,
      "chip": "ym2612"
    },
    {
      "channel": 4,
      "note": 33,
      "start": 127.6299,
      "duration": 0.0677,
      "velocity": 127,
      "chip": "ym2612"
    },
    {
      "channel": 4,
      "note": 33,
      "start": 127.7115,
      "duration": 0.0692,
      "velocity": 127,
      "chip": "ym2612"
    },
    {
      "channel": 4,
      "note": 33,
      "start": 127.7945,
      "duration": 0.0692,
      "velocity": 127,
      "chip": "ym2612"
    },
    {
      "channel": 4,
      "note": 68,
      "start": 127.879,
      "duration": 0.0678,
      "velocity": 127,
      "chip": "ym2612"
    },
    {
      "channel": 4,
      "note": 33,
      "start": 127.9622,
      "duration": 0.0677,
      "velocity": 127,
      "chip": "ym2612"
    },
    {
      "channel": 4,
      "note": 33,
      "start": 128.0437,
      "duration": 0.0692,
      "velocity": 127,
      "chip": "ym2612"
    },
    {
      "channel": 4,
      "note": 33,
      "start": 128.1268,
      "duration": 0.0692,
      "velocity": 127,
      "chip": "ym2612"
    },
    {
      "channel": 4,
      "note": 68,
      "start": 128.2113,
      "duration": 0.0678,
      "velocity": 127,
      "chip": "ym2612"
    },
    {
      "channel": 4,
      "note": 33,
      "start": 128.2944,
      "duration": 0.0677,
      "velocity": 127,
      "chip": "ym2612"
    },
    {
      "channel": 4,
      "note": 33,
      "start": 128.376,
      "duration": 0.0692,
      "velocity": 127,
      "chip": "ym2612"
    },
    {
      "channel": 4,
      "note": 33,
      "start": 128.459,
      "duration": 0.0692,
      "velocity": 127,
      "chip": "ym2612"
    },
    {
      "channel": 4,
      "note": 68,
      "start": 128.5437,
      "duration": 0.0676,
      "velocity": 127,
      "chip": "ym2612"
    },
    {
      "channel": 4,
      "note": 33,
      "start": 128.6267,
      "duration": 0.0674,
      "velocity": 127,
      "chip": "ym2612"
    },
    {
      "channel": 4,
      "note": 33,
      "start": 128.7082,
      "duration": 0.0692,
      "velocity": 127,
      "chip": "ym2612"
    },
    {
      "channel": 4,
      "note": 33,
      "start": 128.7913,
      "duration": 0.0693,
      "velocity": 127,
      "chip": "ym2612"
    },
    {
      "channel": 4,
      "note": 68,
      "start": 128.8759,
      "duration": 0.0678,
      "velocity": 127,
      "chip": "ym2612"
    },
    {
      "channel": 4,
      "note": 33,
      "start": 128.959,
      "duration": 0.0676,
      "velocity": 127,
      "chip": "ym2612"
    },
    {
      "channel": 4,
      "note": 33,
      "start": 129.0404,
      "duration": 0.0692,
      "velocity": 127,
      "chip": "ym2612"
    },
    {
      "channel": 4,
      "note": 33,
      "start": 129.1235,
      "duration": 0.0693,
      "velocity": 127,
      "chip": "ym2612"
    },
    {
      "channel": 4,
      "note": 68,
      "start": 129.2081,
      "duration": 0.0678,
      "velocity": 127,
      "chip": "ym2612"
    },
    {
      "channel": 4,
      "note": 33,
      "start": 129.2912,
      "duration": 0.0677,
      "velocity": 127,
      "chip": "ym2612"
    },
    {
      "channel": 4,
      "note": 33,
      "start": 129.3727,
      "duration": 0.0692,
      "velocity": 127,
      "chip": "ym2612"
    },
    {
      "channel": 4,
      "note": 33,
      "start": 129.4558,
      "duration": 0.0692,
      "velocity": 127,
      "chip": "ym2612"
    },
    {
      "channel": 4,
      "note": 68,
      "start": 129.5404,
      "duration": 0.0678,
      "velocity": 127,
      "chip": "ym2612"
    },
    {
      "channel": 4,
      "note": 33,
      "start": 129.6234,
      "duration": 0.0677,
      "velocity": 127,
      "chip": "ym2612"
    },
    {
      "channel": 4,
      "note": 33,
      "start": 129.705,
      "duration": 0.0692,
      "velocity": 127,
      "chip": "ym2612"
    },
    {
      "channel": 4,
      "note": 33,
      "start": 129.7881,
      "duration": 0.0692,
      "velocity": 127,
      "chip": "ym2612"
    },
    {
      "channel": 4,
      "note": 68,
      "start": 129.8726,
      "duration": 0.0677,
      "velocity": 127,
      "chip": "ym2612"
    },
    {
      "channel": 4,
      "note": 64,
      "start": 129.9558,
      "duration": 0.0538,
      "velocity": 127,
      "chip": "ym2612"
    },
    {
      "channel": 4,
      "note": 61,
      "start": 130.0097,
      "duration": 0.0553,
      "velocity": 127,
      "chip": "ym2612"
    },
    {
      "channel": 4,
      "note": 57,
      "start": 130.0651,
      "duration": 0.0552,
      "velocity": 127,
      "chip": "ym2612"
    },
    {
      "channel": 4,
      "note": 64,
      "start": 130.1205,
      "duration": 0.0552,
      "velocity": 127,
      "chip": "ym2612"
    },
    {
      "channel": 4,
      "note": 61,
      "start": 130.1758,
      "duration": 0.0552,
      "velocity": 127,
      "chip": "ym2612"
    },
    {
      "channel": 4,
      "note": 57,
      "start": 130.2312,
      "duration": 0.0556,
      "velocity": 127,
      "chip": "ym2612"
    },
    {
      "channel": 4,
      "note": 64,
      "start": 130.287,
      "duration": 0.0548,
      "velocity": 127,
      "chip": "ym2612"
    },
    {
      "channel": 4,
      "note": 61,
      "start": 130.3419,
      "duration": 0.0553,
      "velocity": 127,
      "chip": "ym2612"
    },
    {
      "channel": 4,
      "note": 57,
      "start": 130.3974,
      "duration": 0.0556,
      "velocity": 127,
      "chip": "ym2612"
    },
    {
      "channel": 4,
      "note": 64,
      "start": 130.4531,
      "duration": 0.0548,
      "velocity": 127,
      "chip": "ym2612"
    },
    {
      "channel": 4,
      "note": 61,
      "start": 130.508,
      "duration": 0.0552,
      "velocity": 127,
      "chip": "ym2612"
    },
    {
      "channel": 4,
      "note": 57,
      "start": 130.5634,
      "duration": 0.0553,
      "velocity": 127,
      "chip": "ym2612"
    },
    {
      "channel": 4,
      "note": 64,
      "start": 130.6188,
      "duration": 0.0553,
      "velocity": 127,
      "chip": "ym2612"
    },
    {
      "channel": 4,
      "note": 61,
      "start": 130.6741,
      "duration": 0.0553,
      "velocity": 127,
      "chip": "ym2612"
    },
    {
      "channel": 4,
      "note": 57,
      "start": 130.7296,
      "duration": 0.0552,
      "velocity": 127,
      "chip": "ym2612"
    },
    {
      "channel": 4,
      "note": 64,
      "start": 130.785,
      "duration": 0.0552,
      "velocity": 127,
      "chip": "ym2612"
    },
    {
      "channel": 4,
      "note": 61,
      "start": 130.8403,
      "duration": 0.0552,
      "velocity": 127,
      "chip": "ym2612"
    },
    {
      "channel": 4,
      "note": 57,
      "start": 130.8956,
      "duration": 0.0553,
      "velocity": 127,
      "chip": "ym2612"
    },
    {
      "channel": 4,
      "note": 64,
      "start": 130.9511,
      "duration": 0.0552,
      "velocity": 127,
      "chip": "ym2612"
    },
    {
      "channel": 4,
      "note": 61,
      "start": 131.0064,
      "duration": 0.0553,
      "velocity": 127,
      "chip": "ym2612"
    },
    {
      "channel": 4,
      "note": 57,
      "start": 131.0618,
      "duration": 0.0553,
      "velocity": 127,
      "chip": "ym2612"
    },
    {
      "channel": 4,
      "note": 64,
      "start": 131.1172,
      "duration": 0.0552,
      "velocity": 127,
      "chip": "ym2612"
    },
    {
      "channel": 4,
      "note": 61,
      "start": 131.1726,
      "duration": 0.0552,
      "velocity": 127,
      "chip": "ym2612"
    },
    {
      "channel": 4,
      "note": 57,
      "start": 131.228,
      "duration": 0.0552,
      "velocity": 127,
      "chip": "ym2612"
    },
    {
      "channel": 4,
      "note": 64,
      "start": 131.2833,
      "duration": 0.0552,
      "velocity": 127,
      "chip": "ym2612"
    },
    {
      "channel": 4,
      "note": 61,
      "start": 131.3387,
      "duration": 0.0553,
      "velocity": 127,
      "chip": "ym2612"
    },
    {
      "channel": 4,
      "note": 57,
      "start": 131.3941,
      "duration": 0.0552,
      "velocity": 127,
      "chip": "ym2612"
    },
    {
      "channel": 4,
      "note": 64,
      "start": 131.4495,
      "duration": 0.0552,
      "velocity": 127,
      "chip": "ym2612"
    },
    {
      "channel": 4,
      "note": 61,
      "start": 131.5048,
      "duration": 0.0552,
      "velocity": 127,
      "chip": "ym2612"
    },
    {
      "channel": 4,
      "note": 57,
      "start": 131.5602,
      "duration": 0.0553,
      "velocity": 127,
      "chip": "ym2612"
    },
    {
      "channel": 4,
      "note": 64,
      "start": 131.6156,
      "duration": 0.0551,
      "velocity": 127,
      "chip": "ym2612"
    },
    {
      "channel": 4,
      "note": 61,
      "start": 131.6709,
      "duration": 0.0553,
      "velocity": 127,
      "chip": "ym2612"
    },
    {
      "channel": 4,
      "note": 57,
      "start": 131.7263,
      "duration": 0.0552,
      "velocity": 127,
      "chip": "ym2612"
    },
    {
      "channel": 4,
      "note": 64,
      "start": 131.7817,
      "duration": 0.0552,
      "velocity": 127,
      "chip": "ym2612"
    },
    {
      "channel": 4,
      "note": 61,
      "start": 131.8371,
      "duration": 0.0552,
      "velocity": 127,
      "chip": "ym2612"
    },
    {
      "channel": 4,
      "note": 57,
      "start": 131.8924,
      "duration": 0.0553,
      "velocity": 127,
      "chip": "ym2612"
    },
    {
      "channel": 4,
      "note": 64,
      "start": 131.9478,
      "duration": 0.0557,
      "velocity": 127,
      "chip": "ym2612"
    },
    {
      "channel": 4,
      "note": 61,
      "start": 132.0036,
      "duration": 0.0548,
      "velocity": 127,
      "chip": "ym2612"
    },
    {
      "channel": 4,
      "note": 57,
      "start": 132.0586,
      "duration": 0.0553,
      "velocity": 127,
      "chip": "ym2612"
    },
    {
      "channel": 4,
      "note": 64,
      "start": 132.114,
      "duration": 0.0553,
      "velocity": 127,
      "chip": "ym2612"
    },
    {
      "channel": 4,
      "note": 61,
      "start": 132.1696,
      "duration": 0.0549,
      "velocity": 127,
      "chip": "ym2612"
    },
    {
      "channel": 4,
      "note": 57,
      "start": 132.2247,
      "duration": 0.0567,
      "velocity": 127,
      "chip": "ym2612"
    },
    {
      "channel": 4,
      "note": 68,
      "start": 132.2815,
      "duration": 0.0676,
      "velocity": 127,
      "chip": "ym2612"
    },
    {
      "channel": 4,
      "note": 68,
      "start": 132.3631,
      "duration": 0.0691,
      "velocity": 127,
      "chip": "ym2612"
    },
    {
      "channel": 4,
      "note": 68,
      "start": 132.4461,
      "duration": 0.0691,
      "velocity": 127,
      "chip": "ym2612"
    },
    {
      "channel": 4,
      "note": 68,
      "start": 132.5291,
      "duration": 0.0692,
      "velocity": 127,
      "chip": "ym2612"
    },
    {
      "channel": 1,
      "note": 61,
      "start": 132.6119,
      "duration": 0.5814,
      "velocity": 126,
      "chip": "ym2612"
    },
    {
      "channel": 2,
      "note": 49,
      "start": 132.6136,
      "duration": 0.5798,
      "velocity": 100,
      "chip": "ym2612"
    },
    {
      "channel": 4,
      "note": 33,
      "start": 132.6152,
      "duration": 0.066,
      "velocity": 127,
      "chip": "ym2612"
    },
    {
      "channel": 5,
      "note": 49,
      "start": 132.6154,
      "duration": 0.0658,
      "velocity": 91,
      "chip": "ym2612"
    },
    {
      "channel": 4,
      "note": 33,
      "start": 132.6949,
      "duration": 0.0692,
      "velocity": 127,
      "chip": "ym2612"
    },
    {
      "channel": 5,
      "note": 49,
      "start": 132.6951,
      "duration": 0.0692,
      "velocity": 91,
      "chip": "ym2612"
    },
    {
      "channel": 4,
      "note": 33,
      "start": 132.778,
      "duration": 0.0692,
      "velocity": 127,
      "chip": "ym2612"
    },
    {
      "channel": 5,
      "note": 49,
      "start": 132.7782,
      "duration": 0.0692,
      "velocity": 91,
      "chip": "ym2612"
    },
    {
      "channel": 4,
      "note": 68,
      "start": 132.8626,
      "duration": 0.0677,
      "velocity": 127,
      "chip": "ym2612"
    },
    {
      "channel": 5,
      "note": 49,
      "start": 132.8627,
      "duration": 0.0678,
      "velocity": 91,
      "chip": "ym2612"
    },
    {
      "channel": 4,
      "note": 33,
      "start": 132.9457,
      "duration": 0.0677,
      "velocity": 127,
      "chip": "ym2612"
    },
    {
      "channel": 5,
      "note": 49,
      "start": 132.9459,
      "duration": 0.0677,
      "velocity": 91,
      "chip": "ym2612"
    },
    {
      "channel": 4,
      "note": 33,
      "start": 133.0272,
      "duration": 0.0693,
      "velocity": 127,
      "chip": "ym2612"
    },
    {
      "channel": 5,
      "note": 49,
      "start": 133.0273,
      "duration": 0.0693,
      "velocity": 91,
      "chip": "ym2612"
    },
    {
      "channel": 4,
      "note": 33,
      "start": 133.1103,
      "duration": 0.0692,
      "velocity": 127,
      "chip": "ym2612"
    },
    {
      "channel": 5,
      "note": 49,
      "start": 133.1104,
      "duration": 0.0692,
      "velocity": 91,
      "chip": "ym2612"
    },
    {
      "channel": 4,
      "note": 68,
      "start": 133.1951,
      "duration": 0.0675,
      "velocity": 127,
      "chip": "ym2612"
    },
    {
      "channel": 5,
      "note": 49,
      "start": 133.1952,
      "duration": 0.0675,
      "velocity": 91,
      "chip": "ym2612"
    },
    {
      "channel": 1,
      "note": 64,
      "start": 133.2764,
      "duration": 0.5814,
      "velocity": 126,
      "chip": "ym2612"
    },
    {
      "channel": 2,
      "note": 52,
      "start": 133.2766,
      "duration": 0.5814,
      "velocity": 100,
      "chip": "ym2612"
    },
    {
      "channel": 4,
      "note": 33,
      "start": 133.2783,
      "duration": 0.0674,
      "velocity": 127,
      "chip": "ym2612"
    },
    {
      "channel": 5,
      "note": 52,
      "start": 133.2784,
      "duration": 0.0674,
      "velocity": 91,
      "chip": "ym2612"
    },
    {
      "channel": 4,
      "note": 33,
      "start": 133.3595,
      "duration": 0.0692,
      "velocity": 127,
      "chip": "ym2612"
    },
    {
      "channel": 5,
      "note": 52,
      "start": 133.3596,
      "duration": 0.0692,
      "velocity": 91,
      "chip": "ym2612"
    },
    {
      "channel": 4,
      "note": 33,
      "start": 133.4426,
      "duration": 0.0691,
      "velocity": 127,
      "chip": "ym2612"
    },
    {
      "channel": 5,
      "note": 52,
      "start": 133.4427,
      "duration": 0.0692,
      "velocity": 91,
      "chip": "ym2612"
    },
    {
      "channel": 4,
      "note": 68,
      "start": 133.5271,
      "duration": 0.0677,
      "velocity": 127,
      "chip": "ym2612"
    },
    {
      "channel": 5,
      "note": 52,
      "start": 133.5273,
      "duration": 0.0677,
      "velocity": 91,
      "chip": "ym2612"
    },
    {
      "channel": 4,
      "note": 33,
      "start": 133.6102,
      "duration": 0.0677,
      "velocity": 127,
      "chip": "ym2612"
    },
    {
      "channel": 5,
      "note": 52,
      "start": 133.6103,
      "duration": 0.0677,
      "velocity": 91,
      "chip": "ym2612"
    },
    {
      "channel": 4,
      "note": 33,
      "start": 133.6917,
      "duration": 0.0692,
      "velocity": 127,
      "chip": "ym2612"
    },
    {
      "channel": 5,
      "note": 52,
      "start": 133.6918,
      "duration": 0.0692,
      "velocity": 91,
      "chip": "ym2612"
    },
    {
      "channel": 4,
      "note": 33,
      "start": 133.7748,
      "duration": 0.0692,
      "velocity": 127,
      "chip": "ym2612"
    },
    {
      "channel": 5,
      "note": 52,
      "start": 133.7749,
      "duration": 0.0692,
      "velocity": 91,
      "chip": "ym2612"
    },
    {
      "channel": 4,
      "note": 68,
      "start": 133.8597,
      "duration": 0.0674,
      "velocity": 127,
      "chip": "ym2612"
    },
    {
      "channel": 5,
      "note": 52,
      "start": 133.8598,
      "duration": 0.0674,
      "velocity": 91,
      "chip": "ym2612"
    },
    {
      "channel": 1,
      "note": 63,
      "start": 133.941,
      "duration": 0.5814,
      "velocity": 126,
      "chip": "ym2612"
    },
    {
      "channel": 2,
      "note": 51,
      "start": 133.9411,
      "duration": 0.5813,
      "velocity": 100,
      "chip": "ym2612"
    },
    {
      "channel": 4,
      "note": 33,
      "start": 133.9428,
      "duration": 0.0673,
      "velocity": 127,
      "chip": "ym2612"
    },
    {
      "channel": 5,
      "note": 51,
      "start": 133.943,
      "duration": 0.0672,
      "velocity": 91,
      "chip": "ym2612"
    },
    {
      "channel": 4,
      "note": 33,
      "start": 134.024,
      "duration": 0.0693,
      "velocity": 127,
      "chip": "ym2612"
    },
    {
      "channel": 5,
      "note": 51,
      "start": 134.0241,
      "duration": 0.0693,
      "velocity": 91,
      "chip": "ym2612"
    },
    {
      "channel": 4,
      "note": 33,
      "start": 134.107,
      "duration": 0.0693,
      "velocity": 127,
      "chip": "ym2612"
    },
    {
      "channel": 5,
      "note": 51,
      "start": 134.1072,
      "duration": 0.0693,
      "velocity": 91,
      "chip": "ym2612"
    },
    {
      "channel": 4,
      "note": 68,
      "start": 134.1917,
      "duration": 0.0677,
      "velocity": 127,
      "chip": "ym2612"
    },
    {
      "channel": 5,
      "note": 51,
      "start": 134.1917,
      "duration": 0.0678,
      "velocity": 91,
      "chip": "ym2612"
    },
    {
      "channel": 4,
      "note": 33,
      "start": 134.2747,
      "duration": 0.0676,
      "velocity": 127,
      "chip": "ym2612"
    },
    {
      "channel": 5,
      "note": 51,
      "start": 134.2748,
      "duration": 0.0677,
      "velocity": 91,
      "chip": "ym2612"
    },
    {
      "channel": 4,
      "note": 33,
      "start": 134.3562,
      "duration": 0.0693,
      "velocity": 127,
      "chip": "ym2612"
    },
    {
      "channel": 5,
      "note": 51,
      "start": 134.3563,
      "duration": 0.0693,
      "velocity": 91,
      "chip": "ym2612"
    },
    {
      "channel": 4,
      "note": 33,
      "start": 134.4393,
      "duration": 0.0692,
      "velocity": 127,
      "chip": "ym2612"
    },
    {
      "channel": 5,
      "note": 51,
      "start": 134.4394,
      "duration": 0.0692,
      "velocity": 91,
      "chip": "ym2612"
    },
    {
      "channel": 4,
      "note": 68,
      "start": 134.5241,
      "duration": 0.0675,
      "velocity": 127,
      "chip": "ym2612"
    },
    {
      "channel": 5,
      "note": 51,
      "start": 134.5242,
      "duration": 0.0675,
      "velocity": 91,
      "chip": "ym2612"
    },
    {
      "channel": 1,
      "note": 62,
      "start": 134.6055,
      "duration": 0.5813,
      "velocity": 126,
      "chip": "ym2612"
    },
    {
      "channel": 2,
      "note": 50,
      "start": 134.6056,
      "duration": 0.5813,
      "velocity": 100,
      "chip": "ym2612"
    },
    {
      "channel": 4,
      "note": 33,
      "start": 134.6073,
      "duration": 0.0673,
      "velocity": 127,
      "chip": "ym2612"
    },
    {
      "channel": 5,
      "note": 50,
      "start": 134.6075,
      "duration": 0.0672,
      "velocity": 91,
      "chip": "ym2612"
    },
    {
      "channel": 4,
      "note": 33,
      "start": 134.6885,
      "duration": 0.0692,
      "velocity": 127,
      "chip": "ym2612"
    },
    {
      "channel": 5,
      "note": 50,
      "start": 134.6886,
      "duration": 0.0692,
      "velocity": 91,
      "chip": "ym2612"
    },
    {
      "channel": 4,
      "note": 33,
      "start": 134.7715,
      "duration": 0.0692,
      "velocity": 127,
      "chip": "ym2612"
    },
    {
      "channel": 5,
      "note": 50,
      "start": 134.7717,
      "duration": 0.0692,
      "velocity": 91,
      "chip": "ym2612"
    },
    {
      "channel": 4,
      "note": 68,
      "start": 134.8561,
      "duration": 0.0677,
      "velocity": 127,
      "chip": "ym2612"
    },
    {
      "channel": 5,
      "note": 50,
      "start": 134.8563,
      "duration": 0.0677,
      "velocity": 91,
      "chip": "ym2612"
    },
    {
      "channel": 4,
      "note": 33,
      "start": 134.9392,
      "duration": 0.0677,
      "velocity": 127,
      "chip": "ym2612"
    },
    {
      "channel": 5,
      "note": 50,
      "start": 134.9394,
      "duration": 0.0677,
      "velocity": 91,
      "chip": "ym2612"
    },
    {
      "channel": 4,
      "note": 33,
      "start": 135.0207,
      "duration": 0.0693,
      "velocity": 127,
      "chip": "ym2612"
    },
    {
      "channel": 5,
      "note": 50,
      "start": 135.0208,
      "duration": 0.0693,
      "velocity": 91,
      "chip": "ym2612"
    },
    {
      "channel": 4,
      "note": 33,
      "start": 135.1038,
      "duration": 0.0692,
      "velocity": 127,
      "chip": "ym2612"
    },
    {
      "channel": 5,
      "note": 50,
      "start": 135.1039,
      "duration": 0.0692,
      "velocity": 91,
      "chip": "ym2612"
    },
    {
      "channel": 4,
      "note": 68,
      "start": 135.1887,
      "duration": 0.0674,
      "velocity": 127,
      "chip": "ym2612"
    },
    {
      "channel": 5,
      "note": 50,
      "start": 135.1887,
      "duration": 0.0675,
      "velocity": 91,
      "chip": "ym2612"
    },
    {
      "channel": 1,
      "note": 69,
      "start": 135.27,
      "duration": 0.5814,
      "velocity": 126,
      "chip": "ym2612"
    },
    {
      "channel": 2,
      "note": 57,
      "start": 135.2701,
      "duration": 0.5814,
      "velocity": 100,
      "chip": "ym2612"
    },
    {
      "channel": 4,
      "note": 33,
      "start": 135.2718,
      "duration": 0.0673,
      "velocity": 127,
      "chip": "ym2612"
    },
    {
      "channel": 5,
      "note": 57,
      "start": 135.272,
      "duration": 0.0672,
      "velocity": 91,
      "chip": "ym2612"
    },
    {
      "channel": 4,
      "note": 33,
      "start": 135.3532,
      "duration": 0.069,
      "velocity": 127,
      "chip": "ym2612"
    },
    {
      "channel": 5,
      "note": 57,
      "start": 135.3534,
      "duration": 0.069,
      "velocity": 91,
      "chip": "ym2612"
    },
    {
      "channel": 4,
      "note": 33,
      "start": 135.4366,
      "duration": 0.0687,
      "velocity": 127,
      "chip": "ym2612"
    },
    {
      "channel": 5,
      "note": 57,
      "start": 135.4367,
      "duration": 0.0687,
      "velocity": 91,
      "chip": "ym2612"
    },
    {
      "channel": 4,
      "note": 68,
      "start": 135.521,
      "duration": 0.0673,
      "velocity": 127,
      "chip": "ym2612"
    },
    {
      "channel": 5,
      "note": 57,
      "start": 135.5212,
      "duration": 0.0673,
      "velocity": 91,
      "chip": "ym2612"
    },
    {
      "channel": 4,
      "note": 33,
      "start": 135.6041,
      "duration": 0.0673,
      "velocity": 127,
      "chip": "ym2612"
    },
    {
      "channel": 5,
      "note": 57,
      "start": 135.6042,
      "duration": 0.0674,
      "velocity": 91,
      "chip": "ym2612"
    },
    {
      "channel": 4,
      "note": 33,
      "start": 135.6853,
      "duration": 0.0691,
      "velocity": 127,
      "chip": "ym2612"
    },
    {
      "channel": 5,
      "note": 57,
      "start": 135.6854,
      "duration": 0.0691,
      "velocity": 91,
      "chip": "ym2612"
    },
    {
      "channel": 4,
      "note": 33,
      "start": 135.7683,
      "duration": 0.0693,
      "velocity": 127,
      "chip": "ym2612"
    },
    {
      "channel": 5,
      "note": 57,
      "start": 135.7684,
      "duration": 0.0693,
      "velocity": 91,
      "chip": "ym2612"
    },
    {
      "channel": 4,
      "note": 68,
      "start": 135.8535,
      "duration": 0.0671,
      "velocity": 127,
      "chip": "ym2612"
    },
    {
      "channel": 5,
      "note": 57,
      "start": 135.8537,
      "duration": 0.0671,
      "velocity": 91,
      "chip": "ym2612"
    },
    {
      "channel": 1,
      "note": 68,
      "start": 135.9345,
      "duration": 0.5814,
      "velocity": 126,
      "chip": "ym2612"
    },
    {
      "channel": 2,
      "note": 56,
      "start": 135.9346,
      "duration": 0.5814,
      "velocity": 100,
      "chip": "ym2612"
    },
    {
      "channel": 4,
      "note": 33,
      "start": 135.9367,
      "duration": 0.0669,
      "velocity": 127,
      "chip": "ym2612"
    },
    {
      "channel": 5,
      "note": 56,
      "start": 135.9369,
      "duration": 0.0669,
      "velocity": 91,
      "chip": "ym2612"
    },
    {
      "channel": 4,
      "note": 33,
      "start": 136.0175,
      "duration": 0.0692,
      "velocity": 127,
      "chip": "ym2612"
    },
    {
      "channel": 5,
      "note": 56,
      "start": 136.0176,
      "duration": 0.0692,
      "velocity": 91,
      "chip": "ym2612"
    },
    {
      "channel": 4,
      "note": 33,
      "start": 136.1005,
      "duration": 0.0693,
      "velocity": 127,
      "chip": "ym2612"
    },
    {
      "channel": 5,
      "note": 56,
      "start": 136.1007,
      "duration": 0.0693,
      "velocity": 91,
      "chip": "ym2612"
    },
    {
      "channel": 4,
      "note": 68,
      "start": 136.1851,
      "duration": 0.0681,
      "velocity": 127,
      "chip": "ym2612"
    },
    {
      "channel": 5,
      "note": 56,
      "start": 136.1853,
      "duration": 0.0681,
      "velocity": 91,
      "chip": "ym2612"
    },
    {
      "channel": 4,
      "note": 33,
      "start": 136.2682,
      "duration": 0.0681,
      "velocity": 127,
      "chip": "ym2612"
    },
    {
      "channel": 5,
      "note": 56,
      "start": 136.2683,
      "duration": 0.0681,
      "velocity": 91,
      "chip": "ym2612"
    },
    {
      "channel": 4,
      "note": 33,
      "start": 136.3498,
      "duration": 0.0692,
      "velocity": 127,
      "chip": "ym2612"
    },
    {
      "channel": 5,
      "note": 56,
      "start": 136.3499,
      "duration": 0.0692,
      "velocity": 91,
      "chip": "ym2612"
    },
    {
      "channel": 4,
      "note": 33,
      "start": 136.4328,
      "duration": 0.0692,
      "velocity": 127,
      "chip": "ym2612"
    },
    {
      "channel": 5,
      "note": 56,
      "start": 136.4329,
      "duration": 0.0692,
      "velocity": 91,
      "chip": "ym2612"
    },
    {
      "channel": 4,
      "note": 68,
      "start": 136.5177,
      "duration": 0.0674,
      "velocity": 127,
      "chip": "ym2612"
    },
    {
      "channel": 5,
      "note": 56,
      "start": 136.5178,
      "duration": 0.0674,
      "velocity": 91,
      "chip": "ym2612"
    },
    {
      "channel": 1,
      "note": 67,
      "start": 136.599,
      "duration": 1.1628,
      "velocity": 126,
      "chip": "ym2612"
    },
    {
      "channel": 2,
      "note": 55,
      "start": 136.5992,
      "duration": 1.1628,
      "velocity": 100,
      "chip": "ym2612"
    },
    {
      "channel": 4,
      "note": 64,
      "start": 136.6009,
      "duration": 0.0538,
      "velocity": 127,
      "chip": "ym2612"
    },
    {
      "channel": 5,
      "note": 54,
      "start": 136.6011,
      "duration": 0.0671,
      "velocity": 91,
      "chip": "ym2612"
    },
    {
      "channel": 4,
      "note": 61,
      "start": 136.6547,
      "duration": 0.0553,
      "velocity": 127,
      "chip": "ym2612"
    },
    {
      "channel": 5,
      "note": 54,
      "start": 136.6824,
      "duration": 0.0688,
      "velocity": 91,
      "chip": "ym2612"
    },
    {
      "channel": 4,
      "note": 57,
      "start": 136.7101,
      "duration": 0.0553,
      "velocity": 127,
      "chip": "ym2612"
    },
    {
      "channel": 4,
      "note": 64,
      "start": 136.7655,
      "duration": 0.0553,
      "velocity": 127,
      "chip": "ym2612"
    },
    {
      "channel": 5,
      "note": 54,
      "start": 136.7656,
      "duration": 0.0686,
      "velocity": 91,
      "chip": "ym2612"
    },
    {
      "channel": 4,
      "note": 61,
      "start": 136.8209,
      "duration": 0.0552,
      "velocity": 127,
      "chip": "ym2612"
    },
    {
      "channel": 5,
      "note": 54,
      "start": 136.8485,
      "duration": 0.0689,
      "velocity": 91,
      "chip": "ym2612"
    },
    {
      "channel": 4,
      "note": 57,
      "start": 136.8763,
      "duration": 0.0553,
      "velocity": 127,
      "chip": "ym2612"
    },
    {
      "channel": 4,
      "note": 64,
      "start": 136.9317,
      "duration": 0.0553,
      "velocity": 127,
      "chip": "ym2612"
    },
    {
      "channel": 5,
      "note": 54,
      "start": 136.9318,
      "duration": 0.0686,
      "velocity": 91,
      "chip": "ym2612"
    },
    {
      "channel": 4,
      "note": 61,
      "start": 136.987,
      "duration": 0.0552,
      "velocity": 127,
      "chip": "ym2612"
    },
    {
      "channel": 5,
      "note": 54,
      "start": 137.0146,
      "duration": 0.0688,
      "velocity": 91,
      "chip": "ym2612"
    },
    {
      "channel": 4,
      "note": 57,
      "start": 137.0424,
      "duration": 0.0552,
      "velocity": 127,
      "chip": "ym2612"
    },
    {
      "channel": 4,
      "note": 64,
      "start": 137.0978,
      "duration": 0.0557,
      "velocity": 127,
      "chip": "ym2612"
    },
    {
      "channel": 5,
      "note": 54,
      "start": 137.0979,
      "duration": 0.0687,
      "velocity": 91,
      "chip": "ym2612"
    },
    {
      "channel": 4,
      "note": 61,
      "start": 137.1536,
      "duration": 0.0548,
      "velocity": 127,
      "chip": "ym2612"
    },
    {
      "channel": 5,
      "note": 54,
      "start": 137.1808,
      "duration": 0.0688,
      "velocity": 91,
      "chip": "ym2612"
    },
    {
      "channel": 4,
      "note": 57,
      "start": 137.2085,
      "duration": 0.0553,
      "velocity": 127,
      "chip": "ym2612"
    },
    {
      "channel": 4,
      "note": 64,
      "start": 137.2639,
      "duration": 0.0553,
      "velocity": 127,
      "chip": "ym2612"
    },
    {
      "channel": 5,
      "note": 54,
      "start": 137.264,
      "duration": 0.0686,
      "velocity": 91,
      "chip": "ym2612"
    },
    {
      "channel": 4,
      "note": 61,
      "start": 137.3196,
      "duration": 0.055,
      "velocity": 127,
      "chip": "ym2612"
    },
    {
      "channel": 5,
      "note": 54,
      "start": 137.3469,
      "duration": 0.0689,
      "velocity": 91,
      "chip": "ym2612"
    },
    {
      "channel": 4,
      "note": 57,
      "start": 137.3747,
      "duration": 0.0552,
      "velocity": 127,
      "chip": "ym2612"
    },
    {
      "channel": 4,
      "note": 64,
      "start": 137.43,
      "duration": 0.0553,
      "velocity": 127,
      "chip": "ym2612"
    },
    {
      "channel": 5,
      "note": 54,
      "start": 137.4301,
      "duration": 0.0686,
      "velocity": 91,
      "chip": "ym2612"
    },
    {
      "channel": 4,
      "note": 61,
      "start": 137.4854,
      "duration": 0.0552,
      "velocity": 127,
      "chip": "ym2612"
    },
    {
      "channel": 5,
      "note": 54,
      "start": 137.513,
      "duration": 0.0689,
      "velocity": 91,
      "chip": "ym2612"
    },
    {
      "channel": 4,
      "note": 57,
      "start": 137.5407,
      "duration": 0.0567,
      "velocity": 127,
      "chip": "ym2612"
    },
    {
      "channel": 4,
      "note": 68,
      "start": 137.5976,
      "duration": 0.0673,
      "velocity": 127,
      "chip": "ym2612"
    },
    {
      "channel": 5,
      "note": 54,
      "start": 137.5977,
      "duration": 0.0673,
      "velocity": 91,
      "chip": "ym2612"
    },
    {
      "channel": 4,
      "note": 68,
      "start": 137.6791,
      "duration": 0.0689,
      "velocity": 127,
      "chip": "ym2612"
    },
    {
      "channel": 5,
      "note": 54,
      "start": 137.6793,
      "duration": 0.0689,
      "velocity": 91,
      "chip": "ym2612"
    },
    {
      "channel": 4,
      "note": 68,
      "start": 137.7622,
      "duration": 0.0688,
      "velocity": 127,
      "chip": "ym2612"
    },
    {
      "channel": 5,
      "note": 54,
      "start": 137.7623,
      "duration": 0.0688,
      "velocity": 91,
      "chip": "ym2612"
    },
    {
      "channel": 4,
      "note": 68,
      "start": 137.8452,
      "duration": 0.0689,
      "velocity": 127,
      "chip": "ym2612"
    },
    {
      "channel": 5,
      "note": 54,
      "start": 137.8453,
      "duration": 0.0689,
      "velocity": 91,
      "chip": "ym2612"
    },
    {
      "channel": 1,
      "note": 61,
      "start": 137.928,
      "duration": 0.5814,
      "velocity": 126,
      "chip": "ym2612"
    },
    {
      "channel": 2,
      "note": 49,
      "start": 137.9282,
      "duration": 0.5814,
      "velocity": 100,
      "chip": "ym2612"
    },
    {
      "channel": 4,
      "note": 33,
      "start": 137.9298,
      "duration": 0.0674,
      "velocity": 127,
      "chip": "ym2612"
    },
    {
      "channel": 5,
      "note": 49,
      "start": 137.93,
      "duration": 0.0674,
      "velocity": 91,
      "chip": "ym2612"
    },
    {
      "channel": 4,
      "note": 33,
      "start": 138.011,
      "duration": 0.0693,
      "velocity": 127,
      "chip": "ym2612"
    },
    {
      "channel": 5,
      "note": 49,
      "start": 138.0111,
      "duration": 0.0693,
      "velocity": 91,
      "chip": "ym2612"
    },
    {
      "channel": 4,
      "note": 33,
      "start": 138.0941,
      "duration": 0.0693,
      "velocity": 127,
      "chip": "ym2612"
    },
    {
      "channel": 5,
      "note": 49,
      "start": 138.0942,
      "duration": 0.0693,
      "velocity": 91,
      "chip": "ym2612"
    },
    {
      "channel": 4,
      "note": 68,
      "start": 138.1787,
      "duration": 0.0677,
      "velocity": 127,
      "chip": "ym2612"
    },
    {
      "channel": 5,
      "note": 49,
      "start": 138.1788,
      "duration": 0.0677,
      "velocity": 91,
      "chip": "ym2612"
    },
    {
      "channel": 4,
      "note": 33,
      "start": 138.2617,
      "duration": 0.0677,
      "velocity": 127,
      "chip": "ym2612"
    },
    {
      "channel": 5,
      "note": 49,
      "start": 138.2619,
      "duration": 0.0677,
      "velocity": 91,
      "chip": "ym2612"
    },
    {
      "channel": 4,
      "note": 33,
      "start": 138.3432,
      "duration": 0.0693,
      "velocity": 127,
      "chip": "ym2612"
    },
    {
      "channel": 5,
      "note": 49,
      "start": 138.3434,
      "duration": 0.0693,
      "velocity": 91,
      "chip": "ym2612"
    },
    {
      "channel": 4,
      "note": 33,
      "start": 138.4263,
      "duration": 0.0693,
      "velocity": 127,
      "chip": "ym2612"
    },
    {
      "channel": 5,
      "note": 49,
      "start": 138.4264,
      "duration": 0.0693,
      "velocity": 91,
      "chip": "ym2612"
    },
    {
      "channel": 4,
      "note": 68,
      "start": 138.5112,
      "duration": 0.0675,
      "velocity": 127,
      "chip": "ym2612"
    },
    {
      "channel": 5,
      "note": 49,
      "start": 138.5113,
      "duration": 0.0675,
      "velocity": 91,
      "chip": "ym2612"
    },
    {
      "channel": 1,
      "note": 64,
      "start": 138.5925,
      "duration": 0.5813,
      "velocity": 126,
      "chip": "ym2612"
    },
    {
      "channel": 2,
      "note": 52,
      "start": 138.5927,
      "duration": 0.5812,
      "velocity": 100,
      "chip": "ym2612"
    },
    {
      "channel": 4,
      "note": 33,
      "start": 138.5944,
      "duration": 0.0674,
      "velocity": 127,
      "chip": "ym2612"
    },
    {
      "channel": 5,
      "note": 52,
      "start": 138.5945,
      "duration": 0.0674,
      "velocity": 91,
      "chip": "ym2612"
    },
    {
      "channel": 4,
      "note": 33,
      "start": 138.6756,
      "duration": 0.0692,
      "velocity": 127,
      "chip": "ym2612"
    },
    {
      "channel": 5,
      "note": 52,
      "start": 138.6757,
      "duration": 0.0692,
      "velocity": 91,
      "chip": "ym2612"
    },
    {
      "channel": 4,
      "note": 33,
      "start": 138.7586,
      "duration": 0.0693,
      "velocity": 127,
      "chip": "ym2612"
    },
    {
      "channel": 5,
      "note": 52,
      "start": 138.7587,
      "duration": 0.0693,
      "velocity": 91,
      "chip": "ym2612"
    },
    {
      "channel": 4,
      "note": 68,
      "start": 138.8432,
      "duration": 0.0677,
      "velocity": 127,
      "chip": "ym2612"
    },
    {
      "channel": 5,
      "note": 52,
      "start": 138.8433,
      "duration": 0.0677,
      "velocity": 91,
      "chip": "ym2612"
    },
    {
      "channel": 4,
      "note": 33,
      "start": 138.9263,
      "duration": 0.0677,
      "velocity": 127,
      "chip": "ym2612"
    },
    {
      "channel": 5,
      "note": 52,
      "start": 138.9264,
      "duration": 0.0677,
      "velocity": 91,
      "chip": "ym2612"
    },
    {
      "channel": 4,
      "note": 33,
      "start": 139.0078,
      "duration": 0.0692,
      "velocity": 127,
      "chip": "ym2612"
    },
    {
      "channel": 5,
      "note": 52,
      "start": 139.0079,
      "duration": 0.0692,
      "velocity": 91,
      "chip": "ym2612"
    },
    {
      "channel": 4,
      "note": 33,
      "start": 139.0908,
      "duration": 0.0692,
      "velocity": 127,
      "chip": "ym2612"
    },
    {
      "channel": 5,
      "note": 52,
      "start": 139.091,
      "duration": 0.0692,
      "velocity": 91,
      "chip": "ym2612"
    },
    {
      "channel": 4,
      "note": 68,
      "start": 139.1756,
      "duration": 0.0675,
      "velocity": 127,
      "chip": "ym2612"
    },
    {
      "channel": 5,
      "note": 52,
      "start": 139.1757,
      "duration": 0.0675,
      "velocity": 91,
      "chip": "ym2612"
    },
    {
      "channel": 1,
      "note": 63,
      "start": 139.257,
      "duration": 0.5814,
      "velocity": 126,
      "chip": "ym2612"
    },
    {
      "channel": 2,
      "note": 51,
      "start": 139.2572,
      "duration": 0.5814,
      "velocity": 100,
      "chip": "ym2612"
    },
    {
      "channel": 4,
      "note": 33,
      "start": 139.2588,
      "duration": 0.0674,
      "velocity": 127,
      "chip": "ym2612"
    },
    {
      "channel": 5,
      "note": 51,
      "start": 139.259,
      "duration": 0.0674,
      "velocity": 91,
      "chip": "ym2612"
    },
    {
      "channel": 4,
      "note": 33,
      "start": 139.34,
      "duration": 0.0692,
      "velocity": 127,
      "chip": "ym2612"
    },
    {
      "channel": 5,
      "note": 51,
      "start": 139.3402,
      "duration": 0.0692,
      "velocity": 91,
      "chip": "ym2612"
    },
    {
      "channel": 4,
      "note": 33,
      "start": 139.4231,
      "duration": 0.0693,
      "velocity": 127,
      "chip": "ym2612"
    },
    {
      "channel": 5,
      "note": 51,
      "start": 139.4232,
      "duration": 0.0693,
      "velocity": 91,
      "chip": "ym2612"
    },
    {
      "channel": 4,
      "note": 68,
      "start": 139.5077,
      "duration": 0.0677,
      "velocity": 127,
      "chip": "ym2612"
    },
    {
      "channel": 5,
      "note": 51,
      "start": 139.5078,
      "duration": 0.0678,
      "velocity": 91,
      "chip": "ym2612"
    },
    {
      "channel": 4,
      "note": 33,
      "start": 139.5907,
      "duration": 0.0677,
      "velocity": 127,
      "chip": "ym2612"
    },
    {
      "channel": 5,
      "note": 51,
      "start": 139.5909,
      "duration": 0.0677,
      "velocity": 91,
      "chip": "ym2612"
    },
    {
      "channel": 4,
      "note": 33,
      "start": 139.6722,
      "duration": 0.0693,
      "velocity": 127,
      "chip": "ym2612"
    },
    {
      "channel": 5,
      "note": 51,
      "start": 139.6724,
      "duration": 0.0693,
      "velocity": 91,
      "chip": "ym2612"
    },
    {
      "channel": 4,
      "note": 33,
      "start": 139.7553,
      "duration": 0.0693,
      "velocity": 127,
      "chip": "ym2612"
    },
    {
      "channel": 5,
      "note": 51,
      "start": 139.7554,
      "duration": 0.0693,
      "velocity": 91,
      "chip": "ym2612"
    },
    {
      "channel": 4,
      "note": 68,
      "start": 139.8402,
      "duration": 0.0674,
      "velocity": 127,
      "chip": "ym2612"
    },
    {
      "channel": 5,
      "note": 51,
      "start": 139.8403,
      "duration": 0.0674,
      "velocity": 91,
      "chip": "ym2612"
    },
    {
      "channel": 1,
      "note": 62,
      "start": 139.9215,
      "duration": 0.5816,
      "velocity": 126,
      "chip": "ym2612"
    },
    {
      "channel": 2,
      "note": 50,
      "start": 139.9217,
      "duration": 0.5815,
      "velocity": 100,
      "chip": "ym2612"
    },
    {
      "channel": 4,
      "note": 33,
      "start": 139.9234,
      "duration": 0.0673,
      "velocity": 127,
      "chip": "ym2612"
    },
    {
      "channel": 5,
      "note": 50,
      "start": 139.9236,
      "duration": 0.0672,
      "velocity": 91,
      "chip": "ym2612"
    },
    {
      "channel": 4,
      "note": 33,
      "start": 140.0046,
      "duration": 0.0692,
      "velocity": 127,
      "chip": "ym2612"
    },
    {
      "channel": 5,
      "note": 50,
      "start": 140.0047,
      "duration": 0.0692,
      "velocity": 91,
      "chip": "ym2612"
    },
    {
      "channel": 4,
      "note": 33,
      "start": 140.0876,
      "duration": 0.0692,
      "velocity": 127,
      "chip": "ym2612"
    },
    {
      "channel": 5,
      "note": 50,
      "start": 140.0878,
      "duration": 0.0692,
      "velocity": 91,
      "chip": "ym2612"
    },
    {
      "channel": 4,
      "note": 68,
      "start": 140.1722,
      "duration": 0.0677,
      "velocity": 127,
      "chip": "ym2612"
    },
    {
      "channel": 5,
      "note": 50,
      "start": 140.1723,
      "duration": 0.0677,
      "velocity": 91,
      "chip": "ym2612"
    },
    {
      "channel": 4,
      "note": 33,
      "start": 140.2553,
      "duration": 0.0677,
      "velocity": 127,
      "chip": "ym2612"
    },
    {
      "channel": 5,
      "note": 50,
      "start": 140.2554,
      "duration": 0.0677,
      "velocity": 91,
      "chip": "ym2612"
    },
    {
      "channel": 4,
      "note": 33,
      "start": 140.3368,
      "duration": 0.0693,
      "velocity": 127,
      "chip": "ym2612"
    },
    {
      "channel": 5,
      "note": 50,
      "start": 140.3369,
      "duration": 0.0693,
      "velocity": 91,
      "chip": "ym2612"
    },
    {
      "channel": 4,
      "note": 33,
      "start": 140.4198,
      "duration": 0.0693,
      "velocity": 127,
      "chip": "ym2612"
    },
    {
      "channel": 5,
      "note": 50,
      "start": 140.42,
      "duration": 0.0693,
      "velocity": 91,
      "chip": "ym2612"
    },
    {
      "channel": 4,
      "note": 68,
      "start": 140.5049,
      "duration": 0.0672,
      "velocity": 127,
      "chip": "ym2612"
    },
    {
      "channel": 5,
      "note": 50,
      "start": 140.5051,
      "duration": 0.0672,
      "velocity": 91,
      "chip": "ym2612"
    },
    {
      "channel": 1,
      "note": 69,
      "start": 140.5864,
      "duration": 0.581,
      "velocity": 126,
      "chip": "ym2612"
    },
    {
      "channel": 2,
      "note": 57,
      "start": 140.5866,
      "duration": 0.5809,
      "velocity": 100,
      "chip": "ym2612"
    },
    {
      "channel": 4,
      "note": 33,
      "start": 140.5882,
      "duration": 0.0671,
      "velocity": 127,
      "chip": "ym2612"
    },
    {
      "channel": 5,
      "note": 57,
      "start": 140.5883,
      "duration": 0.0671,
      "velocity": 91,
      "chip": "ym2612"
    },
    {
      "channel": 4,
      "note": 33,
      "start": 140.6691,
      "duration": 0.0692,
      "velocity": 127,
      "chip": "ym2612"
    },
    {
      "channel": 5,
      "note": 57,
      "start": 140.6696,
      "duration": 0.0688,
      "velocity": 91,
      "chip": "ym2612"
    },
    {
      "channel": 4,
      "note": 33,
      "start": 140.7521,
      "duration": 0.0693,
      "velocity": 127,
      "chip": "ym2612"
    },
    {
      "channel": 5,
      "note": 57,
      "start": 140.7522,
      "duration": 0.0693,
      "velocity": 91,
      "chip": "ym2612"
    },
    {
      "channel": 4,
      "note": 68,
      "start": 140.8371,
      "duration": 0.0673,
      "velocity": 127,
      "chip": "ym2612"
    },
    {
      "channel": 5,
      "note": 57,
      "start": 140.8372,
      "duration": 0.0673,
      "velocity": 91,
      "chip": "ym2612"
    },
    {
      "channel": 4,
      "note": 33,
      "start": 140.9201,
      "duration": 0.0673,
      "velocity": 127,
      "chip": "ym2612"
    },
    {
      "channel": 5,
      "note": 57,
      "start": 140.9203,
      "duration": 0.0673,
      "velocity": 91,
      "chip": "ym2612"
    },
    {
      "channel": 4,
      "note": 33,
      "start": 141.0013,
      "duration": 0.0692,
      "velocity": 127,
      "chip": "ym2612"
    },
    {
      "channel": 5,
      "note": 57,
      "start": 141.0015,
      "duration": 0.0692,
      "velocity": 91,
      "chip": "ym2612"
    },
    {
      "channel": 4,
      "note": 33,
      "start": 141.0844,
      "duration": 0.0692,
      "velocity": 127,
      "chip": "ym2612"
    },
    {
      "channel": 5,
      "note": 57,
      "start": 141.0845,
      "duration": 0.0692,
      "velocity": 91,
      "chip": "ym2612"
    },
    {
      "channel": 4,
      "note": 68,
      "start": 141.1692,
      "duration": 0.0674,
      "velocity": 127,
      "chip": "ym2612"
    },
    {
      "channel": 5,
      "note": 57,
      "start": 141.1696,
      "duration": 0.0671,
      "velocity": 91,
      "chip": "ym2612"
    },
    {
      "channel": 1,
      "note": 68,
      "start": 141.2505,
      "duration": 0.5814,
      "velocity": 126,
      "chip": "ym2612"
    },
    {
      "channel": 2,
      "note": 56,
      "start": 141.2507,
      "duration": 0.5814,
      "velocity": 100,
      "chip": "ym2612"
    },
    {
      "channel": 4,
      "note": 33,
      "start": 141.2523,
      "duration": 0.0676,
      "velocity": 127,
      "chip": "ym2612"
    },
    {
      "channel": 5,
      "note": 56,
      "start": 141.2526,
      "duration": 0.0674,
      "velocity": 91,
      "chip": "ym2612"
    },
    {
      "channel": 4,
      "note": 33,
      "start": 141.3336,
      "duration": 0.0697,
      "velocity": 127,
      "chip": "ym2612"
    },
    {
      "channel": 5,
      "note": 56,
      "start": 141.3337,
      "duration": 0.0697,
      "velocity": 91,
      "chip": "ym2612"
    },
    {
      "channel": 4,
      "note": 33,
      "start": 141.4166,
      "duration": 0.0692,
      "velocity": 127,
      "chip": "ym2612"
    },
    {
      "channel": 5,
      "note": 56,
      "start": 141.4168,
      "duration": 0.0696,
      "velocity": 91,
      "chip": "ym2612"
    },
    {
      "channel": 4,
      "note": 68,
      "start": 141.5012,
      "duration": 0.0677,
      "velocity": 127,
      "chip": "ym2612"
    },
    {
      "channel": 5,
      "note": 56,
      "start": 141.5013,
      "duration": 0.0678,
      "velocity": 91,
      "chip": "ym2612"
    },
    {
      "channel": 4,
      "note": 33,
      "start": 141.5843,
      "duration": 0.0677,
      "velocity": 127,
      "chip": "ym2612"
    },
    {
      "channel": 5,
      "note": 56,
      "start": 141.5843,
      "duration": 0.0678,
      "velocity": 91,
      "chip": "ym2612"
    },
    {
      "channel": 4,
      "note": 33,
      "start": 141.6658,
      "duration": 0.0692,
      "velocity": 127,
      "chip": "ym2612"
    },
    {
      "channel": 5,
      "note": 56,
      "start": 141.6659,
      "duration": 0.0692,
      "velocity": 91,
      "chip": "ym2612"
    },
    {
      "channel": 4,
      "note": 33,
      "start": 141.7489,
      "duration": 0.0692,
      "velocity": 127,
      "chip": "ym2612"
    },
    {
      "channel": 5,
      "note": 56,
      "start": 141.749,
      "duration": 0.0692,
      "velocity": 91,
      "chip": "ym2612"
    },
    {
      "channel": 4,
      "note": 68,
      "start": 141.8337,
      "duration": 0.0675,
      "velocity": 127,
      "chip": "ym2612"
    },
    {
      "channel": 5,
      "note": 56,
      "start": 141.8338,
      "duration": 0.0675,
      "velocity": 91,
      "chip": "ym2612"
    },
    {
      "channel": 1,
      "note": 67,
      "start": 141.9151,
      "duration": 1.1628,
      "velocity": 126,
      "chip": "ym2612"
    },
    {
      "channel": 2,
      "note": 55,
      "start": 141.9152,
      "duration": 1.1628,
      "velocity": 100,
      "chip": "ym2612"
    },
    {
      "channel": 4,
      "note": 64,
      "start": 141.9169,
      "duration": 0.0538,
      "velocity": 127,
      "chip": "ym2612"
    },
    {
      "channel": 5,
      "note": 54,
      "start": 141.9171,
      "duration": 0.0672,
      "velocity": 91,
      "chip": "ym2612"
    },
    {
      "channel": 4,
      "note": 61,
      "start": 141.9708,
      "duration": 0.0553,
      "velocity": 127,
      "chip": "ym2612"
    },
    {
      "channel": 5,
      "note": 54,
      "start": 141.9985,
      "duration": 0.0688,
      "velocity": 91,
      "chip": "ym2612"
    },
    {
      "channel": 4,
      "note": 57,
      "start": 142.0262,
      "duration": 0.0552,
      "velocity": 127,
      "chip": "ym2612"
    },
    {
      "channel": 4,
      "note": 64,
      "start": 142.0815,
      "duration": 0.0553,
      "velocity": 127,
      "chip": "ym2612"
    },
    {
      "channel": 5,
      "note": 54,
      "start": 142.0817,
      "duration": 0.0687,
      "velocity": 91,
      "chip": "ym2612"
    },
    {
      "channel": 4,
      "note": 61,
      "start": 142.1369,
      "duration": 0.0553,
      "velocity": 127,
      "chip": "ym2612"
    },
    {
      "channel": 5,
      "note": 54,
      "start": 142.1646,
      "duration": 0.0688,
      "velocity": 91,
      "chip": "ym2612"
    },
    {
      "channel": 4,
      "note": 57,
      "start": 142.1923,
      "duration": 0.0552,
      "velocity": 127,
      "chip": "ym2612"
    },
    {
      "channel": 4,
      "note": 64,
      "start": 142.2477,
      "duration": 0.0558,
      "velocity": 127,
      "chip": "ym2612"
    },
    {
      "channel": 5,
      "note": 54,
      "start": 142.2478,
      "duration": 0.0686,
      "velocity": 91,
      "chip": "ym2612"
    },
    {
      "channel": 4,
      "note": 61,
      "start": 142.3036,
      "duration": 0.0547,
      "velocity": 127,
      "chip": "ym2612"
    },
    {
      "channel": 5,
      "note": 54,
      "start": 142.3306,
      "duration": 0.0689,
      "velocity": 91,
      "chip": "ym2612"
    },
    {
      "channel": 4,
      "note": 57,
      "start": 142.3585,
      "duration": 0.0552,
      "velocity": 127,
      "chip": "ym2612"
    },
    {
      "channel": 4,
      "note": 64,
      "start": 142.4139,
      "duration": 0.0553,
      "velocity": 127,
      "chip": "ym2612"
    },
    {
      "channel": 5,
      "note": 54,
      "start": 142.414,
      "duration": 0.0687,
      "velocity": 91,
      "chip": "ym2612"
    },
    {
      "channel": 4,
      "note": 61,
      "start": 142.4693,
      "duration": 0.0552,
      "velocity": 127,
      "chip": "ym2612"
    },
    {
      "channel": 5,
      "note": 54,
      "start": 142.4967,
      "duration": 0.069,
      "velocity": 91,
      "chip": "ym2612"
    },
    {
      "channel": 4,
      "note": 57,
      "start": 142.5246,
      "duration": 0.0552,
      "velocity": 127,
      "chip": "ym2612"
    },
    {
      "channel": 4,
      "note": 64,
      "start": 142.5799,
      "duration": 0.0553,
      "velocity": 127,
      "chip": "ym2612"
    },
    {
      "channel": 5,
      "note": 54,
      "start": 142.5801,
      "duration": 0.0686,
      "velocity": 91,
      "chip": "ym2612"
    },
    {
      "channel": 4,
      "note": 61,
      "start": 142.6354,
      "duration": 0.0552,
      "velocity": 127,
      "chip": "ym2612"
    },
    {
      "channel": 5,
      "note": 54,
      "start": 142.6629,
      "duration": 0.0689,
      "velocity": 91,
      "chip": "ym2612"
    },
    {
      "channel": 4,
      "note": 57,
      "start": 142.6907,
      "duration": 0.0553,
      "velocity": 127,
      "chip": "ym2612"
    },
    {
      "channel": 4,
      "note": 64,
      "start": 142.7461,
      "duration": 0.0552,
      "velocity": 127,
      "chip": "ym2612"
    },
    {
      "channel": 5,
      "note": 54,
      "start": 142.7462,
      "duration": 0.0686,
      "velocity": 91,
      "chip": "ym2612"
    },
    {
      "channel": 4,
      "note": 61,
      "start": 142.8015,
      "duration": 0.0553,
      "velocity": 127,
      "chip": "ym2612"
    },
    {
      "channel": 5,
      "note": 54,
      "start": 142.829,
      "duration": 0.0689,
      "velocity": 91,
      "chip": "ym2612"
    },
    {
      "channel": 4,
      "note": 57,
      "start": 142.8568,
      "duration": 0.0566,
      "velocity": 127,
      "chip": "ym2612"
    },
    {
      "channel": 4,
      "note": 68,
      "start": 142.9137,
      "duration": 0.0674,
      "velocity": 127,
      "chip": "ym2612"
    },
    {
      "channel": 5,
      "note": 54,
      "start": 142.9138,
      "duration": 0.0674,
      "velocity": 91,
      "chip": "ym2612"
    },
    {
      "channel": 4,
      "note": 68,
      "start": 142.9951,
      "duration": 0.0689,
      "velocity": 127,
      "chip": "ym2612"
    },
    {
      "channel": 5,
      "note": 54,
      "start": 142.9953,
      "duration": 0.0689,
      "velocity": 91,
      "chip": "ym2612"
    },
    {
      "channel": 4,
      "note": 68,
      "start": 143.0783,
      "duration": 0.0688,
      "velocity": 127,
      "chip": "ym2612"
    },
    {
      "channel": 5,
      "note": 54,
      "start": 143.0784,
      "duration": 0.0688,
      "velocity": 91,
      "chip": "ym2612"
    },
    {
      "channel": 4,
      "note": 68,
      "start": 143.1612,
      "duration": 0.069,
      "velocity": 127,
      "chip": "ym2612"
    },
    {
      "channel": 5,
      "note": 54,
      "start": 143.1614,
      "duration": 0.069,
      "velocity": 91,
      "chip": "ym2612"
    },
    {
      "channel": 1,
      "note": 71,
      "start": 143.2441,
      "duration": 0.2907,
      "velocity": 126,
      "chip": "ym2612"
    },
    {
      "channel": 2,
      "note": 59,
      "start": 143.2443,
      "duration": 0.2906,
      "velocity": 100,
      "chip": "ym2612"
    },
    {
      "channel": 3,
      "note": 45,
      "start": 143.2444,
      "duration": 0.2906,
      "velocity": 127,
      "chip": "ym2612"
    },
    {
      "channel": 4,
      "note": 33,
      "start": 143.246,
      "duration": 0.2891,
      "velocity": 127,
      "chip": "ym2612"
    },
    {
      "channel": 5,
      "note": 59,
      "start": 143.2462,
      "duration": 0.289,
      "velocity": 91,
      "chip": "ym2612"
    },
    {
      "channel": 1,
      "note": 70,
      "start": 143.5763,
      "duration": 0.2907,
      "velocity": 126,
      "chip": "ym2612"
    },
    {
      "channel": 2,
      "note": 58,
      "start": 143.5764,
      "duration": 0.2907,
      "velocity": 100,
      "chip": "ym2612"
    },
    {
      "channel": 3,
      "note": 45,
      "start": 143.5766,
      "duration": 0.2906,
      "velocity": 127,
      "chip": "ym2612"
    },
    {
      "channel": 4,
      "note": 33,
      "start": 143.5767,
      "duration": 0.2907,
      "velocity": 127,
      "chip": "ym2612"
    },
    {
      "channel": 5,
      "note": 58,
      "start": 143.5769,
      "duration": 0.2906,
      "velocity": 91,
      "chip": "ym2612"
    },
    {
      "channel": 1,
      "note": 69,
      "start": 143.9086,
      "duration": 0.2906,
      "velocity": 126,
      "chip": "ym2612"
    },
    {
      "channel": 2,
      "note": 57,
      "start": 143.9088,
      "duration": 0.2906,
      "velocity": 100,
      "chip": "ym2612"
    },
    {
      "channel": 3,
      "note": 45,
      "start": 143.9089,
      "duration": 0.2906,
      "velocity": 127,
      "chip": "ym2612"
    },
    {
      "channel": 4,
      "note": 33,
      "start": 143.909,
      "duration": 0.2906,
      "velocity": 127,
      "chip": "ym2612"
    },
    {
      "channel": 5,
      "note": 57,
      "start": 143.9092,
      "duration": 0.2905,
      "velocity": 91,
      "chip": "ym2612"
    },
    {
      "channel": 1,
      "note": 68,
      "start": 144.2408,
      "duration": 0.2907,
      "velocity": 126,
      "chip": "ym2612"
    },
    {
      "channel": 2,
      "note": 56,
      "start": 144.241,
      "duration": 0.2906,
      "velocity": 100,
      "chip": "ym2612"
    },
    {
      "channel": 3,
      "note": 45,
      "start": 144.2411,
      "duration": 0.2906,
      "velocity": 127,
      "chip": "ym2612"
    },
    {
      "channel": 4,
      "note": 33,
      "start": 144.2413,
      "duration": 0.2906,
      "velocity": 127,
      "chip": "ym2612"
    },
    {
      "channel": 5,
      "note": 56,
      "start": 144.2415,
      "duration": 0.2905,
      "velocity": 91,
      "chip": "ym2612"
    },
    {
      "channel": 1,
      "note": 61,
      "start": 144.5731,
      "duration": 0.0691,
      "velocity": 126,
      "chip": "ym2612"
    },
    {
      "channel": 2,
      "note": 49,
      "start": 144.5733,
      "duration": 0.0691,
      "velocity": 100,
      "chip": "ym2612"
    },
    {
      "channel": 4,
      "note": 33,
      "start": 144.5734,
      "duration": 0.069,
      "velocity": 127,
      "chip": "ym2612"
    },
    {
      "channel": 5,
      "note": 49,
      "start": 144.5737,
      "duration": 0.069,
      "velocity": 91,
      "chip": "ym2612"
    },
    {
      "channel": 1,
      "note": 61,
      "start": 144.6561,
      "duration": 0.0692,
      "velocity": 126,
      "chip": "ym2612"
    },
    {
      "channel": 2,
      "note": 49,
      "start": 144.6562,
      "duration": 0.0691,
      "velocity": 100,
      "chip": "ym2612"
    },
    {
      "channel": 4,
      "note": 33,
      "start": 144.6563,
      "duration": 0.0691,
      "velocity": 127,
      "chip": "ym2612"
    },
    {
      "channel": 5,
      "note": 49,
      "start": 144.6565,
      "duration": 0.0692,
      "velocity": 91,
      "chip": "ym2612"
    },
    {
      "channel": 1,
      "note": 61,
      "start": 144.7391,
      "duration": 0.0692,
      "velocity": 126,
      "chip": "ym2612"
    },
    {
      "channel": 2,
      "note": 49,
      "start": 144.7392,
      "duration": 0.0692,
      "velocity": 100,
      "chip": "ym2612"
    },
    {
      "channel": 4,
      "note": 33,
      "start": 144.7394,
      "duration": 0.0692,
      "velocity": 127,
      "chip": "ym2612"
    },
    {
      "channel": 5,
      "note": 49,
      "start": 144.7395,
      "duration": 0.0692,
      "velocity": 91,
      "chip": "ym2612"
    },
    {
      "channel": 1,
      "note": 61,
      "start": 144.8222,
      "duration": 0.0692,
      "velocity": 126,
      "chip": "ym2612"
    },
    {
      "channel": 2,
      "note": 49,
      "start": 144.8224,
      "duration": 0.0692,
      "velocity": 100,
      "chip": "ym2612"
    },
    {
      "channel": 4,
      "note": 68,
      "start": 144.824,
      "duration": 0.0677,
      "velocity": 127,
      "chip": "ym2612"
    },
    {
      "channel": 5,
      "note": 49,
      "start": 144.8241,
      "duration": 0.0678,
      "velocity": 91,
      "chip": "ym2612"
    },
    {
      "channel": 1,
      "note": 61,
      "start": 144.9053,
      "duration": 0.0692,
      "velocity": 126,
      "chip": "ym2612"
    },
    {
      "channel": 2,
      "note": 49,
      "start": 144.9054,
      "duration": 0.0692,
      "velocity": 100,
      "chip": "ym2612"
    },
    {
      "channel": 4,
      "note": 33,
      "start": 144.907,
      "duration": 0.0677,
      "velocity": 127,
      "chip": "ym2612"
    },
    {
      "channel": 5,
      "note": 49,
      "start": 144.9071,
      "duration": 0.0678,
      "velocity": 91,
      "chip": "ym2612"
    },
    {
      "channel": 1,
      "note": 61,
      "start": 144.9883,
      "duration": 0.0691,
      "velocity": 126,
      "chip": "ym2612"
    },
    {
      "channel": 2,
      "note": 49,
      "start": 144.9885,
      "duration": 0.0692,
      "velocity": 100,
      "chip": "ym2612"
    },
    {
      "channel": 4,
      "note": 33,
      "start": 144.9886,
      "duration": 0.0691,
      "velocity": 127,
      "chip": "ym2612"
    },
    {
      "channel": 5,
      "note": 49,
      "start": 144.9887,
      "duration": 0.0691,
      "velocity": 91,
      "chip": "ym2612"
    },
    {
      "channel": 1,
      "note": 61,
      "start": 145.0714,
      "duration": 0.0693,
      "velocity": 126,
      "chip": "ym2612"
    },
    {
      "channel": 2,
      "note": 49,
      "start": 145.0715,
      "duration": 0.0693,
      "velocity": 100,
      "chip": "ym2612"
    },
    {
      "channel": 4,
      "note": 33,
      "start": 145.0716,
      "duration": 0.0693,
      "velocity": 127,
      "chip": "ym2612"
    },
    {
      "channel": 5,
      "note": 49,
      "start": 145.0717,
      "duration": 0.0693,
      "velocity": 91,
      "chip": "ym2612"
    },
    {
      "channel": 1,
      "note": 61,
      "start": 145.1544,
      "duration": 0.0692,
      "velocity": 126,
      "chip": "ym2612"
    },
    {
      "channel": 2,
      "note": 49,
      "start": 145.1546,
      "duration": 0.0692,
      "velocity": 100,
      "chip": "ym2612"
    },
    {
      "channel": 4,
      "note": 68,
      "start": 145.1562,
      "duration": 0.0677,
      "velocity": 127,
      "chip": "ym2612"
    },
    {
      "channel": 5,
      "note": 49,
      "start": 145.1563,
      "duration": 0.0677,
      "velocity": 91,
      "chip": "ym2612"
    },
    {
      "channel": 1,
      "note": 61,
      "start": 145.2375,
      "duration": 0.0692,
      "velocity": 126,
      "chip": "ym2612"
    },
    {
      "channel": 2,
      "note": 49,
      "start": 145.2376,
      "duration": 0.0692,
      "velocity": 100,
      "chip": "ym2612"
    },
    {
      "channel": 4,
      "note": 33,
      "start": 145.2393,
      "duration": 0.0677,
      "velocity": 127,
      "chip": "ym2612"
    },
    {
      "channel": 5,
      "note": 49,
      "start": 145.2394,
      "duration": 0.0678,
      "velocity": 91,
      "chip": "ym2612"
    },
    {
      "channel": 1,
      "note": 61,
      "start": 145.3206,
      "duration": 0.0692,
      "velocity": 126,
      "chip": "ym2612"
    },
    {
      "channel": 2,
      "note": 49,
      "start": 145.3207,
      "duration": 0.0692,
      "velocity": 100,
      "chip": "ym2612"
    },
    {
      "channel": 4,
      "note": 33,
      "start": 145.3208,
      "duration": 0.0692,
      "velocity": 127,
      "chip": "ym2612"
    },
    {
      "channel": 5,
      "note": 49,
      "start": 145.321,
      "duration": 0.0692,
      "velocity": 91,
      "chip": "ym2612"
    },
    {
      "channel": 1,
      "note": 61,
      "start": 145.4037,
      "duration": 0.0692,
      "velocity": 126,
      "chip": "ym2612"
    },
    {
      "channel": 2,
      "note": 49,
      "start": 145.4038,
      "duration": 0.0692,
      "velocity": 100,
      "chip": "ym2612"
    },
    {
      "channel": 4,
      "note": 33,
      "start": 145.4039,
      "duration": 0.0692,
      "velocity": 127,
      "chip": "ym2612"
    },
    {
      "channel": 5,
      "note": 49,
      "start": 145.4041,
      "duration": 0.0692,
      "velocity": 91,
      "chip": "ym2612"
    },
    {
      "channel": 1,
      "note": 61,
      "start": 145.4867,
      "duration": 0.0692,
      "velocity": 126,
      "chip": "ym2612"
    },
    {
      "channel": 2,
      "note": 49,
      "start": 145.4868,
      "duration": 0.0692,
      "velocity": 100,
      "chip": "ym2612"
    },
    {
      "channel": 4,
      "note": 68,
      "start": 145.4885,
      "duration": 0.0677,
      "velocity": 127,
      "chip": "ym2612"
    },
    {
      "channel": 5,
      "note": 49,
      "start": 145.4886,
      "duration": 0.0677,
      "velocity": 91,
      "chip": "ym2612"
    },
    {
      "channel": 1,
      "note": 61,
      "start": 145.5699,
      "duration": 0.0691,
      "velocity": 126,
      "chip": "ym2612"
    },
    {
      "channel": 2,
      "note": 49,
      "start": 145.57,
      "duration": 0.0691,
      "velocity": 100,
      "chip": "ym2612"
    },
    {
      "channel": 4,
      "note": 33,
      "start": 145.5717,
      "duration": 0.0676,
      "velocity": 127,
      "chip": "ym2612"
    },
    {
      "channel": 5,
      "note": 49,
      "start": 145.5717,
      "duration": 0.0676,
      "velocity": 91,
      "chip": "ym2612"
    },
    {
      "channel": 1,
      "note": 61,
      "start": 145.6532,
      "duration": 0.0689,
      "velocity": 126,
      "chip": "ym2612"
    },
    {
      "channel": 2,
      "note": 49,
      "start": 145.6533,
      "duration": 0.0689,
      "velocity": 100,
      "chip": "ym2612"
    },
    {
      "channel": 4,
      "note": 33,
      "start": 145.6534,
      "duration": 0.069,
      "velocity": 127,
      "chip": "ym2612"
    },
    {
      "channel": 5,
      "note": 49,
      "start": 145.6535,
      "duration": 0.069,
      "velocity": 91,
      "chip": "ym2612"
    },
    {
      "channel": 1,
      "note": 61,
      "start": 145.7359,
      "duration": 0.0692,
      "velocity": 126,
      "chip": "ym2612"
    },
    {
      "channel": 2,
      "note": 49,
      "start": 145.7364,
      "duration": 0.0689,
      "velocity": 100,
      "chip": "ym2612"
    },
    {
      "channel": 4,
      "note": 33,
      "start": 145.7365,
      "duration": 0.0689,
      "velocity": 127,
      "chip": "ym2612"
    },
    {
      "channel": 5,
      "note": 49,
      "start": 145.7366,
      "duration": 0.0689,
      "velocity": 91,
      "chip": "ym2612"
    },
    {
      "channel": 1,
      "note": 61,
      "start": 145.8189,
      "duration": 0.0693,
      "velocity": 126,
      "chip": "ym2612"
    },
    {
      "channel": 2,
      "note": 49,
      "start": 145.8191,
      "duration": 0.0693,
      "velocity": 100,
      "chip": "ym2612"
    },
    {
      "channel": 4,
      "note": 68,
      "start": 145.8211,
      "duration": 0.0674,
      "velocity": 127,
      "chip": "ym2612"
    },
    {
      "channel": 5,
      "note": 49,
      "start": 145.8212,
      "duration": 0.0674,
      "velocity": 91,
      "chip": "ym2612"
    },
    {
      "channel": 1,
      "note": 71,
      "start": 145.9021,
      "duration": 0.2906,
      "velocity": 126,
      "chip": "ym2612"
    },
    {
      "channel": 2,
      "note": 59,
      "start": 145.9023,
      "duration": 0.2905,
      "velocity": 100,
      "chip": "ym2612"
    },
    {
      "channel": 3,
      "note": 45,
      "start": 145.9025,
      "duration": 0.2905,
      "velocity": 127,
      "chip": "ym2612"
    },
    {
      "channel": 4,
      "note": 33,
      "start": 145.9044,
      "duration": 0.2887,
      "velocity": 127,
      "chip": "ym2612"
    },
    {
      "channel": 5,
      "note": 59,
      "start": 145.9046,
      "duration": 0.2886,
      "velocity": 91,
      "chip": "ym2612"
    },
    {
      "channel": 1,
      "note": 70,
      "start": 146.2344,
      "duration": 0.2906,
      "velocity": 126,
      "chip": "ym2612"
    },
    {
      "channel": 2,
      "note": 58,
      "start": 146.2345,
      "duration": 0.2907,
      "velocity": 100,
      "chip": "ym2612"
    },
    {
      "channel": 3,
      "note": 45,
      "start": 146.2346,
      "duration": 0.2907,
      "velocity": 127,
      "chip": "ym2612"
    },
    {
      "channel": 4,
      "note": 33,
      "start": 146.2348,
      "duration": 0.2906,
      "velocity": 127,
      "chip": "ym2612"
    },
    {
      "channel": 5,
      "note": 58,
      "start": 146.235,
      "duration": 0.2906,
      "velocity": 91,
      "chip": "ym2612"
    },
    {
      "channel": 1,
      "note": 69,
      "start": 146.5666,
      "duration": 0.2906,
      "velocity": 126,
      "chip": "ym2612"
    },
    {
      "channel": 2,
      "note": 57,
      "start": 146.5668,
      "duration": 0.2905,
      "velocity": 100,
      "chip": "ym2612"
    },
    {
      "channel": 3,
      "note": 45,
      "start": 146.5669,
      "duration": 0.2906,
      "velocity": 127,
      "chip": "ym2612"
    },
    {
      "channel": 4,
      "note": 33,
      "start": 146.567,
      "duration": 0.2906,
      "velocity": 127,
      "chip": "ym2612"
    },
    {
      "channel": 5,
      "note": 57,
      "start": 146.5672,
      "duration": 0.2905,
      "velocity": 91,
      "chip": "ym2612"
    },
    {
      "channel": 1,
      "note": 72,
      "start": 146.8988,
      "duration": 0.2906,
      "velocity": 126,
      "chip": "ym2612"
    },
    {
      "channel": 2,
      "note": 60,
      "start": 146.899,
      "duration": 0.2906,
      "velocity": 100,
      "chip": "ym2612"
    },
    {
      "channel": 3,
      "note": 45,
      "start": 146.8992,
      "duration": 0.2906,
      "velocity": 127,
      "chip": "ym2612"
    },
    {
      "channel": 4,
      "note": 33,
      "start": 146.8993,
      "duration": 0.2906,
      "velocity": 127,
      "chip": "ym2612"
    },
    {
      "channel": 5,
      "note": 60,
      "start": 146.8995,
      "duration": 0.2905,
      "velocity": 91,
      "chip": "ym2612"
    },
    {
      "channel": 1,
      "note": 73,
      "start": 147.2311,
      "duration": 0.0691,
      "velocity": 126,
      "chip": "ym2612"
    },
    {
      "channel": 2,
      "note": 61,
      "start": 147.2313,
      "duration": 0.0691,
      "velocity": 100,
      "chip": "ym2612"
    },
    {
      "channel": 4,
      "note": 33,
      "start": 147.2314,
      "duration": 0.0691,
      "velocity": 127,
      "chip": "ym2612"
    },
    {
      "channel": 5,
      "note": 61,
      "start": 147.2316,
      "duration": 0.0691,
      "velocity": 91,
      "chip": "ym2612"
    },
    {
      "channel": 1,
      "note": 73,
      "start": 147.3141,
      "duration": 0.0692,
      "velocity": 126,
      "chip": "ym2612"
    },
    {
      "channel": 2,
      "note": 61,
      "start": 147.3142,
      "duration": 0.0692,
      "velocity": 100,
      "chip": "ym2612"
    },
    {
      "channel": 4,
      "note": 33,
      "start": 147.3144,
      "duration": 0.0692,
      "velocity": 127,
      "chip": "ym2612"
    },
    {
      "channel": 5,
      "note": 61,
      "start": 147.3145,
      "duration": 0.0692,
      "velocity": 91,
      "chip": "ym2612"
    },
    {
      "channel": 1,
      "note": 73,
      "start": 147.3972,
      "duration": 0.0692,
      "velocity": 126,
      "chip": "ym2612"
    },
    {
      "channel": 2,
      "note": 61,
      "start": 147.3973,
      "duration": 0.0692,
      "velocity": 100,
      "chip": "ym2612"
    },
    {
      "channel": 4,
      "note": 33,
      "start": 147.3974,
      "duration": 0.0692,
      "velocity": 127,
      "chip": "ym2612"
    },
    {
      "channel": 5,
      "note": 61,
      "start": 147.3976,
      "duration": 0.0692,
      "velocity": 91,
      "chip": "ym2612"
    },
    {
      "channel": 1,
      "note": 73,
      "start": 147.4802,
      "duration": 0.0692,
      "velocity": 126,
      "chip": "ym2612"
    },
    {
      "channel": 2,
      "note": 61,
      "start": 147.4804,
      "duration": 0.0691,
      "velocity": 100,
      "chip": "ym2612"
    },
    {
      "channel": 4,
      "note": 68,
      "start": 147.482,
      "duration": 0.0676,
      "velocity": 127,
      "chip": "ym2612"
    },
    {
      "channel": 5,
      "note": 61,
      "start": 147.4822,
      "duration": 0.0676,
      "velocity": 91,
      "chip": "ym2612"
    },
    {
      "channel": 1,
      "note": 73,
      "start": 147.5633,
      "duration": 0.0692,
      "velocity": 126,
      "chip": "ym2612"
    },
    {
      "channel": 2,
      "note": 61,
      "start": 147.5635,
      "duration": 0.0692,
      "velocity": 100,
      "chip": "ym2612"
    },
    {
      "channel": 4,
      "note": 33,
      "start": 147.5651,
      "duration": 0.0677,
      "velocity": 127,
      "chip": "ym2612"
    },
    {
      "channel": 5,
      "note": 61,
      "start": 147.5652,
      "duration": 0.0677,
      "velocity": 91,
      "chip": "ym2612"
    },
    {
      "channel": 1,
      "note": 73,
      "start": 147.6463,
      "duration": 0.0692,
      "velocity": 126,
      "chip": "ym2612"
    },
    {
      "channel": 2,
      "note": 61,
      "start": 147.6465,
      "duration": 0.0692,
      "velocity": 100,
      "chip": "ym2612"
    },
    {
      "channel": 4,
      "note": 33,
      "start": 147.6466,
      "duration": 0.0692,
      "velocity": 127,
      "chip": "ym2612"
    },
    {
      "channel": 5,
      "note": 61,
      "start": 147.6467,
      "duration": 0.0692,
      "velocity": 91,
      "chip": "ym2612"
    },
    {
      "channel": 1,
      "note": 73,
      "start": 147.7294,
      "duration": 0.0692,
      "velocity": 126,
      "chip": "ym2612"
    },
    {
      "channel": 2,
      "note": 61,
      "start": 147.7296,
      "duration": 0.0692,
      "velocity": 100,
      "chip": "ym2612"
    },
    {
      "channel": 4,
      "note": 33,
      "start": 147.7297,
      "duration": 0.0692,
      "velocity": 127,
      "chip": "ym2612"
    },
    {
      "channel": 5,
      "note": 61,
      "start": 147.7298,
      "duration": 0.0692,
      "velocity": 91,
      "chip": "ym2612"
    },
    {
      "channel": 1,
      "note": 73,
      "start": 147.8125,
      "duration": 0.0692,
      "velocity": 126,
      "chip": "ym2612"
    },
    {
      "channel": 2,
      "note": 61,
      "start": 147.8126,
      "duration": 0.0692,
      "velocity": 100,
      "chip": "ym2612"
    },
    {
      "channel": 4,
      "note": 68,
      "start": 147.8143,
      "duration": 0.0677,
      "velocity": 127,
      "chip": "ym2612"
    },
    {
      "channel": 5,
      "note": 61,
      "start": 147.8144,
      "duration": 0.0678,
      "velocity": 91,
      "chip": "ym2612"
    },
    {
      "channel": 1,
      "note": 73,
      "start": 147.8955,
      "duration": 0.0692,
      "velocity": 126,
      "chip": "ym2612"
    },
    {
      "channel": 2,
      "note": 61,
      "start": 147.8956,
      "duration": 0.0692,
      "velocity": 100,
      "chip": "ym2612"
    },
    {
      "channel": 4,
      "note": 33,
      "start": 147.8973,
      "duration": 0.0677,
      "velocity": 127,
      "chip": "ym2612"
    },
    {
      "channel": 5,
      "note": 61,
      "start": 147.8974,
      "duration": 0.0677,
      "velocity": 91,
      "chip": "ym2612"
    },
    {
      "channel": 1,
      "note": 73,
      "start": 147.9786,
      "duration": 0.0692,
      "velocity": 126,
      "chip": "ym2612"
    },
    {
      "channel": 2,
      "note": 61,
      "start": 147.9787,
      "duration": 0.0692,
      "velocity": 100,
      "chip": "ym2612"
    },
    {
      "channel": 4,
      "note": 33,
      "start": 147.9789,
      "duration": 0.0692,
      "velocity": 127,
      "chip": "ym2612"
    },
    {
      "channel": 5,
      "note": 61,
      "start": 147.979,
      "duration": 0.0692,
      "velocity": 91,
      "chip": "ym2612"
    },
    {
      "channel": 1,
      "note": 73,
      "start": 148.0617,
      "duration": 0.0692,
      "velocity": 126,
      "chip": "ym2612"
    },
    {
      "channel": 2,
      "note": 61,
      "start": 148.0618,
      "duration": 0.0692,
      "velocity": 100,
      "chip": "ym2612"
    },
    {
      "channel": 4,
      "note": 33,
      "start": 148.0619,
      "duration": 0.0692,
      "velocity": 127,
      "chip": "ym2612"
    },
    {
      "channel": 5,
      "note": 61,
      "start": 148.0621,
      "duration": 0.0692,
      "velocity": 91,
      "chip": "ym2612"
    },
    {
      "channel": 1,
      "note": 73,
      "start": 148.1447,
      "duration": 0.0692,
      "velocity": 126,
      "chip": "ym2612"
    },
    {
      "channel": 2,
      "note": 61,
      "start": 148.1448,
      "duration": 0.0692,
      "velocity": 100,
      "chip": "ym2612"
    },
    {
      "channel": 4,
      "note": 68,
      "start": 148.1465,
      "duration": 0.0677,
      "velocity": 127,
      "chip": "ym2612"
    },
    {
      "channel": 5,
      "note": 61,
      "start": 148.1466,
      "duration": 0.0678,
      "velocity": 91,
      "chip": "ym2612"
    },
    {
      "channel": 1,
      "note": 73,
      "start": 148.2278,
      "duration": 0.0692,
      "velocity": 126,
      "chip": "ym2612"
    },
    {
      "channel": 2,
      "note": 61,
      "start": 148.228,
      "duration": 0.0692,
      "velocity": 100,
      "chip": "ym2612"
    },
    {
      "channel": 4,
      "note": 33,
      "start": 148.2296,
      "duration": 0.0677,
      "velocity": 127,
      "chip": "ym2612"
    },
    {
      "channel": 5,
      "note": 61,
      "start": 148.2297,
      "duration": 0.0678,
      "velocity": 91,
      "chip": "ym2612"
    },
    {
      "channel": 1,
      "note": 73,
      "start": 148.3109,
      "duration": 0.0692,
      "velocity": 126,
      "chip": "ym2612"
    },
    {
      "channel": 2,
      "note": 61,
      "start": 148.311,
      "duration": 0.0692,
      "velocity": 100,
      "chip": "ym2612"
    },
    {
      "channel": 4,
      "note": 33,
      "start": 148.3111,
      "duration": 0.0692,
      "velocity": 127,
      "chip": "ym2612"
    },
    {
      "channel": 5,
      "note": 61,
      "start": 148.3112,
      "duration": 0.0692,
      "velocity": 91,
      "chip": "ym2612"
    },
    {
      "channel": 1,
      "note": 73,
      "start": 148.3939,
      "duration": 0.0692,
      "velocity": 126,
      "chip": "ym2612"
    },
    {
      "channel": 2,
      "note": 61,
      "start": 148.3941,
      "duration": 0.0692,
      "velocity": 100,
      "chip": "ym2612"
    },
    {
      "channel": 4,
      "note": 33,
      "start": 148.3942,
      "duration": 0.0692,
      "velocity": 127,
      "chip": "ym2612"
    },
    {
      "channel": 5,
      "note": 61,
      "start": 148.3943,
      "duration": 0.0692,
      "velocity": 91,
      "chip": "ym2612"
    },
    {
      "channel": 1,
      "note": 73,
      "start": 148.477,
      "duration": 0.0692,
      "velocity": 126,
      "chip": "ym2612"
    },
    {
      "channel": 2,
      "note": 61,
      "start": 148.4771,
      "duration": 0.0691,
      "velocity": 100,
      "chip": "ym2612"
    },
    {
      "channel": 4,
      "note": 68,
      "start": 148.4788,
      "duration": 0.0676,
      "velocity": 127,
      "chip": "ym2612"
    },
    {
      "channel": 5,
      "note": 61,
      "start": 148.4789,
      "duration": 0.0676,
      "velocity": 91,
      "chip": "ym2612"
    },
    {
      "channel": 1,
      "note": 71,
      "start": 148.5601,
      "duration": 0.2907,
      "velocity": 126,
      "chip": "ym2612"
    },
    {
      "channel": 2,
      "note": 59,
      "start": 148.5603,
      "duration": 0.2906,
      "velocity": 100,
      "chip": "ym2612"
    },
    {
      "channel": 3,
      "note": 45,
      "start": 148.5604,
      "duration": 0.2906,
      "velocity": 127,
      "chip": "ym2612"
    },
    {
      "channel": 4,
      "note": 33,
      "start": 148.5621,
      "duration": 0.2891,
      "velocity": 127,
      "chip": "ym2612"
    },
    {
      "channel": 5,
      "note": 59,
      "start": 148.5623,
      "duration": 0.289,
      "velocity": 91,
      "chip": "ym2612"
    },
    {
      "channel": 1,
      "note": 70,
      "start": 148.8923,
      "duration": 0.2907,
      "velocity": 126,
      "chip": "ym2612"
    },
    {
      "channel": 2,
      "note": 58,
      "start": 148.8925,
      "duration": 0.2906,
      "velocity": 100,
      "chip": "ym2612"
    },
    {
      "channel": 3,
      "note": 45,
      "start": 148.8927,
      "duration": 0.2906,
      "velocity": 127,
      "chip": "ym2612"
    },
    {
      "channel": 4,
      "note": 33,
      "start": 148.8928,
      "duration": 0.2906,
      "velocity": 127,
      "chip": "ym2612"
    },
    {
      "channel": 5,
      "note": 58,
      "start": 148.893,
      "duration": 0.2905,
      "velocity": 91,
      "chip": "ym2612"
    },
    {
      "channel": 1,
      "note": 69,
      "start": 149.2246,
      "duration": 0.2907,
      "velocity": 126,
      "chip": "ym2612"
    },
    {
      "channel": 2,
      "note": 57,
      "start": 149.2248,
      "duration": 0.2907,
      "velocity": 100,
      "chip": "ym2612"
    },
    {
      "channel": 3,
      "note": 45,
      "start": 149.2249,
      "duration": 0.2906,
      "velocity": 127,
      "chip": "ym2612"
    },
    {
      "channel": 4,
      "note": 33,
      "start": 149.225,
      "duration": 0.2907,
      "velocity": 127,
      "chip": "ym2612"
    },
    {
      "channel": 5,
      "note": 57,
      "start": 149.2252,
      "duration": 0.2906,
      "velocity": 91,
      "chip": "ym2612"
    },
    {
      "channel": 1,
      "note": 68,
      "start": 149.5568,
      "duration": 0.2907,
      "velocity": 126,
      "chip": "ym2612"
    },
    {
      "channel": 2,
      "note": 56,
      "start": 149.557,
      "duration": 0.2906,
      "velocity": 100,
      "chip": "ym2612"
    },
    {
      "channel": 3,
      "note": 45,
      "start": 149.5572,
      "duration": 0.2906,
      "velocity": 127,
      "chip": "ym2612"
    },
    {
      "channel": 4,
      "note": 33,
      "start": 149.5573,
      "duration": 0.2906,
      "velocity": 127,
      "chip": "ym2612"
    },
    {
      "channel": 5,
      "note": 56,
      "start": 149.5575,
      "duration": 0.2905,
      "velocity": 91,
      "chip": "ym2612"
    },
    {
      "channel": 1,
      "note": 61,
      "start": 149.8892,
      "duration": 0.0692,
      "velocity": 126,
      "chip": "ym2612"
    },
    {
      "channel": 2,
      "note": 49,
      "start": 149.8894,
      "duration": 0.0691,
      "velocity": 100,
      "chip": "ym2612"
    },
    {
      "channel": 4,
      "note": 33,
      "start": 149.8895,
      "duration": 0.0691,
      "velocity": 127,
      "chip": "ym2612"
    },
    {
      "channel": 5,
      "note": 49,
      "start": 149.8897,
      "duration": 0.069,
      "velocity": 91,
      "chip": "ym2612"
    },
    {
      "channel": 1,
      "note": 61,
      "start": 149.9722,
      "duration": 0.0692,
      "velocity": 126,
      "chip": "ym2612"
    },
    {
      "channel": 2,
      "note": 49,
      "start": 149.9723,
      "duration": 0.0691,
      "velocity": 100,
      "chip": "ym2612"
    },
    {
      "channel": 4,
      "note": 33,
      "start": 149.9724,
      "duration": 0.0692,
      "velocity": 127,
      "chip": "ym2612"
    },
    {
      "channel": 5,
      "note": 49,
      "start": 149.9726,
      "duration": 0.0692,
      "velocity": 91,
      "chip": "ym2612"
    },
    {
      "channel": 1,
      "note": 61,
      "start": 150.0552,
      "duration": 0.0692,
      "velocity": 126,
      "chip": "ym2612"
    },
    {
      "channel": 2,
      "note": 49,
      "start": 150.0553,
      "duration": 0.0692,
      "velocity": 100,
      "chip": "ym2612"
    },
    {
      "channel": 4,
      "note": 33,
      "start": 150.0554,
      "duration": 0.0693,
      "velocity": 127,
      "chip": "ym2612"
    },
    {
      "channel": 5,
      "note": 49,
      "start": 150.0556,
      "duration": 0.0693,
      "velocity": 91,
      "chip": "ym2612"
    },
    {
      "channel": 1,
      "note": 61,
      "start": 150.1383,
      "duration": 0.0692,
      "velocity": 126,
      "chip": "ym2612"
    },
    {
      "channel": 2,
      "note": 49,
      "start": 150.1384,
      "duration": 0.0692,
      "velocity": 100,
      "chip": "ym2612"
    },
    {
      "channel": 4,
      "note": 68,
      "start": 150.14,
      "duration": 0.0677,
      "velocity": 127,
      "chip": "ym2612"
    },
    {
      "channel": 5,
      "note": 49,
      "start": 150.1401,
      "duration": 0.0678,
      "velocity": 91,
      "chip": "ym2612"
    },
    {
      "channel": 1,
      "note": 61,
      "start": 150.2214,
      "duration": 0.0691,
      "velocity": 126,
      "chip": "ym2612"
    },
    {
      "channel": 2,
      "note": 49,
      "start": 150.2215,
      "duration": 0.0692,
      "velocity": 100,
      "chip": "ym2612"
    },
    {
      "channel": 4,
      "note": 33,
      "start": 150.2231,
      "duration": 0.0676,
      "velocity": 127,
      "chip": "ym2612"
    },
    {
      "channel": 5,
      "note": 49,
      "start": 150.2233,
      "duration": 0.0676,
      "velocity": 91,
      "chip": "ym2612"
    },
    {
      "channel": 1,
      "note": 61,
      "start": 150.3044,
      "duration": 0.0692,
      "velocity": 126,
      "chip": "ym2612"
    },
    {
      "channel": 2,
      "note": 49,
      "start": 150.3046,
      "duration": 0.0691,
      "velocity": 100,
      "chip": "ym2612"
    },
    {
      "channel": 4,
      "note": 33,
      "start": 150.3047,
      "duration": 0.0692,
      "velocity": 127,
      "chip": "ym2612"
    },
    {
      "channel": 5,
      "note": 49,
      "start": 150.3048,
      "duration": 0.0692,
      "velocity": 91,
      "chip": "ym2612"
    },
    {
      "channel": 1,
      "note": 61,
      "start": 150.3874,
      "duration": 0.0692,
      "velocity": 126,
      "chip": "ym2612"
    },
    {
      "channel": 2,
      "note": 49,
      "start": 150.3876,
      "duration": 0.0692,
      "velocity": 100,
      "chip": "ym2612"
    },
    {
      "channel": 4,
      "note": 33,
      "start": 150.3877,
      "duration": 0.0692,
      "velocity": 127,
      "chip": "ym2612"
    },
    {
      "channel": 5,
      "note": 49,
      "start": 150.3878,
      "duration": 0.0692,
      "velocity": 91,
      "chip": "ym2612"
    },
    {
      "channel": 1,
      "note": 61,
      "start": 150.4705,
      "duration": 0.0692,
      "velocity": 126,
      "chip": "ym2612"
    },
    {
      "channel": 2,
      "note": 49,
      "start": 150.4707,
      "duration": 0.0692,
      "velocity": 100,
      "chip": "ym2612"
    },
    {
      "channel": 4,
      "note": 68,
      "start": 150.4723,
      "duration": 0.0677,
      "velocity": 127,
      "chip": "ym2612"
    },
    {
      "channel": 5,
      "note": 49,
      "start": 150.4724,
      "duration": 0.0677,
      "velocity": 91,
      "chip": "ym2612"
    },
    {
      "channel": 1,
      "note": 61,
      "start": 150.5535,
      "duration": 0.0692,
      "velocity": 126,
      "chip": "ym2612"
    },
    {
      "channel": 2,
      "note": 49,
      "start": 150.5537,
      "duration": 0.0692,
      "velocity": 100,
      "chip": "ym2612"
    },
    {
      "channel": 4,
      "note": 33,
      "start": 150.5553,
      "duration": 0.0677,
      "velocity": 127,
      "chip": "ym2612"
    },
    {
      "channel": 5,
      "note": 49,
      "start": 150.5554,
      "duration": 0.0677,
      "velocity": 91,
      "chip": "ym2612"
    },
    {
      "channel": 1,
      "note": 61,
      "start": 150.6366,
      "duration": 0.0693,
      "velocity": 126,
      "chip": "ym2612"
    },
    {
      "channel": 2,
      "note": 49,
      "start": 150.6368,
      "duration": 0.0693,
      "velocity": 100,
      "chip": "ym2612"
    },
    {
      "channel": 4,
      "note": 33,
      "start": 150.6369,
      "duration": 0.0693,
      "velocity": 127,
      "chip": "ym2612"
    },
    {
      "channel": 5,
      "note": 49,
      "start": 150.637,
      "duration": 0.0693,
      "velocity": 91,
      "chip": "ym2612"
    },
    {
      "channel": 1,
      "note": 61,
      "start": 150.7199,
      "duration": 0.069,
      "velocity": 126,
      "chip": "ym2612"
    },
    {
      "channel": 2,
      "note": 49,
      "start": 150.72,
      "duration": 0.069,
      "velocity": 100,
      "chip": "ym2612"
    },
    {
      "channel": 4,
      "note": 33,
      "start": 150.7201,
      "duration": 0.069,
      "velocity": 127,
      "chip": "ym2612"
    },
    {
      "channel": 5,
      "note": 49,
      "start": 150.7203,
      "duration": 0.069,
      "velocity": 91,
      "chip": "ym2612"
    },
    {
      "channel": 1,
      "note": 61,
      "start": 150.8032,
      "duration": 0.0688,
      "velocity": 126,
      "chip": "ym2612"
    },
    {
      "channel": 2,
      "note": 49,
      "start": 150.8033,
      "duration": 0.0688,
      "velocity": 100,
      "chip": "ym2612"
    },
    {
      "channel": 4,
      "note": 68,
      "start": 150.8049,
      "duration": 0.0673,
      "velocity": 127,
      "chip": "ym2612"
    },
    {
      "channel": 5,
      "note": 49,
      "start": 150.8051,
      "duration": 0.0673,
      "velocity": 91,
      "chip": "ym2612"
    },
    {
      "channel": 1,
      "note": 61,
      "start": 150.8859,
      "duration": 0.0691,
      "velocity": 126,
      "chip": "ym2612"
    },
    {
      "channel": 2,
      "note": 49,
      "start": 150.8864,
      "duration": 0.0688,
      "velocity": 100,
      "chip": "ym2612"
    },
    {
      "channel": 4,
      "note": 33,
      "start": 150.888,
      "duration": 0.0673,
      "velocity": 127,
      "chip": "ym2612"
    },
    {
      "channel": 5,
      "note": 49,
      "start": 150.8881,
      "duration": 0.0674,
      "velocity": 91,
      "chip": "ym2612"
    },
    {
      "channel": 1,
      "note": 61,
      "start": 150.9689,
      "duration": 0.0692,
      "velocity": 126,
      "chip": "ym2612"
    },
    {
      "channel": 2,
      "note": 49,
      "start": 150.969,
      "duration": 0.0692,
      "velocity": 100,
      "chip": "ym2612"
    },
    {
      "channel": 4,
      "note": 33,
      "start": 150.9692,
      "duration": 0.0692,
      "velocity": 127,
      "chip": "ym2612"
    },
    {
      "channel": 5,
      "note": 49,
      "start": 150.9696,
      "duration": 0.0688,
      "velocity": 91,
      "chip": "ym2612"
    },
    {
      "channel": 1,
      "note": 61,
      "start": 151.052,
      "duration": 0.0692,
      "velocity": 126,
      "chip": "ym2612"
    },
    {
      "channel": 2,
      "note": 49,
      "start": 151.0521,
      "duration": 0.0692,
      "velocity": 100,
      "chip": "ym2612"
    },
    {
      "channel": 4,
      "note": 33,
      "start": 151.0522,
      "duration": 0.0692,
      "velocity": 127,
      "chip": "ym2612"
    },
    {
      "channel": 5,
      "note": 49,
      "start": 151.0523,
      "duration": 0.0692,
      "velocity": 91,
      "chip": "ym2612"
    },
    {
      "channel": 1,
      "note": 61,
      "start": 151.135,
      "duration": 0.0692,
      "velocity": 126,
      "chip": "ym2612"
    },
    {
      "channel": 2,
      "note": 49,
      "start": 151.1351,
      "duration": 0.0692,
      "velocity": 100,
      "chip": "ym2612"
    },
    {
      "channel": 4,
      "note": 68,
      "start": 151.1372,
      "duration": 0.0673,
      "velocity": 127,
      "chip": "ym2612"
    },
    {
      "channel": 5,
      "note": 49,
      "start": 151.1373,
      "duration": 0.0673,
      "velocity": 91,
      "chip": "ym2612"
    },
    {
      "channel": 1,
      "note": 71,
      "start": 151.2182,
      "duration": 0.2907,
      "velocity": 126,
      "chip": "ym2612"
    },
    {
      "channel": 2,
      "note": 59,
      "start": 151.2184,
      "duration": 0.2906,
      "velocity": 100,
      "chip": "ym2612"
    },
    {
      "channel": 3,
      "note": 45,
      "start": 151.2185,
      "duration": 0.2906,
      "velocity": 127,
      "chip": "ym2612"
    },
    {
      "channel": 4,
      "note": 33,
      "start": 151.2205,
      "duration": 0.2887,
      "velocity": 127,
      "chip": "ym2612"
    },
    {
      "channel": 5,
      "note": 59,
      "start": 151.2207,
      "duration": 0.2886,
      "velocity": 91,
      "chip": "ym2612"
    },
    {
      "channel": 1,
      "note": 70,
      "start": 151.5504,
      "duration": 0.2906,
      "velocity": 126,
      "chip": "ym2612"
    },
    {
      "channel": 2,
      "note": 58,
      "start": 151.5506,
      "duration": 0.2906,
      "velocity": 100,
      "chip": "ym2612"
    },
    {
      "channel": 3,
      "note": 45,
      "start": 151.5507,
      "duration": 0.2906,
      "velocity": 127,
      "chip": "ym2612"
    },
    {
      "channel": 4,
      "note": 33,
      "start": 151.5509,
      "duration": 0.2906,
      "velocity": 127,
      "chip": "ym2612"
    },
    {
      "channel": 5,
      "note": 58,
      "start": 151.5511,
      "duration": 0.2905,
      "velocity": 91,
      "chip": "ym2612"
    },
    {
      "channel": 1,
      "note": 69,
      "start": 151.8826,
      "duration": 0.2907,
      "velocity": 126,
      "chip": "ym2612"
    },
    {
      "channel": 2,
      "note": 57,
      "start": 151.8828,
      "duration": 0.2906,
      "velocity": 100,
      "chip": "ym2612"
    },
    {
      "channel": 3,
      "note": 45,
      "start": 151.8829,
      "duration": 0.2907,
      "velocity": 127,
      "chip": "ym2612"
    },
    {
      "channel": 4,
      "note": 33,
      "start": 151.8831,
      "duration": 0.2906,
      "velocity": 127,
      "chip": "ym2612"
    },
    {
      "channel": 5,
      "note": 57,
      "start": 151.8832,
      "duration": 0.2906,
      "velocity": 91,
      "chip": "ym2612"
    },
    {
      "channel": 1,
      "note": 72,
      "start": 152.2149,
      "duration": 0.2907,
      "velocity": 126,
      "chip": "ym2612"
    },
    {
      "channel": 2,
      "note": 60,
      "start": 152.2151,
      "duration": 0.2907,
      "velocity": 100,
      "chip": "ym2612"
    },
    {
      "channel": 3,
      "note": 45,
      "start": 152.2152,
      "duration": 0.2906,
      "velocity": 127,
      "chip": "ym2612"
    },
    {
      "channel": 4,
      "note": 33,
      "start": 152.2153,
      "duration": 0.2907,
      "velocity": 127,
      "chip": "ym2612"
    },
    {
      "channel": 5,
      "note": 60,
      "start": 152.2155,
      "duration": 0.2906,
      "velocity": 91,
      "chip": "ym2612"
    },
    {
      "channel": 1,
      "note": 73,
      "start": 152.5472,
      "duration": 0.0691,
      "velocity": 126,
      "chip": "ym2612"
    },
    {
      "channel": 2,
      "note": 61,
      "start": 152.5474,
      "duration": 0.0691,
      "velocity": 100,
      "chip": "ym2612"
    },
    {
      "channel": 4,
      "note": 64,
      "start": 152.5491,
      "duration": 0.0535,
      "velocity": 127,
      "chip": "ym2612"
    },
    {
      "channel": 5,
      "note": 61,
      "start": 152.5493,
      "duration": 0.0674,
      "velocity": 91,
      "chip": "ym2612"
    },
    {
      "channel": 4,
      "note": 61,
      "start": 152.603,
      "duration": 0.0548,
      "velocity": 127,
      "chip": "ym2612"
    },
    {
      "channel": 1,
      "note": 73,
      "start": 152.6301,
      "duration": 0.0693,
      "velocity": 126,
      "chip": "ym2612"
    },
    {
      "channel": 2,
      "note": 61,
      "start": 152.6302,
      "duration": 0.0693,
      "velocity": 100,
      "chip": "ym2612"
    },
    {
      "channel": 5,
      "note": 61,
      "start": 152.6305,
      "duration": 0.0692,
      "velocity": 91,
      "chip": "ym2612"
    },
    {
      "channel": 4,
      "note": 57,
      "start": 152.658,
      "duration": 0.0555,
      "velocity": 127,
      "chip": "ym2612"
    },
    {
      "channel": 1,
      "note": 73,
      "start": 152.7133,
      "duration": 0.0692,
      "velocity": 126,
      "chip": "ym2612"
    },
    {
      "channel": 2,
      "note": 61,
      "start": 152.7134,
      "duration": 0.0691,
      "velocity": 100,
      "chip": "ym2612"
    },
    {
      "channel": 4,
      "note": 64,
      "start": 152.7137,
      "duration": 0.055,
      "velocity": 127,
      "chip": "ym2612"
    },
    {
      "channel": 5,
      "note": 61,
      "start": 152.7138,
      "duration": 0.069,
      "velocity": 91,
      "chip": "ym2612"
    },
    {
      "channel": 4,
      "note": 61,
      "start": 152.7688,
      "duration": 0.0553,
      "velocity": 127,
      "chip": "ym2612"
    },
    {
      "channel": 1,
      "note": 73,
      "start": 152.7963,
      "duration": 0.0692,
      "velocity": 126,
      "chip": "ym2612"
    },
    {
      "channel": 2,
      "note": 61,
      "start": 152.7964,
      "duration": 0.0692,
      "velocity": 100,
      "chip": "ym2612"
    },
    {
      "channel": 5,
      "note": 61,
      "start": 152.7966,
      "duration": 0.0692,
      "velocity": 91,
      "chip": "ym2612"
    },
    {
      "channel": 4,
      "note": 57,
      "start": 152.8241,
      "duration": 0.0555,
      "velocity": 127,
      "chip": "ym2612"
    },
    {
      "channel": 1,
      "note": 73,
      "start": 152.8794,
      "duration": 0.0692,
      "velocity": 126,
      "chip": "ym2612"
    },
    {
      "channel": 2,
      "note": 61,
      "start": 152.8795,
      "duration": 0.0692,
      "velocity": 100,
      "chip": "ym2612"
    },
    {
      "channel": 4,
      "note": 64,
      "start": 152.8798,
      "duration": 0.055,
      "velocity": 127,
      "chip": "ym2612"
    },
    {
      "channel": 5,
      "note": 61,
      "start": 152.8799,
      "duration": 0.069,
      "velocity": 91,
      "chip": "ym2612"
    },
    {
      "channel": 4,
      "note": 61,
      "start": 152.9349,
      "duration": 0.0552,
      "velocity": 127,
      "chip": "ym2612"
    },
    {
      "channel": 1,
      "note": 73,
      "start": 152.9624,
      "duration": 0.0693,
      "velocity": 126,
      "chip": "ym2612"
    },
    {
      "channel": 2,
      "note": 61,
      "start": 152.9625,
      "duration": 0.0693,
      "velocity": 100,
      "chip": "ym2612"
    },
    {
      "channel": 5,
      "note": 61,
      "start": 152.9627,
      "duration": 0.0692,
      "velocity": 91,
      "chip": "ym2612"
    },
    {
      "channel": 4,
      "note": 57,
      "start": 152.9902,
      "duration": 0.0555,
      "velocity": 127,
      "chip": "ym2612"
    },
    {
      "channel": 1,
      "note": 73,
      "start": 153.0455,
      "duration": 0.0691,
      "velocity": 126,
      "chip": "ym2612"
    },
    {
      "channel": 2,
      "note": 61,
      "start": 153.0456,
      "duration": 0.0692,
      "velocity": 100,
      "chip": "ym2612"
    },
    {
      "channel": 4,
      "note": 64,
      "start": 153.0459,
      "duration": 0.0549,
      "velocity": 127,
      "chip": "ym2612"
    },
    {
      "channel": 5,
      "note": 61,
      "start": 153.046,
      "duration": 0.0689,
      "velocity": 91,
      "chip": "ym2612"
    },
    {
      "channel": 4,
      "note": 61,
      "start": 153.1009,
      "duration": 0.0554,
      "velocity": 127,
      "chip": "ym2612"
    },
    {
      "channel": 1,
      "note": 73,
      "start": 153.1285,
      "duration": 0.0692,
      "velocity": 126,
      "chip": "ym2612"
    },
    {
      "channel": 2,
      "note": 61,
      "start": 153.1287,
      "duration": 0.0692,
      "velocity": 100,
      "chip": "ym2612"
    },
    {
      "channel": 5,
      "note": 61,
      "start": 153.1289,
      "duration": 0.0691,
      "velocity": 91,
      "chip": "ym2612"
    },
    {
      "channel": 4,
      "note": 57,
      "start": 153.1564,
      "duration": 0.0555,
      "velocity": 127,
      "chip": "ym2612"
    },
    {
      "channel": 1,
      "note": 73,
      "start": 153.2116,
      "duration": 0.0692,
      "velocity": 126,
      "chip": "ym2612"
    },
    {
      "channel": 2,
      "note": 61,
      "start": 153.2117,
      "duration": 0.0692,
      "velocity": 100,
      "chip": "ym2612"
    },
    {
      "channel": 4,
      "note": 64,
      "start": 153.212,
      "duration": 0.055,
      "velocity": 127,
      "chip": "ym2612"
    },
    {
      "channel": 5,
      "note": 61,
      "start": 153.2121,
      "duration": 0.069,
      "velocity": 91,
      "chip": "ym2612"
    },
    {
      "channel": 4,
      "note": 61,
      "start": 153.2672,
      "duration": 0.0552,
      "velocity": 127,
      "chip": "ym2612"
    },
    {
      "channel": 1,
      "note": 73,
      "start": 153.2946,
      "duration": 0.0693,
      "velocity": 126,
      "chip": "ym2612"
    },
    {
      "channel": 2,
      "note": 61,
      "start": 153.2948,
      "duration": 0.0693,
      "velocity": 100,
      "chip": "ym2612"
    },
    {
      "channel": 5,
      "note": 61,
      "start": 153.2949,
      "duration": 0.0692,
      "velocity": 91,
      "chip": "ym2612"
    },
    {
      "channel": 4,
      "note": 57,
      "start": 153.3225,
      "duration": 0.0555,
      "velocity": 127,
      "chip": "ym2612"
    },
    {
      "channel": 1,
      "note": 73,
      "start": 153.3777,
      "duration": 0.0692,
      "velocity": 126,
      "chip": "ym2612"
    },
    {
      "channel": 2,
      "note": 61,
      "start": 153.3778,
      "duration": 0.0692,
      "velocity": 100,
      "chip": "ym2612"
    },
    {
      "channel": 4,
      "note": 64,
      "start": 153.3781,
      "duration": 0.055,
      "velocity": 127,
      "chip": "ym2612"
    },
    {
      "channel": 5,
      "note": 61,
      "start": 153.3782,
      "duration": 0.069,
      "velocity": 91,
      "chip": "ym2612"
    },
    {
      "channel": 4,
      "note": 61,
      "start": 153.4332,
      "duration": 0.0552,
      "velocity": 127,
      "chip": "ym2612"
    },
    {
      "channel": 1,
      "note": 73,
      "start": 153.4608,
      "duration": 0.0692,
      "velocity": 126,
      "chip": "ym2612"
    },
    {
      "channel": 2,
      "note": 61,
      "start": 153.4609,
      "duration": 0.0692,
      "velocity": 100,
      "chip": "ym2612"
    },
    {
      "channel": 5,
      "note": 61,
      "start": 153.4611,
      "duration": 0.0691,
      "velocity": 91,
      "chip": "ym2612"
    },
    {
      "channel": 4,
      "note": 57,
      "start": 153.4886,
      "duration": 0.0569,
      "velocity": 127,
      "chip": "ym2612"
    },
    {
      "channel": 1,
      "note": 73,
      "start": 153.5439,
      "duration": 0.0692,
      "velocity": 126,
      "chip": "ym2612"
    },
    {
      "channel": 2,
      "note": 61,
      "start": 153.544,
      "duration": 0.0692,
      "velocity": 100,
      "chip": "ym2612"
    },
    {
      "channel": 4,
      "note": 68,
      "start": 153.5457,
      "duration": 0.0676,
      "velocity": 127,
      "chip": "ym2612"
    },
    {
      "channel": 5,
      "note": 61,
      "start": 153.5459,
      "duration": 0.0676,
      "velocity": 91,
      "chip": "ym2612"
    },
    {
      "channel": 1,
      "note": 73,
      "start": 153.627,
      "duration": 0.0692,
      "velocity": 126,
      "chip": "ym2612"
    },
    {
      "channel": 2,
      "note": 61,
      "start": 153.6271,
      "duration": 0.0692,
      "velocity": 100,
      "chip": "ym2612"
    },
    {
      "channel": 4,
      "note": 68,
      "start": 153.6272,
      "duration": 0.0692,
      "velocity": 127,
      "chip": "ym2612"
    },
    {
      "channel": 5,
      "note": 61,
      "start": 153.6273,
      "duration": 0.0692,
      "velocity": 91,
      "chip": "ym2612"
    },
    {
      "channel": 1,
      "note": 73,
      "start": 153.71,
      "duration": 0.0692,
      "velocity": 126,
      "chip": "ym2612"
    },
    {
      "channel": 2,
      "note": 61,
      "start": 153.7102,
      "duration": 0.0692,
      "velocity": 100,
      "chip": "ym2612"
    },
    {
      "channel": 4,
      "note": 68,
      "start": 153.7103,
      "duration": 0.0692,
      "velocity": 127,
      "chip": "ym2612"
    },
    {
      "channel": 5,
      "note": 61,
      "start": 153.7104,
      "duration": 0.0692,
      "velocity": 91,
      "chip": "ym2612"
    },
    {
      "channel": 1,
      "note": 73,
      "start": 153.793,
      "duration": 0.0692,
      "velocity": 126,
      "chip": "ym2612"
    },
    {
      "channel": 2,
      "note": 61,
      "start": 153.7932,
      "duration": 0.0692,
      "velocity": 100,
      "chip": "ym2612"
    },
    {
      "channel": 4,
      "note": 68,
      "start": 153.7933,
      "duration": 0.0692,
      "velocity": 127,
      "chip": "ym2612"
    },
    {
      "channel": 5,
      "note": 61,
      "start": 153.7934,
      "duration": 0.0692,
      "velocity": 91,
      "chip": "ym2612"
    },
    {
      "channel": 1,
      "note": 61,
      "start": 153.8762,
      "duration": 0.228,
      "velocity": 126,
      "chip": "ym2612"
    },
    {
      "channel": 2,
      "note": 49,
      "start": 153.8764,
      "duration": 0.2278,
      "velocity": 100,
      "chip": "ym2612"
    },
    {
      "channel": 4,
      "note": 33,
      "start": 153.878,
      "duration": 0.0673,
      "velocity": 127,
      "chip": "ym2612"
    },
    {
      "channel": 5,
      "note": 49,
      "start": 153.8782,
      "duration": 0.0672,
      "velocity": 91,
      "chip": "ym2612"
    },
    {
      "channel": 4,
      "note": 33,
      "start": 153.9592,
      "duration": 0.0692,
      "velocity": 127,
      "chip": "ym2612"
    },
    {
      "channel": 5,
      "note": 49,
      "start": 153.9593,
      "duration": 0.0692,
      "velocity": 91,
      "chip": "ym2612"
    },
    {
      "channel": 4,
      "note": 33,
      "start": 154.0423,
      "duration": 0.0619,
      "velocity": 127,
      "chip": "ym2612"
    },
    {
      "channel": 5,
      "note": 49,
      "start": 154.0424,
      "duration": 0.0617,
      "velocity": 91,
      "chip": "ym2612"
    }
  ]
}