{
  "track_name": "12 - The Ticket Office 2 ()",
  "duration_sec": 289.511,
  "sample_rate": 44100,
  "note_count": 1696,
  "unique_pitches": 47,
  "pitch_range": 59,
  "avg_note_duration": 0.701,
  "reconstruction_stats": {
    "notes_reconstructed": 1696,
    "keyon_events": 1696,
    "keyoff_events": 1692,
    "orphan_keyons": 4,
    "unique_pitches": 47,
    "pitch_range": 59,
    "avg_duration_sec": 0.701
  },
  "metadata": {
    "source": "N\\Nightmare Circus\\12 - The Ticket Office 2 ().vgz"
  },
  "notes": [
    {
      "channel": 0,
      "note": 36,
      "start": 0.0,
      "duration": 2.5383,
      "velocity": 99,
      "chip": "ym2612"
    },
    {
      "channel": 1,
      "note": 41,
      "start": 0.0,
      "duration": 2.5385,
      "velocity": 99,
      "chip": "ym2612"
    },
    {
      "channel": 3,
      "note": 33,
      "start": 0.0086,
      "duration": 2.53,
      "velocity": 92,
      "chip": "ym2612"
    },
    {
      "channel": 4,
      "note": 37,
      "start": 0.3082,
      "duration": 0.1304,
      "velocity": 124,
      "chip": "ym2612"
    },
    {
      "channel": 4,
      "note": 31,
      "start": 0.6252,
      "duration": 0.1468,
      "velocity": 124,
      "chip": "ym2612"
    },
    {
      "channel": 4,
      "note": 37,
      "start": 1.2749,
      "duration": 0.1304,
      "velocity": 124,
      "chip": "ym2612"
    },
    {
      "channel": 4,
      "note": 31,
      "start": 1.6081,
      "duration": 0.1305,
      "velocity": 124,
      "chip": "ym2612"
    },
    {
      "channel": 4,
      "note": 37,
      "start": 2.2581,
      "duration": 0.1305,
      "velocity": 124,
      "chip": "ym2612"
    },
    {
      "channel": 0,
      "note": 36,
      "start": 2.5758,
      "duration": 2.5627,
      "velocity": 99,
      "chip": "ym2612"
    },
    {
      "channel": 1,
      "note": 41,
      "start": 2.5786,
      "duration": 2.56,
      "velocity": 99,
      "chip": "ym2612"
    },
    {
      "channel": 4,
      "note": 31,
      "start": 2.5813,
      "duration": 0.1241,
      "velocity": 124,
      "chip": "ym2612"
    },
    {
      "channel": 4,
      "note": 37,
      "start": 3.2252,
      "duration": 0.1302,
      "velocity": 124,
      "chip": "ym2612"
    },
    {
      "channel": 4,
      "note": 31,
      "start": 3.5419,
      "duration": 0.147,
      "velocity": 124,
      "chip": "ym2612"
    },
    {
      "channel": 4,
      "note": 37,
      "start": 4.1918,
      "duration": 0.1302,
      "velocity": 124,
      "chip": "ym2612"
    },
    {
      "channel": 4,
      "note": 31,
      "start": 4.5255,
      "duration": 0.13,
      "velocity": 124,
      "chip": "ym2612"
    },
    {
      "channel": 0,
      "note": 36,
      "start": 5.1761,
      "duration": 2.5623,
      "velocity": 99,
      "chip": "ym2612"
    },
    {
      "channel": 1,
      "note": 41,
      "start": 5.1788,
      "duration": 2.5597,
      "velocity": 99,
      "chip": "ym2612"
    },
    {
      "channel": 4,
      "note": 37,
      "start": 5.1815,
      "duration": 0.1239,
      "velocity": 124,
      "chip": "ym2612"
    },
    {
      "channel": 3,
      "note": 33,
      "start": 5.1859,
      "duration": 2.5527,
      "velocity": 92,
      "chip": "ym2612"
    },
    {
      "channel": 4,
      "note": 31,
      "start": 5.4917,
      "duration": 0.1303,
      "velocity": 124,
      "chip": "ym2612"
    },
    {
      "channel": 4,
      "note": 37,
      "start": 6.1417,
      "duration": 0.1303,
      "velocity": 124,
      "chip": "ym2612"
    },
    {
      "channel": 4,
      "note": 31,
      "start": 6.4583,
      "duration": 0.1469,
      "velocity": 124,
      "chip": "ym2612"
    },
    {
      "channel": 4,
      "note": 37,
      "start": 7.1083,
      "duration": 0.1303,
      "velocity": 124,
      "chip": "ym2612"
    },
    {
      "channel": 4,
      "note": 31,
      "start": 7.4414,
      "duration": 0.1306,
      "velocity": 124,
      "chip": "ym2612"
    },
    {
      "channel": 0,
      "note": 36,
      "start": 7.7592,
      "duration": 2.5628,
      "velocity": 99,
      "chip": "ym2612"
    },
    {
      "channel": 1,
      "note": 41,
      "start": 7.762,
      "duration": 2.5601,
      "velocity": 99,
      "chip": "ym2612"
    },
    {
      "channel": 4,
      "note": 37,
      "start": 8.0919,
      "duration": 0.1302,
      "velocity": 124,
      "chip": "ym2612"
    },
    {
      "channel": 4,
      "note": 31,
      "start": 8.4084,
      "duration": 0.1304,
      "velocity": 124,
      "chip": "ym2612"
    },
    {
      "channel": 4,
      "note": 37,
      "start": 9.0586,
      "duration": 0.1302,
      "velocity": 124,
      "chip": "ym2612"
    },
    {
      "channel": 4,
      "note": 31,
      "start": 9.3751,
      "duration": 0.1469,
      "velocity": 124,
      "chip": "ym2612"
    },
    {
      "channel": 4,
      "note": 37,
      "start": 10.0251,
      "duration": 0.1305,
      "velocity": 124,
      "chip": "ym2612"
    },
    {
      "channel": 0,
      "note": 36,
      "start": 10.3593,
      "duration": 2.5625,
      "velocity": 99,
      "chip": "ym2612"
    },
    {
      "channel": 1,
      "note": 41,
      "start": 10.362,
      "duration": 2.5599,
      "velocity": 99,
      "chip": "ym2612"
    },
    {
      "channel": 4,
      "note": 31,
      "start": 10.3651,
      "duration": 0.1236,
      "velocity": 124,
      "chip": "ym2612"
    },
    {
      "channel": 3,
      "note": 33,
      "start": 10.3691,
      "duration": 2.5529,
      "velocity": 92,
      "chip": "ym2612"
    },
    {
      "channel": 4,
      "note": 37,
      "start": 11.0083,
      "duration": 0.1303,
      "velocity": 124,
      "chip": "ym2612"
    },
    {
      "channel": 4,
      "note": 31,
      "start": 11.3249,
      "duration": 0.1304,
      "velocity": 124,
      "chip": "ym2612"
    },
    {
      "channel": 4,
      "note": 37,
      "start": 11.9749,
      "duration": 0.1304,
      "velocity": 124,
      "chip": "ym2612"
    },
    {
      "channel": 4,
      "note": 31,
      "start": 12.2915,
      "duration": 0.147,
      "velocity": 124,
      "chip": "ym2612"
    },
    {
      "channel": 0,
      "note": 36,
      "start": 12.9424,
      "duration": 2.5627,
      "velocity": 99,
      "chip": "ym2612"
    },
    {
      "channel": 1,
      "note": 41,
      "start": 12.9451,
      "duration": 2.5602,
      "velocity": 99,
      "chip": "ym2612"
    },
    {
      "channel": 4,
      "note": 37,
      "start": 12.9479,
      "duration": 0.1242,
      "velocity": 124,
      "chip": "ym2612"
    },
    {
      "channel": 4,
      "note": 31,
      "start": 13.2751,
      "duration": 0.1303,
      "velocity": 124,
      "chip": "ym2612"
    },
    {
      "channel": 4,
      "note": 37,
      "start": 13.9252,
      "duration": 0.1303,
      "velocity": 124,
      "chip": "ym2612"
    },
    {
      "channel": 4,
      "note": 31,
      "start": 14.2422,
      "duration": 0.1298,
      "velocity": 124,
      "chip": "ym2612"
    },
    {
      "channel": 4,
      "note": 37,
      "start": 14.8918,
      "duration": 0.1304,
      "velocity": 124,
      "chip": "ym2612"
    },
    {
      "channel": 4,
      "note": 31,
      "start": 15.2083,
      "duration": 0.1305,
      "velocity": 124,
      "chip": "ym2612"
    },
    {
      "channel": 0,
      "note": 36,
      "start": 15.5425,
      "duration": 2.5625,
      "velocity": 99,
      "chip": "ym2612"
    },
    {
      "channel": 1,
      "note": 41,
      "start": 15.5453,
      "duration": 2.5599,
      "velocity": 99,
      "chip": "ym2612"
    },
    {
      "channel": 3,
      "note": 33,
      "start": 15.5514,
      "duration": 2.5539,
      "velocity": 92,
      "chip": "ym2612"
    },
    {
      "channel": 4,
      "note": 37,
      "start": 15.8583,
      "duration": 0.1303,
      "velocity": 124,
      "chip": "ym2612"
    },
    {
      "channel": 4,
      "note": 31,
      "start": 16.1917,
      "duration": 0.1303,
      "velocity": 124,
      "chip": "ym2612"
    },
    {
      "channel": 4,
      "note": 37,
      "start": 16.8416,
      "duration": 0.1303,
      "velocity": 124,
      "chip": "ym2612"
    },
    {
      "channel": 4,
      "note": 31,
      "start": 17.1582,
      "duration": 0.1304,
      "velocity": 124,
      "chip": "ym2612"
    },
    {
      "channel": 4,
      "note": 37,
      "start": 17.8081,
      "duration": 0.1305,
      "velocity": 124,
      "chip": "ym2612"
    },
    {
      "channel": 0,
      "note": 36,
      "start": 18.1258,
      "duration": 2.5628,
      "velocity": 99,
      "chip": "ym2612"
    },
    {
      "channel": 1,
      "note": 41,
      "start": 18.1285,
      "duration": 2.5602,
      "velocity": 99,
      "chip": "ym2612"
    },
    {
      "channel": 4,
      "note": 31,
      "start": 18.1316,
      "duration": 0.1239,
      "velocity": 124,
      "chip": "ym2612"
    },
    {
      "channel": 4,
      "note": 37,
      "start": 18.7752,
      "duration": 0.1303,
      "velocity": 124,
      "chip": "ym2612"
    },
    {
      "channel": 4,
      "note": 31,
      "start": 19.1085,
      "duration": 0.1302,
      "velocity": 124,
      "chip": "ym2612"
    },
    {
      "channel": 4,
      "note": 37,
      "start": 19.7584,
      "duration": 0.1304,
      "velocity": 124,
      "chip": "ym2612"
    },
    {
      "channel": 4,
      "note": 31,
      "start": 20.0751,
      "duration": 0.1304,
      "velocity": 124,
      "chip": "ym2612"
    },
    {
      "channel": 0,
      "note": 36,
      "start": 20.7259,
      "duration": 2.5625,
      "velocity": 99,
      "chip": "ym2612"
    },
    {
      "channel": 1,
      "note": 41,
      "start": 20.7287,
      "duration": 2.5599,
      "velocity": 99,
      "chip": "ym2612"
    },
    {
      "channel": 4,
      "note": 37,
      "start": 20.7314,
      "duration": 0.1239,
      "velocity": 124,
      "chip": "ym2612"
    },
    {
      "channel": 3,
      "note": 33,
      "start": 20.7354,
      "duration": 2.5533,
      "velocity": 92,
      "chip": "ym2612"
    },
    {
      "channel": 5,
      "note": 59,
      "start": 20.741,
      "duration": 5.1313,
      "velocity": 90,
      "chip": "ym2612"
    },
    {
      "channel": 4,
      "note": 31,
      "start": 21.0417,
      "duration": 0.1303,
      "velocity": 124,
      "chip": "ym2612"
    },
    {
      "channel": 4,
      "note": 37,
      "start": 21.6916,
      "duration": 0.1304,
      "velocity": 124,
      "chip": "ym2612"
    },
    {
      "channel": 4,
      "note": 31,
      "start": 22.0254,
      "duration": 0.1298,
      "velocity": 124,
      "chip": "ym2612"
    },
    {
      "channel": 4,
      "note": 37,
      "start": 22.6749,
      "duration": 0.1304,
      "velocity": 124,
      "chip": "ym2612"
    },
    {
      "channel": 4,
      "note": 31,
      "start": 22.9914,
      "duration": 0.1305,
      "velocity": 124,
      "chip": "ym2612"
    },
    {
      "channel": 0,
      "note": 36,
      "start": 23.3092,
      "duration": 2.5627,
      "velocity": 99,
      "chip": "ym2612"
    },
    {
      "channel": 1,
      "note": 41,
      "start": 23.312,
      "duration": 2.5601,
      "velocity": 99,
      "chip": "ym2612"
    },
    {
      "channel": 4,
      "note": 37,
      "start": 23.6417,
      "duration": 0.1303,
      "velocity": 124,
      "chip": "ym2612"
    },
    {
      "channel": 4,
      "note": 31,
      "start": 23.9584,
      "duration": 0.1304,
      "velocity": 124,
      "chip": "ym2612"
    },
    {
      "channel": 4,
      "note": 37,
      "start": 24.6085,
      "duration": 0.1302,
      "velocity": 124,
      "chip": "ym2612"
    },
    {
      "channel": 4,
      "note": 31,
      "start": 24.9418,
      "duration": 0.1302,
      "velocity": 124,
      "chip": "ym2612"
    },
    {
      "channel": 4,
      "note": 37,
      "start": 25.5918,
      "duration": 0.1303,
      "velocity": 124,
      "chip": "ym2612"
    },
    {
      "channel": 0,
      "note": 36,
      "start": 25.9093,
      "duration": 2.5624,
      "velocity": 99,
      "chip": "ym2612"
    },
    {
      "channel": 1,
      "note": 41,
      "start": 25.912,
      "duration": 2.5599,
      "velocity": 99,
      "chip": "ym2612"
    },
    {
      "channel": 4,
      "note": 31,
      "start": 25.9151,
      "duration": 0.1236,
      "velocity": 124,
      "chip": "ym2612"
    },
    {
      "channel": 3,
      "note": 33,
      "start": 25.9191,
      "duration": 2.5529,
      "velocity": 92,
      "chip": "ym2612"
    },
    {
      "channel": 5,
      "note": 60,
      "start": 25.9236,
      "duration": 5.132,
      "velocity": 90,
      "chip": "ym2612"
    },
    {
      "channel": 4,
      "note": 37,
      "start": 26.5583,
      "duration": 0.1304,
      "velocity": 124,
      "chip": "ym2612"
    },
    {
      "channel": 4,
      "note": 31,
      "start": 26.8749,
      "duration": 0.1304,
      "velocity": 124,
      "chip": "ym2612"
    },
    {
      "channel": 4,
      "note": 37,
      "start": 27.5249,
      "duration": 0.1303,
      "velocity": 124,
      "chip": "ym2612"
    },
    {
      "channel": 4,
      "note": 31,
      "start": 27.8583,
      "duration": 0.1302,
      "velocity": 124,
      "chip": "ym2612"
    },
    {
      "channel": 0,
      "note": 36,
      "start": 28.5092,
      "duration": 2.5461,
      "velocity": 99,
      "chip": "ym2612"
    },
    {
      "channel": 1,
      "note": 41,
      "start": 28.512,
      "duration": 2.5434,
      "velocity": 99,
      "chip": "ym2612"
    },
    {
      "channel": 4,
      "note": 37,
      "start": 28.5146,
      "duration": 0.1242,
      "velocity": 124,
      "chip": "ym2612"
    },
    {
      "channel": 4,
      "note": 31,
      "start": 28.8252,
      "duration": 0.1302,
      "velocity": 124,
      "chip": "ym2612"
    },
    {
      "channel": 4,
      "note": 37,
      "start": 29.4752,
      "duration": 0.1303,
      "velocity": 124,
      "chip": "ym2612"
    },
    {
      "channel": 4,
      "note": 31,
      "start": 29.7922,
      "duration": 0.1298,
      "velocity": 124,
      "chip": "ym2612"
    },
    {
      "channel": 4,
      "note": 37,
      "start": 30.4419,
      "duration": 0.1303,
      "velocity": 124,
      "chip": "ym2612"
    },
    {
      "channel": 4,
      "note": 31,
      "start": 30.7751,
      "duration": 0.1305,
      "velocity": 124,
      "chip": "ym2612"
    },
    {
      "channel": 0,
      "note": 36,
      "start": 31.0927,
      "duration": 2.5624,
      "velocity": 99,
      "chip": "ym2612"
    },
    {
      "channel": 1,
      "note": 41,
      "start": 31.0954,
      "duration": 2.5598,
      "velocity": 99,
      "chip": "ym2612"
    },
    {
      "channel": 3,
      "note": 33,
      "start": 31.1015,
      "duration": 2.5538,
      "velocity": 92,
      "chip": "ym2612"
    },
    {
      "channel": 5,
      "note": 64,
      "start": 31.106,
      "duration": 5.1495,
      "velocity": 90,
      "chip": "ym2612"
    },
    {
      "channel": 4,
      "note": 37,
      "start": 31.4251,
      "duration": 0.1302,
      "velocity": 124,
      "chip": "ym2612"
    },
    {
      "channel": 4,
      "note": 31,
      "start": 31.7417,
      "duration": 0.1302,
      "velocity": 124,
      "chip": "ym2612"
    },
    {
      "channel": 4,
      "note": 37,
      "start": 32.3916,
      "duration": 0.1303,
      "velocity": 124,
      "chip": "ym2612"
    },
    {
      "channel": 4,
      "note": 31,
      "start": 32.7082,
      "duration": 0.1304,
      "velocity": 124,
      "chip": "ym2612"
    },
    {
      "channel": 4,
      "note": 37,
      "start": 33.3582,
      "duration": 0.1304,
      "velocity": 124,
      "chip": "ym2612"
    },
    {
      "channel": 0,
      "note": 36,
      "start": 33.6924,
      "duration": 2.5628,
      "velocity": 99,
      "chip": "ym2612"
    },
    {
      "channel": 1,
      "note": 41,
      "start": 33.6952,
      "duration": 2.5602,
      "velocity": 99,
      "chip": "ym2612"
    },
    {
      "channel": 4,
      "note": 31,
      "start": 33.6983,
      "duration": 0.1237,
      "velocity": 124,
      "chip": "ym2612"
    },
    {
      "channel": 4,
      "note": 37,
      "start": 34.3418,
      "duration": 0.1304,
      "velocity": 124,
      "chip": "ym2612"
    },
    {
      "channel": 4,
      "note": 31,
      "start": 34.6586,
      "duration": 0.1303,
      "velocity": 124,
      "chip": "ym2612"
    },
    {
      "channel": 4,
      "note": 37,
      "start": 35.3085,
      "duration": 0.1303,
      "velocity": 124,
      "chip": "ym2612"
    },
    {
      "channel": 4,
      "note": 31,
      "start": 35.6252,
      "duration": 0.1303,
      "velocity": 124,
      "chip": "ym2612"
    },
    {
      "channel": 0,
      "note": 36,
      "start": 36.2759,
      "duration": 2.5625,
      "velocity": 99,
      "chip": "ym2612"
    },
    {
      "channel": 1,
      "note": 41,
      "start": 36.2787,
      "duration": 2.5599,
      "velocity": 99,
      "chip": "ym2612"
    },
    {
      "channel": 4,
      "note": 37,
      "start": 36.2814,
      "duration": 0.124,
      "velocity": 124,
      "chip": "ym2612"
    },
    {
      "channel": 3,
      "note": 33,
      "start": 36.2854,
      "duration": 2.5532,
      "velocity": 92,
      "chip": "ym2612"
    },
    {
      "channel": 5,
      "note": 63,
      "start": 36.2899,
      "duration": 5.1491,
      "velocity": 90,
      "chip": "ym2612"
    },
    {
      "channel": 4,
      "note": 31,
      "start": 36.6083,
      "duration": 0.1303,
      "velocity": 124,
      "chip": "ym2612"
    },
    {
      "channel": 4,
      "note": 37,
      "start": 37.2583,
      "duration": 0.1304,
      "velocity": 124,
      "chip": "ym2612"
    },
    {
      "channel": 4,
      "note": 31,
      "start": 37.5754,
      "duration": 0.1298,
      "velocity": 124,
      "chip": "ym2612"
    },
    {
      "channel": 4,
      "note": 37,
      "start": 38.2249,
      "duration": 0.1304,
      "velocity": 124,
      "chip": "ym2612"
    },
    {
      "channel": 4,
      "note": 31,
      "start": 38.5415,
      "duration": 0.1304,
      "velocity": 124,
      "chip": "ym2612"
    },
    {
      "channel": 0,
      "note": 36,
      "start": 38.8758,
      "duration": 2.5629,
      "velocity": 99,
      "chip": "ym2612"
    },
    {
      "channel": 1,
      "note": 41,
      "start": 38.8785,
      "duration": 2.5602,
      "velocity": 99,
      "chip": "ym2612"
    },
    {
      "channel": 4,
      "note": 37,
      "start": 39.1917,
      "duration": 0.1303,
      "velocity": 124,
      "chip": "ym2612"
    },
    {
      "channel": 4,
      "note": 31,
      "start": 39.5251,
      "duration": 0.1304,
      "velocity": 124,
      "chip": "ym2612"
    },
    {
      "channel": 4,
      "note": 37,
      "start": 40.1752,
      "duration": 0.1302,
      "velocity": 124,
      "chip": "ym2612"
    },
    {
      "channel": 4,
      "note": 31,
      "start": 40.4917,
      "duration": 0.1303,
      "velocity": 124,
      "chip": "ym2612"
    },
    {
      "channel": 4,
      "note": 37,
      "start": 41.1419,
      "duration": 0.1303,
      "velocity": 124,
      "chip": "ym2612"
    },
    {
      "channel": 0,
      "note": 36,
      "start": 41.4602,
      "duration": 2.5615,
      "velocity": 99,
      "chip": "ym2612"
    },
    {
      "channel": 4,
      "note": 31,
      "start": 41.4633,
      "duration": 0.1254,
      "velocity": 124,
      "chip": "ym2612"
    },
    {
      "channel": 3,
      "note": 33,
      "start": 41.4673,
      "duration": 2.5545,
      "velocity": 92,
      "chip": "ym2612"
    },
    {
      "channel": 5,
      "note": 60,
      "start": 41.4724,
      "duration": 2.5328,
      "velocity": 90,
      "chip": "ym2612"
    },
    {
      "channel": 2,
      "note": 48,
      "start": 41.4788,
      "duration": 5.11,
      "velocity": 107,
      "chip": "ym2612"
    },
    {
      "channel": 4,
      "note": 37,
      "start": 42.1085,
      "duration": 0.1303,
      "velocity": 124,
      "chip": "ym2612"
    },
    {
      "channel": 4,
      "note": 31,
      "start": 42.4416,
      "duration": 0.1303,
      "velocity": 124,
      "chip": "ym2612"
    },
    {
      "channel": 4,
      "note": 37,
      "start": 43.0749,
      "duration": 0.147,
      "velocity": 124,
      "chip": "ym2612"
    },
    {
      "channel": 4,
      "note": 31,
      "start": 43.4083,
      "duration": 0.1303,
      "velocity": 124,
      "chip": "ym2612"
    },
    {
      "channel": 0,
      "note": 36,
      "start": 44.0598,
      "duration": 2.5621,
      "velocity": 99,
      "chip": "ym2612"
    },
    {
      "channel": 4,
      "note": 37,
      "start": 44.0625,
      "duration": 0.1263,
      "velocity": 124,
      "chip": "ym2612"
    },
    {
      "channel": 5,
      "note": 67,
      "start": 44.0669,
      "duration": 2.2053,
      "velocity": 90,
      "chip": "ym2612"
    },
    {
      "channel": 4,
      "note": 31,
      "start": 44.3752,
      "duration": 0.1303,
      "velocity": 124,
      "chip": "ym2612"
    },
    {
      "channel": 4,
      "note": 37,
      "start": 45.0252,
      "duration": 0.1303,
      "velocity": 124,
      "chip": "ym2612"
    },
    {
      "channel": 4,
      "note": 31,
      "start": 45.359,
      "duration": 0.1297,
      "velocity": 124,
      "chip": "ym2612"
    },
    {
      "channel": 4,
      "note": 37,
      "start": 45.9918,
      "duration": 0.1471,
      "velocity": 124,
      "chip": "ym2612"
    },
    {
      "channel": 4,
      "note": 31,
      "start": 46.325,
      "duration": 0.1305,
      "velocity": 124,
      "chip": "ym2612"
    },
    {
      "channel": 5,
      "note": 64,
      "start": 46.3285,
      "duration": 0.1602,
      "velocity": 90,
      "chip": "ym2612"
    },
    {
      "channel": 0,
      "note": 36,
      "start": 46.6429,
      "duration": 2.5622,
      "velocity": 99,
      "chip": "ym2612"
    },
    {
      "channel": 3,
      "note": 33,
      "start": 46.6491,
      "duration": 2.5562,
      "velocity": 92,
      "chip": "ym2612"
    },
    {
      "channel": 5,
      "note": 63,
      "start": 46.6535,
      "duration": 2.4018,
      "velocity": 90,
      "chip": "ym2612"
    },
    {
      "channel": 2,
      "note": 54,
      "start": 46.6601,
      "duration": 2.5285,
      "velocity": 107,
      "chip": "ym2612"
    },
    {
      "channel": 4,
      "note": 37,
      "start": 46.9749,
      "duration": 0.1303,
      "velocity": 124,
      "chip": "ym2612"
    },
    {
      "channel": 4,
      "note": 31,
      "start": 47.2917,
      "duration": 0.1303,
      "velocity": 124,
      "chip": "ym2612"
    },
    {
      "channel": 4,
      "note": 37,
      "start": 47.9417,
      "duration": 0.1302,
      "velocity": 124,
      "chip": "ym2612"
    },
    {
      "channel": 4,
      "note": 31,
      "start": 48.2749,
      "duration": 0.1302,
      "velocity": 124,
      "chip": "ym2612"
    },
    {
      "channel": 4,
      "note": 37,
      "start": 48.9083,
      "duration": 0.1469,
      "velocity": 124,
      "chip": "ym2612"
    },
    {
      "channel": 5,
      "note": 64,
      "start": 49.0755,
      "duration": 0.0464,
      "velocity": 90,
      "chip": "ym2612"
    },
    {
      "channel": 5,
      "note": 66,
      "start": 49.1252,
      "duration": 0.0633,
      "velocity": 90,
      "chip": "ym2612"
    },
    {
      "channel": 5,
      "note": 67,
      "start": 49.1919,
      "duration": 0.0467,
      "velocity": 90,
      "chip": "ym2612"
    },
    {
      "channel": 0,
      "note": 36,
      "start": 49.2429,
      "duration": 2.5624,
      "velocity": 99,
      "chip": "ym2612"
    },
    {
      "channel": 4,
      "note": 31,
      "start": 49.246,
      "duration": 0.1261,
      "velocity": 124,
      "chip": "ym2612"
    },
    {
      "channel": 5,
      "note": 69,
      "start": 49.25,
      "duration": 1.2888,
      "velocity": 90,
      "chip": "ym2612"
    },
    {
      "channel": 2,
      "note": 51,
      "start": 49.2564,
      "duration": 2.5491,
      "velocity": 107,
      "chip": "ym2612"
    },
    {
      "channel": 4,
      "note": 37,
      "start": 49.8919,
      "duration": 0.1303,
      "velocity": 124,
      "chip": "ym2612"
    },
    {
      "channel": 4,
      "note": 31,
      "start": 50.2086,
      "duration": 0.1303,
      "velocity": 124,
      "chip": "ym2612"
    },
    {
      "channel": 5,
      "note": 66,
      "start": 50.5427,
      "duration": 1.2294,
      "velocity": 90,
      "chip": "ym2612"
    },
    {
      "channel": 4,
      "note": 37,
      "start": 50.8584,
      "duration": 0.1303,
      "velocity": 124,
      "chip": "ym2612"
    },
    {
      "channel": 4,
      "note": 31,
      "start": 51.1918,
      "duration": 0.1303,
      "velocity": 124,
      "chip": "ym2612"
    },
    {
      "channel": 0,
      "note": 36,
      "start": 51.8263,
      "duration": 2.5621,
      "velocity": 99,
      "chip": "ym2612"
    },
    {
      "channel": 4,
      "note": 37,
      "start": 51.829,
      "duration": 0.1431,
      "velocity": 124,
      "chip": "ym2612"
    },
    {
      "channel": 3,
      "note": 33,
      "start": 51.833,
      "duration": 2.5555,
      "velocity": 92,
      "chip": "ym2612"
    },
    {
      "channel": 5,
      "note": 67,
      "start": 51.8378,
      "duration": 0.1843,
      "velocity": 90,
      "chip": "ym2612"
    },
    {
      "channel": 2,
      "note": 48,
      "start": 51.8432,
      "duration": 2.5456,
      "velocity": 107,
      "chip": "ym2612"
    },
    {
      "channel": 5,
      "note": 60,
      "start": 52.0419,
      "duration": 0.1969,
      "velocity": 90,
      "chip": "ym2612"
    },
    {
      "channel": 4,
      "note": 31,
      "start": 52.1583,
      "duration": 0.1303,
      "velocity": 124,
      "chip": "ym2612"
    },
    {
      "channel": 5,
      "note": 63,
      "start": 52.2585,
      "duration": 0.1967,
      "velocity": 90,
      "chip": "ym2612"
    },
    {
      "channel": 5,
      "note": 71,
      "start": 52.4755,
      "duration": 1.2632,
      "velocity": 90,
      "chip": "ym2612"
    },
    {
      "channel": 4,
      "note": 37,
      "start": 52.8083,
      "duration": 0.1303,
      "velocity": 124,
      "chip": "ym2612"
    },
    {
      "channel": 4,
      "note": 31,
      "start": 53.1254,
      "duration": 0.1298,
      "velocity": 124,
      "chip": "ym2612"
    },
    {
      "channel": 4,
      "note": 37,
      "start": 53.7749,
      "duration": 0.1303,
      "velocity": 124,
      "chip": "ym2612"
    },
    {
      "channel": 5,
      "note": 69,
      "start": 53.778,
      "duration": 0.6107,
      "velocity": 90,
      "chip": "ym2612"
    },
    {
      "channel": 4,
      "note": 31,
      "start": 54.1081,
      "duration": 0.1305,
      "velocity": 124,
      "chip": "ym2612"
    },
    {
      "channel": 0,
      "note": 36,
      "start": 54.4261,
      "duration": 2.5624,
      "velocity": 99,
      "chip": "ym2612"
    },
    {
      "channel": 5,
      "note": 66,
      "start": 54.4323,
      "duration": 0.2065,
      "velocity": 90,
      "chip": "ym2612"
    },
    {
      "channel": 2,
      "note": 52,
      "start": 54.4387,
      "duration": 1.2002,
      "velocity": 107,
      "chip": "ym2612"
    },
    {
      "channel": 4,
      "note": 37,
      "start": 54.7417,
      "duration": 0.1469,
      "velocity": 124,
      "chip": "ym2612"
    },
    {
      "channel": 5,
      "note": 69,
      "start": 54.8586,
      "duration": 0.2136,
      "velocity": 90,
      "chip": "ym2612"
    },
    {
      "channel": 4,
      "note": 31,
      "start": 55.0752,
      "duration": 0.1302,
      "velocity": 124,
      "chip": "ym2612"
    },
    {
      "channel": 5,
      "note": 63,
      "start": 55.2929,
      "duration": 1.6959,
      "velocity": 90,
      "chip": "ym2612"
    },
    {
      "channel": 4,
      "note": 37,
      "start": 55.7252,
      "duration": 0.1302,
      "velocity": 124,
      "chip": "ym2612"
    },
    {
      "channel": 2,
      "note": 54,
      "start": 55.7288,
      "duration": 1.2602,
      "velocity": 107,
      "chip": "ym2612"
    },
    {
      "channel": 4,
      "note": 31,
      "start": 56.0417,
      "duration": 0.1303,
      "velocity": 124,
      "chip": "ym2612"
    },
    {
      "channel": 4,
      "note": 37,
      "start": 56.6919,
      "duration": 0.1303,
      "velocity": 124,
      "chip": "ym2612"
    },
    {
      "channel": 0,
      "note": 36,
      "start": 57.0261,
      "duration": 2.5457,
      "velocity": 99,
      "chip": "ym2612"
    },
    {
      "channel": 4,
      "note": 31,
      "start": 57.0293,
      "duration": 0.1261,
      "velocity": 124,
      "chip": "ym2612"
    },
    {
      "channel": 3,
      "note": 33,
      "start": 57.0333,
      "duration": 2.5387,
      "velocity": 92,
      "chip": "ym2612"
    },
    {
      "channel": 5,
      "note": 64,
      "start": 57.0382,
      "duration": 1.2672,
      "velocity": 90,
      "chip": "ym2612"
    },
    {
      "channel": 2,
      "note": 55,
      "start": 57.0445,
      "duration": 2.5107,
      "velocity": 107,
      "chip": "ym2612"
    },
    {
      "channel": 4,
      "note": 37,
      "start": 57.6583,
      "duration": 0.147,
      "velocity": 124,
      "chip": "ym2612"
    },
    {
      "channel": 4,
      "note": 31,
      "start": 57.9917,
      "duration": 0.1302,
      "velocity": 124,
      "chip": "ym2612"
    },
    {
      "channel": 5,
      "note": 66,
      "start": 58.3089,
      "duration": 0.9464,
      "velocity": 90,
      "chip": "ym2612"
    },
    {
      "channel": 4,
      "note": 37,
      "start": 58.6416,
      "duration": 0.1304,
      "velocity": 124,
      "chip": "ym2612"
    },
    {
      "channel": 4,
      "note": 31,
      "start": 58.9583,
      "duration": 0.1303,
      "velocity": 124,
      "chip": "ym2612"
    },
    {
      "channel": 5,
      "note": 67,
      "start": 59.2921,
      "duration": 0.0964,
      "velocity": 90,
      "chip": "ym2612"
    },
    {
      "channel": 5,
      "note": 66,
      "start": 59.392,
      "duration": 0.0799,
      "velocity": 90,
      "chip": "ym2612"
    },
    {
      "channel": 5,
      "note": 64,
      "start": 59.5084,
      "duration": 0.0638,
      "velocity": 90,
      "chip": "ym2612"
    },
    {
      "channel": 0,
      "note": 36,
      "start": 59.6093,
      "duration": 2.5625,
      "velocity": 99,
      "chip": "ym2612"
    },
    {
      "channel": 4,
      "note": 37,
      "start": 59.6121,
      "duration": 0.1266,
      "velocity": 124,
      "chip": "ym2612"
    },
    {
      "channel": 5,
      "note": 63,
      "start": 59.6166,
      "duration": 1.2555,
      "velocity": 90,
      "chip": "ym2612"
    },
    {
      "channel": 2,
      "note": 47,
      "start": 59.6229,
      "duration": 2.5493,
      "velocity": 107,
      "chip": "ym2612"
    },
    {
      "channel": 4,
      "note": 31,
      "start": 59.9418,
      "duration": 0.1302,
      "velocity": 124,
      "chip": "ym2612"
    },
    {
      "channel": 4,
      "note": 37,
      "start": 60.5752,
      "duration": 0.1469,
      "velocity": 124,
      "chip": "ym2612"
    },
    {
      "channel": 4,
      "note": 31,
      "start": 60.9089,
      "duration": 0.1298,
      "velocity": 124,
      "chip": "ym2612"
    },
    {
      "channel": 5,
      "note": 59,
      "start": 60.912,
      "duration": 0.9935,
      "velocity": 90,
      "chip": "ym2612"
    },
    {
      "channel": 4,
      "note": 37,
      "start": 61.5585,
      "duration": 0.1303,
      "velocity": 124,
      "chip": "ym2612"
    },
    {
      "channel": 4,
      "note": 31,
      "start": 61.875,
      "duration": 0.1305,
      "velocity": 124,
      "chip": "ym2612"
    },
    {
      "channel": 5,
      "note": 57,
      "start": 61.9924,
      "duration": 0.0796,
      "velocity": 90,
      "chip": "ym2612"
    },
    {
      "channel": 5,
      "note": 54,
      "start": 62.092,
      "duration": 0.0802,
      "velocity": 90,
      "chip": "ym2612"
    },
    {
      "channel": 0,
      "note": 36,
      "start": 62.2096,
      "duration": 2.5622,
      "velocity": 99,
      "chip": "ym2612"
    },
    {
      "channel": 3,
      "note": 33,
      "start": 62.2157,
      "duration": 2.5563,
      "velocity": 92,
      "chip": "ym2612"
    },
    {
      "channel": 5,
      "note": 55,
      "start": 62.2199,
      "duration": 0.6022,
      "velocity": 90,
      "chip": "ym2612"
    },
    {
      "channel": 1,
      "note": 60,
      "start": 62.2268,
      "duration": 2.5116,
      "velocity": 99,
      "chip": "ym2612"
    },
    {
      "channel": 2,
      "note": 57,
      "start": 62.2312,
      "duration": 2.4574,
      "velocity": 107,
      "chip": "ym2612"
    },
    {
      "channel": 4,
      "note": 37,
      "start": 62.5251,
      "duration": 0.1303,
      "velocity": 124,
      "chip": "ym2612"
    },
    {
      "channel": 4,
      "note": 31,
      "start": 62.8583,
      "duration": 0.1303,
      "velocity": 124,
      "chip": "ym2612"
    },
    {
      "channel": 5,
      "note": 52,
      "start": 62.8611,
      "duration": 0.611,
      "velocity": 90,
      "chip": "ym2612"
    },
    {
      "channel": 4,
      "note": 37,
      "start": 63.4917,
      "duration": 0.1469,
      "velocity": 124,
      "chip": "ym2612"
    },
    {
      "channel": 5,
      "note": 59,
      "start": 63.4945,
      "duration": 0.6275,
      "velocity": 90,
      "chip": "ym2612"
    },
    {
      "channel": 4,
      "note": 31,
      "start": 63.8249,
      "duration": 0.1304,
      "velocity": 124,
      "chip": "ym2612"
    },
    {
      "channel": 5,
      "note": 62,
      "start": 64.1425,
      "duration": 0.4794,
      "velocity": 90,
      "chip": "ym2612"
    },
    {
      "channel": 4,
      "note": 37,
      "start": 64.4749,
      "duration": 0.1304,
      "velocity": 124,
      "chip": "ym2612"
    },
    {
      "channel": 5,
      "note": 60,
      "start": 64.6921,
      "duration": 0.0466,
      "velocity": 90,
      "chip": "ym2612"
    },
    {
      "channel": 5,
      "note": 59,
      "start": 64.7421,
      "duration": 0.0301,
      "velocity": 90,
      "chip": "ym2612"
    },
    {
      "channel": 0,
      "note": 36,
      "start": 64.7928,
      "duration": 2.5624,
      "velocity": 99,
      "chip": "ym2612"
    },
    {
      "channel": 4,
      "note": 31,
      "start": 64.7959,
      "duration": 0.1263,
      "velocity": 124,
      "chip": "ym2612"
    },
    {
      "channel": 5,
      "note": 57,
      "start": 64.8,
      "duration": 0.6054,
      "velocity": 90,
      "chip": "ym2612"
    },
    {
      "channel": 1,
      "note": 67,
      "start": 64.8065,
      "duration": 2.1988,
      "velocity": 99,
      "chip": "ym2612"
    },
    {
      "channel": 2,
      "note": 52,
      "start": 64.8095,
      "duration": 2.546,
      "velocity": 107,
      "chip": "ym2612"
    },
    {
      "channel": 4,
      "note": 37,
      "start": 65.4419,
      "duration": 0.1304,
      "velocity": 124,
      "chip": "ym2612"
    },
    {
      "channel": 5,
      "note": 54,
      "start": 65.4446,
      "duration": 0.6109,
      "velocity": 90,
      "chip": "ym2612"
    },
    {
      "channel": 4,
      "note": 31,
      "start": 65.7752,
      "duration": 0.1303,
      "velocity": 124,
      "chip": "ym2612"
    },
    {
      "channel": 5,
      "note": 64,
      "start": 66.0924,
      "duration": 0.2631,
      "velocity": 90,
      "chip": "ym2612"
    },
    {
      "channel": 4,
      "note": 37,
      "start": 66.4084,
      "duration": 0.1303,
      "velocity": 124,
      "chip": "ym2612"
    },
    {
      "channel": 5,
      "note": 66,
      "start": 66.4112,
      "duration": 0.2776,
      "velocity": 90,
      "chip": "ym2612"
    },
    {
      "channel": 4,
      "note": 31,
      "start": 66.7418,
      "duration": 0.1303,
      "velocity": 124,
      "chip": "ym2612"
    },
    {
      "channel": 5,
      "note": 67,
      "start": 66.7451,
      "duration": 0.2604,
      "velocity": 90,
      "chip": "ym2612"
    },
    {
      "channel": 5,
      "note": 69,
      "start": 67.0092,
      "duration": 0.2963,
      "velocity": 90,
      "chip": "ym2612"
    },
    {
      "channel": 1,
      "note": 64,
      "start": 67.0595,
      "duration": 0.1624,
      "velocity": 99,
      "chip": "ym2612"
    },
    {
      "channel": 0,
      "note": 36,
      "start": 67.3929,
      "duration": 2.5622,
      "velocity": 99,
      "chip": "ym2612"
    },
    {
      "channel": 4,
      "note": 37,
      "start": 67.3956,
      "duration": 0.1265,
      "velocity": 124,
      "chip": "ym2612"
    },
    {
      "channel": 3,
      "note": 33,
      "start": 67.3997,
      "duration": 2.5555,
      "velocity": 92,
      "chip": "ym2612"
    },
    {
      "channel": 5,
      "note": 71,
      "start": 67.4047,
      "duration": 2.3506,
      "velocity": 90,
      "chip": "ym2612"
    },
    {
      "channel": 1,
      "note": 63,
      "start": 67.4104,
      "duration": 2.378,
      "velocity": 99,
      "chip": "ym2612"
    },
    {
      "channel": 2,
      "note": 54,
      "start": 67.4132,
      "duration": 2.5423,
      "velocity": 107,
      "chip": "ym2612"
    },
    {
      "channel": 4,
      "note": 31,
      "start": 67.7084,
      "duration": 0.1303,
      "velocity": 124,
      "chip": "ym2612"
    },
    {
      "channel": 4,
      "note": 37,
      "start": 68.3583,
      "duration": 0.1304,
      "velocity": 124,
      "chip": "ym2612"
    },
    {
      "channel": 4,
      "note": 31,
      "start": 68.6754,
      "duration": 0.1465,
      "velocity": 124,
      "chip": "ym2612"
    },
    {
      "channel": 4,
      "note": 37,
      "start": 69.325,
      "duration": 0.1302,
      "velocity": 124,
      "chip": "ym2612"
    },
    {
      "channel": 4,
      "note": 31,
      "start": 69.6581,
      "duration": 0.1305,
      "velocity": 124,
      "chip": "ym2612"
    },
    {
      "channel": 5,
      "note": 72,
      "start": 69.8255,
      "duration": 0.0132,
      "velocity": 90,
      "chip": "ym2612"
    },
    {
      "channel": 1,
      "note": 64,
      "start": 69.8291,
      "duration": 0.0427,
      "velocity": 99,
      "chip": "ym2612"
    },
    {
      "channel": 5,
      "note": 73,
      "start": 69.8752,
      "duration": 0.0134,
      "velocity": 90,
      "chip": "ym2612"
    },
    {
      "channel": 1,
      "note": 66,
      "start": 69.878,
      "duration": 0.0437,
      "velocity": 99,
      "chip": "ym2612"
    },
    {
      "channel": 5,
      "note": 74,
      "start": 69.9252,
      "duration": 0.0302,
      "velocity": 90,
      "chip": "ym2612"
    },
    {
      "channel": 1,
      "note": 67,
      "start": 69.928,
      "duration": 0.0438,
      "velocity": 99,
      "chip": "ym2612"
    },
    {
      "channel": 0,
      "note": 36,
      "start": 69.9763,
      "duration": 2.5623,
      "velocity": 99,
      "chip": "ym2612"
    },
    {
      "channel": 5,
      "note": 75,
      "start": 69.9829,
      "duration": 1.256,
      "velocity": 90,
      "chip": "ym2612"
    },
    {
      "channel": 1,
      "note": 69,
      "start": 69.989,
      "duration": 1.283,
      "velocity": 99,
      "chip": "ym2612"
    },
    {
      "channel": 2,
      "note": 47,
      "start": 69.9922,
      "duration": 2.4966,
      "velocity": 107,
      "chip": "ym2612"
    },
    {
      "channel": 4,
      "note": 37,
      "start": 70.3084,
      "duration": 0.1303,
      "velocity": 124,
      "chip": "ym2612"
    },
    {
      "channel": 4,
      "note": 31,
      "start": 70.6251,
      "duration": 0.1305,
      "velocity": 124,
      "chip": "ym2612"
    },
    {
      "channel": 4,
      "note": 37,
      "start": 71.2754,
      "duration": 0.13,
      "velocity": 124,
      "chip": "ym2612"
    },
    {
      "channel": 5,
      "note": 69,
      "start": 71.2782,
      "duration": 1.2607,
      "velocity": 90,
      "chip": "ym2612"
    },
    {
      "channel": 1,
      "note": 66,
      "start": 71.2812,
      "duration": 1.2407,
      "velocity": 99,
      "chip": "ym2612"
    },
    {
      "channel": 4,
      "note": 31,
      "start": 71.5917,
      "duration": 0.147,
      "velocity": 124,
      "chip": "ym2612"
    },
    {
      "channel": 4,
      "note": 37,
      "start": 72.2419,
      "duration": 0.1303,
      "velocity": 124,
      "chip": "ym2612"
    },
    {
      "channel": 0,
      "note": 36,
      "start": 72.5762,
      "duration": 2.5622,
      "velocity": 99,
      "chip": "ym2612"
    },
    {
      "channel": 4,
      "note": 31,
      "start": 72.5793,
      "duration": 0.126,
      "velocity": 124,
      "chip": "ym2612"
    },
    {
      "channel": 3,
      "note": 33,
      "start": 72.5833,
      "duration": 2.5553,
      "velocity": 92,
      "chip": "ym2612"
    },
    {
      "channel": 5,
      "note": 64,
      "start": 72.5882,
      "duration": 0.1674,
      "velocity": 90,
      "chip": "ym2612"
    },
    {
      "channel": 1,
      "note": 67,
      "start": 72.5936,
      "duration": 0.1616,
      "velocity": 99,
      "chip": "ym2612"
    },
    {
      "channel": 2,
      "note": 57,
      "start": 72.5967,
      "duration": 1.2422,
      "velocity": 107,
      "chip": "ym2612"
    },
    {
      "channel": 5,
      "note": 60,
      "start": 72.7919,
      "duration": 0.1802,
      "velocity": 90,
      "chip": "ym2612"
    },
    {
      "channel": 1,
      "note": 60,
      "start": 72.7948,
      "duration": 0.1771,
      "velocity": 99,
      "chip": "ym2612"
    },
    {
      "channel": 5,
      "note": 57,
      "start": 73.0085,
      "duration": 0.1803,
      "velocity": 90,
      "chip": "ym2612"
    },
    {
      "channel": 1,
      "note": 63,
      "start": 73.0114,
      "duration": 0.1772,
      "velocity": 99,
      "chip": "ym2612"
    },
    {
      "channel": 4,
      "note": 37,
      "start": 73.2251,
      "duration": 0.1303,
      "velocity": 124,
      "chip": "ym2612"
    },
    {
      "channel": 5,
      "note": 66,
      "start": 73.2282,
      "duration": 1.0771,
      "velocity": 90,
      "chip": "ym2612"
    },
    {
      "channel": 1,
      "note": 71,
      "start": 73.2317,
      "duration": 1.2566,
      "velocity": 99,
      "chip": "ym2612"
    },
    {
      "channel": 4,
      "note": 31,
      "start": 73.5417,
      "duration": 0.1303,
      "velocity": 124,
      "chip": "ym2612"
    },
    {
      "channel": 2,
      "note": 55,
      "start": 73.876,
      "duration": 1.2293,
      "velocity": 107,
      "chip": "ym2612"
    },
    {
      "channel": 4,
      "note": 37,
      "start": 74.1916,
      "duration": 0.1303,
      "velocity": 124,
      "chip": "ym2612"
    },
    {
      "channel": 5,
      "note": 60,
      "start": 74.3588,
      "duration": 0.0132,
      "velocity": 90,
      "chip": "ym2612"
    },
    {
      "channel": 5,
      "note": 61,
      "start": 74.4085,
      "duration": 0.0302,
      "velocity": 90,
      "chip": "ym2612"
    },
    {
      "channel": 5,
      "note": 62,
      "start": 74.4585,
      "duration": 0.0301,
      "velocity": 90,
      "chip": "ym2612"
    },
    {
      "channel": 4,
      "note": 31,
      "start": 74.5083,
      "duration": 0.1469,
      "velocity": 124,
      "chip": "ym2612"
    },
    {
      "channel": 5,
      "note": 63,
      "start": 74.5118,
      "duration": 0.2935,
      "velocity": 90,
      "chip": "ym2612"
    },
    {
      "channel": 1,
      "note": 69,
      "start": 74.515,
      "duration": 0.6235,
      "velocity": 99,
      "chip": "ym2612"
    },
    {
      "channel": 5,
      "note": 64,
      "start": 74.8417,
      "duration": 0.2971,
      "velocity": 90,
      "chip": "ym2612"
    },
    {
      "channel": 0,
      "note": 36,
      "start": 75.1594,
      "duration": 2.5625,
      "velocity": 99,
      "chip": "ym2612"
    },
    {
      "channel": 4,
      "note": 37,
      "start": 75.1621,
      "duration": 0.1266,
      "velocity": 124,
      "chip": "ym2612"
    },
    {
      "channel": 5,
      "note": 66,
      "start": 75.1661,
      "duration": 0.2728,
      "velocity": 90,
      "chip": "ym2612"
    },
    {
      "channel": 1,
      "note": 66,
      "start": 75.1723,
      "duration": 0.1996,
      "velocity": 99,
      "chip": "ym2612"
    },
    {
      "channel": 2,
      "note": 52,
      "start": 75.1753,
      "duration": 1.2636,
      "velocity": 107,
      "chip": "ym2612"
    },
    {
      "channel": 4,
      "note": 31,
      "start": 75.4918,
      "duration": 0.1303,
      "velocity": 124,
      "chip": "ym2612"
    },
    {
      "channel": 5,
      "note": 67,
      "start": 75.4946,
      "duration": 0.2608,
      "velocity": 90,
      "chip": "ym2612"
    },
    {
      "channel": 1,
      "note": 69,
      "start": 75.5923,
      "duration": 0.213,
      "velocity": 99,
      "chip": "ym2612"
    },
    {
      "channel": 5,
      "note": 69,
      "start": 75.8087,
      "duration": 0.2635,
      "velocity": 90,
      "chip": "ym2612"
    },
    {
      "channel": 1,
      "note": 63,
      "start": 76.0263,
      "duration": 1.6957,
      "velocity": 99,
      "chip": "ym2612"
    },
    {
      "channel": 4,
      "note": 37,
      "start": 76.1419,
      "duration": 0.1303,
      "velocity": 124,
      "chip": "ym2612"
    },
    {
      "channel": 5,
      "note": 71,
      "start": 76.1446,
      "duration": 0.2609,
      "velocity": 90,
      "chip": "ym2612"
    },
    {
      "channel": 4,
      "note": 31,
      "start": 76.4589,
      "duration": 0.1298,
      "velocity": 124,
      "chip": "ym2612"
    },
    {
      "channel": 5,
      "note": 74,
      "start": 76.462,
      "duration": 0.4602,
      "velocity": 90,
      "chip": "ym2612"
    },
    {
      "channel": 2,
      "note": 51,
      "start": 76.4651,
      "duration": 1.2573,
      "velocity": 107,
      "chip": "ym2612"
    },
    {
      "channel": 5,
      "note": 72,
      "start": 76.9424,
      "duration": 0.0297,
      "velocity": 90,
      "chip": "ym2612"
    },
    {
      "channel": 5,
      "note": 71,
      "start": 77.0087,
      "duration": 0.0135,
      "velocity": 90,
      "chip": "ym2612"
    },
    {
      "channel": 5,
      "note": 70,
      "start": 77.0587,
      "duration": 0.0134,
      "velocity": 90,
      "chip": "ym2612"
    },
    {
      "channel": 4,
      "note": 37,
      "start": 77.1085,
      "duration": 0.1303,
      "velocity": 124,
      "chip": "ym2612"
    },
    {
      "channel": 5,
      "note": 69,
      "start": 77.112,
      "duration": 0.2934,
      "velocity": 90,
      "chip": "ym2612"
    },
    {
      "channel": 4,
      "note": 31,
      "start": 77.4251,
      "duration": 0.1472,
      "velocity": 124,
      "chip": "ym2612"
    },
    {
      "channel": 5,
      "note": 72,
      "start": 77.4282,
      "duration": 0.4606,
      "velocity": 90,
      "chip": "ym2612"
    },
    {
      "channel": 0,
      "note": 36,
      "start": 77.7596,
      "duration": 2.5621,
      "velocity": 99,
      "chip": "ym2612"
    },
    {
      "channel": 3,
      "note": 33,
      "start": 77.7658,
      "duration": 2.5562,
      "velocity": 92,
      "chip": "ym2612"
    },
    {
      "channel": 1,
      "note": 64,
      "start": 77.7732,
      "duration": 1.2819,
      "velocity": 99,
      "chip": "ym2612"
    },
    {
      "channel": 2,
      "note": 52,
      "start": 77.777,
      "duration": 1.9284,
      "velocity": 107,
      "chip": "ym2612"
    },
    {
      "channel": 5,
      "note": 71,
      "start": 77.9256,
      "duration": 0.0131,
      "velocity": 90,
      "chip": "ym2612"
    },
    {
      "channel": 5,
      "note": 69,
      "start": 77.9753,
      "duration": 0.0134,
      "velocity": 90,
      "chip": "ym2612"
    },
    {
      "channel": 5,
      "note": 67,
      "start": 78.0253,
      "duration": 0.03,
      "velocity": 90,
      "chip": "ym2612"
    },
    {
      "channel": 4,
      "note": 37,
      "start": 78.075,
      "duration": 0.1303,
      "velocity": 124,
      "chip": "ym2612"
    },
    {
      "channel": 5,
      "note": 66,
      "start": 78.078,
      "duration": 0.294,
      "velocity": 90,
      "chip": "ym2612"
    },
    {
      "channel": 4,
      "note": 31,
      "start": 78.4083,
      "duration": 0.1303,
      "velocity": 124,
      "chip": "ym2612"
    },
    {
      "channel": 5,
      "note": 67,
      "start": 78.4118,
      "duration": 0.9101,
      "velocity": 90,
      "chip": "ym2612"
    },
    {
      "channel": 4,
      "note": 37,
      "start": 79.0584,
      "duration": 0.1302,
      "velocity": 124,
      "chip": "ym2612"
    },
    {
      "channel": 1,
      "note": 66,
      "start": 79.0623,
      "duration": 0.9262,
      "velocity": 99,
      "chip": "ym2612"
    },
    {
      "channel": 5,
      "note": 71,
      "start": 79.3256,
      "duration": 0.263,
      "velocity": 90,
      "chip": "ym2612"
    },
    {
      "channel": 4,
      "note": 31,
      "start": 79.3749,
      "duration": 0.1304,
      "velocity": 124,
      "chip": "ym2612"
    },
    {
      "channel": 5,
      "note": 69,
      "start": 79.7089,
      "duration": 0.9633,
      "velocity": 90,
      "chip": "ym2612"
    },
    {
      "channel": 2,
      "note": 57,
      "start": 79.7123,
      "duration": 0.4931,
      "velocity": 107,
      "chip": "ym2612"
    },
    {
      "channel": 4,
      "note": 37,
      "start": 80.0249,
      "duration": 0.1303,
      "velocity": 124,
      "chip": "ym2612"
    },
    {
      "channel": 1,
      "note": 67,
      "start": 80.0285,
      "duration": 0.0933,
      "velocity": 99,
      "chip": "ym2612"
    },
    {
      "channel": 1,
      "note": 66,
      "start": 80.1258,
      "duration": 0.0793,
      "velocity": 99,
      "chip": "ym2612"
    },
    {
      "channel": 1,
      "note": 64,
      "start": 80.2423,
      "duration": 0.0795,
      "velocity": 99,
      "chip": "ym2612"
    },
    {
      "channel": 0,
      "note": 36,
      "start": 80.3428,
      "duration": 2.5624,
      "velocity": 99,
      "chip": "ym2612"
    },
    {
      "channel": 4,
      "note": 31,
      "start": 80.3459,
      "duration": 0.1428,
      "velocity": 124,
      "chip": "ym2612"
    },
    {
      "channel": 1,
      "note": 63,
      "start": 80.3527,
      "duration": 1.2694,
      "velocity": 99,
      "chip": "ym2612"
    },
    {
      "channel": 2,
      "note": 47,
      "start": 80.3568,
      "duration": 2.532,
      "velocity": 107,
      "chip": "ym2612"
    },
    {
      "channel": 5,
      "note": 74,
      "start": 80.6758,
      "duration": 0.1796,
      "velocity": 90,
      "chip": "ym2612"
    },
    {
      "channel": 4,
      "note": 37,
      "start": 80.9917,
      "duration": 0.1305,
      "velocity": 124,
      "chip": "ym2612"
    },
    {
      "channel": 5,
      "note": 66,
      "start": 80.9948,
      "duration": 1.294,
      "velocity": 90,
      "chip": "ym2612"
    },
    {
      "channel": 4,
      "note": 31,
      "start": 81.3252,
      "duration": 0.1302,
      "velocity": 124,
      "chip": "ym2612"
    },
    {
      "channel": 1,
      "note": 59,
      "start": 81.6428,
      "duration": 0.996,
      "velocity": 99,
      "chip": "ym2612"
    },
    {
      "channel": 4,
      "note": 37,
      "start": 81.9752,
      "duration": 0.1302,
      "velocity": 124,
      "chip": "ym2612"
    },
    {
      "channel": 4,
      "note": 31,
      "start": 82.2919,
      "duration": 0.1302,
      "velocity": 124,
      "chip": "ym2612"
    },
    {
      "channel": 5,
      "note": 71,
      "start": 82.295,
      "duration": 0.6105,
      "velocity": 90,
      "chip": "ym2612"
    },
    {
      "channel": 1,
      "note": 60,
      "start": 82.7265,
      "duration": 0.0788,
      "velocity": 99,
      "chip": "ym2612"
    },
    {
      "channel": 1,
      "note": 59,
      "start": 82.8423,
      "duration": 0.063,
      "velocity": 99,
      "chip": "ym2612"
    },
    {
      "channel": 0,
      "note": 48,
      "start": 82.9439,
      "duration": 2.5611,
      "velocity": 109,
      "chip": "ym2612"
    },
    {
      "channel": 4,
      "note": 37,
      "start": 82.9467,
      "duration": 0.1253,
      "velocity": 124,
      "chip": "ym2612"
    },
    {
      "channel": 3,
      "note": 33,
      "start": 82.9536,
      "duration": 2.5517,
      "velocity": 92,
      "chip": "ym2612"
    },
    {
      "channel": 5,
      "note": 75,
      "start": 82.9596,
      "duration": 2.5123,
      "velocity": 90,
      "chip": "ym2612"
    },
    {
      "channel": 1,
      "note": 67,
      "start": 82.9657,
      "duration": 0.5895,
      "velocity": 99,
      "chip": "ym2612"
    },
    {
      "channel": 2,
      "note": 54,
      "start": 82.9714,
      "duration": 1.2342,
      "velocity": 90,
      "chip": "ym2612"
    },
    {
      "channel": 4,
      "note": 31,
      "start": 83.2584,
      "duration": 0.1469,
      "velocity": 124,
      "chip": "ym2612"
    },
    {
      "channel": 1,
      "note": 63,
      "start": 83.5924,
      "duration": 0.6129,
      "velocity": 99,
      "chip": "ym2612"
    },
    {
      "channel": 4,
      "note": 37,
      "start": 83.9083,
      "duration": 0.1303,
      "velocity": 124,
      "chip": "ym2612"
    },
    {
      "channel": 4,
      "note": 31,
      "start": 84.2421,
      "duration": 0.1298,
      "velocity": 124,
      "chip": "ym2612"
    },
    {
      "channel": 1,
      "note": 71,
      "start": 84.2453,
      "duration": 0.6099,
      "velocity": 99,
      "chip": "ym2612"
    },
    {
      "channel": 2,
      "note": 52,
      "start": 84.248,
      "duration": 1.2574,
      "velocity": 90,
      "chip": "ym2612"
    },
    {
      "channel": 4,
      "note": 37,
      "start": 84.8916,
      "duration": 0.1303,
      "velocity": 124,
      "chip": "ym2612"
    },
    {
      "channel": 1,
      "note": 74,
      "start": 84.8951,
      "duration": 0.4767,
      "velocity": 99,
      "chip": "ym2612"
    },
    {
      "channel": 4,
      "note": 31,
      "start": 85.208,
      "duration": 0.1306,
      "velocity": 124,
      "chip": "ym2612"
    },
    {
      "channel": 1,
      "note": 72,
      "start": 85.4263,
      "duration": 0.0455,
      "velocity": 99,
      "chip": "ym2612"
    },
    {
      "channel": 1,
      "note": 71,
      "start": 85.4758,
      "duration": 0.0294,
      "velocity": 99,
      "chip": "ym2612"
    },
    {
      "channel": 0,
      "note": 48,
      "start": 85.5414,
      "duration": 2.5304,
      "velocity": 109,
      "chip": "ym2612"
    },
    {
      "channel": 5,
      "note": 83,
      "start": 85.5479,
      "duration": 2.191,
      "velocity": 90,
      "chip": "ym2612"
    },
    {
      "channel": 1,
      "note": 69,
      "start": 85.5535,
      "duration": 0.6018,
      "velocity": 99,
      "chip": "ym2612"
    },
    {
      "channel": 2,
      "note": 48,
      "start": 85.5569,
      "duration": 1.2487,
      "velocity": 90,
      "chip": "ym2612"
    },
    {
      "channel": 4,
      "note": 37,
      "start": 85.8585,
      "duration": 0.1303,
      "velocity": 124,
      "chip": "ym2612"
    },
    {
      "channel": 4,
      "note": 31,
      "start": 86.1751,
      "duration": 0.147,
      "velocity": 124,
      "chip": "ym2612"
    },
    {
      "channel": 1,
      "note": 66,
      "start": 86.1798,
      "duration": 0.6256,
      "velocity": 99,
      "chip": "ym2612"
    },
    {
      "channel": 4,
      "note": 37,
      "start": 86.8252,
      "duration": 0.1302,
      "velocity": 124,
      "chip": "ym2612"
    },
    {
      "channel": 1,
      "note": 76,
      "start": 86.8288,
      "duration": 0.2765,
      "velocity": 99,
      "chip": "ym2612"
    },
    {
      "channel": 2,
      "note": 45,
      "start": 86.8315,
      "duration": 1.2573,
      "velocity": 90,
      "chip": "ym2612"
    },
    {
      "channel": 4,
      "note": 31,
      "start": 87.1585,
      "duration": 0.1302,
      "velocity": 124,
      "chip": "ym2612"
    },
    {
      "channel": 1,
      "note": 78,
      "start": 87.1616,
      "duration": 0.2604,
      "velocity": 99,
      "chip": "ym2612"
    },
    {
      "channel": 1,
      "note": 79,
      "start": 87.4759,
      "duration": 0.2628,
      "velocity": 99,
      "chip": "ym2612"
    },
    {
      "channel": 1,
      "note": 81,
      "start": 87.7429,
      "duration": 0.2957,
      "velocity": 99,
      "chip": "ym2612"
    },
    {
      "channel": 4,
      "note": 37,
      "start": 87.8085,
      "duration": 0.1303,
      "velocity": 124,
      "chip": "ym2612"
    },
    {
      "channel": 5,
      "note": 79,
      "start": 87.812,
      "duration": 0.1435,
      "velocity": 90,
      "chip": "ym2612"
    },
    {
      "channel": 0,
      "note": 47,
      "start": 88.1268,
      "duration": 2.4784,
      "velocity": 109,
      "chip": "ym2612"
    },
    {
      "channel": 4,
      "note": 31,
      "start": 88.1298,
      "duration": 0.1257,
      "velocity": 124,
      "chip": "ym2612"
    },
    {
      "channel": 3,
      "note": 33,
      "start": 88.1346,
      "duration": 2.5541,
      "velocity": 92,
      "chip": "ym2612"
    },
    {
      "channel": 5,
      "note": 78,
      "start": 88.1397,
      "duration": 2.3822,
      "velocity": 90,
      "chip": "ym2612"
    },
    {
      "channel": 1,
      "note": 83,
      "start": 88.1458,
      "duration": 2.3595,
      "velocity": 99,
      "chip": "ym2612"
    },
    {
      "channel": 2,
      "note": 39,
      "start": 88.1485,
      "duration": 1.2403,
      "velocity": 90,
      "chip": "ym2612"
    },
    {
      "channel": 4,
      "note": 37,
      "start": 88.7751,
      "duration": 0.1303,
      "velocity": 124,
      "chip": "ym2612"
    },
    {
      "channel": 4,
      "note": 31,
      "start": 89.0917,
      "duration": 0.147,
      "velocity": 124,
      "chip": "ym2612"
    },
    {
      "channel": 2,
      "note": 45,
      "start": 89.4258,
      "duration": 1.263,
      "velocity": 90,
      "chip": "ym2612"
    },
    {
      "channel": 4,
      "note": 37,
      "start": 89.7417,
      "duration": 0.1303,
      "velocity": 124,
      "chip": "ym2612"
    },
    {
      "channel": 4,
      "note": 31,
      "start": 90.075,
      "duration": 0.1303,
      "velocity": 124,
      "chip": "ym2612"
    },
    {
      "channel": 5,
      "note": 79,
      "start": 90.5588,
      "duration": 0.0466,
      "velocity": 90,
      "chip": "ym2612"
    },
    {
      "channel": 1,
      "note": 84,
      "start": 90.562,
      "duration": 0.0265,
      "velocity": 99,
      "chip": "ym2612"
    },
    {
      "channel": 5,
      "note": 81,
      "start": 90.6087,
      "duration": 0.0466,
      "velocity": 90,
      "chip": "ym2612"
    },
    {
      "channel": 1,
      "note": 85,
      "start": 90.6116,
      "duration": 0.027,
      "velocity": 99,
      "chip": "ym2612"
    },
    {
      "channel": 5,
      "note": 83,
      "start": 90.6586,
      "duration": 0.0634,
      "velocity": 90,
      "chip": "ym2612"
    },
    {
      "channel": 1,
      "note": 86,
      "start": 90.6616,
      "duration": 0.027,
      "velocity": 99,
      "chip": "ym2612"
    },
    {
      "channel": 0,
      "note": 47,
      "start": 90.7268,
      "duration": 2.5285,
      "velocity": 109,
      "chip": "ym2612"
    },
    {
      "channel": 4,
      "note": 37,
      "start": 90.7295,
      "duration": 0.126,
      "velocity": 124,
      "chip": "ym2612"
    },
    {
      "channel": 5,
      "note": 84,
      "start": 90.7337,
      "duration": 1.272,
      "velocity": 90,
      "chip": "ym2612"
    },
    {
      "channel": 1,
      "note": 87,
      "start": 90.7398,
      "duration": 1.249,
      "velocity": 99,
      "chip": "ym2612"
    },
    {
      "channel": 2,
      "note": 35,
      "start": 90.7426,
      "duration": 1.2466,
      "velocity": 90,
      "chip": "ym2612"
    },
    {
      "channel": 4,
      "note": 31,
      "start": 91.0419,
      "duration": 0.1303,
      "velocity": 124,
      "chip": "ym2612"
    },
    {
      "channel": 4,
      "note": 37,
      "start": 91.692,
      "duration": 0.1303,
      "velocity": 124,
      "chip": "ym2612"
    },
    {
      "channel": 4,
      "note": 31,
      "start": 92.0091,
      "duration": 0.1298,
      "velocity": 124,
      "chip": "ym2612"
    },
    {
      "channel": 5,
      "note": 81,
      "start": 92.0121,
      "duration": 1.2435,
      "velocity": 90,
      "chip": "ym2612"
    },
    {
      "channel": 1,
      "note": 81,
      "start": 92.015,
      "duration": 1.2736,
      "velocity": 99,
      "chip": "ym2612"
    },
    {
      "channel": 2,
      "note": 42,
      "start": 92.0177,
      "duration": 1.2711,
      "velocity": 90,
      "chip": "ym2612"
    },
    {
      "channel": 4,
      "note": 37,
      "start": 92.6585,
      "duration": 0.1304,
      "velocity": 124,
      "chip": "ym2612"
    },
    {
      "channel": 4,
      "note": 31,
      "start": 92.9918,
      "duration": 0.1305,
      "velocity": 124,
      "chip": "ym2612"
    },
    {
      "channel": 0,
      "note": 45,
      "start": 93.3082,
      "duration": 2.5302,
      "velocity": 109,
      "chip": "ym2612"
    },
    {
      "channel": 3,
      "note": 33,
      "start": 93.3144,
      "duration": 2.5576,
      "velocity": 92,
      "chip": "ym2612"
    },
    {
      "channel": 5,
      "note": 83,
      "start": 93.3189,
      "duration": 0.1867,
      "velocity": 90,
      "chip": "ym2612"
    },
    {
      "channel": 1,
      "note": 76,
      "start": 93.3254,
      "duration": 0.1799,
      "velocity": 99,
      "chip": "ym2612"
    },
    {
      "channel": 2,
      "note": 36,
      "start": 93.3282,
      "duration": 1.2438,
      "velocity": 90,
      "chip": "ym2612"
    },
    {
      "channel": 5,
      "note": 75,
      "start": 93.5253,
      "duration": 0.1802,
      "velocity": 90,
      "chip": "ym2612"
    },
    {
      "channel": 1,
      "note": 72,
      "start": 93.5282,
      "duration": 0.177,
      "velocity": 99,
      "chip": "ym2612"
    },
    {
      "channel": 4,
      "note": 37,
      "start": 93.6418,
      "duration": 0.1302,
      "velocity": 124,
      "chip": "ym2612"
    },
    {
      "channel": 5,
      "note": 78,
      "start": 93.7419,
      "duration": 0.1803,
      "velocity": 90,
      "chip": "ym2612"
    },
    {
      "channel": 1,
      "note": 69,
      "start": 93.7448,
      "duration": 0.1771,
      "velocity": 99,
      "chip": "ym2612"
    },
    {
      "channel": 4,
      "note": 31,
      "start": 93.9584,
      "duration": 0.1303,
      "velocity": 124,
      "chip": "ym2612"
    },
    {
      "channel": 5,
      "note": 86,
      "start": 93.9615,
      "duration": 1.2605,
      "velocity": 90,
      "chip": "ym2612"
    },
    {
      "channel": 1,
      "note": 78,
      "start": 93.9647,
      "duration": 1.0739,
      "velocity": 99,
      "chip": "ym2612"
    },
    {
      "channel": 4,
      "note": 37,
      "start": 94.6083,
      "duration": 0.1302,
      "velocity": 124,
      "chip": "ym2612"
    },
    {
      "channel": 2,
      "note": 39,
      "start": 94.6117,
      "duration": 1.2605,
      "velocity": 90,
      "chip": "ym2612"
    },
    {
      "channel": 4,
      "note": 31,
      "start": 94.9249,
      "duration": 0.1303,
      "velocity": 124,
      "chip": "ym2612"
    },
    {
      "channel": 1,
      "note": 72,
      "start": 95.0925,
      "duration": 0.0293,
      "velocity": 99,
      "chip": "ym2612"
    },
    {
      "channel": 1,
      "note": 73,
      "start": 95.1422,
      "duration": 0.0296,
      "velocity": 99,
      "chip": "ym2612"
    },
    {
      "channel": 1,
      "note": 74,
      "start": 95.2089,
      "duration": 0.0129,
      "velocity": 99,
      "chip": "ym2612"
    },
    {
      "channel": 5,
      "note": 84,
      "start": 95.2588,
      "duration": 0.6132,
      "velocity": 90,
      "chip": "ym2612"
    },
    {
      "channel": 1,
      "note": 75,
      "start": 95.2621,
      "duration": 0.2931,
      "velocity": 99,
      "chip": "ym2612"
    },
    {
      "channel": 4,
      "note": 37,
      "start": 95.575,
      "duration": 0.1303,
      "velocity": 124,
      "chip": "ym2612"
    },
    {
      "channel": 1,
      "note": 76,
      "start": 95.5782,
      "duration": 0.2937,
      "velocity": 99,
      "chip": "ym2612"
    },
    {
      "channel": 0,
      "note": 48,
      "start": 95.9078,
      "duration": 2.5307,
      "velocity": 109,
      "chip": "ym2612"
    },
    {
      "channel": 4,
      "note": 31,
      "start": 95.9108,
      "duration": 0.128,
      "velocity": 124,
      "chip": "ym2612"
    },
    {
      "channel": 5,
      "note": 81,
      "start": 95.9149,
      "duration": 0.2072,
      "velocity": 90,
      "chip": "ym2612"
    },
    {
      "channel": 1,
      "note": 78,
      "start": 95.9213,
      "duration": 0.2507,
      "velocity": 99,
      "chip": "ym2612"
    },
    {
      "channel": 2,
      "note": 45,
      "start": 95.9247,
      "duration": 1.1976,
      "velocity": 90,
      "chip": "ym2612"
    },
    {
      "channel": 1,
      "note": 79,
      "start": 96.2257,
      "duration": 0.2629,
      "velocity": 99,
      "chip": "ym2612"
    },
    {
      "channel": 5,
      "note": 84,
      "start": 96.342,
      "duration": 0.2134,
      "velocity": 90,
      "chip": "ym2612"
    },
    {
      "channel": 4,
      "note": 37,
      "start": 96.5585,
      "duration": 0.1303,
      "velocity": 124,
      "chip": "ym2612"
    },
    {
      "channel": 1,
      "note": 81,
      "start": 96.5632,
      "duration": 0.2589,
      "velocity": 99,
      "chip": "ym2612"
    },
    {
      "channel": 5,
      "note": 78,
      "start": 96.7763,
      "duration": 1.6958,
      "velocity": 90,
      "chip": "ym2612"
    },
    {
      "channel": 4,
      "note": 31,
      "start": 96.8752,
      "duration": 0.1303,
      "velocity": 124,
      "chip": "ym2612"
    },
    {
      "channel": 1,
      "note": 83,
      "start": 96.8784,
      "duration": 0.2604,
      "velocity": 99,
      "chip": "ym2612"
    },
    {
      "channel": 1,
      "note": 86,
      "start": 97.1927,
      "duration": 0.4626,
      "velocity": 99,
      "chip": "ym2612"
    },
    {
      "channel": 2,
      "note": 42,
      "start": 97.1957,
      "duration": 1.2765,
      "velocity": 90,
      "chip": "ym2612"
    },
    {
      "channel": 4,
      "note": 37,
      "start": 97.5251,
      "duration": 0.1304,
      "velocity": 124,
      "chip": "ym2612"
    },
    {
      "channel": 1,
      "note": 84,
      "start": 97.6929,
      "duration": 0.0125,
      "velocity": 99,
      "chip": "ym2612"
    },
    {
      "channel": 1,
      "note": 83,
      "start": 97.7424,
      "duration": 0.0296,
      "velocity": 99,
      "chip": "ym2612"
    },
    {
      "channel": 1,
      "note": 82,
      "start": 97.7925,
      "duration": 0.0295,
      "velocity": 99,
      "chip": "ym2612"
    },
    {
      "channel": 4,
      "note": 31,
      "start": 97.842,
      "duration": 0.1303,
      "velocity": 124,
      "chip": "ym2612"
    },
    {
      "channel": 1,
      "note": 81,
      "start": 97.8455,
      "duration": 0.2933,
      "velocity": 99,
      "chip": "ym2612"
    },
    {
      "channel": 1,
      "note": 84,
      "start": 98.1765,
      "duration": 0.4454,
      "velocity": 99,
      "chip": "ym2612"
    },
    {
      "channel": 0,
      "note": 39,
      "start": 98.4913,
      "duration": 2.5471,
      "velocity": 109,
      "chip": "ym2612"
    },
    {
      "channel": 4,
      "note": 37,
      "start": 98.494,
      "duration": 0.1281,
      "velocity": 124,
      "chip": "ym2612"
    },
    {
      "channel": 3,
      "note": 33,
      "start": 98.4981,
      "duration": 2.5571,
      "velocity": 92,
      "chip": "ym2612"
    },
    {
      "channel": 5,
      "note": 79,
      "start": 98.5022,
      "duration": 1.2864,
      "velocity": 90,
      "chip": "ym2612"
    },
    {
      "channel": 2,
      "note": 51,
      "start": 98.5083,
      "duration": 1.2472,
      "velocity": 90,
      "chip": "ym2612"
    },
    {
      "channel": 1,
      "note": 83,
      "start": 98.6593,
      "duration": 0.0293,
      "velocity": 99,
      "chip": "ym2612"
    },
    {
      "channel": 1,
      "note": 81,
      "start": 98.709,
      "duration": 0.0296,
      "velocity": 99,
      "chip": "ym2612"
    },
    {
      "channel": 1,
      "note": 79,
      "start": 98.759,
      "duration": 0.0295,
      "velocity": 99,
      "chip": "ym2612"
    },
    {
      "channel": 4,
      "note": 31,
      "start": 98.8251,
      "duration": 0.1303,
      "velocity": 124,
      "chip": "ym2612"
    },
    {
      "channel": 1,
      "note": 78,
      "start": 98.8285,
      "duration": 0.2933,
      "velocity": 99,
      "chip": "ym2612"
    },
    {
      "channel": 1,
      "note": 79,
      "start": 99.1425,
      "duration": 0.9126,
      "velocity": 99,
      "chip": "ym2612"
    },
    {
      "channel": 4,
      "note": 37,
      "start": 99.475,
      "duration": 0.1303,
      "velocity": 124,
      "chip": "ym2612"
    },
    {
      "channel": 4,
      "note": 31,
      "start": 99.7921,
      "duration": 0.1298,
      "velocity": 124,
      "chip": "ym2612"
    },
    {
      "channel": 5,
      "note": 81,
      "start": 99.7951,
      "duration": 0.9435,
      "velocity": 90,
      "chip": "ym2612"
    },
    {
      "channel": 2,
      "note": 47,
      "start": 99.7986,
      "duration": 0.6067,
      "velocity": 90,
      "chip": "ym2612"
    },
    {
      "channel": 1,
      "note": 83,
      "start": 100.0593,
      "duration": 0.2625,
      "velocity": 99,
      "chip": "ym2612"
    },
    {
      "channel": 4,
      "note": 37,
      "start": 100.4415,
      "duration": 0.1303,
      "velocity": 124,
      "chip": "ym2612"
    },
    {
      "channel": 1,
      "note": 81,
      "start": 100.4454,
      "duration": 0.9599,
      "velocity": 99,
      "chip": "ym2612"
    },
    {
      "channel": 2,
      "note": 42,
      "start": 100.4481,
      "duration": 0.6073,
      "velocity": 90,
      "chip": "ym2612"
    },
    {
      "channel": 4,
      "note": 31,
      "start": 100.7581,
      "duration": 0.1305,
      "velocity": 124,
      "chip": "ym2612"
    },
    {
      "channel": 5,
      "note": 83,
      "start": 100.7611,
      "duration": 0.1108,
      "velocity": 90,
      "chip": "ym2612"
    },
    {
      "channel": 5,
      "note": 81,
      "start": 100.8754,
      "duration": 0.0798,
      "velocity": 90,
      "chip": "ym2612"
    },
    {
      "channel": 5,
      "note": 79,
      "start": 100.9752,
      "duration": 0.0801,
      "velocity": 90,
      "chip": "ym2612"
    },
    {
      "channel": 0,
      "note": 47,
      "start": 101.0931,
      "duration": 2.5288,
      "velocity": 109,
      "chip": "ym2612"
    },
    {
      "channel": 5,
      "note": 78,
      "start": 101.0997,
      "duration": 1.2559,
      "velocity": 90,
      "chip": "ym2612"
    },
    {
      "channel": 2,
      "note": 35,
      "start": 101.106,
      "duration": 1.2498,
      "velocity": 90,
      "chip": "ym2612"
    },
    {
      "channel": 4,
      "note": 37,
      "start": 101.4086,
      "duration": 0.1303,
      "velocity": 124,
      "chip": "ym2612"
    },
    {
      "channel": 1,
      "note": 86,
      "start": 101.4121,
      "duration": 0.1932,
      "velocity": 99,
      "chip": "ym2612"
    },
    {
      "channel": 4,
      "note": 31,
      "start": 101.7419,
      "duration": 0.1303,
      "velocity": 124,
      "chip": "ym2612"
    },
    {
      "channel": 1,
      "note": 78,
      "start": 101.7469,
      "duration": 1.2753,
      "velocity": 99,
      "chip": "ym2612"
    },
    {
      "channel": 4,
      "note": 37,
      "start": 102.3919,
      "duration": 0.1302,
      "velocity": 124,
      "chip": "ym2612"
    },
    {
      "channel": 5,
      "note": 74,
      "start": 102.3951,
      "duration": 0.9938,
      "velocity": 90,
      "chip": "ym2612"
    },
    {
      "channel": 2,
      "note": 39,
      "start": 102.3981,
      "duration": 1.2576,
      "velocity": 90,
      "chip": "ym2612"
    },
    {
      "channel": 4,
      "note": 31,
      "start": 102.7086,
      "duration": 0.1303,
      "velocity": 124,
      "chip": "ym2612"
    },
    {
      "channel": 1,
      "note": 83,
      "start": 103.0263,
      "duration": 0.6291,
      "velocity": 99,
      "chip": "ym2612"
    },
    {
      "channel": 4,
      "note": 37,
      "start": 103.3586,
      "duration": 0.1303,
      "velocity": 124,
      "chip": "ym2612"
    },
    {
      "channel": 5,
      "note": 72,
      "start": 103.4592,
      "duration": 0.0797,
      "velocity": 90,
      "chip": "ym2612"
    },
    {
      "channel": 5,
      "note": 69,
      "start": 103.5754,
      "duration": 0.0802,
      "velocity": 90,
      "chip": "ym2612"
    },
    {
      "channel": 0,
      "note": 45,
      "start": 103.6751,
      "duration": 0.6543,
      "velocity": 109,
      "chip": "ym2612"
    },
    {
      "channel": 4,
      "note": 31,
      "start": 103.6781,
      "duration": 0.1273,
      "velocity": 124,
      "chip": "ym2612"
    },
    {
      "channel": 3,
      "note": 33,
      "start": 103.6822,
      "duration": 2.5566,
      "velocity": 92,
      "chip": "ym2612"
    },
    {
      "channel": 5,
      "note": 75,
      "start": 103.6866,
      "duration": 2.5354,
      "velocity": 90,
      "chip": "ym2612"
    },
    {
      "channel": 1,
      "note": 67,
      "start": 103.6924,
      "duration": 0.6128,
      "velocity": 99,
      "chip": "ym2612"
    },
    {
      "channel": 2,
      "note": 54,
      "start": 103.6963,
      "duration": 1.2426,
      "velocity": 90,
      "chip": "ym2612"
    },
    {
      "channel": 4,
      "note": 37,
      "start": 104.3251,
      "duration": 0.1303,
      "velocity": 124,
      "chip": "ym2612"
    },
    {
      "channel": 1,
      "note": 63,
      "start": 104.3283,
      "duration": 0.6102,
      "velocity": 99,
      "chip": "ym2612"
    },
    {
      "channel": 0,
      "note": 60,
      "start": 104.3315,
      "duration": 0.6069,
      "velocity": 98,
      "chip": "ym2612"
    },
    {
      "channel": 4,
      "note": 31,
      "start": 104.6583,
      "duration": 0.1303,
      "velocity": 124,
      "chip": "ym2612"
    },
    {
      "channel": 1,
      "note": 71,
      "start": 104.9756,
      "duration": 0.6129,
      "velocity": 99,
      "chip": "ym2612"
    },
    {
      "channel": 0,
      "note": 57,
      "start": 104.9782,
      "duration": 0.6101,
      "velocity": 98,
      "chip": "ym2612"
    },
    {
      "channel": 2,
      "note": 52,
      "start": 104.9809,
      "duration": 1.258,
      "velocity": 90,
      "chip": "ym2612"
    },
    {
      "channel": 4,
      "note": 37,
      "start": 105.3083,
      "duration": 0.1303,
      "velocity": 124,
      "chip": "ym2612"
    },
    {
      "channel": 4,
      "note": 31,
      "start": 105.6249,
      "duration": 0.1302,
      "velocity": 124,
      "chip": "ym2612"
    },
    {
      "channel": 1,
      "note": 74,
      "start": 105.6289,
      "duration": 0.4763,
      "velocity": 99,
      "chip": "ym2612"
    },
    {
      "channel": 0,
      "note": 63,
      "start": 105.6315,
      "duration": 0.6069,
      "velocity": 98,
      "chip": "ym2612"
    },
    {
      "channel": 1,
      "note": 72,
      "start": 106.1592,
      "duration": 0.0627,
      "velocity": 99,
      "chip": "ym2612"
    },
    {
      "channel": 1,
      "note": 71,
      "start": 106.2258,
      "duration": 0.0128,
      "velocity": 99,
      "chip": "ym2612"
    },
    {
      "channel": 4,
      "note": 48,
      "start": 106.275,
      "duration": 2.5305,
      "velocity": 109,
      "chip": "ym2612"
    },
    {
      "channel": 5,
      "note": 37,
      "start": 106.2778,
      "duration": 0.1276,
      "velocity": 124,
      "chip": "ym2612"
    },
    {
      "channel": 0,
      "note": 83,
      "start": 106.2827,
      "duration": 2.2059,
      "velocity": 90,
      "chip": "ym2612"
    },
    {
      "channel": 1,
      "note": 69,
      "start": 106.2889,
      "duration": 0.5998,
      "velocity": 99,
      "chip": "ym2612"
    },
    {
      "channel": 3,
      "note": 67,
      "start": 106.2925,
      "duration": 0.4628,
      "velocity": 98,
      "chip": "ym2612"
    },
    {
      "channel": 2,
      "note": 48,
      "start": 106.2951,
      "duration": 1.2439,
      "velocity": 90,
      "chip": "ym2612"
    },
    {
      "channel": 5,
      "note": 31,
      "start": 106.5919,
      "duration": 0.1303,
      "velocity": 124,
      "chip": "ym2612"
    },
    {
      "channel": 3,
      "note": 66,
      "start": 106.8095,
      "duration": 0.0625,
      "velocity": 98,
      "chip": "ym2612"
    },
    {
      "channel": 3,
      "note": 64,
      "start": 106.8761,
      "duration": 0.0127,
      "velocity": 98,
      "chip": "ym2612"
    },
    {
      "channel": 1,
      "note": 66,
      "start": 106.9271,
      "duration": 0.6116,
      "velocity": 99,
      "chip": "ym2612"
    },
    {
      "channel": 3,
      "note": 63,
      "start": 106.9301,
      "duration": 0.6087,
      "velocity": 98,
      "chip": "ym2612"
    },
    {
      "channel": 5,
      "note": 37,
      "start": 107.2419,
      "duration": 0.1303,
      "velocity": 124,
      "chip": "ym2612"
    },
    {
      "channel": 5,
      "note": 31,
      "start": 107.5757,
      "duration": 0.1298,
      "velocity": 124,
      "chip": "ym2612"
    },
    {
      "channel": 1,
      "note": 76,
      "start": 107.5793,
      "duration": 0.2593,
      "velocity": 99,
      "chip": "ym2612"
    },
    {
      "channel": 3,
      "note": 59,
      "start": 107.5819,
      "duration": 0.6069,
      "velocity": 98,
      "chip": "ym2612"
    },
    {
      "channel": 2,
      "note": 45,
      "start": 107.5846,
      "duration": 1.2542,
      "velocity": 90,
      "chip": "ym2612"
    },
    {
      "channel": 1,
      "note": 78,
      "start": 107.8924,
      "duration": 0.263,
      "velocity": 99,
      "chip": "ym2612"
    },
    {
      "channel": 5,
      "note": 37,
      "start": 108.2252,
      "duration": 0.1304,
      "velocity": 124,
      "chip": "ym2612"
    },
    {
      "channel": 1,
      "note": 79,
      "start": 108.2289,
      "duration": 0.2598,
      "velocity": 99,
      "chip": "ym2612"
    },
    {
      "channel": 3,
      "note": 69,
      "start": 108.232,
      "duration": 0.2569,
      "velocity": 98,
      "chip": "ym2612"
    },
    {
      "channel": 1,
      "note": 81,
      "start": 108.493,
      "duration": 0.2956,
      "velocity": 99,
      "chip": "ym2612"
    },
    {
      "channel": 5,
      "note": 31,
      "start": 108.5417,
      "duration": 0.1306,
      "velocity": 124,
      "chip": "ym2612"
    },
    {
      "channel": 0,
      "note": 79,
      "start": 108.5446,
      "duration": 0.1606,
      "velocity": 90,
      "chip": "ym2612"
    },
    {
      "channel": 3,
      "note": 71,
      "start": 108.5476,
      "duration": 0.2577,
      "velocity": 98,
      "chip": "ym2612"
    },
    {
      "channel": 4,
      "note": 47,
      "start": 108.8597,
      "duration": 2.5457,
      "velocity": 109,
      "chip": "ym2612"
    },
    {
      "channel": 5,
      "note": 33,
      "start": 108.866,
      "duration": 2.5562,
      "velocity": 92,
      "chip": "ym2612"
    },
    {
      "channel": 0,
      "note": 78,
      "start": 108.8702,
      "duration": 2.4017,
      "velocity": 90,
      "chip": "ym2612"
    },
    {
      "channel": 1,
      "note": 83,
      "start": 108.8766,
      "duration": 2.362,
      "velocity": 99,
      "chip": "ym2612"
    },
    {
      "channel": 3,
      "note": 72,
      "start": 108.8797,
      "duration": 0.259,
      "velocity": 98,
      "chip": "ym2612"
    },
    {
      "channel": 2,
      "note": 39,
      "start": 108.8824,
      "duration": 1.2564,
      "velocity": 90,
      "chip": "ym2612"
    },
    {
      "channel": 3,
      "note": 37,
      "start": 109.1919,
      "duration": 0.0014,
      "velocity": 124,
      "chip": "ym2612"
    },
    {
      "channel": 3,
      "note": 74,
      "start": 109.1954,
      "duration": 0.2598,
      "velocity": 98,
      "chip": "ym2612"
    },
    {
      "channel": 3,
      "note": 31,
      "start": 109.5086,
      "duration": 0.0019,
      "velocity": 124,
      "chip": "ym2612"
    },
    {
      "channel": 3,
      "note": 75,
      "start": 109.5127,
      "duration": 0.6475,
      "velocity": 98,
      "chip": "ym2612"
    },
    {
      "channel": 2,
      "note": 37,
      "start": 110.1586,
      "duration": 0.1302,
      "velocity": 124,
      "chip": "ym2612"
    },
    {
      "channel": 3,
      "note": 45,
      "start": 110.1621,
      "duration": 1.2599,
      "velocity": 90,
      "chip": "ym2612"
    },
    {
      "channel": 2,
      "note": 31,
      "start": 110.4917,
      "duration": 0.1303,
      "velocity": 124,
      "chip": "ym2612"
    },
    {
      "channel": 2,
      "note": 37,
      "start": 111.1418,
      "duration": 0.1304,
      "velocity": 124,
      "chip": "ym2612"
    },
    {
      "channel": 0,
      "note": 79,
      "start": 111.292,
      "duration": 0.0465,
      "velocity": 90,
      "chip": "ym2612"
    },
    {
      "channel": 1,
      "note": 84,
      "start": 111.2951,
      "duration": 0.0268,
      "velocity": 99,
      "chip": "ym2612"
    },
    {
      "channel": 0,
      "note": 81,
      "start": 111.3418,
      "duration": 0.0633,
      "velocity": 90,
      "chip": "ym2612"
    },
    {
      "channel": 1,
      "note": 85,
      "start": 111.3447,
      "duration": 0.0272,
      "velocity": 99,
      "chip": "ym2612"
    },
    {
      "channel": 0,
      "note": 83,
      "start": 111.4085,
      "duration": 0.0468,
      "velocity": 90,
      "chip": "ym2612"
    },
    {
      "channel": 1,
      "note": 86,
      "start": 111.4113,
      "duration": 0.0106,
      "velocity": 99,
      "chip": "ym2612"
    },
    {
      "channel": 4,
      "note": 47,
      "start": 111.46,
      "duration": 2.5288,
      "velocity": 109,
      "chip": "ym2612"
    },
    {
      "channel": 2,
      "note": 31,
      "start": 111.4633,
      "duration": 0.1257,
      "velocity": 124,
      "chip": "ym2612"
    },
    {
      "channel": 0,
      "note": 84,
      "start": 111.4676,
      "duration": 1.2878,
      "velocity": 90,
      "chip": "ym2612"
    },
    {
      "channel": 1,
      "note": 87,
      "start": 111.4742,
      "duration": 1.248,
      "velocity": 99,
      "chip": "ym2612"
    },
    {
      "channel": 3,
      "note": 35,
      "start": 111.4768,
      "duration": 1.2455,
      "velocity": 90,
      "chip": "ym2612"
    },
    {
      "channel": 5,
      "note": 76,
      "start": 111.9432,
      "duration": 0.0291,
      "velocity": 98,
      "chip": "ym2612"
    },
    {
      "channel": 5,
      "note": 78,
      "start": 111.9928,
      "duration": 0.0294,
      "velocity": 98,
      "chip": "ym2612"
    },
    {
      "channel": 5,
      "note": 79,
      "start": 112.0593,
      "duration": 0.0129,
      "velocity": 98,
      "chip": "ym2612"
    },
    {
      "channel": 2,
      "note": 37,
      "start": 112.1088,
      "duration": 0.1303,
      "velocity": 124,
      "chip": "ym2612"
    },
    {
      "channel": 5,
      "note": 81,
      "start": 112.114,
      "duration": 1.2583,
      "velocity": 98,
      "chip": "ym2612"
    },
    {
      "channel": 2,
      "note": 31,
      "start": 112.4254,
      "duration": 0.1303,
      "velocity": 124,
      "chip": "ym2612"
    },
    {
      "channel": 0,
      "note": 81,
      "start": 112.7589,
      "duration": 1.2297,
      "velocity": 90,
      "chip": "ym2612"
    },
    {
      "channel": 1,
      "note": 81,
      "start": 112.7618,
      "duration": 1.2603,
      "velocity": 99,
      "chip": "ym2612"
    },
    {
      "channel": 3,
      "note": 42,
      "start": 112.7644,
      "duration": 1.2578,
      "velocity": 90,
      "chip": "ym2612"
    },
    {
      "channel": 2,
      "note": 37,
      "start": 113.0754,
      "duration": 0.1303,
      "velocity": 124,
      "chip": "ym2612"
    },
    {
      "channel": 2,
      "note": 31,
      "start": 113.4088,
      "duration": 0.1303,
      "velocity": 124,
      "chip": "ym2612"
    },
    {
      "channel": 5,
      "note": 74,
      "start": 113.4122,
      "duration": 1.26,
      "velocity": 98,
      "chip": "ym2612"
    },
    {
      "channel": 4,
      "note": 45,
      "start": 114.0583,
      "duration": 2.5303,
      "velocity": 109,
      "chip": "ym2612"
    },
    {
      "channel": 2,
      "note": 37,
      "start": 114.0611,
      "duration": 0.1278,
      "velocity": 124,
      "chip": "ym2612"
    },
    {
      "channel": 0,
      "note": 33,
      "start": 114.0653,
      "duration": 0.0113,
      "velocity": 92,
      "chip": "ym2612"
    },
    {
      "channel": 1,
      "note": 83,
      "start": 114.0695,
      "duration": 0.1692,
      "velocity": 90,
      "chip": "ym2612"
    },
    {
      "channel": 3,
      "note": 76,
      "start": 114.0758,
      "duration": 0.163,
      "velocity": 99,
      "chip": "ym2612"
    },
    {
      "channel": 0,
      "note": 36,
      "start": 114.0786,
      "duration": 1.2431,
      "velocity": 90,
      "chip": "ym2612"
    },
    {
      "channel": 1,
      "note": 75,
      "start": 114.2585,
      "duration": 0.1967,
      "velocity": 90,
      "chip": "ym2612"
    },
    {
      "channel": 3,
      "note": 72,
      "start": 114.2615,
      "duration": 0.1939,
      "velocity": 99,
      "chip": "ym2612"
    },
    {
      "channel": 2,
      "note": 31,
      "start": 114.3752,
      "duration": 0.1303,
      "velocity": 124,
      "chip": "ym2612"
    },
    {
      "channel": 1,
      "note": 78,
      "start": 114.4752,
      "duration": 0.1967,
      "velocity": 90,
      "chip": "ym2612"
    },
    {
      "channel": 3,
      "note": 69,
      "start": 114.4781,
      "duration": 0.194,
      "velocity": 99,
      "chip": "ym2612"
    },
    {
      "channel": 1,
      "note": 86,
      "start": 114.6921,
      "duration": 1.2798,
      "velocity": 90,
      "chip": "ym2612"
    },
    {
      "channel": 3,
      "note": 78,
      "start": 114.6954,
      "duration": 1.0765,
      "velocity": 99,
      "chip": "ym2612"
    },
    {
      "channel": 5,
      "note": 70,
      "start": 114.6988,
      "duration": 0.1898,
      "velocity": 98,
      "chip": "ym2612"
    },
    {
      "channel": 5,
      "note": 66,
      "start": 114.9092,
      "duration": 0.1961,
      "velocity": 98,
      "chip": "ym2612"
    },
    {
      "channel": 2,
      "note": 37,
      "start": 115.0251,
      "duration": 0.1304,
      "velocity": 124,
      "chip": "ym2612"
    },
    {
      "channel": 5,
      "note": 62,
      "start": 115.1258,
      "duration": 0.1962,
      "velocity": 98,
      "chip": "ym2612"
    },
    {
      "channel": 2,
      "note": 31,
      "start": 115.3422,
      "duration": 0.1297,
      "velocity": 124,
      "chip": "ym2612"
    },
    {
      "channel": 5,
      "note": 71,
      "start": 115.346,
      "duration": 1.0759,
      "velocity": 98,
      "chip": "ym2612"
    },
    {
      "channel": 0,
      "note": 39,
      "start": 115.3484,
      "duration": 1.2568,
      "velocity": 90,
      "chip": "ym2612"
    },
    {
      "channel": 3,
      "note": 72,
      "start": 115.8259,
      "duration": 0.0293,
      "velocity": 99,
      "chip": "ym2612"
    },
    {
      "channel": 3,
      "note": 73,
      "start": 115.8922,
      "duration": 0.013,
      "velocity": 99,
      "chip": "ym2612"
    },
    {
      "channel": 3,
      "note": 74,
      "start": 115.9423,
      "duration": 0.0298,
      "velocity": 99,
      "chip": "ym2612"
    },
    {
      "channel": 2,
      "note": 37,
      "start": 115.9917,
      "duration": 0.1302,
      "velocity": 124,
      "chip": "ym2612"
    },
    {
      "channel": 1,
      "note": 84,
      "start": 115.9947,
      "duration": 0.6105,
      "velocity": 90,
      "chip": "ym2612"
    },
    {
      "channel": 3,
      "note": 75,
      "start": 115.9983,
      "duration": 0.2902,
      "velocity": 99,
      "chip": "ym2612"
    },
    {
      "channel": 2,
      "note": 31,
      "start": 116.3249,
      "duration": 0.1304,
      "velocity": 124,
      "chip": "ym2612"
    },
    {
      "channel": 3,
      "note": 76,
      "start": 116.3282,
      "duration": 0.2772,
      "velocity": 99,
      "chip": "ym2612"
    },
    {
      "channel": 5,
      "note": 66,
      "start": 116.476,
      "duration": 0.0293,
      "velocity": 98,
      "chip": "ym2612"
    },
    {
      "channel": 5,
      "note": 67,
      "start": 116.5424,
      "duration": 0.0128,
      "velocity": 98,
      "chip": "ym2612"
    },
    {
      "channel": 5,
      "note": 68,
      "start": 116.5925,
      "duration": 0.013,
      "velocity": 98,
      "chip": "ym2612"
    },
    {
      "channel": 4,
      "note": 48,
      "start": 116.6413,
      "duration": 2.5308,
      "velocity": 109,
      "chip": "ym2612"
    },
    {
      "channel": 1,
      "note": 81,
      "start": 116.6478,
      "duration": 0.2076,
      "velocity": 90,
      "chip": "ym2612"
    },
    {
      "channel": 3,
      "note": 78,
      "start": 116.6532,
      "duration": 0.2522,
      "velocity": 99,
      "chip": "ym2612"
    },
    {
      "channel": 5,
      "note": 69,
      "start": 116.6571,
      "duration": 0.2817,
      "velocity": 98,
      "chip": "ym2612"
    },
    {
      "channel": 0,
      "note": 45,
      "start": 116.6597,
      "duration": 1.1957,
      "velocity": 90,
      "chip": "ym2612"
    },
    {
      "channel": 2,
      "note": 37,
      "start": 116.9753,
      "duration": 0.1302,
      "velocity": 124,
      "chip": "ym2612"
    },
    {
      "channel": 3,
      "note": 79,
      "start": 116.9785,
      "duration": 0.2601,
      "velocity": 99,
      "chip": "ym2612"
    },
    {
      "channel": 5,
      "note": 70,
      "start": 116.9817,
      "duration": 0.2737,
      "velocity": 98,
      "chip": "ym2612"
    },
    {
      "channel": 1,
      "note": 84,
      "start": 117.0752,
      "duration": 0.2134,
      "velocity": 90,
      "chip": "ym2612"
    },
    {
      "channel": 2,
      "note": 31,
      "start": 117.292,
      "duration": 0.1302,
      "velocity": 124,
      "chip": "ym2612"
    },
    {
      "channel": 3,
      "note": 81,
      "start": 117.2967,
      "duration": 0.2587,
      "velocity": 99,
      "chip": "ym2612"
    },
    {
      "channel": 5,
      "note": 71,
      "start": 117.2997,
      "duration": 0.2559,
      "velocity": 98,
      "chip": "ym2612"
    },
    {
      "channel": 1,
      "note": 78,
      "start": 117.5091,
      "duration": 1.6962,
      "velocity": 90,
      "chip": "ym2612"
    },
    {
      "channel": 3,
      "note": 83,
      "start": 117.6092,
      "duration": 0.2795,
      "velocity": 99,
      "chip": "ym2612"
    },
    {
      "channel": 5,
      "note": 72,
      "start": 117.612,
      "duration": 0.2769,
      "velocity": 98,
      "chip": "ym2612"
    },
    {
      "channel": 2,
      "note": 37,
      "start": 117.942,
      "duration": 0.1302,
      "velocity": 124,
      "chip": "ym2612"
    },
    {
      "channel": 3,
      "note": 86,
      "start": 117.9456,
      "duration": 0.4431,
      "velocity": 99,
      "chip": "ym2612"
    },
    {
      "channel": 5,
      "note": 74,
      "start": 117.9484,
      "duration": 0.2571,
      "velocity": 98,
      "chip": "ym2612"
    },
    {
      "channel": 0,
      "note": 42,
      "start": 117.951,
      "duration": 1.2542,
      "velocity": 90,
      "chip": "ym2612"
    },
    {
      "channel": 2,
      "note": 31,
      "start": 118.2586,
      "duration": 0.1303,
      "velocity": 124,
      "chip": "ym2612"
    },
    {
      "channel": 5,
      "note": 75,
      "start": 118.262,
      "duration": 0.2602,
      "velocity": 98,
      "chip": "ym2612"
    },
    {
      "channel": 3,
      "note": 84,
      "start": 118.4262,
      "duration": 0.0292,
      "velocity": 99,
      "chip": "ym2612"
    },
    {
      "channel": 3,
      "note": 83,
      "start": 118.4759,
      "duration": 0.0296,
      "velocity": 99,
      "chip": "ym2612"
    },
    {
      "channel": 3,
      "note": 82,
      "start": 118.5259,
      "duration": 0.0296,
      "velocity": 99,
      "chip": "ym2612"
    },
    {
      "channel": 3,
      "note": 81,
      "start": 118.5932,
      "duration": 0.2956,
      "velocity": 99,
      "chip": "ym2612"
    },
    {
      "channel": 5,
      "note": 79,
      "start": 118.5963,
      "duration": 0.4427,
      "velocity": 98,
      "chip": "ym2612"
    },
    {
      "channel": 2,
      "note": 37,
      "start": 118.9087,
      "duration": 0.1304,
      "velocity": 124,
      "chip": "ym2612"
    },
    {
      "channel": 3,
      "note": 84,
      "start": 118.9122,
      "duration": 0.4597,
      "velocity": 99,
      "chip": "ym2612"
    },
    {
      "channel": 5,
      "note": 78,
      "start": 119.0762,
      "duration": 0.0293,
      "velocity": 98,
      "chip": "ym2612"
    },
    {
      "channel": 5,
      "note": 77,
      "start": 119.1259,
      "duration": 0.0295,
      "velocity": 98,
      "chip": "ym2612"
    },
    {
      "channel": 5,
      "note": 76,
      "start": 119.1761,
      "duration": 0.0294,
      "velocity": 98,
      "chip": "ym2612"
    },
    {
      "channel": 4,
      "note": 39,
      "start": 119.2415,
      "duration": 2.5305,
      "velocity": 109,
      "chip": "ym2612"
    },
    {
      "channel": 2,
      "note": 31,
      "start": 119.2446,
      "duration": 0.1276,
      "velocity": 124,
      "chip": "ym2612"
    },
    {
      "channel": 0,
      "note": 33,
      "start": 119.2488,
      "duration": 0.0115,
      "velocity": 92,
      "chip": "ym2612"
    },
    {
      "channel": 1,
      "note": 79,
      "start": 119.2529,
      "duration": 1.269,
      "velocity": 90,
      "chip": "ym2612"
    },
    {
      "channel": 5,
      "note": 75,
      "start": 119.2597,
      "duration": 0.2626,
      "velocity": 98,
      "chip": "ym2612"
    },
    {
      "channel": 0,
      "note": 51,
      "start": 119.2623,
      "duration": 1.2429,
      "velocity": 90,
      "chip": "ym2612"
    },
    {
      "channel": 3,
      "note": 83,
      "start": 119.3927,
      "duration": 0.0293,
      "velocity": 99,
      "chip": "ym2612"
    },
    {
      "channel": 3,
      "note": 81,
      "start": 119.4591,
      "duration": 0.0129,
      "velocity": 99,
      "chip": "ym2612"
    },
    {
      "channel": 3,
      "note": 79,
      "start": 119.509,
      "duration": 0.0131,
      "velocity": 99,
      "chip": "ym2612"
    },
    {
      "channel": 3,
      "note": 78,
      "start": 119.5592,
      "duration": 0.2961,
      "velocity": 99,
      "chip": "ym2612"
    },
    {
      "channel": 5,
      "note": 78,
      "start": 119.5623,
      "duration": 0.4597,
      "velocity": 98,
      "chip": "ym2612"
    },
    {
      "channel": 2,
      "note": 37,
      "start": 119.8751,
      "duration": 0.1471,
      "velocity": 124,
      "chip": "ym2612"
    },
    {
      "channel": 3,
      "note": 79,
      "start": 119.879,
      "duration": 0.9262,
      "velocity": 99,
      "chip": "ym2612"
    },
    {
      "channel": 5,
      "note": 75,
      "start": 120.0429,
      "duration": 0.0292,
      "velocity": 98,
      "chip": "ym2612"
    },
    {
      "channel": 5,
      "note": 74,
      "start": 120.0925,
      "duration": 0.0295,
      "velocity": 98,
      "chip": "ym2612"
    },
    {
      "channel": 5,
      "note": 72,
      "start": 120.1591,
      "duration": 0.0129,
      "velocity": 98,
      "chip": "ym2612"
    },
    {
      "channel": 2,
      "note": 31,
      "start": 120.2085,
      "duration": 0.1302,
      "velocity": 124,
      "chip": "ym2612"
    },
    {
      "channel": 5,
      "note": 71,
      "start": 120.2122,
      "duration": 0.2933,
      "velocity": 98,
      "chip": "ym2612"
    },
    {
      "channel": 1,
      "note": 81,
      "start": 120.5254,
      "duration": 0.9463,
      "velocity": 90,
      "chip": "ym2612"
    },
    {
      "channel": 5,
      "note": 72,
      "start": 120.5289,
      "duration": 0.9097,
      "velocity": 98,
      "chip": "ym2612"
    },
    {
      "channel": 0,
      "note": 47,
      "start": 120.532,
      "duration": 0.623,
      "velocity": 90,
      "chip": "ym2612"
    },
    {
      "channel": 3,
      "note": 83,
      "start": 120.8093,
      "duration": 0.2625,
      "velocity": 99,
      "chip": "ym2612"
    },
    {
      "channel": 2,
      "note": 37,
      "start": 120.8584,
      "duration": 0.1302,
      "velocity": 124,
      "chip": "ym2612"
    },
    {
      "channel": 2,
      "note": 31,
      "start": 121.1752,
      "duration": 0.1302,
      "velocity": 124,
      "chip": "ym2612"
    },
    {
      "channel": 3,
      "note": 81,
      "start": 121.1788,
      "duration": 0.9766,
      "velocity": 99,
      "chip": "ym2612"
    },
    {
      "channel": 0,
      "note": 42,
      "start": 121.1813,
      "duration": 0.6238,
      "velocity": 90,
      "chip": "ym2612"
    },
    {
      "channel": 5,
      "note": 75,
      "start": 121.4432,
      "duration": 0.2788,
      "velocity": 98,
      "chip": "ym2612"
    },
    {
      "channel": 1,
      "note": 83,
      "start": 121.509,
      "duration": 0.0961,
      "velocity": 90,
      "chip": "ym2612"
    },
    {
      "channel": 1,
      "note": 81,
      "start": 121.6085,
      "duration": 0.08,
      "velocity": 90,
      "chip": "ym2612"
    },
    {
      "channel": 1,
      "note": 79,
      "start": 121.7251,
      "duration": 0.0801,
      "velocity": 90,
      "chip": "ym2612"
    },
    {
      "channel": 4,
      "note": 47,
      "start": 121.8262,
      "duration": 2.5293,
      "velocity": 109,
      "chip": "ym2612"
    },
    {
      "channel": 2,
      "note": 37,
      "start": 121.8291,
      "duration": 0.1265,
      "velocity": 124,
      "chip": "ym2612"
    },
    {
      "channel": 1,
      "note": 78,
      "start": 121.8331,
      "duration": 1.2558,
      "velocity": 90,
      "chip": "ym2612"
    },
    {
      "channel": 5,
      "note": 74,
      "start": 121.8396,
      "duration": 0.9494,
      "velocity": 98,
      "chip": "ym2612"
    },
    {
      "channel": 0,
      "note": 35,
      "start": 121.8424,
      "duration": 1.2463,
      "velocity": 90,
      "chip": "ym2612"
    },
    {
      "channel": 2,
      "note": 31,
      "start": 122.1587,
      "duration": 0.1303,
      "velocity": 124,
      "chip": "ym2612"
    },
    {
      "channel": 3,
      "note": 86,
      "start": 122.1623,
      "duration": 0.1765,
      "velocity": 99,
      "chip": "ym2612"
    },
    {
      "channel": 3,
      "note": 78,
      "start": 122.4777,
      "duration": 1.2946,
      "velocity": 99,
      "chip": "ym2612"
    },
    {
      "channel": 2,
      "note": 37,
      "start": 122.7922,
      "duration": 0.1469,
      "velocity": 124,
      "chip": "ym2612"
    },
    {
      "channel": 5,
      "note": 79,
      "start": 122.7959,
      "duration": 0.1931,
      "velocity": 98,
      "chip": "ym2612"
    },
    {
      "channel": 2,
      "note": 31,
      "start": 123.1258,
      "duration": 0.1298,
      "velocity": 124,
      "chip": "ym2612"
    },
    {
      "channel": 1,
      "note": 74,
      "start": 123.1289,
      "duration": 0.9933,
      "velocity": 90,
      "chip": "ym2612"
    },
    {
      "channel": 5,
      "note": 71,
      "start": 123.1324,
      "duration": 1.2896,
      "velocity": 98,
      "chip": "ym2612"
    },
    {
      "channel": 0,
      "note": 39,
      "start": 123.1349,
      "duration": 1.2537,
      "velocity": 90,
      "chip": "ym2612"
    },
    {
      "channel": 2,
      "note": 37,
      "start": 123.7756,
      "duration": 0.1301,
      "velocity": 124,
      "chip": "ym2612"
    },
    {
      "channel": 3,
      "note": 83,
      "start": 123.7791,
      "duration": 0.6098,
      "velocity": 99,
      "chip": "ym2612"
    },
    {
      "channel": 2,
      "note": 31,
      "start": 124.0919,
      "duration": 0.1305,
      "velocity": 124,
      "chip": "ym2612"
    },
    {
      "channel": 1,
      "note": 72,
      "start": 124.209,
      "duration": 0.0796,
      "velocity": 90,
      "chip": "ym2612"
    },
    {
      "channel": 1,
      "note": 69,
      "start": 124.3086,
      "duration": 0.0802,
      "velocity": 90,
      "chip": "ym2612"
    },
    {
      "channel": 4,
      "note": 45,
      "start": 124.425,
      "duration": 2.5302,
      "velocity": 109,
      "chip": "ym2612"
    },
    {
      "channel": 2,
      "note": 33,
      "start": 124.4314,
      "duration": 2.5574,
      "velocity": 92,
      "chip": "ym2612"
    },
    {
      "channel": 1,
      "note": 83,
      "start": 124.4357,
      "duration": 0.1697,
      "velocity": 90,
      "chip": "ym2612"
    },
    {
      "channel": 3,
      "note": 76,
      "start": 124.4467,
      "duration": 0.1588,
      "velocity": 99,
      "chip": "ym2612"
    },
    {
      "channel": 0,
      "note": 36,
      "start": 124.4492,
      "duration": 1.2394,
      "velocity": 90,
      "chip": "ym2612"
    },
    {
      "channel": 1,
      "note": 75,
      "start": 124.6419,
      "duration": 0.18,
      "velocity": 90,
      "chip": "ym2612"
    },
    {
      "channel": 3,
      "note": 72,
      "start": 124.6448,
      "duration": 0.1773,
      "velocity": 99,
      "chip": "ym2612"
    },
    {
      "channel": 5,
      "note": 37,
      "start": 124.7418,
      "duration": 0.1303,
      "velocity": 124,
      "chip": "ym2612"
    },
    {
      "channel": 1,
      "note": 78,
      "start": 124.8585,
      "duration": 0.1802,
      "velocity": 90,
      "chip": "ym2612"
    },
    {
      "channel": 3,
      "note": 69,
      "start": 124.8614,
      "duration": 0.1774,
      "velocity": 99,
      "chip": "ym2612"
    },
    {
      "channel": 5,
      "note": 31,
      "start": 125.0751,
      "duration": 0.1303,
      "velocity": 124,
      "chip": "ym2612"
    },
    {
      "channel": 1,
      "note": 86,
      "start": 125.0781,
      "duration": 1.2604,
      "velocity": 90,
      "chip": "ym2612"
    },
    {
      "channel": 3,
      "note": 78,
      "start": 125.0814,
      "duration": 1.0571,
      "velocity": 99,
      "chip": "ym2612"
    },
    {
      "channel": 5,
      "note": 37,
      "start": 125.7084,
      "duration": 0.1469,
      "velocity": 124,
      "chip": "ym2612"
    },
    {
      "channel": 0,
      "note": 39,
      "start": 125.7116,
      "duration": 1.2768,
      "velocity": 90,
      "chip": "ym2612"
    },
    {
      "channel": 5,
      "note": 31,
      "start": 126.0417,
      "duration": 0.1303,
      "velocity": 124,
      "chip": "ym2612"
    },
    {
      "channel": 3,
      "note": 72,
      "start": 126.2092,
      "duration": 0.0127,
      "velocity": 99,
      "chip": "ym2612"
    },
    {
      "channel": 3,
      "note": 73,
      "start": 126.2588,
      "duration": 0.013,
      "velocity": 99,
      "chip": "ym2612"
    },
    {
      "channel": 3,
      "note": 74,
      "start": 126.3089,
      "duration": 0.0297,
      "velocity": 99,
      "chip": "ym2612"
    },
    {
      "channel": 1,
      "note": 84,
      "start": 126.3586,
      "duration": 0.6299,
      "velocity": 90,
      "chip": "ym2612"
    },
    {
      "channel": 3,
      "note": 75,
      "start": 126.3618,
      "duration": 0.2933,
      "velocity": 99,
      "chip": "ym2612"
    },
    {
      "channel": 5,
      "note": 37,
      "start": 126.6916,
      "duration": 0.1304,
      "velocity": 124,
      "chip": "ym2612"
    },
    {
      "channel": 3,
      "note": 76,
      "start": 126.6952,
      "duration": 0.2934,
      "velocity": 99,
      "chip": "ym2612"
    },
    {
      "channel": 4,
      "note": 47,
      "start": 127.0079,
      "duration": 2.5475,
      "velocity": 109,
      "chip": "ym2612"
    },
    {
      "channel": 5,
      "note": 31,
      "start": 127.0111,
      "duration": 0.1277,
      "velocity": 124,
      "chip": "ym2612"
    },
    {
      "channel": 1,
      "note": 84,
      "start": 127.0151,
      "duration": 0.1902,
      "velocity": 90,
      "chip": "ym2612"
    },
    {
      "channel": 3,
      "note": 77,
      "start": 127.0214,
      "duration": 0.184,
      "velocity": 99,
      "chip": "ym2612"
    },
    {
      "channel": 0,
      "note": 38,
      "start": 127.0239,
      "duration": 1.2482,
      "velocity": 90,
      "chip": "ym2612"
    },
    {
      "channel": 1,
      "note": 78,
      "start": 127.2252,
      "duration": 0.1968,
      "velocity": 90,
      "chip": "ym2612"
    },
    {
      "channel": 3,
      "note": 73,
      "start": 127.2281,
      "duration": 0.194,
      "velocity": 99,
      "chip": "ym2612"
    },
    {
      "channel": 1,
      "note": 79,
      "start": 127.4419,
      "duration": 0.1968,
      "velocity": 90,
      "chip": "ym2612"
    },
    {
      "channel": 3,
      "note": 69,
      "start": 127.4448,
      "duration": 0.194,
      "velocity": 99,
      "chip": "ym2612"
    },
    {
      "channel": 5,
      "note": 37,
      "start": 127.6585,
      "duration": 0.1303,
      "velocity": 124,
      "chip": "ym2612"
    },
    {
      "channel": 1,
      "note": 87,
      "start": 127.6619,
      "duration": 1.2601,
      "velocity": 90,
      "chip": "ym2612"
    },
    {
      "channel": 3,
      "note": 79,
      "start": 127.6669,
      "duration": 1.0717,
      "velocity": 99,
      "chip": "ym2612"
    },
    {
      "channel": 5,
      "note": 31,
      "start": 127.9919,
      "duration": 0.1303,
      "velocity": 124,
      "chip": "ym2612"
    },
    {
      "channel": 0,
      "note": 42,
      "start": 128.309,
      "duration": 1.2629,
      "velocity": 90,
      "chip": "ym2612"
    },
    {
      "channel": 5,
      "note": 37,
      "start": 128.6251,
      "duration": 0.1471,
      "velocity": 124,
      "chip": "ym2612"
    },
    {
      "channel": 3,
      "note": 74,
      "start": 128.7929,
      "duration": 0.0293,
      "velocity": 99,
      "chip": "ym2612"
    },
    {
      "channel": 3,
      "note": 75,
      "start": 128.8424,
      "duration": 0.0297,
      "velocity": 99,
      "chip": "ym2612"
    },
    {
      "channel": 3,
      "note": 77,
      "start": 128.9092,
      "duration": 0.013,
      "velocity": 99,
      "chip": "ym2612"
    },
    {
      "channel": 5,
      "note": 31,
      "start": 128.9585,
      "duration": 0.1303,
      "velocity": 124,
      "chip": "ym2612"
    },
    {
      "channel": 1,
      "note": 86,
      "start": 128.9615,
      "duration": 0.6106,
      "velocity": 90,
      "chip": "ym2612"
    },
    {
      "channel": 3,
      "note": 78,
      "start": 128.9651,
      "duration": 0.2903,
      "velocity": 99,
      "chip": "ym2612"
    },
    {
      "channel": 3,
      "note": 77,
      "start": 129.2758,
      "duration": 0.2964,
      "velocity": 99,
      "chip": "ym2612"
    },
    {
      "channel": 4,
      "note": 51,
      "start": 129.61,
      "duration": 2.5285,
      "velocity": 109,
      "chip": "ym2612"
    },
    {
      "channel": 5,
      "note": 37,
      "start": 129.6128,
      "duration": 0.1261,
      "velocity": 124,
      "chip": "ym2612"
    },
    {
      "channel": 2,
      "note": 33,
      "start": 129.617,
      "duration": 2.5552,
      "velocity": 92,
      "chip": "ym2612"
    },
    {
      "channel": 1,
      "note": 89,
      "start": 129.6217,
      "duration": 0.1669,
      "velocity": 90,
      "chip": "ym2612"
    },
    {
      "channel": 3,
      "note": 81,
      "start": 129.6277,
      "duration": 0.1611,
      "velocity": 99,
      "chip": "ym2612"
    },
    {
      "channel": 0,
      "note": 37,
      "start": 129.6301,
      "duration": 1.2418,
      "velocity": 90,
      "chip": "ym2612"
    },
    {
      "channel": 1,
      "note": 83,
      "start": 129.8252,
      "duration": 0.1801,
      "velocity": 90,
      "chip": "ym2612"
    },
    {
      "channel": 3,
      "note": 77,
      "start": 129.8282,
      "duration": 0.1773,
      "velocity": 99,
      "chip": "ym2612"
    },
    {
      "channel": 5,
      "note": 31,
      "start": 129.9252,
      "duration": 0.1303,
      "velocity": 124,
      "chip": "ym2612"
    },
    {
      "channel": 1,
      "note": 79,
      "start": 130.0419,
      "duration": 0.18,
      "velocity": 90,
      "chip": "ym2612"
    },
    {
      "channel": 3,
      "note": 73,
      "start": 130.0448,
      "duration": 0.1772,
      "velocity": 99,
      "chip": "ym2612"
    },
    {
      "channel": 1,
      "note": 90,
      "start": 130.2588,
      "duration": 1.2632,
      "velocity": 90,
      "chip": "ym2612"
    },
    {
      "channel": 3,
      "note": 82,
      "start": 130.2621,
      "duration": 1.0598,
      "velocity": 99,
      "chip": "ym2612"
    },
    {
      "channel": 5,
      "note": 37,
      "start": 130.5751,
      "duration": 0.1304,
      "velocity": 124,
      "chip": "ym2612"
    },
    {
      "channel": 5,
      "note": 31,
      "start": 130.9089,
      "duration": 0.1299,
      "velocity": 124,
      "chip": "ym2612"
    },
    {
      "channel": 0,
      "note": 36,
      "start": 130.9121,
      "duration": 1.2597,
      "velocity": 90,
      "chip": "ym2612"
    },
    {
      "channel": 3,
      "note": 77,
      "start": 131.3926,
      "duration": 0.0127,
      "velocity": 99,
      "chip": "ym2612"
    },
    {
      "channel": 3,
      "note": 78,
      "start": 131.4424,
      "duration": 0.0295,
      "velocity": 99,
      "chip": "ym2612"
    },
    {
      "channel": 3,
      "note": 79,
      "start": 131.4924,
      "duration": 0.0297,
      "velocity": 99,
      "chip": "ym2612"
    },
    {
      "channel": 5,
      "note": 37,
      "start": 131.5417,
      "duration": 0.147,
      "velocity": 124,
      "chip": "ym2612"
    },
    {
      "channel": 1,
      "note": 89,
      "start": 131.5446,
      "duration": 0.6273,
      "velocity": 90,
      "chip": "ym2612"
    },
    {
      "channel": 3,
      "note": 81,
      "start": 131.5483,
      "duration": 0.2904,
      "velocity": 99,
      "chip": "ym2612"
    },
    {
      "channel": 5,
      "note": 31,
      "start": 131.8749,
      "duration": 0.1305,
      "velocity": 124,
      "chip": "ym2612"
    },
    {
      "channel": 3,
      "note": 80,
      "start": 131.8781,
      "duration": 0.2939,
      "velocity": 99,
      "chip": "ym2612"
    },
    {
      "channel": 4,
      "note": 45,
      "start": 132.1915,
      "duration": 2.5471,
      "velocity": 109,
      "chip": "ym2612"
    },
    {
      "channel": 1,
      "note": 86,
      "start": 132.1982,
      "duration": 2.4071,
      "velocity": 90,
      "chip": "ym2612"
    },
    {
      "channel": 3,
      "note": 77,
      "start": 132.2048,
      "duration": 2.5006,
      "velocity": 99,
      "chip": "ym2612"
    },
    {
      "channel": 0,
      "note": 35,
      "start": 132.2083,
      "duration": 2.4969,
      "velocity": 90,
      "chip": "ym2612"
    },
    {
      "channel": 5,
      "note": 37,
      "start": 132.5252,
      "duration": 0.1304,
      "velocity": 124,
      "chip": "ym2612"
    },
    {
      "channel": 5,
      "note": 31,
      "start": 132.8419,
      "duration": 0.1303,
      "velocity": 124,
      "chip": "ym2612"
    },
    {
      "channel": 5,
      "note": 37,
      "start": 133.4919,
      "duration": 0.1302,
      "velocity": 124,
      "chip": "ym2612"
    },
    {
      "channel": 5,
      "note": 31,
      "start": 133.8251,
      "duration": 0.1304,
      "velocity": 124,
      "chip": "ym2612"
    },
    {
      "channel": 5,
      "note": 37,
      "start": 134.4585,
      "duration": 0.1471,
      "velocity": 124,
      "chip": "ym2612"
    },
    {
      "channel": 4,
      "note": 48,
      "start": 134.7915,
      "duration": 2.5304,
      "velocity": 109,
      "chip": "ym2612"
    },
    {
      "channel": 5,
      "note": 31,
      "start": 134.7946,
      "duration": 0.1275,
      "velocity": 124,
      "chip": "ym2612"
    },
    {
      "channel": 2,
      "note": 33,
      "start": 134.7988,
      "duration": 2.5567,
      "velocity": 92,
      "chip": "ym2612"
    },
    {
      "channel": 1,
      "note": 83,
      "start": 134.8029,
      "duration": 0.1691,
      "velocity": 90,
      "chip": "ym2612"
    },
    {
      "channel": 3,
      "note": 76,
      "start": 134.809,
      "duration": 0.1631,
      "velocity": 99,
      "chip": "ym2612"
    },
    {
      "channel": 0,
      "note": 36,
      "start": 134.8119,
      "duration": 1.2433,
      "velocity": 90,
      "chip": "ym2612"
    },
    {
      "channel": 1,
      "note": 75,
      "start": 135.0085,
      "duration": 0.1801,
      "velocity": 90,
      "chip": "ym2612"
    },
    {
      "channel": 3,
      "note": 72,
      "start": 135.0114,
      "duration": 0.1773,
      "velocity": 99,
      "chip": "ym2612"
    },
    {
      "channel": 1,
      "note": 78,
      "start": 135.2251,
      "duration": 0.1801,
      "velocity": 90,
      "chip": "ym2612"
    },
    {
      "channel": 3,
      "note": 69,
      "start": 135.228,
      "duration": 0.1773,
      "velocity": 99,
      "chip": "ym2612"
    },
    {
      "channel": 5,
      "note": 37,
      "start": 135.4417,
      "duration": 0.1303,
      "velocity": 124,
      "chip": "ym2612"
    },
    {
      "channel": 1,
      "note": 86,
      "start": 135.4447,
      "duration": 1.2604,
      "velocity": 90,
      "chip": "ym2612"
    },
    {
      "channel": 3,
      "note": 78,
      "start": 135.448,
      "duration": 1.0739,
      "velocity": 99,
      "chip": "ym2612"
    },
    {
      "channel": 5,
      "note": 31,
      "start": 135.7583,
      "duration": 0.1304,
      "velocity": 124,
      "chip": "ym2612"
    },
    {
      "channel": 0,
      "note": 39,
      "start": 136.0922,
      "duration": 1.2629,
      "velocity": 90,
      "chip": "ym2612"
    },
    {
      "channel": 5,
      "note": 37,
      "start": 136.4083,
      "duration": 0.1303,
      "velocity": 124,
      "chip": "ym2612"
    },
    {
      "channel": 3,
      "note": 72,
      "start": 136.5763,
      "duration": 0.0122,
      "velocity": 99,
      "chip": "ym2612"
    },
    {
      "channel": 3,
      "note": 73,
      "start": 136.6255,
      "duration": 0.0297,
      "velocity": 99,
      "chip": "ym2612"
    },
    {
      "channel": 3,
      "note": 74,
      "start": 136.6756,
      "duration": 0.0297,
      "velocity": 99,
      "chip": "ym2612"
    },
    {
      "channel": 5,
      "note": 31,
      "start": 136.7416,
      "duration": 0.1303,
      "velocity": 124,
      "chip": "ym2612"
    },
    {
      "channel": 1,
      "note": 84,
      "start": 136.7445,
      "duration": 0.6107,
      "velocity": 90,
      "chip": "ym2612"
    },
    {
      "channel": 3,
      "note": 75,
      "start": 136.7478,
      "duration": 0.2741,
      "velocity": 99,
      "chip": "ym2612"
    },
    {
      "channel": 3,
      "note": 76,
      "start": 137.0589,
      "duration": 0.2964,
      "velocity": 99,
      "chip": "ym2612"
    },
    {
      "channel": 4,
      "note": 47,
      "start": 137.3747,
      "duration": 2.5475,
      "velocity": 109,
      "chip": "ym2612"
    },
    {
      "channel": 5,
      "note": 37,
      "start": 137.3774,
      "duration": 0.1446,
      "velocity": 124,
      "chip": "ym2612"
    },
    {
      "channel": 1,
      "note": 84,
      "start": 137.3817,
      "duration": 0.1903,
      "velocity": 90,
      "chip": "ym2612"
    },
    {
      "channel": 3,
      "note": 77,
      "start": 137.388,
      "duration": 0.1841,
      "velocity": 99,
      "chip": "ym2612"
    },
    {
      "channel": 0,
      "note": 38,
      "start": 137.3906,
      "duration": 1.2648,
      "velocity": 90,
      "chip": "ym2612"
    },
    {
      "channel": 1,
      "note": 78,
      "start": 137.5919,
      "duration": 0.1967,
      "velocity": 90,
      "chip": "ym2612"
    },
    {
      "channel": 3,
      "note": 73,
      "start": 137.5948,
      "duration": 0.194,
      "velocity": 99,
      "chip": "ym2612"
    },
    {
      "channel": 5,
      "note": 31,
      "start": 137.7085,
      "duration": 0.1303,
      "velocity": 124,
      "chip": "ym2612"
    },
    {
      "channel": 1,
      "note": 79,
      "start": 137.8085,
      "duration": 0.1968,
      "velocity": 90,
      "chip": "ym2612"
    },
    {
      "channel": 3,
      "note": 69,
      "start": 137.8114,
      "duration": 0.194,
      "velocity": 99,
      "chip": "ym2612"
    },
    {
      "channel": 1,
      "note": 87,
      "start": 138.0255,
      "duration": 1.2632,
      "velocity": 90,
      "chip": "ym2612"
    },
    {
      "channel": 3,
      "note": 79,
      "start": 138.0306,
      "duration": 1.0747,
      "velocity": 99,
      "chip": "ym2612"
    },
    {
      "channel": 5,
      "note": 37,
      "start": 138.3586,
      "duration": 0.1303,
      "velocity": 124,
      "chip": "ym2612"
    },
    {
      "channel": 5,
      "note": 31,
      "start": 138.6756,
      "duration": 0.1298,
      "velocity": 124,
      "chip": "ym2612"
    },
    {
      "channel": 0,
      "note": 42,
      "start": 138.6788,
      "duration": 1.2598,
      "velocity": 90,
      "chip": "ym2612"
    },
    {
      "channel": 3,
      "note": 74,
      "start": 139.1595,
      "duration": 0.0294,
      "velocity": 99,
      "chip": "ym2612"
    },
    {
      "channel": 3,
      "note": 75,
      "start": 139.2258,
      "duration": 0.013,
      "velocity": 99,
      "chip": "ym2612"
    },
    {
      "channel": 3,
      "note": 77,
      "start": 139.2758,
      "duration": 0.013,
      "velocity": 99,
      "chip": "ym2612"
    },
    {
      "channel": 5,
      "note": 37,
      "start": 139.3252,
      "duration": 0.1303,
      "velocity": 124,
      "chip": "ym2612"
    },
    {
      "channel": 1,
      "note": 86,
      "start": 139.3282,
      "duration": 0.6104,
      "velocity": 90,
      "chip": "ym2612"
    },
    {
      "channel": 3,
      "note": 78,
      "start": 139.3315,
      "duration": 0.2906,
      "velocity": 99,
      "chip": "ym2612"
    },
    {
      "channel": 5,
      "note": 31,
      "start": 139.6584,
      "duration": 0.1305,
      "velocity": 124,
      "chip": "ym2612"
    },
    {
      "channel": 3,
      "note": 77,
      "start": 139.6616,
      "duration": 0.2772,
      "velocity": 99,
      "chip": "ym2612"
    },
    {
      "channel": 4,
      "note": 51,
      "start": 139.9763,
      "duration": 2.5291,
      "velocity": 109,
      "chip": "ym2612"
    },
    {
      "channel": 2,
      "note": 33,
      "start": 139.9827,
      "duration": 2.5562,
      "velocity": 92,
      "chip": "ym2612"
    },
    {
      "channel": 1,
      "note": 89,
      "start": 139.9867,
      "duration": 0.1687,
      "velocity": 90,
      "chip": "ym2612"
    },
    {
      "channel": 3,
      "note": 81,
      "start": 139.9929,
      "duration": 0.1627,
      "velocity": 99,
      "chip": "ym2612"
    },
    {
      "channel": 0,
      "note": 37,
      "start": 139.9954,
      "duration": 1.2431,
      "velocity": 90,
      "chip": "ym2612"
    },
    {
      "channel": 1,
      "note": 83,
      "start": 140.1919,
      "duration": 0.1802,
      "velocity": 90,
      "chip": "ym2612"
    },
    {
      "channel": 3,
      "note": 77,
      "start": 140.1948,
      "duration": 0.1774,
      "velocity": 99,
      "chip": "ym2612"
    },
    {
      "channel": 5,
      "note": 37,
      "start": 140.2918,
      "duration": 0.1471,
      "velocity": 124,
      "chip": "ym2612"
    },
    {
      "channel": 1,
      "note": 79,
      "start": 140.4085,
      "duration": 0.1801,
      "velocity": 90,
      "chip": "ym2612"
    },
    {
      "channel": 3,
      "note": 73,
      "start": 140.4114,
      "duration": 0.1773,
      "velocity": 99,
      "chip": "ym2612"
    },
    {
      "channel": 5,
      "note": 31,
      "start": 140.6252,
      "duration": 0.1303,
      "velocity": 124,
      "chip": "ym2612"
    },
    {
      "channel": 1,
      "note": 90,
      "start": 140.6285,
      "duration": 1.26,
      "velocity": 90,
      "chip": "ym2612"
    },
    {
      "channel": 3,
      "note": 82,
      "start": 140.6322,
      "duration": 1.0732,
      "velocity": 99,
      "chip": "ym2612"
    },
    {
      "channel": 5,
      "note": 37,
      "start": 141.2751,
      "duration": 0.1302,
      "velocity": 124,
      "chip": "ym2612"
    },
    {
      "channel": 0,
      "note": 35,
      "start": 141.2782,
      "duration": 1.2602,
      "velocity": 90,
      "chip": "ym2612"
    },
    {
      "channel": 5,
      "note": 31,
      "start": 141.5917,
      "duration": 0.1304,
      "velocity": 124,
      "chip": "ym2612"
    },
    {
      "channel": 3,
      "note": 77,
      "start": 141.7593,
      "duration": 0.0292,
      "velocity": 99,
      "chip": "ym2612"
    },
    {
      "channel": 3,
      "note": 78,
      "start": 141.809,
      "duration": 0.0297,
      "velocity": 99,
      "chip": "ym2612"
    },
    {
      "channel": 3,
      "note": 79,
      "start": 141.8589,
      "duration": 0.0298,
      "velocity": 99,
      "chip": "ym2612"
    },
    {
      "channel": 1,
      "note": 89,
      "start": 141.9254,
      "duration": 0.6132,
      "velocity": 90,
      "chip": "ym2612"
    },
    {
      "channel": 3,
      "note": 81,
      "start": 141.9287,
      "duration": 0.2765,
      "velocity": 99,
      "chip": "ym2612"
    },
    {
      "channel": 5,
      "note": 37,
      "start": 142.2418,
      "duration": 0.1303,
      "velocity": 124,
      "chip": "ym2612"
    },
    {
      "channel": 3,
      "note": 80,
      "start": 142.245,
      "duration": 0.2937,
      "velocity": 99,
      "chip": "ym2612"
    },
    {
      "channel": 4,
      "note": 45,
      "start": 142.5749,
      "duration": 2.5305,
      "velocity": 109,
      "chip": "ym2612"
    },
    {
      "channel": 5,
      "note": 31,
      "start": 142.578,
      "duration": 0.1276,
      "velocity": 124,
      "chip": "ym2612"
    },
    {
      "channel": 1,
      "note": 86,
      "start": 142.5822,
      "duration": 2.3898,
      "velocity": 90,
      "chip": "ym2612"
    },
    {
      "channel": 3,
      "note": 77,
      "start": 142.5888,
      "duration": 2.4833,
      "velocity": 99,
      "chip": "ym2612"
    },
    {
      "channel": 0,
      "note": 36,
      "start": 142.5919,
      "duration": 2.48,
      "velocity": 90,
      "chip": "ym2612"
    },
    {
      "channel": 5,
      "note": 37,
      "start": 143.2086,
      "duration": 0.1303,
      "velocity": 124,
      "chip": "ym2612"
    },
    {
      "channel": 5,
      "note": 31,
      "start": 143.5419,
      "duration": 0.1303,
      "velocity": 124,
      "chip": "ym2612"
    },
    {
      "channel": 5,
      "note": 37,
      "start": 144.1919,
      "duration": 0.1302,
      "velocity": 124,
      "chip": "ym2612"
    },
    {
      "channel": 5,
      "note": 31,
      "start": 144.5086,
      "duration": 0.1303,
      "velocity": 124,
      "chip": "ym2612"
    },
    {
      "channel": 4,
      "note": 36,
      "start": 145.1618,
      "duration": 2.5601,
      "velocity": 99,
      "chip": "ym2612"
    },
    {
      "channel": 2,
      "note": 41,
      "start": 145.1652,
      "duration": 2.5569,
      "velocity": 99,
      "chip": "ym2612"
    },
    {
      "channel": 5,
      "note": 37,
      "start": 145.1679,
      "duration": 0.1208,
      "velocity": 124,
      "chip": "ym2612"
    },
    {
      "channel": 1,
      "note": 33,
      "start": 145.1729,
      "duration": 2.5488,
      "velocity": 92,
      "chip": "ym2612"
    },
    {
      "channel": 5,
      "note": 31,
      "start": 145.4751,
      "duration": 0.147,
      "velocity": 124,
      "chip": "ym2612"
    },
    {
      "channel": 5,
      "note": 37,
      "start": 146.1251,
      "duration": 0.1303,
      "velocity": 124,
      "chip": "ym2612"
    },
    {
      "channel": 5,
      "note": 31,
      "start": 146.4587,
      "duration": 0.1298,
      "velocity": 124,
      "chip": "ym2612"
    },
    {
      "channel": 5,
      "note": 37,
      "start": 147.1083,
      "duration": 0.1302,
      "velocity": 124,
      "chip": "ym2612"
    },
    {
      "channel": 5,
      "note": 31,
      "start": 147.4248,
      "duration": 0.1305,
      "velocity": 124,
      "chip": "ym2612"
    },
    {
      "channel": 4,
      "note": 36,
      "start": 147.7597,
      "duration": 2.5623,
      "velocity": 99,
      "chip": "ym2612"
    },
    {
      "channel": 2,
      "note": 41,
      "start": 147.7627,
      "duration": 2.5595,
      "velocity": 99,
      "chip": "ym2612"
    },
    {
      "channel": 5,
      "note": 37,
      "start": 148.0751,
      "duration": 0.1303,
      "velocity": 124,
      "chip": "ym2612"
    },
    {
      "channel": 5,
      "note": 31,
      "start": 148.3918,
      "duration": 0.147,
      "velocity": 124,
      "chip": "ym2612"
    },
    {
      "channel": 5,
      "note": 37,
      "start": 149.042,
      "duration": 0.1302,
      "velocity": 124,
      "chip": "ym2612"
    },
    {
      "channel": 5,
      "note": 31,
      "start": 149.3751,
      "duration": 0.1303,
      "velocity": 124,
      "chip": "ym2612"
    },
    {
      "channel": 5,
      "note": 37,
      "start": 150.0252,
      "duration": 0.1302,
      "velocity": 124,
      "chip": "ym2612"
    },
    {
      "channel": 4,
      "note": 36,
      "start": 150.3428,
      "duration": 2.5624,
      "velocity": 99,
      "chip": "ym2612"
    },
    {
      "channel": 2,
      "note": 41,
      "start": 150.3458,
      "duration": 2.5597,
      "velocity": 99,
      "chip": "ym2612"
    },
    {
      "channel": 5,
      "note": 31,
      "start": 150.3489,
      "duration": 0.1231,
      "velocity": 124,
      "chip": "ym2612"
    },
    {
      "channel": 1,
      "note": 33,
      "start": 150.3529,
      "duration": 2.5522,
      "velocity": 92,
      "chip": "ym2612"
    },
    {
      "channel": 5,
      "note": 37,
      "start": 150.9917,
      "duration": 0.1303,
      "velocity": 124,
      "chip": "ym2612"
    },
    {
      "channel": 5,
      "note": 31,
      "start": 151.3084,
      "duration": 0.1469,
      "velocity": 124,
      "chip": "ym2612"
    },
    {
      "channel": 5,
      "note": 37,
      "start": 151.9583,
      "duration": 0.1304,
      "velocity": 124,
      "chip": "ym2612"
    },
    {
      "channel": 5,
      "note": 31,
      "start": 152.2916,
      "duration": 0.1303,
      "velocity": 124,
      "chip": "ym2612"
    },
    {
      "channel": 4,
      "note": 36,
      "start": 152.9426,
      "duration": 2.5627,
      "velocity": 99,
      "chip": "ym2612"
    },
    {
      "channel": 2,
      "note": 41,
      "start": 152.9457,
      "duration": 2.5599,
      "velocity": 99,
      "chip": "ym2612"
    },
    {
      "channel": 5,
      "note": 37,
      "start": 152.9484,
      "duration": 0.1237,
      "velocity": 124,
      "chip": "ym2612"
    },
    {
      "channel": 5,
      "note": 31,
      "start": 153.2585,
      "duration": 0.1302,
      "velocity": 124,
      "chip": "ym2612"
    },
    {
      "channel": 5,
      "note": 37,
      "start": 153.9085,
      "duration": 0.1303,
      "velocity": 124,
      "chip": "ym2612"
    },
    {
      "channel": 5,
      "note": 31,
      "start": 154.2257,
      "duration": 0.1464,
      "velocity": 124,
      "chip": "ym2612"
    },
    {
      "channel": 5,
      "note": 37,
      "start": 154.8752,
      "duration": 0.1302,
      "velocity": 124,
      "chip": "ym2612"
    },
    {
      "channel": 5,
      "note": 31,
      "start": 155.2084,
      "duration": 0.1305,
      "velocity": 124,
      "chip": "ym2612"
    },
    {
      "channel": 4,
      "note": 36,
      "start": 155.5261,
      "duration": 2.5625,
      "velocity": 99,
      "chip": "ym2612"
    },
    {
      "channel": 2,
      "note": 41,
      "start": 155.5291,
      "duration": 2.5598,
      "velocity": 99,
      "chip": "ym2612"
    },
    {
      "channel": 1,
      "note": 33,
      "start": 155.5352,
      "duration": 2.5532,
      "velocity": 92,
      "chip": "ym2612"
    },
    {
      "channel": 5,
      "note": 37,
      "start": 155.8584,
      "duration": 0.1303,
      "velocity": 124,
      "chip": "ym2612"
    },
    {
      "channel": 5,
      "note": 31,
      "start": 156.175,
      "duration": 0.1303,
      "velocity": 124,
      "chip": "ym2612"
    },
    {
      "channel": 5,
      "note": 37,
      "start": 156.8251,
      "duration": 0.1302,
      "velocity": 124,
      "chip": "ym2612"
    },
    {
      "channel": 5,
      "note": 31,
      "start": 157.1415,
      "duration": 0.147,
      "velocity": 124,
      "chip": "ym2612"
    },
    {
      "channel": 5,
      "note": 37,
      "start": 157.7917,
      "duration": 0.1302,
      "velocity": 124,
      "chip": "ym2612"
    },
    {
      "channel": 4,
      "note": 36,
      "start": 158.1259,
      "duration": 2.5628,
      "velocity": 99,
      "chip": "ym2612"
    },
    {
      "channel": 2,
      "note": 41,
      "start": 158.1289,
      "duration": 2.5599,
      "velocity": 99,
      "chip": "ym2612"
    },
    {
      "channel": 5,
      "note": 31,
      "start": 158.132,
      "duration": 0.1234,
      "velocity": 124,
      "chip": "ym2612"
    },
    {
      "channel": 5,
      "note": 37,
      "start": 158.7752,
      "duration": 0.1303,
      "velocity": 124,
      "chip": "ym2612"
    },
    {
      "channel": 5,
      "note": 31,
      "start": 159.0919,
      "duration": 0.1303,
      "velocity": 124,
      "chip": "ym2612"
    },
    {
      "channel": 5,
      "note": 37,
      "start": 159.7418,
      "duration": 0.1302,
      "velocity": 124,
      "chip": "ym2612"
    },
    {
      "channel": 5,
      "note": 31,
      "start": 160.0586,
      "duration": 0.147,
      "velocity": 124,
      "chip": "ym2612"
    },
    {
      "channel": 4,
      "note": 36,
      "start": 160.7094,
      "duration": 2.5626,
      "velocity": 99,
      "chip": "ym2612"
    },
    {
      "channel": 2,
      "note": 41,
      "start": 160.7124,
      "duration": 2.5598,
      "velocity": 99,
      "chip": "ym2612"
    },
    {
      "channel": 5,
      "note": 37,
      "start": 160.7152,
      "duration": 0.1235,
      "velocity": 124,
      "chip": "ym2612"
    },
    {
      "channel": 1,
      "note": 33,
      "start": 160.7192,
      "duration": 2.5526,
      "velocity": 92,
      "chip": "ym2612"
    },
    {
      "channel": 5,
      "note": 31,
      "start": 161.0417,
      "duration": 0.1304,
      "velocity": 124,
      "chip": "ym2612"
    },
    {
      "channel": 5,
      "note": 37,
      "start": 161.6917,
      "duration": 0.1303,
      "velocity": 124,
      "chip": "ym2612"
    },
    {
      "channel": 5,
      "note": 31,
      "start": 162.0087,
      "duration": 0.1299,
      "velocity": 124,
      "chip": "ym2612"
    },
    {
      "channel": 5,
      "note": 37,
      "start": 162.6583,
      "duration": 0.1303,
      "velocity": 124,
      "chip": "ym2612"
    },
    {
      "channel": 5,
      "note": 31,
      "start": 162.9747,
      "duration": 0.1472,
      "velocity": 124,
      "chip": "ym2612"
    },
    {
      "channel": 4,
      "note": 36,
      "start": 163.3093,
      "duration": 2.5626,
      "velocity": 99,
      "chip": "ym2612"
    },
    {
      "channel": 2,
      "note": 41,
      "start": 163.3124,
      "duration": 2.5597,
      "velocity": 99,
      "chip": "ym2612"
    },
    {
      "channel": 5,
      "note": 37,
      "start": 163.6251,
      "duration": 0.1303,
      "velocity": 124,
      "chip": "ym2612"
    },
    {
      "channel": 5,
      "note": 31,
      "start": 163.9585,
      "duration": 0.1303,
      "velocity": 124,
      "chip": "ym2612"
    },
    {
      "channel": 5,
      "note": 37,
      "start": 164.6086,
      "duration": 0.1302,
      "velocity": 124,
      "chip": "ym2612"
    },
    {
      "channel": 5,
      "note": 31,
      "start": 164.9252,
      "duration": 0.1303,
      "velocity": 124,
      "chip": "ym2612"
    },
    {
      "channel": 5,
      "note": 37,
      "start": 165.5752,
      "duration": 0.1303,
      "velocity": 124,
      "chip": "ym2612"
    },
    {
      "channel": 4,
      "note": 36,
      "start": 165.8928,
      "duration": 2.5625,
      "velocity": 99,
      "chip": "ym2612"
    },
    {
      "channel": 2,
      "note": 41,
      "start": 165.8959,
      "duration": 2.5597,
      "velocity": 99,
      "chip": "ym2612"
    },
    {
      "channel": 5,
      "note": 31,
      "start": 165.899,
      "duration": 0.1398,
      "velocity": 124,
      "chip": "ym2612"
    },
    {
      "channel": 1,
      "note": 33,
      "start": 165.9064,
      "duration": 2.5487,
      "velocity": 92,
      "chip": "ym2612"
    },
    {
      "channel": 0,
      "note": 59,
      "start": 165.9109,
      "duration": 5.1444,
      "velocity": 90,
      "chip": "ym2612"
    },
    {
      "channel": 5,
      "note": 37,
      "start": 166.5418,
      "duration": 0.1301,
      "velocity": 124,
      "chip": "ym2612"
    },
    {
      "channel": 5,
      "note": 31,
      "start": 166.8751,
      "duration": 0.1302,
      "velocity": 124,
      "chip": "ym2612"
    },
    {
      "channel": 5,
      "note": 37,
      "start": 167.525,
      "duration": 0.1303,
      "velocity": 124,
      "chip": "ym2612"
    },
    {
      "channel": 5,
      "note": 31,
      "start": 167.8417,
      "duration": 0.1302,
      "velocity": 124,
      "chip": "ym2612"
    },
    {
      "channel": 4,
      "note": 36,
      "start": 168.4926,
      "duration": 2.5629,
      "velocity": 99,
      "chip": "ym2612"
    },
    {
      "channel": 2,
      "note": 41,
      "start": 168.4957,
      "duration": 2.56,
      "velocity": 99,
      "chip": "ym2612"
    },
    {
      "channel": 5,
      "note": 37,
      "start": 168.4985,
      "duration": 0.1237,
      "velocity": 124,
      "chip": "ym2612"
    },
    {
      "channel": 5,
      "note": 31,
      "start": 168.8085,
      "duration": 0.1303,
      "velocity": 124,
      "chip": "ym2612"
    },
    {
      "channel": 5,
      "note": 37,
      "start": 169.4586,
      "duration": 0.1302,
      "velocity": 124,
      "chip": "ym2612"
    },
    {
      "channel": 5,
      "note": 31,
      "start": 169.7924,
      "duration": 0.1297,
      "velocity": 124,
      "chip": "ym2612"
    },
    {
      "channel": 5,
      "note": 37,
      "start": 170.4419,
      "duration": 0.1302,
      "velocity": 124,
      "chip": "ym2612"
    },
    {
      "channel": 5,
      "note": 31,
      "start": 170.7584,
      "duration": 0.1305,
      "velocity": 124,
      "chip": "ym2612"
    },
    {
      "channel": 4,
      "note": 36,
      "start": 171.0761,
      "duration": 2.5624,
      "velocity": 99,
      "chip": "ym2612"
    },
    {
      "channel": 2,
      "note": 41,
      "start": 171.0791,
      "duration": 2.5597,
      "velocity": 99,
      "chip": "ym2612"
    },
    {
      "channel": 1,
      "note": 33,
      "start": 171.0859,
      "duration": 2.5525,
      "velocity": 92,
      "chip": "ym2612"
    },
    {
      "channel": 0,
      "note": 60,
      "start": 171.0906,
      "duration": 5.148,
      "velocity": 90,
      "chip": "ym2612"
    },
    {
      "channel": 5,
      "note": 37,
      "start": 171.4083,
      "duration": 0.1303,
      "velocity": 124,
      "chip": "ym2612"
    },
    {
      "channel": 5,
      "note": 31,
      "start": 171.7251,
      "duration": 0.1303,
      "velocity": 124,
      "chip": "ym2612"
    },
    {
      "channel": 5,
      "note": 37,
      "start": 172.3751,
      "duration": 0.1302,
      "velocity": 124,
      "chip": "ym2612"
    },
    {
      "channel": 5,
      "note": 31,
      "start": 172.7082,
      "duration": 0.1304,
      "velocity": 124,
      "chip": "ym2612"
    },
    {
      "channel": 5,
      "note": 37,
      "start": 173.3582,
      "duration": 0.1304,
      "velocity": 124,
      "chip": "ym2612"
    },
    {
      "channel": 4,
      "note": 36,
      "start": 173.6759,
      "duration": 2.5629,
      "velocity": 99,
      "chip": "ym2612"
    },
    {
      "channel": 2,
      "note": 41,
      "start": 173.679,
      "duration": 2.56,
      "velocity": 99,
      "chip": "ym2612"
    },
    {
      "channel": 5,
      "note": 31,
      "start": 173.6821,
      "duration": 0.1234,
      "velocity": 124,
      "chip": "ym2612"
    },
    {
      "channel": 5,
      "note": 37,
      "start": 174.3252,
      "duration": 0.1303,
      "velocity": 124,
      "chip": "ym2612"
    },
    {
      "channel": 5,
      "note": 31,
      "start": 174.642,
      "duration": 0.1302,
      "velocity": 124,
      "chip": "ym2612"
    },
    {
      "channel": 5,
      "note": 37,
      "start": 175.2919,
      "duration": 0.1302,
      "velocity": 124,
      "chip": "ym2612"
    },
    {
      "channel": 5,
      "note": 31,
      "start": 175.6252,
      "duration": 0.1302,
      "velocity": 124,
      "chip": "ym2612"
    },
    {
      "channel": 4,
      "note": 36,
      "start": 176.2761,
      "duration": 2.5625,
      "velocity": 99,
      "chip": "ym2612"
    },
    {
      "channel": 2,
      "note": 41,
      "start": 176.2791,
      "duration": 2.5598,
      "velocity": 99,
      "chip": "ym2612"
    },
    {
      "channel": 5,
      "note": 37,
      "start": 176.2819,
      "duration": 0.1235,
      "velocity": 124,
      "chip": "ym2612"
    },
    {
      "channel": 1,
      "note": 33,
      "start": 176.2859,
      "duration": 2.5525,
      "velocity": 92,
      "chip": "ym2612"
    },
    {
      "channel": 0,
      "note": 64,
      "start": 176.2902,
      "duration": 5.1316,
      "velocity": 90,
      "chip": "ym2612"
    },
    {
      "channel": 5,
      "note": 31,
      "start": 176.5918,
      "duration": 0.1302,
      "velocity": 124,
      "chip": "ym2612"
    },
    {
      "channel": 5,
      "note": 37,
      "start": 177.2417,
      "duration": 0.1304,
      "velocity": 124,
      "chip": "ym2612"
    },
    {
      "channel": 5,
      "note": 31,
      "start": 177.5588,
      "duration": 0.1298,
      "velocity": 124,
      "chip": "ym2612"
    },
    {
      "channel": 5,
      "note": 37,
      "start": 178.2083,
      "duration": 0.1303,
      "velocity": 124,
      "chip": "ym2612"
    },
    {
      "channel": 5,
      "note": 31,
      "start": 178.5414,
      "duration": 0.1305,
      "velocity": 124,
      "chip": "ym2612"
    },
    {
      "channel": 4,
      "note": 36,
      "start": 178.8593,
      "duration": 2.5628,
      "velocity": 99,
      "chip": "ym2612"
    },
    {
      "channel": 2,
      "note": 41,
      "start": 178.8623,
      "duration": 2.5599,
      "velocity": 99,
      "chip": "ym2612"
    },
    {
      "channel": 5,
      "note": 37,
      "start": 179.1919,
      "duration": 0.1303,
      "velocity": 124,
      "chip": "ym2612"
    },
    {
      "channel": 5,
      "note": 31,
      "start": 179.5085,
      "duration": 0.1303,
      "velocity": 124,
      "chip": "ym2612"
    },
    {
      "channel": 5,
      "note": 37,
      "start": 180.1586,
      "duration": 0.1302,
      "velocity": 124,
      "chip": "ym2612"
    },
    {
      "channel": 5,
      "note": 31,
      "start": 180.4751,
      "duration": 0.1303,
      "velocity": 124,
      "chip": "ym2612"
    },
    {
      "channel": 5,
      "note": 37,
      "start": 181.1252,
      "duration": 0.1303,
      "velocity": 124,
      "chip": "ym2612"
    },
    {
      "channel": 4,
      "note": 36,
      "start": 181.4595,
      "duration": 2.5624,
      "velocity": 99,
      "chip": "ym2612"
    },
    {
      "channel": 2,
      "note": 41,
      "start": 181.4625,
      "duration": 2.5595,
      "velocity": 99,
      "chip": "ym2612"
    },
    {
      "channel": 5,
      "note": 31,
      "start": 181.4657,
      "duration": 0.1231,
      "velocity": 124,
      "chip": "ym2612"
    },
    {
      "channel": 1,
      "note": 33,
      "start": 181.4697,
      "duration": 2.552,
      "velocity": 92,
      "chip": "ym2612"
    },
    {
      "channel": 0,
      "note": 63,
      "start": 181.474,
      "duration": 5.1312,
      "velocity": 90,
      "chip": "ym2612"
    },
    {
      "channel": 5,
      "note": 37,
      "start": 182.1084,
      "duration": 0.1303,
      "velocity": 124,
      "chip": "ym2612"
    },
    {
      "channel": 5,
      "note": 31,
      "start": 182.4251,
      "duration": 0.1302,
      "velocity": 124,
      "chip": "ym2612"
    },
    {
      "channel": 5,
      "note": 37,
      "start": 183.0749,
      "duration": 0.1304,
      "velocity": 124,
      "chip": "ym2612"
    },
    {
      "channel": 5,
      "note": 31,
      "start": 183.3917,
      "duration": 0.1302,
      "velocity": 124,
      "chip": "ym2612"
    },
    {
      "channel": 4,
      "note": 36,
      "start": 184.0427,
      "duration": 2.5628,
      "velocity": 99,
      "chip": "ym2612"
    },
    {
      "channel": 2,
      "note": 41,
      "start": 184.0457,
      "duration": 2.56,
      "velocity": 99,
      "chip": "ym2612"
    },
    {
      "channel": 5,
      "note": 37,
      "start": 184.0485,
      "duration": 0.1236,
      "velocity": 124,
      "chip": "ym2612"
    },
    {
      "channel": 5,
      "note": 31,
      "start": 184.3752,
      "duration": 0.1303,
      "velocity": 124,
      "chip": "ym2612"
    },
    {
      "channel": 5,
      "note": 37,
      "start": 185.0252,
      "duration": 0.1303,
      "velocity": 124,
      "chip": "ym2612"
    },
    {
      "channel": 5,
      "note": 31,
      "start": 185.3423,
      "duration": 0.1298,
      "velocity": 124,
      "chip": "ym2612"
    },
    {
      "channel": 5,
      "note": 37,
      "start": 185.9919,
      "duration": 0.1303,
      "velocity": 124,
      "chip": "ym2612"
    },
    {
      "channel": 5,
      "note": 31,
      "start": 186.3085,
      "duration": 0.1304,
      "velocity": 124,
      "chip": "ym2612"
    },
    {
      "channel": 4,
      "note": 36,
      "start": 186.6438,
      "duration": 2.5615,
      "velocity": 99,
      "chip": "ym2612"
    },
    {
      "channel": 1,
      "note": 33,
      "start": 186.6498,
      "duration": 2.5553,
      "velocity": 92,
      "chip": "ym2612"
    },
    {
      "channel": 0,
      "note": 60,
      "start": 186.6546,
      "duration": 2.5171,
      "velocity": 90,
      "chip": "ym2612"
    },
    {
      "channel": 3,
      "note": 48,
      "start": 186.6606,
      "duration": 5.1114,
      "velocity": 107,
      "chip": "ym2612"
    },
    {
      "channel": 5,
      "note": 37,
      "start": 186.9584,
      "duration": 0.1303,
      "velocity": 124,
      "chip": "ym2612"
    },
    {
      "channel": 5,
      "note": 31,
      "start": 187.2917,
      "duration": 0.1303,
      "velocity": 124,
      "chip": "ym2612"
    },
    {
      "channel": 5,
      "note": 37,
      "start": 187.9417,
      "duration": 0.1303,
      "velocity": 124,
      "chip": "ym2612"
    },
    {
      "channel": 5,
      "note": 31,
      "start": 188.2583,
      "duration": 0.1303,
      "velocity": 124,
      "chip": "ym2612"
    },
    {
      "channel": 5,
      "note": 37,
      "start": 188.9083,
      "duration": 0.1303,
      "velocity": 124,
      "chip": "ym2612"
    },
    {
      "channel": 4,
      "note": 36,
      "start": 189.2266,
      "duration": 2.5621,
      "velocity": 99,
      "chip": "ym2612"
    },
    {
      "channel": 5,
      "note": 31,
      "start": 189.2297,
      "duration": 0.1258,
      "velocity": 124,
      "chip": "ym2612"
    },
    {
      "channel": 0,
      "note": 67,
      "start": 189.2338,
      "duration": 2.2049,
      "velocity": 90,
      "chip": "ym2612"
    },
    {
      "channel": 5,
      "note": 37,
      "start": 189.8752,
      "duration": 0.1303,
      "velocity": 124,
      "chip": "ym2612"
    },
    {
      "channel": 5,
      "note": 31,
      "start": 190.2086,
      "duration": 0.1303,
      "velocity": 124,
      "chip": "ym2612"
    },
    {
      "channel": 5,
      "note": 37,
      "start": 190.8585,
      "duration": 0.1303,
      "velocity": 124,
      "chip": "ym2612"
    },
    {
      "channel": 5,
      "note": 31,
      "start": 191.1752,
      "duration": 0.1304,
      "velocity": 124,
      "chip": "ym2612"
    },
    {
      "channel": 0,
      "note": 64,
      "start": 191.4922,
      "duration": 0.1632,
      "velocity": 90,
      "chip": "ym2612"
    },
    {
      "channel": 4,
      "note": 36,
      "start": 191.8264,
      "duration": 2.5622,
      "velocity": 99,
      "chip": "ym2612"
    },
    {
      "channel": 5,
      "note": 37,
      "start": 191.8291,
      "duration": 0.1263,
      "velocity": 124,
      "chip": "ym2612"
    },
    {
      "channel": 1,
      "note": 33,
      "start": 191.8331,
      "duration": 2.5553,
      "velocity": 92,
      "chip": "ym2612"
    },
    {
      "channel": 0,
      "note": 63,
      "start": 191.8385,
      "duration": 2.3832,
      "velocity": 90,
      "chip": "ym2612"
    },
    {
      "channel": 3,
      "note": 54,
      "start": 191.8446,
      "duration": 2.5107,
      "velocity": 107,
      "chip": "ym2612"
    },
    {
      "channel": 5,
      "note": 31,
      "start": 192.1417,
      "duration": 0.1303,
      "velocity": 124,
      "chip": "ym2612"
    },
    {
      "channel": 5,
      "note": 37,
      "start": 192.7917,
      "duration": 0.1303,
      "velocity": 124,
      "chip": "ym2612"
    },
    {
      "channel": 5,
      "note": 31,
      "start": 193.1253,
      "duration": 0.1299,
      "velocity": 124,
      "chip": "ym2612"
    },
    {
      "channel": 5,
      "note": 37,
      "start": 193.7749,
      "duration": 0.1304,
      "velocity": 124,
      "chip": "ym2612"
    },
    {
      "channel": 5,
      "note": 31,
      "start": 194.0913,
      "duration": 0.1306,
      "velocity": 124,
      "chip": "ym2612"
    },
    {
      "channel": 0,
      "note": 64,
      "start": 194.2586,
      "duration": 0.0464,
      "velocity": 90,
      "chip": "ym2612"
    },
    {
      "channel": 0,
      "note": 66,
      "start": 194.3083,
      "duration": 0.0468,
      "velocity": 90,
      "chip": "ym2612"
    },
    {
      "channel": 0,
      "note": 67,
      "start": 194.3585,
      "duration": 0.0466,
      "velocity": 90,
      "chip": "ym2612"
    },
    {
      "channel": 4,
      "note": 36,
      "start": 194.4097,
      "duration": 2.5624,
      "velocity": 99,
      "chip": "ym2612"
    },
    {
      "channel": 0,
      "note": 69,
      "start": 194.4157,
      "duration": 1.2898,
      "velocity": 90,
      "chip": "ym2612"
    },
    {
      "channel": 3,
      "note": 51,
      "start": 194.4219,
      "duration": 2.55,
      "velocity": 107,
      "chip": "ym2612"
    },
    {
      "channel": 5,
      "note": 37,
      "start": 194.7418,
      "duration": 0.1303,
      "velocity": 124,
      "chip": "ym2612"
    },
    {
      "channel": 5,
      "note": 31,
      "start": 195.0585,
      "duration": 0.1305,
      "velocity": 124,
      "chip": "ym2612"
    },
    {
      "channel": 5,
      "note": 37,
      "start": 195.7088,
      "duration": 0.1301,
      "velocity": 124,
      "chip": "ym2612"
    },
    {
      "channel": 0,
      "note": 66,
      "start": 195.7116,
      "duration": 1.2437,
      "velocity": 90,
      "chip": "ym2612"
    },
    {
      "channel": 5,
      "note": 31,
      "start": 196.0418,
      "duration": 0.1303,
      "velocity": 124,
      "chip": "ym2612"
    },
    {
      "channel": 5,
      "note": 37,
      "start": 196.6752,
      "duration": 0.147,
      "velocity": 124,
      "chip": "ym2612"
    },
    {
      "channel": 4,
      "note": 36,
      "start": 197.0097,
      "duration": 2.5625,
      "velocity": 99,
      "chip": "ym2612"
    },
    {
      "channel": 5,
      "note": 31,
      "start": 197.0128,
      "duration": 0.126,
      "velocity": 124,
      "chip": "ym2612"
    },
    {
      "channel": 1,
      "note": 33,
      "start": 197.0168,
      "duration": 2.5551,
      "velocity": 92,
      "chip": "ym2612"
    },
    {
      "channel": 0,
      "note": 67,
      "start": 197.0218,
      "duration": 0.1667,
      "velocity": 90,
      "chip": "ym2612"
    },
    {
      "channel": 3,
      "note": 48,
      "start": 197.027,
      "duration": 2.545,
      "velocity": 107,
      "chip": "ym2612"
    },
    {
      "channel": 0,
      "note": 60,
      "start": 197.2251,
      "duration": 0.1801,
      "velocity": 90,
      "chip": "ym2612"
    },
    {
      "channel": 0,
      "note": 63,
      "start": 197.4417,
      "duration": 0.1802,
      "velocity": 90,
      "chip": "ym2612"
    },
    {
      "channel": 5,
      "note": 37,
      "start": 197.6584,
      "duration": 0.1303,
      "velocity": 124,
      "chip": "ym2612"
    },
    {
      "channel": 0,
      "note": 71,
      "start": 197.6613,
      "duration": 1.2604,
      "velocity": 90,
      "chip": "ym2612"
    },
    {
      "channel": 5,
      "note": 31,
      "start": 197.9751,
      "duration": 0.1303,
      "velocity": 124,
      "chip": "ym2612"
    },
    {
      "channel": 5,
      "note": 37,
      "start": 198.6249,
      "duration": 0.1304,
      "velocity": 124,
      "chip": "ym2612"
    },
    {
      "channel": 5,
      "note": 31,
      "start": 198.9582,
      "duration": 0.1304,
      "velocity": 124,
      "chip": "ym2612"
    },
    {
      "channel": 0,
      "note": 69,
      "start": 198.9612,
      "duration": 0.6106,
      "velocity": 90,
      "chip": "ym2612"
    },
    {
      "channel": 4,
      "note": 36,
      "start": 199.5929,
      "duration": 2.5627,
      "velocity": 99,
      "chip": "ym2612"
    },
    {
      "channel": 5,
      "note": 37,
      "start": 199.5956,
      "duration": 0.1431,
      "velocity": 124,
      "chip": "ym2612"
    },
    {
      "channel": 0,
      "note": 66,
      "start": 199.5995,
      "duration": 0.2058,
      "velocity": 90,
      "chip": "ym2612"
    },
    {
      "channel": 3,
      "note": 52,
      "start": 199.6058,
      "duration": 1.1997,
      "velocity": 107,
      "chip": "ym2612"
    },
    {
      "channel": 5,
      "note": 31,
      "start": 199.9252,
      "duration": 0.1303,
      "velocity": 124,
      "chip": "ym2612"
    },
    {
      "channel": 0,
      "note": 69,
      "start": 200.0251,
      "duration": 0.2135,
      "velocity": 90,
      "chip": "ym2612"
    },
    {
      "channel": 0,
      "note": 63,
      "start": 200.4593,
      "duration": 1.6959,
      "velocity": 90,
      "chip": "ym2612"
    },
    {
      "channel": 5,
      "note": 37,
      "start": 200.5752,
      "duration": 0.1303,
      "velocity": 124,
      "chip": "ym2612"
    },
    {
      "channel": 5,
      "note": 31,
      "start": 200.8923,
      "duration": 0.1298,
      "velocity": 124,
      "chip": "ym2612"
    },
    {
      "channel": 3,
      "note": 54,
      "start": 200.8957,
      "duration": 1.2597,
      "velocity": 107,
      "chip": "ym2612"
    },
    {
      "channel": 5,
      "note": 37,
      "start": 201.5419,
      "duration": 0.1304,
      "velocity": 124,
      "chip": "ym2612"
    },
    {
      "channel": 5,
      "note": 31,
      "start": 201.8751,
      "duration": 0.1305,
      "velocity": 124,
      "chip": "ym2612"
    },
    {
      "channel": 4,
      "note": 36,
      "start": 202.1931,
      "duration": 2.5622,
      "velocity": 99,
      "chip": "ym2612"
    },
    {
      "channel": 1,
      "note": 33,
      "start": 202.1992,
      "duration": 2.556,
      "velocity": 92,
      "chip": "ym2612"
    },
    {
      "channel": 0,
      "note": 64,
      "start": 202.2031,
      "duration": 1.2853,
      "velocity": 90,
      "chip": "ym2612"
    },
    {
      "channel": 3,
      "note": 55,
      "start": 202.21,
      "duration": 2.5118,
      "velocity": 107,
      "chip": "ym2612"
    },
    {
      "channel": 5,
      "note": 37,
      "start": 202.5085,
      "duration": 0.1469,
      "velocity": 124,
      "chip": "ym2612"
    },
    {
      "channel": 5,
      "note": 31,
      "start": 202.8417,
      "duration": 0.1303,
      "velocity": 124,
      "chip": "ym2612"
    },
    {
      "channel": 5,
      "note": 37,
      "start": 203.4917,
      "duration": 0.1302,
      "velocity": 124,
      "chip": "ym2612"
    },
    {
      "channel": 0,
      "note": 66,
      "start": 203.4946,
      "duration": 0.9437,
      "velocity": 90,
      "chip": "ym2612"
    },
    {
      "channel": 5,
      "note": 31,
      "start": 203.8082,
      "duration": 0.1304,
      "velocity": 124,
      "chip": "ym2612"
    },
    {
      "channel": 5,
      "note": 37,
      "start": 204.4583,
      "duration": 0.1303,
      "velocity": 124,
      "chip": "ym2612"
    },
    {
      "channel": 0,
      "note": 67,
      "start": 204.4612,
      "duration": 0.1104,
      "velocity": 90,
      "chip": "ym2612"
    },
    {
      "channel": 0,
      "note": 66,
      "start": 204.5751,
      "duration": 0.0633,
      "velocity": 90,
      "chip": "ym2612"
    },
    {
      "channel": 0,
      "note": 64,
      "start": 204.6749,
      "duration": 0.0801,
      "velocity": 90,
      "chip": "ym2612"
    },
    {
      "channel": 4,
      "note": 36,
      "start": 204.7929,
      "duration": 2.5459,
      "velocity": 99,
      "chip": "ym2612"
    },
    {
      "channel": 5,
      "note": 31,
      "start": 204.7961,
      "duration": 0.1261,
      "velocity": 124,
      "chip": "ym2612"
    },
    {
      "channel": 0,
      "note": 63,
      "start": 204.8003,
      "duration": 1.2551,
      "velocity": 90,
      "chip": "ym2612"
    },
    {
      "channel": 3,
      "note": 47,
      "start": 204.8066,
      "duration": 2.5321,
      "velocity": 107,
      "chip": "ym2612"
    },
    {
      "channel": 5,
      "note": 37,
      "start": 205.4251,
      "duration": 0.1472,
      "velocity": 124,
      "chip": "ym2612"
    },
    {
      "channel": 5,
      "note": 31,
      "start": 205.7586,
      "duration": 0.1303,
      "velocity": 124,
      "chip": "ym2612"
    },
    {
      "channel": 0,
      "note": 59,
      "start": 206.0756,
      "duration": 0.9964,
      "velocity": 90,
      "chip": "ym2612"
    },
    {
      "channel": 5,
      "note": 37,
      "start": 206.4085,
      "duration": 0.1302,
      "velocity": 124,
      "chip": "ym2612"
    },
    {
      "channel": 5,
      "note": 31,
      "start": 206.7252,
      "duration": 0.1304,
      "velocity": 124,
      "chip": "ym2612"
    },
    {
      "channel": 0,
      "note": 57,
      "start": 207.1588,
      "duration": 0.0798,
      "velocity": 90,
      "chip": "ym2612"
    },
    {
      "channel": 0,
      "note": 54,
      "start": 207.275,
      "duration": 0.0636,
      "velocity": 90,
      "chip": "ym2612"
    },
    {
      "channel": 4,
      "note": 36,
      "start": 207.3764,
      "duration": 2.5623,
      "velocity": 99,
      "chip": "ym2612"
    },
    {
      "channel": 5,
      "note": 37,
      "start": 207.3791,
      "duration": 0.1263,
      "velocity": 124,
      "chip": "ym2612"
    },
    {
      "channel": 1,
      "note": 33,
      "start": 207.3831,
      "duration": 2.5555,
      "velocity": 92,
      "chip": "ym2612"
    },
    {
      "channel": 0,
      "note": 55,
      "start": 207.3878,
      "duration": 0.6007,
      "velocity": 90,
      "chip": "ym2612"
    },
    {
      "channel": 2,
      "note": 60,
      "start": 207.3938,
      "duration": 2.5116,
      "velocity": 99,
      "chip": "ym2612"
    },
    {
      "channel": 3,
      "note": 57,
      "start": 207.3976,
      "duration": 2.4575,
      "velocity": 107,
      "chip": "ym2612"
    },
    {
      "channel": 5,
      "note": 31,
      "start": 207.7085,
      "duration": 0.1303,
      "velocity": 124,
      "chip": "ym2612"
    },
    {
      "channel": 0,
      "note": 52,
      "start": 208.025,
      "duration": 0.6136,
      "velocity": 90,
      "chip": "ym2612"
    },
    {
      "channel": 5,
      "note": 37,
      "start": 208.3417,
      "duration": 0.147,
      "velocity": 124,
      "chip": "ym2612"
    },
    {
      "channel": 5,
      "note": 31,
      "start": 208.6754,
      "duration": 0.1298,
      "velocity": 124,
      "chip": "ym2612"
    },
    {
      "channel": 0,
      "note": 59,
      "start": 208.678,
      "duration": 0.6103,
      "velocity": 90,
      "chip": "ym2612"
    },
    {
      "channel": 5,
      "note": 37,
      "start": 209.3249,
      "duration": 0.1303,
      "velocity": 124,
      "chip": "ym2612"
    },
    {
      "channel": 0,
      "note": 62,
      "start": 209.3279,
      "duration": 0.4772,
      "velocity": 90,
      "chip": "ym2612"
    },
    {
      "channel": 5,
      "note": 31,
      "start": 209.6415,
      "duration": 0.1305,
      "velocity": 124,
      "chip": "ym2612"
    },
    {
      "channel": 0,
      "note": 60,
      "start": 209.859,
      "duration": 0.0461,
      "velocity": 90,
      "chip": "ym2612"
    },
    {
      "channel": 0,
      "note": 59,
      "start": 209.9086,
      "duration": 0.0299,
      "velocity": 90,
      "chip": "ym2612"
    },
    {
      "channel": 4,
      "note": 36,
      "start": 209.9763,
      "duration": 2.5624,
      "velocity": 99,
      "chip": "ym2612"
    },
    {
      "channel": 0,
      "note": 57,
      "start": 209.9824,
      "duration": 0.6063,
      "velocity": 90,
      "chip": "ym2612"
    },
    {
      "channel": 2,
      "note": 67,
      "start": 209.9894,
      "duration": 2.1995,
      "velocity": 99,
      "chip": "ym2612"
    },
    {
      "channel": 3,
      "note": 52,
      "start": 209.9927,
      "duration": 2.5459,
      "velocity": 107,
      "chip": "ym2612"
    },
    {
      "channel": 5,
      "note": 37,
      "start": 210.2919,
      "duration": 0.1302,
      "velocity": 124,
      "chip": "ym2612"
    },
    {
      "channel": 5,
      "note": 31,
      "start": 210.6252,
      "duration": 0.1304,
      "velocity": 124,
      "chip": "ym2612"
    },
    {
      "channel": 0,
      "note": 54,
      "start": 210.6278,
      "duration": 0.6109,
      "velocity": 90,
      "chip": "ym2612"
    },
    {
      "channel": 5,
      "note": 37,
      "start": 211.2586,
      "duration": 0.1469,
      "velocity": 124,
      "chip": "ym2612"
    },
    {
      "channel": 0,
      "note": 64,
      "start": 211.2615,
      "duration": 0.277,
      "velocity": 90,
      "chip": "ym2612"
    },
    {
      "channel": 5,
      "note": 31,
      "start": 211.5919,
      "duration": 0.1303,
      "velocity": 124,
      "chip": "ym2612"
    },
    {
      "channel": 0,
      "note": 66,
      "start": 211.5945,
      "duration": 0.2609,
      "velocity": 90,
      "chip": "ym2612"
    },
    {
      "channel": 0,
      "note": 67,
      "start": 211.9087,
      "duration": 0.2799,
      "velocity": 90,
      "chip": "ym2612"
    },
    {
      "channel": 0,
      "note": 69,
      "start": 212.1927,
      "duration": 0.2793,
      "velocity": 90,
      "chip": "ym2612"
    },
    {
      "channel": 5,
      "note": 37,
      "start": 212.2419,
      "duration": 0.1303,
      "velocity": 124,
      "chip": "ym2612"
    },
    {
      "channel": 2,
      "note": 64,
      "start": 212.2457,
      "duration": 0.1432,
      "velocity": 99,
      "chip": "ym2612"
    },
    {
      "channel": 4,
      "note": 36,
      "start": 212.5597,
      "duration": 2.5625,
      "velocity": 99,
      "chip": "ym2612"
    },
    {
      "channel": 5,
      "note": 31,
      "start": 212.5628,
      "duration": 0.1259,
      "velocity": 124,
      "chip": "ym2612"
    },
    {
      "channel": 1,
      "note": 33,
      "start": 212.5668,
      "duration": 2.5551,
      "velocity": 92,
      "chip": "ym2612"
    },
    {
      "channel": 0,
      "note": 71,
      "start": 212.5717,
      "duration": 2.3667,
      "velocity": 90,
      "chip": "ym2612"
    },
    {
      "channel": 2,
      "note": 63,
      "start": 212.5777,
      "duration": 2.3777,
      "velocity": 99,
      "chip": "ym2612"
    },
    {
      "channel": 3,
      "note": 54,
      "start": 212.5803,
      "duration": 2.5417,
      "velocity": 107,
      "chip": "ym2612"
    },
    {
      "channel": 5,
      "note": 37,
      "start": 213.2083,
      "duration": 0.1303,
      "velocity": 124,
      "chip": "ym2612"
    },
    {
      "channel": 5,
      "note": 31,
      "start": 213.5417,
      "duration": 0.1303,
      "velocity": 124,
      "chip": "ym2612"
    },
    {
      "channel": 5,
      "note": 37,
      "start": 214.1749,
      "duration": 0.1471,
      "velocity": 124,
      "chip": "ym2612"
    },
    {
      "channel": 5,
      "note": 31,
      "start": 214.5083,
      "duration": 0.1303,
      "velocity": 124,
      "chip": "ym2612"
    },
    {
      "channel": 0,
      "note": 72,
      "start": 214.9919,
      "duration": 0.0298,
      "velocity": 90,
      "chip": "ym2612"
    },
    {
      "channel": 2,
      "note": 64,
      "start": 214.9954,
      "duration": 0.0434,
      "velocity": 99,
      "chip": "ym2612"
    },
    {
      "channel": 0,
      "note": 73,
      "start": 215.0418,
      "duration": 0.0299,
      "velocity": 90,
      "chip": "ym2612"
    },
    {
      "channel": 2,
      "note": 66,
      "start": 215.0453,
      "duration": 0.06,
      "velocity": 99,
      "chip": "ym2612"
    },
    {
      "channel": 0,
      "note": 74,
      "start": 215.1083,
      "duration": 0.0134,
      "velocity": 90,
      "chip": "ym2612"
    },
    {
      "channel": 2,
      "note": 67,
      "start": 215.1114,
      "duration": 0.0439,
      "velocity": 99,
      "chip": "ym2612"
    },
    {
      "channel": 4,
      "note": 36,
      "start": 215.1597,
      "duration": 2.5624,
      "velocity": 99,
      "chip": "ym2612"
    },
    {
      "channel": 5,
      "note": 37,
      "start": 215.1624,
      "duration": 0.1263,
      "velocity": 124,
      "chip": "ym2612"
    },
    {
      "channel": 0,
      "note": 75,
      "start": 215.1664,
      "duration": 1.2556,
      "velocity": 90,
      "chip": "ym2612"
    },
    {
      "channel": 2,
      "note": 69,
      "start": 215.1728,
      "duration": 1.2828,
      "velocity": 99,
      "chip": "ym2612"
    },
    {
      "channel": 3,
      "note": 47,
      "start": 215.1758,
      "duration": 2.4795,
      "velocity": 107,
      "chip": "ym2612"
    },
    {
      "channel": 5,
      "note": 31,
      "start": 215.4751,
      "duration": 0.1304,
      "velocity": 124,
      "chip": "ym2612"
    },
    {
      "channel": 5,
      "note": 37,
      "start": 216.1253,
      "duration": 0.1303,
      "velocity": 124,
      "chip": "ym2612"
    },
    {
      "channel": 5,
      "note": 31,
      "start": 216.4591,
      "duration": 0.1298,
      "velocity": 124,
      "chip": "ym2612"
    },
    {
      "channel": 0,
      "note": 69,
      "start": 216.4617,
      "duration": 1.2602,
      "velocity": 90,
      "chip": "ym2612"
    },
    {
      "channel": 2,
      "note": 66,
      "start": 216.465,
      "duration": 1.2237,
      "velocity": 99,
      "chip": "ym2612"
    },
    {
      "channel": 5,
      "note": 37,
      "start": 217.0919,
      "duration": 0.1471,
      "velocity": 124,
      "chip": "ym2612"
    },
    {
      "channel": 5,
      "note": 31,
      "start": 217.4251,
      "duration": 0.1305,
      "velocity": 124,
      "chip": "ym2612"
    },
    {
      "channel": 4,
      "note": 36,
      "start": 217.743,
      "duration": 2.5624,
      "velocity": 99,
      "chip": "ym2612"
    },
    {
      "channel": 1,
      "note": 33,
      "start": 217.7491,
      "duration": 2.5561,
      "velocity": 92,
      "chip": "ym2612"
    },
    {
      "channel": 0,
      "note": 64,
      "start": 217.7534,
      "duration": 0.1852,
      "velocity": 90,
      "chip": "ym2612"
    },
    {
      "channel": 2,
      "note": 67,
      "start": 217.7598,
      "duration": 0.1791,
      "velocity": 99,
      "chip": "ym2612"
    },
    {
      "channel": 3,
      "note": 57,
      "start": 217.7627,
      "duration": 1.2425,
      "velocity": 107,
      "chip": "ym2612"
    },
    {
      "channel": 0,
      "note": 60,
      "start": 217.9583,
      "duration": 0.1969,
      "velocity": 90,
      "chip": "ym2612"
    },
    {
      "channel": 2,
      "note": 60,
      "start": 217.9615,
      "duration": 0.1941,
      "velocity": 99,
      "chip": "ym2612"
    },
    {
      "channel": 5,
      "note": 37,
      "start": 218.075,
      "duration": 0.1303,
      "velocity": 124,
      "chip": "ym2612"
    },
    {
      "channel": 0,
      "note": 57,
      "start": 218.1751,
      "duration": 0.1968,
      "velocity": 90,
      "chip": "ym2612"
    },
    {
      "channel": 2,
      "note": 63,
      "start": 218.1782,
      "duration": 0.194,
      "velocity": 99,
      "chip": "ym2612"
    },
    {
      "channel": 5,
      "note": 31,
      "start": 218.3917,
      "duration": 0.1303,
      "velocity": 124,
      "chip": "ym2612"
    },
    {
      "channel": 0,
      "note": 66,
      "start": 218.3946,
      "duration": 1.0771,
      "velocity": 90,
      "chip": "ym2612"
    },
    {
      "channel": 2,
      "note": 71,
      "start": 218.398,
      "duration": 1.2574,
      "velocity": 99,
      "chip": "ym2612"
    },
    {
      "channel": 5,
      "note": 37,
      "start": 219.0419,
      "duration": 0.1302,
      "velocity": 124,
      "chip": "ym2612"
    },
    {
      "channel": 3,
      "note": 55,
      "start": 219.0452,
      "duration": 1.2432,
      "velocity": 107,
      "chip": "ym2612"
    },
    {
      "channel": 5,
      "note": 31,
      "start": 219.3749,
      "duration": 0.1304,
      "velocity": 124,
      "chip": "ym2612"
    },
    {
      "channel": 0,
      "note": 60,
      "start": 219.5252,
      "duration": 0.0298,
      "velocity": 90,
      "chip": "ym2612"
    },
    {
      "channel": 0,
      "note": 61,
      "start": 219.5749,
      "duration": 0.0302,
      "velocity": 90,
      "chip": "ym2612"
    },
    {
      "channel": 0,
      "note": 62,
      "start": 219.6416,
      "duration": 0.0134,
      "velocity": 90,
      "chip": "ym2612"
    },
    {
      "channel": 0,
      "note": 63,
      "start": 219.692,
      "duration": 0.2964,
      "velocity": 90,
      "chip": "ym2612"
    },
    {
      "channel": 2,
      "note": 69,
      "start": 219.6957,
      "duration": 0.6098,
      "velocity": 99,
      "chip": "ym2612"
    },
    {
      "channel": 5,
      "note": 37,
      "start": 220.0083,
      "duration": 0.1304,
      "velocity": 124,
      "chip": "ym2612"
    },
    {
      "channel": 0,
      "note": 64,
      "start": 220.0112,
      "duration": 0.2938,
      "velocity": 90,
      "chip": "ym2612"
    },
    {
      "channel": 4,
      "note": 36,
      "start": 220.3429,
      "duration": 2.5627,
      "velocity": 99,
      "chip": "ym2612"
    },
    {
      "channel": 5,
      "note": 31,
      "start": 220.3461,
      "duration": 0.1261,
      "velocity": 124,
      "chip": "ym2612"
    },
    {
      "channel": 0,
      "note": 66,
      "start": 220.3498,
      "duration": 0.2554,
      "velocity": 90,
      "chip": "ym2612"
    },
    {
      "channel": 2,
      "note": 66,
      "start": 220.3562,
      "duration": 0.1993,
      "velocity": 99,
      "chip": "ym2612"
    },
    {
      "channel": 3,
      "note": 52,
      "start": 220.359,
      "duration": 1.2464,
      "velocity": 107,
      "chip": "ym2612"
    },
    {
      "channel": 0,
      "note": 67,
      "start": 220.6585,
      "duration": 0.2634,
      "velocity": 90,
      "chip": "ym2612"
    },
    {
      "channel": 2,
      "note": 69,
      "start": 220.7761,
      "duration": 0.2127,
      "velocity": 99,
      "chip": "ym2612"
    },
    {
      "channel": 5,
      "note": 37,
      "start": 220.9919,
      "duration": 0.1303,
      "velocity": 124,
      "chip": "ym2612"
    },
    {
      "channel": 0,
      "note": 69,
      "start": 220.9945,
      "duration": 0.2609,
      "velocity": 90,
      "chip": "ym2612"
    },
    {
      "channel": 2,
      "note": 63,
      "start": 221.2098,
      "duration": 1.6958,
      "velocity": 99,
      "chip": "ym2612"
    },
    {
      "channel": 5,
      "note": 31,
      "start": 221.3086,
      "duration": 0.1303,
      "velocity": 124,
      "chip": "ym2612"
    },
    {
      "channel": 0,
      "note": 71,
      "start": 221.3112,
      "duration": 0.2608,
      "velocity": 90,
      "chip": "ym2612"
    },
    {
      "channel": 0,
      "note": 74,
      "start": 221.6422,
      "duration": 0.4463,
      "velocity": 90,
      "chip": "ym2612"
    },
    {
      "channel": 3,
      "note": 51,
      "start": 221.6452,
      "duration": 1.2602,
      "velocity": 107,
      "chip": "ym2612"
    },
    {
      "channel": 5,
      "note": 37,
      "start": 221.9585,
      "duration": 0.1303,
      "velocity": 124,
      "chip": "ym2612"
    },
    {
      "channel": 0,
      "note": 72,
      "start": 222.1256,
      "duration": 0.013,
      "velocity": 90,
      "chip": "ym2612"
    },
    {
      "channel": 0,
      "note": 71,
      "start": 222.1752,
      "duration": 0.0301,
      "velocity": 90,
      "chip": "ym2612"
    },
    {
      "channel": 0,
      "note": 70,
      "start": 222.2252,
      "duration": 0.0302,
      "velocity": 90,
      "chip": "ym2612"
    },
    {
      "channel": 5,
      "note": 31,
      "start": 222.2752,
      "duration": 0.147,
      "velocity": 124,
      "chip": "ym2612"
    },
    {
      "channel": 0,
      "note": 69,
      "start": 222.2785,
      "duration": 0.2934,
      "velocity": 90,
      "chip": "ym2612"
    },
    {
      "channel": 0,
      "note": 72,
      "start": 222.6089,
      "duration": 0.4463,
      "velocity": 90,
      "chip": "ym2612"
    },
    {
      "channel": 4,
      "note": 36,
      "start": 222.9264,
      "duration": 2.5623,
      "velocity": 99,
      "chip": "ym2612"
    },
    {
      "channel": 5,
      "note": 37,
      "start": 222.9292,
      "duration": 0.1263,
      "velocity": 124,
      "chip": "ym2612"
    },
    {
      "channel": 1,
      "note": 33,
      "start": 222.9332,
      "duration": 2.5553,
      "velocity": 92,
      "chip": "ym2612"
    },
    {
      "channel": 2,
      "note": 64,
      "start": 222.9409,
      "duration": 1.2811,
      "velocity": 99,
      "chip": "ym2612"
    },
    {
      "channel": 3,
      "note": 52,
      "start": 222.9445,
      "duration": 1.9273,
      "velocity": 107,
      "chip": "ym2612"
    },
    {
      "channel": 0,
      "note": 71,
      "start": 223.0921,
      "duration": 0.0298,
      "velocity": 90,
      "chip": "ym2612"
    },
    {
      "channel": 0,
      "note": 69,
      "start": 223.1417,
      "duration": 0.0302,
      "velocity": 90,
      "chip": "ym2612"
    },
    {
      "channel": 0,
      "note": 67,
      "start": 223.2085,
      "duration": 0.0134,
      "velocity": 90,
      "chip": "ym2612"
    },
    {
      "channel": 5,
      "note": 31,
      "start": 223.2583,
      "duration": 0.1304,
      "velocity": 124,
      "chip": "ym2612"
    },
    {
      "channel": 0,
      "note": 66,
      "start": 223.2613,
      "duration": 0.2938,
      "velocity": 90,
      "chip": "ym2612"
    },
    {
      "channel": 0,
      "note": 67,
      "start": 223.5754,
      "duration": 0.913,
      "velocity": 90,
      "chip": "ym2612"
    },
    {
      "channel": 5,
      "note": 37,
      "start": 223.9083,
      "duration": 0.1303,
      "velocity": 124,
      "chip": "ym2612"
    },
    {
      "channel": 5,
      "note": 31,
      "start": 224.2254,
      "duration": 0.1298,
      "velocity": 124,
      "chip": "ym2612"
    },
    {
      "channel": 2,
      "note": 66,
      "start": 224.2292,
      "duration": 0.9428,
      "velocity": 99,
      "chip": "ym2612"
    },
    {
      "channel": 0,
      "note": 71,
      "start": 224.4924,
      "duration": 0.2793,
      "velocity": 90,
      "chip": "ym2612"
    },
    {
      "channel": 5,
      "note": 37,
      "start": 224.875,
      "duration": 0.1303,
      "velocity": 124,
      "chip": "ym2612"
    },
    {
      "channel": 0,
      "note": 69,
      "start": 224.8779,
      "duration": 0.9607,
      "velocity": 90,
      "chip": "ym2612"
    },
    {
      "channel": 3,
      "note": 57,
      "start": 224.8812,
      "duration": 0.5073,
      "velocity": 107,
      "chip": "ym2612"
    },
    {
      "channel": 5,
      "note": 31,
      "start": 225.1914,
      "duration": 0.1472,
      "velocity": 124,
      "chip": "ym2612"
    },
    {
      "channel": 2,
      "note": 67,
      "start": 225.1955,
      "duration": 0.11,
      "velocity": 99,
      "chip": "ym2612"
    },
    {
      "channel": 2,
      "note": 66,
      "start": 225.3094,
      "duration": 0.0793,
      "velocity": 99,
      "chip": "ym2612"
    },
    {
      "channel": 2,
      "note": 64,
      "start": 225.4092,
      "duration": 0.0797,
      "velocity": 99,
      "chip": "ym2612"
    },
    {
      "channel": 4,
      "note": 36,
      "start": 225.5263,
      "duration": 2.5624,
      "velocity": 99,
      "chip": "ym2612"
    },
    {
      "channel": 2,
      "note": 63,
      "start": 225.5355,
      "duration": 1.2534,
      "velocity": 99,
      "chip": "ym2612"
    },
    {
      "channel": 3,
      "note": 47,
      "start": 225.5393,
      "duration": 2.516,
      "velocity": 107,
      "chip": "ym2612"
    },
    {
      "channel": 5,
      "note": 37,
      "start": 225.842,
      "duration": 0.1302,
      "velocity": 124,
      "chip": "ym2612"
    },
    {
      "channel": 0,
      "note": 74,
      "start": 225.845,
      "duration": 0.1936,
      "velocity": 90,
      "chip": "ym2612"
    },
    {
      "channel": 5,
      "note": 31,
      "start": 226.1752,
      "duration": 0.1304,
      "velocity": 124,
      "chip": "ym2612"
    },
    {
      "channel": 0,
      "note": 66,
      "start": 226.1782,
      "duration": 1.2939,
      "velocity": 90,
      "chip": "ym2612"
    },
    {
      "channel": 5,
      "note": 37,
      "start": 226.8253,
      "duration": 0.1302,
      "velocity": 124,
      "chip": "ym2612"
    },
    {
      "channel": 2,
      "note": 59,
      "start": 226.8291,
      "duration": 0.9932,
      "velocity": 99,
      "chip": "ym2612"
    },
    {
      "channel": 5,
      "note": 31,
      "start": 227.1419,
      "duration": 0.1303,
      "velocity": 124,
      "chip": "ym2612"
    },
    {
      "channel": 0,
      "note": 71,
      "start": 227.4756,
      "duration": 0.6129,
      "velocity": 90,
      "chip": "ym2612"
    },
    {
      "channel": 5,
      "note": 37,
      "start": 227.792,
      "duration": 0.1302,
      "velocity": 124,
      "chip": "ym2612"
    },
    {
      "channel": 2,
      "note": 60,
      "start": 227.9097,
      "duration": 0.0625,
      "velocity": 99,
      "chip": "ym2612"
    },
    {
      "channel": 2,
      "note": 59,
      "start": 228.0092,
      "duration": 0.0797,
      "velocity": 99,
      "chip": "ym2612"
    },
    {
      "channel": 4,
      "note": 48,
      "start": 228.1109,
      "duration": 2.5611,
      "velocity": 109,
      "chip": "ym2612"
    },
    {
      "channel": 5,
      "note": 31,
      "start": 228.1141,
      "duration": 0.1414,
      "velocity": 124,
      "chip": "ym2612"
    },
    {
      "channel": 1,
      "note": 33,
      "start": 228.118,
      "duration": 2.5536,
      "velocity": 92,
      "chip": "ym2612"
    },
    {
      "channel": 0,
      "note": 75,
      "start": 228.124,
      "duration": 2.5311,
      "velocity": 90,
      "chip": "ym2612"
    },
    {
      "channel": 2,
      "note": 67,
      "start": 228.1307,
      "duration": 0.6081,
      "velocity": 99,
      "chip": "ym2612"
    },
    {
      "channel": 3,
      "note": 54,
      "start": 228.1356,
      "duration": 1.253,
      "velocity": 90,
      "chip": "ym2612"
    },
    {
      "channel": 5,
      "note": 37,
      "start": 228.7584,
      "duration": 0.1303,
      "velocity": 124,
      "chip": "ym2612"
    },
    {
      "channel": 2,
      "note": 63,
      "start": 228.7618,
      "duration": 0.627,
      "velocity": 99,
      "chip": "ym2612"
    },
    {
      "channel": 5,
      "note": 31,
      "start": 229.0917,
      "duration": 0.1303,
      "velocity": 124,
      "chip": "ym2612"
    },
    {
      "channel": 2,
      "note": 71,
      "start": 229.4091,
      "duration": 0.6296,
      "velocity": 99,
      "chip": "ym2612"
    },
    {
      "channel": 3,
      "note": 52,
      "start": 229.4117,
      "duration": 1.2602,
      "velocity": 90,
      "chip": "ym2612"
    },
    {
      "channel": 5,
      "note": 37,
      "start": 229.7416,
      "duration": 0.1303,
      "velocity": 124,
      "chip": "ym2612"
    },
    {
      "channel": 5,
      "note": 31,
      "start": 230.0583,
      "duration": 0.1303,
      "velocity": 124,
      "chip": "ym2612"
    },
    {
      "channel": 2,
      "note": 74,
      "start": 230.062,
      "duration": 0.4766,
      "velocity": 99,
      "chip": "ym2612"
    },
    {
      "channel": 2,
      "note": 72,
      "start": 230.6094,
      "duration": 0.0461,
      "velocity": 99,
      "chip": "ym2612"
    },
    {
      "channel": 2,
      "note": 71,
      "start": 230.6598,
      "duration": 0.0123,
      "velocity": 99,
      "chip": "ym2612"
    },
    {
      "channel": 4,
      "note": 48,
      "start": 230.7083,
      "duration": 2.5305,
      "velocity": 109,
      "chip": "ym2612"
    },
    {
      "channel": 5,
      "note": 37,
      "start": 230.711,
      "duration": 0.1278,
      "velocity": 124,
      "chip": "ym2612"
    },
    {
      "channel": 0,
      "note": 83,
      "start": 230.7152,
      "duration": 2.2069,
      "velocity": 90,
      "chip": "ym2612"
    },
    {
      "channel": 2,
      "note": 69,
      "start": 230.7216,
      "duration": 0.6006,
      "velocity": 99,
      "chip": "ym2612"
    },
    {
      "channel": 3,
      "note": 48,
      "start": 230.7243,
      "duration": 1.2478,
      "velocity": 90,
      "chip": "ym2612"
    },
    {
      "channel": 5,
      "note": 31,
      "start": 231.0251,
      "duration": 0.147,
      "velocity": 124,
      "chip": "ym2612"
    },
    {
      "channel": 2,
      "note": 66,
      "start": 231.3607,
      "duration": 0.6116,
      "velocity": 99,
      "chip": "ym2612"
    },
    {
      "channel": 5,
      "note": 37,
      "start": 231.6752,
      "duration": 0.1303,
      "velocity": 124,
      "chip": "ym2612"
    },
    {
      "channel": 5,
      "note": 31,
      "start": 232.009,
      "duration": 0.1298,
      "velocity": 124,
      "chip": "ym2612"
    },
    {
      "channel": 2,
      "note": 76,
      "start": 232.0127,
      "duration": 0.2595,
      "velocity": 99,
      "chip": "ym2612"
    },
    {
      "channel": 3,
      "note": 45,
      "start": 232.0153,
      "duration": 1.2566,
      "velocity": 90,
      "chip": "ym2612"
    },
    {
      "channel": 2,
      "note": 78,
      "start": 232.3259,
      "duration": 0.263,
      "velocity": 99,
      "chip": "ym2612"
    },
    {
      "channel": 5,
      "note": 37,
      "start": 232.6586,
      "duration": 0.1303,
      "velocity": 124,
      "chip": "ym2612"
    },
    {
      "channel": 2,
      "note": 79,
      "start": 232.6622,
      "duration": 0.2602,
      "velocity": 99,
      "chip": "ym2612"
    },
    {
      "channel": 2,
      "note": 81,
      "start": 232.9266,
      "duration": 0.2955,
      "velocity": 99,
      "chip": "ym2612"
    },
    {
      "channel": 5,
      "note": 31,
      "start": 232.9751,
      "duration": 0.1305,
      "velocity": 124,
      "chip": "ym2612"
    },
    {
      "channel": 0,
      "note": 79,
      "start": 232.978,
      "duration": 0.1606,
      "velocity": 90,
      "chip": "ym2612"
    },
    {
      "channel": 4,
      "note": 47,
      "start": 233.3102,
      "duration": 2.4785,
      "velocity": 109,
      "chip": "ym2612"
    },
    {
      "channel": 1,
      "note": 33,
      "start": 233.3163,
      "duration": 2.5389,
      "velocity": 92,
      "chip": "ym2612"
    },
    {
      "channel": 0,
      "note": 78,
      "start": 233.3216,
      "duration": 2.3836,
      "velocity": 90,
      "chip": "ym2612"
    },
    {
      "channel": 2,
      "note": 83,
      "start": 233.3279,
      "duration": 2.3442,
      "velocity": 99,
      "chip": "ym2612"
    },
    {
      "channel": 3,
      "note": 39,
      "start": 233.3305,
      "duration": 1.2414,
      "velocity": 90,
      "chip": "ym2612"
    },
    {
      "channel": 5,
      "note": 37,
      "start": 233.6251,
      "duration": 0.1303,
      "velocity": 124,
      "chip": "ym2612"
    },
    {
      "channel": 5,
      "note": 31,
      "start": 233.9418,
      "duration": 0.1469,
      "velocity": 124,
      "chip": "ym2612"
    },
    {
      "channel": 5,
      "note": 37,
      "start": 234.5919,
      "duration": 0.1302,
      "velocity": 124,
      "chip": "ym2612"
    },
    {
      "channel": 3,
      "note": 45,
      "start": 234.5951,
      "duration": 1.2603,
      "velocity": 90,
      "chip": "ym2612"
    },
    {
      "channel": 5,
      "note": 31,
      "start": 234.9251,
      "duration": 0.1303,
      "velocity": 124,
      "chip": "ym2612"
    },
    {
      "channel": 5,
      "note": 37,
      "start": 235.5751,
      "duration": 0.1304,
      "velocity": 124,
      "chip": "ym2612"
    },
    {
      "channel": 0,
      "note": 79,
      "start": 235.7254,
      "duration": 0.0632,
      "velocity": 90,
      "chip": "ym2612"
    },
    {
      "channel": 2,
      "note": 84,
      "start": 235.7288,
      "duration": 0.0266,
      "velocity": 99,
      "chip": "ym2612"
    },
    {
      "channel": 0,
      "note": 81,
      "start": 235.7919,
      "duration": 0.0467,
      "velocity": 90,
      "chip": "ym2612"
    },
    {
      "channel": 2,
      "note": 85,
      "start": 235.795,
      "duration": 0.0104,
      "velocity": 99,
      "chip": "ym2612"
    },
    {
      "channel": 0,
      "note": 83,
      "start": 235.8419,
      "duration": 0.0467,
      "velocity": 90,
      "chip": "ym2612"
    },
    {
      "channel": 2,
      "note": 86,
      "start": 235.845,
      "duration": 0.0105,
      "velocity": 99,
      "chip": "ym2612"
    },
    {
      "channel": 4,
      "note": 47,
      "start": 235.8937,
      "duration": 2.5284,
      "velocity": 109,
      "chip": "ym2612"
    },
    {
      "channel": 5,
      "note": 31,
      "start": 235.8968,
      "duration": 0.1254,
      "velocity": 124,
      "chip": "ym2612"
    },
    {
      "channel": 0,
      "note": 84,
      "start": 235.9007,
      "duration": 1.288,
      "velocity": 90,
      "chip": "ym2612"
    },
    {
      "channel": 2,
      "note": 87,
      "start": 235.9072,
      "duration": 1.2485,
      "velocity": 99,
      "chip": "ym2612"
    },
    {
      "channel": 3,
      "note": 35,
      "start": 235.9098,
      "duration": 1.2457,
      "velocity": 90,
      "chip": "ym2612"
    },
    {
      "channel": 5,
      "note": 37,
      "start": 236.5419,
      "duration": 0.1305,
      "velocity": 124,
      "chip": "ym2612"
    },
    {
      "channel": 5,
      "note": 31,
      "start": 236.8588,
      "duration": 0.1468,
      "velocity": 124,
      "chip": "ym2612"
    },
    {
      "channel": 0,
      "note": 81,
      "start": 237.1923,
      "duration": 1.2296,
      "velocity": 90,
      "chip": "ym2612"
    },
    {
      "channel": 2,
      "note": 81,
      "start": 237.1954,
      "duration": 1.2602,
      "velocity": 99,
      "chip": "ym2612"
    },
    {
      "channel": 3,
      "note": 42,
      "start": 237.198,
      "duration": 1.2574,
      "velocity": 90,
      "chip": "ym2612"
    },
    {
      "channel": 5,
      "note": 37,
      "start": 237.5086,
      "duration": 0.1303,
      "velocity": 124,
      "chip": "ym2612"
    },
    {
      "channel": 5,
      "note": 31,
      "start": 237.842,
      "duration": 0.1303,
      "velocity": 124,
      "chip": "ym2612"
    },
    {
      "channel": 4,
      "note": 45,
      "start": 238.4917,
      "duration": 2.5301,
      "velocity": 109,
      "chip": "ym2612"
    },
    {
      "channel": 5,
      "note": 37,
      "start": 238.4945,
      "duration": 0.1277,
      "velocity": 124,
      "chip": "ym2612"
    },
    {
      "channel": 1,
      "note": 33,
      "start": 238.4985,
      "duration": 2.5568,
      "velocity": 92,
      "chip": "ym2612"
    },
    {
      "channel": 0,
      "note": 83,
      "start": 238.5029,
      "duration": 0.1691,
      "velocity": 90,
      "chip": "ym2612"
    },
    {
      "channel": 2,
      "note": 76,
      "start": 238.5093,
      "duration": 0.1631,
      "velocity": 99,
      "chip": "ym2612"
    },
    {
      "channel": 3,
      "note": 36,
      "start": 238.5119,
      "duration": 1.2434,
      "velocity": 90,
      "chip": "ym2612"
    },
    {
      "channel": 0,
      "note": 75,
      "start": 238.7085,
      "duration": 0.1801,
      "velocity": 90,
      "chip": "ym2612"
    },
    {
      "channel": 2,
      "note": 72,
      "start": 238.7116,
      "duration": 0.1773,
      "velocity": 99,
      "chip": "ym2612"
    },
    {
      "channel": 5,
      "note": 31,
      "start": 238.8084,
      "duration": 0.1303,
      "velocity": 124,
      "chip": "ym2612"
    },
    {
      "channel": 0,
      "note": 78,
      "start": 238.9252,
      "duration": 0.18,
      "velocity": 90,
      "chip": "ym2612"
    },
    {
      "channel": 2,
      "note": 69,
      "start": 238.9286,
      "duration": 0.1769,
      "velocity": 99,
      "chip": "ym2612"
    },
    {
      "channel": 0,
      "note": 86,
      "start": 239.1421,
      "duration": 1.2629,
      "velocity": 90,
      "chip": "ym2612"
    },
    {
      "channel": 2,
      "note": 78,
      "start": 239.1455,
      "duration": 1.0598,
      "velocity": 99,
      "chip": "ym2612"
    },
    {
      "channel": 5,
      "note": 37,
      "start": 239.4584,
      "duration": 0.1303,
      "velocity": 124,
      "chip": "ym2612"
    },
    {
      "channel": 5,
      "note": 31,
      "start": 239.7754,
      "duration": 0.1466,
      "velocity": 124,
      "chip": "ym2612"
    },
    {
      "channel": 3,
      "note": 39,
      "start": 239.7785,
      "duration": 1.2768,
      "velocity": 90,
      "chip": "ym2612"
    },
    {
      "channel": 2,
      "note": 72,
      "start": 240.276,
      "duration": 0.0127,
      "velocity": 99,
      "chip": "ym2612"
    },
    {
      "channel": 2,
      "note": 73,
      "start": 240.3258,
      "duration": 0.0129,
      "velocity": 99,
      "chip": "ym2612"
    },
    {
      "channel": 2,
      "note": 74,
      "start": 240.3758,
      "duration": 0.0295,
      "velocity": 99,
      "chip": "ym2612"
    },
    {
      "channel": 5,
      "note": 37,
      "start": 240.4249,
      "duration": 0.1303,
      "velocity": 124,
      "chip": "ym2612"
    },
    {
      "channel": 0,
      "note": 84,
      "start": 240.4279,
      "duration": 0.6272,
      "velocity": 90,
      "chip": "ym2612"
    },
    {
      "channel": 2,
      "note": 75,
      "start": 240.4313,
      "duration": 0.2906,
      "velocity": 99,
      "chip": "ym2612"
    },
    {
      "channel": 5,
      "note": 31,
      "start": 240.7581,
      "duration": 0.1305,
      "velocity": 124,
      "chip": "ym2612"
    },
    {
      "channel": 2,
      "note": 76,
      "start": 240.7615,
      "duration": 0.2941,
      "velocity": 99,
      "chip": "ym2612"
    },
    {
      "channel": 4,
      "note": 48,
      "start": 241.0747,
      "duration": 2.5307,
      "velocity": 109,
      "chip": "ym2612"
    },
    {
      "channel": 0,
      "note": 81,
      "start": 241.0807,
      "duration": 0.2079,
      "velocity": 90,
      "chip": "ym2612"
    },
    {
      "channel": 2,
      "note": 78,
      "start": 241.0863,
      "duration": 0.2526,
      "velocity": 99,
      "chip": "ym2612"
    },
    {
      "channel": 3,
      "note": 45,
      "start": 241.0897,
      "duration": 1.199,
      "velocity": 90,
      "chip": "ym2612"
    },
    {
      "channel": 5,
      "note": 37,
      "start": 241.4085,
      "duration": 0.1303,
      "velocity": 124,
      "chip": "ym2612"
    },
    {
      "channel": 2,
      "note": 79,
      "start": 241.412,
      "duration": 0.2602,
      "velocity": 99,
      "chip": "ym2612"
    },
    {
      "channel": 0,
      "note": 84,
      "start": 241.5085,
      "duration": 0.2135,
      "velocity": 90,
      "chip": "ym2612"
    },
    {
      "channel": 5,
      "note": 31,
      "start": 241.7253,
      "duration": 0.1302,
      "velocity": 124,
      "chip": "ym2612"
    },
    {
      "channel": 2,
      "note": 81,
      "start": 241.7305,
      "duration": 0.2584,
      "velocity": 99,
      "chip": "ym2612"
    },
    {
      "channel": 0,
      "note": 78,
      "start": 241.9427,
      "duration": 1.6958,
      "velocity": 90,
      "chip": "ym2612"
    },
    {
      "channel": 2,
      "note": 83,
      "start": 242.0595,
      "duration": 0.2628,
      "velocity": 99,
      "chip": "ym2612"
    },
    {
      "channel": 5,
      "note": 37,
      "start": 242.3752,
      "duration": 0.1303,
      "velocity": 124,
      "chip": "ym2612"
    },
    {
      "channel": 2,
      "note": 86,
      "start": 242.379,
      "duration": 0.4599,
      "velocity": 99,
      "chip": "ym2612"
    },
    {
      "channel": 3,
      "note": 42,
      "start": 242.3822,
      "duration": 1.2566,
      "velocity": 90,
      "chip": "ym2612"
    },
    {
      "channel": 5,
      "note": 31,
      "start": 242.6918,
      "duration": 0.1469,
      "velocity": 124,
      "chip": "ym2612"
    },
    {
      "channel": 2,
      "note": 84,
      "start": 242.8597,
      "duration": 0.0293,
      "velocity": 99,
      "chip": "ym2612"
    },
    {
      "channel": 2,
      "note": 83,
      "start": 242.9094,
      "duration": 0.0296,
      "velocity": 99,
      "chip": "ym2612"
    },
    {
      "channel": 2,
      "note": 82,
      "start": 242.976,
      "duration": 0.0129,
      "velocity": 99,
      "chip": "ym2612"
    },
    {
      "channel": 2,
      "note": 81,
      "start": 243.0264,
      "duration": 0.2959,
      "velocity": 99,
      "chip": "ym2612"
    },
    {
      "channel": 5,
      "note": 37,
      "start": 243.3419,
      "duration": 0.1304,
      "velocity": 124,
      "chip": "ym2612"
    },
    {
      "channel": 2,
      "note": 84,
      "start": 243.3456,
      "duration": 0.4599,
      "velocity": 99,
      "chip": "ym2612"
    },
    {
      "channel": 4,
      "note": 39,
      "start": 243.6748,
      "duration": 2.5305,
      "velocity": 109,
      "chip": "ym2612"
    },
    {
      "channel": 5,
      "note": 31,
      "start": 243.6779,
      "duration": 0.1275,
      "velocity": 124,
      "chip": "ym2612"
    },
    {
      "channel": 1,
      "note": 33,
      "start": 243.6819,
      "duration": 2.5567,
      "velocity": 92,
      "chip": "ym2612"
    },
    {
      "channel": 0,
      "note": 79,
      "start": 243.6859,
      "duration": 1.286,
      "velocity": 90,
      "chip": "ym2612"
    },
    {
      "channel": 3,
      "note": 51,
      "start": 243.6917,
      "duration": 1.2469,
      "velocity": 90,
      "chip": "ym2612"
    },
    {
      "channel": 2,
      "note": 83,
      "start": 243.8266,
      "duration": 0.029,
      "velocity": 99,
      "chip": "ym2612"
    },
    {
      "channel": 2,
      "note": 81,
      "start": 243.8926,
      "duration": 0.0129,
      "velocity": 99,
      "chip": "ym2612"
    },
    {
      "channel": 2,
      "note": 79,
      "start": 243.9425,
      "duration": 0.0297,
      "velocity": 99,
      "chip": "ym2612"
    },
    {
      "channel": 2,
      "note": 78,
      "start": 243.9928,
      "duration": 0.2959,
      "velocity": 99,
      "chip": "ym2612"
    },
    {
      "channel": 5,
      "note": 37,
      "start": 244.325,
      "duration": 0.1304,
      "velocity": 124,
      "chip": "ym2612"
    },
    {
      "channel": 2,
      "note": 79,
      "start": 244.3287,
      "duration": 0.9099,
      "velocity": 99,
      "chip": "ym2612"
    },
    {
      "channel": 5,
      "note": 31,
      "start": 244.6417,
      "duration": 0.1304,
      "velocity": 124,
      "chip": "ym2612"
    },
    {
      "channel": 0,
      "note": 81,
      "start": 244.9755,
      "duration": 0.9296,
      "velocity": 90,
      "chip": "ym2612"
    },
    {
      "channel": 3,
      "note": 47,
      "start": 244.9788,
      "duration": 0.6098,
      "velocity": 90,
      "chip": "ym2612"
    },
    {
      "channel": 2,
      "note": 83,
      "start": 245.2427,
      "duration": 0.2625,
      "velocity": 99,
      "chip": "ym2612"
    },
    {
      "channel": 5,
      "note": 37,
      "start": 245.2916,
      "duration": 0.1303,
      "velocity": 124,
      "chip": "ym2612"
    },
    {
      "channel": 5,
      "note": 31,
      "start": 245.6083,
      "duration": 0.1303,
      "velocity": 124,
      "chip": "ym2612"
    },
    {
      "channel": 2,
      "note": 81,
      "start": 245.6124,
      "duration": 0.9765,
      "velocity": 99,
      "chip": "ym2612"
    },
    {
      "channel": 3,
      "note": 42,
      "start": 245.615,
      "duration": 0.6237,
      "velocity": 90,
      "chip": "ym2612"
    },
    {
      "channel": 0,
      "note": 83,
      "start": 245.942,
      "duration": 0.0965,
      "velocity": 90,
      "chip": "ym2612"
    },
    {
      "channel": 0,
      "note": 81,
      "start": 246.0419,
      "duration": 0.0798,
      "velocity": 90,
      "chip": "ym2612"
    },
    {
      "channel": 0,
      "note": 79,
      "start": 246.1583,
      "duration": 0.0802,
      "velocity": 90,
      "chip": "ym2612"
    },
    {
      "channel": 4,
      "note": 47,
      "start": 246.26,
      "duration": 2.5454,
      "velocity": 109,
      "chip": "ym2612"
    },
    {
      "channel": 5,
      "note": 37,
      "start": 246.2627,
      "duration": 0.1261,
      "velocity": 124,
      "chip": "ym2612"
    },
    {
      "channel": 0,
      "note": 78,
      "start": 246.2667,
      "duration": 1.2554,
      "velocity": 90,
      "chip": "ym2612"
    },
    {
      "channel": 3,
      "note": 35,
      "start": 246.2729,
      "duration": 1.2493,
      "velocity": 90,
      "chip": "ym2612"
    },
    {
      "channel": 5,
      "note": 31,
      "start": 246.592,
      "duration": 0.1302,
      "velocity": 124,
      "chip": "ym2612"
    },
    {
      "channel": 2,
      "note": 86,
      "start": 246.5957,
      "duration": 0.1766,
      "velocity": 99,
      "chip": "ym2612"
    },
    {
      "channel": 2,
      "note": 78,
      "start": 246.9111,
      "duration": 1.2945,
      "velocity": 99,
      "chip": "ym2612"
    },
    {
      "channel": 5,
      "note": 37,
      "start": 247.242,
      "duration": 0.1303,
      "velocity": 124,
      "chip": "ym2612"
    },
    {
      "channel": 5,
      "note": 31,
      "start": 247.5591,
      "duration": 0.1298,
      "velocity": 124,
      "chip": "ym2612"
    },
    {
      "channel": 0,
      "note": 74,
      "start": 247.5624,
      "duration": 0.9931,
      "velocity": 90,
      "chip": "ym2612"
    },
    {
      "channel": 3,
      "note": 39,
      "start": 247.5653,
      "duration": 1.2568,
      "velocity": 90,
      "chip": "ym2612"
    },
    {
      "channel": 5,
      "note": 37,
      "start": 248.2087,
      "duration": 0.1302,
      "velocity": 124,
      "chip": "ym2612"
    },
    {
      "channel": 2,
      "note": 83,
      "start": 248.2124,
      "duration": 0.6099,
      "velocity": 99,
      "chip": "ym2612"
    },
    {
      "channel": 5,
      "note": 31,
      "start": 248.5252,
      "duration": 0.1304,
      "velocity": 124,
      "chip": "ym2612"
    },
    {
      "channel": 0,
      "note": 72,
      "start": 248.6424,
      "duration": 0.0796,
      "velocity": 90,
      "chip": "ym2612"
    },
    {
      "channel": 0,
      "note": 69,
      "start": 248.7419,
      "duration": 0.0801,
      "velocity": 90,
      "chip": "ym2612"
    },
    {
      "channel": 4,
      "note": 45,
      "start": 248.8586,
      "duration": 2.5635,
      "velocity": 109,
      "chip": "ym2612"
    },
    {
      "channel": 1,
      "note": 33,
      "start": 248.8675,
      "duration": 0.6454,
      "velocity": 92,
      "chip": "ym2612"
    },
    {
      "channel": 0,
      "note": 75,
      "start": 248.8723,
      "duration": 2.5161,
      "velocity": 90,
      "chip": "ym2612"
    },
    {
      "channel": 2,
      "note": 67,
      "start": 248.8817,
      "duration": 0.5903,
      "velocity": 99,
      "chip": "ym2612"
    },
    {
      "channel": 3,
      "note": 54,
      "start": 248.8851,
      "duration": 1.237,
      "velocity": 90,
      "chip": "ym2612"
    },
    {
      "channel": 5,
      "note": 37,
      "start": 249.1752,
      "duration": 0.1303,
      "velocity": 124,
      "chip": "ym2612"
    },
    {
      "channel": 5,
      "note": 31,
      "start": 249.5084,
      "duration": 0.1303,
      "velocity": 124,
      "chip": "ym2612"
    },
    {
      "channel": 2,
      "note": 63,
      "start": 249.5118,
      "duration": 0.6105,
      "velocity": 99,
      "chip": "ym2612"
    },
    {
      "channel": 1,
      "note": 60,
      "start": 249.5149,
      "duration": 0.607,
      "velocity": 98,
      "chip": "ym2612"
    },
    {
      "channel": 5,
      "note": 37,
      "start": 250.1583,
      "duration": 0.1303,
      "velocity": 124,
      "chip": "ym2612"
    },
    {
      "channel": 2,
      "note": 71,
      "start": 250.1618,
      "duration": 0.6104,
      "velocity": 99,
      "chip": "ym2612"
    },
    {
      "channel": 1,
      "note": 57,
      "start": 250.1644,
      "duration": 0.6075,
      "velocity": 98,
      "chip": "ym2612"
    },
    {
      "channel": 3,
      "note": 52,
      "start": 250.1673,
      "duration": 1.2546,
      "velocity": 90,
      "chip": "ym2612"
    },
    {
      "channel": 5,
      "note": 31,
      "start": 250.4749,
      "duration": 0.1305,
      "velocity": 124,
      "chip": "ym2612"
    },
    {
      "channel": 2,
      "note": 74,
      "start": 250.7927,
      "duration": 0.4959,
      "velocity": 99,
      "chip": "ym2612"
    },
    {
      "channel": 1,
      "note": 63,
      "start": 250.7954,
      "duration": 0.6263,
      "velocity": 98,
      "chip": "ym2612"
    },
    {
      "channel": 5,
      "note": 37,
      "start": 251.1249,
      "duration": 0.1303,
      "velocity": 124,
      "chip": "ym2612"
    },
    {
      "channel": 2,
      "note": 72,
      "start": 251.3431,
      "duration": 0.0457,
      "velocity": 99,
      "chip": "ym2612"
    },
    {
      "channel": 2,
      "note": 71,
      "start": 251.3928,
      "duration": 0.0294,
      "velocity": 99,
      "chip": "ym2612"
    },
    {
      "channel": 4,
      "note": 48,
      "start": 251.4417,
      "duration": 2.5471,
      "velocity": 109,
      "chip": "ym2612"
    },
    {
      "channel": 5,
      "note": 31,
      "start": 251.4448,
      "duration": 0.1273,
      "velocity": 124,
      "chip": "ym2612"
    },
    {
      "channel": 0,
      "note": 83,
      "start": 251.4494,
      "duration": 2.206,
      "velocity": 90,
      "chip": "ym2612"
    },
    {
      "channel": 2,
      "note": 69,
      "start": 251.4558,
      "duration": 0.6165,
      "velocity": 99,
      "chip": "ym2612"
    },
    {
      "channel": 1,
      "note": 67,
      "start": 251.4592,
      "duration": 0.4795,
      "velocity": 98,
      "chip": "ym2612"
    },
    {
      "channel": 3,
      "note": 48,
      "start": 251.4617,
      "duration": 1.2605,
      "velocity": 90,
      "chip": "ym2612"
    },
    {
      "channel": 1,
      "note": 66,
      "start": 251.9929,
      "duration": 0.0457,
      "velocity": 98,
      "chip": "ym2612"
    },
    {
      "channel": 1,
      "note": 64,
      "start": 252.0427,
      "duration": 0.0293,
      "velocity": 98,
      "chip": "ym2612"
    },
    {
      "channel": 5,
      "note": 37,
      "start": 252.0919,
      "duration": 0.1304,
      "velocity": 124,
      "chip": "ym2612"
    },
    {
      "channel": 2,
      "note": 66,
      "start": 252.0971,
      "duration": 0.6253,
      "velocity": 99,
      "chip": "ym2612"
    },
    {
      "channel": 1,
      "note": 63,
      "start": 252.1,
      "duration": 0.622,
      "velocity": 98,
      "chip": "ym2612"
    },
    {
      "channel": 5,
      "note": 31,
      "start": 252.4252,
      "duration": 0.1303,
      "velocity": 124,
      "chip": "ym2612"
    },
    {
      "channel": 2,
      "note": 76,
      "start": 252.743,
      "duration": 0.2625,
      "velocity": 99,
      "chip": "ym2612"
    },
    {
      "channel": 1,
      "note": 59,
      "start": 252.7457,
      "duration": 0.6097,
      "velocity": 98,
      "chip": "ym2612"
    },
    {
      "channel": 3,
      "note": 45,
      "start": 252.7481,
      "duration": 1.2572,
      "velocity": 90,
      "chip": "ym2612"
    },
    {
      "channel": 5,
      "note": 37,
      "start": 253.0751,
      "duration": 0.1304,
      "velocity": 124,
      "chip": "ym2612"
    },
    {
      "channel": 2,
      "note": 78,
      "start": 253.0785,
      "duration": 0.2604,
      "velocity": 99,
      "chip": "ym2612"
    },
    {
      "channel": 5,
      "note": 31,
      "start": 253.3919,
      "duration": 0.1303,
      "velocity": 124,
      "chip": "ym2612"
    },
    {
      "channel": 2,
      "note": 79,
      "start": 253.3955,
      "duration": 0.2603,
      "velocity": 99,
      "chip": "ym2612"
    },
    {
      "channel": 1,
      "note": 69,
      "start": 253.3985,
      "duration": 0.2571,
      "velocity": 98,
      "chip": "ym2612"
    },
    {
      "channel": 2,
      "note": 81,
      "start": 253.6604,
      "duration": 0.2951,
      "velocity": 99,
      "chip": "ym2612"
    },
    {
      "channel": 0,
      "note": 79,
      "start": 253.7089,
      "duration": 0.1631,
      "velocity": 90,
      "chip": "ym2612"
    },
    {
      "channel": 1,
      "note": 71,
      "start": 253.7119,
      "duration": 0.2767,
      "velocity": 98,
      "chip": "ym2612"
    },
    {
      "channel": 4,
      "note": 47,
      "start": 254.0431,
      "duration": 2.5288,
      "velocity": 109,
      "chip": "ym2612"
    },
    {
      "channel": 5,
      "note": 37,
      "start": 254.0459,
      "duration": 0.1263,
      "velocity": 124,
      "chip": "ym2612"
    },
    {
      "channel": 0,
      "note": 33,
      "start": 254.0507,
      "duration": 0.0151,
      "velocity": 92,
      "chip": "ym2612"
    },
    {
      "channel": 2,
      "note": 78,
      "start": 254.0559,
      "duration": 2.3828,
      "velocity": 90,
      "chip": "ym2612"
    },
    {
      "channel": 1,
      "note": 83,
      "start": 254.0623,
      "duration": 2.3429,
      "velocity": 99,
      "chip": "ym2612"
    },
    {
      "channel": 3,
      "note": 72,
      "start": 254.0651,
      "duration": 0.2403,
      "velocity": 98,
      "chip": "ym2612"
    },
    {
      "channel": 0,
      "note": 39,
      "start": 254.0677,
      "duration": 1.2376,
      "velocity": 90,
      "chip": "ym2612"
    },
    {
      "channel": 5,
      "note": 31,
      "start": 254.3585,
      "duration": 0.1303,
      "velocity": 124,
      "chip": "ym2612"
    },
    {
      "channel": 3,
      "note": 74,
      "start": 254.3619,
      "duration": 0.2768,
      "velocity": 98,
      "chip": "ym2612"
    },
    {
      "channel": 3,
      "note": 75,
      "start": 254.6934,
      "duration": 2.3621,
      "velocity": 98,
      "chip": "ym2612"
    },
    {
      "channel": 5,
      "note": 37,
      "start": 255.0085,
      "duration": 0.1304,
      "velocity": 124,
      "chip": "ym2612"
    },
    {
      "channel": 5,
      "note": 31,
      "start": 255.3421,
      "duration": 0.1299,
      "velocity": 124,
      "chip": "ym2612"
    },
    {
      "channel": 0,
      "note": 45,
      "start": 255.3453,
      "duration": 1.2599,
      "velocity": 90,
      "chip": "ym2612"
    },
    {
      "channel": 5,
      "note": 37,
      "start": 255.9917,
      "duration": 0.1303,
      "velocity": 124,
      "chip": "ym2612"
    },
    {
      "channel": 5,
      "note": 31,
      "start": 256.3082,
      "duration": 0.1304,
      "velocity": 124,
      "chip": "ym2612"
    },
    {
      "channel": 2,
      "note": 79,
      "start": 256.4756,
      "duration": 0.0465,
      "velocity": 90,
      "chip": "ym2612"
    },
    {
      "channel": 1,
      "note": 84,
      "start": 256.4788,
      "duration": 0.0098,
      "velocity": 99,
      "chip": "ym2612"
    },
    {
      "channel": 2,
      "note": 81,
      "start": 256.5254,
      "duration": 0.0466,
      "velocity": 90,
      "chip": "ym2612"
    },
    {
      "channel": 1,
      "note": 85,
      "start": 256.5284,
      "duration": 0.0268,
      "velocity": 99,
      "chip": "ym2612"
    },
    {
      "channel": 2,
      "note": 83,
      "start": 256.5754,
      "duration": 0.0468,
      "velocity": 90,
      "chip": "ym2612"
    },
    {
      "channel": 1,
      "note": 86,
      "start": 256.5783,
      "duration": 0.027,
      "velocity": 99,
      "chip": "ym2612"
    },
    {
      "channel": 4,
      "note": 47,
      "start": 256.6267,
      "duration": 2.5454,
      "velocity": 109,
      "chip": "ym2612"
    },
    {
      "channel": 2,
      "note": 84,
      "start": 256.6334,
      "duration": 1.2889,
      "velocity": 90,
      "chip": "ym2612"
    },
    {
      "channel": 1,
      "note": 87,
      "start": 256.6396,
      "duration": 1.2659,
      "velocity": 99,
      "chip": "ym2612"
    },
    {
      "channel": 0,
      "note": 35,
      "start": 256.6422,
      "duration": 1.2632,
      "velocity": 90,
      "chip": "ym2612"
    },
    {
      "channel": 5,
      "note": 37,
      "start": 256.9585,
      "duration": 0.1303,
      "velocity": 124,
      "chip": "ym2612"
    },
    {
      "channel": 3,
      "note": 76,
      "start": 257.1263,
      "duration": 0.0125,
      "velocity": 98,
      "chip": "ym2612"
    },
    {
      "channel": 3,
      "note": 78,
      "start": 257.1759,
      "duration": 0.0129,
      "velocity": 98,
      "chip": "ym2612"
    },
    {
      "channel": 3,
      "note": 79,
      "start": 257.2259,
      "duration": 0.0295,
      "velocity": 98,
      "chip": "ym2612"
    },
    {
      "channel": 5,
      "note": 31,
      "start": 257.2753,
      "duration": 0.1303,
      "velocity": 124,
      "chip": "ym2612"
    },
    {
      "channel": 3,
      "note": 81,
      "start": 257.2804,
      "duration": 1.2585,
      "velocity": 98,
      "chip": "ym2612"
    },
    {
      "channel": 5,
      "note": 37,
      "start": 257.9254,
      "duration": 0.1302,
      "velocity": 124,
      "chip": "ym2612"
    },
    {
      "channel": 2,
      "note": 81,
      "start": 257.9284,
      "duration": 1.2439,
      "velocity": 90,
      "chip": "ym2612"
    },
    {
      "channel": 1,
      "note": 81,
      "start": 257.9314,
      "duration": 1.2574,
      "velocity": 99,
      "chip": "ym2612"
    },
    {
      "channel": 0,
      "note": 42,
      "start": 257.9338,
      "duration": 1.2548,
      "velocity": 90,
      "chip": "ym2612"
    },
    {
      "channel": 5,
      "note": 31,
      "start": 258.2586,
      "duration": 0.1303,
      "velocity": 124,
      "chip": "ym2612"
    },
    {
      "channel": 3,
      "note": 74,
      "start": 258.576,
      "duration": 0.6679,
      "velocity": 98,
      "chip": "ym2612"
    },
    {
      "channel": 5,
      "note": 37,
      "start": 258.9086,
      "duration": 0.1303,
      "velocity": 124,
      "chip": "ym2612"
    },
    {
      "channel": 4,
      "note": 45,
      "start": 259.225,
      "duration": 0.6576,
      "velocity": 109,
      "chip": "ym2612"
    },
    {
      "channel": 5,
      "note": 31,
      "start": 259.2281,
      "duration": 0.1273,
      "velocity": 124,
      "chip": "ym2612"
    },
    {
      "channel": 2,
      "note": 33,
      "start": 259.2323,
      "duration": 2.5566,
      "velocity": 92,
      "chip": "ym2612"
    },
    {
      "channel": 0,
      "note": 83,
      "start": 259.2366,
      "duration": 0.1687,
      "velocity": 90,
      "chip": "ym2612"
    },
    {
      "channel": 1,
      "note": 76,
      "start": 259.2431,
      "duration": 0.1623,
      "velocity": 99,
      "chip": "ym2612"
    },
    {
      "channel": 3,
      "note": 36,
      "start": 259.2459,
      "duration": 1.2427,
      "velocity": 90,
      "chip": "ym2612"
    },
    {
      "channel": 0,
      "note": 75,
      "start": 259.442,
      "duration": 0.1799,
      "velocity": 90,
      "chip": "ym2612"
    },
    {
      "channel": 1,
      "note": 72,
      "start": 259.4448,
      "duration": 0.1772,
      "velocity": 99,
      "chip": "ym2612"
    },
    {
      "channel": 0,
      "note": 78,
      "start": 259.6585,
      "duration": 0.1802,
      "velocity": 90,
      "chip": "ym2612"
    },
    {
      "channel": 1,
      "note": 69,
      "start": 259.6614,
      "duration": 0.1774,
      "velocity": 99,
      "chip": "ym2612"
    },
    {
      "channel": 5,
      "note": 37,
      "start": 259.8751,
      "duration": 0.1303,
      "velocity": 124,
      "chip": "ym2612"
    },
    {
      "channel": 0,
      "note": 86,
      "start": 259.878,
      "duration": 1.2604,
      "velocity": 90,
      "chip": "ym2612"
    },
    {
      "channel": 1,
      "note": 78,
      "start": 259.8812,
      "duration": 1.0739,
      "velocity": 99,
      "chip": "ym2612"
    },
    {
      "channel": 4,
      "note": 70,
      "start": 259.8848,
      "duration": 0.1705,
      "velocity": 98,
      "chip": "ym2612"
    },
    {
      "channel": 4,
      "note": 66,
      "start": 260.0925,
      "duration": 0.1794,
      "velocity": 98,
      "chip": "ym2612"
    },
    {
      "channel": 5,
      "note": 31,
      "start": 260.1917,
      "duration": 0.1304,
      "velocity": 124,
      "chip": "ym2612"
    },
    {
      "channel": 4,
      "note": 62,
      "start": 260.3092,
      "duration": 0.1795,
      "velocity": 98,
      "chip": "ym2612"
    },
    {
      "channel": 4,
      "note": 71,
      "start": 260.5262,
      "duration": 1.0791,
      "velocity": 98,
      "chip": "ym2612"
    },
    {
      "channel": 3,
      "note": 39,
      "start": 260.5287,
      "duration": 1.2599,
      "velocity": 90,
      "chip": "ym2612"
    },
    {
      "channel": 5,
      "note": 37,
      "start": 260.8416,
      "duration": 0.1304,
      "velocity": 124,
      "chip": "ym2612"
    },
    {
      "channel": 1,
      "note": 72,
      "start": 261.0092,
      "duration": 0.0293,
      "velocity": 99,
      "chip": "ym2612"
    },
    {
      "channel": 1,
      "note": 73,
      "start": 261.0589,
      "duration": 0.0296,
      "velocity": 99,
      "chip": "ym2612"
    },
    {
      "channel": 1,
      "note": 74,
      "start": 261.1088,
      "duration": 0.0298,
      "velocity": 99,
      "chip": "ym2612"
    },
    {
      "channel": 5,
      "note": 31,
      "start": 261.175,
      "duration": 0.1303,
      "velocity": 124,
      "chip": "ym2612"
    },
    {
      "channel": 0,
      "note": 84,
      "start": 261.178,
      "duration": 0.6104,
      "velocity": 90,
      "chip": "ym2612"
    },
    {
      "channel": 1,
      "note": 75,
      "start": 261.1812,
      "duration": 0.2739,
      "velocity": 99,
      "chip": "ym2612"
    },
    {
      "channel": 1,
      "note": 76,
      "start": 261.4925,
      "duration": 0.296,
      "velocity": 99,
      "chip": "ym2612"
    },
    {
      "channel": 4,
      "note": 66,
      "start": 261.6594,
      "duration": 0.0125,
      "velocity": 98,
      "chip": "ym2612"
    },
    {
      "channel": 4,
      "note": 67,
      "start": 261.7091,
      "duration": 0.0294,
      "velocity": 98,
      "chip": "ym2612"
    },
    {
      "channel": 4,
      "note": 68,
      "start": 261.7591,
      "duration": 0.0296,
      "velocity": 98,
      "chip": "ym2612"
    },
    {
      "channel": 5,
      "note": 48,
      "start": 261.8247,
      "duration": 2.5307,
      "velocity": 109,
      "chip": "ym2612"
    },
    {
      "channel": 0,
      "note": 37,
      "start": 261.8275,
      "duration": 0.1278,
      "velocity": 124,
      "chip": "ym2612"
    },
    {
      "channel": 1,
      "note": 81,
      "start": 261.8321,
      "duration": 0.2065,
      "velocity": 90,
      "chip": "ym2612"
    },
    {
      "channel": 3,
      "note": 78,
      "start": 261.8384,
      "duration": 0.2503,
      "velocity": 99,
      "chip": "ym2612"
    },
    {
      "channel": 4,
      "note": 69,
      "start": 261.8415,
      "duration": 0.264,
      "velocity": 98,
      "chip": "ym2612"
    },
    {
      "channel": 2,
      "note": 45,
      "start": 261.8443,
      "duration": 1.1779,
      "velocity": 90,
      "chip": "ym2612"
    },
    {
      "channel": 0,
      "note": 31,
      "start": 262.1417,
      "duration": 0.1303,
      "velocity": 124,
      "chip": "ym2612"
    },
    {
      "channel": 3,
      "note": 79,
      "start": 262.145,
      "duration": 0.2604,
      "velocity": 99,
      "chip": "ym2612"
    },
    {
      "channel": 4,
      "note": 70,
      "start": 262.1477,
      "duration": 0.2911,
      "velocity": 98,
      "chip": "ym2612"
    },
    {
      "channel": 1,
      "note": 84,
      "start": 262.2419,
      "duration": 0.2134,
      "velocity": 90,
      "chip": "ym2612"
    },
    {
      "channel": 3,
      "note": 81,
      "start": 262.4607,
      "duration": 0.2781,
      "velocity": 99,
      "chip": "ym2612"
    },
    {
      "channel": 4,
      "note": 71,
      "start": 262.464,
      "duration": 0.275,
      "velocity": 98,
      "chip": "ym2612"
    },
    {
      "channel": 1,
      "note": 78,
      "start": 262.6758,
      "duration": 1.6962,
      "velocity": 90,
      "chip": "ym2612"
    },
    {
      "channel": 0,
      "note": 37,
      "start": 262.7917,
      "duration": 0.1303,
      "velocity": 124,
      "chip": "ym2612"
    },
    {
      "channel": 3,
      "note": 83,
      "start": 262.795,
      "duration": 0.2604,
      "velocity": 99,
      "chip": "ym2612"
    },
    {
      "channel": 4,
      "note": 72,
      "start": 262.7978,
      "duration": 0.2578,
      "velocity": 98,
      "chip": "ym2612"
    },
    {
      "channel": 0,
      "note": 31,
      "start": 263.1087,
      "duration": 0.1299,
      "velocity": 124,
      "chip": "ym2612"
    },
    {
      "channel": 3,
      "note": 86,
      "start": 263.1123,
      "duration": 0.4599,
      "velocity": 99,
      "chip": "ym2612"
    },
    {
      "channel": 4,
      "note": 74,
      "start": 263.1151,
      "duration": 0.2736,
      "velocity": 98,
      "chip": "ym2612"
    },
    {
      "channel": 2,
      "note": 42,
      "start": 263.1178,
      "duration": 1.2545,
      "velocity": 90,
      "chip": "ym2612"
    },
    {
      "channel": 4,
      "note": 75,
      "start": 263.4426,
      "duration": 0.2629,
      "velocity": 98,
      "chip": "ym2612"
    },
    {
      "channel": 3,
      "note": 84,
      "start": 263.5929,
      "duration": 0.0291,
      "velocity": 99,
      "chip": "ym2612"
    },
    {
      "channel": 3,
      "note": 83,
      "start": 263.6592,
      "duration": 0.0129,
      "velocity": 99,
      "chip": "ym2612"
    },
    {
      "channel": 3,
      "note": 82,
      "start": 263.7093,
      "duration": 0.0295,
      "velocity": 99,
      "chip": "ym2612"
    },
    {
      "channel": 0,
      "note": 37,
      "start": 263.7583,
      "duration": 0.1303,
      "velocity": 124,
      "chip": "ym2612"
    },
    {
      "channel": 3,
      "note": 81,
      "start": 263.7623,
      "duration": 0.2931,
      "velocity": 99,
      "chip": "ym2612"
    },
    {
      "channel": 4,
      "note": 79,
      "start": 263.7654,
      "duration": 0.4569,
      "velocity": 98,
      "chip": "ym2612"
    },
    {
      "channel": 0,
      "note": 31,
      "start": 264.0916,
      "duration": 0.1304,
      "velocity": 124,
      "chip": "ym2612"
    },
    {
      "channel": 3,
      "note": 84,
      "start": 264.0951,
      "duration": 0.4435,
      "velocity": 99,
      "chip": "ym2612"
    },
    {
      "channel": 4,
      "note": 78,
      "start": 264.2431,
      "duration": 0.029,
      "velocity": 98,
      "chip": "ym2612"
    },
    {
      "channel": 4,
      "note": 77,
      "start": 264.3093,
      "duration": 0.0127,
      "velocity": 98,
      "chip": "ym2612"
    },
    {
      "channel": 4,
      "note": 76,
      "start": 264.3593,
      "duration": 0.0129,
      "velocity": 98,
      "chip": "ym2612"
    },
    {
      "channel": 5,
      "note": 39,
      "start": 264.4081,
      "duration": 2.5305,
      "velocity": 109,
      "chip": "ym2612"
    },
    {
      "channel": 0,
      "note": 33,
      "start": 264.4144,
      "duration": 0.3325,
      "velocity": 92,
      "chip": "ym2612"
    },
    {
      "channel": 1,
      "note": 79,
      "start": 264.4184,
      "duration": 1.2868,
      "velocity": 90,
      "chip": "ym2612"
    },
    {
      "channel": 4,
      "note": 75,
      "start": 264.4247,
      "duration": 0.2806,
      "velocity": 98,
      "chip": "ym2612"
    },
    {
      "channel": 2,
      "note": 51,
      "start": 264.4274,
      "duration": 1.2447,
      "velocity": 90,
      "chip": "ym2612"
    },
    {
      "channel": 3,
      "note": 83,
      "start": 264.5761,
      "duration": 0.0125,
      "velocity": 99,
      "chip": "ym2612"
    },
    {
      "channel": 3,
      "note": 81,
      "start": 264.6257,
      "duration": 0.0296,
      "velocity": 99,
      "chip": "ym2612"
    },
    {
      "channel": 3,
      "note": 79,
      "start": 264.6756,
      "duration": 0.0296,
      "velocity": 99,
      "chip": "ym2612"
    },
    {
      "channel": 3,
      "note": 37,
      "start": 264.7419,
      "duration": 0.1301,
      "velocity": 124,
      "chip": "ym2612"
    },
    {
      "channel": 4,
      "note": 78,
      "start": 264.7455,
      "duration": 0.2764,
      "velocity": 99,
      "chip": "ym2612"
    },
    {
      "channel": 0,
      "note": 78,
      "start": 264.7491,
      "duration": 0.4394,
      "velocity": 98,
      "chip": "ym2612"
    },
    {
      "channel": 3,
      "note": 31,
      "start": 265.0583,
      "duration": 0.1304,
      "velocity": 124,
      "chip": "ym2612"
    },
    {
      "channel": 4,
      "note": 79,
      "start": 265.0619,
      "duration": 0.91,
      "velocity": 99,
      "chip": "ym2612"
    },
    {
      "channel": 0,
      "note": 75,
      "start": 265.2259,
      "duration": 0.0125,
      "velocity": 98,
      "chip": "ym2612"
    },
    {
      "channel": 0,
      "note": 74,
      "start": 265.2757,
      "duration": 0.0295,
      "velocity": 98,
      "chip": "ym2612"
    },
    {
      "channel": 0,
      "note": 72,
      "start": 265.3257,
      "duration": 0.0294,
      "velocity": 98,
      "chip": "ym2612"
    },
    {
      "channel": 0,
      "note": 71,
      "start": 265.3759,
      "duration": 0.2959,
      "velocity": 98,
      "chip": "ym2612"
    },
    {
      "channel": 3,
      "note": 37,
      "start": 265.7084,
      "duration": 0.1302,
      "velocity": 124,
      "chip": "ym2612"
    },
    {
      "channel": 1,
      "note": 81,
      "start": 265.7115,
      "duration": 0.9436,
      "velocity": 90,
      "chip": "ym2612"
    },
    {
      "channel": 0,
      "note": 72,
      "start": 265.7147,
      "duration": 0.9071,
      "velocity": 98,
      "chip": "ym2612"
    },
    {
      "channel": 2,
      "note": 47,
      "start": 265.718,
      "duration": 0.604,
      "velocity": 90,
      "chip": "ym2612"
    },
    {
      "channel": 4,
      "note": 83,
      "start": 265.9764,
      "duration": 0.2622,
      "velocity": 99,
      "chip": "ym2612"
    },
    {
      "channel": 3,
      "note": 31,
      "start": 266.0249,
      "duration": 0.1303,
      "velocity": 124,
      "chip": "ym2612"
    },
    {
      "channel": 4,
      "note": 81,
      "start": 266.3593,
      "duration": 0.9629,
      "velocity": 99,
      "chip": "ym2612"
    },
    {
      "channel": 2,
      "note": 42,
      "start": 266.3621,
      "duration": 0.61,
      "velocity": 90,
      "chip": "ym2612"
    },
    {
      "channel": 0,
      "note": 75,
      "start": 266.626,
      "duration": 0.2623,
      "velocity": 98,
      "chip": "ym2612"
    },
    {
      "channel": 3,
      "note": 37,
      "start": 266.6748,
      "duration": 0.1303,
      "velocity": 124,
      "chip": "ym2612"
    },
    {
      "channel": 1,
      "note": 83,
      "start": 266.6778,
      "duration": 0.1107,
      "velocity": 90,
      "chip": "ym2612"
    },
    {
      "channel": 1,
      "note": 81,
      "start": 266.7923,
      "duration": 0.0795,
      "velocity": 90,
      "chip": "ym2612"
    },
    {
      "channel": 1,
      "note": 79,
      "start": 266.8917,
      "duration": 0.0801,
      "velocity": 90,
      "chip": "ym2612"
    },
    {
      "channel": 5,
      "note": 47,
      "start": 267.0095,
      "duration": 2.5293,
      "velocity": 109,
      "chip": "ym2612"
    },
    {
      "channel": 3,
      "note": 31,
      "start": 267.0125,
      "duration": 0.1262,
      "velocity": 124,
      "chip": "ym2612"
    },
    {
      "channel": 1,
      "note": 78,
      "start": 267.0165,
      "duration": 1.2556,
      "velocity": 90,
      "chip": "ym2612"
    },
    {
      "channel": 0,
      "note": 74,
      "start": 267.0232,
      "duration": 0.949,
      "velocity": 98,
      "chip": "ym2612"
    },
    {
      "channel": 2,
      "note": 35,
      "start": 267.0261,
      "duration": 1.2462,
      "velocity": 90,
      "chip": "ym2612"
    },
    {
      "channel": 4,
      "note": 86,
      "start": 267.3263,
      "duration": 0.1792,
      "velocity": 99,
      "chip": "ym2612"
    },
    {
      "channel": 3,
      "note": 37,
      "start": 267.6585,
      "duration": 0.1304,
      "velocity": 124,
      "chip": "ym2612"
    },
    {
      "channel": 4,
      "note": 78,
      "start": 267.6635,
      "duration": 1.2753,
      "velocity": 99,
      "chip": "ym2612"
    },
    {
      "channel": 3,
      "note": 31,
      "start": 267.9754,
      "duration": 0.1302,
      "velocity": 124,
      "chip": "ym2612"
    },
    {
      "channel": 0,
      "note": 79,
      "start": 267.979,
      "duration": 0.1764,
      "velocity": 98,
      "chip": "ym2612"
    },
    {
      "channel": 1,
      "note": 74,
      "start": 268.2923,
      "duration": 0.9965,
      "velocity": 90,
      "chip": "ym2612"
    },
    {
      "channel": 0,
      "note": 71,
      "start": 268.2957,
      "duration": 1.293,
      "velocity": 98,
      "chip": "ym2612"
    },
    {
      "channel": 2,
      "note": 39,
      "start": 268.2983,
      "duration": 1.274,
      "velocity": 90,
      "chip": "ym2612"
    },
    {
      "channel": 3,
      "note": 37,
      "start": 268.6252,
      "duration": 0.1302,
      "velocity": 124,
      "chip": "ym2612"
    },
    {
      "channel": 3,
      "note": 31,
      "start": 268.9419,
      "duration": 0.1302,
      "velocity": 124,
      "chip": "ym2612"
    },
    {
      "channel": 4,
      "note": 83,
      "start": 268.9455,
      "duration": 0.6267,
      "velocity": 99,
      "chip": "ym2612"
    },
    {
      "channel": 1,
      "note": 72,
      "start": 269.3756,
      "duration": 0.0796,
      "velocity": 90,
      "chip": "ym2612"
    },
    {
      "channel": 1,
      "note": 69,
      "start": 269.4918,
      "duration": 0.0802,
      "velocity": 90,
      "chip": "ym2612"
    },
    {
      "channel": 5,
      "note": 45,
      "start": 269.5919,
      "duration": 2.53,
      "velocity": 109,
      "chip": "ym2612"
    },
    {
      "channel": 3,
      "note": 37,
      "start": 269.5945,
      "duration": 0.1276,
      "velocity": 124,
      "chip": "ym2612"
    },
    {
      "channel": 1,
      "note": 33,
      "start": 269.5987,
      "duration": 2.5564,
      "velocity": 92,
      "chip": "ym2612"
    },
    {
      "channel": 4,
      "note": 83,
      "start": 269.603,
      "duration": 0.1858,
      "velocity": 90,
      "chip": "ym2612"
    },
    {
      "channel": 2,
      "note": 76,
      "start": 269.6097,
      "duration": 0.1793,
      "velocity": 99,
      "chip": "ym2612"
    },
    {
      "channel": 0,
      "note": 36,
      "start": 269.6124,
      "duration": 1.2427,
      "velocity": 90,
      "chip": "ym2612"
    },
    {
      "channel": 4,
      "note": 75,
      "start": 269.8086,
      "duration": 0.1802,
      "velocity": 90,
      "chip": "ym2612"
    },
    {
      "channel": 2,
      "note": 72,
      "start": 269.8117,
      "duration": 0.1772,
      "velocity": 99,
      "chip": "ym2612"
    },
    {
      "channel": 3,
      "note": 31,
      "start": 269.9251,
      "duration": 0.1301,
      "velocity": 124,
      "chip": "ym2612"
    },
    {
      "channel": 4,
      "note": 78,
      "start": 270.0256,
      "duration": 0.1798,
      "velocity": 90,
      "chip": "ym2612"
    },
    {
      "channel": 2,
      "note": 69,
      "start": 270.0287,
      "duration": 0.1769,
      "velocity": 99,
      "chip": "ym2612"
    },
    {
      "channel": 4,
      "note": 86,
      "start": 270.2423,
      "duration": 1.2629,
      "velocity": 90,
      "chip": "ym2612"
    },
    {
      "channel": 2,
      "note": 78,
      "start": 270.2457,
      "duration": 1.0763,
      "velocity": 99,
      "chip": "ym2612"
    },
    {
      "channel": 3,
      "note": 37,
      "start": 270.5749,
      "duration": 0.1303,
      "velocity": 124,
      "chip": "ym2612"
    },
    {
      "channel": 3,
      "note": 31,
      "start": 270.892,
      "duration": 0.1298,
      "velocity": 124,
      "chip": "ym2612"
    },
    {
      "channel": 0,
      "note": 39,
      "start": 270.8952,
      "duration": 1.2598,
      "velocity": 90,
      "chip": "ym2612"
    },
    {
      "channel": 2,
      "note": 72,
      "start": 271.3761,
      "duration": 0.0292,
      "velocity": 99,
      "chip": "ym2612"
    },
    {
      "channel": 2,
      "note": 73,
      "start": 271.4258,
      "duration": 0.0296,
      "velocity": 99,
      "chip": "ym2612"
    },
    {
      "channel": 2,
      "note": 74,
      "start": 271.4924,
      "duration": 0.013,
      "velocity": 99,
      "chip": "ym2612"
    },
    {
      "channel": 3,
      "note": 37,
      "start": 271.5415,
      "duration": 0.1303,
      "velocity": 124,
      "chip": "ym2612"
    },
    {
      "channel": 4,
      "note": 84,
      "start": 271.5445,
      "duration": 0.6107,
      "velocity": 90,
      "chip": "ym2612"
    },
    {
      "channel": 2,
      "note": 75,
      "start": 271.548,
      "duration": 0.2908,
      "velocity": 99,
      "chip": "ym2612"
    },
    {
      "channel": 3,
      "note": 31,
      "start": 271.8581,
      "duration": 0.1305,
      "velocity": 124,
      "chip": "ym2612"
    },
    {
      "channel": 2,
      "note": 76,
      "start": 271.8615,
      "duration": 0.294,
      "velocity": 99,
      "chip": "ym2612"
    },
    {
      "channel": 5,
      "note": 47,
      "start": 272.1913,
      "duration": 2.5307,
      "velocity": 109,
      "chip": "ym2612"
    },
    {
      "channel": 4,
      "note": 84,
      "start": 272.1975,
      "duration": 0.1746,
      "velocity": 90,
      "chip": "ym2612"
    },
    {
      "channel": 2,
      "note": 77,
      "start": 272.204,
      "duration": 0.1683,
      "velocity": 99,
      "chip": "ym2612"
    },
    {
      "channel": 0,
      "note": 38,
      "start": 272.2069,
      "duration": 1.2485,
      "velocity": 90,
      "chip": "ym2612"
    },
    {
      "channel": 4,
      "note": 78,
      "start": 272.4086,
      "duration": 0.1801,
      "velocity": 90,
      "chip": "ym2612"
    },
    {
      "channel": 2,
      "note": 73,
      "start": 272.4118,
      "duration": 0.1771,
      "velocity": 99,
      "chip": "ym2612"
    },
    {
      "channel": 3,
      "note": 37,
      "start": 272.5085,
      "duration": 0.1303,
      "velocity": 124,
      "chip": "ym2612"
    },
    {
      "channel": 4,
      "note": 79,
      "start": 272.6253,
      "duration": 0.18,
      "velocity": 90,
      "chip": "ym2612"
    },
    {
      "channel": 2,
      "note": 69,
      "start": 272.6284,
      "duration": 0.1771,
      "velocity": 99,
      "chip": "ym2612"
    },
    {
      "channel": 3,
      "note": 31,
      "start": 272.8417,
      "duration": 0.1303,
      "velocity": 124,
      "chip": "ym2612"
    },
    {
      "channel": 4,
      "note": 87,
      "start": 272.8448,
      "duration": 1.2608,
      "velocity": 90,
      "chip": "ym2612"
    },
    {
      "channel": 2,
      "note": 79,
      "start": 272.8496,
      "duration": 1.0559,
      "velocity": 99,
      "chip": "ym2612"
    },
    {
      "channel": 3,
      "note": 37,
      "start": 273.4751,
      "duration": 0.1469,
      "velocity": 124,
      "chip": "ym2612"
    },
    {
      "channel": 0,
      "note": 42,
      "start": 273.4782,
      "duration": 1.277,
      "velocity": 90,
      "chip": "ym2612"
    },
    {
      "channel": 3,
      "note": 31,
      "start": 273.8084,
      "duration": 0.1303,
      "velocity": 124,
      "chip": "ym2612"
    },
    {
      "channel": 2,
      "note": 74,
      "start": 273.9764,
      "duration": 0.0126,
      "velocity": 99,
      "chip": "ym2612"
    },
    {
      "channel": 2,
      "note": 75,
      "start": 274.026,
      "duration": 0.0296,
      "velocity": 99,
      "chip": "ym2612"
    },
    {
      "channel": 2,
      "note": 77,
      "start": 274.0761,
      "duration": 0.0297,
      "velocity": 99,
      "chip": "ym2612"
    },
    {
      "channel": 4,
      "note": 86,
      "start": 274.126,
      "duration": 0.6295,
      "velocity": 90,
      "chip": "ym2612"
    },
    {
      "channel": 2,
      "note": 78,
      "start": 274.1294,
      "duration": 0.2928,
      "velocity": 99,
      "chip": "ym2612"
    },
    {
      "channel": 3,
      "note": 37,
      "start": 274.4585,
      "duration": 0.1303,
      "velocity": 124,
      "chip": "ym2612"
    },
    {
      "channel": 2,
      "note": 77,
      "start": 274.462,
      "duration": 0.2937,
      "velocity": 99,
      "chip": "ym2612"
    },
    {
      "channel": 5,
      "note": 51,
      "start": 274.7768,
      "duration": 2.5452,
      "velocity": 109,
      "chip": "ym2612"
    },
    {
      "channel": 3,
      "note": 31,
      "start": 274.7799,
      "duration": 0.1256,
      "velocity": 124,
      "chip": "ym2612"
    },
    {
      "channel": 1,
      "note": 33,
      "start": 274.7839,
      "duration": 2.5547,
      "velocity": 92,
      "chip": "ym2612"
    },
    {
      "channel": 4,
      "note": 89,
      "start": 274.7887,
      "duration": 0.1835,
      "velocity": 90,
      "chip": "ym2612"
    },
    {
      "channel": 2,
      "note": 81,
      "start": 274.7948,
      "duration": 0.1775,
      "velocity": 99,
      "chip": "ym2612"
    },
    {
      "channel": 0,
      "note": 37,
      "start": 274.7973,
      "duration": 1.2413,
      "velocity": 90,
      "chip": "ym2612"
    },
    {
      "channel": 4,
      "note": 83,
      "start": 274.992,
      "duration": 0.1968,
      "velocity": 90,
      "chip": "ym2612"
    },
    {
      "channel": 2,
      "note": 77,
      "start": 274.9951,
      "duration": 0.1938,
      "velocity": 99,
      "chip": "ym2612"
    },
    {
      "channel": 4,
      "note": 79,
      "start": 275.2085,
      "duration": 0.1968,
      "velocity": 90,
      "chip": "ym2612"
    },
    {
      "channel": 2,
      "note": 73,
      "start": 275.2116,
      "duration": 0.1939,
      "velocity": 99,
      "chip": "ym2612"
    },
    {
      "channel": 3,
      "note": 37,
      "start": 275.4251,
      "duration": 0.1303,
      "velocity": 124,
      "chip": "ym2612"
    },
    {
      "channel": 4,
      "note": 90,
      "start": 275.4281,
      "duration": 1.2605,
      "velocity": 90,
      "chip": "ym2612"
    },
    {
      "channel": 2,
      "note": 82,
      "start": 275.4315,
      "duration": 1.074,
      "velocity": 99,
      "chip": "ym2612"
    },
    {
      "channel": 3,
      "note": 31,
      "start": 275.7585,
      "duration": 0.1302,
      "velocity": 124,
      "chip": "ym2612"
    },
    {
      "channel": 0,
      "note": 36,
      "start": 276.0756,
      "duration": 1.2629,
      "velocity": 90,
      "chip": "ym2612"
    },
    {
      "channel": 3,
      "note": 37,
      "start": 276.3916,
      "duration": 0.147,
      "velocity": 124,
      "chip": "ym2612"
    },
    {
      "channel": 2,
      "note": 77,
      "start": 276.5595,
      "duration": 0.0293,
      "velocity": 99,
      "chip": "ym2612"
    },
    {
      "channel": 2,
      "note": 78,
      "start": 276.6092,
      "duration": 0.0296,
      "velocity": 99,
      "chip": "ym2612"
    },
    {
      "channel": 2,
      "note": 79,
      "start": 276.6758,
      "duration": 0.013,
      "velocity": 99,
      "chip": "ym2612"
    },
    {
      "channel": 3,
      "note": 31,
      "start": 276.7249,
      "duration": 0.1303,
      "velocity": 124,
      "chip": "ym2612"
    },
    {
      "channel": 4,
      "note": 89,
      "start": 276.728,
      "duration": 0.6107,
      "velocity": 90,
      "chip": "ym2612"
    },
    {
      "channel": 2,
      "note": 81,
      "start": 276.7314,
      "duration": 0.2906,
      "velocity": 99,
      "chip": "ym2612"
    },
    {
      "channel": 2,
      "note": 80,
      "start": 277.0429,
      "duration": 0.296,
      "velocity": 99,
      "chip": "ym2612"
    },
    {
      "channel": 5,
      "note": 45,
      "start": 277.3749,
      "duration": 2.5305,
      "velocity": 109,
      "chip": "ym2612"
    },
    {
      "channel": 3,
      "note": 37,
      "start": 277.3776,
      "duration": 0.1279,
      "velocity": 124,
      "chip": "ym2612"
    },
    {
      "channel": 4,
      "note": 86,
      "start": 277.3823,
      "duration": 2.3899,
      "velocity": 90,
      "chip": "ym2612"
    },
    {
      "channel": 2,
      "note": 77,
      "start": 277.389,
      "duration": 2.4832,
      "velocity": 99,
      "chip": "ym2612"
    },
    {
      "channel": 0,
      "note": 35,
      "start": 277.3925,
      "duration": 2.4794,
      "velocity": 90,
      "chip": "ym2612"
    },
    {
      "channel": 3,
      "note": 31,
      "start": 277.6919,
      "duration": 0.1302,
      "velocity": 124,
      "chip": "ym2612"
    },
    {
      "channel": 3,
      "note": 37,
      "start": 278.3419,
      "duration": 0.1303,
      "velocity": 124,
      "chip": "ym2612"
    },
    {
      "channel": 3,
      "note": 31,
      "start": 278.6756,
      "duration": 0.1297,
      "velocity": 124,
      "chip": "ym2612"
    },
    {
      "channel": 3,
      "note": 37,
      "start": 279.3085,
      "duration": 0.1469,
      "velocity": 124,
      "chip": "ym2612"
    },
    {
      "channel": 3,
      "note": 31,
      "start": 279.6417,
      "duration": 0.1304,
      "velocity": 124,
      "chip": "ym2612"
    },
    {
      "channel": 5,
      "note": 48,
      "start": 279.9581,
      "duration": 2.5472,
      "velocity": 109,
      "chip": "ym2612"
    },
    {
      "channel": 1,
      "note": 33,
      "start": 279.9642,
      "duration": 2.5576,
      "velocity": 92,
      "chip": "ym2612"
    },
    {
      "channel": 4,
      "note": 83,
      "start": 279.9683,
      "duration": 0.187,
      "velocity": 90,
      "chip": "ym2612"
    },
    {
      "channel": 2,
      "note": 76,
      "start": 279.9747,
      "duration": 0.1808,
      "velocity": 99,
      "chip": "ym2612"
    },
    {
      "channel": 0,
      "note": 36,
      "start": 279.9776,
      "duration": 1.2609,
      "velocity": 90,
      "chip": "ym2612"
    },
    {
      "channel": 4,
      "note": 75,
      "start": 280.1752,
      "duration": 0.1968,
      "velocity": 90,
      "chip": "ym2612"
    },
    {
      "channel": 2,
      "note": 72,
      "start": 280.1784,
      "duration": 0.1939,
      "velocity": 99,
      "chip": "ym2612"
    },
    {
      "channel": 3,
      "note": 37,
      "start": 280.2916,
      "duration": 0.1303,
      "velocity": 124,
      "chip": "ym2612"
    },
    {
      "channel": 4,
      "note": 78,
      "start": 280.3919,
      "duration": 0.1967,
      "velocity": 90,
      "chip": "ym2612"
    },
    {
      "channel": 2,
      "note": 69,
      "start": 280.395,
      "duration": 0.1938,
      "velocity": 99,
      "chip": "ym2612"
    },
    {
      "channel": 3,
      "note": 31,
      "start": 280.6083,
      "duration": 0.1303,
      "velocity": 124,
      "chip": "ym2612"
    },
    {
      "channel": 4,
      "note": 86,
      "start": 280.6113,
      "duration": 1.2606,
      "velocity": 90,
      "chip": "ym2612"
    },
    {
      "channel": 2,
      "note": 78,
      "start": 280.6147,
      "duration": 1.074,
      "velocity": 99,
      "chip": "ym2612"
    },
    {
      "channel": 3,
      "note": 37,
      "start": 281.2583,
      "duration": 0.1302,
      "velocity": 124,
      "chip": "ym2612"
    },
    {
      "channel": 0,
      "note": 39,
      "start": 281.2615,
      "duration": 1.2603,
      "velocity": 90,
      "chip": "ym2612"
    },
    {
      "channel": 3,
      "note": 31,
      "start": 281.5915,
      "duration": 0.1303,
      "velocity": 124,
      "chip": "ym2612"
    },
    {
      "channel": 2,
      "note": 72,
      "start": 281.7431,
      "duration": 0.0288,
      "velocity": 99,
      "chip": "ym2612"
    },
    {
      "channel": 2,
      "note": 73,
      "start": 281.809,
      "duration": 0.013,
      "velocity": 99,
      "chip": "ym2612"
    },
    {
      "channel": 2,
      "note": 74,
      "start": 281.859,
      "duration": 0.013,
      "velocity": 99,
      "chip": "ym2612"
    },
    {
      "channel": 4,
      "note": 84,
      "start": 281.9087,
      "duration": 0.6133,
      "velocity": 90,
      "chip": "ym2612"
    },
    {
      "channel": 2,
      "note": 75,
      "start": 281.9121,
      "duration": 0.2932,
      "velocity": 99,
      "chip": "ym2612"
    },
    {
      "channel": 3,
      "note": 37,
      "start": 282.2249,
      "duration": 0.1469,
      "velocity": 124,
      "chip": "ym2612"
    },
    {
      "channel": 2,
      "note": 76,
      "start": 282.2283,
      "duration": 0.2939,
      "velocity": 99,
      "chip": "ym2612"
    },
    {
      "channel": 5,
      "note": 47,
      "start": 282.5581,
      "duration": 2.5306,
      "velocity": 109,
      "chip": "ym2612"
    },
    {
      "channel": 3,
      "note": 31,
      "start": 282.5611,
      "duration": 0.1275,
      "velocity": 124,
      "chip": "ym2612"
    },
    {
      "channel": 4,
      "note": 84,
      "start": 282.5652,
      "duration": 0.1735,
      "velocity": 90,
      "chip": "ym2612"
    },
    {
      "channel": 2,
      "note": 77,
      "start": 282.5716,
      "duration": 0.1673,
      "velocity": 99,
      "chip": "ym2612"
    },
    {
      "channel": 0,
      "note": 38,
      "start": 282.5741,
      "duration": 1.248,
      "velocity": 90,
      "chip": "ym2612"
    },
    {
      "channel": 4,
      "note": 78,
      "start": 282.7757,
      "duration": 0.1797,
      "velocity": 90,
      "chip": "ym2612"
    },
    {
      "channel": 2,
      "note": 73,
      "start": 282.7788,
      "duration": 0.1768,
      "velocity": 99,
      "chip": "ym2612"
    },
    {
      "channel": 4,
      "note": 79,
      "start": 282.992,
      "duration": 0.1801,
      "velocity": 90,
      "chip": "ym2612"
    },
    {
      "channel": 2,
      "note": 69,
      "start": 282.9951,
      "duration": 0.1772,
      "velocity": 99,
      "chip": "ym2612"
    },
    {
      "channel": 3,
      "note": 37,
      "start": 283.2084,
      "duration": 0.1304,
      "velocity": 124,
      "chip": "ym2612"
    },
    {
      "channel": 4,
      "note": 87,
      "start": 283.2115,
      "duration": 1.2606,
      "velocity": 90,
      "chip": "ym2612"
    },
    {
      "channel": 2,
      "note": 79,
      "start": 283.2163,
      "duration": 1.0724,
      "velocity": 99,
      "chip": "ym2612"
    },
    {
      "channel": 3,
      "note": 31,
      "start": 283.5252,
      "duration": 0.1302,
      "velocity": 124,
      "chip": "ym2612"
    },
    {
      "channel": 0,
      "note": 42,
      "start": 283.8591,
      "duration": 1.2628,
      "velocity": 90,
      "chip": "ym2612"
    },
    {
      "channel": 3,
      "note": 37,
      "start": 284.1751,
      "duration": 0.1302,
      "velocity": 124,
      "chip": "ym2612"
    },
    {
      "channel": 2,
      "note": 74,
      "start": 284.3434,
      "duration": 0.0122,
      "velocity": 99,
      "chip": "ym2612"
    },
    {
      "channel": 2,
      "note": 75,
      "start": 284.3927,
      "duration": 0.0296,
      "velocity": 99,
      "chip": "ym2612"
    },
    {
      "channel": 2,
      "note": 77,
      "start": 284.4427,
      "duration": 0.0296,
      "velocity": 99,
      "chip": "ym2612"
    },
    {
      "channel": 3,
      "note": 31,
      "start": 284.5086,
      "duration": 0.1302,
      "velocity": 124,
      "chip": "ym2612"
    },
    {
      "channel": 4,
      "note": 86,
      "start": 284.5117,
      "duration": 0.6104,
      "velocity": 90,
      "chip": "ym2612"
    },
    {
      "channel": 2,
      "note": 78,
      "start": 284.5151,
      "duration": 0.2738,
      "velocity": 99,
      "chip": "ym2612"
    },
    {
      "channel": 2,
      "note": 77,
      "start": 284.8261,
      "duration": 0.2962,
      "velocity": 99,
      "chip": "ym2612"
    },
    {
      "channel": 5,
      "note": 51,
      "start": 285.1431,
      "duration": 2.5456,
      "velocity": 109,
      "chip": "ym2612"
    },
    {
      "channel": 3,
      "note": 37,
      "start": 285.1457,
      "duration": 0.143,
      "velocity": 124,
      "chip": "ym2612"
    },
    {
      "channel": 1,
      "note": 33,
      "start": 285.1497,
      "duration": 2.5557,
      "velocity": 92,
      "chip": "ym2612"
    },
    {
      "channel": 4,
      "note": 89,
      "start": 285.1544,
      "duration": 0.1844,
      "velocity": 90,
      "chip": "ym2612"
    },
    {
      "channel": 2,
      "note": 81,
      "start": 285.1602,
      "duration": 0.1788,
      "velocity": 99,
      "chip": "ym2612"
    },
    {
      "channel": 0,
      "note": 37,
      "start": 285.1627,
      "duration": 1.2592,
      "velocity": 90,
      "chip": "ym2612"
    },
    {
      "channel": 4,
      "note": 83,
      "start": 285.3586,
      "duration": 0.1968,
      "velocity": 90,
      "chip": "ym2612"
    },
    {
      "channel": 2,
      "note": 77,
      "start": 285.3617,
      "duration": 0.1939,
      "velocity": 99,
      "chip": "ym2612"
    },
    {
      "channel": 3,
      "note": 31,
      "start": 285.475,
      "duration": 0.1303,
      "velocity": 124,
      "chip": "ym2612"
    },
    {
      "channel": 4,
      "note": 79,
      "start": 285.5754,
      "duration": 0.1966,
      "velocity": 90,
      "chip": "ym2612"
    },
    {
      "channel": 2,
      "note": 73,
      "start": 285.5784,
      "duration": 0.1938,
      "velocity": 99,
      "chip": "ym2612"
    },
    {
      "channel": 4,
      "note": 90,
      "start": 285.7922,
      "duration": 1.263,
      "velocity": 90,
      "chip": "ym2612"
    },
    {
      "channel": 2,
      "note": 82,
      "start": 285.7957,
      "duration": 1.0764,
      "velocity": 99,
      "chip": "ym2612"
    },
    {
      "channel": 3,
      "note": 37,
      "start": 286.1251,
      "duration": 0.1303,
      "velocity": 124,
      "chip": "ym2612"
    },
    {
      "channel": 3,
      "note": 31,
      "start": 286.442,
      "duration": 0.1299,
      "velocity": 124,
      "chip": "ym2612"
    },
    {
      "channel": 0,
      "note": 35,
      "start": 286.4452,
      "duration": 1.26,
      "velocity": 90,
      "chip": "ym2612"
    },
    {
      "channel": 2,
      "note": 77,
      "start": 286.9265,
      "duration": 0.0289,
      "velocity": 99,
      "chip": "ym2612"
    },
    {
      "channel": 2,
      "note": 78,
      "start": 286.9925,
      "duration": 0.0129,
      "velocity": 99,
      "chip": "ym2612"
    },
    {
      "channel": 2,
      "note": 79,
      "start": 287.0425,
      "duration": 0.0129,
      "velocity": 99,
      "chip": "ym2612"
    },
    {
      "channel": 3,
      "note": 37,
      "start": 287.0917,
      "duration": 0.1303,
      "velocity": 124,
      "chip": "ym2612"
    },
    {
      "channel": 4,
      "note": 89,
      "start": 287.0951,
      "duration": 0.6104,
      "velocity": 90,
      "chip": "ym2612"
    },
    {
      "channel": 2,
      "note": 81,
      "start": 287.0985,
      "duration": 0.2902,
      "velocity": 99,
      "chip": "ym2612"
    },
    {
      "channel": 3,
      "note": 31,
      "start": 287.4248,
      "duration": 0.1305,
      "velocity": 124,
      "chip": "ym2612"
    },
    {
      "channel": 2,
      "note": 80,
      "start": 287.4282,
      "duration": 0.2775,
      "velocity": 99,
      "chip": "ym2612"
    },
    {
      "channel": 5,
      "note": 45,
      "start": 287.7416,
      "duration": 1.7697,
      "velocity": 109,
      "chip": "ym2612"
    },
    {
      "channel": 4,
      "note": 86,
      "start": 287.748,
      "duration": 1.7632,
      "velocity": 90,
      "chip": "ym2612"
    },
    {
      "channel": 2,
      "note": 77,
      "start": 287.7548,
      "duration": 1.7565,
      "velocity": 99,
      "chip": "ym2612"
    },
    {
      "channel": 0,
      "note": 36,
      "start": 287.7579,
      "duration": 1.7534,
      "velocity": 90,
      "chip": "ym2612"
    },
    {
      "channel": 3,
      "note": 37,
      "start": 288.0585,
      "duration": 0.1469,
      "velocity": 124,
      "chip": "ym2612"
    },
    {
      "channel": 3,
      "note": 31,
      "start": 288.3919,
      "duration": 0.1302,
      "velocity": 124,
      "chip": "ym2612"
    },
    {
      "channel": 3,
      "note": 37,
      "start": 289.042,
      "duration": 0.1301,
      "velocity": 124,
      "chip": "ym2612"
    },
    {
      "channel": 3,
      "note": 31,
      "start": 289.3585,
      "duration": 0.1303,
      "velocity": 124,
      "chip": "ym2612"
    }
  ]
}