{
  "track_name": "12 - Heart Rest",
  "duration_sec": 55.595,
  "sample_rate": 44100,
  "note_count": 1133,
  "unique_pitches": 36,
  "pitch_range": 49,
  "avg_note_duration": 0.234,
  "reconstruction_stats": {
    "notes_reconstructed": 1133,
    "keyon_events": 1133,
    "keyoff_events": 1131,
    "orphan_keyons": 2,
    "unique_pitches": 36,
    "pitch_range": 49,
    "avg_duration_sec": 0.234
  },
  "metadata": {
    "source": "M\\Mirage 2\\12 - Heart Rest.vgz"
  },
  "notes": [
    {
      "channel": 0,
      "note": 86,
      "start": 0.003,
      "duration": 0.2099,
      "velocity": 92,
      "chip": "ym2612"
    },
    {
      "channel": 2,
      "note": 58,
      "start": 0.0045,
      "duration": 0.2352,
      "velocity": 99,
      "chip": "ym2612"
    },
    {
      "channel": 3,
      "note": 75,
      "start": 0.0071,
      "duration": 0.2059,
      "velocity": 112,
      "chip": "ym2612"
    },
    {
      "channel": 4,
      "note": 86,
      "start": 0.0086,
      "duration": 0.2044,
      "velocity": 107,
      "chip": "ym2612"
    },
    {
      "channel": 5,
      "note": 82,
      "start": 0.0103,
      "duration": 0.2029,
      "velocity": 107,
      "chip": "ym2612"
    },
    {
      "channel": 0,
      "note": 84,
      "start": 0.2137,
      "duration": 0.2098,
      "velocity": 92,
      "chip": "ym2612"
    },
    {
      "channel": 3,
      "note": 75,
      "start": 0.2142,
      "duration": 0.1017,
      "velocity": 112,
      "chip": "ym2612"
    },
    {
      "channel": 4,
      "note": 86,
      "start": 0.2146,
      "duration": 0.0205,
      "velocity": 107,
      "chip": "ym2612"
    },
    {
      "channel": 5,
      "note": 82,
      "start": 0.2151,
      "duration": 0.0202,
      "velocity": 107,
      "chip": "ym2612"
    },
    {
      "channel": 1,
      "note": 86,
      "start": 0.3219,
      "duration": 0.2095,
      "velocity": 92,
      "chip": "ym2612"
    },
    {
      "channel": 2,
      "note": 57,
      "start": 0.3223,
      "duration": 0.2359,
      "velocity": 99,
      "chip": "ym2612"
    },
    {
      "channel": 3,
      "note": 75,
      "start": 0.3229,
      "duration": 0.1007,
      "velocity": 112,
      "chip": "ym2612"
    },
    {
      "channel": 4,
      "note": 86,
      "start": 0.3233,
      "duration": 0.0194,
      "velocity": 107,
      "chip": "ym2612"
    },
    {
      "channel": 5,
      "note": 82,
      "start": 0.3238,
      "duration": 0.0191,
      "velocity": 107,
      "chip": "ym2612"
    },
    {
      "channel": 3,
      "note": 75,
      "start": 0.4293,
      "duration": 0.2096,
      "velocity": 112,
      "chip": "ym2612"
    },
    {
      "channel": 4,
      "note": 86,
      "start": 0.4299,
      "duration": 0.0212,
      "velocity": 107,
      "chip": "ym2612"
    },
    {
      "channel": 5,
      "note": 82,
      "start": 0.4306,
      "duration": 0.0206,
      "velocity": 107,
      "chip": "ym2612"
    },
    {
      "channel": 1,
      "note": 84,
      "start": 0.5362,
      "duration": 0.2104,
      "velocity": 92,
      "chip": "ym2612"
    },
    {
      "channel": 4,
      "note": 86,
      "start": 0.5367,
      "duration": 0.0217,
      "velocity": 107,
      "chip": "ym2612"
    },
    {
      "channel": 5,
      "note": 82,
      "start": 0.5371,
      "duration": 0.0213,
      "velocity": 107,
      "chip": "ym2612"
    },
    {
      "channel": 0,
      "note": 82,
      "start": 0.6439,
      "duration": 0.2103,
      "velocity": 92,
      "chip": "ym2612"
    },
    {
      "channel": 2,
      "note": 58,
      "start": 0.6443,
      "duration": 0.1559,
      "velocity": 99,
      "chip": "ym2612"
    },
    {
      "channel": 3,
      "note": 75,
      "start": 0.6449,
      "duration": 0.1018,
      "velocity": 112,
      "chip": "ym2612"
    },
    {
      "channel": 4,
      "note": 86,
      "start": 0.6453,
      "duration": 0.0205,
      "velocity": 107,
      "chip": "ym2612"
    },
    {
      "channel": 5,
      "note": 82,
      "start": 0.6458,
      "duration": 0.0202,
      "velocity": 107,
      "chip": "ym2612"
    },
    {
      "channel": 3,
      "note": 75,
      "start": 0.7514,
      "duration": 0.1029,
      "velocity": 112,
      "chip": "ym2612"
    },
    {
      "channel": 4,
      "note": 86,
      "start": 0.7519,
      "duration": 0.0215,
      "velocity": 107,
      "chip": "ym2612"
    },
    {
      "channel": 5,
      "note": 82,
      "start": 0.7523,
      "duration": 0.0212,
      "velocity": 107,
      "chip": "ym2612"
    },
    {
      "channel": 3,
      "note": 75,
      "start": 0.8599,
      "duration": 0.2094,
      "velocity": 112,
      "chip": "ym2612"
    },
    {
      "channel": 4,
      "note": 86,
      "start": 0.8606,
      "duration": 0.0205,
      "velocity": 107,
      "chip": "ym2612"
    },
    {
      "channel": 5,
      "note": 82,
      "start": 0.861,
      "duration": 0.0201,
      "velocity": 107,
      "chip": "ym2612"
    },
    {
      "channel": 1,
      "note": 82,
      "start": 0.9665,
      "duration": 0.2107,
      "velocity": 92,
      "chip": "ym2612"
    },
    {
      "channel": 4,
      "note": 86,
      "start": 0.9669,
      "duration": 0.0217,
      "velocity": 107,
      "chip": "ym2612"
    },
    {
      "channel": 5,
      "note": 82,
      "start": 0.9674,
      "duration": 0.0213,
      "velocity": 107,
      "chip": "ym2612"
    },
    {
      "channel": 0,
      "note": 77,
      "start": 1.0742,
      "duration": 0.2102,
      "velocity": 92,
      "chip": "ym2612"
    },
    {
      "channel": 2,
      "note": 53,
      "start": 1.0746,
      "duration": 0.1561,
      "velocity": 99,
      "chip": "ym2612"
    },
    {
      "channel": 3,
      "note": 75,
      "start": 1.0751,
      "duration": 0.1022,
      "velocity": 112,
      "chip": "ym2612"
    },
    {
      "channel": 4,
      "note": 86,
      "start": 1.0757,
      "duration": 0.2089,
      "velocity": 107,
      "chip": "ym2612"
    },
    {
      "channel": 5,
      "note": 82,
      "start": 1.0762,
      "duration": 0.2085,
      "velocity": 107,
      "chip": "ym2612"
    },
    {
      "channel": 3,
      "note": 75,
      "start": 1.1817,
      "duration": 0.1028,
      "velocity": 112,
      "chip": "ym2612"
    },
    {
      "channel": 3,
      "note": 75,
      "start": 1.2902,
      "duration": 0.2093,
      "velocity": 112,
      "chip": "ym2612"
    },
    {
      "channel": 4,
      "note": 86,
      "start": 1.2909,
      "duration": 0.0203,
      "velocity": 107,
      "chip": "ym2612"
    },
    {
      "channel": 5,
      "note": 82,
      "start": 1.2913,
      "duration": 0.02,
      "velocity": 107,
      "chip": "ym2612"
    },
    {
      "channel": 1,
      "note": 77,
      "start": 1.3968,
      "duration": 0.2102,
      "velocity": 92,
      "chip": "ym2612"
    },
    {
      "channel": 4,
      "note": 86,
      "start": 1.3972,
      "duration": 0.0216,
      "velocity": 107,
      "chip": "ym2612"
    },
    {
      "channel": 5,
      "note": 82,
      "start": 1.3977,
      "duration": 0.0212,
      "velocity": 107,
      "chip": "ym2612"
    },
    {
      "channel": 0,
      "note": 82,
      "start": 1.5043,
      "duration": 0.8557,
      "velocity": 92,
      "chip": "ym2612"
    },
    {
      "channel": 2,
      "note": 53,
      "start": 1.5048,
      "duration": 0.156,
      "velocity": 99,
      "chip": "ym2612"
    },
    {
      "channel": 3,
      "note": 75,
      "start": 1.5053,
      "duration": 0.1018,
      "velocity": 112,
      "chip": "ym2612"
    },
    {
      "channel": 4,
      "note": 86,
      "start": 1.5058,
      "duration": 0.209,
      "velocity": 107,
      "chip": "ym2612"
    },
    {
      "channel": 5,
      "note": 82,
      "start": 1.5062,
      "duration": 0.2087,
      "velocity": 107,
      "chip": "ym2612"
    },
    {
      "channel": 3,
      "note": 75,
      "start": 1.612,
      "duration": 0.1026,
      "velocity": 112,
      "chip": "ym2612"
    },
    {
      "channel": 2,
      "note": 58,
      "start": 1.7195,
      "duration": 0.2371,
      "velocity": 99,
      "chip": "ym2612"
    },
    {
      "channel": 3,
      "note": 75,
      "start": 1.7214,
      "duration": 0.2084,
      "velocity": 112,
      "chip": "ym2612"
    },
    {
      "channel": 4,
      "note": 86,
      "start": 1.7219,
      "duration": 0.2081,
      "velocity": 107,
      "chip": "ym2612"
    },
    {
      "channel": 5,
      "note": 82,
      "start": 1.7223,
      "duration": 0.2077,
      "velocity": 107,
      "chip": "ym2612"
    },
    {
      "channel": 1,
      "note": 82,
      "start": 1.827,
      "duration": 0.8603,
      "velocity": 92,
      "chip": "ym2612"
    },
    {
      "channel": 3,
      "note": 75,
      "start": 1.9346,
      "duration": 0.1027,
      "velocity": 112,
      "chip": "ym2612"
    },
    {
      "channel": 4,
      "note": 86,
      "start": 1.9351,
      "duration": 0.0217,
      "velocity": 107,
      "chip": "ym2612"
    },
    {
      "channel": 5,
      "note": 82,
      "start": 1.9356,
      "duration": 0.0213,
      "velocity": 107,
      "chip": "ym2612"
    },
    {
      "channel": 2,
      "note": 57,
      "start": 2.0421,
      "duration": 0.2373,
      "velocity": 99,
      "chip": "ym2612"
    },
    {
      "channel": 3,
      "note": 75,
      "start": 2.0427,
      "duration": 0.1022,
      "velocity": 112,
      "chip": "ym2612"
    },
    {
      "channel": 4,
      "note": 86,
      "start": 2.0432,
      "duration": 0.021,
      "velocity": 107,
      "chip": "ym2612"
    },
    {
      "channel": 5,
      "note": 82,
      "start": 2.0437,
      "duration": 0.0206,
      "velocity": 107,
      "chip": "ym2612"
    },
    {
      "channel": 3,
      "note": 75,
      "start": 2.1509,
      "duration": 0.2092,
      "velocity": 112,
      "chip": "ym2612"
    },
    {
      "channel": 4,
      "note": 86,
      "start": 2.1513,
      "duration": 0.0205,
      "velocity": 107,
      "chip": "ym2612"
    },
    {
      "channel": 5,
      "note": 82,
      "start": 2.1518,
      "duration": 0.0202,
      "velocity": 107,
      "chip": "ym2612"
    },
    {
      "channel": 4,
      "note": 86,
      "start": 2.2573,
      "duration": 0.0222,
      "velocity": 107,
      "chip": "ym2612"
    },
    {
      "channel": 5,
      "note": 82,
      "start": 2.2577,
      "duration": 0.0218,
      "velocity": 107,
      "chip": "ym2612"
    },
    {
      "channel": 0,
      "note": 77,
      "start": 2.3649,
      "duration": 0.6495,
      "velocity": 92,
      "chip": "ym2612"
    },
    {
      "channel": 2,
      "note": 58,
      "start": 2.3653,
      "duration": 0.1605,
      "velocity": 99,
      "chip": "ym2612"
    },
    {
      "channel": 3,
      "note": 75,
      "start": 2.3659,
      "duration": 0.1017,
      "velocity": 112,
      "chip": "ym2612"
    },
    {
      "channel": 4,
      "note": 86,
      "start": 2.3664,
      "duration": 0.0205,
      "velocity": 107,
      "chip": "ym2612"
    },
    {
      "channel": 5,
      "note": 82,
      "start": 2.3668,
      "duration": 0.0202,
      "velocity": 107,
      "chip": "ym2612"
    },
    {
      "channel": 3,
      "note": 75,
      "start": 2.4725,
      "duration": 0.1073,
      "velocity": 112,
      "chip": "ym2612"
    },
    {
      "channel": 4,
      "note": 86,
      "start": 2.4729,
      "duration": 0.0216,
      "velocity": 107,
      "chip": "ym2612"
    },
    {
      "channel": 5,
      "note": 82,
      "start": 2.4734,
      "duration": 0.0213,
      "velocity": 107,
      "chip": "ym2612"
    },
    {
      "channel": 3,
      "note": 75,
      "start": 2.5854,
      "duration": 0.2147,
      "velocity": 112,
      "chip": "ym2612"
    },
    {
      "channel": 4,
      "note": 86,
      "start": 2.5858,
      "duration": 0.0207,
      "velocity": 107,
      "chip": "ym2612"
    },
    {
      "channel": 5,
      "note": 82,
      "start": 2.5863,
      "duration": 0.0204,
      "velocity": 107,
      "chip": "ym2612"
    },
    {
      "channel": 1,
      "note": 77,
      "start": 2.6921,
      "duration": 0.6451,
      "velocity": 92,
      "chip": "ym2612"
    },
    {
      "channel": 4,
      "note": 86,
      "start": 2.6925,
      "duration": 0.0217,
      "velocity": 107,
      "chip": "ym2612"
    },
    {
      "channel": 5,
      "note": 82,
      "start": 2.693,
      "duration": 0.0213,
      "velocity": 107,
      "chip": "ym2612"
    },
    {
      "channel": 2,
      "note": 53,
      "start": 2.8041,
      "duration": 0.1577,
      "velocity": 99,
      "chip": "ym2612"
    },
    {
      "channel": 3,
      "note": 75,
      "start": 2.8046,
      "duration": 0.1022,
      "velocity": 112,
      "chip": "ym2612"
    },
    {
      "channel": 4,
      "note": 86,
      "start": 2.8051,
      "duration": 0.2095,
      "velocity": 107,
      "chip": "ym2612"
    },
    {
      "channel": 5,
      "note": 82,
      "start": 2.8055,
      "duration": 0.2092,
      "velocity": 107,
      "chip": "ym2612"
    },
    {
      "channel": 3,
      "note": 75,
      "start": 2.9117,
      "duration": 0.1027,
      "velocity": 112,
      "chip": "ym2612"
    },
    {
      "channel": 0,
      "note": 82,
      "start": 3.0192,
      "duration": 0.4254,
      "velocity": 92,
      "chip": "ym2612"
    },
    {
      "channel": 3,
      "note": 75,
      "start": 3.021,
      "duration": 0.2087,
      "velocity": 112,
      "chip": "ym2612"
    },
    {
      "channel": 4,
      "note": 86,
      "start": 3.0214,
      "duration": 0.0199,
      "velocity": 107,
      "chip": "ym2612"
    },
    {
      "channel": 5,
      "note": 82,
      "start": 3.0219,
      "duration": 0.0195,
      "velocity": 107,
      "chip": "ym2612"
    },
    {
      "channel": 4,
      "note": 86,
      "start": 3.1269,
      "duration": 0.022,
      "velocity": 107,
      "chip": "ym2612"
    },
    {
      "channel": 5,
      "note": 82,
      "start": 3.1273,
      "duration": 0.0216,
      "velocity": 107,
      "chip": "ym2612"
    },
    {
      "channel": 2,
      "note": 53,
      "start": 3.2344,
      "duration": 0.1565,
      "velocity": 99,
      "chip": "ym2612"
    },
    {
      "channel": 3,
      "note": 75,
      "start": 3.2349,
      "duration": 0.1024,
      "velocity": 112,
      "chip": "ym2612"
    },
    {
      "channel": 4,
      "note": 86,
      "start": 3.2353,
      "duration": 0.2095,
      "velocity": 107,
      "chip": "ym2612"
    },
    {
      "channel": 5,
      "note": 82,
      "start": 3.2358,
      "duration": 0.2092,
      "velocity": 107,
      "chip": "ym2612"
    },
    {
      "channel": 1,
      "note": 82,
      "start": 3.342,
      "duration": 0.4254,
      "velocity": 92,
      "chip": "ym2612"
    },
    {
      "channel": 3,
      "note": 75,
      "start": 3.3425,
      "duration": 0.1023,
      "velocity": 112,
      "chip": "ym2612"
    },
    {
      "channel": 0,
      "note": 80,
      "start": 3.4496,
      "duration": 1.7207,
      "velocity": 92,
      "chip": "ym2612"
    },
    {
      "channel": 2,
      "note": 56,
      "start": 3.45,
      "duration": 0.2367,
      "velocity": 99,
      "chip": "ym2612"
    },
    {
      "channel": 3,
      "note": 75,
      "start": 3.4516,
      "duration": 0.2082,
      "velocity": 112,
      "chip": "ym2612"
    },
    {
      "channel": 4,
      "note": 84,
      "start": 3.4521,
      "duration": 0.2078,
      "velocity": 107,
      "chip": "ym2612"
    },
    {
      "channel": 5,
      "note": 80,
      "start": 3.4525,
      "duration": 0.2075,
      "velocity": 107,
      "chip": "ym2612"
    },
    {
      "channel": 3,
      "note": 75,
      "start": 3.6647,
      "duration": 0.1028,
      "velocity": 112,
      "chip": "ym2612"
    },
    {
      "channel": 4,
      "note": 84,
      "start": 3.6651,
      "duration": 0.0217,
      "velocity": 107,
      "chip": "ym2612"
    },
    {
      "channel": 5,
      "note": 80,
      "start": 3.6656,
      "duration": 0.0213,
      "velocity": 107,
      "chip": "ym2612"
    },
    {
      "channel": 1,
      "note": 80,
      "start": 3.7722,
      "duration": 1.7207,
      "velocity": 92,
      "chip": "ym2612"
    },
    {
      "channel": 2,
      "note": 55,
      "start": 3.7727,
      "duration": 0.2367,
      "velocity": 99,
      "chip": "ym2612"
    },
    {
      "channel": 3,
      "note": 75,
      "start": 3.7732,
      "duration": 0.1019,
      "velocity": 112,
      "chip": "ym2612"
    },
    {
      "channel": 4,
      "note": 84,
      "start": 3.7737,
      "duration": 0.0206,
      "velocity": 107,
      "chip": "ym2612"
    },
    {
      "channel": 5,
      "note": 80,
      "start": 3.7741,
      "duration": 0.0202,
      "velocity": 107,
      "chip": "ym2612"
    },
    {
      "channel": 3,
      "note": 75,
      "start": 3.8809,
      "duration": 0.2093,
      "velocity": 112,
      "chip": "ym2612"
    },
    {
      "channel": 4,
      "note": 84,
      "start": 3.8814,
      "duration": 0.0205,
      "velocity": 107,
      "chip": "ym2612"
    },
    {
      "channel": 5,
      "note": 80,
      "start": 3.8818,
      "duration": 0.0201,
      "velocity": 107,
      "chip": "ym2612"
    },
    {
      "channel": 4,
      "note": 84,
      "start": 3.9874,
      "duration": 0.0221,
      "velocity": 107,
      "chip": "ym2612"
    },
    {
      "channel": 5,
      "note": 80,
      "start": 3.9879,
      "duration": 0.0217,
      "velocity": 107,
      "chip": "ym2612"
    },
    {
      "channel": 2,
      "note": 56,
      "start": 4.095,
      "duration": 0.1564,
      "velocity": 99,
      "chip": "ym2612"
    },
    {
      "channel": 3,
      "note": 75,
      "start": 4.0955,
      "duration": 0.1021,
      "velocity": 112,
      "chip": "ym2612"
    },
    {
      "channel": 4,
      "note": 84,
      "start": 4.096,
      "duration": 0.0211,
      "velocity": 107,
      "chip": "ym2612"
    },
    {
      "channel": 5,
      "note": 80,
      "start": 4.0964,
      "duration": 0.0207,
      "velocity": 107,
      "chip": "ym2612"
    },
    {
      "channel": 3,
      "note": 75,
      "start": 4.2025,
      "duration": 0.1027,
      "velocity": 112,
      "chip": "ym2612"
    },
    {
      "channel": 4,
      "note": 84,
      "start": 4.203,
      "duration": 0.0215,
      "velocity": 107,
      "chip": "ym2612"
    },
    {
      "channel": 5,
      "note": 80,
      "start": 4.2034,
      "duration": 0.0212,
      "velocity": 107,
      "chip": "ym2612"
    },
    {
      "channel": 3,
      "note": 75,
      "start": 4.3113,
      "duration": 0.2093,
      "velocity": 112,
      "chip": "ym2612"
    },
    {
      "channel": 4,
      "note": 84,
      "start": 4.3117,
      "duration": 0.0204,
      "velocity": 107,
      "chip": "ym2612"
    },
    {
      "channel": 5,
      "note": 80,
      "start": 4.3122,
      "duration": 0.02,
      "velocity": 107,
      "chip": "ym2612"
    },
    {
      "channel": 4,
      "note": 84,
      "start": 4.4176,
      "duration": 0.0221,
      "velocity": 107,
      "chip": "ym2612"
    },
    {
      "channel": 5,
      "note": 80,
      "start": 4.418,
      "duration": 0.0217,
      "velocity": 107,
      "chip": "ym2612"
    },
    {
      "channel": 2,
      "note": 48,
      "start": 4.5252,
      "duration": 0.1566,
      "velocity": 99,
      "chip": "ym2612"
    },
    {
      "channel": 3,
      "note": 75,
      "start": 4.5257,
      "duration": 0.1023,
      "velocity": 112,
      "chip": "ym2612"
    },
    {
      "channel": 4,
      "note": 84,
      "start": 4.5261,
      "duration": 0.2094,
      "velocity": 107,
      "chip": "ym2612"
    },
    {
      "channel": 5,
      "note": 80,
      "start": 4.5266,
      "duration": 0.2092,
      "velocity": 107,
      "chip": "ym2612"
    },
    {
      "channel": 3,
      "note": 75,
      "start": 4.6329,
      "duration": 0.1026,
      "velocity": 112,
      "chip": "ym2612"
    },
    {
      "channel": 3,
      "note": 75,
      "start": 4.7416,
      "duration": 0.2092,
      "velocity": 112,
      "chip": "ym2612"
    },
    {
      "channel": 4,
      "note": 84,
      "start": 4.742,
      "duration": 0.0203,
      "velocity": 107,
      "chip": "ym2612"
    },
    {
      "channel": 5,
      "note": 80,
      "start": 4.7425,
      "duration": 0.02,
      "velocity": 107,
      "chip": "ym2612"
    },
    {
      "channel": 4,
      "note": 84,
      "start": 4.848,
      "duration": 0.022,
      "velocity": 107,
      "chip": "ym2612"
    },
    {
      "channel": 5,
      "note": 80,
      "start": 4.8484,
      "duration": 0.0216,
      "velocity": 107,
      "chip": "ym2612"
    },
    {
      "channel": 2,
      "note": 48,
      "start": 4.9555,
      "duration": 0.1611,
      "velocity": 99,
      "chip": "ym2612"
    },
    {
      "channel": 3,
      "note": 75,
      "start": 4.956,
      "duration": 0.1067,
      "velocity": 112,
      "chip": "ym2612"
    },
    {
      "channel": 4,
      "note": 84,
      "start": 4.9566,
      "duration": 0.2141,
      "velocity": 107,
      "chip": "ym2612"
    },
    {
      "channel": 5,
      "note": 80,
      "start": 4.957,
      "duration": 0.2139,
      "velocity": 107,
      "chip": "ym2612"
    },
    {
      "channel": 3,
      "note": 75,
      "start": 5.0677,
      "duration": 0.1029,
      "velocity": 112,
      "chip": "ym2612"
    },
    {
      "channel": 0,
      "note": 79,
      "start": 5.1751,
      "duration": 1.501,
      "velocity": 92,
      "chip": "ym2612"
    },
    {
      "channel": 2,
      "note": 55,
      "start": 5.1756,
      "duration": 0.2367,
      "velocity": 99,
      "chip": "ym2612"
    },
    {
      "channel": 3,
      "note": 75,
      "start": 5.1769,
      "duration": 0.2085,
      "velocity": 112,
      "chip": "ym2612"
    },
    {
      "channel": 4,
      "note": 84,
      "start": 5.1774,
      "duration": 0.2082,
      "velocity": 107,
      "chip": "ym2612"
    },
    {
      "channel": 5,
      "note": 79,
      "start": 5.178,
      "duration": 0.2077,
      "velocity": 107,
      "chip": "ym2612"
    },
    {
      "channel": 3,
      "note": 75,
      "start": 5.3912,
      "duration": 0.1018,
      "velocity": 112,
      "chip": "ym2612"
    },
    {
      "channel": 4,
      "note": 84,
      "start": 5.3917,
      "duration": 0.0207,
      "velocity": 107,
      "chip": "ym2612"
    },
    {
      "channel": 5,
      "note": 79,
      "start": 5.3921,
      "duration": 0.0203,
      "velocity": 107,
      "chip": "ym2612"
    },
    {
      "channel": 1,
      "note": 79,
      "start": 5.4978,
      "duration": 1.3938,
      "velocity": 92,
      "chip": "ym2612"
    },
    {
      "channel": 2,
      "note": 53,
      "start": 5.4983,
      "duration": 0.2367,
      "velocity": 99,
      "chip": "ym2612"
    },
    {
      "channel": 3,
      "note": 75,
      "start": 5.4988,
      "duration": 0.102,
      "velocity": 112,
      "chip": "ym2612"
    },
    {
      "channel": 4,
      "note": 84,
      "start": 5.4992,
      "duration": 0.0206,
      "velocity": 107,
      "chip": "ym2612"
    },
    {
      "channel": 5,
      "note": 79,
      "start": 5.4997,
      "duration": 0.0202,
      "velocity": 107,
      "chip": "ym2612"
    },
    {
      "channel": 3,
      "note": 75,
      "start": 5.6062,
      "duration": 0.2095,
      "velocity": 112,
      "chip": "ym2612"
    },
    {
      "channel": 4,
      "note": 84,
      "start": 5.6067,
      "duration": 0.0207,
      "velocity": 107,
      "chip": "ym2612"
    },
    {
      "channel": 5,
      "note": 79,
      "start": 5.6071,
      "duration": 0.0203,
      "velocity": 107,
      "chip": "ym2612"
    },
    {
      "channel": 4,
      "note": 84,
      "start": 5.7135,
      "duration": 0.0216,
      "velocity": 107,
      "chip": "ym2612"
    },
    {
      "channel": 5,
      "note": 79,
      "start": 5.7139,
      "duration": 0.0212,
      "velocity": 107,
      "chip": "ym2612"
    },
    {
      "channel": 2,
      "note": 55,
      "start": 5.8208,
      "duration": 0.1562,
      "velocity": 99,
      "chip": "ym2612"
    },
    {
      "channel": 3,
      "note": 75,
      "start": 5.8213,
      "duration": 0.102,
      "velocity": 112,
      "chip": "ym2612"
    },
    {
      "channel": 4,
      "note": 84,
      "start": 5.8218,
      "duration": 0.0208,
      "velocity": 107,
      "chip": "ym2612"
    },
    {
      "channel": 5,
      "note": 79,
      "start": 5.8222,
      "duration": 0.0205,
      "velocity": 107,
      "chip": "ym2612"
    },
    {
      "channel": 3,
      "note": 75,
      "start": 5.9281,
      "duration": 0.1027,
      "velocity": 112,
      "chip": "ym2612"
    },
    {
      "channel": 4,
      "note": 84,
      "start": 5.9285,
      "duration": 0.0215,
      "velocity": 107,
      "chip": "ym2612"
    },
    {
      "channel": 5,
      "note": 79,
      "start": 5.929,
      "duration": 0.0212,
      "velocity": 107,
      "chip": "ym2612"
    },
    {
      "channel": 3,
      "note": 75,
      "start": 6.037,
      "duration": 0.2089,
      "velocity": 112,
      "chip": "ym2612"
    },
    {
      "channel": 4,
      "note": 84,
      "start": 6.0375,
      "duration": 0.0203,
      "velocity": 107,
      "chip": "ym2612"
    },
    {
      "channel": 5,
      "note": 79,
      "start": 6.0379,
      "duration": 0.0199,
      "velocity": 107,
      "chip": "ym2612"
    },
    {
      "channel": 4,
      "note": 84,
      "start": 6.1432,
      "duration": 0.0221,
      "velocity": 107,
      "chip": "ym2612"
    },
    {
      "channel": 5,
      "note": 79,
      "start": 6.1437,
      "duration": 0.0217,
      "velocity": 107,
      "chip": "ym2612"
    },
    {
      "channel": 2,
      "note": 50,
      "start": 6.251,
      "duration": 0.1564,
      "velocity": 99,
      "chip": "ym2612"
    },
    {
      "channel": 3,
      "note": 75,
      "start": 6.2515,
      "duration": 0.102,
      "velocity": 112,
      "chip": "ym2612"
    },
    {
      "channel": 4,
      "note": 84,
      "start": 6.252,
      "duration": 0.2092,
      "velocity": 107,
      "chip": "ym2612"
    },
    {
      "channel": 5,
      "note": 79,
      "start": 6.2524,
      "duration": 0.2089,
      "velocity": 107,
      "chip": "ym2612"
    },
    {
      "channel": 3,
      "note": 75,
      "start": 6.3587,
      "duration": 0.1024,
      "velocity": 112,
      "chip": "ym2612"
    },
    {
      "channel": 3,
      "note": 75,
      "start": 6.4668,
      "duration": 0.2095,
      "velocity": 112,
      "chip": "ym2612"
    },
    {
      "channel": 4,
      "note": 84,
      "start": 6.4672,
      "duration": 0.0207,
      "velocity": 107,
      "chip": "ym2612"
    },
    {
      "channel": 5,
      "note": 79,
      "start": 6.4677,
      "duration": 0.0203,
      "velocity": 107,
      "chip": "ym2612"
    },
    {
      "channel": 4,
      "note": 84,
      "start": 6.5734,
      "duration": 0.0221,
      "velocity": 107,
      "chip": "ym2612"
    },
    {
      "channel": 5,
      "note": 79,
      "start": 6.5739,
      "duration": 0.0217,
      "velocity": 107,
      "chip": "ym2612"
    },
    {
      "channel": 0,
      "note": 82,
      "start": 6.6812,
      "duration": 0.0667,
      "velocity": 92,
      "chip": "ym2612"
    },
    {
      "channel": 2,
      "note": 50,
      "start": 6.6816,
      "duration": 0.156,
      "velocity": 99,
      "chip": "ym2612"
    },
    {
      "channel": 3,
      "note": 75,
      "start": 6.6821,
      "duration": 0.1016,
      "velocity": 112,
      "chip": "ym2612"
    },
    {
      "channel": 4,
      "note": 84,
      "start": 6.6826,
      "duration": 0.2092,
      "velocity": 107,
      "chip": "ym2612"
    },
    {
      "channel": 5,
      "note": 79,
      "start": 6.683,
      "duration": 0.2089,
      "velocity": 107,
      "chip": "ym2612"
    },
    {
      "channel": 0,
      "note": 84,
      "start": 6.7528,
      "duration": 0.0668,
      "velocity": 92,
      "chip": "ym2612"
    },
    {
      "channel": 3,
      "note": 75,
      "start": 6.7886,
      "duration": 0.1031,
      "velocity": 112,
      "chip": "ym2612"
    },
    {
      "channel": 0,
      "note": 86,
      "start": 6.8246,
      "duration": 0.067,
      "velocity": 92,
      "chip": "ym2612"
    },
    {
      "channel": 0,
      "note": 87,
      "start": 6.8963,
      "duration": 0.2102,
      "velocity": 92,
      "chip": "ym2612"
    },
    {
      "channel": 2,
      "note": 60,
      "start": 6.8967,
      "duration": 0.2368,
      "velocity": 99,
      "chip": "ym2612"
    },
    {
      "channel": 3,
      "note": 75,
      "start": 6.8981,
      "duration": 0.2085,
      "velocity": 112,
      "chip": "ym2612"
    },
    {
      "channel": 4,
      "note": 87,
      "start": 6.8985,
      "duration": 0.2081,
      "velocity": 107,
      "chip": "ym2612"
    },
    {
      "channel": 5,
      "note": 84,
      "start": 6.899,
      "duration": 0.2078,
      "velocity": 107,
      "chip": "ym2612"
    },
    {
      "channel": 0,
      "note": 86,
      "start": 7.1114,
      "duration": 0.2102,
      "velocity": 92,
      "chip": "ym2612"
    },
    {
      "channel": 3,
      "note": 75,
      "start": 7.1119,
      "duration": 0.1022,
      "velocity": 112,
      "chip": "ym2612"
    },
    {
      "channel": 4,
      "note": 87,
      "start": 7.1124,
      "duration": 0.0213,
      "velocity": 107,
      "chip": "ym2612"
    },
    {
      "channel": 5,
      "note": 84,
      "start": 7.1128,
      "duration": 0.0209,
      "velocity": 107,
      "chip": "ym2612"
    },
    {
      "channel": 1,
      "note": 87,
      "start": 7.2189,
      "duration": 0.2103,
      "velocity": 92,
      "chip": "ym2612"
    },
    {
      "channel": 2,
      "note": 58,
      "start": 7.2194,
      "duration": 0.2368,
      "velocity": 99,
      "chip": "ym2612"
    },
    {
      "channel": 3,
      "note": 75,
      "start": 7.2199,
      "duration": 0.1018,
      "velocity": 112,
      "chip": "ym2612"
    },
    {
      "channel": 4,
      "note": 87,
      "start": 7.2206,
      "duration": 0.0204,
      "velocity": 107,
      "chip": "ym2612"
    },
    {
      "channel": 5,
      "note": 84,
      "start": 7.2211,
      "duration": 0.02,
      "velocity": 107,
      "chip": "ym2612"
    },
    {
      "channel": 3,
      "note": 75,
      "start": 7.3273,
      "duration": 0.214,
      "velocity": 112,
      "chip": "ym2612"
    },
    {
      "channel": 4,
      "note": 87,
      "start": 7.3278,
      "duration": 0.0207,
      "velocity": 107,
      "chip": "ym2612"
    },
    {
      "channel": 5,
      "note": 84,
      "start": 7.3282,
      "duration": 0.0204,
      "velocity": 107,
      "chip": "ym2612"
    },
    {
      "channel": 1,
      "note": 86,
      "start": 7.434,
      "duration": 0.2149,
      "velocity": 92,
      "chip": "ym2612"
    },
    {
      "channel": 4,
      "note": 87,
      "start": 7.4345,
      "duration": 0.0218,
      "velocity": 107,
      "chip": "ym2612"
    },
    {
      "channel": 5,
      "note": 84,
      "start": 7.4349,
      "duration": 0.0215,
      "velocity": 107,
      "chip": "ym2612"
    },
    {
      "channel": 0,
      "note": 84,
      "start": 7.5461,
      "duration": 0.2104,
      "velocity": 92,
      "chip": "ym2612"
    },
    {
      "channel": 2,
      "note": 60,
      "start": 7.5465,
      "duration": 0.1561,
      "velocity": 99,
      "chip": "ym2612"
    },
    {
      "channel": 3,
      "note": 75,
      "start": 7.5471,
      "duration": 0.1018,
      "velocity": 112,
      "chip": "ym2612"
    },
    {
      "channel": 4,
      "note": 87,
      "start": 7.5476,
      "duration": 0.0206,
      "velocity": 107,
      "chip": "ym2612"
    },
    {
      "channel": 5,
      "note": 84,
      "start": 7.5481,
      "duration": 0.0202,
      "velocity": 107,
      "chip": "ym2612"
    },
    {
      "channel": 3,
      "note": 75,
      "start": 7.6537,
      "duration": 0.1029,
      "velocity": 112,
      "chip": "ym2612"
    },
    {
      "channel": 4,
      "note": 87,
      "start": 7.6541,
      "duration": 0.0215,
      "velocity": 107,
      "chip": "ym2612"
    },
    {
      "channel": 5,
      "note": 84,
      "start": 7.6546,
      "duration": 0.0212,
      "velocity": 107,
      "chip": "ym2612"
    },
    {
      "channel": 3,
      "note": 75,
      "start": 7.7621,
      "duration": 0.2094,
      "velocity": 112,
      "chip": "ym2612"
    },
    {
      "channel": 4,
      "note": 87,
      "start": 7.7625,
      "duration": 0.0208,
      "velocity": 107,
      "chip": "ym2612"
    },
    {
      "channel": 5,
      "note": 84,
      "start": 7.763,
      "duration": 0.0205,
      "velocity": 107,
      "chip": "ym2612"
    },
    {
      "channel": 1,
      "note": 84,
      "start": 7.8688,
      "duration": 0.2104,
      "velocity": 92,
      "chip": "ym2612"
    },
    {
      "channel": 4,
      "note": 87,
      "start": 7.8693,
      "duration": 0.0215,
      "velocity": 107,
      "chip": "ym2612"
    },
    {
      "channel": 5,
      "note": 84,
      "start": 7.8698,
      "duration": 0.0211,
      "velocity": 107,
      "chip": "ym2612"
    },
    {
      "channel": 0,
      "note": 82,
      "start": 7.9763,
      "duration": 0.2103,
      "velocity": 92,
      "chip": "ym2612"
    },
    {
      "channel": 2,
      "note": 55,
      "start": 7.9768,
      "duration": 0.1561,
      "velocity": 99,
      "chip": "ym2612"
    },
    {
      "channel": 3,
      "note": 75,
      "start": 7.9773,
      "duration": 0.102,
      "velocity": 112,
      "chip": "ym2612"
    },
    {
      "channel": 4,
      "note": 87,
      "start": 7.9778,
      "duration": 0.2092,
      "velocity": 107,
      "chip": "ym2612"
    },
    {
      "channel": 5,
      "note": 84,
      "start": 7.9782,
      "duration": 0.2088,
      "velocity": 107,
      "chip": "ym2612"
    },
    {
      "channel": 3,
      "note": 75,
      "start": 8.0839,
      "duration": 0.1028,
      "velocity": 112,
      "chip": "ym2612"
    },
    {
      "channel": 3,
      "note": 75,
      "start": 8.1925,
      "duration": 0.2092,
      "velocity": 112,
      "chip": "ym2612"
    },
    {
      "channel": 4,
      "note": 87,
      "start": 8.193,
      "duration": 0.0206,
      "velocity": 107,
      "chip": "ym2612"
    },
    {
      "channel": 5,
      "note": 84,
      "start": 8.1934,
      "duration": 0.0202,
      "velocity": 107,
      "chip": "ym2612"
    },
    {
      "channel": 1,
      "note": 82,
      "start": 8.299,
      "duration": 0.2103,
      "velocity": 92,
      "chip": "ym2612"
    },
    {
      "channel": 4,
      "note": 87,
      "start": 8.2995,
      "duration": 0.0216,
      "velocity": 107,
      "chip": "ym2612"
    },
    {
      "channel": 5,
      "note": 84,
      "start": 8.3,
      "duration": 0.0212,
      "velocity": 107,
      "chip": "ym2612"
    },
    {
      "channel": 0,
      "note": 84,
      "start": 8.4066,
      "duration": 0.8557,
      "velocity": 92,
      "chip": "ym2612"
    },
    {
      "channel": 2,
      "note": 55,
      "start": 8.4071,
      "duration": 0.1561,
      "velocity": 99,
      "chip": "ym2612"
    },
    {
      "channel": 3,
      "note": 75,
      "start": 8.4076,
      "duration": 0.1018,
      "velocity": 112,
      "chip": "ym2612"
    },
    {
      "channel": 4,
      "note": 87,
      "start": 8.408,
      "duration": 0.2091,
      "velocity": 107,
      "chip": "ym2612"
    },
    {
      "channel": 5,
      "note": 84,
      "start": 8.4085,
      "duration": 0.2087,
      "velocity": 107,
      "chip": "ym2612"
    },
    {
      "channel": 3,
      "note": 75,
      "start": 8.5142,
      "duration": 0.1027,
      "velocity": 112,
      "chip": "ym2612"
    },
    {
      "channel": 2,
      "note": 60,
      "start": 8.6217,
      "duration": 0.2372,
      "velocity": 99,
      "chip": "ym2612"
    },
    {
      "channel": 3,
      "note": 75,
      "start": 8.6231,
      "duration": 0.209,
      "velocity": 112,
      "chip": "ym2612"
    },
    {
      "channel": 4,
      "note": 87,
      "start": 8.6235,
      "duration": 0.2087,
      "velocity": 107,
      "chip": "ym2612"
    },
    {
      "channel": 5,
      "note": 84,
      "start": 8.624,
      "duration": 0.2083,
      "velocity": 107,
      "chip": "ym2612"
    },
    {
      "channel": 1,
      "note": 84,
      "start": 8.7293,
      "duration": 0.8558,
      "velocity": 92,
      "chip": "ym2612"
    },
    {
      "channel": 3,
      "note": 75,
      "start": 8.8371,
      "duration": 0.1026,
      "velocity": 112,
      "chip": "ym2612"
    },
    {
      "channel": 4,
      "note": 87,
      "start": 8.8376,
      "duration": 0.0214,
      "velocity": 107,
      "chip": "ym2612"
    },
    {
      "channel": 5,
      "note": 84,
      "start": 8.838,
      "duration": 0.0211,
      "velocity": 107,
      "chip": "ym2612"
    },
    {
      "channel": 2,
      "note": 58,
      "start": 8.9445,
      "duration": 0.2371,
      "velocity": 99,
      "chip": "ym2612"
    },
    {
      "channel": 3,
      "note": 75,
      "start": 8.945,
      "duration": 0.1021,
      "velocity": 112,
      "chip": "ym2612"
    },
    {
      "channel": 4,
      "note": 87,
      "start": 8.9455,
      "duration": 0.021,
      "velocity": 107,
      "chip": "ym2612"
    },
    {
      "channel": 5,
      "note": 84,
      "start": 8.9459,
      "duration": 0.0206,
      "velocity": 107,
      "chip": "ym2612"
    },
    {
      "channel": 3,
      "note": 75,
      "start": 9.0529,
      "duration": 0.2095,
      "velocity": 112,
      "chip": "ym2612"
    },
    {
      "channel": 4,
      "note": 87,
      "start": 9.0533,
      "duration": 0.0207,
      "velocity": 107,
      "chip": "ym2612"
    },
    {
      "channel": 5,
      "note": 84,
      "start": 9.0538,
      "duration": 0.0204,
      "velocity": 107,
      "chip": "ym2612"
    },
    {
      "channel": 4,
      "note": 87,
      "start": 9.1597,
      "duration": 0.022,
      "velocity": 107,
      "chip": "ym2612"
    },
    {
      "channel": 5,
      "note": 84,
      "start": 9.1601,
      "duration": 0.0217,
      "velocity": 107,
      "chip": "ym2612"
    },
    {
      "channel": 0,
      "note": 82,
      "start": 9.2672,
      "duration": 0.6405,
      "velocity": 92,
      "chip": "ym2612"
    },
    {
      "channel": 2,
      "note": 60,
      "start": 9.2676,
      "duration": 0.156,
      "velocity": 99,
      "chip": "ym2612"
    },
    {
      "channel": 3,
      "note": 75,
      "start": 9.2681,
      "duration": 0.1017,
      "velocity": 112,
      "chip": "ym2612"
    },
    {
      "channel": 4,
      "note": 87,
      "start": 9.2686,
      "duration": 0.0206,
      "velocity": 107,
      "chip": "ym2612"
    },
    {
      "channel": 5,
      "note": 84,
      "start": 9.269,
      "duration": 0.0202,
      "velocity": 107,
      "chip": "ym2612"
    },
    {
      "channel": 3,
      "note": 75,
      "start": 9.3749,
      "duration": 0.1026,
      "velocity": 112,
      "chip": "ym2612"
    },
    {
      "channel": 4,
      "note": 87,
      "start": 9.3753,
      "duration": 0.0215,
      "velocity": 107,
      "chip": "ym2612"
    },
    {
      "channel": 5,
      "note": 84,
      "start": 9.3758,
      "duration": 0.0211,
      "velocity": 107,
      "chip": "ym2612"
    },
    {
      "channel": 3,
      "note": 75,
      "start": 9.4833,
      "duration": 0.2093,
      "velocity": 112,
      "chip": "ym2612"
    },
    {
      "channel": 4,
      "note": 87,
      "start": 9.4837,
      "duration": 0.0206,
      "velocity": 107,
      "chip": "ym2612"
    },
    {
      "channel": 5,
      "note": 84,
      "start": 9.4842,
      "duration": 0.0202,
      "velocity": 107,
      "chip": "ym2612"
    },
    {
      "channel": 1,
      "note": 82,
      "start": 9.59,
      "duration": 0.6407,
      "velocity": 92,
      "chip": "ym2612"
    },
    {
      "channel": 4,
      "note": 87,
      "start": 9.5907,
      "duration": 0.0213,
      "velocity": 107,
      "chip": "ym2612"
    },
    {
      "channel": 5,
      "note": 84,
      "start": 9.5911,
      "duration": 0.021,
      "velocity": 107,
      "chip": "ym2612"
    },
    {
      "channel": 2,
      "note": 55,
      "start": 9.6974,
      "duration": 0.1566,
      "velocity": 99,
      "chip": "ym2612"
    },
    {
      "channel": 3,
      "note": 75,
      "start": 9.6979,
      "duration": 0.1023,
      "velocity": 112,
      "chip": "ym2612"
    },
    {
      "channel": 4,
      "note": 87,
      "start": 9.6984,
      "duration": 0.2095,
      "velocity": 107,
      "chip": "ym2612"
    },
    {
      "channel": 5,
      "note": 84,
      "start": 9.6988,
      "duration": 0.2092,
      "velocity": 107,
      "chip": "ym2612"
    },
    {
      "channel": 3,
      "note": 75,
      "start": 9.8051,
      "duration": 0.1027,
      "velocity": 112,
      "chip": "ym2612"
    },
    {
      "channel": 0,
      "note": 84,
      "start": 9.9127,
      "duration": 0.4253,
      "velocity": 92,
      "chip": "ym2612"
    },
    {
      "channel": 3,
      "note": 75,
      "start": 9.914,
      "duration": 0.2089,
      "velocity": 112,
      "chip": "ym2612"
    },
    {
      "channel": 4,
      "note": 87,
      "start": 9.9144,
      "duration": 0.0202,
      "velocity": 107,
      "chip": "ym2612"
    },
    {
      "channel": 5,
      "note": 84,
      "start": 9.9149,
      "duration": 0.0198,
      "velocity": 107,
      "chip": "ym2612"
    },
    {
      "channel": 4,
      "note": 87,
      "start": 10.0201,
      "duration": 0.0222,
      "velocity": 107,
      "chip": "ym2612"
    },
    {
      "channel": 5,
      "note": 84,
      "start": 10.0208,
      "duration": 0.0215,
      "velocity": 107,
      "chip": "ym2612"
    },
    {
      "channel": 2,
      "note": 55,
      "start": 10.1285,
      "duration": 0.1557,
      "velocity": 99,
      "chip": "ym2612"
    },
    {
      "channel": 3,
      "note": 75,
      "start": 10.129,
      "duration": 0.1017,
      "velocity": 112,
      "chip": "ym2612"
    },
    {
      "channel": 4,
      "note": 87,
      "start": 10.1295,
      "duration": 0.2087,
      "velocity": 107,
      "chip": "ym2612"
    },
    {
      "channel": 5,
      "note": 84,
      "start": 10.1299,
      "duration": 0.2083,
      "velocity": 107,
      "chip": "ym2612"
    },
    {
      "channel": 1,
      "note": 84,
      "start": 10.2353,
      "duration": 0.4254,
      "velocity": 92,
      "chip": "ym2612"
    },
    {
      "channel": 3,
      "note": 75,
      "start": 10.2358,
      "duration": 0.1023,
      "velocity": 112,
      "chip": "ym2612"
    },
    {
      "channel": 0,
      "note": 81,
      "start": 10.3429,
      "duration": 1.7162,
      "velocity": 92,
      "chip": "ym2612"
    },
    {
      "channel": 2,
      "note": 53,
      "start": 10.3433,
      "duration": 0.2367,
      "velocity": 99,
      "chip": "ym2612"
    },
    {
      "channel": 3,
      "note": 75,
      "start": 10.3447,
      "duration": 0.2085,
      "velocity": 112,
      "chip": "ym2612"
    },
    {
      "channel": 4,
      "note": 84,
      "start": 10.3451,
      "duration": 0.2082,
      "velocity": 107,
      "chip": "ym2612"
    },
    {
      "channel": 5,
      "note": 81,
      "start": 10.3456,
      "duration": 0.2078,
      "velocity": 107,
      "chip": "ym2612"
    },
    {
      "channel": 3,
      "note": 75,
      "start": 10.5581,
      "duration": 0.1027,
      "velocity": 112,
      "chip": "ym2612"
    },
    {
      "channel": 4,
      "note": 84,
      "start": 10.5586,
      "duration": 0.0215,
      "velocity": 107,
      "chip": "ym2612"
    },
    {
      "channel": 5,
      "note": 81,
      "start": 10.559,
      "duration": 0.0212,
      "velocity": 107,
      "chip": "ym2612"
    },
    {
      "channel": 1,
      "note": 81,
      "start": 10.6655,
      "duration": 1.7163,
      "velocity": 92,
      "chip": "ym2612"
    },
    {
      "channel": 2,
      "note": 51,
      "start": 10.666,
      "duration": 0.2368,
      "velocity": 99,
      "chip": "ym2612"
    },
    {
      "channel": 3,
      "note": 75,
      "start": 10.6665,
      "duration": 0.1018,
      "velocity": 112,
      "chip": "ym2612"
    },
    {
      "channel": 4,
      "note": 84,
      "start": 10.667,
      "duration": 0.0207,
      "velocity": 107,
      "chip": "ym2612"
    },
    {
      "channel": 5,
      "note": 81,
      "start": 10.6674,
      "duration": 0.0203,
      "velocity": 107,
      "chip": "ym2612"
    },
    {
      "channel": 3,
      "note": 75,
      "start": 10.7746,
      "duration": 0.2088,
      "velocity": 112,
      "chip": "ym2612"
    },
    {
      "channel": 4,
      "note": 84,
      "start": 10.7751,
      "duration": 0.02,
      "velocity": 107,
      "chip": "ym2612"
    },
    {
      "channel": 5,
      "note": 81,
      "start": 10.7756,
      "duration": 0.0197,
      "velocity": 107,
      "chip": "ym2612"
    },
    {
      "channel": 4,
      "note": 84,
      "start": 10.8809,
      "duration": 0.022,
      "velocity": 107,
      "chip": "ym2612"
    },
    {
      "channel": 5,
      "note": 81,
      "start": 10.8814,
      "duration": 0.0217,
      "velocity": 107,
      "chip": "ym2612"
    },
    {
      "channel": 2,
      "note": 53,
      "start": 10.9883,
      "duration": 0.1565,
      "velocity": 99,
      "chip": "ym2612"
    },
    {
      "channel": 3,
      "note": 75,
      "start": 10.9888,
      "duration": 0.1022,
      "velocity": 112,
      "chip": "ym2612"
    },
    {
      "channel": 4,
      "note": 84,
      "start": 10.9893,
      "duration": 0.021,
      "velocity": 107,
      "chip": "ym2612"
    },
    {
      "channel": 5,
      "note": 81,
      "start": 10.9898,
      "duration": 0.0209,
      "velocity": 107,
      "chip": "ym2612"
    },
    {
      "channel": 3,
      "note": 75,
      "start": 11.0962,
      "duration": 0.1023,
      "velocity": 112,
      "chip": "ym2612"
    },
    {
      "channel": 4,
      "note": 84,
      "start": 11.0967,
      "duration": 0.0212,
      "velocity": 107,
      "chip": "ym2612"
    },
    {
      "channel": 5,
      "note": 81,
      "start": 11.0972,
      "duration": 0.0209,
      "velocity": 107,
      "chip": "ym2612"
    },
    {
      "channel": 3,
      "note": 75,
      "start": 11.2042,
      "duration": 0.2095,
      "velocity": 112,
      "chip": "ym2612"
    },
    {
      "channel": 4,
      "note": 84,
      "start": 11.2047,
      "duration": 0.0207,
      "velocity": 107,
      "chip": "ym2612"
    },
    {
      "channel": 5,
      "note": 81,
      "start": 11.2052,
      "duration": 0.0203,
      "velocity": 107,
      "chip": "ym2612"
    },
    {
      "channel": 4,
      "note": 84,
      "start": 11.3111,
      "duration": 0.0219,
      "velocity": 107,
      "chip": "ym2612"
    },
    {
      "channel": 5,
      "note": 81,
      "start": 11.3116,
      "duration": 0.0216,
      "velocity": 107,
      "chip": "ym2612"
    },
    {
      "channel": 2,
      "note": 48,
      "start": 11.4188,
      "duration": 0.1563,
      "velocity": 99,
      "chip": "ym2612"
    },
    {
      "channel": 3,
      "note": 75,
      "start": 11.4193,
      "duration": 0.102,
      "velocity": 112,
      "chip": "ym2612"
    },
    {
      "channel": 4,
      "note": 84,
      "start": 11.4197,
      "duration": 0.2092,
      "velocity": 107,
      "chip": "ym2612"
    },
    {
      "channel": 5,
      "note": 81,
      "start": 11.4202,
      "duration": 0.209,
      "velocity": 107,
      "chip": "ym2612"
    },
    {
      "channel": 3,
      "note": 75,
      "start": 11.5262,
      "duration": 0.1026,
      "velocity": 112,
      "chip": "ym2612"
    },
    {
      "channel": 3,
      "note": 75,
      "start": 11.6346,
      "duration": 0.2093,
      "velocity": 112,
      "chip": "ym2612"
    },
    {
      "channel": 4,
      "note": 84,
      "start": 11.6351,
      "duration": 0.0206,
      "velocity": 107,
      "chip": "ym2612"
    },
    {
      "channel": 5,
      "note": 81,
      "start": 11.6355,
      "duration": 0.0203,
      "velocity": 107,
      "chip": "ym2612"
    },
    {
      "channel": 4,
      "note": 84,
      "start": 11.7412,
      "duration": 0.0221,
      "velocity": 107,
      "chip": "ym2612"
    },
    {
      "channel": 5,
      "note": 81,
      "start": 11.7417,
      "duration": 0.0217,
      "velocity": 107,
      "chip": "ym2612"
    },
    {
      "channel": 2,
      "note": 48,
      "start": 11.8489,
      "duration": 0.1565,
      "velocity": 99,
      "chip": "ym2612"
    },
    {
      "channel": 3,
      "note": 75,
      "start": 11.8494,
      "duration": 0.1023,
      "velocity": 112,
      "chip": "ym2612"
    },
    {
      "channel": 4,
      "note": 84,
      "start": 11.8498,
      "duration": 0.2094,
      "velocity": 107,
      "chip": "ym2612"
    },
    {
      "channel": 5,
      "note": 81,
      "start": 11.8503,
      "duration": 0.2092,
      "velocity": 107,
      "chip": "ym2612"
    },
    {
      "channel": 3,
      "note": 75,
      "start": 11.9564,
      "duration": 0.1028,
      "velocity": 112,
      "chip": "ym2612"
    },
    {
      "channel": 0,
      "note": 84,
      "start": 12.0639,
      "duration": 1.7207,
      "velocity": 92,
      "chip": "ym2612"
    },
    {
      "channel": 2,
      "note": 53,
      "start": 12.0644,
      "duration": 0.2368,
      "velocity": 99,
      "chip": "ym2612"
    },
    {
      "channel": 3,
      "note": 75,
      "start": 12.0657,
      "duration": 0.2086,
      "velocity": 112,
      "chip": "ym2612"
    },
    {
      "channel": 4,
      "note": 84,
      "start": 12.0662,
      "duration": 0.2082,
      "velocity": 107,
      "chip": "ym2612"
    },
    {
      "channel": 5,
      "note": 81,
      "start": 12.0666,
      "duration": 0.2079,
      "velocity": 107,
      "chip": "ym2612"
    },
    {
      "channel": 3,
      "note": 75,
      "start": 12.2792,
      "duration": 0.1028,
      "velocity": 112,
      "chip": "ym2612"
    },
    {
      "channel": 4,
      "note": 84,
      "start": 12.2796,
      "duration": 0.0217,
      "velocity": 107,
      "chip": "ym2612"
    },
    {
      "channel": 5,
      "note": 81,
      "start": 12.2801,
      "duration": 0.0213,
      "velocity": 107,
      "chip": "ym2612"
    },
    {
      "channel": 1,
      "note": 84,
      "start": 12.3866,
      "duration": 1.3981,
      "velocity": 92,
      "chip": "ym2612"
    },
    {
      "channel": 2,
      "note": 51,
      "start": 12.3871,
      "duration": 0.2412,
      "velocity": 99,
      "chip": "ym2612"
    },
    {
      "channel": 3,
      "note": 75,
      "start": 12.3876,
      "duration": 0.1018,
      "velocity": 112,
      "chip": "ym2612"
    },
    {
      "channel": 4,
      "note": 84,
      "start": 12.3881,
      "duration": 0.0206,
      "velocity": 107,
      "chip": "ym2612"
    },
    {
      "channel": 5,
      "note": 81,
      "start": 12.3885,
      "duration": 0.0203,
      "velocity": 107,
      "chip": "ym2612"
    },
    {
      "channel": 3,
      "note": 75,
      "start": 12.4951,
      "duration": 0.214,
      "velocity": 112,
      "chip": "ym2612"
    },
    {
      "channel": 4,
      "note": 84,
      "start": 12.4955,
      "duration": 0.0208,
      "velocity": 107,
      "chip": "ym2612"
    },
    {
      "channel": 5,
      "note": 81,
      "start": 12.4961,
      "duration": 0.0203,
      "velocity": 107,
      "chip": "ym2612"
    },
    {
      "channel": 4,
      "note": 84,
      "start": 12.6062,
      "duration": 0.0222,
      "velocity": 107,
      "chip": "ym2612"
    },
    {
      "channel": 5,
      "note": 81,
      "start": 12.6067,
      "duration": 0.0218,
      "velocity": 107,
      "chip": "ym2612"
    },
    {
      "channel": 2,
      "note": 53,
      "start": 12.7138,
      "duration": 0.1565,
      "velocity": 99,
      "chip": "ym2612"
    },
    {
      "channel": 3,
      "note": 75,
      "start": 12.7143,
      "duration": 0.1023,
      "velocity": 112,
      "chip": "ym2612"
    },
    {
      "channel": 4,
      "note": 84,
      "start": 12.7148,
      "duration": 0.0211,
      "velocity": 107,
      "chip": "ym2612"
    },
    {
      "channel": 5,
      "note": 81,
      "start": 12.7152,
      "duration": 0.0207,
      "velocity": 107,
      "chip": "ym2612"
    },
    {
      "channel": 3,
      "note": 75,
      "start": 12.8215,
      "duration": 0.1027,
      "velocity": 112,
      "chip": "ym2612"
    },
    {
      "channel": 4,
      "note": 84,
      "start": 12.822,
      "duration": 0.0214,
      "velocity": 107,
      "chip": "ym2612"
    },
    {
      "channel": 5,
      "note": 81,
      "start": 12.8224,
      "duration": 0.0211,
      "velocity": 107,
      "chip": "ym2612"
    },
    {
      "channel": 3,
      "note": 75,
      "start": 12.9299,
      "duration": 0.2093,
      "velocity": 112,
      "chip": "ym2612"
    },
    {
      "channel": 4,
      "note": 84,
      "start": 12.9307,
      "duration": 0.0205,
      "velocity": 107,
      "chip": "ym2612"
    },
    {
      "channel": 5,
      "note": 81,
      "start": 12.9311,
      "duration": 0.0201,
      "velocity": 107,
      "chip": "ym2612"
    },
    {
      "channel": 4,
      "note": 84,
      "start": 13.0365,
      "duration": 0.0221,
      "velocity": 107,
      "chip": "ym2612"
    },
    {
      "channel": 5,
      "note": 81,
      "start": 13.037,
      "duration": 0.0217,
      "velocity": 107,
      "chip": "ym2612"
    },
    {
      "channel": 2,
      "note": 48,
      "start": 13.1441,
      "duration": 0.1567,
      "velocity": 99,
      "chip": "ym2612"
    },
    {
      "channel": 3,
      "note": 75,
      "start": 13.1446,
      "duration": 0.1022,
      "velocity": 112,
      "chip": "ym2612"
    },
    {
      "channel": 4,
      "note": 84,
      "start": 13.1451,
      "duration": 0.2095,
      "velocity": 107,
      "chip": "ym2612"
    },
    {
      "channel": 5,
      "note": 81,
      "start": 13.1455,
      "duration": 0.2091,
      "velocity": 107,
      "chip": "ym2612"
    },
    {
      "channel": 3,
      "note": 75,
      "start": 13.2518,
      "duration": 0.1026,
      "velocity": 112,
      "chip": "ym2612"
    },
    {
      "channel": 3,
      "note": 75,
      "start": 13.3601,
      "duration": 0.2094,
      "velocity": 112,
      "chip": "ym2612"
    },
    {
      "channel": 4,
      "note": 84,
      "start": 13.3608,
      "duration": 0.0205,
      "velocity": 107,
      "chip": "ym2612"
    },
    {
      "channel": 5,
      "note": 81,
      "start": 13.3613,
      "duration": 0.0201,
      "velocity": 107,
      "chip": "ym2612"
    },
    {
      "channel": 4,
      "note": 84,
      "start": 13.4668,
      "duration": 0.0221,
      "velocity": 107,
      "chip": "ym2612"
    },
    {
      "channel": 5,
      "note": 81,
      "start": 13.4672,
      "duration": 0.0217,
      "velocity": 107,
      "chip": "ym2612"
    },
    {
      "channel": 2,
      "note": 48,
      "start": 13.5744,
      "duration": 0.1565,
      "velocity": 99,
      "chip": "ym2612"
    },
    {
      "channel": 3,
      "note": 75,
      "start": 13.575,
      "duration": 0.1022,
      "velocity": 112,
      "chip": "ym2612"
    },
    {
      "channel": 4,
      "note": 84,
      "start": 13.5754,
      "duration": 0.2095,
      "velocity": 107,
      "chip": "ym2612"
    },
    {
      "channel": 5,
      "note": 81,
      "start": 13.5759,
      "duration": 0.2092,
      "velocity": 107,
      "chip": "ym2612"
    },
    {
      "channel": 3,
      "note": 75,
      "start": 13.682,
      "duration": 0.1028,
      "velocity": 112,
      "chip": "ym2612"
    },
    {
      "channel": 0,
      "note": 86,
      "start": 13.7895,
      "duration": 0.2103,
      "velocity": 92,
      "chip": "ym2612"
    },
    {
      "channel": 2,
      "note": 58,
      "start": 13.79,
      "duration": 0.2367,
      "velocity": 99,
      "chip": "ym2612"
    },
    {
      "channel": 3,
      "note": 75,
      "start": 13.7916,
      "duration": 0.2083,
      "velocity": 112,
      "chip": "ym2612"
    },
    {
      "channel": 4,
      "note": 86,
      "start": 13.792,
      "duration": 0.208,
      "velocity": 107,
      "chip": "ym2612"
    },
    {
      "channel": 5,
      "note": 82,
      "start": 13.7925,
      "duration": 0.2076,
      "velocity": 107,
      "chip": "ym2612"
    },
    {
      "channel": 0,
      "note": 84,
      "start": 14.0047,
      "duration": 0.2103,
      "velocity": 92,
      "chip": "ym2612"
    },
    {
      "channel": 3,
      "note": 75,
      "start": 14.0052,
      "duration": 0.1022,
      "velocity": 112,
      "chip": "ym2612"
    },
    {
      "channel": 4,
      "note": 86,
      "start": 14.0056,
      "duration": 0.0212,
      "velocity": 107,
      "chip": "ym2612"
    },
    {
      "channel": 5,
      "note": 82,
      "start": 14.0061,
      "duration": 0.0208,
      "velocity": 107,
      "chip": "ym2612"
    },
    {
      "channel": 1,
      "note": 86,
      "start": 14.1123,
      "duration": 0.2103,
      "velocity": 92,
      "chip": "ym2612"
    },
    {
      "channel": 2,
      "note": 57,
      "start": 14.1128,
      "duration": 0.2366,
      "velocity": 99,
      "chip": "ym2612"
    },
    {
      "channel": 3,
      "note": 75,
      "start": 14.1133,
      "duration": 0.1017,
      "velocity": 112,
      "chip": "ym2612"
    },
    {
      "channel": 4,
      "note": 86,
      "start": 14.1138,
      "duration": 0.0205,
      "velocity": 107,
      "chip": "ym2612"
    },
    {
      "channel": 5,
      "note": 82,
      "start": 14.1142,
      "duration": 0.0202,
      "velocity": 107,
      "chip": "ym2612"
    },
    {
      "channel": 3,
      "note": 75,
      "start": 14.2211,
      "duration": 0.2089,
      "velocity": 112,
      "chip": "ym2612"
    },
    {
      "channel": 4,
      "note": 86,
      "start": 14.2216,
      "duration": 0.0202,
      "velocity": 107,
      "chip": "ym2612"
    },
    {
      "channel": 5,
      "note": 82,
      "start": 14.222,
      "duration": 0.0199,
      "velocity": 107,
      "chip": "ym2612"
    },
    {
      "channel": 1,
      "note": 84,
      "start": 14.3274,
      "duration": 0.2103,
      "velocity": 92,
      "chip": "ym2612"
    },
    {
      "channel": 4,
      "note": 86,
      "start": 14.3278,
      "duration": 0.0217,
      "velocity": 107,
      "chip": "ym2612"
    },
    {
      "channel": 5,
      "note": 82,
      "start": 14.3283,
      "duration": 0.0213,
      "velocity": 107,
      "chip": "ym2612"
    },
    {
      "channel": 0,
      "note": 82,
      "start": 14.435,
      "duration": 0.2103,
      "velocity": 92,
      "chip": "ym2612"
    },
    {
      "channel": 2,
      "note": 58,
      "start": 14.4354,
      "duration": 0.156,
      "velocity": 99,
      "chip": "ym2612"
    },
    {
      "channel": 3,
      "note": 75,
      "start": 14.4359,
      "duration": 0.1018,
      "velocity": 112,
      "chip": "ym2612"
    },
    {
      "channel": 4,
      "note": 86,
      "start": 14.4364,
      "duration": 0.0206,
      "velocity": 107,
      "chip": "ym2612"
    },
    {
      "channel": 5,
      "note": 82,
      "start": 14.4368,
      "duration": 0.0202,
      "velocity": 107,
      "chip": "ym2612"
    },
    {
      "channel": 3,
      "note": 75,
      "start": 14.5427,
      "duration": 0.1027,
      "velocity": 112,
      "chip": "ym2612"
    },
    {
      "channel": 4,
      "note": 86,
      "start": 14.5431,
      "duration": 0.0214,
      "velocity": 107,
      "chip": "ym2612"
    },
    {
      "channel": 5,
      "note": 82,
      "start": 14.5436,
      "duration": 0.0211,
      "velocity": 107,
      "chip": "ym2612"
    },
    {
      "channel": 3,
      "note": 75,
      "start": 14.6512,
      "duration": 0.2091,
      "velocity": 112,
      "chip": "ym2612"
    },
    {
      "channel": 4,
      "note": 86,
      "start": 14.6517,
      "duration": 0.0205,
      "velocity": 107,
      "chip": "ym2612"
    },
    {
      "channel": 5,
      "note": 82,
      "start": 14.6521,
      "duration": 0.0202,
      "velocity": 107,
      "chip": "ym2612"
    },
    {
      "channel": 1,
      "note": 82,
      "start": 14.7576,
      "duration": 0.2103,
      "velocity": 92,
      "chip": "ym2612"
    },
    {
      "channel": 4,
      "note": 86,
      "start": 14.7581,
      "duration": 0.0216,
      "velocity": 107,
      "chip": "ym2612"
    },
    {
      "channel": 5,
      "note": 82,
      "start": 14.7586,
      "duration": 0.0213,
      "velocity": 107,
      "chip": "ym2612"
    },
    {
      "channel": 0,
      "note": 77,
      "start": 14.8654,
      "duration": 0.2146,
      "velocity": 92,
      "chip": "ym2612"
    },
    {
      "channel": 2,
      "note": 53,
      "start": 14.8658,
      "duration": 0.1559,
      "velocity": 99,
      "chip": "ym2612"
    },
    {
      "channel": 3,
      "note": 75,
      "start": 14.8663,
      "duration": 0.1017,
      "velocity": 112,
      "chip": "ym2612"
    },
    {
      "channel": 4,
      "note": 86,
      "start": 14.8668,
      "duration": 0.2135,
      "velocity": 107,
      "chip": "ym2612"
    },
    {
      "channel": 5,
      "note": 82,
      "start": 14.8672,
      "duration": 0.2131,
      "velocity": 107,
      "chip": "ym2612"
    },
    {
      "channel": 3,
      "note": 75,
      "start": 14.9728,
      "duration": 0.1073,
      "velocity": 112,
      "chip": "ym2612"
    },
    {
      "channel": 3,
      "note": 75,
      "start": 15.0858,
      "duration": 0.2093,
      "velocity": 112,
      "chip": "ym2612"
    },
    {
      "channel": 4,
      "note": 86,
      "start": 15.0862,
      "duration": 0.0208,
      "velocity": 107,
      "chip": "ym2612"
    },
    {
      "channel": 5,
      "note": 82,
      "start": 15.0868,
      "duration": 0.0203,
      "velocity": 107,
      "chip": "ym2612"
    },
    {
      "channel": 1,
      "note": 77,
      "start": 15.1924,
      "duration": 0.2102,
      "velocity": 92,
      "chip": "ym2612"
    },
    {
      "channel": 4,
      "note": 86,
      "start": 15.1929,
      "duration": 0.0215,
      "velocity": 107,
      "chip": "ym2612"
    },
    {
      "channel": 5,
      "note": 82,
      "start": 15.1933,
      "duration": 0.0212,
      "velocity": 107,
      "chip": "ym2612"
    },
    {
      "channel": 0,
      "note": 82,
      "start": 15.3001,
      "duration": 0.856,
      "velocity": 92,
      "chip": "ym2612"
    },
    {
      "channel": 2,
      "note": 53,
      "start": 15.3008,
      "duration": 0.1557,
      "velocity": 99,
      "chip": "ym2612"
    },
    {
      "channel": 3,
      "note": 75,
      "start": 15.3013,
      "duration": 0.1015,
      "velocity": 112,
      "chip": "ym2612"
    },
    {
      "channel": 4,
      "note": 86,
      "start": 15.3017,
      "duration": 0.2089,
      "velocity": 107,
      "chip": "ym2612"
    },
    {
      "channel": 5,
      "note": 82,
      "start": 15.3022,
      "duration": 0.2087,
      "velocity": 107,
      "chip": "ym2612"
    },
    {
      "channel": 3,
      "note": 75,
      "start": 15.4077,
      "duration": 0.1026,
      "velocity": 112,
      "chip": "ym2612"
    },
    {
      "channel": 2,
      "note": 58,
      "start": 15.5151,
      "duration": 0.2378,
      "velocity": 99,
      "chip": "ym2612"
    },
    {
      "channel": 3,
      "note": 75,
      "start": 15.5164,
      "duration": 0.209,
      "velocity": 112,
      "chip": "ym2612"
    },
    {
      "channel": 4,
      "note": 86,
      "start": 15.5169,
      "duration": 0.2086,
      "velocity": 107,
      "chip": "ym2612"
    },
    {
      "channel": 5,
      "note": 82,
      "start": 15.5173,
      "duration": 0.2083,
      "velocity": 107,
      "chip": "ym2612"
    },
    {
      "channel": 1,
      "note": 82,
      "start": 15.6228,
      "duration": 0.8558,
      "velocity": 92,
      "chip": "ym2612"
    },
    {
      "channel": 3,
      "note": 75,
      "start": 15.7306,
      "duration": 0.1029,
      "velocity": 112,
      "chip": "ym2612"
    },
    {
      "channel": 4,
      "note": 86,
      "start": 15.7311,
      "duration": 0.0218,
      "velocity": 107,
      "chip": "ym2612"
    },
    {
      "channel": 5,
      "note": 82,
      "start": 15.7315,
      "duration": 0.0215,
      "velocity": 107,
      "chip": "ym2612"
    },
    {
      "channel": 2,
      "note": 57,
      "start": 15.8378,
      "duration": 0.2376,
      "velocity": 99,
      "chip": "ym2612"
    },
    {
      "channel": 3,
      "note": 75,
      "start": 15.8383,
      "duration": 0.1024,
      "velocity": 112,
      "chip": "ym2612"
    },
    {
      "channel": 4,
      "note": 86,
      "start": 15.8388,
      "duration": 0.0211,
      "velocity": 107,
      "chip": "ym2612"
    },
    {
      "channel": 5,
      "note": 82,
      "start": 15.8393,
      "duration": 0.0208,
      "velocity": 107,
      "chip": "ym2612"
    },
    {
      "channel": 3,
      "note": 75,
      "start": 15.9463,
      "duration": 0.2098,
      "velocity": 112,
      "chip": "ym2612"
    },
    {
      "channel": 4,
      "note": 86,
      "start": 15.9468,
      "duration": 0.0207,
      "velocity": 107,
      "chip": "ym2612"
    },
    {
      "channel": 5,
      "note": 82,
      "start": 15.9473,
      "duration": 0.0203,
      "velocity": 107,
      "chip": "ym2612"
    },
    {
      "channel": 4,
      "note": 86,
      "start": 16.053,
      "duration": 0.0225,
      "velocity": 107,
      "chip": "ym2612"
    },
    {
      "channel": 5,
      "note": 82,
      "start": 16.0535,
      "duration": 0.0221,
      "velocity": 107,
      "chip": "ym2612"
    },
    {
      "channel": 0,
      "note": 77,
      "start": 16.1608,
      "duration": 0.6403,
      "velocity": 92,
      "chip": "ym2612"
    },
    {
      "channel": 2,
      "note": 58,
      "start": 16.1612,
      "duration": 0.1561,
      "velocity": 99,
      "chip": "ym2612"
    },
    {
      "channel": 3,
      "note": 75,
      "start": 16.1617,
      "duration": 0.1015,
      "velocity": 112,
      "chip": "ym2612"
    },
    {
      "channel": 4,
      "note": 86,
      "start": 16.1622,
      "duration": 0.0203,
      "velocity": 107,
      "chip": "ym2612"
    },
    {
      "channel": 5,
      "note": 82,
      "start": 16.1627,
      "duration": 0.02,
      "velocity": 107,
      "chip": "ym2612"
    },
    {
      "channel": 3,
      "note": 75,
      "start": 16.2681,
      "duration": 0.1028,
      "velocity": 112,
      "chip": "ym2612"
    },
    {
      "channel": 4,
      "note": 86,
      "start": 16.2686,
      "duration": 0.0215,
      "velocity": 107,
      "chip": "ym2612"
    },
    {
      "channel": 5,
      "note": 82,
      "start": 16.269,
      "duration": 0.0212,
      "velocity": 107,
      "chip": "ym2612"
    },
    {
      "channel": 3,
      "note": 75,
      "start": 16.3765,
      "duration": 0.2094,
      "velocity": 112,
      "chip": "ym2612"
    },
    {
      "channel": 4,
      "note": 86,
      "start": 16.3771,
      "duration": 0.0206,
      "velocity": 107,
      "chip": "ym2612"
    },
    {
      "channel": 5,
      "note": 82,
      "start": 16.3775,
      "duration": 0.0202,
      "velocity": 107,
      "chip": "ym2612"
    },
    {
      "channel": 1,
      "note": 77,
      "start": 16.4833,
      "duration": 0.6404,
      "velocity": 92,
      "chip": "ym2612"
    },
    {
      "channel": 4,
      "note": 86,
      "start": 16.4838,
      "duration": 0.0215,
      "velocity": 107,
      "chip": "ym2612"
    },
    {
      "channel": 5,
      "note": 82,
      "start": 16.4842,
      "duration": 0.0211,
      "velocity": 107,
      "chip": "ym2612"
    },
    {
      "channel": 2,
      "note": 53,
      "start": 16.5911,
      "duration": 0.1562,
      "velocity": 99,
      "chip": "ym2612"
    },
    {
      "channel": 3,
      "note": 75,
      "start": 16.5916,
      "duration": 0.1019,
      "velocity": 112,
      "chip": "ym2612"
    },
    {
      "channel": 4,
      "note": 86,
      "start": 16.5921,
      "duration": 0.2092,
      "velocity": 107,
      "chip": "ym2612"
    },
    {
      "channel": 5,
      "note": 82,
      "start": 16.5925,
      "duration": 0.2089,
      "velocity": 107,
      "chip": "ym2612"
    },
    {
      "channel": 3,
      "note": 75,
      "start": 16.6985,
      "duration": 0.1027,
      "velocity": 112,
      "chip": "ym2612"
    },
    {
      "channel": 0,
      "note": 82,
      "start": 16.8059,
      "duration": 0.4254,
      "velocity": 92,
      "chip": "ym2612"
    },
    {
      "channel": 3,
      "note": 75,
      "start": 16.8073,
      "duration": 0.2089,
      "velocity": 112,
      "chip": "ym2612"
    },
    {
      "channel": 4,
      "note": 86,
      "start": 16.8077,
      "duration": 0.0202,
      "velocity": 107,
      "chip": "ym2612"
    },
    {
      "channel": 5,
      "note": 82,
      "start": 16.8082,
      "duration": 0.0199,
      "velocity": 107,
      "chip": "ym2612"
    },
    {
      "channel": 4,
      "note": 86,
      "start": 16.9135,
      "duration": 0.022,
      "velocity": 107,
      "chip": "ym2612"
    },
    {
      "channel": 5,
      "note": 82,
      "start": 16.9139,
      "duration": 0.0217,
      "velocity": 107,
      "chip": "ym2612"
    },
    {
      "channel": 2,
      "note": 53,
      "start": 17.0212,
      "duration": 0.1564,
      "velocity": 99,
      "chip": "ym2612"
    },
    {
      "channel": 3,
      "note": 75,
      "start": 17.0217,
      "duration": 0.1022,
      "velocity": 112,
      "chip": "ym2612"
    },
    {
      "channel": 4,
      "note": 86,
      "start": 17.0222,
      "duration": 0.2093,
      "velocity": 107,
      "chip": "ym2612"
    },
    {
      "channel": 5,
      "note": 82,
      "start": 17.0227,
      "duration": 0.2089,
      "velocity": 107,
      "chip": "ym2612"
    },
    {
      "channel": 1,
      "note": 82,
      "start": 17.1287,
      "duration": 0.4254,
      "velocity": 92,
      "chip": "ym2612"
    },
    {
      "channel": 3,
      "note": 75,
      "start": 17.1293,
      "duration": 0.1022,
      "velocity": 112,
      "chip": "ym2612"
    },
    {
      "channel": 0,
      "note": 80,
      "start": 17.2362,
      "duration": 1.7253,
      "velocity": 92,
      "chip": "ym2612"
    },
    {
      "channel": 2,
      "note": 56,
      "start": 17.2366,
      "duration": 0.2368,
      "velocity": 99,
      "chip": "ym2612"
    },
    {
      "channel": 3,
      "note": 75,
      "start": 17.238,
      "duration": 0.2086,
      "velocity": 112,
      "chip": "ym2612"
    },
    {
      "channel": 4,
      "note": 84,
      "start": 17.2385,
      "duration": 0.2082,
      "velocity": 107,
      "chip": "ym2612"
    },
    {
      "channel": 5,
      "note": 80,
      "start": 17.2389,
      "duration": 0.2079,
      "velocity": 107,
      "chip": "ym2612"
    },
    {
      "channel": 3,
      "note": 75,
      "start": 17.4515,
      "duration": 0.1028,
      "velocity": 112,
      "chip": "ym2612"
    },
    {
      "channel": 4,
      "note": 84,
      "start": 17.4519,
      "duration": 0.0216,
      "velocity": 107,
      "chip": "ym2612"
    },
    {
      "channel": 5,
      "note": 80,
      "start": 17.4524,
      "duration": 0.0213,
      "velocity": 107,
      "chip": "ym2612"
    },
    {
      "channel": 1,
      "note": 80,
      "start": 17.5589,
      "duration": 1.7252,
      "velocity": 92,
      "chip": "ym2612"
    },
    {
      "channel": 2,
      "note": 55,
      "start": 17.5594,
      "duration": 0.2456,
      "velocity": 99,
      "chip": "ym2612"
    },
    {
      "channel": 3,
      "note": 75,
      "start": 17.5599,
      "duration": 0.111,
      "velocity": 112,
      "chip": "ym2612"
    },
    {
      "channel": 4,
      "note": 84,
      "start": 17.5604,
      "duration": 0.0251,
      "velocity": 107,
      "chip": "ym2612"
    },
    {
      "channel": 5,
      "note": 80,
      "start": 17.5611,
      "duration": 0.0244,
      "velocity": 107,
      "chip": "ym2612"
    },
    {
      "channel": 3,
      "note": 75,
      "start": 17.6763,
      "duration": 0.2094,
      "velocity": 112,
      "chip": "ym2612"
    },
    {
      "channel": 4,
      "note": 84,
      "start": 17.6768,
      "duration": 0.0208,
      "velocity": 107,
      "chip": "ym2612"
    },
    {
      "channel": 5,
      "note": 80,
      "start": 17.6773,
      "duration": 0.0203,
      "velocity": 107,
      "chip": "ym2612"
    },
    {
      "channel": 4,
      "note": 84,
      "start": 17.7831,
      "duration": 0.022,
      "velocity": 107,
      "chip": "ym2612"
    },
    {
      "channel": 5,
      "note": 80,
      "start": 17.7835,
      "duration": 0.0217,
      "velocity": 107,
      "chip": "ym2612"
    },
    {
      "channel": 2,
      "note": 56,
      "start": 17.8908,
      "duration": 0.1563,
      "velocity": 99,
      "chip": "ym2612"
    },
    {
      "channel": 3,
      "note": 75,
      "start": 17.8913,
      "duration": 0.102,
      "velocity": 112,
      "chip": "ym2612"
    },
    {
      "channel": 4,
      "note": 84,
      "start": 17.8918,
      "duration": 0.0209,
      "velocity": 107,
      "chip": "ym2612"
    },
    {
      "channel": 5,
      "note": 80,
      "start": 17.8922,
      "duration": 0.0205,
      "velocity": 107,
      "chip": "ym2612"
    },
    {
      "channel": 3,
      "note": 75,
      "start": 17.9982,
      "duration": 0.1027,
      "velocity": 112,
      "chip": "ym2612"
    },
    {
      "channel": 4,
      "note": 84,
      "start": 17.9986,
      "duration": 0.0216,
      "velocity": 107,
      "chip": "ym2612"
    },
    {
      "channel": 5,
      "note": 80,
      "start": 17.9991,
      "duration": 0.0212,
      "velocity": 107,
      "chip": "ym2612"
    },
    {
      "channel": 3,
      "note": 75,
      "start": 18.1067,
      "duration": 0.2094,
      "velocity": 112,
      "chip": "ym2612"
    },
    {
      "channel": 4,
      "note": 84,
      "start": 18.1071,
      "duration": 0.0206,
      "velocity": 107,
      "chip": "ym2612"
    },
    {
      "channel": 5,
      "note": 80,
      "start": 18.1076,
      "duration": 0.0202,
      "velocity": 107,
      "chip": "ym2612"
    },
    {
      "channel": 4,
      "note": 84,
      "start": 18.2132,
      "duration": 0.0221,
      "velocity": 107,
      "chip": "ym2612"
    },
    {
      "channel": 5,
      "note": 80,
      "start": 18.2137,
      "duration": 0.0217,
      "velocity": 107,
      "chip": "ym2612"
    },
    {
      "channel": 2,
      "note": 48,
      "start": 18.3211,
      "duration": 0.1563,
      "velocity": 99,
      "chip": "ym2612"
    },
    {
      "channel": 3,
      "note": 75,
      "start": 18.3216,
      "duration": 0.1024,
      "velocity": 112,
      "chip": "ym2612"
    },
    {
      "channel": 4,
      "note": 84,
      "start": 18.3221,
      "duration": 0.2091,
      "velocity": 107,
      "chip": "ym2612"
    },
    {
      "channel": 5,
      "note": 80,
      "start": 18.3226,
      "duration": 0.2088,
      "velocity": 107,
      "chip": "ym2612"
    },
    {
      "channel": 3,
      "note": 75,
      "start": 18.4285,
      "duration": 0.1027,
      "velocity": 112,
      "chip": "ym2612"
    },
    {
      "channel": 3,
      "note": 75,
      "start": 18.5369,
      "duration": 0.2097,
      "velocity": 112,
      "chip": "ym2612"
    },
    {
      "channel": 4,
      "note": 84,
      "start": 18.5373,
      "duration": 0.0207,
      "velocity": 107,
      "chip": "ym2612"
    },
    {
      "channel": 5,
      "note": 80,
      "start": 18.5378,
      "duration": 0.0204,
      "velocity": 107,
      "chip": "ym2612"
    },
    {
      "channel": 4,
      "note": 84,
      "start": 18.6435,
      "duration": 0.0224,
      "velocity": 107,
      "chip": "ym2612"
    },
    {
      "channel": 5,
      "note": 80,
      "start": 18.644,
      "duration": 0.0221,
      "velocity": 107,
      "chip": "ym2612"
    },
    {
      "channel": 2,
      "note": 48,
      "start": 18.7512,
      "duration": 0.1568,
      "velocity": 99,
      "chip": "ym2612"
    },
    {
      "channel": 3,
      "note": 75,
      "start": 18.7517,
      "duration": 0.1022,
      "velocity": 112,
      "chip": "ym2612"
    },
    {
      "channel": 4,
      "note": 84,
      "start": 18.7522,
      "duration": 0.2095,
      "velocity": 107,
      "chip": "ym2612"
    },
    {
      "channel": 5,
      "note": 80,
      "start": 18.7526,
      "duration": 0.2093,
      "velocity": 107,
      "chip": "ym2612"
    },
    {
      "channel": 3,
      "note": 75,
      "start": 18.8587,
      "duration": 0.1029,
      "velocity": 112,
      "chip": "ym2612"
    },
    {
      "channel": 0,
      "note": 79,
      "start": 18.9663,
      "duration": 1.51,
      "velocity": 92,
      "chip": "ym2612"
    },
    {
      "channel": 2,
      "note": 55,
      "start": 18.9667,
      "duration": 0.2367,
      "velocity": 99,
      "chip": "ym2612"
    },
    {
      "channel": 3,
      "note": 75,
      "start": 18.9682,
      "duration": 0.2083,
      "velocity": 112,
      "chip": "ym2612"
    },
    {
      "channel": 4,
      "note": 84,
      "start": 18.9686,
      "duration": 0.208,
      "velocity": 107,
      "chip": "ym2612"
    },
    {
      "channel": 5,
      "note": 79,
      "start": 18.9691,
      "duration": 0.2076,
      "velocity": 107,
      "chip": "ym2612"
    },
    {
      "channel": 3,
      "note": 75,
      "start": 19.1815,
      "duration": 0.1028,
      "velocity": 112,
      "chip": "ym2612"
    },
    {
      "channel": 4,
      "note": 84,
      "start": 19.182,
      "duration": 0.0216,
      "velocity": 107,
      "chip": "ym2612"
    },
    {
      "channel": 5,
      "note": 79,
      "start": 19.1824,
      "duration": 0.0212,
      "velocity": 107,
      "chip": "ym2612"
    },
    {
      "channel": 1,
      "note": 79,
      "start": 19.289,
      "duration": 1.4032,
      "velocity": 92,
      "chip": "ym2612"
    },
    {
      "channel": 2,
      "note": 53,
      "start": 19.2895,
      "duration": 0.2366,
      "velocity": 99,
      "chip": "ym2612"
    },
    {
      "channel": 3,
      "note": 75,
      "start": 19.2901,
      "duration": 0.1015,
      "velocity": 112,
      "chip": "ym2612"
    },
    {
      "channel": 4,
      "note": 84,
      "start": 19.2908,
      "duration": 0.0205,
      "velocity": 107,
      "chip": "ym2612"
    },
    {
      "channel": 5,
      "note": 79,
      "start": 19.2913,
      "duration": 0.0202,
      "velocity": 107,
      "chip": "ym2612"
    },
    {
      "channel": 3,
      "note": 75,
      "start": 19.3975,
      "duration": 0.2093,
      "velocity": 112,
      "chip": "ym2612"
    },
    {
      "channel": 4,
      "note": 84,
      "start": 19.398,
      "duration": 0.0206,
      "velocity": 107,
      "chip": "ym2612"
    },
    {
      "channel": 5,
      "note": 79,
      "start": 19.3984,
      "duration": 0.0202,
      "velocity": 107,
      "chip": "ym2612"
    },
    {
      "channel": 4,
      "note": 84,
      "start": 19.5041,
      "duration": 0.0222,
      "velocity": 107,
      "chip": "ym2612"
    },
    {
      "channel": 5,
      "note": 79,
      "start": 19.5045,
      "duration": 0.0218,
      "velocity": 107,
      "chip": "ym2612"
    },
    {
      "channel": 2,
      "note": 55,
      "start": 19.6116,
      "duration": 0.1565,
      "velocity": 99,
      "chip": "ym2612"
    },
    {
      "channel": 3,
      "note": 75,
      "start": 19.6121,
      "duration": 0.1022,
      "velocity": 112,
      "chip": "ym2612"
    },
    {
      "channel": 4,
      "note": 84,
      "start": 19.6127,
      "duration": 0.021,
      "velocity": 107,
      "chip": "ym2612"
    },
    {
      "channel": 5,
      "note": 79,
      "start": 19.6132,
      "duration": 0.0206,
      "velocity": 107,
      "chip": "ym2612"
    },
    {
      "channel": 3,
      "note": 75,
      "start": 19.7193,
      "duration": 0.1028,
      "velocity": 112,
      "chip": "ym2612"
    },
    {
      "channel": 4,
      "note": 84,
      "start": 19.7197,
      "duration": 0.0217,
      "velocity": 107,
      "chip": "ym2612"
    },
    {
      "channel": 5,
      "note": 79,
      "start": 19.7202,
      "duration": 0.0213,
      "velocity": 107,
      "chip": "ym2612"
    },
    {
      "channel": 3,
      "note": 75,
      "start": 19.8278,
      "duration": 0.2093,
      "velocity": 112,
      "chip": "ym2612"
    },
    {
      "channel": 4,
      "note": 84,
      "start": 19.8282,
      "duration": 0.0206,
      "velocity": 107,
      "chip": "ym2612"
    },
    {
      "channel": 5,
      "note": 79,
      "start": 19.8287,
      "duration": 0.0202,
      "velocity": 107,
      "chip": "ym2612"
    },
    {
      "channel": 4,
      "note": 84,
      "start": 19.9344,
      "duration": 0.022,
      "velocity": 107,
      "chip": "ym2612"
    },
    {
      "channel": 5,
      "note": 79,
      "start": 19.9349,
      "duration": 0.0217,
      "velocity": 107,
      "chip": "ym2612"
    },
    {
      "channel": 2,
      "note": 50,
      "start": 20.0419,
      "duration": 0.1611,
      "velocity": 99,
      "chip": "ym2612"
    },
    {
      "channel": 3,
      "note": 75,
      "start": 20.0424,
      "duration": 0.1068,
      "velocity": 112,
      "chip": "ym2612"
    },
    {
      "channel": 4,
      "note": 84,
      "start": 20.0429,
      "duration": 0.2139,
      "velocity": 107,
      "chip": "ym2612"
    },
    {
      "channel": 5,
      "note": 79,
      "start": 20.0434,
      "duration": 0.2135,
      "velocity": 107,
      "chip": "ym2612"
    },
    {
      "channel": 3,
      "note": 75,
      "start": 20.154,
      "duration": 0.1027,
      "velocity": 112,
      "chip": "ym2612"
    },
    {
      "channel": 3,
      "note": 75,
      "start": 20.2624,
      "duration": 0.214,
      "velocity": 112,
      "chip": "ym2612"
    },
    {
      "channel": 4,
      "note": 84,
      "start": 20.2629,
      "duration": 0.0207,
      "velocity": 107,
      "chip": "ym2612"
    },
    {
      "channel": 5,
      "note": 79,
      "start": 20.2633,
      "duration": 0.0204,
      "velocity": 107,
      "chip": "ym2612"
    },
    {
      "channel": 4,
      "note": 84,
      "start": 20.3736,
      "duration": 0.0221,
      "velocity": 107,
      "chip": "ym2612"
    },
    {
      "channel": 5,
      "note": 79,
      "start": 20.374,
      "duration": 0.0217,
      "velocity": 107,
      "chip": "ym2612"
    },
    {
      "channel": 0,
      "note": 82,
      "start": 20.4812,
      "duration": 0.0668,
      "velocity": 92,
      "chip": "ym2612"
    },
    {
      "channel": 2,
      "note": 50,
      "start": 20.4817,
      "duration": 0.156,
      "velocity": 99,
      "chip": "ym2612"
    },
    {
      "channel": 3,
      "note": 75,
      "start": 20.4822,
      "duration": 0.1017,
      "velocity": 112,
      "chip": "ym2612"
    },
    {
      "channel": 4,
      "note": 84,
      "start": 20.4826,
      "duration": 0.2098,
      "velocity": 107,
      "chip": "ym2612"
    },
    {
      "channel": 5,
      "note": 79,
      "start": 20.4831,
      "duration": 0.2094,
      "velocity": 107,
      "chip": "ym2612"
    },
    {
      "channel": 0,
      "note": 84,
      "start": 20.553,
      "duration": 0.0668,
      "velocity": 92,
      "chip": "ym2612"
    },
    {
      "channel": 3,
      "note": 75,
      "start": 20.5889,
      "duration": 0.1034,
      "velocity": 112,
      "chip": "ym2612"
    },
    {
      "channel": 0,
      "note": 86,
      "start": 20.6246,
      "duration": 0.0675,
      "velocity": 92,
      "chip": "ym2612"
    },
    {
      "channel": 0,
      "note": 87,
      "start": 20.6964,
      "duration": 0.2102,
      "velocity": 92,
      "chip": "ym2612"
    },
    {
      "channel": 2,
      "note": 60,
      "start": 20.6968,
      "duration": 0.2366,
      "velocity": 99,
      "chip": "ym2612"
    },
    {
      "channel": 3,
      "note": 75,
      "start": 20.6982,
      "duration": 0.2085,
      "velocity": 112,
      "chip": "ym2612"
    },
    {
      "channel": 4,
      "note": 87,
      "start": 20.6987,
      "duration": 0.2081,
      "velocity": 107,
      "chip": "ym2612"
    },
    {
      "channel": 5,
      "note": 84,
      "start": 20.6991,
      "duration": 0.2077,
      "velocity": 107,
      "chip": "ym2612"
    },
    {
      "channel": 0,
      "note": 86,
      "start": 20.9115,
      "duration": 0.2104,
      "velocity": 92,
      "chip": "ym2612"
    },
    {
      "channel": 3,
      "note": 75,
      "start": 20.912,
      "duration": 0.1022,
      "velocity": 112,
      "chip": "ym2612"
    },
    {
      "channel": 4,
      "note": 87,
      "start": 20.9124,
      "duration": 0.0212,
      "velocity": 107,
      "chip": "ym2612"
    },
    {
      "channel": 5,
      "note": 84,
      "start": 20.913,
      "duration": 0.0207,
      "velocity": 107,
      "chip": "ym2612"
    },
    {
      "channel": 1,
      "note": 87,
      "start": 21.019,
      "duration": 0.2103,
      "velocity": 92,
      "chip": "ym2612"
    },
    {
      "channel": 2,
      "note": 58,
      "start": 21.0195,
      "duration": 0.2367,
      "velocity": 99,
      "chip": "ym2612"
    },
    {
      "channel": 3,
      "note": 75,
      "start": 21.02,
      "duration": 0.1019,
      "velocity": 112,
      "chip": "ym2612"
    },
    {
      "channel": 4,
      "note": 87,
      "start": 21.0207,
      "duration": 0.0204,
      "velocity": 107,
      "chip": "ym2612"
    },
    {
      "channel": 5,
      "note": 84,
      "start": 21.0212,
      "duration": 0.02,
      "velocity": 107,
      "chip": "ym2612"
    },
    {
      "channel": 3,
      "note": 75,
      "start": 21.1274,
      "duration": 0.2094,
      "velocity": 112,
      "chip": "ym2612"
    },
    {
      "channel": 4,
      "note": 87,
      "start": 21.1279,
      "duration": 0.0208,
      "velocity": 107,
      "chip": "ym2612"
    },
    {
      "channel": 5,
      "note": 84,
      "start": 21.1283,
      "duration": 0.0205,
      "velocity": 107,
      "chip": "ym2612"
    },
    {
      "channel": 1,
      "note": 86,
      "start": 21.2342,
      "duration": 0.2102,
      "velocity": 92,
      "chip": "ym2612"
    },
    {
      "channel": 4,
      "note": 87,
      "start": 21.2346,
      "duration": 0.0216,
      "velocity": 107,
      "chip": "ym2612"
    },
    {
      "channel": 5,
      "note": 84,
      "start": 21.2351,
      "duration": 0.0213,
      "velocity": 107,
      "chip": "ym2612"
    },
    {
      "channel": 0,
      "note": 84,
      "start": 21.3417,
      "duration": 0.2103,
      "velocity": 92,
      "chip": "ym2612"
    },
    {
      "channel": 2,
      "note": 60,
      "start": 21.3422,
      "duration": 0.1561,
      "velocity": 99,
      "chip": "ym2612"
    },
    {
      "channel": 3,
      "note": 75,
      "start": 21.3427,
      "duration": 0.1018,
      "velocity": 112,
      "chip": "ym2612"
    },
    {
      "channel": 4,
      "note": 87,
      "start": 21.3431,
      "duration": 0.0207,
      "velocity": 107,
      "chip": "ym2612"
    },
    {
      "channel": 5,
      "note": 84,
      "start": 21.3436,
      "duration": 0.0203,
      "velocity": 107,
      "chip": "ym2612"
    },
    {
      "channel": 3,
      "note": 75,
      "start": 21.4493,
      "duration": 0.1027,
      "velocity": 112,
      "chip": "ym2612"
    },
    {
      "channel": 4,
      "note": 87,
      "start": 21.4498,
      "duration": 0.0215,
      "velocity": 107,
      "chip": "ym2612"
    },
    {
      "channel": 5,
      "note": 84,
      "start": 21.4502,
      "duration": 0.0212,
      "velocity": 107,
      "chip": "ym2612"
    },
    {
      "channel": 3,
      "note": 75,
      "start": 21.5578,
      "duration": 0.2093,
      "velocity": 112,
      "chip": "ym2612"
    },
    {
      "channel": 4,
      "note": 87,
      "start": 21.5583,
      "duration": 0.0208,
      "velocity": 107,
      "chip": "ym2612"
    },
    {
      "channel": 5,
      "note": 84,
      "start": 21.5588,
      "duration": 0.0205,
      "velocity": 107,
      "chip": "ym2612"
    },
    {
      "channel": 1,
      "note": 84,
      "start": 21.6645,
      "duration": 0.2101,
      "velocity": 92,
      "chip": "ym2612"
    },
    {
      "channel": 4,
      "note": 87,
      "start": 21.665,
      "duration": 0.0215,
      "velocity": 107,
      "chip": "ym2612"
    },
    {
      "channel": 5,
      "note": 84,
      "start": 21.6654,
      "duration": 0.0211,
      "velocity": 107,
      "chip": "ym2612"
    },
    {
      "channel": 0,
      "note": 82,
      "start": 21.772,
      "duration": 0.2104,
      "velocity": 92,
      "chip": "ym2612"
    },
    {
      "channel": 2,
      "note": 55,
      "start": 21.7724,
      "duration": 0.156,
      "velocity": 99,
      "chip": "ym2612"
    },
    {
      "channel": 3,
      "note": 75,
      "start": 21.7729,
      "duration": 0.1018,
      "velocity": 112,
      "chip": "ym2612"
    },
    {
      "channel": 4,
      "note": 87,
      "start": 21.7734,
      "duration": 0.2093,
      "velocity": 107,
      "chip": "ym2612"
    },
    {
      "channel": 5,
      "note": 84,
      "start": 21.7739,
      "duration": 0.2089,
      "velocity": 107,
      "chip": "ym2612"
    },
    {
      "channel": 3,
      "note": 75,
      "start": 21.8796,
      "duration": 0.1029,
      "velocity": 112,
      "chip": "ym2612"
    },
    {
      "channel": 3,
      "note": 75,
      "start": 21.988,
      "duration": 0.2094,
      "velocity": 112,
      "chip": "ym2612"
    },
    {
      "channel": 4,
      "note": 87,
      "start": 21.9884,
      "duration": 0.0207,
      "velocity": 107,
      "chip": "ym2612"
    },
    {
      "channel": 5,
      "note": 84,
      "start": 21.9889,
      "duration": 0.0203,
      "velocity": 107,
      "chip": "ym2612"
    },
    {
      "channel": 1,
      "note": 82,
      "start": 22.0948,
      "duration": 0.2102,
      "velocity": 92,
      "chip": "ym2612"
    },
    {
      "channel": 4,
      "note": 87,
      "start": 22.0952,
      "duration": 0.0215,
      "velocity": 107,
      "chip": "ym2612"
    },
    {
      "channel": 5,
      "note": 84,
      "start": 22.0957,
      "duration": 0.0211,
      "velocity": 107,
      "chip": "ym2612"
    },
    {
      "channel": 0,
      "note": 84,
      "start": 22.2022,
      "duration": 0.8602,
      "velocity": 92,
      "chip": "ym2612"
    },
    {
      "channel": 2,
      "note": 55,
      "start": 22.2027,
      "duration": 0.1561,
      "velocity": 99,
      "chip": "ym2612"
    },
    {
      "channel": 3,
      "note": 75,
      "start": 22.2033,
      "duration": 0.1017,
      "velocity": 112,
      "chip": "ym2612"
    },
    {
      "channel": 4,
      "note": 87,
      "start": 22.2038,
      "duration": 0.209,
      "velocity": 107,
      "chip": "ym2612"
    },
    {
      "channel": 5,
      "note": 84,
      "start": 22.2042,
      "duration": 0.2086,
      "velocity": 107,
      "chip": "ym2612"
    },
    {
      "channel": 3,
      "note": 75,
      "start": 22.3099,
      "duration": 0.1027,
      "velocity": 112,
      "chip": "ym2612"
    },
    {
      "channel": 2,
      "note": 60,
      "start": 22.4174,
      "duration": 0.2417,
      "velocity": 99,
      "chip": "ym2612"
    },
    {
      "channel": 3,
      "note": 75,
      "start": 22.4187,
      "duration": 0.2134,
      "velocity": 112,
      "chip": "ym2612"
    },
    {
      "channel": 4,
      "note": 87,
      "start": 22.4192,
      "duration": 0.2131,
      "velocity": 107,
      "chip": "ym2612"
    },
    {
      "channel": 5,
      "note": 84,
      "start": 22.4196,
      "duration": 0.2127,
      "velocity": 107,
      "chip": "ym2612"
    },
    {
      "channel": 1,
      "note": 84,
      "start": 22.525,
      "duration": 0.8603,
      "velocity": 92,
      "chip": "ym2612"
    },
    {
      "channel": 3,
      "note": 75,
      "start": 22.6371,
      "duration": 0.1026,
      "velocity": 112,
      "chip": "ym2612"
    },
    {
      "channel": 4,
      "note": 87,
      "start": 22.6376,
      "duration": 0.0217,
      "velocity": 107,
      "chip": "ym2612"
    },
    {
      "channel": 5,
      "note": 84,
      "start": 22.638,
      "duration": 0.0213,
      "velocity": 107,
      "chip": "ym2612"
    },
    {
      "channel": 2,
      "note": 58,
      "start": 22.7445,
      "duration": 0.2373,
      "velocity": 99,
      "chip": "ym2612"
    },
    {
      "channel": 3,
      "note": 75,
      "start": 22.7451,
      "duration": 0.1023,
      "velocity": 112,
      "chip": "ym2612"
    },
    {
      "channel": 4,
      "note": 87,
      "start": 22.7455,
      "duration": 0.0211,
      "velocity": 107,
      "chip": "ym2612"
    },
    {
      "channel": 5,
      "note": 84,
      "start": 22.746,
      "duration": 0.0207,
      "velocity": 107,
      "chip": "ym2612"
    },
    {
      "channel": 3,
      "note": 75,
      "start": 22.853,
      "duration": 0.2095,
      "velocity": 112,
      "chip": "ym2612"
    },
    {
      "channel": 4,
      "note": 87,
      "start": 22.8535,
      "duration": 0.0208,
      "velocity": 107,
      "chip": "ym2612"
    },
    {
      "channel": 5,
      "note": 84,
      "start": 22.8539,
      "duration": 0.0204,
      "velocity": 107,
      "chip": "ym2612"
    },
    {
      "channel": 4,
      "note": 87,
      "start": 22.9597,
      "duration": 0.0222,
      "velocity": 107,
      "chip": "ym2612"
    },
    {
      "channel": 5,
      "note": 84,
      "start": 22.9602,
      "duration": 0.0219,
      "velocity": 107,
      "chip": "ym2612"
    },
    {
      "channel": 0,
      "note": 81,
      "start": 23.0673,
      "duration": 0.6405,
      "velocity": 92,
      "chip": "ym2612"
    },
    {
      "channel": 2,
      "note": 60,
      "start": 23.0678,
      "duration": 0.156,
      "velocity": 99,
      "chip": "ym2612"
    },
    {
      "channel": 3,
      "note": 75,
      "start": 23.0683,
      "duration": 0.1017,
      "velocity": 112,
      "chip": "ym2612"
    },
    {
      "channel": 4,
      "note": 87,
      "start": 23.0687,
      "duration": 0.0206,
      "velocity": 107,
      "chip": "ym2612"
    },
    {
      "channel": 5,
      "note": 84,
      "start": 23.0692,
      "duration": 0.0202,
      "velocity": 107,
      "chip": "ym2612"
    },
    {
      "channel": 3,
      "note": 75,
      "start": 23.1749,
      "duration": 0.1027,
      "velocity": 112,
      "chip": "ym2612"
    },
    {
      "channel": 4,
      "note": 87,
      "start": 23.1754,
      "duration": 0.0215,
      "velocity": 107,
      "chip": "ym2612"
    },
    {
      "channel": 5,
      "note": 84,
      "start": 23.1758,
      "duration": 0.0211,
      "velocity": 107,
      "chip": "ym2612"
    },
    {
      "channel": 3,
      "note": 75,
      "start": 23.2834,
      "duration": 0.2094,
      "velocity": 112,
      "chip": "ym2612"
    },
    {
      "channel": 4,
      "note": 87,
      "start": 23.2838,
      "duration": 0.0206,
      "velocity": 107,
      "chip": "ym2612"
    },
    {
      "channel": 5,
      "note": 84,
      "start": 23.2843,
      "duration": 0.0202,
      "velocity": 107,
      "chip": "ym2612"
    },
    {
      "channel": 1,
      "note": 81,
      "start": 23.39,
      "duration": 0.6408,
      "velocity": 92,
      "chip": "ym2612"
    },
    {
      "channel": 4,
      "note": 87,
      "start": 23.3907,
      "duration": 0.0213,
      "velocity": 107,
      "chip": "ym2612"
    },
    {
      "channel": 5,
      "note": 84,
      "start": 23.3912,
      "duration": 0.021,
      "velocity": 107,
      "chip": "ym2612"
    },
    {
      "channel": 2,
      "note": 55,
      "start": 23.4976,
      "duration": 0.1565,
      "velocity": 99,
      "chip": "ym2612"
    },
    {
      "channel": 3,
      "note": 75,
      "start": 23.4981,
      "duration": 0.1021,
      "velocity": 112,
      "chip": "ym2612"
    },
    {
      "channel": 4,
      "note": 87,
      "start": 23.4986,
      "duration": 0.2095,
      "velocity": 107,
      "chip": "ym2612"
    },
    {
      "channel": 5,
      "note": 84,
      "start": 23.499,
      "duration": 0.2092,
      "velocity": 107,
      "chip": "ym2612"
    },
    {
      "channel": 3,
      "note": 75,
      "start": 23.6053,
      "duration": 0.1027,
      "velocity": 112,
      "chip": "ym2612"
    },
    {
      "channel": 0,
      "note": 77,
      "start": 23.7127,
      "duration": 0.4254,
      "velocity": 92,
      "chip": "ym2612"
    },
    {
      "channel": 3,
      "note": 75,
      "start": 23.714,
      "duration": 0.209,
      "velocity": 112,
      "chip": "ym2612"
    },
    {
      "channel": 4,
      "note": 87,
      "start": 23.7145,
      "duration": 0.0203,
      "velocity": 107,
      "chip": "ym2612"
    },
    {
      "channel": 5,
      "note": 84,
      "start": 23.7149,
      "duration": 0.02,
      "velocity": 107,
      "chip": "ym2612"
    },
    {
      "channel": 4,
      "note": 87,
      "start": 23.8203,
      "duration": 0.022,
      "velocity": 107,
      "chip": "ym2612"
    },
    {
      "channel": 5,
      "note": 84,
      "start": 23.821,
      "duration": 0.0213,
      "velocity": 107,
      "chip": "ym2612"
    },
    {
      "channel": 2,
      "note": 55,
      "start": 23.9282,
      "duration": 0.1561,
      "velocity": 99,
      "chip": "ym2612"
    },
    {
      "channel": 3,
      "note": 75,
      "start": 23.9287,
      "duration": 0.1022,
      "velocity": 112,
      "chip": "ym2612"
    },
    {
      "channel": 4,
      "note": 87,
      "start": 23.9291,
      "duration": 0.2093,
      "velocity": 107,
      "chip": "ym2612"
    },
    {
      "channel": 5,
      "note": 84,
      "start": 23.9296,
      "duration": 0.2089,
      "velocity": 107,
      "chip": "ym2612"
    },
    {
      "channel": 1,
      "note": 77,
      "start": 24.0354,
      "duration": 0.4255,
      "velocity": 92,
      "chip": "ym2612"
    },
    {
      "channel": 3,
      "note": 75,
      "start": 24.0359,
      "duration": 0.1023,
      "velocity": 112,
      "chip": "ym2612"
    },
    {
      "channel": 0,
      "note": 82,
      "start": 24.143,
      "duration": 1.7208,
      "velocity": 92,
      "chip": "ym2612"
    },
    {
      "channel": 2,
      "note": 58,
      "start": 24.1434,
      "duration": 0.2367,
      "velocity": 99,
      "chip": "ym2612"
    },
    {
      "channel": 3,
      "note": 75,
      "start": 24.1448,
      "duration": 0.2085,
      "velocity": 112,
      "chip": "ym2612"
    },
    {
      "channel": 4,
      "note": 86,
      "start": 24.1452,
      "duration": 0.2081,
      "velocity": 107,
      "chip": "ym2612"
    },
    {
      "channel": 5,
      "note": 82,
      "start": 24.1457,
      "duration": 0.2078,
      "velocity": 107,
      "chip": "ym2612"
    },
    {
      "channel": 3,
      "note": 75,
      "start": 24.3582,
      "duration": 0.1028,
      "velocity": 112,
      "chip": "ym2612"
    },
    {
      "channel": 4,
      "note": 86,
      "start": 24.3587,
      "duration": 0.0215,
      "velocity": 107,
      "chip": "ym2612"
    },
    {
      "channel": 5,
      "note": 82,
      "start": 24.3591,
      "duration": 0.0215,
      "velocity": 107,
      "chip": "ym2612"
    },
    {
      "channel": 1,
      "note": 82,
      "start": 24.4657,
      "duration": 1.4025,
      "velocity": 92,
      "chip": "ym2612"
    },
    {
      "channel": 2,
      "note": 57,
      "start": 24.4661,
      "duration": 0.2368,
      "velocity": 99,
      "chip": "ym2612"
    },
    {
      "channel": 3,
      "note": 75,
      "start": 24.4666,
      "duration": 0.1017,
      "velocity": 112,
      "chip": "ym2612"
    },
    {
      "channel": 4,
      "note": 86,
      "start": 24.4671,
      "duration": 0.0206,
      "velocity": 107,
      "chip": "ym2612"
    },
    {
      "channel": 5,
      "note": 82,
      "start": 24.4676,
      "duration": 0.0202,
      "velocity": 107,
      "chip": "ym2612"
    },
    {
      "channel": 3,
      "note": 75,
      "start": 24.5741,
      "duration": 0.2095,
      "velocity": 112,
      "chip": "ym2612"
    },
    {
      "channel": 4,
      "note": 86,
      "start": 24.5746,
      "duration": 0.0208,
      "velocity": 107,
      "chip": "ym2612"
    },
    {
      "channel": 5,
      "note": 82,
      "start": 24.575,
      "duration": 0.0205,
      "velocity": 107,
      "chip": "ym2612"
    },
    {
      "channel": 4,
      "note": 86,
      "start": 24.681,
      "duration": 0.022,
      "velocity": 107,
      "chip": "ym2612"
    },
    {
      "channel": 5,
      "note": 82,
      "start": 24.6815,
      "duration": 0.0216,
      "velocity": 107,
      "chip": "ym2612"
    },
    {
      "channel": 2,
      "note": 58,
      "start": 24.7884,
      "duration": 0.1565,
      "velocity": 99,
      "chip": "ym2612"
    },
    {
      "channel": 3,
      "note": 75,
      "start": 24.7889,
      "duration": 0.1021,
      "velocity": 112,
      "chip": "ym2612"
    },
    {
      "channel": 4,
      "note": 86,
      "start": 24.7894,
      "duration": 0.0213,
      "velocity": 107,
      "chip": "ym2612"
    },
    {
      "channel": 5,
      "note": 82,
      "start": 24.7899,
      "duration": 0.021,
      "velocity": 107,
      "chip": "ym2612"
    },
    {
      "channel": 3,
      "note": 75,
      "start": 24.896,
      "duration": 0.1027,
      "velocity": 112,
      "chip": "ym2612"
    },
    {
      "channel": 4,
      "note": 86,
      "start": 24.8964,
      "duration": 0.0217,
      "velocity": 107,
      "chip": "ym2612"
    },
    {
      "channel": 5,
      "note": 82,
      "start": 24.8969,
      "duration": 0.0213,
      "velocity": 107,
      "chip": "ym2612"
    },
    {
      "channel": 3,
      "note": 75,
      "start": 25.0045,
      "duration": 0.2139,
      "velocity": 112,
      "chip": "ym2612"
    },
    {
      "channel": 4,
      "note": 86,
      "start": 25.0049,
      "duration": 0.0207,
      "velocity": 107,
      "chip": "ym2612"
    },
    {
      "channel": 5,
      "note": 82,
      "start": 25.0055,
      "duration": 0.0202,
      "velocity": 107,
      "chip": "ym2612"
    },
    {
      "channel": 4,
      "note": 86,
      "start": 25.1156,
      "duration": 0.022,
      "velocity": 107,
      "chip": "ym2612"
    },
    {
      "channel": 5,
      "note": 82,
      "start": 25.1162,
      "duration": 0.0215,
      "velocity": 107,
      "chip": "ym2612"
    },
    {
      "channel": 2,
      "note": 51,
      "start": 25.2231,
      "duration": 0.1565,
      "velocity": 99,
      "chip": "ym2612"
    },
    {
      "channel": 3,
      "note": 75,
      "start": 25.2236,
      "duration": 0.1023,
      "velocity": 112,
      "chip": "ym2612"
    },
    {
      "channel": 4,
      "note": 86,
      "start": 25.2241,
      "duration": 0.2095,
      "velocity": 107,
      "chip": "ym2612"
    },
    {
      "channel": 5,
      "note": 82,
      "start": 25.2245,
      "duration": 0.2092,
      "velocity": 107,
      "chip": "ym2612"
    },
    {
      "channel": 3,
      "note": 75,
      "start": 25.3311,
      "duration": 0.1024,
      "velocity": 112,
      "chip": "ym2612"
    },
    {
      "channel": 3,
      "note": 75,
      "start": 25.4392,
      "duration": 0.2093,
      "velocity": 112,
      "chip": "ym2612"
    },
    {
      "channel": 4,
      "note": 86,
      "start": 25.4397,
      "duration": 0.0206,
      "velocity": 107,
      "chip": "ym2612"
    },
    {
      "channel": 5,
      "note": 82,
      "start": 25.4401,
      "duration": 0.0205,
      "velocity": 107,
      "chip": "ym2612"
    },
    {
      "channel": 4,
      "note": 86,
      "start": 25.5458,
      "duration": 0.0222,
      "velocity": 107,
      "chip": "ym2612"
    },
    {
      "channel": 5,
      "note": 82,
      "start": 25.5463,
      "duration": 0.0218,
      "velocity": 107,
      "chip": "ym2612"
    },
    {
      "channel": 2,
      "note": 51,
      "start": 25.6535,
      "duration": 0.1564,
      "velocity": 99,
      "chip": "ym2612"
    },
    {
      "channel": 3,
      "note": 75,
      "start": 25.654,
      "duration": 0.1021,
      "velocity": 112,
      "chip": "ym2612"
    },
    {
      "channel": 4,
      "note": 86,
      "start": 25.6545,
      "duration": 0.2095,
      "velocity": 107,
      "chip": "ym2612"
    },
    {
      "channel": 5,
      "note": 82,
      "start": 25.6549,
      "duration": 0.2092,
      "velocity": 107,
      "chip": "ym2612"
    },
    {
      "channel": 3,
      "note": 75,
      "start": 25.7613,
      "duration": 0.1025,
      "velocity": 112,
      "chip": "ym2612"
    },
    {
      "channel": 0,
      "note": 82,
      "start": 25.8687,
      "duration": 0.3178,
      "velocity": 92,
      "chip": "ym2612"
    },
    {
      "channel": 1,
      "note": 77,
      "start": 25.8691,
      "duration": 0.3174,
      "velocity": 92,
      "chip": "ym2612"
    },
    {
      "channel": 2,
      "note": 58,
      "start": 25.8696,
      "duration": 0.2361,
      "velocity": 99,
      "chip": "ym2612"
    },
    {
      "channel": 3,
      "note": 75,
      "start": 25.8701,
      "duration": 0.3166,
      "velocity": 112,
      "chip": "ym2612"
    },
    {
      "channel": 4,
      "note": 86,
      "start": 25.8708,
      "duration": 0.1542,
      "velocity": 107,
      "chip": "ym2612"
    },
    {
      "channel": 5,
      "note": 82,
      "start": 25.8713,
      "duration": 0.1539,
      "velocity": 107,
      "chip": "ym2612"
    },
    {
      "channel": 0,
      "note": 82,
      "start": 26.1912,
      "duration": 0.3178,
      "velocity": 92,
      "chip": "ym2612"
    },
    {
      "channel": 1,
      "note": 77,
      "start": 26.1917,
      "duration": 0.3174,
      "velocity": 92,
      "chip": "ym2612"
    },
    {
      "channel": 2,
      "note": 58,
      "start": 26.1922,
      "duration": 0.2362,
      "velocity": 99,
      "chip": "ym2612"
    },
    {
      "channel": 3,
      "note": 75,
      "start": 26.1927,
      "duration": 0.3166,
      "velocity": 112,
      "chip": "ym2612"
    },
    {
      "channel": 4,
      "note": 86,
      "start": 26.1932,
      "duration": 0.1546,
      "velocity": 107,
      "chip": "ym2612"
    },
    {
      "channel": 5,
      "note": 82,
      "start": 26.1936,
      "duration": 0.1542,
      "velocity": 107,
      "chip": "ym2612"
    },
    {
      "channel": 0,
      "note": 82,
      "start": 26.5139,
      "duration": 0.2102,
      "velocity": 92,
      "chip": "ym2612"
    },
    {
      "channel": 1,
      "note": 77,
      "start": 26.5144,
      "duration": 0.2099,
      "velocity": 92,
      "chip": "ym2612"
    },
    {
      "channel": 2,
      "note": 58,
      "start": 26.5149,
      "duration": 0.1558,
      "velocity": 99,
      "chip": "ym2612"
    },
    {
      "channel": 3,
      "note": 75,
      "start": 26.5154,
      "duration": 0.209,
      "velocity": 112,
      "chip": "ym2612"
    },
    {
      "channel": 4,
      "note": 86,
      "start": 26.5159,
      "duration": 0.2086,
      "velocity": 107,
      "chip": "ym2612"
    },
    {
      "channel": 5,
      "note": 82,
      "start": 26.5163,
      "duration": 0.2083,
      "velocity": 107,
      "chip": "ym2612"
    },
    {
      "channel": 2,
      "note": 58,
      "start": 26.9442,
      "duration": 0.3179,
      "velocity": 99,
      "chip": "ym2612"
    },
    {
      "channel": 2,
      "note": 57,
      "start": 27.3746,
      "duration": 0.1564,
      "velocity": 99,
      "chip": "ym2612"
    },
    {
      "channel": 0,
      "note": 70,
      "start": 27.5908,
      "duration": 0.6393,
      "velocity": 103,
      "chip": "ym2612"
    },
    {
      "channel": 2,
      "note": 55,
      "start": 27.5913,
      "duration": 0.2355,
      "velocity": 99,
      "chip": "ym2612"
    },
    {
      "channel": 3,
      "note": 75,
      "start": 27.5927,
      "duration": 0.2073,
      "velocity": 112,
      "chip": "ym2612"
    },
    {
      "channel": 4,
      "note": 46,
      "start": 27.5943,
      "duration": 3.4373,
      "velocity": 102,
      "chip": "ym2612"
    },
    {
      "channel": 5,
      "note": 43,
      "start": 27.596,
      "duration": 3.4357,
      "velocity": 102,
      "chip": "ym2612"
    },
    {
      "channel": 3,
      "note": 75,
      "start": 27.8048,
      "duration": 0.1028,
      "velocity": 112,
      "chip": "ym2612"
    },
    {
      "channel": 1,
      "note": 70,
      "start": 27.9133,
      "duration": 0.6397,
      "velocity": 103,
      "chip": "ym2612"
    },
    {
      "channel": 2,
      "note": 53,
      "start": 27.9138,
      "duration": 0.2357,
      "velocity": 99,
      "chip": "ym2612"
    },
    {
      "channel": 3,
      "note": 75,
      "start": 27.9143,
      "duration": 0.1009,
      "velocity": 112,
      "chip": "ym2612"
    },
    {
      "channel": 3,
      "note": 75,
      "start": 28.0217,
      "duration": 0.2085,
      "velocity": 112,
      "chip": "ym2612"
    },
    {
      "channel": 0,
      "note": 69,
      "start": 28.235,
      "duration": 0.6405,
      "velocity": 103,
      "chip": "ym2612"
    },
    {
      "channel": 2,
      "note": 55,
      "start": 28.2355,
      "duration": 0.1561,
      "velocity": 99,
      "chip": "ym2612"
    },
    {
      "channel": 3,
      "note": 75,
      "start": 28.236,
      "duration": 0.1017,
      "velocity": 112,
      "chip": "ym2612"
    },
    {
      "channel": 3,
      "note": 75,
      "start": 28.3432,
      "duration": 0.1022,
      "velocity": 112,
      "chip": "ym2612"
    },
    {
      "channel": 3,
      "note": 75,
      "start": 28.4513,
      "duration": 0.2095,
      "velocity": 112,
      "chip": "ym2612"
    },
    {
      "channel": 1,
      "note": 69,
      "start": 28.5578,
      "duration": 0.6405,
      "velocity": 103,
      "chip": "ym2612"
    },
    {
      "channel": 2,
      "note": 51,
      "start": 28.6657,
      "duration": 0.1561,
      "velocity": 99,
      "chip": "ym2612"
    },
    {
      "channel": 3,
      "note": 75,
      "start": 28.6662,
      "duration": 0.1019,
      "velocity": 112,
      "chip": "ym2612"
    },
    {
      "channel": 3,
      "note": 75,
      "start": 28.773,
      "duration": 0.1027,
      "velocity": 112,
      "chip": "ym2612"
    },
    {
      "channel": 0,
      "note": 67,
      "start": 28.8807,
      "duration": 0.8554,
      "velocity": 103,
      "chip": "ym2612"
    },
    {
      "channel": 3,
      "note": 75,
      "start": 28.882,
      "duration": 0.2088,
      "velocity": 112,
      "chip": "ym2612"
    },
    {
      "channel": 2,
      "note": 51,
      "start": 29.0956,
      "duration": 0.1565,
      "velocity": 99,
      "chip": "ym2612"
    },
    {
      "channel": 3,
      "note": 75,
      "start": 29.0961,
      "duration": 0.1023,
      "velocity": 112,
      "chip": "ym2612"
    },
    {
      "channel": 1,
      "note": 67,
      "start": 29.2032,
      "duration": 0.8558,
      "velocity": 103,
      "chip": "ym2612"
    },
    {
      "channel": 3,
      "note": 75,
      "start": 29.2037,
      "duration": 0.1022,
      "velocity": 112,
      "chip": "ym2612"
    },
    {
      "channel": 2,
      "note": 55,
      "start": 29.311,
      "duration": 0.2369,
      "velocity": 99,
      "chip": "ym2612"
    },
    {
      "channel": 3,
      "note": 75,
      "start": 29.3123,
      "duration": 0.2088,
      "velocity": 112,
      "chip": "ym2612"
    },
    {
      "channel": 3,
      "note": 75,
      "start": 29.5259,
      "duration": 0.1027,
      "velocity": 112,
      "chip": "ym2612"
    },
    {
      "channel": 2,
      "note": 53,
      "start": 29.6334,
      "duration": 0.2373,
      "velocity": 99,
      "chip": "ym2612"
    },
    {
      "channel": 3,
      "note": 75,
      "start": 29.6339,
      "duration": 0.1023,
      "velocity": 112,
      "chip": "ym2612"
    },
    {
      "channel": 0,
      "note": 67,
      "start": 29.7412,
      "duration": 0.4296,
      "velocity": 103,
      "chip": "ym2612"
    },
    {
      "channel": 3,
      "note": 75,
      "start": 29.7426,
      "duration": 0.2088,
      "velocity": 112,
      "chip": "ym2612"
    },
    {
      "channel": 2,
      "note": 55,
      "start": 29.9561,
      "duration": 0.1566,
      "velocity": 99,
      "chip": "ym2612"
    },
    {
      "channel": 3,
      "note": 75,
      "start": 29.9566,
      "duration": 0.1024,
      "velocity": 112,
      "chip": "ym2612"
    },
    {
      "channel": 1,
      "note": 67,
      "start": 30.0638,
      "duration": 0.4298,
      "velocity": 103,
      "chip": "ym2612"
    },
    {
      "channel": 3,
      "note": 75,
      "start": 30.0643,
      "duration": 0.1066,
      "velocity": 112,
      "chip": "ym2612"
    },
    {
      "channel": 0,
      "note": 79,
      "start": 30.1757,
      "duration": 0.4254,
      "velocity": 103,
      "chip": "ym2612"
    },
    {
      "channel": 3,
      "note": 75,
      "start": 30.1772,
      "duration": 0.2088,
      "velocity": 112,
      "chip": "ym2612"
    },
    {
      "channel": 2,
      "note": 51,
      "start": 30.3911,
      "duration": 0.1562,
      "velocity": 99,
      "chip": "ym2612"
    },
    {
      "channel": 3,
      "note": 75,
      "start": 30.3917,
      "duration": 0.1022,
      "velocity": 112,
      "chip": "ym2612"
    },
    {
      "channel": 1,
      "note": 79,
      "start": 30.4985,
      "duration": 0.4255,
      "velocity": 103,
      "chip": "ym2612"
    },
    {
      "channel": 3,
      "note": 75,
      "start": 30.4991,
      "duration": 0.1022,
      "velocity": 112,
      "chip": "ym2612"
    },
    {
      "channel": 0,
      "note": 77,
      "start": 30.6061,
      "duration": 0.4254,
      "velocity": 103,
      "chip": "ym2612"
    },
    {
      "channel": 3,
      "note": 75,
      "start": 30.6074,
      "duration": 0.2089,
      "velocity": 112,
      "chip": "ym2612"
    },
    {
      "channel": 2,
      "note": 51,
      "start": 30.8212,
      "duration": 0.1564,
      "velocity": 99,
      "chip": "ym2612"
    },
    {
      "channel": 3,
      "note": 75,
      "start": 30.8218,
      "duration": 0.1022,
      "velocity": 112,
      "chip": "ym2612"
    },
    {
      "channel": 1,
      "note": 77,
      "start": 30.9288,
      "duration": 0.4255,
      "velocity": 103,
      "chip": "ym2612"
    },
    {
      "channel": 3,
      "note": 75,
      "start": 30.9293,
      "duration": 0.1025,
      "velocity": 112,
      "chip": "ym2612"
    },
    {
      "channel": 0,
      "note": 77,
      "start": 31.0364,
      "duration": 0.6404,
      "velocity": 103,
      "chip": "ym2612"
    },
    {
      "channel": 2,
      "note": 60,
      "start": 31.0368,
      "duration": 0.2367,
      "velocity": 99,
      "chip": "ym2612"
    },
    {
      "channel": 3,
      "note": 75,
      "start": 31.0382,
      "duration": 0.2084,
      "velocity": 112,
      "chip": "ym2612"
    },
    {
      "channel": 4,
      "note": 48,
      "start": 31.0387,
      "duration": 3.4396,
      "velocity": 102,
      "chip": "ym2612"
    },
    {
      "channel": 5,
      "note": 43,
      "start": 31.0392,
      "duration": 3.4392,
      "velocity": 102,
      "chip": "ym2612"
    },
    {
      "channel": 3,
      "note": 75,
      "start": 31.2515,
      "duration": 0.1029,
      "velocity": 112,
      "chip": "ym2612"
    },
    {
      "channel": 1,
      "note": 77,
      "start": 31.359,
      "duration": 0.6405,
      "velocity": 103,
      "chip": "ym2612"
    },
    {
      "channel": 2,
      "note": 58,
      "start": 31.3594,
      "duration": 0.2367,
      "velocity": 99,
      "chip": "ym2612"
    },
    {
      "channel": 3,
      "note": 75,
      "start": 31.36,
      "duration": 0.1017,
      "velocity": 112,
      "chip": "ym2612"
    },
    {
      "channel": 3,
      "note": 75,
      "start": 31.4675,
      "duration": 0.2094,
      "velocity": 112,
      "chip": "ym2612"
    },
    {
      "channel": 0,
      "note": 77,
      "start": 31.6818,
      "duration": 0.4253,
      "velocity": 103,
      "chip": "ym2612"
    },
    {
      "channel": 2,
      "note": 60,
      "start": 31.6822,
      "duration": 0.156,
      "velocity": 99,
      "chip": "ym2612"
    },
    {
      "channel": 3,
      "note": 75,
      "start": 31.6827,
      "duration": 0.1016,
      "velocity": 112,
      "chip": "ym2612"
    },
    {
      "channel": 3,
      "note": 75,
      "start": 31.7894,
      "duration": 0.1026,
      "velocity": 112,
      "chip": "ym2612"
    },
    {
      "channel": 3,
      "note": 75,
      "start": 31.8977,
      "duration": 0.2095,
      "velocity": 112,
      "chip": "ym2612"
    },
    {
      "channel": 1,
      "note": 77,
      "start": 32.0044,
      "duration": 0.4254,
      "velocity": 103,
      "chip": "ym2612"
    },
    {
      "channel": 0,
      "note": 76,
      "start": 32.1121,
      "duration": 0.2102,
      "velocity": 103,
      "chip": "ym2612"
    },
    {
      "channel": 2,
      "note": 55,
      "start": 32.1125,
      "duration": 0.156,
      "velocity": 99,
      "chip": "ym2612"
    },
    {
      "channel": 3,
      "note": 75,
      "start": 32.113,
      "duration": 0.1016,
      "velocity": 112,
      "chip": "ym2612"
    },
    {
      "channel": 3,
      "note": 75,
      "start": 32.2196,
      "duration": 0.1029,
      "velocity": 112,
      "chip": "ym2612"
    },
    {
      "channel": 0,
      "note": 75,
      "start": 32.3271,
      "duration": 2.151,
      "velocity": 103,
      "chip": "ym2612"
    },
    {
      "channel": 3,
      "note": 75,
      "start": 32.3284,
      "duration": 0.2089,
      "velocity": 112,
      "chip": "ym2612"
    },
    {
      "channel": 1,
      "note": 76,
      "start": 32.4348,
      "duration": 0.2147,
      "velocity": 103,
      "chip": "ym2612"
    },
    {
      "channel": 2,
      "note": 55,
      "start": 32.5423,
      "duration": 0.161,
      "velocity": 99,
      "chip": "ym2612"
    },
    {
      "channel": 3,
      "note": 75,
      "start": 32.5428,
      "duration": 0.1068,
      "velocity": 112,
      "chip": "ym2612"
    },
    {
      "channel": 1,
      "note": 75,
      "start": 32.6543,
      "duration": 2.1465,
      "velocity": 103,
      "chip": "ym2612"
    },
    {
      "channel": 3,
      "note": 75,
      "start": 32.6548,
      "duration": 0.1024,
      "velocity": 112,
      "chip": "ym2612"
    },
    {
      "channel": 2,
      "note": 60,
      "start": 32.7619,
      "duration": 0.2371,
      "velocity": 99,
      "chip": "ym2612"
    },
    {
      "channel": 3,
      "note": 75,
      "start": 32.7633,
      "duration": 0.2088,
      "velocity": 112,
      "chip": "ym2612"
    },
    {
      "channel": 3,
      "note": 75,
      "start": 32.977,
      "duration": 0.1027,
      "velocity": 112,
      "chip": "ym2612"
    },
    {
      "channel": 2,
      "note": 58,
      "start": 33.0845,
      "duration": 0.2373,
      "velocity": 99,
      "chip": "ym2612"
    },
    {
      "channel": 3,
      "note": 75,
      "start": 33.085,
      "duration": 0.1022,
      "velocity": 112,
      "chip": "ym2612"
    },
    {
      "channel": 3,
      "note": 75,
      "start": 33.193,
      "duration": 0.2095,
      "velocity": 112,
      "chip": "ym2612"
    },
    {
      "channel": 2,
      "note": 60,
      "start": 33.4072,
      "duration": 0.1565,
      "velocity": 99,
      "chip": "ym2612"
    },
    {
      "channel": 3,
      "note": 75,
      "start": 33.4078,
      "duration": 0.1022,
      "velocity": 112,
      "chip": "ym2612"
    },
    {
      "channel": 3,
      "note": 75,
      "start": 33.5149,
      "duration": 0.1028,
      "velocity": 112,
      "chip": "ym2612"
    },
    {
      "channel": 3,
      "note": 75,
      "start": 33.6232,
      "duration": 0.2095,
      "velocity": 112,
      "chip": "ym2612"
    },
    {
      "channel": 2,
      "note": 55,
      "start": 33.8375,
      "duration": 0.1566,
      "velocity": 99,
      "chip": "ym2612"
    },
    {
      "channel": 3,
      "note": 75,
      "start": 33.838,
      "duration": 0.1022,
      "velocity": 112,
      "chip": "ym2612"
    },
    {
      "channel": 3,
      "note": 75,
      "start": 33.9451,
      "duration": 0.1028,
      "velocity": 112,
      "chip": "ym2612"
    },
    {
      "channel": 3,
      "note": 75,
      "start": 34.0535,
      "duration": 0.2094,
      "velocity": 112,
      "chip": "ym2612"
    },
    {
      "channel": 2,
      "note": 55,
      "start": 34.2678,
      "duration": 0.1565,
      "velocity": 99,
      "chip": "ym2612"
    },
    {
      "channel": 3,
      "note": 75,
      "start": 34.2683,
      "duration": 0.1027,
      "velocity": 112,
      "chip": "ym2612"
    },
    {
      "channel": 3,
      "note": 75,
      "start": 34.3755,
      "duration": 0.1027,
      "velocity": 112,
      "chip": "ym2612"
    },
    {
      "channel": 0,
      "note": 69,
      "start": 34.4831,
      "duration": 0.6405,
      "velocity": 103,
      "chip": "ym2612"
    },
    {
      "channel": 2,
      "note": 53,
      "start": 34.4835,
      "duration": 0.2366,
      "velocity": 99,
      "chip": "ym2612"
    },
    {
      "channel": 3,
      "note": 75,
      "start": 34.4849,
      "duration": 0.2083,
      "velocity": 112,
      "chip": "ym2612"
    },
    {
      "channel": 4,
      "note": 45,
      "start": 34.4854,
      "duration": 3.4485,
      "velocity": 102,
      "chip": "ym2612"
    },
    {
      "channel": 5,
      "note": 41,
      "start": 34.4858,
      "duration": 3.4481,
      "velocity": 102,
      "chip": "ym2612"
    },
    {
      "channel": 3,
      "note": 75,
      "start": 34.6981,
      "duration": 0.1028,
      "velocity": 112,
      "chip": "ym2612"
    },
    {
      "channel": 1,
      "note": 69,
      "start": 34.8056,
      "duration": 0.6495,
      "velocity": 103,
      "chip": "ym2612"
    },
    {
      "channel": 2,
      "note": 51,
      "start": 34.8061,
      "duration": 0.2368,
      "velocity": 99,
      "chip": "ym2612"
    },
    {
      "channel": 3,
      "note": 75,
      "start": 34.8066,
      "duration": 0.1018,
      "velocity": 112,
      "chip": "ym2612"
    },
    {
      "channel": 3,
      "note": 75,
      "start": 34.9142,
      "duration": 0.2095,
      "velocity": 112,
      "chip": "ym2612"
    },
    {
      "channel": 0,
      "note": 67,
      "start": 35.1285,
      "duration": 0.6494,
      "velocity": 103,
      "chip": "ym2612"
    },
    {
      "channel": 2,
      "note": 53,
      "start": 35.1289,
      "duration": 0.156,
      "velocity": 99,
      "chip": "ym2612"
    },
    {
      "channel": 3,
      "note": 75,
      "start": 35.1294,
      "duration": 0.1017,
      "velocity": 112,
      "chip": "ym2612"
    },
    {
      "channel": 3,
      "note": 75,
      "start": 35.236,
      "duration": 0.1026,
      "velocity": 112,
      "chip": "ym2612"
    },
    {
      "channel": 3,
      "note": 75,
      "start": 35.3444,
      "duration": 0.2183,
      "velocity": 112,
      "chip": "ym2612"
    },
    {
      "channel": 1,
      "note": 67,
      "start": 35.4601,
      "duration": 0.6407,
      "velocity": 103,
      "chip": "ym2612"
    },
    {
      "channel": 2,
      "note": 48,
      "start": 35.5676,
      "duration": 0.1565,
      "velocity": 99,
      "chip": "ym2612"
    },
    {
      "channel": 3,
      "note": 75,
      "start": 35.5681,
      "duration": 0.1032,
      "velocity": 112,
      "chip": "ym2612"
    },
    {
      "channel": 3,
      "note": 75,
      "start": 35.6753,
      "duration": 0.1028,
      "velocity": 112,
      "chip": "ym2612"
    },
    {
      "channel": 0,
      "note": 65,
      "start": 35.7827,
      "duration": 0.8558,
      "velocity": 103,
      "chip": "ym2612"
    },
    {
      "channel": 3,
      "note": 75,
      "start": 35.7841,
      "duration": 0.2094,
      "velocity": 112,
      "chip": "ym2612"
    },
    {
      "channel": 2,
      "note": 48,
      "start": 35.9979,
      "duration": 0.1568,
      "velocity": 99,
      "chip": "ym2612"
    },
    {
      "channel": 3,
      "note": 75,
      "start": 35.9984,
      "duration": 0.1024,
      "velocity": 112,
      "chip": "ym2612"
    },
    {
      "channel": 1,
      "note": 65,
      "start": 36.1055,
      "duration": 0.8556,
      "velocity": 103,
      "chip": "ym2612"
    },
    {
      "channel": 3,
      "note": 75,
      "start": 36.106,
      "duration": 0.1022,
      "velocity": 112,
      "chip": "ym2612"
    },
    {
      "channel": 2,
      "note": 53,
      "start": 36.213,
      "duration": 0.2372,
      "velocity": 99,
      "chip": "ym2612"
    },
    {
      "channel": 3,
      "note": 75,
      "start": 36.2144,
      "duration": 0.209,
      "velocity": 112,
      "chip": "ym2612"
    },
    {
      "channel": 3,
      "note": 75,
      "start": 36.4282,
      "duration": 0.1027,
      "velocity": 112,
      "chip": "ym2612"
    },
    {
      "channel": 2,
      "note": 51,
      "start": 36.5357,
      "duration": 0.2372,
      "velocity": 99,
      "chip": "ym2612"
    },
    {
      "channel": 3,
      "note": 75,
      "start": 36.5362,
      "duration": 0.1024,
      "velocity": 112,
      "chip": "ym2612"
    },
    {
      "channel": 0,
      "note": 65,
      "start": 36.6433,
      "duration": 0.4255,
      "velocity": 103,
      "chip": "ym2612"
    },
    {
      "channel": 3,
      "note": 75,
      "start": 36.6446,
      "duration": 0.2089,
      "velocity": 112,
      "chip": "ym2612"
    },
    {
      "channel": 2,
      "note": 53,
      "start": 36.8585,
      "duration": 0.1565,
      "velocity": 99,
      "chip": "ym2612"
    },
    {
      "channel": 3,
      "note": 75,
      "start": 36.859,
      "duration": 0.1022,
      "velocity": 112,
      "chip": "ym2612"
    },
    {
      "channel": 1,
      "note": 65,
      "start": 36.9661,
      "duration": 0.4254,
      "velocity": 103,
      "chip": "ym2612"
    },
    {
      "channel": 3,
      "note": 75,
      "start": 36.9666,
      "duration": 0.1023,
      "velocity": 112,
      "chip": "ym2612"
    },
    {
      "channel": 0,
      "note": 77,
      "start": 37.0735,
      "duration": 0.4254,
      "velocity": 103,
      "chip": "ym2612"
    },
    {
      "channel": 3,
      "note": 75,
      "start": 37.0749,
      "duration": 0.2089,
      "velocity": 112,
      "chip": "ym2612"
    },
    {
      "channel": 2,
      "note": 48,
      "start": 37.2886,
      "duration": 0.1566,
      "velocity": 99,
      "chip": "ym2612"
    },
    {
      "channel": 3,
      "note": 75,
      "start": 37.2892,
      "duration": 0.1026,
      "velocity": 112,
      "chip": "ym2612"
    },
    {
      "channel": 1,
      "note": 77,
      "start": 37.3963,
      "duration": 0.4298,
      "velocity": 103,
      "chip": "ym2612"
    },
    {
      "channel": 3,
      "note": 75,
      "start": 37.3969,
      "duration": 0.1022,
      "velocity": 112,
      "chip": "ym2612"
    },
    {
      "channel": 0,
      "note": 72,
      "start": 37.5038,
      "duration": 0.4299,
      "velocity": 103,
      "chip": "ym2612"
    },
    {
      "channel": 3,
      "note": 75,
      "start": 37.5053,
      "duration": 0.2134,
      "velocity": 112,
      "chip": "ym2612"
    },
    {
      "channel": 2,
      "note": 48,
      "start": 37.7234,
      "duration": 0.1565,
      "velocity": 99,
      "chip": "ym2612"
    },
    {
      "channel": 3,
      "note": 75,
      "start": 37.7239,
      "duration": 0.1023,
      "velocity": 112,
      "chip": "ym2612"
    },
    {
      "channel": 1,
      "note": 72,
      "start": 37.8312,
      "duration": 0.4251,
      "velocity": 103,
      "chip": "ym2612"
    },
    {
      "channel": 3,
      "note": 75,
      "start": 37.8317,
      "duration": 0.102,
      "velocity": 112,
      "chip": "ym2612"
    },
    {
      "channel": 0,
      "note": 75,
      "start": 37.9386,
      "duration": 0.6405,
      "velocity": 103,
      "chip": "ym2612"
    },
    {
      "channel": 2,
      "note": 58,
      "start": 37.939,
      "duration": 0.2367,
      "velocity": 99,
      "chip": "ym2612"
    },
    {
      "channel": 3,
      "note": 75,
      "start": 37.9406,
      "duration": 0.2082,
      "velocity": 112,
      "chip": "ym2612"
    },
    {
      "channel": 4,
      "note": 46,
      "start": 37.9411,
      "duration": 3.4354,
      "velocity": 102,
      "chip": "ym2612"
    },
    {
      "channel": 5,
      "note": 41,
      "start": 37.9416,
      "duration": 3.435,
      "velocity": 102,
      "chip": "ym2612"
    },
    {
      "channel": 3,
      "note": 75,
      "start": 38.1537,
      "duration": 0.1028,
      "velocity": 112,
      "chip": "ym2612"
    },
    {
      "channel": 1,
      "note": 75,
      "start": 38.2614,
      "duration": 0.6405,
      "velocity": 103,
      "chip": "ym2612"
    },
    {
      "channel": 2,
      "note": 57,
      "start": 38.2618,
      "duration": 0.2366,
      "velocity": 99,
      "chip": "ym2612"
    },
    {
      "channel": 3,
      "note": 75,
      "start": 38.2623,
      "duration": 0.1016,
      "velocity": 112,
      "chip": "ym2612"
    },
    {
      "channel": 3,
      "note": 75,
      "start": 38.3698,
      "duration": 0.2094,
      "velocity": 112,
      "chip": "ym2612"
    },
    {
      "channel": 0,
      "note": 74,
      "start": 38.5841,
      "duration": 2.7921,
      "velocity": 103,
      "chip": "ym2612"
    },
    {
      "channel": 2,
      "note": 58,
      "start": 38.5845,
      "duration": 0.1562,
      "velocity": 99,
      "chip": "ym2612"
    },
    {
      "channel": 3,
      "note": 75,
      "start": 38.585,
      "duration": 0.1017,
      "velocity": 112,
      "chip": "ym2612"
    },
    {
      "channel": 3,
      "note": 75,
      "start": 38.6916,
      "duration": 0.1027,
      "velocity": 112,
      "chip": "ym2612"
    },
    {
      "channel": 3,
      "note": 75,
      "start": 38.8001,
      "duration": 0.2093,
      "velocity": 112,
      "chip": "ym2612"
    },
    {
      "channel": 1,
      "note": 74,
      "start": 38.9067,
      "duration": 2.4696,
      "velocity": 103,
      "chip": "ym2612"
    },
    {
      "channel": 2,
      "note": 53,
      "start": 39.0142,
      "duration": 0.1566,
      "velocity": 99,
      "chip": "ym2612"
    },
    {
      "channel": 3,
      "note": 75,
      "start": 39.0147,
      "duration": 0.1022,
      "velocity": 112,
      "chip": "ym2612"
    },
    {
      "channel": 3,
      "note": 75,
      "start": 39.1219,
      "duration": 0.1028,
      "velocity": 112,
      "chip": "ym2612"
    },
    {
      "channel": 3,
      "note": 75,
      "start": 39.2302,
      "duration": 0.2094,
      "velocity": 112,
      "chip": "ym2612"
    },
    {
      "channel": 2,
      "note": 53,
      "start": 39.4445,
      "duration": 0.1565,
      "velocity": 99,
      "chip": "ym2612"
    },
    {
      "channel": 3,
      "note": 75,
      "start": 39.445,
      "duration": 0.1022,
      "velocity": 112,
      "chip": "ym2612"
    },
    {
      "channel": 3,
      "note": 75,
      "start": 39.5522,
      "duration": 0.1028,
      "velocity": 112,
      "chip": "ym2612"
    },
    {
      "channel": 2,
      "note": 58,
      "start": 39.6597,
      "duration": 0.2371,
      "velocity": 99,
      "chip": "ym2612"
    },
    {
      "channel": 3,
      "note": 75,
      "start": 39.6613,
      "duration": 0.2086,
      "velocity": 112,
      "chip": "ym2612"
    },
    {
      "channel": 3,
      "note": 75,
      "start": 39.8748,
      "duration": 0.1027,
      "velocity": 112,
      "chip": "ym2612"
    },
    {
      "channel": 2,
      "note": 70,
      "start": 39.9823,
      "duration": 0.2373,
      "velocity": 99,
      "chip": "ym2612"
    },
    {
      "channel": 3,
      "note": 75,
      "start": 39.9828,
      "duration": 0.1023,
      "velocity": 112,
      "chip": "ym2612"
    },
    {
      "channel": 3,
      "note": 75,
      "start": 40.0911,
      "duration": 0.2091,
      "velocity": 112,
      "chip": "ym2612"
    },
    {
      "channel": 2,
      "note": 58,
      "start": 40.305,
      "duration": 0.1566,
      "velocity": 99,
      "chip": "ym2612"
    },
    {
      "channel": 3,
      "note": 75,
      "start": 40.3055,
      "duration": 0.1022,
      "velocity": 112,
      "chip": "ym2612"
    },
    {
      "channel": 3,
      "note": 75,
      "start": 40.4127,
      "duration": 0.1026,
      "velocity": 112,
      "chip": "ym2612"
    },
    {
      "channel": 2,
      "note": 57,
      "start": 40.5202,
      "duration": 0.2372,
      "velocity": 99,
      "chip": "ym2612"
    },
    {
      "channel": 3,
      "note": 75,
      "start": 40.5218,
      "duration": 0.209,
      "velocity": 112,
      "chip": "ym2612"
    },
    {
      "channel": 3,
      "note": 75,
      "start": 40.7355,
      "duration": 0.1026,
      "velocity": 112,
      "chip": "ym2612"
    },
    {
      "channel": 2,
      "note": 69,
      "start": 40.8429,
      "duration": 0.2371,
      "velocity": 99,
      "chip": "ym2612"
    },
    {
      "channel": 3,
      "note": 75,
      "start": 40.8435,
      "duration": 0.1021,
      "velocity": 112,
      "chip": "ym2612"
    },
    {
      "channel": 3,
      "note": 75,
      "start": 40.9516,
      "duration": 0.2092,
      "velocity": 112,
      "chip": "ym2612"
    },
    {
      "channel": 2,
      "note": 57,
      "start": 41.1656,
      "duration": 0.1566,
      "velocity": 99,
      "chip": "ym2612"
    },
    {
      "channel": 3,
      "note": 75,
      "start": 41.1661,
      "duration": 0.1023,
      "velocity": 112,
      "chip": "ym2612"
    },
    {
      "channel": 3,
      "note": 75,
      "start": 41.2732,
      "duration": 0.1032,
      "velocity": 112,
      "chip": "ym2612"
    },
    {
      "channel": 0,
      "note": 79,
      "start": 41.381,
      "duration": 1.0706,
      "velocity": 103,
      "chip": "ym2612"
    },
    {
      "channel": 2,
      "note": 55,
      "start": 41.3815,
      "duration": 0.2366,
      "velocity": 99,
      "chip": "ym2612"
    },
    {
      "channel": 3,
      "note": 75,
      "start": 41.3828,
      "duration": 0.2083,
      "velocity": 112,
      "chip": "ym2612"
    },
    {
      "channel": 4,
      "note": 46,
      "start": 41.3833,
      "duration": 3.4394,
      "velocity": 102,
      "chip": "ym2612"
    },
    {
      "channel": 5,
      "note": 43,
      "start": 41.3838,
      "duration": 3.439,
      "velocity": 102,
      "chip": "ym2612"
    },
    {
      "channel": 3,
      "note": 75,
      "start": 41.5959,
      "duration": 0.1029,
      "velocity": 112,
      "chip": "ym2612"
    },
    {
      "channel": 1,
      "note": 79,
      "start": 41.7034,
      "duration": 1.0708,
      "velocity": 103,
      "chip": "ym2612"
    },
    {
      "channel": 2,
      "note": 53,
      "start": 41.7039,
      "duration": 0.2372,
      "velocity": 99,
      "chip": "ym2612"
    },
    {
      "channel": 3,
      "note": 75,
      "start": 41.7044,
      "duration": 0.1018,
      "velocity": 112,
      "chip": "ym2612"
    },
    {
      "channel": 3,
      "note": 75,
      "start": 41.8121,
      "duration": 0.2092,
      "velocity": 112,
      "chip": "ym2612"
    },
    {
      "channel": 2,
      "note": 55,
      "start": 42.0261,
      "duration": 0.1565,
      "velocity": 99,
      "chip": "ym2612"
    },
    {
      "channel": 3,
      "note": 75,
      "start": 42.0266,
      "duration": 0.1023,
      "velocity": 112,
      "chip": "ym2612"
    },
    {
      "channel": 3,
      "note": 75,
      "start": 42.1337,
      "duration": 0.1027,
      "velocity": 112,
      "chip": "ym2612"
    },
    {
      "channel": 3,
      "note": 75,
      "start": 42.2422,
      "duration": 0.2094,
      "velocity": 112,
      "chip": "ym2612"
    },
    {
      "channel": 0,
      "note": 74,
      "start": 42.4564,
      "duration": 0.2103,
      "velocity": 103,
      "chip": "ym2612"
    },
    {
      "channel": 2,
      "note": 51,
      "start": 42.4569,
      "duration": 0.1561,
      "velocity": 99,
      "chip": "ym2612"
    },
    {
      "channel": 3,
      "note": 75,
      "start": 42.4574,
      "duration": 0.1017,
      "velocity": 112,
      "chip": "ym2612"
    },
    {
      "channel": 3,
      "note": 75,
      "start": 42.564,
      "duration": 0.1029,
      "velocity": 112,
      "chip": "ym2612"
    },
    {
      "channel": 0,
      "note": 75,
      "start": 42.6716,
      "duration": 0.2149,
      "velocity": 103,
      "chip": "ym2612"
    },
    {
      "channel": 3,
      "note": 75,
      "start": 42.6729,
      "duration": 0.2136,
      "velocity": 112,
      "chip": "ym2612"
    },
    {
      "channel": 1,
      "note": 74,
      "start": 42.7792,
      "duration": 0.2147,
      "velocity": 103,
      "chip": "ym2612"
    },
    {
      "channel": 0,
      "note": 77,
      "start": 42.8912,
      "duration": 0.2102,
      "velocity": 103,
      "chip": "ym2612"
    },
    {
      "channel": 2,
      "note": 51,
      "start": 42.8917,
      "duration": 0.156,
      "velocity": 99,
      "chip": "ym2612"
    },
    {
      "channel": 3,
      "note": 75,
      "start": 42.8922,
      "duration": 0.1018,
      "velocity": 112,
      "chip": "ym2612"
    },
    {
      "channel": 1,
      "note": 75,
      "start": 42.9995,
      "duration": 0.2095,
      "velocity": 103,
      "chip": "ym2612"
    },
    {
      "channel": 3,
      "note": 75,
      "start": 43.0,
      "duration": 0.1017,
      "velocity": 112,
      "chip": "ym2612"
    },
    {
      "channel": 0,
      "note": 79,
      "start": 43.1063,
      "duration": 0.4254,
      "velocity": 103,
      "chip": "ym2612"
    },
    {
      "channel": 2,
      "note": 55,
      "start": 43.1068,
      "duration": 0.2367,
      "velocity": 99,
      "chip": "ym2612"
    },
    {
      "channel": 3,
      "note": 75,
      "start": 43.1081,
      "duration": 0.2085,
      "velocity": 112,
      "chip": "ym2612"
    },
    {
      "channel": 1,
      "note": 77,
      "start": 43.2139,
      "duration": 0.2102,
      "velocity": 103,
      "chip": "ym2612"
    },
    {
      "channel": 3,
      "note": 75,
      "start": 43.3221,
      "duration": 0.1022,
      "velocity": 112,
      "chip": "ym2612"
    },
    {
      "channel": 1,
      "note": 79,
      "start": 43.429,
      "duration": 0.4255,
      "velocity": 103,
      "chip": "ym2612"
    },
    {
      "channel": 2,
      "note": 53,
      "start": 43.4295,
      "duration": 0.2367,
      "velocity": 99,
      "chip": "ym2612"
    },
    {
      "channel": 3,
      "note": 75,
      "start": 43.43,
      "duration": 0.1019,
      "velocity": 112,
      "chip": "ym2612"
    },
    {
      "channel": 0,
      "note": 79,
      "start": 43.5367,
      "duration": 0.4253,
      "velocity": 103,
      "chip": "ym2612"
    },
    {
      "channel": 3,
      "note": 75,
      "start": 43.538,
      "duration": 0.2089,
      "velocity": 112,
      "chip": "ym2612"
    },
    {
      "channel": 2,
      "note": 55,
      "start": 43.7517,
      "duration": 0.1565,
      "velocity": 99,
      "chip": "ym2612"
    },
    {
      "channel": 3,
      "note": 75,
      "start": 43.7522,
      "duration": 0.1024,
      "velocity": 112,
      "chip": "ym2612"
    },
    {
      "channel": 1,
      "note": 79,
      "start": 43.8593,
      "duration": 0.4254,
      "velocity": 103,
      "chip": "ym2612"
    },
    {
      "channel": 3,
      "note": 75,
      "start": 43.8598,
      "duration": 0.1022,
      "velocity": 112,
      "chip": "ym2612"
    },
    {
      "channel": 0,
      "note": 79,
      "start": 43.9671,
      "duration": 0.4251,
      "velocity": 103,
      "chip": "ym2612"
    },
    {
      "channel": 3,
      "note": 75,
      "start": 43.9685,
      "duration": 0.2086,
      "velocity": 112,
      "chip": "ym2612"
    },
    {
      "channel": 2,
      "note": 51,
      "start": 44.182,
      "duration": 0.1565,
      "velocity": 99,
      "chip": "ym2612"
    },
    {
      "channel": 3,
      "note": 75,
      "start": 44.1825,
      "duration": 0.1025,
      "velocity": 112,
      "chip": "ym2612"
    },
    {
      "channel": 1,
      "note": 79,
      "start": 44.2898,
      "duration": 0.4251,
      "velocity": 103,
      "chip": "ym2612"
    },
    {
      "channel": 3,
      "note": 75,
      "start": 44.2903,
      "duration": 0.102,
      "velocity": 112,
      "chip": "ym2612"
    },
    {
      "channel": 0,
      "note": 77,
      "start": 44.3972,
      "duration": 0.4254,
      "velocity": 103,
      "chip": "ym2612"
    },
    {
      "channel": 3,
      "note": 75,
      "start": 44.3986,
      "duration": 0.2088,
      "velocity": 112,
      "chip": "ym2612"
    },
    {
      "channel": 2,
      "note": 51,
      "start": 44.6122,
      "duration": 0.1565,
      "velocity": 99,
      "chip": "ym2612"
    },
    {
      "channel": 3,
      "note": 75,
      "start": 44.6127,
      "duration": 0.1023,
      "velocity": 112,
      "chip": "ym2612"
    },
    {
      "channel": 1,
      "note": 77,
      "start": 44.7199,
      "duration": 0.4254,
      "velocity": 103,
      "chip": "ym2612"
    },
    {
      "channel": 3,
      "note": 75,
      "start": 44.7207,
      "duration": 0.1022,
      "velocity": 112,
      "chip": "ym2612"
    },
    {
      "channel": 0,
      "note": 77,
      "start": 44.8274,
      "duration": 0.8602,
      "velocity": 103,
      "chip": "ym2612"
    },
    {
      "channel": 2,
      "note": 60,
      "start": 44.8278,
      "duration": 0.2368,
      "velocity": 99,
      "chip": "ym2612"
    },
    {
      "channel": 3,
      "note": 75,
      "start": 44.8292,
      "duration": 0.2086,
      "velocity": 112,
      "chip": "ym2612"
    },
    {
      "channel": 4,
      "note": 48,
      "start": 44.8297,
      "duration": 3.4442,
      "velocity": 102,
      "chip": "ym2612"
    },
    {
      "channel": 5,
      "note": 43,
      "start": 44.8302,
      "duration": 3.4438,
      "velocity": 102,
      "chip": "ym2612"
    },
    {
      "channel": 3,
      "note": 75,
      "start": 45.0427,
      "duration": 0.1027,
      "velocity": 112,
      "chip": "ym2612"
    },
    {
      "channel": 1,
      "note": 77,
      "start": 45.1501,
      "duration": 0.8602,
      "velocity": 103,
      "chip": "ym2612"
    },
    {
      "channel": 2,
      "note": 58,
      "start": 45.1508,
      "duration": 0.241,
      "velocity": 99,
      "chip": "ym2612"
    },
    {
      "channel": 3,
      "note": 75,
      "start": 45.1513,
      "duration": 0.106,
      "velocity": 112,
      "chip": "ym2612"
    },
    {
      "channel": 3,
      "note": 75,
      "start": 45.263,
      "duration": 0.2094,
      "velocity": 112,
      "chip": "ym2612"
    },
    {
      "channel": 2,
      "note": 60,
      "start": 45.4773,
      "duration": 0.1566,
      "velocity": 99,
      "chip": "ym2612"
    },
    {
      "channel": 3,
      "note": 75,
      "start": 45.4779,
      "duration": 0.1021,
      "velocity": 112,
      "chip": "ym2612"
    },
    {
      "channel": 3,
      "note": 75,
      "start": 45.585,
      "duration": 0.1027,
      "velocity": 112,
      "chip": "ym2612"
    },
    {
      "channel": 0,
      "note": 75,
      "start": 45.6924,
      "duration": 0.8557,
      "velocity": 103,
      "chip": "ym2612"
    },
    {
      "channel": 3,
      "note": 75,
      "start": 45.6938,
      "duration": 0.2089,
      "velocity": 112,
      "chip": "ym2612"
    },
    {
      "channel": 2,
      "note": 55,
      "start": 45.9075,
      "duration": 0.1566,
      "velocity": 99,
      "chip": "ym2612"
    },
    {
      "channel": 3,
      "note": 75,
      "start": 45.908,
      "duration": 0.1023,
      "velocity": 112,
      "chip": "ym2612"
    },
    {
      "channel": 1,
      "note": 75,
      "start": 46.0151,
      "duration": 0.8557,
      "velocity": 103,
      "chip": "ym2612"
    },
    {
      "channel": 3,
      "note": 75,
      "start": 46.0157,
      "duration": 0.1022,
      "velocity": 112,
      "chip": "ym2612"
    },
    {
      "channel": 3,
      "note": 75,
      "start": 46.1237,
      "duration": 0.2094,
      "velocity": 112,
      "chip": "ym2612"
    },
    {
      "channel": 2,
      "note": 55,
      "start": 46.3378,
      "duration": 0.1565,
      "velocity": 99,
      "chip": "ym2612"
    },
    {
      "channel": 3,
      "note": 75,
      "start": 46.3383,
      "duration": 0.1024,
      "velocity": 112,
      "chip": "ym2612"
    },
    {
      "channel": 3,
      "note": 75,
      "start": 46.4455,
      "duration": 0.1027,
      "velocity": 112,
      "chip": "ym2612"
    },
    {
      "channel": 0,
      "note": 74,
      "start": 46.553,
      "duration": 0.8556,
      "velocity": 103,
      "chip": "ym2612"
    },
    {
      "channel": 2,
      "note": 60,
      "start": 46.5534,
      "duration": 0.2368,
      "velocity": 99,
      "chip": "ym2612"
    },
    {
      "channel": 3,
      "note": 75,
      "start": 46.5548,
      "duration": 0.2084,
      "velocity": 112,
      "chip": "ym2612"
    },
    {
      "channel": 3,
      "note": 75,
      "start": 46.7682,
      "duration": 0.1027,
      "velocity": 112,
      "chip": "ym2612"
    },
    {
      "channel": 1,
      "note": 74,
      "start": 46.8758,
      "duration": 0.8609,
      "velocity": 103,
      "chip": "ym2612"
    },
    {
      "channel": 2,
      "note": 58,
      "start": 46.8762,
      "duration": 0.2366,
      "velocity": 99,
      "chip": "ym2612"
    },
    {
      "channel": 3,
      "note": 75,
      "start": 46.8767,
      "duration": 0.1016,
      "velocity": 112,
      "chip": "ym2612"
    },
    {
      "channel": 3,
      "note": 75,
      "start": 46.9841,
      "duration": 0.2095,
      "velocity": 112,
      "chip": "ym2612"
    },
    {
      "channel": 2,
      "note": 60,
      "start": 47.1983,
      "duration": 0.1565,
      "velocity": 99,
      "chip": "ym2612"
    },
    {
      "channel": 3,
      "note": 75,
      "start": 47.1988,
      "duration": 0.1023,
      "velocity": 112,
      "chip": "ym2612"
    },
    {
      "channel": 3,
      "note": 75,
      "start": 47.306,
      "duration": 0.1028,
      "velocity": 112,
      "chip": "ym2612"
    },
    {
      "channel": 0,
      "note": 72,
      "start": 47.4136,
      "duration": 0.2102,
      "velocity": 103,
      "chip": "ym2612"
    },
    {
      "channel": 3,
      "note": 75,
      "start": 47.415,
      "duration": 0.209,
      "velocity": 112,
      "chip": "ym2612"
    },
    {
      "channel": 0,
      "note": 63,
      "start": 47.6286,
      "duration": 0.2148,
      "velocity": 103,
      "chip": "ym2612"
    },
    {
      "channel": 2,
      "note": 55,
      "start": 47.6291,
      "duration": 0.1606,
      "velocity": 99,
      "chip": "ym2612"
    },
    {
      "channel": 3,
      "note": 75,
      "start": 47.6296,
      "duration": 0.1073,
      "velocity": 112,
      "chip": "ym2612"
    },
    {
      "channel": 1,
      "note": 72,
      "start": 47.7411,
      "duration": 0.2099,
      "velocity": 103,
      "chip": "ym2612"
    },
    {
      "channel": 3,
      "note": 75,
      "start": 47.7416,
      "duration": 0.102,
      "velocity": 112,
      "chip": "ym2612"
    },
    {
      "channel": 0,
      "note": 65,
      "start": 47.8483,
      "duration": 0.2109,
      "velocity": 103,
      "chip": "ym2612"
    },
    {
      "channel": 3,
      "note": 75,
      "start": 47.8497,
      "duration": 0.2097,
      "velocity": 112,
      "chip": "ym2612"
    },
    {
      "channel": 1,
      "note": 63,
      "start": 47.9559,
      "duration": 0.2102,
      "velocity": 103,
      "chip": "ym2612"
    },
    {
      "channel": 0,
      "note": 67,
      "start": 48.0635,
      "duration": 0.2102,
      "velocity": 103,
      "chip": "ym2612"
    },
    {
      "channel": 2,
      "note": 55,
      "start": 48.0639,
      "duration": 0.1569,
      "velocity": 99,
      "chip": "ym2612"
    },
    {
      "channel": 3,
      "note": 75,
      "start": 48.0644,
      "duration": 0.1017,
      "velocity": 112,
      "chip": "ym2612"
    },
    {
      "channel": 1,
      "note": 65,
      "start": 48.1712,
      "duration": 0.2102,
      "velocity": 103,
      "chip": "ym2612"
    },
    {
      "channel": 3,
      "note": 75,
      "start": 48.1717,
      "duration": 0.102,
      "velocity": 112,
      "chip": "ym2612"
    },
    {
      "channel": 0,
      "note": 69,
      "start": 48.2785,
      "duration": 0.6406,
      "velocity": 103,
      "chip": "ym2612"
    },
    {
      "channel": 2,
      "note": 53,
      "start": 48.279,
      "duration": 0.2368,
      "velocity": 99,
      "chip": "ym2612"
    },
    {
      "channel": 3,
      "note": 75,
      "start": 48.2807,
      "duration": 0.2081,
      "velocity": 112,
      "chip": "ym2612"
    },
    {
      "channel": 4,
      "note": 45,
      "start": 48.2812,
      "duration": 1.7138,
      "velocity": 102,
      "chip": "ym2612"
    },
    {
      "channel": 5,
      "note": 41,
      "start": 48.2817,
      "duration": 1.7134,
      "velocity": 102,
      "chip": "ym2612"
    },
    {
      "channel": 1,
      "note": 67,
      "start": 48.3861,
      "duration": 0.2103,
      "velocity": 103,
      "chip": "ym2612"
    },
    {
      "channel": 3,
      "note": 75,
      "start": 48.4938,
      "duration": 0.1027,
      "velocity": 112,
      "chip": "ym2612"
    },
    {
      "channel": 1,
      "note": 69,
      "start": 48.6012,
      "duration": 0.6407,
      "velocity": 103,
      "chip": "ym2612"
    },
    {
      "channel": 2,
      "note": 51,
      "start": 48.6017,
      "duration": 0.2367,
      "velocity": 99,
      "chip": "ym2612"
    },
    {
      "channel": 3,
      "note": 75,
      "start": 48.6022,
      "duration": 0.1018,
      "velocity": 112,
      "chip": "ym2612"
    },
    {
      "channel": 3,
      "note": 75,
      "start": 48.7097,
      "duration": 0.2096,
      "velocity": 112,
      "chip": "ym2612"
    },
    {
      "channel": 0,
      "note": 67,
      "start": 48.9239,
      "duration": 0.6405,
      "velocity": 103,
      "chip": "ym2612"
    },
    {
      "channel": 2,
      "note": 53,
      "start": 48.9244,
      "duration": 0.1563,
      "velocity": 99,
      "chip": "ym2612"
    },
    {
      "channel": 3,
      "note": 75,
      "start": 48.9249,
      "duration": 0.1021,
      "velocity": 112,
      "chip": "ym2612"
    },
    {
      "channel": 3,
      "note": 75,
      "start": 49.0316,
      "duration": 0.1026,
      "velocity": 112,
      "chip": "ym2612"
    },
    {
      "channel": 3,
      "note": 75,
      "start": 49.14,
      "duration": 0.2095,
      "velocity": 112,
      "chip": "ym2612"
    },
    {
      "channel": 1,
      "note": 67,
      "start": 49.2466,
      "duration": 0.6405,
      "velocity": 103,
      "chip": "ym2612"
    },
    {
      "channel": 2,
      "note": 48,
      "start": 49.3542,
      "duration": 0.1571,
      "velocity": 99,
      "chip": "ym2612"
    },
    {
      "channel": 3,
      "note": 75,
      "start": 49.3547,
      "duration": 0.1022,
      "velocity": 112,
      "chip": "ym2612"
    },
    {
      "channel": 3,
      "note": 75,
      "start": 49.4619,
      "duration": 0.1027,
      "velocity": 112,
      "chip": "ym2612"
    },
    {
      "channel": 0,
      "note": 69,
      "start": 49.5694,
      "duration": 0.4254,
      "velocity": 103,
      "chip": "ym2612"
    },
    {
      "channel": 3,
      "note": 75,
      "start": 49.5711,
      "duration": 0.2086,
      "velocity": 112,
      "chip": "ym2612"
    },
    {
      "channel": 2,
      "note": 48,
      "start": 49.7845,
      "duration": 0.1565,
      "velocity": 99,
      "chip": "ym2612"
    },
    {
      "channel": 3,
      "note": 75,
      "start": 49.785,
      "duration": 0.1023,
      "velocity": 112,
      "chip": "ym2612"
    },
    {
      "channel": 1,
      "note": 69,
      "start": 49.8921,
      "duration": 0.4299,
      "velocity": 103,
      "chip": "ym2612"
    },
    {
      "channel": 3,
      "note": 75,
      "start": 49.8926,
      "duration": 0.1022,
      "velocity": 112,
      "chip": "ym2612"
    },
    {
      "channel": 0,
      "note": 70,
      "start": 49.9997,
      "duration": 0.645,
      "velocity": 103,
      "chip": "ym2612"
    },
    {
      "channel": 2,
      "note": 54,
      "start": 50.0001,
      "duration": 0.2411,
      "velocity": 99,
      "chip": "ym2612"
    },
    {
      "channel": 3,
      "note": 75,
      "start": 50.0017,
      "duration": 0.2127,
      "velocity": 112,
      "chip": "ym2612"
    },
    {
      "channel": 4,
      "note": 46,
      "start": 50.0022,
      "duration": 1.7185,
      "velocity": 102,
      "chip": "ym2612"
    },
    {
      "channel": 5,
      "note": 42,
      "start": 50.0027,
      "duration": 1.7182,
      "velocity": 102,
      "chip": "ym2612"
    },
    {
      "channel": 3,
      "note": 75,
      "start": 50.2194,
      "duration": 0.1027,
      "velocity": 112,
      "chip": "ym2612"
    },
    {
      "channel": 1,
      "note": 70,
      "start": 50.3269,
      "duration": 0.6405,
      "velocity": 103,
      "chip": "ym2612"
    },
    {
      "channel": 2,
      "note": 51,
      "start": 50.3273,
      "duration": 0.2366,
      "velocity": 99,
      "chip": "ym2612"
    },
    {
      "channel": 3,
      "note": 75,
      "start": 50.3278,
      "duration": 0.1017,
      "velocity": 112,
      "chip": "ym2612"
    },
    {
      "channel": 3,
      "note": 75,
      "start": 50.4352,
      "duration": 0.2095,
      "velocity": 112,
      "chip": "ym2612"
    },
    {
      "channel": 0,
      "note": 69,
      "start": 50.6495,
      "duration": 0.6407,
      "velocity": 103,
      "chip": "ym2612"
    },
    {
      "channel": 2,
      "note": 54,
      "start": 50.65,
      "duration": 0.156,
      "velocity": 99,
      "chip": "ym2612"
    },
    {
      "channel": 3,
      "note": 75,
      "start": 50.6507,
      "duration": 0.1016,
      "velocity": 112,
      "chip": "ym2612"
    },
    {
      "channel": 3,
      "note": 75,
      "start": 50.7571,
      "duration": 0.1027,
      "velocity": 112,
      "chip": "ym2612"
    },
    {
      "channel": 3,
      "note": 75,
      "start": 50.8655,
      "duration": 0.2094,
      "velocity": 112,
      "chip": "ym2612"
    },
    {
      "channel": 1,
      "note": 69,
      "start": 50.9722,
      "duration": 0.6406,
      "velocity": 103,
      "chip": "ym2612"
    },
    {
      "channel": 2,
      "note": 51,
      "start": 51.0798,
      "duration": 0.1566,
      "velocity": 99,
      "chip": "ym2612"
    },
    {
      "channel": 3,
      "note": 75,
      "start": 51.0803,
      "duration": 0.1023,
      "velocity": 112,
      "chip": "ym2612"
    },
    {
      "channel": 3,
      "note": 75,
      "start": 51.1874,
      "duration": 0.1029,
      "velocity": 112,
      "chip": "ym2612"
    },
    {
      "channel": 0,
      "note": 70,
      "start": 51.2949,
      "duration": 0.4254,
      "velocity": 103,
      "chip": "ym2612"
    },
    {
      "channel": 3,
      "note": 75,
      "start": 51.2963,
      "duration": 0.2089,
      "velocity": 112,
      "chip": "ym2612"
    },
    {
      "channel": 2,
      "note": 51,
      "start": 51.51,
      "duration": 0.1565,
      "velocity": 99,
      "chip": "ym2612"
    },
    {
      "channel": 3,
      "note": 75,
      "start": 51.5108,
      "duration": 0.1022,
      "velocity": 112,
      "chip": "ym2612"
    },
    {
      "channel": 1,
      "note": 70,
      "start": 51.6176,
      "duration": 0.4254,
      "velocity": 103,
      "chip": "ym2612"
    },
    {
      "channel": 3,
      "note": 75,
      "start": 51.6181,
      "duration": 0.1025,
      "velocity": 112,
      "chip": "ym2612"
    },
    {
      "channel": 0,
      "note": 71,
      "start": 51.7252,
      "duration": 0.6405,
      "velocity": 103,
      "chip": "ym2612"
    },
    {
      "channel": 2,
      "note": 55,
      "start": 51.7256,
      "duration": 0.2367,
      "velocity": 99,
      "chip": "ym2612"
    },
    {
      "channel": 3,
      "note": 75,
      "start": 51.727,
      "duration": 0.2085,
      "velocity": 112,
      "chip": "ym2612"
    },
    {
      "channel": 4,
      "note": 47,
      "start": 51.7276,
      "duration": 1.714,
      "velocity": 102,
      "chip": "ym2612"
    },
    {
      "channel": 5,
      "note": 43,
      "start": 51.7281,
      "duration": 1.7136,
      "velocity": 102,
      "chip": "ym2612"
    },
    {
      "channel": 3,
      "note": 75,
      "start": 51.9408,
      "duration": 0.1024,
      "velocity": 112,
      "chip": "ym2612"
    },
    {
      "channel": 1,
      "note": 71,
      "start": 52.048,
      "duration": 0.6405,
      "velocity": 103,
      "chip": "ym2612"
    },
    {
      "channel": 2,
      "note": 54,
      "start": 52.0485,
      "duration": 0.2366,
      "velocity": 99,
      "chip": "ym2612"
    },
    {
      "channel": 3,
      "note": 75,
      "start": 52.049,
      "duration": 0.1019,
      "velocity": 112,
      "chip": "ym2612"
    },
    {
      "channel": 3,
      "note": 75,
      "start": 52.1564,
      "duration": 0.2094,
      "velocity": 112,
      "chip": "ym2612"
    },
    {
      "channel": 0,
      "note": 70,
      "start": 52.371,
      "duration": 0.6401,
      "velocity": 103,
      "chip": "ym2612"
    },
    {
      "channel": 2,
      "note": 55,
      "start": 52.3715,
      "duration": 0.1556,
      "velocity": 99,
      "chip": "ym2612"
    },
    {
      "channel": 3,
      "note": 75,
      "start": 52.372,
      "duration": 0.1014,
      "velocity": 112,
      "chip": "ym2612"
    },
    {
      "channel": 3,
      "note": 75,
      "start": 52.4783,
      "duration": 0.1025,
      "velocity": 112,
      "chip": "ym2612"
    },
    {
      "channel": 3,
      "note": 75,
      "start": 52.5867,
      "duration": 0.2101,
      "velocity": 112,
      "chip": "ym2612"
    },
    {
      "channel": 1,
      "note": 70,
      "start": 52.6934,
      "duration": 0.6405,
      "velocity": 103,
      "chip": "ym2612"
    },
    {
      "channel": 2,
      "note": 51,
      "start": 52.8011,
      "duration": 0.157,
      "velocity": 99,
      "chip": "ym2612"
    },
    {
      "channel": 3,
      "note": 75,
      "start": 52.8016,
      "duration": 0.102,
      "velocity": 112,
      "chip": "ym2612"
    },
    {
      "channel": 3,
      "note": 75,
      "start": 52.9085,
      "duration": 0.1028,
      "velocity": 112,
      "chip": "ym2612"
    },
    {
      "channel": 0,
      "note": 71,
      "start": 53.0161,
      "duration": 0.4253,
      "velocity": 103,
      "chip": "ym2612"
    },
    {
      "channel": 3,
      "note": 75,
      "start": 53.0174,
      "duration": 0.2088,
      "velocity": 112,
      "chip": "ym2612"
    },
    {
      "channel": 2,
      "note": 51,
      "start": 53.2311,
      "duration": 0.1566,
      "velocity": 99,
      "chip": "ym2612"
    },
    {
      "channel": 3,
      "note": 75,
      "start": 53.2316,
      "duration": 0.1024,
      "velocity": 112,
      "chip": "ym2612"
    },
    {
      "channel": 1,
      "note": 71,
      "start": 53.3388,
      "duration": 0.4254,
      "velocity": 103,
      "chip": "ym2612"
    },
    {
      "channel": 3,
      "note": 75,
      "start": 53.3393,
      "duration": 0.1022,
      "velocity": 112,
      "chip": "ym2612"
    },
    {
      "channel": 0,
      "note": 72,
      "start": 53.4464,
      "duration": 0.4254,
      "velocity": 103,
      "chip": "ym2612"
    },
    {
      "channel": 2,
      "note": 51,
      "start": 53.4468,
      "duration": 0.3174,
      "velocity": 99,
      "chip": "ym2612"
    },
    {
      "channel": 4,
      "note": 48,
      "start": 53.4473,
      "duration": 0.4246,
      "velocity": 102,
      "chip": "ym2612"
    },
    {
      "channel": 5,
      "note": 45,
      "start": 53.4478,
      "duration": 0.4242,
      "velocity": 102,
      "chip": "ym2612"
    },
    {
      "channel": 1,
      "note": 72,
      "start": 53.769,
      "duration": 0.4254,
      "velocity": 103,
      "chip": "ym2612"
    },
    {
      "channel": 0,
      "note": 74,
      "start": 53.8766,
      "duration": 0.4253,
      "velocity": 103,
      "chip": "ym2612"
    },
    {
      "channel": 2,
      "note": 53,
      "start": 53.8771,
      "duration": 0.3173,
      "velocity": 99,
      "chip": "ym2612"
    },
    {
      "channel": 4,
      "note": 41,
      "start": 53.8776,
      "duration": 0.4244,
      "velocity": 102,
      "chip": "ym2612"
    },
    {
      "channel": 5,
      "note": 38,
      "start": 53.8781,
      "duration": 0.424,
      "velocity": 102,
      "chip": "ym2612"
    },
    {
      "channel": 1,
      "note": 74,
      "start": 54.1991,
      "duration": 0.4254,
      "velocity": 103,
      "chip": "ym2612"
    },
    {
      "channel": 0,
      "note": 75,
      "start": 54.3067,
      "duration": 0.4254,
      "velocity": 103,
      "chip": "ym2612"
    },
    {
      "channel": 2,
      "note": 55,
      "start": 54.3071,
      "duration": 0.3175,
      "velocity": 99,
      "chip": "ym2612"
    },
    {
      "channel": 4,
      "note": 43,
      "start": 54.3077,
      "duration": 0.4245,
      "velocity": 102,
      "chip": "ym2612"
    },
    {
      "channel": 5,
      "note": 39,
      "start": 54.3082,
      "duration": 0.4241,
      "velocity": 102,
      "chip": "ym2612"
    },
    {
      "channel": 1,
      "note": 75,
      "start": 54.6294,
      "duration": 0.4257,
      "velocity": 103,
      "chip": "ym2612"
    },
    {
      "channel": 0,
      "note": 77,
      "start": 54.7369,
      "duration": 0.4256,
      "velocity": 103,
      "chip": "ym2612"
    },
    {
      "channel": 2,
      "note": 57,
      "start": 54.7374,
      "duration": 0.3178,
      "velocity": 99,
      "chip": "ym2612"
    },
    {
      "channel": 4,
      "note": 45,
      "start": 54.7379,
      "duration": 0.4248,
      "velocity": 102,
      "chip": "ym2612"
    },
    {
      "channel": 5,
      "note": 39,
      "start": 54.7384,
      "duration": 0.4245,
      "velocity": 102,
      "chip": "ym2612"
    },
    {
      "channel": 1,
      "note": 77,
      "start": 55.0599,
      "duration": 0.1027,
      "velocity": 103,
      "chip": "ym2612"
    },
    {
      "channel": 0,
      "note": 86,
      "start": 55.1687,
      "duration": 0.2093,
      "velocity": 92,
      "chip": "ym2612"
    },
    {
      "channel": 2,
      "note": 58,
      "start": 55.1702,
      "duration": 0.2348,
      "velocity": 99,
      "chip": "ym2612"
    },
    {
      "channel": 3,
      "note": 75,
      "start": 55.1731,
      "duration": 0.2051,
      "velocity": 112,
      "chip": "ym2612"
    },
    {
      "channel": 4,
      "note": 86,
      "start": 55.1746,
      "duration": 0.2037,
      "velocity": 107,
      "chip": "ym2612"
    },
    {
      "channel": 5,
      "note": 82,
      "start": 55.1762,
      "duration": 0.2021,
      "velocity": 107,
      "chip": "ym2612"
    },
    {
      "channel": 0,
      "note": 84,
      "start": 55.3829,
      "duration": 0.2103,
      "velocity": 92,
      "chip": "ym2612"
    },
    {
      "channel": 3,
      "note": 75,
      "start": 55.3834,
      "duration": 0.1022,
      "velocity": 112,
      "chip": "ym2612"
    },
    {
      "channel": 4,
      "note": 86,
      "start": 55.3839,
      "duration": 0.0212,
      "velocity": 107,
      "chip": "ym2612"
    },
    {
      "channel": 5,
      "note": 82,
      "start": 55.3843,
      "duration": 0.0209,
      "velocity": 107,
      "chip": "ym2612"
    },
    {
      "channel": 1,
      "note": 86,
      "start": 55.4918,
      "duration": 0.1036,
      "velocity": 92,
      "chip": "ym2612"
    },
    {
      "channel": 2,
      "note": 57,
      "start": 55.4923,
      "duration": 0.1031,
      "velocity": 99,
      "chip": "ym2612"
    },
    {
      "channel": 3,
      "note": 75,
      "start": 55.4928,
      "duration": 0.1005,
      "velocity": 112,
      "chip": "ym2612"
    },
    {
      "channel": 4,
      "note": 86,
      "start": 55.4932,
      "duration": 0.0193,
      "velocity": 107,
      "chip": "ym2612"
    },
    {
      "channel": 5,
      "note": 82,
      "start": 55.4937,
      "duration": 0.0189,
      "velocity": 107,
      "chip": "ym2612"
    }
  ]
}