{
  "track_name": "12 - Dungeon 2",
  "duration_sec": 66.998,
  "sample_rate": 44100,
  "note_count": 397,
  "unique_pitches": 20,
  "pitch_range": 40,
  "avg_note_duration": 0.6461,
  "reconstruction_stats": {
    "notes_reconstructed": 397,
    "keyon_events": 397,
    "keyoff_events": 392,
    "orphan_keyons": 5,
    "unique_pitches": 20,
    "pitch_range": 40,
    "avg_duration_sec": 0.6461
  },
  "metadata": {
    "source": "S\\Sword of Vermilion\\12 - Dungeon 2.vgz"
  },
  "notes": [
    {
      "channel": 0,
      "note": 57,
      "start": 0.0019,
      "duration": 0.057,
      "velocity": 81,
      "chip": "ym2612"
    },
    {
      "channel": 1,
      "note": 75,
      "start": 0.0035,
      "duration": 2.4315,
      "velocity": 105,
      "chip": "ym2612"
    },
    {
      "channel": 2,
      "note": 87,
      "start": 0.0051,
      "duration": 3.129,
      "velocity": 100,
      "chip": "ym2612"
    },
    {
      "channel": 3,
      "note": 90,
      "start": 0.0067,
      "duration": 3.1274,
      "velocity": 100,
      "chip": "ym2612"
    },
    {
      "channel": 0,
      "note": 57,
      "start": 0.309,
      "duration": 0.1332,
      "velocity": 81,
      "chip": "ym2612"
    },
    {
      "channel": 4,
      "note": 75,
      "start": 0.4431,
      "duration": 2.4413,
      "velocity": 105,
      "chip": "ym2612"
    },
    {
      "channel": 0,
      "note": 51,
      "start": 0.891,
      "duration": 0.0651,
      "velocity": 81,
      "chip": "ym2612"
    },
    {
      "channel": 0,
      "note": 51,
      "start": 0.9562,
      "duration": 0.1332,
      "velocity": 81,
      "chip": "ym2612"
    },
    {
      "channel": 0,
      "note": 52,
      "start": 1.2062,
      "duration": 0.1332,
      "velocity": 81,
      "chip": "ym2612"
    },
    {
      "channel": 0,
      "note": 54,
      "start": 1.4048,
      "duration": 0.1332,
      "velocity": 81,
      "chip": "ym2612"
    },
    {
      "channel": 0,
      "note": 55,
      "start": 1.6548,
      "duration": 0.1332,
      "velocity": 81,
      "chip": "ym2612"
    },
    {
      "channel": 0,
      "note": 57,
      "start": 1.7882,
      "duration": 0.065,
      "velocity": 81,
      "chip": "ym2612"
    },
    {
      "channel": 0,
      "note": 57,
      "start": 2.1033,
      "duration": 0.1332,
      "velocity": 81,
      "chip": "ym2612"
    },
    {
      "channel": 0,
      "note": 51,
      "start": 2.6851,
      "duration": 0.0651,
      "velocity": 81,
      "chip": "ym2612"
    },
    {
      "channel": 1,
      "note": 69,
      "start": 2.6854,
      "duration": 0.1983,
      "velocity": 105,
      "chip": "ym2612"
    },
    {
      "channel": 0,
      "note": 51,
      "start": 2.7504,
      "duration": 0.1332,
      "velocity": 81,
      "chip": "ym2612"
    },
    {
      "channel": 1,
      "note": 71,
      "start": 2.8839,
      "duration": 0.1166,
      "velocity": 105,
      "chip": "ym2612"
    },
    {
      "channel": 0,
      "note": 52,
      "start": 3.0004,
      "duration": 0.1332,
      "velocity": 81,
      "chip": "ym2612"
    },
    {
      "channel": 1,
      "note": 72,
      "start": 3.1339,
      "duration": 0.0649,
      "velocity": 105,
      "chip": "ym2612"
    },
    {
      "channel": 4,
      "note": 69,
      "start": 3.1345,
      "duration": 0.1979,
      "velocity": 105,
      "chip": "ym2612"
    },
    {
      "channel": 0,
      "note": 54,
      "start": 3.1987,
      "duration": 0.1332,
      "velocity": 81,
      "chip": "ym2612"
    },
    {
      "channel": 1,
      "note": 75,
      "start": 3.3322,
      "duration": 0.1166,
      "velocity": 105,
      "chip": "ym2612"
    },
    {
      "channel": 4,
      "note": 71,
      "start": 3.3326,
      "duration": 0.1164,
      "velocity": 105,
      "chip": "ym2612"
    },
    {
      "channel": 0,
      "note": 55,
      "start": 3.4487,
      "duration": 0.1332,
      "velocity": 81,
      "chip": "ym2612"
    },
    {
      "channel": 0,
      "note": 58,
      "start": 3.582,
      "duration": 0.0658,
      "velocity": 81,
      "chip": "ym2612"
    },
    {
      "channel": 1,
      "note": 78,
      "start": 3.5823,
      "duration": 0.1989,
      "velocity": 105,
      "chip": "ym2612"
    },
    {
      "channel": 2,
      "note": 88,
      "start": 3.5827,
      "duration": 3.1402,
      "velocity": 100,
      "chip": "ym2612"
    },
    {
      "channel": 3,
      "note": 91,
      "start": 3.583,
      "duration": 3.14,
      "velocity": 100,
      "chip": "ym2612"
    },
    {
      "channel": 4,
      "note": 72,
      "start": 3.5833,
      "duration": 0.0652,
      "velocity": 105,
      "chip": "ym2612"
    },
    {
      "channel": 4,
      "note": 75,
      "start": 3.782,
      "duration": 0.1168,
      "velocity": 105,
      "chip": "ym2612"
    },
    {
      "channel": 0,
      "note": 58,
      "start": 3.898,
      "duration": 0.1332,
      "velocity": 81,
      "chip": "ym2612"
    },
    {
      "channel": 1,
      "note": 76,
      "start": 3.8983,
      "duration": 2.1261,
      "velocity": 105,
      "chip": "ym2612"
    },
    {
      "channel": 4,
      "note": 78,
      "start": 4.0321,
      "duration": 0.1983,
      "velocity": 105,
      "chip": "ym2612"
    },
    {
      "channel": 4,
      "note": 76,
      "start": 4.3473,
      "duration": 2.1259,
      "velocity": 105,
      "chip": "ym2612"
    },
    {
      "channel": 0,
      "note": 52,
      "start": 4.48,
      "duration": 0.0651,
      "velocity": 81,
      "chip": "ym2612"
    },
    {
      "channel": 0,
      "note": 52,
      "start": 4.5452,
      "duration": 0.1332,
      "velocity": 81,
      "chip": "ym2612"
    },
    {
      "channel": 0,
      "note": 53,
      "start": 4.7952,
      "duration": 0.1332,
      "velocity": 81,
      "chip": "ym2612"
    },
    {
      "channel": 0,
      "note": 55,
      "start": 4.9939,
      "duration": 0.1332,
      "velocity": 81,
      "chip": "ym2612"
    },
    {
      "channel": 0,
      "note": 57,
      "start": 5.2439,
      "duration": 0.1332,
      "velocity": 81,
      "chip": "ym2612"
    },
    {
      "channel": 0,
      "note": 58,
      "start": 5.3772,
      "duration": 0.0651,
      "velocity": 81,
      "chip": "ym2612"
    },
    {
      "channel": 0,
      "note": 58,
      "start": 5.6925,
      "duration": 0.1332,
      "velocity": 81,
      "chip": "ym2612"
    },
    {
      "channel": 0,
      "note": 52,
      "start": 6.2746,
      "duration": 0.0646,
      "velocity": 81,
      "chip": "ym2612"
    },
    {
      "channel": 0,
      "note": 52,
      "start": 6.3394,
      "duration": 0.1332,
      "velocity": 81,
      "chip": "ym2612"
    },
    {
      "channel": 1,
      "note": 81,
      "start": 6.3397,
      "duration": 0.133,
      "velocity": 105,
      "chip": "ym2612"
    },
    {
      "channel": 0,
      "note": 53,
      "start": 6.5894,
      "duration": 0.1332,
      "velocity": 81,
      "chip": "ym2612"
    },
    {
      "channel": 1,
      "note": 79,
      "start": 6.5897,
      "duration": 0.133,
      "velocity": 105,
      "chip": "ym2612"
    },
    {
      "channel": 0,
      "note": 55,
      "start": 6.7872,
      "duration": 0.1332,
      "velocity": 81,
      "chip": "ym2612"
    },
    {
      "channel": 1,
      "note": 78,
      "start": 6.7875,
      "duration": 0.133,
      "velocity": 105,
      "chip": "ym2612"
    },
    {
      "channel": 4,
      "note": 81,
      "start": 6.7879,
      "duration": 0.1329,
      "velocity": 105,
      "chip": "ym2612"
    },
    {
      "channel": 0,
      "note": 57,
      "start": 7.0372,
      "duration": 0.1332,
      "velocity": 81,
      "chip": "ym2612"
    },
    {
      "channel": 1,
      "note": 76,
      "start": 7.0375,
      "duration": 0.1332,
      "velocity": 105,
      "chip": "ym2612"
    },
    {
      "channel": 4,
      "note": 79,
      "start": 7.0379,
      "duration": 0.1338,
      "velocity": 105,
      "chip": "ym2612"
    },
    {
      "channel": 0,
      "note": 57,
      "start": 7.1706,
      "duration": 0.0652,
      "velocity": 81,
      "chip": "ym2612"
    },
    {
      "channel": 1,
      "note": 76,
      "start": 7.1709,
      "duration": 0.1983,
      "velocity": 105,
      "chip": "ym2612"
    },
    {
      "channel": 2,
      "note": 87,
      "start": 7.1712,
      "duration": 3.1401,
      "velocity": 100,
      "chip": "ym2612"
    },
    {
      "channel": 3,
      "note": 90,
      "start": 7.1716,
      "duration": 3.14,
      "velocity": 100,
      "chip": "ym2612"
    },
    {
      "channel": 4,
      "note": 78,
      "start": 7.2366,
      "duration": 0.133,
      "velocity": 105,
      "chip": "ym2612"
    },
    {
      "channel": 0,
      "note": 57,
      "start": 7.4859,
      "duration": 0.1332,
      "velocity": 81,
      "chip": "ym2612"
    },
    {
      "channel": 1,
      "note": 75,
      "start": 7.4863,
      "duration": 2.5748,
      "velocity": 105,
      "chip": "ym2612"
    },
    {
      "channel": 4,
      "note": 76,
      "start": 7.4869,
      "duration": 0.1328,
      "velocity": 105,
      "chip": "ym2612"
    },
    {
      "channel": 4,
      "note": 76,
      "start": 7.62,
      "duration": 0.1983,
      "velocity": 105,
      "chip": "ym2612"
    },
    {
      "channel": 4,
      "note": 75,
      "start": 7.9352,
      "duration": 2.5746,
      "velocity": 105,
      "chip": "ym2612"
    },
    {
      "channel": 0,
      "note": 51,
      "start": 8.0679,
      "duration": 0.0651,
      "velocity": 81,
      "chip": "ym2612"
    },
    {
      "channel": 0,
      "note": 51,
      "start": 8.1332,
      "duration": 0.1332,
      "velocity": 81,
      "chip": "ym2612"
    },
    {
      "channel": 0,
      "note": 52,
      "start": 8.3832,
      "duration": 0.1332,
      "velocity": 81,
      "chip": "ym2612"
    },
    {
      "channel": 0,
      "note": 54,
      "start": 8.5818,
      "duration": 0.1332,
      "velocity": 81,
      "chip": "ym2612"
    },
    {
      "channel": 0,
      "note": 55,
      "start": 8.8318,
      "duration": 0.1332,
      "velocity": 81,
      "chip": "ym2612"
    },
    {
      "channel": 0,
      "note": 57,
      "start": 8.9651,
      "duration": 0.0651,
      "velocity": 81,
      "chip": "ym2612"
    },
    {
      "channel": 0,
      "note": 57,
      "start": 9.2804,
      "duration": 0.1332,
      "velocity": 81,
      "chip": "ym2612"
    },
    {
      "channel": 0,
      "note": 51,
      "start": 9.8625,
      "duration": 0.065,
      "velocity": 81,
      "chip": "ym2612"
    },
    {
      "channel": 0,
      "note": 51,
      "start": 9.9277,
      "duration": 0.1332,
      "velocity": 81,
      "chip": "ym2612"
    },
    {
      "channel": 1,
      "note": 69,
      "start": 10.0612,
      "duration": 0.2498,
      "velocity": 105,
      "chip": "ym2612"
    },
    {
      "channel": 0,
      "note": 52,
      "start": 10.1777,
      "duration": 0.1332,
      "velocity": 81,
      "chip": "ym2612"
    },
    {
      "channel": 1,
      "note": 71,
      "start": 10.3112,
      "duration": 0.0649,
      "velocity": 105,
      "chip": "ym2612"
    },
    {
      "channel": 0,
      "note": 54,
      "start": 10.3761,
      "duration": 0.1332,
      "velocity": 81,
      "chip": "ym2612"
    },
    {
      "channel": 1,
      "note": 72,
      "start": 10.5096,
      "duration": 0.1166,
      "velocity": 105,
      "chip": "ym2612"
    },
    {
      "channel": 4,
      "note": 69,
      "start": 10.51,
      "duration": 0.2505,
      "velocity": 105,
      "chip": "ym2612"
    },
    {
      "channel": 0,
      "note": 55,
      "start": 10.6261,
      "duration": 0.1332,
      "velocity": 81,
      "chip": "ym2612"
    },
    {
      "channel": 0,
      "note": 58,
      "start": 10.7594,
      "duration": 0.0654,
      "velocity": 81,
      "chip": "ym2612"
    },
    {
      "channel": 1,
      "note": 72,
      "start": 10.7597,
      "duration": 0.1985,
      "velocity": 105,
      "chip": "ym2612"
    },
    {
      "channel": 2,
      "note": 88,
      "start": 10.76,
      "duration": 2.7058,
      "velocity": 100,
      "chip": "ym2612"
    },
    {
      "channel": 3,
      "note": 91,
      "start": 10.7603,
      "duration": 2.7055,
      "velocity": 100,
      "chip": "ym2612"
    },
    {
      "channel": 4,
      "note": 71,
      "start": 10.7607,
      "duration": 0.0648,
      "velocity": 105,
      "chip": "ym2612"
    },
    {
      "channel": 4,
      "note": 72,
      "start": 10.9589,
      "duration": 0.1168,
      "velocity": 105,
      "chip": "ym2612"
    },
    {
      "channel": 0,
      "note": 58,
      "start": 11.075,
      "duration": 0.1332,
      "velocity": 81,
      "chip": "ym2612"
    },
    {
      "channel": 1,
      "note": 70,
      "start": 11.0753,
      "duration": 2.1261,
      "velocity": 105,
      "chip": "ym2612"
    },
    {
      "channel": 4,
      "note": 72,
      "start": 11.209,
      "duration": 0.1983,
      "velocity": 105,
      "chip": "ym2612"
    },
    {
      "channel": 4,
      "note": 70,
      "start": 11.5242,
      "duration": 1.936,
      "velocity": 105,
      "chip": "ym2612"
    },
    {
      "channel": 0,
      "note": 52,
      "start": 11.657,
      "duration": 0.0651,
      "velocity": 81,
      "chip": "ym2612"
    },
    {
      "channel": 0,
      "note": 52,
      "start": 11.7222,
      "duration": 0.1332,
      "velocity": 81,
      "chip": "ym2612"
    },
    {
      "channel": 0,
      "note": 53,
      "start": 11.9722,
      "duration": 0.1332,
      "velocity": 81,
      "chip": "ym2612"
    },
    {
      "channel": 0,
      "note": 55,
      "start": 12.1709,
      "duration": 0.1332,
      "velocity": 81,
      "chip": "ym2612"
    },
    {
      "channel": 0,
      "note": 57,
      "start": 12.4209,
      "duration": 0.1332,
      "velocity": 81,
      "chip": "ym2612"
    },
    {
      "channel": 0,
      "note": 58,
      "start": 12.5542,
      "duration": 0.0651,
      "velocity": 81,
      "chip": "ym2612"
    },
    {
      "channel": 0,
      "note": 58,
      "start": 12.8695,
      "duration": 0.1332,
      "velocity": 81,
      "chip": "ym2612"
    },
    {
      "channel": 0,
      "note": 52,
      "start": 13.4516,
      "duration": 0.0041,
      "velocity": 81,
      "chip": "ym2612"
    },
    {
      "channel": 1,
      "note": 79,
      "start": 13.4519,
      "duration": 0.0081,
      "velocity": 105,
      "chip": "ym2612"
    },
    {
      "channel": 0,
      "note": 52,
      "start": 13.4558,
      "duration": 0.0041,
      "velocity": 81,
      "chip": "ym2612"
    },
    {
      "channel": 0,
      "note": 53,
      "start": 13.4626,
      "duration": 0.003,
      "velocity": 81,
      "chip": "ym2612"
    },
    {
      "channel": 1,
      "note": 78,
      "start": 13.4629,
      "duration": 0.0056,
      "velocity": 105,
      "chip": "ym2612"
    },
    {
      "channel": 4,
      "note": 79,
      "start": 13.4662,
      "duration": 0.0041,
      "velocity": 105,
      "chip": "ym2612"
    },
    {
      "channel": 0,
      "note": 55,
      "start": 13.4684,
      "duration": 0.0015,
      "velocity": 81,
      "chip": "ym2612"
    },
    {
      "channel": 1,
      "note": 76,
      "start": 13.4702,
      "duration": 0.0013,
      "velocity": 105,
      "chip": "ym2612"
    },
    {
      "channel": 0,
      "note": 57,
      "start": 13.4713,
      "duration": 0.0014,
      "velocity": 81,
      "chip": "ym2612"
    },
    {
      "channel": 4,
      "note": 78,
      "start": 13.4718,
      "duration": 0.0074,
      "velocity": 105,
      "chip": "ym2612"
    },
    {
      "channel": 0,
      "note": 57,
      "start": 13.4729,
      "duration": 0.0058,
      "velocity": 81,
      "chip": "ym2612"
    },
    {
      "channel": 1,
      "note": 75,
      "start": 13.4731,
      "duration": 1.7848,
      "velocity": 105,
      "chip": "ym2612"
    },
    {
      "channel": 2,
      "note": 87,
      "start": 13.4732,
      "duration": 2.374,
      "velocity": 100,
      "chip": "ym2612"
    },
    {
      "channel": 3,
      "note": 90,
      "start": 13.4736,
      "duration": 2.3738,
      "velocity": 100,
      "chip": "ym2612"
    },
    {
      "channel": 4,
      "note": 76,
      "start": 13.5628,
      "duration": 0.1167,
      "velocity": 105,
      "chip": "ym2612"
    },
    {
      "channel": 0,
      "note": 57,
      "start": 13.6789,
      "duration": 0.1332,
      "velocity": 81,
      "chip": "ym2612"
    },
    {
      "channel": 4,
      "note": 75,
      "start": 13.813,
      "duration": 1.7846,
      "velocity": 105,
      "chip": "ym2612"
    },
    {
      "channel": 0,
      "note": 51,
      "start": 14.1517,
      "duration": 0.0045,
      "velocity": 81,
      "chip": "ym2612"
    },
    {
      "channel": 0,
      "note": 51,
      "start": 14.1564,
      "duration": 0.084,
      "velocity": 81,
      "chip": "ym2612"
    },
    {
      "channel": 0,
      "note": 52,
      "start": 14.3572,
      "duration": 0.1332,
      "velocity": 81,
      "chip": "ym2612"
    },
    {
      "channel": 0,
      "note": 54,
      "start": 14.4951,
      "duration": 0.0844,
      "velocity": 81,
      "chip": "ym2612"
    },
    {
      "channel": 0,
      "note": 55,
      "start": 14.6964,
      "duration": 0.1332,
      "velocity": 81,
      "chip": "ym2612"
    },
    {
      "channel": 0,
      "note": 57,
      "start": 14.8297,
      "duration": 0.0042,
      "velocity": 81,
      "chip": "ym2612"
    },
    {
      "channel": 0,
      "note": 57,
      "start": 15.0352,
      "duration": 0.1332,
      "velocity": 81,
      "chip": "ym2612"
    },
    {
      "channel": 0,
      "note": 51,
      "start": 15.508,
      "duration": 0.0046,
      "velocity": 81,
      "chip": "ym2612"
    },
    {
      "channel": 1,
      "note": 69,
      "start": 15.5083,
      "duration": 0.0886,
      "velocity": 105,
      "chip": "ym2612"
    },
    {
      "channel": 0,
      "note": 51,
      "start": 15.5127,
      "duration": 0.084,
      "velocity": 81,
      "chip": "ym2612"
    },
    {
      "channel": 1,
      "note": 71,
      "start": 15.5971,
      "duration": 0.1166,
      "velocity": 105,
      "chip": "ym2612"
    },
    {
      "channel": 0,
      "note": 52,
      "start": 15.7136,
      "duration": 0.1332,
      "velocity": 81,
      "chip": "ym2612"
    },
    {
      "channel": 1,
      "note": 72,
      "start": 15.8471,
      "duration": 0.0032,
      "velocity": 105,
      "chip": "ym2612"
    },
    {
      "channel": 4,
      "note": 69,
      "start": 15.8478,
      "duration": 0.0867,
      "velocity": 105,
      "chip": "ym2612"
    },
    {
      "channel": 0,
      "note": 54,
      "start": 15.8502,
      "duration": 0.0837,
      "velocity": 81,
      "chip": "ym2612"
    },
    {
      "channel": 1,
      "note": 75,
      "start": 15.9343,
      "duration": 0.0025,
      "velocity": 105,
      "chip": "ym2612"
    },
    {
      "channel": 4,
      "note": 71,
      "start": 15.9347,
      "duration": 0.0022,
      "velocity": 105,
      "chip": "ym2612"
    },
    {
      "channel": 0,
      "note": 55,
      "start": 15.9367,
      "duration": 0.0002,
      "velocity": 81,
      "chip": "ym2612"
    },
    {
      "channel": 0,
      "note": 58,
      "start": 15.9371,
      "duration": 0.0059,
      "velocity": 81,
      "chip": "ym2612"
    },
    {
      "channel": 1,
      "note": 78,
      "start": 15.9374,
      "duration": 0.0891,
      "velocity": 105,
      "chip": "ym2612"
    },
    {
      "channel": 2,
      "note": 88,
      "start": 15.9376,
      "duration": 2.3723,
      "velocity": 100,
      "chip": "ym2612"
    },
    {
      "channel": 3,
      "note": 91,
      "start": 15.9378,
      "duration": 2.3722,
      "velocity": 100,
      "chip": "ym2612"
    },
    {
      "channel": 4,
      "note": 72,
      "start": 15.938,
      "duration": 0.0055,
      "velocity": 105,
      "chip": "ym2612"
    },
    {
      "channel": 4,
      "note": 75,
      "start": 16.0272,
      "duration": 0.1168,
      "velocity": 105,
      "chip": "ym2612"
    },
    {
      "channel": 0,
      "note": 58,
      "start": 16.1433,
      "duration": 0.1332,
      "velocity": 81,
      "chip": "ym2612"
    },
    {
      "channel": 1,
      "note": 76,
      "start": 16.1436,
      "duration": 1.5778,
      "velocity": 105,
      "chip": "ym2612"
    },
    {
      "channel": 4,
      "note": 78,
      "start": 16.2773,
      "duration": 0.0884,
      "velocity": 105,
      "chip": "ym2612"
    },
    {
      "channel": 4,
      "note": 76,
      "start": 16.4827,
      "duration": 1.5775,
      "velocity": 105,
      "chip": "ym2612"
    },
    {
      "channel": 0,
      "note": 52,
      "start": 16.6154,
      "duration": 0.0046,
      "velocity": 81,
      "chip": "ym2612"
    },
    {
      "channel": 0,
      "note": 52,
      "start": 16.6202,
      "duration": 0.0841,
      "velocity": 81,
      "chip": "ym2612"
    },
    {
      "channel": 0,
      "note": 53,
      "start": 16.8211,
      "duration": 0.1332,
      "velocity": 81,
      "chip": "ym2612"
    },
    {
      "channel": 0,
      "note": 55,
      "start": 16.9592,
      "duration": 0.0844,
      "velocity": 81,
      "chip": "ym2612"
    },
    {
      "channel": 0,
      "note": 57,
      "start": 17.1605,
      "duration": 0.1332,
      "velocity": 81,
      "chip": "ym2612"
    },
    {
      "channel": 0,
      "note": 58,
      "start": 17.2938,
      "duration": 0.0045,
      "velocity": 81,
      "chip": "ym2612"
    },
    {
      "channel": 0,
      "note": 58,
      "start": 17.4992,
      "duration": 0.1332,
      "velocity": 81,
      "chip": "ym2612"
    },
    {
      "channel": 0,
      "note": 52,
      "start": 17.9715,
      "duration": 0.0034,
      "velocity": 81,
      "chip": "ym2612"
    },
    {
      "channel": 0,
      "note": 52,
      "start": 17.9751,
      "duration": 0.0845,
      "velocity": 81,
      "chip": "ym2612"
    },
    {
      "channel": 1,
      "note": 81,
      "start": 17.9753,
      "duration": 0.0844,
      "velocity": 105,
      "chip": "ym2612"
    },
    {
      "channel": 0,
      "note": 53,
      "start": 18.1764,
      "duration": 0.1332,
      "velocity": 81,
      "chip": "ym2612"
    },
    {
      "channel": 1,
      "note": 79,
      "start": 18.1767,
      "duration": 0.133,
      "velocity": 105,
      "chip": "ym2612"
    },
    {
      "channel": 0,
      "note": 55,
      "start": 18.3108,
      "duration": 0.0848,
      "velocity": 81,
      "chip": "ym2612"
    },
    {
      "channel": 1,
      "note": 78,
      "start": 18.3111,
      "duration": 0.0847,
      "velocity": 105,
      "chip": "ym2612"
    },
    {
      "channel": 4,
      "note": 81,
      "start": 18.3115,
      "duration": 0.0846,
      "velocity": 105,
      "chip": "ym2612"
    },
    {
      "channel": 0,
      "note": 57,
      "start": 18.3966,
      "duration": 0.0022,
      "velocity": 81,
      "chip": "ym2612"
    },
    {
      "channel": 1,
      "note": 76,
      "start": 18.3969,
      "duration": 0.0022,
      "velocity": 105,
      "chip": "ym2612"
    },
    {
      "channel": 4,
      "note": 79,
      "start": 18.3971,
      "duration": 0.0027,
      "velocity": 105,
      "chip": "ym2612"
    },
    {
      "channel": 0,
      "note": 57,
      "start": 18.399,
      "duration": 0.0051,
      "velocity": 81,
      "chip": "ym2612"
    },
    {
      "channel": 1,
      "note": 76,
      "start": 18.3992,
      "duration": 0.089,
      "velocity": 105,
      "chip": "ym2612"
    },
    {
      "channel": 2,
      "note": 87,
      "start": 18.3995,
      "duration": 2.3727,
      "velocity": 100,
      "chip": "ym2612"
    },
    {
      "channel": 3,
      "note": 90,
      "start": 18.3998,
      "duration": 2.3726,
      "velocity": 100,
      "chip": "ym2612"
    },
    {
      "channel": 4,
      "note": 78,
      "start": 18.4049,
      "duration": 0.0838,
      "velocity": 105,
      "chip": "ym2612"
    },
    {
      "channel": 0,
      "note": 57,
      "start": 18.605,
      "duration": 0.1332,
      "velocity": 81,
      "chip": "ym2612"
    },
    {
      "channel": 1,
      "note": 75,
      "start": 18.6053,
      "duration": 1.9166,
      "velocity": 105,
      "chip": "ym2612"
    },
    {
      "channel": 4,
      "note": 76,
      "start": 18.6059,
      "duration": 0.1328,
      "velocity": 105,
      "chip": "ym2612"
    },
    {
      "channel": 4,
      "note": 76,
      "start": 18.739,
      "duration": 0.0887,
      "velocity": 105,
      "chip": "ym2612"
    },
    {
      "channel": 4,
      "note": 75,
      "start": 18.9446,
      "duration": 1.9147,
      "velocity": 105,
      "chip": "ym2612"
    },
    {
      "channel": 0,
      "note": 51,
      "start": 19.0774,
      "duration": 0.0044,
      "velocity": 81,
      "chip": "ym2612"
    },
    {
      "channel": 0,
      "note": 51,
      "start": 19.0819,
      "duration": 0.0842,
      "velocity": 81,
      "chip": "ym2612"
    },
    {
      "channel": 0,
      "note": 52,
      "start": 19.283,
      "duration": 0.1332,
      "velocity": 81,
      "chip": "ym2612"
    },
    {
      "channel": 0,
      "note": 54,
      "start": 19.4208,
      "duration": 0.0845,
      "velocity": 81,
      "chip": "ym2612"
    },
    {
      "channel": 0,
      "note": 55,
      "start": 19.6222,
      "duration": 0.1332,
      "velocity": 81,
      "chip": "ym2612"
    },
    {
      "channel": 0,
      "note": 57,
      "start": 19.7555,
      "duration": 0.0042,
      "velocity": 81,
      "chip": "ym2612"
    },
    {
      "channel": 0,
      "note": 57,
      "start": 19.9609,
      "duration": 0.1332,
      "velocity": 81,
      "chip": "ym2612"
    },
    {
      "channel": 0,
      "note": 51,
      "start": 20.4332,
      "duration": 0.0046,
      "velocity": 81,
      "chip": "ym2612"
    },
    {
      "channel": 0,
      "note": 51,
      "start": 20.438,
      "duration": 0.0837,
      "velocity": 81,
      "chip": "ym2612"
    },
    {
      "channel": 1,
      "note": 69,
      "start": 20.5221,
      "duration": 0.2498,
      "velocity": 105,
      "chip": "ym2612"
    },
    {
      "channel": 0,
      "note": 52,
      "start": 20.6386,
      "duration": 0.1332,
      "velocity": 81,
      "chip": "ym2612"
    },
    {
      "channel": 1,
      "note": 71,
      "start": 20.7721,
      "duration": 0.0032,
      "velocity": 105,
      "chip": "ym2612"
    },
    {
      "channel": 0,
      "note": 54,
      "start": 20.7752,
      "duration": 0.0836,
      "velocity": 81,
      "chip": "ym2612"
    },
    {
      "channel": 1,
      "note": 72,
      "start": 20.8592,
      "duration": 0.0024,
      "velocity": 105,
      "chip": "ym2612"
    },
    {
      "channel": 4,
      "note": 69,
      "start": 20.8595,
      "duration": 0.0041,
      "velocity": 105,
      "chip": "ym2612"
    },
    {
      "channel": 0,
      "note": 55,
      "start": 20.8615,
      "duration": 0.0012,
      "velocity": 81,
      "chip": "ym2612"
    },
    {
      "channel": 0,
      "note": 58,
      "start": 20.8629,
      "duration": 0.0059,
      "velocity": 81,
      "chip": "ym2612"
    },
    {
      "channel": 1,
      "note": 72,
      "start": 20.8632,
      "duration": 0.089,
      "velocity": 105,
      "chip": "ym2612"
    },
    {
      "channel": 2,
      "note": 88,
      "start": 20.8633,
      "duration": 2.0483,
      "velocity": 100,
      "chip": "ym2612"
    },
    {
      "channel": 3,
      "note": 91,
      "start": 20.8636,
      "duration": 2.0481,
      "velocity": 100,
      "chip": "ym2612"
    },
    {
      "channel": 4,
      "note": 71,
      "start": 20.8638,
      "duration": 0.0056,
      "velocity": 105,
      "chip": "ym2612"
    },
    {
      "channel": 4,
      "note": 72,
      "start": 20.9528,
      "duration": 0.1168,
      "velocity": 105,
      "chip": "ym2612"
    },
    {
      "channel": 0,
      "note": 58,
      "start": 21.0689,
      "duration": 0.1332,
      "velocity": 81,
      "chip": "ym2612"
    },
    {
      "channel": 1,
      "note": 70,
      "start": 21.0692,
      "duration": 1.5784,
      "velocity": 105,
      "chip": "ym2612"
    },
    {
      "channel": 4,
      "note": 72,
      "start": 21.2029,
      "duration": 0.0887,
      "velocity": 105,
      "chip": "ym2612"
    },
    {
      "channel": 4,
      "note": 70,
      "start": 21.4085,
      "duration": 1.4978,
      "velocity": 105,
      "chip": "ym2612"
    },
    {
      "channel": 0,
      "note": 52,
      "start": 21.5413,
      "duration": 0.0044,
      "velocity": 81,
      "chip": "ym2612"
    },
    {
      "channel": 0,
      "note": 52,
      "start": 21.5459,
      "duration": 0.0841,
      "velocity": 81,
      "chip": "ym2612"
    },
    {
      "channel": 0,
      "note": 53,
      "start": 21.7468,
      "duration": 0.1332,
      "velocity": 81,
      "chip": "ym2612"
    },
    {
      "channel": 0,
      "note": 55,
      "start": 21.885,
      "duration": 0.0841,
      "velocity": 81,
      "chip": "ym2612"
    },
    {
      "channel": 0,
      "note": 57,
      "start": 22.0859,
      "duration": 0.1332,
      "velocity": 81,
      "chip": "ym2612"
    },
    {
      "channel": 0,
      "note": 58,
      "start": 22.2193,
      "duration": 0.0048,
      "velocity": 81,
      "chip": "ym2612"
    },
    {
      "channel": 0,
      "note": 58,
      "start": 22.4255,
      "duration": 0.1332,
      "velocity": 81,
      "chip": "ym2612"
    },
    {
      "channel": 0,
      "note": 52,
      "start": 22.8977,
      "duration": 0.004,
      "velocity": 81,
      "chip": "ym2612"
    },
    {
      "channel": 1,
      "note": 79,
      "start": 22.898,
      "duration": 0.008,
      "velocity": 105,
      "chip": "ym2612"
    },
    {
      "channel": 0,
      "note": 52,
      "start": 22.9019,
      "duration": 0.0041,
      "velocity": 81,
      "chip": "ym2612"
    },
    {
      "channel": 0,
      "note": 53,
      "start": 22.9077,
      "duration": 0.0035,
      "velocity": 81,
      "chip": "ym2612"
    },
    {
      "channel": 1,
      "note": 78,
      "start": 22.908,
      "duration": 0.0061,
      "velocity": 105,
      "chip": "ym2612"
    },
    {
      "channel": 4,
      "note": 79,
      "start": 22.9121,
      "duration": 0.0047,
      "velocity": 105,
      "chip": "ym2612"
    },
    {
      "channel": 0,
      "note": 55,
      "start": 22.9141,
      "duration": 0.0021,
      "velocity": 81,
      "chip": "ym2612"
    },
    {
      "channel": 1,
      "note": 76,
      "start": 22.9166,
      "duration": 0.0027,
      "velocity": 105,
      "chip": "ym2612"
    },
    {
      "channel": 0,
      "note": 57,
      "start": 22.9191,
      "duration": 0.0031,
      "velocity": 81,
      "chip": "ym2612"
    },
    {
      "channel": 4,
      "note": 78,
      "start": 22.9197,
      "duration": 0.01,
      "velocity": 105,
      "chip": "ym2612"
    },
    {
      "channel": 0,
      "note": 57,
      "start": 22.9224,
      "duration": 0.0066,
      "velocity": 81,
      "chip": "ym2612"
    },
    {
      "channel": 1,
      "note": 75,
      "start": 22.9228,
      "duration": 0.8346,
      "velocity": 105,
      "chip": "ym2612"
    },
    {
      "channel": 2,
      "note": 87,
      "start": 22.9231,
      "duration": 1.2388,
      "velocity": 100,
      "chip": "ym2612"
    },
    {
      "channel": 3,
      "note": 90,
      "start": 22.9235,
      "duration": 1.2385,
      "velocity": 100,
      "chip": "ym2612"
    },
    {
      "channel": 4,
      "note": 76,
      "start": 23.0134,
      "duration": 0.0653,
      "velocity": 105,
      "chip": "ym2612"
    },
    {
      "channel": 0,
      "note": 57,
      "start": 23.0781,
      "duration": 0.0037,
      "velocity": 81,
      "chip": "ym2612"
    },
    {
      "channel": 4,
      "note": 75,
      "start": 23.0828,
      "duration": 1.0723,
      "velocity": 105,
      "chip": "ym2612"
    },
    {
      "channel": 0,
      "note": 51,
      "start": 23.288,
      "duration": 0.0051,
      "velocity": 81,
      "chip": "ym2612"
    },
    {
      "channel": 0,
      "note": 51,
      "start": 23.2933,
      "duration": 0.0051,
      "velocity": 81,
      "chip": "ym2612"
    },
    {
      "channel": 0,
      "note": 52,
      "start": 23.3027,
      "duration": 0.0816,
      "velocity": 81,
      "chip": "ym2612"
    },
    {
      "channel": 0,
      "note": 54,
      "start": 23.3883,
      "duration": 0.0033,
      "velocity": 81,
      "chip": "ym2612"
    },
    {
      "channel": 0,
      "note": 55,
      "start": 23.457,
      "duration": 0.1332,
      "velocity": 81,
      "chip": "ym2612"
    },
    {
      "channel": 0,
      "note": 57,
      "start": 23.5903,
      "duration": 0.0043,
      "velocity": 81,
      "chip": "ym2612"
    },
    {
      "channel": 0,
      "note": 57,
      "start": 23.7444,
      "duration": 0.0053,
      "velocity": 81,
      "chip": "ym2612"
    },
    {
      "channel": 0,
      "note": 51,
      "start": 23.9556,
      "duration": 0.0653,
      "velocity": 81,
      "chip": "ym2612"
    },
    {
      "channel": 1,
      "note": 69,
      "start": 23.9559,
      "duration": 0.1985,
      "velocity": 105,
      "chip": "ym2612"
    },
    {
      "channel": 0,
      "note": 51,
      "start": 24.0211,
      "duration": 0.1332,
      "velocity": 81,
      "chip": "ym2612"
    },
    {
      "channel": 1,
      "note": 71,
      "start": 24.1546,
      "duration": 0.0041,
      "velocity": 105,
      "chip": "ym2612"
    },
    {
      "channel": 0,
      "note": 52,
      "start": 24.1586,
      "duration": 0.0028,
      "velocity": 81,
      "chip": "ym2612"
    },
    {
      "channel": 1,
      "note": 72,
      "start": 24.1618,
      "duration": 0.0029,
      "velocity": 105,
      "chip": "ym2612"
    },
    {
      "channel": 4,
      "note": 69,
      "start": 24.1625,
      "duration": 0.0048,
      "velocity": 105,
      "chip": "ym2612"
    },
    {
      "channel": 0,
      "note": 54,
      "start": 24.1646,
      "duration": 0.0021,
      "velocity": 81,
      "chip": "ym2612"
    },
    {
      "channel": 1,
      "note": 75,
      "start": 24.1671,
      "duration": 0.0648,
      "velocity": 105,
      "chip": "ym2612"
    },
    {
      "channel": 4,
      "note": 71,
      "start": 24.1675,
      "duration": 0.0646,
      "velocity": 105,
      "chip": "ym2612"
    },
    {
      "channel": 0,
      "note": 55,
      "start": 24.2318,
      "duration": 0.1332,
      "velocity": 81,
      "chip": "ym2612"
    },
    {
      "channel": 0,
      "note": 58,
      "start": 24.3651,
      "duration": 0.0067,
      "velocity": 81,
      "chip": "ym2612"
    },
    {
      "channel": 1,
      "note": 78,
      "start": 24.3654,
      "duration": 0.0901,
      "velocity": 105,
      "chip": "ym2612"
    },
    {
      "channel": 2,
      "note": 88,
      "start": 24.3657,
      "duration": 1.2392,
      "velocity": 100,
      "chip": "ym2612"
    },
    {
      "channel": 3,
      "note": 91,
      "start": 24.3661,
      "duration": 1.239,
      "velocity": 100,
      "chip": "ym2612"
    },
    {
      "channel": 4,
      "note": 72,
      "start": 24.3664,
      "duration": 0.006,
      "velocity": 105,
      "chip": "ym2612"
    },
    {
      "channel": 4,
      "note": 75,
      "start": 24.4562,
      "duration": 0.065,
      "velocity": 105,
      "chip": "ym2612"
    },
    {
      "channel": 0,
      "note": 58,
      "start": 24.5205,
      "duration": 0.0042,
      "velocity": 81,
      "chip": "ym2612"
    },
    {
      "channel": 1,
      "note": 76,
      "start": 24.5208,
      "duration": 0.681,
      "velocity": 105,
      "chip": "ym2612"
    },
    {
      "channel": 4,
      "note": 78,
      "start": 24.5255,
      "duration": 0.0078,
      "velocity": 105,
      "chip": "ym2612"
    },
    {
      "channel": 4,
      "note": 76,
      "start": 24.5984,
      "duration": 1.0003,
      "velocity": 105,
      "chip": "ym2612"
    },
    {
      "channel": 0,
      "note": 52,
      "start": 24.7311,
      "duration": 0.005,
      "velocity": 81,
      "chip": "ym2612"
    },
    {
      "channel": 0,
      "note": 52,
      "start": 24.7363,
      "duration": 0.0055,
      "velocity": 81,
      "chip": "ym2612"
    },
    {
      "channel": 0,
      "note": 53,
      "start": 24.7464,
      "duration": 0.0815,
      "velocity": 81,
      "chip": "ym2612"
    },
    {
      "channel": 0,
      "note": 55,
      "start": 24.8321,
      "duration": 0.0041,
      "velocity": 81,
      "chip": "ym2612"
    },
    {
      "channel": 0,
      "note": 57,
      "start": 24.9013,
      "duration": 0.1332,
      "velocity": 81,
      "chip": "ym2612"
    },
    {
      "channel": 0,
      "note": 58,
      "start": 25.0347,
      "duration": 0.0043,
      "velocity": 81,
      "chip": "ym2612"
    },
    {
      "channel": 0,
      "note": 58,
      "start": 25.1888,
      "duration": 0.0049,
      "velocity": 81,
      "chip": "ym2612"
    },
    {
      "channel": 0,
      "note": 52,
      "start": 25.4,
      "duration": 0.0647,
      "velocity": 81,
      "chip": "ym2612"
    },
    {
      "channel": 0,
      "note": 52,
      "start": 25.4649,
      "duration": 0.1332,
      "velocity": 81,
      "chip": "ym2612"
    },
    {
      "channel": 1,
      "note": 81,
      "start": 25.4652,
      "duration": 0.133,
      "velocity": 105,
      "chip": "ym2612"
    },
    {
      "channel": 0,
      "note": 53,
      "start": 25.6006,
      "duration": 0.0041,
      "velocity": 81,
      "chip": "ym2612"
    },
    {
      "channel": 1,
      "note": 79,
      "start": 25.6009,
      "duration": 0.0039,
      "velocity": 105,
      "chip": "ym2612"
    },
    {
      "channel": 0,
      "note": 55,
      "start": 25.6064,
      "duration": 0.0029,
      "velocity": 81,
      "chip": "ym2612"
    },
    {
      "channel": 1,
      "note": 78,
      "start": 25.6067,
      "duration": 0.0026,
      "velocity": 105,
      "chip": "ym2612"
    },
    {
      "channel": 4,
      "note": 81,
      "start": 25.6071,
      "duration": 0.0024,
      "velocity": 105,
      "chip": "ym2612"
    },
    {
      "channel": 0,
      "note": 57,
      "start": 25.6737,
      "duration": 0.1332,
      "velocity": 81,
      "chip": "ym2612"
    },
    {
      "channel": 1,
      "note": 76,
      "start": 25.674,
      "duration": 0.1332,
      "velocity": 105,
      "chip": "ym2612"
    },
    {
      "channel": 4,
      "note": 79,
      "start": 25.6744,
      "duration": 0.1338,
      "velocity": 105,
      "chip": "ym2612"
    },
    {
      "channel": 0,
      "note": 57,
      "start": 25.8071,
      "duration": 0.0055,
      "velocity": 81,
      "chip": "ym2612"
    },
    {
      "channel": 1,
      "note": 76,
      "start": 25.8074,
      "duration": 0.0893,
      "velocity": 105,
      "chip": "ym2612"
    },
    {
      "channel": 2,
      "note": 87,
      "start": 25.8077,
      "duration": 1.2432,
      "velocity": 100,
      "chip": "ym2612"
    },
    {
      "channel": 3,
      "note": 90,
      "start": 25.8081,
      "duration": 1.243,
      "velocity": 100,
      "chip": "ym2612"
    },
    {
      "channel": 4,
      "note": 78,
      "start": 25.8132,
      "duration": 0.0839,
      "velocity": 105,
      "chip": "ym2612"
    },
    {
      "channel": 0,
      "note": 57,
      "start": 25.9615,
      "duration": 0.0052,
      "velocity": 81,
      "chip": "ym2612"
    },
    {
      "channel": 1,
      "note": 75,
      "start": 25.9618,
      "duration": 1.0792,
      "velocity": 105,
      "chip": "ym2612"
    },
    {
      "channel": 4,
      "note": 76,
      "start": 25.9625,
      "duration": 0.0048,
      "velocity": 105,
      "chip": "ym2612"
    },
    {
      "channel": 4,
      "note": 76,
      "start": 25.9675,
      "duration": 0.0074,
      "velocity": 105,
      "chip": "ym2612"
    },
    {
      "channel": 4,
      "note": 75,
      "start": 26.0402,
      "duration": 1.0161,
      "velocity": 105,
      "chip": "ym2612"
    },
    {
      "channel": 0,
      "note": 51,
      "start": 26.1729,
      "duration": 0.005,
      "velocity": 81,
      "chip": "ym2612"
    },
    {
      "channel": 0,
      "note": 51,
      "start": 26.1781,
      "duration": 0.0055,
      "velocity": 81,
      "chip": "ym2612"
    },
    {
      "channel": 0,
      "note": 52,
      "start": 26.1882,
      "duration": 0.0815,
      "velocity": 81,
      "chip": "ym2612"
    },
    {
      "channel": 0,
      "note": 54,
      "start": 26.2739,
      "duration": 0.0041,
      "velocity": 81,
      "chip": "ym2612"
    },
    {
      "channel": 0,
      "note": 55,
      "start": 26.3431,
      "duration": 0.1332,
      "velocity": 81,
      "chip": "ym2612"
    },
    {
      "channel": 0,
      "note": 57,
      "start": 26.4765,
      "duration": 0.0043,
      "velocity": 81,
      "chip": "ym2612"
    },
    {
      "channel": 0,
      "note": 57,
      "start": 26.6306,
      "duration": 0.0049,
      "velocity": 81,
      "chip": "ym2612"
    },
    {
      "channel": 0,
      "note": 51,
      "start": 26.8424,
      "duration": 0.0651,
      "velocity": 81,
      "chip": "ym2612"
    },
    {
      "channel": 0,
      "note": 51,
      "start": 26.9077,
      "duration": 0.1332,
      "velocity": 81,
      "chip": "ym2612"
    },
    {
      "channel": 1,
      "note": 69,
      "start": 27.0412,
      "duration": 0.0095,
      "velocity": 105,
      "chip": "ym2612"
    },
    {
      "channel": 0,
      "note": 52,
      "start": 27.046,
      "duration": 0.0046,
      "velocity": 81,
      "chip": "ym2612"
    },
    {
      "channel": 1,
      "note": 71,
      "start": 27.0509,
      "duration": 0.0026,
      "velocity": 105,
      "chip": "ym2612"
    },
    {
      "channel": 0,
      "note": 54,
      "start": 27.0534,
      "duration": 0.0023,
      "velocity": 81,
      "chip": "ym2612"
    },
    {
      "channel": 1,
      "note": 72,
      "start": 27.0562,
      "duration": 0.0646,
      "velocity": 105,
      "chip": "ym2612"
    },
    {
      "channel": 4,
      "note": 69,
      "start": 27.0566,
      "duration": 0.1985,
      "velocity": 105,
      "chip": "ym2612"
    },
    {
      "channel": 0,
      "note": 55,
      "start": 27.1206,
      "duration": 0.1332,
      "velocity": 81,
      "chip": "ym2612"
    },
    {
      "channel": 0,
      "note": 58,
      "start": 27.254,
      "duration": 0.0067,
      "velocity": 81,
      "chip": "ym2612"
    },
    {
      "channel": 1,
      "note": 72,
      "start": 27.2543,
      "duration": 0.0901,
      "velocity": 105,
      "chip": "ym2612"
    },
    {
      "channel": 2,
      "note": 88,
      "start": 27.2546,
      "duration": 1.2376,
      "velocity": 100,
      "chip": "ym2612"
    },
    {
      "channel": 3,
      "note": 91,
      "start": 27.2549,
      "duration": 1.2374,
      "velocity": 100,
      "chip": "ym2612"
    },
    {
      "channel": 4,
      "note": 71,
      "start": 27.2552,
      "duration": 0.006,
      "velocity": 105,
      "chip": "ym2612"
    },
    {
      "channel": 4,
      "note": 72,
      "start": 27.3451,
      "duration": 0.065,
      "velocity": 105,
      "chip": "ym2612"
    },
    {
      "channel": 0,
      "note": 58,
      "start": 27.4094,
      "duration": 0.0042,
      "velocity": 81,
      "chip": "ym2612"
    },
    {
      "channel": 1,
      "note": 70,
      "start": 27.4097,
      "duration": 0.6784,
      "velocity": 105,
      "chip": "ym2612"
    },
    {
      "channel": 4,
      "note": 72,
      "start": 27.4143,
      "duration": 0.0075,
      "velocity": 105,
      "chip": "ym2612"
    },
    {
      "channel": 4,
      "note": 70,
      "start": 27.487,
      "duration": 0.9986,
      "velocity": 105,
      "chip": "ym2612"
    },
    {
      "channel": 0,
      "note": 52,
      "start": 27.6198,
      "duration": 0.0047,
      "velocity": 81,
      "chip": "ym2612"
    },
    {
      "channel": 0,
      "note": 52,
      "start": 27.6246,
      "duration": 0.0049,
      "velocity": 81,
      "chip": "ym2612"
    },
    {
      "channel": 0,
      "note": 53,
      "start": 27.6343,
      "duration": 0.0815,
      "velocity": 81,
      "chip": "ym2612"
    },
    {
      "channel": 0,
      "note": 55,
      "start": 27.7197,
      "duration": 0.0039,
      "velocity": 81,
      "chip": "ym2612"
    },
    {
      "channel": 0,
      "note": 57,
      "start": 27.7887,
      "duration": 0.1332,
      "velocity": 81,
      "chip": "ym2612"
    },
    {
      "channel": 0,
      "note": 58,
      "start": 27.922,
      "duration": 0.0043,
      "velocity": 81,
      "chip": "ym2612"
    },
    {
      "channel": 0,
      "note": 58,
      "start": 28.076,
      "duration": 0.0049,
      "velocity": 81,
      "chip": "ym2612"
    },
    {
      "channel": 0,
      "note": 52,
      "start": 28.2863,
      "duration": 0.0653,
      "velocity": 81,
      "chip": "ym2612"
    },
    {
      "channel": 1,
      "note": 79,
      "start": 28.2867,
      "duration": 0.1985,
      "velocity": 105,
      "chip": "ym2612"
    },
    {
      "channel": 0,
      "note": 52,
      "start": 28.3518,
      "duration": 0.1332,
      "velocity": 81,
      "chip": "ym2612"
    },
    {
      "channel": 0,
      "note": 53,
      "start": 28.4876,
      "duration": 0.0042,
      "velocity": 81,
      "chip": "ym2612"
    },
    {
      "channel": 1,
      "note": 78,
      "start": 28.488,
      "duration": 0.0071,
      "velocity": 105,
      "chip": "ym2612"
    },
    {
      "channel": 4,
      "note": 79,
      "start": 28.4927,
      "duration": 0.0048,
      "velocity": 105,
      "chip": "ym2612"
    },
    {
      "channel": 0,
      "note": 55,
      "start": 28.495,
      "duration": 0.002,
      "velocity": 81,
      "chip": "ym2612"
    },
    {
      "channel": 1,
      "note": 76,
      "start": 28.4974,
      "duration": 0.0646,
      "velocity": 105,
      "chip": "ym2612"
    },
    {
      "channel": 0,
      "note": 57,
      "start": 28.5618,
      "duration": 0.1332,
      "velocity": 81,
      "chip": "ym2612"
    },
    {
      "channel": 4,
      "note": 78,
      "start": 28.5624,
      "duration": 0.2498,
      "velocity": 105,
      "chip": "ym2612"
    },
    {
      "channel": 0,
      "note": 57,
      "start": 28.6952,
      "duration": 0.1164,
      "velocity": 81,
      "chip": "ym2612"
    },
    {
      "channel": 2,
      "note": 87,
      "start": 28.6957,
      "duration": 3.4994,
      "velocity": 100,
      "chip": "ym2612"
    },
    {
      "channel": 3,
      "note": 90,
      "start": 28.6961,
      "duration": 3.4993,
      "velocity": 100,
      "chip": "ym2612"
    },
    {
      "channel": 4,
      "note": 76,
      "start": 28.9456,
      "duration": 0.1167,
      "velocity": 105,
      "chip": "ym2612"
    },
    {
      "channel": 0,
      "note": 57,
      "start": 29.0618,
      "duration": 0.1332,
      "velocity": 81,
      "chip": "ym2612"
    },
    {
      "channel": 0,
      "note": 51,
      "start": 29.6951,
      "duration": 0.1165,
      "velocity": 81,
      "chip": "ym2612"
    },
    {
      "channel": 0,
      "note": 51,
      "start": 29.8118,
      "duration": 0.1332,
      "velocity": 81,
      "chip": "ym2612"
    },
    {
      "channel": 0,
      "note": 52,
      "start": 30.0618,
      "duration": 0.1332,
      "velocity": 81,
      "chip": "ym2612"
    },
    {
      "channel": 0,
      "note": 54,
      "start": 30.3118,
      "duration": 0.1332,
      "velocity": 81,
      "chip": "ym2612"
    },
    {
      "channel": 0,
      "note": 55,
      "start": 30.5618,
      "duration": 0.1332,
      "velocity": 81,
      "chip": "ym2612"
    },
    {
      "channel": 0,
      "note": 57,
      "start": 30.6951,
      "duration": 0.1165,
      "velocity": 81,
      "chip": "ym2612"
    },
    {
      "channel": 0,
      "note": 57,
      "start": 31.0618,
      "duration": 0.1332,
      "velocity": 81,
      "chip": "ym2612"
    },
    {
      "channel": 0,
      "note": 51,
      "start": 31.6951,
      "duration": 0.1165,
      "velocity": 81,
      "chip": "ym2612"
    },
    {
      "channel": 0,
      "note": 51,
      "start": 31.8118,
      "duration": 0.1332,
      "velocity": 81,
      "chip": "ym2612"
    },
    {
      "channel": 0,
      "note": 52,
      "start": 32.0618,
      "duration": 0.1332,
      "velocity": 81,
      "chip": "ym2612"
    },
    {
      "channel": 0,
      "note": 54,
      "start": 32.3118,
      "duration": 0.1332,
      "velocity": 81,
      "chip": "ym2612"
    },
    {
      "channel": 0,
      "note": 55,
      "start": 32.5618,
      "duration": 0.1332,
      "velocity": 81,
      "chip": "ym2612"
    },
    {
      "channel": 0,
      "note": 58,
      "start": 32.6951,
      "duration": 0.1165,
      "velocity": 81,
      "chip": "ym2612"
    },
    {
      "channel": 2,
      "note": 88,
      "start": 32.6956,
      "duration": 3.4995,
      "velocity": 100,
      "chip": "ym2612"
    },
    {
      "channel": 3,
      "note": 91,
      "start": 32.696,
      "duration": 3.4994,
      "velocity": 100,
      "chip": "ym2612"
    },
    {
      "channel": 0,
      "note": 58,
      "start": 33.0618,
      "duration": 0.1332,
      "velocity": 81,
      "chip": "ym2612"
    },
    {
      "channel": 0,
      "note": 52,
      "start": 33.6951,
      "duration": 0.1165,
      "velocity": 81,
      "chip": "ym2612"
    },
    {
      "channel": 0,
      "note": 52,
      "start": 33.8118,
      "duration": 0.1332,
      "velocity": 81,
      "chip": "ym2612"
    },
    {
      "channel": 0,
      "note": 53,
      "start": 34.0618,
      "duration": 0.1332,
      "velocity": 81,
      "chip": "ym2612"
    },
    {
      "channel": 0,
      "note": 55,
      "start": 34.3118,
      "duration": 0.1332,
      "velocity": 81,
      "chip": "ym2612"
    },
    {
      "channel": 0,
      "note": 57,
      "start": 34.5618,
      "duration": 0.1332,
      "velocity": 81,
      "chip": "ym2612"
    },
    {
      "channel": 0,
      "note": 58,
      "start": 34.6951,
      "duration": 0.1165,
      "velocity": 81,
      "chip": "ym2612"
    },
    {
      "channel": 0,
      "note": 58,
      "start": 35.0618,
      "duration": 0.1332,
      "velocity": 81,
      "chip": "ym2612"
    },
    {
      "channel": 0,
      "note": 52,
      "start": 35.6951,
      "duration": 0.1165,
      "velocity": 81,
      "chip": "ym2612"
    },
    {
      "channel": 0,
      "note": 52,
      "start": 35.8118,
      "duration": 0.1332,
      "velocity": 81,
      "chip": "ym2612"
    },
    {
      "channel": 0,
      "note": 53,
      "start": 36.0618,
      "duration": 0.1332,
      "velocity": 81,
      "chip": "ym2612"
    },
    {
      "channel": 0,
      "note": 55,
      "start": 36.3118,
      "duration": 0.1332,
      "velocity": 81,
      "chip": "ym2612"
    },
    {
      "channel": 0,
      "note": 57,
      "start": 36.5618,
      "duration": 0.1332,
      "velocity": 81,
      "chip": "ym2612"
    },
    {
      "channel": 0,
      "note": 57,
      "start": 36.6952,
      "duration": 0.1164,
      "velocity": 81,
      "chip": "ym2612"
    },
    {
      "channel": 2,
      "note": 87,
      "start": 36.6957,
      "duration": 3.4994,
      "velocity": 100,
      "chip": "ym2612"
    },
    {
      "channel": 3,
      "note": 90,
      "start": 36.696,
      "duration": 3.4993,
      "velocity": 100,
      "chip": "ym2612"
    },
    {
      "channel": 0,
      "note": 57,
      "start": 37.0618,
      "duration": 0.1332,
      "velocity": 81,
      "chip": "ym2612"
    },
    {
      "channel": 0,
      "note": 51,
      "start": 37.6951,
      "duration": 0.1165,
      "velocity": 81,
      "chip": "ym2612"
    },
    {
      "channel": 0,
      "note": 51,
      "start": 37.8118,
      "duration": 0.1332,
      "velocity": 81,
      "chip": "ym2612"
    },
    {
      "channel": 0,
      "note": 52,
      "start": 38.0618,
      "duration": 0.1332,
      "velocity": 81,
      "chip": "ym2612"
    },
    {
      "channel": 0,
      "note": 54,
      "start": 38.3118,
      "duration": 0.1332,
      "velocity": 81,
      "chip": "ym2612"
    },
    {
      "channel": 0,
      "note": 55,
      "start": 38.5618,
      "duration": 0.1332,
      "velocity": 81,
      "chip": "ym2612"
    },
    {
      "channel": 0,
      "note": 57,
      "start": 38.6951,
      "duration": 0.1165,
      "velocity": 81,
      "chip": "ym2612"
    },
    {
      "channel": 0,
      "note": 57,
      "start": 39.0618,
      "duration": 0.1332,
      "velocity": 81,
      "chip": "ym2612"
    },
    {
      "channel": 0,
      "note": 51,
      "start": 39.6951,
      "duration": 0.1165,
      "velocity": 81,
      "chip": "ym2612"
    },
    {
      "channel": 0,
      "note": 51,
      "start": 39.8118,
      "duration": 0.1332,
      "velocity": 81,
      "chip": "ym2612"
    },
    {
      "channel": 0,
      "note": 52,
      "start": 40.0618,
      "duration": 0.1332,
      "velocity": 81,
      "chip": "ym2612"
    },
    {
      "channel": 0,
      "note": 54,
      "start": 40.3118,
      "duration": 0.1332,
      "velocity": 81,
      "chip": "ym2612"
    },
    {
      "channel": 0,
      "note": 55,
      "start": 40.5618,
      "duration": 0.1332,
      "velocity": 81,
      "chip": "ym2612"
    },
    {
      "channel": 0,
      "note": 58,
      "start": 40.6951,
      "duration": 0.1165,
      "velocity": 81,
      "chip": "ym2612"
    },
    {
      "channel": 2,
      "note": 88,
      "start": 40.6956,
      "duration": 3.4995,
      "velocity": 100,
      "chip": "ym2612"
    },
    {
      "channel": 3,
      "note": 91,
      "start": 40.696,
      "duration": 3.4994,
      "velocity": 100,
      "chip": "ym2612"
    },
    {
      "channel": 0,
      "note": 58,
      "start": 41.0618,
      "duration": 0.1332,
      "velocity": 81,
      "chip": "ym2612"
    },
    {
      "channel": 0,
      "note": 52,
      "start": 41.6951,
      "duration": 0.1165,
      "velocity": 81,
      "chip": "ym2612"
    },
    {
      "channel": 0,
      "note": 52,
      "start": 41.8118,
      "duration": 0.1332,
      "velocity": 81,
      "chip": "ym2612"
    },
    {
      "channel": 0,
      "note": 53,
      "start": 42.0618,
      "duration": 0.1332,
      "velocity": 81,
      "chip": "ym2612"
    },
    {
      "channel": 0,
      "note": 55,
      "start": 42.3118,
      "duration": 0.1332,
      "velocity": 81,
      "chip": "ym2612"
    },
    {
      "channel": 0,
      "note": 57,
      "start": 42.5618,
      "duration": 0.1332,
      "velocity": 81,
      "chip": "ym2612"
    },
    {
      "channel": 0,
      "note": 58,
      "start": 42.6951,
      "duration": 0.1165,
      "velocity": 81,
      "chip": "ym2612"
    },
    {
      "channel": 0,
      "note": 58,
      "start": 43.0618,
      "duration": 0.1332,
      "velocity": 81,
      "chip": "ym2612"
    },
    {
      "channel": 0,
      "note": 52,
      "start": 43.6951,
      "duration": 0.1165,
      "velocity": 81,
      "chip": "ym2612"
    },
    {
      "channel": 0,
      "note": 52,
      "start": 43.8118,
      "duration": 0.1332,
      "velocity": 81,
      "chip": "ym2612"
    },
    {
      "channel": 0,
      "note": 53,
      "start": 44.0618,
      "duration": 0.1332,
      "velocity": 81,
      "chip": "ym2612"
    },
    {
      "channel": 0,
      "note": 55,
      "start": 44.3118,
      "duration": 0.1332,
      "velocity": 81,
      "chip": "ym2612"
    },
    {
      "channel": 0,
      "note": 57,
      "start": 44.5618,
      "duration": 0.1332,
      "velocity": 81,
      "chip": "ym2612"
    },
    {
      "channel": 0,
      "note": 57,
      "start": 44.6952,
      "duration": 0.0652,
      "velocity": 81,
      "chip": "ym2612"
    },
    {
      "channel": 1,
      "note": 75,
      "start": 44.6955,
      "duration": 2.4412,
      "velocity": 105,
      "chip": "ym2612"
    },
    {
      "channel": 2,
      "note": 87,
      "start": 44.6959,
      "duration": 22.3017,
      "velocity": 100,
      "chip": "ym2612"
    },
    {
      "channel": 3,
      "note": 90,
      "start": 44.6962,
      "duration": 22.3014,
      "velocity": 100,
      "chip": "ym2612"
    },
    {
      "channel": 0,
      "note": 57,
      "start": 45.0106,
      "duration": 0.1332,
      "velocity": 81,
      "chip": "ym2612"
    },
    {
      "channel": 4,
      "note": 75,
      "start": 45.1446,
      "duration": 21.853,
      "velocity": 105,
      "chip": "ym2612"
    },
    {
      "channel": 0,
      "note": 51,
      "start": 45.5924,
      "duration": 0.0651,
      "velocity": 81,
      "chip": "ym2612"
    },
    {
      "channel": 0,
      "note": 51,
      "start": 45.6577,
      "duration": 0.1332,
      "velocity": 81,
      "chip": "ym2612"
    },
    {
      "channel": 0,
      "note": 52,
      "start": 45.9077,
      "duration": 0.1332,
      "velocity": 81,
      "chip": "ym2612"
    },
    {
      "channel": 0,
      "note": 54,
      "start": 46.1064,
      "duration": 0.1332,
      "velocity": 81,
      "chip": "ym2612"
    },
    {
      "channel": 0,
      "note": 55,
      "start": 46.3564,
      "duration": 0.1332,
      "velocity": 81,
      "chip": "ym2612"
    },
    {
      "channel": 0,
      "note": 57,
      "start": 46.4897,
      "duration": 0.0651,
      "velocity": 81,
      "chip": "ym2612"
    },
    {
      "channel": 0,
      "note": 57,
      "start": 46.8049,
      "duration": 0.1332,
      "velocity": 81,
      "chip": "ym2612"
    },
    {
      "channel": 0,
      "note": 51,
      "start": 47.3868,
      "duration": 19.6108,
      "velocity": 81,
      "chip": "ym2612"
    },
    {
      "channel": 1,
      "note": 69,
      "start": 47.3871,
      "duration": 19.6105,
      "velocity": 105,
      "chip": "ym2612"
    }
  ]
}