{
  "track_name": "12 - Tactics #6",
  "duration_sec": 164.24,
  "sample_rate": 44100,
  "note_count": 1129,
  "unique_pitches": 38,
  "pitch_range": 55,
  "avg_note_duration": 0.1771,
  "reconstruction_stats": {
    "notes_reconstructed": 1129,
    "keyon_events": 1129,
    "keyoff_events": 1128,
    "orphan_keyons": 1,
    "unique_pitches": 38,
    "pitch_range": 55,
    "avg_duration_sec": 0.1771
  },
  "metadata": {
    "source": "G\\Gemfire\\12 - Tactics #6.vgm"
  },
  "notes": [
    {
      "channel": 1,
      "note": 33,
      "start": 0.0,
      "duration": 0.126,
      "velocity": 127,
      "chip": "ym2612"
    },
    {
      "channel": 2,
      "note": 57,
      "start": 0.0031,
      "duration": 0.1063,
      "velocity": 94,
      "chip": "ym2612"
    },
    {
      "channel": 1,
      "note": 64,
      "start": 0.5456,
      "duration": 0.0637,
      "velocity": 113,
      "chip": "ym2612"
    },
    {
      "channel": 2,
      "note": 57,
      "start": 0.5463,
      "duration": 0.0964,
      "velocity": 94,
      "chip": "ym2612"
    },
    {
      "channel": 1,
      "note": 64,
      "start": 0.7263,
      "duration": 0.0663,
      "velocity": 113,
      "chip": "ym2612"
    },
    {
      "channel": 1,
      "note": 64,
      "start": 0.9096,
      "duration": 0.083,
      "velocity": 113,
      "chip": "ym2612"
    },
    {
      "channel": 1,
      "note": 64,
      "start": 1.0771,
      "duration": 0.0822,
      "velocity": 113,
      "chip": "ym2612"
    },
    {
      "channel": 2,
      "note": 57,
      "start": 1.0777,
      "duration": 0.0995,
      "velocity": 94,
      "chip": "ym2612"
    },
    {
      "channel": 1,
      "note": 64,
      "start": 1.6263,
      "duration": 0.0671,
      "velocity": 113,
      "chip": "ym2612"
    },
    {
      "channel": 2,
      "note": 57,
      "start": 1.6269,
      "duration": 0.0991,
      "velocity": 94,
      "chip": "ym2612"
    },
    {
      "channel": 1,
      "note": 33,
      "start": 2.1625,
      "duration": 0.0986,
      "velocity": 127,
      "chip": "ym2612"
    },
    {
      "channel": 2,
      "note": 57,
      "start": 2.1632,
      "duration": 0.0981,
      "velocity": 94,
      "chip": "ym2612"
    },
    {
      "channel": 1,
      "note": 64,
      "start": 2.7126,
      "duration": 0.0644,
      "velocity": 113,
      "chip": "ym2612"
    },
    {
      "channel": 2,
      "note": 57,
      "start": 2.7133,
      "duration": 0.0961,
      "velocity": 94,
      "chip": "ym2612"
    },
    {
      "channel": 1,
      "note": 64,
      "start": 2.8771,
      "duration": 0.0822,
      "velocity": 113,
      "chip": "ym2612"
    },
    {
      "channel": 1,
      "note": 64,
      "start": 3.0605,
      "duration": 0.0822,
      "velocity": 113,
      "chip": "ym2612"
    },
    {
      "channel": 1,
      "note": 64,
      "start": 3.2433,
      "duration": 0.0827,
      "velocity": 113,
      "chip": "ym2612"
    },
    {
      "channel": 2,
      "note": 57,
      "start": 3.2439,
      "duration": 0.0988,
      "velocity": 94,
      "chip": "ym2612"
    },
    {
      "channel": 1,
      "note": 64,
      "start": 3.4263,
      "duration": 0.0497,
      "velocity": 113,
      "chip": "ym2612"
    },
    {
      "channel": 1,
      "note": 64,
      "start": 3.6096,
      "duration": 0.0671,
      "velocity": 113,
      "chip": "ym2612"
    },
    {
      "channel": 1,
      "note": 64,
      "start": 3.7774,
      "duration": 0.0819,
      "velocity": 113,
      "chip": "ym2612"
    },
    {
      "channel": 2,
      "note": 57,
      "start": 3.778,
      "duration": 0.0988,
      "velocity": 94,
      "chip": "ym2612"
    },
    {
      "channel": 1,
      "note": 33,
      "start": 4.3293,
      "duration": 0.1155,
      "velocity": 127,
      "chip": "ym2612"
    },
    {
      "channel": 2,
      "note": 57,
      "start": 4.3299,
      "duration": 0.0961,
      "velocity": 94,
      "chip": "ym2612"
    },
    {
      "channel": 1,
      "note": 64,
      "start": 4.8642,
      "duration": 0.0626,
      "velocity": 113,
      "chip": "ym2612"
    },
    {
      "channel": 2,
      "note": 57,
      "start": 4.8647,
      "duration": 0.0954,
      "velocity": 94,
      "chip": "ym2612"
    },
    {
      "channel": 1,
      "note": 64,
      "start": 5.0433,
      "duration": 0.066,
      "velocity": 113,
      "chip": "ym2612"
    },
    {
      "channel": 1,
      "note": 64,
      "start": 5.2263,
      "duration": 0.0841,
      "velocity": 113,
      "chip": "ym2612"
    },
    {
      "channel": 1,
      "note": 64,
      "start": 5.4096,
      "duration": 0.0671,
      "velocity": 113,
      "chip": "ym2612"
    },
    {
      "channel": 2,
      "note": 57,
      "start": 5.4103,
      "duration": 0.0991,
      "velocity": 94,
      "chip": "ym2612"
    },
    {
      "channel": 1,
      "note": 64,
      "start": 5.943,
      "duration": 0.083,
      "velocity": 113,
      "chip": "ym2612"
    },
    {
      "channel": 2,
      "note": 57,
      "start": 5.9436,
      "duration": 0.0992,
      "velocity": 94,
      "chip": "ym2612"
    },
    {
      "channel": 1,
      "note": 33,
      "start": 6.48,
      "duration": 0.1127,
      "velocity": 127,
      "chip": "ym2612"
    },
    {
      "channel": 2,
      "note": 57,
      "start": 6.4806,
      "duration": 0.1122,
      "velocity": 94,
      "chip": "ym2612"
    },
    {
      "channel": 1,
      "note": 64,
      "start": 7.029,
      "duration": 0.0803,
      "velocity": 113,
      "chip": "ym2612"
    },
    {
      "channel": 2,
      "note": 57,
      "start": 7.0296,
      "duration": 0.0964,
      "velocity": 94,
      "chip": "ym2612"
    },
    {
      "channel": 1,
      "note": 64,
      "start": 7.2096,
      "duration": 0.0671,
      "velocity": 113,
      "chip": "ym2612"
    },
    {
      "channel": 1,
      "note": 64,
      "start": 7.3774,
      "duration": 0.0827,
      "velocity": 113,
      "chip": "ym2612"
    },
    {
      "channel": 1,
      "note": 64,
      "start": 7.5605,
      "duration": 0.0822,
      "velocity": 113,
      "chip": "ym2612"
    },
    {
      "channel": 2,
      "note": 57,
      "start": 7.561,
      "duration": 0.0991,
      "velocity": 94,
      "chip": "ym2612"
    },
    {
      "channel": 1,
      "note": 64,
      "start": 7.743,
      "duration": 0.0505,
      "velocity": 113,
      "chip": "ym2612"
    },
    {
      "channel": 1,
      "note": 64,
      "start": 7.9263,
      "duration": 0.083,
      "velocity": 113,
      "chip": "ym2612"
    },
    {
      "channel": 1,
      "note": 64,
      "start": 8.11,
      "duration": 0.0671,
      "velocity": 113,
      "chip": "ym2612"
    },
    {
      "channel": 2,
      "note": 57,
      "start": 8.1106,
      "duration": 0.0988,
      "velocity": 94,
      "chip": "ym2612"
    },
    {
      "channel": 0,
      "note": 57,
      "start": 8.6432,
      "duration": 1.366,
      "velocity": 103,
      "chip": "ym2612"
    },
    {
      "channel": 1,
      "note": 33,
      "start": 8.6466,
      "duration": 0.1294,
      "velocity": 127,
      "chip": "ym2612"
    },
    {
      "channel": 2,
      "note": 57,
      "start": 8.6472,
      "duration": 0.0975,
      "velocity": 94,
      "chip": "ym2612"
    },
    {
      "channel": 1,
      "note": 64,
      "start": 9.1957,
      "duration": 0.0636,
      "velocity": 113,
      "chip": "ym2612"
    },
    {
      "channel": 2,
      "note": 57,
      "start": 9.1963,
      "duration": 0.0964,
      "velocity": 94,
      "chip": "ym2612"
    },
    {
      "channel": 1,
      "note": 64,
      "start": 9.3665,
      "duration": 0.0644,
      "velocity": 113,
      "chip": "ym2612"
    },
    {
      "channel": 1,
      "note": 64,
      "start": 9.543,
      "duration": 0.0997,
      "velocity": 113,
      "chip": "ym2612"
    },
    {
      "channel": 1,
      "note": 64,
      "start": 9.7263,
      "duration": 0.083,
      "velocity": 113,
      "chip": "ym2612"
    },
    {
      "channel": 2,
      "note": 57,
      "start": 9.7269,
      "duration": 0.0991,
      "velocity": 94,
      "chip": "ym2612"
    },
    {
      "channel": 0,
      "note": 57,
      "start": 10.2655,
      "duration": 0.1271,
      "velocity": 103,
      "chip": "ym2612"
    },
    {
      "channel": 1,
      "note": 64,
      "start": 10.2661,
      "duration": 0.0765,
      "velocity": 113,
      "chip": "ym2612"
    },
    {
      "channel": 2,
      "note": 57,
      "start": 10.2667,
      "duration": 0.0936,
      "velocity": 94,
      "chip": "ym2612"
    },
    {
      "channel": 0,
      "note": 60,
      "start": 10.4432,
      "duration": 0.1003,
      "velocity": 103,
      "chip": "ym2612"
    },
    {
      "channel": 0,
      "note": 64,
      "start": 10.6263,
      "duration": 0.1163,
      "velocity": 103,
      "chip": "ym2612"
    },
    {
      "channel": 0,
      "note": 69,
      "start": 10.8096,
      "duration": 0.1663,
      "velocity": 103,
      "chip": "ym2612"
    },
    {
      "channel": 1,
      "note": 33,
      "start": 10.8129,
      "duration": 0.0964,
      "velocity": 127,
      "chip": "ym2612"
    },
    {
      "channel": 2,
      "note": 57,
      "start": 10.8135,
      "duration": 0.0963,
      "velocity": 94,
      "chip": "ym2612"
    },
    {
      "channel": 0,
      "note": 67,
      "start": 11.3482,
      "duration": 0.7778,
      "velocity": 103,
      "chip": "ym2612"
    },
    {
      "channel": 1,
      "note": 64,
      "start": 11.3515,
      "duration": 0.0745,
      "velocity": 113,
      "chip": "ym2612"
    },
    {
      "channel": 2,
      "note": 57,
      "start": 11.3521,
      "duration": 0.0919,
      "velocity": 94,
      "chip": "ym2612"
    },
    {
      "channel": 1,
      "note": 64,
      "start": 11.5263,
      "duration": 0.083,
      "velocity": 113,
      "chip": "ym2612"
    },
    {
      "channel": 1,
      "note": 64,
      "start": 11.71,
      "duration": 0.0827,
      "velocity": 113,
      "chip": "ym2612"
    },
    {
      "channel": 1,
      "note": 64,
      "start": 11.893,
      "duration": 0.0706,
      "velocity": 113,
      "chip": "ym2612"
    },
    {
      "channel": 2,
      "note": 57,
      "start": 11.8936,
      "duration": 0.0991,
      "velocity": 94,
      "chip": "ym2612"
    },
    {
      "channel": 1,
      "note": 64,
      "start": 12.0665,
      "duration": 0.0595,
      "velocity": 113,
      "chip": "ym2612"
    },
    {
      "channel": 0,
      "note": 65,
      "start": 12.2491,
      "duration": 0.0944,
      "velocity": 103,
      "chip": "ym2612"
    },
    {
      "channel": 1,
      "note": 64,
      "start": 12.2497,
      "duration": 0.0763,
      "velocity": 113,
      "chip": "ym2612"
    },
    {
      "channel": 0,
      "note": 67,
      "start": 12.4263,
      "duration": 0.1163,
      "velocity": 103,
      "chip": "ym2612"
    },
    {
      "channel": 1,
      "note": 64,
      "start": 12.4269,
      "duration": 0.0824,
      "velocity": 113,
      "chip": "ym2612"
    },
    {
      "channel": 2,
      "note": 57,
      "start": 12.4275,
      "duration": 0.0986,
      "velocity": 94,
      "chip": "ym2612"
    },
    {
      "channel": 0,
      "note": 65,
      "start": 12.6096,
      "duration": 0.084,
      "velocity": 103,
      "chip": "ym2612"
    },
    {
      "channel": 0,
      "note": 64,
      "start": 12.7929,
      "duration": 0.083,
      "velocity": 103,
      "chip": "ym2612"
    },
    {
      "channel": 0,
      "note": 64,
      "start": 12.9605,
      "duration": 1.3203,
      "velocity": 103,
      "chip": "ym2612"
    },
    {
      "channel": 1,
      "note": 33,
      "start": 12.964,
      "duration": 0.112,
      "velocity": 127,
      "chip": "ym2612"
    },
    {
      "channel": 2,
      "note": 60,
      "start": 12.9647,
      "duration": 0.1134,
      "velocity": 94,
      "chip": "ym2612"
    },
    {
      "channel": 1,
      "note": 64,
      "start": 13.5126,
      "duration": 0.0634,
      "velocity": 113,
      "chip": "ym2612"
    },
    {
      "channel": 2,
      "note": 60,
      "start": 13.5133,
      "duration": 0.0961,
      "velocity": 94,
      "chip": "ym2612"
    },
    {
      "channel": 1,
      "note": 64,
      "start": 13.693,
      "duration": 0.0497,
      "velocity": 113,
      "chip": "ym2612"
    },
    {
      "channel": 1,
      "note": 64,
      "start": 13.8656,
      "duration": 0.083,
      "velocity": 113,
      "chip": "ym2612"
    },
    {
      "channel": 1,
      "note": 64,
      "start": 14.0491,
      "duration": 0.0768,
      "velocity": 113,
      "chip": "ym2612"
    },
    {
      "channel": 2,
      "note": 60,
      "start": 14.0498,
      "duration": 0.0978,
      "velocity": 94,
      "chip": "ym2612"
    },
    {
      "channel": 0,
      "note": 60,
      "start": 14.5929,
      "duration": 0.1663,
      "velocity": 103,
      "chip": "ym2612"
    },
    {
      "channel": 1,
      "note": 64,
      "start": 14.5936,
      "duration": 0.0658,
      "velocity": 113,
      "chip": "ym2612"
    },
    {
      "channel": 2,
      "note": 60,
      "start": 14.5941,
      "duration": 0.0663,
      "velocity": 94,
      "chip": "ym2612"
    },
    {
      "channel": 0,
      "note": 64,
      "start": 14.7607,
      "duration": 0.1485,
      "velocity": 103,
      "chip": "ym2612"
    },
    {
      "channel": 0,
      "note": 67,
      "start": 14.9439,
      "duration": 0.0987,
      "velocity": 103,
      "chip": "ym2612"
    },
    {
      "channel": 0,
      "note": 74,
      "start": 15.1263,
      "duration": 0.083,
      "velocity": 103,
      "chip": "ym2612"
    },
    {
      "channel": 1,
      "note": 33,
      "start": 15.1297,
      "duration": 0.0963,
      "velocity": 127,
      "chip": "ym2612"
    },
    {
      "channel": 2,
      "note": 60,
      "start": 15.1302,
      "duration": 0.0812,
      "velocity": 94,
      "chip": "ym2612"
    },
    {
      "channel": 0,
      "note": 74,
      "start": 15.3099,
      "duration": 0.0827,
      "velocity": 103,
      "chip": "ym2612"
    },
    {
      "channel": 0,
      "note": 74,
      "start": 15.4929,
      "duration": 0.0997,
      "velocity": 103,
      "chip": "ym2612"
    },
    {
      "channel": 0,
      "note": 72,
      "start": 15.6763,
      "duration": 0.9163,
      "velocity": 103,
      "chip": "ym2612"
    },
    {
      "channel": 1,
      "note": 64,
      "start": 15.6795,
      "duration": 0.0631,
      "velocity": 113,
      "chip": "ym2612"
    },
    {
      "channel": 2,
      "note": 60,
      "start": 15.6802,
      "duration": 0.0792,
      "velocity": 94,
      "chip": "ym2612"
    },
    {
      "channel": 1,
      "note": 64,
      "start": 15.8442,
      "duration": 0.0651,
      "velocity": 113,
      "chip": "ym2612"
    },
    {
      "channel": 1,
      "note": 64,
      "start": 16.0263,
      "duration": 0.083,
      "velocity": 113,
      "chip": "ym2612"
    },
    {
      "channel": 1,
      "note": 64,
      "start": 16.2096,
      "duration": 0.083,
      "velocity": 113,
      "chip": "ym2612"
    },
    {
      "channel": 2,
      "note": 60,
      "start": 16.2103,
      "duration": 0.0991,
      "velocity": 94,
      "chip": "ym2612"
    },
    {
      "channel": 0,
      "note": 72,
      "start": 16.7488,
      "duration": 0.2938,
      "velocity": 103,
      "chip": "ym2612"
    },
    {
      "channel": 1,
      "note": 64,
      "start": 16.7494,
      "duration": 0.0609,
      "velocity": 113,
      "chip": "ym2612"
    },
    {
      "channel": 2,
      "note": 60,
      "start": 16.75,
      "duration": 0.094,
      "velocity": 94,
      "chip": "ym2612"
    },
    {
      "channel": 0,
      "note": 74,
      "start": 17.1099,
      "duration": 0.0994,
      "velocity": 103,
      "chip": "ym2612"
    },
    {
      "channel": 0,
      "note": 76,
      "start": 17.2929,
      "duration": 0.1183,
      "velocity": 103,
      "chip": "ym2612"
    },
    {
      "channel": 1,
      "note": 33,
      "start": 17.2963,
      "duration": 0.0963,
      "velocity": 127,
      "chip": "ym2612"
    },
    {
      "channel": 2,
      "note": 62,
      "start": 17.2969,
      "duration": 0.0791,
      "velocity": 94,
      "chip": "ym2612"
    },
    {
      "channel": 0,
      "note": 73,
      "start": 17.6476,
      "duration": 0.0951,
      "velocity": 103,
      "chip": "ym2612"
    },
    {
      "channel": 0,
      "note": 69,
      "start": 17.8263,
      "duration": 0.9055,
      "velocity": 103,
      "chip": "ym2612"
    },
    {
      "channel": 1,
      "note": 64,
      "start": 17.8295,
      "duration": 0.0641,
      "velocity": 113,
      "chip": "ym2612"
    },
    {
      "channel": 2,
      "note": 62,
      "start": 17.8302,
      "duration": 0.0968,
      "velocity": 94,
      "chip": "ym2612"
    },
    {
      "channel": 1,
      "note": 64,
      "start": 18.0096,
      "duration": 0.0506,
      "velocity": 113,
      "chip": "ym2612"
    },
    {
      "channel": 1,
      "note": 64,
      "start": 18.193,
      "duration": 0.083,
      "velocity": 113,
      "chip": "ym2612"
    },
    {
      "channel": 1,
      "note": 64,
      "start": 18.3766,
      "duration": 0.0713,
      "velocity": 113,
      "chip": "ym2612"
    },
    {
      "channel": 2,
      "note": 62,
      "start": 18.3773,
      "duration": 0.0821,
      "velocity": 94,
      "chip": "ym2612"
    },
    {
      "channel": 0,
      "note": 69,
      "start": 18.9099,
      "duration": 0.0827,
      "velocity": 103,
      "chip": "ym2612"
    },
    {
      "channel": 1,
      "note": 64,
      "start": 18.9105,
      "duration": 0.0654,
      "velocity": 113,
      "chip": "ym2612"
    },
    {
      "channel": 2,
      "note": 62,
      "start": 18.9111,
      "duration": 0.0983,
      "velocity": 94,
      "chip": "ym2612"
    },
    {
      "channel": 0,
      "note": 69,
      "start": 19.0929,
      "duration": 0.0997,
      "velocity": 103,
      "chip": "ym2612"
    },
    {
      "channel": 0,
      "note": 71,
      "start": 19.2763,
      "duration": 0.0673,
      "velocity": 103,
      "chip": "ym2612"
    },
    {
      "channel": 0,
      "note": 72,
      "start": 19.4442,
      "duration": 0.6984,
      "velocity": 103,
      "chip": "ym2612"
    },
    {
      "channel": 1,
      "note": 33,
      "start": 19.4476,
      "duration": 0.0971,
      "velocity": 127,
      "chip": "ym2612"
    },
    {
      "channel": 2,
      "note": 65,
      "start": 19.4482,
      "duration": 0.0779,
      "velocity": 94,
      "chip": "ym2612"
    },
    {
      "channel": 1,
      "note": 64,
      "start": 19.9957,
      "duration": 0.0636,
      "velocity": 113,
      "chip": "ym2612"
    },
    {
      "channel": 2,
      "note": 65,
      "start": 19.9963,
      "duration": 0.0964,
      "velocity": 94,
      "chip": "ym2612"
    },
    {
      "channel": 1,
      "note": 64,
      "start": 20.1766,
      "duration": 0.0494,
      "velocity": 113,
      "chip": "ym2612"
    },
    {
      "channel": 0,
      "note": 72,
      "start": 20.3488,
      "duration": 0.0938,
      "velocity": 103,
      "chip": "ym2612"
    },
    {
      "channel": 1,
      "note": 64,
      "start": 20.3494,
      "duration": 0.0766,
      "velocity": 113,
      "chip": "ym2612"
    },
    {
      "channel": 0,
      "note": 74,
      "start": 20.5272,
      "duration": 0.1663,
      "velocity": 103,
      "chip": "ym2612"
    },
    {
      "channel": 1,
      "note": 64,
      "start": 20.5278,
      "duration": 0.0815,
      "velocity": 113,
      "chip": "ym2612"
    },
    {
      "channel": 2,
      "note": 67,
      "start": 20.5284,
      "duration": 0.0986,
      "velocity": 94,
      "chip": "ym2612"
    },
    {
      "channel": 0,
      "note": 74,
      "start": 21.0763,
      "duration": 0.0997,
      "velocity": 103,
      "chip": "ym2612"
    },
    {
      "channel": 1,
      "note": 64,
      "start": 21.0769,
      "duration": 0.0658,
      "velocity": 113,
      "chip": "ym2612"
    },
    {
      "channel": 2,
      "note": 67,
      "start": 21.0775,
      "duration": 0.0999,
      "velocity": 94,
      "chip": "ym2612"
    },
    {
      "channel": 0,
      "note": 72,
      "start": 21.2442,
      "duration": 0.0984,
      "velocity": 103,
      "chip": "ym2612"
    },
    {
      "channel": 0,
      "note": 74,
      "start": 21.4272,
      "duration": 0.0987,
      "velocity": 103,
      "chip": "ym2612"
    },
    {
      "channel": 0,
      "note": 77,
      "start": 21.6096,
      "duration": 0.1183,
      "velocity": 103,
      "chip": "ym2612"
    },
    {
      "channel": 1,
      "note": 33,
      "start": 21.613,
      "duration": 0.0963,
      "velocity": 127,
      "chip": "ym2612"
    },
    {
      "channel": 2,
      "note": 62,
      "start": 21.6136,
      "duration": 0.0791,
      "velocity": 94,
      "chip": "ym2612"
    },
    {
      "channel": 0,
      "note": 76,
      "start": 22.1482,
      "duration": 1.1611,
      "velocity": 103,
      "chip": "ym2612"
    },
    {
      "channel": 1,
      "note": 64,
      "start": 22.1514,
      "duration": 0.0746,
      "velocity": 113,
      "chip": "ym2612"
    },
    {
      "channel": 2,
      "note": 64,
      "start": 22.1521,
      "duration": 0.1073,
      "velocity": 94,
      "chip": "ym2612"
    },
    {
      "channel": 1,
      "note": 64,
      "start": 22.3273,
      "duration": 0.0654,
      "velocity": 113,
      "chip": "ym2612"
    },
    {
      "channel": 1,
      "note": 64,
      "start": 22.51,
      "duration": 0.0827,
      "velocity": 113,
      "chip": "ym2612"
    },
    {
      "channel": 1,
      "note": 64,
      "start": 22.693,
      "duration": 0.083,
      "velocity": 113,
      "chip": "ym2612"
    },
    {
      "channel": 2,
      "note": 64,
      "start": 22.6936,
      "duration": 0.1158,
      "velocity": 94,
      "chip": "ym2612"
    },
    {
      "channel": 1,
      "note": 64,
      "start": 23.2322,
      "duration": 0.0663,
      "velocity": 113,
      "chip": "ym2612"
    },
    {
      "channel": 2,
      "note": 64,
      "start": 23.2328,
      "duration": 0.1266,
      "velocity": 94,
      "chip": "ym2612"
    },
    {
      "channel": 0,
      "note": 62,
      "start": 23.5929,
      "duration": 0.051,
      "velocity": 103,
      "chip": "ym2612"
    },
    {
      "channel": 0,
      "note": 62,
      "start": 23.7766,
      "duration": 0.3537,
      "velocity": 103,
      "chip": "ym2612"
    },
    {
      "channel": 1,
      "note": 33,
      "start": 23.78,
      "duration": 0.0793,
      "velocity": 127,
      "chip": "ym2612"
    },
    {
      "channel": 2,
      "note": 62,
      "start": 23.7806,
      "duration": 0.0644,
      "velocity": 94,
      "chip": "ym2612"
    },
    {
      "channel": 0,
      "note": 64,
      "start": 24.1306,
      "duration": 0.0787,
      "velocity": 103,
      "chip": "ym2612"
    },
    {
      "channel": 0,
      "note": 64,
      "start": 24.3099,
      "duration": 0.1019,
      "velocity": 103,
      "chip": "ym2612"
    },
    {
      "channel": 1,
      "note": 64,
      "start": 24.3132,
      "duration": 0.0795,
      "velocity": 113,
      "chip": "ym2612"
    },
    {
      "channel": 2,
      "note": 64,
      "start": 24.3138,
      "duration": 0.1318,
      "velocity": 94,
      "chip": "ym2612"
    },
    {
      "channel": 1,
      "note": 64,
      "start": 24.493,
      "duration": 0.083,
      "velocity": 113,
      "chip": "ym2612"
    },
    {
      "channel": 0,
      "note": 74,
      "start": 24.6763,
      "duration": 0.0496,
      "velocity": 103,
      "chip": "ym2612"
    },
    {
      "channel": 1,
      "note": 64,
      "start": 24.6769,
      "duration": 0.0824,
      "velocity": 113,
      "chip": "ym2612"
    },
    {
      "channel": 0,
      "note": 74,
      "start": 24.8596,
      "duration": 0.3497,
      "velocity": 103,
      "chip": "ym2612"
    },
    {
      "channel": 1,
      "note": 64,
      "start": 24.8602,
      "duration": 0.0667,
      "velocity": 113,
      "chip": "ym2612"
    },
    {
      "channel": 2,
      "note": 74,
      "start": 24.8609,
      "duration": 0.0985,
      "velocity": 94,
      "chip": "ym2612"
    },
    {
      "channel": 1,
      "note": 64,
      "start": 25.0273,
      "duration": 0.0821,
      "velocity": 113,
      "chip": "ym2612"
    },
    {
      "channel": 0,
      "note": 76,
      "start": 25.2096,
      "duration": 0.083,
      "velocity": 103,
      "chip": "ym2612"
    },
    {
      "channel": 1,
      "note": 64,
      "start": 25.2102,
      "duration": 0.0825,
      "velocity": 113,
      "chip": "ym2612"
    },
    {
      "channel": 0,
      "note": 76,
      "start": 25.3929,
      "duration": 0.1176,
      "velocity": 103,
      "chip": "ym2612"
    },
    {
      "channel": 1,
      "note": 64,
      "start": 25.3936,
      "duration": 0.0658,
      "velocity": 113,
      "chip": "ym2612"
    },
    {
      "channel": 2,
      "note": 76,
      "start": 25.3941,
      "duration": 0.0986,
      "velocity": 94,
      "chip": "ym2612"
    },
    {
      "channel": 0,
      "note": 57,
      "start": 25.9305,
      "duration": 1.2621,
      "velocity": 103,
      "chip": "ym2612"
    },
    {
      "channel": 1,
      "note": 33,
      "start": 25.9338,
      "duration": 0.1088,
      "velocity": 127,
      "chip": "ym2612"
    },
    {
      "channel": 2,
      "note": 57,
      "start": 25.9344,
      "duration": 0.0583,
      "velocity": 94,
      "chip": "ym2612"
    },
    {
      "channel": 1,
      "note": 64,
      "start": 26.479,
      "duration": 0.0636,
      "velocity": 113,
      "chip": "ym2612"
    },
    {
      "channel": 2,
      "note": 57,
      "start": 26.4796,
      "duration": 0.0964,
      "velocity": 94,
      "chip": "ym2612"
    },
    {
      "channel": 1,
      "note": 64,
      "start": 26.6596,
      "duration": 0.0663,
      "velocity": 113,
      "chip": "ym2612"
    },
    {
      "channel": 1,
      "note": 64,
      "start": 26.8322,
      "duration": 0.0938,
      "velocity": 113,
      "chip": "ym2612"
    },
    {
      "channel": 1,
      "note": 64,
      "start": 27.0156,
      "duration": 0.0771,
      "velocity": 113,
      "chip": "ym2612"
    },
    {
      "channel": 2,
      "note": 57,
      "start": 27.0161,
      "duration": 0.0985,
      "velocity": 94,
      "chip": "ym2612"
    },
    {
      "channel": 0,
      "note": 57,
      "start": 27.5596,
      "duration": 0.1163,
      "velocity": 103,
      "chip": "ym2612"
    },
    {
      "channel": 1,
      "note": 64,
      "start": 27.5602,
      "duration": 0.0667,
      "velocity": 113,
      "chip": "ym2612"
    },
    {
      "channel": 2,
      "note": 57,
      "start": 27.5608,
      "duration": 0.0819,
      "velocity": 94,
      "chip": "ym2612"
    },
    {
      "channel": 0,
      "note": 60,
      "start": 27.7272,
      "duration": 0.1154,
      "velocity": 103,
      "chip": "ym2612"
    },
    {
      "channel": 0,
      "note": 64,
      "start": 27.9109,
      "duration": 0.0994,
      "velocity": 103,
      "chip": "ym2612"
    },
    {
      "channel": 0,
      "note": 69,
      "start": 28.0929,
      "duration": 0.133,
      "velocity": 103,
      "chip": "ym2612"
    },
    {
      "channel": 1,
      "note": 33,
      "start": 28.0962,
      "duration": 0.0821,
      "velocity": 127,
      "chip": "ym2612"
    },
    {
      "channel": 2,
      "note": 57,
      "start": 28.0968,
      "duration": 0.0959,
      "velocity": 94,
      "chip": "ym2612"
    },
    {
      "channel": 0,
      "note": 67,
      "start": 28.6315,
      "duration": 0.7778,
      "velocity": 103,
      "chip": "ym2612"
    },
    {
      "channel": 1,
      "note": 64,
      "start": 28.6348,
      "duration": 0.0745,
      "velocity": 113,
      "chip": "ym2612"
    },
    {
      "channel": 2,
      "note": 57,
      "start": 28.6354,
      "duration": 0.1073,
      "velocity": 94,
      "chip": "ym2612"
    },
    {
      "channel": 1,
      "note": 64,
      "start": 28.8106,
      "duration": 0.0663,
      "velocity": 113,
      "chip": "ym2612"
    },
    {
      "channel": 1,
      "note": 64,
      "start": 28.993,
      "duration": 0.083,
      "velocity": 113,
      "chip": "ym2612"
    },
    {
      "channel": 1,
      "note": 64,
      "start": 29.1766,
      "duration": 0.0827,
      "velocity": 113,
      "chip": "ym2612"
    },
    {
      "channel": 2,
      "note": 57,
      "start": 29.1773,
      "duration": 0.1321,
      "velocity": 94,
      "chip": "ym2612"
    },
    {
      "channel": 1,
      "note": 64,
      "start": 29.3596,
      "duration": 0.0712,
      "velocity": 113,
      "chip": "ym2612"
    },
    {
      "channel": 0,
      "note": 65,
      "start": 29.5322,
      "duration": 0.1105,
      "velocity": 103,
      "chip": "ym2612"
    },
    {
      "channel": 1,
      "note": 64,
      "start": 29.5328,
      "duration": 0.0765,
      "velocity": 113,
      "chip": "ym2612"
    },
    {
      "channel": 0,
      "note": 67,
      "start": 29.7109,
      "duration": 0.0994,
      "velocity": 103,
      "chip": "ym2612"
    },
    {
      "channel": 1,
      "note": 64,
      "start": 29.7114,
      "duration": 0.0812,
      "velocity": 113,
      "chip": "ym2612"
    },
    {
      "channel": 2,
      "note": 57,
      "start": 29.712,
      "duration": 0.132,
      "velocity": 94,
      "chip": "ym2612"
    },
    {
      "channel": 0,
      "note": 65,
      "start": 29.8929,
      "duration": 0.0997,
      "velocity": 103,
      "chip": "ym2612"
    },
    {
      "channel": 0,
      "note": 64,
      "start": 30.0763,
      "duration": 0.0997,
      "velocity": 103,
      "chip": "ym2612"
    },
    {
      "channel": 0,
      "note": 64,
      "start": 30.2596,
      "duration": 1.1997,
      "velocity": 103,
      "chip": "ym2612"
    },
    {
      "channel": 1,
      "note": 33,
      "start": 30.2629,
      "duration": 0.065,
      "velocity": 127,
      "chip": "ym2612"
    },
    {
      "channel": 2,
      "note": 60,
      "start": 30.2636,
      "duration": 0.0958,
      "velocity": 94,
      "chip": "ym2612"
    },
    {
      "channel": 1,
      "note": 64,
      "start": 30.7957,
      "duration": 0.0803,
      "velocity": 113,
      "chip": "ym2612"
    },
    {
      "channel": 2,
      "note": 60,
      "start": 30.7963,
      "duration": 0.1298,
      "velocity": 94,
      "chip": "ym2612"
    },
    {
      "channel": 1,
      "note": 64,
      "start": 30.9766,
      "duration": 0.0827,
      "velocity": 113,
      "chip": "ym2612"
    },
    {
      "channel": 1,
      "note": 64,
      "start": 31.1596,
      "duration": 0.0723,
      "velocity": 113,
      "chip": "ym2612"
    },
    {
      "channel": 1,
      "note": 64,
      "start": 31.343,
      "duration": 0.0663,
      "velocity": 113,
      "chip": "ym2612"
    },
    {
      "channel": 2,
      "note": 60,
      "start": 31.3436,
      "duration": 0.0991,
      "velocity": 94,
      "chip": "ym2612"
    },
    {
      "channel": 0,
      "note": 60,
      "start": 31.8763,
      "duration": 0.1163,
      "velocity": 103,
      "chip": "ym2612"
    },
    {
      "channel": 1,
      "note": 64,
      "start": 31.8769,
      "duration": 0.0824,
      "velocity": 113,
      "chip": "ym2612"
    },
    {
      "channel": 2,
      "note": 60,
      "start": 31.8775,
      "duration": 0.0986,
      "velocity": 94,
      "chip": "ym2612"
    },
    {
      "channel": 0,
      "note": 64,
      "start": 32.0596,
      "duration": 0.1163,
      "velocity": 103,
      "chip": "ym2612"
    },
    {
      "channel": 0,
      "note": 67,
      "start": 32.2432,
      "duration": 0.0994,
      "velocity": 103,
      "chip": "ym2612"
    },
    {
      "channel": 0,
      "note": 74,
      "start": 32.4105,
      "duration": 0.0821,
      "velocity": 103,
      "chip": "ym2612"
    },
    {
      "channel": 1,
      "note": 33,
      "start": 32.414,
      "duration": 0.0788,
      "velocity": 127,
      "chip": "ym2612"
    },
    {
      "channel": 2,
      "note": 60,
      "start": 32.4145,
      "duration": 0.0971,
      "velocity": 94,
      "chip": "ym2612"
    },
    {
      "channel": 0,
      "note": 74,
      "start": 32.5929,
      "duration": 0.083,
      "velocity": 103,
      "chip": "ym2612"
    },
    {
      "channel": 0,
      "note": 74,
      "start": 32.7766,
      "duration": 0.0994,
      "velocity": 103,
      "chip": "ym2612"
    },
    {
      "channel": 0,
      "note": 72,
      "start": 32.9596,
      "duration": 0.883,
      "velocity": 103,
      "chip": "ym2612"
    },
    {
      "channel": 1,
      "note": 64,
      "start": 32.9629,
      "duration": 0.0641,
      "velocity": 113,
      "chip": "ym2612"
    },
    {
      "channel": 2,
      "note": 60,
      "start": 32.9635,
      "duration": 0.0959,
      "velocity": 94,
      "chip": "ym2612"
    },
    {
      "channel": 1,
      "note": 64,
      "start": 33.143,
      "duration": 0.0673,
      "velocity": 113,
      "chip": "ym2612"
    },
    {
      "channel": 1,
      "note": 64,
      "start": 33.3133,
      "duration": 0.0794,
      "velocity": 113,
      "chip": "ym2612"
    },
    {
      "channel": 1,
      "note": 64,
      "start": 33.493,
      "duration": 0.0706,
      "velocity": 113,
      "chip": "ym2612"
    },
    {
      "channel": 2,
      "note": 60,
      "start": 33.4936,
      "duration": 0.104,
      "velocity": 94,
      "chip": "ym2612"
    },
    {
      "channel": 0,
      "note": 72,
      "start": 34.0432,
      "duration": 0.0673,
      "velocity": 103,
      "chip": "ym2612"
    },
    {
      "channel": 1,
      "note": 64,
      "start": 34.0439,
      "duration": 0.0668,
      "velocity": 113,
      "chip": "ym2612"
    },
    {
      "channel": 2,
      "note": 60,
      "start": 34.0444,
      "duration": 0.1149,
      "velocity": 94,
      "chip": "ym2612"
    },
    {
      "channel": 0,
      "note": 72,
      "start": 34.2105,
      "duration": 0.0821,
      "velocity": 103,
      "chip": "ym2612"
    },
    {
      "channel": 0,
      "note": 74,
      "start": 34.3939,
      "duration": 0.0987,
      "velocity": 103,
      "chip": "ym2612"
    },
    {
      "channel": 0,
      "note": 76,
      "start": 34.5766,
      "duration": 0.116,
      "velocity": 103,
      "chip": "ym2612"
    },
    {
      "channel": 1,
      "note": 33,
      "start": 34.5799,
      "duration": 0.0794,
      "velocity": 127,
      "chip": "ym2612"
    },
    {
      "channel": 2,
      "note": 62,
      "start": 34.5806,
      "duration": 0.0955,
      "velocity": 94,
      "chip": "ym2612"
    },
    {
      "channel": 0,
      "note": 73,
      "start": 34.9429,
      "duration": 0.0997,
      "velocity": 103,
      "chip": "ym2612"
    },
    {
      "channel": 0,
      "note": 69,
      "start": 35.1119,
      "duration": 0.8974,
      "velocity": 103,
      "chip": "ym2612"
    },
    {
      "channel": 1,
      "note": 64,
      "start": 35.1152,
      "duration": 0.0775,
      "velocity": 113,
      "chip": "ym2612"
    },
    {
      "channel": 2,
      "note": 62,
      "start": 35.1158,
      "duration": 0.1103,
      "velocity": 94,
      "chip": "ym2612"
    },
    {
      "channel": 1,
      "note": 64,
      "start": 35.2939,
      "duration": 0.0821,
      "velocity": 113,
      "chip": "ym2612"
    },
    {
      "channel": 1,
      "note": 64,
      "start": 35.4763,
      "duration": 0.083,
      "velocity": 113,
      "chip": "ym2612"
    },
    {
      "channel": 1,
      "note": 64,
      "start": 35.6596,
      "duration": 0.0663,
      "velocity": 113,
      "chip": "ym2612"
    },
    {
      "channel": 2,
      "note": 62,
      "start": 35.6603,
      "duration": 0.121,
      "velocity": 94,
      "chip": "ym2612"
    },
    {
      "channel": 0,
      "note": 69,
      "start": 36.1988,
      "duration": 0.0771,
      "velocity": 103,
      "chip": "ym2612"
    },
    {
      "channel": 1,
      "note": 64,
      "start": 36.1994,
      "duration": 0.0766,
      "velocity": 113,
      "chip": "ym2612"
    },
    {
      "channel": 2,
      "note": 62,
      "start": 36.2,
      "duration": 0.0936,
      "velocity": 94,
      "chip": "ym2612"
    },
    {
      "channel": 0,
      "note": 69,
      "start": 36.3766,
      "duration": 0.0994,
      "velocity": 103,
      "chip": "ym2612"
    },
    {
      "channel": 0,
      "note": 71,
      "start": 36.5596,
      "duration": 0.083,
      "velocity": 103,
      "chip": "ym2612"
    },
    {
      "channel": 0,
      "note": 72,
      "start": 36.7429,
      "duration": 0.683,
      "velocity": 103,
      "chip": "ym2612"
    },
    {
      "channel": 1,
      "note": 33,
      "start": 36.7463,
      "duration": 0.0649,
      "velocity": 127,
      "chip": "ym2612"
    },
    {
      "channel": 2,
      "note": 65,
      "start": 36.7469,
      "duration": 0.0958,
      "velocity": 94,
      "chip": "ym2612"
    },
    {
      "channel": 1,
      "note": 64,
      "start": 37.279,
      "duration": 0.0803,
      "velocity": 113,
      "chip": "ym2612"
    },
    {
      "channel": 2,
      "note": 65,
      "start": 37.2796,
      "duration": 0.1131,
      "velocity": 94,
      "chip": "ym2612"
    },
    {
      "channel": 1,
      "note": 64,
      "start": 37.4596,
      "duration": 0.083,
      "velocity": 113,
      "chip": "ym2612"
    },
    {
      "channel": 0,
      "note": 72,
      "start": 37.6432,
      "duration": 0.0827,
      "velocity": 103,
      "chip": "ym2612"
    },
    {
      "channel": 1,
      "note": 64,
      "start": 37.6439,
      "duration": 0.0667,
      "velocity": 113,
      "chip": "ym2612"
    },
    {
      "channel": 0,
      "note": 74,
      "start": 37.8105,
      "duration": 0.352,
      "velocity": 103,
      "chip": "ym2612"
    },
    {
      "channel": 1,
      "note": 64,
      "start": 37.8112,
      "duration": 0.0815,
      "velocity": 113,
      "chip": "ym2612"
    },
    {
      "channel": 2,
      "note": 67,
      "start": 37.8117,
      "duration": 0.1143,
      "velocity": 94,
      "chip": "ym2612"
    },
    {
      "channel": 0,
      "note": 74,
      "start": 38.3596,
      "duration": 0.083,
      "velocity": 103,
      "chip": "ym2612"
    },
    {
      "channel": 1,
      "note": 64,
      "start": 38.3602,
      "duration": 0.0825,
      "velocity": 113,
      "chip": "ym2612"
    },
    {
      "channel": 2,
      "note": 67,
      "start": 38.3608,
      "duration": 0.0986,
      "velocity": 94,
      "chip": "ym2612"
    },
    {
      "channel": 0,
      "note": 74,
      "start": 38.5429,
      "duration": 0.0497,
      "velocity": 103,
      "chip": "ym2612"
    },
    {
      "channel": 0,
      "note": 74,
      "start": 38.7263,
      "duration": 0.0673,
      "velocity": 103,
      "chip": "ym2612"
    },
    {
      "channel": 0,
      "note": 76,
      "start": 38.8939,
      "duration": 3.8487,
      "velocity": 103,
      "chip": "ym2612"
    },
    {
      "channel": 1,
      "note": 33,
      "start": 38.8972,
      "duration": 0.0788,
      "velocity": 127,
      "chip": "ym2612"
    },
    {
      "channel": 2,
      "note": 64,
      "start": 38.8979,
      "duration": 0.0949,
      "velocity": 94,
      "chip": "ym2612"
    },
    {
      "channel": 1,
      "note": 64,
      "start": 39.446,
      "duration": 0.0679,
      "velocity": 113,
      "chip": "ym2612"
    },
    {
      "channel": 2,
      "note": 64,
      "start": 39.4466,
      "duration": 0.0961,
      "velocity": 94,
      "chip": "ym2612"
    },
    {
      "channel": 1,
      "note": 64,
      "start": 39.6263,
      "duration": 0.0697,
      "velocity": 113,
      "chip": "ym2612"
    },
    {
      "channel": 1,
      "note": 64,
      "start": 39.7972,
      "duration": 0.0788,
      "velocity": 113,
      "chip": "ym2612"
    },
    {
      "channel": 1,
      "note": 64,
      "start": 39.9766,
      "duration": 0.0697,
      "velocity": 113,
      "chip": "ym2612"
    },
    {
      "channel": 2,
      "note": 64,
      "start": 39.9772,
      "duration": 0.1022,
      "velocity": 94,
      "chip": "ym2612"
    },
    {
      "channel": 1,
      "note": 64,
      "start": 40.5263,
      "duration": 0.0697,
      "velocity": 113,
      "chip": "ym2612"
    },
    {
      "channel": 2,
      "note": 64,
      "start": 40.5269,
      "duration": 0.0991,
      "velocity": 94,
      "chip": "ym2612"
    },
    {
      "channel": 1,
      "note": 33,
      "start": 41.0626,
      "duration": 0.1134,
      "velocity": 127,
      "chip": "ym2612"
    },
    {
      "channel": 2,
      "note": 64,
      "start": 41.0633,
      "duration": 0.1185,
      "velocity": 94,
      "chip": "ym2612"
    },
    {
      "channel": 1,
      "note": 64,
      "start": 41.6,
      "duration": 0.0636,
      "velocity": 113,
      "chip": "ym2612"
    },
    {
      "channel": 2,
      "note": 76,
      "start": 41.6006,
      "duration": 0.1088,
      "velocity": 94,
      "chip": "ym2612"
    },
    {
      "channel": 1,
      "note": 64,
      "start": 41.7809,
      "duration": 0.0618,
      "velocity": 113,
      "chip": "ym2612"
    },
    {
      "channel": 1,
      "note": 64,
      "start": 41.9596,
      "duration": 0.083,
      "velocity": 113,
      "chip": "ym2612"
    },
    {
      "channel": 1,
      "note": 64,
      "start": 42.143,
      "duration": 0.0663,
      "velocity": 113,
      "chip": "ym2612"
    },
    {
      "channel": 2,
      "note": 76,
      "start": 42.1436,
      "duration": 0.1191,
      "velocity": 94,
      "chip": "ym2612"
    },
    {
      "channel": 1,
      "note": 64,
      "start": 42.3263,
      "duration": 0.0697,
      "velocity": 113,
      "chip": "ym2612"
    },
    {
      "channel": 1,
      "note": 64,
      "start": 42.4972,
      "duration": 0.0654,
      "velocity": 113,
      "chip": "ym2612"
    },
    {
      "channel": 2,
      "note": 76,
      "start": 42.4979,
      "duration": 0.0949,
      "velocity": 94,
      "chip": "ym2612"
    },
    {
      "channel": 1,
      "note": 64,
      "start": 42.6806,
      "duration": 0.0655,
      "velocity": 113,
      "chip": "ym2612"
    },
    {
      "channel": 2,
      "note": 64,
      "start": 42.6812,
      "duration": 0.1449,
      "velocity": 94,
      "chip": "ym2612"
    },
    {
      "channel": 0,
      "note": 77,
      "start": 43.2263,
      "duration": 0.0683,
      "velocity": 103,
      "chip": "ym2612"
    },
    {
      "channel": 1,
      "note": 35,
      "start": 43.2297,
      "duration": 0.065,
      "velocity": 127,
      "chip": "ym2612"
    },
    {
      "channel": 0,
      "note": 77,
      "start": 43.3949,
      "duration": 0.0663,
      "velocity": 103,
      "chip": "ym2612"
    },
    {
      "channel": 0,
      "note": 77,
      "start": 43.5785,
      "duration": 0.0993,
      "velocity": 103,
      "chip": "ym2612"
    },
    {
      "channel": 0,
      "note": 73,
      "start": 43.7596,
      "duration": 0.0997,
      "velocity": 103,
      "chip": "ym2612"
    },
    {
      "channel": 1,
      "note": 35,
      "start": 43.7602,
      "duration": 0.0825,
      "velocity": 127,
      "chip": "ym2612"
    },
    {
      "channel": 0,
      "note": 73,
      "start": 44.1263,
      "duration": 0.0997,
      "velocity": 103,
      "chip": "ym2612"
    },
    {
      "channel": 1,
      "note": 35,
      "start": 44.1269,
      "duration": 0.0344,
      "velocity": 127,
      "chip": "ym2612"
    },
    {
      "channel": 0,
      "note": 75,
      "start": 44.2949,
      "duration": 0.2166,
      "velocity": 103,
      "chip": "ym2612"
    },
    {
      "channel": 1,
      "note": 35,
      "start": 44.2955,
      "duration": 0.1139,
      "velocity": 127,
      "chip": "ym2612"
    },
    {
      "channel": 1,
      "note": 59,
      "start": 44.846,
      "duration": 0.53,
      "velocity": 122,
      "chip": "ym2612"
    },
    {
      "channel": 2,
      "note": 57,
      "start": 44.8466,
      "duration": 0.3961,
      "velocity": 94,
      "chip": "ym2612"
    },
    {
      "channel": 2,
      "note": 59,
      "start": 45.2478,
      "duration": 0.0616,
      "velocity": 94,
      "chip": "ym2612"
    },
    {
      "channel": 2,
      "note": 61,
      "start": 45.3134,
      "duration": 0.063,
      "velocity": 94,
      "chip": "ym2612"
    },
    {
      "channel": 0,
      "note": 77,
      "start": 45.381,
      "duration": 0.0783,
      "velocity": 103,
      "chip": "ym2612"
    },
    {
      "channel": 1,
      "note": 35,
      "start": 45.3844,
      "duration": 0.0749,
      "velocity": 127,
      "chip": "ym2612"
    },
    {
      "channel": 2,
      "note": 63,
      "start": 45.385,
      "duration": 0.1596,
      "velocity": 94,
      "chip": "ym2612"
    },
    {
      "channel": 0,
      "note": 77,
      "start": 45.5596,
      "duration": 0.0663,
      "velocity": 103,
      "chip": "ym2612"
    },
    {
      "channel": 0,
      "note": 77,
      "start": 45.7429,
      "duration": 0.0997,
      "velocity": 103,
      "chip": "ym2612"
    },
    {
      "channel": 0,
      "note": 73,
      "start": 45.9263,
      "duration": 0.0997,
      "velocity": 103,
      "chip": "ym2612"
    },
    {
      "channel": 1,
      "note": 35,
      "start": 45.9269,
      "duration": 0.0677,
      "velocity": 127,
      "chip": "ym2612"
    },
    {
      "channel": 0,
      "note": 73,
      "start": 46.2806,
      "duration": 0.0976,
      "velocity": 103,
      "chip": "ym2612"
    },
    {
      "channel": 1,
      "note": 35,
      "start": 46.2812,
      "duration": 0.0448,
      "velocity": 127,
      "chip": "ym2612"
    },
    {
      "channel": 0,
      "note": 75,
      "start": 46.4596,
      "duration": 0.1683,
      "velocity": 103,
      "chip": "ym2612"
    },
    {
      "channel": 1,
      "note": 35,
      "start": 46.4602,
      "duration": 0.1011,
      "velocity": 127,
      "chip": "ym2612"
    },
    {
      "channel": 1,
      "note": 59,
      "start": 47.0124,
      "duration": 0.5179,
      "velocity": 122,
      "chip": "ym2612"
    },
    {
      "channel": 2,
      "note": 57,
      "start": 47.0129,
      "duration": 0.3798,
      "velocity": 94,
      "chip": "ym2612"
    },
    {
      "channel": 2,
      "note": 59,
      "start": 47.4097,
      "duration": 0.2997,
      "velocity": 94,
      "chip": "ym2612"
    },
    {
      "channel": 0,
      "note": 77,
      "start": 47.5429,
      "duration": 0.4497,
      "velocity": 103,
      "chip": "ym2612"
    },
    {
      "channel": 1,
      "note": 35,
      "start": 47.5463,
      "duration": 0.0816,
      "velocity": 127,
      "chip": "ym2612"
    },
    {
      "channel": 0,
      "note": 80,
      "start": 48.0815,
      "duration": 0.4778,
      "velocity": 103,
      "chip": "ym2612"
    },
    {
      "channel": 1,
      "note": 35,
      "start": 48.0821,
      "duration": 0.0772,
      "velocity": 127,
      "chip": "ym2612"
    },
    {
      "channel": 1,
      "note": 35,
      "start": 48.4433,
      "duration": 0.0827,
      "velocity": 127,
      "chip": "ym2612"
    },
    {
      "channel": 0,
      "note": 81,
      "start": 48.6263,
      "duration": 0.2515,
      "velocity": 103,
      "chip": "ym2612"
    },
    {
      "channel": 1,
      "note": 35,
      "start": 48.6269,
      "duration": 0.0677,
      "velocity": 127,
      "chip": "ym2612"
    },
    {
      "channel": 0,
      "note": 80,
      "start": 48.9809,
      "duration": 0.0784,
      "velocity": 103,
      "chip": "ym2612"
    },
    {
      "channel": 0,
      "note": 78,
      "start": 49.1616,
      "duration": 0.302,
      "velocity": 103,
      "chip": "ym2612"
    },
    {
      "channel": 2,
      "note": 57,
      "start": 49.1622,
      "duration": 0.3971,
      "velocity": 94,
      "chip": "ym2612"
    },
    {
      "channel": 0,
      "note": 81,
      "start": 49.5263,
      "duration": 0.0996,
      "velocity": 103,
      "chip": "ym2612"
    },
    {
      "channel": 2,
      "note": 59,
      "start": 49.5618,
      "duration": 0.0643,
      "velocity": 94,
      "chip": "ym2612"
    },
    {
      "channel": 2,
      "note": 61,
      "start": 49.6434,
      "duration": 0.0494,
      "velocity": 94,
      "chip": "ym2612"
    },
    {
      "channel": 0,
      "note": 80,
      "start": 49.7099,
      "duration": 0.4327,
      "velocity": 103,
      "chip": "ym2612"
    },
    {
      "channel": 1,
      "note": 35,
      "start": 49.7105,
      "duration": 0.0678,
      "velocity": 127,
      "chip": "ym2612"
    },
    {
      "channel": 2,
      "note": 63,
      "start": 49.7111,
      "duration": 0.1816,
      "velocity": 94,
      "chip": "ym2612"
    },
    {
      "channel": 0,
      "note": 77,
      "start": 50.2432,
      "duration": 0.4494,
      "velocity": 103,
      "chip": "ym2612"
    },
    {
      "channel": 1,
      "note": 35,
      "start": 50.2438,
      "duration": 0.0822,
      "velocity": 127,
      "chip": "ym2612"
    },
    {
      "channel": 1,
      "note": 35,
      "start": 50.6096,
      "duration": 0.0497,
      "velocity": 127,
      "chip": "ym2612"
    },
    {
      "channel": 0,
      "note": 78,
      "start": 50.7818,
      "duration": 0.2127,
      "velocity": 103,
      "chip": "ym2612"
    },
    {
      "channel": 1,
      "note": 35,
      "start": 50.7824,
      "duration": 0.077,
      "velocity": 127,
      "chip": "ym2612"
    },
    {
      "channel": 0,
      "note": 77,
      "start": 51.1429,
      "duration": 0.085,
      "velocity": 103,
      "chip": "ym2612"
    },
    {
      "channel": 0,
      "note": 75,
      "start": 51.3263,
      "duration": 0.4707,
      "velocity": 103,
      "chip": "ym2612"
    },
    {
      "channel": 1,
      "note": 35,
      "start": 51.3268,
      "duration": 0.0658,
      "velocity": 127,
      "chip": "ym2612"
    },
    {
      "channel": 2,
      "note": 57,
      "start": 51.3275,
      "duration": 0.3875,
      "velocity": 94,
      "chip": "ym2612"
    },
    {
      "channel": 2,
      "note": 59,
      "start": 51.7264,
      "duration": 0.0663,
      "velocity": 94,
      "chip": "ym2612"
    },
    {
      "channel": 2,
      "note": 61,
      "start": 51.7975,
      "duration": 0.0619,
      "velocity": 94,
      "chip": "ym2612"
    },
    {
      "channel": 0,
      "note": 77,
      "start": 51.865,
      "duration": 0.0629,
      "velocity": 103,
      "chip": "ym2612"
    },
    {
      "channel": 1,
      "note": 35,
      "start": 51.8684,
      "duration": 0.0743,
      "velocity": 127,
      "chip": "ym2612"
    },
    {
      "channel": 2,
      "note": 63,
      "start": 51.8689,
      "duration": 0.1905,
      "velocity": 94,
      "chip": "ym2612"
    },
    {
      "channel": 0,
      "note": 77,
      "start": 52.0432,
      "duration": 0.0513,
      "velocity": 103,
      "chip": "ym2612"
    },
    {
      "channel": 0,
      "note": 77,
      "start": 52.2263,
      "duration": 0.0852,
      "velocity": 103,
      "chip": "ym2612"
    },
    {
      "channel": 0,
      "note": 73,
      "start": 52.4096,
      "duration": 0.1163,
      "velocity": 103,
      "chip": "ym2612"
    },
    {
      "channel": 1,
      "note": 35,
      "start": 52.4102,
      "duration": 0.0677,
      "velocity": 127,
      "chip": "ym2612"
    },
    {
      "channel": 0,
      "note": 73,
      "start": 52.7639,
      "duration": 0.0973,
      "velocity": 103,
      "chip": "ym2612"
    },
    {
      "channel": 1,
      "note": 35,
      "start": 52.7645,
      "duration": 0.0635,
      "velocity": 127,
      "chip": "ym2612"
    },
    {
      "channel": 0,
      "note": 75,
      "start": 52.9429,
      "duration": 0.1997,
      "velocity": 103,
      "chip": "ym2612"
    },
    {
      "channel": 1,
      "note": 35,
      "start": 52.9435,
      "duration": 0.0992,
      "velocity": 127,
      "chip": "ym2612"
    },
    {
      "channel": 1,
      "note": 59,
      "start": 53.4843,
      "duration": 0.5293,
      "velocity": 122,
      "chip": "ym2612"
    },
    {
      "channel": 2,
      "note": 57,
      "start": 53.4849,
      "duration": 0.3912,
      "velocity": 94,
      "chip": "ym2612"
    },
    {
      "channel": 2,
      "note": 59,
      "start": 53.8931,
      "duration": 0.0529,
      "velocity": 94,
      "chip": "ym2612"
    },
    {
      "channel": 2,
      "note": 61,
      "start": 53.9597,
      "duration": 0.0541,
      "velocity": 94,
      "chip": "ym2612"
    },
    {
      "channel": 0,
      "note": 77,
      "start": 54.0263,
      "duration": 0.083,
      "velocity": 103,
      "chip": "ym2612"
    },
    {
      "channel": 1,
      "note": 35,
      "start": 54.0297,
      "duration": 0.0797,
      "velocity": 127,
      "chip": "ym2612"
    },
    {
      "channel": 2,
      "note": 63,
      "start": 54.0302,
      "duration": 0.1797,
      "velocity": 94,
      "chip": "ym2612"
    },
    {
      "channel": 0,
      "note": 77,
      "start": 54.2096,
      "duration": 0.0663,
      "velocity": 103,
      "chip": "ym2612"
    },
    {
      "channel": 0,
      "note": 77,
      "start": 54.393,
      "duration": 0.0682,
      "velocity": 103,
      "chip": "ym2612"
    },
    {
      "channel": 0,
      "note": 73,
      "start": 54.5616,
      "duration": 0.231,
      "velocity": 103,
      "chip": "ym2612"
    },
    {
      "channel": 1,
      "note": 35,
      "start": 54.5621,
      "duration": 0.0805,
      "velocity": 127,
      "chip": "ym2612"
    },
    {
      "channel": 0,
      "note": 73,
      "start": 54.9263,
      "duration": 0.1186,
      "velocity": 103,
      "chip": "ym2612"
    },
    {
      "channel": 1,
      "note": 35,
      "start": 54.9268,
      "duration": 0.0658,
      "velocity": 127,
      "chip": "ym2612"
    },
    {
      "channel": 0,
      "note": 75,
      "start": 55.1099,
      "duration": 0.1846,
      "velocity": 103,
      "chip": "ym2612"
    },
    {
      "channel": 1,
      "note": 35,
      "start": 55.1105,
      "duration": 0.0988,
      "velocity": 127,
      "chip": "ym2612"
    },
    {
      "channel": 1,
      "note": 59,
      "start": 55.646,
      "duration": 0.53,
      "velocity": 122,
      "chip": "ym2612"
    },
    {
      "channel": 2,
      "note": 57,
      "start": 55.6466,
      "duration": 0.3961,
      "velocity": 94,
      "chip": "ym2612"
    },
    {
      "channel": 2,
      "note": 59,
      "start": 56.0478,
      "duration": 0.0616,
      "velocity": 94,
      "chip": "ym2612"
    },
    {
      "channel": 2,
      "note": 61,
      "start": 56.1264,
      "duration": 0.0501,
      "velocity": 94,
      "chip": "ym2612"
    },
    {
      "channel": 0,
      "note": 77,
      "start": 56.1929,
      "duration": 0.3885,
      "velocity": 103,
      "chip": "ym2612"
    },
    {
      "channel": 1,
      "note": 35,
      "start": 56.1963,
      "duration": 0.0963,
      "velocity": 127,
      "chip": "ym2612"
    },
    {
      "channel": 2,
      "note": 63,
      "start": 56.197,
      "duration": 0.1977,
      "velocity": 94,
      "chip": "ym2612"
    },
    {
      "channel": 0,
      "note": 80,
      "start": 56.7263,
      "duration": 0.383,
      "velocity": 103,
      "chip": "ym2612"
    },
    {
      "channel": 1,
      "note": 35,
      "start": 56.7268,
      "duration": 0.0825,
      "velocity": 127,
      "chip": "ym2612"
    },
    {
      "channel": 1,
      "note": 35,
      "start": 57.093,
      "duration": 0.0497,
      "velocity": 127,
      "chip": "ym2612"
    },
    {
      "channel": 0,
      "note": 81,
      "start": 57.2649,
      "duration": 0.2611,
      "velocity": 103,
      "chip": "ym2612"
    },
    {
      "channel": 1,
      "note": 35,
      "start": 57.2655,
      "duration": 0.0605,
      "velocity": 127,
      "chip": "ym2612"
    },
    {
      "channel": 0,
      "note": 80,
      "start": 57.6263,
      "duration": 0.0663,
      "velocity": 103,
      "chip": "ym2612"
    },
    {
      "channel": 0,
      "note": 78,
      "start": 57.8096,
      "duration": 0.233,
      "velocity": 103,
      "chip": "ym2612"
    },
    {
      "channel": 2,
      "note": 57,
      "start": 57.8103,
      "duration": 0.3844,
      "velocity": 94,
      "chip": "ym2612"
    },
    {
      "channel": 0,
      "note": 81,
      "start": 58.1639,
      "duration": 0.0954,
      "velocity": 103,
      "chip": "ym2612"
    },
    {
      "channel": 2,
      "note": 59,
      "start": 58.2097,
      "duration": 0.0517,
      "velocity": 94,
      "chip": "ym2612"
    },
    {
      "channel": 2,
      "note": 61,
      "start": 58.2764,
      "duration": 0.0663,
      "velocity": 94,
      "chip": "ym2612"
    },
    {
      "channel": 0,
      "note": 80,
      "start": 58.3449,
      "duration": 0.4196,
      "velocity": 103,
      "chip": "ym2612"
    },
    {
      "channel": 1,
      "note": 35,
      "start": 58.3455,
      "duration": 0.0805,
      "velocity": 127,
      "chip": "ym2612"
    },
    {
      "channel": 2,
      "note": 63,
      "start": 58.3462,
      "duration": 0.2132,
      "velocity": 94,
      "chip": "ym2612"
    },
    {
      "channel": 0,
      "note": 83,
      "start": 58.893,
      "duration": 0.3996,
      "velocity": 103,
      "chip": "ym2612"
    },
    {
      "channel": 1,
      "note": 35,
      "start": 58.8936,
      "duration": 0.0677,
      "velocity": 127,
      "chip": "ym2612"
    },
    {
      "channel": 2,
      "note": 65,
      "start": 58.8941,
      "duration": 0.2819,
      "velocity": 94,
      "chip": "ym2612"
    },
    {
      "channel": 1,
      "note": 35,
      "start": 59.2476,
      "duration": 0.0337,
      "velocity": 127,
      "chip": "ym2612"
    },
    {
      "channel": 0,
      "note": 85,
      "start": 59.4263,
      "duration": 0.2349,
      "velocity": 103,
      "chip": "ym2612"
    },
    {
      "channel": 1,
      "note": 35,
      "start": 59.4269,
      "duration": 0.0824,
      "velocity": 127,
      "chip": "ym2612"
    },
    {
      "channel": 2,
      "note": 66,
      "start": 59.4275,
      "duration": 0.2672,
      "velocity": 94,
      "chip": "ym2612"
    },
    {
      "channel": 0,
      "note": 83,
      "start": 59.793,
      "duration": 0.0682,
      "velocity": 103,
      "chip": "ym2612"
    },
    {
      "channel": 0,
      "note": 81,
      "start": 59.9616,
      "duration": 0.3186,
      "velocity": 103,
      "chip": "ym2612"
    },
    {
      "channel": 1,
      "note": 35,
      "start": 59.9621,
      "duration": 0.0972,
      "velocity": 127,
      "chip": "ym2612"
    },
    {
      "channel": 2,
      "note": 63,
      "start": 59.9628,
      "duration": 0.2466,
      "velocity": 94,
      "chip": "ym2612"
    },
    {
      "channel": 0,
      "note": 87,
      "start": 60.5099,
      "duration": 0.3994,
      "velocity": 103,
      "chip": "ym2612"
    },
    {
      "channel": 1,
      "note": 35,
      "start": 60.5105,
      "duration": 0.1175,
      "velocity": 127,
      "chip": "ym2612"
    },
    {
      "channel": 2,
      "note": 83,
      "start": 60.5111,
      "duration": 0.4316,
      "velocity": 94,
      "chip": "ym2612"
    },
    {
      "channel": 0,
      "note": 83,
      "start": 61.0485,
      "duration": 0.7108,
      "velocity": 103,
      "chip": "ym2612"
    },
    {
      "channel": 1,
      "note": 40,
      "start": 61.0491,
      "duration": 0.0436,
      "velocity": 127,
      "chip": "ym2612"
    },
    {
      "channel": 2,
      "note": 80,
      "start": 61.0497,
      "duration": 0.4597,
      "velocity": 94,
      "chip": "ym2612"
    },
    {
      "channel": 1,
      "note": 40,
      "start": 61.2263,
      "duration": 0.0517,
      "velocity": 127,
      "chip": "ym2612"
    },
    {
      "channel": 1,
      "note": 40,
      "start": 61.4096,
      "duration": 0.083,
      "velocity": 127,
      "chip": "ym2612"
    },
    {
      "channel": 1,
      "note": 40,
      "start": 61.593,
      "duration": 0.1056,
      "velocity": 127,
      "chip": "ym2612"
    },
    {
      "channel": 2,
      "note": 79,
      "start": 61.5936,
      "duration": 0.4495,
      "velocity": 94,
      "chip": "ym2612"
    },
    {
      "channel": 0,
      "note": 83,
      "start": 61.9498,
      "duration": 0.0928,
      "velocity": 103,
      "chip": "ym2612"
    },
    {
      "channel": 0,
      "note": 87,
      "start": 62.1263,
      "duration": 0.1022,
      "velocity": 103,
      "chip": "ym2612"
    },
    {
      "channel": 1,
      "note": 40,
      "start": 62.1269,
      "duration": 0.0991,
      "velocity": 127,
      "chip": "ym2612"
    },
    {
      "channel": 2,
      "note": 75,
      "start": 62.1275,
      "duration": 0.3684,
      "velocity": 94,
      "chip": "ym2612"
    },
    {
      "channel": 0,
      "note": 83,
      "start": 62.3099,
      "duration": 0.0827,
      "velocity": 103,
      "chip": "ym2612"
    },
    {
      "channel": 0,
      "note": 87,
      "start": 62.493,
      "duration": 0.0996,
      "velocity": 103,
      "chip": "ym2612"
    },
    {
      "channel": 0,
      "note": 83,
      "start": 62.6763,
      "duration": 1.1725,
      "velocity": 103,
      "chip": "ym2612"
    },
    {
      "channel": 1,
      "note": 33,
      "start": 62.6769,
      "duration": 0.0677,
      "velocity": 127,
      "chip": "ym2612"
    },
    {
      "channel": 2,
      "note": 71,
      "start": 62.6775,
      "duration": 0.1819,
      "velocity": 94,
      "chip": "ym2612"
    },
    {
      "channel": 2,
      "note": 68,
      "start": 63.0264,
      "duration": 0.104,
      "velocity": 94,
      "chip": "ym2612"
    },
    {
      "channel": 1,
      "note": 40,
      "start": 63.2096,
      "duration": 0.083,
      "velocity": 127,
      "chip": "ym2612"
    },
    {
      "channel": 2,
      "note": 67,
      "start": 63.2103,
      "duration": 0.4158,
      "velocity": 94,
      "chip": "ym2612"
    },
    {
      "channel": 1,
      "note": 40,
      "start": 63.393,
      "duration": 0.0663,
      "velocity": 127,
      "chip": "ym2612"
    },
    {
      "channel": 1,
      "note": 40,
      "start": 63.5766,
      "duration": 0.0732,
      "velocity": 127,
      "chip": "ym2612"
    },
    {
      "channel": 1,
      "note": 40,
      "start": 63.7499,
      "duration": 0.0761,
      "velocity": 127,
      "chip": "ym2612"
    },
    {
      "channel": 2,
      "note": 63,
      "start": 63.7505,
      "duration": 0.1256,
      "velocity": 94,
      "chip": "ym2612"
    },
    {
      "channel": 1,
      "note": 57,
      "start": 64.2957,
      "duration": 0.5303,
      "velocity": 122,
      "chip": "ym2612"
    },
    {
      "channel": 0,
      "note": 88,
      "start": 64.8296,
      "duration": 0.3297,
      "velocity": 103,
      "chip": "ym2612"
    },
    {
      "channel": 1,
      "note": 33,
      "start": 64.8329,
      "duration": 0.095,
      "velocity": 127,
      "chip": "ym2612"
    },
    {
      "channel": 2,
      "note": 85,
      "start": 64.8336,
      "duration": 0.4147,
      "velocity": 94,
      "chip": "ym2612"
    },
    {
      "channel": 0,
      "note": 85,
      "start": 65.3766,
      "duration": 0.6994,
      "velocity": 103,
      "chip": "ym2612"
    },
    {
      "channel": 1,
      "note": 40,
      "start": 65.3772,
      "duration": 0.0488,
      "velocity": 127,
      "chip": "ym2612"
    },
    {
      "channel": 2,
      "note": 82,
      "start": 65.3778,
      "duration": 0.4526,
      "velocity": 94,
      "chip": "ym2612"
    },
    {
      "channel": 1,
      "note": 40,
      "start": 65.5449,
      "duration": 0.0663,
      "velocity": 127,
      "chip": "ym2612"
    },
    {
      "channel": 1,
      "note": 40,
      "start": 65.7306,
      "duration": 0.0787,
      "velocity": 127,
      "chip": "ym2612"
    },
    {
      "channel": 1,
      "note": 40,
      "start": 65.91,
      "duration": 0.0994,
      "velocity": 127,
      "chip": "ym2612"
    },
    {
      "channel": 2,
      "note": 81,
      "start": 65.9106,
      "duration": 0.3988,
      "velocity": 94,
      "chip": "ym2612"
    },
    {
      "channel": 0,
      "note": 85,
      "start": 66.2763,
      "duration": 0.1019,
      "velocity": 103,
      "chip": "ym2612"
    },
    {
      "channel": 0,
      "note": 88,
      "start": 66.4452,
      "duration": 0.1141,
      "velocity": 103,
      "chip": "ym2612"
    },
    {
      "channel": 1,
      "note": 33,
      "start": 66.4458,
      "duration": 0.0969,
      "velocity": 127,
      "chip": "ym2612"
    },
    {
      "channel": 2,
      "note": 77,
      "start": 66.4464,
      "duration": 0.3482,
      "velocity": 94,
      "chip": "ym2612"
    },
    {
      "channel": 0,
      "note": 85,
      "start": 66.6282,
      "duration": 0.0996,
      "velocity": 103,
      "chip": "ym2612"
    },
    {
      "channel": 0,
      "note": 88,
      "start": 66.8096,
      "duration": 0.085,
      "velocity": 103,
      "chip": "ym2612"
    },
    {
      "channel": 0,
      "note": 85,
      "start": 66.9929,
      "duration": 1.083,
      "velocity": 103,
      "chip": "ym2612"
    },
    {
      "channel": 1,
      "note": 33,
      "start": 66.9936,
      "duration": 0.118,
      "velocity": 127,
      "chip": "ym2612"
    },
    {
      "channel": 2,
      "note": 73,
      "start": 66.9941,
      "duration": 0.2486,
      "velocity": 94,
      "chip": "ym2612"
    },
    {
      "channel": 2,
      "note": 70,
      "start": 67.3474,
      "duration": 0.0954,
      "velocity": 94,
      "chip": "ym2612"
    },
    {
      "channel": 1,
      "note": 40,
      "start": 67.5316,
      "duration": 0.0611,
      "velocity": 127,
      "chip": "ym2612"
    },
    {
      "channel": 2,
      "note": 69,
      "start": 67.5322,
      "duration": 0.4175,
      "velocity": 94,
      "chip": "ym2612"
    },
    {
      "channel": 1,
      "note": 40,
      "start": 67.71,
      "duration": 0.066,
      "velocity": 127,
      "chip": "ym2612"
    },
    {
      "channel": 1,
      "note": 40,
      "start": 67.893,
      "duration": 0.083,
      "velocity": 127,
      "chip": "ym2612"
    },
    {
      "channel": 1,
      "note": 40,
      "start": 68.0764,
      "duration": 0.0829,
      "velocity": 127,
      "chip": "ym2612"
    },
    {
      "channel": 2,
      "note": 65,
      "start": 68.077,
      "duration": 0.255,
      "velocity": 94,
      "chip": "ym2612"
    },
    {
      "channel": 1,
      "note": 57,
      "start": 68.6123,
      "duration": 0.5303,
      "velocity": 122,
      "chip": "ym2612"
    },
    {
      "channel": 0,
      "note": 78,
      "start": 69.1602,
      "duration": 0.1657,
      "velocity": 103,
      "chip": "ym2612"
    },
    {
      "channel": 1,
      "note": 33,
      "start": 69.1635,
      "duration": 0.0978,
      "velocity": 127,
      "chip": "ym2612"
    },
    {
      "channel": 2,
      "note": 58,
      "start": 69.1668,
      "duration": 1.0093,
      "velocity": 96,
      "chip": "ym2612"
    },
    {
      "channel": 0,
      "note": 74,
      "start": 69.329,
      "duration": 0.1656,
      "velocity": 103,
      "chip": "ym2612"
    },
    {
      "channel": 0,
      "note": 78,
      "start": 69.5105,
      "duration": 0.1674,
      "velocity": 103,
      "chip": "ym2612"
    },
    {
      "channel": 0,
      "note": 74,
      "start": 69.6935,
      "duration": 0.1658,
      "velocity": 103,
      "chip": "ym2612"
    },
    {
      "channel": 1,
      "note": 33,
      "start": 69.6941,
      "duration": 0.0985,
      "velocity": 127,
      "chip": "ym2612"
    },
    {
      "channel": 0,
      "note": 78,
      "start": 69.8769,
      "duration": 0.1657,
      "velocity": 103,
      "chip": "ym2612"
    },
    {
      "channel": 0,
      "note": 74,
      "start": 70.0602,
      "duration": 0.1657,
      "velocity": 103,
      "chip": "ym2612"
    },
    {
      "channel": 0,
      "note": 78,
      "start": 70.229,
      "duration": 0.1656,
      "velocity": 103,
      "chip": "ym2612"
    },
    {
      "channel": 1,
      "note": 33,
      "start": 70.2295,
      "duration": 0.0984,
      "velocity": 127,
      "chip": "ym2612"
    },
    {
      "channel": 2,
      "note": 46,
      "start": 70.2301,
      "duration": 0.8459,
      "velocity": 96,
      "chip": "ym2612"
    },
    {
      "channel": 0,
      "note": 74,
      "start": 70.4102,
      "duration": 0.168,
      "velocity": 103,
      "chip": "ym2612"
    },
    {
      "channel": 0,
      "note": 78,
      "start": 70.5935,
      "duration": 0.1658,
      "velocity": 103,
      "chip": "ym2612"
    },
    {
      "channel": 0,
      "note": 74,
      "start": 70.7771,
      "duration": 0.1655,
      "velocity": 103,
      "chip": "ym2612"
    },
    {
      "channel": 1,
      "note": 40,
      "start": 70.7778,
      "duration": 0.0672,
      "velocity": 127,
      "chip": "ym2612"
    },
    {
      "channel": 0,
      "note": 78,
      "start": 70.9602,
      "duration": 0.1657,
      "velocity": 103,
      "chip": "ym2612"
    },
    {
      "channel": 1,
      "note": 40,
      "start": 70.9608,
      "duration": 0.0485,
      "velocity": 127,
      "chip": "ym2612"
    },
    {
      "channel": 0,
      "note": 74,
      "start": 71.129,
      "duration": 0.1655,
      "velocity": 103,
      "chip": "ym2612"
    },
    {
      "channel": 1,
      "note": 40,
      "start": 71.1295,
      "duration": 0.0964,
      "velocity": 127,
      "chip": "ym2612"
    },
    {
      "channel": 2,
      "note": 53,
      "start": 71.1301,
      "duration": 0.1293,
      "velocity": 96,
      "chip": "ym2612"
    },
    {
      "channel": 0,
      "note": 76,
      "start": 71.3105,
      "duration": 0.1674,
      "velocity": 103,
      "chip": "ym2612"
    },
    {
      "channel": 1,
      "note": 33,
      "start": 71.3111,
      "duration": 0.1002,
      "velocity": 127,
      "chip": "ym2612"
    },
    {
      "channel": 2,
      "note": 58,
      "start": 71.3117,
      "duration": 0.981,
      "velocity": 96,
      "chip": "ym2612"
    },
    {
      "channel": 0,
      "note": 72,
      "start": 71.4935,
      "duration": 0.1658,
      "velocity": 103,
      "chip": "ym2612"
    },
    {
      "channel": 0,
      "note": 76,
      "start": 71.6769,
      "duration": 0.1657,
      "velocity": 103,
      "chip": "ym2612"
    },
    {
      "channel": 0,
      "note": 72,
      "start": 71.8602,
      "duration": 0.1657,
      "velocity": 103,
      "chip": "ym2612"
    },
    {
      "channel": 1,
      "note": 33,
      "start": 71.8608,
      "duration": 0.0985,
      "velocity": 127,
      "chip": "ym2612"
    },
    {
      "channel": 0,
      "note": 76,
      "start": 72.029,
      "duration": 0.1803,
      "velocity": 103,
      "chip": "ym2612"
    },
    {
      "channel": 0,
      "note": 72,
      "start": 72.2123,
      "duration": 0.1659,
      "velocity": 103,
      "chip": "ym2612"
    },
    {
      "channel": 0,
      "note": 76,
      "start": 72.3935,
      "duration": 0.1658,
      "velocity": 103,
      "chip": "ym2612"
    },
    {
      "channel": 1,
      "note": 33,
      "start": 72.3941,
      "duration": 0.0985,
      "velocity": 127,
      "chip": "ym2612"
    },
    {
      "channel": 2,
      "note": 46,
      "start": 72.3947,
      "duration": 0.9314,
      "velocity": 96,
      "chip": "ym2612"
    },
    {
      "channel": 0,
      "note": 72,
      "start": 72.5771,
      "duration": 0.1655,
      "velocity": 103,
      "chip": "ym2612"
    },
    {
      "channel": 1,
      "note": 40,
      "start": 72.5778,
      "duration": 0.0649,
      "velocity": 127,
      "chip": "ym2612"
    },
    {
      "channel": 0,
      "note": 76,
      "start": 72.7602,
      "duration": 0.1657,
      "velocity": 103,
      "chip": "ym2612"
    },
    {
      "channel": 1,
      "note": 40,
      "start": 72.7608,
      "duration": 0.0672,
      "velocity": 127,
      "chip": "ym2612"
    },
    {
      "channel": 0,
      "note": 72,
      "start": 72.929,
      "duration": 0.1803,
      "velocity": 103,
      "chip": "ym2612"
    },
    {
      "channel": 1,
      "note": 40,
      "start": 72.9295,
      "duration": 0.0964,
      "velocity": 127,
      "chip": "ym2612"
    },
    {
      "channel": 0,
      "note": 76,
      "start": 73.1126,
      "duration": 0.1653,
      "velocity": 103,
      "chip": "ym2612"
    },
    {
      "channel": 1,
      "note": 40,
      "start": 73.1132,
      "duration": 0.0651,
      "velocity": 127,
      "chip": "ym2612"
    },
    {
      "channel": 0,
      "note": 72,
      "start": 73.2935,
      "duration": 0.1658,
      "velocity": 103,
      "chip": "ym2612"
    },
    {
      "channel": 1,
      "note": 40,
      "start": 73.2941,
      "duration": 0.0841,
      "velocity": 127,
      "chip": "ym2612"
    },
    {
      "channel": 0,
      "note": 78,
      "start": 73.4769,
      "duration": 0.1657,
      "velocity": 103,
      "chip": "ym2612"
    },
    {
      "channel": 1,
      "note": 33,
      "start": 73.4775,
      "duration": 0.0985,
      "velocity": 127,
      "chip": "ym2612"
    },
    {
      "channel": 2,
      "note": 58,
      "start": 73.4781,
      "duration": 1.0166,
      "velocity": 96,
      "chip": "ym2612"
    },
    {
      "channel": 0,
      "note": 74,
      "start": 73.6602,
      "duration": 0.1657,
      "velocity": 103,
      "chip": "ym2612"
    },
    {
      "channel": 0,
      "note": 78,
      "start": 73.829,
      "duration": 0.1803,
      "velocity": 103,
      "chip": "ym2612"
    },
    {
      "channel": 0,
      "note": 74,
      "start": 74.0123,
      "duration": 0.1659,
      "velocity": 103,
      "chip": "ym2612"
    },
    {
      "channel": 1,
      "note": 33,
      "start": 74.0129,
      "duration": 0.1298,
      "velocity": 127,
      "chip": "ym2612"
    },
    {
      "channel": 0,
      "note": 78,
      "start": 74.1935,
      "duration": 0.1658,
      "velocity": 103,
      "chip": "ym2612"
    },
    {
      "channel": 0,
      "note": 74,
      "start": 74.3771,
      "duration": 0.1655,
      "velocity": 103,
      "chip": "ym2612"
    },
    {
      "channel": 0,
      "note": 78,
      "start": 74.5602,
      "duration": 0.1657,
      "velocity": 103,
      "chip": "ym2612"
    },
    {
      "channel": 1,
      "note": 33,
      "start": 74.5608,
      "duration": 0.1152,
      "velocity": 127,
      "chip": "ym2612"
    },
    {
      "channel": 2,
      "note": 46,
      "start": 74.5614,
      "duration": 1.0333,
      "velocity": 96,
      "chip": "ym2612"
    },
    {
      "channel": 0,
      "note": 74,
      "start": 74.729,
      "duration": 0.1803,
      "velocity": 103,
      "chip": "ym2612"
    },
    {
      "channel": 0,
      "note": 78,
      "start": 74.9125,
      "duration": 0.1654,
      "velocity": 103,
      "chip": "ym2612"
    },
    {
      "channel": 0,
      "note": 74,
      "start": 75.0935,
      "duration": 0.1677,
      "velocity": 103,
      "chip": "ym2612"
    },
    {
      "channel": 1,
      "note": 40,
      "start": 75.0941,
      "duration": 0.0819,
      "velocity": 127,
      "chip": "ym2612"
    },
    {
      "channel": 0,
      "note": 78,
      "start": 75.2768,
      "duration": 0.1658,
      "velocity": 103,
      "chip": "ym2612"
    },
    {
      "channel": 1,
      "note": 40,
      "start": 75.2775,
      "duration": 0.0505,
      "velocity": 127,
      "chip": "ym2612"
    },
    {
      "channel": 0,
      "note": 74,
      "start": 75.4602,
      "duration": 0.1657,
      "velocity": 103,
      "chip": "ym2612"
    },
    {
      "channel": 1,
      "note": 40,
      "start": 75.4608,
      "duration": 0.0985,
      "velocity": 127,
      "chip": "ym2612"
    },
    {
      "channel": 0,
      "note": 80,
      "start": 75.629,
      "duration": 0.1803,
      "velocity": 103,
      "chip": "ym2612"
    },
    {
      "channel": 1,
      "note": 33,
      "start": 75.6295,
      "duration": 0.1298,
      "velocity": 127,
      "chip": "ym2612"
    },
    {
      "channel": 2,
      "note": 58,
      "start": 75.6302,
      "duration": 0.9625,
      "velocity": 96,
      "chip": "ym2612"
    },
    {
      "channel": 0,
      "note": 76,
      "start": 75.8117,
      "duration": 0.1475,
      "velocity": 103,
      "chip": "ym2612"
    },
    {
      "channel": 0,
      "note": 80,
      "start": 75.9929,
      "duration": 0.1683,
      "velocity": 103,
      "chip": "ym2612"
    },
    {
      "channel": 0,
      "note": 76,
      "start": 76.1771,
      "duration": 0.1655,
      "velocity": 103,
      "chip": "ym2612"
    },
    {
      "channel": 1,
      "note": 33,
      "start": 76.1777,
      "duration": 0.1169,
      "velocity": 127,
      "chip": "ym2612"
    },
    {
      "channel": 0,
      "note": 80,
      "start": 76.3596,
      "duration": 0.1663,
      "velocity": 103,
      "chip": "ym2612"
    },
    {
      "channel": 0,
      "note": 76,
      "start": 76.5283,
      "duration": 0.1809,
      "velocity": 103,
      "chip": "ym2612"
    },
    {
      "channel": 0,
      "note": 81,
      "start": 76.7126,
      "duration": 0.1653,
      "velocity": 103,
      "chip": "ym2612"
    },
    {
      "channel": 1,
      "note": 33,
      "start": 76.7132,
      "duration": 0.1295,
      "velocity": 127,
      "chip": "ym2612"
    },
    {
      "channel": 2,
      "note": 58,
      "start": 76.7138,
      "duration": 0.8988,
      "velocity": 96,
      "chip": "ym2612"
    },
    {
      "channel": 0,
      "note": 78,
      "start": 76.8929,
      "duration": 0.1683,
      "velocity": 103,
      "chip": "ym2612"
    },
    {
      "channel": 0,
      "note": 81,
      "start": 77.0769,
      "duration": 0.1657,
      "velocity": 103,
      "chip": "ym2612"
    },
    {
      "channel": 0,
      "note": 78,
      "start": 77.2602,
      "duration": 0.1657,
      "velocity": 103,
      "chip": "ym2612"
    },
    {
      "channel": 1,
      "note": 40,
      "start": 77.2608,
      "duration": 0.0672,
      "velocity": 127,
      "chip": "ym2612"
    },
    {
      "channel": 0,
      "note": 81,
      "start": 77.4432,
      "duration": 0.166,
      "velocity": 103,
      "chip": "ym2612"
    },
    {
      "channel": 1,
      "note": 40,
      "start": 77.4438,
      "duration": 0.0488,
      "velocity": 127,
      "chip": "ym2612"
    },
    {
      "channel": 0,
      "note": 78,
      "start": 77.6117,
      "duration": 0.1665,
      "velocity": 103,
      "chip": "ym2612"
    },
    {
      "channel": 1,
      "note": 40,
      "start": 77.6123,
      "duration": 0.0993,
      "velocity": 127,
      "chip": "ym2612"
    },
    {
      "channel": 0,
      "note": 82,
      "start": 77.7936,
      "duration": 0.4657,
      "velocity": 103,
      "chip": "ym2612"
    },
    {
      "channel": 1,
      "note": 33,
      "start": 77.7941,
      "duration": 0.1319,
      "velocity": 127,
      "chip": "ym2612"
    },
    {
      "channel": 2,
      "note": 56,
      "start": 77.7947,
      "duration": 1.7647,
      "velocity": 96,
      "chip": "ym2612"
    },
    {
      "channel": 0,
      "note": 80,
      "start": 78.343,
      "duration": 0.4216,
      "velocity": 103,
      "chip": "ym2612"
    },
    {
      "channel": 1,
      "note": 33,
      "start": 78.3436,
      "duration": 0.1158,
      "velocity": 127,
      "chip": "ym2612"
    },
    {
      "channel": 0,
      "note": 74,
      "start": 78.8763,
      "duration": 0.405,
      "velocity": 103,
      "chip": "ym2612"
    },
    {
      "channel": 1,
      "note": 33,
      "start": 78.8768,
      "duration": 0.1178,
      "velocity": 127,
      "chip": "ym2612"
    },
    {
      "channel": 0,
      "note": 70,
      "start": 79.4149,
      "duration": 0.4278,
      "velocity": 103,
      "chip": "ym2612"
    },
    {
      "channel": 1,
      "note": 33,
      "start": 79.4154,
      "duration": 0.1272,
      "velocity": 127,
      "chip": "ym2612"
    },
    {
      "channel": 0,
      "note": 62,
      "start": 79.9596,
      "duration": 0.1183,
      "velocity": 103,
      "chip": "ym2612"
    },
    {
      "channel": 1,
      "note": 33,
      "start": 79.9602,
      "duration": 0.1179,
      "velocity": 127,
      "chip": "ym2612"
    },
    {
      "channel": 2,
      "note": 50,
      "start": 79.9608,
      "duration": 0.1986,
      "velocity": 96,
      "chip": "ym2612"
    },
    {
      "channel": 0,
      "note": 62,
      "start": 80.3142,
      "duration": 0.0971,
      "velocity": 103,
      "chip": "ym2612"
    },
    {
      "channel": 2,
      "note": 50,
      "start": 80.3149,
      "duration": 0.0945,
      "velocity": 96,
      "chip": "ym2612"
    },
    {
      "channel": 0,
      "note": 64,
      "start": 80.4949,
      "duration": 1.1644,
      "velocity": 103,
      "chip": "ym2612"
    },
    {
      "channel": 1,
      "note": 64,
      "start": 80.4982,
      "duration": 0.0778,
      "velocity": 113,
      "chip": "ym2612"
    },
    {
      "channel": 2,
      "note": 52,
      "start": 80.4988,
      "duration": 1.0665,
      "velocity": 96,
      "chip": "ym2612"
    },
    {
      "channel": 1,
      "note": 64,
      "start": 80.6763,
      "duration": 0.083,
      "velocity": 113,
      "chip": "ym2612"
    },
    {
      "channel": 1,
      "note": 64,
      "start": 80.8596,
      "duration": 0.0873,
      "velocity": 113,
      "chip": "ym2612"
    },
    {
      "channel": 1,
      "note": 64,
      "start": 81.0433,
      "duration": 0.0706,
      "velocity": 113,
      "chip": "ym2612"
    },
    {
      "channel": 1,
      "note": 64,
      "start": 81.2165,
      "duration": 0.0654,
      "velocity": 113,
      "chip": "ym2612"
    },
    {
      "channel": 1,
      "note": 64,
      "start": 81.3989,
      "duration": 0.0771,
      "velocity": 113,
      "chip": "ym2612"
    },
    {
      "channel": 1,
      "note": 64,
      "start": 81.5766,
      "duration": 0.066,
      "velocity": 113,
      "chip": "ym2612"
    },
    {
      "channel": 1,
      "note": 64,
      "start": 81.7596,
      "duration": 0.0546,
      "velocity": 113,
      "chip": "ym2612"
    },
    {
      "channel": 1,
      "note": 64,
      "start": 81.943,
      "duration": 0.083,
      "velocity": 113,
      "chip": "ym2612"
    },
    {
      "channel": 1,
      "note": 33,
      "start": 82.123,
      "duration": 0.1197,
      "velocity": 127,
      "chip": "ym2612"
    },
    {
      "channel": 2,
      "note": 57,
      "start": 82.1268,
      "duration": 0.0993,
      "velocity": 94,
      "chip": "ym2612"
    },
    {
      "channel": 1,
      "note": 64,
      "start": 82.6623,
      "duration": 0.0637,
      "velocity": 113,
      "chip": "ym2612"
    },
    {
      "channel": 2,
      "note": 57,
      "start": 82.6629,
      "duration": 0.0964,
      "velocity": 94,
      "chip": "ym2612"
    },
    {
      "channel": 1,
      "note": 64,
      "start": 82.8433,
      "duration": 0.066,
      "velocity": 113,
      "chip": "ym2612"
    },
    {
      "channel": 1,
      "note": 64,
      "start": 83.0263,
      "duration": 0.083,
      "velocity": 113,
      "chip": "ym2612"
    },
    {
      "channel": 1,
      "note": 64,
      "start": 83.1965,
      "duration": 0.0795,
      "velocity": 113,
      "chip": "ym2612"
    },
    {
      "channel": 2,
      "note": 57,
      "start": 83.1971,
      "duration": 0.0981,
      "velocity": 94,
      "chip": "ym2612"
    },
    {
      "channel": 1,
      "note": 64,
      "start": 83.743,
      "duration": 0.0688,
      "velocity": 113,
      "chip": "ym2612"
    },
    {
      "channel": 2,
      "note": 57,
      "start": 83.7436,
      "duration": 0.0991,
      "velocity": 94,
      "chip": "ym2612"
    },
    {
      "channel": 1,
      "note": 33,
      "start": 84.2792,
      "duration": 0.1006,
      "velocity": 127,
      "chip": "ym2612"
    },
    {
      "channel": 2,
      "note": 57,
      "start": 84.2798,
      "duration": 0.1001,
      "velocity": 94,
      "chip": "ym2612"
    },
    {
      "channel": 1,
      "note": 64,
      "start": 84.829,
      "duration": 0.0661,
      "velocity": 113,
      "chip": "ym2612"
    },
    {
      "channel": 2,
      "note": 57,
      "start": 84.8296,
      "duration": 0.0964,
      "velocity": 94,
      "chip": "ym2612"
    },
    {
      "channel": 1,
      "note": 64,
      "start": 84.9955,
      "duration": 0.0805,
      "velocity": 113,
      "chip": "ym2612"
    },
    {
      "channel": 1,
      "note": 64,
      "start": 85.1791,
      "duration": 0.0802,
      "velocity": 113,
      "chip": "ym2612"
    },
    {
      "channel": 1,
      "note": 64,
      "start": 85.3596,
      "duration": 0.083,
      "velocity": 113,
      "chip": "ym2612"
    },
    {
      "channel": 2,
      "note": 57,
      "start": 85.3602,
      "duration": 0.0992,
      "velocity": 94,
      "chip": "ym2612"
    },
    {
      "channel": 1,
      "note": 64,
      "start": 85.543,
      "duration": 0.0497,
      "velocity": 113,
      "chip": "ym2612"
    },
    {
      "channel": 1,
      "note": 64,
      "start": 85.7263,
      "duration": 0.0688,
      "velocity": 113,
      "chip": "ym2612"
    },
    {
      "channel": 1,
      "note": 64,
      "start": 85.8965,
      "duration": 0.0795,
      "velocity": 113,
      "chip": "ym2612"
    },
    {
      "channel": 2,
      "note": 57,
      "start": 85.8971,
      "duration": 0.0992,
      "velocity": 94,
      "chip": "ym2612"
    },
    {
      "channel": 1,
      "note": 33,
      "start": 86.4463,
      "duration": 0.1175,
      "velocity": 127,
      "chip": "ym2612"
    },
    {
      "channel": 2,
      "note": 57,
      "start": 86.4469,
      "duration": 0.0958,
      "velocity": 94,
      "chip": "ym2612"
    },
    {
      "channel": 1,
      "note": 64,
      "start": 86.9838,
      "duration": 0.0617,
      "velocity": 113,
      "chip": "ym2612"
    },
    {
      "channel": 2,
      "note": 57,
      "start": 86.9844,
      "duration": 0.0951,
      "velocity": 94,
      "chip": "ym2612"
    },
    {
      "channel": 1,
      "note": 64,
      "start": 87.1596,
      "duration": 0.0663,
      "velocity": 113,
      "chip": "ym2612"
    },
    {
      "channel": 1,
      "note": 64,
      "start": 87.343,
      "duration": 0.0855,
      "velocity": 113,
      "chip": "ym2612"
    },
    {
      "channel": 1,
      "note": 64,
      "start": 87.5263,
      "duration": 0.0699,
      "velocity": 113,
      "chip": "ym2612"
    },
    {
      "channel": 2,
      "note": 57,
      "start": 87.5269,
      "duration": 0.0991,
      "velocity": 94,
      "chip": "ym2612"
    },
    {
      "channel": 1,
      "note": 64,
      "start": 88.0596,
      "duration": 0.083,
      "velocity": 113,
      "chip": "ym2612"
    },
    {
      "channel": 2,
      "note": 57,
      "start": 88.0602,
      "duration": 0.0992,
      "velocity": 94,
      "chip": "ym2612"
    },
    {
      "channel": 1,
      "note": 33,
      "start": 88.5984,
      "duration": 0.1109,
      "velocity": 127,
      "chip": "ym2612"
    },
    {
      "channel": 2,
      "note": 57,
      "start": 88.599,
      "duration": 0.1108,
      "velocity": 94,
      "chip": "ym2612"
    },
    {
      "channel": 1,
      "note": 64,
      "start": 89.1456,
      "duration": 0.0803,
      "velocity": 113,
      "chip": "ym2612"
    },
    {
      "channel": 2,
      "note": 57,
      "start": 89.1463,
      "duration": 0.0964,
      "velocity": 94,
      "chip": "ym2612"
    },
    {
      "channel": 1,
      "note": 64,
      "start": 89.3263,
      "duration": 0.0688,
      "velocity": 113,
      "chip": "ym2612"
    },
    {
      "channel": 1,
      "note": 64,
      "start": 89.4965,
      "duration": 0.0823,
      "velocity": 113,
      "chip": "ym2612"
    },
    {
      "channel": 1,
      "note": 64,
      "start": 89.6788,
      "duration": 0.0805,
      "velocity": 113,
      "chip": "ym2612"
    },
    {
      "channel": 2,
      "note": 57,
      "start": 89.6794,
      "duration": 0.1005,
      "velocity": 94,
      "chip": "ym2612"
    },
    {
      "channel": 1,
      "note": 64,
      "start": 89.8596,
      "duration": 0.0534,
      "velocity": 113,
      "chip": "ym2612"
    },
    {
      "channel": 1,
      "note": 64,
      "start": 90.0433,
      "duration": 0.0827,
      "velocity": 113,
      "chip": "ym2612"
    },
    {
      "channel": 1,
      "note": 64,
      "start": 90.2263,
      "duration": 0.0699,
      "velocity": 113,
      "chip": "ym2612"
    },
    {
      "channel": 2,
      "note": 57,
      "start": 90.2269,
      "duration": 0.0991,
      "velocity": 94,
      "chip": "ym2612"
    },
    {
      "channel": 0,
      "note": 57,
      "start": 90.7596,
      "duration": 1.3663,
      "velocity": 103,
      "chip": "ym2612"
    },
    {
      "channel": 1,
      "note": 33,
      "start": 90.763,
      "duration": 0.1296,
      "velocity": 127,
      "chip": "ym2612"
    },
    {
      "channel": 2,
      "note": 57,
      "start": 90.7636,
      "duration": 0.0978,
      "velocity": 94,
      "chip": "ym2612"
    },
    {
      "channel": 1,
      "note": 64,
      "start": 91.3127,
      "duration": 0.0633,
      "velocity": 113,
      "chip": "ym2612"
    },
    {
      "channel": 2,
      "note": 57,
      "start": 91.3133,
      "duration": 0.0961,
      "velocity": 94,
      "chip": "ym2612"
    },
    {
      "channel": 1,
      "note": 64,
      "start": 91.4832,
      "duration": 0.0644,
      "velocity": 113,
      "chip": "ym2612"
    },
    {
      "channel": 1,
      "note": 64,
      "start": 91.6596,
      "duration": 0.0997,
      "velocity": 113,
      "chip": "ym2612"
    },
    {
      "channel": 1,
      "note": 64,
      "start": 91.8433,
      "duration": 0.0827,
      "velocity": 113,
      "chip": "ym2612"
    },
    {
      "channel": 2,
      "note": 57,
      "start": 91.8439,
      "duration": 0.0988,
      "velocity": 94,
      "chip": "ym2612"
    },
    {
      "channel": 0,
      "note": 57,
      "start": 92.3825,
      "duration": 0.1268,
      "velocity": 103,
      "chip": "ym2612"
    },
    {
      "channel": 1,
      "note": 64,
      "start": 92.3831,
      "duration": 0.0763,
      "velocity": 113,
      "chip": "ym2612"
    },
    {
      "channel": 2,
      "note": 57,
      "start": 92.3837,
      "duration": 0.0933,
      "velocity": 94,
      "chip": "ym2612"
    },
    {
      "channel": 0,
      "note": 60,
      "start": 92.5596,
      "duration": 0.1006,
      "velocity": 103,
      "chip": "ym2612"
    },
    {
      "channel": 0,
      "note": 64,
      "start": 92.7429,
      "duration": 0.1163,
      "velocity": 103,
      "chip": "ym2612"
    },
    {
      "channel": 0,
      "note": 69,
      "start": 92.9263,
      "duration": 0.1663,
      "velocity": 103,
      "chip": "ym2612"
    },
    {
      "channel": 1,
      "note": 33,
      "start": 92.9295,
      "duration": 0.0964,
      "velocity": 127,
      "chip": "ym2612"
    },
    {
      "channel": 2,
      "note": 57,
      "start": 92.9302,
      "duration": 0.0959,
      "velocity": 94,
      "chip": "ym2612"
    },
    {
      "channel": 0,
      "note": 67,
      "start": 93.4648,
      "duration": 0.7778,
      "velocity": 103,
      "chip": "ym2612"
    },
    {
      "channel": 1,
      "note": 64,
      "start": 93.4681,
      "duration": 0.0746,
      "velocity": 113,
      "chip": "ym2612"
    },
    {
      "channel": 2,
      "note": 57,
      "start": 93.4688,
      "duration": 0.0916,
      "velocity": 94,
      "chip": "ym2612"
    },
    {
      "channel": 1,
      "note": 64,
      "start": 93.6433,
      "duration": 0.0827,
      "velocity": 113,
      "chip": "ym2612"
    },
    {
      "channel": 1,
      "note": 64,
      "start": 93.8263,
      "duration": 0.083,
      "velocity": 113,
      "chip": "ym2612"
    },
    {
      "channel": 1,
      "note": 64,
      "start": 94.0096,
      "duration": 0.0706,
      "velocity": 113,
      "chip": "ym2612"
    },
    {
      "channel": 2,
      "note": 57,
      "start": 94.0103,
      "duration": 0.0991,
      "velocity": 94,
      "chip": "ym2612"
    },
    {
      "channel": 1,
      "note": 64,
      "start": 94.1835,
      "duration": 0.0592,
      "velocity": 113,
      "chip": "ym2612"
    },
    {
      "channel": 0,
      "note": 65,
      "start": 94.3655,
      "duration": 0.0947,
      "velocity": 103,
      "chip": "ym2612"
    },
    {
      "channel": 1,
      "note": 64,
      "start": 94.3661,
      "duration": 0.0765,
      "velocity": 113,
      "chip": "ym2612"
    },
    {
      "channel": 0,
      "note": 67,
      "start": 94.5429,
      "duration": 0.1163,
      "velocity": 103,
      "chip": "ym2612"
    },
    {
      "channel": 1,
      "note": 64,
      "start": 94.5436,
      "duration": 0.0824,
      "velocity": 113,
      "chip": "ym2612"
    },
    {
      "channel": 2,
      "note": 57,
      "start": 94.5441,
      "duration": 0.0986,
      "velocity": 94,
      "chip": "ym2612"
    },
    {
      "channel": 0,
      "note": 65,
      "start": 94.7263,
      "duration": 0.084,
      "velocity": 103,
      "chip": "ym2612"
    },
    {
      "channel": 0,
      "note": 64,
      "start": 94.9099,
      "duration": 0.0827,
      "velocity": 103,
      "chip": "ym2612"
    },
    {
      "channel": 0,
      "note": 64,
      "start": 95.0772,
      "duration": 1.3203,
      "velocity": 103,
      "chip": "ym2612"
    },
    {
      "channel": 1,
      "note": 33,
      "start": 95.0807,
      "duration": 0.112,
      "velocity": 127,
      "chip": "ym2612"
    },
    {
      "channel": 2,
      "note": 60,
      "start": 95.0813,
      "duration": 0.1134,
      "velocity": 94,
      "chip": "ym2612"
    },
    {
      "channel": 1,
      "note": 64,
      "start": 95.629,
      "duration": 0.0636,
      "velocity": 113,
      "chip": "ym2612"
    },
    {
      "channel": 2,
      "note": 60,
      "start": 95.6296,
      "duration": 0.0964,
      "velocity": 94,
      "chip": "ym2612"
    },
    {
      "channel": 1,
      "note": 64,
      "start": 95.8096,
      "duration": 0.0497,
      "velocity": 113,
      "chip": "ym2612"
    },
    {
      "channel": 1,
      "note": 64,
      "start": 95.9825,
      "duration": 0.0827,
      "velocity": 113,
      "chip": "ym2612"
    },
    {
      "channel": 1,
      "note": 64,
      "start": 96.1656,
      "duration": 0.0771,
      "velocity": 113,
      "chip": "ym2612"
    },
    {
      "channel": 2,
      "note": 60,
      "start": 96.1661,
      "duration": 0.0981,
      "velocity": 94,
      "chip": "ym2612"
    },
    {
      "channel": 0,
      "note": 60,
      "start": 96.7099,
      "duration": 0.166,
      "velocity": 103,
      "chip": "ym2612"
    },
    {
      "channel": 1,
      "note": 64,
      "start": 96.7105,
      "duration": 0.0654,
      "velocity": 113,
      "chip": "ym2612"
    },
    {
      "channel": 2,
      "note": 60,
      "start": 96.7111,
      "duration": 0.0663,
      "velocity": 94,
      "chip": "ym2612"
    },
    {
      "channel": 0,
      "note": 64,
      "start": 96.8774,
      "duration": 0.1485,
      "velocity": 103,
      "chip": "ym2612"
    },
    {
      "channel": 0,
      "note": 67,
      "start": 97.0605,
      "duration": 0.0987,
      "velocity": 103,
      "chip": "ym2612"
    },
    {
      "channel": 0,
      "note": 74,
      "start": 97.2432,
      "duration": 0.0827,
      "velocity": 103,
      "chip": "ym2612"
    },
    {
      "channel": 1,
      "note": 33,
      "start": 97.2467,
      "duration": 0.096,
      "velocity": 127,
      "chip": "ym2612"
    },
    {
      "channel": 2,
      "note": 60,
      "start": 97.2472,
      "duration": 0.0809,
      "velocity": 94,
      "chip": "ym2612"
    },
    {
      "channel": 0,
      "note": 74,
      "start": 97.4263,
      "duration": 0.083,
      "velocity": 103,
      "chip": "ym2612"
    },
    {
      "channel": 0,
      "note": 74,
      "start": 97.6096,
      "duration": 0.0997,
      "velocity": 103,
      "chip": "ym2612"
    },
    {
      "channel": 0,
      "note": 72,
      "start": 97.7929,
      "duration": 0.9163,
      "velocity": 103,
      "chip": "ym2612"
    },
    {
      "channel": 1,
      "note": 64,
      "start": 97.7962,
      "duration": 0.0631,
      "velocity": 113,
      "chip": "ym2612"
    },
    {
      "channel": 2,
      "note": 60,
      "start": 97.7968,
      "duration": 0.0792,
      "velocity": 94,
      "chip": "ym2612"
    },
    {
      "channel": 1,
      "note": 64,
      "start": 97.9606,
      "duration": 0.0654,
      "velocity": 113,
      "chip": "ym2612"
    },
    {
      "channel": 1,
      "note": 64,
      "start": 98.143,
      "duration": 0.083,
      "velocity": 113,
      "chip": "ym2612"
    },
    {
      "channel": 1,
      "note": 64,
      "start": 98.3263,
      "duration": 0.083,
      "velocity": 113,
      "chip": "ym2612"
    },
    {
      "channel": 2,
      "note": 60,
      "start": 98.3269,
      "duration": 0.0991,
      "velocity": 94,
      "chip": "ym2612"
    },
    {
      "channel": 0,
      "note": 72,
      "start": 98.8654,
      "duration": 0.2938,
      "velocity": 103,
      "chip": "ym2612"
    },
    {
      "channel": 1,
      "note": 64,
      "start": 98.8661,
      "duration": 0.0609,
      "velocity": 113,
      "chip": "ym2612"
    },
    {
      "channel": 2,
      "note": 60,
      "start": 98.8666,
      "duration": 0.0937,
      "velocity": 94,
      "chip": "ym2612"
    },
    {
      "channel": 0,
      "note": 74,
      "start": 99.2263,
      "duration": 0.0997,
      "velocity": 103,
      "chip": "ym2612"
    },
    {
      "channel": 0,
      "note": 76,
      "start": 99.4096,
      "duration": 0.1183,
      "velocity": 103,
      "chip": "ym2612"
    },
    {
      "channel": 1,
      "note": 33,
      "start": 99.413,
      "duration": 0.0963,
      "velocity": 127,
      "chip": "ym2612"
    },
    {
      "channel": 2,
      "note": 62,
      "start": 99.4136,
      "duration": 0.0791,
      "velocity": 94,
      "chip": "ym2612"
    },
    {
      "channel": 0,
      "note": 73,
      "start": 99.7639,
      "duration": 0.0954,
      "velocity": 103,
      "chip": "ym2612"
    },
    {
      "channel": 0,
      "note": 69,
      "start": 99.9429,
      "duration": 0.9059,
      "velocity": 103,
      "chip": "ym2612"
    },
    {
      "channel": 1,
      "note": 64,
      "start": 99.9462,
      "duration": 0.0641,
      "velocity": 113,
      "chip": "ym2612"
    },
    {
      "channel": 2,
      "note": 62,
      "start": 99.9468,
      "duration": 0.0971,
      "velocity": 94,
      "chip": "ym2612"
    },
    {
      "channel": 1,
      "note": 64,
      "start": 100.1263,
      "duration": 0.051,
      "velocity": 113,
      "chip": "ym2612"
    },
    {
      "channel": 1,
      "note": 64,
      "start": 100.31,
      "duration": 0.0827,
      "velocity": 113,
      "chip": "ym2612"
    },
    {
      "channel": 1,
      "note": 64,
      "start": 100.493,
      "duration": 0.0714,
      "velocity": 113,
      "chip": "ym2612"
    },
    {
      "channel": 2,
      "note": 62,
      "start": 100.4936,
      "duration": 0.0824,
      "velocity": 94,
      "chip": "ym2612"
    },
    {
      "channel": 0,
      "note": 69,
      "start": 101.0263,
      "duration": 0.083,
      "velocity": 103,
      "chip": "ym2612"
    },
    {
      "channel": 1,
      "note": 64,
      "start": 101.0269,
      "duration": 0.0658,
      "velocity": 113,
      "chip": "ym2612"
    },
    {
      "channel": 2,
      "note": 62,
      "start": 101.0275,
      "duration": 0.0986,
      "velocity": 94,
      "chip": "ym2612"
    },
    {
      "channel": 0,
      "note": 69,
      "start": 101.2096,
      "duration": 0.0997,
      "velocity": 103,
      "chip": "ym2612"
    },
    {
      "channel": 0,
      "note": 71,
      "start": 101.393,
      "duration": 0.0673,
      "velocity": 103,
      "chip": "ym2612"
    },
    {
      "channel": 0,
      "note": 72,
      "start": 101.5605,
      "duration": 0.6987,
      "velocity": 103,
      "chip": "ym2612"
    },
    {
      "channel": 1,
      "note": 33,
      "start": 101.564,
      "duration": 0.0973,
      "velocity": 127,
      "chip": "ym2612"
    },
    {
      "channel": 2,
      "note": 65,
      "start": 101.5645,
      "duration": 0.0782,
      "velocity": 94,
      "chip": "ym2612"
    },
    {
      "channel": 1,
      "note": 64,
      "start": 102.1126,
      "duration": 0.0634,
      "velocity": 113,
      "chip": "ym2612"
    },
    {
      "channel": 2,
      "note": 65,
      "start": 102.1133,
      "duration": 0.0961,
      "velocity": 94,
      "chip": "ym2612"
    },
    {
      "channel": 1,
      "note": 64,
      "start": 102.293,
      "duration": 0.0497,
      "velocity": 113,
      "chip": "ym2612"
    },
    {
      "channel": 0,
      "note": 72,
      "start": 102.4654,
      "duration": 0.0938,
      "velocity": 103,
      "chip": "ym2612"
    },
    {
      "channel": 1,
      "note": 64,
      "start": 102.4661,
      "duration": 0.0766,
      "velocity": 113,
      "chip": "ym2612"
    },
    {
      "channel": 0,
      "note": 74,
      "start": 102.6442,
      "duration": 0.166,
      "velocity": 103,
      "chip": "ym2612"
    },
    {
      "channel": 1,
      "note": 64,
      "start": 102.6448,
      "duration": 0.0812,
      "velocity": 113,
      "chip": "ym2612"
    },
    {
      "channel": 2,
      "note": 67,
      "start": 102.6454,
      "duration": 0.0983,
      "velocity": 94,
      "chip": "ym2612"
    },
    {
      "channel": 0,
      "note": 74,
      "start": 103.1929,
      "duration": 0.0997,
      "velocity": 103,
      "chip": "ym2612"
    },
    {
      "channel": 1,
      "note": 64,
      "start": 103.1936,
      "duration": 0.0658,
      "velocity": 113,
      "chip": "ym2612"
    },
    {
      "channel": 2,
      "note": 67,
      "start": 103.1942,
      "duration": 0.0996,
      "velocity": 94,
      "chip": "ym2612"
    },
    {
      "channel": 0,
      "note": 72,
      "start": 103.3605,
      "duration": 0.0987,
      "velocity": 103,
      "chip": "ym2612"
    },
    {
      "channel": 0,
      "note": 74,
      "start": 103.5439,
      "duration": 0.0987,
      "velocity": 103,
      "chip": "ym2612"
    },
    {
      "channel": 0,
      "note": 77,
      "start": 103.7263,
      "duration": 0.1186,
      "velocity": 103,
      "chip": "ym2612"
    },
    {
      "channel": 1,
      "note": 33,
      "start": 103.7297,
      "duration": 0.0963,
      "velocity": 127,
      "chip": "ym2612"
    },
    {
      "channel": 2,
      "note": 62,
      "start": 103.7302,
      "duration": 0.0791,
      "velocity": 94,
      "chip": "ym2612"
    },
    {
      "channel": 0,
      "note": 76,
      "start": 104.2649,
      "duration": 1.1611,
      "velocity": 103,
      "chip": "ym2612"
    },
    {
      "channel": 1,
      "note": 64,
      "start": 104.2681,
      "duration": 0.0746,
      "velocity": 113,
      "chip": "ym2612"
    },
    {
      "channel": 2,
      "note": 64,
      "start": 104.2688,
      "duration": 0.1073,
      "velocity": 94,
      "chip": "ym2612"
    },
    {
      "channel": 1,
      "note": 64,
      "start": 104.4442,
      "duration": 0.0651,
      "velocity": 113,
      "chip": "ym2612"
    },
    {
      "channel": 1,
      "note": 64,
      "start": 104.6263,
      "duration": 0.083,
      "velocity": 113,
      "chip": "ym2612"
    },
    {
      "channel": 1,
      "note": 64,
      "start": 104.8096,
      "duration": 0.083,
      "velocity": 113,
      "chip": "ym2612"
    },
    {
      "channel": 2,
      "note": 64,
      "start": 104.8103,
      "duration": 0.1158,
      "velocity": 94,
      "chip": "ym2612"
    },
    {
      "channel": 1,
      "note": 64,
      "start": 105.3489,
      "duration": 0.0663,
      "velocity": 113,
      "chip": "ym2612"
    },
    {
      "channel": 2,
      "note": 64,
      "start": 105.3495,
      "duration": 0.1266,
      "velocity": 94,
      "chip": "ym2612"
    },
    {
      "channel": 0,
      "note": 62,
      "start": 105.7099,
      "duration": 0.0503,
      "velocity": 103,
      "chip": "ym2612"
    },
    {
      "channel": 0,
      "note": 62,
      "start": 105.8929,
      "duration": 0.3544,
      "velocity": 103,
      "chip": "ym2612"
    },
    {
      "channel": 1,
      "note": 33,
      "start": 105.8963,
      "duration": 0.0796,
      "velocity": 127,
      "chip": "ym2612"
    },
    {
      "channel": 2,
      "note": 62,
      "start": 105.8969,
      "duration": 0.0644,
      "velocity": 94,
      "chip": "ym2612"
    },
    {
      "channel": 0,
      "note": 64,
      "start": 106.2476,
      "duration": 0.0784,
      "velocity": 103,
      "chip": "ym2612"
    },
    {
      "channel": 0,
      "note": 64,
      "start": 106.4263,
      "duration": 0.1022,
      "velocity": 103,
      "chip": "ym2612"
    },
    {
      "channel": 1,
      "note": 64,
      "start": 106.4295,
      "duration": 0.0798,
      "velocity": 113,
      "chip": "ym2612"
    },
    {
      "channel": 2,
      "note": 64,
      "start": 106.4302,
      "duration": 0.1317,
      "velocity": 94,
      "chip": "ym2612"
    },
    {
      "channel": 1,
      "note": 64,
      "start": 106.6096,
      "duration": 0.083,
      "velocity": 113,
      "chip": "ym2612"
    },
    {
      "channel": 0,
      "note": 74,
      "start": 106.7929,
      "duration": 0.0497,
      "velocity": 103,
      "chip": "ym2612"
    },
    {
      "channel": 1,
      "note": 64,
      "start": 106.7936,
      "duration": 0.0824,
      "velocity": 113,
      "chip": "ym2612"
    },
    {
      "channel": 0,
      "note": 74,
      "start": 106.9766,
      "duration": 0.3494,
      "velocity": 103,
      "chip": "ym2612"
    },
    {
      "channel": 1,
      "note": 64,
      "start": 106.9772,
      "duration": 0.0667,
      "velocity": 113,
      "chip": "ym2612"
    },
    {
      "channel": 2,
      "note": 74,
      "start": 106.9778,
      "duration": 0.0982,
      "velocity": 94,
      "chip": "ym2612"
    },
    {
      "channel": 1,
      "note": 64,
      "start": 107.1439,
      "duration": 0.0821,
      "velocity": 113,
      "chip": "ym2612"
    },
    {
      "channel": 0,
      "note": 76,
      "start": 107.3263,
      "duration": 0.083,
      "velocity": 103,
      "chip": "ym2612"
    },
    {
      "channel": 1,
      "note": 64,
      "start": 107.3269,
      "duration": 0.0825,
      "velocity": 113,
      "chip": "ym2612"
    },
    {
      "channel": 0,
      "note": 76,
      "start": 107.5099,
      "duration": 0.117,
      "velocity": 103,
      "chip": "ym2612"
    },
    {
      "channel": 1,
      "note": 64,
      "start": 107.5105,
      "duration": 0.0654,
      "velocity": 113,
      "chip": "ym2612"
    },
    {
      "channel": 2,
      "note": 76,
      "start": 107.5111,
      "duration": 0.0983,
      "velocity": 94,
      "chip": "ym2612"
    },
    {
      "channel": 0,
      "note": 57,
      "start": 108.0474,
      "duration": 1.2618,
      "velocity": 103,
      "chip": "ym2612"
    },
    {
      "channel": 1,
      "note": 33,
      "start": 108.0507,
      "duration": 0.1086,
      "velocity": 127,
      "chip": "ym2612"
    },
    {
      "channel": 2,
      "note": 57,
      "start": 108.0514,
      "duration": 0.058,
      "velocity": 94,
      "chip": "ym2612"
    },
    {
      "channel": 1,
      "note": 64,
      "start": 108.5957,
      "duration": 0.0636,
      "velocity": 113,
      "chip": "ym2612"
    },
    {
      "channel": 2,
      "note": 57,
      "start": 108.5963,
      "duration": 0.0964,
      "velocity": 94,
      "chip": "ym2612"
    },
    {
      "channel": 1,
      "note": 64,
      "start": 108.7766,
      "duration": 0.066,
      "velocity": 113,
      "chip": "ym2612"
    },
    {
      "channel": 1,
      "note": 64,
      "start": 108.9489,
      "duration": 0.0938,
      "velocity": 113,
      "chip": "ym2612"
    },
    {
      "channel": 1,
      "note": 64,
      "start": 109.1322,
      "duration": 0.0771,
      "velocity": 113,
      "chip": "ym2612"
    },
    {
      "channel": 2,
      "note": 57,
      "start": 109.1328,
      "duration": 0.0981,
      "velocity": 94,
      "chip": "ym2612"
    },
    {
      "channel": 0,
      "note": 57,
      "start": 109.6763,
      "duration": 0.1163,
      "velocity": 103,
      "chip": "ym2612"
    },
    {
      "channel": 1,
      "note": 64,
      "start": 109.6769,
      "duration": 0.0667,
      "velocity": 113,
      "chip": "ym2612"
    },
    {
      "channel": 2,
      "note": 57,
      "start": 109.6775,
      "duration": 0.0819,
      "velocity": 94,
      "chip": "ym2612"
    },
    {
      "channel": 0,
      "note": 60,
      "start": 109.8442,
      "duration": 0.1151,
      "velocity": 103,
      "chip": "ym2612"
    },
    {
      "channel": 0,
      "note": 64,
      "start": 110.0272,
      "duration": 0.0997,
      "velocity": 103,
      "chip": "ym2612"
    },
    {
      "channel": 0,
      "note": 69,
      "start": 110.2096,
      "duration": 0.133,
      "velocity": 103,
      "chip": "ym2612"
    },
    {
      "channel": 1,
      "note": 33,
      "start": 110.2129,
      "duration": 0.0817,
      "velocity": 127,
      "chip": "ym2612"
    },
    {
      "channel": 2,
      "note": 57,
      "start": 110.2135,
      "duration": 0.0959,
      "velocity": 94,
      "chip": "ym2612"
    },
    {
      "channel": 0,
      "note": 67,
      "start": 110.7481,
      "duration": 0.7778,
      "velocity": 103,
      "chip": "ym2612"
    },
    {
      "channel": 1,
      "note": 64,
      "start": 110.7514,
      "duration": 0.0746,
      "velocity": 113,
      "chip": "ym2612"
    },
    {
      "channel": 2,
      "note": 57,
      "start": 110.7521,
      "duration": 0.1073,
      "velocity": 94,
      "chip": "ym2612"
    },
    {
      "channel": 1,
      "note": 64,
      "start": 110.9273,
      "duration": 0.0663,
      "velocity": 113,
      "chip": "ym2612"
    },
    {
      "channel": 1,
      "note": 64,
      "start": 111.11,
      "duration": 0.0827,
      "velocity": 113,
      "chip": "ym2612"
    },
    {
      "channel": 1,
      "note": 64,
      "start": 111.293,
      "duration": 0.083,
      "velocity": 113,
      "chip": "ym2612"
    },
    {
      "channel": 2,
      "note": 57,
      "start": 111.2936,
      "duration": 0.1324,
      "velocity": 94,
      "chip": "ym2612"
    },
    {
      "channel": 1,
      "note": 64,
      "start": 111.4763,
      "duration": 0.0712,
      "velocity": 113,
      "chip": "ym2612"
    },
    {
      "channel": 0,
      "note": 65,
      "start": 111.6491,
      "duration": 0.1101,
      "velocity": 103,
      "chip": "ym2612"
    },
    {
      "channel": 1,
      "note": 64,
      "start": 111.6498,
      "duration": 0.0762,
      "velocity": 113,
      "chip": "ym2612"
    },
    {
      "channel": 0,
      "note": 67,
      "start": 111.8272,
      "duration": 0.0997,
      "velocity": 103,
      "chip": "ym2612"
    },
    {
      "channel": 1,
      "note": 64,
      "start": 111.8278,
      "duration": 0.0815,
      "velocity": 113,
      "chip": "ym2612"
    },
    {
      "channel": 2,
      "note": 57,
      "start": 111.8284,
      "duration": 0.1319,
      "velocity": 94,
      "chip": "ym2612"
    },
    {
      "channel": 0,
      "note": 65,
      "start": 112.0096,
      "duration": 0.0997,
      "velocity": 103,
      "chip": "ym2612"
    },
    {
      "channel": 0,
      "note": 64,
      "start": 112.1929,
      "duration": 0.0997,
      "velocity": 103,
      "chip": "ym2612"
    },
    {
      "channel": 0,
      "note": 64,
      "start": 112.3766,
      "duration": 1.1994,
      "velocity": 103,
      "chip": "ym2612"
    },
    {
      "channel": 1,
      "note": 33,
      "start": 112.3799,
      "duration": 0.065,
      "velocity": 127,
      "chip": "ym2612"
    },
    {
      "channel": 2,
      "note": 60,
      "start": 112.3806,
      "duration": 0.0955,
      "velocity": 94,
      "chip": "ym2612"
    },
    {
      "channel": 1,
      "note": 64,
      "start": 112.9126,
      "duration": 0.08,
      "velocity": 113,
      "chip": "ym2612"
    },
    {
      "channel": 2,
      "note": 60,
      "start": 112.9133,
      "duration": 0.1295,
      "velocity": 94,
      "chip": "ym2612"
    },
    {
      "channel": 1,
      "note": 64,
      "start": 113.093,
      "duration": 0.083,
      "velocity": 113,
      "chip": "ym2612"
    },
    {
      "channel": 1,
      "note": 64,
      "start": 113.2763,
      "duration": 0.0723,
      "velocity": 113,
      "chip": "ym2612"
    },
    {
      "channel": 1,
      "note": 64,
      "start": 113.4596,
      "duration": 0.0663,
      "velocity": 113,
      "chip": "ym2612"
    },
    {
      "channel": 2,
      "note": 60,
      "start": 113.4603,
      "duration": 0.0991,
      "velocity": 94,
      "chip": "ym2612"
    },
    {
      "channel": 0,
      "note": 60,
      "start": 113.9929,
      "duration": 0.1163,
      "velocity": 103,
      "chip": "ym2612"
    },
    {
      "channel": 1,
      "note": 64,
      "start": 113.9936,
      "duration": 0.0824,
      "velocity": 113,
      "chip": "ym2612"
    },
    {
      "channel": 2,
      "note": 60,
      "start": 113.9941,
      "duration": 0.0986,
      "velocity": 94,
      "chip": "ym2612"
    },
    {
      "channel": 0,
      "note": 64,
      "start": 114.1766,
      "duration": 0.116,
      "velocity": 103,
      "chip": "ym2612"
    },
    {
      "channel": 0,
      "note": 67,
      "start": 114.3596,
      "duration": 0.0997,
      "velocity": 103,
      "chip": "ym2612"
    },
    {
      "channel": 0,
      "note": 74,
      "start": 114.5272,
      "duration": 0.0821,
      "velocity": 103,
      "chip": "ym2612"
    },
    {
      "channel": 1,
      "note": 33,
      "start": 114.5306,
      "duration": 0.0788,
      "velocity": 127,
      "chip": "ym2612"
    },
    {
      "channel": 2,
      "note": 60,
      "start": 114.5312,
      "duration": 0.0968,
      "velocity": 94,
      "chip": "ym2612"
    },
    {
      "channel": 0,
      "note": 74,
      "start": 114.7099,
      "duration": 0.0827,
      "velocity": 103,
      "chip": "ym2612"
    },
    {
      "channel": 0,
      "note": 74,
      "start": 114.8929,
      "duration": 0.0997,
      "velocity": 103,
      "chip": "ym2612"
    },
    {
      "channel": 0,
      "note": 72,
      "start": 115.0763,
      "duration": 0.883,
      "velocity": 103,
      "chip": "ym2612"
    },
    {
      "channel": 1,
      "note": 64,
      "start": 115.0795,
      "duration": 0.0641,
      "velocity": 113,
      "chip": "ym2612"
    },
    {
      "channel": 2,
      "note": 60,
      "start": 115.0802,
      "duration": 0.0959,
      "velocity": 94,
      "chip": "ym2612"
    },
    {
      "channel": 1,
      "note": 64,
      "start": 115.2596,
      "duration": 0.0673,
      "velocity": 113,
      "chip": "ym2612"
    },
    {
      "channel": 1,
      "note": 64,
      "start": 115.4296,
      "duration": 0.0797,
      "velocity": 113,
      "chip": "ym2612"
    },
    {
      "channel": 1,
      "note": 64,
      "start": 115.6096,
      "duration": 0.0706,
      "velocity": 113,
      "chip": "ym2612"
    },
    {
      "channel": 2,
      "note": 60,
      "start": 115.6103,
      "duration": 0.1043,
      "velocity": 94,
      "chip": "ym2612"
    },
    {
      "channel": 0,
      "note": 72,
      "start": 116.1596,
      "duration": 0.0673,
      "velocity": 103,
      "chip": "ym2612"
    },
    {
      "channel": 1,
      "note": 64,
      "start": 116.1602,
      "duration": 0.0668,
      "velocity": 113,
      "chip": "ym2612"
    },
    {
      "channel": 2,
      "note": 60,
      "start": 116.1609,
      "duration": 0.1152,
      "velocity": 94,
      "chip": "ym2612"
    },
    {
      "channel": 0,
      "note": 72,
      "start": 116.3272,
      "duration": 0.0821,
      "velocity": 103,
      "chip": "ym2612"
    },
    {
      "channel": 0,
      "note": 74,
      "start": 116.5109,
      "duration": 0.0984,
      "velocity": 103,
      "chip": "ym2612"
    },
    {
      "channel": 0,
      "note": 76,
      "start": 116.6929,
      "duration": 0.1163,
      "velocity": 103,
      "chip": "ym2612"
    },
    {
      "channel": 1,
      "note": 33,
      "start": 116.6963,
      "duration": 0.0796,
      "velocity": 127,
      "chip": "ym2612"
    },
    {
      "channel": 2,
      "note": 62,
      "start": 116.6969,
      "duration": 0.0958,
      "velocity": 94,
      "chip": "ym2612"
    },
    {
      "channel": 0,
      "note": 73,
      "start": 117.0596,
      "duration": 0.0996,
      "velocity": 103,
      "chip": "ym2612"
    },
    {
      "channel": 0,
      "note": 69,
      "start": 117.2282,
      "duration": 0.8977,
      "velocity": 103,
      "chip": "ym2612"
    },
    {
      "channel": 1,
      "note": 64,
      "start": 117.2315,
      "duration": 0.0778,
      "velocity": 113,
      "chip": "ym2612"
    },
    {
      "channel": 2,
      "note": 62,
      "start": 117.2321,
      "duration": 0.1106,
      "velocity": 94,
      "chip": "ym2612"
    },
    {
      "channel": 1,
      "note": 64,
      "start": 117.4106,
      "duration": 0.0821,
      "velocity": 113,
      "chip": "ym2612"
    },
    {
      "channel": 1,
      "note": 64,
      "start": 117.593,
      "duration": 0.083,
      "velocity": 113,
      "chip": "ym2612"
    },
    {
      "channel": 1,
      "note": 64,
      "start": 117.7766,
      "duration": 0.066,
      "velocity": 113,
      "chip": "ym2612"
    },
    {
      "channel": 2,
      "note": 62,
      "start": 117.7773,
      "duration": 0.1204,
      "velocity": 94,
      "chip": "ym2612"
    },
    {
      "channel": 0,
      "note": 69,
      "start": 118.3158,
      "duration": 0.0768,
      "velocity": 103,
      "chip": "ym2612"
    },
    {
      "channel": 1,
      "note": 64,
      "start": 118.3164,
      "duration": 0.0763,
      "velocity": 113,
      "chip": "ym2612"
    },
    {
      "channel": 2,
      "note": 62,
      "start": 118.317,
      "duration": 0.0934,
      "velocity": 94,
      "chip": "ym2612"
    },
    {
      "channel": 0,
      "note": 69,
      "start": 118.4929,
      "duration": 0.0997,
      "velocity": 103,
      "chip": "ym2612"
    },
    {
      "channel": 0,
      "note": 71,
      "start": 118.6763,
      "duration": 0.083,
      "velocity": 103,
      "chip": "ym2612"
    },
    {
      "channel": 0,
      "note": 72,
      "start": 118.8596,
      "duration": 0.683,
      "velocity": 103,
      "chip": "ym2612"
    },
    {
      "channel": 1,
      "note": 33,
      "start": 118.863,
      "duration": 0.0649,
      "velocity": 127,
      "chip": "ym2612"
    },
    {
      "channel": 2,
      "note": 65,
      "start": 118.8636,
      "duration": 0.0958,
      "velocity": 94,
      "chip": "ym2612"
    },
    {
      "channel": 1,
      "note": 64,
      "start": 119.3957,
      "duration": 0.0803,
      "velocity": 113,
      "chip": "ym2612"
    },
    {
      "channel": 2,
      "note": 65,
      "start": 119.3963,
      "duration": 0.1131,
      "velocity": 94,
      "chip": "ym2612"
    },
    {
      "channel": 1,
      "note": 64,
      "start": 119.5766,
      "duration": 0.0827,
      "velocity": 113,
      "chip": "ym2612"
    },
    {
      "channel": 0,
      "note": 72,
      "start": 119.7596,
      "duration": 0.083,
      "velocity": 103,
      "chip": "ym2612"
    },
    {
      "channel": 1,
      "note": 64,
      "start": 119.7602,
      "duration": 0.0667,
      "velocity": 113,
      "chip": "ym2612"
    },
    {
      "channel": 0,
      "note": 74,
      "start": 119.9272,
      "duration": 0.352,
      "velocity": 103,
      "chip": "ym2612"
    },
    {
      "channel": 1,
      "note": 64,
      "start": 119.9278,
      "duration": 0.0815,
      "velocity": 113,
      "chip": "ym2612"
    },
    {
      "channel": 2,
      "note": 67,
      "start": 119.9284,
      "duration": 0.1143,
      "velocity": 94,
      "chip": "ym2612"
    },
    {
      "channel": 0,
      "note": 74,
      "start": 120.4763,
      "duration": 0.083,
      "velocity": 103,
      "chip": "ym2612"
    },
    {
      "channel": 1,
      "note": 64,
      "start": 120.4769,
      "duration": 0.0825,
      "velocity": 113,
      "chip": "ym2612"
    },
    {
      "channel": 2,
      "note": 67,
      "start": 120.4775,
      "duration": 0.0986,
      "velocity": 94,
      "chip": "ym2612"
    },
    {
      "channel": 0,
      "note": 74,
      "start": 120.6596,
      "duration": 0.0497,
      "velocity": 103,
      "chip": "ym2612"
    },
    {
      "channel": 0,
      "note": 74,
      "start": 120.8432,
      "duration": 0.0673,
      "velocity": 103,
      "chip": "ym2612"
    },
    {
      "channel": 0,
      "note": 76,
      "start": 121.0105,
      "duration": 3.8487,
      "velocity": 103,
      "chip": "ym2612"
    },
    {
      "channel": 1,
      "note": 33,
      "start": 121.0139,
      "duration": 0.0788,
      "velocity": 127,
      "chip": "ym2612"
    },
    {
      "channel": 2,
      "note": 64,
      "start": 121.0145,
      "duration": 0.0949,
      "velocity": 94,
      "chip": "ym2612"
    },
    {
      "channel": 1,
      "note": 64,
      "start": 121.5624,
      "duration": 0.0679,
      "velocity": 113,
      "chip": "ym2612"
    },
    {
      "channel": 2,
      "note": 64,
      "start": 121.5629,
      "duration": 0.0964,
      "velocity": 94,
      "chip": "ym2612"
    },
    {
      "channel": 1,
      "note": 64,
      "start": 121.743,
      "duration": 0.0697,
      "velocity": 113,
      "chip": "ym2612"
    },
    {
      "channel": 1,
      "note": 64,
      "start": 121.9142,
      "duration": 0.0784,
      "velocity": 113,
      "chip": "ym2612"
    },
    {
      "channel": 1,
      "note": 64,
      "start": 122.093,
      "duration": 0.0697,
      "velocity": 113,
      "chip": "ym2612"
    },
    {
      "channel": 2,
      "note": 64,
      "start": 122.0936,
      "duration": 0.1024,
      "velocity": 94,
      "chip": "ym2612"
    },
    {
      "channel": 1,
      "note": 64,
      "start": 122.6433,
      "duration": 0.0697,
      "velocity": 113,
      "chip": "ym2612"
    },
    {
      "channel": 2,
      "note": 64,
      "start": 122.6439,
      "duration": 0.0988,
      "velocity": 94,
      "chip": "ym2612"
    },
    {
      "channel": 1,
      "note": 33,
      "start": 123.1796,
      "duration": 0.113,
      "velocity": 127,
      "chip": "ym2612"
    },
    {
      "channel": 2,
      "note": 64,
      "start": 123.1802,
      "duration": 0.1178,
      "velocity": 94,
      "chip": "ym2612"
    },
    {
      "channel": 1,
      "note": 64,
      "start": 123.717,
      "duration": 0.0636,
      "velocity": 113,
      "chip": "ym2612"
    },
    {
      "channel": 2,
      "note": 76,
      "start": 123.7175,
      "duration": 0.1085,
      "velocity": 94,
      "chip": "ym2612"
    },
    {
      "channel": 1,
      "note": 64,
      "start": 123.8972,
      "duration": 0.0621,
      "velocity": 113,
      "chip": "ym2612"
    },
    {
      "channel": 1,
      "note": 64,
      "start": 124.0763,
      "duration": 0.083,
      "velocity": 113,
      "chip": "ym2612"
    },
    {
      "channel": 1,
      "note": 64,
      "start": 124.2596,
      "duration": 0.0663,
      "velocity": 113,
      "chip": "ym2612"
    },
    {
      "channel": 2,
      "note": 76,
      "start": 124.2603,
      "duration": 0.1194,
      "velocity": 94,
      "chip": "ym2612"
    },
    {
      "channel": 1,
      "note": 64,
      "start": 124.4433,
      "duration": 0.0697,
      "velocity": 113,
      "chip": "ym2612"
    },
    {
      "channel": 1,
      "note": 64,
      "start": 124.6139,
      "duration": 0.0654,
      "velocity": 113,
      "chip": "ym2612"
    },
    {
      "channel": 2,
      "note": 76,
      "start": 124.6145,
      "duration": 0.0949,
      "velocity": 94,
      "chip": "ym2612"
    },
    {
      "channel": 1,
      "note": 64,
      "start": 124.7972,
      "duration": 0.0655,
      "velocity": 113,
      "chip": "ym2612"
    },
    {
      "channel": 2,
      "note": 64,
      "start": 124.7979,
      "duration": 0.1449,
      "velocity": 94,
      "chip": "ym2612"
    },
    {
      "channel": 0,
      "note": 77,
      "start": 125.343,
      "duration": 0.0682,
      "velocity": 103,
      "chip": "ym2612"
    },
    {
      "channel": 1,
      "note": 35,
      "start": 125.3463,
      "duration": 0.065,
      "velocity": 127,
      "chip": "ym2612"
    },
    {
      "channel": 0,
      "note": 77,
      "start": 125.5119,
      "duration": 0.0663,
      "velocity": 103,
      "chip": "ym2612"
    },
    {
      "channel": 0,
      "note": 77,
      "start": 125.6949,
      "duration": 0.0996,
      "velocity": 103,
      "chip": "ym2612"
    },
    {
      "channel": 0,
      "note": 73,
      "start": 125.8763,
      "duration": 0.0997,
      "velocity": 103,
      "chip": "ym2612"
    },
    {
      "channel": 1,
      "note": 35,
      "start": 125.8768,
      "duration": 0.0825,
      "velocity": 127,
      "chip": "ym2612"
    },
    {
      "channel": 0,
      "note": 73,
      "start": 126.2432,
      "duration": 0.0994,
      "velocity": 103,
      "chip": "ym2612"
    },
    {
      "channel": 1,
      "note": 35,
      "start": 126.2438,
      "duration": 0.0341,
      "velocity": 127,
      "chip": "ym2612"
    },
    {
      "channel": 0,
      "note": 75,
      "start": 126.4116,
      "duration": 0.2163,
      "velocity": 103,
      "chip": "ym2612"
    },
    {
      "channel": 1,
      "note": 35,
      "start": 126.4121,
      "duration": 0.1139,
      "velocity": 127,
      "chip": "ym2612"
    },
    {
      "channel": 1,
      "note": 59,
      "start": 126.9623,
      "duration": 0.5303,
      "velocity": 122,
      "chip": "ym2612"
    },
    {
      "channel": 2,
      "note": 57,
      "start": 126.9629,
      "duration": 0.3964,
      "velocity": 94,
      "chip": "ym2612"
    },
    {
      "channel": 2,
      "note": 59,
      "start": 127.3641,
      "duration": 0.062,
      "velocity": 94,
      "chip": "ym2612"
    },
    {
      "channel": 2,
      "note": 61,
      "start": 127.4298,
      "duration": 0.063,
      "velocity": 94,
      "chip": "ym2612"
    },
    {
      "channel": 0,
      "note": 77,
      "start": 127.4974,
      "duration": 0.0786,
      "velocity": 103,
      "chip": "ym2612"
    },
    {
      "channel": 1,
      "note": 35,
      "start": 127.5008,
      "duration": 0.0753,
      "velocity": 127,
      "chip": "ym2612"
    },
    {
      "channel": 2,
      "note": 63,
      "start": 127.5014,
      "duration": 0.1599,
      "velocity": 94,
      "chip": "ym2612"
    },
    {
      "channel": 0,
      "note": 77,
      "start": 127.6763,
      "duration": 0.0663,
      "velocity": 103,
      "chip": "ym2612"
    },
    {
      "channel": 0,
      "note": 77,
      "start": 127.8596,
      "duration": 0.0997,
      "velocity": 103,
      "chip": "ym2612"
    },
    {
      "channel": 0,
      "note": 73,
      "start": 128.0432,
      "duration": 0.0994,
      "velocity": 103,
      "chip": "ym2612"
    },
    {
      "channel": 1,
      "note": 35,
      "start": 128.0438,
      "duration": 0.0678,
      "velocity": 127,
      "chip": "ym2612"
    },
    {
      "channel": 0,
      "note": 73,
      "start": 128.3972,
      "duration": 0.0973,
      "velocity": 103,
      "chip": "ym2612"
    },
    {
      "channel": 1,
      "note": 35,
      "start": 128.3978,
      "duration": 0.0448,
      "velocity": 127,
      "chip": "ym2612"
    },
    {
      "channel": 0,
      "note": 75,
      "start": 128.5766,
      "duration": 0.1679,
      "velocity": 103,
      "chip": "ym2612"
    },
    {
      "channel": 1,
      "note": 35,
      "start": 128.5771,
      "duration": 0.1008,
      "velocity": 127,
      "chip": "ym2612"
    },
    {
      "channel": 1,
      "note": 59,
      "start": 129.129,
      "duration": 0.5182,
      "velocity": 122,
      "chip": "ym2612"
    },
    {
      "channel": 2,
      "note": 57,
      "start": 129.1296,
      "duration": 0.3798,
      "velocity": 94,
      "chip": "ym2612"
    },
    {
      "channel": 2,
      "note": 59,
      "start": 129.5264,
      "duration": 0.2997,
      "velocity": 94,
      "chip": "ym2612"
    },
    {
      "channel": 0,
      "note": 77,
      "start": 129.6596,
      "duration": 0.4497,
      "velocity": 103,
      "chip": "ym2612"
    },
    {
      "channel": 1,
      "note": 35,
      "start": 129.663,
      "duration": 0.0816,
      "velocity": 127,
      "chip": "ym2612"
    },
    {
      "channel": 0,
      "note": 80,
      "start": 130.1981,
      "duration": 0.4778,
      "velocity": 103,
      "chip": "ym2612"
    },
    {
      "channel": 1,
      "note": 35,
      "start": 130.1988,
      "duration": 0.0772,
      "velocity": 127,
      "chip": "ym2612"
    },
    {
      "channel": 1,
      "note": 35,
      "start": 130.5596,
      "duration": 0.083,
      "velocity": 127,
      "chip": "ym2612"
    },
    {
      "channel": 0,
      "note": 81,
      "start": 130.743,
      "duration": 0.2515,
      "velocity": 103,
      "chip": "ym2612"
    },
    {
      "channel": 1,
      "note": 35,
      "start": 130.7436,
      "duration": 0.0677,
      "velocity": 127,
      "chip": "ym2612"
    },
    {
      "channel": 0,
      "note": 80,
      "start": 131.0972,
      "duration": 0.0787,
      "velocity": 103,
      "chip": "ym2612"
    },
    {
      "channel": 0,
      "note": 78,
      "start": 131.2782,
      "duration": 0.3023,
      "velocity": 103,
      "chip": "ym2612"
    },
    {
      "channel": 2,
      "note": 57,
      "start": 131.2789,
      "duration": 0.3971,
      "velocity": 94,
      "chip": "ym2612"
    },
    {
      "channel": 0,
      "note": 81,
      "start": 131.6432,
      "duration": 0.0994,
      "velocity": 103,
      "chip": "ym2612"
    },
    {
      "channel": 2,
      "note": 59,
      "start": 131.6785,
      "duration": 0.0643,
      "velocity": 94,
      "chip": "ym2612"
    },
    {
      "channel": 2,
      "note": 61,
      "start": 131.7597,
      "duration": 0.0497,
      "velocity": 94,
      "chip": "ym2612"
    },
    {
      "channel": 0,
      "note": 80,
      "start": 131.8263,
      "duration": 0.433,
      "velocity": 103,
      "chip": "ym2612"
    },
    {
      "channel": 1,
      "note": 35,
      "start": 131.8269,
      "duration": 0.0677,
      "velocity": 127,
      "chip": "ym2612"
    },
    {
      "channel": 2,
      "note": 63,
      "start": 131.8275,
      "duration": 0.1819,
      "velocity": 94,
      "chip": "ym2612"
    },
    {
      "channel": 0,
      "note": 77,
      "start": 132.3596,
      "duration": 0.4497,
      "velocity": 103,
      "chip": "ym2612"
    },
    {
      "channel": 1,
      "note": 35,
      "start": 132.3602,
      "duration": 0.0825,
      "velocity": 127,
      "chip": "ym2612"
    },
    {
      "channel": 1,
      "note": 35,
      "start": 132.7263,
      "duration": 0.0497,
      "velocity": 127,
      "chip": "ym2612"
    },
    {
      "channel": 0,
      "note": 78,
      "start": 132.8982,
      "duration": 0.2133,
      "velocity": 103,
      "chip": "ym2612"
    },
    {
      "channel": 1,
      "note": 35,
      "start": 132.8988,
      "duration": 0.0772,
      "velocity": 127,
      "chip": "ym2612"
    },
    {
      "channel": 0,
      "note": 77,
      "start": 133.2596,
      "duration": 0.085,
      "velocity": 103,
      "chip": "ym2612"
    },
    {
      "channel": 0,
      "note": 75,
      "start": 133.4432,
      "duration": 0.4707,
      "velocity": 103,
      "chip": "ym2612"
    },
    {
      "channel": 1,
      "note": 35,
      "start": 133.4438,
      "duration": 0.0655,
      "velocity": 127,
      "chip": "ym2612"
    },
    {
      "channel": 2,
      "note": 57,
      "start": 133.4444,
      "duration": 0.3869,
      "velocity": 94,
      "chip": "ym2612"
    },
    {
      "channel": 2,
      "note": 59,
      "start": 133.8434,
      "duration": 0.066,
      "velocity": 94,
      "chip": "ym2612"
    },
    {
      "channel": 2,
      "note": 61,
      "start": 133.9145,
      "duration": 0.0616,
      "velocity": 94,
      "chip": "ym2612"
    },
    {
      "channel": 0,
      "note": 77,
      "start": 133.9819,
      "duration": 0.0629,
      "velocity": 103,
      "chip": "ym2612"
    },
    {
      "channel": 1,
      "note": 35,
      "start": 133.9854,
      "duration": 0.074,
      "velocity": 127,
      "chip": "ym2612"
    },
    {
      "channel": 2,
      "note": 63,
      "start": 133.9859,
      "duration": 0.1901,
      "velocity": 94,
      "chip": "ym2612"
    },
    {
      "channel": 0,
      "note": 77,
      "start": 134.1596,
      "duration": 0.0516,
      "velocity": 103,
      "chip": "ym2612"
    },
    {
      "channel": 0,
      "note": 77,
      "start": 134.3429,
      "duration": 0.0849,
      "velocity": 103,
      "chip": "ym2612"
    },
    {
      "channel": 0,
      "note": 73,
      "start": 134.5263,
      "duration": 0.1163,
      "velocity": 103,
      "chip": "ym2612"
    },
    {
      "channel": 1,
      "note": 35,
      "start": 134.5269,
      "duration": 0.0677,
      "velocity": 127,
      "chip": "ym2612"
    },
    {
      "channel": 0,
      "note": 73,
      "start": 134.8806,
      "duration": 0.0976,
      "velocity": 103,
      "chip": "ym2612"
    },
    {
      "channel": 1,
      "note": 35,
      "start": 134.8812,
      "duration": 0.0635,
      "velocity": 127,
      "chip": "ym2612"
    },
    {
      "channel": 0,
      "note": 75,
      "start": 135.0596,
      "duration": 0.1997,
      "velocity": 103,
      "chip": "ym2612"
    },
    {
      "channel": 1,
      "note": 35,
      "start": 135.0602,
      "duration": 0.0992,
      "velocity": 127,
      "chip": "ym2612"
    },
    {
      "channel": 1,
      "note": 59,
      "start": 135.6009,
      "duration": 0.5293,
      "velocity": 122,
      "chip": "ym2612"
    },
    {
      "channel": 2,
      "note": 57,
      "start": 135.6016,
      "duration": 0.3912,
      "velocity": 94,
      "chip": "ym2612"
    },
    {
      "channel": 2,
      "note": 59,
      "start": 136.0098,
      "duration": 0.0529,
      "velocity": 94,
      "chip": "ym2612"
    },
    {
      "channel": 2,
      "note": 61,
      "start": 136.0764,
      "duration": 0.0541,
      "velocity": 94,
      "chip": "ym2612"
    },
    {
      "channel": 0,
      "note": 77,
      "start": 136.1429,
      "duration": 0.083,
      "velocity": 103,
      "chip": "ym2612"
    },
    {
      "channel": 1,
      "note": 35,
      "start": 136.1463,
      "duration": 0.0797,
      "velocity": 127,
      "chip": "ym2612"
    },
    {
      "channel": 2,
      "note": 63,
      "start": 136.1469,
      "duration": 0.1797,
      "velocity": 94,
      "chip": "ym2612"
    },
    {
      "channel": 0,
      "note": 77,
      "start": 136.3263,
      "duration": 0.0663,
      "velocity": 103,
      "chip": "ym2612"
    },
    {
      "channel": 0,
      "note": 77,
      "start": 136.5099,
      "duration": 0.0683,
      "velocity": 103,
      "chip": "ym2612"
    },
    {
      "channel": 0,
      "note": 73,
      "start": 136.6782,
      "duration": 0.231,
      "velocity": 103,
      "chip": "ym2612"
    },
    {
      "channel": 1,
      "note": 35,
      "start": 136.6788,
      "duration": 0.0805,
      "velocity": 127,
      "chip": "ym2612"
    },
    {
      "channel": 0,
      "note": 73,
      "start": 137.0432,
      "duration": 0.1179,
      "velocity": 103,
      "chip": "ym2612"
    },
    {
      "channel": 1,
      "note": 35,
      "start": 137.0438,
      "duration": 0.0655,
      "velocity": 127,
      "chip": "ym2612"
    },
    {
      "channel": 0,
      "note": 75,
      "start": 137.2263,
      "duration": 0.1849,
      "velocity": 103,
      "chip": "ym2612"
    },
    {
      "channel": 1,
      "note": 35,
      "start": 137.2269,
      "duration": 0.0991,
      "velocity": 127,
      "chip": "ym2612"
    },
    {
      "channel": 1,
      "note": 59,
      "start": 137.7623,
      "duration": 0.5303,
      "velocity": 122,
      "chip": "ym2612"
    },
    {
      "channel": 2,
      "note": 57,
      "start": 137.7629,
      "duration": 0.3964,
      "velocity": 94,
      "chip": "ym2612"
    },
    {
      "channel": 2,
      "note": 59,
      "start": 138.1641,
      "duration": 0.062,
      "velocity": 94,
      "chip": "ym2612"
    },
    {
      "channel": 2,
      "note": 61,
      "start": 138.2434,
      "duration": 0.0494,
      "velocity": 94,
      "chip": "ym2612"
    },
    {
      "channel": 0,
      "note": 77,
      "start": 138.3099,
      "duration": 0.3879,
      "velocity": 103,
      "chip": "ym2612"
    },
    {
      "channel": 1,
      "note": 35,
      "start": 138.3133,
      "duration": 0.096,
      "velocity": 127,
      "chip": "ym2612"
    },
    {
      "channel": 2,
      "note": 63,
      "start": 138.3139,
      "duration": 0.1978,
      "velocity": 94,
      "chip": "ym2612"
    },
    {
      "channel": 0,
      "note": 80,
      "start": 138.8432,
      "duration": 0.3827,
      "velocity": 103,
      "chip": "ym2612"
    },
    {
      "channel": 1,
      "note": 35,
      "start": 138.8438,
      "duration": 0.0822,
      "velocity": 127,
      "chip": "ym2612"
    },
    {
      "channel": 1,
      "note": 35,
      "start": 139.2096,
      "duration": 0.0497,
      "velocity": 127,
      "chip": "ym2612"
    },
    {
      "channel": 0,
      "note": 81,
      "start": 139.3818,
      "duration": 0.2608,
      "velocity": 103,
      "chip": "ym2612"
    },
    {
      "channel": 1,
      "note": 35,
      "start": 139.3824,
      "duration": 0.0602,
      "velocity": 127,
      "chip": "ym2612"
    },
    {
      "channel": 0,
      "note": 80,
      "start": 139.7429,
      "duration": 0.0663,
      "velocity": 103,
      "chip": "ym2612"
    },
    {
      "channel": 0,
      "note": 78,
      "start": 139.9263,
      "duration": 0.233,
      "velocity": 103,
      "chip": "ym2612"
    },
    {
      "channel": 2,
      "note": 57,
      "start": 139.9269,
      "duration": 0.3847,
      "velocity": 94,
      "chip": "ym2612"
    },
    {
      "channel": 0,
      "note": 81,
      "start": 140.2806,
      "duration": 0.0954,
      "velocity": 103,
      "chip": "ym2612"
    },
    {
      "channel": 2,
      "note": 59,
      "start": 140.3264,
      "duration": 0.052,
      "velocity": 94,
      "chip": "ym2612"
    },
    {
      "channel": 2,
      "note": 61,
      "start": 140.393,
      "duration": 0.0663,
      "velocity": 94,
      "chip": "ym2612"
    },
    {
      "channel": 0,
      "note": 80,
      "start": 140.4616,
      "duration": 0.4196,
      "velocity": 103,
      "chip": "ym2612"
    },
    {
      "channel": 1,
      "note": 35,
      "start": 140.4622,
      "duration": 0.0805,
      "velocity": 127,
      "chip": "ym2612"
    },
    {
      "channel": 2,
      "note": 63,
      "start": 140.4628,
      "duration": 0.2132,
      "velocity": 94,
      "chip": "ym2612"
    },
    {
      "channel": 0,
      "note": 83,
      "start": 141.0096,
      "duration": 0.3996,
      "velocity": 103,
      "chip": "ym2612"
    },
    {
      "channel": 1,
      "note": 35,
      "start": 141.0102,
      "duration": 0.0677,
      "velocity": 127,
      "chip": "ym2612"
    },
    {
      "channel": 2,
      "note": 65,
      "start": 141.0108,
      "duration": 0.2819,
      "velocity": 94,
      "chip": "ym2612"
    },
    {
      "channel": 1,
      "note": 35,
      "start": 141.364,
      "duration": 0.034,
      "velocity": 127,
      "chip": "ym2612"
    },
    {
      "channel": 0,
      "note": 85,
      "start": 141.5429,
      "duration": 0.2357,
      "velocity": 103,
      "chip": "ym2612"
    },
    {
      "channel": 1,
      "note": 35,
      "start": 141.5436,
      "duration": 0.0824,
      "velocity": 127,
      "chip": "ym2612"
    },
    {
      "channel": 2,
      "note": 66,
      "start": 141.5441,
      "duration": 0.2672,
      "velocity": 94,
      "chip": "ym2612"
    },
    {
      "channel": 0,
      "note": 83,
      "start": 141.9099,
      "duration": 0.0683,
      "velocity": 103,
      "chip": "ym2612"
    },
    {
      "channel": 0,
      "note": 81,
      "start": 142.0782,
      "duration": 0.3186,
      "velocity": 103,
      "chip": "ym2612"
    },
    {
      "channel": 1,
      "note": 35,
      "start": 142.0788,
      "duration": 0.0972,
      "velocity": 127,
      "chip": "ym2612"
    },
    {
      "channel": 2,
      "note": 63,
      "start": 142.0794,
      "duration": 0.2466,
      "velocity": 94,
      "chip": "ym2612"
    },
    {
      "channel": 0,
      "note": 87,
      "start": 142.6263,
      "duration": 0.3997,
      "velocity": 103,
      "chip": "ym2612"
    },
    {
      "channel": 1,
      "note": 35,
      "start": 142.6269,
      "duration": 0.1177,
      "velocity": 127,
      "chip": "ym2612"
    },
    {
      "channel": 2,
      "note": 83,
      "start": 142.6275,
      "duration": 0.4319,
      "velocity": 94,
      "chip": "ym2612"
    },
    {
      "channel": 0,
      "note": 83,
      "start": 143.1649,
      "duration": 0.7111,
      "velocity": 103,
      "chip": "ym2612"
    },
    {
      "channel": 1,
      "note": 40,
      "start": 143.1655,
      "duration": 0.0438,
      "velocity": 127,
      "chip": "ym2612"
    },
    {
      "channel": 2,
      "note": 80,
      "start": 143.1661,
      "duration": 0.46,
      "velocity": 94,
      "chip": "ym2612"
    },
    {
      "channel": 1,
      "note": 40,
      "start": 143.343,
      "duration": 0.0517,
      "velocity": 127,
      "chip": "ym2612"
    },
    {
      "channel": 1,
      "note": 40,
      "start": 143.5263,
      "duration": 0.083,
      "velocity": 127,
      "chip": "ym2612"
    },
    {
      "channel": 1,
      "note": 40,
      "start": 143.71,
      "duration": 0.1053,
      "velocity": 127,
      "chip": "ym2612"
    },
    {
      "channel": 2,
      "note": 79,
      "start": 143.7106,
      "duration": 0.4489,
      "velocity": 94,
      "chip": "ym2612"
    },
    {
      "channel": 0,
      "note": 83,
      "start": 144.0665,
      "duration": 0.0928,
      "velocity": 103,
      "chip": "ym2612"
    },
    {
      "channel": 0,
      "note": 87,
      "start": 144.2432,
      "duration": 0.1015,
      "velocity": 103,
      "chip": "ym2612"
    },
    {
      "channel": 1,
      "note": 40,
      "start": 144.2438,
      "duration": 0.0988,
      "velocity": 127,
      "chip": "ym2612"
    },
    {
      "channel": 2,
      "note": 75,
      "start": 144.2444,
      "duration": 0.3681,
      "velocity": 94,
      "chip": "ym2612"
    },
    {
      "channel": 0,
      "note": 83,
      "start": 144.4263,
      "duration": 0.083,
      "velocity": 103,
      "chip": "ym2612"
    },
    {
      "channel": 0,
      "note": 87,
      "start": 144.6096,
      "duration": 0.0996,
      "velocity": 103,
      "chip": "ym2612"
    },
    {
      "channel": 0,
      "note": 83,
      "start": 144.793,
      "duration": 1.1722,
      "velocity": 103,
      "chip": "ym2612"
    },
    {
      "channel": 1,
      "note": 33,
      "start": 144.7936,
      "duration": 0.0677,
      "velocity": 127,
      "chip": "ym2612"
    },
    {
      "channel": 2,
      "note": 71,
      "start": 144.7942,
      "duration": 0.1819,
      "velocity": 94,
      "chip": "ym2612"
    },
    {
      "channel": 2,
      "note": 68,
      "start": 145.143,
      "duration": 0.1043,
      "velocity": 94,
      "chip": "ym2612"
    },
    {
      "channel": 1,
      "note": 40,
      "start": 145.3263,
      "duration": 0.083,
      "velocity": 127,
      "chip": "ym2612"
    },
    {
      "channel": 2,
      "note": 67,
      "start": 145.3269,
      "duration": 0.4158,
      "velocity": 94,
      "chip": "ym2612"
    },
    {
      "channel": 1,
      "note": 40,
      "start": 145.51,
      "duration": 0.066,
      "velocity": 127,
      "chip": "ym2612"
    },
    {
      "channel": 1,
      "note": 40,
      "start": 145.693,
      "duration": 0.0733,
      "velocity": 127,
      "chip": "ym2612"
    },
    {
      "channel": 1,
      "note": 40,
      "start": 145.8666,
      "duration": 0.0761,
      "velocity": 127,
      "chip": "ym2612"
    },
    {
      "channel": 2,
      "note": 63,
      "start": 145.8671,
      "duration": 0.1256,
      "velocity": 94,
      "chip": "ym2612"
    },
    {
      "channel": 1,
      "note": 57,
      "start": 146.4124,
      "duration": 0.5303,
      "velocity": 122,
      "chip": "ym2612"
    },
    {
      "channel": 0,
      "note": 88,
      "start": 146.9463,
      "duration": 0.3297,
      "velocity": 103,
      "chip": "ym2612"
    },
    {
      "channel": 1,
      "note": 33,
      "start": 146.9496,
      "duration": 0.0954,
      "velocity": 127,
      "chip": "ym2612"
    },
    {
      "channel": 2,
      "note": 85,
      "start": 146.9502,
      "duration": 0.4144,
      "velocity": 94,
      "chip": "ym2612"
    },
    {
      "channel": 0,
      "note": 85,
      "start": 147.493,
      "duration": 0.6996,
      "velocity": 103,
      "chip": "ym2612"
    },
    {
      "channel": 1,
      "note": 40,
      "start": 147.4936,
      "duration": 0.0491,
      "velocity": 127,
      "chip": "ym2612"
    },
    {
      "channel": 2,
      "note": 82,
      "start": 147.4942,
      "duration": 0.4529,
      "velocity": 94,
      "chip": "ym2612"
    },
    {
      "channel": 1,
      "note": 40,
      "start": 147.6616,
      "duration": 0.0663,
      "velocity": 127,
      "chip": "ym2612"
    },
    {
      "channel": 1,
      "note": 40,
      "start": 147.8476,
      "duration": 0.0784,
      "velocity": 127,
      "chip": "ym2612"
    },
    {
      "channel": 1,
      "note": 40,
      "start": 148.0263,
      "duration": 0.0997,
      "velocity": 127,
      "chip": "ym2612"
    },
    {
      "channel": 2,
      "note": 81,
      "start": 148.0269,
      "duration": 0.3991,
      "velocity": 94,
      "chip": "ym2612"
    },
    {
      "channel": 0,
      "note": 85,
      "start": 148.393,
      "duration": 0.1015,
      "velocity": 103,
      "chip": "ym2612"
    },
    {
      "channel": 0,
      "note": 88,
      "start": 148.5616,
      "duration": 0.1144,
      "velocity": 103,
      "chip": "ym2612"
    },
    {
      "channel": 1,
      "note": 33,
      "start": 148.5621,
      "duration": 0.0972,
      "velocity": 127,
      "chip": "ym2612"
    },
    {
      "channel": 2,
      "note": 77,
      "start": 148.5628,
      "duration": 0.3488,
      "velocity": 94,
      "chip": "ym2612"
    },
    {
      "channel": 0,
      "note": 85,
      "start": 148.7449,
      "duration": 0.0999,
      "velocity": 103,
      "chip": "ym2612"
    },
    {
      "channel": 0,
      "note": 88,
      "start": 148.9263,
      "duration": 0.085,
      "velocity": 103,
      "chip": "ym2612"
    },
    {
      "channel": 0,
      "note": 85,
      "start": 149.1099,
      "duration": 1.0827,
      "velocity": 103,
      "chip": "ym2612"
    },
    {
      "channel": 1,
      "note": 33,
      "start": 149.1105,
      "duration": 0.1175,
      "velocity": 127,
      "chip": "ym2612"
    },
    {
      "channel": 2,
      "note": 73,
      "start": 149.1111,
      "duration": 0.2483,
      "velocity": 94,
      "chip": "ym2612"
    },
    {
      "channel": 2,
      "note": 70,
      "start": 149.464,
      "duration": 0.0954,
      "velocity": 94,
      "chip": "ym2612"
    },
    {
      "channel": 1,
      "note": 40,
      "start": 149.6486,
      "duration": 0.0607,
      "velocity": 127,
      "chip": "ym2612"
    },
    {
      "channel": 2,
      "note": 69,
      "start": 149.6492,
      "duration": 0.4172,
      "velocity": 94,
      "chip": "ym2612"
    },
    {
      "channel": 1,
      "note": 40,
      "start": 149.8263,
      "duration": 0.0663,
      "velocity": 127,
      "chip": "ym2612"
    },
    {
      "channel": 1,
      "note": 40,
      "start": 150.0096,
      "duration": 0.083,
      "velocity": 127,
      "chip": "ym2612"
    },
    {
      "channel": 1,
      "note": 40,
      "start": 150.1931,
      "duration": 0.0829,
      "velocity": 127,
      "chip": "ym2612"
    },
    {
      "channel": 2,
      "note": 65,
      "start": 150.1937,
      "duration": 0.2553,
      "velocity": 94,
      "chip": "ym2612"
    },
    {
      "channel": 1,
      "note": 57,
      "start": 150.729,
      "duration": 0.5303,
      "velocity": 122,
      "chip": "ym2612"
    },
    {
      "channel": 0,
      "note": 78,
      "start": 151.2769,
      "duration": 0.1657,
      "velocity": 103,
      "chip": "ym2612"
    },
    {
      "channel": 1,
      "note": 33,
      "start": 151.2802,
      "duration": 0.0981,
      "velocity": 127,
      "chip": "ym2612"
    },
    {
      "channel": 2,
      "note": 58,
      "start": 151.2834,
      "duration": 1.0093,
      "velocity": 96,
      "chip": "ym2612"
    },
    {
      "channel": 0,
      "note": 74,
      "start": 151.4459,
      "duration": 0.1653,
      "velocity": 103,
      "chip": "ym2612"
    },
    {
      "channel": 0,
      "note": 78,
      "start": 151.6268,
      "duration": 0.1677,
      "velocity": 103,
      "chip": "ym2612"
    },
    {
      "channel": 0,
      "note": 74,
      "start": 151.8102,
      "duration": 0.1658,
      "velocity": 103,
      "chip": "ym2612"
    },
    {
      "channel": 1,
      "note": 33,
      "start": 151.8108,
      "duration": 0.0985,
      "velocity": 127,
      "chip": "ym2612"
    },
    {
      "channel": 0,
      "note": 78,
      "start": 151.9936,
      "duration": 0.1657,
      "velocity": 103,
      "chip": "ym2612"
    },
    {
      "channel": 0,
      "note": 74,
      "start": 152.1771,
      "duration": 0.1655,
      "velocity": 103,
      "chip": "ym2612"
    },
    {
      "channel": 0,
      "note": 78,
      "start": 152.3456,
      "duration": 0.1659,
      "velocity": 103,
      "chip": "ym2612"
    },
    {
      "channel": 1,
      "note": 33,
      "start": 152.3462,
      "duration": 0.0987,
      "velocity": 127,
      "chip": "ym2612"
    },
    {
      "channel": 2,
      "note": 46,
      "start": 152.3468,
      "duration": 0.8459,
      "velocity": 96,
      "chip": "ym2612"
    },
    {
      "channel": 0,
      "note": 74,
      "start": 152.5268,
      "duration": 0.1677,
      "velocity": 103,
      "chip": "ym2612"
    },
    {
      "channel": 0,
      "note": 78,
      "start": 152.7105,
      "duration": 0.1655,
      "velocity": 103,
      "chip": "ym2612"
    },
    {
      "channel": 0,
      "note": 74,
      "start": 152.8936,
      "duration": 0.1657,
      "velocity": 103,
      "chip": "ym2612"
    },
    {
      "channel": 1,
      "note": 40,
      "start": 152.8941,
      "duration": 0.0672,
      "velocity": 127,
      "chip": "ym2612"
    },
    {
      "channel": 0,
      "note": 78,
      "start": 153.0769,
      "duration": 0.1657,
      "velocity": 103,
      "chip": "ym2612"
    },
    {
      "channel": 1,
      "note": 40,
      "start": 153.0775,
      "duration": 0.0485,
      "velocity": 127,
      "chip": "ym2612"
    },
    {
      "channel": 0,
      "note": 74,
      "start": 153.2459,
      "duration": 0.1653,
      "velocity": 103,
      "chip": "ym2612"
    },
    {
      "channel": 1,
      "note": 40,
      "start": 153.2465,
      "duration": 0.0961,
      "velocity": 127,
      "chip": "ym2612"
    },
    {
      "channel": 2,
      "note": 53,
      "start": 153.2471,
      "duration": 0.1289,
      "velocity": 96,
      "chip": "ym2612"
    },
    {
      "channel": 0,
      "note": 76,
      "start": 153.4268,
      "duration": 0.1677,
      "velocity": 103,
      "chip": "ym2612"
    },
    {
      "channel": 1,
      "note": 33,
      "start": 153.4275,
      "duration": 0.1005,
      "velocity": 127,
      "chip": "ym2612"
    },
    {
      "channel": 2,
      "note": 58,
      "start": 153.428,
      "duration": 0.9814,
      "velocity": 96,
      "chip": "ym2612"
    },
    {
      "channel": 0,
      "note": 72,
      "start": 153.6102,
      "duration": 0.1658,
      "velocity": 103,
      "chip": "ym2612"
    },
    {
      "channel": 0,
      "note": 76,
      "start": 153.7936,
      "duration": 0.1657,
      "velocity": 103,
      "chip": "ym2612"
    },
    {
      "channel": 0,
      "note": 72,
      "start": 153.9772,
      "duration": 0.1654,
      "velocity": 103,
      "chip": "ym2612"
    },
    {
      "channel": 1,
      "note": 33,
      "start": 153.9778,
      "duration": 0.0982,
      "velocity": 127,
      "chip": "ym2612"
    },
    {
      "channel": 0,
      "note": 76,
      "start": 154.1456,
      "duration": 0.1803,
      "velocity": 103,
      "chip": "ym2612"
    },
    {
      "channel": 0,
      "note": 72,
      "start": 154.329,
      "duration": 0.1655,
      "velocity": 103,
      "chip": "ym2612"
    },
    {
      "channel": 0,
      "note": 76,
      "start": 154.5105,
      "duration": 0.1655,
      "velocity": 103,
      "chip": "ym2612"
    },
    {
      "channel": 1,
      "note": 33,
      "start": 154.5111,
      "duration": 0.0982,
      "velocity": 127,
      "chip": "ym2612"
    },
    {
      "channel": 2,
      "note": 46,
      "start": 154.5117,
      "duration": 0.931,
      "velocity": 96,
      "chip": "ym2612"
    },
    {
      "channel": 0,
      "note": 72,
      "start": 154.6936,
      "duration": 0.1657,
      "velocity": 103,
      "chip": "ym2612"
    },
    {
      "channel": 1,
      "note": 40,
      "start": 154.6941,
      "duration": 0.0652,
      "velocity": 127,
      "chip": "ym2612"
    },
    {
      "channel": 0,
      "note": 76,
      "start": 154.8769,
      "duration": 0.1657,
      "velocity": 103,
      "chip": "ym2612"
    },
    {
      "channel": 1,
      "note": 40,
      "start": 154.8775,
      "duration": 0.0672,
      "velocity": 127,
      "chip": "ym2612"
    },
    {
      "channel": 0,
      "note": 72,
      "start": 155.0459,
      "duration": 0.18,
      "velocity": 103,
      "chip": "ym2612"
    },
    {
      "channel": 1,
      "note": 40,
      "start": 155.0465,
      "duration": 0.0961,
      "velocity": 127,
      "chip": "ym2612"
    },
    {
      "channel": 0,
      "note": 76,
      "start": 155.229,
      "duration": 0.1656,
      "velocity": 103,
      "chip": "ym2612"
    },
    {
      "channel": 1,
      "note": 40,
      "start": 155.2295,
      "duration": 0.0651,
      "velocity": 127,
      "chip": "ym2612"
    },
    {
      "channel": 0,
      "note": 72,
      "start": 155.4102,
      "duration": 0.1658,
      "velocity": 103,
      "chip": "ym2612"
    },
    {
      "channel": 1,
      "note": 40,
      "start": 155.4108,
      "duration": 0.0838,
      "velocity": 127,
      "chip": "ym2612"
    },
    {
      "channel": 0,
      "note": 78,
      "start": 155.5936,
      "duration": 0.1657,
      "velocity": 103,
      "chip": "ym2612"
    },
    {
      "channel": 1,
      "note": 33,
      "start": 155.5941,
      "duration": 0.0985,
      "velocity": 127,
      "chip": "ym2612"
    },
    {
      "channel": 2,
      "note": 58,
      "start": 155.5948,
      "duration": 1.0166,
      "velocity": 96,
      "chip": "ym2612"
    },
    {
      "channel": 0,
      "note": 74,
      "start": 155.7771,
      "duration": 0.1655,
      "velocity": 103,
      "chip": "ym2612"
    },
    {
      "channel": 0,
      "note": 78,
      "start": 155.9456,
      "duration": 0.1803,
      "velocity": 103,
      "chip": "ym2612"
    },
    {
      "channel": 0,
      "note": 74,
      "start": 156.129,
      "duration": 0.1655,
      "velocity": 103,
      "chip": "ym2612"
    },
    {
      "channel": 1,
      "note": 33,
      "start": 156.1295,
      "duration": 0.1298,
      "velocity": 127,
      "chip": "ym2612"
    },
    {
      "channel": 0,
      "note": 78,
      "start": 156.3105,
      "duration": 0.1655,
      "velocity": 103,
      "chip": "ym2612"
    },
    {
      "channel": 0,
      "note": 74,
      "start": 156.4935,
      "duration": 0.1658,
      "velocity": 103,
      "chip": "ym2612"
    },
    {
      "channel": 0,
      "note": 78,
      "start": 156.6769,
      "duration": 0.1657,
      "velocity": 103,
      "chip": "ym2612"
    },
    {
      "channel": 1,
      "note": 33,
      "start": 156.6775,
      "duration": 0.1152,
      "velocity": 127,
      "chip": "ym2612"
    },
    {
      "channel": 2,
      "note": 46,
      "start": 156.678,
      "duration": 1.0337,
      "velocity": 96,
      "chip": "ym2612"
    },
    {
      "channel": 0,
      "note": 74,
      "start": 156.8459,
      "duration": 0.18,
      "velocity": 103,
      "chip": "ym2612"
    },
    {
      "channel": 0,
      "note": 78,
      "start": 157.0289,
      "duration": 0.1657,
      "velocity": 103,
      "chip": "ym2612"
    },
    {
      "channel": 0,
      "note": 74,
      "start": 157.2102,
      "duration": 0.168,
      "velocity": 103,
      "chip": "ym2612"
    },
    {
      "channel": 1,
      "note": 40,
      "start": 157.2108,
      "duration": 0.0819,
      "velocity": 127,
      "chip": "ym2612"
    },
    {
      "channel": 0,
      "note": 78,
      "start": 157.3935,
      "duration": 0.1658,
      "velocity": 103,
      "chip": "ym2612"
    },
    {
      "channel": 1,
      "note": 40,
      "start": 157.3941,
      "duration": 0.0508,
      "velocity": 127,
      "chip": "ym2612"
    },
    {
      "channel": 0,
      "note": 74,
      "start": 157.5771,
      "duration": 0.1655,
      "velocity": 103,
      "chip": "ym2612"
    },
    {
      "channel": 1,
      "note": 40,
      "start": 157.5778,
      "duration": 0.0982,
      "velocity": 127,
      "chip": "ym2612"
    },
    {
      "channel": 0,
      "note": 80,
      "start": 157.7456,
      "duration": 0.1803,
      "velocity": 103,
      "chip": "ym2612"
    },
    {
      "channel": 1,
      "note": 33,
      "start": 157.7462,
      "duration": 0.1298,
      "velocity": 127,
      "chip": "ym2612"
    },
    {
      "channel": 2,
      "note": 58,
      "start": 157.7468,
      "duration": 0.9625,
      "velocity": 96,
      "chip": "ym2612"
    },
    {
      "channel": 0,
      "note": 76,
      "start": 157.9284,
      "duration": 0.1475,
      "velocity": 103,
      "chip": "ym2612"
    },
    {
      "channel": 0,
      "note": 80,
      "start": 158.1099,
      "duration": 0.168,
      "velocity": 103,
      "chip": "ym2612"
    },
    {
      "channel": 0,
      "note": 76,
      "start": 158.2935,
      "duration": 0.1658,
      "velocity": 103,
      "chip": "ym2612"
    },
    {
      "channel": 1,
      "note": 33,
      "start": 158.2941,
      "duration": 0.1172,
      "velocity": 127,
      "chip": "ym2612"
    },
    {
      "channel": 0,
      "note": 80,
      "start": 158.4763,
      "duration": 0.1663,
      "velocity": 103,
      "chip": "ym2612"
    },
    {
      "channel": 0,
      "note": 76,
      "start": 158.6453,
      "duration": 0.1806,
      "velocity": 103,
      "chip": "ym2612"
    },
    {
      "channel": 0,
      "note": 81,
      "start": 158.829,
      "duration": 0.1655,
      "velocity": 103,
      "chip": "ym2612"
    },
    {
      "channel": 1,
      "note": 33,
      "start": 158.8295,
      "duration": 0.1298,
      "velocity": 127,
      "chip": "ym2612"
    },
    {
      "channel": 2,
      "note": 58,
      "start": 158.8302,
      "duration": 0.899,
      "velocity": 96,
      "chip": "ym2612"
    },
    {
      "channel": 0,
      "note": 78,
      "start": 159.0096,
      "duration": 0.1686,
      "velocity": 103,
      "chip": "ym2612"
    },
    {
      "channel": 0,
      "note": 81,
      "start": 159.1936,
      "duration": 0.1657,
      "velocity": 103,
      "chip": "ym2612"
    },
    {
      "channel": 0,
      "note": 78,
      "start": 159.3771,
      "duration": 0.1655,
      "velocity": 103,
      "chip": "ym2612"
    },
    {
      "channel": 1,
      "note": 40,
      "start": 159.3778,
      "duration": 0.0672,
      "velocity": 127,
      "chip": "ym2612"
    },
    {
      "channel": 0,
      "note": 81,
      "start": 159.5596,
      "duration": 0.1663,
      "velocity": 103,
      "chip": "ym2612"
    },
    {
      "channel": 1,
      "note": 40,
      "start": 159.5602,
      "duration": 0.0491,
      "velocity": 127,
      "chip": "ym2612"
    },
    {
      "channel": 0,
      "note": 78,
      "start": 159.7283,
      "duration": 0.1662,
      "velocity": 103,
      "chip": "ym2612"
    },
    {
      "channel": 1,
      "note": 40,
      "start": 159.729,
      "duration": 0.099,
      "velocity": 127,
      "chip": "ym2612"
    },
    {
      "channel": 0,
      "note": 82,
      "start": 159.9105,
      "duration": 0.4654,
      "velocity": 103,
      "chip": "ym2612"
    },
    {
      "channel": 1,
      "note": 33,
      "start": 159.9111,
      "duration": 0.1315,
      "velocity": 127,
      "chip": "ym2612"
    },
    {
      "channel": 2,
      "note": 56,
      "start": 159.9117,
      "duration": 1.7644,
      "velocity": 96,
      "chip": "ym2612"
    },
    {
      "channel": 0,
      "note": 80,
      "start": 160.4596,
      "duration": 0.4216,
      "velocity": 103,
      "chip": "ym2612"
    },
    {
      "channel": 1,
      "note": 33,
      "start": 160.4602,
      "duration": 0.1158,
      "velocity": 127,
      "chip": "ym2612"
    },
    {
      "channel": 0,
      "note": 74,
      "start": 160.9929,
      "duration": 0.405,
      "velocity": 103,
      "chip": "ym2612"
    },
    {
      "channel": 1,
      "note": 33,
      "start": 160.9935,
      "duration": 0.1181,
      "velocity": 127,
      "chip": "ym2612"
    },
    {
      "channel": 0,
      "note": 70,
      "start": 161.5315,
      "duration": 0.4278,
      "velocity": 103,
      "chip": "ym2612"
    },
    {
      "channel": 1,
      "note": 33,
      "start": 161.5321,
      "duration": 0.1272,
      "velocity": 127,
      "chip": "ym2612"
    },
    {
      "channel": 0,
      "note": 62,
      "start": 162.0763,
      "duration": 0.1183,
      "velocity": 103,
      "chip": "ym2612"
    },
    {
      "channel": 1,
      "note": 33,
      "start": 162.0768,
      "duration": 0.1179,
      "velocity": 127,
      "chip": "ym2612"
    },
    {
      "channel": 2,
      "note": 50,
      "start": 162.0775,
      "duration": 0.1986,
      "velocity": 96,
      "chip": "ym2612"
    },
    {
      "channel": 0,
      "note": 62,
      "start": 162.4306,
      "duration": 0.0974,
      "velocity": 103,
      "chip": "ym2612"
    },
    {
      "channel": 2,
      "note": 50,
      "start": 162.4312,
      "duration": 0.0949,
      "velocity": 96,
      "chip": "ym2612"
    },
    {
      "channel": 0,
      "note": 64,
      "start": 162.6116,
      "duration": 1.1644,
      "velocity": 103,
      "chip": "ym2612"
    },
    {
      "channel": 1,
      "note": 64,
      "start": 162.6149,
      "duration": 0.0778,
      "velocity": 113,
      "chip": "ym2612"
    },
    {
      "channel": 2,
      "note": 52,
      "start": 162.6154,
      "duration": 1.0665,
      "velocity": 96,
      "chip": "ym2612"
    },
    {
      "channel": 1,
      "note": 64,
      "start": 162.793,
      "duration": 0.083,
      "velocity": 113,
      "chip": "ym2612"
    },
    {
      "channel": 1,
      "note": 64,
      "start": 162.9766,
      "duration": 0.087,
      "velocity": 113,
      "chip": "ym2612"
    },
    {
      "channel": 1,
      "note": 64,
      "start": 163.1596,
      "duration": 0.0706,
      "velocity": 113,
      "chip": "ym2612"
    },
    {
      "channel": 1,
      "note": 64,
      "start": 163.3332,
      "duration": 0.0654,
      "velocity": 113,
      "chip": "ym2612"
    },
    {
      "channel": 1,
      "note": 64,
      "start": 163.5159,
      "duration": 0.0768,
      "velocity": 113,
      "chip": "ym2612"
    },
    {
      "channel": 1,
      "note": 64,
      "start": 163.693,
      "duration": 0.0663,
      "velocity": 113,
      "chip": "ym2612"
    },
    {
      "channel": 1,
      "note": 64,
      "start": 163.8763,
      "duration": 0.0546,
      "velocity": 113,
      "chip": "ym2612"
    },
    {
      "channel": 1,
      "note": 64,
      "start": 164.0596,
      "duration": 0.083,
      "velocity": 113,
      "chip": "ym2612"
    },
    {
      "channel": 1,
      "note": 33,
      "start": 164.2393,
      "duration": 0.0002,
      "velocity": 127,
      "chip": "ym2612"
    }
  ]
}