{
  "track_name": "12 - Boss Theme",
  "duration_sec": 27.355,
  "sample_rate": 44100,
  "note_count": 788,
  "unique_pitches": 35,
  "pitch_range": 53,
  "avg_note_duration": 0.1658,
  "reconstruction_stats": {
    "notes_reconstructed": 788,
    "keyon_events": 788,
    "keyoff_events": 222,
    "orphan_keyons": 5,
    "unique_pitches": 35,
    "pitch_range": 53,
    "avg_duration_sec": 0.1658
  },
  "metadata": {
    "source": "M\\Mr. Nutz\\12 - Boss Theme.vgz"
  },
  "notes": [
    {
      "channel": 0,
      "note": 33,
      "start": 0.0022,
      "duration": 0.0051,
      "velocity": 102,
      "chip": "ym2612"
    },
    {
      "channel": 1,
      "note": 34,
      "start": 0.0044,
      "duration": 0.0033,
      "velocity": 102,
      "chip": "ym2612"
    },
    {
      "channel": 2,
      "note": 35,
      "start": 0.0066,
      "duration": 0.0013,
      "velocity": 102,
      "chip": "ym2612"
    },
    {
      "channel": 0,
      "note": 33,
      "start": 0.0073,
      "duration": 0.0104,
      "velocity": 102,
      "chip": "ym2612"
    },
    {
      "channel": 1,
      "note": 34,
      "start": 0.0077,
      "duration": 0.0103,
      "velocity": 102,
      "chip": "ym2612"
    },
    {
      "channel": 2,
      "note": 35,
      "start": 0.0079,
      "duration": 0.0104,
      "velocity": 102,
      "chip": "ym2612"
    },
    {
      "channel": 0,
      "note": 33,
      "start": 0.0178,
      "duration": 0.0161,
      "velocity": 102,
      "chip": "ym2612"
    },
    {
      "channel": 1,
      "note": 34,
      "start": 0.018,
      "duration": 0.0161,
      "velocity": 102,
      "chip": "ym2612"
    },
    {
      "channel": 2,
      "note": 35,
      "start": 0.0183,
      "duration": 0.0161,
      "velocity": 102,
      "chip": "ym2612"
    },
    {
      "channel": 0,
      "note": 34,
      "start": 0.0338,
      "duration": 0.0161,
      "velocity": 102,
      "chip": "ym2612"
    },
    {
      "channel": 1,
      "note": 35,
      "start": 0.0341,
      "duration": 0.0161,
      "velocity": 102,
      "chip": "ym2612"
    },
    {
      "channel": 2,
      "note": 36,
      "start": 0.0344,
      "duration": 0.0161,
      "velocity": 102,
      "chip": "ym2612"
    },
    {
      "channel": 0,
      "note": 34,
      "start": 0.05,
      "duration": 0.0161,
      "velocity": 102,
      "chip": "ym2612"
    },
    {
      "channel": 1,
      "note": 35,
      "start": 0.0502,
      "duration": 0.0162,
      "velocity": 102,
      "chip": "ym2612"
    },
    {
      "channel": 2,
      "note": 36,
      "start": 0.0505,
      "duration": 0.0162,
      "velocity": 102,
      "chip": "ym2612"
    },
    {
      "channel": 0,
      "note": 34,
      "start": 0.0661,
      "duration": 0.0161,
      "velocity": 102,
      "chip": "ym2612"
    },
    {
      "channel": 1,
      "note": 35,
      "start": 0.0664,
      "duration": 0.0161,
      "velocity": 102,
      "chip": "ym2612"
    },
    {
      "channel": 2,
      "note": 36,
      "start": 0.0667,
      "duration": 0.0161,
      "velocity": 102,
      "chip": "ym2612"
    },
    {
      "channel": 0,
      "note": 34,
      "start": 0.0822,
      "duration": 0.0172,
      "velocity": 102,
      "chip": "ym2612"
    },
    {
      "channel": 1,
      "note": 35,
      "start": 0.0825,
      "duration": 0.0172,
      "velocity": 102,
      "chip": "ym2612"
    },
    {
      "channel": 2,
      "note": 36,
      "start": 0.0827,
      "duration": 0.0172,
      "velocity": 102,
      "chip": "ym2612"
    },
    {
      "channel": 0,
      "note": 34,
      "start": 0.0994,
      "duration": 0.0153,
      "velocity": 102,
      "chip": "ym2612"
    },
    {
      "channel": 1,
      "note": 35,
      "start": 0.0996,
      "duration": 0.0153,
      "velocity": 102,
      "chip": "ym2612"
    },
    {
      "channel": 2,
      "note": 36,
      "start": 0.1,
      "duration": 0.0153,
      "velocity": 102,
      "chip": "ym2612"
    },
    {
      "channel": 0,
      "note": 35,
      "start": 0.1146,
      "duration": 0.016,
      "velocity": 102,
      "chip": "ym2612"
    },
    {
      "channel": 1,
      "note": 36,
      "start": 0.115,
      "duration": 0.016,
      "velocity": 102,
      "chip": "ym2612"
    },
    {
      "channel": 2,
      "note": 36,
      "start": 0.1152,
      "duration": 0.016,
      "velocity": 102,
      "chip": "ym2612"
    },
    {
      "channel": 0,
      "note": 35,
      "start": 0.1307,
      "duration": 0.0161,
      "velocity": 102,
      "chip": "ym2612"
    },
    {
      "channel": 1,
      "note": 36,
      "start": 0.131,
      "duration": 0.0161,
      "velocity": 102,
      "chip": "ym2612"
    },
    {
      "channel": 2,
      "note": 37,
      "start": 0.1313,
      "duration": 0.0161,
      "velocity": 102,
      "chip": "ym2612"
    },
    {
      "channel": 0,
      "note": 35,
      "start": 0.1468,
      "duration": 0.0161,
      "velocity": 102,
      "chip": "ym2612"
    },
    {
      "channel": 1,
      "note": 36,
      "start": 0.1471,
      "duration": 0.016,
      "velocity": 102,
      "chip": "ym2612"
    },
    {
      "channel": 2,
      "note": 37,
      "start": 0.1474,
      "duration": 0.0161,
      "velocity": 102,
      "chip": "ym2612"
    },
    {
      "channel": 0,
      "note": 35,
      "start": 0.1629,
      "duration": 0.0161,
      "velocity": 102,
      "chip": "ym2612"
    },
    {
      "channel": 1,
      "note": 36,
      "start": 0.1631,
      "duration": 0.0161,
      "velocity": 102,
      "chip": "ym2612"
    },
    {
      "channel": 2,
      "note": 37,
      "start": 0.1634,
      "duration": 0.016,
      "velocity": 102,
      "chip": "ym2612"
    },
    {
      "channel": 0,
      "note": 35,
      "start": 0.179,
      "duration": 0.0374,
      "velocity": 102,
      "chip": "ym2612"
    },
    {
      "channel": 1,
      "note": 36,
      "start": 0.1792,
      "duration": 0.0374,
      "velocity": 102,
      "chip": "ym2612"
    },
    {
      "channel": 2,
      "note": 37,
      "start": 0.1795,
      "duration": 0.0375,
      "velocity": 102,
      "chip": "ym2612"
    },
    {
      "channel": 0,
      "note": 36,
      "start": 0.2164,
      "duration": 0.02,
      "velocity": 102,
      "chip": "ym2612"
    },
    {
      "channel": 1,
      "note": 36,
      "start": 0.2166,
      "duration": 0.0201,
      "velocity": 102,
      "chip": "ym2612"
    },
    {
      "channel": 2,
      "note": 37,
      "start": 0.217,
      "duration": 0.02,
      "velocity": 102,
      "chip": "ym2612"
    },
    {
      "channel": 0,
      "note": 36,
      "start": 0.2364,
      "duration": 0.02,
      "velocity": 102,
      "chip": "ym2612"
    },
    {
      "channel": 1,
      "note": 37,
      "start": 0.2367,
      "duration": 0.0199,
      "velocity": 102,
      "chip": "ym2612"
    },
    {
      "channel": 2,
      "note": 37,
      "start": 0.237,
      "duration": 0.02,
      "velocity": 102,
      "chip": "ym2612"
    },
    {
      "channel": 0,
      "note": 36,
      "start": 0.2564,
      "duration": 0.02,
      "velocity": 102,
      "chip": "ym2612"
    },
    {
      "channel": 1,
      "note": 37,
      "start": 0.2566,
      "duration": 0.0201,
      "velocity": 102,
      "chip": "ym2612"
    },
    {
      "channel": 2,
      "note": 38,
      "start": 0.257,
      "duration": 0.02,
      "velocity": 102,
      "chip": "ym2612"
    },
    {
      "channel": 0,
      "note": 36,
      "start": 0.2764,
      "duration": 0.02,
      "velocity": 102,
      "chip": "ym2612"
    },
    {
      "channel": 1,
      "note": 37,
      "start": 0.2767,
      "duration": 0.0199,
      "velocity": 102,
      "chip": "ym2612"
    },
    {
      "channel": 2,
      "note": 38,
      "start": 0.277,
      "duration": 0.02,
      "velocity": 102,
      "chip": "ym2612"
    },
    {
      "channel": 0,
      "note": 36,
      "start": 0.2964,
      "duration": 0.021,
      "velocity": 102,
      "chip": "ym2612"
    },
    {
      "channel": 1,
      "note": 37,
      "start": 0.2966,
      "duration": 0.021,
      "velocity": 102,
      "chip": "ym2612"
    },
    {
      "channel": 2,
      "note": 38,
      "start": 0.297,
      "duration": 0.0209,
      "velocity": 102,
      "chip": "ym2612"
    },
    {
      "channel": 0,
      "note": 36,
      "start": 0.3173,
      "duration": 0.0154,
      "velocity": 102,
      "chip": "ym2612"
    },
    {
      "channel": 1,
      "note": 37,
      "start": 0.3176,
      "duration": 0.0154,
      "velocity": 102,
      "chip": "ym2612"
    },
    {
      "channel": 2,
      "note": 38,
      "start": 0.3178,
      "duration": 0.0154,
      "velocity": 102,
      "chip": "ym2612"
    },
    {
      "channel": 0,
      "note": 37,
      "start": 0.3327,
      "duration": 0.016,
      "velocity": 102,
      "chip": "ym2612"
    },
    {
      "channel": 1,
      "note": 37,
      "start": 0.3329,
      "duration": 0.016,
      "velocity": 102,
      "chip": "ym2612"
    },
    {
      "channel": 2,
      "note": 38,
      "start": 0.3332,
      "duration": 0.016,
      "velocity": 102,
      "chip": "ym2612"
    },
    {
      "channel": 0,
      "note": 37,
      "start": 0.3487,
      "duration": 0.0161,
      "velocity": 102,
      "chip": "ym2612"
    },
    {
      "channel": 1,
      "note": 38,
      "start": 0.349,
      "duration": 0.0161,
      "velocity": 102,
      "chip": "ym2612"
    },
    {
      "channel": 2,
      "note": 38,
      "start": 0.3493,
      "duration": 0.0161,
      "velocity": 102,
      "chip": "ym2612"
    },
    {
      "channel": 0,
      "note": 37,
      "start": 0.3647,
      "duration": 0.0161,
      "velocity": 102,
      "chip": "ym2612"
    },
    {
      "channel": 1,
      "note": 38,
      "start": 0.365,
      "duration": 0.0161,
      "velocity": 102,
      "chip": "ym2612"
    },
    {
      "channel": 2,
      "note": 39,
      "start": 0.3653,
      "duration": 0.0161,
      "velocity": 102,
      "chip": "ym2612"
    },
    {
      "channel": 0,
      "note": 37,
      "start": 0.3808,
      "duration": 0.0162,
      "velocity": 102,
      "chip": "ym2612"
    },
    {
      "channel": 1,
      "note": 38,
      "start": 0.3811,
      "duration": 0.0162,
      "velocity": 102,
      "chip": "ym2612"
    },
    {
      "channel": 2,
      "note": 39,
      "start": 0.3814,
      "duration": 0.0162,
      "velocity": 102,
      "chip": "ym2612"
    },
    {
      "channel": 0,
      "note": 37,
      "start": 0.397,
      "duration": 0.0183,
      "velocity": 102,
      "chip": "ym2612"
    },
    {
      "channel": 1,
      "note": 38,
      "start": 0.3973,
      "duration": 0.0184,
      "velocity": 102,
      "chip": "ym2612"
    },
    {
      "channel": 2,
      "note": 39,
      "start": 0.3976,
      "duration": 0.0183,
      "velocity": 102,
      "chip": "ym2612"
    },
    {
      "channel": 0,
      "note": 37,
      "start": 0.4154,
      "duration": 0.0154,
      "velocity": 102,
      "chip": "ym2612"
    },
    {
      "channel": 1,
      "note": 38,
      "start": 0.4157,
      "duration": 0.0154,
      "velocity": 102,
      "chip": "ym2612"
    },
    {
      "channel": 2,
      "note": 39,
      "start": 0.4159,
      "duration": 0.0154,
      "velocity": 102,
      "chip": "ym2612"
    },
    {
      "channel": 0,
      "note": 38,
      "start": 0.4308,
      "duration": 0.016,
      "velocity": 102,
      "chip": "ym2612"
    },
    {
      "channel": 1,
      "note": 38,
      "start": 0.4311,
      "duration": 0.016,
      "velocity": 102,
      "chip": "ym2612"
    },
    {
      "channel": 2,
      "note": 39,
      "start": 0.4314,
      "duration": 0.016,
      "velocity": 102,
      "chip": "ym2612"
    },
    {
      "channel": 0,
      "note": 38,
      "start": 0.4468,
      "duration": 0.016,
      "velocity": 102,
      "chip": "ym2612"
    },
    {
      "channel": 1,
      "note": 39,
      "start": 0.4471,
      "duration": 0.016,
      "velocity": 102,
      "chip": "ym2612"
    },
    {
      "channel": 2,
      "note": 39,
      "start": 0.4474,
      "duration": 0.016,
      "velocity": 102,
      "chip": "ym2612"
    },
    {
      "channel": 0,
      "note": 38,
      "start": 0.4629,
      "duration": 0.0161,
      "velocity": 102,
      "chip": "ym2612"
    },
    {
      "channel": 1,
      "note": 39,
      "start": 0.4632,
      "duration": 0.0161,
      "velocity": 102,
      "chip": "ym2612"
    },
    {
      "channel": 2,
      "note": 39,
      "start": 0.4634,
      "duration": 0.0161,
      "velocity": 102,
      "chip": "ym2612"
    },
    {
      "channel": 0,
      "note": 38,
      "start": 0.479,
      "duration": 0.0162,
      "velocity": 102,
      "chip": "ym2612"
    },
    {
      "channel": 1,
      "note": 39,
      "start": 0.4792,
      "duration": 0.0162,
      "velocity": 102,
      "chip": "ym2612"
    },
    {
      "channel": 2,
      "note": 40,
      "start": 0.4796,
      "duration": 0.0162,
      "velocity": 102,
      "chip": "ym2612"
    },
    {
      "channel": 0,
      "note": 38,
      "start": 0.4952,
      "duration": 0.0374,
      "velocity": 102,
      "chip": "ym2612"
    },
    {
      "channel": 1,
      "note": 39,
      "start": 0.4954,
      "duration": 0.0374,
      "velocity": 102,
      "chip": "ym2612"
    },
    {
      "channel": 2,
      "note": 40,
      "start": 0.4958,
      "duration": 0.0374,
      "velocity": 102,
      "chip": "ym2612"
    },
    {
      "channel": 0,
      "note": 38,
      "start": 0.5326,
      "duration": 0.02,
      "velocity": 102,
      "chip": "ym2612"
    },
    {
      "channel": 1,
      "note": 39,
      "start": 0.5329,
      "duration": 0.02,
      "velocity": 102,
      "chip": "ym2612"
    },
    {
      "channel": 2,
      "note": 40,
      "start": 0.5332,
      "duration": 0.02,
      "velocity": 102,
      "chip": "ym2612"
    },
    {
      "channel": 0,
      "note": 39,
      "start": 0.5526,
      "duration": 0.02,
      "velocity": 102,
      "chip": "ym2612"
    },
    {
      "channel": 1,
      "note": 39,
      "start": 0.5529,
      "duration": 0.0201,
      "velocity": 102,
      "chip": "ym2612"
    },
    {
      "channel": 2,
      "note": 40,
      "start": 0.5532,
      "duration": 0.02,
      "velocity": 102,
      "chip": "ym2612"
    },
    {
      "channel": 0,
      "note": 39,
      "start": 0.5726,
      "duration": 0.02,
      "velocity": 102,
      "chip": "ym2612"
    },
    {
      "channel": 1,
      "note": 39,
      "start": 0.5729,
      "duration": 0.0199,
      "velocity": 102,
      "chip": "ym2612"
    },
    {
      "channel": 2,
      "note": 40,
      "start": 0.5732,
      "duration": 0.02,
      "velocity": 102,
      "chip": "ym2612"
    },
    {
      "channel": 0,
      "note": 39,
      "start": 0.5926,
      "duration": 0.02,
      "velocity": 102,
      "chip": "ym2612"
    },
    {
      "channel": 1,
      "note": 40,
      "start": 0.5929,
      "duration": 0.0201,
      "velocity": 102,
      "chip": "ym2612"
    },
    {
      "channel": 2,
      "note": 40,
      "start": 0.5932,
      "duration": 0.02,
      "velocity": 102,
      "chip": "ym2612"
    },
    {
      "channel": 0,
      "note": 39,
      "start": 0.6126,
      "duration": 0.021,
      "velocity": 102,
      "chip": "ym2612"
    },
    {
      "channel": 1,
      "note": 40,
      "start": 0.6129,
      "duration": 0.0209,
      "velocity": 102,
      "chip": "ym2612"
    },
    {
      "channel": 2,
      "note": 40,
      "start": 0.6132,
      "duration": 0.021,
      "velocity": 102,
      "chip": "ym2612"
    },
    {
      "channel": 0,
      "note": 39,
      "start": 0.6336,
      "duration": 0.0152,
      "velocity": 102,
      "chip": "ym2612"
    },
    {
      "channel": 1,
      "note": 40,
      "start": 0.6338,
      "duration": 0.0152,
      "velocity": 102,
      "chip": "ym2612"
    },
    {
      "channel": 2,
      "note": 41,
      "start": 0.6341,
      "duration": 0.0151,
      "velocity": 102,
      "chip": "ym2612"
    },
    {
      "channel": 0,
      "note": 39,
      "start": 0.6488,
      "duration": 0.016,
      "velocity": 102,
      "chip": "ym2612"
    },
    {
      "channel": 1,
      "note": 40,
      "start": 0.649,
      "duration": 0.016,
      "velocity": 102,
      "chip": "ym2612"
    },
    {
      "channel": 2,
      "note": 41,
      "start": 0.6493,
      "duration": 0.016,
      "velocity": 102,
      "chip": "ym2612"
    },
    {
      "channel": 0,
      "note": 39,
      "start": 0.6647,
      "duration": 0.0161,
      "velocity": 102,
      "chip": "ym2612"
    },
    {
      "channel": 1,
      "note": 40,
      "start": 0.6651,
      "duration": 0.0161,
      "velocity": 102,
      "chip": "ym2612"
    },
    {
      "channel": 2,
      "note": 41,
      "start": 0.6653,
      "duration": 0.0161,
      "velocity": 102,
      "chip": "ym2612"
    },
    {
      "channel": 0,
      "note": 40,
      "start": 0.6808,
      "duration": 0.0161,
      "velocity": 102,
      "chip": "ym2612"
    },
    {
      "channel": 1,
      "note": 40,
      "start": 0.6811,
      "duration": 0.0161,
      "velocity": 102,
      "chip": "ym2612"
    },
    {
      "channel": 2,
      "note": 41,
      "start": 0.6814,
      "duration": 0.0161,
      "velocity": 102,
      "chip": "ym2612"
    },
    {
      "channel": 0,
      "note": 40,
      "start": 0.6969,
      "duration": 0.0162,
      "velocity": 102,
      "chip": "ym2612"
    },
    {
      "channel": 1,
      "note": 40,
      "start": 0.6972,
      "duration": 0.0162,
      "velocity": 102,
      "chip": "ym2612"
    },
    {
      "channel": 2,
      "note": 41,
      "start": 0.6975,
      "duration": 0.0162,
      "velocity": 102,
      "chip": "ym2612"
    },
    {
      "channel": 0,
      "note": 40,
      "start": 0.7131,
      "duration": 0.0184,
      "velocity": 102,
      "chip": "ym2612"
    },
    {
      "channel": 1,
      "note": 41,
      "start": 0.7134,
      "duration": 0.0184,
      "velocity": 102,
      "chip": "ym2612"
    },
    {
      "channel": 2,
      "note": 41,
      "start": 0.7137,
      "duration": 0.0183,
      "velocity": 102,
      "chip": "ym2612"
    },
    {
      "channel": 0,
      "note": 40,
      "start": 0.7315,
      "duration": 0.0154,
      "velocity": 102,
      "chip": "ym2612"
    },
    {
      "channel": 1,
      "note": 41,
      "start": 0.7318,
      "duration": 0.0154,
      "velocity": 102,
      "chip": "ym2612"
    },
    {
      "channel": 2,
      "note": 41,
      "start": 0.732,
      "duration": 0.0154,
      "velocity": 102,
      "chip": "ym2612"
    },
    {
      "channel": 0,
      "note": 40,
      "start": 0.7469,
      "duration": 0.016,
      "velocity": 102,
      "chip": "ym2612"
    },
    {
      "channel": 1,
      "note": 41,
      "start": 0.7472,
      "duration": 0.016,
      "velocity": 102,
      "chip": "ym2612"
    },
    {
      "channel": 2,
      "note": 42,
      "start": 0.7475,
      "duration": 0.016,
      "velocity": 102,
      "chip": "ym2612"
    },
    {
      "channel": 0,
      "note": 40,
      "start": 0.7629,
      "duration": 0.016,
      "velocity": 102,
      "chip": "ym2612"
    },
    {
      "channel": 1,
      "note": 41,
      "start": 0.7632,
      "duration": 0.016,
      "velocity": 102,
      "chip": "ym2612"
    },
    {
      "channel": 2,
      "note": 42,
      "start": 0.7635,
      "duration": 0.016,
      "velocity": 102,
      "chip": "ym2612"
    },
    {
      "channel": 0,
      "note": 40,
      "start": 0.779,
      "duration": 0.0161,
      "velocity": 102,
      "chip": "ym2612"
    },
    {
      "channel": 1,
      "note": 41,
      "start": 0.7793,
      "duration": 0.0161,
      "velocity": 102,
      "chip": "ym2612"
    },
    {
      "channel": 2,
      "note": 42,
      "start": 0.7795,
      "duration": 0.0161,
      "velocity": 102,
      "chip": "ym2612"
    },
    {
      "channel": 0,
      "note": 41,
      "start": 0.7951,
      "duration": 0.0162,
      "velocity": 102,
      "chip": "ym2612"
    },
    {
      "channel": 1,
      "note": 41,
      "start": 0.7953,
      "duration": 0.0162,
      "velocity": 102,
      "chip": "ym2612"
    },
    {
      "channel": 2,
      "note": 42,
      "start": 0.7957,
      "duration": 0.0162,
      "velocity": 102,
      "chip": "ym2612"
    },
    {
      "channel": 0,
      "note": 41,
      "start": 0.8113,
      "duration": 0.0375,
      "velocity": 102,
      "chip": "ym2612"
    },
    {
      "channel": 1,
      "note": 41,
      "start": 0.8115,
      "duration": 0.0375,
      "velocity": 102,
      "chip": "ym2612"
    },
    {
      "channel": 2,
      "note": 42,
      "start": 0.8119,
      "duration": 0.0375,
      "velocity": 102,
      "chip": "ym2612"
    },
    {
      "channel": 0,
      "note": 41,
      "start": 0.8487,
      "duration": 0.02,
      "velocity": 102,
      "chip": "ym2612"
    },
    {
      "channel": 1,
      "note": 42,
      "start": 0.849,
      "duration": 0.02,
      "velocity": 102,
      "chip": "ym2612"
    },
    {
      "channel": 2,
      "note": 42,
      "start": 0.8493,
      "duration": 0.02,
      "velocity": 102,
      "chip": "ym2612"
    },
    {
      "channel": 0,
      "note": 41,
      "start": 0.8687,
      "duration": 0.02,
      "velocity": 102,
      "chip": "ym2612"
    },
    {
      "channel": 1,
      "note": 42,
      "start": 0.869,
      "duration": 0.0201,
      "velocity": 102,
      "chip": "ym2612"
    },
    {
      "channel": 2,
      "note": 42,
      "start": 0.8693,
      "duration": 0.02,
      "velocity": 102,
      "chip": "ym2612"
    },
    {
      "channel": 0,
      "note": 41,
      "start": 0.8887,
      "duration": 0.02,
      "velocity": 102,
      "chip": "ym2612"
    },
    {
      "channel": 1,
      "note": 42,
      "start": 0.889,
      "duration": 0.0199,
      "velocity": 102,
      "chip": "ym2612"
    },
    {
      "channel": 2,
      "note": 42,
      "start": 0.8893,
      "duration": 0.02,
      "velocity": 102,
      "chip": "ym2612"
    },
    {
      "channel": 0,
      "note": 41,
      "start": 0.9087,
      "duration": 0.02,
      "velocity": 102,
      "chip": "ym2612"
    },
    {
      "channel": 1,
      "note": 42,
      "start": 0.909,
      "duration": 0.0201,
      "velocity": 102,
      "chip": "ym2612"
    },
    {
      "channel": 2,
      "note": 43,
      "start": 0.9093,
      "duration": 0.02,
      "velocity": 102,
      "chip": "ym2612"
    },
    {
      "channel": 0,
      "note": 41,
      "start": 0.9287,
      "duration": 0.021,
      "velocity": 102,
      "chip": "ym2612"
    },
    {
      "channel": 1,
      "note": 42,
      "start": 0.929,
      "duration": 0.0209,
      "velocity": 102,
      "chip": "ym2612"
    },
    {
      "channel": 2,
      "note": 43,
      "start": 0.9293,
      "duration": 0.021,
      "velocity": 102,
      "chip": "ym2612"
    },
    {
      "channel": 0,
      "note": 42,
      "start": 0.9497,
      "duration": 0.0152,
      "velocity": 102,
      "chip": "ym2612"
    },
    {
      "channel": 1,
      "note": 42,
      "start": 0.95,
      "duration": 0.0152,
      "velocity": 102,
      "chip": "ym2612"
    },
    {
      "channel": 2,
      "note": 43,
      "start": 0.9503,
      "duration": 0.0151,
      "velocity": 102,
      "chip": "ym2612"
    },
    {
      "channel": 0,
      "note": 42,
      "start": 0.9649,
      "duration": 0.0161,
      "velocity": 102,
      "chip": "ym2612"
    },
    {
      "channel": 1,
      "note": 42,
      "start": 0.9651,
      "duration": 0.0161,
      "velocity": 102,
      "chip": "ym2612"
    },
    {
      "channel": 2,
      "note": 43,
      "start": 0.9654,
      "duration": 0.0161,
      "velocity": 102,
      "chip": "ym2612"
    },
    {
      "channel": 0,
      "note": 42,
      "start": 0.981,
      "duration": 0.016,
      "velocity": 102,
      "chip": "ym2612"
    },
    {
      "channel": 1,
      "note": 42,
      "start": 0.9812,
      "duration": 0.016,
      "velocity": 102,
      "chip": "ym2612"
    },
    {
      "channel": 2,
      "note": 43,
      "start": 0.9815,
      "duration": 0.016,
      "velocity": 102,
      "chip": "ym2612"
    },
    {
      "channel": 0,
      "note": 42,
      "start": 0.997,
      "duration": 0.0162,
      "velocity": 102,
      "chip": "ym2612"
    },
    {
      "channel": 1,
      "note": 43,
      "start": 0.9972,
      "duration": 0.0162,
      "velocity": 102,
      "chip": "ym2612"
    },
    {
      "channel": 2,
      "note": 43,
      "start": 0.9975,
      "duration": 0.0162,
      "velocity": 102,
      "chip": "ym2612"
    },
    {
      "channel": 0,
      "note": 42,
      "start": 1.0132,
      "duration": 0.0162,
      "velocity": 102,
      "chip": "ym2612"
    },
    {
      "channel": 1,
      "note": 43,
      "start": 1.0135,
      "duration": 0.0161,
      "velocity": 102,
      "chip": "ym2612"
    },
    {
      "channel": 2,
      "note": 43,
      "start": 1.0137,
      "duration": 0.0162,
      "velocity": 102,
      "chip": "ym2612"
    },
    {
      "channel": 0,
      "note": 42,
      "start": 1.0294,
      "duration": 0.0185,
      "velocity": 102,
      "chip": "ym2612"
    },
    {
      "channel": 1,
      "note": 43,
      "start": 1.0296,
      "duration": 0.0185,
      "velocity": 102,
      "chip": "ym2612"
    },
    {
      "channel": 2,
      "note": 43,
      "start": 1.03,
      "duration": 0.0184,
      "velocity": 102,
      "chip": "ym2612"
    },
    {
      "channel": 0,
      "note": 42,
      "start": 1.0478,
      "duration": 0.0154,
      "velocity": 102,
      "chip": "ym2612"
    },
    {
      "channel": 1,
      "note": 43,
      "start": 1.0481,
      "duration": 0.0154,
      "velocity": 102,
      "chip": "ym2612"
    },
    {
      "channel": 2,
      "note": 43,
      "start": 1.0483,
      "duration": 0.0154,
      "velocity": 102,
      "chip": "ym2612"
    },
    {
      "channel": 0,
      "note": 42,
      "start": 1.0632,
      "duration": 0.0161,
      "velocity": 102,
      "chip": "ym2612"
    },
    {
      "channel": 1,
      "note": 43,
      "start": 1.0634,
      "duration": 0.0161,
      "velocity": 102,
      "chip": "ym2612"
    },
    {
      "channel": 2,
      "note": 44,
      "start": 1.0637,
      "duration": 0.0161,
      "velocity": 102,
      "chip": "ym2612"
    },
    {
      "channel": 0,
      "note": 43,
      "start": 1.0793,
      "duration": 0.016,
      "velocity": 102,
      "chip": "ym2612"
    },
    {
      "channel": 1,
      "note": 43,
      "start": 1.0795,
      "duration": 0.016,
      "velocity": 102,
      "chip": "ym2612"
    },
    {
      "channel": 2,
      "note": 44,
      "start": 1.0798,
      "duration": 0.016,
      "velocity": 102,
      "chip": "ym2612"
    },
    {
      "channel": 0,
      "note": 43,
      "start": 1.0953,
      "duration": 0.0162,
      "velocity": 102,
      "chip": "ym2612"
    },
    {
      "channel": 1,
      "note": 43,
      "start": 1.0955,
      "duration": 0.0162,
      "velocity": 102,
      "chip": "ym2612"
    },
    {
      "channel": 2,
      "note": 44,
      "start": 1.0958,
      "duration": 0.0162,
      "velocity": 102,
      "chip": "ym2612"
    },
    {
      "channel": 0,
      "note": 43,
      "start": 1.1115,
      "duration": 0.0161,
      "velocity": 102,
      "chip": "ym2612"
    },
    {
      "channel": 1,
      "note": 43,
      "start": 1.1118,
      "duration": 0.0161,
      "velocity": 102,
      "chip": "ym2612"
    },
    {
      "channel": 2,
      "note": 44,
      "start": 1.112,
      "duration": 0.0161,
      "velocity": 102,
      "chip": "ym2612"
    },
    {
      "channel": 0,
      "note": 43,
      "start": 1.1276,
      "duration": 0.0376,
      "velocity": 102,
      "chip": "ym2612"
    },
    {
      "channel": 1,
      "note": 43,
      "start": 1.1278,
      "duration": 0.0377,
      "velocity": 102,
      "chip": "ym2612"
    },
    {
      "channel": 2,
      "note": 44,
      "start": 1.1282,
      "duration": 0.0376,
      "velocity": 102,
      "chip": "ym2612"
    },
    {
      "channel": 0,
      "note": 43,
      "start": 1.1652,
      "duration": 0.02,
      "velocity": 102,
      "chip": "ym2612"
    },
    {
      "channel": 1,
      "note": 44,
      "start": 1.1656,
      "duration": 0.0199,
      "velocity": 102,
      "chip": "ym2612"
    },
    {
      "channel": 2,
      "note": 44,
      "start": 1.1658,
      "duration": 0.02,
      "velocity": 102,
      "chip": "ym2612"
    },
    {
      "channel": 0,
      "note": 43,
      "start": 1.1852,
      "duration": 0.02,
      "velocity": 102,
      "chip": "ym2612"
    },
    {
      "channel": 1,
      "note": 44,
      "start": 1.1855,
      "duration": 0.0201,
      "velocity": 102,
      "chip": "ym2612"
    },
    {
      "channel": 2,
      "note": 45,
      "start": 1.1858,
      "duration": 0.02,
      "velocity": 102,
      "chip": "ym2612"
    },
    {
      "channel": 0,
      "note": 43,
      "start": 1.2052,
      "duration": 0.02,
      "velocity": 102,
      "chip": "ym2612"
    },
    {
      "channel": 1,
      "note": 44,
      "start": 1.2056,
      "duration": 0.0199,
      "velocity": 102,
      "chip": "ym2612"
    },
    {
      "channel": 2,
      "note": 45,
      "start": 1.2058,
      "duration": 0.02,
      "velocity": 102,
      "chip": "ym2612"
    },
    {
      "channel": 0,
      "note": 43,
      "start": 1.2252,
      "duration": 0.02,
      "velocity": 102,
      "chip": "ym2612"
    },
    {
      "channel": 1,
      "note": 44,
      "start": 1.2255,
      "duration": 0.0201,
      "velocity": 102,
      "chip": "ym2612"
    },
    {
      "channel": 2,
      "note": 45,
      "start": 1.2258,
      "duration": 0.02,
      "velocity": 102,
      "chip": "ym2612"
    },
    {
      "channel": 0,
      "note": 43,
      "start": 1.2452,
      "duration": 0.021,
      "velocity": 102,
      "chip": "ym2612"
    },
    {
      "channel": 1,
      "note": 44,
      "start": 1.2456,
      "duration": 0.0209,
      "velocity": 102,
      "chip": "ym2612"
    },
    {
      "channel": 2,
      "note": 45,
      "start": 1.2458,
      "duration": 0.0209,
      "velocity": 102,
      "chip": "ym2612"
    },
    {
      "channel": 0,
      "note": 44,
      "start": 1.2662,
      "duration": 0.0154,
      "velocity": 102,
      "chip": "ym2612"
    },
    {
      "channel": 1,
      "note": 44,
      "start": 1.2665,
      "duration": 0.0154,
      "velocity": 102,
      "chip": "ym2612"
    },
    {
      "channel": 2,
      "note": 45,
      "start": 1.2667,
      "duration": 0.0154,
      "velocity": 102,
      "chip": "ym2612"
    },
    {
      "channel": 0,
      "note": 44,
      "start": 1.2816,
      "duration": 0.0161,
      "velocity": 102,
      "chip": "ym2612"
    },
    {
      "channel": 1,
      "note": 45,
      "start": 1.2818,
      "duration": 0.0161,
      "velocity": 102,
      "chip": "ym2612"
    },
    {
      "channel": 2,
      "note": 46,
      "start": 1.2821,
      "duration": 0.0161,
      "velocity": 102,
      "chip": "ym2612"
    },
    {
      "channel": 0,
      "note": 44,
      "start": 1.2976,
      "duration": 0.016,
      "velocity": 102,
      "chip": "ym2612"
    },
    {
      "channel": 1,
      "note": 45,
      "start": 1.2979,
      "duration": 0.016,
      "velocity": 102,
      "chip": "ym2612"
    },
    {
      "channel": 2,
      "note": 46,
      "start": 1.2982,
      "duration": 0.016,
      "velocity": 102,
      "chip": "ym2612"
    },
    {
      "channel": 0,
      "note": 44,
      "start": 1.3137,
      "duration": 0.0162,
      "velocity": 102,
      "chip": "ym2612"
    },
    {
      "channel": 1,
      "note": 45,
      "start": 1.3139,
      "duration": 0.0162,
      "velocity": 102,
      "chip": "ym2612"
    },
    {
      "channel": 2,
      "note": 46,
      "start": 1.3142,
      "duration": 0.0162,
      "velocity": 102,
      "chip": "ym2612"
    },
    {
      "channel": 0,
      "note": 44,
      "start": 1.3298,
      "duration": 0.0162,
      "velocity": 102,
      "chip": "ym2612"
    },
    {
      "channel": 1,
      "note": 45,
      "start": 1.3302,
      "duration": 0.0162,
      "velocity": 102,
      "chip": "ym2612"
    },
    {
      "channel": 2,
      "note": 46,
      "start": 1.3304,
      "duration": 0.0162,
      "velocity": 102,
      "chip": "ym2612"
    },
    {
      "channel": 0,
      "note": 44,
      "start": 1.346,
      "duration": 0.0186,
      "velocity": 102,
      "chip": "ym2612"
    },
    {
      "channel": 1,
      "note": 45,
      "start": 1.3463,
      "duration": 0.0185,
      "velocity": 102,
      "chip": "ym2612"
    },
    {
      "channel": 2,
      "note": 46,
      "start": 1.3466,
      "duration": 0.0186,
      "velocity": 102,
      "chip": "ym2612"
    },
    {
      "channel": 0,
      "note": 45,
      "start": 1.3646,
      "duration": 0.0152,
      "velocity": 102,
      "chip": "ym2612"
    },
    {
      "channel": 1,
      "note": 46,
      "start": 1.3649,
      "duration": 0.0152,
      "velocity": 102,
      "chip": "ym2612"
    },
    {
      "channel": 2,
      "note": 47,
      "start": 1.3652,
      "duration": 0.0151,
      "velocity": 102,
      "chip": "ym2612"
    },
    {
      "channel": 0,
      "note": 45,
      "start": 1.3798,
      "duration": 0.0161,
      "velocity": 102,
      "chip": "ym2612"
    },
    {
      "channel": 1,
      "note": 46,
      "start": 1.3801,
      "duration": 0.0161,
      "velocity": 102,
      "chip": "ym2612"
    },
    {
      "channel": 2,
      "note": 47,
      "start": 1.3803,
      "duration": 0.0161,
      "velocity": 102,
      "chip": "ym2612"
    },
    {
      "channel": 0,
      "note": 45,
      "start": 1.3959,
      "duration": 0.016,
      "velocity": 102,
      "chip": "ym2612"
    },
    {
      "channel": 1,
      "note": 46,
      "start": 1.3961,
      "duration": 0.016,
      "velocity": 102,
      "chip": "ym2612"
    },
    {
      "channel": 2,
      "note": 47,
      "start": 1.3964,
      "duration": 0.016,
      "velocity": 102,
      "chip": "ym2612"
    },
    {
      "channel": 0,
      "note": 45,
      "start": 1.4119,
      "duration": 0.0162,
      "velocity": 102,
      "chip": "ym2612"
    },
    {
      "channel": 1,
      "note": 46,
      "start": 1.4122,
      "duration": 0.0162,
      "velocity": 102,
      "chip": "ym2612"
    },
    {
      "channel": 2,
      "note": 47,
      "start": 1.4124,
      "duration": 0.0162,
      "velocity": 102,
      "chip": "ym2612"
    },
    {
      "channel": 0,
      "note": 45,
      "start": 1.4281,
      "duration": 0.0161,
      "velocity": 102,
      "chip": "ym2612"
    },
    {
      "channel": 1,
      "note": 46,
      "start": 1.4284,
      "duration": 0.0161,
      "velocity": 102,
      "chip": "ym2612"
    },
    {
      "channel": 2,
      "note": 47,
      "start": 1.4287,
      "duration": 0.0161,
      "velocity": 102,
      "chip": "ym2612"
    },
    {
      "channel": 0,
      "note": 46,
      "start": 1.4442,
      "duration": 0.0185,
      "velocity": 102,
      "chip": "ym2612"
    },
    {
      "channel": 1,
      "note": 47,
      "start": 1.4445,
      "duration": 0.0185,
      "velocity": 102,
      "chip": "ym2612"
    },
    {
      "channel": 2,
      "note": 48,
      "start": 1.4448,
      "duration": 0.0184,
      "velocity": 102,
      "chip": "ym2612"
    },
    {
      "channel": 0,
      "note": 46,
      "start": 1.4627,
      "duration": 0.0154,
      "velocity": 102,
      "chip": "ym2612"
    },
    {
      "channel": 1,
      "note": 47,
      "start": 1.4629,
      "duration": 0.0154,
      "velocity": 102,
      "chip": "ym2612"
    },
    {
      "channel": 2,
      "note": 48,
      "start": 1.4632,
      "duration": 0.0154,
      "velocity": 102,
      "chip": "ym2612"
    },
    {
      "channel": 0,
      "note": 46,
      "start": 1.478,
      "duration": 0.016,
      "velocity": 102,
      "chip": "ym2612"
    },
    {
      "channel": 1,
      "note": 47,
      "start": 1.4783,
      "duration": 0.016,
      "velocity": 102,
      "chip": "ym2612"
    },
    {
      "channel": 2,
      "note": 48,
      "start": 1.4786,
      "duration": 0.016,
      "velocity": 102,
      "chip": "ym2612"
    },
    {
      "channel": 0,
      "note": 46,
      "start": 1.494,
      "duration": 0.0161,
      "velocity": 102,
      "chip": "ym2612"
    },
    {
      "channel": 1,
      "note": 47,
      "start": 1.4943,
      "duration": 0.0161,
      "velocity": 102,
      "chip": "ym2612"
    },
    {
      "channel": 2,
      "note": 48,
      "start": 1.4946,
      "duration": 0.0161,
      "velocity": 102,
      "chip": "ym2612"
    },
    {
      "channel": 0,
      "note": 46,
      "start": 1.5101,
      "duration": 0.0161,
      "velocity": 102,
      "chip": "ym2612"
    },
    {
      "channel": 1,
      "note": 47,
      "start": 1.5104,
      "duration": 0.0161,
      "velocity": 102,
      "chip": "ym2612"
    },
    {
      "channel": 2,
      "note": 48,
      "start": 1.5107,
      "duration": 0.0161,
      "velocity": 102,
      "chip": "ym2612"
    },
    {
      "channel": 0,
      "note": 47,
      "start": 1.5262,
      "duration": 0.0162,
      "velocity": 102,
      "chip": "ym2612"
    },
    {
      "channel": 1,
      "note": 48,
      "start": 1.5264,
      "duration": 0.0162,
      "velocity": 102,
      "chip": "ym2612"
    },
    {
      "channel": 2,
      "note": 48,
      "start": 1.5268,
      "duration": 0.0162,
      "velocity": 102,
      "chip": "ym2612"
    },
    {
      "channel": 0,
      "note": 47,
      "start": 1.5424,
      "duration": 0.0374,
      "velocity": 102,
      "chip": "ym2612"
    },
    {
      "channel": 1,
      "note": 48,
      "start": 1.5426,
      "duration": 0.0374,
      "velocity": 102,
      "chip": "ym2612"
    },
    {
      "channel": 2,
      "note": 49,
      "start": 1.543,
      "duration": 0.0374,
      "velocity": 102,
      "chip": "ym2612"
    },
    {
      "channel": 0,
      "note": 47,
      "start": 1.5798,
      "duration": 0.02,
      "velocity": 102,
      "chip": "ym2612"
    },
    {
      "channel": 1,
      "note": 48,
      "start": 1.5801,
      "duration": 0.02,
      "velocity": 102,
      "chip": "ym2612"
    },
    {
      "channel": 2,
      "note": 49,
      "start": 1.5804,
      "duration": 0.02,
      "velocity": 102,
      "chip": "ym2612"
    },
    {
      "channel": 0,
      "note": 47,
      "start": 1.5998,
      "duration": 0.02,
      "velocity": 102,
      "chip": "ym2612"
    },
    {
      "channel": 1,
      "note": 48,
      "start": 1.6001,
      "duration": 0.0201,
      "velocity": 102,
      "chip": "ym2612"
    },
    {
      "channel": 2,
      "note": 49,
      "start": 1.6004,
      "duration": 0.02,
      "velocity": 102,
      "chip": "ym2612"
    },
    {
      "channel": 0,
      "note": 47,
      "start": 1.6198,
      "duration": 0.02,
      "velocity": 102,
      "chip": "ym2612"
    },
    {
      "channel": 1,
      "note": 48,
      "start": 1.6201,
      "duration": 0.0199,
      "velocity": 102,
      "chip": "ym2612"
    },
    {
      "channel": 2,
      "note": 49,
      "start": 1.6204,
      "duration": 0.02,
      "velocity": 102,
      "chip": "ym2612"
    },
    {
      "channel": 0,
      "note": 48,
      "start": 1.6398,
      "duration": 0.02,
      "velocity": 102,
      "chip": "ym2612"
    },
    {
      "channel": 1,
      "note": 48,
      "start": 1.6401,
      "duration": 0.0201,
      "velocity": 102,
      "chip": "ym2612"
    },
    {
      "channel": 2,
      "note": 49,
      "start": 1.6404,
      "duration": 0.02,
      "velocity": 102,
      "chip": "ym2612"
    },
    {
      "channel": 0,
      "note": 48,
      "start": 1.6598,
      "duration": 0.021,
      "velocity": 102,
      "chip": "ym2612"
    },
    {
      "channel": 1,
      "note": 49,
      "start": 1.6601,
      "duration": 0.0209,
      "velocity": 102,
      "chip": "ym2612"
    },
    {
      "channel": 2,
      "note": 49,
      "start": 1.6604,
      "duration": 0.021,
      "velocity": 102,
      "chip": "ym2612"
    },
    {
      "channel": 0,
      "note": 48,
      "start": 1.6808,
      "duration": 0.0152,
      "velocity": 102,
      "chip": "ym2612"
    },
    {
      "channel": 1,
      "note": 49,
      "start": 1.681,
      "duration": 0.0152,
      "velocity": 102,
      "chip": "ym2612"
    },
    {
      "channel": 2,
      "note": 50,
      "start": 1.6814,
      "duration": 0.0151,
      "velocity": 102,
      "chip": "ym2612"
    },
    {
      "channel": 0,
      "note": 48,
      "start": 1.696,
      "duration": 0.0161,
      "velocity": 102,
      "chip": "ym2612"
    },
    {
      "channel": 1,
      "note": 49,
      "start": 1.6962,
      "duration": 0.0161,
      "velocity": 102,
      "chip": "ym2612"
    },
    {
      "channel": 2,
      "note": 50,
      "start": 1.6965,
      "duration": 0.0161,
      "velocity": 102,
      "chip": "ym2612"
    },
    {
      "channel": 0,
      "note": 48,
      "start": 1.712,
      "duration": 0.016,
      "velocity": 102,
      "chip": "ym2612"
    },
    {
      "channel": 1,
      "note": 49,
      "start": 1.7123,
      "duration": 0.016,
      "velocity": 102,
      "chip": "ym2612"
    },
    {
      "channel": 2,
      "note": 50,
      "start": 1.7126,
      "duration": 0.016,
      "velocity": 102,
      "chip": "ym2612"
    },
    {
      "channel": 0,
      "note": 48,
      "start": 1.7281,
      "duration": 0.0162,
      "velocity": 102,
      "chip": "ym2612"
    },
    {
      "channel": 1,
      "note": 49,
      "start": 1.7283,
      "duration": 0.0162,
      "velocity": 102,
      "chip": "ym2612"
    },
    {
      "channel": 2,
      "note": 50,
      "start": 1.7286,
      "duration": 0.0162,
      "velocity": 102,
      "chip": "ym2612"
    },
    {
      "channel": 0,
      "note": 49,
      "start": 1.7442,
      "duration": 0.0163,
      "velocity": 102,
      "chip": "ym2612"
    },
    {
      "channel": 1,
      "note": 49,
      "start": 1.7446,
      "duration": 0.0162,
      "velocity": 102,
      "chip": "ym2612"
    },
    {
      "channel": 2,
      "note": 50,
      "start": 1.7448,
      "duration": 0.0163,
      "velocity": 102,
      "chip": "ym2612"
    },
    {
      "channel": 0,
      "note": 49,
      "start": 1.7605,
      "duration": 0.0185,
      "velocity": 102,
      "chip": "ym2612"
    },
    {
      "channel": 1,
      "note": 50,
      "start": 1.7607,
      "duration": 0.0185,
      "velocity": 102,
      "chip": "ym2612"
    },
    {
      "channel": 2,
      "note": 50,
      "start": 1.7611,
      "duration": 0.0184,
      "velocity": 102,
      "chip": "ym2612"
    },
    {
      "channel": 0,
      "note": 49,
      "start": 1.779,
      "duration": 0.0154,
      "velocity": 102,
      "chip": "ym2612"
    },
    {
      "channel": 1,
      "note": 50,
      "start": 1.7792,
      "duration": 0.0154,
      "velocity": 102,
      "chip": "ym2612"
    },
    {
      "channel": 2,
      "note": 51,
      "start": 1.7795,
      "duration": 0.0154,
      "velocity": 102,
      "chip": "ym2612"
    },
    {
      "channel": 0,
      "note": 49,
      "start": 1.7943,
      "duration": 0.016,
      "velocity": 102,
      "chip": "ym2612"
    },
    {
      "channel": 1,
      "note": 50,
      "start": 1.7946,
      "duration": 0.016,
      "velocity": 102,
      "chip": "ym2612"
    },
    {
      "channel": 2,
      "note": 51,
      "start": 1.7949,
      "duration": 0.016,
      "velocity": 102,
      "chip": "ym2612"
    },
    {
      "channel": 0,
      "note": 49,
      "start": 1.8103,
      "duration": 0.0161,
      "velocity": 102,
      "chip": "ym2612"
    },
    {
      "channel": 1,
      "note": 50,
      "start": 1.8106,
      "duration": 0.0161,
      "velocity": 102,
      "chip": "ym2612"
    },
    {
      "channel": 2,
      "note": 51,
      "start": 1.8109,
      "duration": 0.0161,
      "velocity": 102,
      "chip": "ym2612"
    },
    {
      "channel": 0,
      "note": 49,
      "start": 1.8263,
      "duration": 0.0161,
      "velocity": 102,
      "chip": "ym2612"
    },
    {
      "channel": 1,
      "note": 50,
      "start": 1.8267,
      "duration": 0.0161,
      "velocity": 102,
      "chip": "ym2612"
    },
    {
      "channel": 2,
      "note": 51,
      "start": 1.8269,
      "duration": 0.0161,
      "velocity": 102,
      "chip": "ym2612"
    },
    {
      "channel": 0,
      "note": 50,
      "start": 1.8425,
      "duration": 0.0162,
      "velocity": 102,
      "chip": "ym2612"
    },
    {
      "channel": 1,
      "note": 50,
      "start": 1.8427,
      "duration": 0.0162,
      "velocity": 102,
      "chip": "ym2612"
    },
    {
      "channel": 2,
      "note": 51,
      "start": 1.8431,
      "duration": 0.0162,
      "velocity": 102,
      "chip": "ym2612"
    },
    {
      "channel": 0,
      "note": 50,
      "start": 1.8587,
      "duration": 0.0375,
      "velocity": 102,
      "chip": "ym2612"
    },
    {
      "channel": 1,
      "note": 51,
      "start": 1.8589,
      "duration": 0.0375,
      "velocity": 102,
      "chip": "ym2612"
    },
    {
      "channel": 2,
      "note": 51,
      "start": 1.8593,
      "duration": 0.0375,
      "velocity": 102,
      "chip": "ym2612"
    },
    {
      "channel": 0,
      "note": 50,
      "start": 1.8961,
      "duration": 0.02,
      "velocity": 102,
      "chip": "ym2612"
    },
    {
      "channel": 1,
      "note": 51,
      "start": 1.8964,
      "duration": 0.02,
      "velocity": 102,
      "chip": "ym2612"
    },
    {
      "channel": 2,
      "note": 51,
      "start": 1.8967,
      "duration": 0.02,
      "velocity": 102,
      "chip": "ym2612"
    },
    {
      "channel": 0,
      "note": 50,
      "start": 1.9161,
      "duration": 0.02,
      "velocity": 102,
      "chip": "ym2612"
    },
    {
      "channel": 1,
      "note": 51,
      "start": 1.9164,
      "duration": 0.0201,
      "velocity": 102,
      "chip": "ym2612"
    },
    {
      "channel": 2,
      "note": 52,
      "start": 1.9167,
      "duration": 0.02,
      "velocity": 102,
      "chip": "ym2612"
    },
    {
      "channel": 0,
      "note": 50,
      "start": 1.9361,
      "duration": 0.02,
      "velocity": 102,
      "chip": "ym2612"
    },
    {
      "channel": 1,
      "note": 51,
      "start": 1.9364,
      "duration": 0.0199,
      "velocity": 102,
      "chip": "ym2612"
    },
    {
      "channel": 2,
      "note": 52,
      "start": 1.9367,
      "duration": 0.02,
      "velocity": 102,
      "chip": "ym2612"
    },
    {
      "channel": 0,
      "note": 50,
      "start": 1.9561,
      "duration": 0.02,
      "velocity": 102,
      "chip": "ym2612"
    },
    {
      "channel": 1,
      "note": 51,
      "start": 1.9564,
      "duration": 0.0201,
      "velocity": 102,
      "chip": "ym2612"
    },
    {
      "channel": 2,
      "note": 52,
      "start": 1.9567,
      "duration": 0.02,
      "velocity": 102,
      "chip": "ym2612"
    },
    {
      "channel": 0,
      "note": 51,
      "start": 1.9761,
      "duration": 0.021,
      "velocity": 102,
      "chip": "ym2612"
    },
    {
      "channel": 1,
      "note": 51,
      "start": 1.9764,
      "duration": 0.0209,
      "velocity": 102,
      "chip": "ym2612"
    },
    {
      "channel": 2,
      "note": 52,
      "start": 1.9767,
      "duration": 0.021,
      "velocity": 102,
      "chip": "ym2612"
    },
    {
      "channel": 0,
      "note": 51,
      "start": 1.9971,
      "duration": 0.0152,
      "velocity": 102,
      "chip": "ym2612"
    },
    {
      "channel": 1,
      "note": 51,
      "start": 1.9973,
      "duration": 0.0152,
      "velocity": 102,
      "chip": "ym2612"
    },
    {
      "channel": 2,
      "note": 52,
      "start": 1.9977,
      "duration": 0.0152,
      "velocity": 102,
      "chip": "ym2612"
    },
    {
      "channel": 0,
      "note": 51,
      "start": 2.0123,
      "duration": 0.0161,
      "velocity": 102,
      "chip": "ym2612"
    },
    {
      "channel": 1,
      "note": 52,
      "start": 2.0126,
      "duration": 0.0161,
      "velocity": 102,
      "chip": "ym2612"
    },
    {
      "channel": 2,
      "note": 52,
      "start": 2.0128,
      "duration": 0.0161,
      "velocity": 102,
      "chip": "ym2612"
    },
    {
      "channel": 0,
      "note": 51,
      "start": 2.0284,
      "duration": 0.016,
      "velocity": 102,
      "chip": "ym2612"
    },
    {
      "channel": 1,
      "note": 52,
      "start": 2.0286,
      "duration": 0.016,
      "velocity": 102,
      "chip": "ym2612"
    },
    {
      "channel": 2,
      "note": 52,
      "start": 2.0289,
      "duration": 0.016,
      "velocity": 102,
      "chip": "ym2612"
    },
    {
      "channel": 0,
      "note": 51,
      "start": 2.0444,
      "duration": 0.0162,
      "velocity": 102,
      "chip": "ym2612"
    },
    {
      "channel": 1,
      "note": 52,
      "start": 2.0446,
      "duration": 0.0162,
      "velocity": 102,
      "chip": "ym2612"
    },
    {
      "channel": 2,
      "note": 53,
      "start": 2.0449,
      "duration": 0.0162,
      "velocity": 102,
      "chip": "ym2612"
    },
    {
      "channel": 0,
      "note": 51,
      "start": 2.0606,
      "duration": 0.0163,
      "velocity": 102,
      "chip": "ym2612"
    },
    {
      "channel": 1,
      "note": 52,
      "start": 2.0609,
      "duration": 0.0162,
      "velocity": 102,
      "chip": "ym2612"
    },
    {
      "channel": 2,
      "note": 53,
      "start": 2.0612,
      "duration": 0.0163,
      "velocity": 102,
      "chip": "ym2612"
    },
    {
      "channel": 0,
      "note": 51,
      "start": 2.0768,
      "duration": 0.0185,
      "velocity": 102,
      "chip": "ym2612"
    },
    {
      "channel": 1,
      "note": 52,
      "start": 2.0771,
      "duration": 0.0185,
      "velocity": 102,
      "chip": "ym2612"
    },
    {
      "channel": 2,
      "note": 53,
      "start": 2.0774,
      "duration": 0.0184,
      "velocity": 102,
      "chip": "ym2612"
    },
    {
      "channel": 0,
      "note": 52,
      "start": 2.0953,
      "duration": 0.0154,
      "velocity": 102,
      "chip": "ym2612"
    },
    {
      "channel": 1,
      "note": 52,
      "start": 2.0956,
      "duration": 0.0154,
      "velocity": 102,
      "chip": "ym2612"
    },
    {
      "channel": 2,
      "note": 53,
      "start": 2.0958,
      "duration": 0.0154,
      "velocity": 102,
      "chip": "ym2612"
    },
    {
      "channel": 0,
      "note": 52,
      "start": 2.1107,
      "duration": 0.016,
      "velocity": 102,
      "chip": "ym2612"
    },
    {
      "channel": 1,
      "note": 52,
      "start": 2.1109,
      "duration": 0.016,
      "velocity": 102,
      "chip": "ym2612"
    },
    {
      "channel": 2,
      "note": 53,
      "start": 2.1112,
      "duration": 0.016,
      "velocity": 102,
      "chip": "ym2612"
    },
    {
      "channel": 0,
      "note": 52,
      "start": 2.1266,
      "duration": 0.0161,
      "velocity": 102,
      "chip": "ym2612"
    },
    {
      "channel": 1,
      "note": 53,
      "start": 2.127,
      "duration": 0.0161,
      "velocity": 102,
      "chip": "ym2612"
    },
    {
      "channel": 2,
      "note": 53,
      "start": 2.1272,
      "duration": 0.0161,
      "velocity": 102,
      "chip": "ym2612"
    },
    {
      "channel": 0,
      "note": 52,
      "start": 2.1427,
      "duration": 0.0161,
      "velocity": 102,
      "chip": "ym2612"
    },
    {
      "channel": 1,
      "note": 53,
      "start": 2.143,
      "duration": 0.0161,
      "velocity": 102,
      "chip": "ym2612"
    },
    {
      "channel": 2,
      "note": 53,
      "start": 2.1433,
      "duration": 0.0161,
      "velocity": 102,
      "chip": "ym2612"
    },
    {
      "channel": 0,
      "note": 52,
      "start": 2.1588,
      "duration": 0.0162,
      "velocity": 102,
      "chip": "ym2612"
    },
    {
      "channel": 1,
      "note": 53,
      "start": 2.1591,
      "duration": 0.0162,
      "velocity": 102,
      "chip": "ym2612"
    },
    {
      "channel": 2,
      "note": 54,
      "start": 2.1594,
      "duration": 0.0162,
      "velocity": 102,
      "chip": "ym2612"
    },
    {
      "channel": 0,
      "note": 52,
      "start": 2.175,
      "duration": 0.0374,
      "velocity": 102,
      "chip": "ym2612"
    },
    {
      "channel": 1,
      "note": 53,
      "start": 2.1753,
      "duration": 0.0374,
      "velocity": 102,
      "chip": "ym2612"
    },
    {
      "channel": 2,
      "note": 54,
      "start": 2.1756,
      "duration": 0.0374,
      "velocity": 102,
      "chip": "ym2612"
    },
    {
      "channel": 0,
      "note": 52,
      "start": 2.2124,
      "duration": 0.02,
      "velocity": 102,
      "chip": "ym2612"
    },
    {
      "channel": 1,
      "note": 53,
      "start": 2.2127,
      "duration": 0.02,
      "velocity": 102,
      "chip": "ym2612"
    },
    {
      "channel": 2,
      "note": 54,
      "start": 2.213,
      "duration": 0.02,
      "velocity": 102,
      "chip": "ym2612"
    },
    {
      "channel": 0,
      "note": 53,
      "start": 2.2324,
      "duration": 0.02,
      "velocity": 102,
      "chip": "ym2612"
    },
    {
      "channel": 1,
      "note": 53,
      "start": 2.2327,
      "duration": 0.0201,
      "velocity": 102,
      "chip": "ym2612"
    },
    {
      "channel": 2,
      "note": 54,
      "start": 2.233,
      "duration": 0.02,
      "velocity": 102,
      "chip": "ym2612"
    },
    {
      "channel": 0,
      "note": 53,
      "start": 2.2524,
      "duration": 0.02,
      "velocity": 102,
      "chip": "ym2612"
    },
    {
      "channel": 1,
      "note": 53,
      "start": 2.2528,
      "duration": 0.0199,
      "velocity": 102,
      "chip": "ym2612"
    },
    {
      "channel": 2,
      "note": 54,
      "start": 2.253,
      "duration": 0.02,
      "velocity": 102,
      "chip": "ym2612"
    },
    {
      "channel": 0,
      "note": 53,
      "start": 2.2724,
      "duration": 0.02,
      "velocity": 102,
      "chip": "ym2612"
    },
    {
      "channel": 1,
      "note": 54,
      "start": 2.2727,
      "duration": 0.0201,
      "velocity": 102,
      "chip": "ym2612"
    },
    {
      "channel": 2,
      "note": 54,
      "start": 2.273,
      "duration": 0.02,
      "velocity": 102,
      "chip": "ym2612"
    },
    {
      "channel": 0,
      "note": 53,
      "start": 2.2924,
      "duration": 0.021,
      "velocity": 102,
      "chip": "ym2612"
    },
    {
      "channel": 1,
      "note": 54,
      "start": 2.2928,
      "duration": 0.0209,
      "velocity": 102,
      "chip": "ym2612"
    },
    {
      "channel": 2,
      "note": 54,
      "start": 2.293,
      "duration": 0.021,
      "velocity": 102,
      "chip": "ym2612"
    },
    {
      "channel": 0,
      "note": 53,
      "start": 2.3134,
      "duration": 0.0152,
      "velocity": 102,
      "chip": "ym2612"
    },
    {
      "channel": 1,
      "note": 54,
      "start": 2.3137,
      "duration": 0.0152,
      "velocity": 102,
      "chip": "ym2612"
    },
    {
      "channel": 2,
      "note": 54,
      "start": 2.314,
      "duration": 0.0152,
      "velocity": 102,
      "chip": "ym2612"
    },
    {
      "channel": 0,
      "note": 53,
      "start": 2.3286,
      "duration": 0.0161,
      "velocity": 102,
      "chip": "ym2612"
    },
    {
      "channel": 1,
      "note": 54,
      "start": 2.3289,
      "duration": 0.0161,
      "velocity": 102,
      "chip": "ym2612"
    },
    {
      "channel": 2,
      "note": 55,
      "start": 2.3292,
      "duration": 0.0161,
      "velocity": 102,
      "chip": "ym2612"
    },
    {
      "channel": 0,
      "note": 53,
      "start": 2.3447,
      "duration": 0.016,
      "velocity": 102,
      "chip": "ym2612"
    },
    {
      "channel": 1,
      "note": 54,
      "start": 2.3449,
      "duration": 0.016,
      "velocity": 102,
      "chip": "ym2612"
    },
    {
      "channel": 2,
      "note": 55,
      "start": 2.3452,
      "duration": 0.016,
      "velocity": 102,
      "chip": "ym2612"
    },
    {
      "channel": 0,
      "note": 54,
      "start": 2.3607,
      "duration": 0.0162,
      "velocity": 102,
      "chip": "ym2612"
    },
    {
      "channel": 1,
      "note": 54,
      "start": 2.361,
      "duration": 0.0162,
      "velocity": 102,
      "chip": "ym2612"
    },
    {
      "channel": 2,
      "note": 55,
      "start": 2.3612,
      "duration": 0.0162,
      "velocity": 102,
      "chip": "ym2612"
    },
    {
      "channel": 0,
      "note": 54,
      "start": 2.3769,
      "duration": 0.0163,
      "velocity": 102,
      "chip": "ym2612"
    },
    {
      "channel": 1,
      "note": 54,
      "start": 2.3772,
      "duration": 0.0162,
      "velocity": 102,
      "chip": "ym2612"
    },
    {
      "channel": 2,
      "note": 55,
      "start": 2.3775,
      "duration": 0.0163,
      "velocity": 102,
      "chip": "ym2612"
    },
    {
      "channel": 0,
      "note": 54,
      "start": 2.3932,
      "duration": 0.0185,
      "velocity": 102,
      "chip": "ym2612"
    },
    {
      "channel": 1,
      "note": 54,
      "start": 2.3934,
      "duration": 0.0185,
      "velocity": 102,
      "chip": "ym2612"
    },
    {
      "channel": 2,
      "note": 55,
      "start": 2.3937,
      "duration": 0.0184,
      "velocity": 102,
      "chip": "ym2612"
    },
    {
      "channel": 0,
      "note": 54,
      "start": 2.4116,
      "duration": 0.0154,
      "velocity": 102,
      "chip": "ym2612"
    },
    {
      "channel": 1,
      "note": 55,
      "start": 2.4119,
      "duration": 0.0154,
      "velocity": 102,
      "chip": "ym2612"
    },
    {
      "channel": 2,
      "note": 55,
      "start": 2.4121,
      "duration": 0.0154,
      "velocity": 102,
      "chip": "ym2612"
    },
    {
      "channel": 0,
      "note": 54,
      "start": 2.427,
      "duration": 0.0161,
      "velocity": 102,
      "chip": "ym2612"
    },
    {
      "channel": 1,
      "note": 55,
      "start": 2.4273,
      "duration": 0.0161,
      "velocity": 102,
      "chip": "ym2612"
    },
    {
      "channel": 2,
      "note": 55,
      "start": 2.4275,
      "duration": 0.0161,
      "velocity": 102,
      "chip": "ym2612"
    },
    {
      "channel": 0,
      "note": 54,
      "start": 2.4431,
      "duration": 0.016,
      "velocity": 102,
      "chip": "ym2612"
    },
    {
      "channel": 1,
      "note": 55,
      "start": 2.4433,
      "duration": 0.016,
      "velocity": 102,
      "chip": "ym2612"
    },
    {
      "channel": 2,
      "note": 55,
      "start": 2.4436,
      "duration": 0.016,
      "velocity": 102,
      "chip": "ym2612"
    },
    {
      "channel": 0,
      "note": 54,
      "start": 2.4591,
      "duration": 0.0162,
      "velocity": 102,
      "chip": "ym2612"
    },
    {
      "channel": 1,
      "note": 55,
      "start": 2.4593,
      "duration": 0.0162,
      "velocity": 102,
      "chip": "ym2612"
    },
    {
      "channel": 2,
      "note": 55,
      "start": 2.4596,
      "duration": 0.0162,
      "velocity": 102,
      "chip": "ym2612"
    },
    {
      "channel": 0,
      "note": 54,
      "start": 2.4753,
      "duration": 0.0162,
      "velocity": 102,
      "chip": "ym2612"
    },
    {
      "channel": 1,
      "note": 55,
      "start": 2.4756,
      "duration": 0.0161,
      "velocity": 102,
      "chip": "ym2612"
    },
    {
      "channel": 2,
      "note": 56,
      "start": 2.4759,
      "duration": 0.0162,
      "velocity": 102,
      "chip": "ym2612"
    },
    {
      "channel": 0,
      "note": 55,
      "start": 2.4915,
      "duration": 0.0375,
      "velocity": 102,
      "chip": "ym2612"
    },
    {
      "channel": 1,
      "note": 55,
      "start": 2.4917,
      "duration": 0.0375,
      "velocity": 102,
      "chip": "ym2612"
    },
    {
      "channel": 2,
      "note": 56,
      "start": 2.4921,
      "duration": 0.0375,
      "velocity": 102,
      "chip": "ym2612"
    },
    {
      "channel": 0,
      "note": 55,
      "start": 2.529,
      "duration": 0.02,
      "velocity": 102,
      "chip": "ym2612"
    },
    {
      "channel": 1,
      "note": 55,
      "start": 2.5292,
      "duration": 0.0201,
      "velocity": 102,
      "chip": "ym2612"
    },
    {
      "channel": 2,
      "note": 56,
      "start": 2.5296,
      "duration": 0.02,
      "velocity": 102,
      "chip": "ym2612"
    },
    {
      "channel": 0,
      "note": 55,
      "start": 2.549,
      "duration": 0.02,
      "velocity": 102,
      "chip": "ym2612"
    },
    {
      "channel": 1,
      "note": 55,
      "start": 2.5493,
      "duration": 0.0199,
      "velocity": 102,
      "chip": "ym2612"
    },
    {
      "channel": 2,
      "note": 56,
      "start": 2.5496,
      "duration": 0.02,
      "velocity": 102,
      "chip": "ym2612"
    },
    {
      "channel": 0,
      "note": 55,
      "start": 2.569,
      "duration": 0.02,
      "velocity": 102,
      "chip": "ym2612"
    },
    {
      "channel": 1,
      "note": 55,
      "start": 2.5692,
      "duration": 0.02,
      "velocity": 102,
      "chip": "ym2612"
    },
    {
      "channel": 2,
      "note": 56,
      "start": 2.5696,
      "duration": 0.02,
      "velocity": 102,
      "chip": "ym2612"
    },
    {
      "channel": 0,
      "note": 55,
      "start": 2.589,
      "duration": 0.02,
      "velocity": 102,
      "chip": "ym2612"
    },
    {
      "channel": 1,
      "note": 56,
      "start": 2.5892,
      "duration": 0.0201,
      "velocity": 102,
      "chip": "ym2612"
    },
    {
      "channel": 2,
      "note": 56,
      "start": 2.5896,
      "duration": 0.02,
      "velocity": 102,
      "chip": "ym2612"
    },
    {
      "channel": 0,
      "note": 55,
      "start": 2.609,
      "duration": 0.021,
      "velocity": 102,
      "chip": "ym2612"
    },
    {
      "channel": 1,
      "note": 56,
      "start": 2.6093,
      "duration": 0.0209,
      "velocity": 102,
      "chip": "ym2612"
    },
    {
      "channel": 2,
      "note": 57,
      "start": 2.6096,
      "duration": 0.021,
      "velocity": 102,
      "chip": "ym2612"
    },
    {
      "channel": 0,
      "note": 55,
      "start": 2.6299,
      "duration": 0.0152,
      "velocity": 102,
      "chip": "ym2612"
    },
    {
      "channel": 1,
      "note": 56,
      "start": 2.6302,
      "duration": 0.0152,
      "velocity": 102,
      "chip": "ym2612"
    },
    {
      "channel": 2,
      "note": 57,
      "start": 2.6305,
      "duration": 0.0151,
      "velocity": 102,
      "chip": "ym2612"
    },
    {
      "channel": 0,
      "note": 55,
      "start": 2.6451,
      "duration": 0.0161,
      "velocity": 102,
      "chip": "ym2612"
    },
    {
      "channel": 1,
      "note": 56,
      "start": 2.6454,
      "duration": 0.0161,
      "velocity": 102,
      "chip": "ym2612"
    },
    {
      "channel": 2,
      "note": 57,
      "start": 2.6457,
      "duration": 0.0161,
      "velocity": 102,
      "chip": "ym2612"
    },
    {
      "channel": 0,
      "note": 55,
      "start": 2.6612,
      "duration": 0.0161,
      "velocity": 102,
      "chip": "ym2612"
    },
    {
      "channel": 1,
      "note": 56,
      "start": 2.6615,
      "duration": 0.0161,
      "velocity": 102,
      "chip": "ym2612"
    },
    {
      "channel": 2,
      "note": 57,
      "start": 2.6618,
      "duration": 0.016,
      "velocity": 102,
      "chip": "ym2612"
    },
    {
      "channel": 0,
      "note": 56,
      "start": 2.6773,
      "duration": 0.0162,
      "velocity": 102,
      "chip": "ym2612"
    },
    {
      "channel": 1,
      "note": 56,
      "start": 2.6775,
      "duration": 0.0162,
      "velocity": 102,
      "chip": "ym2612"
    },
    {
      "channel": 2,
      "note": 57,
      "start": 2.6778,
      "duration": 0.0162,
      "velocity": 102,
      "chip": "ym2612"
    },
    {
      "channel": 0,
      "note": 56,
      "start": 2.6934,
      "duration": 0.0163,
      "velocity": 102,
      "chip": "ym2612"
    },
    {
      "channel": 1,
      "note": 56,
      "start": 2.6937,
      "duration": 0.0162,
      "velocity": 102,
      "chip": "ym2612"
    },
    {
      "channel": 2,
      "note": 58,
      "start": 2.694,
      "duration": 0.0163,
      "velocity": 102,
      "chip": "ym2612"
    },
    {
      "channel": 0,
      "note": 56,
      "start": 2.7097,
      "duration": 0.0206,
      "velocity": 102,
      "chip": "ym2612"
    },
    {
      "channel": 1,
      "note": 57,
      "start": 2.7099,
      "duration": 0.0206,
      "velocity": 102,
      "chip": "ym2612"
    },
    {
      "channel": 2,
      "note": 58,
      "start": 2.7103,
      "duration": 0.0206,
      "velocity": 102,
      "chip": "ym2612"
    },
    {
      "channel": 3,
      "note": 62,
      "start": 2.7295,
      "duration": 0.2165,
      "velocity": 127,
      "chip": "ym2612"
    },
    {
      "channel": 0,
      "note": 56,
      "start": 2.7302,
      "duration": 0.0137,
      "velocity": 102,
      "chip": "ym2612"
    },
    {
      "channel": 1,
      "note": 57,
      "start": 2.7305,
      "duration": 0.0136,
      "velocity": 102,
      "chip": "ym2612"
    },
    {
      "channel": 2,
      "note": 58,
      "start": 2.7308,
      "duration": 0.0136,
      "velocity": 102,
      "chip": "ym2612"
    },
    {
      "channel": 0,
      "note": 56,
      "start": 2.7439,
      "duration": 0.016,
      "velocity": 102,
      "chip": "ym2612"
    },
    {
      "channel": 1,
      "note": 57,
      "start": 2.7441,
      "duration": 0.016,
      "velocity": 102,
      "chip": "ym2612"
    },
    {
      "channel": 2,
      "note": 58,
      "start": 2.7445,
      "duration": 0.016,
      "velocity": 102,
      "chip": "ym2612"
    },
    {
      "channel": 0,
      "note": 56,
      "start": 2.7599,
      "duration": 0.0161,
      "velocity": 102,
      "chip": "ym2612"
    },
    {
      "channel": 1,
      "note": 57,
      "start": 2.7602,
      "duration": 0.0161,
      "velocity": 102,
      "chip": "ym2612"
    },
    {
      "channel": 2,
      "note": 58,
      "start": 2.7604,
      "duration": 0.0161,
      "velocity": 102,
      "chip": "ym2612"
    },
    {
      "channel": 0,
      "note": 57,
      "start": 2.776,
      "duration": 0.0162,
      "velocity": 102,
      "chip": "ym2612"
    },
    {
      "channel": 1,
      "note": 58,
      "start": 2.7762,
      "duration": 0.0162,
      "velocity": 102,
      "chip": "ym2612"
    },
    {
      "channel": 2,
      "note": 59,
      "start": 2.7765,
      "duration": 0.0162,
      "velocity": 102,
      "chip": "ym2612"
    },
    {
      "channel": 0,
      "note": 57,
      "start": 2.7922,
      "duration": 0.0161,
      "velocity": 102,
      "chip": "ym2612"
    },
    {
      "channel": 1,
      "note": 58,
      "start": 2.7925,
      "duration": 0.0161,
      "velocity": 102,
      "chip": "ym2612"
    },
    {
      "channel": 2,
      "note": 59,
      "start": 2.7927,
      "duration": 0.0161,
      "velocity": 102,
      "chip": "ym2612"
    },
    {
      "channel": 0,
      "note": 57,
      "start": 2.8083,
      "duration": 0.0371,
      "velocity": 102,
      "chip": "ym2612"
    },
    {
      "channel": 1,
      "note": 58,
      "start": 2.8086,
      "duration": 0.0371,
      "velocity": 102,
      "chip": "ym2612"
    },
    {
      "channel": 2,
      "note": 59,
      "start": 2.8089,
      "duration": 0.0371,
      "velocity": 102,
      "chip": "ym2612"
    },
    {
      "channel": 0,
      "note": 57,
      "start": 2.8454,
      "duration": 0.02,
      "velocity": 102,
      "chip": "ym2612"
    },
    {
      "channel": 1,
      "note": 58,
      "start": 2.8457,
      "duration": 0.0201,
      "velocity": 102,
      "chip": "ym2612"
    },
    {
      "channel": 2,
      "note": 59,
      "start": 2.846,
      "duration": 0.02,
      "velocity": 102,
      "chip": "ym2612"
    },
    {
      "channel": 0,
      "note": 57,
      "start": 2.8654,
      "duration": 0.02,
      "velocity": 102,
      "chip": "ym2612"
    },
    {
      "channel": 1,
      "note": 58,
      "start": 2.8657,
      "duration": 0.0199,
      "velocity": 102,
      "chip": "ym2612"
    },
    {
      "channel": 2,
      "note": 59,
      "start": 2.866,
      "duration": 0.02,
      "velocity": 102,
      "chip": "ym2612"
    },
    {
      "channel": 0,
      "note": 58,
      "start": 2.8854,
      "duration": 0.02,
      "velocity": 102,
      "chip": "ym2612"
    },
    {
      "channel": 1,
      "note": 59,
      "start": 2.8857,
      "duration": 0.0201,
      "velocity": 102,
      "chip": "ym2612"
    },
    {
      "channel": 2,
      "note": 60,
      "start": 2.886,
      "duration": 0.02,
      "velocity": 102,
      "chip": "ym2612"
    },
    {
      "channel": 0,
      "note": 58,
      "start": 2.9054,
      "duration": 0.02,
      "velocity": 102,
      "chip": "ym2612"
    },
    {
      "channel": 1,
      "note": 59,
      "start": 2.9057,
      "duration": 0.0199,
      "velocity": 102,
      "chip": "ym2612"
    },
    {
      "channel": 2,
      "note": 60,
      "start": 2.906,
      "duration": 0.02,
      "velocity": 102,
      "chip": "ym2612"
    },
    {
      "channel": 0,
      "note": 58,
      "start": 2.9254,
      "duration": 0.0215,
      "velocity": 102,
      "chip": "ym2612"
    },
    {
      "channel": 1,
      "note": 59,
      "start": 2.9257,
      "duration": 0.0215,
      "velocity": 102,
      "chip": "ym2612"
    },
    {
      "channel": 2,
      "note": 60,
      "start": 2.926,
      "duration": 0.0215,
      "velocity": 102,
      "chip": "ym2612"
    },
    {
      "channel": 3,
      "note": 63,
      "start": 2.9461,
      "duration": 0.1966,
      "velocity": 127,
      "chip": "ym2612"
    },
    {
      "channel": 0,
      "note": 58,
      "start": 2.9469,
      "duration": 0.0149,
      "velocity": 102,
      "chip": "ym2612"
    },
    {
      "channel": 1,
      "note": 59,
      "start": 2.9471,
      "duration": 0.0149,
      "velocity": 102,
      "chip": "ym2612"
    },
    {
      "channel": 2,
      "note": 60,
      "start": 2.9475,
      "duration": 0.0149,
      "velocity": 102,
      "chip": "ym2612"
    },
    {
      "channel": 0,
      "note": 58,
      "start": 2.9617,
      "duration": 0.0161,
      "velocity": 102,
      "chip": "ym2612"
    },
    {
      "channel": 1,
      "note": 59,
      "start": 2.9621,
      "duration": 0.016,
      "velocity": 102,
      "chip": "ym2612"
    },
    {
      "channel": 2,
      "note": 60,
      "start": 2.9623,
      "duration": 0.0161,
      "velocity": 102,
      "chip": "ym2612"
    },
    {
      "channel": 0,
      "note": 59,
      "start": 2.9778,
      "duration": 0.0161,
      "velocity": 102,
      "chip": "ym2612"
    },
    {
      "channel": 1,
      "note": 59,
      "start": 2.978,
      "duration": 0.0161,
      "velocity": 102,
      "chip": "ym2612"
    },
    {
      "channel": 2,
      "note": 60,
      "start": 2.9784,
      "duration": 0.0161,
      "velocity": 102,
      "chip": "ym2612"
    },
    {
      "channel": 0,
      "note": 59,
      "start": 2.9939,
      "duration": 0.0162,
      "velocity": 102,
      "chip": "ym2612"
    },
    {
      "channel": 1,
      "note": 60,
      "start": 2.9941,
      "duration": 0.0162,
      "velocity": 102,
      "chip": "ym2612"
    },
    {
      "channel": 2,
      "note": 61,
      "start": 2.9945,
      "duration": 0.0162,
      "velocity": 102,
      "chip": "ym2612"
    },
    {
      "channel": 0,
      "note": 59,
      "start": 3.0101,
      "duration": 0.0161,
      "velocity": 102,
      "chip": "ym2612"
    },
    {
      "channel": 1,
      "note": 60,
      "start": 3.0104,
      "duration": 0.0161,
      "velocity": 102,
      "chip": "ym2612"
    },
    {
      "channel": 2,
      "note": 61,
      "start": 3.0107,
      "duration": 0.0161,
      "velocity": 102,
      "chip": "ym2612"
    },
    {
      "channel": 0,
      "note": 59,
      "start": 3.0261,
      "duration": 0.0183,
      "velocity": 102,
      "chip": "ym2612"
    },
    {
      "channel": 1,
      "note": 60,
      "start": 3.0264,
      "duration": 0.0183,
      "velocity": 102,
      "chip": "ym2612"
    },
    {
      "channel": 2,
      "note": 61,
      "start": 3.0267,
      "duration": 0.0183,
      "velocity": 102,
      "chip": "ym2612"
    },
    {
      "channel": 0,
      "note": 59,
      "start": 3.0444,
      "duration": 0.0156,
      "velocity": 102,
      "chip": "ym2612"
    },
    {
      "channel": 1,
      "note": 60,
      "start": 3.0447,
      "duration": 0.0155,
      "velocity": 102,
      "chip": "ym2612"
    },
    {
      "channel": 2,
      "note": 61,
      "start": 3.045,
      "duration": 0.0156,
      "velocity": 102,
      "chip": "ym2612"
    },
    {
      "channel": 0,
      "note": 60,
      "start": 3.06,
      "duration": 0.0161,
      "velocity": 102,
      "chip": "ym2612"
    },
    {
      "channel": 1,
      "note": 60,
      "start": 3.0602,
      "duration": 0.0161,
      "velocity": 102,
      "chip": "ym2612"
    },
    {
      "channel": 2,
      "note": 61,
      "start": 3.0606,
      "duration": 0.0161,
      "velocity": 102,
      "chip": "ym2612"
    },
    {
      "channel": 0,
      "note": 60,
      "start": 3.0761,
      "duration": 0.0161,
      "velocity": 102,
      "chip": "ym2612"
    },
    {
      "channel": 1,
      "note": 61,
      "start": 3.0764,
      "duration": 0.0161,
      "velocity": 102,
      "chip": "ym2612"
    },
    {
      "channel": 2,
      "note": 61,
      "start": 3.0767,
      "duration": 0.0161,
      "velocity": 102,
      "chip": "ym2612"
    },
    {
      "channel": 0,
      "note": 60,
      "start": 3.0922,
      "duration": 0.0161,
      "velocity": 102,
      "chip": "ym2612"
    },
    {
      "channel": 1,
      "note": 61,
      "start": 3.0925,
      "duration": 0.0162,
      "velocity": 102,
      "chip": "ym2612"
    },
    {
      "channel": 2,
      "note": 62,
      "start": 3.0928,
      "duration": 0.0161,
      "velocity": 102,
      "chip": "ym2612"
    },
    {
      "channel": 0,
      "note": 60,
      "start": 3.1083,
      "duration": 0.0162,
      "velocity": 102,
      "chip": "ym2612"
    },
    {
      "channel": 1,
      "note": 61,
      "start": 3.1087,
      "duration": 0.0162,
      "velocity": 102,
      "chip": "ym2612"
    },
    {
      "channel": 2,
      "note": 62,
      "start": 3.1089,
      "duration": 0.0162,
      "velocity": 102,
      "chip": "ym2612"
    },
    {
      "channel": 0,
      "note": 60,
      "start": 3.1245,
      "duration": 0.019,
      "velocity": 102,
      "chip": "ym2612"
    },
    {
      "channel": 1,
      "note": 61,
      "start": 3.1248,
      "duration": 0.019,
      "velocity": 102,
      "chip": "ym2612"
    },
    {
      "channel": 2,
      "note": 62,
      "start": 3.1251,
      "duration": 0.019,
      "velocity": 102,
      "chip": "ym2612"
    },
    {
      "channel": 3,
      "note": 62,
      "start": 3.1428,
      "duration": 0.2224,
      "velocity": 102,
      "chip": "ym2612"
    },
    {
      "channel": 0,
      "note": 60,
      "start": 3.1436,
      "duration": 0.0149,
      "velocity": 102,
      "chip": "ym2612"
    },
    {
      "channel": 1,
      "note": 61,
      "start": 3.1438,
      "duration": 0.0149,
      "velocity": 102,
      "chip": "ym2612"
    },
    {
      "channel": 2,
      "note": 62,
      "start": 3.1441,
      "duration": 0.0149,
      "velocity": 102,
      "chip": "ym2612"
    },
    {
      "channel": 0,
      "note": 61,
      "start": 3.1584,
      "duration": 0.0161,
      "velocity": 102,
      "chip": "ym2612"
    },
    {
      "channel": 1,
      "note": 61,
      "start": 3.1587,
      "duration": 0.016,
      "velocity": 102,
      "chip": "ym2612"
    },
    {
      "channel": 2,
      "note": 62,
      "start": 3.159,
      "duration": 0.0161,
      "velocity": 102,
      "chip": "ym2612"
    },
    {
      "channel": 0,
      "note": 61,
      "start": 3.1745,
      "duration": 0.0161,
      "velocity": 102,
      "chip": "ym2612"
    },
    {
      "channel": 1,
      "note": 62,
      "start": 3.1747,
      "duration": 0.0161,
      "velocity": 102,
      "chip": "ym2612"
    },
    {
      "channel": 2,
      "note": 62,
      "start": 3.1751,
      "duration": 0.0161,
      "velocity": 102,
      "chip": "ym2612"
    },
    {
      "channel": 0,
      "note": 61,
      "start": 3.1906,
      "duration": 0.0161,
      "velocity": 102,
      "chip": "ym2612"
    },
    {
      "channel": 1,
      "note": 62,
      "start": 3.1908,
      "duration": 0.0162,
      "velocity": 102,
      "chip": "ym2612"
    },
    {
      "channel": 2,
      "note": 63,
      "start": 3.1912,
      "duration": 0.0161,
      "velocity": 102,
      "chip": "ym2612"
    },
    {
      "channel": 0,
      "note": 61,
      "start": 3.2067,
      "duration": 0.0161,
      "velocity": 102,
      "chip": "ym2612"
    },
    {
      "channel": 1,
      "note": 62,
      "start": 3.207,
      "duration": 0.0161,
      "velocity": 102,
      "chip": "ym2612"
    },
    {
      "channel": 2,
      "note": 63,
      "start": 3.2073,
      "duration": 0.0161,
      "velocity": 102,
      "chip": "ym2612"
    },
    {
      "channel": 0,
      "note": 61,
      "start": 3.2229,
      "duration": 0.0181,
      "velocity": 102,
      "chip": "ym2612"
    },
    {
      "channel": 1,
      "note": 62,
      "start": 3.2232,
      "duration": 0.018,
      "velocity": 102,
      "chip": "ym2612"
    },
    {
      "channel": 2,
      "note": 63,
      "start": 3.2234,
      "duration": 0.0181,
      "velocity": 102,
      "chip": "ym2612"
    },
    {
      "channel": 0,
      "note": 61,
      "start": 3.241,
      "duration": 0.0192,
      "velocity": 102,
      "chip": "ym2612"
    },
    {
      "channel": 1,
      "note": 62,
      "start": 3.2412,
      "duration": 0.0192,
      "velocity": 102,
      "chip": "ym2612"
    },
    {
      "channel": 2,
      "note": 63,
      "start": 3.2415,
      "duration": 0.0193,
      "velocity": 102,
      "chip": "ym2612"
    },
    {
      "channel": 0,
      "note": 62,
      "start": 3.2602,
      "duration": 0.02,
      "velocity": 102,
      "chip": "ym2612"
    },
    {
      "channel": 1,
      "note": 62,
      "start": 3.2604,
      "duration": 0.0201,
      "velocity": 102,
      "chip": "ym2612"
    },
    {
      "channel": 2,
      "note": 63,
      "start": 3.2608,
      "duration": 0.02,
      "velocity": 102,
      "chip": "ym2612"
    },
    {
      "channel": 0,
      "note": 62,
      "start": 3.2802,
      "duration": 0.02,
      "velocity": 102,
      "chip": "ym2612"
    },
    {
      "channel": 1,
      "note": 63,
      "start": 3.2805,
      "duration": 0.0199,
      "velocity": 102,
      "chip": "ym2612"
    },
    {
      "channel": 2,
      "note": 63,
      "start": 3.2808,
      "duration": 0.02,
      "velocity": 102,
      "chip": "ym2612"
    },
    {
      "channel": 0,
      "note": 62,
      "start": 3.3002,
      "duration": 0.02,
      "velocity": 102,
      "chip": "ym2612"
    },
    {
      "channel": 1,
      "note": 63,
      "start": 3.3004,
      "duration": 0.0201,
      "velocity": 102,
      "chip": "ym2612"
    },
    {
      "channel": 2,
      "note": 63,
      "start": 3.3008,
      "duration": 0.02,
      "velocity": 102,
      "chip": "ym2612"
    },
    {
      "channel": 0,
      "note": 62,
      "start": 3.3202,
      "duration": 0.02,
      "velocity": 102,
      "chip": "ym2612"
    },
    {
      "channel": 1,
      "note": 63,
      "start": 3.3205,
      "duration": 0.0199,
      "velocity": 102,
      "chip": "ym2612"
    },
    {
      "channel": 2,
      "note": 64,
      "start": 3.3208,
      "duration": 0.02,
      "velocity": 102,
      "chip": "ym2612"
    },
    {
      "channel": 0,
      "note": 62,
      "start": 3.3402,
      "duration": 0.0221,
      "velocity": 101,
      "chip": "ym2612"
    },
    {
      "channel": 1,
      "note": 63,
      "start": 3.3404,
      "duration": 0.0275,
      "velocity": 102,
      "chip": "ym2612"
    },
    {
      "channel": 2,
      "note": 64,
      "start": 3.3408,
      "duration": 0.0222,
      "velocity": 102,
      "chip": "ym2612"
    },
    {
      "channel": 0,
      "note": 50,
      "start": 3.3625,
      "duration": 0.2381,
      "velocity": 101,
      "chip": "ym2612"
    },
    {
      "channel": 2,
      "note": 50,
      "start": 3.3632,
      "duration": 1.8753,
      "velocity": 102,
      "chip": "ym2612"
    },
    {
      "channel": 3,
      "note": 50,
      "start": 3.3654,
      "duration": 1.8737,
      "velocity": 102,
      "chip": "ym2612"
    },
    {
      "channel": 5,
      "note": 21,
      "start": 3.3675,
      "duration": 0.4744,
      "velocity": 127,
      "chip": "ym2612"
    },
    {
      "channel": 1,
      "note": 63,
      "start": 3.3679,
      "duration": 0.0123,
      "velocity": 102,
      "chip": "ym2612"
    },
    {
      "channel": 1,
      "note": 63,
      "start": 3.3802,
      "duration": 0.02,
      "velocity": 102,
      "chip": "ym2612"
    },
    {
      "channel": 1,
      "note": 63,
      "start": 3.4002,
      "duration": 0.02,
      "velocity": 102,
      "chip": "ym2612"
    },
    {
      "channel": 1,
      "note": 64,
      "start": 3.4202,
      "duration": 0.02,
      "velocity": 102,
      "chip": "ym2612"
    },
    {
      "channel": 1,
      "note": 64,
      "start": 3.4402,
      "duration": 0.02,
      "velocity": 102,
      "chip": "ym2612"
    },
    {
      "channel": 1,
      "note": 64,
      "start": 3.4602,
      "duration": 0.0223,
      "velocity": 102,
      "chip": "ym2612"
    },
    {
      "channel": 1,
      "note": 64,
      "start": 3.4825,
      "duration": 0.0177,
      "velocity": 102,
      "chip": "ym2612"
    },
    {
      "channel": 1,
      "note": 64,
      "start": 3.5002,
      "duration": 0.02,
      "velocity": 102,
      "chip": "ym2612"
    },
    {
      "channel": 1,
      "note": 64,
      "start": 3.5202,
      "duration": 0.02,
      "velocity": 102,
      "chip": "ym2612"
    },
    {
      "channel": 1,
      "note": 64,
      "start": 3.5402,
      "duration": 0.02,
      "velocity": 102,
      "chip": "ym2612"
    },
    {
      "channel": 1,
      "note": 65,
      "start": 3.5602,
      "duration": 0.02,
      "velocity": 102,
      "chip": "ym2612"
    },
    {
      "channel": 1,
      "note": 65,
      "start": 3.5802,
      "duration": 0.0225,
      "velocity": 90,
      "chip": "ym2612"
    },
    {
      "channel": 0,
      "note": 50,
      "start": 3.6008,
      "duration": 0.2398,
      "velocity": 101,
      "chip": "ym2612"
    },
    {
      "channel": 1,
      "note": 50,
      "start": 3.6029,
      "duration": 0.1177,
      "velocity": 90,
      "chip": "ym2612"
    },
    {
      "channel": 1,
      "note": 51,
      "start": 3.7208,
      "duration": 0.1204,
      "velocity": 90,
      "chip": "ym2612"
    },
    {
      "channel": 0,
      "note": 50,
      "start": 3.8408,
      "duration": 0.2398,
      "velocity": 101,
      "chip": "ym2612"
    },
    {
      "channel": 1,
      "note": 50,
      "start": 3.8413,
      "duration": 0.2398,
      "velocity": 90,
      "chip": "ym2612"
    },
    {
      "channel": 5,
      "note": 21,
      "start": 3.842,
      "duration": 0.4794,
      "velocity": 127,
      "chip": "ym2612"
    },
    {
      "channel": 0,
      "note": 50,
      "start": 4.0807,
      "duration": 0.2399,
      "velocity": 101,
      "chip": "ym2612"
    },
    {
      "channel": 1,
      "note": 44,
      "start": 4.0813,
      "duration": 1.3971,
      "velocity": 90,
      "chip": "ym2612"
    },
    {
      "channel": 0,
      "note": 50,
      "start": 4.3207,
      "duration": 0.2398,
      "velocity": 101,
      "chip": "ym2612"
    },
    {
      "channel": 5,
      "note": 21,
      "start": 4.3215,
      "duration": 0.4799,
      "velocity": 127,
      "chip": "ym2612"
    },
    {
      "channel": 0,
      "note": 50,
      "start": 4.5607,
      "duration": 0.2399,
      "velocity": 101,
      "chip": "ym2612"
    },
    {
      "channel": 0,
      "note": 50,
      "start": 4.8008,
      "duration": 0.2398,
      "velocity": 101,
      "chip": "ym2612"
    },
    {
      "channel": 5,
      "note": 21,
      "start": 4.8015,
      "duration": 0.4382,
      "velocity": 127,
      "chip": "ym2612"
    },
    {
      "channel": 0,
      "note": 50,
      "start": 5.0408,
      "duration": 0.1971,
      "velocity": 101,
      "chip": "ym2612"
    },
    {
      "channel": 0,
      "note": 50,
      "start": 5.238,
      "duration": 0.2398,
      "velocity": 101,
      "chip": "ym2612"
    },
    {
      "channel": 2,
      "note": 57,
      "start": 5.2387,
      "duration": 1.8553,
      "velocity": 102,
      "chip": "ym2612"
    },
    {
      "channel": 3,
      "note": 57,
      "start": 5.2392,
      "duration": 1.8553,
      "velocity": 102,
      "chip": "ym2612"
    },
    {
      "channel": 5,
      "note": 21,
      "start": 5.2399,
      "duration": 0.4793,
      "velocity": 127,
      "chip": "ym2612"
    },
    {
      "channel": 0,
      "note": 50,
      "start": 5.478,
      "duration": 0.2398,
      "velocity": 101,
      "chip": "ym2612"
    },
    {
      "channel": 1,
      "note": 50,
      "start": 5.4785,
      "duration": 0.1194,
      "velocity": 90,
      "chip": "ym2612"
    },
    {
      "channel": 1,
      "note": 51,
      "start": 5.598,
      "duration": 0.1204,
      "velocity": 90,
      "chip": "ym2612"
    },
    {
      "channel": 0,
      "note": 50,
      "start": 5.718,
      "duration": 0.2398,
      "velocity": 101,
      "chip": "ym2612"
    },
    {
      "channel": 1,
      "note": 50,
      "start": 5.7186,
      "duration": 0.1193,
      "velocity": 90,
      "chip": "ym2612"
    },
    {
      "channel": 5,
      "note": 21,
      "start": 5.7193,
      "duration": 0.4794,
      "velocity": 127,
      "chip": "ym2612"
    },
    {
      "channel": 1,
      "note": 58,
      "start": 5.8381,
      "duration": 0.1203,
      "velocity": 90,
      "chip": "ym2612"
    },
    {
      "channel": 0,
      "note": 50,
      "start": 5.958,
      "duration": 0.2399,
      "velocity": 101,
      "chip": "ym2612"
    },
    {
      "channel": 1,
      "note": 56,
      "start": 5.9585,
      "duration": 1.3753,
      "velocity": 90,
      "chip": "ym2612"
    },
    {
      "channel": 0,
      "note": 50,
      "start": 6.198,
      "duration": 0.2399,
      "velocity": 101,
      "chip": "ym2612"
    },
    {
      "channel": 5,
      "note": 21,
      "start": 6.1988,
      "duration": 0.4583,
      "velocity": 127,
      "chip": "ym2612"
    },
    {
      "channel": 0,
      "note": 50,
      "start": 6.438,
      "duration": 0.2182,
      "velocity": 101,
      "chip": "ym2612"
    },
    {
      "channel": 0,
      "note": 50,
      "start": 6.6564,
      "duration": 0.2399,
      "velocity": 101,
      "chip": "ym2612"
    },
    {
      "channel": 5,
      "note": 21,
      "start": 6.6572,
      "duration": 0.438,
      "velocity": 127,
      "chip": "ym2612"
    },
    {
      "channel": 0,
      "note": 50,
      "start": 6.8964,
      "duration": 0.197,
      "velocity": 101,
      "chip": "ym2612"
    },
    {
      "channel": 0,
      "note": 51,
      "start": 7.0935,
      "duration": 0.2398,
      "velocity": 101,
      "chip": "ym2612"
    },
    {
      "channel": 2,
      "note": 58,
      "start": 7.0941,
      "duration": 1.8771,
      "velocity": 102,
      "chip": "ym2612"
    },
    {
      "channel": 3,
      "note": 58,
      "start": 7.0947,
      "duration": 1.8772,
      "velocity": 102,
      "chip": "ym2612"
    },
    {
      "channel": 5,
      "note": 21,
      "start": 7.0954,
      "duration": 0.4793,
      "velocity": 127,
      "chip": "ym2612"
    },
    {
      "channel": 0,
      "note": 51,
      "start": 7.3334,
      "duration": 0.2399,
      "velocity": 101,
      "chip": "ym2612"
    },
    {
      "channel": 1,
      "note": 51,
      "start": 7.334,
      "duration": 0.1194,
      "velocity": 90,
      "chip": "ym2612"
    },
    {
      "channel": 1,
      "note": 53,
      "start": 7.4535,
      "duration": 0.1204,
      "velocity": 90,
      "chip": "ym2612"
    },
    {
      "channel": 0,
      "note": 51,
      "start": 7.5735,
      "duration": 0.2398,
      "velocity": 101,
      "chip": "ym2612"
    },
    {
      "channel": 1,
      "note": 51,
      "start": 7.574,
      "duration": 0.2399,
      "velocity": 90,
      "chip": "ym2612"
    },
    {
      "channel": 5,
      "note": 21,
      "start": 7.5748,
      "duration": 0.4794,
      "velocity": 127,
      "chip": "ym2612"
    },
    {
      "channel": 0,
      "note": 51,
      "start": 7.8135,
      "duration": 0.2398,
      "velocity": 101,
      "chip": "ym2612"
    },
    {
      "channel": 1,
      "note": 46,
      "start": 7.814,
      "duration": 1.3972,
      "velocity": 90,
      "chip": "ym2612"
    },
    {
      "channel": 0,
      "note": 51,
      "start": 8.0534,
      "duration": 0.2398,
      "velocity": 101,
      "chip": "ym2612"
    },
    {
      "channel": 5,
      "note": 21,
      "start": 8.0543,
      "duration": 0.4799,
      "velocity": 127,
      "chip": "ym2612"
    },
    {
      "channel": 0,
      "note": 51,
      "start": 8.2934,
      "duration": 0.2399,
      "velocity": 101,
      "chip": "ym2612"
    },
    {
      "channel": 0,
      "note": 51,
      "start": 8.5335,
      "duration": 0.2398,
      "velocity": 101,
      "chip": "ym2612"
    },
    {
      "channel": 5,
      "note": 21,
      "start": 8.5343,
      "duration": 0.4383,
      "velocity": 127,
      "chip": "ym2612"
    },
    {
      "channel": 0,
      "note": 51,
      "start": 8.7734,
      "duration": 0.1973,
      "velocity": 101,
      "chip": "ym2612"
    },
    {
      "channel": 0,
      "note": 50,
      "start": 8.9709,
      "duration": 0.2398,
      "velocity": 101,
      "chip": "ym2612"
    },
    {
      "channel": 2,
      "note": 57,
      "start": 8.9715,
      "duration": 1.8542,
      "velocity": 102,
      "chip": "ym2612"
    },
    {
      "channel": 3,
      "note": 57,
      "start": 8.9721,
      "duration": 1.8558,
      "velocity": 102,
      "chip": "ym2612"
    },
    {
      "channel": 5,
      "note": 21,
      "start": 8.9727,
      "duration": 0.4793,
      "velocity": 127,
      "chip": "ym2612"
    },
    {
      "channel": 0,
      "note": 50,
      "start": 9.2108,
      "duration": 0.2399,
      "velocity": 101,
      "chip": "ym2612"
    },
    {
      "channel": 1,
      "note": 50,
      "start": 9.2114,
      "duration": 0.1194,
      "velocity": 90,
      "chip": "ym2612"
    },
    {
      "channel": 1,
      "note": 51,
      "start": 9.3309,
      "duration": 0.1204,
      "velocity": 90,
      "chip": "ym2612"
    },
    {
      "channel": 0,
      "note": 50,
      "start": 9.4509,
      "duration": 0.2398,
      "velocity": 101,
      "chip": "ym2612"
    },
    {
      "channel": 1,
      "note": 50,
      "start": 9.4514,
      "duration": 0.1194,
      "velocity": 90,
      "chip": "ym2612"
    },
    {
      "channel": 5,
      "note": 21,
      "start": 9.4521,
      "duration": 0.4799,
      "velocity": 127,
      "chip": "ym2612"
    },
    {
      "channel": 1,
      "note": 62,
      "start": 9.5709,
      "duration": 0.1203,
      "velocity": 90,
      "chip": "ym2612"
    },
    {
      "channel": 0,
      "note": 50,
      "start": 9.6908,
      "duration": 0.2399,
      "velocity": 101,
      "chip": "ym2612"
    },
    {
      "channel": 1,
      "note": 56,
      "start": 9.6914,
      "duration": 0.1194,
      "velocity": 90,
      "chip": "ym2612"
    },
    {
      "channel": 1,
      "note": 57,
      "start": 9.8109,
      "duration": 0.1204,
      "velocity": 90,
      "chip": "ym2612"
    },
    {
      "channel": 0,
      "note": 50,
      "start": 9.9309,
      "duration": 0.2398,
      "velocity": 101,
      "chip": "ym2612"
    },
    {
      "channel": 1,
      "note": 48,
      "start": 9.9314,
      "duration": 0.1194,
      "velocity": 90,
      "chip": "ym2612"
    },
    {
      "channel": 5,
      "note": 21,
      "start": 9.9321,
      "duration": 0.4572,
      "velocity": 127,
      "chip": "ym2612"
    },
    {
      "channel": 1,
      "note": 49,
      "start": 10.0509,
      "duration": 0.1203,
      "velocity": 90,
      "chip": "ym2612"
    },
    {
      "channel": 0,
      "note": 50,
      "start": 10.1709,
      "duration": 0.2177,
      "velocity": 101,
      "chip": "ym2612"
    },
    {
      "channel": 1,
      "note": 44,
      "start": 10.1714,
      "duration": 0.0972,
      "velocity": 90,
      "chip": "ym2612"
    },
    {
      "channel": 1,
      "note": 45,
      "start": 10.2688,
      "duration": 0.7966,
      "velocity": 90,
      "chip": "ym2612"
    },
    {
      "channel": 0,
      "note": 50,
      "start": 10.3887,
      "duration": 0.2398,
      "velocity": 101,
      "chip": "ym2612"
    },
    {
      "channel": 5,
      "note": 21,
      "start": 10.3895,
      "duration": 0.4391,
      "velocity": 127,
      "chip": "ym2612"
    },
    {
      "channel": 0,
      "note": 49,
      "start": 10.6287,
      "duration": 0.1963,
      "velocity": 101,
      "chip": "ym2612"
    },
    {
      "channel": 0,
      "note": 50,
      "start": 10.8252,
      "duration": 0.2396,
      "velocity": 101,
      "chip": "ym2612"
    },
    {
      "channel": 2,
      "note": 50,
      "start": 10.8259,
      "duration": 1.8766,
      "velocity": 102,
      "chip": "ym2612"
    },
    {
      "channel": 3,
      "note": 50,
      "start": 10.828,
      "duration": 1.875,
      "velocity": 102,
      "chip": "ym2612"
    },
    {
      "channel": 5,
      "note": 21,
      "start": 10.8287,
      "duration": 0.4774,
      "velocity": 127,
      "chip": "ym2612"
    },
    {
      "channel": 0,
      "note": 50,
      "start": 11.065,
      "duration": 0.2398,
      "velocity": 101,
      "chip": "ym2612"
    },
    {
      "channel": 1,
      "note": 50,
      "start": 11.0656,
      "duration": 0.1192,
      "velocity": 90,
      "chip": "ym2612"
    },
    {
      "channel": 1,
      "note": 51,
      "start": 11.185,
      "duration": 0.1203,
      "velocity": 90,
      "chip": "ym2612"
    },
    {
      "channel": 0,
      "note": 50,
      "start": 11.305,
      "duration": 0.2398,
      "velocity": 101,
      "chip": "ym2612"
    },
    {
      "channel": 1,
      "note": 50,
      "start": 11.3055,
      "duration": 0.2398,
      "velocity": 90,
      "chip": "ym2612"
    },
    {
      "channel": 5,
      "note": 21,
      "start": 11.3063,
      "duration": 0.4794,
      "velocity": 127,
      "chip": "ym2612"
    },
    {
      "channel": 0,
      "note": 50,
      "start": 11.5449,
      "duration": 0.2399,
      "velocity": 101,
      "chip": "ym2612"
    },
    {
      "channel": 1,
      "note": 44,
      "start": 11.5455,
      "duration": 1.3968,
      "velocity": 90,
      "chip": "ym2612"
    },
    {
      "channel": 0,
      "note": 50,
      "start": 11.7849,
      "duration": 0.2398,
      "velocity": 101,
      "chip": "ym2612"
    },
    {
      "channel": 5,
      "note": 21,
      "start": 11.7857,
      "duration": 0.4799,
      "velocity": 127,
      "chip": "ym2612"
    },
    {
      "channel": 0,
      "note": 50,
      "start": 12.0249,
      "duration": 0.2399,
      "velocity": 101,
      "chip": "ym2612"
    },
    {
      "channel": 0,
      "note": 50,
      "start": 12.2649,
      "duration": 0.2399,
      "velocity": 101,
      "chip": "ym2612"
    },
    {
      "channel": 5,
      "note": 21,
      "start": 12.2657,
      "duration": 0.4379,
      "velocity": 127,
      "chip": "ym2612"
    },
    {
      "channel": 0,
      "note": 50,
      "start": 12.5049,
      "duration": 0.197,
      "velocity": 101,
      "chip": "ym2612"
    },
    {
      "channel": 0,
      "note": 50,
      "start": 12.702,
      "duration": 0.2398,
      "velocity": 101,
      "chip": "ym2612"
    },
    {
      "channel": 2,
      "note": 57,
      "start": 12.7027,
      "duration": 1.8552,
      "velocity": 102,
      "chip": "ym2612"
    },
    {
      "channel": 3,
      "note": 57,
      "start": 12.7032,
      "duration": 1.8552,
      "velocity": 102,
      "chip": "ym2612"
    },
    {
      "channel": 5,
      "note": 21,
      "start": 12.7039,
      "duration": 0.4793,
      "velocity": 127,
      "chip": "ym2612"
    },
    {
      "channel": 0,
      "note": 50,
      "start": 12.942,
      "duration": 0.2399,
      "velocity": 101,
      "chip": "ym2612"
    },
    {
      "channel": 1,
      "note": 50,
      "start": 12.9425,
      "duration": 0.1194,
      "velocity": 90,
      "chip": "ym2612"
    },
    {
      "channel": 1,
      "note": 51,
      "start": 13.062,
      "duration": 0.1204,
      "velocity": 90,
      "chip": "ym2612"
    },
    {
      "channel": 0,
      "note": 50,
      "start": 13.182,
      "duration": 0.2398,
      "velocity": 101,
      "chip": "ym2612"
    },
    {
      "channel": 1,
      "note": 50,
      "start": 13.1825,
      "duration": 0.1194,
      "velocity": 90,
      "chip": "ym2612"
    },
    {
      "channel": 5,
      "note": 21,
      "start": 13.1833,
      "duration": 0.4794,
      "velocity": 127,
      "chip": "ym2612"
    },
    {
      "channel": 1,
      "note": 58,
      "start": 13.3021,
      "duration": 0.1203,
      "velocity": 90,
      "chip": "ym2612"
    },
    {
      "channel": 0,
      "note": 50,
      "start": 13.422,
      "duration": 0.2398,
      "velocity": 101,
      "chip": "ym2612"
    },
    {
      "channel": 1,
      "note": 56,
      "start": 13.4225,
      "duration": 1.3752,
      "velocity": 90,
      "chip": "ym2612"
    },
    {
      "channel": 0,
      "note": 50,
      "start": 13.662,
      "duration": 0.2398,
      "velocity": 101,
      "chip": "ym2612"
    },
    {
      "channel": 5,
      "note": 21,
      "start": 13.6628,
      "duration": 0.458,
      "velocity": 127,
      "chip": "ym2612"
    },
    {
      "channel": 0,
      "note": 50,
      "start": 13.902,
      "duration": 0.218,
      "velocity": 101,
      "chip": "ym2612"
    },
    {
      "channel": 0,
      "note": 50,
      "start": 14.1201,
      "duration": 0.2399,
      "velocity": 101,
      "chip": "ym2612"
    },
    {
      "channel": 5,
      "note": 21,
      "start": 14.1209,
      "duration": 0.4382,
      "velocity": 127,
      "chip": "ym2612"
    },
    {
      "channel": 0,
      "note": 50,
      "start": 14.3601,
      "duration": 0.1972,
      "velocity": 101,
      "chip": "ym2612"
    },
    {
      "channel": 0,
      "note": 51,
      "start": 14.5574,
      "duration": 0.2398,
      "velocity": 101,
      "chip": "ym2612"
    },
    {
      "channel": 2,
      "note": 58,
      "start": 14.558,
      "duration": 1.8772,
      "velocity": 102,
      "chip": "ym2612"
    },
    {
      "channel": 3,
      "note": 58,
      "start": 14.5586,
      "duration": 1.8772,
      "velocity": 102,
      "chip": "ym2612"
    },
    {
      "channel": 5,
      "note": 21,
      "start": 14.5592,
      "duration": 0.4793,
      "velocity": 127,
      "chip": "ym2612"
    },
    {
      "channel": 0,
      "note": 51,
      "start": 14.7973,
      "duration": 0.2399,
      "velocity": 101,
      "chip": "ym2612"
    },
    {
      "channel": 1,
      "note": 51,
      "start": 14.7979,
      "duration": 0.1194,
      "velocity": 90,
      "chip": "ym2612"
    },
    {
      "channel": 1,
      "note": 53,
      "start": 14.9174,
      "duration": 0.1203,
      "velocity": 90,
      "chip": "ym2612"
    },
    {
      "channel": 0,
      "note": 51,
      "start": 15.0374,
      "duration": 0.2398,
      "velocity": 101,
      "chip": "ym2612"
    },
    {
      "channel": 1,
      "note": 51,
      "start": 15.0379,
      "duration": 0.2398,
      "velocity": 90,
      "chip": "ym2612"
    },
    {
      "channel": 5,
      "note": 21,
      "start": 15.0387,
      "duration": 0.4794,
      "velocity": 127,
      "chip": "ym2612"
    },
    {
      "channel": 0,
      "note": 51,
      "start": 15.2773,
      "duration": 0.2399,
      "velocity": 101,
      "chip": "ym2612"
    },
    {
      "channel": 1,
      "note": 46,
      "start": 15.2779,
      "duration": 1.3972,
      "velocity": 90,
      "chip": "ym2612"
    },
    {
      "channel": 0,
      "note": 51,
      "start": 15.5173,
      "duration": 0.2398,
      "velocity": 101,
      "chip": "ym2612"
    },
    {
      "channel": 5,
      "note": 21,
      "start": 15.5181,
      "duration": 0.4799,
      "velocity": 127,
      "chip": "ym2612"
    },
    {
      "channel": 0,
      "note": 51,
      "start": 15.7573,
      "duration": 0.2399,
      "velocity": 101,
      "chip": "ym2612"
    },
    {
      "channel": 0,
      "note": 51,
      "start": 15.9973,
      "duration": 0.2399,
      "velocity": 101,
      "chip": "ym2612"
    },
    {
      "channel": 5,
      "note": 21,
      "start": 15.9981,
      "duration": 0.4383,
      "velocity": 127,
      "chip": "ym2612"
    },
    {
      "channel": 0,
      "note": 51,
      "start": 16.2374,
      "duration": 0.1973,
      "velocity": 101,
      "chip": "ym2612"
    },
    {
      "channel": 0,
      "note": 50,
      "start": 16.4348,
      "duration": 0.2398,
      "velocity": 101,
      "chip": "ym2612"
    },
    {
      "channel": 2,
      "note": 57,
      "start": 16.4354,
      "duration": 1.8578,
      "velocity": 102,
      "chip": "ym2612"
    },
    {
      "channel": 3,
      "note": 57,
      "start": 16.436,
      "duration": 1.8593,
      "velocity": 102,
      "chip": "ym2612"
    },
    {
      "channel": 5,
      "note": 21,
      "start": 16.4366,
      "duration": 0.4793,
      "velocity": 127,
      "chip": "ym2612"
    },
    {
      "channel": 0,
      "note": 50,
      "start": 16.6747,
      "duration": 0.2399,
      "velocity": 101,
      "chip": "ym2612"
    },
    {
      "channel": 1,
      "note": 50,
      "start": 16.6753,
      "duration": 0.1194,
      "velocity": 90,
      "chip": "ym2612"
    },
    {
      "channel": 1,
      "note": 51,
      "start": 16.7948,
      "duration": 0.1204,
      "velocity": 90,
      "chip": "ym2612"
    },
    {
      "channel": 0,
      "note": 50,
      "start": 16.9148,
      "duration": 0.2398,
      "velocity": 101,
      "chip": "ym2612"
    },
    {
      "channel": 1,
      "note": 50,
      "start": 16.9153,
      "duration": 0.1194,
      "velocity": 90,
      "chip": "ym2612"
    },
    {
      "channel": 5,
      "note": 21,
      "start": 16.9161,
      "duration": 0.4799,
      "velocity": 127,
      "chip": "ym2612"
    },
    {
      "channel": 1,
      "note": 62,
      "start": 17.0348,
      "duration": 0.1203,
      "velocity": 90,
      "chip": "ym2612"
    },
    {
      "channel": 0,
      "note": 50,
      "start": 17.1548,
      "duration": 0.2398,
      "velocity": 101,
      "chip": "ym2612"
    },
    {
      "channel": 1,
      "note": 56,
      "start": 17.1553,
      "duration": 0.1194,
      "velocity": 90,
      "chip": "ym2612"
    },
    {
      "channel": 1,
      "note": 57,
      "start": 17.2748,
      "duration": 0.1204,
      "velocity": 90,
      "chip": "ym2612"
    },
    {
      "channel": 0,
      "note": 50,
      "start": 17.3948,
      "duration": 0.2398,
      "velocity": 101,
      "chip": "ym2612"
    },
    {
      "channel": 1,
      "note": 48,
      "start": 17.3954,
      "duration": 0.1193,
      "velocity": 90,
      "chip": "ym2612"
    },
    {
      "channel": 5,
      "note": 21,
      "start": 17.3961,
      "duration": 0.4573,
      "velocity": 127,
      "chip": "ym2612"
    },
    {
      "channel": 1,
      "note": 49,
      "start": 17.5148,
      "duration": 0.1203,
      "velocity": 90,
      "chip": "ym2612"
    },
    {
      "channel": 0,
      "note": 50,
      "start": 17.6348,
      "duration": 0.2178,
      "velocity": 101,
      "chip": "ym2612"
    },
    {
      "channel": 1,
      "note": 44,
      "start": 17.6353,
      "duration": 0.0973,
      "velocity": 90,
      "chip": "ym2612"
    },
    {
      "channel": 1,
      "note": 45,
      "start": 17.7328,
      "duration": 0.5598,
      "velocity": 102,
      "chip": "ym2612"
    },
    {
      "channel": 0,
      "note": 50,
      "start": 17.8527,
      "duration": 0.2398,
      "velocity": 101,
      "chip": "ym2612"
    },
    {
      "channel": 5,
      "note": 21,
      "start": 17.8535,
      "duration": 0.4425,
      "velocity": 127,
      "chip": "ym2612"
    },
    {
      "channel": 0,
      "note": 49,
      "start": 18.0927,
      "duration": 0.1978,
      "velocity": 127,
      "chip": "ym2612"
    },
    {
      "channel": 0,
      "note": 55,
      "start": 18.2906,
      "duration": 0.7181,
      "velocity": 127,
      "chip": "ym2612"
    },
    {
      "channel": 1,
      "note": 55,
      "start": 18.2927,
      "duration": 0.7165,
      "velocity": 102,
      "chip": "ym2612"
    },
    {
      "channel": 2,
      "note": 58,
      "start": 18.2933,
      "duration": 0.7165,
      "velocity": 102,
      "chip": "ym2612"
    },
    {
      "channel": 3,
      "note": 62,
      "start": 18.2955,
      "duration": 1.4349,
      "velocity": 102,
      "chip": "ym2612"
    },
    {
      "channel": 5,
      "note": 21,
      "start": 18.2962,
      "duration": 0.4728,
      "velocity": 127,
      "chip": "ym2612"
    },
    {
      "channel": 5,
      "note": 21,
      "start": 18.7692,
      "duration": 0.4798,
      "velocity": 127,
      "chip": "ym2612"
    },
    {
      "channel": 0,
      "note": 57,
      "start": 19.0089,
      "duration": 0.7199,
      "velocity": 127,
      "chip": "ym2612"
    },
    {
      "channel": 1,
      "note": 57,
      "start": 19.0094,
      "duration": 0.7199,
      "velocity": 102,
      "chip": "ym2612"
    },
    {
      "channel": 2,
      "note": 60,
      "start": 19.01,
      "duration": 0.7199,
      "velocity": 102,
      "chip": "ym2612"
    },
    {
      "channel": 5,
      "note": 21,
      "start": 19.2492,
      "duration": 0.4819,
      "velocity": 127,
      "chip": "ym2612"
    },
    {
      "channel": 0,
      "note": 58,
      "start": 19.729,
      "duration": 0.6763,
      "velocity": 127,
      "chip": "ym2612"
    },
    {
      "channel": 1,
      "note": 58,
      "start": 19.7295,
      "duration": 0.6764,
      "velocity": 102,
      "chip": "ym2612"
    },
    {
      "channel": 2,
      "note": 61,
      "start": 19.73,
      "duration": 0.6763,
      "velocity": 102,
      "chip": "ym2612"
    },
    {
      "channel": 3,
      "note": 55,
      "start": 19.7306,
      "duration": 1.3964,
      "velocity": 102,
      "chip": "ym2612"
    },
    {
      "channel": 5,
      "note": 21,
      "start": 19.7313,
      "duration": 0.4343,
      "velocity": 127,
      "chip": "ym2612"
    },
    {
      "channel": 5,
      "note": 21,
      "start": 20.1657,
      "duration": 0.4798,
      "velocity": 127,
      "chip": "ym2612"
    },
    {
      "channel": 0,
      "note": 60,
      "start": 20.4055,
      "duration": 0.7199,
      "velocity": 127,
      "chip": "ym2612"
    },
    {
      "channel": 1,
      "note": 60,
      "start": 20.406,
      "duration": 0.7199,
      "velocity": 102,
      "chip": "ym2612"
    },
    {
      "channel": 2,
      "note": 63,
      "start": 20.4066,
      "duration": 0.72,
      "velocity": 102,
      "chip": "ym2612"
    },
    {
      "channel": 5,
      "note": 21,
      "start": 20.6457,
      "duration": 0.4819,
      "velocity": 127,
      "chip": "ym2612"
    },
    {
      "channel": 0,
      "note": 61,
      "start": 21.1255,
      "duration": 0.2398,
      "velocity": 127,
      "chip": "ym2612"
    },
    {
      "channel": 1,
      "note": 61,
      "start": 21.1261,
      "duration": 0.4582,
      "velocity": 102,
      "chip": "ym2612"
    },
    {
      "channel": 2,
      "note": 64,
      "start": 21.1266,
      "duration": 0.4583,
      "velocity": 102,
      "chip": "ym2612"
    },
    {
      "channel": 3,
      "note": 62,
      "start": 21.1272,
      "duration": 0.4582,
      "velocity": 102,
      "chip": "ym2612"
    },
    {
      "channel": 5,
      "note": 21,
      "start": 21.1278,
      "duration": 0.4582,
      "velocity": 127,
      "chip": "ym2612"
    },
    {
      "channel": 0,
      "note": 57,
      "start": 21.3655,
      "duration": 0.2183,
      "velocity": 127,
      "chip": "ym2612"
    },
    {
      "channel": 0,
      "note": 62,
      "start": 21.584,
      "duration": 0.2398,
      "velocity": 127,
      "chip": "ym2612"
    },
    {
      "channel": 1,
      "note": 62,
      "start": 21.5846,
      "duration": 0.4371,
      "velocity": 102,
      "chip": "ym2612"
    },
    {
      "channel": 2,
      "note": 65,
      "start": 21.5851,
      "duration": 0.4372,
      "velocity": 102,
      "chip": "ym2612"
    },
    {
      "channel": 3,
      "note": 56,
      "start": 21.5856,
      "duration": 2.5509,
      "velocity": 102,
      "chip": "ym2612"
    },
    {
      "channel": 5,
      "note": 21,
      "start": 21.5863,
      "duration": 0.4367,
      "velocity": 127,
      "chip": "ym2612"
    },
    {
      "channel": 0,
      "note": 74,
      "start": 21.8239,
      "duration": 0.1973,
      "velocity": 127,
      "chip": "ym2612"
    },
    {
      "channel": 0,
      "note": 56,
      "start": 22.0213,
      "duration": 0.7197,
      "velocity": 127,
      "chip": "ym2612"
    },
    {
      "channel": 1,
      "note": 51,
      "start": 22.0219,
      "duration": 1.874,
      "velocity": 102,
      "chip": "ym2612"
    },
    {
      "channel": 2,
      "note": 60,
      "start": 22.0225,
      "duration": 1.9935,
      "velocity": 102,
      "chip": "ym2612"
    },
    {
      "channel": 5,
      "note": 21,
      "start": 22.0232,
      "duration": 0.4782,
      "velocity": 127,
      "chip": "ym2612"
    },
    {
      "channel": 5,
      "note": 21,
      "start": 22.5016,
      "duration": 0.4798,
      "velocity": 127,
      "chip": "ym2612"
    },
    {
      "channel": 0,
      "note": 44,
      "start": 22.7413,
      "duration": 0.7199,
      "velocity": 127,
      "chip": "ym2612"
    },
    {
      "channel": 5,
      "note": 21,
      "start": 22.9816,
      "duration": 0.4804,
      "velocity": 127,
      "chip": "ym2612"
    },
    {
      "channel": 0,
      "note": 56,
      "start": 23.4613,
      "duration": 0.6745,
      "velocity": 127,
      "chip": "ym2612"
    },
    {
      "channel": 5,
      "note": 21,
      "start": 23.4621,
      "duration": 0.4346,
      "velocity": 127,
      "chip": "ym2612"
    },
    {
      "channel": 1,
      "note": 50,
      "start": 23.896,
      "duration": 0.9604,
      "velocity": 102,
      "chip": "ym2612"
    },
    {
      "channel": 5,
      "note": 21,
      "start": 23.8968,
      "duration": 0.4793,
      "velocity": 127,
      "chip": "ym2612"
    },
    {
      "channel": 2,
      "note": 54,
      "start": 24.0161,
      "duration": 0.8409,
      "velocity": 102,
      "chip": "ym2612"
    },
    {
      "channel": 0,
      "note": 44,
      "start": 24.136,
      "duration": 0.7199,
      "velocity": 127,
      "chip": "ym2612"
    },
    {
      "channel": 3,
      "note": 58,
      "start": 24.1367,
      "duration": 0.7208,
      "velocity": 102,
      "chip": "ym2612"
    },
    {
      "channel": 5,
      "note": 21,
      "start": 24.3763,
      "duration": 0.4819,
      "velocity": 127,
      "chip": "ym2612"
    },
    {
      "channel": 0,
      "note": 62,
      "start": 24.8561,
      "duration": 0.4574,
      "velocity": 127,
      "chip": "ym2612"
    },
    {
      "channel": 1,
      "note": 57,
      "start": 24.8566,
      "duration": 1.1351,
      "velocity": 90,
      "chip": "ym2612"
    },
    {
      "channel": 2,
      "note": 54,
      "start": 24.8571,
      "duration": 0.8948,
      "velocity": 102,
      "chip": "ym2612"
    },
    {
      "channel": 3,
      "note": 50,
      "start": 24.8577,
      "duration": 0.8949,
      "velocity": 102,
      "chip": "ym2612"
    },
    {
      "channel": 5,
      "note": 21,
      "start": 24.8584,
      "duration": 0.4559,
      "velocity": 127,
      "chip": "ym2612"
    },
    {
      "channel": 0,
      "note": 60,
      "start": 25.3137,
      "duration": 0.1198,
      "velocity": 127,
      "chip": "ym2612"
    },
    {
      "channel": 5,
      "note": 21,
      "start": 25.3144,
      "duration": 0.4388,
      "velocity": 127,
      "chip": "ym2612"
    },
    {
      "channel": 0,
      "note": 61,
      "start": 25.4337,
      "duration": 0.1198,
      "velocity": 127,
      "chip": "ym2612"
    },
    {
      "channel": 0,
      "note": 62,
      "start": 25.5536,
      "duration": 0.1977,
      "velocity": 101,
      "chip": "ym2612"
    },
    {
      "channel": 0,
      "note": 50,
      "start": 25.7515,
      "duration": 0.2381,
      "velocity": 101,
      "chip": "ym2612"
    },
    {
      "channel": 2,
      "note": 50,
      "start": 25.7522,
      "duration": 1.6028,
      "velocity": 102,
      "chip": "ym2612"
    },
    {
      "channel": 3,
      "note": 50,
      "start": 25.7527,
      "duration": 1.6023,
      "velocity": 102,
      "chip": "ym2612"
    },
    {
      "channel": 5,
      "note": 21,
      "start": 25.7534,
      "duration": 1.6016,
      "velocity": 127,
      "chip": "ym2612"
    },
    {
      "channel": 0,
      "note": 50,
      "start": 25.9898,
      "duration": 1.3653,
      "velocity": 101,
      "chip": "ym2612"
    },
    {
      "channel": 1,
      "note": 50,
      "start": 25.9919,
      "duration": 0.1177,
      "velocity": 90,
      "chip": "ym2612"
    },
    {
      "channel": 1,
      "note": 51,
      "start": 26.1098,
      "duration": 1.2453,
      "velocity": 90,
      "chip": "ym2612"
    }
  ]
}