{
  "track_name": "12 - You Got a High Score!",
  "duration_sec": 17.826,
  "sample_rate": 44100,
  "note_count": 87,
  "unique_pitches": 20,
  "pitch_range": 50,
  "avg_note_duration": 0.8638,
  "reconstruction_stats": {
    "notes_reconstructed": 87,
    "keyon_events": 87,
    "keyoff_events": 87,
    "orphan_keyons": 0,
    "unique_pitches": 20,
    "pitch_range": 50,
    "avg_duration_sec": 0.8638
  },
  "metadata": {
    "source": "D\\Dragon - The Bruce Lee Story\\12 - You Got a High Score!.vgz"
  },
  "notes": [
    {
      "channel": 5,
      "note": 67,
      "start": 0.0065,
      "duration": 1.8463,
      "velocity": 101,
      "chip": "ym2612"
    },
    {
      "channel": 0,
      "note": 71,
      "start": 0.0105,
      "duration": 1.7588,
      "velocity": 101,
      "chip": "ym2612"
    },
    {
      "channel": 1,
      "note": 45,
      "start": 0.0151,
      "duration": 0.3358,
      "velocity": 125,
      "chip": "ym2612"
    },
    {
      "channel": 4,
      "note": 67,
      "start": 0.0218,
      "duration": 1.8143,
      "velocity": 110,
      "chip": "ym2612"
    },
    {
      "channel": 3,
      "note": 95,
      "start": 0.0274,
      "duration": 1.9589,
      "velocity": 114,
      "chip": "ym2612"
    },
    {
      "channel": 1,
      "note": 45,
      "start": 0.7383,
      "duration": 0.1132,
      "velocity": 125,
      "chip": "ym2612"
    },
    {
      "channel": 1,
      "note": 45,
      "start": 0.9886,
      "duration": 0.2634,
      "velocity": 125,
      "chip": "ym2612"
    },
    {
      "channel": 0,
      "note": 69,
      "start": 1.9906,
      "duration": 1.8312,
      "velocity": 101,
      "chip": "ym2612"
    },
    {
      "channel": 5,
      "note": 66,
      "start": 1.9945,
      "duration": 1.9612,
      "velocity": 101,
      "chip": "ym2612"
    },
    {
      "channel": 1,
      "note": 45,
      "start": 1.9981,
      "duration": 0.4054,
      "velocity": 125,
      "chip": "ym2612"
    },
    {
      "channel": 4,
      "note": 66,
      "start": 2.0014,
      "duration": 1.8373,
      "velocity": 110,
      "chip": "ym2612"
    },
    {
      "channel": 3,
      "note": 93,
      "start": 2.0049,
      "duration": 0.9159,
      "velocity": 114,
      "chip": "ym2612"
    },
    {
      "channel": 1,
      "note": 45,
      "start": 2.7242,
      "duration": 0.0965,
      "velocity": 125,
      "chip": "ym2612"
    },
    {
      "channel": 1,
      "note": 45,
      "start": 2.9745,
      "duration": 0.4137,
      "velocity": 125,
      "chip": "ym2612"
    },
    {
      "channel": 3,
      "note": 90,
      "start": 2.9777,
      "duration": 0.9278,
      "velocity": 114,
      "chip": "ym2612"
    },
    {
      "channel": 0,
      "note": 64,
      "start": 3.9595,
      "duration": 1.8983,
      "velocity": 101,
      "chip": "ym2612"
    },
    {
      "channel": 5,
      "note": 67,
      "start": 3.9634,
      "duration": 1.9781,
      "velocity": 101,
      "chip": "ym2612"
    },
    {
      "channel": 1,
      "note": 45,
      "start": 3.9666,
      "duration": 0.5897,
      "velocity": 125,
      "chip": "ym2612"
    },
    {
      "channel": 4,
      "note": 64,
      "start": 3.9703,
      "duration": 1.8711,
      "velocity": 110,
      "chip": "ym2612"
    },
    {
      "channel": 3,
      "note": 88,
      "start": 3.9745,
      "duration": 1.4496,
      "velocity": 114,
      "chip": "ym2612"
    },
    {
      "channel": 1,
      "note": 45,
      "start": 4.7101,
      "duration": 0.0965,
      "velocity": 125,
      "chip": "ym2612"
    },
    {
      "channel": 1,
      "note": 45,
      "start": 4.9607,
      "duration": 0.6303,
      "velocity": 125,
      "chip": "ym2612"
    },
    {
      "channel": 3,
      "note": 86,
      "start": 5.4446,
      "duration": 0.43,
      "velocity": 114,
      "chip": "ym2612"
    },
    {
      "channel": 0,
      "note": 66,
      "start": 5.9458,
      "duration": 1.731,
      "velocity": 101,
      "chip": "ym2612"
    },
    {
      "channel": 5,
      "note": 62,
      "start": 5.9494,
      "duration": 1.7277,
      "velocity": 101,
      "chip": "ym2612"
    },
    {
      "channel": 1,
      "note": 45,
      "start": 5.9526,
      "duration": 0.5896,
      "velocity": 125,
      "chip": "ym2612"
    },
    {
      "channel": 4,
      "note": 62,
      "start": 5.9559,
      "duration": 1.8048,
      "velocity": 110,
      "chip": "ym2612"
    },
    {
      "channel": 3,
      "note": 83,
      "start": 5.9594,
      "duration": 0.2657,
      "velocity": 114,
      "chip": "ym2612"
    },
    {
      "channel": 2,
      "note": 81,
      "start": 6.1957,
      "duration": 0.1297,
      "velocity": 114,
      "chip": "ym2612"
    },
    {
      "channel": 3,
      "note": 81,
      "start": 6.4459,
      "duration": 0.8639,
      "velocity": 114,
      "chip": "ym2612"
    },
    {
      "channel": 1,
      "note": 45,
      "start": 6.6793,
      "duration": 0.1132,
      "velocity": 125,
      "chip": "ym2612"
    },
    {
      "channel": 1,
      "note": 45,
      "start": 6.9296,
      "duration": 0.5138,
      "velocity": 125,
      "chip": "ym2612"
    },
    {
      "channel": 3,
      "note": 83,
      "start": 7.4643,
      "duration": 0.2962,
      "velocity": 114,
      "chip": "ym2612"
    },
    {
      "channel": 1,
      "note": 45,
      "start": 7.6807,
      "duration": 0.1464,
      "velocity": 125,
      "chip": "ym2612"
    },
    {
      "channel": 2,
      "note": 85,
      "start": 7.7477,
      "duration": 0.0797,
      "velocity": 114,
      "chip": "ym2612"
    },
    {
      "channel": 3,
      "note": 86,
      "start": 7.7977,
      "duration": 0.0462,
      "velocity": 114,
      "chip": "ym2612"
    },
    {
      "channel": 3,
      "note": 88,
      "start": 7.8477,
      "duration": 0.0296,
      "velocity": 114,
      "chip": "ym2612"
    },
    {
      "channel": 2,
      "note": 90,
      "start": 7.8646,
      "duration": 0.0629,
      "velocity": 114,
      "chip": "ym2612"
    },
    {
      "channel": 3,
      "note": 92,
      "start": 7.8975,
      "duration": 0.0632,
      "velocity": 114,
      "chip": "ym2612"
    },
    {
      "channel": 0,
      "note": 71,
      "start": 7.9313,
      "duration": 1.8482,
      "velocity": 101,
      "chip": "ym2612"
    },
    {
      "channel": 5,
      "note": 67,
      "start": 7.9352,
      "duration": 1.878,
      "velocity": 101,
      "chip": "ym2612"
    },
    {
      "channel": 1,
      "note": 45,
      "start": 7.9384,
      "duration": 0.3394,
      "velocity": 125,
      "chip": "ym2612"
    },
    {
      "channel": 4,
      "note": 55,
      "start": 7.9435,
      "duration": 1.8195,
      "velocity": 110,
      "chip": "ym2612"
    },
    {
      "channel": 2,
      "note": 93,
      "start": 7.949,
      "duration": 0.062,
      "velocity": 114,
      "chip": "ym2612"
    },
    {
      "channel": 3,
      "note": 95,
      "start": 7.9819,
      "duration": 1.3805,
      "velocity": 114,
      "chip": "ym2612"
    },
    {
      "channel": 1,
      "note": 45,
      "start": 8.6652,
      "duration": 0.0965,
      "velocity": 125,
      "chip": "ym2612"
    },
    {
      "channel": 1,
      "note": 45,
      "start": 8.9155,
      "duration": 0.28,
      "velocity": 125,
      "chip": "ym2612"
    },
    {
      "channel": 3,
      "note": 93,
      "start": 9.4332,
      "duration": 0.3632,
      "velocity": 114,
      "chip": "ym2612"
    },
    {
      "channel": 0,
      "note": 69,
      "start": 9.9008,
      "duration": 1.798,
      "velocity": 101,
      "chip": "ym2612"
    },
    {
      "channel": 5,
      "note": 66,
      "start": 9.9043,
      "duration": 1.7947,
      "velocity": 101,
      "chip": "ym2612"
    },
    {
      "channel": 1,
      "note": 45,
      "start": 9.9075,
      "duration": 0.4228,
      "velocity": 125,
      "chip": "ym2612"
    },
    {
      "channel": 4,
      "note": 62,
      "start": 9.9108,
      "duration": 1.8548,
      "velocity": 110,
      "chip": "ym2612"
    },
    {
      "channel": 3,
      "note": 90,
      "start": 9.9505,
      "duration": 0.9808,
      "velocity": 114,
      "chip": "ym2612"
    },
    {
      "channel": 1,
      "note": 45,
      "start": 10.6511,
      "duration": 0.0965,
      "velocity": 125,
      "chip": "ym2612"
    },
    {
      "channel": 1,
      "note": 45,
      "start": 10.9017,
      "duration": 0.4132,
      "velocity": 125,
      "chip": "ym2612"
    },
    {
      "channel": 2,
      "note": 88,
      "start": 10.9053,
      "duration": 0.7939,
      "velocity": 114,
      "chip": "ym2612"
    },
    {
      "channel": 3,
      "note": 88,
      "start": 11.7699,
      "duration": 0.0458,
      "velocity": 114,
      "chip": "ym2612"
    },
    {
      "channel": 3,
      "note": 89,
      "start": 11.8195,
      "duration": 0.0629,
      "velocity": 114,
      "chip": "ym2612"
    },
    {
      "channel": 0,
      "note": 67,
      "start": 11.8863,
      "duration": 1.9652,
      "velocity": 101,
      "chip": "ym2612"
    },
    {
      "channel": 5,
      "note": 64,
      "start": 11.8899,
      "duration": 1.9619,
      "velocity": 101,
      "chip": "ym2612"
    },
    {
      "channel": 1,
      "note": 45,
      "start": 11.8931,
      "duration": 0.5734,
      "velocity": 125,
      "chip": "ym2612"
    },
    {
      "channel": 4,
      "note": 64,
      "start": 11.8964,
      "duration": 1.8718,
      "velocity": 110,
      "chip": "ym2612"
    },
    {
      "channel": 3,
      "note": 90,
      "start": 11.9366,
      "duration": 1.3476,
      "velocity": 114,
      "chip": "ym2612"
    },
    {
      "channel": 1,
      "note": 45,
      "start": 12.637,
      "duration": 0.0965,
      "velocity": 125,
      "chip": "ym2612"
    },
    {
      "channel": 1,
      "note": 45,
      "start": 12.8873,
      "duration": 0.6305,
      "velocity": 125,
      "chip": "ym2612"
    },
    {
      "channel": 3,
      "note": 88,
      "start": 13.3548,
      "duration": 0.3467,
      "velocity": 114,
      "chip": "ym2612"
    },
    {
      "channel": 0,
      "note": 66,
      "start": 13.8726,
      "duration": 1.6311,
      "velocity": 101,
      "chip": "ym2612"
    },
    {
      "channel": 5,
      "note": 62,
      "start": 13.8762,
      "duration": 1.6278,
      "velocity": 101,
      "chip": "ym2612"
    },
    {
      "channel": 1,
      "note": 45,
      "start": 13.8794,
      "duration": 0.5896,
      "velocity": 125,
      "chip": "ym2612"
    },
    {
      "channel": 4,
      "note": 62,
      "start": 13.8833,
      "duration": 1.6371,
      "velocity": 110,
      "chip": "ym2612"
    },
    {
      "channel": 3,
      "note": 88,
      "start": 13.8869,
      "duration": 0.2317,
      "velocity": 114,
      "chip": "ym2612"
    },
    {
      "channel": 3,
      "note": 90,
      "start": 14.1224,
      "duration": 0.1298,
      "velocity": 114,
      "chip": "ym2612"
    },
    {
      "channel": 3,
      "note": 90,
      "start": 14.3731,
      "duration": 1.2307,
      "velocity": 114,
      "chip": "ym2612"
    },
    {
      "channel": 1,
      "note": 45,
      "start": 14.6066,
      "duration": 0.1128,
      "velocity": 125,
      "chip": "ym2612"
    },
    {
      "channel": 1,
      "note": 45,
      "start": 14.8565,
      "duration": 0.5137,
      "velocity": 125,
      "chip": "ym2612"
    },
    {
      "channel": 1,
      "note": 45,
      "start": 15.6074,
      "duration": 0.13,
      "velocity": 125,
      "chip": "ym2612"
    },
    {
      "channel": 3,
      "note": 91,
      "start": 15.6107,
      "duration": 0.0432,
      "velocity": 114,
      "chip": "ym2612"
    },
    {
      "channel": 3,
      "note": 92,
      "start": 15.6574,
      "duration": 0.0633,
      "velocity": 114,
      "chip": "ym2612"
    },
    {
      "channel": 3,
      "note": 93,
      "start": 15.7242,
      "duration": 0.0632,
      "velocity": 114,
      "chip": "ym2612"
    },
    {
      "channel": 3,
      "note": 94,
      "start": 15.7909,
      "duration": 0.0632,
      "velocity": 114,
      "chip": "ym2612"
    },
    {
      "channel": 4,
      "note": 45,
      "start": 15.8614,
      "duration": 0.3433,
      "velocity": 125,
      "chip": "ym2612"
    },
    {
      "channel": 2,
      "note": 67,
      "start": 15.868,
      "duration": 1.822,
      "velocity": 110,
      "chip": "ym2612"
    },
    {
      "channel": 0,
      "note": 95,
      "start": 15.8741,
      "duration": 1.9493,
      "velocity": 114,
      "chip": "ym2612"
    },
    {
      "channel": 5,
      "note": 67,
      "start": 15.8816,
      "duration": 1.8418,
      "velocity": 101,
      "chip": "ym2612"
    },
    {
      "channel": 1,
      "note": 71,
      "start": 15.8855,
      "duration": 1.7542,
      "velocity": 101,
      "chip": "ym2612"
    },
    {
      "channel": 4,
      "note": 45,
      "start": 16.5921,
      "duration": 0.0966,
      "velocity": 125,
      "chip": "ym2612"
    },
    {
      "channel": 4,
      "note": 45,
      "start": 16.8425,
      "duration": 0.2633,
      "velocity": 125,
      "chip": "ym2612"
    }
  ]
}