{
  "track_name": "12 - Final Boss Part 2",
  "duration_sec": 97.108,
  "sample_rate": 44100,
  "note_count": 220,
  "unique_pitches": 27,
  "pitch_range": 28,
  "avg_note_duration": 1.943,
  "reconstruction_stats": {
    "notes_reconstructed": 220,
    "keyon_events": 220,
    "keyoff_events": 216,
    "orphan_keyons": 4,
    "unique_pitches": 27,
    "pitch_range": 28,
    "avg_duration_sec": 1.943
  },
  "metadata": {
    "source": "D\\Double Dragon II - The Revenge\\12 - Final Boss Part 2.vgm"
  },
  "notes": [
    {
      "channel": 0,
      "note": 49,
      "start": 0.0,
      "duration": 2.3436,
      "velocity": 118,
      "chip": "ym2612"
    },
    {
      "channel": 1,
      "note": 42,
      "start": 0.0,
      "duration": 2.3439,
      "velocity": 118,
      "chip": "ym2612"
    },
    {
      "channel": 2,
      "note": 49,
      "start": 0.2853,
      "duration": 2.3548,
      "velocity": 118,
      "chip": "ym2612"
    },
    {
      "channel": 5,
      "note": 49,
      "start": 0.5831,
      "duration": 2.3548,
      "velocity": 118,
      "chip": "ym2612"
    },
    {
      "channel": 0,
      "note": 57,
      "start": 2.3561,
      "duration": 2.3565,
      "velocity": 118,
      "chip": "ym2612"
    },
    {
      "channel": 1,
      "note": 45,
      "start": 2.3567,
      "duration": 2.3561,
      "velocity": 118,
      "chip": "ym2612"
    },
    {
      "channel": 2,
      "note": 57,
      "start": 2.6527,
      "duration": 2.3565,
      "velocity": 118,
      "chip": "ym2612"
    },
    {
      "channel": 5,
      "note": 57,
      "start": 2.9505,
      "duration": 2.3566,
      "velocity": 118,
      "chip": "ym2612"
    },
    {
      "channel": 0,
      "note": 50,
      "start": 4.7252,
      "duration": 2.3565,
      "velocity": 118,
      "chip": "ym2612"
    },
    {
      "channel": 1,
      "note": 47,
      "start": 4.7258,
      "duration": 2.3562,
      "velocity": 118,
      "chip": "ym2612"
    },
    {
      "channel": 3,
      "note": 38,
      "start": 4.7279,
      "duration": 0.5786,
      "velocity": 124,
      "chip": "ym2612"
    },
    {
      "channel": 2,
      "note": 50,
      "start": 5.0218,
      "duration": 2.3565,
      "velocity": 118,
      "chip": "ym2612"
    },
    {
      "channel": 4,
      "note": 38,
      "start": 5.0236,
      "duration": 0.5793,
      "velocity": 124,
      "chip": "ym2612"
    },
    {
      "channel": 3,
      "note": 41,
      "start": 5.319,
      "duration": 0.5797,
      "velocity": 124,
      "chip": "ym2612"
    },
    {
      "channel": 5,
      "note": 50,
      "start": 5.3199,
      "duration": 2.3562,
      "velocity": 118,
      "chip": "ym2612"
    },
    {
      "channel": 4,
      "note": 41,
      "start": 5.6154,
      "duration": 0.5801,
      "velocity": 124,
      "chip": "ym2612"
    },
    {
      "channel": 3,
      "note": 40,
      "start": 5.9117,
      "duration": 0.2836,
      "velocity": 124,
      "chip": "ym2612"
    },
    {
      "channel": 3,
      "note": 44,
      "start": 6.2075,
      "duration": 0.5797,
      "velocity": 124,
      "chip": "ym2612"
    },
    {
      "channel": 4,
      "note": 40,
      "start": 6.208,
      "duration": 0.2833,
      "velocity": 124,
      "chip": "ym2612"
    },
    {
      "channel": 4,
      "note": 44,
      "start": 6.5038,
      "duration": 0.5798,
      "velocity": 124,
      "chip": "ym2612"
    },
    {
      "channel": 3,
      "note": 43,
      "start": 6.7998,
      "duration": 1.7642,
      "velocity": 124,
      "chip": "ym2612"
    },
    {
      "channel": 0,
      "note": 50,
      "start": 7.0942,
      "duration": 2.3566,
      "velocity": 118,
      "chip": "ym2612"
    },
    {
      "channel": 1,
      "note": 47,
      "start": 7.0948,
      "duration": 2.3563,
      "velocity": 118,
      "chip": "ym2612"
    },
    {
      "channel": 4,
      "note": 43,
      "start": 7.097,
      "duration": 1.7637,
      "velocity": 124,
      "chip": "ym2612"
    },
    {
      "channel": 2,
      "note": 50,
      "start": 7.3909,
      "duration": 2.3566,
      "velocity": 118,
      "chip": "ym2612"
    },
    {
      "channel": 5,
      "note": 50,
      "start": 7.6886,
      "duration": 2.357,
      "velocity": 118,
      "chip": "ym2612"
    },
    {
      "channel": 3,
      "note": 42,
      "start": 8.5769,
      "duration": 0.8756,
      "velocity": 124,
      "chip": "ym2612"
    },
    {
      "channel": 4,
      "note": 42,
      "start": 8.873,
      "duration": 0.8759,
      "velocity": 124,
      "chip": "ym2612"
    },
    {
      "channel": 0,
      "note": 50,
      "start": 9.4634,
      "duration": 2.3566,
      "velocity": 118,
      "chip": "ym2612"
    },
    {
      "channel": 1,
      "note": 52,
      "start": 9.4639,
      "duration": 2.3562,
      "velocity": 118,
      "chip": "ym2612"
    },
    {
      "channel": 3,
      "note": 38,
      "start": 9.4657,
      "duration": 0.5795,
      "velocity": 124,
      "chip": "ym2612"
    },
    {
      "channel": 2,
      "note": 50,
      "start": 9.7603,
      "duration": 2.3562,
      "velocity": 118,
      "chip": "ym2612"
    },
    {
      "channel": 4,
      "note": 38,
      "start": 9.7621,
      "duration": 0.579,
      "velocity": 124,
      "chip": "ym2612"
    },
    {
      "channel": 5,
      "note": 50,
      "start": 10.0579,
      "duration": 2.3564,
      "velocity": 118,
      "chip": "ym2612"
    },
    {
      "channel": 0,
      "note": 54,
      "start": 11.8324,
      "duration": 2.3566,
      "velocity": 118,
      "chip": "ym2612"
    },
    {
      "channel": 1,
      "note": 54,
      "start": 11.833,
      "duration": 2.3563,
      "velocity": 118,
      "chip": "ym2612"
    },
    {
      "channel": 2,
      "note": 54,
      "start": 12.1291,
      "duration": 2.3566,
      "velocity": 118,
      "chip": "ym2612"
    },
    {
      "channel": 5,
      "note": 54,
      "start": 12.4272,
      "duration": 2.3562,
      "velocity": 118,
      "chip": "ym2612"
    },
    {
      "channel": 0,
      "note": 50,
      "start": 14.2016,
      "duration": 2.3566,
      "velocity": 118,
      "chip": "ym2612"
    },
    {
      "channel": 1,
      "note": 44,
      "start": 14.2022,
      "duration": 2.3562,
      "velocity": 118,
      "chip": "ym2612"
    },
    {
      "channel": 2,
      "note": 50,
      "start": 14.4982,
      "duration": 2.3566,
      "velocity": 118,
      "chip": "ym2612"
    },
    {
      "channel": 5,
      "note": 50,
      "start": 14.7961,
      "duration": 2.3565,
      "velocity": 118,
      "chip": "ym2612"
    },
    {
      "channel": 0,
      "note": 52,
      "start": 16.5707,
      "duration": 2.3566,
      "velocity": 118,
      "chip": "ym2612"
    },
    {
      "channel": 1,
      "note": 47,
      "start": 16.5713,
      "duration": 2.3562,
      "velocity": 118,
      "chip": "ym2612"
    },
    {
      "channel": 2,
      "note": 52,
      "start": 16.8673,
      "duration": 2.3566,
      "velocity": 118,
      "chip": "ym2612"
    },
    {
      "channel": 5,
      "note": 52,
      "start": 17.1651,
      "duration": 2.3566,
      "velocity": 118,
      "chip": "ym2612"
    },
    {
      "channel": 0,
      "note": 50,
      "start": 18.9398,
      "duration": 2.3566,
      "velocity": 118,
      "chip": "ym2612"
    },
    {
      "channel": 1,
      "note": 54,
      "start": 18.9404,
      "duration": 2.3562,
      "velocity": 118,
      "chip": "ym2612"
    },
    {
      "channel": 2,
      "note": 50,
      "start": 19.2364,
      "duration": 2.3569,
      "velocity": 118,
      "chip": "ym2612"
    },
    {
      "channel": 5,
      "note": 50,
      "start": 19.5342,
      "duration": 2.3566,
      "velocity": 118,
      "chip": "ym2612"
    },
    {
      "channel": 0,
      "note": 56,
      "start": 21.3089,
      "duration": 2.3566,
      "velocity": 118,
      "chip": "ym2612"
    },
    {
      "channel": 1,
      "note": 50,
      "start": 21.3095,
      "duration": 2.3563,
      "velocity": 118,
      "chip": "ym2612"
    },
    {
      "channel": 2,
      "note": 56,
      "start": 21.6056,
      "duration": 2.3566,
      "velocity": 118,
      "chip": "ym2612"
    },
    {
      "channel": 5,
      "note": 56,
      "start": 21.9033,
      "duration": 2.3569,
      "velocity": 118,
      "chip": "ym2612"
    },
    {
      "channel": 0,
      "note": 52,
      "start": 23.6782,
      "duration": 2.3564,
      "velocity": 118,
      "chip": "ym2612"
    },
    {
      "channel": 1,
      "note": 45,
      "start": 23.679,
      "duration": 2.3559,
      "velocity": 118,
      "chip": "ym2612"
    },
    {
      "channel": 2,
      "note": 52,
      "start": 23.9748,
      "duration": 2.3564,
      "velocity": 118,
      "chip": "ym2612"
    },
    {
      "channel": 5,
      "note": 52,
      "start": 24.2725,
      "duration": 2.3565,
      "velocity": 118,
      "chip": "ym2612"
    },
    {
      "channel": 0,
      "note": 60,
      "start": 26.0472,
      "duration": 2.3565,
      "velocity": 118,
      "chip": "ym2612"
    },
    {
      "channel": 1,
      "note": 48,
      "start": 26.0478,
      "duration": 2.3561,
      "velocity": 118,
      "chip": "ym2612"
    },
    {
      "channel": 2,
      "note": 60,
      "start": 26.3442,
      "duration": 2.3561,
      "velocity": 118,
      "chip": "ym2612"
    },
    {
      "channel": 5,
      "note": 60,
      "start": 26.6416,
      "duration": 2.3566,
      "velocity": 118,
      "chip": "ym2612"
    },
    {
      "channel": 0,
      "note": 53,
      "start": 28.4163,
      "duration": 2.3566,
      "velocity": 118,
      "chip": "ym2612"
    },
    {
      "channel": 1,
      "note": 50,
      "start": 28.4169,
      "duration": 2.3562,
      "velocity": 118,
      "chip": "ym2612"
    },
    {
      "channel": 3,
      "note": 41,
      "start": 28.4187,
      "duration": 0.579,
      "velocity": 124,
      "chip": "ym2612"
    },
    {
      "channel": 2,
      "note": 53,
      "start": 28.7129,
      "duration": 2.3566,
      "velocity": 118,
      "chip": "ym2612"
    },
    {
      "channel": 4,
      "note": 41,
      "start": 28.7147,
      "duration": 0.5796,
      "velocity": 124,
      "chip": "ym2612"
    },
    {
      "channel": 3,
      "note": 44,
      "start": 29.0106,
      "duration": 0.5793,
      "velocity": 124,
      "chip": "ym2612"
    },
    {
      "channel": 5,
      "note": 53,
      "start": 29.0114,
      "duration": 2.3558,
      "velocity": 118,
      "chip": "ym2612"
    },
    {
      "channel": 4,
      "note": 44,
      "start": 29.3066,
      "duration": 0.5798,
      "velocity": 124,
      "chip": "ym2612"
    },
    {
      "channel": 3,
      "note": 43,
      "start": 29.6024,
      "duration": 0.2836,
      "velocity": 124,
      "chip": "ym2612"
    },
    {
      "channel": 3,
      "note": 47,
      "start": 29.8986,
      "duration": 0.5799,
      "velocity": 124,
      "chip": "ym2612"
    },
    {
      "channel": 4,
      "note": 43,
      "start": 29.8992,
      "duration": 0.2832,
      "velocity": 124,
      "chip": "ym2612"
    },
    {
      "channel": 4,
      "note": 47,
      "start": 30.1954,
      "duration": 0.5794,
      "velocity": 124,
      "chip": "ym2612"
    },
    {
      "channel": 3,
      "note": 46,
      "start": 30.4909,
      "duration": 1.7642,
      "velocity": 124,
      "chip": "ym2612"
    },
    {
      "channel": 0,
      "note": 53,
      "start": 30.7854,
      "duration": 2.3566,
      "velocity": 118,
      "chip": "ym2612"
    },
    {
      "channel": 1,
      "note": 50,
      "start": 30.786,
      "duration": 2.3562,
      "velocity": 118,
      "chip": "ym2612"
    },
    {
      "channel": 4,
      "note": 46,
      "start": 30.7882,
      "duration": 1.7634,
      "velocity": 124,
      "chip": "ym2612"
    },
    {
      "channel": 2,
      "note": 53,
      "start": 31.082,
      "duration": 2.3566,
      "velocity": 118,
      "chip": "ym2612"
    },
    {
      "channel": 5,
      "note": 53,
      "start": 31.3798,
      "duration": 2.3566,
      "velocity": 118,
      "chip": "ym2612"
    },
    {
      "channel": 3,
      "note": 45,
      "start": 32.2677,
      "duration": 0.8763,
      "velocity": 124,
      "chip": "ym2612"
    },
    {
      "channel": 4,
      "note": 45,
      "start": 32.5641,
      "duration": 0.8759,
      "velocity": 124,
      "chip": "ym2612"
    },
    {
      "channel": 0,
      "note": 53,
      "start": 33.1545,
      "duration": 2.3566,
      "velocity": 118,
      "chip": "ym2612"
    },
    {
      "channel": 1,
      "note": 55,
      "start": 33.155,
      "duration": 2.3563,
      "velocity": 118,
      "chip": "ym2612"
    },
    {
      "channel": 3,
      "note": 41,
      "start": 33.1568,
      "duration": 0.579,
      "velocity": 124,
      "chip": "ym2612"
    },
    {
      "channel": 2,
      "note": 53,
      "start": 33.4511,
      "duration": 2.3566,
      "velocity": 118,
      "chip": "ym2612"
    },
    {
      "channel": 4,
      "note": 41,
      "start": 33.4528,
      "duration": 0.5795,
      "velocity": 124,
      "chip": "ym2612"
    },
    {
      "channel": 5,
      "note": 53,
      "start": 33.7491,
      "duration": 2.3563,
      "velocity": 118,
      "chip": "ym2612"
    },
    {
      "channel": 0,
      "note": 57,
      "start": 35.5236,
      "duration": 2.3565,
      "velocity": 118,
      "chip": "ym2612"
    },
    {
      "channel": 1,
      "note": 57,
      "start": 35.5242,
      "duration": 2.3562,
      "velocity": 118,
      "chip": "ym2612"
    },
    {
      "channel": 2,
      "note": 57,
      "start": 35.8202,
      "duration": 2.3569,
      "velocity": 118,
      "chip": "ym2612"
    },
    {
      "channel": 5,
      "note": 57,
      "start": 36.118,
      "duration": 2.3566,
      "velocity": 118,
      "chip": "ym2612"
    },
    {
      "channel": 0,
      "note": 53,
      "start": 37.8927,
      "duration": 2.3566,
      "velocity": 118,
      "chip": "ym2612"
    },
    {
      "channel": 1,
      "note": 47,
      "start": 37.8937,
      "duration": 2.3559,
      "velocity": 118,
      "chip": "ym2612"
    },
    {
      "channel": 2,
      "note": 53,
      "start": 38.1893,
      "duration": 2.3566,
      "velocity": 118,
      "chip": "ym2612"
    },
    {
      "channel": 5,
      "note": 53,
      "start": 38.4871,
      "duration": 2.3569,
      "velocity": 118,
      "chip": "ym2612"
    },
    {
      "channel": 0,
      "note": 55,
      "start": 40.2619,
      "duration": 2.3565,
      "velocity": 118,
      "chip": "ym2612"
    },
    {
      "channel": 1,
      "note": 50,
      "start": 40.2625,
      "duration": 2.3562,
      "velocity": 118,
      "chip": "ym2612"
    },
    {
      "channel": 2,
      "note": 55,
      "start": 40.5585,
      "duration": 2.3566,
      "velocity": 118,
      "chip": "ym2612"
    },
    {
      "channel": 5,
      "note": 55,
      "start": 40.8564,
      "duration": 2.3564,
      "velocity": 118,
      "chip": "ym2612"
    },
    {
      "channel": 0,
      "note": 53,
      "start": 42.6309,
      "duration": 2.3566,
      "velocity": 118,
      "chip": "ym2612"
    },
    {
      "channel": 1,
      "note": 57,
      "start": 42.6315,
      "duration": 2.3563,
      "velocity": 118,
      "chip": "ym2612"
    },
    {
      "channel": 2,
      "note": 53,
      "start": 42.9276,
      "duration": 2.3565,
      "velocity": 118,
      "chip": "ym2612"
    },
    {
      "channel": 5,
      "note": 53,
      "start": 43.2253,
      "duration": 2.3566,
      "velocity": 118,
      "chip": "ym2612"
    },
    {
      "channel": 0,
      "note": 59,
      "start": 45.0001,
      "duration": 2.3565,
      "velocity": 118,
      "chip": "ym2612"
    },
    {
      "channel": 1,
      "note": 53,
      "start": 45.0007,
      "duration": 2.3562,
      "velocity": 118,
      "chip": "ym2612"
    },
    {
      "channel": 2,
      "note": 59,
      "start": 45.2967,
      "duration": 2.3566,
      "velocity": 118,
      "chip": "ym2612"
    },
    {
      "channel": 5,
      "note": 59,
      "start": 45.5948,
      "duration": 2.3562,
      "velocity": 118,
      "chip": "ym2612"
    },
    {
      "channel": 0,
      "note": 55,
      "start": 47.3693,
      "duration": 2.3564,
      "velocity": 118,
      "chip": "ym2612"
    },
    {
      "channel": 1,
      "note": 48,
      "start": 47.3701,
      "duration": 2.3559,
      "velocity": 118,
      "chip": "ym2612"
    },
    {
      "channel": 2,
      "note": 55,
      "start": 47.6659,
      "duration": 2.3564,
      "velocity": 118,
      "chip": "ym2612"
    },
    {
      "channel": 5,
      "note": 55,
      "start": 47.9637,
      "duration": 2.3572,
      "velocity": 118,
      "chip": "ym2612"
    },
    {
      "channel": 0,
      "note": 63,
      "start": 49.7384,
      "duration": 2.3565,
      "velocity": 118,
      "chip": "ym2612"
    },
    {
      "channel": 1,
      "note": 51,
      "start": 49.739,
      "duration": 2.3561,
      "velocity": 118,
      "chip": "ym2612"
    },
    {
      "channel": 2,
      "note": 63,
      "start": 50.035,
      "duration": 2.3565,
      "velocity": 118,
      "chip": "ym2612"
    },
    {
      "channel": 5,
      "note": 63,
      "start": 50.3328,
      "duration": 2.3565,
      "velocity": 118,
      "chip": "ym2612"
    },
    {
      "channel": 0,
      "note": 56,
      "start": 52.1075,
      "duration": 2.3565,
      "velocity": 118,
      "chip": "ym2612"
    },
    {
      "channel": 1,
      "note": 53,
      "start": 52.108,
      "duration": 2.3562,
      "velocity": 118,
      "chip": "ym2612"
    },
    {
      "channel": 3,
      "note": 44,
      "start": 52.1101,
      "duration": 0.5787,
      "velocity": 124,
      "chip": "ym2612"
    },
    {
      "channel": 2,
      "note": 56,
      "start": 52.4041,
      "duration": 2.3567,
      "velocity": 118,
      "chip": "ym2612"
    },
    {
      "channel": 4,
      "note": 44,
      "start": 52.4058,
      "duration": 0.5793,
      "velocity": 124,
      "chip": "ym2612"
    },
    {
      "channel": 3,
      "note": 47,
      "start": 52.7014,
      "duration": 0.5797,
      "velocity": 124,
      "chip": "ym2612"
    },
    {
      "channel": 5,
      "note": 56,
      "start": 52.7022,
      "duration": 2.3562,
      "velocity": 118,
      "chip": "ym2612"
    },
    {
      "channel": 4,
      "note": 47,
      "start": 52.9977,
      "duration": 0.5801,
      "velocity": 124,
      "chip": "ym2612"
    },
    {
      "channel": 3,
      "note": 46,
      "start": 53.294,
      "duration": 0.2836,
      "velocity": 124,
      "chip": "ym2612"
    },
    {
      "channel": 3,
      "note": 50,
      "start": 53.5897,
      "duration": 0.5798,
      "velocity": 124,
      "chip": "ym2612"
    },
    {
      "channel": 4,
      "note": 46,
      "start": 53.5903,
      "duration": 0.2833,
      "velocity": 124,
      "chip": "ym2612"
    },
    {
      "channel": 4,
      "note": 50,
      "start": 53.8861,
      "duration": 0.5798,
      "velocity": 124,
      "chip": "ym2612"
    },
    {
      "channel": 3,
      "note": 49,
      "start": 54.182,
      "duration": 1.7643,
      "velocity": 124,
      "chip": "ym2612"
    },
    {
      "channel": 0,
      "note": 56,
      "start": 54.4769,
      "duration": 2.3562,
      "velocity": 118,
      "chip": "ym2612"
    },
    {
      "channel": 1,
      "note": 53,
      "start": 54.4774,
      "duration": 2.3559,
      "velocity": 118,
      "chip": "ym2612"
    },
    {
      "channel": 4,
      "note": 49,
      "start": 54.4797,
      "duration": 1.763,
      "velocity": 124,
      "chip": "ym2612"
    },
    {
      "channel": 2,
      "note": 56,
      "start": 54.7732,
      "duration": 2.3566,
      "velocity": 118,
      "chip": "ym2612"
    },
    {
      "channel": 5,
      "note": 56,
      "start": 55.0709,
      "duration": 2.357,
      "velocity": 118,
      "chip": "ym2612"
    },
    {
      "channel": 3,
      "note": 48,
      "start": 55.9589,
      "duration": 0.8759,
      "velocity": 124,
      "chip": "ym2612"
    },
    {
      "channel": 4,
      "note": 48,
      "start": 56.2552,
      "duration": 0.8759,
      "velocity": 124,
      "chip": "ym2612"
    },
    {
      "channel": 0,
      "note": 56,
      "start": 56.8456,
      "duration": 2.3566,
      "velocity": 118,
      "chip": "ym2612"
    },
    {
      "channel": 1,
      "note": 58,
      "start": 56.8462,
      "duration": 2.3563,
      "velocity": 118,
      "chip": "ym2612"
    },
    {
      "channel": 3,
      "note": 44,
      "start": 56.8479,
      "duration": 0.5795,
      "velocity": 124,
      "chip": "ym2612"
    },
    {
      "channel": 2,
      "note": 56,
      "start": 57.1422,
      "duration": 2.3566,
      "velocity": 118,
      "chip": "ym2612"
    },
    {
      "channel": 4,
      "note": 44,
      "start": 57.1444,
      "duration": 0.579,
      "velocity": 124,
      "chip": "ym2612"
    },
    {
      "channel": 5,
      "note": 56,
      "start": 57.4402,
      "duration": 2.3564,
      "velocity": 118,
      "chip": "ym2612"
    },
    {
      "channel": 0,
      "note": 60,
      "start": 59.2148,
      "duration": 2.3566,
      "velocity": 118,
      "chip": "ym2612"
    },
    {
      "channel": 1,
      "note": 60,
      "start": 59.2154,
      "duration": 2.3562,
      "velocity": 118,
      "chip": "ym2612"
    },
    {
      "channel": 2,
      "note": 60,
      "start": 59.5114,
      "duration": 2.3566,
      "velocity": 118,
      "chip": "ym2612"
    },
    {
      "channel": 5,
      "note": 60,
      "start": 59.8091,
      "duration": 2.3566,
      "velocity": 118,
      "chip": "ym2612"
    },
    {
      "channel": 0,
      "note": 56,
      "start": 61.5839,
      "duration": 2.3566,
      "velocity": 118,
      "chip": "ym2612"
    },
    {
      "channel": 1,
      "note": 50,
      "start": 61.5845,
      "duration": 2.3562,
      "velocity": 118,
      "chip": "ym2612"
    },
    {
      "channel": 2,
      "note": 56,
      "start": 61.8805,
      "duration": 2.3566,
      "velocity": 118,
      "chip": "ym2612"
    },
    {
      "channel": 5,
      "note": 56,
      "start": 62.1786,
      "duration": 2.3562,
      "velocity": 118,
      "chip": "ym2612"
    },
    {
      "channel": 0,
      "note": 58,
      "start": 63.953,
      "duration": 2.3566,
      "velocity": 118,
      "chip": "ym2612"
    },
    {
      "channel": 1,
      "note": 53,
      "start": 63.9537,
      "duration": 2.3565,
      "velocity": 118,
      "chip": "ym2612"
    },
    {
      "channel": 2,
      "note": 58,
      "start": 64.2496,
      "duration": 2.3565,
      "velocity": 118,
      "chip": "ym2612"
    },
    {
      "channel": 5,
      "note": 58,
      "start": 64.5473,
      "duration": 2.3566,
      "velocity": 118,
      "chip": "ym2612"
    },
    {
      "channel": 0,
      "note": 56,
      "start": 66.3221,
      "duration": 2.3566,
      "velocity": 118,
      "chip": "ym2612"
    },
    {
      "channel": 1,
      "note": 60,
      "start": 66.3227,
      "duration": 2.3563,
      "velocity": 118,
      "chip": "ym2612"
    },
    {
      "channel": 2,
      "note": 56,
      "start": 66.6187,
      "duration": 2.3566,
      "velocity": 118,
      "chip": "ym2612"
    },
    {
      "channel": 5,
      "note": 56,
      "start": 66.9165,
      "duration": 2.3566,
      "velocity": 118,
      "chip": "ym2612"
    },
    {
      "channel": 0,
      "note": 62,
      "start": 68.6912,
      "duration": 2.3566,
      "velocity": 118,
      "chip": "ym2612"
    },
    {
      "channel": 1,
      "note": 56,
      "start": 68.6918,
      "duration": 2.3562,
      "velocity": 118,
      "chip": "ym2612"
    },
    {
      "channel": 2,
      "note": 62,
      "start": 68.9878,
      "duration": 2.3566,
      "velocity": 118,
      "chip": "ym2612"
    },
    {
      "channel": 5,
      "note": 62,
      "start": 69.2856,
      "duration": 2.3566,
      "velocity": 118,
      "chip": "ym2612"
    },
    {
      "channel": 0,
      "note": 58,
      "start": 71.0606,
      "duration": 2.3562,
      "velocity": 118,
      "chip": "ym2612"
    },
    {
      "channel": 1,
      "note": 51,
      "start": 71.0614,
      "duration": 2.3558,
      "velocity": 118,
      "chip": "ym2612"
    },
    {
      "channel": 2,
      "note": 58,
      "start": 71.3571,
      "duration": 2.3564,
      "velocity": 118,
      "chip": "ym2612"
    },
    {
      "channel": 5,
      "note": 58,
      "start": 71.6549,
      "duration": 2.3568,
      "velocity": 118,
      "chip": "ym2612"
    },
    {
      "channel": 0,
      "note": 66,
      "start": 73.4295,
      "duration": 2.3565,
      "velocity": 118,
      "chip": "ym2612"
    },
    {
      "channel": 1,
      "note": 54,
      "start": 73.4302,
      "duration": 2.3561,
      "velocity": 118,
      "chip": "ym2612"
    },
    {
      "channel": 2,
      "note": 66,
      "start": 73.7261,
      "duration": 2.3566,
      "velocity": 118,
      "chip": "ym2612"
    },
    {
      "channel": 5,
      "note": 66,
      "start": 74.0239,
      "duration": 2.3566,
      "velocity": 118,
      "chip": "ym2612"
    },
    {
      "channel": 0,
      "note": 59,
      "start": 75.7986,
      "duration": 2.3565,
      "velocity": 118,
      "chip": "ym2612"
    },
    {
      "channel": 1,
      "note": 56,
      "start": 75.7992,
      "duration": 2.3562,
      "velocity": 118,
      "chip": "ym2612"
    },
    {
      "channel": 3,
      "note": 47,
      "start": 75.8009,
      "duration": 0.579,
      "velocity": 124,
      "chip": "ym2612"
    },
    {
      "channel": 2,
      "note": 59,
      "start": 76.0952,
      "duration": 2.3565,
      "velocity": 118,
      "chip": "ym2612"
    },
    {
      "channel": 4,
      "note": 47,
      "start": 76.097,
      "duration": 0.5796,
      "velocity": 124,
      "chip": "ym2612"
    },
    {
      "channel": 3,
      "note": 50,
      "start": 76.3924,
      "duration": 0.5798,
      "velocity": 124,
      "chip": "ym2612"
    },
    {
      "channel": 5,
      "note": 59,
      "start": 76.3937,
      "duration": 2.3558,
      "velocity": 118,
      "chip": "ym2612"
    },
    {
      "channel": 4,
      "note": 50,
      "start": 76.6889,
      "duration": 0.5797,
      "velocity": 124,
      "chip": "ym2612"
    },
    {
      "channel": 3,
      "note": 49,
      "start": 76.9847,
      "duration": 0.2836,
      "velocity": 124,
      "chip": "ym2612"
    },
    {
      "channel": 3,
      "note": 53,
      "start": 77.2809,
      "duration": 0.5802,
      "velocity": 124,
      "chip": "ym2612"
    },
    {
      "channel": 4,
      "note": 49,
      "start": 77.2815,
      "duration": 0.2833,
      "velocity": 124,
      "chip": "ym2612"
    },
    {
      "channel": 4,
      "note": 53,
      "start": 77.5776,
      "duration": 0.5795,
      "velocity": 124,
      "chip": "ym2612"
    },
    {
      "channel": 3,
      "note": 52,
      "start": 77.8732,
      "duration": 1.7643,
      "velocity": 124,
      "chip": "ym2612"
    },
    {
      "channel": 0,
      "note": 59,
      "start": 78.1676,
      "duration": 2.3566,
      "velocity": 118,
      "chip": "ym2612"
    },
    {
      "channel": 1,
      "note": 56,
      "start": 78.1682,
      "duration": 2.3563,
      "velocity": 118,
      "chip": "ym2612"
    },
    {
      "channel": 4,
      "note": 52,
      "start": 78.1704,
      "duration": 1.7634,
      "velocity": 124,
      "chip": "ym2612"
    },
    {
      "channel": 2,
      "note": 59,
      "start": 78.4643,
      "duration": 2.3566,
      "velocity": 118,
      "chip": "ym2612"
    },
    {
      "channel": 5,
      "note": 59,
      "start": 78.7624,
      "duration": 2.3562,
      "velocity": 118,
      "chip": "ym2612"
    },
    {
      "channel": 3,
      "note": 51,
      "start": 79.65,
      "duration": 0.8759,
      "velocity": 124,
      "chip": "ym2612"
    },
    {
      "channel": 4,
      "note": 51,
      "start": 79.9464,
      "duration": 0.8759,
      "velocity": 124,
      "chip": "ym2612"
    },
    {
      "channel": 0,
      "note": 59,
      "start": 80.5368,
      "duration": 2.3568,
      "velocity": 118,
      "chip": "ym2612"
    },
    {
      "channel": 1,
      "note": 61,
      "start": 80.5373,
      "duration": 2.3565,
      "velocity": 118,
      "chip": "ym2612"
    },
    {
      "channel": 3,
      "note": 47,
      "start": 80.5391,
      "duration": 0.5791,
      "velocity": 124,
      "chip": "ym2612"
    },
    {
      "channel": 2,
      "note": 59,
      "start": 80.8334,
      "duration": 2.3565,
      "velocity": 118,
      "chip": "ym2612"
    },
    {
      "channel": 4,
      "note": 47,
      "start": 80.8351,
      "duration": 0.5794,
      "velocity": 124,
      "chip": "ym2612"
    },
    {
      "channel": 5,
      "note": 59,
      "start": 81.1313,
      "duration": 2.3564,
      "velocity": 118,
      "chip": "ym2612"
    },
    {
      "channel": 0,
      "note": 63,
      "start": 82.9059,
      "duration": 2.3566,
      "velocity": 118,
      "chip": "ym2612"
    },
    {
      "channel": 1,
      "note": 63,
      "start": 82.9064,
      "duration": 2.3563,
      "velocity": 118,
      "chip": "ym2612"
    },
    {
      "channel": 2,
      "note": 63,
      "start": 83.2025,
      "duration": 2.3566,
      "velocity": 118,
      "chip": "ym2612"
    },
    {
      "channel": 5,
      "note": 63,
      "start": 83.5003,
      "duration": 2.3566,
      "velocity": 118,
      "chip": "ym2612"
    },
    {
      "channel": 0,
      "note": 59,
      "start": 85.275,
      "duration": 2.3566,
      "velocity": 118,
      "chip": "ym2612"
    },
    {
      "channel": 1,
      "note": 53,
      "start": 85.2756,
      "duration": 2.3562,
      "velocity": 118,
      "chip": "ym2612"
    },
    {
      "channel": 2,
      "note": 59,
      "start": 85.5717,
      "duration": 2.3565,
      "velocity": 118,
      "chip": "ym2612"
    },
    {
      "channel": 5,
      "note": 59,
      "start": 85.8694,
      "duration": 2.3566,
      "velocity": 118,
      "chip": "ym2612"
    },
    {
      "channel": 0,
      "note": 61,
      "start": 87.6442,
      "duration": 2.3565,
      "velocity": 118,
      "chip": "ym2612"
    },
    {
      "channel": 1,
      "note": 56,
      "start": 87.6448,
      "duration": 2.3562,
      "velocity": 118,
      "chip": "ym2612"
    },
    {
      "channel": 2,
      "note": 61,
      "start": 87.9407,
      "duration": 2.3566,
      "velocity": 118,
      "chip": "ym2612"
    },
    {
      "channel": 5,
      "note": 61,
      "start": 88.2385,
      "duration": 2.3569,
      "velocity": 118,
      "chip": "ym2612"
    },
    {
      "channel": 0,
      "note": 59,
      "start": 90.0132,
      "duration": 2.3566,
      "velocity": 118,
      "chip": "ym2612"
    },
    {
      "channel": 1,
      "note": 63,
      "start": 90.0138,
      "duration": 2.3562,
      "velocity": 118,
      "chip": "ym2612"
    },
    {
      "channel": 2,
      "note": 59,
      "start": 90.3102,
      "duration": 2.3562,
      "velocity": 118,
      "chip": "ym2612"
    },
    {
      "channel": 5,
      "note": 59,
      "start": 90.6076,
      "duration": 2.3566,
      "velocity": 118,
      "chip": "ym2612"
    },
    {
      "channel": 0,
      "note": 65,
      "start": 92.3823,
      "duration": 2.3566,
      "velocity": 118,
      "chip": "ym2612"
    },
    {
      "channel": 1,
      "note": 59,
      "start": 92.3829,
      "duration": 2.3563,
      "velocity": 118,
      "chip": "ym2612"
    },
    {
      "channel": 2,
      "note": 65,
      "start": 92.679,
      "duration": 2.3566,
      "velocity": 118,
      "chip": "ym2612"
    },
    {
      "channel": 5,
      "note": 65,
      "start": 92.9771,
      "duration": 2.3562,
      "velocity": 118,
      "chip": "ym2612"
    },
    {
      "channel": 0,
      "note": 49,
      "start": 94.7518,
      "duration": 2.3559,
      "velocity": 118,
      "chip": "ym2612"
    },
    {
      "channel": 1,
      "note": 42,
      "start": 94.7528,
      "duration": 2.3548,
      "velocity": 118,
      "chip": "ym2612"
    },
    {
      "channel": 2,
      "note": 49,
      "start": 95.0484,
      "duration": 2.0592,
      "velocity": 118,
      "chip": "ym2612"
    },
    {
      "channel": 5,
      "note": 49,
      "start": 95.3463,
      "duration": 1.7614,
      "velocity": 118,
      "chip": "ym2612"
    }
  ]
}