{
  "track_name": "12 - Shadow",
  "duration_sec": 62.149,
  "sample_rate": 44100,
  "note_count": 742,
  "unique_pitches": 37,
  "pitch_range": 69,
  "avg_note_duration": 0.3249,
  "reconstruction_stats": {
    "notes_reconstructed": 742,
    "keyon_events": 742,
    "keyoff_events": 622,
    "orphan_keyons": 5,
    "unique_pitches": 37,
    "pitch_range": 69,
    "avg_duration_sec": 0.3249
  },
  "metadata": {
    "source": "L\\Lemmings 2 ~ The Tribes\\12 - Shadow.vgz"
  },
  "notes": [
    {
      "channel": 0,
      "note": 54,
      "start": 0.0526,
      "duration": 0.4996,
      "velocity": 104,
      "chip": "ym2612"
    },
    {
      "channel": 1,
      "note": 54,
      "start": 0.1525,
      "duration": 0.1014,
      "velocity": 103,
      "chip": "ym2612"
    },
    {
      "channel": 1,
      "note": 54,
      "start": 0.254,
      "duration": 9.9853,
      "velocity": 119,
      "chip": "ym2612"
    },
    {
      "channel": 0,
      "note": 54,
      "start": 0.5524,
      "duration": 0.5998,
      "velocity": 104,
      "chip": "ym2612"
    },
    {
      "channel": 0,
      "note": 49,
      "start": 1.1524,
      "duration": 0.0982,
      "velocity": 104,
      "chip": "ym2612"
    },
    {
      "channel": 0,
      "note": 52,
      "start": 1.2508,
      "duration": 0.1998,
      "velocity": 104,
      "chip": "ym2612"
    },
    {
      "channel": 0,
      "note": 49,
      "start": 1.4508,
      "duration": 0.0998,
      "velocity": 104,
      "chip": "ym2612"
    },
    {
      "channel": 0,
      "note": 52,
      "start": 1.5508,
      "duration": 0.1998,
      "velocity": 104,
      "chip": "ym2612"
    },
    {
      "channel": 0,
      "note": 54,
      "start": 1.7508,
      "duration": 0.4014,
      "velocity": 104,
      "chip": "ym2612"
    },
    {
      "channel": 0,
      "note": 52,
      "start": 2.1524,
      "duration": 0.1986,
      "velocity": 104,
      "chip": "ym2612"
    },
    {
      "channel": 0,
      "note": 51,
      "start": 2.351,
      "duration": 0.016,
      "velocity": 104,
      "chip": "ym2612"
    },
    {
      "channel": 0,
      "note": 51,
      "start": 2.367,
      "duration": 0.0333,
      "velocity": 104,
      "chip": "ym2612"
    },
    {
      "channel": 0,
      "note": 50,
      "start": 2.4003,
      "duration": 0.0167,
      "velocity": 104,
      "chip": "ym2612"
    },
    {
      "channel": 0,
      "note": 49,
      "start": 2.417,
      "duration": 0.0167,
      "velocity": 104,
      "chip": "ym2612"
    },
    {
      "channel": 0,
      "note": 48,
      "start": 2.4337,
      "duration": 0.017,
      "velocity": 104,
      "chip": "ym2612"
    },
    {
      "channel": 0,
      "note": 54,
      "start": 2.4508,
      "duration": 0.5014,
      "velocity": 104,
      "chip": "ym2612"
    },
    {
      "channel": 0,
      "note": 54,
      "start": 2.9524,
      "duration": 0.5998,
      "velocity": 104,
      "chip": "ym2612"
    },
    {
      "channel": 0,
      "note": 54,
      "start": 3.5524,
      "duration": 0.0982,
      "velocity": 104,
      "chip": "ym2612"
    },
    {
      "channel": 0,
      "note": 57,
      "start": 3.6508,
      "duration": 0.2998,
      "velocity": 104,
      "chip": "ym2612"
    },
    {
      "channel": 0,
      "note": 59,
      "start": 3.9508,
      "duration": 0.2002,
      "velocity": 104,
      "chip": "ym2612"
    },
    {
      "channel": 0,
      "note": 58,
      "start": 4.151,
      "duration": 0.016,
      "velocity": 104,
      "chip": "ym2612"
    },
    {
      "channel": 0,
      "note": 57,
      "start": 4.167,
      "duration": 0.0333,
      "velocity": 104,
      "chip": "ym2612"
    },
    {
      "channel": 0,
      "note": 56,
      "start": 4.2003,
      "duration": 0.0167,
      "velocity": 104,
      "chip": "ym2612"
    },
    {
      "channel": 0,
      "note": 55,
      "start": 4.217,
      "duration": 0.0167,
      "velocity": 104,
      "chip": "ym2612"
    },
    {
      "channel": 0,
      "note": 55,
      "start": 4.2337,
      "duration": 0.0171,
      "velocity": 104,
      "chip": "ym2612"
    },
    {
      "channel": 0,
      "note": 61,
      "start": 4.2509,
      "duration": 0.1997,
      "velocity": 104,
      "chip": "ym2612"
    },
    {
      "channel": 0,
      "note": 64,
      "start": 4.4508,
      "duration": 0.4016,
      "velocity": 104,
      "chip": "ym2612"
    },
    {
      "channel": 0,
      "note": 54,
      "start": 4.8526,
      "duration": 0.4997,
      "velocity": 104,
      "chip": "ym2612"
    },
    {
      "channel": 0,
      "note": 54,
      "start": 5.3524,
      "duration": 0.5998,
      "velocity": 104,
      "chip": "ym2612"
    },
    {
      "channel": 0,
      "note": 49,
      "start": 5.9524,
      "duration": 0.0982,
      "velocity": 104,
      "chip": "ym2612"
    },
    {
      "channel": 0,
      "note": 52,
      "start": 6.0508,
      "duration": 0.1998,
      "velocity": 104,
      "chip": "ym2612"
    },
    {
      "channel": 0,
      "note": 49,
      "start": 6.2508,
      "duration": 0.0998,
      "velocity": 104,
      "chip": "ym2612"
    },
    {
      "channel": 0,
      "note": 52,
      "start": 6.3508,
      "duration": 0.1998,
      "velocity": 104,
      "chip": "ym2612"
    },
    {
      "channel": 0,
      "note": 54,
      "start": 6.5508,
      "duration": 0.4014,
      "velocity": 104,
      "chip": "ym2612"
    },
    {
      "channel": 0,
      "note": 52,
      "start": 6.9524,
      "duration": 0.1986,
      "velocity": 104,
      "chip": "ym2612"
    },
    {
      "channel": 0,
      "note": 51,
      "start": 7.151,
      "duration": 0.016,
      "velocity": 104,
      "chip": "ym2612"
    },
    {
      "channel": 0,
      "note": 51,
      "start": 7.167,
      "duration": 0.0333,
      "velocity": 104,
      "chip": "ym2612"
    },
    {
      "channel": 0,
      "note": 50,
      "start": 7.2003,
      "duration": 0.0167,
      "velocity": 104,
      "chip": "ym2612"
    },
    {
      "channel": 0,
      "note": 49,
      "start": 7.217,
      "duration": 0.0167,
      "velocity": 104,
      "chip": "ym2612"
    },
    {
      "channel": 0,
      "note": 48,
      "start": 7.2337,
      "duration": 0.017,
      "velocity": 104,
      "chip": "ym2612"
    },
    {
      "channel": 0,
      "note": 54,
      "start": 7.2508,
      "duration": 0.5014,
      "velocity": 104,
      "chip": "ym2612"
    },
    {
      "channel": 0,
      "note": 54,
      "start": 7.7524,
      "duration": 0.5998,
      "velocity": 104,
      "chip": "ym2612"
    },
    {
      "channel": 0,
      "note": 54,
      "start": 8.3524,
      "duration": 0.0982,
      "velocity": 104,
      "chip": "ym2612"
    },
    {
      "channel": 0,
      "note": 57,
      "start": 8.4508,
      "duration": 0.2998,
      "velocity": 104,
      "chip": "ym2612"
    },
    {
      "channel": 0,
      "note": 59,
      "start": 8.7508,
      "duration": 0.2002,
      "velocity": 104,
      "chip": "ym2612"
    },
    {
      "channel": 0,
      "note": 58,
      "start": 8.951,
      "duration": 0.016,
      "velocity": 104,
      "chip": "ym2612"
    },
    {
      "channel": 0,
      "note": 57,
      "start": 8.967,
      "duration": 0.0333,
      "velocity": 104,
      "chip": "ym2612"
    },
    {
      "channel": 0,
      "note": 56,
      "start": 9.0003,
      "duration": 0.0166,
      "velocity": 104,
      "chip": "ym2612"
    },
    {
      "channel": 0,
      "note": 55,
      "start": 9.0169,
      "duration": 0.0167,
      "velocity": 104,
      "chip": "ym2612"
    },
    {
      "channel": 0,
      "note": 55,
      "start": 9.0337,
      "duration": 0.0171,
      "velocity": 104,
      "chip": "ym2612"
    },
    {
      "channel": 0,
      "note": 61,
      "start": 9.0509,
      "duration": 0.1997,
      "velocity": 104,
      "chip": "ym2612"
    },
    {
      "channel": 0,
      "note": 64,
      "start": 9.2508,
      "duration": 0.4016,
      "velocity": 104,
      "chip": "ym2612"
    },
    {
      "channel": 0,
      "note": 54,
      "start": 9.6526,
      "duration": 0.485,
      "velocity": 104,
      "chip": "ym2612"
    },
    {
      "channel": 2,
      "note": 98,
      "start": 9.6548,
      "duration": 0.2813,
      "velocity": 118,
      "chip": "ym2612"
    },
    {
      "channel": 2,
      "note": 95,
      "start": 9.9363,
      "duration": 0.3036,
      "velocity": 118,
      "chip": "ym2612"
    },
    {
      "channel": 0,
      "note": 54,
      "start": 10.1378,
      "duration": 0.584,
      "velocity": 104,
      "chip": "ym2612"
    },
    {
      "channel": 1,
      "note": 31,
      "start": 10.2395,
      "duration": 0.4827,
      "velocity": 119,
      "chip": "ym2612"
    },
    {
      "channel": 2,
      "note": 98,
      "start": 10.24,
      "duration": 0.2802,
      "velocity": 118,
      "chip": "ym2612"
    },
    {
      "channel": 2,
      "note": 95,
      "start": 10.5204,
      "duration": 0.2854,
      "velocity": 118,
      "chip": "ym2612"
    },
    {
      "channel": 0,
      "note": 49,
      "start": 10.7219,
      "duration": 0.0833,
      "velocity": 104,
      "chip": "ym2612"
    },
    {
      "channel": 1,
      "note": 31,
      "start": 10.7224,
      "duration": 0.268,
      "velocity": 119,
      "chip": "ym2612"
    },
    {
      "channel": 0,
      "note": 52,
      "start": 10.8054,
      "duration": 0.1846,
      "velocity": 104,
      "chip": "ym2612"
    },
    {
      "channel": 2,
      "note": 98,
      "start": 10.806,
      "duration": 0.2692,
      "velocity": 118,
      "chip": "ym2612"
    },
    {
      "channel": 0,
      "note": 49,
      "start": 10.99,
      "duration": 0.0845,
      "velocity": 104,
      "chip": "ym2612"
    },
    {
      "channel": 1,
      "note": 31,
      "start": 10.9906,
      "duration": 0.3857,
      "velocity": 119,
      "chip": "ym2612"
    },
    {
      "channel": 0,
      "note": 52,
      "start": 11.0748,
      "duration": 0.1997,
      "velocity": 104,
      "chip": "ym2612"
    },
    {
      "channel": 2,
      "note": 95,
      "start": 11.0754,
      "duration": 0.3015,
      "velocity": 118,
      "chip": "ym2612"
    },
    {
      "channel": 0,
      "note": 54,
      "start": 11.2747,
      "duration": 0.3857,
      "velocity": 104,
      "chip": "ym2612"
    },
    {
      "channel": 1,
      "note": 31,
      "start": 11.3765,
      "duration": 0.2844,
      "velocity": 119,
      "chip": "ym2612"
    },
    {
      "channel": 2,
      "note": 98,
      "start": 11.3771,
      "duration": 0.2844,
      "velocity": 118,
      "chip": "ym2612"
    },
    {
      "channel": 0,
      "note": 52,
      "start": 11.6605,
      "duration": 0.1986,
      "velocity": 104,
      "chip": "ym2612"
    },
    {
      "channel": 1,
      "note": 31,
      "start": 11.6611,
      "duration": 0.884,
      "velocity": 119,
      "chip": "ym2612"
    },
    {
      "channel": 2,
      "note": 95,
      "start": 11.6617,
      "duration": 0.2978,
      "velocity": 118,
      "chip": "ym2612"
    },
    {
      "channel": 0,
      "note": 51,
      "start": 11.8591,
      "duration": 0.016,
      "velocity": 104,
      "chip": "ym2612"
    },
    {
      "channel": 0,
      "note": 51,
      "start": 11.8751,
      "duration": 0.0333,
      "velocity": 104,
      "chip": "ym2612"
    },
    {
      "channel": 0,
      "note": 50,
      "start": 11.9084,
      "duration": 0.0167,
      "velocity": 104,
      "chip": "ym2612"
    },
    {
      "channel": 0,
      "note": 49,
      "start": 11.9251,
      "duration": 0.0167,
      "velocity": 104,
      "chip": "ym2612"
    },
    {
      "channel": 0,
      "note": 48,
      "start": 11.9418,
      "duration": 0.0171,
      "velocity": 104,
      "chip": "ym2612"
    },
    {
      "channel": 0,
      "note": 54,
      "start": 11.959,
      "duration": 0.4859,
      "velocity": 104,
      "chip": "ym2612"
    },
    {
      "channel": 2,
      "note": 98,
      "start": 11.9596,
      "duration": 0.2839,
      "velocity": 118,
      "chip": "ym2612"
    },
    {
      "channel": 2,
      "note": 95,
      "start": 12.2436,
      "duration": 0.302,
      "velocity": 118,
      "chip": "ym2612"
    },
    {
      "channel": 0,
      "note": 54,
      "start": 12.4451,
      "duration": 0.5845,
      "velocity": 104,
      "chip": "ym2612"
    },
    {
      "channel": 1,
      "note": 31,
      "start": 12.5453,
      "duration": 0.4848,
      "velocity": 119,
      "chip": "ym2612"
    },
    {
      "channel": 2,
      "note": 98,
      "start": 12.5459,
      "duration": 0.2822,
      "velocity": 118,
      "chip": "ym2612"
    },
    {
      "channel": 2,
      "note": 95,
      "start": 12.8282,
      "duration": 0.2857,
      "velocity": 118,
      "chip": "ym2612"
    },
    {
      "channel": 0,
      "note": 54,
      "start": 13.0297,
      "duration": 0.0836,
      "velocity": 104,
      "chip": "ym2612"
    },
    {
      "channel": 1,
      "note": 31,
      "start": 13.0303,
      "duration": 0.2673,
      "velocity": 119,
      "chip": "ym2612"
    },
    {
      "channel": 0,
      "note": 57,
      "start": 13.1135,
      "duration": 0.2684,
      "velocity": 104,
      "chip": "ym2612"
    },
    {
      "channel": 2,
      "note": 98,
      "start": 13.1141,
      "duration": 0.2684,
      "velocity": 118,
      "chip": "ym2612"
    },
    {
      "channel": 1,
      "note": 31,
      "start": 13.2978,
      "duration": 0.3693,
      "velocity": 119,
      "chip": "ym2612"
    },
    {
      "channel": 0,
      "note": 59,
      "start": 13.3821,
      "duration": 0.1847,
      "velocity": 104,
      "chip": "ym2612"
    },
    {
      "channel": 2,
      "note": 95,
      "start": 13.3827,
      "duration": 0.285,
      "velocity": 118,
      "chip": "ym2612"
    },
    {
      "channel": 0,
      "note": 58,
      "start": 13.5668,
      "duration": 0.016,
      "velocity": 104,
      "chip": "ym2612"
    },
    {
      "channel": 0,
      "note": 57,
      "start": 13.5828,
      "duration": 0.0333,
      "velocity": 104,
      "chip": "ym2612"
    },
    {
      "channel": 0,
      "note": 56,
      "start": 13.6161,
      "duration": 0.0167,
      "velocity": 104,
      "chip": "ym2612"
    },
    {
      "channel": 0,
      "note": 55,
      "start": 13.6328,
      "duration": 0.0167,
      "velocity": 104,
      "chip": "ym2612"
    },
    {
      "channel": 0,
      "note": 55,
      "start": 13.6494,
      "duration": 0.0171,
      "velocity": 104,
      "chip": "ym2612"
    },
    {
      "channel": 0,
      "note": 61,
      "start": 13.6667,
      "duration": 0.1839,
      "velocity": 104,
      "chip": "ym2612"
    },
    {
      "channel": 1,
      "note": 31,
      "start": 13.6673,
      "duration": 0.1855,
      "velocity": 119,
      "chip": "ym2612"
    },
    {
      "channel": 2,
      "note": 98,
      "start": 13.6678,
      "duration": 0.2866,
      "velocity": 118,
      "chip": "ym2612"
    },
    {
      "channel": 0,
      "note": 64,
      "start": 13.8508,
      "duration": 0.4016,
      "velocity": 104,
      "chip": "ym2612"
    },
    {
      "channel": 1,
      "note": 31,
      "start": 13.853,
      "duration": 0.1009,
      "velocity": 119,
      "chip": "ym2612"
    },
    {
      "channel": 1,
      "note": 31,
      "start": 13.9541,
      "duration": 0.8827,
      "velocity": 119,
      "chip": "ym2612"
    },
    {
      "channel": 2,
      "note": 95,
      "start": 13.9546,
      "duration": 0.2985,
      "velocity": 118,
      "chip": "ym2612"
    },
    {
      "channel": 0,
      "note": 54,
      "start": 14.2526,
      "duration": 0.4839,
      "velocity": 104,
      "chip": "ym2612"
    },
    {
      "channel": 2,
      "note": 98,
      "start": 14.2533,
      "duration": 0.2817,
      "velocity": 118,
      "chip": "ym2612"
    },
    {
      "channel": 2,
      "note": 95,
      "start": 14.5352,
      "duration": 0.3021,
      "velocity": 118,
      "chip": "ym2612"
    },
    {
      "channel": 0,
      "note": 54,
      "start": 14.7367,
      "duration": 0.5844,
      "velocity": 104,
      "chip": "ym2612"
    },
    {
      "channel": 1,
      "note": 31,
      "start": 14.8369,
      "duration": 0.4847,
      "velocity": 119,
      "chip": "ym2612"
    },
    {
      "channel": 2,
      "note": 98,
      "start": 14.8375,
      "duration": 0.2821,
      "velocity": 118,
      "chip": "ym2612"
    },
    {
      "channel": 2,
      "note": 95,
      "start": 15.1197,
      "duration": 0.2857,
      "velocity": 118,
      "chip": "ym2612"
    },
    {
      "channel": 0,
      "note": 49,
      "start": 15.3212,
      "duration": 0.0836,
      "velocity": 104,
      "chip": "ym2612"
    },
    {
      "channel": 1,
      "note": 31,
      "start": 15.3218,
      "duration": 0.2683,
      "velocity": 119,
      "chip": "ym2612"
    },
    {
      "channel": 0,
      "note": 52,
      "start": 15.405,
      "duration": 0.1846,
      "velocity": 104,
      "chip": "ym2612"
    },
    {
      "channel": 2,
      "note": 98,
      "start": 15.4056,
      "duration": 0.2701,
      "velocity": 118,
      "chip": "ym2612"
    },
    {
      "channel": 0,
      "note": 49,
      "start": 15.5897,
      "duration": 0.0855,
      "velocity": 104,
      "chip": "ym2612"
    },
    {
      "channel": 1,
      "note": 31,
      "start": 15.5902,
      "duration": 0.3866,
      "velocity": 119,
      "chip": "ym2612"
    },
    {
      "channel": 0,
      "note": 52,
      "start": 15.6753,
      "duration": 0.1997,
      "velocity": 104,
      "chip": "ym2612"
    },
    {
      "channel": 2,
      "note": 95,
      "start": 15.6759,
      "duration": 0.3015,
      "velocity": 118,
      "chip": "ym2612"
    },
    {
      "channel": 0,
      "note": 54,
      "start": 15.8752,
      "duration": 0.386,
      "velocity": 104,
      "chip": "ym2612"
    },
    {
      "channel": 1,
      "note": 31,
      "start": 15.977,
      "duration": 0.2848,
      "velocity": 119,
      "chip": "ym2612"
    },
    {
      "channel": 2,
      "note": 98,
      "start": 15.9776,
      "duration": 0.2848,
      "velocity": 118,
      "chip": "ym2612"
    },
    {
      "channel": 0,
      "note": 52,
      "start": 16.2614,
      "duration": 0.1986,
      "velocity": 104,
      "chip": "ym2612"
    },
    {
      "channel": 1,
      "note": 31,
      "start": 16.2619,
      "duration": 0.8842,
      "velocity": 119,
      "chip": "ym2612"
    },
    {
      "channel": 2,
      "note": 95,
      "start": 16.2625,
      "duration": 0.2978,
      "velocity": 118,
      "chip": "ym2612"
    },
    {
      "channel": 0,
      "note": 51,
      "start": 16.46,
      "duration": 0.016,
      "velocity": 104,
      "chip": "ym2612"
    },
    {
      "channel": 0,
      "note": 51,
      "start": 16.4759,
      "duration": 0.0333,
      "velocity": 104,
      "chip": "ym2612"
    },
    {
      "channel": 0,
      "note": 50,
      "start": 16.5093,
      "duration": 0.0167,
      "velocity": 104,
      "chip": "ym2612"
    },
    {
      "channel": 0,
      "note": 49,
      "start": 16.5259,
      "duration": 0.0167,
      "velocity": 104,
      "chip": "ym2612"
    },
    {
      "channel": 0,
      "note": 48,
      "start": 16.5426,
      "duration": 0.0171,
      "velocity": 104,
      "chip": "ym2612"
    },
    {
      "channel": 0,
      "note": 54,
      "start": 16.5598,
      "duration": 0.4861,
      "velocity": 104,
      "chip": "ym2612"
    },
    {
      "channel": 2,
      "note": 98,
      "start": 16.5604,
      "duration": 0.284,
      "velocity": 118,
      "chip": "ym2612"
    },
    {
      "channel": 2,
      "note": 95,
      "start": 16.8446,
      "duration": 0.302,
      "velocity": 118,
      "chip": "ym2612"
    },
    {
      "channel": 0,
      "note": 54,
      "start": 17.0461,
      "duration": 0.5844,
      "velocity": 104,
      "chip": "ym2612"
    },
    {
      "channel": 1,
      "note": 31,
      "start": 17.1463,
      "duration": 0.4848,
      "velocity": 119,
      "chip": "ym2612"
    },
    {
      "channel": 2,
      "note": 98,
      "start": 17.1469,
      "duration": 0.2822,
      "velocity": 118,
      "chip": "ym2612"
    },
    {
      "channel": 2,
      "note": 95,
      "start": 17.4292,
      "duration": 0.2854,
      "velocity": 118,
      "chip": "ym2612"
    },
    {
      "channel": 0,
      "note": 54,
      "start": 17.6307,
      "duration": 0.0833,
      "velocity": 104,
      "chip": "ym2612"
    },
    {
      "channel": 1,
      "note": 31,
      "start": 17.6312,
      "duration": 0.2677,
      "velocity": 119,
      "chip": "ym2612"
    },
    {
      "channel": 0,
      "note": 57,
      "start": 17.7142,
      "duration": 0.2691,
      "velocity": 104,
      "chip": "ym2612"
    },
    {
      "channel": 2,
      "note": 98,
      "start": 17.7148,
      "duration": 0.2691,
      "velocity": 118,
      "chip": "ym2612"
    },
    {
      "channel": 1,
      "note": 31,
      "start": 17.8992,
      "duration": 0.3695,
      "velocity": 119,
      "chip": "ym2612"
    },
    {
      "channel": 0,
      "note": 59,
      "start": 17.9835,
      "duration": 0.1849,
      "velocity": 104,
      "chip": "ym2612"
    },
    {
      "channel": 2,
      "note": 95,
      "start": 17.9841,
      "duration": 0.2851,
      "velocity": 118,
      "chip": "ym2612"
    },
    {
      "channel": 0,
      "note": 58,
      "start": 18.1683,
      "duration": 0.016,
      "velocity": 104,
      "chip": "ym2612"
    },
    {
      "channel": 0,
      "note": 57,
      "start": 18.1843,
      "duration": 0.0333,
      "velocity": 104,
      "chip": "ym2612"
    },
    {
      "channel": 0,
      "note": 56,
      "start": 18.2176,
      "duration": 0.0167,
      "velocity": 104,
      "chip": "ym2612"
    },
    {
      "channel": 0,
      "note": 55,
      "start": 18.2343,
      "duration": 0.0167,
      "velocity": 104,
      "chip": "ym2612"
    },
    {
      "channel": 0,
      "note": 55,
      "start": 18.251,
      "duration": 0.0171,
      "velocity": 104,
      "chip": "ym2612"
    },
    {
      "channel": 0,
      "note": 61,
      "start": 18.2683,
      "duration": 0.1839,
      "velocity": 104,
      "chip": "ym2612"
    },
    {
      "channel": 1,
      "note": 31,
      "start": 18.2689,
      "duration": 0.1855,
      "velocity": 119,
      "chip": "ym2612"
    },
    {
      "channel": 2,
      "note": 98,
      "start": 18.2694,
      "duration": 0.2866,
      "velocity": 118,
      "chip": "ym2612"
    },
    {
      "channel": 0,
      "note": 64,
      "start": 18.4524,
      "duration": 0.4016,
      "velocity": 104,
      "chip": "ym2612"
    },
    {
      "channel": 1,
      "note": 31,
      "start": 18.4545,
      "duration": 0.1009,
      "velocity": 119,
      "chip": "ym2612"
    },
    {
      "channel": 1,
      "note": 31,
      "start": 18.5556,
      "duration": 0.8827,
      "velocity": 119,
      "chip": "ym2612"
    },
    {
      "channel": 2,
      "note": 95,
      "start": 18.5561,
      "duration": 0.2985,
      "velocity": 118,
      "chip": "ym2612"
    },
    {
      "channel": 0,
      "note": 61,
      "start": 18.8541,
      "duration": 0.1823,
      "velocity": 104,
      "chip": "ym2612"
    },
    {
      "channel": 2,
      "note": 98,
      "start": 18.8549,
      "duration": 0.2822,
      "velocity": 118,
      "chip": "ym2612"
    },
    {
      "channel": 0,
      "note": 61,
      "start": 19.0366,
      "duration": 0.0998,
      "velocity": 104,
      "chip": "ym2612"
    },
    {
      "channel": 0,
      "note": 59,
      "start": 19.1366,
      "duration": 0.2014,
      "velocity": 104,
      "chip": "ym2612"
    },
    {
      "channel": 2,
      "note": 95,
      "start": 19.1373,
      "duration": 0.3016,
      "velocity": 118,
      "chip": "ym2612"
    },
    {
      "channel": 0,
      "note": 61,
      "start": 19.3382,
      "duration": 0.6683,
      "velocity": 104,
      "chip": "ym2612"
    },
    {
      "channel": 1,
      "note": 31,
      "start": 19.4385,
      "duration": 0.4828,
      "velocity": 119,
      "chip": "ym2612"
    },
    {
      "channel": 2,
      "note": 98,
      "start": 19.439,
      "duration": 0.2823,
      "velocity": 118,
      "chip": "ym2612"
    },
    {
      "channel": 2,
      "note": 95,
      "start": 19.7215,
      "duration": 0.2856,
      "velocity": 118,
      "chip": "ym2612"
    },
    {
      "channel": 1,
      "note": 31,
      "start": 19.9215,
      "duration": 0.2684,
      "velocity": 119,
      "chip": "ym2612"
    },
    {
      "channel": 0,
      "note": 66,
      "start": 20.0068,
      "duration": 0.2691,
      "velocity": 104,
      "chip": "ym2612"
    },
    {
      "channel": 2,
      "note": 98,
      "start": 20.0074,
      "duration": 0.2691,
      "velocity": 118,
      "chip": "ym2612"
    },
    {
      "channel": 3,
      "note": 43,
      "start": 20.0934,
      "duration": 0.0971,
      "velocity": 119,
      "chip": "ym2612"
    },
    {
      "channel": 1,
      "note": 31,
      "start": 20.1901,
      "duration": 0.3847,
      "velocity": 119,
      "chip": "ym2612"
    },
    {
      "channel": 3,
      "note": 43,
      "start": 20.1907,
      "duration": 0.0862,
      "velocity": 119,
      "chip": "ym2612"
    },
    {
      "channel": 0,
      "note": 64,
      "start": 20.276,
      "duration": 0.2982,
      "velocity": 104,
      "chip": "ym2612"
    },
    {
      "channel": 2,
      "note": 95,
      "start": 20.2766,
      "duration": 0.2987,
      "velocity": 118,
      "chip": "ym2612"
    },
    {
      "channel": 3,
      "note": 43,
      "start": 20.2772,
      "duration": 0.1971,
      "velocity": 119,
      "chip": "ym2612"
    },
    {
      "channel": 3,
      "note": 43,
      "start": 20.4745,
      "duration": 0.1014,
      "velocity": 119,
      "chip": "ym2612"
    },
    {
      "channel": 0,
      "note": 61,
      "start": 20.5744,
      "duration": 0.0843,
      "velocity": 104,
      "chip": "ym2612"
    },
    {
      "channel": 1,
      "note": 31,
      "start": 20.5749,
      "duration": 0.2843,
      "velocity": 119,
      "chip": "ym2612"
    },
    {
      "channel": 2,
      "note": 98,
      "start": 20.5755,
      "duration": 0.2843,
      "velocity": 118,
      "chip": "ym2612"
    },
    {
      "channel": 3,
      "note": 43,
      "start": 20.5761,
      "duration": 0.0833,
      "velocity": 119,
      "chip": "ym2612"
    },
    {
      "channel": 0,
      "note": 59,
      "start": 20.6589,
      "duration": 0.0997,
      "velocity": 104,
      "chip": "ym2612"
    },
    {
      "channel": 3,
      "note": 43,
      "start": 20.6595,
      "duration": 0.0997,
      "velocity": 119,
      "chip": "ym2612"
    },
    {
      "channel": 0,
      "note": 57,
      "start": 20.7588,
      "duration": 0.0999,
      "velocity": 104,
      "chip": "ym2612"
    },
    {
      "channel": 3,
      "note": 43,
      "start": 20.7595,
      "duration": 0.1009,
      "velocity": 119,
      "chip": "ym2612"
    },
    {
      "channel": 0,
      "note": 54,
      "start": 20.8588,
      "duration": 0.0999,
      "velocity": 104,
      "chip": "ym2612"
    },
    {
      "channel": 1,
      "note": 31,
      "start": 20.8594,
      "duration": 0.8857,
      "velocity": 119,
      "chip": "ym2612"
    },
    {
      "channel": 2,
      "note": 95,
      "start": 20.8599,
      "duration": 0.2996,
      "velocity": 118,
      "chip": "ym2612"
    },
    {
      "channel": 3,
      "note": 43,
      "start": 20.8605,
      "duration": 0.3011,
      "velocity": 102,
      "chip": "ym2612"
    },
    {
      "channel": 0,
      "note": 52,
      "start": 20.9588,
      "duration": 0.0998,
      "velocity": 104,
      "chip": "ym2612"
    },
    {
      "channel": 0,
      "note": 49,
      "start": 21.0588,
      "duration": 0.1,
      "velocity": 104,
      "chip": "ym2612"
    },
    {
      "channel": 0,
      "note": 54,
      "start": 21.159,
      "duration": 0.4859,
      "velocity": 104,
      "chip": "ym2612"
    },
    {
      "channel": 2,
      "note": 98,
      "start": 21.1597,
      "duration": 0.2838,
      "velocity": 118,
      "chip": "ym2612"
    },
    {
      "channel": 3,
      "note": 54,
      "start": 21.1618,
      "duration": 0.1832,
      "velocity": 102,
      "chip": "ym2612"
    },
    {
      "channel": 3,
      "note": 57,
      "start": 21.3452,
      "duration": 0.1982,
      "velocity": 102,
      "chip": "ym2612"
    },
    {
      "channel": 2,
      "note": 95,
      "start": 21.4437,
      "duration": 0.302,
      "velocity": 118,
      "chip": "ym2612"
    },
    {
      "channel": 3,
      "note": 61,
      "start": 21.5437,
      "duration": 4.219,
      "velocity": 102,
      "chip": "ym2612"
    },
    {
      "channel": 0,
      "note": 54,
      "start": 21.6451,
      "duration": 0.5847,
      "velocity": 104,
      "chip": "ym2612"
    },
    {
      "channel": 1,
      "note": 31,
      "start": 21.7453,
      "duration": 0.4849,
      "velocity": 119,
      "chip": "ym2612"
    },
    {
      "channel": 2,
      "note": 98,
      "start": 21.7459,
      "duration": 0.2823,
      "velocity": 118,
      "chip": "ym2612"
    },
    {
      "channel": 2,
      "note": 95,
      "start": 22.0284,
      "duration": 0.2851,
      "velocity": 118,
      "chip": "ym2612"
    },
    {
      "channel": 0,
      "note": 49,
      "start": 22.2299,
      "duration": 0.083,
      "velocity": 104,
      "chip": "ym2612"
    },
    {
      "channel": 1,
      "note": 31,
      "start": 22.2304,
      "duration": 0.2674,
      "velocity": 119,
      "chip": "ym2612"
    },
    {
      "channel": 0,
      "note": 52,
      "start": 22.3131,
      "duration": 0.1842,
      "velocity": 104,
      "chip": "ym2612"
    },
    {
      "channel": 2,
      "note": 98,
      "start": 22.3137,
      "duration": 0.2689,
      "velocity": 118,
      "chip": "ym2612"
    },
    {
      "channel": 0,
      "note": 49,
      "start": 22.4975,
      "duration": 0.0846,
      "velocity": 104,
      "chip": "ym2612"
    },
    {
      "channel": 1,
      "note": 31,
      "start": 22.498,
      "duration": 0.3856,
      "velocity": 119,
      "chip": "ym2612"
    },
    {
      "channel": 0,
      "note": 52,
      "start": 22.5822,
      "duration": 0.1997,
      "velocity": 104,
      "chip": "ym2612"
    },
    {
      "channel": 2,
      "note": 95,
      "start": 22.5828,
      "duration": 0.3015,
      "velocity": 118,
      "chip": "ym2612"
    },
    {
      "channel": 0,
      "note": 54,
      "start": 22.7821,
      "duration": 0.3861,
      "velocity": 104,
      "chip": "ym2612"
    },
    {
      "channel": 1,
      "note": 31,
      "start": 22.8839,
      "duration": 0.2848,
      "velocity": 119,
      "chip": "ym2612"
    },
    {
      "channel": 2,
      "note": 98,
      "start": 22.8844,
      "duration": 0.2848,
      "velocity": 118,
      "chip": "ym2612"
    },
    {
      "channel": 0,
      "note": 52,
      "start": 23.1683,
      "duration": 0.1986,
      "velocity": 104,
      "chip": "ym2612"
    },
    {
      "channel": 1,
      "note": 31,
      "start": 23.1688,
      "duration": 0.8839,
      "velocity": 119,
      "chip": "ym2612"
    },
    {
      "channel": 2,
      "note": 95,
      "start": 23.1694,
      "duration": 0.2978,
      "velocity": 118,
      "chip": "ym2612"
    },
    {
      "channel": 0,
      "note": 51,
      "start": 23.3669,
      "duration": 0.016,
      "velocity": 104,
      "chip": "ym2612"
    },
    {
      "channel": 0,
      "note": 51,
      "start": 23.3828,
      "duration": 0.0333,
      "velocity": 104,
      "chip": "ym2612"
    },
    {
      "channel": 0,
      "note": 50,
      "start": 23.4162,
      "duration": 0.0167,
      "velocity": 104,
      "chip": "ym2612"
    },
    {
      "channel": 0,
      "note": 49,
      "start": 23.4328,
      "duration": 0.0167,
      "velocity": 104,
      "chip": "ym2612"
    },
    {
      "channel": 0,
      "note": 48,
      "start": 23.4495,
      "duration": 0.0171,
      "velocity": 104,
      "chip": "ym2612"
    },
    {
      "channel": 0,
      "note": 54,
      "start": 23.4668,
      "duration": 0.4858,
      "velocity": 104,
      "chip": "ym2612"
    },
    {
      "channel": 2,
      "note": 98,
      "start": 23.4673,
      "duration": 0.2837,
      "velocity": 118,
      "chip": "ym2612"
    },
    {
      "channel": 2,
      "note": 95,
      "start": 23.7512,
      "duration": 0.302,
      "velocity": 118,
      "chip": "ym2612"
    },
    {
      "channel": 0,
      "note": 54,
      "start": 23.9527,
      "duration": 0.5844,
      "velocity": 104,
      "chip": "ym2612"
    },
    {
      "channel": 1,
      "note": 31,
      "start": 24.0529,
      "duration": 0.4848,
      "velocity": 119,
      "chip": "ym2612"
    },
    {
      "channel": 2,
      "note": 98,
      "start": 24.0535,
      "duration": 0.2822,
      "velocity": 118,
      "chip": "ym2612"
    },
    {
      "channel": 2,
      "note": 95,
      "start": 24.3358,
      "duration": 0.2857,
      "velocity": 118,
      "chip": "ym2612"
    },
    {
      "channel": 0,
      "note": 54,
      "start": 24.5373,
      "duration": 0.0836,
      "velocity": 104,
      "chip": "ym2612"
    },
    {
      "channel": 1,
      "note": 31,
      "start": 24.5379,
      "duration": 0.2674,
      "velocity": 119,
      "chip": "ym2612"
    },
    {
      "channel": 0,
      "note": 57,
      "start": 24.6211,
      "duration": 0.2681,
      "velocity": 104,
      "chip": "ym2612"
    },
    {
      "channel": 2,
      "note": 98,
      "start": 24.6217,
      "duration": 0.268,
      "velocity": 118,
      "chip": "ym2612"
    },
    {
      "channel": 1,
      "note": 31,
      "start": 24.8055,
      "duration": 0.369,
      "velocity": 119,
      "chip": "ym2612"
    },
    {
      "channel": 0,
      "note": 59,
      "start": 24.8893,
      "duration": 0.1849,
      "velocity": 104,
      "chip": "ym2612"
    },
    {
      "channel": 2,
      "note": 95,
      "start": 24.8899,
      "duration": 0.2851,
      "velocity": 118,
      "chip": "ym2612"
    },
    {
      "channel": 0,
      "note": 58,
      "start": 25.0742,
      "duration": 0.016,
      "velocity": 104,
      "chip": "ym2612"
    },
    {
      "channel": 0,
      "note": 57,
      "start": 25.0901,
      "duration": 0.0333,
      "velocity": 104,
      "chip": "ym2612"
    },
    {
      "channel": 0,
      "note": 56,
      "start": 25.1235,
      "duration": 0.0167,
      "velocity": 104,
      "chip": "ym2612"
    },
    {
      "channel": 0,
      "note": 55,
      "start": 25.1401,
      "duration": 0.0167,
      "velocity": 104,
      "chip": "ym2612"
    },
    {
      "channel": 0,
      "note": 55,
      "start": 25.1568,
      "duration": 0.0171,
      "velocity": 104,
      "chip": "ym2612"
    },
    {
      "channel": 0,
      "note": 61,
      "start": 25.1741,
      "duration": 0.1839,
      "velocity": 104,
      "chip": "ym2612"
    },
    {
      "channel": 1,
      "note": 31,
      "start": 25.1747,
      "duration": 0.1855,
      "velocity": 119,
      "chip": "ym2612"
    },
    {
      "channel": 2,
      "note": 98,
      "start": 25.1752,
      "duration": 0.2866,
      "velocity": 118,
      "chip": "ym2612"
    },
    {
      "channel": 0,
      "note": 64,
      "start": 25.3582,
      "duration": 0.4016,
      "velocity": 104,
      "chip": "ym2612"
    },
    {
      "channel": 1,
      "note": 31,
      "start": 25.3604,
      "duration": 0.1009,
      "velocity": 119,
      "chip": "ym2612"
    },
    {
      "channel": 1,
      "note": 31,
      "start": 25.4615,
      "duration": 0.8824,
      "velocity": 119,
      "chip": "ym2612"
    },
    {
      "channel": 2,
      "note": 95,
      "start": 25.462,
      "duration": 0.2985,
      "velocity": 118,
      "chip": "ym2612"
    },
    {
      "channel": 0,
      "note": 54,
      "start": 25.76,
      "duration": 0.4837,
      "velocity": 104,
      "chip": "ym2612"
    },
    {
      "channel": 2,
      "note": 98,
      "start": 25.7607,
      "duration": 0.2816,
      "velocity": 118,
      "chip": "ym2612"
    },
    {
      "channel": 3,
      "note": 54,
      "start": 25.7629,
      "duration": 0.181,
      "velocity": 102,
      "chip": "ym2612"
    },
    {
      "channel": 3,
      "note": 57,
      "start": 25.944,
      "duration": 0.1982,
      "velocity": 102,
      "chip": "ym2612"
    },
    {
      "channel": 2,
      "note": 95,
      "start": 26.0424,
      "duration": 0.302,
      "velocity": 118,
      "chip": "ym2612"
    },
    {
      "channel": 3,
      "note": 60,
      "start": 26.1424,
      "duration": 4.2204,
      "velocity": 102,
      "chip": "ym2612"
    },
    {
      "channel": 0,
      "note": 54,
      "start": 26.2438,
      "duration": 0.5847,
      "velocity": 104,
      "chip": "ym2612"
    },
    {
      "channel": 1,
      "note": 31,
      "start": 26.3441,
      "duration": 0.4849,
      "velocity": 119,
      "chip": "ym2612"
    },
    {
      "channel": 2,
      "note": 98,
      "start": 26.3446,
      "duration": 0.2823,
      "velocity": 118,
      "chip": "ym2612"
    },
    {
      "channel": 2,
      "note": 95,
      "start": 26.6272,
      "duration": 0.2857,
      "velocity": 118,
      "chip": "ym2612"
    },
    {
      "channel": 0,
      "note": 49,
      "start": 26.8286,
      "duration": 0.0836,
      "velocity": 104,
      "chip": "ym2612"
    },
    {
      "channel": 1,
      "note": 31,
      "start": 26.8292,
      "duration": 0.268,
      "velocity": 119,
      "chip": "ym2612"
    },
    {
      "channel": 0,
      "note": 52,
      "start": 26.9124,
      "duration": 0.1842,
      "velocity": 104,
      "chip": "ym2612"
    },
    {
      "channel": 2,
      "note": 98,
      "start": 26.913,
      "duration": 0.2698,
      "velocity": 118,
      "chip": "ym2612"
    },
    {
      "channel": 0,
      "note": 49,
      "start": 27.0968,
      "duration": 0.0855,
      "velocity": 104,
      "chip": "ym2612"
    },
    {
      "channel": 1,
      "note": 31,
      "start": 27.0973,
      "duration": 0.3866,
      "velocity": 119,
      "chip": "ym2612"
    },
    {
      "channel": 0,
      "note": 52,
      "start": 27.1824,
      "duration": 0.1997,
      "velocity": 104,
      "chip": "ym2612"
    },
    {
      "channel": 2,
      "note": 95,
      "start": 27.183,
      "duration": 0.3015,
      "velocity": 118,
      "chip": "ym2612"
    },
    {
      "channel": 0,
      "note": 54,
      "start": 27.3823,
      "duration": 0.3857,
      "velocity": 104,
      "chip": "ym2612"
    },
    {
      "channel": 1,
      "note": 31,
      "start": 27.4841,
      "duration": 0.2844,
      "velocity": 119,
      "chip": "ym2612"
    },
    {
      "channel": 2,
      "note": 98,
      "start": 27.4847,
      "duration": 0.2844,
      "velocity": 118,
      "chip": "ym2612"
    },
    {
      "channel": 0,
      "note": 52,
      "start": 27.7681,
      "duration": 0.1986,
      "velocity": 104,
      "chip": "ym2612"
    },
    {
      "channel": 1,
      "note": 31,
      "start": 27.7687,
      "duration": 0.8842,
      "velocity": 119,
      "chip": "ym2612"
    },
    {
      "channel": 2,
      "note": 95,
      "start": 27.7693,
      "duration": 0.2978,
      "velocity": 118,
      "chip": "ym2612"
    },
    {
      "channel": 0,
      "note": 51,
      "start": 27.9667,
      "duration": 0.016,
      "velocity": 104,
      "chip": "ym2612"
    },
    {
      "channel": 0,
      "note": 51,
      "start": 27.9827,
      "duration": 0.0333,
      "velocity": 104,
      "chip": "ym2612"
    },
    {
      "channel": 0,
      "note": 50,
      "start": 28.016,
      "duration": 0.0167,
      "velocity": 104,
      "chip": "ym2612"
    },
    {
      "channel": 0,
      "note": 49,
      "start": 28.0327,
      "duration": 0.0167,
      "velocity": 104,
      "chip": "ym2612"
    },
    {
      "channel": 0,
      "note": 48,
      "start": 28.0494,
      "duration": 0.0171,
      "velocity": 104,
      "chip": "ym2612"
    },
    {
      "channel": 0,
      "note": 54,
      "start": 28.0666,
      "duration": 0.4861,
      "velocity": 104,
      "chip": "ym2612"
    },
    {
      "channel": 2,
      "note": 98,
      "start": 28.0672,
      "duration": 0.284,
      "velocity": 118,
      "chip": "ym2612"
    },
    {
      "channel": 2,
      "note": 95,
      "start": 28.3514,
      "duration": 0.302,
      "velocity": 118,
      "chip": "ym2612"
    },
    {
      "channel": 0,
      "note": 54,
      "start": 28.5529,
      "duration": 0.5841,
      "velocity": 104,
      "chip": "ym2612"
    },
    {
      "channel": 1,
      "note": 31,
      "start": 28.6531,
      "duration": 0.4844,
      "velocity": 119,
      "chip": "ym2612"
    },
    {
      "channel": 2,
      "note": 98,
      "start": 28.6537,
      "duration": 0.2818,
      "velocity": 118,
      "chip": "ym2612"
    },
    {
      "channel": 2,
      "note": 95,
      "start": 28.9356,
      "duration": 0.2854,
      "velocity": 118,
      "chip": "ym2612"
    },
    {
      "channel": 0,
      "note": 54,
      "start": 29.1371,
      "duration": 0.0833,
      "velocity": 104,
      "chip": "ym2612"
    },
    {
      "channel": 1,
      "note": 31,
      "start": 29.1377,
      "duration": 0.2675,
      "velocity": 119,
      "chip": "ym2612"
    },
    {
      "channel": 0,
      "note": 57,
      "start": 29.2206,
      "duration": 0.2688,
      "velocity": 104,
      "chip": "ym2612"
    },
    {
      "channel": 2,
      "note": 98,
      "start": 29.2212,
      "duration": 0.2688,
      "velocity": 118,
      "chip": "ym2612"
    },
    {
      "channel": 1,
      "note": 31,
      "start": 29.4054,
      "duration": 0.3693,
      "velocity": 119,
      "chip": "ym2612"
    },
    {
      "channel": 0,
      "note": 59,
      "start": 29.4896,
      "duration": 0.1847,
      "velocity": 104,
      "chip": "ym2612"
    },
    {
      "channel": 2,
      "note": 95,
      "start": 29.4903,
      "duration": 0.285,
      "velocity": 118,
      "chip": "ym2612"
    },
    {
      "channel": 0,
      "note": 58,
      "start": 29.6743,
      "duration": 0.016,
      "velocity": 104,
      "chip": "ym2612"
    },
    {
      "channel": 0,
      "note": 57,
      "start": 29.6903,
      "duration": 0.0333,
      "velocity": 104,
      "chip": "ym2612"
    },
    {
      "channel": 0,
      "note": 56,
      "start": 29.7236,
      "duration": 0.0167,
      "velocity": 104,
      "chip": "ym2612"
    },
    {
      "channel": 0,
      "note": 55,
      "start": 29.7403,
      "duration": 0.0167,
      "velocity": 104,
      "chip": "ym2612"
    },
    {
      "channel": 0,
      "note": 55,
      "start": 29.757,
      "duration": 0.0171,
      "velocity": 104,
      "chip": "ym2612"
    },
    {
      "channel": 0,
      "note": 61,
      "start": 29.7743,
      "duration": 0.1839,
      "velocity": 104,
      "chip": "ym2612"
    },
    {
      "channel": 1,
      "note": 31,
      "start": 29.7749,
      "duration": 0.1855,
      "velocity": 119,
      "chip": "ym2612"
    },
    {
      "channel": 2,
      "note": 98,
      "start": 29.7754,
      "duration": 0.2866,
      "velocity": 118,
      "chip": "ym2612"
    },
    {
      "channel": 0,
      "note": 64,
      "start": 29.9584,
      "duration": 0.4016,
      "velocity": 104,
      "chip": "ym2612"
    },
    {
      "channel": 1,
      "note": 31,
      "start": 29.9605,
      "duration": 0.101,
      "velocity": 119,
      "chip": "ym2612"
    },
    {
      "channel": 1,
      "note": 31,
      "start": 30.0616,
      "duration": 0.8831,
      "velocity": 119,
      "chip": "ym2612"
    },
    {
      "channel": 2,
      "note": 95,
      "start": 30.0621,
      "duration": 0.2985,
      "velocity": 118,
      "chip": "ym2612"
    },
    {
      "channel": 0,
      "note": 54,
      "start": 30.3601,
      "duration": 0.4843,
      "velocity": 104,
      "chip": "ym2612"
    },
    {
      "channel": 2,
      "note": 98,
      "start": 30.3608,
      "duration": 0.2822,
      "velocity": 118,
      "chip": "ym2612"
    },
    {
      "channel": 3,
      "note": 54,
      "start": 30.3629,
      "duration": 0.1817,
      "velocity": 102,
      "chip": "ym2612"
    },
    {
      "channel": 3,
      "note": 57,
      "start": 30.5448,
      "duration": 0.1982,
      "velocity": 102,
      "chip": "ym2612"
    },
    {
      "channel": 2,
      "note": 95,
      "start": 30.6432,
      "duration": 0.302,
      "velocity": 118,
      "chip": "ym2612"
    },
    {
      "channel": 3,
      "note": 61,
      "start": 30.7432,
      "duration": 4.2195,
      "velocity": 102,
      "chip": "ym2612"
    },
    {
      "channel": 0,
      "note": 54,
      "start": 30.8446,
      "duration": 0.5846,
      "velocity": 104,
      "chip": "ym2612"
    },
    {
      "channel": 1,
      "note": 31,
      "start": 30.9449,
      "duration": 0.4849,
      "velocity": 119,
      "chip": "ym2612"
    },
    {
      "channel": 2,
      "note": 98,
      "start": 30.9454,
      "duration": 0.2822,
      "velocity": 118,
      "chip": "ym2612"
    },
    {
      "channel": 2,
      "note": 95,
      "start": 31.2279,
      "duration": 0.2854,
      "velocity": 118,
      "chip": "ym2612"
    },
    {
      "channel": 0,
      "note": 49,
      "start": 31.4293,
      "duration": 0.0833,
      "velocity": 104,
      "chip": "ym2612"
    },
    {
      "channel": 1,
      "note": 31,
      "start": 31.4299,
      "duration": 0.268,
      "velocity": 119,
      "chip": "ym2612"
    },
    {
      "channel": 0,
      "note": 52,
      "start": 31.5128,
      "duration": 0.1846,
      "velocity": 104,
      "chip": "ym2612"
    },
    {
      "channel": 2,
      "note": 98,
      "start": 31.5135,
      "duration": 0.2692,
      "velocity": 118,
      "chip": "ym2612"
    },
    {
      "channel": 0,
      "note": 49,
      "start": 31.6975,
      "duration": 0.0845,
      "velocity": 104,
      "chip": "ym2612"
    },
    {
      "channel": 1,
      "note": 31,
      "start": 31.6981,
      "duration": 0.3857,
      "velocity": 119,
      "chip": "ym2612"
    },
    {
      "channel": 0,
      "note": 52,
      "start": 31.7823,
      "duration": 0.1997,
      "velocity": 104,
      "chip": "ym2612"
    },
    {
      "channel": 2,
      "note": 95,
      "start": 31.7829,
      "duration": 0.3015,
      "velocity": 118,
      "chip": "ym2612"
    },
    {
      "channel": 0,
      "note": 54,
      "start": 31.9822,
      "duration": 0.3857,
      "velocity": 104,
      "chip": "ym2612"
    },
    {
      "channel": 1,
      "note": 31,
      "start": 32.084,
      "duration": 0.2844,
      "velocity": 119,
      "chip": "ym2612"
    },
    {
      "channel": 2,
      "note": 98,
      "start": 32.0846,
      "duration": 0.2844,
      "velocity": 118,
      "chip": "ym2612"
    },
    {
      "channel": 0,
      "note": 52,
      "start": 32.368,
      "duration": 0.1986,
      "velocity": 104,
      "chip": "ym2612"
    },
    {
      "channel": 1,
      "note": 31,
      "start": 32.3686,
      "duration": 0.884,
      "velocity": 119,
      "chip": "ym2612"
    },
    {
      "channel": 2,
      "note": 95,
      "start": 32.3692,
      "duration": 0.2978,
      "velocity": 118,
      "chip": "ym2612"
    },
    {
      "channel": 0,
      "note": 51,
      "start": 32.5666,
      "duration": 0.016,
      "velocity": 104,
      "chip": "ym2612"
    },
    {
      "channel": 0,
      "note": 51,
      "start": 32.5826,
      "duration": 0.0333,
      "velocity": 104,
      "chip": "ym2612"
    },
    {
      "channel": 0,
      "note": 50,
      "start": 32.6159,
      "duration": 0.0167,
      "velocity": 104,
      "chip": "ym2612"
    },
    {
      "channel": 0,
      "note": 49,
      "start": 32.6326,
      "duration": 0.0167,
      "velocity": 104,
      "chip": "ym2612"
    },
    {
      "channel": 0,
      "note": 48,
      "start": 32.6493,
      "duration": 0.0171,
      "velocity": 104,
      "chip": "ym2612"
    },
    {
      "channel": 0,
      "note": 54,
      "start": 32.6665,
      "duration": 0.4859,
      "velocity": 104,
      "chip": "ym2612"
    },
    {
      "channel": 2,
      "note": 98,
      "start": 32.6671,
      "duration": 0.2839,
      "velocity": 118,
      "chip": "ym2612"
    },
    {
      "channel": 2,
      "note": 95,
      "start": 32.9511,
      "duration": 0.302,
      "velocity": 118,
      "chip": "ym2612"
    },
    {
      "channel": 0,
      "note": 54,
      "start": 33.1526,
      "duration": 0.5845,
      "velocity": 104,
      "chip": "ym2612"
    },
    {
      "channel": 1,
      "note": 31,
      "start": 33.2528,
      "duration": 0.4848,
      "velocity": 119,
      "chip": "ym2612"
    },
    {
      "channel": 2,
      "note": 98,
      "start": 33.2534,
      "duration": 0.2822,
      "velocity": 118,
      "chip": "ym2612"
    },
    {
      "channel": 2,
      "note": 95,
      "start": 33.5357,
      "duration": 0.2857,
      "velocity": 118,
      "chip": "ym2612"
    },
    {
      "channel": 0,
      "note": 54,
      "start": 33.7372,
      "duration": 0.0836,
      "velocity": 104,
      "chip": "ym2612"
    },
    {
      "channel": 1,
      "note": 31,
      "start": 33.7378,
      "duration": 0.2673,
      "velocity": 119,
      "chip": "ym2612"
    },
    {
      "channel": 0,
      "note": 57,
      "start": 33.821,
      "duration": 0.2684,
      "velocity": 104,
      "chip": "ym2612"
    },
    {
      "channel": 2,
      "note": 98,
      "start": 33.8216,
      "duration": 0.2684,
      "velocity": 118,
      "chip": "ym2612"
    },
    {
      "channel": 1,
      "note": 31,
      "start": 34.0053,
      "duration": 0.3693,
      "velocity": 119,
      "chip": "ym2612"
    },
    {
      "channel": 0,
      "note": 59,
      "start": 34.0896,
      "duration": 0.1847,
      "velocity": 104,
      "chip": "ym2612"
    },
    {
      "channel": 2,
      "note": 95,
      "start": 34.0902,
      "duration": 0.285,
      "velocity": 118,
      "chip": "ym2612"
    },
    {
      "channel": 0,
      "note": 58,
      "start": 34.2743,
      "duration": 0.016,
      "velocity": 104,
      "chip": "ym2612"
    },
    {
      "channel": 0,
      "note": 57,
      "start": 34.2902,
      "duration": 0.0333,
      "velocity": 104,
      "chip": "ym2612"
    },
    {
      "channel": 0,
      "note": 56,
      "start": 34.3236,
      "duration": 0.0167,
      "velocity": 104,
      "chip": "ym2612"
    },
    {
      "channel": 0,
      "note": 55,
      "start": 34.3402,
      "duration": 0.0167,
      "velocity": 104,
      "chip": "ym2612"
    },
    {
      "channel": 0,
      "note": 55,
      "start": 34.3569,
      "duration": 0.0171,
      "velocity": 104,
      "chip": "ym2612"
    },
    {
      "channel": 0,
      "note": 61,
      "start": 34.3742,
      "duration": 0.1839,
      "velocity": 104,
      "chip": "ym2612"
    },
    {
      "channel": 1,
      "note": 31,
      "start": 34.3748,
      "duration": 0.1855,
      "velocity": 119,
      "chip": "ym2612"
    },
    {
      "channel": 2,
      "note": 98,
      "start": 34.3753,
      "duration": 0.2866,
      "velocity": 118,
      "chip": "ym2612"
    },
    {
      "channel": 0,
      "note": 64,
      "start": 34.5583,
      "duration": 0.4016,
      "velocity": 104,
      "chip": "ym2612"
    },
    {
      "channel": 1,
      "note": 31,
      "start": 34.5605,
      "duration": 0.1009,
      "velocity": 119,
      "chip": "ym2612"
    },
    {
      "channel": 1,
      "note": 31,
      "start": 34.6616,
      "duration": 0.8831,
      "velocity": 119,
      "chip": "ym2612"
    },
    {
      "channel": 2,
      "note": 95,
      "start": 34.6621,
      "duration": 0.2985,
      "velocity": 118,
      "chip": "ym2612"
    },
    {
      "channel": 0,
      "note": 54,
      "start": 34.9601,
      "duration": 0.4843,
      "velocity": 104,
      "chip": "ym2612"
    },
    {
      "channel": 2,
      "note": 98,
      "start": 34.9608,
      "duration": 0.2822,
      "velocity": 118,
      "chip": "ym2612"
    },
    {
      "channel": 3,
      "note": 54,
      "start": 34.9629,
      "duration": 0.1817,
      "velocity": 102,
      "chip": "ym2612"
    },
    {
      "channel": 3,
      "note": 57,
      "start": 35.1448,
      "duration": 0.1982,
      "velocity": 102,
      "chip": "ym2612"
    },
    {
      "channel": 2,
      "note": 95,
      "start": 35.2432,
      "duration": 0.302,
      "velocity": 118,
      "chip": "ym2612"
    },
    {
      "channel": 3,
      "note": 60,
      "start": 35.3432,
      "duration": 4.2233,
      "velocity": 117,
      "chip": "ym2612"
    },
    {
      "channel": 0,
      "note": 54,
      "start": 35.4446,
      "duration": 0.5847,
      "velocity": 104,
      "chip": "ym2612"
    },
    {
      "channel": 1,
      "note": 31,
      "start": 35.5448,
      "duration": 0.4849,
      "velocity": 119,
      "chip": "ym2612"
    },
    {
      "channel": 2,
      "note": 98,
      "start": 35.5454,
      "duration": 0.2823,
      "velocity": 118,
      "chip": "ym2612"
    },
    {
      "channel": 2,
      "note": 95,
      "start": 35.8279,
      "duration": 0.2857,
      "velocity": 118,
      "chip": "ym2612"
    },
    {
      "channel": 0,
      "note": 49,
      "start": 36.0294,
      "duration": 0.0836,
      "velocity": 104,
      "chip": "ym2612"
    },
    {
      "channel": 1,
      "note": 31,
      "start": 36.03,
      "duration": 0.2683,
      "velocity": 119,
      "chip": "ym2612"
    },
    {
      "channel": 0,
      "note": 52,
      "start": 36.1132,
      "duration": 0.1846,
      "velocity": 104,
      "chip": "ym2612"
    },
    {
      "channel": 2,
      "note": 98,
      "start": 36.1138,
      "duration": 0.2701,
      "velocity": 118,
      "chip": "ym2612"
    },
    {
      "channel": 0,
      "note": 49,
      "start": 36.2978,
      "duration": 0.0855,
      "velocity": 104,
      "chip": "ym2612"
    },
    {
      "channel": 1,
      "note": 31,
      "start": 36.2984,
      "duration": 0.3866,
      "velocity": 119,
      "chip": "ym2612"
    },
    {
      "channel": 0,
      "note": 52,
      "start": 36.3834,
      "duration": 0.1997,
      "velocity": 104,
      "chip": "ym2612"
    },
    {
      "channel": 2,
      "note": 95,
      "start": 36.3841,
      "duration": 0.3015,
      "velocity": 118,
      "chip": "ym2612"
    },
    {
      "channel": 0,
      "note": 54,
      "start": 36.5834,
      "duration": 0.386,
      "velocity": 104,
      "chip": "ym2612"
    },
    {
      "channel": 1,
      "note": 31,
      "start": 36.6851,
      "duration": 0.2848,
      "velocity": 119,
      "chip": "ym2612"
    },
    {
      "channel": 2,
      "note": 98,
      "start": 36.6857,
      "duration": 0.2848,
      "velocity": 118,
      "chip": "ym2612"
    },
    {
      "channel": 0,
      "note": 52,
      "start": 36.9695,
      "duration": 0.1986,
      "velocity": 104,
      "chip": "ym2612"
    },
    {
      "channel": 1,
      "note": 31,
      "start": 36.9701,
      "duration": 0.8842,
      "velocity": 119,
      "chip": "ym2612"
    },
    {
      "channel": 2,
      "note": 95,
      "start": 36.9707,
      "duration": 0.2978,
      "velocity": 118,
      "chip": "ym2612"
    },
    {
      "channel": 0,
      "note": 51,
      "start": 37.1681,
      "duration": 0.016,
      "velocity": 104,
      "chip": "ym2612"
    },
    {
      "channel": 0,
      "note": 51,
      "start": 37.1841,
      "duration": 0.0333,
      "velocity": 104,
      "chip": "ym2612"
    },
    {
      "channel": 0,
      "note": 50,
      "start": 37.2174,
      "duration": 0.0167,
      "velocity": 104,
      "chip": "ym2612"
    },
    {
      "channel": 0,
      "note": 49,
      "start": 37.2341,
      "duration": 0.0167,
      "velocity": 104,
      "chip": "ym2612"
    },
    {
      "channel": 0,
      "note": 48,
      "start": 37.2508,
      "duration": 0.0171,
      "velocity": 104,
      "chip": "ym2612"
    },
    {
      "channel": 0,
      "note": 54,
      "start": 37.268,
      "duration": 0.4861,
      "velocity": 104,
      "chip": "ym2612"
    },
    {
      "channel": 2,
      "note": 98,
      "start": 37.2686,
      "duration": 0.284,
      "velocity": 118,
      "chip": "ym2612"
    },
    {
      "channel": 2,
      "note": 95,
      "start": 37.5528,
      "duration": 0.302,
      "velocity": 118,
      "chip": "ym2612"
    },
    {
      "channel": 0,
      "note": 54,
      "start": 37.7543,
      "duration": 0.5844,
      "velocity": 104,
      "chip": "ym2612"
    },
    {
      "channel": 1,
      "note": 31,
      "start": 37.8545,
      "duration": 0.4848,
      "velocity": 119,
      "chip": "ym2612"
    },
    {
      "channel": 2,
      "note": 98,
      "start": 37.8551,
      "duration": 0.2822,
      "velocity": 118,
      "chip": "ym2612"
    },
    {
      "channel": 2,
      "note": 95,
      "start": 38.1374,
      "duration": 0.2854,
      "velocity": 118,
      "chip": "ym2612"
    },
    {
      "channel": 0,
      "note": 54,
      "start": 38.3389,
      "duration": 0.0833,
      "velocity": 104,
      "chip": "ym2612"
    },
    {
      "channel": 1,
      "note": 31,
      "start": 38.3394,
      "duration": 0.2677,
      "velocity": 119,
      "chip": "ym2612"
    },
    {
      "channel": 0,
      "note": 57,
      "start": 38.4224,
      "duration": 0.2691,
      "velocity": 104,
      "chip": "ym2612"
    },
    {
      "channel": 2,
      "note": 98,
      "start": 38.423,
      "duration": 0.2691,
      "velocity": 118,
      "chip": "ym2612"
    },
    {
      "channel": 1,
      "note": 31,
      "start": 38.6074,
      "duration": 0.3695,
      "velocity": 119,
      "chip": "ym2612"
    },
    {
      "channel": 0,
      "note": 59,
      "start": 38.6917,
      "duration": 0.1849,
      "velocity": 104,
      "chip": "ym2612"
    },
    {
      "channel": 2,
      "note": 95,
      "start": 38.6923,
      "duration": 0.2851,
      "velocity": 118,
      "chip": "ym2612"
    },
    {
      "channel": 0,
      "note": 58,
      "start": 38.8765,
      "duration": 0.016,
      "velocity": 104,
      "chip": "ym2612"
    },
    {
      "channel": 0,
      "note": 57,
      "start": 38.8925,
      "duration": 0.0333,
      "velocity": 104,
      "chip": "ym2612"
    },
    {
      "channel": 0,
      "note": 56,
      "start": 38.9258,
      "duration": 0.0167,
      "velocity": 104,
      "chip": "ym2612"
    },
    {
      "channel": 0,
      "note": 55,
      "start": 38.9425,
      "duration": 0.0167,
      "velocity": 104,
      "chip": "ym2612"
    },
    {
      "channel": 0,
      "note": 55,
      "start": 38.9592,
      "duration": 0.0171,
      "velocity": 104,
      "chip": "ym2612"
    },
    {
      "channel": 0,
      "note": 61,
      "start": 38.9765,
      "duration": 0.1839,
      "velocity": 104,
      "chip": "ym2612"
    },
    {
      "channel": 1,
      "note": 31,
      "start": 38.9771,
      "duration": 0.1855,
      "velocity": 119,
      "chip": "ym2612"
    },
    {
      "channel": 2,
      "note": 98,
      "start": 38.9776,
      "duration": 0.2866,
      "velocity": 118,
      "chip": "ym2612"
    },
    {
      "channel": 0,
      "note": 64,
      "start": 39.1606,
      "duration": 0.4016,
      "velocity": 104,
      "chip": "ym2612"
    },
    {
      "channel": 1,
      "note": 31,
      "start": 39.1627,
      "duration": 0.1009,
      "velocity": 119,
      "chip": "ym2612"
    },
    {
      "channel": 1,
      "note": 31,
      "start": 39.2638,
      "duration": 0.8824,
      "velocity": 119,
      "chip": "ym2612"
    },
    {
      "channel": 2,
      "note": 95,
      "start": 39.2643,
      "duration": 0.3001,
      "velocity": 117,
      "chip": "ym2612"
    },
    {
      "channel": 0,
      "note": 59,
      "start": 39.5623,
      "duration": 0.4837,
      "velocity": 104,
      "chip": "ym2612"
    },
    {
      "channel": 2,
      "note": 59,
      "start": 39.5645,
      "duration": 0.1815,
      "velocity": 117,
      "chip": "ym2612"
    },
    {
      "channel": 3,
      "note": 100,
      "start": 39.5667,
      "duration": 0.2784,
      "velocity": 117,
      "chip": "ym2612"
    },
    {
      "channel": 4,
      "note": 98,
      "start": 39.5688,
      "duration": 0.2768,
      "velocity": 118,
      "chip": "ym2612"
    },
    {
      "channel": 2,
      "note": 57,
      "start": 39.7463,
      "duration": 0.0983,
      "velocity": 117,
      "chip": "ym2612"
    },
    {
      "channel": 2,
      "note": 59,
      "start": 39.8447,
      "duration": 0.2019,
      "velocity": 117,
      "chip": "ym2612"
    },
    {
      "channel": 3,
      "note": 100,
      "start": 39.8453,
      "duration": 0.4839,
      "velocity": 117,
      "chip": "ym2612"
    },
    {
      "channel": 4,
      "note": 95,
      "start": 39.8459,
      "duration": 0.301,
      "velocity": 118,
      "chip": "ym2612"
    },
    {
      "channel": 0,
      "note": 59,
      "start": 40.0461,
      "duration": 0.5845,
      "velocity": 104,
      "chip": "ym2612"
    },
    {
      "channel": 2,
      "note": 66,
      "start": 40.0468,
      "duration": 0.585,
      "velocity": 117,
      "chip": "ym2612"
    },
    {
      "channel": 1,
      "note": 31,
      "start": 40.1464,
      "duration": 0.4848,
      "velocity": 119,
      "chip": "ym2612"
    },
    {
      "channel": 4,
      "note": 98,
      "start": 40.1471,
      "duration": 0.2822,
      "velocity": 118,
      "chip": "ym2612"
    },
    {
      "channel": 3,
      "note": 100,
      "start": 40.3293,
      "duration": 0.3851,
      "velocity": 117,
      "chip": "ym2612"
    },
    {
      "channel": 4,
      "note": 95,
      "start": 40.4294,
      "duration": 0.2856,
      "velocity": 118,
      "chip": "ym2612"
    },
    {
      "channel": 0,
      "note": 54,
      "start": 40.6308,
      "duration": 0.0824,
      "velocity": 104,
      "chip": "ym2612"
    },
    {
      "channel": 1,
      "note": 31,
      "start": 40.6314,
      "duration": 0.2664,
      "velocity": 119,
      "chip": "ym2612"
    },
    {
      "channel": 2,
      "note": 66,
      "start": 40.6319,
      "duration": 0.082,
      "velocity": 117,
      "chip": "ym2612"
    },
    {
      "channel": 0,
      "note": 57,
      "start": 40.7134,
      "duration": 0.1839,
      "velocity": 104,
      "chip": "ym2612"
    },
    {
      "channel": 2,
      "note": 69,
      "start": 40.714,
      "duration": 0.2686,
      "velocity": 117,
      "chip": "ym2612"
    },
    {
      "channel": 3,
      "note": 100,
      "start": 40.7146,
      "duration": 0.2686,
      "velocity": 117,
      "chip": "ym2612"
    },
    {
      "channel": 4,
      "note": 98,
      "start": 40.7151,
      "duration": 0.2687,
      "velocity": 118,
      "chip": "ym2612"
    },
    {
      "channel": 0,
      "note": 54,
      "start": 40.8974,
      "duration": 0.0846,
      "velocity": 104,
      "chip": "ym2612"
    },
    {
      "channel": 1,
      "note": 31,
      "start": 40.898,
      "duration": 0.3858,
      "velocity": 119,
      "chip": "ym2612"
    },
    {
      "channel": 0,
      "note": 57,
      "start": 40.9822,
      "duration": 0.1997,
      "velocity": 104,
      "chip": "ym2612"
    },
    {
      "channel": 2,
      "note": 68,
      "start": 40.9829,
      "duration": 0.3014,
      "velocity": 117,
      "chip": "ym2612"
    },
    {
      "channel": 3,
      "note": 100,
      "start": 40.9834,
      "duration": 0.484,
      "velocity": 117,
      "chip": "ym2612"
    },
    {
      "channel": 4,
      "note": 95,
      "start": 40.9839,
      "duration": 0.301,
      "velocity": 118,
      "chip": "ym2612"
    },
    {
      "channel": 0,
      "note": 59,
      "start": 41.1821,
      "duration": 0.3863,
      "velocity": 104,
      "chip": "ym2612"
    },
    {
      "channel": 1,
      "note": 31,
      "start": 41.2839,
      "duration": 0.2851,
      "velocity": 119,
      "chip": "ym2612"
    },
    {
      "channel": 2,
      "note": 64,
      "start": 41.2845,
      "duration": 0.1824,
      "velocity": 117,
      "chip": "ym2612"
    },
    {
      "channel": 4,
      "note": 98,
      "start": 41.2851,
      "duration": 0.2846,
      "velocity": 118,
      "chip": "ym2612"
    },
    {
      "channel": 2,
      "note": 62,
      "start": 41.4671,
      "duration": 0.4004,
      "velocity": 117,
      "chip": "ym2612"
    },
    {
      "channel": 3,
      "note": 100,
      "start": 41.4676,
      "duration": 0.4004,
      "velocity": 117,
      "chip": "ym2612"
    },
    {
      "channel": 0,
      "note": 57,
      "start": 41.5686,
      "duration": 0.1985,
      "velocity": 104,
      "chip": "ym2612"
    },
    {
      "channel": 1,
      "note": 31,
      "start": 41.5692,
      "duration": 0.8841,
      "velocity": 119,
      "chip": "ym2612"
    },
    {
      "channel": 4,
      "note": 95,
      "start": 41.5699,
      "duration": 0.2987,
      "velocity": 118,
      "chip": "ym2612"
    },
    {
      "channel": 0,
      "note": 56,
      "start": 41.7671,
      "duration": 0.016,
      "velocity": 104,
      "chip": "ym2612"
    },
    {
      "channel": 0,
      "note": 55,
      "start": 41.7831,
      "duration": 0.0333,
      "velocity": 104,
      "chip": "ym2612"
    },
    {
      "channel": 0,
      "note": 55,
      "start": 41.8164,
      "duration": 0.0167,
      "velocity": 104,
      "chip": "ym2612"
    },
    {
      "channel": 0,
      "note": 54,
      "start": 41.8331,
      "duration": 0.0167,
      "velocity": 104,
      "chip": "ym2612"
    },
    {
      "channel": 0,
      "note": 54,
      "start": 41.8498,
      "duration": 0.0171,
      "velocity": 104,
      "chip": "ym2612"
    },
    {
      "channel": 0,
      "note": 59,
      "start": 41.867,
      "duration": 0.4861,
      "velocity": 104,
      "chip": "ym2612"
    },
    {
      "channel": 2,
      "note": 59,
      "start": 41.8676,
      "duration": 0.1855,
      "velocity": 117,
      "chip": "ym2612"
    },
    {
      "channel": 3,
      "note": 100,
      "start": 41.8682,
      "duration": 0.284,
      "velocity": 117,
      "chip": "ym2612"
    },
    {
      "channel": 4,
      "note": 98,
      "start": 41.8688,
      "duration": 0.284,
      "velocity": 118,
      "chip": "ym2612"
    },
    {
      "channel": 2,
      "note": 57,
      "start": 42.0534,
      "duration": 0.0983,
      "velocity": 117,
      "chip": "ym2612"
    },
    {
      "channel": 2,
      "note": 59,
      "start": 42.1518,
      "duration": 0.2019,
      "velocity": 117,
      "chip": "ym2612"
    },
    {
      "channel": 3,
      "note": 100,
      "start": 42.1524,
      "duration": 0.4842,
      "velocity": 117,
      "chip": "ym2612"
    },
    {
      "channel": 4,
      "note": 95,
      "start": 42.153,
      "duration": 0.301,
      "velocity": 118,
      "chip": "ym2612"
    },
    {
      "channel": 0,
      "note": 59,
      "start": 42.3532,
      "duration": 0.5844,
      "velocity": 104,
      "chip": "ym2612"
    },
    {
      "channel": 2,
      "note": 66,
      "start": 42.3539,
      "duration": 0.2822,
      "velocity": 117,
      "chip": "ym2612"
    },
    {
      "channel": 1,
      "note": 31,
      "start": 42.4534,
      "duration": 0.4848,
      "velocity": 119,
      "chip": "ym2612"
    },
    {
      "channel": 4,
      "note": 98,
      "start": 42.4541,
      "duration": 0.2821,
      "velocity": 118,
      "chip": "ym2612"
    },
    {
      "channel": 2,
      "note": 59,
      "start": 42.6362,
      "duration": 0.3025,
      "velocity": 117,
      "chip": "ym2612"
    },
    {
      "channel": 3,
      "note": 100,
      "start": 42.6368,
      "duration": 0.3847,
      "velocity": 117,
      "chip": "ym2612"
    },
    {
      "channel": 4,
      "note": 95,
      "start": 42.7364,
      "duration": 0.2856,
      "velocity": 118,
      "chip": "ym2612"
    },
    {
      "channel": 0,
      "note": 59,
      "start": 42.9378,
      "duration": 0.0825,
      "velocity": 104,
      "chip": "ym2612"
    },
    {
      "channel": 1,
      "note": 31,
      "start": 42.9383,
      "duration": 0.2659,
      "velocity": 119,
      "chip": "ym2612"
    },
    {
      "channel": 2,
      "note": 54,
      "start": 42.9388,
      "duration": 0.0821,
      "velocity": 117,
      "chip": "ym2612"
    },
    {
      "channel": 0,
      "note": 62,
      "start": 43.0205,
      "duration": 0.2683,
      "velocity": 104,
      "chip": "ym2612"
    },
    {
      "channel": 2,
      "note": 57,
      "start": 43.0211,
      "duration": 0.1837,
      "velocity": 117,
      "chip": "ym2612"
    },
    {
      "channel": 3,
      "note": 100,
      "start": 43.0216,
      "duration": 0.2684,
      "velocity": 117,
      "chip": "ym2612"
    },
    {
      "channel": 4,
      "note": 98,
      "start": 43.0222,
      "duration": 0.2683,
      "velocity": 118,
      "chip": "ym2612"
    },
    {
      "channel": 1,
      "note": 31,
      "start": 43.2044,
      "duration": 0.369,
      "velocity": 119,
      "chip": "ym2612"
    },
    {
      "channel": 2,
      "note": 56,
      "start": 43.205,
      "duration": 0.0845,
      "velocity": 117,
      "chip": "ym2612"
    },
    {
      "channel": 0,
      "note": 64,
      "start": 43.289,
      "duration": 0.1846,
      "velocity": 104,
      "chip": "ym2612"
    },
    {
      "channel": 2,
      "note": 57,
      "start": 43.2896,
      "duration": 0.1834,
      "velocity": 117,
      "chip": "ym2612"
    },
    {
      "channel": 3,
      "note": 100,
      "start": 43.2902,
      "duration": 0.4709,
      "velocity": 117,
      "chip": "ym2612"
    },
    {
      "channel": 4,
      "note": 95,
      "start": 43.2907,
      "duration": 0.2834,
      "velocity": 118,
      "chip": "ym2612"
    },
    {
      "channel": 2,
      "note": 64,
      "start": 43.4731,
      "duration": 0.2874,
      "velocity": 117,
      "chip": "ym2612"
    },
    {
      "channel": 0,
      "note": 63,
      "start": 43.4736,
      "duration": 0.0154,
      "velocity": 104,
      "chip": "ym2612"
    },
    {
      "channel": 0,
      "note": 63,
      "start": 43.489,
      "duration": 0.0333,
      "velocity": 104,
      "chip": "ym2612"
    },
    {
      "channel": 0,
      "note": 62,
      "start": 43.5224,
      "duration": 0.0167,
      "velocity": 104,
      "chip": "ym2612"
    },
    {
      "channel": 0,
      "note": 61,
      "start": 43.539,
      "duration": 0.0167,
      "velocity": 104,
      "chip": "ym2612"
    },
    {
      "channel": 0,
      "note": 60,
      "start": 43.5557,
      "duration": 0.0172,
      "velocity": 104,
      "chip": "ym2612"
    },
    {
      "channel": 0,
      "note": 66,
      "start": 43.573,
      "duration": 0.1848,
      "velocity": 104,
      "chip": "ym2612"
    },
    {
      "channel": 1,
      "note": 31,
      "start": 43.5736,
      "duration": 0.1864,
      "velocity": 119,
      "chip": "ym2612"
    },
    {
      "channel": 4,
      "note": 98,
      "start": 43.5743,
      "duration": 0.2874,
      "velocity": 118,
      "chip": "ym2612"
    },
    {
      "channel": 0,
      "note": 69,
      "start": 43.758,
      "duration": 0.4015,
      "velocity": 104,
      "chip": "ym2612"
    },
    {
      "channel": 1,
      "note": 31,
      "start": 43.7601,
      "duration": 0.1009,
      "velocity": 119,
      "chip": "ym2612"
    },
    {
      "channel": 2,
      "note": 57,
      "start": 43.7606,
      "duration": 0.3996,
      "velocity": 117,
      "chip": "ym2612"
    },
    {
      "channel": 3,
      "note": 100,
      "start": 43.7612,
      "duration": 0.3996,
      "velocity": 117,
      "chip": "ym2612"
    },
    {
      "channel": 1,
      "note": 31,
      "start": 43.8612,
      "duration": 0.8821,
      "velocity": 119,
      "chip": "ym2612"
    },
    {
      "channel": 4,
      "note": 95,
      "start": 43.8619,
      "duration": 0.2995,
      "velocity": 118,
      "chip": "ym2612"
    },
    {
      "channel": 0,
      "note": 59,
      "start": 44.1597,
      "duration": 0.4834,
      "velocity": 104,
      "chip": "ym2612"
    },
    {
      "channel": 2,
      "note": 59,
      "start": 44.1604,
      "duration": 0.1827,
      "velocity": 117,
      "chip": "ym2612"
    },
    {
      "channel": 3,
      "note": 100,
      "start": 44.161,
      "duration": 0.2812,
      "velocity": 117,
      "chip": "ym2612"
    },
    {
      "channel": 4,
      "note": 98,
      "start": 44.1616,
      "duration": 0.2811,
      "velocity": 118,
      "chip": "ym2612"
    },
    {
      "channel": 2,
      "note": 57,
      "start": 44.3433,
      "duration": 0.0983,
      "velocity": 117,
      "chip": "ym2612"
    },
    {
      "channel": 2,
      "note": 59,
      "start": 44.4418,
      "duration": 0.2019,
      "velocity": 117,
      "chip": "ym2612"
    },
    {
      "channel": 3,
      "note": 100,
      "start": 44.4424,
      "duration": 0.4839,
      "velocity": 117,
      "chip": "ym2612"
    },
    {
      "channel": 4,
      "note": 95,
      "start": 44.4429,
      "duration": 0.301,
      "velocity": 118,
      "chip": "ym2612"
    },
    {
      "channel": 0,
      "note": 59,
      "start": 44.6432,
      "duration": 0.5845,
      "velocity": 104,
      "chip": "ym2612"
    },
    {
      "channel": 2,
      "note": 66,
      "start": 44.6438,
      "duration": 0.585,
      "velocity": 117,
      "chip": "ym2612"
    },
    {
      "channel": 1,
      "note": 31,
      "start": 44.7434,
      "duration": 0.4848,
      "velocity": 119,
      "chip": "ym2612"
    },
    {
      "channel": 4,
      "note": 98,
      "start": 44.7441,
      "duration": 0.2822,
      "velocity": 118,
      "chip": "ym2612"
    },
    {
      "channel": 3,
      "note": 100,
      "start": 44.9264,
      "duration": 0.3851,
      "velocity": 117,
      "chip": "ym2612"
    },
    {
      "channel": 4,
      "note": 95,
      "start": 45.0265,
      "duration": 0.2855,
      "velocity": 118,
      "chip": "ym2612"
    },
    {
      "channel": 0,
      "note": 54,
      "start": 45.2279,
      "duration": 0.0824,
      "velocity": 104,
      "chip": "ym2612"
    },
    {
      "channel": 1,
      "note": 31,
      "start": 45.2285,
      "duration": 0.2663,
      "velocity": 119,
      "chip": "ym2612"
    },
    {
      "channel": 2,
      "note": 66,
      "start": 45.229,
      "duration": 0.082,
      "velocity": 117,
      "chip": "ym2612"
    },
    {
      "channel": 0,
      "note": 57,
      "start": 45.3105,
      "duration": 0.1837,
      "velocity": 104,
      "chip": "ym2612"
    },
    {
      "channel": 2,
      "note": 69,
      "start": 45.3111,
      "duration": 0.2685,
      "velocity": 117,
      "chip": "ym2612"
    },
    {
      "channel": 3,
      "note": 100,
      "start": 45.3116,
      "duration": 0.2685,
      "velocity": 117,
      "chip": "ym2612"
    },
    {
      "channel": 4,
      "note": 98,
      "start": 45.3122,
      "duration": 0.2685,
      "velocity": 118,
      "chip": "ym2612"
    },
    {
      "channel": 0,
      "note": 54,
      "start": 45.4944,
      "duration": 0.0847,
      "velocity": 104,
      "chip": "ym2612"
    },
    {
      "channel": 1,
      "note": 31,
      "start": 45.4949,
      "duration": 0.3858,
      "velocity": 119,
      "chip": "ym2612"
    },
    {
      "channel": 0,
      "note": 57,
      "start": 45.5791,
      "duration": 0.1997,
      "velocity": 104,
      "chip": "ym2612"
    },
    {
      "channel": 2,
      "note": 68,
      "start": 45.5798,
      "duration": 0.3014,
      "velocity": 117,
      "chip": "ym2612"
    },
    {
      "channel": 3,
      "note": 100,
      "start": 45.5804,
      "duration": 0.484,
      "velocity": 117,
      "chip": "ym2612"
    },
    {
      "channel": 4,
      "note": 95,
      "start": 45.5809,
      "duration": 0.301,
      "velocity": 118,
      "chip": "ym2612"
    },
    {
      "channel": 0,
      "note": 59,
      "start": 45.779,
      "duration": 0.3863,
      "velocity": 104,
      "chip": "ym2612"
    },
    {
      "channel": 1,
      "note": 31,
      "start": 45.8808,
      "duration": 0.2851,
      "velocity": 119,
      "chip": "ym2612"
    },
    {
      "channel": 2,
      "note": 64,
      "start": 45.8814,
      "duration": 0.1824,
      "velocity": 117,
      "chip": "ym2612"
    },
    {
      "channel": 4,
      "note": 98,
      "start": 45.882,
      "duration": 0.2846,
      "velocity": 118,
      "chip": "ym2612"
    },
    {
      "channel": 2,
      "note": 62,
      "start": 46.064,
      "duration": 0.4004,
      "velocity": 117,
      "chip": "ym2612"
    },
    {
      "channel": 3,
      "note": 100,
      "start": 46.0646,
      "duration": 0.4004,
      "velocity": 117,
      "chip": "ym2612"
    },
    {
      "channel": 0,
      "note": 57,
      "start": 46.1655,
      "duration": 0.1985,
      "velocity": 104,
      "chip": "ym2612"
    },
    {
      "channel": 1,
      "note": 31,
      "start": 46.1661,
      "duration": 0.8844,
      "velocity": 119,
      "chip": "ym2612"
    },
    {
      "channel": 4,
      "note": 95,
      "start": 46.1668,
      "duration": 0.2987,
      "velocity": 118,
      "chip": "ym2612"
    },
    {
      "channel": 0,
      "note": 56,
      "start": 46.364,
      "duration": 0.016,
      "velocity": 104,
      "chip": "ym2612"
    },
    {
      "channel": 0,
      "note": 55,
      "start": 46.38,
      "duration": 0.0333,
      "velocity": 104,
      "chip": "ym2612"
    },
    {
      "channel": 0,
      "note": 55,
      "start": 46.4133,
      "duration": 0.0167,
      "velocity": 104,
      "chip": "ym2612"
    },
    {
      "channel": 0,
      "note": 54,
      "start": 46.43,
      "duration": 0.0167,
      "velocity": 104,
      "chip": "ym2612"
    },
    {
      "channel": 0,
      "note": 54,
      "start": 46.4467,
      "duration": 0.0171,
      "velocity": 104,
      "chip": "ym2612"
    },
    {
      "channel": 0,
      "note": 59,
      "start": 46.464,
      "duration": 0.4863,
      "velocity": 104,
      "chip": "ym2612"
    },
    {
      "channel": 2,
      "note": 59,
      "start": 46.4646,
      "duration": 0.1858,
      "velocity": 117,
      "chip": "ym2612"
    },
    {
      "channel": 3,
      "note": 100,
      "start": 46.4651,
      "duration": 0.2843,
      "velocity": 117,
      "chip": "ym2612"
    },
    {
      "channel": 4,
      "note": 98,
      "start": 46.4657,
      "duration": 0.2843,
      "velocity": 118,
      "chip": "ym2612"
    },
    {
      "channel": 2,
      "note": 57,
      "start": 46.6506,
      "duration": 0.0983,
      "velocity": 117,
      "chip": "ym2612"
    },
    {
      "channel": 2,
      "note": 59,
      "start": 46.749,
      "duration": 0.2019,
      "velocity": 117,
      "chip": "ym2612"
    },
    {
      "channel": 3,
      "note": 100,
      "start": 46.7496,
      "duration": 0.4837,
      "velocity": 117,
      "chip": "ym2612"
    },
    {
      "channel": 4,
      "note": 95,
      "start": 46.7502,
      "duration": 0.301,
      "velocity": 118,
      "chip": "ym2612"
    },
    {
      "channel": 0,
      "note": 59,
      "start": 46.9505,
      "duration": 0.5844,
      "velocity": 104,
      "chip": "ym2612"
    },
    {
      "channel": 2,
      "note": 66,
      "start": 46.9511,
      "duration": 0.6694,
      "velocity": 97,
      "chip": "ym2612"
    },
    {
      "channel": 1,
      "note": 31,
      "start": 47.0506,
      "duration": 0.4847,
      "velocity": 119,
      "chip": "ym2612"
    },
    {
      "channel": 4,
      "note": 98,
      "start": 47.0513,
      "duration": 0.2821,
      "velocity": 118,
      "chip": "ym2612"
    },
    {
      "channel": 3,
      "note": 100,
      "start": 47.2335,
      "duration": 0.3875,
      "velocity": 117,
      "chip": "ym2612"
    },
    {
      "channel": 4,
      "note": 95,
      "start": 47.3336,
      "duration": 0.288,
      "velocity": 118,
      "chip": "ym2612"
    },
    {
      "channel": 0,
      "note": 59,
      "start": 47.5349,
      "duration": 0.0834,
      "velocity": 104,
      "chip": "ym2612"
    },
    {
      "channel": 1,
      "note": 31,
      "start": 47.5355,
      "duration": 0.2666,
      "velocity": 119,
      "chip": "ym2612"
    },
    {
      "channel": 0,
      "note": 62,
      "start": 47.6185,
      "duration": 0.2682,
      "velocity": 104,
      "chip": "ym2612"
    },
    {
      "channel": 2,
      "note": 88,
      "start": 47.6207,
      "duration": 0.0816,
      "velocity": 97,
      "chip": "ym2612"
    },
    {
      "channel": 3,
      "note": 100,
      "start": 47.6212,
      "duration": 0.2666,
      "velocity": 117,
      "chip": "ym2612"
    },
    {
      "channel": 4,
      "note": 98,
      "start": 47.6218,
      "duration": 0.2666,
      "velocity": 118,
      "chip": "ym2612"
    },
    {
      "channel": 2,
      "note": 76,
      "start": 47.7024,
      "duration": 0.1002,
      "velocity": 97,
      "chip": "ym2612"
    },
    {
      "channel": 1,
      "note": 31,
      "start": 47.8023,
      "duration": 0.3688,
      "velocity": 119,
      "chip": "ym2612"
    },
    {
      "channel": 2,
      "note": 64,
      "start": 47.8029,
      "duration": 0.0844,
      "velocity": 97,
      "chip": "ym2612"
    },
    {
      "channel": 0,
      "note": 64,
      "start": 47.8868,
      "duration": 0.1844,
      "velocity": 104,
      "chip": "ym2612"
    },
    {
      "channel": 2,
      "note": 89,
      "start": 47.8875,
      "duration": 0.0831,
      "velocity": 97,
      "chip": "ym2612"
    },
    {
      "channel": 3,
      "note": 100,
      "start": 47.888,
      "duration": 0.47,
      "velocity": 117,
      "chip": "ym2612"
    },
    {
      "channel": 4,
      "note": 95,
      "start": 47.8886,
      "duration": 0.2837,
      "velocity": 118,
      "chip": "ym2612"
    },
    {
      "channel": 2,
      "note": 77,
      "start": 47.9707,
      "duration": 0.0999,
      "velocity": 97,
      "chip": "ym2612"
    },
    {
      "channel": 2,
      "note": 65,
      "start": 48.0707,
      "duration": 0.1009,
      "velocity": 97,
      "chip": "ym2612"
    },
    {
      "channel": 0,
      "note": 63,
      "start": 48.0713,
      "duration": 0.0154,
      "velocity": 104,
      "chip": "ym2612"
    },
    {
      "channel": 0,
      "note": 63,
      "start": 48.0867,
      "duration": 0.0333,
      "velocity": 104,
      "chip": "ym2612"
    },
    {
      "channel": 0,
      "note": 62,
      "start": 48.12,
      "duration": 0.0167,
      "velocity": 104,
      "chip": "ym2612"
    },
    {
      "channel": 0,
      "note": 61,
      "start": 48.1367,
      "duration": 0.0167,
      "velocity": 104,
      "chip": "ym2612"
    },
    {
      "channel": 0,
      "note": 60,
      "start": 48.1534,
      "duration": 0.0172,
      "velocity": 104,
      "chip": "ym2612"
    },
    {
      "channel": 0,
      "note": 66,
      "start": 48.1707,
      "duration": 0.1841,
      "velocity": 104,
      "chip": "ym2612"
    },
    {
      "channel": 1,
      "note": 31,
      "start": 48.1713,
      "duration": 0.1856,
      "velocity": 119,
      "chip": "ym2612"
    },
    {
      "channel": 2,
      "note": 90,
      "start": 48.1718,
      "duration": 0.0831,
      "velocity": 97,
      "chip": "ym2612"
    },
    {
      "channel": 4,
      "note": 98,
      "start": 48.1724,
      "duration": 0.2868,
      "velocity": 118,
      "chip": "ym2612"
    },
    {
      "channel": 2,
      "note": 78,
      "start": 48.255,
      "duration": 0.1024,
      "velocity": 97,
      "chip": "ym2612"
    },
    {
      "channel": 0,
      "note": 69,
      "start": 48.3549,
      "duration": 0.4015,
      "velocity": 104,
      "chip": "ym2612"
    },
    {
      "channel": 1,
      "note": 31,
      "start": 48.3571,
      "duration": 0.1009,
      "velocity": 119,
      "chip": "ym2612"
    },
    {
      "channel": 2,
      "note": 66,
      "start": 48.3576,
      "duration": 0.101,
      "velocity": 97,
      "chip": "ym2612"
    },
    {
      "channel": 3,
      "note": 100,
      "start": 48.3582,
      "duration": 0.4046,
      "velocity": 97,
      "chip": "ym2612"
    },
    {
      "channel": 1,
      "note": 31,
      "start": 48.4582,
      "duration": 0.3004,
      "velocity": 97,
      "chip": "ym2612"
    },
    {
      "channel": 2,
      "note": 93,
      "start": 48.4587,
      "duration": 0.0961,
      "velocity": 97,
      "chip": "ym2612"
    },
    {
      "channel": 4,
      "note": 95,
      "start": 48.4593,
      "duration": 0.8825,
      "velocity": 119,
      "chip": "ym2612"
    },
    {
      "channel": 2,
      "note": 94,
      "start": 48.555,
      "duration": 0.0998,
      "velocity": 97,
      "chip": "ym2612"
    },
    {
      "channel": 2,
      "note": 95,
      "start": 48.655,
      "duration": 0.1057,
      "velocity": 118,
      "chip": "ym2612"
    },
    {
      "channel": 0,
      "note": 54,
      "start": 48.7566,
      "duration": 0.4827,
      "velocity": 104,
      "chip": "ym2612"
    },
    {
      "channel": 1,
      "note": 96,
      "start": 48.7587,
      "duration": 0.1806,
      "velocity": 97,
      "chip": "ym2612"
    },
    {
      "channel": 2,
      "note": 98,
      "start": 48.7608,
      "duration": 0.2775,
      "velocity": 118,
      "chip": "ym2612"
    },
    {
      "channel": 3,
      "note": 90,
      "start": 48.763,
      "duration": 0.1769,
      "velocity": 97,
      "chip": "ym2612"
    },
    {
      "channel": 1,
      "note": 95,
      "start": 48.9395,
      "duration": 0.0983,
      "velocity": 97,
      "chip": "ym2612"
    },
    {
      "channel": 3,
      "note": 90,
      "start": 48.9401,
      "duration": 0.0988,
      "velocity": 97,
      "chip": "ym2612"
    },
    {
      "channel": 1,
      "note": 93,
      "start": 49.038,
      "duration": 0.2019,
      "velocity": 97,
      "chip": "ym2612"
    },
    {
      "channel": 2,
      "note": 95,
      "start": 49.0385,
      "duration": 0.301,
      "velocity": 118,
      "chip": "ym2612"
    },
    {
      "channel": 3,
      "note": 88,
      "start": 49.0391,
      "duration": 0.2013,
      "velocity": 97,
      "chip": "ym2612"
    },
    {
      "channel": 0,
      "note": 54,
      "start": 49.2394,
      "duration": 0.5846,
      "velocity": 104,
      "chip": "ym2612"
    },
    {
      "channel": 1,
      "note": 90,
      "start": 49.24,
      "duration": 0.3825,
      "velocity": 97,
      "chip": "ym2612"
    },
    {
      "channel": 3,
      "note": 85,
      "start": 49.2406,
      "duration": 0.3829,
      "velocity": 97,
      "chip": "ym2612"
    },
    {
      "channel": 2,
      "note": 98,
      "start": 49.3398,
      "duration": 0.2832,
      "velocity": 118,
      "chip": "ym2612"
    },
    {
      "channel": 4,
      "note": 31,
      "start": 49.342,
      "duration": 0.4838,
      "velocity": 119,
      "chip": "ym2612"
    },
    {
      "channel": 1,
      "note": 96,
      "start": 49.6226,
      "duration": 0.202,
      "velocity": 97,
      "chip": "ym2612"
    },
    {
      "channel": 2,
      "note": 95,
      "start": 49.6232,
      "duration": 0.2853,
      "velocity": 118,
      "chip": "ym2612"
    },
    {
      "channel": 3,
      "note": 90,
      "start": 49.6238,
      "duration": 0.2015,
      "velocity": 97,
      "chip": "ym2612"
    },
    {
      "channel": 0,
      "note": 49,
      "start": 49.8242,
      "duration": 0.0831,
      "velocity": 104,
      "chip": "ym2612"
    },
    {
      "channel": 1,
      "note": 95,
      "start": 49.8248,
      "duration": 0.0831,
      "velocity": 97,
      "chip": "ym2612"
    },
    {
      "channel": 3,
      "note": 90,
      "start": 49.8254,
      "duration": 0.0836,
      "velocity": 97,
      "chip": "ym2612"
    },
    {
      "channel": 4,
      "note": 31,
      "start": 49.8259,
      "duration": 0.2683,
      "velocity": 119,
      "chip": "ym2612"
    },
    {
      "channel": 0,
      "note": 52,
      "start": 49.9075,
      "duration": 0.185,
      "velocity": 104,
      "chip": "ym2612"
    },
    {
      "channel": 1,
      "note": 93,
      "start": 49.9081,
      "duration": 0.185,
      "velocity": 97,
      "chip": "ym2612"
    },
    {
      "channel": 2,
      "note": 98,
      "start": 49.9086,
      "duration": 0.2693,
      "velocity": 118,
      "chip": "ym2612"
    },
    {
      "channel": 3,
      "note": 88,
      "start": 49.9092,
      "duration": 0.1845,
      "velocity": 97,
      "chip": "ym2612"
    },
    {
      "channel": 0,
      "note": 49,
      "start": 50.0927,
      "duration": 0.0845,
      "velocity": 104,
      "chip": "ym2612"
    },
    {
      "channel": 1,
      "note": 90,
      "start": 50.0932,
      "duration": 0.3857,
      "velocity": 97,
      "chip": "ym2612"
    },
    {
      "channel": 3,
      "note": 85,
      "start": 50.0939,
      "duration": 0.3861,
      "velocity": 97,
      "chip": "ym2612"
    },
    {
      "channel": 4,
      "note": 31,
      "start": 50.0944,
      "duration": 0.3862,
      "velocity": 119,
      "chip": "ym2612"
    },
    {
      "channel": 0,
      "note": 52,
      "start": 50.1774,
      "duration": 0.1997,
      "velocity": 104,
      "chip": "ym2612"
    },
    {
      "channel": 2,
      "note": 95,
      "start": 50.1781,
      "duration": 0.3015,
      "velocity": 118,
      "chip": "ym2612"
    },
    {
      "channel": 0,
      "note": 54,
      "start": 50.3773,
      "duration": 0.3857,
      "velocity": 104,
      "chip": "ym2612"
    },
    {
      "channel": 1,
      "note": 96,
      "start": 50.4791,
      "duration": 0.1822,
      "velocity": 97,
      "chip": "ym2612"
    },
    {
      "channel": 2,
      "note": 98,
      "start": 50.4797,
      "duration": 0.2844,
      "velocity": 118,
      "chip": "ym2612"
    },
    {
      "channel": 3,
      "note": 90,
      "start": 50.4802,
      "duration": 0.1817,
      "velocity": 97,
      "chip": "ym2612"
    },
    {
      "channel": 4,
      "note": 31,
      "start": 50.4808,
      "duration": 0.2844,
      "velocity": 119,
      "chip": "ym2612"
    },
    {
      "channel": 1,
      "note": 95,
      "start": 50.6615,
      "duration": 0.102,
      "velocity": 97,
      "chip": "ym2612"
    },
    {
      "channel": 3,
      "note": 90,
      "start": 50.6622,
      "duration": 0.1025,
      "velocity": 97,
      "chip": "ym2612"
    },
    {
      "channel": 0,
      "note": 52,
      "start": 50.7631,
      "duration": 0.1995,
      "velocity": 104,
      "chip": "ym2612"
    },
    {
      "channel": 1,
      "note": 93,
      "start": 50.7637,
      "duration": 0.1978,
      "velocity": 97,
      "chip": "ym2612"
    },
    {
      "channel": 2,
      "note": 95,
      "start": 50.7642,
      "duration": 0.2978,
      "velocity": 118,
      "chip": "ym2612"
    },
    {
      "channel": 3,
      "note": 88,
      "start": 50.7648,
      "duration": 0.1973,
      "velocity": 97,
      "chip": "ym2612"
    },
    {
      "channel": 4,
      "note": 31,
      "start": 50.7653,
      "duration": 0.8832,
      "velocity": 119,
      "chip": "ym2612"
    },
    {
      "channel": 1,
      "note": 90,
      "start": 50.9616,
      "duration": 0.3856,
      "velocity": 97,
      "chip": "ym2612"
    },
    {
      "channel": 3,
      "note": 85,
      "start": 50.9623,
      "duration": 0.5871,
      "velocity": 97,
      "chip": "ym2612"
    },
    {
      "channel": 0,
      "note": 51,
      "start": 50.9627,
      "duration": 0.0149,
      "velocity": 104,
      "chip": "ym2612"
    },
    {
      "channel": 0,
      "note": 51,
      "start": 50.9776,
      "duration": 0.0333,
      "velocity": 104,
      "chip": "ym2612"
    },
    {
      "channel": 0,
      "note": 50,
      "start": 51.0109,
      "duration": 0.0167,
      "velocity": 104,
      "chip": "ym2612"
    },
    {
      "channel": 0,
      "note": 49,
      "start": 51.0276,
      "duration": 0.0167,
      "velocity": 104,
      "chip": "ym2612"
    },
    {
      "channel": 0,
      "note": 48,
      "start": 51.0443,
      "duration": 0.0171,
      "velocity": 104,
      "chip": "ym2612"
    },
    {
      "channel": 0,
      "note": 54,
      "start": 51.0616,
      "duration": 0.4856,
      "velocity": 104,
      "chip": "ym2612"
    },
    {
      "channel": 2,
      "note": 98,
      "start": 51.0622,
      "duration": 0.2856,
      "velocity": 118,
      "chip": "ym2612"
    },
    {
      "channel": 1,
      "note": 66,
      "start": 51.3473,
      "duration": 0.3,
      "velocity": 97,
      "chip": "ym2612"
    },
    {
      "channel": 2,
      "note": 95,
      "start": 51.3479,
      "duration": 0.3,
      "velocity": 118,
      "chip": "ym2612"
    },
    {
      "channel": 0,
      "note": 54,
      "start": 51.5473,
      "duration": 0.5845,
      "velocity": 104,
      "chip": "ym2612"
    },
    {
      "channel": 3,
      "note": 66,
      "start": 51.5496,
      "duration": 0.2807,
      "velocity": 97,
      "chip": "ym2612"
    },
    {
      "channel": 1,
      "note": 64,
      "start": 51.6475,
      "duration": 0.2827,
      "velocity": 97,
      "chip": "ym2612"
    },
    {
      "channel": 2,
      "note": 98,
      "start": 51.6481,
      "duration": 0.2827,
      "velocity": 118,
      "chip": "ym2612"
    },
    {
      "channel": 4,
      "note": 31,
      "start": 51.6487,
      "duration": 0.4848,
      "velocity": 119,
      "chip": "ym2612"
    },
    {
      "channel": 3,
      "note": 64,
      "start": 51.8305,
      "duration": 0.3025,
      "velocity": 97,
      "chip": "ym2612"
    },
    {
      "channel": 1,
      "note": 60,
      "start": 51.9304,
      "duration": 0.2019,
      "velocity": 97,
      "chip": "ym2612"
    },
    {
      "channel": 2,
      "note": 95,
      "start": 51.9309,
      "duration": 0.2844,
      "velocity": 118,
      "chip": "ym2612"
    },
    {
      "channel": 0,
      "note": 54,
      "start": 52.1319,
      "duration": 0.0828,
      "velocity": 104,
      "chip": "ym2612"
    },
    {
      "channel": 1,
      "note": 61,
      "start": 52.1325,
      "duration": 1.223,
      "velocity": 107,
      "chip": "ym2612"
    },
    {
      "channel": 3,
      "note": 60,
      "start": 52.1331,
      "duration": 0.166,
      "velocity": 97,
      "chip": "ym2612"
    },
    {
      "channel": 4,
      "note": 31,
      "start": 52.1337,
      "duration": 0.2655,
      "velocity": 119,
      "chip": "ym2612"
    },
    {
      "channel": 0,
      "note": 57,
      "start": 52.2148,
      "duration": 0.2681,
      "velocity": 104,
      "chip": "ym2612"
    },
    {
      "channel": 2,
      "note": 98,
      "start": 52.2155,
      "duration": 0.2681,
      "velocity": 118,
      "chip": "ym2612"
    },
    {
      "channel": 3,
      "note": 61,
      "start": 52.2993,
      "duration": 1.6407,
      "velocity": 119,
      "chip": "ym2612"
    },
    {
      "channel": 4,
      "note": 31,
      "start": 52.3994,
      "duration": 0.3693,
      "velocity": 119,
      "chip": "ym2612"
    },
    {
      "channel": 0,
      "note": 59,
      "start": 52.4831,
      "duration": 0.1846,
      "velocity": 104,
      "chip": "ym2612"
    },
    {
      "channel": 2,
      "note": 95,
      "start": 52.4838,
      "duration": 0.2843,
      "velocity": 118,
      "chip": "ym2612"
    },
    {
      "channel": 0,
      "note": 58,
      "start": 52.6677,
      "duration": 0.016,
      "velocity": 104,
      "chip": "ym2612"
    },
    {
      "channel": 0,
      "note": 57,
      "start": 52.6837,
      "duration": 0.0333,
      "velocity": 104,
      "chip": "ym2612"
    },
    {
      "channel": 0,
      "note": 56,
      "start": 52.717,
      "duration": 0.0167,
      "velocity": 104,
      "chip": "ym2612"
    },
    {
      "channel": 0,
      "note": 55,
      "start": 52.7337,
      "duration": 0.0167,
      "velocity": 104,
      "chip": "ym2612"
    },
    {
      "channel": 0,
      "note": 55,
      "start": 52.7503,
      "duration": 0.0171,
      "velocity": 104,
      "chip": "ym2612"
    },
    {
      "channel": 0,
      "note": 61,
      "start": 52.7676,
      "duration": 0.184,
      "velocity": 104,
      "chip": "ym2612"
    },
    {
      "channel": 2,
      "note": 98,
      "start": 52.7683,
      "duration": 0.2851,
      "velocity": 118,
      "chip": "ym2612"
    },
    {
      "channel": 4,
      "note": 31,
      "start": 52.7688,
      "duration": 0.1851,
      "velocity": 119,
      "chip": "ym2612"
    },
    {
      "channel": 0,
      "note": 64,
      "start": 52.9518,
      "duration": 0.4016,
      "velocity": 104,
      "chip": "ym2612"
    },
    {
      "channel": 4,
      "note": 31,
      "start": 52.9542,
      "duration": 0.1014,
      "velocity": 119,
      "chip": "ym2612"
    },
    {
      "channel": 2,
      "note": 95,
      "start": 53.0536,
      "duration": 0.3026,
      "velocity": 118,
      "chip": "ym2612"
    },
    {
      "channel": 4,
      "note": 31,
      "start": 53.0558,
      "duration": 9.0929,
      "velocity": 119,
      "chip": "ym2612"
    },
    {
      "channel": 0,
      "note": 66,
      "start": 53.3536,
      "duration": 0.1825,
      "velocity": 104,
      "chip": "ym2612"
    },
    {
      "channel": 1,
      "note": 49,
      "start": 53.3557,
      "duration": 2.0065,
      "velocity": 107,
      "chip": "ym2612"
    },
    {
      "channel": 2,
      "note": 98,
      "start": 53.3563,
      "duration": 0.2804,
      "velocity": 118,
      "chip": "ym2612"
    },
    {
      "channel": 0,
      "note": 64,
      "start": 53.5363,
      "duration": 0.0998,
      "velocity": 104,
      "chip": "ym2612"
    },
    {
      "channel": 0,
      "note": 61,
      "start": 53.6363,
      "duration": 0.1998,
      "velocity": 104,
      "chip": "ym2612"
    },
    {
      "channel": 2,
      "note": 95,
      "start": 53.6369,
      "duration": 0.301,
      "velocity": 118,
      "chip": "ym2612"
    },
    {
      "channel": 0,
      "note": 60,
      "start": 53.8363,
      "duration": 0.2852,
      "velocity": 104,
      "chip": "ym2612"
    },
    {
      "channel": 2,
      "note": 98,
      "start": 53.938,
      "duration": 0.2841,
      "velocity": 118,
      "chip": "ym2612"
    },
    {
      "channel": 3,
      "note": 31,
      "start": 53.9402,
      "duration": 0.482,
      "velocity": 119,
      "chip": "ym2612"
    },
    {
      "channel": 0,
      "note": 59,
      "start": 54.1217,
      "duration": 0.0998,
      "velocity": 104,
      "chip": "ym2612"
    },
    {
      "channel": 0,
      "note": 57,
      "start": 54.2217,
      "duration": 0.0998,
      "velocity": 104,
      "chip": "ym2612"
    },
    {
      "channel": 2,
      "note": 95,
      "start": 54.2223,
      "duration": 0.2845,
      "velocity": 118,
      "chip": "ym2612"
    },
    {
      "channel": 0,
      "note": 54,
      "start": 54.3217,
      "duration": 0.0999,
      "velocity": 104,
      "chip": "ym2612"
    },
    {
      "channel": 0,
      "note": 52,
      "start": 54.4217,
      "duration": 0.0845,
      "velocity": 104,
      "chip": "ym2612"
    },
    {
      "channel": 3,
      "note": 31,
      "start": 54.4224,
      "duration": 0.2693,
      "velocity": 119,
      "chip": "ym2612"
    },
    {
      "channel": 0,
      "note": 66,
      "start": 54.5064,
      "duration": 0.1846,
      "velocity": 104,
      "chip": "ym2612"
    },
    {
      "channel": 2,
      "note": 98,
      "start": 54.5071,
      "duration": 0.2693,
      "velocity": 118,
      "chip": "ym2612"
    },
    {
      "channel": 0,
      "note": 64,
      "start": 54.6911,
      "duration": 0.0845,
      "velocity": 104,
      "chip": "ym2612"
    },
    {
      "channel": 3,
      "note": 31,
      "start": 54.6918,
      "duration": 0.3845,
      "velocity": 119,
      "chip": "ym2612"
    },
    {
      "channel": 0,
      "note": 61,
      "start": 54.7759,
      "duration": 0.1997,
      "velocity": 104,
      "chip": "ym2612"
    },
    {
      "channel": 2,
      "note": 95,
      "start": 54.7765,
      "duration": 0.2993,
      "velocity": 118,
      "chip": "ym2612"
    },
    {
      "channel": 0,
      "note": 60,
      "start": 54.9758,
      "duration": 0.2841,
      "velocity": 104,
      "chip": "ym2612"
    },
    {
      "channel": 2,
      "note": 98,
      "start": 55.076,
      "duration": 0.2868,
      "velocity": 118,
      "chip": "ym2612"
    },
    {
      "channel": 3,
      "note": 31,
      "start": 55.0766,
      "duration": 0.2867,
      "velocity": 119,
      "chip": "ym2612"
    },
    {
      "channel": 0,
      "note": 59,
      "start": 55.2601,
      "duration": 0.0999,
      "velocity": 104,
      "chip": "ym2612"
    },
    {
      "channel": 0,
      "note": 57,
      "start": 55.3602,
      "duration": 0.0998,
      "velocity": 104,
      "chip": "ym2612"
    },
    {
      "channel": 1,
      "note": 40,
      "start": 55.3624,
      "duration": 0.2982,
      "velocity": 107,
      "chip": "ym2612"
    },
    {
      "channel": 2,
      "note": 95,
      "start": 55.3629,
      "duration": 0.2982,
      "velocity": 118,
      "chip": "ym2612"
    },
    {
      "channel": 3,
      "note": 31,
      "start": 55.3634,
      "duration": 0.8843,
      "velocity": 119,
      "chip": "ym2612"
    },
    {
      "channel": 0,
      "note": 54,
      "start": 55.4602,
      "duration": 0.0997,
      "velocity": 104,
      "chip": "ym2612"
    },
    {
      "channel": 0,
      "note": 52,
      "start": 55.5601,
      "duration": 0.0999,
      "velocity": 104,
      "chip": "ym2612"
    },
    {
      "channel": 0,
      "note": 54,
      "start": 55.6602,
      "duration": 0.4851,
      "velocity": 104,
      "chip": "ym2612"
    },
    {
      "channel": 1,
      "note": 42,
      "start": 55.6608,
      "duration": 2.878,
      "velocity": 119,
      "chip": "ym2612"
    },
    {
      "channel": 2,
      "note": 98,
      "start": 55.6613,
      "duration": 0.2826,
      "velocity": 118,
      "chip": "ym2612"
    },
    {
      "channel": 2,
      "note": 95,
      "start": 55.944,
      "duration": 0.3031,
      "velocity": 118,
      "chip": "ym2612"
    },
    {
      "channel": 0,
      "note": 54,
      "start": 56.1455,
      "duration": 0.5835,
      "velocity": 104,
      "chip": "ym2612"
    },
    {
      "channel": 2,
      "note": 98,
      "start": 56.2473,
      "duration": 0.2801,
      "velocity": 118,
      "chip": "ym2612"
    },
    {
      "channel": 3,
      "note": 31,
      "start": 56.2479,
      "duration": 0.4817,
      "velocity": 119,
      "chip": "ym2612"
    },
    {
      "channel": 2,
      "note": 95,
      "start": 56.5276,
      "duration": 0.2854,
      "velocity": 118,
      "chip": "ym2612"
    },
    {
      "channel": 0,
      "note": 54,
      "start": 56.7291,
      "duration": 0.0833,
      "velocity": 104,
      "chip": "ym2612"
    },
    {
      "channel": 3,
      "note": 31,
      "start": 56.7298,
      "duration": 0.2677,
      "velocity": 119,
      "chip": "ym2612"
    },
    {
      "channel": 0,
      "note": 57,
      "start": 56.8126,
      "duration": 0.2703,
      "velocity": 104,
      "chip": "ym2612"
    },
    {
      "channel": 2,
      "note": 98,
      "start": 56.8133,
      "duration": 0.2702,
      "velocity": 118,
      "chip": "ym2612"
    },
    {
      "channel": 3,
      "note": 31,
      "start": 56.9978,
      "duration": 0.3705,
      "velocity": 119,
      "chip": "ym2612"
    },
    {
      "channel": 0,
      "note": 59,
      "start": 57.0831,
      "duration": 0.1842,
      "velocity": 104,
      "chip": "ym2612"
    },
    {
      "channel": 2,
      "note": 95,
      "start": 57.0837,
      "duration": 0.2839,
      "velocity": 118,
      "chip": "ym2612"
    },
    {
      "channel": 0,
      "note": 58,
      "start": 57.2673,
      "duration": 0.016,
      "velocity": 104,
      "chip": "ym2612"
    },
    {
      "channel": 0,
      "note": 57,
      "start": 57.2832,
      "duration": 0.0333,
      "velocity": 104,
      "chip": "ym2612"
    },
    {
      "channel": 0,
      "note": 56,
      "start": 57.3166,
      "duration": 0.0167,
      "velocity": 104,
      "chip": "ym2612"
    },
    {
      "channel": 0,
      "note": 55,
      "start": 57.3332,
      "duration": 0.0167,
      "velocity": 104,
      "chip": "ym2612"
    },
    {
      "channel": 0,
      "note": 55,
      "start": 57.3499,
      "duration": 0.0171,
      "velocity": 104,
      "chip": "ym2612"
    },
    {
      "channel": 0,
      "note": 61,
      "start": 57.3672,
      "duration": 0.184,
      "velocity": 104,
      "chip": "ym2612"
    },
    {
      "channel": 2,
      "note": 98,
      "start": 57.3678,
      "duration": 0.2851,
      "velocity": 118,
      "chip": "ym2612"
    },
    {
      "channel": 3,
      "note": 31,
      "start": 57.3683,
      "duration": 0.1851,
      "velocity": 119,
      "chip": "ym2612"
    },
    {
      "channel": 0,
      "note": 64,
      "start": 57.5514,
      "duration": 0.4016,
      "velocity": 104,
      "chip": "ym2612"
    },
    {
      "channel": 3,
      "note": 31,
      "start": 57.5537,
      "duration": 0.1014,
      "velocity": 119,
      "chip": "ym2612"
    },
    {
      "channel": 2,
      "note": 95,
      "start": 57.6531,
      "duration": 0.3006,
      "velocity": 118,
      "chip": "ym2612"
    },
    {
      "channel": 3,
      "note": 31,
      "start": 57.6553,
      "duration": 4.4934,
      "velocity": 119,
      "chip": "ym2612"
    },
    {
      "channel": 0,
      "note": 54,
      "start": 57.9532,
      "duration": 0.4839,
      "velocity": 104,
      "chip": "ym2612"
    },
    {
      "channel": 2,
      "note": 98,
      "start": 57.9539,
      "duration": 0.2817,
      "velocity": 118,
      "chip": "ym2612"
    },
    {
      "channel": 2,
      "note": 95,
      "start": 58.2358,
      "duration": 0.3036,
      "velocity": 118,
      "chip": "ym2612"
    },
    {
      "channel": 0,
      "note": 54,
      "start": 58.4372,
      "duration": 0.5839,
      "velocity": 104,
      "chip": "ym2612"
    },
    {
      "channel": 1,
      "note": 31,
      "start": 58.539,
      "duration": 0.4826,
      "velocity": 119,
      "chip": "ym2612"
    },
    {
      "channel": 2,
      "note": 98,
      "start": 58.5395,
      "duration": 0.28,
      "velocity": 118,
      "chip": "ym2612"
    },
    {
      "channel": 2,
      "note": 95,
      "start": 58.8198,
      "duration": 0.2854,
      "velocity": 118,
      "chip": "ym2612"
    },
    {
      "channel": 0,
      "note": 49,
      "start": 59.0212,
      "duration": 0.0833,
      "velocity": 104,
      "chip": "ym2612"
    },
    {
      "channel": 1,
      "note": 31,
      "start": 59.0218,
      "duration": 0.2683,
      "velocity": 119,
      "chip": "ym2612"
    },
    {
      "channel": 0,
      "note": 52,
      "start": 59.1047,
      "duration": 0.1848,
      "velocity": 104,
      "chip": "ym2612"
    },
    {
      "channel": 2,
      "note": 98,
      "start": 59.1054,
      "duration": 0.2695,
      "velocity": 118,
      "chip": "ym2612"
    },
    {
      "channel": 0,
      "note": 49,
      "start": 59.2897,
      "duration": 0.0845,
      "velocity": 104,
      "chip": "ym2612"
    },
    {
      "channel": 1,
      "note": 31,
      "start": 59.2902,
      "duration": 0.3857,
      "velocity": 119,
      "chip": "ym2612"
    },
    {
      "channel": 0,
      "note": 52,
      "start": 59.3744,
      "duration": 0.1997,
      "velocity": 104,
      "chip": "ym2612"
    },
    {
      "channel": 2,
      "note": 95,
      "start": 59.375,
      "duration": 0.3015,
      "velocity": 118,
      "chip": "ym2612"
    },
    {
      "channel": 0,
      "note": 54,
      "start": 59.5743,
      "duration": 2.5744,
      "velocity": 1,
      "chip": "ym2612"
    },
    {
      "channel": 1,
      "note": 31,
      "start": 59.6761,
      "duration": 2.4726,
      "velocity": 119,
      "chip": "ym2612"
    },
    {
      "channel": 2,
      "note": 98,
      "start": 59.6767,
      "duration": 2.472,
      "velocity": 118,
      "chip": "ym2612"
    }
  ]
}