{
  "track_name": "12 - Battle Theme 9",
  "duration_sec": 60.913,
  "sample_rate": 44100,
  "note_count": 1423,
  "unique_pitches": 23,
  "pitch_range": 59,
  "avg_note_duration": 0.2169,
  "reconstruction_stats": {
    "notes_reconstructed": 1423,
    "keyon_events": 1423,
    "keyoff_events": 1418,
    "orphan_keyons": 5,
    "unique_pitches": 23,
    "pitch_range": 59,
    "avg_duration_sec": 0.2169
  },
  "metadata": {
    "source": "H\\Honoo no Toukyuuji Dodge Danpei\\12 - Battle Theme 9.vgz"
  },
  "notes": [
    {
      "channel": 3,
      "note": 59,
      "start": 0.0022,
      "duration": 0.1186,
      "velocity": 91,
      "chip": "ym2612"
    },
    {
      "channel": 4,
      "note": 50,
      "start": 0.0056,
      "duration": 0.116,
      "velocity": 101,
      "chip": "ym2612"
    },
    {
      "channel": 2,
      "note": 36,
      "start": 0.0068,
      "duration": 0.0998,
      "velocity": 127,
      "chip": "ym2612"
    },
    {
      "channel": 3,
      "note": 59,
      "start": 0.1215,
      "duration": 0.1377,
      "velocity": 91,
      "chip": "ym2612"
    },
    {
      "channel": 4,
      "note": 47,
      "start": 0.1222,
      "duration": 0.1377,
      "velocity": 101,
      "chip": "ym2612"
    },
    {
      "channel": 3,
      "note": 59,
      "start": 0.2598,
      "duration": 0.1321,
      "velocity": 91,
      "chip": "ym2612"
    },
    {
      "channel": 4,
      "note": 47,
      "start": 0.2605,
      "duration": 0.132,
      "velocity": 101,
      "chip": "ym2612"
    },
    {
      "channel": 2,
      "note": 72,
      "start": 0.2613,
      "duration": 0.2365,
      "velocity": 120,
      "chip": "ym2612"
    },
    {
      "channel": 3,
      "note": 59,
      "start": 0.3924,
      "duration": 0.1377,
      "velocity": 91,
      "chip": "ym2612"
    },
    {
      "channel": 4,
      "note": 47,
      "start": 0.3931,
      "duration": 0.1377,
      "velocity": 101,
      "chip": "ym2612"
    },
    {
      "channel": 3,
      "note": 59,
      "start": 0.5306,
      "duration": 0.1349,
      "velocity": 91,
      "chip": "ym2612"
    },
    {
      "channel": 4,
      "note": 47,
      "start": 0.5313,
      "duration": 0.1349,
      "velocity": 101,
      "chip": "ym2612"
    },
    {
      "channel": 2,
      "note": 36,
      "start": 0.5323,
      "duration": 0.1162,
      "velocity": 127,
      "chip": "ym2612"
    },
    {
      "channel": 3,
      "note": 59,
      "start": 0.6661,
      "duration": 0.1352,
      "velocity": 91,
      "chip": "ym2612"
    },
    {
      "channel": 4,
      "note": 47,
      "start": 0.6668,
      "duration": 0.1353,
      "velocity": 101,
      "chip": "ym2612"
    },
    {
      "channel": 2,
      "note": 36,
      "start": 0.6681,
      "duration": 0.1161,
      "velocity": 127,
      "chip": "ym2612"
    },
    {
      "channel": 3,
      "note": 59,
      "start": 0.8019,
      "duration": 0.1316,
      "velocity": 91,
      "chip": "ym2612"
    },
    {
      "channel": 4,
      "note": 47,
      "start": 0.8026,
      "duration": 0.132,
      "velocity": 101,
      "chip": "ym2612"
    },
    {
      "channel": 2,
      "note": 72,
      "start": 0.8035,
      "duration": 0.2363,
      "velocity": 120,
      "chip": "ym2612"
    },
    {
      "channel": 3,
      "note": 59,
      "start": 0.9345,
      "duration": 0.1372,
      "velocity": 91,
      "chip": "ym2612"
    },
    {
      "channel": 4,
      "note": 47,
      "start": 0.9352,
      "duration": 0.1373,
      "velocity": 101,
      "chip": "ym2612"
    },
    {
      "channel": 3,
      "note": 59,
      "start": 1.0724,
      "duration": 0.132,
      "velocity": 91,
      "chip": "ym2612"
    },
    {
      "channel": 4,
      "note": 47,
      "start": 1.0731,
      "duration": 0.1321,
      "velocity": 101,
      "chip": "ym2612"
    },
    {
      "channel": 2,
      "note": 36,
      "start": 1.074,
      "duration": 0.1161,
      "velocity": 127,
      "chip": "ym2612"
    },
    {
      "channel": 3,
      "note": 59,
      "start": 1.2049,
      "duration": 0.1376,
      "velocity": 91,
      "chip": "ym2612"
    },
    {
      "channel": 4,
      "note": 47,
      "start": 1.2057,
      "duration": 0.1376,
      "velocity": 101,
      "chip": "ym2612"
    },
    {
      "channel": 3,
      "note": 59,
      "start": 1.3432,
      "duration": 0.132,
      "velocity": 91,
      "chip": "ym2612"
    },
    {
      "channel": 4,
      "note": 47,
      "start": 1.3439,
      "duration": 0.1321,
      "velocity": 101,
      "chip": "ym2612"
    },
    {
      "channel": 2,
      "note": 72,
      "start": 1.3447,
      "duration": 0.2366,
      "velocity": 120,
      "chip": "ym2612"
    },
    {
      "channel": 3,
      "note": 59,
      "start": 1.4758,
      "duration": 0.1376,
      "velocity": 91,
      "chip": "ym2612"
    },
    {
      "channel": 4,
      "note": 50,
      "start": 1.4765,
      "duration": 0.409,
      "velocity": 101,
      "chip": "ym2612"
    },
    {
      "channel": 3,
      "note": 59,
      "start": 1.614,
      "duration": 0.1349,
      "velocity": 91,
      "chip": "ym2612"
    },
    {
      "channel": 2,
      "note": 36,
      "start": 1.6153,
      "duration": 0.1166,
      "velocity": 127,
      "chip": "ym2612"
    },
    {
      "channel": 3,
      "note": 59,
      "start": 1.7495,
      "duration": 0.1352,
      "velocity": 91,
      "chip": "ym2612"
    },
    {
      "channel": 2,
      "note": 36,
      "start": 1.7512,
      "duration": 0.1163,
      "velocity": 127,
      "chip": "ym2612"
    },
    {
      "channel": 3,
      "note": 59,
      "start": 1.8853,
      "duration": 0.1321,
      "velocity": 91,
      "chip": "ym2612"
    },
    {
      "channel": 4,
      "note": 52,
      "start": 1.886,
      "duration": 0.2705,
      "velocity": 101,
      "chip": "ym2612"
    },
    {
      "channel": 2,
      "note": 72,
      "start": 1.8868,
      "duration": 0.2362,
      "velocity": 120,
      "chip": "ym2612"
    },
    {
      "channel": 3,
      "note": 59,
      "start": 2.0181,
      "duration": 0.1375,
      "velocity": 91,
      "chip": "ym2612"
    },
    {
      "channel": 3,
      "note": 59,
      "start": 2.1562,
      "duration": 0.1315,
      "velocity": 91,
      "chip": "ym2612"
    },
    {
      "channel": 4,
      "note": 50,
      "start": 2.1571,
      "duration": 0.1312,
      "velocity": 101,
      "chip": "ym2612"
    },
    {
      "channel": 2,
      "note": 36,
      "start": 2.158,
      "duration": 0.1154,
      "velocity": 127,
      "chip": "ym2612"
    },
    {
      "channel": 3,
      "note": 59,
      "start": 2.2881,
      "duration": 0.1378,
      "velocity": 91,
      "chip": "ym2612"
    },
    {
      "channel": 4,
      "note": 47,
      "start": 2.2889,
      "duration": 0.1376,
      "velocity": 101,
      "chip": "ym2612"
    },
    {
      "channel": 3,
      "note": 59,
      "start": 2.4263,
      "duration": 0.1321,
      "velocity": 91,
      "chip": "ym2612"
    },
    {
      "channel": 4,
      "note": 47,
      "start": 2.4271,
      "duration": 0.1321,
      "velocity": 101,
      "chip": "ym2612"
    },
    {
      "channel": 2,
      "note": 72,
      "start": 2.4279,
      "duration": 0.2368,
      "velocity": 120,
      "chip": "ym2612"
    },
    {
      "channel": 3,
      "note": 59,
      "start": 2.5589,
      "duration": 0.1378,
      "velocity": 91,
      "chip": "ym2612"
    },
    {
      "channel": 4,
      "note": 47,
      "start": 2.5597,
      "duration": 0.1376,
      "velocity": 101,
      "chip": "ym2612"
    },
    {
      "channel": 3,
      "note": 59,
      "start": 2.6972,
      "duration": 0.135,
      "velocity": 91,
      "chip": "ym2612"
    },
    {
      "channel": 4,
      "note": 47,
      "start": 2.6979,
      "duration": 0.1349,
      "velocity": 101,
      "chip": "ym2612"
    },
    {
      "channel": 2,
      "note": 36,
      "start": 2.6988,
      "duration": 0.1164,
      "velocity": 127,
      "chip": "ym2612"
    },
    {
      "channel": 3,
      "note": 59,
      "start": 2.8327,
      "duration": 0.1353,
      "velocity": 91,
      "chip": "ym2612"
    },
    {
      "channel": 4,
      "note": 47,
      "start": 2.8334,
      "duration": 0.1352,
      "velocity": 101,
      "chip": "ym2612"
    },
    {
      "channel": 2,
      "note": 36,
      "start": 2.8347,
      "duration": 0.1164,
      "velocity": 127,
      "chip": "ym2612"
    },
    {
      "channel": 3,
      "note": 59,
      "start": 2.9685,
      "duration": 0.1318,
      "velocity": 91,
      "chip": "ym2612"
    },
    {
      "channel": 4,
      "note": 47,
      "start": 2.9692,
      "duration": 0.1321,
      "velocity": 101,
      "chip": "ym2612"
    },
    {
      "channel": 2,
      "note": 72,
      "start": 2.97,
      "duration": 0.2364,
      "velocity": 120,
      "chip": "ym2612"
    },
    {
      "channel": 3,
      "note": 59,
      "start": 3.1011,
      "duration": 0.1374,
      "velocity": 91,
      "chip": "ym2612"
    },
    {
      "channel": 4,
      "note": 47,
      "start": 3.1019,
      "duration": 0.1374,
      "velocity": 101,
      "chip": "ym2612"
    },
    {
      "channel": 3,
      "note": 55,
      "start": 3.2391,
      "duration": 0.132,
      "velocity": 91,
      "chip": "ym2612"
    },
    {
      "channel": 4,
      "note": 43,
      "start": 3.2398,
      "duration": 0.132,
      "velocity": 101,
      "chip": "ym2612"
    },
    {
      "channel": 2,
      "note": 36,
      "start": 3.2407,
      "duration": 0.1162,
      "velocity": 127,
      "chip": "ym2612"
    },
    {
      "channel": 3,
      "note": 55,
      "start": 3.3717,
      "duration": 0.1376,
      "velocity": 91,
      "chip": "ym2612"
    },
    {
      "channel": 4,
      "note": 47,
      "start": 3.3724,
      "duration": 0.1376,
      "velocity": 101,
      "chip": "ym2612"
    },
    {
      "channel": 3,
      "note": 55,
      "start": 3.51,
      "duration": 0.1321,
      "velocity": 91,
      "chip": "ym2612"
    },
    {
      "channel": 4,
      "note": 50,
      "start": 3.5107,
      "duration": 0.132,
      "velocity": 101,
      "chip": "ym2612"
    },
    {
      "channel": 2,
      "note": 72,
      "start": 3.5115,
      "duration": 0.2366,
      "velocity": 120,
      "chip": "ym2612"
    },
    {
      "channel": 3,
      "note": 55,
      "start": 3.6426,
      "duration": 0.1377,
      "velocity": 91,
      "chip": "ym2612"
    },
    {
      "channel": 4,
      "note": 45,
      "start": 3.6433,
      "duration": 0.1378,
      "velocity": 101,
      "chip": "ym2612"
    },
    {
      "channel": 3,
      "note": 57,
      "start": 3.7809,
      "duration": 0.1347,
      "velocity": 91,
      "chip": "ym2612"
    },
    {
      "channel": 4,
      "note": 49,
      "start": 3.7816,
      "duration": 0.1347,
      "velocity": 101,
      "chip": "ym2612"
    },
    {
      "channel": 2,
      "note": 36,
      "start": 3.7825,
      "duration": 0.1161,
      "velocity": 127,
      "chip": "ym2612"
    },
    {
      "channel": 3,
      "note": 57,
      "start": 3.9162,
      "duration": 0.1354,
      "velocity": 91,
      "chip": "ym2612"
    },
    {
      "channel": 4,
      "note": 52,
      "start": 3.9169,
      "duration": 0.1353,
      "velocity": 101,
      "chip": "ym2612"
    },
    {
      "channel": 2,
      "note": 36,
      "start": 3.9183,
      "duration": 0.1162,
      "velocity": 127,
      "chip": "ym2612"
    },
    {
      "channel": 3,
      "note": 57,
      "start": 4.0521,
      "duration": 0.132,
      "velocity": 91,
      "chip": "ym2612"
    },
    {
      "channel": 4,
      "note": 49,
      "start": 4.0528,
      "duration": 0.132,
      "velocity": 101,
      "chip": "ym2612"
    },
    {
      "channel": 2,
      "note": 72,
      "start": 4.0537,
      "duration": 0.2363,
      "velocity": 120,
      "chip": "ym2612"
    },
    {
      "channel": 3,
      "note": 57,
      "start": 4.1847,
      "duration": 0.1379,
      "velocity": 91,
      "chip": "ym2612"
    },
    {
      "channel": 4,
      "note": 45,
      "start": 4.1855,
      "duration": 0.1381,
      "velocity": 101,
      "chip": "ym2612"
    },
    {
      "channel": 3,
      "note": 59,
      "start": 4.3232,
      "duration": 0.1315,
      "velocity": 91,
      "chip": "ym2612"
    },
    {
      "channel": 4,
      "note": 50,
      "start": 4.3241,
      "duration": 0.1313,
      "velocity": 101,
      "chip": "ym2612"
    },
    {
      "channel": 2,
      "note": 36,
      "start": 4.325,
      "duration": 0.1154,
      "velocity": 127,
      "chip": "ym2612"
    },
    {
      "channel": 3,
      "note": 59,
      "start": 4.4553,
      "duration": 0.1376,
      "velocity": 91,
      "chip": "ym2612"
    },
    {
      "channel": 4,
      "note": 47,
      "start": 4.456,
      "duration": 0.1377,
      "velocity": 101,
      "chip": "ym2612"
    },
    {
      "channel": 3,
      "note": 59,
      "start": 4.5935,
      "duration": 0.132,
      "velocity": 91,
      "chip": "ym2612"
    },
    {
      "channel": 4,
      "note": 47,
      "start": 4.5942,
      "duration": 0.132,
      "velocity": 101,
      "chip": "ym2612"
    },
    {
      "channel": 2,
      "note": 72,
      "start": 4.5951,
      "duration": 0.2365,
      "velocity": 120,
      "chip": "ym2612"
    },
    {
      "channel": 3,
      "note": 59,
      "start": 4.7261,
      "duration": 0.1376,
      "velocity": 91,
      "chip": "ym2612"
    },
    {
      "channel": 4,
      "note": 47,
      "start": 4.7268,
      "duration": 0.1377,
      "velocity": 101,
      "chip": "ym2612"
    },
    {
      "channel": 3,
      "note": 59,
      "start": 4.8643,
      "duration": 0.1349,
      "velocity": 91,
      "chip": "ym2612"
    },
    {
      "channel": 4,
      "note": 47,
      "start": 4.865,
      "duration": 0.1349,
      "velocity": 101,
      "chip": "ym2612"
    },
    {
      "channel": 2,
      "note": 36,
      "start": 4.8659,
      "duration": 0.1161,
      "velocity": 127,
      "chip": "ym2612"
    },
    {
      "channel": 3,
      "note": 59,
      "start": 4.9998,
      "duration": 0.1352,
      "velocity": 91,
      "chip": "ym2612"
    },
    {
      "channel": 4,
      "note": 47,
      "start": 5.0009,
      "duration": 0.1348,
      "velocity": 101,
      "chip": "ym2612"
    },
    {
      "channel": 2,
      "note": 36,
      "start": 5.0019,
      "duration": 0.1161,
      "velocity": 127,
      "chip": "ym2612"
    },
    {
      "channel": 3,
      "note": 59,
      "start": 5.1356,
      "duration": 0.1321,
      "velocity": 91,
      "chip": "ym2612"
    },
    {
      "channel": 4,
      "note": 47,
      "start": 5.1363,
      "duration": 0.1322,
      "velocity": 101,
      "chip": "ym2612"
    },
    {
      "channel": 2,
      "note": 72,
      "start": 5.1371,
      "duration": 0.2361,
      "velocity": 120,
      "chip": "ym2612"
    },
    {
      "channel": 3,
      "note": 59,
      "start": 5.2683,
      "duration": 0.1372,
      "velocity": 91,
      "chip": "ym2612"
    },
    {
      "channel": 4,
      "note": 47,
      "start": 5.269,
      "duration": 0.1372,
      "velocity": 101,
      "chip": "ym2612"
    },
    {
      "channel": 3,
      "note": 59,
      "start": 5.4061,
      "duration": 0.1321,
      "velocity": 91,
      "chip": "ym2612"
    },
    {
      "channel": 4,
      "note": 47,
      "start": 5.4068,
      "duration": 0.1321,
      "velocity": 101,
      "chip": "ym2612"
    },
    {
      "channel": 2,
      "note": 36,
      "start": 5.4078,
      "duration": 0.116,
      "velocity": 127,
      "chip": "ym2612"
    },
    {
      "channel": 3,
      "note": 59,
      "start": 5.5388,
      "duration": 0.1374,
      "velocity": 91,
      "chip": "ym2612"
    },
    {
      "channel": 4,
      "note": 47,
      "start": 5.5395,
      "duration": 0.1375,
      "velocity": 101,
      "chip": "ym2612"
    },
    {
      "channel": 3,
      "note": 59,
      "start": 5.6769,
      "duration": 0.1321,
      "velocity": 91,
      "chip": "ym2612"
    },
    {
      "channel": 4,
      "note": 47,
      "start": 5.6776,
      "duration": 0.1322,
      "velocity": 101,
      "chip": "ym2612"
    },
    {
      "channel": 2,
      "note": 72,
      "start": 5.6784,
      "duration": 0.2367,
      "velocity": 120,
      "chip": "ym2612"
    },
    {
      "channel": 3,
      "note": 59,
      "start": 5.8096,
      "duration": 0.1375,
      "velocity": 91,
      "chip": "ym2612"
    },
    {
      "channel": 4,
      "note": 50,
      "start": 5.8103,
      "duration": 0.4089,
      "velocity": 101,
      "chip": "ym2612"
    },
    {
      "channel": 3,
      "note": 59,
      "start": 5.9477,
      "duration": 0.1348,
      "velocity": 91,
      "chip": "ym2612"
    },
    {
      "channel": 2,
      "note": 36,
      "start": 5.949,
      "duration": 0.1165,
      "velocity": 127,
      "chip": "ym2612"
    },
    {
      "channel": 3,
      "note": 59,
      "start": 6.0832,
      "duration": 0.1353,
      "velocity": 91,
      "chip": "ym2612"
    },
    {
      "channel": 2,
      "note": 36,
      "start": 6.0849,
      "duration": 0.1165,
      "velocity": 127,
      "chip": "ym2612"
    },
    {
      "channel": 3,
      "note": 59,
      "start": 6.219,
      "duration": 0.1321,
      "velocity": 91,
      "chip": "ym2612"
    },
    {
      "channel": 4,
      "note": 52,
      "start": 6.2198,
      "duration": 0.2705,
      "velocity": 101,
      "chip": "ym2612"
    },
    {
      "channel": 2,
      "note": 72,
      "start": 6.2206,
      "duration": 0.2362,
      "velocity": 120,
      "chip": "ym2612"
    },
    {
      "channel": 3,
      "note": 59,
      "start": 6.3517,
      "duration": 0.1377,
      "velocity": 91,
      "chip": "ym2612"
    },
    {
      "channel": 3,
      "note": 59,
      "start": 6.49,
      "duration": 0.1315,
      "velocity": 91,
      "chip": "ym2612"
    },
    {
      "channel": 4,
      "note": 50,
      "start": 6.4909,
      "duration": 0.1311,
      "velocity": 101,
      "chip": "ym2612"
    },
    {
      "channel": 2,
      "note": 36,
      "start": 6.4918,
      "duration": 0.1155,
      "velocity": 127,
      "chip": "ym2612"
    },
    {
      "channel": 3,
      "note": 59,
      "start": 6.6219,
      "duration": 0.1377,
      "velocity": 91,
      "chip": "ym2612"
    },
    {
      "channel": 4,
      "note": 47,
      "start": 6.6226,
      "duration": 0.1375,
      "velocity": 101,
      "chip": "ym2612"
    },
    {
      "channel": 3,
      "note": 59,
      "start": 6.76,
      "duration": 0.1323,
      "velocity": 91,
      "chip": "ym2612"
    },
    {
      "channel": 4,
      "note": 47,
      "start": 6.7607,
      "duration": 0.1322,
      "velocity": 101,
      "chip": "ym2612"
    },
    {
      "channel": 2,
      "note": 72,
      "start": 6.7615,
      "duration": 0.237,
      "velocity": 120,
      "chip": "ym2612"
    },
    {
      "channel": 3,
      "note": 59,
      "start": 6.8928,
      "duration": 0.1377,
      "velocity": 91,
      "chip": "ym2612"
    },
    {
      "channel": 4,
      "note": 47,
      "start": 6.8935,
      "duration": 0.1376,
      "velocity": 101,
      "chip": "ym2612"
    },
    {
      "channel": 3,
      "note": 59,
      "start": 7.0309,
      "duration": 0.1351,
      "velocity": 91,
      "chip": "ym2612"
    },
    {
      "channel": 4,
      "note": 47,
      "start": 7.0316,
      "duration": 0.1349,
      "velocity": 101,
      "chip": "ym2612"
    },
    {
      "channel": 2,
      "note": 36,
      "start": 7.0326,
      "duration": 0.1163,
      "velocity": 127,
      "chip": "ym2612"
    },
    {
      "channel": 3,
      "note": 59,
      "start": 7.1664,
      "duration": 0.1354,
      "velocity": 91,
      "chip": "ym2612"
    },
    {
      "channel": 4,
      "note": 47,
      "start": 7.1676,
      "duration": 0.1349,
      "velocity": 101,
      "chip": "ym2612"
    },
    {
      "channel": 2,
      "note": 36,
      "start": 7.1685,
      "duration": 0.1163,
      "velocity": 127,
      "chip": "ym2612"
    },
    {
      "channel": 3,
      "note": 59,
      "start": 7.3023,
      "duration": 0.1321,
      "velocity": 91,
      "chip": "ym2612"
    },
    {
      "channel": 4,
      "note": 47,
      "start": 7.3031,
      "duration": 0.1319,
      "velocity": 101,
      "chip": "ym2612"
    },
    {
      "channel": 2,
      "note": 72,
      "start": 7.3039,
      "duration": 0.2363,
      "velocity": 120,
      "chip": "ym2612"
    },
    {
      "channel": 3,
      "note": 59,
      "start": 7.4348,
      "duration": 0.1375,
      "velocity": 91,
      "chip": "ym2612"
    },
    {
      "channel": 4,
      "note": 47,
      "start": 7.4355,
      "duration": 0.1376,
      "velocity": 101,
      "chip": "ym2612"
    },
    {
      "channel": 3,
      "note": 55,
      "start": 7.5729,
      "duration": 0.132,
      "velocity": 91,
      "chip": "ym2612"
    },
    {
      "channel": 4,
      "note": 43,
      "start": 7.5737,
      "duration": 0.1319,
      "velocity": 101,
      "chip": "ym2612"
    },
    {
      "channel": 2,
      "note": 36,
      "start": 7.5746,
      "duration": 0.1162,
      "velocity": 127,
      "chip": "ym2612"
    },
    {
      "channel": 3,
      "note": 55,
      "start": 7.7055,
      "duration": 0.1375,
      "velocity": 91,
      "chip": "ym2612"
    },
    {
      "channel": 4,
      "note": 47,
      "start": 7.7062,
      "duration": 0.1375,
      "velocity": 101,
      "chip": "ym2612"
    },
    {
      "channel": 3,
      "note": 55,
      "start": 7.8436,
      "duration": 0.1321,
      "velocity": 91,
      "chip": "ym2612"
    },
    {
      "channel": 4,
      "note": 50,
      "start": 7.8443,
      "duration": 0.1321,
      "velocity": 101,
      "chip": "ym2612"
    },
    {
      "channel": 2,
      "note": 72,
      "start": 7.8451,
      "duration": 0.237,
      "velocity": 120,
      "chip": "ym2612"
    },
    {
      "channel": 3,
      "note": 55,
      "start": 7.9763,
      "duration": 0.1376,
      "velocity": 91,
      "chip": "ym2612"
    },
    {
      "channel": 4,
      "note": 45,
      "start": 7.977,
      "duration": 0.1376,
      "velocity": 101,
      "chip": "ym2612"
    },
    {
      "channel": 3,
      "note": 57,
      "start": 8.1145,
      "duration": 0.1349,
      "velocity": 91,
      "chip": "ym2612"
    },
    {
      "channel": 4,
      "note": 49,
      "start": 8.1152,
      "duration": 0.1349,
      "velocity": 101,
      "chip": "ym2612"
    },
    {
      "channel": 2,
      "note": 72,
      "start": 8.1161,
      "duration": 0.0401,
      "velocity": 120,
      "chip": "ym2612"
    },
    {
      "channel": 2,
      "note": 72,
      "start": 8.1605,
      "duration": 0.0408,
      "velocity": 120,
      "chip": "ym2612"
    },
    {
      "channel": 2,
      "note": 72,
      "start": 8.2057,
      "duration": 0.0407,
      "velocity": 120,
      "chip": "ym2612"
    },
    {
      "channel": 3,
      "note": 57,
      "start": 8.25,
      "duration": 0.1354,
      "velocity": 91,
      "chip": "ym2612"
    },
    {
      "channel": 4,
      "note": 52,
      "start": 8.2511,
      "duration": 0.135,
      "velocity": 101,
      "chip": "ym2612"
    },
    {
      "channel": 2,
      "note": 72,
      "start": 8.2519,
      "duration": 0.0398,
      "velocity": 120,
      "chip": "ym2612"
    },
    {
      "channel": 2,
      "note": 72,
      "start": 8.296,
      "duration": 0.0407,
      "velocity": 120,
      "chip": "ym2612"
    },
    {
      "channel": 2,
      "note": 72,
      "start": 8.3411,
      "duration": 0.0408,
      "velocity": 120,
      "chip": "ym2612"
    },
    {
      "channel": 3,
      "note": 57,
      "start": 8.3859,
      "duration": 0.1349,
      "velocity": 91,
      "chip": "ym2612"
    },
    {
      "channel": 4,
      "note": 49,
      "start": 8.3867,
      "duration": 0.1349,
      "velocity": 101,
      "chip": "ym2612"
    },
    {
      "channel": 2,
      "note": 72,
      "start": 8.3875,
      "duration": 0.0396,
      "velocity": 120,
      "chip": "ym2612"
    },
    {
      "channel": 2,
      "note": 72,
      "start": 8.4315,
      "duration": 0.0408,
      "velocity": 120,
      "chip": "ym2612"
    },
    {
      "channel": 2,
      "note": 72,
      "start": 8.4767,
      "duration": 0.0411,
      "velocity": 120,
      "chip": "ym2612"
    },
    {
      "channel": 3,
      "note": 57,
      "start": 8.5213,
      "duration": 0.1361,
      "velocity": 91,
      "chip": "ym2612"
    },
    {
      "channel": 4,
      "note": 45,
      "start": 8.5221,
      "duration": 0.1367,
      "velocity": 101,
      "chip": "ym2612"
    },
    {
      "channel": 2,
      "note": 72,
      "start": 8.5229,
      "duration": 0.0396,
      "velocity": 120,
      "chip": "ym2612"
    },
    {
      "channel": 2,
      "note": 72,
      "start": 8.5669,
      "duration": 0.0408,
      "velocity": 120,
      "chip": "ym2612"
    },
    {
      "channel": 2,
      "note": 72,
      "start": 8.612,
      "duration": 0.0408,
      "velocity": 120,
      "chip": "ym2612"
    },
    {
      "channel": 0,
      "note": 83,
      "start": 8.6563,
      "duration": 3.2495,
      "velocity": 97,
      "chip": "ym2612"
    },
    {
      "channel": 1,
      "note": 83,
      "start": 8.6571,
      "duration": 1.0824,
      "velocity": 96,
      "chip": "ym2612"
    },
    {
      "channel": 3,
      "note": 59,
      "start": 8.658,
      "duration": 0.131,
      "velocity": 91,
      "chip": "ym2612"
    },
    {
      "channel": 4,
      "note": 50,
      "start": 8.6594,
      "duration": 0.1304,
      "velocity": 101,
      "chip": "ym2612"
    },
    {
      "channel": 2,
      "note": 36,
      "start": 8.6603,
      "duration": 0.1146,
      "velocity": 127,
      "chip": "ym2612"
    },
    {
      "channel": 5,
      "note": 83,
      "start": 8.7,
      "duration": 3.249,
      "velocity": 92,
      "chip": "ym2612"
    },
    {
      "channel": 3,
      "note": 59,
      "start": 8.7896,
      "duration": 0.1377,
      "velocity": 91,
      "chip": "ym2612"
    },
    {
      "channel": 4,
      "note": 47,
      "start": 8.7904,
      "duration": 0.1377,
      "velocity": 101,
      "chip": "ym2612"
    },
    {
      "channel": 3,
      "note": 59,
      "start": 8.9279,
      "duration": 0.1321,
      "velocity": 91,
      "chip": "ym2612"
    },
    {
      "channel": 4,
      "note": 47,
      "start": 8.9286,
      "duration": 0.1321,
      "velocity": 101,
      "chip": "ym2612"
    },
    {
      "channel": 2,
      "note": 72,
      "start": 8.9299,
      "duration": 0.2364,
      "velocity": 120,
      "chip": "ym2612"
    },
    {
      "channel": 3,
      "note": 59,
      "start": 9.0606,
      "duration": 0.1375,
      "velocity": 91,
      "chip": "ym2612"
    },
    {
      "channel": 4,
      "note": 47,
      "start": 9.0613,
      "duration": 0.1375,
      "velocity": 101,
      "chip": "ym2612"
    },
    {
      "channel": 3,
      "note": 59,
      "start": 9.1987,
      "duration": 0.1348,
      "velocity": 91,
      "chip": "ym2612"
    },
    {
      "channel": 4,
      "note": 47,
      "start": 9.1994,
      "duration": 0.1353,
      "velocity": 101,
      "chip": "ym2612"
    },
    {
      "channel": 2,
      "note": 36,
      "start": 9.2011,
      "duration": 0.1156,
      "velocity": 127,
      "chip": "ym2612"
    },
    {
      "channel": 3,
      "note": 59,
      "start": 9.3346,
      "duration": 0.1348,
      "velocity": 91,
      "chip": "ym2612"
    },
    {
      "channel": 4,
      "note": 47,
      "start": 9.3353,
      "duration": 0.1349,
      "velocity": 101,
      "chip": "ym2612"
    },
    {
      "channel": 2,
      "note": 36,
      "start": 9.3365,
      "duration": 0.1162,
      "velocity": 127,
      "chip": "ym2612"
    },
    {
      "channel": 3,
      "note": 59,
      "start": 9.4699,
      "duration": 0.1321,
      "velocity": 91,
      "chip": "ym2612"
    },
    {
      "channel": 4,
      "note": 47,
      "start": 9.4707,
      "duration": 0.1321,
      "velocity": 101,
      "chip": "ym2612"
    },
    {
      "channel": 2,
      "note": 72,
      "start": 9.4719,
      "duration": 0.2363,
      "velocity": 120,
      "chip": "ym2612"
    },
    {
      "channel": 3,
      "note": 59,
      "start": 9.6026,
      "duration": 0.1375,
      "velocity": 91,
      "chip": "ym2612"
    },
    {
      "channel": 4,
      "note": 47,
      "start": 9.6033,
      "duration": 0.1376,
      "velocity": 101,
      "chip": "ym2612"
    },
    {
      "channel": 1,
      "note": 83,
      "start": 9.7399,
      "duration": 0.8125,
      "velocity": 96,
      "chip": "ym2612"
    },
    {
      "channel": 3,
      "note": 59,
      "start": 9.7407,
      "duration": 0.1317,
      "velocity": 91,
      "chip": "ym2612"
    },
    {
      "channel": 4,
      "note": 47,
      "start": 9.7415,
      "duration": 0.1317,
      "velocity": 101,
      "chip": "ym2612"
    },
    {
      "channel": 2,
      "note": 36,
      "start": 9.7428,
      "duration": 0.1158,
      "velocity": 127,
      "chip": "ym2612"
    },
    {
      "channel": 3,
      "note": 59,
      "start": 9.8731,
      "duration": 0.1376,
      "velocity": 91,
      "chip": "ym2612"
    },
    {
      "channel": 4,
      "note": 47,
      "start": 9.8737,
      "duration": 0.1377,
      "velocity": 101,
      "chip": "ym2612"
    },
    {
      "channel": 3,
      "note": 59,
      "start": 10.0113,
      "duration": 0.1321,
      "velocity": 91,
      "chip": "ym2612"
    },
    {
      "channel": 4,
      "note": 47,
      "start": 10.012,
      "duration": 0.1321,
      "velocity": 101,
      "chip": "ym2612"
    },
    {
      "channel": 2,
      "note": 72,
      "start": 10.0133,
      "duration": 0.2365,
      "velocity": 120,
      "chip": "ym2612"
    },
    {
      "channel": 3,
      "note": 59,
      "start": 10.144,
      "duration": 0.1375,
      "velocity": 91,
      "chip": "ym2612"
    },
    {
      "channel": 4,
      "note": 47,
      "start": 10.1447,
      "duration": 0.1375,
      "velocity": 101,
      "chip": "ym2612"
    },
    {
      "channel": 3,
      "note": 59,
      "start": 10.2821,
      "duration": 0.1349,
      "velocity": 91,
      "chip": "ym2612"
    },
    {
      "channel": 4,
      "note": 47,
      "start": 10.2829,
      "duration": 0.1353,
      "velocity": 101,
      "chip": "ym2612"
    },
    {
      "channel": 2,
      "note": 36,
      "start": 10.2846,
      "duration": 0.1162,
      "velocity": 127,
      "chip": "ym2612"
    },
    {
      "channel": 3,
      "note": 59,
      "start": 10.418,
      "duration": 0.1352,
      "velocity": 91,
      "chip": "ym2612"
    },
    {
      "channel": 4,
      "note": 47,
      "start": 10.4187,
      "duration": 0.1352,
      "velocity": 101,
      "chip": "ym2612"
    },
    {
      "channel": 2,
      "note": 36,
      "start": 10.42,
      "duration": 0.1161,
      "velocity": 127,
      "chip": "ym2612"
    },
    {
      "channel": 1,
      "note": 78,
      "start": 10.553,
      "duration": 0.2702,
      "velocity": 96,
      "chip": "ym2612"
    },
    {
      "channel": 3,
      "note": 59,
      "start": 10.5538,
      "duration": 0.1316,
      "velocity": 91,
      "chip": "ym2612"
    },
    {
      "channel": 4,
      "note": 47,
      "start": 10.5545,
      "duration": 0.1317,
      "velocity": 101,
      "chip": "ym2612"
    },
    {
      "channel": 2,
      "note": 72,
      "start": 10.5558,
      "duration": 0.2357,
      "velocity": 120,
      "chip": "ym2612"
    },
    {
      "channel": 3,
      "note": 59,
      "start": 10.6861,
      "duration": 0.138,
      "velocity": 91,
      "chip": "ym2612"
    },
    {
      "channel": 4,
      "note": 47,
      "start": 10.6868,
      "duration": 0.1382,
      "velocity": 101,
      "chip": "ym2612"
    },
    {
      "channel": 1,
      "note": 83,
      "start": 10.8239,
      "duration": 1.0823,
      "velocity": 96,
      "chip": "ym2612"
    },
    {
      "channel": 3,
      "note": 59,
      "start": 10.8247,
      "duration": 0.1311,
      "velocity": 91,
      "chip": "ym2612"
    },
    {
      "channel": 4,
      "note": 50,
      "start": 10.8257,
      "duration": 0.1308,
      "velocity": 101,
      "chip": "ym2612"
    },
    {
      "channel": 2,
      "note": 36,
      "start": 10.8269,
      "duration": 0.1151,
      "velocity": 127,
      "chip": "ym2612"
    },
    {
      "channel": 3,
      "note": 59,
      "start": 10.9563,
      "duration": 0.1377,
      "velocity": 91,
      "chip": "ym2612"
    },
    {
      "channel": 4,
      "note": 47,
      "start": 10.957,
      "duration": 0.1376,
      "velocity": 101,
      "chip": "ym2612"
    },
    {
      "channel": 3,
      "note": 59,
      "start": 11.0945,
      "duration": 0.1322,
      "velocity": 91,
      "chip": "ym2612"
    },
    {
      "channel": 4,
      "note": 47,
      "start": 11.0952,
      "duration": 0.1321,
      "velocity": 101,
      "chip": "ym2612"
    },
    {
      "channel": 2,
      "note": 72,
      "start": 11.0964,
      "duration": 0.2368,
      "velocity": 120,
      "chip": "ym2612"
    },
    {
      "channel": 3,
      "note": 59,
      "start": 11.2272,
      "duration": 0.1377,
      "velocity": 91,
      "chip": "ym2612"
    },
    {
      "channel": 4,
      "note": 47,
      "start": 11.2279,
      "duration": 0.1375,
      "velocity": 101,
      "chip": "ym2612"
    },
    {
      "channel": 3,
      "note": 59,
      "start": 11.3653,
      "duration": 0.135,
      "velocity": 91,
      "chip": "ym2612"
    },
    {
      "channel": 4,
      "note": 47,
      "start": 11.366,
      "duration": 0.1353,
      "velocity": 101,
      "chip": "ym2612"
    },
    {
      "channel": 2,
      "note": 36,
      "start": 11.3678,
      "duration": 0.1164,
      "velocity": 127,
      "chip": "ym2612"
    },
    {
      "channel": 3,
      "note": 59,
      "start": 11.5012,
      "duration": 0.135,
      "velocity": 91,
      "chip": "ym2612"
    },
    {
      "channel": 4,
      "note": 47,
      "start": 11.5019,
      "duration": 0.1349,
      "velocity": 101,
      "chip": "ym2612"
    },
    {
      "channel": 2,
      "note": 36,
      "start": 11.5032,
      "duration": 0.1163,
      "velocity": 127,
      "chip": "ym2612"
    },
    {
      "channel": 3,
      "note": 59,
      "start": 11.6366,
      "duration": 0.1321,
      "velocity": 91,
      "chip": "ym2612"
    },
    {
      "channel": 4,
      "note": 47,
      "start": 11.6373,
      "duration": 0.1319,
      "velocity": 101,
      "chip": "ym2612"
    },
    {
      "channel": 2,
      "note": 72,
      "start": 11.6385,
      "duration": 0.2364,
      "velocity": 120,
      "chip": "ym2612"
    },
    {
      "channel": 3,
      "note": 59,
      "start": 11.7691,
      "duration": 0.1374,
      "velocity": 91,
      "chip": "ym2612"
    },
    {
      "channel": 4,
      "note": 47,
      "start": 11.7698,
      "duration": 0.1375,
      "velocity": 101,
      "chip": "ym2612"
    },
    {
      "channel": 3,
      "note": 55,
      "start": 11.9071,
      "duration": 0.133,
      "velocity": 91,
      "chip": "ym2612"
    },
    {
      "channel": 4,
      "note": 43,
      "start": 11.9078,
      "duration": 0.1329,
      "velocity": 101,
      "chip": "ym2612"
    },
    {
      "channel": 2,
      "note": 36,
      "start": 11.9091,
      "duration": 0.1153,
      "velocity": 127,
      "chip": "ym2612"
    },
    {
      "channel": 0,
      "note": 81,
      "start": 12.0391,
      "duration": 0.1376,
      "velocity": 97,
      "chip": "ym2612"
    },
    {
      "channel": 1,
      "note": 78,
      "start": 12.0399,
      "duration": 0.1376,
      "velocity": 96,
      "chip": "ym2612"
    },
    {
      "channel": 3,
      "note": 55,
      "start": 12.0406,
      "duration": 0.1377,
      "velocity": 91,
      "chip": "ym2612"
    },
    {
      "channel": 4,
      "note": 47,
      "start": 12.0414,
      "duration": 0.1376,
      "velocity": 101,
      "chip": "ym2612"
    },
    {
      "channel": 5,
      "note": 81,
      "start": 12.0862,
      "duration": 0.1343,
      "velocity": 92,
      "chip": "ym2612"
    },
    {
      "channel": 0,
      "note": 83,
      "start": 12.1774,
      "duration": 0.132,
      "velocity": 97,
      "chip": "ym2612"
    },
    {
      "channel": 1,
      "note": 79,
      "start": 12.1781,
      "duration": 0.1321,
      "velocity": 96,
      "chip": "ym2612"
    },
    {
      "channel": 3,
      "note": 55,
      "start": 12.1788,
      "duration": 0.1321,
      "velocity": 91,
      "chip": "ym2612"
    },
    {
      "channel": 4,
      "note": 50,
      "start": 12.1795,
      "duration": 0.1321,
      "velocity": 101,
      "chip": "ym2612"
    },
    {
      "channel": 2,
      "note": 72,
      "start": 12.1807,
      "duration": 0.2358,
      "velocity": 120,
      "chip": "ym2612"
    },
    {
      "channel": 5,
      "note": 83,
      "start": 12.2211,
      "duration": 0.1347,
      "velocity": 92,
      "chip": "ym2612"
    },
    {
      "channel": 0,
      "note": 85,
      "start": 12.3101,
      "duration": 0.1374,
      "velocity": 97,
      "chip": "ym2612"
    },
    {
      "channel": 1,
      "note": 81,
      "start": 12.3108,
      "duration": 0.1375,
      "velocity": 96,
      "chip": "ym2612"
    },
    {
      "channel": 3,
      "note": 55,
      "start": 12.3115,
      "duration": 0.1375,
      "velocity": 91,
      "chip": "ym2612"
    },
    {
      "channel": 4,
      "note": 45,
      "start": 12.3122,
      "duration": 0.1376,
      "velocity": 101,
      "chip": "ym2612"
    },
    {
      "channel": 5,
      "note": 85,
      "start": 12.3566,
      "duration": 0.1347,
      "velocity": 92,
      "chip": "ym2612"
    },
    {
      "channel": 0,
      "note": 86,
      "start": 12.4482,
      "duration": 0.1349,
      "velocity": 97,
      "chip": "ym2612"
    },
    {
      "channel": 1,
      "note": 83,
      "start": 12.4489,
      "duration": 0.1354,
      "velocity": 96,
      "chip": "ym2612"
    },
    {
      "channel": 3,
      "note": 57,
      "start": 12.4496,
      "duration": 0.1354,
      "velocity": 91,
      "chip": "ym2612"
    },
    {
      "channel": 4,
      "note": 49,
      "start": 12.4508,
      "duration": 0.135,
      "velocity": 101,
      "chip": "ym2612"
    },
    {
      "channel": 2,
      "note": 36,
      "start": 12.452,
      "duration": 0.1149,
      "velocity": 127,
      "chip": "ym2612"
    },
    {
      "channel": 5,
      "note": 86,
      "start": 12.492,
      "duration": 0.1347,
      "velocity": 92,
      "chip": "ym2612"
    },
    {
      "channel": 0,
      "note": 88,
      "start": 12.5842,
      "duration": 0.1346,
      "velocity": 97,
      "chip": "ym2612"
    },
    {
      "channel": 1,
      "note": 85,
      "start": 12.5849,
      "duration": 0.1347,
      "velocity": 96,
      "chip": "ym2612"
    },
    {
      "channel": 3,
      "note": 57,
      "start": 12.5857,
      "duration": 0.1347,
      "velocity": 91,
      "chip": "ym2612"
    },
    {
      "channel": 4,
      "note": 52,
      "start": 12.5864,
      "duration": 0.1348,
      "velocity": 101,
      "chip": "ym2612"
    },
    {
      "channel": 2,
      "note": 36,
      "start": 12.5876,
      "duration": 0.1152,
      "velocity": 127,
      "chip": "ym2612"
    },
    {
      "channel": 5,
      "note": 88,
      "start": 12.6274,
      "duration": 0.1348,
      "velocity": 92,
      "chip": "ym2612"
    },
    {
      "channel": 0,
      "note": 85,
      "start": 12.7195,
      "duration": 0.1316,
      "velocity": 97,
      "chip": "ym2612"
    },
    {
      "channel": 1,
      "note": 81,
      "start": 12.7203,
      "duration": 0.1317,
      "velocity": 96,
      "chip": "ym2612"
    },
    {
      "channel": 3,
      "note": 57,
      "start": 12.721,
      "duration": 0.1317,
      "velocity": 91,
      "chip": "ym2612"
    },
    {
      "channel": 4,
      "note": 49,
      "start": 12.7218,
      "duration": 0.1317,
      "velocity": 101,
      "chip": "ym2612"
    },
    {
      "channel": 2,
      "note": 72,
      "start": 12.7229,
      "duration": 0.2353,
      "velocity": 120,
      "chip": "ym2612"
    },
    {
      "channel": 5,
      "note": 85,
      "start": 12.7629,
      "duration": 0.1347,
      "velocity": 92,
      "chip": "ym2612"
    },
    {
      "channel": 0,
      "note": 81,
      "start": 12.8519,
      "duration": 0.1376,
      "velocity": 97,
      "chip": "ym2612"
    },
    {
      "channel": 1,
      "note": 78,
      "start": 12.8526,
      "duration": 0.1376,
      "velocity": 96,
      "chip": "ym2612"
    },
    {
      "channel": 3,
      "note": 57,
      "start": 12.8533,
      "duration": 0.1378,
      "velocity": 91,
      "chip": "ym2612"
    },
    {
      "channel": 4,
      "note": 45,
      "start": 12.8541,
      "duration": 0.138,
      "velocity": 101,
      "chip": "ym2612"
    },
    {
      "channel": 5,
      "note": 81,
      "start": 12.8983,
      "duration": 0.1347,
      "velocity": 92,
      "chip": "ym2612"
    },
    {
      "channel": 0,
      "note": 83,
      "start": 12.9901,
      "duration": 3.2496,
      "velocity": 97,
      "chip": "ym2612"
    },
    {
      "channel": 1,
      "note": 83,
      "start": 12.9909,
      "duration": 1.0824,
      "velocity": 96,
      "chip": "ym2612"
    },
    {
      "channel": 3,
      "note": 59,
      "start": 12.9918,
      "duration": 0.1309,
      "velocity": 91,
      "chip": "ym2612"
    },
    {
      "channel": 4,
      "note": 50,
      "start": 12.9927,
      "duration": 0.1308,
      "velocity": 101,
      "chip": "ym2612"
    },
    {
      "channel": 2,
      "note": 36,
      "start": 12.9939,
      "duration": 0.1148,
      "velocity": 127,
      "chip": "ym2612"
    },
    {
      "channel": 5,
      "note": 83,
      "start": 13.0341,
      "duration": 3.2486,
      "velocity": 92,
      "chip": "ym2612"
    },
    {
      "channel": 3,
      "note": 59,
      "start": 13.1234,
      "duration": 0.1376,
      "velocity": 91,
      "chip": "ym2612"
    },
    {
      "channel": 4,
      "note": 47,
      "start": 13.1241,
      "duration": 0.1376,
      "velocity": 101,
      "chip": "ym2612"
    },
    {
      "channel": 3,
      "note": 59,
      "start": 13.2615,
      "duration": 0.1322,
      "velocity": 91,
      "chip": "ym2612"
    },
    {
      "channel": 4,
      "note": 47,
      "start": 13.2622,
      "duration": 0.1322,
      "velocity": 101,
      "chip": "ym2612"
    },
    {
      "channel": 2,
      "note": 72,
      "start": 13.2634,
      "duration": 0.2366,
      "velocity": 120,
      "chip": "ym2612"
    },
    {
      "channel": 3,
      "note": 59,
      "start": 13.3943,
      "duration": 0.1375,
      "velocity": 91,
      "chip": "ym2612"
    },
    {
      "channel": 4,
      "note": 47,
      "start": 13.3951,
      "duration": 0.1375,
      "velocity": 101,
      "chip": "ym2612"
    },
    {
      "channel": 3,
      "note": 59,
      "start": 13.5324,
      "duration": 0.1352,
      "velocity": 91,
      "chip": "ym2612"
    },
    {
      "channel": 4,
      "note": 47,
      "start": 13.5331,
      "duration": 0.1353,
      "velocity": 101,
      "chip": "ym2612"
    },
    {
      "channel": 2,
      "note": 36,
      "start": 13.5348,
      "duration": 0.1162,
      "velocity": 127,
      "chip": "ym2612"
    },
    {
      "channel": 3,
      "note": 59,
      "start": 13.6683,
      "duration": 0.1349,
      "velocity": 91,
      "chip": "ym2612"
    },
    {
      "channel": 4,
      "note": 47,
      "start": 13.669,
      "duration": 0.1349,
      "velocity": 101,
      "chip": "ym2612"
    },
    {
      "channel": 2,
      "note": 36,
      "start": 13.6702,
      "duration": 0.1162,
      "velocity": 127,
      "chip": "ym2612"
    },
    {
      "channel": 3,
      "note": 59,
      "start": 13.8037,
      "duration": 0.1317,
      "velocity": 91,
      "chip": "ym2612"
    },
    {
      "channel": 4,
      "note": 47,
      "start": 13.8045,
      "duration": 0.1317,
      "velocity": 101,
      "chip": "ym2612"
    },
    {
      "channel": 2,
      "note": 72,
      "start": 13.8057,
      "duration": 0.2361,
      "velocity": 120,
      "chip": "ym2612"
    },
    {
      "channel": 3,
      "note": 59,
      "start": 13.936,
      "duration": 0.1377,
      "velocity": 91,
      "chip": "ym2612"
    },
    {
      "channel": 4,
      "note": 47,
      "start": 13.9368,
      "duration": 0.1376,
      "velocity": 101,
      "chip": "ym2612"
    },
    {
      "channel": 3,
      "note": 59,
      "start": 14.0743,
      "duration": 0.1324,
      "velocity": 91,
      "chip": "ym2612"
    },
    {
      "channel": 4,
      "note": 47,
      "start": 14.075,
      "duration": 0.1324,
      "velocity": 101,
      "chip": "ym2612"
    },
    {
      "channel": 2,
      "note": 36,
      "start": 14.0763,
      "duration": 0.1157,
      "velocity": 127,
      "chip": "ym2612"
    },
    {
      "channel": 1,
      "note": 81,
      "start": 14.2064,
      "duration": 0.1377,
      "velocity": 96,
      "chip": "ym2612"
    },
    {
      "channel": 3,
      "note": 59,
      "start": 14.2073,
      "duration": 0.1377,
      "velocity": 91,
      "chip": "ym2612"
    },
    {
      "channel": 4,
      "note": 47,
      "start": 14.208,
      "duration": 0.1377,
      "velocity": 101,
      "chip": "ym2612"
    },
    {
      "channel": 1,
      "note": 83,
      "start": 14.3447,
      "duration": 0.132,
      "velocity": 96,
      "chip": "ym2612"
    },
    {
      "channel": 3,
      "note": 59,
      "start": 14.3456,
      "duration": 0.1319,
      "velocity": 91,
      "chip": "ym2612"
    },
    {
      "channel": 4,
      "note": 47,
      "start": 14.3463,
      "duration": 0.132,
      "velocity": 101,
      "chip": "ym2612"
    },
    {
      "channel": 2,
      "note": 72,
      "start": 14.3476,
      "duration": 0.2359,
      "velocity": 120,
      "chip": "ym2612"
    },
    {
      "channel": 1,
      "note": 85,
      "start": 14.4773,
      "duration": 0.1375,
      "velocity": 96,
      "chip": "ym2612"
    },
    {
      "channel": 3,
      "note": 59,
      "start": 14.4781,
      "duration": 0.1375,
      "velocity": 91,
      "chip": "ym2612"
    },
    {
      "channel": 4,
      "note": 47,
      "start": 14.4788,
      "duration": 0.1376,
      "velocity": 101,
      "chip": "ym2612"
    },
    {
      "channel": 1,
      "note": 86,
      "start": 14.6154,
      "duration": 0.1349,
      "velocity": 96,
      "chip": "ym2612"
    },
    {
      "channel": 3,
      "note": 59,
      "start": 14.6162,
      "duration": 0.1353,
      "velocity": 91,
      "chip": "ym2612"
    },
    {
      "channel": 4,
      "note": 47,
      "start": 14.6172,
      "duration": 0.1351,
      "velocity": 101,
      "chip": "ym2612"
    },
    {
      "channel": 2,
      "note": 36,
      "start": 14.6187,
      "duration": 0.1158,
      "velocity": 127,
      "chip": "ym2612"
    },
    {
      "channel": 1,
      "note": 88,
      "start": 14.7513,
      "duration": 0.1349,
      "velocity": 96,
      "chip": "ym2612"
    },
    {
      "channel": 3,
      "note": 59,
      "start": 14.7521,
      "duration": 0.1349,
      "velocity": 91,
      "chip": "ym2612"
    },
    {
      "channel": 4,
      "note": 47,
      "start": 14.7529,
      "duration": 0.1349,
      "velocity": 101,
      "chip": "ym2612"
    },
    {
      "channel": 2,
      "note": 36,
      "start": 14.7541,
      "duration": 0.1157,
      "velocity": 127,
      "chip": "ym2612"
    },
    {
      "channel": 1,
      "note": 85,
      "start": 14.8868,
      "duration": 0.1315,
      "velocity": 96,
      "chip": "ym2612"
    },
    {
      "channel": 3,
      "note": 59,
      "start": 14.8876,
      "duration": 0.1315,
      "velocity": 91,
      "chip": "ym2612"
    },
    {
      "channel": 4,
      "note": 47,
      "start": 14.8883,
      "duration": 0.1316,
      "velocity": 101,
      "chip": "ym2612"
    },
    {
      "channel": 2,
      "note": 72,
      "start": 14.8896,
      "duration": 0.2358,
      "velocity": 120,
      "chip": "ym2612"
    },
    {
      "channel": 1,
      "note": 81,
      "start": 15.0189,
      "duration": 0.138,
      "velocity": 96,
      "chip": "ym2612"
    },
    {
      "channel": 3,
      "note": 59,
      "start": 15.0198,
      "duration": 0.138,
      "velocity": 91,
      "chip": "ym2612"
    },
    {
      "channel": 4,
      "note": 47,
      "start": 15.0205,
      "duration": 0.1382,
      "velocity": 101,
      "chip": "ym2612"
    },
    {
      "channel": 1,
      "note": 83,
      "start": 15.1575,
      "duration": 1.0824,
      "velocity": 96,
      "chip": "ym2612"
    },
    {
      "channel": 3,
      "note": 59,
      "start": 15.1584,
      "duration": 0.1312,
      "velocity": 91,
      "chip": "ym2612"
    },
    {
      "channel": 4,
      "note": 50,
      "start": 15.1593,
      "duration": 0.1309,
      "velocity": 101,
      "chip": "ym2612"
    },
    {
      "channel": 2,
      "note": 36,
      "start": 15.1606,
      "duration": 0.1151,
      "velocity": 127,
      "chip": "ym2612"
    },
    {
      "channel": 3,
      "note": 59,
      "start": 15.29,
      "duration": 0.1378,
      "velocity": 91,
      "chip": "ym2612"
    },
    {
      "channel": 4,
      "note": 47,
      "start": 15.2908,
      "duration": 0.1376,
      "velocity": 101,
      "chip": "ym2612"
    },
    {
      "channel": 3,
      "note": 59,
      "start": 15.4283,
      "duration": 0.1321,
      "velocity": 91,
      "chip": "ym2612"
    },
    {
      "channel": 4,
      "note": 47,
      "start": 15.429,
      "duration": 0.132,
      "velocity": 101,
      "chip": "ym2612"
    },
    {
      "channel": 2,
      "note": 72,
      "start": 15.4302,
      "duration": 0.2373,
      "velocity": 120,
      "chip": "ym2612"
    },
    {
      "channel": 3,
      "note": 59,
      "start": 15.5608,
      "duration": 0.1377,
      "velocity": 91,
      "chip": "ym2612"
    },
    {
      "channel": 4,
      "note": 47,
      "start": 15.5616,
      "duration": 0.1376,
      "velocity": 101,
      "chip": "ym2612"
    },
    {
      "channel": 3,
      "note": 59,
      "start": 15.699,
      "duration": 0.1356,
      "velocity": 91,
      "chip": "ym2612"
    },
    {
      "channel": 4,
      "note": 47,
      "start": 15.6998,
      "duration": 0.1354,
      "velocity": 101,
      "chip": "ym2612"
    },
    {
      "channel": 2,
      "note": 36,
      "start": 15.7015,
      "duration": 0.1164,
      "velocity": 127,
      "chip": "ym2612"
    },
    {
      "channel": 3,
      "note": 59,
      "start": 15.835,
      "duration": 0.1349,
      "velocity": 91,
      "chip": "ym2612"
    },
    {
      "channel": 4,
      "note": 47,
      "start": 15.8357,
      "duration": 0.1349,
      "velocity": 101,
      "chip": "ym2612"
    },
    {
      "channel": 2,
      "note": 36,
      "start": 15.8371,
      "duration": 0.1161,
      "velocity": 127,
      "chip": "ym2612"
    },
    {
      "channel": 3,
      "note": 59,
      "start": 15.9704,
      "duration": 0.1321,
      "velocity": 91,
      "chip": "ym2612"
    },
    {
      "channel": 4,
      "note": 47,
      "start": 15.9711,
      "duration": 0.132,
      "velocity": 101,
      "chip": "ym2612"
    },
    {
      "channel": 2,
      "note": 72,
      "start": 15.9724,
      "duration": 0.2363,
      "velocity": 120,
      "chip": "ym2612"
    },
    {
      "channel": 3,
      "note": 59,
      "start": 16.1029,
      "duration": 0.1374,
      "velocity": 91,
      "chip": "ym2612"
    },
    {
      "channel": 4,
      "note": 47,
      "start": 16.1037,
      "duration": 0.1373,
      "velocity": 101,
      "chip": "ym2612"
    },
    {
      "channel": 3,
      "note": 55,
      "start": 16.2409,
      "duration": 0.1329,
      "velocity": 91,
      "chip": "ym2612"
    },
    {
      "channel": 4,
      "note": 43,
      "start": 16.2416,
      "duration": 0.1329,
      "velocity": 101,
      "chip": "ym2612"
    },
    {
      "channel": 2,
      "note": 36,
      "start": 16.2429,
      "duration": 0.1152,
      "velocity": 127,
      "chip": "ym2612"
    },
    {
      "channel": 0,
      "note": 81,
      "start": 16.3729,
      "duration": 0.1375,
      "velocity": 97,
      "chip": "ym2612"
    },
    {
      "channel": 1,
      "note": 78,
      "start": 16.3736,
      "duration": 0.1376,
      "velocity": 96,
      "chip": "ym2612"
    },
    {
      "channel": 3,
      "note": 55,
      "start": 16.3743,
      "duration": 0.1376,
      "velocity": 91,
      "chip": "ym2612"
    },
    {
      "channel": 4,
      "note": 47,
      "start": 16.375,
      "duration": 0.1376,
      "velocity": 101,
      "chip": "ym2612"
    },
    {
      "channel": 5,
      "note": 81,
      "start": 16.4199,
      "duration": 0.1344,
      "velocity": 92,
      "chip": "ym2612"
    },
    {
      "channel": 0,
      "note": 83,
      "start": 16.511,
      "duration": 0.1321,
      "velocity": 97,
      "chip": "ym2612"
    },
    {
      "channel": 1,
      "note": 79,
      "start": 16.5117,
      "duration": 0.1322,
      "velocity": 96,
      "chip": "ym2612"
    },
    {
      "channel": 3,
      "note": 55,
      "start": 16.5125,
      "duration": 0.1322,
      "velocity": 91,
      "chip": "ym2612"
    },
    {
      "channel": 4,
      "note": 50,
      "start": 16.5132,
      "duration": 0.1322,
      "velocity": 101,
      "chip": "ym2612"
    },
    {
      "channel": 2,
      "note": 72,
      "start": 16.5143,
      "duration": 0.2359,
      "velocity": 120,
      "chip": "ym2612"
    },
    {
      "channel": 5,
      "note": 83,
      "start": 16.5549,
      "duration": 0.1349,
      "velocity": 92,
      "chip": "ym2612"
    },
    {
      "channel": 0,
      "note": 85,
      "start": 16.6437,
      "duration": 0.1375,
      "velocity": 97,
      "chip": "ym2612"
    },
    {
      "channel": 1,
      "note": 81,
      "start": 16.6445,
      "duration": 0.1375,
      "velocity": 96,
      "chip": "ym2612"
    },
    {
      "channel": 3,
      "note": 55,
      "start": 16.6453,
      "duration": 0.1375,
      "velocity": 91,
      "chip": "ym2612"
    },
    {
      "channel": 4,
      "note": 45,
      "start": 16.646,
      "duration": 0.1376,
      "velocity": 101,
      "chip": "ym2612"
    },
    {
      "channel": 5,
      "note": 85,
      "start": 16.6905,
      "duration": 0.1346,
      "velocity": 92,
      "chip": "ym2612"
    },
    {
      "channel": 0,
      "note": 86,
      "start": 16.7819,
      "duration": 0.1349,
      "velocity": 97,
      "chip": "ym2612"
    },
    {
      "channel": 1,
      "note": 83,
      "start": 16.7827,
      "duration": 0.1353,
      "velocity": 96,
      "chip": "ym2612"
    },
    {
      "channel": 3,
      "note": 57,
      "start": 16.7834,
      "duration": 0.1354,
      "velocity": 91,
      "chip": "ym2612"
    },
    {
      "channel": 4,
      "note": 49,
      "start": 16.7845,
      "duration": 0.135,
      "velocity": 101,
      "chip": "ym2612"
    },
    {
      "channel": 2,
      "note": 36,
      "start": 16.7857,
      "duration": 0.1154,
      "velocity": 127,
      "chip": "ym2612"
    },
    {
      "channel": 5,
      "note": 86,
      "start": 16.8258,
      "duration": 0.1347,
      "velocity": 92,
      "chip": "ym2612"
    },
    {
      "channel": 0,
      "note": 88,
      "start": 16.9178,
      "duration": 0.1346,
      "velocity": 97,
      "chip": "ym2612"
    },
    {
      "channel": 1,
      "note": 85,
      "start": 16.9186,
      "duration": 0.1347,
      "velocity": 96,
      "chip": "ym2612"
    },
    {
      "channel": 3,
      "note": 57,
      "start": 16.9193,
      "duration": 0.1348,
      "velocity": 91,
      "chip": "ym2612"
    },
    {
      "channel": 4,
      "note": 52,
      "start": 16.9201,
      "duration": 0.1347,
      "velocity": 101,
      "chip": "ym2612"
    },
    {
      "channel": 2,
      "note": 36,
      "start": 16.9213,
      "duration": 0.1151,
      "velocity": 127,
      "chip": "ym2612"
    },
    {
      "channel": 5,
      "note": 88,
      "start": 16.9612,
      "duration": 0.1347,
      "velocity": 92,
      "chip": "ym2612"
    },
    {
      "channel": 0,
      "note": 85,
      "start": 17.0532,
      "duration": 0.1316,
      "velocity": 97,
      "chip": "ym2612"
    },
    {
      "channel": 1,
      "note": 81,
      "start": 17.0539,
      "duration": 0.1317,
      "velocity": 96,
      "chip": "ym2612"
    },
    {
      "channel": 3,
      "note": 57,
      "start": 17.0547,
      "duration": 0.1317,
      "velocity": 91,
      "chip": "ym2612"
    },
    {
      "channel": 4,
      "note": 49,
      "start": 17.0554,
      "duration": 0.1317,
      "velocity": 101,
      "chip": "ym2612"
    },
    {
      "channel": 2,
      "note": 72,
      "start": 17.0565,
      "duration": 0.2354,
      "velocity": 120,
      "chip": "ym2612"
    },
    {
      "channel": 5,
      "note": 85,
      "start": 17.0966,
      "duration": 0.1347,
      "velocity": 92,
      "chip": "ym2612"
    },
    {
      "channel": 0,
      "note": 81,
      "start": 17.1855,
      "duration": 0.1376,
      "velocity": 97,
      "chip": "ym2612"
    },
    {
      "channel": 1,
      "note": 78,
      "start": 17.1862,
      "duration": 0.1377,
      "velocity": 96,
      "chip": "ym2612"
    },
    {
      "channel": 3,
      "note": 57,
      "start": 17.1869,
      "duration": 0.1379,
      "velocity": 91,
      "chip": "ym2612"
    },
    {
      "channel": 4,
      "note": 45,
      "start": 17.1876,
      "duration": 0.138,
      "velocity": 101,
      "chip": "ym2612"
    },
    {
      "channel": 5,
      "note": 81,
      "start": 17.232,
      "duration": 0.1347,
      "velocity": 92,
      "chip": "ym2612"
    },
    {
      "channel": 0,
      "note": 83,
      "start": 17.3237,
      "duration": 0.4027,
      "velocity": 97,
      "chip": "ym2612"
    },
    {
      "channel": 1,
      "note": 79,
      "start": 17.3245,
      "duration": 1.0826,
      "velocity": 96,
      "chip": "ym2612"
    },
    {
      "channel": 3,
      "note": 55,
      "start": 17.3254,
      "duration": 0.1312,
      "velocity": 91,
      "chip": "ym2612"
    },
    {
      "channel": 4,
      "note": 43,
      "start": 17.3262,
      "duration": 0.1312,
      "velocity": 101,
      "chip": "ym2612"
    },
    {
      "channel": 2,
      "note": 36,
      "start": 17.3274,
      "duration": 0.1149,
      "velocity": 127,
      "chip": "ym2612"
    },
    {
      "channel": 5,
      "note": 83,
      "start": 17.3679,
      "duration": 0.4052,
      "velocity": 92,
      "chip": "ym2612"
    },
    {
      "channel": 3,
      "note": 55,
      "start": 17.4571,
      "duration": 0.1377,
      "velocity": 91,
      "chip": "ym2612"
    },
    {
      "channel": 4,
      "note": 43,
      "start": 17.458,
      "duration": 0.1377,
      "velocity": 101,
      "chip": "ym2612"
    },
    {
      "channel": 3,
      "note": 55,
      "start": 17.5954,
      "duration": 0.1324,
      "velocity": 91,
      "chip": "ym2612"
    },
    {
      "channel": 4,
      "note": 43,
      "start": 17.5962,
      "duration": 0.1324,
      "velocity": 101,
      "chip": "ym2612"
    },
    {
      "channel": 2,
      "note": 72,
      "start": 17.5974,
      "duration": 0.2363,
      "velocity": 120,
      "chip": "ym2612"
    },
    {
      "channel": 0,
      "note": 90,
      "start": 17.7271,
      "duration": 0.4088,
      "velocity": 97,
      "chip": "ym2612"
    },
    {
      "channel": 3,
      "note": 55,
      "start": 17.7283,
      "duration": 0.1374,
      "velocity": 91,
      "chip": "ym2612"
    },
    {
      "channel": 4,
      "note": 43,
      "start": 17.7292,
      "duration": 0.1374,
      "velocity": 101,
      "chip": "ym2612"
    },
    {
      "channel": 5,
      "note": 90,
      "start": 17.7738,
      "duration": 0.4055,
      "velocity": 92,
      "chip": "ym2612"
    },
    {
      "channel": 3,
      "note": 55,
      "start": 17.8663,
      "duration": 0.1352,
      "velocity": 91,
      "chip": "ym2612"
    },
    {
      "channel": 4,
      "note": 43,
      "start": 17.8676,
      "duration": 0.1348,
      "velocity": 101,
      "chip": "ym2612"
    },
    {
      "channel": 2,
      "note": 36,
      "start": 17.8688,
      "duration": 0.116,
      "velocity": 127,
      "chip": "ym2612"
    },
    {
      "channel": 3,
      "note": 55,
      "start": 18.0021,
      "duration": 0.1351,
      "velocity": 91,
      "chip": "ym2612"
    },
    {
      "channel": 4,
      "note": 43,
      "start": 18.0029,
      "duration": 0.1351,
      "velocity": 101,
      "chip": "ym2612"
    },
    {
      "channel": 2,
      "note": 36,
      "start": 18.0042,
      "duration": 0.1156,
      "velocity": 127,
      "chip": "ym2612"
    },
    {
      "channel": 0,
      "note": 83,
      "start": 18.1366,
      "duration": 1.3533,
      "velocity": 97,
      "chip": "ym2612"
    },
    {
      "channel": 3,
      "note": 55,
      "start": 18.1378,
      "duration": 0.1314,
      "velocity": 91,
      "chip": "ym2612"
    },
    {
      "channel": 4,
      "note": 43,
      "start": 18.1386,
      "duration": 0.1314,
      "velocity": 101,
      "chip": "ym2612"
    },
    {
      "channel": 2,
      "note": 72,
      "start": 18.1398,
      "duration": 0.2358,
      "velocity": 120,
      "chip": "ym2612"
    },
    {
      "channel": 5,
      "note": 83,
      "start": 18.18,
      "duration": 1.3536,
      "velocity": 92,
      "chip": "ym2612"
    },
    {
      "channel": 3,
      "note": 55,
      "start": 18.2698,
      "duration": 0.1383,
      "velocity": 91,
      "chip": "ym2612"
    },
    {
      "channel": 4,
      "note": 43,
      "start": 18.2706,
      "duration": 0.1383,
      "velocity": 101,
      "chip": "ym2612"
    },
    {
      "channel": 1,
      "note": 79,
      "start": 18.4078,
      "duration": 0.27,
      "velocity": 96,
      "chip": "ym2612"
    },
    {
      "channel": 3,
      "note": 55,
      "start": 18.4086,
      "duration": 0.1313,
      "velocity": 91,
      "chip": "ym2612"
    },
    {
      "channel": 4,
      "note": 43,
      "start": 18.4094,
      "duration": 0.1313,
      "velocity": 101,
      "chip": "ym2612"
    },
    {
      "channel": 2,
      "note": 36,
      "start": 18.4107,
      "duration": 0.1153,
      "velocity": 127,
      "chip": "ym2612"
    },
    {
      "channel": 3,
      "note": 55,
      "start": 18.5405,
      "duration": 0.1381,
      "velocity": 91,
      "chip": "ym2612"
    },
    {
      "channel": 4,
      "note": 43,
      "start": 18.5413,
      "duration": 0.1382,
      "velocity": 101,
      "chip": "ym2612"
    },
    {
      "channel": 1,
      "note": 81,
      "start": 18.6783,
      "duration": 0.2702,
      "velocity": 96,
      "chip": "ym2612"
    },
    {
      "channel": 3,
      "note": 55,
      "start": 18.6792,
      "duration": 0.1315,
      "velocity": 91,
      "chip": "ym2612"
    },
    {
      "channel": 4,
      "note": 43,
      "start": 18.68,
      "duration": 0.1316,
      "velocity": 101,
      "chip": "ym2612"
    },
    {
      "channel": 2,
      "note": 72,
      "start": 18.6813,
      "duration": 0.2364,
      "velocity": 120,
      "chip": "ym2612"
    },
    {
      "channel": 3,
      "note": 55,
      "start": 18.8113,
      "duration": 0.138,
      "velocity": 91,
      "chip": "ym2612"
    },
    {
      "channel": 4,
      "note": 43,
      "start": 18.8122,
      "duration": 0.138,
      "velocity": 101,
      "chip": "ym2612"
    },
    {
      "channel": 1,
      "note": 83,
      "start": 18.9491,
      "duration": 0.2707,
      "velocity": 96,
      "chip": "ym2612"
    },
    {
      "channel": 3,
      "note": 55,
      "start": 18.95,
      "duration": 0.135,
      "velocity": 91,
      "chip": "ym2612"
    },
    {
      "channel": 4,
      "note": 43,
      "start": 18.9512,
      "duration": 0.1346,
      "velocity": 101,
      "chip": "ym2612"
    },
    {
      "channel": 2,
      "note": 36,
      "start": 18.9525,
      "duration": 0.1157,
      "velocity": 127,
      "chip": "ym2612"
    },
    {
      "channel": 3,
      "note": 55,
      "start": 19.0855,
      "duration": 0.1351,
      "velocity": 91,
      "chip": "ym2612"
    },
    {
      "channel": 4,
      "note": 43,
      "start": 19.0863,
      "duration": 0.1352,
      "velocity": 101,
      "chip": "ym2612"
    },
    {
      "channel": 2,
      "note": 36,
      "start": 19.0877,
      "duration": 0.1155,
      "velocity": 127,
      "chip": "ym2612"
    },
    {
      "channel": 1,
      "note": 86,
      "start": 19.2204,
      "duration": 0.2704,
      "velocity": 96,
      "chip": "ym2612"
    },
    {
      "channel": 3,
      "note": 55,
      "start": 19.2213,
      "duration": 0.1312,
      "velocity": 91,
      "chip": "ym2612"
    },
    {
      "channel": 4,
      "note": 43,
      "start": 19.2221,
      "duration": 0.1312,
      "velocity": 101,
      "chip": "ym2612"
    },
    {
      "channel": 2,
      "note": 72,
      "start": 19.2233,
      "duration": 0.2357,
      "velocity": 120,
      "chip": "ym2612"
    },
    {
      "channel": 3,
      "note": 55,
      "start": 19.3531,
      "duration": 0.1385,
      "velocity": 91,
      "chip": "ym2612"
    },
    {
      "channel": 4,
      "note": 43,
      "start": 19.3539,
      "duration": 0.1385,
      "velocity": 101,
      "chip": "ym2612"
    },
    {
      "channel": 0,
      "note": 83,
      "start": 19.4906,
      "duration": 0.4027,
      "velocity": 97,
      "chip": "ym2612"
    },
    {
      "channel": 1,
      "note": 81,
      "start": 19.4914,
      "duration": 1.0825,
      "velocity": 96,
      "chip": "ym2612"
    },
    {
      "channel": 3,
      "note": 57,
      "start": 19.4922,
      "duration": 0.1314,
      "velocity": 91,
      "chip": "ym2612"
    },
    {
      "channel": 4,
      "note": 45,
      "start": 19.493,
      "duration": 0.1314,
      "velocity": 101,
      "chip": "ym2612"
    },
    {
      "channel": 2,
      "note": 36,
      "start": 19.4943,
      "duration": 0.1149,
      "velocity": 127,
      "chip": "ym2612"
    },
    {
      "channel": 5,
      "note": 83,
      "start": 19.5348,
      "duration": 0.4052,
      "velocity": 92,
      "chip": "ym2612"
    },
    {
      "channel": 3,
      "note": 57,
      "start": 19.6242,
      "duration": 0.1374,
      "velocity": 91,
      "chip": "ym2612"
    },
    {
      "channel": 4,
      "note": 45,
      "start": 19.625,
      "duration": 0.1374,
      "velocity": 101,
      "chip": "ym2612"
    },
    {
      "channel": 3,
      "note": 57,
      "start": 19.7622,
      "duration": 0.1324,
      "velocity": 91,
      "chip": "ym2612"
    },
    {
      "channel": 4,
      "note": 45,
      "start": 19.763,
      "duration": 0.1324,
      "velocity": 101,
      "chip": "ym2612"
    },
    {
      "channel": 2,
      "note": 72,
      "start": 19.7642,
      "duration": 0.2368,
      "velocity": 120,
      "chip": "ym2612"
    },
    {
      "channel": 0,
      "note": 90,
      "start": 19.894,
      "duration": 0.4088,
      "velocity": 97,
      "chip": "ym2612"
    },
    {
      "channel": 3,
      "note": 57,
      "start": 19.8952,
      "duration": 0.1372,
      "velocity": 91,
      "chip": "ym2612"
    },
    {
      "channel": 4,
      "note": 45,
      "start": 19.896,
      "duration": 0.1372,
      "velocity": 101,
      "chip": "ym2612"
    },
    {
      "channel": 5,
      "note": 90,
      "start": 19.9407,
      "duration": 0.4056,
      "velocity": 92,
      "chip": "ym2612"
    },
    {
      "channel": 3,
      "note": 57,
      "start": 20.033,
      "duration": 0.1353,
      "velocity": 91,
      "chip": "ym2612"
    },
    {
      "channel": 4,
      "note": 45,
      "start": 20.0342,
      "duration": 0.1349,
      "velocity": 101,
      "chip": "ym2612"
    },
    {
      "channel": 2,
      "note": 36,
      "start": 20.0355,
      "duration": 0.1161,
      "velocity": 127,
      "chip": "ym2612"
    },
    {
      "channel": 3,
      "note": 57,
      "start": 20.1689,
      "duration": 0.1352,
      "velocity": 91,
      "chip": "ym2612"
    },
    {
      "channel": 4,
      "note": 45,
      "start": 20.1698,
      "duration": 0.1352,
      "velocity": 101,
      "chip": "ym2612"
    },
    {
      "channel": 2,
      "note": 36,
      "start": 20.1711,
      "duration": 0.1156,
      "velocity": 127,
      "chip": "ym2612"
    },
    {
      "channel": 0,
      "note": 88,
      "start": 20.3035,
      "duration": 0.5407,
      "velocity": 97,
      "chip": "ym2612"
    },
    {
      "channel": 3,
      "note": 57,
      "start": 20.3047,
      "duration": 0.1313,
      "velocity": 91,
      "chip": "ym2612"
    },
    {
      "channel": 4,
      "note": 45,
      "start": 20.3056,
      "duration": 0.1313,
      "velocity": 101,
      "chip": "ym2612"
    },
    {
      "channel": 2,
      "note": 72,
      "start": 20.3068,
      "duration": 0.2357,
      "velocity": 120,
      "chip": "ym2612"
    },
    {
      "channel": 5,
      "note": 88,
      "start": 20.347,
      "duration": 0.541,
      "velocity": 92,
      "chip": "ym2612"
    },
    {
      "channel": 3,
      "note": 57,
      "start": 20.4366,
      "duration": 0.1382,
      "velocity": 91,
      "chip": "ym2612"
    },
    {
      "channel": 4,
      "note": 45,
      "start": 20.4374,
      "duration": 0.1382,
      "velocity": 101,
      "chip": "ym2612"
    },
    {
      "channel": 1,
      "note": 81,
      "start": 20.5745,
      "duration": 0.2705,
      "velocity": 96,
      "chip": "ym2612"
    },
    {
      "channel": 3,
      "note": 57,
      "start": 20.5754,
      "duration": 0.1314,
      "velocity": 91,
      "chip": "ym2612"
    },
    {
      "channel": 4,
      "note": 45,
      "start": 20.5762,
      "duration": 0.1314,
      "velocity": 101,
      "chip": "ym2612"
    },
    {
      "channel": 2,
      "note": 36,
      "start": 20.5775,
      "duration": 0.1154,
      "velocity": 127,
      "chip": "ym2612"
    },
    {
      "channel": 3,
      "note": 57,
      "start": 20.7074,
      "duration": 0.1384,
      "velocity": 91,
      "chip": "ym2612"
    },
    {
      "channel": 4,
      "note": 45,
      "start": 20.7082,
      "duration": 0.1385,
      "velocity": 101,
      "chip": "ym2612"
    },
    {
      "channel": 0,
      "note": 86,
      "start": 20.8449,
      "duration": 0.2702,
      "velocity": 97,
      "chip": "ym2612"
    },
    {
      "channel": 1,
      "note": 83,
      "start": 20.8456,
      "duration": 0.2702,
      "velocity": 96,
      "chip": "ym2612"
    },
    {
      "channel": 3,
      "note": 57,
      "start": 20.8465,
      "duration": 0.1312,
      "velocity": 91,
      "chip": "ym2612"
    },
    {
      "channel": 4,
      "note": 45,
      "start": 20.8473,
      "duration": 0.1312,
      "velocity": 101,
      "chip": "ym2612"
    },
    {
      "channel": 2,
      "note": 72,
      "start": 20.8485,
      "duration": 0.2361,
      "velocity": 120,
      "chip": "ym2612"
    },
    {
      "channel": 5,
      "note": 86,
      "start": 20.8886,
      "duration": 0.2702,
      "velocity": 92,
      "chip": "ym2612"
    },
    {
      "channel": 3,
      "note": 57,
      "start": 20.9783,
      "duration": 0.1384,
      "velocity": 91,
      "chip": "ym2612"
    },
    {
      "channel": 4,
      "note": 45,
      "start": 20.9791,
      "duration": 0.1389,
      "velocity": 101,
      "chip": "ym2612"
    },
    {
      "channel": 0,
      "note": 85,
      "start": 21.1157,
      "duration": 0.2707,
      "velocity": 97,
      "chip": "ym2612"
    },
    {
      "channel": 1,
      "note": 85,
      "start": 21.1165,
      "duration": 0.2708,
      "velocity": 96,
      "chip": "ym2612"
    },
    {
      "channel": 3,
      "note": 57,
      "start": 21.1178,
      "duration": 0.134,
      "velocity": 91,
      "chip": "ym2612"
    },
    {
      "channel": 4,
      "note": 45,
      "start": 21.1186,
      "duration": 0.134,
      "velocity": 101,
      "chip": "ym2612"
    },
    {
      "channel": 2,
      "note": 36,
      "start": 21.1199,
      "duration": 0.115,
      "velocity": 127,
      "chip": "ym2612"
    },
    {
      "channel": 5,
      "note": 85,
      "start": 21.1595,
      "duration": 0.2702,
      "velocity": 92,
      "chip": "ym2612"
    },
    {
      "channel": 3,
      "note": 57,
      "start": 21.2524,
      "duration": 0.1357,
      "velocity": 91,
      "chip": "ym2612"
    },
    {
      "channel": 4,
      "note": 45,
      "start": 21.2532,
      "duration": 0.1358,
      "velocity": 101,
      "chip": "ym2612"
    },
    {
      "channel": 2,
      "note": 36,
      "start": 21.2544,
      "duration": 0.1156,
      "velocity": 127,
      "chip": "ym2612"
    },
    {
      "channel": 0,
      "note": 81,
      "start": 21.3871,
      "duration": 0.2698,
      "velocity": 97,
      "chip": "ym2612"
    },
    {
      "channel": 1,
      "note": 88,
      "start": 21.3879,
      "duration": 0.27,
      "velocity": 96,
      "chip": "ym2612"
    },
    {
      "channel": 3,
      "note": 57,
      "start": 21.3888,
      "duration": 0.1307,
      "velocity": 91,
      "chip": "ym2612"
    },
    {
      "channel": 4,
      "note": 45,
      "start": 21.3896,
      "duration": 0.1307,
      "velocity": 101,
      "chip": "ym2612"
    },
    {
      "channel": 2,
      "note": 72,
      "start": 21.3908,
      "duration": 0.2351,
      "velocity": 120,
      "chip": "ym2612"
    },
    {
      "channel": 5,
      "note": 81,
      "start": 21.4304,
      "duration": 0.2706,
      "velocity": 92,
      "chip": "ym2612"
    },
    {
      "channel": 3,
      "note": 57,
      "start": 21.5201,
      "duration": 0.1389,
      "velocity": 91,
      "chip": "ym2612"
    },
    {
      "channel": 4,
      "note": 45,
      "start": 21.5209,
      "duration": 0.1391,
      "velocity": 101,
      "chip": "ym2612"
    },
    {
      "channel": 0,
      "note": 83,
      "start": 21.6576,
      "duration": 3.2497,
      "velocity": 97,
      "chip": "ym2612"
    },
    {
      "channel": 1,
      "note": 83,
      "start": 21.6585,
      "duration": 1.0822,
      "velocity": 96,
      "chip": "ym2612"
    },
    {
      "channel": 3,
      "note": 59,
      "start": 21.6596,
      "duration": 0.1307,
      "velocity": 91,
      "chip": "ym2612"
    },
    {
      "channel": 4,
      "note": 50,
      "start": 21.6606,
      "duration": 0.1305,
      "velocity": 101,
      "chip": "ym2612"
    },
    {
      "channel": 2,
      "note": 36,
      "start": 21.6619,
      "duration": 0.1144,
      "velocity": 127,
      "chip": "ym2612"
    },
    {
      "channel": 5,
      "note": 83,
      "start": 21.7017,
      "duration": 3.2486,
      "velocity": 92,
      "chip": "ym2612"
    },
    {
      "channel": 3,
      "note": 59,
      "start": 21.7909,
      "duration": 0.1377,
      "velocity": 91,
      "chip": "ym2612"
    },
    {
      "channel": 4,
      "note": 47,
      "start": 21.7916,
      "duration": 0.1376,
      "velocity": 101,
      "chip": "ym2612"
    },
    {
      "channel": 3,
      "note": 59,
      "start": 21.9291,
      "duration": 0.132,
      "velocity": 91,
      "chip": "ym2612"
    },
    {
      "channel": 4,
      "note": 47,
      "start": 21.9298,
      "duration": 0.1321,
      "velocity": 101,
      "chip": "ym2612"
    },
    {
      "channel": 2,
      "note": 72,
      "start": 21.931,
      "duration": 0.2372,
      "velocity": 120,
      "chip": "ym2612"
    },
    {
      "channel": 3,
      "note": 59,
      "start": 22.0617,
      "duration": 0.1376,
      "velocity": 91,
      "chip": "ym2612"
    },
    {
      "channel": 4,
      "note": 47,
      "start": 22.0624,
      "duration": 0.1376,
      "velocity": 101,
      "chip": "ym2612"
    },
    {
      "channel": 3,
      "note": 59,
      "start": 22.1999,
      "duration": 0.1353,
      "velocity": 91,
      "chip": "ym2612"
    },
    {
      "channel": 4,
      "note": 47,
      "start": 22.201,
      "duration": 0.1349,
      "velocity": 101,
      "chip": "ym2612"
    },
    {
      "channel": 2,
      "note": 36,
      "start": 22.2023,
      "duration": 0.1162,
      "velocity": 127,
      "chip": "ym2612"
    },
    {
      "channel": 3,
      "note": 59,
      "start": 22.3358,
      "duration": 0.1348,
      "velocity": 91,
      "chip": "ym2612"
    },
    {
      "channel": 4,
      "note": 47,
      "start": 22.3365,
      "duration": 0.1349,
      "velocity": 101,
      "chip": "ym2612"
    },
    {
      "channel": 2,
      "note": 36,
      "start": 22.3378,
      "duration": 0.1158,
      "velocity": 127,
      "chip": "ym2612"
    },
    {
      "channel": 3,
      "note": 59,
      "start": 22.4711,
      "duration": 0.1317,
      "velocity": 91,
      "chip": "ym2612"
    },
    {
      "channel": 4,
      "note": 47,
      "start": 22.4719,
      "duration": 0.1317,
      "velocity": 101,
      "chip": "ym2612"
    },
    {
      "channel": 2,
      "note": 72,
      "start": 22.4731,
      "duration": 0.2363,
      "velocity": 120,
      "chip": "ym2612"
    },
    {
      "channel": 3,
      "note": 59,
      "start": 22.6034,
      "duration": 0.138,
      "velocity": 91,
      "chip": "ym2612"
    },
    {
      "channel": 4,
      "note": 47,
      "start": 22.6041,
      "duration": 0.138,
      "velocity": 101,
      "chip": "ym2612"
    },
    {
      "channel": 1,
      "note": 83,
      "start": 22.7411,
      "duration": 0.8125,
      "velocity": 96,
      "chip": "ym2612"
    },
    {
      "channel": 3,
      "note": 59,
      "start": 22.742,
      "duration": 0.1317,
      "velocity": 91,
      "chip": "ym2612"
    },
    {
      "channel": 4,
      "note": 47,
      "start": 22.7427,
      "duration": 0.1317,
      "velocity": 101,
      "chip": "ym2612"
    },
    {
      "channel": 2,
      "note": 36,
      "start": 22.744,
      "duration": 0.1158,
      "velocity": 127,
      "chip": "ym2612"
    },
    {
      "channel": 3,
      "note": 59,
      "start": 22.8743,
      "duration": 0.1375,
      "velocity": 91,
      "chip": "ym2612"
    },
    {
      "channel": 4,
      "note": 47,
      "start": 22.875,
      "duration": 0.1376,
      "velocity": 101,
      "chip": "ym2612"
    },
    {
      "channel": 3,
      "note": 59,
      "start": 23.0125,
      "duration": 0.1322,
      "velocity": 91,
      "chip": "ym2612"
    },
    {
      "channel": 4,
      "note": 47,
      "start": 23.0132,
      "duration": 0.1323,
      "velocity": 101,
      "chip": "ym2612"
    },
    {
      "channel": 2,
      "note": 72,
      "start": 23.0144,
      "duration": 0.2371,
      "velocity": 120,
      "chip": "ym2612"
    },
    {
      "channel": 3,
      "note": 59,
      "start": 23.1454,
      "duration": 0.1374,
      "velocity": 91,
      "chip": "ym2612"
    },
    {
      "channel": 4,
      "note": 47,
      "start": 23.1461,
      "duration": 0.1375,
      "velocity": 101,
      "chip": "ym2612"
    },
    {
      "channel": 3,
      "note": 59,
      "start": 23.2834,
      "duration": 0.1352,
      "velocity": 91,
      "chip": "ym2612"
    },
    {
      "channel": 4,
      "note": 47,
      "start": 23.2846,
      "duration": 0.1348,
      "velocity": 101,
      "chip": "ym2612"
    },
    {
      "channel": 2,
      "note": 36,
      "start": 23.2858,
      "duration": 0.1162,
      "velocity": 127,
      "chip": "ym2612"
    },
    {
      "channel": 3,
      "note": 59,
      "start": 23.4192,
      "duration": 0.1352,
      "velocity": 91,
      "chip": "ym2612"
    },
    {
      "channel": 4,
      "note": 47,
      "start": 23.4199,
      "duration": 0.1352,
      "velocity": 101,
      "chip": "ym2612"
    },
    {
      "channel": 2,
      "note": 36,
      "start": 23.4212,
      "duration": 0.1159,
      "velocity": 127,
      "chip": "ym2612"
    },
    {
      "channel": 1,
      "note": 78,
      "start": 23.5542,
      "duration": 0.2702,
      "velocity": 96,
      "chip": "ym2612"
    },
    {
      "channel": 3,
      "note": 59,
      "start": 23.5551,
      "duration": 0.1313,
      "velocity": 91,
      "chip": "ym2612"
    },
    {
      "channel": 4,
      "note": 47,
      "start": 23.5558,
      "duration": 0.1314,
      "velocity": 101,
      "chip": "ym2612"
    },
    {
      "channel": 2,
      "note": 72,
      "start": 23.557,
      "duration": 0.2357,
      "velocity": 120,
      "chip": "ym2612"
    },
    {
      "channel": 3,
      "note": 59,
      "start": 23.6869,
      "duration": 0.1384,
      "velocity": 91,
      "chip": "ym2612"
    },
    {
      "channel": 4,
      "note": 47,
      "start": 23.6877,
      "duration": 0.1385,
      "velocity": 101,
      "chip": "ym2612"
    },
    {
      "channel": 1,
      "note": 83,
      "start": 23.825,
      "duration": 1.0826,
      "velocity": 96,
      "chip": "ym2612"
    },
    {
      "channel": 3,
      "note": 59,
      "start": 23.8259,
      "duration": 0.1312,
      "velocity": 91,
      "chip": "ym2612"
    },
    {
      "channel": 4,
      "note": 50,
      "start": 23.8268,
      "duration": 0.1309,
      "velocity": 101,
      "chip": "ym2612"
    },
    {
      "channel": 2,
      "note": 36,
      "start": 23.8281,
      "duration": 0.1152,
      "velocity": 127,
      "chip": "ym2612"
    },
    {
      "channel": 3,
      "note": 59,
      "start": 23.9575,
      "duration": 0.1377,
      "velocity": 91,
      "chip": "ym2612"
    },
    {
      "channel": 4,
      "note": 47,
      "start": 23.9582,
      "duration": 0.1376,
      "velocity": 101,
      "chip": "ym2612"
    },
    {
      "channel": 3,
      "note": 59,
      "start": 24.0957,
      "duration": 0.1323,
      "velocity": 91,
      "chip": "ym2612"
    },
    {
      "channel": 4,
      "note": 47,
      "start": 24.0964,
      "duration": 0.1322,
      "velocity": 101,
      "chip": "ym2612"
    },
    {
      "channel": 2,
      "note": 72,
      "start": 24.0976,
      "duration": 0.2373,
      "velocity": 120,
      "chip": "ym2612"
    },
    {
      "channel": 3,
      "note": 59,
      "start": 24.2284,
      "duration": 0.1377,
      "velocity": 91,
      "chip": "ym2612"
    },
    {
      "channel": 4,
      "note": 47,
      "start": 24.2292,
      "duration": 0.1375,
      "velocity": 101,
      "chip": "ym2612"
    },
    {
      "channel": 3,
      "note": 59,
      "start": 24.3665,
      "duration": 0.1354,
      "velocity": 91,
      "chip": "ym2612"
    },
    {
      "channel": 4,
      "note": 47,
      "start": 24.3676,
      "duration": 0.1349,
      "velocity": 101,
      "chip": "ym2612"
    },
    {
      "channel": 2,
      "note": 36,
      "start": 24.369,
      "duration": 0.1163,
      "velocity": 127,
      "chip": "ym2612"
    },
    {
      "channel": 3,
      "note": 59,
      "start": 24.5024,
      "duration": 0.1349,
      "velocity": 91,
      "chip": "ym2612"
    },
    {
      "channel": 4,
      "note": 47,
      "start": 24.5032,
      "duration": 0.1349,
      "velocity": 101,
      "chip": "ym2612"
    },
    {
      "channel": 2,
      "note": 36,
      "start": 24.5045,
      "duration": 0.116,
      "velocity": 127,
      "chip": "ym2612"
    },
    {
      "channel": 3,
      "note": 59,
      "start": 24.6379,
      "duration": 0.1319,
      "velocity": 91,
      "chip": "ym2612"
    },
    {
      "channel": 4,
      "note": 47,
      "start": 24.6386,
      "duration": 0.1317,
      "velocity": 101,
      "chip": "ym2612"
    },
    {
      "channel": 2,
      "note": 72,
      "start": 24.6398,
      "duration": 0.2364,
      "velocity": 120,
      "chip": "ym2612"
    },
    {
      "channel": 3,
      "note": 59,
      "start": 24.7702,
      "duration": 0.1377,
      "velocity": 91,
      "chip": "ym2612"
    },
    {
      "channel": 4,
      "note": 47,
      "start": 24.7709,
      "duration": 0.1377,
      "velocity": 101,
      "chip": "ym2612"
    },
    {
      "channel": 3,
      "note": 55,
      "start": 24.9085,
      "duration": 0.1328,
      "velocity": 91,
      "chip": "ym2612"
    },
    {
      "channel": 4,
      "note": 43,
      "start": 24.9092,
      "duration": 0.1328,
      "velocity": 101,
      "chip": "ym2612"
    },
    {
      "channel": 2,
      "note": 36,
      "start": 24.9105,
      "duration": 0.1151,
      "velocity": 127,
      "chip": "ym2612"
    },
    {
      "channel": 0,
      "note": 81,
      "start": 25.0404,
      "duration": 0.1375,
      "velocity": 97,
      "chip": "ym2612"
    },
    {
      "channel": 1,
      "note": 78,
      "start": 25.0411,
      "duration": 0.1376,
      "velocity": 96,
      "chip": "ym2612"
    },
    {
      "channel": 3,
      "note": 55,
      "start": 25.0418,
      "duration": 0.1377,
      "velocity": 91,
      "chip": "ym2612"
    },
    {
      "channel": 4,
      "note": 47,
      "start": 25.0425,
      "duration": 0.1377,
      "velocity": 101,
      "chip": "ym2612"
    },
    {
      "channel": 5,
      "note": 81,
      "start": 25.087,
      "duration": 0.1347,
      "velocity": 92,
      "chip": "ym2612"
    },
    {
      "channel": 0,
      "note": 83,
      "start": 25.1786,
      "duration": 0.132,
      "velocity": 97,
      "chip": "ym2612"
    },
    {
      "channel": 1,
      "note": 79,
      "start": 25.1793,
      "duration": 0.1321,
      "velocity": 96,
      "chip": "ym2612"
    },
    {
      "channel": 3,
      "note": 55,
      "start": 25.18,
      "duration": 0.1321,
      "velocity": 91,
      "chip": "ym2612"
    },
    {
      "channel": 4,
      "note": 50,
      "start": 25.1808,
      "duration": 0.1321,
      "velocity": 101,
      "chip": "ym2612"
    },
    {
      "channel": 2,
      "note": 72,
      "start": 25.1819,
      "duration": 0.2363,
      "velocity": 120,
      "chip": "ym2612"
    },
    {
      "channel": 5,
      "note": 83,
      "start": 25.2224,
      "duration": 0.1347,
      "velocity": 92,
      "chip": "ym2612"
    },
    {
      "channel": 0,
      "note": 85,
      "start": 25.3113,
      "duration": 0.1375,
      "velocity": 97,
      "chip": "ym2612"
    },
    {
      "channel": 1,
      "note": 81,
      "start": 25.312,
      "duration": 0.1375,
      "velocity": 96,
      "chip": "ym2612"
    },
    {
      "channel": 3,
      "note": 55,
      "start": 25.3127,
      "duration": 0.138,
      "velocity": 91,
      "chip": "ym2612"
    },
    {
      "channel": 4,
      "note": 45,
      "start": 25.3134,
      "duration": 0.138,
      "velocity": 101,
      "chip": "ym2612"
    },
    {
      "channel": 5,
      "note": 85,
      "start": 25.3578,
      "duration": 0.1349,
      "velocity": 92,
      "chip": "ym2612"
    },
    {
      "channel": 0,
      "note": 86,
      "start": 25.4495,
      "duration": 0.1352,
      "velocity": 97,
      "chip": "ym2612"
    },
    {
      "channel": 1,
      "note": 83,
      "start": 25.4502,
      "duration": 0.1352,
      "velocity": 96,
      "chip": "ym2612"
    },
    {
      "channel": 3,
      "note": 57,
      "start": 25.4514,
      "duration": 0.1349,
      "velocity": 91,
      "chip": "ym2612"
    },
    {
      "channel": 4,
      "note": 49,
      "start": 25.4521,
      "duration": 0.1349,
      "velocity": 101,
      "chip": "ym2612"
    },
    {
      "channel": 2,
      "note": 36,
      "start": 25.4533,
      "duration": 0.1154,
      "velocity": 127,
      "chip": "ym2612"
    },
    {
      "channel": 5,
      "note": 86,
      "start": 25.4934,
      "duration": 0.1346,
      "velocity": 92,
      "chip": "ym2612"
    },
    {
      "channel": 0,
      "note": 88,
      "start": 25.5853,
      "duration": 0.1348,
      "velocity": 97,
      "chip": "ym2612"
    },
    {
      "channel": 1,
      "note": 85,
      "start": 25.586,
      "duration": 0.1349,
      "velocity": 96,
      "chip": "ym2612"
    },
    {
      "channel": 3,
      "note": 57,
      "start": 25.5868,
      "duration": 0.1349,
      "velocity": 91,
      "chip": "ym2612"
    },
    {
      "channel": 4,
      "note": 52,
      "start": 25.5875,
      "duration": 0.1349,
      "velocity": 101,
      "chip": "ym2612"
    },
    {
      "channel": 2,
      "note": 36,
      "start": 25.5887,
      "duration": 0.1149,
      "velocity": 127,
      "chip": "ym2612"
    },
    {
      "channel": 5,
      "note": 88,
      "start": 25.6287,
      "duration": 0.1347,
      "velocity": 92,
      "chip": "ym2612"
    },
    {
      "channel": 0,
      "note": 85,
      "start": 25.7207,
      "duration": 0.1316,
      "velocity": 97,
      "chip": "ym2612"
    },
    {
      "channel": 1,
      "note": 81,
      "start": 25.7215,
      "duration": 0.1317,
      "velocity": 96,
      "chip": "ym2612"
    },
    {
      "channel": 3,
      "note": 57,
      "start": 25.7222,
      "duration": 0.1316,
      "velocity": 91,
      "chip": "ym2612"
    },
    {
      "channel": 4,
      "note": 49,
      "start": 25.7229,
      "duration": 0.1317,
      "velocity": 101,
      "chip": "ym2612"
    },
    {
      "channel": 2,
      "note": 72,
      "start": 25.7241,
      "duration": 0.2354,
      "velocity": 120,
      "chip": "ym2612"
    },
    {
      "channel": 5,
      "note": 85,
      "start": 25.7641,
      "duration": 0.1347,
      "velocity": 92,
      "chip": "ym2612"
    },
    {
      "channel": 0,
      "note": 81,
      "start": 25.8529,
      "duration": 0.1377,
      "velocity": 97,
      "chip": "ym2612"
    },
    {
      "channel": 1,
      "note": 78,
      "start": 25.8537,
      "duration": 0.1377,
      "velocity": 96,
      "chip": "ym2612"
    },
    {
      "channel": 3,
      "note": 57,
      "start": 25.8544,
      "duration": 0.138,
      "velocity": 91,
      "chip": "ym2612"
    },
    {
      "channel": 4,
      "note": 45,
      "start": 25.8552,
      "duration": 0.1382,
      "velocity": 101,
      "chip": "ym2612"
    },
    {
      "channel": 5,
      "note": 81,
      "start": 25.8995,
      "duration": 0.1352,
      "velocity": 92,
      "chip": "ym2612"
    },
    {
      "channel": 0,
      "note": 83,
      "start": 25.9913,
      "duration": 3.2496,
      "velocity": 97,
      "chip": "ym2612"
    },
    {
      "channel": 1,
      "note": 83,
      "start": 25.9921,
      "duration": 1.0823,
      "velocity": 96,
      "chip": "ym2612"
    },
    {
      "channel": 3,
      "note": 59,
      "start": 25.993,
      "duration": 0.1311,
      "velocity": 91,
      "chip": "ym2612"
    },
    {
      "channel": 4,
      "note": 50,
      "start": 25.994,
      "duration": 0.1308,
      "velocity": 101,
      "chip": "ym2612"
    },
    {
      "channel": 2,
      "note": 36,
      "start": 25.9952,
      "duration": 0.1148,
      "velocity": 127,
      "chip": "ym2612"
    },
    {
      "channel": 5,
      "note": 83,
      "start": 26.0355,
      "duration": 3.249,
      "velocity": 92,
      "chip": "ym2612"
    },
    {
      "channel": 3,
      "note": 59,
      "start": 26.1246,
      "duration": 0.1377,
      "velocity": 91,
      "chip": "ym2612"
    },
    {
      "channel": 4,
      "note": 47,
      "start": 26.1254,
      "duration": 0.1376,
      "velocity": 101,
      "chip": "ym2612"
    },
    {
      "channel": 3,
      "note": 59,
      "start": 26.2629,
      "duration": 0.1321,
      "velocity": 91,
      "chip": "ym2612"
    },
    {
      "channel": 4,
      "note": 47,
      "start": 26.2636,
      "duration": 0.1321,
      "velocity": 101,
      "chip": "ym2612"
    },
    {
      "channel": 2,
      "note": 72,
      "start": 26.2648,
      "duration": 0.237,
      "velocity": 120,
      "chip": "ym2612"
    },
    {
      "channel": 3,
      "note": 59,
      "start": 26.3955,
      "duration": 0.1376,
      "velocity": 91,
      "chip": "ym2612"
    },
    {
      "channel": 4,
      "note": 47,
      "start": 26.3963,
      "duration": 0.138,
      "velocity": 101,
      "chip": "ym2612"
    },
    {
      "channel": 3,
      "note": 59,
      "start": 26.5341,
      "duration": 0.135,
      "velocity": 91,
      "chip": "ym2612"
    },
    {
      "channel": 4,
      "note": 47,
      "start": 26.5348,
      "duration": 0.135,
      "velocity": 101,
      "chip": "ym2612"
    },
    {
      "channel": 2,
      "note": 36,
      "start": 26.5362,
      "duration": 0.116,
      "velocity": 127,
      "chip": "ym2612"
    },
    {
      "channel": 3,
      "note": 59,
      "start": 26.6696,
      "duration": 0.1347,
      "velocity": 91,
      "chip": "ym2612"
    },
    {
      "channel": 4,
      "note": 47,
      "start": 26.6704,
      "duration": 0.1347,
      "velocity": 101,
      "chip": "ym2612"
    },
    {
      "channel": 2,
      "note": 36,
      "start": 26.6717,
      "duration": 0.1156,
      "velocity": 127,
      "chip": "ym2612"
    },
    {
      "channel": 3,
      "note": 59,
      "start": 26.8049,
      "duration": 0.1317,
      "velocity": 91,
      "chip": "ym2612"
    },
    {
      "channel": 4,
      "note": 47,
      "start": 26.8057,
      "duration": 0.1317,
      "velocity": 101,
      "chip": "ym2612"
    },
    {
      "channel": 2,
      "note": 72,
      "start": 26.8069,
      "duration": 0.2363,
      "velocity": 120,
      "chip": "ym2612"
    },
    {
      "channel": 3,
      "note": 59,
      "start": 26.9372,
      "duration": 0.1376,
      "velocity": 91,
      "chip": "ym2612"
    },
    {
      "channel": 4,
      "note": 47,
      "start": 26.938,
      "duration": 0.1376,
      "velocity": 101,
      "chip": "ym2612"
    },
    {
      "channel": 3,
      "note": 59,
      "start": 27.0755,
      "duration": 0.1325,
      "velocity": 91,
      "chip": "ym2612"
    },
    {
      "channel": 4,
      "note": 47,
      "start": 27.0762,
      "duration": 0.1326,
      "velocity": 101,
      "chip": "ym2612"
    },
    {
      "channel": 2,
      "note": 36,
      "start": 27.0774,
      "duration": 0.1159,
      "velocity": 127,
      "chip": "ym2612"
    },
    {
      "channel": 1,
      "note": 81,
      "start": 27.2077,
      "duration": 0.1375,
      "velocity": 96,
      "chip": "ym2612"
    },
    {
      "channel": 3,
      "note": 59,
      "start": 27.2085,
      "duration": 0.1375,
      "velocity": 91,
      "chip": "ym2612"
    },
    {
      "channel": 4,
      "note": 47,
      "start": 27.2093,
      "duration": 0.1375,
      "velocity": 101,
      "chip": "ym2612"
    },
    {
      "channel": 1,
      "note": 83,
      "start": 27.3458,
      "duration": 0.132,
      "velocity": 96,
      "chip": "ym2612"
    },
    {
      "channel": 3,
      "note": 59,
      "start": 27.3467,
      "duration": 0.1319,
      "velocity": 91,
      "chip": "ym2612"
    },
    {
      "channel": 4,
      "note": 47,
      "start": 27.3474,
      "duration": 0.132,
      "velocity": 101,
      "chip": "ym2612"
    },
    {
      "channel": 2,
      "note": 72,
      "start": 27.3486,
      "duration": 0.2366,
      "velocity": 120,
      "chip": "ym2612"
    },
    {
      "channel": 1,
      "note": 85,
      "start": 27.4785,
      "duration": 0.1375,
      "velocity": 96,
      "chip": "ym2612"
    },
    {
      "channel": 3,
      "note": 59,
      "start": 27.4793,
      "duration": 0.1376,
      "velocity": 91,
      "chip": "ym2612"
    },
    {
      "channel": 4,
      "note": 47,
      "start": 27.48,
      "duration": 0.138,
      "velocity": 101,
      "chip": "ym2612"
    },
    {
      "channel": 1,
      "note": 86,
      "start": 27.6166,
      "duration": 0.1353,
      "velocity": 96,
      "chip": "ym2612"
    },
    {
      "channel": 3,
      "note": 59,
      "start": 27.6179,
      "duration": 0.1349,
      "velocity": 91,
      "chip": "ym2612"
    },
    {
      "channel": 4,
      "note": 47,
      "start": 27.6186,
      "duration": 0.1349,
      "velocity": 101,
      "chip": "ym2612"
    },
    {
      "channel": 2,
      "note": 36,
      "start": 27.6199,
      "duration": 0.1157,
      "velocity": 127,
      "chip": "ym2612"
    },
    {
      "channel": 1,
      "note": 88,
      "start": 27.7526,
      "duration": 0.1348,
      "velocity": 96,
      "chip": "ym2612"
    },
    {
      "channel": 3,
      "note": 59,
      "start": 27.7534,
      "duration": 0.1348,
      "velocity": 91,
      "chip": "ym2612"
    },
    {
      "channel": 4,
      "note": 47,
      "start": 27.7541,
      "duration": 0.1349,
      "velocity": 101,
      "chip": "ym2612"
    },
    {
      "channel": 2,
      "note": 36,
      "start": 27.7554,
      "duration": 0.1152,
      "velocity": 127,
      "chip": "ym2612"
    },
    {
      "channel": 1,
      "note": 85,
      "start": 27.8879,
      "duration": 0.1316,
      "velocity": 96,
      "chip": "ym2612"
    },
    {
      "channel": 3,
      "note": 59,
      "start": 27.8888,
      "duration": 0.1316,
      "velocity": 91,
      "chip": "ym2612"
    },
    {
      "channel": 4,
      "note": 47,
      "start": 27.8895,
      "duration": 0.1316,
      "velocity": 101,
      "chip": "ym2612"
    },
    {
      "channel": 2,
      "note": 72,
      "start": 27.8908,
      "duration": 0.2357,
      "velocity": 120,
      "chip": "ym2612"
    },
    {
      "channel": 1,
      "note": 81,
      "start": 28.0201,
      "duration": 0.138,
      "velocity": 96,
      "chip": "ym2612"
    },
    {
      "channel": 3,
      "note": 59,
      "start": 28.021,
      "duration": 0.138,
      "velocity": 91,
      "chip": "ym2612"
    },
    {
      "channel": 4,
      "note": 47,
      "start": 28.0217,
      "duration": 0.1382,
      "velocity": 101,
      "chip": "ym2612"
    },
    {
      "channel": 1,
      "note": 83,
      "start": 28.1587,
      "duration": 1.0825,
      "velocity": 96,
      "chip": "ym2612"
    },
    {
      "channel": 3,
      "note": 59,
      "start": 28.1596,
      "duration": 0.1312,
      "velocity": 91,
      "chip": "ym2612"
    },
    {
      "channel": 4,
      "note": 50,
      "start": 28.1605,
      "duration": 0.1309,
      "velocity": 101,
      "chip": "ym2612"
    },
    {
      "channel": 2,
      "note": 36,
      "start": 28.1618,
      "duration": 0.1151,
      "velocity": 127,
      "chip": "ym2612"
    },
    {
      "channel": 3,
      "note": 59,
      "start": 28.2913,
      "duration": 0.1378,
      "velocity": 91,
      "chip": "ym2612"
    },
    {
      "channel": 4,
      "note": 47,
      "start": 28.292,
      "duration": 0.1376,
      "velocity": 101,
      "chip": "ym2612"
    },
    {
      "channel": 3,
      "note": 59,
      "start": 28.4295,
      "duration": 0.1321,
      "velocity": 91,
      "chip": "ym2612"
    },
    {
      "channel": 4,
      "note": 47,
      "start": 28.4302,
      "duration": 0.132,
      "velocity": 101,
      "chip": "ym2612"
    },
    {
      "channel": 2,
      "note": 72,
      "start": 28.4315,
      "duration": 0.2372,
      "velocity": 120,
      "chip": "ym2612"
    },
    {
      "channel": 3,
      "note": 59,
      "start": 28.5621,
      "duration": 0.1377,
      "velocity": 91,
      "chip": "ym2612"
    },
    {
      "channel": 4,
      "note": 47,
      "start": 28.5628,
      "duration": 0.138,
      "velocity": 101,
      "chip": "ym2612"
    },
    {
      "channel": 3,
      "note": 59,
      "start": 28.7003,
      "duration": 0.1354,
      "velocity": 91,
      "chip": "ym2612"
    },
    {
      "channel": 4,
      "note": 47,
      "start": 28.7014,
      "duration": 0.1349,
      "velocity": 101,
      "chip": "ym2612"
    },
    {
      "channel": 2,
      "note": 36,
      "start": 28.7028,
      "duration": 0.1165,
      "velocity": 127,
      "chip": "ym2612"
    },
    {
      "channel": 3,
      "note": 59,
      "start": 28.8362,
      "duration": 0.135,
      "velocity": 91,
      "chip": "ym2612"
    },
    {
      "channel": 4,
      "note": 47,
      "start": 28.8368,
      "duration": 0.1349,
      "velocity": 101,
      "chip": "ym2612"
    },
    {
      "channel": 2,
      "note": 36,
      "start": 28.8382,
      "duration": 0.1159,
      "velocity": 127,
      "chip": "ym2612"
    },
    {
      "channel": 3,
      "note": 59,
      "start": 28.9716,
      "duration": 0.1319,
      "velocity": 91,
      "chip": "ym2612"
    },
    {
      "channel": 4,
      "note": 47,
      "start": 28.9724,
      "duration": 0.1317,
      "velocity": 101,
      "chip": "ym2612"
    },
    {
      "channel": 2,
      "note": 72,
      "start": 28.9736,
      "duration": 0.2365,
      "velocity": 120,
      "chip": "ym2612"
    },
    {
      "channel": 3,
      "note": 59,
      "start": 29.1039,
      "duration": 0.1377,
      "velocity": 91,
      "chip": "ym2612"
    },
    {
      "channel": 4,
      "note": 47,
      "start": 29.1046,
      "duration": 0.1377,
      "velocity": 101,
      "chip": "ym2612"
    },
    {
      "channel": 3,
      "note": 55,
      "start": 29.2421,
      "duration": 0.1329,
      "velocity": 91,
      "chip": "ym2612"
    },
    {
      "channel": 4,
      "note": 43,
      "start": 29.2428,
      "duration": 0.1329,
      "velocity": 101,
      "chip": "ym2612"
    },
    {
      "channel": 2,
      "note": 36,
      "start": 29.2442,
      "duration": 0.1152,
      "velocity": 127,
      "chip": "ym2612"
    },
    {
      "channel": 0,
      "note": 81,
      "start": 29.3741,
      "duration": 0.1375,
      "velocity": 97,
      "chip": "ym2612"
    },
    {
      "channel": 1,
      "note": 78,
      "start": 29.3749,
      "duration": 0.1375,
      "velocity": 96,
      "chip": "ym2612"
    },
    {
      "channel": 3,
      "note": 55,
      "start": 29.3756,
      "duration": 0.1376,
      "velocity": 91,
      "chip": "ym2612"
    },
    {
      "channel": 4,
      "note": 47,
      "start": 29.3763,
      "duration": 0.1376,
      "velocity": 101,
      "chip": "ym2612"
    },
    {
      "channel": 5,
      "note": 81,
      "start": 29.4206,
      "duration": 0.1347,
      "velocity": 92,
      "chip": "ym2612"
    },
    {
      "channel": 0,
      "note": 83,
      "start": 29.5123,
      "duration": 0.132,
      "velocity": 97,
      "chip": "ym2612"
    },
    {
      "channel": 1,
      "note": 79,
      "start": 29.513,
      "duration": 0.1322,
      "velocity": 96,
      "chip": "ym2612"
    },
    {
      "channel": 3,
      "note": 55,
      "start": 29.5138,
      "duration": 0.1322,
      "velocity": 91,
      "chip": "ym2612"
    },
    {
      "channel": 4,
      "note": 50,
      "start": 29.5145,
      "duration": 0.1322,
      "velocity": 101,
      "chip": "ym2612"
    },
    {
      "channel": 2,
      "note": 72,
      "start": 29.5156,
      "duration": 0.2363,
      "velocity": 120,
      "chip": "ym2612"
    },
    {
      "channel": 5,
      "note": 83,
      "start": 29.5561,
      "duration": 0.1348,
      "velocity": 92,
      "chip": "ym2612"
    },
    {
      "channel": 0,
      "note": 85,
      "start": 29.645,
      "duration": 0.1376,
      "velocity": 97,
      "chip": "ym2612"
    },
    {
      "channel": 1,
      "note": 81,
      "start": 29.6458,
      "duration": 0.1376,
      "velocity": 96,
      "chip": "ym2612"
    },
    {
      "channel": 3,
      "note": 55,
      "start": 29.6465,
      "duration": 0.138,
      "velocity": 91,
      "chip": "ym2612"
    },
    {
      "channel": 4,
      "note": 45,
      "start": 29.6472,
      "duration": 0.1381,
      "velocity": 101,
      "chip": "ym2612"
    },
    {
      "channel": 5,
      "note": 85,
      "start": 29.6916,
      "duration": 0.1347,
      "velocity": 92,
      "chip": "ym2612"
    },
    {
      "channel": 0,
      "note": 86,
      "start": 29.7832,
      "duration": 0.1351,
      "velocity": 97,
      "chip": "ym2612"
    },
    {
      "channel": 1,
      "note": 83,
      "start": 29.7844,
      "duration": 0.1347,
      "velocity": 96,
      "chip": "ym2612"
    },
    {
      "channel": 3,
      "note": 57,
      "start": 29.7851,
      "duration": 0.1347,
      "velocity": 91,
      "chip": "ym2612"
    },
    {
      "channel": 4,
      "note": 49,
      "start": 29.7859,
      "duration": 0.1347,
      "velocity": 101,
      "chip": "ym2612"
    },
    {
      "channel": 2,
      "note": 72,
      "start": 29.787,
      "duration": 0.1281,
      "velocity": 120,
      "chip": "ym2612"
    },
    {
      "channel": 5,
      "note": 86,
      "start": 29.8269,
      "duration": 0.1348,
      "velocity": 92,
      "chip": "ym2612"
    },
    {
      "channel": 0,
      "note": 88,
      "start": 29.919,
      "duration": 0.1348,
      "velocity": 97,
      "chip": "ym2612"
    },
    {
      "channel": 1,
      "note": 85,
      "start": 29.9198,
      "duration": 0.1349,
      "velocity": 96,
      "chip": "ym2612"
    },
    {
      "channel": 3,
      "note": 57,
      "start": 29.9205,
      "duration": 0.1349,
      "velocity": 91,
      "chip": "ym2612"
    },
    {
      "channel": 4,
      "note": 52,
      "start": 29.9212,
      "duration": 0.1349,
      "velocity": 101,
      "chip": "ym2612"
    },
    {
      "channel": 2,
      "note": 72,
      "start": 29.9223,
      "duration": 0.1287,
      "velocity": 120,
      "chip": "ym2612"
    },
    {
      "channel": 5,
      "note": 88,
      "start": 29.9624,
      "duration": 0.1347,
      "velocity": 92,
      "chip": "ym2612"
    },
    {
      "channel": 0,
      "note": 85,
      "start": 30.0545,
      "duration": 0.1345,
      "velocity": 97,
      "chip": "ym2612"
    },
    {
      "channel": 1,
      "note": 81,
      "start": 30.0552,
      "duration": 0.1345,
      "velocity": 96,
      "chip": "ym2612"
    },
    {
      "channel": 3,
      "note": 57,
      "start": 30.0559,
      "duration": 0.1346,
      "velocity": 91,
      "chip": "ym2612"
    },
    {
      "channel": 4,
      "note": 49,
      "start": 30.0567,
      "duration": 0.1345,
      "velocity": 101,
      "chip": "ym2612"
    },
    {
      "channel": 2,
      "note": 72,
      "start": 30.0578,
      "duration": 0.1284,
      "velocity": 120,
      "chip": "ym2612"
    },
    {
      "channel": 5,
      "note": 85,
      "start": 30.0979,
      "duration": 0.1347,
      "velocity": 92,
      "chip": "ym2612"
    },
    {
      "channel": 0,
      "note": 81,
      "start": 30.1897,
      "duration": 0.1345,
      "velocity": 97,
      "chip": "ym2612"
    },
    {
      "channel": 1,
      "note": 78,
      "start": 30.1904,
      "duration": 0.1347,
      "velocity": 96,
      "chip": "ym2612"
    },
    {
      "channel": 3,
      "note": 57,
      "start": 30.1911,
      "duration": 0.1349,
      "velocity": 91,
      "chip": "ym2612"
    },
    {
      "channel": 4,
      "note": 45,
      "start": 30.1918,
      "duration": 0.1351,
      "velocity": 101,
      "chip": "ym2612"
    },
    {
      "channel": 2,
      "note": 72,
      "start": 30.193,
      "duration": 0.1284,
      "velocity": 120,
      "chip": "ym2612"
    },
    {
      "channel": 5,
      "note": 81,
      "start": 30.2332,
      "duration": 0.1352,
      "velocity": 92,
      "chip": "ym2612"
    },
    {
      "channel": 0,
      "note": 83,
      "start": 30.3249,
      "duration": 0.4029,
      "velocity": 97,
      "chip": "ym2612"
    },
    {
      "channel": 1,
      "note": 79,
      "start": 30.3257,
      "duration": 1.0827,
      "velocity": 96,
      "chip": "ym2612"
    },
    {
      "channel": 3,
      "note": 55,
      "start": 30.3266,
      "duration": 0.1312,
      "velocity": 91,
      "chip": "ym2612"
    },
    {
      "channel": 4,
      "note": 43,
      "start": 30.3274,
      "duration": 0.1312,
      "velocity": 101,
      "chip": "ym2612"
    },
    {
      "channel": 2,
      "note": 36,
      "start": 30.3286,
      "duration": 0.1151,
      "velocity": 127,
      "chip": "ym2612"
    },
    {
      "channel": 5,
      "note": 83,
      "start": 30.3691,
      "duration": 0.4053,
      "velocity": 92,
      "chip": "ym2612"
    },
    {
      "channel": 3,
      "note": 55,
      "start": 30.4584,
      "duration": 0.1376,
      "velocity": 91,
      "chip": "ym2612"
    },
    {
      "channel": 4,
      "note": 43,
      "start": 30.4593,
      "duration": 0.1375,
      "velocity": 101,
      "chip": "ym2612"
    },
    {
      "channel": 3,
      "note": 55,
      "start": 30.5965,
      "duration": 0.1325,
      "velocity": 91,
      "chip": "ym2612"
    },
    {
      "channel": 4,
      "note": 43,
      "start": 30.5973,
      "duration": 0.1325,
      "velocity": 101,
      "chip": "ym2612"
    },
    {
      "channel": 2,
      "note": 72,
      "start": 30.5986,
      "duration": 0.2368,
      "velocity": 120,
      "chip": "ym2612"
    },
    {
      "channel": 0,
      "note": 90,
      "start": 30.7284,
      "duration": 0.4088,
      "velocity": 97,
      "chip": "ym2612"
    },
    {
      "channel": 3,
      "note": 55,
      "start": 30.7296,
      "duration": 0.1373,
      "velocity": 91,
      "chip": "ym2612"
    },
    {
      "channel": 4,
      "note": 43,
      "start": 30.7304,
      "duration": 0.1377,
      "velocity": 101,
      "chip": "ym2612"
    },
    {
      "channel": 5,
      "note": 90,
      "start": 30.7751,
      "duration": 0.4054,
      "velocity": 92,
      "chip": "ym2612"
    },
    {
      "channel": 3,
      "note": 55,
      "start": 30.8679,
      "duration": 0.1348,
      "velocity": 91,
      "chip": "ym2612"
    },
    {
      "channel": 4,
      "note": 43,
      "start": 30.8687,
      "duration": 0.1349,
      "velocity": 101,
      "chip": "ym2612"
    },
    {
      "channel": 2,
      "note": 36,
      "start": 30.8699,
      "duration": 0.116,
      "velocity": 127,
      "chip": "ym2612"
    },
    {
      "channel": 3,
      "note": 55,
      "start": 31.0033,
      "duration": 0.1352,
      "velocity": 91,
      "chip": "ym2612"
    },
    {
      "channel": 4,
      "note": 43,
      "start": 31.0041,
      "duration": 0.1352,
      "velocity": 101,
      "chip": "ym2612"
    },
    {
      "channel": 2,
      "note": 36,
      "start": 31.0054,
      "duration": 0.1156,
      "velocity": 127,
      "chip": "ym2612"
    },
    {
      "channel": 0,
      "note": 83,
      "start": 31.1379,
      "duration": 1.3532,
      "velocity": 97,
      "chip": "ym2612"
    },
    {
      "channel": 3,
      "note": 55,
      "start": 31.1391,
      "duration": 0.1312,
      "velocity": 91,
      "chip": "ym2612"
    },
    {
      "channel": 4,
      "note": 43,
      "start": 31.1399,
      "duration": 0.1312,
      "velocity": 101,
      "chip": "ym2612"
    },
    {
      "channel": 2,
      "note": 72,
      "start": 31.1411,
      "duration": 0.2357,
      "velocity": 120,
      "chip": "ym2612"
    },
    {
      "channel": 5,
      "note": 83,
      "start": 31.1813,
      "duration": 1.3541,
      "velocity": 92,
      "chip": "ym2612"
    },
    {
      "channel": 3,
      "note": 55,
      "start": 31.2709,
      "duration": 0.1384,
      "velocity": 91,
      "chip": "ym2612"
    },
    {
      "channel": 4,
      "note": 43,
      "start": 31.2717,
      "duration": 0.1384,
      "velocity": 101,
      "chip": "ym2612"
    },
    {
      "channel": 1,
      "note": 79,
      "start": 31.409,
      "duration": 0.2699,
      "velocity": 96,
      "chip": "ym2612"
    },
    {
      "channel": 3,
      "note": 55,
      "start": 31.4099,
      "duration": 0.1313,
      "velocity": 91,
      "chip": "ym2612"
    },
    {
      "channel": 4,
      "note": 43,
      "start": 31.4107,
      "duration": 0.1313,
      "velocity": 101,
      "chip": "ym2612"
    },
    {
      "channel": 2,
      "note": 36,
      "start": 31.412,
      "duration": 0.1154,
      "velocity": 127,
      "chip": "ym2612"
    },
    {
      "channel": 3,
      "note": 55,
      "start": 31.5417,
      "duration": 0.138,
      "velocity": 91,
      "chip": "ym2612"
    },
    {
      "channel": 4,
      "note": 43,
      "start": 31.5426,
      "duration": 0.1381,
      "velocity": 101,
      "chip": "ym2612"
    },
    {
      "channel": 1,
      "note": 81,
      "start": 31.6795,
      "duration": 0.2704,
      "velocity": 96,
      "chip": "ym2612"
    },
    {
      "channel": 3,
      "note": 55,
      "start": 31.6804,
      "duration": 0.1316,
      "velocity": 91,
      "chip": "ym2612"
    },
    {
      "channel": 4,
      "note": 43,
      "start": 31.6813,
      "duration": 0.1316,
      "velocity": 101,
      "chip": "ym2612"
    },
    {
      "channel": 2,
      "note": 72,
      "start": 31.6825,
      "duration": 0.2364,
      "velocity": 120,
      "chip": "ym2612"
    },
    {
      "channel": 3,
      "note": 55,
      "start": 31.8126,
      "duration": 0.1386,
      "velocity": 91,
      "chip": "ym2612"
    },
    {
      "channel": 4,
      "note": 43,
      "start": 31.8134,
      "duration": 0.1386,
      "velocity": 101,
      "chip": "ym2612"
    },
    {
      "channel": 1,
      "note": 83,
      "start": 31.951,
      "duration": 0.27,
      "velocity": 96,
      "chip": "ym2612"
    },
    {
      "channel": 3,
      "note": 55,
      "start": 31.9518,
      "duration": 0.1344,
      "velocity": 91,
      "chip": "ym2612"
    },
    {
      "channel": 4,
      "note": 43,
      "start": 31.9526,
      "duration": 0.1344,
      "velocity": 101,
      "chip": "ym2612"
    },
    {
      "channel": 2,
      "note": 36,
      "start": 31.954,
      "duration": 0.1155,
      "velocity": 127,
      "chip": "ym2612"
    },
    {
      "channel": 3,
      "note": 55,
      "start": 32.0867,
      "duration": 0.1351,
      "velocity": 91,
      "chip": "ym2612"
    },
    {
      "channel": 4,
      "note": 43,
      "start": 32.0876,
      "duration": 0.1352,
      "velocity": 101,
      "chip": "ym2612"
    },
    {
      "channel": 2,
      "note": 36,
      "start": 32.0889,
      "duration": 0.1156,
      "velocity": 127,
      "chip": "ym2612"
    },
    {
      "channel": 1,
      "note": 86,
      "start": 32.2217,
      "duration": 0.2704,
      "velocity": 96,
      "chip": "ym2612"
    },
    {
      "channel": 3,
      "note": 55,
      "start": 32.2225,
      "duration": 0.1313,
      "velocity": 91,
      "chip": "ym2612"
    },
    {
      "channel": 4,
      "note": 43,
      "start": 32.2233,
      "duration": 0.1313,
      "velocity": 101,
      "chip": "ym2612"
    },
    {
      "channel": 2,
      "note": 72,
      "start": 32.2245,
      "duration": 0.2358,
      "velocity": 120,
      "chip": "ym2612"
    },
    {
      "channel": 3,
      "note": 55,
      "start": 32.3544,
      "duration": 0.1385,
      "velocity": 91,
      "chip": "ym2612"
    },
    {
      "channel": 4,
      "note": 43,
      "start": 32.3552,
      "duration": 0.1385,
      "velocity": 101,
      "chip": "ym2612"
    },
    {
      "channel": 0,
      "note": 83,
      "start": 32.4919,
      "duration": 0.4028,
      "velocity": 97,
      "chip": "ym2612"
    },
    {
      "channel": 1,
      "note": 81,
      "start": 32.4927,
      "duration": 1.0824,
      "velocity": 96,
      "chip": "ym2612"
    },
    {
      "channel": 3,
      "note": 57,
      "start": 32.4935,
      "duration": 0.1312,
      "velocity": 91,
      "chip": "ym2612"
    },
    {
      "channel": 4,
      "note": 45,
      "start": 32.4943,
      "duration": 0.1312,
      "velocity": 101,
      "chip": "ym2612"
    },
    {
      "channel": 2,
      "note": 36,
      "start": 32.4956,
      "duration": 0.1149,
      "velocity": 127,
      "chip": "ym2612"
    },
    {
      "channel": 5,
      "note": 83,
      "start": 32.5361,
      "duration": 0.405,
      "velocity": 92,
      "chip": "ym2612"
    },
    {
      "channel": 3,
      "note": 57,
      "start": 32.6253,
      "duration": 0.1376,
      "velocity": 91,
      "chip": "ym2612"
    },
    {
      "channel": 4,
      "note": 45,
      "start": 32.6261,
      "duration": 0.1376,
      "velocity": 101,
      "chip": "ym2612"
    },
    {
      "channel": 3,
      "note": 57,
      "start": 32.7634,
      "duration": 0.1325,
      "velocity": 91,
      "chip": "ym2612"
    },
    {
      "channel": 4,
      "note": 45,
      "start": 32.7643,
      "duration": 0.1325,
      "velocity": 101,
      "chip": "ym2612"
    },
    {
      "channel": 2,
      "note": 72,
      "start": 32.7655,
      "duration": 0.2367,
      "velocity": 120,
      "chip": "ym2612"
    },
    {
      "channel": 0,
      "note": 90,
      "start": 32.8953,
      "duration": 0.4087,
      "velocity": 97,
      "chip": "ym2612"
    },
    {
      "channel": 3,
      "note": 57,
      "start": 32.8965,
      "duration": 0.1376,
      "velocity": 91,
      "chip": "ym2612"
    },
    {
      "channel": 4,
      "note": 45,
      "start": 32.8973,
      "duration": 0.1376,
      "velocity": 101,
      "chip": "ym2612"
    },
    {
      "channel": 5,
      "note": 90,
      "start": 32.9418,
      "duration": 0.4056,
      "velocity": 92,
      "chip": "ym2612"
    },
    {
      "channel": 3,
      "note": 57,
      "start": 33.0348,
      "duration": 0.1349,
      "velocity": 91,
      "chip": "ym2612"
    },
    {
      "channel": 4,
      "note": 45,
      "start": 33.0356,
      "duration": 0.1349,
      "velocity": 101,
      "chip": "ym2612"
    },
    {
      "channel": 2,
      "note": 36,
      "start": 33.0368,
      "duration": 0.1161,
      "velocity": 127,
      "chip": "ym2612"
    },
    {
      "channel": 3,
      "note": 57,
      "start": 33.1702,
      "duration": 0.135,
      "velocity": 91,
      "chip": "ym2612"
    },
    {
      "channel": 4,
      "note": 45,
      "start": 33.1711,
      "duration": 0.135,
      "velocity": 101,
      "chip": "ym2612"
    },
    {
      "channel": 2,
      "note": 36,
      "start": 33.1724,
      "duration": 0.1155,
      "velocity": 127,
      "chip": "ym2612"
    },
    {
      "channel": 0,
      "note": 88,
      "start": 33.3047,
      "duration": 0.5406,
      "velocity": 97,
      "chip": "ym2612"
    },
    {
      "channel": 3,
      "note": 57,
      "start": 33.3059,
      "duration": 0.1314,
      "velocity": 91,
      "chip": "ym2612"
    },
    {
      "channel": 4,
      "note": 45,
      "start": 33.3067,
      "duration": 0.1314,
      "velocity": 101,
      "chip": "ym2612"
    },
    {
      "channel": 2,
      "note": 72,
      "start": 33.3079,
      "duration": 0.2358,
      "velocity": 120,
      "chip": "ym2612"
    },
    {
      "channel": 5,
      "note": 88,
      "start": 33.3481,
      "duration": 0.5411,
      "velocity": 92,
      "chip": "ym2612"
    },
    {
      "channel": 3,
      "note": 57,
      "start": 33.4378,
      "duration": 0.1382,
      "velocity": 91,
      "chip": "ym2612"
    },
    {
      "channel": 4,
      "note": 45,
      "start": 33.4386,
      "duration": 0.1382,
      "velocity": 101,
      "chip": "ym2612"
    },
    {
      "channel": 1,
      "note": 81,
      "start": 33.5757,
      "duration": 0.2704,
      "velocity": 96,
      "chip": "ym2612"
    },
    {
      "channel": 3,
      "note": 57,
      "start": 33.5766,
      "duration": 0.1317,
      "velocity": 91,
      "chip": "ym2612"
    },
    {
      "channel": 4,
      "note": 45,
      "start": 33.5774,
      "duration": 0.1317,
      "velocity": 101,
      "chip": "ym2612"
    },
    {
      "channel": 2,
      "note": 36,
      "start": 33.5787,
      "duration": 0.1155,
      "velocity": 127,
      "chip": "ym2612"
    },
    {
      "channel": 3,
      "note": 57,
      "start": 33.7088,
      "duration": 0.1382,
      "velocity": 91,
      "chip": "ym2612"
    },
    {
      "channel": 4,
      "note": 45,
      "start": 33.7096,
      "duration": 0.1382,
      "velocity": 101,
      "chip": "ym2612"
    },
    {
      "channel": 0,
      "note": 86,
      "start": 33.846,
      "duration": 0.2702,
      "velocity": 97,
      "chip": "ym2612"
    },
    {
      "channel": 1,
      "note": 83,
      "start": 33.8468,
      "duration": 0.2707,
      "velocity": 96,
      "chip": "ym2612"
    },
    {
      "channel": 3,
      "note": 57,
      "start": 33.8476,
      "duration": 0.1314,
      "velocity": 91,
      "chip": "ym2612"
    },
    {
      "channel": 4,
      "note": 45,
      "start": 33.8484,
      "duration": 0.1314,
      "velocity": 101,
      "chip": "ym2612"
    },
    {
      "channel": 2,
      "note": 72,
      "start": 33.8496,
      "duration": 0.2361,
      "velocity": 120,
      "chip": "ym2612"
    },
    {
      "channel": 5,
      "note": 86,
      "start": 33.8899,
      "duration": 0.2701,
      "velocity": 92,
      "chip": "ym2612"
    },
    {
      "channel": 3,
      "note": 57,
      "start": 33.9795,
      "duration": 0.1387,
      "velocity": 91,
      "chip": "ym2612"
    },
    {
      "channel": 4,
      "note": 45,
      "start": 33.9804,
      "duration": 0.1388,
      "velocity": 101,
      "chip": "ym2612"
    },
    {
      "channel": 0,
      "note": 85,
      "start": 34.1169,
      "duration": 0.2704,
      "velocity": 97,
      "chip": "ym2612"
    },
    {
      "channel": 1,
      "note": 85,
      "start": 34.118,
      "duration": 0.2701,
      "velocity": 96,
      "chip": "ym2612"
    },
    {
      "channel": 3,
      "note": 57,
      "start": 34.1189,
      "duration": 0.1341,
      "velocity": 91,
      "chip": "ym2612"
    },
    {
      "channel": 4,
      "note": 45,
      "start": 34.1198,
      "duration": 0.1341,
      "velocity": 101,
      "chip": "ym2612"
    },
    {
      "channel": 2,
      "note": 36,
      "start": 34.121,
      "duration": 0.1151,
      "velocity": 127,
      "chip": "ym2612"
    },
    {
      "channel": 5,
      "note": 85,
      "start": 34.1607,
      "duration": 0.2702,
      "velocity": 92,
      "chip": "ym2612"
    },
    {
      "channel": 3,
      "note": 57,
      "start": 34.2536,
      "duration": 0.1354,
      "velocity": 91,
      "chip": "ym2612"
    },
    {
      "channel": 4,
      "note": 45,
      "start": 34.2544,
      "duration": 0.1354,
      "velocity": 101,
      "chip": "ym2612"
    },
    {
      "channel": 2,
      "note": 36,
      "start": 34.2556,
      "duration": 0.1157,
      "velocity": 127,
      "chip": "ym2612"
    },
    {
      "channel": 0,
      "note": 81,
      "start": 34.388,
      "duration": 0.2701,
      "velocity": 97,
      "chip": "ym2612"
    },
    {
      "channel": 1,
      "note": 88,
      "start": 34.3888,
      "duration": 0.2703,
      "velocity": 96,
      "chip": "ym2612"
    },
    {
      "channel": 3,
      "note": 57,
      "start": 34.3896,
      "duration": 0.1311,
      "velocity": 91,
      "chip": "ym2612"
    },
    {
      "channel": 4,
      "note": 45,
      "start": 34.3904,
      "duration": 0.1311,
      "velocity": 101,
      "chip": "ym2612"
    },
    {
      "channel": 2,
      "note": 72,
      "start": 34.3916,
      "duration": 0.2354,
      "velocity": 120,
      "chip": "ym2612"
    },
    {
      "channel": 5,
      "note": 81,
      "start": 34.4316,
      "duration": 0.2704,
      "velocity": 92,
      "chip": "ym2612"
    },
    {
      "channel": 3,
      "note": 57,
      "start": 34.5213,
      "duration": 0.1385,
      "velocity": 91,
      "chip": "ym2612"
    },
    {
      "channel": 4,
      "note": 45,
      "start": 34.5221,
      "duration": 0.1387,
      "velocity": 101,
      "chip": "ym2612"
    },
    {
      "channel": 0,
      "note": 83,
      "start": 34.6588,
      "duration": 0.4027,
      "velocity": 97,
      "chip": "ym2612"
    },
    {
      "channel": 3,
      "note": 59,
      "start": 34.6603,
      "duration": 0.1309,
      "velocity": 91,
      "chip": "ym2612"
    },
    {
      "channel": 4,
      "note": 50,
      "start": 34.6613,
      "duration": 0.1307,
      "velocity": 101,
      "chip": "ym2612"
    },
    {
      "channel": 2,
      "note": 36,
      "start": 34.6626,
      "duration": 0.1145,
      "velocity": 127,
      "chip": "ym2612"
    },
    {
      "channel": 5,
      "note": 83,
      "start": 34.7027,
      "duration": 0.4054,
      "velocity": 92,
      "chip": "ym2612"
    },
    {
      "channel": 3,
      "note": 59,
      "start": 34.7918,
      "duration": 0.1377,
      "velocity": 91,
      "chip": "ym2612"
    },
    {
      "channel": 4,
      "note": 47,
      "start": 34.7926,
      "duration": 0.1377,
      "velocity": 101,
      "chip": "ym2612"
    },
    {
      "channel": 3,
      "note": 59,
      "start": 34.93,
      "duration": 0.1332,
      "velocity": 91,
      "chip": "ym2612"
    },
    {
      "channel": 4,
      "note": 47,
      "start": 34.9308,
      "duration": 0.1331,
      "velocity": 101,
      "chip": "ym2612"
    },
    {
      "channel": 2,
      "note": 72,
      "start": 34.932,
      "duration": 0.237,
      "velocity": 120,
      "chip": "ym2612"
    },
    {
      "channel": 0,
      "note": 95,
      "start": 35.0622,
      "duration": 3.9297,
      "velocity": 97,
      "chip": "ym2612"
    },
    {
      "channel": 1,
      "note": 83,
      "start": 35.063,
      "duration": 3.9293,
      "velocity": 96,
      "chip": "ym2612"
    },
    {
      "channel": 3,
      "note": 59,
      "start": 35.0638,
      "duration": 0.1372,
      "velocity": 91,
      "chip": "ym2612"
    },
    {
      "channel": 4,
      "note": 47,
      "start": 35.0645,
      "duration": 0.1373,
      "velocity": 101,
      "chip": "ym2612"
    },
    {
      "channel": 5,
      "note": 95,
      "start": 35.1088,
      "duration": 3.9266,
      "velocity": 92,
      "chip": "ym2612"
    },
    {
      "channel": 3,
      "note": 59,
      "start": 35.2016,
      "duration": 0.1348,
      "velocity": 91,
      "chip": "ym2612"
    },
    {
      "channel": 4,
      "note": 47,
      "start": 35.2024,
      "duration": 0.1348,
      "velocity": 101,
      "chip": "ym2612"
    },
    {
      "channel": 2,
      "note": 36,
      "start": 35.2036,
      "duration": 0.1161,
      "velocity": 127,
      "chip": "ym2612"
    },
    {
      "channel": 3,
      "note": 59,
      "start": 35.3371,
      "duration": 0.1348,
      "velocity": 91,
      "chip": "ym2612"
    },
    {
      "channel": 4,
      "note": 47,
      "start": 35.3378,
      "duration": 0.1349,
      "velocity": 101,
      "chip": "ym2612"
    },
    {
      "channel": 2,
      "note": 36,
      "start": 35.3391,
      "duration": 0.1157,
      "velocity": 127,
      "chip": "ym2612"
    },
    {
      "channel": 3,
      "note": 59,
      "start": 35.4725,
      "duration": 0.1317,
      "velocity": 91,
      "chip": "ym2612"
    },
    {
      "channel": 4,
      "note": 47,
      "start": 35.4732,
      "duration": 0.1317,
      "velocity": 101,
      "chip": "ym2612"
    },
    {
      "channel": 2,
      "note": 72,
      "start": 35.4744,
      "duration": 0.2361,
      "velocity": 120,
      "chip": "ym2612"
    },
    {
      "channel": 3,
      "note": 59,
      "start": 35.6047,
      "duration": 0.1376,
      "velocity": 91,
      "chip": "ym2612"
    },
    {
      "channel": 4,
      "note": 47,
      "start": 35.6055,
      "duration": 0.1377,
      "velocity": 101,
      "chip": "ym2612"
    },
    {
      "channel": 3,
      "note": 59,
      "start": 35.743,
      "duration": 0.132,
      "velocity": 91,
      "chip": "ym2612"
    },
    {
      "channel": 4,
      "note": 47,
      "start": 35.7437,
      "duration": 0.132,
      "velocity": 101,
      "chip": "ym2612"
    },
    {
      "channel": 2,
      "note": 36,
      "start": 35.745,
      "duration": 0.1162,
      "velocity": 127,
      "chip": "ym2612"
    },
    {
      "channel": 3,
      "note": 59,
      "start": 35.8755,
      "duration": 0.1376,
      "velocity": 91,
      "chip": "ym2612"
    },
    {
      "channel": 4,
      "note": 47,
      "start": 35.8763,
      "duration": 0.1376,
      "velocity": 101,
      "chip": "ym2612"
    },
    {
      "channel": 3,
      "note": 59,
      "start": 36.0138,
      "duration": 0.1321,
      "velocity": 91,
      "chip": "ym2612"
    },
    {
      "channel": 4,
      "note": 47,
      "start": 36.0145,
      "duration": 0.1321,
      "velocity": 101,
      "chip": "ym2612"
    },
    {
      "channel": 2,
      "note": 72,
      "start": 36.0157,
      "duration": 0.2372,
      "velocity": 120,
      "chip": "ym2612"
    },
    {
      "channel": 3,
      "note": 59,
      "start": 36.1464,
      "duration": 0.138,
      "velocity": 91,
      "chip": "ym2612"
    },
    {
      "channel": 4,
      "note": 47,
      "start": 36.1472,
      "duration": 0.138,
      "velocity": 101,
      "chip": "ym2612"
    },
    {
      "channel": 3,
      "note": 59,
      "start": 36.285,
      "duration": 0.1348,
      "velocity": 91,
      "chip": "ym2612"
    },
    {
      "channel": 4,
      "note": 47,
      "start": 36.2858,
      "duration": 0.1348,
      "velocity": 101,
      "chip": "ym2612"
    },
    {
      "channel": 2,
      "note": 36,
      "start": 36.2871,
      "duration": 0.1161,
      "velocity": 127,
      "chip": "ym2612"
    },
    {
      "channel": 3,
      "note": 59,
      "start": 36.4205,
      "duration": 0.1344,
      "velocity": 91,
      "chip": "ym2612"
    },
    {
      "channel": 4,
      "note": 47,
      "start": 36.4211,
      "duration": 0.1345,
      "velocity": 101,
      "chip": "ym2612"
    },
    {
      "channel": 2,
      "note": 36,
      "start": 36.4225,
      "duration": 0.1156,
      "velocity": 127,
      "chip": "ym2612"
    },
    {
      "channel": 3,
      "note": 59,
      "start": 36.5555,
      "duration": 0.1324,
      "velocity": 91,
      "chip": "ym2612"
    },
    {
      "channel": 4,
      "note": 47,
      "start": 36.5562,
      "duration": 0.1324,
      "velocity": 101,
      "chip": "ym2612"
    },
    {
      "channel": 2,
      "note": 72,
      "start": 36.5574,
      "duration": 0.2366,
      "velocity": 120,
      "chip": "ym2612"
    },
    {
      "channel": 3,
      "note": 59,
      "start": 36.6885,
      "duration": 0.1377,
      "velocity": 91,
      "chip": "ym2612"
    },
    {
      "channel": 4,
      "note": 47,
      "start": 36.6892,
      "duration": 0.138,
      "velocity": 101,
      "chip": "ym2612"
    },
    {
      "channel": 3,
      "note": 59,
      "start": 36.8269,
      "duration": 0.1314,
      "velocity": 91,
      "chip": "ym2612"
    },
    {
      "channel": 4,
      "note": 50,
      "start": 36.8278,
      "duration": 0.131,
      "velocity": 101,
      "chip": "ym2612"
    },
    {
      "channel": 2,
      "note": 36,
      "start": 36.8291,
      "duration": 0.1154,
      "velocity": 127,
      "chip": "ym2612"
    },
    {
      "channel": 3,
      "note": 59,
      "start": 36.9587,
      "duration": 0.1378,
      "velocity": 91,
      "chip": "ym2612"
    },
    {
      "channel": 4,
      "note": 47,
      "start": 36.9594,
      "duration": 0.1376,
      "velocity": 101,
      "chip": "ym2612"
    },
    {
      "channel": 3,
      "note": 59,
      "start": 37.0969,
      "duration": 0.1324,
      "velocity": 91,
      "chip": "ym2612"
    },
    {
      "channel": 4,
      "note": 47,
      "start": 37.0976,
      "duration": 0.1324,
      "velocity": 101,
      "chip": "ym2612"
    },
    {
      "channel": 2,
      "note": 72,
      "start": 37.0988,
      "duration": 0.2373,
      "velocity": 120,
      "chip": "ym2612"
    },
    {
      "channel": 3,
      "note": 59,
      "start": 37.2298,
      "duration": 0.138,
      "velocity": 91,
      "chip": "ym2612"
    },
    {
      "channel": 4,
      "note": 47,
      "start": 37.2306,
      "duration": 0.1378,
      "velocity": 101,
      "chip": "ym2612"
    },
    {
      "channel": 3,
      "note": 59,
      "start": 37.3682,
      "duration": 0.135,
      "velocity": 91,
      "chip": "ym2612"
    },
    {
      "channel": 4,
      "note": 47,
      "start": 37.3689,
      "duration": 0.1349,
      "velocity": 101,
      "chip": "ym2612"
    },
    {
      "channel": 2,
      "note": 36,
      "start": 37.3702,
      "duration": 0.1163,
      "velocity": 127,
      "chip": "ym2612"
    },
    {
      "channel": 3,
      "note": 59,
      "start": 37.5037,
      "duration": 0.1345,
      "velocity": 91,
      "chip": "ym2612"
    },
    {
      "channel": 4,
      "note": 47,
      "start": 37.5044,
      "duration": 0.1344,
      "velocity": 101,
      "chip": "ym2612"
    },
    {
      "channel": 2,
      "note": 36,
      "start": 37.5057,
      "duration": 0.116,
      "velocity": 127,
      "chip": "ym2612"
    },
    {
      "channel": 3,
      "note": 59,
      "start": 37.6387,
      "duration": 0.1322,
      "velocity": 91,
      "chip": "ym2612"
    },
    {
      "channel": 4,
      "note": 47,
      "start": 37.6394,
      "duration": 0.1321,
      "velocity": 101,
      "chip": "ym2612"
    },
    {
      "channel": 2,
      "note": 72,
      "start": 37.6406,
      "duration": 0.2368,
      "velocity": 120,
      "chip": "ym2612"
    },
    {
      "channel": 3,
      "note": 59,
      "start": 37.7713,
      "duration": 0.1378,
      "velocity": 91,
      "chip": "ym2612"
    },
    {
      "channel": 4,
      "note": 47,
      "start": 37.7721,
      "duration": 0.1378,
      "velocity": 101,
      "chip": "ym2612"
    },
    {
      "channel": 3,
      "note": 55,
      "start": 37.9098,
      "duration": 0.132,
      "velocity": 91,
      "chip": "ym2612"
    },
    {
      "channel": 4,
      "note": 43,
      "start": 37.9105,
      "duration": 0.132,
      "velocity": 101,
      "chip": "ym2612"
    },
    {
      "channel": 2,
      "note": 36,
      "start": 37.9118,
      "duration": 0.1161,
      "velocity": 127,
      "chip": "ym2612"
    },
    {
      "channel": 3,
      "note": 55,
      "start": 38.0424,
      "duration": 0.1376,
      "velocity": 91,
      "chip": "ym2612"
    },
    {
      "channel": 4,
      "note": 47,
      "start": 38.0431,
      "duration": 0.1376,
      "velocity": 101,
      "chip": "ym2612"
    },
    {
      "channel": 3,
      "note": 55,
      "start": 38.1805,
      "duration": 0.1321,
      "velocity": 91,
      "chip": "ym2612"
    },
    {
      "channel": 4,
      "note": 50,
      "start": 38.1813,
      "duration": 0.132,
      "velocity": 101,
      "chip": "ym2612"
    },
    {
      "channel": 2,
      "note": 72,
      "start": 38.1825,
      "duration": 0.2371,
      "velocity": 120,
      "chip": "ym2612"
    },
    {
      "channel": 3,
      "note": 55,
      "start": 38.3132,
      "duration": 0.138,
      "velocity": 91,
      "chip": "ym2612"
    },
    {
      "channel": 4,
      "note": 45,
      "start": 38.3139,
      "duration": 0.1381,
      "velocity": 101,
      "chip": "ym2612"
    },
    {
      "channel": 3,
      "note": 57,
      "start": 38.4518,
      "duration": 0.1348,
      "velocity": 91,
      "chip": "ym2612"
    },
    {
      "channel": 4,
      "note": 49,
      "start": 38.4526,
      "duration": 0.1348,
      "velocity": 101,
      "chip": "ym2612"
    },
    {
      "channel": 2,
      "note": 36,
      "start": 38.4538,
      "duration": 0.116,
      "velocity": 127,
      "chip": "ym2612"
    },
    {
      "channel": 3,
      "note": 57,
      "start": 38.5872,
      "duration": 0.1344,
      "velocity": 91,
      "chip": "ym2612"
    },
    {
      "channel": 4,
      "note": 52,
      "start": 38.5879,
      "duration": 0.1344,
      "velocity": 101,
      "chip": "ym2612"
    },
    {
      "channel": 2,
      "note": 36,
      "start": 38.5893,
      "duration": 0.1158,
      "velocity": 127,
      "chip": "ym2612"
    },
    {
      "channel": 3,
      "note": 57,
      "start": 38.7222,
      "duration": 0.1321,
      "velocity": 91,
      "chip": "ym2612"
    },
    {
      "channel": 4,
      "note": 49,
      "start": 38.7229,
      "duration": 0.1321,
      "velocity": 101,
      "chip": "ym2612"
    },
    {
      "channel": 2,
      "note": 72,
      "start": 38.7241,
      "duration": 0.2367,
      "velocity": 120,
      "chip": "ym2612"
    },
    {
      "channel": 3,
      "note": 57,
      "start": 38.8549,
      "duration": 0.1379,
      "velocity": 91,
      "chip": "ym2612"
    },
    {
      "channel": 4,
      "note": 45,
      "start": 38.8556,
      "duration": 0.1386,
      "velocity": 101,
      "chip": "ym2612"
    },
    {
      "channel": 3,
      "note": 59,
      "start": 38.9934,
      "duration": 0.1313,
      "velocity": 91,
      "chip": "ym2612"
    },
    {
      "channel": 4,
      "note": 50,
      "start": 38.9947,
      "duration": 0.1307,
      "velocity": 101,
      "chip": "ym2612"
    },
    {
      "channel": 2,
      "note": 36,
      "start": 38.996,
      "duration": 0.1143,
      "velocity": 127,
      "chip": "ym2612"
    },
    {
      "channel": 3,
      "note": 59,
      "start": 39.1253,
      "duration": 0.1375,
      "velocity": 91,
      "chip": "ym2612"
    },
    {
      "channel": 4,
      "note": 47,
      "start": 39.126,
      "duration": 0.1375,
      "velocity": 101,
      "chip": "ym2612"
    },
    {
      "channel": 3,
      "note": 59,
      "start": 39.2634,
      "duration": 0.1321,
      "velocity": 91,
      "chip": "ym2612"
    },
    {
      "channel": 4,
      "note": 47,
      "start": 39.2641,
      "duration": 0.1322,
      "velocity": 101,
      "chip": "ym2612"
    },
    {
      "channel": 2,
      "note": 72,
      "start": 39.2649,
      "duration": 0.2371,
      "velocity": 120,
      "chip": "ym2612"
    },
    {
      "channel": 3,
      "note": 59,
      "start": 39.3961,
      "duration": 0.1377,
      "velocity": 91,
      "chip": "ym2612"
    },
    {
      "channel": 4,
      "note": 47,
      "start": 39.3968,
      "duration": 0.138,
      "velocity": 101,
      "chip": "ym2612"
    },
    {
      "channel": 3,
      "note": 59,
      "start": 39.5347,
      "duration": 0.1349,
      "velocity": 91,
      "chip": "ym2612"
    },
    {
      "channel": 4,
      "note": 47,
      "start": 39.5354,
      "duration": 0.1349,
      "velocity": 101,
      "chip": "ym2612"
    },
    {
      "channel": 2,
      "note": 36,
      "start": 39.5363,
      "duration": 0.1159,
      "velocity": 127,
      "chip": "ym2612"
    },
    {
      "channel": 3,
      "note": 59,
      "start": 39.6702,
      "duration": 0.1344,
      "velocity": 91,
      "chip": "ym2612"
    },
    {
      "channel": 4,
      "note": 47,
      "start": 39.6709,
      "duration": 0.1344,
      "velocity": 101,
      "chip": "ym2612"
    },
    {
      "channel": 2,
      "note": 36,
      "start": 39.6718,
      "duration": 0.1156,
      "velocity": 127,
      "chip": "ym2612"
    },
    {
      "channel": 3,
      "note": 59,
      "start": 39.8052,
      "duration": 0.132,
      "velocity": 91,
      "chip": "ym2612"
    },
    {
      "channel": 4,
      "note": 47,
      "start": 39.8059,
      "duration": 0.1321,
      "velocity": 101,
      "chip": "ym2612"
    },
    {
      "channel": 2,
      "note": 72,
      "start": 39.8067,
      "duration": 0.2366,
      "velocity": 120,
      "chip": "ym2612"
    },
    {
      "channel": 3,
      "note": 59,
      "start": 39.9378,
      "duration": 0.1377,
      "velocity": 91,
      "chip": "ym2612"
    },
    {
      "channel": 4,
      "note": 47,
      "start": 39.9385,
      "duration": 0.1377,
      "velocity": 101,
      "chip": "ym2612"
    },
    {
      "channel": 3,
      "note": 59,
      "start": 40.0761,
      "duration": 0.132,
      "velocity": 91,
      "chip": "ym2612"
    },
    {
      "channel": 4,
      "note": 47,
      "start": 40.0768,
      "duration": 0.1321,
      "velocity": 101,
      "chip": "ym2612"
    },
    {
      "channel": 2,
      "note": 36,
      "start": 40.0778,
      "duration": 0.116,
      "velocity": 127,
      "chip": "ym2612"
    },
    {
      "channel": 3,
      "note": 59,
      "start": 40.2087,
      "duration": 0.1375,
      "velocity": 91,
      "chip": "ym2612"
    },
    {
      "channel": 4,
      "note": 47,
      "start": 40.2094,
      "duration": 0.1375,
      "velocity": 101,
      "chip": "ym2612"
    },
    {
      "channel": 3,
      "note": 59,
      "start": 40.3468,
      "duration": 0.1321,
      "velocity": 91,
      "chip": "ym2612"
    },
    {
      "channel": 4,
      "note": 47,
      "start": 40.3476,
      "duration": 0.1321,
      "velocity": 101,
      "chip": "ym2612"
    },
    {
      "channel": 2,
      "note": 72,
      "start": 40.3484,
      "duration": 0.2371,
      "velocity": 120,
      "chip": "ym2612"
    },
    {
      "channel": 3,
      "note": 59,
      "start": 40.4795,
      "duration": 0.138,
      "velocity": 91,
      "chip": "ym2612"
    },
    {
      "channel": 4,
      "note": 47,
      "start": 40.4802,
      "duration": 0.1381,
      "velocity": 101,
      "chip": "ym2612"
    },
    {
      "channel": 3,
      "note": 59,
      "start": 40.6181,
      "duration": 0.135,
      "velocity": 91,
      "chip": "ym2612"
    },
    {
      "channel": 4,
      "note": 47,
      "start": 40.6188,
      "duration": 0.135,
      "velocity": 101,
      "chip": "ym2612"
    },
    {
      "channel": 2,
      "note": 36,
      "start": 40.6198,
      "duration": 0.1158,
      "velocity": 127,
      "chip": "ym2612"
    },
    {
      "channel": 3,
      "note": 59,
      "start": 40.7537,
      "duration": 0.1343,
      "velocity": 91,
      "chip": "ym2612"
    },
    {
      "channel": 4,
      "note": 47,
      "start": 40.7544,
      "duration": 0.1344,
      "velocity": 101,
      "chip": "ym2612"
    },
    {
      "channel": 2,
      "note": 36,
      "start": 40.7553,
      "duration": 0.1156,
      "velocity": 127,
      "chip": "ym2612"
    },
    {
      "channel": 3,
      "note": 59,
      "start": 40.8886,
      "duration": 0.132,
      "velocity": 91,
      "chip": "ym2612"
    },
    {
      "channel": 4,
      "note": 47,
      "start": 40.8893,
      "duration": 0.132,
      "velocity": 101,
      "chip": "ym2612"
    },
    {
      "channel": 2,
      "note": 72,
      "start": 40.8902,
      "duration": 0.2366,
      "velocity": 120,
      "chip": "ym2612"
    },
    {
      "channel": 3,
      "note": 59,
      "start": 41.0212,
      "duration": 0.1382,
      "velocity": 91,
      "chip": "ym2612"
    },
    {
      "channel": 4,
      "note": 47,
      "start": 41.0219,
      "duration": 0.1385,
      "velocity": 101,
      "chip": "ym2612"
    },
    {
      "channel": 3,
      "note": 59,
      "start": 41.16,
      "duration": 0.1314,
      "velocity": 91,
      "chip": "ym2612"
    },
    {
      "channel": 4,
      "note": 50,
      "start": 41.161,
      "duration": 0.1311,
      "velocity": 101,
      "chip": "ym2612"
    },
    {
      "channel": 2,
      "note": 36,
      "start": 41.1619,
      "duration": 0.1153,
      "velocity": 127,
      "chip": "ym2612"
    },
    {
      "channel": 3,
      "note": 59,
      "start": 41.2919,
      "duration": 0.1377,
      "velocity": 91,
      "chip": "ym2612"
    },
    {
      "channel": 4,
      "note": 47,
      "start": 41.2927,
      "duration": 0.1376,
      "velocity": 101,
      "chip": "ym2612"
    },
    {
      "channel": 3,
      "note": 59,
      "start": 41.4301,
      "duration": 0.1322,
      "velocity": 91,
      "chip": "ym2612"
    },
    {
      "channel": 4,
      "note": 47,
      "start": 41.4308,
      "duration": 0.1321,
      "velocity": 101,
      "chip": "ym2612"
    },
    {
      "channel": 2,
      "note": 72,
      "start": 41.4316,
      "duration": 0.2372,
      "velocity": 120,
      "chip": "ym2612"
    },
    {
      "channel": 3,
      "note": 59,
      "start": 41.5627,
      "duration": 0.1382,
      "velocity": 91,
      "chip": "ym2612"
    },
    {
      "channel": 4,
      "note": 47,
      "start": 41.5634,
      "duration": 0.1381,
      "velocity": 101,
      "chip": "ym2612"
    },
    {
      "channel": 3,
      "note": 59,
      "start": 41.7014,
      "duration": 0.1349,
      "velocity": 91,
      "chip": "ym2612"
    },
    {
      "channel": 4,
      "note": 47,
      "start": 41.7021,
      "duration": 0.1349,
      "velocity": 101,
      "chip": "ym2612"
    },
    {
      "channel": 2,
      "note": 36,
      "start": 41.7031,
      "duration": 0.1158,
      "velocity": 127,
      "chip": "ym2612"
    },
    {
      "channel": 3,
      "note": 59,
      "start": 41.8368,
      "duration": 0.1344,
      "velocity": 91,
      "chip": "ym2612"
    },
    {
      "channel": 4,
      "note": 47,
      "start": 41.8376,
      "duration": 0.1344,
      "velocity": 101,
      "chip": "ym2612"
    },
    {
      "channel": 2,
      "note": 36,
      "start": 41.8385,
      "duration": 0.1159,
      "velocity": 127,
      "chip": "ym2612"
    },
    {
      "channel": 3,
      "note": 59,
      "start": 41.9718,
      "duration": 0.1322,
      "velocity": 91,
      "chip": "ym2612"
    },
    {
      "channel": 4,
      "note": 47,
      "start": 41.9725,
      "duration": 0.1321,
      "velocity": 101,
      "chip": "ym2612"
    },
    {
      "channel": 2,
      "note": 72,
      "start": 41.9733,
      "duration": 0.2369,
      "velocity": 120,
      "chip": "ym2612"
    },
    {
      "channel": 3,
      "note": 59,
      "start": 42.1044,
      "duration": 0.1378,
      "velocity": 91,
      "chip": "ym2612"
    },
    {
      "channel": 4,
      "note": 47,
      "start": 42.1052,
      "duration": 0.1378,
      "velocity": 101,
      "chip": "ym2612"
    },
    {
      "channel": 3,
      "note": 55,
      "start": 42.2428,
      "duration": 0.1321,
      "velocity": 91,
      "chip": "ym2612"
    },
    {
      "channel": 4,
      "note": 43,
      "start": 42.2436,
      "duration": 0.132,
      "velocity": 101,
      "chip": "ym2612"
    },
    {
      "channel": 2,
      "note": 36,
      "start": 42.2445,
      "duration": 0.1161,
      "velocity": 127,
      "chip": "ym2612"
    },
    {
      "channel": 3,
      "note": 55,
      "start": 42.3755,
      "duration": 0.1377,
      "velocity": 91,
      "chip": "ym2612"
    },
    {
      "channel": 4,
      "note": 47,
      "start": 42.3762,
      "duration": 0.1377,
      "velocity": 101,
      "chip": "ym2612"
    },
    {
      "channel": 3,
      "note": 55,
      "start": 42.5137,
      "duration": 0.132,
      "velocity": 91,
      "chip": "ym2612"
    },
    {
      "channel": 4,
      "note": 50,
      "start": 42.5145,
      "duration": 0.1319,
      "velocity": 101,
      "chip": "ym2612"
    },
    {
      "channel": 2,
      "note": 72,
      "start": 42.5153,
      "duration": 0.2369,
      "velocity": 120,
      "chip": "ym2612"
    },
    {
      "channel": 3,
      "note": 55,
      "start": 42.6462,
      "duration": 0.1382,
      "velocity": 91,
      "chip": "ym2612"
    },
    {
      "channel": 4,
      "note": 45,
      "start": 42.647,
      "duration": 0.1381,
      "velocity": 101,
      "chip": "ym2612"
    },
    {
      "channel": 3,
      "note": 57,
      "start": 42.7849,
      "duration": 0.1347,
      "velocity": 91,
      "chip": "ym2612"
    },
    {
      "channel": 4,
      "note": 49,
      "start": 42.7856,
      "duration": 0.1348,
      "velocity": 101,
      "chip": "ym2612"
    },
    {
      "channel": 2,
      "note": 36,
      "start": 42.7866,
      "duration": 0.116,
      "velocity": 127,
      "chip": "ym2612"
    },
    {
      "channel": 3,
      "note": 57,
      "start": 42.9202,
      "duration": 0.1345,
      "velocity": 91,
      "chip": "ym2612"
    },
    {
      "channel": 4,
      "note": 52,
      "start": 42.921,
      "duration": 0.1345,
      "velocity": 101,
      "chip": "ym2612"
    },
    {
      "channel": 2,
      "note": 36,
      "start": 42.9219,
      "duration": 0.1159,
      "velocity": 127,
      "chip": "ym2612"
    },
    {
      "channel": 3,
      "note": 57,
      "start": 43.0554,
      "duration": 0.1348,
      "velocity": 91,
      "chip": "ym2612"
    },
    {
      "channel": 4,
      "note": 49,
      "start": 43.0561,
      "duration": 0.1348,
      "velocity": 101,
      "chip": "ym2612"
    },
    {
      "channel": 2,
      "note": 72,
      "start": 43.0569,
      "duration": 0.1303,
      "velocity": 120,
      "chip": "ym2612"
    },
    {
      "channel": 3,
      "note": 57,
      "start": 43.1907,
      "duration": 0.1366,
      "velocity": 91,
      "chip": "ym2612"
    },
    {
      "channel": 4,
      "note": 45,
      "start": 43.1914,
      "duration": 0.1372,
      "velocity": 101,
      "chip": "ym2612"
    },
    {
      "channel": 2,
      "note": 72,
      "start": 43.1923,
      "duration": 0.1303,
      "velocity": 120,
      "chip": "ym2612"
    },
    {
      "channel": 0,
      "note": 83,
      "start": 43.3261,
      "duration": 1.0829,
      "velocity": 97,
      "chip": "ym2612"
    },
    {
      "channel": 1,
      "note": 79,
      "start": 43.327,
      "duration": 1.0828,
      "velocity": 96,
      "chip": "ym2612"
    },
    {
      "channel": 3,
      "note": 55,
      "start": 43.3279,
      "duration": 0.1311,
      "velocity": 91,
      "chip": "ym2612"
    },
    {
      "channel": 4,
      "note": 43,
      "start": 43.3292,
      "duration": 0.1305,
      "velocity": 101,
      "chip": "ym2612"
    },
    {
      "channel": 2,
      "note": 36,
      "start": 43.3302,
      "duration": 0.1147,
      "velocity": 127,
      "chip": "ym2612"
    },
    {
      "channel": 5,
      "note": 83,
      "start": 43.37,
      "duration": 1.0826,
      "velocity": 92,
      "chip": "ym2612"
    },
    {
      "channel": 3,
      "note": 55,
      "start": 43.4596,
      "duration": 0.1376,
      "velocity": 91,
      "chip": "ym2612"
    },
    {
      "channel": 4,
      "note": 43,
      "start": 43.4603,
      "duration": 0.1377,
      "velocity": 101,
      "chip": "ym2612"
    },
    {
      "channel": 3,
      "note": 55,
      "start": 43.5977,
      "duration": 0.1321,
      "velocity": 91,
      "chip": "ym2612"
    },
    {
      "channel": 4,
      "note": 43,
      "start": 43.5985,
      "duration": 0.1321,
      "velocity": 101,
      "chip": "ym2612"
    },
    {
      "channel": 2,
      "note": 72,
      "start": 43.5997,
      "duration": 0.2369,
      "velocity": 120,
      "chip": "ym2612"
    },
    {
      "channel": 3,
      "note": 55,
      "start": 43.7304,
      "duration": 0.138,
      "velocity": 91,
      "chip": "ym2612"
    },
    {
      "channel": 4,
      "note": 43,
      "start": 43.7311,
      "duration": 0.2736,
      "velocity": 101,
      "chip": "ym2612"
    },
    {
      "channel": 3,
      "note": 55,
      "start": 43.869,
      "duration": 0.1349,
      "velocity": 91,
      "chip": "ym2612"
    },
    {
      "channel": 2,
      "note": 36,
      "start": 43.8707,
      "duration": 0.1161,
      "velocity": 127,
      "chip": "ym2612"
    },
    {
      "channel": 3,
      "note": 55,
      "start": 44.0045,
      "duration": 0.1344,
      "velocity": 91,
      "chip": "ym2612"
    },
    {
      "channel": 4,
      "note": 43,
      "start": 44.0052,
      "duration": 0.2673,
      "velocity": 101,
      "chip": "ym2612"
    },
    {
      "channel": 2,
      "note": 36,
      "start": 44.0064,
      "duration": 0.1158,
      "velocity": 127,
      "chip": "ym2612"
    },
    {
      "channel": 3,
      "note": 55,
      "start": 44.1395,
      "duration": 0.1322,
      "velocity": 91,
      "chip": "ym2612"
    },
    {
      "channel": 2,
      "note": 72,
      "start": 44.1411,
      "duration": 0.237,
      "velocity": 120,
      "chip": "ym2612"
    },
    {
      "channel": 3,
      "note": 55,
      "start": 44.2723,
      "duration": 0.1384,
      "velocity": 91,
      "chip": "ym2612"
    },
    {
      "channel": 4,
      "note": 43,
      "start": 44.2729,
      "duration": 0.1385,
      "velocity": 101,
      "chip": "ym2612"
    },
    {
      "channel": 0,
      "note": 83,
      "start": 44.4097,
      "duration": 0.27,
      "velocity": 97,
      "chip": "ym2612"
    },
    {
      "channel": 1,
      "note": 83,
      "start": 44.4105,
      "duration": 0.2702,
      "velocity": 96,
      "chip": "ym2612"
    },
    {
      "channel": 3,
      "note": 55,
      "start": 44.4113,
      "duration": 0.1312,
      "velocity": 91,
      "chip": "ym2612"
    },
    {
      "channel": 4,
      "note": 43,
      "start": 44.412,
      "duration": 0.1312,
      "velocity": 101,
      "chip": "ym2612"
    },
    {
      "channel": 2,
      "note": 36,
      "start": 44.4133,
      "duration": 0.115,
      "velocity": 127,
      "chip": "ym2612"
    },
    {
      "channel": 5,
      "note": 83,
      "start": 44.4533,
      "duration": 0.2702,
      "velocity": 92,
      "chip": "ym2612"
    },
    {
      "channel": 3,
      "note": 55,
      "start": 44.543,
      "duration": 0.1384,
      "velocity": 91,
      "chip": "ym2612"
    },
    {
      "channel": 4,
      "note": 43,
      "start": 44.5437,
      "duration": 0.1385,
      "velocity": 101,
      "chip": "ym2612"
    },
    {
      "channel": 0,
      "note": 85,
      "start": 44.6804,
      "duration": 0.541,
      "velocity": 97,
      "chip": "ym2612"
    },
    {
      "channel": 1,
      "note": 81,
      "start": 44.6812,
      "duration": 0.5411,
      "velocity": 96,
      "chip": "ym2612"
    },
    {
      "channel": 3,
      "note": 55,
      "start": 44.6821,
      "duration": 0.1312,
      "velocity": 91,
      "chip": "ym2612"
    },
    {
      "channel": 4,
      "note": 43,
      "start": 44.6828,
      "duration": 0.1313,
      "velocity": 101,
      "chip": "ym2612"
    },
    {
      "channel": 2,
      "note": 72,
      "start": 44.6844,
      "duration": 0.2355,
      "velocity": 120,
      "chip": "ym2612"
    },
    {
      "channel": 5,
      "note": 85,
      "start": 44.7243,
      "duration": 0.541,
      "velocity": 92,
      "chip": "ym2612"
    },
    {
      "channel": 3,
      "note": 55,
      "start": 44.8139,
      "duration": 0.138,
      "velocity": 91,
      "chip": "ym2612"
    },
    {
      "channel": 4,
      "note": 43,
      "start": 44.8146,
      "duration": 0.2735,
      "velocity": 101,
      "chip": "ym2612"
    },
    {
      "channel": 3,
      "note": 55,
      "start": 44.9525,
      "duration": 0.1349,
      "velocity": 91,
      "chip": "ym2612"
    },
    {
      "channel": 2,
      "note": 36,
      "start": 44.9541,
      "duration": 0.116,
      "velocity": 127,
      "chip": "ym2612"
    },
    {
      "channel": 3,
      "note": 55,
      "start": 45.0879,
      "duration": 0.1352,
      "velocity": 91,
      "chip": "ym2612"
    },
    {
      "channel": 4,
      "note": 43,
      "start": 45.0886,
      "duration": 0.2672,
      "velocity": 101,
      "chip": "ym2612"
    },
    {
      "channel": 2,
      "note": 36,
      "start": 45.0898,
      "duration": 0.1159,
      "velocity": 127,
      "chip": "ym2612"
    },
    {
      "channel": 0,
      "note": 86,
      "start": 45.2222,
      "duration": 0.2702,
      "velocity": 97,
      "chip": "ym2612"
    },
    {
      "channel": 1,
      "note": 79,
      "start": 45.2229,
      "duration": 0.2703,
      "velocity": 96,
      "chip": "ym2612"
    },
    {
      "channel": 3,
      "note": 55,
      "start": 45.2237,
      "duration": 0.1312,
      "velocity": 91,
      "chip": "ym2612"
    },
    {
      "channel": 2,
      "note": 72,
      "start": 45.2254,
      "duration": 0.2361,
      "velocity": 120,
      "chip": "ym2612"
    },
    {
      "channel": 5,
      "note": 86,
      "start": 45.2659,
      "duration": 0.2702,
      "velocity": 92,
      "chip": "ym2612"
    },
    {
      "channel": 3,
      "note": 55,
      "start": 45.3556,
      "duration": 0.1385,
      "velocity": 91,
      "chip": "ym2612"
    },
    {
      "channel": 4,
      "note": 43,
      "start": 45.3562,
      "duration": 0.1387,
      "velocity": 101,
      "chip": "ym2612"
    },
    {
      "channel": 0,
      "note": 85,
      "start": 45.4931,
      "duration": 1.3534,
      "velocity": 97,
      "chip": "ym2612"
    },
    {
      "channel": 1,
      "note": 85,
      "start": 45.4939,
      "duration": 1.3536,
      "velocity": 96,
      "chip": "ym2612"
    },
    {
      "channel": 3,
      "note": 57,
      "start": 45.4947,
      "duration": 0.1312,
      "velocity": 91,
      "chip": "ym2612"
    },
    {
      "channel": 4,
      "note": 45,
      "start": 45.4954,
      "duration": 0.1312,
      "velocity": 101,
      "chip": "ym2612"
    },
    {
      "channel": 2,
      "note": 36,
      "start": 45.4967,
      "duration": 0.1151,
      "velocity": 127,
      "chip": "ym2612"
    },
    {
      "channel": 5,
      "note": 85,
      "start": 45.5368,
      "duration": 1.3535,
      "velocity": 92,
      "chip": "ym2612"
    },
    {
      "channel": 3,
      "note": 57,
      "start": 45.6266,
      "duration": 0.1375,
      "velocity": 91,
      "chip": "ym2612"
    },
    {
      "channel": 4,
      "note": 45,
      "start": 45.6273,
      "duration": 0.1376,
      "velocity": 101,
      "chip": "ym2612"
    },
    {
      "channel": 3,
      "note": 57,
      "start": 45.7647,
      "duration": 0.132,
      "velocity": 91,
      "chip": "ym2612"
    },
    {
      "channel": 4,
      "note": 45,
      "start": 45.7654,
      "duration": 0.1321,
      "velocity": 101,
      "chip": "ym2612"
    },
    {
      "channel": 2,
      "note": 72,
      "start": 45.7666,
      "duration": 0.2366,
      "velocity": 120,
      "chip": "ym2612"
    },
    {
      "channel": 3,
      "note": 57,
      "start": 45.8973,
      "duration": 0.1382,
      "velocity": 91,
      "chip": "ym2612"
    },
    {
      "channel": 4,
      "note": 45,
      "start": 45.898,
      "duration": 0.2735,
      "velocity": 101,
      "chip": "ym2612"
    },
    {
      "channel": 3,
      "note": 57,
      "start": 46.0361,
      "duration": 0.1347,
      "velocity": 91,
      "chip": "ym2612"
    },
    {
      "channel": 2,
      "note": 36,
      "start": 46.0378,
      "duration": 0.1159,
      "velocity": 127,
      "chip": "ym2612"
    },
    {
      "channel": 3,
      "note": 57,
      "start": 46.1714,
      "duration": 0.1344,
      "velocity": 91,
      "chip": "ym2612"
    },
    {
      "channel": 4,
      "note": 45,
      "start": 46.172,
      "duration": 0.2672,
      "velocity": 101,
      "chip": "ym2612"
    },
    {
      "channel": 2,
      "note": 36,
      "start": 46.1733,
      "duration": 0.1159,
      "velocity": 127,
      "chip": "ym2612"
    },
    {
      "channel": 3,
      "note": 57,
      "start": 46.3064,
      "duration": 0.1321,
      "velocity": 91,
      "chip": "ym2612"
    },
    {
      "channel": 2,
      "note": 72,
      "start": 46.308,
      "duration": 0.2369,
      "velocity": 120,
      "chip": "ym2612"
    },
    {
      "channel": 3,
      "note": 57,
      "start": 46.4391,
      "duration": 0.1378,
      "velocity": 91,
      "chip": "ym2612"
    },
    {
      "channel": 4,
      "note": 45,
      "start": 46.4397,
      "duration": 0.138,
      "velocity": 101,
      "chip": "ym2612"
    },
    {
      "channel": 3,
      "note": 57,
      "start": 46.5776,
      "duration": 0.1317,
      "velocity": 91,
      "chip": "ym2612"
    },
    {
      "channel": 4,
      "note": 45,
      "start": 46.5783,
      "duration": 0.1318,
      "velocity": 101,
      "chip": "ym2612"
    },
    {
      "channel": 2,
      "note": 36,
      "start": 46.5795,
      "duration": 0.1158,
      "velocity": 127,
      "chip": "ym2612"
    },
    {
      "channel": 3,
      "note": 57,
      "start": 46.71,
      "duration": 0.1383,
      "velocity": 91,
      "chip": "ym2612"
    },
    {
      "channel": 4,
      "note": 45,
      "start": 46.7107,
      "duration": 0.1383,
      "velocity": 101,
      "chip": "ym2612"
    },
    {
      "channel": 0,
      "note": 86,
      "start": 46.8472,
      "duration": 0.5411,
      "velocity": 97,
      "chip": "ym2612"
    },
    {
      "channel": 1,
      "note": 83,
      "start": 46.848,
      "duration": 0.5412,
      "velocity": 96,
      "chip": "ym2612"
    },
    {
      "channel": 3,
      "note": 57,
      "start": 46.8489,
      "duration": 0.1313,
      "velocity": 91,
      "chip": "ym2612"
    },
    {
      "channel": 4,
      "note": 45,
      "start": 46.8496,
      "duration": 0.1314,
      "velocity": 101,
      "chip": "ym2612"
    },
    {
      "channel": 2,
      "note": 72,
      "start": 46.8512,
      "duration": 0.2354,
      "velocity": 120,
      "chip": "ym2612"
    },
    {
      "channel": 5,
      "note": 86,
      "start": 46.8911,
      "duration": 0.5411,
      "velocity": 92,
      "chip": "ym2612"
    },
    {
      "channel": 3,
      "note": 57,
      "start": 46.9807,
      "duration": 0.138,
      "velocity": 91,
      "chip": "ym2612"
    },
    {
      "channel": 4,
      "note": 45,
      "start": 46.9815,
      "duration": 0.2735,
      "velocity": 101,
      "chip": "ym2612"
    },
    {
      "channel": 3,
      "note": 57,
      "start": 47.1194,
      "duration": 0.1349,
      "velocity": 91,
      "chip": "ym2612"
    },
    {
      "channel": 2,
      "note": 36,
      "start": 47.121,
      "duration": 0.1161,
      "velocity": 127,
      "chip": "ym2612"
    },
    {
      "channel": 3,
      "note": 57,
      "start": 47.2549,
      "duration": 0.1352,
      "velocity": 91,
      "chip": "ym2612"
    },
    {
      "channel": 4,
      "note": 45,
      "start": 47.2555,
      "duration": 0.2672,
      "velocity": 101,
      "chip": "ym2612"
    },
    {
      "channel": 2,
      "note": 36,
      "start": 47.2568,
      "duration": 0.1159,
      "velocity": 127,
      "chip": "ym2612"
    },
    {
      "channel": 0,
      "note": 88,
      "start": 47.389,
      "duration": 0.2702,
      "velocity": 97,
      "chip": "ym2612"
    },
    {
      "channel": 1,
      "note": 81,
      "start": 47.3898,
      "duration": 0.2704,
      "velocity": 96,
      "chip": "ym2612"
    },
    {
      "channel": 3,
      "note": 57,
      "start": 47.3907,
      "duration": 0.1312,
      "velocity": 91,
      "chip": "ym2612"
    },
    {
      "channel": 2,
      "note": 72,
      "start": 47.3923,
      "duration": 0.2361,
      "velocity": 120,
      "chip": "ym2612"
    },
    {
      "channel": 5,
      "note": 88,
      "start": 47.4329,
      "duration": 0.2701,
      "velocity": 92,
      "chip": "ym2612"
    },
    {
      "channel": 3,
      "note": 57,
      "start": 47.5225,
      "duration": 0.1388,
      "velocity": 91,
      "chip": "ym2612"
    },
    {
      "channel": 4,
      "note": 45,
      "start": 47.5231,
      "duration": 0.1389,
      "velocity": 101,
      "chip": "ym2612"
    },
    {
      "channel": 0,
      "note": 86,
      "start": 47.66,
      "duration": 4.3331,
      "velocity": 97,
      "chip": "ym2612"
    },
    {
      "channel": 1,
      "note": 86,
      "start": 47.6608,
      "duration": 1.3531,
      "velocity": 96,
      "chip": "ym2612"
    },
    {
      "channel": 3,
      "note": 59,
      "start": 47.6619,
      "duration": 0.1309,
      "velocity": 91,
      "chip": "ym2612"
    },
    {
      "channel": 4,
      "note": 47,
      "start": 47.6627,
      "duration": 0.1308,
      "velocity": 101,
      "chip": "ym2612"
    },
    {
      "channel": 2,
      "note": 36,
      "start": 47.6639,
      "duration": 0.1147,
      "velocity": 127,
      "chip": "ym2612"
    },
    {
      "channel": 5,
      "note": 86,
      "start": 47.7037,
      "duration": 4.3331,
      "velocity": 92,
      "chip": "ym2612"
    },
    {
      "channel": 3,
      "note": 59,
      "start": 47.7934,
      "duration": 0.1376,
      "velocity": 91,
      "chip": "ym2612"
    },
    {
      "channel": 4,
      "note": 47,
      "start": 47.794,
      "duration": 0.1377,
      "velocity": 101,
      "chip": "ym2612"
    },
    {
      "channel": 3,
      "note": 59,
      "start": 47.9315,
      "duration": 0.1319,
      "velocity": 91,
      "chip": "ym2612"
    },
    {
      "channel": 4,
      "note": 47,
      "start": 47.9323,
      "duration": 0.132,
      "velocity": 101,
      "chip": "ym2612"
    },
    {
      "channel": 2,
      "note": 72,
      "start": 47.9335,
      "duration": 0.2366,
      "velocity": 120,
      "chip": "ym2612"
    },
    {
      "channel": 3,
      "note": 59,
      "start": 48.064,
      "duration": 0.1382,
      "velocity": 91,
      "chip": "ym2612"
    },
    {
      "channel": 4,
      "note": 47,
      "start": 48.0648,
      "duration": 0.2735,
      "velocity": 101,
      "chip": "ym2612"
    },
    {
      "channel": 3,
      "note": 59,
      "start": 48.2028,
      "duration": 0.1347,
      "velocity": 91,
      "chip": "ym2612"
    },
    {
      "channel": 2,
      "note": 36,
      "start": 48.2045,
      "duration": 0.116,
      "velocity": 127,
      "chip": "ym2612"
    },
    {
      "channel": 3,
      "note": 59,
      "start": 48.3381,
      "duration": 0.1346,
      "velocity": 91,
      "chip": "ym2612"
    },
    {
      "channel": 4,
      "note": 47,
      "start": 48.3388,
      "duration": 0.2672,
      "velocity": 101,
      "chip": "ym2612"
    },
    {
      "channel": 2,
      "note": 36,
      "start": 48.34,
      "duration": 0.116,
      "velocity": 127,
      "chip": "ym2612"
    },
    {
      "channel": 3,
      "note": 59,
      "start": 48.4733,
      "duration": 0.1319,
      "velocity": 91,
      "chip": "ym2612"
    },
    {
      "channel": 2,
      "note": 72,
      "start": 48.4749,
      "duration": 0.237,
      "velocity": 120,
      "chip": "ym2612"
    },
    {
      "channel": 3,
      "note": 59,
      "start": 48.6058,
      "duration": 0.1379,
      "velocity": 91,
      "chip": "ym2612"
    },
    {
      "channel": 4,
      "note": 47,
      "start": 48.6064,
      "duration": 0.138,
      "velocity": 101,
      "chip": "ym2612"
    },
    {
      "channel": 3,
      "note": 59,
      "start": 48.7442,
      "duration": 0.1319,
      "velocity": 91,
      "chip": "ym2612"
    },
    {
      "channel": 4,
      "note": 47,
      "start": 48.7451,
      "duration": 0.1317,
      "velocity": 101,
      "chip": "ym2612"
    },
    {
      "channel": 2,
      "note": 36,
      "start": 48.7464,
      "duration": 0.1159,
      "velocity": 127,
      "chip": "ym2612"
    },
    {
      "channel": 3,
      "note": 59,
      "start": 48.8767,
      "duration": 0.1381,
      "velocity": 91,
      "chip": "ym2612"
    },
    {
      "channel": 4,
      "note": 47,
      "start": 48.8774,
      "duration": 0.1382,
      "velocity": 101,
      "chip": "ym2612"
    },
    {
      "channel": 1,
      "note": 85,
      "start": 49.0145,
      "duration": 0.5412,
      "velocity": 96,
      "chip": "ym2612"
    },
    {
      "channel": 3,
      "note": 59,
      "start": 49.0154,
      "duration": 0.1315,
      "velocity": 91,
      "chip": "ym2612"
    },
    {
      "channel": 4,
      "note": 47,
      "start": 49.0161,
      "duration": 0.1316,
      "velocity": 101,
      "chip": "ym2612"
    },
    {
      "channel": 2,
      "note": 72,
      "start": 49.0178,
      "duration": 0.2357,
      "velocity": 120,
      "chip": "ym2612"
    },
    {
      "channel": 3,
      "note": 59,
      "start": 49.1476,
      "duration": 0.1382,
      "velocity": 91,
      "chip": "ym2612"
    },
    {
      "channel": 4,
      "note": 47,
      "start": 49.1483,
      "duration": 0.2734,
      "velocity": 101,
      "chip": "ym2612"
    },
    {
      "channel": 3,
      "note": 59,
      "start": 49.2863,
      "duration": 0.1347,
      "velocity": 91,
      "chip": "ym2612"
    },
    {
      "channel": 2,
      "note": 36,
      "start": 49.2879,
      "duration": 0.1161,
      "velocity": 127,
      "chip": "ym2612"
    },
    {
      "channel": 3,
      "note": 59,
      "start": 49.4216,
      "duration": 0.1351,
      "velocity": 91,
      "chip": "ym2612"
    },
    {
      "channel": 4,
      "note": 47,
      "start": 49.4222,
      "duration": 0.2673,
      "velocity": 101,
      "chip": "ym2612"
    },
    {
      "channel": 2,
      "note": 36,
      "start": 49.4235,
      "duration": 0.1159,
      "velocity": 127,
      "chip": "ym2612"
    },
    {
      "channel": 1,
      "note": 83,
      "start": 49.5564,
      "duration": 0.2705,
      "velocity": 96,
      "chip": "ym2612"
    },
    {
      "channel": 3,
      "note": 59,
      "start": 49.5573,
      "duration": 0.1314,
      "velocity": 91,
      "chip": "ym2612"
    },
    {
      "channel": 2,
      "note": 72,
      "start": 49.5589,
      "duration": 0.2363,
      "velocity": 120,
      "chip": "ym2612"
    },
    {
      "channel": 3,
      "note": 59,
      "start": 49.6893,
      "duration": 0.1384,
      "velocity": 91,
      "chip": "ym2612"
    },
    {
      "channel": 4,
      "note": 47,
      "start": 49.6899,
      "duration": 0.1387,
      "velocity": 101,
      "chip": "ym2612"
    },
    {
      "channel": 1,
      "note": 90,
      "start": 49.8275,
      "duration": 1.3532,
      "velocity": 96,
      "chip": "ym2612"
    },
    {
      "channel": 3,
      "note": 59,
      "start": 49.8283,
      "duration": 0.1312,
      "velocity": 91,
      "chip": "ym2612"
    },
    {
      "channel": 4,
      "note": 47,
      "start": 49.8292,
      "duration": 0.1311,
      "velocity": 101,
      "chip": "ym2612"
    },
    {
      "channel": 2,
      "note": 36,
      "start": 49.8305,
      "duration": 0.1153,
      "velocity": 127,
      "chip": "ym2612"
    },
    {
      "channel": 3,
      "note": 59,
      "start": 49.9601,
      "duration": 0.1377,
      "velocity": 91,
      "chip": "ym2612"
    },
    {
      "channel": 4,
      "note": 47,
      "start": 49.9608,
      "duration": 0.1377,
      "velocity": 101,
      "chip": "ym2612"
    },
    {
      "channel": 3,
      "note": 59,
      "start": 50.0984,
      "duration": 0.1321,
      "velocity": 91,
      "chip": "ym2612"
    },
    {
      "channel": 4,
      "note": 47,
      "start": 50.0991,
      "duration": 0.1321,
      "velocity": 101,
      "chip": "ym2612"
    },
    {
      "channel": 2,
      "note": 72,
      "start": 50.1005,
      "duration": 0.2366,
      "velocity": 120,
      "chip": "ym2612"
    },
    {
      "channel": 3,
      "note": 59,
      "start": 50.231,
      "duration": 0.1381,
      "velocity": 91,
      "chip": "ym2612"
    },
    {
      "channel": 4,
      "note": 47,
      "start": 50.2318,
      "duration": 0.2734,
      "velocity": 101,
      "chip": "ym2612"
    },
    {
      "channel": 3,
      "note": 59,
      "start": 50.3697,
      "duration": 0.1347,
      "velocity": 91,
      "chip": "ym2612"
    },
    {
      "channel": 2,
      "note": 36,
      "start": 50.3713,
      "duration": 0.1161,
      "velocity": 127,
      "chip": "ym2612"
    },
    {
      "channel": 3,
      "note": 59,
      "start": 50.505,
      "duration": 0.1346,
      "velocity": 91,
      "chip": "ym2612"
    },
    {
      "channel": 4,
      "note": 47,
      "start": 50.5056,
      "duration": 0.2672,
      "velocity": 101,
      "chip": "ym2612"
    },
    {
      "channel": 2,
      "note": 36,
      "start": 50.507,
      "duration": 0.1159,
      "velocity": 127,
      "chip": "ym2612"
    },
    {
      "channel": 3,
      "note": 59,
      "start": 50.6402,
      "duration": 0.132,
      "velocity": 91,
      "chip": "ym2612"
    },
    {
      "channel": 2,
      "note": 72,
      "start": 50.6417,
      "duration": 0.237,
      "velocity": 120,
      "chip": "ym2612"
    },
    {
      "channel": 3,
      "note": 59,
      "start": 50.7727,
      "duration": 0.1378,
      "velocity": 91,
      "chip": "ym2612"
    },
    {
      "channel": 4,
      "note": 47,
      "start": 50.7733,
      "duration": 0.138,
      "velocity": 101,
      "chip": "ym2612"
    },
    {
      "channel": 3,
      "note": 59,
      "start": 50.911,
      "duration": 0.132,
      "velocity": 91,
      "chip": "ym2612"
    },
    {
      "channel": 4,
      "note": 47,
      "start": 50.9119,
      "duration": 0.1319,
      "velocity": 101,
      "chip": "ym2612"
    },
    {
      "channel": 2,
      "note": 36,
      "start": 50.9132,
      "duration": 0.116,
      "velocity": 127,
      "chip": "ym2612"
    },
    {
      "channel": 3,
      "note": 59,
      "start": 51.0435,
      "duration": 0.1381,
      "velocity": 91,
      "chip": "ym2612"
    },
    {
      "channel": 4,
      "note": 47,
      "start": 51.0443,
      "duration": 0.1381,
      "velocity": 101,
      "chip": "ym2612"
    },
    {
      "channel": 1,
      "note": 88,
      "start": 51.1814,
      "duration": 0.5411,
      "velocity": 96,
      "chip": "ym2612"
    },
    {
      "channel": 3,
      "note": 59,
      "start": 51.1823,
      "duration": 0.1317,
      "velocity": 91,
      "chip": "ym2612"
    },
    {
      "channel": 4,
      "note": 47,
      "start": 51.183,
      "duration": 0.1317,
      "velocity": 101,
      "chip": "ym2612"
    },
    {
      "channel": 2,
      "note": 72,
      "start": 51.1846,
      "duration": 0.2358,
      "velocity": 120,
      "chip": "ym2612"
    },
    {
      "channel": 3,
      "note": 59,
      "start": 51.3145,
      "duration": 0.138,
      "velocity": 91,
      "chip": "ym2612"
    },
    {
      "channel": 4,
      "note": 47,
      "start": 51.3153,
      "duration": 0.2733,
      "velocity": 101,
      "chip": "ym2612"
    },
    {
      "channel": 3,
      "note": 59,
      "start": 51.4532,
      "duration": 0.1346,
      "velocity": 91,
      "chip": "ym2612"
    },
    {
      "channel": 2,
      "note": 36,
      "start": 51.4549,
      "duration": 0.116,
      "velocity": 127,
      "chip": "ym2612"
    },
    {
      "channel": 3,
      "note": 59,
      "start": 51.5885,
      "duration": 0.1349,
      "velocity": 91,
      "chip": "ym2612"
    },
    {
      "channel": 4,
      "note": 47,
      "start": 51.589,
      "duration": 0.2672,
      "velocity": 101,
      "chip": "ym2612"
    },
    {
      "channel": 2,
      "note": 36,
      "start": 51.5904,
      "duration": 0.1161,
      "velocity": 127,
      "chip": "ym2612"
    },
    {
      "channel": 1,
      "note": 86,
      "start": 51.7231,
      "duration": 0.2709,
      "velocity": 96,
      "chip": "ym2612"
    },
    {
      "channel": 3,
      "note": 59,
      "start": 51.724,
      "duration": 0.1315,
      "velocity": 91,
      "chip": "ym2612"
    },
    {
      "channel": 2,
      "note": 72,
      "start": 51.7255,
      "duration": 0.2366,
      "velocity": 120,
      "chip": "ym2612"
    },
    {
      "channel": 3,
      "note": 59,
      "start": 51.8561,
      "duration": 0.1388,
      "velocity": 91,
      "chip": "ym2612"
    },
    {
      "channel": 4,
      "note": 47,
      "start": 51.8567,
      "duration": 0.1392,
      "velocity": 101,
      "chip": "ym2612"
    },
    {
      "channel": 0,
      "note": 83,
      "start": 51.9938,
      "duration": 1.0829,
      "velocity": 97,
      "chip": "ym2612"
    },
    {
      "channel": 1,
      "note": 79,
      "start": 51.9946,
      "duration": 1.0829,
      "velocity": 96,
      "chip": "ym2612"
    },
    {
      "channel": 3,
      "note": 55,
      "start": 51.9956,
      "duration": 0.131,
      "velocity": 91,
      "chip": "ym2612"
    },
    {
      "channel": 4,
      "note": 43,
      "start": 51.9965,
      "duration": 0.1309,
      "velocity": 101,
      "chip": "ym2612"
    },
    {
      "channel": 2,
      "note": 36,
      "start": 51.9978,
      "duration": 0.1146,
      "velocity": 127,
      "chip": "ym2612"
    },
    {
      "channel": 5,
      "note": 83,
      "start": 52.0374,
      "duration": 1.0827,
      "velocity": 92,
      "chip": "ym2612"
    },
    {
      "channel": 3,
      "note": 55,
      "start": 52.1271,
      "duration": 0.1376,
      "velocity": 91,
      "chip": "ym2612"
    },
    {
      "channel": 4,
      "note": 43,
      "start": 52.1279,
      "duration": 0.1376,
      "velocity": 101,
      "chip": "ym2612"
    },
    {
      "channel": 3,
      "note": 55,
      "start": 52.2653,
      "duration": 0.1321,
      "velocity": 91,
      "chip": "ym2612"
    },
    {
      "channel": 4,
      "note": 43,
      "start": 52.2661,
      "duration": 0.1321,
      "velocity": 101,
      "chip": "ym2612"
    },
    {
      "channel": 2,
      "note": 72,
      "start": 52.2676,
      "duration": 0.2361,
      "velocity": 120,
      "chip": "ym2612"
    },
    {
      "channel": 3,
      "note": 55,
      "start": 52.398,
      "duration": 0.138,
      "velocity": 91,
      "chip": "ym2612"
    },
    {
      "channel": 4,
      "note": 43,
      "start": 52.3987,
      "duration": 0.2735,
      "velocity": 101,
      "chip": "ym2612"
    },
    {
      "channel": 3,
      "note": 55,
      "start": 52.5366,
      "duration": 0.1348,
      "velocity": 91,
      "chip": "ym2612"
    },
    {
      "channel": 2,
      "note": 36,
      "start": 52.5383,
      "duration": 0.116,
      "velocity": 127,
      "chip": "ym2612"
    },
    {
      "channel": 3,
      "note": 55,
      "start": 52.672,
      "duration": 0.1345,
      "velocity": 91,
      "chip": "ym2612"
    },
    {
      "channel": 4,
      "note": 43,
      "start": 52.6726,
      "duration": 0.2672,
      "velocity": 101,
      "chip": "ym2612"
    },
    {
      "channel": 2,
      "note": 36,
      "start": 52.6739,
      "duration": 0.1159,
      "velocity": 127,
      "chip": "ym2612"
    },
    {
      "channel": 3,
      "note": 55,
      "start": 52.8071,
      "duration": 0.132,
      "velocity": 91,
      "chip": "ym2612"
    },
    {
      "channel": 2,
      "note": 72,
      "start": 52.8086,
      "duration": 0.237,
      "velocity": 120,
      "chip": "ym2612"
    },
    {
      "channel": 3,
      "note": 55,
      "start": 52.9397,
      "duration": 0.1387,
      "velocity": 91,
      "chip": "ym2612"
    },
    {
      "channel": 4,
      "note": 43,
      "start": 52.9403,
      "duration": 0.1388,
      "velocity": 101,
      "chip": "ym2612"
    },
    {
      "channel": 0,
      "note": 83,
      "start": 53.0774,
      "duration": 0.2699,
      "velocity": 97,
      "chip": "ym2612"
    },
    {
      "channel": 1,
      "note": 83,
      "start": 53.0781,
      "duration": 0.2699,
      "velocity": 96,
      "chip": "ym2612"
    },
    {
      "channel": 3,
      "note": 55,
      "start": 53.079,
      "duration": 0.1309,
      "velocity": 91,
      "chip": "ym2612"
    },
    {
      "channel": 4,
      "note": 43,
      "start": 53.0797,
      "duration": 0.131,
      "velocity": 101,
      "chip": "ym2612"
    },
    {
      "channel": 2,
      "note": 36,
      "start": 53.081,
      "duration": 0.1149,
      "velocity": 127,
      "chip": "ym2612"
    },
    {
      "channel": 5,
      "note": 83,
      "start": 53.1208,
      "duration": 0.2702,
      "velocity": 92,
      "chip": "ym2612"
    },
    {
      "channel": 3,
      "note": 55,
      "start": 53.2105,
      "duration": 0.1385,
      "velocity": 91,
      "chip": "ym2612"
    },
    {
      "channel": 4,
      "note": 43,
      "start": 53.2112,
      "duration": 0.1384,
      "velocity": 101,
      "chip": "ym2612"
    },
    {
      "channel": 0,
      "note": 85,
      "start": 53.3479,
      "duration": 0.541,
      "velocity": 97,
      "chip": "ym2612"
    },
    {
      "channel": 1,
      "note": 81,
      "start": 53.3487,
      "duration": 0.5411,
      "velocity": 96,
      "chip": "ym2612"
    },
    {
      "channel": 3,
      "note": 55,
      "start": 53.3495,
      "duration": 0.1312,
      "velocity": 91,
      "chip": "ym2612"
    },
    {
      "channel": 4,
      "note": 43,
      "start": 53.3502,
      "duration": 0.1313,
      "velocity": 101,
      "chip": "ym2612"
    },
    {
      "channel": 2,
      "note": 72,
      "start": 53.3519,
      "duration": 0.2354,
      "velocity": 120,
      "chip": "ym2612"
    },
    {
      "channel": 5,
      "note": 85,
      "start": 53.3917,
      "duration": 0.541,
      "velocity": 92,
      "chip": "ym2612"
    },
    {
      "channel": 3,
      "note": 55,
      "start": 53.4813,
      "duration": 0.1382,
      "velocity": 91,
      "chip": "ym2612"
    },
    {
      "channel": 4,
      "note": 43,
      "start": 53.4821,
      "duration": 0.2735,
      "velocity": 101,
      "chip": "ym2612"
    },
    {
      "channel": 3,
      "note": 55,
      "start": 53.6201,
      "duration": 0.1348,
      "velocity": 91,
      "chip": "ym2612"
    },
    {
      "channel": 2,
      "note": 36,
      "start": 53.6217,
      "duration": 0.116,
      "velocity": 127,
      "chip": "ym2612"
    },
    {
      "channel": 3,
      "note": 55,
      "start": 53.7554,
      "duration": 0.1352,
      "velocity": 91,
      "chip": "ym2612"
    },
    {
      "channel": 4,
      "note": 43,
      "start": 53.756,
      "duration": 0.2673,
      "velocity": 101,
      "chip": "ym2612"
    },
    {
      "channel": 2,
      "note": 36,
      "start": 53.7573,
      "duration": 0.1158,
      "velocity": 127,
      "chip": "ym2612"
    },
    {
      "channel": 0,
      "note": 86,
      "start": 53.8896,
      "duration": 0.2703,
      "velocity": 97,
      "chip": "ym2612"
    },
    {
      "channel": 1,
      "note": 79,
      "start": 53.8904,
      "duration": 0.2703,
      "velocity": 96,
      "chip": "ym2612"
    },
    {
      "channel": 3,
      "note": 55,
      "start": 53.8912,
      "duration": 0.1314,
      "velocity": 91,
      "chip": "ym2612"
    },
    {
      "channel": 2,
      "note": 72,
      "start": 53.8928,
      "duration": 0.2362,
      "velocity": 120,
      "chip": "ym2612"
    },
    {
      "channel": 5,
      "note": 86,
      "start": 53.9335,
      "duration": 0.2702,
      "velocity": 92,
      "chip": "ym2612"
    },
    {
      "channel": 3,
      "note": 55,
      "start": 54.0231,
      "duration": 0.1385,
      "velocity": 91,
      "chip": "ym2612"
    },
    {
      "channel": 4,
      "note": 43,
      "start": 54.0237,
      "duration": 0.1386,
      "velocity": 101,
      "chip": "ym2612"
    },
    {
      "channel": 0,
      "note": 85,
      "start": 54.1606,
      "duration": 1.3536,
      "velocity": 97,
      "chip": "ym2612"
    },
    {
      "channel": 1,
      "note": 85,
      "start": 54.1613,
      "duration": 1.3536,
      "velocity": 96,
      "chip": "ym2612"
    },
    {
      "channel": 3,
      "note": 57,
      "start": 54.1622,
      "duration": 0.1312,
      "velocity": 91,
      "chip": "ym2612"
    },
    {
      "channel": 4,
      "note": 45,
      "start": 54.1629,
      "duration": 0.1312,
      "velocity": 101,
      "chip": "ym2612"
    },
    {
      "channel": 2,
      "note": 36,
      "start": 54.1642,
      "duration": 0.1151,
      "velocity": 127,
      "chip": "ym2612"
    },
    {
      "channel": 5,
      "note": 85,
      "start": 54.2044,
      "duration": 1.3536,
      "velocity": 92,
      "chip": "ym2612"
    },
    {
      "channel": 3,
      "note": 57,
      "start": 54.294,
      "duration": 0.1375,
      "velocity": 91,
      "chip": "ym2612"
    },
    {
      "channel": 4,
      "note": 45,
      "start": 54.2947,
      "duration": 0.1375,
      "velocity": 101,
      "chip": "ym2612"
    },
    {
      "channel": 3,
      "note": 57,
      "start": 54.4322,
      "duration": 0.1321,
      "velocity": 91,
      "chip": "ym2612"
    },
    {
      "channel": 4,
      "note": 45,
      "start": 54.4329,
      "duration": 0.1322,
      "velocity": 101,
      "chip": "ym2612"
    },
    {
      "channel": 2,
      "note": 72,
      "start": 54.4345,
      "duration": 0.2361,
      "velocity": 120,
      "chip": "ym2612"
    },
    {
      "channel": 3,
      "note": 57,
      "start": 54.5649,
      "duration": 0.138,
      "velocity": 91,
      "chip": "ym2612"
    },
    {
      "channel": 4,
      "note": 45,
      "start": 54.5656,
      "duration": 0.2737,
      "velocity": 101,
      "chip": "ym2612"
    },
    {
      "channel": 3,
      "note": 57,
      "start": 54.7035,
      "duration": 0.135,
      "velocity": 91,
      "chip": "ym2612"
    },
    {
      "channel": 2,
      "note": 36,
      "start": 54.7051,
      "duration": 0.116,
      "velocity": 127,
      "chip": "ym2612"
    },
    {
      "channel": 3,
      "note": 57,
      "start": 54.8391,
      "duration": 0.1341,
      "velocity": 91,
      "chip": "ym2612"
    },
    {
      "channel": 4,
      "note": 45,
      "start": 54.8397,
      "duration": 0.2669,
      "velocity": 101,
      "chip": "ym2612"
    },
    {
      "channel": 2,
      "note": 36,
      "start": 54.841,
      "duration": 0.1156,
      "velocity": 127,
      "chip": "ym2612"
    },
    {
      "channel": 3,
      "note": 57,
      "start": 54.9739,
      "duration": 0.132,
      "velocity": 91,
      "chip": "ym2612"
    },
    {
      "channel": 2,
      "note": 72,
      "start": 54.9755,
      "duration": 0.237,
      "velocity": 120,
      "chip": "ym2612"
    },
    {
      "channel": 3,
      "note": 57,
      "start": 55.1065,
      "duration": 0.138,
      "velocity": 91,
      "chip": "ym2612"
    },
    {
      "channel": 4,
      "note": 45,
      "start": 55.1071,
      "duration": 0.1382,
      "velocity": 101,
      "chip": "ym2612"
    },
    {
      "channel": 3,
      "note": 57,
      "start": 55.2451,
      "duration": 0.1317,
      "velocity": 91,
      "chip": "ym2612"
    },
    {
      "channel": 4,
      "note": 45,
      "start": 55.2458,
      "duration": 0.1317,
      "velocity": 101,
      "chip": "ym2612"
    },
    {
      "channel": 2,
      "note": 36,
      "start": 55.2471,
      "duration": 0.1158,
      "velocity": 127,
      "chip": "ym2612"
    },
    {
      "channel": 3,
      "note": 57,
      "start": 55.3774,
      "duration": 0.1384,
      "velocity": 91,
      "chip": "ym2612"
    },
    {
      "channel": 4,
      "note": 45,
      "start": 55.3781,
      "duration": 0.1385,
      "velocity": 101,
      "chip": "ym2612"
    },
    {
      "channel": 0,
      "note": 86,
      "start": 55.5149,
      "duration": 0.541,
      "velocity": 97,
      "chip": "ym2612"
    },
    {
      "channel": 1,
      "note": 83,
      "start": 55.5156,
      "duration": 0.5411,
      "velocity": 96,
      "chip": "ym2612"
    },
    {
      "channel": 3,
      "note": 57,
      "start": 55.5164,
      "duration": 0.1312,
      "velocity": 91,
      "chip": "ym2612"
    },
    {
      "channel": 4,
      "note": 45,
      "start": 55.5176,
      "duration": 0.1309,
      "velocity": 101,
      "chip": "ym2612"
    },
    {
      "channel": 2,
      "note": 72,
      "start": 55.5188,
      "duration": 0.2354,
      "velocity": 120,
      "chip": "ym2612"
    },
    {
      "channel": 5,
      "note": 86,
      "start": 55.5586,
      "duration": 0.541,
      "velocity": 92,
      "chip": "ym2612"
    },
    {
      "channel": 3,
      "note": 57,
      "start": 55.6483,
      "duration": 0.138,
      "velocity": 91,
      "chip": "ym2612"
    },
    {
      "channel": 4,
      "note": 45,
      "start": 55.649,
      "duration": 0.2733,
      "velocity": 101,
      "chip": "ym2612"
    },
    {
      "channel": 3,
      "note": 57,
      "start": 55.787,
      "duration": 0.1345,
      "velocity": 91,
      "chip": "ym2612"
    },
    {
      "channel": 2,
      "note": 36,
      "start": 55.7886,
      "duration": 0.1159,
      "velocity": 127,
      "chip": "ym2612"
    },
    {
      "channel": 3,
      "note": 57,
      "start": 55.9221,
      "duration": 0.1354,
      "velocity": 91,
      "chip": "ym2612"
    },
    {
      "channel": 4,
      "note": 45,
      "start": 55.9227,
      "duration": 0.2674,
      "velocity": 101,
      "chip": "ym2612"
    },
    {
      "channel": 2,
      "note": 36,
      "start": 55.924,
      "duration": 0.1161,
      "velocity": 127,
      "chip": "ym2612"
    },
    {
      "channel": 0,
      "note": 88,
      "start": 56.0565,
      "duration": 0.2702,
      "velocity": 97,
      "chip": "ym2612"
    },
    {
      "channel": 1,
      "note": 81,
      "start": 56.0573,
      "duration": 0.2704,
      "velocity": 96,
      "chip": "ym2612"
    },
    {
      "channel": 3,
      "note": 57,
      "start": 56.0582,
      "duration": 0.1312,
      "velocity": 91,
      "chip": "ym2612"
    },
    {
      "channel": 2,
      "note": 72,
      "start": 56.0598,
      "duration": 0.2361,
      "velocity": 120,
      "chip": "ym2612"
    },
    {
      "channel": 5,
      "note": 88,
      "start": 56.1007,
      "duration": 0.2698,
      "velocity": 92,
      "chip": "ym2612"
    },
    {
      "channel": 3,
      "note": 57,
      "start": 56.19,
      "duration": 0.1386,
      "velocity": 91,
      "chip": "ym2612"
    },
    {
      "channel": 4,
      "note": 45,
      "start": 56.1906,
      "duration": 0.1389,
      "velocity": 101,
      "chip": "ym2612"
    },
    {
      "channel": 0,
      "note": 90,
      "start": 56.3274,
      "duration": 3.2498,
      "velocity": 97,
      "chip": "ym2612"
    },
    {
      "channel": 1,
      "note": 82,
      "start": 56.3283,
      "duration": 1.0824,
      "velocity": 96,
      "chip": "ym2612"
    },
    {
      "channel": 3,
      "note": 54,
      "start": 56.3292,
      "duration": 0.1309,
      "velocity": 91,
      "chip": "ym2612"
    },
    {
      "channel": 4,
      "note": 42,
      "start": 56.33,
      "duration": 0.1309,
      "velocity": 101,
      "chip": "ym2612"
    },
    {
      "channel": 2,
      "note": 36,
      "start": 56.3313,
      "duration": 0.1148,
      "velocity": 127,
      "chip": "ym2612"
    },
    {
      "channel": 5,
      "note": 90,
      "start": 56.3712,
      "duration": 3.2496,
      "velocity": 92,
      "chip": "ym2612"
    },
    {
      "channel": 3,
      "note": 54,
      "start": 56.4607,
      "duration": 0.1379,
      "velocity": 91,
      "chip": "ym2612"
    },
    {
      "channel": 4,
      "note": 42,
      "start": 56.4615,
      "duration": 0.1378,
      "velocity": 101,
      "chip": "ym2612"
    },
    {
      "channel": 3,
      "note": 54,
      "start": 56.5991,
      "duration": 0.1319,
      "velocity": 91,
      "chip": "ym2612"
    },
    {
      "channel": 4,
      "note": 42,
      "start": 56.5999,
      "duration": 0.1319,
      "velocity": 101,
      "chip": "ym2612"
    },
    {
      "channel": 2,
      "note": 72,
      "start": 56.6015,
      "duration": 0.2361,
      "velocity": 120,
      "chip": "ym2612"
    },
    {
      "channel": 3,
      "note": 54,
      "start": 56.7316,
      "duration": 0.1381,
      "velocity": 91,
      "chip": "ym2612"
    },
    {
      "channel": 4,
      "note": 42,
      "start": 56.7323,
      "duration": 0.2732,
      "velocity": 101,
      "chip": "ym2612"
    },
    {
      "channel": 3,
      "note": 54,
      "start": 56.8702,
      "duration": 0.1345,
      "velocity": 91,
      "chip": "ym2612"
    },
    {
      "channel": 2,
      "note": 36,
      "start": 56.8719,
      "duration": 0.1162,
      "velocity": 127,
      "chip": "ym2612"
    },
    {
      "channel": 3,
      "note": 54,
      "start": 57.0053,
      "duration": 0.1349,
      "velocity": 91,
      "chip": "ym2612"
    },
    {
      "channel": 4,
      "note": 42,
      "start": 57.0059,
      "duration": 0.2676,
      "velocity": 101,
      "chip": "ym2612"
    },
    {
      "channel": 2,
      "note": 36,
      "start": 57.0072,
      "duration": 0.1163,
      "velocity": 127,
      "chip": "ym2612"
    },
    {
      "channel": 3,
      "note": 54,
      "start": 57.1408,
      "duration": 0.132,
      "velocity": 91,
      "chip": "ym2612"
    },
    {
      "channel": 2,
      "note": 72,
      "start": 57.1423,
      "duration": 0.2371,
      "velocity": 120,
      "chip": "ym2612"
    },
    {
      "channel": 3,
      "note": 54,
      "start": 57.2734,
      "duration": 0.1381,
      "velocity": 91,
      "chip": "ym2612"
    },
    {
      "channel": 4,
      "note": 42,
      "start": 57.2739,
      "duration": 0.1384,
      "velocity": 101,
      "chip": "ym2612"
    },
    {
      "channel": 1,
      "note": 85,
      "start": 57.4113,
      "duration": 1.083,
      "velocity": 96,
      "chip": "ym2612"
    },
    {
      "channel": 3,
      "note": 54,
      "start": 57.4121,
      "duration": 0.1316,
      "velocity": 91,
      "chip": "ym2612"
    },
    {
      "channel": 4,
      "note": 42,
      "start": 57.4129,
      "duration": 0.1314,
      "velocity": 101,
      "chip": "ym2612"
    },
    {
      "channel": 2,
      "note": 36,
      "start": 57.4142,
      "duration": 0.1155,
      "velocity": 127,
      "chip": "ym2612"
    },
    {
      "channel": 3,
      "note": 54,
      "start": 57.5442,
      "duration": 0.1377,
      "velocity": 91,
      "chip": "ym2612"
    },
    {
      "channel": 4,
      "note": 42,
      "start": 57.5449,
      "duration": 0.1377,
      "velocity": 101,
      "chip": "ym2612"
    },
    {
      "channel": 3,
      "note": 54,
      "start": 57.6825,
      "duration": 0.1319,
      "velocity": 91,
      "chip": "ym2612"
    },
    {
      "channel": 4,
      "note": 42,
      "start": 57.6832,
      "duration": 0.132,
      "velocity": 101,
      "chip": "ym2612"
    },
    {
      "channel": 2,
      "note": 72,
      "start": 57.6848,
      "duration": 0.2363,
      "velocity": 120,
      "chip": "ym2612"
    },
    {
      "channel": 3,
      "note": 54,
      "start": 57.815,
      "duration": 0.1382,
      "velocity": 91,
      "chip": "ym2612"
    },
    {
      "channel": 4,
      "note": 42,
      "start": 57.8157,
      "duration": 0.2731,
      "velocity": 101,
      "chip": "ym2612"
    },
    {
      "channel": 3,
      "note": 54,
      "start": 57.9538,
      "duration": 0.1343,
      "velocity": 91,
      "chip": "ym2612"
    },
    {
      "channel": 2,
      "note": 36,
      "start": 57.9554,
      "duration": 0.116,
      "velocity": 127,
      "chip": "ym2612"
    },
    {
      "channel": 3,
      "note": 54,
      "start": 58.0887,
      "duration": 0.1349,
      "velocity": 91,
      "chip": "ym2612"
    },
    {
      "channel": 4,
      "note": 42,
      "start": 58.0893,
      "duration": 0.2678,
      "velocity": 101,
      "chip": "ym2612"
    },
    {
      "channel": 2,
      "note": 36,
      "start": 58.0906,
      "duration": 0.1162,
      "velocity": 127,
      "chip": "ym2612"
    },
    {
      "channel": 3,
      "note": 54,
      "start": 58.2241,
      "duration": 0.1322,
      "velocity": 91,
      "chip": "ym2612"
    },
    {
      "channel": 2,
      "note": 72,
      "start": 58.2257,
      "duration": 0.237,
      "velocity": 120,
      "chip": "ym2612"
    },
    {
      "channel": 3,
      "note": 54,
      "start": 58.3569,
      "duration": 0.1382,
      "velocity": 91,
      "chip": "ym2612"
    },
    {
      "channel": 4,
      "note": 42,
      "start": 58.3575,
      "duration": 0.1385,
      "velocity": 101,
      "chip": "ym2612"
    },
    {
      "channel": 1,
      "note": 88,
      "start": 58.4949,
      "duration": 1.0831,
      "velocity": 96,
      "chip": "ym2612"
    },
    {
      "channel": 3,
      "note": 54,
      "start": 58.4958,
      "duration": 0.1312,
      "velocity": 91,
      "chip": "ym2612"
    },
    {
      "channel": 4,
      "note": 42,
      "start": 58.4966,
      "duration": 0.1312,
      "velocity": 101,
      "chip": "ym2612"
    },
    {
      "channel": 2,
      "note": 36,
      "start": 58.4979,
      "duration": 0.1153,
      "velocity": 127,
      "chip": "ym2612"
    },
    {
      "channel": 3,
      "note": 54,
      "start": 58.6276,
      "duration": 0.1377,
      "velocity": 91,
      "chip": "ym2612"
    },
    {
      "channel": 4,
      "note": 42,
      "start": 58.6283,
      "duration": 0.1377,
      "velocity": 101,
      "chip": "ym2612"
    },
    {
      "channel": 3,
      "note": 54,
      "start": 58.7659,
      "duration": 0.132,
      "velocity": 91,
      "chip": "ym2612"
    },
    {
      "channel": 4,
      "note": 42,
      "start": 58.7666,
      "duration": 0.132,
      "velocity": 101,
      "chip": "ym2612"
    },
    {
      "channel": 2,
      "note": 72,
      "start": 58.7682,
      "duration": 0.2362,
      "velocity": 120,
      "chip": "ym2612"
    },
    {
      "channel": 3,
      "note": 54,
      "start": 58.8985,
      "duration": 0.1381,
      "velocity": 91,
      "chip": "ym2612"
    },
    {
      "channel": 4,
      "note": 42,
      "start": 58.8992,
      "duration": 0.273,
      "velocity": 101,
      "chip": "ym2612"
    },
    {
      "channel": 3,
      "note": 54,
      "start": 59.0372,
      "duration": 0.1344,
      "velocity": 91,
      "chip": "ym2612"
    },
    {
      "channel": 2,
      "note": 36,
      "start": 59.0388,
      "duration": 0.116,
      "velocity": 127,
      "chip": "ym2612"
    },
    {
      "channel": 3,
      "note": 54,
      "start": 59.1721,
      "duration": 0.1349,
      "velocity": 91,
      "chip": "ym2612"
    },
    {
      "channel": 4,
      "note": 42,
      "start": 59.1727,
      "duration": 0.2676,
      "velocity": 101,
      "chip": "ym2612"
    },
    {
      "channel": 2,
      "note": 36,
      "start": 59.174,
      "duration": 0.1163,
      "velocity": 127,
      "chip": "ym2612"
    },
    {
      "channel": 3,
      "note": 54,
      "start": 59.3076,
      "duration": 0.132,
      "velocity": 91,
      "chip": "ym2612"
    },
    {
      "channel": 2,
      "note": 72,
      "start": 59.3091,
      "duration": 0.237,
      "velocity": 120,
      "chip": "ym2612"
    },
    {
      "channel": 3,
      "note": 54,
      "start": 59.4402,
      "duration": 0.1388,
      "velocity": 91,
      "chip": "ym2612"
    },
    {
      "channel": 4,
      "note": 42,
      "start": 59.4407,
      "duration": 0.139,
      "velocity": 101,
      "chip": "ym2612"
    },
    {
      "channel": 0,
      "note": 90,
      "start": 59.5779,
      "duration": 0.1318,
      "velocity": 97,
      "chip": "ym2612"
    },
    {
      "channel": 1,
      "note": 78,
      "start": 59.5786,
      "duration": 0.1319,
      "velocity": 96,
      "chip": "ym2612"
    },
    {
      "channel": 3,
      "note": 54,
      "start": 59.5795,
      "duration": 0.1318,
      "velocity": 91,
      "chip": "ym2612"
    },
    {
      "channel": 4,
      "note": 42,
      "start": 59.5803,
      "duration": 0.1317,
      "velocity": 101,
      "chip": "ym2612"
    },
    {
      "channel": 2,
      "note": 36,
      "start": 59.5816,
      "duration": 0.1149,
      "velocity": 127,
      "chip": "ym2612"
    },
    {
      "channel": 5,
      "note": 90,
      "start": 59.6215,
      "duration": 0.1348,
      "velocity": 92,
      "chip": "ym2612"
    },
    {
      "channel": 0,
      "note": 88,
      "start": 59.7104,
      "duration": 0.1375,
      "velocity": 97,
      "chip": "ym2612"
    },
    {
      "channel": 1,
      "note": 82,
      "start": 59.7111,
      "duration": 0.1376,
      "velocity": 96,
      "chip": "ym2612"
    },
    {
      "channel": 3,
      "note": 54,
      "start": 59.7119,
      "duration": 0.1377,
      "velocity": 91,
      "chip": "ym2612"
    },
    {
      "channel": 4,
      "note": 42,
      "start": 59.7126,
      "duration": 0.1377,
      "velocity": 101,
      "chip": "ym2612"
    },
    {
      "channel": 5,
      "note": 88,
      "start": 59.757,
      "duration": 0.1347,
      "velocity": 92,
      "chip": "ym2612"
    },
    {
      "channel": 0,
      "note": 86,
      "start": 59.8486,
      "duration": 0.132,
      "velocity": 97,
      "chip": "ym2612"
    },
    {
      "channel": 1,
      "note": 85,
      "start": 59.8493,
      "duration": 0.1321,
      "velocity": 96,
      "chip": "ym2612"
    },
    {
      "channel": 3,
      "note": 54,
      "start": 59.8502,
      "duration": 0.1319,
      "velocity": 91,
      "chip": "ym2612"
    },
    {
      "channel": 4,
      "note": 42,
      "start": 59.8513,
      "duration": 0.1316,
      "velocity": 101,
      "chip": "ym2612"
    },
    {
      "channel": 2,
      "note": 72,
      "start": 59.8524,
      "duration": 0.2354,
      "velocity": 120,
      "chip": "ym2612"
    },
    {
      "channel": 5,
      "note": 86,
      "start": 59.8923,
      "duration": 0.1347,
      "velocity": 92,
      "chip": "ym2612"
    },
    {
      "channel": 0,
      "note": 88,
      "start": 59.9812,
      "duration": 0.1382,
      "velocity": 97,
      "chip": "ym2612"
    },
    {
      "channel": 1,
      "note": 78,
      "start": 59.982,
      "duration": 0.1382,
      "velocity": 96,
      "chip": "ym2612"
    },
    {
      "channel": 3,
      "note": 54,
      "start": 59.9827,
      "duration": 0.1384,
      "velocity": 91,
      "chip": "ym2612"
    },
    {
      "channel": 4,
      "note": 42,
      "start": 59.9834,
      "duration": 0.2732,
      "velocity": 101,
      "chip": "ym2612"
    },
    {
      "channel": 5,
      "note": 88,
      "start": 60.0278,
      "duration": 0.1377,
      "velocity": 92,
      "chip": "ym2612"
    },
    {
      "channel": 0,
      "note": 86,
      "start": 60.12,
      "duration": 0.1343,
      "velocity": 97,
      "chip": "ym2612"
    },
    {
      "channel": 1,
      "note": 82,
      "start": 60.1208,
      "duration": 0.1344,
      "velocity": 96,
      "chip": "ym2612"
    },
    {
      "channel": 3,
      "note": 54,
      "start": 60.1216,
      "duration": 0.1343,
      "velocity": 91,
      "chip": "ym2612"
    },
    {
      "channel": 2,
      "note": 72,
      "start": 60.1231,
      "duration": 0.0382,
      "velocity": 120,
      "chip": "ym2612"
    },
    {
      "channel": 5,
      "note": 86,
      "start": 60.1661,
      "duration": 0.1351,
      "velocity": 92,
      "chip": "ym2612"
    },
    {
      "channel": 2,
      "note": 72,
      "start": 60.1669,
      "duration": 0.0394,
      "velocity": 120,
      "chip": "ym2612"
    },
    {
      "channel": 2,
      "note": 72,
      "start": 60.2114,
      "duration": 0.04,
      "velocity": 120,
      "chip": "ym2612"
    },
    {
      "channel": 0,
      "note": 85,
      "start": 60.2549,
      "duration": 0.1348,
      "velocity": 97,
      "chip": "ym2612"
    },
    {
      "channel": 1,
      "note": 85,
      "start": 60.2557,
      "duration": 0.1349,
      "velocity": 96,
      "chip": "ym2612"
    },
    {
      "channel": 3,
      "note": 54,
      "start": 60.2564,
      "duration": 0.1349,
      "velocity": 91,
      "chip": "ym2612"
    },
    {
      "channel": 4,
      "note": 42,
      "start": 60.257,
      "duration": 0.27,
      "velocity": 101,
      "chip": "ym2612"
    },
    {
      "channel": 2,
      "note": 72,
      "start": 60.2581,
      "duration": 0.0385,
      "velocity": 120,
      "chip": "ym2612"
    },
    {
      "channel": 5,
      "note": 85,
      "start": 60.3019,
      "duration": 0.1349,
      "velocity": 92,
      "chip": "ym2612"
    },
    {
      "channel": 2,
      "note": 72,
      "start": 60.3026,
      "duration": 0.0391,
      "velocity": 120,
      "chip": "ym2612"
    },
    {
      "channel": 2,
      "note": 72,
      "start": 60.3469,
      "duration": 0.0399,
      "velocity": 120,
      "chip": "ym2612"
    },
    {
      "channel": 0,
      "note": 86,
      "start": 60.3904,
      "duration": 0.1348,
      "velocity": 97,
      "chip": "ym2612"
    },
    {
      "channel": 1,
      "note": 90,
      "start": 60.3911,
      "duration": 0.2704,
      "velocity": 96,
      "chip": "ym2612"
    },
    {
      "channel": 3,
      "note": 54,
      "start": 60.392,
      "duration": 0.1343,
      "velocity": 91,
      "chip": "ym2612"
    },
    {
      "channel": 2,
      "note": 72,
      "start": 60.3935,
      "duration": 0.0385,
      "velocity": 120,
      "chip": "ym2612"
    },
    {
      "channel": 5,
      "note": 86,
      "start": 60.4374,
      "duration": 0.1347,
      "velocity": 92,
      "chip": "ym2612"
    },
    {
      "channel": 2,
      "note": 72,
      "start": 60.4381,
      "duration": 0.0391,
      "velocity": 120,
      "chip": "ym2612"
    },
    {
      "channel": 2,
      "note": 72,
      "start": 60.4823,
      "duration": 0.04,
      "velocity": 120,
      "chip": "ym2612"
    },
    {
      "channel": 0,
      "note": 85,
      "start": 60.5258,
      "duration": 0.1347,
      "velocity": 97,
      "chip": "ym2612"
    },
    {
      "channel": 3,
      "note": 54,
      "start": 60.5269,
      "duration": 0.1356,
      "velocity": 91,
      "chip": "ym2612"
    },
    {
      "channel": 4,
      "note": 42,
      "start": 60.5275,
      "duration": 0.1359,
      "velocity": 101,
      "chip": "ym2612"
    },
    {
      "channel": 2,
      "note": 72,
      "start": 60.5286,
      "duration": 0.0394,
      "velocity": 120,
      "chip": "ym2612"
    },
    {
      "channel": 5,
      "note": 85,
      "start": 60.5729,
      "duration": 0.1316,
      "velocity": 92,
      "chip": "ym2612"
    },
    {
      "channel": 2,
      "note": 72,
      "start": 60.5736,
      "duration": 0.039,
      "velocity": 120,
      "chip": "ym2612"
    },
    {
      "channel": 2,
      "note": 72,
      "start": 60.6182,
      "duration": 0.0395,
      "velocity": 120,
      "chip": "ym2612"
    },
    {
      "channel": 0,
      "note": 83,
      "start": 60.6612,
      "duration": 0.2515,
      "velocity": 97,
      "chip": "ym2612"
    },
    {
      "channel": 1,
      "note": 83,
      "start": 60.662,
      "duration": 0.2507,
      "velocity": 96,
      "chip": "ym2612"
    },
    {
      "channel": 3,
      "note": 59,
      "start": 60.6631,
      "duration": 0.1309,
      "velocity": 91,
      "chip": "ym2612"
    },
    {
      "channel": 4,
      "note": 50,
      "start": 60.6641,
      "duration": 0.1307,
      "velocity": 101,
      "chip": "ym2612"
    },
    {
      "channel": 2,
      "note": 36,
      "start": 60.6653,
      "duration": 0.1146,
      "velocity": 127,
      "chip": "ym2612"
    },
    {
      "channel": 5,
      "note": 83,
      "start": 60.7052,
      "duration": 0.2076,
      "velocity": 92,
      "chip": "ym2612"
    },
    {
      "channel": 3,
      "note": 59,
      "start": 60.7946,
      "duration": 0.1181,
      "velocity": 91,
      "chip": "ym2612"
    },
    {
      "channel": 4,
      "note": 47,
      "start": 60.7953,
      "duration": 0.1175,
      "velocity": 101,
      "chip": "ym2612"
    }
  ]
}