{
  "track_name": "12 - Rudger Steiner - Battle Theme",
  "duration_sec": 39.083,
  "sample_rate": 44100,
  "note_count": 714,
  "unique_pitches": 19,
  "pitch_range": 64,
  "avg_note_duration": 0.2139,
  "reconstruction_stats": {
    "notes_reconstructed": 714,
    "keyon_events": 714,
    "keyoff_events": 710,
    "orphan_keyons": 4,
    "unique_pitches": 19,
    "pitch_range": 64,
    "avg_duration_sec": 0.2139
  },
  "metadata": {
    "source": "P\\Phantasy Star II Text Adventures\\12 - Rudger Steiner - Battle Theme.vgz"
  },
  "notes": [
    {
      "channel": 1,
      "note": 63,
      "start": 0.0613,
      "duration": 2.3955,
      "velocity": 106,
      "chip": "ym2612"
    },
    {
      "channel": 3,
      "note": 63,
      "start": 0.0647,
      "duration": 0.2921,
      "velocity": 97,
      "chip": "ym2612"
    },
    {
      "channel": 4,
      "note": 72,
      "start": 0.0681,
      "duration": 0.2921,
      "velocity": 100,
      "chip": "ym2612"
    },
    {
      "channel": 2,
      "note": 25,
      "start": 0.0746,
      "duration": 0.1358,
      "velocity": 1,
      "chip": "ym2612"
    },
    {
      "channel": 2,
      "note": 75,
      "start": 0.2111,
      "duration": 0.1528,
      "velocity": 1,
      "chip": "ym2612"
    },
    {
      "channel": 3,
      "note": 66,
      "start": 0.3574,
      "duration": 0.2994,
      "velocity": 97,
      "chip": "ym2612"
    },
    {
      "channel": 4,
      "note": 72,
      "start": 0.3608,
      "duration": 0.149,
      "velocity": 100,
      "chip": "ym2612"
    },
    {
      "channel": 2,
      "note": 75,
      "start": 0.3645,
      "duration": 0.149,
      "velocity": 1,
      "chip": "ym2612"
    },
    {
      "channel": 4,
      "note": 72,
      "start": 0.5104,
      "duration": 0.1499,
      "velocity": 100,
      "chip": "ym2612"
    },
    {
      "channel": 2,
      "note": 75,
      "start": 0.5141,
      "duration": 0.1505,
      "velocity": 120,
      "chip": "ym2612"
    },
    {
      "channel": 3,
      "note": 82,
      "start": 0.6574,
      "duration": 0.1494,
      "velocity": 97,
      "chip": "ym2612"
    },
    {
      "channel": 4,
      "note": 72,
      "start": 0.6609,
      "duration": 0.2989,
      "velocity": 100,
      "chip": "ym2612"
    },
    {
      "channel": 5,
      "note": 78,
      "start": 0.6617,
      "duration": 0.4493,
      "velocity": 97,
      "chip": "ym2612"
    },
    {
      "channel": 2,
      "note": 72,
      "start": 0.6653,
      "duration": 0.1429,
      "velocity": 120,
      "chip": "ym2612"
    },
    {
      "channel": 3,
      "note": 82,
      "start": 0.8073,
      "duration": 0.2995,
      "velocity": 97,
      "chip": "ym2612"
    },
    {
      "channel": 4,
      "note": 72,
      "start": 0.9604,
      "duration": 0.1498,
      "velocity": 100,
      "chip": "ym2612"
    },
    {
      "channel": 3,
      "note": 84,
      "start": 1.1074,
      "duration": 0.2994,
      "velocity": 97,
      "chip": "ym2612"
    },
    {
      "channel": 4,
      "note": 72,
      "start": 1.1108,
      "duration": 0.149,
      "velocity": 100,
      "chip": "ym2612"
    },
    {
      "channel": 5,
      "note": 80,
      "start": 1.1117,
      "duration": 0.5994,
      "velocity": 97,
      "chip": "ym2612"
    },
    {
      "channel": 4,
      "note": 72,
      "start": 1.2605,
      "duration": 0.2997,
      "velocity": 100,
      "chip": "ym2612"
    },
    {
      "channel": 2,
      "note": 25,
      "start": 1.2644,
      "duration": 0.1467,
      "velocity": 109,
      "chip": "ym2612"
    },
    {
      "channel": 3,
      "note": 82,
      "start": 1.4074,
      "duration": 0.1494,
      "velocity": 97,
      "chip": "ym2612"
    },
    {
      "channel": 2,
      "note": 25,
      "start": 1.4117,
      "duration": 0.1496,
      "velocity": 109,
      "chip": "ym2612"
    },
    {
      "channel": 3,
      "note": 78,
      "start": 1.5574,
      "duration": 0.1494,
      "velocity": 97,
      "chip": "ym2612"
    },
    {
      "channel": 4,
      "note": 72,
      "start": 1.5608,
      "duration": 0.1494,
      "velocity": 100,
      "chip": "ym2612"
    },
    {
      "channel": 3,
      "note": 66,
      "start": 1.7074,
      "duration": 0.2994,
      "velocity": 97,
      "chip": "ym2612"
    },
    {
      "channel": 4,
      "note": 72,
      "start": 1.7108,
      "duration": 0.149,
      "velocity": 100,
      "chip": "ym2612"
    },
    {
      "channel": 5,
      "note": 63,
      "start": 1.7116,
      "duration": 0.149,
      "velocity": 97,
      "chip": "ym2612"
    },
    {
      "channel": 4,
      "note": 72,
      "start": 1.8605,
      "duration": 0.2998,
      "velocity": 100,
      "chip": "ym2612"
    },
    {
      "channel": 2,
      "note": 72,
      "start": 1.8644,
      "duration": 0.1436,
      "velocity": 120,
      "chip": "ym2612"
    },
    {
      "channel": 3,
      "note": 77,
      "start": 2.0074,
      "duration": 0.1494,
      "velocity": 97,
      "chip": "ym2612"
    },
    {
      "channel": 3,
      "note": 78,
      "start": 2.1574,
      "duration": 0.1494,
      "velocity": 97,
      "chip": "ym2612"
    },
    {
      "channel": 4,
      "note": 72,
      "start": 2.1608,
      "duration": 0.1494,
      "velocity": 100,
      "chip": "ym2612"
    },
    {
      "channel": 2,
      "note": 25,
      "start": 2.1645,
      "duration": 0.1494,
      "velocity": 109,
      "chip": "ym2612"
    },
    {
      "channel": 3,
      "note": 82,
      "start": 2.3074,
      "duration": 0.1501,
      "velocity": 97,
      "chip": "ym2612"
    },
    {
      "channel": 4,
      "note": 72,
      "start": 2.3109,
      "duration": 0.1501,
      "velocity": 100,
      "chip": "ym2612"
    },
    {
      "channel": 2,
      "note": 25,
      "start": 2.3145,
      "duration": 0.1506,
      "velocity": 109,
      "chip": "ym2612"
    },
    {
      "channel": 1,
      "note": 61,
      "start": 2.4574,
      "duration": 2.3994,
      "velocity": 106,
      "chip": "ym2612"
    },
    {
      "channel": 3,
      "note": 63,
      "start": 2.4581,
      "duration": 0.2987,
      "velocity": 97,
      "chip": "ym2612"
    },
    {
      "channel": 4,
      "note": 72,
      "start": 2.4617,
      "duration": 0.2985,
      "velocity": 100,
      "chip": "ym2612"
    },
    {
      "channel": 2,
      "note": 25,
      "start": 2.4657,
      "duration": 0.1447,
      "velocity": 1,
      "chip": "ym2612"
    },
    {
      "channel": 2,
      "note": 75,
      "start": 2.6111,
      "duration": 0.1528,
      "velocity": 1,
      "chip": "ym2612"
    },
    {
      "channel": 3,
      "note": 66,
      "start": 2.7574,
      "duration": 0.2994,
      "velocity": 97,
      "chip": "ym2612"
    },
    {
      "channel": 4,
      "note": 72,
      "start": 2.7608,
      "duration": 0.149,
      "velocity": 100,
      "chip": "ym2612"
    },
    {
      "channel": 2,
      "note": 75,
      "start": 2.7645,
      "duration": 0.149,
      "velocity": 1,
      "chip": "ym2612"
    },
    {
      "channel": 4,
      "note": 72,
      "start": 2.9104,
      "duration": 0.1499,
      "velocity": 100,
      "chip": "ym2612"
    },
    {
      "channel": 2,
      "note": 75,
      "start": 2.9141,
      "duration": 0.1505,
      "velocity": 120,
      "chip": "ym2612"
    },
    {
      "channel": 3,
      "note": 82,
      "start": 3.0574,
      "duration": 0.1494,
      "velocity": 97,
      "chip": "ym2612"
    },
    {
      "channel": 4,
      "note": 72,
      "start": 3.0609,
      "duration": 0.2989,
      "velocity": 100,
      "chip": "ym2612"
    },
    {
      "channel": 5,
      "note": 78,
      "start": 3.0617,
      "duration": 0.4493,
      "velocity": 97,
      "chip": "ym2612"
    },
    {
      "channel": 2,
      "note": 72,
      "start": 3.0653,
      "duration": 0.1429,
      "velocity": 120,
      "chip": "ym2612"
    },
    {
      "channel": 3,
      "note": 82,
      "start": 3.2073,
      "duration": 0.2995,
      "velocity": 97,
      "chip": "ym2612"
    },
    {
      "channel": 4,
      "note": 72,
      "start": 3.3604,
      "duration": 0.1498,
      "velocity": 100,
      "chip": "ym2612"
    },
    {
      "channel": 3,
      "note": 84,
      "start": 3.5074,
      "duration": 0.2994,
      "velocity": 97,
      "chip": "ym2612"
    },
    {
      "channel": 4,
      "note": 72,
      "start": 3.5108,
      "duration": 0.149,
      "velocity": 100,
      "chip": "ym2612"
    },
    {
      "channel": 5,
      "note": 80,
      "start": 3.5117,
      "duration": 0.5994,
      "velocity": 97,
      "chip": "ym2612"
    },
    {
      "channel": 4,
      "note": 72,
      "start": 3.6605,
      "duration": 0.2997,
      "velocity": 100,
      "chip": "ym2612"
    },
    {
      "channel": 2,
      "note": 25,
      "start": 3.6644,
      "duration": 0.1468,
      "velocity": 109,
      "chip": "ym2612"
    },
    {
      "channel": 3,
      "note": 82,
      "start": 3.8074,
      "duration": 0.1494,
      "velocity": 97,
      "chip": "ym2612"
    },
    {
      "channel": 2,
      "note": 25,
      "start": 3.8117,
      "duration": 0.1496,
      "velocity": 109,
      "chip": "ym2612"
    },
    {
      "channel": 3,
      "note": 78,
      "start": 3.9574,
      "duration": 0.1494,
      "velocity": 97,
      "chip": "ym2612"
    },
    {
      "channel": 4,
      "note": 72,
      "start": 3.9608,
      "duration": 0.1494,
      "velocity": 100,
      "chip": "ym2612"
    },
    {
      "channel": 3,
      "note": 66,
      "start": 4.1074,
      "duration": 0.2994,
      "velocity": 97,
      "chip": "ym2612"
    },
    {
      "channel": 4,
      "note": 72,
      "start": 4.1108,
      "duration": 0.149,
      "velocity": 100,
      "chip": "ym2612"
    },
    {
      "channel": 5,
      "note": 63,
      "start": 4.1116,
      "duration": 0.149,
      "velocity": 97,
      "chip": "ym2612"
    },
    {
      "channel": 4,
      "note": 72,
      "start": 4.2605,
      "duration": 0.2998,
      "velocity": 100,
      "chip": "ym2612"
    },
    {
      "channel": 2,
      "note": 72,
      "start": 4.2644,
      "duration": 0.1436,
      "velocity": 120,
      "chip": "ym2612"
    },
    {
      "channel": 3,
      "note": 77,
      "start": 4.4074,
      "duration": 0.1494,
      "velocity": 97,
      "chip": "ym2612"
    },
    {
      "channel": 3,
      "note": 78,
      "start": 4.5574,
      "duration": 0.1494,
      "velocity": 97,
      "chip": "ym2612"
    },
    {
      "channel": 4,
      "note": 72,
      "start": 4.5608,
      "duration": 0.1494,
      "velocity": 100,
      "chip": "ym2612"
    },
    {
      "channel": 2,
      "note": 25,
      "start": 4.5645,
      "duration": 0.1494,
      "velocity": 109,
      "chip": "ym2612"
    },
    {
      "channel": 3,
      "note": 87,
      "start": 4.7074,
      "duration": 0.1528,
      "velocity": 97,
      "chip": "ym2612"
    },
    {
      "channel": 4,
      "note": 72,
      "start": 4.7109,
      "duration": 0.1528,
      "velocity": 100,
      "chip": "ym2612"
    },
    {
      "channel": 2,
      "note": 25,
      "start": 4.7145,
      "duration": 0.1532,
      "velocity": 109,
      "chip": "ym2612"
    },
    {
      "channel": 1,
      "note": 51,
      "start": 4.8574,
      "duration": 2.699,
      "velocity": 106,
      "chip": "ym2612"
    },
    {
      "channel": 3,
      "note": 63,
      "start": 4.8608,
      "duration": 0.296,
      "velocity": 97,
      "chip": "ym2612"
    },
    {
      "channel": 4,
      "note": 72,
      "start": 4.8643,
      "duration": 0.2959,
      "velocity": 100,
      "chip": "ym2612"
    },
    {
      "channel": 2,
      "note": 25,
      "start": 4.8684,
      "duration": 0.142,
      "velocity": 1,
      "chip": "ym2612"
    },
    {
      "channel": 2,
      "note": 75,
      "start": 5.0111,
      "duration": 0.1528,
      "velocity": 1,
      "chip": "ym2612"
    },
    {
      "channel": 3,
      "note": 66,
      "start": 5.1574,
      "duration": 0.2994,
      "velocity": 97,
      "chip": "ym2612"
    },
    {
      "channel": 4,
      "note": 72,
      "start": 5.1608,
      "duration": 0.149,
      "velocity": 100,
      "chip": "ym2612"
    },
    {
      "channel": 2,
      "note": 75,
      "start": 5.1645,
      "duration": 0.149,
      "velocity": 1,
      "chip": "ym2612"
    },
    {
      "channel": 4,
      "note": 72,
      "start": 5.3104,
      "duration": 0.1499,
      "velocity": 100,
      "chip": "ym2612"
    },
    {
      "channel": 2,
      "note": 75,
      "start": 5.3141,
      "duration": 0.1505,
      "velocity": 120,
      "chip": "ym2612"
    },
    {
      "channel": 3,
      "note": 82,
      "start": 5.4574,
      "duration": 0.1494,
      "velocity": 97,
      "chip": "ym2612"
    },
    {
      "channel": 4,
      "note": 72,
      "start": 5.4609,
      "duration": 0.2989,
      "velocity": 100,
      "chip": "ym2612"
    },
    {
      "channel": 5,
      "note": 78,
      "start": 5.4617,
      "duration": 0.4493,
      "velocity": 97,
      "chip": "ym2612"
    },
    {
      "channel": 2,
      "note": 72,
      "start": 5.4653,
      "duration": 0.1429,
      "velocity": 120,
      "chip": "ym2612"
    },
    {
      "channel": 3,
      "note": 82,
      "start": 5.6073,
      "duration": 0.2995,
      "velocity": 97,
      "chip": "ym2612"
    },
    {
      "channel": 4,
      "note": 72,
      "start": 5.7604,
      "duration": 0.1498,
      "velocity": 100,
      "chip": "ym2612"
    },
    {
      "channel": 3,
      "note": 84,
      "start": 5.9074,
      "duration": 0.2994,
      "velocity": 97,
      "chip": "ym2612"
    },
    {
      "channel": 4,
      "note": 72,
      "start": 5.9108,
      "duration": 0.149,
      "velocity": 100,
      "chip": "ym2612"
    },
    {
      "channel": 5,
      "note": 80,
      "start": 5.9117,
      "duration": 0.5994,
      "velocity": 97,
      "chip": "ym2612"
    },
    {
      "channel": 4,
      "note": 72,
      "start": 6.0605,
      "duration": 0.2997,
      "velocity": 100,
      "chip": "ym2612"
    },
    {
      "channel": 2,
      "note": 25,
      "start": 6.0644,
      "duration": 0.1468,
      "velocity": 109,
      "chip": "ym2612"
    },
    {
      "channel": 3,
      "note": 82,
      "start": 6.2074,
      "duration": 0.1494,
      "velocity": 97,
      "chip": "ym2612"
    },
    {
      "channel": 2,
      "note": 25,
      "start": 6.2117,
      "duration": 0.1496,
      "velocity": 109,
      "chip": "ym2612"
    },
    {
      "channel": 3,
      "note": 78,
      "start": 6.3574,
      "duration": 0.1494,
      "velocity": 97,
      "chip": "ym2612"
    },
    {
      "channel": 4,
      "note": 72,
      "start": 6.3608,
      "duration": 0.1494,
      "velocity": 100,
      "chip": "ym2612"
    },
    {
      "channel": 3,
      "note": 66,
      "start": 6.5074,
      "duration": 0.2994,
      "velocity": 97,
      "chip": "ym2612"
    },
    {
      "channel": 4,
      "note": 72,
      "start": 6.5108,
      "duration": 0.149,
      "velocity": 100,
      "chip": "ym2612"
    },
    {
      "channel": 5,
      "note": 63,
      "start": 6.5116,
      "duration": 0.149,
      "velocity": 97,
      "chip": "ym2612"
    },
    {
      "channel": 4,
      "note": 72,
      "start": 6.6605,
      "duration": 0.2998,
      "velocity": 100,
      "chip": "ym2612"
    },
    {
      "channel": 2,
      "note": 72,
      "start": 6.6644,
      "duration": 0.1436,
      "velocity": 120,
      "chip": "ym2612"
    },
    {
      "channel": 3,
      "note": 77,
      "start": 6.8074,
      "duration": 0.1494,
      "velocity": 97,
      "chip": "ym2612"
    },
    {
      "channel": 3,
      "note": 78,
      "start": 6.9574,
      "duration": 0.1494,
      "velocity": 97,
      "chip": "ym2612"
    },
    {
      "channel": 4,
      "note": 72,
      "start": 6.9608,
      "duration": 0.1494,
      "velocity": 100,
      "chip": "ym2612"
    },
    {
      "channel": 2,
      "note": 25,
      "start": 6.9645,
      "duration": 0.1494,
      "velocity": 109,
      "chip": "ym2612"
    },
    {
      "channel": 3,
      "note": 82,
      "start": 7.1074,
      "duration": 0.1497,
      "velocity": 97,
      "chip": "ym2612"
    },
    {
      "channel": 4,
      "note": 72,
      "start": 7.1109,
      "duration": 0.1498,
      "velocity": 100,
      "chip": "ym2612"
    },
    {
      "channel": 2,
      "note": 25,
      "start": 7.1145,
      "duration": 0.1502,
      "velocity": 109,
      "chip": "ym2612"
    },
    {
      "channel": 3,
      "note": 63,
      "start": 7.2578,
      "duration": 0.2993,
      "velocity": 97,
      "chip": "ym2612"
    },
    {
      "channel": 4,
      "note": 72,
      "start": 7.2613,
      "duration": 0.2992,
      "velocity": 100,
      "chip": "ym2612"
    },
    {
      "channel": 2,
      "note": 25,
      "start": 7.2653,
      "duration": 0.1452,
      "velocity": 1,
      "chip": "ym2612"
    },
    {
      "channel": 2,
      "note": 75,
      "start": 7.4111,
      "duration": 0.1531,
      "velocity": 1,
      "chip": "ym2612"
    },
    {
      "channel": 1,
      "note": 51,
      "start": 7.5569,
      "duration": 0.2996,
      "velocity": 106,
      "chip": "ym2612"
    },
    {
      "channel": 3,
      "note": 66,
      "start": 7.5576,
      "duration": 0.2994,
      "velocity": 97,
      "chip": "ym2612"
    },
    {
      "channel": 4,
      "note": 72,
      "start": 7.5611,
      "duration": 0.1487,
      "velocity": 100,
      "chip": "ym2612"
    },
    {
      "channel": 2,
      "note": 75,
      "start": 7.5648,
      "duration": 0.1487,
      "velocity": 1,
      "chip": "ym2612"
    },
    {
      "channel": 4,
      "note": 72,
      "start": 7.7104,
      "duration": 0.1501,
      "velocity": 100,
      "chip": "ym2612"
    },
    {
      "channel": 2,
      "note": 75,
      "start": 7.7141,
      "duration": 0.1508,
      "velocity": 120,
      "chip": "ym2612"
    },
    {
      "channel": 1,
      "note": 51,
      "start": 7.8569,
      "duration": 0.1496,
      "velocity": 106,
      "chip": "ym2612"
    },
    {
      "channel": 3,
      "note": 82,
      "start": 7.8577,
      "duration": 0.1494,
      "velocity": 97,
      "chip": "ym2612"
    },
    {
      "channel": 4,
      "note": 72,
      "start": 7.8611,
      "duration": 0.2987,
      "velocity": 100,
      "chip": "ym2612"
    },
    {
      "channel": 5,
      "note": 78,
      "start": 7.862,
      "duration": 0.4493,
      "velocity": 97,
      "chip": "ym2612"
    },
    {
      "channel": 2,
      "note": 72,
      "start": 7.8655,
      "duration": 0.1429,
      "velocity": 120,
      "chip": "ym2612"
    },
    {
      "channel": 1,
      "note": 51,
      "start": 8.0069,
      "duration": 0.2996,
      "velocity": 106,
      "chip": "ym2612"
    },
    {
      "channel": 3,
      "note": 82,
      "start": 8.0075,
      "duration": 0.2996,
      "velocity": 97,
      "chip": "ym2612"
    },
    {
      "channel": 4,
      "note": 72,
      "start": 8.1604,
      "duration": 0.15,
      "velocity": 100,
      "chip": "ym2612"
    },
    {
      "channel": 1,
      "note": 51,
      "start": 8.3069,
      "duration": 0.1496,
      "velocity": 106,
      "chip": "ym2612"
    },
    {
      "channel": 3,
      "note": 84,
      "start": 8.3077,
      "duration": 0.2988,
      "velocity": 97,
      "chip": "ym2612"
    },
    {
      "channel": 4,
      "note": 72,
      "start": 8.3111,
      "duration": 0.1487,
      "velocity": 100,
      "chip": "ym2612"
    },
    {
      "channel": 5,
      "note": 80,
      "start": 8.3119,
      "duration": 0.5988,
      "velocity": 97,
      "chip": "ym2612"
    },
    {
      "channel": 4,
      "note": 72,
      "start": 8.4604,
      "duration": 0.2995,
      "velocity": 100,
      "chip": "ym2612"
    },
    {
      "channel": 2,
      "note": 25,
      "start": 8.4644,
      "duration": 0.1464,
      "velocity": 109,
      "chip": "ym2612"
    },
    {
      "channel": 3,
      "note": 82,
      "start": 8.6071,
      "duration": 0.1494,
      "velocity": 97,
      "chip": "ym2612"
    },
    {
      "channel": 2,
      "note": 25,
      "start": 8.6115,
      "duration": 0.1496,
      "velocity": 109,
      "chip": "ym2612"
    },
    {
      "channel": 3,
      "note": 78,
      "start": 8.7571,
      "duration": 0.1494,
      "velocity": 97,
      "chip": "ym2612"
    },
    {
      "channel": 4,
      "note": 72,
      "start": 8.7606,
      "duration": 0.1494,
      "velocity": 100,
      "chip": "ym2612"
    },
    {
      "channel": 3,
      "note": 66,
      "start": 8.9071,
      "duration": 0.3,
      "velocity": 97,
      "chip": "ym2612"
    },
    {
      "channel": 4,
      "note": 72,
      "start": 8.9106,
      "duration": 0.1497,
      "velocity": 100,
      "chip": "ym2612"
    },
    {
      "channel": 5,
      "note": 63,
      "start": 8.9113,
      "duration": 0.1497,
      "velocity": 97,
      "chip": "ym2612"
    },
    {
      "channel": 1,
      "note": 58,
      "start": 9.0571,
      "duration": 0.1494,
      "velocity": 106,
      "chip": "ym2612"
    },
    {
      "channel": 4,
      "note": 72,
      "start": 9.0609,
      "duration": 0.2998,
      "velocity": 100,
      "chip": "ym2612"
    },
    {
      "channel": 2,
      "note": 72,
      "start": 9.0648,
      "duration": 0.1434,
      "velocity": 120,
      "chip": "ym2612"
    },
    {
      "channel": 1,
      "note": 58,
      "start": 9.2069,
      "duration": 0.1496,
      "velocity": 106,
      "chip": "ym2612"
    },
    {
      "channel": 3,
      "note": 77,
      "start": 9.2077,
      "duration": 0.1495,
      "velocity": 97,
      "chip": "ym2612"
    },
    {
      "channel": 1,
      "note": 61,
      "start": 9.3571,
      "duration": 0.3002,
      "velocity": 106,
      "chip": "ym2612"
    },
    {
      "channel": 3,
      "note": 78,
      "start": 9.3578,
      "duration": 0.149,
      "velocity": 97,
      "chip": "ym2612"
    },
    {
      "channel": 4,
      "note": 72,
      "start": 9.3613,
      "duration": 0.149,
      "velocity": 100,
      "chip": "ym2612"
    },
    {
      "channel": 2,
      "note": 25,
      "start": 9.3649,
      "duration": 0.149,
      "velocity": 109,
      "chip": "ym2612"
    },
    {
      "channel": 3,
      "note": 87,
      "start": 9.5074,
      "duration": 0.1533,
      "velocity": 97,
      "chip": "ym2612"
    },
    {
      "channel": 4,
      "note": 72,
      "start": 9.5109,
      "duration": 0.1534,
      "velocity": 100,
      "chip": "ym2612"
    },
    {
      "channel": 2,
      "note": 25,
      "start": 9.5145,
      "duration": 0.1538,
      "velocity": 109,
      "chip": "ym2612"
    },
    {
      "channel": 0,
      "note": 73,
      "start": 9.6572,
      "duration": 0.1492,
      "velocity": 102,
      "chip": "ym2612"
    },
    {
      "channel": 1,
      "note": 51,
      "start": 9.658,
      "duration": 0.1492,
      "velocity": 106,
      "chip": "ym2612"
    },
    {
      "channel": 3,
      "note": 63,
      "start": 9.6614,
      "duration": 0.2965,
      "velocity": 97,
      "chip": "ym2612"
    },
    {
      "channel": 4,
      "note": 72,
      "start": 9.6649,
      "duration": 0.2964,
      "velocity": 100,
      "chip": "ym2612"
    },
    {
      "channel": 2,
      "note": 25,
      "start": 9.6689,
      "duration": 0.1425,
      "velocity": 1,
      "chip": "ym2612"
    },
    {
      "channel": 0,
      "note": 70,
      "start": 9.807,
      "duration": 0.1494,
      "velocity": 102,
      "chip": "ym2612"
    },
    {
      "channel": 1,
      "note": 51,
      "start": 9.8076,
      "duration": 0.1495,
      "velocity": 106,
      "chip": "ym2612"
    },
    {
      "channel": 2,
      "note": 75,
      "start": 9.812,
      "duration": 0.1529,
      "velocity": 1,
      "chip": "ym2612"
    },
    {
      "channel": 0,
      "note": 73,
      "start": 9.957,
      "duration": 0.1494,
      "velocity": 102,
      "chip": "ym2612"
    },
    {
      "channel": 1,
      "note": 58,
      "start": 9.9578,
      "duration": 0.1494,
      "velocity": 106,
      "chip": "ym2612"
    },
    {
      "channel": 3,
      "note": 66,
      "start": 9.9585,
      "duration": 0.2985,
      "velocity": 97,
      "chip": "ym2612"
    },
    {
      "channel": 4,
      "note": 72,
      "start": 9.9619,
      "duration": 0.149,
      "velocity": 100,
      "chip": "ym2612"
    },
    {
      "channel": 2,
      "note": 75,
      "start": 9.9656,
      "duration": 0.149,
      "velocity": 1,
      "chip": "ym2612"
    },
    {
      "channel": 0,
      "note": 75,
      "start": 10.107,
      "duration": 0.2994,
      "velocity": 102,
      "chip": "ym2612"
    },
    {
      "channel": 1,
      "note": 51,
      "start": 10.1078,
      "duration": 0.149,
      "velocity": 106,
      "chip": "ym2612"
    },
    {
      "channel": 4,
      "note": 72,
      "start": 10.1115,
      "duration": 0.149,
      "velocity": 100,
      "chip": "ym2612"
    },
    {
      "channel": 2,
      "note": 75,
      "start": 10.1152,
      "duration": 0.1497,
      "velocity": 120,
      "chip": "ym2612"
    },
    {
      "channel": 3,
      "note": 82,
      "start": 10.2577,
      "duration": 0.1495,
      "velocity": 97,
      "chip": "ym2612"
    },
    {
      "channel": 4,
      "note": 72,
      "start": 10.2611,
      "duration": 0.299,
      "velocity": 100,
      "chip": "ym2612"
    },
    {
      "channel": 5,
      "note": 78,
      "start": 10.262,
      "duration": 0.4494,
      "velocity": 97,
      "chip": "ym2612"
    },
    {
      "channel": 2,
      "note": 72,
      "start": 10.2655,
      "duration": 0.1431,
      "velocity": 120,
      "chip": "ym2612"
    },
    {
      "channel": 0,
      "note": 73,
      "start": 10.407,
      "duration": 0.1494,
      "velocity": 102,
      "chip": "ym2612"
    },
    {
      "channel": 3,
      "note": 82,
      "start": 10.4077,
      "duration": 0.2995,
      "velocity": 97,
      "chip": "ym2612"
    },
    {
      "channel": 0,
      "note": 70,
      "start": 10.557,
      "duration": 0.1494,
      "velocity": 102,
      "chip": "ym2612"
    },
    {
      "channel": 4,
      "note": 72,
      "start": 10.5608,
      "duration": 0.1498,
      "velocity": 100,
      "chip": "ym2612"
    },
    {
      "channel": 0,
      "note": 73,
      "start": 10.707,
      "duration": 0.1494,
      "velocity": 102,
      "chip": "ym2612"
    },
    {
      "channel": 3,
      "note": 84,
      "start": 10.7078,
      "duration": 0.2987,
      "velocity": 97,
      "chip": "ym2612"
    },
    {
      "channel": 4,
      "note": 72,
      "start": 10.7113,
      "duration": 0.1485,
      "velocity": 100,
      "chip": "ym2612"
    },
    {
      "channel": 5,
      "note": 80,
      "start": 10.712,
      "duration": 0.5994,
      "velocity": 97,
      "chip": "ym2612"
    },
    {
      "channel": 4,
      "note": 72,
      "start": 10.8604,
      "duration": 0.2995,
      "velocity": 100,
      "chip": "ym2612"
    },
    {
      "channel": 2,
      "note": 25,
      "start": 10.8644,
      "duration": 0.1464,
      "velocity": 109,
      "chip": "ym2612"
    },
    {
      "channel": 3,
      "note": 82,
      "start": 11.0071,
      "duration": 0.1494,
      "velocity": 97,
      "chip": "ym2612"
    },
    {
      "channel": 2,
      "note": 25,
      "start": 11.0115,
      "duration": 0.1496,
      "velocity": 109,
      "chip": "ym2612"
    },
    {
      "channel": 3,
      "note": 78,
      "start": 11.1571,
      "duration": 0.1501,
      "velocity": 97,
      "chip": "ym2612"
    },
    {
      "channel": 4,
      "note": 72,
      "start": 11.1606,
      "duration": 0.1501,
      "velocity": 100,
      "chip": "ym2612"
    },
    {
      "channel": 1,
      "note": 53,
      "start": 11.3071,
      "duration": 0.1494,
      "velocity": 106,
      "chip": "ym2612"
    },
    {
      "channel": 3,
      "note": 66,
      "start": 11.3078,
      "duration": 0.299,
      "velocity": 97,
      "chip": "ym2612"
    },
    {
      "channel": 4,
      "note": 72,
      "start": 11.3113,
      "duration": 0.1488,
      "velocity": 100,
      "chip": "ym2612"
    },
    {
      "channel": 5,
      "note": 63,
      "start": 11.312,
      "duration": 0.1489,
      "velocity": 97,
      "chip": "ym2612"
    },
    {
      "channel": 1,
      "note": 53,
      "start": 11.4569,
      "duration": 0.2996,
      "velocity": 106,
      "chip": "ym2612"
    },
    {
      "channel": 4,
      "note": 72,
      "start": 11.4607,
      "duration": 0.2999,
      "velocity": 100,
      "chip": "ym2612"
    },
    {
      "channel": 2,
      "note": 72,
      "start": 11.4647,
      "duration": 0.1433,
      "velocity": 120,
      "chip": "ym2612"
    },
    {
      "channel": 3,
      "note": 77,
      "start": 11.6074,
      "duration": 0.1498,
      "velocity": 97,
      "chip": "ym2612"
    },
    {
      "channel": 1,
      "note": 58,
      "start": 11.7571,
      "duration": 0.3,
      "velocity": 106,
      "chip": "ym2612"
    },
    {
      "channel": 3,
      "note": 78,
      "start": 11.7578,
      "duration": 0.149,
      "velocity": 97,
      "chip": "ym2612"
    },
    {
      "channel": 4,
      "note": 72,
      "start": 11.7613,
      "duration": 0.149,
      "velocity": 100,
      "chip": "ym2612"
    },
    {
      "channel": 2,
      "note": 25,
      "start": 11.7649,
      "duration": 0.149,
      "velocity": 109,
      "chip": "ym2612"
    },
    {
      "channel": 3,
      "note": 82,
      "start": 11.9074,
      "duration": 0.1505,
      "velocity": 97,
      "chip": "ym2612"
    },
    {
      "channel": 4,
      "note": 72,
      "start": 11.9109,
      "duration": 0.1505,
      "velocity": 100,
      "chip": "ym2612"
    },
    {
      "channel": 2,
      "note": 25,
      "start": 11.9145,
      "duration": 0.151,
      "velocity": 109,
      "chip": "ym2612"
    },
    {
      "channel": 0,
      "note": 73,
      "start": 12.057,
      "duration": 0.1494,
      "velocity": 102,
      "chip": "ym2612"
    },
    {
      "channel": 1,
      "note": 51,
      "start": 12.0578,
      "duration": 0.599,
      "velocity": 106,
      "chip": "ym2612"
    },
    {
      "channel": 3,
      "note": 63,
      "start": 12.0585,
      "duration": 0.299,
      "velocity": 97,
      "chip": "ym2612"
    },
    {
      "channel": 4,
      "note": 72,
      "start": 12.062,
      "duration": 0.2989,
      "velocity": 100,
      "chip": "ym2612"
    },
    {
      "channel": 2,
      "note": 25,
      "start": 12.066,
      "duration": 0.1451,
      "velocity": 1,
      "chip": "ym2612"
    },
    {
      "channel": 0,
      "note": 70,
      "start": 12.207,
      "duration": 0.1494,
      "velocity": 102,
      "chip": "ym2612"
    },
    {
      "channel": 2,
      "note": 75,
      "start": 12.2118,
      "duration": 0.1528,
      "velocity": 1,
      "chip": "ym2612"
    },
    {
      "channel": 0,
      "note": 73,
      "start": 12.357,
      "duration": 0.1494,
      "velocity": 102,
      "chip": "ym2612"
    },
    {
      "channel": 3,
      "note": 66,
      "start": 12.3581,
      "duration": 0.2994,
      "velocity": 97,
      "chip": "ym2612"
    },
    {
      "channel": 4,
      "note": 72,
      "start": 12.3615,
      "duration": 0.149,
      "velocity": 100,
      "chip": "ym2612"
    },
    {
      "channel": 2,
      "note": 75,
      "start": 12.3652,
      "duration": 0.149,
      "velocity": 1,
      "chip": "ym2612"
    },
    {
      "channel": 0,
      "note": 75,
      "start": 12.507,
      "duration": 0.2994,
      "velocity": 102,
      "chip": "ym2612"
    },
    {
      "channel": 4,
      "note": 72,
      "start": 12.5111,
      "duration": 0.1498,
      "velocity": 100,
      "chip": "ym2612"
    },
    {
      "channel": 2,
      "note": 75,
      "start": 12.5148,
      "duration": 0.1505,
      "velocity": 120,
      "chip": "ym2612"
    },
    {
      "channel": 1,
      "note": 51,
      "start": 12.6573,
      "duration": 0.1498,
      "velocity": 106,
      "chip": "ym2612"
    },
    {
      "channel": 3,
      "note": 82,
      "start": 12.6581,
      "duration": 0.1496,
      "velocity": 97,
      "chip": "ym2612"
    },
    {
      "channel": 4,
      "note": 72,
      "start": 12.6616,
      "duration": 0.2989,
      "velocity": 100,
      "chip": "ym2612"
    },
    {
      "channel": 5,
      "note": 78,
      "start": 12.6624,
      "duration": 0.4496,
      "velocity": 97,
      "chip": "ym2612"
    },
    {
      "channel": 2,
      "note": 72,
      "start": 12.666,
      "duration": 0.1431,
      "velocity": 120,
      "chip": "ym2612"
    },
    {
      "channel": 0,
      "note": 73,
      "start": 12.807,
      "duration": 0.1494,
      "velocity": 102,
      "chip": "ym2612"
    },
    {
      "channel": 1,
      "note": 51,
      "start": 12.8076,
      "duration": 0.2995,
      "velocity": 106,
      "chip": "ym2612"
    },
    {
      "channel": 3,
      "note": 82,
      "start": 12.8082,
      "duration": 0.2995,
      "velocity": 97,
      "chip": "ym2612"
    },
    {
      "channel": 0,
      "note": 70,
      "start": 12.957,
      "duration": 0.1494,
      "velocity": 102,
      "chip": "ym2612"
    },
    {
      "channel": 4,
      "note": 72,
      "start": 12.9611,
      "duration": 0.1501,
      "velocity": 100,
      "chip": "ym2612"
    },
    {
      "channel": 0,
      "note": 73,
      "start": 13.107,
      "duration": 0.1494,
      "velocity": 102,
      "chip": "ym2612"
    },
    {
      "channel": 1,
      "note": 51,
      "start": 13.1076,
      "duration": 0.149,
      "velocity": 106,
      "chip": "ym2612"
    },
    {
      "channel": 3,
      "note": 84,
      "start": 13.1084,
      "duration": 0.2981,
      "velocity": 97,
      "chip": "ym2612"
    },
    {
      "channel": 4,
      "note": 72,
      "start": 13.1118,
      "duration": 0.1483,
      "velocity": 100,
      "chip": "ym2612"
    },
    {
      "channel": 5,
      "note": 80,
      "start": 13.1126,
      "duration": 0.5983,
      "velocity": 97,
      "chip": "ym2612"
    },
    {
      "channel": 4,
      "note": 72,
      "start": 13.2607,
      "duration": 0.2999,
      "velocity": 100,
      "chip": "ym2612"
    },
    {
      "channel": 2,
      "note": 25,
      "start": 13.2646,
      "duration": 0.1462,
      "velocity": 109,
      "chip": "ym2612"
    },
    {
      "channel": 3,
      "note": 82,
      "start": 13.4071,
      "duration": 0.1501,
      "velocity": 97,
      "chip": "ym2612"
    },
    {
      "channel": 2,
      "note": 25,
      "start": 13.4115,
      "duration": 0.1503,
      "velocity": 109,
      "chip": "ym2612"
    },
    {
      "channel": 0,
      "note": 73,
      "start": 13.557,
      "duration": 0.1494,
      "velocity": 102,
      "chip": "ym2612"
    },
    {
      "channel": 3,
      "note": 78,
      "start": 13.5578,
      "duration": 0.1489,
      "velocity": 97,
      "chip": "ym2612"
    },
    {
      "channel": 4,
      "note": 72,
      "start": 13.5613,
      "duration": 0.1489,
      "velocity": 100,
      "chip": "ym2612"
    },
    {
      "channel": 3,
      "note": 66,
      "start": 13.7074,
      "duration": 0.2994,
      "velocity": 97,
      "chip": "ym2612"
    },
    {
      "channel": 4,
      "note": 72,
      "start": 13.7107,
      "duration": 0.1495,
      "velocity": 100,
      "chip": "ym2612"
    },
    {
      "channel": 5,
      "note": 63,
      "start": 13.7116,
      "duration": 0.1495,
      "velocity": 97,
      "chip": "ym2612"
    },
    {
      "channel": 0,
      "note": 73,
      "start": 13.857,
      "duration": 0.1494,
      "velocity": 102,
      "chip": "ym2612"
    },
    {
      "channel": 4,
      "note": 72,
      "start": 13.8609,
      "duration": 0.2998,
      "velocity": 100,
      "chip": "ym2612"
    },
    {
      "channel": 2,
      "note": 72,
      "start": 13.8648,
      "duration": 0.1431,
      "velocity": 120,
      "chip": "ym2612"
    },
    {
      "channel": 3,
      "note": 77,
      "start": 14.0074,
      "duration": 0.1498,
      "velocity": 97,
      "chip": "ym2612"
    },
    {
      "channel": 0,
      "note": 75,
      "start": 14.157,
      "duration": 0.1494,
      "velocity": 102,
      "chip": "ym2612"
    },
    {
      "channel": 3,
      "note": 78,
      "start": 14.1578,
      "duration": 0.1489,
      "velocity": 97,
      "chip": "ym2612"
    },
    {
      "channel": 4,
      "note": 72,
      "start": 14.1613,
      "duration": 0.1489,
      "velocity": 100,
      "chip": "ym2612"
    },
    {
      "channel": 2,
      "note": 25,
      "start": 14.1649,
      "duration": 0.149,
      "velocity": 109,
      "chip": "ym2612"
    },
    {
      "channel": 3,
      "note": 87,
      "start": 14.3074,
      "duration": 0.1533,
      "velocity": 97,
      "chip": "ym2612"
    },
    {
      "channel": 4,
      "note": 72,
      "start": 14.3108,
      "duration": 0.1533,
      "velocity": 100,
      "chip": "ym2612"
    },
    {
      "channel": 2,
      "note": 25,
      "start": 14.3144,
      "duration": 0.1538,
      "velocity": 109,
      "chip": "ym2612"
    },
    {
      "channel": 0,
      "note": 77,
      "start": 14.457,
      "duration": 0.1494,
      "velocity": 102,
      "chip": "ym2612"
    },
    {
      "channel": 1,
      "note": 51,
      "start": 14.4578,
      "duration": 0.1489,
      "velocity": 106,
      "chip": "ym2612"
    },
    {
      "channel": 3,
      "note": 63,
      "start": 14.4613,
      "duration": 0.2959,
      "velocity": 97,
      "chip": "ym2612"
    },
    {
      "channel": 4,
      "note": 72,
      "start": 14.4648,
      "duration": 0.2958,
      "velocity": 100,
      "chip": "ym2612"
    },
    {
      "channel": 2,
      "note": 25,
      "start": 14.4688,
      "duration": 0.1421,
      "velocity": 1,
      "chip": "ym2612"
    },
    {
      "channel": 1,
      "note": 51,
      "start": 14.6071,
      "duration": 0.1493,
      "velocity": 106,
      "chip": "ym2612"
    },
    {
      "channel": 2,
      "note": 75,
      "start": 14.6116,
      "duration": 0.1527,
      "velocity": 1,
      "chip": "ym2612"
    },
    {
      "channel": 1,
      "note": 58,
      "start": 14.7571,
      "duration": 0.1494,
      "velocity": 106,
      "chip": "ym2612"
    },
    {
      "channel": 3,
      "note": 66,
      "start": 14.7578,
      "duration": 0.2989,
      "velocity": 97,
      "chip": "ym2612"
    },
    {
      "channel": 4,
      "note": 72,
      "start": 14.7612,
      "duration": 0.149,
      "velocity": 100,
      "chip": "ym2612"
    },
    {
      "channel": 2,
      "note": 75,
      "start": 14.7649,
      "duration": 0.149,
      "velocity": 1,
      "chip": "ym2612"
    },
    {
      "channel": 1,
      "note": 51,
      "start": 14.9071,
      "duration": 0.1494,
      "velocity": 106,
      "chip": "ym2612"
    },
    {
      "channel": 4,
      "note": 72,
      "start": 14.9108,
      "duration": 0.1494,
      "velocity": 100,
      "chip": "ym2612"
    },
    {
      "channel": 2,
      "note": 75,
      "start": 14.9145,
      "duration": 0.1501,
      "velocity": 120,
      "chip": "ym2612"
    },
    {
      "channel": 3,
      "note": 82,
      "start": 15.0574,
      "duration": 0.1491,
      "velocity": 97,
      "chip": "ym2612"
    },
    {
      "channel": 4,
      "note": 72,
      "start": 15.0609,
      "duration": 0.2994,
      "velocity": 100,
      "chip": "ym2612"
    },
    {
      "channel": 5,
      "note": 78,
      "start": 15.0617,
      "duration": 0.4493,
      "velocity": 97,
      "chip": "ym2612"
    },
    {
      "channel": 2,
      "note": 72,
      "start": 15.0653,
      "duration": 0.1426,
      "velocity": 120,
      "chip": "ym2612"
    },
    {
      "channel": 3,
      "note": 82,
      "start": 15.207,
      "duration": 0.2998,
      "velocity": 97,
      "chip": "ym2612"
    },
    {
      "channel": 0,
      "note": 75,
      "start": 15.357,
      "duration": 0.1494,
      "velocity": 102,
      "chip": "ym2612"
    },
    {
      "channel": 4,
      "note": 72,
      "start": 15.3608,
      "duration": 0.1494,
      "velocity": 100,
      "chip": "ym2612"
    },
    {
      "channel": 3,
      "note": 84,
      "start": 15.5074,
      "duration": 0.2991,
      "velocity": 97,
      "chip": "ym2612"
    },
    {
      "channel": 4,
      "note": 72,
      "start": 15.5108,
      "duration": 0.1487,
      "velocity": 100,
      "chip": "ym2612"
    },
    {
      "channel": 5,
      "note": 80,
      "start": 15.5116,
      "duration": 0.5998,
      "velocity": 97,
      "chip": "ym2612"
    },
    {
      "channel": 4,
      "note": 72,
      "start": 15.6602,
      "duration": 0.2998,
      "velocity": 100,
      "chip": "ym2612"
    },
    {
      "channel": 2,
      "note": 25,
      "start": 15.6641,
      "duration": 0.1467,
      "velocity": 109,
      "chip": "ym2612"
    },
    {
      "channel": 3,
      "note": 82,
      "start": 15.8071,
      "duration": 0.1494,
      "velocity": 97,
      "chip": "ym2612"
    },
    {
      "channel": 2,
      "note": 25,
      "start": 15.8115,
      "duration": 0.1496,
      "velocity": 109,
      "chip": "ym2612"
    },
    {
      "channel": 3,
      "note": 78,
      "start": 15.9571,
      "duration": 0.1501,
      "velocity": 97,
      "chip": "ym2612"
    },
    {
      "channel": 4,
      "note": 72,
      "start": 15.9606,
      "duration": 0.1501,
      "velocity": 100,
      "chip": "ym2612"
    },
    {
      "channel": 1,
      "note": 53,
      "start": 16.1071,
      "duration": 0.1494,
      "velocity": 106,
      "chip": "ym2612"
    },
    {
      "channel": 3,
      "note": 66,
      "start": 16.1078,
      "duration": 0.299,
      "velocity": 97,
      "chip": "ym2612"
    },
    {
      "channel": 4,
      "note": 72,
      "start": 16.1113,
      "duration": 0.1488,
      "velocity": 100,
      "chip": "ym2612"
    },
    {
      "channel": 5,
      "note": 63,
      "start": 16.112,
      "duration": 0.1489,
      "velocity": 97,
      "chip": "ym2612"
    },
    {
      "channel": 1,
      "note": 53,
      "start": 16.2569,
      "duration": 0.2996,
      "velocity": 106,
      "chip": "ym2612"
    },
    {
      "channel": 4,
      "note": 72,
      "start": 16.2607,
      "duration": 0.2999,
      "velocity": 100,
      "chip": "ym2612"
    },
    {
      "channel": 2,
      "note": 72,
      "start": 16.2647,
      "duration": 0.1433,
      "velocity": 120,
      "chip": "ym2612"
    },
    {
      "channel": 3,
      "note": 77,
      "start": 16.4074,
      "duration": 0.1498,
      "velocity": 97,
      "chip": "ym2612"
    },
    {
      "channel": 1,
      "note": 58,
      "start": 16.5571,
      "duration": 0.2994,
      "velocity": 106,
      "chip": "ym2612"
    },
    {
      "channel": 3,
      "note": 78,
      "start": 16.5578,
      "duration": 0.149,
      "velocity": 97,
      "chip": "ym2612"
    },
    {
      "channel": 4,
      "note": 72,
      "start": 16.5613,
      "duration": 0.149,
      "velocity": 100,
      "chip": "ym2612"
    },
    {
      "channel": 2,
      "note": 25,
      "start": 16.5649,
      "duration": 0.149,
      "velocity": 109,
      "chip": "ym2612"
    },
    {
      "channel": 3,
      "note": 82,
      "start": 16.7074,
      "duration": 0.1498,
      "velocity": 97,
      "chip": "ym2612"
    },
    {
      "channel": 4,
      "note": 72,
      "start": 16.7109,
      "duration": 0.1498,
      "velocity": 100,
      "chip": "ym2612"
    },
    {
      "channel": 2,
      "note": 25,
      "start": 16.7145,
      "duration": 0.1529,
      "velocity": 109,
      "chip": "ym2612"
    },
    {
      "channel": 1,
      "note": 51,
      "start": 16.8571,
      "duration": 0.5994,
      "velocity": 106,
      "chip": "ym2612"
    },
    {
      "channel": 3,
      "note": 63,
      "start": 16.8578,
      "duration": 0.299,
      "velocity": 97,
      "chip": "ym2612"
    },
    {
      "channel": 4,
      "note": 72,
      "start": 16.8613,
      "duration": 0.2989,
      "velocity": 100,
      "chip": "ym2612"
    },
    {
      "channel": 2,
      "note": 25,
      "start": 16.8679,
      "duration": 0.1425,
      "velocity": 1,
      "chip": "ym2612"
    },
    {
      "channel": 2,
      "note": 75,
      "start": 17.0111,
      "duration": 0.1528,
      "velocity": 1,
      "chip": "ym2612"
    },
    {
      "channel": 3,
      "note": 66,
      "start": 17.1574,
      "duration": 0.2998,
      "velocity": 97,
      "chip": "ym2612"
    },
    {
      "channel": 4,
      "note": 72,
      "start": 17.1608,
      "duration": 0.149,
      "velocity": 100,
      "chip": "ym2612"
    },
    {
      "channel": 2,
      "note": 75,
      "start": 17.1645,
      "duration": 0.149,
      "velocity": 1,
      "chip": "ym2612"
    },
    {
      "channel": 4,
      "note": 72,
      "start": 17.3104,
      "duration": 0.1503,
      "velocity": 100,
      "chip": "ym2612"
    },
    {
      "channel": 2,
      "note": 75,
      "start": 17.3141,
      "duration": 0.1502,
      "velocity": 120,
      "chip": "ym2612"
    },
    {
      "channel": 1,
      "note": 51,
      "start": 17.4571,
      "duration": 0.1494,
      "velocity": 106,
      "chip": "ym2612"
    },
    {
      "channel": 3,
      "note": 82,
      "start": 17.4578,
      "duration": 0.1493,
      "velocity": 97,
      "chip": "ym2612"
    },
    {
      "channel": 4,
      "note": 72,
      "start": 17.4613,
      "duration": 0.2985,
      "velocity": 100,
      "chip": "ym2612"
    },
    {
      "channel": 2,
      "note": 72,
      "start": 17.465,
      "duration": 0.1431,
      "velocity": 120,
      "chip": "ym2612"
    },
    {
      "channel": 1,
      "note": 51,
      "start": 17.6069,
      "duration": 0.2996,
      "velocity": 106,
      "chip": "ym2612"
    },
    {
      "channel": 3,
      "note": 82,
      "start": 17.6075,
      "duration": 0.2996,
      "velocity": 97,
      "chip": "ym2612"
    },
    {
      "channel": 4,
      "note": 72,
      "start": 17.7604,
      "duration": 0.1501,
      "velocity": 100,
      "chip": "ym2612"
    },
    {
      "channel": 1,
      "note": 51,
      "start": 17.9069,
      "duration": 0.1496,
      "velocity": 106,
      "chip": "ym2612"
    },
    {
      "channel": 3,
      "note": 84,
      "start": 17.9077,
      "duration": 0.3024,
      "velocity": 97,
      "chip": "ym2612"
    },
    {
      "channel": 4,
      "note": 72,
      "start": 17.9111,
      "duration": 0.1487,
      "velocity": 100,
      "chip": "ym2612"
    },
    {
      "channel": 4,
      "note": 72,
      "start": 18.0604,
      "duration": 0.3002,
      "velocity": 100,
      "chip": "ym2612"
    },
    {
      "channel": 2,
      "note": 25,
      "start": 18.0641,
      "duration": 0.1507,
      "velocity": 109,
      "chip": "ym2612"
    },
    {
      "channel": 0,
      "note": 85,
      "start": 18.2099,
      "duration": 0.0465,
      "velocity": 102,
      "chip": "ym2612"
    },
    {
      "channel": 3,
      "note": 82,
      "start": 18.2107,
      "duration": 0.1465,
      "velocity": 97,
      "chip": "ym2612"
    },
    {
      "channel": 5,
      "note": 89,
      "start": 18.2119,
      "duration": 0.0456,
      "velocity": 102,
      "chip": "ym2612"
    },
    {
      "channel": 2,
      "note": 25,
      "start": 18.2155,
      "duration": 0.1468,
      "velocity": 109,
      "chip": "ym2612"
    },
    {
      "channel": 0,
      "note": 85,
      "start": 18.357,
      "duration": 0.0494,
      "velocity": 102,
      "chip": "ym2612"
    },
    {
      "channel": 3,
      "note": 78,
      "start": 18.3578,
      "duration": 0.1494,
      "velocity": 97,
      "chip": "ym2612"
    },
    {
      "channel": 4,
      "note": 72,
      "start": 18.3613,
      "duration": 0.1494,
      "velocity": 100,
      "chip": "ym2612"
    },
    {
      "channel": 5,
      "note": 89,
      "start": 18.362,
      "duration": 0.0455,
      "velocity": 102,
      "chip": "ym2612"
    },
    {
      "channel": 0,
      "note": 85,
      "start": 18.507,
      "duration": 0.0494,
      "velocity": 102,
      "chip": "ym2612"
    },
    {
      "channel": 3,
      "note": 66,
      "start": 18.5078,
      "duration": 0.299,
      "velocity": 97,
      "chip": "ym2612"
    },
    {
      "channel": 4,
      "note": 72,
      "start": 18.5113,
      "duration": 0.149,
      "velocity": 100,
      "chip": "ym2612"
    },
    {
      "channel": 5,
      "note": 89,
      "start": 18.512,
      "duration": 0.0455,
      "velocity": 102,
      "chip": "ym2612"
    },
    {
      "channel": 0,
      "note": 89,
      "start": 18.657,
      "duration": 0.4494,
      "velocity": 102,
      "chip": "ym2612"
    },
    {
      "channel": 4,
      "note": 72,
      "start": 18.661,
      "duration": 0.2993,
      "velocity": 100,
      "chip": "ym2612"
    },
    {
      "channel": 5,
      "note": 85,
      "start": 18.6617,
      "duration": 0.4498,
      "velocity": 102,
      "chip": "ym2612"
    },
    {
      "channel": 2,
      "note": 72,
      "start": 18.6653,
      "duration": 0.143,
      "velocity": 120,
      "chip": "ym2612"
    },
    {
      "channel": 3,
      "note": 77,
      "start": 18.8074,
      "duration": 0.1494,
      "velocity": 97,
      "chip": "ym2612"
    },
    {
      "channel": 3,
      "note": 78,
      "start": 18.9574,
      "duration": 0.1498,
      "velocity": 97,
      "chip": "ym2612"
    },
    {
      "channel": 4,
      "note": 72,
      "start": 18.9608,
      "duration": 0.1499,
      "velocity": 100,
      "chip": "ym2612"
    },
    {
      "channel": 2,
      "note": 25,
      "start": 18.9648,
      "duration": 0.1502,
      "velocity": 109,
      "chip": "ym2612"
    },
    {
      "channel": 0,
      "note": 85,
      "start": 19.107,
      "duration": 0.0994,
      "velocity": 102,
      "chip": "ym2612"
    },
    {
      "channel": 3,
      "note": 87,
      "start": 19.1079,
      "duration": 0.1557,
      "velocity": 97,
      "chip": "ym2612"
    },
    {
      "channel": 4,
      "note": 72,
      "start": 19.1113,
      "duration": 0.1557,
      "velocity": 100,
      "chip": "ym2612"
    },
    {
      "channel": 5,
      "note": 82,
      "start": 19.1121,
      "duration": 0.0954,
      "velocity": 102,
      "chip": "ym2612"
    },
    {
      "channel": 2,
      "note": 25,
      "start": 19.1156,
      "duration": 0.158,
      "velocity": 109,
      "chip": "ym2612"
    },
    {
      "channel": 0,
      "note": 73,
      "start": 19.2599,
      "duration": 0.1632,
      "velocity": 102,
      "chip": "ym2612"
    },
    {
      "channel": 1,
      "note": 51,
      "start": 19.2607,
      "duration": 0.1631,
      "velocity": 106,
      "chip": "ym2612"
    },
    {
      "channel": 3,
      "note": 63,
      "start": 19.2641,
      "duration": 0.3104,
      "velocity": 97,
      "chip": "ym2612"
    },
    {
      "channel": 4,
      "note": 72,
      "start": 19.2676,
      "duration": 0.3103,
      "velocity": 100,
      "chip": "ym2612"
    },
    {
      "channel": 2,
      "note": 25,
      "start": 19.2742,
      "duration": 0.1538,
      "velocity": 1,
      "chip": "ym2612"
    },
    {
      "channel": 0,
      "note": 70,
      "start": 19.4237,
      "duration": 0.1494,
      "velocity": 102,
      "chip": "ym2612"
    },
    {
      "channel": 1,
      "note": 51,
      "start": 19.4242,
      "duration": 0.1495,
      "velocity": 106,
      "chip": "ym2612"
    },
    {
      "channel": 2,
      "note": 75,
      "start": 19.4287,
      "duration": 0.1529,
      "velocity": 1,
      "chip": "ym2612"
    },
    {
      "channel": 0,
      "note": 73,
      "start": 19.5737,
      "duration": 0.1494,
      "velocity": 102,
      "chip": "ym2612"
    },
    {
      "channel": 1,
      "note": 58,
      "start": 19.5744,
      "duration": 0.1494,
      "velocity": 106,
      "chip": "ym2612"
    },
    {
      "channel": 3,
      "note": 66,
      "start": 19.5752,
      "duration": 0.2985,
      "velocity": 97,
      "chip": "ym2612"
    },
    {
      "channel": 4,
      "note": 72,
      "start": 19.5786,
      "duration": 0.149,
      "velocity": 100,
      "chip": "ym2612"
    },
    {
      "channel": 2,
      "note": 75,
      "start": 19.5823,
      "duration": 0.149,
      "velocity": 1,
      "chip": "ym2612"
    },
    {
      "channel": 0,
      "note": 75,
      "start": 19.7237,
      "duration": 0.2994,
      "velocity": 102,
      "chip": "ym2612"
    },
    {
      "channel": 1,
      "note": 51,
      "start": 19.7244,
      "duration": 0.149,
      "velocity": 106,
      "chip": "ym2612"
    },
    {
      "channel": 4,
      "note": 72,
      "start": 19.7282,
      "duration": 0.149,
      "velocity": 100,
      "chip": "ym2612"
    },
    {
      "channel": 2,
      "note": 75,
      "start": 19.7319,
      "duration": 0.1497,
      "velocity": 120,
      "chip": "ym2612"
    },
    {
      "channel": 3,
      "note": 82,
      "start": 19.8744,
      "duration": 0.1495,
      "velocity": 97,
      "chip": "ym2612"
    },
    {
      "channel": 4,
      "note": 72,
      "start": 19.8778,
      "duration": 0.299,
      "velocity": 100,
      "chip": "ym2612"
    },
    {
      "channel": 5,
      "note": 78,
      "start": 19.8786,
      "duration": 0.4494,
      "velocity": 97,
      "chip": "ym2612"
    },
    {
      "channel": 2,
      "note": 72,
      "start": 19.8822,
      "duration": 0.1431,
      "velocity": 120,
      "chip": "ym2612"
    },
    {
      "channel": 0,
      "note": 73,
      "start": 20.0237,
      "duration": 0.1494,
      "velocity": 102,
      "chip": "ym2612"
    },
    {
      "channel": 3,
      "note": 82,
      "start": 20.0244,
      "duration": 0.2995,
      "velocity": 97,
      "chip": "ym2612"
    },
    {
      "channel": 0,
      "note": 70,
      "start": 20.1737,
      "duration": 0.1494,
      "velocity": 102,
      "chip": "ym2612"
    },
    {
      "channel": 4,
      "note": 72,
      "start": 20.1775,
      "duration": 0.1498,
      "velocity": 100,
      "chip": "ym2612"
    },
    {
      "channel": 0,
      "note": 73,
      "start": 20.3237,
      "duration": 0.1494,
      "velocity": 102,
      "chip": "ym2612"
    },
    {
      "channel": 3,
      "note": 84,
      "start": 20.3245,
      "duration": 0.2987,
      "velocity": 97,
      "chip": "ym2612"
    },
    {
      "channel": 4,
      "note": 72,
      "start": 20.3279,
      "duration": 0.1485,
      "velocity": 100,
      "chip": "ym2612"
    },
    {
      "channel": 5,
      "note": 80,
      "start": 20.3287,
      "duration": 0.5994,
      "velocity": 97,
      "chip": "ym2612"
    },
    {
      "channel": 4,
      "note": 72,
      "start": 20.4771,
      "duration": 0.2995,
      "velocity": 100,
      "chip": "ym2612"
    },
    {
      "channel": 2,
      "note": 25,
      "start": 20.481,
      "duration": 0.1464,
      "velocity": 109,
      "chip": "ym2612"
    },
    {
      "channel": 3,
      "note": 82,
      "start": 20.6238,
      "duration": 0.1494,
      "velocity": 97,
      "chip": "ym2612"
    },
    {
      "channel": 2,
      "note": 25,
      "start": 20.6281,
      "duration": 0.1496,
      "velocity": 109,
      "chip": "ym2612"
    },
    {
      "channel": 3,
      "note": 78,
      "start": 20.7738,
      "duration": 0.1501,
      "velocity": 97,
      "chip": "ym2612"
    },
    {
      "channel": 4,
      "note": 72,
      "start": 20.7772,
      "duration": 0.1501,
      "velocity": 100,
      "chip": "ym2612"
    },
    {
      "channel": 1,
      "note": 53,
      "start": 20.9237,
      "duration": 0.1494,
      "velocity": 106,
      "chip": "ym2612"
    },
    {
      "channel": 3,
      "note": 66,
      "start": 20.9245,
      "duration": 0.299,
      "velocity": 97,
      "chip": "ym2612"
    },
    {
      "channel": 4,
      "note": 72,
      "start": 20.9279,
      "duration": 0.1488,
      "velocity": 100,
      "chip": "ym2612"
    },
    {
      "channel": 5,
      "note": 63,
      "start": 20.9287,
      "duration": 0.1489,
      "velocity": 97,
      "chip": "ym2612"
    },
    {
      "channel": 1,
      "note": 53,
      "start": 21.0735,
      "duration": 0.2996,
      "velocity": 106,
      "chip": "ym2612"
    },
    {
      "channel": 4,
      "note": 72,
      "start": 21.0774,
      "duration": 0.2999,
      "velocity": 100,
      "chip": "ym2612"
    },
    {
      "channel": 2,
      "note": 72,
      "start": 21.0814,
      "duration": 0.1433,
      "velocity": 120,
      "chip": "ym2612"
    },
    {
      "channel": 3,
      "note": 77,
      "start": 21.2241,
      "duration": 0.1498,
      "velocity": 97,
      "chip": "ym2612"
    },
    {
      "channel": 1,
      "note": 58,
      "start": 21.3737,
      "duration": 0.3,
      "velocity": 106,
      "chip": "ym2612"
    },
    {
      "channel": 3,
      "note": 78,
      "start": 21.3745,
      "duration": 0.149,
      "velocity": 97,
      "chip": "ym2612"
    },
    {
      "channel": 4,
      "note": 72,
      "start": 21.3779,
      "duration": 0.149,
      "velocity": 100,
      "chip": "ym2612"
    },
    {
      "channel": 2,
      "note": 25,
      "start": 21.3816,
      "duration": 0.149,
      "velocity": 109,
      "chip": "ym2612"
    },
    {
      "channel": 3,
      "note": 82,
      "start": 21.5241,
      "duration": 0.1505,
      "velocity": 97,
      "chip": "ym2612"
    },
    {
      "channel": 4,
      "note": 72,
      "start": 21.5276,
      "duration": 0.1505,
      "velocity": 100,
      "chip": "ym2612"
    },
    {
      "channel": 2,
      "note": 25,
      "start": 21.5312,
      "duration": 0.151,
      "velocity": 109,
      "chip": "ym2612"
    },
    {
      "channel": 0,
      "note": 73,
      "start": 21.6737,
      "duration": 0.1494,
      "velocity": 102,
      "chip": "ym2612"
    },
    {
      "channel": 1,
      "note": 51,
      "start": 21.6744,
      "duration": 0.599,
      "velocity": 106,
      "chip": "ym2612"
    },
    {
      "channel": 3,
      "note": 63,
      "start": 21.6752,
      "duration": 0.299,
      "velocity": 97,
      "chip": "ym2612"
    },
    {
      "channel": 4,
      "note": 72,
      "start": 21.6787,
      "duration": 0.2989,
      "velocity": 100,
      "chip": "ym2612"
    },
    {
      "channel": 2,
      "note": 25,
      "start": 21.6827,
      "duration": 0.1451,
      "velocity": 1,
      "chip": "ym2612"
    },
    {
      "channel": 0,
      "note": 70,
      "start": 21.8237,
      "duration": 0.1494,
      "velocity": 102,
      "chip": "ym2612"
    },
    {
      "channel": 2,
      "note": 75,
      "start": 21.8284,
      "duration": 0.1528,
      "velocity": 1,
      "chip": "ym2612"
    },
    {
      "channel": 0,
      "note": 73,
      "start": 21.9737,
      "duration": 0.1494,
      "velocity": 102,
      "chip": "ym2612"
    },
    {
      "channel": 3,
      "note": 66,
      "start": 21.9747,
      "duration": 0.2994,
      "velocity": 97,
      "chip": "ym2612"
    },
    {
      "channel": 4,
      "note": 72,
      "start": 21.9782,
      "duration": 0.149,
      "velocity": 100,
      "chip": "ym2612"
    },
    {
      "channel": 2,
      "note": 75,
      "start": 21.9819,
      "duration": 0.149,
      "velocity": 1,
      "chip": "ym2612"
    },
    {
      "channel": 0,
      "note": 75,
      "start": 22.1237,
      "duration": 0.2994,
      "velocity": 102,
      "chip": "ym2612"
    },
    {
      "channel": 4,
      "note": 72,
      "start": 22.1278,
      "duration": 0.1498,
      "velocity": 100,
      "chip": "ym2612"
    },
    {
      "channel": 2,
      "note": 75,
      "start": 22.1315,
      "duration": 0.1505,
      "velocity": 120,
      "chip": "ym2612"
    },
    {
      "channel": 1,
      "note": 51,
      "start": 22.274,
      "duration": 0.1498,
      "velocity": 106,
      "chip": "ym2612"
    },
    {
      "channel": 3,
      "note": 82,
      "start": 22.2748,
      "duration": 0.1496,
      "velocity": 97,
      "chip": "ym2612"
    },
    {
      "channel": 4,
      "note": 72,
      "start": 22.2783,
      "duration": 0.2989,
      "velocity": 100,
      "chip": "ym2612"
    },
    {
      "channel": 5,
      "note": 78,
      "start": 22.2791,
      "duration": 0.4496,
      "velocity": 97,
      "chip": "ym2612"
    },
    {
      "channel": 2,
      "note": 72,
      "start": 22.2826,
      "duration": 0.1431,
      "velocity": 120,
      "chip": "ym2612"
    },
    {
      "channel": 0,
      "note": 73,
      "start": 22.4237,
      "duration": 0.1494,
      "velocity": 102,
      "chip": "ym2612"
    },
    {
      "channel": 1,
      "note": 51,
      "start": 22.4243,
      "duration": 0.2995,
      "velocity": 106,
      "chip": "ym2612"
    },
    {
      "channel": 3,
      "note": 82,
      "start": 22.4249,
      "duration": 0.2995,
      "velocity": 97,
      "chip": "ym2612"
    },
    {
      "channel": 0,
      "note": 70,
      "start": 22.5737,
      "duration": 0.1494,
      "velocity": 102,
      "chip": "ym2612"
    },
    {
      "channel": 4,
      "note": 72,
      "start": 22.5778,
      "duration": 0.1501,
      "velocity": 100,
      "chip": "ym2612"
    },
    {
      "channel": 0,
      "note": 73,
      "start": 22.7237,
      "duration": 0.1494,
      "velocity": 102,
      "chip": "ym2612"
    },
    {
      "channel": 1,
      "note": 51,
      "start": 22.7243,
      "duration": 0.149,
      "velocity": 106,
      "chip": "ym2612"
    },
    {
      "channel": 3,
      "note": 84,
      "start": 22.7251,
      "duration": 0.2981,
      "velocity": 97,
      "chip": "ym2612"
    },
    {
      "channel": 4,
      "note": 72,
      "start": 22.7284,
      "duration": 0.1483,
      "velocity": 100,
      "chip": "ym2612"
    },
    {
      "channel": 5,
      "note": 80,
      "start": 22.7293,
      "duration": 0.5983,
      "velocity": 97,
      "chip": "ym2612"
    },
    {
      "channel": 4,
      "note": 72,
      "start": 22.8774,
      "duration": 0.2999,
      "velocity": 100,
      "chip": "ym2612"
    },
    {
      "channel": 2,
      "note": 25,
      "start": 22.8813,
      "duration": 0.1462,
      "velocity": 109,
      "chip": "ym2612"
    },
    {
      "channel": 3,
      "note": 82,
      "start": 23.0238,
      "duration": 0.1501,
      "velocity": 97,
      "chip": "ym2612"
    },
    {
      "channel": 2,
      "note": 25,
      "start": 23.0281,
      "duration": 0.1503,
      "velocity": 109,
      "chip": "ym2612"
    },
    {
      "channel": 0,
      "note": 73,
      "start": 23.1737,
      "duration": 0.1494,
      "velocity": 102,
      "chip": "ym2612"
    },
    {
      "channel": 3,
      "note": 78,
      "start": 23.1745,
      "duration": 0.1489,
      "velocity": 97,
      "chip": "ym2612"
    },
    {
      "channel": 4,
      "note": 72,
      "start": 23.1779,
      "duration": 0.1489,
      "velocity": 100,
      "chip": "ym2612"
    },
    {
      "channel": 3,
      "note": 66,
      "start": 23.3241,
      "duration": 0.2994,
      "velocity": 97,
      "chip": "ym2612"
    },
    {
      "channel": 4,
      "note": 72,
      "start": 23.3274,
      "duration": 0.1495,
      "velocity": 100,
      "chip": "ym2612"
    },
    {
      "channel": 5,
      "note": 63,
      "start": 23.3283,
      "duration": 0.1495,
      "velocity": 97,
      "chip": "ym2612"
    },
    {
      "channel": 0,
      "note": 73,
      "start": 23.4737,
      "duration": 0.1494,
      "velocity": 102,
      "chip": "ym2612"
    },
    {
      "channel": 4,
      "note": 72,
      "start": 23.4776,
      "duration": 0.2998,
      "velocity": 100,
      "chip": "ym2612"
    },
    {
      "channel": 2,
      "note": 72,
      "start": 23.4815,
      "duration": 0.1432,
      "velocity": 120,
      "chip": "ym2612"
    },
    {
      "channel": 3,
      "note": 77,
      "start": 23.6241,
      "duration": 0.1498,
      "velocity": 97,
      "chip": "ym2612"
    },
    {
      "channel": 0,
      "note": 75,
      "start": 23.7737,
      "duration": 0.1494,
      "velocity": 102,
      "chip": "ym2612"
    },
    {
      "channel": 3,
      "note": 78,
      "start": 23.7745,
      "duration": 0.1489,
      "velocity": 97,
      "chip": "ym2612"
    },
    {
      "channel": 4,
      "note": 72,
      "start": 23.7779,
      "duration": 0.1489,
      "velocity": 100,
      "chip": "ym2612"
    },
    {
      "channel": 2,
      "note": 25,
      "start": 23.7816,
      "duration": 0.149,
      "velocity": 109,
      "chip": "ym2612"
    },
    {
      "channel": 3,
      "note": 87,
      "start": 23.9241,
      "duration": 0.1533,
      "velocity": 97,
      "chip": "ym2612"
    },
    {
      "channel": 4,
      "note": 72,
      "start": 23.9275,
      "duration": 0.1533,
      "velocity": 100,
      "chip": "ym2612"
    },
    {
      "channel": 2,
      "note": 25,
      "start": 23.9311,
      "duration": 0.1538,
      "velocity": 109,
      "chip": "ym2612"
    },
    {
      "channel": 0,
      "note": 77,
      "start": 24.0737,
      "duration": 0.1494,
      "velocity": 102,
      "chip": "ym2612"
    },
    {
      "channel": 1,
      "note": 51,
      "start": 24.0745,
      "duration": 0.1489,
      "velocity": 106,
      "chip": "ym2612"
    },
    {
      "channel": 3,
      "note": 63,
      "start": 24.078,
      "duration": 0.2959,
      "velocity": 97,
      "chip": "ym2612"
    },
    {
      "channel": 4,
      "note": 72,
      "start": 24.0814,
      "duration": 0.2958,
      "velocity": 100,
      "chip": "ym2612"
    },
    {
      "channel": 2,
      "note": 25,
      "start": 24.0855,
      "duration": 0.1421,
      "velocity": 1,
      "chip": "ym2612"
    },
    {
      "channel": 1,
      "note": 51,
      "start": 24.2238,
      "duration": 0.1493,
      "velocity": 106,
      "chip": "ym2612"
    },
    {
      "channel": 2,
      "note": 75,
      "start": 24.2283,
      "duration": 0.1527,
      "velocity": 1,
      "chip": "ym2612"
    },
    {
      "channel": 1,
      "note": 58,
      "start": 24.3737,
      "duration": 0.1494,
      "velocity": 106,
      "chip": "ym2612"
    },
    {
      "channel": 3,
      "note": 66,
      "start": 24.3745,
      "duration": 0.2989,
      "velocity": 97,
      "chip": "ym2612"
    },
    {
      "channel": 4,
      "note": 72,
      "start": 24.3779,
      "duration": 0.149,
      "velocity": 100,
      "chip": "ym2612"
    },
    {
      "channel": 2,
      "note": 75,
      "start": 24.3816,
      "duration": 0.149,
      "velocity": 1,
      "chip": "ym2612"
    },
    {
      "channel": 1,
      "note": 51,
      "start": 24.5237,
      "duration": 0.1494,
      "velocity": 106,
      "chip": "ym2612"
    },
    {
      "channel": 4,
      "note": 72,
      "start": 24.5275,
      "duration": 0.1494,
      "velocity": 100,
      "chip": "ym2612"
    },
    {
      "channel": 2,
      "note": 75,
      "start": 24.5312,
      "duration": 0.1501,
      "velocity": 120,
      "chip": "ym2612"
    },
    {
      "channel": 3,
      "note": 82,
      "start": 24.6741,
      "duration": 0.1491,
      "velocity": 97,
      "chip": "ym2612"
    },
    {
      "channel": 4,
      "note": 72,
      "start": 24.6776,
      "duration": 0.2994,
      "velocity": 100,
      "chip": "ym2612"
    },
    {
      "channel": 5,
      "note": 78,
      "start": 24.6783,
      "duration": 0.4493,
      "velocity": 97,
      "chip": "ym2612"
    },
    {
      "channel": 2,
      "note": 72,
      "start": 24.6819,
      "duration": 0.1426,
      "velocity": 120,
      "chip": "ym2612"
    },
    {
      "channel": 3,
      "note": 82,
      "start": 24.8237,
      "duration": 0.2998,
      "velocity": 97,
      "chip": "ym2612"
    },
    {
      "channel": 0,
      "note": 75,
      "start": 24.9737,
      "duration": 0.1494,
      "velocity": 102,
      "chip": "ym2612"
    },
    {
      "channel": 4,
      "note": 72,
      "start": 24.9775,
      "duration": 0.1494,
      "velocity": 100,
      "chip": "ym2612"
    },
    {
      "channel": 3,
      "note": 84,
      "start": 25.1241,
      "duration": 0.2991,
      "velocity": 97,
      "chip": "ym2612"
    },
    {
      "channel": 4,
      "note": 72,
      "start": 25.1275,
      "duration": 0.1487,
      "velocity": 100,
      "chip": "ym2612"
    },
    {
      "channel": 5,
      "note": 80,
      "start": 25.1283,
      "duration": 0.5998,
      "velocity": 97,
      "chip": "ym2612"
    },
    {
      "channel": 4,
      "note": 72,
      "start": 25.2768,
      "duration": 0.2998,
      "velocity": 100,
      "chip": "ym2612"
    },
    {
      "channel": 2,
      "note": 25,
      "start": 25.2808,
      "duration": 0.1467,
      "velocity": 109,
      "chip": "ym2612"
    },
    {
      "channel": 3,
      "note": 82,
      "start": 25.4238,
      "duration": 0.1494,
      "velocity": 97,
      "chip": "ym2612"
    },
    {
      "channel": 2,
      "note": 25,
      "start": 25.4281,
      "duration": 0.1496,
      "velocity": 109,
      "chip": "ym2612"
    },
    {
      "channel": 3,
      "note": 78,
      "start": 25.5738,
      "duration": 0.1501,
      "velocity": 97,
      "chip": "ym2612"
    },
    {
      "channel": 4,
      "note": 72,
      "start": 25.5772,
      "duration": 0.1501,
      "velocity": 100,
      "chip": "ym2612"
    },
    {
      "channel": 1,
      "note": 53,
      "start": 25.7237,
      "duration": 0.1494,
      "velocity": 106,
      "chip": "ym2612"
    },
    {
      "channel": 3,
      "note": 66,
      "start": 25.7245,
      "duration": 0.299,
      "velocity": 97,
      "chip": "ym2612"
    },
    {
      "channel": 4,
      "note": 72,
      "start": 25.7279,
      "duration": 0.1488,
      "velocity": 100,
      "chip": "ym2612"
    },
    {
      "channel": 5,
      "note": 63,
      "start": 25.7287,
      "duration": 0.1489,
      "velocity": 97,
      "chip": "ym2612"
    },
    {
      "channel": 1,
      "note": 53,
      "start": 25.8735,
      "duration": 0.2996,
      "velocity": 106,
      "chip": "ym2612"
    },
    {
      "channel": 4,
      "note": 72,
      "start": 25.8774,
      "duration": 0.2999,
      "velocity": 100,
      "chip": "ym2612"
    },
    {
      "channel": 2,
      "note": 72,
      "start": 25.8814,
      "duration": 0.1433,
      "velocity": 120,
      "chip": "ym2612"
    },
    {
      "channel": 3,
      "note": 77,
      "start": 26.0241,
      "duration": 0.1498,
      "velocity": 97,
      "chip": "ym2612"
    },
    {
      "channel": 1,
      "note": 58,
      "start": 26.1737,
      "duration": 0.2994,
      "velocity": 106,
      "chip": "ym2612"
    },
    {
      "channel": 3,
      "note": 78,
      "start": 26.1745,
      "duration": 0.149,
      "velocity": 97,
      "chip": "ym2612"
    },
    {
      "channel": 4,
      "note": 72,
      "start": 26.1779,
      "duration": 0.149,
      "velocity": 100,
      "chip": "ym2612"
    },
    {
      "channel": 2,
      "note": 25,
      "start": 26.1816,
      "duration": 0.149,
      "velocity": 109,
      "chip": "ym2612"
    },
    {
      "channel": 3,
      "note": 82,
      "start": 26.3241,
      "duration": 0.1498,
      "velocity": 97,
      "chip": "ym2612"
    },
    {
      "channel": 4,
      "note": 72,
      "start": 26.3276,
      "duration": 0.1498,
      "velocity": 100,
      "chip": "ym2612"
    },
    {
      "channel": 2,
      "note": 25,
      "start": 26.3312,
      "duration": 0.1502,
      "velocity": 109,
      "chip": "ym2612"
    },
    {
      "channel": 1,
      "note": 51,
      "start": 26.4737,
      "duration": 0.5994,
      "velocity": 106,
      "chip": "ym2612"
    },
    {
      "channel": 3,
      "note": 63,
      "start": 26.4745,
      "duration": 0.299,
      "velocity": 97,
      "chip": "ym2612"
    },
    {
      "channel": 4,
      "note": 72,
      "start": 26.4779,
      "duration": 0.2989,
      "velocity": 100,
      "chip": "ym2612"
    },
    {
      "channel": 2,
      "note": 25,
      "start": 26.482,
      "duration": 0.1451,
      "velocity": 1,
      "chip": "ym2612"
    },
    {
      "channel": 2,
      "note": 75,
      "start": 26.6277,
      "duration": 0.1528,
      "velocity": 1,
      "chip": "ym2612"
    },
    {
      "channel": 3,
      "note": 66,
      "start": 26.7741,
      "duration": 0.2998,
      "velocity": 97,
      "chip": "ym2612"
    },
    {
      "channel": 4,
      "note": 72,
      "start": 26.7775,
      "duration": 0.149,
      "velocity": 100,
      "chip": "ym2612"
    },
    {
      "channel": 2,
      "note": 75,
      "start": 26.7812,
      "duration": 0.149,
      "velocity": 1,
      "chip": "ym2612"
    },
    {
      "channel": 4,
      "note": 72,
      "start": 26.9271,
      "duration": 0.1503,
      "velocity": 100,
      "chip": "ym2612"
    },
    {
      "channel": 2,
      "note": 75,
      "start": 26.9308,
      "duration": 0.1502,
      "velocity": 120,
      "chip": "ym2612"
    },
    {
      "channel": 1,
      "note": 51,
      "start": 27.0737,
      "duration": 0.1494,
      "velocity": 106,
      "chip": "ym2612"
    },
    {
      "channel": 3,
      "note": 82,
      "start": 27.0745,
      "duration": 0.1493,
      "velocity": 97,
      "chip": "ym2612"
    },
    {
      "channel": 4,
      "note": 72,
      "start": 27.078,
      "duration": 0.2985,
      "velocity": 100,
      "chip": "ym2612"
    },
    {
      "channel": 2,
      "note": 72,
      "start": 27.0817,
      "duration": 0.1431,
      "velocity": 120,
      "chip": "ym2612"
    },
    {
      "channel": 1,
      "note": 51,
      "start": 27.2235,
      "duration": 0.2996,
      "velocity": 106,
      "chip": "ym2612"
    },
    {
      "channel": 3,
      "note": 82,
      "start": 27.2242,
      "duration": 0.2996,
      "velocity": 97,
      "chip": "ym2612"
    },
    {
      "channel": 4,
      "note": 72,
      "start": 27.3771,
      "duration": 0.15,
      "velocity": 100,
      "chip": "ym2612"
    },
    {
      "channel": 1,
      "note": 51,
      "start": 27.5235,
      "duration": 0.1496,
      "velocity": 106,
      "chip": "ym2612"
    },
    {
      "channel": 3,
      "note": 84,
      "start": 27.5244,
      "duration": 0.3024,
      "velocity": 97,
      "chip": "ym2612"
    },
    {
      "channel": 4,
      "note": 72,
      "start": 27.5277,
      "duration": 0.1487,
      "velocity": 100,
      "chip": "ym2612"
    },
    {
      "channel": 4,
      "note": 72,
      "start": 27.6771,
      "duration": 0.3002,
      "velocity": 100,
      "chip": "ym2612"
    },
    {
      "channel": 2,
      "note": 25,
      "start": 27.6808,
      "duration": 0.1533,
      "velocity": 109,
      "chip": "ym2612"
    },
    {
      "channel": 0,
      "note": 85,
      "start": 27.8265,
      "duration": 0.0465,
      "velocity": 102,
      "chip": "ym2612"
    },
    {
      "channel": 3,
      "note": 82,
      "start": 27.8274,
      "duration": 0.1465,
      "velocity": 97,
      "chip": "ym2612"
    },
    {
      "channel": 5,
      "note": 89,
      "start": 27.8312,
      "duration": 0.043,
      "velocity": 102,
      "chip": "ym2612"
    },
    {
      "channel": 2,
      "note": 25,
      "start": 27.8347,
      "duration": 0.1441,
      "velocity": 109,
      "chip": "ym2612"
    },
    {
      "channel": 0,
      "note": 85,
      "start": 27.9737,
      "duration": 0.0494,
      "velocity": 102,
      "chip": "ym2612"
    },
    {
      "channel": 3,
      "note": 78,
      "start": 27.9745,
      "duration": 0.1494,
      "velocity": 97,
      "chip": "ym2612"
    },
    {
      "channel": 4,
      "note": 72,
      "start": 27.9779,
      "duration": 0.1494,
      "velocity": 100,
      "chip": "ym2612"
    },
    {
      "channel": 5,
      "note": 89,
      "start": 27.9787,
      "duration": 0.0455,
      "velocity": 102,
      "chip": "ym2612"
    },
    {
      "channel": 0,
      "note": 85,
      "start": 28.1237,
      "duration": 0.0494,
      "velocity": 102,
      "chip": "ym2612"
    },
    {
      "channel": 3,
      "note": 66,
      "start": 28.1245,
      "duration": 0.299,
      "velocity": 97,
      "chip": "ym2612"
    },
    {
      "channel": 4,
      "note": 72,
      "start": 28.1279,
      "duration": 0.149,
      "velocity": 100,
      "chip": "ym2612"
    },
    {
      "channel": 5,
      "note": 89,
      "start": 28.1287,
      "duration": 0.0455,
      "velocity": 102,
      "chip": "ym2612"
    },
    {
      "channel": 0,
      "note": 85,
      "start": 28.2737,
      "duration": 0.4494,
      "velocity": 102,
      "chip": "ym2612"
    },
    {
      "channel": 4,
      "note": 72,
      "start": 28.2776,
      "duration": 0.2994,
      "velocity": 100,
      "chip": "ym2612"
    },
    {
      "channel": 5,
      "note": 89,
      "start": 28.2784,
      "duration": 0.4498,
      "velocity": 102,
      "chip": "ym2612"
    },
    {
      "channel": 2,
      "note": 72,
      "start": 28.282,
      "duration": 0.143,
      "velocity": 120,
      "chip": "ym2612"
    },
    {
      "channel": 3,
      "note": 77,
      "start": 28.4241,
      "duration": 0.1494,
      "velocity": 97,
      "chip": "ym2612"
    },
    {
      "channel": 3,
      "note": 78,
      "start": 28.5741,
      "duration": 0.1498,
      "velocity": 97,
      "chip": "ym2612"
    },
    {
      "channel": 4,
      "note": 72,
      "start": 28.5775,
      "duration": 0.1498,
      "velocity": 100,
      "chip": "ym2612"
    },
    {
      "channel": 2,
      "note": 25,
      "start": 28.5814,
      "duration": 0.1502,
      "velocity": 109,
      "chip": "ym2612"
    },
    {
      "channel": 0,
      "note": 85,
      "start": 28.7237,
      "duration": 0.0994,
      "velocity": 102,
      "chip": "ym2612"
    },
    {
      "channel": 3,
      "note": 87,
      "start": 28.7246,
      "duration": 0.1524,
      "velocity": 97,
      "chip": "ym2612"
    },
    {
      "channel": 4,
      "note": 72,
      "start": 28.7279,
      "duration": 0.1524,
      "velocity": 100,
      "chip": "ym2612"
    },
    {
      "channel": 5,
      "note": 82,
      "start": 28.7288,
      "duration": 0.0954,
      "velocity": 102,
      "chip": "ym2612"
    },
    {
      "channel": 2,
      "note": 25,
      "start": 28.7323,
      "duration": 0.1546,
      "velocity": 109,
      "chip": "ym2612"
    },
    {
      "channel": 1,
      "note": 51,
      "start": 28.8741,
      "duration": 0.149,
      "velocity": 106,
      "chip": "ym2612"
    },
    {
      "channel": 3,
      "note": 63,
      "start": 28.8775,
      "duration": 0.2964,
      "velocity": 97,
      "chip": "ym2612"
    },
    {
      "channel": 4,
      "note": 72,
      "start": 28.881,
      "duration": 0.2963,
      "velocity": 100,
      "chip": "ym2612"
    },
    {
      "channel": 2,
      "note": 25,
      "start": 28.8875,
      "duration": 0.1398,
      "velocity": 1,
      "chip": "ym2612"
    },
    {
      "channel": 1,
      "note": 51,
      "start": 29.0235,
      "duration": 0.1496,
      "velocity": 106,
      "chip": "ym2612"
    },
    {
      "channel": 2,
      "note": 75,
      "start": 29.028,
      "duration": 0.1529,
      "velocity": 1,
      "chip": "ym2612"
    },
    {
      "channel": 1,
      "note": 58,
      "start": 29.1737,
      "duration": 0.1494,
      "velocity": 106,
      "chip": "ym2612"
    },
    {
      "channel": 3,
      "note": 66,
      "start": 29.1745,
      "duration": 0.2989,
      "velocity": 97,
      "chip": "ym2612"
    },
    {
      "channel": 4,
      "note": 72,
      "start": 29.1779,
      "duration": 0.149,
      "velocity": 100,
      "chip": "ym2612"
    },
    {
      "channel": 2,
      "note": 75,
      "start": 29.1816,
      "duration": 0.149,
      "velocity": 1,
      "chip": "ym2612"
    },
    {
      "channel": 1,
      "note": 51,
      "start": 29.3237,
      "duration": 0.1494,
      "velocity": 106,
      "chip": "ym2612"
    },
    {
      "channel": 4,
      "note": 72,
      "start": 29.3275,
      "duration": 0.1494,
      "velocity": 100,
      "chip": "ym2612"
    },
    {
      "channel": 2,
      "note": 75,
      "start": 29.3312,
      "duration": 0.1501,
      "velocity": 120,
      "chip": "ym2612"
    },
    {
      "channel": 3,
      "note": 82,
      "start": 29.4741,
      "duration": 0.1491,
      "velocity": 97,
      "chip": "ym2612"
    },
    {
      "channel": 4,
      "note": 72,
      "start": 29.4776,
      "duration": 0.2986,
      "velocity": 100,
      "chip": "ym2612"
    },
    {
      "channel": 5,
      "note": 78,
      "start": 29.4783,
      "duration": 0.449,
      "velocity": 97,
      "chip": "ym2612"
    },
    {
      "channel": 2,
      "note": 72,
      "start": 29.4819,
      "duration": 0.1426,
      "velocity": 120,
      "chip": "ym2612"
    },
    {
      "channel": 3,
      "note": 82,
      "start": 29.6237,
      "duration": 0.2995,
      "velocity": 97,
      "chip": "ym2612"
    },
    {
      "channel": 4,
      "note": 72,
      "start": 29.7768,
      "duration": 0.1498,
      "velocity": 100,
      "chip": "ym2612"
    },
    {
      "channel": 3,
      "note": 84,
      "start": 29.9238,
      "duration": 0.2994,
      "velocity": 97,
      "chip": "ym2612"
    },
    {
      "channel": 4,
      "note": 72,
      "start": 29.9272,
      "duration": 0.149,
      "velocity": 100,
      "chip": "ym2612"
    },
    {
      "channel": 5,
      "note": 80,
      "start": 29.928,
      "duration": 0.6,
      "velocity": 97,
      "chip": "ym2612"
    },
    {
      "channel": 4,
      "note": 72,
      "start": 30.0768,
      "duration": 0.2998,
      "velocity": 100,
      "chip": "ym2612"
    },
    {
      "channel": 2,
      "note": 25,
      "start": 30.0808,
      "duration": 0.1467,
      "velocity": 109,
      "chip": "ym2612"
    },
    {
      "channel": 3,
      "note": 82,
      "start": 30.2238,
      "duration": 0.1494,
      "velocity": 97,
      "chip": "ym2612"
    },
    {
      "channel": 2,
      "note": 25,
      "start": 30.2281,
      "duration": 0.1496,
      "velocity": 109,
      "chip": "ym2612"
    },
    {
      "channel": 3,
      "note": 78,
      "start": 30.3738,
      "duration": 0.1501,
      "velocity": 97,
      "chip": "ym2612"
    },
    {
      "channel": 4,
      "note": 72,
      "start": 30.3772,
      "duration": 0.1501,
      "velocity": 100,
      "chip": "ym2612"
    },
    {
      "channel": 1,
      "note": 53,
      "start": 30.5237,
      "duration": 0.1494,
      "velocity": 106,
      "chip": "ym2612"
    },
    {
      "channel": 3,
      "note": 66,
      "start": 30.5245,
      "duration": 0.299,
      "velocity": 97,
      "chip": "ym2612"
    },
    {
      "channel": 4,
      "note": 72,
      "start": 30.5279,
      "duration": 0.1488,
      "velocity": 100,
      "chip": "ym2612"
    },
    {
      "channel": 5,
      "note": 63,
      "start": 30.5287,
      "duration": 0.1489,
      "velocity": 97,
      "chip": "ym2612"
    },
    {
      "channel": 1,
      "note": 53,
      "start": 30.6735,
      "duration": 0.2996,
      "velocity": 106,
      "chip": "ym2612"
    },
    {
      "channel": 4,
      "note": 72,
      "start": 30.6774,
      "duration": 0.2999,
      "velocity": 100,
      "chip": "ym2612"
    },
    {
      "channel": 2,
      "note": 72,
      "start": 30.6814,
      "duration": 0.1433,
      "velocity": 120,
      "chip": "ym2612"
    },
    {
      "channel": 3,
      "note": 77,
      "start": 30.8241,
      "duration": 0.1498,
      "velocity": 97,
      "chip": "ym2612"
    },
    {
      "channel": 1,
      "note": 58,
      "start": 30.9737,
      "duration": 0.2997,
      "velocity": 106,
      "chip": "ym2612"
    },
    {
      "channel": 3,
      "note": 78,
      "start": 30.9745,
      "duration": 0.149,
      "velocity": 97,
      "chip": "ym2612"
    },
    {
      "channel": 4,
      "note": 72,
      "start": 30.9779,
      "duration": 0.149,
      "velocity": 100,
      "chip": "ym2612"
    },
    {
      "channel": 2,
      "note": 25,
      "start": 30.9816,
      "duration": 0.149,
      "velocity": 109,
      "chip": "ym2612"
    },
    {
      "channel": 3,
      "note": 82,
      "start": 31.1241,
      "duration": 0.1501,
      "velocity": 97,
      "chip": "ym2612"
    },
    {
      "channel": 4,
      "note": 72,
      "start": 31.1276,
      "duration": 0.1501,
      "velocity": 100,
      "chip": "ym2612"
    },
    {
      "channel": 2,
      "note": 25,
      "start": 31.1312,
      "duration": 0.1506,
      "velocity": 109,
      "chip": "ym2612"
    },
    {
      "channel": 1,
      "note": 51,
      "start": 31.2741,
      "duration": 0.599,
      "velocity": 106,
      "chip": "ym2612"
    },
    {
      "channel": 3,
      "note": 63,
      "start": 31.2748,
      "duration": 0.2987,
      "velocity": 97,
      "chip": "ym2612"
    },
    {
      "channel": 4,
      "note": 72,
      "start": 31.2783,
      "duration": 0.2985,
      "velocity": 100,
      "chip": "ym2612"
    },
    {
      "channel": 2,
      "note": 25,
      "start": 31.2824,
      "duration": 0.1447,
      "velocity": 1,
      "chip": "ym2612"
    },
    {
      "channel": 2,
      "note": 75,
      "start": 31.4277,
      "duration": 0.1528,
      "velocity": 1,
      "chip": "ym2612"
    },
    {
      "channel": 3,
      "note": 66,
      "start": 31.5741,
      "duration": 0.2998,
      "velocity": 97,
      "chip": "ym2612"
    },
    {
      "channel": 4,
      "note": 72,
      "start": 31.5775,
      "duration": 0.149,
      "velocity": 100,
      "chip": "ym2612"
    },
    {
      "channel": 2,
      "note": 75,
      "start": 31.5812,
      "duration": 0.149,
      "velocity": 1,
      "chip": "ym2612"
    },
    {
      "channel": 4,
      "note": 72,
      "start": 31.7271,
      "duration": 0.1503,
      "velocity": 100,
      "chip": "ym2612"
    },
    {
      "channel": 2,
      "note": 75,
      "start": 31.7308,
      "duration": 0.151,
      "velocity": 120,
      "chip": "ym2612"
    },
    {
      "channel": 1,
      "note": 51,
      "start": 31.8737,
      "duration": 0.1494,
      "velocity": 106,
      "chip": "ym2612"
    },
    {
      "channel": 3,
      "note": 82,
      "start": 31.8745,
      "duration": 0.1493,
      "velocity": 97,
      "chip": "ym2612"
    },
    {
      "channel": 4,
      "note": 72,
      "start": 31.878,
      "duration": 0.2985,
      "velocity": 100,
      "chip": "ym2612"
    },
    {
      "channel": 5,
      "note": 78,
      "start": 31.8788,
      "duration": 0.4492,
      "velocity": 97,
      "chip": "ym2612"
    },
    {
      "channel": 2,
      "note": 72,
      "start": 31.8824,
      "duration": 0.1427,
      "velocity": 120,
      "chip": "ym2612"
    },
    {
      "channel": 1,
      "note": 51,
      "start": 32.0235,
      "duration": 0.2996,
      "velocity": 106,
      "chip": "ym2612"
    },
    {
      "channel": 3,
      "note": 82,
      "start": 32.0242,
      "duration": 0.2996,
      "velocity": 97,
      "chip": "ym2612"
    },
    {
      "channel": 4,
      "note": 72,
      "start": 32.1771,
      "duration": 0.15,
      "velocity": 100,
      "chip": "ym2612"
    },
    {
      "channel": 1,
      "note": 51,
      "start": 32.3235,
      "duration": 0.1496,
      "velocity": 106,
      "chip": "ym2612"
    },
    {
      "channel": 3,
      "note": 84,
      "start": 32.3244,
      "duration": 0.2988,
      "velocity": 97,
      "chip": "ym2612"
    },
    {
      "channel": 4,
      "note": 72,
      "start": 32.3277,
      "duration": 0.1487,
      "velocity": 100,
      "chip": "ym2612"
    },
    {
      "channel": 5,
      "note": 80,
      "start": 32.3286,
      "duration": 0.5988,
      "velocity": 97,
      "chip": "ym2612"
    },
    {
      "channel": 4,
      "note": 72,
      "start": 32.4771,
      "duration": 0.2995,
      "velocity": 100,
      "chip": "ym2612"
    },
    {
      "channel": 2,
      "note": 25,
      "start": 32.481,
      "duration": 0.1464,
      "velocity": 109,
      "chip": "ym2612"
    },
    {
      "channel": 3,
      "note": 82,
      "start": 32.6238,
      "duration": 0.1494,
      "velocity": 97,
      "chip": "ym2612"
    },
    {
      "channel": 2,
      "note": 25,
      "start": 32.6281,
      "duration": 0.1496,
      "velocity": 109,
      "chip": "ym2612"
    },
    {
      "channel": 3,
      "note": 78,
      "start": 32.7738,
      "duration": 0.1494,
      "velocity": 97,
      "chip": "ym2612"
    },
    {
      "channel": 4,
      "note": 72,
      "start": 32.7772,
      "duration": 0.1494,
      "velocity": 100,
      "chip": "ym2612"
    },
    {
      "channel": 3,
      "note": 66,
      "start": 32.9238,
      "duration": 0.2994,
      "velocity": 97,
      "chip": "ym2612"
    },
    {
      "channel": 4,
      "note": 72,
      "start": 32.9272,
      "duration": 0.149,
      "velocity": 100,
      "chip": "ym2612"
    },
    {
      "channel": 5,
      "note": 63,
      "start": 32.928,
      "duration": 0.149,
      "velocity": 97,
      "chip": "ym2612"
    },
    {
      "channel": 4,
      "note": 72,
      "start": 33.0768,
      "duration": 0.2998,
      "velocity": 100,
      "chip": "ym2612"
    },
    {
      "channel": 2,
      "note": 72,
      "start": 33.0808,
      "duration": 0.1436,
      "velocity": 120,
      "chip": "ym2612"
    },
    {
      "channel": 3,
      "note": 77,
      "start": 33.2238,
      "duration": 0.1494,
      "velocity": 97,
      "chip": "ym2612"
    },
    {
      "channel": 3,
      "note": 78,
      "start": 33.3738,
      "duration": 0.1494,
      "velocity": 97,
      "chip": "ym2612"
    },
    {
      "channel": 4,
      "note": 72,
      "start": 33.3772,
      "duration": 0.1494,
      "velocity": 100,
      "chip": "ym2612"
    },
    {
      "channel": 2,
      "note": 25,
      "start": 33.3809,
      "duration": 0.1494,
      "velocity": 109,
      "chip": "ym2612"
    },
    {
      "channel": 3,
      "note": 87,
      "start": 33.5238,
      "duration": 0.1532,
      "velocity": 97,
      "chip": "ym2612"
    },
    {
      "channel": 4,
      "note": 72,
      "start": 33.5272,
      "duration": 0.1532,
      "velocity": 100,
      "chip": "ym2612"
    },
    {
      "channel": 2,
      "note": 25,
      "start": 33.5309,
      "duration": 0.1537,
      "velocity": 109,
      "chip": "ym2612"
    },
    {
      "channel": 1,
      "note": 51,
      "start": 33.6742,
      "duration": 0.1489,
      "velocity": 106,
      "chip": "ym2612"
    },
    {
      "channel": 3,
      "note": 63,
      "start": 33.6776,
      "duration": 0.2962,
      "velocity": 97,
      "chip": "ym2612"
    },
    {
      "channel": 4,
      "note": 72,
      "start": 33.681,
      "duration": 0.2962,
      "velocity": 100,
      "chip": "ym2612"
    },
    {
      "channel": 2,
      "note": 25,
      "start": 33.6851,
      "duration": 0.1422,
      "velocity": 1,
      "chip": "ym2612"
    },
    {
      "channel": 1,
      "note": 51,
      "start": 33.8235,
      "duration": 0.1496,
      "velocity": 106,
      "chip": "ym2612"
    },
    {
      "channel": 2,
      "note": 75,
      "start": 33.828,
      "duration": 0.1529,
      "velocity": 1,
      "chip": "ym2612"
    },
    {
      "channel": 1,
      "note": 58,
      "start": 33.9737,
      "duration": 0.1494,
      "velocity": 106,
      "chip": "ym2612"
    },
    {
      "channel": 3,
      "note": 66,
      "start": 33.9745,
      "duration": 0.2989,
      "velocity": 97,
      "chip": "ym2612"
    },
    {
      "channel": 4,
      "note": 72,
      "start": 33.9779,
      "duration": 0.149,
      "velocity": 100,
      "chip": "ym2612"
    },
    {
      "channel": 2,
      "note": 75,
      "start": 33.9816,
      "duration": 0.149,
      "velocity": 1,
      "chip": "ym2612"
    },
    {
      "channel": 1,
      "note": 51,
      "start": 34.1237,
      "duration": 0.1494,
      "velocity": 106,
      "chip": "ym2612"
    },
    {
      "channel": 4,
      "note": 72,
      "start": 34.1275,
      "duration": 0.1494,
      "velocity": 100,
      "chip": "ym2612"
    },
    {
      "channel": 2,
      "note": 75,
      "start": 34.1312,
      "duration": 0.1501,
      "velocity": 120,
      "chip": "ym2612"
    },
    {
      "channel": 3,
      "note": 82,
      "start": 34.2741,
      "duration": 0.1491,
      "velocity": 97,
      "chip": "ym2612"
    },
    {
      "channel": 4,
      "note": 72,
      "start": 34.2776,
      "duration": 0.2987,
      "velocity": 100,
      "chip": "ym2612"
    },
    {
      "channel": 5,
      "note": 78,
      "start": 34.2783,
      "duration": 0.449,
      "velocity": 97,
      "chip": "ym2612"
    },
    {
      "channel": 2,
      "note": 72,
      "start": 34.2819,
      "duration": 0.1426,
      "velocity": 120,
      "chip": "ym2612"
    },
    {
      "channel": 3,
      "note": 82,
      "start": 34.4237,
      "duration": 0.2995,
      "velocity": 97,
      "chip": "ym2612"
    },
    {
      "channel": 4,
      "note": 72,
      "start": 34.5768,
      "duration": 0.1498,
      "velocity": 100,
      "chip": "ym2612"
    },
    {
      "channel": 3,
      "note": 84,
      "start": 34.7238,
      "duration": 0.2994,
      "velocity": 97,
      "chip": "ym2612"
    },
    {
      "channel": 4,
      "note": 72,
      "start": 34.7272,
      "duration": 0.149,
      "velocity": 100,
      "chip": "ym2612"
    },
    {
      "channel": 5,
      "note": 80,
      "start": 34.728,
      "duration": 0.6,
      "velocity": 97,
      "chip": "ym2612"
    },
    {
      "channel": 4,
      "note": 72,
      "start": 34.8768,
      "duration": 0.2998,
      "velocity": 100,
      "chip": "ym2612"
    },
    {
      "channel": 2,
      "note": 25,
      "start": 34.8808,
      "duration": 0.1467,
      "velocity": 109,
      "chip": "ym2612"
    },
    {
      "channel": 3,
      "note": 82,
      "start": 35.0238,
      "duration": 0.1494,
      "velocity": 97,
      "chip": "ym2612"
    },
    {
      "channel": 2,
      "note": 25,
      "start": 35.0281,
      "duration": 0.1496,
      "velocity": 109,
      "chip": "ym2612"
    },
    {
      "channel": 3,
      "note": 78,
      "start": 35.1738,
      "duration": 0.1501,
      "velocity": 97,
      "chip": "ym2612"
    },
    {
      "channel": 4,
      "note": 72,
      "start": 35.1772,
      "duration": 0.1501,
      "velocity": 100,
      "chip": "ym2612"
    },
    {
      "channel": 1,
      "note": 53,
      "start": 35.3237,
      "duration": 0.1494,
      "velocity": 106,
      "chip": "ym2612"
    },
    {
      "channel": 3,
      "note": 66,
      "start": 35.3245,
      "duration": 0.299,
      "velocity": 97,
      "chip": "ym2612"
    },
    {
      "channel": 4,
      "note": 72,
      "start": 35.3279,
      "duration": 0.1488,
      "velocity": 100,
      "chip": "ym2612"
    },
    {
      "channel": 5,
      "note": 63,
      "start": 35.3287,
      "duration": 0.1489,
      "velocity": 97,
      "chip": "ym2612"
    },
    {
      "channel": 1,
      "note": 53,
      "start": 35.4735,
      "duration": 0.2996,
      "velocity": 106,
      "chip": "ym2612"
    },
    {
      "channel": 4,
      "note": 72,
      "start": 35.4774,
      "duration": 0.2999,
      "velocity": 100,
      "chip": "ym2612"
    },
    {
      "channel": 2,
      "note": 72,
      "start": 35.4814,
      "duration": 0.1433,
      "velocity": 120,
      "chip": "ym2612"
    },
    {
      "channel": 3,
      "note": 77,
      "start": 35.6241,
      "duration": 0.1498,
      "velocity": 97,
      "chip": "ym2612"
    },
    {
      "channel": 1,
      "note": 58,
      "start": 35.7737,
      "duration": 0.2997,
      "velocity": 106,
      "chip": "ym2612"
    },
    {
      "channel": 3,
      "note": 78,
      "start": 35.7745,
      "duration": 0.149,
      "velocity": 97,
      "chip": "ym2612"
    },
    {
      "channel": 4,
      "note": 72,
      "start": 35.7779,
      "duration": 0.149,
      "velocity": 100,
      "chip": "ym2612"
    },
    {
      "channel": 2,
      "note": 25,
      "start": 35.7816,
      "duration": 0.149,
      "velocity": 109,
      "chip": "ym2612"
    },
    {
      "channel": 3,
      "note": 82,
      "start": 35.9241,
      "duration": 0.1501,
      "velocity": 97,
      "chip": "ym2612"
    },
    {
      "channel": 4,
      "note": 72,
      "start": 35.9276,
      "duration": 0.1501,
      "velocity": 100,
      "chip": "ym2612"
    },
    {
      "channel": 2,
      "note": 25,
      "start": 35.9312,
      "duration": 0.1506,
      "velocity": 109,
      "chip": "ym2612"
    },
    {
      "channel": 1,
      "note": 51,
      "start": 36.0741,
      "duration": 0.599,
      "velocity": 106,
      "chip": "ym2612"
    },
    {
      "channel": 3,
      "note": 63,
      "start": 36.0748,
      "duration": 0.2987,
      "velocity": 97,
      "chip": "ym2612"
    },
    {
      "channel": 4,
      "note": 72,
      "start": 36.0783,
      "duration": 0.2985,
      "velocity": 100,
      "chip": "ym2612"
    },
    {
      "channel": 2,
      "note": 25,
      "start": 36.0824,
      "duration": 0.1447,
      "velocity": 1,
      "chip": "ym2612"
    },
    {
      "channel": 2,
      "note": 75,
      "start": 36.2277,
      "duration": 0.1528,
      "velocity": 1,
      "chip": "ym2612"
    },
    {
      "channel": 3,
      "note": 66,
      "start": 36.3741,
      "duration": 0.2998,
      "velocity": 97,
      "chip": "ym2612"
    },
    {
      "channel": 4,
      "note": 72,
      "start": 36.3775,
      "duration": 0.149,
      "velocity": 100,
      "chip": "ym2612"
    },
    {
      "channel": 2,
      "note": 75,
      "start": 36.3812,
      "duration": 0.149,
      "velocity": 1,
      "chip": "ym2612"
    },
    {
      "channel": 4,
      "note": 72,
      "start": 36.5271,
      "duration": 0.1503,
      "velocity": 100,
      "chip": "ym2612"
    },
    {
      "channel": 2,
      "note": 75,
      "start": 36.5308,
      "duration": 0.151,
      "velocity": 120,
      "chip": "ym2612"
    },
    {
      "channel": 1,
      "note": 51,
      "start": 36.6737,
      "duration": 0.1494,
      "velocity": 106,
      "chip": "ym2612"
    },
    {
      "channel": 3,
      "note": 82,
      "start": 36.6745,
      "duration": 0.1493,
      "velocity": 97,
      "chip": "ym2612"
    },
    {
      "channel": 4,
      "note": 72,
      "start": 36.678,
      "duration": 0.2985,
      "velocity": 100,
      "chip": "ym2612"
    },
    {
      "channel": 5,
      "note": 78,
      "start": 36.6788,
      "duration": 0.4492,
      "velocity": 97,
      "chip": "ym2612"
    },
    {
      "channel": 2,
      "note": 72,
      "start": 36.6824,
      "duration": 0.1427,
      "velocity": 120,
      "chip": "ym2612"
    },
    {
      "channel": 1,
      "note": 51,
      "start": 36.8235,
      "duration": 0.2996,
      "velocity": 106,
      "chip": "ym2612"
    },
    {
      "channel": 3,
      "note": 82,
      "start": 36.8242,
      "duration": 0.2996,
      "velocity": 97,
      "chip": "ym2612"
    },
    {
      "channel": 4,
      "note": 72,
      "start": 36.9771,
      "duration": 0.15,
      "velocity": 100,
      "chip": "ym2612"
    },
    {
      "channel": 1,
      "note": 51,
      "start": 37.1235,
      "duration": 0.1496,
      "velocity": 106,
      "chip": "ym2612"
    },
    {
      "channel": 3,
      "note": 84,
      "start": 37.1244,
      "duration": 0.2988,
      "velocity": 97,
      "chip": "ym2612"
    },
    {
      "channel": 4,
      "note": 72,
      "start": 37.1277,
      "duration": 0.1487,
      "velocity": 100,
      "chip": "ym2612"
    },
    {
      "channel": 5,
      "note": 80,
      "start": 37.1286,
      "duration": 0.5988,
      "velocity": 97,
      "chip": "ym2612"
    },
    {
      "channel": 4,
      "note": 72,
      "start": 37.2771,
      "duration": 0.2995,
      "velocity": 100,
      "chip": "ym2612"
    },
    {
      "channel": 2,
      "note": 25,
      "start": 37.281,
      "duration": 0.1464,
      "velocity": 109,
      "chip": "ym2612"
    },
    {
      "channel": 3,
      "note": 82,
      "start": 37.4238,
      "duration": 0.1494,
      "velocity": 97,
      "chip": "ym2612"
    },
    {
      "channel": 2,
      "note": 25,
      "start": 37.4281,
      "duration": 0.1496,
      "velocity": 109,
      "chip": "ym2612"
    },
    {
      "channel": 3,
      "note": 78,
      "start": 37.5738,
      "duration": 0.1494,
      "velocity": 97,
      "chip": "ym2612"
    },
    {
      "channel": 4,
      "note": 72,
      "start": 37.5772,
      "duration": 0.1494,
      "velocity": 100,
      "chip": "ym2612"
    },
    {
      "channel": 3,
      "note": 66,
      "start": 37.7238,
      "duration": 0.2994,
      "velocity": 97,
      "chip": "ym2612"
    },
    {
      "channel": 4,
      "note": 72,
      "start": 37.7272,
      "duration": 0.149,
      "velocity": 100,
      "chip": "ym2612"
    },
    {
      "channel": 5,
      "note": 63,
      "start": 37.728,
      "duration": 0.149,
      "velocity": 97,
      "chip": "ym2612"
    },
    {
      "channel": 4,
      "note": 72,
      "start": 37.8768,
      "duration": 0.2998,
      "velocity": 100,
      "chip": "ym2612"
    },
    {
      "channel": 2,
      "note": 72,
      "start": 37.8808,
      "duration": 0.1436,
      "velocity": 120,
      "chip": "ym2612"
    },
    {
      "channel": 3,
      "note": 77,
      "start": 38.0238,
      "duration": 0.1494,
      "velocity": 97,
      "chip": "ym2612"
    },
    {
      "channel": 3,
      "note": 78,
      "start": 38.1738,
      "duration": 0.1494,
      "velocity": 97,
      "chip": "ym2612"
    },
    {
      "channel": 4,
      "note": 72,
      "start": 38.1772,
      "duration": 0.1494,
      "velocity": 100,
      "chip": "ym2612"
    },
    {
      "channel": 2,
      "note": 25,
      "start": 38.1809,
      "duration": 0.1494,
      "velocity": 109,
      "chip": "ym2612"
    },
    {
      "channel": 3,
      "note": 87,
      "start": 38.3238,
      "duration": 0.1588,
      "velocity": 97,
      "chip": "ym2612"
    },
    {
      "channel": 4,
      "note": 72,
      "start": 38.3272,
      "duration": 0.1588,
      "velocity": 100,
      "chip": "ym2612"
    },
    {
      "channel": 2,
      "note": 25,
      "start": 38.3309,
      "duration": 0.162,
      "velocity": 109,
      "chip": "ym2612"
    },
    {
      "channel": 1,
      "note": 63,
      "start": 38.4798,
      "duration": 0.6035,
      "velocity": 106,
      "chip": "ym2612"
    },
    {
      "channel": 3,
      "note": 63,
      "start": 38.4833,
      "duration": 0.3069,
      "velocity": 97,
      "chip": "ym2612"
    },
    {
      "channel": 4,
      "note": 72,
      "start": 38.4867,
      "duration": 0.3068,
      "velocity": 100,
      "chip": "ym2612"
    },
    {
      "channel": 2,
      "note": 25,
      "start": 38.4935,
      "duration": 0.1502,
      "velocity": 1,
      "chip": "ym2612"
    },
    {
      "channel": 2,
      "note": 75,
      "start": 38.6444,
      "duration": 0.1528,
      "velocity": 1,
      "chip": "ym2612"
    },
    {
      "channel": 3,
      "note": 66,
      "start": 38.7907,
      "duration": 0.2926,
      "velocity": 97,
      "chip": "ym2612"
    },
    {
      "channel": 4,
      "note": 72,
      "start": 38.7941,
      "duration": 0.149,
      "velocity": 100,
      "chip": "ym2612"
    },
    {
      "channel": 2,
      "note": 75,
      "start": 38.7978,
      "duration": 0.149,
      "velocity": 1,
      "chip": "ym2612"
    },
    {
      "channel": 4,
      "note": 72,
      "start": 38.9438,
      "duration": 0.1396,
      "velocity": 100,
      "chip": "ym2612"
    },
    {
      "channel": 2,
      "note": 75,
      "start": 38.9475,
      "duration": 0.1359,
      "velocity": 1,
      "chip": "ym2612"
    }
  ]
}