{
  "track_name": "12 - Factory (Stage 1)",
  "duration_sec": 139.098,
  "sample_rate": 44100,
  "note_count": 3117,
  "unique_pitches": 29,
  "pitch_range": 83,
  "avg_note_duration": 0.0875,
  "reconstruction_stats": {
    "notes_reconstructed": 3117,
    "keyon_events": 3117,
    "keyoff_events": 3117,
    "orphan_keyons": 0,
    "unique_pitches": 29,
    "pitch_range": 83,
    "avg_duration_sec": 0.0875
  },
  "metadata": {
    "source": "Z\\Zero the Kamikaze Squirrel\\12 - Factory (Stage 1).vgm"
  },
  "notes": [
    {
      "channel": 0,
      "note": 33,
      "start": 0.0022,
      "duration": 0.0438,
      "velocity": 113,
      "chip": "ym2612"
    },
    {
      "channel": 1,
      "note": 52,
      "start": 0.0074,
      "duration": 0.0554,
      "velocity": 88,
      "chip": "ym2612"
    },
    {
      "channel": 3,
      "note": 40,
      "start": 0.0131,
      "duration": 0.2332,
      "velocity": 93,
      "chip": "ym2612"
    },
    {
      "channel": 4,
      "note": 59,
      "start": 0.0242,
      "duration": 0.0389,
      "velocity": 101,
      "chip": "ym2612"
    },
    {
      "channel": 4,
      "note": 59,
      "start": 0.1168,
      "duration": 0.0295,
      "velocity": 101,
      "chip": "ym2612"
    },
    {
      "channel": 0,
      "note": 33,
      "start": 0.2329,
      "duration": 0.03,
      "velocity": 113,
      "chip": "ym2612"
    },
    {
      "channel": 1,
      "note": 52,
      "start": 0.2356,
      "duration": 0.0605,
      "velocity": 88,
      "chip": "ym2612"
    },
    {
      "channel": 5,
      "note": 64,
      "start": 0.2385,
      "duration": 0.0744,
      "velocity": 114,
      "chip": "ym2612"
    },
    {
      "channel": 0,
      "note": 33,
      "start": 0.3489,
      "duration": 0.0639,
      "velocity": 113,
      "chip": "ym2612"
    },
    {
      "channel": 1,
      "note": 52,
      "start": 0.352,
      "duration": 0.0776,
      "velocity": 88,
      "chip": "ym2612"
    },
    {
      "channel": 3,
      "note": 40,
      "start": 0.3552,
      "duration": 0.3411,
      "velocity": 93,
      "chip": "ym2612"
    },
    {
      "channel": 4,
      "note": 59,
      "start": 0.3589,
      "duration": 0.0709,
      "velocity": 101,
      "chip": "ym2612"
    },
    {
      "channel": 2,
      "note": 59,
      "start": 0.3621,
      "duration": 0.051,
      "velocity": 101,
      "chip": "ym2612"
    },
    {
      "channel": 0,
      "note": 40,
      "start": 0.4658,
      "duration": 0.1471,
      "velocity": 113,
      "chip": "ym2612"
    },
    {
      "channel": 4,
      "note": 64,
      "start": 0.4691,
      "duration": 0.0772,
      "velocity": 101,
      "chip": "ym2612"
    },
    {
      "channel": 1,
      "note": 52,
      "start": 0.5993,
      "duration": 0.0301,
      "velocity": 88,
      "chip": "ym2612"
    },
    {
      "channel": 4,
      "note": 59,
      "start": 0.6025,
      "duration": 0.0771,
      "velocity": 101,
      "chip": "ym2612"
    },
    {
      "channel": 1,
      "note": 52,
      "start": 0.7159,
      "duration": 0.0803,
      "velocity": 88,
      "chip": "ym2612"
    },
    {
      "channel": 5,
      "note": 64,
      "start": 0.7189,
      "duration": 0.0941,
      "velocity": 114,
      "chip": "ym2612"
    },
    {
      "channel": 2,
      "note": 34,
      "start": 0.7221,
      "duration": 0.0242,
      "velocity": 114,
      "chip": "ym2612"
    },
    {
      "channel": 5,
      "note": 34,
      "start": 0.8329,
      "duration": 0.1468,
      "velocity": 114,
      "chip": "ym2612"
    },
    {
      "channel": 4,
      "note": 64,
      "start": 0.8358,
      "duration": 0.0772,
      "velocity": 101,
      "chip": "ym2612"
    },
    {
      "channel": 1,
      "note": 52,
      "start": 0.949,
      "duration": 0.0806,
      "velocity": 88,
      "chip": "ym2612"
    },
    {
      "channel": 4,
      "note": 59,
      "start": 1.0831,
      "duration": 0.0798,
      "velocity": 101,
      "chip": "ym2612"
    },
    {
      "channel": 0,
      "note": 33,
      "start": 1.1992,
      "duration": 0.1137,
      "velocity": 113,
      "chip": "ym2612"
    },
    {
      "channel": 1,
      "note": 52,
      "start": 1.2017,
      "duration": 0.0945,
      "velocity": 88,
      "chip": "ym2612"
    },
    {
      "channel": 5,
      "note": 64,
      "start": 1.2047,
      "duration": 0.0918,
      "velocity": 114,
      "chip": "ym2612"
    },
    {
      "channel": 4,
      "note": 59,
      "start": 1.3169,
      "duration": 0.046,
      "velocity": 101,
      "chip": "ym2612"
    },
    {
      "channel": 0,
      "note": 40,
      "start": 1.4324,
      "duration": 0.2137,
      "velocity": 113,
      "chip": "ym2612"
    },
    {
      "channel": 1,
      "note": 55,
      "start": 1.435,
      "duration": 0.2279,
      "velocity": 88,
      "chip": "ym2612"
    },
    {
      "channel": 5,
      "note": 116,
      "start": 1.438,
      "duration": 0.0417,
      "velocity": 114,
      "chip": "ym2612"
    },
    {
      "channel": 4,
      "note": 62,
      "start": 1.4414,
      "duration": 0.0882,
      "velocity": 101,
      "chip": "ym2612"
    },
    {
      "channel": 5,
      "note": 116,
      "start": 1.5661,
      "duration": 0.0469,
      "velocity": 114,
      "chip": "ym2612"
    },
    {
      "channel": 4,
      "note": 59,
      "start": 1.5692,
      "duration": 0.0438,
      "velocity": 101,
      "chip": "ym2612"
    },
    {
      "channel": 1,
      "note": 57,
      "start": 1.6825,
      "duration": 0.097,
      "velocity": 88,
      "chip": "ym2612"
    },
    {
      "channel": 5,
      "note": 116,
      "start": 1.6853,
      "duration": 0.0611,
      "velocity": 114,
      "chip": "ym2612"
    },
    {
      "channel": 2,
      "note": 64,
      "start": 1.6885,
      "duration": 0.0746,
      "velocity": 114,
      "chip": "ym2612"
    },
    {
      "channel": 4,
      "note": 64,
      "start": 1.6915,
      "duration": 0.0881,
      "velocity": 101,
      "chip": "ym2612"
    },
    {
      "channel": 0,
      "note": 40,
      "start": 1.7992,
      "duration": 0.0636,
      "velocity": 113,
      "chip": "ym2612"
    },
    {
      "channel": 5,
      "note": 116,
      "start": 1.8021,
      "duration": 0.0611,
      "velocity": 114,
      "chip": "ym2612"
    },
    {
      "channel": 4,
      "note": 59,
      "start": 1.8051,
      "duration": 0.0579,
      "velocity": 101,
      "chip": "ym2612"
    },
    {
      "channel": 0,
      "note": 33,
      "start": 1.9162,
      "duration": 0.0966,
      "velocity": 113,
      "chip": "ym2612"
    },
    {
      "channel": 1,
      "note": 52,
      "start": 1.9191,
      "duration": 0.077,
      "velocity": 88,
      "chip": "ym2612"
    },
    {
      "channel": 5,
      "note": 116,
      "start": 1.9221,
      "duration": 0.1742,
      "velocity": 114,
      "chip": "ym2612"
    },
    {
      "channel": 4,
      "note": 59,
      "start": 1.9251,
      "duration": 0.0378,
      "velocity": 101,
      "chip": "ym2612"
    },
    {
      "channel": 4,
      "note": 59,
      "start": 2.0499,
      "duration": 0.0297,
      "velocity": 101,
      "chip": "ym2612"
    },
    {
      "channel": 0,
      "note": 33,
      "start": 2.1658,
      "duration": 0.0304,
      "velocity": 113,
      "chip": "ym2612"
    },
    {
      "channel": 1,
      "note": 52,
      "start": 2.1685,
      "duration": 0.0609,
      "velocity": 88,
      "chip": "ym2612"
    },
    {
      "channel": 5,
      "note": 64,
      "start": 2.1714,
      "duration": 0.0749,
      "velocity": 114,
      "chip": "ym2612"
    },
    {
      "channel": 4,
      "note": 59,
      "start": 2.1745,
      "duration": 0.0717,
      "velocity": 101,
      "chip": "ym2612"
    },
    {
      "channel": 0,
      "note": 33,
      "start": 2.2823,
      "duration": 0.0806,
      "velocity": 113,
      "chip": "ym2612"
    },
    {
      "channel": 1,
      "note": 52,
      "start": 2.285,
      "duration": 0.0781,
      "velocity": 88,
      "chip": "ym2612"
    },
    {
      "channel": 4,
      "note": 59,
      "start": 2.2883,
      "duration": 0.058,
      "velocity": 101,
      "chip": "ym2612"
    },
    {
      "channel": 0,
      "note": 40,
      "start": 2.3991,
      "duration": 0.1636,
      "velocity": 113,
      "chip": "ym2612"
    },
    {
      "channel": 4,
      "note": 64,
      "start": 2.4025,
      "duration": 0.0938,
      "velocity": 101,
      "chip": "ym2612"
    },
    {
      "channel": 1,
      "note": 52,
      "start": 2.5324,
      "duration": 0.0638,
      "velocity": 88,
      "chip": "ym2612"
    },
    {
      "channel": 4,
      "note": 59,
      "start": 2.5362,
      "duration": 0.0602,
      "velocity": 101,
      "chip": "ym2612"
    },
    {
      "channel": 1,
      "note": 52,
      "start": 2.6491,
      "duration": 0.0805,
      "velocity": 88,
      "chip": "ym2612"
    },
    {
      "channel": 5,
      "note": 64,
      "start": 2.6518,
      "duration": 0.078,
      "velocity": 114,
      "chip": "ym2612"
    },
    {
      "channel": 4,
      "note": 62,
      "start": 2.7667,
      "duration": 0.0796,
      "velocity": 101,
      "chip": "ym2612"
    },
    {
      "channel": 1,
      "note": 52,
      "start": 2.8823,
      "duration": 0.0805,
      "velocity": 88,
      "chip": "ym2612"
    },
    {
      "channel": 1,
      "note": 52,
      "start": 3.1325,
      "duration": 0.1137,
      "velocity": 88,
      "chip": "ym2612"
    },
    {
      "channel": 5,
      "note": 64,
      "start": 3.1352,
      "duration": 0.0778,
      "velocity": 114,
      "chip": "ym2612"
    },
    {
      "channel": 1,
      "note": 50,
      "start": 3.3656,
      "duration": 0.1305,
      "velocity": 88,
      "chip": "ym2612"
    },
    {
      "channel": 0,
      "note": 40,
      "start": 3.6157,
      "duration": 0.0304,
      "velocity": 113,
      "chip": "ym2612"
    },
    {
      "channel": 1,
      "note": 47,
      "start": 3.6185,
      "duration": 0.1111,
      "velocity": 88,
      "chip": "ym2612"
    },
    {
      "channel": 5,
      "note": 64,
      "start": 3.6212,
      "duration": 0.0751,
      "velocity": 114,
      "chip": "ym2612"
    },
    {
      "channel": 0,
      "note": 40,
      "start": 3.7324,
      "duration": 0.097,
      "velocity": 113,
      "chip": "ym2612"
    },
    {
      "channel": 0,
      "note": 33,
      "start": 3.8493,
      "duration": 0.0968,
      "velocity": 113,
      "chip": "ym2612"
    },
    {
      "channel": 1,
      "note": 52,
      "start": 3.8519,
      "duration": 0.0777,
      "velocity": 88,
      "chip": "ym2612"
    },
    {
      "channel": 3,
      "note": 40,
      "start": 3.8546,
      "duration": 0.2249,
      "velocity": 93,
      "chip": "ym2612"
    },
    {
      "channel": 4,
      "note": 59,
      "start": 3.8578,
      "duration": 0.072,
      "velocity": 101,
      "chip": "ym2612"
    },
    {
      "channel": 4,
      "note": 59,
      "start": 3.9833,
      "duration": 0.0296,
      "velocity": 101,
      "chip": "ym2612"
    },
    {
      "channel": 0,
      "note": 33,
      "start": 4.0992,
      "duration": 0.0302,
      "velocity": 113,
      "chip": "ym2612"
    },
    {
      "channel": 1,
      "note": 52,
      "start": 4.1018,
      "duration": 0.0443,
      "velocity": 88,
      "chip": "ym2612"
    },
    {
      "channel": 5,
      "note": 64,
      "start": 4.1045,
      "duration": 0.0751,
      "velocity": 114,
      "chip": "ym2612"
    },
    {
      "channel": 4,
      "note": 59,
      "start": 4.1076,
      "duration": 0.0388,
      "velocity": 101,
      "chip": "ym2612"
    },
    {
      "channel": 0,
      "note": 33,
      "start": 4.2156,
      "duration": 0.0806,
      "velocity": 113,
      "chip": "ym2612"
    },
    {
      "channel": 1,
      "note": 52,
      "start": 4.2183,
      "duration": 0.0781,
      "velocity": 88,
      "chip": "ym2612"
    },
    {
      "channel": 3,
      "note": 40,
      "start": 4.2212,
      "duration": 0.2917,
      "velocity": 93,
      "chip": "ym2612"
    },
    {
      "channel": 4,
      "note": 59,
      "start": 4.2242,
      "duration": 0.0554,
      "velocity": 101,
      "chip": "ym2612"
    },
    {
      "channel": 0,
      "note": 40,
      "start": 4.3324,
      "duration": 0.1637,
      "velocity": 113,
      "chip": "ym2612"
    },
    {
      "channel": 4,
      "note": 64,
      "start": 4.3358,
      "duration": 0.0938,
      "velocity": 101,
      "chip": "ym2612"
    },
    {
      "channel": 1,
      "note": 52,
      "start": 4.466,
      "duration": 0.0303,
      "velocity": 88,
      "chip": "ym2612"
    },
    {
      "channel": 4,
      "note": 59,
      "start": 4.4692,
      "duration": 0.0438,
      "velocity": 101,
      "chip": "ym2612"
    },
    {
      "channel": 1,
      "note": 52,
      "start": 4.5826,
      "duration": 0.0803,
      "velocity": 88,
      "chip": "ym2612"
    },
    {
      "channel": 5,
      "note": 64,
      "start": 4.5859,
      "duration": 0.0938,
      "velocity": 114,
      "chip": "ym2612"
    },
    {
      "channel": 2,
      "note": 34,
      "start": 4.5887,
      "duration": 0.0244,
      "velocity": 114,
      "chip": "ym2612"
    },
    {
      "channel": 4,
      "note": 62,
      "start": 4.5921,
      "duration": 0.0041,
      "velocity": 101,
      "chip": "ym2612"
    },
    {
      "channel": 5,
      "note": 34,
      "start": 4.6997,
      "duration": 0.1466,
      "velocity": 114,
      "chip": "ym2612"
    },
    {
      "channel": 4,
      "note": 64,
      "start": 4.7029,
      "duration": 0.0933,
      "velocity": 101,
      "chip": "ym2612"
    },
    {
      "channel": 1,
      "note": 52,
      "start": 4.8156,
      "duration": 0.0805,
      "velocity": 88,
      "chip": "ym2612"
    },
    {
      "channel": 4,
      "note": 59,
      "start": 4.9499,
      "duration": 0.0463,
      "velocity": 101,
      "chip": "ym2612"
    },
    {
      "channel": 0,
      "note": 33,
      "start": 5.0658,
      "duration": 0.1137,
      "velocity": 113,
      "chip": "ym2612"
    },
    {
      "channel": 1,
      "note": 52,
      "start": 5.0687,
      "duration": 0.0942,
      "velocity": 88,
      "chip": "ym2612"
    },
    {
      "channel": 5,
      "note": 64,
      "start": 5.0716,
      "duration": 0.0915,
      "velocity": 114,
      "chip": "ym2612"
    },
    {
      "channel": 4,
      "note": 59,
      "start": 5.1834,
      "duration": 0.0629,
      "velocity": 101,
      "chip": "ym2612"
    },
    {
      "channel": 0,
      "note": 40,
      "start": 5.299,
      "duration": 0.1971,
      "velocity": 113,
      "chip": "ym2612"
    },
    {
      "channel": 1,
      "note": 55,
      "start": 5.3016,
      "duration": 0.2278,
      "velocity": 88,
      "chip": "ym2612"
    },
    {
      "channel": 5,
      "note": 116,
      "start": 5.3046,
      "duration": 0.0085,
      "velocity": 114,
      "chip": "ym2612"
    },
    {
      "channel": 4,
      "note": 62,
      "start": 5.3076,
      "duration": 0.072,
      "velocity": 101,
      "chip": "ym2612"
    },
    {
      "channel": 5,
      "note": 116,
      "start": 5.4327,
      "duration": 0.047,
      "velocity": 114,
      "chip": "ym2612"
    },
    {
      "channel": 4,
      "note": 59,
      "start": 5.4358,
      "duration": 0.0438,
      "velocity": 101,
      "chip": "ym2612"
    },
    {
      "channel": 1,
      "note": 57,
      "start": 5.5491,
      "duration": 0.0971,
      "velocity": 88,
      "chip": "ym2612"
    },
    {
      "channel": 5,
      "note": 116,
      "start": 5.5523,
      "duration": 0.0441,
      "velocity": 114,
      "chip": "ym2612"
    },
    {
      "channel": 2,
      "note": 64,
      "start": 5.5551,
      "duration": 0.0915,
      "velocity": 114,
      "chip": "ym2612"
    },
    {
      "channel": 4,
      "note": 64,
      "start": 5.5581,
      "duration": 0.0882,
      "velocity": 101,
      "chip": "ym2612"
    },
    {
      "channel": 0,
      "note": 40,
      "start": 5.6661,
      "duration": 0.0967,
      "velocity": 113,
      "chip": "ym2612"
    },
    {
      "channel": 5,
      "note": 116,
      "start": 5.669,
      "duration": 0.0273,
      "velocity": 114,
      "chip": "ym2612"
    },
    {
      "channel": 4,
      "note": 59,
      "start": 5.6724,
      "duration": 0.0572,
      "velocity": 101,
      "chip": "ym2612"
    },
    {
      "channel": 0,
      "note": 33,
      "start": 5.7824,
      "duration": 0.1304,
      "velocity": 113,
      "chip": "ym2612"
    },
    {
      "channel": 1,
      "note": 52,
      "start": 5.785,
      "duration": 0.0779,
      "velocity": 88,
      "chip": "ym2612"
    },
    {
      "channel": 5,
      "note": 116,
      "start": 5.7879,
      "duration": 0.0918,
      "velocity": 114,
      "chip": "ym2612"
    },
    {
      "channel": 4,
      "note": 59,
      "start": 5.791,
      "duration": 0.0387,
      "velocity": 101,
      "chip": "ym2612"
    },
    {
      "channel": 4,
      "note": 59,
      "start": 5.9166,
      "duration": 0.0296,
      "velocity": 101,
      "chip": "ym2612"
    },
    {
      "channel": 0,
      "note": 33,
      "start": 6.0325,
      "duration": 0.0136,
      "velocity": 113,
      "chip": "ym2612"
    },
    {
      "channel": 1,
      "note": 52,
      "start": 6.0352,
      "duration": 0.0443,
      "velocity": 88,
      "chip": "ym2612"
    },
    {
      "channel": 5,
      "note": 64,
      "start": 6.038,
      "duration": 0.0917,
      "velocity": 114,
      "chip": "ym2612"
    },
    {
      "channel": 4,
      "note": 59,
      "start": 6.041,
      "duration": 0.0386,
      "velocity": 101,
      "chip": "ym2612"
    },
    {
      "channel": 0,
      "note": 33,
      "start": 6.149,
      "duration": 0.0971,
      "velocity": 113,
      "chip": "ym2612"
    },
    {
      "channel": 1,
      "note": 52,
      "start": 6.1516,
      "duration": 0.0779,
      "velocity": 88,
      "chip": "ym2612"
    },
    {
      "channel": 4,
      "note": 59,
      "start": 6.1548,
      "duration": 0.0583,
      "velocity": 101,
      "chip": "ym2612"
    },
    {
      "channel": 0,
      "note": 40,
      "start": 6.2658,
      "duration": 0.2637,
      "velocity": 113,
      "chip": "ym2612"
    },
    {
      "channel": 4,
      "note": 64,
      "start": 6.2692,
      "duration": 0.0937,
      "velocity": 101,
      "chip": "ym2612"
    },
    {
      "channel": 1,
      "note": 52,
      "start": 6.3824,
      "duration": 0.0804,
      "velocity": 88,
      "chip": "ym2612"
    },
    {
      "channel": 4,
      "note": 59,
      "start": 6.3859,
      "duration": 0.0438,
      "velocity": 101,
      "chip": "ym2612"
    },
    {
      "channel": 1,
      "note": 52,
      "start": 6.5161,
      "duration": 0.0801,
      "velocity": 88,
      "chip": "ym2612"
    },
    {
      "channel": 5,
      "note": 64,
      "start": 6.5188,
      "duration": 0.0943,
      "velocity": 114,
      "chip": "ym2612"
    },
    {
      "channel": 4,
      "note": 62,
      "start": 6.6337,
      "duration": 0.0793,
      "velocity": 101,
      "chip": "ym2612"
    },
    {
      "channel": 1,
      "note": 52,
      "start": 6.749,
      "duration": 0.0805,
      "velocity": 88,
      "chip": "ym2612"
    },
    {
      "channel": 1,
      "note": 52,
      "start": 6.9991,
      "duration": 0.1137,
      "velocity": 88,
      "chip": "ym2612"
    },
    {
      "channel": 5,
      "note": 64,
      "start": 7.0019,
      "duration": 0.0778,
      "velocity": 114,
      "chip": "ym2612"
    },
    {
      "channel": 1,
      "note": 50,
      "start": 7.2322,
      "duration": 0.114,
      "velocity": 88,
      "chip": "ym2612"
    },
    {
      "channel": 0,
      "note": 40,
      "start": 7.4827,
      "duration": 0.0134,
      "velocity": 113,
      "chip": "ym2612"
    },
    {
      "channel": 1,
      "note": 47,
      "start": 7.4852,
      "duration": 0.1111,
      "velocity": 88,
      "chip": "ym2612"
    },
    {
      "channel": 5,
      "note": 64,
      "start": 7.4878,
      "duration": 0.0752,
      "velocity": 114,
      "chip": "ym2612"
    },
    {
      "channel": 0,
      "note": 40,
      "start": 7.5991,
      "duration": 0.097,
      "velocity": 113,
      "chip": "ym2612"
    },
    {
      "channel": 0,
      "note": 33,
      "start": 7.7158,
      "duration": 0.0804,
      "velocity": 113,
      "chip": "ym2612"
    },
    {
      "channel": 1,
      "note": 52,
      "start": 7.7184,
      "duration": 0.078,
      "velocity": 88,
      "chip": "ym2612"
    },
    {
      "channel": 3,
      "note": 40,
      "start": 7.7211,
      "duration": 0.2417,
      "velocity": 93,
      "chip": "ym2612"
    },
    {
      "channel": 2,
      "note": 59,
      "start": 7.7244,
      "duration": 0.0553,
      "velocity": 98,
      "chip": "ym2612"
    },
    {
      "channel": 2,
      "note": 59,
      "start": 7.8331,
      "duration": 0.0634,
      "velocity": 98,
      "chip": "ym2612"
    },
    {
      "channel": 0,
      "note": 33,
      "start": 7.9658,
      "duration": 0.0471,
      "velocity": 113,
      "chip": "ym2612"
    },
    {
      "channel": 1,
      "note": 52,
      "start": 7.9685,
      "duration": 0.0445,
      "velocity": 88,
      "chip": "ym2612"
    },
    {
      "channel": 5,
      "note": 64,
      "start": 7.9717,
      "duration": 0.0914,
      "velocity": 114,
      "chip": "ym2612"
    },
    {
      "channel": 2,
      "note": 59,
      "start": 7.9745,
      "duration": 0.0388,
      "velocity": 98,
      "chip": "ym2612"
    },
    {
      "channel": 0,
      "note": 33,
      "start": 8.0824,
      "duration": 0.0971,
      "velocity": 113,
      "chip": "ym2612"
    },
    {
      "channel": 1,
      "note": 52,
      "start": 8.085,
      "duration": 0.0779,
      "velocity": 88,
      "chip": "ym2612"
    },
    {
      "channel": 3,
      "note": 40,
      "start": 8.088,
      "duration": 0.2917,
      "velocity": 93,
      "chip": "ym2612"
    },
    {
      "channel": 2,
      "note": 59,
      "start": 8.0913,
      "duration": 0.0551,
      "velocity": 98,
      "chip": "ym2612"
    },
    {
      "channel": 0,
      "note": 40,
      "start": 8.1992,
      "duration": 0.247,
      "velocity": 113,
      "chip": "ym2612"
    },
    {
      "channel": 2,
      "note": 64,
      "start": 8.2025,
      "duration": 0.0772,
      "velocity": 98,
      "chip": "ym2612"
    },
    {
      "channel": 1,
      "note": 52,
      "start": 8.3163,
      "duration": 0.0466,
      "velocity": 88,
      "chip": "ym2612"
    },
    {
      "channel": 2,
      "note": 59,
      "start": 8.3195,
      "duration": 0.077,
      "velocity": 98,
      "chip": "ym2612"
    },
    {
      "channel": 1,
      "note": 52,
      "start": 8.4493,
      "duration": 0.0634,
      "velocity": 88,
      "chip": "ym2612"
    },
    {
      "channel": 5,
      "note": 64,
      "start": 8.4522,
      "duration": 0.0941,
      "velocity": 114,
      "chip": "ym2612"
    },
    {
      "channel": 4,
      "note": 34,
      "start": 8.455,
      "duration": 0.0414,
      "velocity": 114,
      "chip": "ym2612"
    },
    {
      "channel": 4,
      "note": 34,
      "start": 8.5663,
      "duration": 0.13,
      "velocity": 114,
      "chip": "ym2612"
    },
    {
      "channel": 2,
      "note": 64,
      "start": 8.5691,
      "duration": 0.0772,
      "velocity": 98,
      "chip": "ym2612"
    },
    {
      "channel": 1,
      "note": 52,
      "start": 8.6824,
      "duration": 0.0805,
      "velocity": 88,
      "chip": "ym2612"
    },
    {
      "channel": 2,
      "note": 59,
      "start": 8.7997,
      "duration": 0.08,
      "velocity": 98,
      "chip": "ym2612"
    },
    {
      "channel": 0,
      "note": 33,
      "start": 8.9327,
      "duration": 0.1468,
      "velocity": 113,
      "chip": "ym2612"
    },
    {
      "channel": 1,
      "note": 52,
      "start": 8.9353,
      "duration": 0.0942,
      "velocity": 88,
      "chip": "ym2612"
    },
    {
      "channel": 4,
      "note": 64,
      "start": 8.9382,
      "duration": 0.058,
      "velocity": 114,
      "chip": "ym2612"
    },
    {
      "channel": 2,
      "note": 59,
      "start": 9.0501,
      "duration": 0.063,
      "velocity": 98,
      "chip": "ym2612"
    },
    {
      "channel": 0,
      "note": 40,
      "start": 9.1657,
      "duration": 0.1137,
      "velocity": 113,
      "chip": "ym2612"
    },
    {
      "channel": 1,
      "note": 55,
      "start": 9.1683,
      "duration": 0.2113,
      "velocity": 88,
      "chip": "ym2612"
    },
    {
      "channel": 4,
      "note": 116,
      "start": 9.1712,
      "duration": 0.0085,
      "velocity": 114,
      "chip": "ym2612"
    },
    {
      "channel": 2,
      "note": 62,
      "start": 9.1742,
      "duration": 0.0722,
      "velocity": 98,
      "chip": "ym2612"
    },
    {
      "channel": 4,
      "note": 116,
      "start": 9.2832,
      "duration": 0.0631,
      "velocity": 114,
      "chip": "ym2612"
    },
    {
      "channel": 2,
      "note": 59,
      "start": 9.2862,
      "duration": 0.0602,
      "velocity": 98,
      "chip": "ym2612"
    },
    {
      "channel": 1,
      "note": 57,
      "start": 9.4158,
      "duration": 0.097,
      "velocity": 88,
      "chip": "ym2612"
    },
    {
      "channel": 4,
      "note": 116,
      "start": 9.4185,
      "duration": 0.0445,
      "velocity": 114,
      "chip": "ym2612"
    },
    {
      "channel": 5,
      "note": 64,
      "start": 9.4211,
      "duration": 0.042,
      "velocity": 114,
      "chip": "ym2612"
    },
    {
      "channel": 2,
      "note": 64,
      "start": 9.4241,
      "duration": 0.089,
      "velocity": 98,
      "chip": "ym2612"
    },
    {
      "channel": 0,
      "note": 40,
      "start": 9.5325,
      "duration": 0.0803,
      "velocity": 113,
      "chip": "ym2612"
    },
    {
      "channel": 4,
      "note": 116,
      "start": 9.5354,
      "duration": 0.0276,
      "velocity": 114,
      "chip": "ym2612"
    },
    {
      "channel": 2,
      "note": 59,
      "start": 9.5388,
      "duration": 0.0409,
      "velocity": 98,
      "chip": "ym2612"
    },
    {
      "channel": 0,
      "note": 33,
      "start": 9.6491,
      "duration": 0.1137,
      "velocity": 113,
      "chip": "ym2612"
    },
    {
      "channel": 1,
      "note": 52,
      "start": 9.6516,
      "duration": 0.0779,
      "velocity": 88,
      "chip": "ym2612"
    },
    {
      "channel": 4,
      "note": 116,
      "start": 9.6546,
      "duration": 0.0917,
      "velocity": 114,
      "chip": "ym2612"
    },
    {
      "channel": 2,
      "note": 59,
      "start": 9.6574,
      "duration": 0.0556,
      "velocity": 98,
      "chip": "ym2612"
    },
    {
      "channel": 2,
      "note": 59,
      "start": 9.7665,
      "duration": 0.0632,
      "velocity": 98,
      "chip": "ym2612"
    },
    {
      "channel": 0,
      "note": 33,
      "start": 9.8992,
      "duration": 0.0469,
      "velocity": 113,
      "chip": "ym2612"
    },
    {
      "channel": 1,
      "note": 52,
      "start": 9.9022,
      "duration": 0.044,
      "velocity": 88,
      "chip": "ym2612"
    },
    {
      "channel": 4,
      "note": 64,
      "start": 9.9051,
      "duration": 0.0578,
      "velocity": 114,
      "chip": "ym2612"
    },
    {
      "channel": 2,
      "note": 59,
      "start": 9.908,
      "duration": 0.0385,
      "velocity": 98,
      "chip": "ym2612"
    },
    {
      "channel": 0,
      "note": 33,
      "start": 10.0156,
      "duration": 0.0805,
      "velocity": 113,
      "chip": "ym2612"
    },
    {
      "channel": 1,
      "note": 52,
      "start": 10.0183,
      "duration": 0.078,
      "velocity": 88,
      "chip": "ym2612"
    },
    {
      "channel": 2,
      "note": 59,
      "start": 10.0214,
      "duration": 0.0417,
      "velocity": 98,
      "chip": "ym2612"
    },
    {
      "channel": 0,
      "note": 40,
      "start": 10.1328,
      "duration": 0.2967,
      "velocity": 113,
      "chip": "ym2612"
    },
    {
      "channel": 2,
      "note": 64,
      "start": 10.1362,
      "duration": 0.0769,
      "velocity": 98,
      "chip": "ym2612"
    },
    {
      "channel": 1,
      "note": 52,
      "start": 10.2492,
      "duration": 0.0804,
      "velocity": 88,
      "chip": "ym2612"
    },
    {
      "channel": 2,
      "note": 59,
      "start": 10.2525,
      "duration": 0.0938,
      "velocity": 98,
      "chip": "ym2612"
    },
    {
      "channel": 1,
      "note": 52,
      "start": 10.3824,
      "duration": 0.0637,
      "velocity": 88,
      "chip": "ym2612"
    },
    {
      "channel": 4,
      "note": 64,
      "start": 10.385,
      "duration": 0.0613,
      "velocity": 114,
      "chip": "ym2612"
    },
    {
      "channel": 2,
      "note": 64,
      "start": 10.4999,
      "duration": 0.0964,
      "velocity": 98,
      "chip": "ym2612"
    },
    {
      "channel": 1,
      "note": 52,
      "start": 10.6156,
      "duration": 0.0805,
      "velocity": 88,
      "chip": "ym2612"
    },
    {
      "channel": 0,
      "note": 33,
      "start": 10.8658,
      "duration": 0.1137,
      "velocity": 113,
      "chip": "ym2612"
    },
    {
      "channel": 1,
      "note": 52,
      "start": 10.8683,
      "duration": 0.1113,
      "velocity": 88,
      "chip": "ym2612"
    },
    {
      "channel": 4,
      "note": 64,
      "start": 10.8714,
      "duration": 0.0581,
      "velocity": 114,
      "chip": "ym2612"
    },
    {
      "channel": 5,
      "note": 116,
      "start": 10.8742,
      "duration": 0.0221,
      "velocity": 114,
      "chip": "ym2612"
    },
    {
      "channel": 4,
      "note": 116,
      "start": 10.9831,
      "duration": 0.08,
      "velocity": 114,
      "chip": "ym2612"
    },
    {
      "channel": 0,
      "note": 40,
      "start": 11.0991,
      "duration": 0.147,
      "velocity": 113,
      "chip": "ym2612"
    },
    {
      "channel": 1,
      "note": 50,
      "start": 11.1015,
      "duration": 0.1114,
      "velocity": 88,
      "chip": "ym2612"
    },
    {
      "channel": 1,
      "note": 47,
      "start": 11.349,
      "duration": 0.1139,
      "velocity": 88,
      "chip": "ym2612"
    },
    {
      "channel": 4,
      "note": 116,
      "start": 11.352,
      "duration": 0.0276,
      "velocity": 114,
      "chip": "ym2612"
    },
    {
      "channel": 5,
      "note": 64,
      "start": 11.3547,
      "duration": 0.0917,
      "velocity": 114,
      "chip": "ym2612"
    },
    {
      "channel": 4,
      "note": 116,
      "start": 11.4664,
      "duration": 0.08,
      "velocity": 114,
      "chip": "ym2612"
    },
    {
      "channel": 0,
      "note": 33,
      "start": 11.5824,
      "duration": 0.0803,
      "velocity": 113,
      "chip": "ym2612"
    },
    {
      "channel": 1,
      "note": 52,
      "start": 11.585,
      "duration": 0.078,
      "velocity": 88,
      "chip": "ym2612"
    },
    {
      "channel": 3,
      "note": 40,
      "start": 11.5882,
      "duration": 0.2581,
      "velocity": 93,
      "chip": "ym2612"
    },
    {
      "channel": 2,
      "note": 59,
      "start": 11.5914,
      "duration": 0.055,
      "velocity": 98,
      "chip": "ym2612"
    },
    {
      "channel": 2,
      "note": 59,
      "start": 11.7002,
      "duration": 0.0628,
      "velocity": 98,
      "chip": "ym2612"
    },
    {
      "channel": 0,
      "note": 33,
      "start": 11.8325,
      "duration": 0.0136,
      "velocity": 113,
      "chip": "ym2612"
    },
    {
      "channel": 1,
      "note": 52,
      "start": 11.8356,
      "duration": 0.0439,
      "velocity": 88,
      "chip": "ym2612"
    },
    {
      "channel": 4,
      "note": 64,
      "start": 11.8387,
      "duration": 0.0577,
      "velocity": 114,
      "chip": "ym2612"
    },
    {
      "channel": 2,
      "note": 59,
      "start": 11.8415,
      "duration": 0.0383,
      "velocity": 98,
      "chip": "ym2612"
    },
    {
      "channel": 0,
      "note": 33,
      "start": 11.949,
      "duration": 0.0973,
      "velocity": 113,
      "chip": "ym2612"
    },
    {
      "channel": 1,
      "note": 52,
      "start": 11.9516,
      "duration": 0.0779,
      "velocity": 88,
      "chip": "ym2612"
    },
    {
      "channel": 3,
      "note": 40,
      "start": 11.9546,
      "duration": 0.2751,
      "velocity": 93,
      "chip": "ym2612"
    },
    {
      "channel": 2,
      "note": 59,
      "start": 11.9576,
      "duration": 0.0389,
      "velocity": 98,
      "chip": "ym2612"
    },
    {
      "channel": 0,
      "note": 40,
      "start": 12.0661,
      "duration": 0.2634,
      "velocity": 113,
      "chip": "ym2612"
    },
    {
      "channel": 2,
      "note": 64,
      "start": 12.0695,
      "duration": 0.0936,
      "velocity": 98,
      "chip": "ym2612"
    },
    {
      "channel": 1,
      "note": 52,
      "start": 12.1826,
      "duration": 0.0469,
      "velocity": 88,
      "chip": "ym2612"
    },
    {
      "channel": 2,
      "note": 59,
      "start": 12.1861,
      "duration": 0.0769,
      "velocity": 98,
      "chip": "ym2612"
    },
    {
      "channel": 1,
      "note": 52,
      "start": 12.316,
      "duration": 0.0636,
      "velocity": 88,
      "chip": "ym2612"
    },
    {
      "channel": 4,
      "note": 64,
      "start": 12.3187,
      "duration": 0.0611,
      "velocity": 114,
      "chip": "ym2612"
    },
    {
      "channel": 5,
      "note": 34,
      "start": 12.3214,
      "duration": 0.025,
      "velocity": 114,
      "chip": "ym2612"
    },
    {
      "channel": 4,
      "note": 34,
      "start": 12.4329,
      "duration": 0.1135,
      "velocity": 114,
      "chip": "ym2612"
    },
    {
      "channel": 2,
      "note": 64,
      "start": 12.4358,
      "duration": 0.0772,
      "velocity": 98,
      "chip": "ym2612"
    },
    {
      "channel": 1,
      "note": 52,
      "start": 12.5492,
      "duration": 0.0803,
      "velocity": 88,
      "chip": "ym2612"
    },
    {
      "channel": 2,
      "note": 59,
      "start": 12.6665,
      "duration": 0.0632,
      "velocity": 98,
      "chip": "ym2612"
    },
    {
      "channel": 0,
      "note": 33,
      "start": 12.7825,
      "duration": 0.0303,
      "velocity": 113,
      "chip": "ym2612"
    },
    {
      "channel": 1,
      "note": 52,
      "start": 12.785,
      "duration": 0.1111,
      "velocity": 88,
      "chip": "ym2612"
    },
    {
      "channel": 4,
      "note": 64,
      "start": 12.788,
      "duration": 0.0749,
      "velocity": 114,
      "chip": "ym2612"
    },
    {
      "channel": 0,
      "note": 33,
      "start": 12.9156,
      "duration": 0.0971,
      "velocity": 113,
      "chip": "ym2612"
    },
    {
      "channel": 2,
      "note": 59,
      "start": 12.919,
      "duration": 0.0441,
      "velocity": 98,
      "chip": "ym2612"
    },
    {
      "channel": 0,
      "note": 40,
      "start": 13.0325,
      "duration": 0.1137,
      "velocity": 113,
      "chip": "ym2612"
    },
    {
      "channel": 1,
      "note": 55,
      "start": 13.035,
      "duration": 0.2112,
      "velocity": 88,
      "chip": "ym2612"
    },
    {
      "channel": 4,
      "note": 116,
      "start": 13.0379,
      "duration": 0.0084,
      "velocity": 114,
      "chip": "ym2612"
    },
    {
      "channel": 2,
      "note": 62,
      "start": 13.041,
      "duration": 0.0721,
      "velocity": 98,
      "chip": "ym2612"
    },
    {
      "channel": 4,
      "note": 116,
      "start": 13.1499,
      "duration": 0.063,
      "velocity": 114,
      "chip": "ym2612"
    },
    {
      "channel": 2,
      "note": 59,
      "start": 13.1534,
      "duration": 0.0597,
      "velocity": 98,
      "chip": "ym2612"
    },
    {
      "channel": 1,
      "note": 57,
      "start": 13.2662,
      "duration": 0.1133,
      "velocity": 88,
      "chip": "ym2612"
    },
    {
      "channel": 4,
      "note": 116,
      "start": 13.269,
      "duration": 0.0606,
      "velocity": 114,
      "chip": "ym2612"
    },
    {
      "channel": 5,
      "note": 64,
      "start": 13.2717,
      "duration": 0.0746,
      "velocity": 114,
      "chip": "ym2612"
    },
    {
      "channel": 2,
      "note": 64,
      "start": 13.2747,
      "duration": 0.105,
      "velocity": 98,
      "chip": "ym2612"
    },
    {
      "channel": 0,
      "note": 40,
      "start": 13.3989,
      "duration": 0.1139,
      "velocity": 113,
      "chip": "ym2612"
    },
    {
      "channel": 4,
      "note": 116,
      "start": 13.4018,
      "duration": 0.0277,
      "velocity": 114,
      "chip": "ym2612"
    },
    {
      "channel": 2,
      "note": 59,
      "start": 13.4048,
      "duration": 0.0415,
      "velocity": 98,
      "chip": "ym2612"
    },
    {
      "channel": 0,
      "note": 33,
      "start": 13.5159,
      "duration": 0.097,
      "velocity": 113,
      "chip": "ym2612"
    },
    {
      "channel": 1,
      "note": 52,
      "start": 13.5184,
      "duration": 0.0778,
      "velocity": 88,
      "chip": "ym2612"
    },
    {
      "channel": 4,
      "note": 116,
      "start": 13.5214,
      "duration": 0.0917,
      "velocity": 114,
      "chip": "ym2612"
    },
    {
      "channel": 2,
      "note": 59,
      "start": 13.5242,
      "duration": 0.0555,
      "velocity": 98,
      "chip": "ym2612"
    },
    {
      "channel": 2,
      "note": 59,
      "start": 13.6332,
      "duration": 0.0632,
      "velocity": 98,
      "chip": "ym2612"
    },
    {
      "channel": 0,
      "note": 33,
      "start": 13.7495,
      "duration": 0.0299,
      "velocity": 113,
      "chip": "ym2612"
    },
    {
      "channel": 1,
      "note": 52,
      "start": 13.7522,
      "duration": 0.0606,
      "velocity": 88,
      "chip": "ym2612"
    },
    {
      "channel": 4,
      "note": 64,
      "start": 13.7551,
      "duration": 0.0744,
      "velocity": 114,
      "chip": "ym2612"
    },
    {
      "channel": 2,
      "note": 59,
      "start": 13.758,
      "duration": 0.0551,
      "velocity": 98,
      "chip": "ym2612"
    },
    {
      "channel": 0,
      "note": 33,
      "start": 13.8822,
      "duration": 0.0805,
      "velocity": 113,
      "chip": "ym2612"
    },
    {
      "channel": 1,
      "note": 52,
      "start": 13.8849,
      "duration": 0.078,
      "velocity": 88,
      "chip": "ym2612"
    },
    {
      "channel": 2,
      "note": 59,
      "start": 13.888,
      "duration": 0.0417,
      "velocity": 98,
      "chip": "ym2612"
    },
    {
      "channel": 0,
      "note": 40,
      "start": 13.9991,
      "duration": 0.297,
      "velocity": 113,
      "chip": "ym2612"
    },
    {
      "channel": 2,
      "note": 64,
      "start": 14.0025,
      "duration": 0.0939,
      "velocity": 98,
      "chip": "ym2612"
    },
    {
      "channel": 1,
      "note": 52,
      "start": 14.1158,
      "duration": 0.0803,
      "velocity": 88,
      "chip": "ym2612"
    },
    {
      "channel": 2,
      "note": 59,
      "start": 14.1193,
      "duration": 0.0771,
      "velocity": 98,
      "chip": "ym2612"
    },
    {
      "channel": 1,
      "note": 52,
      "start": 14.2324,
      "duration": 0.0804,
      "velocity": 88,
      "chip": "ym2612"
    },
    {
      "channel": 4,
      "note": 64,
      "start": 14.235,
      "duration": 0.078,
      "velocity": 114,
      "chip": "ym2612"
    },
    {
      "channel": 2,
      "note": 64,
      "start": 14.3671,
      "duration": 0.0959,
      "velocity": 98,
      "chip": "ym2612"
    },
    {
      "channel": 1,
      "note": 52,
      "start": 14.4823,
      "duration": 0.0805,
      "velocity": 88,
      "chip": "ym2612"
    },
    {
      "channel": 0,
      "note": 33,
      "start": 14.7158,
      "duration": 0.1303,
      "velocity": 113,
      "chip": "ym2612"
    },
    {
      "channel": 1,
      "note": 52,
      "start": 14.7187,
      "duration": 0.1276,
      "velocity": 88,
      "chip": "ym2612"
    },
    {
      "channel": 4,
      "note": 64,
      "start": 14.7218,
      "duration": 0.0579,
      "velocity": 114,
      "chip": "ym2612"
    },
    {
      "channel": 0,
      "note": 40,
      "start": 14.9656,
      "duration": 0.2139,
      "velocity": 113,
      "chip": "ym2612"
    },
    {
      "channel": 1,
      "note": 50,
      "start": 14.968,
      "duration": 0.1115,
      "velocity": 88,
      "chip": "ym2612"
    },
    {
      "channel": 0,
      "note": 33,
      "start": 15.1992,
      "duration": 0.0636,
      "velocity": 113,
      "chip": "ym2612"
    },
    {
      "channel": 1,
      "note": 47,
      "start": 15.2016,
      "duration": 0.1279,
      "velocity": 88,
      "chip": "ym2612"
    },
    {
      "channel": 4,
      "note": 64,
      "start": 15.2043,
      "duration": 0.0587,
      "velocity": 114,
      "chip": "ym2612"
    },
    {
      "channel": 5,
      "note": 34,
      "start": 15.2068,
      "duration": 0.0395,
      "velocity": 114,
      "chip": "ym2612"
    },
    {
      "channel": 3,
      "note": 116,
      "start": 15.2097,
      "duration": 0.02,
      "velocity": 114,
      "chip": "ym2612"
    },
    {
      "channel": 0,
      "note": 40,
      "start": 15.3327,
      "duration": 0.1134,
      "velocity": 113,
      "chip": "ym2612"
    },
    {
      "channel": 3,
      "note": 116,
      "start": 15.3357,
      "duration": 0.0438,
      "velocity": 114,
      "chip": "ym2612"
    },
    {
      "channel": 4,
      "note": 34,
      "start": 15.3383,
      "duration": 0.0913,
      "velocity": 114,
      "chip": "ym2612"
    },
    {
      "channel": 0,
      "note": 33,
      "start": 15.4503,
      "duration": 0.0624,
      "velocity": 113,
      "chip": "ym2612"
    },
    {
      "channel": 1,
      "note": 52,
      "start": 15.4529,
      "duration": 0.0766,
      "velocity": 88,
      "chip": "ym2612"
    },
    {
      "channel": 2,
      "note": 59,
      "start": 15.5667,
      "duration": 0.113,
      "velocity": 98,
      "chip": "ym2612"
    },
    {
      "channel": 5,
      "note": 67,
      "start": 15.5698,
      "duration": 0.0599,
      "velocity": 98,
      "chip": "ym2612"
    },
    {
      "channel": 0,
      "note": 33,
      "start": 15.6826,
      "duration": 0.0469,
      "velocity": 113,
      "chip": "ym2612"
    },
    {
      "channel": 1,
      "note": 52,
      "start": 15.6852,
      "duration": 0.0609,
      "velocity": 88,
      "chip": "ym2612"
    },
    {
      "channel": 3,
      "note": 64,
      "start": 15.6881,
      "duration": 0.0749,
      "velocity": 114,
      "chip": "ym2612"
    },
    {
      "channel": 0,
      "note": 33,
      "start": 15.8156,
      "duration": 0.0472,
      "velocity": 113,
      "chip": "ym2612"
    },
    {
      "channel": 1,
      "note": 52,
      "start": 15.8183,
      "duration": 0.0613,
      "velocity": 88,
      "chip": "ym2612"
    },
    {
      "channel": 5,
      "note": 59,
      "start": 15.8217,
      "duration": 0.0581,
      "velocity": 98,
      "chip": "ym2612"
    },
    {
      "channel": 2,
      "note": 67,
      "start": 15.8247,
      "duration": 0.0385,
      "velocity": 98,
      "chip": "ym2612"
    },
    {
      "channel": 0,
      "note": 40,
      "start": 15.9325,
      "duration": 0.1303,
      "velocity": 113,
      "chip": "ym2612"
    },
    {
      "channel": 1,
      "note": 52,
      "start": 16.0493,
      "duration": 0.0469,
      "velocity": 88,
      "chip": "ym2612"
    },
    {
      "channel": 5,
      "note": 67,
      "start": 16.0525,
      "duration": 0.0605,
      "velocity": 98,
      "chip": "ym2612"
    },
    {
      "channel": 2,
      "note": 59,
      "start": 16.0557,
      "duration": 0.0574,
      "velocity": 98,
      "chip": "ym2612"
    },
    {
      "channel": 1,
      "note": 52,
      "start": 16.1663,
      "duration": 0.0799,
      "velocity": 88,
      "chip": "ym2612"
    },
    {
      "channel": 3,
      "note": 64,
      "start": 16.1691,
      "duration": 0.0938,
      "velocity": 114,
      "chip": "ym2612"
    },
    {
      "channel": 4,
      "note": 34,
      "start": 16.1717,
      "duration": 0.0412,
      "velocity": 114,
      "chip": "ym2612"
    },
    {
      "channel": 3,
      "note": 34,
      "start": 16.2996,
      "duration": 0.13,
      "velocity": 114,
      "chip": "ym2612"
    },
    {
      "channel": 5,
      "note": 69,
      "start": 16.3027,
      "duration": 0.2771,
      "velocity": 98,
      "chip": "ym2612"
    },
    {
      "channel": 2,
      "note": 59,
      "start": 16.3057,
      "duration": 0.2073,
      "velocity": 98,
      "chip": "ym2612"
    },
    {
      "channel": 1,
      "note": 52,
      "start": 16.4156,
      "duration": 0.0805,
      "velocity": 88,
      "chip": "ym2612"
    },
    {
      "channel": 0,
      "note": 33,
      "start": 16.6491,
      "duration": 0.1304,
      "velocity": 113,
      "chip": "ym2612"
    },
    {
      "channel": 1,
      "note": 52,
      "start": 16.6516,
      "duration": 0.0946,
      "velocity": 88,
      "chip": "ym2612"
    },
    {
      "channel": 3,
      "note": 64,
      "start": 16.6548,
      "duration": 0.0915,
      "velocity": 114,
      "chip": "ym2612"
    },
    {
      "channel": 5,
      "note": 67,
      "start": 16.6579,
      "duration": 0.055,
      "velocity": 98,
      "chip": "ym2612"
    },
    {
      "channel": 2,
      "note": 59,
      "start": 16.6609,
      "duration": 0.0688,
      "velocity": 98,
      "chip": "ym2612"
    },
    {
      "channel": 0,
      "note": 40,
      "start": 16.8994,
      "duration": 0.1967,
      "velocity": 113,
      "chip": "ym2612"
    },
    {
      "channel": 1,
      "note": 55,
      "start": 16.902,
      "duration": 0.2109,
      "velocity": 88,
      "chip": "ym2612"
    },
    {
      "channel": 3,
      "note": 116,
      "start": 16.9048,
      "duration": 0.0247,
      "velocity": 114,
      "chip": "ym2612"
    },
    {
      "channel": 3,
      "note": 116,
      "start": 17.016,
      "duration": 0.0635,
      "velocity": 114,
      "chip": "ym2612"
    },
    {
      "channel": 1,
      "note": 57,
      "start": 17.1325,
      "duration": 0.0971,
      "velocity": 88,
      "chip": "ym2612"
    },
    {
      "channel": 3,
      "note": 116,
      "start": 17.1352,
      "duration": 0.061,
      "velocity": 114,
      "chip": "ym2612"
    },
    {
      "channel": 4,
      "note": 64,
      "start": 17.1378,
      "duration": 0.0751,
      "velocity": 114,
      "chip": "ym2612"
    },
    {
      "channel": 5,
      "note": 67,
      "start": 17.141,
      "duration": 0.122,
      "velocity": 98,
      "chip": "ym2612"
    },
    {
      "channel": 2,
      "note": 59,
      "start": 17.1442,
      "duration": 0.1189,
      "velocity": 98,
      "chip": "ym2612"
    },
    {
      "channel": 0,
      "note": 40,
      "start": 17.2659,
      "duration": 0.0469,
      "velocity": 113,
      "chip": "ym2612"
    },
    {
      "channel": 3,
      "note": 116,
      "start": 17.2687,
      "duration": 0.0443,
      "velocity": 114,
      "chip": "ym2612"
    },
    {
      "channel": 0,
      "note": 33,
      "start": 17.3824,
      "duration": 0.0972,
      "velocity": 113,
      "chip": "ym2612"
    },
    {
      "channel": 1,
      "note": 52,
      "start": 17.3849,
      "duration": 0.078,
      "velocity": 88,
      "chip": "ym2612"
    },
    {
      "channel": 3,
      "note": 116,
      "start": 17.3878,
      "duration": 0.1751,
      "velocity": 114,
      "chip": "ym2612"
    },
    {
      "channel": 5,
      "note": 60,
      "start": 17.3909,
      "duration": 0.1722,
      "velocity": 98,
      "chip": "ym2612"
    },
    {
      "channel": 2,
      "note": 67,
      "start": 17.3939,
      "duration": 0.0025,
      "velocity": 98,
      "chip": "ym2612"
    },
    {
      "channel": 2,
      "note": 67,
      "start": 17.5,
      "duration": 0.0964,
      "velocity": 98,
      "chip": "ym2612"
    },
    {
      "channel": 0,
      "note": 33,
      "start": 17.6158,
      "duration": 0.047,
      "velocity": 113,
      "chip": "ym2612"
    },
    {
      "channel": 1,
      "note": 52,
      "start": 17.6186,
      "duration": 0.061,
      "velocity": 88,
      "chip": "ym2612"
    },
    {
      "channel": 3,
      "note": 64,
      "start": 17.6217,
      "duration": 0.0744,
      "velocity": 114,
      "chip": "ym2612"
    },
    {
      "channel": 0,
      "note": 33,
      "start": 17.749,
      "duration": 0.0637,
      "velocity": 113,
      "chip": "ym2612"
    },
    {
      "channel": 1,
      "note": 52,
      "start": 17.7517,
      "duration": 0.0612,
      "velocity": 88,
      "chip": "ym2612"
    },
    {
      "channel": 5,
      "note": 67,
      "start": 17.755,
      "duration": 0.0413,
      "velocity": 98,
      "chip": "ym2612"
    },
    {
      "channel": 2,
      "note": 60,
      "start": 17.7579,
      "duration": 0.0385,
      "velocity": 98,
      "chip": "ym2612"
    },
    {
      "channel": 0,
      "note": 40,
      "start": 17.8661,
      "duration": 0.1467,
      "velocity": 113,
      "chip": "ym2612"
    },
    {
      "channel": 1,
      "note": 52,
      "start": 17.9828,
      "duration": 0.08,
      "velocity": 88,
      "chip": "ym2612"
    },
    {
      "channel": 5,
      "note": 67,
      "start": 17.9865,
      "duration": 0.0766,
      "velocity": 98,
      "chip": "ym2612"
    },
    {
      "channel": 2,
      "note": 60,
      "start": 17.9895,
      "duration": 0.0568,
      "velocity": 98,
      "chip": "ym2612"
    },
    {
      "channel": 1,
      "note": 52,
      "start": 18.0991,
      "duration": 0.0803,
      "velocity": 88,
      "chip": "ym2612"
    },
    {
      "channel": 3,
      "note": 64,
      "start": 18.1016,
      "duration": 0.078,
      "velocity": 114,
      "chip": "ym2612"
    },
    {
      "channel": 5,
      "note": 60,
      "start": 18.2333,
      "duration": 0.213,
      "velocity": 98,
      "chip": "ym2612"
    },
    {
      "channel": 2,
      "note": 69,
      "start": 18.2364,
      "duration": 0.2599,
      "velocity": 98,
      "chip": "ym2612"
    },
    {
      "channel": 1,
      "note": 52,
      "start": 18.349,
      "duration": 0.0804,
      "velocity": 88,
      "chip": "ym2612"
    },
    {
      "channel": 4,
      "note": 59,
      "start": 18.3529,
      "duration": 0.0434,
      "velocity": 101,
      "chip": "ym2612"
    },
    {
      "channel": 4,
      "note": 59,
      "start": 18.4665,
      "duration": 0.0631,
      "velocity": 101,
      "chip": "ym2612"
    },
    {
      "channel": 1,
      "note": 52,
      "start": 18.5824,
      "duration": 0.1304,
      "velocity": 88,
      "chip": "ym2612"
    },
    {
      "channel": 3,
      "note": 64,
      "start": 18.585,
      "duration": 0.0779,
      "velocity": 114,
      "chip": "ym2612"
    },
    {
      "channel": 5,
      "note": 60,
      "start": 18.5881,
      "duration": 0.0749,
      "velocity": 98,
      "chip": "ym2612"
    },
    {
      "channel": 2,
      "note": 67,
      "start": 18.5915,
      "duration": 0.0382,
      "velocity": 98,
      "chip": "ym2612"
    },
    {
      "channel": 4,
      "note": 59,
      "start": 18.5943,
      "duration": 0.0521,
      "velocity": 101,
      "chip": "ym2612"
    },
    {
      "channel": 4,
      "note": 59,
      "start": 18.7167,
      "duration": 0.0296,
      "velocity": 101,
      "chip": "ym2612"
    },
    {
      "channel": 1,
      "note": 50,
      "start": 18.8323,
      "duration": 0.1139,
      "velocity": 88,
      "chip": "ym2612"
    },
    {
      "channel": 4,
      "note": 64,
      "start": 18.8356,
      "duration": 0.094,
      "velocity": 101,
      "chip": "ym2612"
    },
    {
      "channel": 4,
      "note": 59,
      "start": 18.9501,
      "duration": 0.0629,
      "velocity": 101,
      "chip": "ym2612"
    },
    {
      "channel": 0,
      "note": 40,
      "start": 19.0658,
      "duration": 0.0469,
      "velocity": 113,
      "chip": "ym2612"
    },
    {
      "channel": 1,
      "note": 47,
      "start": 19.0683,
      "duration": 0.1112,
      "velocity": 88,
      "chip": "ym2612"
    },
    {
      "channel": 3,
      "note": 64,
      "start": 19.0708,
      "duration": 0.0754,
      "velocity": 114,
      "chip": "ym2612"
    },
    {
      "channel": 4,
      "note": 62,
      "start": 19.0739,
      "duration": 0.0391,
      "velocity": 101,
      "chip": "ym2612"
    },
    {
      "channel": 0,
      "note": 40,
      "start": 19.1824,
      "duration": 0.1138,
      "velocity": 113,
      "chip": "ym2612"
    },
    {
      "channel": 4,
      "note": 64,
      "start": 19.1864,
      "duration": 0.0765,
      "velocity": 101,
      "chip": "ym2612"
    },
    {
      "channel": 0,
      "note": 33,
      "start": 19.3157,
      "duration": 0.0971,
      "velocity": 113,
      "chip": "ym2612"
    },
    {
      "channel": 1,
      "note": 52,
      "start": 19.3183,
      "duration": 0.0778,
      "velocity": 88,
      "chip": "ym2612"
    },
    {
      "channel": 5,
      "note": 67,
      "start": 19.3214,
      "duration": 0.0249,
      "velocity": 98,
      "chip": "ym2612"
    },
    {
      "channel": 2,
      "note": 61,
      "start": 19.3244,
      "duration": 0.2053,
      "velocity": 98,
      "chip": "ym2612"
    },
    {
      "channel": 5,
      "note": 67,
      "start": 19.4334,
      "duration": 0.063,
      "velocity": 98,
      "chip": "ym2612"
    },
    {
      "channel": 0,
      "note": 33,
      "start": 19.5492,
      "duration": 0.047,
      "velocity": 113,
      "chip": "ym2612"
    },
    {
      "channel": 1,
      "note": 52,
      "start": 19.5519,
      "duration": 0.0609,
      "velocity": 88,
      "chip": "ym2612"
    },
    {
      "channel": 3,
      "note": 64,
      "start": 19.5544,
      "duration": 0.0751,
      "velocity": 114,
      "chip": "ym2612"
    },
    {
      "channel": 0,
      "note": 33,
      "start": 19.6657,
      "duration": 0.0804,
      "velocity": 113,
      "chip": "ym2612"
    },
    {
      "channel": 1,
      "note": 52,
      "start": 19.6688,
      "duration": 0.0775,
      "velocity": 88,
      "chip": "ym2612"
    },
    {
      "channel": 5,
      "note": 67,
      "start": 19.6721,
      "duration": 0.0409,
      "velocity": 98,
      "chip": "ym2612"
    },
    {
      "channel": 2,
      "note": 61,
      "start": 19.6751,
      "duration": 0.0714,
      "velocity": 98,
      "chip": "ym2612"
    },
    {
      "channel": 0,
      "note": 40,
      "start": 19.7991,
      "duration": 0.147,
      "velocity": 113,
      "chip": "ym2612"
    },
    {
      "channel": 1,
      "note": 52,
      "start": 19.9159,
      "duration": 0.0303,
      "velocity": 88,
      "chip": "ym2612"
    },
    {
      "channel": 5,
      "note": 61,
      "start": 19.9195,
      "duration": 0.0768,
      "velocity": 98,
      "chip": "ym2612"
    },
    {
      "channel": 2,
      "note": 67,
      "start": 19.9224,
      "duration": 0.0573,
      "velocity": 98,
      "chip": "ym2612"
    },
    {
      "channel": 1,
      "note": 52,
      "start": 20.0327,
      "duration": 0.0801,
      "velocity": 88,
      "chip": "ym2612"
    },
    {
      "channel": 3,
      "note": 64,
      "start": 20.0356,
      "duration": 0.094,
      "velocity": 114,
      "chip": "ym2612"
    },
    {
      "channel": 4,
      "note": 34,
      "start": 20.0383,
      "duration": 0.0412,
      "velocity": 114,
      "chip": "ym2612"
    },
    {
      "channel": 3,
      "note": 34,
      "start": 20.1495,
      "duration": 0.1467,
      "velocity": 114,
      "chip": "ym2612"
    },
    {
      "channel": 5,
      "note": 61,
      "start": 20.1527,
      "duration": 0.2437,
      "velocity": 98,
      "chip": "ym2612"
    },
    {
      "channel": 2,
      "note": 69,
      "start": 20.1557,
      "duration": 0.3073,
      "velocity": 98,
      "chip": "ym2612"
    },
    {
      "channel": 1,
      "note": 52,
      "start": 20.2824,
      "duration": 0.0805,
      "velocity": 88,
      "chip": "ym2612"
    },
    {
      "channel": 0,
      "note": 33,
      "start": 20.5161,
      "duration": 0.1133,
      "velocity": 113,
      "chip": "ym2612"
    },
    {
      "channel": 1,
      "note": 52,
      "start": 20.5187,
      "duration": 0.0942,
      "velocity": 88,
      "chip": "ym2612"
    },
    {
      "channel": 3,
      "note": 64,
      "start": 20.5219,
      "duration": 0.0912,
      "velocity": 114,
      "chip": "ym2612"
    },
    {
      "channel": 5,
      "note": 67,
      "start": 20.525,
      "duration": 0.0548,
      "velocity": 98,
      "chip": "ym2612"
    },
    {
      "channel": 2,
      "note": 61,
      "start": 20.5278,
      "duration": 0.052,
      "velocity": 98,
      "chip": "ym2612"
    },
    {
      "channel": 0,
      "note": 40,
      "start": 20.7658,
      "duration": 0.1969,
      "velocity": 113,
      "chip": "ym2612"
    },
    {
      "channel": 1,
      "note": 55,
      "start": 20.7684,
      "duration": 0.2111,
      "velocity": 88,
      "chip": "ym2612"
    },
    {
      "channel": 3,
      "note": 116,
      "start": 20.7712,
      "duration": 0.0083,
      "velocity": 114,
      "chip": "ym2612"
    },
    {
      "channel": 5,
      "note": 61,
      "start": 20.7747,
      "duration": 0.0717,
      "velocity": 98,
      "chip": "ym2612"
    },
    {
      "channel": 2,
      "note": 67,
      "start": 20.7775,
      "duration": 0.069,
      "velocity": 98,
      "chip": "ym2612"
    },
    {
      "channel": 3,
      "note": 116,
      "start": 20.8827,
      "duration": 0.0635,
      "velocity": 114,
      "chip": "ym2612"
    },
    {
      "channel": 1,
      "note": 57,
      "start": 20.9992,
      "duration": 0.0969,
      "velocity": 88,
      "chip": "ym2612"
    },
    {
      "channel": 3,
      "note": 116,
      "start": 21.0019,
      "duration": 0.0611,
      "velocity": 114,
      "chip": "ym2612"
    },
    {
      "channel": 4,
      "note": 64,
      "start": 21.0045,
      "duration": 0.0918,
      "velocity": 114,
      "chip": "ym2612"
    },
    {
      "channel": 5,
      "note": 61,
      "start": 21.0074,
      "duration": 0.0722,
      "velocity": 98,
      "chip": "ym2612"
    },
    {
      "channel": 2,
      "note": 69,
      "start": 21.0104,
      "duration": 0.0694,
      "velocity": 98,
      "chip": "ym2612"
    },
    {
      "channel": 0,
      "note": 40,
      "start": 21.1158,
      "duration": 0.097,
      "velocity": 113,
      "chip": "ym2612"
    },
    {
      "channel": 3,
      "note": 116,
      "start": 21.1187,
      "duration": 0.0442,
      "velocity": 114,
      "chip": "ym2612"
    },
    {
      "channel": 0,
      "note": 33,
      "start": 21.2492,
      "duration": 0.1137,
      "velocity": 113,
      "chip": "ym2612"
    },
    {
      "channel": 1,
      "note": 52,
      "start": 21.2517,
      "duration": 0.0611,
      "velocity": 88,
      "chip": "ym2612"
    },
    {
      "channel": 3,
      "note": 116,
      "start": 21.2549,
      "duration": 0.0914,
      "velocity": 114,
      "chip": "ym2612"
    },
    {
      "channel": 5,
      "note": 67,
      "start": 21.258,
      "duration": 0.0217,
      "velocity": 98,
      "chip": "ym2612"
    },
    {
      "channel": 2,
      "note": 62,
      "start": 21.2609,
      "duration": 0.019,
      "velocity": 98,
      "chip": "ym2612"
    },
    {
      "channel": 5,
      "note": 62,
      "start": 21.3672,
      "duration": 0.0791,
      "velocity": 98,
      "chip": "ym2612"
    },
    {
      "channel": 2,
      "note": 67,
      "start": 21.3703,
      "duration": 0.0594,
      "velocity": 98,
      "chip": "ym2612"
    },
    {
      "channel": 0,
      "note": 33,
      "start": 21.4824,
      "duration": 0.0137,
      "velocity": 113,
      "chip": "ym2612"
    },
    {
      "channel": 1,
      "note": 52,
      "start": 21.4855,
      "duration": 0.0606,
      "velocity": 88,
      "chip": "ym2612"
    },
    {
      "channel": 3,
      "note": 64,
      "start": 21.4882,
      "duration": 0.0914,
      "velocity": 114,
      "chip": "ym2612"
    },
    {
      "channel": 0,
      "note": 33,
      "start": 21.5993,
      "duration": 0.0968,
      "velocity": 113,
      "chip": "ym2612"
    },
    {
      "channel": 1,
      "note": 52,
      "start": 21.602,
      "duration": 0.0776,
      "velocity": 88,
      "chip": "ym2612"
    },
    {
      "channel": 5,
      "note": 62,
      "start": 21.6053,
      "duration": 0.0744,
      "velocity": 98,
      "chip": "ym2612"
    },
    {
      "channel": 2,
      "note": 67,
      "start": 21.6083,
      "duration": 0.0546,
      "velocity": 98,
      "chip": "ym2612"
    },
    {
      "channel": 0,
      "note": 40,
      "start": 21.7324,
      "duration": 0.2471,
      "velocity": 113,
      "chip": "ym2612"
    },
    {
      "channel": 1,
      "note": 52,
      "start": 21.8492,
      "duration": 0.0803,
      "velocity": 88,
      "chip": "ym2612"
    },
    {
      "channel": 5,
      "note": 62,
      "start": 21.8525,
      "duration": 0.0772,
      "velocity": 98,
      "chip": "ym2612"
    },
    {
      "channel": 2,
      "note": 64,
      "start": 21.8555,
      "duration": 0.0576,
      "velocity": 98,
      "chip": "ym2612"
    },
    {
      "channel": 1,
      "note": 52,
      "start": 21.9658,
      "duration": 0.0805,
      "velocity": 88,
      "chip": "ym2612"
    },
    {
      "channel": 3,
      "note": 64,
      "start": 21.9683,
      "duration": 0.0947,
      "velocity": 114,
      "chip": "ym2612"
    },
    {
      "channel": 5,
      "note": 62,
      "start": 22.0837,
      "duration": 0.1294,
      "velocity": 98,
      "chip": "ym2612"
    },
    {
      "channel": 2,
      "note": 64,
      "start": 22.0867,
      "duration": 0.093,
      "velocity": 98,
      "chip": "ym2612"
    },
    {
      "channel": 1,
      "note": 52,
      "start": 22.2158,
      "duration": 0.0637,
      "velocity": 88,
      "chip": "ym2612"
    },
    {
      "channel": 1,
      "note": 52,
      "start": 22.4492,
      "duration": 0.1137,
      "velocity": 88,
      "chip": "ym2612"
    },
    {
      "channel": 3,
      "note": 64,
      "start": 22.4518,
      "duration": 0.0779,
      "velocity": 114,
      "chip": "ym2612"
    },
    {
      "channel": 4,
      "note": 71,
      "start": 22.4552,
      "duration": 0.0578,
      "velocity": 101,
      "chip": "ym2612"
    },
    {
      "channel": 0,
      "note": 76,
      "start": 22.4583,
      "duration": 0.0713,
      "velocity": 101,
      "chip": "ym2612"
    },
    {
      "channel": 0,
      "note": 69,
      "start": 22.5665,
      "duration": 0.063,
      "velocity": 101,
      "chip": "ym2612"
    },
    {
      "channel": 1,
      "note": 50,
      "start": 22.699,
      "duration": 0.1138,
      "velocity": 88,
      "chip": "ym2612"
    },
    {
      "channel": 0,
      "note": 71,
      "start": 22.7023,
      "duration": 0.1938,
      "velocity": 101,
      "chip": "ym2612"
    },
    {
      "channel": 4,
      "note": 76,
      "start": 22.7053,
      "duration": 0.1411,
      "velocity": 101,
      "chip": "ym2612"
    },
    {
      "channel": 2,
      "note": 40,
      "start": 22.9327,
      "duration": 0.0136,
      "velocity": 113,
      "chip": "ym2612"
    },
    {
      "channel": 1,
      "note": 47,
      "start": 22.9352,
      "duration": 0.111,
      "velocity": 88,
      "chip": "ym2612"
    },
    {
      "channel": 3,
      "note": 64,
      "start": 22.9377,
      "duration": 0.0753,
      "velocity": 114,
      "chip": "ym2612"
    },
    {
      "channel": 0,
      "note": 74,
      "start": 22.9412,
      "duration": 0.0549,
      "velocity": 101,
      "chip": "ym2612"
    },
    {
      "channel": 4,
      "note": 69,
      "start": 22.9441,
      "duration": 0.0522,
      "velocity": 101,
      "chip": "ym2612"
    },
    {
      "channel": 2,
      "note": 40,
      "start": 23.0493,
      "duration": 0.097,
      "velocity": 113,
      "chip": "ym2612"
    },
    {
      "channel": 2,
      "note": 33,
      "start": 23.1827,
      "duration": 0.0637,
      "velocity": 113,
      "chip": "ym2612"
    },
    {
      "channel": 1,
      "note": 52,
      "start": 23.1857,
      "duration": 0.0605,
      "velocity": 88,
      "chip": "ym2612"
    },
    {
      "channel": 5,
      "note": 40,
      "start": 23.1887,
      "duration": 0.4743,
      "velocity": 93,
      "chip": "ym2612"
    },
    {
      "channel": 0,
      "note": 67,
      "start": 23.192,
      "duration": 0.0208,
      "velocity": 98,
      "chip": "ym2612"
    },
    {
      "channel": 4,
      "note": 59,
      "start": 23.1949,
      "duration": 0.0181,
      "velocity": 98,
      "chip": "ym2612"
    },
    {
      "channel": 0,
      "note": 59,
      "start": 23.2998,
      "duration": 0.0963,
      "velocity": 98,
      "chip": "ym2612"
    },
    {
      "channel": 4,
      "note": 67,
      "start": 23.3031,
      "duration": 0.0432,
      "velocity": 98,
      "chip": "ym2612"
    },
    {
      "channel": 2,
      "note": 33,
      "start": 23.4161,
      "duration": 0.0637,
      "velocity": 113,
      "chip": "ym2612"
    },
    {
      "channel": 1,
      "note": 52,
      "start": 23.4188,
      "duration": 0.0607,
      "velocity": 88,
      "chip": "ym2612"
    },
    {
      "channel": 3,
      "note": 64,
      "start": 23.4215,
      "duration": 0.0913,
      "velocity": 114,
      "chip": "ym2612"
    },
    {
      "channel": 2,
      "note": 33,
      "start": 23.5329,
      "duration": 0.0968,
      "velocity": 113,
      "chip": "ym2612"
    },
    {
      "channel": 1,
      "note": 52,
      "start": 23.5356,
      "duration": 0.0773,
      "velocity": 88,
      "chip": "ym2612"
    },
    {
      "channel": 0,
      "note": 59,
      "start": 23.5387,
      "duration": 0.0741,
      "velocity": 98,
      "chip": "ym2612"
    },
    {
      "channel": 4,
      "note": 67,
      "start": 23.5417,
      "duration": 0.0546,
      "velocity": 98,
      "chip": "ym2612"
    },
    {
      "channel": 2,
      "note": 40,
      "start": 23.6662,
      "duration": 0.2302,
      "velocity": 113,
      "chip": "ym2612"
    },
    {
      "channel": 1,
      "note": 52,
      "start": 23.7826,
      "duration": 0.0303,
      "velocity": 88,
      "chip": "ym2612"
    },
    {
      "channel": 0,
      "note": 59,
      "start": 23.7857,
      "duration": 0.0771,
      "velocity": 98,
      "chip": "ym2612"
    },
    {
      "channel": 4,
      "note": 67,
      "start": 23.7886,
      "duration": 0.0411,
      "velocity": 98,
      "chip": "ym2612"
    },
    {
      "channel": 1,
      "note": 52,
      "start": 23.8994,
      "duration": 0.0801,
      "velocity": 88,
      "chip": "ym2612"
    },
    {
      "channel": 3,
      "note": 64,
      "start": 23.9021,
      "duration": 0.0941,
      "velocity": 114,
      "chip": "ym2612"
    },
    {
      "channel": 5,
      "note": 34,
      "start": 23.9049,
      "duration": 0.0581,
      "velocity": 114,
      "chip": "ym2612"
    },
    {
      "channel": 3,
      "note": 34,
      "start": 24.0166,
      "duration": 0.1463,
      "velocity": 114,
      "chip": "ym2612"
    },
    {
      "channel": 0,
      "note": 59,
      "start": 24.0195,
      "duration": 0.2599,
      "velocity": 98,
      "chip": "ym2612"
    },
    {
      "channel": 4,
      "note": 69,
      "start": 24.0228,
      "duration": 0.2735,
      "velocity": 98,
      "chip": "ym2612"
    },
    {
      "channel": 1,
      "note": 52,
      "start": 24.149,
      "duration": 0.0639,
      "velocity": 88,
      "chip": "ym2612"
    },
    {
      "channel": 2,
      "note": 33,
      "start": 24.3827,
      "duration": 0.1637,
      "velocity": 113,
      "chip": "ym2612"
    },
    {
      "channel": 1,
      "note": 52,
      "start": 24.3853,
      "duration": 0.0942,
      "velocity": 88,
      "chip": "ym2612"
    },
    {
      "channel": 3,
      "note": 64,
      "start": 24.3882,
      "duration": 0.0748,
      "velocity": 114,
      "chip": "ym2612"
    },
    {
      "channel": 0,
      "note": 59,
      "start": 24.391,
      "duration": 0.0717,
      "velocity": 98,
      "chip": "ym2612"
    },
    {
      "channel": 4,
      "note": 67,
      "start": 24.3939,
      "duration": 0.0524,
      "velocity": 98,
      "chip": "ym2612"
    },
    {
      "channel": 2,
      "note": 40,
      "start": 24.6327,
      "duration": 0.1137,
      "velocity": 113,
      "chip": "ym2612"
    },
    {
      "channel": 1,
      "note": 55,
      "start": 24.6356,
      "duration": 0.2106,
      "velocity": 88,
      "chip": "ym2612"
    },
    {
      "channel": 3,
      "note": 116,
      "start": 24.6385,
      "duration": 0.0078,
      "velocity": 114,
      "chip": "ym2612"
    },
    {
      "channel": 0,
      "note": 59,
      "start": 24.6414,
      "duration": 0.0548,
      "velocity": 98,
      "chip": "ym2612"
    },
    {
      "channel": 4,
      "note": 67,
      "start": 24.6443,
      "duration": 0.0354,
      "velocity": 98,
      "chip": "ym2612"
    },
    {
      "channel": 3,
      "note": 116,
      "start": 24.7495,
      "duration": 0.0466,
      "velocity": 114,
      "chip": "ym2612"
    },
    {
      "channel": 1,
      "note": 57,
      "start": 24.8659,
      "duration": 0.097,
      "velocity": 88,
      "chip": "ym2612"
    },
    {
      "channel": 3,
      "note": 116,
      "start": 24.8686,
      "duration": 0.0609,
      "velocity": 114,
      "chip": "ym2612"
    },
    {
      "channel": 5,
      "note": 64,
      "start": 24.8712,
      "duration": 0.0585,
      "velocity": 114,
      "chip": "ym2612"
    },
    {
      "channel": 0,
      "note": 69,
      "start": 24.8744,
      "duration": 0.155,
      "velocity": 98,
      "chip": "ym2612"
    },
    {
      "channel": 4,
      "note": 59,
      "start": 24.8773,
      "duration": 0.1024,
      "velocity": 98,
      "chip": "ym2612"
    },
    {
      "channel": 2,
      "note": 40,
      "start": 24.9829,
      "duration": 0.0802,
      "velocity": 113,
      "chip": "ym2612"
    },
    {
      "channel": 3,
      "note": 116,
      "start": 24.9857,
      "duration": 0.0439,
      "velocity": 114,
      "chip": "ym2612"
    },
    {
      "channel": 2,
      "note": 33,
      "start": 25.116,
      "duration": 0.1137,
      "velocity": 113,
      "chip": "ym2612"
    },
    {
      "channel": 1,
      "note": 52,
      "start": 25.1186,
      "duration": 0.0608,
      "velocity": 88,
      "chip": "ym2612"
    },
    {
      "channel": 3,
      "note": 116,
      "start": 25.1218,
      "duration": 0.091,
      "velocity": 114,
      "chip": "ym2612"
    },
    {
      "channel": 0,
      "note": 67,
      "start": 25.1247,
      "duration": 0.0214,
      "velocity": 98,
      "chip": "ym2612"
    },
    {
      "channel": 4,
      "note": 60,
      "start": 25.1275,
      "duration": 0.0189,
      "velocity": 98,
      "chip": "ym2612"
    },
    {
      "channel": 0,
      "note": 67,
      "start": 25.2332,
      "duration": 0.0796,
      "velocity": 98,
      "chip": "ym2612"
    },
    {
      "channel": 4,
      "note": 60,
      "start": 25.2359,
      "duration": 0.077,
      "velocity": 98,
      "chip": "ym2612"
    },
    {
      "channel": 2,
      "note": 33,
      "start": 25.3498,
      "duration": 0.0633,
      "velocity": 113,
      "chip": "ym2612"
    },
    {
      "channel": 1,
      "note": 52,
      "start": 25.3525,
      "duration": 0.0603,
      "velocity": 88,
      "chip": "ym2612"
    },
    {
      "channel": 3,
      "note": 64,
      "start": 25.3553,
      "duration": 0.0743,
      "velocity": 114,
      "chip": "ym2612"
    },
    {
      "channel": 2,
      "note": 33,
      "start": 25.466,
      "duration": 0.0805,
      "velocity": 113,
      "chip": "ym2612"
    },
    {
      "channel": 1,
      "note": 52,
      "start": 25.4686,
      "duration": 0.0776,
      "velocity": 88,
      "chip": "ym2612"
    },
    {
      "channel": 0,
      "note": 67,
      "start": 25.4721,
      "duration": 0.0573,
      "velocity": 98,
      "chip": "ym2612"
    },
    {
      "channel": 4,
      "note": 60,
      "start": 25.4749,
      "duration": 0.0548,
      "velocity": 98,
      "chip": "ym2612"
    },
    {
      "channel": 2,
      "note": 40,
      "start": 25.5827,
      "duration": 0.3137,
      "velocity": 113,
      "chip": "ym2612"
    },
    {
      "channel": 1,
      "note": 52,
      "start": 25.7159,
      "duration": 0.0804,
      "velocity": 88,
      "chip": "ym2612"
    },
    {
      "channel": 0,
      "note": 60,
      "start": 25.719,
      "duration": 0.0772,
      "velocity": 98,
      "chip": "ym2612"
    },
    {
      "channel": 4,
      "note": 67,
      "start": 25.7219,
      "duration": 0.1077,
      "velocity": 98,
      "chip": "ym2612"
    },
    {
      "channel": 1,
      "note": 52,
      "start": 25.8325,
      "duration": 0.0803,
      "velocity": 88,
      "chip": "ym2612"
    },
    {
      "channel": 3,
      "note": 64,
      "start": 25.8351,
      "duration": 0.0779,
      "velocity": 114,
      "chip": "ym2612"
    },
    {
      "channel": 0,
      "note": 60,
      "start": 25.9498,
      "duration": 0.1963,
      "velocity": 98,
      "chip": "ym2612"
    },
    {
      "channel": 4,
      "note": 69,
      "start": 25.9527,
      "duration": 0.2436,
      "velocity": 98,
      "chip": "ym2612"
    },
    {
      "channel": 1,
      "note": 52,
      "start": 26.066,
      "duration": 0.0802,
      "velocity": 88,
      "chip": "ym2612"
    },
    {
      "channel": 2,
      "note": 33,
      "start": 26.316,
      "duration": 0.1137,
      "velocity": 113,
      "chip": "ym2612"
    },
    {
      "channel": 1,
      "note": 52,
      "start": 26.3186,
      "duration": 0.1108,
      "velocity": 88,
      "chip": "ym2612"
    },
    {
      "channel": 3,
      "note": 64,
      "start": 26.3213,
      "duration": 0.075,
      "velocity": 114,
      "chip": "ym2612"
    },
    {
      "channel": 5,
      "note": 116,
      "start": 26.324,
      "duration": 0.0223,
      "velocity": 114,
      "chip": "ym2612"
    },
    {
      "channel": 0,
      "note": 67,
      "start": 26.3273,
      "duration": 0.0039,
      "velocity": 98,
      "chip": "ym2612"
    },
    {
      "channel": 4,
      "note": 60,
      "start": 26.3303,
      "duration": 0.0661,
      "velocity": 98,
      "chip": "ym2612"
    },
    {
      "channel": 0,
      "note": 59,
      "start": 26.3334,
      "duration": 0.0461,
      "velocity": 101,
      "chip": "ym2612"
    },
    {
      "channel": 3,
      "note": 116,
      "start": 26.433,
      "duration": 0.0799,
      "velocity": 114,
      "chip": "ym2612"
    },
    {
      "channel": 0,
      "note": 59,
      "start": 26.4359,
      "duration": 0.0768,
      "velocity": 101,
      "chip": "ym2612"
    },
    {
      "channel": 2,
      "note": 40,
      "start": 26.5494,
      "duration": 0.147,
      "velocity": 113,
      "chip": "ym2612"
    },
    {
      "channel": 1,
      "note": 50,
      "start": 26.5518,
      "duration": 0.1277,
      "velocity": 88,
      "chip": "ym2612"
    },
    {
      "channel": 0,
      "note": 64,
      "start": 26.5549,
      "duration": 0.0912,
      "velocity": 101,
      "chip": "ym2612"
    },
    {
      "channel": 0,
      "note": 59,
      "start": 26.6832,
      "duration": 0.0796,
      "velocity": 101,
      "chip": "ym2612"
    },
    {
      "channel": 1,
      "note": 47,
      "start": 26.799,
      "duration": 0.1139,
      "velocity": 88,
      "chip": "ym2612"
    },
    {
      "channel": 3,
      "note": 116,
      "start": 26.8022,
      "duration": 0.0274,
      "velocity": 114,
      "chip": "ym2612"
    },
    {
      "channel": 5,
      "note": 64,
      "start": 26.8049,
      "duration": 0.0914,
      "velocity": 114,
      "chip": "ym2612"
    },
    {
      "channel": 0,
      "note": 62,
      "start": 26.808,
      "duration": 0.0548,
      "velocity": 101,
      "chip": "ym2612"
    },
    {
      "channel": 4,
      "note": 64,
      "start": 26.8114,
      "duration": 0.0183,
      "velocity": 101,
      "chip": "ym2612"
    },
    {
      "channel": 3,
      "note": 116,
      "start": 26.9163,
      "duration": 0.0799,
      "velocity": 114,
      "chip": "ym2612"
    },
    {
      "channel": 0,
      "note": 64,
      "start": 26.9196,
      "duration": 0.0932,
      "velocity": 101,
      "chip": "ym2612"
    },
    {
      "channel": 2,
      "note": 33,
      "start": 27.0331,
      "duration": 0.08,
      "velocity": 113,
      "chip": "ym2612"
    },
    {
      "channel": 1,
      "note": 52,
      "start": 27.0357,
      "duration": 0.0771,
      "velocity": 88,
      "chip": "ym2612"
    },
    {
      "channel": 4,
      "note": 67,
      "start": 27.0391,
      "duration": 0.0406,
      "velocity": 98,
      "chip": "ym2612"
    },
    {
      "channel": 5,
      "note": 61,
      "start": 27.0422,
      "duration": 0.0541,
      "velocity": 98,
      "chip": "ym2612"
    },
    {
      "channel": 4,
      "note": 61,
      "start": 27.1667,
      "duration": 0.0963,
      "velocity": 98,
      "chip": "ym2612"
    },
    {
      "channel": 5,
      "note": 67,
      "start": 27.17,
      "duration": 0.0431,
      "velocity": 98,
      "chip": "ym2612"
    },
    {
      "channel": 2,
      "note": 33,
      "start": 27.2827,
      "duration": 0.0136,
      "velocity": 113,
      "chip": "ym2612"
    },
    {
      "channel": 1,
      "note": 52,
      "start": 27.2855,
      "duration": 0.0607,
      "velocity": 88,
      "chip": "ym2612"
    },
    {
      "channel": 3,
      "note": 64,
      "start": 27.2882,
      "duration": 0.0747,
      "velocity": 114,
      "chip": "ym2612"
    },
    {
      "channel": 2,
      "note": 33,
      "start": 27.3992,
      "duration": 0.0971,
      "velocity": 113,
      "chip": "ym2612"
    },
    {
      "channel": 1,
      "note": 52,
      "start": 27.402,
      "duration": 0.0776,
      "velocity": 88,
      "chip": "ym2612"
    },
    {
      "channel": 4,
      "note": 67,
      "start": 27.4051,
      "duration": 0.058,
      "velocity": 98,
      "chip": "ym2612"
    },
    {
      "channel": 5,
      "note": 61,
      "start": 27.408,
      "duration": 0.0717,
      "velocity": 98,
      "chip": "ym2612"
    },
    {
      "channel": 2,
      "note": 40,
      "start": 27.516,
      "duration": 0.2636,
      "velocity": 113,
      "chip": "ym2612"
    },
    {
      "channel": 1,
      "note": 52,
      "start": 27.6493,
      "duration": 0.0302,
      "velocity": 88,
      "chip": "ym2612"
    },
    {
      "channel": 4,
      "note": 67,
      "start": 27.6525,
      "duration": 0.0605,
      "velocity": 98,
      "chip": "ym2612"
    },
    {
      "channel": 5,
      "note": 61,
      "start": 27.6555,
      "duration": 0.0909,
      "velocity": 98,
      "chip": "ym2612"
    },
    {
      "channel": 1,
      "note": 52,
      "start": 27.7663,
      "duration": 0.0798,
      "velocity": 88,
      "chip": "ym2612"
    },
    {
      "channel": 3,
      "note": 64,
      "start": 27.769,
      "duration": 0.0773,
      "velocity": 114,
      "chip": "ym2612"
    },
    {
      "channel": 0,
      "note": 34,
      "start": 27.7717,
      "duration": 0.0244,
      "velocity": 114,
      "chip": "ym2612"
    },
    {
      "channel": 0,
      "note": 34,
      "start": 27.8831,
      "duration": 0.113,
      "velocity": 114,
      "chip": "ym2612"
    },
    {
      "channel": 4,
      "note": 61,
      "start": 27.8862,
      "duration": 0.1935,
      "velocity": 98,
      "chip": "ym2612"
    },
    {
      "channel": 5,
      "note": 69,
      "start": 27.8895,
      "duration": 0.2568,
      "velocity": 98,
      "chip": "ym2612"
    },
    {
      "channel": 1,
      "note": 52,
      "start": 27.9991,
      "duration": 0.0804,
      "velocity": 88,
      "chip": "ym2612"
    },
    {
      "channel": 2,
      "note": 33,
      "start": 28.2494,
      "duration": 0.0137,
      "velocity": 113,
      "chip": "ym2612"
    },
    {
      "channel": 1,
      "note": 52,
      "start": 28.252,
      "duration": 0.0943,
      "velocity": 88,
      "chip": "ym2612"
    },
    {
      "channel": 0,
      "note": 64,
      "start": 28.2547,
      "duration": 0.0749,
      "velocity": 114,
      "chip": "ym2612"
    },
    {
      "channel": 4,
      "note": 67,
      "start": 28.2578,
      "duration": 0.0552,
      "velocity": 98,
      "chip": "ym2612"
    },
    {
      "channel": 5,
      "note": 61,
      "start": 28.2607,
      "duration": 0.0691,
      "velocity": 98,
      "chip": "ym2612"
    },
    {
      "channel": 2,
      "note": 33,
      "start": 28.366,
      "duration": 0.0971,
      "velocity": 113,
      "chip": "ym2612"
    },
    {
      "channel": 2,
      "note": 40,
      "start": 28.4832,
      "duration": 0.1299,
      "velocity": 113,
      "chip": "ym2612"
    },
    {
      "channel": 1,
      "note": 55,
      "start": 28.4857,
      "duration": 0.227,
      "velocity": 88,
      "chip": "ym2612"
    },
    {
      "channel": 0,
      "note": 116,
      "start": 28.4885,
      "duration": 0.0244,
      "velocity": 114,
      "chip": "ym2612"
    },
    {
      "channel": 4,
      "note": 61,
      "start": 28.4913,
      "duration": 0.0716,
      "velocity": 98,
      "chip": "ym2612"
    },
    {
      "channel": 5,
      "note": 67,
      "start": 28.4941,
      "duration": 0.069,
      "velocity": 98,
      "chip": "ym2612"
    },
    {
      "channel": 0,
      "note": 116,
      "start": 28.6161,
      "duration": 0.0467,
      "velocity": 114,
      "chip": "ym2612"
    },
    {
      "channel": 1,
      "note": 57,
      "start": 28.7324,
      "duration": 0.0971,
      "velocity": 88,
      "chip": "ym2612"
    },
    {
      "channel": 0,
      "note": 116,
      "start": 28.735,
      "duration": 0.0444,
      "velocity": 114,
      "chip": "ym2612"
    },
    {
      "channel": 3,
      "note": 64,
      "start": 28.7376,
      "duration": 0.0753,
      "velocity": 114,
      "chip": "ym2612"
    },
    {
      "channel": 4,
      "note": 61,
      "start": 28.7406,
      "duration": 0.0891,
      "velocity": 98,
      "chip": "ym2612"
    },
    {
      "channel": 5,
      "note": 69,
      "start": 28.7434,
      "duration": 0.0864,
      "velocity": 98,
      "chip": "ym2612"
    },
    {
      "channel": 2,
      "note": 40,
      "start": 28.8492,
      "duration": 0.1139,
      "velocity": 113,
      "chip": "ym2612"
    },
    {
      "channel": 0,
      "note": 116,
      "start": 28.8523,
      "duration": 0.0438,
      "velocity": 114,
      "chip": "ym2612"
    },
    {
      "channel": 2,
      "note": 33,
      "start": 28.9662,
      "duration": 0.0969,
      "velocity": 113,
      "chip": "ym2612"
    },
    {
      "channel": 1,
      "note": 52,
      "start": 28.9688,
      "duration": 0.0775,
      "velocity": 88,
      "chip": "ym2612"
    },
    {
      "channel": 0,
      "note": 116,
      "start": 28.9715,
      "duration": 0.0914,
      "velocity": 114,
      "chip": "ym2612"
    },
    {
      "channel": 4,
      "note": 67,
      "start": 28.9749,
      "duration": 0.038,
      "velocity": 98,
      "chip": "ym2612"
    },
    {
      "channel": 5,
      "note": 62,
      "start": 28.9777,
      "duration": 0.0353,
      "velocity": 98,
      "chip": "ym2612"
    },
    {
      "channel": 4,
      "note": 67,
      "start": 29.1,
      "duration": 0.0629,
      "velocity": 98,
      "chip": "ym2612"
    },
    {
      "channel": 5,
      "note": 62,
      "start": 29.1029,
      "duration": 0.0602,
      "velocity": 98,
      "chip": "ym2612"
    },
    {
      "channel": 2,
      "note": 33,
      "start": 29.216,
      "duration": 0.0137,
      "velocity": 113,
      "chip": "ym2612"
    },
    {
      "channel": 1,
      "note": 52,
      "start": 29.2188,
      "duration": 0.0441,
      "velocity": 88,
      "chip": "ym2612"
    },
    {
      "channel": 0,
      "note": 64,
      "start": 29.2215,
      "duration": 0.0746,
      "velocity": 114,
      "chip": "ym2612"
    },
    {
      "channel": 2,
      "note": 33,
      "start": 29.3326,
      "duration": 0.0807,
      "velocity": 113,
      "chip": "ym2612"
    },
    {
      "channel": 1,
      "note": 52,
      "start": 29.3357,
      "duration": 0.0772,
      "velocity": 88,
      "chip": "ym2612"
    },
    {
      "channel": 4,
      "note": 69,
      "start": 29.339,
      "duration": 0.0907,
      "velocity": 98,
      "chip": "ym2612"
    },
    {
      "channel": 5,
      "note": 62,
      "start": 29.342,
      "duration": 0.0712,
      "velocity": 98,
      "chip": "ym2612"
    },
    {
      "channel": 2,
      "note": 40,
      "start": 29.4494,
      "duration": 0.297,
      "velocity": 113,
      "chip": "ym2612"
    },
    {
      "channel": 1,
      "note": 52,
      "start": 29.5824,
      "duration": 0.0637,
      "velocity": 88,
      "chip": "ym2612"
    },
    {
      "channel": 4,
      "note": 62,
      "start": 29.5859,
      "duration": 0.0604,
      "velocity": 98,
      "chip": "ym2612"
    },
    {
      "channel": 5,
      "note": 67,
      "start": 29.5888,
      "duration": 0.0576,
      "velocity": 98,
      "chip": "ym2612"
    },
    {
      "channel": 1,
      "note": 52,
      "start": 29.6991,
      "duration": 0.0805,
      "velocity": 88,
      "chip": "ym2612"
    },
    {
      "channel": 0,
      "note": 64,
      "start": 29.7015,
      "duration": 0.0779,
      "velocity": 114,
      "chip": "ym2612"
    },
    {
      "channel": 4,
      "note": 62,
      "start": 29.8166,
      "duration": 0.213,
      "velocity": 98,
      "chip": "ym2612"
    },
    {
      "channel": 5,
      "note": 64,
      "start": 29.8196,
      "duration": 0.2934,
      "velocity": 98,
      "chip": "ym2612"
    },
    {
      "channel": 1,
      "note": 52,
      "start": 29.9324,
      "duration": 0.0805,
      "velocity": 88,
      "chip": "ym2612"
    },
    {
      "channel": 2,
      "note": 33,
      "start": 30.1831,
      "duration": 0.1134,
      "velocity": 113,
      "chip": "ym2612"
    },
    {
      "channel": 1,
      "note": 52,
      "start": 30.1857,
      "duration": 0.1104,
      "velocity": 88,
      "chip": "ym2612"
    },
    {
      "channel": 0,
      "note": 64,
      "start": 30.1883,
      "duration": 0.0102,
      "velocity": 114,
      "chip": "ym2612"
    },
    {
      "channel": 4,
      "note": 67,
      "start": 30.1913,
      "duration": 0.0717,
      "velocity": 98,
      "chip": "ym2612"
    },
    {
      "channel": 5,
      "note": 62,
      "start": 30.1941,
      "duration": 0.069,
      "velocity": 98,
      "chip": "ym2612"
    },
    {
      "channel": 3,
      "note": 67,
      "start": 30.1975,
      "duration": 0.0988,
      "velocity": 101,
      "chip": "ym2612"
    },
    {
      "channel": 0,
      "note": 62,
      "start": 30.2006,
      "duration": 0.0121,
      "velocity": 101,
      "chip": "ym2612"
    },
    {
      "channel": 2,
      "note": 40,
      "start": 30.4159,
      "duration": 0.2305,
      "velocity": 113,
      "chip": "ym2612"
    },
    {
      "channel": 1,
      "note": 50,
      "start": 30.4183,
      "duration": 0.1279,
      "velocity": 88,
      "chip": "ym2612"
    },
    {
      "channel": 4,
      "note": 62,
      "start": 30.4219,
      "duration": 0.0578,
      "velocity": 98,
      "chip": "ym2612"
    },
    {
      "channel": 0,
      "note": 69,
      "start": 30.4249,
      "duration": 0.0713,
      "velocity": 101,
      "chip": "ym2612"
    },
    {
      "channel": 3,
      "note": 64,
      "start": 30.4281,
      "duration": 0.0347,
      "velocity": 101,
      "chip": "ym2612"
    },
    {
      "channel": 0,
      "note": 67,
      "start": 30.55,
      "duration": 0.0461,
      "velocity": 101,
      "chip": "ym2612"
    },
    {
      "channel": 3,
      "note": 62,
      "start": 30.553,
      "duration": 0.0599,
      "velocity": 101,
      "chip": "ym2612"
    },
    {
      "channel": 2,
      "note": 33,
      "start": 30.6661,
      "duration": 0.0469,
      "velocity": 113,
      "chip": "ym2612"
    },
    {
      "channel": 1,
      "note": 47,
      "start": 30.6686,
      "duration": 0.1109,
      "velocity": 88,
      "chip": "ym2612"
    },
    {
      "channel": 5,
      "note": 64,
      "start": 30.6715,
      "duration": 0.0415,
      "velocity": 114,
      "chip": "ym2612"
    },
    {
      "channel": 4,
      "note": 34,
      "start": 30.6741,
      "duration": 0.0223,
      "velocity": 114,
      "chip": "ym2612"
    },
    {
      "channel": 0,
      "note": 116,
      "start": 30.6773,
      "duration": 0.0022,
      "velocity": 114,
      "chip": "ym2612"
    },
    {
      "channel": 2,
      "note": 40,
      "start": 30.7826,
      "duration": 0.1137,
      "velocity": 113,
      "chip": "ym2612"
    },
    {
      "channel": 0,
      "note": 116,
      "start": 30.7855,
      "duration": 0.0607,
      "velocity": 114,
      "chip": "ym2612"
    },
    {
      "channel": 4,
      "note": 34,
      "start": 30.7882,
      "duration": 0.0913,
      "velocity": 114,
      "chip": "ym2612"
    },
    {
      "channel": 3,
      "note": 62,
      "start": 30.7912,
      "duration": 0.0718,
      "velocity": 101,
      "chip": "ym2612"
    },
    {
      "channel": 5,
      "note": 67,
      "start": 30.7944,
      "duration": 0.0186,
      "velocity": 101,
      "chip": "ym2612"
    },
    {
      "channel": 2,
      "note": 33,
      "start": 30.9006,
      "duration": 0.0625,
      "velocity": 113,
      "chip": "ym2612"
    },
    {
      "channel": 1,
      "note": 52,
      "start": 30.9031,
      "duration": 0.0765,
      "velocity": 88,
      "chip": "ym2612"
    },
    {
      "channel": 5,
      "note": 40,
      "start": 30.906,
      "duration": 0.2403,
      "velocity": 93,
      "chip": "ym2612"
    },
    {
      "channel": 0,
      "note": 64,
      "start": 30.9102,
      "duration": 0.0526,
      "velocity": 98,
      "chip": "ym2612"
    },
    {
      "channel": 3,
      "note": 67,
      "start": 30.9133,
      "duration": 0.033,
      "velocity": 98,
      "chip": "ym2612"
    },
    {
      "channel": 4,
      "note": 71,
      "start": 30.9162,
      "duration": 0.0302,
      "velocity": 98,
      "chip": "ym2612"
    },
    {
      "channel": 0,
      "note": 71,
      "start": 31.0331,
      "duration": 0.0463,
      "velocity": 98,
      "chip": "ym2612"
    },
    {
      "channel": 3,
      "note": 64,
      "start": 31.0359,
      "duration": 0.0603,
      "velocity": 98,
      "chip": "ym2612"
    },
    {
      "channel": 4,
      "note": 67,
      "start": 31.0388,
      "duration": 0.0409,
      "velocity": 98,
      "chip": "ym2612"
    },
    {
      "channel": 2,
      "note": 33,
      "start": 31.1495,
      "duration": 0.0301,
      "velocity": 113,
      "chip": "ym2612"
    },
    {
      "channel": 1,
      "note": 52,
      "start": 31.1522,
      "duration": 0.0439,
      "velocity": 88,
      "chip": "ym2612"
    },
    {
      "channel": 0,
      "note": 64,
      "start": 31.1553,
      "duration": 0.0742,
      "velocity": 114,
      "chip": "ym2612"
    },
    {
      "channel": 2,
      "note": 33,
      "start": 31.2659,
      "duration": 0.0638,
      "velocity": 113,
      "chip": "ym2612"
    },
    {
      "channel": 1,
      "note": 52,
      "start": 31.269,
      "duration": 0.0773,
      "velocity": 88,
      "chip": "ym2612"
    },
    {
      "channel": 5,
      "note": 40,
      "start": 31.2724,
      "duration": 0.4573,
      "velocity": 93,
      "chip": "ym2612"
    },
    {
      "channel": 3,
      "note": 67,
      "start": 31.2759,
      "duration": 0.0204,
      "velocity": 98,
      "chip": "ym2612"
    },
    {
      "channel": 4,
      "note": 64,
      "start": 31.2785,
      "duration": 0.0179,
      "velocity": 98,
      "chip": "ym2612"
    },
    {
      "channel": 0,
      "note": 71,
      "start": 31.2816,
      "duration": 0.0145,
      "velocity": 98,
      "chip": "ym2612"
    },
    {
      "channel": 2,
      "note": 40,
      "start": 31.3827,
      "duration": 0.147,
      "velocity": 113,
      "chip": "ym2612"
    },
    {
      "channel": 1,
      "note": 52,
      "start": 31.516,
      "duration": 0.0303,
      "velocity": 88,
      "chip": "ym2612"
    },
    {
      "channel": 0,
      "note": 64,
      "start": 31.5191,
      "duration": 0.0437,
      "velocity": 98,
      "chip": "ym2612"
    },
    {
      "channel": 3,
      "note": 71,
      "start": 31.5218,
      "duration": 0.0246,
      "velocity": 98,
      "chip": "ym2612"
    },
    {
      "channel": 4,
      "note": 67,
      "start": 31.5245,
      "duration": 0.022,
      "velocity": 98,
      "chip": "ym2612"
    },
    {
      "channel": 1,
      "note": 52,
      "start": 31.6326,
      "duration": 0.0801,
      "velocity": 88,
      "chip": "ym2612"
    },
    {
      "channel": 2,
      "note": 64,
      "start": 31.6357,
      "duration": 0.094,
      "velocity": 114,
      "chip": "ym2612"
    },
    {
      "channel": 3,
      "note": 34,
      "start": 31.6385,
      "duration": 0.0244,
      "velocity": 114,
      "chip": "ym2612"
    },
    {
      "channel": 3,
      "note": 34,
      "start": 31.7495,
      "duration": 0.13,
      "velocity": 114,
      "chip": "ym2612"
    },
    {
      "channel": 0,
      "note": 64,
      "start": 31.7524,
      "duration": 0.2103,
      "velocity": 98,
      "chip": "ym2612"
    },
    {
      "channel": 4,
      "note": 72,
      "start": 31.7555,
      "duration": 0.2241,
      "velocity": 98,
      "chip": "ym2612"
    },
    {
      "channel": 1,
      "note": 67,
      "start": 31.7584,
      "duration": 0.221,
      "velocity": 98,
      "chip": "ym2612"
    },
    {
      "channel": 5,
      "note": 52,
      "start": 31.8658,
      "duration": 0.0805,
      "velocity": 88,
      "chip": "ym2612"
    },
    {
      "channel": 2,
      "note": 33,
      "start": 32.1161,
      "duration": 0.1137,
      "velocity": 113,
      "chip": "ym2612"
    },
    {
      "channel": 5,
      "note": 52,
      "start": 32.1188,
      "duration": 0.0944,
      "velocity": 88,
      "chip": "ym2612"
    },
    {
      "channel": 3,
      "note": 64,
      "start": 32.122,
      "duration": 0.091,
      "velocity": 114,
      "chip": "ym2612"
    },
    {
      "channel": 0,
      "note": 67,
      "start": 32.1249,
      "duration": 0.0379,
      "velocity": 98,
      "chip": "ym2612"
    },
    {
      "channel": 1,
      "note": 64,
      "start": 32.1274,
      "duration": 0.0356,
      "velocity": 98,
      "chip": "ym2612"
    },
    {
      "channel": 4,
      "note": 71,
      "start": 32.1304,
      "duration": 0.0328,
      "velocity": 98,
      "chip": "ym2612"
    },
    {
      "channel": 2,
      "note": 40,
      "start": 32.3498,
      "duration": 0.1966,
      "velocity": 113,
      "chip": "ym2612"
    },
    {
      "channel": 5,
      "note": 55,
      "start": 32.3525,
      "duration": 0.2273,
      "velocity": 88,
      "chip": "ym2612"
    },
    {
      "channel": 3,
      "note": 116,
      "start": 32.3553,
      "duration": 0.041,
      "velocity": 114,
      "chip": "ym2612"
    },
    {
      "channel": 0,
      "note": 71,
      "start": 32.3583,
      "duration": 0.0713,
      "velocity": 98,
      "chip": "ym2612"
    },
    {
      "channel": 1,
      "note": 67,
      "start": 32.3609,
      "duration": 0.1018,
      "velocity": 98,
      "chip": "ym2612"
    },
    {
      "channel": 4,
      "note": 64,
      "start": 32.3645,
      "duration": 0.2151,
      "velocity": 98,
      "chip": "ym2612"
    },
    {
      "channel": 3,
      "note": 116,
      "start": 32.4661,
      "duration": 0.0635,
      "velocity": 114,
      "chip": "ym2612"
    },
    {
      "channel": 5,
      "note": 57,
      "start": 32.5993,
      "duration": 0.0971,
      "velocity": 88,
      "chip": "ym2612"
    },
    {
      "channel": 3,
      "note": 116,
      "start": 32.602,
      "duration": 0.0442,
      "velocity": 114,
      "chip": "ym2612"
    },
    {
      "channel": 0,
      "note": 64,
      "start": 32.6048,
      "duration": 0.0747,
      "velocity": 114,
      "chip": "ym2612"
    },
    {
      "channel": 2,
      "note": 40,
      "start": 32.7161,
      "duration": 0.0636,
      "velocity": 113,
      "chip": "ym2612"
    },
    {
      "channel": 0,
      "note": 116,
      "start": 32.7188,
      "duration": 0.0606,
      "velocity": 114,
      "chip": "ym2612"
    },
    {
      "channel": 2,
      "note": 33,
      "start": 32.8327,
      "duration": 0.0971,
      "velocity": 113,
      "chip": "ym2612"
    },
    {
      "channel": 5,
      "note": 52,
      "start": 32.8357,
      "duration": 0.0772,
      "velocity": 88,
      "chip": "ym2612"
    },
    {
      "channel": 0,
      "note": 116,
      "start": 32.8385,
      "duration": 0.1743,
      "velocity": 114,
      "chip": "ym2612"
    },
    {
      "channel": 1,
      "note": 63,
      "start": 32.8415,
      "duration": 0.038,
      "velocity": 98,
      "chip": "ym2612"
    },
    {
      "channel": 4,
      "note": 66,
      "start": 32.8441,
      "duration": 0.0357,
      "velocity": 98,
      "chip": "ym2612"
    },
    {
      "channel": 3,
      "note": 71,
      "start": 32.8472,
      "duration": 0.0324,
      "velocity": 98,
      "chip": "ym2612"
    },
    {
      "channel": 1,
      "note": 71,
      "start": 32.9499,
      "duration": 0.063,
      "velocity": 98,
      "chip": "ym2612"
    },
    {
      "channel": 3,
      "note": 63,
      "start": 32.9525,
      "duration": 0.0606,
      "velocity": 98,
      "chip": "ym2612"
    },
    {
      "channel": 4,
      "note": 66,
      "start": 32.9552,
      "duration": 0.058,
      "velocity": 98,
      "chip": "ym2612"
    },
    {
      "channel": 2,
      "note": 33,
      "start": 33.0827,
      "duration": 0.0303,
      "velocity": 113,
      "chip": "ym2612"
    },
    {
      "channel": 5,
      "note": 52,
      "start": 33.0856,
      "duration": 0.044,
      "velocity": 88,
      "chip": "ym2612"
    },
    {
      "channel": 0,
      "note": 64,
      "start": 33.0887,
      "duration": 0.074,
      "velocity": 114,
      "chip": "ym2612"
    },
    {
      "channel": 2,
      "note": 33,
      "start": 33.1993,
      "duration": 0.0805,
      "velocity": 113,
      "chip": "ym2612"
    },
    {
      "channel": 5,
      "note": 52,
      "start": 33.2021,
      "duration": 0.0776,
      "velocity": 88,
      "chip": "ym2612"
    },
    {
      "channel": 1,
      "note": 66,
      "start": 33.2051,
      "duration": 0.0576,
      "velocity": 98,
      "chip": "ym2612"
    },
    {
      "channel": 3,
      "note": 71,
      "start": 33.2081,
      "duration": 0.0548,
      "velocity": 98,
      "chip": "ym2612"
    },
    {
      "channel": 4,
      "note": 63,
      "start": 33.211,
      "duration": 0.0187,
      "velocity": 98,
      "chip": "ym2612"
    },
    {
      "channel": 2,
      "note": 40,
      "start": 33.3164,
      "duration": 0.1636,
      "velocity": 113,
      "chip": "ym2612"
    },
    {
      "channel": 5,
      "note": 52,
      "start": 33.4326,
      "duration": 0.0804,
      "velocity": 88,
      "chip": "ym2612"
    },
    {
      "channel": 1,
      "note": 71,
      "start": 33.4358,
      "duration": 0.0604,
      "velocity": 98,
      "chip": "ym2612"
    },
    {
      "channel": 3,
      "note": 66,
      "start": 33.4385,
      "duration": 0.0411,
      "velocity": 98,
      "chip": "ym2612"
    },
    {
      "channel": 4,
      "note": 63,
      "start": 33.4413,
      "duration": 0.0384,
      "velocity": 98,
      "chip": "ym2612"
    },
    {
      "channel": 5,
      "note": 52,
      "start": 33.5659,
      "duration": 0.0805,
      "velocity": 88,
      "chip": "ym2612"
    },
    {
      "channel": 0,
      "note": 64,
      "start": 33.5684,
      "duration": 0.0777,
      "velocity": 114,
      "chip": "ym2612"
    },
    {
      "channel": 1,
      "note": 71,
      "start": 33.6831,
      "duration": 0.263,
      "velocity": 98,
      "chip": "ym2612"
    },
    {
      "channel": 3,
      "note": 63,
      "start": 33.6858,
      "duration": 0.2104,
      "velocity": 98,
      "chip": "ym2612"
    },
    {
      "channel": 4,
      "note": 66,
      "start": 33.6891,
      "duration": 0.1905,
      "velocity": 98,
      "chip": "ym2612"
    },
    {
      "channel": 5,
      "note": 52,
      "start": 33.7991,
      "duration": 0.0807,
      "velocity": 88,
      "chip": "ym2612"
    },
    {
      "channel": 5,
      "note": 52,
      "start": 34.0492,
      "duration": 0.1138,
      "velocity": 88,
      "chip": "ym2612"
    },
    {
      "channel": 0,
      "note": 64,
      "start": 34.0517,
      "duration": 0.061,
      "velocity": 114,
      "chip": "ym2612"
    },
    {
      "channel": 1,
      "note": 64,
      "start": 34.0546,
      "duration": 0.0582,
      "velocity": 98,
      "chip": "ym2612"
    },
    {
      "channel": 3,
      "note": 67,
      "start": 34.0573,
      "duration": 0.039,
      "velocity": 98,
      "chip": "ym2612"
    },
    {
      "channel": 4,
      "note": 71,
      "start": 34.0602,
      "duration": 0.0528,
      "velocity": 98,
      "chip": "ym2612"
    },
    {
      "channel": 2,
      "note": 59,
      "start": 34.064,
      "duration": 0.0325,
      "velocity": 101,
      "chip": "ym2612"
    },
    {
      "channel": 2,
      "note": 59,
      "start": 34.1669,
      "duration": 0.0294,
      "velocity": 101,
      "chip": "ym2612"
    },
    {
      "channel": 5,
      "note": 50,
      "start": 34.2825,
      "duration": 0.1139,
      "velocity": 88,
      "chip": "ym2612"
    },
    {
      "channel": 2,
      "note": 59,
      "start": 34.2859,
      "duration": 0.0605,
      "velocity": 101,
      "chip": "ym2612"
    },
    {
      "channel": 2,
      "note": 59,
      "start": 34.4,
      "duration": 0.0629,
      "velocity": 101,
      "chip": "ym2612"
    },
    {
      "channel": 3,
      "note": 40,
      "start": 34.5327,
      "duration": 0.0303,
      "velocity": 113,
      "chip": "ym2612"
    },
    {
      "channel": 5,
      "note": 47,
      "start": 34.5356,
      "duration": 0.1107,
      "velocity": 88,
      "chip": "ym2612"
    },
    {
      "channel": 0,
      "note": 64,
      "start": 34.5381,
      "duration": 0.0581,
      "velocity": 114,
      "chip": "ym2612"
    },
    {
      "channel": 2,
      "note": 64,
      "start": 34.5413,
      "duration": 0.0885,
      "velocity": 101,
      "chip": "ym2612"
    },
    {
      "channel": 3,
      "note": 40,
      "start": 34.6491,
      "duration": 0.0972,
      "velocity": 113,
      "chip": "ym2612"
    },
    {
      "channel": 2,
      "note": 59,
      "start": 34.6527,
      "duration": 0.0271,
      "velocity": 101,
      "chip": "ym2612"
    },
    {
      "channel": 3,
      "note": 33,
      "start": 34.7657,
      "duration": 0.0971,
      "velocity": 113,
      "chip": "ym2612"
    },
    {
      "channel": 5,
      "note": 52,
      "start": 34.7684,
      "duration": 0.0779,
      "velocity": 88,
      "chip": "ym2612"
    },
    {
      "channel": 1,
      "note": 64,
      "start": 34.7716,
      "duration": 0.058,
      "velocity": 98,
      "chip": "ym2612"
    },
    {
      "channel": 4,
      "note": 67,
      "start": 34.7744,
      "duration": 0.0082,
      "velocity": 98,
      "chip": "ym2612"
    },
    {
      "channel": 0,
      "note": 71,
      "start": 34.7776,
      "duration": 0.0048,
      "velocity": 98,
      "chip": "ym2612"
    },
    {
      "channel": 2,
      "note": 64,
      "start": 34.7808,
      "duration": 0.0656,
      "velocity": 101,
      "chip": "ym2612"
    },
    {
      "channel": 0,
      "note": 64,
      "start": 34.8831,
      "duration": 0.0798,
      "velocity": 98,
      "chip": "ym2612"
    },
    {
      "channel": 1,
      "note": 71,
      "start": 34.8856,
      "duration": 0.0775,
      "velocity": 98,
      "chip": "ym2612"
    },
    {
      "channel": 4,
      "note": 67,
      "start": 34.8885,
      "duration": 0.0578,
      "velocity": 98,
      "chip": "ym2612"
    },
    {
      "channel": 2,
      "note": 59,
      "start": 34.8915,
      "duration": 0.0718,
      "velocity": 101,
      "chip": "ym2612"
    },
    {
      "channel": 3,
      "note": 33,
      "start": 35.016,
      "duration": 0.0302,
      "velocity": 113,
      "chip": "ym2612"
    },
    {
      "channel": 5,
      "note": 52,
      "start": 35.0188,
      "duration": 0.0442,
      "velocity": 88,
      "chip": "ym2612"
    },
    {
      "channel": 4,
      "note": 64,
      "start": 35.0215,
      "duration": 0.0581,
      "velocity": 114,
      "chip": "ym2612"
    },
    {
      "channel": 3,
      "note": 33,
      "start": 35.1324,
      "duration": 0.0805,
      "velocity": 113,
      "chip": "ym2612"
    },
    {
      "channel": 5,
      "note": 52,
      "start": 35.1352,
      "duration": 0.0779,
      "velocity": 88,
      "chip": "ym2612"
    },
    {
      "channel": 0,
      "note": 64,
      "start": 35.1382,
      "duration": 0.0413,
      "velocity": 98,
      "chip": "ym2612"
    },
    {
      "channel": 1,
      "note": 71,
      "start": 35.1408,
      "duration": 0.0219,
      "velocity": 98,
      "chip": "ym2612"
    },
    {
      "channel": 2,
      "note": 67,
      "start": 35.1437,
      "duration": 0.0194,
      "velocity": 98,
      "chip": "ym2612"
    },
    {
      "channel": 4,
      "note": 64,
      "start": 35.1476,
      "duration": 0.0819,
      "velocity": 101,
      "chip": "ym2612"
    },
    {
      "channel": 3,
      "note": 40,
      "start": 35.2492,
      "duration": 0.1637,
      "velocity": 113,
      "chip": "ym2612"
    },
    {
      "channel": 5,
      "note": 52,
      "start": 35.3661,
      "duration": 0.047,
      "velocity": 88,
      "chip": "ym2612"
    },
    {
      "channel": 0,
      "note": 64,
      "start": 35.3696,
      "duration": 0.0598,
      "velocity": 98,
      "chip": "ym2612"
    },
    {
      "channel": 1,
      "note": 67,
      "start": 35.3722,
      "duration": 0.0406,
      "velocity": 98,
      "chip": "ym2612"
    },
    {
      "channel": 2,
      "note": 71,
      "start": 35.3751,
      "duration": 0.0382,
      "velocity": 98,
      "chip": "ym2612"
    },
    {
      "channel": 5,
      "note": 52,
      "start": 35.4994,
      "duration": 0.0636,
      "velocity": 88,
      "chip": "ym2612"
    },
    {
      "channel": 4,
      "note": 64,
      "start": 35.5025,
      "duration": 0.0938,
      "velocity": 114,
      "chip": "ym2612"
    },
    {
      "channel": 1,
      "note": 34,
      "start": 35.5053,
      "duration": 0.0242,
      "velocity": 114,
      "chip": "ym2612"
    },
    {
      "channel": 1,
      "note": 34,
      "start": 35.6161,
      "duration": 0.13,
      "velocity": 114,
      "chip": "ym2612"
    },
    {
      "channel": 0,
      "note": 64,
      "start": 35.619,
      "duration": 0.1938,
      "velocity": 98,
      "chip": "ym2612"
    },
    {
      "channel": 2,
      "note": 72,
      "start": 35.6219,
      "duration": 0.2079,
      "velocity": 98,
      "chip": "ym2612"
    },
    {
      "channel": 3,
      "note": 67,
      "start": 35.6248,
      "duration": 0.2048,
      "velocity": 98,
      "chip": "ym2612"
    },
    {
      "channel": 5,
      "note": 52,
      "start": 35.7326,
      "duration": 0.0805,
      "velocity": 88,
      "chip": "ym2612"
    },
    {
      "channel": 4,
      "note": 33,
      "start": 35.9831,
      "duration": 0.1132,
      "velocity": 113,
      "chip": "ym2612"
    },
    {
      "channel": 5,
      "note": 52,
      "start": 35.9862,
      "duration": 0.0935,
      "velocity": 88,
      "chip": "ym2612"
    },
    {
      "channel": 1,
      "note": 64,
      "start": 35.9894,
      "duration": 0.0901,
      "velocity": 114,
      "chip": "ym2612"
    },
    {
      "channel": 0,
      "note": 64,
      "start": 35.9923,
      "duration": 0.0539,
      "velocity": 98,
      "chip": "ym2612"
    },
    {
      "channel": 3,
      "note": 67,
      "start": 35.9954,
      "duration": 0.0341,
      "velocity": 98,
      "chip": "ym2612"
    },
    {
      "channel": 2,
      "note": 71,
      "start": 35.9985,
      "duration": 0.0313,
      "velocity": 98,
      "chip": "ym2612"
    },
    {
      "channel": 4,
      "note": 40,
      "start": 36.216,
      "duration": 0.1969,
      "velocity": 113,
      "chip": "ym2612"
    },
    {
      "channel": 5,
      "note": 55,
      "start": 36.2187,
      "duration": 0.211,
      "velocity": 88,
      "chip": "ym2612"
    },
    {
      "channel": 1,
      "note": 116,
      "start": 36.2215,
      "duration": 0.0102,
      "velocity": 114,
      "chip": "ym2612"
    },
    {
      "channel": 0,
      "note": 64,
      "start": 36.2242,
      "duration": 0.0553,
      "velocity": 98,
      "chip": "ym2612"
    },
    {
      "channel": 3,
      "note": 67,
      "start": 36.227,
      "duration": 0.0193,
      "velocity": 98,
      "chip": "ym2612"
    },
    {
      "channel": 2,
      "note": 71,
      "start": 36.2301,
      "duration": 0.0165,
      "velocity": 98,
      "chip": "ym2612"
    },
    {
      "channel": 1,
      "note": 116,
      "start": 36.3326,
      "duration": 0.0636,
      "velocity": 114,
      "chip": "ym2612"
    },
    {
      "channel": 5,
      "note": 57,
      "start": 36.466,
      "duration": 0.0971,
      "velocity": 88,
      "chip": "ym2612"
    },
    {
      "channel": 1,
      "note": 116,
      "start": 36.4686,
      "duration": 0.0443,
      "velocity": 114,
      "chip": "ym2612"
    },
    {
      "channel": 3,
      "note": 64,
      "start": 36.4714,
      "duration": 0.0914,
      "velocity": 114,
      "chip": "ym2612"
    },
    {
      "channel": 0,
      "note": 64,
      "start": 36.4744,
      "duration": 0.0384,
      "velocity": 98,
      "chip": "ym2612"
    },
    {
      "channel": 2,
      "note": 67,
      "start": 36.477,
      "duration": 0.0361,
      "velocity": 98,
      "chip": "ym2612"
    },
    {
      "channel": 4,
      "note": 71,
      "start": 36.4807,
      "duration": 0.0156,
      "velocity": 98,
      "chip": "ym2612"
    },
    {
      "channel": 4,
      "note": 40,
      "start": 36.5827,
      "duration": 0.0968,
      "velocity": 113,
      "chip": "ym2612"
    },
    {
      "channel": 1,
      "note": 116,
      "start": 36.5856,
      "duration": 0.0273,
      "velocity": 114,
      "chip": "ym2612"
    },
    {
      "channel": 4,
      "note": 33,
      "start": 36.6992,
      "duration": 0.1137,
      "velocity": 113,
      "chip": "ym2612"
    },
    {
      "channel": 5,
      "note": 52,
      "start": 36.7019,
      "duration": 0.0778,
      "velocity": 88,
      "chip": "ym2612"
    },
    {
      "channel": 1,
      "note": 116,
      "start": 36.7051,
      "duration": 0.0911,
      "velocity": 114,
      "chip": "ym2612"
    },
    {
      "channel": 0,
      "note": 64,
      "start": 36.708,
      "duration": 0.0714,
      "velocity": 98,
      "chip": "ym2612"
    },
    {
      "channel": 2,
      "note": 67,
      "start": 36.7109,
      "duration": 0.0523,
      "velocity": 98,
      "chip": "ym2612"
    },
    {
      "channel": 3,
      "note": 71,
      "start": 36.7141,
      "duration": 0.0017,
      "velocity": 98,
      "chip": "ym2612"
    },
    {
      "channel": 0,
      "note": 71,
      "start": 36.8165,
      "duration": 0.0796,
      "velocity": 98,
      "chip": "ym2612"
    },
    {
      "channel": 3,
      "note": 66,
      "start": 36.8193,
      "duration": 0.0437,
      "velocity": 98,
      "chip": "ym2612"
    },
    {
      "channel": 2,
      "note": 63,
      "start": 36.8222,
      "duration": 0.041,
      "velocity": 98,
      "chip": "ym2612"
    },
    {
      "channel": 4,
      "note": 33,
      "start": 36.9493,
      "duration": 0.0136,
      "velocity": 113,
      "chip": "ym2612"
    },
    {
      "channel": 5,
      "note": 52,
      "start": 36.9522,
      "duration": 0.0441,
      "velocity": 88,
      "chip": "ym2612"
    },
    {
      "channel": 1,
      "note": 64,
      "start": 36.9548,
      "duration": 0.0914,
      "velocity": 114,
      "chip": "ym2612"
    },
    {
      "channel": 4,
      "note": 33,
      "start": 37.0662,
      "duration": 0.0968,
      "velocity": 113,
      "chip": "ym2612"
    },
    {
      "channel": 5,
      "note": 52,
      "start": 37.0691,
      "duration": 0.0775,
      "velocity": 88,
      "chip": "ym2612"
    },
    {
      "channel": 0,
      "note": 66,
      "start": 37.0726,
      "duration": 0.0736,
      "velocity": 98,
      "chip": "ym2612"
    },
    {
      "channel": 3,
      "note": 63,
      "start": 37.0752,
      "duration": 0.0712,
      "velocity": 98,
      "chip": "ym2612"
    },
    {
      "channel": 2,
      "note": 71,
      "start": 37.0782,
      "duration": 0.0849,
      "velocity": 98,
      "chip": "ym2612"
    },
    {
      "channel": 4,
      "note": 40,
      "start": 37.1826,
      "duration": 0.2637,
      "velocity": 113,
      "chip": "ym2612"
    },
    {
      "channel": 5,
      "note": 52,
      "start": 37.2992,
      "duration": 0.0804,
      "velocity": 88,
      "chip": "ym2612"
    },
    {
      "channel": 5,
      "note": 52,
      "start": 37.4331,
      "duration": 0.0632,
      "velocity": 88,
      "chip": "ym2612"
    },
    {
      "channel": 1,
      "note": 64,
      "start": 37.4356,
      "duration": 0.0939,
      "velocity": 114,
      "chip": "ym2612"
    },
    {
      "channel": 0,
      "note": 63,
      "start": 37.5496,
      "duration": 0.0965,
      "velocity": 98,
      "chip": "ym2612"
    },
    {
      "channel": 3,
      "note": 66,
      "start": 37.5522,
      "duration": 0.0941,
      "velocity": 98,
      "chip": "ym2612"
    },
    {
      "channel": 2,
      "note": 71,
      "start": 37.5553,
      "duration": 0.1077,
      "velocity": 98,
      "chip": "ym2612"
    },
    {
      "channel": 5,
      "note": 52,
      "start": 37.6658,
      "duration": 0.0805,
      "velocity": 88,
      "chip": "ym2612"
    },
    {
      "channel": 4,
      "note": 71,
      "start": 37.6694,
      "duration": 0.0602,
      "velocity": 101,
      "chip": "ym2612"
    },
    {
      "channel": 1,
      "note": 76,
      "start": 37.6723,
      "duration": 0.0571,
      "velocity": 101,
      "chip": "ym2612"
    },
    {
      "channel": 1,
      "note": 76,
      "start": 37.7833,
      "duration": 0.0795,
      "velocity": 101,
      "chip": "ym2612"
    },
    {
      "channel": 4,
      "note": 69,
      "start": 37.7863,
      "duration": 0.06,
      "velocity": 101,
      "chip": "ym2612"
    },
    {
      "channel": 5,
      "note": 52,
      "start": 37.9159,
      "duration": 0.1138,
      "velocity": 88,
      "chip": "ym2612"
    },
    {
      "channel": 0,
      "note": 64,
      "start": 37.9188,
      "duration": 0.0607,
      "velocity": 114,
      "chip": "ym2612"
    },
    {
      "channel": 1,
      "note": 71,
      "start": 38.0338,
      "duration": 0.3124,
      "velocity": 101,
      "chip": "ym2612"
    },
    {
      "channel": 4,
      "note": 76,
      "start": 38.0368,
      "duration": 0.2761,
      "velocity": 101,
      "chip": "ym2612"
    },
    {
      "channel": 5,
      "note": 50,
      "start": 38.1492,
      "duration": 0.1138,
      "velocity": 88,
      "chip": "ym2612"
    },
    {
      "channel": 3,
      "note": 40,
      "start": 38.3827,
      "duration": 0.0302,
      "velocity": 113,
      "chip": "ym2612"
    },
    {
      "channel": 5,
      "note": 47,
      "start": 38.3853,
      "duration": 0.1278,
      "velocity": 88,
      "chip": "ym2612"
    },
    {
      "channel": 0,
      "note": 64,
      "start": 38.3878,
      "duration": 0.0751,
      "velocity": 114,
      "chip": "ym2612"
    },
    {
      "channel": 1,
      "note": 69,
      "start": 38.3908,
      "duration": 0.0554,
      "velocity": 101,
      "chip": "ym2612"
    },
    {
      "channel": 4,
      "note": 74,
      "start": 38.3936,
      "duration": 0.0528,
      "velocity": 101,
      "chip": "ym2612"
    },
    {
      "channel": 3,
      "note": 40,
      "start": 38.5158,
      "duration": 0.097,
      "velocity": 113,
      "chip": "ym2612"
    },
    {
      "channel": 3,
      "note": 33,
      "start": 38.6325,
      "duration": 0.0804,
      "velocity": 113,
      "chip": "ym2612"
    },
    {
      "channel": 5,
      "note": 52,
      "start": 38.6352,
      "duration": 0.0778,
      "velocity": 88,
      "chip": "ym2612"
    },
    {
      "channel": 2,
      "note": 40,
      "start": 38.6382,
      "duration": 0.2249,
      "velocity": 93,
      "chip": "ym2612"
    },
    {
      "channel": 1,
      "note": 71,
      "start": 38.6415,
      "duration": 0.0548,
      "velocity": 98,
      "chip": "ym2612"
    },
    {
      "channel": 4,
      "note": 67,
      "start": 38.6447,
      "duration": 0.0183,
      "velocity": 98,
      "chip": "ym2612"
    },
    {
      "channel": 0,
      "note": 64,
      "start": 38.648,
      "duration": 0.001,
      "velocity": 98,
      "chip": "ym2612"
    },
    {
      "channel": 0,
      "note": 69,
      "start": 38.6512,
      "duration": 0.0009,
      "velocity": 101,
      "chip": "ym2612"
    },
    {
      "channel": 0,
      "note": 74,
      "start": 38.6542,
      "duration": 0.0419,
      "velocity": 101,
      "chip": "ym2612"
    },
    {
      "channel": 1,
      "note": 64,
      "start": 38.7497,
      "duration": 0.0634,
      "velocity": 98,
      "chip": "ym2612"
    },
    {
      "channel": 4,
      "note": 71,
      "start": 38.7523,
      "duration": 0.061,
      "velocity": 98,
      "chip": "ym2612"
    },
    {
      "channel": 0,
      "note": 67,
      "start": 38.7551,
      "duration": 0.0577,
      "velocity": 98,
      "chip": "ym2612"
    },
    {
      "channel": 3,
      "note": 71,
      "start": 38.7586,
      "duration": 0.0546,
      "velocity": 101,
      "chip": "ym2612"
    },
    {
      "channel": 5,
      "note": 76,
      "start": 38.7616,
      "duration": 0.0518,
      "velocity": 101,
      "chip": "ym2612"
    },
    {
      "channel": 0,
      "note": 33,
      "start": 38.8661,
      "duration": 0.0634,
      "velocity": 113,
      "chip": "ym2612"
    },
    {
      "channel": 1,
      "note": 52,
      "start": 38.8691,
      "duration": 0.0606,
      "velocity": 88,
      "chip": "ym2612"
    },
    {
      "channel": 3,
      "note": 64,
      "start": 38.872,
      "duration": 0.1075,
      "velocity": 114,
      "chip": "ym2612"
    },
    {
      "channel": 0,
      "note": 33,
      "start": 38.9993,
      "duration": 0.0968,
      "velocity": 113,
      "chip": "ym2612"
    },
    {
      "channel": 1,
      "note": 52,
      "start": 39.002,
      "duration": 0.0774,
      "velocity": 88,
      "chip": "ym2612"
    },
    {
      "channel": 2,
      "note": 40,
      "start": 39.0051,
      "duration": 0.4414,
      "velocity": 93,
      "chip": "ym2612"
    },
    {
      "channel": 4,
      "note": 67,
      "start": 39.0081,
      "duration": 0.0383,
      "velocity": 98,
      "chip": "ym2612"
    },
    {
      "channel": 5,
      "note": 71,
      "start": 39.011,
      "duration": 0.0187,
      "velocity": 98,
      "chip": "ym2612"
    },
    {
      "channel": 3,
      "note": 64,
      "start": 39.0146,
      "duration": 0.0315,
      "velocity": 98,
      "chip": "ym2612"
    },
    {
      "channel": 0,
      "note": 40,
      "start": 39.1158,
      "duration": 0.2303,
      "velocity": 113,
      "chip": "ym2612"
    },
    {
      "channel": 1,
      "note": 52,
      "start": 39.233,
      "duration": 0.0466,
      "velocity": 88,
      "chip": "ym2612"
    },
    {
      "channel": 3,
      "note": 67,
      "start": 39.2361,
      "duration": 0.0602,
      "velocity": 98,
      "chip": "ym2612"
    },
    {
      "channel": 4,
      "note": 64,
      "start": 39.2386,
      "duration": 0.0578,
      "velocity": 98,
      "chip": "ym2612"
    },
    {
      "channel": 5,
      "note": 71,
      "start": 39.2415,
      "duration": 0.0382,
      "velocity": 98,
      "chip": "ym2612"
    },
    {
      "channel": 1,
      "note": 52,
      "start": 39.3494,
      "duration": 0.0801,
      "velocity": 88,
      "chip": "ym2612"
    },
    {
      "channel": 5,
      "note": 64,
      "start": 39.3523,
      "duration": 0.0941,
      "velocity": 114,
      "chip": "ym2612"
    },
    {
      "channel": 3,
      "note": 34,
      "start": 39.3551,
      "duration": 0.0579,
      "velocity": 114,
      "chip": "ym2612"
    },
    {
      "channel": 3,
      "note": 34,
      "start": 39.4832,
      "duration": 0.1297,
      "velocity": 114,
      "chip": "ym2612"
    },
    {
      "channel": 4,
      "note": 72,
      "start": 39.4863,
      "duration": 0.2268,
      "velocity": 98,
      "chip": "ym2612"
    },
    {
      "channel": 0,
      "note": 64,
      "start": 39.489,
      "duration": 0.2238,
      "velocity": 98,
      "chip": "ym2612"
    },
    {
      "channel": 1,
      "note": 67,
      "start": 39.4919,
      "duration": 0.221,
      "velocity": 98,
      "chip": "ym2612"
    },
    {
      "channel": 5,
      "note": 52,
      "start": 39.5992,
      "duration": 0.0804,
      "velocity": 88,
      "chip": "ym2612"
    },
    {
      "channel": 2,
      "note": 33,
      "start": 39.8327,
      "duration": 0.1637,
      "velocity": 113,
      "chip": "ym2612"
    },
    {
      "channel": 5,
      "note": 52,
      "start": 39.8354,
      "duration": 0.0942,
      "velocity": 88,
      "chip": "ym2612"
    },
    {
      "channel": 3,
      "note": 64,
      "start": 39.8383,
      "duration": 0.0747,
      "velocity": 114,
      "chip": "ym2612"
    },
    {
      "channel": 0,
      "note": 64,
      "start": 39.8412,
      "duration": 0.0716,
      "velocity": 98,
      "chip": "ym2612"
    },
    {
      "channel": 1,
      "note": 67,
      "start": 39.8443,
      "duration": 0.0353,
      "velocity": 98,
      "chip": "ym2612"
    },
    {
      "channel": 4,
      "note": 71,
      "start": 39.8474,
      "duration": 0.0489,
      "velocity": 98,
      "chip": "ym2612"
    },
    {
      "channel": 2,
      "note": 40,
      "start": 40.0827,
      "duration": 0.1137,
      "velocity": 113,
      "chip": "ym2612"
    },
    {
      "channel": 5,
      "note": 55,
      "start": 40.0855,
      "duration": 0.2109,
      "velocity": 88,
      "chip": "ym2612"
    },
    {
      "channel": 3,
      "note": 116,
      "start": 40.0883,
      "duration": 0.0103,
      "velocity": 114,
      "chip": "ym2612"
    },
    {
      "channel": 0,
      "note": 67,
      "start": 40.0912,
      "duration": 0.055,
      "velocity": 98,
      "chip": "ym2612"
    },
    {
      "channel": 1,
      "note": 64,
      "start": 40.0938,
      "duration": 0.0691,
      "velocity": 98,
      "chip": "ym2612"
    },
    {
      "channel": 4,
      "note": 71,
      "start": 40.0969,
      "duration": 0.016,
      "velocity": 98,
      "chip": "ym2612"
    },
    {
      "channel": 3,
      "note": 116,
      "start": 40.1995,
      "duration": 0.0633,
      "velocity": 114,
      "chip": "ym2612"
    },
    {
      "channel": 5,
      "note": 57,
      "start": 40.316,
      "duration": 0.0969,
      "velocity": 88,
      "chip": "ym2612"
    },
    {
      "channel": 3,
      "note": 116,
      "start": 40.3188,
      "duration": 0.0609,
      "velocity": 114,
      "chip": "ym2612"
    },
    {
      "channel": 4,
      "note": 64,
      "start": 40.3214,
      "duration": 0.0584,
      "velocity": 114,
      "chip": "ym2612"
    },
    {
      "channel": 2,
      "note": 40,
      "start": 40.4493,
      "duration": 0.0637,
      "velocity": 113,
      "chip": "ym2612"
    },
    {
      "channel": 3,
      "note": 116,
      "start": 40.4522,
      "duration": 0.0274,
      "velocity": 114,
      "chip": "ym2612"
    },
    {
      "channel": 2,
      "note": 33,
      "start": 40.566,
      "duration": 0.1137,
      "velocity": 113,
      "chip": "ym2612"
    },
    {
      "channel": 5,
      "note": 52,
      "start": 40.5687,
      "duration": 0.0776,
      "velocity": 88,
      "chip": "ym2612"
    },
    {
      "channel": 3,
      "note": 116,
      "start": 40.5719,
      "duration": 0.091,
      "velocity": 114,
      "chip": "ym2612"
    },
    {
      "channel": 0,
      "note": 71,
      "start": 40.5749,
      "duration": 0.0547,
      "velocity": 98,
      "chip": "ym2612"
    },
    {
      "channel": 1,
      "note": 67,
      "start": 40.5778,
      "duration": 0.0184,
      "velocity": 98,
      "chip": "ym2612"
    },
    {
      "channel": 4,
      "note": 64,
      "start": 40.581,
      "duration": 0.0154,
      "velocity": 98,
      "chip": "ym2612"
    },
    {
      "channel": 0,
      "note": 67,
      "start": 40.6833,
      "duration": 0.063,
      "velocity": 98,
      "chip": "ym2612"
    },
    {
      "channel": 1,
      "note": 64,
      "start": 40.6859,
      "duration": 0.0768,
      "velocity": 98,
      "chip": "ym2612"
    },
    {
      "channel": 4,
      "note": 71,
      "start": 40.6888,
      "duration": 0.0408,
      "velocity": 98,
      "chip": "ym2612"
    },
    {
      "channel": 2,
      "note": 33,
      "start": 40.7999,
      "duration": 0.0632,
      "velocity": 113,
      "chip": "ym2612"
    },
    {
      "channel": 5,
      "note": 52,
      "start": 40.8031,
      "duration": 0.0599,
      "velocity": 88,
      "chip": "ym2612"
    },
    {
      "channel": 3,
      "note": 64,
      "start": 40.806,
      "duration": 0.0735,
      "velocity": 114,
      "chip": "ym2612"
    },
    {
      "channel": 2,
      "note": 33,
      "start": 40.9326,
      "duration": 0.0641,
      "velocity": 113,
      "chip": "ym2612"
    },
    {
      "channel": 5,
      "note": 52,
      "start": 40.9354,
      "duration": 0.0611,
      "velocity": 88,
      "chip": "ym2612"
    },
    {
      "channel": 0,
      "note": 67,
      "start": 40.9384,
      "duration": 0.0244,
      "velocity": 98,
      "chip": "ym2612"
    },
    {
      "channel": 1,
      "note": 71,
      "start": 40.9411,
      "duration": 0.0551,
      "velocity": 98,
      "chip": "ym2612"
    },
    {
      "channel": 4,
      "note": 64,
      "start": 40.9442,
      "duration": 0.0522,
      "velocity": 98,
      "chip": "ym2612"
    },
    {
      "channel": 2,
      "note": 40,
      "start": 41.0493,
      "duration": 0.297,
      "velocity": 113,
      "chip": "ym2612"
    },
    {
      "channel": 5,
      "note": 52,
      "start": 41.166,
      "duration": 0.0804,
      "velocity": 88,
      "chip": "ym2612"
    },
    {
      "channel": 0,
      "note": 64,
      "start": 41.169,
      "duration": 0.0771,
      "velocity": 98,
      "chip": "ym2612"
    },
    {
      "channel": 1,
      "note": 71,
      "start": 41.1717,
      "duration": 0.0579,
      "velocity": 98,
      "chip": "ym2612"
    },
    {
      "channel": 4,
      "note": 67,
      "start": 41.1745,
      "duration": 0.0384,
      "velocity": 98,
      "chip": "ym2612"
    },
    {
      "channel": 5,
      "note": 52,
      "start": 41.2826,
      "duration": 0.0805,
      "velocity": 88,
      "chip": "ym2612"
    },
    {
      "channel": 3,
      "note": 64,
      "start": 41.2852,
      "duration": 0.0777,
      "velocity": 114,
      "chip": "ym2612"
    },
    {
      "channel": 0,
      "note": 66,
      "start": 41.4165,
      "duration": 0.2462,
      "velocity": 98,
      "chip": "ym2612"
    },
    {
      "channel": 1,
      "note": 71,
      "start": 41.4192,
      "duration": 0.227,
      "velocity": 98,
      "chip": "ym2612"
    },
    {
      "channel": 4,
      "note": 63,
      "start": 41.4219,
      "duration": 0.2244,
      "velocity": 98,
      "chip": "ym2612"
    },
    {
      "channel": 5,
      "note": 52,
      "start": 41.5325,
      "duration": 0.0805,
      "velocity": 88,
      "chip": "ym2612"
    },
    {
      "channel": 2,
      "note": 59,
      "start": 41.5359,
      "duration": 0.0438,
      "velocity": 101,
      "chip": "ym2612"
    },
    {
      "channel": 2,
      "note": 59,
      "start": 41.65,
      "duration": 0.0629,
      "velocity": 101,
      "chip": "ym2612"
    },
    {
      "channel": 3,
      "note": 33,
      "start": 41.7661,
      "duration": 0.1302,
      "velocity": 113,
      "chip": "ym2612"
    },
    {
      "channel": 5,
      "note": 52,
      "start": 41.7688,
      "duration": 0.1276,
      "velocity": 88,
      "chip": "ym2612"
    },
    {
      "channel": 1,
      "note": 64,
      "start": 41.7717,
      "duration": 0.0746,
      "velocity": 114,
      "chip": "ym2612"
    },
    {
      "channel": 4,
      "note": 116,
      "start": 41.7745,
      "duration": 0.0384,
      "velocity": 114,
      "chip": "ym2612"
    },
    {
      "channel": 0,
      "note": 63,
      "start": 41.7777,
      "duration": 0.0038,
      "velocity": 98,
      "chip": "ym2612"
    },
    {
      "channel": 2,
      "note": 66,
      "start": 41.7808,
      "duration": 0.0658,
      "velocity": 98,
      "chip": "ym2612"
    },
    {
      "channel": 0,
      "note": 71,
      "start": 41.7837,
      "duration": 0.0008,
      "velocity": 98,
      "chip": "ym2612"
    },
    {
      "channel": 0,
      "note": 59,
      "start": 41.7868,
      "duration": 0.0593,
      "velocity": 101,
      "chip": "ym2612"
    },
    {
      "channel": 1,
      "note": 116,
      "start": 41.8997,
      "duration": 0.0632,
      "velocity": 114,
      "chip": "ym2612"
    },
    {
      "channel": 0,
      "note": 59,
      "start": 41.9026,
      "duration": 0.0269,
      "velocity": 101,
      "chip": "ym2612"
    },
    {
      "channel": 3,
      "note": 40,
      "start": 42.0158,
      "duration": 0.1304,
      "velocity": 113,
      "chip": "ym2612"
    },
    {
      "channel": 5,
      "note": 50,
      "start": 42.0184,
      "duration": 0.1115,
      "velocity": 88,
      "chip": "ym2612"
    },
    {
      "channel": 2,
      "note": 67,
      "start": 42.0217,
      "duration": 0.0914,
      "velocity": 98,
      "chip": "ym2612"
    },
    {
      "channel": 4,
      "note": 64,
      "start": 42.0247,
      "duration": 0.105,
      "velocity": 98,
      "chip": "ym2612"
    },
    {
      "channel": 0,
      "note": 71,
      "start": 42.0275,
      "duration": 0.1019,
      "velocity": 98,
      "chip": "ym2612"
    },
    {
      "channel": 1,
      "note": 64,
      "start": 42.0308,
      "duration": 0.0821,
      "velocity": 101,
      "chip": "ym2612"
    },
    {
      "channel": 1,
      "note": 59,
      "start": 42.1334,
      "duration": 0.0627,
      "velocity": 101,
      "chip": "ym2612"
    },
    {
      "channel": 5,
      "note": 47,
      "start": 42.2492,
      "duration": 0.1305,
      "velocity": 88,
      "chip": "ym2612"
    },
    {
      "channel": 2,
      "note": 116,
      "start": 42.2526,
      "duration": 0.0438,
      "velocity": 114,
      "chip": "ym2612"
    },
    {
      "channel": 0,
      "note": 64,
      "start": 42.2554,
      "duration": 0.0907,
      "velocity": 114,
      "chip": "ym2612"
    },
    {
      "channel": 1,
      "note": 62,
      "start": 42.2587,
      "duration": 0.0374,
      "velocity": 101,
      "chip": "ym2612"
    },
    {
      "channel": 0,
      "note": 116,
      "start": 42.3828,
      "duration": 0.0633,
      "velocity": 114,
      "chip": "ym2612"
    },
    {
      "channel": 1,
      "note": 64,
      "start": 42.3861,
      "duration": 0.0934,
      "velocity": 101,
      "chip": "ym2612"
    },
    {
      "channel": 3,
      "note": 33,
      "start": 42.4996,
      "duration": 0.08,
      "velocity": 113,
      "chip": "ym2612"
    },
    {
      "channel": 5,
      "note": 52,
      "start": 42.5023,
      "duration": 0.0775,
      "velocity": 88,
      "chip": "ym2612"
    },
    {
      "channel": 4,
      "note": 67,
      "start": 42.5055,
      "duration": 0.0082,
      "velocity": 98,
      "chip": "ym2612"
    },
    {
      "channel": 2,
      "note": 71,
      "start": 42.5088,
      "duration": 0.0209,
      "velocity": 98,
      "chip": "ym2612"
    },
    {
      "channel": 0,
      "note": 64,
      "start": 42.5117,
      "duration": 0.0177,
      "velocity": 98,
      "chip": "ym2612"
    },
    {
      "channel": 0,
      "note": 64,
      "start": 42.6164,
      "duration": 0.0797,
      "velocity": 98,
      "chip": "ym2612"
    },
    {
      "channel": 4,
      "note": 67,
      "start": 42.6191,
      "duration": 0.0271,
      "velocity": 98,
      "chip": "ym2612"
    },
    {
      "channel": 2,
      "note": 71,
      "start": 42.6222,
      "duration": 0.0574,
      "velocity": 98,
      "chip": "ym2612"
    },
    {
      "channel": 3,
      "note": 33,
      "start": 42.7325,
      "duration": 0.0303,
      "velocity": 113,
      "chip": "ym2612"
    },
    {
      "channel": 5,
      "note": 52,
      "start": 42.7357,
      "duration": 0.0606,
      "velocity": 88,
      "chip": "ym2612"
    },
    {
      "channel": 1,
      "note": 64,
      "start": 42.7386,
      "duration": 0.0742,
      "velocity": 114,
      "chip": "ym2612"
    },
    {
      "channel": 3,
      "note": 33,
      "start": 42.8657,
      "duration": 0.0972,
      "velocity": 113,
      "chip": "ym2612"
    },
    {
      "channel": 5,
      "note": 52,
      "start": 42.8685,
      "duration": 0.0611,
      "velocity": 88,
      "chip": "ym2612"
    },
    {
      "channel": 0,
      "note": 64,
      "start": 42.8715,
      "duration": 0.0413,
      "velocity": 98,
      "chip": "ym2612"
    },
    {
      "channel": 4,
      "note": 71,
      "start": 42.8742,
      "duration": 0.022,
      "velocity": 98,
      "chip": "ym2612"
    },
    {
      "channel": 2,
      "note": 67,
      "start": 42.8775,
      "duration": 0.019,
      "velocity": 98,
      "chip": "ym2612"
    },
    {
      "channel": 3,
      "note": 40,
      "start": 42.9826,
      "duration": 0.2635,
      "velocity": 113,
      "chip": "ym2612"
    },
    {
      "channel": 5,
      "note": 52,
      "start": 43.0994,
      "duration": 0.0303,
      "velocity": 88,
      "chip": "ym2612"
    },
    {
      "channel": 0,
      "note": 67,
      "start": 43.1025,
      "duration": 0.0603,
      "velocity": 98,
      "chip": "ym2612"
    },
    {
      "channel": 4,
      "note": 71,
      "start": 43.1053,
      "duration": 0.0243,
      "velocity": 98,
      "chip": "ym2612"
    },
    {
      "channel": 2,
      "note": 64,
      "start": 43.1081,
      "duration": 0.0217,
      "velocity": 98,
      "chip": "ym2612"
    },
    {
      "channel": 5,
      "note": 52,
      "start": 43.216,
      "duration": 0.0804,
      "velocity": 88,
      "chip": "ym2612"
    },
    {
      "channel": 1,
      "note": 64,
      "start": 43.2187,
      "duration": 0.0774,
      "velocity": 114,
      "chip": "ym2612"
    },
    {
      "channel": 4,
      "note": 34,
      "start": 43.2215,
      "duration": 0.0415,
      "velocity": 114,
      "chip": "ym2612"
    },
    {
      "channel": 1,
      "note": 34,
      "start": 43.3499,
      "duration": 0.113,
      "velocity": 114,
      "chip": "ym2612"
    },
    {
      "channel": 0,
      "note": 64,
      "start": 43.3527,
      "duration": 0.2268,
      "velocity": 98,
      "chip": "ym2612"
    },
    {
      "channel": 2,
      "note": 72,
      "start": 43.3555,
      "duration": 0.2244,
      "velocity": 98,
      "chip": "ym2612"
    },
    {
      "channel": 3,
      "note": 67,
      "start": 43.3584,
      "duration": 0.2212,
      "velocity": 98,
      "chip": "ym2612"
    },
    {
      "channel": 5,
      "note": 52,
      "start": 43.4659,
      "duration": 0.0805,
      "velocity": 88,
      "chip": "ym2612"
    },
    {
      "channel": 4,
      "note": 33,
      "start": 43.6994,
      "duration": 0.0163,
      "velocity": 113,
      "chip": "ym2612"
    },
    {
      "channel": 5,
      "note": 52,
      "start": 43.7022,
      "duration": 0.0942,
      "velocity": 88,
      "chip": "ym2612"
    },
    {
      "channel": 1,
      "note": 64,
      "start": 43.7049,
      "duration": 0.0746,
      "velocity": 114,
      "chip": "ym2612"
    },
    {
      "channel": 0,
      "note": 64,
      "start": 43.7082,
      "duration": 0.0546,
      "velocity": 98,
      "chip": "ym2612"
    },
    {
      "channel": 3,
      "note": 71,
      "start": 43.7107,
      "duration": 0.0522,
      "velocity": 98,
      "chip": "ym2612"
    },
    {
      "channel": 2,
      "note": 67,
      "start": 43.714,
      "duration": 0.0324,
      "velocity": 98,
      "chip": "ym2612"
    },
    {
      "channel": 4,
      "note": 33,
      "start": 43.8325,
      "duration": 0.0971,
      "velocity": 113,
      "chip": "ym2612"
    },
    {
      "channel": 4,
      "note": 40,
      "start": 43.9497,
      "duration": 0.1132,
      "velocity": 113,
      "chip": "ym2612"
    },
    {
      "channel": 5,
      "note": 55,
      "start": 43.9524,
      "duration": 0.2106,
      "velocity": 88,
      "chip": "ym2612"
    },
    {
      "channel": 1,
      "note": 116,
      "start": 43.9552,
      "duration": 0.0104,
      "velocity": 114,
      "chip": "ym2612"
    },
    {
      "channel": 0,
      "note": 64,
      "start": 43.9581,
      "duration": 0.038,
      "velocity": 98,
      "chip": "ym2612"
    },
    {
      "channel": 3,
      "note": 67,
      "start": 43.9608,
      "duration": 0.0188,
      "velocity": 98,
      "chip": "ym2612"
    },
    {
      "channel": 2,
      "note": 71,
      "start": 43.9639,
      "duration": 0.0159,
      "velocity": 98,
      "chip": "ym2612"
    },
    {
      "channel": 1,
      "note": 116,
      "start": 44.0661,
      "duration": 0.0634,
      "velocity": 114,
      "chip": "ym2612"
    },
    {
      "channel": 5,
      "note": 57,
      "start": 44.183,
      "duration": 0.0968,
      "velocity": 88,
      "chip": "ym2612"
    },
    {
      "channel": 1,
      "note": 116,
      "start": 44.1857,
      "duration": 0.0606,
      "velocity": 114,
      "chip": "ym2612"
    },
    {
      "channel": 3,
      "note": 64,
      "start": 44.1885,
      "duration": 0.0744,
      "velocity": 114,
      "chip": "ym2612"
    },
    {
      "channel": 0,
      "note": 64,
      "start": 44.1914,
      "duration": 0.088,
      "velocity": 98,
      "chip": "ym2612"
    },
    {
      "channel": 2,
      "note": 67,
      "start": 44.1946,
      "duration": 0.0685,
      "velocity": 98,
      "chip": "ym2612"
    },
    {
      "channel": 4,
      "note": 71,
      "start": 44.198,
      "duration": 0.0484,
      "velocity": 98,
      "chip": "ym2612"
    },
    {
      "channel": 1,
      "note": 40,
      "start": 44.3158,
      "duration": 0.1137,
      "velocity": 113,
      "chip": "ym2612"
    },
    {
      "channel": 3,
      "note": 116,
      "start": 44.319,
      "duration": 0.0272,
      "velocity": 114,
      "chip": "ym2612"
    },
    {
      "channel": 1,
      "note": 33,
      "start": 44.4326,
      "duration": 0.0969,
      "velocity": 113,
      "chip": "ym2612"
    },
    {
      "channel": 5,
      "note": 52,
      "start": 44.4355,
      "duration": 0.1109,
      "velocity": 88,
      "chip": "ym2612"
    },
    {
      "channel": 4,
      "note": 52,
      "start": 44.4383,
      "duration": 0.0747,
      "velocity": 88,
      "chip": "ym2612"
    },
    {
      "channel": 3,
      "note": 116,
      "start": 44.4412,
      "duration": 0.0885,
      "velocity": 114,
      "chip": "ym2612"
    },
    {
      "channel": 0,
      "note": 66,
      "start": 44.4441,
      "duration": 0.0039,
      "velocity": 98,
      "chip": "ym2612"
    },
    {
      "channel": 2,
      "note": 63,
      "start": 44.447,
      "duration": 0.0161,
      "velocity": 98,
      "chip": "ym2612"
    },
    {
      "channel": 0,
      "note": 71,
      "start": 44.45,
      "duration": 0.0016,
      "velocity": 98,
      "chip": "ym2612"
    },
    {
      "channel": 0,
      "note": 63,
      "start": 44.5499,
      "duration": 0.0628,
      "velocity": 98,
      "chip": "ym2612"
    },
    {
      "channel": 2,
      "note": 66,
      "start": 44.5527,
      "duration": 0.0604,
      "velocity": 98,
      "chip": "ym2612"
    },
    {
      "channel": 4,
      "note": 71,
      "start": 44.5561,
      "duration": 0.0235,
      "velocity": 98,
      "chip": "ym2612"
    },
    {
      "channel": 1,
      "note": 33,
      "start": 44.6658,
      "duration": 0.0137,
      "velocity": 113,
      "chip": "ym2612"
    },
    {
      "channel": 5,
      "note": 52,
      "start": 44.6686,
      "duration": 0.061,
      "velocity": 88,
      "chip": "ym2612"
    },
    {
      "channel": 3,
      "note": 64,
      "start": 44.6715,
      "duration": 0.0747,
      "velocity": 114,
      "chip": "ym2612"
    },
    {
      "channel": 1,
      "note": 33,
      "start": 44.7824,
      "duration": 0.0804,
      "velocity": 113,
      "chip": "ym2612"
    },
    {
      "channel": 5,
      "note": 52,
      "start": 44.7852,
      "duration": 0.0778,
      "velocity": 88,
      "chip": "ym2612"
    },
    {
      "channel": 0,
      "note": 66,
      "start": 44.7883,
      "duration": 0.0578,
      "velocity": 98,
      "chip": "ym2612"
    },
    {
      "channel": 4,
      "note": 63,
      "start": 44.791,
      "duration": 0.0554,
      "velocity": 98,
      "chip": "ym2612"
    },
    {
      "channel": 2,
      "note": 71,
      "start": 44.794,
      "duration": 0.0357,
      "velocity": 98,
      "chip": "ym2612"
    },
    {
      "channel": 1,
      "note": 40,
      "start": 44.9158,
      "duration": 0.2971,
      "velocity": 113,
      "chip": "ym2612"
    },
    {
      "channel": 5,
      "note": 52,
      "start": 45.0331,
      "duration": 0.0634,
      "velocity": 88,
      "chip": "ym2612"
    },
    {
      "channel": 0,
      "note": 63,
      "start": 45.0363,
      "duration": 0.06,
      "velocity": 98,
      "chip": "ym2612"
    },
    {
      "channel": 4,
      "note": 66,
      "start": 45.0389,
      "duration": 0.0576,
      "velocity": 98,
      "chip": "ym2612"
    },
    {
      "channel": 2,
      "note": 71,
      "start": 45.0418,
      "duration": 0.0549,
      "velocity": 98,
      "chip": "ym2612"
    },
    {
      "channel": 5,
      "note": 52,
      "start": 45.1494,
      "duration": 0.0969,
      "velocity": 88,
      "chip": "ym2612"
    },
    {
      "channel": 3,
      "note": 64,
      "start": 45.152,
      "duration": 0.0776,
      "velocity": 114,
      "chip": "ym2612"
    },
    {
      "channel": 0,
      "note": 67,
      "start": 45.2668,
      "duration": 0.0793,
      "velocity": 98,
      "chip": "ym2612"
    },
    {
      "channel": 4,
      "note": 64,
      "start": 45.2696,
      "duration": 0.11,
      "velocity": 98,
      "chip": "ym2612"
    },
    {
      "channel": 2,
      "note": 71,
      "start": 45.2728,
      "duration": 0.0737,
      "velocity": 98,
      "chip": "ym2612"
    },
    {
      "channel": 5,
      "note": 52,
      "start": 45.3992,
      "duration": 0.0971,
      "velocity": 88,
      "chip": "ym2612"
    },
    {
      "channel": 1,
      "note": 33,
      "start": 45.6329,
      "duration": 0.1134,
      "velocity": 113,
      "chip": "ym2612"
    },
    {
      "channel": 5,
      "note": 52,
      "start": 45.6356,
      "duration": 0.1607,
      "velocity": 88,
      "chip": "ym2612"
    },
    {
      "channel": 3,
      "note": 64,
      "start": 45.6383,
      "duration": 0.058,
      "velocity": 114,
      "chip": "ym2612"
    },
    {
      "channel": 1,
      "note": 40,
      "start": 45.8824,
      "duration": 0.2137,
      "velocity": 113,
      "chip": "ym2612"
    },
    {
      "channel": 5,
      "note": 50,
      "start": 45.8851,
      "duration": 0.1945,
      "velocity": 88,
      "chip": "ym2612"
    },
    {
      "channel": 1,
      "note": 33,
      "start": 46.1158,
      "duration": 0.0637,
      "velocity": 113,
      "chip": "ym2612"
    },
    {
      "channel": 5,
      "note": 47,
      "start": 46.1186,
      "duration": 0.1445,
      "velocity": 88,
      "chip": "ym2612"
    },
    {
      "channel": 3,
      "note": 64,
      "start": 46.1212,
      "duration": 0.0585,
      "velocity": 114,
      "chip": "ym2612"
    },
    {
      "channel": 0,
      "note": 34,
      "start": 46.1239,
      "duration": 0.0389,
      "velocity": 114,
      "chip": "ym2612"
    },
    {
      "channel": 2,
      "note": 116,
      "start": 46.1271,
      "duration": 0.0026,
      "velocity": 114,
      "chip": "ym2612"
    },
    {
      "channel": 1,
      "note": 40,
      "start": 46.2324,
      "duration": 0.1305,
      "velocity": 113,
      "chip": "ym2612"
    },
    {
      "channel": 0,
      "note": 116,
      "start": 46.2352,
      "duration": 0.0609,
      "velocity": 114,
      "chip": "ym2612"
    },
    {
      "channel": 3,
      "note": 34,
      "start": 46.2378,
      "duration": 0.0917,
      "velocity": 114,
      "chip": "ym2612"
    },
    {
      "channel": 1,
      "note": 33,
      "start": 46.367,
      "duration": 0.0458,
      "velocity": 113,
      "chip": "ym2612"
    },
    {
      "channel": 5,
      "note": 52,
      "start": 46.3697,
      "duration": 0.0933,
      "velocity": 88,
      "chip": "ym2612"
    },
    {
      "channel": 4,
      "note": 40,
      "start": 46.3728,
      "duration": 0.4735,
      "velocity": 93,
      "chip": "ym2612"
    },
    {
      "channel": 2,
      "note": 76,
      "start": 46.3773,
      "duration": 0.119,
      "velocity": 101,
      "chip": "ym2612"
    },
    {
      "channel": 0,
      "note": 71,
      "start": 46.3807,
      "duration": 0.0821,
      "velocity": 101,
      "chip": "ym2612"
    },
    {
      "channel": 1,
      "note": 33,
      "start": 46.5992,
      "duration": 0.047,
      "velocity": 113,
      "chip": "ym2612"
    },
    {
      "channel": 5,
      "note": 52,
      "start": 46.6021,
      "duration": 0.0444,
      "velocity": 88,
      "chip": "ym2612"
    },
    {
      "channel": 3,
      "note": 64,
      "start": 46.6049,
      "duration": 0.0746,
      "velocity": 114,
      "chip": "ym2612"
    },
    {
      "channel": 0,
      "note": 69,
      "start": 46.608,
      "duration": 0.0381,
      "velocity": 101,
      "chip": "ym2612"
    },
    {
      "channel": 1,
      "note": 33,
      "start": 46.7156,
      "duration": 0.0639,
      "velocity": 113,
      "chip": "ym2612"
    },
    {
      "channel": 5,
      "note": 52,
      "start": 46.7188,
      "duration": 0.1276,
      "velocity": 88,
      "chip": "ym2612"
    },
    {
      "channel": 2,
      "note": 59,
      "start": 46.7221,
      "duration": 0.0744,
      "velocity": 98,
      "chip": "ym2612"
    },
    {
      "channel": 0,
      "note": 76,
      "start": 46.7254,
      "duration": 0.0707,
      "velocity": 101,
      "chip": "ym2612"
    },
    {
      "channel": 3,
      "note": 71,
      "start": 46.7283,
      "duration": 0.068,
      "velocity": 101,
      "chip": "ym2612"
    },
    {
      "channel": 1,
      "note": 40,
      "start": 46.8493,
      "duration": 0.1302,
      "velocity": 113,
      "chip": "ym2612"
    },
    {
      "channel": 2,
      "note": 64,
      "start": 46.8525,
      "duration": 0.0605,
      "velocity": 98,
      "chip": "ym2612"
    },
    {
      "channel": 5,
      "note": 52,
      "start": 46.9661,
      "duration": 0.0637,
      "velocity": 88,
      "chip": "ym2612"
    },
    {
      "channel": 2,
      "note": 59,
      "start": 46.9691,
      "duration": 0.0773,
      "velocity": 98,
      "chip": "ym2612"
    },
    {
      "channel": 0,
      "note": 69,
      "start": 46.9721,
      "duration": 0.0574,
      "velocity": 101,
      "chip": "ym2612"
    },
    {
      "channel": 3,
      "note": 74,
      "start": 46.975,
      "duration": 0.0712,
      "velocity": 101,
      "chip": "ym2612"
    },
    {
      "channel": 5,
      "note": 52,
      "start": 47.0827,
      "duration": 0.097,
      "velocity": 88,
      "chip": "ym2612"
    },
    {
      "channel": 4,
      "note": 64,
      "start": 47.0857,
      "duration": 0.0938,
      "velocity": 114,
      "chip": "ym2612"
    },
    {
      "channel": 1,
      "note": 34,
      "start": 47.0885,
      "duration": 0.041,
      "velocity": 114,
      "chip": "ym2612"
    },
    {
      "channel": 2,
      "note": 62,
      "start": 47.0916,
      "duration": 0.0548,
      "velocity": 98,
      "chip": "ym2612"
    },
    {
      "channel": 1,
      "note": 34,
      "start": 47.1995,
      "duration": 0.1466,
      "velocity": 114,
      "chip": "ym2612"
    },
    {
      "channel": 2,
      "note": 64,
      "start": 47.203,
      "duration": 0.0767,
      "velocity": 98,
      "chip": "ym2612"
    },
    {
      "channel": 0,
      "note": 69,
      "start": 47.206,
      "duration": 0.2734,
      "velocity": 101,
      "chip": "ym2612"
    },
    {
      "channel": 3,
      "note": 74,
      "start": 47.2089,
      "duration": 0.254,
      "velocity": 101,
      "chip": "ym2612"
    },
    {
      "channel": 5,
      "note": 52,
      "start": 47.3327,
      "duration": 0.0636,
      "velocity": 88,
      "chip": "ym2612"
    },
    {
      "channel": 2,
      "note": 64,
      "start": 47.4498,
      "duration": 0.0798,
      "velocity": 98,
      "chip": "ym2612"
    },
    {
      "channel": 4,
      "note": 33,
      "start": 47.5661,
      "duration": 0.1134,
      "velocity": 113,
      "chip": "ym2612"
    },
    {
      "channel": 5,
      "note": 52,
      "start": 47.5689,
      "duration": 0.0941,
      "velocity": 88,
      "chip": "ym2612"
    },
    {
      "channel": 1,
      "note": 64,
      "start": 47.5721,
      "duration": 0.0908,
      "velocity": 114,
      "chip": "ym2612"
    },
    {
      "channel": 0,
      "note": 76,
      "start": 47.5754,
      "duration": 0.0708,
      "velocity": 101,
      "chip": "ym2612"
    },
    {
      "channel": 3,
      "note": 71,
      "start": 47.5784,
      "duration": 0.0512,
      "velocity": 101,
      "chip": "ym2612"
    },
    {
      "channel": 2,
      "note": 59,
      "start": 47.6834,
      "duration": 0.0629,
      "velocity": 98,
      "chip": "ym2612"
    },
    {
      "channel": 4,
      "note": 40,
      "start": 47.8163,
      "duration": 0.1966,
      "velocity": 113,
      "chip": "ym2612"
    },
    {
      "channel": 5,
      "note": 52,
      "start": 47.819,
      "duration": 0.144,
      "velocity": 88,
      "chip": "ym2612"
    },
    {
      "channel": 1,
      "note": 116,
      "start": 47.8218,
      "duration": 0.0244,
      "velocity": 114,
      "chip": "ym2612"
    },
    {
      "channel": 2,
      "note": 62,
      "start": 47.8249,
      "duration": 0.0549,
      "velocity": 98,
      "chip": "ym2612"
    },
    {
      "channel": 1,
      "note": 116,
      "start": 47.9326,
      "duration": 0.0468,
      "velocity": 114,
      "chip": "ym2612"
    },
    {
      "channel": 2,
      "note": 59,
      "start": 47.9357,
      "duration": 0.0274,
      "velocity": 98,
      "chip": "ym2612"
    },
    {
      "channel": 5,
      "note": 51,
      "start": 48.0497,
      "duration": 0.0966,
      "velocity": 88,
      "chip": "ym2612"
    },
    {
      "channel": 1,
      "note": 116,
      "start": 48.0523,
      "duration": 0.0606,
      "velocity": 114,
      "chip": "ym2612"
    },
    {
      "channel": 3,
      "note": 64,
      "start": 48.0551,
      "duration": 0.0744,
      "velocity": 114,
      "chip": "ym2612"
    },
    {
      "channel": 2,
      "note": 64,
      "start": 48.0582,
      "duration": 0.0716,
      "velocity": 98,
      "chip": "ym2612"
    },
    {
      "channel": 4,
      "note": 40,
      "start": 48.1659,
      "duration": 0.0638,
      "velocity": 113,
      "chip": "ym2612"
    },
    {
      "channel": 1,
      "note": 116,
      "start": 48.1687,
      "duration": 0.0608,
      "velocity": 114,
      "chip": "ym2612"
    },
    {
      "channel": 2,
      "note": 62,
      "start": 48.1719,
      "duration": 0.0579,
      "velocity": 98,
      "chip": "ym2612"
    },
    {
      "channel": 4,
      "note": 33,
      "start": 48.2993,
      "duration": 0.0969,
      "velocity": 113,
      "chip": "ym2612"
    },
    {
      "channel": 5,
      "note": 50,
      "start": 48.3018,
      "duration": 0.0945,
      "velocity": 88,
      "chip": "ym2612"
    },
    {
      "channel": 0,
      "note": 38,
      "start": 48.3046,
      "duration": 0.5248,
      "velocity": 93,
      "chip": "ym2612"
    },
    {
      "channel": 1,
      "note": 116,
      "start": 48.3073,
      "duration": 0.1555,
      "velocity": 114,
      "chip": "ym2612"
    },
    {
      "channel": 3,
      "note": 67,
      "start": 48.3106,
      "duration": 0.0524,
      "velocity": 101,
      "chip": "ym2612"
    },
    {
      "channel": 2,
      "note": 71,
      "start": 48.314,
      "duration": 0.0158,
      "velocity": 101,
      "chip": "ym2612"
    },
    {
      "channel": 3,
      "note": 69,
      "start": 48.4168,
      "duration": 0.0462,
      "velocity": 101,
      "chip": "ym2612"
    },
    {
      "channel": 2,
      "note": 64,
      "start": 48.4202,
      "duration": 0.0261,
      "velocity": 101,
      "chip": "ym2612"
    },
    {
      "channel": 4,
      "note": 33,
      "start": 48.5326,
      "duration": 0.0471,
      "velocity": 113,
      "chip": "ym2612"
    },
    {
      "channel": 5,
      "note": 50,
      "start": 48.5354,
      "duration": 0.0777,
      "velocity": 88,
      "chip": "ym2612"
    },
    {
      "channel": 1,
      "note": 64,
      "start": 48.5385,
      "duration": 0.0743,
      "velocity": 114,
      "chip": "ym2612"
    },
    {
      "channel": 2,
      "note": 59,
      "start": 48.5421,
      "duration": 0.0377,
      "velocity": 98,
      "chip": "ym2612"
    },
    {
      "channel": 4,
      "note": 33,
      "start": 48.6491,
      "duration": 0.0807,
      "velocity": 113,
      "chip": "ym2612"
    },
    {
      "channel": 5,
      "note": 62,
      "start": 48.6519,
      "duration": 0.0612,
      "velocity": 88,
      "chip": "ym2612"
    },
    {
      "channel": 2,
      "note": 59,
      "start": 48.6551,
      "duration": 0.0581,
      "velocity": 98,
      "chip": "ym2612"
    },
    {
      "channel": 3,
      "note": 64,
      "start": 48.6582,
      "duration": 0.0715,
      "velocity": 101,
      "chip": "ym2612"
    },
    {
      "channel": 1,
      "note": 69,
      "start": 48.6612,
      "duration": 0.0516,
      "velocity": 101,
      "chip": "ym2612"
    },
    {
      "channel": 4,
      "note": 40,
      "start": 48.7829,
      "duration": 0.1466,
      "velocity": 113,
      "chip": "ym2612"
    },
    {
      "channel": 2,
      "note": 64,
      "start": 48.7863,
      "duration": 0.0601,
      "velocity": 98,
      "chip": "ym2612"
    },
    {
      "channel": 5,
      "note": 62,
      "start": 48.8994,
      "duration": 0.0804,
      "velocity": 88,
      "chip": "ym2612"
    },
    {
      "channel": 2,
      "note": 59,
      "start": 48.9027,
      "duration": 0.0438,
      "velocity": 98,
      "chip": "ym2612"
    },
    {
      "channel": 1,
      "note": 69,
      "start": 48.9056,
      "duration": 0.0739,
      "velocity": 101,
      "chip": "ym2612"
    },
    {
      "channel": 3,
      "note": 64,
      "start": 48.9084,
      "duration": 0.0713,
      "velocity": 101,
      "chip": "ym2612"
    },
    {
      "channel": 5,
      "note": 50,
      "start": 49.016,
      "duration": 0.0805,
      "velocity": 88,
      "chip": "ym2612"
    },
    {
      "channel": 0,
      "note": 64,
      "start": 49.0187,
      "duration": 0.0774,
      "velocity": 114,
      "chip": "ym2612"
    },
    {
      "channel": 2,
      "note": 62,
      "start": 49.0217,
      "duration": 0.0247,
      "velocity": 98,
      "chip": "ym2612"
    },
    {
      "channel": 2,
      "note": 64,
      "start": 49.1334,
      "duration": 0.0796,
      "velocity": 98,
      "chip": "ym2612"
    },
    {
      "channel": 1,
      "note": 67,
      "start": 49.1364,
      "duration": 0.2931,
      "velocity": 101,
      "chip": "ym2612"
    },
    {
      "channel": 3,
      "note": 62,
      "start": 49.1398,
      "duration": 0.2565,
      "velocity": 101,
      "chip": "ym2612"
    },
    {
      "channel": 5,
      "note": 50,
      "start": 49.266,
      "duration": 0.1637,
      "velocity": 88,
      "chip": "ym2612"
    },
    {
      "channel": 2,
      "note": 64,
      "start": 49.3831,
      "duration": 0.0798,
      "velocity": 98,
      "chip": "ym2612"
    },
    {
      "channel": 5,
      "note": 62,
      "start": 49.4997,
      "duration": 0.0967,
      "velocity": 88,
      "chip": "ym2612"
    },
    {
      "channel": 0,
      "note": 64,
      "start": 49.5022,
      "duration": 0.0773,
      "velocity": 114,
      "chip": "ym2612"
    },
    {
      "channel": 1,
      "note": 69,
      "start": 49.5052,
      "duration": 0.0744,
      "velocity": 101,
      "chip": "ym2612"
    },
    {
      "channel": 3,
      "note": 64,
      "start": 49.5079,
      "duration": 0.0718,
      "velocity": 101,
      "chip": "ym2612"
    },
    {
      "channel": 2,
      "note": 59,
      "start": 49.6168,
      "duration": 0.0629,
      "velocity": 98,
      "chip": "ym2612"
    },
    {
      "channel": 5,
      "note": 50,
      "start": 49.7493,
      "duration": 0.2637,
      "velocity": 88,
      "chip": "ym2612"
    },
    {
      "channel": 2,
      "note": 62,
      "start": 49.753,
      "duration": 0.0601,
      "velocity": 98,
      "chip": "ym2612"
    },
    {
      "channel": 2,
      "note": 59,
      "start": 49.8667,
      "duration": 0.0296,
      "velocity": 98,
      "chip": "ym2612"
    },
    {
      "channel": 4,
      "note": 40,
      "start": 49.9827,
      "duration": 0.0302,
      "velocity": 113,
      "chip": "ym2612"
    },
    {
      "channel": 0,
      "note": 62,
      "start": 49.9854,
      "duration": 0.1107,
      "velocity": 88,
      "chip": "ym2612"
    },
    {
      "channel": 1,
      "note": 64,
      "start": 49.9882,
      "duration": 0.0746,
      "velocity": 114,
      "chip": "ym2612"
    },
    {
      "channel": 2,
      "note": 64,
      "start": 49.9912,
      "duration": 0.0552,
      "velocity": 98,
      "chip": "ym2612"
    },
    {
      "channel": 4,
      "note": 40,
      "start": 50.0993,
      "duration": 0.0971,
      "velocity": 113,
      "chip": "ym2612"
    },
    {
      "channel": 2,
      "note": 59,
      "start": 50.1028,
      "duration": 0.077,
      "velocity": 98,
      "chip": "ym2612"
    },
    {
      "channel": 4,
      "note": 33,
      "start": 50.2324,
      "duration": 0.0972,
      "velocity": 113,
      "chip": "ym2612"
    },
    {
      "channel": 0,
      "note": 48,
      "start": 50.2349,
      "duration": 0.0612,
      "velocity": 88,
      "chip": "ym2612"
    },
    {
      "channel": 3,
      "note": 36,
      "start": 50.2376,
      "duration": 0.5253,
      "velocity": 93,
      "chip": "ym2612"
    },
    {
      "channel": 5,
      "note": 71,
      "start": 50.241,
      "duration": 0.0888,
      "velocity": 101,
      "chip": "ym2612"
    },
    {
      "channel": 1,
      "note": 76,
      "start": 50.244,
      "duration": 0.1188,
      "velocity": 101,
      "chip": "ym2612"
    },
    {
      "channel": 4,
      "note": 33,
      "start": 50.4659,
      "duration": 0.0305,
      "velocity": 113,
      "chip": "ym2612"
    },
    {
      "channel": 0,
      "note": 48,
      "start": 50.4684,
      "duration": 0.0777,
      "velocity": 88,
      "chip": "ym2612"
    },
    {
      "channel": 2,
      "note": 64,
      "start": 50.4712,
      "duration": 0.0753,
      "velocity": 114,
      "chip": "ym2612"
    },
    {
      "channel": 5,
      "note": 59,
      "start": 50.4744,
      "duration": 0.0554,
      "velocity": 98,
      "chip": "ym2612"
    },
    {
      "channel": 1,
      "note": 69,
      "start": 50.4773,
      "duration": 0.0189,
      "velocity": 101,
      "chip": "ym2612"
    },
    {
      "channel": 4,
      "note": 33,
      "start": 50.5824,
      "duration": 0.0806,
      "velocity": 113,
      "chip": "ym2612"
    },
    {
      "channel": 0,
      "note": 60,
      "start": 50.5849,
      "duration": 0.0778,
      "velocity": 88,
      "chip": "ym2612"
    },
    {
      "channel": 5,
      "note": 59,
      "start": 50.5881,
      "duration": 0.0751,
      "velocity": 98,
      "chip": "ym2612"
    },
    {
      "channel": 1,
      "note": 71,
      "start": 50.5914,
      "duration": 0.0715,
      "velocity": 101,
      "chip": "ym2612"
    },
    {
      "channel": 2,
      "note": 76,
      "start": 50.5945,
      "duration": 0.0851,
      "velocity": 101,
      "chip": "ym2612"
    },
    {
      "channel": 4,
      "note": 40,
      "start": 50.7159,
      "duration": 0.1471,
      "velocity": 113,
      "chip": "ym2612"
    },
    {
      "channel": 5,
      "note": 64,
      "start": 50.719,
      "duration": 0.0606,
      "velocity": 98,
      "chip": "ym2612"
    },
    {
      "channel": 0,
      "note": 60,
      "start": 50.8324,
      "duration": 0.0805,
      "velocity": 88,
      "chip": "ym2612"
    },
    {
      "channel": 5,
      "note": 59,
      "start": 50.8354,
      "duration": 0.0777,
      "velocity": 98,
      "chip": "ym2612"
    },
    {
      "channel": 1,
      "note": 74,
      "start": 50.8383,
      "duration": 0.0412,
      "velocity": 101,
      "chip": "ym2612"
    },
    {
      "channel": 2,
      "note": 69,
      "start": 50.8413,
      "duration": 0.0386,
      "velocity": 101,
      "chip": "ym2612"
    },
    {
      "channel": 0,
      "note": 48,
      "start": 50.9492,
      "duration": 0.0803,
      "velocity": 88,
      "chip": "ym2612"
    },
    {
      "channel": 3,
      "note": 64,
      "start": 50.9522,
      "duration": 0.0941,
      "velocity": 114,
      "chip": "ym2612"
    },
    {
      "channel": 4,
      "note": 34,
      "start": 50.9549,
      "duration": 0.0246,
      "velocity": 114,
      "chip": "ym2612"
    },
    {
      "channel": 5,
      "note": 62,
      "start": 50.9583,
      "duration": 0.0547,
      "velocity": 98,
      "chip": "ym2612"
    },
    {
      "channel": 3,
      "note": 34,
      "start": 51.0661,
      "duration": 0.1468,
      "velocity": 114,
      "chip": "ym2612"
    },
    {
      "channel": 5,
      "note": 64,
      "start": 51.0693,
      "duration": 0.0771,
      "velocity": 98,
      "chip": "ym2612"
    },
    {
      "channel": 1,
      "note": 69,
      "start": 51.0722,
      "duration": 0.274,
      "velocity": 101,
      "chip": "ym2612"
    },
    {
      "channel": 2,
      "note": 74,
      "start": 51.0757,
      "duration": 0.2373,
      "velocity": 101,
      "chip": "ym2612"
    },
    {
      "channel": 0,
      "note": 48,
      "start": 51.1827,
      "duration": 0.2134,
      "velocity": 88,
      "chip": "ym2612"
    },
    {
      "channel": 5,
      "note": 64,
      "start": 51.3165,
      "duration": 0.08,
      "velocity": 98,
      "chip": "ym2612"
    },
    {
      "channel": 4,
      "note": 33,
      "start": 51.4332,
      "duration": 0.113,
      "velocity": 113,
      "chip": "ym2612"
    },
    {
      "channel": 0,
      "note": 60,
      "start": 51.4357,
      "duration": 0.0938,
      "velocity": 88,
      "chip": "ym2612"
    },
    {
      "channel": 3,
      "note": 64,
      "start": 51.4389,
      "duration": 0.0908,
      "velocity": 114,
      "chip": "ym2612"
    },
    {
      "channel": 1,
      "note": 76,
      "start": 51.442,
      "duration": 0.0875,
      "velocity": 101,
      "chip": "ym2612"
    },
    {
      "channel": 2,
      "note": 71,
      "start": 51.4451,
      "duration": 0.0514,
      "velocity": 101,
      "chip": "ym2612"
    },
    {
      "channel": 5,
      "note": 59,
      "start": 51.55,
      "duration": 0.0629,
      "velocity": 98,
      "chip": "ym2612"
    },
    {
      "channel": 4,
      "note": 40,
      "start": 51.6659,
      "duration": 0.2137,
      "velocity": 113,
      "chip": "ym2612"
    },
    {
      "channel": 0,
      "note": 48,
      "start": 51.6684,
      "duration": 0.2443,
      "velocity": 88,
      "chip": "ym2612"
    },
    {
      "channel": 3,
      "note": 116,
      "start": 51.6713,
      "duration": 0.025,
      "velocity": 114,
      "chip": "ym2612"
    },
    {
      "channel": 5,
      "note": 62,
      "start": 51.6742,
      "duration": 0.1054,
      "velocity": 98,
      "chip": "ym2612"
    },
    {
      "channel": 3,
      "note": 116,
      "start": 51.7994,
      "duration": 0.0469,
      "velocity": 114,
      "chip": "ym2612"
    },
    {
      "channel": 5,
      "note": 59,
      "start": 51.8023,
      "duration": 0.0441,
      "velocity": 98,
      "chip": "ym2612"
    },
    {
      "channel": 0,
      "note": 60,
      "start": 51.9158,
      "duration": 0.1137,
      "velocity": 88,
      "chip": "ym2612"
    },
    {
      "channel": 3,
      "note": 116,
      "start": 51.9186,
      "duration": 0.0609,
      "velocity": 114,
      "chip": "ym2612"
    },
    {
      "channel": 2,
      "note": 64,
      "start": 51.9214,
      "duration": 0.0917,
      "velocity": 114,
      "chip": "ym2612"
    },
    {
      "channel": 5,
      "note": 64,
      "start": 51.9243,
      "duration": 0.072,
      "velocity": 98,
      "chip": "ym2612"
    },
    {
      "channel": 1,
      "note": 79,
      "start": 51.9273,
      "duration": 0.0049,
      "velocity": 101,
      "chip": "ym2612"
    },
    {
      "channel": 4,
      "note": 74,
      "start": 51.9306,
      "duration": 0.0158,
      "velocity": 101,
      "chip": "ym2612"
    },
    {
      "channel": 1,
      "note": 40,
      "start": 52.0329,
      "duration": 0.0967,
      "velocity": 113,
      "chip": "ym2612"
    },
    {
      "channel": 3,
      "note": 116,
      "start": 52.0357,
      "duration": 0.0439,
      "velocity": 114,
      "chip": "ym2612"
    },
    {
      "channel": 5,
      "note": 62,
      "start": 52.039,
      "duration": 0.074,
      "velocity": 98,
      "chip": "ym2612"
    },
    {
      "channel": 4,
      "note": 79,
      "start": 52.042,
      "duration": 0.0378,
      "velocity": 101,
      "chip": "ym2612"
    },
    {
      "channel": 2,
      "note": 74,
      "start": 52.0453,
      "duration": 0.0346,
      "velocity": 101,
      "chip": "ym2612"
    },
    {
      "channel": 1,
      "note": 33,
      "start": 52.1491,
      "duration": 0.1305,
      "velocity": 113,
      "chip": "ym2612"
    },
    {
      "channel": 0,
      "note": 50,
      "start": 52.1516,
      "duration": 0.0945,
      "velocity": 88,
      "chip": "ym2612"
    },
    {
      "channel": 3,
      "note": 38,
      "start": 52.1548,
      "duration": 0.4747,
      "velocity": 93,
      "chip": "ym2612"
    },
    {
      "channel": 4,
      "note": 116,
      "start": 52.1581,
      "duration": 0.0882,
      "velocity": 114,
      "chip": "ym2612"
    },
    {
      "channel": 2,
      "note": 74,
      "start": 52.1614,
      "duration": 0.0684,
      "velocity": 101,
      "chip": "ym2612"
    },
    {
      "channel": 5,
      "note": 79,
      "start": 52.1646,
      "duration": 0.0651,
      "velocity": 101,
      "chip": "ym2612"
    },
    {
      "channel": 1,
      "note": 33,
      "start": 52.3992,
      "duration": 0.0136,
      "velocity": 113,
      "chip": "ym2612"
    },
    {
      "channel": 0,
      "note": 50,
      "start": 52.4018,
      "duration": 0.0776,
      "velocity": 88,
      "chip": "ym2612"
    },
    {
      "channel": 4,
      "note": 64,
      "start": 52.4046,
      "duration": 0.0917,
      "velocity": 114,
      "chip": "ym2612"
    },
    {
      "channel": 5,
      "note": 59,
      "start": 52.4077,
      "duration": 0.022,
      "velocity": 98,
      "chip": "ym2612"
    },
    {
      "channel": 1,
      "note": 33,
      "start": 52.5161,
      "duration": 0.0968,
      "velocity": 113,
      "chip": "ym2612"
    },
    {
      "channel": 0,
      "note": 62,
      "start": 52.5186,
      "duration": 0.0776,
      "velocity": 88,
      "chip": "ym2612"
    },
    {
      "channel": 5,
      "note": 59,
      "start": 52.5217,
      "duration": 0.058,
      "velocity": 98,
      "chip": "ym2612"
    },
    {
      "channel": 2,
      "note": 71,
      "start": 52.5249,
      "duration": 0.0549,
      "velocity": 101,
      "chip": "ym2612"
    },
    {
      "channel": 4,
      "note": 76,
      "start": 52.5278,
      "duration": 0.0517,
      "velocity": 101,
      "chip": "ym2612"
    },
    {
      "channel": 1,
      "note": 40,
      "start": 52.6326,
      "duration": 0.2637,
      "velocity": 113,
      "chip": "ym2612"
    },
    {
      "channel": 5,
      "note": 64,
      "start": 52.6358,
      "duration": 0.0772,
      "velocity": 98,
      "chip": "ym2612"
    },
    {
      "channel": 0,
      "note": 62,
      "start": 52.7658,
      "duration": 0.0803,
      "velocity": 88,
      "chip": "ym2612"
    },
    {
      "channel": 5,
      "note": 59,
      "start": 52.7688,
      "duration": 0.0776,
      "velocity": 98,
      "chip": "ym2612"
    },
    {
      "channel": 0,
      "note": 50,
      "start": 52.8827,
      "duration": 0.0801,
      "velocity": 88,
      "chip": "ym2612"
    },
    {
      "channel": 4,
      "note": 64,
      "start": 52.8855,
      "duration": 0.0942,
      "velocity": 114,
      "chip": "ym2612"
    },
    {
      "channel": 5,
      "note": 62,
      "start": 52.8885,
      "duration": 0.0246,
      "velocity": 98,
      "chip": "ym2612"
    },
    {
      "channel": 5,
      "note": 64,
      "start": 52.9999,
      "duration": 0.0798,
      "velocity": 98,
      "chip": "ym2612"
    },
    {
      "channel": 2,
      "note": 74,
      "start": 53.0032,
      "duration": 0.3433,
      "velocity": 101,
      "chip": "ym2612"
    },
    {
      "channel": 3,
      "note": 69,
      "start": 53.0067,
      "duration": 0.2562,
      "velocity": 101,
      "chip": "ym2612"
    },
    {
      "channel": 0,
      "note": 50,
      "start": 53.1156,
      "duration": 0.0805,
      "velocity": 88,
      "chip": "ym2612"
    },
    {
      "channel": 5,
      "note": 64,
      "start": 53.2499,
      "duration": 0.0965,
      "velocity": 98,
      "chip": "ym2612"
    },
    {
      "channel": 0,
      "note": 62,
      "start": 53.3658,
      "duration": 0.1803,
      "velocity": 88,
      "chip": "ym2612"
    },
    {
      "channel": 4,
      "note": 64,
      "start": 53.3686,
      "duration": 0.0778,
      "velocity": 114,
      "chip": "ym2612"
    },
    {
      "channel": 3,
      "note": 71,
      "start": 53.3717,
      "duration": 0.0746,
      "velocity": 101,
      "chip": "ym2612"
    },
    {
      "channel": 2,
      "note": 76,
      "start": 53.3747,
      "duration": 0.055,
      "velocity": 101,
      "chip": "ym2612"
    },
    {
      "channel": 5,
      "note": 62,
      "start": 53.4837,
      "duration": 0.0793,
      "velocity": 98,
      "chip": "ym2612"
    },
    {
      "channel": 1,
      "note": 59,
      "start": 53.4867,
      "duration": 0.0595,
      "velocity": 98,
      "chip": "ym2612"
    },
    {
      "channel": 0,
      "note": 50,
      "start": 53.5991,
      "duration": 0.197,
      "velocity": 88,
      "chip": "ym2612"
    },
    {
      "channel": 1,
      "note": 64,
      "start": 53.6021,
      "duration": 0.0774,
      "velocity": 98,
      "chip": "ym2612"
    },
    {
      "channel": 1,
      "note": 59,
      "start": 53.7329,
      "duration": 0.0465,
      "velocity": 98,
      "chip": "ym2612"
    },
    {
      "channel": 2,
      "note": 40,
      "start": 53.8495,
      "duration": 0.0136,
      "velocity": 113,
      "chip": "ym2612"
    },
    {
      "channel": 0,
      "note": 62,
      "start": 53.852,
      "duration": 0.1108,
      "velocity": 88,
      "chip": "ym2612"
    },
    {
      "channel": 4,
      "note": 64,
      "start": 53.8546,
      "duration": 0.0752,
      "velocity": 114,
      "chip": "ym2612"
    },
    {
      "channel": 1,
      "note": 64,
      "start": 53.8576,
      "duration": 0.072,
      "velocity": 98,
      "chip": "ym2612"
    },
    {
      "channel": 2,
      "note": 40,
      "start": 53.966,
      "duration": 0.0971,
      "velocity": 113,
      "chip": "ym2612"
    },
    {
      "channel": 2,
      "note": 33,
      "start": 54.0827,
      "duration": 0.0805,
      "velocity": 113,
      "chip": "ym2612"
    },
    {
      "channel": 0,
      "note": 52,
      "start": 54.0852,
      "duration": 0.0776,
      "velocity": 88,
      "chip": "ym2612"
    },
    {
      "channel": 3,
      "note": 40,
      "start": 54.088,
      "duration": 0.4417,
      "velocity": 93,
      "chip": "ym2612"
    },
    {
      "channel": 2,
      "note": 33,
      "start": 54.3327,
      "duration": 0.047,
      "velocity": 113,
      "chip": "ym2612"
    },
    {
      "channel": 0,
      "note": 52,
      "start": 54.3352,
      "duration": 0.0776,
      "velocity": 88,
      "chip": "ym2612"
    },
    {
      "channel": 4,
      "note": 64,
      "start": 54.338,
      "duration": 0.0917,
      "velocity": 114,
      "chip": "ym2612"
    },
    {
      "channel": 1,
      "note": 59,
      "start": 54.341,
      "duration": 0.0219,
      "velocity": 98,
      "chip": "ym2612"
    },
    {
      "channel": 2,
      "note": 33,
      "start": 54.4496,
      "duration": 0.0968,
      "velocity": 113,
      "chip": "ym2612"
    },
    {
      "channel": 0,
      "note": 64,
      "start": 54.4521,
      "duration": 0.0774,
      "velocity": 88,
      "chip": "ym2612"
    },
    {
      "channel": 1,
      "note": 59,
      "start": 54.4555,
      "duration": 0.0408,
      "velocity": 98,
      "chip": "ym2612"
    },
    {
      "channel": 5,
      "note": 62,
      "start": 54.4583,
      "duration": 0.0382,
      "velocity": 98,
      "chip": "ym2612"
    },
    {
      "channel": 2,
      "note": 40,
      "start": 54.5661,
      "duration": 0.2469,
      "velocity": 113,
      "chip": "ym2612"
    },
    {
      "channel": 1,
      "note": 64,
      "start": 54.5693,
      "duration": 0.0935,
      "velocity": 98,
      "chip": "ym2612"
    },
    {
      "channel": 4,
      "note": 79,
      "start": 54.5724,
      "duration": 0.0239,
      "velocity": 101,
      "chip": "ym2612"
    },
    {
      "channel": 5,
      "note": 74,
      "start": 54.5755,
      "duration": 0.1711,
      "velocity": 101,
      "chip": "ym2612"
    },
    {
      "channel": 0,
      "note": 64,
      "start": 54.6994,
      "duration": 0.0634,
      "velocity": 88,
      "chip": "ym2612"
    },
    {
      "channel": 1,
      "note": 59,
      "start": 54.7024,
      "duration": 0.0438,
      "velocity": 98,
      "chip": "ym2612"
    },
    {
      "channel": 4,
      "note": 79,
      "start": 54.7055,
      "duration": 0.041,
      "velocity": 101,
      "chip": "ym2612"
    },
    {
      "channel": 0,
      "note": 52,
      "start": 54.8158,
      "duration": 0.0803,
      "velocity": 88,
      "chip": "ym2612"
    },
    {
      "channel": 3,
      "note": 64,
      "start": 54.8187,
      "duration": 0.0941,
      "velocity": 114,
      "chip": "ym2612"
    },
    {
      "channel": 1,
      "note": 34,
      "start": 54.8214,
      "duration": 0.0415,
      "velocity": 114,
      "chip": "ym2612"
    },
    {
      "channel": 4,
      "note": 62,
      "start": 54.8245,
      "duration": 0.0218,
      "velocity": 98,
      "chip": "ym2612"
    },
    {
      "channel": 1,
      "note": 34,
      "start": 54.9332,
      "duration": 0.1464,
      "velocity": 114,
      "chip": "ym2612"
    },
    {
      "channel": 4,
      "note": 64,
      "start": 54.9362,
      "duration": 0.0935,
      "velocity": 98,
      "chip": "ym2612"
    },
    {
      "channel": 5,
      "note": 74,
      "start": 54.9397,
      "duration": 0.2067,
      "velocity": 101,
      "chip": "ym2612"
    },
    {
      "channel": 2,
      "note": 79,
      "start": 54.9428,
      "duration": 0.3036,
      "velocity": 101,
      "chip": "ym2612"
    },
    {
      "channel": 0,
      "note": 52,
      "start": 55.049,
      "duration": 0.0971,
      "velocity": 88,
      "chip": "ym2612"
    },
    {
      "channel": 4,
      "note": 64,
      "start": 55.1831,
      "duration": 0.0966,
      "velocity": 98,
      "chip": "ym2612"
    },
    {
      "channel": 3,
      "note": 33,
      "start": 55.2995,
      "duration": 0.1468,
      "velocity": 113,
      "chip": "ym2612"
    },
    {
      "channel": 0,
      "note": 64,
      "start": 55.302,
      "duration": 0.1108,
      "velocity": 88,
      "chip": "ym2612"
    },
    {
      "channel": 1,
      "note": 64,
      "start": 55.3048,
      "duration": 0.0747,
      "velocity": 114,
      "chip": "ym2612"
    },
    {
      "channel": 4,
      "note": 62,
      "start": 55.308,
      "duration": 0.0384,
      "velocity": 98,
      "chip": "ym2612"
    },
    {
      "channel": 5,
      "note": 76,
      "start": 55.3111,
      "duration": 0.0686,
      "velocity": 101,
      "chip": "ym2612"
    },
    {
      "channel": 2,
      "note": 81,
      "start": 55.3144,
      "duration": 0.082,
      "velocity": 101,
      "chip": "ym2612"
    },
    {
      "channel": 4,
      "note": 59,
      "start": 55.4164,
      "duration": 0.0632,
      "velocity": 98,
      "chip": "ym2612"
    },
    {
      "channel": 3,
      "note": 40,
      "start": 55.5326,
      "duration": 0.1303,
      "velocity": 113,
      "chip": "ym2612"
    },
    {
      "channel": 0,
      "note": 52,
      "start": 55.535,
      "duration": 0.0944,
      "velocity": 88,
      "chip": "ym2612"
    },
    {
      "channel": 1,
      "note": 116,
      "start": 55.5378,
      "duration": 0.0251,
      "velocity": 114,
      "chip": "ym2612"
    },
    {
      "channel": 4,
      "note": 62,
      "start": 55.5408,
      "duration": 0.0889,
      "velocity": 98,
      "chip": "ym2612"
    },
    {
      "channel": 5,
      "note": 79,
      "start": 55.5438,
      "duration": 0.0692,
      "velocity": 101,
      "chip": "ym2612"
    },
    {
      "channel": 2,
      "note": 74,
      "start": 55.5475,
      "duration": 0.1488,
      "velocity": 101,
      "chip": "ym2612"
    },
    {
      "channel": 1,
      "note": 116,
      "start": 55.6661,
      "duration": 0.0468,
      "velocity": 114,
      "chip": "ym2612"
    },
    {
      "channel": 4,
      "note": 59,
      "start": 55.669,
      "duration": 0.0441,
      "velocity": 98,
      "chip": "ym2612"
    },
    {
      "channel": 0,
      "note": 64,
      "start": 55.7822,
      "duration": 0.0973,
      "velocity": 88,
      "chip": "ym2612"
    },
    {
      "channel": 1,
      "note": 116,
      "start": 55.7849,
      "duration": 0.0446,
      "velocity": 114,
      "chip": "ym2612"
    },
    {
      "channel": 5,
      "note": 64,
      "start": 55.7875,
      "duration": 0.0423,
      "velocity": 114,
      "chip": "ym2612"
    },
    {
      "channel": 4,
      "note": 64,
      "start": 55.7902,
      "duration": 0.0395,
      "velocity": 98,
      "chip": "ym2612"
    },
    {
      "channel": 3,
      "note": 40,
      "start": 55.8992,
      "duration": 0.0804,
      "velocity": 113,
      "chip": "ym2612"
    },
    {
      "channel": 1,
      "note": 116,
      "start": 55.902,
      "duration": 0.0275,
      "velocity": 114,
      "chip": "ym2612"
    },
    {
      "channel": 4,
      "note": 59,
      "start": 55.9049,
      "duration": 0.0914,
      "velocity": 98,
      "chip": "ym2612"
    },
    {
      "channel": 3,
      "note": 33,
      "start": 56.0158,
      "duration": 0.1303,
      "velocity": 113,
      "chip": "ym2612"
    },
    {
      "channel": 0,
      "note": 50,
      "start": 56.0183,
      "duration": 0.0779,
      "velocity": 88,
      "chip": "ym2612"
    },
    {
      "channel": 2,
      "note": 38,
      "start": 56.0212,
      "duration": 0.4752,
      "velocity": 93,
      "chip": "ym2612"
    },
    {
      "channel": 1,
      "note": 116,
      "start": 56.0242,
      "duration": 0.0887,
      "velocity": 114,
      "chip": "ym2612"
    },
    {
      "channel": 5,
      "note": 76,
      "start": 56.0275,
      "duration": 0.1354,
      "velocity": 101,
      "chip": "ym2612"
    },
    {
      "channel": 4,
      "note": 71,
      "start": 56.0308,
      "duration": 0.0487,
      "velocity": 101,
      "chip": "ym2612"
    },
    {
      "channel": 4,
      "note": 74,
      "start": 56.15,
      "duration": 0.0462,
      "velocity": 101,
      "chip": "ym2612"
    },
    {
      "channel": 0,
      "note": 69,
      "start": 56.1531,
      "duration": 0.0597,
      "velocity": 101,
      "chip": "ym2612"
    },
    {
      "channel": 3,
      "note": 33,
      "start": 56.2663,
      "duration": 0.0467,
      "velocity": 113,
      "chip": "ym2612"
    },
    {
      "channel": 1,
      "note": 50,
      "start": 56.2692,
      "duration": 0.0936,
      "velocity": 88,
      "chip": "ym2612"
    },
    {
      "channel": 5,
      "note": 64,
      "start": 56.2722,
      "duration": 0.0741,
      "velocity": 114,
      "chip": "ym2612"
    },
    {
      "channel": 4,
      "note": 59,
      "start": 56.2754,
      "duration": 0.0209,
      "velocity": 98,
      "chip": "ym2612"
    },
    {
      "channel": 3,
      "note": 33,
      "start": 56.3824,
      "duration": 0.0806,
      "velocity": 113,
      "chip": "ym2612"
    },
    {
      "channel": 1,
      "note": 62,
      "start": 56.3855,
      "duration": 0.0774,
      "velocity": 88,
      "chip": "ym2612"
    },
    {
      "channel": 4,
      "note": 59,
      "start": 56.3886,
      "duration": 0.0746,
      "velocity": 98,
      "chip": "ym2612"
    },
    {
      "channel": 0,
      "note": 76,
      "start": 56.3915,
      "duration": 0.0546,
      "velocity": 101,
      "chip": "ym2612"
    },
    {
      "channel": 5,
      "note": 71,
      "start": 56.395,
      "duration": 0.0683,
      "velocity": 101,
      "chip": "ym2612"
    },
    {
      "channel": 3,
      "note": 40,
      "start": 56.4993,
      "duration": 0.297,
      "velocity": 113,
      "chip": "ym2612"
    },
    {
      "channel": 4,
      "note": 64,
      "start": 56.5023,
      "duration": 0.0772,
      "velocity": 98,
      "chip": "ym2612"
    },
    {
      "channel": 1,
      "note": 62,
      "start": 56.6327,
      "duration": 0.0968,
      "velocity": 88,
      "chip": "ym2612"
    },
    {
      "channel": 4,
      "note": 59,
      "start": 56.636,
      "duration": 0.0603,
      "velocity": 98,
      "chip": "ym2612"
    },
    {
      "channel": 0,
      "note": 74,
      "start": 56.639,
      "duration": 0.0405,
      "velocity": 101,
      "chip": "ym2612"
    },
    {
      "channel": 5,
      "note": 69,
      "start": 56.6418,
      "duration": 0.038,
      "velocity": 101,
      "chip": "ym2612"
    },
    {
      "channel": 1,
      "note": 50,
      "start": 56.7493,
      "duration": 0.0802,
      "velocity": 88,
      "chip": "ym2612"
    },
    {
      "channel": 2,
      "note": 64,
      "start": 56.7521,
      "duration": 0.0777,
      "velocity": 114,
      "chip": "ym2612"
    },
    {
      "channel": 4,
      "note": 62,
      "start": 56.7549,
      "duration": 0.0415,
      "velocity": 98,
      "chip": "ym2612"
    },
    {
      "channel": 4,
      "note": 64,
      "start": 56.8665,
      "duration": 0.0798,
      "velocity": 98,
      "chip": "ym2612"
    },
    {
      "channel": 0,
      "note": 74,
      "start": 56.8695,
      "duration": 0.2932,
      "velocity": 101,
      "chip": "ym2612"
    },
    {
      "channel": 5,
      "note": 69,
      "start": 56.8725,
      "duration": 0.1905,
      "velocity": 101,
      "chip": "ym2612"
    },
    {
      "channel": 1,
      "note": 50,
      "start": 56.9825,
      "duration": 0.1637,
      "velocity": 88,
      "chip": "ym2612"
    },
    {
      "channel": 4,
      "note": 64,
      "start": 57.1165,
      "duration": 0.0632,
      "velocity": 98,
      "chip": "ym2612"
    },
    {
      "channel": 3,
      "note": 33,
      "start": 57.2325,
      "duration": 0.1137,
      "velocity": 113,
      "chip": "ym2612"
    },
    {
      "channel": 1,
      "note": 62,
      "start": 57.235,
      "duration": 0.0945,
      "velocity": 88,
      "chip": "ym2612"
    },
    {
      "channel": 2,
      "note": 64,
      "start": 57.238,
      "duration": 0.0753,
      "velocity": 114,
      "chip": "ym2612"
    },
    {
      "channel": 5,
      "note": 116,
      "start": 57.2408,
      "duration": 0.0223,
      "velocity": 114,
      "chip": "ym2612"
    },
    {
      "channel": 4,
      "note": 62,
      "start": 57.2435,
      "duration": 0.0696,
      "velocity": 98,
      "chip": "ym2612"
    },
    {
      "channel": 0,
      "note": 71,
      "start": 57.2471,
      "duration": 0.001,
      "velocity": 101,
      "chip": "ym2612"
    },
    {
      "channel": 0,
      "note": 76,
      "start": 57.2502,
      "duration": 0.0627,
      "velocity": 101,
      "chip": "ym2612"
    },
    {
      "channel": 5,
      "note": 116,
      "start": 57.3497,
      "duration": 0.0799,
      "velocity": 114,
      "chip": "ym2612"
    },
    {
      "channel": 4,
      "note": 59,
      "start": 57.3527,
      "duration": 0.0602,
      "velocity": 98,
      "chip": "ym2612"
    },
    {
      "channel": 3,
      "note": 40,
      "start": 57.4658,
      "duration": 0.1471,
      "velocity": 113,
      "chip": "ym2612"
    },
    {
      "channel": 1,
      "note": 50,
      "start": 57.4684,
      "duration": 0.2612,
      "velocity": 88,
      "chip": "ym2612"
    },
    {
      "channel": 4,
      "note": 62,
      "start": 57.4715,
      "duration": 0.0747,
      "velocity": 98,
      "chip": "ym2612"
    },
    {
      "channel": 4,
      "note": 59,
      "start": 57.5831,
      "duration": 0.0632,
      "velocity": 98,
      "chip": "ym2612"
    },
    {
      "channel": 0,
      "note": 62,
      "start": 57.7161,
      "duration": 0.08,
      "velocity": 88,
      "chip": "ym2612"
    },
    {
      "channel": 5,
      "note": 116,
      "start": 57.7194,
      "duration": 0.0269,
      "velocity": 114,
      "chip": "ym2612"
    },
    {
      "channel": 2,
      "note": 64,
      "start": 57.7221,
      "duration": 0.091,
      "velocity": 114,
      "chip": "ym2612"
    },
    {
      "channel": 4,
      "note": 64,
      "start": 57.7256,
      "duration": 0.0707,
      "velocity": 98,
      "chip": "ym2612"
    },
    {
      "channel": 5,
      "note": 116,
      "start": 57.8331,
      "duration": 0.0799,
      "velocity": 114,
      "chip": "ym2612"
    },
    {
      "channel": 3,
      "note": 33,
      "start": 57.9496,
      "duration": 0.0801,
      "velocity": 113,
      "chip": "ym2612"
    },
    {
      "channel": 0,
      "note": 48,
      "start": 57.9523,
      "duration": 0.0772,
      "velocity": 88,
      "chip": "ym2612"
    },
    {
      "channel": 1,
      "note": 36,
      "start": 57.9551,
      "duration": 0.491,
      "velocity": 93,
      "chip": "ym2612"
    },
    {
      "channel": 4,
      "note": 67,
      "start": 57.9585,
      "duration": 0.0377,
      "velocity": 101,
      "chip": "ym2612"
    },
    {
      "channel": 2,
      "note": 74,
      "start": 57.9616,
      "duration": 0.0514,
      "velocity": 101,
      "chip": "ym2612"
    },
    {
      "channel": 4,
      "note": 74,
      "start": 58.0667,
      "duration": 0.0795,
      "velocity": 101,
      "chip": "ym2612"
    },
    {
      "channel": 2,
      "note": 67,
      "start": 58.0698,
      "duration": 0.0599,
      "velocity": 101,
      "chip": "ym2612"
    },
    {
      "channel": 3,
      "note": 33,
      "start": 58.1992,
      "duration": 0.0137,
      "velocity": 113,
      "chip": "ym2612"
    },
    {
      "channel": 0,
      "note": 48,
      "start": 58.2019,
      "duration": 0.0943,
      "velocity": 88,
      "chip": "ym2612"
    },
    {
      "channel": 5,
      "note": 64,
      "start": 58.2047,
      "duration": 0.075,
      "velocity": 114,
      "chip": "ym2612"
    },
    {
      "channel": 2,
      "note": 59,
      "start": 58.2079,
      "duration": 0.0385,
      "velocity": 98,
      "chip": "ym2612"
    },
    {
      "channel": 3,
      "note": 33,
      "start": 58.3157,
      "duration": 0.0973,
      "velocity": 113,
      "chip": "ym2612"
    },
    {
      "channel": 0,
      "note": 60,
      "start": 58.3182,
      "duration": 0.0946,
      "velocity": 88,
      "chip": "ym2612"
    },
    {
      "channel": 2,
      "note": 62,
      "start": 58.3214,
      "duration": 0.0749,
      "velocity": 98,
      "chip": "ym2612"
    },
    {
      "channel": 4,
      "note": 67,
      "start": 58.3249,
      "duration": 0.0215,
      "velocity": 101,
      "chip": "ym2612"
    },
    {
      "channel": 5,
      "note": 74,
      "start": 58.3279,
      "duration": 0.0517,
      "velocity": 101,
      "chip": "ym2612"
    },
    {
      "channel": 3,
      "note": 40,
      "start": 58.4326,
      "duration": 0.2637,
      "velocity": 113,
      "chip": "ym2612"
    },
    {
      "channel": 2,
      "note": 64,
      "start": 58.4358,
      "duration": 0.0773,
      "velocity": 98,
      "chip": "ym2612"
    },
    {
      "channel": 0,
      "note": 60,
      "start": 58.5491,
      "duration": 0.0971,
      "velocity": 88,
      "chip": "ym2612"
    },
    {
      "channel": 2,
      "note": 59,
      "start": 58.5522,
      "duration": 0.0777,
      "velocity": 98,
      "chip": "ym2612"
    },
    {
      "channel": 4,
      "note": 64,
      "start": 58.5551,
      "duration": 0.0746,
      "velocity": 101,
      "chip": "ym2612"
    },
    {
      "channel": 0,
      "note": 48,
      "start": 58.6826,
      "duration": 0.0469,
      "velocity": 88,
      "chip": "ym2612"
    },
    {
      "channel": 5,
      "note": 64,
      "start": 58.6855,
      "duration": 0.0775,
      "velocity": 114,
      "chip": "ym2612"
    },
    {
      "channel": 1,
      "note": 34,
      "start": 58.6882,
      "duration": 0.0246,
      "velocity": 114,
      "chip": "ym2612"
    },
    {
      "channel": 2,
      "note": 62,
      "start": 58.6913,
      "duration": 0.0385,
      "velocity": 98,
      "chip": "ym2612"
    },
    {
      "channel": 1,
      "note": 34,
      "start": 58.7999,
      "duration": 0.113,
      "velocity": 114,
      "chip": "ym2612"
    },
    {
      "channel": 2,
      "note": 64,
      "start": 58.8031,
      "duration": 0.0766,
      "velocity": 98,
      "chip": "ym2612"
    },
    {
      "channel": 4,
      "note": 67,
      "start": 58.8062,
      "duration": 0.2901,
      "velocity": 101,
      "chip": "ym2612"
    },
    {
      "channel": 3,
      "note": 74,
      "start": 58.8093,
      "duration": 0.2204,
      "velocity": 101,
      "chip": "ym2612"
    },
    {
      "channel": 0,
      "note": 48,
      "start": 58.9159,
      "duration": 0.1636,
      "velocity": 88,
      "chip": "ym2612"
    },
    {
      "channel": 2,
      "note": 64,
      "start": 59.0334,
      "duration": 0.0797,
      "velocity": 98,
      "chip": "ym2612"
    },
    {
      "channel": 5,
      "note": 33,
      "start": 59.1661,
      "duration": 0.0139,
      "velocity": 113,
      "chip": "ym2612"
    },
    {
      "channel": 0,
      "note": 60,
      "start": 59.1686,
      "duration": 0.0775,
      "velocity": 88,
      "chip": "ym2612"
    },
    {
      "channel": 1,
      "note": 64,
      "start": 59.1714,
      "duration": 0.0749,
      "velocity": 114,
      "chip": "ym2612"
    },
    {
      "channel": 2,
      "note": 62,
      "start": 59.1746,
      "duration": 0.0719,
      "velocity": 98,
      "chip": "ym2612"
    },
    {
      "channel": 3,
      "note": 64,
      "start": 59.178,
      "duration": 0.0349,
      "velocity": 101,
      "chip": "ym2612"
    },
    {
      "channel": 5,
      "note": 33,
      "start": 59.2824,
      "duration": 0.0972,
      "velocity": 113,
      "chip": "ym2612"
    },
    {
      "channel": 2,
      "note": 59,
      "start": 59.2858,
      "duration": 0.0606,
      "velocity": 98,
      "chip": "ym2612"
    },
    {
      "channel": 5,
      "note": 40,
      "start": 59.3997,
      "duration": 0.1132,
      "velocity": 113,
      "chip": "ym2612"
    },
    {
      "channel": 0,
      "note": 48,
      "start": 59.4026,
      "duration": 0.1602,
      "velocity": 88,
      "chip": "ym2612"
    },
    {
      "channel": 1,
      "note": 116,
      "start": 59.4054,
      "duration": 0.0108,
      "velocity": 114,
      "chip": "ym2612"
    },
    {
      "channel": 2,
      "note": 62,
      "start": 59.4084,
      "duration": 0.0714,
      "velocity": 98,
      "chip": "ym2612"
    },
    {
      "channel": 3,
      "note": 74,
      "start": 59.4114,
      "duration": 0.0848,
      "velocity": 101,
      "chip": "ym2612"
    },
    {
      "channel": 4,
      "note": 67,
      "start": 59.4147,
      "duration": 0.0483,
      "velocity": 101,
      "chip": "ym2612"
    },
    {
      "channel": 1,
      "note": 116,
      "start": 59.5161,
      "duration": 0.0634,
      "velocity": 114,
      "chip": "ym2612"
    },
    {
      "channel": 2,
      "note": 59,
      "start": 59.5191,
      "duration": 0.0606,
      "velocity": 98,
      "chip": "ym2612"
    },
    {
      "channel": 0,
      "note": 60,
      "start": 59.6492,
      "duration": 0.097,
      "velocity": 88,
      "chip": "ym2612"
    },
    {
      "channel": 1,
      "note": 116,
      "start": 59.6518,
      "duration": 0.0444,
      "velocity": 114,
      "chip": "ym2612"
    },
    {
      "channel": 4,
      "note": 64,
      "start": 59.6546,
      "duration": 0.0585,
      "velocity": 114,
      "chip": "ym2612"
    },
    {
      "channel": 2,
      "note": 64,
      "start": 59.6578,
      "duration": 0.0888,
      "velocity": 98,
      "chip": "ym2612"
    },
    {
      "channel": 3,
      "note": 74,
      "start": 59.6608,
      "duration": 0.0856,
      "velocity": 101,
      "chip": "ym2612"
    },
    {
      "channel": 5,
      "note": 69,
      "start": 59.6641,
      "duration": 0.049,
      "velocity": 101,
      "chip": "ym2612"
    },
    {
      "channel": 1,
      "note": 40,
      "start": 59.7659,
      "duration": 0.1136,
      "velocity": 113,
      "chip": "ym2612"
    },
    {
      "channel": 4,
      "note": 116,
      "start": 59.7691,
      "duration": 0.0272,
      "velocity": 114,
      "chip": "ym2612"
    },
    {
      "channel": 1,
      "note": 33,
      "start": 59.8826,
      "duration": 0.097,
      "velocity": 113,
      "chip": "ym2612"
    },
    {
      "channel": 0,
      "note": 50,
      "start": 59.8849,
      "duration": 0.0945,
      "velocity": 88,
      "chip": "ym2612"
    },
    {
      "channel": 5,
      "note": 38,
      "start": 59.8877,
      "duration": 0.4587,
      "velocity": 93,
      "chip": "ym2612"
    },
    {
      "channel": 4,
      "note": 116,
      "start": 59.8905,
      "duration": 0.0892,
      "velocity": 114,
      "chip": "ym2612"
    },
    {
      "channel": 3,
      "note": 70,
      "start": 59.8935,
      "duration": 0.0693,
      "velocity": 101,
      "chip": "ym2612"
    },
    {
      "channel": 2,
      "note": 74,
      "start": 59.8973,
      "duration": 0.0492,
      "velocity": 101,
      "chip": "ym2612"
    },
    {
      "channel": 1,
      "note": 33,
      "start": 60.1325,
      "duration": 0.0163,
      "velocity": 113,
      "chip": "ym2612"
    },
    {
      "channel": 0,
      "note": 50,
      "start": 60.135,
      "duration": 0.0099,
      "velocity": 88,
      "chip": "ym2612"
    },
    {
      "channel": 4,
      "note": 64,
      "start": 60.1379,
      "duration": 0.0585,
      "velocity": 114,
      "chip": "ym2612"
    },
    {
      "channel": 2,
      "note": 59,
      "start": 60.1411,
      "duration": 0.0555,
      "velocity": 98,
      "chip": "ym2612"
    },
    {
      "channel": 3,
      "note": 69,
      "start": 60.1441,
      "duration": 0.0522,
      "velocity": 101,
      "chip": "ym2612"
    },
    {
      "channel": 0,
      "note": 74,
      "start": 60.1473,
      "duration": 0.0488,
      "velocity": 101,
      "chip": "ym2612"
    },
    {
      "channel": 1,
      "note": 33,
      "start": 60.2491,
      "duration": 0.0806,
      "velocity": 113,
      "chip": "ym2612"
    },
    {
      "channel": 0,
      "note": 62,
      "start": 60.252,
      "duration": 0.0776,
      "velocity": 88,
      "chip": "ym2612"
    },
    {
      "channel": 2,
      "note": 62,
      "start": 60.2552,
      "duration": 0.0244,
      "velocity": 98,
      "chip": "ym2612"
    },
    {
      "channel": 1,
      "note": 40,
      "start": 60.3659,
      "duration": 0.297,
      "velocity": 113,
      "chip": "ym2612"
    },
    {
      "channel": 2,
      "note": 64,
      "start": 60.3696,
      "duration": 0.0767,
      "velocity": 98,
      "chip": "ym2612"
    },
    {
      "channel": 3,
      "note": 67,
      "start": 60.3727,
      "duration": 0.0569,
      "velocity": 101,
      "chip": "ym2612"
    },
    {
      "channel": 4,
      "note": 74,
      "start": 60.3758,
      "duration": 0.1038,
      "velocity": 101,
      "chip": "ym2612"
    },
    {
      "channel": 0,
      "note": 62,
      "start": 60.4824,
      "duration": 0.0804,
      "velocity": 88,
      "chip": "ym2612"
    },
    {
      "channel": 2,
      "note": 59,
      "start": 60.4857,
      "duration": 0.1273,
      "velocity": 98,
      "chip": "ym2612"
    },
    {
      "channel": 3,
      "note": 64,
      "start": 60.4887,
      "duration": 0.0743,
      "velocity": 101,
      "chip": "ym2612"
    },
    {
      "channel": 0,
      "note": 50,
      "start": 60.6159,
      "duration": 0.0469,
      "velocity": 88,
      "chip": "ym2612"
    },
    {
      "channel": 5,
      "note": 64,
      "start": 60.6187,
      "duration": 0.061,
      "velocity": 114,
      "chip": "ym2612"
    },
    {
      "channel": 2,
      "note": 62,
      "start": 60.6217,
      "duration": 0.0415,
      "velocity": 98,
      "chip": "ym2612"
    },
    {
      "channel": 2,
      "note": 64,
      "start": 60.7334,
      "duration": 0.0796,
      "velocity": 98,
      "chip": "ym2612"
    },
    {
      "channel": 3,
      "note": 74,
      "start": 60.7368,
      "duration": 0.1928,
      "velocity": 101,
      "chip": "ym2612"
    },
    {
      "channel": 4,
      "note": 67,
      "start": 60.7398,
      "duration": 0.29,
      "velocity": 101,
      "chip": "ym2612"
    },
    {
      "channel": 0,
      "note": 50,
      "start": 60.8492,
      "duration": 0.1803,
      "velocity": 88,
      "chip": "ym2612"
    },
    {
      "channel": 2,
      "note": 64,
      "start": 60.9668,
      "duration": 0.0962,
      "velocity": 98,
      "chip": "ym2612"
    },
    {
      "channel": 1,
      "note": 33,
      "start": 61.0995,
      "duration": 0.1134,
      "velocity": 113,
      "chip": "ym2612"
    },
    {
      "channel": 0,
      "note": 62,
      "start": 61.1023,
      "duration": 0.1271,
      "velocity": 88,
      "chip": "ym2612"
    },
    {
      "channel": 5,
      "note": 64,
      "start": 61.1051,
      "duration": 0.0412,
      "velocity": 114,
      "chip": "ym2612"
    },
    {
      "channel": 2,
      "note": 62,
      "start": 61.1081,
      "duration": 0.0549,
      "velocity": 98,
      "chip": "ym2612"
    },
    {
      "channel": 3,
      "note": 64,
      "start": 61.1113,
      "duration": 0.0349,
      "velocity": 101,
      "chip": "ym2612"
    },
    {
      "channel": 2,
      "note": 59,
      "start": 61.2167,
      "duration": 0.0464,
      "velocity": 98,
      "chip": "ym2612"
    },
    {
      "channel": 1,
      "note": 40,
      "start": 61.3324,
      "duration": 0.2138,
      "velocity": 113,
      "chip": "ym2612"
    },
    {
      "channel": 0,
      "note": 50,
      "start": 61.3349,
      "duration": 0.1779,
      "velocity": 88,
      "chip": "ym2612"
    },
    {
      "channel": 2,
      "note": 62,
      "start": 61.3385,
      "duration": 0.0745,
      "velocity": 98,
      "chip": "ym2612"
    },
    {
      "channel": 2,
      "note": 59,
      "start": 61.4499,
      "duration": 0.1299,
      "velocity": 98,
      "chip": "ym2612"
    },
    {
      "channel": 1,
      "note": 33,
      "start": 61.5826,
      "duration": 0.0469,
      "velocity": 113,
      "chip": "ym2612"
    },
    {
      "channel": 0,
      "note": 62,
      "start": 61.5851,
      "duration": 0.1944,
      "velocity": 88,
      "chip": "ym2612"
    },
    {
      "channel": 5,
      "note": 64,
      "start": 61.588,
      "duration": 0.0418,
      "velocity": 114,
      "chip": "ym2612"
    },
    {
      "channel": 4,
      "note": 34,
      "start": 61.5906,
      "duration": 0.0224,
      "velocity": 114,
      "chip": "ym2612"
    },
    {
      "channel": 3,
      "note": 116,
      "start": 61.5938,
      "duration": 0.0051,
      "velocity": 114,
      "chip": "ym2612"
    },
    {
      "channel": 2,
      "note": 64,
      "start": 61.5971,
      "duration": 0.0825,
      "velocity": 98,
      "chip": "ym2612"
    },
    {
      "channel": 1,
      "note": 40,
      "start": 61.699,
      "duration": 0.1139,
      "velocity": 113,
      "chip": "ym2612"
    },
    {
      "channel": 3,
      "note": 116,
      "start": 61.702,
      "duration": 0.0444,
      "velocity": 114,
      "chip": "ym2612"
    },
    {
      "channel": 4,
      "note": 34,
      "start": 61.7046,
      "duration": 0.0918,
      "velocity": 114,
      "chip": "ym2612"
    },
    {
      "channel": 1,
      "note": 33,
      "start": 61.817,
      "duration": 0.0625,
      "velocity": 113,
      "chip": "ym2612"
    },
    {
      "channel": 0,
      "note": 52,
      "start": 61.8195,
      "duration": 0.0766,
      "velocity": 88,
      "chip": "ym2612"
    },
    {
      "channel": 5,
      "note": 40,
      "start": 61.8224,
      "duration": 0.2406,
      "velocity": 93,
      "chip": "ym2612"
    },
    {
      "channel": 1,
      "note": 33,
      "start": 62.0659,
      "duration": 0.0303,
      "velocity": 113,
      "chip": "ym2612"
    },
    {
      "channel": 0,
      "note": 52,
      "start": 62.0685,
      "duration": 0.0443,
      "velocity": 88,
      "chip": "ym2612"
    },
    {
      "channel": 3,
      "note": 64,
      "start": 62.0714,
      "duration": 0.0581,
      "velocity": 114,
      "chip": "ym2612"
    },
    {
      "channel": 1,
      "note": 33,
      "start": 62.1824,
      "duration": 0.0471,
      "velocity": 113,
      "chip": "ym2612"
    },
    {
      "channel": 0,
      "note": 52,
      "start": 62.185,
      "duration": 0.0778,
      "velocity": 88,
      "chip": "ym2612"
    },
    {
      "channel": 5,
      "note": 40,
      "start": 62.188,
      "duration": 0.2751,
      "velocity": 93,
      "chip": "ym2612"
    },
    {
      "channel": 1,
      "note": 40,
      "start": 62.2992,
      "duration": 0.1469,
      "velocity": 113,
      "chip": "ym2612"
    },
    {
      "channel": 2,
      "note": 59,
      "start": 62.3027,
      "duration": 0.177,
      "velocity": 98,
      "chip": "ym2612"
    },
    {
      "channel": 0,
      "note": 52,
      "start": 62.4163,
      "duration": 0.0465,
      "velocity": 88,
      "chip": "ym2612"
    },
    {
      "channel": 0,
      "note": 52,
      "start": 62.5493,
      "duration": 0.0635,
      "velocity": 88,
      "chip": "ym2612"
    },
    {
      "channel": 3,
      "note": 64,
      "start": 62.5522,
      "duration": 0.0941,
      "velocity": 114,
      "chip": "ym2612"
    },
    {
      "channel": 4,
      "note": 34,
      "start": 62.5548,
      "duration": 0.0249,
      "velocity": 114,
      "chip": "ym2612"
    },
    {
      "channel": 2,
      "note": 59,
      "start": 62.558,
      "duration": 0.0551,
      "velocity": 98,
      "chip": "ym2612"
    },
    {
      "channel": 3,
      "note": 34,
      "start": 62.6663,
      "duration": 0.13,
      "velocity": 114,
      "chip": "ym2612"
    },
    {
      "channel": 2,
      "note": 59,
      "start": 62.6693,
      "duration": 0.0271,
      "velocity": 98,
      "chip": "ym2612"
    },
    {
      "channel": 0,
      "note": 52,
      "start": 62.7822,
      "duration": 0.0807,
      "velocity": 88,
      "chip": "ym2612"
    },
    {
      "channel": 2,
      "note": 66,
      "start": 62.7854,
      "duration": 0.061,
      "velocity": 98,
      "chip": "ym2612"
    },
    {
      "channel": 2,
      "note": 59,
      "start": 62.9004,
      "duration": 0.0793,
      "velocity": 98,
      "chip": "ym2612"
    },
    {
      "channel": 1,
      "note": 33,
      "start": 63.0324,
      "duration": 0.1138,
      "velocity": 113,
      "chip": "ym2612"
    },
    {
      "channel": 0,
      "note": 52,
      "start": 63.035,
      "duration": 0.0944,
      "velocity": 88,
      "chip": "ym2612"
    },
    {
      "channel": 3,
      "note": 64,
      "start": 63.0382,
      "duration": 0.0914,
      "velocity": 114,
      "chip": "ym2612"
    },
    {
      "channel": 2,
      "note": 59,
      "start": 63.1499,
      "duration": 0.0798,
      "velocity": 98,
      "chip": "ym2612"
    },
    {
      "channel": 1,
      "note": 40,
      "start": 63.2662,
      "duration": 0.1966,
      "velocity": 113,
      "chip": "ym2612"
    },
    {
      "channel": 0,
      "note": 55,
      "start": 63.2687,
      "duration": 0.2107,
      "velocity": 88,
      "chip": "ym2612"
    },
    {
      "channel": 3,
      "note": 116,
      "start": 63.2716,
      "duration": 0.0246,
      "velocity": 114,
      "chip": "ym2612"
    },
    {
      "channel": 3,
      "note": 116,
      "start": 63.3827,
      "duration": 0.0635,
      "velocity": 114,
      "chip": "ym2612"
    },
    {
      "channel": 2,
      "note": 59,
      "start": 63.3857,
      "duration": 0.0607,
      "velocity": 98,
      "chip": "ym2612"
    },
    {
      "channel": 0,
      "note": 57,
      "start": 63.5157,
      "duration": 0.0971,
      "velocity": 88,
      "chip": "ym2612"
    },
    {
      "channel": 3,
      "note": 116,
      "start": 63.5184,
      "duration": 0.0445,
      "velocity": 114,
      "chip": "ym2612"
    },
    {
      "channel": 4,
      "note": 64,
      "start": 63.5211,
      "duration": 0.0586,
      "velocity": 114,
      "chip": "ym2612"
    },
    {
      "channel": 1,
      "note": 40,
      "start": 63.6324,
      "duration": 0.0471,
      "velocity": 113,
      "chip": "ym2612"
    },
    {
      "channel": 3,
      "note": 116,
      "start": 63.6353,
      "duration": 0.0444,
      "velocity": 114,
      "chip": "ym2612"
    },
    {
      "channel": 2,
      "note": 59,
      "start": 63.6385,
      "duration": 0.0246,
      "velocity": 98,
      "chip": "ym2612"
    },
    {
      "channel": 1,
      "note": 33,
      "start": 63.7492,
      "duration": 0.097,
      "velocity": 113,
      "chip": "ym2612"
    },
    {
      "channel": 0,
      "note": 52,
      "start": 63.7516,
      "duration": 0.0779,
      "velocity": 88,
      "chip": "ym2612"
    },
    {
      "channel": 3,
      "note": 116,
      "start": 63.7545,
      "duration": 0.175,
      "velocity": 114,
      "chip": "ym2612"
    },
    {
      "channel": 2,
      "note": 64,
      "start": 63.7575,
      "duration": 0.0889,
      "velocity": 98,
      "chip": "ym2612"
    },
    {
      "channel": 2,
      "note": 59,
      "start": 63.8667,
      "duration": 0.0797,
      "velocity": 98,
      "chip": "ym2612"
    },
    {
      "channel": 1,
      "note": 33,
      "start": 63.9824,
      "duration": 0.0471,
      "velocity": 113,
      "chip": "ym2612"
    },
    {
      "channel": 0,
      "note": 52,
      "start": 63.9851,
      "duration": 0.061,
      "velocity": 88,
      "chip": "ym2612"
    },
    {
      "channel": 3,
      "note": 64,
      "start": 63.9883,
      "duration": 0.0746,
      "velocity": 114,
      "chip": "ym2612"
    },
    {
      "channel": 1,
      "note": 33,
      "start": 64.1158,
      "duration": 0.0805,
      "velocity": 113,
      "chip": "ym2612"
    },
    {
      "channel": 0,
      "note": 52,
      "start": 64.1188,
      "duration": 0.0773,
      "velocity": 88,
      "chip": "ym2612"
    },
    {
      "channel": 2,
      "note": 59,
      "start": 64.1219,
      "duration": 0.0746,
      "velocity": 98,
      "chip": "ym2612"
    },
    {
      "channel": 1,
      "note": 40,
      "start": 64.2328,
      "duration": 0.1633,
      "velocity": 113,
      "chip": "ym2612"
    },
    {
      "channel": 0,
      "note": 52,
      "start": 64.3491,
      "duration": 0.0803,
      "velocity": 88,
      "chip": "ym2612"
    },
    {
      "channel": 2,
      "note": 59,
      "start": 64.3529,
      "duration": 0.0602,
      "velocity": 98,
      "chip": "ym2612"
    },
    {
      "channel": 0,
      "note": 52,
      "start": 64.4657,
      "duration": 0.0804,
      "velocity": 88,
      "chip": "ym2612"
    },
    {
      "channel": 3,
      "note": 64,
      "start": 64.4683,
      "duration": 0.078,
      "velocity": 114,
      "chip": "ym2612"
    },
    {
      "channel": 0,
      "note": 52,
      "start": 64.7156,
      "duration": 0.0805,
      "velocity": 88,
      "chip": "ym2612"
    },
    {
      "channel": 2,
      "note": 62,
      "start": 64.719,
      "duration": 0.0774,
      "velocity": 98,
      "chip": "ym2612"
    },
    {
      "channel": 0,
      "note": 52,
      "start": 64.9491,
      "duration": 0.1304,
      "velocity": 88,
      "chip": "ym2612"
    },
    {
      "channel": 3,
      "note": 64,
      "start": 64.9516,
      "duration": 0.078,
      "velocity": 114,
      "chip": "ym2612"
    },
    {
      "channel": 2,
      "note": 57,
      "start": 64.9547,
      "duration": 0.0584,
      "velocity": 98,
      "chip": "ym2612"
    },
    {
      "channel": 0,
      "note": 50,
      "start": 65.1988,
      "duration": 0.114,
      "velocity": 88,
      "chip": "ym2612"
    },
    {
      "channel": 2,
      "note": 59,
      "start": 65.2022,
      "duration": 0.0942,
      "velocity": 98,
      "chip": "ym2612"
    },
    {
      "channel": 1,
      "note": 40,
      "start": 65.4324,
      "duration": 0.0471,
      "velocity": 113,
      "chip": "ym2612"
    },
    {
      "channel": 0,
      "note": 47,
      "start": 65.4348,
      "duration": 0.128,
      "velocity": 88,
      "chip": "ym2612"
    },
    {
      "channel": 3,
      "note": 64,
      "start": 65.4373,
      "duration": 0.0756,
      "velocity": 114,
      "chip": "ym2612"
    },
    {
      "channel": 2,
      "note": 66,
      "start": 65.4405,
      "duration": 0.0225,
      "velocity": 98,
      "chip": "ym2612"
    },
    {
      "channel": 1,
      "note": 40,
      "start": 65.5658,
      "duration": 0.0971,
      "velocity": 113,
      "chip": "ym2612"
    },
    {
      "channel": 2,
      "note": 59,
      "start": 65.5694,
      "duration": 0.0938,
      "velocity": 98,
      "chip": "ym2612"
    },
    {
      "channel": 1,
      "note": 33,
      "start": 65.6824,
      "duration": 0.0972,
      "velocity": 113,
      "chip": "ym2612"
    },
    {
      "channel": 0,
      "note": 52,
      "start": 65.6849,
      "duration": 0.0779,
      "velocity": 88,
      "chip": "ym2612"
    },
    {
      "channel": 5,
      "note": 40,
      "start": 65.6881,
      "duration": 0.2249,
      "velocity": 93,
      "chip": "ym2612"
    },
    {
      "channel": 1,
      "note": 33,
      "start": 65.916,
      "duration": 0.0469,
      "velocity": 113,
      "chip": "ym2612"
    },
    {
      "channel": 0,
      "note": 52,
      "start": 65.919,
      "duration": 0.0605,
      "velocity": 88,
      "chip": "ym2612"
    },
    {
      "channel": 3,
      "note": 64,
      "start": 65.9215,
      "duration": 0.0747,
      "velocity": 114,
      "chip": "ym2612"
    },
    {
      "channel": 1,
      "note": 33,
      "start": 66.049,
      "duration": 0.064,
      "velocity": 113,
      "chip": "ym2612"
    },
    {
      "channel": 0,
      "note": 52,
      "start": 66.0516,
      "duration": 0.0612,
      "velocity": 88,
      "chip": "ym2612"
    },
    {
      "channel": 5,
      "note": 40,
      "start": 66.0546,
      "duration": 0.4085,
      "velocity": 93,
      "chip": "ym2612"
    },
    {
      "channel": 1,
      "note": 40,
      "start": 66.1659,
      "duration": 0.1638,
      "velocity": 113,
      "chip": "ym2612"
    },
    {
      "channel": 0,
      "note": 52,
      "start": 66.2826,
      "duration": 0.047,
      "velocity": 88,
      "chip": "ym2612"
    },
    {
      "channel": 0,
      "note": 52,
      "start": 66.3992,
      "duration": 0.0802,
      "velocity": 88,
      "chip": "ym2612"
    },
    {
      "channel": 3,
      "note": 64,
      "start": 66.4021,
      "duration": 0.0941,
      "velocity": 114,
      "chip": "ym2612"
    },
    {
      "channel": 4,
      "note": 34,
      "start": 66.4048,
      "duration": 0.0415,
      "velocity": 114,
      "chip": "ym2612"
    },
    {
      "channel": 3,
      "note": 34,
      "start": 66.5329,
      "duration": 0.13,
      "velocity": 114,
      "chip": "ym2612"
    },
    {
      "channel": 0,
      "note": 52,
      "start": 66.649,
      "duration": 0.0805,
      "velocity": 88,
      "chip": "ym2612"
    },
    {
      "channel": 1,
      "note": 33,
      "start": 66.8829,
      "duration": 0.13,
      "velocity": 113,
      "chip": "ym2612"
    },
    {
      "channel": 0,
      "note": 52,
      "start": 66.8854,
      "duration": 0.0941,
      "velocity": 88,
      "chip": "ym2612"
    },
    {
      "channel": 3,
      "note": 64,
      "start": 66.8885,
      "duration": 0.0912,
      "velocity": 114,
      "chip": "ym2612"
    },
    {
      "channel": 1,
      "note": 40,
      "start": 67.1325,
      "duration": 0.1971,
      "velocity": 113,
      "chip": "ym2612"
    },
    {
      "channel": 0,
      "note": 55,
      "start": 67.135,
      "duration": 0.2111,
      "velocity": 88,
      "chip": "ym2612"
    },
    {
      "channel": 3,
      "note": 116,
      "start": 67.1378,
      "duration": 0.0083,
      "velocity": 114,
      "chip": "ym2612"
    },
    {
      "channel": 3,
      "note": 116,
      "start": 67.2494,
      "duration": 0.0636,
      "velocity": 114,
      "chip": "ym2612"
    },
    {
      "channel": 0,
      "note": 57,
      "start": 67.3661,
      "duration": 0.0967,
      "velocity": 88,
      "chip": "ym2612"
    },
    {
      "channel": 3,
      "note": 116,
      "start": 67.3688,
      "duration": 0.0607,
      "velocity": 114,
      "chip": "ym2612"
    },
    {
      "channel": 4,
      "note": 64,
      "start": 67.3714,
      "duration": 0.0915,
      "velocity": 114,
      "chip": "ym2612"
    },
    {
      "channel": 1,
      "note": 40,
      "start": 67.4992,
      "duration": 0.0969,
      "velocity": 113,
      "chip": "ym2612"
    },
    {
      "channel": 3,
      "note": 116,
      "start": 67.502,
      "duration": 0.0276,
      "velocity": 114,
      "chip": "ym2612"
    },
    {
      "channel": 1,
      "note": 33,
      "start": 67.6158,
      "duration": 0.1138,
      "velocity": 113,
      "chip": "ym2612"
    },
    {
      "channel": 0,
      "note": 52,
      "start": 67.6183,
      "duration": 0.0778,
      "velocity": 88,
      "chip": "ym2612"
    },
    {
      "channel": 3,
      "note": 116,
      "start": 67.6215,
      "duration": 0.0914,
      "velocity": 114,
      "chip": "ym2612"
    },
    {
      "channel": 1,
      "note": 33,
      "start": 67.8491,
      "duration": 0.0304,
      "velocity": 113,
      "chip": "ym2612"
    },
    {
      "channel": 0,
      "note": 52,
      "start": 67.8518,
      "duration": 0.0611,
      "velocity": 88,
      "chip": "ym2612"
    },
    {
      "channel": 3,
      "note": 64,
      "start": 67.8544,
      "duration": 0.0918,
      "velocity": 114,
      "chip": "ym2612"
    },
    {
      "channel": 1,
      "note": 33,
      "start": 67.9827,
      "duration": 0.0968,
      "velocity": 113,
      "chip": "ym2612"
    },
    {
      "channel": 0,
      "note": 52,
      "start": 67.9854,
      "duration": 0.0607,
      "velocity": 88,
      "chip": "ym2612"
    },
    {
      "channel": 1,
      "note": 40,
      "start": 68.0992,
      "duration": 0.2636,
      "velocity": 113,
      "chip": "ym2612"
    },
    {
      "channel": 0,
      "note": 52,
      "start": 68.2158,
      "duration": 0.0803,
      "velocity": 88,
      "chip": "ym2612"
    },
    {
      "channel": 0,
      "note": 52,
      "start": 68.3325,
      "duration": 0.0803,
      "velocity": 88,
      "chip": "ym2612"
    },
    {
      "channel": 3,
      "note": 64,
      "start": 68.335,
      "duration": 0.0945,
      "velocity": 114,
      "chip": "ym2612"
    },
    {
      "channel": 0,
      "note": 52,
      "start": 68.5822,
      "duration": 0.0806,
      "velocity": 88,
      "chip": "ym2612"
    },
    {
      "channel": 0,
      "note": 52,
      "start": 68.8158,
      "duration": 0.1304,
      "velocity": 88,
      "chip": "ym2612"
    },
    {
      "channel": 3,
      "note": 64,
      "start": 68.8184,
      "duration": 0.0777,
      "velocity": 114,
      "chip": "ym2612"
    },
    {
      "channel": 0,
      "note": 50,
      "start": 69.0659,
      "duration": 0.1135,
      "velocity": 88,
      "chip": "ym2612"
    },
    {
      "channel": 1,
      "note": 40,
      "start": 69.2992,
      "duration": 0.0137,
      "velocity": 113,
      "chip": "ym2612"
    },
    {
      "channel": 0,
      "note": 47,
      "start": 69.3015,
      "duration": 0.128,
      "velocity": 88,
      "chip": "ym2612"
    },
    {
      "channel": 3,
      "note": 64,
      "start": 69.3041,
      "duration": 0.0754,
      "velocity": 114,
      "chip": "ym2612"
    },
    {
      "channel": 1,
      "note": 40,
      "start": 69.4324,
      "duration": 0.0971,
      "velocity": 113,
      "chip": "ym2612"
    },
    {
      "channel": 1,
      "note": 33,
      "start": 69.5492,
      "duration": 0.0803,
      "velocity": 113,
      "chip": "ym2612"
    },
    {
      "channel": 0,
      "note": 52,
      "start": 69.5529,
      "duration": 0.0765,
      "velocity": 88,
      "chip": "ym2612"
    },
    {
      "channel": 2,
      "note": 64,
      "start": 69.5567,
      "duration": 0.023,
      "velocity": 98,
      "chip": "ym2612"
    },
    {
      "channel": 5,
      "note": 67,
      "start": 69.5596,
      "duration": 0.005,
      "velocity": 98,
      "chip": "ym2612"
    },
    {
      "channel": 4,
      "note": 71,
      "start": 69.5627,
      "duration": 0.0018,
      "velocity": 98,
      "chip": "ym2612"
    },
    {
      "channel": 4,
      "note": 71,
      "start": 69.6667,
      "duration": 0.0796,
      "velocity": 98,
      "chip": "ym2612"
    },
    {
      "channel": 5,
      "note": 64,
      "start": 69.6693,
      "duration": 0.0771,
      "velocity": 98,
      "chip": "ym2612"
    },
    {
      "channel": 2,
      "note": 67,
      "start": 69.6724,
      "duration": 0.0573,
      "velocity": 98,
      "chip": "ym2612"
    },
    {
      "channel": 1,
      "note": 33,
      "start": 69.7825,
      "duration": 0.0637,
      "velocity": 113,
      "chip": "ym2612"
    },
    {
      "channel": 0,
      "note": 52,
      "start": 69.7852,
      "duration": 0.0609,
      "velocity": 88,
      "chip": "ym2612"
    },
    {
      "channel": 3,
      "note": 64,
      "start": 69.7878,
      "duration": 0.0917,
      "velocity": 114,
      "chip": "ym2612"
    },
    {
      "channel": 1,
      "note": 33,
      "start": 69.9161,
      "duration": 0.0968,
      "velocity": 113,
      "chip": "ym2612"
    },
    {
      "channel": 0,
      "note": 52,
      "start": 69.9187,
      "duration": 0.0607,
      "velocity": 88,
      "chip": "ym2612"
    },
    {
      "channel": 4,
      "note": 67,
      "start": 69.9223,
      "duration": 0.0239,
      "velocity": 98,
      "chip": "ym2612"
    },
    {
      "channel": 5,
      "note": 64,
      "start": 69.9251,
      "duration": 0.0378,
      "velocity": 98,
      "chip": "ym2612"
    },
    {
      "channel": 2,
      "note": 71,
      "start": 69.9282,
      "duration": 0.0183,
      "velocity": 98,
      "chip": "ym2612"
    },
    {
      "channel": 1,
      "note": 40,
      "start": 70.0326,
      "duration": 0.2302,
      "velocity": 113,
      "chip": "ym2612"
    },
    {
      "channel": 0,
      "note": 52,
      "start": 70.1492,
      "duration": 0.0302,
      "velocity": 88,
      "chip": "ym2612"
    },
    {
      "channel": 4,
      "note": 67,
      "start": 70.1525,
      "duration": 0.0604,
      "velocity": 98,
      "chip": "ym2612"
    },
    {
      "channel": 5,
      "note": 64,
      "start": 70.1551,
      "duration": 0.0579,
      "velocity": 98,
      "chip": "ym2612"
    },
    {
      "channel": 2,
      "note": 71,
      "start": 70.1582,
      "duration": 0.0216,
      "velocity": 98,
      "chip": "ym2612"
    },
    {
      "channel": 0,
      "note": 52,
      "start": 70.2663,
      "duration": 0.0799,
      "velocity": 88,
      "chip": "ym2612"
    },
    {
      "channel": 3,
      "note": 64,
      "start": 70.269,
      "duration": 0.094,
      "velocity": 114,
      "chip": "ym2612"
    },
    {
      "channel": 2,
      "note": 34,
      "start": 70.2719,
      "duration": 0.0578,
      "velocity": 114,
      "chip": "ym2612"
    },
    {
      "channel": 3,
      "note": 34,
      "start": 70.3832,
      "duration": 0.1464,
      "velocity": 114,
      "chip": "ym2612"
    },
    {
      "channel": 4,
      "note": 72,
      "start": 70.3863,
      "duration": 0.2768,
      "velocity": 98,
      "chip": "ym2612"
    },
    {
      "channel": 5,
      "note": 64,
      "start": 70.3894,
      "duration": 0.2569,
      "velocity": 98,
      "chip": "ym2612"
    },
    {
      "channel": 1,
      "note": 67,
      "start": 70.3923,
      "duration": 0.2538,
      "velocity": 98,
      "chip": "ym2612"
    },
    {
      "channel": 0,
      "note": 52,
      "start": 70.5156,
      "duration": 0.0805,
      "velocity": 88,
      "chip": "ym2612"
    },
    {
      "channel": 2,
      "note": 33,
      "start": 70.7495,
      "duration": 0.1635,
      "velocity": 113,
      "chip": "ym2612"
    },
    {
      "channel": 0,
      "note": 52,
      "start": 70.752,
      "duration": 0.0942,
      "velocity": 88,
      "chip": "ym2612"
    },
    {
      "channel": 3,
      "note": 64,
      "start": 70.7548,
      "duration": 0.0747,
      "velocity": 114,
      "chip": "ym2612"
    },
    {
      "channel": 1,
      "note": 64,
      "start": 70.7578,
      "duration": 0.055,
      "velocity": 98,
      "chip": "ym2612"
    },
    {
      "channel": 4,
      "note": 67,
      "start": 70.7604,
      "duration": 0.0526,
      "velocity": 98,
      "chip": "ym2612"
    },
    {
      "channel": 5,
      "note": 71,
      "start": 70.7634,
      "duration": 0.0497,
      "velocity": 98,
      "chip": "ym2612"
    },
    {
      "channel": 2,
      "note": 40,
      "start": 70.9995,
      "duration": 0.1136,
      "velocity": 113,
      "chip": "ym2612"
    },
    {
      "channel": 0,
      "note": 55,
      "start": 71.002,
      "duration": 0.2108,
      "velocity": 88,
      "chip": "ym2612"
    },
    {
      "channel": 3,
      "note": 116,
      "start": 71.0048,
      "duration": 0.0108,
      "velocity": 114,
      "chip": "ym2612"
    },
    {
      "channel": 1,
      "note": 71,
      "start": 71.0076,
      "duration": 0.0386,
      "velocity": 98,
      "chip": "ym2612"
    },
    {
      "channel": 4,
      "note": 64,
      "start": 71.0104,
      "duration": 0.1693,
      "velocity": 98,
      "chip": "ym2612"
    },
    {
      "channel": 5,
      "note": 67,
      "start": 71.0139,
      "duration": 0.0158,
      "velocity": 98,
      "chip": "ym2612"
    },
    {
      "channel": 3,
      "note": 116,
      "start": 71.1161,
      "duration": 0.0634,
      "velocity": 114,
      "chip": "ym2612"
    },
    {
      "channel": 0,
      "note": 57,
      "start": 71.2324,
      "duration": 0.0971,
      "velocity": 88,
      "chip": "ym2612"
    },
    {
      "channel": 3,
      "note": 116,
      "start": 71.2352,
      "duration": 0.0611,
      "velocity": 114,
      "chip": "ym2612"
    },
    {
      "channel": 5,
      "note": 64,
      "start": 71.2378,
      "duration": 0.0587,
      "velocity": 114,
      "chip": "ym2612"
    },
    {
      "channel": 2,
      "note": 40,
      "start": 71.3494,
      "duration": 0.0802,
      "velocity": 113,
      "chip": "ym2612"
    },
    {
      "channel": 3,
      "note": 116,
      "start": 71.3523,
      "duration": 0.0439,
      "velocity": 114,
      "chip": "ym2612"
    },
    {
      "channel": 2,
      "note": 33,
      "start": 71.4828,
      "duration": 0.1136,
      "velocity": 113,
      "chip": "ym2612"
    },
    {
      "channel": 0,
      "note": 52,
      "start": 71.4853,
      "duration": 0.0776,
      "velocity": 88,
      "chip": "ym2612"
    },
    {
      "channel": 3,
      "note": 116,
      "start": 71.4885,
      "duration": 0.0912,
      "velocity": 114,
      "chip": "ym2612"
    },
    {
      "channel": 1,
      "note": 71,
      "start": 71.4915,
      "duration": 0.038,
      "velocity": 98,
      "chip": "ym2612"
    },
    {
      "channel": 4,
      "note": 66,
      "start": 71.4942,
      "duration": 0.0188,
      "velocity": 98,
      "chip": "ym2612"
    },
    {
      "channel": 5,
      "note": 63,
      "start": 71.4973,
      "duration": 0.0158,
      "velocity": 98,
      "chip": "ym2612"
    },
    {
      "channel": 1,
      "note": 66,
      "start": 71.6,
      "duration": 0.0629,
      "velocity": 98,
      "chip": "ym2612"
    },
    {
      "channel": 4,
      "note": 63,
      "start": 71.6027,
      "duration": 0.0604,
      "velocity": 98,
      "chip": "ym2612"
    },
    {
      "channel": 5,
      "note": 71,
      "start": 71.6056,
      "duration": 0.0241,
      "velocity": 98,
      "chip": "ym2612"
    },
    {
      "channel": 2,
      "note": 33,
      "start": 71.7165,
      "duration": 0.0634,
      "velocity": 113,
      "chip": "ym2612"
    },
    {
      "channel": 0,
      "note": 52,
      "start": 71.7191,
      "duration": 0.0604,
      "velocity": 88,
      "chip": "ym2612"
    },
    {
      "channel": 3,
      "note": 64,
      "start": 71.7219,
      "duration": 0.0743,
      "velocity": 114,
      "chip": "ym2612"
    },
    {
      "channel": 2,
      "note": 33,
      "start": 71.8326,
      "duration": 0.0806,
      "velocity": 113,
      "chip": "ym2612"
    },
    {
      "channel": 0,
      "note": 52,
      "start": 71.8352,
      "duration": 0.0776,
      "velocity": 88,
      "chip": "ym2612"
    },
    {
      "channel": 1,
      "note": 66,
      "start": 71.8387,
      "duration": 0.0742,
      "velocity": 98,
      "chip": "ym2612"
    },
    {
      "channel": 4,
      "note": 71,
      "start": 71.8415,
      "duration": 0.0548,
      "velocity": 98,
      "chip": "ym2612"
    },
    {
      "channel": 5,
      "note": 63,
      "start": 71.8443,
      "duration": 0.0521,
      "velocity": 98,
      "chip": "ym2612"
    },
    {
      "channel": 2,
      "note": 40,
      "start": 71.9661,
      "duration": 0.2969,
      "velocity": 113,
      "chip": "ym2612"
    },
    {
      "channel": 0,
      "note": 52,
      "start": 72.0827,
      "duration": 0.0801,
      "velocity": 88,
      "chip": "ym2612"
    },
    {
      "channel": 1,
      "note": 63,
      "start": 72.0858,
      "duration": 0.0604,
      "velocity": 98,
      "chip": "ym2612"
    },
    {
      "channel": 4,
      "note": 66,
      "start": 72.0884,
      "duration": 0.058,
      "velocity": 98,
      "chip": "ym2612"
    },
    {
      "channel": 5,
      "note": 71,
      "start": 72.0913,
      "duration": 0.0216,
      "velocity": 98,
      "chip": "ym2612"
    },
    {
      "channel": 0,
      "note": 52,
      "start": 72.199,
      "duration": 0.0805,
      "velocity": 88,
      "chip": "ym2612"
    },
    {
      "channel": 3,
      "note": 64,
      "start": 72.2016,
      "duration": 0.0781,
      "velocity": 114,
      "chip": "ym2612"
    },
    {
      "channel": 1,
      "note": 71,
      "start": 72.3166,
      "duration": 0.1296,
      "velocity": 98,
      "chip": "ym2612"
    },
    {
      "channel": 4,
      "note": 63,
      "start": 72.3197,
      "duration": 0.0765,
      "velocity": 98,
      "chip": "ym2612"
    },
    {
      "channel": 5,
      "note": 66,
      "start": 72.3227,
      "duration": 0.0903,
      "velocity": 98,
      "chip": "ym2612"
    },
    {
      "channel": 0,
      "note": 52,
      "start": 72.449,
      "duration": 0.0638,
      "velocity": 88,
      "chip": "ym2612"
    },
    {
      "channel": 2,
      "note": 33,
      "start": 72.6827,
      "duration": 0.1137,
      "velocity": 113,
      "chip": "ym2612"
    },
    {
      "channel": 0,
      "note": 52,
      "start": 72.6852,
      "duration": 0.1109,
      "velocity": 88,
      "chip": "ym2612"
    },
    {
      "channel": 3,
      "note": 64,
      "start": 72.6879,
      "duration": 0.0749,
      "velocity": 114,
      "chip": "ym2612"
    },
    {
      "channel": 4,
      "note": 116,
      "start": 72.6907,
      "duration": 0.0389,
      "velocity": 114,
      "chip": "ym2612"
    },
    {
      "channel": 3,
      "note": 116,
      "start": 72.7997,
      "duration": 0.0799,
      "velocity": 114,
      "chip": "ym2612"
    },
    {
      "channel": 2,
      "note": 40,
      "start": 72.9327,
      "duration": 0.1303,
      "velocity": 113,
      "chip": "ym2612"
    },
    {
      "channel": 0,
      "note": 50,
      "start": 72.935,
      "duration": 0.1111,
      "velocity": 88,
      "chip": "ym2612"
    },
    {
      "channel": 0,
      "note": 47,
      "start": 73.1656,
      "duration": 0.1139,
      "velocity": 88,
      "chip": "ym2612"
    },
    {
      "channel": 3,
      "note": 116,
      "start": 73.1688,
      "duration": 0.044,
      "velocity": 114,
      "chip": "ym2612"
    },
    {
      "channel": 4,
      "note": 64,
      "start": 73.1715,
      "duration": 0.0914,
      "velocity": 114,
      "chip": "ym2612"
    },
    {
      "channel": 3,
      "note": 116,
      "start": 73.283,
      "duration": 0.0799,
      "velocity": 114,
      "chip": "ym2612"
    },
    {
      "channel": 2,
      "note": 33,
      "start": 73.4164,
      "duration": 0.0634,
      "velocity": 113,
      "chip": "ym2612"
    },
    {
      "channel": 0,
      "note": 52,
      "start": 73.4189,
      "duration": 0.0605,
      "velocity": 88,
      "chip": "ym2612"
    },
    {
      "channel": 1,
      "note": 71,
      "start": 73.4221,
      "duration": 0.0407,
      "velocity": 98,
      "chip": "ym2612"
    },
    {
      "channel": 5,
      "note": 67,
      "start": 73.4249,
      "duration": 0.0051,
      "velocity": 98,
      "chip": "ym2612"
    },
    {
      "channel": 4,
      "note": 64,
      "start": 73.4279,
      "duration": 0.0184,
      "velocity": 98,
      "chip": "ym2612"
    },
    {
      "channel": 1,
      "note": 67,
      "start": 73.5332,
      "duration": 0.0463,
      "velocity": 98,
      "chip": "ym2612"
    },
    {
      "channel": 4,
      "note": 64,
      "start": 73.5363,
      "duration": 0.0767,
      "velocity": 98,
      "chip": "ym2612"
    },
    {
      "channel": 5,
      "note": 71,
      "start": 73.5393,
      "duration": 0.0237,
      "velocity": 98,
      "chip": "ym2612"
    },
    {
      "channel": 2,
      "note": 33,
      "start": 73.6494,
      "duration": 0.0136,
      "velocity": 113,
      "chip": "ym2612"
    },
    {
      "channel": 0,
      "note": 52,
      "start": 73.652,
      "duration": 0.0607,
      "velocity": 88,
      "chip": "ym2612"
    },
    {
      "channel": 3,
      "note": 64,
      "start": 73.6548,
      "duration": 0.0748,
      "velocity": 114,
      "chip": "ym2612"
    },
    {
      "channel": 2,
      "note": 33,
      "start": 73.7659,
      "duration": 0.0971,
      "velocity": 113,
      "chip": "ym2612"
    },
    {
      "channel": 0,
      "note": 52,
      "start": 73.7689,
      "duration": 0.0772,
      "velocity": 88,
      "chip": "ym2612"
    },
    {
      "channel": 1,
      "note": 67,
      "start": 73.7719,
      "duration": 0.041,
      "velocity": 98,
      "chip": "ym2612"
    },
    {
      "channel": 4,
      "note": 64,
      "start": 73.7747,
      "duration": 0.0549,
      "velocity": 98,
      "chip": "ym2612"
    },
    {
      "channel": 5,
      "note": 71,
      "start": 73.7776,
      "duration": 0.0354,
      "velocity": 98,
      "chip": "ym2612"
    },
    {
      "channel": 2,
      "note": 40,
      "start": 73.8994,
      "duration": 0.247,
      "velocity": 113,
      "chip": "ym2612"
    },
    {
      "channel": 0,
      "note": 52,
      "start": 74.0159,
      "duration": 0.0303,
      "velocity": 88,
      "chip": "ym2612"
    },
    {
      "channel": 1,
      "note": 64,
      "start": 74.0191,
      "duration": 0.0438,
      "velocity": 98,
      "chip": "ym2612"
    },
    {
      "channel": 4,
      "note": 67,
      "start": 74.0217,
      "duration": 0.0414,
      "velocity": 98,
      "chip": "ym2612"
    },
    {
      "channel": 5,
      "note": 71,
      "start": 74.0251,
      "duration": 0.0214,
      "velocity": 98,
      "chip": "ym2612"
    },
    {
      "channel": 0,
      "note": 52,
      "start": 74.1326,
      "duration": 0.0802,
      "velocity": 88,
      "chip": "ym2612"
    },
    {
      "channel": 3,
      "note": 64,
      "start": 74.1353,
      "duration": 0.0776,
      "velocity": 114,
      "chip": "ym2612"
    },
    {
      "channel": 5,
      "note": 34,
      "start": 74.1381,
      "duration": 0.0415,
      "velocity": 114,
      "chip": "ym2612"
    },
    {
      "channel": 3,
      "note": 34,
      "start": 74.2499,
      "duration": 0.1297,
      "velocity": 114,
      "chip": "ym2612"
    },
    {
      "channel": 1,
      "note": 64,
      "start": 74.2529,
      "duration": 0.2433,
      "velocity": 98,
      "chip": "ym2612"
    },
    {
      "channel": 4,
      "note": 72,
      "start": 74.2556,
      "duration": 0.2573,
      "velocity": 98,
      "chip": "ym2612"
    },
    {
      "channel": 2,
      "note": 67,
      "start": 74.2587,
      "duration": 0.2377,
      "velocity": 98,
      "chip": "ym2612"
    },
    {
      "channel": 0,
      "note": 52,
      "start": 74.3824,
      "duration": 0.0637,
      "velocity": 88,
      "chip": "ym2612"
    },
    {
      "channel": 5,
      "note": 33,
      "start": 74.6161,
      "duration": 0.0163,
      "velocity": 113,
      "chip": "ym2612"
    },
    {
      "channel": 0,
      "note": 52,
      "start": 74.6186,
      "duration": 0.0943,
      "velocity": 88,
      "chip": "ym2612"
    },
    {
      "channel": 3,
      "note": 64,
      "start": 74.6214,
      "duration": 0.0748,
      "velocity": 114,
      "chip": "ym2612"
    },
    {
      "channel": 1,
      "note": 64,
      "start": 74.6244,
      "duration": 0.0717,
      "velocity": 98,
      "chip": "ym2612"
    },
    {
      "channel": 4,
      "note": 67,
      "start": 74.6271,
      "duration": 0.0524,
      "velocity": 98,
      "chip": "ym2612"
    },
    {
      "channel": 2,
      "note": 71,
      "start": 74.6306,
      "duration": 0.0492,
      "velocity": 98,
      "chip": "ym2612"
    },
    {
      "channel": 5,
      "note": 33,
      "start": 74.7324,
      "duration": 0.0972,
      "velocity": 113,
      "chip": "ym2612"
    },
    {
      "channel": 5,
      "note": 40,
      "start": 74.8664,
      "duration": 0.1132,
      "velocity": 113,
      "chip": "ym2612"
    },
    {
      "channel": 0,
      "note": 55,
      "start": 74.8689,
      "duration": 0.2105,
      "velocity": 88,
      "chip": "ym2612"
    },
    {
      "channel": 3,
      "note": 116,
      "start": 74.8717,
      "duration": 0.0105,
      "velocity": 114,
      "chip": "ym2612"
    },
    {
      "channel": 1,
      "note": 64,
      "start": 74.8747,
      "duration": 0.2215,
      "velocity": 98,
      "chip": "ym2612"
    },
    {
      "channel": 4,
      "note": 67,
      "start": 74.8774,
      "duration": 0.0523,
      "velocity": 98,
      "chip": "ym2612"
    },
    {
      "channel": 2,
      "note": 71,
      "start": 74.8805,
      "duration": 0.0493,
      "velocity": 98,
      "chip": "ym2612"
    },
    {
      "channel": 3,
      "note": 116,
      "start": 74.9828,
      "duration": 0.0467,
      "velocity": 114,
      "chip": "ym2612"
    },
    {
      "channel": 0,
      "note": 57,
      "start": 75.0992,
      "duration": 0.097,
      "velocity": 88,
      "chip": "ym2612"
    },
    {
      "channel": 3,
      "note": 116,
      "start": 75.1018,
      "duration": 0.061,
      "velocity": 114,
      "chip": "ym2612"
    },
    {
      "channel": 4,
      "note": 64,
      "start": 75.1046,
      "duration": 0.075,
      "velocity": 114,
      "chip": "ym2612"
    },
    {
      "channel": 5,
      "note": 40,
      "start": 75.2159,
      "duration": 0.1304,
      "velocity": 113,
      "chip": "ym2612"
    },
    {
      "channel": 3,
      "note": 116,
      "start": 75.2191,
      "duration": 0.0438,
      "velocity": 114,
      "chip": "ym2612"
    },
    {
      "channel": 5,
      "note": 33,
      "start": 75.3493,
      "duration": 0.097,
      "velocity": 113,
      "chip": "ym2612"
    },
    {
      "channel": 0,
      "note": 52,
      "start": 75.3519,
      "duration": 0.0609,
      "velocity": 88,
      "chip": "ym2612"
    },
    {
      "channel": 3,
      "note": 116,
      "start": 75.3548,
      "duration": 0.0914,
      "velocity": 114,
      "chip": "ym2612"
    },
    {
      "channel": 1,
      "note": 71,
      "start": 75.3577,
      "duration": 0.0218,
      "velocity": 98,
      "chip": "ym2612"
    },
    {
      "channel": 2,
      "note": 66,
      "start": 75.3604,
      "duration": 0.0195,
      "velocity": 98,
      "chip": "ym2612"
    },
    {
      "channel": 4,
      "note": 63,
      "start": 75.3637,
      "duration": 0.0018,
      "velocity": 98,
      "chip": "ym2612"
    },
    {
      "channel": 1,
      "note": 66,
      "start": 75.467,
      "duration": 0.0791,
      "velocity": 98,
      "chip": "ym2612"
    },
    {
      "channel": 4,
      "note": 71,
      "start": 75.4696,
      "duration": 0.0767,
      "velocity": 98,
      "chip": "ym2612"
    },
    {
      "channel": 2,
      "note": 63,
      "start": 75.4726,
      "duration": 0.0405,
      "velocity": 98,
      "chip": "ym2612"
    },
    {
      "channel": 5,
      "note": 33,
      "start": 75.5827,
      "duration": 0.0137,
      "velocity": 113,
      "chip": "ym2612"
    },
    {
      "channel": 0,
      "note": 52,
      "start": 75.5857,
      "duration": 0.0605,
      "velocity": 88,
      "chip": "ym2612"
    },
    {
      "channel": 3,
      "note": 64,
      "start": 75.5885,
      "duration": 0.0743,
      "velocity": 114,
      "chip": "ym2612"
    },
    {
      "channel": 5,
      "note": 33,
      "start": 75.6992,
      "duration": 0.0805,
      "velocity": 113,
      "chip": "ym2612"
    },
    {
      "channel": 0,
      "note": 52,
      "start": 75.7018,
      "duration": 0.0776,
      "velocity": 88,
      "chip": "ym2612"
    },
    {
      "channel": 1,
      "note": 71,
      "start": 75.7048,
      "duration": 0.0581,
      "velocity": 98,
      "chip": "ym2612"
    },
    {
      "channel": 4,
      "note": 66,
      "start": 75.7076,
      "duration": 0.0887,
      "velocity": 98,
      "chip": "ym2612"
    },
    {
      "channel": 2,
      "note": 63,
      "start": 75.7106,
      "duration": 0.0692,
      "velocity": 98,
      "chip": "ym2612"
    },
    {
      "channel": 5,
      "note": 40,
      "start": 75.8327,
      "duration": 0.297,
      "velocity": 113,
      "chip": "ym2612"
    },
    {
      "channel": 0,
      "note": 52,
      "start": 75.9491,
      "duration": 0.0804,
      "velocity": 88,
      "chip": "ym2612"
    },
    {
      "channel": 1,
      "note": 66,
      "start": 75.9523,
      "duration": 0.0938,
      "velocity": 98,
      "chip": "ym2612"
    },
    {
      "channel": 4,
      "note": 63,
      "start": 75.9554,
      "duration": 0.041,
      "velocity": 98,
      "chip": "ym2612"
    },
    {
      "channel": 2,
      "note": 69,
      "start": 75.9583,
      "duration": 0.0383,
      "velocity": 98,
      "chip": "ym2612"
    },
    {
      "channel": 0,
      "note": 52,
      "start": 76.0657,
      "duration": 0.0805,
      "velocity": 88,
      "chip": "ym2612"
    },
    {
      "channel": 3,
      "note": 64,
      "start": 76.0683,
      "duration": 0.078,
      "velocity": 114,
      "chip": "ym2612"
    },
    {
      "channel": 1,
      "note": 67,
      "start": 76.1833,
      "duration": 0.1296,
      "velocity": 98,
      "chip": "ym2612"
    },
    {
      "channel": 4,
      "note": 64,
      "start": 76.1862,
      "duration": 0.1434,
      "velocity": 98,
      "chip": "ym2612"
    },
    {
      "channel": 0,
      "note": 52,
      "start": 76.3157,
      "duration": 0.0637,
      "velocity": 88,
      "chip": "ym2612"
    },
    {
      "channel": 5,
      "note": 33,
      "start": 76.5497,
      "duration": 0.1134,
      "velocity": 113,
      "chip": "ym2612"
    },
    {
      "channel": 0,
      "note": 52,
      "start": 76.5522,
      "duration": 0.1106,
      "velocity": 88,
      "chip": "ym2612"
    },
    {
      "channel": 3,
      "note": 64,
      "start": 76.5549,
      "duration": 0.058,
      "velocity": 114,
      "chip": "ym2612"
    },
    {
      "channel": 2,
      "note": 59,
      "start": 76.5581,
      "duration": 0.055,
      "velocity": 101,
      "chip": "ym2612"
    },
    {
      "channel": 2,
      "note": 59,
      "start": 76.667,
      "duration": 0.0794,
      "velocity": 101,
      "chip": "ym2612"
    },
    {
      "channel": 5,
      "note": 40,
      "start": 76.7825,
      "duration": 0.2305,
      "velocity": 113,
      "chip": "ym2612"
    },
    {
      "channel": 0,
      "note": 50,
      "start": 76.7849,
      "duration": 0.1279,
      "velocity": 88,
      "chip": "ym2612"
    },
    {
      "channel": 2,
      "note": 59,
      "start": 76.7881,
      "duration": 0.0749,
      "velocity": 101,
      "chip": "ym2612"
    },
    {
      "channel": 2,
      "note": 59,
      "start": 76.9172,
      "duration": 0.0459,
      "velocity": 101,
      "chip": "ym2612"
    },
    {
      "channel": 5,
      "note": 33,
      "start": 77.0327,
      "duration": 0.0637,
      "velocity": 113,
      "chip": "ym2612"
    },
    {
      "channel": 0,
      "note": 47,
      "start": 77.035,
      "duration": 0.1111,
      "velocity": 88,
      "chip": "ym2612"
    },
    {
      "channel": 3,
      "note": 64,
      "start": 77.0377,
      "duration": 0.0585,
      "velocity": 114,
      "chip": "ym2612"
    },
    {
      "channel": 1,
      "note": 34,
      "start": 77.0403,
      "duration": 0.0226,
      "velocity": 114,
      "chip": "ym2612"
    },
    {
      "channel": 4,
      "note": 116,
      "start": 77.0435,
      "duration": 0.0052,
      "velocity": 114,
      "chip": "ym2612"
    },
    {
      "channel": 2,
      "note": 59,
      "start": 77.047,
      "duration": 0.0994,
      "velocity": 101,
      "chip": "ym2612"
    },
    {
      "channel": 5,
      "note": 40,
      "start": 77.1493,
      "duration": 0.1136,
      "velocity": 113,
      "chip": "ym2612"
    },
    {
      "channel": 1,
      "note": 116,
      "start": 77.1523,
      "duration": 0.0606,
      "velocity": 114,
      "chip": "ym2612"
    },
    {
      "channel": 3,
      "note": 34,
      "start": 77.1549,
      "duration": 0.0914,
      "velocity": 114,
      "chip": "ym2612"
    },
    {
      "channel": 5,
      "note": 33,
      "start": 77.2671,
      "duration": 0.0626,
      "velocity": 113,
      "chip": "ym2612"
    },
    {
      "channel": 0,
      "note": 52,
      "start": 77.27,
      "duration": 0.0147,
      "velocity": 88,
      "chip": "ym2612"
    },
    {
      "channel": 4,
      "note": 40,
      "start": 77.273,
      "duration": 0.5066,
      "velocity": 93,
      "chip": "ym2612"
    },
    {
      "channel": 2,
      "note": 71,
      "start": 77.2774,
      "duration": 0.0357,
      "velocity": 98,
      "chip": "ym2612"
    },
    {
      "channel": 1,
      "note": 67,
      "start": 77.2804,
      "duration": 0.0324,
      "velocity": 98,
      "chip": "ym2612"
    },
    {
      "channel": 3,
      "note": 64,
      "start": 77.2838,
      "duration": 0.0457,
      "velocity": 98,
      "chip": "ym2612"
    },
    {
      "channel": 0,
      "note": 64,
      "start": 77.2869,
      "duration": 0.0592,
      "velocity": 101,
      "chip": "ym2612"
    },
    {
      "channel": 1,
      "note": 64,
      "start": 77.3999,
      "duration": 0.0796,
      "velocity": 98,
      "chip": "ym2612"
    },
    {
      "channel": 3,
      "note": 71,
      "start": 77.4026,
      "duration": 0.0436,
      "velocity": 98,
      "chip": "ym2612"
    },
    {
      "channel": 2,
      "note": 67,
      "start": 77.4056,
      "duration": 0.0241,
      "velocity": 98,
      "chip": "ym2612"
    },
    {
      "channel": 5,
      "note": 33,
      "start": 77.516,
      "duration": 0.0303,
      "velocity": 113,
      "chip": "ym2612"
    },
    {
      "channel": 0,
      "note": 52,
      "start": 77.5189,
      "duration": 0.0605,
      "velocity": 88,
      "chip": "ym2612"
    },
    {
      "channel": 2,
      "note": 64,
      "start": 77.522,
      "duration": 0.0744,
      "velocity": 114,
      "chip": "ym2612"
    },
    {
      "channel": 3,
      "note": 59,
      "start": 77.5252,
      "duration": 0.0044,
      "velocity": 101,
      "chip": "ym2612"
    },
    {
      "channel": 5,
      "note": 33,
      "start": 77.6325,
      "duration": 0.0639,
      "velocity": 113,
      "chip": "ym2612"
    },
    {
      "channel": 0,
      "note": 52,
      "start": 77.6351,
      "duration": 0.01,
      "velocity": 88,
      "chip": "ym2612"
    },
    {
      "channel": 1,
      "note": 64,
      "start": 77.6383,
      "duration": 0.0578,
      "velocity": 98,
      "chip": "ym2612"
    },
    {
      "channel": 3,
      "note": 67,
      "start": 77.6412,
      "duration": 0.0385,
      "velocity": 98,
      "chip": "ym2612"
    },
    {
      "channel": 2,
      "note": 71,
      "start": 77.6441,
      "duration": 0.0358,
      "velocity": 98,
      "chip": "ym2612"
    },
    {
      "channel": 0,
      "note": 64,
      "start": 77.6475,
      "duration": 0.0654,
      "velocity": 101,
      "chip": "ym2612"
    },
    {
      "channel": 5,
      "note": 40,
      "start": 77.7493,
      "duration": 0.147,
      "velocity": 113,
      "chip": "ym2612"
    },
    {
      "channel": 3,
      "note": 52,
      "start": 77.8829,
      "duration": 0.0302,
      "velocity": 88,
      "chip": "ym2612"
    },
    {
      "channel": 1,
      "note": 64,
      "start": 77.8864,
      "duration": 0.043,
      "velocity": 98,
      "chip": "ym2612"
    },
    {
      "channel": 2,
      "note": 67,
      "start": 77.8893,
      "duration": 0.0239,
      "velocity": 98,
      "chip": "ym2612"
    },
    {
      "channel": 0,
      "note": 71,
      "start": 77.8922,
      "duration": 0.0207,
      "velocity": 98,
      "chip": "ym2612"
    },
    {
      "channel": 3,
      "note": 52,
      "start": 77.9993,
      "duration": 0.0803,
      "velocity": 88,
      "chip": "ym2612"
    },
    {
      "channel": 4,
      "note": 64,
      "start": 78.0023,
      "duration": 0.0941,
      "velocity": 114,
      "chip": "ym2612"
    },
    {
      "channel": 5,
      "note": 34,
      "start": 78.0051,
      "duration": 0.0247,
      "velocity": 114,
      "chip": "ym2612"
    },
    {
      "channel": 4,
      "note": 34,
      "start": 78.1162,
      "duration": 0.1468,
      "velocity": 114,
      "chip": "ym2612"
    },
    {
      "channel": 0,
      "note": 64,
      "start": 78.1191,
      "duration": 0.2437,
      "velocity": 98,
      "chip": "ym2612"
    },
    {
      "channel": 1,
      "note": 67,
      "start": 78.1216,
      "duration": 0.2413,
      "velocity": 98,
      "chip": "ym2612"
    },
    {
      "channel": 2,
      "note": 72,
      "start": 78.1245,
      "duration": 0.2386,
      "velocity": 98,
      "chip": "ym2612"
    },
    {
      "channel": 3,
      "note": 52,
      "start": 78.2323,
      "duration": 0.0806,
      "velocity": 88,
      "chip": "ym2612"
    },
    {
      "channel": 5,
      "note": 33,
      "start": 78.4827,
      "duration": 0.1137,
      "velocity": 113,
      "chip": "ym2612"
    },
    {
      "channel": 3,
      "note": 52,
      "start": 78.4853,
      "duration": 0.0944,
      "velocity": 88,
      "chip": "ym2612"
    },
    {
      "channel": 4,
      "note": 64,
      "start": 78.4886,
      "duration": 0.0912,
      "velocity": 114,
      "chip": "ym2612"
    },
    {
      "channel": 0,
      "note": 64,
      "start": 78.4915,
      "duration": 0.0713,
      "velocity": 98,
      "chip": "ym2612"
    },
    {
      "channel": 1,
      "note": 67,
      "start": 78.4945,
      "duration": 0.0517,
      "velocity": 98,
      "chip": "ym2612"
    },
    {
      "channel": 2,
      "note": 71,
      "start": 78.4976,
      "duration": 0.0488,
      "velocity": 98,
      "chip": "ym2612"
    },
    {
      "channel": 5,
      "note": 40,
      "start": 78.7163,
      "duration": 0.1968,
      "velocity": 113,
      "chip": "ym2612"
    },
    {
      "channel": 3,
      "note": 55,
      "start": 78.7193,
      "duration": 0.227,
      "velocity": 88,
      "chip": "ym2612"
    },
    {
      "channel": 4,
      "note": 116,
      "start": 78.7222,
      "duration": 0.0408,
      "velocity": 114,
      "chip": "ym2612"
    },
    {
      "channel": 0,
      "note": 67,
      "start": 78.7251,
      "duration": 0.0069,
      "velocity": 98,
      "chip": "ym2612"
    },
    {
      "channel": 1,
      "note": 64,
      "start": 78.7277,
      "duration": 0.2352,
      "velocity": 98,
      "chip": "ym2612"
    },
    {
      "channel": 2,
      "note": 71,
      "start": 78.731,
      "duration": 0.0654,
      "velocity": 98,
      "chip": "ym2612"
    },
    {
      "channel": 0,
      "note": 64,
      "start": 78.7341,
      "duration": 0.062,
      "velocity": 101,
      "chip": "ym2612"
    },
    {
      "channel": 4,
      "note": 116,
      "start": 78.8495,
      "duration": 0.0468,
      "velocity": 114,
      "chip": "ym2612"
    },
    {
      "channel": 3,
      "note": 57,
      "start": 78.966,
      "duration": 0.097,
      "velocity": 88,
      "chip": "ym2612"
    },
    {
      "channel": 4,
      "note": 116,
      "start": 78.9688,
      "duration": 0.0609,
      "velocity": 114,
      "chip": "ym2612"
    },
    {
      "channel": 0,
      "note": 64,
      "start": 78.9716,
      "duration": 0.0746,
      "velocity": 114,
      "chip": "ym2612"
    },
    {
      "channel": 2,
      "note": 59,
      "start": 78.9748,
      "duration": 0.055,
      "velocity": 101,
      "chip": "ym2612"
    },
    {
      "channel": 5,
      "note": 40,
      "start": 79.0827,
      "duration": 0.0637,
      "velocity": 113,
      "chip": "ym2612"
    },
    {
      "channel": 0,
      "note": 116,
      "start": 79.0854,
      "duration": 0.0607,
      "velocity": 114,
      "chip": "ym2612"
    },
    {
      "channel": 5,
      "note": 33,
      "start": 79.1993,
      "duration": 0.097,
      "velocity": 113,
      "chip": "ym2612"
    },
    {
      "channel": 3,
      "note": 52,
      "start": 79.2019,
      "duration": 0.0777,
      "velocity": 88,
      "chip": "ym2612"
    },
    {
      "channel": 0,
      "note": 116,
      "start": 79.2047,
      "duration": 0.0106,
      "velocity": 114,
      "chip": "ym2612"
    },
    {
      "channel": 1,
      "note": 71,
      "start": 79.2076,
      "duration": 0.0553,
      "velocity": 98,
      "chip": "ym2612"
    },
    {
      "channel": 4,
      "note": 66,
      "start": 79.2109,
      "duration": 0.0355,
      "velocity": 98,
      "chip": "ym2612"
    },
    {
      "channel": 2,
      "note": 63,
      "start": 79.2141,
      "duration": 0.0156,
      "velocity": 98,
      "chip": "ym2612"
    },
    {
      "channel": 0,
      "note": 64,
      "start": 79.2174,
      "duration": 0.0453,
      "velocity": 101,
      "chip": "ym2612"
    },
    {
      "channel": 1,
      "note": 66,
      "start": 79.3331,
      "duration": 0.0464,
      "velocity": 98,
      "chip": "ym2612"
    },
    {
      "channel": 4,
      "note": 63,
      "start": 79.3357,
      "duration": 0.044,
      "velocity": 98,
      "chip": "ym2612"
    },
    {
      "channel": 2,
      "note": 71,
      "start": 79.3387,
      "duration": 0.0412,
      "velocity": 98,
      "chip": "ym2612"
    },
    {
      "channel": 5,
      "note": 33,
      "start": 79.4493,
      "duration": 0.0304,
      "velocity": 113,
      "chip": "ym2612"
    },
    {
      "channel": 3,
      "note": 52,
      "start": 79.4521,
      "duration": 0.0608,
      "velocity": 88,
      "chip": "ym2612"
    },
    {
      "channel": 0,
      "note": 64,
      "start": 79.4555,
      "duration": 0.074,
      "velocity": 114,
      "chip": "ym2612"
    },
    {
      "channel": 1,
      "note": 59,
      "start": 79.4588,
      "duration": 0.0208,
      "velocity": 101,
      "chip": "ym2612"
    },
    {
      "channel": 5,
      "note": 33,
      "start": 79.5658,
      "duration": 0.081,
      "velocity": 113,
      "chip": "ym2612"
    },
    {
      "channel": 3,
      "note": 52,
      "start": 79.5686,
      "duration": 0.0779,
      "velocity": 88,
      "chip": "ym2612"
    },
    {
      "channel": 4,
      "note": 71,
      "start": 79.5718,
      "duration": 0.0748,
      "velocity": 98,
      "chip": "ym2612"
    },
    {
      "channel": 2,
      "note": 66,
      "start": 79.5747,
      "duration": 0.105,
      "velocity": 98,
      "chip": "ym2612"
    },
    {
      "channel": 1,
      "note": 63,
      "start": 79.5781,
      "duration": 0.0682,
      "velocity": 98,
      "chip": "ym2612"
    },
    {
      "channel": 0,
      "note": 64,
      "start": 79.5815,
      "duration": 0.0646,
      "velocity": 101,
      "chip": "ym2612"
    },
    {
      "channel": 5,
      "note": 40,
      "start": 79.6831,
      "duration": 0.1633,
      "velocity": 113,
      "chip": "ym2612"
    },
    {
      "channel": 3,
      "note": 52,
      "start": 79.8158,
      "duration": 0.0637,
      "velocity": 88,
      "chip": "ym2612"
    },
    {
      "channel": 1,
      "note": 66,
      "start": 79.8189,
      "duration": 0.0605,
      "velocity": 98,
      "chip": "ym2612"
    },
    {
      "channel": 4,
      "note": 63,
      "start": 79.8218,
      "duration": 0.0078,
      "velocity": 98,
      "chip": "ym2612"
    },
    {
      "channel": 3,
      "note": 52,
      "start": 79.9324,
      "duration": 0.0805,
      "velocity": 88,
      "chip": "ym2612"
    },
    {
      "channel": 0,
      "note": 64,
      "start": 79.9352,
      "duration": 0.0776,
      "velocity": 114,
      "chip": "ym2612"
    },
    {
      "channel": 1,
      "note": 69,
      "start": 80.0499,
      "duration": 0.2796,
      "velocity": 98,
      "chip": "ym2612"
    },
    {
      "channel": 4,
      "note": 66,
      "start": 80.0527,
      "duration": 0.2937,
      "velocity": 98,
      "chip": "ym2612"
    },
    {
      "channel": 2,
      "note": 63,
      "start": 80.0557,
      "duration": 0.2073,
      "velocity": 98,
      "chip": "ym2612"
    },
    {
      "channel": 3,
      "note": 52,
      "start": 80.1661,
      "duration": 0.0802,
      "velocity": 88,
      "chip": "ym2612"
    },
    {
      "channel": 3,
      "note": 52,
      "start": 80.4158,
      "duration": 0.1137,
      "velocity": 88,
      "chip": "ym2612"
    },
    {
      "channel": 0,
      "note": 64,
      "start": 80.4183,
      "duration": 0.0132,
      "velocity": 114,
      "chip": "ym2612"
    },
    {
      "channel": 1,
      "note": 63,
      "start": 80.4216,
      "duration": 0.0746,
      "velocity": 98,
      "chip": "ym2612"
    },
    {
      "channel": 4,
      "note": 66,
      "start": 80.4244,
      "duration": 0.0387,
      "velocity": 98,
      "chip": "ym2612"
    },
    {
      "channel": 2,
      "note": 71,
      "start": 80.4272,
      "duration": 0.0361,
      "velocity": 98,
      "chip": "ym2612"
    },
    {
      "channel": 5,
      "note": 71,
      "start": 80.4307,
      "duration": 0.0326,
      "velocity": 101,
      "chip": "ym2612"
    },
    {
      "channel": 0,
      "note": 76,
      "start": 80.4337,
      "duration": 0.0292,
      "velocity": 101,
      "chip": "ym2612"
    },
    {
      "channel": 0,
      "note": 69,
      "start": 80.5332,
      "duration": 0.0462,
      "velocity": 101,
      "chip": "ym2612"
    },
    {
      "channel": 3,
      "note": 50,
      "start": 80.6491,
      "duration": 0.1305,
      "velocity": 88,
      "chip": "ym2612"
    },
    {
      "channel": 0,
      "note": 76,
      "start": 80.6527,
      "duration": 0.0768,
      "velocity": 101,
      "chip": "ym2612"
    },
    {
      "channel": 5,
      "note": 71,
      "start": 80.6557,
      "duration": 0.0573,
      "velocity": 101,
      "chip": "ym2612"
    },
    {
      "channel": 0,
      "note": 69,
      "start": 80.7832,
      "duration": 0.0464,
      "velocity": 101,
      "chip": "ym2612"
    },
    {
      "channel": 5,
      "note": 74,
      "start": 80.7863,
      "duration": 0.06,
      "velocity": 101,
      "chip": "ym2612"
    },
    {
      "channel": 4,
      "note": 40,
      "start": 80.8994,
      "duration": 0.0302,
      "velocity": 113,
      "chip": "ym2612"
    },
    {
      "channel": 3,
      "note": 47,
      "start": 80.9019,
      "duration": 0.1109,
      "velocity": 88,
      "chip": "ym2612"
    },
    {
      "channel": 2,
      "note": 64,
      "start": 80.9046,
      "duration": 0.0751,
      "velocity": 114,
      "chip": "ym2612"
    },
    {
      "channel": 4,
      "note": 40,
      "start": 81.0158,
      "duration": 0.0971,
      "velocity": 113,
      "chip": "ym2612"
    },
    {
      "channel": 0,
      "note": 74,
      "start": 81.0192,
      "duration": 0.2436,
      "velocity": 101,
      "chip": "ym2612"
    },
    {
      "channel": 5,
      "note": 69,
      "start": 81.0221,
      "duration": 0.241,
      "velocity": 101,
      "chip": "ym2612"
    },
    {
      "channel": 4,
      "note": 33,
      "start": 81.1325,
      "duration": 0.0971,
      "velocity": 113,
      "chip": "ym2612"
    },
    {
      "channel": 3,
      "note": 52,
      "start": 81.135,
      "duration": 0.0778,
      "velocity": 88,
      "chip": "ym2612"
    },
    {
      "channel": 1,
      "note": 64,
      "start": 81.1382,
      "duration": 0.0413,
      "velocity": 98,
      "chip": "ym2612"
    },
    {
      "channel": 2,
      "note": 71,
      "start": 81.1412,
      "duration": 0.0387,
      "velocity": 98,
      "chip": "ym2612"
    },
    {
      "channel": 1,
      "note": 64,
      "start": 81.2667,
      "duration": 0.0461,
      "velocity": 98,
      "chip": "ym2612"
    },
    {
      "channel": 2,
      "note": 67,
      "start": 81.2696,
      "duration": 0.0268,
      "velocity": 98,
      "chip": "ym2612"
    },
    {
      "channel": 3,
      "note": 71,
      "start": 81.2729,
      "duration": 0.0234,
      "velocity": 98,
      "chip": "ym2612"
    },
    {
      "channel": 4,
      "note": 33,
      "start": 81.3826,
      "duration": 0.0305,
      "velocity": 113,
      "chip": "ym2612"
    },
    {
      "channel": 0,
      "note": 52,
      "start": 81.3855,
      "duration": 0.0439,
      "velocity": 88,
      "chip": "ym2612"
    },
    {
      "channel": 5,
      "note": 64,
      "start": 81.3883,
      "duration": 0.0748,
      "velocity": 114,
      "chip": "ym2612"
    },
    {
      "channel": 3,
      "note": 76,
      "start": 81.3919,
      "duration": 0.0711,
      "velocity": 101,
      "chip": "ym2612"
    },
    {
      "channel": 2,
      "note": 71,
      "start": 81.3952,
      "duration": 0.0345,
      "velocity": 101,
      "chip": "ym2612"
    },
    {
      "channel": 4,
      "note": 33,
      "start": 81.499,
      "duration": 0.0807,
      "velocity": 113,
      "chip": "ym2612"
    },
    {
      "channel": 0,
      "note": 52,
      "start": 81.5017,
      "duration": 0.0778,
      "velocity": 88,
      "chip": "ym2612"
    },
    {
      "channel": 1,
      "note": 67,
      "start": 81.5047,
      "duration": 0.0248,
      "velocity": 98,
      "chip": "ym2612"
    },
    {
      "channel": 2,
      "note": 64,
      "start": 81.5076,
      "duration": 0.0554,
      "velocity": 98,
      "chip": "ym2612"
    },
    {
      "channel": 3,
      "note": 71,
      "start": 81.5107,
      "duration": 0.019,
      "velocity": 98,
      "chip": "ym2612"
    },
    {
      "channel": 4,
      "note": 40,
      "start": 81.616,
      "duration": 0.1637,
      "velocity": 113,
      "chip": "ym2612"
    },
    {
      "channel": 0,
      "note": 52,
      "start": 81.7492,
      "duration": 0.0302,
      "velocity": 88,
      "chip": "ym2612"
    },
    {
      "channel": 1,
      "note": 64,
      "start": 81.7524,
      "duration": 0.0438,
      "velocity": 98,
      "chip": "ym2612"
    },
    {
      "channel": 3,
      "note": 67,
      "start": 81.7551,
      "duration": 0.0244,
      "velocity": 98,
      "chip": "ym2612"
    },
    {
      "channel": 2,
      "note": 71,
      "start": 81.758,
      "duration": 0.0219,
      "velocity": 98,
      "chip": "ym2612"
    },
    {
      "channel": 0,
      "note": 52,
      "start": 81.8662,
      "duration": 0.08,
      "velocity": 88,
      "chip": "ym2612"
    },
    {
      "channel": 5,
      "note": 64,
      "start": 81.8692,
      "duration": 0.0938,
      "velocity": 114,
      "chip": "ym2612"
    },
    {
      "channel": 3,
      "note": 34,
      "start": 81.8719,
      "duration": 0.0243,
      "velocity": 114,
      "chip": "ym2612"
    },
    {
      "channel": 3,
      "note": 34,
      "start": 81.9829,
      "duration": 0.13,
      "velocity": 114,
      "chip": "ym2612"
    },
    {
      "channel": 1,
      "note": 67,
      "start": 81.9862,
      "duration": 0.2432,
      "velocity": 98,
      "chip": "ym2612"
    },
    {
      "channel": 2,
      "note": 64,
      "start": 81.989,
      "duration": 0.2074,
      "velocity": 98,
      "chip": "ym2612"
    },
    {
      "channel": 4,
      "note": 72,
      "start": 81.9921,
      "duration": 0.2375,
      "velocity": 98,
      "chip": "ym2612"
    },
    {
      "channel": 0,
      "note": 52,
      "start": 82.0989,
      "duration": 0.0806,
      "velocity": 88,
      "chip": "ym2612"
    },
    {
      "channel": 5,
      "note": 33,
      "start": 82.3498,
      "duration": 0.1132,
      "velocity": 113,
      "chip": "ym2612"
    },
    {
      "channel": 0,
      "note": 52,
      "start": 82.3523,
      "duration": 0.0938,
      "velocity": 88,
      "chip": "ym2612"
    },
    {
      "channel": 3,
      "note": 64,
      "start": 82.3555,
      "duration": 0.0908,
      "velocity": 114,
      "chip": "ym2612"
    },
    {
      "channel": 1,
      "note": 71,
      "start": 82.3585,
      "duration": 0.0378,
      "velocity": 98,
      "chip": "ym2612"
    },
    {
      "channel": 4,
      "note": 64,
      "start": 82.361,
      "duration": 0.0354,
      "velocity": 98,
      "chip": "ym2612"
    },
    {
      "channel": 2,
      "note": 67,
      "start": 82.3642,
      "duration": 0.0155,
      "velocity": 98,
      "chip": "ym2612"
    },
    {
      "channel": 5,
      "note": 40,
      "start": 82.5826,
      "duration": 0.1971,
      "velocity": 113,
      "chip": "ym2612"
    },
    {
      "channel": 0,
      "note": 55,
      "start": 82.5851,
      "duration": 0.2278,
      "velocity": 88,
      "chip": "ym2612"
    },
    {
      "channel": 3,
      "note": 116,
      "start": 82.588,
      "duration": 0.0111,
      "velocity": 114,
      "chip": "ym2612"
    },
    {
      "channel": 1,
      "note": 71,
      "start": 82.5913,
      "duration": 0.0715,
      "velocity": 98,
      "chip": "ym2612"
    },
    {
      "channel": 4,
      "note": 64,
      "start": 82.5941,
      "duration": 0.1855,
      "velocity": 98,
      "chip": "ym2612"
    },
    {
      "channel": 2,
      "note": 67,
      "start": 82.5973,
      "duration": 0.0658,
      "velocity": 98,
      "chip": "ym2612"
    },
    {
      "channel": 3,
      "note": 116,
      "start": 82.7161,
      "duration": 0.0468,
      "velocity": 114,
      "chip": "ym2612"
    },
    {
      "channel": 0,
      "note": 57,
      "start": 82.8324,
      "duration": 0.0971,
      "velocity": 88,
      "chip": "ym2612"
    },
    {
      "channel": 3,
      "note": 116,
      "start": 82.835,
      "duration": 0.0445,
      "velocity": 114,
      "chip": "ym2612"
    },
    {
      "channel": 1,
      "note": 64,
      "start": 82.8378,
      "duration": 0.0917,
      "velocity": 114,
      "chip": "ym2612"
    },
    {
      "channel": 5,
      "note": 40,
      "start": 82.9494,
      "duration": 0.097,
      "velocity": 113,
      "chip": "ym2612"
    },
    {
      "channel": 1,
      "note": 116,
      "start": 82.9522,
      "duration": 0.0273,
      "velocity": 114,
      "chip": "ym2612"
    },
    {
      "channel": 5,
      "note": 33,
      "start": 83.066,
      "duration": 0.1137,
      "velocity": 113,
      "chip": "ym2612"
    },
    {
      "channel": 0,
      "note": 52,
      "start": 83.0684,
      "duration": 0.0133,
      "velocity": 88,
      "chip": "ym2612"
    },
    {
      "channel": 1,
      "note": 116,
      "start": 83.0716,
      "duration": 0.0912,
      "velocity": 114,
      "chip": "ym2612"
    },
    {
      "channel": 4,
      "note": 71,
      "start": 83.0747,
      "duration": 0.055,
      "velocity": 98,
      "chip": "ym2612"
    },
    {
      "channel": 2,
      "note": 66,
      "start": 83.0776,
      "duration": 0.0357,
      "velocity": 98,
      "chip": "ym2612"
    },
    {
      "channel": 3,
      "note": 63,
      "start": 83.0807,
      "duration": 0.0323,
      "velocity": 98,
      "chip": "ym2612"
    },
    {
      "channel": 0,
      "note": 59,
      "start": 83.084,
      "duration": 0.0289,
      "velocity": 101,
      "chip": "ym2612"
    },
    {
      "channel": 3,
      "note": 71,
      "start": 83.1837,
      "duration": 0.0793,
      "velocity": 98,
      "chip": "ym2612"
    },
    {
      "channel": 4,
      "note": 66,
      "start": 83.1864,
      "duration": 0.0599,
      "velocity": 98,
      "chip": "ym2612"
    },
    {
      "channel": 2,
      "note": 63,
      "start": 83.1895,
      "duration": 0.0402,
      "velocity": 98,
      "chip": "ym2612"
    },
    {
      "channel": 0,
      "note": 59,
      "start": 83.1925,
      "duration": 0.0537,
      "velocity": 101,
      "chip": "ym2612"
    },
    {
      "channel": 5,
      "note": 33,
      "start": 83.316,
      "duration": 0.0137,
      "velocity": 113,
      "chip": "ym2612"
    },
    {
      "channel": 1,
      "note": 52,
      "start": 83.3189,
      "duration": 0.044,
      "velocity": 88,
      "chip": "ym2612"
    },
    {
      "channel": 2,
      "note": 64,
      "start": 83.3218,
      "duration": 0.0912,
      "velocity": 114,
      "chip": "ym2612"
    },
    {
      "channel": 5,
      "note": 33,
      "start": 83.4329,
      "duration": 0.0968,
      "velocity": 113,
      "chip": "ym2612"
    },
    {
      "channel": 1,
      "note": 52,
      "start": 83.436,
      "duration": 0.0768,
      "velocity": 88,
      "chip": "ym2612"
    },
    {
      "channel": 3,
      "note": 71,
      "start": 83.4392,
      "duration": 0.0571,
      "velocity": 98,
      "chip": "ym2612"
    },
    {
      "channel": 4,
      "note": 66,
      "start": 83.442,
      "duration": 0.1043,
      "velocity": 98,
      "chip": "ym2612"
    },
    {
      "channel": 0,
      "note": 63,
      "start": 83.445,
      "duration": 0.0511,
      "velocity": 98,
      "chip": "ym2612"
    },
    {
      "channel": 2,
      "note": 59,
      "start": 83.4483,
      "duration": 0.0148,
      "velocity": 101,
      "chip": "ym2612"
    },
    {
      "channel": 5,
      "note": 40,
      "start": 83.5495,
      "duration": 0.2635,
      "velocity": 113,
      "chip": "ym2612"
    },
    {
      "channel": 1,
      "note": 52,
      "start": 83.6658,
      "duration": 0.0804,
      "velocity": 88,
      "chip": "ym2612"
    },
    {
      "channel": 0,
      "note": 66,
      "start": 83.6693,
      "duration": 0.1268,
      "velocity": 98,
      "chip": "ym2612"
    },
    {
      "channel": 3,
      "note": 69,
      "start": 83.6719,
      "duration": 0.1244,
      "velocity": 98,
      "chip": "ym2612"
    },
    {
      "channel": 4,
      "note": 63,
      "start": 83.6747,
      "duration": 0.0717,
      "velocity": 98,
      "chip": "ym2612"
    },
    {
      "channel": 2,
      "note": 59,
      "start": 83.6778,
      "duration": 0.052,
      "velocity": 101,
      "chip": "ym2612"
    },
    {
      "channel": 1,
      "note": 52,
      "start": 83.7993,
      "duration": 0.0801,
      "velocity": 88,
      "chip": "ym2612"
    },
    {
      "channel": 2,
      "note": 64,
      "start": 83.8021,
      "duration": 0.0943,
      "velocity": 114,
      "chip": "ym2612"
    },
    {
      "channel": 0,
      "note": 67,
      "start": 83.9165,
      "duration": 0.0963,
      "velocity": 98,
      "chip": "ym2612"
    },
    {
      "channel": 3,
      "note": 64,
      "start": 83.9193,
      "duration": 0.1269,
      "velocity": 98,
      "chip": "ym2612"
    },
    {
      "channel": 4,
      "note": 64,
      "start": 83.9222,
      "duration": 0.0573,
      "velocity": 101,
      "chip": "ym2612"
    },
    {
      "channel": 1,
      "note": 52,
      "start": 84.0323,
      "duration": 0.0806,
      "velocity": 88,
      "chip": "ym2612"
    },
    {
      "channel": 4,
      "note": 59,
      "start": 84.1502,
      "duration": 0.0627,
      "velocity": 101,
      "chip": "ym2612"
    },
    {
      "channel": 1,
      "note": 52,
      "start": 84.2826,
      "duration": 0.1137,
      "velocity": 88,
      "chip": "ym2612"
    },
    {
      "channel": 2,
      "note": 64,
      "start": 84.2854,
      "duration": 0.0776,
      "velocity": 114,
      "chip": "ym2612"
    },
    {
      "channel": 4,
      "note": 59,
      "start": 84.4,
      "duration": 0.0629,
      "velocity": 101,
      "chip": "ym2612"
    },
    {
      "channel": 1,
      "note": 50,
      "start": 84.5156,
      "duration": 0.1139,
      "velocity": 88,
      "chip": "ym2612"
    },
    {
      "channel": 4,
      "note": 64,
      "start": 84.519,
      "duration": 0.0773,
      "velocity": 101,
      "chip": "ym2612"
    },
    {
      "channel": 4,
      "note": 59,
      "start": 84.6334,
      "duration": 0.0629,
      "velocity": 101,
      "chip": "ym2612"
    },
    {
      "channel": 5,
      "note": 40,
      "start": 84.766,
      "duration": 0.0136,
      "velocity": 113,
      "chip": "ym2612"
    },
    {
      "channel": 1,
      "note": 47,
      "start": 84.7684,
      "duration": 0.1112,
      "velocity": 88,
      "chip": "ym2612"
    },
    {
      "channel": 2,
      "note": 64,
      "start": 84.7711,
      "duration": 0.0752,
      "velocity": 114,
      "chip": "ym2612"
    },
    {
      "channel": 4,
      "note": 59,
      "start": 84.7742,
      "duration": 0.0221,
      "velocity": 101,
      "chip": "ym2612"
    },
    {
      "channel": 5,
      "note": 40,
      "start": 84.8826,
      "duration": 0.0971,
      "velocity": 113,
      "chip": "ym2612"
    },
    {
      "channel": 4,
      "note": 64,
      "start": 84.8862,
      "duration": 0.0934,
      "velocity": 101,
      "chip": "ym2612"
    },
    {
      "channel": 5,
      "note": 33,
      "start": 84.9993,
      "duration": 0.0804,
      "velocity": 113,
      "chip": "ym2612"
    },
    {
      "channel": 1,
      "note": 52,
      "start": 85.0019,
      "duration": 0.0776,
      "velocity": 88,
      "chip": "ym2612"
    },
    {
      "channel": 0,
      "note": 40,
      "start": 85.0049,
      "duration": 0.4412,
      "velocity": 93,
      "chip": "ym2612"
    },
    {
      "channel": 3,
      "note": 59,
      "start": 85.0081,
      "duration": 0.0549,
      "velocity": 98,
      "chip": "ym2612"
    },
    {
      "channel": 3,
      "note": 59,
      "start": 85.1163,
      "duration": 0.0632,
      "velocity": 98,
      "chip": "ym2612"
    },
    {
      "channel": 5,
      "note": 33,
      "start": 85.2493,
      "duration": 0.0471,
      "velocity": 113,
      "chip": "ym2612"
    },
    {
      "channel": 1,
      "note": 52,
      "start": 85.252,
      "duration": 0.0441,
      "velocity": 88,
      "chip": "ym2612"
    },
    {
      "channel": 2,
      "note": 64,
      "start": 85.2549,
      "duration": 0.0915,
      "velocity": 114,
      "chip": "ym2612"
    },
    {
      "channel": 3,
      "note": 59,
      "start": 85.2581,
      "duration": 0.0548,
      "velocity": 98,
      "chip": "ym2612"
    },
    {
      "channel": 5,
      "note": 33,
      "start": 85.3663,
      "duration": 0.0967,
      "velocity": 113,
      "chip": "ym2612"
    },
    {
      "channel": 1,
      "note": 52,
      "start": 85.3693,
      "duration": 0.077,
      "velocity": 88,
      "chip": "ym2612"
    },
    {
      "channel": 3,
      "note": 59,
      "start": 85.3724,
      "duration": 0.0571,
      "velocity": 98,
      "chip": "ym2612"
    },
    {
      "channel": 5,
      "note": 40,
      "start": 85.4827,
      "duration": 0.247,
      "velocity": 113,
      "chip": "ym2612"
    },
    {
      "channel": 3,
      "note": 64,
      "start": 85.4859,
      "duration": 0.0938,
      "velocity": 98,
      "chip": "ym2612"
    },
    {
      "channel": 1,
      "note": 52,
      "start": 85.5992,
      "duration": 0.0469,
      "velocity": 88,
      "chip": "ym2612"
    },
    {
      "channel": 3,
      "note": 59,
      "start": 85.6025,
      "duration": 0.0604,
      "velocity": 98,
      "chip": "ym2612"
    },
    {
      "channel": 1,
      "note": 52,
      "start": 85.7327,
      "duration": 0.0636,
      "velocity": 88,
      "chip": "ym2612"
    },
    {
      "channel": 2,
      "note": 64,
      "start": 85.7356,
      "duration": 0.0941,
      "velocity": 114,
      "chip": "ym2612"
    },
    {
      "channel": 4,
      "note": 34,
      "start": 85.7384,
      "duration": 0.0412,
      "velocity": 114,
      "chip": "ym2612"
    },
    {
      "channel": 4,
      "note": 34,
      "start": 85.85,
      "duration": 0.1297,
      "velocity": 114,
      "chip": "ym2612"
    },
    {
      "channel": 3,
      "note": 64,
      "start": 85.8529,
      "duration": 0.0934,
      "velocity": 98,
      "chip": "ym2612"
    },
    {
      "channel": 1,
      "note": 52,
      "start": 85.9657,
      "duration": 0.0805,
      "velocity": 88,
      "chip": "ym2612"
    },
    {
      "channel": 0,
      "note": 76,
      "start": 85.9692,
      "duration": 0.0603,
      "velocity": 101,
      "chip": "ym2612"
    },
    {
      "channel": 5,
      "note": 71,
      "start": 85.9725,
      "duration": 0.0572,
      "velocity": 101,
      "chip": "ym2612"
    },
    {
      "channel": 3,
      "note": 59,
      "start": 86.0831,
      "duration": 0.0798,
      "velocity": 98,
      "chip": "ym2612"
    },
    {
      "channel": 0,
      "note": 69,
      "start": 86.0859,
      "duration": 0.0603,
      "velocity": 101,
      "chip": "ym2612"
    },
    {
      "channel": 5,
      "note": 74,
      "start": 86.0887,
      "duration": 0.0578,
      "velocity": 101,
      "chip": "ym2612"
    },
    {
      "channel": 2,
      "note": 33,
      "start": 86.2161,
      "duration": 0.1468,
      "velocity": 113,
      "chip": "ym2612"
    },
    {
      "channel": 1,
      "note": 52,
      "start": 86.2187,
      "duration": 0.0941,
      "velocity": 88,
      "chip": "ym2612"
    },
    {
      "channel": 4,
      "note": 64,
      "start": 86.2216,
      "duration": 0.058,
      "velocity": 114,
      "chip": "ym2612"
    },
    {
      "channel": 3,
      "note": 59,
      "start": 86.3333,
      "duration": 0.0463,
      "velocity": 98,
      "chip": "ym2612"
    },
    {
      "channel": 0,
      "note": 69,
      "start": 86.3362,
      "duration": 0.2766,
      "velocity": 101,
      "chip": "ym2612"
    },
    {
      "channel": 5,
      "note": 74,
      "start": 86.3392,
      "duration": 0.2237,
      "velocity": 101,
      "chip": "ym2612"
    },
    {
      "channel": 2,
      "note": 40,
      "start": 86.4494,
      "duration": 0.1137,
      "velocity": 113,
      "chip": "ym2612"
    },
    {
      "channel": 1,
      "note": 55,
      "start": 86.452,
      "duration": 0.2108,
      "velocity": 88,
      "chip": "ym2612"
    },
    {
      "channel": 4,
      "note": 116,
      "start": 86.4549,
      "duration": 0.008,
      "velocity": 114,
      "chip": "ym2612"
    },
    {
      "channel": 3,
      "note": 62,
      "start": 86.4576,
      "duration": 0.0554,
      "velocity": 98,
      "chip": "ym2612"
    },
    {
      "channel": 4,
      "note": 116,
      "start": 86.5662,
      "duration": 0.0634,
      "velocity": 114,
      "chip": "ym2612"
    },
    {
      "channel": 3,
      "note": 59,
      "start": 86.5695,
      "duration": 0.0768,
      "velocity": 98,
      "chip": "ym2612"
    },
    {
      "channel": 1,
      "note": 57,
      "start": 86.6991,
      "duration": 0.097,
      "velocity": 88,
      "chip": "ym2612"
    },
    {
      "channel": 4,
      "note": 116,
      "start": 86.7018,
      "duration": 0.0445,
      "velocity": 114,
      "chip": "ym2612"
    },
    {
      "channel": 5,
      "note": 64,
      "start": 86.7045,
      "duration": 0.0419,
      "velocity": 114,
      "chip": "ym2612"
    },
    {
      "channel": 3,
      "note": 64,
      "start": 86.7075,
      "duration": 0.1053,
      "velocity": 98,
      "chip": "ym2612"
    },
    {
      "channel": 0,
      "note": 76,
      "start": 86.7104,
      "duration": 0.0523,
      "velocity": 101,
      "chip": "ym2612"
    },
    {
      "channel": 2,
      "note": 71,
      "start": 86.7141,
      "duration": 0.0324,
      "velocity": 101,
      "chip": "ym2612"
    },
    {
      "channel": 4,
      "note": 40,
      "start": 86.8161,
      "duration": 0.0802,
      "velocity": 113,
      "chip": "ym2612"
    },
    {
      "channel": 5,
      "note": 116,
      "start": 86.8191,
      "duration": 0.0272,
      "velocity": 114,
      "chip": "ym2612"
    },
    {
      "channel": 4,
      "note": 33,
      "start": 86.9326,
      "duration": 0.1136,
      "velocity": 113,
      "chip": "ym2612"
    },
    {
      "channel": 1,
      "note": 52,
      "start": 86.9356,
      "duration": 0.0772,
      "velocity": 88,
      "chip": "ym2612"
    },
    {
      "channel": 5,
      "note": 116,
      "start": 86.9389,
      "duration": 0.0908,
      "velocity": 114,
      "chip": "ym2612"
    },
    {
      "channel": 3,
      "note": 59,
      "start": 86.9418,
      "duration": 0.0711,
      "velocity": 98,
      "chip": "ym2612"
    },
    {
      "channel": 3,
      "note": 59,
      "start": 87.0498,
      "duration": 0.063,
      "velocity": 98,
      "chip": "ym2612"
    },
    {
      "channel": 4,
      "note": 33,
      "start": 87.1829,
      "duration": 0.0469,
      "velocity": 113,
      "chip": "ym2612"
    },
    {
      "channel": 1,
      "note": 52,
      "start": 87.1856,
      "duration": 0.0439,
      "velocity": 88,
      "chip": "ym2612"
    },
    {
      "channel": 5,
      "note": 64,
      "start": 87.1885,
      "duration": 0.0578,
      "velocity": 114,
      "chip": "ym2612"
    },
    {
      "channel": 3,
      "note": 59,
      "start": 87.1913,
      "duration": 0.0384,
      "velocity": 98,
      "chip": "ym2612"
    },
    {
      "channel": 4,
      "note": 33,
      "start": 87.2991,
      "duration": 0.0805,
      "velocity": 113,
      "chip": "ym2612"
    },
    {
      "channel": 1,
      "note": 52,
      "start": 87.3018,
      "duration": 0.0776,
      "velocity": 88,
      "chip": "ym2612"
    },
    {
      "channel": 3,
      "note": 59,
      "start": 87.3048,
      "duration": 0.0414,
      "velocity": 98,
      "chip": "ym2612"
    },
    {
      "channel": 4,
      "note": 40,
      "start": 87.416,
      "duration": 0.2969,
      "velocity": 113,
      "chip": "ym2612"
    },
    {
      "channel": 3,
      "note": 64,
      "start": 87.4191,
      "duration": 0.0938,
      "velocity": 98,
      "chip": "ym2612"
    },
    {
      "channel": 1,
      "note": 52,
      "start": 87.5326,
      "duration": 0.0803,
      "velocity": 88,
      "chip": "ym2612"
    },
    {
      "channel": 3,
      "note": 59,
      "start": 87.5361,
      "duration": 0.0769,
      "velocity": 98,
      "chip": "ym2612"
    },
    {
      "channel": 1,
      "note": 52,
      "start": 87.6659,
      "duration": 0.0636,
      "velocity": 88,
      "chip": "ym2612"
    },
    {
      "channel": 5,
      "note": 64,
      "start": 87.6685,
      "duration": 0.0612,
      "velocity": 114,
      "chip": "ym2612"
    },
    {
      "channel": 3,
      "note": 64,
      "start": 87.7833,
      "duration": 0.0962,
      "velocity": 98,
      "chip": "ym2612"
    },
    {
      "channel": 1,
      "note": 52,
      "start": 87.899,
      "duration": 0.0806,
      "velocity": 88,
      "chip": "ym2612"
    },
    {
      "channel": 0,
      "note": 67,
      "start": 87.9021,
      "duration": 0.0607,
      "velocity": 101,
      "chip": "ym2612"
    },
    {
      "channel": 2,
      "note": 62,
      "start": 87.9051,
      "duration": 0.0079,
      "velocity": 101,
      "chip": "ym2612"
    },
    {
      "channel": 0,
      "note": 69,
      "start": 88.0166,
      "duration": 0.0795,
      "velocity": 101,
      "chip": "ym2612"
    },
    {
      "channel": 2,
      "note": 64,
      "start": 88.0196,
      "duration": 0.0768,
      "velocity": 101,
      "chip": "ym2612"
    },
    {
      "channel": 4,
      "note": 33,
      "start": 88.1493,
      "duration": 0.1137,
      "velocity": 113,
      "chip": "ym2612"
    },
    {
      "channel": 1,
      "note": 52,
      "start": 88.1518,
      "duration": 0.1111,
      "velocity": 88,
      "chip": "ym2612"
    },
    {
      "channel": 5,
      "note": 64,
      "start": 88.1546,
      "duration": 0.0583,
      "velocity": 114,
      "chip": "ym2612"
    },
    {
      "channel": 3,
      "note": 116,
      "start": 88.1574,
      "duration": 0.0222,
      "velocity": 114,
      "chip": "ym2612"
    },
    {
      "channel": 3,
      "note": 116,
      "start": 88.2664,
      "duration": 0.0799,
      "velocity": 114,
      "chip": "ym2612"
    },
    {
      "channel": 0,
      "note": 64,
      "start": 88.2695,
      "duration": 0.2266,
      "velocity": 101,
      "chip": "ym2612"
    },
    {
      "channel": 2,
      "note": 69,
      "start": 88.2729,
      "duration": 0.2902,
      "velocity": 101,
      "chip": "ym2612"
    },
    {
      "channel": 4,
      "note": 40,
      "start": 88.3827,
      "duration": 0.1304,
      "velocity": 113,
      "chip": "ym2612"
    },
    {
      "channel": 1,
      "note": 50,
      "start": 88.3851,
      "duration": 0.1111,
      "velocity": 88,
      "chip": "ym2612"
    },
    {
      "channel": 1,
      "note": 47,
      "start": 88.6327,
      "duration": 0.1134,
      "velocity": 88,
      "chip": "ym2612"
    },
    {
      "channel": 3,
      "note": 116,
      "start": 88.6359,
      "duration": 0.0269,
      "velocity": 114,
      "chip": "ym2612"
    },
    {
      "channel": 5,
      "note": 64,
      "start": 88.6387,
      "duration": 0.091,
      "velocity": 114,
      "chip": "ym2612"
    },
    {
      "channel": 0,
      "note": 67,
      "start": 88.6417,
      "duration": 0.0544,
      "velocity": 101,
      "chip": "ym2612"
    },
    {
      "channel": 2,
      "note": 62,
      "start": 88.6449,
      "duration": 0.0849,
      "velocity": 101,
      "chip": "ym2612"
    },
    {
      "channel": 3,
      "note": 116,
      "start": 88.7496,
      "duration": 0.08,
      "velocity": 114,
      "chip": "ym2612"
    },
    {
      "channel": 4,
      "note": 33,
      "start": 88.8662,
      "duration": 0.0802,
      "velocity": 113,
      "chip": "ym2612"
    },
    {
      "channel": 1,
      "note": 52,
      "start": 88.8688,
      "duration": 0.0774,
      "velocity": 88,
      "chip": "ym2612"
    },
    {
      "channel": 0,
      "note": 40,
      "start": 88.8719,
      "duration": 0.4742,
      "velocity": 93,
      "chip": "ym2612"
    },
    {
      "channel": 5,
      "note": 59,
      "start": 88.8752,
      "duration": 0.0545,
      "velocity": 98,
      "chip": "ym2612"
    },
    {
      "channel": 5,
      "note": 59,
      "start": 88.9831,
      "duration": 0.0633,
      "velocity": 98,
      "chip": "ym2612"
    },
    {
      "channel": 4,
      "note": 33,
      "start": 89.1159,
      "duration": 0.0138,
      "velocity": 113,
      "chip": "ym2612"
    },
    {
      "channel": 1,
      "note": 52,
      "start": 89.1186,
      "duration": 0.0442,
      "velocity": 88,
      "chip": "ym2612"
    },
    {
      "channel": 3,
      "note": 64,
      "start": 89.1213,
      "duration": 0.0583,
      "velocity": 114,
      "chip": "ym2612"
    },
    {
      "channel": 5,
      "note": 59,
      "start": 89.124,
      "duration": 0.039,
      "velocity": 98,
      "chip": "ym2612"
    },
    {
      "channel": 4,
      "note": 33,
      "start": 89.2324,
      "duration": 0.0971,
      "velocity": 113,
      "chip": "ym2612"
    },
    {
      "channel": 1,
      "note": 52,
      "start": 89.2352,
      "duration": 0.0776,
      "velocity": 88,
      "chip": "ym2612"
    },
    {
      "channel": 5,
      "note": 59,
      "start": 89.2382,
      "duration": 0.0415,
      "velocity": 98,
      "chip": "ym2612"
    },
    {
      "channel": 4,
      "note": 40,
      "start": 89.3494,
      "duration": 0.2635,
      "velocity": 113,
      "chip": "ym2612"
    },
    {
      "channel": 5,
      "note": 64,
      "start": 89.3527,
      "duration": 0.0937,
      "velocity": 98,
      "chip": "ym2612"
    },
    {
      "channel": 1,
      "note": 52,
      "start": 89.466,
      "duration": 0.0468,
      "velocity": 88,
      "chip": "ym2612"
    },
    {
      "channel": 5,
      "note": 59,
      "start": 89.4693,
      "duration": 0.0604,
      "velocity": 98,
      "chip": "ym2612"
    },
    {
      "channel": 1,
      "note": 52,
      "start": 89.5826,
      "duration": 0.0802,
      "velocity": 88,
      "chip": "ym2612"
    },
    {
      "channel": 3,
      "note": 64,
      "start": 89.5854,
      "duration": 0.0776,
      "velocity": 114,
      "chip": "ym2612"
    },
    {
      "channel": 2,
      "note": 34,
      "start": 89.5882,
      "duration": 0.0415,
      "velocity": 114,
      "chip": "ym2612"
    },
    {
      "channel": 3,
      "note": 34,
      "start": 89.7166,
      "duration": 0.113,
      "velocity": 114,
      "chip": "ym2612"
    },
    {
      "channel": 5,
      "note": 64,
      "start": 89.7199,
      "duration": 0.0765,
      "velocity": 98,
      "chip": "ym2612"
    },
    {
      "channel": 1,
      "note": 52,
      "start": 89.8324,
      "duration": 0.0803,
      "velocity": 88,
      "chip": "ym2612"
    },
    {
      "channel": 5,
      "note": 59,
      "start": 89.9499,
      "duration": 0.0632,
      "velocity": 98,
      "chip": "ym2612"
    },
    {
      "channel": 4,
      "note": 33,
      "start": 90.066,
      "duration": 0.0303,
      "velocity": 113,
      "chip": "ym2612"
    },
    {
      "channel": 1,
      "note": 52,
      "start": 90.0689,
      "duration": 0.1107,
      "velocity": 88,
      "chip": "ym2612"
    },
    {
      "channel": 3,
      "note": 64,
      "start": 90.0717,
      "duration": 0.0746,
      "velocity": 114,
      "chip": "ym2612"
    },
    {
      "channel": 4,
      "note": 33,
      "start": 90.1992,
      "duration": 0.0971,
      "velocity": 113,
      "chip": "ym2612"
    },
    {
      "channel": 5,
      "note": 59,
      "start": 90.2025,
      "duration": 0.0439,
      "velocity": 98,
      "chip": "ym2612"
    },
    {
      "channel": 4,
      "note": 40,
      "start": 90.3163,
      "duration": 0.1133,
      "velocity": 113,
      "chip": "ym2612"
    },
    {
      "channel": 1,
      "note": 55,
      "start": 90.3189,
      "duration": 0.2106,
      "velocity": 88,
      "chip": "ym2612"
    },
    {
      "channel": 3,
      "note": 116,
      "start": 90.3217,
      "duration": 0.0109,
      "velocity": 114,
      "chip": "ym2612"
    },
    {
      "channel": 5,
      "note": 62,
      "start": 90.3247,
      "duration": 0.0717,
      "velocity": 98,
      "chip": "ym2612"
    },
    {
      "channel": 0,
      "note": 76,
      "start": 90.3278,
      "duration": 0.0517,
      "velocity": 101,
      "chip": "ym2612"
    },
    {
      "channel": 2,
      "note": 71,
      "start": 90.331,
      "duration": 0.0488,
      "velocity": 101,
      "chip": "ym2612"
    },
    {
      "channel": 3,
      "note": 116,
      "start": 90.4329,
      "duration": 0.0634,
      "velocity": 114,
      "chip": "ym2612"
    },
    {
      "channel": 5,
      "note": 59,
      "start": 90.4358,
      "duration": 0.0607,
      "velocity": 98,
      "chip": "ym2612"
    },
    {
      "channel": 0,
      "note": 69,
      "start": 90.4386,
      "duration": 0.0575,
      "velocity": 101,
      "chip": "ym2612"
    },
    {
      "channel": 2,
      "note": 74,
      "start": 90.442,
      "duration": 0.0377,
      "velocity": 101,
      "chip": "ym2612"
    },
    {
      "channel": 1,
      "note": 57,
      "start": 90.5492,
      "duration": 0.097,
      "velocity": 88,
      "chip": "ym2612"
    },
    {
      "channel": 3,
      "note": 116,
      "start": 90.5519,
      "duration": 0.061,
      "velocity": 114,
      "chip": "ym2612"
    },
    {
      "channel": 4,
      "note": 64,
      "start": 90.5547,
      "duration": 0.075,
      "velocity": 114,
      "chip": "ym2612"
    },
    {
      "channel": 5,
      "note": 64,
      "start": 90.5576,
      "duration": 0.0888,
      "velocity": 98,
      "chip": "ym2612"
    },
    {
      "channel": 2,
      "note": 40,
      "start": 90.6826,
      "duration": 0.1139,
      "velocity": 113,
      "chip": "ym2612"
    },
    {
      "channel": 3,
      "note": 116,
      "start": 90.6857,
      "duration": 0.0272,
      "velocity": 114,
      "chip": "ym2612"
    },
    {
      "channel": 5,
      "note": 59,
      "start": 90.6887,
      "duration": 0.0244,
      "velocity": 98,
      "chip": "ym2612"
    },
    {
      "channel": 0,
      "note": 69,
      "start": 90.6917,
      "duration": 0.2712,
      "velocity": 101,
      "chip": "ym2612"
    },
    {
      "channel": 4,
      "note": 74,
      "start": 90.6947,
      "duration": 0.2183,
      "velocity": 101,
      "chip": "ym2612"
    },
    {
      "channel": 2,
      "note": 33,
      "start": 90.7995,
      "duration": 0.0969,
      "velocity": 113,
      "chip": "ym2612"
    },
    {
      "channel": 1,
      "note": 52,
      "start": 90.8021,
      "duration": 0.0774,
      "velocity": 88,
      "chip": "ym2612"
    },
    {
      "channel": 3,
      "note": 116,
      "start": 90.8049,
      "duration": 0.0913,
      "velocity": 114,
      "chip": "ym2612"
    },
    {
      "channel": 5,
      "note": 59,
      "start": 90.8078,
      "duration": 0.0553,
      "velocity": 98,
      "chip": "ym2612"
    },
    {
      "channel": 5,
      "note": 59,
      "start": 90.9165,
      "duration": 0.0632,
      "velocity": 98,
      "chip": "ym2612"
    },
    {
      "channel": 2,
      "note": 33,
      "start": 91.0327,
      "duration": 0.0303,
      "velocity": 113,
      "chip": "ym2612"
    },
    {
      "channel": 1,
      "note": 52,
      "start": 91.0354,
      "duration": 0.0608,
      "velocity": 88,
      "chip": "ym2612"
    },
    {
      "channel": 3,
      "note": 64,
      "start": 91.0383,
      "duration": 0.0746,
      "velocity": 114,
      "chip": "ym2612"
    },
    {
      "channel": 5,
      "note": 59,
      "start": 91.0416,
      "duration": 0.0716,
      "velocity": 98,
      "chip": "ym2612"
    },
    {
      "channel": 0,
      "note": 76,
      "start": 91.0446,
      "duration": 0.0681,
      "velocity": 101,
      "chip": "ym2612"
    },
    {
      "channel": 4,
      "note": 71,
      "start": 91.0476,
      "duration": 0.0655,
      "velocity": 101,
      "chip": "ym2612"
    },
    {
      "channel": 2,
      "note": 33,
      "start": 91.166,
      "duration": 0.0805,
      "velocity": 113,
      "chip": "ym2612"
    },
    {
      "channel": 1,
      "note": 52,
      "start": 91.1686,
      "duration": 0.0775,
      "velocity": 88,
      "chip": "ym2612"
    },
    {
      "channel": 5,
      "note": 59,
      "start": 91.1718,
      "duration": 0.0411,
      "velocity": 98,
      "chip": "ym2612"
    },
    {
      "channel": 2,
      "note": 40,
      "start": 91.2827,
      "duration": 0.2969,
      "velocity": 113,
      "chip": "ym2612"
    },
    {
      "channel": 5,
      "note": 64,
      "start": 91.286,
      "duration": 0.0937,
      "velocity": 98,
      "chip": "ym2612"
    },
    {
      "channel": 1,
      "note": 52,
      "start": 91.3992,
      "duration": 0.0803,
      "velocity": 88,
      "chip": "ym2612"
    },
    {
      "channel": 5,
      "note": 59,
      "start": 91.4025,
      "duration": 0.0606,
      "velocity": 98,
      "chip": "ym2612"
    },
    {
      "channel": 1,
      "note": 52,
      "start": 91.5161,
      "duration": 0.0801,
      "velocity": 88,
      "chip": "ym2612"
    },
    {
      "channel": 3,
      "note": 64,
      "start": 91.5187,
      "duration": 0.0776,
      "velocity": 114,
      "chip": "ym2612"
    },
    {
      "channel": 5,
      "note": 64,
      "start": 91.65,
      "duration": 0.0962,
      "velocity": 98,
      "chip": "ym2612"
    },
    {
      "channel": 1,
      "note": 52,
      "start": 91.7656,
      "duration": 0.0806,
      "velocity": 88,
      "chip": "ym2612"
    },
    {
      "channel": 0,
      "note": 67,
      "start": 91.7689,
      "duration": 0.0606,
      "velocity": 101,
      "chip": "ym2612"
    },
    {
      "channel": 4,
      "note": 62,
      "start": 91.772,
      "duration": 0.0578,
      "velocity": 101,
      "chip": "ym2612"
    },
    {
      "channel": 0,
      "note": 69,
      "start": 91.8833,
      "duration": 0.0962,
      "velocity": 101,
      "chip": "ym2612"
    },
    {
      "channel": 4,
      "note": 64,
      "start": 91.8863,
      "duration": 0.0767,
      "velocity": 101,
      "chip": "ym2612"
    },
    {
      "channel": 2,
      "note": 33,
      "start": 91.9998,
      "duration": 0.13,
      "velocity": 113,
      "chip": "ym2612"
    },
    {
      "channel": 1,
      "note": 52,
      "start": 92.0024,
      "duration": 0.1271,
      "velocity": 88,
      "chip": "ym2612"
    },
    {
      "channel": 3,
      "note": 64,
      "start": 92.0051,
      "duration": 0.0578,
      "velocity": 114,
      "chip": "ym2612"
    },
    {
      "channel": 0,
      "note": 64,
      "start": 92.1334,
      "duration": 0.2293,
      "velocity": 101,
      "chip": "ym2612"
    },
    {
      "channel": 4,
      "note": 69,
      "start": 92.1364,
      "duration": 0.3265,
      "velocity": 101,
      "chip": "ym2612"
    },
    {
      "channel": 2,
      "note": 40,
      "start": 92.2492,
      "duration": 0.2139,
      "velocity": 113,
      "chip": "ym2612"
    },
    {
      "channel": 1,
      "note": 50,
      "start": 92.2516,
      "duration": 0.1113,
      "velocity": 88,
      "chip": "ym2612"
    },
    {
      "channel": 2,
      "note": 33,
      "start": 92.4827,
      "duration": 0.0638,
      "velocity": 113,
      "chip": "ym2612"
    },
    {
      "channel": 1,
      "note": 47,
      "start": 92.4852,
      "duration": 0.1277,
      "velocity": 88,
      "chip": "ym2612"
    },
    {
      "channel": 3,
      "note": 64,
      "start": 92.4879,
      "duration": 0.0584,
      "velocity": 114,
      "chip": "ym2612"
    },
    {
      "channel": 5,
      "note": 34,
      "start": 92.4905,
      "duration": 0.0392,
      "velocity": 114,
      "chip": "ym2612"
    },
    {
      "channel": 0,
      "note": 116,
      "start": 92.4936,
      "duration": 0.0049,
      "velocity": 114,
      "chip": "ym2612"
    },
    {
      "channel": 4,
      "note": 67,
      "start": 92.4974,
      "duration": 0.0655,
      "velocity": 101,
      "chip": "ym2612"
    },
    {
      "channel": 0,
      "note": 62,
      "start": 92.5007,
      "duration": 0.1288,
      "velocity": 101,
      "chip": "ym2612"
    },
    {
      "channel": 2,
      "note": 40,
      "start": 92.6161,
      "duration": 0.1136,
      "velocity": 113,
      "chip": "ym2612"
    },
    {
      "channel": 3,
      "note": 116,
      "start": 92.6191,
      "duration": 0.0438,
      "velocity": 114,
      "chip": "ym2612"
    },
    {
      "channel": 5,
      "note": 34,
      "start": 92.6218,
      "duration": 0.0912,
      "velocity": 114,
      "chip": "ym2612"
    },
    {
      "channel": 2,
      "note": 33,
      "start": 92.7338,
      "duration": 0.046,
      "velocity": 113,
      "chip": "ym2612"
    },
    {
      "channel": 1,
      "note": 52,
      "start": 92.7364,
      "duration": 0.0764,
      "velocity": 88,
      "chip": "ym2612"
    },
    {
      "channel": 4,
      "note": 40,
      "start": 92.7394,
      "duration": 0.2569,
      "velocity": 93,
      "chip": "ym2612"
    },
    {
      "channel": 0,
      "note": 59,
      "start": 92.7437,
      "duration": 0.0358,
      "velocity": 98,
      "chip": "ym2612"
    },
    {
      "channel": 0,
      "note": 59,
      "start": 92.8495,
      "duration": 0.0634,
      "velocity": 98,
      "chip": "ym2612"
    },
    {
      "channel": 2,
      "note": 33,
      "start": 92.966,
      "duration": 0.0471,
      "velocity": 113,
      "chip": "ym2612"
    },
    {
      "channel": 1,
      "note": 52,
      "start": 92.9688,
      "duration": 0.061,
      "velocity": 88,
      "chip": "ym2612"
    },
    {
      "channel": 3,
      "note": 64,
      "start": 92.9716,
      "duration": 0.0746,
      "velocity": 114,
      "chip": "ym2612"
    },
    {
      "channel": 0,
      "note": 59,
      "start": 92.9745,
      "duration": 0.055,
      "velocity": 98,
      "chip": "ym2612"
    },
    {
      "channel": 2,
      "note": 33,
      "start": 93.0993,
      "duration": 0.0471,
      "velocity": 113,
      "chip": "ym2612"
    },
    {
      "channel": 1,
      "note": 52,
      "start": 93.102,
      "duration": 0.0609,
      "velocity": 88,
      "chip": "ym2612"
    },
    {
      "channel": 4,
      "note": 40,
      "start": 93.1049,
      "duration": 0.3246,
      "velocity": 93,
      "chip": "ym2612"
    },
    {
      "channel": 0,
      "note": 59,
      "start": 93.1076,
      "duration": 0.0385,
      "velocity": 98,
      "chip": "ym2612"
    },
    {
      "channel": 2,
      "note": 40,
      "start": 93.2161,
      "duration": 0.1302,
      "velocity": 113,
      "chip": "ym2612"
    },
    {
      "channel": 0,
      "note": 64,
      "start": 93.2193,
      "duration": 0.0936,
      "velocity": 98,
      "chip": "ym2612"
    },
    {
      "channel": 1,
      "note": 52,
      "start": 93.3331,
      "duration": 0.0464,
      "velocity": 88,
      "chip": "ym2612"
    },
    {
      "channel": 0,
      "note": 59,
      "start": 93.3362,
      "duration": 0.0766,
      "velocity": 98,
      "chip": "ym2612"
    },
    {
      "channel": 1,
      "note": 52,
      "start": 93.4493,
      "duration": 0.0801,
      "velocity": 88,
      "chip": "ym2612"
    },
    {
      "channel": 3,
      "note": 64,
      "start": 93.4522,
      "duration": 0.094,
      "velocity": 114,
      "chip": "ym2612"
    },
    {
      "channel": 5,
      "note": 34,
      "start": 93.4549,
      "duration": 0.0414,
      "velocity": 114,
      "chip": "ym2612"
    },
    {
      "channel": 3,
      "note": 34,
      "start": 93.5829,
      "duration": 0.13,
      "velocity": 114,
      "chip": "ym2612"
    },
    {
      "channel": 0,
      "note": 64,
      "start": 93.5854,
      "duration": 0.0607,
      "velocity": 98,
      "chip": "ym2612"
    },
    {
      "channel": 1,
      "note": 52,
      "start": 93.699,
      "duration": 0.0805,
      "velocity": 88,
      "chip": "ym2612"
    },
    {
      "channel": 0,
      "note": 59,
      "start": 93.8163,
      "duration": 0.0632,
      "velocity": 98,
      "chip": "ym2612"
    },
    {
      "channel": 2,
      "note": 33,
      "start": 93.9327,
      "duration": 0.1303,
      "velocity": 113,
      "chip": "ym2612"
    },
    {
      "channel": 1,
      "note": 52,
      "start": 93.9353,
      "duration": 0.0942,
      "velocity": 88,
      "chip": "ym2612"
    },
    {
      "channel": 3,
      "note": 64,
      "start": 93.9385,
      "duration": 0.0912,
      "velocity": 114,
      "chip": "ym2612"
    },
    {
      "channel": 0,
      "note": 59,
      "start": 94.0665,
      "duration": 0.0298,
      "velocity": 98,
      "chip": "ym2612"
    },
    {
      "channel": 2,
      "note": 40,
      "start": 94.1831,
      "duration": 0.1966,
      "velocity": 113,
      "chip": "ym2612"
    },
    {
      "channel": 1,
      "note": 55,
      "start": 94.1857,
      "duration": 0.2105,
      "velocity": 88,
      "chip": "ym2612"
    },
    {
      "channel": 3,
      "note": 116,
      "start": 94.1885,
      "duration": 0.0244,
      "velocity": 114,
      "chip": "ym2612"
    },
    {
      "channel": 0,
      "note": 62,
      "start": 94.1913,
      "duration": 0.0882,
      "velocity": 98,
      "chip": "ym2612"
    },
    {
      "channel": 3,
      "note": 116,
      "start": 94.2994,
      "duration": 0.0636,
      "velocity": 114,
      "chip": "ym2612"
    },
    {
      "channel": 0,
      "note": 59,
      "start": 94.3025,
      "duration": 0.0602,
      "velocity": 98,
      "chip": "ym2612"
    },
    {
      "channel": 1,
      "note": 57,
      "start": 94.4158,
      "duration": 0.0971,
      "velocity": 88,
      "chip": "ym2612"
    },
    {
      "channel": 3,
      "note": 116,
      "start": 94.4186,
      "duration": 0.0611,
      "velocity": 114,
      "chip": "ym2612"
    },
    {
      "channel": 5,
      "note": 64,
      "start": 94.4212,
      "duration": 0.0751,
      "velocity": 114,
      "chip": "ym2612"
    },
    {
      "channel": 0,
      "note": 64,
      "start": 94.424,
      "duration": 0.0887,
      "velocity": 98,
      "chip": "ym2612"
    },
    {
      "channel": 2,
      "note": 40,
      "start": 94.5493,
      "duration": 0.0471,
      "velocity": 113,
      "chip": "ym2612"
    },
    {
      "channel": 3,
      "note": 116,
      "start": 94.5522,
      "duration": 0.0439,
      "velocity": 114,
      "chip": "ym2612"
    },
    {
      "channel": 0,
      "note": 59,
      "start": 94.5549,
      "duration": 0.0246,
      "velocity": 98,
      "chip": "ym2612"
    },
    {
      "channel": 2,
      "note": 33,
      "start": 94.666,
      "duration": 0.0971,
      "velocity": 113,
      "chip": "ym2612"
    },
    {
      "channel": 1,
      "note": 52,
      "start": 94.6686,
      "duration": 0.0776,
      "velocity": 88,
      "chip": "ym2612"
    },
    {
      "channel": 3,
      "note": 116,
      "start": 94.6715,
      "duration": 0.1749,
      "velocity": 114,
      "chip": "ym2612"
    },
    {
      "channel": 0,
      "note": 59,
      "start": 94.6742,
      "duration": 0.0386,
      "velocity": 98,
      "chip": "ym2612"
    },
    {
      "channel": 0,
      "note": 59,
      "start": 94.7828,
      "duration": 0.0634,
      "velocity": 98,
      "chip": "ym2612"
    },
    {
      "channel": 2,
      "note": 33,
      "start": 94.8994,
      "duration": 0.047,
      "velocity": 113,
      "chip": "ym2612"
    },
    {
      "channel": 1,
      "note": 52,
      "start": 94.9025,
      "duration": 0.0604,
      "velocity": 88,
      "chip": "ym2612"
    },
    {
      "channel": 3,
      "note": 64,
      "start": 94.9057,
      "duration": 0.0739,
      "velocity": 114,
      "chip": "ym2612"
    },
    {
      "channel": 0,
      "note": 59,
      "start": 94.9085,
      "duration": 0.0709,
      "velocity": 98,
      "chip": "ym2612"
    },
    {
      "channel": 2,
      "note": 33,
      "start": 95.0326,
      "duration": 0.0639,
      "velocity": 113,
      "chip": "ym2612"
    },
    {
      "channel": 1,
      "note": 52,
      "start": 95.0353,
      "duration": 0.061,
      "velocity": 88,
      "chip": "ym2612"
    },
    {
      "channel": 0,
      "note": 59,
      "start": 95.0383,
      "duration": 0.0412,
      "velocity": 98,
      "chip": "ym2612"
    },
    {
      "channel": 2,
      "note": 40,
      "start": 95.1497,
      "duration": 0.1466,
      "velocity": 113,
      "chip": "ym2612"
    },
    {
      "channel": 0,
      "note": 64,
      "start": 95.153,
      "duration": 0.0931,
      "velocity": 98,
      "chip": "ym2612"
    },
    {
      "channel": 1,
      "note": 52,
      "start": 95.2658,
      "duration": 0.0805,
      "velocity": 88,
      "chip": "ym2612"
    },
    {
      "channel": 1,
      "note": 52,
      "start": 95.3824,
      "duration": 0.0805,
      "velocity": 88,
      "chip": "ym2612"
    },
    {
      "channel": 3,
      "note": 64,
      "start": 95.385,
      "duration": 0.0781,
      "velocity": 114,
      "chip": "ym2612"
    },
    {
      "channel": 0,
      "note": 59,
      "start": 95.3883,
      "duration": 0.0579,
      "velocity": 98,
      "chip": "ym2612"
    },
    {
      "channel": 0,
      "note": 62,
      "start": 95.5164,
      "duration": 0.0964,
      "velocity": 98,
      "chip": "ym2612"
    },
    {
      "channel": 1,
      "note": 52,
      "start": 95.6324,
      "duration": 0.0805,
      "velocity": 88,
      "chip": "ym2612"
    },
    {
      "channel": 4,
      "note": 76,
      "start": 95.6359,
      "duration": 0.0771,
      "velocity": 101,
      "chip": "ym2612"
    },
    {
      "channel": 5,
      "note": 71,
      "start": 95.639,
      "duration": 0.0406,
      "velocity": 101,
      "chip": "ym2612"
    },
    {
      "channel": 4,
      "note": 69,
      "start": 95.7502,
      "duration": 0.0795,
      "velocity": 101,
      "chip": "ym2612"
    },
    {
      "channel": 5,
      "note": 74,
      "start": 95.7536,
      "duration": 0.0595,
      "velocity": 101,
      "chip": "ym2612"
    },
    {
      "channel": 1,
      "note": 52,
      "start": 95.8658,
      "duration": 0.1136,
      "velocity": 88,
      "chip": "ym2612"
    },
    {
      "channel": 3,
      "note": 64,
      "start": 95.8684,
      "duration": 0.0779,
      "velocity": 114,
      "chip": "ym2612"
    },
    {
      "channel": 4,
      "note": 69,
      "start": 95.9834,
      "duration": 0.2628,
      "velocity": 101,
      "chip": "ym2612"
    },
    {
      "channel": 5,
      "note": 74,
      "start": 95.9864,
      "duration": 0.2266,
      "velocity": 101,
      "chip": "ym2612"
    },
    {
      "channel": 1,
      "note": 50,
      "start": 96.1157,
      "duration": 0.1137,
      "velocity": 88,
      "chip": "ym2612"
    },
    {
      "channel": 2,
      "note": 40,
      "start": 96.3494,
      "duration": 0.0471,
      "velocity": 113,
      "chip": "ym2612"
    },
    {
      "channel": 1,
      "note": 47,
      "start": 96.3518,
      "duration": 0.111,
      "velocity": 88,
      "chip": "ym2612"
    },
    {
      "channel": 3,
      "note": 64,
      "start": 96.3544,
      "duration": 0.0751,
      "velocity": 114,
      "chip": "ym2612"
    },
    {
      "channel": 4,
      "note": 76,
      "start": 96.3576,
      "duration": 0.0887,
      "velocity": 101,
      "chip": "ym2612"
    },
    {
      "channel": 5,
      "note": 71,
      "start": 96.3605,
      "duration": 0.0692,
      "velocity": 101,
      "chip": "ym2612"
    },
    {
      "channel": 2,
      "note": 40,
      "start": 96.466,
      "duration": 0.1136,
      "velocity": 113,
      "chip": "ym2612"
    },
    {
      "channel": 2,
      "note": 33,
      "start": 96.5992,
      "duration": 0.0972,
      "velocity": 113,
      "chip": "ym2612"
    },
    {
      "channel": 1,
      "note": 52,
      "start": 96.6018,
      "duration": 0.0778,
      "velocity": 88,
      "chip": "ym2612"
    },
    {
      "channel": 0,
      "note": 40,
      "start": 96.6047,
      "duration": 0.2247,
      "velocity": 93,
      "chip": "ym2612"
    },
    {
      "channel": 3,
      "note": 59,
      "start": 96.6079,
      "duration": 0.0383,
      "velocity": 98,
      "chip": "ym2612"
    },
    {
      "channel": 3,
      "note": 59,
      "start": 96.7162,
      "duration": 0.0634,
      "velocity": 98,
      "chip": "ym2612"
    },
    {
      "channel": 2,
      "note": 33,
      "start": 96.8328,
      "duration": 0.0469,
      "velocity": 113,
      "chip": "ym2612"
    },
    {
      "channel": 1,
      "note": 52,
      "start": 96.8359,
      "duration": 0.0603,
      "velocity": 88,
      "chip": "ym2612"
    },
    {
      "channel": 5,
      "note": 64,
      "start": 96.8386,
      "duration": 0.0745,
      "velocity": 114,
      "chip": "ym2612"
    },
    {
      "channel": 3,
      "note": 59,
      "start": 96.8415,
      "duration": 0.0714,
      "velocity": 98,
      "chip": "ym2612"
    },
    {
      "channel": 2,
      "note": 33,
      "start": 96.9493,
      "duration": 0.0805,
      "velocity": 113,
      "chip": "ym2612"
    },
    {
      "channel": 1,
      "note": 52,
      "start": 96.952,
      "duration": 0.0775,
      "velocity": 88,
      "chip": "ym2612"
    },
    {
      "channel": 0,
      "note": 40,
      "start": 96.9548,
      "duration": 0.308,
      "velocity": 93,
      "chip": "ym2612"
    },
    {
      "channel": 3,
      "note": 59,
      "start": 96.9578,
      "duration": 0.0551,
      "velocity": 98,
      "chip": "ym2612"
    },
    {
      "channel": 2,
      "note": 40,
      "start": 97.0828,
      "duration": 0.1469,
      "velocity": 113,
      "chip": "ym2612"
    },
    {
      "channel": 3,
      "note": 64,
      "start": 97.086,
      "duration": 0.0936,
      "velocity": 98,
      "chip": "ym2612"
    },
    {
      "channel": 1,
      "note": 52,
      "start": 97.1993,
      "duration": 0.0301,
      "velocity": 88,
      "chip": "ym2612"
    },
    {
      "channel": 3,
      "note": 59,
      "start": 97.2029,
      "duration": 0.0602,
      "velocity": 98,
      "chip": "ym2612"
    },
    {
      "channel": 1,
      "note": 52,
      "start": 97.316,
      "duration": 0.0801,
      "velocity": 88,
      "chip": "ym2612"
    },
    {
      "channel": 5,
      "note": 64,
      "start": 97.319,
      "duration": 0.094,
      "velocity": 114,
      "chip": "ym2612"
    },
    {
      "channel": 4,
      "note": 34,
      "start": 97.3217,
      "duration": 0.0412,
      "velocity": 114,
      "chip": "ym2612"
    },
    {
      "channel": 4,
      "note": 34,
      "start": 97.4329,
      "duration": 0.1467,
      "velocity": 114,
      "chip": "ym2612"
    },
    {
      "channel": 3,
      "note": 64,
      "start": 97.4358,
      "duration": 0.0938,
      "velocity": 98,
      "chip": "ym2612"
    },
    {
      "channel": 1,
      "note": 52,
      "start": 97.5657,
      "duration": 0.0805,
      "velocity": 88,
      "chip": "ym2612"
    },
    {
      "channel": 2,
      "note": 67,
      "start": 97.5693,
      "duration": 0.0271,
      "velocity": 101,
      "chip": "ym2612"
    },
    {
      "channel": 3,
      "note": 59,
      "start": 97.683,
      "duration": 0.0633,
      "velocity": 98,
      "chip": "ym2612"
    },
    {
      "channel": 2,
      "note": 69,
      "start": 97.6866,
      "duration": 0.0765,
      "velocity": 101,
      "chip": "ym2612"
    },
    {
      "channel": 0,
      "note": 64,
      "start": 97.6895,
      "duration": 0.0732,
      "velocity": 101,
      "chip": "ym2612"
    },
    {
      "channel": 5,
      "note": 33,
      "start": 97.7998,
      "duration": 0.1132,
      "velocity": 113,
      "chip": "ym2612"
    },
    {
      "channel": 1,
      "note": 52,
      "start": 97.8023,
      "duration": 0.0938,
      "velocity": 88,
      "chip": "ym2612"
    },
    {
      "channel": 4,
      "note": 64,
      "start": 97.8056,
      "duration": 0.0907,
      "velocity": 114,
      "chip": "ym2612"
    },
    {
      "channel": 3,
      "note": 59,
      "start": 97.9165,
      "duration": 0.063,
      "velocity": 98,
      "chip": "ym2612"
    },
    {
      "channel": 0,
      "note": 64,
      "start": 97.9195,
      "duration": 0.1933,
      "velocity": 101,
      "chip": "ym2612"
    },
    {
      "channel": 2,
      "note": 69,
      "start": 97.9225,
      "duration": 0.2739,
      "velocity": 101,
      "chip": "ym2612"
    },
    {
      "channel": 5,
      "note": 40,
      "start": 98.0493,
      "duration": 0.1971,
      "velocity": 113,
      "chip": "ym2612"
    },
    {
      "channel": 1,
      "note": 55,
      "start": 98.0518,
      "duration": 0.2111,
      "velocity": 88,
      "chip": "ym2612"
    },
    {
      "channel": 4,
      "note": 116,
      "start": 98.0548,
      "duration": 0.0081,
      "velocity": 114,
      "chip": "ym2612"
    },
    {
      "channel": 3,
      "note": 62,
      "start": 98.0576,
      "duration": 0.0554,
      "velocity": 98,
      "chip": "ym2612"
    },
    {
      "channel": 4,
      "note": 116,
      "start": 98.1661,
      "duration": 0.0636,
      "velocity": 114,
      "chip": "ym2612"
    },
    {
      "channel": 3,
      "note": 59,
      "start": 98.169,
      "duration": 0.0606,
      "velocity": 98,
      "chip": "ym2612"
    },
    {
      "channel": 1,
      "note": 57,
      "start": 98.2829,
      "duration": 0.0967,
      "velocity": 88,
      "chip": "ym2612"
    },
    {
      "channel": 4,
      "note": 116,
      "start": 98.2857,
      "duration": 0.0606,
      "velocity": 114,
      "chip": "ym2612"
    },
    {
      "channel": 0,
      "note": 64,
      "start": 98.2885,
      "duration": 0.091,
      "velocity": 114,
      "chip": "ym2612"
    },
    {
      "channel": 3,
      "note": 64,
      "start": 98.2913,
      "duration": 0.0884,
      "velocity": 98,
      "chip": "ym2612"
    },
    {
      "channel": 2,
      "note": 62,
      "start": 98.2945,
      "duration": 0.0854,
      "velocity": 101,
      "chip": "ym2612"
    },
    {
      "channel": 5,
      "note": 67,
      "start": 98.2983,
      "duration": 0.0646,
      "velocity": 101,
      "chip": "ym2612"
    },
    {
      "channel": 4,
      "note": 40,
      "start": 98.3993,
      "duration": 0.097,
      "velocity": 113,
      "chip": "ym2612"
    },
    {
      "channel": 0,
      "note": 116,
      "start": 98.4021,
      "duration": 0.0441,
      "velocity": 114,
      "chip": "ym2612"
    },
    {
      "channel": 3,
      "note": 59,
      "start": 98.4049,
      "duration": 0.058,
      "velocity": 98,
      "chip": "ym2612"
    },
    {
      "channel": 4,
      "note": 33,
      "start": 98.5326,
      "duration": 0.1137,
      "velocity": 113,
      "chip": "ym2612"
    },
    {
      "channel": 1,
      "note": 52,
      "start": 98.5352,
      "duration": 0.0609,
      "velocity": 88,
      "chip": "ym2612"
    },
    {
      "channel": 0,
      "note": 116,
      "start": 98.5383,
      "duration": 0.0912,
      "velocity": 114,
      "chip": "ym2612"
    },
    {
      "channel": 3,
      "note": 59,
      "start": 98.5414,
      "duration": 0.0381,
      "velocity": 98,
      "chip": "ym2612"
    },
    {
      "channel": 3,
      "note": 59,
      "start": 98.6497,
      "duration": 0.0632,
      "velocity": 98,
      "chip": "ym2612"
    },
    {
      "channel": 4,
      "note": 33,
      "start": 98.7659,
      "duration": 0.0138,
      "velocity": 113,
      "chip": "ym2612"
    },
    {
      "channel": 1,
      "note": 52,
      "start": 98.7686,
      "duration": 0.061,
      "velocity": 88,
      "chip": "ym2612"
    },
    {
      "channel": 0,
      "note": 64,
      "start": 98.7712,
      "duration": 0.0916,
      "velocity": 114,
      "chip": "ym2612"
    },
    {
      "channel": 3,
      "note": 59,
      "start": 98.774,
      "duration": 0.0721,
      "velocity": 98,
      "chip": "ym2612"
    },
    {
      "channel": 4,
      "note": 33,
      "start": 98.8828,
      "duration": 0.0968,
      "velocity": 113,
      "chip": "ym2612"
    },
    {
      "channel": 1,
      "note": 52,
      "start": 98.8856,
      "duration": 0.0773,
      "velocity": 88,
      "chip": "ym2612"
    },
    {
      "channel": 3,
      "note": 59,
      "start": 98.8886,
      "duration": 0.0576,
      "velocity": 98,
      "chip": "ym2612"
    },
    {
      "channel": 4,
      "note": 40,
      "start": 99.016,
      "duration": 0.2471,
      "velocity": 113,
      "chip": "ym2612"
    },
    {
      "channel": 3,
      "note": 64,
      "start": 99.0191,
      "duration": 0.0937,
      "velocity": 98,
      "chip": "ym2612"
    },
    {
      "channel": 5,
      "note": 76,
      "start": 99.0221,
      "duration": 0.0575,
      "velocity": 101,
      "chip": "ym2612"
    },
    {
      "channel": 2,
      "note": 71,
      "start": 99.0251,
      "duration": 0.0547,
      "velocity": 101,
      "chip": "ym2612"
    },
    {
      "channel": 1,
      "note": 52,
      "start": 99.1324,
      "duration": 0.0804,
      "velocity": 88,
      "chip": "ym2612"
    },
    {
      "channel": 3,
      "note": 59,
      "start": 99.1357,
      "duration": 0.0773,
      "velocity": 98,
      "chip": "ym2612"
    },
    {
      "channel": 5,
      "note": 69,
      "start": 99.1386,
      "duration": 0.0746,
      "velocity": 101,
      "chip": "ym2612"
    },
    {
      "channel": 2,
      "note": 74,
      "start": 99.1417,
      "duration": 0.0382,
      "velocity": 101,
      "chip": "ym2612"
    },
    {
      "channel": 1,
      "note": 52,
      "start": 99.2492,
      "duration": 0.0803,
      "velocity": 88,
      "chip": "ym2612"
    },
    {
      "channel": 0,
      "note": 64,
      "start": 99.2516,
      "duration": 0.0946,
      "velocity": 114,
      "chip": "ym2612"
    },
    {
      "channel": 3,
      "note": 64,
      "start": 99.3666,
      "duration": 0.0962,
      "velocity": 98,
      "chip": "ym2612"
    },
    {
      "channel": 5,
      "note": 69,
      "start": 99.3698,
      "duration": 0.2432,
      "velocity": 101,
      "chip": "ym2612"
    },
    {
      "channel": 2,
      "note": 74,
      "start": 99.3729,
      "duration": 0.1903,
      "velocity": 101,
      "chip": "ym2612"
    },
    {
      "channel": 1,
      "note": 52,
      "start": 99.499,
      "duration": 0.0639,
      "velocity": 88,
      "chip": "ym2612"
    },
    {
      "channel": 1,
      "note": 52,
      "start": 99.7327,
      "duration": 0.1135,
      "velocity": 88,
      "chip": "ym2612"
    },
    {
      "channel": 0,
      "note": 64,
      "start": 99.7354,
      "duration": 0.0774,
      "velocity": 114,
      "chip": "ym2612"
    },
    {
      "channel": 5,
      "note": 76,
      "start": 99.739,
      "duration": 0.0573,
      "velocity": 101,
      "chip": "ym2612"
    },
    {
      "channel": 2,
      "note": 71,
      "start": 99.7419,
      "duration": 0.0545,
      "velocity": 101,
      "chip": "ym2612"
    },
    {
      "channel": 1,
      "note": 50,
      "start": 99.9823,
      "duration": 0.1138,
      "velocity": 88,
      "chip": "ym2612"
    },
    {
      "channel": 5,
      "note": 67,
      "start": 99.9858,
      "duration": 0.0272,
      "velocity": 101,
      "chip": "ym2612"
    },
    {
      "channel": 2,
      "note": 62,
      "start": 99.9889,
      "duration": 0.0074,
      "velocity": 101,
      "chip": "ym2612"
    },
    {
      "channel": 5,
      "note": 69,
      "start": 100.1002,
      "duration": 0.0795,
      "velocity": 101,
      "chip": "ym2612"
    },
    {
      "channel": 2,
      "note": 64,
      "start": 100.1037,
      "duration": 0.0927,
      "velocity": 101,
      "chip": "ym2612"
    },
    {
      "channel": 4,
      "note": 40,
      "start": 100.216,
      "duration": 0.0136,
      "velocity": 113,
      "chip": "ym2612"
    },
    {
      "channel": 1,
      "note": 47,
      "start": 100.2184,
      "duration": 0.1111,
      "velocity": 88,
      "chip": "ym2612"
    },
    {
      "channel": 0,
      "note": 64,
      "start": 100.2209,
      "duration": 0.0752,
      "velocity": 114,
      "chip": "ym2612"
    },
    {
      "channel": 4,
      "note": 40,
      "start": 100.3325,
      "duration": 0.0971,
      "velocity": 113,
      "chip": "ym2612"
    },
    {
      "channel": 5,
      "note": 64,
      "start": 100.3359,
      "duration": 0.0938,
      "velocity": 101,
      "chip": "ym2612"
    },
    {
      "channel": 2,
      "note": 69,
      "start": 100.3392,
      "duration": 0.0739,
      "velocity": 101,
      "chip": "ym2612"
    },
    {
      "channel": 4,
      "note": 33,
      "start": 100.4659,
      "duration": 0.0638,
      "velocity": 113,
      "chip": "ym2612"
    },
    {
      "channel": 1,
      "note": 52,
      "start": 100.4684,
      "duration": 0.0611,
      "velocity": 88,
      "chip": "ym2612"
    },
    {
      "channel": 3,
      "note": 40,
      "start": 100.4719,
      "duration": 0.441,
      "velocity": 93,
      "chip": "ym2612"
    },
    {
      "channel": 0,
      "note": 62,
      "start": 100.4756,
      "duration": 0.0538,
      "velocity": 98,
      "chip": "ym2612"
    },
    {
      "channel": 2,
      "note": 70,
      "start": 100.4784,
      "duration": 0.0515,
      "velocity": 98,
      "chip": "ym2612"
    },
    {
      "channel": 4,
      "note": 33,
      "start": 100.6993,
      "duration": 0.0637,
      "velocity": 113,
      "chip": "ym2612"
    },
    {
      "channel": 1,
      "note": 52,
      "start": 100.702,
      "duration": 0.0609,
      "velocity": 88,
      "chip": "ym2612"
    },
    {
      "channel": 5,
      "note": 64,
      "start": 100.7049,
      "duration": 0.0914,
      "velocity": 114,
      "chip": "ym2612"
    },
    {
      "channel": 0,
      "note": 69,
      "start": 100.7077,
      "duration": 0.0717,
      "velocity": 98,
      "chip": "ym2612"
    },
    {
      "channel": 2,
      "note": 62,
      "start": 100.7105,
      "duration": 0.0693,
      "velocity": 98,
      "chip": "ym2612"
    },
    {
      "channel": 4,
      "note": 33,
      "start": 100.8161,
      "duration": 0.0969,
      "velocity": 113,
      "chip": "ym2612"
    },
    {
      "channel": 1,
      "note": 52,
      "start": 100.8188,
      "duration": 0.0773,
      "velocity": 88,
      "chip": "ym2612"
    },
    {
      "channel": 4,
      "note": 40,
      "start": 100.9492,
      "duration": 0.2305,
      "velocity": 113,
      "chip": "ym2612"
    },
    {
      "channel": 0,
      "note": 67,
      "start": 100.9525,
      "duration": 0.0436,
      "velocity": 98,
      "chip": "ym2612"
    },
    {
      "channel": 2,
      "note": 62,
      "start": 100.9555,
      "duration": 0.0075,
      "velocity": 98,
      "chip": "ym2612"
    },
    {
      "channel": 1,
      "note": 52,
      "start": 101.066,
      "duration": 0.0302,
      "velocity": 88,
      "chip": "ym2612"
    },
    {
      "channel": 0,
      "note": 62,
      "start": 101.0691,
      "duration": 0.0938,
      "velocity": 98,
      "chip": "ym2612"
    },
    {
      "channel": 1,
      "note": 52,
      "start": 101.1831,
      "duration": 0.0796,
      "velocity": 88,
      "chip": "ym2612"
    },
    {
      "channel": 5,
      "note": 64,
      "start": 101.1859,
      "duration": 0.0937,
      "velocity": 114,
      "chip": "ym2612"
    },
    {
      "channel": 3,
      "note": 34,
      "start": 101.1887,
      "duration": 0.0576,
      "velocity": 114,
      "chip": "ym2612"
    },
    {
      "channel": 3,
      "note": 34,
      "start": 101.2999,
      "duration": 0.1464,
      "velocity": 114,
      "chip": "ym2612"
    },
    {
      "channel": 0,
      "note": 67,
      "start": 101.3032,
      "duration": 0.2929,
      "velocity": 98,
      "chip": "ym2612"
    },
    {
      "channel": 2,
      "note": 62,
      "start": 101.3062,
      "duration": 0.2401,
      "velocity": 98,
      "chip": "ym2612"
    },
    {
      "channel": 1,
      "note": 52,
      "start": 101.4324,
      "duration": 0.0638,
      "velocity": 88,
      "chip": "ym2612"
    },
    {
      "channel": 4,
      "note": 33,
      "start": 101.666,
      "duration": 0.1637,
      "velocity": 113,
      "chip": "ym2612"
    },
    {
      "channel": 1,
      "note": 52,
      "start": 101.6685,
      "duration": 0.0943,
      "velocity": 88,
      "chip": "ym2612"
    },
    {
      "channel": 3,
      "note": 64,
      "start": 101.6714,
      "duration": 0.0749,
      "velocity": 114,
      "chip": "ym2612"
    },
    {
      "channel": 0,
      "note": 64,
      "start": 101.6743,
      "duration": 0.0552,
      "velocity": 98,
      "chip": "ym2612"
    },
    {
      "channel": 2,
      "note": 69,
      "start": 101.6771,
      "duration": 0.0527,
      "velocity": 98,
      "chip": "ym2612"
    },
    {
      "channel": 4,
      "note": 40,
      "start": 101.916,
      "duration": 0.1136,
      "velocity": 113,
      "chip": "ym2612"
    },
    {
      "channel": 1,
      "note": 55,
      "start": 101.9186,
      "duration": 0.211,
      "velocity": 88,
      "chip": "ym2612"
    },
    {
      "channel": 3,
      "note": 116,
      "start": 101.9214,
      "duration": 0.0083,
      "velocity": 114,
      "chip": "ym2612"
    },
    {
      "channel": 0,
      "note": 62,
      "start": 101.9244,
      "duration": 0.0551,
      "velocity": 98,
      "chip": "ym2612"
    },
    {
      "channel": 2,
      "note": 67,
      "start": 101.9277,
      "duration": 0.0187,
      "velocity": 98,
      "chip": "ym2612"
    },
    {
      "channel": 3,
      "note": 116,
      "start": 102.0328,
      "duration": 0.0467,
      "velocity": 114,
      "chip": "ym2612"
    },
    {
      "channel": 1,
      "note": 57,
      "start": 102.1492,
      "duration": 0.097,
      "velocity": 88,
      "chip": "ym2612"
    },
    {
      "channel": 3,
      "note": 116,
      "start": 102.1519,
      "duration": 0.061,
      "velocity": 114,
      "chip": "ym2612"
    },
    {
      "channel": 5,
      "note": 64,
      "start": 102.1544,
      "duration": 0.0586,
      "velocity": 114,
      "chip": "ym2612"
    },
    {
      "channel": 0,
      "note": 64,
      "start": 102.1573,
      "duration": 0.0721,
      "velocity": 98,
      "chip": "ym2612"
    },
    {
      "channel": 2,
      "note": 69,
      "start": 102.1604,
      "duration": 0.0529,
      "velocity": 98,
      "chip": "ym2612"
    },
    {
      "channel": 4,
      "note": 40,
      "start": 102.266,
      "duration": 0.0803,
      "velocity": 113,
      "chip": "ym2612"
    },
    {
      "channel": 3,
      "note": 116,
      "start": 102.2688,
      "duration": 0.0441,
      "velocity": 114,
      "chip": "ym2612"
    },
    {
      "channel": 4,
      "note": 33,
      "start": 102.3826,
      "duration": 0.1304,
      "velocity": 113,
      "chip": "ym2612"
    },
    {
      "channel": 1,
      "note": 52,
      "start": 102.3852,
      "duration": 0.0779,
      "velocity": 88,
      "chip": "ym2612"
    },
    {
      "channel": 5,
      "note": 38,
      "start": 102.388,
      "duration": 0.375,
      "velocity": 93,
      "chip": "ym2612"
    },
    {
      "channel": 3,
      "note": 116,
      "start": 102.3911,
      "duration": 0.1051,
      "velocity": 114,
      "chip": "ym2612"
    },
    {
      "channel": 0,
      "note": 64,
      "start": 102.3939,
      "duration": 0.069,
      "velocity": 98,
      "chip": "ym2612"
    },
    {
      "channel": 2,
      "note": 70,
      "start": 102.3972,
      "duration": 0.0492,
      "velocity": 98,
      "chip": "ym2612"
    },
    {
      "channel": 4,
      "note": 33,
      "start": 102.633,
      "duration": 0.0634,
      "velocity": 113,
      "chip": "ym2612"
    },
    {
      "channel": 1,
      "note": 52,
      "start": 102.6357,
      "duration": 0.0605,
      "velocity": 88,
      "chip": "ym2612"
    },
    {
      "channel": 3,
      "note": 64,
      "start": 102.6386,
      "duration": 0.0742,
      "velocity": 114,
      "chip": "ym2612"
    },
    {
      "channel": 0,
      "note": 69,
      "start": 102.6413,
      "duration": 0.0548,
      "velocity": 98,
      "chip": "ym2612"
    },
    {
      "channel": 2,
      "note": 64,
      "start": 102.6447,
      "duration": 0.0683,
      "velocity": 98,
      "chip": "ym2612"
    },
    {
      "channel": 4,
      "note": 33,
      "start": 102.7491,
      "duration": 0.0806,
      "velocity": 113,
      "chip": "ym2612"
    },
    {
      "channel": 1,
      "note": 52,
      "start": 102.7518,
      "duration": 0.0777,
      "velocity": 88,
      "chip": "ym2612"
    },
    {
      "channel": 4,
      "note": 40,
      "start": 102.866,
      "duration": 0.3137,
      "velocity": 113,
      "chip": "ym2612"
    },
    {
      "channel": 0,
      "note": 64,
      "start": 102.8692,
      "duration": 0.0436,
      "velocity": 98,
      "chip": "ym2612"
    },
    {
      "channel": 2,
      "note": 67,
      "start": 102.8721,
      "duration": 0.041,
      "velocity": 98,
      "chip": "ym2612"
    },
    {
      "channel": 1,
      "note": 52,
      "start": 102.9995,
      "duration": 0.0801,
      "velocity": 88,
      "chip": "ym2612"
    },
    {
      "channel": 0,
      "note": 69,
      "start": 103.0026,
      "duration": 0.0768,
      "velocity": 98,
      "chip": "ym2612"
    },
    {
      "channel": 2,
      "note": 64,
      "start": 103.0056,
      "duration": 0.0408,
      "velocity": 98,
      "chip": "ym2612"
    },
    {
      "channel": 1,
      "note": 52,
      "start": 103.1158,
      "duration": 0.0804,
      "velocity": 88,
      "chip": "ym2612"
    },
    {
      "channel": 3,
      "note": 64,
      "start": 103.1184,
      "duration": 0.0779,
      "velocity": 114,
      "chip": "ym2612"
    },
    {
      "channel": 0,
      "note": 67,
      "start": 103.233,
      "duration": 0.0631,
      "velocity": 98,
      "chip": "ym2612"
    },
    {
      "channel": 2,
      "note": 64,
      "start": 103.2364,
      "duration": 0.0933,
      "velocity": 98,
      "chip": "ym2612"
    },
    {
      "channel": 1,
      "note": 52,
      "start": 103.3489,
      "duration": 0.0807,
      "velocity": 88,
      "chip": "ym2612"
    },
    {
      "channel": 4,
      "note": 33,
      "start": 103.5992,
      "duration": 0.1137,
      "velocity": 113,
      "chip": "ym2612"
    },
    {
      "channel": 1,
      "note": 52,
      "start": 103.6018,
      "duration": 0.111,
      "velocity": 88,
      "chip": "ym2612"
    },
    {
      "channel": 3,
      "note": 64,
      "start": 103.6045,
      "duration": 0.0751,
      "velocity": 114,
      "chip": "ym2612"
    },
    {
      "channel": 5,
      "note": 116,
      "start": 103.6072,
      "duration": 0.0225,
      "velocity": 114,
      "chip": "ym2612"
    },
    {
      "channel": 0,
      "note": 59,
      "start": 103.6105,
      "duration": 0.0524,
      "velocity": 101,
      "chip": "ym2612"
    },
    {
      "channel": 3,
      "note": 116,
      "start": 103.7163,
      "duration": 0.0799,
      "velocity": 114,
      "chip": "ym2612"
    },
    {
      "channel": 0,
      "note": 59,
      "start": 103.7192,
      "duration": 0.0769,
      "velocity": 101,
      "chip": "ym2612"
    },
    {
      "channel": 4,
      "note": 40,
      "start": 103.8326,
      "duration": 0.147,
      "velocity": 113,
      "chip": "ym2612"
    },
    {
      "channel": 1,
      "note": 50,
      "start": 103.835,
      "duration": 0.1278,
      "velocity": 88,
      "chip": "ym2612"
    },
    {
      "channel": 0,
      "note": 59,
      "start": 103.8382,
      "duration": 0.0579,
      "velocity": 101,
      "chip": "ym2612"
    },
    {
      "channel": 0,
      "note": 64,
      "start": 103.9671,
      "duration": 0.0957,
      "velocity": 101,
      "chip": "ym2612"
    },
    {
      "channel": 2,
      "note": 62,
      "start": 103.9701,
      "duration": 0.043,
      "velocity": 101,
      "chip": "ym2612"
    },
    {
      "channel": 5,
      "note": 59,
      "start": 103.9732,
      "duration": 0.0732,
      "velocity": 101,
      "chip": "ym2612"
    },
    {
      "channel": 1,
      "note": 47,
      "start": 104.0822,
      "duration": 0.1139,
      "velocity": 88,
      "chip": "ym2612"
    },
    {
      "channel": 3,
      "note": 116,
      "start": 104.0855,
      "duration": 0.0275,
      "velocity": 114,
      "chip": "ym2612"
    },
    {
      "channel": 4,
      "note": 64,
      "start": 104.0883,
      "duration": 0.0913,
      "velocity": 114,
      "chip": "ym2612"
    },
    {
      "channel": 3,
      "note": 116,
      "start": 104.1997,
      "duration": 0.0798,
      "velocity": 114,
      "chip": "ym2612"
    },
    {
      "channel": 0,
      "note": 64,
      "start": 104.2029,
      "duration": 0.11,
      "velocity": 101,
      "chip": "ym2612"
    },
    {
      "channel": 2,
      "note": 33,
      "start": 104.3167,
      "duration": 0.08,
      "velocity": 113,
      "chip": "ym2612"
    },
    {
      "channel": 1,
      "note": 52,
      "start": 104.3192,
      "duration": 0.077,
      "velocity": 88,
      "chip": "ym2612"
    },
    {
      "channel": 5,
      "note": 36,
      "start": 104.322,
      "duration": 0.4743,
      "velocity": 93,
      "chip": "ym2612"
    },
    {
      "channel": 4,
      "note": 64,
      "start": 104.3252,
      "duration": 0.0712,
      "velocity": 98,
      "chip": "ym2612"
    },
    {
      "channel": 3,
      "note": 70,
      "start": 104.3282,
      "duration": 0.0682,
      "velocity": 98,
      "chip": "ym2612"
    },
    {
      "channel": 2,
      "note": 33,
      "start": 104.5661,
      "duration": 0.0136,
      "velocity": 113,
      "chip": "ym2612"
    },
    {
      "channel": 1,
      "note": 52,
      "start": 104.5688,
      "duration": 0.0607,
      "velocity": 88,
      "chip": "ym2612"
    },
    {
      "channel": 0,
      "note": 64,
      "start": 104.5717,
      "duration": 0.0744,
      "velocity": 114,
      "chip": "ym2612"
    },
    {
      "channel": 3,
      "note": 64,
      "start": 104.5745,
      "duration": 0.0717,
      "velocity": 98,
      "chip": "ym2612"
    },
    {
      "channel": 4,
      "note": 69,
      "start": 104.5774,
      "duration": 0.0522,
      "velocity": 98,
      "chip": "ym2612"
    },
    {
      "channel": 2,
      "note": 33,
      "start": 104.6826,
      "duration": 0.0971,
      "velocity": 113,
      "chip": "ym2612"
    },
    {
      "channel": 1,
      "note": 52,
      "start": 104.6857,
      "duration": 0.0772,
      "velocity": 88,
      "chip": "ym2612"
    },
    {
      "channel": 2,
      "note": 40,
      "start": 104.7995,
      "duration": 0.2636,
      "velocity": 113,
      "chip": "ym2612"
    },
    {
      "channel": 3,
      "note": 64,
      "start": 104.8027,
      "duration": 0.0602,
      "velocity": 98,
      "chip": "ym2612"
    },
    {
      "channel": 4,
      "note": 67,
      "start": 104.806,
      "duration": 0.0403,
      "velocity": 98,
      "chip": "ym2612"
    },
    {
      "channel": 1,
      "note": 52,
      "start": 104.9327,
      "duration": 0.0302,
      "velocity": 88,
      "chip": "ym2612"
    },
    {
      "channel": 3,
      "note": 69,
      "start": 104.9359,
      "duration": 0.0603,
      "velocity": 98,
      "chip": "ym2612"
    },
    {
      "channel": 4,
      "note": 64,
      "start": 104.9388,
      "duration": 0.0074,
      "velocity": 98,
      "chip": "ym2612"
    },
    {
      "channel": 1,
      "note": 52,
      "start": 105.0493,
      "duration": 0.0803,
      "velocity": 88,
      "chip": "ym2612"
    },
    {
      "channel": 0,
      "note": 64,
      "start": 105.052,
      "duration": 0.0776,
      "velocity": 114,
      "chip": "ym2612"
    },
    {
      "channel": 5,
      "note": 34,
      "start": 105.0548,
      "duration": 0.0249,
      "velocity": 114,
      "chip": "ym2612"
    },
    {
      "channel": 0,
      "note": 34,
      "start": 105.1664,
      "duration": 0.1131,
      "velocity": 114,
      "chip": "ym2612"
    },
    {
      "channel": 3,
      "note": 67,
      "start": 105.1694,
      "duration": 0.2602,
      "velocity": 98,
      "chip": "ym2612"
    },
    {
      "channel": 4,
      "note": 64,
      "start": 105.1723,
      "duration": 0.2407,
      "velocity": 98,
      "chip": "ym2612"
    },
    {
      "channel": 1,
      "note": 52,
      "start": 105.2824,
      "duration": 0.0805,
      "velocity": 88,
      "chip": "ym2612"
    },
    {
      "channel": 2,
      "note": 33,
      "start": 105.5328,
      "duration": 0.0137,
      "velocity": 113,
      "chip": "ym2612"
    },
    {
      "channel": 1,
      "note": 52,
      "start": 105.5354,
      "duration": 0.0941,
      "velocity": 88,
      "chip": "ym2612"
    },
    {
      "channel": 0,
      "note": 64,
      "start": 105.5381,
      "duration": 0.0747,
      "velocity": 114,
      "chip": "ym2612"
    },
    {
      "channel": 3,
      "note": 64,
      "start": 105.5411,
      "duration": 0.072,
      "velocity": 98,
      "chip": "ym2612"
    },
    {
      "channel": 4,
      "note": 69,
      "start": 105.5443,
      "duration": 0.0352,
      "velocity": 98,
      "chip": "ym2612"
    },
    {
      "channel": 2,
      "note": 33,
      "start": 105.6493,
      "duration": 0.0971,
      "velocity": 113,
      "chip": "ym2612"
    },
    {
      "channel": 2,
      "note": 40,
      "start": 105.7665,
      "duration": 0.1298,
      "velocity": 113,
      "chip": "ym2612"
    },
    {
      "channel": 1,
      "note": 55,
      "start": 105.7691,
      "duration": 0.2272,
      "velocity": 88,
      "chip": "ym2612"
    },
    {
      "channel": 0,
      "note": 116,
      "start": 105.7718,
      "duration": 0.0244,
      "velocity": 114,
      "chip": "ym2612"
    },
    {
      "channel": 3,
      "note": 67,
      "start": 105.7746,
      "duration": 0.055,
      "velocity": 98,
      "chip": "ym2612"
    },
    {
      "channel": 4,
      "note": 64,
      "start": 105.7773,
      "duration": 0.0524,
      "velocity": 98,
      "chip": "ym2612"
    },
    {
      "channel": 0,
      "note": 116,
      "start": 105.8994,
      "duration": 0.0467,
      "velocity": 114,
      "chip": "ym2612"
    },
    {
      "channel": 1,
      "note": 57,
      "start": 106.0159,
      "duration": 0.097,
      "velocity": 88,
      "chip": "ym2612"
    },
    {
      "channel": 0,
      "note": 116,
      "start": 106.0185,
      "duration": 0.0443,
      "velocity": 114,
      "chip": "ym2612"
    },
    {
      "channel": 5,
      "note": 64,
      "start": 106.0212,
      "duration": 0.0752,
      "velocity": 114,
      "chip": "ym2612"
    },
    {
      "channel": 3,
      "note": 64,
      "start": 106.0242,
      "duration": 0.072,
      "velocity": 98,
      "chip": "ym2612"
    },
    {
      "channel": 4,
      "note": 69,
      "start": 106.0271,
      "duration": 0.0359,
      "velocity": 98,
      "chip": "ym2612"
    },
    {
      "channel": 2,
      "note": 40,
      "start": 106.1326,
      "duration": 0.1139,
      "velocity": 113,
      "chip": "ym2612"
    },
    {
      "channel": 0,
      "note": 116,
      "start": 106.1356,
      "duration": 0.0439,
      "velocity": 114,
      "chip": "ym2612"
    },
    {
      "channel": 2,
      "note": 33,
      "start": 106.2495,
      "duration": 0.0969,
      "velocity": 113,
      "chip": "ym2612"
    },
    {
      "channel": 1,
      "note": 52,
      "start": 106.2521,
      "duration": 0.0775,
      "velocity": 88,
      "chip": "ym2612"
    },
    {
      "channel": 4,
      "note": 38,
      "start": 106.2549,
      "duration": 0.4247,
      "velocity": 93,
      "chip": "ym2612"
    },
    {
      "channel": 0,
      "note": 116,
      "start": 106.2576,
      "duration": 0.0886,
      "velocity": 114,
      "chip": "ym2612"
    },
    {
      "channel": 3,
      "note": 64,
      "start": 106.2605,
      "duration": 0.0692,
      "velocity": 98,
      "chip": "ym2612"
    },
    {
      "channel": 5,
      "note": 70,
      "start": 106.2641,
      "duration": 0.0489,
      "velocity": 98,
      "chip": "ym2612"
    },
    {
      "channel": 2,
      "note": 33,
      "start": 106.4995,
      "duration": 0.0137,
      "velocity": 113,
      "chip": "ym2612"
    },
    {
      "channel": 1,
      "note": 52,
      "start": 106.5026,
      "duration": 0.0436,
      "velocity": 88,
      "chip": "ym2612"
    },
    {
      "channel": 0,
      "note": 64,
      "start": 106.5053,
      "duration": 0.0742,
      "velocity": 114,
      "chip": "ym2612"
    },
    {
      "channel": 3,
      "note": 69,
      "start": 106.5083,
      "duration": 0.0714,
      "velocity": 98,
      "chip": "ym2612"
    },
    {
      "channel": 5,
      "note": 64,
      "start": 106.5111,
      "duration": 0.0688,
      "velocity": 98,
      "chip": "ym2612"
    },
    {
      "channel": 2,
      "note": 33,
      "start": 106.616,
      "duration": 0.0805,
      "velocity": 113,
      "chip": "ym2612"
    },
    {
      "channel": 1,
      "note": 52,
      "start": 106.6187,
      "duration": 0.0774,
      "velocity": 88,
      "chip": "ym2612"
    },
    {
      "channel": 2,
      "note": 40,
      "start": 106.7327,
      "duration": 0.297,
      "velocity": 113,
      "chip": "ym2612"
    },
    {
      "channel": 3,
      "note": 62,
      "start": 106.7361,
      "duration": 0.0436,
      "velocity": 98,
      "chip": "ym2612"
    },
    {
      "channel": 5,
      "note": 67,
      "start": 106.739,
      "duration": 0.024,
      "velocity": 98,
      "chip": "ym2612"
    },
    {
      "channel": 1,
      "note": 52,
      "start": 106.8658,
      "duration": 0.0637,
      "velocity": 88,
      "chip": "ym2612"
    },
    {
      "channel": 3,
      "note": 69,
      "start": 106.8694,
      "duration": 0.0602,
      "velocity": 98,
      "chip": "ym2612"
    },
    {
      "channel": 5,
      "note": 64,
      "start": 106.8724,
      "duration": 0.0406,
      "velocity": 98,
      "chip": "ym2612"
    },
    {
      "channel": 1,
      "note": 52,
      "start": 106.9826,
      "duration": 0.0803,
      "velocity": 88,
      "chip": "ym2612"
    },
    {
      "channel": 0,
      "note": 64,
      "start": 106.985,
      "duration": 0.0778,
      "velocity": 114,
      "chip": "ym2612"
    },
    {
      "channel": 3,
      "note": 62,
      "start": 107.0999,
      "duration": 0.0964,
      "velocity": 98,
      "chip": "ym2612"
    },
    {
      "channel": 5,
      "note": 67,
      "start": 107.1029,
      "duration": 0.0768,
      "velocity": 98,
      "chip": "ym2612"
    },
    {
      "channel": 4,
      "note": 59,
      "start": 107.1061,
      "duration": 0.0568,
      "velocity": 101,
      "chip": "ym2612"
    },
    {
      "channel": 1,
      "note": 52,
      "start": 107.2157,
      "duration": 0.0804,
      "velocity": 88,
      "chip": "ym2612"
    },
    {
      "channel": 4,
      "note": 64,
      "start": 107.219,
      "duration": 0.0939,
      "velocity": 101,
      "chip": "ym2612"
    },
    {
      "channel": 4,
      "note": 59,
      "start": 107.3503,
      "duration": 0.0294,
      "velocity": 101,
      "chip": "ym2612"
    },
    {
      "channel": 2,
      "note": 33,
      "start": 107.4665,
      "duration": 0.1134,
      "velocity": 113,
      "chip": "ym2612"
    },
    {
      "channel": 1,
      "note": 52,
      "start": 107.469,
      "duration": 0.1105,
      "velocity": 88,
      "chip": "ym2612"
    },
    {
      "channel": 0,
      "note": 64,
      "start": 107.4716,
      "duration": 0.0412,
      "velocity": 114,
      "chip": "ym2612"
    },
    {
      "channel": 4,
      "note": 59,
      "start": 107.4747,
      "duration": 0.0716,
      "velocity": 101,
      "chip": "ym2612"
    },
    {
      "channel": 4,
      "note": 62,
      "start": 107.5833,
      "duration": 0.0796,
      "velocity": 101,
      "chip": "ym2612"
    },
    {
      "channel": 2,
      "note": 40,
      "start": 107.6993,
      "duration": 0.2305,
      "velocity": 113,
      "chip": "ym2612"
    },
    {
      "channel": 1,
      "note": 50,
      "start": 107.7017,
      "duration": 0.1277,
      "velocity": 88,
      "chip": "ym2612"
    },
    {
      "channel": 4,
      "note": 59,
      "start": 107.7051,
      "duration": 0.0411,
      "velocity": 101,
      "chip": "ym2612"
    },
    {
      "channel": 5,
      "note": 61,
      "start": 107.7082,
      "duration": 0.0049,
      "velocity": 101,
      "chip": "ym2612"
    },
    {
      "channel": 4,
      "note": 59,
      "start": 107.8334,
      "duration": 0.0629,
      "velocity": 101,
      "chip": "ym2612"
    },
    {
      "channel": 2,
      "note": 33,
      "start": 107.9495,
      "duration": 0.0471,
      "velocity": 113,
      "chip": "ym2612"
    },
    {
      "channel": 1,
      "note": 47,
      "start": 107.9519,
      "duration": 0.111,
      "velocity": 88,
      "chip": "ym2612"
    },
    {
      "channel": 0,
      "note": 64,
      "start": 107.9545,
      "duration": 0.0417,
      "velocity": 114,
      "chip": "ym2612"
    },
    {
      "channel": 3,
      "note": 34,
      "start": 107.9571,
      "duration": 0.0224,
      "velocity": 114,
      "chip": "ym2612"
    },
    {
      "channel": 5,
      "note": 116,
      "start": 107.9603,
      "duration": 0.0027,
      "velocity": 114,
      "chip": "ym2612"
    },
    {
      "channel": 2,
      "note": 40,
      "start": 108.0661,
      "duration": 0.1136,
      "velocity": 113,
      "chip": "ym2612"
    },
    {
      "channel": 0,
      "note": 116,
      "start": 108.069,
      "duration": 0.0605,
      "velocity": 114,
      "chip": "ym2612"
    },
    {
      "channel": 3,
      "note": 34,
      "start": 108.0716,
      "duration": 0.0913,
      "velocity": 114,
      "chip": "ym2612"
    },
    {
      "channel": 4,
      "note": 64,
      "start": 108.0753,
      "duration": 0.0877,
      "velocity": 101,
      "chip": "ym2612"
    },
    {
      "channel": 2,
      "note": 33,
      "start": 108.1838,
      "duration": 0.0627,
      "velocity": 113,
      "chip": "ym2612"
    },
    {
      "channel": 1,
      "note": 52,
      "start": 108.1868,
      "duration": 0.0762,
      "velocity": 88,
      "chip": "ym2612"
    },
    {
      "channel": 5,
      "note": 40,
      "start": 108.1894,
      "duration": 0.4236,
      "velocity": 93,
      "chip": "ym2612"
    },
    {
      "channel": 0,
      "note": 69,
      "start": 108.1936,
      "duration": 0.0692,
      "velocity": 98,
      "chip": "ym2612"
    },
    {
      "channel": 3,
      "note": 64,
      "start": 108.1969,
      "duration": 0.0494,
      "velocity": 98,
      "chip": "ym2612"
    },
    {
      "channel": 2,
      "note": 33,
      "start": 108.4327,
      "duration": 0.0303,
      "velocity": 113,
      "chip": "ym2612"
    },
    {
      "channel": 1,
      "note": 52,
      "start": 108.4354,
      "duration": 0.0442,
      "velocity": 88,
      "chip": "ym2612"
    },
    {
      "channel": 4,
      "note": 64,
      "start": 108.4385,
      "duration": 0.0746,
      "velocity": 114,
      "chip": "ym2612"
    },
    {
      "channel": 0,
      "note": 67,
      "start": 108.4415,
      "duration": 0.038,
      "velocity": 98,
      "chip": "ym2612"
    },
    {
      "channel": 3,
      "note": 64,
      "start": 108.4444,
      "duration": 0.0685,
      "velocity": 98,
      "chip": "ym2612"
    },
    {
      "channel": 2,
      "note": 33,
      "start": 108.5492,
      "duration": 0.064,
      "velocity": 113,
      "chip": "ym2612"
    },
    {
      "channel": 1,
      "note": 52,
      "start": 108.5519,
      "duration": 0.0777,
      "velocity": 88,
      "chip": "ym2612"
    },
    {
      "channel": 2,
      "note": 40,
      "start": 108.6661,
      "duration": 0.147,
      "velocity": 113,
      "chip": "ym2612"
    },
    {
      "channel": 0,
      "note": 69,
      "start": 108.6693,
      "duration": 0.0602,
      "velocity": 98,
      "chip": "ym2612"
    },
    {
      "channel": 3,
      "note": 64,
      "start": 108.6722,
      "duration": 0.174,
      "velocity": 98,
      "chip": "ym2612"
    },
    {
      "channel": 1,
      "note": 52,
      "start": 108.7826,
      "duration": 0.0468,
      "velocity": 88,
      "chip": "ym2612"
    },
    {
      "channel": 0,
      "note": 67,
      "start": 108.7857,
      "duration": 0.077,
      "velocity": 98,
      "chip": "ym2612"
    },
    {
      "channel": 1,
      "note": 52,
      "start": 108.9159,
      "duration": 0.0803,
      "velocity": 88,
      "chip": "ym2612"
    },
    {
      "channel": 4,
      "note": 64,
      "start": 108.9188,
      "duration": 0.0942,
      "velocity": 114,
      "chip": "ym2612"
    },
    {
      "channel": 5,
      "note": 34,
      "start": 108.9216,
      "duration": 0.0248,
      "velocity": 114,
      "chip": "ym2612"
    },
    {
      "channel": 4,
      "note": 34,
      "start": 109.0329,
      "duration": 0.13,
      "velocity": 114,
      "chip": "ym2612"
    },
    {
      "channel": 0,
      "note": 70,
      "start": 109.0358,
      "duration": 0.2103,
      "velocity": 98,
      "chip": "ym2612"
    },
    {
      "channel": 3,
      "note": 64,
      "start": 109.039,
      "duration": 0.1907,
      "velocity": 98,
      "chip": "ym2612"
    },
    {
      "channel": 1,
      "note": 52,
      "start": 109.149,
      "duration": 0.0805,
      "velocity": 88,
      "chip": "ym2612"
    },
    {
      "channel": 2,
      "note": 33,
      "start": 109.3994,
      "duration": 0.1136,
      "velocity": 113,
      "chip": "ym2612"
    },
    {
      "channel": 1,
      "note": 52,
      "start": 109.402,
      "duration": 0.0941,
      "velocity": 88,
      "chip": "ym2612"
    },
    {
      "channel": 4,
      "note": 64,
      "start": 109.4053,
      "duration": 0.0911,
      "velocity": 114,
      "chip": "ym2612"
    },
    {
      "channel": 0,
      "note": 69,
      "start": 109.4082,
      "duration": 0.0713,
      "velocity": 98,
      "chip": "ym2612"
    },
    {
      "channel": 3,
      "note": 64,
      "start": 109.4109,
      "duration": 0.0688,
      "velocity": 98,
      "chip": "ym2612"
    },
    {
      "channel": 2,
      "note": 40,
      "start": 109.6331,
      "duration": 0.1966,
      "velocity": 113,
      "chip": "ym2612"
    },
    {
      "channel": 1,
      "note": 55,
      "start": 109.6359,
      "duration": 0.2103,
      "velocity": 88,
      "chip": "ym2612"
    },
    {
      "channel": 4,
      "note": 116,
      "start": 109.6389,
      "duration": 0.0408,
      "velocity": 114,
      "chip": "ym2612"
    },
    {
      "channel": 0,
      "note": 67,
      "start": 109.6417,
      "duration": 0.0712,
      "velocity": 98,
      "chip": "ym2612"
    },
    {
      "channel": 3,
      "note": 64,
      "start": 109.6443,
      "duration": 0.0687,
      "velocity": 98,
      "chip": "ym2612"
    },
    {
      "channel": 4,
      "note": 116,
      "start": 109.7494,
      "duration": 0.0636,
      "velocity": 114,
      "chip": "ym2612"
    },
    {
      "channel": 1,
      "note": 57,
      "start": 109.8825,
      "duration": 0.0969,
      "velocity": 88,
      "chip": "ym2612"
    },
    {
      "channel": 4,
      "note": 116,
      "start": 109.8852,
      "duration": 0.0445,
      "velocity": 114,
      "chip": "ym2612"
    },
    {
      "channel": 5,
      "note": 64,
      "start": 109.888,
      "duration": 0.0751,
      "velocity": 114,
      "chip": "ym2612"
    },
    {
      "channel": 0,
      "note": 69,
      "start": 109.8908,
      "duration": 0.0387,
      "velocity": 98,
      "chip": "ym2612"
    },
    {
      "channel": 3,
      "note": 64,
      "start": 109.8941,
      "duration": 0.0688,
      "velocity": 98,
      "chip": "ym2612"
    },
    {
      "channel": 2,
      "note": 40,
      "start": 109.9993,
      "duration": 0.0638,
      "velocity": 113,
      "chip": "ym2612"
    },
    {
      "channel": 4,
      "note": 116,
      "start": 110.0022,
      "duration": 0.0607,
      "velocity": 114,
      "chip": "ym2612"
    },
    {
      "channel": 2,
      "note": 33,
      "start": 110.1161,
      "duration": 0.097,
      "velocity": 113,
      "chip": "ym2612"
    },
    {
      "channel": 1,
      "note": 52,
      "start": 110.1186,
      "duration": 0.0776,
      "velocity": 88,
      "chip": "ym2612"
    },
    {
      "channel": 0,
      "note": 38,
      "start": 110.1212,
      "duration": 0.4249,
      "velocity": 93,
      "chip": "ym2612"
    },
    {
      "channel": 4,
      "note": 116,
      "start": 110.124,
      "duration": 0.1722,
      "velocity": 114,
      "chip": "ym2612"
    },
    {
      "channel": 3,
      "note": 64,
      "start": 110.1269,
      "duration": 0.0694,
      "velocity": 98,
      "chip": "ym2612"
    },
    {
      "channel": 5,
      "note": 67,
      "start": 110.1302,
      "duration": 0.0495,
      "velocity": 98,
      "chip": "ym2612"
    },
    {
      "channel": 2,
      "note": 33,
      "start": 110.3661,
      "duration": 0.0303,
      "velocity": 113,
      "chip": "ym2612"
    },
    {
      "channel": 1,
      "note": 52,
      "start": 110.3688,
      "duration": 0.0439,
      "velocity": 88,
      "chip": "ym2612"
    },
    {
      "channel": 4,
      "note": 64,
      "start": 110.3721,
      "duration": 0.0742,
      "velocity": 114,
      "chip": "ym2612"
    },
    {
      "channel": 3,
      "note": 64,
      "start": 110.3751,
      "duration": 0.0711,
      "velocity": 98,
      "chip": "ym2612"
    },
    {
      "channel": 5,
      "note": 69,
      "start": 110.378,
      "duration": 0.0183,
      "velocity": 98,
      "chip": "ym2612"
    },
    {
      "channel": 2,
      "note": 33,
      "start": 110.4826,
      "duration": 0.0805,
      "velocity": 113,
      "chip": "ym2612"
    },
    {
      "channel": 1,
      "note": 52,
      "start": 110.4853,
      "duration": 0.0776,
      "velocity": 88,
      "chip": "ym2612"
    },
    {
      "channel": 2,
      "note": 40,
      "start": 110.5999,
      "duration": 0.1634,
      "velocity": 113,
      "chip": "ym2612"
    },
    {
      "channel": 3,
      "note": 69,
      "start": 110.6032,
      "duration": 0.1097,
      "velocity": 98,
      "chip": "ym2612"
    },
    {
      "channel": 5,
      "note": 64,
      "start": 110.6065,
      "duration": 0.1566,
      "velocity": 98,
      "chip": "ym2612"
    },
    {
      "channel": 1,
      "note": 52,
      "start": 110.7159,
      "duration": 0.0803,
      "velocity": 88,
      "chip": "ym2612"
    },
    {
      "channel": 3,
      "note": 67,
      "start": 110.7191,
      "duration": 0.0772,
      "velocity": 98,
      "chip": "ym2612"
    },
    {
      "channel": 1,
      "note": 52,
      "start": 110.8492,
      "duration": 0.0636,
      "velocity": 88,
      "chip": "ym2612"
    },
    {
      "channel": 4,
      "note": 64,
      "start": 110.8518,
      "duration": 0.0612,
      "velocity": 114,
      "chip": "ym2612"
    },
    {
      "channel": 3,
      "note": 64,
      "start": 110.9665,
      "duration": 0.213,
      "velocity": 98,
      "chip": "ym2612"
    },
    {
      "channel": 5,
      "note": 70,
      "start": 110.9694,
      "duration": 0.2103,
      "velocity": 98,
      "chip": "ym2612"
    },
    {
      "channel": 1,
      "note": 52,
      "start": 111.0827,
      "duration": 0.0802,
      "velocity": 88,
      "chip": "ym2612"
    },
    {
      "channel": 1,
      "note": 52,
      "start": 111.3324,
      "duration": 0.1138,
      "velocity": 88,
      "chip": "ym2612"
    },
    {
      "channel": 4,
      "note": 64,
      "start": 111.335,
      "duration": 0.0613,
      "velocity": 114,
      "chip": "ym2612"
    },
    {
      "channel": 3,
      "note": 64,
      "start": 111.338,
      "duration": 0.0582,
      "velocity": 98,
      "chip": "ym2612"
    },
    {
      "channel": 5,
      "note": 69,
      "start": 111.3413,
      "duration": 0.0383,
      "velocity": 98,
      "chip": "ym2612"
    },
    {
      "channel": 0,
      "note": 59,
      "start": 111.3445,
      "duration": 0.0017,
      "velocity": 101,
      "chip": "ym2612"
    },
    {
      "channel": 0,
      "note": 59,
      "start": 111.4499,
      "duration": 0.0795,
      "velocity": 101,
      "chip": "ym2612"
    },
    {
      "channel": 1,
      "note": 50,
      "start": 111.5656,
      "duration": 0.1139,
      "velocity": 88,
      "chip": "ym2612"
    },
    {
      "channel": 0,
      "note": 64,
      "start": 111.5686,
      "duration": 0.0776,
      "velocity": 101,
      "chip": "ym2612"
    },
    {
      "channel": 0,
      "note": 59,
      "start": 111.6832,
      "duration": 0.0964,
      "velocity": 101,
      "chip": "ym2612"
    },
    {
      "channel": 2,
      "note": 40,
      "start": 111.816,
      "duration": 0.0304,
      "velocity": 113,
      "chip": "ym2612"
    },
    {
      "channel": 1,
      "note": 47,
      "start": 111.8184,
      "duration": 0.1111,
      "velocity": 88,
      "chip": "ym2612"
    },
    {
      "channel": 4,
      "note": 64,
      "start": 111.8211,
      "duration": 0.0585,
      "velocity": 114,
      "chip": "ym2612"
    },
    {
      "channel": 0,
      "note": 62,
      "start": 111.824,
      "duration": 0.0388,
      "velocity": 101,
      "chip": "ym2612"
    },
    {
      "channel": 2,
      "note": 40,
      "start": 111.9327,
      "duration": 0.0971,
      "velocity": 113,
      "chip": "ym2612"
    },
    {
      "channel": 0,
      "note": 64,
      "start": 111.9361,
      "duration": 0.0934,
      "velocity": 101,
      "chip": "ym2612"
    },
    {
      "channel": 2,
      "note": 33,
      "start": 112.0493,
      "duration": 0.0972,
      "velocity": 113,
      "chip": "ym2612"
    },
    {
      "channel": 1,
      "note": 52,
      "start": 112.0518,
      "duration": 0.0777,
      "velocity": 88,
      "chip": "ym2612"
    },
    {
      "channel": 5,
      "note": 36,
      "start": 112.0546,
      "duration": 0.4917,
      "velocity": 93,
      "chip": "ym2612"
    },
    {
      "channel": 3,
      "note": 62,
      "start": 112.0578,
      "duration": 0.0885,
      "velocity": 98,
      "chip": "ym2612"
    },
    {
      "channel": 4,
      "note": 67,
      "start": 112.0608,
      "duration": 0.069,
      "velocity": 98,
      "chip": "ym2612"
    },
    {
      "channel": 0,
      "note": 64,
      "start": 112.1672,
      "duration": 0.0791,
      "velocity": 101,
      "chip": "ym2612"
    },
    {
      "channel": 2,
      "note": 33,
      "start": 112.2994,
      "duration": 0.0303,
      "velocity": 113,
      "chip": "ym2612"
    },
    {
      "channel": 1,
      "note": 52,
      "start": 112.3022,
      "duration": 0.0441,
      "velocity": 88,
      "chip": "ym2612"
    },
    {
      "channel": 4,
      "note": 64,
      "start": 112.3049,
      "duration": 0.0581,
      "velocity": 114,
      "chip": "ym2612"
    },
    {
      "channel": 2,
      "note": 33,
      "start": 112.416,
      "duration": 0.0806,
      "velocity": 113,
      "chip": "ym2612"
    },
    {
      "channel": 1,
      "note": 52,
      "start": 112.4186,
      "duration": 0.0776,
      "velocity": 88,
      "chip": "ym2612"
    },
    {
      "channel": 3,
      "note": 64,
      "start": 112.4217,
      "duration": 0.0746,
      "velocity": 98,
      "chip": "ym2612"
    },
    {
      "channel": 0,
      "note": 69,
      "start": 112.4247,
      "duration": 0.038,
      "velocity": 98,
      "chip": "ym2612"
    },
    {
      "channel": 2,
      "note": 40,
      "start": 112.5328,
      "duration": 0.1636,
      "velocity": 113,
      "chip": "ym2612"
    },
    {
      "channel": 1,
      "note": 52,
      "start": 112.6492,
      "duration": 0.0469,
      "velocity": 88,
      "chip": "ym2612"
    },
    {
      "channel": 0,
      "note": 62,
      "start": 112.6523,
      "duration": 0.0771,
      "velocity": 98,
      "chip": "ym2612"
    },
    {
      "channel": 3,
      "note": 67,
      "start": 112.6555,
      "duration": 0.0574,
      "velocity": 98,
      "chip": "ym2612"
    },
    {
      "channel": 1,
      "note": 52,
      "start": 112.7829,
      "duration": 0.0632,
      "velocity": 88,
      "chip": "ym2612"
    },
    {
      "channel": 4,
      "note": 64,
      "start": 112.7858,
      "duration": 0.0938,
      "velocity": 114,
      "chip": "ym2612"
    },
    {
      "channel": 5,
      "note": 34,
      "start": 112.7886,
      "duration": 0.0244,
      "velocity": 114,
      "chip": "ym2612"
    },
    {
      "channel": 4,
      "note": 34,
      "start": 112.8996,
      "duration": 0.1301,
      "velocity": 114,
      "chip": "ym2612"
    },
    {
      "channel": 1,
      "note": 52,
      "start": 113.0156,
      "duration": 0.0806,
      "velocity": 88,
      "chip": "ym2612"
    },
    {
      "channel": 0,
      "note": 64,
      "start": 113.0188,
      "duration": 0.144,
      "velocity": 98,
      "chip": "ym2612"
    },
    {
      "channel": 3,
      "note": 70,
      "start": 113.0216,
      "duration": 0.108,
      "velocity": 98,
      "chip": "ym2612"
    },
    {
      "channel": 2,
      "note": 33,
      "start": 113.2665,
      "duration": 0.1132,
      "velocity": 113,
      "chip": "ym2612"
    },
    {
      "channel": 1,
      "note": 52,
      "start": 113.269,
      "duration": 0.0939,
      "velocity": 88,
      "chip": "ym2612"
    },
    {
      "channel": 4,
      "note": 64,
      "start": 113.2723,
      "duration": 0.0908,
      "velocity": 114,
      "chip": "ym2612"
    },
    {
      "channel": 0,
      "note": 69,
      "start": 113.2752,
      "duration": 0.0543,
      "velocity": 98,
      "chip": "ym2612"
    },
    {
      "channel": 3,
      "note": 64,
      "start": 113.2778,
      "duration": 0.0519,
      "velocity": 98,
      "chip": "ym2612"
    },
    {
      "channel": 2,
      "note": 40,
      "start": 113.4993,
      "duration": 0.1971,
      "velocity": 113,
      "chip": "ym2612"
    },
    {
      "channel": 1,
      "note": 55,
      "start": 113.5019,
      "duration": 0.211,
      "velocity": 88,
      "chip": "ym2612"
    },
    {
      "channel": 4,
      "note": 116,
      "start": 113.5048,
      "duration": 0.0081,
      "velocity": 114,
      "chip": "ym2612"
    },
    {
      "channel": 0,
      "note": 67,
      "start": 113.5077,
      "duration": 0.0551,
      "velocity": 98,
      "chip": "ym2612"
    },
    {
      "channel": 3,
      "note": 64,
      "start": 113.5108,
      "duration": 0.0522,
      "velocity": 98,
      "chip": "ym2612"
    },
    {
      "channel": 4,
      "note": 116,
      "start": 113.6161,
      "duration": 0.0636,
      "velocity": 114,
      "chip": "ym2612"
    },
    {
      "channel": 1,
      "note": 57,
      "start": 113.7492,
      "duration": 0.0969,
      "velocity": 88,
      "chip": "ym2612"
    },
    {
      "channel": 4,
      "note": 116,
      "start": 113.752,
      "duration": 0.0445,
      "velocity": 114,
      "chip": "ym2612"
    },
    {
      "channel": 5,
      "note": 64,
      "start": 113.7547,
      "duration": 0.0917,
      "velocity": 114,
      "chip": "ym2612"
    },
    {
      "channel": 0,
      "note": 69,
      "start": 113.7574,
      "duration": 0.0387,
      "velocity": 98,
      "chip": "ym2612"
    },
    {
      "channel": 3,
      "note": 64,
      "start": 113.7601,
      "duration": 0.0362,
      "velocity": 98,
      "chip": "ym2612"
    },
    {
      "channel": 2,
      "note": 40,
      "start": 113.8661,
      "duration": 0.0968,
      "velocity": 113,
      "chip": "ym2612"
    },
    {
      "channel": 4,
      "note": 116,
      "start": 113.869,
      "duration": 0.0272,
      "velocity": 114,
      "chip": "ym2612"
    },
    {
      "channel": 2,
      "note": 33,
      "start": 113.9827,
      "duration": 0.1137,
      "velocity": 113,
      "chip": "ym2612"
    },
    {
      "channel": 1,
      "note": 52,
      "start": 113.9854,
      "duration": 0.1107,
      "velocity": 88,
      "chip": "ym2612"
    },
    {
      "channel": 0,
      "note": 52,
      "start": 113.9882,
      "duration": 0.0102,
      "velocity": 88,
      "chip": "ym2612"
    },
    {
      "channel": 3,
      "note": 38,
      "start": 113.991,
      "duration": 0.4389,
      "velocity": 93,
      "chip": "ym2612"
    },
    {
      "channel": 4,
      "note": 116,
      "start": 113.9941,
      "duration": 0.0856,
      "velocity": 114,
      "chip": "ym2612"
    },
    {
      "channel": 5,
      "note": 64,
      "start": 113.9975,
      "duration": 0.0655,
      "velocity": 98,
      "chip": "ym2612"
    },
    {
      "channel": 0,
      "note": 67,
      "start": 114.0006,
      "duration": 0.0455,
      "velocity": 98,
      "chip": "ym2612"
    },
    {
      "channel": 2,
      "note": 33,
      "start": 114.2327,
      "duration": 0.0136,
      "velocity": 113,
      "chip": "ym2612"
    },
    {
      "channel": 1,
      "note": 52,
      "start": 114.2359,
      "duration": 0.0436,
      "velocity": 88,
      "chip": "ym2612"
    },
    {
      "channel": 4,
      "note": 64,
      "start": 114.2386,
      "duration": 0.091,
      "velocity": 114,
      "chip": "ym2612"
    },
    {
      "channel": 2,
      "note": 33,
      "start": 114.3496,
      "duration": 0.0968,
      "velocity": 113,
      "chip": "ym2612"
    },
    {
      "channel": 1,
      "note": 52,
      "start": 114.3523,
      "duration": 0.0774,
      "velocity": 88,
      "chip": "ym2612"
    },
    {
      "channel": 0,
      "note": 64,
      "start": 114.3554,
      "duration": 0.0742,
      "velocity": 98,
      "chip": "ym2612"
    },
    {
      "channel": 5,
      "note": 67,
      "start": 114.3586,
      "duration": 0.0714,
      "velocity": 98,
      "chip": "ym2612"
    },
    {
      "channel": 2,
      "note": 40,
      "start": 114.466,
      "duration": 0.2637,
      "velocity": 113,
      "chip": "ym2612"
    },
    {
      "channel": 1,
      "note": 52,
      "start": 114.5826,
      "duration": 0.0636,
      "velocity": 88,
      "chip": "ym2612"
    },
    {
      "channel": 0,
      "note": 64,
      "start": 114.5856,
      "duration": 0.0772,
      "velocity": 98,
      "chip": "ym2612"
    },
    {
      "channel": 5,
      "note": 67,
      "start": 114.5886,
      "duration": 0.0579,
      "velocity": 98,
      "chip": "ym2612"
    },
    {
      "channel": 1,
      "note": 52,
      "start": 114.716,
      "duration": 0.0968,
      "velocity": 88,
      "chip": "ym2612"
    },
    {
      "channel": 4,
      "note": 64,
      "start": 114.7186,
      "duration": 0.0944,
      "velocity": 114,
      "chip": "ym2612"
    },
    {
      "channel": 0,
      "note": 67,
      "start": 114.8332,
      "duration": 0.0796,
      "velocity": 98,
      "chip": "ym2612"
    },
    {
      "channel": 5,
      "note": 64,
      "start": 114.8362,
      "duration": 0.0935,
      "velocity": 98,
      "chip": "ym2612"
    },
    {
      "channel": 1,
      "note": 52,
      "start": 114.949,
      "duration": 0.0972,
      "velocity": 88,
      "chip": "ym2612"
    },
    {
      "channel": 3,
      "note": 76,
      "start": 114.9525,
      "duration": 0.0772,
      "velocity": 101,
      "chip": "ym2612"
    },
    {
      "channel": 2,
      "note": 71,
      "start": 114.9556,
      "duration": 0.0242,
      "velocity": 101,
      "chip": "ym2612"
    },
    {
      "channel": 3,
      "note": 74,
      "start": 115.0667,
      "duration": 0.0796,
      "velocity": 101,
      "chip": "ym2612"
    },
    {
      "channel": 2,
      "note": 69,
      "start": 115.0696,
      "duration": 0.0769,
      "velocity": 101,
      "chip": "ym2612"
    },
    {
      "channel": 1,
      "note": 52,
      "start": 115.1824,
      "duration": 0.1637,
      "velocity": 88,
      "chip": "ym2612"
    },
    {
      "channel": 4,
      "note": 64,
      "start": 115.1852,
      "duration": 0.0777,
      "velocity": 114,
      "chip": "ym2612"
    },
    {
      "channel": 3,
      "note": 69,
      "start": 115.3167,
      "duration": 0.1796,
      "velocity": 101,
      "chip": "ym2612"
    },
    {
      "channel": 2,
      "note": 74,
      "start": 115.3201,
      "duration": 0.2096,
      "velocity": 101,
      "chip": "ym2612"
    },
    {
      "channel": 1,
      "note": 50,
      "start": 115.4328,
      "duration": 0.1967,
      "velocity": 88,
      "chip": "ym2612"
    },
    {
      "channel": 3,
      "note": 71,
      "start": 115.55,
      "duration": 0.0796,
      "velocity": 101,
      "chip": "ym2612"
    },
    {
      "channel": 2,
      "note": 76,
      "start": 115.553,
      "duration": 0.0768,
      "velocity": 101,
      "chip": "ym2612"
    },
    {
      "channel": 0,
      "note": 40,
      "start": 115.666,
      "duration": 0.0302,
      "velocity": 113,
      "chip": "ym2612"
    },
    {
      "channel": 1,
      "note": 47,
      "start": 115.6686,
      "duration": 0.1443,
      "velocity": 88,
      "chip": "ym2612"
    },
    {
      "channel": 4,
      "note": 64,
      "start": 115.6712,
      "duration": 0.0752,
      "velocity": 114,
      "chip": "ym2612"
    },
    {
      "channel": 3,
      "note": 76,
      "start": 115.6743,
      "duration": 0.122,
      "velocity": 101,
      "chip": "ym2612"
    },
    {
      "channel": 2,
      "note": 71,
      "start": 115.6775,
      "duration": 0.1022,
      "velocity": 101,
      "chip": "ym2612"
    },
    {
      "channel": 0,
      "note": 40,
      "start": 115.799,
      "duration": 0.0971,
      "velocity": 113,
      "chip": "ym2612"
    },
    {
      "channel": 0,
      "note": 33,
      "start": 115.9158,
      "duration": 0.0804,
      "velocity": 113,
      "chip": "ym2612"
    },
    {
      "channel": 1,
      "note": 52,
      "start": 115.9184,
      "duration": 0.0945,
      "velocity": 88,
      "chip": "ym2612"
    },
    {
      "channel": 5,
      "note": 40,
      "start": 115.9216,
      "duration": 0.3915,
      "velocity": 93,
      "chip": "ym2612"
    },
    {
      "channel": 4,
      "note": 59,
      "start": 115.9248,
      "duration": 0.0548,
      "velocity": 98,
      "chip": "ym2612"
    },
    {
      "channel": 0,
      "note": 33,
      "start": 116.1492,
      "duration": 0.0636,
      "velocity": 113,
      "chip": "ym2612"
    },
    {
      "channel": 1,
      "note": 52,
      "start": 116.1518,
      "duration": 0.0443,
      "velocity": 88,
      "chip": "ym2612"
    },
    {
      "channel": 2,
      "note": 64,
      "start": 116.1548,
      "duration": 0.0917,
      "velocity": 114,
      "chip": "ym2612"
    },
    {
      "channel": 4,
      "note": 59,
      "start": 116.158,
      "duration": 0.0716,
      "velocity": 98,
      "chip": "ym2612"
    },
    {
      "channel": 0,
      "note": 33,
      "start": 116.2826,
      "duration": 0.0968,
      "velocity": 113,
      "chip": "ym2612"
    },
    {
      "channel": 1,
      "note": 52,
      "start": 116.2853,
      "duration": 0.1109,
      "velocity": 88,
      "chip": "ym2612"
    },
    {
      "channel": 0,
      "note": 40,
      "start": 116.3992,
      "duration": 0.2302,
      "velocity": 113,
      "chip": "ym2612"
    },
    {
      "channel": 4,
      "note": 59,
      "start": 116.4026,
      "duration": 0.0604,
      "velocity": 98,
      "chip": "ym2612"
    },
    {
      "channel": 1,
      "note": 52,
      "start": 116.516,
      "duration": 0.0635,
      "velocity": 88,
      "chip": "ym2612"
    },
    {
      "channel": 4,
      "note": 59,
      "start": 116.5191,
      "duration": 0.0772,
      "velocity": 98,
      "chip": "ym2612"
    },
    {
      "channel": 1,
      "note": 52,
      "start": 116.633,
      "duration": 0.0966,
      "velocity": 88,
      "chip": "ym2612"
    },
    {
      "channel": 2,
      "note": 64,
      "start": 116.6359,
      "duration": 0.0939,
      "velocity": 114,
      "chip": "ym2612"
    },
    {
      "channel": 3,
      "note": 34,
      "start": 116.6387,
      "duration": 0.0576,
      "velocity": 114,
      "chip": "ym2612"
    },
    {
      "channel": 4,
      "note": 59,
      "start": 116.6416,
      "duration": 0.038,
      "velocity": 98,
      "chip": "ym2612"
    },
    {
      "channel": 3,
      "note": 34,
      "start": 116.7666,
      "duration": 0.1297,
      "velocity": 114,
      "chip": "ym2612"
    },
    {
      "channel": 4,
      "note": 64,
      "start": 116.7696,
      "duration": 0.0933,
      "velocity": 98,
      "chip": "ym2612"
    },
    {
      "channel": 1,
      "note": 52,
      "start": 116.8825,
      "duration": 0.0803,
      "velocity": 88,
      "chip": "ym2612"
    },
    {
      "channel": 4,
      "note": 59,
      "start": 116.9998,
      "duration": 0.0632,
      "velocity": 98,
      "chip": "ym2612"
    },
    {
      "channel": 0,
      "note": 33,
      "start": 117.1158,
      "duration": 0.1636,
      "velocity": 113,
      "chip": "ym2612"
    },
    {
      "channel": 1,
      "note": 52,
      "start": 117.1184,
      "duration": 0.0945,
      "velocity": 88,
      "chip": "ym2612"
    },
    {
      "channel": 3,
      "note": 64,
      "start": 117.1212,
      "duration": 0.0749,
      "velocity": 114,
      "chip": "ym2612"
    },
    {
      "channel": 4,
      "note": 59,
      "start": 117.2499,
      "duration": 0.0464,
      "velocity": 98,
      "chip": "ym2612"
    },
    {
      "channel": 0,
      "note": 40,
      "start": 117.3658,
      "duration": 0.1136,
      "velocity": 113,
      "chip": "ym2612"
    },
    {
      "channel": 1,
      "note": 52,
      "start": 117.3683,
      "duration": 0.1612,
      "velocity": 88,
      "chip": "ym2612"
    },
    {
      "channel": 3,
      "note": 116,
      "start": 117.3712,
      "duration": 0.0112,
      "velocity": 114,
      "chip": "ym2612"
    },
    {
      "channel": 4,
      "note": 59,
      "start": 117.3739,
      "duration": 0.0557,
      "velocity": 98,
      "chip": "ym2612"
    },
    {
      "channel": 5,
      "note": 71,
      "start": 117.3775,
      "duration": 0.0522,
      "velocity": 101,
      "chip": "ym2612"
    },
    {
      "channel": 2,
      "note": 76,
      "start": 117.3808,
      "duration": 0.0655,
      "velocity": 101,
      "chip": "ym2612"
    },
    {
      "channel": 3,
      "note": 116,
      "start": 117.4827,
      "duration": 0.0636,
      "velocity": 114,
      "chip": "ym2612"
    },
    {
      "channel": 4,
      "note": 59,
      "start": 117.4859,
      "duration": 0.0605,
      "velocity": 98,
      "chip": "ym2612"
    },
    {
      "channel": 5,
      "note": 69,
      "start": 117.489,
      "duration": 0.0576,
      "velocity": 101,
      "chip": "ym2612"
    },
    {
      "channel": 2,
      "note": 74,
      "start": 117.492,
      "duration": 0.071,
      "velocity": 101,
      "chip": "ym2612"
    },
    {
      "channel": 1,
      "note": 51,
      "start": 117.5991,
      "duration": 0.097,
      "velocity": 88,
      "chip": "ym2612"
    },
    {
      "channel": 3,
      "note": 116,
      "start": 117.6018,
      "duration": 0.0613,
      "velocity": 114,
      "chip": "ym2612"
    },
    {
      "channel": 0,
      "note": 64,
      "start": 117.6044,
      "duration": 0.0584,
      "velocity": 114,
      "chip": "ym2612"
    },
    {
      "channel": 4,
      "note": 64,
      "start": 117.6073,
      "duration": 0.1223,
      "velocity": 98,
      "chip": "ym2612"
    },
    {
      "channel": 5,
      "note": 40,
      "start": 117.7327,
      "duration": 0.0636,
      "velocity": 113,
      "chip": "ym2612"
    },
    {
      "channel": 0,
      "note": 116,
      "start": 117.7355,
      "duration": 0.0273,
      "velocity": 114,
      "chip": "ym2612"
    },
    {
      "channel": 4,
      "note": 59,
      "start": 117.7384,
      "duration": 0.0578,
      "velocity": 98,
      "chip": "ym2612"
    },
    {
      "channel": 2,
      "note": 69,
      "start": 117.7416,
      "duration": 0.2715,
      "velocity": 101,
      "chip": "ym2612"
    },
    {
      "channel": 3,
      "note": 74,
      "start": 117.7446,
      "duration": 0.2349,
      "velocity": 101,
      "chip": "ym2612"
    },
    {
      "channel": 5,
      "note": 33,
      "start": 117.8493,
      "duration": 0.1136,
      "velocity": 113,
      "chip": "ym2612"
    },
    {
      "channel": 1,
      "note": 50,
      "start": 117.8518,
      "duration": 0.0945,
      "velocity": 88,
      "chip": "ym2612"
    },
    {
      "channel": 0,
      "note": 38,
      "start": 117.8546,
      "duration": 0.004,
      "velocity": 93,
      "chip": "ym2612"
    },
    {
      "channel": 4,
      "note": 116,
      "start": 117.8578,
      "duration": 0.0886,
      "velocity": 114,
      "chip": "ym2612"
    },
    {
      "channel": 0,
      "note": 62,
      "start": 117.8607,
      "duration": 0.0688,
      "velocity": 98,
      "chip": "ym2612"
    },
    {
      "channel": 0,
      "note": 59,
      "start": 117.9663,
      "duration": 0.0632,
      "velocity": 98,
      "chip": "ym2612"
    },
    {
      "channel": 5,
      "note": 33,
      "start": 118.0831,
      "duration": 0.0633,
      "velocity": 113,
      "chip": "ym2612"
    },
    {
      "channel": 1,
      "note": 50,
      "start": 118.0858,
      "duration": 0.0771,
      "velocity": 88,
      "chip": "ym2612"
    },
    {
      "channel": 4,
      "note": 64,
      "start": 118.0887,
      "duration": 0.0745,
      "velocity": 114,
      "chip": "ym2612"
    },
    {
      "channel": 0,
      "note": 64,
      "start": 118.0915,
      "duration": 0.088,
      "velocity": 98,
      "chip": "ym2612"
    },
    {
      "channel": 3,
      "note": 71,
      "start": 118.0948,
      "duration": 0.0682,
      "velocity": 101,
      "chip": "ym2612"
    },
    {
      "channel": 2,
      "note": 76,
      "start": 118.0982,
      "duration": 0.0815,
      "velocity": 101,
      "chip": "ym2612"
    },
    {
      "channel": 5,
      "note": 33,
      "start": 118.2158,
      "duration": 0.0641,
      "velocity": 113,
      "chip": "ym2612"
    },
    {
      "channel": 1,
      "note": 62,
      "start": 118.2185,
      "duration": 0.0444,
      "velocity": 88,
      "chip": "ym2612"
    },
    {
      "channel": 0,
      "note": 59,
      "start": 118.2215,
      "duration": 0.058,
      "velocity": 98,
      "chip": "ym2612"
    },
    {
      "channel": 5,
      "note": 40,
      "start": 118.3326,
      "duration": 0.2971,
      "velocity": 113,
      "chip": "ym2612"
    },
    {
      "channel": 0,
      "note": 59,
      "start": 118.3357,
      "duration": 0.0438,
      "velocity": 98,
      "chip": "ym2612"
    },
    {
      "channel": 1,
      "note": 62,
      "start": 118.4497,
      "duration": 0.0798,
      "velocity": 88,
      "chip": "ym2612"
    },
    {
      "channel": 0,
      "note": 59,
      "start": 118.4532,
      "duration": 0.0763,
      "velocity": 98,
      "chip": "ym2612"
    },
    {
      "channel": 1,
      "note": 50,
      "start": 118.5658,
      "duration": 0.0804,
      "velocity": 88,
      "chip": "ym2612"
    },
    {
      "channel": 4,
      "note": 64,
      "start": 118.5684,
      "duration": 0.078,
      "velocity": 114,
      "chip": "ym2612"
    },
    {
      "channel": 0,
      "note": 59,
      "start": 118.6994,
      "duration": 0.0634,
      "velocity": 98,
      "chip": "ym2612"
    },
    {
      "channel": 1,
      "note": 50,
      "start": 118.8158,
      "duration": 0.1805,
      "velocity": 88,
      "chip": "ym2612"
    },
    {
      "channel": 3,
      "note": 67,
      "start": 118.8191,
      "duration": 0.0438,
      "velocity": 101,
      "chip": "ym2612"
    },
    {
      "channel": 2,
      "note": 62,
      "start": 118.8222,
      "duration": 0.0242,
      "velocity": 101,
      "chip": "ym2612"
    },
    {
      "channel": 0,
      "note": 59,
      "start": 118.9328,
      "duration": 0.08,
      "velocity": 98,
      "chip": "ym2612"
    },
    {
      "channel": 3,
      "note": 69,
      "start": 118.9358,
      "duration": 0.0772,
      "velocity": 101,
      "chip": "ym2612"
    },
    {
      "channel": 2,
      "note": 64,
      "start": 118.9391,
      "duration": 0.074,
      "velocity": 101,
      "chip": "ym2612"
    },
    {
      "channel": 5,
      "note": 33,
      "start": 119.0493,
      "duration": 0.1304,
      "velocity": 113,
      "chip": "ym2612"
    },
    {
      "channel": 1,
      "note": 62,
      "start": 119.0518,
      "duration": 0.0943,
      "velocity": 88,
      "chip": "ym2612"
    },
    {
      "channel": 4,
      "note": 64,
      "start": 119.0546,
      "duration": 0.075,
      "velocity": 114,
      "chip": "ym2612"
    },
    {
      "channel": 0,
      "note": 116,
      "start": 119.0574,
      "duration": 0.0387,
      "velocity": 114,
      "chip": "ym2612"
    },
    {
      "channel": 0,
      "note": 116,
      "start": 119.1829,
      "duration": 0.0632,
      "velocity": 114,
      "chip": "ym2612"
    },
    {
      "channel": 3,
      "note": 59,
      "start": 119.1861,
      "duration": 0.0269,
      "velocity": 98,
      "chip": "ym2612"
    },
    {
      "channel": 2,
      "note": 69,
      "start": 119.1893,
      "duration": 0.2905,
      "velocity": 101,
      "chip": "ym2612"
    },
    {
      "channel": 4,
      "note": 64,
      "start": 119.1924,
      "duration": 0.2207,
      "velocity": 101,
      "chip": "ym2612"
    },
    {
      "channel": 5,
      "note": 40,
      "start": 119.2993,
      "duration": 0.1303,
      "velocity": 113,
      "chip": "ym2612"
    },
    {
      "channel": 1,
      "note": 50,
      "start": 119.302,
      "duration": 0.2776,
      "velocity": 88,
      "chip": "ym2612"
    },
    {
      "channel": 3,
      "note": 64,
      "start": 119.305,
      "duration": 0.1079,
      "velocity": 98,
      "chip": "ym2612"
    },
    {
      "channel": 3,
      "note": 59,
      "start": 119.4167,
      "duration": 0.0628,
      "velocity": 98,
      "chip": "ym2612"
    },
    {
      "channel": 0,
      "note": 62,
      "start": 119.5326,
      "duration": 0.0131,
      "velocity": 88,
      "chip": "ym2612"
    },
    {
      "channel": 4,
      "note": 116,
      "start": 119.5361,
      "duration": 0.0437,
      "velocity": 114,
      "chip": "ym2612"
    },
    {
      "channel": 5,
      "note": 64,
      "start": 119.5389,
      "duration": 0.0908,
      "velocity": 114,
      "chip": "ym2612"
    },
    {
      "channel": 3,
      "note": 59,
      "start": 119.5415,
      "duration": 0.0547,
      "velocity": 98,
      "chip": "ym2612"
    },
    {
      "channel": 2,
      "note": 67,
      "start": 119.5447,
      "duration": 0.0518,
      "velocity": 101,
      "chip": "ym2612"
    },
    {
      "channel": 0,
      "note": 62,
      "start": 119.5481,
      "duration": 0.0814,
      "velocity": 101,
      "chip": "ym2612"
    },
    {
      "channel": 4,
      "note": 116,
      "start": 119.6663,
      "duration": 0.0632,
      "velocity": 114,
      "chip": "ym2612"
    },
    {
      "channel": 3,
      "note": 59,
      "start": 119.669,
      "duration": 0.044,
      "velocity": 98,
      "chip": "ym2612"
    },
    {
      "channel": 1,
      "note": 33,
      "start": 119.7831,
      "duration": 0.0797,
      "velocity": 113,
      "chip": "ym2612"
    },
    {
      "channel": 2,
      "note": 48,
      "start": 119.7859,
      "duration": 0.0771,
      "velocity": 88,
      "chip": "ym2612"
    },
    {
      "channel": 0,
      "note": 36,
      "start": 119.7887,
      "duration": 0.474,
      "velocity": 93,
      "chip": "ym2612"
    },
    {
      "channel": 3,
      "note": 59,
      "start": 119.7915,
      "duration": 0.038,
      "velocity": 98,
      "chip": "ym2612"
    },
    {
      "channel": 3,
      "note": 59,
      "start": 119.8996,
      "duration": 0.0632,
      "velocity": 98,
      "chip": "ym2612"
    },
    {
      "channel": 1,
      "note": 33,
      "start": 120.0158,
      "duration": 0.0303,
      "velocity": 113,
      "chip": "ym2612"
    },
    {
      "channel": 2,
      "note": 48,
      "start": 120.019,
      "duration": 0.0775,
      "velocity": 88,
      "chip": "ym2612"
    },
    {
      "channel": 4,
      "note": 64,
      "start": 120.0217,
      "duration": 0.0746,
      "velocity": 114,
      "chip": "ym2612"
    },
    {
      "channel": 3,
      "note": 59,
      "start": 120.0244,
      "duration": 0.0551,
      "velocity": 98,
      "chip": "ym2612"
    },
    {
      "channel": 1,
      "note": 33,
      "start": 120.149,
      "duration": 0.0972,
      "velocity": 113,
      "chip": "ym2612"
    },
    {
      "channel": 2,
      "note": 60,
      "start": 120.1518,
      "duration": 0.0613,
      "velocity": 88,
      "chip": "ym2612"
    },
    {
      "channel": 3,
      "note": 59,
      "start": 120.1546,
      "duration": 0.0416,
      "velocity": 98,
      "chip": "ym2612"
    },
    {
      "channel": 1,
      "note": 40,
      "start": 120.2659,
      "duration": 0.2469,
      "velocity": 113,
      "chip": "ym2612"
    },
    {
      "channel": 3,
      "note": 64,
      "start": 120.2695,
      "duration": 0.0768,
      "velocity": 98,
      "chip": "ym2612"
    },
    {
      "channel": 2,
      "note": 60,
      "start": 120.3827,
      "duration": 0.0805,
      "velocity": 88,
      "chip": "ym2612"
    },
    {
      "channel": 3,
      "note": 59,
      "start": 120.3857,
      "duration": 0.0772,
      "velocity": 98,
      "chip": "ym2612"
    },
    {
      "channel": 2,
      "note": 48,
      "start": 120.4993,
      "duration": 0.0804,
      "velocity": 88,
      "chip": "ym2612"
    },
    {
      "channel": 4,
      "note": 64,
      "start": 120.5021,
      "duration": 0.0775,
      "velocity": 114,
      "chip": "ym2612"
    },
    {
      "channel": 5,
      "note": 34,
      "start": 120.5048,
      "duration": 0.0415,
      "velocity": 114,
      "chip": "ym2612"
    },
    {
      "channel": 4,
      "note": 34,
      "start": 120.6332,
      "duration": 0.1132,
      "velocity": 114,
      "chip": "ym2612"
    },
    {
      "channel": 3,
      "note": 64,
      "start": 120.6359,
      "duration": 0.0602,
      "velocity": 98,
      "chip": "ym2612"
    },
    {
      "channel": 2,
      "note": 48,
      "start": 120.7495,
      "duration": 0.197,
      "velocity": 88,
      "chip": "ym2612"
    },
    {
      "channel": 0,
      "note": 71,
      "start": 120.753,
      "duration": 0.0431,
      "velocity": 101,
      "chip": "ym2612"
    },
    {
      "channel": 1,
      "note": 76,
      "start": 120.7565,
      "duration": 0.023,
      "velocity": 101,
      "chip": "ym2612"
    },
    {
      "channel": 3,
      "note": 59,
      "start": 120.8663,
      "duration": 0.08,
      "velocity": 98,
      "chip": "ym2612"
    },
    {
      "channel": 0,
      "note": 74,
      "start": 120.8693,
      "duration": 0.0602,
      "velocity": 101,
      "chip": "ym2612"
    },
    {
      "channel": 1,
      "note": 69,
      "start": 120.8721,
      "duration": 0.0741,
      "velocity": 101,
      "chip": "ym2612"
    },
    {
      "channel": 5,
      "note": 33,
      "start": 120.9827,
      "duration": 0.0136,
      "velocity": 113,
      "chip": "ym2612"
    },
    {
      "channel": 2,
      "note": 60,
      "start": 120.9855,
      "duration": 0.0942,
      "velocity": 88,
      "chip": "ym2612"
    },
    {
      "channel": 4,
      "note": 64,
      "start": 120.9884,
      "duration": 0.0745,
      "velocity": 114,
      "chip": "ym2612"
    },
    {
      "channel": 5,
      "note": 33,
      "start": 121.1158,
      "duration": 0.0973,
      "velocity": 113,
      "chip": "ym2612"
    },
    {
      "channel": 3,
      "note": 59,
      "start": 121.1192,
      "duration": 0.027,
      "velocity": 98,
      "chip": "ym2612"
    },
    {
      "channel": 0,
      "note": 69,
      "start": 121.1221,
      "duration": 0.224,
      "velocity": 101,
      "chip": "ym2612"
    },
    {
      "channel": 1,
      "note": 74,
      "start": 121.1249,
      "duration": 0.2046,
      "velocity": 101,
      "chip": "ym2612"
    },
    {
      "channel": 5,
      "note": 40,
      "start": 121.233,
      "duration": 0.1134,
      "velocity": 113,
      "chip": "ym2612"
    },
    {
      "channel": 2,
      "note": 48,
      "start": 121.2357,
      "duration": 0.2273,
      "velocity": 88,
      "chip": "ym2612"
    },
    {
      "channel": 4,
      "note": 116,
      "start": 121.2387,
      "duration": 0.0076,
      "velocity": 114,
      "chip": "ym2612"
    },
    {
      "channel": 3,
      "note": 62,
      "start": 121.2415,
      "duration": 0.0881,
      "velocity": 98,
      "chip": "ym2612"
    },
    {
      "channel": 4,
      "note": 116,
      "start": 121.3496,
      "duration": 0.0634,
      "velocity": 114,
      "chip": "ym2612"
    },
    {
      "channel": 3,
      "note": 59,
      "start": 121.3525,
      "duration": 0.0604,
      "velocity": 98,
      "chip": "ym2612"
    },
    {
      "channel": 2,
      "note": 60,
      "start": 121.4662,
      "duration": 0.1135,
      "velocity": 88,
      "chip": "ym2612"
    },
    {
      "channel": 4,
      "note": 116,
      "start": 121.469,
      "duration": 0.0607,
      "velocity": 114,
      "chip": "ym2612"
    },
    {
      "channel": 1,
      "note": 64,
      "start": 121.4717,
      "duration": 0.0745,
      "velocity": 114,
      "chip": "ym2612"
    },
    {
      "channel": 3,
      "note": 64,
      "start": 121.4746,
      "duration": 0.0884,
      "velocity": 98,
      "chip": "ym2612"
    },
    {
      "channel": 0,
      "note": 71,
      "start": 121.4779,
      "duration": 0.0682,
      "velocity": 101,
      "chip": "ym2612"
    },
    {
      "channel": 5,
      "note": 76,
      "start": 121.4813,
      "duration": 0.0819,
      "velocity": 101,
      "chip": "ym2612"
    },
    {
      "channel": 4,
      "note": 40,
      "start": 121.5827,
      "duration": 0.1302,
      "velocity": 113,
      "chip": "ym2612"
    },
    {
      "channel": 1,
      "note": 116,
      "start": 121.5859,
      "duration": 0.0436,
      "velocity": 114,
      "chip": "ym2612"
    },
    {
      "channel": 3,
      "note": 59,
      "start": 121.589,
      "duration": 0.0573,
      "velocity": 98,
      "chip": "ym2612"
    },
    {
      "channel": 4,
      "note": 33,
      "start": 121.716,
      "duration": 0.0971,
      "velocity": 113,
      "chip": "ym2612"
    },
    {
      "channel": 2,
      "note": 50,
      "start": 121.7191,
      "duration": 0.0941,
      "velocity": 88,
      "chip": "ym2612"
    },
    {
      "channel": 0,
      "note": 38,
      "start": 121.7219,
      "duration": 0.4243,
      "velocity": 93,
      "chip": "ym2612"
    },
    {
      "channel": 1,
      "note": 116,
      "start": 121.7246,
      "duration": 0.0883,
      "velocity": 114,
      "chip": "ym2612"
    },
    {
      "channel": 3,
      "note": 59,
      "start": 121.7273,
      "duration": 0.0356,
      "velocity": 98,
      "chip": "ym2612"
    },
    {
      "channel": 3,
      "note": 59,
      "start": 121.8329,
      "duration": 0.0634,
      "velocity": 98,
      "chip": "ym2612"
    },
    {
      "channel": 4,
      "note": 33,
      "start": 121.9493,
      "duration": 0.0137,
      "velocity": 113,
      "chip": "ym2612"
    },
    {
      "channel": 2,
      "note": 50,
      "start": 121.9523,
      "duration": 0.0775,
      "velocity": 88,
      "chip": "ym2612"
    },
    {
      "channel": 1,
      "note": 64,
      "start": 121.9551,
      "duration": 0.0744,
      "velocity": 114,
      "chip": "ym2612"
    },
    {
      "channel": 3,
      "note": 59,
      "start": 121.9579,
      "duration": 0.0717,
      "velocity": 98,
      "chip": "ym2612"
    },
    {
      "channel": 4,
      "note": 33,
      "start": 122.0657,
      "duration": 0.0807,
      "velocity": 113,
      "chip": "ym2612"
    },
    {
      "channel": 2,
      "note": 62,
      "start": 122.0685,
      "duration": 0.078,
      "velocity": 88,
      "chip": "ym2612"
    },
    {
      "channel": 3,
      "note": 59,
      "start": 122.0716,
      "duration": 0.058,
      "velocity": 98,
      "chip": "ym2612"
    },
    {
      "channel": 4,
      "note": 40,
      "start": 122.1993,
      "duration": 0.2969,
      "velocity": 113,
      "chip": "ym2612"
    },
    {
      "channel": 3,
      "note": 64,
      "start": 122.2025,
      "duration": 0.1104,
      "velocity": 98,
      "chip": "ym2612"
    },
    {
      "channel": 2,
      "note": 62,
      "start": 122.3161,
      "duration": 0.0802,
      "velocity": 88,
      "chip": "ym2612"
    },
    {
      "channel": 3,
      "note": 62,
      "start": 122.3193,
      "duration": 0.0602,
      "velocity": 98,
      "chip": "ym2612"
    },
    {
      "channel": 2,
      "note": 50,
      "start": 122.4327,
      "duration": 0.0804,
      "velocity": 88,
      "chip": "ym2612"
    },
    {
      "channel": 1,
      "note": 64,
      "start": 122.4352,
      "duration": 0.0777,
      "velocity": 114,
      "chip": "ym2612"
    },
    {
      "channel": 3,
      "note": 64,
      "start": 122.5497,
      "duration": 0.0798,
      "velocity": 98,
      "chip": "ym2612"
    },
    {
      "channel": 2,
      "note": 50,
      "start": 122.6826,
      "duration": 0.0806,
      "velocity": 88,
      "chip": "ym2612"
    },
    {
      "channel": 5,
      "note": 71,
      "start": 122.686,
      "duration": 0.0771,
      "velocity": 101,
      "chip": "ym2612"
    },
    {
      "channel": 0,
      "note": 64,
      "start": 122.6891,
      "duration": 0.0236,
      "velocity": 101,
      "chip": "ym2612"
    },
    {
      "channel": 3,
      "note": 59,
      "start": 122.7995,
      "duration": 0.08,
      "velocity": 98,
      "chip": "ym2612"
    },
    {
      "channel": 0,
      "note": 69,
      "start": 122.8025,
      "duration": 0.1104,
      "velocity": 101,
      "chip": "ym2612"
    },
    {
      "channel": 5,
      "note": 62,
      "start": 122.8059,
      "duration": 0.0904,
      "velocity": 101,
      "chip": "ym2612"
    },
    {
      "channel": 4,
      "note": 33,
      "start": 122.9164,
      "duration": 0.1132,
      "velocity": 113,
      "chip": "ym2612"
    },
    {
      "channel": 2,
      "note": 62,
      "start": 122.9192,
      "duration": 0.1772,
      "velocity": 88,
      "chip": "ym2612"
    },
    {
      "channel": 1,
      "note": 64,
      "start": 122.9219,
      "duration": 0.0576,
      "velocity": 114,
      "chip": "ym2612"
    },
    {
      "channel": 3,
      "note": 59,
      "start": 123.0337,
      "duration": 0.0459,
      "velocity": 98,
      "chip": "ym2612"
    },
    {
      "channel": 0,
      "note": 71,
      "start": 123.0364,
      "duration": 0.0931,
      "velocity": 101,
      "chip": "ym2612"
    },
    {
      "channel": 5,
      "note": 64,
      "start": 123.0394,
      "duration": 0.0736,
      "velocity": 101,
      "chip": "ym2612"
    },
    {
      "channel": 4,
      "note": 40,
      "start": 123.1657,
      "duration": 0.2139,
      "velocity": 113,
      "chip": "ym2612"
    },
    {
      "channel": 2,
      "note": 50,
      "start": 123.1685,
      "duration": 0.1945,
      "velocity": 88,
      "chip": "ym2612"
    },
    {
      "channel": 3,
      "note": 59,
      "start": 123.1716,
      "duration": 0.0746,
      "velocity": 98,
      "chip": "ym2612"
    },
    {
      "channel": 3,
      "note": 59,
      "start": 123.2831,
      "duration": 0.0631,
      "velocity": 98,
      "chip": "ym2612"
    },
    {
      "channel": 4,
      "note": 33,
      "start": 123.3993,
      "duration": 0.0637,
      "velocity": 113,
      "chip": "ym2612"
    },
    {
      "channel": 2,
      "note": 62,
      "start": 123.4025,
      "duration": 0.1106,
      "velocity": 88,
      "chip": "ym2612"
    },
    {
      "channel": 1,
      "note": 64,
      "start": 123.4051,
      "duration": 0.0577,
      "velocity": 114,
      "chip": "ym2612"
    },
    {
      "channel": 5,
      "note": 34,
      "start": 123.4078,
      "duration": 0.0385,
      "velocity": 114,
      "chip": "ym2612"
    },
    {
      "channel": 0,
      "note": 116,
      "start": 123.4109,
      "duration": 0.0042,
      "velocity": 114,
      "chip": "ym2612"
    },
    {
      "channel": 3,
      "note": 64,
      "start": 123.414,
      "duration": 0.0822,
      "velocity": 98,
      "chip": "ym2612"
    },
    {
      "channel": 0,
      "note": 62,
      "start": 123.4173,
      "duration": 0.0009,
      "velocity": 101,
      "chip": "ym2612"
    },
    {
      "channel": 0,
      "note": 69,
      "start": 123.4203,
      "duration": 0.0591,
      "velocity": 101,
      "chip": "ym2612"
    },
    {
      "channel": 4,
      "note": 40,
      "start": 123.5159,
      "duration": 0.1304,
      "velocity": 113,
      "chip": "ym2612"
    },
    {
      "channel": 1,
      "note": 116,
      "start": 123.5188,
      "duration": 0.0606,
      "velocity": 114,
      "chip": "ym2612"
    },
    {
      "channel": 5,
      "note": 34,
      "start": 123.5216,
      "duration": 0.0915,
      "velocity": 114,
      "chip": "ym2612"
    },
    {
      "channel": 3,
      "note": 59,
      "start": 123.5244,
      "duration": 0.0551,
      "velocity": 98,
      "chip": "ym2612"
    },
    {
      "channel": 0,
      "note": 64,
      "start": 123.5273,
      "duration": 0.1187,
      "velocity": 101,
      "chip": "ym2612"
    },
    {
      "channel": 2,
      "note": 71,
      "start": 123.5309,
      "duration": 0.1156,
      "velocity": 101,
      "chip": "ym2612"
    },
    {
      "channel": 4,
      "note": 33,
      "start": 123.6505,
      "duration": 0.0457,
      "velocity": 113,
      "chip": "ym2612"
    },
    {
      "channel": 1,
      "note": 52,
      "start": 123.6533,
      "duration": 0.0595,
      "velocity": 88,
      "chip": "ym2612"
    },
    {
      "channel": 3,
      "note": 40,
      "start": 123.6561,
      "duration": 0.4067,
      "velocity": 93,
      "chip": "ym2612"
    },
    {
      "channel": 5,
      "note": 59,
      "start": 123.6602,
      "duration": 0.0362,
      "velocity": 98,
      "chip": "ym2612"
    },
    {
      "channel": 5,
      "note": 59,
      "start": 123.7665,
      "duration": 0.0798,
      "velocity": 98,
      "chip": "ym2612"
    },
    {
      "channel": 4,
      "note": 33,
      "start": 123.8826,
      "duration": 0.0471,
      "velocity": 113,
      "chip": "ym2612"
    },
    {
      "channel": 1,
      "note": 52,
      "start": 123.8851,
      "duration": 0.0779,
      "velocity": 88,
      "chip": "ym2612"
    },
    {
      "channel": 0,
      "note": 64,
      "start": 123.8882,
      "duration": 0.0747,
      "velocity": 114,
      "chip": "ym2612"
    },
    {
      "channel": 5,
      "note": 59,
      "start": 123.891,
      "duration": 0.0553,
      "velocity": 98,
      "chip": "ym2612"
    },
    {
      "channel": 4,
      "note": 33,
      "start": 123.9991,
      "duration": 0.0639,
      "velocity": 113,
      "chip": "ym2612"
    },
    {
      "channel": 1,
      "note": 64,
      "start": 124.0016,
      "duration": 0.0779,
      "velocity": 88,
      "chip": "ym2612"
    },
    {
      "channel": 5,
      "note": 59,
      "start": 124.0046,
      "duration": 0.0585,
      "velocity": 98,
      "chip": "ym2612"
    },
    {
      "channel": 4,
      "note": 40,
      "start": 124.1326,
      "duration": 0.1305,
      "velocity": 113,
      "chip": "ym2612"
    },
    {
      "channel": 5,
      "note": 64,
      "start": 124.1362,
      "duration": 0.0601,
      "velocity": 98,
      "chip": "ym2612"
    },
    {
      "channel": 1,
      "note": 64,
      "start": 124.2491,
      "duration": 0.0804,
      "velocity": 88,
      "chip": "ym2612"
    },
    {
      "channel": 5,
      "note": 59,
      "start": 124.2523,
      "duration": 0.0775,
      "velocity": 98,
      "chip": "ym2612"
    },
    {
      "channel": 1,
      "note": 52,
      "start": 124.3659,
      "duration": 0.0803,
      "velocity": 88,
      "chip": "ym2612"
    },
    {
      "channel": 0,
      "note": 64,
      "start": 124.3686,
      "duration": 0.0942,
      "velocity": 114,
      "chip": "ym2612"
    },
    {
      "channel": 2,
      "note": 34,
      "start": 124.3715,
      "duration": 0.0415,
      "velocity": 114,
      "chip": "ym2612"
    },
    {
      "channel": 0,
      "note": 34,
      "start": 124.4828,
      "duration": 0.1468,
      "velocity": 114,
      "chip": "ym2612"
    },
    {
      "channel": 5,
      "note": 64,
      "start": 124.4856,
      "duration": 0.0774,
      "velocity": 98,
      "chip": "ym2612"
    },
    {
      "channel": 1,
      "note": 52,
      "start": 124.6158,
      "duration": 0.0971,
      "velocity": 88,
      "chip": "ym2612"
    },
    {
      "channel": 3,
      "note": 76,
      "start": 124.6193,
      "duration": 0.0602,
      "velocity": 101,
      "chip": "ym2612"
    },
    {
      "channel": 4,
      "note": 71,
      "start": 124.6224,
      "duration": 0.0405,
      "velocity": 101,
      "chip": "ym2612"
    },
    {
      "channel": 5,
      "note": 59,
      "start": 124.7331,
      "duration": 0.08,
      "velocity": 98,
      "chip": "ym2612"
    },
    {
      "channel": 3,
      "note": 69,
      "start": 124.7361,
      "duration": 0.0768,
      "velocity": 101,
      "chip": "ym2612"
    },
    {
      "channel": 4,
      "note": 74,
      "start": 124.739,
      "duration": 0.0405,
      "velocity": 101,
      "chip": "ym2612"
    },
    {
      "channel": 2,
      "note": 33,
      "start": 124.8495,
      "duration": 0.1135,
      "velocity": 113,
      "chip": "ym2612"
    },
    {
      "channel": 1,
      "note": 64,
      "start": 124.8521,
      "duration": 0.1107,
      "velocity": 88,
      "chip": "ym2612"
    },
    {
      "channel": 0,
      "note": 64,
      "start": 124.8552,
      "duration": 0.0909,
      "velocity": 114,
      "chip": "ym2612"
    },
    {
      "channel": 5,
      "note": 59,
      "start": 124.9668,
      "duration": 0.0628,
      "velocity": 98,
      "chip": "ym2612"
    },
    {
      "channel": 3,
      "note": 69,
      "start": 124.9699,
      "duration": 0.243,
      "velocity": 101,
      "chip": "ym2612"
    },
    {
      "channel": 4,
      "note": 74,
      "start": 124.9732,
      "duration": 0.2232,
      "velocity": 101,
      "chip": "ym2612"
    },
    {
      "channel": 2,
      "note": 40,
      "start": 125.0998,
      "duration": 0.1966,
      "velocity": 113,
      "chip": "ym2612"
    },
    {
      "channel": 1,
      "note": 52,
      "start": 125.1027,
      "duration": 0.0935,
      "velocity": 88,
      "chip": "ym2612"
    },
    {
      "channel": 0,
      "note": 116,
      "start": 125.1055,
      "duration": 0.024,
      "velocity": 114,
      "chip": "ym2612"
    },
    {
      "channel": 5,
      "note": 62,
      "start": 125.1084,
      "duration": 0.0546,
      "velocity": 98,
      "chip": "ym2612"
    },
    {
      "channel": 0,
      "note": 116,
      "start": 125.2161,
      "duration": 0.0468,
      "velocity": 114,
      "chip": "ym2612"
    },
    {
      "channel": 5,
      "note": 59,
      "start": 125.219,
      "duration": 0.0441,
      "velocity": 98,
      "chip": "ym2612"
    },
    {
      "channel": 1,
      "note": 64,
      "start": 125.3323,
      "duration": 0.0972,
      "velocity": 88,
      "chip": "ym2612"
    },
    {
      "channel": 0,
      "note": 116,
      "start": 125.3349,
      "duration": 0.0612,
      "velocity": 114,
      "chip": "ym2612"
    },
    {
      "channel": 4,
      "note": 64,
      "start": 125.3376,
      "duration": 0.0754,
      "velocity": 114,
      "chip": "ym2612"
    },
    {
      "channel": 5,
      "note": 64,
      "start": 125.3406,
      "duration": 0.0891,
      "velocity": 98,
      "chip": "ym2612"
    },
    {
      "channel": 3,
      "note": 76,
      "start": 125.3436,
      "duration": 0.0693,
      "velocity": 101,
      "chip": "ym2612"
    },
    {
      "channel": 2,
      "note": 71,
      "start": 125.3468,
      "duration": 0.0665,
      "velocity": 101,
      "chip": "ym2612"
    },
    {
      "channel": 0,
      "note": 40,
      "start": 125.4493,
      "duration": 0.0634,
      "velocity": 113,
      "chip": "ym2612"
    },
    {
      "channel": 4,
      "note": 116,
      "start": 125.4523,
      "duration": 0.0607,
      "velocity": 114,
      "chip": "ym2612"
    },
    {
      "channel": 5,
      "note": 59,
      "start": 125.4556,
      "duration": 0.0575,
      "velocity": 98,
      "chip": "ym2612"
    },
    {
      "channel": 0,
      "note": 33,
      "start": 125.5824,
      "duration": 0.0971,
      "velocity": 113,
      "chip": "ym2612"
    },
    {
      "channel": 1,
      "note": 50,
      "start": 125.585,
      "duration": 0.0613,
      "velocity": 88,
      "chip": "ym2612"
    },
    {
      "channel": 3,
      "note": 38,
      "start": 125.5876,
      "duration": 0.4086,
      "velocity": 93,
      "chip": "ym2612"
    },
    {
      "channel": 4,
      "note": 116,
      "start": 125.5904,
      "duration": 0.1559,
      "velocity": 114,
      "chip": "ym2612"
    },
    {
      "channel": 5,
      "note": 59,
      "start": 125.5932,
      "duration": 0.0365,
      "velocity": 98,
      "chip": "ym2612"
    },
    {
      "channel": 5,
      "note": 59,
      "start": 125.6997,
      "duration": 0.0466,
      "velocity": 98,
      "chip": "ym2612"
    },
    {
      "channel": 0,
      "note": 33,
      "start": 125.8158,
      "duration": 0.0303,
      "velocity": 113,
      "chip": "ym2612"
    },
    {
      "channel": 1,
      "note": 50,
      "start": 125.8186,
      "duration": 0.0943,
      "velocity": 88,
      "chip": "ym2612"
    },
    {
      "channel": 4,
      "note": 64,
      "start": 125.8218,
      "duration": 0.0744,
      "velocity": 114,
      "chip": "ym2612"
    },
    {
      "channel": 5,
      "note": 59,
      "start": 125.8247,
      "duration": 0.0717,
      "velocity": 98,
      "chip": "ym2612"
    },
    {
      "channel": 0,
      "note": 33,
      "start": 125.9323,
      "duration": 0.0806,
      "velocity": 113,
      "chip": "ym2612"
    },
    {
      "channel": 1,
      "note": 62,
      "start": 125.935,
      "duration": 0.0781,
      "velocity": 88,
      "chip": "ym2612"
    },
    {
      "channel": 5,
      "note": 59,
      "start": 125.938,
      "duration": 0.0752,
      "velocity": 98,
      "chip": "ym2612"
    },
    {
      "channel": 0,
      "note": 40,
      "start": 126.0662,
      "duration": 0.1467,
      "velocity": 113,
      "chip": "ym2612"
    },
    {
      "channel": 5,
      "note": 64,
      "start": 126.0695,
      "duration": 0.0934,
      "velocity": 98,
      "chip": "ym2612"
    },
    {
      "channel": 1,
      "note": 62,
      "start": 126.1826,
      "duration": 0.0969,
      "velocity": 88,
      "chip": "ym2612"
    },
    {
      "channel": 5,
      "note": 62,
      "start": 126.1859,
      "duration": 0.0771,
      "velocity": 98,
      "chip": "ym2612"
    },
    {
      "channel": 1,
      "note": 50,
      "start": 126.2992,
      "duration": 0.0803,
      "velocity": 88,
      "chip": "ym2612"
    },
    {
      "channel": 4,
      "note": 64,
      "start": 126.3019,
      "duration": 0.0778,
      "velocity": 114,
      "chip": "ym2612"
    },
    {
      "channel": 5,
      "note": 64,
      "start": 126.4165,
      "duration": 0.0799,
      "velocity": 98,
      "chip": "ym2612"
    },
    {
      "channel": 1,
      "note": 50,
      "start": 126.5495,
      "duration": 0.1466,
      "velocity": 88,
      "chip": "ym2612"
    },
    {
      "channel": 2,
      "note": 67,
      "start": 126.553,
      "duration": 0.0434,
      "velocity": 101,
      "chip": "ym2612"
    },
    {
      "channel": 3,
      "note": 62,
      "start": 126.5562,
      "duration": 0.0235,
      "velocity": 101,
      "chip": "ym2612"
    },
    {
      "channel": 5,
      "note": 59,
      "start": 126.6667,
      "duration": 0.0463,
      "velocity": 98,
      "chip": "ym2612"
    },
    {
      "channel": 3,
      "note": 69,
      "start": 126.67,
      "duration": 0.0762,
      "velocity": 101,
      "chip": "ym2612"
    },
    {
      "channel": 2,
      "note": 64,
      "start": 126.6732,
      "duration": 0.0899,
      "velocity": 101,
      "chip": "ym2612"
    },
    {
      "channel": 1,
      "note": 62,
      "start": 126.7824,
      "duration": 0.0971,
      "velocity": 88,
      "chip": "ym2612"
    },
    {
      "channel": 4,
      "note": 64,
      "start": 126.785,
      "duration": 0.0779,
      "velocity": 114,
      "chip": "ym2612"
    },
    {
      "channel": 3,
      "note": 64,
      "start": 126.9,
      "duration": 0.2295,
      "velocity": 101,
      "chip": "ym2612"
    },
    {
      "channel": 2,
      "note": 69,
      "start": 126.9032,
      "duration": 0.2932,
      "velocity": 101,
      "chip": "ym2612"
    },
    {
      "channel": 1,
      "note": 50,
      "start": 127.0325,
      "duration": 0.2497,
      "velocity": 88,
      "chip": "ym2612"
    },
    {
      "channel": 5,
      "note": 59,
      "start": 127.1504,
      "duration": 0.0292,
      "velocity": 98,
      "chip": "ym2612"
    },
    {
      "channel": 0,
      "note": 40,
      "start": 127.2658,
      "duration": 0.0125,
      "velocity": 113,
      "chip": "ym2612"
    },
    {
      "channel": 4,
      "note": 62,
      "start": 127.2685,
      "duration": 0.0779,
      "velocity": 88,
      "chip": "ym2612"
    },
    {
      "channel": 3,
      "note": 64,
      "start": 127.2712,
      "duration": 0.075,
      "velocity": 114,
      "chip": "ym2612"
    },
    {
      "channel": 5,
      "note": 59,
      "start": 127.2742,
      "duration": 0.0723,
      "velocity": 98,
      "chip": "ym2612"
    },
    {
      "channel": 2,
      "note": 62,
      "start": 127.2773,
      "duration": 0.0857,
      "velocity": 101,
      "chip": "ym2612"
    },
    {
      "channel": 0,
      "note": 67,
      "start": 127.2807,
      "duration": 0.0489,
      "velocity": 101,
      "chip": "ym2612"
    },
    {
      "channel": 1,
      "note": 40,
      "start": 127.3826,
      "duration": 0.0968,
      "velocity": 113,
      "chip": "ym2612"
    },
    {
      "channel": 5,
      "note": 59,
      "start": 127.3859,
      "duration": 0.0604,
      "velocity": 98,
      "chip": "ym2612"
    },
    {
      "channel": 1,
      "note": 33,
      "start": 127.5156,
      "duration": 0.0972,
      "velocity": 113,
      "chip": "ym2612"
    },
    {
      "channel": 4,
      "note": 48,
      "start": 127.5181,
      "duration": 0.0615,
      "velocity": 88,
      "chip": "ym2612"
    },
    {
      "channel": 0,
      "note": 36,
      "start": 127.5209,
      "duration": 0.4253,
      "velocity": 93,
      "chip": "ym2612"
    },
    {
      "channel": 5,
      "note": 59,
      "start": 127.524,
      "duration": 0.0558,
      "velocity": 98,
      "chip": "ym2612"
    },
    {
      "channel": 5,
      "note": 59,
      "start": 127.6331,
      "duration": 0.0465,
      "velocity": 98,
      "chip": "ym2612"
    },
    {
      "channel": 1,
      "note": 33,
      "start": 127.7492,
      "duration": 0.0303,
      "velocity": 113,
      "chip": "ym2612"
    },
    {
      "channel": 4,
      "note": 48,
      "start": 127.752,
      "duration": 0.0943,
      "velocity": 88,
      "chip": "ym2612"
    },
    {
      "channel": 3,
      "note": 64,
      "start": 127.7545,
      "duration": 0.0751,
      "velocity": 114,
      "chip": "ym2612"
    },
    {
      "channel": 5,
      "note": 59,
      "start": 127.7573,
      "duration": 0.0557,
      "velocity": 98,
      "chip": "ym2612"
    },
    {
      "channel": 1,
      "note": 33,
      "start": 127.8656,
      "duration": 0.0807,
      "velocity": 113,
      "chip": "ym2612"
    },
    {
      "channel": 4,
      "note": 60,
      "start": 127.8683,
      "duration": 0.0947,
      "velocity": 88,
      "chip": "ym2612"
    },
    {
      "channel": 5,
      "note": 59,
      "start": 127.8713,
      "duration": 0.0584,
      "velocity": 98,
      "chip": "ym2612"
    },
    {
      "channel": 1,
      "note": 40,
      "start": 127.9826,
      "duration": 0.1636,
      "velocity": 113,
      "chip": "ym2612"
    },
    {
      "channel": 5,
      "note": 64,
      "start": 127.9859,
      "duration": 0.0772,
      "velocity": 98,
      "chip": "ym2612"
    },
    {
      "channel": 4,
      "note": 60,
      "start": 128.1159,
      "duration": 0.097,
      "velocity": 88,
      "chip": "ym2612"
    },
    {
      "channel": 5,
      "note": 59,
      "start": 128.119,
      "duration": 0.0773,
      "velocity": 98,
      "chip": "ym2612"
    },
    {
      "channel": 4,
      "note": 48,
      "start": 128.2331,
      "duration": 0.0632,
      "velocity": 88,
      "chip": "ym2612"
    },
    {
      "channel": 3,
      "note": 64,
      "start": 128.2359,
      "duration": 0.0936,
      "velocity": 114,
      "chip": "ym2612"
    },
    {
      "channel": 2,
      "note": 34,
      "start": 128.2388,
      "duration": 0.0243,
      "velocity": 114,
      "chip": "ym2612"
    },
    {
      "channel": 3,
      "note": 34,
      "start": 128.3496,
      "duration": 0.1466,
      "velocity": 114,
      "chip": "ym2612"
    },
    {
      "channel": 5,
      "note": 64,
      "start": 128.3527,
      "duration": 0.0768,
      "velocity": 98,
      "chip": "ym2612"
    },
    {
      "channel": 4,
      "note": 48,
      "start": 128.4659,
      "duration": 0.1637,
      "velocity": 88,
      "chip": "ym2612"
    },
    {
      "channel": 0,
      "note": 76,
      "start": 128.4696,
      "duration": 0.0598,
      "velocity": 101,
      "chip": "ym2612"
    },
    {
      "channel": 1,
      "note": 71,
      "start": 128.4726,
      "duration": 0.057,
      "velocity": 101,
      "chip": "ym2612"
    },
    {
      "channel": 5,
      "note": 59,
      "start": 128.5997,
      "duration": 0.0802,
      "velocity": 98,
      "chip": "ym2612"
    },
    {
      "channel": 0,
      "note": 69,
      "start": 128.6026,
      "duration": 0.0769,
      "velocity": 101,
      "chip": "ym2612"
    },
    {
      "channel": 1,
      "note": 74,
      "start": 128.6053,
      "duration": 0.0744,
      "velocity": 101,
      "chip": "ym2612"
    },
    {
      "channel": 2,
      "note": 33,
      "start": 128.7165,
      "duration": 0.1133,
      "velocity": 113,
      "chip": "ym2612"
    },
    {
      "channel": 4,
      "note": 60,
      "start": 128.7191,
      "duration": 0.0772,
      "velocity": 88,
      "chip": "ym2612"
    },
    {
      "channel": 3,
      "note": 64,
      "start": 128.7223,
      "duration": 0.0906,
      "velocity": 114,
      "chip": "ym2612"
    },
    {
      "channel": 5,
      "note": 59,
      "start": 128.8334,
      "duration": 0.0629,
      "velocity": 98,
      "chip": "ym2612"
    },
    {
      "channel": 0,
      "note": 69,
      "start": 128.8364,
      "duration": 0.2431,
      "velocity": 101,
      "chip": "ym2612"
    },
    {
      "channel": 1,
      "note": 74,
      "start": 128.8392,
      "duration": 0.2069,
      "velocity": 101,
      "chip": "ym2612"
    },
    {
      "channel": 2,
      "note": 40,
      "start": 128.9494,
      "duration": 0.2137,
      "velocity": 113,
      "chip": "ym2612"
    },
    {
      "channel": 4,
      "note": 48,
      "start": 128.952,
      "duration": 0.1609,
      "velocity": 88,
      "chip": "ym2612"
    },
    {
      "channel": 3,
      "note": 116,
      "start": 128.9549,
      "duration": 0.0247,
      "velocity": 114,
      "chip": "ym2612"
    },
    {
      "channel": 5,
      "note": 62,
      "start": 128.9578,
      "duration": 0.0718,
      "velocity": 98,
      "chip": "ym2612"
    },
    {
      "channel": 3,
      "note": 116,
      "start": 129.0829,
      "duration": 0.0466,
      "velocity": 114,
      "chip": "ym2612"
    },
    {
      "channel": 5,
      "note": 59,
      "start": 129.0857,
      "duration": 0.0773,
      "velocity": 98,
      "chip": "ym2612"
    },
    {
      "channel": 4,
      "note": 60,
      "start": 129.1993,
      "duration": 0.0972,
      "velocity": 88,
      "chip": "ym2612"
    },
    {
      "channel": 3,
      "note": 116,
      "start": 129.202,
      "duration": 0.0609,
      "velocity": 114,
      "chip": "ym2612"
    },
    {
      "channel": 1,
      "note": 64,
      "start": 129.2048,
      "duration": 0.0915,
      "velocity": 114,
      "chip": "ym2612"
    },
    {
      "channel": 5,
      "note": 64,
      "start": 129.2077,
      "duration": 0.0889,
      "velocity": 98,
      "chip": "ym2612"
    },
    {
      "channel": 0,
      "note": 76,
      "start": 129.211,
      "duration": 0.0852,
      "velocity": 101,
      "chip": "ym2612"
    },
    {
      "channel": 2,
      "note": 71,
      "start": 129.2144,
      "duration": 0.0487,
      "velocity": 101,
      "chip": "ym2612"
    },
    {
      "channel": 3,
      "note": 40,
      "start": 129.3161,
      "duration": 0.0968,
      "velocity": 113,
      "chip": "ym2612"
    },
    {
      "channel": 1,
      "note": 116,
      "start": 129.319,
      "duration": 0.0439,
      "velocity": 114,
      "chip": "ym2612"
    },
    {
      "channel": 5,
      "note": 59,
      "start": 129.3219,
      "duration": 0.0578,
      "velocity": 98,
      "chip": "ym2612"
    },
    {
      "channel": 3,
      "note": 33,
      "start": 129.4326,
      "duration": 0.1303,
      "velocity": 113,
      "chip": "ym2612"
    },
    {
      "channel": 4,
      "note": 50,
      "start": 129.4351,
      "duration": 0.0946,
      "velocity": 88,
      "chip": "ym2612"
    },
    {
      "channel": 2,
      "note": 38,
      "start": 129.4379,
      "duration": 0.4085,
      "velocity": 93,
      "chip": "ym2612"
    },
    {
      "channel": 1,
      "note": 116,
      "start": 129.441,
      "duration": 0.0885,
      "velocity": 114,
      "chip": "ym2612"
    },
    {
      "channel": 5,
      "note": 59,
      "start": 129.4439,
      "duration": 0.069,
      "velocity": 98,
      "chip": "ym2612"
    },
    {
      "channel": 5,
      "note": 59,
      "start": 129.5665,
      "duration": 0.0799,
      "velocity": 98,
      "chip": "ym2612"
    },
    {
      "channel": 3,
      "note": 33,
      "start": 129.6826,
      "duration": 0.0137,
      "velocity": 113,
      "chip": "ym2612"
    },
    {
      "channel": 4,
      "note": 50,
      "start": 129.6852,
      "duration": 0.0945,
      "velocity": 88,
      "chip": "ym2612"
    },
    {
      "channel": 1,
      "note": 64,
      "start": 129.6879,
      "duration": 0.0917,
      "velocity": 114,
      "chip": "ym2612"
    },
    {
      "channel": 5,
      "note": 59,
      "start": 129.6907,
      "duration": 0.0723,
      "velocity": 98,
      "chip": "ym2612"
    },
    {
      "channel": 3,
      "note": 33,
      "start": 129.7995,
      "duration": 0.0968,
      "velocity": 113,
      "chip": "ym2612"
    },
    {
      "channel": 4,
      "note": 62,
      "start": 129.8026,
      "duration": 0.077,
      "velocity": 88,
      "chip": "ym2612"
    },
    {
      "channel": 5,
      "note": 59,
      "start": 129.8062,
      "duration": 0.0569,
      "velocity": 98,
      "chip": "ym2612"
    },
    {
      "channel": 3,
      "note": 40,
      "start": 129.9159,
      "duration": 0.2637,
      "velocity": 113,
      "chip": "ym2612"
    },
    {
      "channel": 5,
      "note": 64,
      "start": 129.9192,
      "duration": 0.0772,
      "velocity": 98,
      "chip": "ym2612"
    },
    {
      "channel": 4,
      "note": 62,
      "start": 130.0492,
      "duration": 0.0638,
      "velocity": 88,
      "chip": "ym2612"
    },
    {
      "channel": 5,
      "note": 59,
      "start": 130.0523,
      "duration": 0.0607,
      "velocity": 98,
      "chip": "ym2612"
    },
    {
      "channel": 4,
      "note": 50,
      "start": 130.1661,
      "duration": 0.0635,
      "velocity": 88,
      "chip": "ym2612"
    },
    {
      "channel": 1,
      "note": 64,
      "start": 130.1686,
      "duration": 0.0941,
      "velocity": 114,
      "chip": "ym2612"
    },
    {
      "channel": 5,
      "note": 64,
      "start": 130.2833,
      "duration": 0.0964,
      "velocity": 98,
      "chip": "ym2612"
    },
    {
      "channel": 4,
      "note": 50,
      "start": 130.3992,
      "duration": 0.1804,
      "velocity": 88,
      "chip": "ym2612"
    },
    {
      "channel": 0,
      "note": 67,
      "start": 130.4023,
      "duration": 0.0604,
      "velocity": 101,
      "chip": "ym2612"
    },
    {
      "channel": 2,
      "note": 62,
      "start": 130.4055,
      "duration": 0.0408,
      "velocity": 101,
      "chip": "ym2612"
    },
    {
      "channel": 0,
      "note": 69,
      "start": 130.5333,
      "duration": 0.0628,
      "velocity": 101,
      "chip": "ym2612"
    },
    {
      "channel": 2,
      "note": 64,
      "start": 130.5364,
      "duration": 0.0434,
      "velocity": 101,
      "chip": "ym2612"
    },
    {
      "channel": 4,
      "note": 62,
      "start": 130.6492,
      "duration": 0.1304,
      "velocity": 88,
      "chip": "ym2612"
    },
    {
      "channel": 1,
      "note": 64,
      "start": 130.6518,
      "duration": 0.0777,
      "velocity": 114,
      "chip": "ym2612"
    },
    {
      "channel": 0,
      "note": 69,
      "start": 130.767,
      "duration": 0.1624,
      "velocity": 101,
      "chip": "ym2612"
    },
    {
      "channel": 2,
      "note": 64,
      "start": 130.77,
      "duration": 0.1096,
      "velocity": 101,
      "chip": "ym2612"
    },
    {
      "channel": 4,
      "note": 50,
      "start": 130.8826,
      "duration": 0.1804,
      "velocity": 88,
      "chip": "ym2612"
    },
    {
      "channel": 0,
      "note": 62,
      "start": 131.0166,
      "duration": 0.0629,
      "velocity": 101,
      "chip": "ym2612"
    },
    {
      "channel": 2,
      "note": 67,
      "start": 131.0198,
      "duration": 0.0434,
      "velocity": 101,
      "chip": "ym2612"
    },
    {
      "channel": 3,
      "note": 40,
      "start": 131.1326,
      "duration": 0.0137,
      "velocity": 113,
      "chip": "ym2612"
    },
    {
      "channel": 4,
      "note": 62,
      "start": 131.1352,
      "duration": 0.1944,
      "velocity": 88,
      "chip": "ym2612"
    },
    {
      "channel": 1,
      "note": 64,
      "start": 131.1377,
      "duration": 0.0751,
      "velocity": 114,
      "chip": "ym2612"
    },
    {
      "channel": 3,
      "note": 40,
      "start": 131.249,
      "duration": 0.0972,
      "velocity": 113,
      "chip": "ym2612"
    },
    {
      "channel": 3,
      "note": 33,
      "start": 131.3659,
      "duration": 0.0803,
      "velocity": 113,
      "chip": "ym2612"
    },
    {
      "channel": 4,
      "note": 52,
      "start": 131.3686,
      "duration": 0.0777,
      "velocity": 88,
      "chip": "ym2612"
    },
    {
      "channel": 5,
      "note": 40,
      "start": 131.3719,
      "duration": 0.3245,
      "velocity": 93,
      "chip": "ym2612"
    },
    {
      "channel": 2,
      "note": 71,
      "start": 131.3752,
      "duration": 0.038,
      "velocity": 98,
      "chip": "ym2612"
    },
    {
      "channel": 0,
      "note": 64,
      "start": 131.3781,
      "duration": 0.1847,
      "velocity": 98,
      "chip": "ym2612"
    },
    {
      "channel": 1,
      "note": 67,
      "start": 131.3822,
      "duration": 0.014,
      "velocity": 98,
      "chip": "ym2612"
    },
    {
      "channel": 1,
      "note": 67,
      "start": 131.4999,
      "duration": 0.0464,
      "velocity": 98,
      "chip": "ym2612"
    },
    {
      "channel": 2,
      "note": 71,
      "start": 131.5029,
      "duration": 0.0268,
      "velocity": 98,
      "chip": "ym2612"
    },
    {
      "channel": 3,
      "note": 33,
      "start": 131.6159,
      "duration": 0.0471,
      "velocity": 113,
      "chip": "ym2612"
    },
    {
      "channel": 4,
      "note": 52,
      "start": 131.619,
      "duration": 0.0441,
      "velocity": 88,
      "chip": "ym2612"
    },
    {
      "channel": 2,
      "note": 64,
      "start": 131.6219,
      "duration": 0.0912,
      "velocity": 114,
      "chip": "ym2612"
    },
    {
      "channel": 3,
      "note": 33,
      "start": 131.7327,
      "duration": 0.097,
      "velocity": 113,
      "chip": "ym2612"
    },
    {
      "channel": 4,
      "note": 52,
      "start": 131.7355,
      "duration": 0.0775,
      "velocity": 88,
      "chip": "ym2612"
    },
    {
      "channel": 5,
      "note": 40,
      "start": 131.7385,
      "duration": 0.2747,
      "velocity": 93,
      "chip": "ym2612"
    },
    {
      "channel": 0,
      "note": 67,
      "start": 131.7413,
      "duration": 0.0381,
      "velocity": 98,
      "chip": "ym2612"
    },
    {
      "channel": 1,
      "note": 71,
      "start": 131.7439,
      "duration": 0.0357,
      "velocity": 98,
      "chip": "ym2612"
    },
    {
      "channel": 2,
      "note": 64,
      "start": 131.7472,
      "duration": 0.0492,
      "velocity": 98,
      "chip": "ym2612"
    },
    {
      "channel": 3,
      "note": 40,
      "start": 131.8492,
      "duration": 0.247,
      "velocity": 113,
      "chip": "ym2612"
    },
    {
      "channel": 4,
      "note": 52,
      "start": 131.9827,
      "duration": 0.0303,
      "velocity": 88,
      "chip": "ym2612"
    },
    {
      "channel": 0,
      "note": 67,
      "start": 131.9859,
      "duration": 0.0269,
      "velocity": 98,
      "chip": "ym2612"
    },
    {
      "channel": 1,
      "note": 71,
      "start": 131.9887,
      "duration": 0.0242,
      "velocity": 98,
      "chip": "ym2612"
    },
    {
      "channel": 2,
      "note": 64,
      "start": 131.9916,
      "duration": 0.0218,
      "velocity": 98,
      "chip": "ym2612"
    },
    {
      "channel": 4,
      "note": 52,
      "start": 132.0994,
      "duration": 0.0802,
      "velocity": 88,
      "chip": "ym2612"
    },
    {
      "channel": 0,
      "note": 64,
      "start": 132.1023,
      "duration": 0.0939,
      "velocity": 114,
      "chip": "ym2612"
    },
    {
      "channel": 1,
      "note": 34,
      "start": 132.1051,
      "duration": 0.0412,
      "velocity": 114,
      "chip": "ym2612"
    },
    {
      "channel": 0,
      "note": 34,
      "start": 132.2164,
      "duration": 0.1464,
      "velocity": 114,
      "chip": "ym2612"
    },
    {
      "channel": 2,
      "note": 72,
      "start": 132.2196,
      "duration": 0.2602,
      "velocity": 98,
      "chip": "ym2612"
    },
    {
      "channel": 5,
      "note": 64,
      "start": 132.2225,
      "duration": 0.2404,
      "velocity": 98,
      "chip": "ym2612"
    },
    {
      "channel": 3,
      "note": 67,
      "start": 132.2256,
      "duration": 0.2539,
      "velocity": 98,
      "chip": "ym2612"
    },
    {
      "channel": 4,
      "note": 52,
      "start": 132.3324,
      "duration": 0.0805,
      "velocity": 88,
      "chip": "ym2612"
    },
    {
      "channel": 1,
      "note": 33,
      "start": 132.5827,
      "duration": 0.1468,
      "velocity": 113,
      "chip": "ym2612"
    },
    {
      "channel": 4,
      "note": 52,
      "start": 132.5853,
      "duration": 0.0944,
      "velocity": 88,
      "chip": "ym2612"
    },
    {
      "channel": 0,
      "note": 64,
      "start": 132.5881,
      "duration": 0.0747,
      "velocity": 114,
      "chip": "ym2612"
    },
    {
      "channel": 3,
      "note": 67,
      "start": 132.591,
      "duration": 0.0385,
      "velocity": 98,
      "chip": "ym2612"
    },
    {
      "channel": 5,
      "note": 64,
      "start": 132.5937,
      "duration": 0.036,
      "velocity": 98,
      "chip": "ym2612"
    },
    {
      "channel": 2,
      "note": 71,
      "start": 132.5971,
      "duration": 0.0327,
      "velocity": 98,
      "chip": "ym2612"
    },
    {
      "channel": 1,
      "note": 40,
      "start": 132.8158,
      "duration": 0.1303,
      "velocity": 113,
      "chip": "ym2612"
    },
    {
      "channel": 4,
      "note": 55,
      "start": 132.8188,
      "duration": 0.2274,
      "velocity": 88,
      "chip": "ym2612"
    },
    {
      "channel": 0,
      "note": 116,
      "start": 132.8216,
      "duration": 0.0245,
      "velocity": 114,
      "chip": "ym2612"
    },
    {
      "channel": 3,
      "note": 64,
      "start": 132.8245,
      "duration": 0.0717,
      "velocity": 98,
      "chip": "ym2612"
    },
    {
      "channel": 5,
      "note": 67,
      "start": 132.8273,
      "duration": 0.0357,
      "velocity": 98,
      "chip": "ym2612"
    },
    {
      "channel": 2,
      "note": 71,
      "start": 132.8305,
      "duration": 0.0327,
      "velocity": 98,
      "chip": "ym2612"
    },
    {
      "channel": 0,
      "note": 116,
      "start": 132.9493,
      "duration": 0.0468,
      "velocity": 114,
      "chip": "ym2612"
    },
    {
      "channel": 4,
      "note": 57,
      "start": 133.0659,
      "duration": 0.0971,
      "velocity": 88,
      "chip": "ym2612"
    },
    {
      "channel": 0,
      "note": 116,
      "start": 133.0685,
      "duration": 0.0443,
      "velocity": 114,
      "chip": "ym2612"
    },
    {
      "channel": 5,
      "note": 64,
      "start": 133.0712,
      "duration": 0.0419,
      "velocity": 114,
      "chip": "ym2612"
    },
    {
      "channel": 1,
      "note": 40,
      "start": 133.1826,
      "duration": 0.0803,
      "velocity": 113,
      "chip": "ym2612"
    },
    {
      "channel": 0,
      "note": 116,
      "start": 133.1852,
      "duration": 0.0276,
      "velocity": 114,
      "chip": "ym2612"
    },
    {
      "channel": 1,
      "note": 33,
      "start": 133.2992,
      "duration": 0.1303,
      "velocity": 113,
      "chip": "ym2612"
    },
    {
      "channel": 4,
      "note": 52,
      "start": 133.3018,
      "duration": 0.0779,
      "velocity": 88,
      "chip": "ym2612"
    },
    {
      "channel": 0,
      "note": 116,
      "start": 133.3049,
      "duration": 0.01,
      "velocity": 114,
      "chip": "ym2612"
    },
    {
      "channel": 3,
      "note": 71,
      "start": 133.3079,
      "duration": 0.0552,
      "velocity": 98,
      "chip": "ym2612"
    },
    {
      "channel": 2,
      "note": 66,
      "start": 133.3107,
      "duration": 0.0357,
      "velocity": 98,
      "chip": "ym2612"
    },
    {
      "channel": 5,
      "note": 63,
      "start": 133.314,
      "duration": 0.0048,
      "velocity": 98,
      "chip": "ym2612"
    },
    {
      "channel": 0,
      "note": 59,
      "start": 133.3171,
      "duration": 0.0457,
      "velocity": 101,
      "chip": "ym2612"
    },
    {
      "channel": 3,
      "note": 66,
      "start": 133.4337,
      "duration": 0.046,
      "velocity": 98,
      "chip": "ym2612"
    },
    {
      "channel": 5,
      "note": 63,
      "start": 133.4364,
      "duration": 0.0435,
      "velocity": 98,
      "chip": "ym2612"
    },
    {
      "channel": 2,
      "note": 71,
      "start": 133.4394,
      "duration": 0.0237,
      "velocity": 98,
      "chip": "ym2612"
    },
    {
      "channel": 0,
      "note": 59,
      "start": 133.4421,
      "duration": 0.0375,
      "velocity": 101,
      "chip": "ym2612"
    },
    {
      "channel": 1,
      "note": 33,
      "start": 133.5495,
      "duration": 0.0467,
      "velocity": 113,
      "chip": "ym2612"
    },
    {
      "channel": 4,
      "note": 52,
      "start": 133.5523,
      "duration": 0.0441,
      "velocity": 88,
      "chip": "ym2612"
    },
    {
      "channel": 2,
      "note": 64,
      "start": 133.5554,
      "duration": 0.0744,
      "velocity": 114,
      "chip": "ym2612"
    },
    {
      "channel": 0,
      "note": 59,
      "start": 133.5585,
      "duration": 0.0376,
      "velocity": 101,
      "chip": "ym2612"
    },
    {
      "channel": 1,
      "note": 33,
      "start": 133.6657,
      "duration": 0.0805,
      "velocity": 113,
      "chip": "ym2612"
    },
    {
      "channel": 4,
      "note": 52,
      "start": 133.6685,
      "duration": 0.078,
      "velocity": 88,
      "chip": "ym2612"
    },
    {
      "channel": 3,
      "note": 66,
      "start": 133.6717,
      "duration": 0.0746,
      "velocity": 98,
      "chip": "ym2612"
    },
    {
      "channel": 5,
      "note": 71,
      "start": 133.6744,
      "duration": 0.0723,
      "velocity": 98,
      "chip": "ym2612"
    },
    {
      "channel": 0,
      "note": 63,
      "start": 133.6774,
      "duration": 0.052,
      "velocity": 98,
      "chip": "ym2612"
    },
    {
      "channel": 2,
      "note": 59,
      "start": 133.6807,
      "duration": 0.0157,
      "velocity": 101,
      "chip": "ym2612"
    },
    {
      "channel": 1,
      "note": 40,
      "start": 133.7824,
      "duration": 0.2971,
      "velocity": 113,
      "chip": "ym2612"
    },
    {
      "channel": 2,
      "note": 64,
      "start": 133.7861,
      "duration": 0.0936,
      "velocity": 101,
      "chip": "ym2612"
    },
    {
      "channel": 4,
      "note": 52,
      "start": 133.9159,
      "duration": 0.0638,
      "velocity": 88,
      "chip": "ym2612"
    },
    {
      "channel": 0,
      "note": 66,
      "start": 133.9194,
      "duration": 0.0601,
      "velocity": 98,
      "chip": "ym2612"
    },
    {
      "channel": 3,
      "note": 63,
      "start": 133.9221,
      "duration": 0.0242,
      "velocity": 98,
      "chip": "ym2612"
    },
    {
      "channel": 5,
      "note": 71,
      "start": 133.925,
      "duration": 0.0549,
      "velocity": 98,
      "chip": "ym2612"
    },
    {
      "channel": 4,
      "note": 52,
      "start": 134.0326,
      "duration": 0.0803,
      "velocity": 88,
      "chip": "ym2612"
    },
    {
      "channel": 2,
      "note": 64,
      "start": 134.0354,
      "duration": 0.0778,
      "velocity": 114,
      "chip": "ym2612"
    },
    {
      "channel": 3,
      "note": 59,
      "start": 134.0387,
      "duration": 0.0076,
      "velocity": 101,
      "chip": "ym2612"
    },
    {
      "channel": 0,
      "note": 67,
      "start": 134.1497,
      "duration": 0.0631,
      "velocity": 98,
      "chip": "ym2612"
    },
    {
      "channel": 5,
      "note": 71,
      "start": 134.1524,
      "duration": 0.0607,
      "velocity": 98,
      "chip": "ym2612"
    },
    {
      "channel": 3,
      "note": 64,
      "start": 134.1553,
      "duration": 0.0577,
      "velocity": 98,
      "chip": "ym2612"
    },
    {
      "channel": 1,
      "note": 64,
      "start": 134.1585,
      "duration": 0.0709,
      "velocity": 101,
      "chip": "ym2612"
    },
    {
      "channel": 4,
      "note": 52,
      "start": 134.2658,
      "duration": 0.0805,
      "velocity": 88,
      "chip": "ym2612"
    },
    {
      "channel": 1,
      "note": 59,
      "start": 134.3831,
      "duration": 0.0798,
      "velocity": 101,
      "chip": "ym2612"
    },
    {
      "channel": 2,
      "note": 33,
      "start": 134.5161,
      "duration": 0.1137,
      "velocity": 113,
      "chip": "ym2612"
    },
    {
      "channel": 4,
      "note": 52,
      "start": 134.5191,
      "duration": 0.1105,
      "velocity": 88,
      "chip": "ym2612"
    },
    {
      "channel": 0,
      "note": 64,
      "start": 134.5219,
      "duration": 0.0742,
      "velocity": 114,
      "chip": "ym2612"
    },
    {
      "channel": 3,
      "note": 116,
      "start": 134.5247,
      "duration": 0.0215,
      "velocity": 114,
      "chip": "ym2612"
    },
    {
      "channel": 0,
      "note": 116,
      "start": 134.6329,
      "duration": 0.0799,
      "velocity": 114,
      "chip": "ym2612"
    },
    {
      "channel": 1,
      "note": 59,
      "start": 134.636,
      "duration": 0.0268,
      "velocity": 101,
      "chip": "ym2612"
    },
    {
      "channel": 2,
      "note": 40,
      "start": 134.7494,
      "duration": 0.147,
      "velocity": 113,
      "chip": "ym2612"
    },
    {
      "channel": 4,
      "note": 50,
      "start": 134.752,
      "duration": 0.111,
      "velocity": 88,
      "chip": "ym2612"
    },
    {
      "channel": 1,
      "note": 64,
      "start": 134.7556,
      "duration": 0.0905,
      "velocity": 101,
      "chip": "ym2612"
    },
    {
      "channel": 4,
      "note": 47,
      "start": 134.9992,
      "duration": 0.1138,
      "velocity": 88,
      "chip": "ym2612"
    },
    {
      "channel": 0,
      "note": 116,
      "start": 135.0023,
      "duration": 0.0271,
      "velocity": 114,
      "chip": "ym2612"
    },
    {
      "channel": 3,
      "note": 64,
      "start": 135.0049,
      "duration": 0.0913,
      "velocity": 114,
      "chip": "ym2612"
    },
    {
      "channel": 1,
      "note": 59,
      "start": 135.008,
      "duration": 0.0216,
      "velocity": 101,
      "chip": "ym2612"
    },
    {
      "channel": 0,
      "note": 116,
      "start": 135.1162,
      "duration": 0.0799,
      "velocity": 114,
      "chip": "ym2612"
    },
    {
      "channel": 1,
      "note": 64,
      "start": 135.1195,
      "duration": 0.0934,
      "velocity": 101,
      "chip": "ym2612"
    },
    {
      "channel": 2,
      "note": 33,
      "start": 135.2332,
      "duration": 0.0799,
      "velocity": 113,
      "chip": "ym2612"
    },
    {
      "channel": 4,
      "note": 52,
      "start": 135.2358,
      "duration": 0.0771,
      "velocity": 88,
      "chip": "ym2612"
    },
    {
      "channel": 5,
      "note": 40,
      "start": 135.2388,
      "duration": 0.2076,
      "velocity": 93,
      "chip": "ym2612"
    },
    {
      "channel": 3,
      "note": 71,
      "start": 135.242,
      "duration": 0.0377,
      "velocity": 98,
      "chip": "ym2612"
    },
    {
      "channel": 0,
      "note": 67,
      "start": 135.2454,
      "duration": 0.0048,
      "velocity": 98,
      "chip": "ym2612"
    },
    {
      "channel": 1,
      "note": 64,
      "start": 135.2486,
      "duration": 0.031,
      "velocity": 98,
      "chip": "ym2612"
    },
    {
      "channel": 0,
      "note": 64,
      "start": 135.3499,
      "duration": 0.0797,
      "velocity": 98,
      "chip": "ym2612"
    },
    {
      "channel": 1,
      "note": 71,
      "start": 135.3523,
      "duration": 0.0774,
      "velocity": 98,
      "chip": "ym2612"
    },
    {
      "channel": 3,
      "note": 67,
      "start": 135.3552,
      "duration": 0.0577,
      "velocity": 98,
      "chip": "ym2612"
    },
    {
      "channel": 2,
      "note": 33,
      "start": 135.4828,
      "duration": 0.0136,
      "velocity": 113,
      "chip": "ym2612"
    },
    {
      "channel": 4,
      "note": 52,
      "start": 135.4856,
      "duration": 0.044,
      "velocity": 88,
      "chip": "ym2612"
    },
    {
      "channel": 3,
      "note": 64,
      "start": 135.4885,
      "duration": 0.0744,
      "velocity": 114,
      "chip": "ym2612"
    },
    {
      "channel": 2,
      "note": 33,
      "start": 135.5992,
      "duration": 0.0971,
      "velocity": 113,
      "chip": "ym2612"
    },
    {
      "channel": 4,
      "note": 52,
      "start": 135.602,
      "duration": 0.0776,
      "velocity": 88,
      "chip": "ym2612"
    },
    {
      "channel": 5,
      "note": 40,
      "start": 135.6051,
      "duration": 0.3746,
      "velocity": 93,
      "chip": "ym2612"
    },
    {
      "channel": 0,
      "note": 67,
      "start": 135.6081,
      "duration": 0.0213,
      "velocity": 98,
      "chip": "ym2612"
    },
    {
      "channel": 1,
      "note": 64,
      "start": 135.6107,
      "duration": 0.0522,
      "velocity": 98,
      "chip": "ym2612"
    },
    {
      "channel": 3,
      "note": 71,
      "start": 135.6144,
      "duration": 0.0152,
      "velocity": 98,
      "chip": "ym2612"
    },
    {
      "channel": 2,
      "note": 40,
      "start": 135.7161,
      "duration": 0.2637,
      "velocity": 113,
      "chip": "ym2612"
    },
    {
      "channel": 4,
      "note": 52,
      "start": 135.8327,
      "duration": 0.047,
      "velocity": 88,
      "chip": "ym2612"
    },
    {
      "channel": 0,
      "note": 67,
      "start": 135.8357,
      "duration": 0.0437,
      "velocity": 98,
      "chip": "ym2612"
    },
    {
      "channel": 1,
      "note": 71,
      "start": 135.8382,
      "duration": 0.0413,
      "velocity": 98,
      "chip": "ym2612"
    },
    {
      "channel": 3,
      "note": 64,
      "start": 135.8411,
      "duration": 0.0551,
      "velocity": 98,
      "chip": "ym2612"
    },
    {
      "channel": 4,
      "note": 52,
      "start": 135.9664,
      "duration": 0.08,
      "velocity": 88,
      "chip": "ym2612"
    },
    {
      "channel": 0,
      "note": 64,
      "start": 135.9693,
      "duration": 0.0769,
      "velocity": 114,
      "chip": "ym2612"
    },
    {
      "channel": 1,
      "note": 34,
      "start": 135.9721,
      "duration": 0.0241,
      "velocity": 114,
      "chip": "ym2612"
    },
    {
      "channel": 0,
      "note": 34,
      "start": 136.0831,
      "duration": 0.113,
      "velocity": 114,
      "chip": "ym2612"
    },
    {
      "channel": 3,
      "note": 72,
      "start": 136.0861,
      "duration": 0.2268,
      "velocity": 98,
      "chip": "ym2612"
    },
    {
      "channel": 5,
      "note": 64,
      "start": 136.0889,
      "duration": 0.2074,
      "velocity": 98,
      "chip": "ym2612"
    },
    {
      "channel": 2,
      "note": 67,
      "start": 136.0924,
      "duration": 0.2208,
      "velocity": 98,
      "chip": "ym2612"
    },
    {
      "channel": 4,
      "note": 52,
      "start": 136.1992,
      "duration": 0.0804,
      "velocity": 88,
      "chip": "ym2612"
    },
    {
      "channel": 1,
      "note": 33,
      "start": 136.4495,
      "duration": 0.0158,
      "velocity": 113,
      "chip": "ym2612"
    },
    {
      "channel": 4,
      "note": 52,
      "start": 136.4521,
      "duration": 0.0942,
      "velocity": 88,
      "chip": "ym2612"
    },
    {
      "channel": 0,
      "note": 64,
      "start": 136.4549,
      "duration": 0.0579,
      "velocity": 114,
      "chip": "ym2612"
    },
    {
      "channel": 3,
      "note": 67,
      "start": 136.4578,
      "duration": 0.0383,
      "velocity": 98,
      "chip": "ym2612"
    },
    {
      "channel": 5,
      "note": 64,
      "start": 136.4605,
      "duration": 0.0359,
      "velocity": 98,
      "chip": "ym2612"
    },
    {
      "channel": 2,
      "note": 71,
      "start": 136.4636,
      "duration": 0.0329,
      "velocity": 98,
      "chip": "ym2612"
    },
    {
      "channel": 1,
      "note": 33,
      "start": 136.5658,
      "duration": 0.097,
      "velocity": 113,
      "chip": "ym2612"
    },
    {
      "channel": 1,
      "note": 40,
      "start": 136.6829,
      "duration": 0.1133,
      "velocity": 113,
      "chip": "ym2612"
    },
    {
      "channel": 4,
      "note": 55,
      "start": 136.6855,
      "duration": 0.2108,
      "velocity": 88,
      "chip": "ym2612"
    },
    {
      "channel": 0,
      "note": 116,
      "start": 136.6883,
      "duration": 0.0106,
      "velocity": 114,
      "chip": "ym2612"
    },
    {
      "channel": 3,
      "note": 67,
      "start": 136.6912,
      "duration": 0.0884,
      "velocity": 98,
      "chip": "ym2612"
    },
    {
      "channel": 5,
      "note": 64,
      "start": 136.694,
      "duration": 0.1356,
      "velocity": 98,
      "chip": "ym2612"
    },
    {
      "channel": 2,
      "note": 71,
      "start": 136.6973,
      "duration": 0.0325,
      "velocity": 98,
      "chip": "ym2612"
    },
    {
      "channel": 0,
      "note": 116,
      "start": 136.7994,
      "duration": 0.0633,
      "velocity": 114,
      "chip": "ym2612"
    },
    {
      "channel": 4,
      "note": 57,
      "start": 136.9326,
      "duration": 0.097,
      "velocity": 88,
      "chip": "ym2612"
    },
    {
      "channel": 0,
      "note": 116,
      "start": 136.9352,
      "duration": 0.0442,
      "velocity": 114,
      "chip": "ym2612"
    },
    {
      "channel": 2,
      "note": 64,
      "start": 136.9381,
      "duration": 0.0583,
      "velocity": 114,
      "chip": "ym2612"
    },
    {
      "channel": 1,
      "note": 40,
      "start": 137.049,
      "duration": 0.1137,
      "velocity": 113,
      "chip": "ym2612"
    },
    {
      "channel": 0,
      "note": 116,
      "start": 137.0522,
      "duration": 0.0273,
      "velocity": 114,
      "chip": "ym2612"
    },
    {
      "channel": 1,
      "note": 33,
      "start": 137.1659,
      "duration": 0.0971,
      "velocity": 113,
      "chip": "ym2612"
    },
    {
      "channel": 4,
      "note": 52,
      "start": 137.1685,
      "duration": 0.0778,
      "velocity": 88,
      "chip": "ym2612"
    },
    {
      "channel": 0,
      "note": 116,
      "start": 137.1713,
      "duration": 0.0916,
      "velocity": 114,
      "chip": "ym2612"
    },
    {
      "channel": 3,
      "note": 69,
      "start": 137.1745,
      "duration": 0.0385,
      "velocity": 98,
      "chip": "ym2612"
    },
    {
      "channel": 5,
      "note": 63,
      "start": 137.1773,
      "duration": 0.005,
      "velocity": 98,
      "chip": "ym2612"
    },
    {
      "channel": 2,
      "note": 66,
      "start": 137.1804,
      "duration": 0.002,
      "velocity": 98,
      "chip": "ym2612"
    },
    {
      "channel": 3,
      "note": 63,
      "start": 137.2833,
      "duration": 0.063,
      "velocity": 98,
      "chip": "ym2612"
    },
    {
      "channel": 5,
      "note": 66,
      "start": 137.2861,
      "duration": 0.0435,
      "velocity": 98,
      "chip": "ym2612"
    },
    {
      "channel": 2,
      "note": 69,
      "start": 137.2892,
      "duration": 0.0573,
      "velocity": 98,
      "chip": "ym2612"
    },
    {
      "channel": 1,
      "note": 33,
      "start": 137.4158,
      "duration": 0.0136,
      "velocity": 113,
      "chip": "ym2612"
    },
    {
      "channel": 4,
      "note": 52,
      "start": 137.4186,
      "duration": 0.0443,
      "velocity": 88,
      "chip": "ym2612"
    },
    {
      "channel": 0,
      "note": 64,
      "start": 137.4214,
      "duration": 0.0581,
      "velocity": 114,
      "chip": "ym2612"
    },
    {
      "channel": 1,
      "note": 33,
      "start": 137.5324,
      "duration": 0.0805,
      "velocity": 113,
      "chip": "ym2612"
    },
    {
      "channel": 4,
      "note": 52,
      "start": 137.5356,
      "duration": 0.0776,
      "velocity": 88,
      "chip": "ym2612"
    },
    {
      "channel": 3,
      "note": 66,
      "start": 137.5387,
      "duration": 0.0743,
      "velocity": 98,
      "chip": "ym2612"
    },
    {
      "channel": 5,
      "note": 63,
      "start": 137.5419,
      "duration": 0.0377,
      "velocity": 98,
      "chip": "ym2612"
    },
    {
      "channel": 2,
      "note": 69,
      "start": 137.545,
      "duration": 0.0021,
      "velocity": 98,
      "chip": "ym2612"
    },
    {
      "channel": 1,
      "note": 40,
      "start": 137.6492,
      "duration": 0.2971,
      "velocity": 113,
      "chip": "ym2612"
    },
    {
      "channel": 4,
      "note": 52,
      "start": 137.7659,
      "duration": 0.0803,
      "velocity": 88,
      "chip": "ym2612"
    },
    {
      "channel": 3,
      "note": 66,
      "start": 137.7691,
      "duration": 0.0938,
      "velocity": 98,
      "chip": "ym2612"
    },
    {
      "channel": 5,
      "note": 63,
      "start": 137.7719,
      "duration": 0.0577,
      "velocity": 98,
      "chip": "ym2612"
    },
    {
      "channel": 2,
      "note": 69,
      "start": 137.775,
      "duration": 0.1214,
      "velocity": 98,
      "chip": "ym2612"
    },
    {
      "channel": 4,
      "note": 52,
      "start": 137.8993,
      "duration": 0.0636,
      "velocity": 88,
      "chip": "ym2612"
    },
    {
      "channel": 0,
      "note": 64,
      "start": 137.9018,
      "duration": 0.0609,
      "velocity": 114,
      "chip": "ym2612"
    },
    {
      "channel": 3,
      "note": 67,
      "start": 138.0165,
      "duration": 0.0963,
      "velocity": 98,
      "chip": "ym2612"
    },
    {
      "channel": 5,
      "note": 64,
      "start": 138.0199,
      "duration": 0.1097,
      "velocity": 98,
      "chip": "ym2612"
    },
    {
      "channel": 4,
      "note": 52,
      "start": 138.1324,
      "duration": 0.0805,
      "velocity": 88,
      "chip": "ym2612"
    },
    {
      "channel": 2,
      "note": 59,
      "start": 138.1361,
      "duration": 0.0603,
      "velocity": 101,
      "chip": "ym2612"
    },
    {
      "channel": 2,
      "note": 59,
      "start": 138.2499,
      "duration": 0.0631,
      "velocity": 101,
      "chip": "ym2612"
    },
    {
      "channel": 1,
      "note": 33,
      "start": 138.3829,
      "duration": 0.1132,
      "velocity": 113,
      "chip": "ym2612"
    },
    {
      "channel": 4,
      "note": 52,
      "start": 138.3856,
      "duration": 0.1107,
      "velocity": 88,
      "chip": "ym2612"
    },
    {
      "channel": 0,
      "note": 64,
      "start": 138.3882,
      "duration": 0.0413,
      "velocity": 114,
      "chip": "ym2612"
    },
    {
      "channel": 2,
      "note": 59,
      "start": 138.3913,
      "duration": 0.055,
      "velocity": 101,
      "chip": "ym2612"
    },
    {
      "channel": 2,
      "note": 59,
      "start": 138.5006,
      "duration": 0.0291,
      "velocity": 101,
      "chip": "ym2612"
    },
    {
      "channel": 1,
      "note": 40,
      "start": 138.6156,
      "duration": 0.2139,
      "velocity": 113,
      "chip": "ym2612"
    },
    {
      "channel": 4,
      "note": 50,
      "start": 138.6181,
      "duration": 0.1115,
      "velocity": 88,
      "chip": "ym2612"
    },
    {
      "channel": 2,
      "note": 64,
      "start": 138.6216,
      "duration": 0.1082,
      "velocity": 101,
      "chip": "ym2612"
    },
    {
      "channel": 2,
      "note": 59,
      "start": 138.7336,
      "duration": 0.0461,
      "velocity": 101,
      "chip": "ym2612"
    },
    {
      "channel": 1,
      "note": 33,
      "start": 138.8658,
      "duration": 0.0469,
      "velocity": 113,
      "chip": "ym2612"
    },
    {
      "channel": 4,
      "note": 47,
      "start": 138.8684,
      "duration": 0.1112,
      "velocity": 88,
      "chip": "ym2612"
    },
    {
      "channel": 0,
      "note": 64,
      "start": 138.871,
      "duration": 0.0099,
      "velocity": 114,
      "chip": "ym2612"
    },
    {
      "channel": 3,
      "note": 34,
      "start": 138.8736,
      "duration": 0.0227,
      "velocity": 114,
      "chip": "ym2612"
    },
    {
      "channel": 5,
      "note": 116,
      "start": 138.8768,
      "duration": 0.008,
      "velocity": 114,
      "chip": "ym2612"
    },
    {
      "channel": 2,
      "note": 59,
      "start": 138.8801,
      "duration": 0.0164,
      "velocity": 101,
      "chip": "ym2612"
    },
    {
      "channel": 0,
      "note": 61,
      "start": 138.8831,
      "duration": 0.013,
      "velocity": 101,
      "chip": "ym2612"
    },
    {
      "channel": 1,
      "note": 40,
      "start": 138.9824,
      "duration": 0.1139,
      "velocity": 113,
      "chip": "ym2612"
    },
    {
      "channel": 3,
      "note": 116,
      "start": 138.9854,
      "duration": 0.0441,
      "velocity": 114,
      "chip": "ym2612"
    },
    {
      "channel": 5,
      "note": 34,
      "start": 138.988,
      "duration": 0.0918,
      "velocity": 114,
      "chip": "ym2612"
    },
    {
      "channel": 0,
      "note": 64,
      "start": 138.991,
      "duration": 0.0886,
      "velocity": 101,
      "chip": "ym2612"
    }
  ]
}