{
  "track_name": "12 - The Elder's Corner",
  "duration_sec": 17.599,
  "sample_rate": 44100,
  "note_count": 217,
  "unique_pitches": 14,
  "pitch_range": 36,
  "avg_note_duration": 0.2618,
  "reconstruction_stats": {
    "notes_reconstructed": 217,
    "keyon_events": 217,
    "keyoff_events": 215,
    "orphan_keyons": 2,
    "unique_pitches": 14,
    "pitch_range": 36,
    "avg_duration_sec": 0.2618
  },
  "metadata": {
    "source": "N\\Ninja Burai Densetsu\\12 - The Elder's Corner.vgz"
  },
  "notes": [
    {
      "channel": 0,
      "note": 52,
      "start": 0.0,
      "duration": 0.2652,
      "velocity": 99,
      "chip": "ym2612"
    },
    {
      "channel": 1,
      "note": 83,
      "start": 0.0015,
      "duration": 1.5471,
      "velocity": 93,
      "chip": "ym2612"
    },
    {
      "channel": 2,
      "note": 76,
      "start": 0.0031,
      "duration": 0.079,
      "velocity": 104,
      "chip": "ym2612"
    },
    {
      "channel": 3,
      "note": 83,
      "start": 0.0046,
      "duration": 0.0777,
      "velocity": 104,
      "chip": "ym2612"
    },
    {
      "channel": 5,
      "note": 83,
      "start": 0.0076,
      "duration": 1.5413,
      "velocity": 93,
      "chip": "ym2612"
    },
    {
      "channel": 4,
      "note": 76,
      "start": 0.1325,
      "duration": 0.083,
      "velocity": 104,
      "chip": "ym2612"
    },
    {
      "channel": 0,
      "note": 59,
      "start": 0.2654,
      "duration": 0.2665,
      "velocity": 99,
      "chip": "ym2612"
    },
    {
      "channel": 0,
      "note": 60,
      "start": 0.5321,
      "duration": 0.2665,
      "velocity": 99,
      "chip": "ym2612"
    },
    {
      "channel": 2,
      "note": 71,
      "start": 0.5326,
      "duration": 0.0828,
      "velocity": 104,
      "chip": "ym2612"
    },
    {
      "channel": 4,
      "note": 71,
      "start": 0.6658,
      "duration": 0.0831,
      "velocity": 104,
      "chip": "ym2612"
    },
    {
      "channel": 0,
      "note": 64,
      "start": 0.7988,
      "duration": 0.2165,
      "velocity": 99,
      "chip": "ym2612"
    },
    {
      "channel": 2,
      "note": 83,
      "start": 0.7993,
      "duration": 0.0828,
      "velocity": 104,
      "chip": "ym2612"
    },
    {
      "channel": 3,
      "note": 76,
      "start": 0.7995,
      "duration": 0.0828,
      "velocity": 104,
      "chip": "ym2612"
    },
    {
      "channel": 4,
      "note": 83,
      "start": 0.9324,
      "duration": 0.0832,
      "velocity": 104,
      "chip": "ym2612"
    },
    {
      "channel": 0,
      "note": 52,
      "start": 1.0654,
      "duration": 0.2665,
      "velocity": 99,
      "chip": "ym2612"
    },
    {
      "channel": 2,
      "note": 76,
      "start": 1.0659,
      "duration": 0.0828,
      "velocity": 104,
      "chip": "ym2612"
    },
    {
      "channel": 3,
      "note": 83,
      "start": 1.0662,
      "duration": 0.0828,
      "velocity": 104,
      "chip": "ym2612"
    },
    {
      "channel": 4,
      "note": 76,
      "start": 1.1991,
      "duration": 0.0831,
      "velocity": 104,
      "chip": "ym2612"
    },
    {
      "channel": 0,
      "note": 59,
      "start": 1.3321,
      "duration": 0.2665,
      "velocity": 99,
      "chip": "ym2612"
    },
    {
      "channel": 0,
      "note": 60,
      "start": 1.5988,
      "duration": 0.2665,
      "velocity": 99,
      "chip": "ym2612"
    },
    {
      "channel": 1,
      "note": 79,
      "start": 1.5991,
      "duration": 0.483,
      "velocity": 93,
      "chip": "ym2612"
    },
    {
      "channel": 2,
      "note": 71,
      "start": 1.5994,
      "duration": 0.0827,
      "velocity": 104,
      "chip": "ym2612"
    },
    {
      "channel": 5,
      "note": 79,
      "start": 1.5998,
      "duration": 0.4826,
      "velocity": 93,
      "chip": "ym2612"
    },
    {
      "channel": 4,
      "note": 71,
      "start": 1.7324,
      "duration": 0.0831,
      "velocity": 104,
      "chip": "ym2612"
    },
    {
      "channel": 0,
      "note": 64,
      "start": 1.8654,
      "duration": 0.2165,
      "velocity": 99,
      "chip": "ym2612"
    },
    {
      "channel": 0,
      "note": 52,
      "start": 2.1321,
      "duration": 0.2665,
      "velocity": 99,
      "chip": "ym2612"
    },
    {
      "channel": 1,
      "note": 78,
      "start": 2.1324,
      "duration": 0.5331,
      "velocity": 93,
      "chip": "ym2612"
    },
    {
      "channel": 2,
      "note": 76,
      "start": 2.1327,
      "duration": 0.0827,
      "velocity": 104,
      "chip": "ym2612"
    },
    {
      "channel": 3,
      "note": 83,
      "start": 2.1331,
      "duration": 0.0826,
      "velocity": 104,
      "chip": "ym2612"
    },
    {
      "channel": 5,
      "note": 78,
      "start": 2.1334,
      "duration": 0.5329,
      "velocity": 93,
      "chip": "ym2612"
    },
    {
      "channel": 4,
      "note": 76,
      "start": 2.2658,
      "duration": 0.0831,
      "velocity": 104,
      "chip": "ym2612"
    },
    {
      "channel": 0,
      "note": 59,
      "start": 2.3988,
      "duration": 0.2665,
      "velocity": 99,
      "chip": "ym2612"
    },
    {
      "channel": 0,
      "note": 60,
      "start": 2.6654,
      "duration": 0.2665,
      "velocity": 99,
      "chip": "ym2612"
    },
    {
      "channel": 1,
      "note": 76,
      "start": 2.6658,
      "duration": 0.4829,
      "velocity": 93,
      "chip": "ym2612"
    },
    {
      "channel": 2,
      "note": 71,
      "start": 2.6661,
      "duration": 0.0827,
      "velocity": 104,
      "chip": "ym2612"
    },
    {
      "channel": 5,
      "note": 76,
      "start": 2.6664,
      "duration": 0.4826,
      "velocity": 93,
      "chip": "ym2612"
    },
    {
      "channel": 4,
      "note": 71,
      "start": 2.7991,
      "duration": 0.0831,
      "velocity": 104,
      "chip": "ym2612"
    },
    {
      "channel": 0,
      "note": 64,
      "start": 2.9321,
      "duration": 0.2665,
      "velocity": 99,
      "chip": "ym2612"
    },
    {
      "channel": 2,
      "note": 83,
      "start": 2.9326,
      "duration": 0.0828,
      "velocity": 104,
      "chip": "ym2612"
    },
    {
      "channel": 3,
      "note": 76,
      "start": 2.9329,
      "duration": 0.0828,
      "velocity": 104,
      "chip": "ym2612"
    },
    {
      "channel": 4,
      "note": 83,
      "start": 3.0658,
      "duration": 0.0831,
      "velocity": 104,
      "chip": "ym2612"
    },
    {
      "channel": 0,
      "note": 66,
      "start": 3.1988,
      "duration": 0.2165,
      "velocity": 99,
      "chip": "ym2612"
    },
    {
      "channel": 1,
      "note": 78,
      "start": 3.1991,
      "duration": 0.4829,
      "velocity": 93,
      "chip": "ym2612"
    },
    {
      "channel": 2,
      "note": 83,
      "start": 3.1994,
      "duration": 0.0827,
      "velocity": 104,
      "chip": "ym2612"
    },
    {
      "channel": 3,
      "note": 76,
      "start": 3.1997,
      "duration": 0.0826,
      "velocity": 104,
      "chip": "ym2612"
    },
    {
      "channel": 5,
      "note": 78,
      "start": 3.2,
      "duration": 0.4822,
      "velocity": 93,
      "chip": "ym2612"
    },
    {
      "channel": 4,
      "note": 83,
      "start": 3.3324,
      "duration": 0.0832,
      "velocity": 104,
      "chip": "ym2612"
    },
    {
      "channel": 0,
      "note": 67,
      "start": 3.4654,
      "duration": 0.2665,
      "velocity": 99,
      "chip": "ym2612"
    },
    {
      "channel": 0,
      "note": 66,
      "start": 3.7321,
      "duration": 0.2165,
      "velocity": 99,
      "chip": "ym2612"
    },
    {
      "channel": 1,
      "note": 79,
      "start": 3.7324,
      "duration": 0.2665,
      "velocity": 93,
      "chip": "ym2612"
    },
    {
      "channel": 2,
      "note": 71,
      "start": 3.7327,
      "duration": 0.0827,
      "velocity": 104,
      "chip": "ym2612"
    },
    {
      "channel": 5,
      "note": 79,
      "start": 3.7331,
      "duration": 0.2666,
      "velocity": 93,
      "chip": "ym2612"
    },
    {
      "channel": 4,
      "note": 71,
      "start": 3.8658,
      "duration": 0.0832,
      "velocity": 104,
      "chip": "ym2612"
    },
    {
      "channel": 0,
      "note": 64,
      "start": 3.9988,
      "duration": 0.1665,
      "velocity": 99,
      "chip": "ym2612"
    },
    {
      "channel": 2,
      "note": 84,
      "start": 3.9993,
      "duration": 0.0327,
      "velocity": 104,
      "chip": "ym2612"
    },
    {
      "channel": 3,
      "note": 77,
      "start": 3.9995,
      "duration": 0.0326,
      "velocity": 104,
      "chip": "ym2612"
    },
    {
      "channel": 4,
      "note": 84,
      "start": 4.1323,
      "duration": 0.0332,
      "velocity": 104,
      "chip": "ym2612"
    },
    {
      "channel": 0,
      "note": 52,
      "start": 4.2655,
      "duration": 0.2664,
      "velocity": 99,
      "chip": "ym2612"
    },
    {
      "channel": 1,
      "note": 83,
      "start": 4.2658,
      "duration": 1.5998,
      "velocity": 93,
      "chip": "ym2612"
    },
    {
      "channel": 2,
      "note": 83,
      "start": 4.2661,
      "duration": 0.0827,
      "velocity": 104,
      "chip": "ym2612"
    },
    {
      "channel": 3,
      "note": 76,
      "start": 4.2664,
      "duration": 0.0826,
      "velocity": 104,
      "chip": "ym2612"
    },
    {
      "channel": 5,
      "note": 83,
      "start": 4.2668,
      "duration": 1.5995,
      "velocity": 93,
      "chip": "ym2612"
    },
    {
      "channel": 4,
      "note": 83,
      "start": 4.3991,
      "duration": 0.0831,
      "velocity": 104,
      "chip": "ym2612"
    },
    {
      "channel": 0,
      "note": 59,
      "start": 4.5321,
      "duration": 0.2665,
      "velocity": 99,
      "chip": "ym2612"
    },
    {
      "channel": 0,
      "note": 60,
      "start": 4.7988,
      "duration": 0.2665,
      "velocity": 99,
      "chip": "ym2612"
    },
    {
      "channel": 2,
      "note": 71,
      "start": 4.7993,
      "duration": 0.0828,
      "velocity": 104,
      "chip": "ym2612"
    },
    {
      "channel": 4,
      "note": 71,
      "start": 4.9324,
      "duration": 0.0831,
      "velocity": 104,
      "chip": "ym2612"
    },
    {
      "channel": 0,
      "note": 64,
      "start": 5.0654,
      "duration": 0.2165,
      "velocity": 99,
      "chip": "ym2612"
    },
    {
      "channel": 2,
      "note": 76,
      "start": 5.0659,
      "duration": 0.0828,
      "velocity": 104,
      "chip": "ym2612"
    },
    {
      "channel": 3,
      "note": 83,
      "start": 5.0662,
      "duration": 0.0828,
      "velocity": 104,
      "chip": "ym2612"
    },
    {
      "channel": 4,
      "note": 76,
      "start": 5.1991,
      "duration": 0.0832,
      "velocity": 104,
      "chip": "ym2612"
    },
    {
      "channel": 0,
      "note": 52,
      "start": 5.3321,
      "duration": 0.2665,
      "velocity": 99,
      "chip": "ym2612"
    },
    {
      "channel": 2,
      "note": 83,
      "start": 5.3326,
      "duration": 0.0828,
      "velocity": 104,
      "chip": "ym2612"
    },
    {
      "channel": 3,
      "note": 76,
      "start": 5.3329,
      "duration": 0.0828,
      "velocity": 104,
      "chip": "ym2612"
    },
    {
      "channel": 4,
      "note": 83,
      "start": 5.4658,
      "duration": 0.0831,
      "velocity": 104,
      "chip": "ym2612"
    },
    {
      "channel": 0,
      "note": 59,
      "start": 5.5988,
      "duration": 0.2665,
      "velocity": 99,
      "chip": "ym2612"
    },
    {
      "channel": 0,
      "note": 60,
      "start": 5.8654,
      "duration": 0.2665,
      "velocity": 99,
      "chip": "ym2612"
    },
    {
      "channel": 1,
      "note": 84,
      "start": 5.8658,
      "duration": 0.5331,
      "velocity": 93,
      "chip": "ym2612"
    },
    {
      "channel": 2,
      "note": 71,
      "start": 5.8661,
      "duration": 0.0827,
      "velocity": 104,
      "chip": "ym2612"
    },
    {
      "channel": 5,
      "note": 84,
      "start": 5.8664,
      "duration": 0.5334,
      "velocity": 93,
      "chip": "ym2612"
    },
    {
      "channel": 4,
      "note": 71,
      "start": 5.9991,
      "duration": 0.0831,
      "velocity": 104,
      "chip": "ym2612"
    },
    {
      "channel": 0,
      "note": 64,
      "start": 6.1321,
      "duration": 0.2165,
      "velocity": 99,
      "chip": "ym2612"
    },
    {
      "channel": 0,
      "note": 52,
      "start": 6.3988,
      "duration": 0.2665,
      "velocity": 99,
      "chip": "ym2612"
    },
    {
      "channel": 1,
      "note": 83,
      "start": 6.3991,
      "duration": 2.1331,
      "velocity": 93,
      "chip": "ym2612"
    },
    {
      "channel": 2,
      "note": 76,
      "start": 6.3994,
      "duration": 0.0827,
      "velocity": 104,
      "chip": "ym2612"
    },
    {
      "channel": 3,
      "note": 83,
      "start": 6.3997,
      "duration": 0.0826,
      "velocity": 104,
      "chip": "ym2612"
    },
    {
      "channel": 5,
      "note": 83,
      "start": 6.4,
      "duration": 2.1331,
      "velocity": 93,
      "chip": "ym2612"
    },
    {
      "channel": 4,
      "note": 76,
      "start": 6.5324,
      "duration": 0.0831,
      "velocity": 104,
      "chip": "ym2612"
    },
    {
      "channel": 0,
      "note": 59,
      "start": 6.6654,
      "duration": 0.2665,
      "velocity": 99,
      "chip": "ym2612"
    },
    {
      "channel": 0,
      "note": 60,
      "start": 6.9321,
      "duration": 0.2665,
      "velocity": 99,
      "chip": "ym2612"
    },
    {
      "channel": 2,
      "note": 71,
      "start": 6.9326,
      "duration": 0.0828,
      "velocity": 104,
      "chip": "ym2612"
    },
    {
      "channel": 4,
      "note": 71,
      "start": 7.0658,
      "duration": 0.0831,
      "velocity": 104,
      "chip": "ym2612"
    },
    {
      "channel": 0,
      "note": 64,
      "start": 7.1988,
      "duration": 0.2665,
      "velocity": 99,
      "chip": "ym2612"
    },
    {
      "channel": 2,
      "note": 84,
      "start": 7.1993,
      "duration": 0.0328,
      "velocity": 104,
      "chip": "ym2612"
    },
    {
      "channel": 3,
      "note": 77,
      "start": 7.1995,
      "duration": 0.0328,
      "velocity": 104,
      "chip": "ym2612"
    },
    {
      "channel": 4,
      "note": 84,
      "start": 7.3324,
      "duration": 0.0331,
      "velocity": 104,
      "chip": "ym2612"
    },
    {
      "channel": 0,
      "note": 66,
      "start": 7.4654,
      "duration": 0.2165,
      "velocity": 99,
      "chip": "ym2612"
    },
    {
      "channel": 2,
      "note": 77,
      "start": 7.4659,
      "duration": 0.0828,
      "velocity": 104,
      "chip": "ym2612"
    },
    {
      "channel": 3,
      "note": 84,
      "start": 7.4662,
      "duration": 0.0327,
      "velocity": 104,
      "chip": "ym2612"
    },
    {
      "channel": 4,
      "note": 77,
      "start": 7.5991,
      "duration": 0.0832,
      "velocity": 104,
      "chip": "ym2612"
    },
    {
      "channel": 0,
      "note": 67,
      "start": 7.7321,
      "duration": 0.2665,
      "velocity": 99,
      "chip": "ym2612"
    },
    {
      "channel": 0,
      "note": 66,
      "start": 7.9988,
      "duration": 0.2165,
      "velocity": 99,
      "chip": "ym2612"
    },
    {
      "channel": 2,
      "note": 76,
      "start": 7.9993,
      "duration": 0.0828,
      "velocity": 104,
      "chip": "ym2612"
    },
    {
      "channel": 3,
      "note": 83,
      "start": 7.9995,
      "duration": 0.0828,
      "velocity": 104,
      "chip": "ym2612"
    },
    {
      "channel": 4,
      "note": 76,
      "start": 8.1324,
      "duration": 0.0832,
      "velocity": 104,
      "chip": "ym2612"
    },
    {
      "channel": 0,
      "note": 64,
      "start": 8.2654,
      "duration": 0.1665,
      "velocity": 99,
      "chip": "ym2612"
    },
    {
      "channel": 0,
      "note": 52,
      "start": 8.5322,
      "duration": 0.2664,
      "velocity": 99,
      "chip": "ym2612"
    },
    {
      "channel": 2,
      "note": 76,
      "start": 8.5327,
      "duration": 0.0826,
      "velocity": 104,
      "chip": "ym2612"
    },
    {
      "channel": 3,
      "note": 83,
      "start": 8.533,
      "duration": 0.0825,
      "velocity": 104,
      "chip": "ym2612"
    },
    {
      "channel": 4,
      "note": 76,
      "start": 8.6656,
      "duration": 0.0831,
      "velocity": 104,
      "chip": "ym2612"
    },
    {
      "channel": 0,
      "note": 59,
      "start": 8.7988,
      "duration": 0.2665,
      "velocity": 99,
      "chip": "ym2612"
    },
    {
      "channel": 0,
      "note": 60,
      "start": 9.0654,
      "duration": 0.2665,
      "velocity": 99,
      "chip": "ym2612"
    },
    {
      "channel": 2,
      "note": 71,
      "start": 9.0658,
      "duration": 0.0828,
      "velocity": 104,
      "chip": "ym2612"
    },
    {
      "channel": 4,
      "note": 71,
      "start": 9.199,
      "duration": 0.0831,
      "velocity": 104,
      "chip": "ym2612"
    },
    {
      "channel": 0,
      "note": 64,
      "start": 9.3321,
      "duration": 0.2165,
      "velocity": 99,
      "chip": "ym2612"
    },
    {
      "channel": 1,
      "note": 84,
      "start": 9.3324,
      "duration": 0.2163,
      "velocity": 93,
      "chip": "ym2612"
    },
    {
      "channel": 2,
      "note": 83,
      "start": 9.3327,
      "duration": 0.0827,
      "velocity": 104,
      "chip": "ym2612"
    },
    {
      "channel": 3,
      "note": 76,
      "start": 9.3331,
      "duration": 0.0826,
      "velocity": 104,
      "chip": "ym2612"
    },
    {
      "channel": 5,
      "note": 84,
      "start": 9.3334,
      "duration": 0.2158,
      "velocity": 93,
      "chip": "ym2612"
    },
    {
      "channel": 4,
      "note": 83,
      "start": 9.4658,
      "duration": 0.0833,
      "velocity": 104,
      "chip": "ym2612"
    },
    {
      "channel": 0,
      "note": 52,
      "start": 9.5988,
      "duration": 0.2665,
      "velocity": 99,
      "chip": "ym2612"
    },
    {
      "channel": 1,
      "note": 83,
      "start": 9.5991,
      "duration": 0.5331,
      "velocity": 93,
      "chip": "ym2612"
    },
    {
      "channel": 2,
      "note": 76,
      "start": 9.5994,
      "duration": 0.0827,
      "velocity": 104,
      "chip": "ym2612"
    },
    {
      "channel": 3,
      "note": 83,
      "start": 9.5997,
      "duration": 0.0826,
      "velocity": 104,
      "chip": "ym2612"
    },
    {
      "channel": 5,
      "note": 83,
      "start": 9.6,
      "duration": 0.5329,
      "velocity": 93,
      "chip": "ym2612"
    },
    {
      "channel": 4,
      "note": 76,
      "start": 9.7324,
      "duration": 0.0831,
      "velocity": 104,
      "chip": "ym2612"
    },
    {
      "channel": 0,
      "note": 59,
      "start": 9.8654,
      "duration": 0.2665,
      "velocity": 99,
      "chip": "ym2612"
    },
    {
      "channel": 0,
      "note": 60,
      "start": 10.1321,
      "duration": 0.2665,
      "velocity": 99,
      "chip": "ym2612"
    },
    {
      "channel": 1,
      "note": 84,
      "start": 10.1324,
      "duration": 0.5331,
      "velocity": 93,
      "chip": "ym2612"
    },
    {
      "channel": 2,
      "note": 71,
      "start": 10.1327,
      "duration": 0.0827,
      "velocity": 104,
      "chip": "ym2612"
    },
    {
      "channel": 5,
      "note": 84,
      "start": 10.1331,
      "duration": 0.5334,
      "velocity": 93,
      "chip": "ym2612"
    },
    {
      "channel": 4,
      "note": 71,
      "start": 10.2658,
      "duration": 0.0831,
      "velocity": 104,
      "chip": "ym2612"
    },
    {
      "channel": 0,
      "note": 64,
      "start": 10.3988,
      "duration": 0.2165,
      "velocity": 99,
      "chip": "ym2612"
    },
    {
      "channel": 0,
      "note": 52,
      "start": 10.6654,
      "duration": 0.2665,
      "velocity": 99,
      "chip": "ym2612"
    },
    {
      "channel": 1,
      "note": 88,
      "start": 10.6658,
      "duration": 1.5998,
      "velocity": 93,
      "chip": "ym2612"
    },
    {
      "channel": 2,
      "note": 76,
      "start": 10.6661,
      "duration": 0.0827,
      "velocity": 104,
      "chip": "ym2612"
    },
    {
      "channel": 3,
      "note": 83,
      "start": 10.6664,
      "duration": 0.0826,
      "velocity": 104,
      "chip": "ym2612"
    },
    {
      "channel": 5,
      "note": 88,
      "start": 10.6667,
      "duration": 1.5995,
      "velocity": 93,
      "chip": "ym2612"
    },
    {
      "channel": 4,
      "note": 76,
      "start": 10.7991,
      "duration": 0.0831,
      "velocity": 104,
      "chip": "ym2612"
    },
    {
      "channel": 0,
      "note": 59,
      "start": 10.9321,
      "duration": 0.2665,
      "velocity": 99,
      "chip": "ym2612"
    },
    {
      "channel": 0,
      "note": 60,
      "start": 11.1988,
      "duration": 0.2665,
      "velocity": 99,
      "chip": "ym2612"
    },
    {
      "channel": 2,
      "note": 71,
      "start": 11.1993,
      "duration": 0.0828,
      "velocity": 104,
      "chip": "ym2612"
    },
    {
      "channel": 4,
      "note": 71,
      "start": 11.3324,
      "duration": 0.0831,
      "velocity": 104,
      "chip": "ym2612"
    },
    {
      "channel": 0,
      "note": 64,
      "start": 11.4654,
      "duration": 0.2665,
      "velocity": 99,
      "chip": "ym2612"
    },
    {
      "channel": 2,
      "note": 83,
      "start": 11.4659,
      "duration": 0.0828,
      "velocity": 104,
      "chip": "ym2612"
    },
    {
      "channel": 3,
      "note": 76,
      "start": 11.4662,
      "duration": 0.0828,
      "velocity": 104,
      "chip": "ym2612"
    },
    {
      "channel": 4,
      "note": 83,
      "start": 11.5991,
      "duration": 0.0831,
      "velocity": 104,
      "chip": "ym2612"
    },
    {
      "channel": 0,
      "note": 66,
      "start": 11.7321,
      "duration": 0.2165,
      "velocity": 99,
      "chip": "ym2612"
    },
    {
      "channel": 2,
      "note": 83,
      "start": 11.7326,
      "duration": 0.0828,
      "velocity": 104,
      "chip": "ym2612"
    },
    {
      "channel": 3,
      "note": 76,
      "start": 11.7329,
      "duration": 0.0828,
      "velocity": 104,
      "chip": "ym2612"
    },
    {
      "channel": 4,
      "note": 83,
      "start": 11.8658,
      "duration": 0.0832,
      "velocity": 104,
      "chip": "ym2612"
    },
    {
      "channel": 0,
      "note": 67,
      "start": 11.9988,
      "duration": 0.2665,
      "velocity": 99,
      "chip": "ym2612"
    },
    {
      "channel": 0,
      "note": 66,
      "start": 12.2654,
      "duration": 0.2165,
      "velocity": 99,
      "chip": "ym2612"
    },
    {
      "channel": 1,
      "note": 84,
      "start": 12.2658,
      "duration": 0.433,
      "velocity": 93,
      "chip": "ym2612"
    },
    {
      "channel": 2,
      "note": 71,
      "start": 12.2661,
      "duration": 0.0827,
      "velocity": 104,
      "chip": "ym2612"
    },
    {
      "channel": 5,
      "note": 84,
      "start": 12.2664,
      "duration": 0.4327,
      "velocity": 93,
      "chip": "ym2612"
    },
    {
      "channel": 4,
      "note": 71,
      "start": 12.3991,
      "duration": 0.0832,
      "velocity": 104,
      "chip": "ym2612"
    },
    {
      "channel": 0,
      "note": 64,
      "start": 12.5321,
      "duration": 0.1665,
      "velocity": 99,
      "chip": "ym2612"
    },
    {
      "channel": 2,
      "note": 84,
      "start": 12.5326,
      "duration": 0.0328,
      "velocity": 104,
      "chip": "ym2612"
    },
    {
      "channel": 3,
      "note": 77,
      "start": 12.5329,
      "duration": 0.0328,
      "velocity": 104,
      "chip": "ym2612"
    },
    {
      "channel": 4,
      "note": 84,
      "start": 12.6658,
      "duration": 0.0333,
      "velocity": 104,
      "chip": "ym2612"
    },
    {
      "channel": 0,
      "note": 52,
      "start": 12.7988,
      "duration": 0.2664,
      "velocity": 99,
      "chip": "ym2612"
    },
    {
      "channel": 1,
      "note": 83,
      "start": 12.7991,
      "duration": 1.5495,
      "velocity": 93,
      "chip": "ym2612"
    },
    {
      "channel": 2,
      "note": 83,
      "start": 12.7995,
      "duration": 0.0827,
      "velocity": 104,
      "chip": "ym2612"
    },
    {
      "channel": 3,
      "note": 76,
      "start": 12.7997,
      "duration": 0.0826,
      "velocity": 104,
      "chip": "ym2612"
    },
    {
      "channel": 5,
      "note": 83,
      "start": 12.8001,
      "duration": 1.5488,
      "velocity": 93,
      "chip": "ym2612"
    },
    {
      "channel": 4,
      "note": 83,
      "start": 12.9324,
      "duration": 0.0831,
      "velocity": 104,
      "chip": "ym2612"
    },
    {
      "channel": 0,
      "note": 59,
      "start": 13.0654,
      "duration": 0.2665,
      "velocity": 99,
      "chip": "ym2612"
    },
    {
      "channel": 0,
      "note": 60,
      "start": 13.3321,
      "duration": 0.2665,
      "velocity": 99,
      "chip": "ym2612"
    },
    {
      "channel": 2,
      "note": 71,
      "start": 13.3326,
      "duration": 0.0828,
      "velocity": 104,
      "chip": "ym2612"
    },
    {
      "channel": 4,
      "note": 71,
      "start": 13.4658,
      "duration": 0.0831,
      "velocity": 104,
      "chip": "ym2612"
    },
    {
      "channel": 0,
      "note": 64,
      "start": 13.5988,
      "duration": 0.2165,
      "velocity": 99,
      "chip": "ym2612"
    },
    {
      "channel": 2,
      "note": 76,
      "start": 13.5993,
      "duration": 0.0828,
      "velocity": 104,
      "chip": "ym2612"
    },
    {
      "channel": 3,
      "note": 83,
      "start": 13.5995,
      "duration": 0.0828,
      "velocity": 104,
      "chip": "ym2612"
    },
    {
      "channel": 4,
      "note": 76,
      "start": 13.7324,
      "duration": 0.0832,
      "velocity": 104,
      "chip": "ym2612"
    },
    {
      "channel": 0,
      "note": 52,
      "start": 13.8654,
      "duration": 0.2665,
      "velocity": 99,
      "chip": "ym2612"
    },
    {
      "channel": 2,
      "note": 83,
      "start": 13.8659,
      "duration": 0.0828,
      "velocity": 104,
      "chip": "ym2612"
    },
    {
      "channel": 3,
      "note": 76,
      "start": 13.8662,
      "duration": 0.0828,
      "velocity": 104,
      "chip": "ym2612"
    },
    {
      "channel": 4,
      "note": 83,
      "start": 13.9991,
      "duration": 0.0831,
      "velocity": 104,
      "chip": "ym2612"
    },
    {
      "channel": 0,
      "note": 59,
      "start": 14.1321,
      "duration": 0.2665,
      "velocity": 99,
      "chip": "ym2612"
    },
    {
      "channel": 0,
      "note": 60,
      "start": 14.3988,
      "duration": 0.2665,
      "velocity": 99,
      "chip": "ym2612"
    },
    {
      "channel": 1,
      "note": 84,
      "start": 14.3991,
      "duration": 0.5331,
      "velocity": 93,
      "chip": "ym2612"
    },
    {
      "channel": 2,
      "note": 71,
      "start": 14.3994,
      "duration": 0.0827,
      "velocity": 104,
      "chip": "ym2612"
    },
    {
      "channel": 5,
      "note": 84,
      "start": 14.3998,
      "duration": 0.5334,
      "velocity": 93,
      "chip": "ym2612"
    },
    {
      "channel": 4,
      "note": 71,
      "start": 14.5324,
      "duration": 0.0831,
      "velocity": 104,
      "chip": "ym2612"
    },
    {
      "channel": 0,
      "note": 64,
      "start": 14.6654,
      "duration": 0.2165,
      "velocity": 99,
      "chip": "ym2612"
    },
    {
      "channel": 0,
      "note": 52,
      "start": 14.9321,
      "duration": 0.2665,
      "velocity": 99,
      "chip": "ym2612"
    },
    {
      "channel": 1,
      "note": 83,
      "start": 14.9324,
      "duration": 1.8163,
      "velocity": 93,
      "chip": "ym2612"
    },
    {
      "channel": 2,
      "note": 76,
      "start": 14.9327,
      "duration": 0.0827,
      "velocity": 104,
      "chip": "ym2612"
    },
    {
      "channel": 3,
      "note": 83,
      "start": 14.9331,
      "duration": 0.0826,
      "velocity": 104,
      "chip": "ym2612"
    },
    {
      "channel": 5,
      "note": 83,
      "start": 14.9334,
      "duration": 1.8158,
      "velocity": 93,
      "chip": "ym2612"
    },
    {
      "channel": 4,
      "note": 76,
      "start": 15.0658,
      "duration": 0.0831,
      "velocity": 104,
      "chip": "ym2612"
    },
    {
      "channel": 0,
      "note": 59,
      "start": 15.1988,
      "duration": 0.2665,
      "velocity": 99,
      "chip": "ym2612"
    },
    {
      "channel": 0,
      "note": 60,
      "start": 15.4654,
      "duration": 0.2665,
      "velocity": 99,
      "chip": "ym2612"
    },
    {
      "channel": 2,
      "note": 71,
      "start": 15.4659,
      "duration": 0.0828,
      "velocity": 104,
      "chip": "ym2612"
    },
    {
      "channel": 4,
      "note": 71,
      "start": 15.5991,
      "duration": 0.0831,
      "velocity": 104,
      "chip": "ym2612"
    },
    {
      "channel": 0,
      "note": 64,
      "start": 15.7321,
      "duration": 0.2665,
      "velocity": 99,
      "chip": "ym2612"
    },
    {
      "channel": 2,
      "note": 84,
      "start": 15.7326,
      "duration": 0.0328,
      "velocity": 104,
      "chip": "ym2612"
    },
    {
      "channel": 3,
      "note": 77,
      "start": 15.7329,
      "duration": 0.0328,
      "velocity": 104,
      "chip": "ym2612"
    },
    {
      "channel": 4,
      "note": 84,
      "start": 15.8658,
      "duration": 0.0331,
      "velocity": 104,
      "chip": "ym2612"
    },
    {
      "channel": 0,
      "note": 66,
      "start": 15.9988,
      "duration": 0.2165,
      "velocity": 99,
      "chip": "ym2612"
    },
    {
      "channel": 2,
      "note": 77,
      "start": 15.9993,
      "duration": 0.0828,
      "velocity": 104,
      "chip": "ym2612"
    },
    {
      "channel": 3,
      "note": 84,
      "start": 15.9995,
      "duration": 0.0327,
      "velocity": 104,
      "chip": "ym2612"
    },
    {
      "channel": 4,
      "note": 77,
      "start": 16.1324,
      "duration": 0.0832,
      "velocity": 104,
      "chip": "ym2612"
    },
    {
      "channel": 0,
      "note": 67,
      "start": 16.2654,
      "duration": 0.2665,
      "velocity": 99,
      "chip": "ym2612"
    },
    {
      "channel": 0,
      "note": 66,
      "start": 16.5321,
      "duration": 0.2165,
      "velocity": 99,
      "chip": "ym2612"
    },
    {
      "channel": 2,
      "note": 76,
      "start": 16.5326,
      "duration": 0.0828,
      "velocity": 104,
      "chip": "ym2612"
    },
    {
      "channel": 3,
      "note": 83,
      "start": 16.5329,
      "duration": 0.0828,
      "velocity": 104,
      "chip": "ym2612"
    },
    {
      "channel": 4,
      "note": 76,
      "start": 16.6658,
      "duration": 0.0833,
      "velocity": 104,
      "chip": "ym2612"
    },
    {
      "channel": 0,
      "note": 64,
      "start": 16.7988,
      "duration": 0.1665,
      "velocity": 99,
      "chip": "ym2612"
    },
    {
      "channel": 0,
      "note": 52,
      "start": 17.0655,
      "duration": 0.2664,
      "velocity": 99,
      "chip": "ym2612"
    },
    {
      "channel": 1,
      "note": 83,
      "start": 17.0658,
      "duration": 0.533,
      "velocity": 93,
      "chip": "ym2612"
    },
    {
      "channel": 2,
      "note": 76,
      "start": 17.0662,
      "duration": 0.0826,
      "velocity": 104,
      "chip": "ym2612"
    },
    {
      "channel": 3,
      "note": 83,
      "start": 17.0665,
      "duration": 0.0824,
      "velocity": 104,
      "chip": "ym2612"
    },
    {
      "channel": 5,
      "note": 83,
      "start": 17.0669,
      "duration": 0.5319,
      "velocity": 93,
      "chip": "ym2612"
    },
    {
      "channel": 4,
      "note": 76,
      "start": 17.1991,
      "duration": 0.0831,
      "velocity": 104,
      "chip": "ym2612"
    },
    {
      "channel": 0,
      "note": 59,
      "start": 17.3321,
      "duration": 0.2665,
      "velocity": 99,
      "chip": "ym2612"
    }
  ]
}