{
  "track_name": "12 - March in Southeast Asia",
  "duration_sec": 77.793,
  "sample_rate": 44100,
  "note_count": 982,
  "unique_pitches": 28,
  "pitch_range": 67,
  "avg_note_duration": 0.2529,
  "reconstruction_stats": {
    "notes_reconstructed": 982,
    "keyon_events": 982,
    "keyoff_events": 981,
    "orphan_keyons": 1,
    "unique_pitches": 28,
    "pitch_range": 67,
    "avg_duration_sec": 0.2529
  },
  "metadata": {
    "source": "G\\Genghis Khan II - Clan of the Grey Wolf\\12 - March in Southeast Asia.vgz"
  },
  "notes": [
    {
      "channel": 0,
      "note": 59,
      "start": 0.0,
      "duration": 0.0,
      "velocity": 91,
      "chip": "ym2612"
    },
    {
      "channel": 0,
      "note": 64,
      "start": 0.0,
      "duration": 0.0,
      "velocity": 91,
      "chip": "ym2612"
    },
    {
      "channel": 1,
      "note": 64,
      "start": 0.0,
      "duration": 0.0,
      "velocity": 106,
      "chip": "ym2612"
    },
    {
      "channel": 2,
      "note": 23,
      "start": 0.0,
      "duration": 0.0,
      "velocity": 104,
      "chip": "ym2612"
    },
    {
      "channel": 3,
      "note": 66,
      "start": 0.0,
      "duration": 0.0,
      "velocity": 99,
      "chip": "ym2612"
    },
    {
      "channel": 3,
      "note": 67,
      "start": 0.0,
      "duration": 0.0,
      "velocity": 99,
      "chip": "ym2612"
    },
    {
      "channel": 1,
      "note": 52,
      "start": 0.0022,
      "duration": 0.2424,
      "velocity": 91,
      "chip": "ym2612"
    },
    {
      "channel": 2,
      "note": 42,
      "start": 0.0062,
      "duration": 0.1217,
      "velocity": 101,
      "chip": "ym2612"
    },
    {
      "channel": 2,
      "note": 57,
      "start": 0.1493,
      "duration": 0.1288,
      "velocity": 127,
      "chip": "ym2612"
    },
    {
      "channel": 1,
      "note": 55,
      "start": 0.295,
      "duration": 0.2496,
      "velocity": 91,
      "chip": "ym2612"
    },
    {
      "channel": 2,
      "note": 57,
      "start": 0.2956,
      "duration": 0.1169,
      "velocity": 127,
      "chip": "ym2612"
    },
    {
      "channel": 2,
      "note": 57,
      "start": 0.445,
      "duration": 0.1174,
      "velocity": 127,
      "chip": "ym2612"
    },
    {
      "channel": 1,
      "note": 52,
      "start": 0.5951,
      "duration": 0.2339,
      "velocity": 91,
      "chip": "ym2612"
    },
    {
      "channel": 2,
      "note": 72,
      "start": 0.599,
      "duration": 0.1123,
      "velocity": 119,
      "chip": "ym2612"
    },
    {
      "channel": 2,
      "note": 57,
      "start": 0.7484,
      "duration": 0.113,
      "velocity": 127,
      "chip": "ym2612"
    },
    {
      "channel": 1,
      "note": 55,
      "start": 0.8795,
      "duration": 0.2485,
      "velocity": 91,
      "chip": "ym2612"
    },
    {
      "channel": 2,
      "note": 57,
      "start": 0.88,
      "duration": 0.1314,
      "velocity": 127,
      "chip": "ym2612"
    },
    {
      "channel": 2,
      "note": 42,
      "start": 1.0331,
      "duration": 0.1283,
      "velocity": 101,
      "chip": "ym2612"
    },
    {
      "channel": 1,
      "note": 52,
      "start": 1.1784,
      "duration": 0.2495,
      "velocity": 91,
      "chip": "ym2612"
    },
    {
      "channel": 2,
      "note": 42,
      "start": 1.1824,
      "duration": 0.1136,
      "velocity": 127,
      "chip": "ym2612"
    },
    {
      "channel": 2,
      "note": 57,
      "start": 1.3285,
      "duration": 0.1172,
      "velocity": 127,
      "chip": "ym2612"
    },
    {
      "channel": 1,
      "note": 55,
      "start": 1.4784,
      "duration": 0.2339,
      "velocity": 91,
      "chip": "ym2612"
    },
    {
      "channel": 2,
      "note": 57,
      "start": 1.479,
      "duration": 0.1157,
      "velocity": 127,
      "chip": "ym2612"
    },
    {
      "channel": 2,
      "note": 57,
      "start": 1.6284,
      "duration": 0.1163,
      "velocity": 127,
      "chip": "ym2612"
    },
    {
      "channel": 1,
      "note": 52,
      "start": 1.763,
      "duration": 0.2483,
      "velocity": 91,
      "chip": "ym2612"
    },
    {
      "channel": 2,
      "note": 72,
      "start": 1.767,
      "duration": 0.1277,
      "velocity": 119,
      "chip": "ym2612"
    },
    {
      "channel": 2,
      "note": 57,
      "start": 1.9151,
      "duration": 0.1296,
      "velocity": 127,
      "chip": "ym2612"
    },
    {
      "channel": 1,
      "note": 55,
      "start": 2.0618,
      "duration": 0.2495,
      "velocity": 91,
      "chip": "ym2612"
    },
    {
      "channel": 2,
      "note": 57,
      "start": 2.0623,
      "duration": 0.1168,
      "velocity": 127,
      "chip": "ym2612"
    },
    {
      "channel": 2,
      "note": 42,
      "start": 2.215,
      "duration": 0.113,
      "velocity": 101,
      "chip": "ym2612"
    },
    {
      "channel": 1,
      "note": 52,
      "start": 2.3623,
      "duration": 0.2333,
      "velocity": 91,
      "chip": "ym2612"
    },
    {
      "channel": 2,
      "note": 42,
      "start": 2.363,
      "duration": 0.115,
      "velocity": 101,
      "chip": "ym2612"
    },
    {
      "channel": 2,
      "note": 57,
      "start": 2.4996,
      "duration": 0.1284,
      "velocity": 127,
      "chip": "ym2612"
    },
    {
      "channel": 1,
      "note": 55,
      "start": 2.6461,
      "duration": 0.2485,
      "velocity": 91,
      "chip": "ym2612"
    },
    {
      "channel": 2,
      "note": 57,
      "start": 2.6467,
      "duration": 0.1314,
      "velocity": 127,
      "chip": "ym2612"
    },
    {
      "channel": 2,
      "note": 57,
      "start": 2.795,
      "duration": 0.1174,
      "velocity": 127,
      "chip": "ym2612"
    },
    {
      "channel": 1,
      "note": 52,
      "start": 2.9451,
      "duration": 0.2495,
      "velocity": 91,
      "chip": "ym2612"
    },
    {
      "channel": 2,
      "note": 72,
      "start": 2.949,
      "duration": 0.1133,
      "velocity": 119,
      "chip": "ym2612"
    },
    {
      "channel": 2,
      "note": 57,
      "start": 3.0987,
      "duration": 0.1127,
      "velocity": 127,
      "chip": "ym2612"
    },
    {
      "channel": 1,
      "note": 55,
      "start": 3.2451,
      "duration": 0.2338,
      "velocity": 91,
      "chip": "ym2612"
    },
    {
      "channel": 2,
      "note": 57,
      "start": 3.2457,
      "duration": 0.1157,
      "velocity": 127,
      "chip": "ym2612"
    },
    {
      "channel": 2,
      "note": 42,
      "start": 3.3827,
      "duration": 0.1287,
      "velocity": 101,
      "chip": "ym2612"
    },
    {
      "channel": 1,
      "note": 52,
      "start": 3.5294,
      "duration": 0.2486,
      "velocity": 91,
      "chip": "ym2612"
    },
    {
      "channel": 2,
      "note": 42,
      "start": 3.5333,
      "duration": 0.1281,
      "velocity": 127,
      "chip": "ym2612"
    },
    {
      "channel": 2,
      "note": 57,
      "start": 3.6785,
      "duration": 0.1172,
      "velocity": 127,
      "chip": "ym2612"
    },
    {
      "channel": 1,
      "note": 55,
      "start": 3.8285,
      "duration": 0.2494,
      "velocity": 91,
      "chip": "ym2612"
    },
    {
      "channel": 2,
      "note": 57,
      "start": 3.8293,
      "duration": 0.1166,
      "velocity": 127,
      "chip": "ym2612"
    },
    {
      "channel": 2,
      "note": 57,
      "start": 3.9784,
      "duration": 0.1163,
      "velocity": 127,
      "chip": "ym2612"
    },
    {
      "channel": 1,
      "note": 52,
      "start": 4.1284,
      "duration": 0.2341,
      "velocity": 91,
      "chip": "ym2612"
    },
    {
      "channel": 2,
      "note": 72,
      "start": 4.1324,
      "duration": 0.1123,
      "velocity": 119,
      "chip": "ym2612"
    },
    {
      "channel": 2,
      "note": 57,
      "start": 4.266,
      "duration": 0.1287,
      "velocity": 127,
      "chip": "ym2612"
    },
    {
      "channel": 0,
      "note": 79,
      "start": 4.4117,
      "duration": 0.1341,
      "velocity": 99,
      "chip": "ym2612"
    },
    {
      "channel": 1,
      "note": 55,
      "start": 4.4124,
      "duration": 0.2489,
      "velocity": 91,
      "chip": "ym2612"
    },
    {
      "channel": 2,
      "note": 57,
      "start": 4.413,
      "duration": 0.1318,
      "velocity": 127,
      "chip": "ym2612"
    },
    {
      "channel": 0,
      "note": 81,
      "start": 4.5617,
      "duration": 0.1329,
      "velocity": 99,
      "chip": "ym2612"
    },
    {
      "channel": 2,
      "note": 42,
      "start": 4.5659,
      "duration": 0.1132,
      "velocity": 101,
      "chip": "ym2612"
    },
    {
      "channel": 0,
      "note": 83,
      "start": 4.7118,
      "duration": 0.6661,
      "velocity": 99,
      "chip": "ym2612"
    },
    {
      "channel": 1,
      "note": 52,
      "start": 4.7126,
      "duration": 0.2487,
      "velocity": 91,
      "chip": "ym2612"
    },
    {
      "channel": 2,
      "note": 42,
      "start": 4.7133,
      "duration": 0.1148,
      "velocity": 101,
      "chip": "ym2612"
    },
    {
      "channel": 3,
      "note": 76,
      "start": 4.7142,
      "duration": 1.1169,
      "velocity": 97,
      "chip": "ym2612"
    },
    {
      "channel": 2,
      "note": 57,
      "start": 4.8651,
      "duration": 0.113,
      "velocity": 127,
      "chip": "ym2612"
    },
    {
      "channel": 1,
      "note": 55,
      "start": 5.0004,
      "duration": 0.2442,
      "velocity": 91,
      "chip": "ym2612"
    },
    {
      "channel": 2,
      "note": 57,
      "start": 5.001,
      "duration": 0.127,
      "velocity": 127,
      "chip": "ym2612"
    },
    {
      "channel": 2,
      "note": 57,
      "start": 5.1504,
      "duration": 0.1277,
      "velocity": 127,
      "chip": "ym2612"
    },
    {
      "channel": 1,
      "note": 52,
      "start": 5.2952,
      "duration": 0.2494,
      "velocity": 91,
      "chip": "ym2612"
    },
    {
      "channel": 2,
      "note": 72,
      "start": 5.2993,
      "duration": 0.1173,
      "velocity": 119,
      "chip": "ym2612"
    },
    {
      "channel": 0,
      "note": 83,
      "start": 5.445,
      "duration": 0.1191,
      "velocity": 99,
      "chip": "ym2612"
    },
    {
      "channel": 2,
      "note": 57,
      "start": 5.449,
      "duration": 0.1154,
      "velocity": 127,
      "chip": "ym2612"
    },
    {
      "channel": 0,
      "note": 84,
      "start": 5.595,
      "duration": 0.1162,
      "velocity": 99,
      "chip": "ym2612"
    },
    {
      "channel": 1,
      "note": 55,
      "start": 5.5957,
      "duration": 0.2351,
      "velocity": 91,
      "chip": "ym2612"
    },
    {
      "channel": 2,
      "note": 57,
      "start": 5.5963,
      "duration": 0.1152,
      "velocity": 127,
      "chip": "ym2612"
    },
    {
      "channel": 0,
      "note": 86,
      "start": 5.745,
      "duration": 0.1162,
      "velocity": 99,
      "chip": "ym2612"
    },
    {
      "channel": 2,
      "note": 42,
      "start": 5.749,
      "duration": 0.1125,
      "velocity": 101,
      "chip": "ym2612"
    },
    {
      "channel": 0,
      "note": 88,
      "start": 5.881,
      "duration": 0.6636,
      "velocity": 99,
      "chip": "ym2612"
    },
    {
      "channel": 1,
      "note": 52,
      "start": 5.8817,
      "duration": 0.2463,
      "velocity": 91,
      "chip": "ym2612"
    },
    {
      "channel": 2,
      "note": 42,
      "start": 5.8856,
      "duration": 0.1258,
      "velocity": 127,
      "chip": "ym2612"
    },
    {
      "channel": 3,
      "note": 78,
      "start": 5.8863,
      "duration": 1.1252,
      "velocity": 97,
      "chip": "ym2612"
    },
    {
      "channel": 2,
      "note": 57,
      "start": 6.0315,
      "duration": 0.1299,
      "velocity": 127,
      "chip": "ym2612"
    },
    {
      "channel": 1,
      "note": 55,
      "start": 6.1784,
      "duration": 0.2495,
      "velocity": 91,
      "chip": "ym2612"
    },
    {
      "channel": 2,
      "note": 57,
      "start": 6.179,
      "duration": 0.1203,
      "velocity": 127,
      "chip": "ym2612"
    },
    {
      "channel": 2,
      "note": 57,
      "start": 6.3284,
      "duration": 0.1217,
      "velocity": 127,
      "chip": "ym2612"
    },
    {
      "channel": 1,
      "note": 52,
      "start": 6.4784,
      "duration": 0.2356,
      "velocity": 91,
      "chip": "ym2612"
    },
    {
      "channel": 2,
      "note": 72,
      "start": 6.4824,
      "duration": 0.1123,
      "velocity": 119,
      "chip": "ym2612"
    },
    {
      "channel": 0,
      "note": 88,
      "start": 6.6284,
      "duration": 0.1162,
      "velocity": 99,
      "chip": "ym2612"
    },
    {
      "channel": 2,
      "note": 57,
      "start": 6.6326,
      "duration": 0.1122,
      "velocity": 127,
      "chip": "ym2612"
    },
    {
      "channel": 0,
      "note": 86,
      "start": 6.7647,
      "duration": 0.1299,
      "velocity": 99,
      "chip": "ym2612"
    },
    {
      "channel": 1,
      "note": 55,
      "start": 6.7654,
      "duration": 0.2459,
      "velocity": 91,
      "chip": "ym2612"
    },
    {
      "channel": 2,
      "note": 57,
      "start": 6.7659,
      "duration": 0.129,
      "velocity": 127,
      "chip": "ym2612"
    },
    {
      "channel": 0,
      "note": 84,
      "start": 6.9117,
      "duration": 0.1329,
      "velocity": 99,
      "chip": "ym2612"
    },
    {
      "channel": 2,
      "note": 42,
      "start": 6.9157,
      "duration": 0.1291,
      "velocity": 101,
      "chip": "ym2612"
    },
    {
      "channel": 0,
      "note": 83,
      "start": 7.0617,
      "duration": 0.1188,
      "velocity": 99,
      "chip": "ym2612"
    },
    {
      "channel": 1,
      "note": 52,
      "start": 7.0625,
      "duration": 0.2488,
      "velocity": 91,
      "chip": "ym2612"
    },
    {
      "channel": 2,
      "note": 42,
      "start": 7.0632,
      "duration": 0.1176,
      "velocity": 101,
      "chip": "ym2612"
    },
    {
      "channel": 3,
      "note": 76,
      "start": 7.0639,
      "duration": 3.481,
      "velocity": 97,
      "chip": "ym2612"
    },
    {
      "channel": 2,
      "note": 57,
      "start": 7.2151,
      "duration": 0.113,
      "velocity": 127,
      "chip": "ym2612"
    },
    {
      "channel": 0,
      "note": 76,
      "start": 7.3617,
      "duration": 0.1162,
      "velocity": 99,
      "chip": "ym2612"
    },
    {
      "channel": 1,
      "note": 55,
      "start": 7.3627,
      "duration": 0.2363,
      "velocity": 91,
      "chip": "ym2612"
    },
    {
      "channel": 2,
      "note": 57,
      "start": 7.3632,
      "duration": 0.115,
      "velocity": 127,
      "chip": "ym2612"
    },
    {
      "channel": 2,
      "note": 57,
      "start": 7.498,
      "duration": 0.1301,
      "velocity": 127,
      "chip": "ym2612"
    },
    {
      "channel": 0,
      "note": 79,
      "start": 7.6503,
      "duration": 1.1276,
      "velocity": 99,
      "chip": "ym2612"
    },
    {
      "channel": 1,
      "note": 52,
      "start": 7.651,
      "duration": 0.2436,
      "velocity": 91,
      "chip": "ym2612"
    },
    {
      "channel": 2,
      "note": 72,
      "start": 7.655,
      "duration": 0.1232,
      "velocity": 119,
      "chip": "ym2612"
    },
    {
      "channel": 2,
      "note": 57,
      "start": 7.7984,
      "duration": 0.1172,
      "velocity": 127,
      "chip": "ym2612"
    },
    {
      "channel": 1,
      "note": 55,
      "start": 7.9451,
      "duration": 0.2495,
      "velocity": 91,
      "chip": "ym2612"
    },
    {
      "channel": 2,
      "note": 57,
      "start": 7.9457,
      "duration": 0.12,
      "velocity": 127,
      "chip": "ym2612"
    },
    {
      "channel": 2,
      "note": 42,
      "start": 8.0986,
      "duration": 0.1128,
      "velocity": 101,
      "chip": "ym2612"
    },
    {
      "channel": 1,
      "note": 52,
      "start": 8.2451,
      "duration": 0.2382,
      "velocity": 91,
      "chip": "ym2612"
    },
    {
      "channel": 2,
      "note": 42,
      "start": 8.249,
      "duration": 0.1123,
      "velocity": 127,
      "chip": "ym2612"
    },
    {
      "channel": 2,
      "note": 57,
      "start": 8.3837,
      "duration": 0.1277,
      "velocity": 127,
      "chip": "ym2612"
    },
    {
      "channel": 1,
      "note": 55,
      "start": 8.5338,
      "duration": 0.2444,
      "velocity": 91,
      "chip": "ym2612"
    },
    {
      "channel": 2,
      "note": 57,
      "start": 8.5344,
      "duration": 0.1271,
      "velocity": 127,
      "chip": "ym2612"
    },
    {
      "channel": 2,
      "note": 57,
      "start": 8.6784,
      "duration": 0.1217,
      "velocity": 127,
      "chip": "ym2612"
    },
    {
      "channel": 1,
      "note": 52,
      "start": 8.8285,
      "duration": 0.2494,
      "velocity": 91,
      "chip": "ym2612"
    },
    {
      "channel": 2,
      "note": 72,
      "start": 8.8326,
      "duration": 0.1163,
      "velocity": 119,
      "chip": "ym2612"
    },
    {
      "channel": 2,
      "note": 57,
      "start": 8.9817,
      "duration": 0.113,
      "velocity": 127,
      "chip": "ym2612"
    },
    {
      "channel": 0,
      "note": 79,
      "start": 9.1284,
      "duration": 0.1329,
      "velocity": 99,
      "chip": "ym2612"
    },
    {
      "channel": 1,
      "note": 55,
      "start": 9.1291,
      "duration": 0.2351,
      "velocity": 91,
      "chip": "ym2612"
    },
    {
      "channel": 2,
      "note": 57,
      "start": 9.1296,
      "duration": 0.1151,
      "velocity": 127,
      "chip": "ym2612"
    },
    {
      "channel": 0,
      "note": 81,
      "start": 9.2645,
      "duration": 0.1328,
      "velocity": 99,
      "chip": "ym2612"
    },
    {
      "channel": 2,
      "note": 42,
      "start": 9.2684,
      "duration": 0.1263,
      "velocity": 101,
      "chip": "ym2612"
    },
    {
      "channel": 0,
      "note": 83,
      "start": 9.4117,
      "duration": 0.6662,
      "velocity": 99,
      "chip": "ym2612"
    },
    {
      "channel": 1,
      "note": 52,
      "start": 9.4125,
      "duration": 0.2488,
      "velocity": 91,
      "chip": "ym2612"
    },
    {
      "channel": 2,
      "note": 42,
      "start": 9.4132,
      "duration": 0.1316,
      "velocity": 101,
      "chip": "ym2612"
    },
    {
      "channel": 2,
      "note": 57,
      "start": 9.5653,
      "duration": 0.118,
      "velocity": 127,
      "chip": "ym2612"
    },
    {
      "channel": 1,
      "note": 55,
      "start": 9.7118,
      "duration": 0.2495,
      "velocity": 91,
      "chip": "ym2612"
    },
    {
      "channel": 2,
      "note": 57,
      "start": 9.7123,
      "duration": 0.1157,
      "velocity": 127,
      "chip": "ym2612"
    },
    {
      "channel": 2,
      "note": 57,
      "start": 9.8617,
      "duration": 0.1163,
      "velocity": 127,
      "chip": "ym2612"
    },
    {
      "channel": 1,
      "note": 52,
      "start": 10.0013,
      "duration": 0.2434,
      "velocity": 91,
      "chip": "ym2612"
    },
    {
      "channel": 2,
      "note": 72,
      "start": 10.0052,
      "duration": 0.1228,
      "velocity": 119,
      "chip": "ym2612"
    },
    {
      "channel": 0,
      "note": 83,
      "start": 10.1513,
      "duration": 0.1266,
      "velocity": 99,
      "chip": "ym2612"
    },
    {
      "channel": 2,
      "note": 57,
      "start": 10.1553,
      "duration": 0.1229,
      "velocity": 127,
      "chip": "ym2612"
    },
    {
      "channel": 0,
      "note": 84,
      "start": 10.295,
      "duration": 0.1199,
      "velocity": 99,
      "chip": "ym2612"
    },
    {
      "channel": 1,
      "note": 55,
      "start": 10.296,
      "duration": 0.2487,
      "velocity": 91,
      "chip": "ym2612"
    },
    {
      "channel": 2,
      "note": 57,
      "start": 10.2966,
      "duration": 0.1186,
      "velocity": 127,
      "chip": "ym2612"
    },
    {
      "channel": 0,
      "note": 86,
      "start": 10.445,
      "duration": 0.12,
      "velocity": 99,
      "chip": "ym2612"
    },
    {
      "channel": 2,
      "note": 42,
      "start": 10.449,
      "duration": 0.1163,
      "velocity": 101,
      "chip": "ym2612"
    },
    {
      "channel": 0,
      "note": 88,
      "start": 10.595,
      "duration": 0.6537,
      "velocity": 99,
      "chip": "ym2612"
    },
    {
      "channel": 1,
      "note": 52,
      "start": 10.5957,
      "duration": 0.2368,
      "velocity": 91,
      "chip": "ym2612"
    },
    {
      "channel": 2,
      "note": 42,
      "start": 10.5997,
      "duration": 0.1117,
      "velocity": 127,
      "chip": "ym2612"
    },
    {
      "channel": 3,
      "note": 78,
      "start": 10.6004,
      "duration": 1.1139,
      "velocity": 97,
      "chip": "ym2612"
    },
    {
      "channel": 2,
      "note": 57,
      "start": 10.7452,
      "duration": 0.1162,
      "velocity": 127,
      "chip": "ym2612"
    },
    {
      "channel": 1,
      "note": 55,
      "start": 10.8838,
      "duration": 0.2442,
      "velocity": 91,
      "chip": "ym2612"
    },
    {
      "channel": 2,
      "note": 57,
      "start": 10.8843,
      "duration": 0.1271,
      "velocity": 127,
      "chip": "ym2612"
    },
    {
      "channel": 2,
      "note": 57,
      "start": 11.0339,
      "duration": 0.1275,
      "velocity": 127,
      "chip": "ym2612"
    },
    {
      "channel": 1,
      "note": 52,
      "start": 11.1784,
      "duration": 0.2495,
      "velocity": 91,
      "chip": "ym2612"
    },
    {
      "channel": 2,
      "note": 72,
      "start": 11.1824,
      "duration": 0.1178,
      "velocity": 119,
      "chip": "ym2612"
    },
    {
      "channel": 0,
      "note": 88,
      "start": 11.3284,
      "duration": 0.119,
      "velocity": 99,
      "chip": "ym2612"
    },
    {
      "channel": 2,
      "note": 57,
      "start": 11.3324,
      "duration": 0.1152,
      "velocity": 127,
      "chip": "ym2612"
    },
    {
      "channel": 0,
      "note": 86,
      "start": 11.4784,
      "duration": 0.1162,
      "velocity": 99,
      "chip": "ym2612"
    },
    {
      "channel": 1,
      "note": 55,
      "start": 11.4791,
      "duration": 0.2349,
      "velocity": 91,
      "chip": "ym2612"
    },
    {
      "channel": 2,
      "note": 57,
      "start": 11.4796,
      "duration": 0.1152,
      "velocity": 127,
      "chip": "ym2612"
    },
    {
      "channel": 0,
      "note": 84,
      "start": 11.6284,
      "duration": 0.1162,
      "velocity": 99,
      "chip": "ym2612"
    },
    {
      "channel": 2,
      "note": 42,
      "start": 11.6326,
      "duration": 0.1123,
      "velocity": 101,
      "chip": "ym2612"
    },
    {
      "channel": 0,
      "note": 83,
      "start": 11.7646,
      "duration": 0.13,
      "velocity": 99,
      "chip": "ym2612"
    },
    {
      "channel": 1,
      "note": 52,
      "start": 11.7654,
      "duration": 0.2459,
      "velocity": 91,
      "chip": "ym2612"
    },
    {
      "channel": 2,
      "note": 42,
      "start": 11.766,
      "duration": 0.1288,
      "velocity": 101,
      "chip": "ym2612"
    },
    {
      "channel": 3,
      "note": 76,
      "start": 11.7668,
      "duration": 2.3281,
      "velocity": 97,
      "chip": "ym2612"
    },
    {
      "channel": 2,
      "note": 57,
      "start": 11.9151,
      "duration": 0.1296,
      "velocity": 127,
      "chip": "ym2612"
    },
    {
      "channel": 0,
      "note": 76,
      "start": 12.0617,
      "duration": 0.119,
      "velocity": 99,
      "chip": "ym2612"
    },
    {
      "channel": 1,
      "note": 55,
      "start": 12.0624,
      "duration": 0.2489,
      "velocity": 91,
      "chip": "ym2612"
    },
    {
      "channel": 2,
      "note": 57,
      "start": 12.063,
      "duration": 0.1179,
      "velocity": 127,
      "chip": "ym2612"
    },
    {
      "channel": 2,
      "note": 57,
      "start": 12.2117,
      "duration": 0.1163,
      "velocity": 127,
      "chip": "ym2612"
    },
    {
      "channel": 0,
      "note": 79,
      "start": 12.3617,
      "duration": 1.1214,
      "velocity": 99,
      "chip": "ym2612"
    },
    {
      "channel": 1,
      "note": 52,
      "start": 12.3627,
      "duration": 0.2363,
      "velocity": 91,
      "chip": "ym2612"
    },
    {
      "channel": 2,
      "note": 72,
      "start": 12.3666,
      "duration": 0.1115,
      "velocity": 119,
      "chip": "ym2612"
    },
    {
      "channel": 2,
      "note": 57,
      "start": 12.5014,
      "duration": 0.1266,
      "velocity": 127,
      "chip": "ym2612"
    },
    {
      "channel": 1,
      "note": 55,
      "start": 12.6504,
      "duration": 0.2442,
      "velocity": 91,
      "chip": "ym2612"
    },
    {
      "channel": 2,
      "note": 57,
      "start": 12.651,
      "duration": 0.1271,
      "velocity": 127,
      "chip": "ym2612"
    },
    {
      "channel": 2,
      "note": 42,
      "start": 12.7983,
      "duration": 0.1183,
      "velocity": 101,
      "chip": "ym2612"
    },
    {
      "channel": 1,
      "note": 52,
      "start": 12.9451,
      "duration": 0.2495,
      "velocity": 91,
      "chip": "ym2612"
    },
    {
      "channel": 2,
      "note": 42,
      "start": 12.949,
      "duration": 0.1177,
      "velocity": 127,
      "chip": "ym2612"
    },
    {
      "channel": 2,
      "note": 57,
      "start": 13.0954,
      "duration": 0.116,
      "velocity": 127,
      "chip": "ym2612"
    },
    {
      "channel": 1,
      "note": 55,
      "start": 13.2451,
      "duration": 0.2382,
      "velocity": 91,
      "chip": "ym2612"
    },
    {
      "channel": 2,
      "note": 57,
      "start": 13.2457,
      "duration": 0.1157,
      "velocity": 127,
      "chip": "ym2612"
    },
    {
      "channel": 2,
      "note": 57,
      "start": 13.3828,
      "duration": 0.1286,
      "velocity": 127,
      "chip": "ym2612"
    },
    {
      "channel": 1,
      "note": 52,
      "start": 13.5328,
      "duration": 0.2452,
      "velocity": 91,
      "chip": "ym2612"
    },
    {
      "channel": 2,
      "note": 72,
      "start": 13.5367,
      "duration": 0.1247,
      "velocity": 119,
      "chip": "ym2612"
    },
    {
      "channel": 2,
      "note": 57,
      "start": 13.6817,
      "duration": 0.1173,
      "velocity": 127,
      "chip": "ym2612"
    },
    {
      "channel": 0,
      "note": 78,
      "start": 13.8284,
      "duration": 0.1329,
      "velocity": 99,
      "chip": "ym2612"
    },
    {
      "channel": 1,
      "note": 55,
      "start": 13.8293,
      "duration": 0.2487,
      "velocity": 91,
      "chip": "ym2612"
    },
    {
      "channel": 2,
      "note": 57,
      "start": 13.8299,
      "duration": 0.1176,
      "velocity": 127,
      "chip": "ym2612"
    },
    {
      "channel": 0,
      "note": 79,
      "start": 13.9784,
      "duration": 0.1329,
      "velocity": 99,
      "chip": "ym2612"
    },
    {
      "channel": 2,
      "note": 42,
      "start": 13.9824,
      "duration": 0.1123,
      "velocity": 101,
      "chip": "ym2612"
    },
    {
      "channel": 0,
      "note": 81,
      "start": 14.1284,
      "duration": 0.6536,
      "velocity": 99,
      "chip": "ym2612"
    },
    {
      "channel": 1,
      "note": 52,
      "start": 14.1292,
      "duration": 0.2367,
      "velocity": 91,
      "chip": "ym2612"
    },
    {
      "channel": 2,
      "note": 42,
      "start": 14.1299,
      "duration": 0.1148,
      "velocity": 101,
      "chip": "ym2612"
    },
    {
      "channel": 3,
      "note": 72,
      "start": 14.1306,
      "duration": 2.3171,
      "velocity": 97,
      "chip": "ym2612"
    },
    {
      "channel": 2,
      "note": 57,
      "start": 14.2677,
      "duration": 0.127,
      "velocity": 127,
      "chip": "ym2612"
    },
    {
      "channel": 1,
      "note": 57,
      "start": 14.4118,
      "duration": 0.2495,
      "velocity": 91,
      "chip": "ym2612"
    },
    {
      "channel": 2,
      "note": 57,
      "start": 14.4123,
      "duration": 0.1324,
      "velocity": 127,
      "chip": "ym2612"
    },
    {
      "channel": 2,
      "note": 57,
      "start": 14.5617,
      "duration": 0.1217,
      "velocity": 127,
      "chip": "ym2612"
    },
    {
      "channel": 1,
      "note": 52,
      "start": 14.7118,
      "duration": 0.2495,
      "velocity": 91,
      "chip": "ym2612"
    },
    {
      "channel": 2,
      "note": 72,
      "start": 14.7157,
      "duration": 0.1123,
      "velocity": 119,
      "chip": "ym2612"
    },
    {
      "channel": 0,
      "note": 81,
      "start": 14.8618,
      "duration": 0.1161,
      "velocity": 99,
      "chip": "ym2612"
    },
    {
      "channel": 2,
      "note": 57,
      "start": 14.8658,
      "duration": 0.1124,
      "velocity": 127,
      "chip": "ym2612"
    },
    {
      "channel": 0,
      "note": 83,
      "start": 14.9977,
      "duration": 0.1302,
      "velocity": 99,
      "chip": "ym2612"
    },
    {
      "channel": 1,
      "note": 57,
      "start": 14.9984,
      "duration": 0.2462,
      "velocity": 91,
      "chip": "ym2612"
    },
    {
      "channel": 2,
      "note": 57,
      "start": 14.999,
      "duration": 0.1292,
      "velocity": 127,
      "chip": "ym2612"
    },
    {
      "channel": 0,
      "note": 84,
      "start": 15.1478,
      "duration": 0.1301,
      "velocity": 99,
      "chip": "ym2612"
    },
    {
      "channel": 2,
      "note": 42,
      "start": 15.1517,
      "duration": 0.1265,
      "velocity": 101,
      "chip": "ym2612"
    },
    {
      "channel": 0,
      "note": 83,
      "start": 15.295,
      "duration": 0.6881,
      "velocity": 99,
      "chip": "ym2612"
    },
    {
      "channel": 1,
      "note": 52,
      "start": 15.296,
      "duration": 0.2487,
      "velocity": 91,
      "chip": "ym2612"
    },
    {
      "channel": 2,
      "note": 42,
      "start": 15.2999,
      "duration": 0.1142,
      "velocity": 127,
      "chip": "ym2612"
    },
    {
      "channel": 2,
      "note": 57,
      "start": 15.4452,
      "duration": 0.1208,
      "velocity": 127,
      "chip": "ym2612"
    },
    {
      "channel": 1,
      "note": 57,
      "start": 15.5951,
      "duration": 0.2375,
      "velocity": 91,
      "chip": "ym2612"
    },
    {
      "channel": 2,
      "note": 57,
      "start": 15.5957,
      "duration": 0.1157,
      "velocity": 127,
      "chip": "ym2612"
    },
    {
      "channel": 2,
      "note": 57,
      "start": 15.745,
      "duration": 0.1163,
      "velocity": 127,
      "chip": "ym2612"
    },
    {
      "channel": 1,
      "note": 52,
      "start": 15.8837,
      "duration": 0.2443,
      "velocity": 91,
      "chip": "ym2612"
    },
    {
      "channel": 2,
      "note": 72,
      "start": 15.8875,
      "duration": 0.1239,
      "velocity": 119,
      "chip": "ym2612"
    },
    {
      "channel": 0,
      "note": 81,
      "start": 16.0338,
      "duration": 0.1274,
      "velocity": 99,
      "chip": "ym2612"
    },
    {
      "channel": 2,
      "note": 57,
      "start": 16.0378,
      "duration": 0.1237,
      "velocity": 127,
      "chip": "ym2612"
    },
    {
      "channel": 0,
      "note": 79,
      "start": 16.1784,
      "duration": 0.1191,
      "velocity": 99,
      "chip": "ym2612"
    },
    {
      "channel": 1,
      "note": 57,
      "start": 16.1791,
      "duration": 0.2489,
      "velocity": 91,
      "chip": "ym2612"
    },
    {
      "channel": 2,
      "note": 57,
      "start": 16.1796,
      "duration": 0.1181,
      "velocity": 127,
      "chip": "ym2612"
    },
    {
      "channel": 0,
      "note": 78,
      "start": 16.3284,
      "duration": 0.1188,
      "velocity": 99,
      "chip": "ym2612"
    },
    {
      "channel": 2,
      "note": 42,
      "start": 16.3323,
      "duration": 0.1151,
      "velocity": 101,
      "chip": "ym2612"
    },
    {
      "channel": 0,
      "note": 79,
      "start": 16.4784,
      "duration": 0.1162,
      "velocity": 99,
      "chip": "ym2612"
    },
    {
      "channel": 1,
      "note": 52,
      "start": 16.4791,
      "duration": 0.2366,
      "velocity": 91,
      "chip": "ym2612"
    },
    {
      "channel": 2,
      "note": 42,
      "start": 16.4798,
      "duration": 0.1151,
      "velocity": 101,
      "chip": "ym2612"
    },
    {
      "channel": 3,
      "note": 71,
      "start": 16.4805,
      "duration": 2.3172,
      "velocity": 97,
      "chip": "ym2612"
    },
    {
      "channel": 2,
      "note": 57,
      "start": 16.632,
      "duration": 0.1127,
      "velocity": 127,
      "chip": "ym2612"
    },
    {
      "channel": 0,
      "note": 76,
      "start": 16.7672,
      "duration": 1.6149,
      "velocity": 99,
      "chip": "ym2612"
    },
    {
      "channel": 1,
      "note": 55,
      "start": 16.7679,
      "duration": 0.2434,
      "velocity": 91,
      "chip": "ym2612"
    },
    {
      "channel": 2,
      "note": 57,
      "start": 16.7685,
      "duration": 0.1262,
      "velocity": 127,
      "chip": "ym2612"
    },
    {
      "channel": 2,
      "note": 57,
      "start": 16.9117,
      "duration": 0.133,
      "velocity": 127,
      "chip": "ym2612"
    },
    {
      "channel": 1,
      "note": 52,
      "start": 17.0618,
      "duration": 0.2495,
      "velocity": 91,
      "chip": "ym2612"
    },
    {
      "channel": 2,
      "note": 72,
      "start": 17.0657,
      "duration": 0.1166,
      "velocity": 119,
      "chip": "ym2612"
    },
    {
      "channel": 2,
      "note": 57,
      "start": 17.2151,
      "duration": 0.113,
      "velocity": 127,
      "chip": "ym2612"
    },
    {
      "channel": 1,
      "note": 55,
      "start": 17.3619,
      "duration": 0.238,
      "velocity": 91,
      "chip": "ym2612"
    },
    {
      "channel": 2,
      "note": 57,
      "start": 17.3626,
      "duration": 0.1155,
      "velocity": 127,
      "chip": "ym2612"
    },
    {
      "channel": 2,
      "note": 42,
      "start": 17.5038,
      "duration": 0.1242,
      "velocity": 101,
      "chip": "ym2612"
    },
    {
      "channel": 1,
      "note": 52,
      "start": 17.6503,
      "duration": 0.2443,
      "velocity": 91,
      "chip": "ym2612"
    },
    {
      "channel": 2,
      "note": 42,
      "start": 17.6543,
      "duration": 0.1239,
      "velocity": 127,
      "chip": "ym2612"
    },
    {
      "channel": 2,
      "note": 57,
      "start": 17.7952,
      "duration": 0.1216,
      "velocity": 127,
      "chip": "ym2612"
    },
    {
      "channel": 1,
      "note": 55,
      "start": 17.9451,
      "duration": 0.2495,
      "velocity": 91,
      "chip": "ym2612"
    },
    {
      "channel": 2,
      "note": 57,
      "start": 17.9457,
      "duration": 0.1201,
      "velocity": 127,
      "chip": "ym2612"
    },
    {
      "channel": 2,
      "note": 57,
      "start": 18.095,
      "duration": 0.1163,
      "velocity": 127,
      "chip": "ym2612"
    },
    {
      "channel": 1,
      "note": 52,
      "start": 18.2451,
      "duration": 0.2372,
      "velocity": 91,
      "chip": "ym2612"
    },
    {
      "channel": 2,
      "note": 72,
      "start": 18.249,
      "duration": 0.1123,
      "velocity": 119,
      "chip": "ym2612"
    },
    {
      "channel": 2,
      "note": 57,
      "start": 18.3861,
      "duration": 0.1253,
      "velocity": 127,
      "chip": "ym2612"
    },
    {
      "channel": 0,
      "note": 78,
      "start": 18.5337,
      "duration": 0.1276,
      "velocity": 99,
      "chip": "ym2612"
    },
    {
      "channel": 1,
      "note": 55,
      "start": 18.5344,
      "duration": 0.2436,
      "velocity": 91,
      "chip": "ym2612"
    },
    {
      "channel": 2,
      "note": 57,
      "start": 18.5349,
      "duration": 0.1266,
      "velocity": 127,
      "chip": "ym2612"
    },
    {
      "channel": 0,
      "note": 79,
      "start": 18.6784,
      "duration": 0.1188,
      "velocity": 99,
      "chip": "ym2612"
    },
    {
      "channel": 2,
      "note": 42,
      "start": 18.6823,
      "duration": 0.1151,
      "velocity": 101,
      "chip": "ym2612"
    },
    {
      "channel": 0,
      "note": 81,
      "start": 18.8284,
      "duration": 0.6662,
      "velocity": 99,
      "chip": "ym2612"
    },
    {
      "channel": 1,
      "note": 52,
      "start": 18.8293,
      "duration": 0.2487,
      "velocity": 91,
      "chip": "ym2612"
    },
    {
      "channel": 2,
      "note": 42,
      "start": 18.83,
      "duration": 0.1174,
      "velocity": 101,
      "chip": "ym2612"
    },
    {
      "channel": 3,
      "note": 72,
      "start": 18.8307,
      "duration": 1.1308,
      "velocity": 97,
      "chip": "ym2612"
    },
    {
      "channel": 2,
      "note": 57,
      "start": 18.9817,
      "duration": 0.113,
      "velocity": 127,
      "chip": "ym2612"
    },
    {
      "channel": 1,
      "note": 57,
      "start": 19.1284,
      "duration": 0.2375,
      "velocity": 91,
      "chip": "ym2612"
    },
    {
      "channel": 2,
      "note": 57,
      "start": 19.129,
      "duration": 0.1157,
      "velocity": 127,
      "chip": "ym2612"
    },
    {
      "channel": 2,
      "note": 57,
      "start": 19.2671,
      "duration": 0.1277,
      "velocity": 127,
      "chip": "ym2612"
    },
    {
      "channel": 1,
      "note": 52,
      "start": 19.4118,
      "duration": 0.2495,
      "velocity": 91,
      "chip": "ym2612"
    },
    {
      "channel": 2,
      "note": 72,
      "start": 19.4157,
      "duration": 0.129,
      "velocity": 119,
      "chip": "ym2612"
    },
    {
      "channel": 0,
      "note": 81,
      "start": 19.5617,
      "duration": 0.1189,
      "velocity": 99,
      "chip": "ym2612"
    },
    {
      "channel": 2,
      "note": 57,
      "start": 19.566,
      "duration": 0.1149,
      "velocity": 127,
      "chip": "ym2612"
    },
    {
      "channel": 0,
      "note": 83,
      "start": 19.7117,
      "duration": 0.1162,
      "velocity": 99,
      "chip": "ym2612"
    },
    {
      "channel": 1,
      "note": 57,
      "start": 19.7124,
      "duration": 0.2489,
      "velocity": 91,
      "chip": "ym2612"
    },
    {
      "channel": 2,
      "note": 57,
      "start": 19.713,
      "duration": 0.1152,
      "velocity": 127,
      "chip": "ym2612"
    },
    {
      "channel": 0,
      "note": 84,
      "start": 19.8617,
      "duration": 0.1162,
      "velocity": 99,
      "chip": "ym2612"
    },
    {
      "channel": 2,
      "note": 42,
      "start": 19.8657,
      "duration": 0.1125,
      "velocity": 101,
      "chip": "ym2612"
    },
    {
      "channel": 0,
      "note": 86,
      "start": 19.9976,
      "duration": 0.6969,
      "velocity": 99,
      "chip": "ym2612"
    },
    {
      "channel": 1,
      "note": 50,
      "start": 19.9983,
      "duration": 0.2463,
      "velocity": 91,
      "chip": "ym2612"
    },
    {
      "channel": 2,
      "note": 42,
      "start": 20.0022,
      "duration": 0.1258,
      "velocity": 127,
      "chip": "ym2612"
    },
    {
      "channel": 3,
      "note": 74,
      "start": 20.003,
      "duration": 2.3086,
      "velocity": 97,
      "chip": "ym2612"
    },
    {
      "channel": 2,
      "note": 57,
      "start": 20.1479,
      "duration": 0.1302,
      "velocity": 127,
      "chip": "ym2612"
    },
    {
      "channel": 1,
      "note": 57,
      "start": 20.2952,
      "duration": 0.2494,
      "velocity": 91,
      "chip": "ym2612"
    },
    {
      "channel": 2,
      "note": 57,
      "start": 20.2959,
      "duration": 0.1198,
      "velocity": 127,
      "chip": "ym2612"
    },
    {
      "channel": 2,
      "note": 57,
      "start": 20.445,
      "duration": 0.122,
      "velocity": 127,
      "chip": "ym2612"
    },
    {
      "channel": 1,
      "note": 50,
      "start": 20.5951,
      "duration": 0.2358,
      "velocity": 91,
      "chip": "ym2612"
    },
    {
      "channel": 2,
      "note": 72,
      "start": 20.599,
      "duration": 0.1123,
      "velocity": 119,
      "chip": "ym2612"
    },
    {
      "channel": 0,
      "note": 84,
      "start": 20.7451,
      "duration": 0.1161,
      "velocity": 99,
      "chip": "ym2612"
    },
    {
      "channel": 2,
      "note": 57,
      "start": 20.7491,
      "duration": 0.1124,
      "velocity": 127,
      "chip": "ym2612"
    },
    {
      "channel": 0,
      "note": 83,
      "start": 20.8811,
      "duration": 0.1301,
      "velocity": 99,
      "chip": "ym2612"
    },
    {
      "channel": 1,
      "note": 57,
      "start": 20.8818,
      "duration": 0.2462,
      "velocity": 91,
      "chip": "ym2612"
    },
    {
      "channel": 2,
      "note": 57,
      "start": 20.8823,
      "duration": 0.1292,
      "velocity": 127,
      "chip": "ym2612"
    },
    {
      "channel": 0,
      "note": 81,
      "start": 21.0313,
      "duration": 0.13,
      "velocity": 99,
      "chip": "ym2612"
    },
    {
      "channel": 2,
      "note": 42,
      "start": 21.0353,
      "duration": 0.1262,
      "velocity": 101,
      "chip": "ym2612"
    },
    {
      "channel": 0,
      "note": 83,
      "start": 21.1785,
      "duration": 1.7371,
      "velocity": 99,
      "chip": "ym2612"
    },
    {
      "channel": 1,
      "note": 55,
      "start": 21.1792,
      "duration": 0.2488,
      "velocity": 91,
      "chip": "ym2612"
    },
    {
      "channel": 2,
      "note": 42,
      "start": 21.1798,
      "duration": 0.1178,
      "velocity": 101,
      "chip": "ym2612"
    },
    {
      "channel": 2,
      "note": 57,
      "start": 21.3317,
      "duration": 0.1174,
      "velocity": 127,
      "chip": "ym2612"
    },
    {
      "channel": 1,
      "note": 62,
      "start": 21.4784,
      "duration": 0.2372,
      "velocity": 91,
      "chip": "ym2612"
    },
    {
      "channel": 2,
      "note": 57,
      "start": 21.479,
      "duration": 0.1157,
      "velocity": 127,
      "chip": "ym2612"
    },
    {
      "channel": 2,
      "note": 57,
      "start": 21.6284,
      "duration": 0.1163,
      "velocity": 127,
      "chip": "ym2612"
    },
    {
      "channel": 1,
      "note": 55,
      "start": 21.7672,
      "duration": 0.2441,
      "velocity": 91,
      "chip": "ym2612"
    },
    {
      "channel": 2,
      "note": 72,
      "start": 21.7712,
      "duration": 0.1235,
      "velocity": 119,
      "chip": "ym2612"
    },
    {
      "channel": 2,
      "note": 57,
      "start": 21.9151,
      "duration": 0.1296,
      "velocity": 127,
      "chip": "ym2612"
    },
    {
      "channel": 1,
      "note": 62,
      "start": 22.0618,
      "duration": 0.2495,
      "velocity": 91,
      "chip": "ym2612"
    },
    {
      "channel": 2,
      "note": 57,
      "start": 22.0623,
      "duration": 0.1211,
      "velocity": 127,
      "chip": "ym2612"
    },
    {
      "channel": 2,
      "note": 42,
      "start": 22.215,
      "duration": 0.113,
      "velocity": 101,
      "chip": "ym2612"
    },
    {
      "channel": 1,
      "note": 59,
      "start": 22.3619,
      "duration": 0.2371,
      "velocity": 91,
      "chip": "ym2612"
    },
    {
      "channel": 2,
      "note": 42,
      "start": 22.3626,
      "duration": 0.1155,
      "velocity": 101,
      "chip": "ym2612"
    },
    {
      "channel": 3,
      "note": 75,
      "start": 22.3633,
      "duration": 1.1176,
      "velocity": 97,
      "chip": "ym2612"
    },
    {
      "channel": 2,
      "note": 57,
      "start": 22.5028,
      "duration": 0.1253,
      "velocity": 127,
      "chip": "ym2612"
    },
    {
      "channel": 1,
      "note": 66,
      "start": 22.6494,
      "duration": 0.2452,
      "velocity": 91,
      "chip": "ym2612"
    },
    {
      "channel": 2,
      "note": 57,
      "start": 22.65,
      "duration": 0.1281,
      "velocity": 127,
      "chip": "ym2612"
    },
    {
      "channel": 2,
      "note": 57,
      "start": 22.795,
      "duration": 0.1207,
      "velocity": 127,
      "chip": "ym2612"
    },
    {
      "channel": 1,
      "note": 59,
      "start": 22.9451,
      "duration": 0.2495,
      "velocity": 91,
      "chip": "ym2612"
    },
    {
      "channel": 2,
      "note": 49,
      "start": 22.949,
      "duration": 0.1176,
      "velocity": 127,
      "chip": "ym2612"
    },
    {
      "channel": 2,
      "note": 46,
      "start": 23.0954,
      "duration": 0.116,
      "velocity": 127,
      "chip": "ym2612"
    },
    {
      "channel": 0,
      "note": 79,
      "start": 23.245,
      "duration": 0.1329,
      "velocity": 99,
      "chip": "ym2612"
    },
    {
      "channel": 1,
      "note": 66,
      "start": 23.2458,
      "duration": 0.2348,
      "velocity": 91,
      "chip": "ym2612"
    },
    {
      "channel": 2,
      "note": 42,
      "start": 23.2465,
      "duration": 0.1149,
      "velocity": 127,
      "chip": "ym2612"
    },
    {
      "channel": 0,
      "note": 81,
      "start": 23.3811,
      "duration": 0.1468,
      "velocity": 99,
      "chip": "ym2612"
    },
    {
      "channel": 0,
      "note": 83,
      "start": 23.5312,
      "duration": 0.6634,
      "velocity": 99,
      "chip": "ym2612"
    },
    {
      "channel": 1,
      "note": 52,
      "start": 23.532,
      "duration": 0.246,
      "velocity": 91,
      "chip": "ym2612"
    },
    {
      "channel": 2,
      "note": 42,
      "start": 23.536,
      "duration": 0.1254,
      "velocity": 101,
      "chip": "ym2612"
    },
    {
      "channel": 3,
      "note": 76,
      "start": 23.5368,
      "duration": 1.1247,
      "velocity": 97,
      "chip": "ym2612"
    },
    {
      "channel": 2,
      "note": 57,
      "start": 23.6817,
      "duration": 0.1172,
      "velocity": 127,
      "chip": "ym2612"
    },
    {
      "channel": 1,
      "note": 55,
      "start": 23.8285,
      "duration": 0.2494,
      "velocity": 91,
      "chip": "ym2612"
    },
    {
      "channel": 2,
      "note": 57,
      "start": 23.8293,
      "duration": 0.1198,
      "velocity": 127,
      "chip": "ym2612"
    },
    {
      "channel": 2,
      "note": 57,
      "start": 23.9784,
      "duration": 0.1163,
      "velocity": 127,
      "chip": "ym2612"
    },
    {
      "channel": 1,
      "note": 52,
      "start": 24.1284,
      "duration": 0.2359,
      "velocity": 91,
      "chip": "ym2612"
    },
    {
      "channel": 2,
      "note": 72,
      "start": 24.1324,
      "duration": 0.1123,
      "velocity": 119,
      "chip": "ym2612"
    },
    {
      "channel": 0,
      "note": 83,
      "start": 24.2668,
      "duration": 0.1277,
      "velocity": 99,
      "chip": "ym2612"
    },
    {
      "channel": 2,
      "note": 57,
      "start": 24.2709,
      "duration": 0.124,
      "velocity": 127,
      "chip": "ym2612"
    },
    {
      "channel": 0,
      "note": 84,
      "start": 24.4117,
      "duration": 0.1329,
      "velocity": 99,
      "chip": "ym2612"
    },
    {
      "channel": 1,
      "note": 55,
      "start": 24.4124,
      "duration": 0.2489,
      "velocity": 91,
      "chip": "ym2612"
    },
    {
      "channel": 2,
      "note": 57,
      "start": 24.413,
      "duration": 0.1319,
      "velocity": 127,
      "chip": "ym2612"
    },
    {
      "channel": 0,
      "note": 86,
      "start": 24.5617,
      "duration": 0.1188,
      "velocity": 99,
      "chip": "ym2612"
    },
    {
      "channel": 2,
      "note": 42,
      "start": 24.5659,
      "duration": 0.1149,
      "velocity": 101,
      "chip": "ym2612"
    },
    {
      "channel": 0,
      "note": 88,
      "start": 24.7117,
      "duration": 0.6662,
      "velocity": 99,
      "chip": "ym2612"
    },
    {
      "channel": 1,
      "note": 52,
      "start": 24.7124,
      "duration": 0.2489,
      "velocity": 91,
      "chip": "ym2612"
    },
    {
      "channel": 2,
      "note": 42,
      "start": 24.7163,
      "duration": 0.1117,
      "velocity": 127,
      "chip": "ym2612"
    },
    {
      "channel": 3,
      "note": 78,
      "start": 24.7171,
      "duration": 1.1141,
      "velocity": 97,
      "chip": "ym2612"
    },
    {
      "channel": 2,
      "note": 57,
      "start": 24.8619,
      "duration": 0.1162,
      "velocity": 127,
      "chip": "ym2612"
    },
    {
      "channel": 1,
      "note": 55,
      "start": 25.0004,
      "duration": 0.2443,
      "velocity": 91,
      "chip": "ym2612"
    },
    {
      "channel": 2,
      "note": 57,
      "start": 25.001,
      "duration": 0.1271,
      "velocity": 127,
      "chip": "ym2612"
    },
    {
      "channel": 2,
      "note": 57,
      "start": 25.1503,
      "duration": 0.1277,
      "velocity": 127,
      "chip": "ym2612"
    },
    {
      "channel": 1,
      "note": 52,
      "start": 25.2952,
      "duration": 0.2494,
      "velocity": 91,
      "chip": "ym2612"
    },
    {
      "channel": 2,
      "note": 72,
      "start": 25.2993,
      "duration": 0.1173,
      "velocity": 119,
      "chip": "ym2612"
    },
    {
      "channel": 0,
      "note": 88,
      "start": 25.445,
      "duration": 0.1191,
      "velocity": 99,
      "chip": "ym2612"
    },
    {
      "channel": 2,
      "note": 57,
      "start": 25.449,
      "duration": 0.1154,
      "velocity": 127,
      "chip": "ym2612"
    },
    {
      "channel": 0,
      "note": 86,
      "start": 25.595,
      "duration": 0.1162,
      "velocity": 99,
      "chip": "ym2612"
    },
    {
      "channel": 1,
      "note": 55,
      "start": 25.5957,
      "duration": 0.2352,
      "velocity": 91,
      "chip": "ym2612"
    },
    {
      "channel": 2,
      "note": 57,
      "start": 25.5963,
      "duration": 0.1152,
      "velocity": 127,
      "chip": "ym2612"
    },
    {
      "channel": 0,
      "note": 84,
      "start": 25.745,
      "duration": 0.1162,
      "velocity": 99,
      "chip": "ym2612"
    },
    {
      "channel": 2,
      "note": 42,
      "start": 25.749,
      "duration": 0.1125,
      "velocity": 101,
      "chip": "ym2612"
    },
    {
      "channel": 0,
      "note": 83,
      "start": 25.881,
      "duration": 0.1303,
      "velocity": 99,
      "chip": "ym2612"
    },
    {
      "channel": 1,
      "note": 52,
      "start": 25.8818,
      "duration": 0.2462,
      "velocity": 91,
      "chip": "ym2612"
    },
    {
      "channel": 2,
      "note": 42,
      "start": 25.8858,
      "duration": 0.1257,
      "velocity": 101,
      "chip": "ym2612"
    },
    {
      "channel": 3,
      "note": 76,
      "start": 25.8866,
      "duration": 3.4789,
      "velocity": 97,
      "chip": "ym2612"
    },
    {
      "channel": 2,
      "note": 57,
      "start": 26.0346,
      "duration": 0.1268,
      "velocity": 127,
      "chip": "ym2612"
    },
    {
      "channel": 0,
      "note": 76,
      "start": 26.1784,
      "duration": 0.1191,
      "velocity": 99,
      "chip": "ym2612"
    },
    {
      "channel": 1,
      "note": 55,
      "start": 26.1791,
      "duration": 0.2489,
      "velocity": 91,
      "chip": "ym2612"
    },
    {
      "channel": 2,
      "note": 57,
      "start": 26.1796,
      "duration": 0.1181,
      "velocity": 127,
      "chip": "ym2612"
    },
    {
      "channel": 2,
      "note": 57,
      "start": 26.3284,
      "duration": 0.1207,
      "velocity": 127,
      "chip": "ym2612"
    },
    {
      "channel": 0,
      "note": 79,
      "start": 26.4784,
      "duration": 1.1214,
      "velocity": 99,
      "chip": "ym2612"
    },
    {
      "channel": 1,
      "note": 52,
      "start": 26.4791,
      "duration": 0.2366,
      "velocity": 91,
      "chip": "ym2612"
    },
    {
      "channel": 2,
      "note": 72,
      "start": 26.483,
      "duration": 0.1117,
      "velocity": 119,
      "chip": "ym2612"
    },
    {
      "channel": 2,
      "note": 57,
      "start": 26.632,
      "duration": 0.1127,
      "velocity": 127,
      "chip": "ym2612"
    },
    {
      "channel": 1,
      "note": 55,
      "start": 26.7673,
      "duration": 0.244,
      "velocity": 91,
      "chip": "ym2612"
    },
    {
      "channel": 2,
      "note": 57,
      "start": 26.7679,
      "duration": 0.1268,
      "velocity": 127,
      "chip": "ym2612"
    },
    {
      "channel": 2,
      "note": 42,
      "start": 26.915,
      "duration": 0.1297,
      "velocity": 101,
      "chip": "ym2612"
    },
    {
      "channel": 1,
      "note": 52,
      "start": 27.0618,
      "duration": 0.2495,
      "velocity": 91,
      "chip": "ym2612"
    },
    {
      "channel": 2,
      "note": 42,
      "start": 27.0657,
      "duration": 0.1177,
      "velocity": 127,
      "chip": "ym2612"
    },
    {
      "channel": 2,
      "note": 57,
      "start": 27.2118,
      "duration": 0.1162,
      "velocity": 127,
      "chip": "ym2612"
    },
    {
      "channel": 1,
      "note": 55,
      "start": 27.3619,
      "duration": 0.238,
      "velocity": 91,
      "chip": "ym2612"
    },
    {
      "channel": 2,
      "note": 57,
      "start": 27.3626,
      "duration": 0.1155,
      "velocity": 127,
      "chip": "ym2612"
    },
    {
      "channel": 2,
      "note": 57,
      "start": 27.4996,
      "duration": 0.1284,
      "velocity": 127,
      "chip": "ym2612"
    },
    {
      "channel": 1,
      "note": 52,
      "start": 27.6494,
      "duration": 0.2452,
      "velocity": 91,
      "chip": "ym2612"
    },
    {
      "channel": 2,
      "note": 72,
      "start": 27.6533,
      "duration": 0.1247,
      "velocity": 119,
      "chip": "ym2612"
    },
    {
      "channel": 2,
      "note": 57,
      "start": 27.7984,
      "duration": 0.1173,
      "velocity": 127,
      "chip": "ym2612"
    },
    {
      "channel": 0,
      "note": 79,
      "start": 27.945,
      "duration": 0.1329,
      "velocity": 99,
      "chip": "ym2612"
    },
    {
      "channel": 1,
      "note": 55,
      "start": 27.9457,
      "duration": 0.2489,
      "velocity": 91,
      "chip": "ym2612"
    },
    {
      "channel": 2,
      "note": 57,
      "start": 27.9463,
      "duration": 0.1178,
      "velocity": 127,
      "chip": "ym2612"
    },
    {
      "channel": 0,
      "note": 81,
      "start": 28.095,
      "duration": 0.1329,
      "velocity": 99,
      "chip": "ym2612"
    },
    {
      "channel": 2,
      "note": 42,
      "start": 28.0992,
      "duration": 0.1122,
      "velocity": 101,
      "chip": "ym2612"
    },
    {
      "channel": 0,
      "note": 83,
      "start": 28.2451,
      "duration": 0.6548,
      "velocity": 99,
      "chip": "ym2612"
    },
    {
      "channel": 1,
      "note": 52,
      "start": 28.2459,
      "duration": 0.2376,
      "velocity": 91,
      "chip": "ym2612"
    },
    {
      "channel": 2,
      "note": 42,
      "start": 28.2499,
      "duration": 0.1115,
      "velocity": 101,
      "chip": "ym2612"
    },
    {
      "channel": 2,
      "note": 57,
      "start": 28.3844,
      "duration": 0.127,
      "velocity": 127,
      "chip": "ym2612"
    },
    {
      "channel": 1,
      "note": 55,
      "start": 28.5347,
      "duration": 0.2432,
      "velocity": 91,
      "chip": "ym2612"
    },
    {
      "channel": 2,
      "note": 57,
      "start": 28.5353,
      "duration": 0.1261,
      "velocity": 127,
      "chip": "ym2612"
    },
    {
      "channel": 2,
      "note": 57,
      "start": 28.6784,
      "duration": 0.1227,
      "velocity": 127,
      "chip": "ym2612"
    },
    {
      "channel": 1,
      "note": 52,
      "start": 28.8285,
      "duration": 0.2494,
      "velocity": 91,
      "chip": "ym2612"
    },
    {
      "channel": 2,
      "note": 72,
      "start": 28.8326,
      "duration": 0.1183,
      "velocity": 119,
      "chip": "ym2612"
    },
    {
      "channel": 0,
      "note": 83,
      "start": 28.9784,
      "duration": 0.1161,
      "velocity": 99,
      "chip": "ym2612"
    },
    {
      "channel": 2,
      "note": 57,
      "start": 28.9824,
      "duration": 0.1124,
      "velocity": 127,
      "chip": "ym2612"
    },
    {
      "channel": 0,
      "note": 84,
      "start": 29.1284,
      "duration": 0.1162,
      "velocity": 99,
      "chip": "ym2612"
    },
    {
      "channel": 1,
      "note": 55,
      "start": 29.1291,
      "duration": 0.2361,
      "velocity": 91,
      "chip": "ym2612"
    },
    {
      "channel": 2,
      "note": 57,
      "start": 29.1296,
      "duration": 0.1152,
      "velocity": 127,
      "chip": "ym2612"
    },
    {
      "channel": 0,
      "note": 86,
      "start": 29.2654,
      "duration": 0.1292,
      "velocity": 99,
      "chip": "ym2612"
    },
    {
      "channel": 2,
      "note": 42,
      "start": 29.2693,
      "duration": 0.1255,
      "velocity": 101,
      "chip": "ym2612"
    },
    {
      "channel": 0,
      "note": 88,
      "start": 29.4117,
      "duration": 0.6662,
      "velocity": 99,
      "chip": "ym2612"
    },
    {
      "channel": 1,
      "note": 52,
      "start": 29.4124,
      "duration": 0.2489,
      "velocity": 91,
      "chip": "ym2612"
    },
    {
      "channel": 2,
      "note": 42,
      "start": 29.4163,
      "duration": 0.1284,
      "velocity": 127,
      "chip": "ym2612"
    },
    {
      "channel": 3,
      "note": 78,
      "start": 29.4171,
      "duration": 1.1278,
      "velocity": 97,
      "chip": "ym2612"
    },
    {
      "channel": 2,
      "note": 57,
      "start": 29.5621,
      "duration": 0.1204,
      "velocity": 127,
      "chip": "ym2612"
    },
    {
      "channel": 1,
      "note": 55,
      "start": 29.7118,
      "duration": 0.2495,
      "velocity": 91,
      "chip": "ym2612"
    },
    {
      "channel": 2,
      "note": 57,
      "start": 29.7123,
      "duration": 0.1157,
      "velocity": 127,
      "chip": "ym2612"
    },
    {
      "channel": 2,
      "note": 57,
      "start": 29.8617,
      "duration": 0.1163,
      "velocity": 127,
      "chip": "ym2612"
    },
    {
      "channel": 1,
      "note": 52,
      "start": 30.0004,
      "duration": 0.2442,
      "velocity": 91,
      "chip": "ym2612"
    },
    {
      "channel": 2,
      "note": 72,
      "start": 30.0043,
      "duration": 0.1237,
      "velocity": 119,
      "chip": "ym2612"
    },
    {
      "channel": 0,
      "note": 88,
      "start": 30.1503,
      "duration": 0.1276,
      "velocity": 99,
      "chip": "ym2612"
    },
    {
      "channel": 2,
      "note": 57,
      "start": 30.1543,
      "duration": 0.1239,
      "velocity": 127,
      "chip": "ym2612"
    },
    {
      "channel": 0,
      "note": 86,
      "start": 30.295,
      "duration": 0.119,
      "velocity": 99,
      "chip": "ym2612"
    },
    {
      "channel": 1,
      "note": 55,
      "start": 30.296,
      "duration": 0.2487,
      "velocity": 91,
      "chip": "ym2612"
    },
    {
      "channel": 2,
      "note": 57,
      "start": 30.2966,
      "duration": 0.1177,
      "velocity": 127,
      "chip": "ym2612"
    },
    {
      "channel": 0,
      "note": 84,
      "start": 30.445,
      "duration": 0.1191,
      "velocity": 99,
      "chip": "ym2612"
    },
    {
      "channel": 2,
      "note": 42,
      "start": 30.449,
      "duration": 0.1153,
      "velocity": 101,
      "chip": "ym2612"
    },
    {
      "channel": 0,
      "note": 83,
      "start": 30.595,
      "duration": 0.1162,
      "velocity": 99,
      "chip": "ym2612"
    },
    {
      "channel": 1,
      "note": 52,
      "start": 30.5959,
      "duration": 0.2366,
      "velocity": 91,
      "chip": "ym2612"
    },
    {
      "channel": 2,
      "note": 42,
      "start": 30.5999,
      "duration": 0.1117,
      "velocity": 101,
      "chip": "ym2612"
    },
    {
      "channel": 3,
      "note": 76,
      "start": 30.6006,
      "duration": 2.3135,
      "velocity": 97,
      "chip": "ym2612"
    },
    {
      "channel": 2,
      "note": 57,
      "start": 30.7484,
      "duration": 0.113,
      "velocity": 127,
      "chip": "ym2612"
    },
    {
      "channel": 0,
      "note": 76,
      "start": 30.8837,
      "duration": 0.1276,
      "velocity": 99,
      "chip": "ym2612"
    },
    {
      "channel": 1,
      "note": 55,
      "start": 30.8844,
      "duration": 0.2436,
      "velocity": 91,
      "chip": "ym2612"
    },
    {
      "channel": 2,
      "note": 57,
      "start": 30.8849,
      "duration": 0.1266,
      "velocity": 127,
      "chip": "ym2612"
    },
    {
      "channel": 2,
      "note": 57,
      "start": 31.0313,
      "duration": 0.1301,
      "velocity": 127,
      "chip": "ym2612"
    },
    {
      "channel": 0,
      "note": 79,
      "start": 31.1784,
      "duration": 1.1329,
      "velocity": 99,
      "chip": "ym2612"
    },
    {
      "channel": 1,
      "note": 52,
      "start": 31.1791,
      "duration": 0.2489,
      "velocity": 91,
      "chip": "ym2612"
    },
    {
      "channel": 2,
      "note": 72,
      "start": 31.183,
      "duration": 0.1146,
      "velocity": 119,
      "chip": "ym2612"
    },
    {
      "channel": 2,
      "note": 57,
      "start": 31.3317,
      "duration": 0.1174,
      "velocity": 127,
      "chip": "ym2612"
    },
    {
      "channel": 1,
      "note": 55,
      "start": 31.4784,
      "duration": 0.2371,
      "velocity": 91,
      "chip": "ym2612"
    },
    {
      "channel": 2,
      "note": 57,
      "start": 31.479,
      "duration": 0.1157,
      "velocity": 127,
      "chip": "ym2612"
    },
    {
      "channel": 2,
      "note": 42,
      "start": 31.6319,
      "duration": 0.1128,
      "velocity": 101,
      "chip": "ym2612"
    },
    {
      "channel": 1,
      "note": 52,
      "start": 31.7671,
      "duration": 0.2442,
      "velocity": 91,
      "chip": "ym2612"
    },
    {
      "channel": 2,
      "note": 42,
      "start": 31.771,
      "duration": 0.1237,
      "velocity": 127,
      "chip": "ym2612"
    },
    {
      "channel": 2,
      "note": 57,
      "start": 31.9118,
      "duration": 0.1329,
      "velocity": 127,
      "chip": "ym2612"
    },
    {
      "channel": 1,
      "note": 55,
      "start": 32.0618,
      "duration": 0.2497,
      "velocity": 91,
      "chip": "ym2612"
    },
    {
      "channel": 2,
      "note": 57,
      "start": 32.0623,
      "duration": 0.1211,
      "velocity": 127,
      "chip": "ym2612"
    },
    {
      "channel": 2,
      "note": 57,
      "start": 32.2117,
      "duration": 0.1163,
      "velocity": 127,
      "chip": "ym2612"
    },
    {
      "channel": 1,
      "note": 52,
      "start": 32.3619,
      "duration": 0.2372,
      "velocity": 91,
      "chip": "ym2612"
    },
    {
      "channel": 2,
      "note": 72,
      "start": 32.366,
      "duration": 0.1121,
      "velocity": 119,
      "chip": "ym2612"
    },
    {
      "channel": 2,
      "note": 57,
      "start": 32.5028,
      "duration": 0.1253,
      "velocity": 127,
      "chip": "ym2612"
    },
    {
      "channel": 0,
      "note": 78,
      "start": 32.6494,
      "duration": 0.1314,
      "velocity": 99,
      "chip": "ym2612"
    },
    {
      "channel": 1,
      "note": 55,
      "start": 32.6501,
      "duration": 0.2446,
      "velocity": 91,
      "chip": "ym2612"
    },
    {
      "channel": 2,
      "note": 57,
      "start": 32.6506,
      "duration": 0.1275,
      "velocity": 127,
      "chip": "ym2612"
    },
    {
      "channel": 0,
      "note": 79,
      "start": 32.795,
      "duration": 0.1329,
      "velocity": 99,
      "chip": "ym2612"
    },
    {
      "channel": 2,
      "note": 42,
      "start": 32.799,
      "duration": 0.115,
      "velocity": 101,
      "chip": "ym2612"
    },
    {
      "channel": 0,
      "note": 81,
      "start": 32.945,
      "duration": 0.6662,
      "velocity": 99,
      "chip": "ym2612"
    },
    {
      "channel": 1,
      "note": 52,
      "start": 32.9459,
      "duration": 0.2488,
      "velocity": 91,
      "chip": "ym2612"
    },
    {
      "channel": 2,
      "note": 42,
      "start": 32.9499,
      "duration": 0.1141,
      "velocity": 101,
      "chip": "ym2612"
    },
    {
      "channel": 3,
      "note": 72,
      "start": 32.9506,
      "duration": 2.3277,
      "velocity": 97,
      "chip": "ym2612"
    },
    {
      "channel": 2,
      "note": 57,
      "start": 33.0987,
      "duration": 0.1127,
      "velocity": 127,
      "chip": "ym2612"
    },
    {
      "channel": 1,
      "note": 57,
      "start": 33.2451,
      "duration": 0.2372,
      "velocity": 91,
      "chip": "ym2612"
    },
    {
      "channel": 2,
      "note": 57,
      "start": 33.2457,
      "duration": 0.1157,
      "velocity": 127,
      "chip": "ym2612"
    },
    {
      "channel": 2,
      "note": 57,
      "start": 33.3837,
      "duration": 0.1277,
      "velocity": 127,
      "chip": "ym2612"
    },
    {
      "channel": 1,
      "note": 52,
      "start": 33.5337,
      "duration": 0.2443,
      "velocity": 91,
      "chip": "ym2612"
    },
    {
      "channel": 2,
      "note": 72,
      "start": 33.5375,
      "duration": 0.1239,
      "velocity": 119,
      "chip": "ym2612"
    },
    {
      "channel": 0,
      "note": 81,
      "start": 33.6784,
      "duration": 0.119,
      "velocity": 99,
      "chip": "ym2612"
    },
    {
      "channel": 2,
      "note": 57,
      "start": 33.6824,
      "duration": 0.1152,
      "velocity": 127,
      "chip": "ym2612"
    },
    {
      "channel": 0,
      "note": 83,
      "start": 33.8284,
      "duration": 0.119,
      "velocity": 99,
      "chip": "ym2612"
    },
    {
      "channel": 1,
      "note": 57,
      "start": 33.8293,
      "duration": 0.2487,
      "velocity": 91,
      "chip": "ym2612"
    },
    {
      "channel": 2,
      "note": 57,
      "start": 33.8299,
      "duration": 0.1176,
      "velocity": 127,
      "chip": "ym2612"
    },
    {
      "channel": 0,
      "note": 84,
      "start": 33.9784,
      "duration": 0.1162,
      "velocity": 99,
      "chip": "ym2612"
    },
    {
      "channel": 2,
      "note": 42,
      "start": 33.9824,
      "duration": 0.1125,
      "velocity": 101,
      "chip": "ym2612"
    },
    {
      "channel": 0,
      "note": 83,
      "start": 34.1284,
      "duration": 0.6828,
      "velocity": 99,
      "chip": "ym2612"
    },
    {
      "channel": 1,
      "note": 52,
      "start": 34.1291,
      "duration": 0.2367,
      "velocity": 91,
      "chip": "ym2612"
    },
    {
      "channel": 2,
      "note": 42,
      "start": 34.133,
      "duration": 0.1117,
      "velocity": 127,
      "chip": "ym2612"
    },
    {
      "channel": 2,
      "note": 57,
      "start": 34.2646,
      "duration": 0.1302,
      "velocity": 127,
      "chip": "ym2612"
    },
    {
      "channel": 1,
      "note": 57,
      "start": 34.4118,
      "duration": 0.2495,
      "velocity": 91,
      "chip": "ym2612"
    },
    {
      "channel": 2,
      "note": 57,
      "start": 34.4123,
      "duration": 0.1324,
      "velocity": 127,
      "chip": "ym2612"
    },
    {
      "channel": 2,
      "note": 57,
      "start": 34.5617,
      "duration": 0.1217,
      "velocity": 127,
      "chip": "ym2612"
    },
    {
      "channel": 1,
      "note": 52,
      "start": 34.7118,
      "duration": 0.2495,
      "velocity": 91,
      "chip": "ym2612"
    },
    {
      "channel": 2,
      "note": 72,
      "start": 34.7157,
      "duration": 0.1123,
      "velocity": 119,
      "chip": "ym2612"
    },
    {
      "channel": 0,
      "note": 81,
      "start": 34.8618,
      "duration": 0.1161,
      "velocity": 99,
      "chip": "ym2612"
    },
    {
      "channel": 2,
      "note": 57,
      "start": 34.8658,
      "duration": 0.1124,
      "velocity": 127,
      "chip": "ym2612"
    },
    {
      "channel": 0,
      "note": 79,
      "start": 34.9977,
      "duration": 0.1302,
      "velocity": 99,
      "chip": "ym2612"
    },
    {
      "channel": 1,
      "note": 57,
      "start": 34.9985,
      "duration": 0.2462,
      "velocity": 91,
      "chip": "ym2612"
    },
    {
      "channel": 2,
      "note": 57,
      "start": 34.999,
      "duration": 0.1292,
      "velocity": 127,
      "chip": "ym2612"
    },
    {
      "channel": 0,
      "note": 78,
      "start": 35.1477,
      "duration": 0.1302,
      "velocity": 99,
      "chip": "ym2612"
    },
    {
      "channel": 2,
      "note": 42,
      "start": 35.1517,
      "duration": 0.1265,
      "velocity": 101,
      "chip": "ym2612"
    },
    {
      "channel": 0,
      "note": 79,
      "start": 35.295,
      "duration": 0.1188,
      "velocity": 99,
      "chip": "ym2612"
    },
    {
      "channel": 1,
      "note": 52,
      "start": 35.296,
      "duration": 0.2487,
      "velocity": 91,
      "chip": "ym2612"
    },
    {
      "channel": 2,
      "note": 42,
      "start": 35.3,
      "duration": 0.1141,
      "velocity": 101,
      "chip": "ym2612"
    },
    {
      "channel": 3,
      "note": 71,
      "start": 35.3007,
      "duration": 2.3276,
      "velocity": 97,
      "chip": "ym2612"
    },
    {
      "channel": 2,
      "note": 57,
      "start": 35.4484,
      "duration": 0.1176,
      "velocity": 127,
      "chip": "ym2612"
    },
    {
      "channel": 0,
      "note": 76,
      "start": 35.595,
      "duration": 1.6162,
      "velocity": 99,
      "chip": "ym2612"
    },
    {
      "channel": 1,
      "note": 55,
      "start": 35.5957,
      "duration": 0.2368,
      "velocity": 91,
      "chip": "ym2612"
    },
    {
      "channel": 2,
      "note": 57,
      "start": 35.5963,
      "duration": 0.1151,
      "velocity": 127,
      "chip": "ym2612"
    },
    {
      "channel": 2,
      "note": 57,
      "start": 35.745,
      "duration": 0.1163,
      "velocity": 127,
      "chip": "ym2612"
    },
    {
      "channel": 1,
      "note": 52,
      "start": 35.8837,
      "duration": 0.2443,
      "velocity": 91,
      "chip": "ym2612"
    },
    {
      "channel": 2,
      "note": 72,
      "start": 35.8877,
      "duration": 0.1237,
      "velocity": 119,
      "chip": "ym2612"
    },
    {
      "channel": 2,
      "note": 57,
      "start": 36.0372,
      "duration": 0.1242,
      "velocity": 127,
      "chip": "ym2612"
    },
    {
      "channel": 1,
      "note": 55,
      "start": 36.1784,
      "duration": 0.2495,
      "velocity": 91,
      "chip": "ym2612"
    },
    {
      "channel": 2,
      "note": 57,
      "start": 36.179,
      "duration": 0.1213,
      "velocity": 127,
      "chip": "ym2612"
    },
    {
      "channel": 2,
      "note": 42,
      "start": 36.3317,
      "duration": 0.1182,
      "velocity": 101,
      "chip": "ym2612"
    },
    {
      "channel": 1,
      "note": 52,
      "start": 36.4784,
      "duration": 0.2381,
      "velocity": 91,
      "chip": "ym2612"
    },
    {
      "channel": 2,
      "note": 42,
      "start": 36.4824,
      "duration": 0.1123,
      "velocity": 127,
      "chip": "ym2612"
    },
    {
      "channel": 2,
      "note": 57,
      "start": 36.6288,
      "duration": 0.116,
      "velocity": 127,
      "chip": "ym2612"
    },
    {
      "channel": 1,
      "note": 55,
      "start": 36.7663,
      "duration": 0.245,
      "velocity": 91,
      "chip": "ym2612"
    },
    {
      "channel": 2,
      "note": 57,
      "start": 36.7668,
      "duration": 0.1279,
      "velocity": 127,
      "chip": "ym2612"
    },
    {
      "channel": 2,
      "note": 57,
      "start": 36.9117,
      "duration": 0.133,
      "velocity": 127,
      "chip": "ym2612"
    },
    {
      "channel": 1,
      "note": 52,
      "start": 37.0618,
      "duration": 0.2495,
      "velocity": 91,
      "chip": "ym2612"
    },
    {
      "channel": 2,
      "note": 72,
      "start": 37.0657,
      "duration": 0.1165,
      "velocity": 119,
      "chip": "ym2612"
    },
    {
      "channel": 2,
      "note": 57,
      "start": 37.2152,
      "duration": 0.1129,
      "velocity": 127,
      "chip": "ym2612"
    },
    {
      "channel": 0,
      "note": 78,
      "start": 37.3617,
      "duration": 0.1162,
      "velocity": 99,
      "chip": "ym2612"
    },
    {
      "channel": 1,
      "note": 55,
      "start": 37.3627,
      "duration": 0.2346,
      "velocity": 91,
      "chip": "ym2612"
    },
    {
      "channel": 2,
      "note": 57,
      "start": 37.3632,
      "duration": 0.115,
      "velocity": 127,
      "chip": "ym2612"
    },
    {
      "channel": 0,
      "note": 79,
      "start": 37.498,
      "duration": 0.13,
      "velocity": 99,
      "chip": "ym2612"
    },
    {
      "channel": 2,
      "note": 42,
      "start": 37.5019,
      "duration": 0.1263,
      "velocity": 101,
      "chip": "ym2612"
    },
    {
      "channel": 0,
      "note": 81,
      "start": 37.6476,
      "duration": 0.6636,
      "velocity": 99,
      "chip": "ym2612"
    },
    {
      "channel": 1,
      "note": 52,
      "start": 37.6483,
      "duration": 0.2463,
      "velocity": 91,
      "chip": "ym2612"
    },
    {
      "channel": 2,
      "note": 42,
      "start": 37.6524,
      "duration": 0.1258,
      "velocity": 101,
      "chip": "ym2612"
    },
    {
      "channel": 3,
      "note": 72,
      "start": 37.653,
      "duration": 1.1252,
      "velocity": 97,
      "chip": "ym2612"
    },
    {
      "channel": 2,
      "note": 57,
      "start": 37.7984,
      "duration": 0.1172,
      "velocity": 127,
      "chip": "ym2612"
    },
    {
      "channel": 1,
      "note": 57,
      "start": 37.9451,
      "duration": 0.2495,
      "velocity": 91,
      "chip": "ym2612"
    },
    {
      "channel": 2,
      "note": 57,
      "start": 37.9457,
      "duration": 0.12,
      "velocity": 127,
      "chip": "ym2612"
    },
    {
      "channel": 2,
      "note": 57,
      "start": 38.095,
      "duration": 0.1163,
      "velocity": 127,
      "chip": "ym2612"
    },
    {
      "channel": 1,
      "note": 52,
      "start": 38.2451,
      "duration": 0.2356,
      "velocity": 91,
      "chip": "ym2612"
    },
    {
      "channel": 2,
      "note": 72,
      "start": 38.249,
      "duration": 0.1123,
      "velocity": 119,
      "chip": "ym2612"
    },
    {
      "channel": 0,
      "note": 81,
      "start": 38.3835,
      "duration": 0.1277,
      "velocity": 99,
      "chip": "ym2612"
    },
    {
      "channel": 2,
      "note": 57,
      "start": 38.3875,
      "duration": 0.124,
      "velocity": 127,
      "chip": "ym2612"
    },
    {
      "channel": 0,
      "note": 83,
      "start": 38.5312,
      "duration": 0.13,
      "velocity": 99,
      "chip": "ym2612"
    },
    {
      "channel": 1,
      "note": 57,
      "start": 38.5319,
      "duration": 0.2461,
      "velocity": 91,
      "chip": "ym2612"
    },
    {
      "channel": 2,
      "note": 57,
      "start": 38.5324,
      "duration": 0.1291,
      "velocity": 127,
      "chip": "ym2612"
    },
    {
      "channel": 0,
      "note": 84,
      "start": 38.6784,
      "duration": 0.1188,
      "velocity": 99,
      "chip": "ym2612"
    },
    {
      "channel": 2,
      "note": 42,
      "start": 38.6824,
      "duration": 0.1151,
      "velocity": 101,
      "chip": "ym2612"
    },
    {
      "channel": 0,
      "note": 86,
      "start": 38.8284,
      "duration": 0.6829,
      "velocity": 99,
      "chip": "ym2612"
    },
    {
      "channel": 1,
      "note": 50,
      "start": 38.8293,
      "duration": 0.2487,
      "velocity": 91,
      "chip": "ym2612"
    },
    {
      "channel": 2,
      "note": 42,
      "start": 38.8333,
      "duration": 0.1142,
      "velocity": 127,
      "chip": "ym2612"
    },
    {
      "channel": 3,
      "note": 74,
      "start": 38.834,
      "duration": 2.2942,
      "velocity": 97,
      "chip": "ym2612"
    },
    {
      "channel": 2,
      "note": 57,
      "start": 38.9785,
      "duration": 0.1162,
      "velocity": 127,
      "chip": "ym2612"
    },
    {
      "channel": 1,
      "note": 57,
      "start": 39.1284,
      "duration": 0.2375,
      "velocity": 91,
      "chip": "ym2612"
    },
    {
      "channel": 2,
      "note": 57,
      "start": 39.129,
      "duration": 0.1157,
      "velocity": 127,
      "chip": "ym2612"
    },
    {
      "channel": 2,
      "note": 57,
      "start": 39.267,
      "duration": 0.1277,
      "velocity": 127,
      "chip": "ym2612"
    },
    {
      "channel": 1,
      "note": 50,
      "start": 39.4118,
      "duration": 0.2495,
      "velocity": 91,
      "chip": "ym2612"
    },
    {
      "channel": 2,
      "note": 72,
      "start": 39.4157,
      "duration": 0.129,
      "velocity": 119,
      "chip": "ym2612"
    },
    {
      "channel": 0,
      "note": 84,
      "start": 39.5617,
      "duration": 0.119,
      "velocity": 99,
      "chip": "ym2612"
    },
    {
      "channel": 2,
      "note": 57,
      "start": 39.566,
      "duration": 0.1149,
      "velocity": 127,
      "chip": "ym2612"
    },
    {
      "channel": 0,
      "note": 83,
      "start": 39.7117,
      "duration": 0.1162,
      "velocity": 99,
      "chip": "ym2612"
    },
    {
      "channel": 1,
      "note": 57,
      "start": 39.7124,
      "duration": 0.2489,
      "velocity": 91,
      "chip": "ym2612"
    },
    {
      "channel": 2,
      "note": 57,
      "start": 39.713,
      "duration": 0.1152,
      "velocity": 127,
      "chip": "ym2612"
    },
    {
      "channel": 0,
      "note": 81,
      "start": 39.8617,
      "duration": 0.1162,
      "velocity": 99,
      "chip": "ym2612"
    },
    {
      "channel": 2,
      "note": 42,
      "start": 39.8657,
      "duration": 0.1125,
      "velocity": 101,
      "chip": "ym2612"
    },
    {
      "channel": 0,
      "note": 83,
      "start": 39.9978,
      "duration": 1.7468,
      "velocity": 99,
      "chip": "ym2612"
    },
    {
      "channel": 1,
      "note": 55,
      "start": 39.9985,
      "duration": 0.2462,
      "velocity": 91,
      "chip": "ym2612"
    },
    {
      "channel": 2,
      "note": 42,
      "start": 39.9992,
      "duration": 0.1289,
      "velocity": 101,
      "chip": "ym2612"
    },
    {
      "channel": 2,
      "note": 57,
      "start": 40.151,
      "duration": 0.127,
      "velocity": 127,
      "chip": "ym2612"
    },
    {
      "channel": 1,
      "note": 62,
      "start": 40.2952,
      "duration": 0.2494,
      "velocity": 91,
      "chip": "ym2612"
    },
    {
      "channel": 2,
      "note": 57,
      "start": 40.2959,
      "duration": 0.1199,
      "velocity": 127,
      "chip": "ym2612"
    },
    {
      "channel": 2,
      "note": 57,
      "start": 40.445,
      "duration": 0.122,
      "velocity": 127,
      "chip": "ym2612"
    },
    {
      "channel": 1,
      "note": 55,
      "start": 40.5951,
      "duration": 0.2385,
      "velocity": 91,
      "chip": "ym2612"
    },
    {
      "channel": 2,
      "note": 72,
      "start": 40.599,
      "duration": 0.1123,
      "velocity": 119,
      "chip": "ym2612"
    },
    {
      "channel": 2,
      "note": 57,
      "start": 40.7484,
      "duration": 0.113,
      "velocity": 127,
      "chip": "ym2612"
    },
    {
      "channel": 1,
      "note": 62,
      "start": 40.8838,
      "duration": 0.2442,
      "velocity": 91,
      "chip": "ym2612"
    },
    {
      "channel": 2,
      "note": 57,
      "start": 40.8843,
      "duration": 0.1271,
      "velocity": 127,
      "chip": "ym2612"
    },
    {
      "channel": 2,
      "note": 42,
      "start": 41.0363,
      "duration": 0.1251,
      "velocity": 101,
      "chip": "ym2612"
    },
    {
      "channel": 1,
      "note": 59,
      "start": 41.1784,
      "duration": 0.2495,
      "velocity": 91,
      "chip": "ym2612"
    },
    {
      "channel": 2,
      "note": 42,
      "start": 41.179,
      "duration": 0.1202,
      "velocity": 101,
      "chip": "ym2612"
    },
    {
      "channel": 3,
      "note": 75,
      "start": 41.1798,
      "duration": 0.8318,
      "velocity": 97,
      "chip": "ym2612"
    },
    {
      "channel": 2,
      "note": 57,
      "start": 41.3317,
      "duration": 0.1173,
      "velocity": 127,
      "chip": "ym2612"
    },
    {
      "channel": 1,
      "note": 66,
      "start": 41.4784,
      "duration": 0.2372,
      "velocity": 91,
      "chip": "ym2612"
    },
    {
      "channel": 2,
      "note": 57,
      "start": 41.479,
      "duration": 0.1157,
      "velocity": 127,
      "chip": "ym2612"
    },
    {
      "channel": 2,
      "note": 57,
      "start": 41.6284,
      "duration": 0.1165,
      "velocity": 127,
      "chip": "ym2612"
    },
    {
      "channel": 1,
      "note": 59,
      "start": 41.7674,
      "duration": 0.2439,
      "velocity": 91,
      "chip": "ym2612"
    },
    {
      "channel": 2,
      "note": 49,
      "start": 41.7712,
      "duration": 0.1235,
      "velocity": 127,
      "chip": "ym2612"
    },
    {
      "channel": 2,
      "note": 46,
      "start": 41.9118,
      "duration": 0.1329,
      "velocity": 127,
      "chip": "ym2612"
    },
    {
      "channel": 0,
      "note": 83,
      "start": 42.0623,
      "duration": 0.1323,
      "velocity": 99,
      "chip": "ym2612"
    },
    {
      "channel": 1,
      "note": 66,
      "start": 42.063,
      "duration": 0.2483,
      "velocity": 91,
      "chip": "ym2612"
    },
    {
      "channel": 2,
      "note": 42,
      "start": 42.0637,
      "duration": 0.117,
      "velocity": 127,
      "chip": "ym2612"
    },
    {
      "channel": 0,
      "note": 84,
      "start": 42.2117,
      "duration": 0.1329,
      "velocity": 99,
      "chip": "ym2612"
    },
    {
      "channel": 0,
      "note": 86,
      "start": 42.3625,
      "duration": 0.2821,
      "velocity": 99,
      "chip": "ym2612"
    },
    {
      "channel": 1,
      "note": 57,
      "start": 42.3639,
      "duration": 0.2377,
      "velocity": 91,
      "chip": "ym2612"
    },
    {
      "channel": 2,
      "note": 90,
      "start": 42.368,
      "duration": 0.26,
      "velocity": 119,
      "chip": "ym2612"
    },
    {
      "channel": 3,
      "note": 83,
      "start": 42.3694,
      "duration": 0.2862,
      "velocity": 97,
      "chip": "ym2612"
    },
    {
      "channel": 0,
      "note": 84,
      "start": 42.6527,
      "duration": 0.1252,
      "velocity": 99,
      "chip": "ym2612"
    },
    {
      "channel": 1,
      "note": 57,
      "start": 42.6539,
      "duration": 0.1242,
      "velocity": 91,
      "chip": "ym2612"
    },
    {
      "channel": 2,
      "note": 90,
      "start": 42.6546,
      "duration": 0.2634,
      "velocity": 119,
      "chip": "ym2612"
    },
    {
      "channel": 3,
      "note": 81,
      "start": 42.6559,
      "duration": 0.1224,
      "velocity": 97,
      "chip": "ym2612"
    },
    {
      "channel": 0,
      "note": 86,
      "start": 43.2457,
      "duration": 0.2822,
      "velocity": 99,
      "chip": "ym2612"
    },
    {
      "channel": 1,
      "note": 57,
      "start": 43.2468,
      "duration": 0.2381,
      "velocity": 91,
      "chip": "ym2612"
    },
    {
      "channel": 2,
      "note": 90,
      "start": 43.2475,
      "duration": 0.2639,
      "velocity": 119,
      "chip": "ym2612"
    },
    {
      "channel": 3,
      "note": 83,
      "start": 43.2488,
      "duration": 0.2901,
      "velocity": 97,
      "chip": "ym2612"
    },
    {
      "channel": 0,
      "note": 84,
      "start": 43.5361,
      "duration": 0.1252,
      "velocity": 99,
      "chip": "ym2612"
    },
    {
      "channel": 1,
      "note": 57,
      "start": 43.5372,
      "duration": 0.1242,
      "velocity": 91,
      "chip": "ym2612"
    },
    {
      "channel": 2,
      "note": 90,
      "start": 43.538,
      "duration": 0.2634,
      "velocity": 119,
      "chip": "ym2612"
    },
    {
      "channel": 3,
      "note": 81,
      "start": 43.5393,
      "duration": 0.1224,
      "velocity": 97,
      "chip": "ym2612"
    },
    {
      "channel": 0,
      "note": 84,
      "start": 44.269,
      "duration": 0.1256,
      "velocity": 99,
      "chip": "ym2612"
    },
    {
      "channel": 0,
      "note": 86,
      "start": 44.4117,
      "duration": 0.1329,
      "velocity": 99,
      "chip": "ym2612"
    },
    {
      "channel": 0,
      "note": 88,
      "start": 44.5617,
      "duration": 0.1206,
      "velocity": 99,
      "chip": "ym2612"
    },
    {
      "channel": 0,
      "note": 90,
      "start": 44.7117,
      "duration": 0.1162,
      "velocity": 99,
      "chip": "ym2612"
    },
    {
      "channel": 2,
      "note": 90,
      "start": 44.7133,
      "duration": 0.2648,
      "velocity": 119,
      "chip": "ym2612"
    },
    {
      "channel": 0,
      "note": 88,
      "start": 45.002,
      "duration": 0.1425,
      "velocity": 99,
      "chip": "ym2612"
    },
    {
      "channel": 0,
      "note": 86,
      "start": 45.1495,
      "duration": 0.1328,
      "velocity": 99,
      "chip": "ym2612"
    },
    {
      "channel": 0,
      "note": 84,
      "start": 45.295,
      "duration": 0.6662,
      "velocity": 99,
      "chip": "ym2612"
    },
    {
      "channel": 1,
      "note": 57,
      "start": 45.595,
      "duration": 0.1163,
      "velocity": 91,
      "chip": "ym2612"
    },
    {
      "channel": 2,
      "note": 90,
      "start": 45.5957,
      "duration": 0.1158,
      "velocity": 119,
      "chip": "ym2612"
    },
    {
      "channel": 3,
      "note": 69,
      "start": 45.5964,
      "duration": 0.1153,
      "velocity": 97,
      "chip": "ym2612"
    },
    {
      "channel": 1,
      "note": 57,
      "start": 45.745,
      "duration": 0.1163,
      "velocity": 91,
      "chip": "ym2612"
    },
    {
      "channel": 2,
      "note": 90,
      "start": 45.7457,
      "duration": 0.1158,
      "velocity": 119,
      "chip": "ym2612"
    },
    {
      "channel": 3,
      "note": 76,
      "start": 45.7464,
      "duration": 0.1153,
      "velocity": 97,
      "chip": "ym2612"
    },
    {
      "channel": 1,
      "note": 57,
      "start": 45.8866,
      "duration": 1.1247,
      "velocity": 91,
      "chip": "ym2612"
    },
    {
      "channel": 2,
      "note": 90,
      "start": 45.8873,
      "duration": 0.5574,
      "velocity": 119,
      "chip": "ym2612"
    },
    {
      "channel": 3,
      "note": 81,
      "start": 45.8881,
      "duration": 0.2735,
      "velocity": 97,
      "chip": "ym2612"
    },
    {
      "channel": 0,
      "note": 86,
      "start": 46.0366,
      "duration": 0.1247,
      "velocity": 99,
      "chip": "ym2612"
    },
    {
      "channel": 0,
      "note": 84,
      "start": 46.1784,
      "duration": 0.1218,
      "velocity": 99,
      "chip": "ym2612"
    },
    {
      "channel": 3,
      "note": 76,
      "start": 46.1793,
      "duration": 0.1212,
      "velocity": 97,
      "chip": "ym2612"
    },
    {
      "channel": 0,
      "note": 83,
      "start": 46.3284,
      "duration": 0.1207,
      "velocity": 99,
      "chip": "ym2612"
    },
    {
      "channel": 3,
      "note": 81,
      "start": 46.3293,
      "duration": 0.1201,
      "velocity": 97,
      "chip": "ym2612"
    },
    {
      "channel": 0,
      "note": 81,
      "start": 46.4784,
      "duration": 0.2661,
      "velocity": 99,
      "chip": "ym2612"
    },
    {
      "channel": 3,
      "note": 88,
      "start": 46.4793,
      "duration": 0.5489,
      "velocity": 97,
      "chip": "ym2612"
    },
    {
      "channel": 2,
      "note": 49,
      "start": 46.632,
      "duration": 0.1129,
      "velocity": 127,
      "chip": "ym2612"
    },
    {
      "channel": 0,
      "note": 83,
      "start": 46.7672,
      "duration": 0.1303,
      "velocity": 99,
      "chip": "ym2612"
    },
    {
      "channel": 2,
      "note": 46,
      "start": 46.768,
      "duration": 0.1267,
      "velocity": 127,
      "chip": "ym2612"
    },
    {
      "channel": 0,
      "note": 84,
      "start": 46.9117,
      "duration": 0.1329,
      "velocity": 99,
      "chip": "ym2612"
    },
    {
      "channel": 2,
      "note": 42,
      "start": 46.9125,
      "duration": 0.1324,
      "velocity": 127,
      "chip": "ym2612"
    },
    {
      "channel": 0,
      "note": 86,
      "start": 47.0623,
      "duration": 0.2823,
      "velocity": 99,
      "chip": "ym2612"
    },
    {
      "channel": 1,
      "note": 57,
      "start": 47.0635,
      "duration": 0.2478,
      "velocity": 91,
      "chip": "ym2612"
    },
    {
      "channel": 2,
      "note": 90,
      "start": 47.0676,
      "duration": 0.2604,
      "velocity": 119,
      "chip": "ym2612"
    },
    {
      "channel": 3,
      "note": 83,
      "start": 47.0691,
      "duration": 0.2963,
      "velocity": 97,
      "chip": "ym2612"
    },
    {
      "channel": 0,
      "note": 84,
      "start": 47.3625,
      "duration": 0.1154,
      "velocity": 99,
      "chip": "ym2612"
    },
    {
      "channel": 1,
      "note": 57,
      "start": 47.3637,
      "duration": 0.1144,
      "velocity": 91,
      "chip": "ym2612"
    },
    {
      "channel": 2,
      "note": 90,
      "start": 47.3644,
      "duration": 0.2636,
      "velocity": 119,
      "chip": "ym2612"
    },
    {
      "channel": 3,
      "note": 81,
      "start": 47.3658,
      "duration": 0.1126,
      "velocity": 97,
      "chip": "ym2612"
    },
    {
      "channel": 0,
      "note": 86,
      "start": 47.9456,
      "duration": 0.2823,
      "velocity": 99,
      "chip": "ym2612"
    },
    {
      "channel": 1,
      "note": 57,
      "start": 47.9468,
      "duration": 0.2479,
      "velocity": 91,
      "chip": "ym2612"
    },
    {
      "channel": 2,
      "note": 90,
      "start": 47.9475,
      "duration": 0.2639,
      "velocity": 119,
      "chip": "ym2612"
    },
    {
      "channel": 3,
      "note": 83,
      "start": 47.9488,
      "duration": 0.2996,
      "velocity": 97,
      "chip": "ym2612"
    },
    {
      "channel": 0,
      "note": 84,
      "start": 48.2457,
      "duration": 0.1156,
      "velocity": 99,
      "chip": "ym2612"
    },
    {
      "channel": 1,
      "note": 57,
      "start": 48.2468,
      "duration": 0.1146,
      "velocity": 91,
      "chip": "ym2612"
    },
    {
      "channel": 2,
      "note": 90,
      "start": 48.2475,
      "duration": 0.2639,
      "velocity": 119,
      "chip": "ym2612"
    },
    {
      "channel": 3,
      "note": 81,
      "start": 48.2488,
      "duration": 0.1129,
      "velocity": 97,
      "chip": "ym2612"
    },
    {
      "channel": 0,
      "note": 84,
      "start": 48.979,
      "duration": 0.1322,
      "velocity": 99,
      "chip": "ym2612"
    },
    {
      "channel": 0,
      "note": 86,
      "start": 49.1284,
      "duration": 0.1329,
      "velocity": 99,
      "chip": "ym2612"
    },
    {
      "channel": 0,
      "note": 88,
      "start": 49.2672,
      "duration": 0.1328,
      "velocity": 99,
      "chip": "ym2612"
    },
    {
      "channel": 0,
      "note": 90,
      "start": 49.4117,
      "duration": 0.1329,
      "velocity": 99,
      "chip": "ym2612"
    },
    {
      "channel": 2,
      "note": 90,
      "start": 49.4133,
      "duration": 0.2718,
      "velocity": 119,
      "chip": "ym2612"
    },
    {
      "channel": 0,
      "note": 88,
      "start": 49.7117,
      "duration": 0.1329,
      "velocity": 99,
      "chip": "ym2612"
    },
    {
      "channel": 0,
      "note": 86,
      "start": 49.8617,
      "duration": 0.1329,
      "velocity": 99,
      "chip": "ym2612"
    },
    {
      "channel": 0,
      "note": 84,
      "start": 49.9994,
      "duration": 0.6619,
      "velocity": 99,
      "chip": "ym2612"
    },
    {
      "channel": 1,
      "note": 57,
      "start": 50.295,
      "duration": 0.1232,
      "velocity": 91,
      "chip": "ym2612"
    },
    {
      "channel": 2,
      "note": 90,
      "start": 50.2959,
      "duration": 0.1224,
      "velocity": 119,
      "chip": "ym2612"
    },
    {
      "channel": 3,
      "note": 69,
      "start": 50.2967,
      "duration": 0.1218,
      "velocity": 97,
      "chip": "ym2612"
    },
    {
      "channel": 1,
      "note": 57,
      "start": 50.445,
      "duration": 0.1244,
      "velocity": 91,
      "chip": "ym2612"
    },
    {
      "channel": 2,
      "note": 90,
      "start": 50.4457,
      "duration": 0.1239,
      "velocity": 119,
      "chip": "ym2612"
    },
    {
      "channel": 3,
      "note": 76,
      "start": 50.4464,
      "duration": 0.1233,
      "velocity": 97,
      "chip": "ym2612"
    },
    {
      "channel": 1,
      "note": 57,
      "start": 50.5955,
      "duration": 1.1184,
      "velocity": 91,
      "chip": "ym2612"
    },
    {
      "channel": 2,
      "note": 90,
      "start": 50.5963,
      "duration": 0.5484,
      "velocity": 119,
      "chip": "ym2612"
    },
    {
      "channel": 3,
      "note": 81,
      "start": 50.597,
      "duration": 0.2646,
      "velocity": 97,
      "chip": "ym2612"
    },
    {
      "channel": 0,
      "note": 86,
      "start": 50.7451,
      "duration": 0.1161,
      "velocity": 99,
      "chip": "ym2612"
    },
    {
      "channel": 0,
      "note": 84,
      "start": 50.8828,
      "duration": 0.1285,
      "velocity": 99,
      "chip": "ym2612"
    },
    {
      "channel": 3,
      "note": 76,
      "start": 50.8837,
      "duration": 0.1279,
      "velocity": 97,
      "chip": "ym2612"
    },
    {
      "channel": 0,
      "note": 83,
      "start": 51.0329,
      "duration": 0.1283,
      "velocity": 99,
      "chip": "ym2612"
    },
    {
      "channel": 3,
      "note": 81,
      "start": 51.0338,
      "duration": 0.1277,
      "velocity": 97,
      "chip": "ym2612"
    },
    {
      "channel": 0,
      "note": 81,
      "start": 51.1784,
      "duration": 0.2704,
      "velocity": 99,
      "chip": "ym2612"
    },
    {
      "channel": 3,
      "note": 88,
      "start": 51.1793,
      "duration": 0.5489,
      "velocity": 97,
      "chip": "ym2612"
    },
    {
      "channel": 2,
      "note": 49,
      "start": 51.3317,
      "duration": 0.1173,
      "velocity": 127,
      "chip": "ym2612"
    },
    {
      "channel": 0,
      "note": 79,
      "start": 51.4784,
      "duration": 0.1162,
      "velocity": 99,
      "chip": "ym2612"
    },
    {
      "channel": 2,
      "note": 46,
      "start": 51.4792,
      "duration": 0.1157,
      "velocity": 127,
      "chip": "ym2612"
    },
    {
      "channel": 0,
      "note": 81,
      "start": 51.6284,
      "duration": 0.1162,
      "velocity": 99,
      "chip": "ym2612"
    },
    {
      "channel": 2,
      "note": 42,
      "start": 51.6294,
      "duration": 0.1155,
      "velocity": 127,
      "chip": "ym2612"
    },
    {
      "channel": 0,
      "note": 83,
      "start": 51.7646,
      "duration": 1.8634,
      "velocity": 99,
      "chip": "ym2612"
    },
    {
      "channel": 1,
      "note": 59,
      "start": 51.766,
      "duration": 0.2787,
      "velocity": 91,
      "chip": "ym2612"
    },
    {
      "channel": 2,
      "note": 42,
      "start": 51.77,
      "duration": 0.1247,
      "velocity": 101,
      "chip": "ym2612"
    },
    {
      "channel": 3,
      "note": 75,
      "start": 51.7709,
      "duration": 1.7408,
      "velocity": 97,
      "chip": "ym2612"
    },
    {
      "channel": 2,
      "note": 57,
      "start": 51.9151,
      "duration": 0.1298,
      "velocity": 127,
      "chip": "ym2612"
    },
    {
      "channel": 1,
      "note": 66,
      "start": 52.0618,
      "duration": 0.2662,
      "velocity": 91,
      "chip": "ym2612"
    },
    {
      "channel": 2,
      "note": 57,
      "start": 52.0623,
      "duration": 0.12,
      "velocity": 127,
      "chip": "ym2612"
    },
    {
      "channel": 2,
      "note": 57,
      "start": 52.2117,
      "duration": 0.1165,
      "velocity": 127,
      "chip": "ym2612"
    },
    {
      "channel": 1,
      "note": 59,
      "start": 52.3619,
      "duration": 0.2661,
      "velocity": 91,
      "chip": "ym2612"
    },
    {
      "channel": 2,
      "note": 72,
      "start": 52.366,
      "duration": 0.1121,
      "velocity": 119,
      "chip": "ym2612"
    },
    {
      "channel": 2,
      "note": 57,
      "start": 52.5037,
      "duration": 0.1244,
      "velocity": 127,
      "chip": "ym2612"
    },
    {
      "channel": 1,
      "note": 66,
      "start": 52.6504,
      "duration": 0.2662,
      "velocity": 91,
      "chip": "ym2612"
    },
    {
      "channel": 2,
      "note": 57,
      "start": 52.651,
      "duration": 0.1272,
      "velocity": 127,
      "chip": "ym2612"
    },
    {
      "channel": 2,
      "note": 42,
      "start": 52.7983,
      "duration": 0.1184,
      "velocity": 101,
      "chip": "ym2612"
    },
    {
      "channel": 1,
      "note": 59,
      "start": 52.9451,
      "duration": 0.2662,
      "velocity": 91,
      "chip": "ym2612"
    },
    {
      "channel": 2,
      "note": 42,
      "start": 52.949,
      "duration": 0.1167,
      "velocity": 127,
      "chip": "ym2612"
    },
    {
      "channel": 2,
      "note": 57,
      "start": 53.0954,
      "duration": 0.1161,
      "velocity": 127,
      "chip": "ym2612"
    },
    {
      "channel": 1,
      "note": 66,
      "start": 53.2451,
      "duration": 0.2662,
      "velocity": 91,
      "chip": "ym2612"
    },
    {
      "channel": 2,
      "note": 57,
      "start": 53.2457,
      "duration": 0.1157,
      "velocity": 127,
      "chip": "ym2612"
    },
    {
      "channel": 2,
      "note": 57,
      "start": 53.3827,
      "duration": 0.1288,
      "velocity": 127,
      "chip": "ym2612"
    },
    {
      "channel": 1,
      "note": 60,
      "start": 53.5338,
      "duration": 0.2662,
      "velocity": 91,
      "chip": "ym2612"
    },
    {
      "channel": 2,
      "note": 72,
      "start": 53.5377,
      "duration": 0.1237,
      "velocity": 119,
      "chip": "ym2612"
    },
    {
      "channel": 3,
      "note": 76,
      "start": 53.5384,
      "duration": 0.5424,
      "velocity": 97,
      "chip": "ym2612"
    },
    {
      "channel": 2,
      "note": 57,
      "start": 53.6817,
      "duration": 0.1184,
      "velocity": 127,
      "chip": "ym2612"
    },
    {
      "channel": 0,
      "note": 81,
      "start": 53.8284,
      "duration": 0.119,
      "velocity": 99,
      "chip": "ym2612"
    },
    {
      "channel": 1,
      "note": 67,
      "start": 53.8293,
      "duration": 0.2655,
      "velocity": 91,
      "chip": "ym2612"
    },
    {
      "channel": 2,
      "note": 57,
      "start": 53.8299,
      "duration": 0.1176,
      "velocity": 127,
      "chip": "ym2612"
    },
    {
      "channel": 0,
      "note": 84,
      "start": 53.9784,
      "duration": 0.1162,
      "velocity": 99,
      "chip": "ym2612"
    },
    {
      "channel": 2,
      "note": 42,
      "start": 53.9824,
      "duration": 0.1126,
      "velocity": 101,
      "chip": "ym2612"
    },
    {
      "channel": 0,
      "note": 83,
      "start": 54.1284,
      "duration": 1.7328,
      "velocity": 99,
      "chip": "ym2612"
    },
    {
      "channel": 1,
      "note": 59,
      "start": 54.1291,
      "duration": 0.2655,
      "velocity": 91,
      "chip": "ym2612"
    },
    {
      "channel": 2,
      "note": 42,
      "start": 54.1296,
      "duration": 0.1151,
      "velocity": 101,
      "chip": "ym2612"
    },
    {
      "channel": 3,
      "note": 75,
      "start": 54.1304,
      "duration": 1.7314,
      "velocity": 97,
      "chip": "ym2612"
    },
    {
      "channel": 2,
      "note": 57,
      "start": 54.2677,
      "duration": 0.1272,
      "velocity": 127,
      "chip": "ym2612"
    },
    {
      "channel": 1,
      "note": 66,
      "start": 54.4118,
      "duration": 0.2716,
      "velocity": 91,
      "chip": "ym2612"
    },
    {
      "channel": 2,
      "note": 57,
      "start": 54.4123,
      "duration": 0.1324,
      "velocity": 127,
      "chip": "ym2612"
    },
    {
      "channel": 2,
      "note": 57,
      "start": 54.5617,
      "duration": 0.1218,
      "velocity": 127,
      "chip": "ym2612"
    },
    {
      "channel": 1,
      "note": 59,
      "start": 54.7118,
      "duration": 0.2662,
      "velocity": 91,
      "chip": "ym2612"
    },
    {
      "channel": 2,
      "note": 72,
      "start": 54.7157,
      "duration": 0.1123,
      "velocity": 119,
      "chip": "ym2612"
    },
    {
      "channel": 2,
      "note": 57,
      "start": 54.8651,
      "duration": 0.1131,
      "velocity": 127,
      "chip": "ym2612"
    },
    {
      "channel": 1,
      "note": 66,
      "start": 55.0004,
      "duration": 0.2776,
      "velocity": 91,
      "chip": "ym2612"
    },
    {
      "channel": 2,
      "note": 57,
      "start": 55.001,
      "duration": 0.1271,
      "velocity": 127,
      "chip": "ym2612"
    },
    {
      "channel": 2,
      "note": 42,
      "start": 55.1527,
      "duration": 0.1255,
      "velocity": 101,
      "chip": "ym2612"
    },
    {
      "channel": 1,
      "note": 59,
      "start": 55.2952,
      "duration": 0.2707,
      "velocity": 91,
      "chip": "ym2612"
    },
    {
      "channel": 2,
      "note": 42,
      "start": 55.2959,
      "duration": 0.1198,
      "velocity": 101,
      "chip": "ym2612"
    },
    {
      "channel": 2,
      "note": 57,
      "start": 55.4484,
      "duration": 0.1176,
      "velocity": 127,
      "chip": "ym2612"
    },
    {
      "channel": 1,
      "note": 66,
      "start": 55.5951,
      "duration": 0.2663,
      "velocity": 91,
      "chip": "ym2612"
    },
    {
      "channel": 2,
      "note": 57,
      "start": 55.5957,
      "duration": 0.1157,
      "velocity": 127,
      "chip": "ym2612"
    },
    {
      "channel": 2,
      "note": 57,
      "start": 55.745,
      "duration": 0.1166,
      "velocity": 127,
      "chip": "ym2612"
    },
    {
      "channel": 1,
      "note": 59,
      "start": 55.8838,
      "duration": 0.2776,
      "velocity": 91,
      "chip": "ym2612"
    },
    {
      "channel": 2,
      "note": 49,
      "start": 55.8877,
      "duration": 0.1237,
      "velocity": 127,
      "chip": "ym2612"
    },
    {
      "channel": 2,
      "note": 49,
      "start": 56.0338,
      "duration": 0.1277,
      "velocity": 127,
      "chip": "ym2612"
    },
    {
      "channel": 0,
      "note": 79,
      "start": 56.1789,
      "duration": 0.1323,
      "velocity": 99,
      "chip": "ym2612"
    },
    {
      "channel": 1,
      "note": 66,
      "start": 56.1796,
      "duration": 0.2676,
      "velocity": 91,
      "chip": "ym2612"
    },
    {
      "channel": 2,
      "note": 46,
      "start": 56.1803,
      "duration": 0.1172,
      "velocity": 127,
      "chip": "ym2612"
    },
    {
      "channel": 0,
      "note": 81,
      "start": 56.3284,
      "duration": 0.1329,
      "velocity": 99,
      "chip": "ym2612"
    },
    {
      "channel": 2,
      "note": 42,
      "start": 56.3291,
      "duration": 0.1183,
      "velocity": 127,
      "chip": "ym2612"
    },
    {
      "channel": 0,
      "note": 83,
      "start": 56.4784,
      "duration": 0.6536,
      "velocity": 99,
      "chip": "ym2612"
    },
    {
      "channel": 1,
      "note": 52,
      "start": 56.4792,
      "duration": 0.2365,
      "velocity": 91,
      "chip": "ym2612"
    },
    {
      "channel": 2,
      "note": 42,
      "start": 56.4832,
      "duration": 0.1115,
      "velocity": 101,
      "chip": "ym2612"
    },
    {
      "channel": 3,
      "note": 76,
      "start": 56.484,
      "duration": 1.1135,
      "velocity": 97,
      "chip": "ym2612"
    },
    {
      "channel": 2,
      "note": 57,
      "start": 56.632,
      "duration": 0.1127,
      "velocity": 127,
      "chip": "ym2612"
    },
    {
      "channel": 1,
      "note": 55,
      "start": 56.7673,
      "duration": 0.244,
      "velocity": 91,
      "chip": "ym2612"
    },
    {
      "channel": 2,
      "note": 57,
      "start": 56.7679,
      "duration": 0.1268,
      "velocity": 127,
      "chip": "ym2612"
    },
    {
      "channel": 2,
      "note": 57,
      "start": 56.9117,
      "duration": 0.133,
      "velocity": 127,
      "chip": "ym2612"
    },
    {
      "channel": 1,
      "note": 52,
      "start": 57.0618,
      "duration": 0.2495,
      "velocity": 91,
      "chip": "ym2612"
    },
    {
      "channel": 2,
      "note": 72,
      "start": 57.0657,
      "duration": 0.1176,
      "velocity": 119,
      "chip": "ym2612"
    },
    {
      "channel": 0,
      "note": 83,
      "start": 57.2117,
      "duration": 0.1162,
      "velocity": 99,
      "chip": "ym2612"
    },
    {
      "channel": 2,
      "note": 57,
      "start": 57.2157,
      "duration": 0.1125,
      "velocity": 127,
      "chip": "ym2612"
    },
    {
      "channel": 0,
      "note": 84,
      "start": 57.3617,
      "duration": 0.1162,
      "velocity": 99,
      "chip": "ym2612"
    },
    {
      "channel": 1,
      "note": 55,
      "start": 57.3627,
      "duration": 0.2346,
      "velocity": 91,
      "chip": "ym2612"
    },
    {
      "channel": 2,
      "note": 57,
      "start": 57.3632,
      "duration": 0.115,
      "velocity": 127,
      "chip": "ym2612"
    },
    {
      "channel": 0,
      "note": 86,
      "start": 57.498,
      "duration": 0.13,
      "velocity": 99,
      "chip": "ym2612"
    },
    {
      "channel": 2,
      "note": 42,
      "start": 57.502,
      "duration": 0.1262,
      "velocity": 101,
      "chip": "ym2612"
    },
    {
      "channel": 0,
      "note": 88,
      "start": 57.6476,
      "duration": 0.6636,
      "velocity": 99,
      "chip": "ym2612"
    },
    {
      "channel": 1,
      "note": 52,
      "start": 57.6483,
      "duration": 0.2463,
      "velocity": 91,
      "chip": "ym2612"
    },
    {
      "channel": 2,
      "note": 42,
      "start": 57.6523,
      "duration": 0.1258,
      "velocity": 127,
      "chip": "ym2612"
    },
    {
      "channel": 3,
      "note": 78,
      "start": 57.653,
      "duration": 1.1252,
      "velocity": 97,
      "chip": "ym2612"
    },
    {
      "channel": 2,
      "note": 57,
      "start": 57.7952,
      "duration": 0.1204,
      "velocity": 127,
      "chip": "ym2612"
    },
    {
      "channel": 1,
      "note": 55,
      "start": 57.9451,
      "duration": 0.2495,
      "velocity": 91,
      "chip": "ym2612"
    },
    {
      "channel": 2,
      "note": 57,
      "start": 57.9457,
      "duration": 0.1201,
      "velocity": 127,
      "chip": "ym2612"
    },
    {
      "channel": 2,
      "note": 57,
      "start": 58.095,
      "duration": 0.1163,
      "velocity": 127,
      "chip": "ym2612"
    },
    {
      "channel": 1,
      "note": 52,
      "start": 58.2451,
      "duration": 0.2356,
      "velocity": 91,
      "chip": "ym2612"
    },
    {
      "channel": 2,
      "note": 72,
      "start": 58.249,
      "duration": 0.1123,
      "velocity": 119,
      "chip": "ym2612"
    },
    {
      "channel": 0,
      "note": 88,
      "start": 58.3834,
      "duration": 0.1278,
      "velocity": 99,
      "chip": "ym2612"
    },
    {
      "channel": 2,
      "note": 57,
      "start": 58.3875,
      "duration": 0.1241,
      "velocity": 127,
      "chip": "ym2612"
    },
    {
      "channel": 0,
      "note": 86,
      "start": 58.5311,
      "duration": 0.1301,
      "velocity": 99,
      "chip": "ym2612"
    },
    {
      "channel": 1,
      "note": 55,
      "start": 58.5318,
      "duration": 0.2462,
      "velocity": 91,
      "chip": "ym2612"
    },
    {
      "channel": 2,
      "note": 57,
      "start": 58.5323,
      "duration": 0.1292,
      "velocity": 127,
      "chip": "ym2612"
    },
    {
      "channel": 0,
      "note": 84,
      "start": 58.6784,
      "duration": 0.1188,
      "velocity": 99,
      "chip": "ym2612"
    },
    {
      "channel": 2,
      "note": 42,
      "start": 58.6824,
      "duration": 0.1151,
      "velocity": 101,
      "chip": "ym2612"
    },
    {
      "channel": 0,
      "note": 83,
      "start": 58.8284,
      "duration": 0.1188,
      "velocity": 99,
      "chip": "ym2612"
    },
    {
      "channel": 1,
      "note": 52,
      "start": 58.8295,
      "duration": 0.2485,
      "velocity": 91,
      "chip": "ym2612"
    },
    {
      "channel": 2,
      "note": 42,
      "start": 58.8334,
      "duration": 0.114,
      "velocity": 101,
      "chip": "ym2612"
    },
    {
      "channel": 3,
      "note": 76,
      "start": 58.8342,
      "duration": 3.4774,
      "velocity": 97,
      "chip": "ym2612"
    },
    {
      "channel": 2,
      "note": 57,
      "start": 58.9817,
      "duration": 0.113,
      "velocity": 127,
      "chip": "ym2612"
    },
    {
      "channel": 0,
      "note": 76,
      "start": 59.1284,
      "duration": 0.1162,
      "velocity": 99,
      "chip": "ym2612"
    },
    {
      "channel": 1,
      "note": 55,
      "start": 59.1291,
      "duration": 0.2368,
      "velocity": 91,
      "chip": "ym2612"
    },
    {
      "channel": 2,
      "note": 57,
      "start": 59.1296,
      "duration": 0.1152,
      "velocity": 127,
      "chip": "ym2612"
    },
    {
      "channel": 2,
      "note": 57,
      "start": 59.2644,
      "duration": 0.1303,
      "velocity": 127,
      "chip": "ym2612"
    },
    {
      "channel": 0,
      "note": 79,
      "start": 59.4117,
      "duration": 1.1329,
      "velocity": 99,
      "chip": "ym2612"
    },
    {
      "channel": 1,
      "note": 52,
      "start": 59.4124,
      "duration": 0.2489,
      "velocity": 91,
      "chip": "ym2612"
    },
    {
      "channel": 2,
      "note": 72,
      "start": 59.4163,
      "duration": 0.1284,
      "velocity": 119,
      "chip": "ym2612"
    },
    {
      "channel": 2,
      "note": 57,
      "start": 59.5653,
      "duration": 0.1171,
      "velocity": 127,
      "chip": "ym2612"
    },
    {
      "channel": 1,
      "note": 55,
      "start": 59.7118,
      "duration": 0.2495,
      "velocity": 91,
      "chip": "ym2612"
    },
    {
      "channel": 2,
      "note": 57,
      "start": 59.7123,
      "duration": 0.1157,
      "velocity": 127,
      "chip": "ym2612"
    },
    {
      "channel": 2,
      "note": 42,
      "start": 59.8651,
      "duration": 0.113,
      "velocity": 101,
      "chip": "ym2612"
    },
    {
      "channel": 1,
      "note": 52,
      "start": 60.0002,
      "duration": 0.2445,
      "velocity": 91,
      "chip": "ym2612"
    },
    {
      "channel": 2,
      "note": 42,
      "start": 60.0041,
      "duration": 0.1239,
      "velocity": 127,
      "chip": "ym2612"
    },
    {
      "channel": 2,
      "note": 57,
      "start": 60.1505,
      "duration": 0.1276,
      "velocity": 127,
      "chip": "ym2612"
    },
    {
      "channel": 1,
      "note": 55,
      "start": 60.2952,
      "duration": 0.2496,
      "velocity": 91,
      "chip": "ym2612"
    },
    {
      "channel": 2,
      "note": 57,
      "start": 60.2959,
      "duration": 0.1208,
      "velocity": 127,
      "chip": "ym2612"
    },
    {
      "channel": 2,
      "note": 57,
      "start": 60.445,
      "duration": 0.1209,
      "velocity": 127,
      "chip": "ym2612"
    },
    {
      "channel": 1,
      "note": 52,
      "start": 60.5951,
      "duration": 0.2375,
      "velocity": 91,
      "chip": "ym2612"
    },
    {
      "channel": 2,
      "note": 72,
      "start": 60.599,
      "duration": 0.1123,
      "velocity": 119,
      "chip": "ym2612"
    },
    {
      "channel": 2,
      "note": 57,
      "start": 60.7484,
      "duration": 0.113,
      "velocity": 127,
      "chip": "ym2612"
    },
    {
      "channel": 0,
      "note": 79,
      "start": 60.8827,
      "duration": 0.1452,
      "velocity": 99,
      "chip": "ym2612"
    },
    {
      "channel": 1,
      "note": 55,
      "start": 60.8834,
      "duration": 0.2446,
      "velocity": 91,
      "chip": "ym2612"
    },
    {
      "channel": 2,
      "note": 57,
      "start": 60.884,
      "duration": 0.1274,
      "velocity": 127,
      "chip": "ym2612"
    },
    {
      "channel": 0,
      "note": 81,
      "start": 61.0314,
      "duration": 0.1328,
      "velocity": 99,
      "chip": "ym2612"
    },
    {
      "channel": 2,
      "note": 42,
      "start": 61.0354,
      "duration": 0.126,
      "velocity": 101,
      "chip": "ym2612"
    },
    {
      "channel": 0,
      "note": 83,
      "start": 61.1784,
      "duration": 0.6662,
      "velocity": 99,
      "chip": "ym2612"
    },
    {
      "channel": 1,
      "note": 52,
      "start": 61.1792,
      "duration": 0.2488,
      "velocity": 91,
      "chip": "ym2612"
    },
    {
      "channel": 2,
      "note": 42,
      "start": 61.1832,
      "duration": 0.1144,
      "velocity": 101,
      "chip": "ym2612"
    },
    {
      "channel": 2,
      "note": 57,
      "start": 61.3317,
      "duration": 0.1183,
      "velocity": 127,
      "chip": "ym2612"
    },
    {
      "channel": 1,
      "note": 55,
      "start": 61.4784,
      "duration": 0.2382,
      "velocity": 91,
      "chip": "ym2612"
    },
    {
      "channel": 2,
      "note": 57,
      "start": 61.479,
      "duration": 0.1157,
      "velocity": 127,
      "chip": "ym2612"
    },
    {
      "channel": 2,
      "note": 57,
      "start": 61.6284,
      "duration": 0.1163,
      "velocity": 127,
      "chip": "ym2612"
    },
    {
      "channel": 1,
      "note": 52,
      "start": 61.7681,
      "duration": 0.2432,
      "velocity": 91,
      "chip": "ym2612"
    },
    {
      "channel": 2,
      "note": 72,
      "start": 61.7721,
      "duration": 0.1227,
      "velocity": 119,
      "chip": "ym2612"
    },
    {
      "channel": 0,
      "note": 83,
      "start": 61.9117,
      "duration": 0.1329,
      "velocity": 99,
      "chip": "ym2612"
    },
    {
      "channel": 2,
      "note": 57,
      "start": 61.9157,
      "duration": 0.1291,
      "velocity": 127,
      "chip": "ym2612"
    },
    {
      "channel": 0,
      "note": 84,
      "start": 62.0617,
      "duration": 0.12,
      "velocity": 99,
      "chip": "ym2612"
    },
    {
      "channel": 1,
      "note": 55,
      "start": 62.0624,
      "duration": 0.2489,
      "velocity": 91,
      "chip": "ym2612"
    },
    {
      "channel": 2,
      "note": 57,
      "start": 62.063,
      "duration": 0.119,
      "velocity": 127,
      "chip": "ym2612"
    },
    {
      "channel": 0,
      "note": 86,
      "start": 62.2117,
      "duration": 0.1162,
      "velocity": 99,
      "chip": "ym2612"
    },
    {
      "channel": 2,
      "note": 42,
      "start": 62.2157,
      "duration": 0.1125,
      "velocity": 101,
      "chip": "ym2612"
    },
    {
      "channel": 0,
      "note": 88,
      "start": 62.3617,
      "duration": 0.6537,
      "velocity": 99,
      "chip": "ym2612"
    },
    {
      "channel": 1,
      "note": 52,
      "start": 62.3627,
      "duration": 0.2363,
      "velocity": 91,
      "chip": "ym2612"
    },
    {
      "channel": 2,
      "note": 42,
      "start": 62.3666,
      "duration": 0.1115,
      "velocity": 127,
      "chip": "ym2612"
    },
    {
      "channel": 3,
      "note": 78,
      "start": 62.3673,
      "duration": 1.1136,
      "velocity": 97,
      "chip": "ym2612"
    },
    {
      "channel": 2,
      "note": 57,
      "start": 62.4981,
      "duration": 0.13,
      "velocity": 127,
      "chip": "ym2612"
    },
    {
      "channel": 1,
      "note": 55,
      "start": 62.6504,
      "duration": 0.2442,
      "velocity": 91,
      "chip": "ym2612"
    },
    {
      "channel": 2,
      "note": 57,
      "start": 62.651,
      "duration": 0.1272,
      "velocity": 127,
      "chip": "ym2612"
    },
    {
      "channel": 2,
      "note": 57,
      "start": 62.795,
      "duration": 0.1217,
      "velocity": 127,
      "chip": "ym2612"
    },
    {
      "channel": 1,
      "note": 52,
      "start": 62.9451,
      "duration": 0.2495,
      "velocity": 91,
      "chip": "ym2612"
    },
    {
      "channel": 2,
      "note": 72,
      "start": 62.949,
      "duration": 0.1176,
      "velocity": 119,
      "chip": "ym2612"
    },
    {
      "channel": 0,
      "note": 88,
      "start": 63.095,
      "duration": 0.1162,
      "velocity": 99,
      "chip": "ym2612"
    },
    {
      "channel": 2,
      "note": 57,
      "start": 63.0993,
      "duration": 0.1122,
      "velocity": 127,
      "chip": "ym2612"
    },
    {
      "channel": 0,
      "note": 86,
      "start": 63.245,
      "duration": 0.1162,
      "velocity": 99,
      "chip": "ym2612"
    },
    {
      "channel": 1,
      "note": 55,
      "start": 63.2457,
      "duration": 0.2349,
      "velocity": 91,
      "chip": "ym2612"
    },
    {
      "channel": 2,
      "note": 57,
      "start": 63.2463,
      "duration": 0.1152,
      "velocity": 127,
      "chip": "ym2612"
    },
    {
      "channel": 0,
      "note": 84,
      "start": 63.3811,
      "duration": 0.1301,
      "velocity": 99,
      "chip": "ym2612"
    },
    {
      "channel": 2,
      "note": 42,
      "start": 63.3851,
      "duration": 0.1265,
      "velocity": 101,
      "chip": "ym2612"
    },
    {
      "channel": 0,
      "note": 83,
      "start": 63.531,
      "duration": 0.1302,
      "velocity": 99,
      "chip": "ym2612"
    },
    {
      "channel": 1,
      "note": 52,
      "start": 63.5318,
      "duration": 0.2462,
      "velocity": 91,
      "chip": "ym2612"
    },
    {
      "channel": 2,
      "note": 42,
      "start": 63.5358,
      "duration": 0.1257,
      "velocity": 101,
      "chip": "ym2612"
    },
    {
      "channel": 3,
      "note": 76,
      "start": 63.5366,
      "duration": 2.325,
      "velocity": 97,
      "chip": "ym2612"
    },
    {
      "channel": 2,
      "note": 57,
      "start": 63.6817,
      "duration": 0.1172,
      "velocity": 127,
      "chip": "ym2612"
    },
    {
      "channel": 0,
      "note": 76,
      "start": 63.8284,
      "duration": 0.119,
      "velocity": 99,
      "chip": "ym2612"
    },
    {
      "channel": 1,
      "note": 55,
      "start": 63.8293,
      "duration": 0.2487,
      "velocity": 91,
      "chip": "ym2612"
    },
    {
      "channel": 2,
      "note": 57,
      "start": 63.8299,
      "duration": 0.1177,
      "velocity": 127,
      "chip": "ym2612"
    },
    {
      "channel": 2,
      "note": 57,
      "start": 63.9784,
      "duration": 0.1163,
      "velocity": 127,
      "chip": "ym2612"
    },
    {
      "channel": 0,
      "note": 79,
      "start": 64.1284,
      "duration": 1.1162,
      "velocity": 99,
      "chip": "ym2612"
    },
    {
      "channel": 1,
      "note": 52,
      "start": 64.1291,
      "duration": 0.2368,
      "velocity": 91,
      "chip": "ym2612"
    },
    {
      "channel": 2,
      "note": 72,
      "start": 64.133,
      "duration": 0.1117,
      "velocity": 119,
      "chip": "ym2612"
    },
    {
      "channel": 2,
      "note": 57,
      "start": 64.2677,
      "duration": 0.127,
      "velocity": 127,
      "chip": "ym2612"
    },
    {
      "channel": 1,
      "note": 55,
      "start": 64.4118,
      "duration": 0.2495,
      "velocity": 91,
      "chip": "ym2612"
    },
    {
      "channel": 2,
      "note": 57,
      "start": 64.4123,
      "duration": 0.1324,
      "velocity": 127,
      "chip": "ym2612"
    },
    {
      "channel": 2,
      "note": 42,
      "start": 64.5653,
      "duration": 0.1181,
      "velocity": 101,
      "chip": "ym2612"
    },
    {
      "channel": 1,
      "note": 52,
      "start": 64.7118,
      "duration": 0.2495,
      "velocity": 91,
      "chip": "ym2612"
    },
    {
      "channel": 2,
      "note": 42,
      "start": 64.7157,
      "duration": 0.1123,
      "velocity": 127,
      "chip": "ym2612"
    },
    {
      "channel": 2,
      "note": 57,
      "start": 64.8619,
      "duration": 0.1162,
      "velocity": 127,
      "chip": "ym2612"
    },
    {
      "channel": 1,
      "note": 55,
      "start": 65.0004,
      "duration": 0.2444,
      "velocity": 91,
      "chip": "ym2612"
    },
    {
      "channel": 2,
      "note": 57,
      "start": 65.001,
      "duration": 0.127,
      "velocity": 127,
      "chip": "ym2612"
    },
    {
      "channel": 2,
      "note": 57,
      "start": 65.1494,
      "duration": 0.1286,
      "velocity": 127,
      "chip": "ym2612"
    },
    {
      "channel": 1,
      "note": 52,
      "start": 65.2952,
      "duration": 0.2494,
      "velocity": 91,
      "chip": "ym2612"
    },
    {
      "channel": 2,
      "note": 72,
      "start": 65.2993,
      "duration": 0.1164,
      "velocity": 119,
      "chip": "ym2612"
    },
    {
      "channel": 2,
      "note": 57,
      "start": 65.4484,
      "duration": 0.1176,
      "velocity": 127,
      "chip": "ym2612"
    },
    {
      "channel": 0,
      "note": 78,
      "start": 65.595,
      "duration": 0.1329,
      "velocity": 99,
      "chip": "ym2612"
    },
    {
      "channel": 1,
      "note": 55,
      "start": 65.5957,
      "duration": 0.2351,
      "velocity": 91,
      "chip": "ym2612"
    },
    {
      "channel": 2,
      "note": 57,
      "start": 65.5963,
      "duration": 0.1151,
      "velocity": 127,
      "chip": "ym2612"
    },
    {
      "channel": 0,
      "note": 79,
      "start": 65.745,
      "duration": 0.1329,
      "velocity": 99,
      "chip": "ym2612"
    },
    {
      "channel": 2,
      "note": 42,
      "start": 65.749,
      "duration": 0.1123,
      "velocity": 101,
      "chip": "ym2612"
    },
    {
      "channel": 0,
      "note": 81,
      "start": 65.8811,
      "duration": 0.6635,
      "velocity": 99,
      "chip": "ym2612"
    },
    {
      "channel": 1,
      "note": 52,
      "start": 65.8819,
      "duration": 0.2461,
      "velocity": 91,
      "chip": "ym2612"
    },
    {
      "channel": 2,
      "note": 42,
      "start": 65.8859,
      "duration": 0.1254,
      "velocity": 101,
      "chip": "ym2612"
    },
    {
      "channel": 3,
      "note": 72,
      "start": 65.8867,
      "duration": 2.325,
      "velocity": 97,
      "chip": "ym2612"
    },
    {
      "channel": 2,
      "note": 57,
      "start": 66.0346,
      "duration": 0.1268,
      "velocity": 127,
      "chip": "ym2612"
    },
    {
      "channel": 1,
      "note": 57,
      "start": 66.1784,
      "duration": 0.2495,
      "velocity": 91,
      "chip": "ym2612"
    },
    {
      "channel": 2,
      "note": 57,
      "start": 66.179,
      "duration": 0.1203,
      "velocity": 127,
      "chip": "ym2612"
    },
    {
      "channel": 2,
      "note": 57,
      "start": 66.3284,
      "duration": 0.1217,
      "velocity": 127,
      "chip": "ym2612"
    },
    {
      "channel": 1,
      "note": 52,
      "start": 66.4784,
      "duration": 0.2356,
      "velocity": 91,
      "chip": "ym2612"
    },
    {
      "channel": 2,
      "note": 72,
      "start": 66.4824,
      "duration": 0.1123,
      "velocity": 119,
      "chip": "ym2612"
    },
    {
      "channel": 0,
      "note": 81,
      "start": 66.6284,
      "duration": 0.1162,
      "velocity": 99,
      "chip": "ym2612"
    },
    {
      "channel": 2,
      "note": 57,
      "start": 66.6326,
      "duration": 0.1122,
      "velocity": 127,
      "chip": "ym2612"
    },
    {
      "channel": 0,
      "note": 83,
      "start": 66.7646,
      "duration": 0.13,
      "velocity": 99,
      "chip": "ym2612"
    },
    {
      "channel": 1,
      "note": 57,
      "start": 66.7653,
      "duration": 0.246,
      "velocity": 91,
      "chip": "ym2612"
    },
    {
      "channel": 2,
      "note": 57,
      "start": 66.7659,
      "duration": 0.129,
      "velocity": 127,
      "chip": "ym2612"
    },
    {
      "channel": 0,
      "note": 84,
      "start": 66.9117,
      "duration": 0.1329,
      "velocity": 99,
      "chip": "ym2612"
    },
    {
      "channel": 2,
      "note": 42,
      "start": 66.9157,
      "duration": 0.1291,
      "velocity": 101,
      "chip": "ym2612"
    },
    {
      "channel": 0,
      "note": 83,
      "start": 67.0617,
      "duration": 0.6829,
      "velocity": 99,
      "chip": "ym2612"
    },
    {
      "channel": 1,
      "note": 52,
      "start": 67.0624,
      "duration": 0.2489,
      "velocity": 91,
      "chip": "ym2612"
    },
    {
      "channel": 2,
      "note": 42,
      "start": 67.0663,
      "duration": 0.1144,
      "velocity": 127,
      "chip": "ym2612"
    },
    {
      "channel": 2,
      "note": 57,
      "start": 67.2118,
      "duration": 0.1162,
      "velocity": 127,
      "chip": "ym2612"
    },
    {
      "channel": 1,
      "note": 57,
      "start": 67.3619,
      "duration": 0.2371,
      "velocity": 91,
      "chip": "ym2612"
    },
    {
      "channel": 2,
      "note": 57,
      "start": 67.3626,
      "duration": 0.1155,
      "velocity": 127,
      "chip": "ym2612"
    },
    {
      "channel": 2,
      "note": 57,
      "start": 67.5006,
      "duration": 0.1275,
      "velocity": 127,
      "chip": "ym2612"
    },
    {
      "channel": 1,
      "note": 52,
      "start": 67.6503,
      "duration": 0.2443,
      "velocity": 91,
      "chip": "ym2612"
    },
    {
      "channel": 2,
      "note": 72,
      "start": 67.6542,
      "duration": 0.1239,
      "velocity": 119,
      "chip": "ym2612"
    },
    {
      "channel": 0,
      "note": 81,
      "start": 67.795,
      "duration": 0.119,
      "velocity": 99,
      "chip": "ym2612"
    },
    {
      "channel": 2,
      "note": 57,
      "start": 67.799,
      "duration": 0.1152,
      "velocity": 127,
      "chip": "ym2612"
    },
    {
      "channel": 0,
      "note": 79,
      "start": 67.945,
      "duration": 0.119,
      "velocity": 99,
      "chip": "ym2612"
    },
    {
      "channel": 1,
      "note": 57,
      "start": 67.9457,
      "duration": 0.2489,
      "velocity": 91,
      "chip": "ym2612"
    },
    {
      "channel": 2,
      "note": 57,
      "start": 67.9463,
      "duration": 0.1179,
      "velocity": 127,
      "chip": "ym2612"
    },
    {
      "channel": 0,
      "note": 78,
      "start": 68.095,
      "duration": 0.1162,
      "velocity": 99,
      "chip": "ym2612"
    },
    {
      "channel": 2,
      "note": 42,
      "start": 68.0992,
      "duration": 0.1123,
      "velocity": 101,
      "chip": "ym2612"
    },
    {
      "channel": 0,
      "note": 79,
      "start": 68.245,
      "duration": 0.1162,
      "velocity": 99,
      "chip": "ym2612"
    },
    {
      "channel": 1,
      "note": 52,
      "start": 68.2457,
      "duration": 0.2366,
      "velocity": 91,
      "chip": "ym2612"
    },
    {
      "channel": 2,
      "note": 42,
      "start": 68.2498,
      "duration": 0.1118,
      "velocity": 101,
      "chip": "ym2612"
    },
    {
      "channel": 3,
      "note": 71,
      "start": 68.2505,
      "duration": 2.3141,
      "velocity": 97,
      "chip": "ym2612"
    },
    {
      "channel": 2,
      "note": 57,
      "start": 68.3844,
      "duration": 0.127,
      "velocity": 127,
      "chip": "ym2612"
    },
    {
      "channel": 0,
      "note": 76,
      "start": 68.5337,
      "duration": 1.6151,
      "velocity": 99,
      "chip": "ym2612"
    },
    {
      "channel": 1,
      "note": 55,
      "start": 68.5344,
      "duration": 0.2436,
      "velocity": 91,
      "chip": "ym2612"
    },
    {
      "channel": 2,
      "note": 57,
      "start": 68.5349,
      "duration": 0.1265,
      "velocity": 127,
      "chip": "ym2612"
    },
    {
      "channel": 2,
      "note": 57,
      "start": 68.6784,
      "duration": 0.1205,
      "velocity": 127,
      "chip": "ym2612"
    },
    {
      "channel": 1,
      "note": 52,
      "start": 68.8285,
      "duration": 0.2494,
      "velocity": 91,
      "chip": "ym2612"
    },
    {
      "channel": 2,
      "note": 72,
      "start": 68.8326,
      "duration": 0.1163,
      "velocity": 119,
      "chip": "ym2612"
    },
    {
      "channel": 2,
      "note": 57,
      "start": 68.9817,
      "duration": 0.113,
      "velocity": 127,
      "chip": "ym2612"
    },
    {
      "channel": 1,
      "note": 55,
      "start": 69.1284,
      "duration": 0.2384,
      "velocity": 91,
      "chip": "ym2612"
    },
    {
      "channel": 2,
      "note": 57,
      "start": 69.129,
      "duration": 0.1157,
      "velocity": 127,
      "chip": "ym2612"
    },
    {
      "channel": 2,
      "note": 42,
      "start": 69.2702,
      "duration": 0.1245,
      "velocity": 101,
      "chip": "ym2612"
    },
    {
      "channel": 1,
      "note": 52,
      "start": 69.4118,
      "duration": 0.2495,
      "velocity": 91,
      "chip": "ym2612"
    },
    {
      "channel": 2,
      "note": 42,
      "start": 69.4157,
      "duration": 0.1291,
      "velocity": 127,
      "chip": "ym2612"
    },
    {
      "channel": 2,
      "note": 57,
      "start": 69.5621,
      "duration": 0.1213,
      "velocity": 127,
      "chip": "ym2612"
    },
    {
      "channel": 1,
      "note": 55,
      "start": 69.7118,
      "duration": 0.2495,
      "velocity": 91,
      "chip": "ym2612"
    },
    {
      "channel": 2,
      "note": 57,
      "start": 69.7123,
      "duration": 0.1157,
      "velocity": 127,
      "chip": "ym2612"
    },
    {
      "channel": 2,
      "note": 57,
      "start": 69.8617,
      "duration": 0.1163,
      "velocity": 127,
      "chip": "ym2612"
    },
    {
      "channel": 1,
      "note": 52,
      "start": 69.9993,
      "duration": 0.2454,
      "velocity": 91,
      "chip": "ym2612"
    },
    {
      "channel": 2,
      "note": 72,
      "start": 70.0032,
      "duration": 0.1248,
      "velocity": 119,
      "chip": "ym2612"
    },
    {
      "channel": 2,
      "note": 57,
      "start": 70.1527,
      "duration": 0.1253,
      "velocity": 127,
      "chip": "ym2612"
    },
    {
      "channel": 0,
      "note": 78,
      "start": 70.295,
      "duration": 0.119,
      "velocity": 99,
      "chip": "ym2612"
    },
    {
      "channel": 1,
      "note": 55,
      "start": 70.296,
      "duration": 0.2487,
      "velocity": 91,
      "chip": "ym2612"
    },
    {
      "channel": 2,
      "note": 57,
      "start": 70.2966,
      "duration": 0.1177,
      "velocity": 127,
      "chip": "ym2612"
    },
    {
      "channel": 0,
      "note": 79,
      "start": 70.445,
      "duration": 0.1191,
      "velocity": 99,
      "chip": "ym2612"
    },
    {
      "channel": 2,
      "note": 42,
      "start": 70.449,
      "duration": 0.1154,
      "velocity": 101,
      "chip": "ym2612"
    },
    {
      "channel": 0,
      "note": 81,
      "start": 70.595,
      "duration": 0.6537,
      "velocity": 99,
      "chip": "ym2612"
    },
    {
      "channel": 1,
      "note": 52,
      "start": 70.5957,
      "duration": 0.2368,
      "velocity": 91,
      "chip": "ym2612"
    },
    {
      "channel": 2,
      "note": 42,
      "start": 70.5998,
      "duration": 0.1116,
      "velocity": 101,
      "chip": "ym2612"
    },
    {
      "channel": 3,
      "note": 72,
      "start": 70.6005,
      "duration": 1.1137,
      "velocity": 97,
      "chip": "ym2612"
    },
    {
      "channel": 2,
      "note": 57,
      "start": 70.7484,
      "duration": 0.113,
      "velocity": 127,
      "chip": "ym2612"
    },
    {
      "channel": 1,
      "note": 57,
      "start": 70.8838,
      "duration": 0.2442,
      "velocity": 91,
      "chip": "ym2612"
    },
    {
      "channel": 2,
      "note": 57,
      "start": 70.8844,
      "duration": 0.127,
      "velocity": 127,
      "chip": "ym2612"
    },
    {
      "channel": 2,
      "note": 57,
      "start": 71.0339,
      "duration": 0.1275,
      "velocity": 127,
      "chip": "ym2612"
    },
    {
      "channel": 1,
      "note": 52,
      "start": 71.1784,
      "duration": 0.2495,
      "velocity": 91,
      "chip": "ym2612"
    },
    {
      "channel": 2,
      "note": 72,
      "start": 71.1824,
      "duration": 0.1178,
      "velocity": 119,
      "chip": "ym2612"
    },
    {
      "channel": 0,
      "note": 81,
      "start": 71.3284,
      "duration": 0.119,
      "velocity": 99,
      "chip": "ym2612"
    },
    {
      "channel": 2,
      "note": 57,
      "start": 71.3324,
      "duration": 0.1152,
      "velocity": 127,
      "chip": "ym2612"
    },
    {
      "channel": 0,
      "note": 83,
      "start": 71.4784,
      "duration": 0.1162,
      "velocity": 99,
      "chip": "ym2612"
    },
    {
      "channel": 1,
      "note": 57,
      "start": 71.4791,
      "duration": 0.2349,
      "velocity": 91,
      "chip": "ym2612"
    },
    {
      "channel": 2,
      "note": 57,
      "start": 71.4796,
      "duration": 0.1152,
      "velocity": 127,
      "chip": "ym2612"
    },
    {
      "channel": 0,
      "note": 84,
      "start": 71.6284,
      "duration": 0.1162,
      "velocity": 99,
      "chip": "ym2612"
    },
    {
      "channel": 2,
      "note": 42,
      "start": 71.6326,
      "duration": 0.1123,
      "velocity": 101,
      "chip": "ym2612"
    },
    {
      "channel": 0,
      "note": 86,
      "start": 71.7646,
      "duration": 0.6967,
      "velocity": 99,
      "chip": "ym2612"
    },
    {
      "channel": 1,
      "note": 50,
      "start": 71.7653,
      "duration": 0.2461,
      "velocity": 91,
      "chip": "ym2612"
    },
    {
      "channel": 2,
      "note": 42,
      "start": 71.7692,
      "duration": 0.1255,
      "velocity": 127,
      "chip": "ym2612"
    },
    {
      "channel": 3,
      "note": 74,
      "start": 71.7699,
      "duration": 2.3084,
      "velocity": 97,
      "chip": "ym2612"
    },
    {
      "channel": 2,
      "note": 57,
      "start": 71.9118,
      "duration": 0.1329,
      "velocity": 127,
      "chip": "ym2612"
    },
    {
      "channel": 1,
      "note": 57,
      "start": 72.0618,
      "duration": 0.2495,
      "velocity": 91,
      "chip": "ym2612"
    },
    {
      "channel": 2,
      "note": 57,
      "start": 72.0623,
      "duration": 0.1201,
      "velocity": 127,
      "chip": "ym2612"
    },
    {
      "channel": 2,
      "note": 57,
      "start": 72.2117,
      "duration": 0.1163,
      "velocity": 127,
      "chip": "ym2612"
    },
    {
      "channel": 1,
      "note": 50,
      "start": 72.3619,
      "duration": 0.2354,
      "velocity": 91,
      "chip": "ym2612"
    },
    {
      "channel": 2,
      "note": 72,
      "start": 72.366,
      "duration": 0.1121,
      "velocity": 119,
      "chip": "ym2612"
    },
    {
      "channel": 0,
      "note": 84,
      "start": 72.5004,
      "duration": 0.1275,
      "velocity": 99,
      "chip": "ym2612"
    },
    {
      "channel": 2,
      "note": 57,
      "start": 72.5044,
      "duration": 0.1238,
      "velocity": 127,
      "chip": "ym2612"
    },
    {
      "channel": 0,
      "note": 83,
      "start": 72.6478,
      "duration": 0.1301,
      "velocity": 99,
      "chip": "ym2612"
    },
    {
      "channel": 1,
      "note": 57,
      "start": 72.6485,
      "duration": 0.2462,
      "velocity": 91,
      "chip": "ym2612"
    },
    {
      "channel": 2,
      "note": 57,
      "start": 72.649,
      "duration": 0.1292,
      "velocity": 127,
      "chip": "ym2612"
    },
    {
      "channel": 0,
      "note": 81,
      "start": 72.795,
      "duration": 0.1188,
      "velocity": 99,
      "chip": "ym2612"
    },
    {
      "channel": 2,
      "note": 42,
      "start": 72.799,
      "duration": 0.1151,
      "velocity": 101,
      "chip": "ym2612"
    },
    {
      "channel": 0,
      "note": 83,
      "start": 72.945,
      "duration": 1.8371,
      "velocity": 99,
      "chip": "ym2612"
    },
    {
      "channel": 1,
      "note": 55,
      "start": 72.9457,
      "duration": 0.2489,
      "velocity": 91,
      "chip": "ym2612"
    },
    {
      "channel": 2,
      "note": 42,
      "start": 72.9464,
      "duration": 0.1176,
      "velocity": 101,
      "chip": "ym2612"
    },
    {
      "channel": 2,
      "note": 57,
      "start": 73.0987,
      "duration": 0.1127,
      "velocity": 127,
      "chip": "ym2612"
    },
    {
      "channel": 1,
      "note": 62,
      "start": 73.2451,
      "duration": 0.2372,
      "velocity": 91,
      "chip": "ym2612"
    },
    {
      "channel": 2,
      "note": 57,
      "start": 73.2457,
      "duration": 0.1157,
      "velocity": 127,
      "chip": "ym2612"
    },
    {
      "channel": 2,
      "note": 57,
      "start": 73.3837,
      "duration": 0.1277,
      "velocity": 127,
      "chip": "ym2612"
    },
    {
      "channel": 1,
      "note": 55,
      "start": 73.5336,
      "duration": 0.2444,
      "velocity": 91,
      "chip": "ym2612"
    },
    {
      "channel": 2,
      "note": 72,
      "start": 73.5375,
      "duration": 0.1239,
      "velocity": 119,
      "chip": "ym2612"
    },
    {
      "channel": 2,
      "note": 57,
      "start": 73.6817,
      "duration": 0.1181,
      "velocity": 127,
      "chip": "ym2612"
    },
    {
      "channel": 1,
      "note": 62,
      "start": 73.8285,
      "duration": 0.2494,
      "velocity": 91,
      "chip": "ym2612"
    },
    {
      "channel": 2,
      "note": 57,
      "start": 73.8293,
      "duration": 0.1208,
      "velocity": 127,
      "chip": "ym2612"
    },
    {
      "channel": 2,
      "note": 42,
      "start": 73.9817,
      "duration": 0.113,
      "velocity": 101,
      "chip": "ym2612"
    },
    {
      "channel": 1,
      "note": 59,
      "start": 74.1284,
      "duration": 0.2375,
      "velocity": 91,
      "chip": "ym2612"
    },
    {
      "channel": 2,
      "note": 42,
      "start": 74.129,
      "duration": 0.1157,
      "velocity": 101,
      "chip": "ym2612"
    },
    {
      "channel": 3,
      "note": 75,
      "start": 74.1297,
      "duration": 1.1152,
      "velocity": 97,
      "chip": "ym2612"
    },
    {
      "channel": 2,
      "note": 57,
      "start": 74.2692,
      "duration": 0.1255,
      "velocity": 127,
      "chip": "ym2612"
    },
    {
      "channel": 1,
      "note": 66,
      "start": 74.4118,
      "duration": 0.2495,
      "velocity": 91,
      "chip": "ym2612"
    },
    {
      "channel": 2,
      "note": 57,
      "start": 74.4123,
      "duration": 0.1324,
      "velocity": 127,
      "chip": "ym2612"
    },
    {
      "channel": 2,
      "note": 57,
      "start": 74.5617,
      "duration": 0.1207,
      "velocity": 127,
      "chip": "ym2612"
    },
    {
      "channel": 1,
      "note": 59,
      "start": 74.7118,
      "duration": 0.2495,
      "velocity": 91,
      "chip": "ym2612"
    },
    {
      "channel": 2,
      "note": 49,
      "start": 74.7157,
      "duration": 0.1123,
      "velocity": 127,
      "chip": "ym2612"
    },
    {
      "channel": 0,
      "note": 81,
      "start": 74.8618,
      "duration": 0.1161,
      "velocity": 99,
      "chip": "ym2612"
    },
    {
      "channel": 2,
      "note": 46,
      "start": 74.8625,
      "duration": 0.1157,
      "velocity": 127,
      "chip": "ym2612"
    },
    {
      "channel": 0,
      "note": 79,
      "start": 74.9976,
      "duration": 0.1303,
      "velocity": 99,
      "chip": "ym2612"
    },
    {
      "channel": 1,
      "note": 66,
      "start": 74.9983,
      "duration": 0.2463,
      "velocity": 91,
      "chip": "ym2612"
    },
    {
      "channel": 2,
      "note": 42,
      "start": 74.999,
      "duration": 0.1291,
      "velocity": 127,
      "chip": "ym2612"
    },
    {
      "channel": 0,
      "note": 78,
      "start": 75.1477,
      "duration": 0.1302,
      "velocity": 99,
      "chip": "ym2612"
    },
    {
      "channel": 0,
      "note": 76,
      "start": 75.295,
      "duration": 2.3329,
      "velocity": 99,
      "chip": "ym2612"
    },
    {
      "channel": 1,
      "note": 52,
      "start": 75.296,
      "duration": 0.2487,
      "velocity": 91,
      "chip": "ym2612"
    },
    {
      "channel": 2,
      "note": 42,
      "start": 75.2999,
      "duration": 0.1141,
      "velocity": 101,
      "chip": "ym2612"
    },
    {
      "channel": 3,
      "note": 76,
      "start": 75.3006,
      "duration": 2.3277,
      "velocity": 97,
      "chip": "ym2612"
    },
    {
      "channel": 2,
      "note": 57,
      "start": 75.4484,
      "duration": 0.1176,
      "velocity": 127,
      "chip": "ym2612"
    },
    {
      "channel": 1,
      "note": 55,
      "start": 75.5951,
      "duration": 0.2375,
      "velocity": 91,
      "chip": "ym2612"
    },
    {
      "channel": 2,
      "note": 57,
      "start": 75.5957,
      "duration": 0.1157,
      "velocity": 127,
      "chip": "ym2612"
    },
    {
      "channel": 2,
      "note": 57,
      "start": 75.745,
      "duration": 0.1163,
      "velocity": 127,
      "chip": "ym2612"
    },
    {
      "channel": 1,
      "note": 52,
      "start": 75.8836,
      "duration": 0.2444,
      "velocity": 91,
      "chip": "ym2612"
    },
    {
      "channel": 2,
      "note": 72,
      "start": 75.8875,
      "duration": 0.1239,
      "velocity": 119,
      "chip": "ym2612"
    },
    {
      "channel": 2,
      "note": 57,
      "start": 76.0372,
      "duration": 0.1242,
      "velocity": 127,
      "chip": "ym2612"
    },
    {
      "channel": 1,
      "note": 55,
      "start": 76.1784,
      "duration": 0.2495,
      "velocity": 91,
      "chip": "ym2612"
    },
    {
      "channel": 2,
      "note": 57,
      "start": 76.179,
      "duration": 0.1213,
      "velocity": 127,
      "chip": "ym2612"
    },
    {
      "channel": 2,
      "note": 42,
      "start": 76.3317,
      "duration": 0.1174,
      "velocity": 101,
      "chip": "ym2612"
    },
    {
      "channel": 1,
      "note": 52,
      "start": 76.4784,
      "duration": 0.2373,
      "velocity": 91,
      "chip": "ym2612"
    },
    {
      "channel": 2,
      "note": 42,
      "start": 76.479,
      "duration": 0.1157,
      "velocity": 101,
      "chip": "ym2612"
    },
    {
      "channel": 2,
      "note": 57,
      "start": 76.632,
      "duration": 0.1127,
      "velocity": 127,
      "chip": "ym2612"
    },
    {
      "channel": 1,
      "note": 55,
      "start": 76.7663,
      "duration": 0.245,
      "velocity": 91,
      "chip": "ym2612"
    },
    {
      "channel": 2,
      "note": 57,
      "start": 76.7669,
      "duration": 0.1278,
      "velocity": 127,
      "chip": "ym2612"
    },
    {
      "channel": 2,
      "note": 57,
      "start": 76.9117,
      "duration": 0.133,
      "velocity": 127,
      "chip": "ym2612"
    },
    {
      "channel": 1,
      "note": 52,
      "start": 77.0618,
      "duration": 0.2495,
      "velocity": 91,
      "chip": "ym2612"
    },
    {
      "channel": 2,
      "note": 49,
      "start": 77.0657,
      "duration": 0.1176,
      "velocity": 127,
      "chip": "ym2612"
    },
    {
      "channel": 2,
      "note": 49,
      "start": 77.2117,
      "duration": 0.1163,
      "velocity": 127,
      "chip": "ym2612"
    },
    {
      "channel": 1,
      "note": 55,
      "start": 77.3619,
      "duration": 0.238,
      "velocity": 91,
      "chip": "ym2612"
    },
    {
      "channel": 2,
      "note": 46,
      "start": 77.3627,
      "duration": 0.1153,
      "velocity": 127,
      "chip": "ym2612"
    },
    {
      "channel": 2,
      "note": 42,
      "start": 77.5006,
      "duration": 0.1276,
      "velocity": 127,
      "chip": "ym2612"
    },
    {
      "channel": 1,
      "note": 52,
      "start": 77.6573,
      "duration": 0.1354,
      "velocity": 91,
      "chip": "ym2612"
    },
    {
      "channel": 2,
      "note": 42,
      "start": 77.6618,
      "duration": 0.1162,
      "velocity": 101,
      "chip": "ym2612"
    }
  ]
}