{
  "track_name": "12 - General Store",
  "duration_sec": 13.915,
  "sample_rate": 44100,
  "note_count": 254,
  "unique_pitches": 25,
  "pitch_range": 56,
  "avg_note_duration": 0.2042,
  "reconstruction_stats": {
    "notes_reconstructed": 254,
    "keyon_events": 254,
    "keyoff_events": 251,
    "orphan_keyons": 3,
    "unique_pitches": 25,
    "pitch_range": 56,
    "avg_duration_sec": 0.2042
  },
  "metadata": {
    "source": "T\\The Great Circus Mystery\\12 - General Store.vgz"
  },
  "notes": [
    {
      "channel": 4,
      "note": 78,
      "start": 0.0,
      "duration": 0.0,
      "velocity": 73,
      "chip": "ym2612"
    },
    {
      "channel": 4,
      "note": 83,
      "start": 0.0,
      "duration": 0.0,
      "velocity": 73,
      "chip": "ym2612"
    },
    {
      "channel": 4,
      "note": 87,
      "start": 0.0,
      "duration": 0.0,
      "velocity": 73,
      "chip": "ym2612"
    },
    {
      "channel": 4,
      "note": 88,
      "start": 0.0,
      "duration": 0.0,
      "velocity": 73,
      "chip": "ym2612"
    },
    {
      "channel": 5,
      "note": 85,
      "start": 0.0,
      "duration": 0.0,
      "velocity": 73,
      "chip": "ym2612"
    },
    {
      "channel": 5,
      "note": 90,
      "start": 0.0,
      "duration": 0.0,
      "velocity": 73,
      "chip": "ym2612"
    },
    {
      "channel": 5,
      "note": 94,
      "start": 0.0,
      "duration": 0.0,
      "velocity": 73,
      "chip": "ym2612"
    },
    {
      "channel": 5,
      "note": 95,
      "start": 0.0,
      "duration": 0.0,
      "velocity": 73,
      "chip": "ym2612"
    },
    {
      "channel": 0,
      "note": 87,
      "start": 0.0023,
      "duration": 0.0482,
      "velocity": 114,
      "chip": "ym2612"
    },
    {
      "channel": 1,
      "note": 57,
      "start": 0.0046,
      "duration": 0.3327,
      "velocity": 97,
      "chip": "ym2612"
    },
    {
      "channel": 2,
      "note": 80,
      "start": 0.0078,
      "duration": 0.0434,
      "velocity": 114,
      "chip": "ym2612"
    },
    {
      "channel": 0,
      "note": 88,
      "start": 0.0682,
      "duration": 0.1172,
      "velocity": 114,
      "chip": "ym2612"
    },
    {
      "channel": 2,
      "note": 81,
      "start": 0.0697,
      "duration": 0.1163,
      "velocity": 114,
      "chip": "ym2612"
    },
    {
      "channel": 3,
      "note": 87,
      "start": 0.0875,
      "duration": 0.0314,
      "velocity": 109,
      "chip": "ym2612"
    },
    {
      "channel": 4,
      "note": 80,
      "start": 0.0907,
      "duration": 0.0285,
      "velocity": 109,
      "chip": "ym2612"
    },
    {
      "channel": 3,
      "note": 88,
      "start": 0.1366,
      "duration": 0.1172,
      "velocity": 109,
      "chip": "ym2612"
    },
    {
      "channel": 4,
      "note": 81,
      "start": 0.1378,
      "duration": 0.1163,
      "velocity": 109,
      "chip": "ym2612"
    },
    {
      "channel": 0,
      "note": 85,
      "start": 0.2198,
      "duration": 0.1678,
      "velocity": 114,
      "chip": "ym2612"
    },
    {
      "channel": 2,
      "note": 76,
      "start": 0.2213,
      "duration": 0.167,
      "velocity": 114,
      "chip": "ym2612"
    },
    {
      "channel": 5,
      "note": 103,
      "start": 0.225,
      "duration": 0.4188,
      "velocity": 80,
      "chip": "ym2612"
    },
    {
      "channel": 3,
      "note": 85,
      "start": 0.2882,
      "duration": 0.1681,
      "velocity": 109,
      "chip": "ym2612"
    },
    {
      "channel": 4,
      "note": 76,
      "start": 0.2898,
      "duration": 0.167,
      "velocity": 109,
      "chip": "ym2612"
    },
    {
      "channel": 0,
      "note": 88,
      "start": 0.439,
      "duration": 0.1676,
      "velocity": 114,
      "chip": "ym2612"
    },
    {
      "channel": 1,
      "note": 56,
      "start": 0.4403,
      "duration": 0.3184,
      "velocity": 97,
      "chip": "ym2612"
    },
    {
      "channel": 2,
      "note": 81,
      "start": 0.4415,
      "duration": 0.1659,
      "velocity": 114,
      "chip": "ym2612"
    },
    {
      "channel": 3,
      "note": 88,
      "start": 0.5076,
      "duration": 0.1674,
      "velocity": 109,
      "chip": "ym2612"
    },
    {
      "channel": 4,
      "note": 81,
      "start": 0.5088,
      "duration": 0.1666,
      "velocity": 109,
      "chip": "ym2612"
    },
    {
      "channel": 0,
      "note": 93,
      "start": 0.6411,
      "duration": 0.1678,
      "velocity": 114,
      "chip": "ym2612"
    },
    {
      "channel": 2,
      "note": 85,
      "start": 0.6427,
      "duration": 0.1669,
      "velocity": 114,
      "chip": "ym2612"
    },
    {
      "channel": 5,
      "note": 103,
      "start": 0.6448,
      "duration": 0.4202,
      "velocity": 80,
      "chip": "ym2612"
    },
    {
      "channel": 3,
      "note": 93,
      "start": 0.7095,
      "duration": 0.1678,
      "velocity": 109,
      "chip": "ym2612"
    },
    {
      "channel": 4,
      "note": 85,
      "start": 0.7107,
      "duration": 0.1669,
      "velocity": 109,
      "chip": "ym2612"
    },
    {
      "channel": 1,
      "note": 54,
      "start": 0.8605,
      "duration": 0.3195,
      "velocity": 97,
      "chip": "ym2612"
    },
    {
      "channel": 0,
      "note": 95,
      "start": 1.0624,
      "duration": 0.1678,
      "velocity": 114,
      "chip": "ym2612"
    },
    {
      "channel": 2,
      "note": 86,
      "start": 1.064,
      "duration": 0.1669,
      "velocity": 114,
      "chip": "ym2612"
    },
    {
      "channel": 5,
      "note": 103,
      "start": 1.0661,
      "duration": 0.4203,
      "velocity": 80,
      "chip": "ym2612"
    },
    {
      "channel": 3,
      "note": 95,
      "start": 1.1309,
      "duration": 0.1677,
      "velocity": 109,
      "chip": "ym2612"
    },
    {
      "channel": 4,
      "note": 86,
      "start": 1.1321,
      "duration": 0.1669,
      "velocity": 109,
      "chip": "ym2612"
    },
    {
      "channel": 1,
      "note": 52,
      "start": 1.2818,
      "duration": 0.3196,
      "velocity": 97,
      "chip": "ym2612"
    },
    {
      "channel": 0,
      "note": 90,
      "start": 1.4838,
      "duration": 0.1678,
      "velocity": 114,
      "chip": "ym2612"
    },
    {
      "channel": 2,
      "note": 86,
      "start": 1.4854,
      "duration": 0.1669,
      "velocity": 114,
      "chip": "ym2612"
    },
    {
      "channel": 5,
      "note": 103,
      "start": 1.4874,
      "duration": 0.4207,
      "velocity": 80,
      "chip": "ym2612"
    },
    {
      "channel": 3,
      "note": 90,
      "start": 1.5522,
      "duration": 0.1677,
      "velocity": 109,
      "chip": "ym2612"
    },
    {
      "channel": 4,
      "note": 86,
      "start": 1.5534,
      "duration": 0.1669,
      "velocity": 109,
      "chip": "ym2612"
    },
    {
      "channel": 1,
      "note": 50,
      "start": 1.7032,
      "duration": 0.3199,
      "velocity": 97,
      "chip": "ym2612"
    },
    {
      "channel": 0,
      "note": 93,
      "start": 1.9051,
      "duration": 0.1678,
      "velocity": 114,
      "chip": "ym2612"
    },
    {
      "channel": 2,
      "note": 86,
      "start": 1.9071,
      "duration": 0.1666,
      "velocity": 114,
      "chip": "ym2612"
    },
    {
      "channel": 5,
      "note": 103,
      "start": 1.9091,
      "duration": 0.42,
      "velocity": 80,
      "chip": "ym2612"
    },
    {
      "channel": 3,
      "note": 93,
      "start": 1.9739,
      "duration": 0.1674,
      "velocity": 109,
      "chip": "ym2612"
    },
    {
      "channel": 4,
      "note": 86,
      "start": 1.9751,
      "duration": 0.1665,
      "velocity": 109,
      "chip": "ym2612"
    },
    {
      "channel": 1,
      "note": 49,
      "start": 2.1245,
      "duration": 0.3195,
      "velocity": 97,
      "chip": "ym2612"
    },
    {
      "channel": 0,
      "note": 92,
      "start": 2.3265,
      "duration": 0.1678,
      "velocity": 114,
      "chip": "ym2612"
    },
    {
      "channel": 2,
      "note": 86,
      "start": 2.328,
      "duration": 0.1669,
      "velocity": 114,
      "chip": "ym2612"
    },
    {
      "channel": 5,
      "note": 103,
      "start": 2.3301,
      "duration": 0.4188,
      "velocity": 80,
      "chip": "ym2612"
    },
    {
      "channel": 3,
      "note": 92,
      "start": 2.3949,
      "duration": 0.1678,
      "velocity": 109,
      "chip": "ym2612"
    },
    {
      "channel": 4,
      "note": 86,
      "start": 2.3961,
      "duration": 0.1669,
      "velocity": 109,
      "chip": "ym2612"
    },
    {
      "channel": 0,
      "note": 92,
      "start": 2.5456,
      "duration": 0.1678,
      "velocity": 114,
      "chip": "ym2612"
    },
    {
      "channel": 1,
      "note": 47,
      "start": 2.5467,
      "duration": 0.3186,
      "velocity": 97,
      "chip": "ym2612"
    },
    {
      "channel": 2,
      "note": 86,
      "start": 2.5479,
      "duration": 0.1661,
      "velocity": 114,
      "chip": "ym2612"
    },
    {
      "channel": 3,
      "note": 92,
      "start": 2.614,
      "duration": 0.1677,
      "velocity": 109,
      "chip": "ym2612"
    },
    {
      "channel": 4,
      "note": 86,
      "start": 2.6152,
      "duration": 0.1669,
      "velocity": 109,
      "chip": "ym2612"
    },
    {
      "channel": 5,
      "note": 103,
      "start": 2.7498,
      "duration": 0.201,
      "velocity": 80,
      "chip": "ym2612"
    },
    {
      "channel": 1,
      "note": 54,
      "start": 2.9671,
      "duration": 0.3196,
      "velocity": 97,
      "chip": "ym2612"
    },
    {
      "channel": 5,
      "note": 103,
      "start": 2.9693,
      "duration": 0.2006,
      "velocity": 80,
      "chip": "ym2612"
    },
    {
      "channel": 5,
      "note": 103,
      "start": 3.1709,
      "duration": 0.4222,
      "velocity": 80,
      "chip": "ym2612"
    },
    {
      "channel": 0,
      "note": 85,
      "start": 3.3883,
      "duration": 0.0329,
      "velocity": 114,
      "chip": "ym2612"
    },
    {
      "channel": 1,
      "note": 52,
      "start": 3.3897,
      "duration": 0.3184,
      "velocity": 97,
      "chip": "ym2612"
    },
    {
      "channel": 2,
      "note": 77,
      "start": 3.3909,
      "duration": 0.031,
      "velocity": 114,
      "chip": "ym2612"
    },
    {
      "channel": 0,
      "note": 86,
      "start": 3.4389,
      "duration": 0.1173,
      "velocity": 114,
      "chip": "ym2612"
    },
    {
      "channel": 2,
      "note": 78,
      "start": 3.4408,
      "duration": 0.1161,
      "velocity": 114,
      "chip": "ym2612"
    },
    {
      "channel": 3,
      "note": 85,
      "start": 3.457,
      "duration": 0.0329,
      "velocity": 109,
      "chip": "ym2612"
    },
    {
      "channel": 4,
      "note": 77,
      "start": 3.4582,
      "duration": 0.0321,
      "velocity": 109,
      "chip": "ym2612"
    },
    {
      "channel": 3,
      "note": 86,
      "start": 3.5076,
      "duration": 0.1168,
      "velocity": 109,
      "chip": "ym2612"
    },
    {
      "channel": 4,
      "note": 78,
      "start": 3.5088,
      "duration": 0.116,
      "velocity": 109,
      "chip": "ym2612"
    },
    {
      "channel": 0,
      "note": 83,
      "start": 3.5905,
      "duration": 0.1678,
      "velocity": 114,
      "chip": "ym2612"
    },
    {
      "channel": 2,
      "note": 74,
      "start": 3.592,
      "duration": 0.1669,
      "velocity": 114,
      "chip": "ym2612"
    },
    {
      "channel": 5,
      "note": 103,
      "start": 3.5942,
      "duration": 0.4203,
      "velocity": 80,
      "chip": "ym2612"
    },
    {
      "channel": 3,
      "note": 83,
      "start": 3.6589,
      "duration": 0.1678,
      "velocity": 109,
      "chip": "ym2612"
    },
    {
      "channel": 4,
      "note": 74,
      "start": 3.6601,
      "duration": 0.167,
      "velocity": 109,
      "chip": "ym2612"
    },
    {
      "channel": 0,
      "note": 86,
      "start": 3.8096,
      "duration": 0.1678,
      "velocity": 114,
      "chip": "ym2612"
    },
    {
      "channel": 1,
      "note": 50,
      "start": 3.8107,
      "duration": 0.3187,
      "velocity": 97,
      "chip": "ym2612"
    },
    {
      "channel": 2,
      "note": 78,
      "start": 3.8119,
      "duration": 0.1662,
      "velocity": 114,
      "chip": "ym2612"
    },
    {
      "channel": 3,
      "note": 86,
      "start": 3.878,
      "duration": 0.1678,
      "velocity": 109,
      "chip": "ym2612"
    },
    {
      "channel": 4,
      "note": 78,
      "start": 3.8792,
      "duration": 0.167,
      "velocity": 109,
      "chip": "ym2612"
    },
    {
      "channel": 0,
      "note": 92,
      "start": 4.0118,
      "duration": 0.1678,
      "velocity": 114,
      "chip": "ym2612"
    },
    {
      "channel": 2,
      "note": 83,
      "start": 4.0134,
      "duration": 0.167,
      "velocity": 114,
      "chip": "ym2612"
    },
    {
      "channel": 5,
      "note": 103,
      "start": 4.0155,
      "duration": 0.4203,
      "velocity": 80,
      "chip": "ym2612"
    },
    {
      "channel": 3,
      "note": 92,
      "start": 4.0802,
      "duration": 0.1678,
      "velocity": 109,
      "chip": "ym2612"
    },
    {
      "channel": 4,
      "note": 83,
      "start": 4.0814,
      "duration": 0.1669,
      "velocity": 109,
      "chip": "ym2612"
    },
    {
      "channel": 1,
      "note": 49,
      "start": 4.2312,
      "duration": 0.3195,
      "velocity": 97,
      "chip": "ym2612"
    },
    {
      "channel": 0,
      "note": 93,
      "start": 4.4332,
      "duration": 0.1678,
      "velocity": 114,
      "chip": "ym2612"
    },
    {
      "channel": 2,
      "note": 85,
      "start": 4.4347,
      "duration": 0.1669,
      "velocity": 114,
      "chip": "ym2612"
    },
    {
      "channel": 5,
      "note": 103,
      "start": 4.4368,
      "duration": 0.4206,
      "velocity": 80,
      "chip": "ym2612"
    },
    {
      "channel": 3,
      "note": 93,
      "start": 4.5016,
      "duration": 0.1677,
      "velocity": 109,
      "chip": "ym2612"
    },
    {
      "channel": 4,
      "note": 85,
      "start": 4.5028,
      "duration": 0.1669,
      "velocity": 109,
      "chip": "ym2612"
    },
    {
      "channel": 1,
      "note": 47,
      "start": 4.6525,
      "duration": 0.3196,
      "velocity": 97,
      "chip": "ym2612"
    },
    {
      "channel": 0,
      "note": 88,
      "start": 4.8545,
      "duration": 0.1681,
      "velocity": 114,
      "chip": "ym2612"
    },
    {
      "channel": 2,
      "note": 83,
      "start": 4.8563,
      "duration": 0.167,
      "velocity": 114,
      "chip": "ym2612"
    },
    {
      "channel": 5,
      "note": 103,
      "start": 4.8585,
      "duration": 0.4201,
      "velocity": 80,
      "chip": "ym2612"
    },
    {
      "channel": 3,
      "note": 88,
      "start": 4.9233,
      "duration": 0.1674,
      "velocity": 109,
      "chip": "ym2612"
    },
    {
      "channel": 4,
      "note": 83,
      "start": 4.9245,
      "duration": 0.1666,
      "velocity": 109,
      "chip": "ym2612"
    },
    {
      "channel": 1,
      "note": 49,
      "start": 5.0739,
      "duration": 0.3363,
      "velocity": 97,
      "chip": "ym2612"
    },
    {
      "channel": 0,
      "note": 90,
      "start": 5.2759,
      "duration": 0.1678,
      "velocity": 114,
      "chip": "ym2612"
    },
    {
      "channel": 2,
      "note": 85,
      "start": 5.2775,
      "duration": 0.1668,
      "velocity": 114,
      "chip": "ym2612"
    },
    {
      "channel": 5,
      "note": 103,
      "start": 5.2796,
      "duration": 0.4202,
      "velocity": 80,
      "chip": "ym2612"
    },
    {
      "channel": 3,
      "note": 90,
      "start": 5.3611,
      "duration": 0.1509,
      "velocity": 109,
      "chip": "ym2612"
    },
    {
      "channel": 4,
      "note": 85,
      "start": 5.3624,
      "duration": 0.15,
      "velocity": 109,
      "chip": "ym2612"
    },
    {
      "channel": 0,
      "note": 90,
      "start": 5.495,
      "duration": 0.1678,
      "velocity": 114,
      "chip": "ym2612"
    },
    {
      "channel": 1,
      "note": 50,
      "start": 5.4961,
      "duration": 0.3355,
      "velocity": 97,
      "chip": "ym2612"
    },
    {
      "channel": 2,
      "note": 85,
      "start": 5.4973,
      "duration": 0.1661,
      "velocity": 114,
      "chip": "ym2612"
    },
    {
      "channel": 3,
      "note": 90,
      "start": 5.5634,
      "duration": 0.1677,
      "velocity": 109,
      "chip": "ym2612"
    },
    {
      "channel": 4,
      "note": 85,
      "start": 5.5646,
      "duration": 0.1669,
      "velocity": 109,
      "chip": "ym2612"
    },
    {
      "channel": 0,
      "note": 88,
      "start": 5.6972,
      "duration": 0.1678,
      "velocity": 114,
      "chip": "ym2612"
    },
    {
      "channel": 2,
      "note": 83,
      "start": 5.6987,
      "duration": 0.1669,
      "velocity": 114,
      "chip": "ym2612"
    },
    {
      "channel": 5,
      "note": 103,
      "start": 5.7008,
      "duration": 0.4187,
      "velocity": 80,
      "chip": "ym2612"
    },
    {
      "channel": 3,
      "note": 88,
      "start": 5.7824,
      "duration": 0.1678,
      "velocity": 109,
      "chip": "ym2612"
    },
    {
      "channel": 4,
      "note": 83,
      "start": 5.7836,
      "duration": 0.1669,
      "velocity": 109,
      "chip": "ym2612"
    },
    {
      "channel": 0,
      "note": 85,
      "start": 5.9163,
      "duration": 0.1677,
      "velocity": 114,
      "chip": "ym2612"
    },
    {
      "channel": 1,
      "note": 52,
      "start": 5.9173,
      "duration": 0.3356,
      "velocity": 97,
      "chip": "ym2612"
    },
    {
      "channel": 2,
      "note": 80,
      "start": 5.9186,
      "duration": 0.1662,
      "velocity": 114,
      "chip": "ym2612"
    },
    {
      "channel": 3,
      "note": 85,
      "start": 5.9846,
      "duration": 0.1678,
      "velocity": 109,
      "chip": "ym2612"
    },
    {
      "channel": 4,
      "note": 80,
      "start": 5.9859,
      "duration": 0.1669,
      "velocity": 109,
      "chip": "ym2612"
    },
    {
      "channel": 5,
      "note": 103,
      "start": 6.1205,
      "duration": 0.219,
      "velocity": 80,
      "chip": "ym2612"
    },
    {
      "channel": 1,
      "note": 49,
      "start": 6.3378,
      "duration": 0.3364,
      "velocity": 97,
      "chip": "ym2612"
    },
    {
      "channel": 5,
      "note": 103,
      "start": 6.3405,
      "duration": 0.2005,
      "velocity": 80,
      "chip": "ym2612"
    },
    {
      "channel": 5,
      "note": 103,
      "start": 6.5419,
      "duration": 0.422,
      "velocity": 80,
      "chip": "ym2612"
    },
    {
      "channel": 0,
      "note": 87,
      "start": 6.7591,
      "duration": 0.0328,
      "velocity": 114,
      "chip": "ym2612"
    },
    {
      "channel": 1,
      "note": 57,
      "start": 6.7603,
      "duration": 0.3353,
      "velocity": 97,
      "chip": "ym2612"
    },
    {
      "channel": 2,
      "note": 80,
      "start": 6.7616,
      "duration": 0.031,
      "velocity": 114,
      "chip": "ym2612"
    },
    {
      "channel": 0,
      "note": 88,
      "start": 6.8095,
      "duration": 0.1172,
      "velocity": 114,
      "chip": "ym2612"
    },
    {
      "channel": 2,
      "note": 81,
      "start": 6.8111,
      "duration": 0.1163,
      "velocity": 114,
      "chip": "ym2612"
    },
    {
      "channel": 3,
      "note": 87,
      "start": 6.8275,
      "duration": 0.0497,
      "velocity": 109,
      "chip": "ym2612"
    },
    {
      "channel": 4,
      "note": 80,
      "start": 6.8289,
      "duration": 0.0496,
      "velocity": 109,
      "chip": "ym2612"
    },
    {
      "channel": 3,
      "note": 88,
      "start": 6.878,
      "duration": 0.1339,
      "velocity": 109,
      "chip": "ym2612"
    },
    {
      "channel": 4,
      "note": 81,
      "start": 6.8793,
      "duration": 0.133,
      "velocity": 109,
      "chip": "ym2612"
    },
    {
      "channel": 0,
      "note": 85,
      "start": 6.9612,
      "duration": 0.1678,
      "velocity": 114,
      "chip": "ym2612"
    },
    {
      "channel": 2,
      "note": 76,
      "start": 6.9627,
      "duration": 0.1669,
      "velocity": 114,
      "chip": "ym2612"
    },
    {
      "channel": 5,
      "note": 103,
      "start": 6.9649,
      "duration": 0.4203,
      "velocity": 80,
      "chip": "ym2612"
    },
    {
      "channel": 3,
      "note": 85,
      "start": 7.0464,
      "duration": 0.1678,
      "velocity": 109,
      "chip": "ym2612"
    },
    {
      "channel": 4,
      "note": 76,
      "start": 7.0476,
      "duration": 0.167,
      "velocity": 109,
      "chip": "ym2612"
    },
    {
      "channel": 0,
      "note": 88,
      "start": 7.1803,
      "duration": 0.1678,
      "velocity": 114,
      "chip": "ym2612"
    },
    {
      "channel": 1,
      "note": 56,
      "start": 7.1814,
      "duration": 0.3355,
      "velocity": 97,
      "chip": "ym2612"
    },
    {
      "channel": 2,
      "note": 81,
      "start": 7.1826,
      "duration": 0.1661,
      "velocity": 114,
      "chip": "ym2612"
    },
    {
      "channel": 3,
      "note": 88,
      "start": 7.2487,
      "duration": 0.1678,
      "velocity": 109,
      "chip": "ym2612"
    },
    {
      "channel": 4,
      "note": 81,
      "start": 7.2499,
      "duration": 0.167,
      "velocity": 109,
      "chip": "ym2612"
    },
    {
      "channel": 0,
      "note": 93,
      "start": 7.3825,
      "duration": 0.1678,
      "velocity": 114,
      "chip": "ym2612"
    },
    {
      "channel": 2,
      "note": 85,
      "start": 7.3841,
      "duration": 0.1669,
      "velocity": 114,
      "chip": "ym2612"
    },
    {
      "channel": 5,
      "note": 103,
      "start": 7.3862,
      "duration": 0.4206,
      "velocity": 80,
      "chip": "ym2612"
    },
    {
      "channel": 3,
      "note": 93,
      "start": 7.4677,
      "duration": 0.1678,
      "velocity": 109,
      "chip": "ym2612"
    },
    {
      "channel": 4,
      "note": 85,
      "start": 7.4689,
      "duration": 0.1669,
      "velocity": 109,
      "chip": "ym2612"
    },
    {
      "channel": 1,
      "note": 54,
      "start": 7.6018,
      "duration": 0.3364,
      "velocity": 97,
      "chip": "ym2612"
    },
    {
      "channel": 0,
      "note": 95,
      "start": 7.8039,
      "duration": 0.1677,
      "velocity": 114,
      "chip": "ym2612"
    },
    {
      "channel": 2,
      "note": 86,
      "start": 7.8054,
      "duration": 0.1673,
      "velocity": 114,
      "chip": "ym2612"
    },
    {
      "channel": 5,
      "note": 103,
      "start": 7.8078,
      "duration": 0.4181,
      "velocity": 80,
      "chip": "ym2612"
    },
    {
      "channel": 3,
      "note": 95,
      "start": 7.8895,
      "duration": 0.1676,
      "velocity": 109,
      "chip": "ym2612"
    },
    {
      "channel": 4,
      "note": 86,
      "start": 7.8906,
      "duration": 0.1668,
      "velocity": 109,
      "chip": "ym2612"
    },
    {
      "channel": 1,
      "note": 52,
      "start": 8.0235,
      "duration": 0.3361,
      "velocity": 97,
      "chip": "ym2612"
    },
    {
      "channel": 0,
      "note": 90,
      "start": 8.242,
      "duration": 0.1678,
      "velocity": 114,
      "chip": "ym2612"
    },
    {
      "channel": 2,
      "note": 86,
      "start": 8.2436,
      "duration": 0.1669,
      "velocity": 114,
      "chip": "ym2612"
    },
    {
      "channel": 5,
      "note": 103,
      "start": 8.2456,
      "duration": 0.4017,
      "velocity": 80,
      "chip": "ym2612"
    },
    {
      "channel": 3,
      "note": 90,
      "start": 8.3104,
      "duration": 0.1677,
      "velocity": 109,
      "chip": "ym2612"
    },
    {
      "channel": 4,
      "note": 86,
      "start": 8.3116,
      "duration": 0.1669,
      "velocity": 109,
      "chip": "ym2612"
    },
    {
      "channel": 1,
      "note": 50,
      "start": 8.4445,
      "duration": 0.3364,
      "velocity": 97,
      "chip": "ym2612"
    },
    {
      "channel": 0,
      "note": 93,
      "start": 8.6634,
      "duration": 0.1678,
      "velocity": 114,
      "chip": "ym2612"
    },
    {
      "channel": 2,
      "note": 86,
      "start": 8.6649,
      "duration": 0.167,
      "velocity": 114,
      "chip": "ym2612"
    },
    {
      "channel": 5,
      "note": 103,
      "start": 8.6669,
      "duration": 0.4017,
      "velocity": 80,
      "chip": "ym2612"
    },
    {
      "channel": 3,
      "note": 93,
      "start": 8.7318,
      "duration": 0.1678,
      "velocity": 109,
      "chip": "ym2612"
    },
    {
      "channel": 4,
      "note": 86,
      "start": 8.733,
      "duration": 0.1669,
      "velocity": 109,
      "chip": "ym2612"
    },
    {
      "channel": 1,
      "note": 49,
      "start": 8.8658,
      "duration": 0.3364,
      "velocity": 97,
      "chip": "ym2612"
    },
    {
      "channel": 0,
      "note": 92,
      "start": 9.0847,
      "duration": 0.1678,
      "velocity": 114,
      "chip": "ym2612"
    },
    {
      "channel": 2,
      "note": 86,
      "start": 9.0862,
      "duration": 0.1669,
      "velocity": 114,
      "chip": "ym2612"
    },
    {
      "channel": 5,
      "note": 103,
      "start": 9.0882,
      "duration": 0.4022,
      "velocity": 80,
      "chip": "ym2612"
    },
    {
      "channel": 3,
      "note": 92,
      "start": 9.1531,
      "duration": 0.1678,
      "velocity": 109,
      "chip": "ym2612"
    },
    {
      "channel": 4,
      "note": 86,
      "start": 9.1543,
      "duration": 0.167,
      "velocity": 109,
      "chip": "ym2612"
    },
    {
      "channel": 0,
      "note": 92,
      "start": 9.2869,
      "duration": 0.1678,
      "velocity": 114,
      "chip": "ym2612"
    },
    {
      "channel": 1,
      "note": 47,
      "start": 9.2881,
      "duration": 0.3355,
      "velocity": 97,
      "chip": "ym2612"
    },
    {
      "channel": 2,
      "note": 86,
      "start": 9.2896,
      "duration": 0.1659,
      "velocity": 114,
      "chip": "ym2612"
    },
    {
      "channel": 3,
      "note": 92,
      "start": 9.3553,
      "duration": 0.1681,
      "velocity": 109,
      "chip": "ym2612"
    },
    {
      "channel": 4,
      "note": 86,
      "start": 9.3569,
      "duration": 0.1669,
      "velocity": 109,
      "chip": "ym2612"
    },
    {
      "channel": 5,
      "note": 103,
      "start": 9.5083,
      "duration": 0.2015,
      "velocity": 80,
      "chip": "ym2612"
    },
    {
      "channel": 1,
      "note": 54,
      "start": 9.7085,
      "duration": 0.3364,
      "velocity": 97,
      "chip": "ym2612"
    },
    {
      "channel": 5,
      "note": 103,
      "start": 9.7107,
      "duration": 0.2006,
      "velocity": 80,
      "chip": "ym2612"
    },
    {
      "channel": 5,
      "note": 103,
      "start": 9.929,
      "duration": 0.4037,
      "velocity": 80,
      "chip": "ym2612"
    },
    {
      "channel": 0,
      "note": 85,
      "start": 10.1296,
      "duration": 0.0498,
      "velocity": 114,
      "chip": "ym2612"
    },
    {
      "channel": 1,
      "note": 52,
      "start": 10.1307,
      "duration": 0.3356,
      "velocity": 97,
      "chip": "ym2612"
    },
    {
      "channel": 2,
      "note": 77,
      "start": 10.1319,
      "duration": 0.0492,
      "velocity": 114,
      "chip": "ym2612"
    },
    {
      "channel": 0,
      "note": 86,
      "start": 10.1803,
      "duration": 0.1339,
      "velocity": 114,
      "chip": "ym2612"
    },
    {
      "channel": 2,
      "note": 78,
      "start": 10.182,
      "duration": 0.133,
      "velocity": 114,
      "chip": "ym2612"
    },
    {
      "channel": 3,
      "note": 85,
      "start": 10.198,
      "duration": 0.0498,
      "velocity": 109,
      "chip": "ym2612"
    },
    {
      "channel": 4,
      "note": 77,
      "start": 10.1992,
      "duration": 0.0499,
      "velocity": 109,
      "chip": "ym2612"
    },
    {
      "channel": 3,
      "note": 86,
      "start": 10.2487,
      "duration": 0.134,
      "velocity": 109,
      "chip": "ym2612"
    },
    {
      "channel": 4,
      "note": 78,
      "start": 10.25,
      "duration": 0.133,
      "velocity": 109,
      "chip": "ym2612"
    },
    {
      "channel": 0,
      "note": 83,
      "start": 10.3487,
      "duration": 0.1678,
      "velocity": 114,
      "chip": "ym2612"
    },
    {
      "channel": 2,
      "note": 74,
      "start": 10.3502,
      "duration": 0.167,
      "velocity": 114,
      "chip": "ym2612"
    },
    {
      "channel": 5,
      "note": 103,
      "start": 10.3523,
      "duration": 0.4017,
      "velocity": 80,
      "chip": "ym2612"
    },
    {
      "channel": 3,
      "note": 83,
      "start": 10.4171,
      "duration": 0.1678,
      "velocity": 109,
      "chip": "ym2612"
    },
    {
      "channel": 4,
      "note": 74,
      "start": 10.4183,
      "duration": 0.167,
      "velocity": 109,
      "chip": "ym2612"
    },
    {
      "channel": 0,
      "note": 86,
      "start": 10.551,
      "duration": 0.1678,
      "velocity": 114,
      "chip": "ym2612"
    },
    {
      "channel": 1,
      "note": 50,
      "start": 10.5521,
      "duration": 0.3356,
      "velocity": 97,
      "chip": "ym2612"
    },
    {
      "channel": 2,
      "note": 78,
      "start": 10.5533,
      "duration": 0.1662,
      "velocity": 114,
      "chip": "ym2612"
    },
    {
      "channel": 3,
      "note": 86,
      "start": 10.6194,
      "duration": 0.1678,
      "velocity": 109,
      "chip": "ym2612"
    },
    {
      "channel": 4,
      "note": 78,
      "start": 10.6206,
      "duration": 0.1669,
      "velocity": 109,
      "chip": "ym2612"
    },
    {
      "channel": 0,
      "note": 92,
      "start": 10.77,
      "duration": 0.1678,
      "velocity": 114,
      "chip": "ym2612"
    },
    {
      "channel": 2,
      "note": 83,
      "start": 10.7716,
      "duration": 0.1669,
      "velocity": 114,
      "chip": "ym2612"
    },
    {
      "channel": 5,
      "note": 103,
      "start": 10.774,
      "duration": 0.4013,
      "velocity": 80,
      "chip": "ym2612"
    },
    {
      "channel": 3,
      "note": 92,
      "start": 10.8385,
      "duration": 0.168,
      "velocity": 109,
      "chip": "ym2612"
    },
    {
      "channel": 4,
      "note": 83,
      "start": 10.84,
      "duration": 0.1669,
      "velocity": 109,
      "chip": "ym2612"
    },
    {
      "channel": 1,
      "note": 49,
      "start": 10.9729,
      "duration": 0.3361,
      "velocity": 97,
      "chip": "ym2612"
    },
    {
      "channel": 0,
      "note": 93,
      "start": 11.1914,
      "duration": 0.1677,
      "velocity": 114,
      "chip": "ym2612"
    },
    {
      "channel": 2,
      "note": 85,
      "start": 11.1929,
      "duration": 0.1669,
      "velocity": 114,
      "chip": "ym2612"
    },
    {
      "channel": 5,
      "note": 103,
      "start": 11.1949,
      "duration": 0.4018,
      "velocity": 80,
      "chip": "ym2612"
    },
    {
      "channel": 3,
      "note": 93,
      "start": 11.2598,
      "duration": 0.1678,
      "velocity": 109,
      "chip": "ym2612"
    },
    {
      "channel": 4,
      "note": 85,
      "start": 11.261,
      "duration": 0.1669,
      "velocity": 109,
      "chip": "ym2612"
    },
    {
      "channel": 1,
      "note": 47,
      "start": 11.3939,
      "duration": 0.3364,
      "velocity": 97,
      "chip": "ym2612"
    },
    {
      "channel": 0,
      "note": 88,
      "start": 11.6127,
      "duration": 0.1678,
      "velocity": 114,
      "chip": "ym2612"
    },
    {
      "channel": 2,
      "note": 83,
      "start": 11.6142,
      "duration": 0.167,
      "velocity": 114,
      "chip": "ym2612"
    },
    {
      "channel": 5,
      "note": 103,
      "start": 11.6163,
      "duration": 0.4017,
      "velocity": 80,
      "chip": "ym2612"
    },
    {
      "channel": 3,
      "note": 88,
      "start": 11.6812,
      "duration": 0.1677,
      "velocity": 109,
      "chip": "ym2612"
    },
    {
      "channel": 4,
      "note": 83,
      "start": 11.6823,
      "duration": 0.1669,
      "velocity": 109,
      "chip": "ym2612"
    },
    {
      "channel": 1,
      "note": 49,
      "start": 11.8152,
      "duration": 0.3364,
      "velocity": 97,
      "chip": "ym2612"
    },
    {
      "channel": 0,
      "note": 93,
      "start": 12.0342,
      "duration": 0.1676,
      "velocity": 114,
      "chip": "ym2612"
    },
    {
      "channel": 2,
      "note": 90,
      "start": 12.0358,
      "duration": 0.1667,
      "velocity": 114,
      "chip": "ym2612"
    },
    {
      "channel": 5,
      "note": 103,
      "start": 12.0378,
      "duration": 0.4019,
      "velocity": 80,
      "chip": "ym2612"
    },
    {
      "channel": 3,
      "note": 93,
      "start": 12.1026,
      "duration": 0.1677,
      "velocity": 109,
      "chip": "ym2612"
    },
    {
      "channel": 4,
      "note": 90,
      "start": 12.1039,
      "duration": 0.1668,
      "velocity": 109,
      "chip": "ym2612"
    },
    {
      "channel": 0,
      "note": 95,
      "start": 12.2363,
      "duration": 0.1678,
      "velocity": 114,
      "chip": "ym2612"
    },
    {
      "channel": 1,
      "note": 50,
      "start": 12.2374,
      "duration": 0.3358,
      "velocity": 97,
      "chip": "ym2612"
    },
    {
      "channel": 2,
      "note": 92,
      "start": 12.2386,
      "duration": 0.1662,
      "velocity": 114,
      "chip": "ym2612"
    },
    {
      "channel": 3,
      "note": 95,
      "start": 12.3047,
      "duration": 0.1681,
      "velocity": 109,
      "chip": "ym2612"
    },
    {
      "channel": 4,
      "note": 92,
      "start": 12.3063,
      "duration": 0.1669,
      "velocity": 109,
      "chip": "ym2612"
    },
    {
      "channel": 5,
      "note": 103,
      "start": 12.4576,
      "duration": 0.4202,
      "velocity": 80,
      "chip": "ym2612"
    },
    {
      "channel": 0,
      "note": 97,
      "start": 12.6576,
      "duration": 0.1678,
      "velocity": 114,
      "chip": "ym2612"
    },
    {
      "channel": 1,
      "note": 52,
      "start": 12.6588,
      "duration": 0.3355,
      "velocity": 97,
      "chip": "ym2612"
    },
    {
      "channel": 2,
      "note": 93,
      "start": 12.66,
      "duration": 0.1661,
      "velocity": 114,
      "chip": "ym2612"
    },
    {
      "channel": 3,
      "note": 97,
      "start": 12.7261,
      "duration": 0.1677,
      "velocity": 109,
      "chip": "ym2612"
    },
    {
      "channel": 4,
      "note": 93,
      "start": 12.7273,
      "duration": 0.1668,
      "velocity": 109,
      "chip": "ym2612"
    },
    {
      "channel": 5,
      "note": 103,
      "start": 12.8787,
      "duration": 0.2019,
      "velocity": 80,
      "chip": "ym2612"
    },
    {
      "channel": 1,
      "note": 49,
      "start": 13.0792,
      "duration": 0.3364,
      "velocity": 97,
      "chip": "ym2612"
    },
    {
      "channel": 5,
      "note": 103,
      "start": 13.0815,
      "duration": 0.2174,
      "velocity": 80,
      "chip": "ym2612"
    },
    {
      "channel": 5,
      "note": 103,
      "start": 13.2998,
      "duration": 0.4223,
      "velocity": 80,
      "chip": "ym2612"
    },
    {
      "channel": 0,
      "note": 87,
      "start": 13.5005,
      "duration": 0.0496,
      "velocity": 114,
      "chip": "ym2612"
    },
    {
      "channel": 1,
      "note": 57,
      "start": 13.5017,
      "duration": 0.3352,
      "velocity": 97,
      "chip": "ym2612"
    },
    {
      "channel": 2,
      "note": 80,
      "start": 13.5031,
      "duration": 0.0487,
      "velocity": 114,
      "chip": "ym2612"
    },
    {
      "channel": 0,
      "note": 88,
      "start": 13.551,
      "duration": 0.134,
      "velocity": 114,
      "chip": "ym2612"
    },
    {
      "channel": 2,
      "note": 81,
      "start": 13.5527,
      "duration": 0.133,
      "velocity": 114,
      "chip": "ym2612"
    },
    {
      "channel": 3,
      "note": 87,
      "start": 13.5857,
      "duration": 0.0328,
      "velocity": 109,
      "chip": "ym2612"
    },
    {
      "channel": 4,
      "note": 80,
      "start": 13.5871,
      "duration": 0.0319,
      "velocity": 109,
      "chip": "ym2612"
    },
    {
      "channel": 3,
      "note": 88,
      "start": 13.6362,
      "duration": 0.1172,
      "velocity": 109,
      "chip": "ym2612"
    },
    {
      "channel": 4,
      "note": 81,
      "start": 13.6374,
      "duration": 0.1163,
      "velocity": 109,
      "chip": "ym2612"
    },
    {
      "channel": 0,
      "note": 85,
      "start": 13.7194,
      "duration": 0.1678,
      "velocity": 114,
      "chip": "ym2612"
    },
    {
      "channel": 2,
      "note": 76,
      "start": 13.7209,
      "duration": 0.167,
      "velocity": 114,
      "chip": "ym2612"
    },
    {
      "channel": 5,
      "note": 103,
      "start": 13.7235,
      "duration": 0.1914,
      "velocity": 80,
      "chip": "ym2612"
    },
    {
      "channel": 3,
      "note": 85,
      "start": 13.7878,
      "duration": 0.127,
      "velocity": 109,
      "chip": "ym2612"
    },
    {
      "channel": 4,
      "note": 76,
      "start": 13.7894,
      "duration": 0.1255,
      "velocity": 109,
      "chip": "ym2612"
    }
  ]
}