{
  "track_name": "12 - Whirlwind",
  "duration_sec": 56.442,
  "sample_rate": 44100,
  "note_count": 532,
  "unique_pitches": 27,
  "pitch_range": 45,
  "avg_note_duration": 0.4458,
  "reconstruction_stats": {
    "notes_reconstructed": 532,
    "keyon_events": 532,
    "keyoff_events": 527,
    "orphan_keyons": 4,
    "unique_pitches": 27,
    "pitch_range": 45,
    "avg_duration_sec": 0.4458
  },
  "metadata": {
    "source": "S\\Shinobi III\\12 - Whirlwind.vgz"
  },
  "notes": [
    {
      "channel": 1,
      "note": 76,
      "start": 0.2221,
      "duration": 2.2127,
      "velocity": 106,
      "chip": "ym2612"
    },
    {
      "channel": 2,
      "note": 57,
      "start": 0.2233,
      "duration": 2.2116,
      "velocity": 106,
      "chip": "ym2612"
    },
    {
      "channel": 3,
      "note": 72,
      "start": 0.2241,
      "duration": 2.2111,
      "velocity": 106,
      "chip": "ym2612"
    },
    {
      "channel": 4,
      "note": 69,
      "start": 0.2249,
      "duration": 2.2105,
      "velocity": 106,
      "chip": "ym2612"
    },
    {
      "channel": 1,
      "note": 72,
      "start": 2.4349,
      "duration": 1.107,
      "velocity": 106,
      "chip": "ym2612"
    },
    {
      "channel": 2,
      "note": 57,
      "start": 2.4351,
      "duration": 1.1069,
      "velocity": 106,
      "chip": "ym2612"
    },
    {
      "channel": 3,
      "note": 69,
      "start": 2.4354,
      "duration": 1.1069,
      "velocity": 106,
      "chip": "ym2612"
    },
    {
      "channel": 4,
      "note": 65,
      "start": 2.4356,
      "duration": 1.1069,
      "velocity": 106,
      "chip": "ym2612"
    },
    {
      "channel": 1,
      "note": 71,
      "start": 3.542,
      "duration": 1.1071,
      "velocity": 106,
      "chip": "ym2612"
    },
    {
      "channel": 2,
      "note": 57,
      "start": 3.5422,
      "duration": 1.1071,
      "velocity": 106,
      "chip": "ym2612"
    },
    {
      "channel": 3,
      "note": 67,
      "start": 3.5424,
      "duration": 1.107,
      "velocity": 106,
      "chip": "ym2612"
    },
    {
      "channel": 4,
      "note": 62,
      "start": 3.5427,
      "duration": 1.107,
      "velocity": 106,
      "chip": "ym2612"
    },
    {
      "channel": 0,
      "note": 45,
      "start": 4.6126,
      "duration": 0.0362,
      "velocity": 95,
      "chip": "ym2612"
    },
    {
      "channel": 0,
      "note": 45,
      "start": 4.649,
      "duration": 3.3213,
      "velocity": 95,
      "chip": "ym2612"
    },
    {
      "channel": 1,
      "note": 76,
      "start": 4.6492,
      "duration": 2.2139,
      "velocity": 106,
      "chip": "ym2612"
    },
    {
      "channel": 2,
      "note": 57,
      "start": 4.6494,
      "duration": 2.2139,
      "velocity": 106,
      "chip": "ym2612"
    },
    {
      "channel": 3,
      "note": 72,
      "start": 4.6496,
      "duration": 2.214,
      "velocity": 106,
      "chip": "ym2612"
    },
    {
      "channel": 4,
      "note": 69,
      "start": 4.6498,
      "duration": 2.214,
      "velocity": 106,
      "chip": "ym2612"
    },
    {
      "channel": 1,
      "note": 72,
      "start": 6.8633,
      "duration": 1.1071,
      "velocity": 106,
      "chip": "ym2612"
    },
    {
      "channel": 2,
      "note": 57,
      "start": 6.8635,
      "duration": 1.1071,
      "velocity": 106,
      "chip": "ym2612"
    },
    {
      "channel": 3,
      "note": 69,
      "start": 6.8637,
      "duration": 1.1071,
      "velocity": 106,
      "chip": "ym2612"
    },
    {
      "channel": 4,
      "note": 65,
      "start": 6.864,
      "duration": 1.1071,
      "velocity": 106,
      "chip": "ym2612"
    },
    {
      "channel": 1,
      "note": 79,
      "start": 7.9706,
      "duration": 1.1069,
      "velocity": 106,
      "chip": "ym2612"
    },
    {
      "channel": 2,
      "note": 57,
      "start": 7.9708,
      "duration": 1.1076,
      "velocity": 106,
      "chip": "ym2612"
    },
    {
      "channel": 3,
      "note": 74,
      "start": 7.971,
      "duration": 1.1084,
      "velocity": 106,
      "chip": "ym2612"
    },
    {
      "channel": 4,
      "note": 71,
      "start": 7.9712,
      "duration": 1.1093,
      "velocity": 106,
      "chip": "ym2612"
    },
    {
      "channel": 0,
      "note": 43,
      "start": 9.0775,
      "duration": 0.0184,
      "velocity": 95,
      "chip": "ym2612"
    },
    {
      "channel": 2,
      "note": 76,
      "start": 9.0785,
      "duration": 0.0179,
      "velocity": 106,
      "chip": "ym2612"
    },
    {
      "channel": 3,
      "note": 72,
      "start": 9.0795,
      "duration": 1.0108,
      "velocity": 106,
      "chip": "ym2612"
    },
    {
      "channel": 4,
      "note": 57,
      "start": 9.0807,
      "duration": 1.0098,
      "velocity": 106,
      "chip": "ym2612"
    },
    {
      "channel": 0,
      "note": 45,
      "start": 9.0961,
      "duration": 0.1834,
      "velocity": 95,
      "chip": "ym2612"
    },
    {
      "channel": 2,
      "note": 76,
      "start": 9.0964,
      "duration": 0.9937,
      "velocity": 106,
      "chip": "ym2612"
    },
    {
      "channel": 0,
      "note": 43,
      "start": 9.4888,
      "duration": 0.2029,
      "velocity": 95,
      "chip": "ym2612"
    },
    {
      "channel": 0,
      "note": 45,
      "start": 9.692,
      "duration": 0.1834,
      "velocity": 95,
      "chip": "ym2612"
    },
    {
      "channel": 0,
      "note": 45,
      "start": 9.8755,
      "duration": 0.0022,
      "velocity": 95,
      "chip": "ym2612"
    },
    {
      "channel": 0,
      "note": 48,
      "start": 10.09,
      "duration": 0.0219,
      "velocity": 95,
      "chip": "ym2612"
    },
    {
      "channel": 2,
      "note": 72,
      "start": 10.0902,
      "duration": 0.415,
      "velocity": 106,
      "chip": "ym2612"
    },
    {
      "channel": 3,
      "note": 69,
      "start": 10.0904,
      "duration": 0.4151,
      "velocity": 106,
      "chip": "ym2612"
    },
    {
      "channel": 4,
      "note": 65,
      "start": 10.0907,
      "duration": 0.4151,
      "velocity": 106,
      "chip": "ym2612"
    },
    {
      "channel": 0,
      "note": 50,
      "start": 10.1121,
      "duration": 0.1834,
      "velocity": 95,
      "chip": "ym2612"
    },
    {
      "channel": 0,
      "note": 50,
      "start": 10.2961,
      "duration": 0.0036,
      "velocity": 95,
      "chip": "ym2612"
    },
    {
      "channel": 0,
      "note": 50,
      "start": 10.3186,
      "duration": 0.1834,
      "velocity": 95,
      "chip": "ym2612"
    },
    {
      "channel": 0,
      "note": 43,
      "start": 10.5051,
      "duration": 0.0221,
      "velocity": 95,
      "chip": "ym2612"
    },
    {
      "channel": 2,
      "note": 71,
      "start": 10.5054,
      "duration": 0.2073,
      "velocity": 106,
      "chip": "ym2612"
    },
    {
      "channel": 3,
      "note": 67,
      "start": 10.5057,
      "duration": 0.2072,
      "velocity": 106,
      "chip": "ym2612"
    },
    {
      "channel": 4,
      "note": 62,
      "start": 10.5059,
      "duration": 0.2071,
      "velocity": 106,
      "chip": "ym2612"
    },
    {
      "channel": 0,
      "note": 43,
      "start": 10.5274,
      "duration": 0.1834,
      "velocity": 95,
      "chip": "ym2612"
    },
    {
      "channel": 0,
      "note": 48,
      "start": 10.7127,
      "duration": 0.0354,
      "velocity": 95,
      "chip": "ym2612"
    },
    {
      "channel": 2,
      "note": 72,
      "start": 10.7129,
      "duration": 0.0354,
      "velocity": 106,
      "chip": "ym2612"
    },
    {
      "channel": 3,
      "note": 67,
      "start": 10.713,
      "duration": 0.0354,
      "velocity": 106,
      "chip": "ym2612"
    },
    {
      "channel": 4,
      "note": 62,
      "start": 10.7131,
      "duration": 0.0355,
      "velocity": 106,
      "chip": "ym2612"
    },
    {
      "channel": 0,
      "note": 47,
      "start": 10.9152,
      "duration": 0.0353,
      "velocity": 95,
      "chip": "ym2612"
    },
    {
      "channel": 2,
      "note": 71,
      "start": 10.9154,
      "duration": 0.037,
      "velocity": 106,
      "chip": "ym2612"
    },
    {
      "channel": 3,
      "note": 67,
      "start": 10.9154,
      "duration": 0.0372,
      "velocity": 106,
      "chip": "ym2612"
    },
    {
      "channel": 4,
      "note": 59,
      "start": 10.9155,
      "duration": 0.0372,
      "velocity": 106,
      "chip": "ym2612"
    },
    {
      "channel": 0,
      "note": 43,
      "start": 10.9522,
      "duration": 0.022,
      "velocity": 95,
      "chip": "ym2612"
    },
    {
      "channel": 2,
      "note": 76,
      "start": 10.9525,
      "duration": 1.0162,
      "velocity": 106,
      "chip": "ym2612"
    },
    {
      "channel": 3,
      "note": 72,
      "start": 10.9527,
      "duration": 1.0162,
      "velocity": 106,
      "chip": "ym2612"
    },
    {
      "channel": 4,
      "note": 57,
      "start": 10.953,
      "duration": 1.0161,
      "velocity": 106,
      "chip": "ym2612"
    },
    {
      "channel": 0,
      "note": 45,
      "start": 10.9744,
      "duration": 0.1834,
      "velocity": 95,
      "chip": "ym2612"
    },
    {
      "channel": 0,
      "note": 45,
      "start": 11.158,
      "duration": 0.0005,
      "velocity": 95,
      "chip": "ym2612"
    },
    {
      "channel": 0,
      "note": 43,
      "start": 11.3678,
      "duration": 0.203,
      "velocity": 95,
      "chip": "ym2612"
    },
    {
      "channel": 0,
      "note": 45,
      "start": 11.571,
      "duration": 0.1834,
      "velocity": 95,
      "chip": "ym2612"
    },
    {
      "channel": 0,
      "note": 45,
      "start": 11.7545,
      "duration": 0.0027,
      "velocity": 95,
      "chip": "ym2612"
    },
    {
      "channel": 0,
      "note": 48,
      "start": 11.9686,
      "duration": 0.0219,
      "velocity": 95,
      "chip": "ym2612"
    },
    {
      "channel": 2,
      "note": 72,
      "start": 11.9689,
      "duration": 0.415,
      "velocity": 106,
      "chip": "ym2612"
    },
    {
      "channel": 3,
      "note": 69,
      "start": 11.969,
      "duration": 0.4151,
      "velocity": 106,
      "chip": "ym2612"
    },
    {
      "channel": 4,
      "note": 65,
      "start": 11.9693,
      "duration": 0.4152,
      "velocity": 106,
      "chip": "ym2612"
    },
    {
      "channel": 0,
      "note": 50,
      "start": 11.9908,
      "duration": 0.1834,
      "velocity": 95,
      "chip": "ym2612"
    },
    {
      "channel": 0,
      "note": 50,
      "start": 12.1749,
      "duration": 0.0036,
      "velocity": 95,
      "chip": "ym2612"
    },
    {
      "channel": 0,
      "note": 50,
      "start": 12.1974,
      "duration": 0.1834,
      "velocity": 95,
      "chip": "ym2612"
    },
    {
      "channel": 0,
      "note": 47,
      "start": 12.3838,
      "duration": 0.0221,
      "velocity": 95,
      "chip": "ym2612"
    },
    {
      "channel": 2,
      "note": 71,
      "start": 12.3841,
      "duration": 0.0222,
      "velocity": 106,
      "chip": "ym2612"
    },
    {
      "channel": 3,
      "note": 67,
      "start": 12.3844,
      "duration": 0.0222,
      "velocity": 106,
      "chip": "ym2612"
    },
    {
      "channel": 4,
      "note": 62,
      "start": 12.3846,
      "duration": 0.0222,
      "velocity": 106,
      "chip": "ym2612"
    },
    {
      "channel": 0,
      "note": 47,
      "start": 12.4061,
      "duration": 0.1834,
      "velocity": 95,
      "chip": "ym2612"
    },
    {
      "channel": 2,
      "note": 71,
      "start": 12.4065,
      "duration": 0.1832,
      "velocity": 106,
      "chip": "ym2612"
    },
    {
      "channel": 3,
      "note": 67,
      "start": 12.4068,
      "duration": 0.183,
      "velocity": 106,
      "chip": "ym2612"
    },
    {
      "channel": 4,
      "note": 62,
      "start": 12.4071,
      "duration": 0.1828,
      "velocity": 106,
      "chip": "ym2612"
    },
    {
      "channel": 0,
      "note": 48,
      "start": 12.6106,
      "duration": 0.001,
      "velocity": 95,
      "chip": "ym2612"
    },
    {
      "channel": 2,
      "note": 72,
      "start": 12.6107,
      "duration": 0.0009,
      "velocity": 106,
      "chip": "ym2612"
    },
    {
      "channel": 3,
      "note": 67,
      "start": 12.6109,
      "duration": 0.0008,
      "velocity": 106,
      "chip": "ym2612"
    },
    {
      "channel": 4,
      "note": 62,
      "start": 12.6109,
      "duration": 0.001,
      "velocity": 106,
      "chip": "ym2612"
    },
    {
      "channel": 0,
      "note": 47,
      "start": 12.6125,
      "duration": 0.0012,
      "velocity": 95,
      "chip": "ym2612"
    },
    {
      "channel": 2,
      "note": 71,
      "start": 12.6129,
      "duration": 0.0055,
      "velocity": 106,
      "chip": "ym2612"
    },
    {
      "channel": 3,
      "note": 67,
      "start": 12.613,
      "duration": 0.0056,
      "velocity": 106,
      "chip": "ym2612"
    },
    {
      "channel": 4,
      "note": 59,
      "start": 12.6132,
      "duration": 0.0057,
      "velocity": 106,
      "chip": "ym2612"
    },
    {
      "channel": 0,
      "note": 57,
      "start": 12.6169,
      "duration": 0.0203,
      "velocity": 95,
      "chip": "ym2612"
    },
    {
      "channel": 1,
      "note": 78,
      "start": 12.6183,
      "duration": 0.0008,
      "velocity": 101,
      "chip": "ym2612"
    },
    {
      "channel": 2,
      "note": 64,
      "start": 12.6185,
      "duration": 0.0026,
      "velocity": 104,
      "chip": "ym2612"
    },
    {
      "channel": 3,
      "note": 60,
      "start": 12.6188,
      "duration": 0.0034,
      "velocity": 104,
      "chip": "ym2612"
    },
    {
      "channel": 4,
      "note": 57,
      "start": 12.619,
      "duration": 0.0039,
      "velocity": 104,
      "chip": "ym2612"
    },
    {
      "channel": 1,
      "note": 79,
      "start": 12.6193,
      "duration": 0.0002,
      "velocity": 101,
      "chip": "ym2612"
    },
    {
      "channel": 1,
      "note": 80,
      "start": 12.6198,
      "duration": 0.2026,
      "velocity": 101,
      "chip": "ym2612"
    },
    {
      "channel": 2,
      "note": 64,
      "start": 12.6212,
      "duration": 0.1998,
      "velocity": 104,
      "chip": "ym2612"
    },
    {
      "channel": 3,
      "note": 60,
      "start": 12.6223,
      "duration": 0.0155,
      "velocity": 104,
      "chip": "ym2612"
    },
    {
      "channel": 4,
      "note": 57,
      "start": 12.623,
      "duration": 0.1983,
      "velocity": 104,
      "chip": "ym2612"
    },
    {
      "channel": 0,
      "note": 57,
      "start": 12.6375,
      "duration": 0.1834,
      "velocity": 95,
      "chip": "ym2612"
    },
    {
      "channel": 3,
      "note": 60,
      "start": 12.6381,
      "duration": 0.1832,
      "velocity": 104,
      "chip": "ym2612"
    },
    {
      "channel": 0,
      "note": 57,
      "start": 12.821,
      "duration": 0.0012,
      "velocity": 95,
      "chip": "ym2612"
    },
    {
      "channel": 2,
      "note": 64,
      "start": 12.8212,
      "duration": 0.0014,
      "velocity": 104,
      "chip": "ym2612"
    },
    {
      "channel": 3,
      "note": 60,
      "start": 12.8213,
      "duration": 0.0014,
      "velocity": 104,
      "chip": "ym2612"
    },
    {
      "channel": 4,
      "note": 57,
      "start": 12.8215,
      "duration": 0.0014,
      "velocity": 104,
      "chip": "ym2612"
    },
    {
      "channel": 0,
      "note": 57,
      "start": 12.8222,
      "duration": 0.0028,
      "velocity": 95,
      "chip": "ym2612"
    },
    {
      "channel": 1,
      "note": 76,
      "start": 12.8225,
      "duration": 0.599,
      "velocity": 101,
      "chip": "ym2612"
    },
    {
      "channel": 2,
      "note": 64,
      "start": 12.8227,
      "duration": 0.0213,
      "velocity": 104,
      "chip": "ym2612"
    },
    {
      "channel": 3,
      "note": 60,
      "start": 12.8227,
      "duration": 0.0215,
      "velocity": 104,
      "chip": "ym2612"
    },
    {
      "channel": 4,
      "note": 57,
      "start": 12.8229,
      "duration": 0.0216,
      "velocity": 104,
      "chip": "ym2612"
    },
    {
      "channel": 0,
      "note": 57,
      "start": 12.8252,
      "duration": 0.0183,
      "velocity": 95,
      "chip": "ym2612"
    },
    {
      "channel": 0,
      "note": 57,
      "start": 12.8437,
      "duration": 0.1834,
      "velocity": 95,
      "chip": "ym2612"
    },
    {
      "channel": 2,
      "note": 64,
      "start": 12.8442,
      "duration": 0.1832,
      "velocity": 104,
      "chip": "ym2612"
    },
    {
      "channel": 3,
      "note": 60,
      "start": 12.8445,
      "duration": 0.183,
      "velocity": 104,
      "chip": "ym2612"
    },
    {
      "channel": 4,
      "note": 57,
      "start": 12.8448,
      "duration": 0.183,
      "velocity": 104,
      "chip": "ym2612"
    },
    {
      "channel": 0,
      "note": 57,
      "start": 13.0273,
      "duration": 0.0018,
      "velocity": 95,
      "chip": "ym2612"
    },
    {
      "channel": 2,
      "note": 64,
      "start": 13.0274,
      "duration": 0.0021,
      "velocity": 104,
      "chip": "ym2612"
    },
    {
      "channel": 3,
      "note": 60,
      "start": 13.0277,
      "duration": 0.0021,
      "velocity": 104,
      "chip": "ym2612"
    },
    {
      "channel": 4,
      "note": 57,
      "start": 13.0278,
      "duration": 0.0022,
      "velocity": 104,
      "chip": "ym2612"
    },
    {
      "channel": 0,
      "note": 55,
      "start": 13.0293,
      "duration": 0.2025,
      "velocity": 95,
      "chip": "ym2612"
    },
    {
      "channel": 2,
      "note": 76,
      "start": 13.0297,
      "duration": 0.2026,
      "velocity": 104,
      "chip": "ym2612"
    },
    {
      "channel": 3,
      "note": 71,
      "start": 13.03,
      "duration": 0.2026,
      "velocity": 104,
      "chip": "ym2612"
    },
    {
      "channel": 4,
      "note": 67,
      "start": 13.0302,
      "duration": 0.2027,
      "velocity": 104,
      "chip": "ym2612"
    },
    {
      "channel": 0,
      "note": 55,
      "start": 13.2321,
      "duration": 0.1834,
      "velocity": 95,
      "chip": "ym2612"
    },
    {
      "channel": 2,
      "note": 76,
      "start": 13.2325,
      "duration": 0.1832,
      "velocity": 104,
      "chip": "ym2612"
    },
    {
      "channel": 3,
      "note": 71,
      "start": 13.2328,
      "duration": 0.1831,
      "velocity": 104,
      "chip": "ym2612"
    },
    {
      "channel": 4,
      "note": 67,
      "start": 13.2331,
      "duration": 0.183,
      "velocity": 104,
      "chip": "ym2612"
    },
    {
      "channel": 0,
      "note": 55,
      "start": 13.4156,
      "duration": 0.0027,
      "velocity": 95,
      "chip": "ym2612"
    },
    {
      "channel": 2,
      "note": 76,
      "start": 13.4159,
      "duration": 0.0029,
      "velocity": 104,
      "chip": "ym2612"
    },
    {
      "channel": 3,
      "note": 71,
      "start": 13.4161,
      "duration": 0.0027,
      "velocity": 104,
      "chip": "ym2612"
    },
    {
      "channel": 4,
      "note": 67,
      "start": 13.4162,
      "duration": 0.0028,
      "velocity": 104,
      "chip": "ym2612"
    },
    {
      "channel": 0,
      "note": 55,
      "start": 13.4184,
      "duration": 0.0027,
      "velocity": 95,
      "chip": "ym2612"
    },
    {
      "channel": 2,
      "note": 76,
      "start": 13.4188,
      "duration": 0.0215,
      "velocity": 104,
      "chip": "ym2612"
    },
    {
      "channel": 3,
      "note": 71,
      "start": 13.4189,
      "duration": 0.0029,
      "velocity": 104,
      "chip": "ym2612"
    },
    {
      "channel": 4,
      "note": 67,
      "start": 13.4191,
      "duration": 0.0027,
      "velocity": 104,
      "chip": "ym2612"
    },
    {
      "channel": 0,
      "note": 55,
      "start": 13.4214,
      "duration": 0.0182,
      "velocity": 95,
      "chip": "ym2612"
    },
    {
      "channel": 1,
      "note": 83,
      "start": 13.4217,
      "duration": 0.0182,
      "velocity": 101,
      "chip": "ym2612"
    },
    {
      "channel": 3,
      "note": 71,
      "start": 13.4218,
      "duration": 0.2019,
      "velocity": 104,
      "chip": "ym2612"
    },
    {
      "channel": 4,
      "note": 67,
      "start": 13.4219,
      "duration": 0.202,
      "velocity": 104,
      "chip": "ym2612"
    },
    {
      "channel": 0,
      "note": 50,
      "start": 13.4398,
      "duration": 0.1834,
      "velocity": 95,
      "chip": "ym2612"
    },
    {
      "channel": 1,
      "note": 84,
      "start": 13.4402,
      "duration": 0.1834,
      "velocity": 101,
      "chip": "ym2612"
    },
    {
      "channel": 2,
      "note": 76,
      "start": 13.4405,
      "duration": 0.1831,
      "velocity": 104,
      "chip": "ym2612"
    },
    {
      "channel": 0,
      "note": 55,
      "start": 13.6234,
      "duration": 0.0023,
      "velocity": 95,
      "chip": "ym2612"
    },
    {
      "channel": 2,
      "note": 76,
      "start": 13.6236,
      "duration": 0.0026,
      "velocity": 104,
      "chip": "ym2612"
    },
    {
      "channel": 3,
      "note": 71,
      "start": 13.6238,
      "duration": 0.0026,
      "velocity": 104,
      "chip": "ym2612"
    },
    {
      "channel": 4,
      "note": 67,
      "start": 13.6239,
      "duration": 0.0027,
      "velocity": 104,
      "chip": "ym2612"
    },
    {
      "channel": 0,
      "note": 53,
      "start": 13.626,
      "duration": 0.2022,
      "velocity": 95,
      "chip": "ym2612"
    },
    {
      "channel": 1,
      "note": 81,
      "start": 13.6261,
      "duration": 0.3873,
      "velocity": 101,
      "chip": "ym2612"
    },
    {
      "channel": 2,
      "note": 74,
      "start": 13.6263,
      "duration": 0.2022,
      "velocity": 104,
      "chip": "ym2612"
    },
    {
      "channel": 3,
      "note": 69,
      "start": 13.6266,
      "duration": 0.2023,
      "velocity": 104,
      "chip": "ym2612"
    },
    {
      "channel": 4,
      "note": 60,
      "start": 13.6268,
      "duration": 0.2024,
      "velocity": 104,
      "chip": "ym2612"
    },
    {
      "channel": 0,
      "note": 53,
      "start": 13.8284,
      "duration": 0.1834,
      "velocity": 95,
      "chip": "ym2612"
    },
    {
      "channel": 2,
      "note": 74,
      "start": 13.8288,
      "duration": 0.1832,
      "velocity": 104,
      "chip": "ym2612"
    },
    {
      "channel": 3,
      "note": 69,
      "start": 13.8291,
      "duration": 0.183,
      "velocity": 104,
      "chip": "ym2612"
    },
    {
      "channel": 4,
      "note": 60,
      "start": 13.8294,
      "duration": 0.1829,
      "velocity": 104,
      "chip": "ym2612"
    },
    {
      "channel": 0,
      "note": 53,
      "start": 14.0119,
      "duration": 0.0013,
      "velocity": 95,
      "chip": "ym2612"
    },
    {
      "channel": 2,
      "note": 74,
      "start": 14.0121,
      "duration": 0.0043,
      "velocity": 104,
      "chip": "ym2612"
    },
    {
      "channel": 3,
      "note": 69,
      "start": 14.0122,
      "duration": 0.0043,
      "velocity": 104,
      "chip": "ym2612"
    },
    {
      "channel": 4,
      "note": 60,
      "start": 14.0124,
      "duration": 0.0043,
      "velocity": 104,
      "chip": "ym2612"
    },
    {
      "channel": 0,
      "note": 53,
      "start": 14.0134,
      "duration": 0.0027,
      "velocity": 95,
      "chip": "ym2612"
    },
    {
      "channel": 1,
      "note": 88,
      "start": 14.0136,
      "duration": 0.6244,
      "velocity": 101,
      "chip": "ym2612"
    },
    {
      "channel": 0,
      "note": 53,
      "start": 14.0163,
      "duration": 0.0184,
      "velocity": 95,
      "chip": "ym2612"
    },
    {
      "channel": 2,
      "note": 72,
      "start": 14.0165,
      "duration": 0.0187,
      "velocity": 104,
      "chip": "ym2612"
    },
    {
      "channel": 3,
      "note": 65,
      "start": 14.0166,
      "duration": 0.0188,
      "velocity": 104,
      "chip": "ym2612"
    },
    {
      "channel": 4,
      "note": 60,
      "start": 14.0167,
      "duration": 0.0191,
      "velocity": 104,
      "chip": "ym2612"
    },
    {
      "channel": 0,
      "note": 47,
      "start": 14.0349,
      "duration": 0.1834,
      "velocity": 95,
      "chip": "ym2612"
    },
    {
      "channel": 2,
      "note": 74,
      "start": 14.0354,
      "duration": 0.1846,
      "velocity": 104,
      "chip": "ym2612"
    },
    {
      "channel": 3,
      "note": 69,
      "start": 14.0358,
      "duration": 0.1844,
      "velocity": 104,
      "chip": "ym2612"
    },
    {
      "channel": 4,
      "note": 60,
      "start": 14.0361,
      "duration": 0.1843,
      "velocity": 104,
      "chip": "ym2612"
    },
    {
      "channel": 0,
      "note": 53,
      "start": 14.2185,
      "duration": 0.0012,
      "velocity": 95,
      "chip": "ym2612"
    },
    {
      "channel": 0,
      "note": 50,
      "start": 14.22,
      "duration": 0.0211,
      "velocity": 95,
      "chip": "ym2612"
    },
    {
      "channel": 2,
      "note": 72,
      "start": 14.2201,
      "duration": 0.0214,
      "velocity": 104,
      "chip": "ym2612"
    },
    {
      "channel": 3,
      "note": 69,
      "start": 14.2203,
      "duration": 0.0216,
      "velocity": 104,
      "chip": "ym2612"
    },
    {
      "channel": 4,
      "note": 65,
      "start": 14.2207,
      "duration": 0.0215,
      "velocity": 104,
      "chip": "ym2612"
    },
    {
      "channel": 0,
      "note": 47,
      "start": 14.2413,
      "duration": 0.1834,
      "velocity": 95,
      "chip": "ym2612"
    },
    {
      "channel": 2,
      "note": 72,
      "start": 14.2418,
      "duration": 0.1832,
      "velocity": 104,
      "chip": "ym2612"
    },
    {
      "channel": 3,
      "note": 69,
      "start": 14.2421,
      "duration": 0.183,
      "velocity": 104,
      "chip": "ym2612"
    },
    {
      "channel": 4,
      "note": 65,
      "start": 14.2424,
      "duration": 0.1827,
      "velocity": 104,
      "chip": "ym2612"
    },
    {
      "channel": 0,
      "note": 50,
      "start": 14.4249,
      "duration": 0.0038,
      "velocity": 95,
      "chip": "ym2612"
    },
    {
      "channel": 0,
      "note": 55,
      "start": 14.429,
      "duration": 0.0232,
      "velocity": 95,
      "chip": "ym2612"
    },
    {
      "channel": 2,
      "note": 71,
      "start": 14.4293,
      "duration": 0.209,
      "velocity": 104,
      "chip": "ym2612"
    },
    {
      "channel": 3,
      "note": 67,
      "start": 14.4295,
      "duration": 0.2091,
      "velocity": 104,
      "chip": "ym2612"
    },
    {
      "channel": 4,
      "note": 64,
      "start": 14.4297,
      "duration": 0.2091,
      "velocity": 104,
      "chip": "ym2612"
    },
    {
      "channel": 0,
      "note": 55,
      "start": 14.4523,
      "duration": 0.1834,
      "velocity": 95,
      "chip": "ym2612"
    },
    {
      "channel": 0,
      "note": 55,
      "start": 14.6359,
      "duration": 0.0241,
      "velocity": 95,
      "chip": "ym2612"
    },
    {
      "channel": 1,
      "note": 79,
      "start": 14.6382,
      "duration": 0.0011,
      "velocity": 101,
      "chip": "ym2612"
    },
    {
      "channel": 2,
      "note": 64,
      "start": 14.6385,
      "duration": 0.0219,
      "velocity": 104,
      "chip": "ym2612"
    },
    {
      "channel": 3,
      "note": 60,
      "start": 14.6387,
      "duration": 0.022,
      "velocity": 104,
      "chip": "ym2612"
    },
    {
      "channel": 4,
      "note": 57,
      "start": 14.639,
      "duration": 0.0221,
      "velocity": 104,
      "chip": "ym2612"
    },
    {
      "channel": 1,
      "note": 80,
      "start": 14.6396,
      "duration": 0.0003,
      "velocity": 101,
      "chip": "ym2612"
    },
    {
      "channel": 1,
      "note": 81,
      "start": 14.64,
      "duration": 0.2051,
      "velocity": 101,
      "chip": "ym2612"
    },
    {
      "channel": 0,
      "note": 57,
      "start": 14.6602,
      "duration": 0.1834,
      "velocity": 95,
      "chip": "ym2612"
    },
    {
      "channel": 2,
      "note": 64,
      "start": 14.6607,
      "duration": 0.1832,
      "velocity": 104,
      "chip": "ym2612"
    },
    {
      "channel": 3,
      "note": 60,
      "start": 14.661,
      "duration": 0.1831,
      "velocity": 104,
      "chip": "ym2612"
    },
    {
      "channel": 4,
      "note": 57,
      "start": 14.6612,
      "duration": 0.1828,
      "velocity": 104,
      "chip": "ym2612"
    },
    {
      "channel": 0,
      "note": 57,
      "start": 14.8438,
      "duration": 0.0012,
      "velocity": 95,
      "chip": "ym2612"
    },
    {
      "channel": 2,
      "note": 64,
      "start": 14.8439,
      "duration": 0.0037,
      "velocity": 104,
      "chip": "ym2612"
    },
    {
      "channel": 3,
      "note": 60,
      "start": 14.844,
      "duration": 0.0037,
      "velocity": 104,
      "chip": "ym2612"
    },
    {
      "channel": 4,
      "note": 57,
      "start": 14.8442,
      "duration": 0.0037,
      "velocity": 104,
      "chip": "ym2612"
    },
    {
      "channel": 0,
      "note": 57,
      "start": 14.8451,
      "duration": 0.0022,
      "velocity": 95,
      "chip": "ym2612"
    },
    {
      "channel": 1,
      "note": 83,
      "start": 14.8453,
      "duration": 0.5972,
      "velocity": 101,
      "chip": "ym2612"
    },
    {
      "channel": 0,
      "note": 57,
      "start": 14.8476,
      "duration": 0.0185,
      "velocity": 95,
      "chip": "ym2612"
    },
    {
      "channel": 2,
      "note": 64,
      "start": 14.8477,
      "duration": 0.0188,
      "velocity": 104,
      "chip": "ym2612"
    },
    {
      "channel": 3,
      "note": 60,
      "start": 14.8479,
      "duration": 0.019,
      "velocity": 104,
      "chip": "ym2612"
    },
    {
      "channel": 4,
      "note": 57,
      "start": 14.848,
      "duration": 0.0191,
      "velocity": 104,
      "chip": "ym2612"
    },
    {
      "channel": 0,
      "note": 57,
      "start": 14.8663,
      "duration": 0.1834,
      "velocity": 95,
      "chip": "ym2612"
    },
    {
      "channel": 2,
      "note": 64,
      "start": 14.8668,
      "duration": 0.1843,
      "velocity": 104,
      "chip": "ym2612"
    },
    {
      "channel": 3,
      "note": 60,
      "start": 14.8671,
      "duration": 0.1842,
      "velocity": 104,
      "chip": "ym2612"
    },
    {
      "channel": 4,
      "note": 57,
      "start": 14.8673,
      "duration": 0.1841,
      "velocity": 104,
      "chip": "ym2612"
    },
    {
      "channel": 0,
      "note": 57,
      "start": 15.0498,
      "duration": 0.001,
      "velocity": 95,
      "chip": "ym2612"
    },
    {
      "channel": 0,
      "note": 55,
      "start": 15.051,
      "duration": 0.202,
      "velocity": 95,
      "chip": "ym2612"
    },
    {
      "channel": 2,
      "note": 76,
      "start": 15.0512,
      "duration": 0.2022,
      "velocity": 104,
      "chip": "ym2612"
    },
    {
      "channel": 3,
      "note": 71,
      "start": 15.0514,
      "duration": 0.2024,
      "velocity": 104,
      "chip": "ym2612"
    },
    {
      "channel": 4,
      "note": 67,
      "start": 15.0516,
      "duration": 0.2025,
      "velocity": 104,
      "chip": "ym2612"
    },
    {
      "channel": 0,
      "note": 55,
      "start": 15.2533,
      "duration": 0.1834,
      "velocity": 95,
      "chip": "ym2612"
    },
    {
      "channel": 2,
      "note": 76,
      "start": 15.2538,
      "duration": 0.1831,
      "velocity": 104,
      "chip": "ym2612"
    },
    {
      "channel": 3,
      "note": 71,
      "start": 15.2541,
      "duration": 0.1829,
      "velocity": 104,
      "chip": "ym2612"
    },
    {
      "channel": 4,
      "note": 67,
      "start": 15.2544,
      "duration": 0.1828,
      "velocity": 104,
      "chip": "ym2612"
    },
    {
      "channel": 0,
      "note": 55,
      "start": 15.4368,
      "duration": 0.0019,
      "velocity": 95,
      "chip": "ym2612"
    },
    {
      "channel": 2,
      "note": 76,
      "start": 15.437,
      "duration": 0.002,
      "velocity": 104,
      "chip": "ym2612"
    },
    {
      "channel": 3,
      "note": 71,
      "start": 15.4372,
      "duration": 0.0019,
      "velocity": 104,
      "chip": "ym2612"
    },
    {
      "channel": 4,
      "note": 67,
      "start": 15.4373,
      "duration": 0.002,
      "velocity": 104,
      "chip": "ym2612"
    },
    {
      "channel": 0,
      "note": 55,
      "start": 15.4388,
      "duration": 0.0034,
      "velocity": 95,
      "chip": "ym2612"
    },
    {
      "channel": 2,
      "note": 76,
      "start": 15.4391,
      "duration": 0.0036,
      "velocity": 104,
      "chip": "ym2612"
    },
    {
      "channel": 3,
      "note": 71,
      "start": 15.4392,
      "duration": 0.0036,
      "velocity": 104,
      "chip": "ym2612"
    },
    {
      "channel": 4,
      "note": 67,
      "start": 15.4394,
      "duration": 0.0036,
      "velocity": 104,
      "chip": "ym2612"
    },
    {
      "channel": 0,
      "note": 55,
      "start": 15.4424,
      "duration": 0.0185,
      "velocity": 95,
      "chip": "ym2612"
    },
    {
      "channel": 1,
      "note": 71,
      "start": 15.4426,
      "duration": 0.0186,
      "velocity": 101,
      "chip": "ym2612"
    },
    {
      "channel": 2,
      "note": 76,
      "start": 15.4427,
      "duration": 0.0188,
      "velocity": 104,
      "chip": "ym2612"
    },
    {
      "channel": 3,
      "note": 71,
      "start": 15.4429,
      "duration": 0.019,
      "velocity": 104,
      "chip": "ym2612"
    },
    {
      "channel": 4,
      "note": 67,
      "start": 15.443,
      "duration": 0.0192,
      "velocity": 104,
      "chip": "ym2612"
    },
    {
      "channel": 0,
      "note": 50,
      "start": 15.4612,
      "duration": 0.1834,
      "velocity": 95,
      "chip": "ym2612"
    },
    {
      "channel": 1,
      "note": 72,
      "start": 15.4615,
      "duration": 0.1834,
      "velocity": 101,
      "chip": "ym2612"
    },
    {
      "channel": 2,
      "note": 76,
      "start": 15.4618,
      "duration": 0.1855,
      "velocity": 104,
      "chip": "ym2612"
    },
    {
      "channel": 3,
      "note": 71,
      "start": 15.4622,
      "duration": 0.1854,
      "velocity": 104,
      "chip": "ym2612"
    },
    {
      "channel": 4,
      "note": 67,
      "start": 15.4625,
      "duration": 0.1853,
      "velocity": 104,
      "chip": "ym2612"
    },
    {
      "channel": 0,
      "note": 55,
      "start": 15.6448,
      "duration": 0.0018,
      "velocity": 95,
      "chip": "ym2612"
    },
    {
      "channel": 0,
      "note": 53,
      "start": 15.6469,
      "duration": 0.2021,
      "velocity": 95,
      "chip": "ym2612"
    },
    {
      "channel": 1,
      "note": 69,
      "start": 15.6473,
      "duration": 0.5976,
      "velocity": 106,
      "chip": "ym2612"
    },
    {
      "channel": 2,
      "note": 74,
      "start": 15.6475,
      "duration": 0.2019,
      "velocity": 104,
      "chip": "ym2612"
    },
    {
      "channel": 3,
      "note": 69,
      "start": 15.6477,
      "duration": 0.202,
      "velocity": 104,
      "chip": "ym2612"
    },
    {
      "channel": 4,
      "note": 60,
      "start": 15.648,
      "duration": 0.2021,
      "velocity": 104,
      "chip": "ym2612"
    },
    {
      "channel": 0,
      "note": 53,
      "start": 15.8492,
      "duration": 0.1834,
      "velocity": 95,
      "chip": "ym2612"
    },
    {
      "channel": 2,
      "note": 74,
      "start": 15.8497,
      "duration": 0.1831,
      "velocity": 104,
      "chip": "ym2612"
    },
    {
      "channel": 3,
      "note": 69,
      "start": 15.85,
      "duration": 0.183,
      "velocity": 104,
      "chip": "ym2612"
    },
    {
      "channel": 4,
      "note": 60,
      "start": 15.8503,
      "duration": 0.1828,
      "velocity": 104,
      "chip": "ym2612"
    },
    {
      "channel": 0,
      "note": 53,
      "start": 16.0327,
      "duration": 0.0017,
      "velocity": 95,
      "chip": "ym2612"
    },
    {
      "channel": 2,
      "note": 74,
      "start": 16.0329,
      "duration": 0.0058,
      "velocity": 104,
      "chip": "ym2612"
    },
    {
      "channel": 3,
      "note": 69,
      "start": 16.033,
      "duration": 0.0059,
      "velocity": 104,
      "chip": "ym2612"
    },
    {
      "channel": 4,
      "note": 60,
      "start": 16.0333,
      "duration": 0.0059,
      "velocity": 104,
      "chip": "ym2612"
    },
    {
      "channel": 0,
      "note": 53,
      "start": 16.0346,
      "duration": 0.0037,
      "velocity": 95,
      "chip": "ym2612"
    },
    {
      "channel": 0,
      "note": 53,
      "start": 16.0385,
      "duration": 0.019,
      "velocity": 95,
      "chip": "ym2612"
    },
    {
      "channel": 2,
      "note": 72,
      "start": 16.0389,
      "duration": 0.019,
      "velocity": 104,
      "chip": "ym2612"
    },
    {
      "channel": 3,
      "note": 65,
      "start": 16.0391,
      "duration": 0.0192,
      "velocity": 104,
      "chip": "ym2612"
    },
    {
      "channel": 4,
      "note": 60,
      "start": 16.0392,
      "duration": 0.0194,
      "velocity": 104,
      "chip": "ym2612"
    },
    {
      "channel": 0,
      "note": 47,
      "start": 16.0577,
      "duration": 0.1834,
      "velocity": 95,
      "chip": "ym2612"
    },
    {
      "channel": 2,
      "note": 74,
      "start": 16.0582,
      "duration": 0.1869,
      "velocity": 104,
      "chip": "ym2612"
    },
    {
      "channel": 3,
      "note": 69,
      "start": 16.0585,
      "duration": 0.1868,
      "velocity": 104,
      "chip": "ym2612"
    },
    {
      "channel": 4,
      "note": 60,
      "start": 16.0588,
      "duration": 0.1867,
      "velocity": 104,
      "chip": "ym2612"
    },
    {
      "channel": 0,
      "note": 53,
      "start": 16.2413,
      "duration": 0.002,
      "velocity": 95,
      "chip": "ym2612"
    },
    {
      "channel": 0,
      "note": 50,
      "start": 16.2436,
      "duration": 0.0237,
      "velocity": 95,
      "chip": "ym2612"
    },
    {
      "channel": 1,
      "note": 72,
      "start": 16.245,
      "duration": 0.0017,
      "velocity": 106,
      "chip": "ym2612"
    },
    {
      "channel": 2,
      "note": 72,
      "start": 16.2453,
      "duration": 0.0014,
      "velocity": 104,
      "chip": "ym2612"
    },
    {
      "channel": 3,
      "note": 69,
      "start": 16.2455,
      "duration": 0.0013,
      "velocity": 104,
      "chip": "ym2612"
    },
    {
      "channel": 4,
      "note": 65,
      "start": 16.2458,
      "duration": 0.0011,
      "velocity": 104,
      "chip": "ym2612"
    },
    {
      "channel": 0,
      "note": 47,
      "start": 16.2675,
      "duration": 0.1834,
      "velocity": 95,
      "chip": "ym2612"
    },
    {
      "channel": 1,
      "note": 72,
      "start": 16.2678,
      "duration": 0.1841,
      "velocity": 106,
      "chip": "ym2612"
    },
    {
      "channel": 2,
      "note": 72,
      "start": 16.2682,
      "duration": 0.1841,
      "velocity": 104,
      "chip": "ym2612"
    },
    {
      "channel": 3,
      "note": 69,
      "start": 16.2685,
      "duration": 0.184,
      "velocity": 104,
      "chip": "ym2612"
    },
    {
      "channel": 4,
      "note": 65,
      "start": 16.2688,
      "duration": 0.1839,
      "velocity": 104,
      "chip": "ym2612"
    },
    {
      "channel": 0,
      "note": 50,
      "start": 16.4511,
      "duration": 0.0005,
      "velocity": 95,
      "chip": "ym2612"
    },
    {
      "channel": 0,
      "note": 55,
      "start": 16.4519,
      "duration": 0.021,
      "velocity": 95,
      "chip": "ym2612"
    },
    {
      "channel": 1,
      "note": 71,
      "start": 16.4522,
      "duration": 0.2066,
      "velocity": 101,
      "chip": "ym2612"
    },
    {
      "channel": 2,
      "note": 71,
      "start": 16.4524,
      "duration": 0.2087,
      "velocity": 104,
      "chip": "ym2612"
    },
    {
      "channel": 3,
      "note": 67,
      "start": 16.4527,
      "duration": 0.2094,
      "velocity": 104,
      "chip": "ym2612"
    },
    {
      "channel": 4,
      "note": 64,
      "start": 16.4529,
      "duration": 0.2101,
      "velocity": 104,
      "chip": "ym2612"
    },
    {
      "channel": 0,
      "note": 55,
      "start": 16.4731,
      "duration": 0.1834,
      "velocity": 95,
      "chip": "ym2612"
    },
    {
      "channel": 0,
      "note": 55,
      "start": 16.6567,
      "duration": 0.0208,
      "velocity": 95,
      "chip": "ym2612"
    },
    {
      "channel": 1,
      "note": 78,
      "start": 16.659,
      "duration": 0.0003,
      "velocity": 101,
      "chip": "ym2612"
    },
    {
      "channel": 1,
      "note": 79,
      "start": 16.6595,
      "duration": 0.0003,
      "velocity": 101,
      "chip": "ym2612"
    },
    {
      "channel": 1,
      "note": 80,
      "start": 16.66,
      "duration": 0.2027,
      "velocity": 101,
      "chip": "ym2612"
    },
    {
      "channel": 2,
      "note": 64,
      "start": 16.6614,
      "duration": 0.2,
      "velocity": 104,
      "chip": "ym2612"
    },
    {
      "channel": 3,
      "note": 60,
      "start": 16.6622,
      "duration": 0.0159,
      "velocity": 104,
      "chip": "ym2612"
    },
    {
      "channel": 4,
      "note": 57,
      "start": 16.6632,
      "duration": 0.1985,
      "velocity": 104,
      "chip": "ym2612"
    },
    {
      "channel": 0,
      "note": 57,
      "start": 16.6778,
      "duration": 0.1834,
      "velocity": 95,
      "chip": "ym2612"
    },
    {
      "channel": 3,
      "note": 60,
      "start": 16.6784,
      "duration": 0.1832,
      "velocity": 104,
      "chip": "ym2612"
    },
    {
      "channel": 0,
      "note": 57,
      "start": 16.8613,
      "duration": 0.0012,
      "velocity": 95,
      "chip": "ym2612"
    },
    {
      "channel": 2,
      "note": 64,
      "start": 16.8615,
      "duration": 0.0014,
      "velocity": 104,
      "chip": "ym2612"
    },
    {
      "channel": 3,
      "note": 60,
      "start": 16.8616,
      "duration": 0.0016,
      "velocity": 104,
      "chip": "ym2612"
    },
    {
      "channel": 4,
      "note": 57,
      "start": 16.8618,
      "duration": 0.0016,
      "velocity": 104,
      "chip": "ym2612"
    },
    {
      "channel": 0,
      "note": 57,
      "start": 16.8626,
      "duration": 0.0026,
      "velocity": 95,
      "chip": "ym2612"
    },
    {
      "channel": 1,
      "note": 76,
      "start": 16.8629,
      "duration": 0.2064,
      "velocity": 101,
      "chip": "ym2612"
    },
    {
      "channel": 2,
      "note": 64,
      "start": 16.8631,
      "duration": 0.0211,
      "velocity": 104,
      "chip": "ym2612"
    },
    {
      "channel": 3,
      "note": 60,
      "start": 16.8633,
      "duration": 0.0212,
      "velocity": 104,
      "chip": "ym2612"
    },
    {
      "channel": 4,
      "note": 57,
      "start": 16.8635,
      "duration": 0.0213,
      "velocity": 104,
      "chip": "ym2612"
    },
    {
      "channel": 0,
      "note": 57,
      "start": 16.8655,
      "duration": 0.0183,
      "velocity": 95,
      "chip": "ym2612"
    },
    {
      "channel": 0,
      "note": 57,
      "start": 16.884,
      "duration": 0.1834,
      "velocity": 95,
      "chip": "ym2612"
    },
    {
      "channel": 2,
      "note": 64,
      "start": 16.8845,
      "duration": 0.1832,
      "velocity": 104,
      "chip": "ym2612"
    },
    {
      "channel": 3,
      "note": 60,
      "start": 16.8848,
      "duration": 0.1831,
      "velocity": 104,
      "chip": "ym2612"
    },
    {
      "channel": 4,
      "note": 57,
      "start": 16.8851,
      "duration": 0.183,
      "velocity": 104,
      "chip": "ym2612"
    },
    {
      "channel": 0,
      "note": 57,
      "start": 17.0676,
      "duration": 0.0014,
      "velocity": 95,
      "chip": "ym2612"
    },
    {
      "channel": 2,
      "note": 64,
      "start": 17.0677,
      "duration": 0.0018,
      "velocity": 104,
      "chip": "ym2612"
    },
    {
      "channel": 3,
      "note": 60,
      "start": 17.068,
      "duration": 0.0018,
      "velocity": 104,
      "chip": "ym2612"
    },
    {
      "channel": 4,
      "note": 57,
      "start": 17.0681,
      "duration": 0.002,
      "velocity": 104,
      "chip": "ym2612"
    },
    {
      "channel": 0,
      "note": 55,
      "start": 17.0692,
      "duration": 0.202,
      "velocity": 95,
      "chip": "ym2612"
    },
    {
      "channel": 1,
      "note": 88,
      "start": 17.0695,
      "duration": 0.3855,
      "velocity": 101,
      "chip": "ym2612"
    },
    {
      "channel": 2,
      "note": 76,
      "start": 17.0698,
      "duration": 0.2019,
      "velocity": 104,
      "chip": "ym2612"
    },
    {
      "channel": 3,
      "note": 71,
      "start": 17.07,
      "duration": 0.2019,
      "velocity": 104,
      "chip": "ym2612"
    },
    {
      "channel": 4,
      "note": 67,
      "start": 17.0702,
      "duration": 0.202,
      "velocity": 104,
      "chip": "ym2612"
    },
    {
      "channel": 0,
      "note": 55,
      "start": 17.2714,
      "duration": 0.1834,
      "velocity": 95,
      "chip": "ym2612"
    },
    {
      "channel": 2,
      "note": 76,
      "start": 17.2718,
      "duration": 0.1834,
      "velocity": 104,
      "chip": "ym2612"
    },
    {
      "channel": 3,
      "note": 71,
      "start": 17.2721,
      "duration": 0.1832,
      "velocity": 104,
      "chip": "ym2612"
    },
    {
      "channel": 4,
      "note": 67,
      "start": 17.2724,
      "duration": 0.1831,
      "velocity": 104,
      "chip": "ym2612"
    },
    {
      "channel": 0,
      "note": 55,
      "start": 17.4549,
      "duration": 0.0017,
      "velocity": 95,
      "chip": "ym2612"
    },
    {
      "channel": 1,
      "note": 86,
      "start": 17.4551,
      "duration": 0.0017,
      "velocity": 101,
      "chip": "ym2612"
    },
    {
      "channel": 2,
      "note": 76,
      "start": 17.4552,
      "duration": 0.0018,
      "velocity": 104,
      "chip": "ym2612"
    },
    {
      "channel": 3,
      "note": 71,
      "start": 17.4554,
      "duration": 0.0017,
      "velocity": 104,
      "chip": "ym2612"
    },
    {
      "channel": 4,
      "note": 67,
      "start": 17.4556,
      "duration": 0.0018,
      "velocity": 104,
      "chip": "ym2612"
    },
    {
      "channel": 0,
      "note": 55,
      "start": 17.4567,
      "duration": 0.0028,
      "velocity": 95,
      "chip": "ym2612"
    },
    {
      "channel": 1,
      "note": 84,
      "start": 17.457,
      "duration": 0.0027,
      "velocity": 101,
      "chip": "ym2612"
    },
    {
      "channel": 2,
      "note": 76,
      "start": 17.4571,
      "duration": 0.0221,
      "velocity": 104,
      "chip": "ym2612"
    },
    {
      "channel": 3,
      "note": 71,
      "start": 17.4573,
      "duration": 0.0025,
      "velocity": 104,
      "chip": "ym2612"
    },
    {
      "channel": 4,
      "note": 67,
      "start": 17.4575,
      "duration": 0.0025,
      "velocity": 104,
      "chip": "ym2612"
    },
    {
      "channel": 0,
      "note": 55,
      "start": 17.4597,
      "duration": 0.0189,
      "velocity": 95,
      "chip": "ym2612"
    },
    {
      "channel": 3,
      "note": 71,
      "start": 17.4599,
      "duration": 0.2028,
      "velocity": 104,
      "chip": "ym2612"
    },
    {
      "channel": 4,
      "note": 67,
      "start": 17.46,
      "duration": 0.2029,
      "velocity": 104,
      "chip": "ym2612"
    },
    {
      "channel": 0,
      "note": 50,
      "start": 17.4788,
      "duration": 0.1834,
      "velocity": 95,
      "chip": "ym2612"
    },
    {
      "channel": 1,
      "note": 86,
      "start": 17.4791,
      "duration": 0.1834,
      "velocity": 101,
      "chip": "ym2612"
    },
    {
      "channel": 2,
      "note": 76,
      "start": 17.4794,
      "duration": 0.1831,
      "velocity": 104,
      "chip": "ym2612"
    },
    {
      "channel": 0,
      "note": 55,
      "start": 17.6624,
      "duration": 0.0021,
      "velocity": 95,
      "chip": "ym2612"
    },
    {
      "channel": 2,
      "note": 76,
      "start": 17.6626,
      "duration": 0.0024,
      "velocity": 104,
      "chip": "ym2612"
    },
    {
      "channel": 3,
      "note": 71,
      "start": 17.6628,
      "duration": 0.0024,
      "velocity": 104,
      "chip": "ym2612"
    },
    {
      "channel": 4,
      "note": 67,
      "start": 17.6629,
      "duration": 0.0025,
      "velocity": 104,
      "chip": "ym2612"
    },
    {
      "channel": 0,
      "note": 53,
      "start": 17.6647,
      "duration": 0.2023,
      "velocity": 95,
      "chip": "ym2612"
    },
    {
      "channel": 1,
      "note": 84,
      "start": 17.6649,
      "duration": 0.3875,
      "velocity": 101,
      "chip": "ym2612"
    },
    {
      "channel": 2,
      "note": 74,
      "start": 17.6651,
      "duration": 0.2024,
      "velocity": 104,
      "chip": "ym2612"
    },
    {
      "channel": 3,
      "note": 69,
      "start": 17.6653,
      "duration": 0.2024,
      "velocity": 104,
      "chip": "ym2612"
    },
    {
      "channel": 4,
      "note": 60,
      "start": 17.6656,
      "duration": 0.2025,
      "velocity": 104,
      "chip": "ym2612"
    },
    {
      "channel": 0,
      "note": 53,
      "start": 17.8673,
      "duration": 0.1834,
      "velocity": 95,
      "chip": "ym2612"
    },
    {
      "channel": 2,
      "note": 74,
      "start": 17.8677,
      "duration": 0.1832,
      "velocity": 104,
      "chip": "ym2612"
    },
    {
      "channel": 3,
      "note": 69,
      "start": 17.868,
      "duration": 0.1831,
      "velocity": 104,
      "chip": "ym2612"
    },
    {
      "channel": 4,
      "note": 60,
      "start": 17.8683,
      "duration": 0.1829,
      "velocity": 104,
      "chip": "ym2612"
    },
    {
      "channel": 0,
      "note": 53,
      "start": 18.0508,
      "duration": 0.0015,
      "velocity": 95,
      "chip": "ym2612"
    },
    {
      "channel": 2,
      "note": 74,
      "start": 18.051,
      "duration": 0.004,
      "velocity": 104,
      "chip": "ym2612"
    },
    {
      "channel": 3,
      "note": 69,
      "start": 18.0511,
      "duration": 0.0041,
      "velocity": 104,
      "chip": "ym2612"
    },
    {
      "channel": 4,
      "note": 60,
      "start": 18.0513,
      "duration": 0.0041,
      "velocity": 104,
      "chip": "ym2612"
    },
    {
      "channel": 0,
      "note": 53,
      "start": 18.0523,
      "duration": 0.0024,
      "velocity": 95,
      "chip": "ym2612"
    },
    {
      "channel": 1,
      "note": 83,
      "start": 18.0526,
      "duration": 0.2049,
      "velocity": 101,
      "chip": "ym2612"
    },
    {
      "channel": 0,
      "note": 53,
      "start": 18.0549,
      "duration": 0.0186,
      "velocity": 95,
      "chip": "ym2612"
    },
    {
      "channel": 2,
      "note": 72,
      "start": 18.0552,
      "duration": 0.0188,
      "velocity": 104,
      "chip": "ym2612"
    },
    {
      "channel": 3,
      "note": 65,
      "start": 18.0554,
      "duration": 0.019,
      "velocity": 104,
      "chip": "ym2612"
    },
    {
      "channel": 4,
      "note": 60,
      "start": 18.0555,
      "duration": 0.0192,
      "velocity": 104,
      "chip": "ym2612"
    },
    {
      "channel": 0,
      "note": 47,
      "start": 18.0738,
      "duration": 0.1834,
      "velocity": 95,
      "chip": "ym2612"
    },
    {
      "channel": 2,
      "note": 74,
      "start": 18.0743,
      "duration": 0.1851,
      "velocity": 104,
      "chip": "ym2612"
    },
    {
      "channel": 3,
      "note": 69,
      "start": 18.0746,
      "duration": 0.1849,
      "velocity": 104,
      "chip": "ym2612"
    },
    {
      "channel": 4,
      "note": 60,
      "start": 18.0749,
      "duration": 0.1848,
      "velocity": 104,
      "chip": "ym2612"
    },
    {
      "channel": 0,
      "note": 53,
      "start": 18.2574,
      "duration": 0.0013,
      "velocity": 95,
      "chip": "ym2612"
    },
    {
      "channel": 1,
      "note": 79,
      "start": 18.2576,
      "duration": 0.0014,
      "velocity": 101,
      "chip": "ym2612"
    },
    {
      "channel": 0,
      "note": 50,
      "start": 18.259,
      "duration": 0.0213,
      "velocity": 95,
      "chip": "ym2612"
    },
    {
      "channel": 1,
      "note": 84,
      "start": 18.2593,
      "duration": 0.2084,
      "velocity": 101,
      "chip": "ym2612"
    },
    {
      "channel": 2,
      "note": 72,
      "start": 18.2595,
      "duration": 0.0212,
      "velocity": 104,
      "chip": "ym2612"
    },
    {
      "channel": 3,
      "note": 69,
      "start": 18.2597,
      "duration": 0.0214,
      "velocity": 104,
      "chip": "ym2612"
    },
    {
      "channel": 4,
      "note": 65,
      "start": 18.26,
      "duration": 0.0214,
      "velocity": 104,
      "chip": "ym2612"
    },
    {
      "channel": 0,
      "note": 47,
      "start": 18.2805,
      "duration": 0.1834,
      "velocity": 95,
      "chip": "ym2612"
    },
    {
      "channel": 2,
      "note": 72,
      "start": 18.281,
      "duration": 0.1832,
      "velocity": 104,
      "chip": "ym2612"
    },
    {
      "channel": 3,
      "note": 69,
      "start": 18.2813,
      "duration": 0.183,
      "velocity": 104,
      "chip": "ym2612"
    },
    {
      "channel": 4,
      "note": 65,
      "start": 18.2817,
      "duration": 0.1827,
      "velocity": 104,
      "chip": "ym2612"
    },
    {
      "channel": 0,
      "note": 50,
      "start": 18.4641,
      "duration": 0.0032,
      "velocity": 95,
      "chip": "ym2612"
    },
    {
      "channel": 0,
      "note": 55,
      "start": 18.4676,
      "duration": 0.0225,
      "velocity": 95,
      "chip": "ym2612"
    },
    {
      "channel": 1,
      "note": 83,
      "start": 18.4678,
      "duration": 0.2079,
      "velocity": 101,
      "chip": "ym2612"
    },
    {
      "channel": 2,
      "note": 71,
      "start": 18.468,
      "duration": 0.208,
      "velocity": 104,
      "chip": "ym2612"
    },
    {
      "channel": 3,
      "note": 67,
      "start": 18.4682,
      "duration": 0.2081,
      "velocity": 104,
      "chip": "ym2612"
    },
    {
      "channel": 4,
      "note": 64,
      "start": 18.4684,
      "duration": 0.2081,
      "velocity": 104,
      "chip": "ym2612"
    },
    {
      "channel": 0,
      "note": 55,
      "start": 18.4902,
      "duration": 0.1834,
      "velocity": 95,
      "chip": "ym2612"
    },
    {
      "channel": 0,
      "note": 55,
      "start": 18.6738,
      "duration": 0.024,
      "velocity": 95,
      "chip": "ym2612"
    },
    {
      "channel": 1,
      "note": 78,
      "start": 18.6759,
      "duration": 0.001,
      "velocity": 101,
      "chip": "ym2612"
    },
    {
      "channel": 2,
      "note": 64,
      "start": 18.6762,
      "duration": 0.022,
      "velocity": 104,
      "chip": "ym2612"
    },
    {
      "channel": 3,
      "note": 60,
      "start": 18.6764,
      "duration": 0.0221,
      "velocity": 104,
      "chip": "ym2612"
    },
    {
      "channel": 4,
      "note": 57,
      "start": 18.6767,
      "duration": 0.0222,
      "velocity": 104,
      "chip": "ym2612"
    },
    {
      "channel": 1,
      "note": 79,
      "start": 18.6771,
      "duration": 0.0003,
      "velocity": 101,
      "chip": "ym2612"
    },
    {
      "channel": 1,
      "note": 80,
      "start": 18.6777,
      "duration": 0.2053,
      "velocity": 101,
      "chip": "ym2612"
    },
    {
      "channel": 0,
      "note": 57,
      "start": 18.698,
      "duration": 0.1834,
      "velocity": 95,
      "chip": "ym2612"
    },
    {
      "channel": 2,
      "note": 64,
      "start": 18.6985,
      "duration": 0.1832,
      "velocity": 104,
      "chip": "ym2612"
    },
    {
      "channel": 3,
      "note": 60,
      "start": 18.6988,
      "duration": 0.1831,
      "velocity": 104,
      "chip": "ym2612"
    },
    {
      "channel": 4,
      "note": 57,
      "start": 18.6991,
      "duration": 0.1829,
      "velocity": 104,
      "chip": "ym2612"
    },
    {
      "channel": 0,
      "note": 57,
      "start": 18.8816,
      "duration": 0.0012,
      "velocity": 95,
      "chip": "ym2612"
    },
    {
      "channel": 2,
      "note": 64,
      "start": 18.8818,
      "duration": 0.004,
      "velocity": 104,
      "chip": "ym2612"
    },
    {
      "channel": 3,
      "note": 60,
      "start": 18.8819,
      "duration": 0.004,
      "velocity": 104,
      "chip": "ym2612"
    },
    {
      "channel": 4,
      "note": 57,
      "start": 18.8822,
      "duration": 0.0039,
      "velocity": 104,
      "chip": "ym2612"
    },
    {
      "channel": 0,
      "note": 57,
      "start": 18.8829,
      "duration": 0.0024,
      "velocity": 95,
      "chip": "ym2612"
    },
    {
      "channel": 1,
      "note": 76,
      "start": 18.8832,
      "duration": 0.2056,
      "velocity": 101,
      "chip": "ym2612"
    },
    {
      "channel": 0,
      "note": 57,
      "start": 18.8855,
      "duration": 0.0185,
      "velocity": 95,
      "chip": "ym2612"
    },
    {
      "channel": 2,
      "note": 64,
      "start": 18.8859,
      "duration": 0.0186,
      "velocity": 104,
      "chip": "ym2612"
    },
    {
      "channel": 3,
      "note": 60,
      "start": 18.886,
      "duration": 0.0188,
      "velocity": 104,
      "chip": "ym2612"
    },
    {
      "channel": 4,
      "note": 57,
      "start": 18.8861,
      "duration": 0.0189,
      "velocity": 104,
      "chip": "ym2612"
    },
    {
      "channel": 0,
      "note": 57,
      "start": 18.9042,
      "duration": 0.1834,
      "velocity": 95,
      "chip": "ym2612"
    },
    {
      "channel": 2,
      "note": 64,
      "start": 18.9047,
      "duration": 0.1843,
      "velocity": 104,
      "chip": "ym2612"
    },
    {
      "channel": 3,
      "note": 60,
      "start": 18.905,
      "duration": 0.1843,
      "velocity": 104,
      "chip": "ym2612"
    },
    {
      "channel": 4,
      "note": 57,
      "start": 18.9053,
      "duration": 0.1842,
      "velocity": 104,
      "chip": "ym2612"
    },
    {
      "channel": 0,
      "note": 57,
      "start": 19.0878,
      "duration": 0.0007,
      "velocity": 95,
      "chip": "ym2612"
    },
    {
      "channel": 0,
      "note": 55,
      "start": 19.0887,
      "duration": 0.2024,
      "velocity": 95,
      "chip": "ym2612"
    },
    {
      "channel": 1,
      "note": 88,
      "start": 19.0889,
      "duration": 0.386,
      "velocity": 101,
      "chip": "ym2612"
    },
    {
      "channel": 2,
      "note": 76,
      "start": 19.0892,
      "duration": 0.2024,
      "velocity": 104,
      "chip": "ym2612"
    },
    {
      "channel": 3,
      "note": 71,
      "start": 19.0894,
      "duration": 0.2025,
      "velocity": 104,
      "chip": "ym2612"
    },
    {
      "channel": 4,
      "note": 67,
      "start": 19.0896,
      "duration": 0.2027,
      "velocity": 104,
      "chip": "ym2612"
    },
    {
      "channel": 0,
      "note": 55,
      "start": 19.2913,
      "duration": 0.1834,
      "velocity": 95,
      "chip": "ym2612"
    },
    {
      "channel": 2,
      "note": 76,
      "start": 19.2918,
      "duration": 0.1833,
      "velocity": 104,
      "chip": "ym2612"
    },
    {
      "channel": 3,
      "note": 71,
      "start": 19.2922,
      "duration": 0.1832,
      "velocity": 104,
      "chip": "ym2612"
    },
    {
      "channel": 4,
      "note": 67,
      "start": 19.2925,
      "duration": 0.1831,
      "velocity": 104,
      "chip": "ym2612"
    },
    {
      "channel": 0,
      "note": 55,
      "start": 19.4749,
      "duration": 0.0015,
      "velocity": 95,
      "chip": "ym2612"
    },
    {
      "channel": 1,
      "note": 86,
      "start": 19.4751,
      "duration": 0.0015,
      "velocity": 101,
      "chip": "ym2612"
    },
    {
      "channel": 2,
      "note": 76,
      "start": 19.4753,
      "duration": 0.0016,
      "velocity": 104,
      "chip": "ym2612"
    },
    {
      "channel": 3,
      "note": 71,
      "start": 19.4755,
      "duration": 0.0015,
      "velocity": 104,
      "chip": "ym2612"
    },
    {
      "channel": 4,
      "note": 67,
      "start": 19.4756,
      "duration": 0.0015,
      "velocity": 104,
      "chip": "ym2612"
    },
    {
      "channel": 0,
      "note": 55,
      "start": 19.4765,
      "duration": 0.0029,
      "velocity": 95,
      "chip": "ym2612"
    },
    {
      "channel": 1,
      "note": 84,
      "start": 19.4768,
      "duration": 0.0029,
      "velocity": 101,
      "chip": "ym2612"
    },
    {
      "channel": 2,
      "note": 76,
      "start": 19.4769,
      "duration": 0.003,
      "velocity": 104,
      "chip": "ym2612"
    },
    {
      "channel": 3,
      "note": 71,
      "start": 19.4771,
      "duration": 0.0029,
      "velocity": 104,
      "chip": "ym2612"
    },
    {
      "channel": 4,
      "note": 67,
      "start": 19.4772,
      "duration": 0.0029,
      "velocity": 104,
      "chip": "ym2612"
    },
    {
      "channel": 0,
      "note": 55,
      "start": 19.4796,
      "duration": 0.0191,
      "velocity": 95,
      "chip": "ym2612"
    },
    {
      "channel": 2,
      "note": 76,
      "start": 19.4799,
      "duration": 0.0194,
      "velocity": 104,
      "chip": "ym2612"
    },
    {
      "channel": 3,
      "note": 71,
      "start": 19.4801,
      "duration": 0.0196,
      "velocity": 104,
      "chip": "ym2612"
    },
    {
      "channel": 4,
      "note": 67,
      "start": 19.4802,
      "duration": 0.0198,
      "velocity": 104,
      "chip": "ym2612"
    },
    {
      "channel": 0,
      "note": 50,
      "start": 19.499,
      "duration": 0.1834,
      "velocity": 95,
      "chip": "ym2612"
    },
    {
      "channel": 1,
      "note": 79,
      "start": 19.4993,
      "duration": 0.1834,
      "velocity": 101,
      "chip": "ym2612"
    },
    {
      "channel": 2,
      "note": 76,
      "start": 19.4996,
      "duration": 0.1855,
      "velocity": 104,
      "chip": "ym2612"
    },
    {
      "channel": 3,
      "note": 71,
      "start": 19.5,
      "duration": 0.1854,
      "velocity": 104,
      "chip": "ym2612"
    },
    {
      "channel": 4,
      "note": 67,
      "start": 19.5003,
      "duration": 0.1853,
      "velocity": 104,
      "chip": "ym2612"
    },
    {
      "channel": 0,
      "note": 55,
      "start": 19.6826,
      "duration": 0.0019,
      "velocity": 95,
      "chip": "ym2612"
    },
    {
      "channel": 0,
      "note": 53,
      "start": 19.6847,
      "duration": 0.2019,
      "velocity": 95,
      "chip": "ym2612"
    },
    {
      "channel": 1,
      "note": 81,
      "start": 19.6851,
      "duration": 0.5978,
      "velocity": 106,
      "chip": "ym2612"
    },
    {
      "channel": 2,
      "note": 74,
      "start": 19.6853,
      "duration": 0.2018,
      "velocity": 104,
      "chip": "ym2612"
    },
    {
      "channel": 3,
      "note": 69,
      "start": 19.6855,
      "duration": 0.2019,
      "velocity": 104,
      "chip": "ym2612"
    },
    {
      "channel": 4,
      "note": 60,
      "start": 19.6857,
      "duration": 0.202,
      "velocity": 104,
      "chip": "ym2612"
    },
    {
      "channel": 0,
      "note": 53,
      "start": 19.8869,
      "duration": 0.1834,
      "velocity": 95,
      "chip": "ym2612"
    },
    {
      "channel": 2,
      "note": 74,
      "start": 19.8874,
      "duration": 0.1832,
      "velocity": 104,
      "chip": "ym2612"
    },
    {
      "channel": 3,
      "note": 69,
      "start": 19.8877,
      "duration": 0.183,
      "velocity": 104,
      "chip": "ym2612"
    },
    {
      "channel": 4,
      "note": 60,
      "start": 19.888,
      "duration": 0.1828,
      "velocity": 104,
      "chip": "ym2612"
    },
    {
      "channel": 0,
      "note": 53,
      "start": 20.0704,
      "duration": 0.0019,
      "velocity": 95,
      "chip": "ym2612"
    },
    {
      "channel": 2,
      "note": 74,
      "start": 20.0706,
      "duration": 0.0058,
      "velocity": 104,
      "chip": "ym2612"
    },
    {
      "channel": 3,
      "note": 69,
      "start": 20.0707,
      "duration": 0.0059,
      "velocity": 104,
      "chip": "ym2612"
    },
    {
      "channel": 4,
      "note": 60,
      "start": 20.071,
      "duration": 0.0059,
      "velocity": 104,
      "chip": "ym2612"
    },
    {
      "channel": 0,
      "note": 53,
      "start": 20.0724,
      "duration": 0.0037,
      "velocity": 95,
      "chip": "ym2612"
    },
    {
      "channel": 0,
      "note": 53,
      "start": 20.0763,
      "duration": 0.0191,
      "velocity": 95,
      "chip": "ym2612"
    },
    {
      "channel": 2,
      "note": 72,
      "start": 20.0766,
      "duration": 0.0193,
      "velocity": 104,
      "chip": "ym2612"
    },
    {
      "channel": 3,
      "note": 65,
      "start": 20.0768,
      "duration": 0.0194,
      "velocity": 104,
      "chip": "ym2612"
    },
    {
      "channel": 4,
      "note": 60,
      "start": 20.077,
      "duration": 0.0196,
      "velocity": 104,
      "chip": "ym2612"
    },
    {
      "channel": 0,
      "note": 47,
      "start": 20.0956,
      "duration": 0.1834,
      "velocity": 95,
      "chip": "ym2612"
    },
    {
      "channel": 2,
      "note": 74,
      "start": 20.0961,
      "duration": 0.187,
      "velocity": 104,
      "chip": "ym2612"
    },
    {
      "channel": 3,
      "note": 69,
      "start": 20.0965,
      "duration": 0.1868,
      "velocity": 104,
      "chip": "ym2612"
    },
    {
      "channel": 4,
      "note": 60,
      "start": 20.0968,
      "duration": 0.1867,
      "velocity": 104,
      "chip": "ym2612"
    },
    {
      "channel": 0,
      "note": 53,
      "start": 20.2792,
      "duration": 0.0022,
      "velocity": 95,
      "chip": "ym2612"
    },
    {
      "channel": 0,
      "note": 50,
      "start": 20.2816,
      "duration": 0.0236,
      "velocity": 95,
      "chip": "ym2612"
    },
    {
      "channel": 1,
      "note": 72,
      "start": 20.283,
      "duration": 0.0017,
      "velocity": 106,
      "chip": "ym2612"
    },
    {
      "channel": 2,
      "note": 72,
      "start": 20.2832,
      "duration": 0.0017,
      "velocity": 104,
      "chip": "ym2612"
    },
    {
      "channel": 3,
      "note": 69,
      "start": 20.2834,
      "duration": 0.0016,
      "velocity": 104,
      "chip": "ym2612"
    },
    {
      "channel": 4,
      "note": 65,
      "start": 20.2837,
      "duration": 0.0014,
      "velocity": 104,
      "chip": "ym2612"
    },
    {
      "channel": 0,
      "note": 47,
      "start": 20.3055,
      "duration": 0.1834,
      "velocity": 95,
      "chip": "ym2612"
    },
    {
      "channel": 1,
      "note": 72,
      "start": 20.3058,
      "duration": 0.1841,
      "velocity": 106,
      "chip": "ym2612"
    },
    {
      "channel": 2,
      "note": 72,
      "start": 20.3061,
      "duration": 0.1841,
      "velocity": 104,
      "chip": "ym2612"
    },
    {
      "channel": 3,
      "note": 69,
      "start": 20.3065,
      "duration": 0.184,
      "velocity": 104,
      "chip": "ym2612"
    },
    {
      "channel": 4,
      "note": 65,
      "start": 20.3068,
      "duration": 0.184,
      "velocity": 104,
      "chip": "ym2612"
    },
    {
      "channel": 0,
      "note": 50,
      "start": 20.4891,
      "duration": 0.0005,
      "velocity": 95,
      "chip": "ym2612"
    },
    {
      "channel": 0,
      "note": 47,
      "start": 20.4899,
      "duration": 0.2076,
      "velocity": 95,
      "chip": "ym2612"
    },
    {
      "channel": 1,
      "note": 74,
      "start": 20.4902,
      "duration": 0.2086,
      "velocity": 106,
      "chip": "ym2612"
    },
    {
      "channel": 2,
      "note": 71,
      "start": 20.4904,
      "duration": 0.2093,
      "velocity": 106,
      "chip": "ym2612"
    },
    {
      "channel": 3,
      "note": 67,
      "start": 20.4907,
      "duration": 0.2099,
      "velocity": 106,
      "chip": "ym2612"
    },
    {
      "channel": 4,
      "note": 64,
      "start": 20.4909,
      "duration": 0.2106,
      "velocity": 106,
      "chip": "ym2612"
    },
    {
      "channel": 0,
      "note": 45,
      "start": 20.6977,
      "duration": 0.017,
      "velocity": 95,
      "chip": "ym2612"
    },
    {
      "channel": 1,
      "note": 76,
      "start": 20.699,
      "duration": 0.8365,
      "velocity": 106,
      "chip": "ym2612"
    },
    {
      "channel": 2,
      "note": 57,
      "start": 20.6999,
      "duration": 0.8359,
      "velocity": 106,
      "chip": "ym2612"
    },
    {
      "channel": 3,
      "note": 72,
      "start": 20.7008,
      "duration": 0.8352,
      "velocity": 106,
      "chip": "ym2612"
    },
    {
      "channel": 4,
      "note": 69,
      "start": 20.7016,
      "duration": 0.8346,
      "velocity": 106,
      "chip": "ym2612"
    },
    {
      "channel": 0,
      "note": 45,
      "start": 20.7149,
      "duration": 0.1834,
      "velocity": 95,
      "chip": "ym2612"
    },
    {
      "channel": 0,
      "note": 45,
      "start": 20.8996,
      "duration": 0.0031,
      "velocity": 95,
      "chip": "ym2612"
    },
    {
      "channel": 0,
      "note": 45,
      "start": 20.9216,
      "duration": 0.1834,
      "velocity": 95,
      "chip": "ym2612"
    },
    {
      "channel": 0,
      "note": 45,
      "start": 21.1071,
      "duration": 0.0046,
      "velocity": 95,
      "chip": "ym2612"
    },
    {
      "channel": 0,
      "note": 45,
      "start": 21.112,
      "duration": 0.0194,
      "velocity": 95,
      "chip": "ym2612"
    },
    {
      "channel": 0,
      "note": 45,
      "start": 21.1316,
      "duration": 0.1834,
      "velocity": 95,
      "chip": "ym2612"
    },
    {
      "channel": 0,
      "note": 45,
      "start": 21.3186,
      "duration": 0.0048,
      "velocity": 95,
      "chip": "ym2612"
    },
    {
      "channel": 0,
      "note": 45,
      "start": 21.3436,
      "duration": 0.1834,
      "velocity": 95,
      "chip": "ym2612"
    },
    {
      "channel": 0,
      "note": 45,
      "start": 21.5304,
      "duration": 0.0048,
      "velocity": 95,
      "chip": "ym2612"
    },
    {
      "channel": 0,
      "note": 45,
      "start": 21.5355,
      "duration": 0.0191,
      "velocity": 95,
      "chip": "ym2612"
    },
    {
      "channel": 1,
      "note": 72,
      "start": 21.5357,
      "duration": 0.4163,
      "velocity": 106,
      "chip": "ym2612"
    },
    {
      "channel": 2,
      "note": 57,
      "start": 21.5359,
      "duration": 0.4163,
      "velocity": 106,
      "chip": "ym2612"
    },
    {
      "channel": 3,
      "note": 69,
      "start": 21.5361,
      "duration": 0.4163,
      "velocity": 106,
      "chip": "ym2612"
    },
    {
      "channel": 4,
      "note": 65,
      "start": 21.5364,
      "duration": 0.4162,
      "velocity": 106,
      "chip": "ym2612"
    },
    {
      "channel": 0,
      "note": 45,
      "start": 21.5548,
      "duration": 0.1834,
      "velocity": 95,
      "chip": "ym2612"
    },
    {
      "channel": 0,
      "note": 45,
      "start": 21.7395,
      "duration": 0.0034,
      "velocity": 95,
      "chip": "ym2612"
    },
    {
      "channel": 0,
      "note": 45,
      "start": 21.7617,
      "duration": 0.1834,
      "velocity": 95,
      "chip": "ym2612"
    },
    {
      "channel": 0,
      "note": 45,
      "start": 21.9471,
      "duration": 0.0046,
      "velocity": 95,
      "chip": "ym2612"
    },
    {
      "channel": 0,
      "note": 45,
      "start": 21.952,
      "duration": 0.0189,
      "velocity": 95,
      "chip": "ym2612"
    },
    {
      "channel": 1,
      "note": 71,
      "start": 21.9522,
      "duration": 0.4149,
      "velocity": 106,
      "chip": "ym2612"
    },
    {
      "channel": 2,
      "note": 57,
      "start": 21.9524,
      "duration": 0.415,
      "velocity": 106,
      "chip": "ym2612"
    },
    {
      "channel": 3,
      "note": 67,
      "start": 21.9526,
      "duration": 0.4149,
      "velocity": 106,
      "chip": "ym2612"
    },
    {
      "channel": 4,
      "note": 62,
      "start": 21.9528,
      "duration": 0.4149,
      "velocity": 106,
      "chip": "ym2612"
    },
    {
      "channel": 0,
      "note": 45,
      "start": 21.9711,
      "duration": 0.1834,
      "velocity": 95,
      "chip": "ym2612"
    },
    {
      "channel": 0,
      "note": 45,
      "start": 22.1561,
      "duration": 0.0351,
      "velocity": 95,
      "chip": "ym2612"
    },
    {
      "channel": 0,
      "note": 45,
      "start": 22.3583,
      "duration": 0.0014,
      "velocity": 95,
      "chip": "ym2612"
    },
    {
      "channel": 0,
      "note": 45,
      "start": 22.3621,
      "duration": 0.0047,
      "velocity": 95,
      "chip": "ym2612"
    },
    {
      "channel": 0,
      "note": 45,
      "start": 22.367,
      "duration": 0.0189,
      "velocity": 95,
      "chip": "ym2612"
    },
    {
      "channel": 1,
      "note": 76,
      "start": 22.3673,
      "duration": 0.8399,
      "velocity": 106,
      "chip": "ym2612"
    },
    {
      "channel": 2,
      "note": 57,
      "start": 22.3674,
      "duration": 0.8399,
      "velocity": 106,
      "chip": "ym2612"
    },
    {
      "channel": 3,
      "note": 72,
      "start": 22.3677,
      "duration": 0.8399,
      "velocity": 106,
      "chip": "ym2612"
    },
    {
      "channel": 4,
      "note": 69,
      "start": 22.3679,
      "duration": 0.8399,
      "velocity": 106,
      "chip": "ym2612"
    },
    {
      "channel": 0,
      "note": 45,
      "start": 22.3862,
      "duration": 0.1834,
      "velocity": 95,
      "chip": "ym2612"
    },
    {
      "channel": 0,
      "note": 45,
      "start": 22.5708,
      "duration": 0.0029,
      "velocity": 95,
      "chip": "ym2612"
    },
    {
      "channel": 0,
      "note": 45,
      "start": 22.5927,
      "duration": 0.1834,
      "velocity": 95,
      "chip": "ym2612"
    },
    {
      "channel": 0,
      "note": 45,
      "start": 22.7783,
      "duration": 0.0046,
      "velocity": 95,
      "chip": "ym2612"
    },
    {
      "channel": 0,
      "note": 45,
      "start": 22.7832,
      "duration": 0.0194,
      "velocity": 95,
      "chip": "ym2612"
    },
    {
      "channel": 0,
      "note": 45,
      "start": 22.8028,
      "duration": 0.1834,
      "velocity": 95,
      "chip": "ym2612"
    },
    {
      "channel": 0,
      "note": 45,
      "start": 22.9899,
      "duration": 0.0049,
      "velocity": 95,
      "chip": "ym2612"
    },
    {
      "channel": 0,
      "note": 45,
      "start": 23.015,
      "duration": 0.1834,
      "velocity": 95,
      "chip": "ym2612"
    },
    {
      "channel": 0,
      "note": 45,
      "start": 23.2017,
      "duration": 0.0051,
      "velocity": 95,
      "chip": "ym2612"
    },
    {
      "channel": 0,
      "note": 45,
      "start": 23.2071,
      "duration": 0.0192,
      "velocity": 95,
      "chip": "ym2612"
    },
    {
      "channel": 1,
      "note": 72,
      "start": 23.2073,
      "duration": 0.4168,
      "velocity": 106,
      "chip": "ym2612"
    },
    {
      "channel": 2,
      "note": 57,
      "start": 23.2075,
      "duration": 0.4168,
      "velocity": 106,
      "chip": "ym2612"
    },
    {
      "channel": 3,
      "note": 69,
      "start": 23.2077,
      "duration": 0.4168,
      "velocity": 106,
      "chip": "ym2612"
    },
    {
      "channel": 4,
      "note": 65,
      "start": 23.208,
      "duration": 0.4168,
      "velocity": 106,
      "chip": "ym2612"
    },
    {
      "channel": 0,
      "note": 45,
      "start": 23.2265,
      "duration": 0.1834,
      "velocity": 95,
      "chip": "ym2612"
    },
    {
      "channel": 0,
      "note": 45,
      "start": 23.4114,
      "duration": 0.0032,
      "velocity": 95,
      "chip": "ym2612"
    },
    {
      "channel": 0,
      "note": 45,
      "start": 23.4335,
      "duration": 0.1834,
      "velocity": 95,
      "chip": "ym2612"
    },
    {
      "channel": 0,
      "note": 45,
      "start": 23.619,
      "duration": 0.0047,
      "velocity": 95,
      "chip": "ym2612"
    },
    {
      "channel": 0,
      "note": 45,
      "start": 23.624,
      "duration": 0.0191,
      "velocity": 95,
      "chip": "ym2612"
    },
    {
      "channel": 1,
      "note": 79,
      "start": 23.6242,
      "duration": 0.2664,
      "velocity": 106,
      "chip": "ym2612"
    },
    {
      "channel": 2,
      "note": 57,
      "start": 23.6244,
      "duration": 0.2676,
      "velocity": 106,
      "chip": "ym2612"
    },
    {
      "channel": 3,
      "note": 74,
      "start": 23.6247,
      "duration": 32.8172,
      "velocity": 106,
      "chip": "ym2612"
    },
    {
      "channel": 4,
      "note": 71,
      "start": 23.6249,
      "duration": 32.8169,
      "velocity": 106,
      "chip": "ym2612"
    },
    {
      "channel": 0,
      "note": 45,
      "start": 23.6434,
      "duration": 0.1834,
      "velocity": 95,
      "chip": "ym2612"
    },
    {
      "channel": 0,
      "note": 45,
      "start": 23.8279,
      "duration": 0.0031,
      "velocity": 95,
      "chip": "ym2612"
    },
    {
      "channel": 0,
      "note": 45,
      "start": 23.8496,
      "duration": 0.001,
      "velocity": 95,
      "chip": "ym2612"
    },
    {
      "channel": 0,
      "note": 45,
      "start": 23.8856,
      "duration": 0.0048,
      "velocity": 95,
      "chip": "ym2612"
    },
    {
      "channel": 0,
      "note": 43,
      "start": 23.8905,
      "duration": 32.5513,
      "velocity": 95,
      "chip": "ym2612"
    },
    {
      "channel": 2,
      "note": 76,
      "start": 23.8923,
      "duration": 32.5495,
      "velocity": 106,
      "chip": "ym2612"
    }
  ]
}