{
  "track_name": "12 - Saturn Stage 2",
  "duration_sec": 153.538,
  "sample_rate": 44100,
  "note_count": 2230,
  "unique_pitches": 45,
  "pitch_range": 52,
  "avg_note_duration": 0.3114,
  "reconstruction_stats": {
    "notes_reconstructed": 2230,
    "keyon_events": 2230,
    "keyoff_events": 2226,
    "orphan_keyons": 4,
    "unique_pitches": 45,
    "pitch_range": 52,
    "avg_duration_sec": 0.3114
  },
  "metadata": {
    "source": "O\\Ooparts\\12 - Saturn Stage 2.vgz"
  },
  "notes": [
    {
      "channel": 0,
      "note": -1,
      "start": 0.0244,
      "duration": 0.0145,
      "velocity": 127,
      "chip": "ym2612"
    },
    {
      "channel": 1,
      "note": -1,
      "start": 0.0248,
      "duration": 0.1232,
      "velocity": 123,
      "chip": "ym2612"
    },
    {
      "channel": 0,
      "note": 76,
      "start": 0.039,
      "duration": 0.1089,
      "velocity": 127,
      "chip": "ym2612"
    },
    {
      "channel": 1,
      "note": 52,
      "start": 0.2727,
      "duration": 0.0309,
      "velocity": 114,
      "chip": "ym2612"
    },
    {
      "channel": 1,
      "note": 98,
      "start": 0.3973,
      "duration": 0.0309,
      "velocity": 114,
      "chip": "ym2612"
    },
    {
      "channel": 0,
      "note": 49,
      "start": 0.5214,
      "duration": 0.0156,
      "velocity": 127,
      "chip": "ym2612"
    },
    {
      "channel": 1,
      "note": 98,
      "start": 0.5218,
      "duration": 0.1242,
      "velocity": 123,
      "chip": "ym2612"
    },
    {
      "channel": 0,
      "note": 76,
      "start": 0.537,
      "duration": 0.1089,
      "velocity": 127,
      "chip": "ym2612"
    },
    {
      "channel": 1,
      "note": 52,
      "start": 0.7707,
      "duration": 0.0309,
      "velocity": 114,
      "chip": "ym2612"
    },
    {
      "channel": 0,
      "note": 63,
      "start": 0.8949,
      "duration": 0.0311,
      "velocity": 127,
      "chip": "ym2612"
    },
    {
      "channel": 1,
      "note": 98,
      "start": 0.8953,
      "duration": 0.0309,
      "velocity": 114,
      "chip": "ym2612"
    },
    {
      "channel": 0,
      "note": 69,
      "start": 0.9261,
      "duration": 0.0311,
      "velocity": 127,
      "chip": "ym2612"
    },
    {
      "channel": 0,
      "note": 69,
      "start": 0.9572,
      "duration": 0.0311,
      "velocity": 127,
      "chip": "ym2612"
    },
    {
      "channel": 0,
      "note": 69,
      "start": 0.9883,
      "duration": 0.0311,
      "velocity": 127,
      "chip": "ym2612"
    },
    {
      "channel": 0,
      "note": 69,
      "start": 1.0195,
      "duration": 0.0156,
      "velocity": 127,
      "chip": "ym2612"
    },
    {
      "channel": 1,
      "note": 98,
      "start": 1.0198,
      "duration": 0.1245,
      "velocity": 123,
      "chip": "ym2612"
    },
    {
      "channel": 0,
      "note": 76,
      "start": 1.035,
      "duration": 0.1089,
      "velocity": 127,
      "chip": "ym2612"
    },
    {
      "channel": 0,
      "note": 67,
      "start": 1.1439,
      "duration": 0.0156,
      "velocity": 127,
      "chip": "ym2612"
    },
    {
      "channel": 1,
      "note": 54,
      "start": 1.1443,
      "duration": 0.1245,
      "velocity": 114,
      "chip": "ym2612"
    },
    {
      "channel": 0,
      "note": 69,
      "start": 1.1595,
      "duration": 0.2334,
      "velocity": 127,
      "chip": "ym2612"
    },
    {
      "channel": 1,
      "note": 54,
      "start": 1.2688,
      "duration": 0.0309,
      "velocity": 114,
      "chip": "ym2612"
    },
    {
      "channel": 1,
      "note": 98,
      "start": 1.3933,
      "duration": 0.1245,
      "velocity": 123,
      "chip": "ym2612"
    },
    {
      "channel": 1,
      "note": 54,
      "start": 1.5178,
      "duration": 0.1243,
      "velocity": 123,
      "chip": "ym2612"
    },
    {
      "channel": 0,
      "note": 55,
      "start": 1.7665,
      "duration": 0.0156,
      "velocity": 127,
      "chip": "ym2612"
    },
    {
      "channel": 1,
      "note": 52,
      "start": 1.7668,
      "duration": 0.0309,
      "velocity": 114,
      "chip": "ym2612"
    },
    {
      "channel": 0,
      "note": 76,
      "start": 1.782,
      "duration": 0.1089,
      "velocity": 127,
      "chip": "ym2612"
    },
    {
      "channel": 1,
      "note": 98,
      "start": 1.8913,
      "duration": 0.0309,
      "velocity": 114,
      "chip": "ym2612"
    },
    {
      "channel": 0,
      "note": 65,
      "start": 2.0157,
      "duration": 0.1245,
      "velocity": 114,
      "chip": "ym2612"
    },
    {
      "channel": 1,
      "note": 98,
      "start": 2.0161,
      "duration": 0.3732,
      "velocity": 93,
      "chip": "ym2612"
    },
    {
      "channel": 2,
      "note": -1,
      "start": 2.0165,
      "duration": 0.9955,
      "velocity": 103,
      "chip": "ym2612"
    },
    {
      "channel": 0,
      "note": 54,
      "start": 2.1402,
      "duration": 0.0309,
      "velocity": 114,
      "chip": "ym2612"
    },
    {
      "channel": 4,
      "note": -1,
      "start": 2.1558,
      "duration": 0.996,
      "velocity": 103,
      "chip": "ym2612"
    },
    {
      "channel": 0,
      "note": 98,
      "start": 2.2647,
      "duration": 0.0309,
      "velocity": 114,
      "chip": "ym2612"
    },
    {
      "channel": 0,
      "note": 98,
      "start": 2.3892,
      "duration": 0.0154,
      "velocity": 127,
      "chip": "ym2612"
    },
    {
      "channel": 1,
      "note": 57,
      "start": 2.3893,
      "duration": 0.062,
      "velocity": 93,
      "chip": "ym2612"
    },
    {
      "channel": 0,
      "note": 76,
      "start": 2.4046,
      "duration": 0.1091,
      "velocity": 114,
      "chip": "ym2612"
    },
    {
      "channel": 0,
      "note": 67,
      "start": 2.5137,
      "duration": 0.0309,
      "velocity": 114,
      "chip": "ym2612"
    },
    {
      "channel": 0,
      "note": 98,
      "start": 2.6382,
      "duration": 0.1245,
      "velocity": 123,
      "chip": "ym2612"
    },
    {
      "channel": 1,
      "note": 69,
      "start": 2.6383,
      "duration": 0.0309,
      "velocity": 93,
      "chip": "ym2612"
    },
    {
      "channel": 0,
      "note": 54,
      "start": 2.7627,
      "duration": 0.1245,
      "velocity": 114,
      "chip": "ym2612"
    },
    {
      "channel": 1,
      "note": 57,
      "start": 2.7628,
      "duration": 0.249,
      "velocity": 93,
      "chip": "ym2612"
    },
    {
      "channel": 0,
      "note": 54,
      "start": 2.8872,
      "duration": 0.0309,
      "velocity": 114,
      "chip": "ym2612"
    },
    {
      "channel": 0,
      "note": 98,
      "start": 3.0117,
      "duration": 0.1245,
      "velocity": 114,
      "chip": "ym2612"
    },
    {
      "channel": 1,
      "note": 57,
      "start": 3.0119,
      "duration": 0.498,
      "velocity": 93,
      "chip": "ym2612"
    },
    {
      "channel": 2,
      "note": 84,
      "start": 3.012,
      "duration": 0.9961,
      "velocity": 103,
      "chip": "ym2612"
    },
    {
      "channel": 0,
      "note": 54,
      "start": 3.1362,
      "duration": 0.0309,
      "velocity": 114,
      "chip": "ym2612"
    },
    {
      "channel": 4,
      "note": 84,
      "start": 3.1518,
      "duration": 0.996,
      "velocity": 103,
      "chip": "ym2612"
    },
    {
      "channel": 0,
      "note": 98,
      "start": 3.2607,
      "duration": 0.1245,
      "velocity": 114,
      "chip": "ym2612"
    },
    {
      "channel": 0,
      "note": 54,
      "start": 3.3852,
      "duration": 0.0309,
      "velocity": 114,
      "chip": "ym2612"
    },
    {
      "channel": 0,
      "note": 98,
      "start": 3.5098,
      "duration": 0.0154,
      "velocity": 127,
      "chip": "ym2612"
    },
    {
      "channel": 1,
      "note": 52,
      "start": 3.5099,
      "duration": 0.498,
      "velocity": 93,
      "chip": "ym2612"
    },
    {
      "channel": 0,
      "note": 76,
      "start": 3.5251,
      "duration": 0.1091,
      "velocity": 114,
      "chip": "ym2612"
    },
    {
      "channel": 0,
      "note": 67,
      "start": 3.6343,
      "duration": 0.0309,
      "velocity": 114,
      "chip": "ym2612"
    },
    {
      "channel": 0,
      "note": 98,
      "start": 3.7588,
      "duration": 0.249,
      "velocity": 123,
      "chip": "ym2612"
    },
    {
      "channel": 0,
      "note": 98,
      "start": 4.0078,
      "duration": 0.1245,
      "velocity": 114,
      "chip": "ym2612"
    },
    {
      "channel": 1,
      "note": 55,
      "start": 4.0079,
      "duration": 0.3735,
      "velocity": 93,
      "chip": "ym2612"
    },
    {
      "channel": 2,
      "note": 83,
      "start": 4.008,
      "duration": 0.4979,
      "velocity": 103,
      "chip": "ym2612"
    },
    {
      "channel": 0,
      "note": 54,
      "start": 4.1323,
      "duration": 0.0309,
      "velocity": 114,
      "chip": "ym2612"
    },
    {
      "channel": 4,
      "note": 83,
      "start": 4.1479,
      "duration": 0.498,
      "velocity": 103,
      "chip": "ym2612"
    },
    {
      "channel": 0,
      "note": 98,
      "start": 4.2568,
      "duration": 0.0309,
      "velocity": 114,
      "chip": "ym2612"
    },
    {
      "channel": 0,
      "note": 98,
      "start": 4.3813,
      "duration": 0.0154,
      "velocity": 127,
      "chip": "ym2612"
    },
    {
      "channel": 1,
      "note": 57,
      "start": 4.3814,
      "duration": 0.062,
      "velocity": 93,
      "chip": "ym2612"
    },
    {
      "channel": 0,
      "note": 76,
      "start": 4.3966,
      "duration": 0.1091,
      "velocity": 114,
      "chip": "ym2612"
    },
    {
      "channel": 0,
      "note": 67,
      "start": 4.5058,
      "duration": 0.0309,
      "velocity": 114,
      "chip": "ym2612"
    },
    {
      "channel": 2,
      "note": 79,
      "start": 4.506,
      "duration": 0.498,
      "velocity": 103,
      "chip": "ym2612"
    },
    {
      "channel": 0,
      "note": 98,
      "start": 4.6303,
      "duration": 0.1245,
      "velocity": 123,
      "chip": "ym2612"
    },
    {
      "channel": 1,
      "note": 69,
      "start": 4.6304,
      "duration": 0.0309,
      "velocity": 93,
      "chip": "ym2612"
    },
    {
      "channel": 4,
      "note": 79,
      "start": 4.6459,
      "duration": 0.498,
      "velocity": 103,
      "chip": "ym2612"
    },
    {
      "channel": 0,
      "note": 54,
      "start": 4.7548,
      "duration": 0.1245,
      "velocity": 114,
      "chip": "ym2612"
    },
    {
      "channel": 1,
      "note": 57,
      "start": 4.7549,
      "duration": 0.249,
      "velocity": 93,
      "chip": "ym2612"
    },
    {
      "channel": 0,
      "note": 54,
      "start": 4.8793,
      "duration": 0.0309,
      "velocity": 114,
      "chip": "ym2612"
    },
    {
      "channel": 0,
      "note": 98,
      "start": 5.0038,
      "duration": 0.1245,
      "velocity": 114,
      "chip": "ym2612"
    },
    {
      "channel": 1,
      "note": 57,
      "start": 5.0039,
      "duration": 0.3735,
      "velocity": 93,
      "chip": "ym2612"
    },
    {
      "channel": 2,
      "note": 76,
      "start": 5.0041,
      "duration": 0.498,
      "velocity": 103,
      "chip": "ym2612"
    },
    {
      "channel": 0,
      "note": 54,
      "start": 5.1283,
      "duration": 0.0309,
      "velocity": 114,
      "chip": "ym2612"
    },
    {
      "channel": 4,
      "note": 76,
      "start": 5.1439,
      "duration": 0.498,
      "velocity": 103,
      "chip": "ym2612"
    },
    {
      "channel": 0,
      "note": 98,
      "start": 5.2528,
      "duration": 0.1245,
      "velocity": 114,
      "chip": "ym2612"
    },
    {
      "channel": 0,
      "note": 54,
      "start": 5.3773,
      "duration": 0.0309,
      "velocity": 114,
      "chip": "ym2612"
    },
    {
      "channel": 0,
      "note": 98,
      "start": 5.5018,
      "duration": 0.0154,
      "velocity": 127,
      "chip": "ym2612"
    },
    {
      "channel": 1,
      "note": 64,
      "start": 5.502,
      "duration": 0.3732,
      "velocity": 93,
      "chip": "ym2612"
    },
    {
      "channel": 2,
      "note": 81,
      "start": 5.5021,
      "duration": 0.249,
      "velocity": 103,
      "chip": "ym2612"
    },
    {
      "channel": 0,
      "note": 76,
      "start": 5.5172,
      "duration": 0.1091,
      "velocity": 114,
      "chip": "ym2612"
    },
    {
      "channel": 0,
      "note": 67,
      "start": 5.6263,
      "duration": 0.0309,
      "velocity": 114,
      "chip": "ym2612"
    },
    {
      "channel": 4,
      "note": 81,
      "start": 5.642,
      "duration": 0.249,
      "velocity": 103,
      "chip": "ym2612"
    },
    {
      "channel": 0,
      "note": 98,
      "start": 5.7508,
      "duration": 0.249,
      "velocity": 123,
      "chip": "ym2612"
    },
    {
      "channel": 2,
      "note": 81,
      "start": 5.7511,
      "duration": 0.2491,
      "velocity": 103,
      "chip": "ym2612"
    },
    {
      "channel": 4,
      "note": 81,
      "start": 5.891,
      "duration": 0.249,
      "velocity": 103,
      "chip": "ym2612"
    },
    {
      "channel": 0,
      "note": 98,
      "start": 5.9999,
      "duration": 0.1245,
      "velocity": 114,
      "chip": "ym2612"
    },
    {
      "channel": 1,
      "note": 64,
      "start": 6.0,
      "duration": 0.3735,
      "velocity": 93,
      "chip": "ym2612"
    },
    {
      "channel": 2,
      "note": 83,
      "start": 6.0001,
      "duration": 0.996,
      "velocity": 103,
      "chip": "ym2612"
    },
    {
      "channel": 0,
      "note": 54,
      "start": 6.1244,
      "duration": 0.0309,
      "velocity": 114,
      "chip": "ym2612"
    },
    {
      "channel": 4,
      "note": 83,
      "start": 6.14,
      "duration": 0.996,
      "velocity": 103,
      "chip": "ym2612"
    },
    {
      "channel": 0,
      "note": 98,
      "start": 6.2489,
      "duration": 0.0309,
      "velocity": 114,
      "chip": "ym2612"
    },
    {
      "channel": 0,
      "note": 98,
      "start": 6.3734,
      "duration": 0.0154,
      "velocity": 127,
      "chip": "ym2612"
    },
    {
      "channel": 1,
      "note": 57,
      "start": 6.3735,
      "duration": 0.062,
      "velocity": 93,
      "chip": "ym2612"
    },
    {
      "channel": 0,
      "note": 76,
      "start": 6.3887,
      "duration": 0.1091,
      "velocity": 114,
      "chip": "ym2612"
    },
    {
      "channel": 0,
      "note": 67,
      "start": 6.4979,
      "duration": 0.0309,
      "velocity": 114,
      "chip": "ym2612"
    },
    {
      "channel": 0,
      "note": 98,
      "start": 6.6224,
      "duration": 0.1245,
      "velocity": 123,
      "chip": "ym2612"
    },
    {
      "channel": 1,
      "note": 69,
      "start": 6.6225,
      "duration": 0.0309,
      "velocity": 93,
      "chip": "ym2612"
    },
    {
      "channel": 0,
      "note": 54,
      "start": 6.7469,
      "duration": 0.1245,
      "velocity": 114,
      "chip": "ym2612"
    },
    {
      "channel": 1,
      "note": 57,
      "start": 6.747,
      "duration": 0.249,
      "velocity": 93,
      "chip": "ym2612"
    },
    {
      "channel": 0,
      "note": 54,
      "start": 6.8714,
      "duration": 0.0309,
      "velocity": 114,
      "chip": "ym2612"
    },
    {
      "channel": 0,
      "note": 98,
      "start": 6.9959,
      "duration": 0.1245,
      "velocity": 114,
      "chip": "ym2612"
    },
    {
      "channel": 1,
      "note": 57,
      "start": 6.996,
      "duration": 0.498,
      "velocity": 93,
      "chip": "ym2612"
    },
    {
      "channel": 2,
      "note": 84,
      "start": 6.9961,
      "duration": 0.9961,
      "velocity": 103,
      "chip": "ym2612"
    },
    {
      "channel": 0,
      "note": 54,
      "start": 7.1204,
      "duration": 0.0309,
      "velocity": 114,
      "chip": "ym2612"
    },
    {
      "channel": 4,
      "note": 84,
      "start": 7.136,
      "duration": 0.996,
      "velocity": 103,
      "chip": "ym2612"
    },
    {
      "channel": 0,
      "note": 98,
      "start": 7.2449,
      "duration": 0.1245,
      "velocity": 114,
      "chip": "ym2612"
    },
    {
      "channel": 0,
      "note": 54,
      "start": 7.3694,
      "duration": 0.0309,
      "velocity": 114,
      "chip": "ym2612"
    },
    {
      "channel": 0,
      "note": 98,
      "start": 7.4939,
      "duration": 0.0154,
      "velocity": 127,
      "chip": "ym2612"
    },
    {
      "channel": 1,
      "note": 52,
      "start": 7.494,
      "duration": 0.498,
      "velocity": 93,
      "chip": "ym2612"
    },
    {
      "channel": 0,
      "note": 76,
      "start": 7.5093,
      "duration": 0.1091,
      "velocity": 114,
      "chip": "ym2612"
    },
    {
      "channel": 0,
      "note": 67,
      "start": 7.6184,
      "duration": 0.0309,
      "velocity": 114,
      "chip": "ym2612"
    },
    {
      "channel": 0,
      "note": 98,
      "start": 7.7429,
      "duration": 0.249,
      "velocity": 123,
      "chip": "ym2612"
    },
    {
      "channel": 0,
      "note": 98,
      "start": 7.992,
      "duration": 0.1245,
      "velocity": 114,
      "chip": "ym2612"
    },
    {
      "channel": 1,
      "note": 55,
      "start": 7.9921,
      "duration": 0.3735,
      "velocity": 93,
      "chip": "ym2612"
    },
    {
      "channel": 2,
      "note": 86,
      "start": 7.9922,
      "duration": 0.996,
      "velocity": 103,
      "chip": "ym2612"
    },
    {
      "channel": 0,
      "note": 54,
      "start": 8.1164,
      "duration": 0.0309,
      "velocity": 114,
      "chip": "ym2612"
    },
    {
      "channel": 4,
      "note": 86,
      "start": 8.132,
      "duration": 0.996,
      "velocity": 103,
      "chip": "ym2612"
    },
    {
      "channel": 0,
      "note": 98,
      "start": 8.2409,
      "duration": 0.0309,
      "velocity": 114,
      "chip": "ym2612"
    },
    {
      "channel": 0,
      "note": 98,
      "start": 8.3654,
      "duration": 0.0154,
      "velocity": 127,
      "chip": "ym2612"
    },
    {
      "channel": 1,
      "note": 57,
      "start": 8.3656,
      "duration": 0.062,
      "velocity": 93,
      "chip": "ym2612"
    },
    {
      "channel": 0,
      "note": 76,
      "start": 8.3808,
      "duration": 0.1091,
      "velocity": 114,
      "chip": "ym2612"
    },
    {
      "channel": 0,
      "note": 67,
      "start": 8.4899,
      "duration": 0.0309,
      "velocity": 114,
      "chip": "ym2612"
    },
    {
      "channel": 0,
      "note": 98,
      "start": 8.6144,
      "duration": 0.1245,
      "velocity": 123,
      "chip": "ym2612"
    },
    {
      "channel": 1,
      "note": 69,
      "start": 8.6146,
      "duration": 0.0309,
      "velocity": 93,
      "chip": "ym2612"
    },
    {
      "channel": 0,
      "note": 54,
      "start": 8.739,
      "duration": 0.1245,
      "velocity": 114,
      "chip": "ym2612"
    },
    {
      "channel": 1,
      "note": 57,
      "start": 8.7391,
      "duration": 0.249,
      "velocity": 93,
      "chip": "ym2612"
    },
    {
      "channel": 0,
      "note": 54,
      "start": 8.8635,
      "duration": 0.0309,
      "velocity": 114,
      "chip": "ym2612"
    },
    {
      "channel": 0,
      "note": 98,
      "start": 8.988,
      "duration": 0.1245,
      "velocity": 114,
      "chip": "ym2612"
    },
    {
      "channel": 1,
      "note": 57,
      "start": 8.9881,
      "duration": 0.3735,
      "velocity": 93,
      "chip": "ym2612"
    },
    {
      "channel": 2,
      "note": 83,
      "start": 8.9882,
      "duration": 0.9961,
      "velocity": 103,
      "chip": "ym2612"
    },
    {
      "channel": 0,
      "note": 54,
      "start": 9.1125,
      "duration": 0.0309,
      "velocity": 114,
      "chip": "ym2612"
    },
    {
      "channel": 4,
      "note": 83,
      "start": 9.1281,
      "duration": 0.996,
      "velocity": 103,
      "chip": "ym2612"
    },
    {
      "channel": 0,
      "note": 98,
      "start": 9.237,
      "duration": 0.1245,
      "velocity": 114,
      "chip": "ym2612"
    },
    {
      "channel": 0,
      "note": 54,
      "start": 9.3615,
      "duration": 0.0309,
      "velocity": 114,
      "chip": "ym2612"
    },
    {
      "channel": 0,
      "note": 98,
      "start": 9.486,
      "duration": 0.0154,
      "velocity": 127,
      "chip": "ym2612"
    },
    {
      "channel": 1,
      "note": 64,
      "start": 9.4861,
      "duration": 0.3732,
      "velocity": 93,
      "chip": "ym2612"
    },
    {
      "channel": 0,
      "note": 76,
      "start": 9.5013,
      "duration": 0.1091,
      "velocity": 114,
      "chip": "ym2612"
    },
    {
      "channel": 0,
      "note": 67,
      "start": 9.6105,
      "duration": 0.0309,
      "velocity": 114,
      "chip": "ym2612"
    },
    {
      "channel": 0,
      "note": 98,
      "start": 9.735,
      "duration": 0.249,
      "velocity": 123,
      "chip": "ym2612"
    },
    {
      "channel": 0,
      "note": 98,
      "start": 9.984,
      "duration": 0.1245,
      "velocity": 114,
      "chip": "ym2612"
    },
    {
      "channel": 1,
      "note": 64,
      "start": 9.9842,
      "duration": 0.3734,
      "velocity": 93,
      "chip": "ym2612"
    },
    {
      "channel": 2,
      "note": 79,
      "start": 9.9844,
      "duration": 0.9959,
      "velocity": 103,
      "chip": "ym2612"
    },
    {
      "channel": 0,
      "note": 54,
      "start": 10.1085,
      "duration": 0.0309,
      "velocity": 114,
      "chip": "ym2612"
    },
    {
      "channel": 4,
      "note": 79,
      "start": 10.1241,
      "duration": 0.996,
      "velocity": 103,
      "chip": "ym2612"
    },
    {
      "channel": 0,
      "note": 98,
      "start": 10.233,
      "duration": 0.0309,
      "velocity": 114,
      "chip": "ym2612"
    },
    {
      "channel": 0,
      "note": 98,
      "start": 10.3575,
      "duration": 0.0154,
      "velocity": 127,
      "chip": "ym2612"
    },
    {
      "channel": 1,
      "note": 57,
      "start": 10.3576,
      "duration": 0.062,
      "velocity": 93,
      "chip": "ym2612"
    },
    {
      "channel": 0,
      "note": 76,
      "start": 10.3729,
      "duration": 0.1091,
      "velocity": 114,
      "chip": "ym2612"
    },
    {
      "channel": 0,
      "note": 67,
      "start": 10.482,
      "duration": 0.0309,
      "velocity": 114,
      "chip": "ym2612"
    },
    {
      "channel": 0,
      "note": 98,
      "start": 10.6065,
      "duration": 0.1245,
      "velocity": 123,
      "chip": "ym2612"
    },
    {
      "channel": 1,
      "note": 69,
      "start": 10.6066,
      "duration": 0.0309,
      "velocity": 93,
      "chip": "ym2612"
    },
    {
      "channel": 0,
      "note": 54,
      "start": 10.731,
      "duration": 0.1245,
      "velocity": 114,
      "chip": "ym2612"
    },
    {
      "channel": 1,
      "note": 57,
      "start": 10.7312,
      "duration": 0.249,
      "velocity": 93,
      "chip": "ym2612"
    },
    {
      "channel": 0,
      "note": 54,
      "start": 10.8555,
      "duration": 0.0309,
      "velocity": 114,
      "chip": "ym2612"
    },
    {
      "channel": 0,
      "note": 98,
      "start": 10.98,
      "duration": 0.1245,
      "velocity": 114,
      "chip": "ym2612"
    },
    {
      "channel": 1,
      "note": 57,
      "start": 10.9802,
      "duration": 0.498,
      "velocity": 93,
      "chip": "ym2612"
    },
    {
      "channel": 2,
      "note": 84,
      "start": 10.9803,
      "duration": 0.9961,
      "velocity": 103,
      "chip": "ym2612"
    },
    {
      "channel": 0,
      "note": 54,
      "start": 11.1045,
      "duration": 0.0309,
      "velocity": 114,
      "chip": "ym2612"
    },
    {
      "channel": 4,
      "note": 84,
      "start": 11.1202,
      "duration": 0.996,
      "velocity": 103,
      "chip": "ym2612"
    },
    {
      "channel": 0,
      "note": 98,
      "start": 11.229,
      "duration": 0.1245,
      "velocity": 114,
      "chip": "ym2612"
    },
    {
      "channel": 0,
      "note": 54,
      "start": 11.3536,
      "duration": 0.0309,
      "velocity": 114,
      "chip": "ym2612"
    },
    {
      "channel": 0,
      "note": 98,
      "start": 11.478,
      "duration": 0.0154,
      "velocity": 127,
      "chip": "ym2612"
    },
    {
      "channel": 1,
      "note": 52,
      "start": 11.4782,
      "duration": 0.498,
      "velocity": 93,
      "chip": "ym2612"
    },
    {
      "channel": 0,
      "note": 76,
      "start": 11.4934,
      "duration": 0.1091,
      "velocity": 114,
      "chip": "ym2612"
    },
    {
      "channel": 0,
      "note": 67,
      "start": 11.6026,
      "duration": 0.0309,
      "velocity": 114,
      "chip": "ym2612"
    },
    {
      "channel": 0,
      "note": 98,
      "start": 11.7271,
      "duration": 0.249,
      "velocity": 123,
      "chip": "ym2612"
    },
    {
      "channel": 0,
      "note": 98,
      "start": 11.9761,
      "duration": 0.1245,
      "velocity": 114,
      "chip": "ym2612"
    },
    {
      "channel": 1,
      "note": 55,
      "start": 11.9762,
      "duration": 0.3735,
      "velocity": 93,
      "chip": "ym2612"
    },
    {
      "channel": 2,
      "note": 83,
      "start": 11.9763,
      "duration": 0.498,
      "velocity": 103,
      "chip": "ym2612"
    },
    {
      "channel": 0,
      "note": 54,
      "start": 12.1006,
      "duration": 0.0309,
      "velocity": 114,
      "chip": "ym2612"
    },
    {
      "channel": 4,
      "note": 83,
      "start": 12.1162,
      "duration": 0.498,
      "velocity": 103,
      "chip": "ym2612"
    },
    {
      "channel": 0,
      "note": 98,
      "start": 12.2251,
      "duration": 0.0309,
      "velocity": 114,
      "chip": "ym2612"
    },
    {
      "channel": 0,
      "note": 98,
      "start": 12.3496,
      "duration": 0.0154,
      "velocity": 127,
      "chip": "ym2612"
    },
    {
      "channel": 1,
      "note": 57,
      "start": 12.3497,
      "duration": 0.062,
      "velocity": 93,
      "chip": "ym2612"
    },
    {
      "channel": 0,
      "note": 76,
      "start": 12.3649,
      "duration": 0.1091,
      "velocity": 114,
      "chip": "ym2612"
    },
    {
      "channel": 0,
      "note": 67,
      "start": 12.4741,
      "duration": 0.0309,
      "velocity": 114,
      "chip": "ym2612"
    },
    {
      "channel": 2,
      "note": 79,
      "start": 12.4743,
      "duration": 0.498,
      "velocity": 103,
      "chip": "ym2612"
    },
    {
      "channel": 0,
      "note": 98,
      "start": 12.5986,
      "duration": 0.1245,
      "velocity": 123,
      "chip": "ym2612"
    },
    {
      "channel": 1,
      "note": 69,
      "start": 12.5987,
      "duration": 0.0309,
      "velocity": 93,
      "chip": "ym2612"
    },
    {
      "channel": 4,
      "note": 79,
      "start": 12.6142,
      "duration": 0.498,
      "velocity": 103,
      "chip": "ym2612"
    },
    {
      "channel": 0,
      "note": 54,
      "start": 12.7231,
      "duration": 0.1245,
      "velocity": 114,
      "chip": "ym2612"
    },
    {
      "channel": 1,
      "note": 57,
      "start": 12.7232,
      "duration": 0.249,
      "velocity": 93,
      "chip": "ym2612"
    },
    {
      "channel": 0,
      "note": 54,
      "start": 12.8476,
      "duration": 0.0309,
      "velocity": 114,
      "chip": "ym2612"
    },
    {
      "channel": 0,
      "note": 98,
      "start": 12.9721,
      "duration": 0.1245,
      "velocity": 114,
      "chip": "ym2612"
    },
    {
      "channel": 1,
      "note": 57,
      "start": 12.9722,
      "duration": 0.3735,
      "velocity": 93,
      "chip": "ym2612"
    },
    {
      "channel": 2,
      "note": 76,
      "start": 12.9724,
      "duration": 0.498,
      "velocity": 103,
      "chip": "ym2612"
    },
    {
      "channel": 0,
      "note": 54,
      "start": 13.0966,
      "duration": 0.0309,
      "velocity": 114,
      "chip": "ym2612"
    },
    {
      "channel": 4,
      "note": 76,
      "start": 13.1122,
      "duration": 0.498,
      "velocity": 103,
      "chip": "ym2612"
    },
    {
      "channel": 0,
      "note": 98,
      "start": 13.2211,
      "duration": 0.1245,
      "velocity": 114,
      "chip": "ym2612"
    },
    {
      "channel": 0,
      "note": 54,
      "start": 13.3456,
      "duration": 0.0309,
      "velocity": 114,
      "chip": "ym2612"
    },
    {
      "channel": 0,
      "note": 98,
      "start": 13.4701,
      "duration": 0.0154,
      "velocity": 127,
      "chip": "ym2612"
    },
    {
      "channel": 1,
      "note": 64,
      "start": 13.4702,
      "duration": 0.3732,
      "velocity": 93,
      "chip": "ym2612"
    },
    {
      "channel": 2,
      "note": 81,
      "start": 13.4704,
      "duration": 0.249,
      "velocity": 103,
      "chip": "ym2612"
    },
    {
      "channel": 0,
      "note": 76,
      "start": 13.4855,
      "duration": 0.1091,
      "velocity": 114,
      "chip": "ym2612"
    },
    {
      "channel": 0,
      "note": 67,
      "start": 13.5946,
      "duration": 0.0309,
      "velocity": 114,
      "chip": "ym2612"
    },
    {
      "channel": 4,
      "note": 81,
      "start": 13.6102,
      "duration": 0.249,
      "velocity": 103,
      "chip": "ym2612"
    },
    {
      "channel": 0,
      "note": 98,
      "start": 13.7191,
      "duration": 0.249,
      "velocity": 123,
      "chip": "ym2612"
    },
    {
      "channel": 2,
      "note": 81,
      "start": 13.7194,
      "duration": 0.2491,
      "velocity": 103,
      "chip": "ym2612"
    },
    {
      "channel": 4,
      "note": 81,
      "start": 13.8593,
      "duration": 0.249,
      "velocity": 103,
      "chip": "ym2612"
    },
    {
      "channel": 0,
      "note": 98,
      "start": 13.9682,
      "duration": 0.1245,
      "velocity": 114,
      "chip": "ym2612"
    },
    {
      "channel": 1,
      "note": 64,
      "start": 13.9683,
      "duration": 0.3735,
      "velocity": 93,
      "chip": "ym2612"
    },
    {
      "channel": 2,
      "note": 83,
      "start": 13.9684,
      "duration": 0.996,
      "velocity": 103,
      "chip": "ym2612"
    },
    {
      "channel": 0,
      "note": 54,
      "start": 14.0927,
      "duration": 0.0309,
      "velocity": 114,
      "chip": "ym2612"
    },
    {
      "channel": 4,
      "note": 83,
      "start": 14.1083,
      "duration": 0.996,
      "velocity": 103,
      "chip": "ym2612"
    },
    {
      "channel": 0,
      "note": 98,
      "start": 14.2172,
      "duration": 0.0309,
      "velocity": 114,
      "chip": "ym2612"
    },
    {
      "channel": 0,
      "note": 98,
      "start": 14.3417,
      "duration": 0.0155,
      "velocity": 127,
      "chip": "ym2612"
    },
    {
      "channel": 1,
      "note": 57,
      "start": 14.3418,
      "duration": 0.062,
      "velocity": 93,
      "chip": "ym2612"
    },
    {
      "channel": 0,
      "note": 76,
      "start": 14.3572,
      "duration": 0.109,
      "velocity": 114,
      "chip": "ym2612"
    },
    {
      "channel": 0,
      "note": 67,
      "start": 14.4662,
      "duration": 0.0309,
      "velocity": 114,
      "chip": "ym2612"
    },
    {
      "channel": 0,
      "note": 98,
      "start": 14.5907,
      "duration": 0.1244,
      "velocity": 123,
      "chip": "ym2612"
    },
    {
      "channel": 1,
      "note": 69,
      "start": 14.5909,
      "duration": 0.0308,
      "velocity": 93,
      "chip": "ym2612"
    },
    {
      "channel": 0,
      "note": 54,
      "start": 14.7152,
      "duration": 0.1245,
      "velocity": 114,
      "chip": "ym2612"
    },
    {
      "channel": 1,
      "note": 57,
      "start": 14.7153,
      "duration": 0.249,
      "velocity": 93,
      "chip": "ym2612"
    },
    {
      "channel": 0,
      "note": 54,
      "start": 14.8397,
      "duration": 0.0309,
      "velocity": 114,
      "chip": "ym2612"
    },
    {
      "channel": 0,
      "note": 98,
      "start": 14.9642,
      "duration": 0.1245,
      "velocity": 114,
      "chip": "ym2612"
    },
    {
      "channel": 1,
      "note": 57,
      "start": 14.9643,
      "duration": 0.498,
      "velocity": 93,
      "chip": "ym2612"
    },
    {
      "channel": 2,
      "note": 84,
      "start": 14.9644,
      "duration": 0.9961,
      "velocity": 103,
      "chip": "ym2612"
    },
    {
      "channel": 0,
      "note": 54,
      "start": 15.0887,
      "duration": 0.0309,
      "velocity": 114,
      "chip": "ym2612"
    },
    {
      "channel": 4,
      "note": 84,
      "start": 15.1043,
      "duration": 0.996,
      "velocity": 103,
      "chip": "ym2612"
    },
    {
      "channel": 0,
      "note": 98,
      "start": 15.2132,
      "duration": 0.1245,
      "velocity": 114,
      "chip": "ym2612"
    },
    {
      "channel": 0,
      "note": 54,
      "start": 15.3377,
      "duration": 0.0309,
      "velocity": 114,
      "chip": "ym2612"
    },
    {
      "channel": 0,
      "note": 98,
      "start": 15.4622,
      "duration": 0.0154,
      "velocity": 127,
      "chip": "ym2612"
    },
    {
      "channel": 1,
      "note": 52,
      "start": 15.4624,
      "duration": 0.498,
      "velocity": 93,
      "chip": "ym2612"
    },
    {
      "channel": 0,
      "note": 76,
      "start": 15.4776,
      "duration": 0.1091,
      "velocity": 114,
      "chip": "ym2612"
    },
    {
      "channel": 0,
      "note": 67,
      "start": 15.5867,
      "duration": 0.0309,
      "velocity": 114,
      "chip": "ym2612"
    },
    {
      "channel": 0,
      "note": 98,
      "start": 15.7112,
      "duration": 0.249,
      "velocity": 123,
      "chip": "ym2612"
    },
    {
      "channel": 0,
      "note": 98,
      "start": 15.9602,
      "duration": 0.1245,
      "velocity": 114,
      "chip": "ym2612"
    },
    {
      "channel": 1,
      "note": 55,
      "start": 15.9604,
      "duration": 0.3735,
      "velocity": 93,
      "chip": "ym2612"
    },
    {
      "channel": 2,
      "note": 86,
      "start": 15.9605,
      "duration": 1.743,
      "velocity": 103,
      "chip": "ym2612"
    },
    {
      "channel": 0,
      "note": 54,
      "start": 16.0847,
      "duration": 0.0309,
      "velocity": 114,
      "chip": "ym2612"
    },
    {
      "channel": 4,
      "note": 86,
      "start": 16.1003,
      "duration": 1.7431,
      "velocity": 103,
      "chip": "ym2612"
    },
    {
      "channel": 0,
      "note": 98,
      "start": 16.2093,
      "duration": 0.0309,
      "velocity": 114,
      "chip": "ym2612"
    },
    {
      "channel": 0,
      "note": 98,
      "start": 16.3337,
      "duration": 0.0154,
      "velocity": 127,
      "chip": "ym2612"
    },
    {
      "channel": 1,
      "note": 57,
      "start": 16.3339,
      "duration": 0.062,
      "velocity": 93,
      "chip": "ym2612"
    },
    {
      "channel": 0,
      "note": 76,
      "start": 16.3491,
      "duration": 0.1091,
      "velocity": 114,
      "chip": "ym2612"
    },
    {
      "channel": 0,
      "note": 67,
      "start": 16.4583,
      "duration": 0.0309,
      "velocity": 114,
      "chip": "ym2612"
    },
    {
      "channel": 0,
      "note": 98,
      "start": 16.5827,
      "duration": 0.1246,
      "velocity": 123,
      "chip": "ym2612"
    },
    {
      "channel": 1,
      "note": 69,
      "start": 16.5829,
      "duration": 0.0309,
      "velocity": 93,
      "chip": "ym2612"
    },
    {
      "channel": 0,
      "note": 54,
      "start": 16.7074,
      "duration": 0.1244,
      "velocity": 114,
      "chip": "ym2612"
    },
    {
      "channel": 1,
      "note": 57,
      "start": 16.7075,
      "duration": 0.2489,
      "velocity": 93,
      "chip": "ym2612"
    },
    {
      "channel": 0,
      "note": 54,
      "start": 16.8318,
      "duration": 0.0309,
      "velocity": 114,
      "chip": "ym2612"
    },
    {
      "channel": 0,
      "note": 98,
      "start": 16.9563,
      "duration": 0.1245,
      "velocity": 114,
      "chip": "ym2612"
    },
    {
      "channel": 1,
      "note": 57,
      "start": 16.9564,
      "duration": 0.3735,
      "velocity": 93,
      "chip": "ym2612"
    },
    {
      "channel": 0,
      "note": 54,
      "start": 17.0808,
      "duration": 0.0309,
      "velocity": 114,
      "chip": "ym2612"
    },
    {
      "channel": 0,
      "note": 98,
      "start": 17.2053,
      "duration": 0.1245,
      "velocity": 114,
      "chip": "ym2612"
    },
    {
      "channel": 0,
      "note": 54,
      "start": 17.3298,
      "duration": 0.0309,
      "velocity": 114,
      "chip": "ym2612"
    },
    {
      "channel": 0,
      "note": 98,
      "start": 17.4543,
      "duration": 0.0154,
      "velocity": 127,
      "chip": "ym2612"
    },
    {
      "channel": 1,
      "note": 64,
      "start": 17.4544,
      "duration": 0.3732,
      "velocity": 93,
      "chip": "ym2612"
    },
    {
      "channel": 0,
      "note": 76,
      "start": 17.4696,
      "duration": 0.1091,
      "velocity": 114,
      "chip": "ym2612"
    },
    {
      "channel": 0,
      "note": 67,
      "start": 17.5788,
      "duration": 0.0309,
      "velocity": 114,
      "chip": "ym2612"
    },
    {
      "channel": 0,
      "note": 98,
      "start": 17.7033,
      "duration": 0.249,
      "velocity": 123,
      "chip": "ym2612"
    },
    {
      "channel": 0,
      "note": 98,
      "start": 17.9523,
      "duration": 0.1245,
      "velocity": 114,
      "chip": "ym2612"
    },
    {
      "channel": 1,
      "note": 64,
      "start": 17.9525,
      "duration": 0.3734,
      "velocity": 93,
      "chip": "ym2612"
    },
    {
      "channel": 2,
      "note": 88,
      "start": 17.9528,
      "duration": 2.4898,
      "velocity": 99,
      "chip": "ym2612"
    },
    {
      "channel": 3,
      "note": -1,
      "start": 17.9532,
      "duration": 1.9916,
      "velocity": 111,
      "chip": "ym2612"
    },
    {
      "channel": 0,
      "note": 54,
      "start": 18.0768,
      "duration": 0.0309,
      "velocity": 114,
      "chip": "ym2612"
    },
    {
      "channel": 5,
      "note": -1,
      "start": 18.0925,
      "duration": 1.9921,
      "velocity": 111,
      "chip": "ym2612"
    },
    {
      "channel": 4,
      "note": 88,
      "start": 18.1392,
      "duration": 2.4901,
      "velocity": 99,
      "chip": "ym2612"
    },
    {
      "channel": 0,
      "note": 98,
      "start": 18.2013,
      "duration": 0.0309,
      "velocity": 114,
      "chip": "ym2612"
    },
    {
      "channel": 0,
      "note": 98,
      "start": 18.3258,
      "duration": 0.0154,
      "velocity": 127,
      "chip": "ym2612"
    },
    {
      "channel": 1,
      "note": 58,
      "start": 18.326,
      "duration": 0.062,
      "velocity": 93,
      "chip": "ym2612"
    },
    {
      "channel": 0,
      "note": 76,
      "start": 18.3412,
      "duration": 0.1091,
      "velocity": 114,
      "chip": "ym2612"
    },
    {
      "channel": 0,
      "note": 67,
      "start": 18.4503,
      "duration": 0.0309,
      "velocity": 114,
      "chip": "ym2612"
    },
    {
      "channel": 0,
      "note": 98,
      "start": 18.5748,
      "duration": 0.1245,
      "velocity": 123,
      "chip": "ym2612"
    },
    {
      "channel": 1,
      "note": 70,
      "start": 18.575,
      "duration": 0.0309,
      "velocity": 93,
      "chip": "ym2612"
    },
    {
      "channel": 0,
      "note": 54,
      "start": 18.6993,
      "duration": 0.1247,
      "velocity": 114,
      "chip": "ym2612"
    },
    {
      "channel": 1,
      "note": 58,
      "start": 18.6995,
      "duration": 0.249,
      "velocity": 93,
      "chip": "ym2612"
    },
    {
      "channel": 0,
      "note": 54,
      "start": 18.824,
      "duration": 0.0307,
      "velocity": 114,
      "chip": "ym2612"
    },
    {
      "channel": 0,
      "note": 98,
      "start": 18.9483,
      "duration": 0.1245,
      "velocity": 114,
      "chip": "ym2612"
    },
    {
      "channel": 1,
      "note": 58,
      "start": 18.9485,
      "duration": 0.498,
      "velocity": 93,
      "chip": "ym2612"
    },
    {
      "channel": 0,
      "note": 54,
      "start": 19.0729,
      "duration": 0.0309,
      "velocity": 114,
      "chip": "ym2612"
    },
    {
      "channel": 0,
      "note": 98,
      "start": 19.1973,
      "duration": 0.1245,
      "velocity": 114,
      "chip": "ym2612"
    },
    {
      "channel": 0,
      "note": 54,
      "start": 19.3219,
      "duration": 0.0309,
      "velocity": 114,
      "chip": "ym2612"
    },
    {
      "channel": 0,
      "note": 98,
      "start": 19.4464,
      "duration": 0.0154,
      "velocity": 127,
      "chip": "ym2612"
    },
    {
      "channel": 1,
      "note": 58,
      "start": 19.4465,
      "duration": 0.498,
      "velocity": 93,
      "chip": "ym2612"
    },
    {
      "channel": 0,
      "note": 76,
      "start": 19.4617,
      "duration": 0.1091,
      "velocity": 114,
      "chip": "ym2612"
    },
    {
      "channel": 0,
      "note": 67,
      "start": 19.5709,
      "duration": 0.0309,
      "velocity": 114,
      "chip": "ym2612"
    },
    {
      "channel": 0,
      "note": 98,
      "start": 19.6954,
      "duration": 0.249,
      "velocity": 123,
      "chip": "ym2612"
    },
    {
      "channel": 0,
      "note": 98,
      "start": 19.9444,
      "duration": 0.1245,
      "velocity": 114,
      "chip": "ym2612"
    },
    {
      "channel": 1,
      "note": 55,
      "start": 19.9445,
      "duration": 0.3735,
      "velocity": 93,
      "chip": "ym2612"
    },
    {
      "channel": 3,
      "note": 46,
      "start": 19.9448,
      "duration": 1.9921,
      "velocity": 111,
      "chip": "ym2612"
    },
    {
      "channel": 0,
      "note": 54,
      "start": 20.0689,
      "duration": 0.0309,
      "velocity": 114,
      "chip": "ym2612"
    },
    {
      "channel": 5,
      "note": 46,
      "start": 20.0846,
      "duration": 1.992,
      "velocity": 111,
      "chip": "ym2612"
    },
    {
      "channel": 0,
      "note": 98,
      "start": 20.1934,
      "duration": 0.0309,
      "velocity": 114,
      "chip": "ym2612"
    },
    {
      "channel": 0,
      "note": 98,
      "start": 20.3179,
      "duration": 0.0154,
      "velocity": 127,
      "chip": "ym2612"
    },
    {
      "channel": 1,
      "note": 60,
      "start": 20.318,
      "duration": 0.062,
      "velocity": 93,
      "chip": "ym2612"
    },
    {
      "channel": 0,
      "note": 76,
      "start": 20.3332,
      "duration": 0.1092,
      "velocity": 114,
      "chip": "ym2612"
    },
    {
      "channel": 0,
      "note": 67,
      "start": 20.4424,
      "duration": 0.0309,
      "velocity": 114,
      "chip": "ym2612"
    },
    {
      "channel": 2,
      "note": 64,
      "start": 20.4426,
      "duration": 0.4982,
      "velocity": 99,
      "chip": "ym2612"
    },
    {
      "channel": 0,
      "note": 98,
      "start": 20.5669,
      "duration": 0.1245,
      "velocity": 123,
      "chip": "ym2612"
    },
    {
      "channel": 1,
      "note": 72,
      "start": 20.567,
      "duration": 0.0309,
      "velocity": 93,
      "chip": "ym2612"
    },
    {
      "channel": 4,
      "note": 64,
      "start": 20.6293,
      "duration": 0.498,
      "velocity": 99,
      "chip": "ym2612"
    },
    {
      "channel": 0,
      "note": 54,
      "start": 20.6914,
      "duration": 0.1245,
      "velocity": 114,
      "chip": "ym2612"
    },
    {
      "channel": 1,
      "note": 60,
      "start": 20.6915,
      "duration": 0.2492,
      "velocity": 93,
      "chip": "ym2612"
    },
    {
      "channel": 0,
      "note": 54,
      "start": 20.8159,
      "duration": 0.0309,
      "velocity": 114,
      "chip": "ym2612"
    },
    {
      "channel": 0,
      "note": 98,
      "start": 20.9406,
      "duration": 0.1243,
      "velocity": 114,
      "chip": "ym2612"
    },
    {
      "channel": 1,
      "note": 60,
      "start": 20.9407,
      "duration": 0.4978,
      "velocity": 93,
      "chip": "ym2612"
    },
    {
      "channel": 2,
      "note": 62,
      "start": 20.9408,
      "duration": 0.4979,
      "velocity": 99,
      "chip": "ym2612"
    },
    {
      "channel": 0,
      "note": 54,
      "start": 21.0649,
      "duration": 0.0309,
      "velocity": 114,
      "chip": "ym2612"
    },
    {
      "channel": 4,
      "note": 62,
      "start": 21.1273,
      "duration": 0.498,
      "velocity": 99,
      "chip": "ym2612"
    },
    {
      "channel": 0,
      "note": 98,
      "start": 21.1894,
      "duration": 0.1245,
      "velocity": 114,
      "chip": "ym2612"
    },
    {
      "channel": 0,
      "note": 54,
      "start": 21.3139,
      "duration": 0.0309,
      "velocity": 114,
      "chip": "ym2612"
    },
    {
      "channel": 0,
      "note": 98,
      "start": 21.4384,
      "duration": 0.0154,
      "velocity": 127,
      "chip": "ym2612"
    },
    {
      "channel": 1,
      "note": 60,
      "start": 21.4386,
      "duration": 0.249,
      "velocity": 93,
      "chip": "ym2612"
    },
    {
      "channel": 2,
      "note": 67,
      "start": 21.4387,
      "duration": 0.498,
      "velocity": 99,
      "chip": "ym2612"
    },
    {
      "channel": 0,
      "note": 76,
      "start": 21.4538,
      "duration": 0.1091,
      "velocity": 114,
      "chip": "ym2612"
    },
    {
      "channel": 0,
      "note": 67,
      "start": 21.5629,
      "duration": 0.0309,
      "velocity": 114,
      "chip": "ym2612"
    },
    {
      "channel": 4,
      "note": 67,
      "start": 21.6253,
      "duration": 0.498,
      "velocity": 99,
      "chip": "ym2612"
    },
    {
      "channel": 0,
      "note": 98,
      "start": 21.6875,
      "duration": 0.249,
      "velocity": 123,
      "chip": "ym2612"
    },
    {
      "channel": 1,
      "note": 57,
      "start": 21.6876,
      "duration": 0.249,
      "velocity": 93,
      "chip": "ym2612"
    },
    {
      "channel": 0,
      "note": 98,
      "start": 21.9365,
      "duration": 0.1245,
      "velocity": 114,
      "chip": "ym2612"
    },
    {
      "channel": 1,
      "note": 60,
      "start": 21.9366,
      "duration": 0.3735,
      "velocity": 93,
      "chip": "ym2612"
    },
    {
      "channel": 2,
      "note": 65,
      "start": 21.9367,
      "duration": 0.747,
      "velocity": 99,
      "chip": "ym2612"
    },
    {
      "channel": 3,
      "note": 48,
      "start": 21.9369,
      "duration": 1.992,
      "velocity": 111,
      "chip": "ym2612"
    },
    {
      "channel": 0,
      "note": 54,
      "start": 22.061,
      "duration": 0.0309,
      "velocity": 114,
      "chip": "ym2612"
    },
    {
      "channel": 5,
      "note": 48,
      "start": 22.0767,
      "duration": 1.9921,
      "velocity": 111,
      "chip": "ym2612"
    },
    {
      "channel": 4,
      "note": 65,
      "start": 22.1233,
      "duration": 0.747,
      "velocity": 99,
      "chip": "ym2612"
    },
    {
      "channel": 0,
      "note": 98,
      "start": 22.1855,
      "duration": 0.0309,
      "velocity": 114,
      "chip": "ym2612"
    },
    {
      "channel": 0,
      "note": 98,
      "start": 22.31,
      "duration": 0.0154,
      "velocity": 127,
      "chip": "ym2612"
    },
    {
      "channel": 1,
      "note": 62,
      "start": 22.3101,
      "duration": 0.062,
      "velocity": 93,
      "chip": "ym2612"
    },
    {
      "channel": 0,
      "note": 76,
      "start": 22.3253,
      "duration": 0.1091,
      "velocity": 114,
      "chip": "ym2612"
    },
    {
      "channel": 0,
      "note": 67,
      "start": 22.4345,
      "duration": 0.0309,
      "velocity": 114,
      "chip": "ym2612"
    },
    {
      "channel": 0,
      "note": 98,
      "start": 22.559,
      "duration": 0.1245,
      "velocity": 123,
      "chip": "ym2612"
    },
    {
      "channel": 1,
      "note": 74,
      "start": 22.5591,
      "duration": 0.0309,
      "velocity": 93,
      "chip": "ym2612"
    },
    {
      "channel": 0,
      "note": 54,
      "start": 22.6835,
      "duration": 0.1245,
      "velocity": 114,
      "chip": "ym2612"
    },
    {
      "channel": 1,
      "note": 62,
      "start": 22.6836,
      "duration": 0.249,
      "velocity": 93,
      "chip": "ym2612"
    },
    {
      "channel": 2,
      "note": 64,
      "start": 22.6837,
      "duration": 2.2411,
      "velocity": 99,
      "chip": "ym2612"
    },
    {
      "channel": 0,
      "note": 54,
      "start": 22.808,
      "duration": 0.0309,
      "velocity": 114,
      "chip": "ym2612"
    },
    {
      "channel": 4,
      "note": 64,
      "start": 22.8703,
      "duration": 2.2411,
      "velocity": 99,
      "chip": "ym2612"
    },
    {
      "channel": 0,
      "note": 98,
      "start": 22.9325,
      "duration": 0.1247,
      "velocity": 114,
      "chip": "ym2612"
    },
    {
      "channel": 1,
      "note": 62,
      "start": 22.9326,
      "duration": 0.498,
      "velocity": 93,
      "chip": "ym2612"
    },
    {
      "channel": 0,
      "note": 54,
      "start": 23.0572,
      "duration": 0.0307,
      "velocity": 114,
      "chip": "ym2612"
    },
    {
      "channel": 0,
      "note": 98,
      "start": 23.1815,
      "duration": 0.1245,
      "velocity": 114,
      "chip": "ym2612"
    },
    {
      "channel": 0,
      "note": 54,
      "start": 23.306,
      "duration": 0.0309,
      "velocity": 114,
      "chip": "ym2612"
    },
    {
      "channel": 0,
      "note": 98,
      "start": 23.4305,
      "duration": 0.0154,
      "velocity": 127,
      "chip": "ym2612"
    },
    {
      "channel": 1,
      "note": 62,
      "start": 23.4307,
      "duration": 0.3732,
      "velocity": 93,
      "chip": "ym2612"
    },
    {
      "channel": 0,
      "note": 76,
      "start": 23.4459,
      "duration": 0.1091,
      "velocity": 114,
      "chip": "ym2612"
    },
    {
      "channel": 0,
      "note": 67,
      "start": 23.555,
      "duration": 0.0309,
      "velocity": 114,
      "chip": "ym2612"
    },
    {
      "channel": 0,
      "note": 98,
      "start": 23.6795,
      "duration": 0.249,
      "velocity": 123,
      "chip": "ym2612"
    },
    {
      "channel": 1,
      "note": 57,
      "start": 23.8039,
      "duration": 0.3737,
      "velocity": 93,
      "chip": "ym2612"
    },
    {
      "channel": 0,
      "note": 98,
      "start": 23.9285,
      "duration": 0.1245,
      "velocity": 114,
      "chip": "ym2612"
    },
    {
      "channel": 3,
      "note": 50,
      "start": 23.9289,
      "duration": 1.9921,
      "velocity": 111,
      "chip": "ym2612"
    },
    {
      "channel": 0,
      "note": 54,
      "start": 24.053,
      "duration": 0.0309,
      "velocity": 114,
      "chip": "ym2612"
    },
    {
      "channel": 5,
      "note": 50,
      "start": 24.0688,
      "duration": 1.9921,
      "velocity": 111,
      "chip": "ym2612"
    },
    {
      "channel": 0,
      "note": 98,
      "start": 24.1776,
      "duration": 0.0309,
      "velocity": 114,
      "chip": "ym2612"
    },
    {
      "channel": 1,
      "note": 65,
      "start": 24.1777,
      "duration": 0.1245,
      "velocity": 93,
      "chip": "ym2612"
    },
    {
      "channel": 0,
      "note": 98,
      "start": 24.302,
      "duration": 0.0154,
      "velocity": 127,
      "chip": "ym2612"
    },
    {
      "channel": 0,
      "note": 76,
      "start": 24.3174,
      "duration": 0.1091,
      "velocity": 114,
      "chip": "ym2612"
    },
    {
      "channel": 0,
      "note": 67,
      "start": 24.4266,
      "duration": 0.0309,
      "velocity": 114,
      "chip": "ym2612"
    },
    {
      "channel": 1,
      "note": 64,
      "start": 24.4267,
      "duration": 0.249,
      "velocity": 93,
      "chip": "ym2612"
    },
    {
      "channel": 0,
      "note": 98,
      "start": 24.5511,
      "duration": 0.1245,
      "velocity": 123,
      "chip": "ym2612"
    },
    {
      "channel": 0,
      "note": 54,
      "start": 24.6756,
      "duration": 0.1245,
      "velocity": 114,
      "chip": "ym2612"
    },
    {
      "channel": 1,
      "note": 62,
      "start": 24.6757,
      "duration": 0.1245,
      "velocity": 93,
      "chip": "ym2612"
    },
    {
      "channel": 0,
      "note": 54,
      "start": 24.8001,
      "duration": 0.0309,
      "velocity": 114,
      "chip": "ym2612"
    },
    {
      "channel": 1,
      "note": 69,
      "start": 24.8002,
      "duration": 0.3737,
      "velocity": 93,
      "chip": "ym2612"
    },
    {
      "channel": 0,
      "note": 98,
      "start": 24.9246,
      "duration": 0.1245,
      "velocity": 114,
      "chip": "ym2612"
    },
    {
      "channel": 0,
      "note": 54,
      "start": 25.0491,
      "duration": 0.0309,
      "velocity": 114,
      "chip": "ym2612"
    },
    {
      "channel": 0,
      "note": 98,
      "start": 25.1737,
      "duration": 0.1243,
      "velocity": 114,
      "chip": "ym2612"
    },
    {
      "channel": 1,
      "note": 77,
      "start": 25.1739,
      "duration": 0.1243,
      "velocity": 93,
      "chip": "ym2612"
    },
    {
      "channel": 0,
      "note": 54,
      "start": 25.2981,
      "duration": 0.0309,
      "velocity": 114,
      "chip": "ym2612"
    },
    {
      "channel": 0,
      "note": 98,
      "start": 25.4226,
      "duration": 0.0154,
      "velocity": 127,
      "chip": "ym2612"
    },
    {
      "channel": 1,
      "note": 76,
      "start": 25.4227,
      "duration": 0.249,
      "velocity": 93,
      "chip": "ym2612"
    },
    {
      "channel": 0,
      "note": 76,
      "start": 25.438,
      "duration": 0.1091,
      "velocity": 114,
      "chip": "ym2612"
    },
    {
      "channel": 0,
      "note": 67,
      "start": 25.5471,
      "duration": 0.0309,
      "velocity": 114,
      "chip": "ym2612"
    },
    {
      "channel": 0,
      "note": 98,
      "start": 25.6716,
      "duration": 0.249,
      "velocity": 123,
      "chip": "ym2612"
    },
    {
      "channel": 1,
      "note": 74,
      "start": 25.6717,
      "duration": 0.249,
      "velocity": 93,
      "chip": "ym2612"
    },
    {
      "channel": 0,
      "note": 98,
      "start": 25.9206,
      "duration": 0.1245,
      "velocity": 114,
      "chip": "ym2612"
    },
    {
      "channel": 1,
      "note": 69,
      "start": 25.9208,
      "duration": 0.3735,
      "velocity": 93,
      "chip": "ym2612"
    },
    {
      "channel": 2,
      "note": 62,
      "start": 25.9209,
      "duration": 2.49,
      "velocity": 99,
      "chip": "ym2612"
    },
    {
      "channel": 3,
      "note": 50,
      "start": 25.921,
      "duration": 1.9921,
      "velocity": 111,
      "chip": "ym2612"
    },
    {
      "channel": 0,
      "note": 54,
      "start": 26.0451,
      "duration": 0.0309,
      "velocity": 114,
      "chip": "ym2612"
    },
    {
      "channel": 5,
      "note": 50,
      "start": 26.0609,
      "duration": 1.9921,
      "velocity": 111,
      "chip": "ym2612"
    },
    {
      "channel": 4,
      "note": 62,
      "start": 26.1075,
      "duration": 2.4901,
      "velocity": 99,
      "chip": "ym2612"
    },
    {
      "channel": 0,
      "note": 98,
      "start": 26.1696,
      "duration": 0.0309,
      "velocity": 114,
      "chip": "ym2612"
    },
    {
      "channel": 0,
      "note": 98,
      "start": 26.2941,
      "duration": 0.0154,
      "velocity": 127,
      "chip": "ym2612"
    },
    {
      "channel": 1,
      "note": 58,
      "start": 26.2943,
      "duration": 0.062,
      "velocity": 93,
      "chip": "ym2612"
    },
    {
      "channel": 0,
      "note": 76,
      "start": 26.3095,
      "duration": 0.1091,
      "velocity": 114,
      "chip": "ym2612"
    },
    {
      "channel": 0,
      "note": 67,
      "start": 26.4186,
      "duration": 0.0309,
      "velocity": 114,
      "chip": "ym2612"
    },
    {
      "channel": 0,
      "note": 98,
      "start": 26.5431,
      "duration": 0.1245,
      "velocity": 123,
      "chip": "ym2612"
    },
    {
      "channel": 1,
      "note": 70,
      "start": 26.5433,
      "duration": 0.0309,
      "velocity": 93,
      "chip": "ym2612"
    },
    {
      "channel": 0,
      "note": 54,
      "start": 26.6676,
      "duration": 0.1245,
      "velocity": 114,
      "chip": "ym2612"
    },
    {
      "channel": 1,
      "note": 58,
      "start": 26.6678,
      "duration": 0.249,
      "velocity": 93,
      "chip": "ym2612"
    },
    {
      "channel": 0,
      "note": 54,
      "start": 26.7922,
      "duration": 0.0309,
      "velocity": 114,
      "chip": "ym2612"
    },
    {
      "channel": 0,
      "note": 98,
      "start": 26.9166,
      "duration": 0.1245,
      "velocity": 114,
      "chip": "ym2612"
    },
    {
      "channel": 1,
      "note": 58,
      "start": 26.9168,
      "duration": 0.498,
      "velocity": 93,
      "chip": "ym2612"
    },
    {
      "channel": 0,
      "note": 54,
      "start": 27.0412,
      "duration": 0.0309,
      "velocity": 114,
      "chip": "ym2612"
    },
    {
      "channel": 0,
      "note": 98,
      "start": 27.1656,
      "duration": 0.1245,
      "velocity": 114,
      "chip": "ym2612"
    },
    {
      "channel": 0,
      "note": 54,
      "start": 27.2902,
      "duration": 0.0309,
      "velocity": 114,
      "chip": "ym2612"
    },
    {
      "channel": 0,
      "note": 98,
      "start": 27.4147,
      "duration": 0.0154,
      "velocity": 127,
      "chip": "ym2612"
    },
    {
      "channel": 1,
      "note": 58,
      "start": 27.4148,
      "duration": 0.498,
      "velocity": 93,
      "chip": "ym2612"
    },
    {
      "channel": 0,
      "note": 76,
      "start": 27.43,
      "duration": 0.1091,
      "velocity": 114,
      "chip": "ym2612"
    },
    {
      "channel": 0,
      "note": 67,
      "start": 27.5392,
      "duration": 0.0309,
      "velocity": 114,
      "chip": "ym2612"
    },
    {
      "channel": 0,
      "note": 98,
      "start": 27.6637,
      "duration": 0.249,
      "velocity": 123,
      "chip": "ym2612"
    },
    {
      "channel": 0,
      "note": 98,
      "start": 27.9127,
      "duration": 0.1245,
      "velocity": 114,
      "chip": "ym2612"
    },
    {
      "channel": 1,
      "note": 55,
      "start": 27.9129,
      "duration": 0.3735,
      "velocity": 93,
      "chip": "ym2612"
    },
    {
      "channel": 3,
      "note": 46,
      "start": 27.9131,
      "duration": 1.9921,
      "velocity": 111,
      "chip": "ym2612"
    },
    {
      "channel": 0,
      "note": 54,
      "start": 28.0372,
      "duration": 0.0309,
      "velocity": 114,
      "chip": "ym2612"
    },
    {
      "channel": 5,
      "note": 46,
      "start": 28.053,
      "duration": 1.992,
      "velocity": 111,
      "chip": "ym2612"
    },
    {
      "channel": 0,
      "note": 98,
      "start": 28.1617,
      "duration": 0.0309,
      "velocity": 114,
      "chip": "ym2612"
    },
    {
      "channel": 0,
      "note": 98,
      "start": 28.2862,
      "duration": 0.0154,
      "velocity": 127,
      "chip": "ym2612"
    },
    {
      "channel": 1,
      "note": 60,
      "start": 28.2863,
      "duration": 0.062,
      "velocity": 93,
      "chip": "ym2612"
    },
    {
      "channel": 0,
      "note": 76,
      "start": 28.3016,
      "duration": 0.1091,
      "velocity": 114,
      "chip": "ym2612"
    },
    {
      "channel": 0,
      "note": 67,
      "start": 28.4107,
      "duration": 0.0309,
      "velocity": 114,
      "chip": "ym2612"
    },
    {
      "channel": 2,
      "note": 64,
      "start": 28.4109,
      "duration": 0.498,
      "velocity": 99,
      "chip": "ym2612"
    },
    {
      "channel": 0,
      "note": 98,
      "start": 28.5352,
      "duration": 0.1245,
      "velocity": 123,
      "chip": "ym2612"
    },
    {
      "channel": 1,
      "note": 72,
      "start": 28.5353,
      "duration": 0.0309,
      "velocity": 93,
      "chip": "ym2612"
    },
    {
      "channel": 4,
      "note": 64,
      "start": 28.5976,
      "duration": 0.498,
      "velocity": 99,
      "chip": "ym2612"
    },
    {
      "channel": 0,
      "note": 54,
      "start": 28.6597,
      "duration": 0.1245,
      "velocity": 114,
      "chip": "ym2612"
    },
    {
      "channel": 1,
      "note": 60,
      "start": 28.6598,
      "duration": 0.249,
      "velocity": 93,
      "chip": "ym2612"
    },
    {
      "channel": 0,
      "note": 54,
      "start": 28.7842,
      "duration": 0.0309,
      "velocity": 114,
      "chip": "ym2612"
    },
    {
      "channel": 0,
      "note": 98,
      "start": 28.9087,
      "duration": 0.1245,
      "velocity": 114,
      "chip": "ym2612"
    },
    {
      "channel": 1,
      "note": 60,
      "start": 28.9089,
      "duration": 0.498,
      "velocity": 93,
      "chip": "ym2612"
    },
    {
      "channel": 2,
      "note": 62,
      "start": 28.909,
      "duration": 0.4982,
      "velocity": 99,
      "chip": "ym2612"
    },
    {
      "channel": 0,
      "note": 54,
      "start": 29.0332,
      "duration": 0.0309,
      "velocity": 114,
      "chip": "ym2612"
    },
    {
      "channel": 4,
      "note": 62,
      "start": 29.0956,
      "duration": 0.498,
      "velocity": 99,
      "chip": "ym2612"
    },
    {
      "channel": 0,
      "note": 98,
      "start": 29.1577,
      "duration": 0.1245,
      "velocity": 114,
      "chip": "ym2612"
    },
    {
      "channel": 0,
      "note": 54,
      "start": 29.2822,
      "duration": 0.0309,
      "velocity": 114,
      "chip": "ym2612"
    },
    {
      "channel": 0,
      "note": 98,
      "start": 29.4067,
      "duration": 0.0154,
      "velocity": 127,
      "chip": "ym2612"
    },
    {
      "channel": 1,
      "note": 60,
      "start": 29.4069,
      "duration": 0.249,
      "velocity": 93,
      "chip": "ym2612"
    },
    {
      "channel": 2,
      "note": 65,
      "start": 29.4072,
      "duration": 0.4979,
      "velocity": 99,
      "chip": "ym2612"
    },
    {
      "channel": 0,
      "note": 76,
      "start": 29.4221,
      "duration": 0.1091,
      "velocity": 114,
      "chip": "ym2612"
    },
    {
      "channel": 0,
      "note": 67,
      "start": 29.5312,
      "duration": 0.0309,
      "velocity": 114,
      "chip": "ym2612"
    },
    {
      "channel": 4,
      "note": 65,
      "start": 29.5936,
      "duration": 0.498,
      "velocity": 99,
      "chip": "ym2612"
    },
    {
      "channel": 0,
      "note": 98,
      "start": 29.6558,
      "duration": 0.249,
      "velocity": 123,
      "chip": "ym2612"
    },
    {
      "channel": 1,
      "note": 57,
      "start": 29.6559,
      "duration": 0.249,
      "velocity": 93,
      "chip": "ym2612"
    },
    {
      "channel": 0,
      "note": 98,
      "start": 29.9048,
      "duration": 0.1245,
      "velocity": 114,
      "chip": "ym2612"
    },
    {
      "channel": 1,
      "note": 60,
      "start": 29.9049,
      "duration": 0.3735,
      "velocity": 93,
      "chip": "ym2612"
    },
    {
      "channel": 2,
      "note": 64,
      "start": 29.905,
      "duration": 0.747,
      "velocity": 99,
      "chip": "ym2612"
    },
    {
      "channel": 3,
      "note": 48,
      "start": 29.9052,
      "duration": 1.992,
      "velocity": 111,
      "chip": "ym2612"
    },
    {
      "channel": 0,
      "note": 54,
      "start": 30.0293,
      "duration": 0.0309,
      "velocity": 114,
      "chip": "ym2612"
    },
    {
      "channel": 5,
      "note": 48,
      "start": 30.045,
      "duration": 1.9921,
      "velocity": 111,
      "chip": "ym2612"
    },
    {
      "channel": 4,
      "note": 64,
      "start": 30.0916,
      "duration": 0.747,
      "velocity": 99,
      "chip": "ym2612"
    },
    {
      "channel": 0,
      "note": 98,
      "start": 30.1538,
      "duration": 0.0309,
      "velocity": 114,
      "chip": "ym2612"
    },
    {
      "channel": 0,
      "note": 98,
      "start": 30.2783,
      "duration": 0.0154,
      "velocity": 127,
      "chip": "ym2612"
    },
    {
      "channel": 1,
      "note": 63,
      "start": 30.2784,
      "duration": 0.0622,
      "velocity": 93,
      "chip": "ym2612"
    },
    {
      "channel": 0,
      "note": 76,
      "start": 30.2936,
      "duration": 0.1091,
      "velocity": 114,
      "chip": "ym2612"
    },
    {
      "channel": 0,
      "note": 67,
      "start": 30.4028,
      "duration": 0.0309,
      "velocity": 114,
      "chip": "ym2612"
    },
    {
      "channel": 0,
      "note": 98,
      "start": 30.5273,
      "duration": 0.1245,
      "velocity": 123,
      "chip": "ym2612"
    },
    {
      "channel": 1,
      "note": 75,
      "start": 30.5274,
      "duration": 0.0309,
      "velocity": 93,
      "chip": "ym2612"
    },
    {
      "channel": 0,
      "note": 54,
      "start": 30.6518,
      "duration": 0.1245,
      "velocity": 114,
      "chip": "ym2612"
    },
    {
      "channel": 1,
      "note": 63,
      "start": 30.6519,
      "duration": 0.249,
      "velocity": 93,
      "chip": "ym2612"
    },
    {
      "channel": 2,
      "note": 62,
      "start": 30.652,
      "duration": 0.7471,
      "velocity": 99,
      "chip": "ym2612"
    },
    {
      "channel": 0,
      "note": 54,
      "start": 30.7763,
      "duration": 0.0309,
      "velocity": 114,
      "chip": "ym2612"
    },
    {
      "channel": 4,
      "note": 62,
      "start": 30.8386,
      "duration": 0.747,
      "velocity": 99,
      "chip": "ym2612"
    },
    {
      "channel": 0,
      "note": 98,
      "start": 30.9008,
      "duration": 0.1245,
      "velocity": 114,
      "chip": "ym2612"
    },
    {
      "channel": 1,
      "note": 63,
      "start": 30.9009,
      "duration": 0.498,
      "velocity": 93,
      "chip": "ym2612"
    },
    {
      "channel": 0,
      "note": 54,
      "start": 31.0253,
      "duration": 0.0309,
      "velocity": 114,
      "chip": "ym2612"
    },
    {
      "channel": 0,
      "note": 98,
      "start": 31.1498,
      "duration": 0.1245,
      "velocity": 114,
      "chip": "ym2612"
    },
    {
      "channel": 0,
      "note": 54,
      "start": 31.2743,
      "duration": 0.0309,
      "velocity": 114,
      "chip": "ym2612"
    },
    {
      "channel": 0,
      "note": 98,
      "start": 31.3988,
      "duration": 0.0154,
      "velocity": 127,
      "chip": "ym2612"
    },
    {
      "channel": 1,
      "note": 63,
      "start": 31.399,
      "duration": 0.498,
      "velocity": 93,
      "chip": "ym2612"
    },
    {
      "channel": 2,
      "note": 60,
      "start": 31.3991,
      "duration": 0.7469,
      "velocity": 99,
      "chip": "ym2612"
    },
    {
      "channel": 0,
      "note": 76,
      "start": 31.4142,
      "duration": 0.1091,
      "velocity": 114,
      "chip": "ym2612"
    },
    {
      "channel": 0,
      "note": 67,
      "start": 31.5233,
      "duration": 0.0309,
      "velocity": 114,
      "chip": "ym2612"
    },
    {
      "channel": 4,
      "note": 60,
      "start": 31.5857,
      "duration": 0.7471,
      "velocity": 99,
      "chip": "ym2612"
    },
    {
      "channel": 0,
      "note": 98,
      "start": 31.6478,
      "duration": 0.249,
      "velocity": 123,
      "chip": "ym2612"
    },
    {
      "channel": 0,
      "note": 98,
      "start": 31.8969,
      "duration": 0.1245,
      "velocity": 114,
      "chip": "ym2612"
    },
    {
      "channel": 1,
      "note": 58,
      "start": 31.897,
      "duration": 0.3735,
      "velocity": 93,
      "chip": "ym2612"
    },
    {
      "channel": 3,
      "note": 51,
      "start": 31.8972,
      "duration": 0.9961,
      "velocity": 111,
      "chip": "ym2612"
    },
    {
      "channel": 0,
      "note": 54,
      "start": 32.0213,
      "duration": 0.0309,
      "velocity": 114,
      "chip": "ym2612"
    },
    {
      "channel": 5,
      "note": 51,
      "start": 32.0371,
      "duration": 0.996,
      "velocity": 111,
      "chip": "ym2612"
    },
    {
      "channel": 0,
      "note": 98,
      "start": 32.1459,
      "duration": 0.0309,
      "velocity": 114,
      "chip": "ym2612"
    },
    {
      "channel": 2,
      "note": 67,
      "start": 32.146,
      "duration": 0.7471,
      "velocity": 99,
      "chip": "ym2612"
    },
    {
      "channel": 0,
      "note": 98,
      "start": 32.2704,
      "duration": 0.0154,
      "velocity": 127,
      "chip": "ym2612"
    },
    {
      "channel": 1,
      "note": 63,
      "start": 32.2705,
      "duration": 0.062,
      "velocity": 93,
      "chip": "ym2612"
    },
    {
      "channel": 0,
      "note": 76,
      "start": 32.2857,
      "duration": 0.1091,
      "velocity": 114,
      "chip": "ym2612"
    },
    {
      "channel": 4,
      "note": 67,
      "start": 32.3327,
      "duration": 0.747,
      "velocity": 99,
      "chip": "ym2612"
    },
    {
      "channel": 0,
      "note": 67,
      "start": 32.3949,
      "duration": 0.0309,
      "velocity": 114,
      "chip": "ym2612"
    },
    {
      "channel": 0,
      "note": 98,
      "start": 32.5194,
      "duration": 0.1245,
      "velocity": 123,
      "chip": "ym2612"
    },
    {
      "channel": 1,
      "note": 75,
      "start": 32.5195,
      "duration": 0.0309,
      "velocity": 93,
      "chip": "ym2612"
    },
    {
      "channel": 0,
      "note": 54,
      "start": 32.6439,
      "duration": 0.1245,
      "velocity": 114,
      "chip": "ym2612"
    },
    {
      "channel": 1,
      "note": 63,
      "start": 32.644,
      "duration": 0.249,
      "velocity": 93,
      "chip": "ym2612"
    },
    {
      "channel": 0,
      "note": 54,
      "start": 32.7684,
      "duration": 0.0309,
      "velocity": 114,
      "chip": "ym2612"
    },
    {
      "channel": 0,
      "note": 98,
      "start": 32.8929,
      "duration": 0.1245,
      "velocity": 114,
      "chip": "ym2612"
    },
    {
      "channel": 1,
      "note": 63,
      "start": 32.893,
      "duration": 0.498,
      "velocity": 93,
      "chip": "ym2612"
    },
    {
      "channel": 2,
      "note": 65,
      "start": 32.8932,
      "duration": 0.9964,
      "velocity": 103,
      "chip": "ym2612"
    },
    {
      "channel": 3,
      "note": 51,
      "start": 32.8933,
      "duration": 0.8555,
      "velocity": 111,
      "chip": "ym2612"
    },
    {
      "channel": 0,
      "note": 54,
      "start": 33.0174,
      "duration": 0.0309,
      "velocity": 114,
      "chip": "ym2612"
    },
    {
      "channel": 5,
      "note": 51,
      "start": 33.0331,
      "duration": 0.8576,
      "velocity": 121,
      "chip": "ym2612"
    },
    {
      "channel": 4,
      "note": 65,
      "start": 33.0797,
      "duration": 0.8107,
      "velocity": 103,
      "chip": "ym2612"
    },
    {
      "channel": 0,
      "note": 98,
      "start": 33.1419,
      "duration": 0.1245,
      "velocity": 114,
      "chip": "ym2612"
    },
    {
      "channel": 0,
      "note": 54,
      "start": 33.2664,
      "duration": 0.0309,
      "velocity": 114,
      "chip": "ym2612"
    },
    {
      "channel": 0,
      "note": 98,
      "start": 33.3909,
      "duration": 0.0154,
      "velocity": 127,
      "chip": "ym2612"
    },
    {
      "channel": 1,
      "note": 64,
      "start": 33.391,
      "duration": 0.4981,
      "velocity": 93,
      "chip": "ym2612"
    },
    {
      "channel": 0,
      "note": 76,
      "start": 33.4063,
      "duration": 0.1091,
      "velocity": 114,
      "chip": "ym2612"
    },
    {
      "channel": 0,
      "note": 67,
      "start": 33.5154,
      "duration": 0.0309,
      "velocity": 114,
      "chip": "ym2612"
    },
    {
      "channel": 0,
      "note": 98,
      "start": 33.6399,
      "duration": 0.249,
      "velocity": 123,
      "chip": "ym2612"
    },
    {
      "channel": 0,
      "note": 98,
      "start": 33.8889,
      "duration": 0.1245,
      "velocity": 114,
      "chip": "ym2612"
    },
    {
      "channel": 1,
      "note": 64,
      "start": 33.8892,
      "duration": 0.3734,
      "velocity": 93,
      "chip": "ym2612"
    },
    {
      "channel": 2,
      "note": 72,
      "start": 33.8895,
      "duration": 0.9956,
      "velocity": 103,
      "chip": "ym2612"
    },
    {
      "channel": 3,
      "note": 52,
      "start": 33.8899,
      "duration": 1.9915,
      "velocity": 121,
      "chip": "ym2612"
    },
    {
      "channel": 5,
      "note": 52,
      "start": 33.8908,
      "duration": 1.9908,
      "velocity": 121,
      "chip": "ym2612"
    },
    {
      "channel": 0,
      "note": 54,
      "start": 34.0134,
      "duration": 0.0309,
      "velocity": 114,
      "chip": "ym2612"
    },
    {
      "channel": 4,
      "note": 72,
      "start": 34.0291,
      "duration": 0.996,
      "velocity": 103,
      "chip": "ym2612"
    },
    {
      "channel": 0,
      "note": 98,
      "start": 34.1379,
      "duration": 0.0309,
      "velocity": 114,
      "chip": "ym2612"
    },
    {
      "channel": 0,
      "note": 98,
      "start": 34.2624,
      "duration": 0.0154,
      "velocity": 127,
      "chip": "ym2612"
    },
    {
      "channel": 1,
      "note": 57,
      "start": 34.2626,
      "duration": 0.062,
      "velocity": 93,
      "chip": "ym2612"
    },
    {
      "channel": 0,
      "note": 76,
      "start": 34.2778,
      "duration": 0.1091,
      "velocity": 114,
      "chip": "ym2612"
    },
    {
      "channel": 0,
      "note": 67,
      "start": 34.3869,
      "duration": 0.0309,
      "velocity": 114,
      "chip": "ym2612"
    },
    {
      "channel": 0,
      "note": 98,
      "start": 34.5114,
      "duration": 0.1245,
      "velocity": 123,
      "chip": "ym2612"
    },
    {
      "channel": 1,
      "note": 69,
      "start": 34.5116,
      "duration": 0.0309,
      "velocity": 93,
      "chip": "ym2612"
    },
    {
      "channel": 0,
      "note": 54,
      "start": 34.6359,
      "duration": 0.1245,
      "velocity": 114,
      "chip": "ym2612"
    },
    {
      "channel": 1,
      "note": 57,
      "start": 34.6361,
      "duration": 0.249,
      "velocity": 93,
      "chip": "ym2612"
    },
    {
      "channel": 0,
      "note": 54,
      "start": 34.7605,
      "duration": 0.0309,
      "velocity": 114,
      "chip": "ym2612"
    },
    {
      "channel": 0,
      "note": 98,
      "start": 34.8849,
      "duration": 0.1245,
      "velocity": 114,
      "chip": "ym2612"
    },
    {
      "channel": 1,
      "note": 57,
      "start": 34.8851,
      "duration": 0.498,
      "velocity": 93,
      "chip": "ym2612"
    },
    {
      "channel": 2,
      "note": 84,
      "start": 34.8852,
      "duration": 0.9961,
      "velocity": 103,
      "chip": "ym2612"
    },
    {
      "channel": 0,
      "note": 54,
      "start": 35.0095,
      "duration": 0.0311,
      "velocity": 114,
      "chip": "ym2612"
    },
    {
      "channel": 4,
      "note": 84,
      "start": 35.0251,
      "duration": 0.996,
      "velocity": 103,
      "chip": "ym2612"
    },
    {
      "channel": 0,
      "note": 98,
      "start": 35.134,
      "duration": 0.1245,
      "velocity": 114,
      "chip": "ym2612"
    },
    {
      "channel": 0,
      "note": 54,
      "start": 35.2585,
      "duration": 0.0309,
      "velocity": 114,
      "chip": "ym2612"
    },
    {
      "channel": 0,
      "note": 98,
      "start": 35.383,
      "duration": 0.0154,
      "velocity": 127,
      "chip": "ym2612"
    },
    {
      "channel": 1,
      "note": 52,
      "start": 35.3831,
      "duration": 0.498,
      "velocity": 93,
      "chip": "ym2612"
    },
    {
      "channel": 0,
      "note": 76,
      "start": 35.3983,
      "duration": 0.1091,
      "velocity": 114,
      "chip": "ym2612"
    },
    {
      "channel": 0,
      "note": 67,
      "start": 35.5075,
      "duration": 0.0309,
      "velocity": 114,
      "chip": "ym2612"
    },
    {
      "channel": 0,
      "note": 98,
      "start": 35.632,
      "duration": 0.249,
      "velocity": 123,
      "chip": "ym2612"
    },
    {
      "channel": 0,
      "note": 98,
      "start": 35.881,
      "duration": 0.1245,
      "velocity": 114,
      "chip": "ym2612"
    },
    {
      "channel": 1,
      "note": 55,
      "start": 35.8812,
      "duration": 0.3735,
      "velocity": 93,
      "chip": "ym2612"
    },
    {
      "channel": 2,
      "note": 83,
      "start": 35.8813,
      "duration": 0.4979,
      "velocity": 103,
      "chip": "ym2612"
    },
    {
      "channel": 3,
      "note": 52,
      "start": 35.8814,
      "duration": 1.9921,
      "velocity": 121,
      "chip": "ym2612"
    },
    {
      "channel": 5,
      "note": 48,
      "start": 35.8816,
      "duration": 1.9922,
      "velocity": 121,
      "chip": "ym2612"
    },
    {
      "channel": 0,
      "note": 54,
      "start": 36.0055,
      "duration": 0.0309,
      "velocity": 114,
      "chip": "ym2612"
    },
    {
      "channel": 4,
      "note": 83,
      "start": 36.0212,
      "duration": 0.498,
      "velocity": 103,
      "chip": "ym2612"
    },
    {
      "channel": 0,
      "note": 98,
      "start": 36.13,
      "duration": 0.0309,
      "velocity": 114,
      "chip": "ym2612"
    },
    {
      "channel": 0,
      "note": 98,
      "start": 36.2545,
      "duration": 0.0154,
      "velocity": 127,
      "chip": "ym2612"
    },
    {
      "channel": 1,
      "note": 57,
      "start": 36.2546,
      "duration": 0.062,
      "velocity": 93,
      "chip": "ym2612"
    },
    {
      "channel": 0,
      "note": 76,
      "start": 36.2699,
      "duration": 0.1091,
      "velocity": 114,
      "chip": "ym2612"
    },
    {
      "channel": 0,
      "note": 67,
      "start": 36.379,
      "duration": 0.0309,
      "velocity": 114,
      "chip": "ym2612"
    },
    {
      "channel": 2,
      "note": 79,
      "start": 36.3792,
      "duration": 0.498,
      "velocity": 103,
      "chip": "ym2612"
    },
    {
      "channel": 0,
      "note": 98,
      "start": 36.5035,
      "duration": 0.1245,
      "velocity": 123,
      "chip": "ym2612"
    },
    {
      "channel": 1,
      "note": 69,
      "start": 36.5037,
      "duration": 0.0309,
      "velocity": 93,
      "chip": "ym2612"
    },
    {
      "channel": 4,
      "note": 79,
      "start": 36.5192,
      "duration": 0.498,
      "velocity": 103,
      "chip": "ym2612"
    },
    {
      "channel": 0,
      "note": 54,
      "start": 36.628,
      "duration": 0.1245,
      "velocity": 114,
      "chip": "ym2612"
    },
    {
      "channel": 1,
      "note": 57,
      "start": 36.6281,
      "duration": 0.249,
      "velocity": 93,
      "chip": "ym2612"
    },
    {
      "channel": 0,
      "note": 54,
      "start": 36.7525,
      "duration": 0.0309,
      "velocity": 114,
      "chip": "ym2612"
    },
    {
      "channel": 0,
      "note": 98,
      "start": 36.877,
      "duration": 0.1245,
      "velocity": 114,
      "chip": "ym2612"
    },
    {
      "channel": 1,
      "note": 57,
      "start": 36.8772,
      "duration": 0.3735,
      "velocity": 93,
      "chip": "ym2612"
    },
    {
      "channel": 2,
      "note": 76,
      "start": 36.8773,
      "duration": 0.498,
      "velocity": 103,
      "chip": "ym2612"
    },
    {
      "channel": 0,
      "note": 54,
      "start": 37.0015,
      "duration": 0.0309,
      "velocity": 114,
      "chip": "ym2612"
    },
    {
      "channel": 4,
      "note": 76,
      "start": 37.0172,
      "duration": 0.498,
      "velocity": 103,
      "chip": "ym2612"
    },
    {
      "channel": 0,
      "note": 98,
      "start": 37.126,
      "duration": 0.1245,
      "velocity": 114,
      "chip": "ym2612"
    },
    {
      "channel": 0,
      "note": 54,
      "start": 37.2505,
      "duration": 0.0309,
      "velocity": 114,
      "chip": "ym2612"
    },
    {
      "channel": 0,
      "note": 98,
      "start": 37.3751,
      "duration": 0.0155,
      "velocity": 127,
      "chip": "ym2612"
    },
    {
      "channel": 1,
      "note": 64,
      "start": 37.3752,
      "duration": 0.3732,
      "velocity": 93,
      "chip": "ym2612"
    },
    {
      "channel": 2,
      "note": 81,
      "start": 37.3753,
      "duration": 0.249,
      "velocity": 103,
      "chip": "ym2612"
    },
    {
      "channel": 0,
      "note": 76,
      "start": 37.3905,
      "duration": 0.109,
      "velocity": 114,
      "chip": "ym2612"
    },
    {
      "channel": 0,
      "note": 67,
      "start": 37.4995,
      "duration": 0.0309,
      "velocity": 114,
      "chip": "ym2612"
    },
    {
      "channel": 4,
      "note": 81,
      "start": 37.5152,
      "duration": 0.249,
      "velocity": 103,
      "chip": "ym2612"
    },
    {
      "channel": 0,
      "note": 98,
      "start": 37.6241,
      "duration": 0.249,
      "velocity": 123,
      "chip": "ym2612"
    },
    {
      "channel": 2,
      "note": 81,
      "start": 37.6243,
      "duration": 0.2491,
      "velocity": 103,
      "chip": "ym2612"
    },
    {
      "channel": 4,
      "note": 81,
      "start": 37.7642,
      "duration": 0.249,
      "velocity": 103,
      "chip": "ym2612"
    },
    {
      "channel": 0,
      "note": 98,
      "start": 37.8731,
      "duration": 0.1245,
      "velocity": 114,
      "chip": "ym2612"
    },
    {
      "channel": 1,
      "note": 64,
      "start": 37.8732,
      "duration": 0.3735,
      "velocity": 93,
      "chip": "ym2612"
    },
    {
      "channel": 2,
      "note": 83,
      "start": 37.8734,
      "duration": 0.996,
      "velocity": 103,
      "chip": "ym2612"
    },
    {
      "channel": 3,
      "note": 55,
      "start": 37.8735,
      "duration": 1.9921,
      "velocity": 121,
      "chip": "ym2612"
    },
    {
      "channel": 5,
      "note": 50,
      "start": 37.8739,
      "duration": 1.9919,
      "velocity": 121,
      "chip": "ym2612"
    },
    {
      "channel": 0,
      "note": 54,
      "start": 37.9976,
      "duration": 0.0309,
      "velocity": 114,
      "chip": "ym2612"
    },
    {
      "channel": 4,
      "note": 83,
      "start": 38.0132,
      "duration": 0.996,
      "velocity": 103,
      "chip": "ym2612"
    },
    {
      "channel": 0,
      "note": 98,
      "start": 38.1221,
      "duration": 0.0309,
      "velocity": 114,
      "chip": "ym2612"
    },
    {
      "channel": 0,
      "note": 98,
      "start": 38.2466,
      "duration": 0.0154,
      "velocity": 127,
      "chip": "ym2612"
    },
    {
      "channel": 1,
      "note": 57,
      "start": 38.2467,
      "duration": 0.062,
      "velocity": 93,
      "chip": "ym2612"
    },
    {
      "channel": 0,
      "note": 76,
      "start": 38.262,
      "duration": 0.1091,
      "velocity": 114,
      "chip": "ym2612"
    },
    {
      "channel": 0,
      "note": 67,
      "start": 38.3711,
      "duration": 0.0309,
      "velocity": 114,
      "chip": "ym2612"
    },
    {
      "channel": 0,
      "note": 98,
      "start": 38.4956,
      "duration": 0.1245,
      "velocity": 123,
      "chip": "ym2612"
    },
    {
      "channel": 1,
      "note": 69,
      "start": 38.4957,
      "duration": 0.0309,
      "velocity": 93,
      "chip": "ym2612"
    },
    {
      "channel": 0,
      "note": 54,
      "start": 38.6201,
      "duration": 0.1245,
      "velocity": 114,
      "chip": "ym2612"
    },
    {
      "channel": 1,
      "note": 57,
      "start": 38.6202,
      "duration": 0.249,
      "velocity": 93,
      "chip": "ym2612"
    },
    {
      "channel": 0,
      "note": 54,
      "start": 38.7446,
      "duration": 0.0309,
      "velocity": 114,
      "chip": "ym2612"
    },
    {
      "channel": 0,
      "note": 98,
      "start": 38.8691,
      "duration": 0.1245,
      "velocity": 114,
      "chip": "ym2612"
    },
    {
      "channel": 1,
      "note": 57,
      "start": 38.8693,
      "duration": 0.498,
      "velocity": 93,
      "chip": "ym2612"
    },
    {
      "channel": 2,
      "note": 84,
      "start": 38.8694,
      "duration": 0.9961,
      "velocity": 103,
      "chip": "ym2612"
    },
    {
      "channel": 0,
      "note": 54,
      "start": 38.9936,
      "duration": 0.0309,
      "velocity": 114,
      "chip": "ym2612"
    },
    {
      "channel": 4,
      "note": 84,
      "start": 39.0093,
      "duration": 0.996,
      "velocity": 103,
      "chip": "ym2612"
    },
    {
      "channel": 0,
      "note": 98,
      "start": 39.1181,
      "duration": 0.1245,
      "velocity": 114,
      "chip": "ym2612"
    },
    {
      "channel": 0,
      "note": 54,
      "start": 39.2426,
      "duration": 0.0309,
      "velocity": 114,
      "chip": "ym2612"
    },
    {
      "channel": 0,
      "note": 98,
      "start": 39.3671,
      "duration": 0.0154,
      "velocity": 127,
      "chip": "ym2612"
    },
    {
      "channel": 1,
      "note": 52,
      "start": 39.3673,
      "duration": 0.498,
      "velocity": 93,
      "chip": "ym2612"
    },
    {
      "channel": 0,
      "note": 76,
      "start": 39.3825,
      "duration": 0.1091,
      "velocity": 114,
      "chip": "ym2612"
    },
    {
      "channel": 0,
      "note": 67,
      "start": 39.4916,
      "duration": 0.0309,
      "velocity": 114,
      "chip": "ym2612"
    },
    {
      "channel": 0,
      "note": 98,
      "start": 39.6161,
      "duration": 0.249,
      "velocity": 123,
      "chip": "ym2612"
    },
    {
      "channel": 0,
      "note": 98,
      "start": 39.8652,
      "duration": 0.1245,
      "velocity": 114,
      "chip": "ym2612"
    },
    {
      "channel": 1,
      "note": 55,
      "start": 39.8653,
      "duration": 0.3735,
      "velocity": 93,
      "chip": "ym2612"
    },
    {
      "channel": 2,
      "note": 86,
      "start": 39.8654,
      "duration": 0.996,
      "velocity": 103,
      "chip": "ym2612"
    },
    {
      "channel": 3,
      "note": 52,
      "start": 39.8656,
      "duration": 1.9923,
      "velocity": 121,
      "chip": "ym2612"
    },
    {
      "channel": 5,
      "note": 48,
      "start": 39.8658,
      "duration": 1.9923,
      "velocity": 121,
      "chip": "ym2612"
    },
    {
      "channel": 0,
      "note": 54,
      "start": 39.9897,
      "duration": 0.0309,
      "velocity": 114,
      "chip": "ym2612"
    },
    {
      "channel": 4,
      "note": 86,
      "start": 40.0053,
      "duration": 0.996,
      "velocity": 103,
      "chip": "ym2612"
    },
    {
      "channel": 0,
      "note": 98,
      "start": 40.1141,
      "duration": 0.0309,
      "velocity": 114,
      "chip": "ym2612"
    },
    {
      "channel": 0,
      "note": 98,
      "start": 40.2387,
      "duration": 0.0154,
      "velocity": 127,
      "chip": "ym2612"
    },
    {
      "channel": 1,
      "note": 57,
      "start": 40.2388,
      "duration": 0.062,
      "velocity": 93,
      "chip": "ym2612"
    },
    {
      "channel": 0,
      "note": 76,
      "start": 40.254,
      "duration": 0.1091,
      "velocity": 114,
      "chip": "ym2612"
    },
    {
      "channel": 0,
      "note": 67,
      "start": 40.3632,
      "duration": 0.0309,
      "velocity": 114,
      "chip": "ym2612"
    },
    {
      "channel": 0,
      "note": 98,
      "start": 40.4877,
      "duration": 0.1245,
      "velocity": 123,
      "chip": "ym2612"
    },
    {
      "channel": 1,
      "note": 69,
      "start": 40.4878,
      "duration": 0.0309,
      "velocity": 93,
      "chip": "ym2612"
    },
    {
      "channel": 0,
      "note": 54,
      "start": 40.6122,
      "duration": 0.1245,
      "velocity": 114,
      "chip": "ym2612"
    },
    {
      "channel": 1,
      "note": 57,
      "start": 40.6123,
      "duration": 0.249,
      "velocity": 93,
      "chip": "ym2612"
    },
    {
      "channel": 0,
      "note": 54,
      "start": 40.7367,
      "duration": 0.0309,
      "velocity": 114,
      "chip": "ym2612"
    },
    {
      "channel": 0,
      "note": 98,
      "start": 40.8612,
      "duration": 0.1245,
      "velocity": 114,
      "chip": "ym2612"
    },
    {
      "channel": 1,
      "note": 57,
      "start": 40.8613,
      "duration": 0.3735,
      "velocity": 93,
      "chip": "ym2612"
    },
    {
      "channel": 2,
      "note": 83,
      "start": 40.8614,
      "duration": 0.9963,
      "velocity": 103,
      "chip": "ym2612"
    },
    {
      "channel": 0,
      "note": 54,
      "start": 40.9857,
      "duration": 0.0309,
      "velocity": 114,
      "chip": "ym2612"
    },
    {
      "channel": 4,
      "note": 83,
      "start": 41.0013,
      "duration": 0.996,
      "velocity": 103,
      "chip": "ym2612"
    },
    {
      "channel": 0,
      "note": 98,
      "start": 41.1102,
      "duration": 0.1245,
      "velocity": 114,
      "chip": "ym2612"
    },
    {
      "channel": 0,
      "note": 54,
      "start": 41.2347,
      "duration": 0.0309,
      "velocity": 114,
      "chip": "ym2612"
    },
    {
      "channel": 0,
      "note": 98,
      "start": 41.3592,
      "duration": 0.0154,
      "velocity": 127,
      "chip": "ym2612"
    },
    {
      "channel": 1,
      "note": 64,
      "start": 41.3593,
      "duration": 0.3732,
      "velocity": 93,
      "chip": "ym2612"
    },
    {
      "channel": 0,
      "note": 76,
      "start": 41.3746,
      "duration": 0.1091,
      "velocity": 114,
      "chip": "ym2612"
    },
    {
      "channel": 0,
      "note": 67,
      "start": 41.4837,
      "duration": 0.0309,
      "velocity": 114,
      "chip": "ym2612"
    },
    {
      "channel": 0,
      "note": 98,
      "start": 41.6082,
      "duration": 0.2492,
      "velocity": 123,
      "chip": "ym2612"
    },
    {
      "channel": 0,
      "note": 98,
      "start": 41.8574,
      "duration": 0.1243,
      "velocity": 114,
      "chip": "ym2612"
    },
    {
      "channel": 1,
      "note": 64,
      "start": 41.8576,
      "duration": 0.3732,
      "velocity": 93,
      "chip": "ym2612"
    },
    {
      "channel": 2,
      "note": 79,
      "start": 41.8578,
      "duration": 0.9958,
      "velocity": 103,
      "chip": "ym2612"
    },
    {
      "channel": 3,
      "note": 52,
      "start": 41.8579,
      "duration": 1.9918,
      "velocity": 121,
      "chip": "ym2612"
    },
    {
      "channel": 5,
      "note": 50,
      "start": 41.8581,
      "duration": 1.9918,
      "velocity": 121,
      "chip": "ym2612"
    },
    {
      "channel": 0,
      "note": 54,
      "start": 41.9817,
      "duration": 0.0309,
      "velocity": 114,
      "chip": "ym2612"
    },
    {
      "channel": 4,
      "note": 79,
      "start": 41.9974,
      "duration": 0.996,
      "velocity": 103,
      "chip": "ym2612"
    },
    {
      "channel": 0,
      "note": 98,
      "start": 42.1062,
      "duration": 0.0309,
      "velocity": 114,
      "chip": "ym2612"
    },
    {
      "channel": 0,
      "note": 98,
      "start": 42.2307,
      "duration": 0.0154,
      "velocity": 127,
      "chip": "ym2612"
    },
    {
      "channel": 1,
      "note": 57,
      "start": 42.2309,
      "duration": 0.062,
      "velocity": 93,
      "chip": "ym2612"
    },
    {
      "channel": 0,
      "note": 76,
      "start": 42.2461,
      "duration": 0.1091,
      "velocity": 114,
      "chip": "ym2612"
    },
    {
      "channel": 0,
      "note": 67,
      "start": 42.3552,
      "duration": 0.0309,
      "velocity": 114,
      "chip": "ym2612"
    },
    {
      "channel": 0,
      "note": 98,
      "start": 42.4798,
      "duration": 0.1245,
      "velocity": 123,
      "chip": "ym2612"
    },
    {
      "channel": 1,
      "note": 69,
      "start": 42.4799,
      "duration": 0.0309,
      "velocity": 93,
      "chip": "ym2612"
    },
    {
      "channel": 0,
      "note": 54,
      "start": 42.6042,
      "duration": 0.1245,
      "velocity": 114,
      "chip": "ym2612"
    },
    {
      "channel": 1,
      "note": 57,
      "start": 42.6044,
      "duration": 0.249,
      "velocity": 93,
      "chip": "ym2612"
    },
    {
      "channel": 0,
      "note": 54,
      "start": 42.7288,
      "duration": 0.0309,
      "velocity": 114,
      "chip": "ym2612"
    },
    {
      "channel": 0,
      "note": 98,
      "start": 42.8533,
      "duration": 0.1245,
      "velocity": 114,
      "chip": "ym2612"
    },
    {
      "channel": 1,
      "note": 57,
      "start": 42.8534,
      "duration": 0.498,
      "velocity": 93,
      "chip": "ym2612"
    },
    {
      "channel": 2,
      "note": 84,
      "start": 42.8535,
      "duration": 0.9961,
      "velocity": 103,
      "chip": "ym2612"
    },
    {
      "channel": 0,
      "note": 54,
      "start": 42.9778,
      "duration": 0.0309,
      "velocity": 114,
      "chip": "ym2612"
    },
    {
      "channel": 4,
      "note": 84,
      "start": 42.9934,
      "duration": 0.996,
      "velocity": 103,
      "chip": "ym2612"
    },
    {
      "channel": 0,
      "note": 98,
      "start": 43.1023,
      "duration": 0.1245,
      "velocity": 114,
      "chip": "ym2612"
    },
    {
      "channel": 0,
      "note": 54,
      "start": 43.2268,
      "duration": 0.0309,
      "velocity": 114,
      "chip": "ym2612"
    },
    {
      "channel": 0,
      "note": 98,
      "start": 43.3513,
      "duration": 0.0154,
      "velocity": 127,
      "chip": "ym2612"
    },
    {
      "channel": 1,
      "note": 52,
      "start": 43.3514,
      "duration": 0.498,
      "velocity": 93,
      "chip": "ym2612"
    },
    {
      "channel": 0,
      "note": 76,
      "start": 43.3666,
      "duration": 0.1091,
      "velocity": 114,
      "chip": "ym2612"
    },
    {
      "channel": 0,
      "note": 67,
      "start": 43.4758,
      "duration": 0.0309,
      "velocity": 114,
      "chip": "ym2612"
    },
    {
      "channel": 0,
      "note": 98,
      "start": 43.6003,
      "duration": 0.249,
      "velocity": 123,
      "chip": "ym2612"
    },
    {
      "channel": 0,
      "note": 98,
      "start": 43.8493,
      "duration": 0.1246,
      "velocity": 114,
      "chip": "ym2612"
    },
    {
      "channel": 1,
      "note": 55,
      "start": 43.8495,
      "duration": 0.3735,
      "velocity": 93,
      "chip": "ym2612"
    },
    {
      "channel": 2,
      "note": 83,
      "start": 43.8496,
      "duration": 0.498,
      "velocity": 103,
      "chip": "ym2612"
    },
    {
      "channel": 3,
      "note": 52,
      "start": 43.8497,
      "duration": 1.9921,
      "velocity": 121,
      "chip": "ym2612"
    },
    {
      "channel": 5,
      "note": 48,
      "start": 43.8499,
      "duration": 1.9921,
      "velocity": 121,
      "chip": "ym2612"
    },
    {
      "channel": 0,
      "note": 54,
      "start": 43.974,
      "duration": 0.0307,
      "velocity": 114,
      "chip": "ym2612"
    },
    {
      "channel": 4,
      "note": 83,
      "start": 43.9895,
      "duration": 0.498,
      "velocity": 103,
      "chip": "ym2612"
    },
    {
      "channel": 0,
      "note": 98,
      "start": 44.0983,
      "duration": 0.0309,
      "velocity": 114,
      "chip": "ym2612"
    },
    {
      "channel": 0,
      "note": 98,
      "start": 44.2228,
      "duration": 0.0154,
      "velocity": 127,
      "chip": "ym2612"
    },
    {
      "channel": 1,
      "note": 57,
      "start": 44.2229,
      "duration": 0.062,
      "velocity": 93,
      "chip": "ym2612"
    },
    {
      "channel": 0,
      "note": 76,
      "start": 44.2382,
      "duration": 0.1091,
      "velocity": 114,
      "chip": "ym2612"
    },
    {
      "channel": 0,
      "note": 67,
      "start": 44.3473,
      "duration": 0.0309,
      "velocity": 114,
      "chip": "ym2612"
    },
    {
      "channel": 2,
      "note": 79,
      "start": 44.3475,
      "duration": 0.498,
      "velocity": 103,
      "chip": "ym2612"
    },
    {
      "channel": 0,
      "note": 98,
      "start": 44.4718,
      "duration": 0.1245,
      "velocity": 123,
      "chip": "ym2612"
    },
    {
      "channel": 1,
      "note": 69,
      "start": 44.472,
      "duration": 0.0309,
      "velocity": 93,
      "chip": "ym2612"
    },
    {
      "channel": 4,
      "note": 79,
      "start": 44.4875,
      "duration": 0.498,
      "velocity": 103,
      "chip": "ym2612"
    },
    {
      "channel": 0,
      "note": 54,
      "start": 44.5963,
      "duration": 0.1245,
      "velocity": 114,
      "chip": "ym2612"
    },
    {
      "channel": 1,
      "note": 57,
      "start": 44.5964,
      "duration": 0.249,
      "velocity": 93,
      "chip": "ym2612"
    },
    {
      "channel": 0,
      "note": 54,
      "start": 44.7208,
      "duration": 0.0309,
      "velocity": 114,
      "chip": "ym2612"
    },
    {
      "channel": 0,
      "note": 98,
      "start": 44.8453,
      "duration": 0.1245,
      "velocity": 114,
      "chip": "ym2612"
    },
    {
      "channel": 1,
      "note": 57,
      "start": 44.8455,
      "duration": 0.3735,
      "velocity": 93,
      "chip": "ym2612"
    },
    {
      "channel": 2,
      "note": 76,
      "start": 44.8456,
      "duration": 0.498,
      "velocity": 103,
      "chip": "ym2612"
    },
    {
      "channel": 0,
      "note": 54,
      "start": 44.9698,
      "duration": 0.0309,
      "velocity": 114,
      "chip": "ym2612"
    },
    {
      "channel": 4,
      "note": 76,
      "start": 44.9855,
      "duration": 0.498,
      "velocity": 103,
      "chip": "ym2612"
    },
    {
      "channel": 0,
      "note": 98,
      "start": 45.0944,
      "duration": 0.1245,
      "velocity": 114,
      "chip": "ym2612"
    },
    {
      "channel": 0,
      "note": 54,
      "start": 45.2188,
      "duration": 0.0309,
      "velocity": 114,
      "chip": "ym2612"
    },
    {
      "channel": 0,
      "note": 98,
      "start": 45.3434,
      "duration": 0.0154,
      "velocity": 127,
      "chip": "ym2612"
    },
    {
      "channel": 1,
      "note": 64,
      "start": 45.3435,
      "duration": 0.3732,
      "velocity": 93,
      "chip": "ym2612"
    },
    {
      "channel": 2,
      "note": 81,
      "start": 45.3436,
      "duration": 0.249,
      "velocity": 103,
      "chip": "ym2612"
    },
    {
      "channel": 0,
      "note": 76,
      "start": 45.3587,
      "duration": 0.1091,
      "velocity": 114,
      "chip": "ym2612"
    },
    {
      "channel": 0,
      "note": 67,
      "start": 45.4679,
      "duration": 0.0309,
      "velocity": 114,
      "chip": "ym2612"
    },
    {
      "channel": 4,
      "note": 81,
      "start": 45.4835,
      "duration": 0.249,
      "velocity": 103,
      "chip": "ym2612"
    },
    {
      "channel": 0,
      "note": 98,
      "start": 45.5924,
      "duration": 0.249,
      "velocity": 123,
      "chip": "ym2612"
    },
    {
      "channel": 2,
      "note": 81,
      "start": 45.5926,
      "duration": 0.2491,
      "velocity": 103,
      "chip": "ym2612"
    },
    {
      "channel": 4,
      "note": 81,
      "start": 45.7325,
      "duration": 0.249,
      "velocity": 103,
      "chip": "ym2612"
    },
    {
      "channel": 0,
      "note": 98,
      "start": 45.8414,
      "duration": 0.1245,
      "velocity": 114,
      "chip": "ym2612"
    },
    {
      "channel": 1,
      "note": 64,
      "start": 45.8415,
      "duration": 0.3735,
      "velocity": 93,
      "chip": "ym2612"
    },
    {
      "channel": 2,
      "note": 83,
      "start": 45.8417,
      "duration": 0.996,
      "velocity": 103,
      "chip": "ym2612"
    },
    {
      "channel": 3,
      "note": 55,
      "start": 45.8418,
      "duration": 1.9921,
      "velocity": 121,
      "chip": "ym2612"
    },
    {
      "channel": 5,
      "note": 50,
      "start": 45.842,
      "duration": 1.9921,
      "velocity": 121,
      "chip": "ym2612"
    },
    {
      "channel": 0,
      "note": 54,
      "start": 45.9659,
      "duration": 0.0309,
      "velocity": 114,
      "chip": "ym2612"
    },
    {
      "channel": 4,
      "note": 83,
      "start": 45.9815,
      "duration": 0.996,
      "velocity": 103,
      "chip": "ym2612"
    },
    {
      "channel": 0,
      "note": 98,
      "start": 46.0906,
      "duration": 0.0307,
      "velocity": 114,
      "chip": "ym2612"
    },
    {
      "channel": 0,
      "note": 98,
      "start": 46.2149,
      "duration": 0.0154,
      "velocity": 127,
      "chip": "ym2612"
    },
    {
      "channel": 1,
      "note": 57,
      "start": 46.215,
      "duration": 0.062,
      "velocity": 93,
      "chip": "ym2612"
    },
    {
      "channel": 0,
      "note": 76,
      "start": 46.2302,
      "duration": 0.1091,
      "velocity": 114,
      "chip": "ym2612"
    },
    {
      "channel": 0,
      "note": 67,
      "start": 46.3394,
      "duration": 0.0309,
      "velocity": 114,
      "chip": "ym2612"
    },
    {
      "channel": 0,
      "note": 98,
      "start": 46.4639,
      "duration": 0.1245,
      "velocity": 123,
      "chip": "ym2612"
    },
    {
      "channel": 1,
      "note": 69,
      "start": 46.464,
      "duration": 0.0309,
      "velocity": 93,
      "chip": "ym2612"
    },
    {
      "channel": 0,
      "note": 54,
      "start": 46.5884,
      "duration": 0.1245,
      "velocity": 114,
      "chip": "ym2612"
    },
    {
      "channel": 1,
      "note": 57,
      "start": 46.5885,
      "duration": 0.249,
      "velocity": 93,
      "chip": "ym2612"
    },
    {
      "channel": 0,
      "note": 54,
      "start": 46.7129,
      "duration": 0.0309,
      "velocity": 114,
      "chip": "ym2612"
    },
    {
      "channel": 0,
      "note": 98,
      "start": 46.8374,
      "duration": 0.1245,
      "velocity": 114,
      "chip": "ym2612"
    },
    {
      "channel": 1,
      "note": 57,
      "start": 46.8376,
      "duration": 0.498,
      "velocity": 93,
      "chip": "ym2612"
    },
    {
      "channel": 2,
      "note": 84,
      "start": 46.8377,
      "duration": 0.9961,
      "velocity": 103,
      "chip": "ym2612"
    },
    {
      "channel": 0,
      "note": 54,
      "start": 46.9619,
      "duration": 0.0309,
      "velocity": 114,
      "chip": "ym2612"
    },
    {
      "channel": 4,
      "note": 84,
      "start": 46.9776,
      "duration": 0.9962,
      "velocity": 103,
      "chip": "ym2612"
    },
    {
      "channel": 0,
      "note": 98,
      "start": 47.0864,
      "duration": 0.1245,
      "velocity": 114,
      "chip": "ym2612"
    },
    {
      "channel": 0,
      "note": 54,
      "start": 47.2109,
      "duration": 0.0309,
      "velocity": 114,
      "chip": "ym2612"
    },
    {
      "channel": 0,
      "note": 98,
      "start": 47.3354,
      "duration": 0.0154,
      "velocity": 127,
      "chip": "ym2612"
    },
    {
      "channel": 1,
      "note": 52,
      "start": 47.3356,
      "duration": 0.498,
      "velocity": 93,
      "chip": "ym2612"
    },
    {
      "channel": 0,
      "note": 76,
      "start": 47.3508,
      "duration": 0.1091,
      "velocity": 114,
      "chip": "ym2612"
    },
    {
      "channel": 0,
      "note": 67,
      "start": 47.4599,
      "duration": 0.0309,
      "velocity": 114,
      "chip": "ym2612"
    },
    {
      "channel": 0,
      "note": 98,
      "start": 47.5844,
      "duration": 0.249,
      "velocity": 123,
      "chip": "ym2612"
    },
    {
      "channel": 0,
      "note": 98,
      "start": 47.8335,
      "duration": 0.1245,
      "velocity": 114,
      "chip": "ym2612"
    },
    {
      "channel": 1,
      "note": 55,
      "start": 47.8336,
      "duration": 0.3737,
      "velocity": 93,
      "chip": "ym2612"
    },
    {
      "channel": 2,
      "note": 86,
      "start": 47.8337,
      "duration": 1.743,
      "velocity": 103,
      "chip": "ym2612"
    },
    {
      "channel": 3,
      "note": 57,
      "start": 47.8339,
      "duration": 1.9926,
      "velocity": 111,
      "chip": "ym2612"
    },
    {
      "channel": 5,
      "note": 52,
      "start": 47.8341,
      "duration": 1.9931,
      "velocity": 111,
      "chip": "ym2612"
    },
    {
      "channel": 0,
      "note": 54,
      "start": 47.958,
      "duration": 0.0309,
      "velocity": 114,
      "chip": "ym2612"
    },
    {
      "channel": 4,
      "note": 86,
      "start": 47.9738,
      "duration": 1.7429,
      "velocity": 103,
      "chip": "ym2612"
    },
    {
      "channel": 0,
      "note": 98,
      "start": 48.0825,
      "duration": 0.0309,
      "velocity": 114,
      "chip": "ym2612"
    },
    {
      "channel": 0,
      "note": 98,
      "start": 48.2071,
      "duration": 0.0152,
      "velocity": 127,
      "chip": "ym2612"
    },
    {
      "channel": 1,
      "note": 57,
      "start": 48.2073,
      "duration": 0.0618,
      "velocity": 93,
      "chip": "ym2612"
    },
    {
      "channel": 0,
      "note": 76,
      "start": 48.2223,
      "duration": 0.1091,
      "velocity": 114,
      "chip": "ym2612"
    },
    {
      "channel": 0,
      "note": 67,
      "start": 48.3315,
      "duration": 0.0309,
      "velocity": 114,
      "chip": "ym2612"
    },
    {
      "channel": 0,
      "note": 98,
      "start": 48.456,
      "duration": 0.1245,
      "velocity": 123,
      "chip": "ym2612"
    },
    {
      "channel": 1,
      "note": 69,
      "start": 48.4561,
      "duration": 0.0309,
      "velocity": 93,
      "chip": "ym2612"
    },
    {
      "channel": 0,
      "note": 54,
      "start": 48.5805,
      "duration": 0.1245,
      "velocity": 114,
      "chip": "ym2612"
    },
    {
      "channel": 1,
      "note": 57,
      "start": 48.5806,
      "duration": 0.249,
      "velocity": 93,
      "chip": "ym2612"
    },
    {
      "channel": 0,
      "note": 54,
      "start": 48.705,
      "duration": 0.0309,
      "velocity": 114,
      "chip": "ym2612"
    },
    {
      "channel": 0,
      "note": 98,
      "start": 48.8295,
      "duration": 0.1245,
      "velocity": 114,
      "chip": "ym2612"
    },
    {
      "channel": 1,
      "note": 57,
      "start": 48.8296,
      "duration": 0.3735,
      "velocity": 93,
      "chip": "ym2612"
    },
    {
      "channel": 0,
      "note": 54,
      "start": 48.954,
      "duration": 0.0309,
      "velocity": 114,
      "chip": "ym2612"
    },
    {
      "channel": 0,
      "note": 98,
      "start": 49.0785,
      "duration": 0.1245,
      "velocity": 114,
      "chip": "ym2612"
    },
    {
      "channel": 0,
      "note": 54,
      "start": 49.203,
      "duration": 0.0309,
      "velocity": 114,
      "chip": "ym2612"
    },
    {
      "channel": 0,
      "note": 98,
      "start": 49.3275,
      "duration": 0.0154,
      "velocity": 127,
      "chip": "ym2612"
    },
    {
      "channel": 1,
      "note": 64,
      "start": 49.3276,
      "duration": 0.3732,
      "velocity": 93,
      "chip": "ym2612"
    },
    {
      "channel": 0,
      "note": 76,
      "start": 49.3429,
      "duration": 0.1091,
      "velocity": 114,
      "chip": "ym2612"
    },
    {
      "channel": 0,
      "note": 67,
      "start": 49.452,
      "duration": 0.0309,
      "velocity": 114,
      "chip": "ym2612"
    },
    {
      "channel": 0,
      "note": 98,
      "start": 49.5765,
      "duration": 0.249,
      "velocity": 123,
      "chip": "ym2612"
    },
    {
      "channel": 0,
      "note": 98,
      "start": 49.8256,
      "duration": 0.1245,
      "velocity": 114,
      "chip": "ym2612"
    },
    {
      "channel": 1,
      "note": 64,
      "start": 49.8257,
      "duration": 0.3734,
      "velocity": 93,
      "chip": "ym2612"
    },
    {
      "channel": 2,
      "note": 88,
      "start": 49.8261,
      "duration": 2.4898,
      "velocity": 99,
      "chip": "ym2612"
    },
    {
      "channel": 3,
      "note": 62,
      "start": 49.8265,
      "duration": 1.9915,
      "velocity": 111,
      "chip": "ym2612"
    },
    {
      "channel": 0,
      "note": 54,
      "start": 49.95,
      "duration": 0.0309,
      "velocity": 114,
      "chip": "ym2612"
    },
    {
      "channel": 5,
      "note": 56,
      "start": 49.9658,
      "duration": 1.9921,
      "velocity": 111,
      "chip": "ym2612"
    },
    {
      "channel": 4,
      "note": 88,
      "start": 50.0124,
      "duration": 2.4901,
      "velocity": 99,
      "chip": "ym2612"
    },
    {
      "channel": 0,
      "note": 98,
      "start": 50.0745,
      "duration": 0.0309,
      "velocity": 114,
      "chip": "ym2612"
    },
    {
      "channel": 0,
      "note": 98,
      "start": 50.199,
      "duration": 0.0154,
      "velocity": 127,
      "chip": "ym2612"
    },
    {
      "channel": 1,
      "note": 58,
      "start": 50.1992,
      "duration": 0.062,
      "velocity": 93,
      "chip": "ym2612"
    },
    {
      "channel": 0,
      "note": 76,
      "start": 50.2144,
      "duration": 0.1091,
      "velocity": 114,
      "chip": "ym2612"
    },
    {
      "channel": 0,
      "note": 67,
      "start": 50.3235,
      "duration": 0.0309,
      "velocity": 114,
      "chip": "ym2612"
    },
    {
      "channel": 0,
      "note": 98,
      "start": 50.448,
      "duration": 0.1245,
      "velocity": 123,
      "chip": "ym2612"
    },
    {
      "channel": 1,
      "note": 70,
      "start": 50.4482,
      "duration": 0.0309,
      "velocity": 93,
      "chip": "ym2612"
    },
    {
      "channel": 0,
      "note": 54,
      "start": 50.5725,
      "duration": 0.1245,
      "velocity": 114,
      "chip": "ym2612"
    },
    {
      "channel": 1,
      "note": 58,
      "start": 50.5727,
      "duration": 0.249,
      "velocity": 93,
      "chip": "ym2612"
    },
    {
      "channel": 0,
      "note": 54,
      "start": 50.6971,
      "duration": 0.0309,
      "velocity": 114,
      "chip": "ym2612"
    },
    {
      "channel": 0,
      "note": 98,
      "start": 50.8216,
      "duration": 0.1245,
      "velocity": 114,
      "chip": "ym2612"
    },
    {
      "channel": 1,
      "note": 58,
      "start": 50.8217,
      "duration": 0.498,
      "velocity": 93,
      "chip": "ym2612"
    },
    {
      "channel": 0,
      "note": 54,
      "start": 50.9461,
      "duration": 0.0309,
      "velocity": 114,
      "chip": "ym2612"
    },
    {
      "channel": 0,
      "note": 98,
      "start": 51.0706,
      "duration": 0.1245,
      "velocity": 114,
      "chip": "ym2612"
    },
    {
      "channel": 0,
      "note": 54,
      "start": 51.1951,
      "duration": 0.0309,
      "velocity": 114,
      "chip": "ym2612"
    },
    {
      "channel": 0,
      "note": 98,
      "start": 51.3196,
      "duration": 0.0154,
      "velocity": 127,
      "chip": "ym2612"
    },
    {
      "channel": 1,
      "note": 58,
      "start": 51.3197,
      "duration": 0.498,
      "velocity": 93,
      "chip": "ym2612"
    },
    {
      "channel": 0,
      "note": 76,
      "start": 51.3349,
      "duration": 0.1091,
      "velocity": 114,
      "chip": "ym2612"
    },
    {
      "channel": 0,
      "note": 67,
      "start": 51.4441,
      "duration": 0.0309,
      "velocity": 114,
      "chip": "ym2612"
    },
    {
      "channel": 0,
      "note": 98,
      "start": 51.5686,
      "duration": 0.249,
      "velocity": 123,
      "chip": "ym2612"
    },
    {
      "channel": 0,
      "note": 98,
      "start": 51.8176,
      "duration": 0.1245,
      "velocity": 114,
      "chip": "ym2612"
    },
    {
      "channel": 1,
      "note": 55,
      "start": 51.8178,
      "duration": 0.3735,
      "velocity": 93,
      "chip": "ym2612"
    },
    {
      "channel": 3,
      "note": 46,
      "start": 51.818,
      "duration": 1.9921,
      "velocity": 111,
      "chip": "ym2612"
    },
    {
      "channel": 0,
      "note": 54,
      "start": 51.9421,
      "duration": 0.0309,
      "velocity": 114,
      "chip": "ym2612"
    },
    {
      "channel": 5,
      "note": 46,
      "start": 51.9579,
      "duration": 1.992,
      "velocity": 111,
      "chip": "ym2612"
    },
    {
      "channel": 0,
      "note": 98,
      "start": 52.0666,
      "duration": 0.0309,
      "velocity": 114,
      "chip": "ym2612"
    },
    {
      "channel": 0,
      "note": 98,
      "start": 52.1911,
      "duration": 0.0154,
      "velocity": 127,
      "chip": "ym2612"
    },
    {
      "channel": 1,
      "note": 60,
      "start": 52.1912,
      "duration": 0.062,
      "velocity": 93,
      "chip": "ym2612"
    },
    {
      "channel": 0,
      "note": 76,
      "start": 52.2065,
      "duration": 0.1091,
      "velocity": 114,
      "chip": "ym2612"
    },
    {
      "channel": 0,
      "note": 67,
      "start": 52.3156,
      "duration": 0.0309,
      "velocity": 114,
      "chip": "ym2612"
    },
    {
      "channel": 2,
      "note": 64,
      "start": 52.3158,
      "duration": 0.498,
      "velocity": 99,
      "chip": "ym2612"
    },
    {
      "channel": 0,
      "note": 98,
      "start": 52.4401,
      "duration": 0.1245,
      "velocity": 123,
      "chip": "ym2612"
    },
    {
      "channel": 1,
      "note": 72,
      "start": 52.4404,
      "duration": 0.0307,
      "velocity": 93,
      "chip": "ym2612"
    },
    {
      "channel": 4,
      "note": 64,
      "start": 52.5025,
      "duration": 0.498,
      "velocity": 99,
      "chip": "ym2612"
    },
    {
      "channel": 0,
      "note": 54,
      "start": 52.5646,
      "duration": 0.1245,
      "velocity": 114,
      "chip": "ym2612"
    },
    {
      "channel": 1,
      "note": 60,
      "start": 52.5648,
      "duration": 0.249,
      "velocity": 93,
      "chip": "ym2612"
    },
    {
      "channel": 0,
      "note": 54,
      "start": 52.6891,
      "duration": 0.0309,
      "velocity": 114,
      "chip": "ym2612"
    },
    {
      "channel": 0,
      "note": 98,
      "start": 52.8137,
      "duration": 0.1245,
      "velocity": 114,
      "chip": "ym2612"
    },
    {
      "channel": 1,
      "note": 60,
      "start": 52.8138,
      "duration": 0.498,
      "velocity": 93,
      "chip": "ym2612"
    },
    {
      "channel": 2,
      "note": 62,
      "start": 52.8139,
      "duration": 0.498,
      "velocity": 99,
      "chip": "ym2612"
    },
    {
      "channel": 0,
      "note": 54,
      "start": 52.9381,
      "duration": 0.0309,
      "velocity": 114,
      "chip": "ym2612"
    },
    {
      "channel": 4,
      "note": 62,
      "start": 53.0005,
      "duration": 0.498,
      "velocity": 99,
      "chip": "ym2612"
    },
    {
      "channel": 0,
      "note": 98,
      "start": 53.0627,
      "duration": 0.1245,
      "velocity": 114,
      "chip": "ym2612"
    },
    {
      "channel": 0,
      "note": 54,
      "start": 53.1872,
      "duration": 0.0309,
      "velocity": 114,
      "chip": "ym2612"
    },
    {
      "channel": 0,
      "note": 98,
      "start": 53.3117,
      "duration": 0.0154,
      "velocity": 127,
      "chip": "ym2612"
    },
    {
      "channel": 1,
      "note": 60,
      "start": 53.3118,
      "duration": 0.249,
      "velocity": 93,
      "chip": "ym2612"
    },
    {
      "channel": 2,
      "note": 67,
      "start": 53.3119,
      "duration": 0.498,
      "velocity": 99,
      "chip": "ym2612"
    },
    {
      "channel": 0,
      "note": 76,
      "start": 53.327,
      "duration": 0.1091,
      "velocity": 114,
      "chip": "ym2612"
    },
    {
      "channel": 0,
      "note": 67,
      "start": 53.4362,
      "duration": 0.0309,
      "velocity": 114,
      "chip": "ym2612"
    },
    {
      "channel": 4,
      "note": 67,
      "start": 53.4985,
      "duration": 0.498,
      "velocity": 99,
      "chip": "ym2612"
    },
    {
      "channel": 0,
      "note": 98,
      "start": 53.5607,
      "duration": 0.249,
      "velocity": 123,
      "chip": "ym2612"
    },
    {
      "channel": 1,
      "note": 57,
      "start": 53.5608,
      "duration": 0.249,
      "velocity": 93,
      "chip": "ym2612"
    },
    {
      "channel": 0,
      "note": 98,
      "start": 53.8097,
      "duration": 0.1245,
      "velocity": 114,
      "chip": "ym2612"
    },
    {
      "channel": 1,
      "note": 60,
      "start": 53.8098,
      "duration": 0.3735,
      "velocity": 93,
      "chip": "ym2612"
    },
    {
      "channel": 2,
      "note": 65,
      "start": 53.81,
      "duration": 0.7471,
      "velocity": 99,
      "chip": "ym2612"
    },
    {
      "channel": 3,
      "note": 48,
      "start": 53.8101,
      "duration": 1.992,
      "velocity": 111,
      "chip": "ym2612"
    },
    {
      "channel": 0,
      "note": 54,
      "start": 53.9342,
      "duration": 0.0309,
      "velocity": 114,
      "chip": "ym2612"
    },
    {
      "channel": 5,
      "note": 48,
      "start": 53.9499,
      "duration": 1.9921,
      "velocity": 111,
      "chip": "ym2612"
    },
    {
      "channel": 4,
      "note": 65,
      "start": 53.9965,
      "duration": 0.747,
      "velocity": 99,
      "chip": "ym2612"
    },
    {
      "channel": 0,
      "note": 98,
      "start": 54.0587,
      "duration": 0.0309,
      "velocity": 114,
      "chip": "ym2612"
    },
    {
      "channel": 0,
      "note": 98,
      "start": 54.1832,
      "duration": 0.0154,
      "velocity": 127,
      "chip": "ym2612"
    },
    {
      "channel": 1,
      "note": 62,
      "start": 54.1833,
      "duration": 0.062,
      "velocity": 93,
      "chip": "ym2612"
    },
    {
      "channel": 0,
      "note": 76,
      "start": 54.1985,
      "duration": 0.1091,
      "velocity": 114,
      "chip": "ym2612"
    },
    {
      "channel": 0,
      "note": 67,
      "start": 54.3077,
      "duration": 0.0309,
      "velocity": 114,
      "chip": "ym2612"
    },
    {
      "channel": 0,
      "note": 98,
      "start": 54.4322,
      "duration": 0.1245,
      "velocity": 123,
      "chip": "ym2612"
    },
    {
      "channel": 1,
      "note": 74,
      "start": 54.4323,
      "duration": 0.0309,
      "velocity": 93,
      "chip": "ym2612"
    },
    {
      "channel": 0,
      "note": 54,
      "start": 54.5567,
      "duration": 0.1245,
      "velocity": 114,
      "chip": "ym2612"
    },
    {
      "channel": 1,
      "note": 62,
      "start": 54.5568,
      "duration": 0.249,
      "velocity": 93,
      "chip": "ym2612"
    },
    {
      "channel": 2,
      "note": 64,
      "start": 54.5571,
      "duration": 2.2409,
      "velocity": 99,
      "chip": "ym2612"
    },
    {
      "channel": 0,
      "note": 54,
      "start": 54.6812,
      "duration": 0.0309,
      "velocity": 114,
      "chip": "ym2612"
    },
    {
      "channel": 4,
      "note": 64,
      "start": 54.7436,
      "duration": 2.2411,
      "velocity": 99,
      "chip": "ym2612"
    },
    {
      "channel": 0,
      "note": 98,
      "start": 54.8057,
      "duration": 0.1245,
      "velocity": 114,
      "chip": "ym2612"
    },
    {
      "channel": 1,
      "note": 62,
      "start": 54.8059,
      "duration": 0.498,
      "velocity": 93,
      "chip": "ym2612"
    },
    {
      "channel": 0,
      "note": 54,
      "start": 54.9302,
      "duration": 0.0309,
      "velocity": 114,
      "chip": "ym2612"
    },
    {
      "channel": 0,
      "note": 98,
      "start": 55.0547,
      "duration": 0.1245,
      "velocity": 114,
      "chip": "ym2612"
    },
    {
      "channel": 0,
      "note": 54,
      "start": 55.1792,
      "duration": 0.0309,
      "velocity": 114,
      "chip": "ym2612"
    },
    {
      "channel": 0,
      "note": 98,
      "start": 55.3037,
      "duration": 0.0154,
      "velocity": 127,
      "chip": "ym2612"
    },
    {
      "channel": 1,
      "note": 62,
      "start": 55.3039,
      "duration": 0.3732,
      "velocity": 93,
      "chip": "ym2612"
    },
    {
      "channel": 0,
      "note": 76,
      "start": 55.3191,
      "duration": 0.1091,
      "velocity": 114,
      "chip": "ym2612"
    },
    {
      "channel": 0,
      "note": 67,
      "start": 55.4282,
      "duration": 0.0309,
      "velocity": 114,
      "chip": "ym2612"
    },
    {
      "channel": 0,
      "note": 98,
      "start": 55.5527,
      "duration": 0.249,
      "velocity": 123,
      "chip": "ym2612"
    },
    {
      "channel": 1,
      "note": 57,
      "start": 55.6771,
      "duration": 0.3737,
      "velocity": 93,
      "chip": "ym2612"
    },
    {
      "channel": 0,
      "note": 98,
      "start": 55.8018,
      "duration": 0.1245,
      "velocity": 114,
      "chip": "ym2612"
    },
    {
      "channel": 3,
      "note": 50,
      "start": 55.8022,
      "duration": 1.9921,
      "velocity": 111,
      "chip": "ym2612"
    },
    {
      "channel": 0,
      "note": 54,
      "start": 55.9263,
      "duration": 0.0309,
      "velocity": 114,
      "chip": "ym2612"
    },
    {
      "channel": 5,
      "note": 50,
      "start": 55.942,
      "duration": 1.9921,
      "velocity": 111,
      "chip": "ym2612"
    },
    {
      "channel": 0,
      "note": 98,
      "start": 56.0508,
      "duration": 0.0309,
      "velocity": 114,
      "chip": "ym2612"
    },
    {
      "channel": 1,
      "note": 65,
      "start": 56.0509,
      "duration": 0.1245,
      "velocity": 93,
      "chip": "ym2612"
    },
    {
      "channel": 0,
      "note": 98,
      "start": 56.1753,
      "duration": 0.0154,
      "velocity": 127,
      "chip": "ym2612"
    },
    {
      "channel": 0,
      "note": 76,
      "start": 56.1906,
      "duration": 0.1091,
      "velocity": 114,
      "chip": "ym2612"
    },
    {
      "channel": 0,
      "note": 67,
      "start": 56.2998,
      "duration": 0.0309,
      "velocity": 114,
      "chip": "ym2612"
    },
    {
      "channel": 1,
      "note": 64,
      "start": 56.2999,
      "duration": 0.249,
      "velocity": 93,
      "chip": "ym2612"
    },
    {
      "channel": 0,
      "note": 98,
      "start": 56.4243,
      "duration": 0.1245,
      "velocity": 123,
      "chip": "ym2612"
    },
    {
      "channel": 0,
      "note": 54,
      "start": 56.5488,
      "duration": 0.1245,
      "velocity": 114,
      "chip": "ym2612"
    },
    {
      "channel": 1,
      "note": 62,
      "start": 56.5489,
      "duration": 0.1245,
      "velocity": 93,
      "chip": "ym2612"
    },
    {
      "channel": 0,
      "note": 54,
      "start": 56.6733,
      "duration": 0.0309,
      "velocity": 114,
      "chip": "ym2612"
    },
    {
      "channel": 1,
      "note": 69,
      "start": 56.6734,
      "duration": 0.3735,
      "velocity": 93,
      "chip": "ym2612"
    },
    {
      "channel": 0,
      "note": 98,
      "start": 56.7978,
      "duration": 0.1245,
      "velocity": 114,
      "chip": "ym2612"
    },
    {
      "channel": 0,
      "note": 54,
      "start": 56.9223,
      "duration": 0.0309,
      "velocity": 114,
      "chip": "ym2612"
    },
    {
      "channel": 0,
      "note": 98,
      "start": 57.0468,
      "duration": 0.1245,
      "velocity": 114,
      "chip": "ym2612"
    },
    {
      "channel": 1,
      "note": 77,
      "start": 57.0469,
      "duration": 0.1245,
      "velocity": 93,
      "chip": "ym2612"
    },
    {
      "channel": 0,
      "note": 54,
      "start": 57.1713,
      "duration": 0.0309,
      "velocity": 114,
      "chip": "ym2612"
    },
    {
      "channel": 0,
      "note": 98,
      "start": 57.2958,
      "duration": 0.0154,
      "velocity": 127,
      "chip": "ym2612"
    },
    {
      "channel": 1,
      "note": 76,
      "start": 57.2959,
      "duration": 0.249,
      "velocity": 93,
      "chip": "ym2612"
    },
    {
      "channel": 0,
      "note": 76,
      "start": 57.3112,
      "duration": 0.1091,
      "velocity": 114,
      "chip": "ym2612"
    },
    {
      "channel": 0,
      "note": 67,
      "start": 57.4203,
      "duration": 0.0309,
      "velocity": 114,
      "chip": "ym2612"
    },
    {
      "channel": 0,
      "note": 98,
      "start": 57.5448,
      "duration": 0.249,
      "velocity": 123,
      "chip": "ym2612"
    },
    {
      "channel": 1,
      "note": 74,
      "start": 57.5449,
      "duration": 0.249,
      "velocity": 93,
      "chip": "ym2612"
    },
    {
      "channel": 0,
      "note": 98,
      "start": 57.7939,
      "duration": 0.1245,
      "velocity": 114,
      "chip": "ym2612"
    },
    {
      "channel": 1,
      "note": 69,
      "start": 57.794,
      "duration": 0.3735,
      "velocity": 93,
      "chip": "ym2612"
    },
    {
      "channel": 2,
      "note": 62,
      "start": 57.7941,
      "duration": 2.49,
      "velocity": 99,
      "chip": "ym2612"
    },
    {
      "channel": 3,
      "note": 50,
      "start": 57.7942,
      "duration": 1.9921,
      "velocity": 111,
      "chip": "ym2612"
    },
    {
      "channel": 0,
      "note": 54,
      "start": 57.9183,
      "duration": 0.0309,
      "velocity": 114,
      "chip": "ym2612"
    },
    {
      "channel": 5,
      "note": 50,
      "start": 57.9341,
      "duration": 1.9921,
      "velocity": 111,
      "chip": "ym2612"
    },
    {
      "channel": 4,
      "note": 62,
      "start": 57.9807,
      "duration": 2.4901,
      "velocity": 99,
      "chip": "ym2612"
    },
    {
      "channel": 0,
      "note": 98,
      "start": 58.0429,
      "duration": 0.031,
      "velocity": 114,
      "chip": "ym2612"
    },
    {
      "channel": 0,
      "note": 98,
      "start": 58.1673,
      "duration": 0.0154,
      "velocity": 127,
      "chip": "ym2612"
    },
    {
      "channel": 1,
      "note": 58,
      "start": 58.1675,
      "duration": 0.062,
      "velocity": 93,
      "chip": "ym2612"
    },
    {
      "channel": 0,
      "note": 76,
      "start": 58.1827,
      "duration": 0.1091,
      "velocity": 114,
      "chip": "ym2612"
    },
    {
      "channel": 0,
      "note": 67,
      "start": 58.2919,
      "duration": 0.0309,
      "velocity": 114,
      "chip": "ym2612"
    },
    {
      "channel": 0,
      "note": 98,
      "start": 58.4163,
      "duration": 0.1245,
      "velocity": 123,
      "chip": "ym2612"
    },
    {
      "channel": 1,
      "note": 70,
      "start": 58.4165,
      "duration": 0.0309,
      "velocity": 93,
      "chip": "ym2612"
    },
    {
      "channel": 0,
      "note": 54,
      "start": 58.5409,
      "duration": 0.1245,
      "velocity": 114,
      "chip": "ym2612"
    },
    {
      "channel": 1,
      "note": 58,
      "start": 58.541,
      "duration": 0.249,
      "velocity": 93,
      "chip": "ym2612"
    },
    {
      "channel": 0,
      "note": 54,
      "start": 58.6654,
      "duration": 0.0309,
      "velocity": 114,
      "chip": "ym2612"
    },
    {
      "channel": 0,
      "note": 98,
      "start": 58.7899,
      "duration": 0.1245,
      "velocity": 114,
      "chip": "ym2612"
    },
    {
      "channel": 1,
      "note": 58,
      "start": 58.79,
      "duration": 0.498,
      "velocity": 93,
      "chip": "ym2612"
    },
    {
      "channel": 0,
      "note": 54,
      "start": 58.9144,
      "duration": 0.0309,
      "velocity": 114,
      "chip": "ym2612"
    },
    {
      "channel": 0,
      "note": 98,
      "start": 59.0389,
      "duration": 0.1245,
      "velocity": 114,
      "chip": "ym2612"
    },
    {
      "channel": 0,
      "note": 54,
      "start": 59.1634,
      "duration": 0.0309,
      "velocity": 114,
      "chip": "ym2612"
    },
    {
      "channel": 0,
      "note": 98,
      "start": 59.2879,
      "duration": 0.0154,
      "velocity": 127,
      "chip": "ym2612"
    },
    {
      "channel": 1,
      "note": 58,
      "start": 59.288,
      "duration": 0.498,
      "velocity": 93,
      "chip": "ym2612"
    },
    {
      "channel": 0,
      "note": 76,
      "start": 59.3032,
      "duration": 0.1091,
      "velocity": 114,
      "chip": "ym2612"
    },
    {
      "channel": 0,
      "note": 67,
      "start": 59.4124,
      "duration": 0.0309,
      "velocity": 114,
      "chip": "ym2612"
    },
    {
      "channel": 0,
      "note": 98,
      "start": 59.5369,
      "duration": 0.249,
      "velocity": 123,
      "chip": "ym2612"
    },
    {
      "channel": 0,
      "note": 98,
      "start": 59.7859,
      "duration": 0.1245,
      "velocity": 114,
      "chip": "ym2612"
    },
    {
      "channel": 1,
      "note": 55,
      "start": 59.7861,
      "duration": 0.3735,
      "velocity": 93,
      "chip": "ym2612"
    },
    {
      "channel": 3,
      "note": 46,
      "start": 59.7863,
      "duration": 1.9921,
      "velocity": 111,
      "chip": "ym2612"
    },
    {
      "channel": 0,
      "note": 54,
      "start": 59.9104,
      "duration": 0.0309,
      "velocity": 114,
      "chip": "ym2612"
    },
    {
      "channel": 5,
      "note": 46,
      "start": 59.9262,
      "duration": 1.992,
      "velocity": 111,
      "chip": "ym2612"
    },
    {
      "channel": 0,
      "note": 98,
      "start": 60.0349,
      "duration": 0.0309,
      "velocity": 114,
      "chip": "ym2612"
    },
    {
      "channel": 0,
      "note": 98,
      "start": 60.1594,
      "duration": 0.0153,
      "velocity": 127,
      "chip": "ym2612"
    },
    {
      "channel": 1,
      "note": 60,
      "start": 60.1596,
      "duration": 0.062,
      "velocity": 93,
      "chip": "ym2612"
    },
    {
      "channel": 0,
      "note": 76,
      "start": 60.1748,
      "duration": 0.1091,
      "velocity": 114,
      "chip": "ym2612"
    },
    {
      "channel": 0,
      "note": 67,
      "start": 60.2839,
      "duration": 0.0309,
      "velocity": 114,
      "chip": "ym2612"
    },
    {
      "channel": 2,
      "note": 64,
      "start": 60.2841,
      "duration": 0.498,
      "velocity": 99,
      "chip": "ym2612"
    },
    {
      "channel": 0,
      "note": 98,
      "start": 60.4084,
      "duration": 0.1245,
      "velocity": 123,
      "chip": "ym2612"
    },
    {
      "channel": 1,
      "note": 72,
      "start": 60.4085,
      "duration": 0.0309,
      "velocity": 93,
      "chip": "ym2612"
    },
    {
      "channel": 4,
      "note": 64,
      "start": 60.4708,
      "duration": 0.498,
      "velocity": 99,
      "chip": "ym2612"
    },
    {
      "channel": 0,
      "note": 54,
      "start": 60.5329,
      "duration": 0.1245,
      "velocity": 114,
      "chip": "ym2612"
    },
    {
      "channel": 1,
      "note": 60,
      "start": 60.5331,
      "duration": 0.249,
      "velocity": 93,
      "chip": "ym2612"
    },
    {
      "channel": 0,
      "note": 54,
      "start": 60.6574,
      "duration": 0.0309,
      "velocity": 114,
      "chip": "ym2612"
    },
    {
      "channel": 0,
      "note": 98,
      "start": 60.782,
      "duration": 0.1245,
      "velocity": 114,
      "chip": "ym2612"
    },
    {
      "channel": 1,
      "note": 60,
      "start": 60.7821,
      "duration": 0.498,
      "velocity": 93,
      "chip": "ym2612"
    },
    {
      "channel": 2,
      "note": 62,
      "start": 60.7822,
      "duration": 0.498,
      "velocity": 99,
      "chip": "ym2612"
    },
    {
      "channel": 0,
      "note": 54,
      "start": 60.9065,
      "duration": 0.0309,
      "velocity": 114,
      "chip": "ym2612"
    },
    {
      "channel": 4,
      "note": 62,
      "start": 60.9688,
      "duration": 0.498,
      "velocity": 99,
      "chip": "ym2612"
    },
    {
      "channel": 0,
      "note": 98,
      "start": 61.031,
      "duration": 0.1245,
      "velocity": 114,
      "chip": "ym2612"
    },
    {
      "channel": 0,
      "note": 54,
      "start": 61.1555,
      "duration": 0.0309,
      "velocity": 114,
      "chip": "ym2612"
    },
    {
      "channel": 0,
      "note": 98,
      "start": 61.28,
      "duration": 0.0154,
      "velocity": 127,
      "chip": "ym2612"
    },
    {
      "channel": 1,
      "note": 60,
      "start": 61.2801,
      "duration": 0.249,
      "velocity": 93,
      "chip": "ym2612"
    },
    {
      "channel": 2,
      "note": 65,
      "start": 61.2802,
      "duration": 0.498,
      "velocity": 99,
      "chip": "ym2612"
    },
    {
      "channel": 0,
      "note": 76,
      "start": 61.2953,
      "duration": 0.1091,
      "velocity": 114,
      "chip": "ym2612"
    },
    {
      "channel": 0,
      "note": 67,
      "start": 61.4045,
      "duration": 0.0309,
      "velocity": 114,
      "chip": "ym2612"
    },
    {
      "channel": 4,
      "note": 65,
      "start": 61.4668,
      "duration": 0.498,
      "velocity": 99,
      "chip": "ym2612"
    },
    {
      "channel": 0,
      "note": 98,
      "start": 61.529,
      "duration": 0.249,
      "velocity": 123,
      "chip": "ym2612"
    },
    {
      "channel": 1,
      "note": 57,
      "start": 61.5291,
      "duration": 0.249,
      "velocity": 93,
      "chip": "ym2612"
    },
    {
      "channel": 0,
      "note": 98,
      "start": 61.778,
      "duration": 0.1245,
      "velocity": 114,
      "chip": "ym2612"
    },
    {
      "channel": 1,
      "note": 60,
      "start": 61.7781,
      "duration": 0.3735,
      "velocity": 93,
      "chip": "ym2612"
    },
    {
      "channel": 2,
      "note": 64,
      "start": 61.7783,
      "duration": 0.747,
      "velocity": 99,
      "chip": "ym2612"
    },
    {
      "channel": 3,
      "note": 48,
      "start": 61.7784,
      "duration": 1.992,
      "velocity": 111,
      "chip": "ym2612"
    },
    {
      "channel": 0,
      "note": 54,
      "start": 61.9025,
      "duration": 0.0309,
      "velocity": 114,
      "chip": "ym2612"
    },
    {
      "channel": 5,
      "note": 48,
      "start": 61.9182,
      "duration": 1.9921,
      "velocity": 111,
      "chip": "ym2612"
    },
    {
      "channel": 4,
      "note": 64,
      "start": 61.9648,
      "duration": 0.747,
      "velocity": 99,
      "chip": "ym2612"
    },
    {
      "channel": 0,
      "note": 98,
      "start": 62.027,
      "duration": 0.0309,
      "velocity": 114,
      "chip": "ym2612"
    },
    {
      "channel": 0,
      "note": 98,
      "start": 62.1515,
      "duration": 0.0154,
      "velocity": 127,
      "chip": "ym2612"
    },
    {
      "channel": 1,
      "note": 63,
      "start": 62.1516,
      "duration": 0.062,
      "velocity": 93,
      "chip": "ym2612"
    },
    {
      "channel": 0,
      "note": 76,
      "start": 62.1668,
      "duration": 0.1091,
      "velocity": 114,
      "chip": "ym2612"
    },
    {
      "channel": 0,
      "note": 67,
      "start": 62.276,
      "duration": 0.0311,
      "velocity": 114,
      "chip": "ym2612"
    },
    {
      "channel": 0,
      "note": 98,
      "start": 62.4005,
      "duration": 0.1245,
      "velocity": 123,
      "chip": "ym2612"
    },
    {
      "channel": 1,
      "note": 75,
      "start": 62.4006,
      "duration": 0.0309,
      "velocity": 93,
      "chip": "ym2612"
    },
    {
      "channel": 0,
      "note": 54,
      "start": 62.525,
      "duration": 0.1245,
      "velocity": 114,
      "chip": "ym2612"
    },
    {
      "channel": 1,
      "note": 63,
      "start": 62.5251,
      "duration": 0.2491,
      "velocity": 93,
      "chip": "ym2612"
    },
    {
      "channel": 2,
      "note": 62,
      "start": 62.5252,
      "duration": 0.7471,
      "velocity": 99,
      "chip": "ym2612"
    },
    {
      "channel": 0,
      "note": 54,
      "start": 62.6495,
      "duration": 0.0309,
      "velocity": 114,
      "chip": "ym2612"
    },
    {
      "channel": 4,
      "note": 62,
      "start": 62.7119,
      "duration": 0.747,
      "velocity": 99,
      "chip": "ym2612"
    },
    {
      "channel": 0,
      "note": 98,
      "start": 62.7741,
      "duration": 0.1245,
      "velocity": 114,
      "chip": "ym2612"
    },
    {
      "channel": 1,
      "note": 63,
      "start": 62.7742,
      "duration": 0.498,
      "velocity": 93,
      "chip": "ym2612"
    },
    {
      "channel": 0,
      "note": 54,
      "start": 62.8985,
      "duration": 0.0309,
      "velocity": 114,
      "chip": "ym2612"
    },
    {
      "channel": 0,
      "note": 98,
      "start": 63.023,
      "duration": 0.1245,
      "velocity": 114,
      "chip": "ym2612"
    },
    {
      "channel": 0,
      "note": 54,
      "start": 63.1475,
      "duration": 0.0309,
      "velocity": 114,
      "chip": "ym2612"
    },
    {
      "channel": 0,
      "note": 98,
      "start": 63.272,
      "duration": 0.0154,
      "velocity": 127,
      "chip": "ym2612"
    },
    {
      "channel": 1,
      "note": 63,
      "start": 63.2722,
      "duration": 0.498,
      "velocity": 93,
      "chip": "ym2612"
    },
    {
      "channel": 2,
      "note": 60,
      "start": 63.2723,
      "duration": 0.7469,
      "velocity": 99,
      "chip": "ym2612"
    },
    {
      "channel": 0,
      "note": 76,
      "start": 63.2874,
      "duration": 0.1091,
      "velocity": 114,
      "chip": "ym2612"
    },
    {
      "channel": 0,
      "note": 67,
      "start": 63.3966,
      "duration": 0.0309,
      "velocity": 114,
      "chip": "ym2612"
    },
    {
      "channel": 4,
      "note": 60,
      "start": 63.4589,
      "duration": 0.7471,
      "velocity": 99,
      "chip": "ym2612"
    },
    {
      "channel": 0,
      "note": 98,
      "start": 63.5211,
      "duration": 0.249,
      "velocity": 123,
      "chip": "ym2612"
    },
    {
      "channel": 0,
      "note": 98,
      "start": 63.7701,
      "duration": 0.1245,
      "velocity": 114,
      "chip": "ym2612"
    },
    {
      "channel": 1,
      "note": 58,
      "start": 63.7702,
      "duration": 0.3735,
      "velocity": 93,
      "chip": "ym2612"
    },
    {
      "channel": 3,
      "note": 51,
      "start": 63.7704,
      "duration": 0.9961,
      "velocity": 111,
      "chip": "ym2612"
    },
    {
      "channel": 0,
      "note": 54,
      "start": 63.8946,
      "duration": 0.0309,
      "velocity": 114,
      "chip": "ym2612"
    },
    {
      "channel": 5,
      "note": 51,
      "start": 63.9103,
      "duration": 0.996,
      "velocity": 111,
      "chip": "ym2612"
    },
    {
      "channel": 0,
      "note": 98,
      "start": 64.0191,
      "duration": 0.0309,
      "velocity": 114,
      "chip": "ym2612"
    },
    {
      "channel": 2,
      "note": 67,
      "start": 64.0193,
      "duration": 0.7471,
      "velocity": 99,
      "chip": "ym2612"
    },
    {
      "channel": 0,
      "note": 98,
      "start": 64.1436,
      "duration": 0.0154,
      "velocity": 127,
      "chip": "ym2612"
    },
    {
      "channel": 1,
      "note": 63,
      "start": 64.1437,
      "duration": 0.062,
      "velocity": 93,
      "chip": "ym2612"
    },
    {
      "channel": 0,
      "note": 76,
      "start": 64.1589,
      "duration": 0.1091,
      "velocity": 114,
      "chip": "ym2612"
    },
    {
      "channel": 4,
      "note": 67,
      "start": 64.206,
      "duration": 0.747,
      "velocity": 99,
      "chip": "ym2612"
    },
    {
      "channel": 0,
      "note": 67,
      "start": 64.2681,
      "duration": 0.0309,
      "velocity": 114,
      "chip": "ym2612"
    },
    {
      "channel": 0,
      "note": 98,
      "start": 64.3926,
      "duration": 0.1245,
      "velocity": 123,
      "chip": "ym2612"
    },
    {
      "channel": 1,
      "note": 75,
      "start": 64.3927,
      "duration": 0.031,
      "velocity": 93,
      "chip": "ym2612"
    },
    {
      "channel": 0,
      "note": 54,
      "start": 64.5171,
      "duration": 0.1245,
      "velocity": 114,
      "chip": "ym2612"
    },
    {
      "channel": 1,
      "note": 63,
      "start": 64.5172,
      "duration": 0.249,
      "velocity": 93,
      "chip": "ym2612"
    },
    {
      "channel": 0,
      "note": 54,
      "start": 64.6416,
      "duration": 0.0309,
      "velocity": 114,
      "chip": "ym2612"
    },
    {
      "channel": 0,
      "note": 98,
      "start": 64.7661,
      "duration": 0.1246,
      "velocity": 114,
      "chip": "ym2612"
    },
    {
      "channel": 1,
      "note": 63,
      "start": 64.7663,
      "duration": 0.498,
      "velocity": 93,
      "chip": "ym2612"
    },
    {
      "channel": 2,
      "note": 65,
      "start": 64.7664,
      "duration": 0.9964,
      "velocity": 103,
      "chip": "ym2612"
    },
    {
      "channel": 3,
      "note": 51,
      "start": 64.7666,
      "duration": 0.8555,
      "velocity": 111,
      "chip": "ym2612"
    },
    {
      "channel": 0,
      "note": 54,
      "start": 64.8907,
      "duration": 0.0307,
      "velocity": 114,
      "chip": "ym2612"
    },
    {
      "channel": 5,
      "note": 51,
      "start": 64.9063,
      "duration": 0.8572,
      "velocity": 111,
      "chip": "ym2612"
    },
    {
      "channel": 4,
      "note": 65,
      "start": 64.9529,
      "duration": 0.8104,
      "velocity": 103,
      "chip": "ym2612"
    },
    {
      "channel": 0,
      "note": 98,
      "start": 65.0151,
      "duration": 0.1245,
      "velocity": 114,
      "chip": "ym2612"
    },
    {
      "channel": 0,
      "note": 54,
      "start": 65.1396,
      "duration": 0.0309,
      "velocity": 114,
      "chip": "ym2612"
    },
    {
      "channel": 0,
      "note": 98,
      "start": 65.2641,
      "duration": 0.0154,
      "velocity": 127,
      "chip": "ym2612"
    },
    {
      "channel": 1,
      "note": 64,
      "start": 65.2643,
      "duration": 0.4981,
      "velocity": 93,
      "chip": "ym2612"
    },
    {
      "channel": 0,
      "note": 76,
      "start": 65.2795,
      "duration": 0.1091,
      "velocity": 114,
      "chip": "ym2612"
    },
    {
      "channel": 0,
      "note": 67,
      "start": 65.3886,
      "duration": 0.0309,
      "velocity": 114,
      "chip": "ym2612"
    },
    {
      "channel": 0,
      "note": 98,
      "start": 65.5131,
      "duration": 0.249,
      "velocity": 123,
      "chip": "ym2612"
    },
    {
      "channel": 0,
      "note": 98,
      "start": 65.7622,
      "duration": 0.1245,
      "velocity": 114,
      "chip": "ym2612"
    },
    {
      "channel": 1,
      "note": 64,
      "start": 65.7624,
      "duration": 0.3734,
      "velocity": 93,
      "chip": "ym2612"
    },
    {
      "channel": 2,
      "note": 72,
      "start": 65.7628,
      "duration": 0.9956,
      "velocity": 103,
      "chip": "ym2612"
    },
    {
      "channel": 0,
      "note": 54,
      "start": 65.8866,
      "duration": 0.0309,
      "velocity": 114,
      "chip": "ym2612"
    },
    {
      "channel": 4,
      "note": 72,
      "start": 65.9023,
      "duration": 0.996,
      "velocity": 103,
      "chip": "ym2612"
    },
    {
      "channel": 0,
      "note": 98,
      "start": 66.0112,
      "duration": 0.0309,
      "velocity": 114,
      "chip": "ym2612"
    },
    {
      "channel": 0,
      "note": 98,
      "start": 66.1356,
      "duration": 0.0154,
      "velocity": 127,
      "chip": "ym2612"
    },
    {
      "channel": 1,
      "note": 58,
      "start": 66.1358,
      "duration": 0.062,
      "velocity": 93,
      "chip": "ym2612"
    },
    {
      "channel": 0,
      "note": 76,
      "start": 66.151,
      "duration": 0.1091,
      "velocity": 114,
      "chip": "ym2612"
    },
    {
      "channel": 0,
      "note": 67,
      "start": 66.2602,
      "duration": 0.0309,
      "velocity": 114,
      "chip": "ym2612"
    },
    {
      "channel": 0,
      "note": 98,
      "start": 66.3847,
      "duration": 0.1245,
      "velocity": 123,
      "chip": "ym2612"
    },
    {
      "channel": 1,
      "note": 70,
      "start": 66.3848,
      "duration": 0.0309,
      "velocity": 93,
      "chip": "ym2612"
    },
    {
      "channel": 0,
      "note": 54,
      "start": 66.5092,
      "duration": 0.1245,
      "velocity": 114,
      "chip": "ym2612"
    },
    {
      "channel": 1,
      "note": 58,
      "start": 66.5093,
      "duration": 0.249,
      "velocity": 93,
      "chip": "ym2612"
    },
    {
      "channel": 0,
      "note": 54,
      "start": 66.6337,
      "duration": 0.0309,
      "velocity": 114,
      "chip": "ym2612"
    },
    {
      "channel": 0,
      "note": 98,
      "start": 66.7582,
      "duration": 0.1245,
      "velocity": 114,
      "chip": "ym2612"
    },
    {
      "channel": 1,
      "note": 58,
      "start": 66.7583,
      "duration": 0.498,
      "velocity": 93,
      "chip": "ym2612"
    },
    {
      "channel": 2,
      "note": 85,
      "start": 66.7584,
      "duration": 0.9961,
      "velocity": 103,
      "chip": "ym2612"
    },
    {
      "channel": 0,
      "note": 54,
      "start": 66.8827,
      "duration": 0.0309,
      "velocity": 114,
      "chip": "ym2612"
    },
    {
      "channel": 4,
      "note": 85,
      "start": 66.8983,
      "duration": 0.996,
      "velocity": 103,
      "chip": "ym2612"
    },
    {
      "channel": 0,
      "note": 98,
      "start": 67.0073,
      "duration": 0.1243,
      "velocity": 114,
      "chip": "ym2612"
    },
    {
      "channel": 0,
      "note": 54,
      "start": 67.1317,
      "duration": 0.0309,
      "velocity": 114,
      "chip": "ym2612"
    },
    {
      "channel": 0,
      "note": 98,
      "start": 67.2562,
      "duration": 0.0154,
      "velocity": 127,
      "chip": "ym2612"
    },
    {
      "channel": 1,
      "note": 53,
      "start": 67.2563,
      "duration": 0.498,
      "velocity": 93,
      "chip": "ym2612"
    },
    {
      "channel": 0,
      "note": 76,
      "start": 67.2716,
      "duration": 0.1091,
      "velocity": 114,
      "chip": "ym2612"
    },
    {
      "channel": 0,
      "note": 67,
      "start": 67.3807,
      "duration": 0.0309,
      "velocity": 114,
      "chip": "ym2612"
    },
    {
      "channel": 0,
      "note": 98,
      "start": 67.5052,
      "duration": 0.249,
      "velocity": 123,
      "chip": "ym2612"
    },
    {
      "channel": 0,
      "note": 98,
      "start": 67.7542,
      "duration": 0.1245,
      "velocity": 114,
      "chip": "ym2612"
    },
    {
      "channel": 1,
      "note": 56,
      "start": 67.7544,
      "duration": 0.3735,
      "velocity": 93,
      "chip": "ym2612"
    },
    {
      "channel": 2,
      "note": 84,
      "start": 67.7545,
      "duration": 0.4979,
      "velocity": 103,
      "chip": "ym2612"
    },
    {
      "channel": 0,
      "note": 54,
      "start": 67.8787,
      "duration": 0.0309,
      "velocity": 114,
      "chip": "ym2612"
    },
    {
      "channel": 4,
      "note": 84,
      "start": 67.8944,
      "duration": 0.498,
      "velocity": 103,
      "chip": "ym2612"
    },
    {
      "channel": 0,
      "note": 98,
      "start": 68.0032,
      "duration": 0.0309,
      "velocity": 114,
      "chip": "ym2612"
    },
    {
      "channel": 0,
      "note": 98,
      "start": 68.1277,
      "duration": 0.0154,
      "velocity": 127,
      "chip": "ym2612"
    },
    {
      "channel": 1,
      "note": 58,
      "start": 68.1279,
      "duration": 0.062,
      "velocity": 93,
      "chip": "ym2612"
    },
    {
      "channel": 0,
      "note": 76,
      "start": 68.1431,
      "duration": 0.1091,
      "velocity": 114,
      "chip": "ym2612"
    },
    {
      "channel": 0,
      "note": 67,
      "start": 68.2522,
      "duration": 0.0309,
      "velocity": 114,
      "chip": "ym2612"
    },
    {
      "channel": 2,
      "note": 80,
      "start": 68.2524,
      "duration": 0.498,
      "velocity": 103,
      "chip": "ym2612"
    },
    {
      "channel": 0,
      "note": 98,
      "start": 68.3767,
      "duration": 0.1245,
      "velocity": 123,
      "chip": "ym2612"
    },
    {
      "channel": 1,
      "note": 70,
      "start": 68.3769,
      "duration": 0.0309,
      "velocity": 93,
      "chip": "ym2612"
    },
    {
      "channel": 4,
      "note": 80,
      "start": 68.3924,
      "duration": 0.4982,
      "velocity": 103,
      "chip": "ym2612"
    },
    {
      "channel": 0,
      "note": 54,
      "start": 68.5012,
      "duration": 0.1245,
      "velocity": 114,
      "chip": "ym2612"
    },
    {
      "channel": 1,
      "note": 58,
      "start": 68.5014,
      "duration": 0.249,
      "velocity": 93,
      "chip": "ym2612"
    },
    {
      "channel": 0,
      "note": 54,
      "start": 68.6258,
      "duration": 0.0309,
      "velocity": 114,
      "chip": "ym2612"
    },
    {
      "channel": 0,
      "note": 98,
      "start": 68.7502,
      "duration": 0.1245,
      "velocity": 114,
      "chip": "ym2612"
    },
    {
      "channel": 1,
      "note": 58,
      "start": 68.7504,
      "duration": 0.3737,
      "velocity": 93,
      "chip": "ym2612"
    },
    {
      "channel": 2,
      "note": 77,
      "start": 68.7505,
      "duration": 0.498,
      "velocity": 103,
      "chip": "ym2612"
    },
    {
      "channel": 0,
      "note": 54,
      "start": 68.8748,
      "duration": 0.0309,
      "velocity": 114,
      "chip": "ym2612"
    },
    {
      "channel": 4,
      "note": 77,
      "start": 68.8906,
      "duration": 0.4978,
      "velocity": 103,
      "chip": "ym2612"
    },
    {
      "channel": 0,
      "note": 98,
      "start": 68.9993,
      "duration": 0.1247,
      "velocity": 114,
      "chip": "ym2612"
    },
    {
      "channel": 0,
      "note": 54,
      "start": 69.1239,
      "duration": 0.0307,
      "velocity": 114,
      "chip": "ym2612"
    },
    {
      "channel": 0,
      "note": 98,
      "start": 69.2483,
      "duration": 0.0154,
      "velocity": 127,
      "chip": "ym2612"
    },
    {
      "channel": 1,
      "note": 65,
      "start": 69.2484,
      "duration": 0.3732,
      "velocity": 93,
      "chip": "ym2612"
    },
    {
      "channel": 2,
      "note": 82,
      "start": 69.2485,
      "duration": 0.249,
      "velocity": 103,
      "chip": "ym2612"
    },
    {
      "channel": 0,
      "note": 76,
      "start": 69.2636,
      "duration": 0.1091,
      "velocity": 114,
      "chip": "ym2612"
    },
    {
      "channel": 0,
      "note": 67,
      "start": 69.3728,
      "duration": 0.0309,
      "velocity": 114,
      "chip": "ym2612"
    },
    {
      "channel": 4,
      "note": 82,
      "start": 69.3884,
      "duration": 0.249,
      "velocity": 103,
      "chip": "ym2612"
    },
    {
      "channel": 0,
      "note": 98,
      "start": 69.4973,
      "duration": 0.249,
      "velocity": 123,
      "chip": "ym2612"
    },
    {
      "channel": 2,
      "note": 82,
      "start": 69.4975,
      "duration": 0.2491,
      "velocity": 103,
      "chip": "ym2612"
    },
    {
      "channel": 4,
      "note": 82,
      "start": 69.6374,
      "duration": 0.249,
      "velocity": 103,
      "chip": "ym2612"
    },
    {
      "channel": 0,
      "note": 98,
      "start": 69.7463,
      "duration": 0.1245,
      "velocity": 114,
      "chip": "ym2612"
    },
    {
      "channel": 1,
      "note": 65,
      "start": 69.7465,
      "duration": 0.3735,
      "velocity": 93,
      "chip": "ym2612"
    },
    {
      "channel": 2,
      "note": 84,
      "start": 69.7466,
      "duration": 0.996,
      "velocity": 103,
      "chip": "ym2612"
    },
    {
      "channel": 0,
      "note": 54,
      "start": 69.8708,
      "duration": 0.0309,
      "velocity": 114,
      "chip": "ym2612"
    },
    {
      "channel": 4,
      "note": 84,
      "start": 69.8864,
      "duration": 0.996,
      "velocity": 103,
      "chip": "ym2612"
    },
    {
      "channel": 0,
      "note": 98,
      "start": 69.9953,
      "duration": 0.0309,
      "velocity": 114,
      "chip": "ym2612"
    },
    {
      "channel": 0,
      "note": 98,
      "start": 70.1198,
      "duration": 0.0154,
      "velocity": 127,
      "chip": "ym2612"
    },
    {
      "channel": 1,
      "note": 58,
      "start": 70.1199,
      "duration": 0.062,
      "velocity": 93,
      "chip": "ym2612"
    },
    {
      "channel": 0,
      "note": 76,
      "start": 70.1352,
      "duration": 0.1091,
      "velocity": 114,
      "chip": "ym2612"
    },
    {
      "channel": 0,
      "note": 67,
      "start": 70.2443,
      "duration": 0.0309,
      "velocity": 114,
      "chip": "ym2612"
    },
    {
      "channel": 0,
      "note": 98,
      "start": 70.3688,
      "duration": 0.1245,
      "velocity": 123,
      "chip": "ym2612"
    },
    {
      "channel": 1,
      "note": 70,
      "start": 70.3689,
      "duration": 0.0309,
      "velocity": 93,
      "chip": "ym2612"
    },
    {
      "channel": 0,
      "note": 54,
      "start": 70.4933,
      "duration": 0.1245,
      "velocity": 114,
      "chip": "ym2612"
    },
    {
      "channel": 1,
      "note": 58,
      "start": 70.4934,
      "duration": 0.249,
      "velocity": 93,
      "chip": "ym2612"
    },
    {
      "channel": 0,
      "note": 54,
      "start": 70.6178,
      "duration": 0.0309,
      "velocity": 114,
      "chip": "ym2612"
    },
    {
      "channel": 0,
      "note": 98,
      "start": 70.7423,
      "duration": 0.1245,
      "velocity": 114,
      "chip": "ym2612"
    },
    {
      "channel": 1,
      "note": 58,
      "start": 70.7425,
      "duration": 0.4982,
      "velocity": 93,
      "chip": "ym2612"
    },
    {
      "channel": 2,
      "note": 85,
      "start": 70.7426,
      "duration": 0.9961,
      "velocity": 103,
      "chip": "ym2612"
    },
    {
      "channel": 0,
      "note": 54,
      "start": 70.8668,
      "duration": 0.0309,
      "velocity": 114,
      "chip": "ym2612"
    },
    {
      "channel": 4,
      "note": 85,
      "start": 70.8825,
      "duration": 0.996,
      "velocity": 103,
      "chip": "ym2612"
    },
    {
      "channel": 0,
      "note": 98,
      "start": 70.9913,
      "duration": 0.1245,
      "velocity": 114,
      "chip": "ym2612"
    },
    {
      "channel": 0,
      "note": 54,
      "start": 71.1159,
      "duration": 0.0309,
      "velocity": 114,
      "chip": "ym2612"
    },
    {
      "channel": 0,
      "note": 98,
      "start": 71.2405,
      "duration": 0.0152,
      "velocity": 127,
      "chip": "ym2612"
    },
    {
      "channel": 1,
      "note": 53,
      "start": 71.2407,
      "duration": 0.4979,
      "velocity": 93,
      "chip": "ym2612"
    },
    {
      "channel": 0,
      "note": 76,
      "start": 71.2557,
      "duration": 0.1091,
      "velocity": 114,
      "chip": "ym2612"
    },
    {
      "channel": 0,
      "note": 67,
      "start": 71.3649,
      "duration": 0.0309,
      "velocity": 114,
      "chip": "ym2612"
    },
    {
      "channel": 0,
      "note": 98,
      "start": 71.4894,
      "duration": 0.249,
      "velocity": 123,
      "chip": "ym2612"
    },
    {
      "channel": 0,
      "note": 98,
      "start": 71.7384,
      "duration": 0.1245,
      "velocity": 114,
      "chip": "ym2612"
    },
    {
      "channel": 1,
      "note": 56,
      "start": 71.7385,
      "duration": 0.3735,
      "velocity": 93,
      "chip": "ym2612"
    },
    {
      "channel": 2,
      "note": 87,
      "start": 71.7386,
      "duration": 0.996,
      "velocity": 103,
      "chip": "ym2612"
    },
    {
      "channel": 0,
      "note": 54,
      "start": 71.8629,
      "duration": 0.0309,
      "velocity": 114,
      "chip": "ym2612"
    },
    {
      "channel": 4,
      "note": 87,
      "start": 71.8785,
      "duration": 0.996,
      "velocity": 103,
      "chip": "ym2612"
    },
    {
      "channel": 0,
      "note": 98,
      "start": 71.9874,
      "duration": 0.0309,
      "velocity": 114,
      "chip": "ym2612"
    },
    {
      "channel": 0,
      "note": 98,
      "start": 72.1119,
      "duration": 0.0154,
      "velocity": 127,
      "chip": "ym2612"
    },
    {
      "channel": 1,
      "note": 58,
      "start": 72.112,
      "duration": 0.062,
      "velocity": 93,
      "chip": "ym2612"
    },
    {
      "channel": 0,
      "note": 76,
      "start": 72.1272,
      "duration": 0.1091,
      "velocity": 114,
      "chip": "ym2612"
    },
    {
      "channel": 0,
      "note": 67,
      "start": 72.2364,
      "duration": 0.0309,
      "velocity": 114,
      "chip": "ym2612"
    },
    {
      "channel": 0,
      "note": 98,
      "start": 72.3609,
      "duration": 0.1245,
      "velocity": 123,
      "chip": "ym2612"
    },
    {
      "channel": 1,
      "note": 70,
      "start": 72.361,
      "duration": 0.0309,
      "velocity": 93,
      "chip": "ym2612"
    },
    {
      "channel": 0,
      "note": 54,
      "start": 72.4854,
      "duration": 0.1245,
      "velocity": 114,
      "chip": "ym2612"
    },
    {
      "channel": 1,
      "note": 58,
      "start": 72.4855,
      "duration": 0.249,
      "velocity": 93,
      "chip": "ym2612"
    },
    {
      "channel": 0,
      "note": 54,
      "start": 72.6099,
      "duration": 0.0309,
      "velocity": 114,
      "chip": "ym2612"
    },
    {
      "channel": 0,
      "note": 98,
      "start": 72.7344,
      "duration": 0.1245,
      "velocity": 114,
      "chip": "ym2612"
    },
    {
      "channel": 1,
      "note": 58,
      "start": 72.7345,
      "duration": 0.3735,
      "velocity": 93,
      "chip": "ym2612"
    },
    {
      "channel": 2,
      "note": 84,
      "start": 72.7347,
      "duration": 0.9961,
      "velocity": 103,
      "chip": "ym2612"
    },
    {
      "channel": 0,
      "note": 54,
      "start": 72.8589,
      "duration": 0.0309,
      "velocity": 114,
      "chip": "ym2612"
    },
    {
      "channel": 4,
      "note": 84,
      "start": 72.8746,
      "duration": 0.996,
      "velocity": 103,
      "chip": "ym2612"
    },
    {
      "channel": 0,
      "note": 98,
      "start": 72.9834,
      "duration": 0.1245,
      "velocity": 114,
      "chip": "ym2612"
    },
    {
      "channel": 0,
      "note": 54,
      "start": 73.1079,
      "duration": 0.0309,
      "velocity": 114,
      "chip": "ym2612"
    },
    {
      "channel": 0,
      "note": 98,
      "start": 73.2324,
      "duration": 0.0154,
      "velocity": 127,
      "chip": "ym2612"
    },
    {
      "channel": 1,
      "note": 65,
      "start": 73.2325,
      "duration": 0.3732,
      "velocity": 93,
      "chip": "ym2612"
    },
    {
      "channel": 0,
      "note": 76,
      "start": 73.2478,
      "duration": 0.1093,
      "velocity": 114,
      "chip": "ym2612"
    },
    {
      "channel": 0,
      "note": 67,
      "start": 73.3571,
      "duration": 0.0307,
      "velocity": 114,
      "chip": "ym2612"
    },
    {
      "channel": 0,
      "note": 98,
      "start": 73.4814,
      "duration": 0.249,
      "velocity": 123,
      "chip": "ym2612"
    },
    {
      "channel": 0,
      "note": 98,
      "start": 73.7305,
      "duration": 0.1245,
      "velocity": 114,
      "chip": "ym2612"
    },
    {
      "channel": 1,
      "note": 65,
      "start": 73.7307,
      "duration": 0.3734,
      "velocity": 93,
      "chip": "ym2612"
    },
    {
      "channel": 2,
      "note": 80,
      "start": 73.7308,
      "duration": 0.9959,
      "velocity": 103,
      "chip": "ym2612"
    },
    {
      "channel": 0,
      "note": 54,
      "start": 73.8549,
      "duration": 0.0309,
      "velocity": 114,
      "chip": "ym2612"
    },
    {
      "channel": 4,
      "note": 80,
      "start": 73.8706,
      "duration": 0.996,
      "velocity": 103,
      "chip": "ym2612"
    },
    {
      "channel": 0,
      "note": 98,
      "start": 73.9795,
      "duration": 0.0309,
      "velocity": 114,
      "chip": "ym2612"
    },
    {
      "channel": 0,
      "note": 98,
      "start": 74.1039,
      "duration": 0.0154,
      "velocity": 127,
      "chip": "ym2612"
    },
    {
      "channel": 1,
      "note": 58,
      "start": 74.1041,
      "duration": 0.062,
      "velocity": 93,
      "chip": "ym2612"
    },
    {
      "channel": 0,
      "note": 76,
      "start": 74.1193,
      "duration": 0.1091,
      "velocity": 114,
      "chip": "ym2612"
    },
    {
      "channel": 0,
      "note": 67,
      "start": 74.2285,
      "duration": 0.0309,
      "velocity": 114,
      "chip": "ym2612"
    },
    {
      "channel": 0,
      "note": 98,
      "start": 74.353,
      "duration": 0.1245,
      "velocity": 123,
      "chip": "ym2612"
    },
    {
      "channel": 1,
      "note": 70,
      "start": 74.3531,
      "duration": 0.0309,
      "velocity": 93,
      "chip": "ym2612"
    },
    {
      "channel": 0,
      "note": 54,
      "start": 74.4775,
      "duration": 0.1245,
      "velocity": 114,
      "chip": "ym2612"
    },
    {
      "channel": 1,
      "note": 58,
      "start": 74.4776,
      "duration": 0.249,
      "velocity": 93,
      "chip": "ym2612"
    },
    {
      "channel": 0,
      "note": 54,
      "start": 74.602,
      "duration": 0.0309,
      "velocity": 114,
      "chip": "ym2612"
    },
    {
      "channel": 0,
      "note": 98,
      "start": 74.7265,
      "duration": 0.1245,
      "velocity": 114,
      "chip": "ym2612"
    },
    {
      "channel": 1,
      "note": 58,
      "start": 74.7266,
      "duration": 0.498,
      "velocity": 93,
      "chip": "ym2612"
    },
    {
      "channel": 2,
      "note": 85,
      "start": 74.7267,
      "duration": 0.9961,
      "velocity": 103,
      "chip": "ym2612"
    },
    {
      "channel": 0,
      "note": 54,
      "start": 74.851,
      "duration": 0.0309,
      "velocity": 114,
      "chip": "ym2612"
    },
    {
      "channel": 4,
      "note": 85,
      "start": 74.8666,
      "duration": 0.996,
      "velocity": 103,
      "chip": "ym2612"
    },
    {
      "channel": 0,
      "note": 98,
      "start": 74.9755,
      "duration": 0.1245,
      "velocity": 114,
      "chip": "ym2612"
    },
    {
      "channel": 0,
      "note": 54,
      "start": 75.1,
      "duration": 0.0309,
      "velocity": 114,
      "chip": "ym2612"
    },
    {
      "channel": 0,
      "note": 98,
      "start": 75.2245,
      "duration": 0.0154,
      "velocity": 127,
      "chip": "ym2612"
    },
    {
      "channel": 1,
      "note": 53,
      "start": 75.2246,
      "duration": 0.498,
      "velocity": 93,
      "chip": "ym2612"
    },
    {
      "channel": 0,
      "note": 76,
      "start": 75.2399,
      "duration": 0.1091,
      "velocity": 114,
      "chip": "ym2612"
    },
    {
      "channel": 0,
      "note": 67,
      "start": 75.349,
      "duration": 0.0309,
      "velocity": 114,
      "chip": "ym2612"
    },
    {
      "channel": 0,
      "note": 98,
      "start": 75.4735,
      "duration": 0.249,
      "velocity": 123,
      "chip": "ym2612"
    },
    {
      "channel": 0,
      "note": 98,
      "start": 75.7225,
      "duration": 0.1245,
      "velocity": 114,
      "chip": "ym2612"
    },
    {
      "channel": 1,
      "note": 56,
      "start": 75.7227,
      "duration": 0.3735,
      "velocity": 93,
      "chip": "ym2612"
    },
    {
      "channel": 2,
      "note": 84,
      "start": 75.7228,
      "duration": 0.498,
      "velocity": 103,
      "chip": "ym2612"
    },
    {
      "channel": 0,
      "note": 54,
      "start": 75.847,
      "duration": 0.0309,
      "velocity": 114,
      "chip": "ym2612"
    },
    {
      "channel": 4,
      "note": 84,
      "start": 75.8627,
      "duration": 0.498,
      "velocity": 103,
      "chip": "ym2612"
    },
    {
      "channel": 0,
      "note": 98,
      "start": 75.9715,
      "duration": 0.0309,
      "velocity": 114,
      "chip": "ym2612"
    },
    {
      "channel": 0,
      "note": 98,
      "start": 76.096,
      "duration": 0.0154,
      "velocity": 127,
      "chip": "ym2612"
    },
    {
      "channel": 1,
      "note": 58,
      "start": 76.0962,
      "duration": 0.062,
      "velocity": 93,
      "chip": "ym2612"
    },
    {
      "channel": 0,
      "note": 76,
      "start": 76.1114,
      "duration": 0.1091,
      "velocity": 114,
      "chip": "ym2612"
    },
    {
      "channel": 0,
      "note": 67,
      "start": 76.2205,
      "duration": 0.0309,
      "velocity": 114,
      "chip": "ym2612"
    },
    {
      "channel": 2,
      "note": 80,
      "start": 76.2207,
      "duration": 0.498,
      "velocity": 103,
      "chip": "ym2612"
    },
    {
      "channel": 0,
      "note": 98,
      "start": 76.345,
      "duration": 0.1245,
      "velocity": 123,
      "chip": "ym2612"
    },
    {
      "channel": 1,
      "note": 70,
      "start": 76.3452,
      "duration": 0.0309,
      "velocity": 93,
      "chip": "ym2612"
    },
    {
      "channel": 4,
      "note": 80,
      "start": 76.3607,
      "duration": 0.498,
      "velocity": 103,
      "chip": "ym2612"
    },
    {
      "channel": 0,
      "note": 54,
      "start": 76.4695,
      "duration": 0.1245,
      "velocity": 114,
      "chip": "ym2612"
    },
    {
      "channel": 1,
      "note": 58,
      "start": 76.4697,
      "duration": 0.249,
      "velocity": 93,
      "chip": "ym2612"
    },
    {
      "channel": 0,
      "note": 54,
      "start": 76.5941,
      "duration": 0.0309,
      "velocity": 114,
      "chip": "ym2612"
    },
    {
      "channel": 0,
      "note": 98,
      "start": 76.7185,
      "duration": 0.1245,
      "velocity": 114,
      "chip": "ym2612"
    },
    {
      "channel": 1,
      "note": 58,
      "start": 76.7187,
      "duration": 0.3735,
      "velocity": 93,
      "chip": "ym2612"
    },
    {
      "channel": 2,
      "note": 77,
      "start": 76.7188,
      "duration": 0.498,
      "velocity": 103,
      "chip": "ym2612"
    },
    {
      "channel": 0,
      "note": 54,
      "start": 76.8431,
      "duration": 0.0309,
      "velocity": 114,
      "chip": "ym2612"
    },
    {
      "channel": 4,
      "note": 77,
      "start": 76.8587,
      "duration": 0.498,
      "velocity": 103,
      "chip": "ym2612"
    },
    {
      "channel": 0,
      "note": 98,
      "start": 76.9676,
      "duration": 0.1245,
      "velocity": 114,
      "chip": "ym2612"
    },
    {
      "channel": 0,
      "note": 54,
      "start": 77.0921,
      "duration": 0.0309,
      "velocity": 114,
      "chip": "ym2612"
    },
    {
      "channel": 0,
      "note": 98,
      "start": 77.2166,
      "duration": 0.0154,
      "velocity": 127,
      "chip": "ym2612"
    },
    {
      "channel": 1,
      "note": 65,
      "start": 77.2167,
      "duration": 0.3732,
      "velocity": 93,
      "chip": "ym2612"
    },
    {
      "channel": 2,
      "note": 82,
      "start": 77.2168,
      "duration": 0.249,
      "velocity": 103,
      "chip": "ym2612"
    },
    {
      "channel": 0,
      "note": 76,
      "start": 77.2319,
      "duration": 0.1091,
      "velocity": 114,
      "chip": "ym2612"
    },
    {
      "channel": 0,
      "note": 67,
      "start": 77.3411,
      "duration": 0.0309,
      "velocity": 114,
      "chip": "ym2612"
    },
    {
      "channel": 4,
      "note": 82,
      "start": 77.3567,
      "duration": 0.249,
      "velocity": 103,
      "chip": "ym2612"
    },
    {
      "channel": 0,
      "note": 98,
      "start": 77.4656,
      "duration": 0.249,
      "velocity": 123,
      "chip": "ym2612"
    },
    {
      "channel": 2,
      "note": 82,
      "start": 77.4658,
      "duration": 0.2491,
      "velocity": 103,
      "chip": "ym2612"
    },
    {
      "channel": 4,
      "note": 82,
      "start": 77.6057,
      "duration": 0.249,
      "velocity": 103,
      "chip": "ym2612"
    },
    {
      "channel": 0,
      "note": 98,
      "start": 77.7146,
      "duration": 0.1245,
      "velocity": 114,
      "chip": "ym2612"
    },
    {
      "channel": 1,
      "note": 65,
      "start": 77.7148,
      "duration": 0.3735,
      "velocity": 93,
      "chip": "ym2612"
    },
    {
      "channel": 2,
      "note": 84,
      "start": 77.7149,
      "duration": 0.996,
      "velocity": 103,
      "chip": "ym2612"
    },
    {
      "channel": 0,
      "note": 54,
      "start": 77.8391,
      "duration": 0.0309,
      "velocity": 114,
      "chip": "ym2612"
    },
    {
      "channel": 4,
      "note": 84,
      "start": 77.8547,
      "duration": 0.996,
      "velocity": 103,
      "chip": "ym2612"
    },
    {
      "channel": 0,
      "note": 98,
      "start": 77.9636,
      "duration": 0.0309,
      "velocity": 114,
      "chip": "ym2612"
    },
    {
      "channel": 0,
      "note": 98,
      "start": 78.0881,
      "duration": 0.0154,
      "velocity": 127,
      "chip": "ym2612"
    },
    {
      "channel": 1,
      "note": 58,
      "start": 78.0883,
      "duration": 0.062,
      "velocity": 93,
      "chip": "ym2612"
    },
    {
      "channel": 0,
      "note": 76,
      "start": 78.1035,
      "duration": 0.1091,
      "velocity": 114,
      "chip": "ym2612"
    },
    {
      "channel": 0,
      "note": 67,
      "start": 78.2126,
      "duration": 0.0309,
      "velocity": 114,
      "chip": "ym2612"
    },
    {
      "channel": 0,
      "note": 98,
      "start": 78.3371,
      "duration": 0.1245,
      "velocity": 123,
      "chip": "ym2612"
    },
    {
      "channel": 1,
      "note": 70,
      "start": 78.3373,
      "duration": 0.0309,
      "velocity": 93,
      "chip": "ym2612"
    },
    {
      "channel": 0,
      "note": 54,
      "start": 78.4616,
      "duration": 0.1245,
      "velocity": 114,
      "chip": "ym2612"
    },
    {
      "channel": 1,
      "note": 58,
      "start": 78.4617,
      "duration": 0.249,
      "velocity": 93,
      "chip": "ym2612"
    },
    {
      "channel": 0,
      "note": 54,
      "start": 78.5861,
      "duration": 0.0309,
      "velocity": 114,
      "chip": "ym2612"
    },
    {
      "channel": 0,
      "note": 98,
      "start": 78.7106,
      "duration": 0.1245,
      "velocity": 114,
      "chip": "ym2612"
    },
    {
      "channel": 1,
      "note": 58,
      "start": 78.7108,
      "duration": 0.498,
      "velocity": 93,
      "chip": "ym2612"
    },
    {
      "channel": 2,
      "note": 85,
      "start": 78.7109,
      "duration": 0.9962,
      "velocity": 103,
      "chip": "ym2612"
    },
    {
      "channel": 0,
      "note": 54,
      "start": 78.8351,
      "duration": 0.0309,
      "velocity": 114,
      "chip": "ym2612"
    },
    {
      "channel": 4,
      "note": 85,
      "start": 78.8508,
      "duration": 0.996,
      "velocity": 103,
      "chip": "ym2612"
    },
    {
      "channel": 0,
      "note": 98,
      "start": 78.9596,
      "duration": 0.1245,
      "velocity": 114,
      "chip": "ym2612"
    },
    {
      "channel": 0,
      "note": 54,
      "start": 79.0841,
      "duration": 0.0309,
      "velocity": 114,
      "chip": "ym2612"
    },
    {
      "channel": 0,
      "note": 98,
      "start": 79.2087,
      "duration": 0.0154,
      "velocity": 127,
      "chip": "ym2612"
    },
    {
      "channel": 1,
      "note": 53,
      "start": 79.2088,
      "duration": 0.498,
      "velocity": 93,
      "chip": "ym2612"
    },
    {
      "channel": 0,
      "note": 76,
      "start": 79.224,
      "duration": 0.1091,
      "velocity": 114,
      "chip": "ym2612"
    },
    {
      "channel": 0,
      "note": 67,
      "start": 79.3332,
      "duration": 0.0309,
      "velocity": 114,
      "chip": "ym2612"
    },
    {
      "channel": 0,
      "note": 98,
      "start": 79.4577,
      "duration": 0.249,
      "velocity": 123,
      "chip": "ym2612"
    },
    {
      "channel": 0,
      "note": 98,
      "start": 79.7067,
      "duration": 0.1245,
      "velocity": 114,
      "chip": "ym2612"
    },
    {
      "channel": 1,
      "note": 56,
      "start": 79.7068,
      "duration": 0.3735,
      "velocity": 93,
      "chip": "ym2612"
    },
    {
      "channel": 2,
      "note": 87,
      "start": 79.7071,
      "duration": 1.7428,
      "velocity": 103,
      "chip": "ym2612"
    },
    {
      "channel": 0,
      "note": 54,
      "start": 79.8312,
      "duration": 0.0309,
      "velocity": 114,
      "chip": "ym2612"
    },
    {
      "channel": 4,
      "note": 87,
      "start": 79.8468,
      "duration": 1.7431,
      "velocity": 103,
      "chip": "ym2612"
    },
    {
      "channel": 0,
      "note": 98,
      "start": 79.9557,
      "duration": 0.0309,
      "velocity": 114,
      "chip": "ym2612"
    },
    {
      "channel": 0,
      "note": 98,
      "start": 80.0802,
      "duration": 0.0154,
      "velocity": 127,
      "chip": "ym2612"
    },
    {
      "channel": 1,
      "note": 58,
      "start": 80.0803,
      "duration": 0.062,
      "velocity": 93,
      "chip": "ym2612"
    },
    {
      "channel": 0,
      "note": 76,
      "start": 80.0956,
      "duration": 0.1091,
      "velocity": 114,
      "chip": "ym2612"
    },
    {
      "channel": 0,
      "note": 67,
      "start": 80.2047,
      "duration": 0.0309,
      "velocity": 114,
      "chip": "ym2612"
    },
    {
      "channel": 0,
      "note": 98,
      "start": 80.3292,
      "duration": 0.1245,
      "velocity": 123,
      "chip": "ym2612"
    },
    {
      "channel": 1,
      "note": 70,
      "start": 80.3293,
      "duration": 0.0309,
      "velocity": 93,
      "chip": "ym2612"
    },
    {
      "channel": 0,
      "note": 54,
      "start": 80.4537,
      "duration": 0.1245,
      "velocity": 114,
      "chip": "ym2612"
    },
    {
      "channel": 1,
      "note": 58,
      "start": 80.4538,
      "duration": 0.249,
      "velocity": 93,
      "chip": "ym2612"
    },
    {
      "channel": 0,
      "note": 54,
      "start": 80.5782,
      "duration": 0.0309,
      "velocity": 114,
      "chip": "ym2612"
    },
    {
      "channel": 0,
      "note": 98,
      "start": 80.7027,
      "duration": 0.1245,
      "velocity": 114,
      "chip": "ym2612"
    },
    {
      "channel": 1,
      "note": 58,
      "start": 80.7029,
      "duration": 0.3735,
      "velocity": 93,
      "chip": "ym2612"
    },
    {
      "channel": 0,
      "note": 54,
      "start": 80.8272,
      "duration": 0.0309,
      "velocity": 114,
      "chip": "ym2612"
    },
    {
      "channel": 0,
      "note": 98,
      "start": 80.9517,
      "duration": 0.1245,
      "velocity": 114,
      "chip": "ym2612"
    },
    {
      "channel": 0,
      "note": 54,
      "start": 81.0762,
      "duration": 0.031,
      "velocity": 114,
      "chip": "ym2612"
    },
    {
      "channel": 0,
      "note": 98,
      "start": 81.2007,
      "duration": 0.0154,
      "velocity": 127,
      "chip": "ym2612"
    },
    {
      "channel": 1,
      "note": 65,
      "start": 81.2009,
      "duration": 0.3732,
      "velocity": 93,
      "chip": "ym2612"
    },
    {
      "channel": 0,
      "note": 76,
      "start": 81.2161,
      "duration": 0.1091,
      "velocity": 114,
      "chip": "ym2612"
    },
    {
      "channel": 0,
      "note": 67,
      "start": 81.3252,
      "duration": 0.0309,
      "velocity": 114,
      "chip": "ym2612"
    },
    {
      "channel": 0,
      "note": 98,
      "start": 81.4498,
      "duration": 0.249,
      "velocity": 123,
      "chip": "ym2612"
    },
    {
      "channel": 0,
      "note": 98,
      "start": 81.6988,
      "duration": 0.1245,
      "velocity": 114,
      "chip": "ym2612"
    },
    {
      "channel": 1,
      "note": 65,
      "start": 81.6989,
      "duration": 0.3734,
      "velocity": 93,
      "chip": "ym2612"
    },
    {
      "channel": 2,
      "note": 89,
      "start": 81.6993,
      "duration": 2.4898,
      "velocity": 99,
      "chip": "ym2612"
    },
    {
      "channel": 3,
      "note": 52,
      "start": 81.6997,
      "duration": 1.9916,
      "velocity": 111,
      "chip": "ym2612"
    },
    {
      "channel": 0,
      "note": 54,
      "start": 81.8232,
      "duration": 0.0309,
      "velocity": 114,
      "chip": "ym2612"
    },
    {
      "channel": 5,
      "note": 52,
      "start": 81.839,
      "duration": 1.9921,
      "velocity": 111,
      "chip": "ym2612"
    },
    {
      "channel": 4,
      "note": 89,
      "start": 81.8856,
      "duration": 2.4901,
      "velocity": 99,
      "chip": "ym2612"
    },
    {
      "channel": 0,
      "note": 98,
      "start": 81.9478,
      "duration": 0.0309,
      "velocity": 114,
      "chip": "ym2612"
    },
    {
      "channel": 0,
      "note": 98,
      "start": 82.0723,
      "duration": 0.0154,
      "velocity": 127,
      "chip": "ym2612"
    },
    {
      "channel": 1,
      "note": 59,
      "start": 82.0724,
      "duration": 0.062,
      "velocity": 93,
      "chip": "ym2612"
    },
    {
      "channel": 0,
      "note": 76,
      "start": 82.0876,
      "duration": 0.1091,
      "velocity": 114,
      "chip": "ym2612"
    },
    {
      "channel": 0,
      "note": 67,
      "start": 82.1968,
      "duration": 0.0309,
      "velocity": 114,
      "chip": "ym2612"
    },
    {
      "channel": 0,
      "note": 98,
      "start": 82.3213,
      "duration": 0.1245,
      "velocity": 123,
      "chip": "ym2612"
    },
    {
      "channel": 1,
      "note": 71,
      "start": 82.3214,
      "duration": 0.0309,
      "velocity": 93,
      "chip": "ym2612"
    },
    {
      "channel": 0,
      "note": 54,
      "start": 82.4458,
      "duration": 0.1245,
      "velocity": 114,
      "chip": "ym2612"
    },
    {
      "channel": 1,
      "note": 59,
      "start": 82.4459,
      "duration": 0.249,
      "velocity": 93,
      "chip": "ym2612"
    },
    {
      "channel": 0,
      "note": 54,
      "start": 82.5703,
      "duration": 0.0309,
      "velocity": 114,
      "chip": "ym2612"
    },
    {
      "channel": 0,
      "note": 98,
      "start": 82.6948,
      "duration": 0.1245,
      "velocity": 114,
      "chip": "ym2612"
    },
    {
      "channel": 1,
      "note": 59,
      "start": 82.6949,
      "duration": 0.498,
      "velocity": 93,
      "chip": "ym2612"
    },
    {
      "channel": 0,
      "note": 54,
      "start": 82.8193,
      "duration": 0.0309,
      "velocity": 114,
      "chip": "ym2612"
    },
    {
      "channel": 0,
      "note": 98,
      "start": 82.9438,
      "duration": 0.1245,
      "velocity": 114,
      "chip": "ym2612"
    },
    {
      "channel": 0,
      "note": 54,
      "start": 83.0683,
      "duration": 0.0309,
      "velocity": 114,
      "chip": "ym2612"
    },
    {
      "channel": 0,
      "note": 98,
      "start": 83.1928,
      "duration": 0.0154,
      "velocity": 127,
      "chip": "ym2612"
    },
    {
      "channel": 1,
      "note": 59,
      "start": 83.1929,
      "duration": 0.498,
      "velocity": 93,
      "chip": "ym2612"
    },
    {
      "channel": 0,
      "note": 76,
      "start": 83.2082,
      "duration": 0.1091,
      "velocity": 114,
      "chip": "ym2612"
    },
    {
      "channel": 0,
      "note": 67,
      "start": 83.3173,
      "duration": 0.0309,
      "velocity": 114,
      "chip": "ym2612"
    },
    {
      "channel": 0,
      "note": 98,
      "start": 83.4418,
      "duration": 0.249,
      "velocity": 123,
      "chip": "ym2612"
    },
    {
      "channel": 0,
      "note": 98,
      "start": 83.6908,
      "duration": 0.1245,
      "velocity": 114,
      "chip": "ym2612"
    },
    {
      "channel": 1,
      "note": 56,
      "start": 83.691,
      "duration": 0.3735,
      "velocity": 93,
      "chip": "ym2612"
    },
    {
      "channel": 3,
      "note": 47,
      "start": 83.6912,
      "duration": 1.9921,
      "velocity": 111,
      "chip": "ym2612"
    },
    {
      "channel": 0,
      "note": 54,
      "start": 83.8153,
      "duration": 0.0309,
      "velocity": 114,
      "chip": "ym2612"
    },
    {
      "channel": 5,
      "note": 47,
      "start": 83.8311,
      "duration": 1.992,
      "velocity": 111,
      "chip": "ym2612"
    },
    {
      "channel": 0,
      "note": 98,
      "start": 83.9398,
      "duration": 0.0309,
      "velocity": 114,
      "chip": "ym2612"
    },
    {
      "channel": 0,
      "note": 98,
      "start": 84.0643,
      "duration": 0.0154,
      "velocity": 127,
      "chip": "ym2612"
    },
    {
      "channel": 1,
      "note": 61,
      "start": 84.0645,
      "duration": 0.062,
      "velocity": 93,
      "chip": "ym2612"
    },
    {
      "channel": 0,
      "note": 76,
      "start": 84.0797,
      "duration": 0.1091,
      "velocity": 114,
      "chip": "ym2612"
    },
    {
      "channel": 0,
      "note": 67,
      "start": 84.1888,
      "duration": 0.0309,
      "velocity": 114,
      "chip": "ym2612"
    },
    {
      "channel": 2,
      "note": 65,
      "start": 84.189,
      "duration": 0.498,
      "velocity": 99,
      "chip": "ym2612"
    },
    {
      "channel": 0,
      "note": 98,
      "start": 84.3134,
      "duration": 0.1245,
      "velocity": 123,
      "chip": "ym2612"
    },
    {
      "channel": 1,
      "note": 73,
      "start": 84.3135,
      "duration": 0.0309,
      "velocity": 93,
      "chip": "ym2612"
    },
    {
      "channel": 4,
      "note": 65,
      "start": 84.3757,
      "duration": 0.4982,
      "velocity": 99,
      "chip": "ym2612"
    },
    {
      "channel": 0,
      "note": 54,
      "start": 84.4378,
      "duration": 0.1245,
      "velocity": 114,
      "chip": "ym2612"
    },
    {
      "channel": 1,
      "note": 61,
      "start": 84.438,
      "duration": 0.249,
      "velocity": 93,
      "chip": "ym2612"
    },
    {
      "channel": 0,
      "note": 54,
      "start": 84.5624,
      "duration": 0.0309,
      "velocity": 114,
      "chip": "ym2612"
    },
    {
      "channel": 0,
      "note": 98,
      "start": 84.6869,
      "duration": 0.1245,
      "velocity": 114,
      "chip": "ym2612"
    },
    {
      "channel": 1,
      "note": 61,
      "start": 84.687,
      "duration": 0.498,
      "velocity": 93,
      "chip": "ym2612"
    },
    {
      "channel": 2,
      "note": 63,
      "start": 84.6871,
      "duration": 0.498,
      "velocity": 99,
      "chip": "ym2612"
    },
    {
      "channel": 0,
      "note": 54,
      "start": 84.8114,
      "duration": 0.0309,
      "velocity": 114,
      "chip": "ym2612"
    },
    {
      "channel": 4,
      "note": 63,
      "start": 84.8739,
      "duration": 0.4978,
      "velocity": 99,
      "chip": "ym2612"
    },
    {
      "channel": 0,
      "note": 98,
      "start": 84.9359,
      "duration": 0.1245,
      "velocity": 114,
      "chip": "ym2612"
    },
    {
      "channel": 0,
      "note": 54,
      "start": 85.0604,
      "duration": 0.0309,
      "velocity": 114,
      "chip": "ym2612"
    },
    {
      "channel": 0,
      "note": 98,
      "start": 85.1849,
      "duration": 0.0154,
      "velocity": 127,
      "chip": "ym2612"
    },
    {
      "channel": 1,
      "note": 61,
      "start": 85.185,
      "duration": 0.249,
      "velocity": 93,
      "chip": "ym2612"
    },
    {
      "channel": 2,
      "note": 68,
      "start": 85.1851,
      "duration": 0.498,
      "velocity": 99,
      "chip": "ym2612"
    },
    {
      "channel": 0,
      "note": 76,
      "start": 85.2002,
      "duration": 0.1091,
      "velocity": 114,
      "chip": "ym2612"
    },
    {
      "channel": 0,
      "note": 67,
      "start": 85.3094,
      "duration": 0.0311,
      "velocity": 114,
      "chip": "ym2612"
    },
    {
      "channel": 4,
      "note": 68,
      "start": 85.3717,
      "duration": 0.498,
      "velocity": 99,
      "chip": "ym2612"
    },
    {
      "channel": 0,
      "note": 98,
      "start": 85.4339,
      "duration": 0.249,
      "velocity": 123,
      "chip": "ym2612"
    },
    {
      "channel": 1,
      "note": 58,
      "start": 85.434,
      "duration": 0.249,
      "velocity": 93,
      "chip": "ym2612"
    },
    {
      "channel": 0,
      "note": 98,
      "start": 85.6829,
      "duration": 0.1245,
      "velocity": 114,
      "chip": "ym2612"
    },
    {
      "channel": 1,
      "note": 61,
      "start": 85.6831,
      "duration": 0.3735,
      "velocity": 93,
      "chip": "ym2612"
    },
    {
      "channel": 2,
      "note": 66,
      "start": 85.6832,
      "duration": 0.747,
      "velocity": 99,
      "chip": "ym2612"
    },
    {
      "channel": 3,
      "note": 49,
      "start": 85.6833,
      "duration": 1.992,
      "velocity": 111,
      "chip": "ym2612"
    },
    {
      "channel": 0,
      "note": 54,
      "start": 85.8074,
      "duration": 0.0309,
      "velocity": 114,
      "chip": "ym2612"
    },
    {
      "channel": 5,
      "note": 49,
      "start": 85.8231,
      "duration": 1.9921,
      "velocity": 111,
      "chip": "ym2612"
    },
    {
      "channel": 4,
      "note": 66,
      "start": 85.8698,
      "duration": 0.747,
      "velocity": 99,
      "chip": "ym2612"
    },
    {
      "channel": 0,
      "note": 98,
      "start": 85.9319,
      "duration": 0.0309,
      "velocity": 114,
      "chip": "ym2612"
    },
    {
      "channel": 0,
      "note": 98,
      "start": 86.0564,
      "duration": 0.0154,
      "velocity": 127,
      "chip": "ym2612"
    },
    {
      "channel": 1,
      "note": 63,
      "start": 86.0566,
      "duration": 0.062,
      "velocity": 93,
      "chip": "ym2612"
    },
    {
      "channel": 0,
      "note": 76,
      "start": 86.0718,
      "duration": 0.1091,
      "velocity": 114,
      "chip": "ym2612"
    },
    {
      "channel": 0,
      "note": 67,
      "start": 86.1809,
      "duration": 0.0309,
      "velocity": 114,
      "chip": "ym2612"
    },
    {
      "channel": 0,
      "note": 98,
      "start": 86.3054,
      "duration": 0.1245,
      "velocity": 123,
      "chip": "ym2612"
    },
    {
      "channel": 1,
      "note": 75,
      "start": 86.3056,
      "duration": 0.0309,
      "velocity": 93,
      "chip": "ym2612"
    },
    {
      "channel": 0,
      "note": 54,
      "start": 86.4299,
      "duration": 0.1245,
      "velocity": 114,
      "chip": "ym2612"
    },
    {
      "channel": 1,
      "note": 63,
      "start": 86.43,
      "duration": 0.249,
      "velocity": 93,
      "chip": "ym2612"
    },
    {
      "channel": 2,
      "note": 65,
      "start": 86.4302,
      "duration": 2.2411,
      "velocity": 99,
      "chip": "ym2612"
    },
    {
      "channel": 0,
      "note": 54,
      "start": 86.5544,
      "duration": 0.0309,
      "velocity": 114,
      "chip": "ym2612"
    },
    {
      "channel": 4,
      "note": 65,
      "start": 86.6168,
      "duration": 2.2411,
      "velocity": 99,
      "chip": "ym2612"
    },
    {
      "channel": 0,
      "note": 98,
      "start": 86.6789,
      "duration": 0.1245,
      "velocity": 114,
      "chip": "ym2612"
    },
    {
      "channel": 1,
      "note": 63,
      "start": 86.6791,
      "duration": 0.498,
      "velocity": 93,
      "chip": "ym2612"
    },
    {
      "channel": 0,
      "note": 54,
      "start": 86.8034,
      "duration": 0.0309,
      "velocity": 114,
      "chip": "ym2612"
    },
    {
      "channel": 0,
      "note": 98,
      "start": 86.9279,
      "duration": 0.1245,
      "velocity": 114,
      "chip": "ym2612"
    },
    {
      "channel": 0,
      "note": 54,
      "start": 87.0524,
      "duration": 0.0309,
      "velocity": 114,
      "chip": "ym2612"
    },
    {
      "channel": 0,
      "note": 98,
      "start": 87.177,
      "duration": 0.0154,
      "velocity": 127,
      "chip": "ym2612"
    },
    {
      "channel": 1,
      "note": 63,
      "start": 87.1771,
      "duration": 0.3732,
      "velocity": 93,
      "chip": "ym2612"
    },
    {
      "channel": 0,
      "note": 76,
      "start": 87.1923,
      "duration": 0.1091,
      "velocity": 114,
      "chip": "ym2612"
    },
    {
      "channel": 0,
      "note": 67,
      "start": 87.3015,
      "duration": 0.0309,
      "velocity": 114,
      "chip": "ym2612"
    },
    {
      "channel": 0,
      "note": 98,
      "start": 87.426,
      "duration": 0.249,
      "velocity": 123,
      "chip": "ym2612"
    },
    {
      "channel": 1,
      "note": 58,
      "start": 87.5503,
      "duration": 0.3738,
      "velocity": 93,
      "chip": "ym2612"
    },
    {
      "channel": 0,
      "note": 98,
      "start": 87.675,
      "duration": 0.1245,
      "velocity": 114,
      "chip": "ym2612"
    },
    {
      "channel": 3,
      "note": 51,
      "start": 87.6754,
      "duration": 1.9921,
      "velocity": 111,
      "chip": "ym2612"
    },
    {
      "channel": 0,
      "note": 54,
      "start": 87.7995,
      "duration": 0.0309,
      "velocity": 114,
      "chip": "ym2612"
    },
    {
      "channel": 5,
      "note": 51,
      "start": 87.8153,
      "duration": 1.9922,
      "velocity": 111,
      "chip": "ym2612"
    },
    {
      "channel": 0,
      "note": 98,
      "start": 87.9241,
      "duration": 0.0308,
      "velocity": 114,
      "chip": "ym2612"
    },
    {
      "channel": 1,
      "note": 66,
      "start": 87.9242,
      "duration": 0.1244,
      "velocity": 93,
      "chip": "ym2612"
    },
    {
      "channel": 0,
      "note": 98,
      "start": 88.0485,
      "duration": 0.0154,
      "velocity": 127,
      "chip": "ym2612"
    },
    {
      "channel": 0,
      "note": 76,
      "start": 88.0639,
      "duration": 0.1091,
      "velocity": 114,
      "chip": "ym2612"
    },
    {
      "channel": 0,
      "note": 67,
      "start": 88.173,
      "duration": 0.0309,
      "velocity": 114,
      "chip": "ym2612"
    },
    {
      "channel": 1,
      "note": 65,
      "start": 88.1731,
      "duration": 0.249,
      "velocity": 93,
      "chip": "ym2612"
    },
    {
      "channel": 0,
      "note": 98,
      "start": 88.2975,
      "duration": 0.1245,
      "velocity": 123,
      "chip": "ym2612"
    },
    {
      "channel": 0,
      "note": 54,
      "start": 88.422,
      "duration": 0.1245,
      "velocity": 114,
      "chip": "ym2612"
    },
    {
      "channel": 1,
      "note": 63,
      "start": 88.4221,
      "duration": 0.1245,
      "velocity": 93,
      "chip": "ym2612"
    },
    {
      "channel": 0,
      "note": 54,
      "start": 88.5465,
      "duration": 0.0309,
      "velocity": 114,
      "chip": "ym2612"
    },
    {
      "channel": 1,
      "note": 70,
      "start": 88.5466,
      "duration": 0.3735,
      "velocity": 93,
      "chip": "ym2612"
    },
    {
      "channel": 0,
      "note": 98,
      "start": 88.671,
      "duration": 0.1245,
      "velocity": 114,
      "chip": "ym2612"
    },
    {
      "channel": 0,
      "note": 54,
      "start": 88.7955,
      "duration": 0.0309,
      "velocity": 114,
      "chip": "ym2612"
    },
    {
      "channel": 0,
      "note": 98,
      "start": 88.92,
      "duration": 0.1245,
      "velocity": 114,
      "chip": "ym2612"
    },
    {
      "channel": 1,
      "note": 78,
      "start": 88.9202,
      "duration": 0.1245,
      "velocity": 93,
      "chip": "ym2612"
    },
    {
      "channel": 0,
      "note": 54,
      "start": 89.0445,
      "duration": 0.0309,
      "velocity": 114,
      "chip": "ym2612"
    },
    {
      "channel": 0,
      "note": 98,
      "start": 89.169,
      "duration": 0.0154,
      "velocity": 127,
      "chip": "ym2612"
    },
    {
      "channel": 1,
      "note": 77,
      "start": 89.1692,
      "duration": 0.249,
      "velocity": 93,
      "chip": "ym2612"
    },
    {
      "channel": 0,
      "note": 76,
      "start": 89.1844,
      "duration": 0.1091,
      "velocity": 114,
      "chip": "ym2612"
    },
    {
      "channel": 0,
      "note": 67,
      "start": 89.2935,
      "duration": 0.0309,
      "velocity": 114,
      "chip": "ym2612"
    },
    {
      "channel": 0,
      "note": 98,
      "start": 89.418,
      "duration": 0.249,
      "velocity": 123,
      "chip": "ym2612"
    },
    {
      "channel": 1,
      "note": 75,
      "start": 89.4182,
      "duration": 0.249,
      "velocity": 93,
      "chip": "ym2612"
    },
    {
      "channel": 0,
      "note": 98,
      "start": 89.6671,
      "duration": 0.1245,
      "velocity": 114,
      "chip": "ym2612"
    },
    {
      "channel": 1,
      "note": 70,
      "start": 89.6672,
      "duration": 0.3737,
      "velocity": 93,
      "chip": "ym2612"
    },
    {
      "channel": 2,
      "note": 63,
      "start": 89.6673,
      "duration": 2.4902,
      "velocity": 99,
      "chip": "ym2612"
    },
    {
      "channel": 3,
      "note": 51,
      "start": 89.6675,
      "duration": 1.9921,
      "velocity": 111,
      "chip": "ym2612"
    },
    {
      "channel": 0,
      "note": 54,
      "start": 89.7916,
      "duration": 0.0309,
      "velocity": 114,
      "chip": "ym2612"
    },
    {
      "channel": 5,
      "note": 51,
      "start": 89.8075,
      "duration": 1.9919,
      "velocity": 111,
      "chip": "ym2612"
    },
    {
      "channel": 4,
      "note": 63,
      "start": 89.8539,
      "duration": 2.4901,
      "velocity": 99,
      "chip": "ym2612"
    },
    {
      "channel": 0,
      "note": 98,
      "start": 89.9161,
      "duration": 0.0309,
      "velocity": 114,
      "chip": "ym2612"
    },
    {
      "channel": 0,
      "note": 98,
      "start": 90.0407,
      "duration": 0.0152,
      "velocity": 127,
      "chip": "ym2612"
    },
    {
      "channel": 1,
      "note": 59,
      "start": 90.0409,
      "duration": 0.0618,
      "velocity": 93,
      "chip": "ym2612"
    },
    {
      "channel": 0,
      "note": 76,
      "start": 90.0559,
      "duration": 0.1091,
      "velocity": 114,
      "chip": "ym2612"
    },
    {
      "channel": 0,
      "note": 67,
      "start": 90.1651,
      "duration": 0.0309,
      "velocity": 114,
      "chip": "ym2612"
    },
    {
      "channel": 0,
      "note": 98,
      "start": 90.2896,
      "duration": 0.1245,
      "velocity": 123,
      "chip": "ym2612"
    },
    {
      "channel": 1,
      "note": 71,
      "start": 90.2897,
      "duration": 0.0309,
      "velocity": 93,
      "chip": "ym2612"
    },
    {
      "channel": 0,
      "note": 54,
      "start": 90.4141,
      "duration": 0.1245,
      "velocity": 114,
      "chip": "ym2612"
    },
    {
      "channel": 1,
      "note": 59,
      "start": 90.4142,
      "duration": 0.249,
      "velocity": 93,
      "chip": "ym2612"
    },
    {
      "channel": 0,
      "note": 54,
      "start": 90.5386,
      "duration": 0.0309,
      "velocity": 114,
      "chip": "ym2612"
    },
    {
      "channel": 0,
      "note": 98,
      "start": 90.6631,
      "duration": 0.1245,
      "velocity": 114,
      "chip": "ym2612"
    },
    {
      "channel": 1,
      "note": 59,
      "start": 90.6632,
      "duration": 0.498,
      "velocity": 93,
      "chip": "ym2612"
    },
    {
      "channel": 0,
      "note": 54,
      "start": 90.7876,
      "duration": 0.0309,
      "velocity": 114,
      "chip": "ym2612"
    },
    {
      "channel": 0,
      "note": 98,
      "start": 90.9121,
      "duration": 0.1245,
      "velocity": 114,
      "chip": "ym2612"
    },
    {
      "channel": 0,
      "note": 54,
      "start": 91.0366,
      "duration": 0.0309,
      "velocity": 114,
      "chip": "ym2612"
    },
    {
      "channel": 0,
      "note": 98,
      "start": 91.1611,
      "duration": 0.0154,
      "velocity": 127,
      "chip": "ym2612"
    },
    {
      "channel": 1,
      "note": 59,
      "start": 91.1612,
      "duration": 0.498,
      "velocity": 93,
      "chip": "ym2612"
    },
    {
      "channel": 0,
      "note": 76,
      "start": 91.1765,
      "duration": 0.1091,
      "velocity": 114,
      "chip": "ym2612"
    },
    {
      "channel": 0,
      "note": 67,
      "start": 91.2856,
      "duration": 0.0309,
      "velocity": 114,
      "chip": "ym2612"
    },
    {
      "channel": 0,
      "note": 98,
      "start": 91.4101,
      "duration": 0.249,
      "velocity": 123,
      "chip": "ym2612"
    },
    {
      "channel": 0,
      "note": 98,
      "start": 91.6592,
      "duration": 0.1245,
      "velocity": 114,
      "chip": "ym2612"
    },
    {
      "channel": 1,
      "note": 56,
      "start": 91.6593,
      "duration": 0.3735,
      "velocity": 93,
      "chip": "ym2612"
    },
    {
      "channel": 3,
      "note": 47,
      "start": 91.6595,
      "duration": 1.9921,
      "velocity": 111,
      "chip": "ym2612"
    },
    {
      "channel": 0,
      "note": 54,
      "start": 91.7836,
      "duration": 0.0309,
      "velocity": 114,
      "chip": "ym2612"
    },
    {
      "channel": 5,
      "note": 47,
      "start": 91.7994,
      "duration": 1.992,
      "velocity": 111,
      "chip": "ym2612"
    },
    {
      "channel": 0,
      "note": 98,
      "start": 91.9081,
      "duration": 0.0309,
      "velocity": 114,
      "chip": "ym2612"
    },
    {
      "channel": 0,
      "note": 98,
      "start": 92.0327,
      "duration": 0.0154,
      "velocity": 127,
      "chip": "ym2612"
    },
    {
      "channel": 1,
      "note": 61,
      "start": 92.0328,
      "duration": 0.062,
      "velocity": 93,
      "chip": "ym2612"
    },
    {
      "channel": 0,
      "note": 76,
      "start": 92.048,
      "duration": 0.1093,
      "velocity": 114,
      "chip": "ym2612"
    },
    {
      "channel": 0,
      "note": 67,
      "start": 92.1573,
      "duration": 0.0307,
      "velocity": 114,
      "chip": "ym2612"
    },
    {
      "channel": 2,
      "note": 65,
      "start": 92.1575,
      "duration": 0.4979,
      "velocity": 99,
      "chip": "ym2612"
    },
    {
      "channel": 0,
      "note": 98,
      "start": 92.2817,
      "duration": 0.1245,
      "velocity": 123,
      "chip": "ym2612"
    },
    {
      "channel": 1,
      "note": 73,
      "start": 92.2818,
      "duration": 0.0309,
      "velocity": 93,
      "chip": "ym2612"
    },
    {
      "channel": 4,
      "note": 65,
      "start": 92.344,
      "duration": 0.498,
      "velocity": 99,
      "chip": "ym2612"
    },
    {
      "channel": 0,
      "note": 54,
      "start": 92.4061,
      "duration": 0.1245,
      "velocity": 114,
      "chip": "ym2612"
    },
    {
      "channel": 1,
      "note": 61,
      "start": 92.4063,
      "duration": 0.249,
      "velocity": 93,
      "chip": "ym2612"
    },
    {
      "channel": 0,
      "note": 54,
      "start": 92.5307,
      "duration": 0.0309,
      "velocity": 114,
      "chip": "ym2612"
    },
    {
      "channel": 0,
      "note": 98,
      "start": 92.6552,
      "duration": 0.1245,
      "velocity": 114,
      "chip": "ym2612"
    },
    {
      "channel": 1,
      "note": 61,
      "start": 92.6553,
      "duration": 0.498,
      "velocity": 93,
      "chip": "ym2612"
    },
    {
      "channel": 2,
      "note": 63,
      "start": 92.6554,
      "duration": 0.498,
      "velocity": 99,
      "chip": "ym2612"
    },
    {
      "channel": 0,
      "note": 54,
      "start": 92.7797,
      "duration": 0.0309,
      "velocity": 114,
      "chip": "ym2612"
    },
    {
      "channel": 4,
      "note": 63,
      "start": 92.842,
      "duration": 0.498,
      "velocity": 99,
      "chip": "ym2612"
    },
    {
      "channel": 0,
      "note": 98,
      "start": 92.9042,
      "duration": 0.1245,
      "velocity": 114,
      "chip": "ym2612"
    },
    {
      "channel": 0,
      "note": 54,
      "start": 93.0287,
      "duration": 0.0309,
      "velocity": 114,
      "chip": "ym2612"
    },
    {
      "channel": 0,
      "note": 98,
      "start": 93.1532,
      "duration": 0.0153,
      "velocity": 127,
      "chip": "ym2612"
    },
    {
      "channel": 1,
      "note": 61,
      "start": 93.1533,
      "duration": 0.249,
      "velocity": 93,
      "chip": "ym2612"
    },
    {
      "channel": 2,
      "note": 66,
      "start": 93.1534,
      "duration": 0.498,
      "velocity": 99,
      "chip": "ym2612"
    },
    {
      "channel": 0,
      "note": 76,
      "start": 93.1685,
      "duration": 0.1091,
      "velocity": 114,
      "chip": "ym2612"
    },
    {
      "channel": 0,
      "note": 67,
      "start": 93.2777,
      "duration": 0.0309,
      "velocity": 114,
      "chip": "ym2612"
    },
    {
      "channel": 4,
      "note": 66,
      "start": 93.34,
      "duration": 0.498,
      "velocity": 99,
      "chip": "ym2612"
    },
    {
      "channel": 0,
      "note": 98,
      "start": 93.4022,
      "duration": 0.249,
      "velocity": 123,
      "chip": "ym2612"
    },
    {
      "channel": 1,
      "note": 58,
      "start": 93.4023,
      "duration": 0.249,
      "velocity": 93,
      "chip": "ym2612"
    },
    {
      "channel": 0,
      "note": 98,
      "start": 93.6512,
      "duration": 0.1245,
      "velocity": 114,
      "chip": "ym2612"
    },
    {
      "channel": 1,
      "note": 61,
      "start": 93.6514,
      "duration": 0.3735,
      "velocity": 93,
      "chip": "ym2612"
    },
    {
      "channel": 2,
      "note": 65,
      "start": 93.6515,
      "duration": 0.747,
      "velocity": 99,
      "chip": "ym2612"
    },
    {
      "channel": 3,
      "note": 49,
      "start": 93.6516,
      "duration": 1.992,
      "velocity": 111,
      "chip": "ym2612"
    },
    {
      "channel": 0,
      "note": 54,
      "start": 93.7757,
      "duration": 0.0309,
      "velocity": 114,
      "chip": "ym2612"
    },
    {
      "channel": 5,
      "note": 49,
      "start": 93.7915,
      "duration": 1.9921,
      "velocity": 111,
      "chip": "ym2612"
    },
    {
      "channel": 4,
      "note": 65,
      "start": 93.838,
      "duration": 0.747,
      "velocity": 99,
      "chip": "ym2612"
    },
    {
      "channel": 0,
      "note": 98,
      "start": 93.9002,
      "duration": 0.0309,
      "velocity": 114,
      "chip": "ym2612"
    },
    {
      "channel": 0,
      "note": 98,
      "start": 94.0247,
      "duration": 0.0154,
      "velocity": 127,
      "chip": "ym2612"
    },
    {
      "channel": 1,
      "note": 64,
      "start": 94.0249,
      "duration": 0.062,
      "velocity": 93,
      "chip": "ym2612"
    },
    {
      "channel": 0,
      "note": 76,
      "start": 94.0401,
      "duration": 0.1092,
      "velocity": 114,
      "chip": "ym2612"
    },
    {
      "channel": 0,
      "note": 67,
      "start": 94.1492,
      "duration": 0.0309,
      "velocity": 114,
      "chip": "ym2612"
    },
    {
      "channel": 0,
      "note": 98,
      "start": 94.2739,
      "duration": 0.1243,
      "velocity": 123,
      "chip": "ym2612"
    },
    {
      "channel": 1,
      "note": 76,
      "start": 94.274,
      "duration": 0.0307,
      "velocity": 93,
      "chip": "ym2612"
    },
    {
      "channel": 0,
      "note": 54,
      "start": 94.3982,
      "duration": 0.1245,
      "velocity": 114,
      "chip": "ym2612"
    },
    {
      "channel": 1,
      "note": 64,
      "start": 94.3984,
      "duration": 0.249,
      "velocity": 93,
      "chip": "ym2612"
    },
    {
      "channel": 2,
      "note": 63,
      "start": 94.3985,
      "duration": 0.7471,
      "velocity": 99,
      "chip": "ym2612"
    },
    {
      "channel": 0,
      "note": 54,
      "start": 94.5227,
      "duration": 0.0309,
      "velocity": 114,
      "chip": "ym2612"
    },
    {
      "channel": 4,
      "note": 63,
      "start": 94.5851,
      "duration": 0.747,
      "velocity": 99,
      "chip": "ym2612"
    },
    {
      "channel": 0,
      "note": 98,
      "start": 94.6472,
      "duration": 0.1245,
      "velocity": 114,
      "chip": "ym2612"
    },
    {
      "channel": 1,
      "note": 64,
      "start": 94.6474,
      "duration": 0.498,
      "velocity": 93,
      "chip": "ym2612"
    },
    {
      "channel": 0,
      "note": 54,
      "start": 94.7717,
      "duration": 0.0309,
      "velocity": 114,
      "chip": "ym2612"
    },
    {
      "channel": 0,
      "note": 98,
      "start": 94.8963,
      "duration": 0.1245,
      "velocity": 114,
      "chip": "ym2612"
    },
    {
      "channel": 0,
      "note": 54,
      "start": 95.0208,
      "duration": 0.0309,
      "velocity": 114,
      "chip": "ym2612"
    },
    {
      "channel": 0,
      "note": 98,
      "start": 95.1453,
      "duration": 0.0154,
      "velocity": 127,
      "chip": "ym2612"
    },
    {
      "channel": 1,
      "note": 64,
      "start": 95.1454,
      "duration": 0.498,
      "velocity": 93,
      "chip": "ym2612"
    },
    {
      "channel": 2,
      "note": 61,
      "start": 95.1455,
      "duration": 0.7469,
      "velocity": 99,
      "chip": "ym2612"
    },
    {
      "channel": 0,
      "note": 76,
      "start": 95.1606,
      "duration": 0.1091,
      "velocity": 114,
      "chip": "ym2612"
    },
    {
      "channel": 0,
      "note": 67,
      "start": 95.2698,
      "duration": 0.0309,
      "velocity": 114,
      "chip": "ym2612"
    },
    {
      "channel": 4,
      "note": 61,
      "start": 95.3321,
      "duration": 0.7471,
      "velocity": 99,
      "chip": "ym2612"
    },
    {
      "channel": 0,
      "note": 98,
      "start": 95.3943,
      "duration": 0.249,
      "velocity": 123,
      "chip": "ym2612"
    },
    {
      "channel": 0,
      "note": 98,
      "start": 95.6433,
      "duration": 0.1245,
      "velocity": 114,
      "chip": "ym2612"
    },
    {
      "channel": 1,
      "note": 59,
      "start": 95.6434,
      "duration": 0.3735,
      "velocity": 93,
      "chip": "ym2612"
    },
    {
      "channel": 3,
      "note": 52,
      "start": 95.6437,
      "duration": 0.9961,
      "velocity": 111,
      "chip": "ym2612"
    },
    {
      "channel": 0,
      "note": 54,
      "start": 95.7678,
      "duration": 0.0309,
      "velocity": 114,
      "chip": "ym2612"
    },
    {
      "channel": 5,
      "note": 52,
      "start": 95.7835,
      "duration": 0.996,
      "velocity": 111,
      "chip": "ym2612"
    },
    {
      "channel": 0,
      "note": 98,
      "start": 95.8923,
      "duration": 0.0309,
      "velocity": 114,
      "chip": "ym2612"
    },
    {
      "channel": 2,
      "note": 68,
      "start": 95.8925,
      "duration": 0.7471,
      "velocity": 99,
      "chip": "ym2612"
    },
    {
      "channel": 0,
      "note": 98,
      "start": 96.0168,
      "duration": 0.0154,
      "velocity": 127,
      "chip": "ym2612"
    },
    {
      "channel": 1,
      "note": 64,
      "start": 96.0169,
      "duration": 0.062,
      "velocity": 93,
      "chip": "ym2612"
    },
    {
      "channel": 0,
      "note": 76,
      "start": 96.0322,
      "duration": 0.1091,
      "velocity": 114,
      "chip": "ym2612"
    },
    {
      "channel": 4,
      "note": 68,
      "start": 96.0792,
      "duration": 0.747,
      "velocity": 99,
      "chip": "ym2612"
    },
    {
      "channel": 0,
      "note": 67,
      "start": 96.1413,
      "duration": 0.0309,
      "velocity": 114,
      "chip": "ym2612"
    },
    {
      "channel": 0,
      "note": 98,
      "start": 96.2658,
      "duration": 0.1247,
      "velocity": 123,
      "chip": "ym2612"
    },
    {
      "channel": 1,
      "note": 76,
      "start": 96.2659,
      "duration": 0.0309,
      "velocity": 93,
      "chip": "ym2612"
    },
    {
      "channel": 0,
      "note": 54,
      "start": 96.3905,
      "duration": 0.1243,
      "velocity": 114,
      "chip": "ym2612"
    },
    {
      "channel": 1,
      "note": 64,
      "start": 96.3906,
      "duration": 0.2488,
      "velocity": 93,
      "chip": "ym2612"
    },
    {
      "channel": 0,
      "note": 54,
      "start": 96.5148,
      "duration": 0.0309,
      "velocity": 114,
      "chip": "ym2612"
    },
    {
      "channel": 0,
      "note": 98,
      "start": 96.6393,
      "duration": 0.1245,
      "velocity": 114,
      "chip": "ym2612"
    },
    {
      "channel": 1,
      "note": 64,
      "start": 96.6395,
      "duration": 0.498,
      "velocity": 93,
      "chip": "ym2612"
    },
    {
      "channel": 2,
      "note": 66,
      "start": 96.6396,
      "duration": 0.9964,
      "velocity": 103,
      "chip": "ym2612"
    },
    {
      "channel": 3,
      "note": 52,
      "start": 96.6398,
      "duration": 0.8555,
      "velocity": 111,
      "chip": "ym2612"
    },
    {
      "channel": 0,
      "note": 54,
      "start": 96.7638,
      "duration": 0.0309,
      "velocity": 114,
      "chip": "ym2612"
    },
    {
      "channel": 5,
      "note": 52,
      "start": 96.7796,
      "duration": 0.8575,
      "velocity": 121,
      "chip": "ym2612"
    },
    {
      "channel": 4,
      "note": 66,
      "start": 96.8262,
      "duration": 0.8105,
      "velocity": 103,
      "chip": "ym2612"
    },
    {
      "channel": 0,
      "note": 98,
      "start": 96.8883,
      "duration": 0.1245,
      "velocity": 114,
      "chip": "ym2612"
    },
    {
      "channel": 0,
      "note": 54,
      "start": 97.0128,
      "duration": 0.0309,
      "velocity": 114,
      "chip": "ym2612"
    },
    {
      "channel": 0,
      "note": 98,
      "start": 97.1373,
      "duration": 0.0154,
      "velocity": 127,
      "chip": "ym2612"
    },
    {
      "channel": 1,
      "note": 65,
      "start": 97.1375,
      "duration": 0.4981,
      "velocity": 93,
      "chip": "ym2612"
    },
    {
      "channel": 0,
      "note": 76,
      "start": 97.1527,
      "duration": 0.1091,
      "velocity": 114,
      "chip": "ym2612"
    },
    {
      "channel": 0,
      "note": 67,
      "start": 97.2618,
      "duration": 0.0309,
      "velocity": 114,
      "chip": "ym2612"
    },
    {
      "channel": 0,
      "note": 98,
      "start": 97.3863,
      "duration": 0.249,
      "velocity": 123,
      "chip": "ym2612"
    },
    {
      "channel": 0,
      "note": 98,
      "start": 97.6354,
      "duration": 0.1245,
      "velocity": 114,
      "chip": "ym2612"
    },
    {
      "channel": 1,
      "note": 65,
      "start": 97.6356,
      "duration": 0.3734,
      "velocity": 93,
      "chip": "ym2612"
    },
    {
      "channel": 2,
      "note": 73,
      "start": 97.636,
      "duration": 0.9957,
      "velocity": 103,
      "chip": "ym2612"
    },
    {
      "channel": 3,
      "note": 53,
      "start": 97.6363,
      "duration": 1.9915,
      "velocity": 121,
      "chip": "ym2612"
    },
    {
      "channel": 5,
      "note": 53,
      "start": 97.6371,
      "duration": 1.991,
      "velocity": 121,
      "chip": "ym2612"
    },
    {
      "channel": 0,
      "note": 54,
      "start": 97.7599,
      "duration": 0.0309,
      "velocity": 114,
      "chip": "ym2612"
    },
    {
      "channel": 4,
      "note": 73,
      "start": 97.7755,
      "duration": 0.996,
      "velocity": 103,
      "chip": "ym2612"
    },
    {
      "channel": 0,
      "note": 98,
      "start": 97.8844,
      "duration": 0.0309,
      "velocity": 114,
      "chip": "ym2612"
    },
    {
      "channel": 0,
      "note": 98,
      "start": 98.0089,
      "duration": 0.0154,
      "velocity": 127,
      "chip": "ym2612"
    },
    {
      "channel": 1,
      "note": 58,
      "start": 98.009,
      "duration": 0.062,
      "velocity": 93,
      "chip": "ym2612"
    },
    {
      "channel": 0,
      "note": 76,
      "start": 98.0242,
      "duration": 0.1091,
      "velocity": 114,
      "chip": "ym2612"
    },
    {
      "channel": 0,
      "note": 67,
      "start": 98.1334,
      "duration": 0.0309,
      "velocity": 114,
      "chip": "ym2612"
    },
    {
      "channel": 0,
      "note": 98,
      "start": 98.2579,
      "duration": 0.1245,
      "velocity": 123,
      "chip": "ym2612"
    },
    {
      "channel": 1,
      "note": 70,
      "start": 98.258,
      "duration": 0.0309,
      "velocity": 93,
      "chip": "ym2612"
    },
    {
      "channel": 0,
      "note": 54,
      "start": 98.3824,
      "duration": 0.1245,
      "velocity": 114,
      "chip": "ym2612"
    },
    {
      "channel": 1,
      "note": 58,
      "start": 98.3825,
      "duration": 0.249,
      "velocity": 93,
      "chip": "ym2612"
    },
    {
      "channel": 0,
      "note": 54,
      "start": 98.5069,
      "duration": 0.0309,
      "velocity": 114,
      "chip": "ym2612"
    },
    {
      "channel": 0,
      "note": 98,
      "start": 98.6314,
      "duration": 0.1245,
      "velocity": 114,
      "chip": "ym2612"
    },
    {
      "channel": 1,
      "note": 58,
      "start": 98.6315,
      "duration": 0.498,
      "velocity": 93,
      "chip": "ym2612"
    },
    {
      "channel": 2,
      "note": 85,
      "start": 98.6317,
      "duration": 0.9961,
      "velocity": 103,
      "chip": "ym2612"
    },
    {
      "channel": 0,
      "note": 54,
      "start": 98.7559,
      "duration": 0.0309,
      "velocity": 114,
      "chip": "ym2612"
    },
    {
      "channel": 4,
      "note": 85,
      "start": 98.7715,
      "duration": 0.996,
      "velocity": 103,
      "chip": "ym2612"
    },
    {
      "channel": 0,
      "note": 98,
      "start": 98.8804,
      "duration": 0.1245,
      "velocity": 114,
      "chip": "ym2612"
    },
    {
      "channel": 0,
      "note": 54,
      "start": 99.0049,
      "duration": 0.0309,
      "velocity": 114,
      "chip": "ym2612"
    },
    {
      "channel": 0,
      "note": 98,
      "start": 99.1294,
      "duration": 0.0154,
      "velocity": 127,
      "chip": "ym2612"
    },
    {
      "channel": 1,
      "note": 53,
      "start": 99.1295,
      "duration": 0.498,
      "velocity": 93,
      "chip": "ym2612"
    },
    {
      "channel": 0,
      "note": 76,
      "start": 99.1448,
      "duration": 0.1091,
      "velocity": 114,
      "chip": "ym2612"
    },
    {
      "channel": 0,
      "note": 67,
      "start": 99.2539,
      "duration": 0.0309,
      "velocity": 114,
      "chip": "ym2612"
    },
    {
      "channel": 0,
      "note": 98,
      "start": 99.3784,
      "duration": 0.249,
      "velocity": 123,
      "chip": "ym2612"
    },
    {
      "channel": 0,
      "note": 98,
      "start": 99.6275,
      "duration": 0.1245,
      "velocity": 114,
      "chip": "ym2612"
    },
    {
      "channel": 1,
      "note": 56,
      "start": 99.6276,
      "duration": 0.3735,
      "velocity": 93,
      "chip": "ym2612"
    },
    {
      "channel": 2,
      "note": 84,
      "start": 99.6277,
      "duration": 0.4979,
      "velocity": 103,
      "chip": "ym2612"
    },
    {
      "channel": 3,
      "note": 53,
      "start": 99.6278,
      "duration": 1.9921,
      "velocity": 121,
      "chip": "ym2612"
    },
    {
      "channel": 5,
      "note": 49,
      "start": 99.6281,
      "duration": 1.9921,
      "velocity": 121,
      "chip": "ym2612"
    },
    {
      "channel": 0,
      "note": 54,
      "start": 99.752,
      "duration": 0.0309,
      "velocity": 114,
      "chip": "ym2612"
    },
    {
      "channel": 4,
      "note": 84,
      "start": 99.7676,
      "duration": 0.498,
      "velocity": 103,
      "chip": "ym2612"
    },
    {
      "channel": 0,
      "note": 98,
      "start": 99.8764,
      "duration": 0.0309,
      "velocity": 114,
      "chip": "ym2612"
    },
    {
      "channel": 0,
      "note": 98,
      "start": 100.001,
      "duration": 0.0154,
      "velocity": 127,
      "chip": "ym2612"
    },
    {
      "channel": 1,
      "note": 58,
      "start": 100.0011,
      "duration": 0.062,
      "velocity": 93,
      "chip": "ym2612"
    },
    {
      "channel": 0,
      "note": 76,
      "start": 100.0163,
      "duration": 0.1091,
      "velocity": 114,
      "chip": "ym2612"
    },
    {
      "channel": 0,
      "note": 67,
      "start": 100.1255,
      "duration": 0.0309,
      "velocity": 114,
      "chip": "ym2612"
    },
    {
      "channel": 2,
      "note": 80,
      "start": 100.1257,
      "duration": 0.4982,
      "velocity": 103,
      "chip": "ym2612"
    },
    {
      "channel": 0,
      "note": 98,
      "start": 100.25,
      "duration": 0.1245,
      "velocity": 123,
      "chip": "ym2612"
    },
    {
      "channel": 1,
      "note": 70,
      "start": 100.2501,
      "duration": 0.0309,
      "velocity": 93,
      "chip": "ym2612"
    },
    {
      "channel": 4,
      "note": 80,
      "start": 100.2656,
      "duration": 0.498,
      "velocity": 103,
      "chip": "ym2612"
    },
    {
      "channel": 0,
      "note": 54,
      "start": 100.3745,
      "duration": 0.1245,
      "velocity": 114,
      "chip": "ym2612"
    },
    {
      "channel": 1,
      "note": 58,
      "start": 100.3746,
      "duration": 0.2492,
      "velocity": 93,
      "chip": "ym2612"
    },
    {
      "channel": 0,
      "note": 54,
      "start": 100.499,
      "duration": 0.0309,
      "velocity": 114,
      "chip": "ym2612"
    },
    {
      "channel": 0,
      "note": 98,
      "start": 100.6235,
      "duration": 0.1245,
      "velocity": 114,
      "chip": "ym2612"
    },
    {
      "channel": 1,
      "note": 58,
      "start": 100.6238,
      "duration": 0.3733,
      "velocity": 93,
      "chip": "ym2612"
    },
    {
      "channel": 2,
      "note": 77,
      "start": 100.6239,
      "duration": 0.4978,
      "velocity": 103,
      "chip": "ym2612"
    },
    {
      "channel": 0,
      "note": 54,
      "start": 100.748,
      "duration": 0.0309,
      "velocity": 114,
      "chip": "ym2612"
    },
    {
      "channel": 4,
      "note": 77,
      "start": 100.7636,
      "duration": 0.498,
      "velocity": 103,
      "chip": "ym2612"
    },
    {
      "channel": 0,
      "note": 98,
      "start": 100.8725,
      "duration": 0.1245,
      "velocity": 114,
      "chip": "ym2612"
    },
    {
      "channel": 0,
      "note": 54,
      "start": 100.997,
      "duration": 0.0309,
      "velocity": 114,
      "chip": "ym2612"
    },
    {
      "channel": 0,
      "note": 98,
      "start": 101.1215,
      "duration": 0.0154,
      "velocity": 127,
      "chip": "ym2612"
    },
    {
      "channel": 1,
      "note": 65,
      "start": 101.1216,
      "duration": 0.3732,
      "velocity": 93,
      "chip": "ym2612"
    },
    {
      "channel": 2,
      "note": 82,
      "start": 101.1217,
      "duration": 0.249,
      "velocity": 103,
      "chip": "ym2612"
    },
    {
      "channel": 0,
      "note": 76,
      "start": 101.1368,
      "duration": 0.1091,
      "velocity": 114,
      "chip": "ym2612"
    },
    {
      "channel": 0,
      "note": 67,
      "start": 101.246,
      "duration": 0.0309,
      "velocity": 114,
      "chip": "ym2612"
    },
    {
      "channel": 4,
      "note": 82,
      "start": 101.2617,
      "duration": 0.249,
      "velocity": 103,
      "chip": "ym2612"
    },
    {
      "channel": 0,
      "note": 98,
      "start": 101.3705,
      "duration": 0.249,
      "velocity": 123,
      "chip": "ym2612"
    },
    {
      "channel": 2,
      "note": 82,
      "start": 101.3707,
      "duration": 0.2491,
      "velocity": 103,
      "chip": "ym2612"
    },
    {
      "channel": 4,
      "note": 82,
      "start": 101.5107,
      "duration": 0.249,
      "velocity": 103,
      "chip": "ym2612"
    },
    {
      "channel": 0,
      "note": 98,
      "start": 101.6195,
      "duration": 0.1245,
      "velocity": 114,
      "chip": "ym2612"
    },
    {
      "channel": 1,
      "note": 65,
      "start": 101.6197,
      "duration": 0.3735,
      "velocity": 93,
      "chip": "ym2612"
    },
    {
      "channel": 2,
      "note": 84,
      "start": 101.6198,
      "duration": 0.996,
      "velocity": 103,
      "chip": "ym2612"
    },
    {
      "channel": 3,
      "note": 56,
      "start": 101.6199,
      "duration": 1.9921,
      "velocity": 121,
      "chip": "ym2612"
    },
    {
      "channel": 5,
      "note": 51,
      "start": 101.6201,
      "duration": 1.9921,
      "velocity": 121,
      "chip": "ym2612"
    },
    {
      "channel": 0,
      "note": 54,
      "start": 101.744,
      "duration": 0.0309,
      "velocity": 114,
      "chip": "ym2612"
    },
    {
      "channel": 4,
      "note": 84,
      "start": 101.7597,
      "duration": 0.996,
      "velocity": 103,
      "chip": "ym2612"
    },
    {
      "channel": 0,
      "note": 98,
      "start": 101.8685,
      "duration": 0.0309,
      "velocity": 114,
      "chip": "ym2612"
    },
    {
      "channel": 0,
      "note": 98,
      "start": 101.993,
      "duration": 0.0154,
      "velocity": 127,
      "chip": "ym2612"
    },
    {
      "channel": 1,
      "note": 58,
      "start": 101.9932,
      "duration": 0.062,
      "velocity": 93,
      "chip": "ym2612"
    },
    {
      "channel": 0,
      "note": 76,
      "start": 102.0084,
      "duration": 0.1091,
      "velocity": 114,
      "chip": "ym2612"
    },
    {
      "channel": 0,
      "note": 67,
      "start": 102.1175,
      "duration": 0.0309,
      "velocity": 114,
      "chip": "ym2612"
    },
    {
      "channel": 0,
      "note": 98,
      "start": 102.242,
      "duration": 0.1245,
      "velocity": 123,
      "chip": "ym2612"
    },
    {
      "channel": 1,
      "note": 70,
      "start": 102.2422,
      "duration": 0.0309,
      "velocity": 93,
      "chip": "ym2612"
    },
    {
      "channel": 0,
      "note": 54,
      "start": 102.3665,
      "duration": 0.1245,
      "velocity": 114,
      "chip": "ym2612"
    },
    {
      "channel": 1,
      "note": 58,
      "start": 102.3667,
      "duration": 0.249,
      "velocity": 93,
      "chip": "ym2612"
    },
    {
      "channel": 0,
      "note": 54,
      "start": 102.491,
      "duration": 0.0309,
      "velocity": 114,
      "chip": "ym2612"
    },
    {
      "channel": 0,
      "note": 98,
      "start": 102.6156,
      "duration": 0.1245,
      "velocity": 114,
      "chip": "ym2612"
    },
    {
      "channel": 1,
      "note": 58,
      "start": 102.6157,
      "duration": 0.498,
      "velocity": 93,
      "chip": "ym2612"
    },
    {
      "channel": 2,
      "note": 85,
      "start": 102.6158,
      "duration": 0.9961,
      "velocity": 103,
      "chip": "ym2612"
    },
    {
      "channel": 0,
      "note": 54,
      "start": 102.7401,
      "duration": 0.0309,
      "velocity": 114,
      "chip": "ym2612"
    },
    {
      "channel": 4,
      "note": 85,
      "start": 102.7557,
      "duration": 0.996,
      "velocity": 103,
      "chip": "ym2612"
    },
    {
      "channel": 0,
      "note": 98,
      "start": 102.8646,
      "duration": 0.1245,
      "velocity": 114,
      "chip": "ym2612"
    },
    {
      "channel": 0,
      "note": 54,
      "start": 102.9891,
      "duration": 0.0309,
      "velocity": 114,
      "chip": "ym2612"
    },
    {
      "channel": 0,
      "note": 98,
      "start": 103.1136,
      "duration": 0.0154,
      "velocity": 127,
      "chip": "ym2612"
    },
    {
      "channel": 1,
      "note": 53,
      "start": 103.1137,
      "duration": 0.498,
      "velocity": 93,
      "chip": "ym2612"
    },
    {
      "channel": 0,
      "note": 76,
      "start": 103.1289,
      "duration": 0.1091,
      "velocity": 114,
      "chip": "ym2612"
    },
    {
      "channel": 0,
      "note": 67,
      "start": 103.2381,
      "duration": 0.0309,
      "velocity": 114,
      "chip": "ym2612"
    },
    {
      "channel": 0,
      "note": 98,
      "start": 103.3626,
      "duration": 0.249,
      "velocity": 123,
      "chip": "ym2612"
    },
    {
      "channel": 0,
      "note": 98,
      "start": 103.6116,
      "duration": 0.1245,
      "velocity": 114,
      "chip": "ym2612"
    },
    {
      "channel": 1,
      "note": 56,
      "start": 103.6117,
      "duration": 0.3735,
      "velocity": 93,
      "chip": "ym2612"
    },
    {
      "channel": 2,
      "note": 87,
      "start": 103.6119,
      "duration": 0.996,
      "velocity": 103,
      "chip": "ym2612"
    },
    {
      "channel": 3,
      "note": 53,
      "start": 103.612,
      "duration": 1.9921,
      "velocity": 121,
      "chip": "ym2612"
    },
    {
      "channel": 5,
      "note": 49,
      "start": 103.6122,
      "duration": 1.9922,
      "velocity": 121,
      "chip": "ym2612"
    },
    {
      "channel": 0,
      "note": 54,
      "start": 103.7361,
      "duration": 0.0309,
      "velocity": 114,
      "chip": "ym2612"
    },
    {
      "channel": 4,
      "note": 87,
      "start": 103.7517,
      "duration": 0.996,
      "velocity": 103,
      "chip": "ym2612"
    },
    {
      "channel": 0,
      "note": 98,
      "start": 103.8606,
      "duration": 0.0309,
      "velocity": 114,
      "chip": "ym2612"
    },
    {
      "channel": 0,
      "note": 98,
      "start": 103.9851,
      "duration": 0.0154,
      "velocity": 127,
      "chip": "ym2612"
    },
    {
      "channel": 1,
      "note": 58,
      "start": 103.9852,
      "duration": 0.062,
      "velocity": 93,
      "chip": "ym2612"
    },
    {
      "channel": 0,
      "note": 76,
      "start": 104.0005,
      "duration": 0.1091,
      "velocity": 114,
      "chip": "ym2612"
    },
    {
      "channel": 0,
      "note": 67,
      "start": 104.1096,
      "duration": 0.0309,
      "velocity": 114,
      "chip": "ym2612"
    },
    {
      "channel": 0,
      "note": 98,
      "start": 104.2341,
      "duration": 0.1245,
      "velocity": 123,
      "chip": "ym2612"
    },
    {
      "channel": 1,
      "note": 70,
      "start": 104.2342,
      "duration": 0.0309,
      "velocity": 93,
      "chip": "ym2612"
    },
    {
      "channel": 0,
      "note": 54,
      "start": 104.3586,
      "duration": 0.1245,
      "velocity": 114,
      "chip": "ym2612"
    },
    {
      "channel": 1,
      "note": 58,
      "start": 104.3587,
      "duration": 0.249,
      "velocity": 93,
      "chip": "ym2612"
    },
    {
      "channel": 0,
      "note": 54,
      "start": 104.4831,
      "duration": 0.0309,
      "velocity": 114,
      "chip": "ym2612"
    },
    {
      "channel": 0,
      "note": 98,
      "start": 104.6076,
      "duration": 0.1245,
      "velocity": 114,
      "chip": "ym2612"
    },
    {
      "channel": 1,
      "note": 58,
      "start": 104.6078,
      "duration": 0.3735,
      "velocity": 93,
      "chip": "ym2612"
    },
    {
      "channel": 2,
      "note": 84,
      "start": 104.6079,
      "duration": 0.9961,
      "velocity": 103,
      "chip": "ym2612"
    },
    {
      "channel": 0,
      "note": 54,
      "start": 104.7321,
      "duration": 0.0309,
      "velocity": 114,
      "chip": "ym2612"
    },
    {
      "channel": 4,
      "note": 84,
      "start": 104.7478,
      "duration": 0.996,
      "velocity": 103,
      "chip": "ym2612"
    },
    {
      "channel": 0,
      "note": 98,
      "start": 104.8566,
      "duration": 0.1245,
      "velocity": 114,
      "chip": "ym2612"
    },
    {
      "channel": 0,
      "note": 54,
      "start": 104.9811,
      "duration": 0.0309,
      "velocity": 114,
      "chip": "ym2612"
    },
    {
      "channel": 0,
      "note": 98,
      "start": 105.1056,
      "duration": 0.0154,
      "velocity": 127,
      "chip": "ym2612"
    },
    {
      "channel": 1,
      "note": 65,
      "start": 105.1058,
      "duration": 0.3732,
      "velocity": 93,
      "chip": "ym2612"
    },
    {
      "channel": 0,
      "note": 76,
      "start": 105.121,
      "duration": 0.1091,
      "velocity": 114,
      "chip": "ym2612"
    },
    {
      "channel": 0,
      "note": 67,
      "start": 105.2302,
      "duration": 0.0309,
      "velocity": 114,
      "chip": "ym2612"
    },
    {
      "channel": 0,
      "note": 98,
      "start": 105.3547,
      "duration": 0.249,
      "velocity": 123,
      "chip": "ym2612"
    },
    {
      "channel": 0,
      "note": 98,
      "start": 105.6037,
      "duration": 0.1245,
      "velocity": 114,
      "chip": "ym2612"
    },
    {
      "channel": 1,
      "note": 65,
      "start": 105.6039,
      "duration": 0.3734,
      "velocity": 93,
      "chip": "ym2612"
    },
    {
      "channel": 2,
      "note": 80,
      "start": 105.604,
      "duration": 0.9959,
      "velocity": 103,
      "chip": "ym2612"
    },
    {
      "channel": 3,
      "note": 53,
      "start": 105.6041,
      "duration": 1.992,
      "velocity": 121,
      "chip": "ym2612"
    },
    {
      "channel": 5,
      "note": 51,
      "start": 105.6044,
      "duration": 1.992,
      "velocity": 121,
      "chip": "ym2612"
    },
    {
      "channel": 0,
      "note": 54,
      "start": 105.7282,
      "duration": 0.0309,
      "velocity": 114,
      "chip": "ym2612"
    },
    {
      "channel": 4,
      "note": 80,
      "start": 105.7438,
      "duration": 0.996,
      "velocity": 103,
      "chip": "ym2612"
    },
    {
      "channel": 0,
      "note": 98,
      "start": 105.8527,
      "duration": 0.0309,
      "velocity": 114,
      "chip": "ym2612"
    },
    {
      "channel": 0,
      "note": 98,
      "start": 105.9772,
      "duration": 0.0154,
      "velocity": 127,
      "chip": "ym2612"
    },
    {
      "channel": 1,
      "note": 58,
      "start": 105.9773,
      "duration": 0.062,
      "velocity": 93,
      "chip": "ym2612"
    },
    {
      "channel": 0,
      "note": 76,
      "start": 105.9925,
      "duration": 0.1091,
      "velocity": 114,
      "chip": "ym2612"
    },
    {
      "channel": 0,
      "note": 67,
      "start": 106.1017,
      "duration": 0.0309,
      "velocity": 114,
      "chip": "ym2612"
    },
    {
      "channel": 0,
      "note": 98,
      "start": 106.2262,
      "duration": 0.1245,
      "velocity": 123,
      "chip": "ym2612"
    },
    {
      "channel": 1,
      "note": 70,
      "start": 106.2263,
      "duration": 0.031,
      "velocity": 93,
      "chip": "ym2612"
    },
    {
      "channel": 0,
      "note": 54,
      "start": 106.3507,
      "duration": 0.1245,
      "velocity": 114,
      "chip": "ym2612"
    },
    {
      "channel": 1,
      "note": 58,
      "start": 106.3508,
      "duration": 0.249,
      "velocity": 93,
      "chip": "ym2612"
    },
    {
      "channel": 0,
      "note": 54,
      "start": 106.4752,
      "duration": 0.0309,
      "velocity": 114,
      "chip": "ym2612"
    },
    {
      "channel": 0,
      "note": 98,
      "start": 106.5997,
      "duration": 0.1245,
      "velocity": 114,
      "chip": "ym2612"
    },
    {
      "channel": 1,
      "note": 58,
      "start": 106.5998,
      "duration": 0.498,
      "velocity": 93,
      "chip": "ym2612"
    },
    {
      "channel": 2,
      "note": 85,
      "start": 106.6,
      "duration": 0.9961,
      "velocity": 103,
      "chip": "ym2612"
    },
    {
      "channel": 0,
      "note": 54,
      "start": 106.7242,
      "duration": 0.0309,
      "velocity": 114,
      "chip": "ym2612"
    },
    {
      "channel": 4,
      "note": 85,
      "start": 106.7399,
      "duration": 0.996,
      "velocity": 103,
      "chip": "ym2612"
    },
    {
      "channel": 0,
      "note": 98,
      "start": 106.8487,
      "duration": 0.1245,
      "velocity": 114,
      "chip": "ym2612"
    },
    {
      "channel": 0,
      "note": 54,
      "start": 106.9732,
      "duration": 0.0309,
      "velocity": 114,
      "chip": "ym2612"
    },
    {
      "channel": 0,
      "note": 98,
      "start": 107.0977,
      "duration": 0.0154,
      "velocity": 127,
      "chip": "ym2612"
    },
    {
      "channel": 1,
      "note": 53,
      "start": 107.0979,
      "duration": 0.498,
      "velocity": 93,
      "chip": "ym2612"
    },
    {
      "channel": 0,
      "note": 76,
      "start": 107.1131,
      "duration": 0.1091,
      "velocity": 114,
      "chip": "ym2612"
    },
    {
      "channel": 0,
      "note": 67,
      "start": 107.2222,
      "duration": 0.0309,
      "velocity": 114,
      "chip": "ym2612"
    },
    {
      "channel": 0,
      "note": 98,
      "start": 107.3467,
      "duration": 0.249,
      "velocity": 123,
      "chip": "ym2612"
    },
    {
      "channel": 0,
      "note": 98,
      "start": 107.5958,
      "duration": 0.1245,
      "velocity": 114,
      "chip": "ym2612"
    },
    {
      "channel": 1,
      "note": 56,
      "start": 107.5959,
      "duration": 0.3735,
      "velocity": 93,
      "chip": "ym2612"
    },
    {
      "channel": 2,
      "note": 84,
      "start": 107.596,
      "duration": 0.4979,
      "velocity": 103,
      "chip": "ym2612"
    },
    {
      "channel": 3,
      "note": 53,
      "start": 107.5961,
      "duration": 1.9921,
      "velocity": 121,
      "chip": "ym2612"
    },
    {
      "channel": 5,
      "note": 49,
      "start": 107.5964,
      "duration": 1.9921,
      "velocity": 121,
      "chip": "ym2612"
    },
    {
      "channel": 0,
      "note": 54,
      "start": 107.7202,
      "duration": 0.0309,
      "velocity": 114,
      "chip": "ym2612"
    },
    {
      "channel": 4,
      "note": 84,
      "start": 107.7359,
      "duration": 0.498,
      "velocity": 103,
      "chip": "ym2612"
    },
    {
      "channel": 0,
      "note": 98,
      "start": 107.8448,
      "duration": 0.0309,
      "velocity": 114,
      "chip": "ym2612"
    },
    {
      "channel": 0,
      "note": 98,
      "start": 107.9693,
      "duration": 0.0154,
      "velocity": 127,
      "chip": "ym2612"
    },
    {
      "channel": 1,
      "note": 58,
      "start": 107.9694,
      "duration": 0.062,
      "velocity": 93,
      "chip": "ym2612"
    },
    {
      "channel": 0,
      "note": 76,
      "start": 107.9846,
      "duration": 0.1092,
      "velocity": 114,
      "chip": "ym2612"
    },
    {
      "channel": 0,
      "note": 67,
      "start": 108.0938,
      "duration": 0.0309,
      "velocity": 114,
      "chip": "ym2612"
    },
    {
      "channel": 2,
      "note": 80,
      "start": 108.094,
      "duration": 0.498,
      "velocity": 103,
      "chip": "ym2612"
    },
    {
      "channel": 0,
      "note": 98,
      "start": 108.2183,
      "duration": 0.1245,
      "velocity": 123,
      "chip": "ym2612"
    },
    {
      "channel": 1,
      "note": 70,
      "start": 108.2184,
      "duration": 0.0309,
      "velocity": 93,
      "chip": "ym2612"
    },
    {
      "channel": 4,
      "note": 80,
      "start": 108.2339,
      "duration": 0.498,
      "velocity": 103,
      "chip": "ym2612"
    },
    {
      "channel": 0,
      "note": 54,
      "start": 108.3428,
      "duration": 0.1245,
      "velocity": 114,
      "chip": "ym2612"
    },
    {
      "channel": 1,
      "note": 58,
      "start": 108.3429,
      "duration": 0.249,
      "velocity": 93,
      "chip": "ym2612"
    },
    {
      "channel": 0,
      "note": 54,
      "start": 108.4673,
      "duration": 0.0309,
      "velocity": 114,
      "chip": "ym2612"
    },
    {
      "channel": 0,
      "note": 98,
      "start": 108.5918,
      "duration": 0.1245,
      "velocity": 114,
      "chip": "ym2612"
    },
    {
      "channel": 1,
      "note": 58,
      "start": 108.5919,
      "duration": 0.3735,
      "velocity": 93,
      "chip": "ym2612"
    },
    {
      "channel": 2,
      "note": 77,
      "start": 108.592,
      "duration": 0.498,
      "velocity": 103,
      "chip": "ym2612"
    },
    {
      "channel": 0,
      "note": 54,
      "start": 108.7163,
      "duration": 0.0309,
      "velocity": 114,
      "chip": "ym2612"
    },
    {
      "channel": 4,
      "note": 77,
      "start": 108.7319,
      "duration": 0.498,
      "velocity": 103,
      "chip": "ym2612"
    },
    {
      "channel": 0,
      "note": 98,
      "start": 108.8408,
      "duration": 0.1245,
      "velocity": 114,
      "chip": "ym2612"
    },
    {
      "channel": 0,
      "note": 54,
      "start": 108.9653,
      "duration": 0.0309,
      "velocity": 114,
      "chip": "ym2612"
    },
    {
      "channel": 0,
      "note": 98,
      "start": 109.0898,
      "duration": 0.0154,
      "velocity": 127,
      "chip": "ym2612"
    },
    {
      "channel": 1,
      "note": 65,
      "start": 109.0899,
      "duration": 0.3732,
      "velocity": 93,
      "chip": "ym2612"
    },
    {
      "channel": 2,
      "note": 82,
      "start": 109.09,
      "duration": 0.249,
      "velocity": 103,
      "chip": "ym2612"
    },
    {
      "channel": 0,
      "note": 76,
      "start": 109.1051,
      "duration": 0.1091,
      "velocity": 114,
      "chip": "ym2612"
    },
    {
      "channel": 0,
      "note": 67,
      "start": 109.2143,
      "duration": 0.0309,
      "velocity": 114,
      "chip": "ym2612"
    },
    {
      "channel": 4,
      "note": 82,
      "start": 109.23,
      "duration": 0.249,
      "velocity": 103,
      "chip": "ym2612"
    },
    {
      "channel": 0,
      "note": 98,
      "start": 109.3388,
      "duration": 0.249,
      "velocity": 123,
      "chip": "ym2612"
    },
    {
      "channel": 2,
      "note": 82,
      "start": 109.339,
      "duration": 0.2491,
      "velocity": 103,
      "chip": "ym2612"
    },
    {
      "channel": 4,
      "note": 82,
      "start": 109.479,
      "duration": 0.249,
      "velocity": 103,
      "chip": "ym2612"
    },
    {
      "channel": 0,
      "note": 98,
      "start": 109.5878,
      "duration": 0.1245,
      "velocity": 114,
      "chip": "ym2612"
    },
    {
      "channel": 1,
      "note": 65,
      "start": 109.588,
      "duration": 0.3735,
      "velocity": 93,
      "chip": "ym2612"
    },
    {
      "channel": 2,
      "note": 84,
      "start": 109.5881,
      "duration": 0.996,
      "velocity": 103,
      "chip": "ym2612"
    },
    {
      "channel": 3,
      "note": 56,
      "start": 109.5882,
      "duration": 1.9921,
      "velocity": 121,
      "chip": "ym2612"
    },
    {
      "channel": 5,
      "note": 51,
      "start": 109.5884,
      "duration": 1.9921,
      "velocity": 121,
      "chip": "ym2612"
    },
    {
      "channel": 0,
      "note": 54,
      "start": 109.7123,
      "duration": 0.0309,
      "velocity": 114,
      "chip": "ym2612"
    },
    {
      "channel": 4,
      "note": 84,
      "start": 109.728,
      "duration": 0.9962,
      "velocity": 103,
      "chip": "ym2612"
    },
    {
      "channel": 0,
      "note": 98,
      "start": 109.8368,
      "duration": 0.0309,
      "velocity": 114,
      "chip": "ym2612"
    },
    {
      "channel": 0,
      "note": 98,
      "start": 109.9613,
      "duration": 0.0154,
      "velocity": 127,
      "chip": "ym2612"
    },
    {
      "channel": 1,
      "note": 58,
      "start": 109.9615,
      "duration": 0.062,
      "velocity": 93,
      "chip": "ym2612"
    },
    {
      "channel": 0,
      "note": 76,
      "start": 109.9767,
      "duration": 0.1091,
      "velocity": 114,
      "chip": "ym2612"
    },
    {
      "channel": 0,
      "note": 67,
      "start": 110.0858,
      "duration": 0.0309,
      "velocity": 114,
      "chip": "ym2612"
    },
    {
      "channel": 0,
      "note": 98,
      "start": 110.2103,
      "duration": 0.1245,
      "velocity": 123,
      "chip": "ym2612"
    },
    {
      "channel": 1,
      "note": 70,
      "start": 110.2105,
      "duration": 0.0309,
      "velocity": 93,
      "chip": "ym2612"
    },
    {
      "channel": 0,
      "note": 54,
      "start": 110.3348,
      "duration": 0.1245,
      "velocity": 114,
      "chip": "ym2612"
    },
    {
      "channel": 1,
      "note": 58,
      "start": 110.335,
      "duration": 0.249,
      "velocity": 93,
      "chip": "ym2612"
    },
    {
      "channel": 0,
      "note": 54,
      "start": 110.4593,
      "duration": 0.0311,
      "velocity": 114,
      "chip": "ym2612"
    },
    {
      "channel": 0,
      "note": 98,
      "start": 110.5839,
      "duration": 0.1245,
      "velocity": 114,
      "chip": "ym2612"
    },
    {
      "channel": 1,
      "note": 58,
      "start": 110.584,
      "duration": 0.498,
      "velocity": 93,
      "chip": "ym2612"
    },
    {
      "channel": 2,
      "note": 85,
      "start": 110.5841,
      "duration": 0.9961,
      "velocity": 103,
      "chip": "ym2612"
    },
    {
      "channel": 0,
      "note": 54,
      "start": 110.7084,
      "duration": 0.0309,
      "velocity": 114,
      "chip": "ym2612"
    },
    {
      "channel": 4,
      "note": 85,
      "start": 110.7242,
      "duration": 0.9959,
      "velocity": 103,
      "chip": "ym2612"
    },
    {
      "channel": 0,
      "note": 98,
      "start": 110.8329,
      "duration": 0.1245,
      "velocity": 114,
      "chip": "ym2612"
    },
    {
      "channel": 0,
      "note": 54,
      "start": 110.9574,
      "duration": 0.0309,
      "velocity": 114,
      "chip": "ym2612"
    },
    {
      "channel": 0,
      "note": 98,
      "start": 111.0819,
      "duration": 0.0154,
      "velocity": 127,
      "chip": "ym2612"
    },
    {
      "channel": 1,
      "note": 53,
      "start": 111.082,
      "duration": 0.498,
      "velocity": 93,
      "chip": "ym2612"
    },
    {
      "channel": 0,
      "note": 76,
      "start": 111.0972,
      "duration": 0.1091,
      "velocity": 114,
      "chip": "ym2612"
    },
    {
      "channel": 0,
      "note": 67,
      "start": 111.2064,
      "duration": 0.0309,
      "velocity": 114,
      "chip": "ym2612"
    },
    {
      "channel": 0,
      "note": 98,
      "start": 111.3309,
      "duration": 0.249,
      "velocity": 123,
      "chip": "ym2612"
    },
    {
      "channel": 0,
      "note": 98,
      "start": 111.5799,
      "duration": 0.1245,
      "velocity": 114,
      "chip": "ym2612"
    },
    {
      "channel": 1,
      "note": 56,
      "start": 111.58,
      "duration": 0.3735,
      "velocity": 93,
      "chip": "ym2612"
    },
    {
      "channel": 2,
      "note": 87,
      "start": 111.5802,
      "duration": 1.743,
      "velocity": 103,
      "chip": "ym2612"
    },
    {
      "channel": 3,
      "note": 58,
      "start": 111.5803,
      "duration": 1.9926,
      "velocity": 111,
      "chip": "ym2612"
    },
    {
      "channel": 5,
      "note": 53,
      "start": 111.5805,
      "duration": 1.9932,
      "velocity": 111,
      "chip": "ym2612"
    },
    {
      "channel": 0,
      "note": 54,
      "start": 111.7044,
      "duration": 0.0309,
      "velocity": 114,
      "chip": "ym2612"
    },
    {
      "channel": 4,
      "note": 87,
      "start": 111.72,
      "duration": 1.7431,
      "velocity": 103,
      "chip": "ym2612"
    },
    {
      "channel": 0,
      "note": 98,
      "start": 111.8289,
      "duration": 0.0309,
      "velocity": 114,
      "chip": "ym2612"
    },
    {
      "channel": 0,
      "note": 98,
      "start": 111.9534,
      "duration": 0.0154,
      "velocity": 127,
      "chip": "ym2612"
    },
    {
      "channel": 1,
      "note": 58,
      "start": 111.9535,
      "duration": 0.062,
      "velocity": 93,
      "chip": "ym2612"
    },
    {
      "channel": 0,
      "note": 76,
      "start": 111.9688,
      "duration": 0.1091,
      "velocity": 114,
      "chip": "ym2612"
    },
    {
      "channel": 0,
      "note": 67,
      "start": 112.0779,
      "duration": 0.0309,
      "velocity": 114,
      "chip": "ym2612"
    },
    {
      "channel": 0,
      "note": 98,
      "start": 112.2024,
      "duration": 0.1245,
      "velocity": 123,
      "chip": "ym2612"
    },
    {
      "channel": 1,
      "note": 70,
      "start": 112.2025,
      "duration": 0.0309,
      "velocity": 93,
      "chip": "ym2612"
    },
    {
      "channel": 0,
      "note": 54,
      "start": 112.3269,
      "duration": 0.1245,
      "velocity": 114,
      "chip": "ym2612"
    },
    {
      "channel": 1,
      "note": 58,
      "start": 112.3271,
      "duration": 0.249,
      "velocity": 93,
      "chip": "ym2612"
    },
    {
      "channel": 0,
      "note": 54,
      "start": 112.4514,
      "duration": 0.0309,
      "velocity": 114,
      "chip": "ym2612"
    },
    {
      "channel": 0,
      "note": 98,
      "start": 112.5759,
      "duration": 0.1245,
      "velocity": 114,
      "chip": "ym2612"
    },
    {
      "channel": 1,
      "note": 58,
      "start": 112.5761,
      "duration": 0.3735,
      "velocity": 93,
      "chip": "ym2612"
    },
    {
      "channel": 0,
      "note": 54,
      "start": 112.7004,
      "duration": 0.0309,
      "velocity": 114,
      "chip": "ym2612"
    },
    {
      "channel": 0,
      "note": 98,
      "start": 112.8249,
      "duration": 0.1245,
      "velocity": 114,
      "chip": "ym2612"
    },
    {
      "channel": 0,
      "note": 54,
      "start": 112.9495,
      "duration": 0.0309,
      "velocity": 114,
      "chip": "ym2612"
    },
    {
      "channel": 0,
      "note": 98,
      "start": 113.0741,
      "duration": 0.0152,
      "velocity": 127,
      "chip": "ym2612"
    },
    {
      "channel": 1,
      "note": 65,
      "start": 113.0742,
      "duration": 0.3731,
      "velocity": 93,
      "chip": "ym2612"
    },
    {
      "channel": 0,
      "note": 76,
      "start": 113.0893,
      "duration": 0.1091,
      "velocity": 114,
      "chip": "ym2612"
    },
    {
      "channel": 0,
      "note": 67,
      "start": 113.1985,
      "duration": 0.0309,
      "velocity": 114,
      "chip": "ym2612"
    },
    {
      "channel": 0,
      "note": 98,
      "start": 113.323,
      "duration": 0.249,
      "velocity": 123,
      "chip": "ym2612"
    },
    {
      "channel": 0,
      "note": 98,
      "start": 113.572,
      "duration": 0.1245,
      "velocity": 114,
      "chip": "ym2612"
    },
    {
      "channel": 1,
      "note": 65,
      "start": 113.5722,
      "duration": 0.3734,
      "velocity": 93,
      "chip": "ym2612"
    },
    {
      "channel": 2,
      "note": 89,
      "start": 113.5725,
      "duration": 2.4898,
      "velocity": 99,
      "chip": "ym2612"
    },
    {
      "channel": 3,
      "note": 63,
      "start": 113.5729,
      "duration": 1.9915,
      "velocity": 111,
      "chip": "ym2612"
    },
    {
      "channel": 0,
      "note": 54,
      "start": 113.6965,
      "duration": 0.0309,
      "velocity": 114,
      "chip": "ym2612"
    },
    {
      "channel": 5,
      "note": 57,
      "start": 113.7122,
      "duration": 1.9921,
      "velocity": 111,
      "chip": "ym2612"
    },
    {
      "channel": 4,
      "note": 89,
      "start": 113.7588,
      "duration": 2.4901,
      "velocity": 99,
      "chip": "ym2612"
    },
    {
      "channel": 0,
      "note": 98,
      "start": 113.821,
      "duration": 0.0309,
      "velocity": 114,
      "chip": "ym2612"
    },
    {
      "channel": 0,
      "note": 98,
      "start": 113.9455,
      "duration": 0.0154,
      "velocity": 127,
      "chip": "ym2612"
    },
    {
      "channel": 1,
      "note": 59,
      "start": 113.9456,
      "duration": 0.062,
      "velocity": 93,
      "chip": "ym2612"
    },
    {
      "channel": 0,
      "note": 76,
      "start": 113.9608,
      "duration": 0.1091,
      "velocity": 114,
      "chip": "ym2612"
    },
    {
      "channel": 0,
      "note": 67,
      "start": 114.07,
      "duration": 0.0309,
      "velocity": 114,
      "chip": "ym2612"
    },
    {
      "channel": 0,
      "note": 98,
      "start": 114.1945,
      "duration": 0.1245,
      "velocity": 123,
      "chip": "ym2612"
    },
    {
      "channel": 1,
      "note": 71,
      "start": 114.1946,
      "duration": 0.0309,
      "velocity": 93,
      "chip": "ym2612"
    },
    {
      "channel": 0,
      "note": 54,
      "start": 114.319,
      "duration": 0.1245,
      "velocity": 114,
      "chip": "ym2612"
    },
    {
      "channel": 1,
      "note": 59,
      "start": 114.3191,
      "duration": 0.249,
      "velocity": 93,
      "chip": "ym2612"
    },
    {
      "channel": 0,
      "note": 54,
      "start": 114.4435,
      "duration": 0.0309,
      "velocity": 114,
      "chip": "ym2612"
    },
    {
      "channel": 0,
      "note": 98,
      "start": 114.568,
      "duration": 0.1245,
      "velocity": 114,
      "chip": "ym2612"
    },
    {
      "channel": 1,
      "note": 59,
      "start": 114.5681,
      "duration": 0.498,
      "velocity": 93,
      "chip": "ym2612"
    },
    {
      "channel": 0,
      "note": 54,
      "start": 114.6925,
      "duration": 0.0309,
      "velocity": 114,
      "chip": "ym2612"
    },
    {
      "channel": 0,
      "note": 98,
      "start": 114.817,
      "duration": 0.1245,
      "velocity": 114,
      "chip": "ym2612"
    },
    {
      "channel": 0,
      "note": 54,
      "start": 114.9415,
      "duration": 0.0309,
      "velocity": 114,
      "chip": "ym2612"
    },
    {
      "channel": 0,
      "note": 98,
      "start": 115.066,
      "duration": 0.0154,
      "velocity": 127,
      "chip": "ym2612"
    },
    {
      "channel": 1,
      "note": 59,
      "start": 115.0662,
      "duration": 0.498,
      "velocity": 93,
      "chip": "ym2612"
    },
    {
      "channel": 0,
      "note": 76,
      "start": 115.0814,
      "duration": 0.1093,
      "velocity": 114,
      "chip": "ym2612"
    },
    {
      "channel": 0,
      "note": 67,
      "start": 115.1907,
      "duration": 0.0307,
      "velocity": 114,
      "chip": "ym2612"
    },
    {
      "channel": 0,
      "note": 98,
      "start": 115.315,
      "duration": 0.249,
      "velocity": 123,
      "chip": "ym2612"
    },
    {
      "channel": 0,
      "note": 98,
      "start": 115.5641,
      "duration": 0.1245,
      "velocity": 114,
      "chip": "ym2612"
    },
    {
      "channel": 1,
      "note": 56,
      "start": 115.5642,
      "duration": 0.3735,
      "velocity": 93,
      "chip": "ym2612"
    },
    {
      "channel": 3,
      "note": 47,
      "start": 115.5645,
      "duration": 1.9921,
      "velocity": 111,
      "chip": "ym2612"
    },
    {
      "channel": 0,
      "note": 54,
      "start": 115.6885,
      "duration": 0.0309,
      "velocity": 114,
      "chip": "ym2612"
    },
    {
      "channel": 5,
      "note": 47,
      "start": 115.7043,
      "duration": 1.992,
      "velocity": 111,
      "chip": "ym2612"
    },
    {
      "channel": 0,
      "note": 98,
      "start": 115.8131,
      "duration": 0.0309,
      "velocity": 114,
      "chip": "ym2612"
    },
    {
      "channel": 0,
      "note": 98,
      "start": 115.9376,
      "duration": 0.0154,
      "velocity": 127,
      "chip": "ym2612"
    },
    {
      "channel": 1,
      "note": 61,
      "start": 115.9377,
      "duration": 0.062,
      "velocity": 93,
      "chip": "ym2612"
    },
    {
      "channel": 0,
      "note": 76,
      "start": 115.9529,
      "duration": 0.1091,
      "velocity": 114,
      "chip": "ym2612"
    },
    {
      "channel": 0,
      "note": 67,
      "start": 116.0621,
      "duration": 0.0309,
      "velocity": 114,
      "chip": "ym2612"
    },
    {
      "channel": 2,
      "note": 65,
      "start": 116.0623,
      "duration": 0.498,
      "velocity": 99,
      "chip": "ym2612"
    },
    {
      "channel": 0,
      "note": 98,
      "start": 116.1866,
      "duration": 0.1245,
      "velocity": 123,
      "chip": "ym2612"
    },
    {
      "channel": 1,
      "note": 73,
      "start": 116.1867,
      "duration": 0.0309,
      "velocity": 93,
      "chip": "ym2612"
    },
    {
      "channel": 4,
      "note": 65,
      "start": 116.2489,
      "duration": 0.498,
      "velocity": 99,
      "chip": "ym2612"
    },
    {
      "channel": 0,
      "note": 54,
      "start": 116.3111,
      "duration": 0.1245,
      "velocity": 114,
      "chip": "ym2612"
    },
    {
      "channel": 1,
      "note": 61,
      "start": 116.3112,
      "duration": 0.249,
      "velocity": 93,
      "chip": "ym2612"
    },
    {
      "channel": 0,
      "note": 54,
      "start": 116.4356,
      "duration": 0.0309,
      "velocity": 114,
      "chip": "ym2612"
    },
    {
      "channel": 0,
      "note": 98,
      "start": 116.5601,
      "duration": 0.1245,
      "velocity": 114,
      "chip": "ym2612"
    },
    {
      "channel": 1,
      "note": 61,
      "start": 116.5602,
      "duration": 0.498,
      "velocity": 93,
      "chip": "ym2612"
    },
    {
      "channel": 2,
      "note": 63,
      "start": 116.5603,
      "duration": 0.498,
      "velocity": 99,
      "chip": "ym2612"
    },
    {
      "channel": 0,
      "note": 54,
      "start": 116.6846,
      "duration": 0.0309,
      "velocity": 114,
      "chip": "ym2612"
    },
    {
      "channel": 4,
      "note": 63,
      "start": 116.7469,
      "duration": 0.498,
      "velocity": 99,
      "chip": "ym2612"
    },
    {
      "channel": 0,
      "note": 98,
      "start": 116.8091,
      "duration": 0.1245,
      "velocity": 114,
      "chip": "ym2612"
    },
    {
      "channel": 0,
      "note": 54,
      "start": 116.9336,
      "duration": 0.0309,
      "velocity": 114,
      "chip": "ym2612"
    },
    {
      "channel": 0,
      "note": 98,
      "start": 117.0581,
      "duration": 0.0154,
      "velocity": 127,
      "chip": "ym2612"
    },
    {
      "channel": 1,
      "note": 61,
      "start": 117.0582,
      "duration": 0.2492,
      "velocity": 93,
      "chip": "ym2612"
    },
    {
      "channel": 2,
      "note": 68,
      "start": 117.0584,
      "duration": 0.498,
      "velocity": 99,
      "chip": "ym2612"
    },
    {
      "channel": 0,
      "note": 76,
      "start": 117.0735,
      "duration": 0.1091,
      "velocity": 114,
      "chip": "ym2612"
    },
    {
      "channel": 0,
      "note": 67,
      "start": 117.1826,
      "duration": 0.0309,
      "velocity": 114,
      "chip": "ym2612"
    },
    {
      "channel": 4,
      "note": 68,
      "start": 117.2449,
      "duration": 0.498,
      "velocity": 99,
      "chip": "ym2612"
    },
    {
      "channel": 0,
      "note": 98,
      "start": 117.3073,
      "duration": 0.2489,
      "velocity": 123,
      "chip": "ym2612"
    },
    {
      "channel": 1,
      "note": 58,
      "start": 117.3074,
      "duration": 0.2489,
      "velocity": 93,
      "chip": "ym2612"
    },
    {
      "channel": 0,
      "note": 98,
      "start": 117.5561,
      "duration": 0.1245,
      "velocity": 114,
      "chip": "ym2612"
    },
    {
      "channel": 1,
      "note": 61,
      "start": 117.5563,
      "duration": 0.3735,
      "velocity": 93,
      "chip": "ym2612"
    },
    {
      "channel": 2,
      "note": 66,
      "start": 117.5564,
      "duration": 0.747,
      "velocity": 99,
      "chip": "ym2612"
    },
    {
      "channel": 3,
      "note": 49,
      "start": 117.5566,
      "duration": 1.992,
      "velocity": 111,
      "chip": "ym2612"
    },
    {
      "channel": 0,
      "note": 54,
      "start": 117.6806,
      "duration": 0.0309,
      "velocity": 114,
      "chip": "ym2612"
    },
    {
      "channel": 5,
      "note": 49,
      "start": 117.6963,
      "duration": 1.9921,
      "velocity": 111,
      "chip": "ym2612"
    },
    {
      "channel": 4,
      "note": 66,
      "start": 117.743,
      "duration": 0.747,
      "velocity": 99,
      "chip": "ym2612"
    },
    {
      "channel": 0,
      "note": 98,
      "start": 117.8051,
      "duration": 0.0309,
      "velocity": 114,
      "chip": "ym2612"
    },
    {
      "channel": 0,
      "note": 98,
      "start": 117.9296,
      "duration": 0.0154,
      "velocity": 127,
      "chip": "ym2612"
    },
    {
      "channel": 1,
      "note": 63,
      "start": 117.9298,
      "duration": 0.062,
      "velocity": 93,
      "chip": "ym2612"
    },
    {
      "channel": 0,
      "note": 76,
      "start": 117.945,
      "duration": 0.1091,
      "velocity": 114,
      "chip": "ym2612"
    },
    {
      "channel": 0,
      "note": 67,
      "start": 118.0541,
      "duration": 0.0309,
      "velocity": 114,
      "chip": "ym2612"
    },
    {
      "channel": 0,
      "note": 98,
      "start": 118.1786,
      "duration": 0.1245,
      "velocity": 123,
      "chip": "ym2612"
    },
    {
      "channel": 1,
      "note": 75,
      "start": 118.1788,
      "duration": 0.0309,
      "velocity": 93,
      "chip": "ym2612"
    },
    {
      "channel": 0,
      "note": 54,
      "start": 118.3032,
      "duration": 0.1245,
      "velocity": 114,
      "chip": "ym2612"
    },
    {
      "channel": 1,
      "note": 63,
      "start": 118.3033,
      "duration": 0.249,
      "velocity": 93,
      "chip": "ym2612"
    },
    {
      "channel": 2,
      "note": 65,
      "start": 118.3034,
      "duration": 2.2411,
      "velocity": 99,
      "chip": "ym2612"
    },
    {
      "channel": 0,
      "note": 54,
      "start": 118.4277,
      "duration": 0.0309,
      "velocity": 114,
      "chip": "ym2612"
    },
    {
      "channel": 4,
      "note": 65,
      "start": 118.49,
      "duration": 2.2411,
      "velocity": 99,
      "chip": "ym2612"
    },
    {
      "channel": 0,
      "note": 98,
      "start": 118.5522,
      "duration": 0.1245,
      "velocity": 114,
      "chip": "ym2612"
    },
    {
      "channel": 1,
      "note": 63,
      "start": 118.5523,
      "duration": 0.498,
      "velocity": 93,
      "chip": "ym2612"
    },
    {
      "channel": 0,
      "note": 54,
      "start": 118.6767,
      "duration": 0.0309,
      "velocity": 114,
      "chip": "ym2612"
    },
    {
      "channel": 0,
      "note": 98,
      "start": 118.8012,
      "duration": 0.1245,
      "velocity": 114,
      "chip": "ym2612"
    },
    {
      "channel": 0,
      "note": 54,
      "start": 118.9257,
      "duration": 0.0309,
      "velocity": 114,
      "chip": "ym2612"
    },
    {
      "channel": 0,
      "note": 98,
      "start": 119.0502,
      "duration": 0.0154,
      "velocity": 127,
      "chip": "ym2612"
    },
    {
      "channel": 1,
      "note": 63,
      "start": 119.0503,
      "duration": 0.3732,
      "velocity": 93,
      "chip": "ym2612"
    },
    {
      "channel": 0,
      "note": 76,
      "start": 119.0655,
      "duration": 0.1091,
      "velocity": 114,
      "chip": "ym2612"
    },
    {
      "channel": 0,
      "note": 67,
      "start": 119.1747,
      "duration": 0.0309,
      "velocity": 114,
      "chip": "ym2612"
    },
    {
      "channel": 0,
      "note": 98,
      "start": 119.2992,
      "duration": 0.249,
      "velocity": 123,
      "chip": "ym2612"
    },
    {
      "channel": 1,
      "note": 58,
      "start": 119.4236,
      "duration": 0.3738,
      "velocity": 93,
      "chip": "ym2612"
    },
    {
      "channel": 0,
      "note": 98,
      "start": 119.5482,
      "duration": 0.1245,
      "velocity": 114,
      "chip": "ym2612"
    },
    {
      "channel": 3,
      "note": 51,
      "start": 119.5486,
      "duration": 1.9923,
      "velocity": 111,
      "chip": "ym2612"
    },
    {
      "channel": 0,
      "note": 54,
      "start": 119.6727,
      "duration": 0.0309,
      "velocity": 114,
      "chip": "ym2612"
    },
    {
      "channel": 5,
      "note": 51,
      "start": 119.6885,
      "duration": 1.992,
      "velocity": 111,
      "chip": "ym2612"
    },
    {
      "channel": 0,
      "note": 98,
      "start": 119.7972,
      "duration": 0.0309,
      "velocity": 114,
      "chip": "ym2612"
    },
    {
      "channel": 1,
      "note": 66,
      "start": 119.7973,
      "duration": 0.1245,
      "velocity": 93,
      "chip": "ym2612"
    },
    {
      "channel": 0,
      "note": 98,
      "start": 119.9217,
      "duration": 0.0153,
      "velocity": 127,
      "chip": "ym2612"
    },
    {
      "channel": 0,
      "note": 76,
      "start": 119.9371,
      "duration": 0.1091,
      "velocity": 114,
      "chip": "ym2612"
    },
    {
      "channel": 0,
      "note": 67,
      "start": 120.0462,
      "duration": 0.0309,
      "velocity": 114,
      "chip": "ym2612"
    },
    {
      "channel": 1,
      "note": 65,
      "start": 120.0463,
      "duration": 0.249,
      "velocity": 93,
      "chip": "ym2612"
    },
    {
      "channel": 0,
      "note": 98,
      "start": 120.1707,
      "duration": 0.1245,
      "velocity": 123,
      "chip": "ym2612"
    },
    {
      "channel": 0,
      "note": 54,
      "start": 120.2952,
      "duration": 0.1245,
      "velocity": 114,
      "chip": "ym2612"
    },
    {
      "channel": 1,
      "note": 63,
      "start": 120.2954,
      "duration": 0.1245,
      "velocity": 93,
      "chip": "ym2612"
    },
    {
      "channel": 0,
      "note": 54,
      "start": 120.4197,
      "duration": 0.0309,
      "velocity": 114,
      "chip": "ym2612"
    },
    {
      "channel": 1,
      "note": 70,
      "start": 120.4199,
      "duration": 0.3735,
      "velocity": 93,
      "chip": "ym2612"
    },
    {
      "channel": 0,
      "note": 98,
      "start": 120.5442,
      "duration": 0.1245,
      "velocity": 114,
      "chip": "ym2612"
    },
    {
      "channel": 0,
      "note": 54,
      "start": 120.6688,
      "duration": 0.0309,
      "velocity": 114,
      "chip": "ym2612"
    },
    {
      "channel": 0,
      "note": 98,
      "start": 120.7932,
      "duration": 0.1245,
      "velocity": 114,
      "chip": "ym2612"
    },
    {
      "channel": 1,
      "note": 78,
      "start": 120.7934,
      "duration": 0.1245,
      "velocity": 93,
      "chip": "ym2612"
    },
    {
      "channel": 0,
      "note": 54,
      "start": 120.9178,
      "duration": 0.0309,
      "velocity": 114,
      "chip": "ym2612"
    },
    {
      "channel": 0,
      "note": 98,
      "start": 121.0422,
      "duration": 0.0154,
      "velocity": 127,
      "chip": "ym2612"
    },
    {
      "channel": 1,
      "note": 77,
      "start": 121.0424,
      "duration": 0.249,
      "velocity": 93,
      "chip": "ym2612"
    },
    {
      "channel": 0,
      "note": 76,
      "start": 121.0576,
      "duration": 0.1091,
      "velocity": 114,
      "chip": "ym2612"
    },
    {
      "channel": 0,
      "note": 67,
      "start": 121.1668,
      "duration": 0.0309,
      "velocity": 114,
      "chip": "ym2612"
    },
    {
      "channel": 0,
      "note": 98,
      "start": 121.2913,
      "duration": 0.2492,
      "velocity": 123,
      "chip": "ym2612"
    },
    {
      "channel": 1,
      "note": 75,
      "start": 121.2914,
      "duration": 0.2492,
      "velocity": 93,
      "chip": "ym2612"
    },
    {
      "channel": 0,
      "note": 98,
      "start": 121.5405,
      "duration": 0.1243,
      "velocity": 114,
      "chip": "ym2612"
    },
    {
      "channel": 1,
      "note": 70,
      "start": 121.5406,
      "duration": 0.3733,
      "velocity": 93,
      "chip": "ym2612"
    },
    {
      "channel": 2,
      "note": 63,
      "start": 121.5407,
      "duration": 2.4898,
      "velocity": 99,
      "chip": "ym2612"
    },
    {
      "channel": 3,
      "note": 51,
      "start": 121.5409,
      "duration": 1.9919,
      "velocity": 111,
      "chip": "ym2612"
    },
    {
      "channel": 0,
      "note": 54,
      "start": 121.6648,
      "duration": 0.0309,
      "velocity": 114,
      "chip": "ym2612"
    },
    {
      "channel": 5,
      "note": 51,
      "start": 121.6805,
      "duration": 1.9921,
      "velocity": 111,
      "chip": "ym2612"
    },
    {
      "channel": 4,
      "note": 63,
      "start": 121.7271,
      "duration": 2.4901,
      "velocity": 99,
      "chip": "ym2612"
    },
    {
      "channel": 0,
      "note": 98,
      "start": 121.7893,
      "duration": 0.0309,
      "velocity": 114,
      "chip": "ym2612"
    },
    {
      "channel": 0,
      "note": 98,
      "start": 121.9138,
      "duration": 0.0154,
      "velocity": 127,
      "chip": "ym2612"
    },
    {
      "channel": 1,
      "note": 59,
      "start": 121.9139,
      "duration": 0.062,
      "velocity": 93,
      "chip": "ym2612"
    },
    {
      "channel": 0,
      "note": 76,
      "start": 121.9291,
      "duration": 0.1091,
      "velocity": 114,
      "chip": "ym2612"
    },
    {
      "channel": 0,
      "note": 67,
      "start": 122.0383,
      "duration": 0.0309,
      "velocity": 114,
      "chip": "ym2612"
    },
    {
      "channel": 0,
      "note": 98,
      "start": 122.1628,
      "duration": 0.1245,
      "velocity": 123,
      "chip": "ym2612"
    },
    {
      "channel": 1,
      "note": 71,
      "start": 122.1629,
      "duration": 0.0309,
      "velocity": 93,
      "chip": "ym2612"
    },
    {
      "channel": 0,
      "note": 54,
      "start": 122.2873,
      "duration": 0.1245,
      "velocity": 114,
      "chip": "ym2612"
    },
    {
      "channel": 1,
      "note": 59,
      "start": 122.2874,
      "duration": 0.249,
      "velocity": 93,
      "chip": "ym2612"
    },
    {
      "channel": 0,
      "note": 54,
      "start": 122.4118,
      "duration": 0.0309,
      "velocity": 114,
      "chip": "ym2612"
    },
    {
      "channel": 0,
      "note": 98,
      "start": 122.5363,
      "duration": 0.1245,
      "velocity": 114,
      "chip": "ym2612"
    },
    {
      "channel": 1,
      "note": 59,
      "start": 122.5364,
      "duration": 0.498,
      "velocity": 93,
      "chip": "ym2612"
    },
    {
      "channel": 0,
      "note": 54,
      "start": 122.6608,
      "duration": 0.0309,
      "velocity": 114,
      "chip": "ym2612"
    },
    {
      "channel": 0,
      "note": 98,
      "start": 122.7853,
      "duration": 0.1245,
      "velocity": 114,
      "chip": "ym2612"
    },
    {
      "channel": 0,
      "note": 54,
      "start": 122.9098,
      "duration": 0.0309,
      "velocity": 114,
      "chip": "ym2612"
    },
    {
      "channel": 0,
      "note": 98,
      "start": 123.0343,
      "duration": 0.0154,
      "velocity": 127,
      "chip": "ym2612"
    },
    {
      "channel": 1,
      "note": 59,
      "start": 123.0345,
      "duration": 0.498,
      "velocity": 93,
      "chip": "ym2612"
    },
    {
      "channel": 0,
      "note": 76,
      "start": 123.0497,
      "duration": 0.1091,
      "velocity": 114,
      "chip": "ym2612"
    },
    {
      "channel": 0,
      "note": 67,
      "start": 123.1588,
      "duration": 0.0309,
      "velocity": 114,
      "chip": "ym2612"
    },
    {
      "channel": 0,
      "note": 98,
      "start": 123.2834,
      "duration": 0.249,
      "velocity": 123,
      "chip": "ym2612"
    },
    {
      "channel": 0,
      "note": 98,
      "start": 123.5324,
      "duration": 0.1245,
      "velocity": 114,
      "chip": "ym2612"
    },
    {
      "channel": 1,
      "note": 56,
      "start": 123.5325,
      "duration": 0.3735,
      "velocity": 93,
      "chip": "ym2612"
    },
    {
      "channel": 3,
      "note": 47,
      "start": 123.5328,
      "duration": 1.9921,
      "velocity": 111,
      "chip": "ym2612"
    },
    {
      "channel": 0,
      "note": 54,
      "start": 123.6568,
      "duration": 0.0309,
      "velocity": 114,
      "chip": "ym2612"
    },
    {
      "channel": 5,
      "note": 47,
      "start": 123.6726,
      "duration": 1.992,
      "velocity": 111,
      "chip": "ym2612"
    },
    {
      "channel": 0,
      "note": 98,
      "start": 123.7814,
      "duration": 0.0309,
      "velocity": 114,
      "chip": "ym2612"
    },
    {
      "channel": 0,
      "note": 98,
      "start": 123.9059,
      "duration": 0.0154,
      "velocity": 127,
      "chip": "ym2612"
    },
    {
      "channel": 1,
      "note": 61,
      "start": 123.906,
      "duration": 0.062,
      "velocity": 93,
      "chip": "ym2612"
    },
    {
      "channel": 0,
      "note": 76,
      "start": 123.9212,
      "duration": 0.1091,
      "velocity": 114,
      "chip": "ym2612"
    },
    {
      "channel": 0,
      "note": 67,
      "start": 124.0304,
      "duration": 0.0309,
      "velocity": 114,
      "chip": "ym2612"
    },
    {
      "channel": 2,
      "note": 65,
      "start": 124.0306,
      "duration": 0.498,
      "velocity": 99,
      "chip": "ym2612"
    },
    {
      "channel": 0,
      "note": 98,
      "start": 124.1549,
      "duration": 0.1245,
      "velocity": 123,
      "chip": "ym2612"
    },
    {
      "channel": 1,
      "note": 73,
      "start": 124.155,
      "duration": 0.0309,
      "velocity": 93,
      "chip": "ym2612"
    },
    {
      "channel": 4,
      "note": 65,
      "start": 124.2172,
      "duration": 0.498,
      "velocity": 99,
      "chip": "ym2612"
    },
    {
      "channel": 0,
      "note": 54,
      "start": 124.2794,
      "duration": 0.1245,
      "velocity": 114,
      "chip": "ym2612"
    },
    {
      "channel": 1,
      "note": 61,
      "start": 124.2795,
      "duration": 0.249,
      "velocity": 93,
      "chip": "ym2612"
    },
    {
      "channel": 0,
      "note": 54,
      "start": 124.4039,
      "duration": 0.0309,
      "velocity": 114,
      "chip": "ym2612"
    },
    {
      "channel": 0,
      "note": 98,
      "start": 124.5284,
      "duration": 0.1245,
      "velocity": 114,
      "chip": "ym2612"
    },
    {
      "channel": 1,
      "note": 61,
      "start": 124.5285,
      "duration": 0.498,
      "velocity": 93,
      "chip": "ym2612"
    },
    {
      "channel": 2,
      "note": 63,
      "start": 124.5286,
      "duration": 0.498,
      "velocity": 99,
      "chip": "ym2612"
    },
    {
      "channel": 0,
      "note": 54,
      "start": 124.6529,
      "duration": 0.0309,
      "velocity": 114,
      "chip": "ym2612"
    },
    {
      "channel": 4,
      "note": 63,
      "start": 124.7152,
      "duration": 0.498,
      "velocity": 99,
      "chip": "ym2612"
    },
    {
      "channel": 0,
      "note": 98,
      "start": 124.7774,
      "duration": 0.1245,
      "velocity": 114,
      "chip": "ym2612"
    },
    {
      "channel": 0,
      "note": 54,
      "start": 124.9019,
      "duration": 0.0309,
      "velocity": 114,
      "chip": "ym2612"
    },
    {
      "channel": 0,
      "note": 98,
      "start": 125.0264,
      "duration": 0.0154,
      "velocity": 127,
      "chip": "ym2612"
    },
    {
      "channel": 1,
      "note": 61,
      "start": 125.0266,
      "duration": 0.249,
      "velocity": 93,
      "chip": "ym2612"
    },
    {
      "channel": 2,
      "note": 66,
      "start": 125.0267,
      "duration": 0.498,
      "velocity": 99,
      "chip": "ym2612"
    },
    {
      "channel": 0,
      "note": 76,
      "start": 125.0418,
      "duration": 0.1091,
      "velocity": 114,
      "chip": "ym2612"
    },
    {
      "channel": 0,
      "note": 67,
      "start": 125.1509,
      "duration": 0.0309,
      "velocity": 114,
      "chip": "ym2612"
    },
    {
      "channel": 4,
      "note": 66,
      "start": 125.2132,
      "duration": 0.498,
      "velocity": 99,
      "chip": "ym2612"
    },
    {
      "channel": 0,
      "note": 98,
      "start": 125.2754,
      "duration": 0.249,
      "velocity": 123,
      "chip": "ym2612"
    },
    {
      "channel": 1,
      "note": 58,
      "start": 125.2755,
      "duration": 0.249,
      "velocity": 93,
      "chip": "ym2612"
    },
    {
      "channel": 0,
      "note": 98,
      "start": 125.5244,
      "duration": 0.1245,
      "velocity": 114,
      "chip": "ym2612"
    },
    {
      "channel": 1,
      "note": 61,
      "start": 125.5246,
      "duration": 0.3735,
      "velocity": 93,
      "chip": "ym2612"
    },
    {
      "channel": 2,
      "note": 65,
      "start": 125.5247,
      "duration": 0.747,
      "velocity": 99,
      "chip": "ym2612"
    },
    {
      "channel": 3,
      "note": 49,
      "start": 125.5249,
      "duration": 1.992,
      "velocity": 111,
      "chip": "ym2612"
    },
    {
      "channel": 0,
      "note": 54,
      "start": 125.6489,
      "duration": 0.0309,
      "velocity": 114,
      "chip": "ym2612"
    },
    {
      "channel": 5,
      "note": 49,
      "start": 125.6647,
      "duration": 1.9921,
      "velocity": 111,
      "chip": "ym2612"
    },
    {
      "channel": 4,
      "note": 65,
      "start": 125.7113,
      "duration": 0.747,
      "velocity": 99,
      "chip": "ym2612"
    },
    {
      "channel": 0,
      "note": 98,
      "start": 125.7734,
      "duration": 0.0309,
      "velocity": 114,
      "chip": "ym2612"
    },
    {
      "channel": 0,
      "note": 98,
      "start": 125.8979,
      "duration": 0.0154,
      "velocity": 127,
      "chip": "ym2612"
    },
    {
      "channel": 1,
      "note": 64,
      "start": 125.8981,
      "duration": 0.062,
      "velocity": 93,
      "chip": "ym2612"
    },
    {
      "channel": 0,
      "note": 76,
      "start": 125.9133,
      "duration": 0.1091,
      "velocity": 114,
      "chip": "ym2612"
    },
    {
      "channel": 0,
      "note": 67,
      "start": 126.0224,
      "duration": 0.0309,
      "velocity": 114,
      "chip": "ym2612"
    },
    {
      "channel": 0,
      "note": 98,
      "start": 126.147,
      "duration": 0.1245,
      "velocity": 123,
      "chip": "ym2612"
    },
    {
      "channel": 1,
      "note": 76,
      "start": 126.1471,
      "duration": 0.0309,
      "velocity": 93,
      "chip": "ym2612"
    },
    {
      "channel": 0,
      "note": 54,
      "start": 126.2715,
      "duration": 0.1245,
      "velocity": 114,
      "chip": "ym2612"
    },
    {
      "channel": 1,
      "note": 64,
      "start": 126.2716,
      "duration": 0.249,
      "velocity": 93,
      "chip": "ym2612"
    },
    {
      "channel": 2,
      "note": 63,
      "start": 126.2717,
      "duration": 0.7471,
      "velocity": 99,
      "chip": "ym2612"
    },
    {
      "channel": 0,
      "note": 54,
      "start": 126.396,
      "duration": 0.0309,
      "velocity": 114,
      "chip": "ym2612"
    },
    {
      "channel": 4,
      "note": 63,
      "start": 126.4583,
      "duration": 0.747,
      "velocity": 99,
      "chip": "ym2612"
    },
    {
      "channel": 0,
      "note": 98,
      "start": 126.5205,
      "duration": 0.1245,
      "velocity": 114,
      "chip": "ym2612"
    },
    {
      "channel": 1,
      "note": 64,
      "start": 126.5206,
      "duration": 0.498,
      "velocity": 93,
      "chip": "ym2612"
    },
    {
      "channel": 0,
      "note": 54,
      "start": 126.645,
      "duration": 0.0309,
      "velocity": 114,
      "chip": "ym2612"
    },
    {
      "channel": 0,
      "note": 98,
      "start": 126.7695,
      "duration": 0.1245,
      "velocity": 114,
      "chip": "ym2612"
    },
    {
      "channel": 0,
      "note": 54,
      "start": 126.894,
      "duration": 0.0309,
      "velocity": 114,
      "chip": "ym2612"
    },
    {
      "channel": 0,
      "note": 98,
      "start": 127.0185,
      "duration": 0.0154,
      "velocity": 127,
      "chip": "ym2612"
    },
    {
      "channel": 1,
      "note": 64,
      "start": 127.0186,
      "duration": 0.498,
      "velocity": 93,
      "chip": "ym2612"
    },
    {
      "channel": 2,
      "note": 61,
      "start": 127.0188,
      "duration": 0.7469,
      "velocity": 99,
      "chip": "ym2612"
    },
    {
      "channel": 0,
      "note": 76,
      "start": 127.0338,
      "duration": 0.1091,
      "velocity": 114,
      "chip": "ym2612"
    },
    {
      "channel": 0,
      "note": 67,
      "start": 127.143,
      "duration": 0.0309,
      "velocity": 114,
      "chip": "ym2612"
    },
    {
      "channel": 4,
      "note": 61,
      "start": 127.2053,
      "duration": 0.7471,
      "velocity": 99,
      "chip": "ym2612"
    },
    {
      "channel": 0,
      "note": 98,
      "start": 127.2675,
      "duration": 0.249,
      "velocity": 123,
      "chip": "ym2612"
    },
    {
      "channel": 0,
      "note": 98,
      "start": 127.5165,
      "duration": 0.1245,
      "velocity": 114,
      "chip": "ym2612"
    },
    {
      "channel": 1,
      "note": 59,
      "start": 127.5167,
      "duration": 0.3735,
      "velocity": 93,
      "chip": "ym2612"
    },
    {
      "channel": 3,
      "note": 52,
      "start": 127.5169,
      "duration": 0.9961,
      "velocity": 111,
      "chip": "ym2612"
    },
    {
      "channel": 0,
      "note": 54,
      "start": 127.641,
      "duration": 0.0309,
      "velocity": 114,
      "chip": "ym2612"
    },
    {
      "channel": 5,
      "note": 52,
      "start": 127.6568,
      "duration": 0.996,
      "velocity": 111,
      "chip": "ym2612"
    },
    {
      "channel": 0,
      "note": 98,
      "start": 127.7655,
      "duration": 0.0309,
      "velocity": 114,
      "chip": "ym2612"
    },
    {
      "channel": 2,
      "note": 68,
      "start": 127.7657,
      "duration": 0.7471,
      "velocity": 99,
      "chip": "ym2612"
    },
    {
      "channel": 0,
      "note": 98,
      "start": 127.89,
      "duration": 0.0154,
      "velocity": 127,
      "chip": "ym2612"
    },
    {
      "channel": 1,
      "note": 64,
      "start": 127.8902,
      "duration": 0.062,
      "velocity": 93,
      "chip": "ym2612"
    },
    {
      "channel": 0,
      "note": 76,
      "start": 127.9054,
      "duration": 0.1091,
      "velocity": 114,
      "chip": "ym2612"
    },
    {
      "channel": 4,
      "note": 68,
      "start": 127.9524,
      "duration": 0.747,
      "velocity": 99,
      "chip": "ym2612"
    },
    {
      "channel": 0,
      "note": 67,
      "start": 128.0145,
      "duration": 0.0309,
      "velocity": 114,
      "chip": "ym2612"
    },
    {
      "channel": 0,
      "note": 98,
      "start": 128.139,
      "duration": 0.1245,
      "velocity": 123,
      "chip": "ym2612"
    },
    {
      "channel": 1,
      "note": 76,
      "start": 128.1392,
      "duration": 0.0309,
      "velocity": 93,
      "chip": "ym2612"
    },
    {
      "channel": 0,
      "note": 54,
      "start": 128.2635,
      "duration": 0.1245,
      "velocity": 114,
      "chip": "ym2612"
    },
    {
      "channel": 1,
      "note": 64,
      "start": 128.2637,
      "duration": 0.249,
      "velocity": 93,
      "chip": "ym2612"
    },
    {
      "channel": 0,
      "note": 54,
      "start": 128.388,
      "duration": 0.0309,
      "velocity": 114,
      "chip": "ym2612"
    },
    {
      "channel": 0,
      "note": 98,
      "start": 128.5125,
      "duration": 0.1245,
      "velocity": 114,
      "chip": "ym2612"
    },
    {
      "channel": 1,
      "note": 64,
      "start": 128.5127,
      "duration": 0.498,
      "velocity": 93,
      "chip": "ym2612"
    },
    {
      "channel": 2,
      "note": 66,
      "start": 128.5128,
      "duration": 0.9961,
      "velocity": 99,
      "chip": "ym2612"
    },
    {
      "channel": 3,
      "note": 52,
      "start": 128.513,
      "duration": 0.8555,
      "velocity": 111,
      "chip": "ym2612"
    },
    {
      "channel": 0,
      "note": 54,
      "start": 128.6371,
      "duration": 0.0309,
      "velocity": 114,
      "chip": "ym2612"
    },
    {
      "channel": 5,
      "note": 52,
      "start": 128.6528,
      "duration": 0.8566,
      "velocity": 111,
      "chip": "ym2612"
    },
    {
      "channel": 4,
      "note": 66,
      "start": 128.6994,
      "duration": 0.8099,
      "velocity": 99,
      "chip": "ym2612"
    },
    {
      "channel": 0,
      "note": 98,
      "start": 128.7615,
      "duration": 0.1245,
      "velocity": 114,
      "chip": "ym2612"
    },
    {
      "channel": 0,
      "note": 54,
      "start": 128.8861,
      "duration": 0.0309,
      "velocity": 114,
      "chip": "ym2612"
    },
    {
      "channel": 0,
      "note": 98,
      "start": 129.0106,
      "duration": 0.0154,
      "velocity": 127,
      "chip": "ym2612"
    },
    {
      "channel": 1,
      "note": 65,
      "start": 129.0107,
      "duration": 0.4981,
      "velocity": 93,
      "chip": "ym2612"
    },
    {
      "channel": 0,
      "note": 76,
      "start": 129.0259,
      "duration": 0.1091,
      "velocity": 114,
      "chip": "ym2612"
    },
    {
      "channel": 0,
      "note": 67,
      "start": 129.1351,
      "duration": 0.0309,
      "velocity": 114,
      "chip": "ym2612"
    },
    {
      "channel": 0,
      "note": 98,
      "start": 129.2596,
      "duration": 0.249,
      "velocity": 123,
      "chip": "ym2612"
    },
    {
      "channel": 0,
      "note": 98,
      "start": 129.5086,
      "duration": 0.1245,
      "velocity": 114,
      "chip": "ym2612"
    },
    {
      "channel": 1,
      "note": 65,
      "start": 129.5088,
      "duration": 0.3734,
      "velocity": 93,
      "chip": "ym2612"
    },
    {
      "channel": 0,
      "note": 54,
      "start": 129.6331,
      "duration": 0.0309,
      "velocity": 114,
      "chip": "ym2612"
    },
    {
      "channel": 0,
      "note": 98,
      "start": 129.7576,
      "duration": 0.0309,
      "velocity": 114,
      "chip": "ym2612"
    },
    {
      "channel": 0,
      "note": 98,
      "start": 129.8821,
      "duration": 0.0154,
      "velocity": 127,
      "chip": "ym2612"
    },
    {
      "channel": 1,
      "note": 57,
      "start": 129.8822,
      "duration": 0.062,
      "velocity": 93,
      "chip": "ym2612"
    },
    {
      "channel": 0,
      "note": 76,
      "start": 129.8975,
      "duration": 0.1091,
      "velocity": 114,
      "chip": "ym2612"
    },
    {
      "channel": 0,
      "note": 67,
      "start": 130.0066,
      "duration": 0.0309,
      "velocity": 114,
      "chip": "ym2612"
    },
    {
      "channel": 0,
      "note": 98,
      "start": 130.1311,
      "duration": 0.1245,
      "velocity": 123,
      "chip": "ym2612"
    },
    {
      "channel": 1,
      "note": 69,
      "start": 130.1312,
      "duration": 0.0309,
      "velocity": 93,
      "chip": "ym2612"
    },
    {
      "channel": 0,
      "note": 54,
      "start": 130.2556,
      "duration": 0.1245,
      "velocity": 114,
      "chip": "ym2612"
    },
    {
      "channel": 1,
      "note": 57,
      "start": 130.2557,
      "duration": 0.249,
      "velocity": 93,
      "chip": "ym2612"
    },
    {
      "channel": 0,
      "note": 54,
      "start": 130.3801,
      "duration": 0.0309,
      "velocity": 114,
      "chip": "ym2612"
    },
    {
      "channel": 0,
      "note": 98,
      "start": 130.5046,
      "duration": 0.1245,
      "velocity": 114,
      "chip": "ym2612"
    },
    {
      "channel": 1,
      "note": 57,
      "start": 130.5048,
      "duration": 0.498,
      "velocity": 93,
      "chip": "ym2612"
    },
    {
      "channel": 0,
      "note": 54,
      "start": 130.6291,
      "duration": 0.0309,
      "velocity": 114,
      "chip": "ym2612"
    },
    {
      "channel": 0,
      "note": 98,
      "start": 130.7536,
      "duration": 0.1245,
      "velocity": 114,
      "chip": "ym2612"
    },
    {
      "channel": 0,
      "note": 54,
      "start": 130.8781,
      "duration": 0.0309,
      "velocity": 114,
      "chip": "ym2612"
    },
    {
      "channel": 0,
      "note": 98,
      "start": 131.0026,
      "duration": 0.0154,
      "velocity": 127,
      "chip": "ym2612"
    },
    {
      "channel": 1,
      "note": 52,
      "start": 131.0028,
      "duration": 0.498,
      "velocity": 93,
      "chip": "ym2612"
    },
    {
      "channel": 0,
      "note": 76,
      "start": 131.018,
      "duration": 0.1091,
      "velocity": 114,
      "chip": "ym2612"
    },
    {
      "channel": 0,
      "note": 67,
      "start": 131.1271,
      "duration": 0.0309,
      "velocity": 114,
      "chip": "ym2612"
    },
    {
      "channel": 0,
      "note": 98,
      "start": 131.2517,
      "duration": 0.249,
      "velocity": 123,
      "chip": "ym2612"
    },
    {
      "channel": 0,
      "note": 98,
      "start": 131.5007,
      "duration": 0.1245,
      "velocity": 114,
      "chip": "ym2612"
    },
    {
      "channel": 1,
      "note": 55,
      "start": 131.5008,
      "duration": 0.3735,
      "velocity": 93,
      "chip": "ym2612"
    },
    {
      "channel": 0,
      "note": 54,
      "start": 131.6252,
      "duration": 0.0309,
      "velocity": 114,
      "chip": "ym2612"
    },
    {
      "channel": 0,
      "note": 98,
      "start": 131.7497,
      "duration": 0.0309,
      "velocity": 114,
      "chip": "ym2612"
    },
    {
      "channel": 0,
      "note": 98,
      "start": 131.8742,
      "duration": 0.0154,
      "velocity": 127,
      "chip": "ym2612"
    },
    {
      "channel": 1,
      "note": 57,
      "start": 131.8743,
      "duration": 0.062,
      "velocity": 93,
      "chip": "ym2612"
    },
    {
      "channel": 0,
      "note": 76,
      "start": 131.8895,
      "duration": 0.1091,
      "velocity": 114,
      "chip": "ym2612"
    },
    {
      "channel": 0,
      "note": 67,
      "start": 131.9987,
      "duration": 0.0309,
      "velocity": 114,
      "chip": "ym2612"
    },
    {
      "channel": 0,
      "note": 98,
      "start": 132.1232,
      "duration": 0.1245,
      "velocity": 123,
      "chip": "ym2612"
    },
    {
      "channel": 1,
      "note": 69,
      "start": 132.1233,
      "duration": 0.0309,
      "velocity": 93,
      "chip": "ym2612"
    },
    {
      "channel": 0,
      "note": 54,
      "start": 132.2477,
      "duration": 0.1245,
      "velocity": 114,
      "chip": "ym2612"
    },
    {
      "channel": 1,
      "note": 57,
      "start": 132.2478,
      "duration": 0.249,
      "velocity": 93,
      "chip": "ym2612"
    },
    {
      "channel": 0,
      "note": 54,
      "start": 132.3722,
      "duration": 0.0309,
      "velocity": 114,
      "chip": "ym2612"
    },
    {
      "channel": 0,
      "note": 98,
      "start": 132.4967,
      "duration": 0.1245,
      "velocity": 114,
      "chip": "ym2612"
    },
    {
      "channel": 1,
      "note": 57,
      "start": 132.4968,
      "duration": 0.3735,
      "velocity": 93,
      "chip": "ym2612"
    },
    {
      "channel": 0,
      "note": 54,
      "start": 132.6212,
      "duration": 0.0309,
      "velocity": 114,
      "chip": "ym2612"
    },
    {
      "channel": 0,
      "note": 98,
      "start": 132.7457,
      "duration": 0.1245,
      "velocity": 114,
      "chip": "ym2612"
    },
    {
      "channel": 0,
      "note": 54,
      "start": 132.8702,
      "duration": 0.0309,
      "velocity": 114,
      "chip": "ym2612"
    },
    {
      "channel": 0,
      "note": 98,
      "start": 132.9947,
      "duration": 0.0154,
      "velocity": 127,
      "chip": "ym2612"
    },
    {
      "channel": 1,
      "note": 64,
      "start": 132.9948,
      "duration": 0.3732,
      "velocity": 93,
      "chip": "ym2612"
    },
    {
      "channel": 0,
      "note": 76,
      "start": 133.0101,
      "duration": 0.1091,
      "velocity": 114,
      "chip": "ym2612"
    },
    {
      "channel": 0,
      "note": 67,
      "start": 133.1192,
      "duration": 0.0309,
      "velocity": 114,
      "chip": "ym2612"
    },
    {
      "channel": 0,
      "note": 98,
      "start": 133.2437,
      "duration": 0.249,
      "velocity": 123,
      "chip": "ym2612"
    },
    {
      "channel": 0,
      "note": 98,
      "start": 133.4928,
      "duration": 0.1245,
      "velocity": 114,
      "chip": "ym2612"
    },
    {
      "channel": 1,
      "note": 64,
      "start": 133.4929,
      "duration": 0.3735,
      "velocity": 93,
      "chip": "ym2612"
    },
    {
      "channel": 0,
      "note": 54,
      "start": 133.6172,
      "duration": 0.0309,
      "velocity": 114,
      "chip": "ym2612"
    },
    {
      "channel": 0,
      "note": 98,
      "start": 133.7417,
      "duration": 0.0309,
      "velocity": 114,
      "chip": "ym2612"
    },
    {
      "channel": 0,
      "note": 98,
      "start": 133.8662,
      "duration": 0.0154,
      "velocity": 127,
      "chip": "ym2612"
    },
    {
      "channel": 1,
      "note": 57,
      "start": 133.8664,
      "duration": 0.062,
      "velocity": 93,
      "chip": "ym2612"
    },
    {
      "channel": 0,
      "note": 76,
      "start": 133.8816,
      "duration": 0.1091,
      "velocity": 114,
      "chip": "ym2612"
    },
    {
      "channel": 0,
      "note": 67,
      "start": 133.9907,
      "duration": 0.0309,
      "velocity": 114,
      "chip": "ym2612"
    },
    {
      "channel": 0,
      "note": 98,
      "start": 134.1153,
      "duration": 0.1245,
      "velocity": 123,
      "chip": "ym2612"
    },
    {
      "channel": 1,
      "note": 69,
      "start": 134.1154,
      "duration": 0.0309,
      "velocity": 93,
      "chip": "ym2612"
    },
    {
      "channel": 0,
      "note": 54,
      "start": 134.2398,
      "duration": 0.1245,
      "velocity": 114,
      "chip": "ym2612"
    },
    {
      "channel": 1,
      "note": 57,
      "start": 134.2399,
      "duration": 0.249,
      "velocity": 93,
      "chip": "ym2612"
    },
    {
      "channel": 0,
      "note": 54,
      "start": 134.3643,
      "duration": 0.0309,
      "velocity": 114,
      "chip": "ym2612"
    },
    {
      "channel": 0,
      "note": 98,
      "start": 134.4888,
      "duration": 0.1245,
      "velocity": 114,
      "chip": "ym2612"
    },
    {
      "channel": 1,
      "note": 57,
      "start": 134.4889,
      "duration": 0.498,
      "velocity": 93,
      "chip": "ym2612"
    },
    {
      "channel": 0,
      "note": 54,
      "start": 134.6133,
      "duration": 0.0309,
      "velocity": 114,
      "chip": "ym2612"
    },
    {
      "channel": 0,
      "note": 98,
      "start": 134.7378,
      "duration": 0.1245,
      "velocity": 114,
      "chip": "ym2612"
    },
    {
      "channel": 0,
      "note": 54,
      "start": 134.8623,
      "duration": 0.0309,
      "velocity": 114,
      "chip": "ym2612"
    },
    {
      "channel": 0,
      "note": 98,
      "start": 134.9868,
      "duration": 0.0154,
      "velocity": 127,
      "chip": "ym2612"
    },
    {
      "channel": 1,
      "note": 52,
      "start": 134.9869,
      "duration": 0.498,
      "velocity": 93,
      "chip": "ym2612"
    },
    {
      "channel": 0,
      "note": 76,
      "start": 135.0022,
      "duration": 0.1091,
      "velocity": 114,
      "chip": "ym2612"
    },
    {
      "channel": 0,
      "note": 67,
      "start": 135.1113,
      "duration": 0.0309,
      "velocity": 114,
      "chip": "ym2612"
    },
    {
      "channel": 0,
      "note": 98,
      "start": 135.2358,
      "duration": 0.249,
      "velocity": 123,
      "chip": "ym2612"
    },
    {
      "channel": 0,
      "note": 98,
      "start": 135.4848,
      "duration": 0.1245,
      "velocity": 114,
      "chip": "ym2612"
    },
    {
      "channel": 1,
      "note": 55,
      "start": 135.485,
      "duration": 0.3735,
      "velocity": 93,
      "chip": "ym2612"
    },
    {
      "channel": 0,
      "note": 54,
      "start": 135.6093,
      "duration": 0.0309,
      "velocity": 114,
      "chip": "ym2612"
    },
    {
      "channel": 0,
      "note": 98,
      "start": 135.7338,
      "duration": 0.0309,
      "velocity": 114,
      "chip": "ym2612"
    },
    {
      "channel": 0,
      "note": 98,
      "start": 135.8583,
      "duration": 0.0155,
      "velocity": 127,
      "chip": "ym2612"
    },
    {
      "channel": 1,
      "note": 57,
      "start": 135.8585,
      "duration": 0.062,
      "velocity": 93,
      "chip": "ym2612"
    },
    {
      "channel": 0,
      "note": 76,
      "start": 135.8739,
      "duration": 0.109,
      "velocity": 114,
      "chip": "ym2612"
    },
    {
      "channel": 0,
      "note": 67,
      "start": 135.9828,
      "duration": 0.0309,
      "velocity": 114,
      "chip": "ym2612"
    },
    {
      "channel": 0,
      "note": 98,
      "start": 136.1074,
      "duration": 0.1244,
      "velocity": 123,
      "chip": "ym2612"
    },
    {
      "channel": 1,
      "note": 69,
      "start": 136.1075,
      "duration": 0.0308,
      "velocity": 93,
      "chip": "ym2612"
    },
    {
      "channel": 0,
      "note": 54,
      "start": 136.2318,
      "duration": 0.1245,
      "velocity": 114,
      "chip": "ym2612"
    },
    {
      "channel": 1,
      "note": 57,
      "start": 136.232,
      "duration": 0.249,
      "velocity": 93,
      "chip": "ym2612"
    },
    {
      "channel": 0,
      "note": 54,
      "start": 136.3563,
      "duration": 0.0309,
      "velocity": 114,
      "chip": "ym2612"
    },
    {
      "channel": 0,
      "note": 98,
      "start": 136.4808,
      "duration": 0.1245,
      "velocity": 114,
      "chip": "ym2612"
    },
    {
      "channel": 1,
      "note": 57,
      "start": 136.481,
      "duration": 0.3735,
      "velocity": 93,
      "chip": "ym2612"
    },
    {
      "channel": 0,
      "note": 54,
      "start": 136.6054,
      "duration": 0.0309,
      "velocity": 114,
      "chip": "ym2612"
    },
    {
      "channel": 0,
      "note": 98,
      "start": 136.7299,
      "duration": 0.1245,
      "velocity": 114,
      "chip": "ym2612"
    },
    {
      "channel": 0,
      "note": 54,
      "start": 136.8544,
      "duration": 0.0309,
      "velocity": 114,
      "chip": "ym2612"
    },
    {
      "channel": 0,
      "note": 98,
      "start": 136.9789,
      "duration": 0.0154,
      "velocity": 127,
      "chip": "ym2612"
    },
    {
      "channel": 1,
      "note": 64,
      "start": 136.979,
      "duration": 0.3732,
      "velocity": 93,
      "chip": "ym2612"
    },
    {
      "channel": 0,
      "note": 76,
      "start": 136.9942,
      "duration": 0.1091,
      "velocity": 114,
      "chip": "ym2612"
    },
    {
      "channel": 0,
      "note": 67,
      "start": 137.1034,
      "duration": 0.0309,
      "velocity": 114,
      "chip": "ym2612"
    },
    {
      "channel": 0,
      "note": 98,
      "start": 137.2279,
      "duration": 0.249,
      "velocity": 123,
      "chip": "ym2612"
    },
    {
      "channel": 0,
      "note": 98,
      "start": 137.4769,
      "duration": 0.1245,
      "velocity": 114,
      "chip": "ym2612"
    },
    {
      "channel": 1,
      "note": 64,
      "start": 137.4772,
      "duration": 0.3734,
      "velocity": 93,
      "chip": "ym2612"
    },
    {
      "channel": 2,
      "note": 73,
      "start": 137.4776,
      "duration": 0.9956,
      "velocity": 103,
      "chip": "ym2612"
    },
    {
      "channel": 0,
      "note": 54,
      "start": 137.6014,
      "duration": 0.0309,
      "velocity": 114,
      "chip": "ym2612"
    },
    {
      "channel": 4,
      "note": 73,
      "start": 137.6171,
      "duration": 0.996,
      "velocity": 103,
      "chip": "ym2612"
    },
    {
      "channel": 0,
      "note": 98,
      "start": 137.7259,
      "duration": 0.0309,
      "velocity": 114,
      "chip": "ym2612"
    },
    {
      "channel": 0,
      "note": 98,
      "start": 137.8504,
      "duration": 0.0154,
      "velocity": 127,
      "chip": "ym2612"
    },
    {
      "channel": 1,
      "note": 57,
      "start": 137.8505,
      "duration": 0.062,
      "velocity": 93,
      "chip": "ym2612"
    },
    {
      "channel": 0,
      "note": 76,
      "start": 137.8658,
      "duration": 0.1091,
      "velocity": 114,
      "chip": "ym2612"
    },
    {
      "channel": 0,
      "note": 67,
      "start": 137.9749,
      "duration": 0.0309,
      "velocity": 114,
      "chip": "ym2612"
    },
    {
      "channel": 0,
      "note": 98,
      "start": 138.0994,
      "duration": 0.1246,
      "velocity": 123,
      "chip": "ym2612"
    },
    {
      "channel": 1,
      "note": 69,
      "start": 138.0995,
      "duration": 0.0309,
      "velocity": 93,
      "chip": "ym2612"
    },
    {
      "channel": 0,
      "note": 54,
      "start": 138.2241,
      "duration": 0.1244,
      "velocity": 114,
      "chip": "ym2612"
    },
    {
      "channel": 1,
      "note": 57,
      "start": 138.2242,
      "duration": 0.2489,
      "velocity": 93,
      "chip": "ym2612"
    },
    {
      "channel": 0,
      "note": 54,
      "start": 138.3484,
      "duration": 0.0309,
      "velocity": 114,
      "chip": "ym2612"
    },
    {
      "channel": 0,
      "note": 98,
      "start": 138.4729,
      "duration": 0.1245,
      "velocity": 114,
      "chip": "ym2612"
    },
    {
      "channel": 1,
      "note": 57,
      "start": 138.4731,
      "duration": 0.498,
      "velocity": 93,
      "chip": "ym2612"
    },
    {
      "channel": 2,
      "note": 84,
      "start": 138.4732,
      "duration": 0.9961,
      "velocity": 103,
      "chip": "ym2612"
    },
    {
      "channel": 0,
      "note": 54,
      "start": 138.5974,
      "duration": 0.0309,
      "velocity": 114,
      "chip": "ym2612"
    },
    {
      "channel": 4,
      "note": 84,
      "start": 138.6131,
      "duration": 0.996,
      "velocity": 103,
      "chip": "ym2612"
    },
    {
      "channel": 0,
      "note": 98,
      "start": 138.7219,
      "duration": 0.1245,
      "velocity": 114,
      "chip": "ym2612"
    },
    {
      "channel": 0,
      "note": 54,
      "start": 138.8464,
      "duration": 0.0309,
      "velocity": 114,
      "chip": "ym2612"
    },
    {
      "channel": 0,
      "note": 98,
      "start": 138.971,
      "duration": 0.0154,
      "velocity": 127,
      "chip": "ym2612"
    },
    {
      "channel": 1,
      "note": 52,
      "start": 138.9711,
      "duration": 0.498,
      "velocity": 93,
      "chip": "ym2612"
    },
    {
      "channel": 0,
      "note": 76,
      "start": 138.9863,
      "duration": 0.1091,
      "velocity": 114,
      "chip": "ym2612"
    },
    {
      "channel": 0,
      "note": 67,
      "start": 139.0954,
      "duration": 0.0309,
      "velocity": 114,
      "chip": "ym2612"
    },
    {
      "channel": 0,
      "note": 98,
      "start": 139.22,
      "duration": 0.249,
      "velocity": 123,
      "chip": "ym2612"
    },
    {
      "channel": 0,
      "note": 98,
      "start": 139.469,
      "duration": 0.1245,
      "velocity": 114,
      "chip": "ym2612"
    },
    {
      "channel": 1,
      "note": 55,
      "start": 139.4691,
      "duration": 0.3735,
      "velocity": 93,
      "chip": "ym2612"
    },
    {
      "channel": 2,
      "note": 83,
      "start": 139.4693,
      "duration": 0.4979,
      "velocity": 103,
      "chip": "ym2612"
    },
    {
      "channel": 0,
      "note": 54,
      "start": 139.5935,
      "duration": 0.0309,
      "velocity": 114,
      "chip": "ym2612"
    },
    {
      "channel": 4,
      "note": 83,
      "start": 139.6091,
      "duration": 0.4982,
      "velocity": 103,
      "chip": "ym2612"
    },
    {
      "channel": 0,
      "note": 98,
      "start": 139.718,
      "duration": 0.0309,
      "velocity": 114,
      "chip": "ym2612"
    },
    {
      "channel": 0,
      "note": 98,
      "start": 139.8425,
      "duration": 0.0154,
      "velocity": 127,
      "chip": "ym2612"
    },
    {
      "channel": 1,
      "note": 57,
      "start": 139.8426,
      "duration": 0.062,
      "velocity": 93,
      "chip": "ym2612"
    },
    {
      "channel": 0,
      "note": 76,
      "start": 139.8578,
      "duration": 0.1091,
      "velocity": 114,
      "chip": "ym2612"
    },
    {
      "channel": 0,
      "note": 67,
      "start": 139.967,
      "duration": 0.0309,
      "velocity": 114,
      "chip": "ym2612"
    },
    {
      "channel": 2,
      "note": 79,
      "start": 139.9672,
      "duration": 0.498,
      "velocity": 103,
      "chip": "ym2612"
    },
    {
      "channel": 0,
      "note": 98,
      "start": 140.0915,
      "duration": 0.1245,
      "velocity": 123,
      "chip": "ym2612"
    },
    {
      "channel": 1,
      "note": 69,
      "start": 140.0916,
      "duration": 0.0309,
      "velocity": 93,
      "chip": "ym2612"
    },
    {
      "channel": 4,
      "note": 79,
      "start": 140.1073,
      "duration": 0.4978,
      "velocity": 103,
      "chip": "ym2612"
    },
    {
      "channel": 0,
      "note": 54,
      "start": 140.216,
      "duration": 0.1247,
      "velocity": 114,
      "chip": "ym2612"
    },
    {
      "channel": 1,
      "note": 57,
      "start": 140.2161,
      "duration": 0.249,
      "velocity": 93,
      "chip": "ym2612"
    },
    {
      "channel": 0,
      "note": 54,
      "start": 140.3407,
      "duration": 0.0307,
      "velocity": 114,
      "chip": "ym2612"
    },
    {
      "channel": 0,
      "note": 98,
      "start": 140.465,
      "duration": 0.1245,
      "velocity": 114,
      "chip": "ym2612"
    },
    {
      "channel": 1,
      "note": 57,
      "start": 140.4651,
      "duration": 0.3735,
      "velocity": 93,
      "chip": "ym2612"
    },
    {
      "channel": 2,
      "note": 76,
      "start": 140.4653,
      "duration": 0.498,
      "velocity": 103,
      "chip": "ym2612"
    },
    {
      "channel": 0,
      "note": 54,
      "start": 140.5895,
      "duration": 0.0309,
      "velocity": 114,
      "chip": "ym2612"
    },
    {
      "channel": 4,
      "note": 76,
      "start": 140.6051,
      "duration": 0.498,
      "velocity": 103,
      "chip": "ym2612"
    },
    {
      "channel": 0,
      "note": 98,
      "start": 140.714,
      "duration": 0.1245,
      "velocity": 114,
      "chip": "ym2612"
    },
    {
      "channel": 0,
      "note": 54,
      "start": 140.8385,
      "duration": 0.0309,
      "velocity": 114,
      "chip": "ym2612"
    },
    {
      "channel": 0,
      "note": 98,
      "start": 140.963,
      "duration": 0.0154,
      "velocity": 127,
      "chip": "ym2612"
    },
    {
      "channel": 1,
      "note": 64,
      "start": 140.9632,
      "duration": 0.3732,
      "velocity": 93,
      "chip": "ym2612"
    },
    {
      "channel": 2,
      "note": 81,
      "start": 140.9633,
      "duration": 0.249,
      "velocity": 103,
      "chip": "ym2612"
    },
    {
      "channel": 0,
      "note": 76,
      "start": 140.9784,
      "duration": 0.1091,
      "velocity": 114,
      "chip": "ym2612"
    },
    {
      "channel": 0,
      "note": 67,
      "start": 141.0875,
      "duration": 0.0309,
      "velocity": 114,
      "chip": "ym2612"
    },
    {
      "channel": 4,
      "note": 81,
      "start": 141.1032,
      "duration": 0.249,
      "velocity": 103,
      "chip": "ym2612"
    },
    {
      "channel": 0,
      "note": 98,
      "start": 141.212,
      "duration": 0.249,
      "velocity": 123,
      "chip": "ym2612"
    },
    {
      "channel": 2,
      "note": 81,
      "start": 141.2122,
      "duration": 0.2491,
      "velocity": 103,
      "chip": "ym2612"
    },
    {
      "channel": 4,
      "note": 81,
      "start": 141.3522,
      "duration": 0.249,
      "velocity": 103,
      "chip": "ym2612"
    },
    {
      "channel": 0,
      "note": 98,
      "start": 141.4611,
      "duration": 0.1245,
      "velocity": 114,
      "chip": "ym2612"
    },
    {
      "channel": 1,
      "note": 64,
      "start": 141.4612,
      "duration": 0.3735,
      "velocity": 93,
      "chip": "ym2612"
    },
    {
      "channel": 2,
      "note": 83,
      "start": 141.4613,
      "duration": 0.9962,
      "velocity": 103,
      "chip": "ym2612"
    },
    {
      "channel": 0,
      "note": 54,
      "start": 141.5856,
      "duration": 0.0309,
      "velocity": 114,
      "chip": "ym2612"
    },
    {
      "channel": 4,
      "note": 83,
      "start": 141.6012,
      "duration": 0.996,
      "velocity": 103,
      "chip": "ym2612"
    },
    {
      "channel": 0,
      "note": 98,
      "start": 141.71,
      "duration": 0.0309,
      "velocity": 114,
      "chip": "ym2612"
    },
    {
      "channel": 0,
      "note": 98,
      "start": 141.8346,
      "duration": 0.0154,
      "velocity": 127,
      "chip": "ym2612"
    },
    {
      "channel": 1,
      "note": 57,
      "start": 141.8347,
      "duration": 0.062,
      "velocity": 93,
      "chip": "ym2612"
    },
    {
      "channel": 0,
      "note": 76,
      "start": 141.8499,
      "duration": 0.1091,
      "velocity": 114,
      "chip": "ym2612"
    },
    {
      "channel": 0,
      "note": 67,
      "start": 141.959,
      "duration": 0.0309,
      "velocity": 114,
      "chip": "ym2612"
    },
    {
      "channel": 0,
      "note": 98,
      "start": 142.0836,
      "duration": 0.1245,
      "velocity": 123,
      "chip": "ym2612"
    },
    {
      "channel": 1,
      "note": 69,
      "start": 142.0837,
      "duration": 0.0309,
      "velocity": 93,
      "chip": "ym2612"
    },
    {
      "channel": 0,
      "note": 54,
      "start": 142.2081,
      "duration": 0.1245,
      "velocity": 114,
      "chip": "ym2612"
    },
    {
      "channel": 1,
      "note": 57,
      "start": 142.2082,
      "duration": 0.2492,
      "velocity": 93,
      "chip": "ym2612"
    },
    {
      "channel": 0,
      "note": 54,
      "start": 142.3326,
      "duration": 0.0309,
      "velocity": 114,
      "chip": "ym2612"
    },
    {
      "channel": 0,
      "note": 98,
      "start": 142.4573,
      "duration": 0.1243,
      "velocity": 114,
      "chip": "ym2612"
    },
    {
      "channel": 1,
      "note": 57,
      "start": 142.4574,
      "duration": 0.4978,
      "velocity": 93,
      "chip": "ym2612"
    },
    {
      "channel": 2,
      "note": 84,
      "start": 142.4575,
      "duration": 0.9959,
      "velocity": 103,
      "chip": "ym2612"
    },
    {
      "channel": 0,
      "note": 54,
      "start": 142.5816,
      "duration": 0.0309,
      "velocity": 114,
      "chip": "ym2612"
    },
    {
      "channel": 4,
      "note": 84,
      "start": 142.5972,
      "duration": 0.996,
      "velocity": 103,
      "chip": "ym2612"
    },
    {
      "channel": 0,
      "note": 98,
      "start": 142.7061,
      "duration": 0.1245,
      "velocity": 114,
      "chip": "ym2612"
    },
    {
      "channel": 0,
      "note": 54,
      "start": 142.8306,
      "duration": 0.0309,
      "velocity": 114,
      "chip": "ym2612"
    },
    {
      "channel": 0,
      "note": 98,
      "start": 142.9551,
      "duration": 0.0154,
      "velocity": 127,
      "chip": "ym2612"
    },
    {
      "channel": 1,
      "note": 52,
      "start": 142.9552,
      "duration": 0.498,
      "velocity": 93,
      "chip": "ym2612"
    },
    {
      "channel": 0,
      "note": 76,
      "start": 142.9705,
      "duration": 0.1091,
      "velocity": 114,
      "chip": "ym2612"
    },
    {
      "channel": 0,
      "note": 67,
      "start": 143.0796,
      "duration": 0.0309,
      "velocity": 114,
      "chip": "ym2612"
    },
    {
      "channel": 0,
      "note": 98,
      "start": 143.2041,
      "duration": 0.249,
      "velocity": 123,
      "chip": "ym2612"
    },
    {
      "channel": 0,
      "note": 98,
      "start": 143.4531,
      "duration": 0.1245,
      "velocity": 114,
      "chip": "ym2612"
    },
    {
      "channel": 1,
      "note": 55,
      "start": 143.4533,
      "duration": 0.3735,
      "velocity": 93,
      "chip": "ym2612"
    },
    {
      "channel": 2,
      "note": 86,
      "start": 143.4534,
      "duration": 0.996,
      "velocity": 103,
      "chip": "ym2612"
    },
    {
      "channel": 0,
      "note": 54,
      "start": 143.5776,
      "duration": 0.0309,
      "velocity": 114,
      "chip": "ym2612"
    },
    {
      "channel": 4,
      "note": 86,
      "start": 143.5933,
      "duration": 0.996,
      "velocity": 103,
      "chip": "ym2612"
    },
    {
      "channel": 0,
      "note": 98,
      "start": 143.7021,
      "duration": 0.0309,
      "velocity": 114,
      "chip": "ym2612"
    },
    {
      "channel": 0,
      "note": 98,
      "start": 143.8266,
      "duration": 0.0154,
      "velocity": 127,
      "chip": "ym2612"
    },
    {
      "channel": 1,
      "note": 57,
      "start": 143.8268,
      "duration": 0.062,
      "velocity": 93,
      "chip": "ym2612"
    },
    {
      "channel": 0,
      "note": 76,
      "start": 143.842,
      "duration": 0.1091,
      "velocity": 114,
      "chip": "ym2612"
    },
    {
      "channel": 0,
      "note": 67,
      "start": 143.9511,
      "duration": 0.0309,
      "velocity": 114,
      "chip": "ym2612"
    },
    {
      "channel": 0,
      "note": 98,
      "start": 144.0756,
      "duration": 0.1245,
      "velocity": 123,
      "chip": "ym2612"
    },
    {
      "channel": 1,
      "note": 69,
      "start": 144.0758,
      "duration": 0.0309,
      "velocity": 93,
      "chip": "ym2612"
    },
    {
      "channel": 0,
      "note": 54,
      "start": 144.2001,
      "duration": 0.1245,
      "velocity": 114,
      "chip": "ym2612"
    },
    {
      "channel": 1,
      "note": 57,
      "start": 144.2003,
      "duration": 0.249,
      "velocity": 93,
      "chip": "ym2612"
    },
    {
      "channel": 0,
      "note": 54,
      "start": 144.3246,
      "duration": 0.0309,
      "velocity": 114,
      "chip": "ym2612"
    },
    {
      "channel": 0,
      "note": 98,
      "start": 144.4492,
      "duration": 0.1246,
      "velocity": 114,
      "chip": "ym2612"
    },
    {
      "channel": 1,
      "note": 57,
      "start": 144.4493,
      "duration": 0.3735,
      "velocity": 93,
      "chip": "ym2612"
    },
    {
      "channel": 2,
      "note": 83,
      "start": 144.4494,
      "duration": 0.9961,
      "velocity": 103,
      "chip": "ym2612"
    },
    {
      "channel": 0,
      "note": 54,
      "start": 144.5738,
      "duration": 0.0307,
      "velocity": 114,
      "chip": "ym2612"
    },
    {
      "channel": 4,
      "note": 83,
      "start": 144.5893,
      "duration": 0.996,
      "velocity": 103,
      "chip": "ym2612"
    },
    {
      "channel": 0,
      "note": 98,
      "start": 144.6982,
      "duration": 0.1245,
      "velocity": 114,
      "chip": "ym2612"
    },
    {
      "channel": 0,
      "note": 54,
      "start": 144.8227,
      "duration": 0.0309,
      "velocity": 114,
      "chip": "ym2612"
    },
    {
      "channel": 0,
      "note": 98,
      "start": 144.9472,
      "duration": 0.0154,
      "velocity": 127,
      "chip": "ym2612"
    },
    {
      "channel": 1,
      "note": 64,
      "start": 144.9473,
      "duration": 0.3732,
      "velocity": 93,
      "chip": "ym2612"
    },
    {
      "channel": 0,
      "note": 76,
      "start": 144.9625,
      "duration": 0.1091,
      "velocity": 114,
      "chip": "ym2612"
    },
    {
      "channel": 0,
      "note": 67,
      "start": 145.0717,
      "duration": 0.0309,
      "velocity": 114,
      "chip": "ym2612"
    },
    {
      "channel": 0,
      "note": 98,
      "start": 145.1962,
      "duration": 0.249,
      "velocity": 123,
      "chip": "ym2612"
    },
    {
      "channel": 0,
      "note": 98,
      "start": 145.4452,
      "duration": 0.1245,
      "velocity": 114,
      "chip": "ym2612"
    },
    {
      "channel": 1,
      "note": 64,
      "start": 145.4454,
      "duration": 0.3734,
      "velocity": 93,
      "chip": "ym2612"
    },
    {
      "channel": 2,
      "note": 79,
      "start": 145.4455,
      "duration": 0.9959,
      "velocity": 103,
      "chip": "ym2612"
    },
    {
      "channel": 0,
      "note": 54,
      "start": 145.5697,
      "duration": 0.0309,
      "velocity": 114,
      "chip": "ym2612"
    },
    {
      "channel": 4,
      "note": 79,
      "start": 145.5854,
      "duration": 0.996,
      "velocity": 103,
      "chip": "ym2612"
    },
    {
      "channel": 0,
      "note": 98,
      "start": 145.6942,
      "duration": 0.0309,
      "velocity": 114,
      "chip": "ym2612"
    },
    {
      "channel": 0,
      "note": 98,
      "start": 145.8187,
      "duration": 0.0154,
      "velocity": 127,
      "chip": "ym2612"
    },
    {
      "channel": 1,
      "note": 57,
      "start": 145.8188,
      "duration": 0.062,
      "velocity": 93,
      "chip": "ym2612"
    },
    {
      "channel": 0,
      "note": 76,
      "start": 145.8341,
      "duration": 0.1091,
      "velocity": 114,
      "chip": "ym2612"
    },
    {
      "channel": 0,
      "note": 67,
      "start": 145.9432,
      "duration": 0.0309,
      "velocity": 114,
      "chip": "ym2612"
    },
    {
      "channel": 0,
      "note": 98,
      "start": 146.0677,
      "duration": 0.1245,
      "velocity": 123,
      "chip": "ym2612"
    },
    {
      "channel": 1,
      "note": 69,
      "start": 146.0678,
      "duration": 0.0309,
      "velocity": 93,
      "chip": "ym2612"
    },
    {
      "channel": 0,
      "note": 54,
      "start": 146.1922,
      "duration": 0.1245,
      "velocity": 114,
      "chip": "ym2612"
    },
    {
      "channel": 1,
      "note": 57,
      "start": 146.1923,
      "duration": 0.249,
      "velocity": 93,
      "chip": "ym2612"
    },
    {
      "channel": 0,
      "note": 54,
      "start": 146.3167,
      "duration": 0.0309,
      "velocity": 114,
      "chip": "ym2612"
    },
    {
      "channel": 0,
      "note": 98,
      "start": 146.4412,
      "duration": 0.1245,
      "velocity": 114,
      "chip": "ym2612"
    },
    {
      "channel": 1,
      "note": 57,
      "start": 146.4414,
      "duration": 0.498,
      "velocity": 93,
      "chip": "ym2612"
    },
    {
      "channel": 2,
      "note": 84,
      "start": 146.4415,
      "duration": 0.996,
      "velocity": 103,
      "chip": "ym2612"
    },
    {
      "channel": 0,
      "note": 54,
      "start": 146.5657,
      "duration": 0.0309,
      "velocity": 114,
      "chip": "ym2612"
    },
    {
      "channel": 4,
      "note": 84,
      "start": 146.5814,
      "duration": 0.996,
      "velocity": 103,
      "chip": "ym2612"
    },
    {
      "channel": 0,
      "note": 98,
      "start": 146.6904,
      "duration": 0.1243,
      "velocity": 114,
      "chip": "ym2612"
    },
    {
      "channel": 0,
      "note": 54,
      "start": 146.8147,
      "duration": 0.0309,
      "velocity": 114,
      "chip": "ym2612"
    },
    {
      "channel": 0,
      "note": 98,
      "start": 146.9393,
      "duration": 0.0154,
      "velocity": 127,
      "chip": "ym2612"
    },
    {
      "channel": 1,
      "note": 52,
      "start": 146.9394,
      "duration": 0.498,
      "velocity": 93,
      "chip": "ym2612"
    },
    {
      "channel": 0,
      "note": 76,
      "start": 146.9546,
      "duration": 0.1091,
      "velocity": 114,
      "chip": "ym2612"
    },
    {
      "channel": 0,
      "note": 67,
      "start": 147.0638,
      "duration": 0.0309,
      "velocity": 114,
      "chip": "ym2612"
    },
    {
      "channel": 0,
      "note": 98,
      "start": 147.1883,
      "duration": 0.249,
      "velocity": 123,
      "chip": "ym2612"
    },
    {
      "channel": 0,
      "note": 98,
      "start": 147.4373,
      "duration": 0.1245,
      "velocity": 114,
      "chip": "ym2612"
    },
    {
      "channel": 1,
      "note": 55,
      "start": 147.4374,
      "duration": 0.3735,
      "velocity": 93,
      "chip": "ym2612"
    },
    {
      "channel": 2,
      "note": 83,
      "start": 147.4376,
      "duration": 0.4979,
      "velocity": 103,
      "chip": "ym2612"
    },
    {
      "channel": 0,
      "note": 54,
      "start": 147.5618,
      "duration": 0.0309,
      "velocity": 114,
      "chip": "ym2612"
    },
    {
      "channel": 4,
      "note": 83,
      "start": 147.5774,
      "duration": 0.498,
      "velocity": 103,
      "chip": "ym2612"
    },
    {
      "channel": 0,
      "note": 98,
      "start": 147.6863,
      "duration": 0.0309,
      "velocity": 114,
      "chip": "ym2612"
    },
    {
      "channel": 0,
      "note": 98,
      "start": 147.8108,
      "duration": 0.0154,
      "velocity": 127,
      "chip": "ym2612"
    },
    {
      "channel": 1,
      "note": 57,
      "start": 147.8109,
      "duration": 0.062,
      "velocity": 93,
      "chip": "ym2612"
    },
    {
      "channel": 0,
      "note": 76,
      "start": 147.8261,
      "duration": 0.1091,
      "velocity": 114,
      "chip": "ym2612"
    },
    {
      "channel": 0,
      "note": 67,
      "start": 147.9353,
      "duration": 0.0309,
      "velocity": 114,
      "chip": "ym2612"
    },
    {
      "channel": 2,
      "note": 79,
      "start": 147.9355,
      "duration": 0.4981,
      "velocity": 103,
      "chip": "ym2612"
    },
    {
      "channel": 0,
      "note": 98,
      "start": 148.0598,
      "duration": 0.1245,
      "velocity": 123,
      "chip": "ym2612"
    },
    {
      "channel": 1,
      "note": 69,
      "start": 148.0599,
      "duration": 0.0309,
      "velocity": 93,
      "chip": "ym2612"
    },
    {
      "channel": 4,
      "note": 79,
      "start": 148.0755,
      "duration": 0.498,
      "velocity": 103,
      "chip": "ym2612"
    },
    {
      "channel": 0,
      "note": 54,
      "start": 148.1843,
      "duration": 0.1245,
      "velocity": 114,
      "chip": "ym2612"
    },
    {
      "channel": 1,
      "note": 57,
      "start": 148.1844,
      "duration": 0.249,
      "velocity": 93,
      "chip": "ym2612"
    },
    {
      "channel": 0,
      "note": 54,
      "start": 148.3088,
      "duration": 0.0309,
      "velocity": 114,
      "chip": "ym2612"
    },
    {
      "channel": 0,
      "note": 98,
      "start": 148.4333,
      "duration": 0.1245,
      "velocity": 114,
      "chip": "ym2612"
    },
    {
      "channel": 1,
      "note": 57,
      "start": 148.4334,
      "duration": 0.3737,
      "velocity": 93,
      "chip": "ym2612"
    },
    {
      "channel": 2,
      "note": 76,
      "start": 148.4336,
      "duration": 0.498,
      "velocity": 103,
      "chip": "ym2612"
    },
    {
      "channel": 0,
      "note": 54,
      "start": 148.5578,
      "duration": 0.0309,
      "velocity": 114,
      "chip": "ym2612"
    },
    {
      "channel": 4,
      "note": 76,
      "start": 148.5735,
      "duration": 0.498,
      "velocity": 103,
      "chip": "ym2612"
    },
    {
      "channel": 0,
      "note": 98,
      "start": 148.6823,
      "duration": 0.1245,
      "velocity": 114,
      "chip": "ym2612"
    },
    {
      "channel": 0,
      "note": 54,
      "start": 148.8068,
      "duration": 0.0309,
      "velocity": 114,
      "chip": "ym2612"
    },
    {
      "channel": 0,
      "note": 98,
      "start": 148.9313,
      "duration": 0.0154,
      "velocity": 127,
      "chip": "ym2612"
    },
    {
      "channel": 1,
      "note": 64,
      "start": 148.9315,
      "duration": 0.3732,
      "velocity": 93,
      "chip": "ym2612"
    },
    {
      "channel": 2,
      "note": 81,
      "start": 148.9316,
      "duration": 0.249,
      "velocity": 103,
      "chip": "ym2612"
    },
    {
      "channel": 0,
      "note": 76,
      "start": 148.9467,
      "duration": 0.1091,
      "velocity": 114,
      "chip": "ym2612"
    },
    {
      "channel": 0,
      "note": 67,
      "start": 149.0558,
      "duration": 0.0309,
      "velocity": 114,
      "chip": "ym2612"
    },
    {
      "channel": 4,
      "note": 81,
      "start": 149.0715,
      "duration": 0.249,
      "velocity": 103,
      "chip": "ym2612"
    },
    {
      "channel": 0,
      "note": 98,
      "start": 149.1803,
      "duration": 0.249,
      "velocity": 123,
      "chip": "ym2612"
    },
    {
      "channel": 2,
      "note": 81,
      "start": 149.1806,
      "duration": 0.249,
      "velocity": 103,
      "chip": "ym2612"
    },
    {
      "channel": 4,
      "note": 81,
      "start": 149.3205,
      "duration": 0.249,
      "velocity": 103,
      "chip": "ym2612"
    },
    {
      "channel": 0,
      "note": 98,
      "start": 149.4294,
      "duration": 0.1245,
      "velocity": 114,
      "chip": "ym2612"
    },
    {
      "channel": 1,
      "note": 64,
      "start": 149.4295,
      "duration": 0.3735,
      "velocity": 93,
      "chip": "ym2612"
    },
    {
      "channel": 2,
      "note": 83,
      "start": 149.4296,
      "duration": 0.996,
      "velocity": 103,
      "chip": "ym2612"
    },
    {
      "channel": 0,
      "note": 54,
      "start": 149.5539,
      "duration": 0.0309,
      "velocity": 114,
      "chip": "ym2612"
    },
    {
      "channel": 4,
      "note": 83,
      "start": 149.5695,
      "duration": 0.996,
      "velocity": 103,
      "chip": "ym2612"
    },
    {
      "channel": 0,
      "note": 98,
      "start": 149.6784,
      "duration": 0.0309,
      "velocity": 114,
      "chip": "ym2612"
    },
    {
      "channel": 0,
      "note": 98,
      "start": 149.8029,
      "duration": 0.0154,
      "velocity": 127,
      "chip": "ym2612"
    },
    {
      "channel": 1,
      "note": 57,
      "start": 149.803,
      "duration": 0.062,
      "velocity": 93,
      "chip": "ym2612"
    },
    {
      "channel": 0,
      "note": 76,
      "start": 149.8182,
      "duration": 0.1091,
      "velocity": 114,
      "chip": "ym2612"
    },
    {
      "channel": 0,
      "note": 67,
      "start": 149.9274,
      "duration": 0.0309,
      "velocity": 114,
      "chip": "ym2612"
    },
    {
      "channel": 0,
      "note": 98,
      "start": 150.0519,
      "duration": 0.1245,
      "velocity": 123,
      "chip": "ym2612"
    },
    {
      "channel": 1,
      "note": 69,
      "start": 150.052,
      "duration": 0.0309,
      "velocity": 93,
      "chip": "ym2612"
    },
    {
      "channel": 0,
      "note": 54,
      "start": 150.1764,
      "duration": 0.1245,
      "velocity": 114,
      "chip": "ym2612"
    },
    {
      "channel": 1,
      "note": 57,
      "start": 150.1765,
      "duration": 0.249,
      "velocity": 93,
      "chip": "ym2612"
    },
    {
      "channel": 0,
      "note": 54,
      "start": 150.3009,
      "duration": 0.0309,
      "velocity": 114,
      "chip": "ym2612"
    },
    {
      "channel": 0,
      "note": 98,
      "start": 150.4254,
      "duration": 0.1245,
      "velocity": 114,
      "chip": "ym2612"
    },
    {
      "channel": 1,
      "note": 57,
      "start": 150.4255,
      "duration": 0.498,
      "velocity": 93,
      "chip": "ym2612"
    },
    {
      "channel": 2,
      "note": 84,
      "start": 150.4256,
      "duration": 0.9961,
      "velocity": 103,
      "chip": "ym2612"
    },
    {
      "channel": 0,
      "note": 54,
      "start": 150.5499,
      "duration": 0.0309,
      "velocity": 114,
      "chip": "ym2612"
    },
    {
      "channel": 4,
      "note": 84,
      "start": 150.5655,
      "duration": 0.996,
      "velocity": 103,
      "chip": "ym2612"
    },
    {
      "channel": 0,
      "note": 98,
      "start": 150.6744,
      "duration": 0.1245,
      "velocity": 114,
      "chip": "ym2612"
    },
    {
      "channel": 0,
      "note": 54,
      "start": 150.7989,
      "duration": 0.0309,
      "velocity": 114,
      "chip": "ym2612"
    },
    {
      "channel": 0,
      "note": 98,
      "start": 150.9234,
      "duration": 0.0154,
      "velocity": 127,
      "chip": "ym2612"
    },
    {
      "channel": 1,
      "note": 52,
      "start": 150.9235,
      "duration": 0.498,
      "velocity": 93,
      "chip": "ym2612"
    },
    {
      "channel": 0,
      "note": 76,
      "start": 150.9388,
      "duration": 0.1091,
      "velocity": 114,
      "chip": "ym2612"
    },
    {
      "channel": 0,
      "note": 67,
      "start": 151.0479,
      "duration": 0.0309,
      "velocity": 114,
      "chip": "ym2612"
    },
    {
      "channel": 0,
      "note": 98,
      "start": 151.1724,
      "duration": 0.249,
      "velocity": 123,
      "chip": "ym2612"
    },
    {
      "channel": 0,
      "note": 98,
      "start": 151.4215,
      "duration": 0.1245,
      "velocity": 114,
      "chip": "ym2612"
    },
    {
      "channel": 1,
      "note": 55,
      "start": 151.4216,
      "duration": 0.3735,
      "velocity": 93,
      "chip": "ym2612"
    },
    {
      "channel": 2,
      "note": 86,
      "start": 151.4217,
      "duration": 1.743,
      "velocity": 103,
      "chip": "ym2612"
    },
    {
      "channel": 0,
      "note": 54,
      "start": 151.5459,
      "duration": 0.0309,
      "velocity": 114,
      "chip": "ym2612"
    },
    {
      "channel": 4,
      "note": 86,
      "start": 151.5616,
      "duration": 1.7431,
      "velocity": 103,
      "chip": "ym2612"
    },
    {
      "channel": 0,
      "note": 98,
      "start": 151.6704,
      "duration": 0.0309,
      "velocity": 114,
      "chip": "ym2612"
    },
    {
      "channel": 0,
      "note": 98,
      "start": 151.7949,
      "duration": 0.0154,
      "velocity": 127,
      "chip": "ym2612"
    },
    {
      "channel": 1,
      "note": 57,
      "start": 151.7951,
      "duration": 0.0622,
      "velocity": 93,
      "chip": "ym2612"
    },
    {
      "channel": 0,
      "note": 76,
      "start": 151.8103,
      "duration": 0.1091,
      "velocity": 114,
      "chip": "ym2612"
    },
    {
      "channel": 0,
      "note": 67,
      "start": 151.9194,
      "duration": 0.0309,
      "velocity": 114,
      "chip": "ym2612"
    },
    {
      "channel": 0,
      "note": 98,
      "start": 152.0439,
      "duration": 0.1245,
      "velocity": 123,
      "chip": "ym2612"
    },
    {
      "channel": 1,
      "note": 69,
      "start": 152.0441,
      "duration": 0.0309,
      "velocity": 93,
      "chip": "ym2612"
    },
    {
      "channel": 0,
      "note": 54,
      "start": 152.1684,
      "duration": 0.1245,
      "velocity": 114,
      "chip": "ym2612"
    },
    {
      "channel": 1,
      "note": 57,
      "start": 152.1686,
      "duration": 0.249,
      "velocity": 93,
      "chip": "ym2612"
    },
    {
      "channel": 0,
      "note": 54,
      "start": 152.2929,
      "duration": 0.0309,
      "velocity": 114,
      "chip": "ym2612"
    },
    {
      "channel": 0,
      "note": 98,
      "start": 152.4175,
      "duration": 0.1245,
      "velocity": 114,
      "chip": "ym2612"
    },
    {
      "channel": 1,
      "note": 57,
      "start": 152.4176,
      "duration": 0.3735,
      "velocity": 93,
      "chip": "ym2612"
    },
    {
      "channel": 0,
      "note": 54,
      "start": 152.542,
      "duration": 0.0309,
      "velocity": 114,
      "chip": "ym2612"
    },
    {
      "channel": 0,
      "note": 98,
      "start": 152.6665,
      "duration": 0.1245,
      "velocity": 114,
      "chip": "ym2612"
    },
    {
      "channel": 0,
      "note": 54,
      "start": 152.791,
      "duration": 0.0309,
      "velocity": 114,
      "chip": "ym2612"
    },
    {
      "channel": 0,
      "note": 98,
      "start": 152.9155,
      "duration": 0.0154,
      "velocity": 127,
      "chip": "ym2612"
    },
    {
      "channel": 1,
      "note": 64,
      "start": 152.9156,
      "duration": 0.3732,
      "velocity": 93,
      "chip": "ym2612"
    },
    {
      "channel": 0,
      "note": 76,
      "start": 152.9308,
      "duration": 0.1091,
      "velocity": 114,
      "chip": "ym2612"
    },
    {
      "channel": 0,
      "note": 67,
      "start": 153.04,
      "duration": 0.0309,
      "velocity": 114,
      "chip": "ym2612"
    },
    {
      "channel": 0,
      "note": 98,
      "start": 153.1645,
      "duration": 0.249,
      "velocity": 123,
      "chip": "ym2612"
    },
    {
      "channel": 0,
      "note": 98,
      "start": 153.4135,
      "duration": 0.1245,
      "velocity": 114,
      "chip": "ym2612"
    },
    {
      "channel": 1,
      "note": 64,
      "start": 153.4137,
      "duration": 0.1248,
      "velocity": 93,
      "chip": "ym2612"
    },
    {
      "channel": 2,
      "note": 88,
      "start": 153.414,
      "duration": 0.1244,
      "velocity": 99,
      "chip": "ym2612"
    },
    {
      "channel": 3,
      "note": 53,
      "start": 153.4144,
      "duration": 0.1241,
      "velocity": 111,
      "chip": "ym2612"
    },
    {
      "channel": 0,
      "note": 54,
      "start": 153.538,
      "duration": 0.0005,
      "velocity": 114,
      "chip": "ym2612"
    }
  ]
}