{
  "track_name": "12 - Star Base",
  "duration_sec": 45.82,
  "sample_rate": 44100,
  "note_count": 1019,
  "unique_pitches": 43,
  "pitch_range": 50,
  "avg_note_duration": 0.2028,
  "reconstruction_stats": {
    "notes_reconstructed": 1019,
    "keyon_events": 1019,
    "keyoff_events": 1012,
    "orphan_keyons": 5,
    "unique_pitches": 43,
    "pitch_range": 50,
    "avg_duration_sec": 0.2028
  },
  "metadata": {
    "source": "T\\Teenage Mutant Ninja Turtles - The Hyperstone Heist\\12 - Star Base.vgz"
  },
  "notes": [
    {
      "channel": 0,
      "note": 49,
      "start": 0.0559,
      "duration": 0.0204,
      "velocity": 111,
      "chip": "ym2612"
    },
    {
      "channel": 1,
      "note": 73,
      "start": 0.058,
      "duration": 0.4173,
      "velocity": 101,
      "chip": "ym2612"
    },
    {
      "channel": 2,
      "note": 49,
      "start": 0.06,
      "duration": 0.0166,
      "velocity": 108,
      "chip": "ym2612"
    },
    {
      "channel": 4,
      "note": 81,
      "start": 0.0639,
      "duration": 0.0085,
      "velocity": 119,
      "chip": "ym2612"
    },
    {
      "channel": 0,
      "note": 49,
      "start": 0.0803,
      "duration": 0.0154,
      "velocity": 111,
      "chip": "ym2612"
    },
    {
      "channel": 2,
      "note": 49,
      "start": 0.081,
      "duration": 0.0151,
      "velocity": 108,
      "chip": "ym2612"
    },
    {
      "channel": 3,
      "note": 73,
      "start": 0.0847,
      "duration": 0.4126,
      "velocity": 101,
      "chip": "ym2612"
    },
    {
      "channel": 0,
      "note": 49,
      "start": 0.0984,
      "duration": 0.0161,
      "velocity": 111,
      "chip": "ym2612"
    },
    {
      "channel": 2,
      "note": 61,
      "start": 0.0991,
      "duration": 0.0157,
      "velocity": 108,
      "chip": "ym2612"
    },
    {
      "channel": 4,
      "note": 81,
      "start": 0.1,
      "duration": 0.0088,
      "velocity": 119,
      "chip": "ym2612"
    },
    {
      "channel": 0,
      "note": 49,
      "start": 0.1172,
      "duration": 0.0462,
      "velocity": 111,
      "chip": "ym2612"
    },
    {
      "channel": 2,
      "note": 49,
      "start": 0.1179,
      "duration": 0.0458,
      "velocity": 108,
      "chip": "ym2612"
    },
    {
      "channel": 0,
      "note": 49,
      "start": 0.1973,
      "duration": 0.0136,
      "velocity": 111,
      "chip": "ym2612"
    },
    {
      "channel": 2,
      "note": 59,
      "start": 0.198,
      "duration": 0.0132,
      "velocity": 108,
      "chip": "ym2612"
    },
    {
      "channel": 4,
      "note": 81,
      "start": 0.1989,
      "duration": 0.0084,
      "velocity": 119,
      "chip": "ym2612"
    },
    {
      "channel": 0,
      "note": 49,
      "start": 0.2148,
      "duration": 0.0159,
      "velocity": 111,
      "chip": "ym2612"
    },
    {
      "channel": 2,
      "note": 49,
      "start": 0.2156,
      "duration": 0.0156,
      "velocity": 108,
      "chip": "ym2612"
    },
    {
      "channel": 0,
      "note": 49,
      "start": 0.2338,
      "duration": 0.0144,
      "velocity": 111,
      "chip": "ym2612"
    },
    {
      "channel": 2,
      "note": 58,
      "start": 0.2345,
      "duration": 0.0141,
      "velocity": 108,
      "chip": "ym2612"
    },
    {
      "channel": 4,
      "note": 81,
      "start": 0.2354,
      "duration": 0.0079,
      "velocity": 119,
      "chip": "ym2612"
    },
    {
      "channel": 0,
      "note": 49,
      "start": 0.2509,
      "duration": 0.0455,
      "velocity": 111,
      "chip": "ym2612"
    },
    {
      "channel": 2,
      "note": 49,
      "start": 0.2516,
      "duration": 0.0451,
      "velocity": 108,
      "chip": "ym2612"
    },
    {
      "channel": 0,
      "note": 49,
      "start": 0.3303,
      "duration": 0.0143,
      "velocity": 111,
      "chip": "ym2612"
    },
    {
      "channel": 2,
      "note": 59,
      "start": 0.3311,
      "duration": 0.0139,
      "velocity": 108,
      "chip": "ym2612"
    },
    {
      "channel": 4,
      "note": 81,
      "start": 0.332,
      "duration": 0.0085,
      "velocity": 119,
      "chip": "ym2612"
    },
    {
      "channel": 0,
      "note": 49,
      "start": 0.3488,
      "duration": 0.1019,
      "velocity": 111,
      "chip": "ym2612"
    },
    {
      "channel": 2,
      "note": 49,
      "start": 0.3495,
      "duration": 0.1016,
      "velocity": 108,
      "chip": "ym2612"
    },
    {
      "channel": 0,
      "note": 49,
      "start": 0.4679,
      "duration": 0.016,
      "velocity": 111,
      "chip": "ym2612"
    },
    {
      "channel": 2,
      "note": 58,
      "start": 0.4686,
      "duration": 0.0156,
      "velocity": 108,
      "chip": "ym2612"
    },
    {
      "channel": 4,
      "note": 81,
      "start": 0.4698,
      "duration": 0.0082,
      "velocity": 119,
      "chip": "ym2612"
    },
    {
      "channel": 0,
      "note": 49,
      "start": 0.4864,
      "duration": 0.0468,
      "velocity": 111,
      "chip": "ym2612"
    },
    {
      "channel": 1,
      "note": 72,
      "start": 0.4874,
      "duration": 0.0069,
      "velocity": 101,
      "chip": "ym2612"
    },
    {
      "channel": 2,
      "note": 49,
      "start": 0.4879,
      "duration": 0.0457,
      "velocity": 108,
      "chip": "ym2612"
    },
    {
      "channel": 1,
      "note": 73,
      "start": 0.4969,
      "duration": 0.0366,
      "velocity": 101,
      "chip": "ym2612"
    },
    {
      "channel": 0,
      "note": 49,
      "start": 0.5671,
      "duration": 0.018,
      "velocity": 111,
      "chip": "ym2612"
    },
    {
      "channel": 1,
      "note": 74,
      "start": 0.5677,
      "duration": 0.0056,
      "velocity": 101,
      "chip": "ym2612"
    },
    {
      "channel": 2,
      "note": 59,
      "start": 0.5683,
      "duration": 0.0172,
      "velocity": 108,
      "chip": "ym2612"
    },
    {
      "channel": 4,
      "note": 81,
      "start": 0.5692,
      "duration": 0.0094,
      "velocity": 119,
      "chip": "ym2612"
    },
    {
      "channel": 3,
      "note": 72,
      "start": 0.572,
      "duration": 0.0063,
      "velocity": 101,
      "chip": "ym2612"
    },
    {
      "channel": 1,
      "note": 75,
      "start": 0.578,
      "duration": 0.0073,
      "velocity": 101,
      "chip": "ym2612"
    },
    {
      "channel": 3,
      "note": 73,
      "start": 0.5811,
      "duration": 0.0085,
      "velocity": 101,
      "chip": "ym2612"
    },
    {
      "channel": 0,
      "note": 49,
      "start": 0.5883,
      "duration": 0.0182,
      "velocity": 111,
      "chip": "ym2612"
    },
    {
      "channel": 1,
      "note": 76,
      "start": 0.5888,
      "duration": 0.0078,
      "velocity": 101,
      "chip": "ym2612"
    },
    {
      "channel": 2,
      "note": 49,
      "start": 0.5894,
      "duration": 0.0174,
      "velocity": 108,
      "chip": "ym2612"
    },
    {
      "channel": 3,
      "note": 74,
      "start": 0.593,
      "duration": 0.0067,
      "velocity": 101,
      "chip": "ym2612"
    },
    {
      "channel": 1,
      "note": 77,
      "start": 0.5993,
      "duration": 0.0073,
      "velocity": 101,
      "chip": "ym2612"
    },
    {
      "channel": 3,
      "note": 75,
      "start": 0.6025,
      "duration": 0.0082,
      "velocity": 101,
      "chip": "ym2612"
    },
    {
      "channel": 0,
      "note": 49,
      "start": 0.6094,
      "duration": 0.0176,
      "velocity": 111,
      "chip": "ym2612"
    },
    {
      "channel": 1,
      "note": 78,
      "start": 0.61,
      "duration": 0.0079,
      "velocity": 101,
      "chip": "ym2612"
    },
    {
      "channel": 2,
      "note": 61,
      "start": 0.6106,
      "duration": 0.0168,
      "velocity": 108,
      "chip": "ym2612"
    },
    {
      "channel": 4,
      "note": 81,
      "start": 0.6115,
      "duration": 0.0097,
      "velocity": 119,
      "chip": "ym2612"
    },
    {
      "channel": 3,
      "note": 76,
      "start": 0.6161,
      "duration": 0.0048,
      "velocity": 101,
      "chip": "ym2612"
    },
    {
      "channel": 1,
      "note": 79,
      "start": 0.6206,
      "duration": 0.0066,
      "velocity": 101,
      "chip": "ym2612"
    },
    {
      "channel": 3,
      "note": 77,
      "start": 0.6254,
      "duration": 0.0067,
      "velocity": 101,
      "chip": "ym2612"
    },
    {
      "channel": 0,
      "note": 52,
      "start": 0.6306,
      "duration": 0.0324,
      "velocity": 111,
      "chip": "ym2612"
    },
    {
      "channel": 1,
      "note": 80,
      "start": 0.6313,
      "duration": 0.5475,
      "velocity": 101,
      "chip": "ym2612"
    },
    {
      "channel": 2,
      "note": 52,
      "start": 0.6318,
      "duration": 0.0356,
      "velocity": 108,
      "chip": "ym2612"
    },
    {
      "channel": 3,
      "note": 78,
      "start": 0.6374,
      "duration": 0.0058,
      "velocity": 101,
      "chip": "ym2612"
    },
    {
      "channel": 3,
      "note": 79,
      "start": 0.646,
      "duration": 0.0066,
      "velocity": 101,
      "chip": "ym2612"
    },
    {
      "channel": 4,
      "note": 81,
      "start": 0.6534,
      "duration": 0.0083,
      "velocity": 119,
      "chip": "ym2612"
    },
    {
      "channel": 3,
      "note": 80,
      "start": 0.6557,
      "duration": 0.5466,
      "velocity": 101,
      "chip": "ym2612"
    },
    {
      "channel": 0,
      "note": 52,
      "start": 0.6692,
      "duration": 0.0146,
      "velocity": 111,
      "chip": "ym2612"
    },
    {
      "channel": 2,
      "note": 52,
      "start": 0.6699,
      "duration": 0.0143,
      "velocity": 108,
      "chip": "ym2612"
    },
    {
      "channel": 0,
      "note": 52,
      "start": 0.6872,
      "duration": 0.0165,
      "velocity": 111,
      "chip": "ym2612"
    },
    {
      "channel": 2,
      "note": 61,
      "start": 0.6879,
      "duration": 0.0161,
      "velocity": 108,
      "chip": "ym2612"
    },
    {
      "channel": 4,
      "note": 81,
      "start": 0.6888,
      "duration": 0.0089,
      "velocity": 119,
      "chip": "ym2612"
    },
    {
      "channel": 0,
      "note": 52,
      "start": 0.7059,
      "duration": 0.0459,
      "velocity": 111,
      "chip": "ym2612"
    },
    {
      "channel": 2,
      "note": 52,
      "start": 0.7066,
      "duration": 0.0455,
      "velocity": 108,
      "chip": "ym2612"
    },
    {
      "channel": 0,
      "note": 52,
      "start": 0.7857,
      "duration": 0.0155,
      "velocity": 111,
      "chip": "ym2612"
    },
    {
      "channel": 2,
      "note": 59,
      "start": 0.7865,
      "duration": 0.0151,
      "velocity": 108,
      "chip": "ym2612"
    },
    {
      "channel": 4,
      "note": 81,
      "start": 0.7874,
      "duration": 0.0084,
      "velocity": 119,
      "chip": "ym2612"
    },
    {
      "channel": 0,
      "note": 52,
      "start": 0.8042,
      "duration": 0.0155,
      "velocity": 111,
      "chip": "ym2612"
    },
    {
      "channel": 2,
      "note": 52,
      "start": 0.805,
      "duration": 0.0151,
      "velocity": 108,
      "chip": "ym2612"
    },
    {
      "channel": 0,
      "note": 52,
      "start": 0.8231,
      "duration": 0.016,
      "velocity": 111,
      "chip": "ym2612"
    },
    {
      "channel": 2,
      "note": 58,
      "start": 0.8239,
      "duration": 0.0156,
      "velocity": 108,
      "chip": "ym2612"
    },
    {
      "channel": 4,
      "note": 81,
      "start": 0.8248,
      "duration": 0.0085,
      "velocity": 119,
      "chip": "ym2612"
    },
    {
      "channel": 0,
      "note": 52,
      "start": 0.8417,
      "duration": 0.0459,
      "velocity": 111,
      "chip": "ym2612"
    },
    {
      "channel": 2,
      "note": 52,
      "start": 0.8425,
      "duration": 0.0455,
      "velocity": 108,
      "chip": "ym2612"
    },
    {
      "channel": 0,
      "note": 52,
      "start": 0.9215,
      "duration": 0.0158,
      "velocity": 111,
      "chip": "ym2612"
    },
    {
      "channel": 2,
      "note": 59,
      "start": 0.9223,
      "duration": 0.0154,
      "velocity": 108,
      "chip": "ym2612"
    },
    {
      "channel": 4,
      "note": 81,
      "start": 0.9232,
      "duration": 0.0088,
      "velocity": 119,
      "chip": "ym2612"
    },
    {
      "channel": 0,
      "note": 52,
      "start": 0.9394,
      "duration": 0.1023,
      "velocity": 111,
      "chip": "ym2612"
    },
    {
      "channel": 2,
      "note": 52,
      "start": 0.9402,
      "duration": 0.102,
      "velocity": 108,
      "chip": "ym2612"
    },
    {
      "channel": 0,
      "note": 52,
      "start": 1.0589,
      "duration": 0.0161,
      "velocity": 111,
      "chip": "ym2612"
    },
    {
      "channel": 2,
      "note": 58,
      "start": 1.06,
      "duration": 0.0154,
      "velocity": 108,
      "chip": "ym2612"
    },
    {
      "channel": 4,
      "note": 81,
      "start": 1.0609,
      "duration": 0.0084,
      "velocity": 119,
      "chip": "ym2612"
    },
    {
      "channel": 0,
      "note": 52,
      "start": 1.0776,
      "duration": 0.0463,
      "velocity": 111,
      "chip": "ym2612"
    },
    {
      "channel": 2,
      "note": 52,
      "start": 1.0784,
      "duration": 0.0459,
      "velocity": 108,
      "chip": "ym2612"
    },
    {
      "channel": 0,
      "note": 52,
      "start": 1.1578,
      "duration": 0.015,
      "velocity": 111,
      "chip": "ym2612"
    },
    {
      "channel": 2,
      "note": 59,
      "start": 1.1585,
      "duration": 0.0146,
      "velocity": 108,
      "chip": "ym2612"
    },
    {
      "channel": 4,
      "note": 81,
      "start": 1.1594,
      "duration": 0.0088,
      "velocity": 119,
      "chip": "ym2612"
    },
    {
      "channel": 0,
      "note": 52,
      "start": 1.1755,
      "duration": 0.0144,
      "velocity": 111,
      "chip": "ym2612"
    },
    {
      "channel": 2,
      "note": 52,
      "start": 1.1762,
      "duration": 0.0141,
      "velocity": 108,
      "chip": "ym2612"
    },
    {
      "channel": 0,
      "note": 52,
      "start": 1.1937,
      "duration": 0.0159,
      "velocity": 111,
      "chip": "ym2612"
    },
    {
      "channel": 1,
      "note": 73,
      "start": 1.1943,
      "duration": 0.0155,
      "velocity": 101,
      "chip": "ym2612"
    },
    {
      "channel": 2,
      "note": 58,
      "start": 1.1949,
      "duration": 0.0152,
      "velocity": 108,
      "chip": "ym2612"
    },
    {
      "channel": 4,
      "note": 81,
      "start": 1.1958,
      "duration": 0.0084,
      "velocity": 119,
      "chip": "ym2612"
    },
    {
      "channel": 0,
      "note": 54,
      "start": 1.2157,
      "duration": 0.0291,
      "velocity": 111,
      "chip": "ym2612"
    },
    {
      "channel": 1,
      "note": 83,
      "start": 1.2163,
      "duration": 0.2188,
      "velocity": 101,
      "chip": "ym2612"
    },
    {
      "channel": 2,
      "note": 54,
      "start": 1.217,
      "duration": 0.0323,
      "velocity": 108,
      "chip": "ym2612"
    },
    {
      "channel": 3,
      "note": 73,
      "start": 1.2205,
      "duration": 0.0134,
      "velocity": 101,
      "chip": "ym2612"
    },
    {
      "channel": 4,
      "note": 81,
      "start": 1.2347,
      "duration": 0.0092,
      "velocity": 119,
      "chip": "ym2612"
    },
    {
      "channel": 3,
      "note": 83,
      "start": 1.2373,
      "duration": 0.2778,
      "velocity": 101,
      "chip": "ym2612"
    },
    {
      "channel": 0,
      "note": 54,
      "start": 1.2515,
      "duration": 0.0146,
      "velocity": 111,
      "chip": "ym2612"
    },
    {
      "channel": 2,
      "note": 54,
      "start": 1.2522,
      "duration": 0.0143,
      "velocity": 108,
      "chip": "ym2612"
    },
    {
      "channel": 0,
      "note": 54,
      "start": 1.2693,
      "duration": 0.0156,
      "velocity": 111,
      "chip": "ym2612"
    },
    {
      "channel": 2,
      "note": 61,
      "start": 1.2701,
      "duration": 0.0152,
      "velocity": 108,
      "chip": "ym2612"
    },
    {
      "channel": 4,
      "note": 81,
      "start": 1.271,
      "duration": 0.0083,
      "velocity": 119,
      "chip": "ym2612"
    },
    {
      "channel": 0,
      "note": 54,
      "start": 1.2889,
      "duration": 0.0448,
      "velocity": 111,
      "chip": "ym2612"
    },
    {
      "channel": 2,
      "note": 54,
      "start": 1.2897,
      "duration": 0.0444,
      "velocity": 108,
      "chip": "ym2612"
    },
    {
      "channel": 0,
      "note": 54,
      "start": 1.3676,
      "duration": 0.0159,
      "velocity": 111,
      "chip": "ym2612"
    },
    {
      "channel": 2,
      "note": 59,
      "start": 1.3684,
      "duration": 0.0156,
      "velocity": 108,
      "chip": "ym2612"
    },
    {
      "channel": 4,
      "note": 81,
      "start": 1.3693,
      "duration": 0.0089,
      "velocity": 119,
      "chip": "ym2612"
    },
    {
      "channel": 0,
      "note": 54,
      "start": 1.3863,
      "duration": 0.0152,
      "velocity": 111,
      "chip": "ym2612"
    },
    {
      "channel": 2,
      "note": 54,
      "start": 1.3871,
      "duration": 0.0147,
      "velocity": 108,
      "chip": "ym2612"
    },
    {
      "channel": 0,
      "note": 54,
      "start": 1.4046,
      "duration": 0.0148,
      "velocity": 111,
      "chip": "ym2612"
    },
    {
      "channel": 2,
      "note": 58,
      "start": 1.4054,
      "duration": 0.0144,
      "velocity": 108,
      "chip": "ym2612"
    },
    {
      "channel": 4,
      "note": 81,
      "start": 1.4063,
      "duration": 0.0086,
      "velocity": 119,
      "chip": "ym2612"
    },
    {
      "channel": 0,
      "note": 54,
      "start": 1.4239,
      "duration": 0.0446,
      "velocity": 111,
      "chip": "ym2612"
    },
    {
      "channel": 2,
      "note": 54,
      "start": 1.4246,
      "duration": 0.0443,
      "velocity": 108,
      "chip": "ym2612"
    },
    {
      "channel": 0,
      "note": 54,
      "start": 1.5024,
      "duration": 0.0166,
      "velocity": 111,
      "chip": "ym2612"
    },
    {
      "channel": 1,
      "note": 82,
      "start": 1.5031,
      "duration": 0.3027,
      "velocity": 101,
      "chip": "ym2612"
    },
    {
      "channel": 2,
      "note": 59,
      "start": 1.5037,
      "duration": 0.0157,
      "velocity": 108,
      "chip": "ym2612"
    },
    {
      "channel": 4,
      "note": 81,
      "start": 1.5049,
      "duration": 0.0084,
      "velocity": 119,
      "chip": "ym2612"
    },
    {
      "channel": 0,
      "note": 54,
      "start": 1.5214,
      "duration": 0.1022,
      "velocity": 111,
      "chip": "ym2612"
    },
    {
      "channel": 2,
      "note": 54,
      "start": 1.5225,
      "duration": 0.1015,
      "velocity": 108,
      "chip": "ym2612"
    },
    {
      "channel": 3,
      "note": 82,
      "start": 1.5257,
      "duration": 0.3594,
      "velocity": 101,
      "chip": "ym2612"
    },
    {
      "channel": 0,
      "note": 54,
      "start": 1.6408,
      "duration": 0.0155,
      "velocity": 111,
      "chip": "ym2612"
    },
    {
      "channel": 2,
      "note": 58,
      "start": 1.6415,
      "duration": 0.0151,
      "velocity": 108,
      "chip": "ym2612"
    },
    {
      "channel": 4,
      "note": 81,
      "start": 1.6424,
      "duration": 0.009,
      "velocity": 119,
      "chip": "ym2612"
    },
    {
      "channel": 0,
      "note": 54,
      "start": 1.6603,
      "duration": 0.0609,
      "velocity": 111,
      "chip": "ym2612"
    },
    {
      "channel": 2,
      "note": 54,
      "start": 1.661,
      "duration": 0.0606,
      "velocity": 108,
      "chip": "ym2612"
    },
    {
      "channel": 0,
      "note": 54,
      "start": 1.7384,
      "duration": 0.0159,
      "velocity": 111,
      "chip": "ym2612"
    },
    {
      "channel": 2,
      "note": 59,
      "start": 1.7391,
      "duration": 0.0156,
      "velocity": 108,
      "chip": "ym2612"
    },
    {
      "channel": 4,
      "note": 81,
      "start": 1.74,
      "duration": 0.0085,
      "velocity": 119,
      "chip": "ym2612"
    },
    {
      "channel": 0,
      "note": 54,
      "start": 1.7576,
      "duration": 0.014,
      "velocity": 111,
      "chip": "ym2612"
    },
    {
      "channel": 2,
      "note": 54,
      "start": 1.7583,
      "duration": 0.0136,
      "velocity": 108,
      "chip": "ym2612"
    },
    {
      "channel": 0,
      "note": 54,
      "start": 1.7749,
      "duration": 0.0153,
      "velocity": 111,
      "chip": "ym2612"
    },
    {
      "channel": 2,
      "note": 61,
      "start": 1.7757,
      "duration": 0.0149,
      "velocity": 108,
      "chip": "ym2612"
    },
    {
      "channel": 4,
      "note": 81,
      "start": 1.7766,
      "duration": 0.01,
      "velocity": 119,
      "chip": "ym2612"
    },
    {
      "channel": 0,
      "note": 49,
      "start": 1.7946,
      "duration": 0.1052,
      "velocity": 111,
      "chip": "ym2612"
    },
    {
      "channel": 2,
      "note": 49,
      "start": 1.7954,
      "duration": 0.0608,
      "velocity": 108,
      "chip": "ym2612"
    },
    {
      "channel": 1,
      "note": 61,
      "start": 1.8746,
      "duration": 0.0144,
      "velocity": 108,
      "chip": "ym2612"
    },
    {
      "channel": 2,
      "note": 49,
      "start": 1.8751,
      "duration": 0.0141,
      "velocity": 108,
      "chip": "ym2612"
    },
    {
      "channel": 1,
      "note": 61,
      "start": 1.8916,
      "duration": 0.0139,
      "velocity": 108,
      "chip": "ym2612"
    },
    {
      "channel": 2,
      "note": 49,
      "start": 1.8921,
      "duration": 0.0136,
      "velocity": 108,
      "chip": "ym2612"
    },
    {
      "channel": 1,
      "note": 73,
      "start": 1.9078,
      "duration": 0.0886,
      "velocity": 108,
      "chip": "ym2612"
    },
    {
      "channel": 2,
      "note": 68,
      "start": 1.9083,
      "duration": 0.0883,
      "velocity": 108,
      "chip": "ym2612"
    },
    {
      "channel": 3,
      "note": 61,
      "start": 1.9102,
      "duration": 0.0867,
      "velocity": 108,
      "chip": "ym2612"
    },
    {
      "channel": 1,
      "note": 61,
      "start": 2.0304,
      "duration": 0.1168,
      "velocity": 108,
      "chip": "ym2612"
    },
    {
      "channel": 2,
      "note": 49,
      "start": 2.031,
      "duration": 0.1164,
      "velocity": 108,
      "chip": "ym2612"
    },
    {
      "channel": 1,
      "note": 61,
      "start": 2.1645,
      "duration": 0.0132,
      "velocity": 108,
      "chip": "ym2612"
    },
    {
      "channel": 2,
      "note": 49,
      "start": 2.165,
      "duration": 0.0129,
      "velocity": 108,
      "chip": "ym2612"
    },
    {
      "channel": 1,
      "note": 73,
      "start": 2.1796,
      "duration": 0.0147,
      "velocity": 108,
      "chip": "ym2612"
    },
    {
      "channel": 2,
      "note": 68,
      "start": 2.1802,
      "duration": 0.0144,
      "velocity": 108,
      "chip": "ym2612"
    },
    {
      "channel": 3,
      "note": 61,
      "start": 2.1809,
      "duration": 0.0139,
      "velocity": 108,
      "chip": "ym2612"
    },
    {
      "channel": 1,
      "note": 61,
      "start": 2.1969,
      "duration": 0.0136,
      "velocity": 108,
      "chip": "ym2612"
    },
    {
      "channel": 2,
      "note": 49,
      "start": 2.1976,
      "duration": 0.0131,
      "velocity": 108,
      "chip": "ym2612"
    },
    {
      "channel": 1,
      "note": 61,
      "start": 2.2144,
      "duration": 0.1064,
      "velocity": 108,
      "chip": "ym2612"
    },
    {
      "channel": 2,
      "note": 49,
      "start": 2.2149,
      "duration": 0.1061,
      "velocity": 108,
      "chip": "ym2612"
    },
    {
      "channel": 0,
      "note": 59,
      "start": 2.3379,
      "duration": 0.0162,
      "velocity": 111,
      "chip": "ym2612"
    },
    {
      "channel": 1,
      "note": 71,
      "start": 2.3385,
      "duration": 0.0158,
      "velocity": 108,
      "chip": "ym2612"
    },
    {
      "channel": 2,
      "note": 66,
      "start": 2.3395,
      "duration": 0.0154,
      "velocity": 108,
      "chip": "ym2612"
    },
    {
      "channel": 3,
      "note": 59,
      "start": 2.3403,
      "duration": 0.0324,
      "velocity": 108,
      "chip": "ym2612"
    },
    {
      "channel": 0,
      "note": 49,
      "start": 2.3569,
      "duration": 0.0152,
      "velocity": 111,
      "chip": "ym2612"
    },
    {
      "channel": 1,
      "note": 61,
      "start": 2.3575,
      "duration": 0.0147,
      "velocity": 108,
      "chip": "ym2612"
    },
    {
      "channel": 2,
      "note": 49,
      "start": 2.3581,
      "duration": 0.0144,
      "velocity": 108,
      "chip": "ym2612"
    },
    {
      "channel": 0,
      "note": 58,
      "start": 2.3747,
      "duration": 0.017,
      "velocity": 111,
      "chip": "ym2612"
    },
    {
      "channel": 1,
      "note": 70,
      "start": 2.3754,
      "duration": 0.0165,
      "velocity": 108,
      "chip": "ym2612"
    },
    {
      "channel": 2,
      "note": 65,
      "start": 2.3759,
      "duration": 0.0161,
      "velocity": 108,
      "chip": "ym2612"
    },
    {
      "channel": 3,
      "note": 58,
      "start": 2.3766,
      "duration": 0.0348,
      "velocity": 108,
      "chip": "ym2612"
    },
    {
      "channel": 0,
      "note": 49,
      "start": 2.3956,
      "duration": 0.0152,
      "velocity": 111,
      "chip": "ym2612"
    },
    {
      "channel": 1,
      "note": 61,
      "start": 2.3962,
      "duration": 0.0147,
      "velocity": 108,
      "chip": "ym2612"
    },
    {
      "channel": 2,
      "note": 49,
      "start": 2.3968,
      "duration": 0.0144,
      "velocity": 108,
      "chip": "ym2612"
    },
    {
      "channel": 0,
      "note": 59,
      "start": 2.4134,
      "duration": 0.0301,
      "velocity": 111,
      "chip": "ym2612"
    },
    {
      "channel": 1,
      "note": 59,
      "start": 2.414,
      "duration": 0.0144,
      "velocity": 108,
      "chip": "ym2612"
    },
    {
      "channel": 2,
      "note": 59,
      "start": 2.4146,
      "duration": 0.0141,
      "velocity": 108,
      "chip": "ym2612"
    },
    {
      "channel": 1,
      "note": 77,
      "start": 2.4322,
      "duration": 0.0139,
      "velocity": 102,
      "chip": "ym2612"
    },
    {
      "channel": 2,
      "note": 58,
      "start": 2.4327,
      "duration": 0.1361,
      "velocity": 108,
      "chip": "ym2612"
    },
    {
      "channel": 1,
      "note": 78,
      "start": 2.4503,
      "duration": 0.013,
      "velocity": 102,
      "chip": "ym2612"
    },
    {
      "channel": 3,
      "note": 77,
      "start": 2.4541,
      "duration": 0.0138,
      "velocity": 102,
      "chip": "ym2612"
    },
    {
      "channel": 1,
      "note": 79,
      "start": 2.4676,
      "duration": 0.101,
      "velocity": 102,
      "chip": "ym2612"
    },
    {
      "channel": 3,
      "note": 78,
      "start": 2.4701,
      "duration": 0.0989,
      "velocity": 102,
      "chip": "ym2612"
    },
    {
      "channel": 0,
      "note": 49,
      "start": 2.5863,
      "duration": 0.0179,
      "velocity": 111,
      "chip": "ym2612"
    },
    {
      "channel": 1,
      "note": 80,
      "start": 2.5876,
      "duration": 0.0349,
      "velocity": 102,
      "chip": "ym2612"
    },
    {
      "channel": 2,
      "note": 49,
      "start": 2.5888,
      "duration": 0.0159,
      "velocity": 108,
      "chip": "ym2612"
    },
    {
      "channel": 4,
      "note": 81,
      "start": 2.5911,
      "duration": 0.0078,
      "velocity": 119,
      "chip": "ym2612"
    },
    {
      "channel": 0,
      "note": 49,
      "start": 2.6068,
      "duration": 0.0993,
      "velocity": 111,
      "chip": "ym2612"
    },
    {
      "channel": 2,
      "note": 49,
      "start": 2.6075,
      "duration": 0.0991,
      "velocity": 108,
      "chip": "ym2612"
    },
    {
      "channel": 3,
      "note": 80,
      "start": 2.6573,
      "duration": 0.0954,
      "velocity": 102,
      "chip": "ym2612"
    },
    {
      "channel": 0,
      "note": 49,
      "start": 2.7401,
      "duration": 0.0119,
      "velocity": 111,
      "chip": "ym2612"
    },
    {
      "channel": 1,
      "note": 82,
      "start": 2.7407,
      "duration": 0.0171,
      "velocity": 102,
      "chip": "ym2612"
    },
    {
      "channel": 2,
      "note": 61,
      "start": 2.7413,
      "duration": 0.0111,
      "velocity": 108,
      "chip": "ym2612"
    },
    {
      "channel": 4,
      "note": 81,
      "start": 2.7422,
      "duration": 0.0071,
      "velocity": 119,
      "chip": "ym2612"
    },
    {
      "channel": 0,
      "note": 49,
      "start": 2.7556,
      "duration": 0.0476,
      "velocity": 111,
      "chip": "ym2612"
    },
    {
      "channel": 2,
      "note": 49,
      "start": 2.7564,
      "duration": 0.0471,
      "velocity": 108,
      "chip": "ym2612"
    },
    {
      "channel": 3,
      "note": 82,
      "start": 2.7646,
      "duration": 0.0703,
      "velocity": 102,
      "chip": "ym2612"
    },
    {
      "channel": 0,
      "note": 49,
      "start": 2.8204,
      "duration": 0.0138,
      "velocity": 111,
      "chip": "ym2612"
    },
    {
      "channel": 1,
      "note": 80,
      "start": 2.8211,
      "duration": 0.0112,
      "velocity": 102,
      "chip": "ym2612"
    },
    {
      "channel": 2,
      "note": 59,
      "start": 2.8217,
      "duration": 0.013,
      "velocity": 108,
      "chip": "ym2612"
    },
    {
      "channel": 4,
      "note": 81,
      "start": 2.8226,
      "duration": 0.007,
      "velocity": 119,
      "chip": "ym2612"
    },
    {
      "channel": 0,
      "note": 49,
      "start": 2.8364,
      "duration": 0.014,
      "velocity": 111,
      "chip": "ym2612"
    },
    {
      "channel": 1,
      "note": 82,
      "start": 2.837,
      "duration": 0.022,
      "velocity": 102,
      "chip": "ym2612"
    },
    {
      "channel": 2,
      "note": 49,
      "start": 2.8377,
      "duration": 0.0132,
      "velocity": 108,
      "chip": "ym2612"
    },
    {
      "channel": 3,
      "note": 80,
      "start": 2.8455,
      "duration": 0.0139,
      "velocity": 102,
      "chip": "ym2612"
    },
    {
      "channel": 0,
      "note": 49,
      "start": 2.8558,
      "duration": 0.0126,
      "velocity": 111,
      "chip": "ym2612"
    },
    {
      "channel": 2,
      "note": 58,
      "start": 2.8566,
      "duration": 0.0122,
      "velocity": 108,
      "chip": "ym2612"
    },
    {
      "channel": 4,
      "note": 81,
      "start": 2.8579,
      "duration": 0.0078,
      "velocity": 119,
      "chip": "ym2612"
    },
    {
      "channel": 3,
      "note": 82,
      "start": 2.8656,
      "duration": 0.0549,
      "velocity": 102,
      "chip": "ym2612"
    },
    {
      "channel": 0,
      "note": 49,
      "start": 2.8722,
      "duration": 0.0473,
      "velocity": 111,
      "chip": "ym2612"
    },
    {
      "channel": 1,
      "note": 83,
      "start": 2.8731,
      "duration": 0.0676,
      "velocity": 102,
      "chip": "ym2612"
    },
    {
      "channel": 2,
      "note": 49,
      "start": 2.8737,
      "duration": 0.0465,
      "velocity": 108,
      "chip": "ym2612"
    },
    {
      "channel": 0,
      "note": 49,
      "start": 2.9371,
      "duration": 0.015,
      "velocity": 111,
      "chip": "ym2612"
    },
    {
      "channel": 2,
      "note": 59,
      "start": 2.938,
      "duration": 0.0145,
      "velocity": 108,
      "chip": "ym2612"
    },
    {
      "channel": 4,
      "note": 81,
      "start": 2.9389,
      "duration": 0.0087,
      "velocity": 119,
      "chip": "ym2612"
    },
    {
      "channel": 3,
      "note": 83,
      "start": 2.9475,
      "duration": 0.1106,
      "velocity": 102,
      "chip": "ym2612"
    },
    {
      "channel": 0,
      "note": 49,
      "start": 2.9545,
      "duration": 0.1028,
      "velocity": 111,
      "chip": "ym2612"
    },
    {
      "channel": 1,
      "note": 83,
      "start": 2.9551,
      "duration": 0.0856,
      "velocity": 102,
      "chip": "ym2612"
    },
    {
      "channel": 2,
      "note": 49,
      "start": 2.9557,
      "duration": 0.102,
      "velocity": 108,
      "chip": "ym2612"
    },
    {
      "channel": 0,
      "note": 49,
      "start": 3.0913,
      "duration": 0.015,
      "velocity": 111,
      "chip": "ym2612"
    },
    {
      "channel": 1,
      "note": 82,
      "start": 3.092,
      "duration": 0.0295,
      "velocity": 102,
      "chip": "ym2612"
    },
    {
      "channel": 2,
      "note": 58,
      "start": 3.0925,
      "duration": 0.0142,
      "velocity": 108,
      "chip": "ym2612"
    },
    {
      "channel": 4,
      "note": 81,
      "start": 3.0935,
      "duration": 0.0079,
      "velocity": 119,
      "chip": "ym2612"
    },
    {
      "channel": 3,
      "note": 83,
      "start": 3.1012,
      "duration": 0.0097,
      "velocity": 102,
      "chip": "ym2612"
    },
    {
      "channel": 0,
      "note": 49,
      "start": 3.1084,
      "duration": 0.0464,
      "velocity": 111,
      "chip": "ym2612"
    },
    {
      "channel": 2,
      "note": 49,
      "start": 3.1093,
      "duration": 0.0459,
      "velocity": 108,
      "chip": "ym2612"
    },
    {
      "channel": 3,
      "note": 82,
      "start": 3.1165,
      "duration": 0.0825,
      "velocity": 102,
      "chip": "ym2612"
    },
    {
      "channel": 0,
      "note": 49,
      "start": 3.172,
      "duration": 0.0134,
      "velocity": 111,
      "chip": "ym2612"
    },
    {
      "channel": 2,
      "note": 59,
      "start": 3.1728,
      "duration": 0.0131,
      "velocity": 108,
      "chip": "ym2612"
    },
    {
      "channel": 4,
      "note": 81,
      "start": 3.1737,
      "duration": 0.0073,
      "velocity": 119,
      "chip": "ym2612"
    },
    {
      "channel": 0,
      "note": 49,
      "start": 3.1888,
      "duration": 0.0132,
      "velocity": 111,
      "chip": "ym2612"
    },
    {
      "channel": 1,
      "note": 80,
      "start": 3.1895,
      "duration": 0.0111,
      "velocity": 102,
      "chip": "ym2612"
    },
    {
      "channel": 2,
      "note": 49,
      "start": 3.1901,
      "duration": 0.0123,
      "velocity": 108,
      "chip": "ym2612"
    },
    {
      "channel": 0,
      "note": 49,
      "start": 3.2089,
      "duration": 0.0149,
      "velocity": 111,
      "chip": "ym2612"
    },
    {
      "channel": 1,
      "note": 81,
      "start": 3.2096,
      "duration": 0.0106,
      "velocity": 102,
      "chip": "ym2612"
    },
    {
      "channel": 2,
      "note": 61,
      "start": 3.2101,
      "duration": 0.0141,
      "velocity": 108,
      "chip": "ym2612"
    },
    {
      "channel": 4,
      "note": 81,
      "start": 3.211,
      "duration": 0.0082,
      "velocity": 119,
      "chip": "ym2612"
    },
    {
      "channel": 3,
      "note": 80,
      "start": 3.219,
      "duration": 0.0106,
      "velocity": 102,
      "chip": "ym2612"
    },
    {
      "channel": 0,
      "note": 52,
      "start": 3.2263,
      "duration": 0.0786,
      "velocity": 111,
      "chip": "ym2612"
    },
    {
      "channel": 1,
      "note": 82,
      "start": 3.2269,
      "duration": 0.014,
      "velocity": 102,
      "chip": "ym2612"
    },
    {
      "channel": 2,
      "note": 49,
      "start": 3.2275,
      "duration": 0.0471,
      "velocity": 108,
      "chip": "ym2612"
    },
    {
      "channel": 3,
      "note": 81,
      "start": 3.2356,
      "duration": 0.0611,
      "velocity": 102,
      "chip": "ym2612"
    },
    {
      "channel": 1,
      "note": 83,
      "start": 3.2917,
      "duration": 0.0363,
      "velocity": 102,
      "chip": "ym2612"
    },
    {
      "channel": 2,
      "note": 52,
      "start": 3.2922,
      "duration": 0.0159,
      "velocity": 108,
      "chip": "ym2612"
    },
    {
      "channel": 4,
      "note": 81,
      "start": 3.2931,
      "duration": 0.0084,
      "velocity": 119,
      "chip": "ym2612"
    },
    {
      "channel": 3,
      "note": 82,
      "start": 3.3013,
      "duration": 0.027,
      "velocity": 102,
      "chip": "ym2612"
    },
    {
      "channel": 0,
      "note": 52,
      "start": 3.3103,
      "duration": 0.1014,
      "velocity": 111,
      "chip": "ym2612"
    },
    {
      "channel": 2,
      "note": 52,
      "start": 3.311,
      "duration": 0.1012,
      "velocity": 108,
      "chip": "ym2612"
    },
    {
      "channel": 3,
      "note": 83,
      "start": 3.3793,
      "duration": 0.0841,
      "velocity": 102,
      "chip": "ym2612"
    },
    {
      "channel": 0,
      "note": 52,
      "start": 3.4457,
      "duration": 0.0171,
      "velocity": 111,
      "chip": "ym2612"
    },
    {
      "channel": 1,
      "note": 85,
      "start": 3.4463,
      "duration": 0.0218,
      "velocity": 102,
      "chip": "ym2612"
    },
    {
      "channel": 2,
      "note": 61,
      "start": 3.4469,
      "duration": 0.0163,
      "velocity": 108,
      "chip": "ym2612"
    },
    {
      "channel": 4,
      "note": 81,
      "start": 3.4478,
      "duration": 0.0089,
      "velocity": 119,
      "chip": "ym2612"
    },
    {
      "channel": 0,
      "note": 52,
      "start": 3.4654,
      "duration": 0.0439,
      "velocity": 111,
      "chip": "ym2612"
    },
    {
      "channel": 2,
      "note": 52,
      "start": 3.4662,
      "duration": 0.0434,
      "velocity": 108,
      "chip": "ym2612"
    },
    {
      "channel": 3,
      "note": 85,
      "start": 3.4757,
      "duration": 0.0677,
      "velocity": 102,
      "chip": "ym2612"
    },
    {
      "channel": 0,
      "note": 52,
      "start": 3.5265,
      "duration": 0.0163,
      "velocity": 111,
      "chip": "ym2612"
    },
    {
      "channel": 1,
      "note": 83,
      "start": 3.5271,
      "duration": 0.0132,
      "velocity": 102,
      "chip": "ym2612"
    },
    {
      "channel": 2,
      "note": 59,
      "start": 3.5277,
      "duration": 0.0155,
      "velocity": 108,
      "chip": "ym2612"
    },
    {
      "channel": 4,
      "note": 81,
      "start": 3.5286,
      "duration": 0.0083,
      "velocity": 119,
      "chip": "ym2612"
    },
    {
      "channel": 0,
      "note": 52,
      "start": 3.5468,
      "duration": 0.0177,
      "velocity": 111,
      "chip": "ym2612"
    },
    {
      "channel": 1,
      "note": 85,
      "start": 3.5474,
      "duration": 0.0261,
      "velocity": 102,
      "chip": "ym2612"
    },
    {
      "channel": 2,
      "note": 52,
      "start": 3.5482,
      "duration": 0.0167,
      "velocity": 108,
      "chip": "ym2612"
    },
    {
      "channel": 3,
      "note": 83,
      "start": 3.5605,
      "duration": 0.0135,
      "velocity": 102,
      "chip": "ym2612"
    },
    {
      "channel": 0,
      "note": 52,
      "start": 3.5699,
      "duration": 0.0172,
      "velocity": 111,
      "chip": "ym2612"
    },
    {
      "channel": 2,
      "note": 61,
      "start": 3.5707,
      "duration": 0.0167,
      "velocity": 108,
      "chip": "ym2612"
    },
    {
      "channel": 4,
      "note": 81,
      "start": 3.5716,
      "duration": 0.01,
      "velocity": 119,
      "chip": "ym2612"
    },
    {
      "channel": 3,
      "note": 85,
      "start": 3.5815,
      "duration": 0.0528,
      "velocity": 102,
      "chip": "ym2612"
    },
    {
      "channel": 0,
      "note": 52,
      "start": 3.5899,
      "duration": 0.0438,
      "velocity": 111,
      "chip": "ym2612"
    },
    {
      "channel": 1,
      "note": 88,
      "start": 3.5905,
      "duration": 0.0754,
      "velocity": 102,
      "chip": "ym2612"
    },
    {
      "channel": 2,
      "note": 52,
      "start": 3.5911,
      "duration": 0.0429,
      "velocity": 108,
      "chip": "ym2612"
    },
    {
      "channel": 0,
      "note": 52,
      "start": 3.6508,
      "duration": 0.0174,
      "velocity": 111,
      "chip": "ym2612"
    },
    {
      "channel": 2,
      "note": 49,
      "start": 3.6517,
      "duration": 0.017,
      "velocity": 108,
      "chip": "ym2612"
    },
    {
      "channel": 4,
      "note": 81,
      "start": 3.6527,
      "duration": 0.01,
      "velocity": 119,
      "chip": "ym2612"
    },
    {
      "channel": 3,
      "note": 88,
      "start": 3.6625,
      "duration": 0.1536,
      "velocity": 102,
      "chip": "ym2612"
    },
    {
      "channel": 0,
      "note": 52,
      "start": 3.6713,
      "duration": 0.0997,
      "velocity": 111,
      "chip": "ym2612"
    },
    {
      "channel": 2,
      "note": 49,
      "start": 3.672,
      "duration": 0.0994,
      "velocity": 108,
      "chip": "ym2612"
    },
    {
      "channel": 0,
      "note": 47,
      "start": 3.805,
      "duration": 0.0176,
      "velocity": 111,
      "chip": "ym2612"
    },
    {
      "channel": 1,
      "note": 85,
      "start": 3.8056,
      "duration": 0.0472,
      "velocity": 102,
      "chip": "ym2612"
    },
    {
      "channel": 2,
      "note": 61,
      "start": 3.8063,
      "duration": 0.0166,
      "velocity": 108,
      "chip": "ym2612"
    },
    {
      "channel": 4,
      "note": 81,
      "start": 3.8072,
      "duration": 0.0091,
      "velocity": 119,
      "chip": "ym2612"
    },
    {
      "channel": 0,
      "note": 47,
      "start": 3.825,
      "duration": 0.0444,
      "velocity": 111,
      "chip": "ym2612"
    },
    {
      "channel": 2,
      "note": 49,
      "start": 3.8259,
      "duration": 0.0439,
      "velocity": 108,
      "chip": "ym2612"
    },
    {
      "channel": 3,
      "note": 85,
      "start": 3.8356,
      "duration": 0.081,
      "velocity": 102,
      "chip": "ym2612"
    },
    {
      "channel": 0,
      "note": 49,
      "start": 3.8866,
      "duration": 0.0156,
      "velocity": 111,
      "chip": "ym2612"
    },
    {
      "channel": 2,
      "note": 59,
      "start": 3.8873,
      "duration": 0.0152,
      "velocity": 108,
      "chip": "ym2612"
    },
    {
      "channel": 4,
      "note": 81,
      "start": 3.8882,
      "duration": 0.0085,
      "velocity": 119,
      "chip": "ym2612"
    },
    {
      "channel": 0,
      "note": 49,
      "start": 3.9069,
      "duration": 0.0127,
      "velocity": 111,
      "chip": "ym2612"
    },
    {
      "channel": 1,
      "note": 83,
      "start": 3.9075,
      "duration": 0.0104,
      "velocity": 102,
      "chip": "ym2612"
    },
    {
      "channel": 2,
      "note": 49,
      "start": 3.9081,
      "duration": 0.012,
      "velocity": 108,
      "chip": "ym2612"
    },
    {
      "channel": 0,
      "note": 52,
      "start": 3.9249,
      "duration": 0.0143,
      "velocity": 111,
      "chip": "ym2612"
    },
    {
      "channel": 1,
      "note": 85,
      "start": 3.9255,
      "duration": 0.0101,
      "velocity": 102,
      "chip": "ym2612"
    },
    {
      "channel": 2,
      "note": 61,
      "start": 3.9261,
      "duration": 0.0135,
      "velocity": 108,
      "chip": "ym2612"
    },
    {
      "channel": 4,
      "note": 81,
      "start": 3.9269,
      "duration": 0.0073,
      "velocity": 119,
      "chip": "ym2612"
    },
    {
      "channel": 3,
      "note": 83,
      "start": 3.9341,
      "duration": 0.0108,
      "velocity": 102,
      "chip": "ym2612"
    },
    {
      "channel": 0,
      "note": 52,
      "start": 3.9415,
      "duration": 0.0475,
      "velocity": 111,
      "chip": "ym2612"
    },
    {
      "channel": 1,
      "note": 87,
      "start": 3.9422,
      "duration": 0.0302,
      "velocity": 102,
      "chip": "ym2612"
    },
    {
      "channel": 2,
      "note": 49,
      "start": 3.9427,
      "duration": 0.0468,
      "velocity": 108,
      "chip": "ym2612"
    },
    {
      "channel": 3,
      "note": 85,
      "start": 3.9507,
      "duration": 0.0612,
      "velocity": 102,
      "chip": "ym2612"
    },
    {
      "channel": 0,
      "note": 54,
      "start": 4.0062,
      "duration": 0.0162,
      "velocity": 111,
      "chip": "ym2612"
    },
    {
      "channel": 1,
      "note": 88,
      "start": 4.0068,
      "duration": 0.0355,
      "velocity": 102,
      "chip": "ym2612"
    },
    {
      "channel": 2,
      "note": 54,
      "start": 4.0074,
      "duration": 0.0154,
      "velocity": 108,
      "chip": "ym2612"
    },
    {
      "channel": 4,
      "note": 81,
      "start": 4.0083,
      "duration": 0.0088,
      "velocity": 119,
      "chip": "ym2612"
    },
    {
      "channel": 3,
      "note": 87,
      "start": 4.017,
      "duration": 0.0257,
      "velocity": 102,
      "chip": "ym2612"
    },
    {
      "channel": 0,
      "note": 54,
      "start": 4.0271,
      "duration": 0.099,
      "velocity": 111,
      "chip": "ym2612"
    },
    {
      "channel": 2,
      "note": 54,
      "start": 4.0279,
      "duration": 0.0986,
      "velocity": 108,
      "chip": "ym2612"
    },
    {
      "channel": 3,
      "note": 88,
      "start": 4.0937,
      "duration": 0.0839,
      "velocity": 102,
      "chip": "ym2612"
    },
    {
      "channel": 0,
      "note": 54,
      "start": 4.16,
      "duration": 0.017,
      "velocity": 111,
      "chip": "ym2612"
    },
    {
      "channel": 1,
      "note": 90,
      "start": 4.1607,
      "duration": 0.022,
      "velocity": 102,
      "chip": "ym2612"
    },
    {
      "channel": 2,
      "note": 61,
      "start": 4.1612,
      "duration": 0.0162,
      "velocity": 108,
      "chip": "ym2612"
    },
    {
      "channel": 4,
      "note": 81,
      "start": 4.1621,
      "duration": 0.0089,
      "velocity": 119,
      "chip": "ym2612"
    },
    {
      "channel": 0,
      "note": 54,
      "start": 4.1797,
      "duration": 0.0445,
      "velocity": 111,
      "chip": "ym2612"
    },
    {
      "channel": 2,
      "note": 54,
      "start": 4.1805,
      "duration": 0.044,
      "velocity": 108,
      "chip": "ym2612"
    },
    {
      "channel": 3,
      "note": 90,
      "start": 4.1909,
      "duration": 0.0685,
      "velocity": 102,
      "chip": "ym2612"
    },
    {
      "channel": 0,
      "note": 54,
      "start": 4.2414,
      "duration": 0.0174,
      "velocity": 111,
      "chip": "ym2612"
    },
    {
      "channel": 1,
      "note": 88,
      "start": 4.2424,
      "duration": 0.0255,
      "velocity": 102,
      "chip": "ym2612"
    },
    {
      "channel": 2,
      "note": 59,
      "start": 4.2429,
      "duration": 0.0164,
      "velocity": 108,
      "chip": "ym2612"
    },
    {
      "channel": 4,
      "note": 81,
      "start": 4.2438,
      "duration": 0.0089,
      "velocity": 119,
      "chip": "ym2612"
    },
    {
      "channel": 0,
      "note": 54,
      "start": 4.2645,
      "duration": 0.0144,
      "velocity": 111,
      "chip": "ym2612"
    },
    {
      "channel": 2,
      "note": 54,
      "start": 4.2654,
      "duration": 0.014,
      "velocity": 108,
      "chip": "ym2612"
    },
    {
      "channel": 3,
      "note": 88,
      "start": 4.2754,
      "duration": 0.0271,
      "velocity": 102,
      "chip": "ym2612"
    },
    {
      "channel": 0,
      "note": 54,
      "start": 4.2847,
      "duration": 0.0172,
      "velocity": 111,
      "chip": "ym2612"
    },
    {
      "channel": 1,
      "note": 90,
      "start": 4.2853,
      "duration": 0.0124,
      "velocity": 102,
      "chip": "ym2612"
    },
    {
      "channel": 2,
      "note": 61,
      "start": 4.2859,
      "duration": 0.0164,
      "velocity": 108,
      "chip": "ym2612"
    },
    {
      "channel": 4,
      "note": 81,
      "start": 4.2868,
      "duration": 0.0093,
      "velocity": 119,
      "chip": "ym2612"
    },
    {
      "channel": 0,
      "note": 54,
      "start": 4.3048,
      "duration": 0.0443,
      "velocity": 111,
      "chip": "ym2612"
    },
    {
      "channel": 1,
      "note": 92,
      "start": 4.3054,
      "duration": 0.0271,
      "velocity": 102,
      "chip": "ym2612"
    },
    {
      "channel": 2,
      "note": 54,
      "start": 4.306,
      "duration": 0.0435,
      "velocity": 108,
      "chip": "ym2612"
    },
    {
      "channel": 3,
      "note": 90,
      "start": 4.3159,
      "duration": 0.0561,
      "velocity": 102,
      "chip": "ym2612"
    },
    {
      "channel": 0,
      "note": 54,
      "start": 4.3663,
      "duration": 0.0156,
      "velocity": 111,
      "chip": "ym2612"
    },
    {
      "channel": 2,
      "note": 54,
      "start": 4.3672,
      "duration": 0.0149,
      "velocity": 108,
      "chip": "ym2612"
    },
    {
      "channel": 4,
      "note": 81,
      "start": 4.3681,
      "duration": 0.009,
      "velocity": 119,
      "chip": "ym2612"
    },
    {
      "channel": 3,
      "note": 92,
      "start": 4.3769,
      "duration": 0.0257,
      "velocity": 102,
      "chip": "ym2612"
    },
    {
      "channel": 0,
      "note": 54,
      "start": 4.3861,
      "duration": 0.1165,
      "velocity": 111,
      "chip": "ym2612"
    },
    {
      "channel": 1,
      "note": 92,
      "start": 4.3867,
      "duration": 0.0826,
      "velocity": 102,
      "chip": "ym2612"
    },
    {
      "channel": 2,
      "note": 54,
      "start": 4.3872,
      "duration": 0.1157,
      "velocity": 108,
      "chip": "ym2612"
    },
    {
      "channel": 0,
      "note": 66,
      "start": 4.5199,
      "duration": 0.0469,
      "velocity": 111,
      "chip": "ym2612"
    },
    {
      "channel": 1,
      "note": 95,
      "start": 4.5206,
      "duration": 0.0235,
      "velocity": 102,
      "chip": "ym2612"
    },
    {
      "channel": 2,
      "note": 66,
      "start": 4.5211,
      "duration": 0.0628,
      "velocity": 108,
      "chip": "ym2612"
    },
    {
      "channel": 4,
      "note": 81,
      "start": 4.5219,
      "duration": 0.0091,
      "velocity": 119,
      "chip": "ym2612"
    },
    {
      "channel": 3,
      "note": 92,
      "start": 4.5309,
      "duration": 0.0137,
      "velocity": 102,
      "chip": "ym2612"
    },
    {
      "channel": 3,
      "note": 95,
      "start": 4.5497,
      "duration": 0.0686,
      "velocity": 102,
      "chip": "ym2612"
    },
    {
      "channel": 0,
      "note": 54,
      "start": 4.6008,
      "duration": 0.0169,
      "velocity": 111,
      "chip": "ym2612"
    },
    {
      "channel": 1,
      "note": 92,
      "start": 4.6015,
      "duration": 0.0245,
      "velocity": 102,
      "chip": "ym2612"
    },
    {
      "channel": 2,
      "note": 54,
      "start": 4.602,
      "duration": 0.016,
      "velocity": 108,
      "chip": "ym2612"
    },
    {
      "channel": 4,
      "note": 81,
      "start": 4.6029,
      "duration": 0.0109,
      "velocity": 119,
      "chip": "ym2612"
    },
    {
      "channel": 0,
      "note": 54,
      "start": 4.623,
      "duration": 0.0157,
      "velocity": 111,
      "chip": "ym2612"
    },
    {
      "channel": 2,
      "note": 54,
      "start": 4.6238,
      "duration": 0.0153,
      "velocity": 108,
      "chip": "ym2612"
    },
    {
      "channel": 3,
      "note": 92,
      "start": 4.6331,
      "duration": 0.0283,
      "velocity": 102,
      "chip": "ym2612"
    },
    {
      "channel": 0,
      "note": 66,
      "start": 4.6428,
      "duration": 0.0484,
      "velocity": 111,
      "chip": "ym2612"
    },
    {
      "channel": 1,
      "note": 95,
      "start": 4.6435,
      "duration": 0.0247,
      "velocity": 102,
      "chip": "ym2612"
    },
    {
      "channel": 2,
      "note": 66,
      "start": 4.6441,
      "duration": 0.0642,
      "velocity": 108,
      "chip": "ym2612"
    },
    {
      "channel": 4,
      "note": 81,
      "start": 4.645,
      "duration": 0.0093,
      "velocity": 119,
      "chip": "ym2612"
    },
    {
      "channel": 3,
      "note": 95,
      "start": 4.6738,
      "duration": 0.0691,
      "velocity": 102,
      "chip": "ym2612"
    },
    {
      "channel": 0,
      "note": 49,
      "start": 4.7252,
      "duration": 0.0171,
      "velocity": 111,
      "chip": "ym2612"
    },
    {
      "channel": 1,
      "note": 85,
      "start": 4.7259,
      "duration": 0.014,
      "velocity": 102,
      "chip": "ym2612"
    },
    {
      "channel": 2,
      "note": 49,
      "start": 4.7266,
      "duration": 0.0162,
      "velocity": 108,
      "chip": "ym2612"
    },
    {
      "channel": 0,
      "note": 49,
      "start": 4.7475,
      "duration": 0.0171,
      "velocity": 111,
      "chip": "ym2612"
    },
    {
      "channel": 1,
      "note": 85,
      "start": 4.7481,
      "duration": 0.0123,
      "velocity": 102,
      "chip": "ym2612"
    },
    {
      "channel": 2,
      "note": 49,
      "start": 4.7487,
      "duration": 0.0163,
      "velocity": 108,
      "chip": "ym2612"
    },
    {
      "channel": 3,
      "note": 85,
      "start": 4.7587,
      "duration": 0.0146,
      "velocity": 102,
      "chip": "ym2612"
    },
    {
      "channel": 0,
      "note": 61,
      "start": 4.7687,
      "duration": 0.0177,
      "velocity": 111,
      "chip": "ym2612"
    },
    {
      "channel": 1,
      "note": 97,
      "start": 4.7697,
      "duration": 0.0126,
      "velocity": 102,
      "chip": "ym2612"
    },
    {
      "channel": 2,
      "note": 61,
      "start": 4.7703,
      "duration": 0.0165,
      "velocity": 108,
      "chip": "ym2612"
    },
    {
      "channel": 3,
      "note": 85,
      "start": 4.7806,
      "duration": 0.0154,
      "velocity": 102,
      "chip": "ym2612"
    },
    {
      "channel": 0,
      "note": 49,
      "start": 4.7897,
      "duration": 0.0172,
      "velocity": 111,
      "chip": "ym2612"
    },
    {
      "channel": 1,
      "note": 85,
      "start": 4.7904,
      "duration": 0.0145,
      "velocity": 102,
      "chip": "ym2612"
    },
    {
      "channel": 2,
      "note": 49,
      "start": 4.791,
      "duration": 0.0164,
      "velocity": 108,
      "chip": "ym2612"
    },
    {
      "channel": 3,
      "note": 97,
      "start": 4.8013,
      "duration": 0.0154,
      "velocity": 102,
      "chip": "ym2612"
    },
    {
      "channel": 0,
      "note": 59,
      "start": 4.8101,
      "duration": 0.0171,
      "velocity": 111,
      "chip": "ym2612"
    },
    {
      "channel": 1,
      "note": 95,
      "start": 4.8108,
      "duration": 0.014,
      "velocity": 102,
      "chip": "ym2612"
    },
    {
      "channel": 2,
      "note": 59,
      "start": 4.8114,
      "duration": 0.0163,
      "velocity": 108,
      "chip": "ym2612"
    },
    {
      "channel": 3,
      "note": 85,
      "start": 4.8231,
      "duration": 0.0138,
      "velocity": 102,
      "chip": "ym2612"
    },
    {
      "channel": 0,
      "note": 49,
      "start": 4.8326,
      "duration": 0.0163,
      "velocity": 111,
      "chip": "ym2612"
    },
    {
      "channel": 1,
      "note": 85,
      "start": 4.8332,
      "duration": 0.0112,
      "velocity": 102,
      "chip": "ym2612"
    },
    {
      "channel": 2,
      "note": 49,
      "start": 4.8338,
      "duration": 0.0155,
      "velocity": 108,
      "chip": "ym2612"
    },
    {
      "channel": 3,
      "note": 95,
      "start": 4.8432,
      "duration": 0.0142,
      "velocity": 102,
      "chip": "ym2612"
    },
    {
      "channel": 0,
      "note": 58,
      "start": 4.8528,
      "duration": 0.0339,
      "velocity": 111,
      "chip": "ym2612"
    },
    {
      "channel": 1,
      "note": 94,
      "start": 4.8535,
      "duration": 0.0244,
      "velocity": 102,
      "chip": "ym2612"
    },
    {
      "channel": 2,
      "note": 58,
      "start": 4.854,
      "duration": 0.0349,
      "velocity": 108,
      "chip": "ym2612"
    },
    {
      "channel": 3,
      "note": 85,
      "start": 4.8639,
      "duration": 0.0144,
      "velocity": 102,
      "chip": "ym2612"
    },
    {
      "channel": 3,
      "note": 94,
      "start": 4.8832,
      "duration": 0.0254,
      "velocity": 102,
      "chip": "ym2612"
    },
    {
      "channel": 0,
      "note": 59,
      "start": 4.8921,
      "duration": 0.0159,
      "velocity": 111,
      "chip": "ym2612"
    },
    {
      "channel": 1,
      "note": 95,
      "start": 4.8927,
      "duration": 0.0129,
      "velocity": 102,
      "chip": "ym2612"
    },
    {
      "channel": 2,
      "note": 59,
      "start": 4.8932,
      "duration": 0.0152,
      "velocity": 108,
      "chip": "ym2612"
    },
    {
      "channel": 0,
      "note": 49,
      "start": 4.9139,
      "duration": 0.0178,
      "velocity": 111,
      "chip": "ym2612"
    },
    {
      "channel": 1,
      "note": 85,
      "start": 4.9146,
      "duration": 0.0131,
      "velocity": 102,
      "chip": "ym2612"
    },
    {
      "channel": 2,
      "note": 49,
      "start": 4.9152,
      "duration": 0.0168,
      "velocity": 108,
      "chip": "ym2612"
    },
    {
      "channel": 3,
      "note": 95,
      "start": 4.9248,
      "duration": 0.0154,
      "velocity": 102,
      "chip": "ym2612"
    },
    {
      "channel": 0,
      "note": 58,
      "start": 4.9355,
      "duration": 0.0168,
      "velocity": 111,
      "chip": "ym2612"
    },
    {
      "channel": 1,
      "note": 94,
      "start": 4.9362,
      "duration": 0.0137,
      "velocity": 102,
      "chip": "ym2612"
    },
    {
      "channel": 2,
      "note": 58,
      "start": 4.9368,
      "duration": 0.016,
      "velocity": 108,
      "chip": "ym2612"
    },
    {
      "channel": 3,
      "note": 85,
      "start": 4.9468,
      "duration": 0.0138,
      "velocity": 102,
      "chip": "ym2612"
    },
    {
      "channel": 0,
      "note": 49,
      "start": 4.9546,
      "duration": 0.0165,
      "velocity": 111,
      "chip": "ym2612"
    },
    {
      "channel": 1,
      "note": 85,
      "start": 4.9553,
      "duration": 0.0134,
      "velocity": 102,
      "chip": "ym2612"
    },
    {
      "channel": 2,
      "note": 49,
      "start": 4.9559,
      "duration": 0.0157,
      "velocity": 108,
      "chip": "ym2612"
    },
    {
      "channel": 3,
      "note": 94,
      "start": 4.9654,
      "duration": 0.0157,
      "velocity": 102,
      "chip": "ym2612"
    },
    {
      "channel": 0,
      "note": 59,
      "start": 4.9765,
      "duration": 0.0146,
      "velocity": 111,
      "chip": "ym2612"
    },
    {
      "channel": 1,
      "note": 95,
      "start": 4.9772,
      "duration": 0.012,
      "velocity": 102,
      "chip": "ym2612"
    },
    {
      "channel": 2,
      "note": 59,
      "start": 4.9777,
      "duration": 0.0139,
      "velocity": 108,
      "chip": "ym2612"
    },
    {
      "channel": 3,
      "note": 85,
      "start": 4.9874,
      "duration": 0.0134,
      "velocity": 102,
      "chip": "ym2612"
    },
    {
      "channel": 0,
      "note": 53,
      "start": 4.9967,
      "duration": 0.0148,
      "velocity": 111,
      "chip": "ym2612"
    },
    {
      "channel": 1,
      "note": 77,
      "start": 4.9974,
      "duration": 0.0113,
      "velocity": 102,
      "chip": "ym2612"
    },
    {
      "channel": 2,
      "note": 53,
      "start": 4.9982,
      "duration": 0.0137,
      "velocity": 108,
      "chip": "ym2612"
    },
    {
      "channel": 3,
      "note": 95,
      "start": 5.0072,
      "duration": 0.0103,
      "velocity": 102,
      "chip": "ym2612"
    },
    {
      "channel": 0,
      "note": 54,
      "start": 5.0139,
      "duration": 0.0132,
      "velocity": 111,
      "chip": "ym2612"
    },
    {
      "channel": 1,
      "note": 78,
      "start": 5.0145,
      "duration": 0.0109,
      "velocity": 102,
      "chip": "ym2612"
    },
    {
      "channel": 2,
      "note": 54,
      "start": 5.015,
      "duration": 0.0124,
      "velocity": 108,
      "chip": "ym2612"
    },
    {
      "channel": 3,
      "note": 77,
      "start": 5.0228,
      "duration": 0.0132,
      "velocity": 102,
      "chip": "ym2612"
    },
    {
      "channel": 0,
      "note": 55,
      "start": 5.0308,
      "duration": 0.0143,
      "velocity": 111,
      "chip": "ym2612"
    },
    {
      "channel": 1,
      "note": 79,
      "start": 5.0318,
      "duration": 0.0115,
      "velocity": 102,
      "chip": "ym2612"
    },
    {
      "channel": 2,
      "note": 55,
      "start": 5.0324,
      "duration": 0.0132,
      "velocity": 108,
      "chip": "ym2612"
    },
    {
      "channel": 3,
      "note": 78,
      "start": 5.0403,
      "duration": 0.0137,
      "velocity": 102,
      "chip": "ym2612"
    },
    {
      "channel": 0,
      "note": 49,
      "start": 5.0489,
      "duration": 0.0153,
      "velocity": 111,
      "chip": "ym2612"
    },
    {
      "channel": 1,
      "note": 80,
      "start": 5.0495,
      "duration": 0.0226,
      "velocity": 102,
      "chip": "ym2612"
    },
    {
      "channel": 2,
      "note": 49,
      "start": 5.0505,
      "duration": 0.0142,
      "velocity": 108,
      "chip": "ym2612"
    },
    {
      "channel": 4,
      "note": 81,
      "start": 5.0515,
      "duration": 0.0089,
      "velocity": 119,
      "chip": "ym2612"
    },
    {
      "channel": 3,
      "note": 79,
      "start": 5.0602,
      "duration": 0.0123,
      "velocity": 102,
      "chip": "ym2612"
    },
    {
      "channel": 0,
      "note": 49,
      "start": 5.0692,
      "duration": 0.0997,
      "velocity": 111,
      "chip": "ym2612"
    },
    {
      "channel": 2,
      "note": 49,
      "start": 5.07,
      "duration": 0.0992,
      "velocity": 108,
      "chip": "ym2612"
    },
    {
      "channel": 3,
      "note": 80,
      "start": 5.1198,
      "duration": 0.084,
      "velocity": 102,
      "chip": "ym2612"
    },
    {
      "channel": 0,
      "note": 49,
      "start": 5.1861,
      "duration": 0.017,
      "velocity": 111,
      "chip": "ym2612"
    },
    {
      "channel": 1,
      "note": 82,
      "start": 5.1867,
      "duration": 0.0242,
      "velocity": 102,
      "chip": "ym2612"
    },
    {
      "channel": 2,
      "note": 61,
      "start": 5.1873,
      "duration": 0.0162,
      "velocity": 108,
      "chip": "ym2612"
    },
    {
      "channel": 4,
      "note": 81,
      "start": 5.1882,
      "duration": 0.0085,
      "velocity": 119,
      "chip": "ym2612"
    },
    {
      "channel": 0,
      "note": 49,
      "start": 5.2057,
      "duration": 0.0447,
      "velocity": 111,
      "chip": "ym2612"
    },
    {
      "channel": 2,
      "note": 49,
      "start": 5.2065,
      "duration": 0.0444,
      "velocity": 108,
      "chip": "ym2612"
    },
    {
      "channel": 3,
      "note": 82,
      "start": 5.2168,
      "duration": 0.0831,
      "velocity": 102,
      "chip": "ym2612"
    },
    {
      "channel": 0,
      "note": 49,
      "start": 5.2844,
      "duration": 0.0148,
      "velocity": 111,
      "chip": "ym2612"
    },
    {
      "channel": 1,
      "note": 80,
      "start": 5.285,
      "duration": 0.0117,
      "velocity": 102,
      "chip": "ym2612"
    },
    {
      "channel": 2,
      "note": 59,
      "start": 5.2857,
      "duration": 0.014,
      "velocity": 108,
      "chip": "ym2612"
    },
    {
      "channel": 4,
      "note": 81,
      "start": 5.2866,
      "duration": 0.0085,
      "velocity": 119,
      "chip": "ym2612"
    },
    {
      "channel": 0,
      "note": 49,
      "start": 5.3045,
      "duration": 0.0182,
      "velocity": 111,
      "chip": "ym2612"
    },
    {
      "channel": 1,
      "note": 82,
      "start": 5.3052,
      "duration": 0.0232,
      "velocity": 102,
      "chip": "ym2612"
    },
    {
      "channel": 2,
      "note": 49,
      "start": 5.3058,
      "duration": 0.0173,
      "velocity": 108,
      "chip": "ym2612"
    },
    {
      "channel": 3,
      "note": 80,
      "start": 5.316,
      "duration": 0.0129,
      "velocity": 102,
      "chip": "ym2612"
    },
    {
      "channel": 0,
      "note": 49,
      "start": 5.3252,
      "duration": 0.0166,
      "velocity": 111,
      "chip": "ym2612"
    },
    {
      "channel": 2,
      "note": 58,
      "start": 5.326,
      "duration": 0.0161,
      "velocity": 108,
      "chip": "ym2612"
    },
    {
      "channel": 4,
      "note": 81,
      "start": 5.3269,
      "duration": 0.0098,
      "velocity": 119,
      "chip": "ym2612"
    },
    {
      "channel": 3,
      "note": 82,
      "start": 5.3364,
      "duration": 0.0533,
      "velocity": 102,
      "chip": "ym2612"
    },
    {
      "channel": 0,
      "note": 49,
      "start": 5.3445,
      "duration": 0.0446,
      "velocity": 111,
      "chip": "ym2612"
    },
    {
      "channel": 1,
      "note": 83,
      "start": 5.3451,
      "duration": 0.0817,
      "velocity": 102,
      "chip": "ym2612"
    },
    {
      "channel": 2,
      "note": 49,
      "start": 5.3457,
      "duration": 0.0438,
      "velocity": 108,
      "chip": "ym2612"
    },
    {
      "channel": 0,
      "note": 49,
      "start": 5.4231,
      "duration": 0.0165,
      "velocity": 111,
      "chip": "ym2612"
    },
    {
      "channel": 2,
      "note": 59,
      "start": 5.4239,
      "duration": 0.0161,
      "velocity": 108,
      "chip": "ym2612"
    },
    {
      "channel": 4,
      "note": 81,
      "start": 5.4249,
      "duration": 0.0094,
      "velocity": 119,
      "chip": "ym2612"
    },
    {
      "channel": 3,
      "note": 83,
      "start": 5.4341,
      "duration": 0.1088,
      "velocity": 102,
      "chip": "ym2612"
    },
    {
      "channel": 0,
      "note": 49,
      "start": 5.4417,
      "duration": 0.1007,
      "velocity": 111,
      "chip": "ym2612"
    },
    {
      "channel": 1,
      "note": 83,
      "start": 5.4423,
      "duration": 0.0667,
      "velocity": 102,
      "chip": "ym2612"
    },
    {
      "channel": 2,
      "note": 49,
      "start": 5.4429,
      "duration": 0.0998,
      "velocity": 108,
      "chip": "ym2612"
    },
    {
      "channel": 0,
      "note": 49,
      "start": 5.5595,
      "duration": 0.0179,
      "velocity": 111,
      "chip": "ym2612"
    },
    {
      "channel": 1,
      "note": 82,
      "start": 5.5602,
      "duration": 0.025,
      "velocity": 102,
      "chip": "ym2612"
    },
    {
      "channel": 2,
      "note": 58,
      "start": 5.5607,
      "duration": 0.0171,
      "velocity": 108,
      "chip": "ym2612"
    },
    {
      "channel": 4,
      "note": 81,
      "start": 5.5617,
      "duration": 0.0095,
      "velocity": 119,
      "chip": "ym2612"
    },
    {
      "channel": 3,
      "note": 83,
      "start": 5.571,
      "duration": 0.0145,
      "velocity": 102,
      "chip": "ym2612"
    },
    {
      "channel": 0,
      "note": 49,
      "start": 5.5804,
      "duration": 0.0168,
      "velocity": 111,
      "chip": "ym2612"
    },
    {
      "channel": 2,
      "note": 49,
      "start": 5.5811,
      "duration": 0.0166,
      "velocity": 108,
      "chip": "ym2612"
    },
    {
      "channel": 3,
      "note": 82,
      "start": 5.5932,
      "duration": 0.0363,
      "velocity": 102,
      "chip": "ym2612"
    },
    {
      "channel": 0,
      "note": 49,
      "start": 5.6114,
      "duration": 0.0176,
      "velocity": 111,
      "chip": "ym2612"
    },
    {
      "channel": 1,
      "note": 80,
      "start": 5.612,
      "duration": 0.0456,
      "velocity": 102,
      "chip": "ym2612"
    },
    {
      "channel": 2,
      "note": 59,
      "start": 5.6127,
      "duration": 0.0167,
      "velocity": 108,
      "chip": "ym2612"
    },
    {
      "channel": 4,
      "note": 81,
      "start": 5.6136,
      "duration": 0.0093,
      "velocity": 119,
      "chip": "ym2612"
    },
    {
      "channel": 0,
      "note": 49,
      "start": 5.6316,
      "duration": 0.0173,
      "velocity": 111,
      "chip": "ym2612"
    },
    {
      "channel": 2,
      "note": 49,
      "start": 5.6324,
      "duration": 0.0168,
      "velocity": 108,
      "chip": "ym2612"
    },
    {
      "channel": 3,
      "note": 80,
      "start": 5.6429,
      "duration": 0.0618,
      "velocity": 102,
      "chip": "ym2612"
    },
    {
      "channel": 0,
      "note": 49,
      "start": 5.6517,
      "duration": 0.0173,
      "velocity": 111,
      "chip": "ym2612"
    },
    {
      "channel": 2,
      "note": 61,
      "start": 5.6528,
      "duration": 0.0166,
      "velocity": 108,
      "chip": "ym2612"
    },
    {
      "channel": 4,
      "note": 81,
      "start": 5.6537,
      "duration": 0.0093,
      "velocity": 119,
      "chip": "ym2612"
    },
    {
      "channel": 0,
      "note": 52,
      "start": 5.672,
      "duration": 0.0443,
      "velocity": 111,
      "chip": "ym2612"
    },
    {
      "channel": 2,
      "note": 49,
      "start": 5.6727,
      "duration": 0.0144,
      "velocity": 108,
      "chip": "ym2612"
    },
    {
      "channel": 1,
      "note": 83,
      "start": 5.704,
      "duration": 0.0233,
      "velocity": 102,
      "chip": "ym2612"
    },
    {
      "channel": 2,
      "note": 52,
      "start": 5.7045,
      "duration": 0.0172,
      "velocity": 108,
      "chip": "ym2612"
    },
    {
      "channel": 4,
      "note": 81,
      "start": 5.7054,
      "duration": 0.0093,
      "velocity": 119,
      "chip": "ym2612"
    },
    {
      "channel": 0,
      "note": 52,
      "start": 5.7243,
      "duration": 0.1006,
      "velocity": 111,
      "chip": "ym2612"
    },
    {
      "channel": 2,
      "note": 52,
      "start": 5.7251,
      "duration": 0.1002,
      "velocity": 108,
      "chip": "ym2612"
    },
    {
      "channel": 3,
      "note": 83,
      "start": 5.7759,
      "duration": 0.083,
      "velocity": 102,
      "chip": "ym2612"
    },
    {
      "channel": 0,
      "note": 52,
      "start": 5.8421,
      "duration": 0.0161,
      "velocity": 111,
      "chip": "ym2612"
    },
    {
      "channel": 1,
      "note": 85,
      "start": 5.8427,
      "duration": 0.023,
      "velocity": 102,
      "chip": "ym2612"
    },
    {
      "channel": 2,
      "note": 61,
      "start": 5.8433,
      "duration": 0.0153,
      "velocity": 108,
      "chip": "ym2612"
    },
    {
      "channel": 4,
      "note": 81,
      "start": 5.8442,
      "duration": 0.0084,
      "velocity": 119,
      "chip": "ym2612"
    },
    {
      "channel": 0,
      "note": 52,
      "start": 5.8609,
      "duration": 0.0438,
      "velocity": 111,
      "chip": "ym2612"
    },
    {
      "channel": 2,
      "note": 52,
      "start": 5.8616,
      "duration": 0.0436,
      "velocity": 108,
      "chip": "ym2612"
    },
    {
      "channel": 3,
      "note": 85,
      "start": 5.8728,
      "duration": 0.0822,
      "velocity": 102,
      "chip": "ym2612"
    },
    {
      "channel": 0,
      "note": 52,
      "start": 5.9387,
      "duration": 0.0157,
      "velocity": 111,
      "chip": "ym2612"
    },
    {
      "channel": 1,
      "note": 83,
      "start": 5.9393,
      "duration": 0.0114,
      "velocity": 102,
      "chip": "ym2612"
    },
    {
      "channel": 2,
      "note": 59,
      "start": 5.9399,
      "duration": 0.0149,
      "velocity": 108,
      "chip": "ym2612"
    },
    {
      "channel": 4,
      "note": 81,
      "start": 5.9408,
      "duration": 0.0081,
      "velocity": 119,
      "chip": "ym2612"
    },
    {
      "channel": 0,
      "note": 52,
      "start": 5.958,
      "duration": 0.0173,
      "velocity": 111,
      "chip": "ym2612"
    },
    {
      "channel": 1,
      "note": 85,
      "start": 5.9586,
      "duration": 0.0255,
      "velocity": 102,
      "chip": "ym2612"
    },
    {
      "channel": 2,
      "note": 52,
      "start": 5.9592,
      "duration": 0.0164,
      "velocity": 108,
      "chip": "ym2612"
    },
    {
      "channel": 3,
      "note": 83,
      "start": 5.9693,
      "duration": 0.0153,
      "velocity": 102,
      "chip": "ym2612"
    },
    {
      "channel": 0,
      "note": 52,
      "start": 5.9783,
      "duration": 0.0169,
      "velocity": 111,
      "chip": "ym2612"
    },
    {
      "channel": 2,
      "note": 61,
      "start": 5.9791,
      "duration": 0.0165,
      "velocity": 108,
      "chip": "ym2612"
    },
    {
      "channel": 4,
      "note": 81,
      "start": 5.98,
      "duration": 0.0102,
      "velocity": 119,
      "chip": "ym2612"
    },
    {
      "channel": 3,
      "note": 85,
      "start": 5.9901,
      "duration": 0.0539,
      "velocity": 102,
      "chip": "ym2612"
    },
    {
      "channel": 0,
      "note": 52,
      "start": 5.998,
      "duration": 0.0453,
      "velocity": 111,
      "chip": "ym2612"
    },
    {
      "channel": 1,
      "note": 88,
      "start": 5.9986,
      "duration": 0.091,
      "velocity": 102,
      "chip": "ym2612"
    },
    {
      "channel": 2,
      "note": 52,
      "start": 5.9992,
      "duration": 0.0445,
      "velocity": 108,
      "chip": "ym2612"
    },
    {
      "channel": 0,
      "note": 52,
      "start": 6.0773,
      "duration": 0.0165,
      "velocity": 111,
      "chip": "ym2612"
    },
    {
      "channel": 2,
      "note": 49,
      "start": 6.0781,
      "duration": 0.016,
      "velocity": 108,
      "chip": "ym2612"
    },
    {
      "channel": 4,
      "note": 81,
      "start": 6.0791,
      "duration": 0.0091,
      "velocity": 119,
      "chip": "ym2612"
    },
    {
      "channel": 3,
      "note": 88,
      "start": 6.088,
      "duration": 0.1346,
      "velocity": 102,
      "chip": "ym2612"
    },
    {
      "channel": 0,
      "note": 52,
      "start": 6.0963,
      "duration": 0.0979,
      "velocity": 111,
      "chip": "ym2612"
    },
    {
      "channel": 2,
      "note": 49,
      "start": 6.097,
      "duration": 0.0976,
      "velocity": 108,
      "chip": "ym2612"
    },
    {
      "channel": 0,
      "note": 47,
      "start": 6.2115,
      "duration": 0.018,
      "velocity": 111,
      "chip": "ym2612"
    },
    {
      "channel": 1,
      "note": 85,
      "start": 6.2121,
      "duration": 0.0803,
      "velocity": 102,
      "chip": "ym2612"
    },
    {
      "channel": 2,
      "note": 61,
      "start": 6.2127,
      "duration": 0.0172,
      "velocity": 108,
      "chip": "ym2612"
    },
    {
      "channel": 4,
      "note": 81,
      "start": 6.2137,
      "duration": 0.0092,
      "velocity": 119,
      "chip": "ym2612"
    },
    {
      "channel": 0,
      "note": 47,
      "start": 6.2344,
      "duration": 0.0148,
      "velocity": 111,
      "chip": "ym2612"
    },
    {
      "channel": 2,
      "note": 49,
      "start": 6.2352,
      "duration": 0.0144,
      "velocity": 108,
      "chip": "ym2612"
    },
    {
      "channel": 3,
      "note": 85,
      "start": 6.2451,
      "duration": 0.0868,
      "velocity": 102,
      "chip": "ym2612"
    },
    {
      "channel": 0,
      "note": 49,
      "start": 6.2639,
      "duration": 0.0175,
      "velocity": 111,
      "chip": "ym2612"
    },
    {
      "channel": 2,
      "note": 59,
      "start": 6.2649,
      "duration": 0.0171,
      "velocity": 108,
      "chip": "ym2612"
    },
    {
      "channel": 4,
      "note": 81,
      "start": 6.2658,
      "duration": 0.0094,
      "velocity": 119,
      "chip": "ym2612"
    },
    {
      "channel": 0,
      "note": 49,
      "start": 6.2848,
      "duration": 0.0171,
      "velocity": 111,
      "chip": "ym2612"
    },
    {
      "channel": 2,
      "note": 49,
      "start": 6.2855,
      "duration": 0.0168,
      "velocity": 108,
      "chip": "ym2612"
    },
    {
      "channel": 0,
      "note": 52,
      "start": 6.3045,
      "duration": 0.0168,
      "velocity": 111,
      "chip": "ym2612"
    },
    {
      "channel": 2,
      "note": 61,
      "start": 6.3052,
      "duration": 0.0164,
      "velocity": 108,
      "chip": "ym2612"
    },
    {
      "channel": 4,
      "note": 81,
      "start": 6.3061,
      "duration": 0.0092,
      "velocity": 119,
      "chip": "ym2612"
    },
    {
      "channel": 0,
      "note": 52,
      "start": 6.3262,
      "duration": 0.0138,
      "velocity": 111,
      "chip": "ym2612"
    },
    {
      "channel": 2,
      "note": 49,
      "start": 6.3269,
      "duration": 0.0134,
      "velocity": 108,
      "chip": "ym2612"
    },
    {
      "channel": 0,
      "note": 54,
      "start": 6.3563,
      "duration": 0.0167,
      "velocity": 111,
      "chip": "ym2612"
    },
    {
      "channel": 1,
      "note": 88,
      "start": 6.357,
      "duration": 0.0215,
      "velocity": 102,
      "chip": "ym2612"
    },
    {
      "channel": 2,
      "note": 54,
      "start": 6.3575,
      "duration": 0.0159,
      "velocity": 108,
      "chip": "ym2612"
    },
    {
      "channel": 4,
      "note": 81,
      "start": 6.3584,
      "duration": 0.0085,
      "velocity": 119,
      "chip": "ym2612"
    },
    {
      "channel": 0,
      "note": 54,
      "start": 6.3756,
      "duration": 0.1001,
      "velocity": 111,
      "chip": "ym2612"
    },
    {
      "channel": 2,
      "note": 54,
      "start": 6.3763,
      "duration": 0.0998,
      "velocity": 108,
      "chip": "ym2612"
    },
    {
      "channel": 3,
      "note": 88,
      "start": 6.4266,
      "duration": 0.0842,
      "velocity": 102,
      "chip": "ym2612"
    },
    {
      "channel": 0,
      "note": 54,
      "start": 6.4929,
      "duration": 0.0173,
      "velocity": 111,
      "chip": "ym2612"
    },
    {
      "channel": 1,
      "note": 90,
      "start": 6.4935,
      "duration": 0.0245,
      "velocity": 102,
      "chip": "ym2612"
    },
    {
      "channel": 2,
      "note": 61,
      "start": 6.4941,
      "duration": 0.0165,
      "velocity": 108,
      "chip": "ym2612"
    },
    {
      "channel": 4,
      "note": 81,
      "start": 6.495,
      "duration": 0.0088,
      "velocity": 119,
      "chip": "ym2612"
    },
    {
      "channel": 0,
      "note": 54,
      "start": 6.515,
      "duration": 0.0425,
      "velocity": 111,
      "chip": "ym2612"
    },
    {
      "channel": 2,
      "note": 54,
      "start": 6.5158,
      "duration": 0.0422,
      "velocity": 108,
      "chip": "ym2612"
    },
    {
      "channel": 3,
      "note": 90,
      "start": 6.5255,
      "duration": 0.0845,
      "velocity": 102,
      "chip": "ym2612"
    },
    {
      "channel": 0,
      "note": 54,
      "start": 6.5915,
      "duration": 0.0179,
      "velocity": 111,
      "chip": "ym2612"
    },
    {
      "channel": 1,
      "note": 88,
      "start": 6.5921,
      "duration": 0.0243,
      "velocity": 102,
      "chip": "ym2612"
    },
    {
      "channel": 2,
      "note": 59,
      "start": 6.5927,
      "duration": 0.0171,
      "velocity": 108,
      "chip": "ym2612"
    },
    {
      "channel": 4,
      "note": 81,
      "start": 6.5936,
      "duration": 0.0093,
      "velocity": 119,
      "chip": "ym2612"
    },
    {
      "channel": 0,
      "note": 54,
      "start": 6.6131,
      "duration": 0.0168,
      "velocity": 111,
      "chip": "ym2612"
    },
    {
      "channel": 2,
      "note": 54,
      "start": 6.6139,
      "duration": 0.0163,
      "velocity": 108,
      "chip": "ym2612"
    },
    {
      "channel": 3,
      "note": 88,
      "start": 6.6243,
      "duration": 0.0261,
      "velocity": 102,
      "chip": "ym2612"
    },
    {
      "channel": 0,
      "note": 54,
      "start": 6.6338,
      "duration": 0.0159,
      "velocity": 111,
      "chip": "ym2612"
    },
    {
      "channel": 1,
      "note": 90,
      "start": 6.6345,
      "duration": 0.0128,
      "velocity": 102,
      "chip": "ym2612"
    },
    {
      "channel": 2,
      "note": 61,
      "start": 6.635,
      "duration": 0.0151,
      "velocity": 108,
      "chip": "ym2612"
    },
    {
      "channel": 4,
      "note": 81,
      "start": 6.6359,
      "duration": 0.0085,
      "velocity": 119,
      "chip": "ym2612"
    },
    {
      "channel": 0,
      "note": 54,
      "start": 6.6542,
      "duration": 0.0594,
      "velocity": 111,
      "chip": "ym2612"
    },
    {
      "channel": 1,
      "note": 92,
      "start": 6.6549,
      "duration": 0.0254,
      "velocity": 102,
      "chip": "ym2612"
    },
    {
      "channel": 2,
      "note": 54,
      "start": 6.6554,
      "duration": 0.0585,
      "velocity": 108,
      "chip": "ym2612"
    },
    {
      "channel": 3,
      "note": 90,
      "start": 6.6649,
      "duration": 0.07,
      "velocity": 102,
      "chip": "ym2612"
    },
    {
      "channel": 0,
      "note": 54,
      "start": 6.7308,
      "duration": 0.0154,
      "velocity": 111,
      "chip": "ym2612"
    },
    {
      "channel": 2,
      "note": 54,
      "start": 6.7317,
      "duration": 0.0149,
      "velocity": 108,
      "chip": "ym2612"
    },
    {
      "channel": 4,
      "note": 81,
      "start": 6.7325,
      "duration": 0.0089,
      "velocity": 119,
      "chip": "ym2612"
    },
    {
      "channel": 3,
      "note": 92,
      "start": 6.7413,
      "duration": 0.0256,
      "velocity": 102,
      "chip": "ym2612"
    },
    {
      "channel": 0,
      "note": 54,
      "start": 6.7486,
      "duration": 0.1017,
      "velocity": 111,
      "chip": "ym2612"
    },
    {
      "channel": 1,
      "note": 92,
      "start": 6.7492,
      "duration": 0.0845,
      "velocity": 102,
      "chip": "ym2612"
    },
    {
      "channel": 2,
      "note": 54,
      "start": 6.7497,
      "duration": 0.101,
      "velocity": 108,
      "chip": "ym2612"
    },
    {
      "channel": 0,
      "note": 66,
      "start": 6.8676,
      "duration": 0.0487,
      "velocity": 111,
      "chip": "ym2612"
    },
    {
      "channel": 1,
      "note": 95,
      "start": 6.8683,
      "duration": 0.0243,
      "velocity": 102,
      "chip": "ym2612"
    },
    {
      "channel": 2,
      "note": 66,
      "start": 6.8691,
      "duration": 0.0809,
      "velocity": 108,
      "chip": "ym2612"
    },
    {
      "channel": 4,
      "note": 81,
      "start": 6.87,
      "duration": 0.0114,
      "velocity": 119,
      "chip": "ym2612"
    },
    {
      "channel": 3,
      "note": 92,
      "start": 6.8812,
      "duration": 0.0117,
      "velocity": 102,
      "chip": "ym2612"
    },
    {
      "channel": 3,
      "note": 95,
      "start": 6.9008,
      "duration": 0.0839,
      "velocity": 102,
      "chip": "ym2612"
    },
    {
      "channel": 0,
      "note": 54,
      "start": 6.9669,
      "duration": 0.0171,
      "velocity": 111,
      "chip": "ym2612"
    },
    {
      "channel": 1,
      "note": 92,
      "start": 6.9676,
      "duration": 0.0251,
      "velocity": 102,
      "chip": "ym2612"
    },
    {
      "channel": 2,
      "note": 54,
      "start": 6.9682,
      "duration": 0.0162,
      "velocity": 108,
      "chip": "ym2612"
    },
    {
      "channel": 4,
      "note": 81,
      "start": 6.9691,
      "duration": 0.0085,
      "velocity": 119,
      "chip": "ym2612"
    },
    {
      "channel": 0,
      "note": 54,
      "start": 6.9873,
      "duration": 0.0165,
      "velocity": 111,
      "chip": "ym2612"
    },
    {
      "channel": 2,
      "note": 54,
      "start": 6.988,
      "duration": 0.0161,
      "velocity": 108,
      "chip": "ym2612"
    },
    {
      "channel": 3,
      "note": 92,
      "start": 6.9982,
      "duration": 0.0273,
      "velocity": 102,
      "chip": "ym2612"
    },
    {
      "channel": 0,
      "note": 66,
      "start": 7.0076,
      "duration": 0.0472,
      "velocity": 111,
      "chip": "ym2612"
    },
    {
      "channel": 1,
      "note": 95,
      "start": 7.0082,
      "duration": 0.0233,
      "velocity": 102,
      "chip": "ym2612"
    },
    {
      "channel": 2,
      "note": 66,
      "start": 7.0088,
      "duration": 0.0797,
      "velocity": 108,
      "chip": "ym2612"
    },
    {
      "channel": 4,
      "note": 81,
      "start": 7.0097,
      "duration": 0.0109,
      "velocity": 119,
      "chip": "ym2612"
    },
    {
      "channel": 3,
      "note": 95,
      "start": 7.0392,
      "duration": 0.0841,
      "velocity": 102,
      "chip": "ym2612"
    },
    {
      "channel": 0,
      "note": 61,
      "start": 7.1055,
      "duration": 0.0171,
      "velocity": 111,
      "chip": "ym2612"
    },
    {
      "channel": 1,
      "note": 97,
      "start": 7.1061,
      "duration": 0.0121,
      "velocity": 102,
      "chip": "ym2612"
    },
    {
      "channel": 2,
      "note": 61,
      "start": 7.1067,
      "duration": 0.0163,
      "velocity": 108,
      "chip": "ym2612"
    },
    {
      "channel": 0,
      "note": 49,
      "start": 7.126,
      "duration": 0.0162,
      "velocity": 111,
      "chip": "ym2612"
    },
    {
      "channel": 1,
      "note": 92,
      "start": 7.1266,
      "duration": 0.0136,
      "velocity": 102,
      "chip": "ym2612"
    },
    {
      "channel": 2,
      "note": 56,
      "start": 7.1272,
      "duration": 0.0155,
      "velocity": 108,
      "chip": "ym2612"
    },
    {
      "channel": 3,
      "note": 97,
      "start": 7.1366,
      "duration": 0.0161,
      "velocity": 102,
      "chip": "ym2612"
    },
    {
      "channel": 0,
      "note": 49,
      "start": 7.1461,
      "duration": 0.0172,
      "velocity": 111,
      "chip": "ym2612"
    },
    {
      "channel": 1,
      "note": 85,
      "start": 7.1468,
      "duration": 0.0141,
      "velocity": 102,
      "chip": "ym2612"
    },
    {
      "channel": 2,
      "note": 49,
      "start": 7.1474,
      "duration": 0.0164,
      "velocity": 108,
      "chip": "ym2612"
    },
    {
      "channel": 3,
      "note": 92,
      "start": 7.1591,
      "duration": 0.0139,
      "velocity": 102,
      "chip": "ym2612"
    },
    {
      "channel": 0,
      "note": 61,
      "start": 7.1686,
      "duration": 0.0159,
      "velocity": 111,
      "chip": "ym2612"
    },
    {
      "channel": 1,
      "note": 95,
      "start": 7.1693,
      "duration": 0.0113,
      "velocity": 102,
      "chip": "ym2612"
    },
    {
      "channel": 2,
      "note": 59,
      "start": 7.1698,
      "duration": 0.0151,
      "velocity": 108,
      "chip": "ym2612"
    },
    {
      "channel": 3,
      "note": 85,
      "start": 7.1793,
      "duration": 0.0122,
      "velocity": 102,
      "chip": "ym2612"
    },
    {
      "channel": 0,
      "note": 49,
      "start": 7.1873,
      "duration": 0.0159,
      "velocity": 111,
      "chip": "ym2612"
    },
    {
      "channel": 1,
      "note": 92,
      "start": 7.1879,
      "duration": 0.0117,
      "velocity": 102,
      "chip": "ym2612"
    },
    {
      "channel": 2,
      "note": 56,
      "start": 7.1885,
      "duration": 0.015,
      "velocity": 108,
      "chip": "ym2612"
    },
    {
      "channel": 3,
      "note": 95,
      "start": 7.1983,
      "duration": 0.0148,
      "velocity": 102,
      "chip": "ym2612"
    },
    {
      "channel": 0,
      "note": 49,
      "start": 7.2068,
      "duration": 0.0166,
      "velocity": 111,
      "chip": "ym2612"
    },
    {
      "channel": 1,
      "note": 85,
      "start": 7.2075,
      "duration": 0.0136,
      "velocity": 102,
      "chip": "ym2612"
    },
    {
      "channel": 2,
      "note": 49,
      "start": 7.208,
      "duration": 0.0159,
      "velocity": 108,
      "chip": "ym2612"
    },
    {
      "channel": 3,
      "note": 92,
      "start": 7.2178,
      "duration": 0.0156,
      "velocity": 102,
      "chip": "ym2612"
    },
    {
      "channel": 0,
      "note": 61,
      "start": 7.2269,
      "duration": 0.0165,
      "velocity": 111,
      "chip": "ym2612"
    },
    {
      "channel": 1,
      "note": 94,
      "start": 7.2276,
      "duration": 0.0135,
      "velocity": 102,
      "chip": "ym2612"
    },
    {
      "channel": 2,
      "note": 58,
      "start": 7.2282,
      "duration": 0.0157,
      "velocity": 108,
      "chip": "ym2612"
    },
    {
      "channel": 3,
      "note": 85,
      "start": 7.2394,
      "duration": 0.0128,
      "velocity": 102,
      "chip": "ym2612"
    },
    {
      "channel": 0,
      "note": 49,
      "start": 7.2481,
      "duration": 0.0165,
      "velocity": 111,
      "chip": "ym2612"
    },
    {
      "channel": 1,
      "note": 92,
      "start": 7.2487,
      "duration": 0.0117,
      "velocity": 102,
      "chip": "ym2612"
    },
    {
      "channel": 2,
      "note": 56,
      "start": 7.2493,
      "duration": 0.0157,
      "velocity": 108,
      "chip": "ym2612"
    },
    {
      "channel": 3,
      "note": 94,
      "start": 7.2587,
      "duration": 0.0146,
      "velocity": 102,
      "chip": "ym2612"
    },
    {
      "channel": 0,
      "note": 49,
      "start": 7.2683,
      "duration": 0.0183,
      "velocity": 111,
      "chip": "ym2612"
    },
    {
      "channel": 1,
      "note": 85,
      "start": 7.269,
      "duration": 0.0153,
      "velocity": 102,
      "chip": "ym2612"
    },
    {
      "channel": 2,
      "note": 68,
      "start": 7.2699,
      "duration": 0.0171,
      "velocity": 108,
      "chip": "ym2612"
    },
    {
      "channel": 3,
      "note": 92,
      "start": 7.2807,
      "duration": 0.0147,
      "velocity": 102,
      "chip": "ym2612"
    },
    {
      "channel": 0,
      "note": 49,
      "start": 7.2891,
      "duration": 0.0165,
      "velocity": 111,
      "chip": "ym2612"
    },
    {
      "channel": 1,
      "note": 85,
      "start": 7.2898,
      "duration": 0.0139,
      "velocity": 102,
      "chip": "ym2612"
    },
    {
      "channel": 2,
      "note": 68,
      "start": 7.2904,
      "duration": 0.0158,
      "velocity": 108,
      "chip": "ym2612"
    },
    {
      "channel": 3,
      "note": 85,
      "start": 7.3005,
      "duration": 0.0143,
      "velocity": 102,
      "chip": "ym2612"
    },
    {
      "channel": 0,
      "note": 49,
      "start": 7.3098,
      "duration": 0.0162,
      "velocity": 111,
      "chip": "ym2612"
    },
    {
      "channel": 1,
      "note": 85,
      "start": 7.3105,
      "duration": 0.0132,
      "velocity": 102,
      "chip": "ym2612"
    },
    {
      "channel": 2,
      "note": 68,
      "start": 7.311,
      "duration": 0.0156,
      "velocity": 108,
      "chip": "ym2612"
    },
    {
      "channel": 3,
      "note": 85,
      "start": 7.322,
      "duration": 0.0128,
      "velocity": 102,
      "chip": "ym2612"
    },
    {
      "channel": 0,
      "note": 49,
      "start": 7.3305,
      "duration": 0.0173,
      "velocity": 111,
      "chip": "ym2612"
    },
    {
      "channel": 1,
      "note": 85,
      "start": 7.3311,
      "duration": 0.0127,
      "velocity": 102,
      "chip": "ym2612"
    },
    {
      "channel": 2,
      "note": 68,
      "start": 7.3317,
      "duration": 0.0164,
      "velocity": 108,
      "chip": "ym2612"
    },
    {
      "channel": 3,
      "note": 85,
      "start": 7.3421,
      "duration": 0.0128,
      "velocity": 102,
      "chip": "ym2612"
    },
    {
      "channel": 0,
      "note": 49,
      "start": 7.351,
      "duration": 0.0144,
      "velocity": 111,
      "chip": "ym2612"
    },
    {
      "channel": 2,
      "note": 49,
      "start": 7.3519,
      "duration": 0.0137,
      "velocity": 108,
      "chip": "ym2612"
    },
    {
      "channel": 3,
      "note": 85,
      "start": 7.3607,
      "duration": 0.0108,
      "velocity": 102,
      "chip": "ym2612"
    },
    {
      "channel": 0,
      "note": 56,
      "start": 7.3671,
      "duration": 0.0119,
      "velocity": 111,
      "chip": "ym2612"
    },
    {
      "channel": 2,
      "note": 56,
      "start": 7.3677,
      "duration": 0.0116,
      "velocity": 108,
      "chip": "ym2612"
    },
    {
      "channel": 0,
      "note": 59,
      "start": 7.3826,
      "duration": 0.0098,
      "velocity": 111,
      "chip": "ym2612"
    },
    {
      "channel": 2,
      "note": 59,
      "start": 7.3832,
      "duration": 0.0094,
      "velocity": 108,
      "chip": "ym2612"
    },
    {
      "channel": 0,
      "note": 61,
      "start": 7.3956,
      "duration": 0.0098,
      "velocity": 111,
      "chip": "ym2612"
    },
    {
      "channel": 2,
      "note": 61,
      "start": 7.3961,
      "duration": 0.0095,
      "velocity": 108,
      "chip": "ym2612"
    },
    {
      "channel": 0,
      "note": 52,
      "start": 7.408,
      "duration": 0.0208,
      "velocity": 111,
      "chip": "ym2612"
    },
    {
      "channel": 1,
      "note": 88,
      "start": 7.4102,
      "duration": 0.2673,
      "velocity": 101,
      "chip": "ym2612"
    },
    {
      "channel": 2,
      "note": 52,
      "start": 7.4113,
      "duration": 0.018,
      "velocity": 108,
      "chip": "ym2612"
    },
    {
      "channel": 4,
      "note": 81,
      "start": 7.4146,
      "duration": 0.008,
      "velocity": 119,
      "chip": "ym2612"
    },
    {
      "channel": 0,
      "note": 52,
      "start": 7.4315,
      "duration": 0.0944,
      "velocity": 111,
      "chip": "ym2612"
    },
    {
      "channel": 2,
      "note": 52,
      "start": 7.4322,
      "duration": 0.0941,
      "velocity": 108,
      "chip": "ym2612"
    },
    {
      "channel": 3,
      "note": 88,
      "start": 7.4771,
      "duration": 0.2298,
      "velocity": 101,
      "chip": "ym2612"
    },
    {
      "channel": 0,
      "note": 56,
      "start": 7.5598,
      "duration": 0.0153,
      "velocity": 111,
      "chip": "ym2612"
    },
    {
      "channel": 2,
      "note": 59,
      "start": 7.5606,
      "duration": 0.015,
      "velocity": 108,
      "chip": "ym2612"
    },
    {
      "channel": 4,
      "note": 81,
      "start": 7.5615,
      "duration": 0.0093,
      "velocity": 119,
      "chip": "ym2612"
    },
    {
      "channel": 0,
      "note": 56,
      "start": 7.5805,
      "duration": 0.0186,
      "velocity": 111,
      "chip": "ym2612"
    },
    {
      "channel": 2,
      "note": 52,
      "start": 7.5813,
      "duration": 0.0181,
      "velocity": 108,
      "chip": "ym2612"
    },
    {
      "channel": 0,
      "note": 57,
      "start": 7.6022,
      "duration": 0.0192,
      "velocity": 111,
      "chip": "ym2612"
    },
    {
      "channel": 2,
      "note": 52,
      "start": 7.603,
      "duration": 0.0187,
      "velocity": 108,
      "chip": "ym2612"
    },
    {
      "channel": 4,
      "note": 81,
      "start": 7.6039,
      "duration": 0.0105,
      "velocity": 119,
      "chip": "ym2612"
    },
    {
      "channel": 0,
      "note": 57,
      "start": 7.6256,
      "duration": 0.0174,
      "velocity": 111,
      "chip": "ym2612"
    },
    {
      "channel": 2,
      "note": 59,
      "start": 7.6264,
      "duration": 0.017,
      "velocity": 108,
      "chip": "ym2612"
    },
    {
      "channel": 0,
      "note": 59,
      "start": 7.6489,
      "duration": 0.0164,
      "velocity": 111,
      "chip": "ym2612"
    },
    {
      "channel": 2,
      "note": 52,
      "start": 7.6496,
      "duration": 0.0161,
      "velocity": 108,
      "chip": "ym2612"
    },
    {
      "channel": 4,
      "note": 81,
      "start": 7.6505,
      "duration": 0.0095,
      "velocity": 119,
      "chip": "ym2612"
    },
    {
      "channel": 0,
      "note": 59,
      "start": 7.6682,
      "duration": 0.0155,
      "velocity": 111,
      "chip": "ym2612"
    },
    {
      "channel": 2,
      "note": 52,
      "start": 7.6689,
      "duration": 0.0152,
      "velocity": 108,
      "chip": "ym2612"
    },
    {
      "channel": 0,
      "note": 51,
      "start": 7.6865,
      "duration": 0.0166,
      "velocity": 111,
      "chip": "ym2612"
    },
    {
      "channel": 1,
      "note": 87,
      "start": 7.6871,
      "duration": 0.1862,
      "velocity": 101,
      "chip": "ym2612"
    },
    {
      "channel": 2,
      "note": 51,
      "start": 7.6877,
      "duration": 0.0159,
      "velocity": 108,
      "chip": "ym2612"
    },
    {
      "channel": 4,
      "note": 81,
      "start": 7.6885,
      "duration": 0.0084,
      "velocity": 119,
      "chip": "ym2612"
    },
    {
      "channel": 0,
      "note": 51,
      "start": 7.706,
      "duration": 0.0989,
      "velocity": 111,
      "chip": "ym2612"
    },
    {
      "channel": 2,
      "note": 51,
      "start": 7.7067,
      "duration": 0.0986,
      "velocity": 108,
      "chip": "ym2612"
    },
    {
      "channel": 3,
      "note": 87,
      "start": 7.7725,
      "duration": 0.1314,
      "velocity": 101,
      "chip": "ym2612"
    },
    {
      "channel": 0,
      "note": 51,
      "start": 7.8388,
      "duration": 0.017,
      "velocity": 111,
      "chip": "ym2612"
    },
    {
      "channel": 2,
      "note": 58,
      "start": 7.8396,
      "duration": 0.0166,
      "velocity": 108,
      "chip": "ym2612"
    },
    {
      "channel": 4,
      "note": 81,
      "start": 7.8405,
      "duration": 0.0092,
      "velocity": 119,
      "chip": "ym2612"
    },
    {
      "channel": 0,
      "note": 51,
      "start": 7.8583,
      "duration": 0.0149,
      "velocity": 111,
      "chip": "ym2612"
    },
    {
      "channel": 2,
      "note": 51,
      "start": 7.8591,
      "duration": 0.0144,
      "velocity": 108,
      "chip": "ym2612"
    },
    {
      "channel": 0,
      "note": 50,
      "start": 7.8763,
      "duration": 0.0163,
      "velocity": 111,
      "chip": "ym2612"
    },
    {
      "channel": 1,
      "note": 86,
      "start": 7.877,
      "duration": 0.0783,
      "velocity": 101,
      "chip": "ym2612"
    },
    {
      "channel": 2,
      "note": 50,
      "start": 7.8775,
      "duration": 0.0155,
      "velocity": 108,
      "chip": "ym2612"
    },
    {
      "channel": 4,
      "note": 81,
      "start": 7.8784,
      "duration": 0.0084,
      "velocity": 119,
      "chip": "ym2612"
    },
    {
      "channel": 0,
      "note": 50,
      "start": 7.8958,
      "duration": 0.0168,
      "velocity": 111,
      "chip": "ym2612"
    },
    {
      "channel": 2,
      "note": 57,
      "start": 7.8965,
      "duration": 0.0165,
      "velocity": 108,
      "chip": "ym2612"
    },
    {
      "channel": 3,
      "note": 86,
      "start": 7.9083,
      "duration": 0.0768,
      "velocity": 101,
      "chip": "ym2612"
    },
    {
      "channel": 0,
      "note": 50,
      "start": 7.9184,
      "duration": 0.018,
      "velocity": 111,
      "chip": "ym2612"
    },
    {
      "channel": 2,
      "note": 50,
      "start": 7.9191,
      "duration": 0.0176,
      "velocity": 108,
      "chip": "ym2612"
    },
    {
      "channel": 4,
      "note": 81,
      "start": 7.92,
      "duration": 0.0102,
      "velocity": 119,
      "chip": "ym2612"
    },
    {
      "channel": 0,
      "note": 50,
      "start": 7.9392,
      "duration": 0.0158,
      "velocity": 111,
      "chip": "ym2612"
    },
    {
      "channel": 2,
      "note": 50,
      "start": 7.94,
      "duration": 0.0155,
      "velocity": 108,
      "chip": "ym2612"
    },
    {
      "channel": 0,
      "note": 49,
      "start": 7.9579,
      "duration": 0.0173,
      "velocity": 111,
      "chip": "ym2612"
    },
    {
      "channel": 1,
      "note": 86,
      "start": 7.9585,
      "duration": 0.0059,
      "velocity": 101,
      "chip": "ym2612"
    },
    {
      "channel": 2,
      "note": 49,
      "start": 7.9591,
      "duration": 0.0165,
      "velocity": 108,
      "chip": "ym2612"
    },
    {
      "channel": 4,
      "note": 81,
      "start": 7.96,
      "duration": 0.0094,
      "velocity": 119,
      "chip": "ym2612"
    },
    {
      "channel": 1,
      "note": 88,
      "start": 7.9644,
      "duration": 0.0292,
      "velocity": 101,
      "chip": "ym2612"
    },
    {
      "channel": 0,
      "note": 49,
      "start": 7.9781,
      "duration": 0.0153,
      "velocity": 111,
      "chip": "ym2612"
    },
    {
      "channel": 2,
      "note": 49,
      "start": 7.9788,
      "duration": 0.015,
      "velocity": 108,
      "chip": "ym2612"
    },
    {
      "channel": 3,
      "note": 86,
      "start": 7.9897,
      "duration": 0.0024,
      "velocity": 101,
      "chip": "ym2612"
    },
    {
      "channel": 3,
      "note": 88,
      "start": 7.9921,
      "duration": 0.0348,
      "velocity": 101,
      "chip": "ym2612"
    },
    {
      "channel": 0,
      "note": 61,
      "start": 7.9991,
      "duration": 0.0171,
      "velocity": 111,
      "chip": "ym2612"
    },
    {
      "channel": 1,
      "note": 85,
      "start": 7.9997,
      "duration": 0.3546,
      "velocity": 101,
      "chip": "ym2612"
    },
    {
      "channel": 2,
      "note": 61,
      "start": 8.0003,
      "duration": 0.0163,
      "velocity": 108,
      "chip": "ym2612"
    },
    {
      "channel": 4,
      "note": 81,
      "start": 8.0016,
      "duration": 0.0084,
      "velocity": 119,
      "chip": "ym2612"
    },
    {
      "channel": 0,
      "note": 49,
      "start": 8.019,
      "duration": 0.0452,
      "velocity": 111,
      "chip": "ym2612"
    },
    {
      "channel": 2,
      "note": 49,
      "start": 8.02,
      "duration": 0.0445,
      "velocity": 108,
      "chip": "ym2612"
    },
    {
      "channel": 3,
      "note": 85,
      "start": 8.0299,
      "duration": 0.3567,
      "velocity": 101,
      "chip": "ym2612"
    },
    {
      "channel": 0,
      "note": 59,
      "start": 8.0816,
      "duration": 0.0156,
      "velocity": 111,
      "chip": "ym2612"
    },
    {
      "channel": 2,
      "note": 59,
      "start": 8.0824,
      "duration": 0.0152,
      "velocity": 108,
      "chip": "ym2612"
    },
    {
      "channel": 4,
      "note": 81,
      "start": 8.0833,
      "duration": 0.0083,
      "velocity": 119,
      "chip": "ym2612"
    },
    {
      "channel": 0,
      "note": 49,
      "start": 8.1008,
      "duration": 0.0176,
      "velocity": 111,
      "chip": "ym2612"
    },
    {
      "channel": 2,
      "note": 49,
      "start": 8.1016,
      "duration": 0.0173,
      "velocity": 108,
      "chip": "ym2612"
    },
    {
      "channel": 0,
      "note": 58,
      "start": 8.125,
      "duration": 0.0191,
      "velocity": 111,
      "chip": "ym2612"
    },
    {
      "channel": 2,
      "note": 58,
      "start": 8.1259,
      "duration": 0.0185,
      "velocity": 108,
      "chip": "ym2612"
    },
    {
      "channel": 4,
      "note": 81,
      "start": 8.1268,
      "duration": 0.0105,
      "velocity": 119,
      "chip": "ym2612"
    },
    {
      "channel": 0,
      "note": 49,
      "start": 8.1469,
      "duration": 0.0423,
      "velocity": 111,
      "chip": "ym2612"
    },
    {
      "channel": 2,
      "note": 49,
      "start": 8.1476,
      "duration": 0.042,
      "velocity": 108,
      "chip": "ym2612"
    },
    {
      "channel": 0,
      "note": 59,
      "start": 8.2064,
      "duration": 0.0183,
      "velocity": 111,
      "chip": "ym2612"
    },
    {
      "channel": 2,
      "note": 59,
      "start": 8.2073,
      "duration": 0.0178,
      "velocity": 108,
      "chip": "ym2612"
    },
    {
      "channel": 4,
      "note": 81,
      "start": 8.2081,
      "duration": 0.0099,
      "velocity": 119,
      "chip": "ym2612"
    },
    {
      "channel": 0,
      "note": 49,
      "start": 8.2302,
      "duration": 0.0157,
      "velocity": 111,
      "chip": "ym2612"
    },
    {
      "channel": 2,
      "note": 49,
      "start": 8.231,
      "duration": 0.0153,
      "velocity": 108,
      "chip": "ym2612"
    },
    {
      "channel": 0,
      "note": 58,
      "start": 8.2507,
      "duration": 0.0185,
      "velocity": 111,
      "chip": "ym2612"
    },
    {
      "channel": 2,
      "note": 58,
      "start": 8.2514,
      "duration": 0.0181,
      "velocity": 108,
      "chip": "ym2612"
    },
    {
      "channel": 4,
      "note": 81,
      "start": 8.2523,
      "duration": 0.0102,
      "velocity": 119,
      "chip": "ym2612"
    },
    {
      "channel": 0,
      "note": 49,
      "start": 8.2722,
      "duration": 0.0159,
      "velocity": 111,
      "chip": "ym2612"
    },
    {
      "channel": 2,
      "note": 49,
      "start": 8.2729,
      "duration": 0.0156,
      "velocity": 108,
      "chip": "ym2612"
    },
    {
      "channel": 0,
      "note": 59,
      "start": 8.2911,
      "duration": 0.0172,
      "velocity": 111,
      "chip": "ym2612"
    },
    {
      "channel": 2,
      "note": 59,
      "start": 8.292,
      "duration": 0.0167,
      "velocity": 108,
      "chip": "ym2612"
    },
    {
      "channel": 4,
      "note": 81,
      "start": 8.2928,
      "duration": 0.0093,
      "velocity": 119,
      "chip": "ym2612"
    },
    {
      "channel": 0,
      "note": 49,
      "start": 8.3132,
      "duration": 0.0141,
      "velocity": 111,
      "chip": "ym2612"
    },
    {
      "channel": 2,
      "note": 49,
      "start": 8.314,
      "duration": 0.0137,
      "velocity": 108,
      "chip": "ym2612"
    },
    {
      "channel": 0,
      "note": 58,
      "start": 8.3321,
      "duration": 0.0163,
      "velocity": 111,
      "chip": "ym2612"
    },
    {
      "channel": 2,
      "note": 58,
      "start": 8.3329,
      "duration": 0.0159,
      "velocity": 108,
      "chip": "ym2612"
    },
    {
      "channel": 4,
      "note": 81,
      "start": 8.3337,
      "duration": 0.0088,
      "velocity": 119,
      "chip": "ym2612"
    },
    {
      "channel": 0,
      "note": 49,
      "start": 8.3512,
      "duration": 0.0155,
      "velocity": 111,
      "chip": "ym2612"
    },
    {
      "channel": 2,
      "note": 49,
      "start": 8.352,
      "duration": 0.0151,
      "velocity": 108,
      "chip": "ym2612"
    },
    {
      "channel": 0,
      "note": 52,
      "start": 8.371,
      "duration": 0.0178,
      "velocity": 111,
      "chip": "ym2612"
    },
    {
      "channel": 1,
      "note": 88,
      "start": 8.3716,
      "duration": 0.2658,
      "velocity": 101,
      "chip": "ym2612"
    },
    {
      "channel": 2,
      "note": 52,
      "start": 8.3722,
      "duration": 0.0169,
      "velocity": 108,
      "chip": "ym2612"
    },
    {
      "channel": 4,
      "note": 81,
      "start": 8.3734,
      "duration": 0.009,
      "velocity": 119,
      "chip": "ym2612"
    },
    {
      "channel": 0,
      "note": 52,
      "start": 8.3935,
      "duration": 0.0963,
      "velocity": 111,
      "chip": "ym2612"
    },
    {
      "channel": 2,
      "note": 52,
      "start": 8.3945,
      "duration": 0.096,
      "velocity": 108,
      "chip": "ym2612"
    },
    {
      "channel": 3,
      "note": 88,
      "start": 8.4577,
      "duration": 0.2122,
      "velocity": 101,
      "chip": "ym2612"
    },
    {
      "channel": 0,
      "note": 56,
      "start": 8.524,
      "duration": 0.0179,
      "velocity": 111,
      "chip": "ym2612"
    },
    {
      "channel": 2,
      "note": 71,
      "start": 8.5248,
      "duration": 0.0175,
      "velocity": 108,
      "chip": "ym2612"
    },
    {
      "channel": 4,
      "note": 81,
      "start": 8.5256,
      "duration": 0.0095,
      "velocity": 119,
      "chip": "ym2612"
    },
    {
      "channel": 0,
      "note": 56,
      "start": 8.5444,
      "duration": 0.0178,
      "velocity": 111,
      "chip": "ym2612"
    },
    {
      "channel": 2,
      "note": 52,
      "start": 8.5453,
      "duration": 0.0173,
      "velocity": 108,
      "chip": "ym2612"
    },
    {
      "channel": 0,
      "note": 57,
      "start": 8.5652,
      "duration": 0.0188,
      "velocity": 111,
      "chip": "ym2612"
    },
    {
      "channel": 2,
      "note": 52,
      "start": 8.566,
      "duration": 0.0183,
      "velocity": 108,
      "chip": "ym2612"
    },
    {
      "channel": 4,
      "note": 81,
      "start": 8.5669,
      "duration": 0.0104,
      "velocity": 119,
      "chip": "ym2612"
    },
    {
      "channel": 0,
      "note": 57,
      "start": 8.5894,
      "duration": 0.0168,
      "velocity": 111,
      "chip": "ym2612"
    },
    {
      "channel": 2,
      "note": 71,
      "start": 8.5901,
      "duration": 0.0165,
      "velocity": 108,
      "chip": "ym2612"
    },
    {
      "channel": 0,
      "note": 59,
      "start": 8.6097,
      "duration": 0.016,
      "velocity": 111,
      "chip": "ym2612"
    },
    {
      "channel": 2,
      "note": 52,
      "start": 8.6104,
      "duration": 0.0156,
      "velocity": 108,
      "chip": "ym2612"
    },
    {
      "channel": 4,
      "note": 81,
      "start": 8.6113,
      "duration": 0.009,
      "velocity": 119,
      "chip": "ym2612"
    },
    {
      "channel": 0,
      "note": 59,
      "start": 8.6286,
      "duration": 0.0151,
      "velocity": 111,
      "chip": "ym2612"
    },
    {
      "channel": 2,
      "note": 52,
      "start": 8.6293,
      "duration": 0.0147,
      "velocity": 108,
      "chip": "ym2612"
    },
    {
      "channel": 0,
      "note": 51,
      "start": 8.6465,
      "duration": 0.0176,
      "velocity": 111,
      "chip": "ym2612"
    },
    {
      "channel": 1,
      "note": 87,
      "start": 8.6471,
      "duration": 0.1876,
      "velocity": 101,
      "chip": "ym2612"
    },
    {
      "channel": 2,
      "note": 51,
      "start": 8.6476,
      "duration": 0.0168,
      "velocity": 108,
      "chip": "ym2612"
    },
    {
      "channel": 4,
      "note": 81,
      "start": 8.6485,
      "duration": 0.0114,
      "velocity": 119,
      "chip": "ym2612"
    },
    {
      "channel": 0,
      "note": 51,
      "start": 8.6691,
      "duration": 0.1136,
      "velocity": 111,
      "chip": "ym2612"
    },
    {
      "channel": 2,
      "note": 51,
      "start": 8.6698,
      "duration": 0.1132,
      "velocity": 108,
      "chip": "ym2612"
    },
    {
      "channel": 3,
      "note": 87,
      "start": 8.7334,
      "duration": 0.1323,
      "velocity": 101,
      "chip": "ym2612"
    },
    {
      "channel": 0,
      "note": 51,
      "start": 8.7998,
      "duration": 0.0161,
      "velocity": 111,
      "chip": "ym2612"
    },
    {
      "channel": 2,
      "note": 70,
      "start": 8.8006,
      "duration": 0.0157,
      "velocity": 108,
      "chip": "ym2612"
    },
    {
      "channel": 4,
      "note": 81,
      "start": 8.8015,
      "duration": 0.0087,
      "velocity": 119,
      "chip": "ym2612"
    },
    {
      "channel": 0,
      "note": 51,
      "start": 8.8188,
      "duration": 0.0158,
      "velocity": 111,
      "chip": "ym2612"
    },
    {
      "channel": 2,
      "note": 51,
      "start": 8.8196,
      "duration": 0.0153,
      "velocity": 108,
      "chip": "ym2612"
    },
    {
      "channel": 0,
      "note": 50,
      "start": 8.8374,
      "duration": 0.0181,
      "velocity": 111,
      "chip": "ym2612"
    },
    {
      "channel": 1,
      "note": 86,
      "start": 8.838,
      "duration": 0.0793,
      "velocity": 101,
      "chip": "ym2612"
    },
    {
      "channel": 2,
      "note": 50,
      "start": 8.8386,
      "duration": 0.0173,
      "velocity": 108,
      "chip": "ym2612"
    },
    {
      "channel": 4,
      "note": 81,
      "start": 8.8395,
      "duration": 0.012,
      "velocity": 119,
      "chip": "ym2612"
    },
    {
      "channel": 0,
      "note": 50,
      "start": 8.8601,
      "duration": 0.016,
      "velocity": 111,
      "chip": "ym2612"
    },
    {
      "channel": 2,
      "note": 69,
      "start": 8.8609,
      "duration": 0.0156,
      "velocity": 108,
      "chip": "ym2612"
    },
    {
      "channel": 3,
      "note": 86,
      "start": 8.8701,
      "duration": 0.0777,
      "velocity": 101,
      "chip": "ym2612"
    },
    {
      "channel": 0,
      "note": 50,
      "start": 8.8798,
      "duration": 0.018,
      "velocity": 111,
      "chip": "ym2612"
    },
    {
      "channel": 2,
      "note": 50,
      "start": 8.8805,
      "duration": 0.0176,
      "velocity": 108,
      "chip": "ym2612"
    },
    {
      "channel": 4,
      "note": 81,
      "start": 8.8817,
      "duration": 0.0101,
      "velocity": 119,
      "chip": "ym2612"
    },
    {
      "channel": 0,
      "note": 50,
      "start": 8.9005,
      "duration": 0.0166,
      "velocity": 111,
      "chip": "ym2612"
    },
    {
      "channel": 2,
      "note": 50,
      "start": 8.9016,
      "duration": 0.0159,
      "velocity": 108,
      "chip": "ym2612"
    },
    {
      "channel": 0,
      "note": 49,
      "start": 8.9195,
      "duration": 0.0183,
      "velocity": 111,
      "chip": "ym2612"
    },
    {
      "channel": 1,
      "note": 85,
      "start": 8.9202,
      "duration": 0.1962,
      "velocity": 101,
      "chip": "ym2612"
    },
    {
      "channel": 2,
      "note": 49,
      "start": 8.9208,
      "duration": 0.0173,
      "velocity": 108,
      "chip": "ym2612"
    },
    {
      "channel": 4,
      "note": 81,
      "start": 8.9217,
      "duration": 0.0122,
      "velocity": 119,
      "chip": "ym2612"
    },
    {
      "channel": 0,
      "note": 49,
      "start": 8.9424,
      "duration": 0.0163,
      "velocity": 111,
      "chip": "ym2612"
    },
    {
      "channel": 2,
      "note": 49,
      "start": 8.9431,
      "duration": 0.016,
      "velocity": 108,
      "chip": "ym2612"
    },
    {
      "channel": 3,
      "note": 85,
      "start": 8.9531,
      "duration": 0.2531,
      "velocity": 101,
      "chip": "ym2612"
    },
    {
      "channel": 0,
      "note": 61,
      "start": 8.9629,
      "duration": 0.0175,
      "velocity": 111,
      "chip": "ym2612"
    },
    {
      "channel": 2,
      "note": 61,
      "start": 8.9636,
      "duration": 0.0171,
      "velocity": 108,
      "chip": "ym2612"
    },
    {
      "channel": 4,
      "note": 81,
      "start": 8.9645,
      "duration": 0.0097,
      "velocity": 119,
      "chip": "ym2612"
    },
    {
      "channel": 0,
      "note": 49,
      "start": 8.9829,
      "duration": 0.0445,
      "velocity": 111,
      "chip": "ym2612"
    },
    {
      "channel": 2,
      "note": 49,
      "start": 8.9838,
      "duration": 0.0441,
      "velocity": 108,
      "chip": "ym2612"
    },
    {
      "channel": 0,
      "note": 59,
      "start": 9.0448,
      "duration": 0.0186,
      "velocity": 111,
      "chip": "ym2612"
    },
    {
      "channel": 2,
      "note": 59,
      "start": 9.0457,
      "duration": 0.018,
      "velocity": 108,
      "chip": "ym2612"
    },
    {
      "channel": 4,
      "note": 81,
      "start": 9.0466,
      "duration": 0.0125,
      "velocity": 119,
      "chip": "ym2612"
    },
    {
      "channel": 0,
      "note": 49,
      "start": 9.0685,
      "duration": 0.0168,
      "velocity": 111,
      "chip": "ym2612"
    },
    {
      "channel": 2,
      "note": 49,
      "start": 9.0692,
      "duration": 0.0165,
      "velocity": 108,
      "chip": "ym2612"
    },
    {
      "channel": 0,
      "note": 58,
      "start": 9.0887,
      "duration": 0.0158,
      "velocity": 111,
      "chip": "ym2612"
    },
    {
      "channel": 2,
      "note": 58,
      "start": 9.0894,
      "duration": 0.0154,
      "velocity": 108,
      "chip": "ym2612"
    },
    {
      "channel": 4,
      "note": 81,
      "start": 9.0903,
      "duration": 0.008,
      "velocity": 119,
      "chip": "ym2612"
    },
    {
      "channel": 0,
      "note": 49,
      "start": 9.1069,
      "duration": 0.0456,
      "velocity": 111,
      "chip": "ym2612"
    },
    {
      "channel": 2,
      "note": 49,
      "start": 9.1076,
      "duration": 0.0452,
      "velocity": 108,
      "chip": "ym2612"
    },
    {
      "channel": 0,
      "note": 59,
      "start": 9.1866,
      "duration": 0.015,
      "velocity": 111,
      "chip": "ym2612"
    },
    {
      "channel": 1,
      "note": 71,
      "start": 9.1884,
      "duration": 0.0057,
      "velocity": 99,
      "chip": "ym2612"
    },
    {
      "channel": 2,
      "note": 59,
      "start": 9.189,
      "duration": 0.0129,
      "velocity": 108,
      "chip": "ym2612"
    },
    {
      "channel": 4,
      "note": 81,
      "start": 9.1899,
      "duration": 0.0084,
      "velocity": 119,
      "chip": "ym2612"
    },
    {
      "channel": 1,
      "note": 73,
      "start": 9.1978,
      "duration": 0.004,
      "velocity": 99,
      "chip": "ym2612"
    },
    {
      "channel": 0,
      "note": 49,
      "start": 9.2049,
      "duration": 0.0155,
      "velocity": 111,
      "chip": "ym2612"
    },
    {
      "channel": 1,
      "note": 75,
      "start": 9.2055,
      "duration": 0.0053,
      "velocity": 99,
      "chip": "ym2612"
    },
    {
      "channel": 2,
      "note": 49,
      "start": 9.2061,
      "duration": 0.0147,
      "velocity": 108,
      "chip": "ym2612"
    },
    {
      "channel": 1,
      "note": 76,
      "start": 9.2133,
      "duration": 0.0073,
      "velocity": 99,
      "chip": "ym2612"
    },
    {
      "channel": 3,
      "note": 71,
      "start": 9.2154,
      "duration": 0.0056,
      "velocity": 99,
      "chip": "ym2612"
    },
    {
      "channel": 0,
      "note": 58,
      "start": 9.2231,
      "duration": 0.0149,
      "velocity": 111,
      "chip": "ym2612"
    },
    {
      "channel": 1,
      "note": 78,
      "start": 9.2237,
      "duration": 0.0063,
      "velocity": 99,
      "chip": "ym2612"
    },
    {
      "channel": 2,
      "note": 58,
      "start": 9.2242,
      "duration": 0.0141,
      "velocity": 108,
      "chip": "ym2612"
    },
    {
      "channel": 3,
      "note": 73,
      "start": 9.225,
      "duration": 0.0053,
      "velocity": 99,
      "chip": "ym2612"
    },
    {
      "channel": 4,
      "note": 81,
      "start": 9.2257,
      "duration": 0.0074,
      "velocity": 119,
      "chip": "ym2612"
    },
    {
      "channel": 1,
      "note": 80,
      "start": 9.232,
      "duration": 0.0061,
      "velocity": 99,
      "chip": "ym2612"
    },
    {
      "channel": 3,
      "note": 75,
      "start": 9.2329,
      "duration": 0.0056,
      "velocity": 99,
      "chip": "ym2612"
    },
    {
      "channel": 0,
      "note": 49,
      "start": 9.242,
      "duration": 0.0149,
      "velocity": 111,
      "chip": "ym2612"
    },
    {
      "channel": 1,
      "note": 81,
      "start": 9.2426,
      "duration": 0.0062,
      "velocity": 99,
      "chip": "ym2612"
    },
    {
      "channel": 2,
      "note": 49,
      "start": 9.2432,
      "duration": 0.014,
      "velocity": 108,
      "chip": "ym2612"
    },
    {
      "channel": 3,
      "note": 76,
      "start": 9.2439,
      "duration": 0.0053,
      "velocity": 99,
      "chip": "ym2612"
    },
    {
      "channel": 1,
      "note": 83,
      "start": 9.2513,
      "duration": 0.0057,
      "velocity": 99,
      "chip": "ym2612"
    },
    {
      "channel": 3,
      "note": 78,
      "start": 9.2522,
      "duration": 0.0052,
      "velocity": 99,
      "chip": "ym2612"
    },
    {
      "channel": 0,
      "note": 56,
      "start": 9.2625,
      "duration": 0.0141,
      "velocity": 111,
      "chip": "ym2612"
    },
    {
      "channel": 1,
      "note": 85,
      "start": 9.2631,
      "duration": 0.0059,
      "velocity": 99,
      "chip": "ym2612"
    },
    {
      "channel": 2,
      "note": 56,
      "start": 9.2637,
      "duration": 0.0132,
      "velocity": 108,
      "chip": "ym2612"
    },
    {
      "channel": 3,
      "note": 80,
      "start": 9.2649,
      "duration": 0.0046,
      "velocity": 99,
      "chip": "ym2612"
    },
    {
      "channel": 4,
      "note": 81,
      "start": 9.2655,
      "duration": 0.0087,
      "velocity": 119,
      "chip": "ym2612"
    },
    {
      "channel": 1,
      "note": 87,
      "start": 9.2728,
      "duration": 0.004,
      "velocity": 99,
      "chip": "ym2612"
    },
    {
      "channel": 3,
      "note": 81,
      "start": 9.274,
      "duration": 0.0031,
      "velocity": 99,
      "chip": "ym2612"
    },
    {
      "channel": 0,
      "note": 58,
      "start": 9.2804,
      "duration": 0.0155,
      "velocity": 111,
      "chip": "ym2612"
    },
    {
      "channel": 1,
      "note": 88,
      "start": 9.2814,
      "duration": 0.0061,
      "velocity": 99,
      "chip": "ym2612"
    },
    {
      "channel": 2,
      "note": 58,
      "start": 9.282,
      "duration": 0.0144,
      "velocity": 108,
      "chip": "ym2612"
    },
    {
      "channel": 3,
      "note": 83,
      "start": 9.2827,
      "duration": 0.0055,
      "velocity": 99,
      "chip": "ym2612"
    },
    {
      "channel": 1,
      "note": 90,
      "start": 9.2903,
      "duration": 0.0059,
      "velocity": 99,
      "chip": "ym2612"
    },
    {
      "channel": 3,
      "note": 85,
      "start": 9.2912,
      "duration": 0.0054,
      "velocity": 99,
      "chip": "ym2612"
    },
    {
      "channel": 0,
      "note": 59,
      "start": 9.2983,
      "duration": 0.0151,
      "velocity": 111,
      "chip": "ym2612"
    },
    {
      "channel": 1,
      "note": 92,
      "start": 9.2989,
      "duration": 0.0067,
      "velocity": 99,
      "chip": "ym2612"
    },
    {
      "channel": 2,
      "note": 59,
      "start": 9.2995,
      "duration": 0.0142,
      "velocity": 108,
      "chip": "ym2612"
    },
    {
      "channel": 3,
      "note": 87,
      "start": 9.3003,
      "duration": 0.0058,
      "velocity": 99,
      "chip": "ym2612"
    },
    {
      "channel": 4,
      "note": 81,
      "start": 9.3009,
      "duration": 0.0085,
      "velocity": 119,
      "chip": "ym2612"
    },
    {
      "channel": 1,
      "note": 93,
      "start": 9.3082,
      "duration": 0.0054,
      "velocity": 99,
      "chip": "ym2612"
    },
    {
      "channel": 3,
      "note": 88,
      "start": 9.3092,
      "duration": 0.0048,
      "velocity": 99,
      "chip": "ym2612"
    },
    {
      "channel": 0,
      "note": 61,
      "start": 9.3154,
      "duration": 0.0152,
      "velocity": 111,
      "chip": "ym2612"
    },
    {
      "channel": 1,
      "note": 95,
      "start": 9.316,
      "duration": 0.0066,
      "velocity": 99,
      "chip": "ym2612"
    },
    {
      "channel": 2,
      "note": 61,
      "start": 9.3166,
      "duration": 0.0144,
      "velocity": 108,
      "chip": "ym2612"
    },
    {
      "channel": 3,
      "note": 90,
      "start": 9.3173,
      "duration": 0.0057,
      "velocity": 99,
      "chip": "ym2612"
    },
    {
      "channel": 1,
      "note": 97,
      "start": 9.3252,
      "duration": 0.0056,
      "velocity": 99,
      "chip": "ym2612"
    },
    {
      "channel": 3,
      "note": 92,
      "start": 9.3261,
      "duration": 0.0051,
      "velocity": 99,
      "chip": "ym2612"
    },
    {
      "channel": 0,
      "note": 54,
      "start": 9.3352,
      "duration": 0.0195,
      "velocity": 111,
      "chip": "ym2612"
    },
    {
      "channel": 1,
      "note": 90,
      "start": 9.3373,
      "duration": 0.1588,
      "velocity": 99,
      "chip": "ym2612"
    },
    {
      "channel": 2,
      "note": 61,
      "start": 9.3393,
      "duration": 0.1029,
      "velocity": 108,
      "chip": "ym2612"
    },
    {
      "channel": 4,
      "note": 81,
      "start": 9.3418,
      "duration": 0.0086,
      "velocity": 119,
      "chip": "ym2612"
    },
    {
      "channel": 0,
      "note": 66,
      "start": 9.3591,
      "duration": 0.0159,
      "velocity": 111,
      "chip": "ym2612"
    },
    {
      "channel": 3,
      "note": 90,
      "start": 9.3628,
      "duration": 0.1588,
      "velocity": 99,
      "chip": "ym2612"
    },
    {
      "channel": 0,
      "note": 54,
      "start": 9.379,
      "duration": 0.0158,
      "velocity": 111,
      "chip": "ym2612"
    },
    {
      "channel": 4,
      "note": 81,
      "start": 9.3803,
      "duration": 0.0093,
      "velocity": 119,
      "chip": "ym2612"
    },
    {
      "channel": 0,
      "note": 64,
      "start": 9.398,
      "duration": 0.0438,
      "velocity": 111,
      "chip": "ym2612"
    },
    {
      "channel": 0,
      "note": 63,
      "start": 9.4756,
      "duration": 0.0203,
      "velocity": 111,
      "chip": "ym2612"
    },
    {
      "channel": 2,
      "note": 54,
      "start": 9.4775,
      "duration": 0.0189,
      "velocity": 108,
      "chip": "ym2612"
    },
    {
      "channel": 4,
      "note": 81,
      "start": 9.4785,
      "duration": 0.0103,
      "velocity": 119,
      "chip": "ym2612"
    },
    {
      "channel": 0,
      "note": 61,
      "start": 9.4994,
      "duration": 0.0174,
      "velocity": 111,
      "chip": "ym2612"
    },
    {
      "channel": 1,
      "note": 88,
      "start": 9.5,
      "duration": 0.017,
      "velocity": 99,
      "chip": "ym2612"
    },
    {
      "channel": 2,
      "note": 54,
      "start": 9.5005,
      "duration": 0.0167,
      "velocity": 108,
      "chip": "ym2612"
    },
    {
      "channel": 0,
      "note": 54,
      "start": 9.5203,
      "duration": 0.0174,
      "velocity": 111,
      "chip": "ym2612"
    },
    {
      "channel": 1,
      "note": 85,
      "start": 9.521,
      "duration": 0.0638,
      "velocity": 99,
      "chip": "ym2612"
    },
    {
      "channel": 2,
      "note": 54,
      "start": 9.5216,
      "duration": 0.0166,
      "velocity": 108,
      "chip": "ym2612"
    },
    {
      "channel": 4,
      "note": 81,
      "start": 9.5224,
      "duration": 0.0096,
      "velocity": 119,
      "chip": "ym2612"
    },
    {
      "channel": 3,
      "note": 88,
      "start": 9.5274,
      "duration": 0.0141,
      "velocity": 99,
      "chip": "ym2612"
    },
    {
      "channel": 0,
      "note": 61,
      "start": 9.5407,
      "duration": 0.0439,
      "velocity": 111,
      "chip": "ym2612"
    },
    {
      "channel": 2,
      "note": 54,
      "start": 9.5414,
      "duration": 0.0435,
      "velocity": 108,
      "chip": "ym2612"
    },
    {
      "channel": 3,
      "note": 85,
      "start": 9.5462,
      "duration": 0.0942,
      "velocity": 99,
      "chip": "ym2612"
    },
    {
      "channel": 0,
      "note": 56,
      "start": 9.6185,
      "duration": 0.019,
      "velocity": 111,
      "chip": "ym2612"
    },
    {
      "channel": 1,
      "note": 92,
      "start": 9.6191,
      "duration": 0.2108,
      "velocity": 99,
      "chip": "ym2612"
    },
    {
      "channel": 2,
      "note": 63,
      "start": 9.6207,
      "duration": 0.1007,
      "velocity": 108,
      "chip": "ym2612"
    },
    {
      "channel": 4,
      "note": 81,
      "start": 9.6216,
      "duration": 0.0097,
      "velocity": 119,
      "chip": "ym2612"
    },
    {
      "channel": 0,
      "note": 68,
      "start": 9.6399,
      "duration": 0.0152,
      "velocity": 111,
      "chip": "ym2612"
    },
    {
      "channel": 3,
      "note": 92,
      "start": 9.6431,
      "duration": 0.2693,
      "velocity": 99,
      "chip": "ym2612"
    },
    {
      "channel": 0,
      "note": 56,
      "start": 9.6575,
      "duration": 0.0157,
      "velocity": 111,
      "chip": "ym2612"
    },
    {
      "channel": 4,
      "note": 81,
      "start": 9.6588,
      "duration": 0.0088,
      "velocity": 119,
      "chip": "ym2612"
    },
    {
      "channel": 0,
      "note": 66,
      "start": 9.6763,
      "duration": 0.0447,
      "velocity": 111,
      "chip": "ym2612"
    },
    {
      "channel": 0,
      "note": 56,
      "start": 9.7551,
      "duration": 0.0203,
      "velocity": 111,
      "chip": "ym2612"
    },
    {
      "channel": 2,
      "note": 56,
      "start": 9.7572,
      "duration": 0.0185,
      "velocity": 108,
      "chip": "ym2612"
    },
    {
      "channel": 4,
      "note": 81,
      "start": 9.7582,
      "duration": 0.0105,
      "velocity": 119,
      "chip": "ym2612"
    },
    {
      "channel": 0,
      "note": 63,
      "start": 9.7788,
      "duration": 0.0168,
      "velocity": 111,
      "chip": "ym2612"
    },
    {
      "channel": 2,
      "note": 56,
      "start": 9.7795,
      "duration": 0.0165,
      "velocity": 108,
      "chip": "ym2612"
    },
    {
      "channel": 0,
      "note": 56,
      "start": 9.7996,
      "duration": 0.0166,
      "velocity": 111,
      "chip": "ym2612"
    },
    {
      "channel": 2,
      "note": 56,
      "start": 9.8003,
      "duration": 0.0162,
      "velocity": 108,
      "chip": "ym2612"
    },
    {
      "channel": 4,
      "note": 81,
      "start": 9.8012,
      "duration": 0.0093,
      "velocity": 119,
      "chip": "ym2612"
    },
    {
      "channel": 0,
      "note": 68,
      "start": 9.8186,
      "duration": 0.0446,
      "velocity": 111,
      "chip": "ym2612"
    },
    {
      "channel": 2,
      "note": 56,
      "start": 9.8193,
      "duration": 0.0443,
      "velocity": 108,
      "chip": "ym2612"
    },
    {
      "channel": 0,
      "note": 57,
      "start": 9.8972,
      "duration": 0.0187,
      "velocity": 111,
      "chip": "ym2612"
    },
    {
      "channel": 1,
      "note": 90,
      "start": 9.8978,
      "duration": 0.1565,
      "velocity": 99,
      "chip": "ym2612"
    },
    {
      "channel": 2,
      "note": 64,
      "start": 9.8995,
      "duration": 0.1012,
      "velocity": 108,
      "chip": "ym2612"
    },
    {
      "channel": 4,
      "note": 81,
      "start": 9.9004,
      "duration": 0.0098,
      "velocity": 119,
      "chip": "ym2612"
    },
    {
      "channel": 0,
      "note": 69,
      "start": 9.9183,
      "duration": 0.0153,
      "velocity": 111,
      "chip": "ym2612"
    },
    {
      "channel": 3,
      "note": 90,
      "start": 9.9215,
      "duration": 0.1573,
      "velocity": 99,
      "chip": "ym2612"
    },
    {
      "channel": 0,
      "note": 57,
      "start": 9.9363,
      "duration": 0.0163,
      "velocity": 111,
      "chip": "ym2612"
    },
    {
      "channel": 4,
      "note": 81,
      "start": 9.9376,
      "duration": 0.0089,
      "velocity": 119,
      "chip": "ym2612"
    },
    {
      "channel": 0,
      "note": 68,
      "start": 9.9556,
      "duration": 0.0447,
      "velocity": 111,
      "chip": "ym2612"
    },
    {
      "channel": 0,
      "note": 66,
      "start": 10.0343,
      "duration": 0.0199,
      "velocity": 111,
      "chip": "ym2612"
    },
    {
      "channel": 2,
      "note": 57,
      "start": 10.036,
      "duration": 0.0185,
      "velocity": 108,
      "chip": "ym2612"
    },
    {
      "channel": 4,
      "note": 81,
      "start": 10.0371,
      "duration": 0.01,
      "velocity": 119,
      "chip": "ym2612"
    },
    {
      "channel": 0,
      "note": 64,
      "start": 10.0573,
      "duration": 0.0171,
      "velocity": 111,
      "chip": "ym2612"
    },
    {
      "channel": 1,
      "note": 88,
      "start": 10.0579,
      "duration": 0.0166,
      "velocity": 99,
      "chip": "ym2612"
    },
    {
      "channel": 2,
      "note": 57,
      "start": 10.0584,
      "duration": 0.0163,
      "velocity": 108,
      "chip": "ym2612"
    },
    {
      "channel": 0,
      "note": 61,
      "start": 10.0774,
      "duration": 0.0169,
      "velocity": 111,
      "chip": "ym2612"
    },
    {
      "channel": 1,
      "note": 85,
      "start": 10.078,
      "duration": 0.0634,
      "velocity": 99,
      "chip": "ym2612"
    },
    {
      "channel": 2,
      "note": 57,
      "start": 10.0786,
      "duration": 0.0162,
      "velocity": 108,
      "chip": "ym2612"
    },
    {
      "channel": 4,
      "note": 81,
      "start": 10.0795,
      "duration": 0.0092,
      "velocity": 119,
      "chip": "ym2612"
    },
    {
      "channel": 3,
      "note": 88,
      "start": 10.0841,
      "duration": 0.0158,
      "velocity": 99,
      "chip": "ym2612"
    },
    {
      "channel": 0,
      "note": 69,
      "start": 10.099,
      "duration": 0.0422,
      "velocity": 111,
      "chip": "ym2612"
    },
    {
      "channel": 2,
      "note": 57,
      "start": 10.0997,
      "duration": 0.0419,
      "velocity": 108,
      "chip": "ym2612"
    },
    {
      "channel": 3,
      "note": 85,
      "start": 10.1029,
      "duration": 0.094,
      "velocity": 99,
      "chip": "ym2612"
    },
    {
      "channel": 0,
      "note": 59,
      "start": 10.1751,
      "duration": 0.0177,
      "velocity": 111,
      "chip": "ym2612"
    },
    {
      "channel": 1,
      "note": 92,
      "start": 10.1757,
      "duration": 0.0172,
      "velocity": 99,
      "chip": "ym2612"
    },
    {
      "channel": 2,
      "note": 66,
      "start": 10.1774,
      "duration": 0.0158,
      "velocity": 108,
      "chip": "ym2612"
    },
    {
      "channel": 4,
      "note": 81,
      "start": 10.1783,
      "duration": 0.0093,
      "velocity": 119,
      "chip": "ym2612"
    },
    {
      "channel": 0,
      "note": 71,
      "start": 10.1956,
      "duration": 0.0172,
      "velocity": 111,
      "chip": "ym2612"
    },
    {
      "channel": 1,
      "note": 92,
      "start": 10.1962,
      "duration": 0.0168,
      "velocity": 99,
      "chip": "ym2612"
    },
    {
      "channel": 2,
      "note": 66,
      "start": 10.1967,
      "duration": 0.0165,
      "velocity": 108,
      "chip": "ym2612"
    },
    {
      "channel": 3,
      "note": 92,
      "start": 10.2004,
      "duration": 0.0169,
      "velocity": 99,
      "chip": "ym2612"
    },
    {
      "channel": 0,
      "note": 59,
      "start": 10.2156,
      "duration": 0.0182,
      "velocity": 111,
      "chip": "ym2612"
    },
    {
      "channel": 1,
      "note": 92,
      "start": 10.2163,
      "duration": 0.0177,
      "velocity": 99,
      "chip": "ym2612"
    },
    {
      "channel": 2,
      "note": 66,
      "start": 10.2171,
      "duration": 0.0171,
      "velocity": 108,
      "chip": "ym2612"
    },
    {
      "channel": 4,
      "note": 81,
      "start": 10.2181,
      "duration": 0.0099,
      "velocity": 119,
      "chip": "ym2612"
    },
    {
      "channel": 3,
      "note": 92,
      "start": 10.2233,
      "duration": 0.0167,
      "velocity": 99,
      "chip": "ym2612"
    },
    {
      "channel": 0,
      "note": 71,
      "start": 10.2387,
      "duration": 0.015,
      "velocity": 111,
      "chip": "ym2612"
    },
    {
      "channel": 1,
      "note": 92,
      "start": 10.2393,
      "duration": 0.0145,
      "velocity": 99,
      "chip": "ym2612"
    },
    {
      "channel": 2,
      "note": 66,
      "start": 10.2398,
      "duration": 0.0143,
      "velocity": 108,
      "chip": "ym2612"
    },
    {
      "channel": 3,
      "note": 92,
      "start": 10.2435,
      "duration": 0.0165,
      "velocity": 99,
      "chip": "ym2612"
    },
    {
      "channel": 0,
      "note": 59,
      "start": 10.2586,
      "duration": 0.0171,
      "velocity": 111,
      "chip": "ym2612"
    },
    {
      "channel": 1,
      "note": 92,
      "start": 10.2593,
      "duration": 0.0167,
      "velocity": 99,
      "chip": "ym2612"
    },
    {
      "channel": 2,
      "note": 66,
      "start": 10.2598,
      "duration": 0.0163,
      "velocity": 108,
      "chip": "ym2612"
    },
    {
      "channel": 4,
      "note": 81,
      "start": 10.2607,
      "duration": 0.0098,
      "velocity": 119,
      "chip": "ym2612"
    },
    {
      "channel": 3,
      "note": 92,
      "start": 10.264,
      "duration": 0.016,
      "velocity": 99,
      "chip": "ym2612"
    },
    {
      "channel": 0,
      "note": 71,
      "start": 10.2786,
      "duration": 0.0862,
      "velocity": 111,
      "chip": "ym2612"
    },
    {
      "channel": 1,
      "note": 95,
      "start": 10.2793,
      "duration": 0.1192,
      "velocity": 99,
      "chip": "ym2612"
    },
    {
      "channel": 2,
      "note": 66,
      "start": 10.2798,
      "duration": 0.119,
      "velocity": 108,
      "chip": "ym2612"
    },
    {
      "channel": 3,
      "note": 92,
      "start": 10.2838,
      "duration": 0.0152,
      "velocity": 99,
      "chip": "ym2612"
    },
    {
      "channel": 4,
      "note": 81,
      "start": 10.2997,
      "duration": 0.0095,
      "velocity": 119,
      "chip": "ym2612"
    },
    {
      "channel": 3,
      "note": 95,
      "start": 10.3046,
      "duration": 0.1498,
      "velocity": 99,
      "chip": "ym2612"
    },
    {
      "channel": 0,
      "note": 61,
      "start": 10.4324,
      "duration": 0.0177,
      "velocity": 111,
      "chip": "ym2612"
    },
    {
      "channel": 1,
      "note": 97,
      "start": 10.4331,
      "duration": 0.4813,
      "velocity": 99,
      "chip": "ym2612"
    },
    {
      "channel": 2,
      "note": 61,
      "start": 10.4349,
      "duration": 0.0156,
      "velocity": 108,
      "chip": "ym2612"
    },
    {
      "channel": 0,
      "note": 49,
      "start": 10.4535,
      "duration": 0.0163,
      "velocity": 111,
      "chip": "ym2612"
    },
    {
      "channel": 2,
      "note": 49,
      "start": 10.4542,
      "duration": 0.0159,
      "velocity": 108,
      "chip": "ym2612"
    },
    {
      "channel": 3,
      "note": 97,
      "start": 10.4577,
      "duration": 0.4781,
      "velocity": 99,
      "chip": "ym2612"
    },
    {
      "channel": 0,
      "note": 49,
      "start": 10.474,
      "duration": 0.0164,
      "velocity": 111,
      "chip": "ym2612"
    },
    {
      "channel": 2,
      "note": 49,
      "start": 10.4747,
      "duration": 0.0161,
      "velocity": 108,
      "chip": "ym2612"
    },
    {
      "channel": 0,
      "note": 59,
      "start": 10.4967,
      "duration": 0.0351,
      "velocity": 111,
      "chip": "ym2612"
    },
    {
      "channel": 2,
      "note": 59,
      "start": 10.4976,
      "duration": 0.0388,
      "velocity": 108,
      "chip": "ym2612"
    },
    {
      "channel": 0,
      "note": 58,
      "start": 10.539,
      "duration": 0.0364,
      "velocity": 111,
      "chip": "ym2612"
    },
    {
      "channel": 2,
      "note": 58,
      "start": 10.5397,
      "duration": 0.0387,
      "velocity": 108,
      "chip": "ym2612"
    },
    {
      "channel": 0,
      "note": 56,
      "start": 10.5835,
      "duration": 0.0178,
      "velocity": 111,
      "chip": "ym2612"
    },
    {
      "channel": 2,
      "note": 56,
      "start": 10.5842,
      "duration": 0.0175,
      "velocity": 108,
      "chip": "ym2612"
    },
    {
      "channel": 0,
      "note": 61,
      "start": 10.6045,
      "duration": 0.0189,
      "velocity": 111,
      "chip": "ym2612"
    },
    {
      "channel": 2,
      "note": 61,
      "start": 10.6056,
      "duration": 0.0181,
      "velocity": 108,
      "chip": "ym2612"
    },
    {
      "channel": 0,
      "note": 49,
      "start": 10.6271,
      "duration": 0.0175,
      "velocity": 111,
      "chip": "ym2612"
    },
    {
      "channel": 2,
      "note": 49,
      "start": 10.6278,
      "duration": 0.0172,
      "velocity": 108,
      "chip": "ym2612"
    },
    {
      "channel": 0,
      "note": 49,
      "start": 10.6485,
      "duration": 0.0201,
      "velocity": 111,
      "chip": "ym2612"
    },
    {
      "channel": 2,
      "note": 49,
      "start": 10.6492,
      "duration": 0.0198,
      "velocity": 108,
      "chip": "ym2612"
    },
    {
      "channel": 0,
      "note": 59,
      "start": 10.674,
      "duration": 0.0374,
      "velocity": 111,
      "chip": "ym2612"
    },
    {
      "channel": 2,
      "note": 59,
      "start": 10.6748,
      "duration": 0.0415,
      "velocity": 108,
      "chip": "ym2612"
    },
    {
      "channel": 0,
      "note": 58,
      "start": 10.7193,
      "duration": 0.038,
      "velocity": 111,
      "chip": "ym2612"
    },
    {
      "channel": 2,
      "note": 58,
      "start": 10.72,
      "duration": 0.0403,
      "velocity": 108,
      "chip": "ym2612"
    },
    {
      "channel": 0,
      "note": 56,
      "start": 10.7654,
      "duration": 0.0171,
      "velocity": 111,
      "chip": "ym2612"
    },
    {
      "channel": 2,
      "note": 56,
      "start": 10.7661,
      "duration": 0.0167,
      "velocity": 108,
      "chip": "ym2612"
    },
    {
      "channel": 0,
      "note": 61,
      "start": 10.7861,
      "duration": 0.0166,
      "velocity": 111,
      "chip": "ym2612"
    },
    {
      "channel": 2,
      "note": 61,
      "start": 10.7869,
      "duration": 0.0162,
      "velocity": 108,
      "chip": "ym2612"
    },
    {
      "channel": 0,
      "note": 49,
      "start": 10.8063,
      "duration": 0.0142,
      "velocity": 111,
      "chip": "ym2612"
    },
    {
      "channel": 2,
      "note": 49,
      "start": 10.807,
      "duration": 0.0139,
      "velocity": 108,
      "chip": "ym2612"
    },
    {
      "channel": 0,
      "note": 49,
      "start": 10.8239,
      "duration": 0.0149,
      "velocity": 111,
      "chip": "ym2612"
    },
    {
      "channel": 2,
      "note": 49,
      "start": 10.8246,
      "duration": 0.0145,
      "velocity": 108,
      "chip": "ym2612"
    },
    {
      "channel": 0,
      "note": 59,
      "start": 10.8439,
      "duration": 0.0327,
      "velocity": 111,
      "chip": "ym2612"
    },
    {
      "channel": 2,
      "note": 59,
      "start": 10.8447,
      "duration": 0.0345,
      "velocity": 108,
      "chip": "ym2612"
    },
    {
      "channel": 0,
      "note": 58,
      "start": 10.8827,
      "duration": 0.0335,
      "velocity": 111,
      "chip": "ym2612"
    },
    {
      "channel": 2,
      "note": 58,
      "start": 10.8837,
      "duration": 0.0351,
      "velocity": 108,
      "chip": "ym2612"
    },
    {
      "channel": 0,
      "note": 56,
      "start": 10.9244,
      "duration": 0.0152,
      "velocity": 111,
      "chip": "ym2612"
    },
    {
      "channel": 2,
      "note": 56,
      "start": 10.9251,
      "duration": 0.0147,
      "velocity": 108,
      "chip": "ym2612"
    },
    {
      "channel": 0,
      "note": 61,
      "start": 10.9424,
      "duration": 0.0171,
      "velocity": 111,
      "chip": "ym2612"
    },
    {
      "channel": 1,
      "note": 97,
      "start": 10.943,
      "duration": 0.0167,
      "velocity": 99,
      "chip": "ym2612"
    },
    {
      "channel": 2,
      "note": 56,
      "start": 10.9437,
      "duration": 0.0163,
      "velocity": 108,
      "chip": "ym2612"
    },
    {
      "channel": 0,
      "note": 61,
      "start": 10.9624,
      "duration": 0.0165,
      "velocity": 111,
      "chip": "ym2612"
    },
    {
      "channel": 1,
      "note": 97,
      "start": 10.963,
      "duration": 0.0161,
      "velocity": 99,
      "chip": "ym2612"
    },
    {
      "channel": 2,
      "note": 56,
      "start": 10.9635,
      "duration": 0.0158,
      "velocity": 108,
      "chip": "ym2612"
    },
    {
      "channel": 3,
      "note": 97,
      "start": 10.9688,
      "duration": 0.0156,
      "velocity": 99,
      "chip": "ym2612"
    },
    {
      "channel": 0,
      "note": 61,
      "start": 10.9831,
      "duration": 0.0152,
      "velocity": 111,
      "chip": "ym2612"
    },
    {
      "channel": 1,
      "note": 97,
      "start": 10.9837,
      "duration": 0.0147,
      "velocity": 99,
      "chip": "ym2612"
    },
    {
      "channel": 2,
      "note": 56,
      "start": 10.9842,
      "duration": 0.0144,
      "velocity": 108,
      "chip": "ym2612"
    },
    {
      "channel": 3,
      "note": 97,
      "start": 10.9882,
      "duration": 0.0165,
      "velocity": 99,
      "chip": "ym2612"
    },
    {
      "channel": 0,
      "note": 61,
      "start": 11.0034,
      "duration": 0.0165,
      "velocity": 111,
      "chip": "ym2612"
    },
    {
      "channel": 1,
      "note": 97,
      "start": 11.004,
      "duration": 0.0161,
      "velocity": 99,
      "chip": "ym2612"
    },
    {
      "channel": 2,
      "note": 56,
      "start": 11.0046,
      "duration": 0.0157,
      "velocity": 108,
      "chip": "ym2612"
    },
    {
      "channel": 3,
      "note": 97,
      "start": 11.0083,
      "duration": 0.0163,
      "velocity": 99,
      "chip": "ym2612"
    },
    {
      "channel": 0,
      "note": 59,
      "start": 11.0233,
      "duration": 0.0175,
      "velocity": 111,
      "chip": "ym2612"
    },
    {
      "channel": 1,
      "note": 95,
      "start": 11.0239,
      "duration": 0.0171,
      "velocity": 99,
      "chip": "ym2612"
    },
    {
      "channel": 2,
      "note": 54,
      "start": 11.0245,
      "duration": 0.0168,
      "velocity": 108,
      "chip": "ym2612"
    },
    {
      "channel": 3,
      "note": 97,
      "start": 11.0288,
      "duration": 0.016,
      "velocity": 99,
      "chip": "ym2612"
    },
    {
      "channel": 0,
      "note": 61,
      "start": 11.0435,
      "duration": 0.0168,
      "velocity": 111,
      "chip": "ym2612"
    },
    {
      "channel": 1,
      "note": 97,
      "start": 11.0441,
      "duration": 0.0163,
      "velocity": 99,
      "chip": "ym2612"
    },
    {
      "channel": 2,
      "note": 56,
      "start": 11.0446,
      "duration": 0.016,
      "velocity": 108,
      "chip": "ym2612"
    },
    {
      "channel": 3,
      "note": 95,
      "start": 11.0502,
      "duration": 0.0164,
      "velocity": 99,
      "chip": "ym2612"
    },
    {
      "channel": 1,
      "note": 95,
      "start": 11.0656,
      "duration": 0.0119,
      "velocity": 99,
      "chip": "ym2612"
    },
    {
      "channel": 2,
      "note": 54,
      "start": 11.0664,
      "duration": 0.0113,
      "velocity": 108,
      "chip": "ym2612"
    },
    {
      "channel": 3,
      "note": 97,
      "start": 11.0694,
      "duration": 0.0127,
      "velocity": 99,
      "chip": "ym2612"
    },
    {
      "channel": 1,
      "note": 97,
      "start": 11.0814,
      "duration": 0.0113,
      "velocity": 99,
      "chip": "ym2612"
    },
    {
      "channel": 2,
      "note": 56,
      "start": 11.0819,
      "duration": 0.011,
      "velocity": 108,
      "chip": "ym2612"
    },
    {
      "channel": 0,
      "note": 49,
      "start": 11.0953,
      "duration": 0.0207,
      "velocity": 111,
      "chip": "ym2612"
    },
    {
      "channel": 1,
      "note": 73,
      "start": 11.0978,
      "duration": 34.7226,
      "velocity": 101,
      "chip": "ym2612"
    },
    {
      "channel": 2,
      "note": 49,
      "start": 11.099,
      "duration": 0.0173,
      "velocity": 108,
      "chip": "ym2612"
    },
    {
      "channel": 4,
      "note": 81,
      "start": 11.1023,
      "duration": 0.0079,
      "velocity": 119,
      "chip": "ym2612"
    },
    {
      "channel": 0,
      "note": 49,
      "start": 11.118,
      "duration": 0.016,
      "velocity": 111,
      "chip": "ym2612"
    },
    {
      "channel": 2,
      "note": 49,
      "start": 11.1187,
      "duration": 0.0156,
      "velocity": 108,
      "chip": "ym2612"
    },
    {
      "channel": 3,
      "note": 73,
      "start": 11.1245,
      "duration": 34.6959,
      "velocity": 101,
      "chip": "ym2612"
    },
    {
      "channel": 0,
      "note": 49,
      "start": 11.1386,
      "duration": 0.0159,
      "velocity": 111,
      "chip": "ym2612"
    },
    {
      "channel": 2,
      "note": 61,
      "start": 11.1393,
      "duration": 0.0155,
      "velocity": 108,
      "chip": "ym2612"
    },
    {
      "channel": 4,
      "note": 81,
      "start": 11.1402,
      "duration": 0.0088,
      "velocity": 119,
      "chip": "ym2612"
    },
    {
      "channel": 0,
      "note": 49,
      "start": 11.157,
      "duration": 0.0454,
      "velocity": 111,
      "chip": "ym2612"
    },
    {
      "channel": 2,
      "note": 49,
      "start": 11.1578,
      "duration": 0.0451,
      "velocity": 108,
      "chip": "ym2612"
    },
    {
      "channel": 0,
      "note": 49,
      "start": 11.2195,
      "duration": 0.0156,
      "velocity": 111,
      "chip": "ym2612"
    },
    {
      "channel": 2,
      "note": 59,
      "start": 11.2203,
      "duration": 0.0153,
      "velocity": 108,
      "chip": "ym2612"
    },
    {
      "channel": 4,
      "note": 81,
      "start": 11.2212,
      "duration": 0.009,
      "velocity": 119,
      "chip": "ym2612"
    },
    {
      "channel": 0,
      "note": 49,
      "start": 11.2381,
      "duration": 0.0152,
      "velocity": 111,
      "chip": "ym2612"
    },
    {
      "channel": 2,
      "note": 49,
      "start": 11.2388,
      "duration": 0.0149,
      "velocity": 108,
      "chip": "ym2612"
    },
    {
      "channel": 0,
      "note": 49,
      "start": 11.2587,
      "duration": 34.5617,
      "velocity": 111,
      "chip": "ym2612"
    },
    {
      "channel": 2,
      "note": 58,
      "start": 11.2595,
      "duration": 34.5609,
      "velocity": 108,
      "chip": "ym2612"
    },
    {
      "channel": 4,
      "note": 81,
      "start": 11.2605,
      "duration": 34.5599,
      "velocity": 119,
      "chip": "ym2612"
    }
  ]
}