{
  "track_name": "12 - Records",
  "duration_sec": 27.433,
  "sample_rate": 44100,
  "note_count": 545,
  "unique_pitches": 19,
  "pitch_range": 38,
  "avg_note_duration": 0.1632,
  "reconstruction_stats": {
    "notes_reconstructed": 545,
    "keyon_events": 545,
    "keyoff_events": 541,
    "orphan_keyons": 4,
    "unique_pitches": 19,
    "pitch_range": 38,
    "avg_duration_sec": 0.1632
  },
  "metadata": {
    "source": "O\\OutRun 2019\\12 - Records.vgz"
  },
  "notes": [
    {
      "channel": 1,
      "note": 88,
      "start": 0.0,
      "duration": 0.1121,
      "velocity": 109,
      "chip": "ym2612"
    },
    {
      "channel": 4,
      "note": 76,
      "start": 0.0115,
      "duration": 0.1017,
      "velocity": 109,
      "chip": "ym2612"
    },
    {
      "channel": 1,
      "note": 88,
      "start": 0.1128,
      "duration": 0.116,
      "velocity": 109,
      "chip": "ym2612"
    },
    {
      "channel": 4,
      "note": 76,
      "start": 0.1137,
      "duration": 0.1155,
      "velocity": 109,
      "chip": "ym2612"
    },
    {
      "channel": 1,
      "note": 88,
      "start": 0.3461,
      "duration": 0.116,
      "velocity": 109,
      "chip": "ym2612"
    },
    {
      "channel": 4,
      "note": 76,
      "start": 0.3471,
      "duration": 0.116,
      "velocity": 109,
      "chip": "ym2612"
    },
    {
      "channel": 1,
      "note": 88,
      "start": 0.4628,
      "duration": 0.116,
      "velocity": 109,
      "chip": "ym2612"
    },
    {
      "channel": 4,
      "note": 76,
      "start": 0.4637,
      "duration": 0.1155,
      "velocity": 109,
      "chip": "ym2612"
    },
    {
      "channel": 1,
      "note": 86,
      "start": 0.6961,
      "duration": 0.0993,
      "velocity": 109,
      "chip": "ym2612"
    },
    {
      "channel": 4,
      "note": 74,
      "start": 0.6971,
      "duration": 0.0994,
      "velocity": 109,
      "chip": "ym2612"
    },
    {
      "channel": 1,
      "note": 88,
      "start": 0.7961,
      "duration": 0.116,
      "velocity": 109,
      "chip": "ym2612"
    },
    {
      "channel": 4,
      "note": 76,
      "start": 0.7971,
      "duration": 0.1155,
      "velocity": 109,
      "chip": "ym2612"
    },
    {
      "channel": 1,
      "note": 88,
      "start": 1.0295,
      "duration": 0.116,
      "velocity": 109,
      "chip": "ym2612"
    },
    {
      "channel": 4,
      "note": 76,
      "start": 1.0304,
      "duration": 0.116,
      "velocity": 109,
      "chip": "ym2612"
    },
    {
      "channel": 1,
      "note": 86,
      "start": 1.1461,
      "duration": 0.116,
      "velocity": 109,
      "chip": "ym2612"
    },
    {
      "channel": 4,
      "note": 74,
      "start": 1.1471,
      "duration": 0.1155,
      "velocity": 109,
      "chip": "ym2612"
    },
    {
      "channel": 1,
      "note": 88,
      "start": 1.3795,
      "duration": 0.116,
      "velocity": 109,
      "chip": "ym2612"
    },
    {
      "channel": 4,
      "note": 76,
      "start": 1.3804,
      "duration": 0.116,
      "velocity": 109,
      "chip": "ym2612"
    },
    {
      "channel": 1,
      "note": 91,
      "start": 1.4961,
      "duration": 0.0993,
      "velocity": 109,
      "chip": "ym2612"
    },
    {
      "channel": 4,
      "note": 79,
      "start": 1.4971,
      "duration": 0.0994,
      "velocity": 109,
      "chip": "ym2612"
    },
    {
      "channel": 1,
      "note": 88,
      "start": 1.5961,
      "duration": 0.116,
      "velocity": 109,
      "chip": "ym2612"
    },
    {
      "channel": 4,
      "note": 76,
      "start": 1.5971,
      "duration": 0.116,
      "velocity": 109,
      "chip": "ym2612"
    },
    {
      "channel": 1,
      "note": 86,
      "start": 1.7128,
      "duration": 0.1163,
      "velocity": 109,
      "chip": "ym2612"
    },
    {
      "channel": 4,
      "note": 74,
      "start": 1.7137,
      "duration": 0.1172,
      "velocity": 109,
      "chip": "ym2612"
    },
    {
      "channel": 1,
      "note": 88,
      "start": 1.8298,
      "duration": 0.1156,
      "velocity": 109,
      "chip": "ym2612"
    },
    {
      "channel": 4,
      "note": 76,
      "start": 1.8317,
      "duration": 0.1148,
      "velocity": 109,
      "chip": "ym2612"
    },
    {
      "channel": 1,
      "note": 88,
      "start": 1.9461,
      "duration": 0.116,
      "velocity": 109,
      "chip": "ym2612"
    },
    {
      "channel": 4,
      "note": 76,
      "start": 1.9471,
      "duration": 0.1155,
      "velocity": 109,
      "chip": "ym2612"
    },
    {
      "channel": 1,
      "note": 88,
      "start": 2.1795,
      "duration": 0.116,
      "velocity": 109,
      "chip": "ym2612"
    },
    {
      "channel": 4,
      "note": 76,
      "start": 2.1804,
      "duration": 0.116,
      "velocity": 109,
      "chip": "ym2612"
    },
    {
      "channel": 1,
      "note": 88,
      "start": 2.2961,
      "duration": 0.0993,
      "velocity": 109,
      "chip": "ym2612"
    },
    {
      "channel": 4,
      "note": 76,
      "start": 2.2971,
      "duration": 0.0989,
      "velocity": 109,
      "chip": "ym2612"
    },
    {
      "channel": 1,
      "note": 86,
      "start": 2.5128,
      "duration": 0.116,
      "velocity": 109,
      "chip": "ym2612"
    },
    {
      "channel": 4,
      "note": 74,
      "start": 2.5137,
      "duration": 0.1155,
      "velocity": 109,
      "chip": "ym2612"
    },
    {
      "channel": 1,
      "note": 88,
      "start": 2.7461,
      "duration": 0.2326,
      "velocity": 109,
      "chip": "ym2612"
    },
    {
      "channel": 4,
      "note": 76,
      "start": 2.7471,
      "duration": 0.2326,
      "velocity": 109,
      "chip": "ym2612"
    },
    {
      "channel": 1,
      "note": 91,
      "start": 2.9795,
      "duration": 0.216,
      "velocity": 109,
      "chip": "ym2612"
    },
    {
      "channel": 4,
      "note": 79,
      "start": 2.9804,
      "duration": 0.216,
      "velocity": 109,
      "chip": "ym2612"
    },
    {
      "channel": 1,
      "note": 93,
      "start": 3.1961,
      "duration": 0.2326,
      "velocity": 109,
      "chip": "ym2612"
    },
    {
      "channel": 4,
      "note": 81,
      "start": 3.1971,
      "duration": 0.2326,
      "velocity": 109,
      "chip": "ym2612"
    },
    {
      "channel": 1,
      "note": 95,
      "start": 3.4295,
      "duration": 0.233,
      "velocity": 109,
      "chip": "ym2612"
    },
    {
      "channel": 4,
      "note": 83,
      "start": 3.4305,
      "duration": 0.2338,
      "velocity": 109,
      "chip": "ym2612"
    },
    {
      "channel": 1,
      "note": 88,
      "start": 3.6632,
      "duration": 0.1156,
      "velocity": 109,
      "chip": "ym2612"
    },
    {
      "channel": 4,
      "note": 76,
      "start": 3.6649,
      "duration": 0.1148,
      "velocity": 109,
      "chip": "ym2612"
    },
    {
      "channel": 1,
      "note": 88,
      "start": 3.7795,
      "duration": 0.116,
      "velocity": 109,
      "chip": "ym2612"
    },
    {
      "channel": 4,
      "note": 76,
      "start": 3.7804,
      "duration": 0.1155,
      "velocity": 109,
      "chip": "ym2612"
    },
    {
      "channel": 1,
      "note": 88,
      "start": 3.9961,
      "duration": 0.116,
      "velocity": 109,
      "chip": "ym2612"
    },
    {
      "channel": 4,
      "note": 76,
      "start": 3.9971,
      "duration": 0.116,
      "velocity": 109,
      "chip": "ym2612"
    },
    {
      "channel": 1,
      "note": 88,
      "start": 4.1128,
      "duration": 0.116,
      "velocity": 109,
      "chip": "ym2612"
    },
    {
      "channel": 4,
      "note": 76,
      "start": 4.1137,
      "duration": 0.1155,
      "velocity": 109,
      "chip": "ym2612"
    },
    {
      "channel": 1,
      "note": 86,
      "start": 4.3461,
      "duration": 0.116,
      "velocity": 109,
      "chip": "ym2612"
    },
    {
      "channel": 4,
      "note": 74,
      "start": 4.3471,
      "duration": 0.116,
      "velocity": 109,
      "chip": "ym2612"
    },
    {
      "channel": 1,
      "note": 88,
      "start": 4.4628,
      "duration": 0.116,
      "velocity": 109,
      "chip": "ym2612"
    },
    {
      "channel": 4,
      "note": 76,
      "start": 4.4637,
      "duration": 0.1155,
      "velocity": 109,
      "chip": "ym2612"
    },
    {
      "channel": 1,
      "note": 88,
      "start": 4.6961,
      "duration": 0.0993,
      "velocity": 109,
      "chip": "ym2612"
    },
    {
      "channel": 4,
      "note": 76,
      "start": 4.6971,
      "duration": 0.0994,
      "velocity": 109,
      "chip": "ym2612"
    },
    {
      "channel": 1,
      "note": 86,
      "start": 4.7961,
      "duration": 0.116,
      "velocity": 109,
      "chip": "ym2612"
    },
    {
      "channel": 4,
      "note": 74,
      "start": 4.7971,
      "duration": 0.1155,
      "velocity": 109,
      "chip": "ym2612"
    },
    {
      "channel": 1,
      "note": 88,
      "start": 5.0295,
      "duration": 0.116,
      "velocity": 109,
      "chip": "ym2612"
    },
    {
      "channel": 4,
      "note": 76,
      "start": 5.0304,
      "duration": 0.116,
      "velocity": 109,
      "chip": "ym2612"
    },
    {
      "channel": 1,
      "note": 91,
      "start": 5.1461,
      "duration": 0.116,
      "velocity": 109,
      "chip": "ym2612"
    },
    {
      "channel": 4,
      "note": 79,
      "start": 5.1471,
      "duration": 0.116,
      "velocity": 109,
      "chip": "ym2612"
    },
    {
      "channel": 1,
      "note": 88,
      "start": 5.2628,
      "duration": 0.116,
      "velocity": 109,
      "chip": "ym2612"
    },
    {
      "channel": 4,
      "note": 76,
      "start": 5.2637,
      "duration": 0.116,
      "velocity": 109,
      "chip": "ym2612"
    },
    {
      "channel": 1,
      "note": 86,
      "start": 5.3795,
      "duration": 0.1163,
      "velocity": 109,
      "chip": "ym2612"
    },
    {
      "channel": 4,
      "note": 74,
      "start": 5.3804,
      "duration": 0.1172,
      "velocity": 109,
      "chip": "ym2612"
    },
    {
      "channel": 1,
      "note": 88,
      "start": 5.4965,
      "duration": 0.0989,
      "velocity": 109,
      "chip": "ym2612"
    },
    {
      "channel": 4,
      "note": 76,
      "start": 5.4983,
      "duration": 0.0982,
      "velocity": 109,
      "chip": "ym2612"
    },
    {
      "channel": 1,
      "note": 88,
      "start": 5.5961,
      "duration": 0.116,
      "velocity": 109,
      "chip": "ym2612"
    },
    {
      "channel": 4,
      "note": 76,
      "start": 5.5971,
      "duration": 0.1155,
      "velocity": 109,
      "chip": "ym2612"
    },
    {
      "channel": 1,
      "note": 88,
      "start": 5.8295,
      "duration": 0.116,
      "velocity": 109,
      "chip": "ym2612"
    },
    {
      "channel": 4,
      "note": 76,
      "start": 5.8304,
      "duration": 0.116,
      "velocity": 109,
      "chip": "ym2612"
    },
    {
      "channel": 1,
      "note": 88,
      "start": 5.9461,
      "duration": 0.116,
      "velocity": 109,
      "chip": "ym2612"
    },
    {
      "channel": 4,
      "note": 76,
      "start": 5.9471,
      "duration": 0.1155,
      "velocity": 109,
      "chip": "ym2612"
    },
    {
      "channel": 1,
      "note": 86,
      "start": 6.1795,
      "duration": 0.116,
      "velocity": 109,
      "chip": "ym2612"
    },
    {
      "channel": 4,
      "note": 74,
      "start": 6.1804,
      "duration": 0.1155,
      "velocity": 109,
      "chip": "ym2612"
    },
    {
      "channel": 1,
      "note": 88,
      "start": 6.3961,
      "duration": 0.2326,
      "velocity": 109,
      "chip": "ym2612"
    },
    {
      "channel": 4,
      "note": 76,
      "start": 6.3971,
      "duration": 0.2326,
      "velocity": 109,
      "chip": "ym2612"
    },
    {
      "channel": 1,
      "note": 86,
      "start": 6.6295,
      "duration": 0.2326,
      "velocity": 109,
      "chip": "ym2612"
    },
    {
      "channel": 4,
      "note": 74,
      "start": 6.6304,
      "duration": 0.2327,
      "velocity": 109,
      "chip": "ym2612"
    },
    {
      "channel": 1,
      "note": 83,
      "start": 6.8628,
      "duration": 0.4502,
      "velocity": 109,
      "chip": "ym2612"
    },
    {
      "channel": 4,
      "note": 71,
      "start": 6.8638,
      "duration": 0.4512,
      "velocity": 109,
      "chip": "ym2612"
    },
    {
      "channel": 0,
      "note": 57,
      "start": 7.3129,
      "duration": 0.1614,
      "velocity": 74,
      "chip": "ym2612"
    },
    {
      "channel": 1,
      "note": 81,
      "start": 7.3137,
      "duration": 0.044,
      "velocity": 109,
      "chip": "ym2612"
    },
    {
      "channel": 4,
      "note": 69,
      "start": 7.3157,
      "duration": 0.0425,
      "velocity": 109,
      "chip": "ym2612"
    },
    {
      "channel": 0,
      "note": 57,
      "start": 7.4749,
      "duration": 0.0394,
      "velocity": 74,
      "chip": "ym2612"
    },
    {
      "channel": 1,
      "note": 81,
      "start": 7.4757,
      "duration": 0.0297,
      "velocity": 109,
      "chip": "ym2612"
    },
    {
      "channel": 4,
      "note": 69,
      "start": 7.4767,
      "duration": 0.0292,
      "velocity": 109,
      "chip": "ym2612"
    },
    {
      "channel": 0,
      "note": 57,
      "start": 7.5149,
      "duration": 0.0305,
      "velocity": 74,
      "chip": "ym2612"
    },
    {
      "channel": 1,
      "note": 81,
      "start": 7.5157,
      "duration": 0.0304,
      "velocity": 109,
      "chip": "ym2612"
    },
    {
      "channel": 4,
      "note": 69,
      "start": 7.5168,
      "duration": 0.0304,
      "velocity": 109,
      "chip": "ym2612"
    },
    {
      "channel": 0,
      "note": 59,
      "start": 7.546,
      "duration": 0.0315,
      "velocity": 74,
      "chip": "ym2612"
    },
    {
      "channel": 1,
      "note": 83,
      "start": 7.5468,
      "duration": 0.0314,
      "velocity": 109,
      "chip": "ym2612"
    },
    {
      "channel": 4,
      "note": 71,
      "start": 7.5478,
      "duration": 0.0315,
      "velocity": 109,
      "chip": "ym2612"
    },
    {
      "channel": 0,
      "note": 57,
      "start": 7.5781,
      "duration": 0.0317,
      "velocity": 74,
      "chip": "ym2612"
    },
    {
      "channel": 1,
      "note": 81,
      "start": 7.5789,
      "duration": 0.0316,
      "velocity": 109,
      "chip": "ym2612"
    },
    {
      "channel": 4,
      "note": 69,
      "start": 7.5799,
      "duration": 0.0317,
      "velocity": 109,
      "chip": "ym2612"
    },
    {
      "channel": 0,
      "note": 59,
      "start": 7.6104,
      "duration": 0.0319,
      "velocity": 74,
      "chip": "ym2612"
    },
    {
      "channel": 1,
      "note": 83,
      "start": 7.6112,
      "duration": 0.0319,
      "velocity": 109,
      "chip": "ym2612"
    },
    {
      "channel": 4,
      "note": 71,
      "start": 7.6122,
      "duration": 0.0319,
      "velocity": 109,
      "chip": "ym2612"
    },
    {
      "channel": 0,
      "note": 62,
      "start": 7.643,
      "duration": 0.0354,
      "velocity": 74,
      "chip": "ym2612"
    },
    {
      "channel": 1,
      "note": 86,
      "start": 7.6438,
      "duration": 0.0354,
      "velocity": 109,
      "chip": "ym2612"
    },
    {
      "channel": 4,
      "note": 74,
      "start": 7.6448,
      "duration": 0.0375,
      "velocity": 109,
      "chip": "ym2612"
    },
    {
      "channel": 0,
      "note": 64,
      "start": 7.679,
      "duration": 0.0461,
      "velocity": 74,
      "chip": "ym2612"
    },
    {
      "channel": 1,
      "note": 88,
      "start": 7.68,
      "duration": 0.0203,
      "velocity": 109,
      "chip": "ym2612"
    },
    {
      "channel": 2,
      "note": 76,
      "start": 7.681,
      "duration": 0.0202,
      "velocity": 102,
      "chip": "ym2612"
    },
    {
      "channel": 3,
      "note": 71,
      "start": 7.682,
      "duration": 0.02,
      "velocity": 102,
      "chip": "ym2612"
    },
    {
      "channel": 4,
      "note": 76,
      "start": 7.6829,
      "duration": 0.02,
      "velocity": 109,
      "chip": "ym2612"
    },
    {
      "channel": 1,
      "note": 88,
      "start": 7.701,
      "duration": 0.0249,
      "velocity": 109,
      "chip": "ym2612"
    },
    {
      "channel": 2,
      "note": 76,
      "start": 7.7019,
      "duration": 0.0243,
      "velocity": 102,
      "chip": "ym2612"
    },
    {
      "channel": 3,
      "note": 71,
      "start": 7.7028,
      "duration": 0.0242,
      "velocity": 102,
      "chip": "ym2612"
    },
    {
      "channel": 4,
      "note": 76,
      "start": 7.7036,
      "duration": 0.0244,
      "velocity": 109,
      "chip": "ym2612"
    },
    {
      "channel": 0,
      "note": 62,
      "start": 7.7257,
      "duration": 0.1163,
      "velocity": 74,
      "chip": "ym2612"
    },
    {
      "channel": 2,
      "note": 76,
      "start": 7.7269,
      "duration": 0.1166,
      "velocity": 102,
      "chip": "ym2612"
    },
    {
      "channel": 3,
      "note": 71,
      "start": 7.7279,
      "duration": 0.1166,
      "velocity": 102,
      "chip": "ym2612"
    },
    {
      "channel": 0,
      "note": 64,
      "start": 7.8426,
      "duration": 0.0401,
      "velocity": 74,
      "chip": "ym2612"
    },
    {
      "channel": 1,
      "note": 88,
      "start": 7.8434,
      "duration": 0.0173,
      "velocity": 109,
      "chip": "ym2612"
    },
    {
      "channel": 2,
      "note": 76,
      "start": 7.8443,
      "duration": 0.0172,
      "velocity": 102,
      "chip": "ym2612"
    },
    {
      "channel": 3,
      "note": 71,
      "start": 7.8453,
      "duration": 0.0172,
      "velocity": 102,
      "chip": "ym2612"
    },
    {
      "channel": 4,
      "note": 76,
      "start": 7.8461,
      "duration": 0.0173,
      "velocity": 109,
      "chip": "ym2612"
    },
    {
      "channel": 1,
      "note": 88,
      "start": 7.8614,
      "duration": 0.0221,
      "velocity": 109,
      "chip": "ym2612"
    },
    {
      "channel": 2,
      "note": 76,
      "start": 7.8623,
      "duration": 0.0215,
      "velocity": 102,
      "chip": "ym2612"
    },
    {
      "channel": 3,
      "note": 71,
      "start": 7.8632,
      "duration": 0.021,
      "velocity": 102,
      "chip": "ym2612"
    },
    {
      "channel": 4,
      "note": 76,
      "start": 7.864,
      "duration": 0.0207,
      "velocity": 109,
      "chip": "ym2612"
    },
    {
      "channel": 0,
      "note": 64,
      "start": 7.8832,
      "duration": 0.0114,
      "velocity": 74,
      "chip": "ym2612"
    },
    {
      "channel": 0,
      "note": 62,
      "start": 7.8953,
      "duration": 0.044,
      "velocity": 74,
      "chip": "ym2612"
    },
    {
      "channel": 1,
      "note": 86,
      "start": 7.8961,
      "duration": 0.02,
      "velocity": 109,
      "chip": "ym2612"
    },
    {
      "channel": 2,
      "note": 76,
      "start": 7.897,
      "duration": 0.0199,
      "velocity": 102,
      "chip": "ym2612"
    },
    {
      "channel": 3,
      "note": 71,
      "start": 7.898,
      "duration": 0.0199,
      "velocity": 102,
      "chip": "ym2612"
    },
    {
      "channel": 4,
      "note": 74,
      "start": 7.8988,
      "duration": 0.0199,
      "velocity": 109,
      "chip": "ym2612"
    },
    {
      "channel": 1,
      "note": 88,
      "start": 7.9168,
      "duration": 0.0233,
      "velocity": 109,
      "chip": "ym2612"
    },
    {
      "channel": 2,
      "note": 76,
      "start": 7.9177,
      "duration": 0.0227,
      "velocity": 102,
      "chip": "ym2612"
    },
    {
      "channel": 3,
      "note": 73,
      "start": 7.9186,
      "duration": 0.0223,
      "velocity": 102,
      "chip": "ym2612"
    },
    {
      "channel": 4,
      "note": 76,
      "start": 7.9194,
      "duration": 0.022,
      "velocity": 109,
      "chip": "ym2612"
    },
    {
      "channel": 0,
      "note": 57,
      "start": 7.94,
      "duration": 0.0351,
      "velocity": 74,
      "chip": "ym2612"
    },
    {
      "channel": 1,
      "note": 88,
      "start": 7.9524,
      "duration": 0.0234,
      "velocity": 109,
      "chip": "ym2612"
    },
    {
      "channel": 2,
      "note": 76,
      "start": 7.9533,
      "duration": 0.0233,
      "velocity": 102,
      "chip": "ym2612"
    },
    {
      "channel": 3,
      "note": 73,
      "start": 7.9543,
      "duration": 0.0228,
      "velocity": 102,
      "chip": "ym2612"
    },
    {
      "channel": 4,
      "note": 76,
      "start": 7.9551,
      "duration": 0.0225,
      "velocity": 109,
      "chip": "ym2612"
    },
    {
      "channel": 0,
      "note": 57,
      "start": 7.9756,
      "duration": 0.0297,
      "velocity": 74,
      "chip": "ym2612"
    },
    {
      "channel": 1,
      "note": 86,
      "start": 7.9765,
      "duration": 0.0135,
      "velocity": 109,
      "chip": "ym2612"
    },
    {
      "channel": 4,
      "note": 74,
      "start": 7.9783,
      "duration": 0.014,
      "velocity": 109,
      "chip": "ym2612"
    },
    {
      "channel": 2,
      "note": 76,
      "start": 7.9912,
      "duration": 0.0158,
      "velocity": 102,
      "chip": "ym2612"
    },
    {
      "channel": 3,
      "note": 73,
      "start": 7.9921,
      "duration": 0.0158,
      "velocity": 102,
      "chip": "ym2612"
    },
    {
      "channel": 0,
      "note": 59,
      "start": 8.006,
      "duration": 0.0384,
      "velocity": 74,
      "chip": "ym2612"
    },
    {
      "channel": 1,
      "note": 88,
      "start": 8.0068,
      "duration": 0.0216,
      "velocity": 109,
      "chip": "ym2612"
    },
    {
      "channel": 2,
      "note": 78,
      "start": 8.0077,
      "duration": 0.0216,
      "velocity": 102,
      "chip": "ym2612"
    },
    {
      "channel": 3,
      "note": 75,
      "start": 8.0087,
      "duration": 0.0211,
      "velocity": 102,
      "chip": "ym2612"
    },
    {
      "channel": 4,
      "note": 76,
      "start": 8.0095,
      "duration": 0.0208,
      "velocity": 109,
      "chip": "ym2612"
    },
    {
      "channel": 1,
      "note": 91,
      "start": 8.0291,
      "duration": 0.016,
      "velocity": 109,
      "chip": "ym2612"
    },
    {
      "channel": 4,
      "note": 79,
      "start": 8.031,
      "duration": 0.0169,
      "velocity": 109,
      "chip": "ym2612"
    },
    {
      "channel": 0,
      "note": 59,
      "start": 8.045,
      "duration": 0.1036,
      "velocity": 74,
      "chip": "ym2612"
    },
    {
      "channel": 1,
      "note": 88,
      "start": 8.0458,
      "duration": 0.0198,
      "velocity": 109,
      "chip": "ym2612"
    },
    {
      "channel": 2,
      "note": 78,
      "start": 8.0467,
      "duration": 0.0198,
      "velocity": 102,
      "chip": "ym2612"
    },
    {
      "channel": 3,
      "note": 75,
      "start": 8.0477,
      "duration": 0.0192,
      "velocity": 102,
      "chip": "ym2612"
    },
    {
      "channel": 4,
      "note": 76,
      "start": 8.0485,
      "duration": 0.0189,
      "velocity": 109,
      "chip": "ym2612"
    },
    {
      "channel": 1,
      "note": 86,
      "start": 8.0663,
      "duration": 0.083,
      "velocity": 109,
      "chip": "ym2612"
    },
    {
      "channel": 4,
      "note": 74,
      "start": 8.0681,
      "duration": 0.0839,
      "velocity": 109,
      "chip": "ym2612"
    },
    {
      "channel": 0,
      "note": 64,
      "start": 8.1492,
      "duration": 0.0378,
      "velocity": 74,
      "chip": "ym2612"
    },
    {
      "channel": 1,
      "note": 88,
      "start": 8.15,
      "duration": 0.0198,
      "velocity": 109,
      "chip": "ym2612"
    },
    {
      "channel": 2,
      "note": 76,
      "start": 8.1509,
      "duration": 0.0197,
      "velocity": 102,
      "chip": "ym2612"
    },
    {
      "channel": 3,
      "note": 71,
      "start": 8.1518,
      "duration": 0.0197,
      "velocity": 102,
      "chip": "ym2612"
    },
    {
      "channel": 4,
      "note": 76,
      "start": 8.1527,
      "duration": 0.0198,
      "velocity": 109,
      "chip": "ym2612"
    },
    {
      "channel": 1,
      "note": 88,
      "start": 8.1704,
      "duration": 0.0173,
      "velocity": 109,
      "chip": "ym2612"
    },
    {
      "channel": 2,
      "note": 76,
      "start": 8.1714,
      "duration": 0.0167,
      "velocity": 102,
      "chip": "ym2612"
    },
    {
      "channel": 3,
      "note": 71,
      "start": 8.1723,
      "duration": 0.0166,
      "velocity": 102,
      "chip": "ym2612"
    },
    {
      "channel": 4,
      "note": 76,
      "start": 8.1732,
      "duration": 0.0167,
      "velocity": 109,
      "chip": "ym2612"
    },
    {
      "channel": 0,
      "note": 62,
      "start": 8.1876,
      "duration": 0.1079,
      "velocity": 74,
      "chip": "ym2612"
    },
    {
      "channel": 2,
      "note": 76,
      "start": 8.1888,
      "duration": 0.1083,
      "velocity": 102,
      "chip": "ym2612"
    },
    {
      "channel": 3,
      "note": 71,
      "start": 8.1897,
      "duration": 0.1083,
      "velocity": 102,
      "chip": "ym2612"
    },
    {
      "channel": 0,
      "note": 64,
      "start": 8.2961,
      "duration": 0.0429,
      "velocity": 74,
      "chip": "ym2612"
    },
    {
      "channel": 1,
      "note": 88,
      "start": 8.2969,
      "duration": 0.02,
      "velocity": 109,
      "chip": "ym2612"
    },
    {
      "channel": 2,
      "note": 76,
      "start": 8.2978,
      "duration": 0.02,
      "velocity": 102,
      "chip": "ym2612"
    },
    {
      "channel": 3,
      "note": 71,
      "start": 8.2988,
      "duration": 0.02,
      "velocity": 102,
      "chip": "ym2612"
    },
    {
      "channel": 4,
      "note": 76,
      "start": 8.2996,
      "duration": 0.0201,
      "velocity": 109,
      "chip": "ym2612"
    },
    {
      "channel": 1,
      "note": 88,
      "start": 8.3177,
      "duration": 0.0221,
      "velocity": 109,
      "chip": "ym2612"
    },
    {
      "channel": 2,
      "note": 76,
      "start": 8.3186,
      "duration": 0.0215,
      "velocity": 102,
      "chip": "ym2612"
    },
    {
      "channel": 3,
      "note": 71,
      "start": 8.3195,
      "duration": 0.0211,
      "velocity": 102,
      "chip": "ym2612"
    },
    {
      "channel": 4,
      "note": 76,
      "start": 8.3203,
      "duration": 0.0208,
      "velocity": 109,
      "chip": "ym2612"
    },
    {
      "channel": 0,
      "note": 64,
      "start": 8.3397,
      "duration": 0.0112,
      "velocity": 74,
      "chip": "ym2612"
    },
    {
      "channel": 0,
      "note": 62,
      "start": 8.3515,
      "duration": 0.0385,
      "velocity": 74,
      "chip": "ym2612"
    },
    {
      "channel": 1,
      "note": 86,
      "start": 8.3523,
      "duration": 0.0202,
      "velocity": 109,
      "chip": "ym2612"
    },
    {
      "channel": 2,
      "note": 76,
      "start": 8.3532,
      "duration": 0.0196,
      "velocity": 102,
      "chip": "ym2612"
    },
    {
      "channel": 3,
      "note": 71,
      "start": 8.3542,
      "duration": 0.0196,
      "velocity": 102,
      "chip": "ym2612"
    },
    {
      "channel": 4,
      "note": 74,
      "start": 8.355,
      "duration": 0.0197,
      "velocity": 109,
      "chip": "ym2612"
    },
    {
      "channel": 2,
      "note": 76,
      "start": 8.3736,
      "duration": 0.018,
      "velocity": 102,
      "chip": "ym2612"
    },
    {
      "channel": 3,
      "note": 73,
      "start": 8.3745,
      "duration": 0.0176,
      "velocity": 102,
      "chip": "ym2612"
    },
    {
      "channel": 0,
      "note": 57,
      "start": 8.3906,
      "duration": 0.0379,
      "velocity": 74,
      "chip": "ym2612"
    },
    {
      "channel": 1,
      "note": 88,
      "start": 8.3915,
      "duration": 0.0378,
      "velocity": 109,
      "chip": "ym2612"
    },
    {
      "channel": 4,
      "note": 76,
      "start": 8.3932,
      "duration": 0.0379,
      "velocity": 109,
      "chip": "ym2612"
    },
    {
      "channel": 2,
      "note": 76,
      "start": 8.4065,
      "duration": 0.0237,
      "velocity": 102,
      "chip": "ym2612"
    },
    {
      "channel": 3,
      "note": 73,
      "start": 8.4074,
      "duration": 0.0232,
      "velocity": 102,
      "chip": "ym2612"
    },
    {
      "channel": 0,
      "note": 57,
      "start": 8.4292,
      "duration": 0.0448,
      "velocity": 74,
      "chip": "ym2612"
    },
    {
      "channel": 1,
      "note": 91,
      "start": 8.43,
      "duration": 0.0448,
      "velocity": 109,
      "chip": "ym2612"
    },
    {
      "channel": 4,
      "note": 79,
      "start": 8.4319,
      "duration": 0.0456,
      "velocity": 109,
      "chip": "ym2612"
    },
    {
      "channel": 2,
      "note": 76,
      "start": 8.4469,
      "duration": 0.0287,
      "velocity": 102,
      "chip": "ym2612"
    },
    {
      "channel": 3,
      "note": 73,
      "start": 8.4478,
      "duration": 0.0288,
      "velocity": 102,
      "chip": "ym2612"
    },
    {
      "channel": 0,
      "note": 59,
      "start": 8.4746,
      "duration": 0.0364,
      "velocity": 74,
      "chip": "ym2612"
    },
    {
      "channel": 1,
      "note": 93,
      "start": 8.4755,
      "duration": 0.0363,
      "velocity": 109,
      "chip": "ym2612"
    },
    {
      "channel": 2,
      "note": 75,
      "start": 8.4764,
      "duration": 0.0197,
      "velocity": 102,
      "chip": "ym2612"
    },
    {
      "channel": 3,
      "note": 71,
      "start": 8.4773,
      "duration": 0.0192,
      "velocity": 102,
      "chip": "ym2612"
    },
    {
      "channel": 4,
      "note": 81,
      "start": 8.4781,
      "duration": 0.0363,
      "velocity": 109,
      "chip": "ym2612"
    },
    {
      "channel": 0,
      "note": 59,
      "start": 8.5116,
      "duration": 0.0876,
      "velocity": 74,
      "chip": "ym2612"
    },
    {
      "channel": 1,
      "note": 95,
      "start": 8.5124,
      "duration": 0.0875,
      "velocity": 109,
      "chip": "ym2612"
    },
    {
      "channel": 2,
      "note": 75,
      "start": 8.5134,
      "duration": 0.0191,
      "velocity": 102,
      "chip": "ym2612"
    },
    {
      "channel": 3,
      "note": 71,
      "start": 8.5143,
      "duration": 0.0187,
      "velocity": 102,
      "chip": "ym2612"
    },
    {
      "channel": 4,
      "note": 83,
      "start": 8.5151,
      "duration": 0.0879,
      "velocity": 109,
      "chip": "ym2612"
    },
    {
      "channel": 0,
      "note": 64,
      "start": 8.5998,
      "duration": 0.0461,
      "velocity": 74,
      "chip": "ym2612"
    },
    {
      "channel": 1,
      "note": 88,
      "start": 8.6006,
      "duration": 0.0202,
      "velocity": 109,
      "chip": "ym2612"
    },
    {
      "channel": 2,
      "note": 76,
      "start": 8.6018,
      "duration": 0.0199,
      "velocity": 102,
      "chip": "ym2612"
    },
    {
      "channel": 3,
      "note": 71,
      "start": 8.6029,
      "duration": 0.0197,
      "velocity": 102,
      "chip": "ym2612"
    },
    {
      "channel": 4,
      "note": 76,
      "start": 8.6037,
      "duration": 0.0198,
      "velocity": 109,
      "chip": "ym2612"
    },
    {
      "channel": 1,
      "note": 88,
      "start": 8.6215,
      "duration": 0.0251,
      "velocity": 109,
      "chip": "ym2612"
    },
    {
      "channel": 2,
      "note": 76,
      "start": 8.6224,
      "duration": 0.0245,
      "velocity": 102,
      "chip": "ym2612"
    },
    {
      "channel": 3,
      "note": 71,
      "start": 8.6234,
      "duration": 0.0245,
      "velocity": 102,
      "chip": "ym2612"
    },
    {
      "channel": 4,
      "note": 76,
      "start": 8.6242,
      "duration": 0.0246,
      "velocity": 109,
      "chip": "ym2612"
    },
    {
      "channel": 0,
      "note": 62,
      "start": 8.6464,
      "duration": 0.1163,
      "velocity": 74,
      "chip": "ym2612"
    },
    {
      "channel": 2,
      "note": 76,
      "start": 8.6477,
      "duration": 0.1166,
      "velocity": 102,
      "chip": "ym2612"
    },
    {
      "channel": 3,
      "note": 71,
      "start": 8.6486,
      "duration": 0.1167,
      "velocity": 102,
      "chip": "ym2612"
    },
    {
      "channel": 0,
      "note": 64,
      "start": 8.7634,
      "duration": 0.043,
      "velocity": 74,
      "chip": "ym2612"
    },
    {
      "channel": 1,
      "note": 88,
      "start": 8.7642,
      "duration": 0.02,
      "velocity": 109,
      "chip": "ym2612"
    },
    {
      "channel": 2,
      "note": 76,
      "start": 8.7651,
      "duration": 0.0199,
      "velocity": 102,
      "chip": "ym2612"
    },
    {
      "channel": 3,
      "note": 71,
      "start": 8.766,
      "duration": 0.0199,
      "velocity": 102,
      "chip": "ym2612"
    },
    {
      "channel": 4,
      "note": 76,
      "start": 8.7668,
      "duration": 0.02,
      "velocity": 109,
      "chip": "ym2612"
    },
    {
      "channel": 1,
      "note": 88,
      "start": 8.7848,
      "duration": 0.0223,
      "velocity": 109,
      "chip": "ym2612"
    },
    {
      "channel": 2,
      "note": 76,
      "start": 8.7857,
      "duration": 0.0217,
      "velocity": 102,
      "chip": "ym2612"
    },
    {
      "channel": 3,
      "note": 71,
      "start": 8.7867,
      "duration": 0.0212,
      "velocity": 102,
      "chip": "ym2612"
    },
    {
      "channel": 4,
      "note": 76,
      "start": 8.7875,
      "duration": 0.0209,
      "velocity": 109,
      "chip": "ym2612"
    },
    {
      "channel": 0,
      "note": 64,
      "start": 8.8069,
      "duration": 0.0114,
      "velocity": 74,
      "chip": "ym2612"
    },
    {
      "channel": 0,
      "note": 62,
      "start": 8.8189,
      "duration": 0.0415,
      "velocity": 74,
      "chip": "ym2612"
    },
    {
      "channel": 1,
      "note": 86,
      "start": 8.8197,
      "duration": 0.0174,
      "velocity": 109,
      "chip": "ym2612"
    },
    {
      "channel": 2,
      "note": 76,
      "start": 8.8206,
      "duration": 0.0173,
      "velocity": 102,
      "chip": "ym2612"
    },
    {
      "channel": 3,
      "note": 71,
      "start": 8.8216,
      "duration": 0.0173,
      "velocity": 102,
      "chip": "ym2612"
    },
    {
      "channel": 4,
      "note": 74,
      "start": 8.8224,
      "duration": 0.0174,
      "velocity": 109,
      "chip": "ym2612"
    },
    {
      "channel": 1,
      "note": 88,
      "start": 8.8378,
      "duration": 0.0234,
      "velocity": 109,
      "chip": "ym2612"
    },
    {
      "channel": 2,
      "note": 76,
      "start": 8.8387,
      "duration": 0.0228,
      "velocity": 102,
      "chip": "ym2612"
    },
    {
      "channel": 3,
      "note": 73,
      "start": 8.8397,
      "duration": 0.0223,
      "velocity": 102,
      "chip": "ym2612"
    },
    {
      "channel": 4,
      "note": 76,
      "start": 8.8405,
      "duration": 0.022,
      "velocity": 109,
      "chip": "ym2612"
    },
    {
      "channel": 0,
      "note": 57,
      "start": 8.8611,
      "duration": 0.035,
      "velocity": 74,
      "chip": "ym2612"
    },
    {
      "channel": 1,
      "note": 88,
      "start": 8.8735,
      "duration": 0.0233,
      "velocity": 109,
      "chip": "ym2612"
    },
    {
      "channel": 2,
      "note": 76,
      "start": 8.8744,
      "duration": 0.0232,
      "velocity": 102,
      "chip": "ym2612"
    },
    {
      "channel": 3,
      "note": 73,
      "start": 8.8754,
      "duration": 0.0228,
      "velocity": 102,
      "chip": "ym2612"
    },
    {
      "channel": 4,
      "note": 76,
      "start": 8.8762,
      "duration": 0.0224,
      "velocity": 109,
      "chip": "ym2612"
    },
    {
      "channel": 0,
      "note": 57,
      "start": 8.8967,
      "duration": 0.0448,
      "velocity": 74,
      "chip": "ym2612"
    },
    {
      "channel": 1,
      "note": 86,
      "start": 8.8976,
      "duration": 0.0157,
      "velocity": 109,
      "chip": "ym2612"
    },
    {
      "channel": 4,
      "note": 74,
      "start": 8.8993,
      "duration": 0.0162,
      "velocity": 109,
      "chip": "ym2612"
    },
    {
      "channel": 2,
      "note": 76,
      "start": 8.9144,
      "duration": 0.0287,
      "velocity": 102,
      "chip": "ym2612"
    },
    {
      "channel": 3,
      "note": 73,
      "start": 8.9153,
      "duration": 0.0288,
      "velocity": 102,
      "chip": "ym2612"
    },
    {
      "channel": 0,
      "note": 59,
      "start": 8.9422,
      "duration": 0.0346,
      "velocity": 74,
      "chip": "ym2612"
    },
    {
      "channel": 1,
      "note": 88,
      "start": 8.943,
      "duration": 0.0201,
      "velocity": 109,
      "chip": "ym2612"
    },
    {
      "channel": 2,
      "note": 78,
      "start": 8.9439,
      "duration": 0.0201,
      "velocity": 102,
      "chip": "ym2612"
    },
    {
      "channel": 3,
      "note": 75,
      "start": 8.9449,
      "duration": 0.0196,
      "velocity": 102,
      "chip": "ym2612"
    },
    {
      "channel": 4,
      "note": 76,
      "start": 8.9457,
      "duration": 0.0193,
      "velocity": 109,
      "chip": "ym2612"
    },
    {
      "channel": 1,
      "note": 91,
      "start": 8.9639,
      "duration": 0.0138,
      "velocity": 109,
      "chip": "ym2612"
    },
    {
      "channel": 4,
      "note": 79,
      "start": 8.9657,
      "duration": 0.0146,
      "velocity": 109,
      "chip": "ym2612"
    },
    {
      "channel": 0,
      "note": 59,
      "start": 8.9774,
      "duration": 0.0892,
      "velocity": 74,
      "chip": "ym2612"
    },
    {
      "channel": 1,
      "note": 88,
      "start": 8.9783,
      "duration": 0.0198,
      "velocity": 109,
      "chip": "ym2612"
    },
    {
      "channel": 2,
      "note": 78,
      "start": 8.9792,
      "duration": 0.0197,
      "velocity": 102,
      "chip": "ym2612"
    },
    {
      "channel": 3,
      "note": 75,
      "start": 8.9801,
      "duration": 0.0193,
      "velocity": 102,
      "chip": "ym2612"
    },
    {
      "channel": 4,
      "note": 76,
      "start": 8.9809,
      "duration": 0.019,
      "velocity": 109,
      "chip": "ym2612"
    },
    {
      "channel": 1,
      "note": 86,
      "start": 8.9987,
      "duration": 0.0687,
      "velocity": 109,
      "chip": "ym2612"
    },
    {
      "channel": 4,
      "note": 74,
      "start": 9.0005,
      "duration": 0.0696,
      "velocity": 109,
      "chip": "ym2612"
    },
    {
      "channel": 0,
      "note": 64,
      "start": 9.0672,
      "duration": 0.0461,
      "velocity": 74,
      "chip": "ym2612"
    },
    {
      "channel": 1,
      "note": 88,
      "start": 9.068,
      "duration": 0.0197,
      "velocity": 109,
      "chip": "ym2612"
    },
    {
      "channel": 2,
      "note": 76,
      "start": 9.069,
      "duration": 0.0197,
      "velocity": 102,
      "chip": "ym2612"
    },
    {
      "channel": 3,
      "note": 71,
      "start": 9.0699,
      "duration": 0.0197,
      "velocity": 102,
      "chip": "ym2612"
    },
    {
      "channel": 4,
      "note": 76,
      "start": 9.0707,
      "duration": 0.0198,
      "velocity": 109,
      "chip": "ym2612"
    },
    {
      "channel": 1,
      "note": 88,
      "start": 9.0885,
      "duration": 0.0257,
      "velocity": 109,
      "chip": "ym2612"
    },
    {
      "channel": 2,
      "note": 76,
      "start": 9.0894,
      "duration": 0.025,
      "velocity": 102,
      "chip": "ym2612"
    },
    {
      "channel": 3,
      "note": 71,
      "start": 9.0903,
      "duration": 0.025,
      "velocity": 102,
      "chip": "ym2612"
    },
    {
      "channel": 4,
      "note": 76,
      "start": 9.0912,
      "duration": 0.0251,
      "velocity": 109,
      "chip": "ym2612"
    },
    {
      "channel": 0,
      "note": 62,
      "start": 9.114,
      "duration": 0.1163,
      "velocity": 74,
      "chip": "ym2612"
    },
    {
      "channel": 2,
      "note": 76,
      "start": 9.1152,
      "duration": 0.1166,
      "velocity": 102,
      "chip": "ym2612"
    },
    {
      "channel": 3,
      "note": 71,
      "start": 9.1162,
      "duration": 0.1166,
      "velocity": 102,
      "chip": "ym2612"
    },
    {
      "channel": 0,
      "note": 64,
      "start": 9.2309,
      "duration": 0.0396,
      "velocity": 74,
      "chip": "ym2612"
    },
    {
      "channel": 1,
      "note": 88,
      "start": 9.2317,
      "duration": 0.02,
      "velocity": 109,
      "chip": "ym2612"
    },
    {
      "channel": 2,
      "note": 76,
      "start": 9.2326,
      "duration": 0.02,
      "velocity": 102,
      "chip": "ym2612"
    },
    {
      "channel": 3,
      "note": 71,
      "start": 9.2336,
      "duration": 0.02,
      "velocity": 102,
      "chip": "ym2612"
    },
    {
      "channel": 4,
      "note": 76,
      "start": 9.2344,
      "duration": 0.02,
      "velocity": 109,
      "chip": "ym2612"
    },
    {
      "channel": 1,
      "note": 88,
      "start": 9.2524,
      "duration": 0.0188,
      "velocity": 109,
      "chip": "ym2612"
    },
    {
      "channel": 2,
      "note": 76,
      "start": 9.2533,
      "duration": 0.0183,
      "velocity": 102,
      "chip": "ym2612"
    },
    {
      "channel": 3,
      "note": 71,
      "start": 9.2543,
      "duration": 0.0178,
      "velocity": 102,
      "chip": "ym2612"
    },
    {
      "channel": 4,
      "note": 76,
      "start": 9.2551,
      "duration": 0.0175,
      "velocity": 109,
      "chip": "ym2612"
    },
    {
      "channel": 0,
      "note": 64,
      "start": 9.2711,
      "duration": 0.013,
      "velocity": 74,
      "chip": "ym2612"
    },
    {
      "channel": 0,
      "note": 62,
      "start": 9.2847,
      "duration": 0.0383,
      "velocity": 74,
      "chip": "ym2612"
    },
    {
      "channel": 1,
      "note": 86,
      "start": 9.2856,
      "duration": 0.02,
      "velocity": 109,
      "chip": "ym2612"
    },
    {
      "channel": 2,
      "note": 76,
      "start": 9.2865,
      "duration": 0.0194,
      "velocity": 102,
      "chip": "ym2612"
    },
    {
      "channel": 3,
      "note": 71,
      "start": 9.2874,
      "duration": 0.0193,
      "velocity": 102,
      "chip": "ym2612"
    },
    {
      "channel": 4,
      "note": 74,
      "start": 9.2882,
      "duration": 0.0195,
      "velocity": 109,
      "chip": "ym2612"
    },
    {
      "channel": 2,
      "note": 76,
      "start": 9.3066,
      "duration": 0.018,
      "velocity": 102,
      "chip": "ym2612"
    },
    {
      "channel": 3,
      "note": 73,
      "start": 9.3075,
      "duration": 0.0176,
      "velocity": 102,
      "chip": "ym2612"
    },
    {
      "channel": 0,
      "note": 57,
      "start": 9.3237,
      "duration": 0.0401,
      "velocity": 74,
      "chip": "ym2612"
    },
    {
      "channel": 1,
      "note": 88,
      "start": 9.3245,
      "duration": 0.04,
      "velocity": 109,
      "chip": "ym2612"
    },
    {
      "channel": 4,
      "note": 76,
      "start": 9.3264,
      "duration": 0.04,
      "velocity": 109,
      "chip": "ym2612"
    },
    {
      "channel": 2,
      "note": 76,
      "start": 9.3418,
      "duration": 0.0236,
      "velocity": 102,
      "chip": "ym2612"
    },
    {
      "channel": 3,
      "note": 73,
      "start": 9.3427,
      "duration": 0.0232,
      "velocity": 102,
      "chip": "ym2612"
    },
    {
      "channel": 0,
      "note": 57,
      "start": 9.3645,
      "duration": 0.0341,
      "velocity": 74,
      "chip": "ym2612"
    },
    {
      "channel": 1,
      "note": 86,
      "start": 9.3653,
      "duration": 0.034,
      "velocity": 109,
      "chip": "ym2612"
    },
    {
      "channel": 4,
      "note": 74,
      "start": 9.3671,
      "duration": 0.0349,
      "velocity": 109,
      "chip": "ym2612"
    },
    {
      "channel": 2,
      "note": 76,
      "start": 9.3822,
      "duration": 0.018,
      "velocity": 102,
      "chip": "ym2612"
    },
    {
      "channel": 3,
      "note": 73,
      "start": 9.3831,
      "duration": 0.018,
      "velocity": 102,
      "chip": "ym2612"
    },
    {
      "channel": 0,
      "note": 59,
      "start": 9.3992,
      "duration": 0.0384,
      "velocity": 74,
      "chip": "ym2612"
    },
    {
      "channel": 1,
      "note": 83,
      "start": 9.4,
      "duration": 0.0779,
      "velocity": 109,
      "chip": "ym2612"
    },
    {
      "channel": 2,
      "note": 75,
      "start": 9.4009,
      "duration": 0.0214,
      "velocity": 102,
      "chip": "ym2612"
    },
    {
      "channel": 3,
      "note": 71,
      "start": 9.4019,
      "duration": 0.0209,
      "velocity": 102,
      "chip": "ym2612"
    },
    {
      "channel": 4,
      "note": 71,
      "start": 9.4027,
      "duration": 0.0785,
      "velocity": 109,
      "chip": "ym2612"
    },
    {
      "channel": 0,
      "note": 59,
      "start": 9.4382,
      "duration": 0.0388,
      "velocity": 74,
      "chip": "ym2612"
    },
    {
      "channel": 2,
      "note": 75,
      "start": 9.4396,
      "duration": 0.0198,
      "velocity": 102,
      "chip": "ym2612"
    },
    {
      "channel": 3,
      "note": 71,
      "start": 9.4405,
      "duration": 0.0194,
      "velocity": 102,
      "chip": "ym2612"
    },
    {
      "channel": 0,
      "note": 64,
      "start": 9.4776,
      "duration": 0.0458,
      "velocity": 74,
      "chip": "ym2612"
    },
    {
      "channel": 1,
      "note": 88,
      "start": 9.4786,
      "duration": 0.0203,
      "velocity": 109,
      "chip": "ym2612"
    },
    {
      "channel": 2,
      "note": 76,
      "start": 9.4797,
      "duration": 0.0202,
      "velocity": 102,
      "chip": "ym2612"
    },
    {
      "channel": 3,
      "note": 71,
      "start": 9.4809,
      "duration": 0.0199,
      "velocity": 102,
      "chip": "ym2612"
    },
    {
      "channel": 4,
      "note": 76,
      "start": 9.4819,
      "duration": 0.0198,
      "velocity": 109,
      "chip": "ym2612"
    },
    {
      "channel": 1,
      "note": 88,
      "start": 9.4997,
      "duration": 0.0245,
      "velocity": 109,
      "chip": "ym2612"
    },
    {
      "channel": 2,
      "note": 76,
      "start": 9.5006,
      "duration": 0.0239,
      "velocity": 102,
      "chip": "ym2612"
    },
    {
      "channel": 3,
      "note": 71,
      "start": 9.5016,
      "duration": 0.0238,
      "velocity": 102,
      "chip": "ym2612"
    },
    {
      "channel": 4,
      "note": 76,
      "start": 9.5024,
      "duration": 0.0239,
      "velocity": 109,
      "chip": "ym2612"
    },
    {
      "channel": 0,
      "note": 62,
      "start": 9.524,
      "duration": 0.0996,
      "velocity": 74,
      "chip": "ym2612"
    },
    {
      "channel": 2,
      "note": 76,
      "start": 9.5252,
      "duration": 0.0999,
      "velocity": 102,
      "chip": "ym2612"
    },
    {
      "channel": 3,
      "note": 71,
      "start": 9.5261,
      "duration": 0.1,
      "velocity": 102,
      "chip": "ym2612"
    },
    {
      "channel": 0,
      "note": 64,
      "start": 9.6242,
      "duration": 0.043,
      "velocity": 74,
      "chip": "ym2612"
    },
    {
      "channel": 1,
      "note": 88,
      "start": 9.625,
      "duration": 0.0201,
      "velocity": 109,
      "chip": "ym2612"
    },
    {
      "channel": 2,
      "note": 76,
      "start": 9.6259,
      "duration": 0.02,
      "velocity": 102,
      "chip": "ym2612"
    },
    {
      "channel": 3,
      "note": 71,
      "start": 9.6269,
      "duration": 0.02,
      "velocity": 102,
      "chip": "ym2612"
    },
    {
      "channel": 4,
      "note": 76,
      "start": 9.6277,
      "duration": 0.0201,
      "velocity": 109,
      "chip": "ym2612"
    },
    {
      "channel": 1,
      "note": 88,
      "start": 9.6458,
      "duration": 0.0222,
      "velocity": 109,
      "chip": "ym2612"
    },
    {
      "channel": 2,
      "note": 76,
      "start": 9.6467,
      "duration": 0.0216,
      "velocity": 102,
      "chip": "ym2612"
    },
    {
      "channel": 3,
      "note": 71,
      "start": 9.6476,
      "duration": 0.0211,
      "velocity": 102,
      "chip": "ym2612"
    },
    {
      "channel": 4,
      "note": 76,
      "start": 9.6485,
      "duration": 0.0208,
      "velocity": 109,
      "chip": "ym2612"
    },
    {
      "channel": 0,
      "note": 64,
      "start": 9.6678,
      "duration": 0.0113,
      "velocity": 74,
      "chip": "ym2612"
    },
    {
      "channel": 0,
      "note": 62,
      "start": 9.6798,
      "duration": 0.0443,
      "velocity": 74,
      "chip": "ym2612"
    },
    {
      "channel": 1,
      "note": 86,
      "start": 9.6806,
      "duration": 0.0202,
      "velocity": 109,
      "chip": "ym2612"
    },
    {
      "channel": 2,
      "note": 76,
      "start": 9.6815,
      "duration": 0.0201,
      "velocity": 102,
      "chip": "ym2612"
    },
    {
      "channel": 3,
      "note": 71,
      "start": 9.6824,
      "duration": 0.0201,
      "velocity": 102,
      "chip": "ym2612"
    },
    {
      "channel": 4,
      "note": 74,
      "start": 9.6832,
      "duration": 0.0202,
      "velocity": 109,
      "chip": "ym2612"
    },
    {
      "channel": 1,
      "note": 88,
      "start": 9.7014,
      "duration": 0.0233,
      "velocity": 109,
      "chip": "ym2612"
    },
    {
      "channel": 2,
      "note": 76,
      "start": 9.7023,
      "duration": 0.0227,
      "velocity": 102,
      "chip": "ym2612"
    },
    {
      "channel": 3,
      "note": 73,
      "start": 9.7033,
      "duration": 0.0223,
      "velocity": 102,
      "chip": "ym2612"
    },
    {
      "channel": 4,
      "note": 76,
      "start": 9.7041,
      "duration": 0.022,
      "velocity": 109,
      "chip": "ym2612"
    },
    {
      "channel": 0,
      "note": 57,
      "start": 9.7246,
      "duration": 0.031,
      "velocity": 74,
      "chip": "ym2612"
    },
    {
      "channel": 1,
      "note": 88,
      "start": 9.7371,
      "duration": 0.0193,
      "velocity": 109,
      "chip": "ym2612"
    },
    {
      "channel": 2,
      "note": 76,
      "start": 9.738,
      "duration": 0.0192,
      "velocity": 102,
      "chip": "ym2612"
    },
    {
      "channel": 3,
      "note": 73,
      "start": 9.739,
      "duration": 0.0188,
      "velocity": 102,
      "chip": "ym2612"
    },
    {
      "channel": 4,
      "note": 76,
      "start": 9.7398,
      "duration": 0.0185,
      "velocity": 109,
      "chip": "ym2612"
    },
    {
      "channel": 0,
      "note": 57,
      "start": 9.7563,
      "duration": 0.0447,
      "velocity": 74,
      "chip": "ym2612"
    },
    {
      "channel": 1,
      "note": 86,
      "start": 9.7571,
      "duration": 0.0156,
      "velocity": 109,
      "chip": "ym2612"
    },
    {
      "channel": 4,
      "note": 74,
      "start": 9.759,
      "duration": 0.016,
      "velocity": 109,
      "chip": "ym2612"
    },
    {
      "channel": 2,
      "note": 76,
      "start": 9.7739,
      "duration": 0.0287,
      "velocity": 102,
      "chip": "ym2612"
    },
    {
      "channel": 3,
      "note": 73,
      "start": 9.7748,
      "duration": 0.0288,
      "velocity": 102,
      "chip": "ym2612"
    },
    {
      "channel": 0,
      "note": 59,
      "start": 9.8016,
      "duration": 0.0371,
      "velocity": 74,
      "chip": "ym2612"
    },
    {
      "channel": 1,
      "note": 88,
      "start": 9.8024,
      "duration": 0.0201,
      "velocity": 109,
      "chip": "ym2612"
    },
    {
      "channel": 2,
      "note": 78,
      "start": 9.8034,
      "duration": 0.0201,
      "velocity": 102,
      "chip": "ym2612"
    },
    {
      "channel": 3,
      "note": 75,
      "start": 9.8043,
      "duration": 0.0197,
      "velocity": 102,
      "chip": "ym2612"
    },
    {
      "channel": 4,
      "note": 76,
      "start": 9.8051,
      "duration": 0.0194,
      "velocity": 109,
      "chip": "ym2612"
    },
    {
      "channel": 1,
      "note": 91,
      "start": 9.8233,
      "duration": 0.0162,
      "velocity": 109,
      "chip": "ym2612"
    },
    {
      "channel": 4,
      "note": 79,
      "start": 9.8251,
      "duration": 0.017,
      "velocity": 109,
      "chip": "ym2612"
    },
    {
      "channel": 0,
      "note": 59,
      "start": 9.8393,
      "duration": 0.1035,
      "velocity": 74,
      "chip": "ym2612"
    },
    {
      "channel": 1,
      "note": 88,
      "start": 9.8401,
      "duration": 0.0195,
      "velocity": 109,
      "chip": "ym2612"
    },
    {
      "channel": 2,
      "note": 78,
      "start": 9.841,
      "duration": 0.0195,
      "velocity": 102,
      "chip": "ym2612"
    },
    {
      "channel": 3,
      "note": 75,
      "start": 9.8419,
      "duration": 0.019,
      "velocity": 102,
      "chip": "ym2612"
    },
    {
      "channel": 4,
      "note": 76,
      "start": 9.8428,
      "duration": 0.0187,
      "velocity": 109,
      "chip": "ym2612"
    },
    {
      "channel": 1,
      "note": 86,
      "start": 9.8603,
      "duration": 0.0832,
      "velocity": 109,
      "chip": "ym2612"
    },
    {
      "channel": 4,
      "note": 74,
      "start": 9.8622,
      "duration": 0.0841,
      "velocity": 109,
      "chip": "ym2612"
    },
    {
      "channel": 0,
      "note": 64,
      "start": 9.9434,
      "duration": 0.0378,
      "velocity": 74,
      "chip": "ym2612"
    },
    {
      "channel": 1,
      "note": 88,
      "start": 9.9442,
      "duration": 0.0169,
      "velocity": 109,
      "chip": "ym2612"
    },
    {
      "channel": 2,
      "note": 76,
      "start": 9.9452,
      "duration": 0.0168,
      "velocity": 102,
      "chip": "ym2612"
    },
    {
      "channel": 3,
      "note": 71,
      "start": 9.9461,
      "duration": 0.0168,
      "velocity": 102,
      "chip": "ym2612"
    },
    {
      "channel": 4,
      "note": 76,
      "start": 9.947,
      "duration": 0.0169,
      "velocity": 109,
      "chip": "ym2612"
    },
    {
      "channel": 1,
      "note": 88,
      "start": 9.9618,
      "duration": 0.0202,
      "velocity": 109,
      "chip": "ym2612"
    },
    {
      "channel": 2,
      "note": 76,
      "start": 9.9627,
      "duration": 0.0195,
      "velocity": 102,
      "chip": "ym2612"
    },
    {
      "channel": 3,
      "note": 71,
      "start": 9.9637,
      "duration": 0.0195,
      "velocity": 102,
      "chip": "ym2612"
    },
    {
      "channel": 4,
      "note": 76,
      "start": 9.9645,
      "duration": 0.0196,
      "velocity": 109,
      "chip": "ym2612"
    },
    {
      "channel": 0,
      "note": 62,
      "start": 9.9818,
      "duration": 0.1079,
      "velocity": 74,
      "chip": "ym2612"
    },
    {
      "channel": 2,
      "note": 76,
      "start": 9.983,
      "duration": 0.1083,
      "velocity": 102,
      "chip": "ym2612"
    },
    {
      "channel": 3,
      "note": 71,
      "start": 9.9839,
      "duration": 0.1083,
      "velocity": 102,
      "chip": "ym2612"
    },
    {
      "channel": 0,
      "note": 64,
      "start": 10.0903,
      "duration": 0.043,
      "velocity": 74,
      "chip": "ym2612"
    },
    {
      "channel": 1,
      "note": 88,
      "start": 10.0912,
      "duration": 0.02,
      "velocity": 109,
      "chip": "ym2612"
    },
    {
      "channel": 2,
      "note": 76,
      "start": 10.0921,
      "duration": 0.0199,
      "velocity": 102,
      "chip": "ym2612"
    },
    {
      "channel": 3,
      "note": 71,
      "start": 10.093,
      "duration": 0.0199,
      "velocity": 102,
      "chip": "ym2612"
    },
    {
      "channel": 4,
      "note": 76,
      "start": 10.0938,
      "duration": 0.02,
      "velocity": 109,
      "chip": "ym2612"
    },
    {
      "channel": 1,
      "note": 88,
      "start": 10.1119,
      "duration": 0.0223,
      "velocity": 109,
      "chip": "ym2612"
    },
    {
      "channel": 2,
      "note": 76,
      "start": 10.1128,
      "duration": 0.0217,
      "velocity": 102,
      "chip": "ym2612"
    },
    {
      "channel": 3,
      "note": 71,
      "start": 10.1137,
      "duration": 0.0212,
      "velocity": 102,
      "chip": "ym2612"
    },
    {
      "channel": 4,
      "note": 76,
      "start": 10.1145,
      "duration": 0.0209,
      "velocity": 109,
      "chip": "ym2612"
    },
    {
      "channel": 0,
      "note": 64,
      "start": 10.134,
      "duration": 0.0112,
      "velocity": 74,
      "chip": "ym2612"
    },
    {
      "channel": 0,
      "note": 62,
      "start": 10.1458,
      "duration": 0.0358,
      "velocity": 74,
      "chip": "ym2612"
    },
    {
      "channel": 1,
      "note": 86,
      "start": 10.1466,
      "duration": 0.0202,
      "velocity": 109,
      "chip": "ym2612"
    },
    {
      "channel": 2,
      "note": 76,
      "start": 10.1475,
      "duration": 0.0196,
      "velocity": 102,
      "chip": "ym2612"
    },
    {
      "channel": 3,
      "note": 71,
      "start": 10.1484,
      "duration": 0.0195,
      "velocity": 102,
      "chip": "ym2612"
    },
    {
      "channel": 4,
      "note": 74,
      "start": 10.1493,
      "duration": 0.0197,
      "velocity": 109,
      "chip": "ym2612"
    },
    {
      "channel": 2,
      "note": 76,
      "start": 10.1678,
      "duration": 0.0153,
      "velocity": 102,
      "chip": "ym2612"
    },
    {
      "channel": 3,
      "note": 73,
      "start": 10.1687,
      "duration": 0.0149,
      "velocity": 102,
      "chip": "ym2612"
    },
    {
      "channel": 0,
      "note": 57,
      "start": 10.1822,
      "duration": 0.0399,
      "velocity": 74,
      "chip": "ym2612"
    },
    {
      "channel": 1,
      "note": 88,
      "start": 10.183,
      "duration": 0.0398,
      "velocity": 109,
      "chip": "ym2612"
    },
    {
      "channel": 4,
      "note": 76,
      "start": 10.1848,
      "duration": 0.0398,
      "velocity": 109,
      "chip": "ym2612"
    },
    {
      "channel": 2,
      "note": 76,
      "start": 10.2001,
      "duration": 0.0236,
      "velocity": 102,
      "chip": "ym2612"
    },
    {
      "channel": 3,
      "note": 73,
      "start": 10.201,
      "duration": 0.0232,
      "velocity": 102,
      "chip": "ym2612"
    },
    {
      "channel": 0,
      "note": 57,
      "start": 10.2227,
      "duration": 0.0448,
      "velocity": 74,
      "chip": "ym2612"
    },
    {
      "channel": 1,
      "note": 91,
      "start": 10.2235,
      "duration": 0.0447,
      "velocity": 109,
      "chip": "ym2612"
    },
    {
      "channel": 4,
      "note": 79,
      "start": 10.2253,
      "duration": 0.0456,
      "velocity": 109,
      "chip": "ym2612"
    },
    {
      "channel": 2,
      "note": 76,
      "start": 10.2407,
      "duration": 0.0284,
      "velocity": 102,
      "chip": "ym2612"
    },
    {
      "channel": 3,
      "note": 73,
      "start": 10.2415,
      "duration": 0.0285,
      "velocity": 102,
      "chip": "ym2612"
    },
    {
      "channel": 0,
      "note": 59,
      "start": 10.2681,
      "duration": 0.0364,
      "velocity": 74,
      "chip": "ym2612"
    },
    {
      "channel": 1,
      "note": 93,
      "start": 10.2689,
      "duration": 0.0364,
      "velocity": 109,
      "chip": "ym2612"
    },
    {
      "channel": 2,
      "note": 75,
      "start": 10.2699,
      "duration": 0.0197,
      "velocity": 102,
      "chip": "ym2612"
    },
    {
      "channel": 3,
      "note": 71,
      "start": 10.2708,
      "duration": 0.0193,
      "velocity": 102,
      "chip": "ym2612"
    },
    {
      "channel": 4,
      "note": 81,
      "start": 10.2716,
      "duration": 0.0364,
      "velocity": 109,
      "chip": "ym2612"
    },
    {
      "channel": 0,
      "note": 59,
      "start": 10.3051,
      "duration": 0.0876,
      "velocity": 74,
      "chip": "ym2612"
    },
    {
      "channel": 1,
      "note": 95,
      "start": 10.306,
      "duration": 0.0875,
      "velocity": 109,
      "chip": "ym2612"
    },
    {
      "channel": 2,
      "note": 75,
      "start": 10.3069,
      "duration": 0.0164,
      "velocity": 102,
      "chip": "ym2612"
    },
    {
      "channel": 3,
      "note": 71,
      "start": 10.3078,
      "duration": 0.016,
      "velocity": 102,
      "chip": "ym2612"
    },
    {
      "channel": 4,
      "note": 83,
      "start": 10.3086,
      "duration": 0.0879,
      "velocity": 109,
      "chip": "ym2612"
    },
    {
      "channel": 0,
      "note": 64,
      "start": 10.3934,
      "duration": 0.0459,
      "velocity": 74,
      "chip": "ym2612"
    },
    {
      "channel": 1,
      "note": 88,
      "start": 10.3942,
      "duration": 0.0201,
      "velocity": 109,
      "chip": "ym2612"
    },
    {
      "channel": 2,
      "note": 76,
      "start": 10.3953,
      "duration": 0.02,
      "velocity": 102,
      "chip": "ym2612"
    },
    {
      "channel": 3,
      "note": 71,
      "start": 10.3964,
      "duration": 0.0197,
      "velocity": 102,
      "chip": "ym2612"
    },
    {
      "channel": 4,
      "note": 76,
      "start": 10.3972,
      "duration": 0.0198,
      "velocity": 109,
      "chip": "ym2612"
    },
    {
      "channel": 1,
      "note": 88,
      "start": 10.415,
      "duration": 0.025,
      "velocity": 109,
      "chip": "ym2612"
    },
    {
      "channel": 2,
      "note": 76,
      "start": 10.416,
      "duration": 0.0244,
      "velocity": 102,
      "chip": "ym2612"
    },
    {
      "channel": 3,
      "note": 71,
      "start": 10.4169,
      "duration": 0.0244,
      "velocity": 102,
      "chip": "ym2612"
    },
    {
      "channel": 4,
      "note": 76,
      "start": 10.4177,
      "duration": 0.0245,
      "velocity": 109,
      "chip": "ym2612"
    },
    {
      "channel": 0,
      "note": 62,
      "start": 10.4399,
      "duration": 0.1163,
      "velocity": 74,
      "chip": "ym2612"
    },
    {
      "channel": 2,
      "note": 76,
      "start": 10.4411,
      "duration": 0.1166,
      "velocity": 102,
      "chip": "ym2612"
    },
    {
      "channel": 3,
      "note": 71,
      "start": 10.4421,
      "duration": 0.1166,
      "velocity": 102,
      "chip": "ym2612"
    },
    {
      "channel": 0,
      "note": 64,
      "start": 10.5568,
      "duration": 0.0429,
      "velocity": 74,
      "chip": "ym2612"
    },
    {
      "channel": 1,
      "note": 88,
      "start": 10.5576,
      "duration": 0.02,
      "velocity": 109,
      "chip": "ym2612"
    },
    {
      "channel": 2,
      "note": 76,
      "start": 10.5585,
      "duration": 0.0199,
      "velocity": 102,
      "chip": "ym2612"
    },
    {
      "channel": 3,
      "note": 71,
      "start": 10.5595,
      "duration": 0.0199,
      "velocity": 102,
      "chip": "ym2612"
    },
    {
      "channel": 4,
      "note": 76,
      "start": 10.5603,
      "duration": 0.02,
      "velocity": 109,
      "chip": "ym2612"
    },
    {
      "channel": 1,
      "note": 88,
      "start": 10.5783,
      "duration": 0.0222,
      "velocity": 109,
      "chip": "ym2612"
    },
    {
      "channel": 2,
      "note": 76,
      "start": 10.5792,
      "duration": 0.0216,
      "velocity": 102,
      "chip": "ym2612"
    },
    {
      "channel": 3,
      "note": 71,
      "start": 10.5802,
      "duration": 0.0211,
      "velocity": 102,
      "chip": "ym2612"
    },
    {
      "channel": 4,
      "note": 76,
      "start": 10.581,
      "duration": 0.0208,
      "velocity": 109,
      "chip": "ym2612"
    },
    {
      "channel": 0,
      "note": 64,
      "start": 10.6003,
      "duration": 0.0098,
      "velocity": 74,
      "chip": "ym2612"
    },
    {
      "channel": 0,
      "note": 62,
      "start": 10.6107,
      "duration": 0.0442,
      "velocity": 74,
      "chip": "ym2612"
    },
    {
      "channel": 1,
      "note": 86,
      "start": 10.6116,
      "duration": 0.0201,
      "velocity": 109,
      "chip": "ym2612"
    },
    {
      "channel": 2,
      "note": 76,
      "start": 10.6125,
      "duration": 0.02,
      "velocity": 102,
      "chip": "ym2612"
    },
    {
      "channel": 3,
      "note": 71,
      "start": 10.6134,
      "duration": 0.02,
      "velocity": 102,
      "chip": "ym2612"
    },
    {
      "channel": 4,
      "note": 74,
      "start": 10.6142,
      "duration": 0.0201,
      "velocity": 109,
      "chip": "ym2612"
    },
    {
      "channel": 1,
      "note": 88,
      "start": 10.6323,
      "duration": 0.0234,
      "velocity": 109,
      "chip": "ym2612"
    },
    {
      "channel": 2,
      "note": 76,
      "start": 10.6332,
      "duration": 0.0228,
      "velocity": 102,
      "chip": "ym2612"
    },
    {
      "channel": 3,
      "note": 73,
      "start": 10.6342,
      "duration": 0.0223,
      "velocity": 102,
      "chip": "ym2612"
    },
    {
      "channel": 4,
      "note": 76,
      "start": 10.635,
      "duration": 0.022,
      "velocity": 109,
      "chip": "ym2612"
    },
    {
      "channel": 0,
      "note": 57,
      "start": 10.6556,
      "duration": 0.0351,
      "velocity": 74,
      "chip": "ym2612"
    },
    {
      "channel": 1,
      "note": 88,
      "start": 10.6682,
      "duration": 0.0233,
      "velocity": 109,
      "chip": "ym2612"
    },
    {
      "channel": 2,
      "note": 76,
      "start": 10.6691,
      "duration": 0.0232,
      "velocity": 102,
      "chip": "ym2612"
    },
    {
      "channel": 3,
      "note": 73,
      "start": 10.67,
      "duration": 0.0227,
      "velocity": 102,
      "chip": "ym2612"
    },
    {
      "channel": 4,
      "note": 76,
      "start": 10.6708,
      "duration": 0.0224,
      "velocity": 109,
      "chip": "ym2612"
    },
    {
      "channel": 0,
      "note": 57,
      "start": 10.6913,
      "duration": 0.0448,
      "velocity": 74,
      "chip": "ym2612"
    },
    {
      "channel": 1,
      "note": 86,
      "start": 10.6921,
      "duration": 0.0157,
      "velocity": 109,
      "chip": "ym2612"
    },
    {
      "channel": 4,
      "note": 74,
      "start": 10.6939,
      "duration": 0.0162,
      "velocity": 109,
      "chip": "ym2612"
    },
    {
      "channel": 2,
      "note": 76,
      "start": 10.709,
      "duration": 0.0287,
      "velocity": 102,
      "chip": "ym2612"
    },
    {
      "channel": 3,
      "note": 73,
      "start": 10.71,
      "duration": 0.0287,
      "velocity": 102,
      "chip": "ym2612"
    },
    {
      "channel": 0,
      "note": 59,
      "start": 10.7368,
      "duration": 0.0341,
      "velocity": 74,
      "chip": "ym2612"
    },
    {
      "channel": 1,
      "note": 88,
      "start": 10.7376,
      "duration": 0.0169,
      "velocity": 109,
      "chip": "ym2612"
    },
    {
      "channel": 2,
      "note": 78,
      "start": 10.7385,
      "duration": 0.0169,
      "velocity": 102,
      "chip": "ym2612"
    },
    {
      "channel": 3,
      "note": 75,
      "start": 10.7394,
      "duration": 0.0164,
      "velocity": 102,
      "chip": "ym2612"
    },
    {
      "channel": 4,
      "note": 76,
      "start": 10.7402,
      "duration": 0.0161,
      "velocity": 109,
      "chip": "ym2612"
    },
    {
      "channel": 1,
      "note": 91,
      "start": 10.7552,
      "duration": 0.0164,
      "velocity": 109,
      "chip": "ym2612"
    },
    {
      "channel": 4,
      "note": 79,
      "start": 10.7571,
      "duration": 0.0173,
      "velocity": 109,
      "chip": "ym2612"
    },
    {
      "channel": 0,
      "note": 59,
      "start": 10.7715,
      "duration": 0.0898,
      "velocity": 74,
      "chip": "ym2612"
    },
    {
      "channel": 1,
      "note": 88,
      "start": 10.7723,
      "duration": 0.0198,
      "velocity": 109,
      "chip": "ym2612"
    },
    {
      "channel": 2,
      "note": 78,
      "start": 10.7732,
      "duration": 0.0198,
      "velocity": 102,
      "chip": "ym2612"
    },
    {
      "channel": 3,
      "note": 75,
      "start": 10.7741,
      "duration": 0.0193,
      "velocity": 102,
      "chip": "ym2612"
    },
    {
      "channel": 4,
      "note": 76,
      "start": 10.775,
      "duration": 0.019,
      "velocity": 109,
      "chip": "ym2612"
    },
    {
      "channel": 1,
      "note": 86,
      "start": 10.7928,
      "duration": 0.0692,
      "velocity": 109,
      "chip": "ym2612"
    },
    {
      "channel": 4,
      "note": 74,
      "start": 10.7947,
      "duration": 0.0701,
      "velocity": 109,
      "chip": "ym2612"
    },
    {
      "channel": 0,
      "note": 64,
      "start": 10.8619,
      "duration": 0.0461,
      "velocity": 74,
      "chip": "ym2612"
    },
    {
      "channel": 1,
      "note": 88,
      "start": 10.8627,
      "duration": 0.0197,
      "velocity": 109,
      "chip": "ym2612"
    },
    {
      "channel": 2,
      "note": 76,
      "start": 10.8637,
      "duration": 0.0197,
      "velocity": 102,
      "chip": "ym2612"
    },
    {
      "channel": 3,
      "note": 71,
      "start": 10.8646,
      "duration": 0.0196,
      "velocity": 102,
      "chip": "ym2612"
    },
    {
      "channel": 4,
      "note": 76,
      "start": 10.8654,
      "duration": 0.0198,
      "velocity": 109,
      "chip": "ym2612"
    },
    {
      "channel": 1,
      "note": 88,
      "start": 10.8831,
      "duration": 0.0256,
      "velocity": 109,
      "chip": "ym2612"
    },
    {
      "channel": 2,
      "note": 76,
      "start": 10.8841,
      "duration": 0.025,
      "velocity": 102,
      "chip": "ym2612"
    },
    {
      "channel": 3,
      "note": 71,
      "start": 10.885,
      "duration": 0.0249,
      "velocity": 102,
      "chip": "ym2612"
    },
    {
      "channel": 4,
      "note": 76,
      "start": 10.8859,
      "duration": 0.0251,
      "velocity": 109,
      "chip": "ym2612"
    },
    {
      "channel": 0,
      "note": 62,
      "start": 10.9086,
      "duration": 0.1163,
      "velocity": 74,
      "chip": "ym2612"
    },
    {
      "channel": 2,
      "note": 76,
      "start": 10.9099,
      "duration": 0.1166,
      "velocity": 102,
      "chip": "ym2612"
    },
    {
      "channel": 3,
      "note": 71,
      "start": 10.9107,
      "duration": 0.1167,
      "velocity": 102,
      "chip": "ym2612"
    },
    {
      "channel": 0,
      "note": 64,
      "start": 11.0255,
      "duration": 0.0403,
      "velocity": 74,
      "chip": "ym2612"
    },
    {
      "channel": 1,
      "note": 88,
      "start": 11.0263,
      "duration": 0.0173,
      "velocity": 109,
      "chip": "ym2612"
    },
    {
      "channel": 2,
      "note": 76,
      "start": 11.0272,
      "duration": 0.0172,
      "velocity": 102,
      "chip": "ym2612"
    },
    {
      "channel": 3,
      "note": 71,
      "start": 11.0282,
      "duration": 0.0172,
      "velocity": 102,
      "chip": "ym2612"
    },
    {
      "channel": 4,
      "note": 76,
      "start": 11.029,
      "duration": 0.0173,
      "velocity": 109,
      "chip": "ym2612"
    },
    {
      "channel": 1,
      "note": 88,
      "start": 11.0443,
      "duration": 0.0223,
      "velocity": 109,
      "chip": "ym2612"
    },
    {
      "channel": 2,
      "note": 76,
      "start": 11.0452,
      "duration": 0.0217,
      "velocity": 102,
      "chip": "ym2612"
    },
    {
      "channel": 3,
      "note": 71,
      "start": 11.0462,
      "duration": 0.0212,
      "velocity": 102,
      "chip": "ym2612"
    },
    {
      "channel": 4,
      "note": 76,
      "start": 11.047,
      "duration": 0.0209,
      "velocity": 109,
      "chip": "ym2612"
    },
    {
      "channel": 0,
      "note": 64,
      "start": 11.0664,
      "duration": 0.0113,
      "velocity": 74,
      "chip": "ym2612"
    },
    {
      "channel": 0,
      "note": 62,
      "start": 11.0784,
      "duration": 0.0383,
      "velocity": 74,
      "chip": "ym2612"
    },
    {
      "channel": 1,
      "note": 86,
      "start": 11.0792,
      "duration": 0.02,
      "velocity": 109,
      "chip": "ym2612"
    },
    {
      "channel": 2,
      "note": 76,
      "start": 11.0801,
      "duration": 0.0195,
      "velocity": 102,
      "chip": "ym2612"
    },
    {
      "channel": 3,
      "note": 71,
      "start": 11.081,
      "duration": 0.0195,
      "velocity": 102,
      "chip": "ym2612"
    },
    {
      "channel": 4,
      "note": 74,
      "start": 11.0819,
      "duration": 0.0196,
      "velocity": 109,
      "chip": "ym2612"
    },
    {
      "channel": 2,
      "note": 76,
      "start": 11.1003,
      "duration": 0.018,
      "velocity": 102,
      "chip": "ym2612"
    },
    {
      "channel": 3,
      "note": 73,
      "start": 11.1012,
      "duration": 0.0176,
      "velocity": 102,
      "chip": "ym2612"
    },
    {
      "channel": 0,
      "note": 57,
      "start": 11.1173,
      "duration": 0.04,
      "velocity": 74,
      "chip": "ym2612"
    },
    {
      "channel": 1,
      "note": 88,
      "start": 11.1182,
      "duration": 0.0399,
      "velocity": 109,
      "chip": "ym2612"
    },
    {
      "channel": 4,
      "note": 76,
      "start": 11.12,
      "duration": 0.04,
      "velocity": 109,
      "chip": "ym2612"
    },
    {
      "channel": 2,
      "note": 76,
      "start": 11.1352,
      "duration": 0.0237,
      "velocity": 102,
      "chip": "ym2612"
    },
    {
      "channel": 3,
      "note": 73,
      "start": 11.1361,
      "duration": 0.0233,
      "velocity": 102,
      "chip": "ym2612"
    },
    {
      "channel": 0,
      "note": 57,
      "start": 11.158,
      "duration": 0.0341,
      "velocity": 74,
      "chip": "ym2612"
    },
    {
      "channel": 1,
      "note": 86,
      "start": 11.1588,
      "duration": 0.0341,
      "velocity": 109,
      "chip": "ym2612"
    },
    {
      "channel": 4,
      "note": 74,
      "start": 11.1607,
      "duration": 0.0349,
      "velocity": 109,
      "chip": "ym2612"
    },
    {
      "channel": 2,
      "note": 76,
      "start": 11.1736,
      "duration": 0.0202,
      "velocity": 102,
      "chip": "ym2612"
    },
    {
      "channel": 3,
      "note": 73,
      "start": 11.1745,
      "duration": 0.0202,
      "velocity": 102,
      "chip": "ym2612"
    },
    {
      "channel": 0,
      "note": 59,
      "start": 11.1928,
      "duration": 0.0382,
      "velocity": 74,
      "chip": "ym2612"
    },
    {
      "channel": 1,
      "note": 83,
      "start": 11.1936,
      "duration": 0.0775,
      "velocity": 109,
      "chip": "ym2612"
    },
    {
      "channel": 2,
      "note": 75,
      "start": 11.1945,
      "duration": 0.0213,
      "velocity": 102,
      "chip": "ym2612"
    },
    {
      "channel": 3,
      "note": 71,
      "start": 11.1954,
      "duration": 0.0209,
      "velocity": 102,
      "chip": "ym2612"
    },
    {
      "channel": 4,
      "note": 71,
      "start": 11.1963,
      "duration": 0.0778,
      "velocity": 109,
      "chip": "ym2612"
    },
    {
      "channel": 0,
      "note": 59,
      "start": 11.2316,
      "duration": 0.0385,
      "velocity": 74,
      "chip": "ym2612"
    },
    {
      "channel": 2,
      "note": 75,
      "start": 11.2329,
      "duration": 0.0197,
      "velocity": 102,
      "chip": "ym2612"
    },
    {
      "channel": 3,
      "note": 71,
      "start": 11.2339,
      "duration": 0.0193,
      "velocity": 102,
      "chip": "ym2612"
    },
    {
      "channel": 0,
      "note": 59,
      "start": 11.2708,
      "duration": 0.0413,
      "velocity": 74,
      "chip": "ym2612"
    },
    {
      "channel": 1,
      "note": 95,
      "start": 11.2717,
      "duration": 0.0407,
      "velocity": 109,
      "chip": "ym2612"
    },
    {
      "channel": 2,
      "note": 75,
      "start": 11.2728,
      "duration": 0.04,
      "velocity": 102,
      "chip": "ym2612"
    },
    {
      "channel": 3,
      "note": 71,
      "start": 11.2738,
      "duration": 0.0395,
      "velocity": 102,
      "chip": "ym2612"
    },
    {
      "channel": 4,
      "note": 83,
      "start": 11.2747,
      "duration": 0.039,
      "velocity": 109,
      "chip": "ym2612"
    },
    {
      "channel": 0,
      "note": 57,
      "start": 11.453,
      "duration": 0.1613,
      "velocity": 74,
      "chip": "ym2612"
    },
    {
      "channel": 1,
      "note": 81,
      "start": 11.4539,
      "duration": 0.0439,
      "velocity": 109,
      "chip": "ym2612"
    },
    {
      "channel": 4,
      "note": 69,
      "start": 11.4559,
      "duration": 0.0424,
      "velocity": 109,
      "chip": "ym2612"
    },
    {
      "channel": 0,
      "note": 57,
      "start": 11.615,
      "duration": 0.0409,
      "velocity": 74,
      "chip": "ym2612"
    },
    {
      "channel": 1,
      "note": 81,
      "start": 11.6158,
      "duration": 0.0298,
      "velocity": 109,
      "chip": "ym2612"
    },
    {
      "channel": 4,
      "note": 69,
      "start": 11.6168,
      "duration": 0.0293,
      "velocity": 109,
      "chip": "ym2612"
    },
    {
      "channel": 0,
      "note": 57,
      "start": 11.6565,
      "duration": 0.0283,
      "velocity": 74,
      "chip": "ym2612"
    },
    {
      "channel": 1,
      "note": 81,
      "start": 11.6573,
      "duration": 0.0282,
      "velocity": 109,
      "chip": "ym2612"
    },
    {
      "channel": 4,
      "note": 69,
      "start": 11.6583,
      "duration": 0.0282,
      "velocity": 109,
      "chip": "ym2612"
    },
    {
      "channel": 0,
      "note": 59,
      "start": 11.6854,
      "duration": 0.0314,
      "velocity": 74,
      "chip": "ym2612"
    },
    {
      "channel": 1,
      "note": 83,
      "start": 11.6862,
      "duration": 0.0314,
      "velocity": 109,
      "chip": "ym2612"
    },
    {
      "channel": 4,
      "note": 71,
      "start": 11.6871,
      "duration": 0.0314,
      "velocity": 109,
      "chip": "ym2612"
    },
    {
      "channel": 0,
      "note": 57,
      "start": 11.7174,
      "duration": 0.0316,
      "velocity": 74,
      "chip": "ym2612"
    },
    {
      "channel": 1,
      "note": 81,
      "start": 11.7183,
      "duration": 0.0315,
      "velocity": 109,
      "chip": "ym2612"
    },
    {
      "channel": 4,
      "note": 69,
      "start": 11.7192,
      "duration": 0.0316,
      "velocity": 109,
      "chip": "ym2612"
    },
    {
      "channel": 0,
      "note": 59,
      "start": 11.7496,
      "duration": 0.0286,
      "velocity": 74,
      "chip": "ym2612"
    },
    {
      "channel": 1,
      "note": 83,
      "start": 11.7505,
      "duration": 0.0286,
      "velocity": 109,
      "chip": "ym2612"
    },
    {
      "channel": 4,
      "note": 71,
      "start": 11.7514,
      "duration": 0.0286,
      "velocity": 109,
      "chip": "ym2612"
    },
    {
      "channel": 0,
      "note": 62,
      "start": 11.7789,
      "duration": 0.0353,
      "velocity": 74,
      "chip": "ym2612"
    },
    {
      "channel": 1,
      "note": 86,
      "start": 11.7797,
      "duration": 0.0353,
      "velocity": 109,
      "chip": "ym2612"
    },
    {
      "channel": 4,
      "note": 74,
      "start": 11.7807,
      "duration": 0.0374,
      "velocity": 109,
      "chip": "ym2612"
    },
    {
      "channel": 0,
      "note": 64,
      "start": 11.8147,
      "duration": 15.6185,
      "velocity": 74,
      "chip": "ym2612"
    },
    {
      "channel": 1,
      "note": 88,
      "start": 11.8157,
      "duration": 15.6176,
      "velocity": 109,
      "chip": "ym2612"
    },
    {
      "channel": 2,
      "note": 76,
      "start": 11.8167,
      "duration": 15.6166,
      "velocity": 102,
      "chip": "ym2612"
    },
    {
      "channel": 3,
      "note": 71,
      "start": 11.8178,
      "duration": 15.6155,
      "velocity": 102,
      "chip": "ym2612"
    }
  ]
}