{
  "track_name": "12 - Welcome to the Machine",
  "duration_sec": 54.359,
  "sample_rate": 44100,
  "note_count": 426,
  "unique_pitches": 25,
  "pitch_range": 45,
  "avg_note_duration": 0.4757,
  "reconstruction_stats": {
    "notes_reconstructed": 426,
    "keyon_events": 426,
    "keyoff_events": 423,
    "orphan_keyons": 3,
    "unique_pitches": 25,
    "pitch_range": 45,
    "avg_duration_sec": 0.4757
  },
  "metadata": {
    "source": "E\\Ecco the Dolphin\\12 - Welcome to the Machine.vgz"
  },
  "notes": [
    {
      "channel": 0,
      "note": 69,
      "start": 0.0,
      "duration": 0.6786,
      "velocity": 111,
      "chip": "ym2612"
    },
    {
      "channel": 1,
      "note": 72,
      "start": 0.0044,
      "duration": 0.6745,
      "velocity": 111,
      "chip": "ym2612"
    },
    {
      "channel": 2,
      "note": 74,
      "start": 0.0103,
      "duration": 0.6689,
      "velocity": 111,
      "chip": "ym2612"
    },
    {
      "channel": 3,
      "note": 76,
      "start": 0.0162,
      "duration": 0.6634,
      "velocity": 111,
      "chip": "ym2612"
    },
    {
      "channel": 0,
      "note": 69,
      "start": 0.7222,
      "duration": 1.3287,
      "velocity": 111,
      "chip": "ym2612"
    },
    {
      "channel": 1,
      "note": 72,
      "start": 0.7225,
      "duration": 1.3287,
      "velocity": 111,
      "chip": "ym2612"
    },
    {
      "channel": 2,
      "note": 74,
      "start": 0.7228,
      "duration": 1.3287,
      "velocity": 111,
      "chip": "ym2612"
    },
    {
      "channel": 3,
      "note": 76,
      "start": 0.7231,
      "duration": 1.3287,
      "velocity": 111,
      "chip": "ym2612"
    },
    {
      "channel": 0,
      "note": 91,
      "start": 2.0583,
      "duration": 0.2648,
      "velocity": 115,
      "chip": "ym2612"
    },
    {
      "channel": 3,
      "note": 72,
      "start": 2.0819,
      "duration": 2.0712,
      "velocity": 107,
      "chip": "ym2612"
    },
    {
      "channel": 4,
      "note": 69,
      "start": 2.095,
      "duration": 2.0584,
      "velocity": 107,
      "chip": "ym2612"
    },
    {
      "channel": 0,
      "note": 88,
      "start": 2.3453,
      "duration": 0.2393,
      "velocity": 115,
      "chip": "ym2612"
    },
    {
      "channel": 2,
      "note": 60,
      "start": 2.346,
      "duration": 0.1079,
      "velocity": 119,
      "chip": "ym2612"
    },
    {
      "channel": 0,
      "note": 93,
      "start": 2.6066,
      "duration": 0.2393,
      "velocity": 115,
      "chip": "ym2612"
    },
    {
      "channel": 2,
      "note": 60,
      "start": 2.607,
      "duration": 0.1083,
      "velocity": 119,
      "chip": "ym2612"
    },
    {
      "channel": 0,
      "note": 88,
      "start": 2.868,
      "duration": 0.2393,
      "velocity": 115,
      "chip": "ym2612"
    },
    {
      "channel": 1,
      "note": 87,
      "start": 2.9116,
      "duration": 0.1085,
      "velocity": 99,
      "chip": "ym2612"
    },
    {
      "channel": 0,
      "note": 95,
      "start": 3.1293,
      "duration": 0.2393,
      "velocity": 115,
      "chip": "ym2612"
    },
    {
      "channel": 0,
      "note": 88,
      "start": 3.3908,
      "duration": 0.2393,
      "velocity": 115,
      "chip": "ym2612"
    },
    {
      "channel": 2,
      "note": 64,
      "start": 3.3914,
      "duration": 0.1079,
      "velocity": 119,
      "chip": "ym2612"
    },
    {
      "channel": 1,
      "note": 87,
      "start": 3.4122,
      "duration": 0.1088,
      "velocity": 99,
      "chip": "ym2612"
    },
    {
      "channel": 0,
      "note": 93,
      "start": 3.6521,
      "duration": 0.2393,
      "velocity": 115,
      "chip": "ym2612"
    },
    {
      "channel": 1,
      "note": 88,
      "start": 3.6739,
      "duration": 0.1086,
      "velocity": 99,
      "chip": "ym2612"
    },
    {
      "channel": 0,
      "note": 95,
      "start": 3.9135,
      "duration": 0.2393,
      "velocity": 115,
      "chip": "ym2612"
    },
    {
      "channel": 2,
      "note": 64,
      "start": 3.9138,
      "duration": 0.1083,
      "velocity": 119,
      "chip": "ym2612"
    },
    {
      "channel": 0,
      "note": 98,
      "start": 4.1749,
      "duration": 0.2393,
      "velocity": 115,
      "chip": "ym2612"
    },
    {
      "channel": 3,
      "note": 76,
      "start": 4.1755,
      "duration": 2.0686,
      "velocity": 107,
      "chip": "ym2612"
    },
    {
      "channel": 4,
      "note": 72,
      "start": 4.1762,
      "duration": 2.0682,
      "velocity": 107,
      "chip": "ym2612"
    },
    {
      "channel": 0,
      "note": 88,
      "start": 4.4363,
      "duration": 0.2393,
      "velocity": 115,
      "chip": "ym2612"
    },
    {
      "channel": 2,
      "note": 57,
      "start": 4.437,
      "duration": 0.1079,
      "velocity": 119,
      "chip": "ym2612"
    },
    {
      "channel": 0,
      "note": 96,
      "start": 4.6977,
      "duration": 0.2393,
      "velocity": 115,
      "chip": "ym2612"
    },
    {
      "channel": 2,
      "note": 57,
      "start": 4.698,
      "duration": 0.1083,
      "velocity": 119,
      "chip": "ym2612"
    },
    {
      "channel": 0,
      "note": 88,
      "start": 4.9591,
      "duration": 0.2392,
      "velocity": 115,
      "chip": "ym2612"
    },
    {
      "channel": 1,
      "note": 84,
      "start": 4.9808,
      "duration": 0.1086,
      "velocity": 99,
      "chip": "ym2612"
    },
    {
      "channel": 0,
      "note": 95,
      "start": 5.2205,
      "duration": 0.2393,
      "velocity": 115,
      "chip": "ym2612"
    },
    {
      "channel": 1,
      "note": 84,
      "start": 5.46,
      "duration": 0.1086,
      "velocity": 99,
      "chip": "ym2612"
    },
    {
      "channel": 0,
      "note": 88,
      "start": 5.4818,
      "duration": 0.2393,
      "velocity": 115,
      "chip": "ym2612"
    },
    {
      "channel": 0,
      "note": 91,
      "start": 5.7432,
      "duration": 0.2393,
      "velocity": 115,
      "chip": "ym2612"
    },
    {
      "channel": 1,
      "note": 83,
      "start": 5.7439,
      "duration": 0.1079,
      "velocity": 99,
      "chip": "ym2612"
    },
    {
      "channel": 0,
      "note": 93,
      "start": 6.0045,
      "duration": 0.2393,
      "velocity": 115,
      "chip": "ym2612"
    },
    {
      "channel": 0,
      "note": 91,
      "start": 6.2659,
      "duration": 0.2392,
      "velocity": 115,
      "chip": "ym2612"
    },
    {
      "channel": 3,
      "note": 72,
      "start": 6.2666,
      "duration": 2.0686,
      "velocity": 107,
      "chip": "ym2612"
    },
    {
      "channel": 4,
      "note": 69,
      "start": 6.2673,
      "duration": 2.0683,
      "velocity": 107,
      "chip": "ym2612"
    },
    {
      "channel": 0,
      "note": 88,
      "start": 6.5273,
      "duration": 0.2393,
      "velocity": 115,
      "chip": "ym2612"
    },
    {
      "channel": 2,
      "note": 60,
      "start": 6.528,
      "duration": 0.1079,
      "velocity": 119,
      "chip": "ym2612"
    },
    {
      "channel": 0,
      "note": 93,
      "start": 6.7887,
      "duration": 0.2393,
      "velocity": 115,
      "chip": "ym2612"
    },
    {
      "channel": 2,
      "note": 60,
      "start": 6.789,
      "duration": 0.1083,
      "velocity": 119,
      "chip": "ym2612"
    },
    {
      "channel": 0,
      "note": 88,
      "start": 7.0501,
      "duration": 0.2393,
      "velocity": 115,
      "chip": "ym2612"
    },
    {
      "channel": 1,
      "note": 89,
      "start": 7.0718,
      "duration": 0.1086,
      "velocity": 99,
      "chip": "ym2612"
    },
    {
      "channel": 0,
      "note": 95,
      "start": 7.3115,
      "duration": 0.2393,
      "velocity": 115,
      "chip": "ym2612"
    },
    {
      "channel": 0,
      "note": 88,
      "start": 7.5729,
      "duration": 0.2392,
      "velocity": 115,
      "chip": "ym2612"
    },
    {
      "channel": 1,
      "note": 89,
      "start": 7.5732,
      "duration": 0.1082,
      "velocity": 99,
      "chip": "ym2612"
    },
    {
      "channel": 2,
      "note": 64,
      "start": 7.5738,
      "duration": 0.1079,
      "velocity": 119,
      "chip": "ym2612"
    },
    {
      "channel": 0,
      "note": 91,
      "start": 7.8342,
      "duration": 0.2393,
      "velocity": 115,
      "chip": "ym2612"
    },
    {
      "channel": 1,
      "note": 88,
      "start": 7.8349,
      "duration": 0.1079,
      "velocity": 99,
      "chip": "ym2612"
    },
    {
      "channel": 0,
      "note": 95,
      "start": 8.0956,
      "duration": 0.2393,
      "velocity": 115,
      "chip": "ym2612"
    },
    {
      "channel": 2,
      "note": 64,
      "start": 8.096,
      "duration": 0.1084,
      "velocity": 119,
      "chip": "ym2612"
    },
    {
      "channel": 0,
      "note": 93,
      "start": 8.357,
      "duration": 0.2393,
      "velocity": 115,
      "chip": "ym2612"
    },
    {
      "channel": 3,
      "note": 69,
      "start": 8.3577,
      "duration": 2.0686,
      "velocity": 107,
      "chip": "ym2612"
    },
    {
      "channel": 4,
      "note": 65,
      "start": 8.3583,
      "duration": 2.0683,
      "velocity": 107,
      "chip": "ym2612"
    },
    {
      "channel": 0,
      "note": 89,
      "start": 8.6183,
      "duration": 0.2393,
      "velocity": 115,
      "chip": "ym2612"
    },
    {
      "channel": 0,
      "note": 96,
      "start": 8.8797,
      "duration": 0.2393,
      "velocity": 115,
      "chip": "ym2612"
    },
    {
      "channel": 1,
      "note": 77,
      "start": 9.1196,
      "duration": 0.1083,
      "velocity": 99,
      "chip": "ym2612"
    },
    {
      "channel": 0,
      "note": 89,
      "start": 9.1411,
      "duration": 0.2393,
      "velocity": 115,
      "chip": "ym2612"
    },
    {
      "channel": 2,
      "note": 53,
      "start": 9.1417,
      "duration": 0.108,
      "velocity": 119,
      "chip": "ym2612"
    },
    {
      "channel": 0,
      "note": 98,
      "start": 9.4025,
      "duration": 0.2392,
      "velocity": 115,
      "chip": "ym2612"
    },
    {
      "channel": 0,
      "note": 89,
      "start": 9.6638,
      "duration": 0.2393,
      "velocity": 115,
      "chip": "ym2612"
    },
    {
      "channel": 1,
      "note": 77,
      "start": 9.6641,
      "duration": 0.1083,
      "velocity": 99,
      "chip": "ym2612"
    },
    {
      "channel": 0,
      "note": 93,
      "start": 9.9252,
      "duration": 0.2393,
      "velocity": 115,
      "chip": "ym2612"
    },
    {
      "channel": 1,
      "note": 84,
      "start": 9.947,
      "duration": 0.1086,
      "velocity": 99,
      "chip": "ym2612"
    },
    {
      "channel": 0,
      "note": 96,
      "start": 10.1867,
      "duration": 0.2393,
      "velocity": 115,
      "chip": "ym2612"
    },
    {
      "channel": 1,
      "note": 84,
      "start": 10.187,
      "duration": 0.1082,
      "velocity": 99,
      "chip": "ym2612"
    },
    {
      "channel": 0,
      "note": 91,
      "start": 10.448,
      "duration": 0.2394,
      "velocity": 115,
      "chip": "ym2612"
    },
    {
      "channel": 2,
      "note": 57,
      "start": 10.4486,
      "duration": 0.108,
      "velocity": 119,
      "chip": "ym2612"
    },
    {
      "channel": 3,
      "note": 72,
      "start": 10.4493,
      "duration": 2.0679,
      "velocity": 107,
      "chip": "ym2612"
    },
    {
      "channel": 4,
      "note": 69,
      "start": 10.45,
      "duration": 2.0676,
      "velocity": 107,
      "chip": "ym2612"
    },
    {
      "channel": 0,
      "note": 88,
      "start": 10.7094,
      "duration": 0.2392,
      "velocity": 115,
      "chip": "ym2612"
    },
    {
      "channel": 2,
      "note": 60,
      "start": 10.7101,
      "duration": 0.1079,
      "velocity": 119,
      "chip": "ym2612"
    },
    {
      "channel": 0,
      "note": 93,
      "start": 10.9708,
      "duration": 0.2392,
      "velocity": 115,
      "chip": "ym2612"
    },
    {
      "channel": 2,
      "note": 60,
      "start": 10.9712,
      "duration": 0.1082,
      "velocity": 119,
      "chip": "ym2612"
    },
    {
      "channel": 0,
      "note": 88,
      "start": 11.2322,
      "duration": 0.2393,
      "velocity": 115,
      "chip": "ym2612"
    },
    {
      "channel": 1,
      "note": 87,
      "start": 11.254,
      "duration": 0.1085,
      "velocity": 99,
      "chip": "ym2612"
    },
    {
      "channel": 0,
      "note": 95,
      "start": 11.4935,
      "duration": 0.2393,
      "velocity": 115,
      "chip": "ym2612"
    },
    {
      "channel": 0,
      "note": 88,
      "start": 11.7549,
      "duration": 0.2393,
      "velocity": 115,
      "chip": "ym2612"
    },
    {
      "channel": 2,
      "note": 64,
      "start": 11.7556,
      "duration": 0.108,
      "velocity": 119,
      "chip": "ym2612"
    },
    {
      "channel": 1,
      "note": 87,
      "start": 11.7764,
      "duration": 0.1089,
      "velocity": 99,
      "chip": "ym2612"
    },
    {
      "channel": 0,
      "note": 93,
      "start": 12.0163,
      "duration": 0.2392,
      "velocity": 115,
      "chip": "ym2612"
    },
    {
      "channel": 1,
      "note": 88,
      "start": 12.0381,
      "duration": 0.1085,
      "velocity": 99,
      "chip": "ym2612"
    },
    {
      "channel": 0,
      "note": 95,
      "start": 12.2776,
      "duration": 0.2393,
      "velocity": 115,
      "chip": "ym2612"
    },
    {
      "channel": 2,
      "note": 64,
      "start": 12.278,
      "duration": 0.1082,
      "velocity": 119,
      "chip": "ym2612"
    },
    {
      "channel": 0,
      "note": 98,
      "start": 12.539,
      "duration": 0.2393,
      "velocity": 115,
      "chip": "ym2612"
    },
    {
      "channel": 3,
      "note": 76,
      "start": 12.5397,
      "duration": 2.0686,
      "velocity": 107,
      "chip": "ym2612"
    },
    {
      "channel": 4,
      "note": 72,
      "start": 12.5404,
      "duration": 2.0683,
      "velocity": 107,
      "chip": "ym2612"
    },
    {
      "channel": 0,
      "note": 88,
      "start": 12.8004,
      "duration": 0.2393,
      "velocity": 115,
      "chip": "ym2612"
    },
    {
      "channel": 2,
      "note": 57,
      "start": 12.8011,
      "duration": 0.1079,
      "velocity": 119,
      "chip": "ym2612"
    },
    {
      "channel": 0,
      "note": 96,
      "start": 13.0618,
      "duration": 0.2393,
      "velocity": 115,
      "chip": "ym2612"
    },
    {
      "channel": 2,
      "note": 57,
      "start": 13.0621,
      "duration": 0.1083,
      "velocity": 119,
      "chip": "ym2612"
    },
    {
      "channel": 0,
      "note": 88,
      "start": 13.3232,
      "duration": 0.2393,
      "velocity": 115,
      "chip": "ym2612"
    },
    {
      "channel": 1,
      "note": 84,
      "start": 13.3449,
      "duration": 0.1086,
      "velocity": 99,
      "chip": "ym2612"
    },
    {
      "channel": 0,
      "note": 95,
      "start": 13.5846,
      "duration": 0.2393,
      "velocity": 115,
      "chip": "ym2612"
    },
    {
      "channel": 1,
      "note": 84,
      "start": 13.8241,
      "duration": 0.1086,
      "velocity": 99,
      "chip": "ym2612"
    },
    {
      "channel": 0,
      "note": 88,
      "start": 13.846,
      "duration": 0.2393,
      "velocity": 115,
      "chip": "ym2612"
    },
    {
      "channel": 0,
      "note": 91,
      "start": 14.1073,
      "duration": 0.2393,
      "velocity": 115,
      "chip": "ym2612"
    },
    {
      "channel": 1,
      "note": 83,
      "start": 14.1291,
      "duration": 0.1086,
      "velocity": 99,
      "chip": "ym2612"
    },
    {
      "channel": 0,
      "note": 93,
      "start": 14.3687,
      "duration": 0.2393,
      "velocity": 115,
      "chip": "ym2612"
    },
    {
      "channel": 0,
      "note": 91,
      "start": 14.63,
      "duration": 0.2393,
      "velocity": 115,
      "chip": "ym2612"
    },
    {
      "channel": 3,
      "note": 72,
      "start": 14.6307,
      "duration": 2.0685,
      "velocity": 107,
      "chip": "ym2612"
    },
    {
      "channel": 4,
      "note": 69,
      "start": 14.6314,
      "duration": 2.0683,
      "velocity": 107,
      "chip": "ym2612"
    },
    {
      "channel": 0,
      "note": 88,
      "start": 14.8914,
      "duration": 0.2393,
      "velocity": 115,
      "chip": "ym2612"
    },
    {
      "channel": 2,
      "note": 60,
      "start": 14.8921,
      "duration": 0.1079,
      "velocity": 119,
      "chip": "ym2612"
    },
    {
      "channel": 0,
      "note": 93,
      "start": 15.1528,
      "duration": 0.2393,
      "velocity": 115,
      "chip": "ym2612"
    },
    {
      "channel": 2,
      "note": 60,
      "start": 15.1532,
      "duration": 0.1083,
      "velocity": 119,
      "chip": "ym2612"
    },
    {
      "channel": 0,
      "note": 88,
      "start": 15.4142,
      "duration": 0.2393,
      "velocity": 115,
      "chip": "ym2612"
    },
    {
      "channel": 1,
      "note": 89,
      "start": 15.436,
      "duration": 0.1086,
      "velocity": 99,
      "chip": "ym2612"
    },
    {
      "channel": 0,
      "note": 95,
      "start": 15.6756,
      "duration": 0.2393,
      "velocity": 115,
      "chip": "ym2612"
    },
    {
      "channel": 0,
      "note": 88,
      "start": 15.937,
      "duration": 0.2393,
      "velocity": 115,
      "chip": "ym2612"
    },
    {
      "channel": 1,
      "note": 89,
      "start": 15.9374,
      "duration": 0.1082,
      "velocity": 99,
      "chip": "ym2612"
    },
    {
      "channel": 2,
      "note": 64,
      "start": 15.938,
      "duration": 0.1079,
      "velocity": 119,
      "chip": "ym2612"
    },
    {
      "channel": 0,
      "note": 91,
      "start": 16.1983,
      "duration": 0.2393,
      "velocity": 115,
      "chip": "ym2612"
    },
    {
      "channel": 1,
      "note": 88,
      "start": 16.199,
      "duration": 0.1079,
      "velocity": 99,
      "chip": "ym2612"
    },
    {
      "channel": 0,
      "note": 95,
      "start": 16.4597,
      "duration": 0.2392,
      "velocity": 115,
      "chip": "ym2612"
    },
    {
      "channel": 2,
      "note": 64,
      "start": 16.4601,
      "duration": 0.1082,
      "velocity": 119,
      "chip": "ym2612"
    },
    {
      "channel": 0,
      "note": 93,
      "start": 16.7212,
      "duration": 0.2392,
      "velocity": 115,
      "chip": "ym2612"
    },
    {
      "channel": 3,
      "note": 69,
      "start": 16.7218,
      "duration": 2.0685,
      "velocity": 107,
      "chip": "ym2612"
    },
    {
      "channel": 4,
      "note": 65,
      "start": 16.7225,
      "duration": 2.0682,
      "velocity": 107,
      "chip": "ym2612"
    },
    {
      "channel": 0,
      "note": 89,
      "start": 16.9825,
      "duration": 0.2393,
      "velocity": 115,
      "chip": "ym2612"
    },
    {
      "channel": 2,
      "note": 53,
      "start": 16.9832,
      "duration": 0.1079,
      "velocity": 119,
      "chip": "ym2612"
    },
    {
      "channel": 0,
      "note": 96,
      "start": 17.2439,
      "duration": 0.2393,
      "velocity": 115,
      "chip": "ym2612"
    },
    {
      "channel": 2,
      "note": 53,
      "start": 17.2442,
      "duration": 0.1083,
      "velocity": 119,
      "chip": "ym2612"
    },
    {
      "channel": 0,
      "note": 89,
      "start": 17.5052,
      "duration": 0.2393,
      "velocity": 115,
      "chip": "ym2612"
    },
    {
      "channel": 1,
      "note": 77,
      "start": 17.527,
      "duration": 0.1086,
      "velocity": 99,
      "chip": "ym2612"
    },
    {
      "channel": 0,
      "note": 98,
      "start": 17.7666,
      "duration": 0.2393,
      "velocity": 115,
      "chip": "ym2612"
    },
    {
      "channel": 0,
      "note": 89,
      "start": 18.028,
      "duration": 0.2392,
      "velocity": 115,
      "chip": "ym2612"
    },
    {
      "channel": 1,
      "note": 77,
      "start": 18.0283,
      "duration": 0.1082,
      "velocity": 99,
      "chip": "ym2612"
    },
    {
      "channel": 0,
      "note": 93,
      "start": 18.2893,
      "duration": 0.2393,
      "velocity": 115,
      "chip": "ym2612"
    },
    {
      "channel": 1,
      "note": 84,
      "start": 18.29,
      "duration": 0.1079,
      "velocity": 99,
      "chip": "ym2612"
    },
    {
      "channel": 0,
      "note": 96,
      "start": 18.5507,
      "duration": 0.2393,
      "velocity": 115,
      "chip": "ym2612"
    },
    {
      "channel": 1,
      "note": 84,
      "start": 18.5511,
      "duration": 0.1082,
      "velocity": 99,
      "chip": "ym2612"
    },
    {
      "channel": 0,
      "note": 91,
      "start": 18.8121,
      "duration": 0.2393,
      "velocity": 115,
      "chip": "ym2612"
    },
    {
      "channel": 3,
      "note": 81,
      "start": 18.818,
      "duration": 2.0634,
      "velocity": 107,
      "chip": "ym2612"
    },
    {
      "channel": 4,
      "note": 76,
      "start": 18.8187,
      "duration": 2.063,
      "velocity": 107,
      "chip": "ym2612"
    },
    {
      "channel": 0,
      "note": 88,
      "start": 19.0735,
      "duration": 0.2393,
      "velocity": 115,
      "chip": "ym2612"
    },
    {
      "channel": 1,
      "note": 71,
      "start": 19.0742,
      "duration": 0.2389,
      "velocity": 111,
      "chip": "ym2612"
    },
    {
      "channel": 2,
      "note": 60,
      "start": 19.1171,
      "duration": 0.1086,
      "velocity": 119,
      "chip": "ym2612"
    },
    {
      "channel": 0,
      "note": 93,
      "start": 19.3349,
      "duration": 0.2392,
      "velocity": 115,
      "chip": "ym2612"
    },
    {
      "channel": 1,
      "note": 72,
      "start": 19.3355,
      "duration": 0.2611,
      "velocity": 111,
      "chip": "ym2612"
    },
    {
      "channel": 2,
      "note": 60,
      "start": 19.3564,
      "duration": 0.1088,
      "velocity": 119,
      "chip": "ym2612"
    },
    {
      "channel": 0,
      "note": 88,
      "start": 19.5963,
      "duration": 0.2393,
      "velocity": 115,
      "chip": "ym2612"
    },
    {
      "channel": 1,
      "note": 79,
      "start": 19.618,
      "duration": 1.5679,
      "velocity": 111,
      "chip": "ym2612"
    },
    {
      "channel": 0,
      "note": 95,
      "start": 19.8577,
      "duration": 0.2393,
      "velocity": 115,
      "chip": "ym2612"
    },
    {
      "channel": 0,
      "note": 88,
      "start": 20.119,
      "duration": 0.2393,
      "velocity": 115,
      "chip": "ym2612"
    },
    {
      "channel": 2,
      "note": 64,
      "start": 20.1197,
      "duration": 0.108,
      "velocity": 119,
      "chip": "ym2612"
    },
    {
      "channel": 0,
      "note": 93,
      "start": 20.3804,
      "duration": 0.2393,
      "velocity": 115,
      "chip": "ym2612"
    },
    {
      "channel": 0,
      "note": 95,
      "start": 20.6417,
      "duration": 0.2393,
      "velocity": 115,
      "chip": "ym2612"
    },
    {
      "channel": 2,
      "note": 64,
      "start": 20.6421,
      "duration": 0.1083,
      "velocity": 119,
      "chip": "ym2612"
    },
    {
      "channel": 0,
      "note": 98,
      "start": 20.9032,
      "duration": 0.2393,
      "velocity": 115,
      "chip": "ym2612"
    },
    {
      "channel": 3,
      "note": 78,
      "start": 20.9039,
      "duration": 2.0685,
      "velocity": 107,
      "chip": "ym2612"
    },
    {
      "channel": 4,
      "note": 74,
      "start": 20.9046,
      "duration": 2.0681,
      "velocity": 107,
      "chip": "ym2612"
    },
    {
      "channel": 2,
      "note": 57,
      "start": 21.143,
      "duration": 0.1083,
      "velocity": 119,
      "chip": "ym2612"
    },
    {
      "channel": 0,
      "note": 88,
      "start": 21.1645,
      "duration": 0.2393,
      "velocity": 115,
      "chip": "ym2612"
    },
    {
      "channel": 1,
      "note": 71,
      "start": 21.2081,
      "duration": 0.2181,
      "velocity": 111,
      "chip": "ym2612"
    },
    {
      "channel": 2,
      "note": 57,
      "start": 21.4042,
      "duration": 0.1086,
      "velocity": 119,
      "chip": "ym2612"
    },
    {
      "channel": 0,
      "note": 96,
      "start": 21.4259,
      "duration": 0.2393,
      "velocity": 115,
      "chip": "ym2612"
    },
    {
      "channel": 1,
      "note": 72,
      "start": 21.4269,
      "duration": 0.2608,
      "velocity": 111,
      "chip": "ym2612"
    },
    {
      "channel": 0,
      "note": 88,
      "start": 21.6874,
      "duration": 0.2392,
      "velocity": 115,
      "chip": "ym2612"
    },
    {
      "channel": 1,
      "note": 78,
      "start": 21.7091,
      "duration": 1.5026,
      "velocity": 111,
      "chip": "ym2612"
    },
    {
      "channel": 0,
      "note": 95,
      "start": 21.9487,
      "duration": 0.2393,
      "velocity": 115,
      "chip": "ym2612"
    },
    {
      "channel": 0,
      "note": 88,
      "start": 22.2101,
      "duration": 0.2393,
      "velocity": 115,
      "chip": "ym2612"
    },
    {
      "channel": 0,
      "note": 91,
      "start": 22.4715,
      "duration": 0.2392,
      "velocity": 115,
      "chip": "ym2612"
    },
    {
      "channel": 0,
      "note": 93,
      "start": 22.7328,
      "duration": 0.2393,
      "velocity": 115,
      "chip": "ym2612"
    },
    {
      "channel": 0,
      "note": 91,
      "start": 22.9942,
      "duration": 0.2393,
      "velocity": 115,
      "chip": "ym2612"
    },
    {
      "channel": 3,
      "note": 77,
      "start": 22.9949,
      "duration": 2.0686,
      "velocity": 107,
      "chip": "ym2612"
    },
    {
      "channel": 4,
      "note": 72,
      "start": 22.9955,
      "duration": 2.0683,
      "velocity": 107,
      "chip": "ym2612"
    },
    {
      "channel": 1,
      "note": 71,
      "start": 23.2341,
      "duration": 0.239,
      "velocity": 111,
      "chip": "ym2612"
    },
    {
      "channel": 0,
      "note": 88,
      "start": 23.2556,
      "duration": 0.2393,
      "velocity": 115,
      "chip": "ym2612"
    },
    {
      "channel": 2,
      "note": 60,
      "start": 23.2774,
      "duration": 0.1086,
      "velocity": 119,
      "chip": "ym2612"
    },
    {
      "channel": 1,
      "note": 72,
      "start": 23.4954,
      "duration": 0.2611,
      "velocity": 111,
      "chip": "ym2612"
    },
    {
      "channel": 0,
      "note": 93,
      "start": 23.5169,
      "duration": 0.2393,
      "velocity": 115,
      "chip": "ym2612"
    },
    {
      "channel": 2,
      "note": 60,
      "start": 23.5173,
      "duration": 0.1083,
      "velocity": 119,
      "chip": "ym2612"
    },
    {
      "channel": 0,
      "note": 88,
      "start": 23.7783,
      "duration": 0.2392,
      "velocity": 115,
      "chip": "ym2612"
    },
    {
      "channel": 1,
      "note": 77,
      "start": 23.779,
      "duration": 1.4366,
      "velocity": 111,
      "chip": "ym2612"
    },
    {
      "channel": 0,
      "note": 95,
      "start": 24.0397,
      "duration": 0.2393,
      "velocity": 115,
      "chip": "ym2612"
    },
    {
      "channel": 0,
      "note": 88,
      "start": 24.3011,
      "duration": 0.2393,
      "velocity": 115,
      "chip": "ym2612"
    },
    {
      "channel": 2,
      "note": 64,
      "start": 24.3017,
      "duration": 0.108,
      "velocity": 119,
      "chip": "ym2612"
    },
    {
      "channel": 0,
      "note": 91,
      "start": 24.5625,
      "duration": 0.2393,
      "velocity": 115,
      "chip": "ym2612"
    },
    {
      "channel": 0,
      "note": 95,
      "start": 24.8239,
      "duration": 0.2393,
      "velocity": 115,
      "chip": "ym2612"
    },
    {
      "channel": 2,
      "note": 64,
      "start": 24.8242,
      "duration": 0.1083,
      "velocity": 119,
      "chip": "ym2612"
    },
    {
      "channel": 0,
      "note": 93,
      "start": 25.0852,
      "duration": 0.2392,
      "velocity": 115,
      "chip": "ym2612"
    },
    {
      "channel": 3,
      "note": 69,
      "start": 25.0859,
      "duration": 2.0686,
      "velocity": 107,
      "chip": "ym2612"
    },
    {
      "channel": 4,
      "note": 65,
      "start": 25.0865,
      "duration": 2.0683,
      "velocity": 107,
      "chip": "ym2612"
    },
    {
      "channel": 1,
      "note": 76,
      "start": 25.2378,
      "duration": 0.4569,
      "velocity": 111,
      "chip": "ym2612"
    },
    {
      "channel": 0,
      "note": 89,
      "start": 25.3466,
      "duration": 0.2393,
      "velocity": 115,
      "chip": "ym2612"
    },
    {
      "channel": 2,
      "note": 53,
      "start": 25.3473,
      "duration": 0.1079,
      "velocity": 119,
      "chip": "ym2612"
    },
    {
      "channel": 2,
      "note": 53,
      "start": 25.5862,
      "duration": 0.1089,
      "velocity": 119,
      "chip": "ym2612"
    },
    {
      "channel": 0,
      "note": 96,
      "start": 25.608,
      "duration": 0.2393,
      "velocity": 115,
      "chip": "ym2612"
    },
    {
      "channel": 1,
      "note": 77,
      "start": 25.7169,
      "duration": 0.2828,
      "velocity": 111,
      "chip": "ym2612"
    },
    {
      "channel": 0,
      "note": 89,
      "start": 25.8694,
      "duration": 0.2393,
      "velocity": 115,
      "chip": "ym2612"
    },
    {
      "channel": 1,
      "note": 65,
      "start": 26.0218,
      "duration": 0.5006,
      "velocity": 111,
      "chip": "ym2612"
    },
    {
      "channel": 0,
      "note": 98,
      "start": 26.1307,
      "duration": 0.2393,
      "velocity": 115,
      "chip": "ym2612"
    },
    {
      "channel": 0,
      "note": 89,
      "start": 26.3921,
      "duration": 0.2393,
      "velocity": 115,
      "chip": "ym2612"
    },
    {
      "channel": 1,
      "note": 69,
      "start": 26.5446,
      "duration": 0.8491,
      "velocity": 111,
      "chip": "ym2612"
    },
    {
      "channel": 0,
      "note": 93,
      "start": 26.6535,
      "duration": 0.2393,
      "velocity": 115,
      "chip": "ym2612"
    },
    {
      "channel": 0,
      "note": 96,
      "start": 26.9149,
      "duration": 0.2393,
      "velocity": 115,
      "chip": "ym2612"
    },
    {
      "channel": 0,
      "note": 91,
      "start": 27.1762,
      "duration": 0.2393,
      "velocity": 115,
      "chip": "ym2612"
    },
    {
      "channel": 2,
      "note": 57,
      "start": 27.1769,
      "duration": 0.108,
      "velocity": 119,
      "chip": "ym2612"
    },
    {
      "channel": 3,
      "note": 81,
      "start": 27.1776,
      "duration": 2.0679,
      "velocity": 107,
      "chip": "ym2612"
    },
    {
      "channel": 4,
      "note": 76,
      "start": 27.1782,
      "duration": 2.0676,
      "velocity": 107,
      "chip": "ym2612"
    },
    {
      "channel": 1,
      "note": 71,
      "start": 27.4162,
      "duration": 0.2172,
      "velocity": 111,
      "chip": "ym2612"
    },
    {
      "channel": 0,
      "note": 88,
      "start": 27.4377,
      "duration": 0.2392,
      "velocity": 115,
      "chip": "ym2612"
    },
    {
      "channel": 2,
      "note": 60,
      "start": 27.4383,
      "duration": 0.1079,
      "velocity": 119,
      "chip": "ym2612"
    },
    {
      "channel": 1,
      "note": 72,
      "start": 27.6554,
      "duration": 0.2611,
      "velocity": 111,
      "chip": "ym2612"
    },
    {
      "channel": 0,
      "note": 93,
      "start": 27.699,
      "duration": 0.2393,
      "velocity": 115,
      "chip": "ym2612"
    },
    {
      "channel": 2,
      "note": 60,
      "start": 27.6994,
      "duration": 0.1082,
      "velocity": 119,
      "chip": "ym2612"
    },
    {
      "channel": 1,
      "note": 79,
      "start": 27.9389,
      "duration": 1.5241,
      "velocity": 111,
      "chip": "ym2612"
    },
    {
      "channel": 0,
      "note": 88,
      "start": 27.9604,
      "duration": 0.2393,
      "velocity": 115,
      "chip": "ym2612"
    },
    {
      "channel": 0,
      "note": 95,
      "start": 28.2218,
      "duration": 0.2393,
      "velocity": 115,
      "chip": "ym2612"
    },
    {
      "channel": 0,
      "note": 88,
      "start": 28.4832,
      "duration": 0.2393,
      "velocity": 115,
      "chip": "ym2612"
    },
    {
      "channel": 2,
      "note": 64,
      "start": 28.5049,
      "duration": 0.1086,
      "velocity": 119,
      "chip": "ym2612"
    },
    {
      "channel": 0,
      "note": 93,
      "start": 28.7446,
      "duration": 0.2393,
      "velocity": 115,
      "chip": "ym2612"
    },
    {
      "channel": 0,
      "note": 95,
      "start": 29.0059,
      "duration": 0.2393,
      "velocity": 115,
      "chip": "ym2612"
    },
    {
      "channel": 2,
      "note": 64,
      "start": 29.0063,
      "duration": 0.1082,
      "velocity": 119,
      "chip": "ym2612"
    },
    {
      "channel": 0,
      "note": 98,
      "start": 29.2673,
      "duration": 0.2393,
      "velocity": 115,
      "chip": "ym2612"
    },
    {
      "channel": 3,
      "note": 78,
      "start": 29.268,
      "duration": 2.0686,
      "velocity": 107,
      "chip": "ym2612"
    },
    {
      "channel": 4,
      "note": 74,
      "start": 29.2686,
      "duration": 2.0683,
      "velocity": 107,
      "chip": "ym2612"
    },
    {
      "channel": 1,
      "note": 71,
      "start": 29.4851,
      "duration": 0.2393,
      "velocity": 111,
      "chip": "ym2612"
    },
    {
      "channel": 2,
      "note": 57,
      "start": 29.5072,
      "duration": 0.1083,
      "velocity": 119,
      "chip": "ym2612"
    },
    {
      "channel": 0,
      "note": 88,
      "start": 29.5287,
      "duration": 0.2392,
      "velocity": 115,
      "chip": "ym2612"
    },
    {
      "channel": 1,
      "note": 72,
      "start": 29.7465,
      "duration": 0.261,
      "velocity": 111,
      "chip": "ym2612"
    },
    {
      "channel": 0,
      "note": 96,
      "start": 29.79,
      "duration": 0.2393,
      "velocity": 115,
      "chip": "ym2612"
    },
    {
      "channel": 2,
      "note": 57,
      "start": 29.7904,
      "duration": 0.1082,
      "velocity": 119,
      "chip": "ym2612"
    },
    {
      "channel": 1,
      "note": 78,
      "start": 30.0082,
      "duration": 1.5897,
      "velocity": 111,
      "chip": "ym2612"
    },
    {
      "channel": 0,
      "note": 88,
      "start": 30.0514,
      "duration": 0.2393,
      "velocity": 115,
      "chip": "ym2612"
    },
    {
      "channel": 0,
      "note": 95,
      "start": 30.3128,
      "duration": 0.2393,
      "velocity": 115,
      "chip": "ym2612"
    },
    {
      "channel": 0,
      "note": 88,
      "start": 30.5742,
      "duration": 0.2393,
      "velocity": 115,
      "chip": "ym2612"
    },
    {
      "channel": 0,
      "note": 91,
      "start": 30.8356,
      "duration": 0.2393,
      "velocity": 115,
      "chip": "ym2612"
    },
    {
      "channel": 0,
      "note": 93,
      "start": 31.097,
      "duration": 0.2392,
      "velocity": 115,
      "chip": "ym2612"
    },
    {
      "channel": 0,
      "note": 91,
      "start": 31.3584,
      "duration": 0.2392,
      "velocity": 115,
      "chip": "ym2612"
    },
    {
      "channel": 3,
      "note": 77,
      "start": 31.359,
      "duration": 2.0686,
      "velocity": 107,
      "chip": "ym2612"
    },
    {
      "channel": 4,
      "note": 72,
      "start": 31.3597,
      "duration": 2.0682,
      "velocity": 107,
      "chip": "ym2612"
    },
    {
      "channel": 2,
      "note": 60,
      "start": 31.5985,
      "duration": 0.108,
      "velocity": 119,
      "chip": "ym2612"
    },
    {
      "channel": 0,
      "note": 88,
      "start": 31.6197,
      "duration": 0.2393,
      "velocity": 115,
      "chip": "ym2612"
    },
    {
      "channel": 1,
      "note": 71,
      "start": 31.6203,
      "duration": 0.1951,
      "velocity": 111,
      "chip": "ym2612"
    },
    {
      "channel": 1,
      "note": 72,
      "start": 31.8376,
      "duration": 0.261,
      "velocity": 111,
      "chip": "ym2612"
    },
    {
      "channel": 0,
      "note": 93,
      "start": 31.8811,
      "duration": 0.2393,
      "velocity": 115,
      "chip": "ym2612"
    },
    {
      "channel": 2,
      "note": 60,
      "start": 31.8815,
      "duration": 0.1082,
      "velocity": 119,
      "chip": "ym2612"
    },
    {
      "channel": 1,
      "note": 77,
      "start": 32.1212,
      "duration": 1.5021,
      "velocity": 111,
      "chip": "ym2612"
    },
    {
      "channel": 0,
      "note": 88,
      "start": 32.1424,
      "duration": 0.2393,
      "velocity": 115,
      "chip": "ym2612"
    },
    {
      "channel": 0,
      "note": 95,
      "start": 32.4039,
      "duration": 0.2392,
      "velocity": 115,
      "chip": "ym2612"
    },
    {
      "channel": 0,
      "note": 88,
      "start": 32.6652,
      "duration": 0.2393,
      "velocity": 115,
      "chip": "ym2612"
    },
    {
      "channel": 2,
      "note": 64,
      "start": 32.6659,
      "duration": 0.1079,
      "velocity": 119,
      "chip": "ym2612"
    },
    {
      "channel": 0,
      "note": 91,
      "start": 32.9266,
      "duration": 0.2393,
      "velocity": 115,
      "chip": "ym2612"
    },
    {
      "channel": 2,
      "note": 64,
      "start": 33.1662,
      "duration": 0.1086,
      "velocity": 119,
      "chip": "ym2612"
    },
    {
      "channel": 0,
      "note": 95,
      "start": 33.188,
      "duration": 0.2393,
      "velocity": 115,
      "chip": "ym2612"
    },
    {
      "channel": 0,
      "note": 93,
      "start": 33.4493,
      "duration": 0.2393,
      "velocity": 115,
      "chip": "ym2612"
    },
    {
      "channel": 3,
      "note": 69,
      "start": 33.45,
      "duration": 2.0686,
      "velocity": 107,
      "chip": "ym2612"
    },
    {
      "channel": 4,
      "note": 65,
      "start": 33.4507,
      "duration": 2.0683,
      "velocity": 107,
      "chip": "ym2612"
    },
    {
      "channel": 1,
      "note": 75,
      "start": 33.6454,
      "duration": 0.4353,
      "velocity": 111,
      "chip": "ym2612"
    },
    {
      "channel": 0,
      "note": 89,
      "start": 33.7107,
      "duration": 0.2393,
      "velocity": 115,
      "chip": "ym2612"
    },
    {
      "channel": 2,
      "note": 53,
      "start": 33.7114,
      "duration": 0.1079,
      "velocity": 119,
      "chip": "ym2612"
    },
    {
      "channel": 0,
      "note": 96,
      "start": 33.9721,
      "duration": 0.2393,
      "velocity": 115,
      "chip": "ym2612"
    },
    {
      "channel": 1,
      "note": 76,
      "start": 34.1028,
      "duration": 0.261,
      "velocity": 111,
      "chip": "ym2612"
    },
    {
      "channel": 0,
      "note": 89,
      "start": 34.2335,
      "duration": 0.2393,
      "velocity": 115,
      "chip": "ym2612"
    },
    {
      "channel": 2,
      "note": 53,
      "start": 34.2338,
      "duration": 0.1083,
      "velocity": 119,
      "chip": "ym2612"
    },
    {
      "channel": 1,
      "note": 69,
      "start": 34.386,
      "duration": 0.5224,
      "velocity": 111,
      "chip": "ym2612"
    },
    {
      "channel": 0,
      "note": 98,
      "start": 34.4949,
      "duration": 0.2393,
      "velocity": 115,
      "chip": "ym2612"
    },
    {
      "channel": 0,
      "note": 89,
      "start": 34.7563,
      "duration": 0.2393,
      "velocity": 115,
      "chip": "ym2612"
    },
    {
      "channel": 1,
      "note": 65,
      "start": 34.9305,
      "duration": 0.6102,
      "velocity": 111,
      "chip": "ym2612"
    },
    {
      "channel": 0,
      "note": 93,
      "start": 35.0176,
      "duration": 0.2393,
      "velocity": 115,
      "chip": "ym2612"
    },
    {
      "channel": 0,
      "note": 96,
      "start": 35.279,
      "duration": 0.2393,
      "velocity": 115,
      "chip": "ym2612"
    },
    {
      "channel": 0,
      "note": 91,
      "start": 35.5404,
      "duration": 0.2393,
      "velocity": 115,
      "chip": "ym2612"
    },
    {
      "channel": 3,
      "note": 81,
      "start": 35.5414,
      "duration": 2.0683,
      "velocity": 107,
      "chip": "ym2612"
    },
    {
      "channel": 4,
      "note": 76,
      "start": 35.542,
      "duration": 2.0679,
      "velocity": 107,
      "chip": "ym2612"
    },
    {
      "channel": 2,
      "note": 57,
      "start": 35.5622,
      "duration": 0.1086,
      "velocity": 119,
      "chip": "ym2612"
    },
    {
      "channel": 0,
      "note": 88,
      "start": 35.8017,
      "duration": 0.2393,
      "velocity": 115,
      "chip": "ym2612"
    },
    {
      "channel": 2,
      "note": 60,
      "start": 35.8024,
      "duration": 0.1079,
      "velocity": 119,
      "chip": "ym2612"
    },
    {
      "channel": 1,
      "note": 71,
      "start": 35.8453,
      "duration": 0.2182,
      "velocity": 111,
      "chip": "ym2612"
    },
    {
      "channel": 0,
      "note": 93,
      "start": 36.0631,
      "duration": 0.2393,
      "velocity": 115,
      "chip": "ym2612"
    },
    {
      "channel": 1,
      "note": 72,
      "start": 36.0849,
      "duration": 0.2399,
      "velocity": 111,
      "chip": "ym2612"
    },
    {
      "channel": 2,
      "note": 60,
      "start": 36.0853,
      "duration": 0.1083,
      "velocity": 119,
      "chip": "ym2612"
    },
    {
      "channel": 0,
      "note": 88,
      "start": 36.3245,
      "duration": 0.2393,
      "velocity": 115,
      "chip": "ym2612"
    },
    {
      "channel": 1,
      "note": 81,
      "start": 36.3463,
      "duration": 0.7405,
      "velocity": 111,
      "chip": "ym2612"
    },
    {
      "channel": 0,
      "note": 95,
      "start": 36.5859,
      "duration": 0.2393,
      "velocity": 115,
      "chip": "ym2612"
    },
    {
      "channel": 0,
      "note": 88,
      "start": 36.8473,
      "duration": 0.2392,
      "velocity": 115,
      "chip": "ym2612"
    },
    {
      "channel": 2,
      "note": 64,
      "start": 36.869,
      "duration": 0.1086,
      "velocity": 119,
      "chip": "ym2612"
    },
    {
      "channel": 0,
      "note": 93,
      "start": 37.1087,
      "duration": 0.2393,
      "velocity": 115,
      "chip": "ym2612"
    },
    {
      "channel": 1,
      "note": 76,
      "start": 37.1093,
      "duration": 0.7838,
      "velocity": 111,
      "chip": "ym2612"
    },
    {
      "channel": 0,
      "note": 95,
      "start": 37.3701,
      "duration": 0.2393,
      "velocity": 115,
      "chip": "ym2612"
    },
    {
      "channel": 2,
      "note": 64,
      "start": 37.3704,
      "duration": 0.1083,
      "velocity": 119,
      "chip": "ym2612"
    },
    {
      "channel": 0,
      "note": 98,
      "start": 37.6315,
      "duration": 0.2394,
      "velocity": 115,
      "chip": "ym2612"
    },
    {
      "channel": 3,
      "note": 78,
      "start": 37.6321,
      "duration": 2.0686,
      "velocity": 107,
      "chip": "ym2612"
    },
    {
      "channel": 4,
      "note": 74,
      "start": 37.6328,
      "duration": 2.0682,
      "velocity": 107,
      "chip": "ym2612"
    },
    {
      "channel": 0,
      "note": 88,
      "start": 37.8928,
      "duration": 0.2393,
      "velocity": 115,
      "chip": "ym2612"
    },
    {
      "channel": 2,
      "note": 57,
      "start": 37.8938,
      "duration": 0.1076,
      "velocity": 119,
      "chip": "ym2612"
    },
    {
      "channel": 1,
      "note": 71,
      "start": 37.9146,
      "duration": 0.1957,
      "velocity": 111,
      "chip": "ym2612"
    },
    {
      "channel": 1,
      "note": 72,
      "start": 38.1327,
      "duration": 0.2389,
      "velocity": 111,
      "chip": "ym2612"
    },
    {
      "channel": 2,
      "note": 57,
      "start": 38.133,
      "duration": 0.108,
      "velocity": 119,
      "chip": "ym2612"
    },
    {
      "channel": 0,
      "note": 96,
      "start": 38.1543,
      "duration": 0.2392,
      "velocity": 115,
      "chip": "ym2612"
    },
    {
      "channel": 1,
      "note": 78,
      "start": 38.3941,
      "duration": 0.7838,
      "velocity": 111,
      "chip": "ym2612"
    },
    {
      "channel": 0,
      "note": 88,
      "start": 38.4156,
      "duration": 0.2393,
      "velocity": 115,
      "chip": "ym2612"
    },
    {
      "channel": 0,
      "note": 95,
      "start": 38.6769,
      "duration": 0.2393,
      "velocity": 115,
      "chip": "ym2612"
    },
    {
      "channel": 0,
      "note": 88,
      "start": 38.9383,
      "duration": 0.2393,
      "velocity": 115,
      "chip": "ym2612"
    },
    {
      "channel": 0,
      "note": 91,
      "start": 39.1997,
      "duration": 0.2393,
      "velocity": 115,
      "chip": "ym2612"
    },
    {
      "channel": 1,
      "note": 74,
      "start": 39.2003,
      "duration": 0.7838,
      "velocity": 111,
      "chip": "ym2612"
    },
    {
      "channel": 0,
      "note": 93,
      "start": 39.4611,
      "duration": 0.2393,
      "velocity": 115,
      "chip": "ym2612"
    },
    {
      "channel": 0,
      "note": 91,
      "start": 39.7225,
      "duration": 0.2393,
      "velocity": 115,
      "chip": "ym2612"
    },
    {
      "channel": 3,
      "note": 77,
      "start": 39.7231,
      "duration": 2.0686,
      "velocity": 107,
      "chip": "ym2612"
    },
    {
      "channel": 4,
      "note": 72,
      "start": 39.7238,
      "duration": 2.0682,
      "velocity": 107,
      "chip": "ym2612"
    },
    {
      "channel": 0,
      "note": 88,
      "start": 39.9838,
      "duration": 0.2393,
      "velocity": 115,
      "chip": "ym2612"
    },
    {
      "channel": 2,
      "note": 60,
      "start": 39.9848,
      "duration": 0.1076,
      "velocity": 119,
      "chip": "ym2612"
    },
    {
      "channel": 1,
      "note": 69,
      "start": 40.0056,
      "duration": 0.2178,
      "velocity": 111,
      "chip": "ym2612"
    },
    {
      "channel": 0,
      "note": 93,
      "start": 40.2452,
      "duration": 0.2393,
      "velocity": 115,
      "chip": "ym2612"
    },
    {
      "channel": 1,
      "note": 71,
      "start": 40.2458,
      "duration": 0.2389,
      "velocity": 111,
      "chip": "ym2612"
    },
    {
      "channel": 2,
      "note": 60,
      "start": 40.2461,
      "duration": 0.1076,
      "velocity": 119,
      "chip": "ym2612"
    },
    {
      "channel": 0,
      "note": 88,
      "start": 40.5066,
      "duration": 0.2393,
      "velocity": 115,
      "chip": "ym2612"
    },
    {
      "channel": 1,
      "note": 77,
      "start": 40.5072,
      "duration": 0.6961,
      "velocity": 111,
      "chip": "ym2612"
    },
    {
      "channel": 0,
      "note": 95,
      "start": 40.768,
      "duration": 0.2393,
      "velocity": 115,
      "chip": "ym2612"
    },
    {
      "channel": 2,
      "note": 64,
      "start": 41.0078,
      "duration": 0.1083,
      "velocity": 119,
      "chip": "ym2612"
    },
    {
      "channel": 0,
      "note": 88,
      "start": 41.0293,
      "duration": 0.2393,
      "velocity": 115,
      "chip": "ym2612"
    },
    {
      "channel": 1,
      "note": 72,
      "start": 41.2254,
      "duration": 0.8055,
      "velocity": 111,
      "chip": "ym2612"
    },
    {
      "channel": 0,
      "note": 91,
      "start": 41.2907,
      "duration": 0.2392,
      "velocity": 115,
      "chip": "ym2612"
    },
    {
      "channel": 2,
      "note": 64,
      "start": 41.5082,
      "duration": 0.1089,
      "velocity": 119,
      "chip": "ym2612"
    },
    {
      "channel": 0,
      "note": 95,
      "start": 41.5521,
      "duration": 0.2393,
      "velocity": 115,
      "chip": "ym2612"
    },
    {
      "channel": 0,
      "note": 93,
      "start": 41.8135,
      "duration": 0.2393,
      "velocity": 115,
      "chip": "ym2612"
    },
    {
      "channel": 3,
      "note": 69,
      "start": 41.8141,
      "duration": 2.0686,
      "velocity": 107,
      "chip": "ym2612"
    },
    {
      "channel": 4,
      "note": 65,
      "start": 41.8149,
      "duration": 2.0682,
      "velocity": 107,
      "chip": "ym2612"
    },
    {
      "channel": 1,
      "note": 71,
      "start": 42.0534,
      "duration": 0.2389,
      "velocity": 111,
      "chip": "ym2612"
    },
    {
      "channel": 0,
      "note": 89,
      "start": 42.0749,
      "duration": 0.2393,
      "velocity": 115,
      "chip": "ym2612"
    },
    {
      "channel": 2,
      "note": 53,
      "start": 42.0755,
      "duration": 0.108,
      "velocity": 119,
      "chip": "ym2612"
    },
    {
      "channel": 1,
      "note": 72,
      "start": 42.3148,
      "duration": 0.2389,
      "velocity": 111,
      "chip": "ym2612"
    },
    {
      "channel": 0,
      "note": 96,
      "start": 42.3362,
      "duration": 0.2393,
      "velocity": 115,
      "chip": "ym2612"
    },
    {
      "channel": 2,
      "note": 53,
      "start": 42.3365,
      "duration": 0.1083,
      "velocity": 119,
      "chip": "ym2612"
    },
    {
      "channel": 1,
      "note": 65,
      "start": 42.5761,
      "duration": 0.74,
      "velocity": 111,
      "chip": "ym2612"
    },
    {
      "channel": 0,
      "note": 89,
      "start": 42.5976,
      "duration": 0.2392,
      "velocity": 115,
      "chip": "ym2612"
    },
    {
      "channel": 0,
      "note": 98,
      "start": 42.859,
      "duration": 0.2393,
      "velocity": 115,
      "chip": "ym2612"
    },
    {
      "channel": 0,
      "note": 89,
      "start": 43.1204,
      "duration": 0.2393,
      "velocity": 115,
      "chip": "ym2612"
    },
    {
      "channel": 1,
      "note": 69,
      "start": 43.3382,
      "duration": 0.7403,
      "velocity": 111,
      "chip": "ym2612"
    },
    {
      "channel": 0,
      "note": 93,
      "start": 43.3818,
      "duration": 0.2393,
      "velocity": 115,
      "chip": "ym2612"
    },
    {
      "channel": 2,
      "note": 53,
      "start": 43.4032,
      "duration": 0.1089,
      "velocity": 119,
      "chip": "ym2612"
    },
    {
      "channel": 0,
      "note": 96,
      "start": 43.6432,
      "duration": 0.2393,
      "velocity": 115,
      "chip": "ym2612"
    },
    {
      "channel": 0,
      "note": 91,
      "start": 43.9045,
      "duration": 0.2393,
      "velocity": 115,
      "chip": "ym2612"
    },
    {
      "channel": 3,
      "note": 81,
      "start": 43.9052,
      "duration": 2.0686,
      "velocity": 107,
      "chip": "ym2612"
    },
    {
      "channel": 4,
      "note": 76,
      "start": 43.9059,
      "duration": 2.0682,
      "velocity": 107,
      "chip": "ym2612"
    },
    {
      "channel": 2,
      "note": 57,
      "start": 43.9264,
      "duration": 0.1085,
      "velocity": 119,
      "chip": "ym2612"
    },
    {
      "channel": 0,
      "note": 88,
      "start": 44.1659,
      "duration": 0.2393,
      "velocity": 115,
      "chip": "ym2612"
    },
    {
      "channel": 2,
      "note": 60,
      "start": 44.1666,
      "duration": 0.1079,
      "velocity": 119,
      "chip": "ym2612"
    },
    {
      "channel": 1,
      "note": 71,
      "start": 44.2094,
      "duration": 0.2182,
      "velocity": 111,
      "chip": "ym2612"
    },
    {
      "channel": 0,
      "note": 93,
      "start": 44.4273,
      "duration": 0.2393,
      "velocity": 115,
      "chip": "ym2612"
    },
    {
      "channel": 2,
      "note": 60,
      "start": 44.428,
      "duration": 0.1079,
      "velocity": 119,
      "chip": "ym2612"
    },
    {
      "channel": 1,
      "note": 72,
      "start": 44.4491,
      "duration": 0.2399,
      "velocity": 111,
      "chip": "ym2612"
    },
    {
      "channel": 0,
      "note": 88,
      "start": 44.6886,
      "duration": 0.2393,
      "velocity": 115,
      "chip": "ym2612"
    },
    {
      "channel": 1,
      "note": 81,
      "start": 44.7105,
      "duration": 0.7405,
      "velocity": 111,
      "chip": "ym2612"
    },
    {
      "channel": 0,
      "note": 95,
      "start": 44.95,
      "duration": 0.2393,
      "velocity": 115,
      "chip": "ym2612"
    },
    {
      "channel": 2,
      "note": 64,
      "start": 45.19,
      "duration": 0.1083,
      "velocity": 119,
      "chip": "ym2612"
    },
    {
      "channel": 0,
      "note": 88,
      "start": 45.2114,
      "duration": 0.2393,
      "velocity": 115,
      "chip": "ym2612"
    },
    {
      "channel": 0,
      "note": 93,
      "start": 45.4728,
      "duration": 0.2393,
      "velocity": 115,
      "chip": "ym2612"
    },
    {
      "channel": 1,
      "note": 76,
      "start": 45.4734,
      "duration": 0.7838,
      "velocity": 111,
      "chip": "ym2612"
    },
    {
      "channel": 2,
      "note": 64,
      "start": 45.7124,
      "duration": 0.1087,
      "velocity": 119,
      "chip": "ym2612"
    },
    {
      "channel": 0,
      "note": 95,
      "start": 45.7342,
      "duration": 0.2393,
      "velocity": 115,
      "chip": "ym2612"
    },
    {
      "channel": 0,
      "note": 98,
      "start": 45.9956,
      "duration": 0.2393,
      "velocity": 115,
      "chip": "ym2612"
    },
    {
      "channel": 3,
      "note": 78,
      "start": 45.9962,
      "duration": 2.0686,
      "velocity": 107,
      "chip": "ym2612"
    },
    {
      "channel": 4,
      "note": 74,
      "start": 45.9969,
      "duration": 2.0682,
      "velocity": 107,
      "chip": "ym2612"
    },
    {
      "channel": 2,
      "note": 57,
      "start": 46.2134,
      "duration": 0.1086,
      "velocity": 119,
      "chip": "ym2612"
    },
    {
      "channel": 0,
      "note": 88,
      "start": 46.257,
      "duration": 0.2393,
      "velocity": 115,
      "chip": "ym2612"
    },
    {
      "channel": 1,
      "note": 71,
      "start": 46.2787,
      "duration": 0.1957,
      "velocity": 111,
      "chip": "ym2612"
    },
    {
      "channel": 2,
      "note": 57,
      "start": 46.4526,
      "duration": 0.1089,
      "velocity": 119,
      "chip": "ym2612"
    },
    {
      "channel": 1,
      "note": 72,
      "start": 46.4968,
      "duration": 0.2172,
      "velocity": 111,
      "chip": "ym2612"
    },
    {
      "channel": 0,
      "note": 96,
      "start": 46.5183,
      "duration": 0.2392,
      "velocity": 115,
      "chip": "ym2612"
    },
    {
      "channel": 1,
      "note": 78,
      "start": 46.7362,
      "duration": 0.8059,
      "velocity": 111,
      "chip": "ym2612"
    },
    {
      "channel": 0,
      "note": 88,
      "start": 46.7797,
      "duration": 0.2393,
      "velocity": 115,
      "chip": "ym2612"
    },
    {
      "channel": 0,
      "note": 95,
      "start": 47.0411,
      "duration": 0.2393,
      "velocity": 115,
      "chip": "ym2612"
    },
    {
      "channel": 0,
      "note": 88,
      "start": 47.3024,
      "duration": 0.2393,
      "velocity": 115,
      "chip": "ym2612"
    },
    {
      "channel": 0,
      "note": 91,
      "start": 47.5638,
      "duration": 0.2393,
      "velocity": 115,
      "chip": "ym2612"
    },
    {
      "channel": 1,
      "note": 74,
      "start": 47.5645,
      "duration": 0.805,
      "velocity": 111,
      "chip": "ym2612"
    },
    {
      "channel": 0,
      "note": 93,
      "start": 47.8252,
      "duration": 0.2393,
      "velocity": 115,
      "chip": "ym2612"
    },
    {
      "channel": 0,
      "note": 91,
      "start": 48.0866,
      "duration": 0.2393,
      "velocity": 115,
      "chip": "ym2612"
    },
    {
      "channel": 3,
      "note": 77,
      "start": 48.0873,
      "duration": 2.0685,
      "velocity": 107,
      "chip": "ym2612"
    },
    {
      "channel": 4,
      "note": 72,
      "start": 48.088,
      "duration": 2.0681,
      "velocity": 107,
      "chip": "ym2612"
    },
    {
      "channel": 0,
      "note": 88,
      "start": 48.348,
      "duration": 0.2393,
      "velocity": 115,
      "chip": "ym2612"
    },
    {
      "channel": 2,
      "note": 60,
      "start": 48.3486,
      "duration": 0.1079,
      "velocity": 119,
      "chip": "ym2612"
    },
    {
      "channel": 1,
      "note": 69,
      "start": 48.3916,
      "duration": 0.1961,
      "velocity": 111,
      "chip": "ym2612"
    },
    {
      "channel": 0,
      "note": 93,
      "start": 48.6093,
      "duration": 0.2393,
      "velocity": 115,
      "chip": "ym2612"
    },
    {
      "channel": 1,
      "note": 71,
      "start": 48.61,
      "duration": 0.2389,
      "velocity": 111,
      "chip": "ym2612"
    },
    {
      "channel": 2,
      "note": 60,
      "start": 48.6308,
      "duration": 0.1089,
      "velocity": 119,
      "chip": "ym2612"
    },
    {
      "channel": 0,
      "note": 88,
      "start": 48.8709,
      "duration": 0.2391,
      "velocity": 115,
      "chip": "ym2612"
    },
    {
      "channel": 1,
      "note": 77,
      "start": 48.8715,
      "duration": 0.6959,
      "velocity": 111,
      "chip": "ym2612"
    },
    {
      "channel": 0,
      "note": 95,
      "start": 49.1321,
      "duration": 0.2393,
      "velocity": 115,
      "chip": "ym2612"
    },
    {
      "channel": 2,
      "note": 64,
      "start": 49.372,
      "duration": 0.1083,
      "velocity": 119,
      "chip": "ym2612"
    },
    {
      "channel": 0,
      "note": 88,
      "start": 49.3935,
      "duration": 0.2393,
      "velocity": 115,
      "chip": "ym2612"
    },
    {
      "channel": 1,
      "note": 72,
      "start": 49.5895,
      "duration": 0.8055,
      "velocity": 111,
      "chip": "ym2612"
    },
    {
      "channel": 0,
      "note": 91,
      "start": 49.6549,
      "duration": 0.2393,
      "velocity": 115,
      "chip": "ym2612"
    },
    {
      "channel": 2,
      "note": 64,
      "start": 49.8944,
      "duration": 0.1087,
      "velocity": 119,
      "chip": "ym2612"
    },
    {
      "channel": 0,
      "note": 95,
      "start": 49.9163,
      "duration": 0.2392,
      "velocity": 115,
      "chip": "ym2612"
    },
    {
      "channel": 0,
      "note": 93,
      "start": 50.1776,
      "duration": 0.2393,
      "velocity": 115,
      "chip": "ym2612"
    },
    {
      "channel": 3,
      "note": 69,
      "start": 50.1783,
      "duration": 2.0471,
      "velocity": 107,
      "chip": "ym2612"
    },
    {
      "channel": 4,
      "note": 65,
      "start": 50.179,
      "duration": 2.0467,
      "velocity": 107,
      "chip": "ym2612"
    },
    {
      "channel": 1,
      "note": 71,
      "start": 50.4175,
      "duration": 0.2172,
      "velocity": 111,
      "chip": "ym2612"
    },
    {
      "channel": 2,
      "note": 53,
      "start": 50.4182,
      "duration": 0.1076,
      "velocity": 119,
      "chip": "ym2612"
    },
    {
      "channel": 0,
      "note": 89,
      "start": 50.439,
      "duration": 0.2393,
      "velocity": 115,
      "chip": "ym2612"
    },
    {
      "channel": 1,
      "note": 72,
      "start": 50.6568,
      "duration": 0.2174,
      "velocity": 111,
      "chip": "ym2612"
    },
    {
      "channel": 2,
      "note": 53,
      "start": 50.6785,
      "duration": 0.1087,
      "velocity": 119,
      "chip": "ym2612"
    },
    {
      "channel": 0,
      "note": 96,
      "start": 50.7004,
      "duration": 0.2392,
      "velocity": 115,
      "chip": "ym2612"
    },
    {
      "channel": 1,
      "note": 65,
      "start": 50.8964,
      "duration": 0.8056,
      "velocity": 111,
      "chip": "ym2612"
    },
    {
      "channel": 0,
      "note": 89,
      "start": 50.9617,
      "duration": 0.2393,
      "velocity": 115,
      "chip": "ym2612"
    },
    {
      "channel": 0,
      "note": 98,
      "start": 51.2231,
      "duration": 0.2392,
      "velocity": 115,
      "chip": "ym2612"
    },
    {
      "channel": 0,
      "note": 89,
      "start": 51.4845,
      "duration": 0.2393,
      "velocity": 115,
      "chip": "ym2612"
    },
    {
      "channel": 2,
      "note": 53,
      "start": 51.5278,
      "duration": 0.1089,
      "velocity": 119,
      "chip": "ym2612"
    },
    {
      "channel": 1,
      "note": 69,
      "start": 51.7244,
      "duration": 0.5006,
      "velocity": 111,
      "chip": "ym2612"
    },
    {
      "channel": 0,
      "note": 93,
      "start": 51.7459,
      "duration": 0.2393,
      "velocity": 115,
      "chip": "ym2612"
    },
    {
      "channel": 0,
      "note": 96,
      "start": 52.0073,
      "duration": 0.2175,
      "velocity": 115,
      "chip": "ym2612"
    },
    {
      "channel": 0,
      "note": 91,
      "start": 52.2746,
      "duration": 0.2551,
      "velocity": 115,
      "chip": "ym2612"
    },
    {
      "channel": 3,
      "note": 72,
      "start": 52.2983,
      "duration": 2.0611,
      "velocity": 107,
      "chip": "ym2612"
    },
    {
      "channel": 4,
      "note": 69,
      "start": 52.3114,
      "duration": 2.048,
      "velocity": 107,
      "chip": "ym2612"
    },
    {
      "channel": 0,
      "note": 88,
      "start": 52.5518,
      "duration": 0.2393,
      "velocity": 115,
      "chip": "ym2612"
    },
    {
      "channel": 2,
      "note": 60,
      "start": 52.5525,
      "duration": 0.1079,
      "velocity": 119,
      "chip": "ym2612"
    },
    {
      "channel": 0,
      "note": 93,
      "start": 52.8132,
      "duration": 0.2393,
      "velocity": 115,
      "chip": "ym2612"
    },
    {
      "channel": 2,
      "note": 60,
      "start": 52.8135,
      "duration": 0.1083,
      "velocity": 119,
      "chip": "ym2612"
    },
    {
      "channel": 0,
      "note": 88,
      "start": 53.0746,
      "duration": 0.2393,
      "velocity": 115,
      "chip": "ym2612"
    },
    {
      "channel": 1,
      "note": 87,
      "start": 53.1182,
      "duration": 0.1085,
      "velocity": 99,
      "chip": "ym2612"
    },
    {
      "channel": 0,
      "note": 95,
      "start": 53.336,
      "duration": 0.2393,
      "velocity": 115,
      "chip": "ym2612"
    },
    {
      "channel": 0,
      "note": 88,
      "start": 53.5973,
      "duration": 0.2393,
      "velocity": 115,
      "chip": "ym2612"
    },
    {
      "channel": 2,
      "note": 64,
      "start": 53.598,
      "duration": 0.108,
      "velocity": 119,
      "chip": "ym2612"
    },
    {
      "channel": 1,
      "note": 87,
      "start": 53.6188,
      "duration": 0.1089,
      "velocity": 99,
      "chip": "ym2612"
    },
    {
      "channel": 0,
      "note": 93,
      "start": 53.8588,
      "duration": 0.2392,
      "velocity": 115,
      "chip": "ym2612"
    },
    {
      "channel": 1,
      "note": 88,
      "start": 53.8805,
      "duration": 0.1086,
      "velocity": 99,
      "chip": "ym2612"
    },
    {
      "channel": 0,
      "note": 95,
      "start": 54.1201,
      "duration": 0.2393,
      "velocity": 115,
      "chip": "ym2612"
    },
    {
      "channel": 2,
      "note": 64,
      "start": 54.1205,
      "duration": 0.1082,
      "velocity": 119,
      "chip": "ym2612"
    }
  ]
}