{
  "track_name": "12 - Mega Man- Ending Theme",
  "duration_sec": 80.678,
  "sample_rate": 44100,
  "note_count": 976,
  "unique_pitches": 38,
  "pitch_range": 59,
  "avg_note_duration": 0.2726,
  "reconstruction_stats": {
    "notes_reconstructed": 976,
    "keyon_events": 976,
    "keyoff_events": 976,
    "orphan_keyons": 0,
    "unique_pitches": 38,
    "pitch_range": 59,
    "avg_duration_sec": 0.2726
  },
  "metadata": {
    "source": "M\\Mega Man - The Wily Wars\\12 - Mega Man- Ending Theme.vgm"
  },
  "notes": [
    {
      "channel": 0,
      "note": 85,
      "start": 0.0,
      "duration": 0.0,
      "velocity": 1,
      "chip": "ym2612"
    },
    {
      "channel": 0,
      "note": 79,
      "start": 0.0,
      "duration": 1.6968,
      "velocity": 72,
      "chip": "ym2612"
    },
    {
      "channel": 2,
      "note": 76,
      "start": 0.0,
      "duration": 0.0,
      "velocity": 1,
      "chip": "ym2612"
    },
    {
      "channel": 3,
      "note": 63,
      "start": 0.0053,
      "duration": 0.5394,
      "velocity": 102,
      "chip": "ym2612"
    },
    {
      "channel": 5,
      "note": 32,
      "start": 0.0061,
      "duration": 0.105,
      "velocity": 114,
      "chip": "ym2612"
    },
    {
      "channel": 1,
      "note": 70,
      "start": 0.1789,
      "duration": 0.2158,
      "velocity": 89,
      "chip": "ym2612"
    },
    {
      "channel": 2,
      "note": 70,
      "start": 0.2949,
      "duration": 0.216,
      "velocity": 89,
      "chip": "ym2612"
    },
    {
      "channel": 1,
      "note": 75,
      "start": 0.3952,
      "duration": 0.218,
      "velocity": 89,
      "chip": "ym2612"
    },
    {
      "channel": 2,
      "note": 75,
      "start": 0.5116,
      "duration": 0.216,
      "velocity": 89,
      "chip": "ym2612"
    },
    {
      "channel": 1,
      "note": 77,
      "start": 0.6138,
      "duration": 0.2165,
      "velocity": 89,
      "chip": "ym2612"
    },
    {
      "channel": 3,
      "note": 63,
      "start": 0.6149,
      "duration": 0.1465,
      "velocity": 102,
      "chip": "ym2612"
    },
    {
      "channel": 5,
      "note": 32,
      "start": 0.6157,
      "duration": 0.1461,
      "velocity": 114,
      "chip": "ym2612"
    },
    {
      "channel": 2,
      "note": 77,
      "start": 0.7282,
      "duration": 0.2161,
      "velocity": 89,
      "chip": "ym2612"
    },
    {
      "channel": 1,
      "note": 79,
      "start": 0.8309,
      "duration": 0.4327,
      "velocity": 89,
      "chip": "ym2612"
    },
    {
      "channel": 3,
      "note": 63,
      "start": 0.8319,
      "duration": 0.4323,
      "velocity": 102,
      "chip": "ym2612"
    },
    {
      "channel": 5,
      "note": 32,
      "start": 0.8327,
      "duration": 0.1457,
      "velocity": 114,
      "chip": "ym2612"
    },
    {
      "channel": 2,
      "note": 79,
      "start": 0.9449,
      "duration": 0.4158,
      "velocity": 89,
      "chip": "ym2612"
    },
    {
      "channel": 5,
      "note": 75,
      "start": 1.2652,
      "duration": 0.3125,
      "velocity": 120,
      "chip": "ym2612"
    },
    {
      "channel": 0,
      "note": 80,
      "start": 1.6975,
      "duration": 1.0637,
      "velocity": 72,
      "chip": "ym2612"
    },
    {
      "channel": 3,
      "note": 63,
      "start": 1.6988,
      "duration": 0.5625,
      "velocity": 102,
      "chip": "ym2612"
    },
    {
      "channel": 5,
      "note": 32,
      "start": 1.6997,
      "duration": 0.1282,
      "velocity": 114,
      "chip": "ym2612"
    },
    {
      "channel": 1,
      "note": 71,
      "start": 1.9122,
      "duration": 0.2156,
      "velocity": 89,
      "chip": "ym2612"
    },
    {
      "channel": 2,
      "note": 71,
      "start": 2.0116,
      "duration": 0.216,
      "velocity": 89,
      "chip": "ym2612"
    },
    {
      "channel": 1,
      "note": 75,
      "start": 2.1285,
      "duration": 0.2014,
      "velocity": 89,
      "chip": "ym2612"
    },
    {
      "channel": 2,
      "note": 75,
      "start": 2.2282,
      "duration": 0.2161,
      "velocity": 89,
      "chip": "ym2612"
    },
    {
      "channel": 1,
      "note": 77,
      "start": 2.3305,
      "duration": 0.2165,
      "velocity": 89,
      "chip": "ym2612"
    },
    {
      "channel": 3,
      "note": 63,
      "start": 2.3315,
      "duration": 0.1465,
      "velocity": 102,
      "chip": "ym2612"
    },
    {
      "channel": 5,
      "note": 32,
      "start": 2.3324,
      "duration": 0.1461,
      "velocity": 114,
      "chip": "ym2612"
    },
    {
      "channel": 2,
      "note": 77,
      "start": 2.4449,
      "duration": 0.2161,
      "velocity": 89,
      "chip": "ym2612"
    },
    {
      "channel": 1,
      "note": 80,
      "start": 2.5476,
      "duration": 0.4328,
      "velocity": 89,
      "chip": "ym2612"
    },
    {
      "channel": 3,
      "note": 63,
      "start": 2.5486,
      "duration": 0.4324,
      "velocity": 102,
      "chip": "ym2612"
    },
    {
      "channel": 5,
      "note": 32,
      "start": 2.5494,
      "duration": 0.1457,
      "velocity": 114,
      "chip": "ym2612"
    },
    {
      "channel": 2,
      "note": 80,
      "start": 2.6616,
      "duration": 0.4325,
      "velocity": 89,
      "chip": "ym2612"
    },
    {
      "channel": 0,
      "note": 82,
      "start": 2.7618,
      "duration": 0.6518,
      "velocity": 72,
      "chip": "ym2612"
    },
    {
      "channel": 5,
      "note": 75,
      "start": 2.9818,
      "duration": 0.3291,
      "velocity": 120,
      "chip": "ym2612"
    },
    {
      "channel": 0,
      "note": 79,
      "start": 3.4144,
      "duration": 1.7158,
      "velocity": 72,
      "chip": "ym2612"
    },
    {
      "channel": 3,
      "note": 63,
      "start": 3.4159,
      "duration": 0.5622,
      "velocity": 102,
      "chip": "ym2612"
    },
    {
      "channel": 5,
      "note": 32,
      "start": 3.4167,
      "duration": 0.1445,
      "velocity": 114,
      "chip": "ym2612"
    },
    {
      "channel": 1,
      "note": 70,
      "start": 3.6289,
      "duration": 0.2156,
      "velocity": 89,
      "chip": "ym2612"
    },
    {
      "channel": 2,
      "note": 70,
      "start": 3.7283,
      "duration": 0.216,
      "velocity": 89,
      "chip": "ym2612"
    },
    {
      "channel": 1,
      "note": 75,
      "start": 3.8451,
      "duration": 0.218,
      "velocity": 89,
      "chip": "ym2612"
    },
    {
      "channel": 2,
      "note": 75,
      "start": 3.9449,
      "duration": 0.2161,
      "velocity": 89,
      "chip": "ym2612"
    },
    {
      "channel": 1,
      "note": 77,
      "start": 4.0638,
      "duration": 0.2165,
      "velocity": 89,
      "chip": "ym2612"
    },
    {
      "channel": 3,
      "note": 63,
      "start": 4.0649,
      "duration": 0.1298,
      "velocity": 102,
      "chip": "ym2612"
    },
    {
      "channel": 5,
      "note": 32,
      "start": 4.0657,
      "duration": 0.1294,
      "velocity": 114,
      "chip": "ym2612"
    },
    {
      "channel": 2,
      "note": 77,
      "start": 4.1615,
      "duration": 0.2161,
      "velocity": 89,
      "chip": "ym2612"
    },
    {
      "channel": 1,
      "note": 79,
      "start": 4.2809,
      "duration": 0.416,
      "velocity": 89,
      "chip": "ym2612"
    },
    {
      "channel": 3,
      "note": 63,
      "start": 4.2819,
      "duration": 0.4156,
      "velocity": 102,
      "chip": "ym2612"
    },
    {
      "channel": 5,
      "note": 32,
      "start": 4.2827,
      "duration": 0.129,
      "velocity": 114,
      "chip": "ym2612"
    },
    {
      "channel": 2,
      "note": 79,
      "start": 4.3783,
      "duration": 0.4324,
      "velocity": 89,
      "chip": "ym2612"
    },
    {
      "channel": 5,
      "note": 75,
      "start": 4.6985,
      "duration": 0.3292,
      "velocity": 120,
      "chip": "ym2612"
    },
    {
      "channel": 0,
      "note": 80,
      "start": 5.1308,
      "duration": 1.0804,
      "velocity": 72,
      "chip": "ym2612"
    },
    {
      "channel": 3,
      "note": 63,
      "start": 5.1322,
      "duration": 0.5792,
      "velocity": 102,
      "chip": "ym2612"
    },
    {
      "channel": 5,
      "note": 32,
      "start": 5.133,
      "duration": 0.1449,
      "velocity": 114,
      "chip": "ym2612"
    },
    {
      "channel": 1,
      "note": 71,
      "start": 5.3456,
      "duration": 0.2156,
      "velocity": 89,
      "chip": "ym2612"
    },
    {
      "channel": 2,
      "note": 71,
      "start": 5.4616,
      "duration": 0.216,
      "velocity": 89,
      "chip": "ym2612"
    },
    {
      "channel": 1,
      "note": 75,
      "start": 5.5618,
      "duration": 0.218,
      "velocity": 89,
      "chip": "ym2612"
    },
    {
      "channel": 2,
      "note": 75,
      "start": 5.6782,
      "duration": 0.1994,
      "velocity": 89,
      "chip": "ym2612"
    },
    {
      "channel": 1,
      "note": 77,
      "start": 5.7805,
      "duration": 0.2165,
      "velocity": 89,
      "chip": "ym2612"
    },
    {
      "channel": 3,
      "note": 63,
      "start": 5.7815,
      "duration": 0.1465,
      "velocity": 102,
      "chip": "ym2612"
    },
    {
      "channel": 5,
      "note": 32,
      "start": 5.7824,
      "duration": 0.1461,
      "velocity": 114,
      "chip": "ym2612"
    },
    {
      "channel": 2,
      "note": 77,
      "start": 5.8782,
      "duration": 0.2162,
      "velocity": 89,
      "chip": "ym2612"
    },
    {
      "channel": 1,
      "note": 80,
      "start": 5.9976,
      "duration": 0.4328,
      "velocity": 89,
      "chip": "ym2612"
    },
    {
      "channel": 3,
      "note": 63,
      "start": 5.9986,
      "duration": 0.4324,
      "velocity": 102,
      "chip": "ym2612"
    },
    {
      "channel": 5,
      "note": 32,
      "start": 5.9994,
      "duration": 0.1457,
      "velocity": 114,
      "chip": "ym2612"
    },
    {
      "channel": 2,
      "note": 80,
      "start": 6.0949,
      "duration": 0.4325,
      "velocity": 89,
      "chip": "ym2612"
    },
    {
      "channel": 0,
      "note": 82,
      "start": 6.2119,
      "duration": 0.6517,
      "velocity": 72,
      "chip": "ym2612"
    },
    {
      "channel": 5,
      "note": 75,
      "start": 6.4318,
      "duration": 0.3125,
      "velocity": 120,
      "chip": "ym2612"
    },
    {
      "channel": 0,
      "note": 79,
      "start": 6.8642,
      "duration": 0.4132,
      "velocity": 72,
      "chip": "ym2612"
    },
    {
      "channel": 1,
      "note": 75,
      "start": 6.8651,
      "duration": 0.1966,
      "velocity": 89,
      "chip": "ym2612"
    },
    {
      "channel": 3,
      "note": 63,
      "start": 6.8659,
      "duration": 0.849,
      "velocity": 102,
      "chip": "ym2612"
    },
    {
      "channel": 5,
      "note": 32,
      "start": 6.8668,
      "duration": 0.1282,
      "velocity": 114,
      "chip": "ym2612"
    },
    {
      "channel": 2,
      "note": 75,
      "start": 6.9615,
      "duration": 0.2162,
      "velocity": 89,
      "chip": "ym2612"
    },
    {
      "channel": 1,
      "note": 70,
      "start": 7.0622,
      "duration": 0.2161,
      "velocity": 89,
      "chip": "ym2612"
    },
    {
      "channel": 2,
      "note": 70,
      "start": 7.1783,
      "duration": 0.216,
      "velocity": 89,
      "chip": "ym2612"
    },
    {
      "channel": 0,
      "note": 82,
      "start": 7.2781,
      "duration": 0.4351,
      "velocity": 72,
      "chip": "ym2612"
    },
    {
      "channel": 1,
      "note": 75,
      "start": 7.2789,
      "duration": 0.2177,
      "velocity": 89,
      "chip": "ym2612"
    },
    {
      "channel": 2,
      "note": 75,
      "start": 7.3948,
      "duration": 0.2161,
      "velocity": 89,
      "chip": "ym2612"
    },
    {
      "channel": 1,
      "note": 79,
      "start": 7.4972,
      "duration": 0.2168,
      "velocity": 89,
      "chip": "ym2612"
    },
    {
      "channel": 5,
      "note": 32,
      "start": 7.4987,
      "duration": 0.1464,
      "velocity": 114,
      "chip": "ym2612"
    },
    {
      "channel": 2,
      "note": 79,
      "start": 7.6115,
      "duration": 0.216,
      "velocity": 89,
      "chip": "ym2612"
    },
    {
      "channel": 0,
      "note": 89,
      "start": 7.7138,
      "duration": 0.4327,
      "velocity": 72,
      "chip": "ym2612"
    },
    {
      "channel": 1,
      "note": 77,
      "start": 7.7145,
      "duration": 0.2137,
      "velocity": 89,
      "chip": "ym2612"
    },
    {
      "channel": 3,
      "note": 62,
      "start": 7.7156,
      "duration": 0.866,
      "velocity": 102,
      "chip": "ym2612"
    },
    {
      "channel": 5,
      "note": 32,
      "start": 7.7164,
      "duration": 0.1452,
      "velocity": 114,
      "chip": "ym2612"
    },
    {
      "channel": 2,
      "note": 77,
      "start": 7.8282,
      "duration": 0.2161,
      "velocity": 89,
      "chip": "ym2612"
    },
    {
      "channel": 1,
      "note": 70,
      "start": 7.9289,
      "duration": 0.2184,
      "velocity": 89,
      "chip": "ym2612"
    },
    {
      "channel": 2,
      "note": 70,
      "start": 8.0449,
      "duration": 0.1993,
      "velocity": 89,
      "chip": "ym2612"
    },
    {
      "channel": 0,
      "note": 86,
      "start": 8.1472,
      "duration": 0.214,
      "velocity": 72,
      "chip": "ym2612"
    },
    {
      "channel": 1,
      "note": 74,
      "start": 8.1479,
      "duration": 0.2141,
      "velocity": 89,
      "chip": "ym2612"
    },
    {
      "channel": 5,
      "note": 75,
      "start": 8.1493,
      "duration": 0.3127,
      "velocity": 120,
      "chip": "ym2612"
    },
    {
      "channel": 2,
      "note": 74,
      "start": 8.2448,
      "duration": 0.2161,
      "velocity": 89,
      "chip": "ym2612"
    },
    {
      "channel": 0,
      "note": 87,
      "start": 8.3618,
      "duration": 0.2183,
      "velocity": 72,
      "chip": "ym2612"
    },
    {
      "channel": 1,
      "note": 77,
      "start": 8.3626,
      "duration": 0.2179,
      "velocity": 89,
      "chip": "ym2612"
    },
    {
      "channel": 2,
      "note": 77,
      "start": 8.4615,
      "duration": 0.2158,
      "velocity": 89,
      "chip": "ym2612"
    },
    {
      "channel": 1,
      "note": 72,
      "start": 8.5811,
      "duration": 0.2135,
      "velocity": 89,
      "chip": "ym2612"
    },
    {
      "channel": 3,
      "note": 60,
      "start": 8.5821,
      "duration": 0.8495,
      "velocity": 102,
      "chip": "ym2612"
    },
    {
      "channel": 5,
      "note": 32,
      "start": 8.5829,
      "duration": 0.1284,
      "velocity": 114,
      "chip": "ym2612"
    },
    {
      "channel": 2,
      "note": 72,
      "start": 8.6779,
      "duration": 0.216,
      "velocity": 89,
      "chip": "ym2612"
    },
    {
      "channel": 1,
      "note": 67,
      "start": 8.7951,
      "duration": 0.2157,
      "velocity": 89,
      "chip": "ym2612"
    },
    {
      "channel": 2,
      "note": 67,
      "start": 8.8945,
      "duration": 0.2161,
      "velocity": 89,
      "chip": "ym2612"
    },
    {
      "channel": 1,
      "note": 72,
      "start": 9.0114,
      "duration": 0.2188,
      "velocity": 89,
      "chip": "ym2612"
    },
    {
      "channel": 2,
      "note": 72,
      "start": 9.1112,
      "duration": 0.2163,
      "velocity": 89,
      "chip": "ym2612"
    },
    {
      "channel": 0,
      "note": 87,
      "start": 9.2301,
      "duration": 0.1997,
      "velocity": 72,
      "chip": "ym2612"
    },
    {
      "channel": 1,
      "note": 75,
      "start": 9.2308,
      "duration": 0.1998,
      "velocity": 89,
      "chip": "ym2612"
    },
    {
      "channel": 5,
      "note": 32,
      "start": 9.2324,
      "duration": 0.1293,
      "velocity": 114,
      "chip": "ym2612"
    },
    {
      "channel": 2,
      "note": 75,
      "start": 9.3282,
      "duration": 0.2161,
      "velocity": 89,
      "chip": "ym2612"
    },
    {
      "channel": 0,
      "note": 86,
      "start": 9.4305,
      "duration": 0.214,
      "velocity": 72,
      "chip": "ym2612"
    },
    {
      "channel": 1,
      "note": 70,
      "start": 9.4312,
      "duration": 0.2141,
      "velocity": 89,
      "chip": "ym2612"
    },
    {
      "channel": 3,
      "note": 58,
      "start": 9.4322,
      "duration": 0.866,
      "velocity": 102,
      "chip": "ym2612"
    },
    {
      "channel": 5,
      "note": 32,
      "start": 9.4331,
      "duration": 0.1452,
      "velocity": 114,
      "chip": "ym2612"
    },
    {
      "channel": 2,
      "note": 70,
      "start": 9.5448,
      "duration": 0.2161,
      "velocity": 89,
      "chip": "ym2612"
    },
    {
      "channel": 0,
      "note": 84,
      "start": 9.6451,
      "duration": 0.218,
      "velocity": 72,
      "chip": "ym2612"
    },
    {
      "channel": 1,
      "note": 67,
      "start": 9.6459,
      "duration": 0.2181,
      "velocity": 89,
      "chip": "ym2612"
    },
    {
      "channel": 2,
      "note": 67,
      "start": 9.7615,
      "duration": 0.2161,
      "velocity": 89,
      "chip": "ym2612"
    },
    {
      "channel": 0,
      "note": 82,
      "start": 9.8638,
      "duration": 0.214,
      "velocity": 72,
      "chip": "ym2612"
    },
    {
      "channel": 1,
      "note": 70,
      "start": 9.8645,
      "duration": 0.2141,
      "velocity": 89,
      "chip": "ym2612"
    },
    {
      "channel": 5,
      "note": 75,
      "start": 9.8659,
      "duration": 0.3295,
      "velocity": 120,
      "chip": "ym2612"
    },
    {
      "channel": 2,
      "note": 70,
      "start": 9.9782,
      "duration": 0.2161,
      "velocity": 89,
      "chip": "ym2612"
    },
    {
      "channel": 0,
      "note": 84,
      "start": 10.0785,
      "duration": 0.2183,
      "velocity": 72,
      "chip": "ym2612"
    },
    {
      "channel": 1,
      "note": 75,
      "start": 10.0792,
      "duration": 0.2179,
      "velocity": 89,
      "chip": "ym2612"
    },
    {
      "channel": 2,
      "note": 75,
      "start": 10.1948,
      "duration": 0.2158,
      "velocity": 89,
      "chip": "ym2612"
    },
    {
      "channel": 1,
      "note": 69,
      "start": 10.2978,
      "duration": 0.2137,
      "velocity": 89,
      "chip": "ym2612"
    },
    {
      "channel": 3,
      "note": 57,
      "start": 10.2988,
      "duration": 0.8658,
      "velocity": 102,
      "chip": "ym2612"
    },
    {
      "channel": 5,
      "note": 32,
      "start": 10.2996,
      "duration": 0.1459,
      "velocity": 114,
      "chip": "ym2612"
    },
    {
      "channel": 2,
      "note": 69,
      "start": 10.4112,
      "duration": 0.1997,
      "velocity": 89,
      "chip": "ym2612"
    },
    {
      "channel": 0,
      "note": 79,
      "start": 10.4442,
      "duration": 0.2832,
      "velocity": 72,
      "chip": "ym2612"
    },
    {
      "channel": 1,
      "note": 65,
      "start": 10.5121,
      "duration": 0.2162,
      "velocity": 89,
      "chip": "ym2612"
    },
    {
      "channel": 2,
      "note": 65,
      "start": 10.6115,
      "duration": 0.2161,
      "velocity": 89,
      "chip": "ym2612"
    },
    {
      "channel": 0,
      "note": 77,
      "start": 10.7281,
      "duration": 0.218,
      "velocity": 72,
      "chip": "ym2612"
    },
    {
      "channel": 1,
      "note": 69,
      "start": 10.7289,
      "duration": 0.218,
      "velocity": 89,
      "chip": "ym2612"
    },
    {
      "channel": 2,
      "note": 69,
      "start": 10.8282,
      "duration": 0.2161,
      "velocity": 89,
      "chip": "ym2612"
    },
    {
      "channel": 0,
      "note": 75,
      "start": 10.9467,
      "duration": 0.2164,
      "velocity": 72,
      "chip": "ym2612"
    },
    {
      "channel": 1,
      "note": 72,
      "start": 10.9475,
      "duration": 0.216,
      "velocity": 89,
      "chip": "ym2612"
    },
    {
      "channel": 5,
      "note": 32,
      "start": 10.949,
      "duration": 0.1293,
      "velocity": 114,
      "chip": "ym2612"
    },
    {
      "channel": 2,
      "note": 72,
      "start": 11.0448,
      "duration": 0.2158,
      "velocity": 89,
      "chip": "ym2612"
    },
    {
      "channel": 1,
      "note": 69,
      "start": 11.1641,
      "duration": 0.2141,
      "velocity": 89,
      "chip": "ym2612"
    },
    {
      "channel": 3,
      "note": 60,
      "start": 11.1651,
      "duration": 0.8502,
      "velocity": 102,
      "chip": "ym2612"
    },
    {
      "channel": 5,
      "note": 32,
      "start": 11.1659,
      "duration": 0.1295,
      "velocity": 114,
      "chip": "ym2612"
    },
    {
      "channel": 2,
      "note": 69,
      "start": 11.2612,
      "duration": 0.2164,
      "velocity": 89,
      "chip": "ym2612"
    },
    {
      "channel": 0,
      "note": 75,
      "start": 11.2942,
      "duration": 0.3023,
      "velocity": 72,
      "chip": "ym2612"
    },
    {
      "channel": 1,
      "note": 65,
      "start": 11.3787,
      "duration": 0.2186,
      "velocity": 89,
      "chip": "ym2612"
    },
    {
      "channel": 2,
      "note": 65,
      "start": 11.4782,
      "duration": 0.216,
      "velocity": 89,
      "chip": "ym2612"
    },
    {
      "channel": 0,
      "note": 74,
      "start": 11.5972,
      "duration": 0.1973,
      "velocity": 72,
      "chip": "ym2612"
    },
    {
      "channel": 1,
      "note": 69,
      "start": 11.5979,
      "duration": 0.1975,
      "velocity": 89,
      "chip": "ym2612"
    },
    {
      "channel": 5,
      "note": 75,
      "start": 11.5993,
      "duration": 0.3127,
      "velocity": 120,
      "chip": "ym2612"
    },
    {
      "channel": 2,
      "note": 69,
      "start": 11.6948,
      "duration": 0.2161,
      "velocity": 89,
      "chip": "ym2612"
    },
    {
      "channel": 0,
      "note": 75,
      "start": 11.7951,
      "duration": 0.2183,
      "velocity": 72,
      "chip": "ym2612"
    },
    {
      "channel": 1,
      "note": 72,
      "start": 11.7959,
      "duration": 0.2184,
      "velocity": 89,
      "chip": "ym2612"
    },
    {
      "channel": 2,
      "note": 72,
      "start": 11.9115,
      "duration": 0.2161,
      "velocity": 89,
      "chip": "ym2612"
    },
    {
      "channel": 0,
      "note": 82,
      "start": 12.0141,
      "duration": 1.6461,
      "velocity": 72,
      "chip": "ym2612"
    },
    {
      "channel": 1,
      "note": 70,
      "start": 12.0149,
      "duration": 0.4296,
      "velocity": 89,
      "chip": "ym2612"
    },
    {
      "channel": 3,
      "note": 58,
      "start": 12.0159,
      "duration": 0.5783,
      "velocity": 102,
      "chip": "ym2612"
    },
    {
      "channel": 5,
      "note": 32,
      "start": 12.0168,
      "duration": 0.1449,
      "velocity": 114,
      "chip": "ym2612"
    },
    {
      "channel": 2,
      "note": 70,
      "start": 12.1282,
      "duration": 0.4326,
      "velocity": 89,
      "chip": "ym2612"
    },
    {
      "channel": 1,
      "note": 70,
      "start": 12.6638,
      "duration": 0.2165,
      "velocity": 89,
      "chip": "ym2612"
    },
    {
      "channel": 3,
      "note": 58,
      "start": 12.6646,
      "duration": 0.1468,
      "velocity": 102,
      "chip": "ym2612"
    },
    {
      "channel": 5,
      "note": 32,
      "start": 12.6654,
      "duration": 0.1463,
      "velocity": 114,
      "chip": "ym2612"
    },
    {
      "channel": 2,
      "note": 70,
      "start": 12.7782,
      "duration": 0.1994,
      "velocity": 89,
      "chip": "ym2612"
    },
    {
      "channel": 1,
      "note": 69,
      "start": 12.8809,
      "duration": 0.8667,
      "velocity": 89,
      "chip": "ym2612"
    },
    {
      "channel": 3,
      "note": 58,
      "start": 12.8819,
      "duration": 0.4324,
      "velocity": 102,
      "chip": "ym2612"
    },
    {
      "channel": 5,
      "note": 32,
      "start": 12.8827,
      "duration": 0.1457,
      "velocity": 114,
      "chip": "ym2612"
    },
    {
      "channel": 2,
      "note": 69,
      "start": 12.9783,
      "duration": 0.866,
      "velocity": 89,
      "chip": "ym2612"
    },
    {
      "channel": 5,
      "note": 75,
      "start": 13.3152,
      "duration": 0.313,
      "velocity": 120,
      "chip": "ym2612"
    },
    {
      "channel": 0,
      "note": 84,
      "start": 13.7475,
      "duration": 0.632,
      "velocity": 72,
      "chip": "ym2612"
    },
    {
      "channel": 1,
      "note": 68,
      "start": 13.7482,
      "duration": 0.1968,
      "velocity": 89,
      "chip": "ym2612"
    },
    {
      "channel": 3,
      "note": 56,
      "start": 13.7493,
      "duration": 1.282,
      "velocity": 102,
      "chip": "ym2612"
    },
    {
      "channel": 5,
      "note": 32,
      "start": 13.7501,
      "duration": 0.1282,
      "velocity": 114,
      "chip": "ym2612"
    },
    {
      "channel": 2,
      "note": 68,
      "start": 13.8448,
      "duration": 0.2162,
      "velocity": 89,
      "chip": "ym2612"
    },
    {
      "channel": 1,
      "note": 63,
      "start": 13.9455,
      "duration": 0.2157,
      "velocity": 89,
      "chip": "ym2612"
    },
    {
      "channel": 2,
      "note": 63,
      "start": 14.0616,
      "duration": 0.216,
      "velocity": 89,
      "chip": "ym2612"
    },
    {
      "channel": 1,
      "note": 68,
      "start": 14.1618,
      "duration": 0.2184,
      "velocity": 89,
      "chip": "ym2612"
    },
    {
      "channel": 2,
      "note": 68,
      "start": 14.2782,
      "duration": 0.216,
      "velocity": 89,
      "chip": "ym2612"
    },
    {
      "channel": 0,
      "note": 82,
      "start": 14.3801,
      "duration": 0.6498,
      "velocity": 72,
      "chip": "ym2612"
    },
    {
      "channel": 1,
      "note": 70,
      "start": 14.3808,
      "duration": 0.2162,
      "velocity": 89,
      "chip": "ym2612"
    },
    {
      "channel": 5,
      "note": 32,
      "start": 14.3824,
      "duration": 0.1459,
      "velocity": 114,
      "chip": "ym2612"
    },
    {
      "channel": 2,
      "note": 70,
      "start": 14.4948,
      "duration": 0.2161,
      "velocity": 89,
      "chip": "ym2612"
    },
    {
      "channel": 1,
      "note": 72,
      "start": 14.5976,
      "duration": 0.4331,
      "velocity": 89,
      "chip": "ym2612"
    },
    {
      "channel": 5,
      "note": 32,
      "start": 14.5991,
      "duration": 0.146,
      "velocity": 114,
      "chip": "ym2612"
    },
    {
      "channel": 2,
      "note": 72,
      "start": 14.7116,
      "duration": 0.4157,
      "velocity": 89,
      "chip": "ym2612"
    },
    {
      "channel": 0,
      "note": 80,
      "start": 15.0305,
      "duration": 0.433,
      "velocity": 72,
      "chip": "ym2612"
    },
    {
      "channel": 3,
      "note": 57,
      "start": 15.0319,
      "duration": 0.4332,
      "velocity": 102,
      "chip": "ym2612"
    },
    {
      "channel": 5,
      "note": 75,
      "start": 15.0327,
      "duration": 0.312,
      "velocity": 120,
      "chip": "ym2612"
    },
    {
      "channel": 0,
      "note": 86,
      "start": 15.4641,
      "duration": 0.6486,
      "velocity": 72,
      "chip": "ym2612"
    },
    {
      "channel": 1,
      "note": 70,
      "start": 15.4649,
      "duration": 0.2134,
      "velocity": 89,
      "chip": "ym2612"
    },
    {
      "channel": 3,
      "note": 58,
      "start": 15.4657,
      "duration": 1.7161,
      "velocity": 102,
      "chip": "ym2612"
    },
    {
      "channel": 5,
      "note": 32,
      "start": 15.4666,
      "duration": 0.1284,
      "velocity": 114,
      "chip": "ym2612"
    },
    {
      "channel": 2,
      "note": 70,
      "start": 15.5615,
      "duration": 0.2162,
      "velocity": 89,
      "chip": "ym2612"
    },
    {
      "channel": 1,
      "note": 65,
      "start": 15.6789,
      "duration": 0.2156,
      "velocity": 89,
      "chip": "ym2612"
    },
    {
      "channel": 2,
      "note": 65,
      "start": 15.7783,
      "duration": 0.2161,
      "velocity": 89,
      "chip": "ym2612"
    },
    {
      "channel": 1,
      "note": 70,
      "start": 15.8951,
      "duration": 0.2184,
      "velocity": 89,
      "chip": "ym2612"
    },
    {
      "channel": 2,
      "note": 70,
      "start": 15.9949,
      "duration": 0.216,
      "velocity": 89,
      "chip": "ym2612"
    },
    {
      "channel": 0,
      "note": 84,
      "start": 16.1135,
      "duration": 0.633,
      "velocity": 72,
      "chip": "ym2612"
    },
    {
      "channel": 1,
      "note": 72,
      "start": 16.1141,
      "duration": 0.1994,
      "velocity": 89,
      "chip": "ym2612"
    },
    {
      "channel": 5,
      "note": 32,
      "start": 16.1157,
      "duration": 0.1293,
      "velocity": 114,
      "chip": "ym2612"
    },
    {
      "channel": 2,
      "note": 72,
      "start": 16.2115,
      "duration": 0.2162,
      "velocity": 89,
      "chip": "ym2612"
    },
    {
      "channel": 1,
      "note": 74,
      "start": 16.3142,
      "duration": 0.4331,
      "velocity": 89,
      "chip": "ym2612"
    },
    {
      "channel": 5,
      "note": 32,
      "start": 16.3157,
      "duration": 0.1461,
      "velocity": 114,
      "chip": "ym2612"
    },
    {
      "channel": 2,
      "note": 74,
      "start": 16.4283,
      "duration": 0.4324,
      "velocity": 89,
      "chip": "ym2612"
    },
    {
      "channel": 0,
      "note": 82,
      "start": 16.7472,
      "duration": 0.433,
      "velocity": 72,
      "chip": "ym2612"
    },
    {
      "channel": 5,
      "note": 75,
      "start": 16.7489,
      "duration": 0.329,
      "velocity": 120,
      "chip": "ym2612"
    },
    {
      "channel": 0,
      "note": 86,
      "start": 17.1808,
      "duration": 0.6486,
      "velocity": 72,
      "chip": "ym2612"
    },
    {
      "channel": 1,
      "note": 71,
      "start": 17.1816,
      "duration": 0.2134,
      "velocity": 89,
      "chip": "ym2612"
    },
    {
      "channel": 3,
      "note": 55,
      "start": 17.1824,
      "duration": 1.2989,
      "velocity": 102,
      "chip": "ym2612"
    },
    {
      "channel": 5,
      "note": 32,
      "start": 17.1832,
      "duration": 0.1451,
      "velocity": 114,
      "chip": "ym2612"
    },
    {
      "channel": 2,
      "note": 71,
      "start": 17.2948,
      "duration": 0.1995,
      "velocity": 89,
      "chip": "ym2612"
    },
    {
      "channel": 1,
      "note": 67,
      "start": 17.3956,
      "duration": 0.2156,
      "velocity": 89,
      "chip": "ym2612"
    },
    {
      "channel": 2,
      "note": 67,
      "start": 17.4949,
      "duration": 0.216,
      "velocity": 89,
      "chip": "ym2612"
    },
    {
      "channel": 1,
      "note": 71,
      "start": 17.6118,
      "duration": 0.2184,
      "velocity": 89,
      "chip": "ym2612"
    },
    {
      "channel": 2,
      "note": 71,
      "start": 17.7115,
      "duration": 0.216,
      "velocity": 89,
      "chip": "ym2612"
    },
    {
      "channel": 0,
      "note": 84,
      "start": 17.8301,
      "duration": 0.6498,
      "velocity": 72,
      "chip": "ym2612"
    },
    {
      "channel": 1,
      "note": 72,
      "start": 17.8308,
      "duration": 0.2162,
      "velocity": 89,
      "chip": "ym2612"
    },
    {
      "channel": 5,
      "note": 32,
      "start": 17.8324,
      "duration": 0.1293,
      "velocity": 114,
      "chip": "ym2612"
    },
    {
      "channel": 2,
      "note": 72,
      "start": 17.9282,
      "duration": 0.2162,
      "velocity": 89,
      "chip": "ym2612"
    },
    {
      "channel": 1,
      "note": 74,
      "start": 18.0476,
      "duration": 0.4331,
      "velocity": 89,
      "chip": "ym2612"
    },
    {
      "channel": 5,
      "note": 32,
      "start": 18.0491,
      "duration": 0.1293,
      "velocity": 114,
      "chip": "ym2612"
    },
    {
      "channel": 2,
      "note": 74,
      "start": 18.1449,
      "duration": 0.4324,
      "velocity": 89,
      "chip": "ym2612"
    },
    {
      "channel": 0,
      "note": 83,
      "start": 18.4805,
      "duration": 0.4163,
      "velocity": 72,
      "chip": "ym2612"
    },
    {
      "channel": 3,
      "note": 59,
      "start": 18.4819,
      "duration": 0.4166,
      "velocity": 102,
      "chip": "ym2612"
    },
    {
      "channel": 5,
      "note": 75,
      "start": 18.4827,
      "duration": 0.312,
      "velocity": 120,
      "chip": "ym2612"
    },
    {
      "channel": 0,
      "note": 87,
      "start": 18.8975,
      "duration": 0.6486,
      "velocity": 72,
      "chip": "ym2612"
    },
    {
      "channel": 1,
      "note": 72,
      "start": 18.8983,
      "duration": 0.2134,
      "velocity": 89,
      "chip": "ym2612"
    },
    {
      "channel": 3,
      "note": 60,
      "start": 18.899,
      "duration": 1.7312,
      "velocity": 102,
      "chip": "ym2612"
    },
    {
      "channel": 5,
      "note": 32,
      "start": 18.8999,
      "duration": 0.145,
      "velocity": 114,
      "chip": "ym2612"
    },
    {
      "channel": 2,
      "note": 72,
      "start": 19.0115,
      "duration": 0.2161,
      "velocity": 89,
      "chip": "ym2612"
    },
    {
      "channel": 1,
      "note": 67,
      "start": 19.1122,
      "duration": 0.2156,
      "velocity": 89,
      "chip": "ym2612"
    },
    {
      "channel": 2,
      "note": 67,
      "start": 19.2282,
      "duration": 0.2161,
      "velocity": 89,
      "chip": "ym2612"
    },
    {
      "channel": 1,
      "note": 72,
      "start": 19.3285,
      "duration": 0.2184,
      "velocity": 89,
      "chip": "ym2612"
    },
    {
      "channel": 2,
      "note": 72,
      "start": 19.4449,
      "duration": 0.216,
      "velocity": 89,
      "chip": "ym2612"
    },
    {
      "channel": 0,
      "note": 86,
      "start": 19.5467,
      "duration": 0.6498,
      "velocity": 72,
      "chip": "ym2612"
    },
    {
      "channel": 1,
      "note": 74,
      "start": 19.5475,
      "duration": 0.2162,
      "velocity": 89,
      "chip": "ym2612"
    },
    {
      "channel": 5,
      "note": 32,
      "start": 19.549,
      "duration": 0.1459,
      "velocity": 114,
      "chip": "ym2612"
    },
    {
      "channel": 2,
      "note": 74,
      "start": 19.6615,
      "duration": 0.1995,
      "velocity": 89,
      "chip": "ym2612"
    },
    {
      "channel": 1,
      "note": 75,
      "start": 19.7642,
      "duration": 0.4331,
      "velocity": 89,
      "chip": "ym2612"
    },
    {
      "channel": 5,
      "note": 32,
      "start": 19.7658,
      "duration": 0.146,
      "velocity": 114,
      "chip": "ym2612"
    },
    {
      "channel": 2,
      "note": 75,
      "start": 19.8616,
      "duration": 0.4324,
      "velocity": 89,
      "chip": "ym2612"
    },
    {
      "channel": 0,
      "note": 84,
      "start": 20.1972,
      "duration": 0.4312,
      "velocity": 72,
      "chip": "ym2612"
    },
    {
      "channel": 5,
      "note": 75,
      "start": 20.1989,
      "duration": 0.3124,
      "velocity": 120,
      "chip": "ym2612"
    },
    {
      "channel": 0,
      "note": 86,
      "start": 20.629,
      "duration": 0.0479,
      "velocity": 72,
      "chip": "ym2612"
    },
    {
      "channel": 1,
      "note": 75,
      "start": 20.6298,
      "duration": 0.048,
      "velocity": 89,
      "chip": "ym2612"
    },
    {
      "channel": 0,
      "note": 89,
      "start": 20.6775,
      "duration": 0.066,
      "velocity": 72,
      "chip": "ym2612"
    },
    {
      "channel": 1,
      "note": 77,
      "start": 20.6783,
      "duration": 0.0661,
      "velocity": 89,
      "chip": "ym2612"
    },
    {
      "channel": 0,
      "note": 91,
      "start": 20.7442,
      "duration": 0.0494,
      "velocity": 72,
      "chip": "ym2612"
    },
    {
      "channel": 1,
      "note": 79,
      "start": 20.7449,
      "duration": 0.0494,
      "velocity": 89,
      "chip": "ym2612"
    },
    {
      "channel": 0,
      "note": 87,
      "start": 20.7942,
      "duration": 1.1993,
      "velocity": 72,
      "chip": "ym2612"
    },
    {
      "channel": 1,
      "note": 80,
      "start": 20.7949,
      "duration": 1.1989,
      "velocity": 89,
      "chip": "ym2612"
    },
    {
      "channel": 2,
      "note": 75,
      "start": 20.7956,
      "duration": 0.0653,
      "velocity": 89,
      "chip": "ym2612"
    },
    {
      "channel": 2,
      "note": 77,
      "start": 20.8615,
      "duration": 0.0661,
      "velocity": 89,
      "chip": "ym2612"
    },
    {
      "channel": 2,
      "note": 79,
      "start": 20.9282,
      "duration": 0.0521,
      "velocity": 89,
      "chip": "ym2612"
    },
    {
      "channel": 2,
      "note": 80,
      "start": 20.9808,
      "duration": 1.0015,
      "velocity": 109,
      "chip": "ym2612"
    },
    {
      "channel": 5,
      "note": 62,
      "start": 20.9819,
      "duration": 0.0949,
      "velocity": 117,
      "chip": "ym2612"
    },
    {
      "channel": 5,
      "note": 62,
      "start": 21.0815,
      "duration": 0.162,
      "velocity": 117,
      "chip": "ym2612"
    },
    {
      "channel": 5,
      "note": 62,
      "start": 21.2482,
      "duration": 0.1786,
      "velocity": 117,
      "chip": "ym2612"
    },
    {
      "channel": 5,
      "note": 59,
      "start": 21.4313,
      "duration": 0.0955,
      "velocity": 117,
      "chip": "ym2612"
    },
    {
      "channel": 5,
      "note": 59,
      "start": 21.5313,
      "duration": 0.0788,
      "velocity": 117,
      "chip": "ym2612"
    },
    {
      "channel": 5,
      "note": 59,
      "start": 21.6147,
      "duration": 0.0788,
      "velocity": 117,
      "chip": "ym2612"
    },
    {
      "channel": 5,
      "note": 54,
      "start": 21.6981,
      "duration": 0.1787,
      "velocity": 117,
      "chip": "ym2612"
    },
    {
      "channel": 5,
      "note": 54,
      "start": 21.8815,
      "duration": 0.0954,
      "velocity": 117,
      "chip": "ym2612"
    },
    {
      "channel": 5,
      "note": 54,
      "start": 21.9836,
      "duration": 0.0771,
      "velocity": 117,
      "chip": "ym2612"
    },
    {
      "channel": 0,
      "note": 67,
      "start": 22.0664,
      "duration": 0.1781,
      "velocity": 95,
      "chip": "ym2612"
    },
    {
      "channel": 2,
      "note": 55,
      "start": 22.068,
      "duration": 0.076,
      "velocity": 109,
      "chip": "ym2612"
    },
    {
      "channel": 3,
      "note": 63,
      "start": 22.0688,
      "duration": 0.1088,
      "velocity": 102,
      "chip": "ym2612"
    },
    {
      "channel": 5,
      "note": 32,
      "start": 22.0697,
      "duration": 0.2248,
      "velocity": 114,
      "chip": "ym2612"
    },
    {
      "channel": 2,
      "note": 55,
      "start": 22.1446,
      "duration": 0.1003,
      "velocity": 109,
      "chip": "ym2612"
    },
    {
      "channel": 2,
      "note": 55,
      "start": 22.2455,
      "duration": 0.0816,
      "velocity": 109,
      "chip": "ym2612"
    },
    {
      "channel": 3,
      "note": 63,
      "start": 22.2462,
      "duration": 0.1841,
      "velocity": 102,
      "chip": "ym2612"
    },
    {
      "channel": 2,
      "note": 55,
      "start": 22.3276,
      "duration": 0.1024,
      "velocity": 109,
      "chip": "ym2612"
    },
    {
      "channel": 5,
      "note": 75,
      "start": 22.4312,
      "duration": 0.346,
      "velocity": 120,
      "chip": "ym2612"
    },
    {
      "channel": 2,
      "note": 53,
      "start": 22.5109,
      "duration": 0.0845,
      "velocity": 109,
      "chip": "ym2612"
    },
    {
      "channel": 0,
      "note": 58,
      "start": 22.5951,
      "duration": 0.1847,
      "velocity": 95,
      "chip": "ym2612"
    },
    {
      "channel": 3,
      "note": 63,
      "start": 22.5963,
      "duration": 0.1314,
      "velocity": 102,
      "chip": "ym2612"
    },
    {
      "channel": 2,
      "note": 55,
      "start": 22.6955,
      "duration": 0.0848,
      "velocity": 109,
      "chip": "ym2612"
    },
    {
      "channel": 3,
      "note": 63,
      "start": 22.7812,
      "duration": 0.3663,
      "velocity": 102,
      "chip": "ym2612"
    },
    {
      "channel": 5,
      "note": 32,
      "start": 22.782,
      "duration": 0.2459,
      "velocity": 114,
      "chip": "ym2612"
    },
    {
      "channel": 0,
      "note": 58,
      "start": 22.9618,
      "duration": 0.1847,
      "velocity": 95,
      "chip": "ym2612"
    },
    {
      "channel": 0,
      "note": 63,
      "start": 23.1471,
      "duration": 0.0798,
      "velocity": 95,
      "chip": "ym2612"
    },
    {
      "channel": 5,
      "note": 75,
      "start": 23.1484,
      "duration": 0.3622,
      "velocity": 120,
      "chip": "ym2612"
    },
    {
      "channel": 0,
      "note": 67,
      "start": 23.2275,
      "duration": 0.2856,
      "velocity": 95,
      "chip": "ym2612"
    },
    {
      "channel": 0,
      "note": 68,
      "start": 23.5138,
      "duration": 0.1641,
      "velocity": 95,
      "chip": "ym2612"
    },
    {
      "channel": 2,
      "note": 56,
      "start": 23.5146,
      "duration": 0.0794,
      "velocity": 109,
      "chip": "ym2612"
    },
    {
      "channel": 3,
      "note": 63,
      "start": 23.5155,
      "duration": 0.1122,
      "velocity": 102,
      "chip": "ym2612"
    },
    {
      "channel": 5,
      "note": 32,
      "start": 23.5164,
      "duration": 0.228,
      "velocity": 114,
      "chip": "ym2612"
    },
    {
      "channel": 2,
      "note": 56,
      "start": 23.5946,
      "duration": 0.0837,
      "velocity": 109,
      "chip": "ym2612"
    },
    {
      "channel": 2,
      "note": 56,
      "start": 23.6788,
      "duration": 0.0983,
      "velocity": 109,
      "chip": "ym2612"
    },
    {
      "channel": 3,
      "note": 63,
      "start": 23.6795,
      "duration": 0.1841,
      "velocity": 102,
      "chip": "ym2612"
    },
    {
      "channel": 2,
      "note": 56,
      "start": 23.7776,
      "duration": 0.0857,
      "velocity": 109,
      "chip": "ym2612"
    },
    {
      "channel": 5,
      "note": 75,
      "start": 23.8645,
      "duration": 0.3627,
      "velocity": 120,
      "chip": "ym2612"
    },
    {
      "channel": 2,
      "note": 55,
      "start": 23.9609,
      "duration": 0.0838,
      "velocity": 109,
      "chip": "ym2612"
    },
    {
      "channel": 3,
      "note": 63,
      "start": 24.0456,
      "duration": 0.1151,
      "velocity": 102,
      "chip": "ym2612"
    },
    {
      "channel": 2,
      "note": 56,
      "start": 24.1285,
      "duration": 0.1022,
      "velocity": 109,
      "chip": "ym2612"
    },
    {
      "channel": 0,
      "note": 68,
      "start": 24.2305,
      "duration": 0.5323,
      "velocity": 95,
      "chip": "ym2612"
    },
    {
      "channel": 3,
      "note": 63,
      "start": 24.2316,
      "duration": 0.3489,
      "velocity": 102,
      "chip": "ym2612"
    },
    {
      "channel": 5,
      "note": 32,
      "start": 24.2325,
      "duration": 0.2288,
      "velocity": 114,
      "chip": "ym2612"
    },
    {
      "channel": 5,
      "note": 75,
      "start": 24.5813,
      "duration": 0.1788,
      "velocity": 120,
      "chip": "ym2612"
    },
    {
      "channel": 0,
      "note": 69,
      "start": 24.7635,
      "duration": 0.0993,
      "velocity": 95,
      "chip": "ym2612"
    },
    {
      "channel": 5,
      "note": 75,
      "start": 24.7644,
      "duration": 0.0957,
      "velocity": 120,
      "chip": "ym2612"
    },
    {
      "channel": 0,
      "note": 70,
      "start": 24.8634,
      "duration": 0.0832,
      "velocity": 95,
      "chip": "ym2612"
    },
    {
      "channel": 5,
      "note": 75,
      "start": 24.8644,
      "duration": 0.0794,
      "velocity": 120,
      "chip": "ym2612"
    },
    {
      "channel": 0,
      "note": 67,
      "start": 24.9472,
      "duration": 0.1806,
      "velocity": 95,
      "chip": "ym2612"
    },
    {
      "channel": 2,
      "note": 55,
      "start": 24.9485,
      "duration": 0.0955,
      "velocity": 109,
      "chip": "ym2612"
    },
    {
      "channel": 3,
      "note": 63,
      "start": 24.9494,
      "duration": 0.1116,
      "velocity": 102,
      "chip": "ym2612"
    },
    {
      "channel": 5,
      "note": 32,
      "start": 24.9502,
      "duration": 0.2442,
      "velocity": 114,
      "chip": "ym2612"
    },
    {
      "channel": 2,
      "note": 55,
      "start": 25.0446,
      "duration": 0.0837,
      "velocity": 109,
      "chip": "ym2612"
    },
    {
      "channel": 2,
      "note": 55,
      "start": 25.1288,
      "duration": 0.0816,
      "velocity": 109,
      "chip": "ym2612"
    },
    {
      "channel": 3,
      "note": 63,
      "start": 25.1295,
      "duration": 0.1841,
      "velocity": 102,
      "chip": "ym2612"
    },
    {
      "channel": 2,
      "note": 55,
      "start": 25.2109,
      "duration": 0.1024,
      "velocity": 109,
      "chip": "ym2612"
    },
    {
      "channel": 5,
      "note": 75,
      "start": 25.3145,
      "duration": 0.346,
      "velocity": 120,
      "chip": "ym2612"
    },
    {
      "channel": 2,
      "note": 53,
      "start": 25.3942,
      "duration": 0.1012,
      "velocity": 109,
      "chip": "ym2612"
    },
    {
      "channel": 0,
      "note": 58,
      "start": 25.4951,
      "duration": 0.168,
      "velocity": 95,
      "chip": "ym2612"
    },
    {
      "channel": 3,
      "note": 63,
      "start": 25.4963,
      "duration": 0.1147,
      "velocity": 102,
      "chip": "ym2612"
    },
    {
      "channel": 2,
      "note": 55,
      "start": 25.5789,
      "duration": 0.0847,
      "velocity": 109,
      "chip": "ym2612"
    },
    {
      "channel": 3,
      "note": 63,
      "start": 25.6645,
      "duration": 0.3663,
      "velocity": 102,
      "chip": "ym2612"
    },
    {
      "channel": 5,
      "note": 32,
      "start": 25.6653,
      "duration": 0.2459,
      "velocity": 114,
      "chip": "ym2612"
    },
    {
      "channel": 0,
      "note": 58,
      "start": 25.8451,
      "duration": 0.1847,
      "velocity": 95,
      "chip": "ym2612"
    },
    {
      "channel": 0,
      "note": 63,
      "start": 26.0305,
      "duration": 0.0798,
      "velocity": 95,
      "chip": "ym2612"
    },
    {
      "channel": 5,
      "note": 75,
      "start": 26.0317,
      "duration": 0.3622,
      "velocity": 120,
      "chip": "ym2612"
    },
    {
      "channel": 0,
      "note": 67,
      "start": 26.1109,
      "duration": 0.2856,
      "velocity": 95,
      "chip": "ym2612"
    },
    {
      "channel": 0,
      "note": 68,
      "start": 26.3971,
      "duration": 0.1641,
      "velocity": 95,
      "chip": "ym2612"
    },
    {
      "channel": 2,
      "note": 56,
      "start": 26.3979,
      "duration": 0.0794,
      "velocity": 109,
      "chip": "ym2612"
    },
    {
      "channel": 3,
      "note": 63,
      "start": 26.3988,
      "duration": 0.1122,
      "velocity": 102,
      "chip": "ym2612"
    },
    {
      "channel": 5,
      "note": 32,
      "start": 26.3997,
      "duration": 0.228,
      "velocity": 114,
      "chip": "ym2612"
    },
    {
      "channel": 2,
      "note": 56,
      "start": 26.4779,
      "duration": 0.0837,
      "velocity": 109,
      "chip": "ym2612"
    },
    {
      "channel": 2,
      "note": 56,
      "start": 26.5621,
      "duration": 0.0983,
      "velocity": 109,
      "chip": "ym2612"
    },
    {
      "channel": 3,
      "note": 63,
      "start": 26.5628,
      "duration": 0.1841,
      "velocity": 102,
      "chip": "ym2612"
    },
    {
      "channel": 2,
      "note": 56,
      "start": 26.6609,
      "duration": 0.0858,
      "velocity": 109,
      "chip": "ym2612"
    },
    {
      "channel": 5,
      "note": 75,
      "start": 26.7479,
      "duration": 0.3627,
      "velocity": 120,
      "chip": "ym2612"
    },
    {
      "channel": 2,
      "note": 55,
      "start": 26.8442,
      "duration": 0.0838,
      "velocity": 109,
      "chip": "ym2612"
    },
    {
      "channel": 3,
      "note": 63,
      "start": 26.9289,
      "duration": 0.1151,
      "velocity": 102,
      "chip": "ym2612"
    },
    {
      "channel": 2,
      "note": 56,
      "start": 27.0285,
      "duration": 0.0855,
      "velocity": 109,
      "chip": "ym2612"
    },
    {
      "channel": 0,
      "note": 68,
      "start": 27.1138,
      "duration": 0.5323,
      "velocity": 95,
      "chip": "ym2612"
    },
    {
      "channel": 3,
      "note": 63,
      "start": 27.1149,
      "duration": 0.3655,
      "velocity": 102,
      "chip": "ym2612"
    },
    {
      "channel": 5,
      "note": 32,
      "start": 27.1158,
      "duration": 0.2288,
      "velocity": 114,
      "chip": "ym2612"
    },
    {
      "channel": 5,
      "note": 75,
      "start": 27.4813,
      "duration": 0.1622,
      "velocity": 120,
      "chip": "ym2612"
    },
    {
      "channel": 0,
      "note": 69,
      "start": 27.6467,
      "duration": 0.0994,
      "velocity": 95,
      "chip": "ym2612"
    },
    {
      "channel": 5,
      "note": 75,
      "start": 27.6478,
      "duration": 0.0957,
      "velocity": 120,
      "chip": "ym2612"
    },
    {
      "channel": 0,
      "note": 70,
      "start": 27.7467,
      "duration": 0.0831,
      "velocity": 95,
      "chip": "ym2612"
    },
    {
      "channel": 5,
      "note": 75,
      "start": 27.7478,
      "duration": 0.0794,
      "velocity": 120,
      "chip": "ym2612"
    },
    {
      "channel": 0,
      "note": 67,
      "start": 27.8305,
      "duration": 0.366,
      "velocity": 95,
      "chip": "ym2612"
    },
    {
      "channel": 3,
      "note": 63,
      "start": 27.832,
      "duration": 0.112,
      "velocity": 102,
      "chip": "ym2612"
    },
    {
      "channel": 5,
      "note": 32,
      "start": 27.8329,
      "duration": 0.2452,
      "velocity": 114,
      "chip": "ym2612"
    },
    {
      "channel": 2,
      "note": 58,
      "start": 28.0122,
      "duration": 0.0818,
      "velocity": 109,
      "chip": "ym2612"
    },
    {
      "channel": 3,
      "note": 63,
      "start": 28.0129,
      "duration": 0.1847,
      "velocity": 102,
      "chip": "ym2612"
    },
    {
      "channel": 2,
      "note": 58,
      "start": 28.0946,
      "duration": 0.1027,
      "velocity": 109,
      "chip": "ym2612"
    },
    {
      "channel": 0,
      "note": 70,
      "start": 28.1972,
      "duration": 0.3493,
      "velocity": 95,
      "chip": "ym2612"
    },
    {
      "channel": 5,
      "note": 75,
      "start": 28.1986,
      "duration": 0.3452,
      "velocity": 120,
      "chip": "ym2612"
    },
    {
      "channel": 2,
      "note": 63,
      "start": 28.2779,
      "duration": 0.1005,
      "velocity": 109,
      "chip": "ym2612"
    },
    {
      "channel": 3,
      "note": 63,
      "start": 28.3792,
      "duration": 0.1152,
      "velocity": 102,
      "chip": "ym2612"
    },
    {
      "channel": 2,
      "note": 58,
      "start": 28.4622,
      "duration": 0.0851,
      "velocity": 109,
      "chip": "ym2612"
    },
    {
      "channel": 0,
      "note": 74,
      "start": 28.5472,
      "duration": 0.366,
      "velocity": 95,
      "chip": "ym2612"
    },
    {
      "channel": 3,
      "note": 62,
      "start": 28.5483,
      "duration": 0.3661,
      "velocity": 102,
      "chip": "ym2612"
    },
    {
      "channel": 5,
      "note": 32,
      "start": 28.5491,
      "duration": 0.2457,
      "velocity": 114,
      "chip": "ym2612"
    },
    {
      "channel": 2,
      "note": 58,
      "start": 28.7289,
      "duration": 0.0985,
      "velocity": 109,
      "chip": "ym2612"
    },
    {
      "channel": 2,
      "note": 58,
      "start": 28.828,
      "duration": 0.0861,
      "velocity": 109,
      "chip": "ym2612"
    },
    {
      "channel": 0,
      "note": 75,
      "start": 28.9138,
      "duration": 0.1807,
      "velocity": 95,
      "chip": "ym2612"
    },
    {
      "channel": 5,
      "note": 75,
      "start": 28.9153,
      "duration": 0.3619,
      "velocity": 120,
      "chip": "ym2612"
    },
    {
      "channel": 0,
      "note": 72,
      "start": 29.0951,
      "duration": 0.1847,
      "velocity": 95,
      "chip": "ym2612"
    },
    {
      "channel": 3,
      "note": 60,
      "start": 29.2812,
      "duration": 0.1127,
      "velocity": 102,
      "chip": "ym2612"
    },
    {
      "channel": 5,
      "note": 32,
      "start": 29.282,
      "duration": 0.2294,
      "velocity": 114,
      "chip": "ym2612"
    },
    {
      "channel": 0,
      "note": 67,
      "start": 29.4618,
      "duration": 0.168,
      "velocity": 95,
      "chip": "ym2612"
    },
    {
      "channel": 2,
      "note": 60,
      "start": 29.4626,
      "duration": 0.0814,
      "velocity": 109,
      "chip": "ym2612"
    },
    {
      "channel": 3,
      "note": 60,
      "start": 29.4633,
      "duration": 0.1677,
      "velocity": 102,
      "chip": "ym2612"
    },
    {
      "channel": 2,
      "note": 60,
      "start": 29.5446,
      "duration": 0.0861,
      "velocity": 109,
      "chip": "ym2612"
    },
    {
      "channel": 0,
      "note": 65,
      "start": 29.6305,
      "duration": 0.1807,
      "velocity": 95,
      "chip": "ym2612"
    },
    {
      "channel": 5,
      "note": 75,
      "start": 29.632,
      "duration": 0.3619,
      "velocity": 120,
      "chip": "ym2612"
    },
    {
      "channel": 2,
      "note": 63,
      "start": 29.7279,
      "duration": 0.0842,
      "velocity": 109,
      "chip": "ym2612"
    },
    {
      "channel": 0,
      "note": 63,
      "start": 29.8118,
      "duration": 0.1847,
      "velocity": 95,
      "chip": "ym2612"
    },
    {
      "channel": 3,
      "note": 60,
      "start": 29.8129,
      "duration": 0.1843,
      "velocity": 102,
      "chip": "ym2612"
    },
    {
      "channel": 2,
      "note": 60,
      "start": 29.9122,
      "duration": 0.0847,
      "velocity": 109,
      "chip": "ym2612"
    },
    {
      "channel": 3,
      "note": 58,
      "start": 29.9978,
      "duration": 0.3665,
      "velocity": 102,
      "chip": "ym2612"
    },
    {
      "channel": 5,
      "note": 32,
      "start": 29.9986,
      "duration": 0.2294,
      "velocity": 114,
      "chip": "ym2612"
    },
    {
      "channel": 0,
      "note": 63,
      "start": 30.1785,
      "duration": 0.1847,
      "velocity": 95,
      "chip": "ym2612"
    },
    {
      "channel": 2,
      "note": 60,
      "start": 30.1793,
      "duration": 0.0814,
      "velocity": 109,
      "chip": "ym2612"
    },
    {
      "channel": 2,
      "note": 60,
      "start": 30.2612,
      "duration": 0.1028,
      "velocity": 109,
      "chip": "ym2612"
    },
    {
      "channel": 0,
      "note": 62,
      "start": 30.3638,
      "duration": 0.1656,
      "velocity": 95,
      "chip": "ym2612"
    },
    {
      "channel": 5,
      "note": 75,
      "start": 30.3653,
      "duration": 0.1615,
      "velocity": 120,
      "chip": "ym2612"
    },
    {
      "channel": 0,
      "note": 63,
      "start": 30.5301,
      "duration": 0.183,
      "velocity": 95,
      "chip": "ym2612"
    },
    {
      "channel": 5,
      "note": 75,
      "start": 30.5311,
      "duration": 0.0957,
      "velocity": 120,
      "chip": "ym2612"
    },
    {
      "channel": 5,
      "note": 75,
      "start": 30.6306,
      "duration": 0.0798,
      "velocity": 120,
      "chip": "ym2612"
    },
    {
      "channel": 0,
      "note": 65,
      "start": 30.7137,
      "duration": 0.0298,
      "velocity": 95,
      "chip": "ym2612"
    },
    {
      "channel": 2,
      "note": 53,
      "start": 30.7148,
      "duration": 0.0963,
      "velocity": 109,
      "chip": "ym2612"
    },
    {
      "channel": 3,
      "note": 57,
      "start": 30.7155,
      "duration": 0.1126,
      "velocity": 102,
      "chip": "ym2612"
    },
    {
      "channel": 5,
      "note": 32,
      "start": 30.7163,
      "duration": 0.245,
      "velocity": 114,
      "chip": "ym2612"
    },
    {
      "channel": 0,
      "note": 67,
      "start": 30.7442,
      "duration": 0.0327,
      "velocity": 95,
      "chip": "ym2612"
    },
    {
      "channel": 0,
      "note": 68,
      "start": 30.7775,
      "duration": 0.0327,
      "velocity": 95,
      "chip": "ym2612"
    },
    {
      "channel": 0,
      "note": 69,
      "start": 30.8109,
      "duration": 0.016,
      "velocity": 95,
      "chip": "ym2612"
    },
    {
      "channel": 2,
      "note": 53,
      "start": 30.8117,
      "duration": 0.0833,
      "velocity": 109,
      "chip": "ym2612"
    },
    {
      "channel": 0,
      "note": 70,
      "start": 30.8275,
      "duration": 1.3381,
      "velocity": 106,
      "chip": "ym2612"
    },
    {
      "channel": 2,
      "note": 53,
      "start": 30.8955,
      "duration": 0.0818,
      "velocity": 109,
      "chip": "ym2612"
    },
    {
      "channel": 3,
      "note": 57,
      "start": 30.8962,
      "duration": 0.1845,
      "velocity": 102,
      "chip": "ym2612"
    },
    {
      "channel": 2,
      "note": 53,
      "start": 30.9779,
      "duration": 0.1025,
      "velocity": 109,
      "chip": "ym2612"
    },
    {
      "channel": 5,
      "note": 75,
      "start": 31.0816,
      "duration": 0.3623,
      "velocity": 120,
      "chip": "ym2612"
    },
    {
      "channel": 2,
      "note": 60,
      "start": 31.1613,
      "duration": 0.1004,
      "velocity": 109,
      "chip": "ym2612"
    },
    {
      "channel": 3,
      "note": 57,
      "start": 31.2626,
      "duration": 0.1152,
      "velocity": 102,
      "chip": "ym2612"
    },
    {
      "channel": 2,
      "note": 53,
      "start": 31.3456,
      "duration": 0.1014,
      "velocity": 109,
      "chip": "ym2612"
    },
    {
      "channel": 3,
      "note": 57,
      "start": 31.4479,
      "duration": 0.3494,
      "velocity": 102,
      "chip": "ym2612"
    },
    {
      "channel": 5,
      "note": 32,
      "start": 31.4488,
      "duration": 0.2293,
      "velocity": 114,
      "chip": "ym2612"
    },
    {
      "channel": 2,
      "note": 53,
      "start": 31.6122,
      "duration": 0.0985,
      "velocity": 109,
      "chip": "ym2612"
    },
    {
      "channel": 2,
      "note": 53,
      "start": 31.7113,
      "duration": 0.0858,
      "velocity": 109,
      "chip": "ym2612"
    },
    {
      "channel": 5,
      "note": 75,
      "start": 31.7983,
      "duration": 0.3623,
      "velocity": 120,
      "chip": "ym2612"
    },
    {
      "channel": 2,
      "note": 60,
      "start": 31.8947,
      "duration": 0.0837,
      "velocity": 109,
      "chip": "ym2612"
    },
    {
      "channel": 2,
      "note": 53,
      "start": 32.0613,
      "duration": 0.1074,
      "velocity": 109,
      "chip": "ym2612"
    },
    {
      "channel": 2,
      "note": 58,
      "start": 32.1693,
      "duration": 0.0745,
      "velocity": 109,
      "chip": "ym2612"
    },
    {
      "channel": 3,
      "note": 58,
      "start": 32.1701,
      "duration": 0.1073,
      "velocity": 102,
      "chip": "ym2612"
    },
    {
      "channel": 5,
      "note": 32,
      "start": 32.1709,
      "duration": 0.2241,
      "velocity": 114,
      "chip": "ym2612"
    },
    {
      "channel": 2,
      "note": 58,
      "start": 32.2443,
      "duration": 0.1017,
      "velocity": 109,
      "chip": "ym2612"
    },
    {
      "channel": 0,
      "note": 72,
      "start": 32.3451,
      "duration": 0.1151,
      "velocity": 106,
      "chip": "ym2612"
    },
    {
      "channel": 1,
      "note": 65,
      "start": 32.3459,
      "duration": 0.1146,
      "velocity": 106,
      "chip": "ym2612"
    },
    {
      "channel": 2,
      "note": 53,
      "start": 32.3466,
      "duration": 0.081,
      "velocity": 109,
      "chip": "ym2612"
    },
    {
      "channel": 3,
      "note": 58,
      "start": 32.3473,
      "duration": 0.1677,
      "velocity": 102,
      "chip": "ym2612"
    },
    {
      "channel": 2,
      "note": 58,
      "start": 32.4282,
      "duration": 0.0865,
      "velocity": 109,
      "chip": "ym2612"
    },
    {
      "channel": 0,
      "note": 72,
      "start": 32.5138,
      "duration": 0.1807,
      "velocity": 106,
      "chip": "ym2612"
    },
    {
      "channel": 1,
      "note": 65,
      "start": 32.5145,
      "duration": 0.1293,
      "velocity": 106,
      "chip": "ym2612"
    },
    {
      "channel": 5,
      "note": 75,
      "start": 32.5159,
      "duration": 0.3613,
      "velocity": 120,
      "chip": "ym2612"
    },
    {
      "channel": 0,
      "note": 70,
      "start": 32.6951,
      "duration": 0.1871,
      "velocity": 95,
      "chip": "ym2612"
    },
    {
      "channel": 1,
      "note": 65,
      "start": 32.6959,
      "duration": 0.1867,
      "velocity": 106,
      "chip": "ym2612"
    },
    {
      "channel": 2,
      "note": 65,
      "start": 32.6966,
      "duration": 0.0986,
      "velocity": 109,
      "chip": "ym2612"
    },
    {
      "channel": 3,
      "note": 58,
      "start": 32.6973,
      "duration": 0.1139,
      "velocity": 102,
      "chip": "ym2612"
    },
    {
      "channel": 2,
      "note": 58,
      "start": 32.7958,
      "duration": 0.0871,
      "velocity": 109,
      "chip": "ym2612"
    },
    {
      "channel": 3,
      "note": 58,
      "start": 32.8838,
      "duration": 0.3632,
      "velocity": 102,
      "chip": "ym2612"
    },
    {
      "channel": 5,
      "note": 32,
      "start": 32.8846,
      "duration": 0.2265,
      "velocity": 114,
      "chip": "ym2612"
    },
    {
      "channel": 2,
      "note": 58,
      "start": 33.0619,
      "duration": 0.0818,
      "velocity": 109,
      "chip": "ym2612"
    },
    {
      "channel": 2,
      "note": 58,
      "start": 33.1443,
      "duration": 0.1024,
      "velocity": 109,
      "chip": "ym2612"
    },
    {
      "channel": 5,
      "note": 75,
      "start": 33.2479,
      "duration": 0.179,
      "velocity": 120,
      "chip": "ym2612"
    },
    {
      "channel": 2,
      "note": 65,
      "start": 33.3278,
      "duration": 0.1018,
      "velocity": 109,
      "chip": "ym2612"
    },
    {
      "channel": 5,
      "note": 75,
      "start": 33.4306,
      "duration": 0.0796,
      "velocity": 120,
      "chip": "ym2612"
    },
    {
      "channel": 2,
      "note": 58,
      "start": 33.5135,
      "duration": 0.0842,
      "velocity": 109,
      "chip": "ym2612"
    },
    {
      "channel": 5,
      "note": 75,
      "start": 33.5144,
      "duration": 0.0795,
      "velocity": 120,
      "chip": "ym2612"
    },
    {
      "channel": 0,
      "note": 67,
      "start": 33.5972,
      "duration": 0.1807,
      "velocity": 95,
      "chip": "ym2612"
    },
    {
      "channel": 2,
      "note": 55,
      "start": 33.5983,
      "duration": 0.0957,
      "velocity": 109,
      "chip": "ym2612"
    },
    {
      "channel": 3,
      "note": 63,
      "start": 33.5992,
      "duration": 0.1284,
      "velocity": 102,
      "chip": "ym2612"
    },
    {
      "channel": 5,
      "note": 32,
      "start": 33.6001,
      "duration": 0.2443,
      "velocity": 114,
      "chip": "ym2612"
    },
    {
      "channel": 2,
      "note": 55,
      "start": 33.6946,
      "duration": 0.0837,
      "velocity": 109,
      "chip": "ym2612"
    },
    {
      "channel": 2,
      "note": 55,
      "start": 33.7788,
      "duration": 0.0983,
      "velocity": 109,
      "chip": "ym2612"
    },
    {
      "channel": 3,
      "note": 63,
      "start": 33.7795,
      "duration": 0.1841,
      "velocity": 102,
      "chip": "ym2612"
    },
    {
      "channel": 2,
      "note": 55,
      "start": 33.8776,
      "duration": 0.0858,
      "velocity": 109,
      "chip": "ym2612"
    },
    {
      "channel": 5,
      "note": 75,
      "start": 33.9645,
      "duration": 0.3627,
      "velocity": 120,
      "chip": "ym2612"
    },
    {
      "channel": 2,
      "note": 53,
      "start": 34.0442,
      "duration": 0.1012,
      "velocity": 109,
      "chip": "ym2612"
    },
    {
      "channel": 0,
      "note": 58,
      "start": 34.1451,
      "duration": 0.1847,
      "velocity": 95,
      "chip": "ym2612"
    },
    {
      "channel": 3,
      "note": 63,
      "start": 34.1463,
      "duration": 0.1147,
      "velocity": 102,
      "chip": "ym2612"
    },
    {
      "channel": 2,
      "note": 55,
      "start": 34.2288,
      "duration": 0.1015,
      "velocity": 109,
      "chip": "ym2612"
    },
    {
      "channel": 3,
      "note": 63,
      "start": 34.3312,
      "duration": 0.3496,
      "velocity": 102,
      "chip": "ym2612"
    },
    {
      "channel": 5,
      "note": 32,
      "start": 34.332,
      "duration": 0.2292,
      "velocity": 114,
      "chip": "ym2612"
    },
    {
      "channel": 0,
      "note": 58,
      "start": 34.4951,
      "duration": 0.1847,
      "velocity": 95,
      "chip": "ym2612"
    },
    {
      "channel": 0,
      "note": 63,
      "start": 34.6805,
      "duration": 0.0964,
      "velocity": 95,
      "chip": "ym2612"
    },
    {
      "channel": 5,
      "note": 75,
      "start": 34.6817,
      "duration": 0.3622,
      "velocity": 120,
      "chip": "ym2612"
    },
    {
      "channel": 0,
      "note": 67,
      "start": 34.7775,
      "duration": 0.269,
      "velocity": 95,
      "chip": "ym2612"
    },
    {
      "channel": 0,
      "note": 68,
      "start": 35.0471,
      "duration": 0.1807,
      "velocity": 95,
      "chip": "ym2612"
    },
    {
      "channel": 2,
      "note": 56,
      "start": 35.0479,
      "duration": 0.0794,
      "velocity": 109,
      "chip": "ym2612"
    },
    {
      "channel": 3,
      "note": 63,
      "start": 35.0488,
      "duration": 0.1122,
      "velocity": 102,
      "chip": "ym2612"
    },
    {
      "channel": 5,
      "note": 32,
      "start": 35.0497,
      "duration": 0.228,
      "velocity": 114,
      "chip": "ym2612"
    },
    {
      "channel": 2,
      "note": 56,
      "start": 35.1279,
      "duration": 0.1003,
      "velocity": 109,
      "chip": "ym2612"
    },
    {
      "channel": 2,
      "note": 56,
      "start": 35.2288,
      "duration": 0.0816,
      "velocity": 109,
      "chip": "ym2612"
    },
    {
      "channel": 3,
      "note": 63,
      "start": 35.2295,
      "duration": 0.1675,
      "velocity": 102,
      "chip": "ym2612"
    },
    {
      "channel": 2,
      "note": 56,
      "start": 35.311,
      "duration": 0.0857,
      "velocity": 109,
      "chip": "ym2612"
    },
    {
      "channel": 5,
      "note": 75,
      "start": 35.3979,
      "duration": 0.3627,
      "velocity": 120,
      "chip": "ym2612"
    },
    {
      "channel": 2,
      "note": 55,
      "start": 35.4943,
      "duration": 0.0837,
      "velocity": 109,
      "chip": "ym2612"
    },
    {
      "channel": 3,
      "note": 63,
      "start": 35.5789,
      "duration": 0.1318,
      "velocity": 102,
      "chip": "ym2612"
    },
    {
      "channel": 2,
      "note": 56,
      "start": 35.6785,
      "duration": 0.0855,
      "velocity": 109,
      "chip": "ym2612"
    },
    {
      "channel": 0,
      "note": 68,
      "start": 35.7638,
      "duration": 0.549,
      "velocity": 95,
      "chip": "ym2612"
    },
    {
      "channel": 3,
      "note": 63,
      "start": 35.7649,
      "duration": 0.3655,
      "velocity": 102,
      "chip": "ym2612"
    },
    {
      "channel": 5,
      "note": 32,
      "start": 35.7658,
      "duration": 0.2454,
      "velocity": 114,
      "chip": "ym2612"
    },
    {
      "channel": 5,
      "note": 75,
      "start": 36.1313,
      "duration": 0.1788,
      "velocity": 120,
      "chip": "ym2612"
    },
    {
      "channel": 0,
      "note": 69,
      "start": 36.3134,
      "duration": 0.0827,
      "velocity": 95,
      "chip": "ym2612"
    },
    {
      "channel": 5,
      "note": 75,
      "start": 36.3144,
      "duration": 0.0791,
      "velocity": 120,
      "chip": "ym2612"
    },
    {
      "channel": 0,
      "note": 70,
      "start": 36.3968,
      "duration": 0.0831,
      "velocity": 95,
      "chip": "ym2612"
    },
    {
      "channel": 5,
      "note": 75,
      "start": 36.3978,
      "duration": 0.0794,
      "velocity": 120,
      "chip": "ym2612"
    },
    {
      "channel": 0,
      "note": 67,
      "start": 36.4806,
      "duration": 0.1806,
      "velocity": 95,
      "chip": "ym2612"
    },
    {
      "channel": 2,
      "note": 55,
      "start": 36.4818,
      "duration": 0.0955,
      "velocity": 109,
      "chip": "ym2612"
    },
    {
      "channel": 3,
      "note": 63,
      "start": 36.4827,
      "duration": 0.1282,
      "velocity": 102,
      "chip": "ym2612"
    },
    {
      "channel": 5,
      "note": 32,
      "start": 36.4836,
      "duration": 0.2442,
      "velocity": 114,
      "chip": "ym2612"
    },
    {
      "channel": 2,
      "note": 55,
      "start": 36.5779,
      "duration": 0.0837,
      "velocity": 109,
      "chip": "ym2612"
    },
    {
      "channel": 2,
      "note": 55,
      "start": 36.6621,
      "duration": 0.0983,
      "velocity": 109,
      "chip": "ym2612"
    },
    {
      "channel": 3,
      "note": 63,
      "start": 36.6628,
      "duration": 0.1841,
      "velocity": 102,
      "chip": "ym2612"
    },
    {
      "channel": 2,
      "note": 55,
      "start": 36.761,
      "duration": 0.0857,
      "velocity": 109,
      "chip": "ym2612"
    },
    {
      "channel": 5,
      "note": 75,
      "start": 36.8479,
      "duration": 0.3627,
      "velocity": 120,
      "chip": "ym2612"
    },
    {
      "channel": 2,
      "note": 53,
      "start": 36.9276,
      "duration": 0.1012,
      "velocity": 109,
      "chip": "ym2612"
    },
    {
      "channel": 0,
      "note": 58,
      "start": 37.0285,
      "duration": 0.1847,
      "velocity": 95,
      "chip": "ym2612"
    },
    {
      "channel": 3,
      "note": 63,
      "start": 37.0296,
      "duration": 0.1147,
      "velocity": 102,
      "chip": "ym2612"
    },
    {
      "channel": 2,
      "note": 55,
      "start": 37.1122,
      "duration": 0.1014,
      "velocity": 109,
      "chip": "ym2612"
    },
    {
      "channel": 3,
      "note": 63,
      "start": 37.2145,
      "duration": 0.3496,
      "velocity": 102,
      "chip": "ym2612"
    },
    {
      "channel": 5,
      "note": 32,
      "start": 37.2153,
      "duration": 0.2292,
      "velocity": 114,
      "chip": "ym2612"
    },
    {
      "channel": 0,
      "note": 58,
      "start": 37.3785,
      "duration": 0.1847,
      "velocity": 95,
      "chip": "ym2612"
    },
    {
      "channel": 0,
      "note": 63,
      "start": 37.5638,
      "duration": 0.0964,
      "velocity": 95,
      "chip": "ym2612"
    },
    {
      "channel": 5,
      "note": 75,
      "start": 37.5651,
      "duration": 0.3622,
      "velocity": 120,
      "chip": "ym2612"
    },
    {
      "channel": 0,
      "note": 67,
      "start": 37.6609,
      "duration": 0.269,
      "velocity": 95,
      "chip": "ym2612"
    },
    {
      "channel": 0,
      "note": 68,
      "start": 37.9305,
      "duration": 0.1807,
      "velocity": 95,
      "chip": "ym2612"
    },
    {
      "channel": 2,
      "note": 56,
      "start": 37.9313,
      "duration": 0.0794,
      "velocity": 109,
      "chip": "ym2612"
    },
    {
      "channel": 3,
      "note": 63,
      "start": 37.9322,
      "duration": 0.1122,
      "velocity": 102,
      "chip": "ym2612"
    },
    {
      "channel": 5,
      "note": 32,
      "start": 37.9331,
      "duration": 0.228,
      "velocity": 114,
      "chip": "ym2612"
    },
    {
      "channel": 2,
      "note": 56,
      "start": 38.0112,
      "duration": 0.1003,
      "velocity": 109,
      "chip": "ym2612"
    },
    {
      "channel": 2,
      "note": 56,
      "start": 38.1121,
      "duration": 0.0816,
      "velocity": 109,
      "chip": "ym2612"
    },
    {
      "channel": 3,
      "note": 63,
      "start": 38.1128,
      "duration": 0.1841,
      "velocity": 102,
      "chip": "ym2612"
    },
    {
      "channel": 2,
      "note": 56,
      "start": 38.1943,
      "duration": 0.1024,
      "velocity": 109,
      "chip": "ym2612"
    },
    {
      "channel": 5,
      "note": 75,
      "start": 38.2979,
      "duration": 0.346,
      "velocity": 120,
      "chip": "ym2612"
    },
    {
      "channel": 2,
      "note": 55,
      "start": 38.3776,
      "duration": 0.0838,
      "velocity": 109,
      "chip": "ym2612"
    },
    {
      "channel": 3,
      "note": 63,
      "start": 38.4622,
      "duration": 0.1318,
      "velocity": 102,
      "chip": "ym2612"
    },
    {
      "channel": 2,
      "note": 56,
      "start": 38.5619,
      "duration": 0.0855,
      "velocity": 109,
      "chip": "ym2612"
    },
    {
      "channel": 0,
      "note": 68,
      "start": 38.6471,
      "duration": 0.549,
      "velocity": 95,
      "chip": "ym2612"
    },
    {
      "channel": 3,
      "note": 63,
      "start": 38.6483,
      "duration": 0.3655,
      "velocity": 102,
      "chip": "ym2612"
    },
    {
      "channel": 5,
      "note": 32,
      "start": 38.6491,
      "duration": 0.2454,
      "velocity": 114,
      "chip": "ym2612"
    },
    {
      "channel": 5,
      "note": 75,
      "start": 39.0147,
      "duration": 0.1788,
      "velocity": 120,
      "chip": "ym2612"
    },
    {
      "channel": 0,
      "note": 69,
      "start": 39.1967,
      "duration": 0.0827,
      "velocity": 95,
      "chip": "ym2612"
    },
    {
      "channel": 5,
      "note": 75,
      "start": 39.1978,
      "duration": 0.0791,
      "velocity": 120,
      "chip": "ym2612"
    },
    {
      "channel": 0,
      "note": 70,
      "start": 39.2801,
      "duration": 0.0831,
      "velocity": 95,
      "chip": "ym2612"
    },
    {
      "channel": 5,
      "note": 75,
      "start": 39.2811,
      "duration": 0.0794,
      "velocity": 120,
      "chip": "ym2612"
    },
    {
      "channel": 0,
      "note": 67,
      "start": 39.3638,
      "duration": 0.366,
      "velocity": 95,
      "chip": "ym2612"
    },
    {
      "channel": 3,
      "note": 63,
      "start": 39.3654,
      "duration": 0.1287,
      "velocity": 102,
      "chip": "ym2612"
    },
    {
      "channel": 5,
      "note": 32,
      "start": 39.3663,
      "duration": 0.2452,
      "velocity": 114,
      "chip": "ym2612"
    },
    {
      "channel": 2,
      "note": 58,
      "start": 39.5456,
      "duration": 0.0985,
      "velocity": 109,
      "chip": "ym2612"
    },
    {
      "channel": 3,
      "note": 63,
      "start": 39.5463,
      "duration": 0.1847,
      "velocity": 102,
      "chip": "ym2612"
    },
    {
      "channel": 2,
      "note": 58,
      "start": 39.6446,
      "duration": 0.0861,
      "velocity": 109,
      "chip": "ym2612"
    },
    {
      "channel": 0,
      "note": 70,
      "start": 39.7305,
      "duration": 0.366,
      "velocity": 95,
      "chip": "ym2612"
    },
    {
      "channel": 5,
      "note": 75,
      "start": 39.732,
      "duration": 0.3619,
      "velocity": 120,
      "chip": "ym2612"
    },
    {
      "channel": 2,
      "note": 63,
      "start": 39.8279,
      "duration": 0.0838,
      "velocity": 109,
      "chip": "ym2612"
    },
    {
      "channel": 3,
      "note": 65,
      "start": 39.9126,
      "duration": 0.1851,
      "velocity": 102,
      "chip": "ym2612"
    },
    {
      "channel": 2,
      "note": 58,
      "start": 39.9956,
      "duration": 0.1018,
      "velocity": 109,
      "chip": "ym2612"
    },
    {
      "channel": 0,
      "note": 74,
      "start": 40.0972,
      "duration": 0.3493,
      "velocity": 95,
      "chip": "ym2612"
    },
    {
      "channel": 3,
      "note": 67,
      "start": 40.0983,
      "duration": 0.3492,
      "velocity": 102,
      "chip": "ym2612"
    },
    {
      "channel": 5,
      "note": 32,
      "start": 40.0991,
      "duration": 0.2288,
      "velocity": 114,
      "chip": "ym2612"
    },
    {
      "channel": 0,
      "note": 75,
      "start": 40.4472,
      "duration": 0.1807,
      "velocity": 95,
      "chip": "ym2612"
    },
    {
      "channel": 5,
      "note": 75,
      "start": 40.4484,
      "duration": 0.3622,
      "velocity": 120,
      "chip": "ym2612"
    },
    {
      "channel": 0,
      "note": 72,
      "start": 40.6285,
      "duration": 0.1847,
      "velocity": 95,
      "chip": "ym2612"
    },
    {
      "channel": 2,
      "note": 63,
      "start": 40.8141,
      "duration": 0.0796,
      "velocity": 109,
      "chip": "ym2612"
    },
    {
      "channel": 3,
      "note": 68,
      "start": 40.8149,
      "duration": 0.1125,
      "velocity": 102,
      "chip": "ym2612"
    },
    {
      "channel": 5,
      "note": 32,
      "start": 40.8157,
      "duration": 0.2288,
      "velocity": 114,
      "chip": "ym2612"
    },
    {
      "channel": 2,
      "note": 63,
      "start": 40.8943,
      "duration": 0.1003,
      "velocity": 109,
      "chip": "ym2612"
    },
    {
      "channel": 2,
      "note": 63,
      "start": 40.9952,
      "duration": 0.0819,
      "velocity": 109,
      "chip": "ym2612"
    },
    {
      "channel": 3,
      "note": 68,
      "start": 40.996,
      "duration": 0.1844,
      "velocity": 102,
      "chip": "ym2612"
    },
    {
      "channel": 2,
      "note": 63,
      "start": 41.0776,
      "duration": 0.1024,
      "velocity": 109,
      "chip": "ym2612"
    },
    {
      "channel": 5,
      "note": 75,
      "start": 41.1812,
      "duration": 0.346,
      "velocity": 120,
      "chip": "ym2612"
    },
    {
      "channel": 2,
      "note": 63,
      "start": 41.261,
      "duration": 0.0837,
      "velocity": 109,
      "chip": "ym2612"
    },
    {
      "channel": 3,
      "note": 69,
      "start": 41.3456,
      "duration": 0.1851,
      "velocity": 102,
      "chip": "ym2612"
    },
    {
      "channel": 2,
      "note": 63,
      "start": 41.4452,
      "duration": 0.0848,
      "velocity": 109,
      "chip": "ym2612"
    },
    {
      "channel": 2,
      "note": 65,
      "start": 41.5306,
      "duration": 0.0965,
      "velocity": 109,
      "chip": "ym2612"
    },
    {
      "channel": 3,
      "note": 70,
      "start": 41.5313,
      "duration": 0.3662,
      "velocity": 102,
      "chip": "ym2612"
    },
    {
      "channel": 5,
      "note": 32,
      "start": 41.5322,
      "duration": 0.2457,
      "velocity": 114,
      "chip": "ym2612"
    },
    {
      "channel": 0,
      "note": 74,
      "start": 41.7118,
      "duration": 0.1847,
      "velocity": 95,
      "chip": "ym2612"
    },
    {
      "channel": 0,
      "note": 72,
      "start": 41.8972,
      "duration": 0.1823,
      "velocity": 95,
      "chip": "ym2612"
    },
    {
      "channel": 5,
      "note": 75,
      "start": 41.8984,
      "duration": 0.1784,
      "velocity": 120,
      "chip": "ym2612"
    },
    {
      "channel": 0,
      "note": 74,
      "start": 42.0801,
      "duration": 0.1828,
      "velocity": 95,
      "chip": "ym2612"
    },
    {
      "channel": 5,
      "note": 75,
      "start": 42.0811,
      "duration": 0.0791,
      "velocity": 120,
      "chip": "ym2612"
    },
    {
      "channel": 5,
      "note": 75,
      "start": 42.164,
      "duration": 0.0964,
      "velocity": 120,
      "chip": "ym2612"
    },
    {
      "channel": 0,
      "note": 72,
      "start": 42.2637,
      "duration": 0.0132,
      "velocity": 95,
      "chip": "ym2612"
    },
    {
      "channel": 2,
      "note": 58,
      "start": 42.2648,
      "duration": 0.0792,
      "velocity": 109,
      "chip": "ym2612"
    },
    {
      "channel": 3,
      "note": 63,
      "start": 42.2656,
      "duration": 0.112,
      "velocity": 102,
      "chip": "ym2612"
    },
    {
      "channel": 5,
      "note": 32,
      "start": 42.2664,
      "duration": 0.2284,
      "velocity": 114,
      "chip": "ym2612"
    },
    {
      "channel": 0,
      "note": 74,
      "start": 42.2775,
      "duration": 0.0327,
      "velocity": 95,
      "chip": "ym2612"
    },
    {
      "channel": 0,
      "note": 75,
      "start": 42.3109,
      "duration": 1.388,
      "velocity": 106,
      "chip": "ym2612"
    },
    {
      "channel": 2,
      "note": 58,
      "start": 42.3446,
      "duration": 0.0837,
      "velocity": 109,
      "chip": "ym2612"
    },
    {
      "channel": 2,
      "note": 58,
      "start": 42.4288,
      "duration": 0.0987,
      "velocity": 109,
      "chip": "ym2612"
    },
    {
      "channel": 3,
      "note": 63,
      "start": 42.4295,
      "duration": 0.1845,
      "velocity": 102,
      "chip": "ym2612"
    },
    {
      "channel": 2,
      "note": 58,
      "start": 42.528,
      "duration": 0.0857,
      "velocity": 109,
      "chip": "ym2612"
    },
    {
      "channel": 5,
      "note": 75,
      "start": 42.6149,
      "duration": 0.3623,
      "velocity": 120,
      "chip": "ym2612"
    },
    {
      "channel": 2,
      "note": 63,
      "start": 42.7113,
      "duration": 0.0837,
      "velocity": 109,
      "chip": "ym2612"
    },
    {
      "channel": 3,
      "note": 63,
      "start": 42.7959,
      "duration": 0.1152,
      "velocity": 102,
      "chip": "ym2612"
    },
    {
      "channel": 2,
      "note": 58,
      "start": 42.8789,
      "duration": 0.1015,
      "velocity": 109,
      "chip": "ym2612"
    },
    {
      "channel": 3,
      "note": 63,
      "start": 42.9813,
      "duration": 0.3492,
      "velocity": 102,
      "chip": "ym2612"
    },
    {
      "channel": 5,
      "note": 32,
      "start": 42.9821,
      "duration": 0.2291,
      "velocity": 114,
      "chip": "ym2612"
    },
    {
      "channel": 5,
      "note": 75,
      "start": 43.3314,
      "duration": 0.3625,
      "velocity": 120,
      "chip": "ym2612"
    },
    {
      "channel": 2,
      "note": 58,
      "start": 43.7004,
      "duration": 0.0793,
      "velocity": 109,
      "chip": "ym2612"
    },
    {
      "channel": 3,
      "note": 63,
      "start": 43.7012,
      "duration": 0.1095,
      "velocity": 102,
      "chip": "ym2612"
    },
    {
      "channel": 5,
      "note": 62,
      "start": 43.7023,
      "duration": 0.0746,
      "velocity": 117,
      "chip": "ym2612"
    },
    {
      "channel": 2,
      "note": 58,
      "start": 43.7802,
      "duration": 0.1008,
      "velocity": 109,
      "chip": "ym2612"
    },
    {
      "channel": 5,
      "note": 62,
      "start": 43.7815,
      "duration": 0.0953,
      "velocity": 117,
      "chip": "ym2612"
    },
    {
      "channel": 0,
      "note": 68,
      "start": 43.8801,
      "duration": 0.1135,
      "velocity": 106,
      "chip": "ym2612"
    },
    {
      "channel": 1,
      "note": 60,
      "start": 43.8808,
      "duration": 0.1131,
      "velocity": 106,
      "chip": "ym2612"
    },
    {
      "channel": 2,
      "note": 58,
      "start": 43.8815,
      "duration": 0.082,
      "velocity": 109,
      "chip": "ym2612"
    },
    {
      "channel": 3,
      "note": 63,
      "start": 43.8822,
      "duration": 0.18,
      "velocity": 102,
      "chip": "ym2612"
    },
    {
      "channel": 5,
      "note": 62,
      "start": 43.8832,
      "duration": 0.0769,
      "velocity": 117,
      "chip": "ym2612"
    },
    {
      "channel": 2,
      "note": 58,
      "start": 43.964,
      "duration": 0.0978,
      "velocity": 109,
      "chip": "ym2612"
    },
    {
      "channel": 5,
      "note": 62,
      "start": 43.9654,
      "duration": 0.1781,
      "velocity": 117,
      "chip": "ym2612"
    },
    {
      "channel": 0,
      "note": 68,
      "start": 44.061,
      "duration": 0.1851,
      "velocity": 106,
      "chip": "ym2612"
    },
    {
      "channel": 1,
      "note": 60,
      "start": 44.0617,
      "duration": 0.1851,
      "velocity": 106,
      "chip": "ym2612"
    },
    {
      "channel": 2,
      "note": 63,
      "start": 44.1474,
      "duration": 0.1002,
      "velocity": 109,
      "chip": "ym2612"
    },
    {
      "channel": 5,
      "note": 59,
      "start": 44.1483,
      "duration": 0.0952,
      "velocity": 117,
      "chip": "ym2612"
    },
    {
      "channel": 0,
      "note": 67,
      "start": 44.2467,
      "duration": 0.1685,
      "velocity": 95,
      "chip": "ym2612"
    },
    {
      "channel": 1,
      "note": 58,
      "start": 44.2474,
      "duration": 0.1681,
      "velocity": 106,
      "chip": "ym2612"
    },
    {
      "channel": 3,
      "note": 63,
      "start": 44.2485,
      "duration": 0.1128,
      "velocity": 102,
      "chip": "ym2612"
    },
    {
      "channel": 5,
      "note": 59,
      "start": 44.2493,
      "duration": 0.0775,
      "velocity": 117,
      "chip": "ym2612"
    },
    {
      "channel": 2,
      "note": 58,
      "start": 44.3307,
      "duration": 0.0852,
      "velocity": 109,
      "chip": "ym2612"
    },
    {
      "channel": 5,
      "note": 59,
      "start": 44.3319,
      "duration": 0.0783,
      "velocity": 117,
      "chip": "ym2612"
    },
    {
      "channel": 3,
      "note": 63,
      "start": 44.4168,
      "duration": 0.3605,
      "velocity": 102,
      "chip": "ym2612"
    },
    {
      "channel": 5,
      "note": 54,
      "start": 44.4177,
      "duration": 0.0924,
      "velocity": 117,
      "chip": "ym2612"
    },
    {
      "channel": 5,
      "note": 54,
      "start": 44.5141,
      "duration": 0.0793,
      "velocity": 117,
      "chip": "ym2612"
    },
    {
      "channel": 5,
      "note": 54,
      "start": 44.5975,
      "duration": 0.096,
      "velocity": 117,
      "chip": "ym2612"
    },
    {
      "channel": 5,
      "note": 54,
      "start": 44.6976,
      "duration": 0.1626,
      "velocity": 117,
      "chip": "ym2612"
    },
    {
      "channel": 5,
      "note": 50,
      "start": 44.864,
      "duration": 0.0962,
      "velocity": 117,
      "chip": "ym2612"
    },
    {
      "channel": 5,
      "note": 50,
      "start": 44.964,
      "duration": 0.0795,
      "velocity": 117,
      "chip": "ym2612"
    },
    {
      "channel": 5,
      "note": 50,
      "start": 45.0473,
      "duration": 0.0964,
      "velocity": 117,
      "chip": "ym2612"
    },
    {
      "channel": 0,
      "note": 63,
      "start": 45.1469,
      "duration": 1.0829,
      "velocity": 95,
      "chip": "ym2612"
    },
    {
      "channel": 1,
      "note": 54,
      "start": 45.1477,
      "duration": 0.0795,
      "velocity": 106,
      "chip": "ym2612"
    },
    {
      "channel": 3,
      "note": 59,
      "start": 45.1491,
      "duration": 0.1119,
      "velocity": 102,
      "chip": "ym2612"
    },
    {
      "channel": 5,
      "note": 32,
      "start": 45.15,
      "duration": 0.2284,
      "velocity": 114,
      "chip": "ym2612"
    },
    {
      "channel": 1,
      "note": 56,
      "start": 45.2278,
      "duration": 0.0837,
      "velocity": 106,
      "chip": "ym2612"
    },
    {
      "channel": 1,
      "note": 59,
      "start": 45.3121,
      "duration": 1.2686,
      "velocity": 106,
      "chip": "ym2612"
    },
    {
      "channel": 2,
      "note": 56,
      "start": 45.3128,
      "duration": 0.1845,
      "velocity": 109,
      "chip": "ym2612"
    },
    {
      "channel": 3,
      "note": 59,
      "start": 45.3135,
      "duration": 0.1845,
      "velocity": 102,
      "chip": "ym2612"
    },
    {
      "channel": 2,
      "note": 59,
      "start": 45.4979,
      "duration": 0.1808,
      "velocity": 109,
      "chip": "ym2612"
    },
    {
      "channel": 5,
      "note": 75,
      "start": 45.4989,
      "duration": 0.3617,
      "velocity": 120,
      "chip": "ym2612"
    },
    {
      "channel": 2,
      "note": 56,
      "start": 45.6792,
      "duration": 0.1848,
      "velocity": 109,
      "chip": "ym2612"
    },
    {
      "channel": 3,
      "note": 59,
      "start": 45.6799,
      "duration": 0.1148,
      "velocity": 102,
      "chip": "ym2612"
    },
    {
      "channel": 2,
      "note": 63,
      "start": 45.8645,
      "duration": 0.1807,
      "velocity": 109,
      "chip": "ym2612"
    },
    {
      "channel": 3,
      "note": 59,
      "start": 45.8652,
      "duration": 0.3664,
      "velocity": 102,
      "chip": "ym2612"
    },
    {
      "channel": 5,
      "note": 32,
      "start": 45.8661,
      "duration": 0.229,
      "velocity": 114,
      "chip": "ym2612"
    },
    {
      "channel": 2,
      "note": 56,
      "start": 46.0459,
      "duration": 0.1851,
      "velocity": 109,
      "chip": "ym2612"
    },
    {
      "channel": 0,
      "note": 66,
      "start": 46.2305,
      "duration": 0.3494,
      "velocity": 95,
      "chip": "ym2612"
    },
    {
      "channel": 2,
      "note": 59,
      "start": 46.2315,
      "duration": 0.1636,
      "velocity": 109,
      "chip": "ym2612"
    },
    {
      "channel": 5,
      "note": 75,
      "start": 46.2326,
      "duration": 0.3446,
      "velocity": 120,
      "chip": "ym2612"
    },
    {
      "channel": 2,
      "note": 56,
      "start": 46.3957,
      "duration": 0.1858,
      "velocity": 109,
      "chip": "ym2612"
    },
    {
      "channel": 0,
      "note": 65,
      "start": 46.5805,
      "duration": 1.0827,
      "velocity": 95,
      "chip": "ym2612"
    },
    {
      "channel": 1,
      "note": 56,
      "start": 46.5812,
      "duration": 0.096,
      "velocity": 106,
      "chip": "ym2612"
    },
    {
      "channel": 3,
      "note": 61,
      "start": 46.5826,
      "duration": 0.1117,
      "velocity": 102,
      "chip": "ym2612"
    },
    {
      "channel": 5,
      "note": 32,
      "start": 46.5835,
      "duration": 0.2449,
      "velocity": 114,
      "chip": "ym2612"
    },
    {
      "channel": 1,
      "note": 59,
      "start": 46.6778,
      "duration": 0.0838,
      "velocity": 106,
      "chip": "ym2612"
    },
    {
      "channel": 1,
      "note": 61,
      "start": 46.7622,
      "duration": 1.2684,
      "velocity": 106,
      "chip": "ym2612"
    },
    {
      "channel": 2,
      "note": 56,
      "start": 46.7629,
      "duration": 0.1844,
      "velocity": 109,
      "chip": "ym2612"
    },
    {
      "channel": 3,
      "note": 61,
      "start": 46.7636,
      "duration": 0.1844,
      "velocity": 102,
      "chip": "ym2612"
    },
    {
      "channel": 2,
      "note": 61,
      "start": 46.9479,
      "duration": 0.1807,
      "velocity": 109,
      "chip": "ym2612"
    },
    {
      "channel": 5,
      "note": 75,
      "start": 46.9489,
      "duration": 0.345,
      "velocity": 120,
      "chip": "ym2612"
    },
    {
      "channel": 2,
      "note": 56,
      "start": 47.1292,
      "duration": 0.1681,
      "velocity": 109,
      "chip": "ym2612"
    },
    {
      "channel": 3,
      "note": 61,
      "start": 47.1299,
      "duration": 0.1148,
      "velocity": 102,
      "chip": "ym2612"
    },
    {
      "channel": 2,
      "note": 65,
      "start": 47.2979,
      "duration": 0.1807,
      "velocity": 109,
      "chip": "ym2612"
    },
    {
      "channel": 3,
      "note": 61,
      "start": 47.2986,
      "duration": 0.3664,
      "velocity": 102,
      "chip": "ym2612"
    },
    {
      "channel": 5,
      "note": 32,
      "start": 47.2994,
      "duration": 0.2457,
      "velocity": 114,
      "chip": "ym2612"
    },
    {
      "channel": 2,
      "note": 56,
      "start": 47.4792,
      "duration": 0.1851,
      "velocity": 109,
      "chip": "ym2612"
    },
    {
      "channel": 0,
      "note": 63,
      "start": 47.6638,
      "duration": 0.366,
      "velocity": 95,
      "chip": "ym2612"
    },
    {
      "channel": 2,
      "note": 61,
      "start": 47.6649,
      "duration": 0.182,
      "velocity": 109,
      "chip": "ym2612"
    },
    {
      "channel": 5,
      "note": 75,
      "start": 47.6659,
      "duration": 0.1776,
      "velocity": 120,
      "chip": "ym2612"
    },
    {
      "channel": 2,
      "note": 56,
      "start": 47.8474,
      "duration": 0.184,
      "velocity": 109,
      "chip": "ym2612"
    },
    {
      "channel": 5,
      "note": 75,
      "start": 47.8483,
      "duration": 0.0786,
      "velocity": 120,
      "chip": "ym2612"
    },
    {
      "channel": 5,
      "note": 75,
      "start": 47.9313,
      "duration": 0.0959,
      "velocity": 120,
      "chip": "ym2612"
    },
    {
      "channel": 0,
      "note": 61,
      "start": 48.0304,
      "duration": 2.8827,
      "velocity": 95,
      "chip": "ym2612"
    },
    {
      "channel": 1,
      "note": 54,
      "start": 48.0312,
      "duration": 0.0794,
      "velocity": 106,
      "chip": "ym2612"
    },
    {
      "channel": 3,
      "note": 54,
      "start": 48.0325,
      "duration": 0.1118,
      "velocity": 102,
      "chip": "ym2612"
    },
    {
      "channel": 5,
      "note": 32,
      "start": 48.0334,
      "duration": 0.2284,
      "velocity": 114,
      "chip": "ym2612"
    },
    {
      "channel": 1,
      "note": 56,
      "start": 48.1111,
      "duration": 0.0837,
      "velocity": 106,
      "chip": "ym2612"
    },
    {
      "channel": 1,
      "note": 58,
      "start": 48.1954,
      "duration": 1.2178,
      "velocity": 89,
      "chip": "ym2612"
    },
    {
      "channel": 2,
      "note": 54,
      "start": 48.1961,
      "duration": 0.1845,
      "velocity": 109,
      "chip": "ym2612"
    },
    {
      "channel": 3,
      "note": 54,
      "start": 48.1968,
      "duration": 0.1845,
      "velocity": 102,
      "chip": "ym2612"
    },
    {
      "channel": 2,
      "note": 58,
      "start": 48.3812,
      "duration": 0.1807,
      "velocity": 109,
      "chip": "ym2612"
    },
    {
      "channel": 5,
      "note": 75,
      "start": 48.3822,
      "duration": 0.3617,
      "velocity": 120,
      "chip": "ym2612"
    },
    {
      "channel": 2,
      "note": 54,
      "start": 48.5625,
      "duration": 0.1848,
      "velocity": 109,
      "chip": "ym2612"
    },
    {
      "channel": 3,
      "note": 54,
      "start": 48.5632,
      "duration": 0.1148,
      "velocity": 102,
      "chip": "ym2612"
    },
    {
      "channel": 2,
      "note": 61,
      "start": 48.7479,
      "duration": 0.1807,
      "velocity": 109,
      "chip": "ym2612"
    },
    {
      "channel": 3,
      "note": 54,
      "start": 48.7486,
      "duration": 0.3661,
      "velocity": 102,
      "chip": "ym2612"
    },
    {
      "channel": 5,
      "note": 32,
      "start": 48.7494,
      "duration": 0.229,
      "velocity": 114,
      "chip": "ym2612"
    },
    {
      "channel": 2,
      "note": 54,
      "start": 48.9292,
      "duration": 0.1848,
      "velocity": 109,
      "chip": "ym2612"
    },
    {
      "channel": 2,
      "note": 58,
      "start": 49.1145,
      "duration": 0.1641,
      "velocity": 109,
      "chip": "ym2612"
    },
    {
      "channel": 5,
      "note": 75,
      "start": 49.1156,
      "duration": 0.345,
      "velocity": 120,
      "chip": "ym2612"
    },
    {
      "channel": 2,
      "note": 54,
      "start": 49.2792,
      "duration": 0.1854,
      "velocity": 109,
      "chip": "ym2612"
    },
    {
      "channel": 1,
      "note": 87,
      "start": 49.4642,
      "duration": 0.1807,
      "velocity": 89,
      "chip": "ym2612"
    },
    {
      "channel": 3,
      "note": 54,
      "start": 49.4656,
      "duration": 0.1122,
      "velocity": 102,
      "chip": "ym2612"
    },
    {
      "channel": 5,
      "note": 32,
      "start": 49.4664,
      "duration": 0.2453,
      "velocity": 114,
      "chip": "ym2612"
    },
    {
      "channel": 1,
      "note": 85,
      "start": 49.6455,
      "duration": 0.1847,
      "velocity": 89,
      "chip": "ym2612"
    },
    {
      "channel": 2,
      "note": 54,
      "start": 49.6463,
      "duration": 0.1847,
      "velocity": 109,
      "chip": "ym2612"
    },
    {
      "channel": 3,
      "note": 54,
      "start": 49.647,
      "duration": 0.1847,
      "velocity": 102,
      "chip": "ym2612"
    },
    {
      "channel": 1,
      "note": 82,
      "start": 49.8308,
      "duration": 0.1808,
      "velocity": 89,
      "chip": "ym2612"
    },
    {
      "channel": 2,
      "note": 58,
      "start": 49.8316,
      "duration": 0.1808,
      "velocity": 109,
      "chip": "ym2612"
    },
    {
      "channel": 5,
      "note": 75,
      "start": 49.8326,
      "duration": 0.3446,
      "velocity": 120,
      "chip": "ym2612"
    },
    {
      "channel": 1,
      "note": 80,
      "start": 50.0122,
      "duration": 0.168,
      "velocity": 89,
      "chip": "ym2612"
    },
    {
      "channel": 2,
      "note": 54,
      "start": 50.0129,
      "duration": 0.1681,
      "velocity": 109,
      "chip": "ym2612"
    },
    {
      "channel": 3,
      "note": 54,
      "start": 50.0137,
      "duration": 0.1144,
      "velocity": 102,
      "chip": "ym2612"
    },
    {
      "channel": 1,
      "note": 75,
      "start": 50.1808,
      "duration": 0.1808,
      "velocity": 89,
      "chip": "ym2612"
    },
    {
      "channel": 2,
      "note": 61,
      "start": 50.1816,
      "duration": 0.1807,
      "velocity": 109,
      "chip": "ym2612"
    },
    {
      "channel": 3,
      "note": 54,
      "start": 50.1823,
      "duration": 0.3661,
      "velocity": 102,
      "chip": "ym2612"
    },
    {
      "channel": 5,
      "note": 32,
      "start": 50.1831,
      "duration": 0.2453,
      "velocity": 114,
      "chip": "ym2612"
    },
    {
      "channel": 1,
      "note": 73,
      "start": 50.3622,
      "duration": 0.1848,
      "velocity": 89,
      "chip": "ym2612"
    },
    {
      "channel": 2,
      "note": 54,
      "start": 50.3629,
      "duration": 0.1848,
      "velocity": 109,
      "chip": "ym2612"
    },
    {
      "channel": 1,
      "note": 70,
      "start": 50.5476,
      "duration": 0.1823,
      "velocity": 89,
      "chip": "ym2612"
    },
    {
      "channel": 2,
      "note": 58,
      "start": 50.5483,
      "duration": 0.1823,
      "velocity": 109,
      "chip": "ym2612"
    },
    {
      "channel": 5,
      "note": 75,
      "start": 50.5493,
      "duration": 0.1775,
      "velocity": 120,
      "chip": "ym2612"
    },
    {
      "channel": 1,
      "note": 68,
      "start": 50.7305,
      "duration": 0.0849,
      "velocity": 106,
      "chip": "ym2612"
    },
    {
      "channel": 2,
      "note": 54,
      "start": 50.7312,
      "duration": 0.184,
      "velocity": 109,
      "chip": "ym2612"
    },
    {
      "channel": 5,
      "note": 75,
      "start": 50.732,
      "duration": 0.0782,
      "velocity": 120,
      "chip": "ym2612"
    },
    {
      "channel": 5,
      "note": 75,
      "start": 50.8166,
      "duration": 0.0938,
      "velocity": 120,
      "chip": "ym2612"
    },
    {
      "channel": 0,
      "note": 63,
      "start": 50.9137,
      "duration": 1.0828,
      "velocity": 95,
      "chip": "ym2612"
    },
    {
      "channel": 1,
      "note": 54,
      "start": 50.9149,
      "duration": 0.079,
      "velocity": 106,
      "chip": "ym2612"
    },
    {
      "channel": 3,
      "note": 59,
      "start": 50.9163,
      "duration": 0.1114,
      "velocity": 102,
      "chip": "ym2612"
    },
    {
      "channel": 5,
      "note": 32,
      "start": 50.9171,
      "duration": 0.2279,
      "velocity": 114,
      "chip": "ym2612"
    },
    {
      "channel": 1,
      "note": 56,
      "start": 50.9944,
      "duration": 0.1005,
      "velocity": 106,
      "chip": "ym2612"
    },
    {
      "channel": 1,
      "note": 59,
      "start": 51.0955,
      "duration": 1.2518,
      "velocity": 106,
      "chip": "ym2612"
    },
    {
      "channel": 2,
      "note": 56,
      "start": 51.0962,
      "duration": 0.1678,
      "velocity": 109,
      "chip": "ym2612"
    },
    {
      "channel": 3,
      "note": 59,
      "start": 51.0969,
      "duration": 0.1678,
      "velocity": 102,
      "chip": "ym2612"
    },
    {
      "channel": 2,
      "note": 59,
      "start": 51.2645,
      "duration": 0.1807,
      "velocity": 109,
      "chip": "ym2612"
    },
    {
      "channel": 5,
      "note": 75,
      "start": 51.2656,
      "duration": 0.3617,
      "velocity": 120,
      "chip": "ym2612"
    },
    {
      "channel": 2,
      "note": 56,
      "start": 51.4459,
      "duration": 0.1848,
      "velocity": 109,
      "chip": "ym2612"
    },
    {
      "channel": 3,
      "note": 59,
      "start": 51.4465,
      "duration": 0.1148,
      "velocity": 102,
      "chip": "ym2612"
    },
    {
      "channel": 2,
      "note": 63,
      "start": 51.6312,
      "duration": 0.1807,
      "velocity": 109,
      "chip": "ym2612"
    },
    {
      "channel": 3,
      "note": 59,
      "start": 51.6319,
      "duration": 0.3664,
      "velocity": 102,
      "chip": "ym2612"
    },
    {
      "channel": 5,
      "note": 32,
      "start": 51.6327,
      "duration": 0.229,
      "velocity": 114,
      "chip": "ym2612"
    },
    {
      "channel": 2,
      "note": 56,
      "start": 51.8125,
      "duration": 0.1851,
      "velocity": 109,
      "chip": "ym2612"
    },
    {
      "channel": 0,
      "note": 66,
      "start": 51.9971,
      "duration": 0.3494,
      "velocity": 95,
      "chip": "ym2612"
    },
    {
      "channel": 2,
      "note": 59,
      "start": 51.9982,
      "duration": 0.1636,
      "velocity": 109,
      "chip": "ym2612"
    },
    {
      "channel": 5,
      "note": 75,
      "start": 51.9993,
      "duration": 0.3446,
      "velocity": 120,
      "chip": "ym2612"
    },
    {
      "channel": 2,
      "note": 56,
      "start": 52.1624,
      "duration": 0.1858,
      "velocity": 109,
      "chip": "ym2612"
    },
    {
      "channel": 0,
      "note": 65,
      "start": 52.3471,
      "duration": 0.7327,
      "velocity": 95,
      "chip": "ym2612"
    },
    {
      "channel": 1,
      "note": 56,
      "start": 52.3479,
      "duration": 0.096,
      "velocity": 106,
      "chip": "ym2612"
    },
    {
      "channel": 3,
      "note": 61,
      "start": 52.3493,
      "duration": 0.1117,
      "velocity": 102,
      "chip": "ym2612"
    },
    {
      "channel": 5,
      "note": 32,
      "start": 52.3502,
      "duration": 0.2449,
      "velocity": 114,
      "chip": "ym2612"
    },
    {
      "channel": 1,
      "note": 59,
      "start": 52.4444,
      "duration": 0.0838,
      "velocity": 106,
      "chip": "ym2612"
    },
    {
      "channel": 1,
      "note": 61,
      "start": 52.5289,
      "duration": 1.2684,
      "velocity": 106,
      "chip": "ym2612"
    },
    {
      "channel": 2,
      "note": 56,
      "start": 52.5295,
      "duration": 0.1844,
      "velocity": 109,
      "chip": "ym2612"
    },
    {
      "channel": 3,
      "note": 61,
      "start": 52.5302,
      "duration": 0.1844,
      "velocity": 102,
      "chip": "ym2612"
    },
    {
      "channel": 2,
      "note": 61,
      "start": 52.7145,
      "duration": 0.1808,
      "velocity": 109,
      "chip": "ym2612"
    },
    {
      "channel": 5,
      "note": 75,
      "start": 52.7156,
      "duration": 0.3617,
      "velocity": 120,
      "chip": "ym2612"
    },
    {
      "channel": 2,
      "note": 56,
      "start": 52.8959,
      "duration": 0.1846,
      "velocity": 109,
      "chip": "ym2612"
    },
    {
      "channel": 3,
      "note": 61,
      "start": 52.8966,
      "duration": 0.1148,
      "velocity": 102,
      "chip": "ym2612"
    },
    {
      "channel": 2,
      "note": 65,
      "start": 53.0811,
      "duration": 0.1638,
      "velocity": 109,
      "chip": "ym2612"
    },
    {
      "channel": 3,
      "note": 61,
      "start": 53.0818,
      "duration": 0.3494,
      "velocity": 102,
      "chip": "ym2612"
    },
    {
      "channel": 5,
      "note": 32,
      "start": 53.0826,
      "duration": 0.2295,
      "velocity": 114,
      "chip": "ym2612"
    },
    {
      "channel": 2,
      "note": 56,
      "start": 53.2455,
      "duration": 0.185,
      "velocity": 109,
      "chip": "ym2612"
    },
    {
      "channel": 0,
      "note": 66,
      "start": 53.3109,
      "duration": 0.2327,
      "velocity": 95,
      "chip": "ym2612"
    },
    {
      "channel": 2,
      "note": 61,
      "start": 53.4311,
      "duration": 0.1824,
      "velocity": 109,
      "chip": "ym2612"
    },
    {
      "channel": 5,
      "note": 75,
      "start": 53.4321,
      "duration": 0.178,
      "velocity": 120,
      "chip": "ym2612"
    },
    {
      "channel": 0,
      "note": 68,
      "start": 53.5442,
      "duration": 0.2522,
      "velocity": 95,
      "chip": "ym2612"
    },
    {
      "channel": 2,
      "note": 56,
      "start": 53.614,
      "duration": 0.184,
      "velocity": 109,
      "chip": "ym2612"
    },
    {
      "channel": 5,
      "note": 75,
      "start": 53.6149,
      "duration": 0.0786,
      "velocity": 120,
      "chip": "ym2612"
    },
    {
      "channel": 5,
      "note": 75,
      "start": 53.6978,
      "duration": 0.096,
      "velocity": 120,
      "chip": "ym2612"
    },
    {
      "channel": 0,
      "note": 70,
      "start": 53.7971,
      "duration": 2.8826,
      "velocity": 95,
      "chip": "ym2612"
    },
    {
      "channel": 1,
      "note": 68,
      "start": 53.7978,
      "duration": 1.4324,
      "velocity": 106,
      "chip": "ym2612"
    },
    {
      "channel": 3,
      "note": 63,
      "start": 53.7991,
      "duration": 0.1118,
      "velocity": 102,
      "chip": "ym2612"
    },
    {
      "channel": 5,
      "note": 32,
      "start": 53.8,
      "duration": 0.2284,
      "velocity": 114,
      "chip": "ym2612"
    },
    {
      "channel": 2,
      "note": 58,
      "start": 53.9792,
      "duration": 0.1681,
      "velocity": 109,
      "chip": "ym2612"
    },
    {
      "channel": 3,
      "note": 63,
      "start": 53.9799,
      "duration": 0.1681,
      "velocity": 102,
      "chip": "ym2612"
    },
    {
      "channel": 2,
      "note": 63,
      "start": 54.1479,
      "duration": 0.1807,
      "velocity": 109,
      "chip": "ym2612"
    },
    {
      "channel": 5,
      "note": 75,
      "start": 54.1489,
      "duration": 0.3617,
      "velocity": 120,
      "chip": "ym2612"
    },
    {
      "channel": 2,
      "note": 58,
      "start": 54.3292,
      "duration": 0.1848,
      "velocity": 109,
      "chip": "ym2612"
    },
    {
      "channel": 3,
      "note": 63,
      "start": 54.3299,
      "duration": 0.1148,
      "velocity": 102,
      "chip": "ym2612"
    },
    {
      "channel": 2,
      "note": 68,
      "start": 54.5145,
      "duration": 0.1807,
      "velocity": 109,
      "chip": "ym2612"
    },
    {
      "channel": 3,
      "note": 63,
      "start": 54.5152,
      "duration": 0.3661,
      "velocity": 102,
      "chip": "ym2612"
    },
    {
      "channel": 5,
      "note": 32,
      "start": 54.5161,
      "duration": 0.2457,
      "velocity": 114,
      "chip": "ym2612"
    },
    {
      "channel": 2,
      "note": 58,
      "start": 54.6959,
      "duration": 0.1848,
      "velocity": 109,
      "chip": "ym2612"
    },
    {
      "channel": 2,
      "note": 63,
      "start": 54.8812,
      "duration": 0.1807,
      "velocity": 109,
      "chip": "ym2612"
    },
    {
      "channel": 5,
      "note": 75,
      "start": 54.8822,
      "duration": 0.345,
      "velocity": 120,
      "chip": "ym2612"
    },
    {
      "channel": 2,
      "note": 58,
      "start": 55.0625,
      "duration": 0.1686,
      "velocity": 109,
      "chip": "ym2612"
    },
    {
      "channel": 1,
      "note": 67,
      "start": 55.2308,
      "duration": 1.4498,
      "velocity": 106,
      "chip": "ym2612"
    },
    {
      "channel": 3,
      "note": 61,
      "start": 55.2322,
      "duration": 0.129,
      "velocity": 102,
      "chip": "ym2612"
    },
    {
      "channel": 5,
      "note": 32,
      "start": 55.233,
      "duration": 0.2454,
      "velocity": 114,
      "chip": "ym2612"
    },
    {
      "channel": 2,
      "note": 58,
      "start": 55.4126,
      "duration": 0.1847,
      "velocity": 109,
      "chip": "ym2612"
    },
    {
      "channel": 3,
      "note": 61,
      "start": 55.4133,
      "duration": 0.1847,
      "velocity": 102,
      "chip": "ym2612"
    },
    {
      "channel": 2,
      "note": 63,
      "start": 55.5979,
      "duration": 0.1807,
      "velocity": 109,
      "chip": "ym2612"
    },
    {
      "channel": 5,
      "note": 75,
      "start": 55.5989,
      "duration": 0.3617,
      "velocity": 120,
      "chip": "ym2612"
    },
    {
      "channel": 2,
      "note": 58,
      "start": 55.7792,
      "duration": 0.1848,
      "velocity": 109,
      "chip": "ym2612"
    },
    {
      "channel": 3,
      "note": 61,
      "start": 55.7799,
      "duration": 0.1148,
      "velocity": 102,
      "chip": "ym2612"
    },
    {
      "channel": 2,
      "note": 67,
      "start": 55.9645,
      "duration": 0.1641,
      "velocity": 109,
      "chip": "ym2612"
    },
    {
      "channel": 3,
      "note": 61,
      "start": 55.9652,
      "duration": 0.3494,
      "velocity": 102,
      "chip": "ym2612"
    },
    {
      "channel": 5,
      "note": 32,
      "start": 55.9661,
      "duration": 0.229,
      "velocity": 114,
      "chip": "ym2612"
    },
    {
      "channel": 2,
      "note": 58,
      "start": 56.1292,
      "duration": 0.1848,
      "velocity": 109,
      "chip": "ym2612"
    },
    {
      "channel": 2,
      "note": 63,
      "start": 56.3145,
      "duration": 0.1824,
      "velocity": 109,
      "chip": "ym2612"
    },
    {
      "channel": 5,
      "note": 75,
      "start": 56.3156,
      "duration": 0.1779,
      "velocity": 120,
      "chip": "ym2612"
    },
    {
      "channel": 2,
      "note": 58,
      "start": 56.4975,
      "duration": 0.184,
      "velocity": 109,
      "chip": "ym2612"
    },
    {
      "channel": 5,
      "note": 75,
      "start": 56.4983,
      "duration": 0.0785,
      "velocity": 120,
      "chip": "ym2612"
    },
    {
      "channel": 5,
      "note": 75,
      "start": 56.5813,
      "duration": 0.0959,
      "velocity": 120,
      "chip": "ym2612"
    },
    {
      "channel": 0,
      "note": 71,
      "start": 56.6805,
      "duration": 0.716,
      "velocity": 95,
      "chip": "ym2612"
    },
    {
      "channel": 1,
      "note": 63,
      "start": 56.6812,
      "duration": 0.0794,
      "velocity": 106,
      "chip": "ym2612"
    },
    {
      "channel": 3,
      "note": 56,
      "start": 56.6825,
      "duration": 0.1118,
      "velocity": 102,
      "chip": "ym2612"
    },
    {
      "channel": 5,
      "note": 32,
      "start": 56.6834,
      "duration": 0.2283,
      "velocity": 114,
      "chip": "ym2612"
    },
    {
      "channel": 1,
      "note": 66,
      "start": 56.7611,
      "duration": 0.1005,
      "velocity": 106,
      "chip": "ym2612"
    },
    {
      "channel": 1,
      "note": 68,
      "start": 56.8622,
      "duration": 0.5346,
      "velocity": 106,
      "chip": "ym2612"
    },
    {
      "channel": 2,
      "note": 56,
      "start": 56.8629,
      "duration": 0.1844,
      "velocity": 109,
      "chip": "ym2612"
    },
    {
      "channel": 3,
      "note": 56,
      "start": 56.8636,
      "duration": 0.1844,
      "velocity": 102,
      "chip": "ym2612"
    },
    {
      "channel": 2,
      "note": 59,
      "start": 57.0479,
      "duration": 0.1641,
      "velocity": 109,
      "chip": "ym2612"
    },
    {
      "channel": 5,
      "note": 75,
      "start": 57.0489,
      "duration": 0.345,
      "velocity": 120,
      "chip": "ym2612"
    },
    {
      "channel": 2,
      "note": 56,
      "start": 57.2125,
      "duration": 0.1846,
      "velocity": 109,
      "chip": "ym2612"
    },
    {
      "channel": 3,
      "note": 56,
      "start": 57.2133,
      "duration": 0.1314,
      "velocity": 102,
      "chip": "ym2612"
    },
    {
      "channel": 2,
      "note": 63,
      "start": 57.3978,
      "duration": 0.1802,
      "velocity": 109,
      "chip": "ym2612"
    },
    {
      "channel": 3,
      "note": 56,
      "start": 57.3985,
      "duration": 0.3661,
      "velocity": 102,
      "chip": "ym2612"
    },
    {
      "channel": 5,
      "note": 32,
      "start": 57.3993,
      "duration": 0.2466,
      "velocity": 114,
      "chip": "ym2612"
    },
    {
      "channel": 2,
      "note": 56,
      "start": 57.5785,
      "duration": 0.1853,
      "velocity": 109,
      "chip": "ym2612"
    },
    {
      "channel": 0,
      "note": 70,
      "start": 57.6442,
      "duration": 0.2327,
      "velocity": 95,
      "chip": "ym2612"
    },
    {
      "channel": 1,
      "note": 66,
      "start": 57.6449,
      "duration": 0.2328,
      "velocity": 106,
      "chip": "ym2612"
    },
    {
      "channel": 2,
      "note": 59,
      "start": 57.7644,
      "duration": 0.1807,
      "velocity": 109,
      "chip": "ym2612"
    },
    {
      "channel": 5,
      "note": 75,
      "start": 57.7654,
      "duration": 0.3451,
      "velocity": 120,
      "chip": "ym2612"
    },
    {
      "channel": 0,
      "note": 71,
      "start": 57.8775,
      "duration": 0.2356,
      "velocity": 95,
      "chip": "ym2612"
    },
    {
      "channel": 1,
      "note": 68,
      "start": 57.8783,
      "duration": 0.2357,
      "velocity": 106,
      "chip": "ym2612"
    },
    {
      "channel": 2,
      "note": 56,
      "start": 57.9457,
      "duration": 0.1691,
      "velocity": 109,
      "chip": "ym2612"
    },
    {
      "channel": 0,
      "note": 68,
      "start": 58.1138,
      "duration": 1.4493,
      "velocity": 95,
      "chip": "ym2612"
    },
    {
      "channel": 1,
      "note": 65,
      "start": 58.1145,
      "duration": 1.4494,
      "velocity": 106,
      "chip": "ym2612"
    },
    {
      "channel": 3,
      "note": 61,
      "start": 58.1159,
      "duration": 0.1284,
      "velocity": 102,
      "chip": "ym2612"
    },
    {
      "channel": 5,
      "note": 32,
      "start": 58.1167,
      "duration": 0.245,
      "velocity": 114,
      "chip": "ym2612"
    },
    {
      "channel": 2,
      "note": 56,
      "start": 58.2959,
      "duration": 0.1848,
      "velocity": 109,
      "chip": "ym2612"
    },
    {
      "channel": 3,
      "note": 61,
      "start": 58.2965,
      "duration": 0.1848,
      "velocity": 102,
      "chip": "ym2612"
    },
    {
      "channel": 2,
      "note": 61,
      "start": 58.4812,
      "duration": 0.1808,
      "velocity": 109,
      "chip": "ym2612"
    },
    {
      "channel": 5,
      "note": 75,
      "start": 58.4822,
      "duration": 0.3617,
      "velocity": 120,
      "chip": "ym2612"
    },
    {
      "channel": 2,
      "note": 56,
      "start": 58.6625,
      "duration": 0.1848,
      "velocity": 109,
      "chip": "ym2612"
    },
    {
      "channel": 3,
      "note": 61,
      "start": 58.6633,
      "duration": 0.1148,
      "velocity": 102,
      "chip": "ym2612"
    },
    {
      "channel": 2,
      "note": 65,
      "start": 58.8479,
      "duration": 0.1808,
      "velocity": 109,
      "chip": "ym2612"
    },
    {
      "channel": 3,
      "note": 59,
      "start": 58.8486,
      "duration": 0.1128,
      "velocity": 102,
      "chip": "ym2612"
    },
    {
      "channel": 5,
      "note": 32,
      "start": 58.8494,
      "duration": 0.229,
      "velocity": 114,
      "chip": "ym2612"
    },
    {
      "channel": 2,
      "note": 56,
      "start": 59.0292,
      "duration": 0.1681,
      "velocity": 109,
      "chip": "ym2612"
    },
    {
      "channel": 3,
      "note": 59,
      "start": 59.0299,
      "duration": 0.1681,
      "velocity": 102,
      "chip": "ym2612"
    },
    {
      "channel": 2,
      "note": 61,
      "start": 59.1979,
      "duration": 0.1823,
      "velocity": 109,
      "chip": "ym2612"
    },
    {
      "channel": 5,
      "note": 75,
      "start": 59.1989,
      "duration": 0.1779,
      "velocity": 120,
      "chip": "ym2612"
    },
    {
      "channel": 2,
      "note": 56,
      "start": 59.3808,
      "duration": 0.1838,
      "velocity": 109,
      "chip": "ym2612"
    },
    {
      "channel": 3,
      "note": 59,
      "start": 59.3815,
      "duration": 0.1132,
      "velocity": 102,
      "chip": "ym2612"
    },
    {
      "channel": 5,
      "note": 75,
      "start": 59.3822,
      "duration": 0.0946,
      "velocity": 120,
      "chip": "ym2612"
    },
    {
      "channel": 5,
      "note": 75,
      "start": 59.4815,
      "duration": 0.079,
      "velocity": 120,
      "chip": "ym2612"
    },
    {
      "channel": 0,
      "note": 73,
      "start": 59.5638,
      "duration": 0.716,
      "velocity": 95,
      "chip": "ym2612"
    },
    {
      "channel": 1,
      "note": 65,
      "start": 59.5643,
      "duration": 0.0796,
      "velocity": 106,
      "chip": "ym2612"
    },
    {
      "channel": 3,
      "note": 58,
      "start": 59.5656,
      "duration": 0.1121,
      "velocity": 102,
      "chip": "ym2612"
    },
    {
      "channel": 5,
      "note": 32,
      "start": 59.5664,
      "duration": 0.2287,
      "velocity": 114,
      "chip": "ym2612"
    },
    {
      "channel": 1,
      "note": 68,
      "start": 59.6444,
      "duration": 0.1005,
      "velocity": 106,
      "chip": "ym2612"
    },
    {
      "channel": 1,
      "note": 70,
      "start": 59.7455,
      "duration": 0.5346,
      "velocity": 106,
      "chip": "ym2612"
    },
    {
      "channel": 2,
      "note": 58,
      "start": 59.7462,
      "duration": 0.1844,
      "velocity": 109,
      "chip": "ym2612"
    },
    {
      "channel": 3,
      "note": 58,
      "start": 59.7469,
      "duration": 0.1844,
      "velocity": 102,
      "chip": "ym2612"
    },
    {
      "channel": 2,
      "note": 61,
      "start": 59.9312,
      "duration": 0.1641,
      "velocity": 109,
      "chip": "ym2612"
    },
    {
      "channel": 5,
      "note": 75,
      "start": 59.9322,
      "duration": 0.345,
      "velocity": 120,
      "chip": "ym2612"
    },
    {
      "channel": 2,
      "note": 58,
      "start": 60.0959,
      "duration": 0.1846,
      "velocity": 109,
      "chip": "ym2612"
    },
    {
      "channel": 3,
      "note": 58,
      "start": 60.0966,
      "duration": 0.1314,
      "velocity": 102,
      "chip": "ym2612"
    },
    {
      "channel": 2,
      "note": 65,
      "start": 60.2811,
      "duration": 0.1803,
      "velocity": 109,
      "chip": "ym2612"
    },
    {
      "channel": 3,
      "note": 58,
      "start": 60.2818,
      "duration": 0.3661,
      "velocity": 102,
      "chip": "ym2612"
    },
    {
      "channel": 5,
      "note": 32,
      "start": 60.2826,
      "duration": 0.2466,
      "velocity": 114,
      "chip": "ym2612"
    },
    {
      "channel": 2,
      "note": 58,
      "start": 60.4619,
      "duration": 0.1852,
      "velocity": 109,
      "chip": "ym2612"
    },
    {
      "channel": 0,
      "note": 71,
      "start": 60.5275,
      "duration": 0.2327,
      "velocity": 95,
      "chip": "ym2612"
    },
    {
      "channel": 1,
      "note": 68,
      "start": 60.5283,
      "duration": 0.2328,
      "velocity": 106,
      "chip": "ym2612"
    },
    {
      "channel": 2,
      "note": 61,
      "start": 60.6478,
      "duration": 0.1807,
      "velocity": 109,
      "chip": "ym2612"
    },
    {
      "channel": 5,
      "note": 75,
      "start": 60.6488,
      "duration": 0.3451,
      "velocity": 120,
      "chip": "ym2612"
    },
    {
      "channel": 0,
      "note": 73,
      "start": 60.7609,
      "duration": 0.2356,
      "velocity": 95,
      "chip": "ym2612"
    },
    {
      "channel": 1,
      "note": 70,
      "start": 60.7616,
      "duration": 0.2357,
      "velocity": 106,
      "chip": "ym2612"
    },
    {
      "channel": 2,
      "note": 58,
      "start": 60.829,
      "duration": 0.1691,
      "velocity": 109,
      "chip": "ym2612"
    },
    {
      "channel": 0,
      "note": 70,
      "start": 60.9972,
      "duration": 1.4493,
      "velocity": 95,
      "chip": "ym2612"
    },
    {
      "channel": 1,
      "note": 67,
      "start": 60.9979,
      "duration": 1.4494,
      "velocity": 106,
      "chip": "ym2612"
    },
    {
      "channel": 3,
      "note": 63,
      "start": 60.9992,
      "duration": 0.1284,
      "velocity": 102,
      "chip": "ym2612"
    },
    {
      "channel": 5,
      "note": 32,
      "start": 61.0,
      "duration": 0.245,
      "velocity": 114,
      "chip": "ym2612"
    },
    {
      "channel": 2,
      "note": 58,
      "start": 61.1792,
      "duration": 0.1848,
      "velocity": 109,
      "chip": "ym2612"
    },
    {
      "channel": 3,
      "note": 63,
      "start": 61.1799,
      "duration": 0.1848,
      "velocity": 102,
      "chip": "ym2612"
    },
    {
      "channel": 2,
      "note": 63,
      "start": 61.3645,
      "duration": 0.1807,
      "velocity": 109,
      "chip": "ym2612"
    },
    {
      "channel": 5,
      "note": 75,
      "start": 61.3656,
      "duration": 0.3617,
      "velocity": 120,
      "chip": "ym2612"
    },
    {
      "channel": 2,
      "note": 58,
      "start": 61.5459,
      "duration": 0.1848,
      "velocity": 109,
      "chip": "ym2612"
    },
    {
      "channel": 3,
      "note": 63,
      "start": 61.5465,
      "duration": 0.1148,
      "velocity": 102,
      "chip": "ym2612"
    },
    {
      "channel": 2,
      "note": 67,
      "start": 61.7312,
      "duration": 0.1808,
      "velocity": 109,
      "chip": "ym2612"
    },
    {
      "channel": 3,
      "note": 63,
      "start": 61.7319,
      "duration": 0.3494,
      "velocity": 102,
      "chip": "ym2612"
    },
    {
      "channel": 5,
      "note": 32,
      "start": 61.7327,
      "duration": 0.229,
      "velocity": 114,
      "chip": "ym2612"
    },
    {
      "channel": 2,
      "note": 58,
      "start": 61.9126,
      "duration": 0.1681,
      "velocity": 109,
      "chip": "ym2612"
    },
    {
      "channel": 2,
      "note": 63,
      "start": 62.0812,
      "duration": 0.1824,
      "velocity": 109,
      "chip": "ym2612"
    },
    {
      "channel": 5,
      "note": 75,
      "start": 62.0822,
      "duration": 0.1779,
      "velocity": 120,
      "chip": "ym2612"
    },
    {
      "channel": 2,
      "note": 58,
      "start": 62.2641,
      "duration": 0.184,
      "velocity": 109,
      "chip": "ym2612"
    },
    {
      "channel": 5,
      "note": 75,
      "start": 62.265,
      "duration": 0.0952,
      "velocity": 120,
      "chip": "ym2612"
    },
    {
      "channel": 5,
      "note": 75,
      "start": 62.3646,
      "duration": 0.0792,
      "velocity": 120,
      "chip": "ym2612"
    },
    {
      "channel": 0,
      "note": 75,
      "start": 62.4471,
      "duration": 1.4494,
      "velocity": 95,
      "chip": "ym2612"
    },
    {
      "channel": 1,
      "note": 71,
      "start": 62.4478,
      "duration": 1.4495,
      "velocity": 106,
      "chip": "ym2612"
    },
    {
      "channel": 3,
      "note": 56,
      "start": 62.4492,
      "duration": 0.1118,
      "velocity": 102,
      "chip": "ym2612"
    },
    {
      "channel": 5,
      "note": 32,
      "start": 62.4501,
      "duration": 0.2283,
      "velocity": 114,
      "chip": "ym2612"
    },
    {
      "channel": 2,
      "note": 56,
      "start": 62.6292,
      "duration": 0.1848,
      "velocity": 109,
      "chip": "ym2612"
    },
    {
      "channel": 3,
      "note": 56,
      "start": 62.6299,
      "duration": 0.1848,
      "velocity": 102,
      "chip": "ym2612"
    },
    {
      "channel": 2,
      "note": 59,
      "start": 62.8145,
      "duration": 0.1641,
      "velocity": 109,
      "chip": "ym2612"
    },
    {
      "channel": 5,
      "note": 75,
      "start": 62.8156,
      "duration": 0.345,
      "velocity": 120,
      "chip": "ym2612"
    },
    {
      "channel": 2,
      "note": 56,
      "start": 62.9792,
      "duration": 0.1848,
      "velocity": 109,
      "chip": "ym2612"
    },
    {
      "channel": 3,
      "note": 56,
      "start": 62.9799,
      "duration": 0.1315,
      "velocity": 102,
      "chip": "ym2612"
    },
    {
      "channel": 2,
      "note": 63,
      "start": 63.1645,
      "duration": 0.1807,
      "velocity": 109,
      "chip": "ym2612"
    },
    {
      "channel": 3,
      "note": 56,
      "start": 63.1652,
      "duration": 0.3661,
      "velocity": 102,
      "chip": "ym2612"
    },
    {
      "channel": 5,
      "note": 32,
      "start": 63.1661,
      "duration": 0.2457,
      "velocity": 114,
      "chip": "ym2612"
    },
    {
      "channel": 2,
      "note": 56,
      "start": 63.3459,
      "duration": 0.1848,
      "velocity": 109,
      "chip": "ym2612"
    },
    {
      "channel": 2,
      "note": 59,
      "start": 63.5312,
      "duration": 0.1807,
      "velocity": 109,
      "chip": "ym2612"
    },
    {
      "channel": 5,
      "note": 75,
      "start": 63.5322,
      "duration": 0.3617,
      "velocity": 120,
      "chip": "ym2612"
    },
    {
      "channel": 2,
      "note": 56,
      "start": 63.7125,
      "duration": 0.1857,
      "velocity": 109,
      "chip": "ym2612"
    },
    {
      "channel": 0,
      "note": 74,
      "start": 63.8972,
      "duration": 1.4324,
      "velocity": 95,
      "chip": "ym2612"
    },
    {
      "channel": 1,
      "note": 71,
      "start": 63.8979,
      "duration": 1.4326,
      "velocity": 106,
      "chip": "ym2612"
    },
    {
      "channel": 3,
      "note": 56,
      "start": 63.8993,
      "duration": 0.1117,
      "velocity": 102,
      "chip": "ym2612"
    },
    {
      "channel": 5,
      "note": 32,
      "start": 63.9002,
      "duration": 0.2283,
      "velocity": 114,
      "chip": "ym2612"
    },
    {
      "channel": 2,
      "note": 56,
      "start": 64.0624,
      "duration": 0.1849,
      "velocity": 109,
      "chip": "ym2612"
    },
    {
      "channel": 3,
      "note": 56,
      "start": 64.0632,
      "duration": 0.1849,
      "velocity": 102,
      "chip": "ym2612"
    },
    {
      "channel": 2,
      "note": 59,
      "start": 64.2479,
      "duration": 0.1807,
      "velocity": 109,
      "chip": "ym2612"
    },
    {
      "channel": 5,
      "note": 75,
      "start": 64.2489,
      "duration": 0.3617,
      "velocity": 120,
      "chip": "ym2612"
    },
    {
      "channel": 2,
      "note": 56,
      "start": 64.4292,
      "duration": 0.1848,
      "velocity": 109,
      "chip": "ym2612"
    },
    {
      "channel": 3,
      "note": 56,
      "start": 64.4299,
      "duration": 0.1148,
      "velocity": 102,
      "chip": "ym2612"
    },
    {
      "channel": 2,
      "note": 63,
      "start": 64.6145,
      "duration": 0.1807,
      "velocity": 109,
      "chip": "ym2612"
    },
    {
      "channel": 3,
      "note": 56,
      "start": 64.6152,
      "duration": 0.3494,
      "velocity": 102,
      "chip": "ym2612"
    },
    {
      "channel": 5,
      "note": 32,
      "start": 64.6161,
      "duration": 0.229,
      "velocity": 114,
      "chip": "ym2612"
    },
    {
      "channel": 2,
      "note": 56,
      "start": 64.7959,
      "duration": 0.1681,
      "velocity": 109,
      "chip": "ym2612"
    },
    {
      "channel": 2,
      "note": 59,
      "start": 64.9645,
      "duration": 0.1823,
      "velocity": 109,
      "chip": "ym2612"
    },
    {
      "channel": 5,
      "note": 75,
      "start": 64.9656,
      "duration": 0.1779,
      "velocity": 120,
      "chip": "ym2612"
    },
    {
      "channel": 2,
      "note": 56,
      "start": 65.1474,
      "duration": 0.1839,
      "velocity": 109,
      "chip": "ym2612"
    },
    {
      "channel": 5,
      "note": 75,
      "start": 65.1483,
      "duration": 0.0952,
      "velocity": 120,
      "chip": "ym2612"
    },
    {
      "channel": 5,
      "note": 75,
      "start": 65.2479,
      "duration": 0.0791,
      "velocity": 120,
      "chip": "ym2612"
    },
    {
      "channel": 0,
      "note": 73,
      "start": 65.3302,
      "duration": 1.4517,
      "velocity": 106,
      "chip": "ym2612"
    },
    {
      "channel": 1,
      "note": 65,
      "start": 65.331,
      "duration": 1.4512,
      "velocity": 106,
      "chip": "ym2612"
    },
    {
      "channel": 3,
      "note": 61,
      "start": 65.3324,
      "duration": 0.1119,
      "velocity": 102,
      "chip": "ym2612"
    },
    {
      "channel": 5,
      "note": 32,
      "start": 65.3333,
      "duration": 0.2451,
      "velocity": 114,
      "chip": "ym2612"
    },
    {
      "channel": 2,
      "note": 56,
      "start": 65.5125,
      "duration": 0.1848,
      "velocity": 109,
      "chip": "ym2612"
    },
    {
      "channel": 3,
      "note": 61,
      "start": 65.5132,
      "duration": 0.1848,
      "velocity": 102,
      "chip": "ym2612"
    },
    {
      "channel": 2,
      "note": 61,
      "start": 65.6979,
      "duration": 0.1807,
      "velocity": 109,
      "chip": "ym2612"
    },
    {
      "channel": 5,
      "note": 75,
      "start": 65.6989,
      "duration": 0.345,
      "velocity": 120,
      "chip": "ym2612"
    },
    {
      "channel": 2,
      "note": 56,
      "start": 65.8792,
      "duration": 0.1681,
      "velocity": 109,
      "chip": "ym2612"
    },
    {
      "channel": 3,
      "note": 61,
      "start": 65.8799,
      "duration": 0.1148,
      "velocity": 102,
      "chip": "ym2612"
    },
    {
      "channel": 2,
      "note": 65,
      "start": 66.0479,
      "duration": 0.1807,
      "velocity": 109,
      "chip": "ym2612"
    },
    {
      "channel": 3,
      "note": 61,
      "start": 66.0486,
      "duration": 0.3661,
      "velocity": 102,
      "chip": "ym2612"
    },
    {
      "channel": 5,
      "note": 32,
      "start": 66.0494,
      "duration": 0.2457,
      "velocity": 114,
      "chip": "ym2612"
    },
    {
      "channel": 2,
      "note": 56,
      "start": 66.2292,
      "duration": 0.1848,
      "velocity": 109,
      "chip": "ym2612"
    },
    {
      "channel": 2,
      "note": 61,
      "start": 66.4145,
      "duration": 0.1807,
      "velocity": 109,
      "chip": "ym2612"
    },
    {
      "channel": 5,
      "note": 75,
      "start": 66.4156,
      "duration": 0.3617,
      "velocity": 120,
      "chip": "ym2612"
    },
    {
      "channel": 2,
      "note": 56,
      "start": 66.5959,
      "duration": 0.1868,
      "velocity": 109,
      "chip": "ym2612"
    },
    {
      "channel": 5,
      "note": 62,
      "start": 66.7842,
      "duration": 0.076,
      "velocity": 117,
      "chip": "ym2612"
    },
    {
      "channel": 5,
      "note": 62,
      "start": 66.864,
      "duration": 0.0795,
      "velocity": 117,
      "chip": "ym2612"
    },
    {
      "channel": 5,
      "note": 62,
      "start": 66.9473,
      "duration": 0.0962,
      "velocity": 117,
      "chip": "ym2612"
    },
    {
      "channel": 5,
      "note": 62,
      "start": 67.0473,
      "duration": 0.1795,
      "velocity": 117,
      "chip": "ym2612"
    },
    {
      "channel": 5,
      "note": 59,
      "start": 67.2305,
      "duration": 0.0797,
      "velocity": 117,
      "chip": "ym2612"
    },
    {
      "channel": 5,
      "note": 59,
      "start": 67.3138,
      "duration": 0.0797,
      "velocity": 117,
      "chip": "ym2612"
    },
    {
      "channel": 5,
      "note": 59,
      "start": 67.3972,
      "duration": 0.0963,
      "velocity": 117,
      "chip": "ym2612"
    },
    {
      "channel": 5,
      "note": 54,
      "start": 67.4973,
      "duration": 0.0795,
      "velocity": 117,
      "chip": "ym2612"
    },
    {
      "channel": 5,
      "note": 54,
      "start": 67.5806,
      "duration": 0.0962,
      "velocity": 117,
      "chip": "ym2612"
    },
    {
      "channel": 5,
      "note": 54,
      "start": 67.6806,
      "duration": 0.0795,
      "velocity": 117,
      "chip": "ym2612"
    },
    {
      "channel": 5,
      "note": 54,
      "start": 67.764,
      "duration": 0.1795,
      "velocity": 117,
      "chip": "ym2612"
    },
    {
      "channel": 0,
      "note": 73,
      "start": 67.8614,
      "duration": 0.1155,
      "velocity": 106,
      "chip": "ym2612"
    },
    {
      "channel": 1,
      "note": 61,
      "start": 67.8621,
      "duration": 0.1156,
      "velocity": 106,
      "chip": "ym2612"
    },
    {
      "channel": 5,
      "note": 50,
      "start": 67.9478,
      "duration": 0.079,
      "velocity": 117,
      "chip": "ym2612"
    },
    {
      "channel": 0,
      "note": 75,
      "start": 67.9775,
      "duration": 0.116,
      "velocity": 106,
      "chip": "ym2612"
    },
    {
      "channel": 1,
      "note": 60,
      "start": 67.9783,
      "duration": 0.1161,
      "velocity": 106,
      "chip": "ym2612"
    },
    {
      "channel": 5,
      "note": 50,
      "start": 68.0312,
      "duration": 0.0957,
      "velocity": 117,
      "chip": "ym2612"
    },
    {
      "channel": 0,
      "note": 77,
      "start": 68.0942,
      "duration": 0.1172,
      "velocity": 106,
      "chip": "ym2612"
    },
    {
      "channel": 1,
      "note": 56,
      "start": 68.0949,
      "duration": 0.1173,
      "velocity": 106,
      "chip": "ym2612"
    },
    {
      "channel": 5,
      "note": 50,
      "start": 68.1312,
      "duration": 0.5302,
      "velocity": 117,
      "chip": "ym2612"
    },
    {
      "channel": 0,
      "note": 78,
      "start": 68.212,
      "duration": 0.1821,
      "velocity": 106,
      "chip": "ym2612"
    },
    {
      "channel": 1,
      "note": 54,
      "start": 68.2128,
      "duration": 0.1817,
      "velocity": 106,
      "chip": "ym2612"
    },
    {
      "channel": 3,
      "note": 66,
      "start": 68.2139,
      "duration": 1.3805,
      "velocity": 102,
      "chip": "ym2612"
    },
    {
      "channel": 0,
      "note": 58,
      "start": 68.5781,
      "duration": 0.1827,
      "velocity": 106,
      "chip": "ym2612"
    },
    {
      "channel": 1,
      "note": 54,
      "start": 68.5789,
      "duration": 0.115,
      "velocity": 106,
      "chip": "ym2612"
    },
    {
      "channel": 0,
      "note": 56,
      "start": 68.7614,
      "duration": 1.616,
      "velocity": 106,
      "chip": "ym2612"
    },
    {
      "channel": 1,
      "note": 54,
      "start": 68.7621,
      "duration": 1.6156,
      "velocity": 106,
      "chip": "ym2612"
    },
    {
      "channel": 5,
      "note": 75,
      "start": 69.2983,
      "duration": 0.5475,
      "velocity": 120,
      "chip": "ym2612"
    },
    {
      "channel": 3,
      "note": 66,
      "start": 69.6624,
      "duration": 0.1824,
      "velocity": 102,
      "chip": "ym2612"
    },
    {
      "channel": 3,
      "note": 61,
      "start": 69.8455,
      "duration": 0.1661,
      "velocity": 102,
      "chip": "ym2612"
    },
    {
      "channel": 3,
      "note": 66,
      "start": 70.0121,
      "duration": 0.1828,
      "velocity": 102,
      "chip": "ym2612"
    },
    {
      "channel": 3,
      "note": 61,
      "start": 70.1955,
      "duration": 0.1826,
      "velocity": 102,
      "chip": "ym2612"
    },
    {
      "channel": 3,
      "note": 66,
      "start": 70.3787,
      "duration": 0.1822,
      "velocity": 102,
      "chip": "ym2612"
    },
    {
      "channel": 3,
      "note": 61,
      "start": 70.5615,
      "duration": 0.1851,
      "velocity": 102,
      "chip": "ym2612"
    },
    {
      "channel": 3,
      "note": 66,
      "start": 70.7472,
      "duration": 0.0798,
      "velocity": 102,
      "chip": "ym2612"
    },
    {
      "channel": 5,
      "note": 75,
      "start": 70.748,
      "duration": 0.53,
      "velocity": 120,
      "chip": "ym2612"
    },
    {
      "channel": 3,
      "note": 61,
      "start": 70.8276,
      "duration": 0.0837,
      "velocity": 102,
      "chip": "ym2612"
    },
    {
      "channel": 3,
      "note": 63,
      "start": 70.9119,
      "duration": 0.0985,
      "velocity": 102,
      "chip": "ym2612"
    },
    {
      "channel": 3,
      "note": 65,
      "start": 71.011,
      "duration": 0.084,
      "velocity": 102,
      "chip": "ym2612"
    },
    {
      "channel": 3,
      "note": 66,
      "start": 71.0956,
      "duration": 1.382,
      "velocity": 102,
      "chip": "ym2612"
    },
    {
      "channel": 0,
      "note": 58,
      "start": 71.4614,
      "duration": 0.1827,
      "velocity": 106,
      "chip": "ym2612"
    },
    {
      "channel": 1,
      "note": 54,
      "start": 71.4621,
      "duration": 0.1151,
      "velocity": 106,
      "chip": "ym2612"
    },
    {
      "channel": 0,
      "note": 56,
      "start": 71.6448,
      "duration": 0.3494,
      "velocity": 106,
      "chip": "ym2612"
    },
    {
      "channel": 1,
      "note": 54,
      "start": 71.6455,
      "duration": 0.2985,
      "velocity": 106,
      "chip": "ym2612"
    },
    {
      "channel": 0,
      "note": 61,
      "start": 71.9948,
      "duration": 0.3664,
      "velocity": 106,
      "chip": "ym2612"
    },
    {
      "channel": 1,
      "note": 54,
      "start": 71.9955,
      "duration": 0.2985,
      "velocity": 106,
      "chip": "ym2612"
    },
    {
      "channel": 5,
      "note": 75,
      "start": 72.1816,
      "duration": 0.5471,
      "velocity": 120,
      "chip": "ym2612"
    },
    {
      "channel": 0,
      "note": 59,
      "start": 72.3618,
      "duration": 1.6159,
      "velocity": 106,
      "chip": "ym2612"
    },
    {
      "channel": 1,
      "note": 54,
      "start": 72.3625,
      "duration": 1.6156,
      "velocity": 106,
      "chip": "ym2612"
    },
    {
      "channel": 3,
      "note": 66,
      "start": 72.5458,
      "duration": 1.3819,
      "velocity": 102,
      "chip": "ym2612"
    },
    {
      "channel": 5,
      "note": 75,
      "start": 73.6316,
      "duration": 0.5298,
      "velocity": 120,
      "chip": "ym2612"
    },
    {
      "channel": 3,
      "note": 66,
      "start": 73.9791,
      "duration": 1.3819,
      "velocity": 102,
      "chip": "ym2612"
    },
    {
      "channel": 0,
      "note": 58,
      "start": 74.3448,
      "duration": 0.1827,
      "velocity": 106,
      "chip": "ym2612"
    },
    {
      "channel": 1,
      "note": 54,
      "start": 74.3456,
      "duration": 0.115,
      "velocity": 106,
      "chip": "ym2612"
    },
    {
      "channel": 0,
      "note": 56,
      "start": 74.5281,
      "duration": 1.616,
      "velocity": 106,
      "chip": "ym2612"
    },
    {
      "channel": 1,
      "note": 54,
      "start": 74.5288,
      "duration": 1.6156,
      "velocity": 106,
      "chip": "ym2612"
    },
    {
      "channel": 5,
      "note": 75,
      "start": 75.0649,
      "duration": 0.5475,
      "velocity": 120,
      "chip": "ym2612"
    },
    {
      "channel": 3,
      "note": 66,
      "start": 75.4291,
      "duration": 0.1824,
      "velocity": 102,
      "chip": "ym2612"
    },
    {
      "channel": 3,
      "note": 61,
      "start": 75.6121,
      "duration": 0.1661,
      "velocity": 102,
      "chip": "ym2612"
    },
    {
      "channel": 3,
      "note": 66,
      "start": 75.7788,
      "duration": 0.1828,
      "velocity": 102,
      "chip": "ym2612"
    },
    {
      "channel": 3,
      "note": 61,
      "start": 75.9622,
      "duration": 0.1826,
      "velocity": 102,
      "chip": "ym2612"
    },
    {
      "channel": 3,
      "note": 66,
      "start": 76.1454,
      "duration": 0.1822,
      "velocity": 102,
      "chip": "ym2612"
    },
    {
      "channel": 3,
      "note": 61,
      "start": 76.3282,
      "duration": 0.1851,
      "velocity": 102,
      "chip": "ym2612"
    },
    {
      "channel": 3,
      "note": 66,
      "start": 76.5139,
      "duration": 0.0798,
      "velocity": 102,
      "chip": "ym2612"
    },
    {
      "channel": 5,
      "note": 75,
      "start": 76.5147,
      "duration": 0.53,
      "velocity": 120,
      "chip": "ym2612"
    },
    {
      "channel": 3,
      "note": 61,
      "start": 76.5943,
      "duration": 0.1004,
      "velocity": 102,
      "chip": "ym2612"
    },
    {
      "channel": 3,
      "note": 63,
      "start": 76.6953,
      "duration": 0.0818,
      "velocity": 102,
      "chip": "ym2612"
    },
    {
      "channel": 3,
      "note": 65,
      "start": 76.7776,
      "duration": 0.084,
      "velocity": 102,
      "chip": "ym2612"
    },
    {
      "channel": 3,
      "note": 66,
      "start": 76.8622,
      "duration": 1.3821,
      "velocity": 102,
      "chip": "ym2612"
    },
    {
      "channel": 0,
      "note": 58,
      "start": 77.2281,
      "duration": 0.1827,
      "velocity": 106,
      "chip": "ym2612"
    },
    {
      "channel": 1,
      "note": 54,
      "start": 77.2288,
      "duration": 0.1151,
      "velocity": 106,
      "chip": "ym2612"
    },
    {
      "channel": 0,
      "note": 56,
      "start": 77.4114,
      "duration": 0.3494,
      "velocity": 106,
      "chip": "ym2612"
    },
    {
      "channel": 1,
      "note": 54,
      "start": 77.4121,
      "duration": 0.2985,
      "velocity": 106,
      "chip": "ym2612"
    },
    {
      "channel": 0,
      "note": 61,
      "start": 77.7614,
      "duration": 0.5515,
      "velocity": 106,
      "chip": "ym2612"
    },
    {
      "channel": 1,
      "note": 54,
      "start": 77.7621,
      "duration": 0.5517,
      "velocity": 106,
      "chip": "ym2612"
    },
    {
      "channel": 5,
      "note": 75,
      "start": 77.9483,
      "duration": 0.3621,
      "velocity": 120,
      "chip": "ym2612"
    },
    {
      "channel": 0,
      "note": 65,
      "start": 78.3136,
      "duration": 1.43,
      "velocity": 106,
      "chip": "ym2612"
    },
    {
      "channel": 1,
      "note": 61,
      "start": 78.3144,
      "duration": 0.0796,
      "velocity": 106,
      "chip": "ym2612"
    },
    {
      "channel": 3,
      "note": 66,
      "start": 78.3151,
      "duration": 1.4292,
      "velocity": 102,
      "chip": "ym2612"
    },
    {
      "channel": 5,
      "note": 48,
      "start": 78.3158,
      "duration": 0.2956,
      "velocity": 127,
      "chip": "ym2612"
    },
    {
      "channel": 1,
      "note": 58,
      "start": 78.3945,
      "duration": 0.0995,
      "velocity": 106,
      "chip": "ym2612"
    },
    {
      "channel": 1,
      "note": 61,
      "start": 78.4946,
      "duration": 0.0828,
      "velocity": 106,
      "chip": "ym2612"
    },
    {
      "channel": 1,
      "note": 65,
      "start": 78.5779,
      "duration": 0.0994,
      "velocity": 106,
      "chip": "ym2612"
    },
    {
      "channel": 1,
      "note": 68,
      "start": 78.6779,
      "duration": 1.066,
      "velocity": 106,
      "chip": "ym2612"
    }
  ]
}