{
  "track_name": "12 - Deep Fear",
  "duration_sec": 15.874,
  "sample_rate": 44100,
  "note_count": 85,
  "unique_pitches": 20,
  "pitch_range": 29,
  "avg_note_duration": 1.1144,
  "reconstruction_stats": {
    "notes_reconstructed": 85,
    "keyon_events": 85,
    "keyoff_events": 76,
    "orphan_keyons": 6,
    "unique_pitches": 20,
    "pitch_range": 29,
    "avg_duration_sec": 1.1144
  },
  "metadata": {
    "source": "F\\Fushigi no Umi no Nadia\\12 - Deep Fear.vgz"
  },
  "notes": [
    {
      "channel": 0,
      "note": 54,
      "start": 0.0,
      "duration": 0.5965,
      "velocity": 93,
      "chip": "ym2612"
    },
    {
      "channel": 3,
      "note": -1,
      "start": 0.0,
      "duration": 0.0,
      "velocity": 1,
      "chip": "ym2612"
    },
    {
      "channel": 3,
      "note": -1,
      "start": 0.0,
      "duration": 0.0101,
      "velocity": 99,
      "chip": "ym2612"
    },
    {
      "channel": 4,
      "note": -1,
      "start": 0.0,
      "duration": 0.0,
      "velocity": 1,
      "chip": "ym2612"
    },
    {
      "channel": 4,
      "note": -1,
      "start": 0.0,
      "duration": 0.2997,
      "velocity": 99,
      "chip": "ym2612"
    },
    {
      "channel": 5,
      "note": -1,
      "start": 0.0,
      "duration": 0.0,
      "velocity": 1,
      "chip": "ym2612"
    },
    {
      "channel": 5,
      "note": -1,
      "start": 0.0,
      "duration": 15.8738,
      "velocity": 1,
      "chip": "ym2612"
    },
    {
      "channel": 1,
      "note": 61,
      "start": 0.0031,
      "duration": 0.5939,
      "velocity": 93,
      "chip": "ym2612"
    },
    {
      "channel": 2,
      "note": 69,
      "start": 0.0066,
      "duration": 1.49,
      "velocity": 99,
      "chip": "ym2612"
    },
    {
      "channel": 3,
      "note": 76,
      "start": 0.0101,
      "duration": 1.4871,
      "velocity": 99,
      "chip": "ym2612"
    },
    {
      "channel": 4,
      "note": 69,
      "start": 0.2997,
      "duration": 1.4982,
      "velocity": 99,
      "chip": "ym2612"
    },
    {
      "channel": 0,
      "note": 54,
      "start": 0.5965,
      "duration": 0.6,
      "velocity": 93,
      "chip": "ym2612"
    },
    {
      "channel": 1,
      "note": 61,
      "start": 0.597,
      "duration": 0.6,
      "velocity": 93,
      "chip": "ym2612"
    },
    {
      "channel": 0,
      "note": 54,
      "start": 1.1965,
      "duration": 0.6001,
      "velocity": 93,
      "chip": "ym2612"
    },
    {
      "channel": 1,
      "note": 61,
      "start": 1.1971,
      "duration": 0.6001,
      "velocity": 93,
      "chip": "ym2612"
    },
    {
      "channel": 2,
      "note": 70,
      "start": 1.4966,
      "duration": 1.8012,
      "velocity": 99,
      "chip": "ym2612"
    },
    {
      "channel": 3,
      "note": 77,
      "start": 1.4972,
      "duration": 1.8011,
      "velocity": 99,
      "chip": "ym2612"
    },
    {
      "channel": 0,
      "note": 54,
      "start": 1.7966,
      "duration": 0.5999,
      "velocity": 93,
      "chip": "ym2612"
    },
    {
      "channel": 1,
      "note": 61,
      "start": 1.7972,
      "duration": 0.5999,
      "velocity": 93,
      "chip": "ym2612"
    },
    {
      "channel": 4,
      "note": 70,
      "start": 1.7979,
      "duration": 1.8,
      "velocity": 99,
      "chip": "ym2612"
    },
    {
      "channel": 0,
      "note": 54,
      "start": 2.3965,
      "duration": 0.6,
      "velocity": 93,
      "chip": "ym2612"
    },
    {
      "channel": 1,
      "note": 61,
      "start": 2.397,
      "duration": 0.6,
      "velocity": 93,
      "chip": "ym2612"
    },
    {
      "channel": 0,
      "note": 54,
      "start": 2.9965,
      "duration": 0.0994,
      "velocity": 93,
      "chip": "ym2612"
    },
    {
      "channel": 1,
      "note": 61,
      "start": 2.9971,
      "duration": 0.099,
      "velocity": 93,
      "chip": "ym2612"
    },
    {
      "channel": 0,
      "note": 55,
      "start": 3.2968,
      "duration": 0.2658,
      "velocity": 93,
      "chip": "ym2612"
    },
    {
      "channel": 1,
      "note": 62,
      "start": 3.2973,
      "duration": 0.2655,
      "velocity": 93,
      "chip": "ym2612"
    },
    {
      "channel": 2,
      "note": 71,
      "start": 3.2979,
      "duration": 1.7988,
      "velocity": 99,
      "chip": "ym2612"
    },
    {
      "channel": 3,
      "note": 78,
      "start": 3.2984,
      "duration": 1.7988,
      "velocity": 99,
      "chip": "ym2612"
    },
    {
      "channel": 0,
      "note": 54,
      "start": 3.5966,
      "duration": 0.5998,
      "velocity": 93,
      "chip": "ym2612"
    },
    {
      "channel": 1,
      "note": 61,
      "start": 3.5972,
      "duration": 0.5998,
      "velocity": 93,
      "chip": "ym2612"
    },
    {
      "channel": 4,
      "note": 71,
      "start": 3.5979,
      "duration": 1.8,
      "velocity": 99,
      "chip": "ym2612"
    },
    {
      "channel": 0,
      "note": 54,
      "start": 4.1965,
      "duration": 0.6,
      "velocity": 93,
      "chip": "ym2612"
    },
    {
      "channel": 1,
      "note": 61,
      "start": 4.197,
      "duration": 0.6,
      "velocity": 93,
      "chip": "ym2612"
    },
    {
      "channel": 0,
      "note": 54,
      "start": 4.7965,
      "duration": 0.6001,
      "velocity": 93,
      "chip": "ym2612"
    },
    {
      "channel": 1,
      "note": 61,
      "start": 4.7971,
      "duration": 0.6001,
      "velocity": 93,
      "chip": "ym2612"
    },
    {
      "channel": 2,
      "note": 72,
      "start": 5.0966,
      "duration": 1.8012,
      "velocity": 99,
      "chip": "ym2612"
    },
    {
      "channel": 3,
      "note": 79,
      "start": 5.0972,
      "duration": 1.8011,
      "velocity": 99,
      "chip": "ym2612"
    },
    {
      "channel": 0,
      "note": 54,
      "start": 5.3966,
      "duration": 0.5999,
      "velocity": 93,
      "chip": "ym2612"
    },
    {
      "channel": 1,
      "note": 61,
      "start": 5.3972,
      "duration": 0.5999,
      "velocity": 93,
      "chip": "ym2612"
    },
    {
      "channel": 4,
      "note": 72,
      "start": 5.3979,
      "duration": 1.8,
      "velocity": 99,
      "chip": "ym2612"
    },
    {
      "channel": 0,
      "note": 54,
      "start": 5.9965,
      "duration": 0.6,
      "velocity": 93,
      "chip": "ym2612"
    },
    {
      "channel": 1,
      "note": 61,
      "start": 5.9971,
      "duration": 0.6,
      "velocity": 93,
      "chip": "ym2612"
    },
    {
      "channel": 0,
      "note": 54,
      "start": 6.5966,
      "duration": 0.0993,
      "velocity": 93,
      "chip": "ym2612"
    },
    {
      "channel": 1,
      "note": 61,
      "start": 6.5971,
      "duration": 0.099,
      "velocity": 93,
      "chip": "ym2612"
    },
    {
      "channel": 0,
      "note": 55,
      "start": 6.8967,
      "duration": 0.2659,
      "velocity": 93,
      "chip": "ym2612"
    },
    {
      "channel": 1,
      "note": 62,
      "start": 6.8973,
      "duration": 0.2655,
      "velocity": 93,
      "chip": "ym2612"
    },
    {
      "channel": 2,
      "note": 73,
      "start": 6.8979,
      "duration": 1.7988,
      "velocity": 99,
      "chip": "ym2612"
    },
    {
      "channel": 3,
      "note": 80,
      "start": 6.8984,
      "duration": 1.7989,
      "velocity": 99,
      "chip": "ym2612"
    },
    {
      "channel": 0,
      "note": 54,
      "start": 7.1966,
      "duration": 0.5998,
      "velocity": 93,
      "chip": "ym2612"
    },
    {
      "channel": 1,
      "note": 61,
      "start": 7.1972,
      "duration": 0.5998,
      "velocity": 93,
      "chip": "ym2612"
    },
    {
      "channel": 4,
      "note": 73,
      "start": 7.1979,
      "duration": 1.8,
      "velocity": 99,
      "chip": "ym2612"
    },
    {
      "channel": 0,
      "note": 54,
      "start": 7.7965,
      "duration": 0.6,
      "velocity": 93,
      "chip": "ym2612"
    },
    {
      "channel": 1,
      "note": 61,
      "start": 7.797,
      "duration": 0.6,
      "velocity": 93,
      "chip": "ym2612"
    },
    {
      "channel": 0,
      "note": 54,
      "start": 8.3965,
      "duration": 0.6001,
      "velocity": 93,
      "chip": "ym2612"
    },
    {
      "channel": 1,
      "note": 61,
      "start": 8.3971,
      "duration": 0.6001,
      "velocity": 93,
      "chip": "ym2612"
    },
    {
      "channel": 2,
      "note": 74,
      "start": 8.6966,
      "duration": 1.8012,
      "velocity": 99,
      "chip": "ym2612"
    },
    {
      "channel": 3,
      "note": 81,
      "start": 8.6972,
      "duration": 1.8011,
      "velocity": 99,
      "chip": "ym2612"
    },
    {
      "channel": 0,
      "note": 54,
      "start": 8.9966,
      "duration": 0.5999,
      "velocity": 93,
      "chip": "ym2612"
    },
    {
      "channel": 1,
      "note": 61,
      "start": 8.9972,
      "duration": 0.5999,
      "velocity": 93,
      "chip": "ym2612"
    },
    {
      "channel": 4,
      "note": 74,
      "start": 8.9979,
      "duration": 1.8,
      "velocity": 99,
      "chip": "ym2612"
    },
    {
      "channel": 0,
      "note": 54,
      "start": 9.5965,
      "duration": 0.6,
      "velocity": 93,
      "chip": "ym2612"
    },
    {
      "channel": 1,
      "note": 61,
      "start": 9.5971,
      "duration": 0.6,
      "velocity": 93,
      "chip": "ym2612"
    },
    {
      "channel": 0,
      "note": 54,
      "start": 10.1966,
      "duration": 0.0993,
      "velocity": 93,
      "chip": "ym2612"
    },
    {
      "channel": 1,
      "note": 61,
      "start": 10.1971,
      "duration": 0.099,
      "velocity": 93,
      "chip": "ym2612"
    },
    {
      "channel": 0,
      "note": 55,
      "start": 10.4967,
      "duration": 0.2659,
      "velocity": 93,
      "chip": "ym2612"
    },
    {
      "channel": 1,
      "note": 62,
      "start": 10.4973,
      "duration": 0.2655,
      "velocity": 93,
      "chip": "ym2612"
    },
    {
      "channel": 2,
      "note": 75,
      "start": 10.4979,
      "duration": 1.8059,
      "velocity": 99,
      "chip": "ym2612"
    },
    {
      "channel": 3,
      "note": 82,
      "start": 10.4984,
      "duration": 1.806,
      "velocity": 99,
      "chip": "ym2612"
    },
    {
      "channel": 0,
      "note": 54,
      "start": 10.7966,
      "duration": 0.5998,
      "velocity": 93,
      "chip": "ym2612"
    },
    {
      "channel": 1,
      "note": 61,
      "start": 10.7972,
      "duration": 0.5998,
      "velocity": 93,
      "chip": "ym2612"
    },
    {
      "channel": 4,
      "note": 75,
      "start": 10.7979,
      "duration": 1.7989,
      "velocity": 99,
      "chip": "ym2612"
    },
    {
      "channel": 0,
      "note": 54,
      "start": 11.3965,
      "duration": 0.6,
      "velocity": 93,
      "chip": "ym2612"
    },
    {
      "channel": 1,
      "note": 61,
      "start": 11.397,
      "duration": 0.6,
      "velocity": 93,
      "chip": "ym2612"
    },
    {
      "channel": 0,
      "note": 54,
      "start": 11.9965,
      "duration": 0.3032,
      "velocity": 106,
      "chip": "ym2612"
    },
    {
      "channel": 1,
      "note": 61,
      "start": 11.9971,
      "duration": 0.3061,
      "velocity": 106,
      "chip": "ym2612"
    },
    {
      "channel": 0,
      "note": 55,
      "start": 12.2998,
      "duration": 2.6963,
      "velocity": 106,
      "chip": "ym2612"
    },
    {
      "channel": 1,
      "note": 63,
      "start": 12.3033,
      "duration": 2.693,
      "velocity": 106,
      "chip": "ym2612"
    },
    {
      "channel": 2,
      "note": 77,
      "start": 12.3038,
      "duration": 2.3924,
      "velocity": 99,
      "chip": "ym2612"
    },
    {
      "channel": 3,
      "note": 83,
      "start": 12.3044,
      "duration": 2.392,
      "velocity": 99,
      "chip": "ym2612"
    },
    {
      "channel": 4,
      "note": 77,
      "start": 12.5968,
      "duration": 2.3998,
      "velocity": 99,
      "chip": "ym2612"
    },
    {
      "channel": 0,
      "note": 54,
      "start": 15.3,
      "duration": 0.5738,
      "velocity": 93,
      "chip": "ym2612"
    },
    {
      "channel": 1,
      "note": 61,
      "start": 15.3035,
      "duration": 0.5703,
      "velocity": 93,
      "chip": "ym2612"
    },
    {
      "channel": 2,
      "note": 69,
      "start": 15.307,
      "duration": 0.5668,
      "velocity": 99,
      "chip": "ym2612"
    },
    {
      "channel": 3,
      "note": 76,
      "start": 15.3105,
      "duration": 0.5633,
      "velocity": 99,
      "chip": "ym2612"
    },
    {
      "channel": 4,
      "note": 69,
      "start": 15.5998,
      "duration": 0.2741,
      "velocity": 99,
      "chip": "ym2612"
    }
  ]
}